0, 0, Header, 1, 5, 960
1, 0, Start_track
1, 0, Title_t, "Sonata Pathetique - Op. 13  - 2nd Movement - adagio cantabile (Beethoven)"
1, 0, Text_t, "dougmck@pipeline.com.au     A jazz improvisation  based on Beethoven's Pathetique sonata - 2nd movement -  beautiful melodic themes. Jazz versions by Richie Beirach,  Ted Rosenthal and others.\012"
1, 0, Time_signature, 3, 2, 24, 8
1, 0, Key_signature, -4, "major"
1, 0, Tempo, 521739
1, 0, End_track
2, 0, Start_track
2, 0, Title_t, "piano"
2, 0, Control_c, 0, 0, 0
2, 1, Control_c, 0, 32, 1
2, 2, Program_c, 0, 0
2, 818, Note_on_c, 0, 84, 91
2, 855, Note_on_c, 0, 53, 61
2, 1271, Control_c, 0, 64, 127
2, 1732, Note_on_c, 0, 60, 43
2, 2397, Note_on_c, 0, 53, 0
2, 2524, Note_on_c, 0, 72, 40
2, 2540, Note_on_c, 0, 77, 40
2, 2560, Note_on_c, 0, 60, 0
2, 2579, Note_on_c, 0, 67, 46
2, 3420, Note_on_c, 0, 68, 48
2, 3433, Note_on_c, 0, 67, 0
2, 3613, Note_on_c, 0, 72, 0
2, 4264, Note_on_c, 0, 77, 0
2, 4483, Note_on_c, 0, 72, 32
2, 4546, Note_on_c, 0, 84, 0
2, 5387, Note_on_c, 0, 72, 0
2, 5652, Note_on_c, 0, 68, 0
2, 5677, Note_on_c, 0, 80, 88
2, 5692, Note_on_c, 0, 72, 90
2, 5775, Note_on_c, 0, 78, 27
2, 5837, Note_on_c, 0, 78, 0
2, 6371, Note_on_c, 0, 72, 0
2, 6435, Note_on_c, 0, 80, 0
2, 6748, Note_on_c, 0, 70, 52
2, 6750, Note_on_c, 0, 79, 63
2, 7554, Note_on_c, 0, 70, 0
2, 8908, Note_on_c, 0, 79, 0
2, 9052, Note_on_c, 0, 68, 29
2, 9061, Note_on_c, 0, 77, 44
2, 9390, Note_on_c, 0, 68, 0
2, 9400, Note_on_c, 0, 77, 0
2, 10401, Control_c, 0, 64, 0
2, 10426, Note_on_c, 0, 84, 52
2, 10428, Note_on_c, 0, 76, 46
2, 10439, Note_on_c, 0, 52, 44
2, 10846, Control_c, 0, 64, 127
2, 10973, Note_on_c, 0, 84, 0
2, 11078, Note_on_c, 0, 76, 0
2, 11218, Note_on_c, 0, 60, 31
2, 11847, Note_on_c, 0, 52, 0
2, 11878, Note_on_c, 0, 67, 38
2, 11891, Note_on_c, 0, 72, 42
2, 11909, Note_on_c, 0, 60, 0
2, 11954, Note_on_c, 0, 64, 38
2, 11985, Note_on_c, 0, 67, 0
2, 12084, Note_on_c, 0, 72, 0
2, 12215, Note_on_c, 0, 64, 0
2, 12645, Note_on_c, 0, 67, 37
2, 13657, Note_on_c, 0, 84, 36
2, 13661, Note_on_c, 0, 91, 31
2, 13690, Note_on_c, 0, 72, 30
2, 14746, Note_on_c, 0, 91, 0
2, 14964, Note_on_c, 0, 72, 0
2, 14977, Note_on_c, 0, 84, 0
2, 16425, Note_on_c, 0, 67, 0
2, 16587, Note_on_c, 0, 80, 92
2, 17078, Note_on_c, 0, 80, 0
2, 17361, Note_on_c, 0, 79, 90
2, 17398, Note_on_c, 0, 77, 43
2, 17484, Note_on_c, 0, 77, 0
2, 17823, Note_on_c, 0, 79, 0
2, 18051, Note_on_c, 0, 77, 80
2, 18285, Note_on_c, 0, 77, 0
2, 18887, Note_on_c, 0, 76, 66
2, 18888, Note_on_c, 0, 55, 53
2, 18942, Control_c, 0, 64, 0
2, 19420, Control_c, 0, 64, 127
2, 19733, Note_on_c, 0, 60, 35
2, 20661, Note_on_c, 0, 67, 43
2, 20664, Note_on_c, 0, 64, 33
2, 20677, Note_on_c, 0, 70, 44
2, 21259, Note_on_c, 0, 55, 0
2, 21503, Note_on_c, 0, 55, 66
2, 21921, Note_on_c, 0, 70, 0
2, 22011, Note_on_c, 0, 67, 0
2, 22280, Note_on_c, 0, 55, 0
2, 22381, Note_on_c, 0, 76, 0
2, 22399, Note_on_c, 0, 64, 0
2, 22480, Control_c, 0, 64, 0
2, 22484, Note_on_c, 0, 68, 61
2, 22501, Note_on_c, 0, 56, 69
2, 22526, Note_on_c, 0, 60, 0
2, 22777, Control_c, 0, 64, 127
2, 22815, Note_on_c, 0, 68, 0
2, 22918, Note_on_c, 0, 70, 51
2, 22988, Note_on_c, 0, 70, 0
2, 23538, Note_on_c, 0, 80, 78
2, 23551, Control_c, 0, 64, 0
2, 23553, Note_on_c, 0, 72, 78
2, 23555, Note_on_c, 0, 63, 74
2, 23557, Note_on_c, 0, 68, 78
2, 23884, Control_c, 0, 64, 127
2, 24368, Note_on_c, 0, 80, 0
2, 24554, Note_on_c, 0, 79, 79
2, 25180, Note_on_c, 0, 56, 0
2, 25244, Note_on_c, 0, 79, 0
2, 25373, Note_on_c, 0, 68, 0
2, 25375, Note_on_c, 0, 63, 0
2, 25417, Note_on_c, 0, 77, 74
2, 25430, Note_on_c, 0, 56, 67
2, 25514, Note_on_c, 0, 75, 25
2, 25625, Note_on_c, 0, 75, 0
2, 25754, Note_on_c, 0, 56, 0
2, 25774, Note_on_c, 0, 72, 0
2, 25789, Note_on_c, 0, 77, 0
2, 26479, Note_on_c, 0, 75, 78
2, 26492, Note_on_c, 0, 68, 81
2, 26503, Control_c, 0, 64, 0
2, 26504, Note_on_c, 0, 65, 73
2, 26510, Note_on_c, 0, 56, 62
2, 26521, Note_on_c, 0, 46, 57
2, 26574, Note_on_c, 0, 67, 29
2, 26642, Note_on_c, 0, 67, 0
2, 26872, Control_c, 0, 64, 127
2, 27338, Note_on_c, 0, 75, 0
2, 27415, Note_on_c, 0, 65, 0
2, 27469, Note_on_c, 0, 68, 0
2, 27676, Note_on_c, 0, 74, 94
2, 28464, Note_on_c, 0, 74, 0
2, 28810, Note_on_c, 0, 74, 96
2, 29544, Note_on_c, 0, 46, 0
2, 29862, Note_on_c, 0, 46, 71
2, 30203, Note_on_c, 0, 74, 0
2, 30569, Note_on_c, 0, 46, 0
2, 30779, Note_on_c, 0, 56, 0
2, 31391, Note_on_c, 0, 62, 49
2, 31408, Note_on_c, 0, 59, 45
2, 31421, Note_on_c, 0, 56, 48
2, 31432, Note_on_c, 0, 47, 49
2, 31465, Control_c, 0, 64, 0
2, 32109, Control_c, 0, 64, 127
2, 32528, Note_on_c, 0, 59, 0
2, 32617, Note_on_c, 0, 62, 0
2, 32622, Note_on_c, 0, 47, 0
2, 32760, Note_on_c, 0, 56, 0
2, 35272, Note_on_c, 0, 77, 77
2, 35281, Note_on_c, 0, 71, 84
2, 35285, Note_on_c, 0, 68, 86
2, 35290, Note_on_c, 0, 62, 94
2, 35316, Control_c, 0, 64, 0
2, 35318, Note_on_c, 0, 74, 64
2, 35815, Control_c, 0, 64, 127
2, 36970, Note_on_c, 0, 74, 0
2, 37244, Note_on_c, 0, 77, 0
2, 37508, Note_on_c, 0, 75, 60
2, 37594, Note_on_c, 0, 62, 0
2, 37820, Note_on_c, 0, 71, 0
2, 37842, Note_on_c, 0, 74, 66
2, 37855, Note_on_c, 0, 75, 0
2, 37892, Note_on_c, 0, 68, 0
2, 38181, Note_on_c, 0, 74, 0
2, 38293, Note_on_c, 0, 48, 58
2, 38304, Note_on_c, 0, 75, 72
2, 38343, Control_c, 0, 64, 0
2, 38842, Control_c, 0, 64, 127
2, 39276, Note_on_c, 0, 55, 35
2, 40332, Note_on_c, 0, 60, 28
2, 40332, Note_on_c, 0, 63, 32
2, 40332, Note_on_c, 0, 67, 42
2, 40691, Note_on_c, 0, 48, 0
2, 40807, Note_on_c, 0, 60, 0
2, 41309, Note_on_c, 0, 63, 0
2, 41817, Note_on_c, 0, 55, 0
2, 42216, Note_on_c, 0, 63, 29
2, 42490, Note_on_c, 0, 75, 0
2, 42498, Note_on_c, 0, 67, 0
2, 42788, Note_on_c, 0, 63, 0
2, 44144, Note_on_c, 0, 60, 35
2, 44166, Note_on_c, 0, 65, 48
2, 44190, Control_c, 0, 64, 0
2, 44200, Note_on_c, 0, 56, 36
2, 44222, Note_on_c, 0, 44, 26
2, 44522, Control_c, 0, 64, 127
2, 44737, Note_on_c, 0, 60, 0
2, 44917, Note_on_c, 0, 65, 0
2, 44937, Note_on_c, 0, 67, 50
2, 45090, Note_on_c, 0, 65, 58
2, 45177, Note_on_c, 0, 67, 0
2, 45375, Note_on_c, 0, 64, 76
2, 45381, Note_on_c, 0, 65, 0
2, 45817, Note_on_c, 0, 64, 0
2, 45867, Note_on_c, 0, 65, 87
2, 46336, Note_on_c, 0, 65, 0
2, 46441, Note_on_c, 0, 68, 85
2, 46987, Note_on_c, 0, 68, 0
2, 47103, Note_on_c, 0, 72, 74
2, 47775, Note_on_c, 0, 72, 0
2, 48088, Note_on_c, 0, 72, 57
2, 48717, Note_on_c, 0, 72, 0
2, 48923, Note_on_c, 0, 44, 0
2, 49133, Note_on_c, 0, 72, 47
2, 49179, Note_on_c, 0, 56, 0
2, 49801, Note_on_c, 0, 72, 0
2, 50594, Note_on_c, 0, 63, 34
2, 50610, Note_on_c, 0, 72, 41
2, 50614, Note_on_c, 0, 46, 36
2, 50627, Control_c, 0, 64, 0
2, 50647, Note_on_c, 0, 67, 36
2, 51032, Control_c, 0, 64, 127
2, 51254, Note_on_c, 0, 72, 0
2, 51398, Note_on_c, 0, 70, 49
2, 51442, Note_on_c, 0, 67, 0
2, 51455, Note_on_c, 0, 63, 0
2, 51563, Note_on_c, 0, 70, 0
2, 52395, Note_on_c, 0, 79, 82
2, 52507, Note_on_c, 0, 58, 18
2, 53223, Note_on_c, 0, 79, 0
2, 53302, Note_on_c, 0, 77, 74
2, 53343, Note_on_c, 0, 79, 62
2, 53860, Note_on_c, 0, 79, 0
2, 53884, Note_on_c, 0, 77, 0
2, 53944, Note_on_c, 0, 75, 70
2, 53953, Note_on_c, 0, 79, 49
2, 54086, Note_on_c, 0, 58, 0
2, 54362, Note_on_c, 0, 46, 0
2, 54402, Note_on_c, 0, 79, 0
2, 54539, Note_on_c, 0, 75, 0
2, 54647, Note_on_c, 0, 74, 60
2, 54675, Note_on_c, 0, 79, 48
2, 54686, Note_on_c, 0, 46, 34
2, 54713, Note_on_c, 0, 56, 27
2, 54741, Control_c, 0, 64, 0
2, 55074, Control_c, 0, 64, 127
2, 55269, Note_on_c, 0, 74, 0
2, 55310, Note_on_c, 0, 72, 55
2, 55361, Note_on_c, 0, 79, 0
2, 55795, Note_on_c, 0, 72, 0
2, 55863, Note_on_c, 0, 70, 63
2, 56342, Note_on_c, 0, 70, 0
2, 56386, Note_on_c, 0, 69, 74
2, 56846, Note_on_c, 0, 69, 0
2, 56962, Note_on_c, 0, 72, 77
2, 57560, Note_on_c, 0, 70, 65
2, 57707, Note_on_c, 0, 72, 0
2, 57875, Note_on_c, 0, 70, 0
2, 58246, Note_on_c, 0, 68, 47
2, 58428, Note_on_c, 0, 56, 0
2, 58951, Note_on_c, 0, 68, 0
2, 58990, Note_on_c, 0, 65, 45
2, 59021, Note_on_c, 0, 46, 0
2, 59302, Note_on_c, 0, 65, 0
2, 59865, Note_on_c, 0, 63, 36
2, 59900, Note_on_c, 0, 39, 33
2, 59922, Control_c, 0, 64, 0
2, 60257, Control_c, 0, 64, 127
2, 60627, Note_on_c, 0, 46, 39
2, 60703, Note_on_c, 0, 63, 0
2, 61140, Note_on_c, 0, 39, 0
2, 61218, Note_on_c, 0, 46, 0
2, 61273, Note_on_c, 0, 51, 27
2, 61439, Note_on_c, 0, 51, 0
2, 62002, Note_on_c, 0, 58, 44
2, 62883, Note_on_c, 0, 70, 31
2, 62909, Note_on_c, 0, 79, 32
2, 62922, Note_on_c, 0, 63, 23
2, 63575, Note_on_c, 0, 58, 0
2, 63647, Note_on_c, 0, 79, 0
2, 63812, Note_on_c, 0, 70, 0
2, 63987, Note_on_c, 0, 58, 31
2, 64026, Note_on_c, 0, 63, 0
2, 65117, Note_on_c, 0, 70, 44
2, 65733, Note_on_c, 0, 58, 0
2, 65967, Note_on_c, 0, 70, 0
2, 66090, Note_on_c, 0, 67, 35
2, 66175, Note_on_c, 0, 58, 23
2, 66359, Note_on_c, 0, 67, 0
2, 66390, Note_on_c, 0, 58, 0
2, 67428, Note_on_c, 0, 75, 46
2, 67481, Note_on_c, 0, 65, 35
2, 67492, Note_on_c, 0, 63, 32
2, 67523, Note_on_c, 0, 70, 35
2, 67564, Note_on_c, 0, 68, 28
2, 67593, Control_c, 0, 64, 0
2, 67834, Control_c, 0, 64, 127
2, 68206, Note_on_c, 0, 63, 0
2, 68270, Note_on_c, 0, 75, 0
2, 68377, Note_on_c, 0, 58, 42
2, 68383, Note_on_c, 0, 74, 68
2, 69032, Note_on_c, 0, 58, 0
2, 69119, Note_on_c, 0, 74, 0
2, 69179, Note_on_c, 0, 68, 0
2, 69187, Note_on_c, 0, 65, 0
2, 69255, Note_on_c, 0, 70, 0
2, 69623, Note_on_c, 0, 65, 55
2, 69634, Note_on_c, 0, 74, 55
2, 69645, Note_on_c, 0, 58, 44
2, 69671, Note_on_c, 0, 70, 46
2, 69671, Note_on_c, 0, 68, 42
2, 69719, Control_c, 0, 64, 0
2, 69996, Control_c, 0, 64, 127
2, 70843, Note_on_c, 0, 74, 0
2, 70973, Note_on_c, 0, 72, 57
2, 71454, Note_on_c, 0, 58, 0
2, 71490, Note_on_c, 0, 68, 0
2, 71529, Note_on_c, 0, 65, 0
2, 71546, Note_on_c, 0, 72, 0
2, 71605, Note_on_c, 0, 70, 0
2, 71746, Control_c, 0, 64, 0
2, 71761, Note_on_c, 0, 72, 47
2, 71765, Note_on_c, 0, 58, 51
2, 71779, Note_on_c, 0, 68, 53
2, 71789, Note_on_c, 0, 65, 52
2, 71932, Control_c, 0, 64, 127
2, 72168, Note_on_c, 0, 72, 0
2, 72276, Note_on_c, 0, 65, 0
2, 72322, Note_on_c, 0, 68, 0
2, 72451, Note_on_c, 0, 71, 68
2, 72736, Note_on_c, 0, 58, 0
2, 73104, Note_on_c, 0, 71, 0
2, 73220, Control_c, 0, 64, 0
2, 73242, Note_on_c, 0, 71, 54
2, 73259, Note_on_c, 0, 62, 42
2, 73266, Note_on_c, 0, 67, 44
2, 73272, Note_on_c, 0, 58, 33
2, 73461, Control_c, 0, 64, 127
2, 73695, Note_on_c, 0, 71, 0
2, 73890, Note_on_c, 0, 62, 0
2, 73940, Note_on_c, 0, 58, 0
2, 73949, Note_on_c, 0, 67, 0
2, 73980, Note_on_c, 0, 70, 59
2, 74331, Note_on_c, 0, 70, 0
2, 74745, Note_on_c, 0, 70, 42
2, 74769, Control_c, 0, 64, 0
2, 74773, Note_on_c, 0, 39, 38
2, 74782, Note_on_c, 0, 63, 46
2, 75084, Control_c, 0, 64, 127
2, 75421, Note_on_c, 0, 39, 0
2, 75430, Note_on_c, 0, 46, 43
2, 76070, Note_on_c, 0, 46, 0
2, 76096, Note_on_c, 0, 53, 41
2, 76633, Note_on_c, 0, 53, 0
2, 76725, Control_c, 0, 64, 0
2, 76736, Note_on_c, 0, 55, 53
2, 76911, Control_c, 0, 64, 127
2, 77279, Note_on_c, 0, 70, 0
2, 77419, Note_on_c, 0, 63, 0
2, 77443, Note_on_c, 0, 58, 45
2, 77680, Note_on_c, 0, 58, 0
2, 78218, Note_on_c, 0, 58, 37
2, 78954, Note_on_c, 0, 70, 61
2, 79320, Note_on_c, 0, 55, 0
2, 79588, Note_on_c, 0, 58, 0
2, 79605, Note_on_c, 0, 70, 0
2, 79679, Note_on_c, 0, 75, 81
2, 80271, Note_on_c, 0, 75, 0
2, 80468, Note_on_c, 0, 75, 73
2, 80512, Note_on_c, 0, 68, 64
2, 80514, Note_on_c, 0, 65, 68
2, 80542, Control_c, 0, 64, 0
2, 80554, Note_on_c, 0, 58, 51
2, 80840, Control_c, 0, 64, 127
2, 81101, Note_on_c, 0, 75, 0
2, 81272, Note_on_c, 0, 74, 83
2, 81668, Note_on_c, 0, 58, 0
2, 81789, Note_on_c, 0, 74, 0
2, 81912, Note_on_c, 0, 68, 0
2, 81921, Note_on_c, 0, 65, 0
2, 82036, Note_on_c, 0, 74, 68
2, 82045, Note_on_c, 0, 68, 44
2, 82056, Note_on_c, 0, 65, 64
2, 82370, Note_on_c, 0, 74, 0
2, 82648, Note_on_c, 0, 68, 0
2, 82687, Note_on_c, 0, 65, 0
2, 82801, Note_on_c, 0, 72, 69
2, 82825, Note_on_c, 0, 58, 60
2, 83381, Note_on_c, 0, 72, 0
2, 83401, Note_on_c, 0, 58, 0
2, 83669, Note_on_c, 0, 72, 71
2, 84481, Note_on_c, 0, 72, 0
2, 84639, Note_on_c, 0, 46, 50
2, 84641, Note_on_c, 0, 62, 59
2, 84654, Note_on_c, 0, 56, 54
2, 84658, Control_c, 0, 64, 0
2, 84659, Note_on_c, 0, 71, 57
2, 84667, Note_on_c, 0, 67, 53
2, 85046, Control_c, 0, 64, 127
2, 85397, Note_on_c, 0, 46, 0
2, 85419, Note_on_c, 0, 62, 0
2, 85451, Note_on_c, 0, 67, 0
2, 85454, Note_on_c, 0, 56, 0
2, 85513, Note_on_c, 0, 71, 0
2, 85931, Note_on_c, 0, 71, 53
2, 85934, Note_on_c, 0, 67, 40
2, 85944, Note_on_c, 0, 62, 39
2, 85947, Note_on_c, 0, 56, 34
2, 85973, Note_on_c, 0, 46, 28
2, 86740, Note_on_c, 0, 71, 0
2, 86950, Note_on_c, 0, 46, 0
2, 87193, Note_on_c, 0, 56, 0
2, 87246, Note_on_c, 0, 70, 50
2, 87265, Note_on_c, 0, 67, 0
2, 87311, Note_on_c, 0, 46, 33
2, 87705, Note_on_c, 0, 46, 0
2, 87979, Note_on_c, 0, 62, 0
2, 88010, Note_on_c, 0, 70, 0
2, 88663, Note_on_c, 0, 70, 50
2, 88674, Note_on_c, 0, 65, 53
2, 88694, Note_on_c, 0, 67, 56
2, 88696, Control_c, 0, 64, 0
2, 88737, Note_on_c, 0, 39, 37
2, 88989, Control_c, 0, 64, 127
2, 89513, Note_on_c, 0, 65, 0
2, 89554, Note_on_c, 0, 64, 76
2, 90262, Note_on_c, 0, 64, 0
2, 90441, Note_on_c, 0, 64, 58
2, 90459, Note_on_c, 0, 46, 33
2, 91180, Note_on_c, 0, 39, 0
2, 91243, Note_on_c, 0, 64, 0
2, 91274, Note_on_c, 0, 63, 60
2, 91859, Note_on_c, 0, 63, 0
2, 92196, Note_on_c, 0, 63, 47
2, 92246, Note_on_c, 0, 55, 33
2, 93092, Note_on_c, 0, 62, 66
2, 93576, Note_on_c, 0, 62, 0
2, 93686, Note_on_c, 0, 55, 0
2, 93824, Note_on_c, 0, 62, 78
2, 94047, Note_on_c, 0, 63, 0
2, 94351, Note_on_c, 0, 62, 0
2, 94468, Note_on_c, 0, 55, 34
2, 94472, Note_on_c, 0, 63, 77
2, 94566, Note_on_c, 0, 55, 0
2, 94879, Note_on_c, 0, 46, 0
2, 94960, Note_on_c, 0, 70, 0
2, 95074, Note_on_c, 0, 63, 0
2, 95212, Note_on_c, 0, 67, 0
2, 95296, Note_on_c, 0, 63, 69
2, 95346, Note_on_c, 0, 39, 49
2, 95372, Control_c, 0, 64, 0
2, 95815, Control_c, 0, 64, 127
2, 96014, Note_on_c, 0, 63, 0
2, 96066, Note_on_c, 0, 64, 50
2, 96139, Note_on_c, 0, 46, 37
2, 96654, Note_on_c, 0, 64, 0
2, 96949, Note_on_c, 0, 64, 66
2, 97254, Note_on_c, 0, 39, 0
2, 97563, Note_on_c, 0, 64, 0
2, 97845, Note_on_c, 0, 63, 50
2, 98465, Note_on_c, 0, 63, 0
2, 98791, Note_on_c, 0, 63, 55
2, 98824, Note_on_c, 0, 55, 40
2, 99740, Note_on_c, 0, 62, 85
2, 99906, Note_on_c, 0, 63, 0
2, 99928, Note_on_c, 0, 55, 0
2, 100528, Note_on_c, 0, 62, 0
2, 100785, Note_on_c, 0, 62, 90
2, 100820, Note_on_c, 0, 55, 38
2, 101716, Note_on_c, 0, 46, 0
2, 101748, Note_on_c, 0, 62, 0
2, 101832, Note_on_c, 0, 61, 86
2, 101939, Note_on_c, 0, 55, 0
2, 102809, Note_on_c, 0, 61, 0
2, 102942, Note_on_c, 0, 60, 81
2, 102986, Note_on_c, 0, 44, 67
2, 102989, Control_c, 0, 64, 0
2, 103359, Control_c, 0, 64, 127
2, 103889, Note_on_c, 0, 51, 75
2, 103946, Note_on_c, 0, 60, 0
2, 104861, Note_on_c, 0, 56, 81
2, 105895, Note_on_c, 0, 60, 74
2, 106254, Note_on_c, 0, 56, 0
2, 106471, Note_on_c, 0, 60, 0
2, 106603, Note_on_c, 0, 44, 0
2, 106614, Note_on_c, 0, 51, 0
2, 106912, Note_on_c, 0, 70, 84
2, 106920, Note_on_c, 0, 63, 91
2, 106927, Note_on_c, 0, 49, 76
2, 106938, Control_c, 0, 64, 0
2, 107529, Control_c, 0, 64, 127
2, 107865, Note_on_c, 0, 55, 75
2, 108815, Note_on_c, 0, 58, 70
2, 109367, Note_on_c, 0, 58, 0
2, 109378, Note_on_c, 0, 70, 0
2, 109424, Note_on_c, 0, 63, 0
2, 110136, Note_on_c, 0, 77, 73
2, 110294, Note_on_c, 0, 49, 0
2, 110646, Note_on_c, 0, 77, 0
2, 111326, Control_c, 0, 64, 0
2, 111365, Note_on_c, 0, 75, 57
2, 111376, Note_on_c, 0, 55, 0
2, 111380, Note_on_c, 0, 48, 43
2, 111880, Control_c, 0, 64, 127
2, 112235, Note_on_c, 0, 56, 30
2, 113143, Note_on_c, 0, 63, 29
2, 113178, Note_on_c, 0, 60, 29
2, 113866, Note_on_c, 0, 56, 0
2, 114274, Note_on_c, 0, 56, 25
2, 114324, Note_on_c, 0, 63, 0
2, 114339, Note_on_c, 0, 60, 0
2, 114626, Note_on_c, 0, 75, 0
2, 115533, Note_on_c, 0, 87, 40
2, 115564, Note_on_c, 0, 75, 25
2, 115606, Note_on_c, 0, 60, 22
2, 116841, Note_on_c, 0, 87, 0
2, 116983, Note_on_c, 0, 75, 0
2, 117722, Note_on_c, 0, 60, 0
2, 118004, Note_on_c, 0, 48, 0
2, 118026, Note_on_c, 0, 56, 0
2, 119240, Control_c, 0, 64, 0
2, 119270, Note_on_c, 0, 73, 51
2, 119301, Note_on_c, 0, 61, 64
2, 119321, Note_on_c, 0, 43, 36
2, 119345, Note_on_c, 0, 55, 29
2, 119443, Control_c, 0, 64, 127
2, 119634, Note_on_c, 0, 43, 0
2, 119636, Note_on_c, 0, 55, 0
2, 119805, Note_on_c, 0, 61, 0
2, 119877, Note_on_c, 0, 73, 0
2, 120291, Control_c, 0, 64, 0
2, 120302, Note_on_c, 0, 72, 59
2, 120320, Note_on_c, 0, 60, 58
2, 120322, Note_on_c, 0, 68, 60
2, 120331, Note_on_c, 0, 44, 37
2, 120348, Note_on_c, 0, 56, 39
2, 120512, Control_c, 0, 64, 127
2, 120736, Note_on_c, 0, 60, 0
2, 120762, Note_on_c, 0, 72, 0
2, 120799, Note_on_c, 0, 56, 0
2, 120848, Note_on_c, 0, 44, 0
2, 120850, Note_on_c, 0, 68, 0
2, 121469, Note_on_c, 0, 75, 71
2, 121487, Note_on_c, 0, 63, 78
2, 121500, Note_on_c, 0, 43, 61
2, 121502, Note_on_c, 0, 72, 64
2, 121507, Note_on_c, 0, 55, 68
2, 121516, Control_c, 0, 64, 0
2, 121809, Control_c, 0, 64, 127
2, 121873, Note_on_c, 0, 63, 0
2, 121934, Note_on_c, 0, 72, 0
2, 121978, Note_on_c, 0, 75, 0
2, 122008, Note_on_c, 0, 43, 0
2, 122021, Note_on_c, 0, 55, 0
2, 122847, Note_on_c, 0, 80, 77
2, 122861, Control_c, 0, 64, 0
2, 122863, Note_on_c, 0, 72, 76
2, 122867, Note_on_c, 0, 68, 73
2, 122884, Note_on_c, 0, 41, 66
2, 122893, Note_on_c, 0, 53, 66
2, 122909, Note_on_c, 0, 78, 30
2, 122996, Note_on_c, 0, 78, 0
2, 123137, Control_c, 0, 64, 127
2, 123412, Note_on_c, 0, 41, 0
2, 123505, Note_on_c, 0, 72, 0
2, 123518, Note_on_c, 0, 53, 0
2, 123524, Note_on_c, 0, 68, 0
2, 123544, Note_on_c, 0, 80, 0
2, 125855, Note_on_c, 0, 70, 83
2, 125862, Note_on_c, 0, 66, 82
2, 125866, Note_on_c, 0, 61, 85
2, 125881, Note_on_c, 0, 56, 73
2, 125888, Note_on_c, 0, 62, 78
2, 125892, Note_on_c, 0, 52, 68
2, 125977, Control_c, 0, 64, 0
2, 126604, Control_c, 0, 64, 127
2, 127042, Note_on_c, 0, 62, 0
2, 127187, Note_on_c, 0, 52, 0
2, 127189, Note_on_c, 0, 70, 0
2, 127233, Note_on_c, 0, 66, 0
2, 127246, Note_on_c, 0, 61, 0
2, 127272, Note_on_c, 0, 56, 0
2, 128155, Note_on_c, 0, 63, 46
2, 128163, Note_on_c, 0, 55, 43
2, 128170, Note_on_c, 0, 58, 55
2, 128174, Control_c, 0, 64, 0
2, 128198, Note_on_c, 0, 39, 38
2, 128227, Note_on_c, 0, 46, 35
2, 128521, Control_c, 0, 64, 127
2, 128696, Note_on_c, 0, 55, 0
2, 128786, Note_on_c, 0, 39, 0
2, 128836, Note_on_c, 0, 46, 0
2, 128840, Note_on_c, 0, 58, 0
2, 128878, Note_on_c, 0, 63, 0
2, 129899, Note_on_c, 0, 75, 45
2, 129925, Note_on_c, 0, 67, 44
2, 129957, Note_on_c, 0, 63, 36
2, 130199, Note_on_c, 0, 63, 0
2, 130245, Note_on_c, 0, 67, 0
2, 130470, Note_on_c, 0, 75, 0
2, 131797, Note_on_c, 0, 87, 37
2, 131839, Note_on_c, 0, 74, 33
2, 131868, Note_on_c, 0, 79, 20
2, 132148, Note_on_c, 0, 74, 0
2, 132253, Note_on_c, 0, 87, 0
2, 132317, Note_on_c, 0, 79, 0
2, 135344, Note_on_c, 0, 76, 46
2, 135355, Note_on_c, 0, 70, 38
2, 135383, Control_c, 0, 64, 0
2, 135403, Note_on_c, 0, 55, 33
2, 135642, Control_c, 0, 64, 127
2, 136316, Note_on_c, 0, 63, 30
2, 136544, Note_on_c, 0, 76, 0
2, 136868, Note_on_c, 0, 63, 0
2, 136930, Note_on_c, 0, 55, 0
2, 137193, Note_on_c, 0, 70, 0
2, 137640, Note_on_c, 0, 77, 55
2, 137653, Control_c, 0, 64, 0
2, 137664, Note_on_c, 0, 49, 42
2, 138115, Control_c, 0, 64, 127
2, 138582, Note_on_c, 0, 77, 0
2, 138603, Note_on_c, 0, 55, 37
2, 139280, Note_on_c, 0, 55, 0
2, 139304, Note_on_c, 0, 67, 40
2, 139326, Note_on_c, 0, 58, 37
2, 139346, Note_on_c, 0, 63, 26
2, 139348, Note_on_c, 0, 49, 0
2, 139613, Note_on_c, 0, 63, 0
2, 139789, Note_on_c, 0, 58, 0
2, 139961, Note_on_c, 0, 67, 0
2, 140088, Note_on_c, 0, 63, 47
2, 140654, Note_on_c, 0, 63, 0
2, 140989, Note_on_c, 0, 75, 42
2, 141048, Note_on_c, 0, 67, 24
2, 141626, Note_on_c, 0, 75, 0
2, 141686, Note_on_c, 0, 67, 0
2, 141904, Note_on_c, 0, 70, 77
2, 142007, Note_on_c, 0, 63, 26
2, 142654, Note_on_c, 0, 70, 0
2, 142752, Note_on_c, 0, 72, 79
2, 143089, Note_on_c, 0, 63, 0
2, 143112, Note_on_c, 0, 72, 0
2, 143503, Note_on_c, 0, 73, 71
2, 144139, Note_on_c, 0, 73, 0
2, 144257, Note_on_c, 0, 75, 65
2, 144275, Note_on_c, 0, 68, 62
2, 144286, Note_on_c, 0, 48, 42
2, 144419, Control_c, 0, 64, 0
2, 144772, Control_c, 0, 64, 127
2, 145129, Note_on_c, 0, 56, 55
2, 146095, Note_on_c, 0, 60, 42
2, 146840, Note_on_c, 0, 60, 0
2, 147048, Note_on_c, 0, 56, 0
2, 147050, Note_on_c, 0, 75, 0
2, 147113, Note_on_c, 0, 63, 42
2, 147166, Note_on_c, 0, 48, 0
2, 147280, Note_on_c, 0, 68, 0
2, 147672, Note_on_c, 0, 63, 0
2, 148377, Note_on_c, 0, 63, 45
2, 148393, Note_on_c, 0, 57, 49
2, 148423, Control_c, 0, 64, 0
2, 148434, Note_on_c, 0, 51, 33
2, 148496, Note_on_c, 0, 41, 32
2, 148684, Control_c, 0, 64, 127
2, 148763, Note_on_c, 0, 57, 0
2, 148872, Note_on_c, 0, 63, 0
2, 148973, Note_on_c, 0, 41, 0
2, 149164, Note_on_c, 0, 51, 0
2, 149705, Note_on_c, 0, 81, 50
2, 150237, Note_on_c, 0, 81, 0
2, 151054, Note_on_c, 0, 81, 35
2, 151069, Note_on_c, 0, 75, 33
2, 151131, Note_on_c, 0, 69, 26
2, 151141, Note_on_c, 0, 65, 31
2, 151163, Note_on_c, 0, 63, 23
2, 152294, Note_on_c, 0, 81, 0
2, 152360, Note_on_c, 0, 65, 0
2, 152515, Note_on_c, 0, 63, 0
2, 152758, Note_on_c, 0, 81, 29
2, 153036, Note_on_c, 0, 81, 0
2, 153148, Note_on_c, 0, 75, 0
2, 153258, Note_on_c, 0, 69, 0
2, 155058, Note_on_c, 0, 73, 55
2, 155102, Note_on_c, 0, 57, 56
2, 155104, Note_on_c, 0, 65, 63
2, 155126, Note_on_c, 0, 61, 48
2, 155174, Control_c, 0, 64, 0
2, 155672, Control_c, 0, 64, 127
2, 156096, Control_c, 0, 64, 0
2, 156145, Note_on_c, 0, 58, 60
2, 156261, Control_c, 0, 64, 127
2, 156272, Note_on_c, 0, 57, 0
2, 156771, Note_on_c, 0, 65, 0
2, 156795, Note_on_c, 0, 61, 0
2, 157343, Note_on_c, 0, 61, 46
2, 157363, Note_on_c, 0, 65, 50
2, 157378, Note_on_c, 0, 60, 32
2, 157442, Control_c, 0, 64, 0
2, 157663, Control_c, 0, 64, 127
2, 157750, Note_on_c, 0, 58, 0
2, 159417, Note_on_c, 0, 60, 0
2, 159441, Note_on_c, 0, 56, 36
2, 160217, Note_on_c, 0, 65, 0
2, 160235, Note_on_c, 0, 73, 0
2, 160272, Note_on_c, 0, 61, 0
2, 160981, Control_c, 0, 64, 0
2, 161071, Note_on_c, 0, 72, 47
2, 161073, Note_on_c, 0, 65, 53
2, 161086, Note_on_c, 0, 61, 34
2, 161111, Note_on_c, 0, 56, 0
2, 161124, Note_on_c, 0, 55, 41
2, 161297, Control_c, 0, 64, 127
2, 161518, Note_on_c, 0, 55, 0
2, 162385, Note_on_c, 0, 72, 0
2, 162563, Note_on_c, 0, 27, 48
2, 162578, Note_on_c, 0, 70, 61
2, 163461, Note_on_c, 0, 27, 0
2, 163847, Note_on_c, 0, 61, 0
2, 163951, Note_on_c, 0, 65, 0
2, 164188, Note_on_c, 0, 70, 0
2, 164221, Note_on_c, 0, 61, 31
2, 164274, Note_on_c, 0, 68, 44
2, 164289, Note_on_c, 0, 65, 36
2, 165568, Note_on_c, 0, 68, 0
2, 165732, Note_on_c, 0, 61, 0
2, 165754, Note_on_c, 0, 65, 0
2, 166116, Note_on_c, 0, 61, 35
2, 166147, Note_on_c, 0, 27, 31
2, 166157, Note_on_c, 0, 67, 45
2, 166670, Note_on_c, 0, 27, 0
2, 167745, Note_on_c, 0, 61, 0
2, 167949, Note_on_c, 0, 67, 0
2, 168289, Note_on_c, 0, 70, 63
2, 168322, Note_on_c, 0, 63, 60
2, 168328, Note_on_c, 0, 61, 46
2, 168350, Note_on_c, 0, 56, 46
2, 168379, Control_c, 0, 64, 0
2, 168619, Control_c, 0, 64, 127
2, 169211, Note_on_c, 0, 56, 0
2, 169730, Note_on_c, 0, 56, 44
2, 170462, Note_on_c, 0, 56, 0
2, 171099, Note_on_c, 0, 56, 45
2, 171542, Note_on_c, 0, 56, 0
2, 172543, Note_on_c, 0, 56, 39
2, 172985, Note_on_c, 0, 56, 0
2, 173239, Note_on_c, 0, 61, 0
2, 173533, Note_on_c, 0, 63, 0
2, 174232, Note_on_c, 0, 70, 0
2, 174704, Note_on_c, 0, 68, 35
2, 174713, Note_on_c, 0, 60, 20
2, 174751, Note_on_c, 0, 56, 27
2, 174753, Note_on_c, 0, 63, 25
2, 174766, Note_on_c, 0, 44, 25
2, 174854, Control_c, 0, 64, 0
2, 175576, Control_c, 0, 64, 127
2, 176266, Note_on_c, 0, 56, 0
2, 176542, Note_on_c, 0, 44, 0
2, 177999, Note_on_c, 0, 39, 50
2, 178067, Note_on_c, 0, 60, 0
2, 178106, Note_on_c, 0, 63, 0
2, 178183, Note_on_c, 0, 68, 0
2, 181201, Note_on_c, 0, 39, 0
2, 181440, Control_c, 0, 64, 127
2, 181440, Control_c, 0, 64, 0
2, 181440, Control_c, 0, 64, 0
2, 181466, Note_on_c, 0, 72, 60
2, 181468, Note_on_c, 0, 63, 29
2, 181469, Note_on_c, 0, 60, 29
2, 181516, Note_on_c, 0, 56, 47
2, 181598, Note_on_c, 0, 72, 0
2, 181643, Note_on_c, 0, 63, 0
2, 181653, Note_on_c, 0, 60, 0
2, 181703, Note_on_c, 0, 56, 0
2, 182048, Note_on_c, 0, 73, 53
2, 182220, Note_on_c, 0, 73, 0
2, 182438, Note_on_c, 0, 72, 38
2, 182562, Note_on_c, 0, 72, 0
2, 183691, Note_on_c, 0, 71, 50
2, 183862, Note_on_c, 0, 71, 0
2, 183981, Note_on_c, 0, 72, 68
2, 184169, Note_on_c, 0, 72, 0
2, 184318, Note_on_c, 0, 70, 55
2, 184349, Note_on_c, 0, 58, 44
2, 185248, Note_on_c, 0, 67, 35
2, 185517, Control_c, 0, 64, 127
2, 186228, Note_on_c, 0, 58, 0
2, 186598, Note_on_c, 0, 70, 0
2, 187164, Note_on_c, 0, 67, 0
2, 187192, Note_on_c, 0, 56, 29
2, 187214, Control_c, 0, 64, 0
2, 187283, Note_on_c, 0, 48, 30
2, 187869, Note_on_c, 0, 77, 101
2, 188445, Note_on_c, 0, 77, 0
2, 188529, Note_on_c, 0, 75, 69
2, 188771, Note_on_c, 0, 75, 0
2, 189224, Note_on_c, 0, 72, 66
2, 189340, Note_on_c, 0, 72, 0
2, 189851, Note_on_c, 0, 68, 56
2, 190044, Note_on_c, 0, 68, 0
2, 190383, Note_on_c, 0, 65, 24
2, 191009, Note_on_c, 0, 65, 0
2, 191104, Note_on_c, 0, 63, 51
2, 191382, Control_c, 0, 64, 127
2, 191513, Note_on_c, 0, 56, 0
2, 191515, Note_on_c, 0, 48, 0
2, 192550, Note_on_c, 0, 61, 30
2, 192551, Note_on_c, 0, 63, 0
2, 192580, Note_on_c, 0, 58, 55
2, 192600, Note_on_c, 0, 43, 33
2, 192839, Control_c, 0, 64, 0
2, 192896, Note_on_c, 0, 58, 0
2, 192966, Note_on_c, 0, 43, 0
2, 193038, Note_on_c, 0, 44, 38
2, 193060, Note_on_c, 0, 56, 42
2, 193064, Note_on_c, 0, 63, 51
2, 193073, Note_on_c, 0, 60, 41
2, 193927, Control_c, 0, 64, 127
2, 194045, Note_on_c, 0, 56, 0
2, 194144, Note_on_c, 0, 60, 0
2, 194378, Note_on_c, 0, 63, 0
2, 194527, Note_on_c, 0, 61, 0
2, 194538, Control_c, 0, 64, 0
2, 194571, Note_on_c, 0, 44, 0
2, 194608, Note_on_c, 0, 63, 74
2, 194630, Note_on_c, 0, 58, 83
2, 194637, Note_on_c, 0, 43, 50
2, 194639, Note_on_c, 0, 55, 70
2, 194924, Control_c, 0, 64, 127
2, 195092, Note_on_c, 0, 43, 0
2, 195239, Note_on_c, 0, 55, 0
2, 195318, Note_on_c, 0, 63, 0
2, 195366, Note_on_c, 0, 58, 0
2, 195866, Control_c, 0, 64, 0
2, 195916, Note_on_c, 0, 68, 70
2, 195925, Note_on_c, 0, 60, 68
2, 195934, Note_on_c, 0, 56, 78
2, 195938, Note_on_c, 0, 41, 60
2, 195945, Note_on_c, 0, 63, 61
2, 195967, Note_on_c, 0, 48, 53
2, 196236, Control_c, 0, 64, 127
2, 196472, Note_on_c, 0, 56, 0
2, 196483, Note_on_c, 0, 41, 0
2, 196508, Note_on_c, 0, 60, 0
2, 196567, Note_on_c, 0, 48, 0
2, 196786, Note_on_c, 0, 63, 0
2, 196839, Note_on_c, 0, 68, 0
2, 198170, Control_c, 0, 64, 0
2, 198311, Note_on_c, 0, 52, 48
2, 198317, Note_on_c, 0, 70, 58
2, 198321, Note_on_c, 0, 61, 53
2, 198358, Note_on_c, 0, 66, 38
2, 198427, Note_on_c, 0, 52, 0
2, 198440, Note_on_c, 0, 66, 0
2, 198457, Note_on_c, 0, 61, 0
2, 198490, Note_on_c, 0, 70, 0
2, 199430, Note_on_c, 0, 63, 39
2, 199469, Note_on_c, 0, 55, 30
2, 199498, Note_on_c, 0, 51, 35
2, 199509, Note_on_c, 0, 58, 35
2, 200153, Note_on_c, 0, 51, 0
2, 200339, Note_on_c, 0, 63, 0
2, 200352, Note_on_c, 0, 50, 40
2, 200470, Note_on_c, 0, 55, 0
2, 200525, Note_on_c, 0, 58, 0
2, 200628, Note_on_c, 0, 50, 0
2, 200709, Note_on_c, 0, 55, 40
2, 200720, Note_on_c, 0, 51, 34
2, 200726, Note_on_c, 0, 63, 37
2, 200748, Note_on_c, 0, 58, 23
2, 201622, Control_c, 0, 64, 127
2, 201636, Note_on_c, 0, 55, 0
2, 202010, Note_on_c, 0, 58, 0
2, 202308, Note_on_c, 0, 63, 0
2, 202586, Note_on_c, 0, 51, 0
2, 202839, Control_c, 0, 64, 0
2, 203027, Control_c, 0, 64, 127
2, 203167, Note_on_c, 0, 52, 34
2, 203192, Note_on_c, 0, 43, 24
2, 203237, Note_on_c, 0, 52, 0
2, 203248, Control_c, 0, 64, 0
2, 203266, Note_on_c, 0, 43, 0
2, 203858, Note_on_c, 0, 58, 35
2, 204028, Note_on_c, 0, 58, 0
2, 204153, Note_on_c, 0, 64, 82
2, 204313, Control_c, 0, 64, 127
2, 204344, Control_c, 0, 64, 0
2, 204354, Note_on_c, 0, 64, 0
2, 204489, Note_on_c, 0, 65, 85
2, 204512, Note_on_c, 0, 49, 48
2, 205478, Note_on_c, 0, 55, 35
2, 205903, Control_c, 0, 64, 127
2, 206715, Note_on_c, 0, 65, 0
2, 208029, Note_on_c, 0, 56, 94
2, 208098, Note_on_c, 0, 55, 0
2, 208183, Control_c, 0, 64, 0
2, 208279, Control_c, 0, 64, 127
2, 208550, Note_on_c, 0, 56, 0
2, 208619, Note_on_c, 0, 58, 90
2, 209216, Note_on_c, 0, 58, 0
2, 209306, Note_on_c, 0, 60, 82
2, 209491, Note_on_c, 0, 49, 0
2, 209900, Note_on_c, 0, 60, 0
2, 209970, Note_on_c, 0, 61, 84
2, 209975, Control_c, 0, 64, 0
2, 210132, Control_c, 0, 64, 127
2, 210507, Control_c, 0, 64, 0
2, 210569, Note_on_c, 0, 61, 0
2, 210674, Note_on_c, 0, 56, 49
2, 210676, Note_on_c, 0, 63, 78
2, 210732, Note_on_c, 0, 48, 44
2, 210994, Control_c, 0, 64, 127
2, 211262, Control_c, 0, 64, 0
2, 211377, Note_on_c, 0, 63, 0
2, 211404, Control_c, 0, 64, 127
2, 211413, Note_on_c, 0, 65, 70
2, 212136, Note_on_c, 0, 56, 0
2, 212206, Note_on_c, 0, 48, 0
2, 212788, Note_on_c, 0, 65, 0
2, 212857, Note_on_c, 0, 68, 43
2, 213163, Control_c, 0, 64, 0
2, 213172, Note_on_c, 0, 68, 0
2, 213204, Note_on_c, 0, 41, 36
2, 213244, Note_on_c, 0, 69, 38
2, 213387, Note_on_c, 0, 41, 0
2, 213462, Control_c, 0, 64, 127
2, 213964, Note_on_c, 0, 69, 0
2, 214078, Note_on_c, 0, 72, 48
2, 214115, Note_on_c, 0, 51, 32
2, 214126, Note_on_c, 0, 57, 24
2, 214696, Note_on_c, 0, 51, 0
2, 214712, Note_on_c, 0, 57, 0
2, 214913, Note_on_c, 0, 72, 0
2, 215016, Note_on_c, 0, 60, 40
2, 215137, Note_on_c, 0, 60, 0
2, 215951, Note_on_c, 0, 73, 67
2, 215966, Note_on_c, 0, 56, 56
2, 215987, Note_on_c, 0, 61, 59
2, 215991, Note_on_c, 0, 60, 56
2, 216007, Control_c, 0, 64, 0
2, 216037, Note_on_c, 0, 65, 64
2, 216038, Note_on_c, 0, 85, 81
2, 216810, Control_c, 0, 64, 127
2, 217743, Note_on_c, 0, 60, 0
2, 217763, Note_on_c, 0, 73, 0
2, 217774, Note_on_c, 0, 85, 0
2, 217871, Note_on_c, 0, 65, 0
2, 218050, Note_on_c, 0, 61, 0
2, 218108, Note_on_c, 0, 56, 0
2, 218569, Control_c, 0, 64, 0
2, 218630, Note_on_c, 0, 55, 43
2, 218677, Note_on_c, 0, 72, 55
2, 218759, Note_on_c, 0, 77, 50
2, 218778, Note_on_c, 0, 61, 25
2, 218828, Note_on_c, 0, 65, 60
2, 218840, Note_on_c, 0, 81, 66
2, 218878, Note_on_c, 0, 84, 77
2, 219294, Control_c, 0, 64, 127
2, 219460, Note_on_c, 0, 81, 0
2, 219469, Note_on_c, 0, 84, 0
2, 219494, Note_on_c, 0, 77, 0
2, 219596, Note_on_c, 0, 72, 0
2, 219598, Note_on_c, 0, 65, 0
2, 219631, Note_on_c, 0, 55, 0
2, 219678, Note_on_c, 0, 61, 0
2, 219684, Note_on_c, 0, 80, 34
2, 219748, Note_on_c, 0, 80, 0
2, 219813, Control_c, 0, 64, 0
2, 219842, Note_on_c, 0, 70, 39
2, 219875, Note_on_c, 0, 55, 38
2, 219883, Note_on_c, 0, 75, 32
2, 219885, Note_on_c, 0, 61, 34
2, 219916, Note_on_c, 0, 65, 35
2, 219946, Note_on_c, 0, 79, 47
2, 219991, Note_on_c, 0, 82, 42
2, 220090, Note_on_c, 0, 65, 0
2, 220129, Note_on_c, 0, 55, 0
2, 220139, Note_on_c, 0, 61, 0
2, 220147, Note_on_c, 0, 70, 0
2, 220150, Note_on_c, 0, 79, 0
2, 220201, Note_on_c, 0, 82, 0
2, 220205, Note_on_c, 0, 75, 0
2, 220543, Note_on_c, 0, 80, 49
2, 220551, Note_on_c, 0, 61, 35
2, 220553, Note_on_c, 0, 75, 48
2, 220564, Note_on_c, 0, 65, 37
2, 220636, Note_on_c, 0, 65, 0
2, 220700, Note_on_c, 0, 75, 0
2, 220706, Note_on_c, 0, 80, 0
2, 220761, Note_on_c, 0, 61, 0
2, 220912, Control_c, 0, 64, 127
2, 221161, Note_on_c, 0, 67, 42
2, 221164, Note_on_c, 0, 61, 35
2, 221177, Note_on_c, 0, 79, 31
2, 221178, Note_on_c, 0, 75, 34
2, 221203, Note_on_c, 0, 55, 37
2, 221321, Note_on_c, 0, 55, 0
2, 221335, Note_on_c, 0, 67, 0
2, 221337, Note_on_c, 0, 79, 0
2, 221410, Note_on_c, 0, 75, 0
2, 221417, Note_on_c, 0, 61, 0
2, 221589, Control_c, 0, 64, 0
2, 222644, Control_c, 0, 64, 127
2, 223239, Control_c, 0, 64, 0
2, 223370, Note_on_c, 0, 68, 51
2, 223374, Note_on_c, 0, 61, 44
2, 223396, Note_on_c, 0, 63, 44
2, 223400, Note_on_c, 0, 56, 31
2, 223427, Note_on_c, 0, 61, 0
2, 223450, Note_on_c, 0, 63, 0
2, 223469, Note_on_c, 0, 56, 0
2, 223497, Note_on_c, 0, 68, 0
2, 223999, Note_on_c, 0, 61, 39
2, 224009, Control_c, 0, 64, 127
2, 224010, Note_on_c, 0, 68, 37
2, 224037, Note_on_c, 0, 63, 45
2, 224046, Note_on_c, 0, 56, 25
2, 224170, Note_on_c, 0, 56, 0
2, 224206, Note_on_c, 0, 68, 0
2, 224242, Note_on_c, 0, 63, 0
2, 224280, Note_on_c, 0, 61, 0
2, 224589, Control_c, 0, 64, 0
2, 224713, Note_on_c, 0, 68, 36
2, 224724, Note_on_c, 0, 60, 26
2, 224727, Note_on_c, 0, 56, 33
2, 224730, Note_on_c, 0, 63, 36
2, 224891, Control_c, 0, 64, 127
2, 225252, Note_on_c, 0, 60, 0
2, 225578, Note_on_c, 0, 63, 0
2, 225580, Note_on_c, 0, 68, 0
2, 225669, Note_on_c, 0, 60, 36
2, 225942, Note_on_c, 0, 60, 0
2, 226140, Note_on_c, 0, 63, 62
2, 226390, Note_on_c, 0, 63, 0
2, 226582, Note_on_c, 0, 68, 62
2, 226737, Note_on_c, 0, 68, 0
2, 226787, Note_on_c, 0, 56, 0
2, 227077, Note_on_c, 0, 73, 70
2, 227317, Note_on_c, 0, 73, 0
2, 227455, Control_c, 0, 64, 0
2, 227499, Note_on_c, 0, 60, 32
2, 227524, Note_on_c, 0, 72, 55
2, 227544, Note_on_c, 0, 63, 25
2, 227552, Note_on_c, 0, 56, 31
2, 228495, Control_c, 0, 64, 127
2, 228592, Note_on_c, 0, 63, 0
2, 229313, Note_on_c, 0, 60, 0
2, 229453, Note_on_c, 0, 65, 34
2, 229581, Note_on_c, 0, 56, 0
2, 229633, Note_on_c, 0, 72, 0
2, 230129, Note_on_c, 0, 65, 0
2, 230395, Note_on_c, 0, 63, 64
2, 230398, Note_on_c, 0, 70, 61
2, 230411, Control_c, 0, 64, 0
2, 230950, Note_on_c, 0, 58, 68
2, 231030, Note_on_c, 0, 49, 31
2, 231163, Note_on_c, 0, 63, 0
2, 231325, Note_on_c, 0, 70, 0
2, 231410, Note_on_c, 0, 58, 0
2, 231432, Control_c, 0, 64, 127
2, 231466, Note_on_c, 0, 63, 57
2, 231580, Note_on_c, 0, 63, 0
2, 231958, Note_on_c, 0, 82, 77
2, 232327, Note_on_c, 0, 82, 0
2, 232518, Note_on_c, 0, 82, 76
2, 232640, Note_on_c, 0, 49, 0
2, 232920, Note_on_c, 0, 82, 0
2, 232981, Note_on_c, 0, 75, 60
2, 233211, Note_on_c, 0, 75, 0
2, 233319, Control_c, 0, 64, 0
2, 233439, Note_on_c, 0, 75, 56
2, 233461, Note_on_c, 0, 56, 21
2, 233479, Note_on_c, 0, 48, 33
2, 233931, Note_on_c, 0, 75, 0
2, 233942, Note_on_c, 0, 72, 40
2, 234064, Note_on_c, 0, 72, 0
2, 234367, Note_on_c, 0, 87, 51
2, 234445, Note_on_c, 0, 87, 0
2, 234702, Note_on_c, 0, 56, 0
2, 234875, Note_on_c, 0, 87, 53
2, 235013, Note_on_c, 0, 87, 0
2, 235334, Note_on_c, 0, 85, 32
2, 235419, Note_on_c, 0, 85, 0
2, 235839, Note_on_c, 0, 85, 51
2, 235996, Note_on_c, 0, 85, 0
2, 236220, Note_on_c, 0, 84, 57
2, 236313, Note_on_c, 0, 84, 0
2, 236778, Note_on_c, 0, 84, 49
2, 236891, Note_on_c, 0, 84, 0
2, 237116, Note_on_c, 0, 48, 0
2, 237172, Note_on_c, 0, 82, 43
2, 237246, Note_on_c, 0, 82, 0
2, 237740, Note_on_c, 0, 82, 60
2, 237904, Note_on_c, 0, 82, 0
2, 238141, Note_on_c, 0, 63, 30
2, 238147, Note_on_c, 0, 80, 56
2, 238180, Note_on_c, 0, 55, 29
2, 238226, Note_on_c, 0, 80, 0
2, 238229, Note_on_c, 0, 63, 0
2, 238279, Note_on_c, 0, 55, 0
2, 238735, Note_on_c, 0, 79, 66
2, 238969, Note_on_c, 0, 79, 0
2, 239123, Note_on_c, 0, 60, 31
2, 239146, Note_on_c, 0, 80, 62
2, 239173, Note_on_c, 0, 63, 18
2, 239184, Note_on_c, 0, 56, 32
2, 239968, Note_on_c, 0, 80, 0
2, 240001, Note_on_c, 0, 75, 51
2, 240015, Control_c, 0, 64, 127
2, 240092, Note_on_c, 0, 60, 0
2, 240316, Note_on_c, 0, 63, 0
2, 240317, Note_on_c, 0, 56, 0
2, 240785, Control_c, 0, 64, 0
2, 240844, Note_on_c, 0, 75, 0
2, 240909, Note_on_c, 0, 63, 27
2, 240924, Note_on_c, 0, 55, 42
2, 241067, Control_c, 0, 64, 127
2, 241478, Note_on_c, 0, 63, 0
2, 241595, Note_on_c, 0, 55, 0
2, 242011, Control_c, 0, 64, 0
2, 242047, Note_on_c, 0, 80, 64
2, 242062, Note_on_c, 0, 72, 60
2, 242071, Note_on_c, 0, 56, 39
2, 242075, Note_on_c, 0, 60, 38
2, 242081, Note_on_c, 0, 68, 53
2, 242106, Note_on_c, 0, 53, 36
2, 242563, Control_c, 0, 64, 127
2, 242947, Note_on_c, 0, 72, 0
2, 243052, Note_on_c, 0, 53, 0
2, 243063, Note_on_c, 0, 68, 0
2, 243120, Note_on_c, 0, 56, 0
2, 243137, Note_on_c, 0, 60, 0
2, 243205, Note_on_c, 0, 80, 0
2, 244373, Control_c, 0, 64, 0
2, 244518, Note_on_c, 0, 82, 62
2, 244530, Note_on_c, 0, 66, 51
2, 244531, Note_on_c, 0, 73, 46
2, 244544, Note_on_c, 0, 62, 42
2, 244557, Note_on_c, 0, 78, 36
2, 244557, Note_on_c, 0, 56, 38
2, 244594, Note_on_c, 0, 73, 0
2, 244614, Note_on_c, 0, 66, 0
2, 244616, Note_on_c, 0, 62, 0
2, 244629, Note_on_c, 0, 78, 0
2, 244658, Note_on_c, 0, 82, 0
2, 244717, Note_on_c, 0, 56, 0
2, 245939, Control_c, 0, 64, 127
2, 246632, Control_c, 0, 64, 0
2, 246803, Note_on_c, 0, 63, 70
2, 246815, Note_on_c, 0, 70, 76
2, 246818, Note_on_c, 0, 75, 69
2, 246826, Note_on_c, 0, 65, 71
2, 246878, Note_on_c, 0, 65, 0
2, 246903, Note_on_c, 0, 75, 0
2, 246903, Note_on_c, 0, 63, 0
2, 246923, Note_on_c, 0, 70, 0
2, 247701, Control_c, 0, 64, 127
2, 248280, Control_c, 0, 64, 0
2, 248468, Control_c, 0, 64, 127
2, 248579, Control_c, 0, 64, 0
2, 248678, Note_on_c, 0, 63, 52
2, 248681, Note_on_c, 0, 49, 47
2, 248683, Note_on_c, 0, 58, 44
2, 248692, Note_on_c, 0, 61, 37
2, 248767, Control_c, 0, 64, 127
2, 248808, Note_on_c, 0, 55, 7
2, 249111, Note_on_c, 0, 55, 0
2, 249169, Note_on_c, 0, 58, 0
2, 249213, Note_on_c, 0, 61, 0
2, 249269, Note_on_c, 0, 63, 0
2, 249649, Control_c, 0, 64, 0
2, 249663, Note_on_c, 0, 67, 71
2, 249677, Note_on_c, 0, 58, 74
2, 249678, Note_on_c, 0, 61, 71
2, 249691, Note_on_c, 0, 52, 48
2, 249710, Note_on_c, 0, 63, 45
2, 249871, Note_on_c, 0, 49, 0
2, 249932, Control_c, 0, 64, 127
2, 250030, Note_on_c, 0, 67, 0
2, 250124, Note_on_c, 0, 58, 0
2, 250139, Note_on_c, 0, 61, 0
2, 250147, Note_on_c, 0, 63, 0
2, 250514, Note_on_c, 0, 52, 0
2, 250545, Control_c, 0, 64, 0
2, 250600, Note_on_c, 0, 65, 71
2, 250616, Note_on_c, 0, 58, 67
2, 250624, Note_on_c, 0, 55, 57
2, 250657, Note_on_c, 0, 49, 51
2, 250752, Note_on_c, 0, 55, 0
2, 250861, Note_on_c, 0, 58, 0
2, 250875, Control_c, 0, 64, 127
2, 250923, Note_on_c, 0, 65, 0
2, 251580, Note_on_c, 0, 70, 92
2, 251590, Note_on_c, 0, 77, 85
2, 252024, Note_on_c, 0, 70, 0
2, 252153, Note_on_c, 0, 70, 60
2, 252171, Note_on_c, 0, 67, 58
2, 252422, Note_on_c, 0, 77, 0
2, 252643, Note_on_c, 0, 67, 0
2, 252720, Note_on_c, 0, 70, 0
2, 252880, Note_on_c, 0, 70, 71
2, 252899, Note_on_c, 0, 77, 64
2, 253305, Note_on_c, 0, 70, 0
2, 253423, Note_on_c, 0, 77, 0
2, 253525, Note_on_c, 0, 70, 47
2, 253548, Control_c, 0, 64, 0
2, 253567, Note_on_c, 0, 61, 36
2, 253567, Note_on_c, 0, 67, 42
2, 253830, Control_c, 0, 64, 127
2, 254048, Note_on_c, 0, 70, 0
2, 254064, Note_on_c, 0, 67, 0
2, 254213, Note_on_c, 0, 77, 61
2, 254215, Note_on_c, 0, 70, 40
2, 254494, Note_on_c, 0, 70, 0
2, 254530, Note_on_c, 0, 61, 0
2, 254594, Note_on_c, 0, 77, 0
2, 254820, Note_on_c, 0, 75, 56
2, 254858, Note_on_c, 0, 67, 46
2, 254875, Note_on_c, 0, 70, 50
2, 255170, Note_on_c, 0, 70, 0
2, 255201, Note_on_c, 0, 67, 0
2, 255329, Note_on_c, 0, 75, 0
2, 255511, Note_on_c, 0, 77, 58
2, 255514, Note_on_c, 0, 70, 54
2, 255516, Note_on_c, 0, 61, 30
2, 255897, Note_on_c, 0, 70, 0
2, 255914, Note_on_c, 0, 49, 0
2, 255988, Note_on_c, 0, 77, 0
2, 256095, Note_on_c, 0, 61, 0
2, 256159, Note_on_c, 0, 75, 47
2, 256175, Note_on_c, 0, 67, 44
2, 256176, Note_on_c, 0, 70, 51
2, 256375, Note_on_c, 0, 67, 0
2, 256471, Note_on_c, 0, 70, 0
2, 256684, Note_on_c, 0, 75, 0
2, 256705, Control_c, 0, 64, 0
2, 256770, Note_on_c, 0, 72, 51
2, 256811, Note_on_c, 0, 68, 39
2, 256819, Note_on_c, 0, 63, 25
2, 256830, Note_on_c, 0, 60, 24
2, 257272, Control_c, 0, 64, 127
2, 257282, Note_on_c, 0, 63, 0
2, 257404, Note_on_c, 0, 48, 38
2, 257421, Note_on_c, 0, 68, 0
2, 257446, Note_on_c, 0, 63, 30
2, 257572, Note_on_c, 0, 60, 0
2, 257821, Note_on_c, 0, 63, 0
2, 258025, Note_on_c, 0, 72, 0
2, 258084, Note_on_c, 0, 63, 32
2, 258091, Note_on_c, 0, 68, 40
2, 258103, Note_on_c, 0, 56, 30
2, 258251, Note_on_c, 0, 48, 0
2, 258616, Note_on_c, 0, 68, 0
2, 258627, Note_on_c, 0, 63, 0
2, 258909, Note_on_c, 0, 56, 0
2, 259159, Control_c, 0, 64, 0
2, 259232, Note_on_c, 0, 65, 35
2, 259253, Note_on_c, 0, 57, 30
2, 259260, Note_on_c, 0, 69, 46
2, 259646, Control_c, 0, 64, 127
2, 260096, Note_on_c, 0, 69, 0
2, 260146, Note_on_c, 0, 60, 33
2, 260151, Note_on_c, 0, 65, 0
2, 260563, Note_on_c, 0, 57, 0
2, 260717, Note_on_c, 0, 60, 0
2, 262034, Control_c, 0, 64, 0
2, 262076, Note_on_c, 0, 61, 34
2, 262100, Note_on_c, 0, 65, 29
2, 262103, Note_on_c, 0, 72, 49
2, 262117, Note_on_c, 0, 60, 24
2, 262208, Note_on_c, 0, 72, 0
2, 262407, Note_on_c, 0, 73, 46
2, 262564, Note_on_c, 0, 73, 0
2, 262732, Note_on_c, 0, 69, 40
2, 262931, Note_on_c, 0, 69, 0
2, 263071, Note_on_c, 0, 70, 38
2, 263190, Note_on_c, 0, 70, 0
2, 263369, Note_on_c, 0, 72, 40
2, 263533, Note_on_c, 0, 72, 0
2, 263670, Note_on_c, 0, 73, 38
2, 263822, Note_on_c, 0, 73, 0
2, 264026, Note_on_c, 0, 75, 33
2, 264107, Note_on_c, 0, 65, 0
2, 264113, Note_on_c, 0, 75, 0
2, 264200, Note_on_c, 0, 60, 0
2, 264232, Note_on_c, 0, 61, 0
2, 264276, Note_on_c, 0, 77, 43
2, 264380, Note_on_c, 0, 77, 0
2, 264617, Note_on_c, 0, 78, 47
2, 264810, Note_on_c, 0, 78, 0
2, 264954, Note_on_c, 0, 61, 33
2, 264976, Note_on_c, 0, 79, 40
2, 265018, Note_on_c, 0, 55, 24
2, 265082, Note_on_c, 0, 79, 0
2, 265129, Note_on_c, 0, 55, 0
2, 265139, Note_on_c, 0, 61, 0
2, 265550, Note_on_c, 0, 80, 64
2, 265702, Note_on_c, 0, 80, 0
2, 265964, Note_on_c, 0, 82, 57
2, 266169, Control_c, 0, 64, 127
2, 266719, Control_c, 0, 64, 0
2, 266752, Control_c, 0, 64, 127
2, 266879, Note_on_c, 0, 61, 39
2, 266898, Note_on_c, 0, 66, 27
2, 266980, Note_on_c, 0, 66, 0
2, 267050, Note_on_c, 0, 61, 0
2, 267312, Note_on_c, 0, 82, 0
2, 267880, Control_c, 0, 64, 0
2, 267889, Note_on_c, 0, 82, 74
2, 267891, Note_on_c, 0, 73, 62
2, 268546, Note_on_c, 0, 68, 54
2, 268745, Control_c, 0, 64, 127
2, 269217, Note_on_c, 0, 63, 50
2, 269841, Note_on_c, 0, 56, 52
2, 269901, Note_on_c, 0, 82, 0
2, 269909, Note_on_c, 0, 73, 0
2, 270216, Note_on_c, 0, 68, 0
2, 270345, Note_on_c, 0, 63, 0
2, 270365, Note_on_c, 0, 56, 0
2, 270453, Note_on_c, 0, 80, 59
2, 270456, Note_on_c, 0, 72, 63
2, 270461, Control_c, 0, 64, 0
2, 270462, Note_on_c, 0, 56, 33
2, 270489, Note_on_c, 0, 63, 44
2, 270727, Control_c, 0, 64, 127
2, 270898, Note_on_c, 0, 72, 0
2, 271014, Note_on_c, 0, 68, 28
2, 271237, Note_on_c, 0, 80, 0
2, 271301, Note_on_c, 0, 63, 0
2, 271582, Note_on_c, 0, 68, 0
2, 271767, Note_on_c, 0, 63, 34
2, 271908, Note_on_c, 0, 63, 0
2, 271997, Note_on_c, 0, 56, 0
2, 272610, Note_on_c, 0, 60, 25
2, 272777, Note_on_c, 0, 60, 0
2, 272880, Note_on_c, 0, 65, 39
2, 273054, Note_on_c, 0, 65, 0
2, 273202, Note_on_c, 0, 68, 64
2, 273277, Note_on_c, 0, 69, 27
2, 273343, Note_on_c, 0, 69, 0
2, 273368, Note_on_c, 0, 68, 0
2, 273492, Note_on_c, 0, 70, 78
2, 273617, Control_c, 0, 64, 0
2, 273705, Note_on_c, 0, 56, 46
2, 273706, Note_on_c, 0, 60, 31
2, 273738, Note_on_c, 0, 70, 0
2, 273752, Note_on_c, 0, 53, 30
2, 273800, Note_on_c, 0, 72, 61
2, 274186, Note_on_c, 0, 60, 0
2, 274335, Note_on_c, 0, 60, 47
2, 274544, Note_on_c, 0, 60, 0
2, 274812, Note_on_c, 0, 60, 44
2, 274859, Control_c, 0, 64, 127
2, 275107, Note_on_c, 0, 60, 0
2, 275483, Note_on_c, 0, 60, 34
2, 275666, Note_on_c, 0, 56, 0
2, 275798, Note_on_c, 0, 60, 0
2, 276428, Note_on_c, 0, 56, 43
2, 276449, Note_on_c, 0, 60, 34
2, 276537, Note_on_c, 0, 72, 0
2, 277374, Control_c, 0, 64, 0
2, 277479, Note_on_c, 0, 67, 94
2, 277666, Note_on_c, 0, 67, 0
2, 277669, Note_on_c, 0, 68, 50
2, 277847, Note_on_c, 0, 67, 54
2, 277937, Note_on_c, 0, 68, 0
2, 277981, Note_on_c, 0, 60, 0
2, 278083, Note_on_c, 0, 65, 55
2, 278087, Note_on_c, 0, 67, 0
2, 278271, Control_c, 0, 64, 127
2, 278324, Note_on_c, 0, 65, 0
2, 278367, Control_c, 0, 64, 0
2, 278395, Note_on_c, 0, 64, 47
2, 278512, Note_on_c, 0, 60, 14
2, 278760, Control_c, 0, 64, 127
2, 278956, Note_on_c, 0, 64, 0
2, 279025, Note_on_c, 0, 65, 68
2, 279083, Note_on_c, 0, 53, 0
2, 279384, Control_c, 0, 64, 0
2, 279422, Note_on_c, 0, 65, 0
2, 279464, Note_on_c, 0, 56, 0
2, 279516, Note_on_c, 0, 52, 31
2, 279597, Note_on_c, 0, 72, 44
2, 279753, Note_on_c, 0, 60, 0
2, 280066, Note_on_c, 0, 72, 0
2, 280344, Control_c, 0, 64, 127
2, 280352, Note_on_c, 0, 60, 35
2, 280778, Note_on_c, 0, 60, 0
2, 280982, Note_on_c, 0, 72, 54
2, 281284, Note_on_c, 0, 72, 0
2, 281487, Note_on_c, 0, 72, 47
2, 281658, Note_on_c, 0, 52, 0
2, 281921, Note_on_c, 0, 60, 33
2, 282090, Note_on_c, 0, 60, 0
2, 282183, Note_on_c, 0, 72, 0
2, 282326, Control_c, 0, 64, 0
2, 282335, Note_on_c, 0, 60, 42
2, 282351, Note_on_c, 0, 56, 34
2, 282399, Note_on_c, 0, 53, 27
2, 283312, Note_on_c, 0, 67, 91
2, 283456, Note_on_c, 0, 67, 0
2, 283477, Note_on_c, 0, 68, 51
2, 283669, Note_on_c, 0, 67, 55
2, 283743, Note_on_c, 0, 68, 0
2, 283798, Note_on_c, 0, 60, 0
2, 283848, Note_on_c, 0, 67, 0
2, 283872, Note_on_c, 0, 65, 50
2, 284077, Note_on_c, 0, 65, 0
2, 284093, Note_on_c, 0, 64, 53
2, 284279, Note_on_c, 0, 64, 0
2, 284364, Note_on_c, 0, 67, 68
2, 284668, Control_c, 0, 64, 127
2, 284758, Note_on_c, 0, 64, 59
2, 284784, Note_on_c, 0, 67, 0
2, 284834, Note_on_c, 0, 53, 0
2, 284994, Note_on_c, 0, 64, 0
2, 285001, Note_on_c, 0, 56, 0
2, 285030, Control_c, 0, 64, 0
2, 285134, Note_on_c, 0, 65, 35
2, 285165, Note_on_c, 0, 60, 30
2, 285183, Note_on_c, 0, 52, 36
2, 285411, Note_on_c, 0, 65, 0
2, 285675, Note_on_c, 0, 60, 0
2, 286053, Note_on_c, 0, 60, 35
2, 286097, Control_c, 0, 64, 127
2, 286431, Note_on_c, 0, 52, 0
2, 286526, Note_on_c, 0, 60, 0
2, 287999, Control_c, 0, 64, 0
2, 288044, Note_on_c, 0, 44, 46
2, 288999, Note_on_c, 0, 68, 83
2, 289001, Note_on_c, 0, 60, 83
2, 289023, Note_on_c, 0, 61, 58
2, 289034, Note_on_c, 0, 56, 44
2, 289076, Note_on_c, 0, 61, 0
2, 289164, Control_c, 0, 64, 127
2, 289430, Note_on_c, 0, 68, 0
2, 289506, Note_on_c, 0, 60, 0
2, 289634, Control_c, 0, 64, 0
2, 289678, Note_on_c, 0, 67, 81
2, 289871, Control_c, 0, 64, 127
2, 290089, Note_on_c, 0, 67, 0
2, 290253, Note_on_c, 0, 65, 88
2, 290299, Note_on_c, 0, 44, 0
2, 290592, Note_on_c, 0, 56, 0
2, 290809, Note_on_c, 0, 65, 0
2, 290939, Control_c, 0, 64, 0
2, 290995, Note_on_c, 0, 63, 63
2, 291001, Note_on_c, 0, 60, 55
2, 291008, Note_on_c, 0, 56, 39
2, 291026, Note_on_c, 0, 46, 35
2, 291495, Note_on_c, 0, 60, 0
2, 291647, Note_on_c, 0, 63, 0
2, 291658, Note_on_c, 0, 62, 70
2, 291818, Control_c, 0, 64, 127
2, 291981, Note_on_c, 0, 62, 0
2, 292684, Note_on_c, 0, 46, 0
2, 292709, Note_on_c, 0, 56, 0
2, 292714, Note_on_c, 0, 78, 78
2, 293076, Note_on_c, 0, 78, 0
2, 293436, Control_c, 0, 64, 0
2, 293440, Note_on_c, 0, 77, 70
2, 293462, Note_on_c, 0, 71, 70
2, 293484, Note_on_c, 0, 62, 50
2, 293495, Note_on_c, 0, 65, 57
2, 293799, Control_c, 0, 64, 127
2, 293800, Note_on_c, 0, 77, 0
2, 293846, Note_on_c, 0, 71, 0
2, 294045, Note_on_c, 0, 65, 0
2, 294101, Note_on_c, 0, 74, 66
2, 294183, Note_on_c, 0, 62, 0
2, 294214, Note_on_c, 0, 59, 24
2, 294416, Note_on_c, 0, 74, 0
2, 294727, Control_c, 0, 64, 0
2, 294738, Note_on_c, 0, 59, 0
2, 294824, Note_on_c, 0, 56, 40
2, 294917, Control_c, 0, 64, 127
2, 295376, Note_on_c, 0, 56, 0
2, 295417, Note_on_c, 0, 53, 40
2, 295433, Note_on_c, 0, 68, 38
2, 295448, Note_on_c, 0, 62, 47
2, 295450, Control_c, 0, 64, 0
2, 295467, Note_on_c, 0, 59, 24
2, 295652, Control_c, 0, 64, 127
2, 295790, Note_on_c, 0, 62, 0
2, 295825, Note_on_c, 0, 53, 0
2, 295909, Note_on_c, 0, 59, 0
2, 295964, Note_on_c, 0, 68, 0
2, 296086, Note_on_c, 0, 65, 32
2, 296231, Note_on_c, 0, 65, 0
2, 296318, Note_on_c, 0, 62, 55
2, 296554, Note_on_c, 0, 62, 0
2, 296660, Control_c, 0, 64, 0
2, 296685, Note_on_c, 0, 55, 42
2, 296692, Note_on_c, 0, 63, 48
2, 296701, Note_on_c, 0, 58, 37
2, 296751, Note_on_c, 0, 48, 32
2, 297117, Control_c, 0, 64, 127
2, 297915, Note_on_c, 0, 48, 0
2, 297946, Note_on_c, 0, 55, 0
2, 298148, Note_on_c, 0, 58, 0
2, 298296, Note_on_c, 0, 63, 0
2, 299346, Control_c, 0, 64, 0
2, 299506, Note_on_c, 0, 65, 62
2, 299506, Note_on_c, 0, 60, 24
2, 299563, Note_on_c, 0, 56, 34
2, 299765, Note_on_c, 0, 65, 0
2, 299875, Note_on_c, 0, 67, 37
2, 299952, Note_on_c, 0, 65, 44
2, 299966, Note_on_c, 0, 67, 0
2, 300177, Note_on_c, 0, 64, 51
2, 300192, Note_on_c, 0, 65, 0
2, 300351, Note_on_c, 0, 64, 0
2, 300493, Note_on_c, 0, 65, 71
2, 300690, Note_on_c, 0, 65, 0
2, 301124, Control_c, 0, 64, 127
2, 301219, Control_c, 0, 64, 0
2, 301706, Control_c, 0, 64, 127
2, 301998, Note_on_c, 0, 56, 0
2, 302056, Note_on_c, 0, 72, 50
2, 302087, Note_on_c, 0, 60, 0
2, 302249, Note_on_c, 0, 72, 0
2, 302398, Control_c, 0, 64, 0
2, 302484, Note_on_c, 0, 72, 68
2, 302962, Control_c, 0, 64, 127
2, 302983, Note_on_c, 0, 72, 0
2, 303051, Note_on_c, 0, 70, 36
2, 303070, Note_on_c, 0, 46, 35
2, 303108, Note_on_c, 0, 70, 0
2, 303279, Control_c, 0, 64, 0
2, 303547, Note_on_c, 0, 79, 72
2, 303762, Note_on_c, 0, 79, 0
2, 304094, Note_on_c, 0, 77, 64
2, 304102, Note_on_c, 0, 79, 62
2, 304257, Note_on_c, 0, 79, 0
2, 304268, Note_on_c, 0, 77, 0
2, 304507, Note_on_c, 0, 75, 58
2, 304717, Note_on_c, 0, 75, 0
2, 304781, Note_on_c, 0, 46, 0
2, 304957, Control_c, 0, 64, 127
2, 305038, Note_on_c, 0, 74, 84
2, 305255, Control_c, 0, 64, 0
2, 305331, Note_on_c, 0, 56, 28
2, 305341, Note_on_c, 0, 46, 32
2, 305596, Note_on_c, 0, 74, 0
2, 305714, Note_on_c, 0, 72, 57
2, 305965, Control_c, 0, 64, 127
2, 306184, Control_c, 0, 64, 0
2, 306324, Note_on_c, 0, 72, 0
2, 306362, Note_on_c, 0, 70, 55
2, 306452, Control_c, 0, 64, 127
2, 306656, Control_c, 0, 64, 0
2, 306786, Note_on_c, 0, 69, 48
2, 306797, Control_c, 0, 64, 127
2, 306808, Note_on_c, 0, 70, 0
2, 306970, Note_on_c, 0, 69, 0
2, 307142, Control_c, 0, 64, 0
2, 307251, Note_on_c, 0, 72, 58
2, 307505, Note_on_c, 0, 46, 0
2, 307520, Control_c, 0, 64, 127
2, 307522, Note_on_c, 0, 72, 0
2, 307523, Note_on_c, 0, 70, 55
2, 307585, Note_on_c, 0, 56, 0
2, 307697, Note_on_c, 0, 70, 0
2, 307813, Note_on_c, 0, 68, 43
2, 307969, Note_on_c, 0, 68, 0
2, 307975, Note_on_c, 0, 65, 40
2, 308039, Control_c, 0, 64, 0
2, 308175, Note_on_c, 0, 65, 0
2, 308215, Note_on_c, 0, 63, 46
2, 308253, Note_on_c, 0, 51, 33
2, 309062, Control_c, 0, 64, 127
2, 309068, Note_on_c, 0, 63, 0
2, 309126, Note_on_c, 0, 60, 24
2, 309592, Note_on_c, 0, 60, 0
2, 309974, Control_c, 0, 64, 0
2, 310107, Note_on_c, 0, 70, 74
2, 310383, Control_c, 0, 64, 127
2, 310855, Note_on_c, 0, 51, 0
2, 310884, Note_on_c, 0, 70, 0
2, 310945, Control_c, 0, 64, 0
2, 311051, Note_on_c, 0, 67, 53
2, 311053, Note_on_c, 0, 51, 39
2, 311064, Note_on_c, 0, 63, 53
2, 311451, Control_c, 0, 64, 127
2, 311606, Control_c, 0, 64, 0
2, 311688, Note_on_c, 0, 67, 0
2, 311771, Note_on_c, 0, 70, 72
2, 312016, Control_c, 0, 64, 127
2, 312230, Note_on_c, 0, 51, 0
2, 312343, Note_on_c, 0, 70, 0
2, 312358, Note_on_c, 0, 63, 0
2, 312412, Note_on_c, 0, 67, 62
2, 312420, Note_on_c, 0, 58, 56
2, 312434, Note_on_c, 0, 63, 14
2, 312467, Note_on_c, 0, 51, 38
2, 312753, Note_on_c, 0, 51, 0
2, 312811, Note_on_c, 0, 63, 0
2, 312815, Note_on_c, 0, 58, 0
2, 312956, Note_on_c, 0, 67, 0
2, 312974, Control_c, 0, 64, 0
2, 313038, Note_on_c, 0, 63, 59
2, 313047, Note_on_c, 0, 51, 38
2, 313063, Note_on_c, 0, 58, 38
2, 313116, Control_c, 0, 64, 127
2, 313276, Note_on_c, 0, 51, 0
2, 313447, Note_on_c, 0, 58, 0
2, 313573, Note_on_c, 0, 63, 0
2, 313629, Note_on_c, 0, 51, 39
2, 313888, Note_on_c, 0, 51, 0
2, 313974, Note_on_c, 0, 60, 55
2, 313982, Control_c, 0, 64, 0
2, 313984, Note_on_c, 0, 63, 68
2, 313985, Note_on_c, 0, 56, 73
2, 313994, Note_on_c, 0, 46, 67
2, 314454, Control_c, 0, 64, 127
2, 314893, Control_c, 0, 64, 0
2, 314910, Control_c, 0, 64, 127
2, 315001, Note_on_c, 0, 56, 0
2, 315106, Note_on_c, 0, 60, 0
2, 315147, Note_on_c, 0, 63, 0
2, 315150, Note_on_c, 0, 46, 0
2, 315396, Control_c, 0, 64, 0
2, 315462, Note_on_c, 0, 46, 47
2, 315464, Note_on_c, 0, 56, 74
2, 315465, Note_on_c, 0, 62, 73
2, 315835, Note_on_c, 0, 56, 0
2, 315851, Note_on_c, 0, 46, 0
2, 315859, Note_on_c, 0, 62, 0
2, 316160, Note_on_c, 0, 60, 48
2, 316160, Note_on_c, 0, 56, 45
2, 316169, Note_on_c, 0, 46, 46
2, 316419, Note_on_c, 0, 60, 0
2, 316469, Note_on_c, 0, 46, 0
2, 316480, Note_on_c, 0, 56, 0
2, 316812, Note_on_c, 0, 56, 43
2, 316814, Note_on_c, 0, 60, 45
2, 316822, Note_on_c, 0, 46, 46
2, 317046, Control_c, 0, 64, 127
2, 317294, Note_on_c, 0, 56, 0
2, 317330, Note_on_c, 0, 46, 0
2, 317421, Note_on_c, 0, 60, 0
2, 317452, Control_c, 0, 64, 0
2, 317510, Note_on_c, 0, 56, 30
2, 317524, Note_on_c, 0, 59, 51
2, 317532, Note_on_c, 0, 46, 35
2, 317621, Note_on_c, 0, 56, 0
2, 317645, Note_on_c, 0, 59, 0
2, 317712, Note_on_c, 0, 46, 0
2, 318128, Control_c, 0, 64, 127
2, 318139, Note_on_c, 0, 46, 43
2, 318142, Note_on_c, 0, 56, 33
2, 318156, Note_on_c, 0, 59, 53
2, 318471, Note_on_c, 0, 59, 0
2, 318518, Note_on_c, 0, 46, 0
2, 318546, Note_on_c, 0, 56, 0
2, 318664, Control_c, 0, 64, 0
2, 318768, Note_on_c, 0, 58, 51
2, 318777, Note_on_c, 0, 56, 27
2, 318786, Note_on_c, 0, 46, 37
2, 318821, Control_c, 0, 64, 127
2, 318984, Note_on_c, 0, 46, 0
2, 319039, Note_on_c, 0, 56, 0
2, 319382, Note_on_c, 0, 58, 0
2, 319514, Control_c, 0, 64, 0
2, 319658, Note_on_c, 0, 58, 37
2, 319697, Note_on_c, 0, 55, 29
2, 319700, Note_on_c, 0, 39, 36
2, 319845, Control_c, 0, 64, 127
2, 319865, Note_on_c, 0, 55, 0
2, 319984, Note_on_c, 0, 58, 0
2, 320086, Note_on_c, 0, 39, 0
2, 320165, Note_on_c, 0, 46, 40
2, 320441, Note_on_c, 0, 46, 0
2, 320604, Note_on_c, 0, 60, 40
2, 320615, Note_on_c, 0, 70, 48
2, 320616, Note_on_c, 0, 65, 35
2, 320638, Note_on_c, 0, 55, 37
2, 320728, Note_on_c, 0, 60, 0
2, 320804, Note_on_c, 0, 65, 0
2, 320880, Note_on_c, 0, 70, 0
2, 321116, Note_on_c, 0, 55, 0
2, 321140, Note_on_c, 0, 58, 43
2, 321566, Note_on_c, 0, 74, 65
2, 321576, Note_on_c, 0, 82, 70
2, 321604, Note_on_c, 0, 62, 39
2, 321960, Note_on_c, 0, 62, 0
2, 321979, Note_on_c, 0, 74, 0
2, 321988, Note_on_c, 0, 82, 0
2, 322092, Note_on_c, 0, 67, 32
2, 322548, Note_on_c, 0, 67, 0
2, 322556, Note_on_c, 0, 70, 46
2, 322592, Note_on_c, 0, 62, 35
2, 322626, Note_on_c, 0, 79, 19
2, 322810, Note_on_c, 0, 79, 0
2, 322921, Note_on_c, 0, 62, 0
2, 323250, Note_on_c, 0, 70, 0
2, 323511, Note_on_c, 0, 70, 92
2, 323539, Note_on_c, 0, 67, 44
2, 323893, Note_on_c, 0, 70, 0
2, 324011, Note_on_c, 0, 67, 0
2, 324013, Note_on_c, 0, 75, 83
2, 324304, Note_on_c, 0, 75, 0
2, 324455, Note_on_c, 0, 75, 77
2, 324525, Note_on_c, 0, 58, 0
2, 324690, Note_on_c, 0, 75, 0
2, 324958, Note_on_c, 0, 75, 64
2, 325176, Note_on_c, 0, 75, 0
2, 325441, Note_on_c, 0, 75, 62
2, 325455, Control_c, 0, 64, 0
2, 325457, Note_on_c, 0, 68, 54
2, 325466, Note_on_c, 0, 65, 45
2, 325521, Note_on_c, 0, 58, 32
2, 325791, Note_on_c, 0, 75, 0
2, 325816, Control_c, 0, 64, 127
2, 325960, Note_on_c, 0, 74, 61
2, 326173, Note_on_c, 0, 74, 0
2, 326358, Note_on_c, 0, 65, 0
2, 326441, Note_on_c, 0, 74, 54
2, 326518, Note_on_c, 0, 58, 0
2, 326699, Note_on_c, 0, 74, 0
2, 326836, Note_on_c, 0, 68, 0
2, 326918, Note_on_c, 0, 72, 55
2, 326968, Note_on_c, 0, 58, 29
2, 327145, Note_on_c, 0, 72, 0
2, 327208, Note_on_c, 0, 58, 0
2, 327276, Control_c, 0, 64, 0
2, 327409, Note_on_c, 0, 58, 39
2, 327412, Note_on_c, 0, 72, 64
2, 327530, Control_c, 0, 64, 127
2, 327672, Note_on_c, 0, 58, 0
2, 327846, Note_on_c, 0, 72, 0
2, 327923, Note_on_c, 0, 58, 31
2, 328047, Note_on_c, 0, 58, 0
2, 328285, Control_c, 0, 64, 0
2, 328368, Note_on_c, 0, 71, 60
2, 328397, Note_on_c, 0, 65, 48
2, 328404, Note_on_c, 0, 58, 38
2, 328423, Note_on_c, 0, 62, 35
2, 328489, Note_on_c, 0, 62, 0
2, 328499, Note_on_c, 0, 58, 0
2, 328553, Control_c, 0, 64, 127
2, 328615, Note_on_c, 0, 65, 0
2, 328671, Note_on_c, 0, 71, 0
2, 329314, Note_on_c, 0, 79, 72
2, 329355, Control_c, 0, 64, 0
2, 329356, Note_on_c, 0, 74, 74
2, 329364, Note_on_c, 0, 68, 44
2, 329422, Note_on_c, 0, 71, 34
2, 329425, Note_on_c, 0, 70, 43
2, 329604, Control_c, 0, 64, 127
2, 330104, Note_on_c, 0, 70, 0
2, 330156, Note_on_c, 0, 68, 0
2, 330369, Note_on_c, 0, 79, 0
2, 330388, Note_on_c, 0, 74, 0
2, 330440, Note_on_c, 0, 71, 0
2, 331181, Note_on_c, 0, 39, 45
2, 331206, Control_c, 0, 64, 0
2, 331715, Note_on_c, 0, 46, 37
2, 331849, Control_c, 0, 64, 127
2, 331987, Note_on_c, 0, 46, 0
2, 332009, Note_on_c, 0, 39, 0
2, 332102, Control_c, 0, 64, 0
2, 332149, Note_on_c, 0, 52, 48
2, 332160, Note_on_c, 0, 64, 62
2, 332165, Note_on_c, 0, 61, 51
2, 332166, Note_on_c, 0, 58, 67
2, 332180, Note_on_c, 0, 55, 64
2, 332419, Control_c, 0, 64, 127
2, 332771, Note_on_c, 0, 64, 0
2, 332905, Note_on_c, 0, 55, 0
2, 332988, Note_on_c, 0, 61, 0
2, 333016, Note_on_c, 0, 58, 0
2, 333093, Control_c, 0, 64, 0
2, 333119, Note_on_c, 0, 63, 65
2, 333127, Note_on_c, 0, 58, 69
2, 333141, Note_on_c, 0, 55, 57
2, 333143, Note_on_c, 0, 51, 69
2, 333151, Note_on_c, 0, 61, 58
2, 333185, Note_on_c, 0, 52, 0
2, 333518, Control_c, 0, 64, 127
2, 333802, Note_on_c, 0, 55, 0
2, 333833, Note_on_c, 0, 58, 0
2, 333839, Note_on_c, 0, 63, 0
2, 333903, Note_on_c, 0, 51, 0
2, 333932, Note_on_c, 0, 61, 0
2, 334037, Control_c, 0, 64, 0
2, 334087, Note_on_c, 0, 63, 62
2, 334093, Note_on_c, 0, 58, 70
2, 334099, Note_on_c, 0, 51, 60
2, 334117, Note_on_c, 0, 61, 47
2, 334121, Note_on_c, 0, 55, 60
2, 334385, Control_c, 0, 64, 127
2, 334829, Note_on_c, 0, 55, 0
2, 334960, Note_on_c, 0, 58, 0
2, 334967, Note_on_c, 0, 63, 0
2, 335028, Note_on_c, 0, 51, 0
2, 335029, Control_c, 0, 64, 0
2, 335079, Note_on_c, 0, 50, 52
2, 335094, Note_on_c, 0, 58, 50
2, 335097, Note_on_c, 0, 55, 50
2, 335108, Note_on_c, 0, 62, 60
2, 335689, Control_c, 0, 64, 127
2, 335744, Note_on_c, 0, 55, 0
2, 335758, Note_on_c, 0, 58, 0
2, 335815, Note_on_c, 0, 61, 0
2, 335841, Note_on_c, 0, 62, 0
2, 335845, Control_c, 0, 64, 0
2, 336000, Note_on_c, 0, 51, 47
2, 336006, Note_on_c, 0, 50, 0
2, 336020, Note_on_c, 0, 63, 43
2, 336022, Note_on_c, 0, 58, 43
2, 336092, Control_c, 0, 64, 127
2, 336160, Note_on_c, 0, 51, 0
2, 336224, Note_on_c, 0, 58, 0
2, 336255, Note_on_c, 0, 63, 0
2, 336912, Control_c, 0, 64, 0
2, 336970, Note_on_c, 0, 75, 56
2, 336974, Note_on_c, 0, 67, 44
2, 336997, Note_on_c, 0, 51, 37
2, 337538, Note_on_c, 0, 58, 39
2, 337604, Control_c, 0, 64, 127
2, 337941, Note_on_c, 0, 63, 43
2, 338056, Note_on_c, 0, 75, 0
2, 338098, Note_on_c, 0, 67, 0
2, 338200, Note_on_c, 0, 63, 0
2, 338485, Note_on_c, 0, 76, 58
2, 338502, Note_on_c, 0, 67, 63
2, 338803, Note_on_c, 0, 76, 0
2, 338825, Note_on_c, 0, 67, 0
2, 338963, Note_on_c, 0, 76, 56
2, 338985, Note_on_c, 0, 67, 48
2, 339191, Note_on_c, 0, 76, 0
2, 339221, Note_on_c, 0, 51, 0
2, 339269, Note_on_c, 0, 67, 0
2, 339406, Note_on_c, 0, 67, 24
2, 339424, Note_on_c, 0, 75, 60
2, 339426, Note_on_c, 0, 51, 36
2, 339677, Note_on_c, 0, 75, 0
2, 339714, Note_on_c, 0, 51, 0
2, 339733, Note_on_c, 0, 67, 0
2, 339821, Control_c, 0, 64, 0
2, 339871, Note_on_c, 0, 75, 50
2, 339874, Note_on_c, 0, 67, 52
2, 339907, Note_on_c, 0, 63, 33
2, 339929, Note_on_c, 0, 51, 25
2, 340026, Control_c, 0, 64, 127
2, 340150, Note_on_c, 0, 58, 0
2, 340796, Note_on_c, 0, 67, 0
2, 340804, Note_on_c, 0, 63, 0
2, 340825, Note_on_c, 0, 58, 32
2, 340980, Note_on_c, 0, 75, 0
2, 341792, Note_on_c, 0, 72, 42
2, 341902, Note_on_c, 0, 51, 0
2, 341930, Note_on_c, 0, 58, 0
2, 341988, Note_on_c, 0, 72, 0
2, 342085, Note_on_c, 0, 73, 45
2, 342273, Note_on_c, 0, 73, 0
2, 342385, Note_on_c, 0, 74, 51
2, 342601, Note_on_c, 0, 74, 0
2, 342650, Note_on_c, 0, 75, 72
2, 342854, Control_c, 0, 64, 0
2, 342901, Note_on_c, 0, 60, 25
2, 342915, Note_on_c, 0, 75, 0
2, 342916, Note_on_c, 0, 63, 23
2, 342948, Note_on_c, 0, 72, 52
2, 342966, Note_on_c, 0, 56, 37
2, 343686, Control_c, 0, 64, 127
2, 344406, Note_on_c, 0, 60, 0
2, 344698, Note_on_c, 0, 56, 0
2, 344713, Note_on_c, 0, 63, 0
2, 345047, Note_on_c, 0, 72, 0
2, 345496, Control_c, 0, 64, 0
2, 345565, Note_on_c, 0, 63, 21
2, 345598, Note_on_c, 0, 55, 25
2, 345627, Note_on_c, 0, 58, 34
2, 345917, Note_on_c, 0, 79, 46
2, 346051, Note_on_c, 0, 79, 0
2, 346258, Note_on_c, 0, 80, 52
2, 346410, Note_on_c, 0, 80, 0
2, 346429, Note_on_c, 0, 63, 0
2, 346473, Note_on_c, 0, 55, 0
2, 346505, Note_on_c, 0, 58, 0
2, 346581, Note_on_c, 0, 81, 64
2, 346725, Note_on_c, 0, 81, 0
2, 346891, Note_on_c, 0, 82, 68
2, 347065, Note_on_c, 0, 82, 0
2, 347200, Note_on_c, 0, 79, 61
2, 347322, Note_on_c, 0, 79, 0
2, 347522, Note_on_c, 0, 75, 61
2, 347644, Note_on_c, 0, 75, 0
2, 348208, Note_on_c, 0, 49, 26
2, 348396, Note_on_c, 0, 49, 0
2, 348564, Note_on_c, 0, 56, 18
2, 348605, Note_on_c, 0, 72, 33
2, 348607, Note_on_c, 0, 48, 34
2, 348958, Note_on_c, 0, 72, 0
2, 349143, Note_on_c, 0, 73, 35
2, 349304, Note_on_c, 0, 73, 0
2, 349474, Note_on_c, 0, 75, 65
2, 349649, Note_on_c, 0, 75, 0
2, 349706, Note_on_c, 0, 56, 0
2, 350126, Note_on_c, 0, 63, 25
2, 350206, Note_on_c, 0, 63, 0
2, 351071, Note_on_c, 0, 63, 36
2, 351128, Note_on_c, 0, 56, 21
2, 351139, Note_on_c, 0, 63, 0
2, 351440, Note_on_c, 0, 63, 42
2, 351570, Note_on_c, 0, 63, 0
2, 351606, Note_on_c, 0, 65, 49
2, 351743, Note_on_c, 0, 56, 0
2, 351771, Note_on_c, 0, 63, 36
2, 351788, Note_on_c, 0, 65, 0
2, 351986, Note_on_c, 0, 62, 40
2, 351995, Note_on_c, 0, 63, 0
2, 352128, Note_on_c, 0, 62, 0
2, 352326, Note_on_c, 0, 63, 60
2, 352578, Note_on_c, 0, 48, 0
2, 352977, Control_c, 0, 64, 127
2, 353480, Control_c, 0, 64, 0
2, 353529, Control_c, 0, 64, 127
2, 353913, Note_on_c, 0, 61, 50
2, 354124, Control_c, 0, 64, 0
2, 354225, Note_on_c, 0, 61, 0
2, 354233, Note_on_c, 0, 63, 0
2, 354323, Note_on_c, 0, 60, 30
2, 354890, Note_on_c, 0, 44, 31
2, 354974, Note_on_c, 0, 44, 0
2, 355252, Note_on_c, 0, 63, 50
2, 355705, Note_on_c, 0, 63, 0
2, 355711, Note_on_c, 0, 60, 0
2, 356152, Note_on_c, 0, 72, 52
2, 357046, Note_on_c, 0, 72, 0
2, 357152, Note_on_c, 0, 68, 33
2, 357191, Note_on_c, 0, 60, 15
2, 357215, Note_on_c, 0, 56, 30
2, 357718, Note_on_c, 0, 68, 0
2, 357739, Note_on_c, 0, 60, 0
2, 357906, Note_on_c, 0, 56, 0
2, 358074, Note_on_c, 0, 73, 57
2, 358291, Note_on_c, 0, 73, 0
2, 358402, Note_on_c, 0, 70, 52
2, 358579, Note_on_c, 0, 70, 0
2, 358730, Note_on_c, 0, 66, 42
2, 358742, Note_on_c, 0, 62, 24
2, 358767, Note_on_c, 0, 56, 25
2, 358780, Note_on_c, 0, 52, 26
2, 359053, Note_on_c, 0, 62, 0
2, 359054, Note_on_c, 0, 66, 0
2, 359081, Note_on_c, 0, 61, 51
2, 359126, Note_on_c, 0, 52, 0
2, 359211, Note_on_c, 0, 56, 0
2, 359316, Note_on_c, 0, 61, 0
2, 360679, Note_on_c, 0, 58, 47
2, 360707, Note_on_c, 0, 51, 31
2, 360840, Note_on_c, 0, 58, 0
2, 360860, Note_on_c, 0, 51, 0
2, 361492, Note_on_c, 0, 74, 75
2, 361682, Note_on_c, 0, 74, 0
2, 361798, Note_on_c, 0, 77, 89
2, 362000, Note_on_c, 0, 77, 0
2, 362109, Note_on_c, 0, 75, 67
2, 362447, Note_on_c, 0, 75, 0
2, 362681, Note_on_c, 0, 67, 38
2, 362918, Note_on_c, 0, 67, 0
2, 363021, Note_on_c, 0, 65, 54
2, 363191, Note_on_c, 0, 65, 0
2, 363329, Note_on_c, 0, 63, 64
2, 363545, Note_on_c, 0, 63, 0
2, 363647, Note_on_c, 0, 62, 54
2, 363797, Note_on_c, 0, 62, 0
2, 363951, Note_on_c, 0, 65, 73
2, 364232, Note_on_c, 0, 65, 0
2, 364268, Note_on_c, 0, 62, 58
2, 364398, Note_on_c, 0, 62, 0
2, 364563, Note_on_c, 0, 63, 65
2, 364840, Note_on_c, 0, 63, 0
2, 364915, Note_on_c, 0, 58, 42
2, 365157, Note_on_c, 0, 58, 0
2, 365223, Note_on_c, 0, 55, 27
2, 365293, Note_on_c, 0, 55, 0
2, 365411, Control_c, 0, 64, 127
2, 365724, Control_c, 0, 64, 0
2, 366405, Note_on_c, 0, 49, 30
2, 366996, Control_c, 0, 64, 127
2, 367187, Note_on_c, 0, 55, 54
2, 367355, Note_on_c, 0, 55, 0
2, 367482, Control_c, 0, 64, 0
2, 367499, Note_on_c, 0, 58, 61
2, 367630, Note_on_c, 0, 49, 0
2, 367656, Control_c, 0, 64, 127
2, 367763, Note_on_c, 0, 49, 29
2, 367786, Note_on_c, 0, 63, 62
2, 367835, Note_on_c, 0, 58, 0
2, 367951, Note_on_c, 0, 63, 0
2, 368103, Note_on_c, 0, 67, 66
2, 368263, Note_on_c, 0, 67, 0
2, 368414, Note_on_c, 0, 70, 84
2, 368613, Note_on_c, 0, 49, 0
2, 368616, Note_on_c, 0, 70, 0
2, 368737, Note_on_c, 0, 75, 75
2, 368820, Note_on_c, 0, 49, 20
2, 368958, Note_on_c, 0, 75, 0
2, 368964, Note_on_c, 0, 49, 0
2, 369063, Note_on_c, 0, 77, 78
2, 369265, Note_on_c, 0, 77, 0
2, 369321, Control_c, 0, 64, 0
2, 369398, Note_on_c, 0, 75, 59
2, 369417, Note_on_c, 0, 49, 34
2, 369434, Note_on_c, 0, 56, 36
2, 369743, Control_c, 0, 64, 127
2, 369778, Note_on_c, 0, 70, 51
2, 369797, Note_on_c, 0, 75, 0
2, 370029, Note_on_c, 0, 75, 25
2, 370105, Note_on_c, 0, 56, 0
2, 370455, Control_c, 0, 64, 0
2, 370565, Control_c, 0, 64, 127
2, 370971, Note_on_c, 0, 67, 54
2, 370980, Note_on_c, 0, 49, 0
2, 371063, Note_on_c, 0, 70, 0
2, 371115, Note_on_c, 0, 75, 0
2, 371136, Note_on_c, 0, 67, 0
2, 371278, Note_on_c, 0, 77, 59
2, 371286, Note_on_c, 0, 49, 31
2, 371440, Note_on_c, 0, 77, 0
2, 371492, Control_c, 0, 64, 0
2, 371559, Note_on_c, 0, 49, 0
2, 371617, Note_on_c, 0, 75, 59
2, 371673, Note_on_c, 0, 48, 36
2, 372012, Control_c, 0, 64, 127
2, 372297, Note_on_c, 0, 63, 33
2, 372326, Note_on_c, 0, 56, 25
2, 372345, Note_on_c, 0, 60, 20
2, 373516, Note_on_c, 0, 75, 0
2, 373517, Note_on_c, 0, 68, 39
2, 373591, Note_on_c, 0, 60, 0
2, 373975, Note_on_c, 0, 68, 0
2, 374055, Note_on_c, 0, 63, 0
2, 374231, Note_on_c, 0, 48, 0
2, 374430, Control_c, 0, 64, 0
2, 374483, Note_on_c, 0, 63, 31
2, 374502, Note_on_c, 0, 69, 43
2, 374504, Note_on_c, 0, 56, 0
2, 374504, Note_on_c, 0, 57, 41
2, 374853, Control_c, 0, 64, 127
2, 374933, Note_on_c, 0, 69, 0
2, 374957, Note_on_c, 0, 63, 0
2, 375104, Note_on_c, 0, 57, 0
2, 375404, Note_on_c, 0, 63, 42
2, 375459, Note_on_c, 0, 53, 20
2, 375460, Note_on_c, 0, 60, 19
2, 375808, Note_on_c, 0, 60, 0
2, 375880, Note_on_c, 0, 53, 0
2, 375901, Note_on_c, 0, 63, 0
2, 377193, Note_on_c, 0, 85, 47
2, 377218, Note_on_c, 0, 56, 42
2, 377254, Note_on_c, 0, 60, 27
2, 377262, Control_c, 0, 64, 0
2, 377265, Note_on_c, 0, 61, 44
2, 377277, Note_on_c, 0, 80, 65
2, 377324, Note_on_c, 0, 65, 52
2, 377442, Note_on_c, 0, 73, 21
2, 377544, Control_c, 0, 64, 127
2, 377716, Note_on_c, 0, 65, 0
2, 377720, Note_on_c, 0, 60, 0
2, 377727, Note_on_c, 0, 73, 0
2, 377737, Note_on_c, 0, 56, 0
2, 377754, Note_on_c, 0, 80, 0
2, 377781, Note_on_c, 0, 61, 0
2, 377815, Note_on_c, 0, 85, 0
2, 377999, Control_c, 0, 64, 0
2, 378016, Note_on_c, 0, 87, 69
2, 378058, Note_on_c, 0, 82, 69
2, 378087, Note_on_c, 0, 61, 39
2, 378099, Note_on_c, 0, 56, 47
2, 378112, Note_on_c, 0, 65, 48
2, 378121, Note_on_c, 0, 75, 37
2, 378140, Note_on_c, 0, 60, 30
2, 378345, Control_c, 0, 64, 127
2, 378369, Note_on_c, 0, 60, 0
2, 378383, Note_on_c, 0, 87, 0
2, 378389, Note_on_c, 0, 56, 0
2, 378425, Note_on_c, 0, 65, 0
2, 378441, Note_on_c, 0, 82, 0
2, 378466, Note_on_c, 0, 61, 0
2, 378511, Note_on_c, 0, 75, 0
2, 378642, Note_on_c, 0, 85, 57
2, 378696, Note_on_c, 0, 80, 61
2, 378734, Note_on_c, 0, 65, 47
2, 378736, Note_on_c, 0, 61, 37
2, 378753, Note_on_c, 0, 56, 40
2, 378767, Note_on_c, 0, 60, 29
2, 378780, Note_on_c, 0, 73, 31
2, 378968, Note_on_c, 0, 60, 0
2, 378979, Note_on_c, 0, 56, 0
2, 379016, Note_on_c, 0, 80, 0
2, 379024, Note_on_c, 0, 65, 0
2, 379073, Note_on_c, 0, 73, 0
2, 379079, Note_on_c, 0, 61, 0
2, 379128, Note_on_c, 0, 85, 0
2, 379242, Control_c, 0, 64, 0
2, 379281, Note_on_c, 0, 84, 64
2, 379357, Note_on_c, 0, 61, 38
2, 379358, Note_on_c, 0, 65, 48
2, 379361, Note_on_c, 0, 83, 32
2, 379382, Note_on_c, 0, 56, 44
2, 379394, Note_on_c, 0, 60, 27
2, 379408, Note_on_c, 0, 72, 42
2, 379448, Control_c, 0, 64, 127
2, 379482, Note_on_c, 0, 60, 0
2, 379546, Note_on_c, 0, 83, 0
2, 379565, Note_on_c, 0, 84, 0
2, 379603, Note_on_c, 0, 65, 0
2, 379658, Note_on_c, 0, 61, 0
2, 379687, Note_on_c, 0, 72, 0
2, 379745, Note_on_c, 0, 56, 0
2, 379868, Control_c, 0, 64, 0
2, 379923, Note_on_c, 0, 82, 46
2, 379990, Note_on_c, 0, 61, 38
2, 379995, Note_on_c, 0, 79, 38
2, 379996, Note_on_c, 0, 65, 45
2, 380007, Note_on_c, 0, 70, 40
2, 380015, Note_on_c, 0, 75, 37
2, 380023, Note_on_c, 0, 55, 35
2, 380191, Note_on_c, 0, 65, 0
2, 380206, Note_on_c, 0, 79, 0
2, 380225, Note_on_c, 0, 55, 0
2, 380230, Note_on_c, 0, 82, 0
2, 380263, Note_on_c, 0, 75, 0
2, 380296, Note_on_c, 0, 70, 0
2, 380318, Note_on_c, 0, 61, 0
2, 380465, Control_c, 0, 64, 127
2, 380514, Note_on_c, 0, 80, 36
2, 380533, Note_on_c, 0, 75, 49
2, 380550, Note_on_c, 0, 61, 33
2, 380562, Note_on_c, 0, 68, 37
2, 380564, Note_on_c, 0, 65, 38
2, 380566, Note_on_c, 0, 55, 43
2, 380904, Note_on_c, 0, 75, 0
2, 380925, Note_on_c, 0, 65, 0
2, 380936, Note_on_c, 0, 80, 0
2, 380958, Note_on_c, 0, 68, 0
2, 380986, Note_on_c, 0, 55, 0
2, 381045, Note_on_c, 0, 61, 0
2, 381221, Control_c, 0, 64, 0
2, 381224, Note_on_c, 0, 75, 45
2, 381241, Note_on_c, 0, 79, 41
2, 381244, Note_on_c, 0, 67, 32
2, 381254, Note_on_c, 0, 61, 32
2, 381257, Note_on_c, 0, 64, 40
2, 381274, Note_on_c, 0, 55, 35
2, 381378, Control_c, 0, 64, 127
2, 381989, Note_on_c, 0, 67, 0
2, 382018, Note_on_c, 0, 79, 0
2, 382036, Note_on_c, 0, 64, 0
2, 382071, Note_on_c, 0, 75, 0
2, 382137, Note_on_c, 0, 55, 0
2, 382138, Note_on_c, 0, 61, 0
2, 382635, Note_on_c, 0, 61, 32
2, 382640, Note_on_c, 0, 82, 59
2, 382671, Note_on_c, 0, 70, 42
2, 382671, Note_on_c, 0, 55, 32
2, 382756, Note_on_c, 0, 55, 0
2, 382813, Note_on_c, 0, 70, 0
2, 382896, Note_on_c, 0, 82, 0
2, 382927, Note_on_c, 0, 61, 0
2, 382965, Control_c, 0, 64, 0
2, 383129, Note_on_c, 0, 60, 38
2, 383134, Note_on_c, 0, 82, 64
2, 383153, Note_on_c, 0, 70, 51
2, 383162, Note_on_c, 0, 63, 36
2, 383165, Note_on_c, 0, 56, 43
2, 383264, Control_c, 0, 64, 127
2, 383783, Note_on_c, 0, 70, 0
2, 383792, Note_on_c, 0, 82, 0
2, 383808, Note_on_c, 0, 63, 0
2, 383857, Note_on_c, 0, 60, 0
2, 384021, Note_on_c, 0, 80, 56
2, 384053, Note_on_c, 0, 68, 39
2, 384056, Note_on_c, 0, 63, 32
2, 384064, Note_on_c, 0, 60, 18
2, 385020, Note_on_c, 0, 63, 0
2, 385326, Note_on_c, 0, 60, 0
2, 385527, Note_on_c, 0, 68, 0
2, 385986, Note_on_c, 0, 68, 30
2, 386737, Note_on_c, 0, 68, 0
2, 386778, Note_on_c, 0, 80, 0
2, 386946, Note_on_c, 0, 63, 30
2, 387117, Note_on_c, 0, 63, 0
2, 387236, Note_on_c, 0, 56, 0
2, 387807, Note_on_c, 0, 68, 47
2, 388075, Note_on_c, 0, 68, 0
2, 388765, Control_c, 0, 64, 0
2, 388796, Note_on_c, 0, 68, 39
2, 388807, Note_on_c, 0, 56, 33
2, 388868, Note_on_c, 0, 63, 33
2, 389158, Control_c, 0, 64, 127
2, 389506, Note_on_c, 0, 59, 34
2, 389635, Note_on_c, 0, 63, 0
2, 389655, Note_on_c, 0, 59, 0
2, 389864, Note_on_c, 0, 68, 0
2, 389870, Note_on_c, 0, 63, 51
2, 390154, Note_on_c, 0, 56, 0
2, 390383, Note_on_c, 0, 63, 0
2, 390715, Control_c, 0, 64, 0
2, 390725, Note_on_c, 0, 71, 76
2, 390726, Note_on_c, 0, 63, 80
2, 390747, Note_on_c, 0, 59, 74
2, 391095, Note_on_c, 0, 59, 0
2, 391261, Note_on_c, 0, 63, 0
2, 391278, Note_on_c, 0, 71, 0
2, 391327, Note_on_c, 0, 59, 46
2, 391344, Note_on_c, 0, 56, 54
2, 391375, Control_c, 0, 64, 127
2, 391491, Note_on_c, 0, 59, 0
2, 391516, Control_c, 0, 64, 0
2, 391545, Note_on_c, 0, 56, 0
2, 391698, Note_on_c, 0, 70, 53
2, 391701, Note_on_c, 0, 59, 43
2, 391709, Note_on_c, 0, 63, 50
2, 391720, Note_on_c, 0, 58, 48
2, 392357, Note_on_c, 0, 59, 0
2, 392630, Control_c, 0, 64, 127
2, 392843, Note_on_c, 0, 58, 0
2, 393059, Note_on_c, 0, 63, 0
2, 393400, Note_on_c, 0, 70, 0
2, 393564, Note_on_c, 0, 68, 40
2, 393614, Note_on_c, 0, 63, 30
2, 393999, Note_on_c, 0, 68, 0
2, 394135, Note_on_c, 0, 63, 0
2, 394408, Control_c, 0, 64, 0
2, 394529, Note_on_c, 0, 67, 40
2, 394540, Note_on_c, 0, 58, 42
2, 394560, Note_on_c, 0, 63, 37
2, 394566, Note_on_c, 0, 46, 28
2, 394667, Note_on_c, 0, 58, 0
2, 394728, Note_on_c, 0, 63, 0
2, 394732, Note_on_c, 0, 67, 0
2, 395496, Note_on_c, 0, 73, 51
2, 395636, Note_on_c, 0, 73, 0
2, 396076, Note_on_c, 0, 73, 47
2, 396109, Note_on_c, 0, 70, 47
2, 396231, Note_on_c, 0, 73, 0
2, 396261, Note_on_c, 0, 70, 0
2, 396438, Note_on_c, 0, 73, 31
2, 396474, Note_on_c, 0, 69, 36
2, 396644, Note_on_c, 0, 69, 0
2, 396672, Note_on_c, 0, 73, 0
2, 396901, Note_on_c, 0, 46, 0
2, 397120, Note_on_c, 0, 73, 51
2, 397122, Note_on_c, 0, 70, 69
2, 397152, Note_on_c, 0, 46, 33
2, 397202, Note_on_c, 0, 58, 18
2, 397255, Note_on_c, 0, 73, 0
2, 397279, Note_on_c, 0, 70, 0
2, 397343, Note_on_c, 0, 58, 0
2, 397643, Note_on_c, 0, 58, 33
2, 397658, Note_on_c, 0, 73, 45
2, 397660, Note_on_c, 0, 70, 62
2, 398060, Note_on_c, 0, 58, 0
2, 398132, Note_on_c, 0, 73, 0
2, 398221, Note_on_c, 0, 70, 0
2, 398354, Note_on_c, 0, 68, 47
2, 398356, Note_on_c, 0, 73, 36
2, 398380, Note_on_c, 0, 58, 25
2, 398544, Control_c, 0, 64, 127
2, 398596, Note_on_c, 0, 58, 0
2, 398809, Note_on_c, 0, 73, 0
2, 398933, Note_on_c, 0, 68, 0
2, 398997, Control_c, 0, 64, 0
2, 399022, Note_on_c, 0, 67, 58
2, 399041, Note_on_c, 0, 73, 37
2, 399071, Note_on_c, 0, 58, 28
2, 399341, Control_c, 0, 64, 127
2, 399563, Note_on_c, 0, 46, 0
2, 399722, Note_on_c, 0, 73, 0
2, 399739, Note_on_c, 0, 67, 0
2, 399752, Note_on_c, 0, 65, 46
2, 399932, Note_on_c, 0, 65, 0
2, 399963, Note_on_c, 0, 58, 0
2, 400009, Note_on_c, 0, 46, 33
2, 400064, Note_on_c, 0, 63, 37
2, 400224, Note_on_c, 0, 46, 0
2, 400280, Note_on_c, 0, 63, 0
2, 400347, Control_c, 0, 64, 0
2, 400420, Note_on_c, 0, 63, 32
2, 400423, Note_on_c, 0, 65, 44
2, 400434, Note_on_c, 0, 68, 36
2, 400462, Note_on_c, 0, 59, 24
2, 400992, Note_on_c, 0, 56, 51
2, 401128, Note_on_c, 0, 59, 0
2, 401227, Note_on_c, 0, 68, 0
2, 401265, Note_on_c, 0, 63, 0
2, 401268, Note_on_c, 0, 65, 0
2, 401351, Note_on_c, 0, 56, 0
2, 401360, Note_on_c, 0, 68, 34
2, 401376, Note_on_c, 0, 63, 27
2, 401379, Note_on_c, 0, 58, 61
2, 401393, Note_on_c, 0, 59, 24
2, 401409, Note_on_c, 0, 65, 33
2, 401527, Note_on_c, 0, 59, 0
2, 401826, Note_on_c, 0, 58, 0
2, 401909, Note_on_c, 0, 65, 0
2, 401941, Note_on_c, 0, 59, 74
2, 402006, Note_on_c, 0, 65, 22
2, 402206, Note_on_c, 0, 65, 0
2, 402337, Note_on_c, 0, 59, 0
2, 402364, Note_on_c, 0, 58, 48
2, 402391, Note_on_c, 0, 65, 31
2, 402792, Note_on_c, 0, 68, 0
2, 402811, Note_on_c, 0, 63, 0
2, 402812, Note_on_c, 0, 58, 0
2, 402816, Note_on_c, 0, 65, 0
2, 402919, Note_on_c, 0, 56, 42
2, 403223, Note_on_c, 0, 56, 0
2, 403247, Note_on_c, 0, 68, 33
2, 403262, Note_on_c, 0, 63, 38
2, 403278, Note_on_c, 0, 65, 41
2, 403286, Note_on_c, 0, 59, 27
2, 403300, Note_on_c, 0, 58, 43
2, 403656, Note_on_c, 0, 59, 0
2, 403694, Note_on_c, 0, 68, 0
2, 403770, Note_on_c, 0, 65, 0
2, 403775, Note_on_c, 0, 63, 0
2, 403844, Note_on_c, 0, 58, 0
2, 403904, Note_on_c, 0, 56, 33
2, 404137, Note_on_c, 0, 56, 0
2, 404217, Note_on_c, 0, 58, 37
2, 404233, Note_on_c, 0, 63, 36
2, 404235, Note_on_c, 0, 68, 33
2, 404236, Note_on_c, 0, 65, 38
2, 404244, Note_on_c, 0, 59, 31
2, 404548, Control_c, 0, 64, 127
2, 405014, Note_on_c, 0, 58, 0
2, 405417, Note_on_c, 0, 59, 0
2, 405534, Note_on_c, 0, 65, 0
2, 405677, Note_on_c, 0, 68, 0
2, 405704, Note_on_c, 0, 63, 0
2, 406020, Control_c, 0, 64, 0
2, 406079, Note_on_c, 0, 63, 79
2, 406085, Note_on_c, 0, 68, 64
2, 406179, Note_on_c, 0, 51, 25
2, 406256, Note_on_c, 0, 51, 0
2, 406718, Note_on_c, 0, 51, 58
2, 406919, Control_c, 0, 64, 127
2, 407047, Note_on_c, 0, 51, 0
2, 407109, Note_on_c, 0, 68, 0
2, 407231, Note_on_c, 0, 63, 0
2, 407383, Note_on_c, 0, 67, 65
2, 407391, Note_on_c, 0, 63, 52
2, 407396, Note_on_c, 0, 51, 51
2, 407400, Note_on_c, 0, 58, 52
2, 407879, Note_on_c, 0, 58, 0
2, 407911, Note_on_c, 0, 51, 0
2, 407954, Note_on_c, 0, 63, 0
2, 407971, Note_on_c, 0, 67, 0
2, 408004, Control_c, 0, 64, 0
2, 408062, Note_on_c, 0, 51, 46
2, 408075, Note_on_c, 0, 63, 59
2, 408076, Note_on_c, 0, 58, 56
2, 408084, Note_on_c, 0, 67, 60
2, 408365, Control_c, 0, 64, 127
2, 408664, Control_c, 0, 64, 0
2, 408724, Note_on_c, 0, 39, 63
2, 408962, Control_c, 0, 64, 127
2, 409164, Note_on_c, 0, 39, 0
2, 409260, Note_on_c, 0, 39, 63
2, 409657, Note_on_c, 0, 67, 0
2, 409779, Note_on_c, 0, 63, 0
2, 409796, Note_on_c, 0, 58, 0
2, 409820, Note_on_c, 0, 51, 0
2, 409845, Control_c, 0, 64, 0
2, 409886, Note_on_c, 0, 64, 62
2, 409918, Note_on_c, 0, 51, 37
2, 410392, Note_on_c, 0, 51, 0
2, 410417, Note_on_c, 0, 64, 0
2, 410480, Note_on_c, 0, 63, 71
2, 410499, Note_on_c, 0, 51, 43
2, 410751, Note_on_c, 0, 63, 0
2, 410908, Note_on_c, 0, 61, 35
2, 411193, Note_on_c, 0, 39, 0
2, 411212, Control_c, 0, 64, 127
2, 411413, Note_on_c, 0, 39, 35
2, 411446, Note_on_c, 0, 58, 40
2, 411629, Note_on_c, 0, 61, 0
2, 411687, Note_on_c, 0, 39, 0
2, 411764, Note_on_c, 0, 58, 0
2, 411806, Control_c, 0, 64, 0
2, 411880, Note_on_c, 0, 51, 0
2, 411899, Note_on_c, 0, 44, 47
2, 411908, Note_on_c, 0, 59, 53
2, 412625, Control_c, 0, 64, 127
2, 412727, Note_on_c, 0, 59, 0
2, 412802, Note_on_c, 0, 56, 42
2, 413017, Note_on_c, 0, 56, 0
2, 413457, Note_on_c, 0, 51, 30
2, 413642, Note_on_c, 0, 51, 0
2, 413724, Control_c, 0, 64, 0
2, 413762, Note_on_c, 0, 44, 0
2, 413765, Note_on_c, 0, 71, 80
2, 413779, Note_on_c, 0, 63, 88
2, 413782, Note_on_c, 0, 56, 71
2, 413791, Note_on_c, 0, 59, 80
2, 414243, Note_on_c, 0, 71, 0
2, 414298, Note_on_c, 0, 59, 0
2, 414318, Note_on_c, 0, 56, 0
2, 414362, Note_on_c, 0, 63, 0
2, 414425, Note_on_c, 0, 63, 60
2, 414428, Note_on_c, 0, 70, 77
2, 414434, Note_on_c, 0, 59, 63
2, 414478, Note_on_c, 0, 56, 50
2, 414778, Note_on_c, 0, 70, 0
2, 414818, Note_on_c, 0, 56, 0
2, 414820, Note_on_c, 0, 59, 0
2, 414886, Note_on_c, 0, 63, 0
2, 414980, Note_on_c, 0, 70, 53
2, 414988, Note_on_c, 0, 63, 32
2, 414999, Control_c, 0, 64, 127
2, 415010, Note_on_c, 0, 56, 46
2, 415018, Note_on_c, 0, 59, 32
2, 415455, Note_on_c, 0, 56, 0
2, 415720, Note_on_c, 0, 56, 28
2, 415858, Note_on_c, 0, 56, 0
2, 415949, Note_on_c, 0, 59, 0
2, 416101, Note_on_c, 0, 63, 0
2, 416222, Note_on_c, 0, 70, 0
2, 416314, Note_on_c, 0, 59, 35
2, 416316, Note_on_c, 0, 68, 37
2, 416322, Note_on_c, 0, 63, 28
2, 416341, Note_on_c, 0, 56, 33
2, 416434, Note_on_c, 0, 59, 0
2, 416539, Note_on_c, 0, 63, 0
2, 416540, Note_on_c, 0, 56, 0
2, 416589, Note_on_c, 0, 68, 0
2, 417453, Control_c, 0, 64, 0
2, 417564, Note_on_c, 0, 78, 47
2, 417581, Note_on_c, 0, 71, 55
2, 417602, Note_on_c, 0, 47, 34
2, 417610, Note_on_c, 0, 54, 30
2, 418019, Control_c, 0, 64, 127
2, 418268, Note_on_c, 0, 71, 0
2, 418494, Note_on_c, 0, 66, 35
2, 418982, Note_on_c, 0, 66, 0
2, 419107, Note_on_c, 0, 78, 0
2, 419173, Note_on_c, 0, 75, 39
2, 419427, Note_on_c, 0, 47, 0
2, 419477, Note_on_c, 0, 54, 0
2, 419786, Note_on_c, 0, 71, 47
2, 419905, Note_on_c, 0, 71, 0
2, 419947, Note_on_c, 0, 75, 0
2, 420518, Note_on_c, 0, 80, 49
2, 420520, Control_c, 0, 64, 0
2, 420576, Note_on_c, 0, 52, 33
2, 421133, Note_on_c, 0, 80, 0
2, 421337, Control_c, 0, 64, 127
2, 422049, Note_on_c, 0, 83, 91
2, 422185, Control_c, 0, 64, 0
2, 422340, Note_on_c, 0, 83, 0
2, 422379, Note_on_c, 0, 52, 0
2, 422478, Note_on_c, 0, 80, 51
2, 422809, Note_on_c, 0, 80, 0
2, 422831, Control_c, 0, 64, 127
2, 422933, Note_on_c, 0, 76, 55
2, 423033, Note_on_c, 0, 76, 0
2, 423177, Control_c, 0, 64, 0
2, 423414, Note_on_c, 0, 61, 35
2, 423416, Note_on_c, 0, 76, 40
2, 423544, Note_on_c, 0, 76, 0
2, 423563, Note_on_c, 0, 61, 0
2, 423932, Note_on_c, 0, 76, 35
2, 423933, Note_on_c, 0, 61, 47
2, 423954, Note_on_c, 0, 64, 35
2, 423974, Note_on_c, 0, 68, 27
2, 423983, Note_on_c, 0, 73, 29
2, 424059, Note_on_c, 0, 68, 0
2, 424063, Note_on_c, 0, 61, 0
2, 424070, Note_on_c, 0, 73, 0
2, 424071, Note_on_c, 0, 64, 0
2, 424117, Note_on_c, 0, 76, 0
2, 424421, Note_on_c, 0, 76, 47
2, 424446, Note_on_c, 0, 73, 35
2, 424448, Note_on_c, 0, 61, 39
2, 424459, Note_on_c, 0, 68, 36
2, 424463, Note_on_c, 0, 64, 34
2, 424796, Note_on_c, 0, 64, 0
2, 424804, Note_on_c, 0, 68, 0
2, 424814, Note_on_c, 0, 73, 0
2, 424858, Note_on_c, 0, 61, 0
2, 424888, Note_on_c, 0, 76, 0
2, 425205, Note_on_c, 0, 76, 34
2, 425230, Note_on_c, 0, 61, 33
2, 425233, Note_on_c, 0, 73, 31
2, 425260, Note_on_c, 0, 68, 31
2, 425294, Note_on_c, 0, 64, 15
2, 425329, Control_c, 0, 64, 127
2, 425417, Note_on_c, 0, 61, 0
2, 425520, Note_on_c, 0, 76, 0
2, 425545, Note_on_c, 0, 64, 0
2, 425647, Note_on_c, 0, 73, 0
2, 425829, Note_on_c, 0, 68, 0
2, 426052, Control_c, 0, 64, 0
2, 426143, Note_on_c, 0, 75, 42
2, 426174, Note_on_c, 0, 47, 28
2, 426177, Note_on_c, 0, 66, 29
2, 426508, Control_c, 0, 64, 127
2, 426809, Note_on_c, 0, 66, 0
2, 426840, Note_on_c, 0, 75, 0
2, 427204, Note_on_c, 0, 54, 26
2, 427675, Note_on_c, 0, 59, 36
2, 427877, Note_on_c, 0, 59, 0
2, 427880, Note_on_c, 0, 47, 0
2, 428013, Note_on_c, 0, 54, 0
2, 428131, Note_on_c, 0, 63, 30
2, 428504, Note_on_c, 0, 63, 0
2, 428600, Note_on_c, 0, 71, 47
2, 428904, Note_on_c, 0, 71, 0
2, 429040, Control_c, 0, 64, 0
2, 429090, Note_on_c, 0, 71, 36
2, 429122, Note_on_c, 0, 52, 33
2, 429464, Control_c, 0, 64, 127
2, 429573, Note_on_c, 0, 71, 0
2, 430069, Note_on_c, 0, 59, 33
2, 430927, Note_on_c, 0, 69, 64
2, 431261, Note_on_c, 0, 69, 0
2, 431417, Note_on_c, 0, 71, 85
2, 431816, Note_on_c, 0, 71, 0
2, 431914, Control_c, 0, 64, 0
2, 431924, Note_on_c, 0, 68, 74
2, 431960, Note_on_c, 0, 64, 33
2, 432190, Note_on_c, 0, 59, 0
2, 432275, Control_c, 0, 64, 127
2, 432314, Note_on_c, 0, 64, 0
2, 432457, Note_on_c, 0, 59, 38
2, 432946, Note_on_c, 0, 52, 0
2, 432952, Note_on_c, 0, 64, 49
2, 433199, Note_on_c, 0, 68, 0
2, 433440, Note_on_c, 0, 64, 0
2, 433481, Note_on_c, 0, 52, 43
2, 433522, Note_on_c, 0, 59, 0
2, 433689, Note_on_c, 0, 52, 0
2, 434389, Note_on_c, 0, 47, 26
2, 434821, Control_c, 0, 64, 0
2, 434832, Note_on_c, 0, 47, 0
2, 434864, Note_on_c, 0, 56, 49
2, 434878, Note_on_c, 0, 52, 33
2, 434886, Note_on_c, 0, 40, 33
2, 434887, Note_on_c, 0, 64, 47
2, 434898, Note_on_c, 0, 59, 48
2, 435185, Control_c, 0, 64, 127
2, 435409, Note_on_c, 0, 56, 0
2, 435457, Note_on_c, 0, 59, 0
2, 435493, Note_on_c, 0, 64, 0
2, 435507, Note_on_c, 0, 52, 0
2, 435783, Note_on_c, 0, 40, 0
2, 435892, Note_on_c, 0, 52, 47
2, 436135, Note_on_c, 0, 52, 0
2, 436440, Note_on_c, 0, 52, 59
2, 436573, Note_on_c, 0, 52, 0
2, 436847, Note_on_c, 0, 68, 75
2, 436849, Note_on_c, 0, 64, 82
2, 436857, Note_on_c, 0, 59, 85
2, 436868, Note_on_c, 0, 52, 74
2, 437156, Note_on_c, 0, 52, 0
2, 437263, Note_on_c, 0, 68, 0
2, 437264, Note_on_c, 0, 64, 0
2, 437277, Note_on_c, 0, 59, 0
2, 437388, Note_on_c, 0, 52, 57
2, 437540, Note_on_c, 0, 52, 0
2, 437804, Note_on_c, 0, 66, 78
2, 437809, Control_c, 0, 64, 0
2, 437816, Note_on_c, 0, 61, 80
2, 437818, Note_on_c, 0, 54, 90
2, 437819, Note_on_c, 0, 58, 85
2, 437830, Note_on_c, 0, 52, 85
2, 438346, Control_c, 0, 64, 127
2, 438527, Note_on_c, 0, 52, 0
2, 438806, Note_on_c, 0, 52, 35
2, 438944, Note_on_c, 0, 52, 0
2, 439358, Note_on_c, 0, 52, 52
2, 439508, Note_on_c, 0, 52, 0
2, 439786, Note_on_c, 0, 66, 0
2, 439828, Note_on_c, 0, 52, 22
2, 439852, Note_on_c, 0, 54, 0
2, 439900, Note_on_c, 0, 61, 0
2, 439932, Note_on_c, 0, 58, 0
2, 439933, Note_on_c, 0, 52, 0
2, 440358, Note_on_c, 0, 52, 38
2, 440361, Note_on_c, 0, 64, 48
2, 440380, Note_on_c, 0, 59, 48
2, 440554, Note_on_c, 0, 64, 0
2, 440585, Note_on_c, 0, 59, 0
2, 440720, Control_c, 0, 64, 0
2, 440758, Note_on_c, 0, 52, 0
2, 440800, Note_on_c, 0, 63, 51
2, 440822, Note_on_c, 0, 54, 32
2, 440824, Note_on_c, 0, 51, 44
2, 440832, Note_on_c, 0, 59, 48
2, 441271, Control_c, 0, 64, 127
2, 441398, Note_on_c, 0, 54, 0
2, 441451, Note_on_c, 0, 51, 0
2, 441504, Note_on_c, 0, 59, 0
2, 441583, Note_on_c, 0, 63, 0
2, 441667, Note_on_c, 0, 51, 33
2, 442048, Note_on_c, 0, 51, 0
2, 442205, Note_on_c, 0, 71, 62
2, 442208, Note_on_c, 0, 63, 48
2, 442276, Note_on_c, 0, 51, 19
2, 442324, Control_c, 0, 64, 0
2, 442439, Note_on_c, 0, 63, 0
2, 442465, Note_on_c, 0, 51, 0
2, 442531, Note_on_c, 0, 71, 0
2, 442608, Note_on_c, 0, 63, 37
2, 442616, Note_on_c, 0, 66, 55
2, 442618, Note_on_c, 0, 59, 42
2, 442691, Note_on_c, 0, 51, 27
2, 442746, Note_on_c, 0, 59, 0
2, 442810, Control_c, 0, 64, 127
2, 442856, Note_on_c, 0, 63, 0
2, 442883, Note_on_c, 0, 66, 0
2, 443044, Note_on_c, 0, 51, 0
2, 443486, Control_c, 0, 64, 0
2, 443533, Note_on_c, 0, 75, 46
2, 443540, Note_on_c, 0, 83, 58
2, 443543, Note_on_c, 0, 51, 35
2, 443894, Control_c, 0, 64, 127
2, 444164, Note_on_c, 0, 75, 0
2, 444382, Note_on_c, 0, 83, 0
2, 444411, Note_on_c, 0, 78, 38
2, 444444, Note_on_c, 0, 75, 33
2, 444463, Note_on_c, 0, 71, 35
2, 444510, Note_on_c, 0, 59, 24
2, 444990, Note_on_c, 0, 59, 0
2, 445404, Note_on_c, 0, 75, 0
2, 445409, Note_on_c, 0, 78, 0
2, 445418, Note_on_c, 0, 71, 0
2, 445520, Note_on_c, 0, 59, 29
2, 445788, Note_on_c, 0, 51, 0
2, 446017, Note_on_c, 0, 51, 31
2, 446233, Note_on_c, 0, 51, 0
2, 446306, Note_on_c, 0, 59, 0
2, 446392, Note_on_c, 0, 76, 50
2, 446395, Control_c, 0, 64, 0
2, 446417, Note_on_c, 0, 68, 37
2, 446445, Note_on_c, 0, 52, 32
2, 446757, Control_c, 0, 64, 127
2, 446970, Note_on_c, 0, 59, 32
2, 447202, Note_on_c, 0, 76, 0
2, 447362, Note_on_c, 0, 64, 45
2, 447446, Note_on_c, 0, 64, 0
2, 447488, Note_on_c, 0, 59, 0
2, 447493, Note_on_c, 0, 68, 0
2, 447964, Note_on_c, 0, 59, 34
2, 448347, Note_on_c, 0, 80, 77
2, 448388, Note_on_c, 0, 71, 83
2, 448429, Note_on_c, 0, 59, 0
2, 448761, Note_on_c, 0, 80, 0
2, 448858, Note_on_c, 0, 71, 0
2, 448941, Note_on_c, 0, 59, 39
2, 449142, Note_on_c, 0, 59, 0
2, 449315, Note_on_c, 0, 78, 77
2, 449316, Control_c, 0, 64, 0
2, 449354, Note_on_c, 0, 70, 76
2, 449374, Note_on_c, 0, 64, 42
2, 449689, Note_on_c, 0, 64, 0
2, 449694, Control_c, 0, 64, 127
2, 449874, Note_on_c, 0, 64, 32
2, 450197, Note_on_c, 0, 64, 0
2, 450326, Note_on_c, 0, 66, 43
2, 450401, Note_on_c, 0, 78, 0
2, 450821, Note_on_c, 0, 64, 31
2, 451221, Note_on_c, 0, 52, 0
2, 451248, Note_on_c, 0, 76, 54
2, 451637, Note_on_c, 0, 76, 0
2, 451667, Note_on_c, 0, 64, 0
2, 451737, Note_on_c, 0, 66, 0
2, 451808, Note_on_c, 0, 52, 26
2, 451833, Note_on_c, 0, 70, 0
2, 452049, Note_on_c, 0, 52, 0
2, 452146, Control_c, 0, 64, 0
2, 452211, Note_on_c, 0, 74, 65
2, 452214, Note_on_c, 0, 65, 63
2, 452229, Note_on_c, 0, 62, 49
2, 452334, Control_c, 0, 64, 127
2, 452493, Note_on_c, 0, 62, 0
2, 452518, Note_on_c, 0, 74, 0
2, 452593, Note_on_c, 0, 65, 0
2, 453162, Note_on_c, 0, 53, 31
2, 453173, Note_on_c, 0, 41, 34
2, 453628, Note_on_c, 0, 53, 0
2, 453647, Note_on_c, 0, 41, 0
2, 453694, Note_on_c, 0, 56, 83
2, 453706, Note_on_c, 0, 44, 62
2, 454124, Note_on_c, 0, 56, 0
2, 454145, Control_c, 0, 64, 0
2, 454166, Note_on_c, 0, 47, 72
2, 454174, Note_on_c, 0, 59, 72
2, 454381, Control_c, 0, 64, 127
2, 454581, Note_on_c, 0, 44, 0
2, 454619, Note_on_c, 0, 62, 75
2, 454644, Note_on_c, 0, 50, 66
2, 454647, Note_on_c, 0, 59, 0
2, 454654, Note_on_c, 0, 47, 0
2, 454915, Control_c, 0, 64, 0
2, 455008, Note_on_c, 0, 50, 0
2, 455067, Note_on_c, 0, 53, 55
2, 455086, Note_on_c, 0, 62, 0
2, 455102, Note_on_c, 0, 65, 66
2, 455166, Control_c, 0, 64, 127
2, 455386, Note_on_c, 0, 65, 0
2, 455519, Note_on_c, 0, 53, 0
2, 455530, Note_on_c, 0, 68, 51
2, 455541, Note_on_c, 0, 56, 48
2, 455892, Note_on_c, 0, 68, 0
2, 455899, Note_on_c, 0, 56, 0
2, 455994, Note_on_c, 0, 59, 33
2, 456044, Note_on_c, 0, 71, 35
2, 456331, Note_on_c, 0, 59, 0
2, 456333, Note_on_c, 0, 71, 0
2, 456510, Note_on_c, 0, 74, 39
2, 456530, Note_on_c, 0, 62, 28
2, 456554, Note_on_c, 0, 71, 29
2, 456747, Note_on_c, 0, 71, 0
2, 456762, Note_on_c, 0, 74, 0
2, 456773, Note_on_c, 0, 62, 0
2, 456783, Control_c, 0, 64, 0
2, 456974, Note_on_c, 0, 74, 48
2, 457006, Note_on_c, 0, 62, 22
2, 457082, Control_c, 0, 64, 127
2, 457336, Note_on_c, 0, 74, 0
2, 457369, Note_on_c, 0, 62, 0
2, 457477, Note_on_c, 0, 71, 37
2, 457499, Note_on_c, 0, 59, 29
2, 457620, Note_on_c, 0, 71, 0
2, 457841, Note_on_c, 0, 59, 0
2, 457870, Note_on_c, 0, 41, 43
2, 457910, Note_on_c, 0, 62, 45
2, 457941, Note_on_c, 0, 53, 27
2, 457943, Note_on_c, 0, 56, 35
2, 457976, Note_on_c, 0, 59, 43
2, 458245, Note_on_c, 0, 53, 0
2, 458291, Note_on_c, 0, 56, 0
2, 458308, Note_on_c, 0, 59, 0
2, 458335, Note_on_c, 0, 62, 0
2, 458446, Note_on_c, 0, 53, 40
2, 458470, Note_on_c, 0, 56, 35
2, 458492, Note_on_c, 0, 62, 27
2, 458495, Note_on_c, 0, 59, 43
2, 458576, Note_on_c, 0, 59, 0
2, 458604, Note_on_c, 0, 56, 0
2, 458610, Note_on_c, 0, 53, 0
2, 458657, Note_on_c, 0, 62, 0
2, 458904, Note_on_c, 0, 53, 30
2, 458906, Note_on_c, 0, 56, 31
2, 458931, Note_on_c, 0, 62, 26
2, 458981, Note_on_c, 0, 59, 24
2, 459022, Note_on_c, 0, 53, 0
2, 459053, Note_on_c, 0, 59, 0
2, 459069, Note_on_c, 0, 56, 0
2, 459103, Note_on_c, 0, 62, 0
2, 459397, Note_on_c, 0, 44, 48
2, 459414, Note_on_c, 0, 62, 50
2, 459415, Note_on_c, 0, 56, 47
2, 459417, Note_on_c, 0, 53, 50
2, 459443, Note_on_c, 0, 59, 50
2, 459471, Note_on_c, 0, 41, 0
2, 459537, Note_on_c, 0, 59, 0
2, 459576, Note_on_c, 0, 53, 0
2, 459585, Note_on_c, 0, 56, 0
2, 459695, Note_on_c, 0, 62, 0
2, 459857, Note_on_c, 0, 47, 54
2, 459923, Note_on_c, 0, 53, 36
2, 459931, Note_on_c, 0, 56, 34
2, 459936, Note_on_c, 0, 62, 24
2, 459943, Note_on_c, 0, 44, 0
2, 459964, Note_on_c, 0, 59, 36
2, 460048, Note_on_c, 0, 53, 0
2, 460050, Note_on_c, 0, 59, 0
2, 460072, Note_on_c, 0, 56, 0
2, 460135, Note_on_c, 0, 62, 0
2, 460326, Note_on_c, 0, 47, 0
2, 460369, Note_on_c, 0, 56, 62
2, 460389, Note_on_c, 0, 50, 56
2, 460403, Note_on_c, 0, 62, 47
2, 460411, Note_on_c, 0, 59, 53
2, 460490, Note_on_c, 0, 59, 0
2, 460556, Note_on_c, 0, 56, 0
2, 460602, Note_on_c, 0, 62, 0
2, 460718, Note_on_c, 0, 50, 0
2, 460808, Note_on_c, 0, 53, 44
2, 460856, Note_on_c, 0, 62, 29
2, 461003, Note_on_c, 0, 62, 0
2, 461349, Note_on_c, 0, 53, 0
2, 461414, Control_c, 0, 64, 127
2, 461618, Control_c, 0, 64, 0
2, 461734, Note_on_c, 0, 62, 61
2, 461765, Note_on_c, 0, 59, 48
2, 461968, Control_c, 0, 64, 127
2, 461979, Note_on_c, 0, 59, 0
2, 462289, Note_on_c, 0, 62, 0
2, 463588, Control_c, 0, 64, 0
2, 464295, Note_on_c, 0, 49, 40
2, 464403, Note_on_c, 0, 61, 42
2, 464477, Note_on_c, 0, 64, 51
2, 464588, Note_on_c, 0, 58, 23
2, 464596, Note_on_c, 0, 68, 57
2, 464617, Note_on_c, 0, 73, 60
2, 464998, Note_on_c, 0, 73, 0
2, 465100, Control_c, 0, 64, 127
2, 465184, Note_on_c, 0, 73, 67
2, 465515, Note_on_c, 0, 73, 0
2, 465702, Note_on_c, 0, 73, 57
2, 465956, Note_on_c, 0, 73, 0
2, 466018, Note_on_c, 0, 58, 0
2, 466094, Note_on_c, 0, 61, 0
2, 466105, Note_on_c, 0, 68, 0
2, 466144, Note_on_c, 0, 64, 0
2, 466147, Note_on_c, 0, 73, 55
2, 466280, Note_on_c, 0, 73, 0
2, 466467, Note_on_c, 0, 49, 0
2, 466575, Control_c, 0, 64, 0
2, 466619, Note_on_c, 0, 61, 42
2, 466646, Note_on_c, 0, 58, 29
2, 466653, Note_on_c, 0, 51, 31
2, 466655, Note_on_c, 0, 67, 48
2, 466657, Note_on_c, 0, 70, 29
2, 466685, Note_on_c, 0, 63, 31
2, 467143, Control_c, 0, 64, 127
2, 467416, Note_on_c, 0, 67, 0
2, 467456, Note_on_c, 0, 61, 0
2, 467563, Note_on_c, 0, 63, 0
2, 467659, Note_on_c, 0, 70, 0
2, 467710, Note_on_c, 0, 58, 0
2, 468653, Note_on_c, 0, 51, 0
2, 468838, Note_on_c, 0, 63, 28
2, 469039, Note_on_c, 0, 63, 0
2, 469136, Note_on_c, 0, 72, 72
2, 469411, Note_on_c, 0, 72, 0
2, 469498, Control_c, 0, 64, 0
2, 469537, Note_on_c, 0, 72, 57
2, 469568, Note_on_c, 0, 44, 29
2, 470436, Control_c, 0, 64, 127
2, 470488, Note_on_c, 0, 56, 38
2, 470493, Note_on_c, 0, 63, 37
2, 470503, Note_on_c, 0, 60, 24
2, 470968, Note_on_c, 0, 44, 0
2, 471031, Note_on_c, 0, 60, 0
2, 471137, Note_on_c, 0, 56, 0
2, 471296, Note_on_c, 0, 72, 0
2, 472021, Note_on_c, 0, 63, 0
2, 472356, Control_c, 0, 64, 0
2, 473336, Note_on_c, 0, 49, 37
2, 473896, Note_on_c, 0, 58, 49
2, 474161, Note_on_c, 0, 58, 0
2, 474203, Note_on_c, 0, 49, 0
2, 474238, Control_c, 0, 64, 127
2, 474321, Note_on_c, 0, 63, 56
2, 474459, Note_on_c, 0, 63, 0
2, 474854, Note_on_c, 0, 77, 94
2, 475287, Note_on_c, 0, 77, 0
2, 475290, Control_c, 0, 64, 0
2, 475397, Note_on_c, 0, 75, 62
2, 475443, Note_on_c, 0, 48, 38
2, 476197, Note_on_c, 0, 67, 33
2, 476209, Note_on_c, 0, 70, 34
2, 476240, Note_on_c, 0, 56, 29
2, 476260, Note_on_c, 0, 60, 27
2, 476361, Control_c, 0, 64, 127
2, 477887, Note_on_c, 0, 48, 0
2, 478229, Note_on_c, 0, 60, 0
2, 478308, Note_on_c, 0, 56, 0
2, 478556, Note_on_c, 0, 67, 0
2, 478564, Note_on_c, 0, 75, 0
2, 478794, Note_on_c, 0, 70, 0
2, 480722, Note_on_c, 0, 73, 43
2, 480934, Note_on_c, 0, 73, 0
2, 481007, Control_c, 0, 64, 0
2, 481033, Note_on_c, 0, 72, 50
2, 481044, Note_on_c, 0, 63, 23
2, 481053, Note_on_c, 0, 60, 26
2, 481123, Note_on_c, 0, 56, 28
2, 481287, Note_on_c, 0, 72, 0
2, 481375, Note_on_c, 0, 73, 48
2, 481561, Note_on_c, 0, 73, 0
2, 481677, Note_on_c, 0, 75, 67
2, 481892, Note_on_c, 0, 75, 0
2, 482505, Note_on_c, 0, 60, 0
2, 482755, Note_on_c, 0, 60, 17
2, 482954, Note_on_c, 0, 63, 0
2, 483657, Note_on_c, 0, 60, 0
2, 483758, Note_on_c, 0, 56, 0
2, 484544, Note_on_c, 0, 56, 31
2, 484779, Note_on_c, 0, 56, 0
2, 484877, Note_on_c, 0, 67, 48
2, 485002, Note_on_c, 0, 67, 0
2, 485171, Note_on_c, 0, 68, 67
2, 485339, Note_on_c, 0, 68, 0
2, 485458, Note_on_c, 0, 70, 74
2, 485734, Note_on_c, 0, 70, 0
2, 485769, Note_on_c, 0, 56, 19
2, 486040, Note_on_c, 0, 56, 0
2, 486459, Note_on_c, 0, 70, 71
2, 486708, Note_on_c, 0, 70, 0
2, 486792, Note_on_c, 0, 67, 60
2, 486809, Note_on_c, 0, 58, 39
2, 486853, Note_on_c, 0, 51, 34
2, 487133, Note_on_c, 0, 58, 0
2, 487539, Note_on_c, 0, 67, 0
2, 487668, Note_on_c, 0, 63, 46
2, 488170, Note_on_c, 0, 63, 0
2, 488253, Note_on_c, 0, 51, 0
2, 488402, Note_on_c, 0, 55, 31
2, 490266, Note_on_c, 0, 54, 46
2, 490321, Note_on_c, 0, 55, 0
2, 490476, Note_on_c, 0, 54, 0
2, 490579, Note_on_c, 0, 56, 86
2, 491243, Note_on_c, 0, 54, 35
2, 491412, Note_on_c, 0, 56, 0
2, 491503, Note_on_c, 0, 54, 0
2, 491606, Note_on_c, 0, 55, 38
2, 491854, Control_c, 0, 64, 127
2, 492215, Note_on_c, 0, 56, 60
2, 492218, Note_on_c, 0, 55, 0
2, 492275, Control_c, 0, 64, 0
2, 492515, Note_on_c, 0, 56, 0
2, 492700, Note_on_c, 0, 58, 50
2, 493245, Note_on_c, 0, 49, 47
2, 493677, Control_c, 0, 64, 127
2, 494075, Note_on_c, 0, 58, 0
2, 494101, Note_on_c, 0, 63, 71
2, 494121, Control_c, 0, 64, 0
2, 494434, Control_c, 0, 64, 127
2, 494458, Note_on_c, 0, 63, 0
2, 494509, Note_on_c, 0, 55, 49
2, 494997, Note_on_c, 0, 55, 0
2, 495076, Note_on_c, 0, 58, 60
2, 495241, Note_on_c, 0, 58, 0
2, 495558, Control_c, 0, 64, 127
2, 496002, Note_on_c, 0, 39, 36
2, 496171, Control_c, 0, 64, 0
2, 496201, Note_on_c, 0, 39, 0
2, 496359, Note_on_c, 0, 70, 62
2, 496384, Note_on_c, 0, 51, 23
2, 496514, Note_on_c, 0, 70, 0
2, 496580, Note_on_c, 0, 72, 48
2, 496692, Note_on_c, 0, 70, 46
2, 496794, Note_on_c, 0, 72, 0
2, 496831, Note_on_c, 0, 51, 0
2, 496950, Note_on_c, 0, 69, 36
2, 496980, Note_on_c, 0, 70, 0
2, 497117, Note_on_c, 0, 69, 0
2, 497137, Note_on_c, 0, 51, 28
2, 497262, Note_on_c, 0, 51, 0
2, 497324, Note_on_c, 0, 70, 60
2, 497407, Note_on_c, 0, 49, 0
2, 497461, Control_c, 0, 64, 127
2, 497609, Note_on_c, 0, 70, 0
2, 497643, Note_on_c, 0, 72, 62
2, 497827, Note_on_c, 0, 72, 0
2, 497924, Note_on_c, 0, 73, 58
2, 498170, Note_on_c, 0, 73, 0
2, 498231, Control_c, 0, 64, 0
2, 498285, Note_on_c, 0, 75, 61
2, 498305, Note_on_c, 0, 56, 45
2, 498327, Note_on_c, 0, 48, 53
2, 498736, Control_c, 0, 64, 127
2, 498812, Note_on_c, 0, 63, 56
2, 498924, Note_on_c, 0, 63, 0
2, 499055, Note_on_c, 0, 75, 0
2, 499269, Note_on_c, 0, 60, 30
2, 499389, Note_on_c, 0, 48, 0
2, 499442, Note_on_c, 0, 56, 0
2, 499627, Note_on_c, 0, 60, 0
2, 499732, Note_on_c, 0, 103, 75
2, 499978, Note_on_c, 0, 99, 60
2, 500039, Note_on_c, 0, 103, 0
2, 500193, Note_on_c, 0, 96, 58
2, 500201, Note_on_c, 0, 99, 0
2, 500337, Note_on_c, 0, 96, 0
2, 500369, Note_on_c, 0, 93, 54
2, 500463, Control_c, 0, 64, 0
2, 500478, Note_on_c, 0, 93, 0
2, 500561, Note_on_c, 0, 92, 54
2, 500673, Note_on_c, 0, 92, 0
2, 500687, Note_on_c, 0, 91, 55
2, 500830, Note_on_c, 0, 90, 48
2, 500833, Note_on_c, 0, 91, 0
2, 500919, Note_on_c, 0, 90, 0
2, 500924, Note_on_c, 0, 89, 50
2, 501060, Note_on_c, 0, 89, 0
2, 501082, Note_on_c, 0, 88, 38
2, 501187, Note_on_c, 0, 88, 0
2, 501237, Note_on_c, 0, 65, 26
2, 501242, Note_on_c, 0, 63, 28
2, 501267, Note_on_c, 0, 87, 46
2, 501331, Note_on_c, 0, 57, 25
2, 501374, Note_on_c, 0, 87, 0
2, 501427, Note_on_c, 0, 91, 56
2, 501526, Note_on_c, 0, 87, 33
2, 501573, Note_on_c, 0, 91, 0
2, 501590, Note_on_c, 0, 84, 55
2, 501609, Note_on_c, 0, 87, 0
2, 501650, Note_on_c, 0, 84, 0
2, 501911, Note_on_c, 0, 80, 40
2, 501979, Note_on_c, 0, 80, 0
2, 502053, Note_on_c, 0, 65, 0
2, 502079, Note_on_c, 0, 63, 0
2, 502109, Note_on_c, 0, 78, 45
2, 502209, Note_on_c, 0, 78, 0
2, 502242, Note_on_c, 0, 77, 36
2, 502391, Note_on_c, 0, 77, 0
2, 502514, Note_on_c, 0, 63, 38
2, 502526, Note_on_c, 0, 65, 25
2, 502656, Note_on_c, 0, 65, 0
2, 502735, Note_on_c, 0, 77, 70
2, 502931, Note_on_c, 0, 63, 0
2, 503018, Note_on_c, 0, 77, 0
2, 503095, Note_on_c, 0, 73, 50
2, 503200, Note_on_c, 0, 73, 0
2, 503340, Note_on_c, 0, 57, 0
2, 503501, Note_on_c, 0, 68, 55
2, 503621, Note_on_c, 0, 68, 0
2, 503727, Note_on_c, 0, 67, 49
2, 503871, Note_on_c, 0, 67, 0
2, 503917, Note_on_c, 0, 66, 47
2, 504013, Note_on_c, 0, 66, 0
2, 504044, Note_on_c, 0, 65, 46
2, 504183, Note_on_c, 0, 65, 0
2, 504220, Note_on_c, 0, 64, 46
2, 504289, Note_on_c, 0, 64, 0
2, 504356, Note_on_c, 0, 63, 32
2, 504478, Note_on_c, 0, 63, 0
2, 504507, Note_on_c, 0, 62, 51
2, 504715, Note_on_c, 0, 61, 54
2, 504731, Note_on_c, 0, 62, 0
2, 504792, Note_on_c, 0, 56, 28
2, 504809, Note_on_c, 0, 46, 26
2, 505697, Note_on_c, 0, 61, 0
2, 505751, Note_on_c, 0, 63, 47
2, 505825, Note_on_c, 0, 61, 49
2, 505971, Note_on_c, 0, 56, 0
2, 506024, Note_on_c, 0, 60, 40
2, 506031, Note_on_c, 0, 63, 0
2, 506136, Note_on_c, 0, 61, 0
2, 506175, Note_on_c, 0, 46, 0
2, 506419, Control_c, 0, 64, 127
2, 506540, Note_on_c, 0, 61, 49
2, 506675, Note_on_c, 0, 60, 0
2, 506752, Note_on_c, 0, 61, 0
2, 506796, Control_c, 0, 64, 0
2, 506885, Note_on_c, 0, 51, 29
2, 506890, Note_on_c, 0, 60, 22
2, 506904, Note_on_c, 0, 39, 31
2, 507526, Note_on_c, 0, 46, 23
2, 507534, Control_c, 0, 64, 127
2, 507663, Control_c, 0, 64, 0
2, 507860, Note_on_c, 0, 58, 46
2, 507868, Note_on_c, 0, 46, 0
2, 507944, Control_c, 0, 64, 127
2, 508411, Note_on_c, 0, 46, 19
2, 508786, Note_on_c, 0, 60, 0
2, 508804, Note_on_c, 0, 56, 44
2, 509066, Note_on_c, 0, 46, 0
2, 509146, Note_on_c, 0, 51, 0
2, 509335, Note_on_c, 0, 55, 30
2, 509468, Note_on_c, 0, 56, 0
2, 509510, Note_on_c, 0, 58, 0
2, 509544, Note_on_c, 0, 39, 0
2, 509720, Control_c, 0, 64, 0
2, 509770, Note_on_c, 0, 55, 0
2, 509788, Note_on_c, 0, 58, 69
2, 509820, Note_on_c, 0, 55, 55
2, 509861, Note_on_c, 0, 39, 28
2, 510733, Note_on_c, 0, 55, 0
2, 510917, Control_c, 0, 64, 127
2, 511141, Note_on_c, 0, 58, 0
2, 511363, Note_on_c, 0, 39, 0
2, 511608, Control_c, 0, 64, 0
2, 511743, Note_on_c, 0, 58, 46
2, 511777, Note_on_c, 0, 55, 35
2, 511806, Note_on_c, 0, 44, 18
2, 511887, Control_c, 0, 64, 127
2, 512003, Note_on_c, 0, 44, 0
2, 512218, Note_on_c, 0, 55, 0
2, 512525, Note_on_c, 0, 58, 0
2, 514465, Note_on_c, 0, 56, 47
2, 514492, Note_on_c, 0, 32, 36
2, 515401, Control_c, 0, 64, 127
2, 515808, Note_on_c, 0, 51, 27
2, 517418, Note_on_c, 0, 60, 26
2, 517466, Note_on_c, 0, 56, 23
2, 518334, Note_on_c, 0, 60, 0
2, 518752, Note_on_c, 0, 56, 0
2, 519620, Note_on_c, 0, 75, 84
2, 519767, Note_on_c, 0, 32, 0
2, 519839, Note_on_c, 0, 51, 0
2, 519937, Note_on_c, 0, 56, 0
2, 519986, Note_on_c, 0, 75, 0
2, 520227, Note_on_c, 0, 76, 94
2, 520803, Note_on_c, 0, 76, 0
2, 520985, Note_on_c, 0, 77, 96
2, 521011, Control_c, 0, 64, 0
2, 521022, Note_on_c, 0, 51, 64
2, 521547, Control_c, 0, 64, 127
2, 522084, Note_on_c, 0, 58, 38
2, 523256, Note_on_c, 0, 77, 0
2, 523317, Note_on_c, 0, 75, 64
2, 524014, Note_on_c, 0, 73, 49
2, 524178, Note_on_c, 0, 75, 0
2, 524244, Note_on_c, 0, 73, 0
2, 524336, Note_on_c, 0, 51, 0
2, 524769, Note_on_c, 0, 72, 54
2, 524791, Note_on_c, 0, 51, 39
2, 524807, Control_c, 0, 64, 0
2, 524897, Note_on_c, 0, 58, 0
2, 525067, Control_c, 0, 64, 127
2, 525416, Note_on_c, 0, 72, 0
2, 525503, Note_on_c, 0, 70, 60
2, 526259, Note_on_c, 0, 68, 54
2, 527175, Note_on_c, 0, 67, 55
2, 527302, Note_on_c, 0, 68, 0
2, 527343, Note_on_c, 0, 70, 0
2, 528095, Note_on_c, 0, 73, 64
2, 528235, Note_on_c, 0, 67, 0
2, 528837, Note_on_c, 0, 70, 53
2, 529431, Note_on_c, 0, 51, 0
2, 529466, Note_on_c, 0, 73, 0
2, 529540, Note_on_c, 0, 67, 49
2, 529779, Note_on_c, 0, 70, 0
2, 530298, Note_on_c, 0, 67, 0
2, 530469, Note_on_c, 0, 68, 39
2, 530508, Note_on_c, 0, 44, 26
2, 530524, Control_c, 0, 64, 0
2, 531209, Control_c, 0, 64, 127
2, 531440, Note_on_c, 0, 51, 15
2, 532342, Note_on_c, 0, 63, 30
2, 532360, Note_on_c, 0, 60, 16
2, 532375, Note_on_c, 0, 44, 0
2, 532383, Note_on_c, 0, 51, 0
2, 532421, Note_on_c, 0, 56, 27
2, 533144, Note_on_c, 0, 56, 0
2, 533196, Note_on_c, 0, 58, 34
2, 533242, Note_on_c, 0, 60, 0
2, 534153, Note_on_c, 0, 60, 26
2, 534430, Note_on_c, 0, 63, 0
2, 534931, Note_on_c, 0, 58, 0
2, 535428, Note_on_c, 0, 68, 0
2, 536519, Note_on_c, 0, 75, 84
2, 536716, Note_on_c, 0, 60, 0
2, 536973, Note_on_c, 0, 75, 0
2, 537179, Note_on_c, 0, 76, 83
2, 537511, Note_on_c, 0, 76, 0
2, 538046, Note_on_c, 0, 77, 77
2, 538097, Note_on_c, 0, 51, 42
2, 538140, Control_c, 0, 64, 0
2, 538753, Control_c, 0, 64, 127
2, 539214, Note_on_c, 0, 57, 34
2, 539325, Control_c, 0, 64, 0
2, 539417, Control_c, 0, 64, 127
2, 539976, Note_on_c, 0, 57, 0
2, 540074, Note_on_c, 0, 67, 33
2, 540099, Control_c, 0, 64, 0
2, 540101, Note_on_c, 0, 58, 23
2, 540103, Note_on_c, 0, 70, 35
2, 540394, Control_c, 0, 64, 127
2, 541459, Note_on_c, 0, 77, 0
2, 541638, Note_on_c, 0, 75, 71
2, 541768, Note_on_c, 0, 70, 0
2, 542212, Note_on_c, 0, 67, 0
2, 542267, Note_on_c, 0, 75, 0
2, 542341, Note_on_c, 0, 73, 63
2, 542383, Note_on_c, 0, 75, 34
2, 542550, Note_on_c, 0, 75, 0
2, 542583, Note_on_c, 0, 73, 0
2, 542799, Note_on_c, 0, 51, 0
2, 543295, Note_on_c, 0, 58, 0
2, 543338, Note_on_c, 0, 72, 55
2, 543354, Note_on_c, 0, 64, 57
2, 543373, Note_on_c, 0, 61, 42
2, 543393, Note_on_c, 0, 51, 31
2, 543402, Control_c, 0, 64, 0
2, 543919, Control_c, 0, 64, 127
2, 544146, Note_on_c, 0, 72, 0
2, 544256, Note_on_c, 0, 70, 60
2, 545038, Note_on_c, 0, 70, 0
2, 545058, Note_on_c, 0, 68, 64
2, 545566, Note_on_c, 0, 68, 0
2, 545838, Note_on_c, 0, 67, 63
2, 546113, Note_on_c, 0, 61, 0
2, 546543, Note_on_c, 0, 67, 0
2, 546606, Note_on_c, 0, 73, 56
2, 546685, Note_on_c, 0, 64, 0
2, 546950, Note_on_c, 0, 51, 0
2, 547095, Note_on_c, 0, 73, 0
2, 547156, Note_on_c, 0, 67, 57
2, 547711, Note_on_c, 0, 67, 0
2, 547826, Note_on_c, 0, 68, 56
2, 547838, Note_on_c, 0, 44, 33
2, 547918, Control_c, 0, 64, 0
2, 548551, Note_on_c, 0, 51, 28
2, 548620, Control_c, 0, 64, 127
2, 549169, Note_on_c, 0, 44, 0
2, 549270, Note_on_c, 0, 51, 0
2, 549331, Note_on_c, 0, 56, 28
2, 549888, Note_on_c, 0, 56, 0
2, 549936, Note_on_c, 0, 58, 43
2, 550709, Note_on_c, 0, 63, 33
2, 551478, Note_on_c, 0, 60, 36
2, 551509, Note_on_c, 0, 68, 0
2, 551772, Note_on_c, 0, 63, 0
2, 551932, Note_on_c, 0, 60, 0
2, 552346, Note_on_c, 0, 73, 63
2, 552370, Note_on_c, 0, 51, 39
2, 552374, Note_on_c, 0, 58, 0
2, 552383, Control_c, 0, 64, 0
2, 552733, Control_c, 0, 64, 127
2, 553224, Note_on_c, 0, 72, 59
2, 553257, Note_on_c, 0, 73, 0
2, 553783, Note_on_c, 0, 72, 0
2, 553850, Note_on_c, 0, 73, 54
2, 554144, Note_on_c, 0, 73, 0
2, 554407, Note_on_c, 0, 77, 75
2, 554829, Note_on_c, 0, 77, 0
2, 554926, Note_on_c, 0, 75, 71
2, 555107, Note_on_c, 0, 51, 0
2, 555353, Note_on_c, 0, 75, 0
2, 555465, Note_on_c, 0, 73, 57
2, 555677, Note_on_c, 0, 73, 0
2, 556050, Note_on_c, 0, 72, 44
2, 556061, Note_on_c, 0, 44, 33
2, 556091, Control_c, 0, 64, 0
2, 556534, Control_c, 0, 64, 127
2, 556693, Note_on_c, 0, 51, 29
2, 557401, Note_on_c, 0, 60, 27
2, 558139, Note_on_c, 0, 56, 39
2, 558203, Note_on_c, 0, 51, 0
2, 558216, Note_on_c, 0, 44, 0
2, 558877, Note_on_c, 0, 63, 54
2, 558895, Note_on_c, 0, 72, 0
2, 559171, Note_on_c, 0, 60, 0
2, 559201, Note_on_c, 0, 56, 0
2, 559502, Note_on_c, 0, 72, 59
2, 559611, Note_on_c, 0, 63, 0
2, 559754, Note_on_c, 0, 72, 0
2, 560319, Note_on_c, 0, 70, 73
2, 560343, Note_on_c, 0, 64, 76
2, 560358, Note_on_c, 0, 51, 55
2, 560360, Note_on_c, 0, 61, 73
2, 560369, Control_c, 0, 64, 0
2, 560866, Control_c, 0, 64, 127
2, 561096, Note_on_c, 0, 70, 0
2, 561160, Note_on_c, 0, 69, 62
2, 561747, Note_on_c, 0, 69, 0
2, 561898, Note_on_c, 0, 70, 65
2, 562168, Note_on_c, 0, 70, 0
2, 562557, Note_on_c, 0, 61, 0
2, 562678, Note_on_c, 0, 73, 57
2, 563009, Note_on_c, 0, 73, 0
2, 563394, Note_on_c, 0, 72, 53
2, 563576, Note_on_c, 0, 51, 0
2, 563968, Note_on_c, 0, 72, 0
2, 564132, Note_on_c, 0, 70, 58
2, 564376, Note_on_c, 0, 64, 0
2, 564435, Note_on_c, 0, 70, 0
2, 565015, Note_on_c, 0, 60, 32
2, 565031, Note_on_c, 0, 68, 39
2, 565039, Control_c, 0, 64, 0
2, 565042, Note_on_c, 0, 44, 29
2, 565070, Note_on_c, 0, 56, 21
2, 565629, Control_c, 0, 64, 127
2, 565929, Note_on_c, 0, 51, 35
2, 566053, Note_on_c, 0, 56, 0
2, 566273, Note_on_c, 0, 60, 0
2, 567085, Note_on_c, 0, 56, 34
2, 567107, Note_on_c, 0, 63, 42
2, 567133, Note_on_c, 0, 60, 13
2, 567272, Note_on_c, 0, 51, 0
2, 567593, Note_on_c, 0, 44, 0
2, 567661, Note_on_c, 0, 56, 0
2, 568038, Note_on_c, 0, 58, 36
2, 568121, Note_on_c, 0, 60, 0
2, 568428, Note_on_c, 0, 58, 0
2, 568851, Note_on_c, 0, 63, 0
2, 569031, Note_on_c, 0, 60, 28
2, 569412, Note_on_c, 0, 68, 0
2, 569526, Note_on_c, 0, 60, 0
2, 571580, Note_on_c, 0, 58, 71
2, 571607, Note_on_c, 0, 39, 42
2, 571633, Note_on_c, 0, 27, 40
2, 571716, Control_c, 0, 64, 0
2, 572397, Control_c, 0, 64, 127
2, 572625, Note_on_c, 0, 58, 0
2, 572627, Note_on_c, 0, 57, 47
2, 573515, Note_on_c, 0, 57, 0
2, 573582, Note_on_c, 0, 58, 62
2, 574465, Note_on_c, 0, 58, 0
2, 574520, Note_on_c, 0, 61, 68
2, 575486, Note_on_c, 0, 61, 0
2, 575508, Note_on_c, 0, 60, 54
2, 575665, Note_on_c, 0, 27, 0
2, 575851, Note_on_c, 0, 39, 0
2, 576585, Note_on_c, 0, 60, 0
2, 576607, Note_on_c, 0, 58, 50
2, 577350, Note_on_c, 0, 58, 0
2, 578325, Note_on_c, 0, 56, 47
2, 578335, Control_c, 0, 64, 0
2, 578347, Note_on_c, 0, 44, 26
2, 578359, Note_on_c, 0, 32, 31
2, 578905, Control_c, 0, 64, 127
2, 579527, Note_on_c, 0, 44, 0
2, 579560, Note_on_c, 0, 32, 0
2, 579694, Note_on_c, 0, 56, 0
2, 580861, Note_on_c, 0, 56, 37
2, 580870, Note_on_c, 0, 32, 25
2, 580876, Note_on_c, 0, 51, 28
2, 580881, Control_c, 0, 64, 0
2, 580894, Note_on_c, 0, 48, 24
2, 580916, Note_on_c, 0, 44, 18
2, 581214, Control_c, 0, 64, 127
2, 581987, Note_on_c, 0, 32, 0
2, 582035, Note_on_c, 0, 48, 0
2, 582061, Note_on_c, 0, 56, 0
2, 582079, Note_on_c, 0, 44, 0
2, 582081, Note_on_c, 0, 51, 0
2, 583941, Note_on_c, 0, 56, 38
2, 583943, Note_on_c, 0, 32, 30
2, 583969, Note_on_c, 0, 44, 23
2, 583971, Note_on_c, 0, 51, 36
2, 583980, Control_c, 0, 64, 0
2, 583980, Note_on_c, 0, 48, 24
2, 584789, Control_c, 0, 64, 127
2, 588777, Control_c, 0, 64, 0
2, 589456, Control_c, 0, 64, 127
2, 590966, Note_on_c, 0, 48, 0
2, 590986, Note_on_c, 0, 32, 0
2, 591038, Note_on_c, 0, 44, 0
2, 591043, Note_on_c, 0, 51, 0
2, 591101, Note_on_c, 0, 56, 0
2, 592297, Control_c, 0, 64, 0
2, 592297, End_track
3, 0, Start_track
3, 0, Title_t, "Bowed Double Bass"
3, 0, Program_c, 2, 43
3, 0, Control_c, 2, 7, 76
3, 514845, Note_on_c, 2, 44, 33
3, 521110, Note_on_c, 2, 39, 45
3, 521224, Note_on_c, 2, 44, 0
3, 531157, Note_on_c, 2, 32, 35
3, 531172, Note_on_c, 2, 39, 0
3, 535045, Note_on_c, 2, 44, 30
3, 535536, Note_on_c, 2, 32, 0
3, 538079, Note_on_c, 2, 39, 46
3, 538106, Note_on_c, 2, 44, 0
3, 541656, Note_on_c, 2, 46, 36
3, 542180, Note_on_c, 2, 39, 0
3, 543672, Note_on_c, 2, 39, 28
3, 543823, Note_on_c, 2, 46, 0
3, 547980, Note_on_c, 2, 32, 48
3, 548006, Note_on_c, 2, 39, 0
3, 550779, Note_on_c, 2, 44, 29
3, 551029, Note_on_c, 2, 32, 0
3, 552780, Note_on_c, 2, 39, 45
3, 552788, Note_on_c, 2, 44, 0
3, 556126, Note_on_c, 2, 32, 44
3, 556172, Note_on_c, 2, 39, 0
3, 560286, Note_on_c, 2, 39, 58
3, 560370, Note_on_c, 2, 32, 0
3, 564936, Note_on_c, 2, 32, 49
3, 564982, Note_on_c, 2, 39, 0
3, 571648, Note_on_c, 2, 39, 46
3, 571736, Note_on_c, 2, 32, 0
3, 578351, Note_on_c, 2, 32, 48
3, 578480, Note_on_c, 2, 39, 0
3, 580704, Note_on_c, 2, 32, 0
3, 581082, Note_on_c, 2, 32, 62
3, 583453, Note_on_c, 2, 32, 0
3, 583722, Note_on_c, 2, 32, 61
3, 594344, Note_on_c, 2, 32, 0
3, 594344, End_track
4, 0, Start_track
4, 0, Title_t, "Acoustic Bass"
4, 0, Control_c, 1, 0, 0
4, 0, Control_c, 1, 7, 91
4, 1, Program_c, 1, 32
4, 181538, Note_on_c, 1, 44, 54
4, 181603, Control_c, 1, 64, 127
4, 183993, Note_on_c, 1, 44, 0
4, 183996, Note_on_c, 1, 38, 46
4, 184280, Note_on_c, 1, 38, 0
4, 184305, Control_c, 1, 64, 0
4, 184344, Note_on_c, 1, 37, 60
4, 185406, Control_c, 1, 64, 127
4, 186224, Control_c, 1, 64, 0
4, 186602, Note_on_c, 1, 49, 61
4, 186815, Note_on_c, 1, 49, 0
4, 186887, Note_on_c, 1, 51, 72
4, 187221, Note_on_c, 1, 48, 91
4, 187254, Note_on_c, 1, 51, 0
4, 187322, Note_on_c, 1, 37, 0
4, 188189, Control_c, 1, 64, 127
4, 188504, Control_c, 1, 64, 0
4, 188802, Note_on_c, 1, 43, 33
4, 188906, Note_on_c, 1, 43, 0
4, 189181, Note_on_c, 1, 36, 62
4, 190151, Control_c, 1, 64, 127
4, 191008, Note_on_c, 1, 48, 0
4, 191016, Control_c, 1, 64, 0
4, 191052, Note_on_c, 1, 43, 73
4, 191328, Note_on_c, 1, 36, 0
4, 192071, Control_c, 1, 64, 127
4, 192228, Control_c, 1, 64, 0
4, 192407, Note_on_c, 1, 36, 44
4, 192485, Note_on_c, 1, 36, 0
4, 192690, Note_on_c, 1, 36, 44
4, 192971, Note_on_c, 1, 36, 0
4, 193017, Note_on_c, 1, 32, 60
4, 193060, Note_on_c, 1, 43, 0
4, 193959, Control_c, 1, 64, 127
4, 194116, Control_c, 1, 64, 0
4, 194332, Note_on_c, 1, 44, 51
4, 194409, Note_on_c, 1, 32, 0
4, 194522, Note_on_c, 1, 44, 0
4, 194599, Note_on_c, 1, 32, 54
4, 194807, Note_on_c, 1, 32, 0
4, 194876, Note_on_c, 1, 43, 74
4, 195778, Note_on_c, 1, 43, 0
4, 195817, Note_on_c, 1, 41, 68
4, 196833, Control_c, 1, 64, 127
4, 197180, Control_c, 1, 64, 0
4, 197366, Note_on_c, 1, 38, 43
4, 197576, Note_on_c, 1, 38, 0
4, 197667, Note_on_c, 1, 41, 0
4, 197717, Note_on_c, 1, 40, 68
4, 198776, Note_on_c, 1, 39, 64
4, 198792, Note_on_c, 1, 40, 0
4, 198876, Control_c, 1, 64, 127
4, 200606, Control_c, 1, 64, 0
4, 201068, Note_on_c, 1, 29, 24
4, 201095, Note_on_c, 1, 39, 0
4, 201214, Note_on_c, 1, 29, 0
4, 201299, Note_on_c, 1, 30, 45
4, 201680, Note_on_c, 1, 30, 0
4, 201722, Note_on_c, 1, 31, 66
4, 202647, Control_c, 1, 64, 127
4, 204471, Control_c, 1, 64, 0
4, 204485, Note_on_c, 1, 37, 47
4, 204488, Note_on_c, 1, 31, 0
4, 205501, Note_on_c, 1, 49, 60
4, 205716, Note_on_c, 1, 49, 0
4, 206089, Note_on_c, 1, 51, 56
4, 206470, Note_on_c, 1, 51, 0
4, 206476, Note_on_c, 1, 49, 67
4, 207056, Note_on_c, 1, 37, 0
4, 207456, Note_on_c, 1, 37, 52
4, 208305, Note_on_c, 1, 37, 0
4, 208399, Note_on_c, 1, 37, 75
4, 209390, Control_c, 1, 64, 127
4, 210183, Note_on_c, 1, 37, 0
4, 210192, Control_c, 1, 64, 0
4, 210283, Note_on_c, 1, 49, 0
4, 210285, Note_on_c, 1, 36, 70
4, 211293, Note_on_c, 1, 48, 92
4, 211516, Note_on_c, 1, 48, 0
4, 211875, Note_on_c, 1, 49, 71
4, 212187, Note_on_c, 1, 49, 0
4, 212243, Note_on_c, 1, 48, 64
4, 212320, Note_on_c, 1, 36, 0
4, 212828, Note_on_c, 1, 40, 51
4, 213004, Note_on_c, 1, 48, 0
4, 213179, Note_on_c, 1, 40, 0
4, 213205, Note_on_c, 1, 41, 55
4, 214059, Note_on_c, 1, 41, 0
4, 214081, Note_on_c, 1, 29, 57
4, 215049, Control_c, 1, 64, 127
4, 215127, Control_c, 1, 64, 0
4, 215359, Note_on_c, 1, 36, 53
4, 215467, Note_on_c, 1, 29, 0
4, 215516, Note_on_c, 1, 36, 0
4, 215643, Note_on_c, 1, 35, 60
4, 215831, Note_on_c, 1, 35, 0
4, 215994, Note_on_c, 1, 34, 69
4, 216559, Control_c, 1, 64, 127
4, 217344, Control_c, 1, 64, 0
4, 217579, Control_c, 1, 64, 127
4, 217863, Control_c, 1, 64, 0
4, 218021, Control_c, 1, 64, 127
4, 218838, Control_c, 1, 64, 0
4, 218912, Note_on_c, 1, 51, 64
4, 218992, Note_on_c, 1, 34, 0
4, 219869, Note_on_c, 1, 39, 58
4, 219922, Note_on_c, 1, 51, 0
4, 220880, Control_c, 1, 64, 127
4, 221683, Control_c, 1, 64, 0
4, 221775, Note_on_c, 1, 44, 71
4, 221824, Note_on_c, 1, 39, 0
4, 222892, Control_c, 1, 64, 127
4, 222972, Control_c, 1, 64, 0
4, 223064, Control_c, 1, 64, 127
4, 223353, Note_on_c, 1, 32, 42
4, 223364, Control_c, 1, 64, 0
4, 223651, Note_on_c, 1, 32, 0
4, 223762, Note_on_c, 1, 32, 59
4, 224795, Control_c, 1, 64, 127
4, 225071, Note_on_c, 1, 44, 0
4, 225502, Control_c, 1, 64, 0
4, 225606, Note_on_c, 1, 44, 73
4, 226158, Note_on_c, 1, 44, 0
4, 226214, Note_on_c, 1, 46, 65
4, 226545, Note_on_c, 1, 46, 0
4, 226609, Note_on_c, 1, 44, 50
4, 227147, Note_on_c, 1, 44, 0
4, 227191, Note_on_c, 1, 39, 48
4, 227541, Note_on_c, 1, 39, 0
4, 227556, Note_on_c, 1, 44, 79
4, 228613, Control_c, 1, 64, 127
4, 228645, Control_c, 1, 64, 0
4, 229038, Note_on_c, 1, 39, 49
4, 229148, Note_on_c, 1, 32, 0
4, 229400, Note_on_c, 1, 39, 0
4, 229432, Note_on_c, 1, 32, 60
4, 230326, Note_on_c, 1, 44, 0
4, 230377, Note_on_c, 1, 32, 0
4, 230382, Note_on_c, 1, 37, 69
4, 231348, Note_on_c, 1, 49, 68
4, 233280, Note_on_c, 1, 49, 0
4, 233316, Note_on_c, 1, 48, 71
4, 233592, Note_on_c, 1, 37, 0
4, 234333, Note_on_c, 1, 36, 66
4, 234335, Note_on_c, 1, 48, 0
4, 236238, Control_c, 1, 64, 127
4, 237951, Control_c, 1, 64, 0
4, 238070, Note_on_c, 1, 43, 74
4, 238144, Note_on_c, 1, 36, 0
4, 238725, Note_on_c, 1, 36, 36
4, 238986, Note_on_c, 1, 36, 0
4, 239045, Note_on_c, 1, 43, 0
4, 239080, Note_on_c, 1, 44, 64
4, 240643, Note_on_c, 1, 44, 0
4, 240660, Note_on_c, 1, 43, 70
4, 242026, Note_on_c, 1, 43, 0
4, 242046, Note_on_c, 1, 41, 60
4, 244453, Note_on_c, 1, 40, 47
4, 244467, Note_on_c, 1, 41, 0
4, 244839, Note_on_c, 1, 40, 0
4, 244845, Note_on_c, 1, 39, 53
4, 247491, Control_c, 1, 64, 127
4, 247555, Control_c, 1, 64, 0
4, 247655, Note_on_c, 1, 39, 0
4, 247691, Note_on_c, 1, 31, 80
4, 248779, Control_c, 1, 64, 127
4, 250557, Control_c, 1, 64, 0
4, 250576, Note_on_c, 1, 37, 81
4, 250647, Note_on_c, 1, 31, 0
4, 251718, Control_c, 1, 64, 127
4, 251875, Control_c, 1, 64, 0
4, 252172, Note_on_c, 1, 53, 60
4, 252464, Note_on_c, 1, 53, 0
4, 252569, Note_on_c, 1, 51, 53
4, 253475, Note_on_c, 1, 51, 0
4, 253562, Note_on_c, 1, 49, 52
4, 254184, Note_on_c, 1, 37, 0
4, 254501, Note_on_c, 1, 37, 58
4, 255285, Note_on_c, 1, 37, 0
4, 255392, Note_on_c, 1, 37, 67
4, 256282, Note_on_c, 1, 37, 0
4, 256323, Note_on_c, 1, 36, 65
4, 256362, Note_on_c, 1, 49, 0
4, 258004, Control_c, 1, 64, 127
4, 258162, Control_c, 1, 64, 0
4, 258288, Control_c, 1, 64, 127
4, 259221, Note_on_c, 1, 41, 81
4, 259261, Control_c, 1, 64, 0
4, 259307, Note_on_c, 1, 36, 0
4, 260205, Note_on_c, 1, 29, 75
4, 260223, Note_on_c, 1, 41, 0
4, 261118, Control_c, 1, 64, 127
4, 261543, Control_c, 1, 64, 0
4, 262049, Note_on_c, 1, 34, 56
4, 262089, Note_on_c, 1, 29, 0
4, 263083, Control_c, 1, 64, 127
4, 264941, Note_on_c, 1, 39, 64
4, 264956, Note_on_c, 1, 34, 0
4, 265046, Control_c, 1, 64, 0
4, 265193, Note_on_c, 1, 39, 0
4, 265593, Note_on_c, 1, 41, 56
4, 265900, Note_on_c, 1, 41, 0
4, 265962, Note_on_c, 1, 39, 49
4, 266067, Control_c, 1, 64, 127
4, 267782, Control_c, 1, 64, 0
4, 267882, Note_on_c, 1, 32, 61
4, 267892, Note_on_c, 1, 39, 0
4, 268789, Control_c, 1, 64, 127
4, 269783, Note_on_c, 1, 44, 83
4, 269844, Control_c, 1, 64, 0
4, 270799, Control_c, 1, 64, 127
4, 271109, Note_on_c, 1, 32, 0
4, 272514, Control_c, 1, 64, 0
4, 272988, Note_on_c, 1, 39, 38
4, 273141, Note_on_c, 1, 39, 0
4, 273213, Note_on_c, 1, 44, 0
4, 273298, Note_on_c, 1, 40, 54
4, 273574, Note_on_c, 1, 40, 0
4, 273612, Note_on_c, 1, 41, 63
4, 275137, Note_on_c, 1, 36, 49
4, 275260, Note_on_c, 1, 36, 0
4, 275525, Note_on_c, 1, 29, 51
4, 276442, Control_c, 1, 64, 127
4, 277209, Note_on_c, 1, 41, 0
4, 277380, Note_on_c, 1, 41, 66
4, 278280, Control_c, 1, 64, 0
4, 278344, Control_c, 1, 64, 127
4, 278839, Note_on_c, 1, 41, 0
4, 279006, Note_on_c, 1, 41, 46
4, 279079, Note_on_c, 1, 29, 0
4, 279396, Control_c, 1, 64, 0
4, 279407, Note_on_c, 1, 40, 70
4, 279456, Note_on_c, 1, 41, 0
4, 282247, Note_on_c, 1, 41, 66
4, 282261, Note_on_c, 1, 40, 0
4, 284392, Note_on_c, 1, 41, 0
4, 284509, Note_on_c, 1, 41, 53
4, 284663, Note_on_c, 1, 41, 0
4, 284770, Note_on_c, 1, 42, 62
4, 285097, Note_on_c, 1, 42, 0
4, 285124, Note_on_c, 1, 43, 82
4, 286085, Note_on_c, 1, 31, 74
4, 286098, Note_on_c, 1, 43, 0
4, 288088, Note_on_c, 1, 32, 80
4, 288100, Note_on_c, 1, 31, 0
4, 289369, Note_on_c, 1, 32, 0
4, 289456, Note_on_c, 1, 32, 64
4, 289706, Note_on_c, 1, 32, 0
4, 289773, Note_on_c, 1, 32, 76
4, 289993, Note_on_c, 1, 32, 0
4, 290063, Note_on_c, 1, 32, 70
4, 290888, Note_on_c, 1, 34, 77
4, 290974, Note_on_c, 1, 32, 0
4, 292428, Note_on_c, 1, 33, 59
4, 292429, Note_on_c, 1, 34, 0
4, 292823, Note_on_c, 1, 33, 0
4, 292828, Note_on_c, 1, 34, 82
4, 293709, Note_on_c, 1, 34, 0
4, 293789, Note_on_c, 1, 35, 85
4, 295307, Note_on_c, 1, 34, 58
4, 295343, Note_on_c, 1, 35, 0
4, 295713, Note_on_c, 1, 35, 74
4, 295791, Note_on_c, 1, 34, 0
4, 296622, Note_on_c, 1, 35, 0
4, 296636, Note_on_c, 1, 36, 89
4, 299454, Note_on_c, 1, 36, 0
4, 299507, Note_on_c, 1, 32, 59
4, 301411, Note_on_c, 1, 44, 77
4, 301533, Note_on_c, 1, 32, 0
4, 302055, Note_on_c, 1, 32, 51
4, 302339, Note_on_c, 1, 32, 0
4, 302347, Note_on_c, 1, 44, 0
4, 302416, Note_on_c, 1, 46, 83
4, 303415, Note_on_c, 1, 34, 60
4, 303564, Note_on_c, 1, 46, 0
4, 304244, Note_on_c, 1, 34, 0
4, 304366, Note_on_c, 1, 34, 70
4, 306250, Note_on_c, 1, 46, 80
4, 306502, Note_on_c, 1, 46, 0
4, 306830, Note_on_c, 1, 48, 85
4, 307131, Note_on_c, 1, 48, 0
4, 307220, Note_on_c, 1, 46, 62
4, 307371, Note_on_c, 1, 34, 0
4, 307851, Note_on_c, 1, 34, 46
4, 308102, Note_on_c, 1, 46, 0
4, 308109, Note_on_c, 1, 34, 0
4, 308186, Note_on_c, 1, 39, 71
4, 311057, Note_on_c, 1, 46, 83
4, 312972, Note_on_c, 1, 34, 51
4, 313128, Note_on_c, 1, 39, 0
4, 313285, Note_on_c, 1, 34, 0
4, 313492, Note_on_c, 1, 34, 69
4, 313527, Note_on_c, 1, 46, 0
4, 313784, Note_on_c, 1, 34, 0
4, 313902, Note_on_c, 1, 34, 61
4, 315426, Note_on_c, 1, 46, 84
4, 315777, Note_on_c, 1, 46, 0
4, 315847, Note_on_c, 1, 46, 87
4, 316680, Note_on_c, 1, 46, 0
4, 316815, Note_on_c, 1, 46, 83
4, 317865, Note_on_c, 1, 34, 0
4, 318326, Note_on_c, 1, 34, 59
4, 318648, Note_on_c, 1, 34, 0
4, 318731, Note_on_c, 1, 34, 69
4, 319048, Note_on_c, 1, 34, 0
4, 319211, Note_on_c, 1, 34, 69
4, 319570, Note_on_c, 1, 46, 0
4, 319645, Note_on_c, 1, 34, 0
4, 319670, Note_on_c, 1, 39, 62
4, 323543, Note_on_c, 1, 51, 73
4, 324338, Note_on_c, 1, 51, 0
4, 324468, Note_on_c, 1, 51, 67
4, 325359, Note_on_c, 1, 51, 0
4, 325415, Note_on_c, 1, 46, 80
4, 325477, Note_on_c, 1, 39, 0
4, 327938, Note_on_c, 1, 34, 58
4, 328279, Note_on_c, 1, 34, 0
4, 328369, Note_on_c, 1, 34, 62
4, 328553, Note_on_c, 1, 46, 0
4, 329821, Note_on_c, 1, 46, 69
4, 330154, Note_on_c, 1, 46, 0
4, 330254, Note_on_c, 1, 46, 62
4, 330458, Note_on_c, 1, 34, 0
4, 330748, Note_on_c, 1, 34, 49
4, 331079, Note_on_c, 1, 46, 0
4, 331157, Note_on_c, 1, 34, 0
4, 331200, Note_on_c, 1, 39, 76
4, 333931, Note_on_c, 1, 39, 0
4, 334122, Note_on_c, 1, 39, 65
4, 336648, Note_on_c, 1, 39, 0
4, 336650, Note_on_c, 1, 38, 50
4, 336959, Note_on_c, 1, 38, 0
4, 336990, Note_on_c, 1, 39, 79
4, 339488, Note_on_c, 1, 38, 48
4, 339548, Note_on_c, 1, 39, 0
4, 339841, Note_on_c, 1, 39, 71
4, 339877, Note_on_c, 1, 38, 0
4, 340877, Note_on_c, 1, 46, 84
4, 342077, Note_on_c, 1, 39, 0
4, 342332, Note_on_c, 1, 46, 0
4, 342353, Note_on_c, 1, 43, 44
4, 342682, Note_on_c, 1, 43, 0
4, 342732, Note_on_c, 1, 44, 62
4, 344891, Note_on_c, 1, 39, 45
4, 345028, Note_on_c, 1, 39, 0
4, 345219, Note_on_c, 1, 38, 51
4, 345371, Note_on_c, 1, 38, 0
4, 345516, Note_on_c, 1, 44, 0
4, 345550, Note_on_c, 1, 37, 56
4, 347540, Note_on_c, 1, 49, 80
4, 348504, Note_on_c, 1, 49, 0
4, 348507, Note_on_c, 1, 48, 72
4, 348554, Note_on_c, 1, 37, 0
4, 349464, Note_on_c, 1, 48, 0
4, 349487, Note_on_c, 1, 36, 71
4, 353280, Note_on_c, 1, 31, 72
4, 353348, Note_on_c, 1, 36, 0
4, 354252, Note_on_c, 1, 32, 77
4, 354279, Note_on_c, 1, 31, 0
4, 355193, Note_on_c, 1, 44, 77
4, 356178, Note_on_c, 1, 43, 69
4, 356249, Note_on_c, 1, 32, 0
4, 356310, Note_on_c, 1, 44, 0
4, 356786, Note_on_c, 1, 31, 66
4, 356979, Note_on_c, 1, 43, 0
4, 357122, Note_on_c, 1, 31, 0
4, 357164, Note_on_c, 1, 29, 75
4, 358113, Note_on_c, 1, 41, 74
4, 358185, Note_on_c, 1, 29, 0
4, 358790, Note_on_c, 1, 29, 38
4, 358870, Note_on_c, 1, 29, 0
4, 359054, Note_on_c, 1, 41, 0
4, 359112, Note_on_c, 1, 40, 66
4, 359786, Note_on_c, 1, 28, 64
4, 359839, Note_on_c, 1, 28, 0
4, 359987, Note_on_c, 1, 40, 0
4, 360046, Note_on_c, 1, 39, 69
4, 362895, Note_on_c, 1, 31, 66
4, 363046, Note_on_c, 1, 39, 0
4, 365769, Note_on_c, 1, 31, 0
4, 365809, Note_on_c, 1, 37, 65
4, 366771, Note_on_c, 1, 49, 83
4, 370492, Note_on_c, 1, 49, 0
4, 370593, Note_on_c, 1, 51, 69
4, 370789, Note_on_c, 1, 51, 0
4, 370858, Note_on_c, 1, 37, 0
4, 371141, Note_on_c, 1, 49, 63
4, 371544, Note_on_c, 1, 49, 0
4, 371613, Note_on_c, 1, 48, 59
4, 372557, Note_on_c, 1, 36, 64
4, 374417, Note_on_c, 1, 36, 0
4, 374420, Note_on_c, 1, 41, 64
4, 374593, Note_on_c, 1, 48, 0
4, 375378, Note_on_c, 1, 29, 57
4, 375414, Note_on_c, 1, 41, 0
4, 377300, Note_on_c, 1, 34, 69
4, 377307, Note_on_c, 1, 29, 0
4, 380200, Note_on_c, 1, 39, 64
4, 380297, Note_on_c, 1, 34, 0
4, 382161, Note_on_c, 1, 44, 56
4, 382348, Note_on_c, 1, 39, 0
4, 382719, Note_on_c, 1, 46, 46
4, 382768, Note_on_c, 1, 44, 0
4, 383113, Note_on_c, 1, 44, 46
4, 383140, Note_on_c, 1, 46, 0
4, 383720, Note_on_c, 1, 39, 35
4, 383848, Note_on_c, 1, 44, 0
4, 384071, Note_on_c, 1, 32, 60
4, 384269, Note_on_c, 1, 39, 0
4, 384875, Note_on_c, 1, 32, 0
4, 385006, Note_on_c, 1, 32, 60
4, 388436, Note_on_c, 1, 38, 53
4, 388715, Note_on_c, 1, 38, 0
4, 388828, Note_on_c, 1, 32, 0
4, 388861, Note_on_c, 1, 39, 49
4, 389087, Note_on_c, 1, 39, 0
4, 389360, Note_on_c, 1, 44, 43
4, 389620, Note_on_c, 1, 44, 0
4, 389739, Note_on_c, 1, 44, 44
4, 390566, Note_on_c, 1, 44, 0
4, 390682, Note_on_c, 1, 44, 50
4, 391663, Note_on_c, 1, 32, 62
4, 391685, Note_on_c, 1, 44, 0
4, 394310, Note_on_c, 1, 39, 26
4, 394487, Note_on_c, 1, 39, 0
4, 394581, Note_on_c, 1, 46, 83
4, 394837, Note_on_c, 1, 32, 0
4, 396138, Note_on_c, 1, 34, 55
4, 396486, Note_on_c, 1, 34, 0
4, 396570, Note_on_c, 1, 34, 69
4, 396717, Note_on_c, 1, 46, 0
4, 398451, Note_on_c, 1, 46, 83
4, 399279, Note_on_c, 1, 46, 0
4, 399373, Note_on_c, 1, 46, 80
4, 399632, Note_on_c, 1, 34, 0
4, 399974, Note_on_c, 1, 34, 57
4, 400300, Note_on_c, 1, 46, 0
4, 400334, Note_on_c, 1, 44, 85
4, 400381, Note_on_c, 1, 34, 0
4, 401904, Note_on_c, 1, 32, 57
4, 402221, Note_on_c, 1, 32, 0
4, 402305, Note_on_c, 1, 32, 67
4, 402451, Note_on_c, 1, 44, 0
4, 405148, Note_on_c, 1, 44, 67
4, 405355, Note_on_c, 1, 32, 0
4, 405717, Note_on_c, 1, 32, 53
4, 406056, Note_on_c, 1, 44, 0
4, 406114, Note_on_c, 1, 32, 0
4, 406125, Note_on_c, 1, 39, 83
4, 408584, Note_on_c, 1, 53, 36
4, 408947, Note_on_c, 1, 53, 0
4, 409009, Note_on_c, 1, 51, 48
4, 409694, Note_on_c, 1, 39, 0
4, 409921, Note_on_c, 1, 39, 65
4, 410755, Note_on_c, 1, 39, 0
4, 410854, Note_on_c, 1, 39, 62
4, 411792, Note_on_c, 1, 44, 76
4, 411812, Note_on_c, 1, 51, 0
4, 411911, Note_on_c, 1, 39, 0
4, 412769, Note_on_c, 1, 32, 76
4, 412847, Note_on_c, 1, 44, 0
4, 415724, Note_on_c, 1, 44, 80
4, 416126, Note_on_c, 1, 32, 0
4, 416996, Note_on_c, 1, 33, 50
4, 417154, Note_on_c, 1, 33, 0
4, 417283, Note_on_c, 1, 34, 61
4, 417495, Note_on_c, 1, 34, 0
4, 417612, Note_on_c, 1, 35, 76
4, 417614, Note_on_c, 1, 44, 0
4, 420500, Note_on_c, 1, 44, 81
4, 420615, Note_on_c, 1, 35, 0
4, 423313, Note_on_c, 1, 37, 73
4, 423334, Note_on_c, 1, 44, 0
4, 426178, Note_on_c, 1, 37, 0
4, 426224, Note_on_c, 1, 35, 62
4, 429124, Note_on_c, 1, 40, 54
4, 429128, Note_on_c, 1, 35, 0
4, 429742, Note_on_c, 1, 39, 45
4, 429766, Note_on_c, 1, 40, 0
4, 430031, Note_on_c, 1, 39, 0
4, 430064, Note_on_c, 1, 40, 54
4, 431014, Note_on_c, 1, 40, 0
4, 431020, Note_on_c, 1, 28, 81
4, 433946, Note_on_c, 1, 40, 61
4, 433968, Note_on_c, 1, 28, 0
4, 434554, Note_on_c, 1, 39, 49
4, 434573, Note_on_c, 1, 40, 0
4, 434921, Note_on_c, 1, 40, 83
4, 434953, Note_on_c, 1, 39, 0
4, 437767, Note_on_c, 1, 28, 72
4, 439669, Note_on_c, 1, 40, 0
4, 440267, Note_on_c, 1, 40, 52
4, 440621, Note_on_c, 1, 28, 0
4, 440674, Note_on_c, 1, 42, 83
4, 440676, Note_on_c, 1, 40, 0
4, 443608, Note_on_c, 1, 30, 70
4, 443770, Note_on_c, 1, 42, 0
4, 446034, Note_on_c, 1, 42, 67
4, 446125, Note_on_c, 1, 44, 18
4, 446324, Note_on_c, 1, 44, 0
4, 446387, Note_on_c, 1, 40, 68
4, 446396, Note_on_c, 1, 42, 0
4, 446545, Note_on_c, 1, 30, 0
4, 447011, Note_on_c, 1, 35, 46
4, 447213, Note_on_c, 1, 40, 0
4, 447260, Note_on_c, 1, 35, 0
4, 447359, Note_on_c, 1, 28, 72
4, 450259, Note_on_c, 1, 40, 77
4, 451056, Note_on_c, 1, 40, 0
4, 451191, Note_on_c, 1, 40, 66
4, 451246, Note_on_c, 1, 28, 0
4, 452100, Note_on_c, 1, 40, 0
4, 452136, Note_on_c, 1, 29, 88
4, 456952, Note_on_c, 1, 41, 66
4, 457667, Note_on_c, 1, 29, 0
4, 457930, Note_on_c, 1, 41, 0
4, 457940, Note_on_c, 1, 29, 78
4, 461806, Note_on_c, 1, 41, 84
4, 462705, Note_on_c, 1, 29, 0
4, 463236, Note_on_c, 1, 33, 43
4, 463542, Note_on_c, 1, 33, 0
4, 463630, Note_on_c, 1, 34, 64
4, 463635, Note_on_c, 1, 41, 0
4, 465591, Note_on_c, 1, 40, 60
4, 465671, Note_on_c, 1, 34, 0
4, 466546, Note_on_c, 1, 39, 71
4, 466598, Note_on_c, 1, 40, 0
4, 469428, Note_on_c, 1, 32, 51
4, 469461, Note_on_c, 1, 39, 0
4, 471075, Note_on_c, 1, 39, 21
4, 471189, Note_on_c, 1, 39, 0
4, 471365, Note_on_c, 1, 44, 36
4, 472026, Note_on_c, 1, 51, 56
4, 472138, Note_on_c, 1, 44, 0
4, 472404, Note_on_c, 1, 51, 0
4, 472451, Note_on_c, 1, 49, 37
4, 472873, Note_on_c, 1, 32, 0
4, 473372, Note_on_c, 1, 37, 44
4, 475246, Note_on_c, 1, 37, 0
4, 475293, Note_on_c, 1, 36, 48
4, 475801, Note_on_c, 1, 36, 0
4, 475876, Note_on_c, 1, 35, 36
4, 476164, Note_on_c, 1, 35, 0
4, 476244, Note_on_c, 1, 36, 40
4, 476773, Note_on_c, 1, 49, 0
4, 480023, Note_on_c, 1, 43, 78
4, 480025, Note_on_c, 1, 36, 0
4, 480858, Note_on_c, 1, 43, 0
4, 480975, Note_on_c, 1, 44, 69
4, 482858, Note_on_c, 1, 43, 59
4, 482865, Note_on_c, 1, 44, 0
4, 483490, Note_on_c, 1, 40, 44
4, 483492, Note_on_c, 1, 43, 0
4, 483797, Note_on_c, 1, 40, 0
4, 483829, Note_on_c, 1, 41, 49
4, 484784, Note_on_c, 1, 44, 57
4, 484825, Note_on_c, 1, 41, 0
4, 485804, Note_on_c, 1, 40, 45
4, 485819, Note_on_c, 1, 44, 0
4, 486684, Note_on_c, 1, 40, 0
4, 486719, Note_on_c, 1, 39, 54
4, 489640, Note_on_c, 1, 46, 64
4, 489706, Note_on_c, 1, 39, 0
4, 489801, Note_on_c, 1, 46, 0
4, 490156, Note_on_c, 1, 44, 65
4, 490452, Note_on_c, 1, 44, 0
4, 490546, Note_on_c, 1, 43, 40
4, 492119, Note_on_c, 1, 31, 48
4, 492505, Note_on_c, 1, 31, 0
4, 492522, Note_on_c, 1, 37, 56
4, 492547, Note_on_c, 1, 43, 0
4, 494389, Note_on_c, 1, 49, 30
4, 494530, Note_on_c, 1, 49, 0
4, 494623, Note_on_c, 1, 51, 48
4, 494861, Note_on_c, 1, 51, 0
4, 494949, Note_on_c, 1, 49, 56
4, 495697, Note_on_c, 1, 37, 0
4, 495837, Note_on_c, 1, 37, 43
4, 496119, Note_on_c, 1, 37, 0
4, 496409, Note_on_c, 1, 37, 48
4, 497519, Note_on_c, 1, 49, 0
4, 497651, Note_on_c, 1, 49, 53
4, 497729, Note_on_c, 1, 37, 0
4, 497789, Note_on_c, 1, 49, 0
4, 497928, Note_on_c, 1, 37, 46
4, 498262, Note_on_c, 1, 48, 64
4, 498295, Note_on_c, 1, 37, 0
4, 499191, Note_on_c, 1, 48, 0
4, 499225, Note_on_c, 1, 36, 41
4, 501119, Note_on_c, 1, 36, 0
4, 501133, Note_on_c, 1, 29, 39
4, 502980, Note_on_c, 1, 41, 50
4, 503134, Note_on_c, 1, 29, 0
4, 503601, Note_on_c, 1, 29, 34
4, 503857, Note_on_c, 1, 29, 0
4, 503968, Note_on_c, 1, 34, 72
4, 503970, Note_on_c, 1, 41, 0
4, 506891, Note_on_c, 1, 39, 63
4, 506974, Note_on_c, 1, 34, 0
4, 509771, Note_on_c, 1, 39, 0
4, 509773, Note_on_c, 1, 44, 44
4, 515013, Note_on_c, 1, 44, 0
4, 515013, End_track
5, 0, Start_track
5, 0, Title_t, "Drums"
5, 0, Control_c, 9, 0, 0
5, 0, Control_c, 9, 7, 75
5, 1, Control_c, 9, 32, 0
5, 2, Program_c, 9, 32
5, 181441, Note_on_c, 9, 51, 43
5, 182249, Note_on_c, 9, 51, 0
5, 182358, Note_on_c, 9, 44, 31
5, 182456, Note_on_c, 9, 51, 37
5, 182918, Note_on_c, 9, 44, 0
5, 183313, Note_on_c, 9, 51, 0
5, 183494, Note_on_c, 9, 51, 37
5, 184060, Note_on_c, 9, 51, 0
5, 184090, Note_on_c, 9, 38, 46
5, 184344, Note_on_c, 9, 38, 0
5, 184425, Note_on_c, 9, 51, 34
5, 185118, Note_on_c, 9, 51, 0
5, 185308, Note_on_c, 9, 46, 26
5, 185310, Note_on_c, 9, 51, 36
5, 186066, Note_on_c, 9, 51, 0
5, 186246, Note_on_c, 9, 51, 36
5, 187061, Note_on_c, 9, 51, 0
5, 187183, Note_on_c, 9, 51, 68
5, 187602, Note_on_c, 9, 46, 0
5, 188071, Note_on_c, 9, 51, 0
5, 188141, Note_on_c, 9, 44, 42
5, 188241, Note_on_c, 9, 51, 41
5, 188539, Note_on_c, 9, 44, 0
5, 188752, Note_on_c, 9, 51, 0
5, 188879, Note_on_c, 9, 51, 48
5, 189045, Note_on_c, 9, 51, 0
5, 189150, Note_on_c, 9, 51, 54
5, 189172, Note_on_c, 9, 44, 44
5, 189694, Note_on_c, 9, 51, 0
5, 189748, Note_on_c, 9, 36, 17
5, 189764, Note_on_c, 9, 38, 40
5, 189910, Note_on_c, 9, 36, 0
5, 189950, Note_on_c, 9, 38, 0
5, 190098, Note_on_c, 9, 36, 21
5, 190099, Note_on_c, 9, 44, 0
5, 190103, Note_on_c, 9, 51, 28
5, 190831, Note_on_c, 9, 51, 0
5, 190863, Note_on_c, 9, 36, 0
5, 191025, Note_on_c, 9, 51, 39
5, 191074, Note_on_c, 9, 44, 25
5, 191580, Note_on_c, 9, 44, 0
5, 191843, Note_on_c, 9, 51, 0
5, 192027, Note_on_c, 9, 51, 37
5, 192666, Note_on_c, 9, 38, 47
5, 192714, Note_on_c, 9, 51, 0
5, 192867, Note_on_c, 9, 38, 0
5, 192964, Note_on_c, 9, 51, 36
5, 193647, Note_on_c, 9, 51, 0
5, 193936, Note_on_c, 9, 44, 30
5, 193965, Note_on_c, 9, 51, 32
5, 194116, Note_on_c, 9, 44, 0
5, 194723, Note_on_c, 9, 51, 0
5, 194850, Note_on_c, 9, 46, 37
5, 194938, Note_on_c, 9, 51, 28
5, 195222, Note_on_c, 9, 51, 0
5, 195259, Note_on_c, 9, 38, 55
5, 195376, Note_on_c, 9, 38, 0
5, 195569, Note_on_c, 9, 51, 50
5, 195814, Note_on_c, 9, 51, 0
5, 195853, Note_on_c, 9, 46, 0
5, 195904, Note_on_c, 9, 51, 28
5, 196493, Note_on_c, 9, 51, 0
5, 196756, Note_on_c, 9, 51, 37
5, 196784, Note_on_c, 9, 44, 32
5, 197047, Note_on_c, 9, 44, 0
5, 197536, Note_on_c, 9, 51, 0
5, 197779, Note_on_c, 9, 51, 34
5, 198245, Note_on_c, 9, 51, 0
5, 198368, Note_on_c, 9, 51, 48
5, 198502, Note_on_c, 9, 51, 0
5, 198677, Note_on_c, 9, 51, 32
5, 199474, Note_on_c, 9, 51, 0
5, 199641, Note_on_c, 9, 51, 37
5, 199682, Note_on_c, 9, 44, 29
5, 199879, Note_on_c, 9, 44, 0
5, 200199, Note_on_c, 9, 51, 0
5, 200361, Note_on_c, 9, 51, 41
5, 200622, Note_on_c, 9, 44, 30
5, 200915, Note_on_c, 9, 44, 0
5, 201252, Note_on_c, 9, 47, 38
5, 201316, Note_on_c, 9, 47, 0
5, 201393, Note_on_c, 9, 51, 0
5, 201627, Note_on_c, 9, 51, 30
5, 202160, Note_on_c, 9, 51, 0
5, 202187, Note_on_c, 9, 47, 39
5, 202256, Note_on_c, 9, 51, 37
5, 202257, Note_on_c, 9, 47, 0
5, 202396, Note_on_c, 9, 51, 0
5, 202561, Note_on_c, 9, 51, 45
5, 203278, Note_on_c, 9, 36, 21
5, 203405, Note_on_c, 9, 36, 0
5, 203424, Note_on_c, 9, 51, 0
5, 203583, Note_on_c, 9, 46, 32
5, 203594, Note_on_c, 9, 45, 32
5, 203596, Note_on_c, 9, 51, 45
5, 203782, Note_on_c, 9, 45, 0
5, 204043, Note_on_c, 9, 46, 0
5, 204210, Note_on_c, 9, 51, 0
5, 204212, Note_on_c, 9, 38, 69
5, 204246, Note_on_c, 9, 36, 14
5, 204314, Note_on_c, 9, 36, 0
5, 204414, Note_on_c, 9, 38, 0
5, 204521, Note_on_c, 9, 51, 41
5, 204522, Note_on_c, 9, 36, 18
5, 204746, Note_on_c, 9, 36, 0
5, 205285, Note_on_c, 9, 51, 0
5, 205456, Note_on_c, 9, 44, 33
5, 205460, Note_on_c, 9, 51, 37
5, 205747, Note_on_c, 9, 44, 0
5, 206201, Note_on_c, 9, 51, 0
5, 206457, Note_on_c, 9, 51, 32
5, 207018, Note_on_c, 9, 51, 0
5, 207084, Note_on_c, 9, 38, 55
5, 207312, Note_on_c, 9, 38, 0
5, 207437, Note_on_c, 9, 51, 34
5, 208030, Note_on_c, 9, 51, 0
5, 208087, Note_on_c, 9, 38, 51
5, 208286, Note_on_c, 9, 38, 0
5, 208455, Note_on_c, 9, 51, 21
5, 208972, Note_on_c, 9, 51, 0
5, 209014, Note_on_c, 9, 38, 62
5, 209292, Note_on_c, 9, 38, 0
5, 209351, Note_on_c, 9, 51, 36
5, 209901, Note_on_c, 9, 51, 0
5, 209979, Note_on_c, 9, 38, 54
5, 210166, Note_on_c, 9, 38, 0
5, 210323, Note_on_c, 9, 36, 18
5, 210363, Note_on_c, 9, 51, 28
5, 210561, Note_on_c, 9, 36, 0
5, 210994, Note_on_c, 9, 51, 0
5, 211256, Note_on_c, 9, 46, 36
5, 211259, Note_on_c, 9, 44, 50
5, 211303, Note_on_c, 9, 51, 34
5, 211454, Note_on_c, 9, 44, 0
5, 211595, Note_on_c, 9, 46, 0
5, 211946, Note_on_c, 9, 51, 0
5, 212277, Note_on_c, 9, 51, 32
5, 212360, Note_on_c, 9, 46, 36
5, 212845, Note_on_c, 9, 51, 0
5, 212867, Note_on_c, 9, 38, 60
5, 213048, Note_on_c, 9, 38, 0
5, 213254, Note_on_c, 9, 51, 27
5, 213543, Note_on_c, 9, 51, 0
5, 213800, Note_on_c, 9, 51, 57
5, 214027, Note_on_c, 9, 51, 0
5, 214054, Note_on_c, 9, 46, 0
5, 214142, Note_on_c, 9, 51, 37
5, 214625, Note_on_c, 9, 51, 0
5, 214705, Note_on_c, 9, 38, 56
5, 214858, Note_on_c, 9, 38, 0
5, 215044, Note_on_c, 9, 44, 39
5, 215322, Note_on_c, 9, 44, 0
5, 215627, Note_on_c, 9, 38, 64
5, 215780, Note_on_c, 9, 38, 0
5, 215995, Note_on_c, 9, 38, 51
5, 216503, Note_on_c, 9, 38, 0
5, 216636, Note_on_c, 9, 51, 63
5, 216860, Note_on_c, 9, 51, 0
5, 216950, Note_on_c, 9, 44, 29
5, 217037, Note_on_c, 9, 51, 16
5, 217199, Note_on_c, 9, 44, 0
5, 217753, Note_on_c, 9, 51, 0
5, 217931, Note_on_c, 9, 51, 36
5, 218768, Note_on_c, 9, 51, 0
5, 218971, Note_on_c, 9, 51, 37
5, 219710, Note_on_c, 9, 51, 0
5, 219848, Note_on_c, 9, 44, 25
5, 219902, Note_on_c, 9, 51, 37
5, 219970, Note_on_c, 9, 44, 0
5, 220684, Note_on_c, 9, 51, 0
5, 220835, Note_on_c, 9, 46, 37
5, 220886, Note_on_c, 9, 51, 43
5, 221452, Note_on_c, 9, 45, 25
5, 221542, Note_on_c, 9, 45, 0
5, 221565, Note_on_c, 9, 51, 0
5, 221749, Note_on_c, 9, 46, 0
5, 221808, Note_on_c, 9, 51, 41
5, 221831, Note_on_c, 9, 45, 30
5, 222142, Note_on_c, 9, 45, 0
5, 222434, Note_on_c, 9, 36, 20
5, 222503, Note_on_c, 9, 51, 0
5, 222607, Note_on_c, 9, 36, 0
5, 222711, Note_on_c, 9, 51, 39
5, 222743, Note_on_c, 9, 44, 35
5, 222947, Note_on_c, 9, 44, 0
5, 223352, Note_on_c, 9, 38, 54
5, 223436, Note_on_c, 9, 51, 0
5, 223526, Note_on_c, 9, 38, 0
5, 223734, Note_on_c, 9, 51, 48
5, 224292, Note_on_c, 9, 51, 0
5, 224305, Note_on_c, 9, 44, 27
5, 224375, Note_on_c, 9, 51, 41
5, 224411, Note_on_c, 9, 44, 0
5, 224529, Note_on_c, 9, 51, 0
5, 224702, Note_on_c, 9, 51, 39
5, 225313, Note_on_c, 9, 38, 54
5, 225321, Note_on_c, 9, 45, 37
5, 225398, Note_on_c, 9, 45, 0
5, 225449, Note_on_c, 9, 51, 0
5, 225462, Note_on_c, 9, 38, 0
5, 225639, Note_on_c, 9, 51, 45
5, 225718, Note_on_c, 9, 44, 32
5, 225915, Note_on_c, 9, 44, 0
5, 226236, Note_on_c, 9, 43, 41
5, 226333, Note_on_c, 9, 43, 0
5, 226413, Note_on_c, 9, 51, 0
5, 226564, Note_on_c, 9, 51, 41
5, 227125, Note_on_c, 9, 44, 29
5, 227192, Note_on_c, 9, 36, 24
5, 227232, Note_on_c, 9, 44, 0
5, 227297, Note_on_c, 9, 51, 0
5, 227306, Note_on_c, 9, 36, 0
5, 227493, Note_on_c, 9, 51, 45
5, 227590, Note_on_c, 9, 36, 13
5, 227783, Note_on_c, 9, 36, 0
5, 228283, Note_on_c, 9, 51, 0
5, 228465, Note_on_c, 9, 51, 50
5, 228485, Note_on_c, 9, 44, 32
5, 228691, Note_on_c, 9, 44, 0
5, 229138, Note_on_c, 9, 38, 65
5, 229205, Note_on_c, 9, 51, 0
5, 229240, Note_on_c, 9, 38, 0
5, 229442, Note_on_c, 9, 51, 46
5, 230123, Note_on_c, 9, 51, 0
5, 230206, Note_on_c, 9, 51, 52
5, 230312, Note_on_c, 9, 51, 0
5, 230507, Note_on_c, 9, 51, 28
5, 231168, Note_on_c, 9, 51, 0
5, 231343, Note_on_c, 9, 46, 33
5, 231372, Note_on_c, 9, 51, 45
5, 231748, Note_on_c, 9, 46, 0
5, 232138, Note_on_c, 9, 51, 0
5, 232303, Note_on_c, 9, 51, 41
5, 232969, Note_on_c, 9, 51, 0
5, 232997, Note_on_c, 9, 38, 54
5, 233105, Note_on_c, 9, 38, 0
5, 233269, Note_on_c, 9, 51, 46
5, 234025, Note_on_c, 9, 51, 0
5, 234223, Note_on_c, 9, 46, 39
5, 234244, Note_on_c, 9, 51, 39
5, 234301, Note_on_c, 9, 44, 32
5, 234468, Note_on_c, 9, 46, 0
5, 234485, Note_on_c, 9, 44, 0
5, 234988, Note_on_c, 9, 51, 0
5, 235201, Note_on_c, 9, 51, 37
5, 235253, Note_on_c, 9, 44, 33
5, 235450, Note_on_c, 9, 44, 0
5, 235803, Note_on_c, 9, 38, 68
5, 235853, Note_on_c, 9, 51, 0
5, 235981, Note_on_c, 9, 38, 0
5, 236121, Note_on_c, 9, 51, 54
5, 236773, Note_on_c, 9, 51, 0
5, 236773, Note_on_c, 9, 38, 69
5, 237069, Note_on_c, 9, 38, 0
5, 237126, Note_on_c, 9, 44, 33
5, 237185, Note_on_c, 9, 51, 18
5, 237220, Note_on_c, 9, 44, 0
5, 237700, Note_on_c, 9, 51, 0
5, 237726, Note_on_c, 9, 38, 62
5, 237919, Note_on_c, 9, 38, 0
5, 238079, Note_on_c, 9, 51, 37
5, 238081, Note_on_c, 9, 46, 35
5, 238648, Note_on_c, 9, 51, 0
5, 238697, Note_on_c, 9, 38, 72
5, 238744, Note_on_c, 9, 36, 16
5, 238825, Note_on_c, 9, 36, 0
5, 238857, Note_on_c, 9, 38, 0
5, 239063, Note_on_c, 9, 51, 32
5, 239132, Note_on_c, 9, 46, 0
5, 239853, Note_on_c, 9, 51, 0
5, 240022, Note_on_c, 9, 44, 28
5, 240028, Note_on_c, 9, 51, 41
5, 240127, Note_on_c, 9, 44, 0
5, 240596, Note_on_c, 9, 51, 0
5, 240716, Note_on_c, 9, 51, 55
5, 240800, Note_on_c, 9, 51, 0
5, 240966, Note_on_c, 9, 51, 45
5, 241581, Note_on_c, 9, 36, 19
5, 241641, Note_on_c, 9, 38, 17
5, 241733, Note_on_c, 9, 51, 0
5, 241745, Note_on_c, 9, 36, 0
5, 241827, Note_on_c, 9, 38, 0
5, 241934, Note_on_c, 9, 51, 41
5, 242523, Note_on_c, 9, 51, 0
5, 242935, Note_on_c, 9, 51, 50
5, 242972, Note_on_c, 9, 44, 37
5, 243049, Note_on_c, 9, 44, 0
5, 243656, Note_on_c, 9, 51, 0
5, 243855, Note_on_c, 9, 51, 45
5, 244550, Note_on_c, 9, 51, 0
5, 244847, Note_on_c, 9, 51, 45
5, 245605, Note_on_c, 9, 51, 0
5, 245833, Note_on_c, 9, 51, 41
5, 245855, Note_on_c, 9, 46, 36
5, 245936, Note_on_c, 9, 46, 0
5, 246429, Note_on_c, 9, 51, 0
5, 246561, Note_on_c, 9, 51, 57
5, 246664, Note_on_c, 9, 51, 0
5, 246836, Note_on_c, 9, 51, 34
5, 247489, Note_on_c, 9, 51, 0
5, 247517, Note_on_c, 9, 36, 14
5, 247642, Note_on_c, 9, 36, 0
5, 247741, Note_on_c, 9, 51, 36
5, 248412, Note_on_c, 9, 51, 0
5, 248668, Note_on_c, 9, 51, 41
5, 248722, Note_on_c, 9, 44, 29
5, 248803, Note_on_c, 9, 44, 0
5, 248818, Note_on_c, 9, 45, 23
5, 249210, Note_on_c, 9, 45, 0
5, 249331, Note_on_c, 9, 38, 56
5, 249332, Note_on_c, 9, 51, 0
5, 249553, Note_on_c, 9, 38, 0
5, 249658, Note_on_c, 9, 51, 39
5, 250280, Note_on_c, 9, 38, 54
5, 250305, Note_on_c, 9, 36, 26
5, 250330, Note_on_c, 9, 51, 0
5, 250409, Note_on_c, 9, 36, 0
5, 250471, Note_on_c, 9, 38, 0
5, 250650, Note_on_c, 9, 51, 28
5, 251274, Note_on_c, 9, 51, 0
5, 251553, Note_on_c, 9, 44, 30
5, 251563, Note_on_c, 9, 51, 45
5, 251632, Note_on_c, 9, 44, 0
5, 252275, Note_on_c, 9, 51, 0
5, 252514, Note_on_c, 9, 46, 36
5, 252538, Note_on_c, 9, 51, 41
5, 252943, Note_on_c, 9, 51, 0
5, 253104, Note_on_c, 9, 46, 0
5, 253178, Note_on_c, 9, 51, 54
5, 253340, Note_on_c, 9, 51, 0
5, 253447, Note_on_c, 9, 51, 43
5, 254227, Note_on_c, 9, 36, 15
5, 254232, Note_on_c, 9, 51, 0
5, 254332, Note_on_c, 9, 36, 0
5, 254427, Note_on_c, 9, 44, 40
5, 254453, Note_on_c, 9, 51, 32
5, 254487, Note_on_c, 9, 50, 40
5, 254667, Note_on_c, 9, 44, 0
5, 254919, Note_on_c, 9, 51, 0
5, 255030, Note_on_c, 9, 50, 0
5, 255097, Note_on_c, 9, 51, 41
5, 255149, Note_on_c, 9, 50, 37
5, 255269, Note_on_c, 9, 50, 0
5, 255294, Note_on_c, 9, 51, 0
5, 255430, Note_on_c, 9, 51, 66
5, 256232, Note_on_c, 9, 51, 0
5, 256427, Note_on_c, 9, 51, 19
5, 256520, Note_on_c, 9, 47, 23
5, 256721, Note_on_c, 9, 47, 0
5, 256865, Note_on_c, 9, 51, 0
5, 256994, Note_on_c, 9, 51, 79
5, 257092, Note_on_c, 9, 47, 26
5, 257181, Note_on_c, 9, 47, 0
5, 257211, Note_on_c, 9, 51, 0
5, 257336, Note_on_c, 9, 51, 63
5, 257368, Note_on_c, 9, 44, 32
5, 257502, Note_on_c, 9, 44, 0
5, 258044, Note_on_c, 9, 36, 22
5, 258154, Note_on_c, 9, 51, 0
5, 258156, Note_on_c, 9, 36, 0
5, 258358, Note_on_c, 9, 51, 39
5, 258402, Note_on_c, 9, 46, 27
5, 258421, Note_on_c, 9, 36, 16
5, 258794, Note_on_c, 9, 36, 0
5, 258888, Note_on_c, 9, 51, 0
5, 258943, Note_on_c, 9, 38, 61
5, 258985, Note_on_c, 9, 46, 0
5, 259116, Note_on_c, 9, 38, 0
5, 259294, Note_on_c, 9, 51, 45
5, 259784, Note_on_c, 9, 51, 0
5, 259863, Note_on_c, 9, 38, 65
5, 260148, Note_on_c, 9, 38, 0
5, 260200, Note_on_c, 9, 51, 46
5, 260856, Note_on_c, 9, 51, 0
5, 260866, Note_on_c, 9, 38, 65
5, 261156, Note_on_c, 9, 38, 0
5, 261226, Note_on_c, 9, 51, 32
5, 261721, Note_on_c, 9, 51, 0
5, 261821, Note_on_c, 9, 38, 65
5, 262086, Note_on_c, 9, 38, 0
5, 262201, Note_on_c, 9, 51, 41
5, 262746, Note_on_c, 9, 51, 0
5, 263068, Note_on_c, 9, 44, 39
5, 263114, Note_on_c, 9, 51, 37
5, 263217, Note_on_c, 9, 44, 0
5, 263775, Note_on_c, 9, 51, 0
5, 264012, Note_on_c, 9, 51, 37
5, 264654, Note_on_c, 9, 38, 55
5, 264658, Note_on_c, 9, 51, 0
5, 264908, Note_on_c, 9, 38, 0
5, 264965, Note_on_c, 9, 51, 34
5, 265502, Note_on_c, 9, 51, 0
5, 265545, Note_on_c, 9, 38, 60
5, 265736, Note_on_c, 9, 38, 0
5, 265892, Note_on_c, 9, 51, 36
5, 265896, Note_on_c, 9, 44, 32
5, 265926, Note_on_c, 9, 36, 19
5, 265990, Note_on_c, 9, 44, 0
5, 266033, Note_on_c, 9, 36, 0
5, 266516, Note_on_c, 9, 38, 53
5, 266572, Note_on_c, 9, 43, 23
5, 266657, Note_on_c, 9, 43, 0
5, 266687, Note_on_c, 9, 38, 0
5, 266862, Note_on_c, 9, 38, 47
5, 267241, Note_on_c, 9, 38, 0
5, 267339, Note_on_c, 9, 51, 0
5, 267504, Note_on_c, 9, 51, 45
5, 267712, Note_on_c, 9, 51, 0
5, 267870, Note_on_c, 9, 38, 54
5, 267906, Note_on_c, 9, 36, 16
5, 268029, Note_on_c, 9, 36, 0
5, 268422, Note_on_c, 9, 38, 0
5, 268487, Note_on_c, 9, 51, 54
5, 268741, Note_on_c, 9, 51, 0
5, 268768, Note_on_c, 9, 44, 36
5, 268870, Note_on_c, 9, 44, 0
5, 268882, Note_on_c, 9, 51, 45
5, 268885, Note_on_c, 9, 36, 15
5, 269350, Note_on_c, 9, 36, 0
5, 269484, Note_on_c, 9, 38, 54
5, 269576, Note_on_c, 9, 51, 0
5, 269687, Note_on_c, 9, 38, 0
5, 269825, Note_on_c, 9, 46, 44
5, 269845, Note_on_c, 9, 51, 21
5, 270410, Note_on_c, 9, 38, 58
5, 270423, Note_on_c, 9, 51, 0
5, 270684, Note_on_c, 9, 38, 0
5, 270715, Note_on_c, 9, 51, 28
5, 271101, Note_on_c, 9, 46, 0
5, 271503, Note_on_c, 9, 51, 0
5, 271729, Note_on_c, 9, 51, 36
5, 271764, Note_on_c, 9, 44, 43
5, 271924, Note_on_c, 9, 44, 0
5, 272412, Note_on_c, 9, 51, 0
5, 272414, Note_on_c, 9, 36, 24
5, 272510, Note_on_c, 9, 36, 0
5, 272693, Note_on_c, 9, 51, 28
5, 272767, Note_on_c, 9, 46, 37
5, 272971, Note_on_c, 9, 51, 0
5, 272975, Note_on_c, 9, 46, 0
5, 273000, Note_on_c, 9, 38, 51
5, 273065, Note_on_c, 9, 38, 0
5, 273335, Note_on_c, 9, 38, 30
5, 273402, Note_on_c, 9, 36, 37
5, 273409, Note_on_c, 9, 38, 0
5, 273557, Note_on_c, 9, 36, 0
5, 273694, Note_on_c, 9, 51, 32
5, 273741, Note_on_c, 9, 36, 26
5, 274166, Note_on_c, 9, 36, 0
5, 274437, Note_on_c, 9, 51, 0
5, 274540, Note_on_c, 9, 51, 23
5, 274693, Note_on_c, 9, 44, 21
5, 274811, Note_on_c, 9, 44, 0
5, 275238, Note_on_c, 9, 51, 0
5, 275587, Note_on_c, 9, 51, 37
5, 276176, Note_on_c, 9, 38, 49
5, 276180, Note_on_c, 9, 51, 0
5, 276241, Note_on_c, 9, 38, 0
5, 276469, Note_on_c, 9, 51, 41
5, 277212, Note_on_c, 9, 51, 0
5, 277446, Note_on_c, 9, 44, 37
5, 277461, Note_on_c, 9, 51, 45
5, 277645, Note_on_c, 9, 44, 0
5, 278147, Note_on_c, 9, 51, 0
5, 278441, Note_on_c, 9, 44, 38
5, 278469, Note_on_c, 9, 51, 32
5, 278666, Note_on_c, 9, 44, 0
5, 278964, Note_on_c, 9, 51, 0
5, 279099, Note_on_c, 9, 36, 13
5, 279113, Note_on_c, 9, 51, 45
5, 279210, Note_on_c, 9, 51, 0
5, 279240, Note_on_c, 9, 36, 0
5, 279396, Note_on_c, 9, 51, 32
5, 280108, Note_on_c, 9, 51, 0
5, 280342, Note_on_c, 9, 51, 41
5, 280416, Note_on_c, 9, 44, 33
5, 280543, Note_on_c, 9, 44, 0
5, 280865, Note_on_c, 9, 51, 0
5, 281041, Note_on_c, 9, 51, 37
5, 281939, Note_on_c, 9, 38, 47
5, 281959, Note_on_c, 9, 51, 0
5, 282011, Note_on_c, 9, 38, 0
5, 282313, Note_on_c, 9, 51, 27
5, 282747, Note_on_c, 9, 51, 0
5, 282876, Note_on_c, 9, 51, 95
5, 283212, Note_on_c, 9, 51, 0
5, 283227, Note_on_c, 9, 46, 37
5, 283269, Note_on_c, 9, 51, 32
5, 283660, Note_on_c, 9, 51, 0
5, 283823, Note_on_c, 9, 38, 50
5, 283961, Note_on_c, 9, 38, 0
5, 284223, Note_on_c, 9, 51, 32
5, 284679, Note_on_c, 9, 51, 0
5, 284791, Note_on_c, 9, 51, 41
5, 284841, Note_on_c, 9, 46, 0
5, 284966, Note_on_c, 9, 51, 0
5, 285130, Note_on_c, 9, 51, 45
5, 285838, Note_on_c, 9, 51, 0
5, 286016, Note_on_c, 9, 44, 38
5, 286083, Note_on_c, 9, 51, 43
5, 286247, Note_on_c, 9, 44, 0
5, 286891, Note_on_c, 9, 51, 0
5, 287113, Note_on_c, 9, 51, 32
5, 287730, Note_on_c, 9, 38, 42
5, 287800, Note_on_c, 9, 51, 0
5, 287825, Note_on_c, 9, 38, 0
5, 287958, Note_on_c, 9, 51, 50
5, 288905, Note_on_c, 9, 51, 0
5, 289010, Note_on_c, 9, 44, 42
5, 289056, Note_on_c, 9, 51, 34
5, 289238, Note_on_c, 9, 44, 0
5, 289616, Note_on_c, 9, 51, 0
5, 289971, Note_on_c, 9, 44, 40
5, 290030, Note_on_c, 9, 51, 41
5, 290293, Note_on_c, 9, 44, 0
5, 290642, Note_on_c, 9, 51, 0
5, 290655, Note_on_c, 9, 38, 59
5, 290658, Note_on_c, 9, 36, 18
5, 290761, Note_on_c, 9, 36, 0
5, 290830, Note_on_c, 9, 38, 0
5, 290964, Note_on_c, 9, 51, 45
5, 291024, Note_on_c, 9, 36, 16
5, 291622, Note_on_c, 9, 36, 0
5, 291776, Note_on_c, 9, 51, 0
5, 291941, Note_on_c, 9, 44, 30
5, 291978, Note_on_c, 9, 51, 34
5, 292208, Note_on_c, 9, 44, 0
5, 292623, Note_on_c, 9, 36, 15
5, 292688, Note_on_c, 9, 51, 0
5, 292718, Note_on_c, 9, 36, 0
5, 292880, Note_on_c, 9, 51, 37
5, 293077, Note_on_c, 9, 36, 9
5, 293310, Note_on_c, 9, 51, 0
5, 293316, Note_on_c, 9, 36, 0
5, 293467, Note_on_c, 9, 51, 52
5, 293570, Note_on_c, 9, 45, 43
5, 293651, Note_on_c, 9, 51, 0
5, 293749, Note_on_c, 9, 45, 0
5, 293814, Note_on_c, 9, 51, 39
5, 293936, Note_on_c, 9, 45, 31
5, 294373, Note_on_c, 9, 45, 0
5, 294525, Note_on_c, 9, 36, 19
5, 294563, Note_on_c, 9, 51, 0
5, 294703, Note_on_c, 9, 51, 57
5, 294753, Note_on_c, 9, 36, 0
5, 294810, Note_on_c, 9, 44, 37
5, 294952, Note_on_c, 9, 44, 0
5, 295283, Note_on_c, 9, 51, 0
5, 295408, Note_on_c, 9, 36, 25
5, 295443, Note_on_c, 9, 51, 28
5, 295568, Note_on_c, 9, 51, 0
5, 295624, Note_on_c, 9, 36, 0
5, 295728, Note_on_c, 9, 51, 50
5, 295741, Note_on_c, 9, 46, 38
5, 296330, Note_on_c, 9, 36, 19
5, 296466, Note_on_c, 9, 36, 0
5, 296494, Note_on_c, 9, 46, 0
5, 296600, Note_on_c, 9, 51, 0
5, 296788, Note_on_c, 9, 51, 12
5, 297189, Note_on_c, 9, 51, 0
5, 297322, Note_on_c, 9, 51, 63
5, 297572, Note_on_c, 9, 51, 0
5, 297598, Note_on_c, 9, 46, 32
5, 297612, Note_on_c, 9, 44, 44
5, 297697, Note_on_c, 9, 51, 41
5, 297809, Note_on_c, 9, 44, 0
5, 298310, Note_on_c, 9, 46, 0
5, 298521, Note_on_c, 9, 51, 0
5, 298711, Note_on_c, 9, 51, 32
5, 299228, Note_on_c, 9, 38, 57
5, 299257, Note_on_c, 9, 51, 0
5, 299334, Note_on_c, 9, 38, 0
5, 299577, Note_on_c, 9, 51, 27
5, 300105, Note_on_c, 9, 51, 0
5, 300197, Note_on_c, 9, 51, 43
5, 300330, Note_on_c, 9, 51, 0
5, 300508, Note_on_c, 9, 51, 46
5, 300510, Note_on_c, 9, 44, 21
5, 300670, Note_on_c, 9, 44, 0
5, 301174, Note_on_c, 9, 51, 0
5, 301200, Note_on_c, 9, 38, 38
5, 301274, Note_on_c, 9, 38, 0
5, 301467, Note_on_c, 9, 44, 35
5, 301539, Note_on_c, 9, 51, 28
5, 301692, Note_on_c, 9, 44, 0
5, 302058, Note_on_c, 9, 51, 0
5, 302107, Note_on_c, 9, 38, 30
5, 302229, Note_on_c, 9, 38, 0
5, 302453, Note_on_c, 9, 51, 28
5, 302930, Note_on_c, 9, 51, 0
5, 302980, Note_on_c, 9, 44, 33
5, 303119, Note_on_c, 9, 51, 43
5, 303134, Note_on_c, 9, 44, 0
5, 303268, Note_on_c, 9, 51, 0
5, 303423, Note_on_c, 9, 51, 19
5, 303423, Note_on_c, 9, 44, 27
5, 303522, Note_on_c, 9, 44, 0
5, 303953, Note_on_c, 9, 51, 0
5, 304067, Note_on_c, 9, 51, 32
5, 304179, Note_on_c, 9, 51, 0
5, 304398, Note_on_c, 9, 51, 28
5, 304910, Note_on_c, 9, 51, 0
5, 305009, Note_on_c, 9, 51, 32
5, 305267, Note_on_c, 9, 51, 0
5, 305390, Note_on_c, 9, 51, 34
5, 306155, Note_on_c, 9, 51, 0
5, 306319, Note_on_c, 9, 44, 50
5, 306350, Note_on_c, 9, 51, 45
5, 306470, Note_on_c, 9, 44, 0
5, 307053, Note_on_c, 9, 51, 0
5, 307243, Note_on_c, 9, 51, 37
5, 307302, Note_on_c, 9, 46, 38
5, 307743, Note_on_c, 9, 51, 0
5, 307835, Note_on_c, 9, 51, 32
5, 307960, Note_on_c, 9, 51, 0
5, 308126, Note_on_c, 9, 51, 45
5, 308253, Note_on_c, 9, 46, 0
5, 308744, Note_on_c, 9, 44, 35
5, 308875, Note_on_c, 9, 44, 0
5, 308952, Note_on_c, 9, 51, 0
5, 309078, Note_on_c, 9, 38, 36
5, 309140, Note_on_c, 9, 51, 45
5, 309238, Note_on_c, 9, 38, 0
5, 310038, Note_on_c, 9, 38, 42
5, 310062, Note_on_c, 9, 44, 31
5, 310149, Note_on_c, 9, 38, 0
5, 310597, Note_on_c, 9, 51, 0
5, 310681, Note_on_c, 9, 38, 43
5, 310708, Note_on_c, 9, 51, 57
5, 310789, Note_on_c, 9, 38, 0
5, 310860, Note_on_c, 9, 51, 0
5, 311031, Note_on_c, 9, 51, 39
5, 311041, Note_on_c, 9, 44, 0
5, 311898, Note_on_c, 9, 51, 0
5, 312005, Note_on_c, 9, 44, 43
5, 312016, Note_on_c, 9, 51, 63
5, 312170, Note_on_c, 9, 44, 0
5, 312581, Note_on_c, 9, 38, 50
5, 312668, Note_on_c, 9, 38, 0
5, 312924, Note_on_c, 9, 38, 45
5, 313022, Note_on_c, 9, 46, 36
5, 313073, Note_on_c, 9, 38, 0
5, 313560, Note_on_c, 9, 51, 0
5, 313597, Note_on_c, 9, 36, 18
5, 313676, Note_on_c, 9, 36, 0
5, 313677, Note_on_c, 9, 51, 72
5, 313912, Note_on_c, 9, 46, 53
5, 313985, Note_on_c, 9, 46, 0
5, 314445, Note_on_c, 9, 46, 0
5, 314469, Note_on_c, 9, 51, 0
5, 314614, Note_on_c, 9, 51, 46
5, 314794, Note_on_c, 9, 51, 0
5, 314956, Note_on_c, 9, 51, 45
5, 314960, Note_on_c, 9, 44, 38
5, 315159, Note_on_c, 9, 44, 0
5, 315574, Note_on_c, 9, 38, 54
5, 315666, Note_on_c, 9, 51, 0
5, 315729, Note_on_c, 9, 38, 0
5, 315911, Note_on_c, 9, 44, 42
5, 315939, Note_on_c, 9, 51, 39
5, 316605, Note_on_c, 9, 51, 0
5, 316667, Note_on_c, 9, 44, 0
5, 316840, Note_on_c, 9, 51, 41
5, 317384, Note_on_c, 9, 38, 48
5, 317503, Note_on_c, 9, 38, 0
5, 317600, Note_on_c, 9, 51, 0
5, 317751, Note_on_c, 9, 44, 37
5, 317759, Note_on_c, 9, 38, 38
5, 317769, Note_on_c, 9, 51, 50
5, 317867, Note_on_c, 9, 44, 0
5, 317891, Note_on_c, 9, 38, 0
5, 318564, Note_on_c, 9, 51, 0
5, 318675, Note_on_c, 9, 46, 44
5, 318763, Note_on_c, 9, 51, 41
5, 319383, Note_on_c, 9, 38, 48
5, 319402, Note_on_c, 9, 51, 0
5, 319534, Note_on_c, 9, 38, 0
5, 319700, Note_on_c, 9, 51, 50
5, 319775, Note_on_c, 9, 46, 0
5, 320522, Note_on_c, 9, 51, 0
5, 320579, Note_on_c, 9, 44, 42
5, 320627, Note_on_c, 9, 51, 28
5, 320793, Note_on_c, 9, 44, 0
5, 321414, Note_on_c, 9, 51, 0
5, 321586, Note_on_c, 9, 51, 41
5, 322491, Note_on_c, 9, 51, 0
5, 322501, Note_on_c, 9, 45, 34
5, 322635, Note_on_c, 9, 45, 0
5, 323088, Note_on_c, 9, 45, 37
5, 323094, Note_on_c, 9, 51, 66
5, 323189, Note_on_c, 9, 45, 0
5, 323277, Note_on_c, 9, 51, 0
5, 323497, Note_on_c, 9, 51, 39
5, 323543, Note_on_c, 9, 44, 35
5, 323678, Note_on_c, 9, 44, 0
5, 324147, Note_on_c, 9, 36, 23
5, 324254, Note_on_c, 9, 36, 0
5, 324311, Note_on_c, 9, 51, 0
5, 324473, Note_on_c, 9, 44, 38
5, 324497, Note_on_c, 9, 45, 12
5, 324860, Note_on_c, 9, 45, 0
5, 325017, Note_on_c, 9, 51, 54
5, 325062, Note_on_c, 9, 45, 39
5, 325117, Note_on_c, 9, 44, 0
5, 325205, Note_on_c, 9, 45, 0
5, 325238, Note_on_c, 9, 51, 0
5, 325382, Note_on_c, 9, 51, 43
5, 326000, Note_on_c, 9, 38, 54
5, 326011, Note_on_c, 9, 51, 0
5, 326213, Note_on_c, 9, 38, 0
5, 326386, Note_on_c, 9, 51, 39
5, 326397, Note_on_c, 9, 44, 38
5, 326444, Note_on_c, 9, 36, 14
5, 326502, Note_on_c, 9, 44, 0
5, 326606, Note_on_c, 9, 36, 0
5, 326787, Note_on_c, 9, 51, 0
5, 326947, Note_on_c, 9, 51, 41
5, 327198, Note_on_c, 9, 51, 0
5, 327358, Note_on_c, 9, 51, 45
5, 327387, Note_on_c, 9, 46, 44
5, 328239, Note_on_c, 9, 51, 0
5, 328351, Note_on_c, 9, 51, 28
5, 328432, Note_on_c, 9, 46, 0
5, 328458, Note_on_c, 9, 51, 0
5, 328907, Note_on_c, 9, 51, 50
5, 329141, Note_on_c, 9, 51, 0
5, 329308, Note_on_c, 9, 51, 39
5, 329336, Note_on_c, 9, 44, 37
5, 329529, Note_on_c, 9, 44, 0
5, 330064, Note_on_c, 9, 51, 0
5, 330278, Note_on_c, 9, 51, 28
5, 330554, Note_on_c, 9, 51, 0
5, 330782, Note_on_c, 9, 51, 63
5, 331063, Note_on_c, 9, 51, 0
5, 331225, Note_on_c, 9, 51, 46
5, 331989, Note_on_c, 9, 51, 0
5, 332206, Note_on_c, 9, 44, 34
5, 332320, Note_on_c, 9, 44, 0
5, 332765, Note_on_c, 9, 51, 45
5, 333012, Note_on_c, 9, 51, 0
5, 333181, Note_on_c, 9, 51, 50
5, 333976, Note_on_c, 9, 51, 0
5, 334133, Note_on_c, 9, 51, 28
5, 334521, Note_on_c, 9, 51, 0
5, 334701, Note_on_c, 9, 51, 50
5, 334957, Note_on_c, 9, 51, 0
5, 335042, Note_on_c, 9, 45, 32
5, 335089, Note_on_c, 9, 44, 40
5, 335093, Note_on_c, 9, 51, 72
5, 335125, Note_on_c, 9, 45, 0
5, 335240, Note_on_c, 9, 44, 0
5, 335916, Note_on_c, 9, 51, 0
5, 336057, Note_on_c, 9, 51, 36
5, 336111, Note_on_c, 9, 45, 34
5, 336138, Note_on_c, 9, 46, 40
5, 336192, Note_on_c, 9, 45, 0
5, 336547, Note_on_c, 9, 51, 0
5, 336664, Note_on_c, 9, 51, 68
5, 336733, Note_on_c, 9, 36, 20
5, 336869, Note_on_c, 9, 36, 0
5, 336882, Note_on_c, 9, 51, 0
5, 337095, Note_on_c, 9, 51, 54
5, 337116, Note_on_c, 9, 36, 15
5, 337239, Note_on_c, 9, 46, 0
5, 337283, Note_on_c, 9, 36, 0
5, 337826, Note_on_c, 9, 51, 0
5, 337976, Note_on_c, 9, 51, 41
5, 338024, Note_on_c, 9, 44, 42
5, 338205, Note_on_c, 9, 44, 0
5, 338420, Note_on_c, 9, 51, 0
5, 338578, Note_on_c, 9, 51, 50
5, 338703, Note_on_c, 9, 51, 0
5, 338900, Note_on_c, 9, 51, 41
5, 339393, Note_on_c, 9, 51, 0
5, 339489, Note_on_c, 9, 51, 37
5, 339704, Note_on_c, 9, 51, 0
5, 339936, Note_on_c, 9, 51, 59
5, 340518, Note_on_c, 9, 47, 44
5, 340632, Note_on_c, 9, 47, 0
5, 340694, Note_on_c, 9, 51, 0
5, 340856, Note_on_c, 9, 51, 41
5, 340872, Note_on_c, 9, 44, 36
5, 340988, Note_on_c, 9, 44, 0
5, 341495, Note_on_c, 9, 36, 19
5, 341666, Note_on_c, 9, 36, 0
5, 341835, Note_on_c, 9, 43, 23
5, 342124, Note_on_c, 9, 43, 0
5, 342309, Note_on_c, 9, 51, 0
5, 342433, Note_on_c, 9, 38, 63
5, 342444, Note_on_c, 9, 36, 19
5, 342544, Note_on_c, 9, 36, 0
5, 342595, Note_on_c, 9, 38, 0
5, 342744, Note_on_c, 9, 51, 45
5, 342783, Note_on_c, 9, 36, 22
5, 343020, Note_on_c, 9, 36, 0
5, 343561, Note_on_c, 9, 51, 0
5, 343715, Note_on_c, 9, 44, 30
5, 343734, Note_on_c, 9, 51, 43
5, 343810, Note_on_c, 9, 44, 31
5, 343822, Note_on_c, 9, 44, 0
5, 344542, Note_on_c, 9, 44, 0
5, 344576, Note_on_c, 9, 51, 0
5, 344692, Note_on_c, 9, 46, 36
5, 344722, Note_on_c, 9, 51, 50
5, 345001, Note_on_c, 9, 46, 0
5, 345268, Note_on_c, 9, 51, 0
5, 345417, Note_on_c, 9, 51, 28
5, 345509, Note_on_c, 9, 51, 0
5, 345667, Note_on_c, 9, 51, 54
5, 346429, Note_on_c, 9, 51, 0
5, 346591, Note_on_c, 9, 51, 50
5, 346663, Note_on_c, 9, 44, 36
5, 346786, Note_on_c, 9, 44, 0
5, 347333, Note_on_c, 9, 51, 0
5, 347533, Note_on_c, 9, 51, 36
5, 348172, Note_on_c, 9, 38, 47
5, 348195, Note_on_c, 9, 51, 0
5, 348267, Note_on_c, 9, 38, 0
5, 348497, Note_on_c, 9, 51, 39
5, 349331, Note_on_c, 9, 51, 0
5, 349425, Note_on_c, 9, 46, 34
5, 349478, Note_on_c, 9, 51, 32
5, 349520, Note_on_c, 9, 44, 33
5, 349611, Note_on_c, 9, 44, 0
5, 349700, Note_on_c, 9, 46, 0
5, 350137, Note_on_c, 9, 51, 0
5, 350466, Note_on_c, 9, 51, 32
5, 350505, Note_on_c, 9, 46, 33
5, 350941, Note_on_c, 9, 51, 0
5, 351116, Note_on_c, 9, 51, 45
5, 351250, Note_on_c, 9, 51, 0
5, 351410, Note_on_c, 9, 51, 41
5, 351478, Note_on_c, 9, 46, 0
5, 352159, Note_on_c, 9, 51, 0
5, 352328, Note_on_c, 9, 51, 45
5, 352378, Note_on_c, 9, 44, 33
5, 352568, Note_on_c, 9, 44, 0
5, 353061, Note_on_c, 9, 51, 0
5, 353318, Note_on_c, 9, 51, 37
5, 353931, Note_on_c, 9, 51, 0
5, 353962, Note_on_c, 9, 38, 60
5, 354183, Note_on_c, 9, 38, 0
5, 354268, Note_on_c, 9, 51, 37
5, 354941, Note_on_c, 9, 51, 0
5, 355241, Note_on_c, 9, 51, 45
5, 355250, Note_on_c, 9, 44, 39
5, 355432, Note_on_c, 9, 44, 0
5, 355962, Note_on_c, 9, 51, 0
5, 356174, Note_on_c, 9, 51, 45
5, 356213, Note_on_c, 9, 44, 34
5, 356467, Note_on_c, 9, 44, 0
5, 356700, Note_on_c, 9, 51, 0
5, 356875, Note_on_c, 9, 51, 46
5, 357030, Note_on_c, 9, 51, 0
5, 357162, Note_on_c, 9, 51, 37
5, 357847, Note_on_c, 9, 36, 12
5, 357952, Note_on_c, 9, 36, 0
5, 357999, Note_on_c, 9, 51, 0
5, 358141, Note_on_c, 9, 51, 43
5, 358152, Note_on_c, 9, 44, 43
5, 358349, Note_on_c, 9, 44, 0
5, 358956, Note_on_c, 9, 51, 0
5, 359103, Note_on_c, 9, 51, 43
5, 359771, Note_on_c, 9, 51, 0
5, 359802, Note_on_c, 9, 38, 41
5, 359907, Note_on_c, 9, 38, 0
5, 360095, Note_on_c, 9, 51, 43
5, 360680, Note_on_c, 9, 51, 0
5, 361017, Note_on_c, 9, 44, 51
5, 361063, Note_on_c, 9, 51, 48
5, 361186, Note_on_c, 9, 44, 0
5, 361729, Note_on_c, 9, 51, 0
5, 361937, Note_on_c, 9, 51, 39
5, 362539, Note_on_c, 9, 51, 0
5, 362588, Note_on_c, 9, 38, 55
5, 362717, Note_on_c, 9, 38, 0
5, 362906, Note_on_c, 9, 51, 37
5, 363665, Note_on_c, 9, 51, 0
5, 363854, Note_on_c, 9, 51, 41
5, 363939, Note_on_c, 9, 44, 42
5, 364056, Note_on_c, 9, 44, 0
5, 364437, Note_on_c, 9, 51, 0
5, 364562, Note_on_c, 9, 51, 34
5, 364702, Note_on_c, 9, 51, 0
5, 364811, Note_on_c, 9, 51, 34
5, 364945, Note_on_c, 9, 46, 38
5, 365425, Note_on_c, 9, 51, 0
5, 365438, Note_on_c, 9, 38, 59
5, 365525, Note_on_c, 9, 36, 20
5, 365597, Note_on_c, 9, 38, 0
5, 365713, Note_on_c, 9, 36, 0
5, 365760, Note_on_c, 9, 51, 39
5, 365945, Note_on_c, 9, 36, 12
5, 366162, Note_on_c, 9, 36, 0
5, 366518, Note_on_c, 9, 51, 0
5, 366620, Note_on_c, 9, 46, 0
5, 366704, Note_on_c, 9, 51, 39
5, 367429, Note_on_c, 9, 51, 0
5, 367678, Note_on_c, 9, 51, 37
5, 368138, Note_on_c, 9, 51, 0
5, 368331, Note_on_c, 9, 51, 39
5, 368465, Note_on_c, 9, 51, 0
5, 368625, Note_on_c, 9, 51, 45
5, 369389, Note_on_c, 9, 51, 0
5, 369615, Note_on_c, 9, 51, 39
5, 369667, Note_on_c, 9, 46, 32
5, 370220, Note_on_c, 9, 51, 0
5, 370257, Note_on_c, 9, 38, 50
5, 370445, Note_on_c, 9, 38, 0
5, 370590, Note_on_c, 9, 51, 37
5, 371036, Note_on_c, 9, 46, 0
5, 371209, Note_on_c, 9, 51, 0
5, 371212, Note_on_c, 9, 38, 62
5, 371345, Note_on_c, 9, 38, 0
5, 371571, Note_on_c, 9, 51, 39
5, 372289, Note_on_c, 9, 51, 0
5, 372537, Note_on_c, 9, 51, 39
5, 372563, Note_on_c, 9, 44, 33
5, 372679, Note_on_c, 9, 44, 0
5, 373109, Note_on_c, 9, 51, 0
5, 373255, Note_on_c, 9, 51, 27
5, 373337, Note_on_c, 9, 51, 0
5, 373494, Note_on_c, 9, 51, 45
5, 374291, Note_on_c, 9, 51, 0
5, 374478, Note_on_c, 9, 51, 46
5, 375045, Note_on_c, 9, 51, 0
5, 375183, Note_on_c, 9, 51, 19
5, 375282, Note_on_c, 9, 51, 0
5, 375404, Note_on_c, 9, 51, 36
5, 375411, Note_on_c, 9, 44, 25
5, 375436, Note_on_c, 9, 38, 30
5, 375512, Note_on_c, 9, 44, 0
5, 375564, Note_on_c, 9, 38, 0
5, 375715, Note_on_c, 9, 38, 42
5, 375782, Note_on_c, 9, 38, 0
5, 376212, Note_on_c, 9, 51, 0
5, 376399, Note_on_c, 9, 51, 41
5, 376418, Note_on_c, 9, 38, 33
5, 376510, Note_on_c, 9, 38, 0
5, 376683, Note_on_c, 9, 38, 38
5, 376847, Note_on_c, 9, 38, 0
5, 377069, Note_on_c, 9, 51, 0
5, 377097, Note_on_c, 9, 36, 15
5, 377189, Note_on_c, 9, 36, 0
5, 377328, Note_on_c, 9, 51, 39
5, 377467, Note_on_c, 9, 36, 15
5, 377599, Note_on_c, 9, 36, 0
5, 377906, Note_on_c, 9, 51, 0
5, 377994, Note_on_c, 9, 44, 35
5, 378063, Note_on_c, 9, 44, 0
5, 378256, Note_on_c, 9, 51, 43
5, 378900, Note_on_c, 9, 51, 0
5, 379207, Note_on_c, 9, 51, 39
5, 379227, Note_on_c, 9, 44, 45
5, 379422, Note_on_c, 9, 44, 0
5, 379798, Note_on_c, 9, 51, 0
5, 379842, Note_on_c, 9, 38, 42
5, 379926, Note_on_c, 9, 38, 0
5, 380177, Note_on_c, 9, 51, 37
5, 380817, Note_on_c, 9, 44, 39
5, 380911, Note_on_c, 9, 51, 0
5, 380968, Note_on_c, 9, 44, 0
5, 381148, Note_on_c, 9, 51, 43
5, 381831, Note_on_c, 9, 51, 0
5, 382068, Note_on_c, 9, 51, 36
5, 382228, Note_on_c, 9, 44, 34
5, 382416, Note_on_c, 9, 44, 0
5, 382668, Note_on_c, 9, 51, 0
5, 383073, Note_on_c, 9, 51, 39
5, 383715, Note_on_c, 9, 44, 44
5, 383790, Note_on_c, 9, 51, 0
5, 383859, Note_on_c, 9, 44, 0
5, 384020, Note_on_c, 9, 51, 43
5, 384646, Note_on_c, 9, 38, 46
5, 384683, Note_on_c, 9, 51, 0
5, 384755, Note_on_c, 9, 38, 0
5, 385012, Note_on_c, 9, 51, 46
5, 385088, Note_on_c, 9, 44, 35
5, 385274, Note_on_c, 9, 44, 0
5, 385726, Note_on_c, 9, 51, 0
5, 385969, Note_on_c, 9, 51, 41
5, 385979, Note_on_c, 9, 45, 22
5, 386097, Note_on_c, 9, 45, 0
5, 386564, Note_on_c, 9, 45, 37
5, 386600, Note_on_c, 9, 44, 39
5, 386647, Note_on_c, 9, 45, 0
5, 386689, Note_on_c, 9, 44, 0
5, 386724, Note_on_c, 9, 51, 0
5, 386904, Note_on_c, 9, 51, 37
5, 387546, Note_on_c, 9, 46, 37
5, 387690, Note_on_c, 9, 51, 0
5, 387708, Note_on_c, 9, 46, 0
5, 387853, Note_on_c, 9, 51, 43
5, 387951, Note_on_c, 9, 45, 21
5, 388104, Note_on_c, 9, 45, 0
5, 388457, Note_on_c, 9, 45, 28
5, 388544, Note_on_c, 9, 45, 0
5, 388615, Note_on_c, 9, 59, 75
5, 388619, Note_on_c, 9, 51, 0
5, 388744, Note_on_c, 9, 59, 0
5, 388858, Note_on_c, 9, 59, 76
5, 389611, Note_on_c, 9, 59, 0
5, 389782, Note_on_c, 9, 59, 75
5, 389820, Note_on_c, 9, 44, 49
5, 390004, Note_on_c, 9, 44, 0
5, 390484, Note_on_c, 9, 59, 0
5, 390746, Note_on_c, 9, 59, 84
5, 390753, Note_on_c, 9, 44, 47
5, 391053, Note_on_c, 9, 44, 0
5, 391298, Note_on_c, 9, 59, 0
5, 391399, Note_on_c, 9, 36, 31
5, 391421, Note_on_c, 9, 59, 58
5, 391530, Note_on_c, 9, 59, 0
5, 391563, Note_on_c, 9, 36, 0
5, 391703, Note_on_c, 9, 59, 91
5, 391775, Note_on_c, 9, 36, 20
5, 391953, Note_on_c, 9, 36, 0
5, 392433, Note_on_c, 9, 59, 0
5, 392630, Note_on_c, 9, 59, 90
5, 392650, Note_on_c, 9, 44, 50
5, 392919, Note_on_c, 9, 44, 0
5, 393198, Note_on_c, 9, 59, 0
5, 393335, Note_on_c, 9, 59, 49
5, 393430, Note_on_c, 9, 59, 0
5, 393627, Note_on_c, 9, 59, 87
5, 394286, Note_on_c, 9, 59, 0
5, 394584, Note_on_c, 9, 59, 89
5, 395193, Note_on_c, 9, 59, 0
5, 395519, Note_on_c, 9, 59, 84
5, 395524, Note_on_c, 9, 44, 52
5, 395695, Note_on_c, 9, 44, 0
5, 396107, Note_on_c, 9, 59, 0
5, 396163, Note_on_c, 9, 38, 46
5, 396241, Note_on_c, 9, 38, 0
5, 396457, Note_on_c, 9, 59, 80
5, 396459, Note_on_c, 9, 44, 58
5, 396739, Note_on_c, 9, 44, 0
5, 397013, Note_on_c, 9, 59, 0
5, 397142, Note_on_c, 9, 59, 58
5, 397224, Note_on_c, 9, 59, 0
5, 397432, Note_on_c, 9, 59, 76
5, 398122, Note_on_c, 9, 59, 0
5, 398395, Note_on_c, 9, 59, 67
5, 398424, Note_on_c, 9, 44, 52
5, 398654, Note_on_c, 9, 44, 0
5, 399018, Note_on_c, 9, 59, 0
5, 399333, Note_on_c, 9, 59, 79
5, 399345, Note_on_c, 9, 38, 40
5, 399373, Note_on_c, 9, 44, 56
5, 399462, Note_on_c, 9, 38, 0
5, 399665, Note_on_c, 9, 38, 34
5, 399740, Note_on_c, 9, 38, 0
5, 399787, Note_on_c, 9, 44, 0
5, 399806, Note_on_c, 9, 59, 0
5, 400040, Note_on_c, 9, 59, 36
5, 400132, Note_on_c, 9, 59, 0
5, 400314, Note_on_c, 9, 59, 62
5, 400967, Note_on_c, 9, 59, 0
5, 401009, Note_on_c, 9, 53, 50
5, 401178, Note_on_c, 9, 53, 0
5, 401280, Note_on_c, 9, 44, 60
5, 401372, Note_on_c, 9, 38, 28
5, 401374, Note_on_c, 9, 59, 26
5, 401444, Note_on_c, 9, 38, 0
5, 401528, Note_on_c, 9, 44, 0
5, 401775, Note_on_c, 9, 59, 0
5, 401979, Note_on_c, 9, 59, 73
5, 402029, Note_on_c, 9, 38, 33
5, 402125, Note_on_c, 9, 38, 0
5, 402154, Note_on_c, 9, 59, 0
5, 402273, Note_on_c, 9, 44, 60
5, 402305, Note_on_c, 9, 59, 36
5, 402748, Note_on_c, 9, 44, 0
5, 402803, Note_on_c, 9, 59, 0
5, 402923, Note_on_c, 9, 53, 46
5, 403142, Note_on_c, 9, 53, 0
5, 403284, Note_on_c, 9, 36, 25
5, 403287, Note_on_c, 9, 59, 51
5, 403532, Note_on_c, 9, 36, 0
5, 403729, Note_on_c, 9, 59, 0
5, 404152, Note_on_c, 9, 59, 62
5, 404240, Note_on_c, 9, 44, 59
5, 404603, Note_on_c, 9, 44, 0
5, 404796, Note_on_c, 9, 59, 0
5, 404846, Note_on_c, 9, 53, 58
5, 404865, Note_on_c, 9, 38, 36
5, 404999, Note_on_c, 9, 38, 0
5, 405050, Note_on_c, 9, 53, 0
5, 405188, Note_on_c, 9, 38, 35
5, 405214, Note_on_c, 9, 59, 36
5, 405639, Note_on_c, 9, 38, 0
5, 405727, Note_on_c, 9, 59, 0
5, 405780, Note_on_c, 9, 53, 64
5, 405875, Note_on_c, 9, 36, 15
5, 405969, Note_on_c, 9, 36, 0
5, 406023, Note_on_c, 9, 53, 0
5, 406130, Note_on_c, 9, 59, 48
5, 406193, Note_on_c, 9, 36, 14
5, 406392, Note_on_c, 9, 36, 0
5, 406717, Note_on_c, 9, 59, 0
5, 406798, Note_on_c, 9, 36, 12
5, 406931, Note_on_c, 9, 36, 0
5, 407065, Note_on_c, 9, 47, 28
5, 407068, Note_on_c, 9, 59, 78
5, 407089, Note_on_c, 9, 44, 64
5, 407148, Note_on_c, 9, 47, 0
5, 407561, Note_on_c, 9, 44, 0
5, 407598, Note_on_c, 9, 59, 0
5, 407680, Note_on_c, 9, 47, 37
5, 407746, Note_on_c, 9, 47, 0
5, 407756, Note_on_c, 9, 59, 33
5, 407854, Note_on_c, 9, 59, 0
5, 408654, Note_on_c, 9, 59, 78
5, 408675, Note_on_c, 9, 36, 16
5, 408789, Note_on_c, 9, 36, 0
5, 408896, Note_on_c, 9, 59, 0
5, 409030, Note_on_c, 9, 59, 53
5, 409649, Note_on_c, 9, 36, 18
5, 409735, Note_on_c, 9, 59, 0
5, 409768, Note_on_c, 9, 36, 0
5, 409922, Note_on_c, 9, 44, 57
5, 409966, Note_on_c, 9, 59, 72
5, 409995, Note_on_c, 9, 47, 9
5, 410200, Note_on_c, 9, 44, 0
5, 410355, Note_on_c, 9, 47, 0
5, 410426, Note_on_c, 9, 59, 0
5, 410532, Note_on_c, 9, 47, 27
5, 410566, Note_on_c, 9, 59, 80
5, 410615, Note_on_c, 9, 47, 0
5, 410927, Note_on_c, 9, 46, 53
5, 411156, Note_on_c, 9, 47, 32
5, 411226, Note_on_c, 9, 47, 0
5, 411324, Note_on_c, 9, 59, 0
5, 411471, Note_on_c, 9, 59, 48
5, 411608, Note_on_c, 9, 59, 0
5, 411858, Note_on_c, 9, 36, 29
5, 411865, Note_on_c, 9, 59, 87
5, 411957, Note_on_c, 9, 46, 0
5, 412195, Note_on_c, 9, 36, 0
5, 412504, Note_on_c, 9, 59, 0
5, 412756, Note_on_c, 9, 44, 52
5, 412772, Note_on_c, 9, 59, 55
5, 412826, Note_on_c, 9, 36, 17
5, 412975, Note_on_c, 9, 36, 0
5, 413034, Note_on_c, 9, 44, 0
5, 413080, Note_on_c, 9, 59, 0
5, 413455, Note_on_c, 9, 59, 90
5, 414095, Note_on_c, 9, 59, 0
5, 414382, Note_on_c, 9, 59, 39
5, 414408, Note_on_c, 9, 53, 22
5, 414480, Note_on_c, 9, 59, 0
5, 414504, Note_on_c, 9, 53, 0
5, 414806, Note_on_c, 9, 53, 61
5, 414833, Note_on_c, 9, 59, 73
5, 415402, Note_on_c, 9, 53, 0
5, 415407, Note_on_c, 9, 59, 0
5, 415645, Note_on_c, 9, 59, 46
5, 415724, Note_on_c, 9, 44, 46
5, 415867, Note_on_c, 9, 59, 0
5, 416002, Note_on_c, 9, 44, 0
5, 416255, Note_on_c, 9, 53, 64
5, 416259, Note_on_c, 9, 59, 73
5, 416701, Note_on_c, 9, 44, 51
5, 416761, Note_on_c, 9, 53, 0
5, 416796, Note_on_c, 9, 59, 0
5, 417096, Note_on_c, 9, 44, 0
5, 417245, Note_on_c, 9, 59, 29
5, 417274, Note_on_c, 9, 45, 29
5, 417315, Note_on_c, 9, 59, 0
5, 417500, Note_on_c, 9, 45, 0
5, 417669, Note_on_c, 9, 45, 33
5, 417715, Note_on_c, 9, 59, 79
5, 417726, Note_on_c, 9, 53, 55
5, 417746, Note_on_c, 9, 45, 0
5, 418219, Note_on_c, 9, 36, 18
5, 418263, Note_on_c, 9, 59, 0
5, 418300, Note_on_c, 9, 36, 0
5, 418379, Note_on_c, 9, 53, 0
5, 418555, Note_on_c, 9, 59, 38
5, 418601, Note_on_c, 9, 44, 50
5, 418857, Note_on_c, 9, 59, 0
5, 418916, Note_on_c, 9, 44, 0
5, 419122, Note_on_c, 9, 53, 65
5, 419146, Note_on_c, 9, 59, 74
5, 419428, Note_on_c, 9, 59, 0
5, 419442, Note_on_c, 9, 53, 0
5, 419597, Note_on_c, 9, 59, 55
5, 420094, Note_on_c, 9, 59, 0
5, 420522, Note_on_c, 9, 59, 78
5, 421170, Note_on_c, 9, 59, 0
5, 421470, Note_on_c, 9, 59, 60
5, 421481, Note_on_c, 9, 44, 50
5, 421746, Note_on_c, 9, 44, 0
5, 421860, Note_on_c, 9, 59, 0
5, 422099, Note_on_c, 9, 53, 49
5, 422113, Note_on_c, 9, 47, 15
5, 422114, Note_on_c, 9, 59, 51
5, 422179, Note_on_c, 9, 47, 0
5, 422188, Note_on_c, 9, 53, 0
5, 422235, Note_on_c, 9, 59, 0
5, 422467, Note_on_c, 9, 59, 66
5, 422473, Note_on_c, 9, 53, 45
5, 422603, Note_on_c, 9, 53, 0
5, 423058, Note_on_c, 9, 59, 0
5, 423457, Note_on_c, 9, 59, 56
5, 423820, Note_on_c, 9, 59, 0
5, 424020, Note_on_c, 9, 59, 64
5, 424039, Note_on_c, 9, 53, 64
5, 424374, Note_on_c, 9, 44, 47
5, 424379, Note_on_c, 9, 53, 0
5, 424401, Note_on_c, 9, 59, 0
5, 424620, Note_on_c, 9, 44, 0
5, 424911, Note_on_c, 9, 59, 42
5, 425069, Note_on_c, 9, 59, 0
5, 425351, Note_on_c, 9, 53, 66
5, 425374, Note_on_c, 9, 59, 69
5, 425897, Note_on_c, 9, 59, 0
5, 425947, Note_on_c, 9, 53, 0
5, 426313, Note_on_c, 9, 59, 44
5, 426421, Note_on_c, 9, 59, 0
5, 426786, Note_on_c, 9, 38, 48
5, 426859, Note_on_c, 9, 59, 76
5, 426870, Note_on_c, 9, 53, 65
5, 426981, Note_on_c, 9, 38, 0
5, 427183, Note_on_c, 9, 59, 0
5, 427191, Note_on_c, 9, 53, 0
5, 427206, Note_on_c, 9, 38, 34
5, 427264, Note_on_c, 9, 44, 43
5, 427490, Note_on_c, 9, 44, 0
5, 427642, Note_on_c, 9, 38, 0
5, 427741, Note_on_c, 9, 36, 21
5, 427846, Note_on_c, 9, 59, 41
5, 427889, Note_on_c, 9, 36, 0
5, 427923, Note_on_c, 9, 59, 0
5, 428215, Note_on_c, 9, 53, 66
5, 428230, Note_on_c, 9, 59, 78
5, 428256, Note_on_c, 9, 46, 39
5, 428753, Note_on_c, 9, 46, 0
5, 428758, Note_on_c, 9, 53, 0
5, 428804, Note_on_c, 9, 59, 0
5, 429167, Note_on_c, 9, 59, 43
5, 429279, Note_on_c, 9, 59, 0
5, 429754, Note_on_c, 9, 53, 59
5, 429794, Note_on_c, 9, 59, 66
5, 429997, Note_on_c, 9, 53, 0
5, 430046, Note_on_c, 9, 59, 0
5, 430054, Note_on_c, 9, 44, 37
5, 430309, Note_on_c, 9, 44, 0
5, 430451, Note_on_c, 9, 59, 50
5, 430528, Note_on_c, 9, 59, 0
5, 430755, Note_on_c, 9, 59, 66
5, 430931, Note_on_c, 9, 59, 0
5, 431064, Note_on_c, 9, 53, 68
5, 431077, Note_on_c, 9, 59, 74
5, 431669, Note_on_c, 9, 59, 0
5, 431702, Note_on_c, 9, 53, 0
5, 432043, Note_on_c, 9, 59, 22
5, 432164, Note_on_c, 9, 59, 0
5, 432330, Note_on_c, 9, 59, 44
5, 432482, Note_on_c, 9, 59, 0
5, 432661, Note_on_c, 9, 53, 69
5, 432677, Note_on_c, 9, 59, 80
5, 432893, Note_on_c, 9, 44, 36
5, 433102, Note_on_c, 9, 44, 0
5, 433167, Note_on_c, 9, 53, 0
5, 433204, Note_on_c, 9, 59, 0
5, 433351, Note_on_c, 9, 59, 40
5, 433430, Note_on_c, 9, 59, 0
5, 433636, Note_on_c, 9, 59, 64
5, 433783, Note_on_c, 9, 59, 0
5, 433962, Note_on_c, 9, 53, 68
5, 433980, Note_on_c, 9, 59, 81
5, 434441, Note_on_c, 9, 45, 32
5, 434577, Note_on_c, 9, 45, 0
5, 434608, Note_on_c, 9, 53, 0
5, 434633, Note_on_c, 9, 59, 0
5, 434855, Note_on_c, 9, 45, 21
5, 434963, Note_on_c, 9, 59, 45
5, 435055, Note_on_c, 9, 59, 0
5, 435302, Note_on_c, 9, 45, 0
5, 435512, Note_on_c, 9, 36, 17
5, 435574, Note_on_c, 9, 59, 42
5, 435635, Note_on_c, 9, 36, 0
5, 435690, Note_on_c, 9, 59, 0
5, 435885, Note_on_c, 9, 59, 40
5, 435901, Note_on_c, 9, 44, 46
5, 435937, Note_on_c, 9, 36, 19
5, 436065, Note_on_c, 9, 59, 0
5, 436108, Note_on_c, 9, 36, 0
5, 436115, Note_on_c, 9, 44, 0
5, 436838, Note_on_c, 9, 36, 24
5, 436845, Note_on_c, 9, 44, 43
5, 436869, Note_on_c, 9, 59, 53
5, 436965, Note_on_c, 9, 59, 0
5, 437163, Note_on_c, 9, 44, 0
5, 437444, Note_on_c, 9, 36, 0
5, 437495, Note_on_c, 9, 59, 49
5, 437587, Note_on_c, 9, 59, 0
5, 437864, Note_on_c, 9, 59, 74
5, 437866, Note_on_c, 9, 53, 65
5, 438372, Note_on_c, 9, 59, 0
5, 438396, Note_on_c, 9, 53, 0
5, 438491, Note_on_c, 9, 45, 10
5, 438603, Note_on_c, 9, 45, 0
5, 438790, Note_on_c, 9, 53, 64
5, 438816, Note_on_c, 9, 59, 71
5, 438843, Note_on_c, 9, 44, 37
5, 438987, Note_on_c, 9, 44, 0
5, 439340, Note_on_c, 9, 59, 0
5, 439348, Note_on_c, 9, 53, 0
5, 439361, Note_on_c, 9, 36, 21
5, 439547, Note_on_c, 9, 36, 0
5, 439790, Note_on_c, 9, 36, 25
5, 439815, Note_on_c, 9, 46, 55
5, 440382, Note_on_c, 9, 59, 54
5, 440399, Note_on_c, 9, 36, 0
5, 440461, Note_on_c, 9, 59, 0
5, 440488, Note_on_c, 9, 46, 0
5, 440713, Note_on_c, 9, 53, 68
5, 440742, Note_on_c, 9, 59, 81
5, 441320, Note_on_c, 9, 59, 0
5, 441322, Note_on_c, 9, 45, 31
5, 441326, Note_on_c, 9, 53, 0
5, 441538, Note_on_c, 9, 45, 0
5, 441660, Note_on_c, 9, 53, 73
5, 441679, Note_on_c, 9, 59, 85
5, 441682, Note_on_c, 9, 44, 45
5, 441758, Note_on_c, 9, 45, 24
5, 441911, Note_on_c, 9, 44, 0
5, 442152, Note_on_c, 9, 45, 0
5, 442272, Note_on_c, 9, 36, 18
5, 442308, Note_on_c, 9, 59, 0
5, 442378, Note_on_c, 9, 53, 0
5, 442452, Note_on_c, 9, 36, 0
5, 442665, Note_on_c, 9, 59, 44
5, 442690, Note_on_c, 9, 36, 31
5, 442740, Note_on_c, 9, 59, 0
5, 443204, Note_on_c, 9, 59, 51
5, 443302, Note_on_c, 9, 59, 0
5, 443367, Note_on_c, 9, 36, 0
5, 443618, Note_on_c, 9, 59, 87
5, 443626, Note_on_c, 9, 53, 74
5, 444200, Note_on_c, 9, 59, 0
5, 444231, Note_on_c, 9, 53, 0
5, 444512, Note_on_c, 9, 53, 74
5, 444527, Note_on_c, 9, 59, 85
5, 444564, Note_on_c, 9, 46, 39
5, 444748, Note_on_c, 9, 46, 0
5, 445153, Note_on_c, 9, 59, 0
5, 445162, Note_on_c, 9, 53, 0
5, 445460, Note_on_c, 9, 59, 51
5, 445535, Note_on_c, 9, 59, 0
5, 445975, Note_on_c, 9, 53, 75
5, 445986, Note_on_c, 9, 59, 89
5, 446442, Note_on_c, 9, 59, 0
5, 446450, Note_on_c, 9, 53, 0
5, 447013, Note_on_c, 9, 59, 52
5, 447096, Note_on_c, 9, 59, 0
5, 447324, Note_on_c, 9, 44, 45
5, 447427, Note_on_c, 9, 59, 84
5, 447427, Note_on_c, 9, 53, 74
5, 447508, Note_on_c, 9, 44, 0
5, 448051, Note_on_c, 9, 59, 0
5, 448117, Note_on_c, 9, 53, 0
5, 448347, Note_on_c, 9, 59, 44
5, 448428, Note_on_c, 9, 59, 0
5, 448960, Note_on_c, 9, 53, 68
5, 448961, Note_on_c, 9, 59, 71
5, 449120, Note_on_c, 9, 59, 0
5, 449201, Note_on_c, 9, 53, 0
5, 449383, Note_on_c, 9, 53, 65
5, 449399, Note_on_c, 9, 59, 78
5, 449976, Note_on_c, 9, 47, 16
5, 450088, Note_on_c, 9, 47, 0
5, 450222, Note_on_c, 9, 59, 0
5, 450295, Note_on_c, 9, 44, 63
5, 450316, Note_on_c, 9, 53, 0
5, 450380, Note_on_c, 9, 59, 45
5, 450459, Note_on_c, 9, 59, 0
5, 450540, Note_on_c, 9, 44, 0
5, 450860, Note_on_c, 9, 59, 56
5, 450936, Note_on_c, 9, 36, 21
5, 450967, Note_on_c, 9, 59, 0
5, 451062, Note_on_c, 9, 36, 0
5, 451269, Note_on_c, 9, 53, 48
5, 451296, Note_on_c, 9, 59, 60
5, 451321, Note_on_c, 9, 47, 18
5, 451418, Note_on_c, 9, 47, 0
5, 451556, Note_on_c, 9, 59, 0
5, 451582, Note_on_c, 9, 53, 0
5, 452207, Note_on_c, 9, 57, 45
5, 452215, Note_on_c, 9, 59, 51
5, 452244, Note_on_c, 9, 53, 35
5, 452434, Note_on_c, 9, 59, 0
5, 452498, Note_on_c, 9, 57, 0
5, 452511, Note_on_c, 9, 53, 0
5, 453157, Note_on_c, 9, 44, 49
5, 453361, Note_on_c, 9, 44, 0
5, 453773, Note_on_c, 9, 59, 32
5, 453946, Note_on_c, 9, 59, 0
5, 454053, Note_on_c, 9, 44, 39
5, 454171, Note_on_c, 9, 59, 41
5, 454426, Note_on_c, 9, 59, 0
5, 454456, Note_on_c, 9, 44, 0
5, 455140, Note_on_c, 9, 59, 44
5, 455238, Note_on_c, 9, 59, 0
5, 455643, Note_on_c, 9, 59, 36
5, 455784, Note_on_c, 9, 59, 0
5, 455977, Note_on_c, 9, 46, 42
5, 456053, Note_on_c, 9, 59, 44
5, 456165, Note_on_c, 9, 59, 0
5, 456529, Note_on_c, 9, 59, 41
5, 456675, Note_on_c, 9, 59, 0
5, 456988, Note_on_c, 9, 59, 41
5, 457080, Note_on_c, 9, 59, 0
5, 457161, Note_on_c, 9, 46, 0
5, 457540, Note_on_c, 9, 36, 15
5, 457669, Note_on_c, 9, 36, 0
5, 457878, Note_on_c, 9, 59, 52
5, 457917, Note_on_c, 9, 52, 35
5, 457917, Note_on_c, 9, 36, 19
5, 458023, Note_on_c, 9, 52, 0
5, 458057, Note_on_c, 9, 59, 0
5, 458182, Note_on_c, 9, 36, 0
5, 458947, Note_on_c, 9, 46, 47
5, 458995, Note_on_c, 9, 59, 37
5, 459151, Note_on_c, 9, 46, 0
5, 459245, Note_on_c, 9, 59, 0
5, 459462, Note_on_c, 9, 59, 33
5, 459654, Note_on_c, 9, 59, 0
5, 459898, Note_on_c, 9, 59, 34
5, 460206, Note_on_c, 9, 59, 0
5, 460392, Note_on_c, 9, 59, 40
5, 460519, Note_on_c, 9, 59, 0
5, 460807, Note_on_c, 9, 59, 77
5, 461439, Note_on_c, 9, 59, 0
5, 461777, Note_on_c, 9, 59, 64
5, 461821, Note_on_c, 9, 44, 33
5, 462011, Note_on_c, 9, 44, 0
5, 462281, Note_on_c, 9, 59, 0
5, 462725, Note_on_c, 9, 59, 65
5, 463137, Note_on_c, 9, 59, 0
5, 463341, Note_on_c, 9, 59, 43
5, 463399, Note_on_c, 9, 36, 11
5, 463444, Note_on_c, 9, 59, 0
5, 463507, Note_on_c, 9, 36, 0
5, 463700, Note_on_c, 9, 59, 77
5, 464451, Note_on_c, 9, 59, 0
5, 464585, Note_on_c, 9, 44, 39
5, 464776, Note_on_c, 9, 44, 0
5, 465264, Note_on_c, 9, 59, 58
5, 465409, Note_on_c, 9, 59, 0
5, 465512, Note_on_c, 9, 44, 46
5, 465623, Note_on_c, 9, 59, 68
5, 465753, Note_on_c, 9, 44, 0
5, 466114, Note_on_c, 9, 59, 0
5, 466589, Note_on_c, 9, 59, 80
5, 467415, Note_on_c, 9, 59, 0
5, 467579, Note_on_c, 9, 46, 52
5, 467621, Note_on_c, 9, 59, 40
5, 467831, Note_on_c, 9, 59, 0
5, 467934, Note_on_c, 9, 46, 0
5, 468225, Note_on_c, 9, 59, 40
5, 468396, Note_on_c, 9, 59, 0
5, 468576, Note_on_c, 9, 59, 47
5, 468951, Note_on_c, 9, 59, 0
5, 469496, Note_on_c, 9, 51, 63
5, 470482, Note_on_c, 9, 44, 40
5, 470673, Note_on_c, 9, 44, 0
5, 471106, Note_on_c, 9, 51, 0
5, 471424, Note_on_c, 9, 51, 43
5, 471895, Note_on_c, 9, 51, 0
5, 472048, Note_on_c, 9, 51, 32
5, 472155, Note_on_c, 9, 51, 0
5, 472300, Note_on_c, 9, 51, 54
5, 473132, Note_on_c, 9, 51, 0
5, 473305, Note_on_c, 9, 51, 45
5, 473318, Note_on_c, 9, 44, 32
5, 473478, Note_on_c, 9, 44, 0
5, 474046, Note_on_c, 9, 51, 0
5, 474239, Note_on_c, 9, 51, 43
5, 474858, Note_on_c, 9, 51, 0
5, 474909, Note_on_c, 9, 38, 34
5, 474999, Note_on_c, 9, 38, 0
5, 475202, Note_on_c, 9, 51, 50
5, 475954, Note_on_c, 9, 51, 0
5, 476149, Note_on_c, 9, 51, 45
5, 476167, Note_on_c, 9, 38, 38
5, 476256, Note_on_c, 9, 44, 38
5, 476294, Note_on_c, 9, 38, 0
5, 476427, Note_on_c, 9, 44, 0
5, 476825, Note_on_c, 9, 38, 25
5, 476863, Note_on_c, 9, 51, 0
5, 476912, Note_on_c, 9, 38, 0
5, 477113, Note_on_c, 9, 51, 41
5, 477180, Note_on_c, 9, 44, 27
5, 477239, Note_on_c, 9, 36, 14
5, 477335, Note_on_c, 9, 36, 0
5, 477424, Note_on_c, 9, 44, 0
5, 477784, Note_on_c, 9, 36, 13
5, 477791, Note_on_c, 9, 38, 52
5, 477816, Note_on_c, 9, 51, 0
5, 477958, Note_on_c, 9, 38, 0
5, 478053, Note_on_c, 9, 36, 0
5, 478127, Note_on_c, 9, 51, 43
5, 478823, Note_on_c, 9, 51, 0
5, 479049, Note_on_c, 9, 51, 45
5, 479167, Note_on_c, 9, 44, 26
5, 479356, Note_on_c, 9, 44, 0
5, 479603, Note_on_c, 9, 51, 0
5, 479767, Note_on_c, 9, 51, 50
5, 479890, Note_on_c, 9, 51, 0
5, 480059, Note_on_c, 9, 51, 57
5, 480709, Note_on_c, 9, 38, 28
5, 480764, Note_on_c, 9, 51, 0
5, 480898, Note_on_c, 9, 38, 0
5, 481051, Note_on_c, 9, 51, 43
5, 481761, Note_on_c, 9, 51, 0
5, 481966, Note_on_c, 9, 51, 41
5, 481999, Note_on_c, 9, 44, 30
5, 482089, Note_on_c, 9, 45, 14
5, 482170, Note_on_c, 9, 44, 0
5, 482292, Note_on_c, 9, 45, 0
5, 482681, Note_on_c, 9, 51, 0
5, 482928, Note_on_c, 9, 51, 43
5, 483519, Note_on_c, 9, 51, 0
5, 483520, Note_on_c, 9, 38, 43
5, 483760, Note_on_c, 9, 38, 0
5, 483866, Note_on_c, 9, 51, 43
5, 484577, Note_on_c, 9, 51, 0
5, 484805, Note_on_c, 9, 51, 39
5, 484849, Note_on_c, 9, 44, 38
5, 485011, Note_on_c, 9, 44, 0
5, 485570, Note_on_c, 9, 51, 0
5, 485773, Note_on_c, 9, 51, 37
5, 485808, Note_on_c, 9, 46, 30
5, 486159, Note_on_c, 9, 46, 0
5, 486433, Note_on_c, 9, 51, 0
5, 486435, Note_on_c, 9, 38, 47
5, 486650, Note_on_c, 9, 38, 0
5, 486773, Note_on_c, 9, 51, 41
5, 487281, Note_on_c, 9, 51, 0
5, 487438, Note_on_c, 9, 51, 45
5, 487557, Note_on_c, 9, 51, 0
5, 487725, Note_on_c, 9, 51, 50
5, 487782, Note_on_c, 9, 44, 36
5, 487958, Note_on_c, 9, 44, 0
5, 488474, Note_on_c, 9, 51, 0
5, 488685, Note_on_c, 9, 51, 43
5, 489323, Note_on_c, 9, 36, 15
5, 489348, Note_on_c, 9, 51, 0
5, 489426, Note_on_c, 9, 36, 0
5, 489602, Note_on_c, 9, 47, 35
5, 489637, Note_on_c, 9, 51, 45
5, 489680, Note_on_c, 9, 47, 0
5, 489852, Note_on_c, 9, 47, 27
5, 489948, Note_on_c, 9, 47, 0
5, 490305, Note_on_c, 9, 51, 0
5, 490306, Note_on_c, 9, 38, 53
5, 490472, Note_on_c, 9, 38, 0
5, 490590, Note_on_c, 9, 45, 25
5, 490615, Note_on_c, 9, 51, 41
5, 490621, Note_on_c, 9, 44, 34
5, 490688, Note_on_c, 9, 45, 0
5, 490768, Note_on_c, 9, 44, 0
5, 490839, Note_on_c, 9, 45, 34
5, 491004, Note_on_c, 9, 45, 0
5, 491248, Note_on_c, 9, 51, 0
5, 491250, Note_on_c, 9, 38, 50
5, 491386, Note_on_c, 9, 38, 0
5, 491578, Note_on_c, 9, 51, 45
5, 491619, Note_on_c, 9, 43, 23
5, 491727, Note_on_c, 9, 43, 0
5, 491910, Note_on_c, 9, 43, 31
5, 492011, Note_on_c, 9, 43, 0
5, 492100, Note_on_c, 9, 51, 0
5, 492262, Note_on_c, 9, 51, 45
5, 492268, Note_on_c, 9, 36, 22
5, 492375, Note_on_c, 9, 36, 0
5, 492459, Note_on_c, 9, 51, 0
5, 492582, Note_on_c, 9, 51, 43
5, 492647, Note_on_c, 9, 36, 24
5, 493039, Note_on_c, 9, 36, 0
5, 493317, Note_on_c, 9, 51, 0
5, 493517, Note_on_c, 9, 51, 39
5, 493574, Note_on_c, 9, 44, 37
5, 493760, Note_on_c, 9, 44, 0
5, 494060, Note_on_c, 9, 51, 0
5, 494470, Note_on_c, 9, 51, 45
5, 494509, Note_on_c, 9, 44, 34
5, 494779, Note_on_c, 9, 44, 0
5, 495042, Note_on_c, 9, 38, 52
5, 495098, Note_on_c, 9, 51, 0
5, 495226, Note_on_c, 9, 38, 0
5, 495372, Note_on_c, 9, 51, 50
5, 496124, Note_on_c, 9, 51, 0
5, 496327, Note_on_c, 9, 51, 41
5, 496343, Note_on_c, 9, 44, 39
5, 496557, Note_on_c, 9, 44, 0
5, 497079, Note_on_c, 9, 51, 0
5, 497289, Note_on_c, 9, 51, 37
5, 497940, Note_on_c, 9, 38, 56
5, 497986, Note_on_c, 9, 51, 0
5, 498089, Note_on_c, 9, 38, 0
5, 498251, Note_on_c, 9, 51, 63
5, 498940, Note_on_c, 9, 38, 19
5, 499096, Note_on_c, 9, 51, 0
5, 499135, Note_on_c, 9, 38, 0
5, 499219, Note_on_c, 9, 51, 50
5, 499304, Note_on_c, 9, 44, 42
5, 499495, Note_on_c, 9, 44, 0
5, 499834, Note_on_c, 9, 51, 0
5, 499963, Note_on_c, 9, 51, 34
5, 500077, Note_on_c, 9, 51, 0
5, 500222, Note_on_c, 9, 51, 55
5, 500853, Note_on_c, 9, 51, 0
5, 501129, Note_on_c, 9, 51, 54
5, 501775, Note_on_c, 9, 51, 0
5, 502112, Note_on_c, 9, 44, 38
5, 502119, Note_on_c, 9, 51, 46
5, 502283, Note_on_c, 9, 44, 0
5, 502739, Note_on_c, 9, 51, 0
5, 503070, Note_on_c, 9, 51, 46
5, 503115, Note_on_c, 9, 46, 47
5, 503438, Note_on_c, 9, 46, 0
5, 503655, Note_on_c, 9, 51, 0
5, 503693, Note_on_c, 9, 36, 20
5, 503700, Note_on_c, 9, 38, 55
5, 503818, Note_on_c, 9, 36, 0
5, 503880, Note_on_c, 9, 38, 0
5, 504027, Note_on_c, 9, 51, 45
5, 504077, Note_on_c, 9, 36, 15
5, 504265, Note_on_c, 9, 36, 0
5, 504673, Note_on_c, 9, 51, 0
5, 504939, Note_on_c, 9, 46, 47
5, 505002, Note_on_c, 9, 44, 46
5, 505019, Note_on_c, 9, 51, 61
5, 505170, Note_on_c, 9, 46, 0
5, 505212, Note_on_c, 9, 44, 0
5, 505753, Note_on_c, 9, 51, 0
5, 505926, Note_on_c, 9, 51, 41
5, 506565, Note_on_c, 9, 51, 0
5, 506594, Note_on_c, 9, 38, 44
5, 506822, Note_on_c, 9, 38, 0
5, 506916, Note_on_c, 9, 51, 41
5, 507692, Note_on_c, 9, 51, 0
5, 507864, Note_on_c, 9, 51, 39
5, 507878, Note_on_c, 9, 44, 39
5, 508064, Note_on_c, 9, 44, 0
5, 508581, Note_on_c, 9, 51, 0
5, 508785, Note_on_c, 9, 51, 39
5, 509415, Note_on_c, 9, 51, 0
5, 509435, Note_on_c, 9, 38, 50
5, 509652, Note_on_c, 9, 38, 0
5, 509759, Note_on_c, 9, 51, 43
5, 510473, Note_on_c, 9, 51, 0
5, 510714, Note_on_c, 9, 59, 34
5, 510717, Note_on_c, 9, 51, 41
5, 510797, Note_on_c, 9, 44, 40
5, 510977, Note_on_c, 9, 44, 0
5, 511111, Note_on_c, 9, 59, 0
5, 511407, Note_on_c, 9, 51, 0
5, 511420, Note_on_c, 9, 38, 29
5, 511676, Note_on_c, 9, 59, 50
5, 511685, Note_on_c, 9, 38, 0
5, 511733, Note_on_c, 9, 51, 37
5, 512329, Note_on_c, 9, 59, 0
5, 512456, Note_on_c, 9, 51, 0
5, 512456, End_track
0, 0, End_of_file
