0, 0, Header, 0, 1, 384
1, 0, Start_track
1, 0, Title_t, "Peace Piece"
1, 0, System_exclusive, 5, 126, 127, 9, 1, 247
1, 0, Time_signature, 4, 2, 24, 8
1, 0, Key_signature, 0, "major"
1, 0, Tempo, 500000
1, 0, Sequencer_specific, 21, 67, 115, 10, 0, 5, 75, 79, 79, 79, 79, 79, 79, 79, 79, 79, 79, 79, 79, 79, 79, 79
1, 0, Sequencer_specific, 6, 67, 115, 10, 0, 4, 1
1, 0, Sequencer_specific, 9, 67, 123, 0, 88, 70, 48, 50, 0, 0
1, 0, Control_c, 0, 11, 127
1, 0, Control_c, 0, 94, 0
1, 0, Control_c, 0, 101, 0
1, 1, Control_c, 0, 100, 1
1, 2, Control_c, 0, 6, 64
1, 3, Control_c, 0, 38, 0
1, 3, Pitch_bend_c, 0, 8192
1, 3, Control_c, 0, 71, 43
1, 3, Control_c, 0, 74, 46
1, 385, Control_c, 0, 7, 107
1, 385, Control_c, 0, 10, 64
1, 385, Control_c, 0, 91, 10
1, 385, Control_c, 0, 93, 0
1, 2304, Note_on_c, 0, 43, 75
1, 2576, Control_c, 0, 64, 24
1, 2612, Control_c, 0, 64, 40
1, 2644, Control_c, 0, 64, 56
1, 2668, Control_c, 0, 64, 72
1, 2692, Control_c, 0, 64, 88
1, 2728, Control_c, 0, 64, 104
1, 2756, Control_c, 0, 64, 127
1, 3092, Control_c, 0, 64, 104
1, 3104, Control_c, 0, 64, 88
1, 3124, Control_c, 0, 64, 72
1, 3164, Control_c, 0, 64, 56
1, 3184, Control_c, 0, 64, 40
1, 3200, Control_c, 0, 64, 24
1, 3208, Control_c, 0, 64, 0
1, 3248, Note_on_c, 0, 36, 67
1, 3296, Note_on_c, 0, 43, 0
1, 3392, Control_c, 0, 64, 24
1, 3400, Control_c, 0, 64, 40
1, 3408, Control_c, 0, 64, 56
1, 3412, Control_c, 0, 64, 72
1, 3420, Control_c, 0, 64, 88
1, 3428, Control_c, 0, 64, 104
1, 3432, Control_c, 0, 64, 127
1, 3580, Note_on_c, 0, 36, 0
1, 4036, Note_on_c, 0, 64, 60
1, 4040, Note_on_c, 0, 60, 63
1, 4044, Note_on_c, 0, 59, 63
1, 4452, Note_on_c, 0, 60, 0
1, 4472, Note_on_c, 0, 59, 0
1, 4496, Note_on_c, 0, 64, 0
1, 4920, Control_c, 0, 64, 104
1, 4920, Note_on_c, 0, 65, 49
1, 4920, Note_on_c, 0, 55, 54
1, 4924, Control_c, 0, 64, 88
1, 4928, Control_c, 0, 64, 72
1, 4928, Note_on_c, 0, 60, 54
1, 4928, Note_on_c, 0, 57, 49
1, 4932, Control_c, 0, 64, 56
1, 4936, Control_c, 0, 64, 40
1, 4936, Control_c, 0, 64, 24
1, 4940, Control_c, 0, 64, 0
1, 5076, Control_c, 0, 64, 24
1, 5084, Control_c, 0, 64, 40
1, 5092, Control_c, 0, 64, 56
1, 5096, Control_c, 0, 64, 72
1, 5100, Control_c, 0, 64, 88
1, 5108, Control_c, 0, 64, 104
1, 5112, Control_c, 0, 64, 127
1, 5220, Note_on_c, 0, 60, 0
1, 5232, Note_on_c, 0, 65, 0
1, 5312, Note_on_c, 0, 57, 0
1, 5328, Note_on_c, 0, 55, 0
1, 5824, Note_on_c, 0, 43, 51
1, 6808, Control_c, 0, 64, 104
1, 6812, Control_c, 0, 64, 88
1, 6816, Control_c, 0, 64, 72
1, 6820, Control_c, 0, 64, 56
1, 6820, Note_on_c, 0, 36, 51
1, 6824, Control_c, 0, 64, 40
1, 6828, Control_c, 0, 64, 24
1, 6832, Control_c, 0, 64, 0
1, 6908, Note_on_c, 0, 43, 0
1, 6964, Control_c, 0, 64, 24
1, 6972, Control_c, 0, 64, 40
1, 6976, Control_c, 0, 64, 56
1, 6980, Control_c, 0, 64, 72
1, 6988, Control_c, 0, 64, 88
1, 6992, Control_c, 0, 64, 104
1, 6996, Control_c, 0, 64, 127
1, 7084, Note_on_c, 0, 36, 0
1, 7636, Note_on_c, 0, 64, 44
1, 7644, Note_on_c, 0, 60, 54
1, 7652, Note_on_c, 0, 59, 48
1, 8004, Note_on_c, 0, 64, 0
1, 8020, Note_on_c, 0, 59, 0
1, 8032, Note_on_c, 0, 60, 0
1, 8396, Control_c, 0, 64, 104
1, 8400, Control_c, 0, 64, 88
1, 8404, Control_c, 0, 64, 72
1, 8408, Control_c, 0, 64, 56
1, 8416, Control_c, 0, 64, 40
1, 8420, Control_c, 0, 64, 24
1, 8428, Control_c, 0, 64, 0
1, 8456, Note_on_c, 0, 65, 38
1, 8460, Note_on_c, 0, 55, 40
1, 8460, Note_on_c, 0, 57, 48
1, 8468, Note_on_c, 0, 60, 49
1, 8484, Control_c, 0, 64, 24
1, 8492, Control_c, 0, 64, 40
1, 8504, Control_c, 0, 64, 56
1, 8508, Control_c, 0, 64, 72
1, 8516, Control_c, 0, 64, 88
1, 8520, Control_c, 0, 64, 104
1, 8524, Control_c, 0, 64, 127
1, 8656, Note_on_c, 0, 60, 0
1, 8664, Note_on_c, 0, 65, 0
1, 8736, Note_on_c, 0, 57, 0
1, 8740, Note_on_c, 0, 55, 0
1, 9372, Note_on_c, 0, 43, 60
1, 9380, Note_on_c, 0, 79, 107
1, 10328, Note_on_c, 0, 36, 68
1, 10344, Note_on_c, 0, 86, 81
1, 10348, Control_c, 0, 64, 88
1, 10352, Control_c, 0, 64, 72
1, 10352, Control_c, 0, 64, 56
1, 10360, Control_c, 0, 64, 40
1, 10364, Control_c, 0, 64, 24
1, 10364, Control_c, 0, 64, 0
1, 10368, Note_on_c, 0, 43, 0
1, 10376, Note_on_c, 0, 79, 0
1, 10492, Control_c, 0, 64, 24
1, 10496, Control_c, 0, 64, 40
1, 10504, Control_c, 0, 64, 56
1, 10508, Control_c, 0, 64, 72
1, 10512, Control_c, 0, 64, 88
1, 10520, Control_c, 0, 64, 104
1, 10520, Control_c, 0, 64, 127
1, 10644, Note_on_c, 0, 36, 0
1, 11172, Note_on_c, 0, 64, 53
1, 11180, Note_on_c, 0, 60, 56
1, 11180, Note_on_c, 0, 59, 57
1, 11520, Note_on_c, 0, 60, 0
1, 11536, Note_on_c, 0, 59, 0
1, 11552, Note_on_c, 0, 64, 0
1, 12072, Note_on_c, 0, 55, 44
1, 12080, Control_c, 0, 64, 104
1, 12084, Control_c, 0, 64, 72
1, 12084, Note_on_c, 0, 65, 43
1, 12084, Note_on_c, 0, 57, 45
1, 12088, Control_c, 0, 64, 56
1, 12088, Note_on_c, 0, 60, 49
1, 12092, Control_c, 0, 64, 40
1, 12096, Control_c, 0, 64, 0
1, 12224, Control_c, 0, 64, 24
1, 12232, Control_c, 0, 64, 40
1, 12232, Control_c, 0, 64, 56
1, 12240, Control_c, 0, 64, 72
1, 12244, Control_c, 0, 64, 88
1, 12248, Control_c, 0, 64, 104
1, 12252, Control_c, 0, 64, 127
1, 12320, Note_on_c, 0, 60, 0
1, 12328, Note_on_c, 0, 65, 0
1, 12388, Note_on_c, 0, 55, 0
1, 12396, Note_on_c, 0, 57, 0
1, 12832, Note_on_c, 0, 86, 0
1, 12956, Note_on_c, 0, 43, 55
1, 13384, Note_on_c, 0, 91, 117
1, 13720, Control_c, 0, 64, 104
1, 13724, Control_c, 0, 64, 88
1, 13724, Control_c, 0, 64, 72
1, 13728, Control_c, 0, 64, 56
1, 13732, Control_c, 0, 64, 40
1, 13736, Control_c, 0, 64, 24
1, 13740, Control_c, 0, 64, 0
1, 13744, Note_on_c, 0, 36, 64
1, 13748, Note_on_c, 0, 86, 88
1, 13772, Note_on_c, 0, 43, 0
1, 13780, Note_on_c, 0, 91, 0
1, 13848, Control_c, 0, 64, 24
1, 13856, Control_c, 0, 64, 40
1, 13864, Control_c, 0, 64, 56
1, 13864, Control_c, 0, 64, 72
1, 13868, Control_c, 0, 64, 88
1, 13876, Control_c, 0, 64, 104
1, 13876, Control_c, 0, 64, 127
1, 13960, Note_on_c, 0, 36, 0
1, 14432, Note_on_c, 0, 64, 72
1, 14440, Note_on_c, 0, 59, 68
1, 14444, Note_on_c, 0, 60, 68
1, 14772, Note_on_c, 0, 59, 0
1, 14780, Note_on_c, 0, 60, 0
1, 14788, Note_on_c, 0, 64, 0
1, 15152, Note_on_c, 0, 55, 63
1, 15156, Note_on_c, 0, 57, 63
1, 15160, Note_on_c, 0, 60, 60
1, 15164, Note_on_c, 0, 65, 60
1, 15188, Control_c, 0, 64, 88
1, 15188, Control_c, 0, 64, 72
1, 15192, Control_c, 0, 64, 56
1, 15196, Control_c, 0, 64, 40
1, 15200, Control_c, 0, 64, 24
1, 15204, Control_c, 0, 64, 0
1, 15348, Control_c, 0, 64, 24
1, 15356, Control_c, 0, 64, 40
1, 15360, Control_c, 0, 64, 56
1, 15368, Control_c, 0, 64, 72
1, 15372, Control_c, 0, 64, 88
1, 15380, Control_c, 0, 64, 104
1, 15384, Control_c, 0, 64, 127
1, 15432, Note_on_c, 0, 65, 0
1, 15440, Note_on_c, 0, 60, 0
1, 15476, Note_on_c, 0, 55, 0
1, 15496, Note_on_c, 0, 57, 0
1, 16036, Note_on_c, 0, 43, 58
1, 16764, Control_c, 0, 64, 104
1, 16764, Control_c, 0, 64, 88
1, 16768, Control_c, 0, 64, 72
1, 16772, Control_c, 0, 64, 56
1, 16776, Control_c, 0, 64, 40
1, 16780, Control_c, 0, 64, 24
1, 16784, Control_c, 0, 64, 0
1, 16816, Note_on_c, 0, 36, 68
1, 16868, Note_on_c, 0, 43, 0
1, 16936, Control_c, 0, 64, 24
1, 16944, Control_c, 0, 64, 40
1, 16948, Control_c, 0, 64, 56
1, 16952, Control_c, 0, 64, 72
1, 16956, Control_c, 0, 64, 88
1, 16964, Control_c, 0, 64, 104
1, 16968, Control_c, 0, 64, 127
1, 17100, Note_on_c, 0, 36, 0
1, 17656, Note_on_c, 0, 64, 44
1, 17664, Note_on_c, 0, 60, 52
1, 17672, Note_on_c, 0, 59, 49
1, 17940, Note_on_c, 0, 59, 0
1, 17944, Note_on_c, 0, 60, 0
1, 17964, Note_on_c, 0, 64, 0
1, 18500, Note_on_c, 0, 55, 42
1, 18504, Note_on_c, 0, 57, 41
1, 18508, Note_on_c, 0, 65, 43
1, 18516, Control_c, 0, 64, 88
1, 18520, Note_on_c, 0, 60, 41
1, 18524, Control_c, 0, 64, 72
1, 18528, Control_c, 0, 64, 56
1, 18532, Control_c, 0, 64, 40
1, 18536, Control_c, 0, 64, 24
1, 18544, Control_c, 0, 64, 0
1, 18700, Control_c, 0, 64, 24
1, 18708, Control_c, 0, 64, 40
1, 18712, Control_c, 0, 64, 56
1, 18716, Control_c, 0, 64, 72
1, 18724, Control_c, 0, 64, 88
1, 18728, Control_c, 0, 64, 104
1, 18732, Control_c, 0, 64, 127
1, 18792, Note_on_c, 0, 60, 0
1, 18800, Note_on_c, 0, 65, 0
1, 18852, Note_on_c, 0, 57, 0
1, 18852, Note_on_c, 0, 55, 0
1, 19428, Note_on_c, 0, 43, 54
1, 20112, Note_on_c, 0, 86, 0
1, 20260, Control_c, 0, 64, 104
1, 20264, Control_c, 0, 64, 88
1, 20272, Control_c, 0, 64, 72
1, 20280, Control_c, 0, 64, 56
1, 20336, Control_c, 0, 64, 72
1, 20352, Control_c, 0, 64, 88
1, 20360, Control_c, 0, 64, 104
1, 20364, Control_c, 0, 64, 127
1, 20380, Note_on_c, 0, 36, 54
1, 20472, Note_on_c, 0, 43, 0
1, 20524, Note_on_c, 0, 36, 0
1, 21132, Note_on_c, 0, 96, 75
1, 21276, Note_on_c, 0, 95, 74
1, 21292, Control_c, 0, 64, 104
1, 21296, Control_c, 0, 64, 88
1, 21300, Control_c, 0, 64, 72
1, 21300, Control_c, 0, 64, 56
1, 21308, Control_c, 0, 64, 40
1, 21312, Control_c, 0, 64, 24
1, 21316, Control_c, 0, 64, 0
1, 21328, Note_on_c, 0, 60, 45
1, 21340, Note_on_c, 0, 64, 32
1, 21344, Note_on_c, 0, 59, 51
1, 21356, Note_on_c, 0, 96, 0
1, 21420, Note_on_c, 0, 93, 85
1, 21444, Control_c, 0, 64, 24
1, 21452, Control_c, 0, 64, 40
1, 21456, Control_c, 0, 64, 56
1, 21460, Control_c, 0, 64, 72
1, 21464, Control_c, 0, 64, 88
1, 21468, Note_on_c, 0, 95, 0
1, 21472, Control_c, 0, 64, 104
1, 21472, Control_c, 0, 64, 127
1, 21740, Note_on_c, 0, 59, 0
1, 21784, Note_on_c, 0, 60, 0
1, 21808, Note_on_c, 0, 64, 0
1, 22128, Note_on_c, 0, 65, 55
1, 22132, Note_on_c, 0, 55, 49
1, 22136, Note_on_c, 0, 57, 54
1, 22140, Note_on_c, 0, 60, 48
1, 22140, Control_c, 0, 64, 104
1, 22144, Control_c, 0, 64, 88
1, 22148, Control_c, 0, 64, 72
1, 22156, Control_c, 0, 64, 56
1, 22168, Control_c, 0, 64, 40
1, 22204, Control_c, 0, 64, 56
1, 22216, Control_c, 0, 64, 72
1, 22224, Control_c, 0, 64, 88
1, 22236, Control_c, 0, 64, 104
1, 22236, Control_c, 0, 64, 127
1, 22352, Note_on_c, 0, 60, 0
1, 22360, Note_on_c, 0, 65, 0
1, 22428, Note_on_c, 0, 57, 0
1, 22432, Note_on_c, 0, 55, 0
1, 22928, Note_on_c, 0, 43, 71
1, 23180, Note_on_c, 0, 93, 0
1, 23664, Control_c, 0, 64, 104
1, 23668, Control_c, 0, 64, 88
1, 23668, Control_c, 0, 64, 72
1, 23676, Control_c, 0, 64, 56
1, 23676, Note_on_c, 0, 91, 115
1, 23680, Control_c, 0, 64, 40
1, 23684, Control_c, 0, 64, 24
1, 23688, Note_on_c, 0, 36, 74
1, 23692, Control_c, 0, 64, 0
1, 23720, Note_on_c, 0, 43, 0
1, 23784, Control_c, 0, 64, 24
1, 23792, Control_c, 0, 64, 40
1, 23800, Control_c, 0, 64, 56
1, 23804, Control_c, 0, 64, 72
1, 23808, Control_c, 0, 64, 88
1, 23816, Control_c, 0, 64, 104
1, 23816, Control_c, 0, 64, 127
1, 23912, Note_on_c, 0, 36, 0
1, 24096, Note_on_c, 0, 91, 0
1, 24104, Note_on_c, 0, 88, 89
1, 24512, Note_on_c, 0, 64, 53
1, 24520, Note_on_c, 0, 86, 78
1, 24520, Note_on_c, 0, 60, 61
1, 24528, Note_on_c, 0, 59, 57
1, 24556, Note_on_c, 0, 88, 0
1, 24576, Control_c, 0, 64, 104
1, 24580, Control_c, 0, 64, 88
1, 24584, Control_c, 0, 64, 72
1, 24584, Control_c, 0, 64, 56
1, 24588, Control_c, 0, 64, 40
1, 24596, Control_c, 0, 64, 24
1, 24596, Control_c, 0, 64, 0
1, 24740, Control_c, 0, 64, 24
1, 24748, Control_c, 0, 64, 40
1, 24752, Control_c, 0, 64, 56
1, 24760, Control_c, 0, 64, 72
1, 24768, Control_c, 0, 64, 88
1, 24772, Control_c, 0, 64, 104
1, 24776, Control_c, 0, 64, 127
1, 25072, Note_on_c, 0, 60, 0
1, 25076, Note_on_c, 0, 59, 0
1, 25092, Note_on_c, 0, 64, 0
1, 25412, Control_c, 0, 64, 104
1, 25416, Control_c, 0, 64, 88
1, 25416, Control_c, 0, 64, 72
1, 25424, Control_c, 0, 64, 56
1, 25428, Control_c, 0, 64, 40
1, 25436, Note_on_c, 0, 57, 41
1, 25436, Note_on_c, 0, 55, 38
1, 25436, Note_on_c, 0, 60, 43
1, 25436, Note_on_c, 0, 65, 38
1, 25444, Control_c, 0, 64, 24
1, 25448, Control_c, 0, 64, 0
1, 25496, Control_c, 0, 64, 24
1, 25508, Control_c, 0, 64, 40
1, 25520, Control_c, 0, 64, 56
1, 25524, Control_c, 0, 64, 72
1, 25532, Control_c, 0, 64, 88
1, 25536, Control_c, 0, 64, 104
1, 25540, Control_c, 0, 64, 127
1, 25644, Note_on_c, 0, 65, 0
1, 25656, Note_on_c, 0, 60, 0
1, 25712, Note_on_c, 0, 55, 0
1, 25728, Note_on_c, 0, 57, 0
1, 26288, Control_c, 0, 64, 104
1, 26288, Note_on_c, 0, 43, 49
1, 26292, Control_c, 0, 64, 88
1, 26296, Control_c, 0, 64, 72
1, 26300, Note_on_c, 0, 81, 60
1, 26300, Control_c, 0, 64, 56
1, 26304, Control_c, 0, 64, 40
1, 26312, Control_c, 0, 64, 24
1, 26320, Control_c, 0, 64, 0
1, 26404, Control_c, 0, 64, 24
1, 26416, Control_c, 0, 64, 40
1, 26420, Control_c, 0, 64, 56
1, 26428, Control_c, 0, 64, 72
1, 26432, Control_c, 0, 64, 88
1, 26440, Control_c, 0, 64, 104
1, 26444, Control_c, 0, 64, 127
1, 26476, Note_on_c, 0, 86, 0
1, 27184, Control_c, 0, 64, 88
1, 27188, Control_c, 0, 64, 72
1, 27192, Note_on_c, 0, 81, 0
1, 27192, Note_on_c, 0, 43, 0
1, 27192, Note_on_c, 0, 79, 56
1, 27192, Control_c, 0, 64, 56
1, 27196, Note_on_c, 0, 36, 49
1, 27196, Control_c, 0, 64, 40
1, 27200, Control_c, 0, 64, 24
1, 27208, Control_c, 0, 64, 0
1, 27316, Control_c, 0, 64, 24
1, 27324, Control_c, 0, 64, 40
1, 27328, Control_c, 0, 64, 56
1, 27332, Control_c, 0, 64, 72
1, 27340, Control_c, 0, 64, 88
1, 27344, Control_c, 0, 64, 104
1, 27348, Control_c, 0, 64, 127
1, 27468, Note_on_c, 0, 36, 0
1, 28012, Note_on_c, 0, 64, 57
1, 28020, Note_on_c, 0, 59, 59
1, 28020, Note_on_c, 0, 60, 59
1, 28336, Note_on_c, 0, 60, 0
1, 28348, Note_on_c, 0, 59, 0
1, 28372, Note_on_c, 0, 64, 0
1, 28784, Control_c, 0, 64, 104
1, 28784, Control_c, 0, 64, 88
1, 28788, Control_c, 0, 64, 72
1, 28796, Control_c, 0, 64, 56
1, 28796, Control_c, 0, 64, 40
1, 28804, Control_c, 0, 64, 24
1, 28808, Note_on_c, 0, 57, 58
1, 28812, Control_c, 0, 64, 0
1, 28812, Note_on_c, 0, 60, 56
1, 28816, Note_on_c, 0, 65, 60
1, 28820, Note_on_c, 0, 55, 57
1, 28888, Control_c, 0, 64, 24
1, 28896, Control_c, 0, 64, 40
1, 28904, Control_c, 0, 64, 56
1, 28908, Control_c, 0, 64, 72
1, 28912, Control_c, 0, 64, 88
1, 28916, Control_c, 0, 64, 104
1, 28920, Control_c, 0, 64, 127
1, 28972, Note_on_c, 0, 79, 0
1, 29032, Note_on_c, 0, 65, 0
1, 29032, Note_on_c, 0, 60, 0
1, 29100, Note_on_c, 0, 57, 0
1, 29120, Note_on_c, 0, 55, 0
1, 29660, Note_on_c, 0, 43, 63
1, 30084, Note_on_c, 0, 76, 115
1, 30108, Note_on_c, 0, 43, 0
1, 30504, Note_on_c, 0, 76, 0
1, 30504, Note_on_c, 0, 74, 96
1, 30504, Note_on_c, 0, 36, 71
1, 30532, Control_c, 0, 64, 104
1, 30536, Control_c, 0, 64, 88
1, 30536, Control_c, 0, 64, 72
1, 30540, Control_c, 0, 64, 56
1, 30544, Control_c, 0, 64, 40
1, 30548, Control_c, 0, 64, 24
1, 30552, Control_c, 0, 64, 0
1, 30664, Control_c, 0, 64, 24
1, 30672, Control_c, 0, 64, 40
1, 30676, Control_c, 0, 64, 56
1, 30680, Control_c, 0, 64, 72
1, 30684, Control_c, 0, 64, 88
1, 30692, Control_c, 0, 64, 104
1, 30692, Control_c, 0, 64, 127
1, 30788, Note_on_c, 0, 36, 0
1, 31360, Note_on_c, 0, 64, 54
1, 31372, Note_on_c, 0, 59, 57
1, 31372, Note_on_c, 0, 60, 58
1, 31668, Note_on_c, 0, 60, 0
1, 31672, Note_on_c, 0, 59, 0
1, 31736, Note_on_c, 0, 64, 0
1, 32244, Note_on_c, 0, 55, 45
1, 32248, Note_on_c, 0, 57, 47
1, 32248, Control_c, 0, 64, 104
1, 32248, Note_on_c, 0, 65, 46
1, 32252, Control_c, 0, 64, 72
1, 32256, Note_on_c, 0, 60, 54
1, 32256, Control_c, 0, 64, 56
1, 32264, Control_c, 0, 64, 40
1, 32272, Control_c, 0, 64, 24
1, 32276, Control_c, 0, 64, 0
1, 32352, Control_c, 0, 64, 24
1, 32360, Control_c, 0, 64, 40
1, 32368, Control_c, 0, 64, 56
1, 32376, Control_c, 0, 64, 72
1, 32376, Control_c, 0, 64, 88
1, 32384, Control_c, 0, 64, 104
1, 32388, Control_c, 0, 64, 127
1, 32504, Note_on_c, 0, 60, 0
1, 32512, Note_on_c, 0, 65, 0
1, 32588, Note_on_c, 0, 57, 0
1, 32588, Note_on_c, 0, 55, 0
1, 33200, Note_on_c, 0, 69, 60
1, 33220, Note_on_c, 0, 43, 52
1, 33272, Note_on_c, 0, 74, 0
1, 34148, Note_on_c, 0, 69, 0
1, 34172, Note_on_c, 0, 67, 51
1, 34184, Note_on_c, 0, 43, 0
1, 34188, Note_on_c, 0, 36, 46
1, 34196, Control_c, 0, 64, 104
1, 34196, Control_c, 0, 64, 88
1, 34200, Control_c, 0, 64, 72
1, 34204, Control_c, 0, 64, 56
1, 34208, Control_c, 0, 64, 40
1, 34216, Control_c, 0, 64, 24
1, 34220, Control_c, 0, 64, 0
1, 34324, Control_c, 0, 64, 24
1, 34332, Control_c, 0, 64, 40
1, 34336, Control_c, 0, 64, 56
1, 34344, Control_c, 0, 64, 72
1, 34348, Control_c, 0, 64, 88
1, 34352, Control_c, 0, 64, 104
1, 34356, Control_c, 0, 64, 127
1, 34460, Note_on_c, 0, 36, 0
1, 34752, Note_on_c, 0, 67, 0
1, 35040, Note_on_c, 0, 64, 31
1, 35040, Note_on_c, 0, 60, 39
1, 35048, Note_on_c, 0, 59, 43
1, 35328, Note_on_c, 0, 60, 0
1, 35352, Note_on_c, 0, 59, 0
1, 35368, Note_on_c, 0, 64, 0
1, 35904, Note_on_c, 0, 55, 41
1, 35908, Note_on_c, 0, 57, 41
1, 35912, Note_on_c, 0, 65, 39
1, 35920, Note_on_c, 0, 60, 47
1, 35940, Control_c, 0, 64, 104
1, 35944, Control_c, 0, 64, 88
1, 35948, Control_c, 0, 64, 72
1, 35952, Control_c, 0, 64, 56
1, 35956, Control_c, 0, 64, 40
1, 35960, Control_c, 0, 64, 24
1, 35964, Control_c, 0, 64, 0
1, 36056, Control_c, 0, 64, 24
1, 36064, Control_c, 0, 64, 40
1, 36068, Control_c, 0, 64, 56
1, 36076, Control_c, 0, 64, 72
1, 36080, Control_c, 0, 64, 88
1, 36080, Control_c, 0, 64, 104
1, 36084, Control_c, 0, 64, 127
1, 36168, Note_on_c, 0, 60, 0
1, 36188, Note_on_c, 0, 65, 0
1, 36236, Note_on_c, 0, 55, 0
1, 36252, Note_on_c, 0, 57, 0
1, 36812, Note_on_c, 0, 43, 41
1, 36894, Control_c, 0, 11, 127
1, 36894, Control_c, 0, 94, 0
1, 36894, Control_c, 0, 101, 0
1, 36895, Control_c, 0, 100, 1
1, 36896, Control_c, 0, 6, 64
1, 36897, Control_c, 0, 38, 0
1, 36897, Pitch_bend_c, 0, 8192
1, 36897, Control_c, 0, 71, 43
1, 36897, Control_c, 0, 74, 46
1, 37268, Control_c, 0, 64, 0
1, 37592, Note_on_c, 0, 43, 0
1, 37662, Note_on_c, 0, 36, 60
1, 37710, Control_c, 0, 64, 24
1, 37722, Control_c, 0, 64, 40
1, 37730, Control_c, 0, 64, 56
1, 37738, Control_c, 0, 64, 72
1, 37742, Control_c, 0, 64, 88
1, 37750, Control_c, 0, 64, 104
1, 37754, Control_c, 0, 64, 127
1, 37862, Note_on_c, 0, 36, 0
1, 38582, Note_on_c, 0, 64, 34
1, 38590, Note_on_c, 0, 59, 39
1, 38594, Note_on_c, 0, 60, 43
1, 39074, Note_on_c, 0, 86, 92
1, 39162, Note_on_c, 0, 64, 0
1, 39166, Note_on_c, 0, 60, 0
1, 39170, Note_on_c, 0, 59, 0
1, 39194, Note_on_c, 0, 86, 0
1, 39306, Note_on_c, 0, 86, 85
1, 39466, Note_on_c, 0, 86, 0
1, 39494, Control_c, 0, 64, 104
1, 39494, Control_c, 0, 64, 88
1, 39502, Control_c, 0, 64, 72
1, 39506, Control_c, 0, 64, 56
1, 39510, Control_c, 0, 64, 40
1, 39514, Note_on_c, 0, 55, 46
1, 39518, Note_on_c, 0, 65, 48
1, 39518, Control_c, 0, 64, 24
1, 39522, Control_c, 0, 64, 0
1, 39530, Note_on_c, 0, 60, 48
1, 39538, Note_on_c, 0, 57, 49
1, 39562, Control_c, 0, 64, 24
1, 39574, Control_c, 0, 64, 40
1, 39574, Note_on_c, 0, 91, 98
1, 39586, Control_c, 0, 64, 56
1, 39590, Control_c, 0, 64, 72
1, 39598, Control_c, 0, 64, 88
1, 39602, Control_c, 0, 64, 104
1, 39610, Control_c, 0, 64, 127
1, 39738, Note_on_c, 0, 60, 0
1, 39738, Note_on_c, 0, 65, 0
1, 39802, Note_on_c, 0, 91, 0
1, 39814, Note_on_c, 0, 57, 0
1, 39822, Note_on_c, 0, 55, 0
1, 39854, Note_on_c, 0, 91, 83
1, 40026, Note_on_c, 0, 91, 0
1, 40050, Note_on_c, 0, 83, 55
1, 40122, Note_on_c, 0, 83, 0
1, 40190, Note_on_c, 0, 83, 57
1, 40306, Note_on_c, 0, 83, 0
1, 40342, Note_on_c, 0, 86, 83
1, 40370, Note_on_c, 0, 43, 50
1, 40446, Note_on_c, 0, 86, 0
1, 40514, Note_on_c, 0, 86, 65
1, 40590, Note_on_c, 0, 86, 0
1, 40658, Note_on_c, 0, 79, 50
1, 40714, Note_on_c, 0, 79, 0
1, 40806, Note_on_c, 0, 79, 48
1, 40886, Note_on_c, 0, 79, 0
1, 40938, Note_on_c, 0, 83, 60
1, 41006, Note_on_c, 0, 83, 0
1, 41086, Note_on_c, 0, 83, 54
1, 41166, Control_c, 0, 64, 104
1, 41170, Note_on_c, 0, 83, 0
1, 41170, Control_c, 0, 64, 88
1, 41174, Control_c, 0, 64, 72
1, 41174, Control_c, 0, 64, 56
1, 41178, Control_c, 0, 64, 40
1, 41186, Control_c, 0, 64, 24
1, 41186, Control_c, 0, 64, 0
1, 41194, Note_on_c, 0, 36, 40
1, 41226, Note_on_c, 0, 52, 31
1, 41262, Note_on_c, 0, 74, 33
1, 41282, Note_on_c, 0, 43, 0
1, 41290, Control_c, 0, 64, 24
1, 41294, Control_c, 0, 64, 40
1, 41302, Control_c, 0, 64, 56
1, 41310, Control_c, 0, 64, 72
1, 41314, Control_c, 0, 64, 88
1, 41322, Control_c, 0, 64, 104
1, 41326, Control_c, 0, 64, 127
1, 41350, Note_on_c, 0, 74, 0
1, 41406, Note_on_c, 0, 36, 0
1, 41434, Note_on_c, 0, 74, 44
1, 41498, Note_on_c, 0, 52, 0
1, 41522, Note_on_c, 0, 74, 0
1, 41574, Note_on_c, 0, 76, 56
1, 41810, Note_on_c, 0, 76, 0
1, 42118, Note_on_c, 0, 67, 41
1, 42122, Note_on_c, 0, 64, 33
1, 42126, Note_on_c, 0, 59, 30
1, 42126, Note_on_c, 0, 60, 36
1, 42450, Note_on_c, 0, 59, 0
1, 42450, Note_on_c, 0, 64, 0
1, 42486, Note_on_c, 0, 60, 0
1, 42550, Note_on_c, 0, 67, 0
1, 42982, Control_c, 0, 64, 104
1, 42986, Control_c, 0, 64, 88
1, 42986, Control_c, 0, 64, 72
1, 42990, Control_c, 0, 64, 56
1, 42994, Control_c, 0, 64, 40
1, 42998, Control_c, 0, 64, 24
1, 42998, Note_on_c, 0, 55, 24
1, 43002, Control_c, 0, 64, 0
1, 43002, Note_on_c, 0, 57, 33
1, 43010, Note_on_c, 0, 65, 33
1, 43014, Note_on_c, 0, 60, 41
1, 43142, Control_c, 0, 64, 24
1, 43146, Control_c, 0, 64, 40
1, 43154, Control_c, 0, 64, 56
1, 43158, Control_c, 0, 64, 72
1, 43166, Control_c, 0, 64, 88
1, 43170, Control_c, 0, 64, 104
1, 43174, Control_c, 0, 64, 127
1, 43266, Note_on_c, 0, 60, 0
1, 43274, Note_on_c, 0, 65, 0
1, 43354, Note_on_c, 0, 55, 0
1, 43362, Note_on_c, 0, 57, 0
1, 43954, Note_on_c, 0, 43, 33
1, 44778, Control_c, 0, 64, 88
1, 44782, Control_c, 0, 64, 72
1, 44786, Control_c, 0, 64, 56
1, 44794, Control_c, 0, 64, 40
1, 44798, Control_c, 0, 64, 24
1, 44806, Note_on_c, 0, 36, 39
1, 44810, Control_c, 0, 64, 0
1, 44814, Note_on_c, 0, 43, 0
1, 44842, Note_on_c, 0, 52, 36
1, 44846, Control_c, 0, 64, 24
1, 44862, Control_c, 0, 64, 40
1, 44874, Control_c, 0, 64, 56
1, 44878, Control_c, 0, 64, 72
1, 44886, Control_c, 0, 64, 88
1, 44890, Control_c, 0, 64, 104
1, 44898, Control_c, 0, 64, 127
1, 45014, Note_on_c, 0, 36, 0
1, 45070, Note_on_c, 0, 84, 55
1, 45122, Note_on_c, 0, 52, 0
1, 45166, Note_on_c, 0, 84, 0
1, 45302, Note_on_c, 0, 84, 56
1, 45374, Note_on_c, 0, 84, 0
1, 45518, Note_on_c, 0, 91, 87
1, 45654, Note_on_c, 0, 91, 0
1, 45770, Note_on_c, 0, 64, 34
1, 45770, Note_on_c, 0, 59, 37
1, 45770, Note_on_c, 0, 91, 84
1, 45774, Note_on_c, 0, 60, 40
1, 45986, Note_on_c, 0, 83, 67
1, 46122, Note_on_c, 0, 83, 0
1, 46198, Note_on_c, 0, 91, 0
1, 46202, Note_on_c, 0, 83, 48
1, 46258, Note_on_c, 0, 59, 0
1, 46262, Note_on_c, 0, 60, 0
1, 46286, Note_on_c, 0, 64, 0
1, 46390, Note_on_c, 0, 89, 80
1, 46510, Control_c, 0, 64, 104
1, 46510, Control_c, 0, 64, 88
1, 46514, Control_c, 0, 64, 72
1, 46518, Control_c, 0, 64, 56
1, 46522, Control_c, 0, 64, 40
1, 46526, Control_c, 0, 64, 24
1, 46534, Control_c, 0, 64, 0
1, 46558, Note_on_c, 0, 55, 38
1, 46570, Note_on_c, 0, 65, 34
1, 46574, Note_on_c, 0, 57, 40
1, 46582, Note_on_c, 0, 60, 36
1, 46622, Control_c, 0, 64, 24
1, 46626, Control_c, 0, 64, 40
1, 46634, Control_c, 0, 64, 56
1, 46638, Control_c, 0, 64, 72
1, 46646, Control_c, 0, 64, 88
1, 46650, Control_c, 0, 64, 104
1, 46654, Control_c, 0, 64, 127
1, 46734, Note_on_c, 0, 88, 75
1, 46738, Note_on_c, 0, 65, 0
1, 46742, Note_on_c, 0, 60, 0
1, 46758, Note_on_c, 0, 83, 0
1, 46822, Note_on_c, 0, 55, 0
1, 46830, Note_on_c, 0, 57, 0
1, 46870, Note_on_c, 0, 89, 0
1, 47062, Note_on_c, 0, 79, 58
1, 47318, Note_on_c, 0, 79, 0
1, 47398, Note_on_c, 0, 88, 0
1, 47502, Note_on_c, 0, 43, 40
1, 47506, Note_on_c, 0, 79, 46
1, 47530, Control_c, 0, 64, 104
1, 47534, Control_c, 0, 64, 88
1, 47586, Control_c, 0, 64, 104
1, 47598, Control_c, 0, 64, 127
1, 47738, Note_on_c, 0, 43, 0
1, 47866, Note_on_c, 0, 86, 77
1, 47874, Note_on_c, 0, 79, 0
1, 48066, Note_on_c, 0, 86, 0
1, 48110, Note_on_c, 0, 84, 68
1, 48274, Note_on_c, 0, 79, 58
1, 48330, Note_on_c, 0, 84, 0
1, 48398, Note_on_c, 0, 79, 0
1, 48438, Control_c, 0, 64, 104
1, 48438, Note_on_c, 0, 36, 43
1, 48442, Control_c, 0, 64, 88
1, 48446, Control_c, 0, 64, 72
1, 48446, Note_on_c, 0, 76, 35
1, 48450, Control_c, 0, 64, 56
1, 48454, Control_c, 0, 64, 40
1, 48462, Control_c, 0, 64, 24
1, 48466, Control_c, 0, 64, 0
1, 48498, Note_on_c, 0, 52, 24
1, 48522, Control_c, 0, 64, 24
1, 48534, Control_c, 0, 64, 40
1, 48546, Control_c, 0, 64, 56
1, 48554, Control_c, 0, 64, 72
1, 48562, Control_c, 0, 64, 88
1, 48570, Control_c, 0, 64, 104
1, 48570, Control_c, 0, 64, 127
1, 48586, Note_on_c, 0, 76, 0
1, 48610, Note_on_c, 0, 81, 67
1, 48654, Note_on_c, 0, 36, 0
1, 48750, Note_on_c, 0, 52, 0
1, 48770, Note_on_c, 0, 79, 71
1, 48818, Note_on_c, 0, 81, 0
1, 48918, Note_on_c, 0, 76, 67
1, 49010, Note_on_c, 0, 79, 0
1, 49014, Note_on_c, 0, 76, 0
1, 49058, Note_on_c, 0, 72, 57
1, 49154, Note_on_c, 0, 72, 0
1, 49194, Note_on_c, 0, 77, 73
1, 49214, Note_on_c, 0, 64, 41
1, 49222, Control_c, 0, 64, 88
1, 49226, Note_on_c, 0, 59, 39
1, 49226, Control_c, 0, 64, 72
1, 49230, Note_on_c, 0, 60, 41
1, 49234, Control_c, 0, 64, 56
1, 49234, Control_c, 0, 64, 40
1, 49242, Control_c, 0, 64, 24
1, 49246, Control_c, 0, 64, 0
1, 49330, Note_on_c, 0, 76, 66
1, 49354, Note_on_c, 0, 77, 0
1, 49366, Control_c, 0, 64, 24
1, 49374, Control_c, 0, 64, 40
1, 49378, Control_c, 0, 64, 56
1, 49386, Control_c, 0, 64, 72
1, 49390, Control_c, 0, 64, 88
1, 49398, Control_c, 0, 64, 104
1, 49402, Control_c, 0, 64, 127
1, 49454, Note_on_c, 0, 76, 0
1, 49454, Note_on_c, 0, 72, 63
1, 49550, Note_on_c, 0, 72, 0
1, 49594, Note_on_c, 0, 67, 47
1, 49670, Note_on_c, 0, 67, 0
1, 49674, Note_on_c, 0, 64, 0
1, 49686, Note_on_c, 0, 59, 0
1, 49706, Note_on_c, 0, 60, 0
1, 49714, Note_on_c, 0, 74, 68
1, 49850, Note_on_c, 0, 72, 61
1, 49878, Note_on_c, 0, 74, 0
1, 49962, Control_c, 0, 64, 104
1, 49966, Control_c, 0, 64, 88
1, 49970, Control_c, 0, 64, 72
1, 49978, Control_c, 0, 64, 56
1, 49978, Note_on_c, 0, 67, 65
1, 49978, Control_c, 0, 64, 40
1, 49982, Note_on_c, 0, 72, 0
1, 49986, Control_c, 0, 64, 24
1, 49990, Control_c, 0, 64, 0
1, 49998, Note_on_c, 0, 65, 40
1, 50014, Note_on_c, 0, 55, 35
1, 50030, Note_on_c, 0, 57, 41
1, 50046, Note_on_c, 0, 60, 37
1, 50094, Note_on_c, 0, 65, 0
1, 50098, Control_c, 0, 64, 24
1, 50106, Control_c, 0, 64, 40
1, 50114, Control_c, 0, 64, 56
1, 50122, Control_c, 0, 64, 72
1, 50126, Control_c, 0, 64, 88
1, 50134, Note_on_c, 0, 67, 0
1, 50134, Control_c, 0, 64, 104
1, 50138, Control_c, 0, 64, 127
1, 50166, Note_on_c, 0, 64, 49
1, 50186, Note_on_c, 0, 60, 0
1, 50262, Note_on_c, 0, 57, 0
1, 50286, Note_on_c, 0, 55, 0
1, 50638, Note_on_c, 0, 65, 63
1, 50658, Note_on_c, 0, 64, 0
1, 51086, Note_on_c, 0, 43, 45
1, 51102, Control_c, 0, 64, 104
1, 51106, Control_c, 0, 64, 88
1, 51114, Control_c, 0, 64, 72
1, 51114, Control_c, 0, 64, 56
1, 51122, Control_c, 0, 64, 40
1, 51130, Control_c, 0, 64, 24
1, 51142, Control_c, 0, 64, 0
1, 51178, Control_c, 0, 64, 24
1, 51194, Control_c, 0, 64, 40
1, 51206, Control_c, 0, 64, 56
1, 51214, Control_c, 0, 64, 72
1, 51222, Control_c, 0, 64, 88
1, 51230, Control_c, 0, 64, 104
1, 51230, Control_c, 0, 64, 127
1, 51370, Note_on_c, 0, 43, 0
1, 51806, Note_on_c, 0, 65, 0
1, 51806, Note_on_c, 0, 67, 39
1, 52142, Note_on_c, 0, 67, 0
1, 52154, Note_on_c, 0, 36, 39
1, 52166, Control_c, 0, 64, 104
1, 52166, Note_on_c, 0, 64, 44
1, 52170, Control_c, 0, 64, 88
1, 52170, Control_c, 0, 64, 72
1, 52174, Control_c, 0, 64, 56
1, 52178, Control_c, 0, 64, 40
1, 52182, Control_c, 0, 64, 24
1, 52186, Note_on_c, 0, 52, 38
1, 52190, Control_c, 0, 64, 0
1, 52318, Control_c, 0, 64, 24
1, 52322, Control_c, 0, 64, 40
1, 52330, Control_c, 0, 64, 56
1, 52330, Control_c, 0, 64, 72
1, 52338, Control_c, 0, 64, 88
1, 52342, Control_c, 0, 64, 104
1, 52346, Control_c, 0, 64, 127
1, 52406, Note_on_c, 0, 36, 0
1, 52514, Note_on_c, 0, 52, 0
1, 52546, Note_on_c, 0, 64, 0
1, 53102, Note_on_c, 0, 64, 29
1, 53110, Note_on_c, 0, 60, 36
1, 53114, Note_on_c, 0, 59, 39
1, 53558, Note_on_c, 0, 59, 0
1, 53610, Note_on_c, 0, 60, 0
1, 53642, Note_on_c, 0, 64, 0
1, 53934, Control_c, 0, 64, 104
1, 53938, Control_c, 0, 64, 88
1, 53942, Control_c, 0, 64, 72
1, 53946, Control_c, 0, 64, 56
1, 53954, Control_c, 0, 64, 40
1, 53962, Control_c, 0, 64, 24
1, 53982, Control_c, 0, 64, 0
1, 53986, Note_on_c, 0, 65, 36
1, 53990, Control_c, 0, 64, 24
1, 53990, Note_on_c, 0, 55, 33
1, 53990, Note_on_c, 0, 60, 36
1, 53998, Note_on_c, 0, 57, 39
1, 54014, Control_c, 0, 64, 40
1, 54026, Control_c, 0, 64, 56
1, 54038, Control_c, 0, 64, 72
1, 54042, Control_c, 0, 64, 88
1, 54054, Control_c, 0, 64, 104
1, 54054, Control_c, 0, 64, 127
1, 54158, Note_on_c, 0, 60, 0
1, 54162, Note_on_c, 0, 65, 0
1, 54238, Note_on_c, 0, 55, 0
1, 54246, Note_on_c, 0, 57, 0
1, 54966, Note_on_c, 0, 43, 31
1, 55102, Note_on_c, 0, 67, 49
1, 55194, Note_on_c, 0, 67, 0
1, 55214, Note_on_c, 0, 69, 55
1, 55270, Note_on_c, 0, 69, 0
1, 55286, Note_on_c, 0, 71, 62
1, 55314, Note_on_c, 0, 71, 0
1, 55370, Note_on_c, 0, 74, 77
1, 55438, Note_on_c, 0, 74, 0
1, 55446, Note_on_c, 0, 76, 81
1, 55470, Note_on_c, 0, 76, 0
1, 55542, Note_on_c, 0, 79, 85
1, 55618, Note_on_c, 0, 81, 81
1, 55630, Note_on_c, 0, 79, 0
1, 55706, Note_on_c, 0, 83, 81
1, 55742, Note_on_c, 0, 81, 0
1, 55778, Note_on_c, 0, 86, 115
1, 55790, Note_on_c, 0, 83, 0
1, 55834, Control_c, 0, 64, 88
1, 55838, Control_c, 0, 64, 72
1, 55842, Control_c, 0, 64, 56
1, 55846, Control_c, 0, 64, 40
1, 55846, Control_c, 0, 64, 24
1, 55850, Note_on_c, 0, 36, 54
1, 55854, Control_c, 0, 64, 0
1, 55858, Note_on_c, 0, 43, 0
1, 55874, Note_on_c, 0, 52, 54
1, 55890, Note_on_c, 0, 83, 81
1, 55898, Note_on_c, 0, 84, 63
1, 55926, Note_on_c, 0, 84, 0
1, 55942, Note_on_c, 0, 86, 0
1, 55990, Control_c, 0, 64, 24
1, 55994, Control_c, 0, 64, 40
1, 56002, Control_c, 0, 64, 56
1, 56006, Control_c, 0, 64, 72
1, 56014, Control_c, 0, 64, 88
1, 56018, Control_c, 0, 64, 104
1, 56022, Control_c, 0, 64, 127
1, 56114, Note_on_c, 0, 36, 0
1, 56222, Note_on_c, 0, 52, 0
1, 56398, Note_on_c, 0, 83, 0
1, 56582, Note_on_c, 0, 67, 43
1, 56622, Note_on_c, 0, 67, 0
1, 56674, Note_on_c, 0, 69, 54
1, 56746, Note_on_c, 0, 71, 71
1, 56754, Note_on_c, 0, 69, 0
1, 56782, Note_on_c, 0, 71, 0
1, 56842, Note_on_c, 0, 74, 76
1, 56862, Note_on_c, 0, 64, 37
1, 56874, Note_on_c, 0, 60, 45
1, 56874, Note_on_c, 0, 59, 35
1, 56906, Note_on_c, 0, 74, 0
1, 56918, Note_on_c, 0, 76, 75
1, 56982, Note_on_c, 0, 76, 0
1, 57050, Note_on_c, 0, 79, 46
1, 57062, Note_on_c, 0, 81, 44
1, 57094, Note_on_c, 0, 81, 0
1, 57118, Note_on_c, 0, 81, 41
1, 57130, Note_on_c, 0, 79, 0
1, 57198, Note_on_c, 0, 83, 75
1, 57210, Note_on_c, 0, 81, 0
1, 57238, Note_on_c, 0, 83, 0
1, 57262, Note_on_c, 0, 86, 99
1, 57294, Note_on_c, 0, 59, 0
1, 57318, Note_on_c, 0, 60, 0
1, 57322, Note_on_c, 0, 64, 0
1, 57358, Note_on_c, 0, 83, 94
1, 57450, Note_on_c, 0, 86, 0
1, 57702, Control_c, 0, 64, 104
1, 57706, Control_c, 0, 64, 88
1, 57710, Control_c, 0, 64, 72
1, 57714, Control_c, 0, 64, 56
1, 57714, Control_c, 0, 64, 40
1, 57722, Control_c, 0, 64, 24
1, 57726, Control_c, 0, 64, 0
1, 57738, Note_on_c, 0, 55, 40
1, 57746, Note_on_c, 0, 65, 36
1, 57762, Note_on_c, 0, 60, 41
1, 57762, Note_on_c, 0, 57, 45
1, 57842, Control_c, 0, 64, 24
1, 57842, Control_c, 0, 64, 40
1, 57850, Control_c, 0, 64, 56
1, 57858, Control_c, 0, 64, 72
1, 57858, Control_c, 0, 64, 88
1, 57866, Control_c, 0, 64, 104
1, 57870, Control_c, 0, 64, 127
1, 58018, Note_on_c, 0, 60, 0
1, 58030, Note_on_c, 0, 65, 0
1, 58094, Note_on_c, 0, 57, 0
1, 58110, Note_on_c, 0, 55, 0
1, 58446, Note_on_c, 0, 83, 0
1, 58710, Note_on_c, 0, 43, 37
1, 58734, Note_on_c, 0, 67, 44
1, 58946, Note_on_c, 0, 67, 0
1, 58958, Note_on_c, 0, 69, 52
1, 59074, Note_on_c, 0, 69, 0
1, 59094, Note_on_c, 0, 71, 63
1, 59162, Note_on_c, 0, 71, 0
1, 59238, Note_on_c, 0, 74, 58
1, 59302, Note_on_c, 0, 74, 0
1, 59330, Note_on_c, 0, 76, 50
1, 59370, Note_on_c, 0, 76, 0
1, 59458, Note_on_c, 0, 79, 46
1, 59482, Control_c, 0, 64, 104
1, 59482, Control_c, 0, 64, 88
1, 59486, Control_c, 0, 64, 72
1, 59490, Control_c, 0, 64, 56
1, 59494, Control_c, 0, 64, 40
1, 59498, Note_on_c, 0, 79, 0
1, 59498, Control_c, 0, 64, 24
1, 59506, Control_c, 0, 64, 0
1, 59538, Note_on_c, 0, 81, 58
1, 59538, Note_on_c, 0, 36, 41
1, 59574, Note_on_c, 0, 52, 37
1, 59594, Control_c, 0, 64, 24
1, 59598, Note_on_c, 0, 43, 0
1, 59606, Control_c, 0, 64, 40
1, 59610, Control_c, 0, 64, 56
1, 59618, Note_on_c, 0, 81, 0
1, 59618, Control_c, 0, 64, 72
1, 59618, Control_c, 0, 64, 88
1, 59622, Note_on_c, 0, 83, 63
1, 59626, Control_c, 0, 64, 104
1, 59630, Control_c, 0, 64, 127
1, 59706, Note_on_c, 0, 83, 0
1, 59710, Note_on_c, 0, 36, 0
1, 59742, Note_on_c, 0, 86, 61
1, 59846, Note_on_c, 0, 52, 0
1, 59950, Note_on_c, 0, 83, 79
1, 59966, Note_on_c, 0, 86, 0
1, 60478, Note_on_c, 0, 59, 38
1, 60486, Note_on_c, 0, 64, 31
1, 60486, Note_on_c, 0, 60, 39
1, 61046, Note_on_c, 0, 59, 0
1, 61046, Note_on_c, 0, 79, 45
1, 61054, Note_on_c, 0, 60, 0
1, 61078, Note_on_c, 0, 64, 0
1, 61434, Note_on_c, 0, 83, 0
1, 61434, Control_c, 0, 64, 104
1, 61434, Control_c, 0, 64, 88
1, 61438, Note_on_c, 0, 79, 0
1, 61442, Control_c, 0, 64, 72
1, 61446, Control_c, 0, 64, 56
1, 61446, Control_c, 0, 64, 40
1, 61454, Control_c, 0, 64, 24
1, 61454, Note_on_c, 0, 55, 34
1, 61458, Note_on_c, 0, 65, 34
1, 61458, Note_on_c, 0, 60, 39
1, 61462, Control_c, 0, 64, 0
1, 61466, Note_on_c, 0, 57, 36
1, 61466, Note_on_c, 0, 81, 43
1, 61546, Control_c, 0, 64, 24
1, 61554, Control_c, 0, 64, 40
1, 61562, Control_c, 0, 64, 56
1, 61566, Control_c, 0, 64, 72
1, 61570, Control_c, 0, 64, 88
1, 61578, Control_c, 0, 64, 104
1, 61582, Control_c, 0, 64, 127
1, 61662, Note_on_c, 0, 60, 0
1, 61674, Note_on_c, 0, 65, 0
1, 61782, Note_on_c, 0, 55, 0
1, 61794, Note_on_c, 0, 57, 0
1, 62498, Note_on_c, 0, 43, 41
1, 63490, Control_c, 0, 64, 104
1, 63494, Control_c, 0, 64, 88
1, 63498, Control_c, 0, 64, 72
1, 63502, Note_on_c, 0, 43, 0
1, 63502, Control_c, 0, 64, 56
1, 63502, Control_c, 0, 64, 40
1, 63502, Note_on_c, 0, 36, 41
1, 63506, Control_c, 0, 64, 24
1, 63514, Note_on_c, 0, 52, 45
1, 63514, Control_c, 0, 64, 0
1, 63598, Note_on_c, 0, 81, 0
1, 63622, Control_c, 0, 64, 24
1, 63630, Control_c, 0, 64, 40
1, 63630, Control_c, 0, 64, 56
1, 63638, Control_c, 0, 64, 72
1, 63642, Control_c, 0, 64, 88
1, 63646, Control_c, 0, 64, 104
1, 63650, Control_c, 0, 64, 127
1, 63758, Note_on_c, 0, 36, 0
1, 63874, Note_on_c, 0, 52, 0
1, 64426, Note_on_c, 0, 64, 35
1, 64442, Note_on_c, 0, 60, 37
1, 64446, Note_on_c, 0, 59, 37
1, 64986, Note_on_c, 0, 96, 107
1, 65042, Note_on_c, 0, 59, 0
1, 65042, Note_on_c, 0, 64, 0
1, 65042, Note_on_c, 0, 60, 0
1, 65350, Control_c, 0, 64, 104
1, 65354, Control_c, 0, 64, 88
1, 65354, Note_on_c, 0, 65, 43
1, 65358, Control_c, 0, 64, 72
1, 65362, Control_c, 0, 64, 56
1, 65362, Note_on_c, 0, 57, 47
1, 65362, Note_on_c, 0, 60, 44
1, 65366, Note_on_c, 0, 55, 41
1, 65366, Control_c, 0, 64, 24
1, 65374, Control_c, 0, 64, 0
1, 65466, Control_c, 0, 64, 24
1, 65474, Control_c, 0, 64, 40
1, 65482, Control_c, 0, 64, 56
1, 65486, Control_c, 0, 64, 72
1, 65490, Control_c, 0, 64, 88
1, 65498, Control_c, 0, 64, 104
1, 65498, Control_c, 0, 64, 127
1, 65614, Note_on_c, 0, 95, 82
1, 65622, Note_on_c, 0, 60, 0
1, 65626, Note_on_c, 0, 65, 0
1, 65682, Note_on_c, 0, 96, 0
1, 65710, Note_on_c, 0, 57, 0
1, 65714, Note_on_c, 0, 55, 0
1, 65910, Note_on_c, 0, 88, 62
1, 66194, Note_on_c, 0, 95, 0
1, 66234, Note_on_c, 0, 43, 42
1, 66242, Control_c, 0, 64, 104
1, 66246, Control_c, 0, 64, 88
1, 66250, Control_c, 0, 64, 72
1, 66258, Control_c, 0, 64, 56
1, 66266, Control_c, 0, 64, 40
1, 66302, Control_c, 0, 64, 56
1, 66318, Control_c, 0, 64, 72
1, 66326, Control_c, 0, 64, 88
1, 66334, Control_c, 0, 64, 104
1, 66342, Control_c, 0, 64, 127
1, 66538, Note_on_c, 0, 43, 0
1, 66558, Note_on_c, 0, 95, 66
1, 66562, Note_on_c, 0, 93, 61
1, 66570, Note_on_c, 0, 88, 0
1, 66586, Note_on_c, 0, 93, 0
1, 66866, Note_on_c, 0, 95, 0
1, 66894, Note_on_c, 0, 93, 65
1, 67178, Control_c, 0, 64, 104
1, 67182, Note_on_c, 0, 36, 43
1, 67182, Control_c, 0, 64, 88
1, 67186, Control_c, 0, 64, 72
1, 67190, Control_c, 0, 64, 56
1, 67194, Control_c, 0, 64, 40
1, 67202, Control_c, 0, 64, 24
1, 67202, Control_c, 0, 64, 0
1, 67222, Note_on_c, 0, 52, 34
1, 67290, Control_c, 0, 64, 24
1, 67298, Control_c, 0, 64, 40
1, 67306, Control_c, 0, 64, 56
1, 67310, Control_c, 0, 64, 72
1, 67318, Control_c, 0, 64, 88
1, 67318, Control_c, 0, 64, 104
1, 67326, Control_c, 0, 64, 127
1, 67430, Note_on_c, 0, 36, 0
1, 67430, Note_on_c, 0, 91, 64
1, 67538, Note_on_c, 0, 52, 0
1, 67670, Note_on_c, 0, 83, 49
1, 67682, Note_on_c, 0, 91, 0
1, 67694, Note_on_c, 0, 93, 0
1, 67870, Note_on_c, 0, 89, 76
1, 67930, Note_on_c, 0, 83, 0
1, 68078, Note_on_c, 0, 88, 73
1, 68082, Note_on_c, 0, 64, 40
1, 68086, Note_on_c, 0, 59, 41
1, 68098, Note_on_c, 0, 60, 42
1, 68106, Control_c, 0, 64, 104
1, 68110, Control_c, 0, 64, 88
1, 68110, Control_c, 0, 64, 72
1, 68118, Control_c, 0, 64, 56
1, 68122, Control_c, 0, 64, 40
1, 68130, Control_c, 0, 64, 24
1, 68142, Control_c, 0, 64, 0
1, 68190, Control_c, 0, 64, 24
1, 68202, Control_c, 0, 64, 40
1, 68214, Control_c, 0, 64, 56
1, 68226, Control_c, 0, 64, 72
1, 68230, Control_c, 0, 64, 88
1, 68242, Control_c, 0, 64, 104
1, 68242, Control_c, 0, 64, 127
1, 68282, Note_on_c, 0, 89, 0
1, 68338, Note_on_c, 0, 79, 48
1, 68470, Note_on_c, 0, 88, 0
1, 68722, Note_on_c, 0, 79, 0
1, 68738, Note_on_c, 0, 86, 78
1, 68750, Note_on_c, 0, 59, 0
1, 68754, Note_on_c, 0, 60, 0
1, 68794, Note_on_c, 0, 64, 0
1, 68938, Control_c, 0, 64, 104
1, 68942, Control_c, 0, 64, 88
1, 68942, Control_c, 0, 64, 72
1, 68946, Control_c, 0, 64, 56
1, 68954, Control_c, 0, 64, 40
1, 68958, Control_c, 0, 64, 24
1, 68962, Control_c, 0, 64, 0
1, 68966, Note_on_c, 0, 65, 34
1, 68970, Note_on_c, 0, 57, 41
1, 68978, Note_on_c, 0, 55, 32
1, 68978, Note_on_c, 0, 84, 54
1, 68998, Note_on_c, 0, 60, 36
1, 69050, Note_on_c, 0, 86, 0
1, 69058, Control_c, 0, 64, 24
1, 69066, Control_c, 0, 64, 40
1, 69074, Control_c, 0, 64, 56
1, 69078, Control_c, 0, 64, 72
1, 69082, Control_c, 0, 64, 88
1, 69090, Control_c, 0, 64, 104
1, 69094, Control_c, 0, 64, 127
1, 69178, Note_on_c, 0, 60, 0
1, 69178, Note_on_c, 0, 76, 57
1, 69206, Note_on_c, 0, 65, 0
1, 69206, Note_on_c, 0, 84, 0
1, 69286, Note_on_c, 0, 55, 0
1, 69294, Note_on_c, 0, 57, 0
1, 69474, Note_on_c, 0, 76, 0
1, 69474, Note_on_c, 0, 83, 66
1, 69710, Note_on_c, 0, 81, 63
1, 69806, Note_on_c, 0, 83, 0
1, 69910, Control_c, 0, 64, 104
1, 69914, Control_c, 0, 64, 88
1, 69918, Control_c, 0, 64, 72
1, 69926, Control_c, 0, 64, 56
1, 69930, Control_c, 0, 64, 40
1, 69938, Control_c, 0, 64, 24
1, 69950, Control_c, 0, 64, 0
1, 69950, Note_on_c, 0, 43, 33
1, 69966, Note_on_c, 0, 53, 30
1, 69998, Control_c, 0, 64, 24
1, 70014, Control_c, 0, 64, 40
1, 70018, Note_on_c, 0, 71, 20
1, 70022, Control_c, 0, 64, 56
1, 70030, Control_c, 0, 64, 72
1, 70038, Control_c, 0, 64, 88
1, 70042, Control_c, 0, 64, 104
1, 70046, Control_c, 0, 64, 127
1, 70054, Note_on_c, 0, 81, 0
1, 70206, Note_on_c, 0, 43, 0
1, 70266, Note_on_c, 0, 81, 50
1, 70286, Note_on_c, 0, 53, 0
1, 70422, Note_on_c, 0, 81, 0
1, 70430, Note_on_c, 0, 71, 0
1, 70486, Note_on_c, 0, 79, 49
1, 70650, Note_on_c, 0, 79, 0
1, 70746, Note_on_c, 0, 67, 18
1, 70946, Note_on_c, 0, 36, 38
1, 70958, Control_c, 0, 64, 104
1, 70962, Control_c, 0, 64, 88
1, 70966, Control_c, 0, 64, 72
1, 70970, Control_c, 0, 64, 56
1, 70974, Control_c, 0, 64, 40
1, 70978, Control_c, 0, 64, 24
1, 70982, Control_c, 0, 64, 0
1, 70982, Note_on_c, 0, 76, 49
1, 70998, Note_on_c, 0, 52, 26
1, 71154, Control_c, 0, 64, 24
1, 71166, Control_c, 0, 64, 40
1, 71174, Control_c, 0, 64, 56
1, 71178, Control_c, 0, 64, 72
1, 71190, Control_c, 0, 64, 88
1, 71198, Control_c, 0, 64, 104
1, 71202, Control_c, 0, 64, 127
1, 71274, Note_on_c, 0, 36, 0
1, 71366, Note_on_c, 0, 67, 0
1, 71378, Note_on_c, 0, 52, 0
1, 71874, Note_on_c, 0, 64, 18
1, 71878, Note_on_c, 0, 60, 33
1, 71882, Note_on_c, 0, 59, 36
1, 72138, Note_on_c, 0, 67, 40
1, 72290, Note_on_c, 0, 76, 0
1, 72390, Note_on_c, 0, 59, 0
1, 72398, Note_on_c, 0, 60, 0
1, 72422, Note_on_c, 0, 64, 0
1, 72426, Note_on_c, 0, 69, 39
1, 72522, Note_on_c, 0, 67, 0
1, 72758, Note_on_c, 0, 69, 0
1, 72758, Note_on_c, 0, 72, 53
1, 72770, Note_on_c, 0, 55, 35
1, 72770, Note_on_c, 0, 57, 39
1, 72778, Control_c, 0, 64, 104
1, 72778, Control_c, 0, 64, 88
1, 72786, Note_on_c, 0, 60, 38
1, 72786, Control_c, 0, 64, 72
1, 72790, Control_c, 0, 64, 56
1, 72794, Control_c, 0, 64, 40
1, 72798, Control_c, 0, 64, 24
1, 72802, Note_on_c, 0, 65, 9
1, 72806, Control_c, 0, 64, 0
1, 72918, Control_c, 0, 64, 24
1, 72922, Control_c, 0, 64, 40
1, 72930, Control_c, 0, 64, 56
1, 72934, Control_c, 0, 64, 72
1, 72946, Control_c, 0, 64, 88
1, 72950, Control_c, 0, 64, 104
1, 72954, Control_c, 0, 64, 127
1, 73038, Note_on_c, 0, 72, 0
1, 73070, Note_on_c, 0, 60, 0
1, 73074, Note_on_c, 0, 65, 0
1, 73106, Note_on_c, 0, 72, 49
1, 73182, Note_on_c, 0, 55, 0
1, 73190, Note_on_c, 0, 57, 0
1, 73386, Note_on_c, 0, 72, 0
1, 73390, Note_on_c, 0, 69, 42
1, 73666, Note_on_c, 0, 69, 0
1, 73726, Control_c, 0, 64, 88
1, 73730, Control_c, 0, 64, 72
1, 73734, Note_on_c, 0, 43, 37
1, 73738, Control_c, 0, 64, 56
1, 73738, Note_on_c, 0, 71, 40
1, 73742, Control_c, 0, 64, 40
1, 73750, Control_c, 0, 64, 24
1, 73754, Note_on_c, 0, 67, 13
1, 73762, Control_c, 0, 64, 0
1, 73826, Control_c, 0, 64, 24
1, 73834, Control_c, 0, 64, 40
1, 73842, Control_c, 0, 64, 56
1, 73850, Control_c, 0, 64, 72
1, 73854, Control_c, 0, 64, 88
1, 73862, Control_c, 0, 64, 104
1, 73866, Control_c, 0, 64, 127
1, 74014, Note_on_c, 0, 43, 0
1, 74198, Note_on_c, 0, 71, 0
1, 74222, Note_on_c, 0, 72, 49
1, 74262, Note_on_c, 0, 67, 0
1, 74386, Note_on_c, 0, 72, 0
1, 74418, Note_on_c, 0, 74, 52
1, 74582, Note_on_c, 0, 74, 0
1, 74742, Note_on_c, 0, 64, 32
1, 74742, Note_on_c, 0, 67, 43
1, 74750, Control_c, 0, 64, 104
1, 74750, Control_c, 0, 64, 88
1, 74754, Note_on_c, 0, 36, 36
1, 74754, Control_c, 0, 64, 72
1, 74758, Control_c, 0, 64, 56
1, 74762, Control_c, 0, 64, 40
1, 74766, Control_c, 0, 64, 24
1, 74774, Control_c, 0, 64, 0
1, 74786, Note_on_c, 0, 52, 31
1, 74898, Control_c, 0, 64, 24
1, 74906, Control_c, 0, 64, 40
1, 74914, Control_c, 0, 64, 56
1, 74918, Control_c, 0, 64, 72
1, 74926, Control_c, 0, 64, 88
1, 74930, Control_c, 0, 64, 104
1, 74938, Control_c, 0, 64, 127
1, 74982, Note_on_c, 0, 36, 0
1, 75086, Note_on_c, 0, 52, 0
1, 75270, Note_on_c, 0, 64, 0
1, 75426, Note_on_c, 0, 67, 0
1, 75678, Note_on_c, 0, 60, 31
1, 75682, Note_on_c, 0, 64, 22
1, 75682, Note_on_c, 0, 59, 36
1, 76050, Note_on_c, 0, 79, 38
1, 76098, Note_on_c, 0, 79, 0
1, 76194, Note_on_c, 0, 59, 0
1, 76222, Note_on_c, 0, 60, 0
1, 76262, Note_on_c, 0, 64, 0
1, 76298, Note_on_c, 0, 79, 46
1, 76486, Note_on_c, 0, 79, 0
1, 76546, Note_on_c, 0, 55, 35
1, 76550, Control_c, 0, 64, 88
1, 76554, Control_c, 0, 64, 72
1, 76558, Control_c, 0, 64, 56
1, 76558, Note_on_c, 0, 60, 39
1, 76562, Note_on_c, 0, 57, 31
1, 76562, Control_c, 0, 64, 40
1, 76570, Control_c, 0, 64, 24
1, 76574, Note_on_c, 0, 65, 30
1, 76578, Control_c, 0, 64, 0
1, 76582, Note_on_c, 0, 79, 46
1, 76658, Control_c, 0, 64, 24
1, 76666, Control_c, 0, 64, 40
1, 76678, Control_c, 0, 64, 56
1, 76682, Control_c, 0, 64, 72
1, 76690, Control_c, 0, 64, 88
1, 76694, Control_c, 0, 64, 104
1, 76702, Control_c, 0, 64, 127
1, 76766, Note_on_c, 0, 60, 0
1, 76778, Note_on_c, 0, 65, 0
1, 76786, Note_on_c, 0, 79, 0
1, 76862, Note_on_c, 0, 57, 0
1, 76874, Note_on_c, 0, 55, 0
1, 76906, Note_on_c, 0, 79, 47
1, 76998, Note_on_c, 0, 79, 0
1, 77074, Note_on_c, 0, 79, 66
1, 77158, Note_on_c, 0, 79, 0
1, 77210, Note_on_c, 0, 79, 79
1, 77338, Note_on_c, 0, 79, 0
1, 77382, Note_on_c, 0, 79, 76
1, 77490, Note_on_c, 0, 79, 0
1, 77546, Note_on_c, 0, 79, 51
1, 77554, Note_on_c, 0, 43, 41
1, 77634, Note_on_c, 0, 79, 0
1, 77666, Control_c, 0, 64, 104
1, 77670, Control_c, 0, 64, 88
1, 77674, Control_c, 0, 64, 72
1, 77686, Control_c, 0, 64, 56
1, 77706, Note_on_c, 0, 79, 56
1, 77738, Control_c, 0, 64, 72
1, 77750, Control_c, 0, 64, 88
1, 77762, Control_c, 0, 64, 104
1, 77770, Control_c, 0, 64, 127
1, 77798, Note_on_c, 0, 79, 0
1, 77838, Note_on_c, 0, 79, 48
1, 77894, Note_on_c, 0, 79, 0
1, 77962, Note_on_c, 0, 79, 68
1, 78006, Note_on_c, 0, 79, 0
1, 78074, Note_on_c, 0, 79, 55
1, 78102, Note_on_c, 0, 79, 0
1, 78158, Note_on_c, 0, 79, 72
1, 78182, Note_on_c, 0, 79, 0
1, 78258, Note_on_c, 0, 79, 66
1, 78322, Note_on_c, 0, 79, 0
1, 78366, Note_on_c, 0, 79, 60
1, 78370, Control_c, 0, 64, 104
1, 78370, Control_c, 0, 64, 88
1, 78374, Control_c, 0, 64, 72
1, 78382, Control_c, 0, 64, 56
1, 78386, Control_c, 0, 64, 40
1, 78390, Note_on_c, 0, 79, 0
1, 78390, Control_c, 0, 64, 24
1, 78390, Note_on_c, 0, 36, 41
1, 78398, Control_c, 0, 64, 0
1, 78406, Note_on_c, 0, 43, 0
1, 78414, Note_on_c, 0, 52, 48
1, 78430, Note_on_c, 0, 79, 58
1, 78490, Control_c, 0, 64, 24
1, 78498, Control_c, 0, 64, 40
1, 78502, Control_c, 0, 64, 56
1, 78506, Note_on_c, 0, 79, 0
1, 78510, Control_c, 0, 64, 72
1, 78514, Control_c, 0, 64, 88
1, 78518, Control_c, 0, 64, 104
1, 78522, Control_c, 0, 64, 127
1, 78530, Note_on_c, 0, 81, 86
1, 78622, Note_on_c, 0, 36, 0
1, 78698, Note_on_c, 0, 81, 0
1, 78710, Note_on_c, 0, 79, 74
1, 78738, Note_on_c, 0, 52, 0
1, 78802, Note_on_c, 0, 79, 0
1, 78862, Note_on_c, 0, 79, 69
1, 79022, Note_on_c, 0, 79, 0
1, 79054, Note_on_c, 0, 79, 46
1, 79146, Note_on_c, 0, 79, 0
1, 79194, Note_on_c, 0, 81, 72
1, 79246, Note_on_c, 0, 64, 32
1, 79262, Note_on_c, 0, 60, 40
1, 79262, Control_c, 0, 64, 104
1, 79266, Note_on_c, 0, 59, 41
1, 79266, Control_c, 0, 64, 88
1, 79270, Control_c, 0, 64, 72
1, 79274, Control_c, 0, 64, 56
1, 79278, Control_c, 0, 64, 40
1, 79286, Control_c, 0, 64, 24
1, 79298, Note_on_c, 0, 81, 0
1, 79298, Control_c, 0, 64, 0
1, 79314, Note_on_c, 0, 79, 59
1, 79346, Control_c, 0, 64, 24
1, 79358, Control_c, 0, 64, 40
1, 79366, Control_c, 0, 64, 56
1, 79374, Control_c, 0, 64, 72
1, 79378, Control_c, 0, 64, 88
1, 79386, Control_c, 0, 64, 104
1, 79390, Control_c, 0, 64, 127
1, 79426, Note_on_c, 0, 79, 0
1, 79494, Note_on_c, 0, 79, 60
1, 79646, Note_on_c, 0, 79, 0
1, 79666, Note_on_c, 0, 81, 52
1, 79802, Note_on_c, 0, 81, 0
1, 79858, Note_on_c, 0, 60, 0
1, 79862, Note_on_c, 0, 59, 0
1, 79882, Note_on_c, 0, 64, 0
1, 79882, Note_on_c, 0, 79, 57
1, 80026, Note_on_c, 0, 79, 0
1, 80102, Note_on_c, 0, 79, 57
1, 80178, Note_on_c, 0, 65, 33
1, 80198, Note_on_c, 0, 60, 36
1, 80214, Note_on_c, 0, 57, 36
1, 80226, Control_c, 0, 64, 104
1, 80226, Control_c, 0, 64, 88
1, 80230, Note_on_c, 0, 55, 26
1, 80230, Control_c, 0, 64, 72
1, 80238, Control_c, 0, 64, 56
1, 80242, Note_on_c, 0, 79, 0
1, 80242, Control_c, 0, 64, 40
1, 80250, Control_c, 0, 64, 24
1, 80258, Control_c, 0, 64, 0
1, 80310, Control_c, 0, 64, 24
1, 80314, Note_on_c, 0, 79, 60
1, 80322, Control_c, 0, 64, 40
1, 80330, Control_c, 0, 64, 56
1, 80338, Control_c, 0, 64, 72
1, 80342, Control_c, 0, 64, 88
1, 80354, Control_c, 0, 64, 104
1, 80354, Control_c, 0, 64, 127
1, 80446, Note_on_c, 0, 60, 0
1, 80462, Note_on_c, 0, 65, 0
1, 80526, Note_on_c, 0, 88, 63
1, 80550, Note_on_c, 0, 55, 0
1, 80554, Note_on_c, 0, 57, 0
1, 81070, Note_on_c, 0, 43, 40
1, 81262, Note_on_c, 0, 43, 0
1, 81426, Note_on_c, 0, 79, 0
1, 81574, Note_on_c, 0, 79, 49
1, 81586, Note_on_c, 0, 88, 0
1, 81618, Note_on_c, 0, 79, 0
1, 81718, Note_on_c, 0, 79, 52
1, 81790, Note_on_c, 0, 79, 0
1, 81862, Note_on_c, 0, 79, 61
1, 81962, Note_on_c, 0, 79, 0
1, 82006, Note_on_c, 0, 81, 63
1, 82014, Control_c, 0, 64, 104
1, 82018, Control_c, 0, 64, 88
1, 82022, Control_c, 0, 64, 72
1, 82026, Note_on_c, 0, 36, 39
1, 82026, Control_c, 0, 64, 56
1, 82034, Control_c, 0, 64, 40
1, 82038, Control_c, 0, 64, 24
1, 82046, Note_on_c, 0, 52, 41
1, 82050, Control_c, 0, 64, 0
1, 82102, Control_c, 0, 64, 24
1, 82114, Control_c, 0, 64, 40
1, 82122, Control_c, 0, 64, 56
1, 82130, Control_c, 0, 64, 72
1, 82138, Control_c, 0, 64, 88
1, 82142, Control_c, 0, 64, 104
1, 82146, Control_c, 0, 64, 127
1, 82158, Note_on_c, 0, 81, 0
1, 82174, Note_on_c, 0, 79, 57
1, 82190, Note_on_c, 0, 36, 0
1, 82254, Note_on_c, 0, 79, 0
1, 82310, Note_on_c, 0, 52, 0
1, 82342, Note_on_c, 0, 79, 49
1, 82486, Note_on_c, 0, 79, 0
1, 82590, Note_on_c, 0, 79, 62
1, 82698, Note_on_c, 0, 79, 0
1, 82750, Note_on_c, 0, 81, 66
1, 82862, Note_on_c, 0, 81, 0
1, 82898, Note_on_c, 0, 79, 56
1, 82918, Note_on_c, 0, 64, 32
1, 82926, Note_on_c, 0, 59, 39
1, 82930, Note_on_c, 0, 60, 39
1, 82970, Note_on_c, 0, 79, 0
1, 83058, Note_on_c, 0, 79, 58
1, 83274, Note_on_c, 0, 79, 0
1, 83410, Note_on_c, 0, 84, 66
1, 83542, Note_on_c, 0, 60, 0
1, 83546, Note_on_c, 0, 64, 0
1, 83554, Note_on_c, 0, 59, 0
1, 83662, Note_on_c, 0, 84, 0
1, 83674, Note_on_c, 0, 81, 63
1, 83874, Note_on_c, 0, 81, 0
1, 83886, Control_c, 0, 64, 88
1, 83890, Control_c, 0, 64, 72
1, 83890, Note_on_c, 0, 65, 35
1, 83894, Control_c, 0, 64, 56
1, 83894, Note_on_c, 0, 55, 36
1, 83898, Note_on_c, 0, 57, 42
1, 83898, Note_on_c, 0, 79, 48
1, 83902, Control_c, 0, 64, 40
1, 83902, Note_on_c, 0, 60, 39
1, 83906, Control_c, 0, 64, 24
1, 83906, Control_c, 0, 64, 0
1, 84022, Control_c, 0, 64, 24
1, 84026, Control_c, 0, 64, 40
1, 84034, Control_c, 0, 64, 56
1, 84038, Control_c, 0, 64, 72
1, 84046, Control_c, 0, 64, 88
1, 84050, Control_c, 0, 64, 104
1, 84054, Control_c, 0, 64, 127
1, 84078, Note_on_c, 0, 79, 0
1, 84166, Note_on_c, 0, 79, 50
1, 84178, Note_on_c, 0, 60, 0
1, 84186, Note_on_c, 0, 65, 0
1, 84254, Note_on_c, 0, 55, 0
1, 84266, Note_on_c, 0, 57, 0
1, 84826, Note_on_c, 0, 79, 0
1, 84826, Note_on_c, 0, 43, 42
1, 85098, Note_on_c, 0, 43, 0
1, 85838, Control_c, 0, 64, 104
1, 85842, Control_c, 0, 64, 88
1, 85842, Control_c, 0, 64, 72
1, 85846, Control_c, 0, 64, 56
1, 85854, Control_c, 0, 64, 40
1, 85858, Control_c, 0, 64, 24
1, 85858, Note_on_c, 0, 36, 36
1, 85862, Note_on_c, 0, 90, 57
1, 85870, Control_c, 0, 64, 0
1, 85890, Note_on_c, 0, 52, 41
1, 85906, Note_on_c, 0, 81, 31
1, 85918, Control_c, 0, 64, 24
1, 85934, Control_c, 0, 64, 40
1, 85942, Control_c, 0, 64, 56
1, 85950, Control_c, 0, 64, 72
1, 85958, Control_c, 0, 64, 88
1, 85962, Control_c, 0, 64, 104
1, 85966, Control_c, 0, 64, 127
1, 86074, Note_on_c, 0, 36, 0
1, 86198, Note_on_c, 0, 81, 0
1, 86222, Note_on_c, 0, 52, 0
1, 86234, Note_on_c, 0, 90, 0
1, 86354, Note_on_c, 0, 93, 83
1, 86570, Note_on_c, 0, 90, 68
1, 86614, Note_on_c, 0, 93, 0
1, 86706, Note_on_c, 0, 90, 0
1, 86758, Note_on_c, 0, 91, 75
1, 86946, Note_on_c, 0, 59, 36
1, 86950, Note_on_c, 0, 64, 39
1, 86962, Note_on_c, 0, 60, 39
1, 86970, Note_on_c, 0, 89, 66
1, 86990, Control_c, 0, 64, 104
1, 86994, Control_c, 0, 64, 88
1, 86998, Control_c, 0, 64, 72
1, 86998, Control_c, 0, 64, 56
1, 87006, Control_c, 0, 64, 40
1, 87014, Control_c, 0, 64, 24
1, 87018, Note_on_c, 0, 91, 0
1, 87018, Control_c, 0, 64, 0
1, 87086, Control_c, 0, 64, 24
1, 87094, Control_c, 0, 64, 40
1, 87102, Control_c, 0, 64, 56
1, 87106, Control_c, 0, 64, 72
1, 87114, Control_c, 0, 64, 88
1, 87118, Control_c, 0, 64, 104
1, 87122, Control_c, 0, 64, 127
1, 87266, Note_on_c, 0, 88, 66
1, 87270, Note_on_c, 0, 89, 0
1, 87402, Note_on_c, 0, 64, 0
1, 87406, Note_on_c, 0, 60, 0
1, 87422, Note_on_c, 0, 88, 0
1, 87422, Note_on_c, 0, 59, 0
1, 87446, Note_on_c, 0, 84, 63
1, 87538, Note_on_c, 0, 84, 0
1, 87578, Note_on_c, 0, 79, 58
1, 87658, Note_on_c, 0, 79, 0
1, 87706, Note_on_c, 0, 77, 57
1, 87826, Note_on_c, 0, 77, 0
1, 87846, Note_on_c, 0, 76, 52
1, 87902, Note_on_c, 0, 65, 36
1, 87902, Note_on_c, 0, 57, 36
1, 87910, Note_on_c, 0, 60, 34
1, 87914, Note_on_c, 0, 55, 33
1, 87930, Note_on_c, 0, 76, 0
1, 87934, Control_c, 0, 64, 88
1, 87934, Control_c, 0, 64, 72
1, 87942, Control_c, 0, 64, 56
1, 87946, Control_c, 0, 64, 40
1, 87950, Control_c, 0, 64, 24
1, 87950, Control_c, 0, 64, 0
1, 87986, Note_on_c, 0, 79, 49
1, 88086, Note_on_c, 0, 79, 0
1, 88098, Control_c, 0, 64, 24
1, 88106, Control_c, 0, 64, 40
1, 88110, Control_c, 0, 64, 56
1, 88118, Control_c, 0, 64, 72
1, 88122, Control_c, 0, 64, 88
1, 88130, Control_c, 0, 64, 104
1, 88134, Control_c, 0, 64, 127
1, 88146, Note_on_c, 0, 76, 44
1, 88194, Note_on_c, 0, 65, 0
1, 88198, Note_on_c, 0, 60, 0
1, 88222, Note_on_c, 0, 76, 0
1, 88258, Note_on_c, 0, 77, 54
1, 88286, Note_on_c, 0, 57, 0
1, 88286, Note_on_c, 0, 55, 0
1, 88338, Note_on_c, 0, 77, 0
1, 88418, Note_on_c, 0, 76, 62
1, 88546, Note_on_c, 0, 76, 0
1, 88642, Note_on_c, 0, 67, 40
1, 88802, Note_on_c, 0, 67, 0
1, 88970, Note_on_c, 0, 71, 54
1, 88978, Control_c, 0, 64, 104
1, 88982, Control_c, 0, 64, 88
1, 88986, Note_on_c, 0, 43, 39
1, 88986, Control_c, 0, 64, 72
1, 88990, Control_c, 0, 64, 56
1, 88994, Control_c, 0, 64, 40
1, 88998, Note_on_c, 0, 53, 31
1, 89002, Control_c, 0, 64, 24
1, 89006, Control_c, 0, 64, 0
1, 89098, Control_c, 0, 64, 24
1, 89106, Control_c, 0, 64, 40
1, 89114, Control_c, 0, 64, 56
1, 89118, Control_c, 0, 64, 72
1, 89126, Control_c, 0, 64, 88
1, 89134, Control_c, 0, 64, 104
1, 89138, Control_c, 0, 64, 127
1, 89294, Note_on_c, 0, 43, 0
1, 89378, Note_on_c, 0, 53, 0
1, 89786, Note_on_c, 0, 71, 0
1, 89994, Control_c, 0, 64, 104
1, 89998, Control_c, 0, 64, 88
1, 90002, Control_c, 0, 64, 72
1, 90006, Control_c, 0, 64, 56
1, 90014, Control_c, 0, 64, 40
1, 90018, Control_c, 0, 64, 24
1, 90022, Note_on_c, 0, 36, 41
1, 90030, Control_c, 0, 64, 0
1, 90046, Note_on_c, 0, 52, 41
1, 90086, Control_c, 0, 64, 24
1, 90098, Control_c, 0, 64, 40
1, 90106, Control_c, 0, 64, 56
1, 90118, Control_c, 0, 64, 72
1, 90122, Control_c, 0, 64, 88
1, 90130, Control_c, 0, 64, 104
1, 90134, Control_c, 0, 64, 127
1, 90258, Note_on_c, 0, 36, 0
1, 90402, Note_on_c, 0, 52, 0
1, 91082, Note_on_c, 0, 59, 31
1, 91094, Note_on_c, 0, 60, 37
1, 91098, Note_on_c, 0, 64, 27
1, 91378, Note_on_c, 0, 90, 57
1, 91558, Note_on_c, 0, 90, 0
1, 91610, Note_on_c, 0, 91, 81
1, 91746, Note_on_c, 0, 59, 0
1, 91766, Note_on_c, 0, 60, 0
1, 91790, Note_on_c, 0, 64, 0
1, 91850, Note_on_c, 0, 91, 0
1, 91858, Note_on_c, 0, 87, 56
1, 92006, Note_on_c, 0, 87, 0
1, 92014, Note_on_c, 0, 89, 79
1, 92150, Note_on_c, 0, 89, 0
1, 92162, Note_on_c, 0, 88, 70
1, 92170, Note_on_c, 0, 65, 37
1, 92174, Note_on_c, 0, 60, 43
1, 92174, Note_on_c, 0, 55, 36
1, 92174, Note_on_c, 0, 57, 43
1, 92190, Control_c, 0, 64, 104
1, 92194, Control_c, 0, 64, 88
1, 92194, Control_c, 0, 64, 72
1, 92198, Control_c, 0, 64, 56
1, 92206, Control_c, 0, 64, 40
1, 92210, Control_c, 0, 64, 24
1, 92214, Control_c, 0, 64, 0
1, 92322, Note_on_c, 0, 88, 0
1, 92338, Control_c, 0, 64, 24
1, 92342, Note_on_c, 0, 84, 57
1, 92346, Control_c, 0, 64, 40
1, 92350, Control_c, 0, 64, 56
1, 92358, Control_c, 0, 64, 72
1, 92366, Control_c, 0, 64, 88
1, 92374, Control_c, 0, 64, 104
1, 92378, Control_c, 0, 64, 127
1, 92478, Note_on_c, 0, 84, 0
1, 92502, Note_on_c, 0, 79, 55
1, 92662, Note_on_c, 0, 60, 0
1, 92678, Note_on_c, 0, 65, 0
1, 92754, Note_on_c, 0, 55, 0
1, 92754, Note_on_c, 0, 57, 0
1, 93206, Note_on_c, 0, 43, 39
1, 93686, Note_on_c, 0, 43, 0
1, 93858, Note_on_c, 0, 90, 73
1, 93990, Note_on_c, 0, 79, 0
1, 94038, Note_on_c, 0, 90, 0
1, 94078, Note_on_c, 0, 91, 75
1, 94238, Note_on_c, 0, 91, 0
1, 94298, Note_on_c, 0, 83, 23
1, 94410, Control_c, 0, 64, 88
1, 94414, Control_c, 0, 64, 72
1, 94418, Control_c, 0, 64, 56
1, 94422, Control_c, 0, 64, 40
1, 94430, Control_c, 0, 64, 24
1, 94430, Note_on_c, 0, 36, 45
1, 94430, Control_c, 0, 64, 0
1, 94454, Note_on_c, 0, 52, 36
1, 94482, Note_on_c, 0, 83, 0
1, 94482, Note_on_c, 0, 89, 74
1, 94542, Control_c, 0, 64, 24
1, 94550, Control_c, 0, 64, 40
1, 94554, Control_c, 0, 64, 56
1, 94562, Control_c, 0, 64, 72
1, 94562, Control_c, 0, 64, 88
1, 94570, Control_c, 0, 64, 104
1, 94574, Control_c, 0, 64, 127
1, 94642, Note_on_c, 0, 89, 0
1, 94658, Note_on_c, 0, 87, 59
1, 94710, Note_on_c, 0, 36, 0
1, 94778, Note_on_c, 0, 87, 0
1, 94798, Note_on_c, 0, 88, 57
1, 94826, Note_on_c, 0, 52, 0
1, 94946, Note_on_c, 0, 88, 0
1, 94946, Note_on_c, 0, 84, 57
1, 95018, Note_on_c, 0, 84, 0
1, 95050, Note_on_c, 0, 79, 51
1, 95126, Note_on_c, 0, 79, 0
1, 95174, Note_on_c, 0, 77, 52
1, 95270, Note_on_c, 0, 77, 0
1, 95306, Note_on_c, 0, 76, 57
1, 95354, Note_on_c, 0, 76, 0
1, 95402, Note_on_c, 0, 81, 79
1, 95486, Note_on_c, 0, 60, 41
1, 95490, Note_on_c, 0, 64, 31
1, 95494, Control_c, 0, 64, 104
1, 95494, Note_on_c, 0, 59, 37
1, 95498, Control_c, 0, 64, 88
1, 95498, Control_c, 0, 64, 72
1, 95502, Control_c, 0, 64, 56
1, 95510, Control_c, 0, 64, 40
1, 95510, Control_c, 0, 64, 24
1, 95518, Control_c, 0, 64, 0
1, 95522, Note_on_c, 0, 81, 0
1, 95530, Note_on_c, 0, 76, 38
1, 95618, Note_on_c, 0, 76, 0
1, 95622, Control_c, 0, 64, 24
1, 95630, Control_c, 0, 64, 40
1, 95634, Control_c, 0, 64, 56
1, 95642, Control_c, 0, 64, 72
1, 95646, Control_c, 0, 64, 88
1, 95650, Note_on_c, 0, 79, 56
1, 95654, Control_c, 0, 64, 127
1, 95746, Note_on_c, 0, 79, 0
1, 95822, Note_on_c, 0, 77, 61
1, 95926, Note_on_c, 0, 77, 0
1, 96042, Note_on_c, 0, 59, 0
1, 96054, Note_on_c, 0, 76, 56
1, 96058, Note_on_c, 0, 60, 0
1, 96066, Note_on_c, 0, 64, 0
1, 96122, Note_on_c, 0, 76, 0
1, 96226, Note_on_c, 0, 72, 34
1, 96322, Note_on_c, 0, 72, 0
1, 96374, Note_on_c, 0, 67, 54
1, 96506, Note_on_c, 0, 67, 0
1, 96546, Note_on_c, 0, 69, 55
1, 96546, Note_on_c, 0, 65, 39
1, 96554, Control_c, 0, 64, 104
1, 96558, Control_c, 0, 64, 88
1, 96558, Control_c, 0, 64, 72
1, 96562, Note_on_c, 0, 55, 35
1, 96562, Control_c, 0, 64, 56
1, 96570, Control_c, 0, 64, 40
1, 96570, Note_on_c, 0, 57, 39
1, 96574, Control_c, 0, 64, 24
1, 96574, Note_on_c, 0, 60, 39
1, 96582, Control_c, 0, 64, 0
1, 96686, Control_c, 0, 64, 24
1, 96694, Control_c, 0, 64, 40
1, 96702, Control_c, 0, 64, 56
1, 96706, Control_c, 0, 64, 72
1, 96714, Control_c, 0, 64, 88
1, 96718, Control_c, 0, 64, 104
1, 96726, Control_c, 0, 64, 127
1, 96830, Note_on_c, 0, 60, 0
1, 96830, Note_on_c, 0, 65, 0
1, 96950, Note_on_c, 0, 57, 0
1, 96954, Note_on_c, 0, 55, 0
1, 97266, Note_on_c, 0, 69, 0
1, 97282, Note_on_c, 0, 67, 45
1, 97638, Control_c, 0, 64, 104
1, 97638, Control_c, 0, 64, 88
1, 97646, Control_c, 0, 64, 72
1, 97650, Note_on_c, 0, 43, 41
1, 97654, Control_c, 0, 64, 56
1, 97722, Control_c, 0, 64, 72
1, 97734, Control_c, 0, 64, 88
1, 97746, Control_c, 0, 64, 104
1, 97754, Control_c, 0, 64, 127
1, 97918, Note_on_c, 0, 71, 49
1, 97954, Note_on_c, 0, 43, 0
1, 98166, Note_on_c, 0, 71, 0
1, 98198, Note_on_c, 0, 74, 60
1, 98202, Note_on_c, 0, 67, 0
1, 98634, Note_on_c, 0, 69, 57
1, 98646, Note_on_c, 0, 36, 46
1, 98666, Control_c, 0, 64, 88
1, 98670, Control_c, 0, 64, 72
1, 98674, Control_c, 0, 64, 56
1, 98678, Control_c, 0, 64, 40
1, 98682, Note_on_c, 0, 52, 31
1, 98682, Control_c, 0, 64, 24
1, 98686, Control_c, 0, 64, 0
1, 98862, Control_c, 0, 64, 24
1, 98870, Control_c, 0, 64, 40
1, 98878, Control_c, 0, 64, 56
1, 98886, Control_c, 0, 64, 72
1, 98894, Control_c, 0, 64, 88
1, 98898, Control_c, 0, 64, 104
1, 98906, Control_c, 0, 64, 127
1, 98974, Note_on_c, 0, 67, 44
1, 98994, Note_on_c, 0, 36, 0
1, 98994, Note_on_c, 0, 69, 0
1, 99086, Note_on_c, 0, 52, 0
1, 99162, Note_on_c, 0, 67, 0
1, 99278, Note_on_c, 0, 67, 46
1, 99478, Note_on_c, 0, 67, 0
1, 99634, Note_on_c, 0, 67, 41
1, 99634, Note_on_c, 0, 64, 33
1, 99646, Note_on_c, 0, 59, 37
1, 99650, Note_on_c, 0, 60, 36
1, 100142, Note_on_c, 0, 60, 0
1, 100146, Note_on_c, 0, 64, 0
1, 100158, Note_on_c, 0, 59, 0
1, 100170, Note_on_c, 0, 67, 0
1, 100398, Note_on_c, 0, 74, 0
1, 100646, Control_c, 0, 64, 104
1, 100646, Control_c, 0, 64, 88
1, 100650, Control_c, 0, 64, 72
1, 100658, Control_c, 0, 64, 56
1, 100658, Note_on_c, 0, 55, 37
1, 100662, Control_c, 0, 64, 40
1, 100666, Control_c, 0, 64, 24
1, 100670, Control_c, 0, 64, 0
1, 100678, Note_on_c, 0, 57, 39
1, 100682, Note_on_c, 0, 60, 36
1, 100682, Note_on_c, 0, 65, 35
1, 100758, Control_c, 0, 64, 24
1, 100766, Control_c, 0, 64, 40
1, 100774, Control_c, 0, 64, 56
1, 100778, Control_c, 0, 64, 72
1, 100786, Control_c, 0, 64, 88
1, 100790, Control_c, 0, 64, 104
1, 100794, Control_c, 0, 64, 127
1, 100906, Note_on_c, 0, 65, 0
1, 100906, Note_on_c, 0, 60, 0
1, 101006, Note_on_c, 0, 57, 0
1, 101010, Note_on_c, 0, 55, 0
1, 101122, Note_on_c, 0, 88, 84
1, 101302, Note_on_c, 0, 83, 68
1, 101382, Note_on_c, 0, 88, 0
1, 101446, Note_on_c, 0, 83, 0
1, 101450, Note_on_c, 0, 81, 66
1, 101530, Note_on_c, 0, 81, 0
1, 101598, Note_on_c, 0, 86, 78
1, 101638, Control_c, 0, 64, 88
1, 101646, Control_c, 0, 64, 72
1, 101646, Note_on_c, 0, 43, 44
1, 101650, Control_c, 0, 64, 56
1, 101650, Control_c, 0, 64, 40
1, 101658, Control_c, 0, 64, 24
1, 101666, Control_c, 0, 64, 0
1, 101742, Control_c, 0, 64, 24
1, 101746, Note_on_c, 0, 86, 0
1, 101750, Control_c, 0, 64, 40
1, 101754, Note_on_c, 0, 83, 60
1, 101754, Control_c, 0, 64, 56
1, 101762, Control_c, 0, 64, 72
1, 101766, Control_c, 0, 64, 88
1, 101774, Control_c, 0, 64, 104
1, 101778, Control_c, 0, 64, 127
1, 101858, Note_on_c, 0, 83, 0
1, 101890, Note_on_c, 0, 79, 57
1, 102002, Note_on_c, 0, 79, 0
1, 102062, Note_on_c, 0, 76, 36
1, 102182, Note_on_c, 0, 76, 0
1, 102226, Note_on_c, 0, 81, 64
1, 102342, Note_on_c, 0, 81, 0
1, 102394, Note_on_c, 0, 79, 56
1, 102598, Control_c, 0, 64, 104
1, 102598, Control_c, 0, 64, 88
1, 102602, Control_c, 0, 64, 72
1, 102610, Control_c, 0, 64, 56
1, 102610, Control_c, 0, 64, 40
1, 102614, Control_c, 0, 64, 24
1, 102622, Control_c, 0, 64, 0
1, 102630, Note_on_c, 0, 36, 39
1, 102646, Note_on_c, 0, 52, 36
1, 102698, Note_on_c, 0, 43, 0
1, 102746, Control_c, 0, 64, 24
1, 102750, Control_c, 0, 64, 40
1, 102758, Control_c, 0, 64, 56
1, 102762, Control_c, 0, 64, 72
1, 102770, Control_c, 0, 64, 88
1, 102774, Control_c, 0, 64, 104
1, 102778, Control_c, 0, 64, 127
1, 102858, Note_on_c, 0, 36, 0
1, 102978, Note_on_c, 0, 52, 0
1, 103138, Note_on_c, 0, 74, 50
1, 103254, Note_on_c, 0, 79, 0
1, 103286, Note_on_c, 0, 74, 0
1, 103290, Note_on_c, 0, 72, 45
1, 103554, Note_on_c, 0, 72, 0
1, 103602, Note_on_c, 0, 64, 39
1, 103602, Note_on_c, 0, 60, 45
1, 103610, Note_on_c, 0, 59, 39
1, 103902, Note_on_c, 0, 79, 67
1, 104042, Note_on_c, 0, 64, 0
1, 104054, Note_on_c, 0, 60, 0
1, 104090, Note_on_c, 0, 59, 0
1, 104186, Note_on_c, 0, 79, 0
1, 104230, Note_on_c, 0, 76, 48
1, 104522, Note_on_c, 0, 71, 59
1, 104542, Note_on_c, 0, 55, 36
1, 104554, Note_on_c, 0, 60, 41
1, 104558, Control_c, 0, 64, 104
1, 104558, Note_on_c, 0, 65, 26
1, 104562, Control_c, 0, 64, 88
1, 104562, Control_c, 0, 64, 72
1, 104566, Note_on_c, 0, 57, 40
1, 104566, Control_c, 0, 64, 56
1, 104574, Control_c, 0, 64, 40
1, 104574, Control_c, 0, 64, 24
1, 104582, Control_c, 0, 64, 0
1, 104678, Control_c, 0, 64, 24
1, 104682, Control_c, 0, 64, 40
1, 104690, Control_c, 0, 64, 56
1, 104694, Control_c, 0, 64, 72
1, 104702, Control_c, 0, 64, 88
1, 104706, Control_c, 0, 64, 104
1, 104710, Control_c, 0, 64, 127
1, 104886, Note_on_c, 0, 65, 0
1, 104890, Note_on_c, 0, 71, 0
1, 104894, Note_on_c, 0, 69, 41
1, 104898, Note_on_c, 0, 60, 0
1, 104990, Note_on_c, 0, 57, 0
1, 104998, Note_on_c, 0, 55, 0
1, 105422, Note_on_c, 0, 69, 0
1, 105606, Note_on_c, 0, 43, 41
1, 105610, Note_on_c, 0, 69, 42
1, 105614, Control_c, 0, 64, 104
1, 105618, Control_c, 0, 64, 88
1, 105626, Control_c, 0, 64, 72
1, 105630, Note_on_c, 0, 53, 32
1, 105630, Control_c, 0, 64, 56
1, 105642, Control_c, 0, 64, 40
1, 105682, Control_c, 0, 64, 56
1, 105698, Control_c, 0, 64, 72
1, 105706, Control_c, 0, 64, 88
1, 105718, Control_c, 0, 64, 104
1, 105722, Control_c, 0, 64, 127
1, 105938, Note_on_c, 0, 43, 0
1, 105974, Note_on_c, 0, 53, 0
1, 106050, Note_on_c, 0, 76, 0
1, 106090, Note_on_c, 0, 69, 0
1, 106266, Note_on_c, 0, 69, 35
1, 106450, Note_on_c, 0, 69, 0
1, 106658, Note_on_c, 0, 36, 45
1, 106662, Control_c, 0, 64, 104
1, 106666, Control_c, 0, 64, 88
1, 106666, Note_on_c, 0, 69, 45
1, 106670, Control_c, 0, 64, 72
1, 106670, Control_c, 0, 64, 56
1, 106674, Control_c, 0, 64, 40
1, 106682, Control_c, 0, 64, 24
1, 106682, Control_c, 0, 64, 0
1, 106698, Note_on_c, 0, 52, 36
1, 106826, Control_c, 0, 64, 24
1, 106830, Control_c, 0, 64, 40
1, 106838, Control_c, 0, 64, 56
1, 106846, Control_c, 0, 64, 72
1, 106850, Control_c, 0, 64, 88
1, 106862, Control_c, 0, 64, 104
1, 106866, Control_c, 0, 64, 127
1, 107026, Note_on_c, 0, 36, 0
1, 107070, Note_on_c, 0, 71, 56
1, 107106, Note_on_c, 0, 52, 0
1, 107134, Note_on_c, 0, 69, 0
1, 107342, Note_on_c, 0, 71, 0
1, 107354, Note_on_c, 0, 67, 60
1, 107602, Note_on_c, 0, 67, 0
1, 107714, Note_on_c, 0, 67, 58
1, 107726, Note_on_c, 0, 64, 32
1, 107730, Note_on_c, 0, 59, 36
1, 107734, Note_on_c, 0, 60, 39
1, 108274, Note_on_c, 0, 67, 0
1, 108402, Note_on_c, 0, 64, 0
1, 108402, Note_on_c, 0, 60, 0
1, 108406, Note_on_c, 0, 59, 0
1, 108414, Note_on_c, 0, 67, 48
1, 108626, Note_on_c, 0, 67, 0
1, 108798, Note_on_c, 0, 67, 48
1, 108814, Note_on_c, 0, 65, 34
1, 108830, Note_on_c, 0, 55, 27
1, 108834, Note_on_c, 0, 57, 31
1, 108834, Control_c, 0, 64, 104
1, 108838, Control_c, 0, 64, 88
1, 108842, Control_c, 0, 64, 72
1, 108842, Note_on_c, 0, 60, 43
1, 108846, Control_c, 0, 64, 56
1, 108850, Control_c, 0, 64, 40
1, 108854, Control_c, 0, 64, 24
1, 108862, Control_c, 0, 64, 0
1, 108978, Control_c, 0, 64, 24
1, 108986, Control_c, 0, 64, 40
1, 108990, Control_c, 0, 64, 56
1, 109002, Control_c, 0, 64, 72
1, 109006, Control_c, 0, 64, 88
1, 109018, Control_c, 0, 64, 104
1, 109022, Control_c, 0, 64, 127
1, 109406, Note_on_c, 0, 57, 0
1, 109454, Note_on_c, 0, 65, 0
1, 109498, Note_on_c, 0, 60, 0
1, 109878, Note_on_c, 0, 67, 0
1, 110110, Note_on_c, 0, 55, 0
1, 111410, Control_c, 0, 64, 104
1, 111410, Control_c, 0, 64, 88
1, 111418, Control_c, 0, 64, 72
1, 111422, Control_c, 0, 64, 56
1, 111430, Control_c, 0, 64, 40
1, 111434, Control_c, 0, 64, 24
1, 111434, End_track
0, 0, End_of_file
