0, 0, Header, 1, 4, 384
1, 0, Start_track
1, 0, Title_t, "The Peanut Vendor (El Manisero)"
1, 0, Text_t, "dougmck@pipeline.com.au\012"
1, 0, Sequencer_specific, 3, 0, 0, 65
1, 0, Time_signature, 4, 2, 24, 8
1, 0, Key_signature, -1, "major"
1, 0, Tempo, 361446
1, 0, Marker_t, "Intro on a C7#9 chord"
1, 18432, Marker_t, "Montuno figure played with LH only"
1, 79872, Marker_t, "New repetitive figure in RH (montuna)"
1, 92160, Marker_t, "LH 'stride' pattern played"
1, 109160, Marker_t, "C half/whole tone diminished scale"
1, 122888, Marker_t, "RH improvises in diatonic thirds (from F Scale)"
1, 133250, Marker_t, "Quite an easy run to execute - a C7 arpeggio followed by descending chromatic notes to next octave"
1, 137642, Marker_t, "'Bluesey' figure"
1, 150938, Marker_t, "Use just thumb and index finger alternately to climb the scale"
1, 156768, Marker_t, "Melody harmonised in diatonic fifths (from F Maj scale)"
1, 266290, Marker_t, "More 'bluesy' licks"
1, 271126, Marker_t, "'Wrong' out-of-key notes resolve by step to chord tone"
1, 271126, End_track
2, 0, Start_track
2, 0, Title_t, "Piano"
2, 0, Control_c, 0, 7, 106
2, 12, Note_on_c, 0, 24, 42
2, 16, Note_on_c, 0, 52, 57
2, 16, Note_on_c, 0, 58, 54
2, 20, Note_on_c, 0, 63, 51
2, 24, Note_on_c, 0, 36, 42
2, 124, Note_on_c, 0, 52, 0
2, 158, Note_on_c, 0, 63, 0
2, 158, Note_on_c, 0, 36, 0
2, 176, Note_on_c, 0, 58, 0
2, 182, Note_on_c, 0, 24, 0
2, 600, Note_on_c, 0, 63, 73
2, 606, Note_on_c, 0, 58, 68
2, 608, Note_on_c, 0, 52, 63
2, 610, Note_on_c, 0, 24, 45
2, 616, Note_on_c, 0, 36, 62
2, 640, Note_on_c, 0, 52, 0
2, 674, Note_on_c, 0, 24, 0
2, 694, Note_on_c, 0, 36, 0
2, 698, Note_on_c, 0, 58, 0
2, 728, Note_on_c, 0, 63, 0
2, 1742, Note_on_c, 0, 43, 30
2, 1752, Note_on_c, 0, 55, 55
2, 1808, Note_on_c, 0, 55, 0
2, 1900, Note_on_c, 0, 43, 0
2, 1908, Note_on_c, 0, 46, 24
2, 1954, Note_on_c, 0, 58, 25
2, 2038, Note_on_c, 0, 58, 0
2, 2090, Note_on_c, 0, 46, 0
2, 2122, Note_on_c, 0, 48, 35
2, 2138, Note_on_c, 0, 60, 56
2, 2188, Note_on_c, 0, 48, 0
2, 2216, Note_on_c, 0, 60, 0
2, 2316, Note_on_c, 0, 63, 85
2, 2318, Note_on_c, 0, 51, 69
2, 2410, Note_on_c, 0, 51, 0
2, 2478, Note_on_c, 0, 63, 0
2, 2700, Note_on_c, 0, 51, 70
2, 2712, Note_on_c, 0, 63, 86
2, 2826, Note_on_c, 0, 51, 0
2, 2932, Note_on_c, 0, 63, 0
2, 3092, Note_on_c, 0, 48, 51
2, 3094, Note_on_c, 0, 60, 84
2, 3220, Note_on_c, 0, 48, 0
2, 3276, Note_on_c, 0, 60, 0
2, 3676, Note_on_c, 0, 24, 45
2, 3678, Note_on_c, 0, 36, 50
2, 3684, Note_on_c, 0, 58, 53
2, 3686, Note_on_c, 0, 63, 47
2, 3688, Note_on_c, 0, 52, 54
2, 3736, Note_on_c, 0, 52, 0
2, 3768, Note_on_c, 0, 63, 0
2, 3800, Note_on_c, 0, 58, 0
2, 3838, Note_on_c, 0, 24, 0
2, 3844, Note_on_c, 0, 36, 0
2, 3888, Control_c, 0, 64, 127
2, 4216, Control_c, 0, 64, 0
2, 4248, Note_on_c, 0, 63, 51
2, 4248, Note_on_c, 0, 24, 40
2, 4256, Note_on_c, 0, 58, 49
2, 4260, Note_on_c, 0, 36, 40
2, 4272, Note_on_c, 0, 52, 29
2, 4368, Note_on_c, 0, 52, 0
2, 4478, Note_on_c, 0, 58, 0
2, 4488, Note_on_c, 0, 63, 0
2, 4518, Note_on_c, 0, 24, 0
2, 4540, Note_on_c, 0, 36, 0
2, 5358, Note_on_c, 0, 54, 78
2, 5366, Note_on_c, 0, 66, 83
2, 5548, Note_on_c, 0, 66, 0
2, 5564, Note_on_c, 0, 54, 0
2, 5586, Note_on_c, 0, 51, 44
2, 5592, Note_on_c, 0, 63, 46
2, 5668, Note_on_c, 0, 63, 0
2, 5718, Note_on_c, 0, 51, 0
2, 5748, Note_on_c, 0, 53, 57
2, 5758, Note_on_c, 0, 65, 74
2, 5882, Note_on_c, 0, 65, 0
2, 5936, Note_on_c, 0, 53, 0
2, 5962, Note_on_c, 0, 63, 64
2, 5986, Note_on_c, 0, 51, 46
2, 6064, Note_on_c, 0, 63, 0
2, 6094, Note_on_c, 0, 51, 0
2, 6132, Note_on_c, 0, 64, 52
2, 6144, Note_on_c, 0, 52, 38
2, 6290, Note_on_c, 0, 64, 0
2, 6318, Note_on_c, 0, 52, 0
2, 6346, Note_on_c, 0, 60, 59
2, 6364, Note_on_c, 0, 48, 35
2, 6402, Note_on_c, 0, 48, 0
2, 6420, Note_on_c, 0, 60, 0
2, 6572, Note_on_c, 0, 57, 24
2, 6716, Note_on_c, 0, 57, 0
2, 6768, Note_on_c, 0, 41, 33
2, 6806, Note_on_c, 0, 41, 0
2, 6932, Note_on_c, 0, 63, 71
2, 6938, Note_on_c, 0, 58, 67
2, 6942, Note_on_c, 0, 52, 54
2, 6954, Note_on_c, 0, 36, 53
2, 6958, Note_on_c, 0, 53, 42
2, 6990, Note_on_c, 0, 53, 0
2, 7038, Note_on_c, 0, 36, 0
2, 7116, Note_on_c, 0, 52, 0
2, 7148, Note_on_c, 0, 63, 0
2, 7152, Note_on_c, 0, 58, 0
2, 7524, Note_on_c, 0, 63, 67
2, 7530, Note_on_c, 0, 36, 47
2, 7530, Note_on_c, 0, 58, 60
2, 7538, Note_on_c, 0, 52, 44
2, 7718, Note_on_c, 0, 52, 0
2, 7776, Note_on_c, 0, 58, 0
2, 7776, Note_on_c, 0, 36, 0
2, 7818, Note_on_c, 0, 63, 0
2, 8678, Note_on_c, 0, 48, 26
2, 8772, Note_on_c, 0, 48, 0
2, 8820, Note_on_c, 0, 51, 72
2, 8836, Note_on_c, 0, 63, 87
2, 8960, Note_on_c, 0, 63, 0
2, 9050, Note_on_c, 0, 63, 54
2, 9172, Note_on_c, 0, 63, 0
2, 9180, Note_on_c, 0, 51, 0
2, 9240, Note_on_c, 0, 58, 60
2, 9244, Note_on_c, 0, 46, 35
2, 9412, Note_on_c, 0, 58, 0
2, 9440, Note_on_c, 0, 60, 57
2, 9464, Note_on_c, 0, 48, 38
2, 9540, Note_on_c, 0, 46, 0
2, 9552, Note_on_c, 0, 60, 0
2, 9608, Note_on_c, 0, 60, 58
2, 9778, Note_on_c, 0, 60, 0
2, 9788, Note_on_c, 0, 48, 0
2, 9936, Note_on_c, 0, 46, 13
2, 9986, Note_on_c, 0, 60, 76
2, 10004, Note_on_c, 0, 48, 42
2, 10034, Note_on_c, 0, 46, 0
2, 10130, Note_on_c, 0, 48, 0
2, 10152, Note_on_c, 0, 60, 0
2, 10350, Note_on_c, 0, 58, 43
2, 10354, Note_on_c, 0, 46, 20
2, 10490, Note_on_c, 0, 58, 0
2, 10548, Note_on_c, 0, 60, 57
2, 10554, Note_on_c, 0, 46, 0
2, 10560, Note_on_c, 0, 48, 36
2, 11908, Note_on_c, 0, 48, 0
2, 12170, Note_on_c, 0, 60, 0
2, 12696, Note_on_c, 0, 89, 60
2, 12708, Note_on_c, 0, 77, 36
2, 12732, Note_on_c, 0, 89, 0
2, 12760, Note_on_c, 0, 77, 0
2, 13062, Note_on_c, 0, 84, 34
2, 13078, Note_on_c, 0, 72, 25
2, 13138, Note_on_c, 0, 72, 0
2, 13144, Note_on_c, 0, 84, 0
2, 13450, Note_on_c, 0, 86, 35
2, 13466, Note_on_c, 0, 74, 36
2, 13992, Note_on_c, 0, 74, 0
2, 14052, Note_on_c, 0, 86, 0
2, 14206, Note_on_c, 0, 88, 64
2, 14216, Note_on_c, 0, 76, 55
2, 14322, Note_on_c, 0, 88, 0
2, 14332, Note_on_c, 0, 76, 0
2, 14582, Note_on_c, 0, 86, 40
2, 14592, Note_on_c, 0, 74, 40
2, 14828, Note_on_c, 0, 86, 39
2, 14844, Note_on_c, 0, 74, 36
2, 14908, Note_on_c, 0, 86, 0
2, 14912, Note_on_c, 0, 74, 0
2, 14918, Note_on_c, 0, 86, 0
2, 14934, Note_on_c, 0, 74, 0
2, 15030, Note_on_c, 0, 84, 48
2, 15038, Note_on_c, 0, 72, 34
2, 15468, Note_on_c, 0, 72, 0
2, 15514, Note_on_c, 0, 84, 0
2, 15722, Note_on_c, 0, 89, 46
2, 15736, Note_on_c, 0, 77, 57
2, 15820, Note_on_c, 0, 89, 0
2, 15844, Note_on_c, 0, 77, 0
2, 16134, Note_on_c, 0, 84, 40
2, 16140, Note_on_c, 0, 72, 33
2, 16218, Note_on_c, 0, 72, 0
2, 16220, Note_on_c, 0, 84, 0
2, 16506, Note_on_c, 0, 86, 41
2, 16514, Note_on_c, 0, 74, 36
2, 16568, Note_on_c, 0, 74, 0
2, 16576, Note_on_c, 0, 86, 0
2, 16896, Note_on_c, 0, 88, 36
2, 16900, Note_on_c, 0, 76, 44
2, 18432, Note_on_c, 0, 88, 0
2, 18436, Note_on_c, 0, 76, 0
2, 18676, Note_on_c, 0, 55, 31
2, 18710, Note_on_c, 0, 57, 20
2, 18714, Note_on_c, 0, 81, 101
2, 18716, Note_on_c, 0, 69, 91
2, 18740, Note_on_c, 0, 82, 37
2, 18772, Note_on_c, 0, 82, 0
2, 18780, Note_on_c, 0, 57, 0
2, 18948, Note_on_c, 0, 55, 0
2, 18976, Note_on_c, 0, 82, 73
2, 18978, Note_on_c, 0, 70, 79
2, 18990, Note_on_c, 0, 50, 48
2, 19102, Note_on_c, 0, 82, 0
2, 19150, Note_on_c, 0, 69, 0
2, 19154, Note_on_c, 0, 70, 0
2, 19162, Note_on_c, 0, 81, 0
2, 19200, Note_on_c, 0, 84, 58
2, 19200, Note_on_c, 0, 72, 51
2, 19306, Note_on_c, 0, 72, 0
2, 19328, Note_on_c, 0, 84, 0
2, 19372, Note_on_c, 0, 50, 0
2, 19470, Note_on_c, 0, 74, 49
2, 19470, Note_on_c, 0, 86, 64
2, 19484, Note_on_c, 0, 60, 1
2, 19566, Note_on_c, 0, 52, 43
2, 19570, Note_on_c, 0, 86, 0
2, 19594, Note_on_c, 0, 74, 0
2, 19616, Note_on_c, 0, 60, 0
2, 19618, Note_on_c, 0, 72, 34
2, 19640, Note_on_c, 0, 84, 45
2, 19740, Note_on_c, 0, 84, 0
2, 19820, Note_on_c, 0, 72, 0
2, 19830, Note_on_c, 0, 71, 55
2, 19832, Note_on_c, 0, 83, 42
2, 19910, Note_on_c, 0, 83, 0
2, 19958, Note_on_c, 0, 71, 0
2, 20002, Note_on_c, 0, 72, 54
2, 20004, Note_on_c, 0, 84, 53
2, 20170, Note_on_c, 0, 72, 0
2, 20174, Note_on_c, 0, 84, 0
2, 20202, Note_on_c, 0, 58, 36
2, 20202, Note_on_c, 0, 60, 37
2, 20208, Note_on_c, 0, 52, 0
2, 20238, Note_on_c, 0, 60, 0
2, 20238, Note_on_c, 0, 58, 0
2, 20324, Note_on_c, 0, 72, 38
2, 20336, Note_on_c, 0, 84, 43
2, 20468, Note_on_c, 0, 84, 0
2, 20512, Note_on_c, 0, 72, 0
2, 20530, Note_on_c, 0, 50, 57
2, 20542, Note_on_c, 0, 82, 45
2, 20558, Note_on_c, 0, 70, 35
2, 20620, Note_on_c, 0, 82, 0
2, 20628, Note_on_c, 0, 50, 0
2, 20662, Note_on_c, 0, 70, 0
2, 20724, Note_on_c, 0, 50, 44
2, 20912, Note_on_c, 0, 82, 37
2, 20944, Note_on_c, 0, 70, 25
2, 20964, Note_on_c, 0, 50, 0
2, 21072, Note_on_c, 0, 82, 0
2, 21092, Note_on_c, 0, 70, 0
2, 21102, Note_on_c, 0, 48, 41
2, 21110, Note_on_c, 0, 69, 45
2, 21124, Note_on_c, 0, 81, 44
2, 21674, Note_on_c, 0, 69, 0
2, 21708, Note_on_c, 0, 55, 50
2, 21708, Note_on_c, 0, 60, 34
2, 21710, Note_on_c, 0, 81, 0
2, 21722, Note_on_c, 0, 57, 35
2, 21728, Note_on_c, 0, 77, 64
2, 21730, Note_on_c, 0, 48, 0
2, 21740, Note_on_c, 0, 65, 60
2, 21854, Note_on_c, 0, 57, 0
2, 21876, Note_on_c, 0, 55, 0
2, 21906, Note_on_c, 0, 77, 0
2, 21920, Note_on_c, 0, 60, 0
2, 22064, Note_on_c, 0, 65, 0
2, 22094, Note_on_c, 0, 79, 94
2, 22098, Note_on_c, 0, 50, 64
2, 22098, Note_on_c, 0, 67, 80
2, 22210, Note_on_c, 0, 50, 0
2, 22234, Note_on_c, 0, 79, 0
2, 22278, Note_on_c, 0, 67, 0
2, 22286, Note_on_c, 0, 50, 49
2, 22288, Note_on_c, 0, 69, 74
2, 22292, Note_on_c, 0, 81, 85
2, 22408, Note_on_c, 0, 69, 0
2, 22414, Note_on_c, 0, 81, 0
2, 22474, Note_on_c, 0, 69, 60
2, 22482, Note_on_c, 0, 81, 71
2, 22496, Note_on_c, 0, 50, 0
2, 22598, Note_on_c, 0, 81, 0
2, 22652, Note_on_c, 0, 52, 53
2, 22656, Note_on_c, 0, 82, 65
2, 22662, Note_on_c, 0, 69, 0
2, 22664, Note_on_c, 0, 70, 62
2, 22794, Note_on_c, 0, 82, 0
2, 22820, Note_on_c, 0, 70, 0
2, 22848, Note_on_c, 0, 69, 62
2, 22862, Note_on_c, 0, 81, 58
2, 22944, Note_on_c, 0, 69, 0
2, 22964, Note_on_c, 0, 81, 0
2, 23048, Note_on_c, 0, 72, 76
2, 23056, Note_on_c, 0, 84, 94
2, 23188, Note_on_c, 0, 52, 0
2, 23246, Note_on_c, 0, 58, 40
2, 23264, Note_on_c, 0, 60, 31
2, 23320, Note_on_c, 0, 60, 0
2, 23332, Note_on_c, 0, 58, 0
2, 23382, Note_on_c, 0, 84, 0
2, 23398, Note_on_c, 0, 72, 0
2, 23416, Note_on_c, 0, 67, 32
2, 23428, Note_on_c, 0, 79, 45
2, 23578, Note_on_c, 0, 79, 0
2, 23604, Note_on_c, 0, 67, 0
2, 23606, Note_on_c, 0, 50, 74
2, 23638, Note_on_c, 0, 82, 69
2, 23656, Note_on_c, 0, 70, 56
2, 23706, Note_on_c, 0, 50, 0
2, 23780, Note_on_c, 0, 50, 58
2, 23796, Note_on_c, 0, 82, 0
2, 23910, Note_on_c, 0, 70, 0
2, 23988, Note_on_c, 0, 69, 48
2, 24004, Note_on_c, 0, 81, 53
2, 24072, Note_on_c, 0, 50, 0
2, 24176, Note_on_c, 0, 48, 55
2, 24202, Note_on_c, 0, 81, 0
2, 24202, Note_on_c, 0, 69, 0
2, 24234, Note_on_c, 0, 77, 50
2, 24244, Note_on_c, 0, 65, 34
2, 24794, Note_on_c, 0, 48, 0
2, 24796, Note_on_c, 0, 55, 40
2, 24798, Note_on_c, 0, 60, 38
2, 24882, Note_on_c, 0, 60, 0
2, 24882, Note_on_c, 0, 55, 0
2, 25060, Note_on_c, 0, 65, 0
2, 25166, Note_on_c, 0, 50, 62
2, 25594, Note_on_c, 0, 50, 0
2, 25696, Note_on_c, 0, 52, 64
2, 25774, Note_on_c, 0, 77, 0
2, 26110, Note_on_c, 0, 87, 70
2, 26300, Note_on_c, 0, 87, 0
2, 26308, Note_on_c, 0, 58, 38
2, 26316, Note_on_c, 0, 88, 71
2, 26334, Note_on_c, 0, 52, 0
2, 26334, Note_on_c, 0, 60, 35
2, 26340, Note_on_c, 0, 55, 24
2, 26414, Note_on_c, 0, 88, 0
2, 26442, Note_on_c, 0, 55, 0
2, 26458, Note_on_c, 0, 58, 0
2, 26500, Note_on_c, 0, 88, 57
2, 26578, Note_on_c, 0, 88, 0
2, 26694, Note_on_c, 0, 50, 69
2, 26700, Note_on_c, 0, 88, 63
2, 26790, Note_on_c, 0, 88, 0
2, 26876, Note_on_c, 0, 87, 45
2, 27040, Note_on_c, 0, 87, 0
2, 27054, Note_on_c, 0, 50, 0
2, 27092, Note_on_c, 0, 88, 57
2, 27178, Note_on_c, 0, 88, 0
2, 27190, Note_on_c, 0, 60, 0
2, 27246, Note_on_c, 0, 48, 46
2, 27278, Note_on_c, 0, 88, 41
2, 27356, Note_on_c, 0, 88, 0
2, 27496, Note_on_c, 0, 88, 41
2, 27584, Note_on_c, 0, 88, 0
2, 27666, Note_on_c, 0, 89, 64
2, 27746, Note_on_c, 0, 48, 0
2, 27856, Note_on_c, 0, 55, 51
2, 27878, Note_on_c, 0, 60, 27
2, 27878, Note_on_c, 0, 81, 38
2, 27886, Note_on_c, 0, 89, 0
2, 27886, Note_on_c, 0, 52, 25
2, 27934, Note_on_c, 0, 60, 0
2, 27948, Note_on_c, 0, 81, 0
2, 27958, Note_on_c, 0, 55, 0
2, 27988, Note_on_c, 0, 52, 0
2, 28236, Note_on_c, 0, 50, 71
2, 28274, Note_on_c, 0, 81, 34
2, 28324, Note_on_c, 0, 81, 0
2, 28360, Note_on_c, 0, 50, 0
2, 28432, Note_on_c, 0, 50, 65
2, 28576, Note_on_c, 0, 50, 0
2, 28798, Note_on_c, 0, 52, 57
2, 29368, Note_on_c, 0, 52, 0
2, 29408, Note_on_c, 0, 58, 44
2, 29432, Note_on_c, 0, 60, 29
2, 29466, Note_on_c, 0, 60, 0
2, 29476, Note_on_c, 0, 58, 0
2, 29764, Note_on_c, 0, 50, 54
2, 30192, Note_on_c, 0, 50, 0
2, 30324, Note_on_c, 0, 48, 36
2, 30948, Note_on_c, 0, 48, 0
2, 30952, Note_on_c, 0, 57, 38
2, 30952, Note_on_c, 0, 55, 42
2, 30962, Note_on_c, 0, 60, 33
2, 30990, Note_on_c, 0, 57, 0
2, 30994, Note_on_c, 0, 55, 0
2, 30996, Note_on_c, 0, 60, 0
2, 31094, Note_on_c, 0, 89, 71
2, 31224, Note_on_c, 0, 89, 0
2, 31298, Note_on_c, 0, 50, 70
2, 31320, Note_on_c, 0, 84, 58
2, 31380, Note_on_c, 0, 84, 0
2, 31394, Note_on_c, 0, 50, 0
2, 31490, Note_on_c, 0, 50, 44
2, 31712, Note_on_c, 0, 86, 57
2, 31748, Note_on_c, 0, 50, 0
2, 31756, Note_on_c, 0, 86, 0
2, 31876, Note_on_c, 0, 52, 57
2, 32088, Note_on_c, 0, 88, 51
2, 32100, Note_on_c, 0, 76, 45
2, 32108, Note_on_c, 0, 82, 35
2, 32162, Note_on_c, 0, 76, 0
2, 32164, Note_on_c, 0, 82, 0
2, 32186, Note_on_c, 0, 88, 0
2, 32410, Note_on_c, 0, 52, 0
2, 32444, Note_on_c, 0, 58, 72
2, 32448, Note_on_c, 0, 60, 69
2, 32486, Note_on_c, 0, 88, 58
2, 32502, Note_on_c, 0, 82, 46
2, 32514, Note_on_c, 0, 60, 0
2, 32520, Note_on_c, 0, 76, 33
2, 32554, Note_on_c, 0, 58, 0
2, 32588, Note_on_c, 0, 88, 0
2, 32598, Note_on_c, 0, 76, 0
2, 32600, Note_on_c, 0, 82, 0
2, 32854, Note_on_c, 0, 50, 44
2, 32866, Note_on_c, 0, 86, 61
2, 32872, Note_on_c, 0, 74, 54
2, 32874, Note_on_c, 0, 82, 51
2, 32944, Note_on_c, 0, 50, 0
2, 32974, Note_on_c, 0, 86, 0
2, 32976, Note_on_c, 0, 74, 0
2, 32980, Note_on_c, 0, 82, 0
2, 33030, Note_on_c, 0, 50, 43
2, 33084, Note_on_c, 0, 86, 48
2, 33094, Note_on_c, 0, 82, 47
2, 33096, Note_on_c, 0, 74, 40
2, 33220, Note_on_c, 0, 86, 0
2, 33244, Note_on_c, 0, 50, 0
2, 33290, Note_on_c, 0, 74, 0
2, 33308, Note_on_c, 0, 82, 0
2, 33414, Note_on_c, 0, 48, 39
2, 33452, Note_on_c, 0, 84, 34
2, 33454, Note_on_c, 0, 72, 41
2, 33480, Note_on_c, 0, 81, 37
2, 33570, Note_on_c, 0, 72, 0
2, 33592, Note_on_c, 0, 81, 0
2, 33602, Note_on_c, 0, 84, 0
2, 34014, Note_on_c, 0, 60, 27
2, 34026, Note_on_c, 0, 57, 30
2, 34040, Note_on_c, 0, 55, 19
2, 34050, Note_on_c, 0, 48, 0
2, 34076, Note_on_c, 0, 57, 0
2, 34094, Note_on_c, 0, 60, 0
2, 34096, Note_on_c, 0, 55, 0
2, 34378, Note_on_c, 0, 50, 81
2, 34388, Note_on_c, 0, 89, 52
2, 34396, Note_on_c, 0, 81, 67
2, 34422, Note_on_c, 0, 89, 0
2, 34440, Note_on_c, 0, 81, 0
2, 34574, Note_on_c, 0, 77, 57
2, 34582, Note_on_c, 0, 84, 46
2, 34650, Note_on_c, 0, 77, 0
2, 34656, Note_on_c, 0, 84, 0
2, 34822, Note_on_c, 0, 50, 0
2, 34920, Note_on_c, 0, 52, 74
2, 34922, Note_on_c, 0, 50, 76
2, 34930, Note_on_c, 0, 86, 55
2, 35012, Note_on_c, 0, 86, 0
2, 35070, Note_on_c, 0, 50, 0
2, 35334, Note_on_c, 0, 88, 51
2, 35438, Note_on_c, 0, 88, 0
2, 35552, Note_on_c, 0, 58, 35
2, 35558, Note_on_c, 0, 60, 36
2, 35574, Note_on_c, 0, 52, 0
2, 35596, Note_on_c, 0, 60, 0
2, 35630, Note_on_c, 0, 58, 0
2, 35710, Note_on_c, 0, 88, 37
2, 35722, Note_on_c, 0, 77, 38
2, 35730, Note_on_c, 0, 82, 33
2, 35804, Note_on_c, 0, 88, 0
2, 35826, Note_on_c, 0, 77, 0
2, 35840, Note_on_c, 0, 82, 0
2, 35898, Note_on_c, 0, 50, 62
2, 35930, Note_on_c, 0, 86, 50
2, 35958, Note_on_c, 0, 82, 31
2, 36020, Note_on_c, 0, 50, 0
2, 36030, Note_on_c, 0, 82, 0
2, 36068, Note_on_c, 0, 86, 0
2, 36102, Note_on_c, 0, 50, 39
2, 36306, Note_on_c, 0, 86, 36
2, 36322, Note_on_c, 0, 82, 30
2, 36342, Note_on_c, 0, 50, 0
2, 36348, Note_on_c, 0, 86, 0
2, 36416, Note_on_c, 0, 82, 0
2, 36480, Note_on_c, 0, 48, 42
2, 36504, Note_on_c, 0, 84, 50
2, 36760, Note_on_c, 0, 84, 0
2, 37082, Note_on_c, 0, 55, 71
2, 37088, Note_on_c, 0, 57, 60
2, 37090, Note_on_c, 0, 60, 66
2, 37228, Note_on_c, 0, 48, 0
2, 37432, Note_on_c, 0, 50, 73
2, 37478, Note_on_c, 0, 60, 0
2, 37480, Note_on_c, 0, 55, 0
2, 37496, Note_on_c, 0, 57, 0
2, 37560, Note_on_c, 0, 50, 0
2, 37642, Note_on_c, 0, 84, 78
2, 37644, Note_on_c, 0, 50, 61
2, 37774, Note_on_c, 0, 84, 0
2, 37862, Note_on_c, 0, 86, 69
2, 37938, Note_on_c, 0, 86, 0
2, 37944, Note_on_c, 0, 50, 0
2, 38018, Note_on_c, 0, 52, 66
2, 38028, Note_on_c, 0, 89, 68
2, 38196, Note_on_c, 0, 89, 0
2, 38396, Note_on_c, 0, 91, 81
2, 38402, Note_on_c, 0, 79, 76
2, 38596, Note_on_c, 0, 91, 0
2, 38612, Note_on_c, 0, 58, 37
2, 38620, Note_on_c, 0, 79, 0
2, 38644, Note_on_c, 0, 52, 0
2, 38738, Note_on_c, 0, 91, 64
2, 38740, Note_on_c, 0, 60, 1
2, 38742, Note_on_c, 0, 58, 0
2, 38750, Note_on_c, 0, 79, 57
2, 38822, Note_on_c, 0, 79, 0
2, 38826, Note_on_c, 0, 91, 0
2, 38850, Note_on_c, 0, 90, 27
2, 38882, Note_on_c, 0, 90, 0
2, 38968, Note_on_c, 0, 50, 63
2, 38986, Note_on_c, 0, 94, 83
2, 38988, Note_on_c, 0, 82, 83
2, 39144, Note_on_c, 0, 50, 0
2, 39150, Note_on_c, 0, 94, 0
2, 39164, Note_on_c, 0, 82, 0
2, 39310, Note_on_c, 0, 93, 77
2, 39312, Note_on_c, 0, 60, 0
2, 39324, Note_on_c, 0, 81, 75
2, 39346, Note_on_c, 0, 92, 37
2, 39362, Note_on_c, 0, 50, 54
2, 39376, Note_on_c, 0, 92, 0
2, 39420, Note_on_c, 0, 93, 0
2, 39452, Note_on_c, 0, 50, 0
2, 39466, Note_on_c, 0, 81, 0
2, 39566, Note_on_c, 0, 48, 46
2, 39616, Note_on_c, 0, 89, 68
2, 39624, Note_on_c, 0, 77, 66
2, 39706, Note_on_c, 0, 77, 0
2, 39748, Note_on_c, 0, 89, 0
2, 39790, Note_on_c, 0, 77, 53
2, 39884, Note_on_c, 0, 77, 0
2, 39898, Note_on_c, 0, 89, 42
2, 39996, Note_on_c, 0, 77, 36
2, 40014, Note_on_c, 0, 89, 0
2, 40114, Note_on_c, 0, 77, 0
2, 40174, Note_on_c, 0, 55, 55
2, 40188, Note_on_c, 0, 57, 40
2, 40208, Note_on_c, 0, 48, 0
2, 40224, Note_on_c, 0, 57, 0
2, 40230, Note_on_c, 0, 55, 0
2, 40520, Note_on_c, 0, 50, 75
2, 40562, Note_on_c, 0, 72, 74
2, 40646, Note_on_c, 0, 50, 0
2, 40678, Note_on_c, 0, 72, 0
2, 40724, Note_on_c, 0, 50, 61
2, 40748, Note_on_c, 0, 74, 88
2, 40916, Note_on_c, 0, 74, 0
2, 40978, Note_on_c, 0, 50, 0
2, 40994, Note_on_c, 0, 77, 89
2, 41086, Note_on_c, 0, 52, 61
2, 41162, Note_on_c, 0, 77, 0
2, 41314, Note_on_c, 0, 79, 80
2, 41472, Note_on_c, 0, 79, 0
2, 41664, Note_on_c, 0, 52, 0
2, 41704, Note_on_c, 0, 58, 76
2, 41706, Note_on_c, 0, 60, 74
2, 41714, Note_on_c, 0, 79, 88
2, 41772, Note_on_c, 0, 60, 0
2, 41794, Note_on_c, 0, 58, 0
2, 41928, Note_on_c, 0, 79, 0
2, 42072, Note_on_c, 0, 50, 80
2, 42084, Note_on_c, 0, 82, 88
2, 42112, Note_on_c, 0, 59, 36
2, 42146, Note_on_c, 0, 59, 0
2, 42198, Note_on_c, 0, 50, 0
2, 42216, Note_on_c, 0, 82, 0
2, 42258, Note_on_c, 0, 50, 78
2, 42306, Note_on_c, 0, 82, 77
2, 42472, Note_on_c, 0, 50, 0
2, 42548, Note_on_c, 0, 82, 0
2, 42618, Note_on_c, 0, 48, 43
2, 42652, Note_on_c, 0, 81, 54
2, 42758, Note_on_c, 0, 81, 0
2, 42880, Note_on_c, 0, 84, 82
2, 43202, Note_on_c, 0, 57, 51
2, 43212, Note_on_c, 0, 55, 43
2, 43240, Note_on_c, 0, 57, 0
2, 43246, Note_on_c, 0, 72, 45
2, 43252, Note_on_c, 0, 55, 0
2, 43336, Note_on_c, 0, 72, 0
2, 43410, Note_on_c, 0, 48, 0
2, 43426, Note_on_c, 0, 84, 0
2, 43430, Note_on_c, 0, 55, 57
2, 43438, Note_on_c, 0, 57, 48
2, 43506, Note_on_c, 0, 57, 0
2, 43514, Note_on_c, 0, 55, 0
2, 43616, Note_on_c, 0, 50, 94
2, 43630, Note_on_c, 0, 72, 44
2, 43732, Note_on_c, 0, 72, 0
2, 43822, Note_on_c, 0, 84, 56
2, 43982, Note_on_c, 0, 84, 0
2, 44090, Note_on_c, 0, 50, 0
2, 44176, Note_on_c, 0, 52, 71
2, 44210, Note_on_c, 0, 72, 44
2, 44308, Note_on_c, 0, 72, 0
2, 44710, Note_on_c, 0, 52, 0
2, 44760, Note_on_c, 0, 58, 38
2, 44770, Note_on_c, 0, 60, 34
2, 44816, Note_on_c, 0, 60, 0
2, 44866, Note_on_c, 0, 58, 0
2, 45122, Note_on_c, 0, 50, 68
2, 45238, Note_on_c, 0, 50, 0
2, 45338, Note_on_c, 0, 50, 38
2, 45536, Note_on_c, 0, 50, 0
2, 45694, Note_on_c, 0, 48, 42
2, 45704, Note_on_c, 0, 77, 68
2, 45710, Note_on_c, 0, 65, 48
2, 45810, Note_on_c, 0, 77, 0
2, 45856, Note_on_c, 0, 65, 0
2, 45900, Note_on_c, 0, 62, 42
2, 45912, Note_on_c, 0, 74, 30
2, 45996, Note_on_c, 0, 74, 0
2, 46060, Note_on_c, 0, 62, 0
2, 46076, Note_on_c, 0, 64, 33
2, 46078, Note_on_c, 0, 76, 45
2, 46232, Note_on_c, 0, 76, 0
2, 46250, Note_on_c, 0, 64, 0
2, 46280, Note_on_c, 0, 72, 47
2, 46284, Note_on_c, 0, 60, 35
2, 46296, Note_on_c, 0, 55, 30
2, 46302, Note_on_c, 0, 60, 20
2, 46306, Note_on_c, 0, 57, 30
2, 46352, Note_on_c, 0, 72, 0
2, 46388, Note_on_c, 0, 48, 0
2, 46388, Note_on_c, 0, 60, 0
2, 46474, Note_on_c, 0, 55, 0
2, 46650, Note_on_c, 0, 50, 40
2, 46678, Note_on_c, 0, 72, 48
2, 46690, Note_on_c, 0, 60, 25
2, 46722, Note_on_c, 0, 57, 0
2, 46758, Note_on_c, 0, 50, 0
2, 46806, Note_on_c, 0, 60, 0
2, 46838, Note_on_c, 0, 50, 38
2, 46854, Note_on_c, 0, 72, 0
2, 46994, Note_on_c, 0, 50, 0
2, 47212, Note_on_c, 0, 52, 48
2, 47290, Note_on_c, 0, 60, 0
2, 47836, Note_on_c, 0, 52, 0
2, 47838, Note_on_c, 0, 58, 44
2, 47846, Note_on_c, 0, 60, 38
2, 47894, Note_on_c, 0, 60, 0
2, 47924, Note_on_c, 0, 58, 0
2, 48194, Note_on_c, 0, 60, 30
2, 48194, Note_on_c, 0, 50, 72
2, 48326, Note_on_c, 0, 50, 0
2, 48398, Note_on_c, 0, 50, 64
2, 48610, Note_on_c, 0, 50, 0
2, 48736, Note_on_c, 0, 60, 0
2, 48778, Note_on_c, 0, 48, 38
2, 49374, Note_on_c, 0, 84, 62
2, 49380, Note_on_c, 0, 60, 40
2, 49384, Note_on_c, 0, 55, 36
2, 49386, Note_on_c, 0, 76, 55
2, 49394, Note_on_c, 0, 57, 36
2, 49402, Note_on_c, 0, 48, 0
2, 49428, Note_on_c, 0, 76, 0
2, 49446, Note_on_c, 0, 57, 0
2, 49452, Note_on_c, 0, 84, 0
2, 49502, Note_on_c, 0, 55, 0
2, 49534, Note_on_c, 0, 60, 0
2, 49568, Note_on_c, 0, 86, 48
2, 49570, Note_on_c, 0, 77, 39
2, 49634, Note_on_c, 0, 77, 0
2, 49636, Note_on_c, 0, 86, 0
2, 49702, Note_on_c, 0, 50, 80
2, 49764, Note_on_c, 0, 88, 75
2, 49766, Note_on_c, 0, 79, 76
2, 49836, Note_on_c, 0, 79, 0
2, 49864, Note_on_c, 0, 88, 0
2, 49958, Note_on_c, 0, 89, 89
2, 49964, Note_on_c, 0, 81, 88
2, 49986, Note_on_c, 0, 50, 0
2, 50088, Note_on_c, 0, 50, 56
2, 50092, Note_on_c, 0, 89, 0
2, 50116, Note_on_c, 0, 81, 0
2, 50190, Note_on_c, 0, 50, 0
2, 50312, Note_on_c, 0, 52, 70
2, 50322, Note_on_c, 0, 86, 46
2, 50422, Note_on_c, 0, 86, 0
2, 50554, Note_on_c, 0, 79, 64
2, 50556, Note_on_c, 0, 88, 68
2, 50630, Note_on_c, 0, 79, 0
2, 50644, Note_on_c, 0, 88, 0
2, 50898, Note_on_c, 0, 84, 51
2, 50922, Note_on_c, 0, 76, 44
2, 50936, Note_on_c, 0, 58, 42
2, 50948, Note_on_c, 0, 60, 37
2, 50980, Note_on_c, 0, 60, 0
2, 50988, Note_on_c, 0, 76, 0
2, 51000, Note_on_c, 0, 84, 0
2, 51002, Note_on_c, 0, 52, 0
2, 51010, Note_on_c, 0, 58, 0
2, 51272, Note_on_c, 0, 50, 74
2, 51280, Note_on_c, 0, 86, 65
2, 51290, Note_on_c, 0, 77, 54
2, 51360, Note_on_c, 0, 86, 0
2, 51370, Note_on_c, 0, 77, 0
2, 51400, Note_on_c, 0, 50, 0
2, 51474, Note_on_c, 0, 50, 58
2, 51642, Note_on_c, 0, 82, 51
2, 51678, Note_on_c, 0, 72, 30
2, 51720, Note_on_c, 0, 50, 0
2, 51740, Note_on_c, 0, 72, 0
2, 51782, Note_on_c, 0, 82, 0
2, 51844, Note_on_c, 0, 48, 43
2, 51898, Note_on_c, 0, 84, 46
2, 51908, Note_on_c, 0, 76, 29
2, 52198, Note_on_c, 0, 84, 0
2, 52262, Note_on_c, 0, 76, 0
2, 52420, Note_on_c, 0, 72, 62
2, 52428, Note_on_c, 0, 81, 50
2, 52442, Note_on_c, 0, 55, 42
2, 52450, Note_on_c, 0, 60, 32
2, 52468, Note_on_c, 0, 57, 29
2, 52476, Note_on_c, 0, 48, 0
2, 52500, Note_on_c, 0, 72, 0
2, 52500, Note_on_c, 0, 81, 0
2, 52518, Note_on_c, 0, 57, 0
2, 52592, Note_on_c, 0, 55, 0
2, 52608, Note_on_c, 0, 74, 56
2, 52612, Note_on_c, 0, 82, 55
2, 52658, Note_on_c, 0, 74, 0
2, 52674, Note_on_c, 0, 82, 0
2, 52802, Note_on_c, 0, 50, 74
2, 52802, Note_on_c, 0, 76, 70
2, 52806, Note_on_c, 0, 84, 64
2, 52870, Note_on_c, 0, 76, 0
2, 52878, Note_on_c, 0, 84, 0
2, 52968, Note_on_c, 0, 50, 0
2, 53002, Note_on_c, 0, 86, 90
2, 53006, Note_on_c, 0, 77, 92
2, 53160, Note_on_c, 0, 86, 0
2, 53198, Note_on_c, 0, 50, 77
2, 53224, Note_on_c, 0, 77, 0
2, 53274, Note_on_c, 0, 50, 0
2, 53368, Note_on_c, 0, 82, 53
2, 53372, Note_on_c, 0, 60, 0
2, 53380, Note_on_c, 0, 74, 57
2, 53394, Note_on_c, 0, 52, 83
2, 53480, Note_on_c, 0, 74, 0
2, 53502, Note_on_c, 0, 82, 0
2, 53612, Note_on_c, 0, 84, 89
2, 53614, Note_on_c, 0, 76, 90
2, 53636, Note_on_c, 0, 82, 50
2, 53752, Note_on_c, 0, 82, 0
2, 53758, Note_on_c, 0, 84, 0
2, 53792, Note_on_c, 0, 76, 0
2, 53974, Note_on_c, 0, 81, 57
2, 53976, Note_on_c, 0, 72, 60
2, 53980, Note_on_c, 0, 60, 48
2, 53982, Note_on_c, 0, 58, 42
2, 54022, Note_on_c, 0, 60, 0
2, 54048, Note_on_c, 0, 52, 0
2, 54054, Note_on_c, 0, 58, 0
2, 54080, Note_on_c, 0, 81, 0
2, 54092, Note_on_c, 0, 72, 0
2, 54330, Note_on_c, 0, 50, 71
2, 54346, Note_on_c, 0, 82, 75
2, 54352, Note_on_c, 0, 74, 73
2, 54444, Note_on_c, 0, 50, 0
2, 54448, Note_on_c, 0, 82, 0
2, 54460, Note_on_c, 0, 74, 0
2, 54540, Note_on_c, 0, 50, 44
2, 54714, Note_on_c, 0, 50, 0
2, 54736, Note_on_c, 0, 79, 47
2, 54762, Note_on_c, 0, 70, 21
2, 54808, Note_on_c, 0, 79, 0
2, 54850, Note_on_c, 0, 70, 0
2, 54944, Note_on_c, 0, 48, 52
2, 54950, Note_on_c, 0, 72, 95
2, 54952, Note_on_c, 0, 81, 91
2, 55302, Note_on_c, 0, 81, 0
2, 55386, Note_on_c, 0, 72, 0
2, 55504, Note_on_c, 0, 77, 58
2, 55510, Note_on_c, 0, 69, 60
2, 55520, Note_on_c, 0, 60, 40
2, 55522, Note_on_c, 0, 57, 39
2, 55524, Note_on_c, 0, 55, 39
2, 55542, Note_on_c, 0, 48, 0
2, 55580, Note_on_c, 0, 69, 0
2, 55584, Note_on_c, 0, 77, 0
2, 55724, Note_on_c, 0, 70, 33
2, 55814, Note_on_c, 0, 57, 0
2, 55824, Note_on_c, 0, 70, 0
2, 55874, Note_on_c, 0, 50, 70
2, 55886, Note_on_c, 0, 57, 22
2, 55904, Note_on_c, 0, 72, 71
2, 55984, Note_on_c, 0, 72, 0
2, 56018, Note_on_c, 0, 57, 0
2, 56026, Note_on_c, 0, 50, 0
2, 56074, Note_on_c, 0, 55, 0
2, 56090, Note_on_c, 0, 81, 85
2, 56098, Note_on_c, 0, 72, 78
2, 56188, Note_on_c, 0, 81, 0
2, 56192, Note_on_c, 0, 72, 0
2, 56252, Note_on_c, 0, 50, 67
2, 56260, Note_on_c, 0, 55, 42
2, 56332, Note_on_c, 0, 50, 0
2, 56362, Note_on_c, 0, 55, 0
2, 56430, Note_on_c, 0, 77, 60
2, 56448, Note_on_c, 0, 52, 72
2, 56474, Note_on_c, 0, 67, 32
2, 56490, Note_on_c, 0, 60, 0
2, 56510, Note_on_c, 0, 67, 0
2, 56530, Note_on_c, 0, 77, 0
2, 56660, Note_on_c, 0, 79, 74
2, 56674, Note_on_c, 0, 70, 74
2, 56786, Note_on_c, 0, 79, 0
2, 56820, Note_on_c, 0, 70, 0
2, 57028, Note_on_c, 0, 76, 71
2, 57030, Note_on_c, 0, 67, 53
2, 57032, Note_on_c, 0, 60, 45
2, 57038, Note_on_c, 0, 58, 39
2, 57090, Note_on_c, 0, 52, 0
2, 57096, Note_on_c, 0, 60, 0
2, 57120, Note_on_c, 0, 58, 0
2, 57124, Note_on_c, 0, 67, 0
2, 57138, Note_on_c, 0, 76, 0
2, 57392, Note_on_c, 0, 50, 71
2, 57414, Note_on_c, 0, 74, 71
2, 57424, Note_on_c, 0, 65, 71
2, 57510, Note_on_c, 0, 50, 0
2, 57528, Note_on_c, 0, 74, 0
2, 57558, Note_on_c, 0, 65, 0
2, 57582, Note_on_c, 0, 50, 67
2, 57810, Note_on_c, 0, 64, 58
2, 57816, Note_on_c, 0, 72, 51
2, 57848, Note_on_c, 0, 50, 0
2, 57882, Note_on_c, 0, 64, 0
2, 57884, Note_on_c, 0, 72, 0
2, 57978, Note_on_c, 0, 48, 53
2, 58238, Note_on_c, 0, 72, 64
2, 58242, Note_on_c, 0, 65, 69
2, 58590, Note_on_c, 0, 55, 37
2, 58592, Note_on_c, 0, 60, 38
2, 58594, Note_on_c, 0, 48, 0
2, 58606, Note_on_c, 0, 57, 34
2, 58910, Note_on_c, 0, 55, 0
2, 58932, Note_on_c, 0, 57, 0
2, 58950, Note_on_c, 0, 50, 53
2, 59354, Note_on_c, 0, 55, 36
2, 59360, Note_on_c, 0, 50, 0
2, 59410, Note_on_c, 0, 55, 0
2, 59524, Note_on_c, 0, 52, 68
2, 59594, Note_on_c, 0, 60, 0
2, 60064, Note_on_c, 0, 72, 0
2, 60110, Note_on_c, 0, 58, 42
2, 60120, Note_on_c, 0, 60, 30
2, 60152, Note_on_c, 0, 52, 0
2, 60176, Note_on_c, 0, 65, 0
2, 60272, Note_on_c, 0, 58, 0
2, 60474, Note_on_c, 0, 75, 37
2, 60480, Note_on_c, 0, 64, 49
2, 60482, Note_on_c, 0, 50, 62
2, 60484, Note_on_c, 0, 76, 64
2, 60532, Note_on_c, 0, 75, 0
2, 60586, Note_on_c, 0, 64, 0
2, 60598, Note_on_c, 0, 76, 0
2, 60682, Note_on_c, 0, 62, 52
2, 60700, Note_on_c, 0, 74, 34
2, 60778, Note_on_c, 0, 74, 0
2, 60790, Note_on_c, 0, 62, 0
2, 60898, Note_on_c, 0, 62, 37
2, 60902, Note_on_c, 0, 74, 50
2, 60918, Note_on_c, 0, 50, 0
2, 61002, Note_on_c, 0, 74, 0
2, 61016, Note_on_c, 0, 60, 0
2, 61062, Note_on_c, 0, 48, 45
2, 61084, Note_on_c, 0, 72, 44
2, 61104, Note_on_c, 0, 62, 0
2, 61118, Note_on_c, 0, 60, 29
2, 61644, Note_on_c, 0, 55, 47
2, 61658, Note_on_c, 0, 60, 30
2, 61676, Note_on_c, 0, 48, 0
2, 61686, Note_on_c, 0, 57, 24
2, 61942, Note_on_c, 0, 57, 0
2, 61954, Note_on_c, 0, 55, 0
2, 62012, Note_on_c, 0, 50, 73
2, 62224, Note_on_c, 0, 50, 0
2, 62398, Note_on_c, 0, 50, 67
2, 62494, Note_on_c, 0, 50, 0
2, 62600, Note_on_c, 0, 52, 66
2, 62664, Note_on_c, 0, 60, 0
2, 62678, Note_on_c, 0, 72, 0
2, 62740, Note_on_c, 0, 60, 0
2, 63202, Note_on_c, 0, 60, 45
2, 63210, Note_on_c, 0, 58, 35
2, 63268, Note_on_c, 0, 52, 0
2, 63296, Note_on_c, 0, 58, 0
2, 63558, Note_on_c, 0, 50, 78
2, 63670, Note_on_c, 0, 50, 0
2, 63754, Note_on_c, 0, 50, 46
2, 63958, Note_on_c, 0, 50, 0
2, 64084, Note_on_c, 0, 60, 0
2, 64126, Note_on_c, 0, 48, 45
2, 64756, Note_on_c, 0, 60, 45
2, 64758, Note_on_c, 0, 55, 49
2, 64780, Note_on_c, 0, 57, 32
2, 64788, Note_on_c, 0, 48, 0
2, 64824, Note_on_c, 0, 57, 0
2, 64860, Note_on_c, 0, 55, 0
2, 65120, Note_on_c, 0, 50, 65
2, 65250, Note_on_c, 0, 50, 0
2, 65454, Note_on_c, 0, 50, 44
2, 65498, Note_on_c, 0, 50, 0
2, 65664, Note_on_c, 0, 52, 57
2, 65712, Note_on_c, 0, 60, 0
2, 66252, Note_on_c, 0, 60, 64
2, 66260, Note_on_c, 0, 58, 59
2, 66316, Note_on_c, 0, 60, 0
2, 66340, Note_on_c, 0, 58, 0
2, 66386, Note_on_c, 0, 52, 0
2, 66612, Note_on_c, 0, 50, 75
2, 66716, Note_on_c, 0, 50, 0
2, 66818, Note_on_c, 0, 50, 50
2, 67040, Note_on_c, 0, 50, 0
2, 67182, Note_on_c, 0, 48, 46
2, 67774, Note_on_c, 0, 60, 51
2, 67784, Note_on_c, 0, 69, 45
2, 67794, Note_on_c, 0, 57, 44
2, 67796, Note_on_c, 0, 81, 60
2, 67806, Note_on_c, 0, 55, 38
2, 67868, Note_on_c, 0, 81, 0
2, 67912, Note_on_c, 0, 48, 0
2, 67954, Note_on_c, 0, 69, 0
2, 67972, Note_on_c, 0, 70, 63
2, 67978, Note_on_c, 0, 82, 44
2, 68010, Note_on_c, 0, 82, 0
2, 68080, Note_on_c, 0, 70, 0
2, 68100, Note_on_c, 0, 57, 0
2, 68108, Note_on_c, 0, 55, 0
2, 68172, Note_on_c, 0, 50, 63
2, 68192, Note_on_c, 0, 74, 90
2, 68196, Note_on_c, 0, 86, 103
2, 68292, Note_on_c, 0, 50, 0
2, 68374, Note_on_c, 0, 50, 56
2, 68482, Note_on_c, 0, 50, 0
2, 68500, Note_on_c, 0, 86, 0
2, 68562, Note_on_c, 0, 84, 80
2, 68566, Note_on_c, 0, 72, 68
2, 68578, Note_on_c, 0, 50, 51
2, 68586, Note_on_c, 0, 74, 0
2, 68668, Note_on_c, 0, 50, 0
2, 68706, Note_on_c, 0, 60, 0
2, 68766, Note_on_c, 0, 52, 75
2, 68802, Note_on_c, 0, 84, 0
2, 68842, Note_on_c, 0, 71, 63
2, 68848, Note_on_c, 0, 72, 0
2, 68856, Note_on_c, 0, 83, 53
2, 69058, Note_on_c, 0, 83, 0
2, 69134, Note_on_c, 0, 71, 0
2, 69144, Note_on_c, 0, 72, 64
2, 69158, Note_on_c, 0, 84, 61
2, 69350, Note_on_c, 0, 58, 69
2, 69364, Note_on_c, 0, 60, 60
2, 69388, Note_on_c, 0, 52, 0
2, 69426, Note_on_c, 0, 60, 0
2, 69450, Note_on_c, 0, 58, 0
2, 69706, Note_on_c, 0, 50, 78
2, 69820, Note_on_c, 0, 50, 0
2, 69894, Note_on_c, 0, 50, 67
2, 70126, Note_on_c, 0, 50, 0
2, 70270, Note_on_c, 0, 48, 57
2, 70836, Note_on_c, 0, 55, 68
2, 70840, Note_on_c, 0, 60, 64
2, 70846, Note_on_c, 0, 57, 65
2, 70890, Note_on_c, 0, 84, 0
2, 70926, Note_on_c, 0, 48, 0
2, 71024, Note_on_c, 0, 57, 0
2, 71046, Note_on_c, 0, 60, 0
2, 71054, Note_on_c, 0, 55, 0
2, 71244, Note_on_c, 0, 50, 55
2, 71328, Note_on_c, 0, 50, 0
2, 71418, Note_on_c, 0, 50, 49
2, 71692, Note_on_c, 0, 50, 0
2, 71804, Note_on_c, 0, 52, 55
2, 72222, Note_on_c, 0, 72, 0
2, 72400, Note_on_c, 0, 58, 49
2, 72412, Note_on_c, 0, 52, 0
2, 72418, Note_on_c, 0, 60, 33
2, 72470, Note_on_c, 0, 60, 0
2, 72490, Note_on_c, 0, 58, 0
2, 72746, Note_on_c, 0, 50, 63
2, 72858, Note_on_c, 0, 50, 0
2, 72942, Note_on_c, 0, 50, 52
2, 73204, Note_on_c, 0, 50, 0
2, 73336, Note_on_c, 0, 48, 46
2, 73924, Note_on_c, 0, 68, 60
2, 73926, Note_on_c, 0, 80, 58
2, 73936, Note_on_c, 0, 81, 77
2, 73946, Note_on_c, 0, 55, 52
2, 73950, Note_on_c, 0, 60, 46
2, 73964, Note_on_c, 0, 57, 43
2, 73982, Note_on_c, 0, 69, 82
2, 73990, Note_on_c, 0, 80, 0
2, 73996, Note_on_c, 0, 68, 0
2, 74002, Note_on_c, 0, 48, 0
2, 74074, Note_on_c, 0, 81, 0
2, 74118, Note_on_c, 0, 69, 0
2, 74222, Note_on_c, 0, 70, 77
2, 74224, Note_on_c, 0, 82, 80
2, 74244, Note_on_c, 0, 55, 0
2, 74254, Note_on_c, 0, 57, 0
2, 74300, Note_on_c, 0, 50, 46
2, 74366, Note_on_c, 0, 82, 0
2, 74416, Note_on_c, 0, 50, 0
2, 74496, Note_on_c, 0, 50, 56
2, 74516, Note_on_c, 0, 72, 80
2, 74518, Note_on_c, 0, 70, 0
2, 74526, Note_on_c, 0, 84, 92
2, 74692, Note_on_c, 0, 72, 0
2, 74698, Note_on_c, 0, 84, 0
2, 74742, Note_on_c, 0, 50, 0
2, 74776, Note_on_c, 0, 86, 83
2, 74778, Note_on_c, 0, 74, 81
2, 74878, Note_on_c, 0, 52, 62
2, 74936, Note_on_c, 0, 60, 0
2, 74942, Note_on_c, 0, 86, 0
2, 75018, Note_on_c, 0, 74, 0
2, 75050, Note_on_c, 0, 72, 57
2, 75066, Note_on_c, 0, 84, 68
2, 75162, Note_on_c, 0, 84, 0
2, 75190, Note_on_c, 0, 72, 0
2, 75190, Note_on_c, 0, 70, 53
2, 75210, Note_on_c, 0, 82, 39
2, 75278, Note_on_c, 0, 82, 0
2, 75308, Note_on_c, 0, 70, 0
2, 75344, Note_on_c, 0, 72, 59
2, 75348, Note_on_c, 0, 84, 67
2, 75402, Note_on_c, 0, 52, 0
2, 75458, Note_on_c, 0, 52, 13
2, 75472, Note_on_c, 0, 60, 66
2, 75488, Note_on_c, 0, 58, 51
2, 75718, Note_on_c, 0, 52, 0
2, 75748, Note_on_c, 0, 58, 0
2, 75842, Note_on_c, 0, 50, 73
2, 75930, Note_on_c, 0, 50, 0
2, 76036, Note_on_c, 0, 50, 46
2, 76048, Note_on_c, 0, 60, 0
2, 76312, Note_on_c, 0, 50, 0
2, 76428, Note_on_c, 0, 48, 48
2, 76812, Note_on_c, 0, 72, 0
2, 77006, Note_on_c, 0, 60, 42
2, 77008, Note_on_c, 0, 55, 38
2, 77014, Note_on_c, 0, 57, 39
2, 77034, Note_on_c, 0, 48, 0
2, 77298, Note_on_c, 0, 57, 0
2, 77356, Note_on_c, 0, 50, 64
2, 77482, Note_on_c, 0, 50, 0
2, 77546, Note_on_c, 0, 50, 71
2, 77772, Note_on_c, 0, 50, 0
2, 77886, Note_on_c, 0, 55, 0
2, 77936, Note_on_c, 0, 52, 57
2, 77978, Note_on_c, 0, 60, 0
2, 78496, Note_on_c, 0, 52, 0
2, 78516, Note_on_c, 0, 60, 53
2, 78522, Note_on_c, 0, 53, 60
2, 78528, Note_on_c, 0, 58, 45
2, 78810, Note_on_c, 0, 53, 0
2, 78828, Note_on_c, 0, 58, 0
2, 78982, Note_on_c, 0, 60, 0
2, 79104, Note_on_c, 0, 50, 52
2, 79176, Note_on_c, 0, 50, 0
2, 79456, Note_on_c, 0, 84, 0
2, 79496, Note_on_c, 0, 48, 58
2, 79896, Note_on_c, 0, 86, 80
2, 79996, Note_on_c, 0, 86, 0
2, 80088, Note_on_c, 0, 60, 49
2, 80090, Note_on_c, 0, 55, 44
2, 80090, Note_on_c, 0, 57, 46
2, 80120, Note_on_c, 0, 48, 0
2, 80120, Note_on_c, 0, 74, 37
2, 80170, Note_on_c, 0, 74, 0
2, 80284, Note_on_c, 0, 77, 31
2, 80384, Note_on_c, 0, 55, 0
2, 80396, Note_on_c, 0, 57, 0
2, 80402, Note_on_c, 0, 77, 0
2, 80434, Note_on_c, 0, 55, 48
2, 80438, Note_on_c, 0, 50, 73
2, 80452, Note_on_c, 0, 57, 32
2, 80496, Note_on_c, 0, 86, 75
2, 80502, Note_on_c, 0, 74, 68
2, 80542, Note_on_c, 0, 50, 0
2, 80574, Note_on_c, 0, 86, 0
2, 80578, Note_on_c, 0, 74, 0
2, 80586, Note_on_c, 0, 57, 0
2, 80634, Note_on_c, 0, 50, 57
2, 80660, Note_on_c, 0, 57, 24
2, 80840, Note_on_c, 0, 50, 0
2, 80862, Note_on_c, 0, 87, 69
2, 80864, Note_on_c, 0, 75, 72
2, 80928, Note_on_c, 0, 75, 0
2, 80950, Note_on_c, 0, 87, 0
2, 80966, Note_on_c, 0, 57, 0
2, 80970, Note_on_c, 0, 55, 0
2, 81000, Note_on_c, 0, 52, 70
2, 81018, Note_on_c, 0, 60, 0
2, 81236, Note_on_c, 0, 88, 74
2, 81246, Note_on_c, 0, 76, 70
2, 81596, Note_on_c, 0, 76, 0
2, 81598, Note_on_c, 0, 53, 59
2, 81600, Note_on_c, 0, 60, 65
2, 81600, Note_on_c, 0, 82, 53
2, 81600, Note_on_c, 0, 58, 56
2, 81604, Note_on_c, 0, 88, 0
2, 81650, Note_on_c, 0, 52, 0
2, 81696, Note_on_c, 0, 82, 0
2, 81808, Note_on_c, 0, 84, 34
2, 81848, Note_on_c, 0, 60, 0
2, 81856, Note_on_c, 0, 84, 0
2, 81880, Note_on_c, 0, 58, 0
2, 81880, Note_on_c, 0, 53, 0
2, 81966, Note_on_c, 0, 50, 72
2, 82004, Note_on_c, 0, 88, 74
2, 82012, Note_on_c, 0, 76, 75
2, 82078, Note_on_c, 0, 88, 0
2, 82080, Note_on_c, 0, 50, 0
2, 82084, Note_on_c, 0, 76, 0
2, 82162, Note_on_c, 0, 50, 60
2, 82196, Note_on_c, 0, 88, 71
2, 82212, Note_on_c, 0, 76, 72
2, 82334, Note_on_c, 0, 88, 0
2, 82400, Note_on_c, 0, 76, 0
2, 82462, Note_on_c, 0, 50, 0
2, 82560, Note_on_c, 0, 48, 55
2, 82566, Note_on_c, 0, 87, 67
2, 82576, Note_on_c, 0, 75, 64
2, 82754, Note_on_c, 0, 75, 0
2, 82754, Note_on_c, 0, 87, 0
2, 82950, Note_on_c, 0, 86, 63
2, 82968, Note_on_c, 0, 74, 57
2, 83060, Note_on_c, 0, 86, 0
2, 83116, Note_on_c, 0, 74, 0
2, 83126, Note_on_c, 0, 55, 48
2, 83136, Note_on_c, 0, 48, 0
2, 83146, Note_on_c, 0, 60, 41
2, 83150, Note_on_c, 0, 57, 36
2, 83182, Note_on_c, 0, 77, 39
2, 83302, Note_on_c, 0, 77, 0
2, 83334, Note_on_c, 0, 81, 44
2, 83458, Note_on_c, 0, 57, 0
2, 83462, Note_on_c, 0, 81, 0
2, 83464, Note_on_c, 0, 60, 0
2, 83498, Note_on_c, 0, 50, 68
2, 83514, Note_on_c, 0, 57, 16
2, 83522, Note_on_c, 0, 60, 17
2, 83532, Note_on_c, 0, 86, 74
2, 83538, Note_on_c, 0, 74, 74
2, 83596, Note_on_c, 0, 50, 0
2, 83622, Note_on_c, 0, 86, 0
2, 83644, Note_on_c, 0, 57, 0
2, 83654, Note_on_c, 0, 55, 0
2, 83694, Note_on_c, 0, 55, 37
2, 83700, Note_on_c, 0, 50, 61
2, 83712, Note_on_c, 0, 57, 30
2, 83720, Note_on_c, 0, 74, 0
2, 83888, Note_on_c, 0, 50, 0
2, 83912, Note_on_c, 0, 85, 74
2, 83912, Note_on_c, 0, 73, 60
2, 84016, Note_on_c, 0, 85, 0
2, 84038, Note_on_c, 0, 55, 0
2, 84050, Note_on_c, 0, 60, 0
2, 84058, Note_on_c, 0, 57, 0
2, 84070, Note_on_c, 0, 73, 0
2, 84078, Note_on_c, 0, 52, 68
2, 84290, Note_on_c, 0, 84, 80
2, 84296, Note_on_c, 0, 72, 78
2, 84474, Note_on_c, 0, 84, 0
2, 84666, Note_on_c, 0, 52, 0
2, 84680, Note_on_c, 0, 72, 0
2, 84696, Note_on_c, 0, 76, 44
2, 84700, Note_on_c, 0, 58, 65
2, 84710, Note_on_c, 0, 55, 60
2, 84718, Note_on_c, 0, 60, 64
2, 84800, Note_on_c, 0, 76, 0
2, 84910, Note_on_c, 0, 79, 27
2, 84970, Note_on_c, 0, 79, 0
2, 84996, Note_on_c, 0, 58, 0
2, 85000, Note_on_c, 0, 60, 0
2, 85012, Note_on_c, 0, 55, 0
2, 85090, Note_on_c, 0, 50, 47
2, 85092, Note_on_c, 0, 84, 78
2, 85094, Note_on_c, 0, 72, 77
2, 85158, Note_on_c, 0, 84, 0
2, 85172, Note_on_c, 0, 50, 0
2, 85176, Note_on_c, 0, 72, 0
2, 85278, Note_on_c, 0, 84, 78
2, 85282, Note_on_c, 0, 50, 62
2, 85284, Note_on_c, 0, 72, 74
2, 85372, Note_on_c, 0, 84, 0
2, 85392, Note_on_c, 0, 72, 0
2, 85532, Note_on_c, 0, 50, 0
2, 85660, Note_on_c, 0, 48, 52
2, 85670, Note_on_c, 0, 73, 78
2, 85674, Note_on_c, 0, 85, 85
2, 85930, Note_on_c, 0, 73, 0
2, 85944, Note_on_c, 0, 85, 0
2, 86052, Note_on_c, 0, 86, 68
2, 86060, Note_on_c, 0, 74, 60
2, 86156, Note_on_c, 0, 86, 0
2, 86224, Note_on_c, 0, 74, 0
2, 86224, Note_on_c, 0, 55, 38
2, 86236, Note_on_c, 0, 60, 36
2, 86238, Note_on_c, 0, 57, 36
2, 86258, Note_on_c, 0, 48, 0
2, 86280, Note_on_c, 0, 77, 37
2, 86384, Note_on_c, 0, 77, 0
2, 86428, Note_on_c, 0, 81, 38
2, 86544, Note_on_c, 0, 81, 0
2, 86586, Note_on_c, 0, 50, 42
2, 86620, Note_on_c, 0, 86, 68
2, 86626, Note_on_c, 0, 74, 64
2, 86700, Note_on_c, 0, 86, 0
2, 86700, Note_on_c, 0, 50, 0
2, 86728, Note_on_c, 0, 74, 0
2, 86772, Note_on_c, 0, 50, 58
2, 86962, Note_on_c, 0, 50, 0
2, 86990, Note_on_c, 0, 87, 57
2, 86992, Note_on_c, 0, 75, 64
2, 87156, Note_on_c, 0, 75, 0
2, 87160, Note_on_c, 0, 87, 0
2, 87166, Note_on_c, 0, 55, 0
2, 87170, Note_on_c, 0, 52, 44
2, 87184, Note_on_c, 0, 57, 0
2, 87222, Note_on_c, 0, 60, 0
2, 87370, Note_on_c, 0, 76, 74
2, 87372, Note_on_c, 0, 88, 68
2, 87738, Note_on_c, 0, 76, 0
2, 87758, Note_on_c, 0, 88, 0
2, 87774, Note_on_c, 0, 82, 48
2, 87778, Note_on_c, 0, 60, 39
2, 87780, Note_on_c, 0, 58, 42
2, 87844, Note_on_c, 0, 60, 0
2, 87862, Note_on_c, 0, 58, 0
2, 87882, Note_on_c, 0, 82, 0
2, 87940, Note_on_c, 0, 52, 0
2, 88124, Note_on_c, 0, 50, 71
2, 88166, Note_on_c, 0, 88, 66
2, 88172, Note_on_c, 0, 76, 66
2, 88232, Note_on_c, 0, 50, 0
2, 88254, Note_on_c, 0, 88, 0
2, 88296, Note_on_c, 0, 76, 0
2, 88338, Note_on_c, 0, 50, 42
2, 88576, Note_on_c, 0, 75, 62
2, 88578, Note_on_c, 0, 87, 56
2, 88586, Note_on_c, 0, 50, 0
2, 88684, Note_on_c, 0, 87, 0
2, 88722, Note_on_c, 0, 75, 0
2, 88726, Note_on_c, 0, 48, 41
2, 88936, Note_on_c, 0, 86, 57
2, 88936, Note_on_c, 0, 74, 53
2, 89068, Note_on_c, 0, 86, 0
2, 89240, Note_on_c, 0, 74, 0
2, 89276, Note_on_c, 0, 48, 0
2, 89292, Note_on_c, 0, 77, 45
2, 89294, Note_on_c, 0, 55, 39
2, 89298, Note_on_c, 0, 57, 40
2, 89300, Note_on_c, 0, 60, 38
2, 89340, Note_on_c, 0, 60, 0
2, 89342, Note_on_c, 0, 57, 0
2, 89352, Note_on_c, 0, 77, 0
2, 89354, Note_on_c, 0, 55, 0
2, 89682, Note_on_c, 0, 50, 52
2, 89684, Note_on_c, 0, 48, 39
2, 89688, Note_on_c, 0, 86, 51
2, 89692, Note_on_c, 0, 74, 52
2, 89726, Note_on_c, 0, 48, 0
2, 89752, Note_on_c, 0, 86, 0
2, 89758, Note_on_c, 0, 50, 0
2, 89776, Note_on_c, 0, 74, 0
2, 89860, Note_on_c, 0, 50, 53
2, 90086, Note_on_c, 0, 85, 48
2, 90096, Note_on_c, 0, 73, 30
2, 90124, Note_on_c, 0, 50, 0
2, 90210, Note_on_c, 0, 85, 0
2, 90224, Note_on_c, 0, 73, 0
2, 90238, Note_on_c, 0, 50, 25
2, 90250, Note_on_c, 0, 52, 22
2, 90310, Note_on_c, 0, 50, 0
2, 90460, Note_on_c, 0, 72, 54
2, 90462, Note_on_c, 0, 84, 51
2, 90866, Note_on_c, 0, 58, 32
2, 90902, Note_on_c, 0, 52, 0
2, 90926, Note_on_c, 0, 58, 0
2, 91134, Note_on_c, 0, 84, 0
2, 91206, Note_on_c, 0, 50, 66
2, 91242, Note_on_c, 0, 60, 26
2, 91292, Note_on_c, 0, 60, 0
2, 91374, Note_on_c, 0, 50, 0
2, 91508, Note_on_c, 0, 72, 0
2, 91600, Note_on_c, 0, 50, 32
2, 91672, Note_on_c, 0, 50, 0
2, 91770, Note_on_c, 0, 72, 45
2, 91810, Note_on_c, 0, 48, 33
2, 91812, Note_on_c, 0, 73, 38
2, 91812, Note_on_c, 0, 47, 31
2, 91844, Note_on_c, 0, 47, 0
2, 91844, Note_on_c, 0, 73, 0
2, 91856, Note_on_c, 0, 74, 55
2, 91858, Note_on_c, 0, 72, 0
2, 91962, Note_on_c, 0, 74, 0
2, 92050, Note_on_c, 0, 77, 101
2, 92180, Note_on_c, 0, 77, 0
2, 92194, Note_on_c, 0, 41, 48
2, 92272, Note_on_c, 0, 41, 0
2, 92314, Note_on_c, 0, 77, 115
2, 92386, Note_on_c, 0, 48, 0
2, 92414, Control_c, 0, 64, 127
2, 92506, Control_c, 0, 64, 0
2, 92514, Note_on_c, 0, 77, 0
2, 92622, Note_on_c, 0, 74, 44
2, 92760, Note_on_c, 0, 57, 66
2, 92762, Note_on_c, 0, 60, 68
2, 92764, Note_on_c, 0, 55, 72
2, 92766, Note_on_c, 0, 74, 0
2, 92792, Note_on_c, 0, 57, 0
2, 92794, Note_on_c, 0, 60, 0
2, 92794, Note_on_c, 0, 55, 0
2, 92840, Note_on_c, 0, 77, 53
2, 92944, Note_on_c, 0, 77, 0
2, 93074, Note_on_c, 0, 65, 38
2, 93192, Note_on_c, 0, 65, 0
2, 93308, Note_on_c, 0, 65, 37
2, 93320, Note_on_c, 0, 43, 55
2, 93380, Note_on_c, 0, 65, 0
2, 93662, Control_c, 0, 64, 127
2, 93670, Note_on_c, 0, 43, 0
2, 93886, Control_c, 0, 64, 0
2, 93896, Note_on_c, 0, 62, 74
2, 93902, Note_on_c, 0, 58, 55
2, 93926, Note_on_c, 0, 62, 0
2, 93956, Note_on_c, 0, 58, 0
2, 94256, Note_on_c, 0, 48, 40
2, 94270, Note_on_c, 0, 50, 34
2, 94302, Note_on_c, 0, 50, 0
2, 94812, Note_on_c, 0, 48, 0
2, 94852, Note_on_c, 0, 41, 54
2, 95182, Control_c, 0, 64, 127
2, 95222, Note_on_c, 0, 41, 0
2, 95462, Note_on_c, 0, 60, 58
2, 95468, Control_c, 0, 64, 0
2, 95476, Note_on_c, 0, 57, 53
2, 95480, Note_on_c, 0, 55, 46
2, 95486, Note_on_c, 0, 52, 30
2, 95494, Note_on_c, 0, 60, 0
2, 95508, Note_on_c, 0, 57, 0
2, 95522, Note_on_c, 0, 55, 0
2, 95526, Note_on_c, 0, 52, 0
2, 95838, Note_on_c, 0, 50, 71
2, 96154, Note_on_c, 0, 50, 0
2, 96234, Note_on_c, 0, 77, 26
2, 96270, Note_on_c, 0, 77, 0
2, 96350, Note_on_c, 0, 48, 61
2, 96406, Note_on_c, 0, 80, 87
2, 96588, Note_on_c, 0, 80, 0
2, 96614, Note_on_c, 0, 81, 79
2, 96670, Note_on_c, 0, 48, 0
2, 96680, Control_c, 0, 64, 127
2, 96742, Note_on_c, 0, 81, 0
2, 96800, Note_on_c, 0, 86, 99
2, 96912, Control_c, 0, 64, 0
2, 96958, Note_on_c, 0, 86, 0
2, 96970, Note_on_c, 0, 58, 57
2, 96972, Note_on_c, 0, 62, 58
2, 96984, Note_on_c, 0, 80, 74
2, 96988, Note_on_c, 0, 86, 34
2, 97000, Note_on_c, 0, 58, 0
2, 97004, Note_on_c, 0, 62, 0
2, 97080, Note_on_c, 0, 86, 0
2, 97132, Note_on_c, 0, 80, 0
2, 97182, Note_on_c, 0, 79, 24
2, 97318, Note_on_c, 0, 43, 53
2, 97370, Note_on_c, 0, 79, 0
2, 97514, Control_c, 0, 64, 127
2, 97532, Note_on_c, 0, 43, 0
2, 97542, Control_c, 0, 64, 0
2, 97882, Note_on_c, 0, 41, 58
2, 98274, Note_on_c, 0, 41, 0
2, 98310, Control_c, 0, 64, 127
2, 98350, Note_on_c, 0, 80, 70
2, 98530, Note_on_c, 0, 80, 0
2, 98532, Note_on_c, 0, 60, 60
2, 98534, Control_c, 0, 64, 0
2, 98546, Note_on_c, 0, 81, 69
2, 98548, Note_on_c, 0, 55, 49
2, 98548, Note_on_c, 0, 57, 34
2, 98564, Note_on_c, 0, 60, 0
2, 98582, Note_on_c, 0, 57, 0
2, 98582, Note_on_c, 0, 55, 0
2, 98654, Note_on_c, 0, 81, 0
2, 98716, Note_on_c, 0, 86, 95
2, 98890, Note_on_c, 0, 86, 0
2, 98904, Note_on_c, 0, 48, 58
2, 99072, Note_on_c, 0, 48, 0
2, 99416, Note_on_c, 0, 43, 54
2, 99824, Note_on_c, 0, 43, 0
2, 99850, Control_c, 0, 64, 127
2, 99876, Note_on_c, 0, 80, 63
2, 100044, Note_on_c, 0, 80, 0
2, 100050, Note_on_c, 0, 58, 60
2, 100052, Note_on_c, 0, 62, 68
2, 100056, Note_on_c, 0, 57, 55
2, 100060, Control_c, 0, 64, 0
2, 100080, Note_on_c, 0, 53, 25
2, 100084, Note_on_c, 0, 62, 0
2, 100086, Note_on_c, 0, 81, 33
2, 100110, Note_on_c, 0, 53, 0
2, 100120, Note_on_c, 0, 58, 0
2, 100124, Note_on_c, 0, 57, 0
2, 100166, Note_on_c, 0, 81, 0
2, 100224, Note_on_c, 0, 86, 84
2, 100360, Note_on_c, 0, 86, 0
2, 100426, Note_on_c, 0, 48, 62
2, 100432, Note_on_c, 0, 85, 79
2, 100516, Note_on_c, 0, 48, 0
2, 100556, Note_on_c, 0, 85, 0
2, 100614, Note_on_c, 0, 84, 48
2, 100614, Note_on_c, 0, 48, 32
2, 100784, Note_on_c, 0, 84, 0
2, 100820, Note_on_c, 0, 82, 42
2, 100902, Note_on_c, 0, 48, 0
2, 100914, Note_on_c, 0, 82, 0
2, 100956, Note_on_c, 0, 41, 54
2, 101004, Note_on_c, 0, 84, 77
2, 101178, Note_on_c, 0, 84, 0
2, 101350, Note_on_c, 0, 41, 0
2, 101410, Note_on_c, 0, 83, 89
2, 101576, Note_on_c, 0, 60, 61
2, 101578, Note_on_c, 0, 57, 50
2, 101586, Note_on_c, 0, 83, 0
2, 101606, Note_on_c, 0, 60, 0
2, 101606, Note_on_c, 0, 55, 37
2, 101612, Note_on_c, 0, 82, 59
2, 101620, Note_on_c, 0, 57, 0
2, 101638, Note_on_c, 0, 55, 0
2, 101740, Note_on_c, 0, 82, 0
2, 101826, Note_on_c, 0, 79, 20
2, 101922, Note_on_c, 0, 79, 0
2, 101976, Note_on_c, 0, 80, 74
2, 101998, Note_on_c, 0, 45, 48
2, 102030, Note_on_c, 0, 45, 0
2, 102110, Note_on_c, 0, 80, 0
2, 102166, Note_on_c, 0, 81, 54
2, 102308, Note_on_c, 0, 81, 0
2, 102368, Note_on_c, 0, 72, 48
2, 102476, Note_on_c, 0, 72, 0
2, 102504, Note_on_c, 0, 43, 53
2, 102560, Note_on_c, 0, 72, 51
2, 102744, Note_on_c, 0, 72, 0
2, 102902, Note_on_c, 0, 43, 0
2, 103118, Note_on_c, 0, 58, 57
2, 103124, Note_on_c, 0, 62, 52
2, 103144, Note_on_c, 0, 60, 34
2, 103158, Note_on_c, 0, 62, 0
2, 103176, Note_on_c, 0, 60, 0
2, 103192, Note_on_c, 0, 58, 0
2, 103488, Note_on_c, 0, 48, 55
2, 103554, Note_on_c, 0, 48, 0
2, 103678, Note_on_c, 0, 48, 60
2, 103710, Note_on_c, 0, 80, 44
2, 103750, Note_on_c, 0, 80, 0
2, 103792, Note_on_c, 0, 81, 36
2, 103902, Note_on_c, 0, 81, 0
2, 103980, Note_on_c, 0, 48, 0
2, 104040, Note_on_c, 0, 41, 54
2, 104408, Note_on_c, 0, 41, 0
2, 104638, Note_on_c, 0, 60, 62
2, 104658, Note_on_c, 0, 52, 36
2, 104660, Note_on_c, 0, 57, 49
2, 104672, Note_on_c, 0, 55, 40
2, 104684, Note_on_c, 0, 60, 0
2, 104696, Note_on_c, 0, 57, 0
2, 104700, Note_on_c, 0, 52, 0
2, 104706, Note_on_c, 0, 55, 0
2, 105018, Note_on_c, 0, 48, 69
2, 105274, Note_on_c, 0, 89, 96
2, 105404, Note_on_c, 0, 48, 0
2, 105446, Note_on_c, 0, 89, 0
2, 105496, Note_on_c, 0, 86, 33
2, 105544, Note_on_c, 0, 86, 0
2, 105568, Note_on_c, 0, 43, 63
2, 105638, Note_on_c, 0, 87, 83
2, 105804, Note_on_c, 0, 87, 0
2, 105890, Note_on_c, 0, 43, 0
2, 106006, Note_on_c, 0, 86, 89
2, 106176, Note_on_c, 0, 58, 81
2, 106194, Note_on_c, 0, 85, 71
2, 106200, Note_on_c, 0, 86, 0
2, 106202, Note_on_c, 0, 62, 31
2, 106206, Note_on_c, 0, 60, 40
2, 106230, Note_on_c, 0, 62, 0
2, 106236, Note_on_c, 0, 60, 0
2, 106256, Note_on_c, 0, 58, 0
2, 106288, Note_on_c, 0, 85, 0
2, 106368, Note_on_c, 0, 84, 40
2, 106532, Note_on_c, 0, 84, 0
2, 106548, Note_on_c, 0, 48, 70
2, 106578, Note_on_c, 0, 79, 56
2, 106676, Note_on_c, 0, 48, 0
2, 106700, Note_on_c, 0, 79, 0
2, 106752, Note_on_c, 0, 48, 59
2, 106808, Note_on_c, 0, 77, 51
2, 107000, Note_on_c, 0, 77, 0
2, 107066, Note_on_c, 0, 48, 0
2, 107120, Note_on_c, 0, 76, 58
2, 107120, Note_on_c, 0, 41, 63
2, 107316, Note_on_c, 0, 76, 0
2, 107358, Note_on_c, 0, 79, 65
2, 107464, Note_on_c, 0, 41, 0
2, 107486, Note_on_c, 0, 79, 0
2, 107582, Note_on_c, 0, 72, 44
2, 107730, Note_on_c, 0, 60, 70
2, 107734, Note_on_c, 0, 57, 67
2, 107750, Note_on_c, 0, 55, 59
2, 107758, Note_on_c, 0, 52, 39
2, 107768, Note_on_c, 0, 72, 0
2, 107776, Note_on_c, 0, 60, 0
2, 107782, Note_on_c, 0, 55, 0
2, 107794, Note_on_c, 0, 52, 0
2, 107810, Note_on_c, 0, 57, 0
2, 107846, Note_on_c, 0, 72, 42
2, 107966, Note_on_c, 0, 72, 0
2, 108112, Note_on_c, 0, 48, 70
2, 108596, Note_on_c, 0, 48, 0
2, 108648, Note_on_c, 0, 43, 59
2, 108984, Note_on_c, 0, 43, 0
2, 109224, Note_on_c, 0, 72, 55
2, 109248, Note_on_c, 0, 58, 71
2, 109256, Note_on_c, 0, 62, 60
2, 109284, Note_on_c, 0, 72, 0
2, 109286, Note_on_c, 0, 62, 0
2, 109314, Note_on_c, 0, 58, 0
2, 109332, Note_on_c, 0, 73, 47
2, 109436, Note_on_c, 0, 73, 0
2, 109446, Note_on_c, 0, 75, 57
2, 109518, Note_on_c, 0, 75, 0
2, 109570, Note_on_c, 0, 76, 71
2, 109624, Note_on_c, 0, 48, 75
2, 109628, Note_on_c, 0, 76, 0
2, 109686, Note_on_c, 0, 78, 50
2, 109744, Note_on_c, 0, 78, 0
2, 109822, Note_on_c, 0, 79, 51
2, 109860, Note_on_c, 0, 79, 0
2, 109946, Note_on_c, 0, 81, 53
2, 109994, Note_on_c, 0, 81, 0
2, 110072, Note_on_c, 0, 82, 62
2, 110098, Note_on_c, 0, 48, 0
2, 110134, Note_on_c, 0, 82, 0
2, 110156, Note_on_c, 0, 41, 55
2, 110210, Note_on_c, 0, 84, 60
2, 110244, Note_on_c, 0, 84, 0
2, 110330, Note_on_c, 0, 85, 61
2, 110364, Note_on_c, 0, 85, 0
2, 110468, Note_on_c, 0, 87, 53
2, 110500, Note_on_c, 0, 87, 0
2, 110552, Note_on_c, 0, 41, 0
2, 110612, Note_on_c, 0, 88, 63
2, 110648, Note_on_c, 0, 88, 0
2, 110716, Note_on_c, 0, 91, 82
2, 110790, Note_on_c, 0, 60, 61
2, 110792, Note_on_c, 0, 57, 54
2, 110804, Note_on_c, 0, 55, 62
2, 110804, Note_on_c, 0, 52, 50
2, 110814, Note_on_c, 0, 91, 0
2, 110828, Note_on_c, 0, 60, 0
2, 110838, Note_on_c, 0, 52, 0
2, 110844, Note_on_c, 0, 55, 0
2, 110852, Note_on_c, 0, 88, 51
2, 110858, Note_on_c, 0, 57, 0
2, 110888, Note_on_c, 0, 88, 0
2, 110990, Note_on_c, 0, 89, 64
2, 111060, Note_on_c, 0, 89, 0
2, 111120, Note_on_c, 0, 84, 66
2, 111168, Note_on_c, 0, 48, 63
2, 111170, Note_on_c, 0, 84, 0
2, 111256, Note_on_c, 0, 48, 0
2, 111362, Note_on_c, 0, 48, 46
2, 111660, Note_on_c, 0, 48, 0
2, 111714, Note_on_c, 0, 43, 49
2, 112068, Note_on_c, 0, 43, 0
2, 112318, Note_on_c, 0, 62, 75
2, 112334, Note_on_c, 0, 58, 50
2, 112348, Note_on_c, 0, 62, 0
2, 112364, Note_on_c, 0, 58, 0
2, 112674, Note_on_c, 0, 48, 59
2, 112742, Note_on_c, 0, 48, 0
2, 112858, Note_on_c, 0, 48, 51
2, 113240, Note_on_c, 0, 48, 0
2, 113284, Note_on_c, 0, 41, 51
2, 113308, Note_on_c, 0, 89, 70
2, 113310, Note_on_c, 0, 82, 74
2, 113428, Note_on_c, 0, 89, 0
2, 113540, Note_on_c, 0, 82, 0
2, 113554, Note_on_c, 0, 86, 18
2, 113632, Note_on_c, 0, 86, 0
2, 113656, Note_on_c, 0, 41, 0
2, 113696, Note_on_c, 0, 81, 65
2, 113696, Note_on_c, 0, 89, 69
2, 113908, Note_on_c, 0, 57, 44
2, 113928, Note_on_c, 0, 59, 24
2, 113954, Note_on_c, 0, 57, 0
2, 113960, Note_on_c, 0, 59, 0
2, 113974, Note_on_c, 0, 81, 0
2, 113976, Note_on_c, 0, 89, 0
2, 114080, Note_on_c, 0, 84, 28
2, 114190, Note_on_c, 0, 84, 0
2, 114246, Note_on_c, 0, 48, 57
2, 114278, Note_on_c, 0, 89, 67
2, 114282, Note_on_c, 0, 81, 58
2, 114340, Note_on_c, 0, 81, 0
2, 114358, Note_on_c, 0, 89, 0
2, 114540, Note_on_c, 0, 48, 0
2, 114628, Note_on_c, 0, 43, 46
2, 114678, Note_on_c, 0, 86, 47
2, 114728, Note_on_c, 0, 86, 0
2, 114730, Note_on_c, 0, 43, 0
2, 114840, Note_on_c, 0, 43, 54
2, 114848, Note_on_c, 0, 89, 79
2, 114856, Note_on_c, 0, 77, 73
2, 115194, Note_on_c, 0, 43, 0
2, 115382, Note_on_c, 0, 89, 0
2, 115410, Note_on_c, 0, 58, 62
2, 115412, Note_on_c, 0, 62, 69
2, 115418, Note_on_c, 0, 53, 52
2, 115434, Note_on_c, 0, 86, 46
2, 115442, Note_on_c, 0, 62, 0
2, 115452, Note_on_c, 0, 53, 0
2, 115488, Note_on_c, 0, 77, 0
2, 115498, Note_on_c, 0, 58, 0
2, 115526, Note_on_c, 0, 86, 0
2, 115760, Note_on_c, 0, 48, 65
2, 115788, Note_on_c, 0, 89, 74
2, 115792, Note_on_c, 0, 77, 71
2, 115846, Note_on_c, 0, 48, 0
2, 115872, Note_on_c, 0, 77, 0
2, 115882, Note_on_c, 0, 89, 0
2, 115962, Note_on_c, 0, 48, 54
2, 116004, Note_on_c, 0, 88, 63
2, 116012, Note_on_c, 0, 79, 54
2, 116160, Note_on_c, 0, 88, 0
2, 116184, Note_on_c, 0, 79, 0
2, 116290, Note_on_c, 0, 48, 0
2, 116352, Note_on_c, 0, 41, 49
2, 116360, Note_on_c, 0, 84, 68
2, 116366, Note_on_c, 0, 77, 65
2, 116652, Note_on_c, 0, 41, 0
2, 116942, Note_on_c, 0, 52, 49
2, 116942, Note_on_c, 0, 60, 49
2, 116944, Note_on_c, 0, 57, 54
2, 116952, Note_on_c, 0, 55, 55
2, 116976, Note_on_c, 0, 60, 0
2, 116988, Note_on_c, 0, 55, 0
2, 116992, Note_on_c, 0, 57, 0
2, 117028, Note_on_c, 0, 52, 0
2, 117306, Note_on_c, 0, 48, 61
2, 117402, Note_on_c, 0, 48, 0
2, 117502, Note_on_c, 0, 48, 45
2, 117654, Note_on_c, 0, 77, 0
2, 117656, Note_on_c, 0, 84, 0
2, 117834, Note_on_c, 0, 48, 0
2, 117882, Note_on_c, 0, 43, 53
2, 117884, Note_on_c, 0, 69, 55
2, 117890, Note_on_c, 0, 81, 67
2, 118088, Note_on_c, 0, 81, 0
2, 118094, Note_on_c, 0, 69, 0
2, 118120, Note_on_c, 0, 84, 77
2, 118122, Note_on_c, 0, 72, 70
2, 118184, Note_on_c, 0, 43, 0
2, 118446, Note_on_c, 0, 84, 0
2, 118472, Note_on_c, 0, 62, 66
2, 118474, Note_on_c, 0, 53, 55
2, 118484, Note_on_c, 0, 69, 53
2, 118484, Note_on_c, 0, 58, 53
2, 118492, Note_on_c, 0, 57, 41
2, 118506, Note_on_c, 0, 81, 40
2, 118512, Note_on_c, 0, 72, 0
2, 118540, Note_on_c, 0, 62, 0
2, 118568, Note_on_c, 0, 57, 0
2, 118574, Note_on_c, 0, 58, 0
2, 118590, Note_on_c, 0, 53, 0
2, 118766, Note_on_c, 0, 81, 0
2, 118802, Note_on_c, 0, 69, 0
2, 118842, Note_on_c, 0, 48, 70
2, 118852, Note_on_c, 0, 82, 69
2, 118854, Note_on_c, 0, 70, 68
2, 119042, Note_on_c, 0, 48, 0
2, 119182, Note_on_c, 0, 82, 0
2, 119224, Note_on_c, 0, 48, 52
2, 119240, Note_on_c, 0, 67, 63
2, 119250, Note_on_c, 0, 70, 0
2, 119262, Note_on_c, 0, 79, 57
2, 119302, Note_on_c, 0, 48, 0
2, 119422, Note_on_c, 0, 41, 54
2, 119488, Note_on_c, 0, 79, 0
2, 119532, Note_on_c, 0, 67, 0
2, 119560, Note_on_c, 0, 64, 50
2, 119578, Note_on_c, 0, 76, 54
2, 119780, Note_on_c, 0, 41, 0
2, 119798, Note_on_c, 0, 76, 0
2, 119816, Note_on_c, 0, 64, 0
2, 119848, Note_on_c, 0, 65, 53
2, 119854, Note_on_c, 0, 77, 57
2, 120018, Note_on_c, 0, 62, 64
2, 120028, Note_on_c, 0, 57, 40
2, 120034, Note_on_c, 0, 59, 38
2, 120040, Note_on_c, 0, 60, 33
2, 120054, Note_on_c, 0, 62, 0
2, 120066, Note_on_c, 0, 59, 0
2, 120068, Note_on_c, 0, 57, 0
2, 120072, Note_on_c, 0, 60, 0
2, 120134, Note_on_c, 0, 77, 0
2, 120182, Note_on_c, 0, 72, 41
2, 120244, Note_on_c, 0, 60, 14
2, 120246, Note_on_c, 0, 65, 0
2, 120312, Note_on_c, 0, 60, 0
2, 120358, Note_on_c, 0, 72, 0
2, 120386, Note_on_c, 0, 48, 59
2, 120430, Note_on_c, 0, 72, 54
2, 120468, Note_on_c, 0, 48, 0
2, 120514, Note_on_c, 0, 72, 0
2, 120592, Note_on_c, 0, 48, 43
2, 120894, Note_on_c, 0, 48, 0
2, 120956, Note_on_c, 0, 43, 52
2, 121314, Note_on_c, 0, 43, 0
2, 121538, Note_on_c, 0, 58, 69
2, 121548, Note_on_c, 0, 62, 62
2, 121578, Note_on_c, 0, 62, 0
2, 121630, Note_on_c, 0, 58, 0
2, 121908, Note_on_c, 0, 48, 66
2, 121992, Note_on_c, 0, 48, 0
2, 122124, Note_on_c, 0, 48, 54
2, 122424, Note_on_c, 0, 48, 0
2, 122490, Note_on_c, 0, 41, 53
2, 122814, Note_on_c, 0, 41, 0
2, 122918, Note_on_c, 0, 81, 78
2, 122920, Note_on_c, 0, 84, 73
2, 122982, Note_on_c, 0, 84, 0
2, 122984, Note_on_c, 0, 81, 0
2, 123062, Note_on_c, 0, 52, 55
2, 123068, Note_on_c, 0, 57, 42
2, 123070, Note_on_c, 0, 60, 49
2, 123086, Note_on_c, 0, 55, 53
2, 123104, Note_on_c, 0, 84, 53
2, 123112, Note_on_c, 0, 60, 0
2, 123120, Note_on_c, 0, 55, 0
2, 123120, Note_on_c, 0, 81, 48
2, 123138, Note_on_c, 0, 57, 0
2, 123158, Note_on_c, 0, 52, 0
2, 123206, Note_on_c, 0, 81, 0
2, 123214, Note_on_c, 0, 84, 0
2, 123294, Note_on_c, 0, 81, 32
2, 123298, Note_on_c, 0, 77, 44
2, 123372, Note_on_c, 0, 77, 0
2, 123380, Note_on_c, 0, 81, 0
2, 123440, Note_on_c, 0, 48, 57
2, 123498, Note_on_c, 0, 81, 60
2, 123498, Note_on_c, 0, 84, 64
2, 123512, Note_on_c, 0, 48, 0
2, 123600, Note_on_c, 0, 81, 0
2, 123632, Note_on_c, 0, 48, 48
2, 123638, Note_on_c, 0, 84, 0
2, 123862, Note_on_c, 0, 81, 68
2, 123870, Note_on_c, 0, 77, 58
2, 123970, Note_on_c, 0, 48, 0
2, 123972, Note_on_c, 0, 77, 0
2, 124004, Note_on_c, 0, 81, 0
2, 124014, Note_on_c, 0, 43, 55
2, 124230, Note_on_c, 0, 82, 67
2, 124234, Note_on_c, 0, 79, 66
2, 124340, Note_on_c, 0, 43, 0
2, 124344, Note_on_c, 0, 79, 0
2, 124372, Note_on_c, 0, 82, 0
2, 124596, Note_on_c, 0, 58, 71
2, 124608, Note_on_c, 0, 62, 64
2, 124636, Note_on_c, 0, 79, 63
2, 124638, Note_on_c, 0, 62, 0
2, 124640, Note_on_c, 0, 76, 60
2, 124676, Note_on_c, 0, 58, 0
2, 124750, Note_on_c, 0, 76, 0
2, 124764, Note_on_c, 0, 79, 0
2, 124944, Note_on_c, 0, 48, 55
2, 125016, Note_on_c, 0, 79, 69
2, 125024, Note_on_c, 0, 48, 0
2, 125024, Note_on_c, 0, 76, 65
2, 125106, Note_on_c, 0, 76, 0
2, 125120, Note_on_c, 0, 79, 0
2, 125168, Note_on_c, 0, 48, 52
2, 125234, Note_on_c, 0, 77, 44
2, 125242, Note_on_c, 0, 74, 40
2, 125438, Note_on_c, 0, 77, 0
2, 125446, Note_on_c, 0, 74, 0
2, 125478, Note_on_c, 0, 48, 0
2, 125548, Note_on_c, 0, 41, 50
2, 125574, Note_on_c, 0, 72, 38
2, 125582, Note_on_c, 0, 76, 50
2, 125656, Note_on_c, 0, 72, 0
2, 125688, Note_on_c, 0, 76, 0
2, 125920, Note_on_c, 0, 41, 0
2, 125976, Note_on_c, 0, 81, 89
2, 125982, Note_on_c, 0, 84, 80
2, 126082, Note_on_c, 0, 81, 0
2, 126084, Note_on_c, 0, 84, 0
2, 126184, Note_on_c, 0, 57, 42
2, 126186, Note_on_c, 0, 84, 48
2, 126186, Note_on_c, 0, 60, 45
2, 126192, Note_on_c, 0, 55, 54
2, 126198, Note_on_c, 0, 81, 55
2, 126224, Note_on_c, 0, 60, 0
2, 126238, Note_on_c, 0, 57, 0
2, 126246, Note_on_c, 0, 55, 0
2, 126284, Note_on_c, 0, 84, 0
2, 126286, Note_on_c, 0, 81, 0
2, 126380, Note_on_c, 0, 81, 30
2, 126388, Note_on_c, 0, 77, 17
2, 126470, Note_on_c, 0, 77, 0
2, 126490, Note_on_c, 0, 81, 0
2, 126550, Note_on_c, 0, 48, 60
2, 126638, Note_on_c, 0, 48, 0
2, 126736, Note_on_c, 0, 48, 45
2, 127036, Note_on_c, 0, 48, 0
2, 127084, Note_on_c, 0, 43, 49
2, 127408, Note_on_c, 0, 43, 0
2, 127680, Note_on_c, 0, 58, 65
2, 127690, Note_on_c, 0, 62, 60
2, 127722, Note_on_c, 0, 62, 0
2, 127770, Note_on_c, 0, 58, 0
2, 128022, Note_on_c, 0, 48, 56
2, 128182, Note_on_c, 0, 48, 0
2, 128284, Note_on_c, 0, 84, 94
2, 128392, Note_on_c, 0, 84, 0
2, 128436, Note_on_c, 0, 48, 49
2, 128482, Note_on_c, 0, 82, 63
2, 128514, Note_on_c, 0, 48, 0
2, 128600, Note_on_c, 0, 82, 0
2, 128636, Note_on_c, 0, 41, 53
2, 128664, Note_on_c, 0, 76, 36
2, 128780, Note_on_c, 0, 76, 0
2, 128888, Note_on_c, 0, 72, 25
2, 128920, Note_on_c, 0, 41, 0
2, 129070, Note_on_c, 0, 72, 0
2, 129246, Note_on_c, 0, 52, 41
2, 129248, Note_on_c, 0, 60, 47
2, 129248, Note_on_c, 0, 57, 50
2, 129266, Note_on_c, 0, 55, 44
2, 129278, Note_on_c, 0, 60, 0
2, 129288, Note_on_c, 0, 52, 0
2, 129300, Note_on_c, 0, 57, 0
2, 129302, Note_on_c, 0, 55, 0
2, 129610, Note_on_c, 0, 48, 58
2, 130102, Note_on_c, 0, 48, 0
2, 130134, Note_on_c, 0, 43, 45
2, 130542, Note_on_c, 0, 43, 0
2, 130790, Note_on_c, 0, 58, 49
2, 130792, Note_on_c, 0, 62, 57
2, 130838, Note_on_c, 0, 62, 0
2, 130878, Note_on_c, 0, 58, 0
2, 131138, Note_on_c, 0, 48, 54
2, 131206, Note_on_c, 0, 48, 0
2, 131332, Note_on_c, 0, 48, 41
2, 131660, Note_on_c, 0, 48, 0
2, 131694, Note_on_c, 0, 41, 48
2, 131956, Note_on_c, 0, 86, 92
2, 132024, Note_on_c, 0, 41, 0
2, 132064, Note_on_c, 0, 86, 0
2, 132146, Note_on_c, 0, 84, 76
2, 132296, Note_on_c, 0, 84, 0
2, 132308, Note_on_c, 0, 57, 36
2, 132318, Note_on_c, 0, 55, 44
2, 132320, Note_on_c, 0, 60, 32
2, 132344, Note_on_c, 0, 81, 59
2, 132350, Note_on_c, 0, 52, 17
2, 132358, Note_on_c, 0, 60, 0
2, 132364, Note_on_c, 0, 57, 0
2, 132364, Note_on_c, 0, 55, 0
2, 132412, Note_on_c, 0, 52, 0
2, 132426, Note_on_c, 0, 81, 0
2, 132518, Note_on_c, 0, 77, 33
2, 132652, Note_on_c, 0, 77, 0
2, 132674, Note_on_c, 0, 48, 53
2, 133232, Note_on_c, 0, 43, 51
2, 133234, Note_on_c, 0, 48, 0
2, 133262, Note_on_c, 0, 82, 85
2, 133400, Note_on_c, 0, 82, 0
2, 133474, Note_on_c, 0, 86, 87
2, 133612, Note_on_c, 0, 86, 0
2, 133626, Note_on_c, 0, 43, 0
2, 133626, Note_on_c, 0, 82, 55
2, 133732, Note_on_c, 0, 79, 62
2, 133768, Note_on_c, 0, 82, 0
2, 133808, Note_on_c, 0, 79, 0
2, 133838, Note_on_c, 0, 76, 55
2, 133870, Note_on_c, 0, 58, 71
2, 133878, Note_on_c, 0, 62, 69
2, 133908, Note_on_c, 0, 62, 0
2, 133926, Note_on_c, 0, 76, 0
2, 133936, Note_on_c, 0, 58, 0
2, 133950, Note_on_c, 0, 75, 56
2, 133982, Note_on_c, 0, 75, 0
2, 134020, Note_on_c, 0, 74, 48
2, 134106, Note_on_c, 0, 74, 0
2, 134132, Note_on_c, 0, 73, 44
2, 134192, Note_on_c, 0, 73, 0
2, 134206, Note_on_c, 0, 72, 54
2, 134218, Note_on_c, 0, 48, 57
2, 134278, Note_on_c, 0, 72, 0
2, 134286, Note_on_c, 0, 48, 0
2, 134288, Note_on_c, 0, 71, 63
2, 134370, Note_on_c, 0, 71, 0
2, 134390, Note_on_c, 0, 48, 42
2, 134406, Note_on_c, 0, 70, 59
2, 134510, Note_on_c, 0, 74, 74
2, 134514, Note_on_c, 0, 70, 0
2, 134584, Note_on_c, 0, 70, 35
2, 134616, Note_on_c, 0, 74, 0
2, 134666, Note_on_c, 0, 70, 0
2, 134712, Note_on_c, 0, 64, 54
2, 134730, Note_on_c, 0, 48, 0
2, 134768, Note_on_c, 0, 41, 54
2, 134788, Note_on_c, 0, 64, 0
2, 134816, Note_on_c, 0, 63, 49
2, 134846, Note_on_c, 0, 63, 0
2, 134856, Note_on_c, 0, 62, 61
2, 134936, Note_on_c, 0, 62, 0
2, 134946, Note_on_c, 0, 61, 59
2, 134994, Note_on_c, 0, 61, 0
2, 135024, Note_on_c, 0, 60, 46
2, 135084, Note_on_c, 0, 60, 0
2, 135106, Note_on_c, 0, 59, 42
2, 135120, Note_on_c, 0, 41, 0
2, 135192, Note_on_c, 0, 59, 0
2, 135196, Note_on_c, 0, 58, 69
2, 135244, Note_on_c, 0, 57, 63
2, 135248, Note_on_c, 0, 58, 0
2, 135394, Note_on_c, 0, 57, 49
2, 135404, Note_on_c, 0, 55, 64
2, 135404, Note_on_c, 0, 60, 36
2, 135416, Note_on_c, 0, 52, 31
2, 135434, Note_on_c, 0, 60, 0
2, 135450, Note_on_c, 0, 57, 0
2, 135454, Note_on_c, 0, 52, 0
2, 135462, Note_on_c, 0, 55, 0
2, 135764, Note_on_c, 0, 48, 54
2, 135860, Note_on_c, 0, 48, 0
2, 135940, Note_on_c, 0, 48, 45
2, 136114, Note_on_c, 0, 57, 0
2, 136150, Note_on_c, 0, 60, 32
2, 136254, Note_on_c, 0, 60, 0
2, 136304, Note_on_c, 0, 48, 0
2, 136314, Note_on_c, 0, 43, 45
2, 136328, Note_on_c, 0, 62, 68
2, 136564, Note_on_c, 0, 62, 0
2, 136636, Note_on_c, 0, 43, 0
2, 136900, Note_on_c, 0, 58, 57
2, 136908, Note_on_c, 0, 62, 57
2, 136940, Note_on_c, 0, 62, 0
2, 136988, Note_on_c, 0, 58, 0
2, 137250, Note_on_c, 0, 48, 54
2, 137458, Note_on_c, 0, 48, 0
2, 137656, Note_on_c, 0, 48, 39
2, 137672, Note_on_c, 0, 72, 66
2, 137752, Note_on_c, 0, 72, 0
2, 137762, Note_on_c, 0, 48, 0
2, 137846, Note_on_c, 0, 41, 51
2, 137870, Note_on_c, 0, 74, 44
2, 137978, Note_on_c, 0, 74, 0
2, 138082, Note_on_c, 0, 77, 60
2, 138132, Note_on_c, 0, 41, 0
2, 138152, Note_on_c, 0, 77, 0
2, 138286, Note_on_c, 0, 79, 74
2, 138350, Note_on_c, 0, 80, 32
2, 138438, Note_on_c, 0, 57, 42
2, 138448, Note_on_c, 0, 60, 34
2, 138452, Note_on_c, 0, 55, 44
2, 138458, Note_on_c, 0, 79, 0
2, 138478, Note_on_c, 0, 80, 0
2, 138478, Note_on_c, 0, 81, 40
2, 138492, Note_on_c, 0, 60, 0
2, 138492, Note_on_c, 0, 57, 0
2, 138502, Note_on_c, 0, 55, 0
2, 138530, Note_on_c, 0, 81, 0
2, 138644, Note_on_c, 0, 79, 64
2, 138684, Note_on_c, 0, 80, 44
2, 138814, Note_on_c, 0, 79, 0
2, 138822, Note_on_c, 0, 80, 0
2, 138822, Note_on_c, 0, 50, 65
2, 138844, Note_on_c, 0, 81, 34
2, 138890, Note_on_c, 0, 81, 0
2, 138890, Note_on_c, 0, 50, 0
2, 139010, Note_on_c, 0, 50, 67
2, 139032, Note_on_c, 0, 72, 63
2, 139144, Note_on_c, 0, 72, 0
2, 139208, Note_on_c, 0, 74, 61
2, 139298, Note_on_c, 0, 74, 0
2, 139308, Note_on_c, 0, 50, 0
2, 139390, Note_on_c, 0, 77, 58
2, 139398, Note_on_c, 0, 48, 53
2, 139512, Note_on_c, 0, 77, 0
2, 139528, Note_on_c, 0, 48, 0
2, 139620, Note_on_c, 0, 80, 81
2, 139630, Note_on_c, 0, 86, 76
2, 139806, Note_on_c, 0, 80, 0
2, 139820, Note_on_c, 0, 81, 25
2, 139852, Note_on_c, 0, 86, 0
2, 139878, Note_on_c, 0, 81, 0
2, 139992, Note_on_c, 0, 62, 77
2, 139992, Note_on_c, 0, 58, 74
2, 139998, Note_on_c, 0, 80, 76
2, 140002, Note_on_c, 0, 86, 71
2, 140044, Note_on_c, 0, 62, 0
2, 140076, Note_on_c, 0, 58, 0
2, 140184, Note_on_c, 0, 80, 0
2, 140194, Note_on_c, 0, 86, 0
2, 140370, Note_on_c, 0, 52, 80
2, 140384, Note_on_c, 0, 72, 68
2, 140462, Note_on_c, 0, 72, 0
2, 140552, Note_on_c, 0, 74, 60
2, 140700, Note_on_c, 0, 74, 0
2, 140772, Note_on_c, 0, 77, 66
2, 140820, Note_on_c, 0, 77, 0
2, 140846, Note_on_c, 0, 52, 0
2, 140932, Note_on_c, 0, 50, 52
2, 140958, Note_on_c, 0, 86, 78
2, 140958, Note_on_c, 0, 80, 77
2, 140968, Note_on_c, 0, 77, 65
2, 140974, Note_on_c, 0, 79, 66
2, 141044, Note_on_c, 0, 77, 0
2, 141070, Note_on_c, 0, 79, 0
2, 141172, Note_on_c, 0, 80, 0
2, 141182, Note_on_c, 0, 81, 39
2, 141202, Note_on_c, 0, 86, 0
2, 141234, Note_on_c, 0, 81, 0
2, 141242, Note_on_c, 0, 50, 0
2, 141334, Note_on_c, 0, 86, 74
2, 141336, Note_on_c, 0, 79, 67
2, 141346, Note_on_c, 0, 80, 76
2, 141510, Note_on_c, 0, 80, 0
2, 141514, Note_on_c, 0, 79, 0
2, 141528, Note_on_c, 0, 81, 36
2, 141542, Note_on_c, 0, 55, 74
2, 141558, Note_on_c, 0, 60, 36
2, 141564, Note_on_c, 0, 86, 0
2, 141570, Note_on_c, 0, 81, 0
2, 141572, Note_on_c, 0, 57, 33
2, 141574, Note_on_c, 0, 55, 0
2, 141588, Note_on_c, 0, 60, 0
2, 141606, Note_on_c, 0, 57, 0
2, 141686, Note_on_c, 0, 74, 32
2, 141728, Note_on_c, 0, 74, 0
2, 141916, Note_on_c, 0, 50, 68
2, 141942, Note_on_c, 0, 52, 24
2, 141954, Note_on_c, 0, 74, 75
2, 141974, Note_on_c, 0, 52, 0
2, 142130, Note_on_c, 0, 74, 0
2, 142304, Note_on_c, 0, 77, 77
2, 142368, Note_on_c, 0, 50, 0
2, 142444, Note_on_c, 0, 77, 0
2, 142446, Note_on_c, 0, 52, 66
2, 142654, Note_on_c, 0, 79, 78
2, 142664, Note_on_c, 0, 80, 75
2, 142666, Note_on_c, 0, 86, 68
2, 142686, Note_on_c, 0, 79, 0
2, 142756, Note_on_c, 0, 80, 0
2, 142756, Note_on_c, 0, 81, 56
2, 142798, Note_on_c, 0, 86, 0
2, 142842, Note_on_c, 0, 81, 0
2, 142940, Note_on_c, 0, 79, 58
2, 142954, Note_on_c, 0, 80, 74
2, 142960, Note_on_c, 0, 86, 64
2, 143028, Note_on_c, 0, 52, 0
2, 143042, Note_on_c, 0, 58, 49
2, 143058, Note_on_c, 0, 80, 0
2, 143062, Note_on_c, 0, 81, 45
2, 143082, Note_on_c, 0, 79, 0
2, 143120, Note_on_c, 0, 86, 0
2, 143122, Note_on_c, 0, 81, 0
2, 143180, Note_on_c, 0, 60, 1
2, 143186, Note_on_c, 0, 58, 0
2, 143242, Note_on_c, 0, 79, 66
2, 143244, Note_on_c, 0, 86, 66
2, 143376, Note_on_c, 0, 86, 0
2, 143390, Note_on_c, 0, 50, 35
2, 143428, Note_on_c, 0, 79, 0
2, 143482, Note_on_c, 0, 77, 53
2, 143490, Note_on_c, 0, 50, 0
2, 143560, Note_on_c, 0, 50, 60
2, 143740, Note_on_c, 0, 77, 0
2, 143818, Note_on_c, 0, 76, 36
2, 143886, Note_on_c, 0, 50, 0
2, 143908, Note_on_c, 0, 76, 0
2, 143966, Note_on_c, 0, 60, 0
2, 143980, Note_on_c, 0, 79, 54
2, 144014, Note_on_c, 0, 48, 43
2, 144190, Note_on_c, 0, 79, 0
2, 144216, Note_on_c, 0, 76, 35
2, 144290, Note_on_c, 0, 48, 0
2, 144338, Note_on_c, 0, 76, 0
2, 144376, Note_on_c, 0, 77, 56
2, 144392, Note_on_c, 0, 48, 12
2, 144444, Note_on_c, 0, 48, 0
2, 144572, Note_on_c, 0, 77, 0
2, 144594, Note_on_c, 0, 60, 44
2, 144606, Note_on_c, 0, 72, 45
2, 144652, Note_on_c, 0, 60, 0
2, 144794, Note_on_c, 0, 55, 41
2, 144804, Note_on_c, 0, 72, 0
2, 144806, Note_on_c, 0, 60, 31
2, 144826, Note_on_c, 0, 57, 25
2, 144976, Note_on_c, 0, 72, 53
2, 145042, Note_on_c, 0, 57, 0
2, 145070, Note_on_c, 0, 55, 0
2, 145102, Note_on_c, 0, 60, 0
2, 145162, Note_on_c, 0, 50, 41
2, 145186, Note_on_c, 0, 72, 0
2, 145346, Note_on_c, 0, 50, 0
2, 145548, Note_on_c, 0, 52, 49
2, 146148, Note_on_c, 0, 60, 34
2, 146154, Note_on_c, 0, 58, 46
2, 146218, Note_on_c, 0, 60, 0
2, 146232, Note_on_c, 0, 52, 0
2, 146248, Note_on_c, 0, 58, 0
2, 146492, Note_on_c, 0, 50, 62
2, 146510, Note_on_c, 0, 89, 69
2, 146520, Note_on_c, 0, 82, 68
2, 146644, Note_on_c, 0, 89, 0
2, 146674, Note_on_c, 0, 82, 0
2, 146694, Note_on_c, 0, 50, 0
2, 146740, Note_on_c, 0, 86, 52
2, 146748, Note_on_c, 0, 77, 37
2, 146884, Note_on_c, 0, 77, 0
2, 146904, Note_on_c, 0, 50, 40
2, 146920, Note_on_c, 0, 86, 0
2, 146988, Note_on_c, 0, 50, 0
2, 147078, Note_on_c, 0, 82, 57
2, 147080, Note_on_c, 0, 89, 50
2, 147110, Note_on_c, 0, 48, 21
2, 147196, Note_on_c, 0, 89, 0
2, 147268, Note_on_c, 0, 82, 0
2, 147320, Note_on_c, 0, 79, 51
2, 147322, Note_on_c, 0, 88, 42
2, 147398, Note_on_c, 0, 88, 0
2, 147434, Note_on_c, 0, 79, 0
2, 147678, Note_on_c, 0, 84, 50
2, 147682, Note_on_c, 0, 48, 0
2, 147692, Note_on_c, 0, 76, 46
2, 147706, Note_on_c, 0, 60, 40
2, 147716, Note_on_c, 0, 55, 31
2, 147758, Note_on_c, 0, 84, 0
2, 147774, Note_on_c, 0, 60, 0
2, 147780, Note_on_c, 0, 76, 0
2, 147848, Note_on_c, 0, 55, 0
2, 148042, Note_on_c, 0, 72, 37
2, 148070, Note_on_c, 0, 79, 30
2, 148130, Note_on_c, 0, 72, 0
2, 148162, Note_on_c, 0, 79, 0
2, 148270, Note_on_c, 0, 79, 42
2, 148276, Note_on_c, 0, 72, 42
2, 148416, Note_on_c, 0, 79, 0
2, 148420, Note_on_c, 0, 50, 57
2, 148452, Note_on_c, 0, 72, 0
2, 148856, Note_on_c, 0, 50, 0
2, 148984, Note_on_c, 0, 52, 57
2, 149588, Note_on_c, 0, 58, 52
2, 149600, Note_on_c, 0, 60, 44
2, 149610, Note_on_c, 0, 52, 0
2, 149646, Note_on_c, 0, 60, 0
2, 149682, Note_on_c, 0, 58, 0
2, 149768, Note_on_c, 0, 50, 57
2, 149998, Note_on_c, 0, 50, 0
2, 150156, Note_on_c, 0, 48, 48
2, 150764, Note_on_c, 0, 55, 37
2, 150768, Note_on_c, 0, 60, 30
2, 150776, Note_on_c, 0, 57, 34
2, 150780, Note_on_c, 0, 48, 0
2, 150960, Note_on_c, 0, 72, 66
2, 151010, Note_on_c, 0, 57, 0
2, 151036, Note_on_c, 0, 72, 0
2, 151050, Note_on_c, 0, 55, 0
2, 151070, Note_on_c, 0, 74, 57
2, 151124, Note_on_c, 0, 50, 45
2, 151158, Note_on_c, 0, 74, 0
2, 151274, Note_on_c, 0, 74, 78
2, 151358, Note_on_c, 0, 74, 0
2, 151388, Note_on_c, 0, 76, 70
2, 151466, Note_on_c, 0, 76, 0
2, 151506, Note_on_c, 0, 50, 0
2, 151534, Note_on_c, 0, 76, 83
2, 151620, Note_on_c, 0, 76, 0
2, 151640, Note_on_c, 0, 77, 60
2, 151678, Note_on_c, 0, 52, 48
2, 151720, Note_on_c, 0, 77, 0
2, 151738, Note_on_c, 0, 60, 0
2, 151780, Note_on_c, 0, 77, 71
2, 151850, Note_on_c, 0, 77, 0
2, 151892, Note_on_c, 0, 79, 75
2, 151958, Note_on_c, 0, 79, 0
2, 152018, Note_on_c, 0, 79, 64
2, 152090, Note_on_c, 0, 79, 0
2, 152174, Note_on_c, 0, 81, 68
2, 152272, Note_on_c, 0, 81, 0
2, 152304, Note_on_c, 0, 58, 32
2, 152304, Note_on_c, 0, 60, 40
2, 152364, Note_on_c, 0, 82, 71
2, 152370, Note_on_c, 0, 58, 0
2, 152370, Note_on_c, 0, 52, 0
2, 152398, Note_on_c, 0, 60, 0
2, 152440, Note_on_c, 0, 82, 0
2, 152548, Note_on_c, 0, 82, 69
2, 152650, Note_on_c, 0, 50, 59
2, 152666, Note_on_c, 0, 82, 0
2, 152688, Note_on_c, 0, 60, 18
2, 152710, Note_on_c, 0, 84, 66
2, 152804, Note_on_c, 0, 84, 0
2, 152894, Note_on_c, 0, 79, 49
2, 152990, Note_on_c, 0, 79, 0
2, 153068, Note_on_c, 0, 50, 0
2, 153078, Note_on_c, 0, 79, 49
2, 153132, Note_on_c, 0, 60, 0
2, 153190, Note_on_c, 0, 79, 0
2, 153196, Note_on_c, 0, 48, 48
2, 153254, Note_on_c, 0, 81, 64
2, 153552, Note_on_c, 0, 81, 0
2, 153580, Note_on_c, 0, 77, 40
2, 153804, Note_on_c, 0, 60, 32
2, 153816, Note_on_c, 0, 48, 0
2, 153818, Note_on_c, 0, 57, 36
2, 153828, Note_on_c, 0, 55, 34
2, 153866, Note_on_c, 0, 77, 0
2, 153940, Note_on_c, 0, 57, 0
2, 153988, Note_on_c, 0, 55, 0
2, 153990, Note_on_c, 0, 74, 36
2, 154032, Note_on_c, 0, 60, 0
2, 154046, Note_on_c, 0, 74, 0
2, 154164, Note_on_c, 0, 50, 60
2, 154190, Note_on_c, 0, 60, 22
2, 154194, Note_on_c, 0, 72, 52
2, 154608, Note_on_c, 0, 50, 0
2, 154736, Note_on_c, 0, 52, 56
2, 154818, Note_on_c, 0, 60, 0
2, 155336, Note_on_c, 0, 58, 37
2, 155340, Note_on_c, 0, 60, 44
2, 155344, Note_on_c, 0, 52, 0
2, 155402, Note_on_c, 0, 60, 0
2, 155406, Note_on_c, 0, 58, 0
2, 155624, Note_on_c, 0, 72, 0
2, 155708, Note_on_c, 0, 50, 61
2, 155822, Note_on_c, 0, 50, 0
2, 155914, Note_on_c, 0, 50, 45
2, 156160, Note_on_c, 0, 50, 0
2, 156298, Note_on_c, 0, 48, 45
2, 156874, Note_on_c, 0, 48, 0
2, 156878, Note_on_c, 0, 60, 36
2, 156888, Note_on_c, 0, 57, 36
2, 156896, Note_on_c, 0, 81, 65
2, 156898, Note_on_c, 0, 72, 69
2, 156902, Note_on_c, 0, 55, 30
2, 156966, Note_on_c, 0, 60, 0
2, 156970, Note_on_c, 0, 55, 0
2, 156974, Note_on_c, 0, 72, 0
2, 156978, Note_on_c, 0, 81, 0
2, 156992, Note_on_c, 0, 57, 0
2, 157162, Note_on_c, 0, 82, 74
2, 157164, Note_on_c, 0, 74, 73
2, 157252, Note_on_c, 0, 50, 68
2, 157264, Note_on_c, 0, 74, 0
2, 157298, Note_on_c, 0, 82, 0
2, 157448, Note_on_c, 0, 84, 76
2, 157456, Note_on_c, 0, 76, 70
2, 157560, Note_on_c, 0, 84, 0
2, 157570, Note_on_c, 0, 76, 0
2, 157714, Note_on_c, 0, 86, 66
2, 157716, Note_on_c, 0, 50, 0
2, 157716, Note_on_c, 0, 77, 58
2, 157802, Note_on_c, 0, 86, 0
2, 157816, Note_on_c, 0, 52, 62
2, 157828, Note_on_c, 0, 77, 0
2, 157976, Note_on_c, 0, 84, 53
2, 158006, Note_on_c, 0, 76, 38
2, 158036, Note_on_c, 0, 84, 0
2, 158048, Note_on_c, 0, 76, 0
2, 158162, Note_on_c, 0, 74, 35
2, 158200, Note_on_c, 0, 74, 0
2, 158306, Note_on_c, 0, 84, 53
2, 158320, Note_on_c, 0, 76, 35
2, 158412, Note_on_c, 0, 52, 0
2, 158424, Note_on_c, 0, 58, 35
2, 158430, Note_on_c, 0, 60, 37
2, 158476, Note_on_c, 0, 84, 0
2, 158490, Note_on_c, 0, 76, 0
2, 158514, Note_on_c, 0, 58, 0
2, 158610, Note_on_c, 0, 84, 46
2, 158622, Note_on_c, 0, 76, 38
2, 158714, Note_on_c, 0, 76, 0
2, 158742, Note_on_c, 0, 60, 0
2, 158768, Note_on_c, 0, 84, 0
2, 158786, Note_on_c, 0, 50, 67
2, 158840, Note_on_c, 0, 74, 50
2, 158842, Note_on_c, 0, 82, 49
2, 158902, Note_on_c, 0, 50, 0
2, 158982, Note_on_c, 0, 50, 48
2, 159122, Note_on_c, 0, 74, 0
2, 159146, Note_on_c, 0, 82, 0
2, 159202, Note_on_c, 0, 50, 0
2, 159336, Note_on_c, 0, 72, 47
2, 159348, Note_on_c, 0, 81, 55
2, 159364, Note_on_c, 0, 48, 46
2, 159952, Note_on_c, 0, 60, 30
2, 159960, Note_on_c, 0, 55, 36
2, 159964, Note_on_c, 0, 48, 0
2, 159968, Note_on_c, 0, 57, 32
2, 160070, Note_on_c, 0, 72, 0
2, 160142, Note_on_c, 0, 72, 15
2, 160170, Note_on_c, 0, 81, 0
2, 160228, Note_on_c, 0, 55, 0
2, 160234, Note_on_c, 0, 57, 0
2, 160238, Note_on_c, 0, 60, 0
2, 160302, Note_on_c, 0, 50, 62
2, 160324, Note_on_c, 0, 60, 32
2, 160344, Note_on_c, 0, 81, 15
2, 160412, Note_on_c, 0, 50, 0
2, 160490, Note_on_c, 0, 60, 0
2, 160502, Note_on_c, 0, 50, 57
2, 160762, Note_on_c, 0, 50, 0
2, 160780, Note_on_c, 0, 81, 0
2, 160898, Note_on_c, 0, 52, 67
2, 161082, Note_on_c, 0, 72, 0
2, 161294, Note_on_c, 0, 72, 34
2, 161306, Note_on_c, 0, 71, 22
2, 161338, Note_on_c, 0, 71, 0
2, 161384, Note_on_c, 0, 72, 0
2, 161488, Note_on_c, 0, 73, 38
2, 161512, Note_on_c, 0, 60, 47
2, 161514, Note_on_c, 0, 52, 0
2, 161518, Note_on_c, 0, 58, 38
2, 161592, Note_on_c, 0, 73, 0
2, 161656, Note_on_c, 0, 58, 0
2, 161684, Note_on_c, 0, 75, 49
2, 161838, Note_on_c, 0, 75, 0
2, 161884, Note_on_c, 0, 50, 73
2, 161890, Note_on_c, 0, 76, 68
2, 161992, Note_on_c, 0, 76, 0
2, 162056, Note_on_c, 0, 60, 0
2, 162062, Note_on_c, 0, 78, 59
2, 162192, Note_on_c, 0, 78, 0
2, 162254, Note_on_c, 0, 79, 80
2, 162266, Note_on_c, 0, 60, 56
2, 162278, Note_on_c, 0, 50, 0
2, 162354, Note_on_c, 0, 79, 0
2, 162378, Note_on_c, 0, 60, 0
2, 162452, Note_on_c, 0, 48, 54
2, 162460, Note_on_c, 0, 81, 42
2, 162476, Note_on_c, 0, 80, 30
2, 162512, Note_on_c, 0, 81, 0
2, 162554, Note_on_c, 0, 80, 0
2, 162664, Note_on_c, 0, 80, 67
2, 162758, Note_on_c, 0, 80, 0
2, 162862, Note_on_c, 0, 81, 42
2, 162986, Note_on_c, 0, 81, 0
2, 163010, Note_on_c, 0, 48, 0
2, 163018, Note_on_c, 0, 55, 44
2, 163028, Note_on_c, 0, 60, 33
2, 163042, Note_on_c, 0, 86, 73
2, 163046, Note_on_c, 0, 57, 33
2, 163140, Note_on_c, 0, 86, 0
2, 163244, Note_on_c, 0, 84, 54
2, 163326, Note_on_c, 0, 57, 0
2, 163382, Note_on_c, 0, 50, 57
2, 163420, Note_on_c, 0, 84, 0
2, 163500, Note_on_c, 0, 50, 0
2, 163538, Note_on_c, 0, 55, 0
2, 163574, Note_on_c, 0, 50, 53
2, 163590, Note_on_c, 0, 55, 29
2, 163808, Note_on_c, 0, 50, 0
2, 163908, Note_on_c, 0, 55, 0
2, 163966, Note_on_c, 0, 52, 55
2, 164012, Note_on_c, 0, 60, 0
2, 164350, Note_on_c, 0, 80, 64
2, 164534, Note_on_c, 0, 52, 0
2, 164536, Note_on_c, 0, 80, 0
2, 164564, Note_on_c, 0, 58, 42
2, 164568, Note_on_c, 0, 60, 40
2, 164666, Note_on_c, 0, 58, 0
2, 164742, Note_on_c, 0, 86, 81
2, 164770, Note_on_c, 0, 60, 0
2, 164918, Note_on_c, 0, 60, 32
2, 164926, Note_on_c, 0, 50, 71
2, 164952, Note_on_c, 0, 86, 0
2, 165082, Note_on_c, 0, 50, 0
2, 165134, Note_on_c, 0, 84, 57
2, 165304, Note_on_c, 0, 84, 0
2, 165340, Note_on_c, 0, 50, 35
2, 165350, Note_on_c, 0, 77, 42
2, 165396, Note_on_c, 0, 50, 0
2, 165410, Note_on_c, 0, 60, 0
2, 165414, Note_on_c, 0, 77, 0
2, 165522, Note_on_c, 0, 48, 48
2, 165542, Note_on_c, 0, 77, 32
2, 165696, Note_on_c, 0, 77, 0
2, 166120, Note_on_c, 0, 48, 0
2, 166122, Note_on_c, 0, 60, 34
2, 166126, Note_on_c, 0, 55, 42
2, 166156, Note_on_c, 0, 57, 20
2, 166400, Note_on_c, 0, 57, 0
2, 166408, Note_on_c, 0, 55, 0
2, 166468, Note_on_c, 0, 50, 61
2, 166574, Note_on_c, 0, 50, 0
2, 166658, Note_on_c, 0, 50, 49
2, 166854, Note_on_c, 0, 50, 0
2, 167046, Note_on_c, 0, 52, 60
2, 167084, Note_on_c, 0, 60, 0
2, 167622, Note_on_c, 0, 52, 0
2, 167646, Note_on_c, 0, 60, 38
2, 167646, Note_on_c, 0, 58, 31
2, 167736, Note_on_c, 0, 58, 0
2, 167842, Note_on_c, 0, 60, 0
2, 167994, Note_on_c, 0, 50, 68
2, 168190, Note_on_c, 0, 50, 0
2, 168388, Note_on_c, 0, 50, 43
2, 168478, Note_on_c, 0, 50, 0
2, 168588, Note_on_c, 0, 48, 40
2, 168856, Note_on_c, 0, 48, 0
2, 169002, Note_on_c, 0, 70, 63
2, 169006, Note_on_c, 0, 82, 74
2, 169168, Note_on_c, 0, 60, 42
2, 169172, Note_on_c, 0, 82, 0
2, 169194, Note_on_c, 0, 55, 38
2, 169202, Note_on_c, 0, 83, 68
2, 169218, Note_on_c, 0, 71, 68
2, 169226, Note_on_c, 0, 60, 0
2, 169240, Note_on_c, 0, 70, 0
2, 169256, Note_on_c, 0, 55, 0
2, 169328, Note_on_c, 0, 83, 0
2, 169360, Note_on_c, 0, 71, 0
2, 169396, Note_on_c, 0, 83, 60
2, 169414, Note_on_c, 0, 71, 53
2, 169542, Note_on_c, 0, 50, 65
2, 169554, Note_on_c, 0, 83, 0
2, 169594, Note_on_c, 0, 86, 85
2, 169604, Note_on_c, 0, 71, 0
2, 169616, Note_on_c, 0, 74, 67
2, 169656, Note_on_c, 0, 50, 0
2, 169752, Note_on_c, 0, 86, 0
2, 169758, Note_on_c, 0, 74, 0
2, 169788, Note_on_c, 0, 71, 49
2, 169832, Note_on_c, 0, 83, 39
2, 169952, Note_on_c, 0, 83, 0
2, 169986, Note_on_c, 0, 71, 0
2, 169996, Note_on_c, 0, 72, 57
2, 169998, Note_on_c, 0, 84, 71
2, 170088, Note_on_c, 0, 52, 48
2, 170126, Note_on_c, 0, 84, 0
2, 170152, Note_on_c, 0, 72, 0
2, 170608, Note_on_c, 0, 52, 0
2, 170734, Note_on_c, 0, 58, 37
2, 170744, Note_on_c, 0, 60, 31
2, 170782, Note_on_c, 0, 58, 0
2, 170784, Note_on_c, 0, 60, 0
2, 171082, Note_on_c, 0, 50, 64
2, 171104, Note_on_c, 0, 70, 57
2, 171106, Note_on_c, 0, 82, 60
2, 171180, Note_on_c, 0, 82, 0
2, 171210, Note_on_c, 0, 70, 0
2, 171348, Note_on_c, 0, 50, 0
2, 171448, Note_on_c, 0, 71, 79
2, 171454, Note_on_c, 0, 83, 75
2, 171550, Note_on_c, 0, 83, 0
2, 171616, Note_on_c, 0, 71, 0
2, 171630, Note_on_c, 0, 48, 41
2, 171630, Note_on_c, 0, 74, 66
2, 171642, Note_on_c, 0, 86, 85
2, 171810, Note_on_c, 0, 86, 0
2, 171818, Note_on_c, 0, 74, 0
2, 171852, Note_on_c, 0, 71, 48
2, 171868, Note_on_c, 0, 83, 35
2, 171956, Note_on_c, 0, 83, 0
2, 172014, Note_on_c, 0, 71, 0
2, 172036, Note_on_c, 0, 72, 54
2, 172038, Note_on_c, 0, 84, 69
2, 172250, Note_on_c, 0, 48, 0
2, 172268, Note_on_c, 0, 60, 34
2, 172276, Note_on_c, 0, 55, 29
2, 172282, Note_on_c, 0, 57, 22
2, 172304, Note_on_c, 0, 60, 0
2, 172320, Note_on_c, 0, 57, 0
2, 172326, Note_on_c, 0, 55, 0
2, 172360, Note_on_c, 0, 72, 0
2, 172368, Note_on_c, 0, 84, 0
2, 172396, Note_on_c, 0, 77, 33
2, 172440, Note_on_c, 0, 65, 31
2, 172532, Note_on_c, 0, 77, 0
2, 172564, Note_on_c, 0, 65, 0
2, 172634, Note_on_c, 0, 50, 48
2, 172646, Note_on_c, 0, 77, 40
2, 172650, Note_on_c, 0, 65, 34
2, 172704, Note_on_c, 0, 77, 0
2, 172732, Note_on_c, 0, 65, 0
2, 173018, Note_on_c, 0, 70, 62
2, 173020, Note_on_c, 0, 82, 71
2, 173032, Note_on_c, 0, 50, 0
2, 173160, Note_on_c, 0, 52, 45
2, 173728, Note_on_c, 0, 52, 0
2, 173738, Note_on_c, 0, 70, 0
2, 173748, Note_on_c, 0, 82, 0
2, 173764, Note_on_c, 0, 67, 44
2, 173784, Note_on_c, 0, 58, 38
2, 173794, Note_on_c, 0, 60, 33
2, 173828, Note_on_c, 0, 60, 0
2, 173828, Note_on_c, 0, 58, 0
2, 173890, Note_on_c, 0, 67, 0
2, 173964, Note_on_c, 0, 69, 55
2, 173968, Note_on_c, 0, 81, 60
2, 174116, Note_on_c, 0, 69, 0
2, 174126, Note_on_c, 0, 50, 72
2, 174142, Note_on_c, 0, 81, 0
2, 174170, Note_on_c, 0, 68, 52
2, 174176, Note_on_c, 0, 80, 51
2, 174246, Note_on_c, 0, 50, 0
2, 174302, Note_on_c, 0, 80, 0
2, 174314, Note_on_c, 0, 68, 0
2, 174342, Note_on_c, 0, 50, 40
2, 174354, Note_on_c, 0, 67, 35
2, 174368, Note_on_c, 0, 79, 42
2, 174498, Note_on_c, 0, 50, 0
2, 174512, Note_on_c, 0, 67, 0
2, 174514, Note_on_c, 0, 79, 0
2, 174612, Note_on_c, 0, 64, 15
2, 174682, Note_on_c, 0, 64, 0
2, 174698, Note_on_c, 0, 48, 34
2, 174734, Note_on_c, 0, 67, 54
2, 174766, Note_on_c, 0, 79, 48
2, 174908, Note_on_c, 0, 79, 0
2, 174964, Note_on_c, 0, 78, 50
2, 174966, Note_on_c, 0, 67, 0
2, 174968, Note_on_c, 0, 66, 48
2, 175052, Note_on_c, 0, 78, 0
2, 175098, Note_on_c, 0, 66, 0
2, 175140, Note_on_c, 0, 65, 44
2, 175148, Note_on_c, 0, 77, 33
2, 175292, Note_on_c, 0, 48, 0
2, 175292, Note_on_c, 0, 55, 39
2, 175294, Note_on_c, 0, 60, 26
2, 175302, Note_on_c, 0, 57, 32
2, 175308, Note_on_c, 0, 77, 0
2, 175314, Note_on_c, 0, 65, 0
2, 175354, Note_on_c, 0, 72, 48
2, 175358, Note_on_c, 0, 60, 29
2, 175392, Note_on_c, 0, 55, 0
2, 175396, Note_on_c, 0, 72, 0
2, 175396, Note_on_c, 0, 57, 0
2, 175396, Note_on_c, 0, 60, 0
2, 175418, Note_on_c, 0, 60, 0
2, 175654, Note_on_c, 0, 50, 60
2, 175738, Note_on_c, 0, 72, 50
2, 175808, Note_on_c, 0, 50, 0
2, 176106, Note_on_c, 0, 72, 0
2, 176222, Note_on_c, 0, 52, 50
2, 176274, Note_on_c, 0, 77, 66
2, 176280, Note_on_c, 0, 65, 58
2, 176394, Note_on_c, 0, 65, 0
2, 176422, Note_on_c, 0, 77, 0
2, 176468, Note_on_c, 0, 63, 46
2, 176478, Note_on_c, 0, 75, 46
2, 176612, Note_on_c, 0, 63, 0
2, 176614, Note_on_c, 0, 75, 0
2, 176650, Note_on_c, 0, 64, 38
2, 176660, Note_on_c, 0, 76, 30
2, 176786, Note_on_c, 0, 64, 0
2, 176788, Note_on_c, 0, 76, 0
2, 176802, Note_on_c, 0, 52, 0
2, 176848, Note_on_c, 0, 69, 65
2, 176850, Note_on_c, 0, 81, 64
2, 176874, Note_on_c, 0, 58, 29
2, 176878, Note_on_c, 0, 60, 29
2, 176924, Note_on_c, 0, 60, 0
2, 176934, Note_on_c, 0, 58, 0
2, 176980, Note_on_c, 0, 81, 0
2, 176996, Note_on_c, 0, 69, 0
2, 177012, Note_on_c, 0, 66, 39
2, 177052, Note_on_c, 0, 78, 30
2, 177196, Note_on_c, 0, 78, 0
2, 177220, Note_on_c, 0, 50, 63
2, 177238, Note_on_c, 0, 79, 53
2, 177324, Note_on_c, 0, 79, 0
2, 177326, Note_on_c, 0, 67, 24
2, 177332, Note_on_c, 0, 66, 0
2, 177336, Note_on_c, 0, 50, 0
2, 177358, Note_on_c, 0, 67, 0
2, 177428, Note_on_c, 0, 86, 75
2, 177432, Note_on_c, 0, 50, 36
2, 177442, Note_on_c, 0, 72, 66
2, 177576, Note_on_c, 0, 86, 0
2, 177616, Note_on_c, 0, 72, 0
2, 177628, Note_on_c, 0, 50, 0
2, 177694, Note_on_c, 0, 70, 29
2, 177802, Note_on_c, 0, 48, 42
2, 177812, Note_on_c, 0, 73, 46
2, 177814, Note_on_c, 0, 70, 0
2, 177850, Note_on_c, 0, 83, 44
2, 177852, Note_on_c, 0, 84, 38
2, 177966, Note_on_c, 0, 83, 0
2, 177972, Note_on_c, 0, 84, 0
2, 178052, Note_on_c, 0, 73, 0
2, 178070, Note_on_c, 0, 70, 28
2, 178158, Note_on_c, 0, 70, 0
2, 178174, Note_on_c, 0, 72, 53
2, 178204, Note_on_c, 0, 84, 55
2, 178360, Note_on_c, 0, 84, 0
2, 178378, Note_on_c, 0, 48, 0
2, 178380, Note_on_c, 0, 60, 36
2, 178386, Note_on_c, 0, 72, 0
2, 178390, Note_on_c, 0, 57, 34
2, 178396, Note_on_c, 0, 55, 34
2, 178408, Note_on_c, 0, 69, 49
2, 178426, Note_on_c, 0, 81, 38
2, 178470, Note_on_c, 0, 81, 0
2, 178506, Note_on_c, 0, 60, 0
2, 178528, Note_on_c, 0, 69, 0
2, 178552, Note_on_c, 0, 57, 0
2, 178614, Note_on_c, 0, 55, 0
2, 178728, Note_on_c, 0, 50, 78
2, 178782, Note_on_c, 0, 77, 44
2, 178786, Note_on_c, 0, 65, 44
2, 178850, Note_on_c, 0, 77, 0
2, 178858, Note_on_c, 0, 65, 0
2, 178992, Note_on_c, 0, 50, 0
2, 179116, Note_on_c, 0, 50, 50
2, 179190, Note_on_c, 0, 69, 55
2, 179194, Note_on_c, 0, 81, 61
2, 179204, Note_on_c, 0, 50, 0
2, 179294, Note_on_c, 0, 81, 0
2, 179300, Note_on_c, 0, 69, 0
2, 179316, Note_on_c, 0, 52, 57
2, 179538, Note_on_c, 0, 82, 68
2, 179556, Note_on_c, 0, 70, 53
2, 179838, Note_on_c, 0, 82, 0
2, 179914, Note_on_c, 0, 70, 0
2, 179934, Note_on_c, 0, 84, 76
2, 179938, Note_on_c, 0, 72, 55
2, 179940, Note_on_c, 0, 58, 43
2, 179968, Note_on_c, 0, 60, 22
2, 179998, Note_on_c, 0, 60, 0
2, 179998, Note_on_c, 0, 52, 0
2, 180022, Note_on_c, 0, 58, 0
2, 180050, Note_on_c, 0, 84, 0
2, 180154, Note_on_c, 0, 72, 0
2, 180288, Note_on_c, 0, 50, 57
2, 180292, Note_on_c, 0, 52, 55
2, 180330, Note_on_c, 0, 67, 57
2, 180332, Note_on_c, 0, 79, 71
2, 180400, Note_on_c, 0, 52, 0
2, 180402, Note_on_c, 0, 50, 0
2, 180424, Note_on_c, 0, 67, 0
2, 180428, Note_on_c, 0, 79, 0
2, 180488, Note_on_c, 0, 50, 55
2, 180528, Note_on_c, 0, 67, 36
2, 180534, Note_on_c, 0, 79, 57
2, 180794, Note_on_c, 0, 50, 0
2, 180844, Note_on_c, 0, 67, 0
2, 180846, Note_on_c, 0, 79, 0
2, 180890, Note_on_c, 0, 64, 30
2, 180902, Note_on_c, 0, 76, 28
2, 180906, Note_on_c, 0, 48, 40
2, 181034, Note_on_c, 0, 76, 0
2, 181088, Note_on_c, 0, 64, 0
2, 181096, Note_on_c, 0, 77, 62
2, 181122, Note_on_c, 0, 65, 44
2, 181208, Note_on_c, 0, 77, 0
2, 181220, Note_on_c, 0, 65, 0
2, 181428, Note_on_c, 0, 48, 0
2, 181448, Note_on_c, 0, 55, 33
2, 181450, Note_on_c, 0, 60, 30
2, 181464, Note_on_c, 0, 81, 50
2, 181468, Note_on_c, 0, 69, 56
2, 181516, Note_on_c, 0, 69, 0
2, 181520, Note_on_c, 0, 81, 0
2, 181774, Note_on_c, 0, 55, 0
2, 181806, Note_on_c, 0, 50, 58
2, 182028, Note_on_c, 0, 72, 41
2, 182056, Note_on_c, 0, 60, 34
2, 182168, Note_on_c, 0, 60, 0
2, 182194, Note_on_c, 0, 50, 0
2, 182198, Note_on_c, 0, 72, 0
2, 182380, Note_on_c, 0, 52, 37
2, 182438, Note_on_c, 0, 60, 0
2, 182984, Note_on_c, 0, 52, 0
2, 183014, Note_on_c, 0, 58, 30
2, 183018, Note_on_c, 0, 60, 27
2, 183076, Note_on_c, 0, 60, 0
2, 183082, Note_on_c, 0, 58, 0
2, 183152, Note_on_c, 0, 64, 66
2, 183158, Note_on_c, 0, 76, 95
2, 183332, Note_on_c, 0, 76, 0
2, 183376, Note_on_c, 0, 64, 0
2, 183384, Note_on_c, 0, 50, 32
2, 183394, Note_on_c, 0, 79, 71
2, 183406, Note_on_c, 0, 67, 65
2, 183518, Note_on_c, 0, 67, 0
2, 183530, Note_on_c, 0, 79, 0
2, 183600, Note_on_c, 0, 72, 56
2, 183610, Note_on_c, 0, 60, 37
2, 183714, Note_on_c, 0, 50, 0
2, 183758, Note_on_c, 0, 60, 0
2, 183772, Note_on_c, 0, 72, 0
2, 183854, Note_on_c, 0, 60, 52
2, 183864, Note_on_c, 0, 72, 60
2, 183926, Note_on_c, 0, 48, 36
2, 183950, Note_on_c, 0, 60, 0
2, 183954, Note_on_c, 0, 72, 0
2, 184152, Note_on_c, 0, 65, 76
2, 184156, Note_on_c, 0, 77, 80
2, 184360, Note_on_c, 0, 77, 0
2, 184484, Note_on_c, 0, 65, 0
2, 184532, Note_on_c, 0, 81, 76
2, 184540, Note_on_c, 0, 69, 54
2, 184552, Note_on_c, 0, 55, 24
2, 184556, Note_on_c, 0, 57, 25
2, 184576, Note_on_c, 0, 48, 0
2, 184632, Note_on_c, 0, 69, 0
2, 184634, Note_on_c, 0, 81, 0
2, 184658, Note_on_c, 0, 57, 0
2, 184738, Note_on_c, 0, 60, 46
2, 184754, Note_on_c, 0, 72, 57
2, 184804, Note_on_c, 0, 55, 0
2, 184888, Note_on_c, 0, 60, 30
2, 184894, Note_on_c, 0, 50, 80
2, 184902, Note_on_c, 0, 60, 0
2, 184924, Note_on_c, 0, 72, 0
2, 185006, Note_on_c, 0, 60, 44
2, 185014, Note_on_c, 0, 72, 62
2, 185114, Note_on_c, 0, 72, 0
2, 185124, Note_on_c, 0, 60, 0
2, 185322, Note_on_c, 0, 65, 72
2, 185324, Note_on_c, 0, 77, 74
2, 185356, Note_on_c, 0, 50, 0
2, 185454, Note_on_c, 0, 52, 78
2, 185468, Note_on_c, 0, 77, 0
2, 185508, Note_on_c, 0, 60, 0
2, 185608, Note_on_c, 0, 65, 0
2, 185658, Note_on_c, 0, 81, 85
2, 185658, Note_on_c, 0, 69, 64
2, 185782, Note_on_c, 0, 81, 0
2, 185820, Note_on_c, 0, 69, 0
2, 185904, Note_on_c, 0, 79, 76
2, 185910, Note_on_c, 0, 67, 66
2, 186068, Note_on_c, 0, 58, 37
2, 186106, Note_on_c, 0, 60, 24
2, 186108, Note_on_c, 0, 52, 0
2, 186156, Note_on_c, 0, 79, 0
2, 186172, Note_on_c, 0, 67, 0
2, 186176, Note_on_c, 0, 58, 0
2, 186230, Note_on_c, 0, 64, 38
2, 186236, Note_on_c, 0, 76, 54
2, 186300, Note_on_c, 0, 64, 0
2, 186356, Note_on_c, 0, 76, 0
2, 186466, Note_on_c, 0, 76, 68
2, 186484, Note_on_c, 0, 64, 45
2, 186588, Note_on_c, 0, 50, 1
2, 186736, Note_on_c, 0, 64, 0
2, 186786, Note_on_c, 0, 76, 0
2, 186820, Note_on_c, 0, 50, 0
2, 186820, Note_on_c, 0, 60, 30
2, 186824, Note_on_c, 0, 72, 51
2, 186924, Note_on_c, 0, 72, 0
2, 186948, Note_on_c, 0, 60, 0
2, 186954, Note_on_c, 0, 60, 0
2, 187014, Note_on_c, 0, 48, 37
2, 187062, Note_on_c, 0, 77, 71
2, 187074, Note_on_c, 0, 65, 64
2, 187608, Note_on_c, 0, 48, 0
2, 187622, Note_on_c, 0, 55, 35
2, 187630, Note_on_c, 0, 57, 38
2, 187698, Note_on_c, 0, 57, 0
2, 187718, Note_on_c, 0, 55, 0
2, 187960, Note_on_c, 0, 50, 84
2, 188310, Note_on_c, 0, 65, 0
2, 188432, Note_on_c, 0, 50, 0
2, 188514, Note_on_c, 0, 52, 80
2, 188544, Note_on_c, 0, 77, 0
2, 188550, Note_on_c, 0, 72, 37
2, 188552, Note_on_c, 0, 60, 33
2, 188594, Note_on_c, 0, 72, 0
2, 188616, Note_on_c, 0, 60, 0
2, 188748, Note_on_c, 0, 72, 22
2, 188770, Note_on_c, 0, 60, 32
2, 188818, Note_on_c, 0, 72, 0
2, 188852, Note_on_c, 0, 60, 0
2, 188918, Note_on_c, 0, 76, 70
2, 188942, Note_on_c, 0, 64, 34
2, 189098, Note_on_c, 0, 64, 0
2, 189106, Note_on_c, 0, 76, 0
2, 189146, Note_on_c, 0, 67, 44
2, 189146, Note_on_c, 0, 79, 66
2, 189174, Note_on_c, 0, 58, 31
2, 189186, Note_on_c, 0, 52, 0
2, 189186, Note_on_c, 0, 60, 30
2, 189252, Note_on_c, 0, 58, 0
2, 189266, Note_on_c, 0, 79, 0
2, 189440, Note_on_c, 0, 67, 0
2, 189496, Note_on_c, 0, 82, 84
2, 189498, Note_on_c, 0, 70, 81
2, 189532, Note_on_c, 0, 50, 28
2, 189614, Note_on_c, 0, 50, 0
2, 189700, Note_on_c, 0, 50, 44
2, 189742, Note_on_c, 0, 70, 0
2, 189820, Note_on_c, 0, 82, 0
2, 189828, Note_on_c, 0, 60, 0
2, 189884, Note_on_c, 0, 74, 69
2, 189896, Note_on_c, 0, 86, 85
2, 189904, Note_on_c, 0, 50, 0
2, 190022, Note_on_c, 0, 74, 0
2, 190032, Note_on_c, 0, 86, 0
2, 190082, Note_on_c, 0, 48, 41
2, 190104, Note_on_c, 0, 72, 64
2, 190122, Note_on_c, 0, 84, 80
2, 190650, Note_on_c, 0, 84, 0
2, 190668, Note_on_c, 0, 48, 0
2, 190676, Note_on_c, 0, 60, 26
2, 190678, Note_on_c, 0, 55, 31
2, 190680, Note_on_c, 0, 57, 28
2, 190708, Note_on_c, 0, 69, 49
2, 190722, Note_on_c, 0, 81, 48
2, 190724, Note_on_c, 0, 72, 0
2, 190798, Note_on_c, 0, 57, 0
2, 190808, Note_on_c, 0, 60, 0
2, 190818, Note_on_c, 0, 81, 0
2, 190822, Note_on_c, 0, 69, 0
2, 190826, Note_on_c, 0, 55, 0
2, 191004, Note_on_c, 0, 50, 62
2, 191038, Note_on_c, 0, 65, 37
2, 191050, Note_on_c, 0, 77, 46
2, 191118, Note_on_c, 0, 77, 0
2, 191130, Note_on_c, 0, 50, 0
2, 191166, Note_on_c, 0, 65, 0
2, 191216, Note_on_c, 0, 50, 42
2, 191268, Note_on_c, 0, 81, 41
2, 191272, Note_on_c, 0, 69, 37
2, 191472, Note_on_c, 0, 50, 0
2, 191582, Note_on_c, 0, 52, 57
2, 191788, Note_on_c, 0, 81, 0
2, 191812, Note_on_c, 0, 69, 0
2, 191852, Note_on_c, 0, 79, 51
2, 191892, Note_on_c, 0, 67, 26
2, 192172, Note_on_c, 0, 79, 0
2, 192194, Note_on_c, 0, 60, 38
2, 192194, Note_on_c, 0, 58, 36
2, 192202, Note_on_c, 0, 67, 0
2, 192204, Note_on_c, 0, 76, 41
2, 192218, Note_on_c, 0, 64, 37
2, 192276, Note_on_c, 0, 52, 0
2, 192302, Note_on_c, 0, 58, 0
2, 192502, Note_on_c, 0, 64, 0
2, 192520, Note_on_c, 0, 76, 0
2, 192526, Note_on_c, 0, 60, 0
2, 192566, Note_on_c, 0, 60, 40
2, 192568, Note_on_c, 0, 72, 49
2, 192570, Note_on_c, 0, 50, 40
2, 192668, Note_on_c, 0, 60, 0
2, 192670, Note_on_c, 0, 50, 0
2, 192702, Note_on_c, 0, 72, 0
2, 192748, Note_on_c, 0, 50, 57
2, 192928, Note_on_c, 0, 50, 0
2, 192974, Note_on_c, 0, 60, 24
2, 192980, Note_on_c, 0, 72, 46
2, 193054, Note_on_c, 0, 72, 0
2, 193096, Note_on_c, 0, 60, 0
2, 193140, Note_on_c, 0, 48, 33
2, 193730, Note_on_c, 0, 60, 33
2, 193732, Note_on_c, 0, 48, 0
2, 193742, Note_on_c, 0, 72, 57
2, 193746, Note_on_c, 0, 60, 50
2, 193760, Note_on_c, 0, 55, 28
2, 193808, Note_on_c, 0, 60, 0
2, 193814, Note_on_c, 0, 55, 0
2, 193820, Note_on_c, 0, 72, 0
2, 193880, Note_on_c, 0, 60, 0
2, 193892, Note_on_c, 0, 62, 43
2, 193910, Note_on_c, 0, 74, 40
2, 193976, Note_on_c, 0, 74, 0
2, 194050, Note_on_c, 0, 62, 0
2, 194094, Note_on_c, 0, 64, 47
2, 194104, Note_on_c, 0, 76, 64
2, 194190, Note_on_c, 0, 76, 0
2, 194232, Note_on_c, 0, 50, 34
2, 194242, Note_on_c, 0, 64, 0
2, 194284, Note_on_c, 0, 77, 82
2, 194296, Note_on_c, 0, 65, 67
2, 194350, Note_on_c, 0, 50, 0
2, 194648, Note_on_c, 0, 77, 0
2, 194656, Note_on_c, 0, 65, 0
2, 194666, Note_on_c, 0, 52, 45
2, 194670, Note_on_c, 0, 74, 57
2, 194676, Note_on_c, 0, 62, 56
2, 194738, Note_on_c, 0, 74, 0
2, 194900, Note_on_c, 0, 62, 0
2, 194902, Note_on_c, 0, 76, 113
2, 194904, Note_on_c, 0, 64, 83
2, 195272, Note_on_c, 0, 76, 0
2, 195284, Note_on_c, 0, 52, 0
2, 195296, Note_on_c, 0, 72, 54
2, 195296, Note_on_c, 0, 58, 27
2, 195300, Note_on_c, 0, 60, 31
2, 195300, Note_on_c, 0, 74, 51
2, 195302, Note_on_c, 0, 60, 54
2, 195334, Note_on_c, 0, 74, 0
2, 195340, Note_on_c, 0, 60, 0
2, 195344, Note_on_c, 0, 64, 0
2, 195358, Note_on_c, 0, 58, 0
2, 195594, Note_on_c, 0, 72, 0
2, 195638, Note_on_c, 0, 50, 47
2, 195646, Note_on_c, 0, 74, 80
2, 195652, Note_on_c, 0, 60, 0
2, 195656, Note_on_c, 0, 62, 72
2, 196042, Note_on_c, 0, 58, 44
2, 196046, Note_on_c, 0, 62, 0
2, 196052, Note_on_c, 0, 74, 0
2, 196064, Note_on_c, 0, 70, 37
2, 196084, Note_on_c, 0, 50, 0
2, 196212, Note_on_c, 0, 70, 0
2, 196212, Note_on_c, 0, 48, 41
2, 196248, Note_on_c, 0, 58, 0
2, 196266, Note_on_c, 0, 60, 35
2, 196270, Note_on_c, 0, 72, 54
2, 196800, Note_on_c, 0, 69, 44
2, 196810, Note_on_c, 0, 72, 0
2, 196810, Note_on_c, 0, 60, 0
2, 196822, Note_on_c, 0, 60, 27
2, 196828, Note_on_c, 0, 57, 34
2, 196834, Note_on_c, 0, 57, 30
2, 196840, Note_on_c, 0, 55, 32
2, 196842, Note_on_c, 0, 48, 0
2, 196912, Note_on_c, 0, 69, 0
2, 197004, Note_on_c, 0, 58, 46
2, 197026, Note_on_c, 0, 57, 0
2, 197060, Note_on_c, 0, 57, 0
2, 197070, Note_on_c, 0, 70, 23
2, 197108, Note_on_c, 0, 55, 0
2, 197144, Note_on_c, 0, 70, 0
2, 197158, Note_on_c, 0, 50, 37
2, 197260, Note_on_c, 0, 50, 0
2, 197348, Note_on_c, 0, 58, 0
2, 197354, Note_on_c, 0, 50, 52
2, 197410, Note_on_c, 0, 74, 95
2, 197412, Note_on_c, 0, 62, 74
2, 197534, Note_on_c, 0, 50, 0
2, 197724, Note_on_c, 0, 74, 0
2, 197724, Note_on_c, 0, 52, 50
2, 197728, Note_on_c, 0, 62, 0
2, 197774, Note_on_c, 0, 60, 0
2, 197780, Note_on_c, 0, 58, 43
2, 197804, Note_on_c, 0, 70, 23
2, 197966, Note_on_c, 0, 58, 0
2, 197972, Note_on_c, 0, 70, 0
2, 197984, Note_on_c, 0, 72, 71
2, 198004, Note_on_c, 0, 60, 44
2, 198338, Note_on_c, 0, 60, 38
2, 198342, Note_on_c, 0, 52, 0
2, 198346, Note_on_c, 0, 60, 0
2, 198364, Note_on_c, 0, 69, 55
2, 198370, Note_on_c, 0, 58, 21
2, 198372, Note_on_c, 0, 72, 0
2, 198384, Note_on_c, 0, 55, 29
2, 198386, Note_on_c, 0, 57, 38
2, 198446, Note_on_c, 0, 55, 0
2, 198454, Note_on_c, 0, 58, 0
2, 198658, Note_on_c, 0, 69, 0
2, 198694, Note_on_c, 0, 57, 0
2, 198714, Note_on_c, 0, 50, 58
2, 198728, Note_on_c, 0, 58, 55
2, 198730, Note_on_c, 0, 70, 53
2, 198890, Note_on_c, 0, 50, 0
2, 199044, Note_on_c, 0, 70, 0
2, 199082, Note_on_c, 0, 58, 0
2, 199106, Note_on_c, 0, 55, 30
2, 199130, Note_on_c, 0, 50, 26
2, 199146, Note_on_c, 0, 67, 22
2, 199176, Note_on_c, 0, 60, 0
2, 199184, Note_on_c, 0, 50, 0
2, 199246, Note_on_c, 0, 67, 0
2, 199248, Note_on_c, 0, 55, 0
2, 199298, Note_on_c, 0, 48, 45
2, 199322, Note_on_c, 0, 57, 36
2, 199334, Note_on_c, 0, 69, 60
2, 199632, Note_on_c, 0, 48, 0
2, 199700, Note_on_c, 0, 69, 0
2, 199748, Note_on_c, 0, 57, 0
2, 200060, Note_on_c, 0, 65, 30
2, 200076, Note_on_c, 0, 77, 34
2, 200136, Note_on_c, 0, 77, 0
2, 200190, Note_on_c, 0, 65, 0
2, 200264, Note_on_c, 0, 60, 35
2, 200266, Note_on_c, 0, 57, 44
2, 200268, Note_on_c, 0, 55, 49
2, 200278, Note_on_c, 0, 67, 47
2, 200290, Note_on_c, 0, 79, 38
2, 200306, Note_on_c, 0, 60, 0
2, 200312, Note_on_c, 0, 57, 0
2, 200332, Note_on_c, 0, 55, 0
2, 200342, Note_on_c, 0, 79, 0
2, 200424, Note_on_c, 0, 67, 0
2, 200460, Note_on_c, 0, 69, 68
2, 200462, Note_on_c, 0, 50, 64
2, 200468, Note_on_c, 0, 81, 87
2, 200656, Note_on_c, 0, 50, 0
2, 200828, Note_on_c, 0, 52, 59
2, 201044, Note_on_c, 0, 69, 0
2, 201060, Note_on_c, 0, 81, 0
2, 201072, Note_on_c, 0, 65, 41
2, 201076, Note_on_c, 0, 77, 38
2, 201174, Note_on_c, 0, 77, 0
2, 201200, Note_on_c, 0, 65, 0
2, 201252, Note_on_c, 0, 79, 80
2, 201262, Note_on_c, 0, 67, 57
2, 201442, Note_on_c, 0, 58, 51
2, 201462, Note_on_c, 0, 52, 0
2, 201474, Note_on_c, 0, 60, 31
2, 201520, Note_on_c, 0, 60, 0
2, 201534, Note_on_c, 0, 58, 0
2, 201592, Note_on_c, 0, 79, 0
2, 201598, Note_on_c, 0, 67, 0
2, 201616, Note_on_c, 0, 64, 41
2, 201626, Note_on_c, 0, 76, 47
2, 201770, Note_on_c, 0, 50, 64
2, 201800, Note_on_c, 0, 64, 0
2, 201826, Note_on_c, 0, 76, 0
2, 201838, Note_on_c, 0, 74, 58
2, 201844, Note_on_c, 0, 62, 32
2, 201948, Note_on_c, 0, 62, 0
2, 201988, Note_on_c, 0, 74, 0
2, 202188, Note_on_c, 0, 62, 44
2, 202194, Note_on_c, 0, 74, 35
2, 202242, Note_on_c, 0, 50, 0
2, 202334, Note_on_c, 0, 74, 0
2, 202356, Note_on_c, 0, 62, 0
2, 202372, Note_on_c, 0, 48, 40
2, 202394, Note_on_c, 0, 72, 34
2, 202418, Note_on_c, 0, 60, 30
2, 202962, Note_on_c, 0, 58, 34
2, 202986, Note_on_c, 0, 60, 39
2, 203022, Note_on_c, 0, 48, 0
2, 203076, Note_on_c, 0, 58, 0
2, 203078, Note_on_c, 0, 60, 0
2, 203320, Note_on_c, 0, 50, 62
2, 203328, Note_on_c, 0, 72, 0
2, 203340, Note_on_c, 0, 60, 0
2, 203356, Note_on_c, 0, 65, 36
2, 203360, Note_on_c, 0, 77, 45
2, 203424, Note_on_c, 0, 50, 0
2, 203454, Note_on_c, 0, 65, 0
2, 203470, Note_on_c, 0, 77, 0
2, 203504, Note_on_c, 0, 50, 53
2, 203552, Note_on_c, 0, 72, 36
2, 203566, Note_on_c, 0, 60, 28
2, 203788, Note_on_c, 0, 50, 0
2, 203852, Note_on_c, 0, 72, 0
2, 203854, Note_on_c, 0, 60, 0
2, 203898, Note_on_c, 0, 52, 54
2, 203902, Note_on_c, 0, 74, 46
2, 203922, Note_on_c, 0, 62, 31
2, 203986, Note_on_c, 0, 74, 0
2, 204066, Note_on_c, 0, 62, 0
2, 204284, Note_on_c, 0, 64, 33
2, 204286, Note_on_c, 0, 76, 49
2, 204390, Note_on_c, 0, 64, 0
2, 204404, Note_on_c, 0, 76, 0
2, 204484, Note_on_c, 0, 52, 0
2, 204500, Note_on_c, 0, 60, 20
2, 204510, Note_on_c, 0, 57, 34
2, 204512, Note_on_c, 0, 55, 31
2, 204610, Note_on_c, 0, 55, 0
2, 204650, Note_on_c, 0, 57, 0
2, 204668, Note_on_c, 0, 76, 51
2, 204672, Note_on_c, 0, 64, 22
2, 204816, Note_on_c, 0, 64, 0
2, 204830, Note_on_c, 0, 76, 0
2, 204884, Note_on_c, 0, 74, 34
2, 204886, Note_on_c, 0, 62, 32
2, 204988, Note_on_c, 0, 62, 0
2, 205004, Note_on_c, 0, 74, 0
2, 205038, Note_on_c, 0, 50, 54
2, 205234, Note_on_c, 0, 62, 32
2, 205262, Note_on_c, 0, 74, 29
2, 205264, Note_on_c, 0, 50, 0
2, 205372, Note_on_c, 0, 62, 0
2, 205384, Note_on_c, 0, 60, 0
2, 205392, Note_on_c, 0, 74, 0
2, 205430, Note_on_c, 0, 48, 39
2, 205464, Note_on_c, 0, 72, 28
2, 205470, Note_on_c, 0, 60, 22
2, 205646, Note_on_c, 0, 60, 0
2, 206016, Note_on_c, 0, 55, 33
2, 206016, Note_on_c, 0, 60, 35
2, 206018, Note_on_c, 0, 57, 36
2, 206050, Note_on_c, 0, 48, 0
2, 206362, Note_on_c, 0, 55, 0
2, 206372, Note_on_c, 0, 50, 49
2, 206494, Note_on_c, 0, 57, 0
2, 206502, Note_on_c, 0, 50, 0
2, 206566, Note_on_c, 0, 50, 74
2, 206740, Note_on_c, 0, 72, 0
2, 206754, Note_on_c, 0, 50, 0
2, 206962, Note_on_c, 0, 52, 65
2, 206986, Note_on_c, 0, 60, 0
2, 207546, Note_on_c, 0, 52, 0
2, 207570, Note_on_c, 0, 58, 60
2, 207660, Note_on_c, 0, 58, 0
2, 207902, Note_on_c, 0, 50, 67
2, 208364, Note_on_c, 0, 50, 0
2, 208516, Note_on_c, 0, 48, 46
2, 209136, Note_on_c, 0, 55, 48
2, 209144, Note_on_c, 0, 60, 37
2, 209148, Note_on_c, 0, 57, 38
2, 209186, Note_on_c, 0, 57, 0
2, 209192, Note_on_c, 0, 60, 0
2, 209194, Note_on_c, 0, 55, 0
2, 209460, Note_on_c, 0, 69, 49
2, 209462, Note_on_c, 0, 81, 58
2, 209544, Note_on_c, 0, 81, 0
2, 209548, Note_on_c, 0, 48, 0
2, 209594, Note_on_c, 0, 69, 0
2, 209634, Note_on_c, 0, 50, 68
2, 209658, Note_on_c, 0, 70, 42
2, 209686, Note_on_c, 0, 82, 37
2, 209720, Note_on_c, 0, 82, 0
2, 209764, Note_on_c, 0, 70, 0
2, 209904, Note_on_c, 0, 74, 76
2, 209916, Note_on_c, 0, 86, 90
2, 210010, Note_on_c, 0, 50, 0
2, 210026, Note_on_c, 0, 86, 0
2, 210040, Note_on_c, 0, 52, 49
2, 210080, Note_on_c, 0, 74, 0
2, 210180, Note_on_c, 0, 72, 58
2, 210186, Note_on_c, 0, 84, 76
2, 210278, Note_on_c, 0, 84, 0
2, 210288, Note_on_c, 0, 72, 0
2, 210302, Note_on_c, 0, 71, 62
2, 210342, Note_on_c, 0, 83, 60
2, 210420, Note_on_c, 0, 83, 0
2, 210442, Note_on_c, 0, 71, 0
2, 210484, Note_on_c, 0, 72, 64
2, 210492, Note_on_c, 0, 84, 57
2, 210658, Note_on_c, 0, 58, 49
2, 210668, Note_on_c, 0, 60, 34
2, 210694, Note_on_c, 0, 52, 0
2, 210706, Note_on_c, 0, 60, 0
2, 210708, Note_on_c, 0, 58, 0
2, 210962, Note_on_c, 0, 72, 0
2, 211004, Note_on_c, 0, 50, 66
2, 211064, Note_on_c, 0, 72, 30
2, 211096, Note_on_c, 0, 50, 0
2, 211182, Note_on_c, 0, 50, 44
2, 211208, Note_on_c, 0, 72, 0
2, 211394, Note_on_c, 0, 84, 0
2, 211402, Note_on_c, 0, 72, 45
2, 211496, Note_on_c, 0, 50, 0
2, 211514, Note_on_c, 0, 72, 0
2, 211552, Note_on_c, 0, 48, 36
2, 211620, Note_on_c, 0, 72, 17
2, 211624, Note_on_c, 0, 76, 25
2, 211762, Note_on_c, 0, 76, 0
2, 211802, Note_on_c, 0, 72, 0
2, 212186, Note_on_c, 0, 55, 45
2, 212188, Note_on_c, 0, 60, 32
2, 212198, Note_on_c, 0, 57, 32
2, 212218, Note_on_c, 0, 55, 0
2, 212230, Note_on_c, 0, 60, 0
2, 212234, Note_on_c, 0, 57, 0
2, 212530, Note_on_c, 0, 50, 58
2, 212534, Note_on_c, 0, 48, 0
2, 212608, Note_on_c, 0, 50, 0
2, 212692, Note_on_c, 0, 50, 44
2, 213092, Note_on_c, 0, 52, 48
2, 213102, Note_on_c, 0, 50, 0
2, 213486, Note_on_c, 0, 58, 47
2, 213508, Note_on_c, 0, 60, 25
2, 213564, Note_on_c, 0, 60, 0
2, 213564, Note_on_c, 0, 58, 0
2, 213706, Note_on_c, 0, 58, 50
2, 213714, Note_on_c, 0, 60, 38
2, 213744, Note_on_c, 0, 58, 0
2, 213746, Note_on_c, 0, 60, 0
2, 213886, Note_on_c, 0, 52, 0
2, 213914, Note_on_c, 0, 50, 46
2, 214104, Note_on_c, 0, 50, 0
2, 214208, Note_on_c, 0, 50, 53
2, 214608, Note_on_c, 0, 50, 0
2, 214628, Note_on_c, 0, 48, 43
2, 215256, Note_on_c, 0, 81, 71
2, 215266, Note_on_c, 0, 72, 66
2, 215282, Note_on_c, 0, 60, 35
2, 215286, Note_on_c, 0, 57, 41
2, 215322, Note_on_c, 0, 60, 0
2, 215324, Note_on_c, 0, 57, 0
2, 215352, Note_on_c, 0, 72, 0
2, 215364, Note_on_c, 0, 81, 0
2, 215550, Note_on_c, 0, 74, 72
2, 215552, Note_on_c, 0, 82, 74
2, 215606, Note_on_c, 0, 50, 64
2, 215630, Note_on_c, 0, 48, 0
2, 215640, Note_on_c, 0, 74, 0
2, 215682, Note_on_c, 0, 82, 0
2, 215736, Note_on_c, 0, 50, 0
2, 215804, Note_on_c, 0, 50, 61
2, 215830, Note_on_c, 0, 77, 87
2, 215832, Note_on_c, 0, 86, 84
2, 215972, Note_on_c, 0, 86, 0
2, 216004, Note_on_c, 0, 77, 0
2, 216122, Note_on_c, 0, 84, 74
2, 216130, Note_on_c, 0, 76, 66
2, 216176, Note_on_c, 0, 50, 0
2, 216180, Note_on_c, 0, 52, 59
2, 216222, Note_on_c, 0, 84, 0
2, 216230, Note_on_c, 0, 76, 0
2, 216372, Note_on_c, 0, 83, 60
2, 216384, Note_on_c, 0, 74, 45
2, 216452, Note_on_c, 0, 74, 0
2, 216476, Note_on_c, 0, 83, 0
2, 216564, Note_on_c, 0, 58, 63
2, 216620, Note_on_c, 0, 58, 0
2, 216630, Note_on_c, 0, 84, 68
2, 216638, Note_on_c, 0, 76, 55
2, 216778, Note_on_c, 0, 58, 71
2, 216794, Note_on_c, 0, 60, 50
2, 216826, Note_on_c, 0, 60, 0
2, 216844, Note_on_c, 0, 58, 0
2, 216962, Note_on_c, 0, 50, 68
2, 216974, Note_on_c, 0, 52, 0
2, 217264, Note_on_c, 0, 50, 0
2, 217334, Note_on_c, 0, 50, 71
2, 217676, Note_on_c, 0, 50, 0
2, 217726, Note_on_c, 0, 48, 53
2, 218354, Note_on_c, 0, 60, 36
2, 218358, Note_on_c, 0, 55, 38
2, 218390, Note_on_c, 0, 55, 0
2, 218394, Note_on_c, 0, 60, 0
2, 218638, Note_on_c, 0, 48, 0
2, 218676, Note_on_c, 0, 50, 76
2, 218794, Note_on_c, 0, 50, 0
2, 218868, Note_on_c, 0, 50, 55
2, 219236, Note_on_c, 0, 50, 0
2, 219242, Note_on_c, 0, 52, 51
2, 219294, Note_on_c, 0, 76, 0
2, 219412, Note_on_c, 0, 84, 0
2, 219626, Note_on_c, 0, 58, 29
2, 219676, Note_on_c, 0, 58, 0
2, 219850, Note_on_c, 0, 55, 47
2, 219850, Note_on_c, 0, 58, 39
2, 219854, Note_on_c, 0, 60, 35
2, 219882, Note_on_c, 0, 55, 0
2, 219894, Note_on_c, 0, 60, 0
2, 219898, Note_on_c, 0, 58, 0
2, 220220, Note_on_c, 0, 50, 80
2, 220254, Note_on_c, 0, 52, 0
2, 220334, Note_on_c, 0, 50, 0
2, 220406, Note_on_c, 0, 50, 64
2, 220734, Note_on_c, 0, 50, 0
2, 220780, Note_on_c, 0, 48, 44
2, 221404, Note_on_c, 0, 55, 55
2, 221404, Note_on_c, 0, 57, 53
2, 221406, Note_on_c, 0, 60, 41
2, 221434, Note_on_c, 0, 55, 0
2, 221436, Note_on_c, 0, 57, 0
2, 221440, Note_on_c, 0, 60, 0
2, 221474, Note_on_c, 0, 48, 0
2, 221766, Note_on_c, 0, 50, 87
2, 221876, Note_on_c, 0, 50, 0
2, 221940, Note_on_c, 0, 50, 74
2, 222304, Note_on_c, 0, 50, 0
2, 222340, Note_on_c, 0, 52, 60
2, 222936, Note_on_c, 0, 58, 63
2, 222942, Note_on_c, 0, 60, 47
2, 222976, Note_on_c, 0, 60, 0
2, 222986, Note_on_c, 0, 58, 0
2, 223002, Note_on_c, 0, 52, 0
2, 223300, Note_on_c, 0, 50, 91
2, 223672, Note_on_c, 0, 50, 0
2, 223684, Note_on_c, 0, 48, 57
2, 223774, Note_on_c, 0, 48, 0
2, 223870, Note_on_c, 0, 77, 73
2, 223894, Note_on_c, 0, 48, 51
2, 223944, Note_on_c, 0, 77, 0
2, 224250, Note_on_c, 0, 72, 90
2, 224252, Note_on_c, 0, 84, 90
2, 224260, Note_on_c, 0, 69, 77
2, 224486, Note_on_c, 0, 60, 33
2, 224494, Note_on_c, 0, 55, 24
2, 224522, Note_on_c, 0, 60, 0
2, 224524, Note_on_c, 0, 55, 0
2, 224822, Note_on_c, 0, 48, 0
2, 224832, Note_on_c, 0, 50, 61
2, 224910, Note_on_c, 0, 50, 0
2, 225000, Note_on_c, 0, 50, 36
2, 225164, Note_on_c, 0, 69, 0
2, 225374, Note_on_c, 0, 50, 0
2, 225390, Note_on_c, 0, 52, 45
2, 225986, Note_on_c, 0, 52, 0
2, 226020, Note_on_c, 0, 58, 37
2, 226060, Note_on_c, 0, 58, 0
2, 226348, Note_on_c, 0, 50, 64
2, 226458, Note_on_c, 0, 50, 0
2, 226536, Note_on_c, 0, 50, 47
2, 226786, Note_on_c, 0, 50, 0
2, 226842, Note_on_c, 0, 72, 0
2, 226916, Note_on_c, 0, 48, 30
2, 226994, Note_on_c, 0, 74, 24
2, 227028, Note_on_c, 0, 74, 0
2, 227142, Note_on_c, 0, 48, 0
2, 227332, Note_on_c, 0, 60, 30
2, 227346, Note_on_c, 0, 76, 32
2, 227350, Note_on_c, 0, 72, 32
2, 227426, Note_on_c, 0, 60, 0
2, 227432, Note_on_c, 0, 76, 0
2, 227454, Note_on_c, 0, 72, 0
2, 227554, Note_on_c, 0, 60, 22
2, 227598, Note_on_c, 0, 60, 0
2, 227704, Note_on_c, 0, 72, 43
2, 227712, Note_on_c, 0, 76, 35
2, 227776, Note_on_c, 0, 76, 0
2, 227788, Note_on_c, 0, 72, 0
2, 227898, Note_on_c, 0, 50, 58
2, 228308, Note_on_c, 0, 77, 44
2, 228316, Note_on_c, 0, 74, 47
2, 228370, Note_on_c, 0, 74, 0
2, 228376, Note_on_c, 0, 77, 0
2, 228478, Note_on_c, 0, 50, 0
2, 228504, Note_on_c, 0, 52, 29
2, 228682, Note_on_c, 0, 76, 49
2, 228684, Note_on_c, 0, 79, 36
2, 229096, Note_on_c, 0, 60, 31
2, 229096, Note_on_c, 0, 58, 39
2, 229132, Note_on_c, 0, 58, 0
2, 229136, Note_on_c, 0, 60, 0
2, 229150, Note_on_c, 0, 52, 0
2, 229438, Note_on_c, 0, 76, 0
2, 229438, Note_on_c, 0, 50, 70
2, 229774, Note_on_c, 0, 79, 0
2, 230000, Note_on_c, 0, 50, 0
2, 230036, Note_on_c, 0, 48, 27
2, 230456, Note_on_c, 0, 84, 0
2, 230714, Note_on_c, 0, 48, 0
2, 230812, Note_on_c, 0, 81, 110
2, 230962, Note_on_c, 0, 81, 0
2, 230974, Note_on_c, 0, 50, 26
2, 231008, Note_on_c, 0, 82, 75
2, 231016, Note_on_c, 0, 81, 43
2, 231052, Note_on_c, 0, 81, 0
2, 231132, Note_on_c, 0, 82, 0
2, 231178, Note_on_c, 0, 84, 76
2, 231328, Note_on_c, 0, 84, 0
2, 231374, Note_on_c, 0, 86, 78
2, 231488, Note_on_c, 0, 86, 0
2, 231534, Note_on_c, 0, 52, 36
2, 231540, Note_on_c, 0, 84, 46
2, 231542, Note_on_c, 0, 50, 0
2, 231690, Note_on_c, 0, 84, 0
2, 231752, Note_on_c, 0, 82, 48
2, 231860, Note_on_c, 0, 82, 0
2, 231938, Note_on_c, 0, 84, 81
2, 231946, Note_on_c, 0, 72, 73
2, 232152, Note_on_c, 0, 84, 0
2, 232192, Note_on_c, 0, 72, 0
2, 232194, Note_on_c, 0, 58, 25
2, 232234, Note_on_c, 0, 58, 0
2, 232302, Note_on_c, 0, 72, 45
2, 232314, Note_on_c, 0, 84, 24
2, 232358, Note_on_c, 0, 84, 0
2, 232412, Note_on_c, 0, 72, 0
2, 232508, Note_on_c, 0, 50, 68
2, 232532, Note_on_c, 0, 82, 59
2, 232550, Note_on_c, 0, 70, 46
2, 232558, Note_on_c, 0, 52, 0
2, 232634, Note_on_c, 0, 82, 0
2, 232644, Note_on_c, 0, 50, 0
2, 232714, Note_on_c, 0, 50, 68
2, 232734, Note_on_c, 0, 70, 0
2, 232876, Note_on_c, 0, 82, 45
2, 232904, Note_on_c, 0, 70, 29
2, 232968, Note_on_c, 0, 82, 0
2, 233038, Note_on_c, 0, 50, 0
2, 233048, Note_on_c, 0, 70, 0
2, 233100, Note_on_c, 0, 48, 33
2, 233106, Note_on_c, 0, 81, 60
2, 233106, Note_on_c, 0, 69, 56
2, 233710, Note_on_c, 0, 57, 20
2, 233742, Note_on_c, 0, 57, 0
2, 233796, Note_on_c, 0, 69, 0
2, 233848, Note_on_c, 0, 81, 0
2, 233876, Note_on_c, 0, 77, 44
2, 234020, Note_on_c, 0, 77, 0
2, 234040, Note_on_c, 0, 48, 0
2, 234052, Note_on_c, 0, 50, 49
2, 234078, Note_on_c, 0, 79, 53
2, 234174, Note_on_c, 0, 79, 0
2, 234262, Note_on_c, 0, 81, 56
2, 234344, Note_on_c, 0, 81, 0
2, 234448, Note_on_c, 0, 82, 74
2, 234572, Note_on_c, 0, 82, 0
2, 234606, Note_on_c, 0, 52, 46
2, 234608, Note_on_c, 0, 50, 0
2, 234618, Note_on_c, 0, 81, 53
2, 234708, Note_on_c, 0, 81, 0
2, 235008, Note_on_c, 0, 84, 75
2, 235016, Note_on_c, 0, 72, 66
2, 235190, Note_on_c, 0, 84, 0
2, 235228, Note_on_c, 0, 58, 48
2, 235238, Note_on_c, 0, 60, 32
2, 235268, Note_on_c, 0, 58, 0
2, 235278, Note_on_c, 0, 60, 0
2, 235278, Note_on_c, 0, 72, 0
2, 235400, Note_on_c, 0, 79, 34
2, 235552, Note_on_c, 0, 79, 0
2, 235556, Note_on_c, 0, 52, 0
2, 235588, Note_on_c, 0, 50, 64
2, 235602, Note_on_c, 0, 82, 58
2, 235610, Note_on_c, 0, 70, 59
2, 235628, Note_on_c, 0, 79, 30
2, 235718, Note_on_c, 0, 79, 0
2, 235768, Note_on_c, 0, 82, 0
2, 235786, Note_on_c, 0, 70, 0
2, 235806, Note_on_c, 0, 50, 0
2, 235968, Note_on_c, 0, 81, 60
2, 235978, Note_on_c, 0, 50, 57
2, 235996, Note_on_c, 0, 69, 65
2, 236058, Note_on_c, 0, 81, 0
2, 236078, Note_on_c, 0, 50, 0
2, 236094, Note_on_c, 0, 69, 0
2, 236186, Note_on_c, 0, 48, 33
2, 236224, Note_on_c, 0, 77, 53
2, 236250, Note_on_c, 0, 65, 49
2, 236786, Note_on_c, 0, 60, 32
2, 236786, Note_on_c, 0, 55, 32
2, 236794, Note_on_c, 0, 57, 32
2, 236818, Note_on_c, 0, 55, 0
2, 236826, Note_on_c, 0, 57, 0
2, 236832, Note_on_c, 0, 48, 0
2, 236832, Note_on_c, 0, 60, 0
2, 237022, Note_on_c, 0, 65, 0
2, 237072, Note_on_c, 0, 77, 0
2, 237130, Note_on_c, 0, 48, 42
2, 237148, Note_on_c, 0, 77, 66
2, 237204, Note_on_c, 0, 48, 0
2, 237304, Note_on_c, 0, 77, 0
2, 237310, Note_on_c, 0, 48, 25
2, 237348, Note_on_c, 0, 72, 40
2, 237538, Note_on_c, 0, 72, 0
2, 237628, Note_on_c, 0, 48, 0
2, 237704, Note_on_c, 0, 74, 46
2, 237764, Note_on_c, 0, 74, 0
2, 238086, Note_on_c, 0, 76, 44
2, 238092, Note_on_c, 0, 67, 35
2, 238156, Note_on_c, 0, 67, 0
2, 238190, Note_on_c, 0, 76, 0
2, 238280, Note_on_c, 0, 50, 68
2, 238446, Note_on_c, 0, 76, 54
2, 238474, Note_on_c, 0, 70, 37
2, 238476, Note_on_c, 0, 50, 0
2, 238590, Note_on_c, 0, 76, 0
2, 238600, Note_on_c, 0, 70, 0
2, 238646, Note_on_c, 0, 50, 52
2, 238672, Note_on_c, 0, 65, 46
2, 238684, Note_on_c, 0, 74, 40
2, 238686, Note_on_c, 0, 70, 25
2, 238754, Note_on_c, 0, 65, 0
2, 238770, Note_on_c, 0, 70, 0
2, 238772, Note_on_c, 0, 74, 0
2, 238786, Note_on_c, 0, 50, 0
2, 238858, Note_on_c, 0, 52, 51
2, 239026, Note_on_c, 0, 74, 43
2, 239032, Note_on_c, 0, 70, 33
2, 239140, Note_on_c, 0, 74, 0
2, 239146, Note_on_c, 0, 70, 0
2, 239180, Note_on_c, 0, 52, 0
2, 239236, Note_on_c, 0, 50, 45
2, 239238, Note_on_c, 0, 72, 43
2, 239258, Note_on_c, 0, 69, 33
2, 239460, Note_on_c, 0, 69, 0
2, 239504, Note_on_c, 0, 72, 0
2, 239538, Note_on_c, 0, 50, 0
2, 239608, Note_on_c, 0, 48, 29
2, 239848, Note_on_c, 0, 77, 64
2, 239852, Note_on_c, 0, 69, 54
2, 239858, Note_on_c, 0, 72, 45
2, 239880, Note_on_c, 0, 55, 30
2, 239890, Note_on_c, 0, 48, 0
2, 239890, Note_on_c, 0, 60, 28
2, 239898, Note_on_c, 0, 72, 0
2, 239910, Note_on_c, 0, 69, 0
2, 239916, Note_on_c, 0, 55, 0
2, 239922, Note_on_c, 0, 77, 0
2, 239944, Note_on_c, 0, 60, 0
2, 240218, Note_on_c, 0, 50, 69
2, 240224, Note_on_c, 0, 72, 46
2, 240232, Note_on_c, 0, 65, 40
2, 240242, Note_on_c, 0, 69, 30
2, 240286, Note_on_c, 0, 69, 0
2, 240302, Note_on_c, 0, 65, 0
2, 240344, Note_on_c, 0, 72, 0
2, 240622, Note_on_c, 0, 74, 52
2, 240648, Note_on_c, 0, 70, 38
2, 240682, Note_on_c, 0, 70, 0
2, 240728, Note_on_c, 0, 74, 0
2, 240760, Note_on_c, 0, 50, 0
2, 240766, Note_on_c, 0, 52, 51
2, 241000, Note_on_c, 0, 76, 50
2, 241000, Note_on_c, 0, 67, 53
2, 241010, Note_on_c, 0, 70, 42
2, 241016, Note_on_c, 0, 72, 31
2, 241056, Note_on_c, 0, 70, 0
2, 241058, Note_on_c, 0, 67, 0
2, 241060, Note_on_c, 0, 72, 0
2, 241086, Note_on_c, 0, 76, 0
2, 241372, Note_on_c, 0, 60, 31
2, 241374, Note_on_c, 0, 58, 33
2, 241380, Note_on_c, 0, 76, 49
2, 241388, Note_on_c, 0, 67, 37
2, 241390, Note_on_c, 0, 72, 36
2, 241410, Note_on_c, 0, 70, 29
2, 241422, Note_on_c, 0, 58, 0
2, 241440, Note_on_c, 0, 60, 0
2, 241442, Note_on_c, 0, 70, 0
2, 241456, Note_on_c, 0, 67, 0
2, 241462, Note_on_c, 0, 72, 0
2, 241502, Note_on_c, 0, 76, 0
2, 241598, Note_on_c, 0, 52, 0
2, 241716, Note_on_c, 0, 50, 62
2, 241760, Note_on_c, 0, 74, 49
2, 241780, Note_on_c, 0, 65, 26
2, 241782, Note_on_c, 0, 70, 28
2, 241816, Note_on_c, 0, 50, 0
2, 241840, Note_on_c, 0, 65, 0
2, 241864, Note_on_c, 0, 74, 0
2, 241890, Note_on_c, 0, 70, 0
2, 241908, Note_on_c, 0, 50, 43
2, 242124, Note_on_c, 0, 70, 36
2, 242132, Note_on_c, 0, 74, 43
2, 242200, Note_on_c, 0, 74, 0
2, 242226, Note_on_c, 0, 50, 0
2, 242246, Note_on_c, 0, 70, 0
2, 242294, Note_on_c, 0, 48, 37
2, 242338, Note_on_c, 0, 72, 44
2, 242340, Note_on_c, 0, 69, 40
2, 242348, Note_on_c, 0, 65, 31
2, 242924, Note_on_c, 0, 57, 32
2, 242926, Note_on_c, 0, 60, 29
2, 242962, Note_on_c, 0, 57, 0
2, 242972, Note_on_c, 0, 60, 0
2, 242990, Note_on_c, 0, 65, 0
2, 243046, Note_on_c, 0, 69, 0
2, 243076, Note_on_c, 0, 72, 0
2, 243232, Note_on_c, 0, 48, 0
2, 243268, Note_on_c, 0, 50, 53
2, 243282, Note_on_c, 0, 72, 65
2, 243362, Note_on_c, 0, 72, 0
2, 243488, Note_on_c, 0, 74, 82
2, 243660, Note_on_c, 0, 74, 0
2, 243740, Note_on_c, 0, 77, 92
2, 243822, Note_on_c, 0, 50, 0
2, 243838, Note_on_c, 0, 52, 53
2, 243940, Note_on_c, 0, 77, 0
2, 244080, Note_on_c, 0, 79, 110
2, 244306, Note_on_c, 0, 79, 0
2, 244436, Note_on_c, 0, 79, 83
2, 244558, Note_on_c, 0, 79, 0
2, 244696, Note_on_c, 0, 82, 80
2, 244830, Note_on_c, 0, 50, 49
2, 244838, Note_on_c, 0, 82, 0
2, 244858, Note_on_c, 0, 52, 0
2, 244958, Note_on_c, 0, 82, 77
2, 245148, Note_on_c, 0, 82, 0
2, 245262, Note_on_c, 0, 81, 67
2, 245310, Note_on_c, 0, 50, 0
2, 245370, Note_on_c, 0, 41, 49
2, 245440, Note_on_c, 0, 81, 0
2, 245520, Note_on_c, 0, 77, 49
2, 245986, Note_on_c, 0, 55, 56
2, 245992, Note_on_c, 0, 57, 46
2, 245992, Note_on_c, 0, 60, 36
2, 246016, Note_on_c, 0, 55, 0
2, 246028, Note_on_c, 0, 57, 0
2, 246034, Note_on_c, 0, 60, 0
2, 246036, Note_on_c, 0, 41, 0
2, 246356, Note_on_c, 0, 48, 54
2, 246358, Note_on_c, 0, 72, 54
2, 246398, Note_on_c, 0, 77, 0
2, 246458, Note_on_c, 0, 72, 0
2, 246584, Note_on_c, 0, 74, 34
2, 246852, Note_on_c, 0, 48, 0
2, 246876, Note_on_c, 0, 74, 0
2, 246886, Note_on_c, 0, 43, 41
2, 246928, Note_on_c, 0, 77, 57
2, 247188, Note_on_c, 0, 77, 0
2, 247280, Note_on_c, 0, 79, 49
2, 247446, Note_on_c, 0, 79, 0
2, 247522, Note_on_c, 0, 53, 34
2, 247524, Note_on_c, 0, 62, 36
2, 247524, Note_on_c, 0, 58, 44
2, 247558, Note_on_c, 0, 53, 0
2, 247562, Note_on_c, 0, 62, 0
2, 247570, Note_on_c, 0, 58, 0
2, 247658, Note_on_c, 0, 79, 42
2, 247684, Note_on_c, 0, 76, 37
2, 247746, Note_on_c, 0, 79, 0
2, 247790, Note_on_c, 0, 76, 0
2, 247856, Note_on_c, 0, 43, 0
2, 247876, Note_on_c, 0, 48, 51
2, 247894, Note_on_c, 0, 82, 68
2, 247924, Note_on_c, 0, 74, 31
2, 247950, Note_on_c, 0, 48, 0
2, 248020, Note_on_c, 0, 74, 0
2, 248046, Note_on_c, 0, 82, 0
2, 248052, Note_on_c, 0, 48, 33
2, 248252, Note_on_c, 0, 81, 64
2, 248270, Note_on_c, 0, 72, 40
2, 248312, Note_on_c, 0, 72, 0
2, 248348, Note_on_c, 0, 81, 0
2, 248390, Note_on_c, 0, 48, 0
2, 248414, Note_on_c, 0, 41, 37
2, 248532, Note_on_c, 0, 84, 62
2, 248538, Note_on_c, 0, 72, 57
2, 248552, Note_on_c, 0, 81, 44
2, 248554, Note_on_c, 0, 77, 39
2, 249056, Note_on_c, 0, 55, 38
2, 249058, Note_on_c, 0, 57, 41
2, 249060, Note_on_c, 0, 60, 31
2, 249090, Note_on_c, 0, 57, 0
2, 249090, Note_on_c, 0, 55, 0
2, 249096, Note_on_c, 0, 60, 0
2, 249378, Note_on_c, 0, 41, 0
2, 249402, Note_on_c, 0, 48, 48
2, 249512, Note_on_c, 0, 48, 0
2, 249594, Note_on_c, 0, 48, 42
2, 249732, Note_on_c, 0, 72, 0
2, 249764, Note_on_c, 0, 81, 0
2, 249820, Note_on_c, 0, 77, 0
2, 249908, Note_on_c, 0, 84, 0
2, 249946, Note_on_c, 0, 48, 0
2, 249954, Note_on_c, 0, 43, 33
2, 250010, Note_on_c, 0, 82, 31
2, 250014, Note_on_c, 0, 74, 17
2, 250024, Note_on_c, 0, 77, 37
2, 250120, Note_on_c, 0, 77, 0
2, 250128, Note_on_c, 0, 74, 0
2, 250180, Note_on_c, 0, 82, 0
2, 250574, Note_on_c, 0, 89, 71
2, 250586, Note_on_c, 0, 82, 46
2, 250598, Note_on_c, 0, 55, 49
2, 250598, Note_on_c, 0, 58, 44
2, 250602, Note_on_c, 0, 60, 33
2, 250630, Note_on_c, 0, 55, 0
2, 250638, Note_on_c, 0, 60, 0
2, 250648, Note_on_c, 0, 58, 0
2, 250702, Note_on_c, 0, 89, 0
2, 250738, Note_on_c, 0, 82, 0
2, 250794, Note_on_c, 0, 86, 60
2, 250794, Note_on_c, 0, 82, 21
2, 250808, Note_on_c, 0, 77, 45
2, 250872, Note_on_c, 0, 43, 0
2, 250898, Note_on_c, 0, 82, 0
2, 250918, Note_on_c, 0, 77, 0
2, 250920, Note_on_c, 0, 86, 0
2, 250932, Note_on_c, 0, 50, 71
2, 251042, Note_on_c, 0, 50, 0
2, 251130, Note_on_c, 0, 88, 66
2, 251142, Note_on_c, 0, 76, 61
2, 251150, Note_on_c, 0, 48, 55
2, 251266, Note_on_c, 0, 88, 0
2, 251346, Note_on_c, 0, 76, 0
2, 251498, Note_on_c, 0, 48, 0
2, 251510, Note_on_c, 0, 41, 49
2, 251512, Note_on_c, 0, 86, 53
2, 251518, Note_on_c, 0, 82, 50
2, 251566, Note_on_c, 0, 76, 18
2, 251636, Note_on_c, 0, 86, 0
2, 251658, Note_on_c, 0, 76, 0
2, 251762, Note_on_c, 0, 82, 0
2, 251894, Note_on_c, 0, 84, 49
2, 251910, Note_on_c, 0, 77, 45
2, 251922, Note_on_c, 0, 72, 38
2, 252068, Note_on_c, 0, 72, 0
2, 252078, Note_on_c, 0, 84, 0
2, 252114, Note_on_c, 0, 77, 0
2, 252130, Note_on_c, 0, 81, 53
2, 252134, Note_on_c, 0, 55, 42
2, 252136, Note_on_c, 0, 60, 33
2, 252146, Note_on_c, 0, 57, 29
2, 252168, Note_on_c, 0, 55, 0
2, 252180, Note_on_c, 0, 57, 0
2, 252184, Note_on_c, 0, 60, 0
2, 252202, Note_on_c, 0, 81, 0
2, 252484, Note_on_c, 0, 48, 43
2, 252484, Note_on_c, 0, 77, 60
2, 252500, Note_on_c, 0, 69, 47
2, 252504, Note_on_c, 0, 72, 53
2, 252554, Note_on_c, 0, 48, 0
2, 252574, Note_on_c, 0, 69, 0
2, 252610, Note_on_c, 0, 72, 0
2, 252662, Note_on_c, 0, 77, 0
2, 252676, Note_on_c, 0, 48, 35
2, 252692, Note_on_c, 0, 41, 0
2, 252886, Note_on_c, 0, 72, 59
2, 252904, Note_on_c, 0, 69, 41
2, 252954, Note_on_c, 0, 69, 0
2, 252998, Note_on_c, 0, 72, 0
2, 253004, Note_on_c, 0, 48, 0
2, 253030, Note_on_c, 0, 43, 30
2, 253282, Note_on_c, 0, 72, 28
2, 253288, Note_on_c, 0, 69, 20
2, 253330, Note_on_c, 0, 69, 0
2, 253342, Note_on_c, 0, 72, 0
2, 253662, Note_on_c, 0, 58, 52
2, 253666, Note_on_c, 0, 62, 37
2, 253674, Note_on_c, 0, 76, 60
2, 253678, Note_on_c, 0, 53, 25
2, 253680, Note_on_c, 0, 70, 46
2, 253712, Note_on_c, 0, 53, 0
2, 253712, Note_on_c, 0, 62, 0
2, 253728, Note_on_c, 0, 58, 0
2, 253764, Note_on_c, 0, 76, 0
2, 253782, Note_on_c, 0, 70, 0
2, 253968, Note_on_c, 0, 43, 0
2, 253990, Note_on_c, 0, 50, 74
2, 254044, Note_on_c, 0, 74, 51
2, 254048, Note_on_c, 0, 70, 37
2, 254052, Note_on_c, 0, 65, 43
2, 254108, Note_on_c, 0, 65, 0
2, 254130, Note_on_c, 0, 50, 0
2, 254146, Note_on_c, 0, 70, 0
2, 254146, Note_on_c, 0, 74, 0
2, 254192, Note_on_c, 0, 48, 41
2, 254400, Note_on_c, 0, 74, 48
2, 254408, Note_on_c, 0, 70, 42
2, 254484, Note_on_c, 0, 74, 0
2, 254518, Note_on_c, 0, 70, 0
2, 254564, Note_on_c, 0, 41, 38
2, 254566, Note_on_c, 0, 48, 0
2, 254596, Note_on_c, 0, 72, 43
2, 254622, Note_on_c, 0, 69, 32
2, 254754, Note_on_c, 0, 69, 0
2, 254784, Note_on_c, 0, 72, 0
2, 255162, Note_on_c, 0, 84, 39
2, 255170, Note_on_c, 0, 72, 46
2, 255212, Note_on_c, 0, 55, 53
2, 255218, Note_on_c, 0, 60, 35
2, 255218, Note_on_c, 0, 57, 40
2, 255224, Note_on_c, 0, 84, 0
2, 255244, Note_on_c, 0, 55, 0
2, 255254, Note_on_c, 0, 57, 0
2, 255262, Note_on_c, 0, 60, 0
2, 255344, Note_on_c, 0, 72, 0
2, 255352, Note_on_c, 0, 74, 53
2, 255364, Note_on_c, 0, 86, 40
2, 255420, Note_on_c, 0, 86, 0
2, 255516, Note_on_c, 0, 41, 0
2, 255550, Note_on_c, 0, 74, 0
2, 255558, Note_on_c, 0, 76, 60
2, 255568, Note_on_c, 0, 88, 70
2, 255584, Note_on_c, 0, 48, 59
2, 255656, Note_on_c, 0, 76, 0
2, 255662, Note_on_c, 0, 88, 0
2, 255664, Note_on_c, 0, 48, 0
2, 255742, Note_on_c, 0, 77, 72
2, 255748, Note_on_c, 0, 89, 94
2, 255948, Note_on_c, 0, 48, 48
2, 256054, Note_on_c, 0, 89, 0
2, 256062, Note_on_c, 0, 77, 0
2, 256084, Note_on_c, 0, 48, 0
2, 256140, Note_on_c, 0, 43, 46
2, 256146, Note_on_c, 0, 74, 41
2, 256152, Note_on_c, 0, 86, 40
2, 256196, Note_on_c, 0, 86, 0
2, 256216, Note_on_c, 0, 74, 0
2, 256352, Note_on_c, 0, 88, 92
2, 256362, Note_on_c, 0, 76, 76
2, 256546, Note_on_c, 0, 88, 0
2, 256586, Note_on_c, 0, 76, 0
2, 256740, Note_on_c, 0, 62, 46
2, 256750, Note_on_c, 0, 58, 34
2, 256754, Note_on_c, 0, 84, 78
2, 256762, Note_on_c, 0, 72, 74
2, 256788, Note_on_c, 0, 62, 0
2, 256816, Note_on_c, 0, 58, 0
2, 256894, Note_on_c, 0, 84, 0
2, 256982, Note_on_c, 0, 72, 0
2, 257080, Note_on_c, 0, 48, 48
2, 257132, Note_on_c, 0, 86, 90
2, 257150, Note_on_c, 0, 74, 74
2, 257156, Note_on_c, 0, 48, 0
2, 257264, Note_on_c, 0, 43, 0
2, 257284, Note_on_c, 0, 48, 39
2, 257408, Note_on_c, 0, 86, 0
2, 257430, Note_on_c, 0, 74, 0
2, 257504, Note_on_c, 0, 70, 45
2, 257516, Note_on_c, 0, 82, 29
2, 257604, Note_on_c, 0, 48, 0
2, 257614, Note_on_c, 0, 82, 0
2, 257642, Note_on_c, 0, 41, 44
2, 257658, Note_on_c, 0, 70, 0
2, 257708, Note_on_c, 0, 84, 58
2, 257712, Note_on_c, 0, 72, 55
2, 258244, Note_on_c, 0, 84, 0
2, 258250, Note_on_c, 0, 72, 0
2, 258272, Note_on_c, 0, 69, 46
2, 258288, Note_on_c, 0, 60, 29
2, 258328, Note_on_c, 0, 60, 0
2, 258424, Note_on_c, 0, 82, 48
2, 258448, Note_on_c, 0, 69, 0
2, 258454, Note_on_c, 0, 70, 27
2, 258496, Note_on_c, 0, 82, 0
2, 258598, Note_on_c, 0, 70, 0
2, 258632, Note_on_c, 0, 48, 47
2, 258636, Note_on_c, 0, 84, 68
2, 258650, Note_on_c, 0, 72, 57
2, 258690, Note_on_c, 0, 84, 0
2, 258708, Note_on_c, 0, 48, 0
2, 258780, Note_on_c, 0, 72, 0
2, 258834, Note_on_c, 0, 48, 33
2, 258836, Note_on_c, 0, 86, 108
2, 258846, Note_on_c, 0, 74, 81
2, 258920, Note_on_c, 0, 41, 0
2, 258932, Note_on_c, 0, 86, 0
2, 258956, Note_on_c, 0, 74, 0
2, 259028, Note_on_c, 0, 74, 61
2, 259038, Note_on_c, 0, 86, 84
2, 259124, Note_on_c, 0, 48, 0
2, 259166, Note_on_c, 0, 86, 0
2, 259178, Note_on_c, 0, 74, 0
2, 259190, Note_on_c, 0, 43, 42
2, 259222, Note_on_c, 0, 70, 39
2, 259232, Note_on_c, 0, 82, 42
2, 259366, Note_on_c, 0, 82, 0
2, 259424, Note_on_c, 0, 84, 90
2, 259428, Note_on_c, 0, 72, 73
2, 259434, Note_on_c, 0, 70, 0
2, 259784, Note_on_c, 0, 84, 0
2, 259796, Note_on_c, 0, 72, 0
2, 259800, Note_on_c, 0, 69, 44
2, 259804, Note_on_c, 0, 81, 53
2, 259804, Note_on_c, 0, 58, 50
2, 259812, Note_on_c, 0, 62, 40
2, 259826, Note_on_c, 0, 53, 30
2, 259860, Note_on_c, 0, 62, 0
2, 259862, Note_on_c, 0, 53, 0
2, 259878, Note_on_c, 0, 58, 0
2, 260044, Note_on_c, 0, 81, 0
2, 260110, Note_on_c, 0, 69, 0
2, 260160, Note_on_c, 0, 82, 64
2, 260178, Note_on_c, 0, 70, 56
2, 260304, Note_on_c, 0, 43, 0
2, 260336, Note_on_c, 0, 48, 55
2, 260448, Note_on_c, 0, 48, 0
2, 260472, Note_on_c, 0, 82, 0
2, 260496, Note_on_c, 0, 70, 0
2, 260556, Note_on_c, 0, 67, 36
2, 260564, Note_on_c, 0, 40, 53
2, 260586, Note_on_c, 0, 79, 31
2, 260648, Note_on_c, 0, 79, 0
2, 260660, Note_on_c, 0, 67, 0
2, 260772, Note_on_c, 0, 69, 47
2, 260778, Note_on_c, 0, 81, 61
2, 261048, Note_on_c, 0, 40, 0
2, 261106, Note_on_c, 0, 41, 39
2, 261310, Note_on_c, 0, 69, 0
2, 261336, Note_on_c, 0, 77, 34
2, 261336, Note_on_c, 0, 65, 42
2, 261338, Note_on_c, 0, 81, 0
2, 261368, Note_on_c, 0, 55, 46
2, 261378, Note_on_c, 0, 57, 35
2, 261384, Note_on_c, 0, 77, 0
2, 261386, Note_on_c, 0, 60, 27
2, 261400, Note_on_c, 0, 55, 0
2, 261414, Note_on_c, 0, 57, 0
2, 261428, Note_on_c, 0, 60, 0
2, 261438, Note_on_c, 0, 65, 0
2, 261510, Note_on_c, 0, 67, 61
2, 261524, Note_on_c, 0, 79, 42
2, 261560, Note_on_c, 0, 79, 0
2, 261630, Note_on_c, 0, 67, 0
2, 261726, Note_on_c, 0, 48, 56
2, 261740, Note_on_c, 0, 41, 0
2, 261742, Note_on_c, 0, 81, 96
2, 261756, Note_on_c, 0, 69, 82
2, 261848, Note_on_c, 0, 48, 0
2, 262070, Note_on_c, 0, 48, 42
2, 262104, Note_on_c, 0, 81, 0
2, 262110, Note_on_c, 0, 69, 0
2, 262120, Note_on_c, 0, 65, 66
2, 262124, Note_on_c, 0, 77, 68
2, 262190, Note_on_c, 0, 48, 0
2, 262264, Note_on_c, 0, 43, 42
2, 262300, Note_on_c, 0, 77, 0
2, 262462, Note_on_c, 0, 65, 0
2, 262490, Note_on_c, 0, 79, 108
2, 262498, Note_on_c, 0, 67, 83
2, 262624, Note_on_c, 0, 67, 0
2, 262642, Note_on_c, 0, 79, 0
2, 262706, Note_on_c, 0, 67, 63
2, 262718, Note_on_c, 0, 79, 90
2, 262872, Note_on_c, 0, 79, 0
2, 262874, Note_on_c, 0, 62, 44
2, 262876, Note_on_c, 0, 58, 43
2, 262882, Note_on_c, 0, 53, 28
2, 262914, Note_on_c, 0, 58, 0
2, 262916, Note_on_c, 0, 53, 0
2, 262918, Note_on_c, 0, 62, 0
2, 263008, Note_on_c, 0, 67, 0
2, 263056, Note_on_c, 0, 76, 56
2, 263062, Note_on_c, 0, 64, 30
2, 263180, Note_on_c, 0, 43, 0
2, 263212, Note_on_c, 0, 43, 18
2, 263238, Note_on_c, 0, 76, 0
2, 263286, Note_on_c, 0, 74, 62
2, 263294, Note_on_c, 0, 64, 0
2, 263298, Note_on_c, 0, 62, 40
2, 263392, Note_on_c, 0, 74, 0
2, 263394, Note_on_c, 0, 62, 0
2, 263402, Note_on_c, 0, 43, 0
2, 263444, Note_on_c, 0, 48, 45
2, 263654, Note_on_c, 0, 72, 49
2, 263686, Note_on_c, 0, 60, 29
2, 263690, Note_on_c, 0, 41, 53
2, 263704, Note_on_c, 0, 48, 0
2, 263740, Note_on_c, 0, 60, 0
2, 263756, Note_on_c, 0, 72, 0
2, 263904, Note_on_c, 0, 72, 49
2, 263914, Note_on_c, 0, 60, 30
2, 264430, Note_on_c, 0, 55, 51
2, 264438, Note_on_c, 0, 57, 37
2, 264456, Note_on_c, 0, 60, 20
2, 264462, Note_on_c, 0, 55, 0
2, 264474, Note_on_c, 0, 57, 0
2, 264490, Note_on_c, 0, 60, 0
2, 264766, Note_on_c, 0, 48, 48
2, 264862, Note_on_c, 0, 48, 0
2, 264910, Note_on_c, 0, 41, 0
2, 264948, Note_on_c, 0, 48, 37
2, 265004, Note_on_c, 0, 72, 0
2, 265006, Note_on_c, 0, 60, 0
2, 265280, Note_on_c, 0, 48, 0
2, 265334, Note_on_c, 0, 43, 39
2, 265964, Note_on_c, 0, 60, 34
2, 265970, Note_on_c, 0, 53, 28
2, 265972, Note_on_c, 0, 58, 31
2, 266004, Note_on_c, 0, 53, 0
2, 266010, Note_on_c, 0, 58, 0
2, 266020, Note_on_c, 0, 60, 0
2, 266296, Note_on_c, 0, 48, 47
2, 266386, Note_on_c, 0, 48, 0
2, 266478, Note_on_c, 0, 48, 38
2, 266516, Note_on_c, 0, 71, 79
2, 266516, Note_on_c, 0, 83, 95
2, 266528, Note_on_c, 0, 43, 0
2, 266696, Note_on_c, 0, 71, 0
2, 266700, Note_on_c, 0, 70, 51
2, 266728, Note_on_c, 0, 82, 50
2, 266770, Note_on_c, 0, 83, 0
2, 266810, Note_on_c, 0, 80, 44
2, 266816, Note_on_c, 0, 70, 0
2, 266836, Note_on_c, 0, 82, 0
2, 266852, Note_on_c, 0, 48, 0
2, 266860, Note_on_c, 0, 41, 39
2, 266914, Note_on_c, 0, 80, 0
2, 266914, Note_on_c, 0, 77, 53
2, 266956, Note_on_c, 0, 65, 22
2, 267072, Note_on_c, 0, 65, 0
2, 267088, Note_on_c, 0, 77, 0
2, 267154, Note_on_c, 0, 77, 41
2, 267180, Note_on_c, 0, 65, 47
2, 267486, Note_on_c, 0, 65, 0
2, 267510, Note_on_c, 0, 57, 32
2, 267516, Note_on_c, 0, 60, 27
2, 267546, Note_on_c, 0, 57, 0
2, 267560, Note_on_c, 0, 60, 0
2, 267576, Note_on_c, 0, 77, 0
2, 267646, Note_on_c, 0, 75, 42
2, 267688, Note_on_c, 0, 63, 20
2, 267824, Note_on_c, 0, 75, 0
2, 267866, Note_on_c, 0, 48, 53
2, 267872, Note_on_c, 0, 63, 0
2, 267906, Note_on_c, 0, 77, 24
2, 267938, Note_on_c, 0, 65, 36
2, 267972, Note_on_c, 0, 48, 0
2, 267992, Note_on_c, 0, 65, 0
2, 268000, Note_on_c, 0, 77, 0
2, 268232, Note_on_c, 0, 41, 0
2, 268238, Note_on_c, 0, 48, 45
2, 268344, Note_on_c, 0, 48, 0
2, 268414, Note_on_c, 0, 43, 37
2, 268778, Note_on_c, 0, 83, 60
2, 268814, Note_on_c, 0, 84, 66
2, 268832, Note_on_c, 0, 72, 49
2, 268836, Note_on_c, 0, 83, 0
2, 268842, Note_on_c, 0, 71, 36
2, 268880, Note_on_c, 0, 71, 0
2, 268922, Note_on_c, 0, 84, 0
2, 268928, Note_on_c, 0, 72, 0
2, 269030, Note_on_c, 0, 87, 83
2, 269032, Note_on_c, 0, 53, 45
2, 269038, Note_on_c, 0, 58, 43
2, 269040, Note_on_c, 0, 75, 78
2, 269042, Note_on_c, 0, 60, 32
2, 269066, Note_on_c, 0, 53, 0
2, 269080, Note_on_c, 0, 58, 0
2, 269088, Note_on_c, 0, 60, 0
2, 269102, Note_on_c, 0, 75, 0
2, 269116, Note_on_c, 0, 87, 0
2, 269376, Note_on_c, 0, 48, 49
2, 269444, Note_on_c, 0, 84, 99
2, 269452, Note_on_c, 0, 72, 77
2, 269456, Note_on_c, 0, 48, 0
2, 269558, Note_on_c, 0, 48, 36
2, 269576, Note_on_c, 0, 43, 0
2, 269686, Note_on_c, 0, 83, 42
2, 269706, Note_on_c, 0, 84, 0
2, 269728, Note_on_c, 0, 72, 0
2, 269742, Note_on_c, 0, 83, 0
2, 269744, Note_on_c, 0, 82, 43
2, 269838, Note_on_c, 0, 80, 36
2, 269910, Note_on_c, 0, 48, 0
2, 269920, Note_on_c, 0, 82, 0
2, 269948, Note_on_c, 0, 80, 0
2, 269950, Note_on_c, 0, 77, 42
2, 269952, Note_on_c, 0, 41, 36
2, 270020, Note_on_c, 0, 65, 25
2, 270136, Note_on_c, 0, 65, 0
2, 270146, Note_on_c, 0, 77, 0
2, 270234, Note_on_c, 0, 77, 37
2, 270248, Note_on_c, 0, 65, 29
2, 270304, Note_on_c, 0, 77, 0
2, 270320, Note_on_c, 0, 65, 0
2, 270572, Note_on_c, 0, 55, 47
2, 270580, Note_on_c, 0, 60, 30
2, 270594, Note_on_c, 0, 57, 22
2, 270604, Note_on_c, 0, 55, 0
2, 270622, Note_on_c, 0, 60, 0
2, 270626, Note_on_c, 0, 57, 0
2, 270916, Note_on_c, 0, 48, 49
2, 270980, Note_on_c, 0, 60, 20
2, 271000, Note_on_c, 0, 48, 0
2, 271026, Note_on_c, 0, 60, 0
2, 271140, Note_on_c, 0, 97, 69
2, 271146, Note_on_c, 0, 85, 67
2, 271152, Note_on_c, 0, 61, 74
2, 271294, Note_on_c, 0, 41, 0
2, 271298, Note_on_c, 0, 48, 42
2, 271308, Note_on_c, 0, 85, 0
2, 271400, Note_on_c, 0, 85, 28
2, 271470, Note_on_c, 0, 43, 34
2, 271480, Note_on_c, 0, 48, 0
2, 272084, Note_on_c, 0, 55, 37
2, 272086, Note_on_c, 0, 60, 33
2, 272090, Note_on_c, 0, 85, 0
2, 272096, Note_on_c, 0, 57, 28
2, 272110, Note_on_c, 0, 97, 0
2, 272116, Note_on_c, 0, 55, 0
2, 272124, Note_on_c, 0, 84, 44
2, 272126, Note_on_c, 0, 60, 0
2, 272126, Note_on_c, 0, 96, 54
2, 272128, Note_on_c, 0, 57, 0
2, 272136, Note_on_c, 0, 61, 0
2, 272136, Note_on_c, 0, 60, 31
2, 272396, Note_on_c, 0, 96, 0
2, 272412, Note_on_c, 0, 84, 0
2, 272452, Note_on_c, 0, 43, 0
2, 272452, Note_on_c, 0, 48, 47
2, 272494, Note_on_c, 0, 83, 46
2, 272508, Note_on_c, 0, 59, 51
2, 272510, Note_on_c, 0, 60, 0
2, 272522, Note_on_c, 0, 95, 30
2, 272532, Note_on_c, 0, 48, 0
2, 272622, Note_on_c, 0, 48, 37
2, 272648, Note_on_c, 0, 95, 0
2, 272658, Note_on_c, 0, 83, 0
2, 272766, Note_on_c, 0, 59, 0
2, 272776, Note_on_c, 0, 60, 39
2, 272796, Note_on_c, 0, 96, 45
2, 272816, Note_on_c, 0, 84, 34
2, 272878, Note_on_c, 0, 96, 0
2, 272928, Note_on_c, 0, 84, 0
2, 272978, Note_on_c, 0, 48, 0
2, 273010, Note_on_c, 0, 41, 45
2, 273172, Note_on_c, 0, 53, 38
2, 273172, Note_on_c, 0, 91, 24
2, 273222, Note_on_c, 0, 91, 0
2, 273296, Note_on_c, 0, 89, 10
2, 273374, Note_on_c, 0, 53, 0
2, 273376, Note_on_c, 0, 89, 0
2, 273380, Note_on_c, 0, 60, 0
2, 274008, Note_on_c, 0, 97, 55
2, 274016, Note_on_c, 0, 61, 64
2, 274026, Note_on_c, 0, 85, 48
2, 274026, Note_on_c, 0, 48, 20
2, 274058, Note_on_c, 0, 48, 0
2, 274132, Note_on_c, 0, 41, 0
2, 274242, Note_on_c, 0, 97, 0
2, 274244, Note_on_c, 0, 85, 0
2, 274348, Note_on_c, 0, 61, 0
2, 274356, Note_on_c, 0, 48, 39
2, 274382, Note_on_c, 0, 83, 53
2, 274398, Note_on_c, 0, 59, 40
2, 274448, Note_on_c, 0, 48, 0
2, 274468, Note_on_c, 0, 83, 0
2, 274542, Note_on_c, 0, 59, 0
2, 274552, Note_on_c, 0, 43, 28
2, 274580, Note_on_c, 0, 60, 37
2, 274592, Note_on_c, 0, 96, 43
2, 274626, Note_on_c, 0, 84, 13
2, 275148, Note_on_c, 0, 60, 31
2, 275148, Note_on_c, 0, 53, 37
2, 275156, Note_on_c, 0, 58, 34
2, 275190, Note_on_c, 0, 53, 0
2, 275204, Note_on_c, 0, 58, 0
2, 275216, Note_on_c, 0, 60, 0
2, 275392, Note_on_c, 0, 96, 0
2, 275414, Note_on_c, 0, 84, 0
2, 275490, Note_on_c, 0, 43, 0
2, 275494, Note_on_c, 0, 48, 33
2, 275510, Note_on_c, 0, 94, 70
2, 275516, Note_on_c, 0, 60, 0
2, 275520, Note_on_c, 0, 58, 56
2, 275566, Note_on_c, 0, 48, 0
2, 275680, Note_on_c, 0, 94, 0
2, 275688, Note_on_c, 0, 48, 24
2, 275746, Note_on_c, 0, 58, 0
2, 275754, Note_on_c, 0, 92, 35
2, 275772, Note_on_c, 0, 56, 27
2, 275880, Note_on_c, 0, 92, 0
2, 275910, Note_on_c, 0, 56, 0
2, 275924, Note_on_c, 0, 93, 71
2, 275934, Note_on_c, 0, 57, 42
2, 276044, Note_on_c, 0, 48, 0
2, 276056, Note_on_c, 0, 93, 0
2, 276116, Note_on_c, 0, 57, 0
2, 276136, Note_on_c, 0, 52, 38
2, 276138, Note_on_c, 0, 48, 18
2, 276140, Note_on_c, 0, 88, 26
2, 276270, Note_on_c, 0, 88, 0
2, 276300, Note_on_c, 0, 52, 0
2, 276314, Note_on_c, 0, 91, 61
2, 276336, Note_on_c, 0, 55, 50
2, 276432, Note_on_c, 0, 91, 0
2, 276452, Note_on_c, 0, 55, 0
2, 276504, Note_on_c, 0, 89, 37
2, 276518, Note_on_c, 0, 53, 33
2, 276820, Note_on_c, 0, 53, 0
2, 276838, Note_on_c, 0, 48, 23
2, 276868, Note_on_c, 0, 84, 34
2, 276966, Note_on_c, 0, 84, 0
2, 276976, Note_on_c, 0, 48, 0
2, 276986, Note_on_c, 0, 48, 0
2, 277016, Note_on_c, 0, 50, 62
2, 277038, Note_on_c, 0, 89, 0
2, 277080, Note_on_c, 0, 84, 40
2, 277104, Note_on_c, 0, 48, 15
2, 277122, Note_on_c, 0, 84, 0
2, 277142, Note_on_c, 0, 48, 0
2, 277576, Note_on_c, 0, 50, 0
2, 277608, Note_on_c, 0, 52, 40
2, 278240, Note_on_c, 0, 60, 32
2, 278288, Note_on_c, 0, 60, 0
2, 278580, Note_on_c, 0, 52, 0
2, 278586, Note_on_c, 0, 50, 51
2, 279170, Note_on_c, 0, 50, 0
2, 279172, Note_on_c, 0, 48, 41
2, 279182, Note_on_c, 0, 94, 53
2, 279184, Note_on_c, 0, 70, 33
2, 279390, Note_on_c, 0, 98, 48
2, 279400, Note_on_c, 0, 70, 0
2, 279478, Note_on_c, 0, 94, 0
2, 279482, Note_on_c, 0, 98, 0
2, 279562, Note_on_c, 0, 72, 37
2, 279600, Note_on_c, 0, 96, 36
2, 279766, Note_on_c, 0, 60, 32
2, 279774, Note_on_c, 0, 96, 0
2, 279778, Note_on_c, 0, 57, 32
2, 279796, Note_on_c, 0, 93, 38
2, 279798, Note_on_c, 0, 72, 0
2, 279810, Note_on_c, 0, 69, 32
2, 279822, Note_on_c, 0, 57, 0
2, 279834, Note_on_c, 0, 93, 0
2, 279850, Note_on_c, 0, 60, 0
2, 279858, Note_on_c, 0, 69, 0
2, 280096, Note_on_c, 0, 48, 0
2, 280110, Note_on_c, 0, 50, 53
2, 280150, Note_on_c, 0, 93, 49
2, 280152, Note_on_c, 0, 69, 48
2, 280208, Note_on_c, 0, 93, 0
2, 280210, Note_on_c, 0, 69, 0
2, 280530, Note_on_c, 0, 72, 33
2, 280544, Note_on_c, 0, 96, 32
2, 280636, Note_on_c, 0, 72, 0
2, 280638, Note_on_c, 0, 96, 0
2, 280680, Note_on_c, 0, 50, 0
2, 280684, Note_on_c, 0, 52, 55
2, 280720, Note_on_c, 0, 69, 27
2, 280746, Note_on_c, 0, 93, 33
2, 280860, Note_on_c, 0, 93, 0
2, 280874, Note_on_c, 0, 69, 0
2, 280940, Note_on_c, 0, 94, 51
2, 280956, Note_on_c, 0, 70, 40
2, 281252, Note_on_c, 0, 94, 0
2, 281274, Note_on_c, 0, 70, 0
2, 281282, Note_on_c, 0, 98, 46
2, 281284, Note_on_c, 0, 74, 47
2, 281292, Note_on_c, 0, 58, 37
2, 281300, Note_on_c, 0, 60, 26
2, 281304, Note_on_c, 0, 55, 31
2, 281342, Note_on_c, 0, 55, 0
2, 281346, Note_on_c, 0, 58, 0
2, 281350, Note_on_c, 0, 60, 0
2, 281366, Note_on_c, 0, 98, 0
2, 281388, Note_on_c, 0, 74, 0
2, 281618, Note_on_c, 0, 52, 0
2, 281660, Note_on_c, 0, 50, 54
2, 281666, Note_on_c, 0, 98, 50
2, 281672, Note_on_c, 0, 74, 29
2, 281750, Note_on_c, 0, 74, 0
2, 281780, Note_on_c, 0, 98, 0
2, 281876, Note_on_c, 0, 94, 49
2, 282182, Note_on_c, 0, 50, 0
2, 282198, Note_on_c, 0, 94, 0
2, 282202, Note_on_c, 0, 48, 36
2, 282224, Note_on_c, 0, 67, 40
2, 282256, Note_on_c, 0, 91, 30
2, 282496, Note_on_c, 0, 91, 0
2, 282566, Note_on_c, 0, 67, 0
2, 282612, Note_on_c, 0, 96, 48
2, 282630, Note_on_c, 0, 72, 42
2, 282844, Note_on_c, 0, 55, 25
2, 282846, Note_on_c, 0, 57, 31
2, 282876, Note_on_c, 0, 55, 0
2, 282886, Note_on_c, 0, 57, 0
2, 282896, Note_on_c, 0, 96, 0
2, 282922, Note_on_c, 0, 72, 0
2, 283004, Note_on_c, 0, 69, 36
2, 283014, Note_on_c, 0, 93, 38
2, 283148, Note_on_c, 0, 93, 0
2, 283166, Note_on_c, 0, 69, 0
2, 283180, Note_on_c, 0, 48, 0
2, 283192, Note_on_c, 0, 50, 44
2, 283220, Note_on_c, 0, 65, 41
2, 283238, Note_on_c, 0, 89, 30
2, 283386, Note_on_c, 0, 65, 0
2, 283478, Note_on_c, 0, 89, 0
2, 283626, Note_on_c, 0, 94, 45
2, 283650, Note_on_c, 0, 70, 28
2, 283750, Note_on_c, 0, 50, 0
2, 283762, Note_on_c, 0, 52, 48
2, 283786, Note_on_c, 0, 70, 0
2, 283884, Note_on_c, 0, 94, 0
2, 283984, Note_on_c, 0, 91, 41
2, 284012, Note_on_c, 0, 67, 33
2, 284188, Note_on_c, 0, 67, 0
2, 284264, Note_on_c, 0, 91, 0
2, 284352, Note_on_c, 0, 58, 48
2, 284368, Note_on_c, 0, 88, 36
2, 284370, Note_on_c, 0, 60, 29
2, 284376, Note_on_c, 0, 64, 31
2, 284420, Note_on_c, 0, 60, 0
2, 284424, Note_on_c, 0, 58, 0
2, 284472, Note_on_c, 0, 88, 0
2, 284500, Note_on_c, 0, 64, 0
2, 284536, Note_on_c, 0, 58, 51
2, 284542, Note_on_c, 0, 60, 28
2, 284622, Note_on_c, 0, 58, 0
2, 284628, Note_on_c, 0, 60, 0
2, 284756, Note_on_c, 0, 50, 71
2, 284758, Note_on_c, 0, 94, 53
2, 284762, Note_on_c, 0, 70, 50
2, 284802, Note_on_c, 0, 52, 0
2, 284874, Note_on_c, 0, 50, 0
2, 284890, Note_on_c, 0, 70, 0
2, 284892, Note_on_c, 0, 94, 0
2, 284948, Note_on_c, 0, 50, 61
2, 284962, Note_on_c, 0, 91, 37
2, 284982, Note_on_c, 0, 67, 33
2, 285272, Note_on_c, 0, 50, 0
2, 285322, Note_on_c, 0, 48, 33
2, 285324, Note_on_c, 0, 67, 0
2, 285330, Note_on_c, 0, 91, 0
2, 285340, Note_on_c, 0, 69, 55
2, 285344, Note_on_c, 0, 93, 64
2, 285924, Note_on_c, 0, 57, 26
2, 285972, Note_on_c, 0, 57, 0
2, 286254, Note_on_c, 0, 50, 64
2, 286294, Note_on_c, 0, 48, 0
2, 286358, Note_on_c, 0, 50, 0
2, 286430, Note_on_c, 0, 50, 65
2, 286790, Note_on_c, 0, 50, 0
2, 286816, Note_on_c, 0, 52, 54
2, 286818, Note_on_c, 0, 69, 0
2, 286850, Note_on_c, 0, 65, 34
2, 286854, Note_on_c, 0, 89, 41
2, 286872, Note_on_c, 0, 93, 0
2, 287176, Note_on_c, 0, 65, 0
2, 287212, Note_on_c, 0, 89, 0
2, 287226, Note_on_c, 0, 58, 43
2, 287232, Note_on_c, 0, 60, 32
2, 287236, Note_on_c, 0, 67, 24
2, 287236, Note_on_c, 0, 91, 42
2, 287274, Note_on_c, 0, 58, 0
2, 287276, Note_on_c, 0, 60, 0
2, 287396, Note_on_c, 0, 67, 0
2, 287404, Note_on_c, 0, 91, 0
2, 287442, Note_on_c, 0, 58, 45
2, 287458, Note_on_c, 0, 60, 30
2, 287500, Note_on_c, 0, 60, 0
2, 287512, Note_on_c, 0, 58, 0
2, 287586, Note_on_c, 0, 91, 48
2, 287616, Note_on_c, 0, 67, 31
2, 287714, Note_on_c, 0, 52, 0
2, 287764, Note_on_c, 0, 91, 0
2, 287794, Note_on_c, 0, 67, 0
2, 287812, Note_on_c, 0, 50, 69
2, 287832, Note_on_c, 0, 88, 40
2, 287856, Note_on_c, 0, 64, 26
2, 287930, Note_on_c, 0, 50, 0
2, 287934, Note_on_c, 0, 88, 0
2, 287958, Note_on_c, 0, 64, 0
2, 288004, Note_on_c, 0, 50, 61
2, 288198, Note_on_c, 0, 64, 30
2, 288226, Note_on_c, 0, 88, 28
2, 288308, Note_on_c, 0, 50, 0
2, 288344, Note_on_c, 0, 88, 0
2, 288358, Note_on_c, 0, 64, 0
2, 288364, Note_on_c, 0, 48, 38
2, 288404, Note_on_c, 0, 65, 44
2, 288424, Note_on_c, 0, 89, 45
2, 289280, Note_on_c, 0, 65, 0
2, 289324, Note_on_c, 0, 48, 0
2, 289384, Note_on_c, 0, 89, 0
2, 289384, End_track
3, 0, Start_track
3, 0, Title_t, "Bass"
3, 0, Program_c, 1, 32
3, 0, Control_c, 1, 7, 109
3, 56, Note_on_c, 1, 48, 81
3, 2466, Note_on_c, 1, 48, 0
3, 2504, Note_on_c, 1, 36, 56
3, 2580, Note_on_c, 1, 36, 0
3, 2716, Note_on_c, 1, 36, 30
3, 2750, Note_on_c, 1, 36, 0
3, 2908, Note_on_c, 1, 36, 89
3, 5228, Note_on_c, 1, 34, 35
3, 5386, Note_on_c, 1, 48, 92
3, 5392, Note_on_c, 1, 34, 0
3, 5394, Note_on_c, 1, 36, 0
3, 5596, Note_on_c, 1, 48, 0
3, 5608, Note_on_c, 1, 47, 60
3, 5622, Note_on_c, 1, 34, 20
3, 5734, Note_on_c, 1, 34, 0
3, 5756, Note_on_c, 1, 47, 0
3, 5794, Note_on_c, 1, 48, 76
3, 5996, Note_on_c, 1, 48, 0
3, 6006, Note_on_c, 1, 47, 53
3, 6094, Note_on_c, 1, 47, 0
3, 6190, Note_on_c, 1, 48, 83
3, 7470, Note_on_c, 1, 36, 80
3, 7528, Note_on_c, 1, 48, 0
3, 7784, Note_on_c, 1, 36, 0
3, 8068, Note_on_c, 1, 36, 81
3, 9228, Note_on_c, 1, 48, 85
3, 9300, Note_on_c, 1, 36, 0
3, 11754, Note_on_c, 1, 36, 94
3, 11816, Note_on_c, 1, 48, 0
3, 12166, Note_on_c, 1, 34, 33
3, 12288, Note_on_c, 1, 36, 0
3, 12308, Note_on_c, 1, 34, 0
3, 12312, Note_on_c, 1, 41, 88
3, 12884, Note_on_c, 1, 48, 75
3, 12914, Note_on_c, 1, 41, 0
3, 13426, Note_on_c, 1, 48, 0
3, 13440, Note_on_c, 1, 43, 68
3, 14400, Note_on_c, 1, 31, 70
3, 14484, Note_on_c, 1, 43, 0
3, 14910, Note_on_c, 1, 31, 0
3, 14984, Note_on_c, 1, 38, 28
3, 14984, Note_on_c, 1, 36, 40
3, 15074, Note_on_c, 1, 38, 0
3, 15372, Note_on_c, 1, 29, 71
3, 15380, Note_on_c, 1, 28, 48
3, 15412, Note_on_c, 1, 28, 0
3, 15414, Note_on_c, 1, 36, 0
3, 15956, Note_on_c, 1, 29, 0
3, 15966, Note_on_c, 1, 36, 71
3, 16472, Note_on_c, 1, 36, 0
3, 16502, Note_on_c, 1, 31, 75
3, 17888, Note_on_c, 1, 43, 84
3, 17970, Note_on_c, 1, 43, 0
3, 18152, Note_on_c, 1, 31, 0
3, 18248, Note_on_c, 1, 43, 77
3, 18264, Note_on_c, 1, 31, 56
3, 18298, Note_on_c, 1, 31, 0
3, 18344, Note_on_c, 1, 43, 0
3, 18442, Note_on_c, 1, 41, 75
3, 18984, Note_on_c, 1, 41, 0
3, 19020, Note_on_c, 1, 48, 73
3, 19132, Note_on_c, 1, 48, 0
3, 19378, Note_on_c, 1, 48, 80
3, 19578, Note_on_c, 1, 48, 0
3, 19594, Note_on_c, 1, 43, 73
3, 20562, Note_on_c, 1, 48, 64
3, 20570, Note_on_c, 1, 43, 0
3, 20586, Note_on_c, 1, 46, 47
3, 20620, Note_on_c, 1, 46, 0
3, 20928, Note_on_c, 1, 40, 59
3, 20948, Note_on_c, 1, 48, 0
3, 21494, Note_on_c, 1, 40, 0
3, 21498, Note_on_c, 1, 41, 65
3, 22068, Note_on_c, 1, 48, 80
3, 22184, Note_on_c, 1, 41, 0
3, 22622, Note_on_c, 1, 48, 0
3, 22650, Note_on_c, 1, 43, 78
3, 23610, Note_on_c, 1, 36, 81
3, 23628, Note_on_c, 1, 43, 0
3, 24168, Note_on_c, 1, 36, 0
3, 24188, Note_on_c, 1, 29, 75
3, 25106, Note_on_c, 1, 29, 0
3, 25154, Note_on_c, 1, 36, 82
3, 25708, Note_on_c, 1, 36, 0
3, 25732, Note_on_c, 1, 31, 76
3, 26700, Note_on_c, 1, 36, 79
3, 26746, Note_on_c, 1, 31, 0
3, 26774, Note_on_c, 1, 36, 0
3, 26878, Note_on_c, 1, 36, 76
3, 27196, Note_on_c, 1, 36, 0
3, 27242, Note_on_c, 1, 29, 72
3, 28228, Note_on_c, 1, 36, 89
3, 28326, Note_on_c, 1, 29, 0
3, 28744, Note_on_c, 1, 36, 0
3, 28762, Note_on_c, 1, 31, 80
3, 29770, Note_on_c, 1, 36, 84
3, 29806, Note_on_c, 1, 31, 0
3, 29880, Note_on_c, 1, 36, 0
3, 29934, Note_on_c, 1, 36, 84
3, 30318, Note_on_c, 1, 36, 0
3, 30332, Note_on_c, 1, 29, 68
3, 31304, Note_on_c, 1, 36, 79
3, 31316, Note_on_c, 1, 29, 0
3, 31810, Note_on_c, 1, 36, 0
3, 31852, Note_on_c, 1, 31, 74
3, 32478, Note_on_c, 1, 43, 80
3, 32522, Note_on_c, 1, 31, 0
3, 32824, Note_on_c, 1, 31, 65
3, 32930, Note_on_c, 1, 43, 0
3, 32962, Note_on_c, 1, 31, 0
3, 33046, Note_on_c, 1, 36, 74
3, 33374, Note_on_c, 1, 36, 0
3, 33412, Note_on_c, 1, 29, 77
3, 34382, Note_on_c, 1, 29, 0
3, 34382, Note_on_c, 1, 36, 75
3, 34482, Note_on_c, 1, 36, 0
3, 34738, Note_on_c, 1, 36, 69
3, 34828, Note_on_c, 1, 36, 0
3, 34954, Note_on_c, 1, 31, 72
3, 35914, Note_on_c, 1, 36, 75
3, 35948, Note_on_c, 1, 31, 0
3, 35984, Note_on_c, 1, 36, 0
3, 36106, Note_on_c, 1, 36, 68
3, 36462, Note_on_c, 1, 36, 0
3, 36466, Note_on_c, 1, 41, 94
3, 37432, Note_on_c, 1, 48, 88
3, 37780, Note_on_c, 1, 41, 0
3, 37872, Note_on_c, 1, 38, 38
3, 37874, Note_on_c, 1, 48, 0
3, 37916, Note_on_c, 1, 38, 0
3, 38022, Note_on_c, 1, 43, 78
3, 38986, Note_on_c, 1, 31, 72
3, 39044, Note_on_c, 1, 43, 0
3, 39082, Note_on_c, 1, 31, 0
3, 39180, Note_on_c, 1, 36, 84
3, 39520, Note_on_c, 1, 36, 0
3, 39556, Note_on_c, 1, 29, 78
3, 40532, Note_on_c, 1, 36, 78
3, 40578, Note_on_c, 1, 29, 0
3, 40648, Note_on_c, 1, 36, 0
3, 40926, Note_on_c, 1, 36, 77
3, 41028, Note_on_c, 1, 36, 0
3, 41112, Note_on_c, 1, 31, 78
3, 42026, Note_on_c, 1, 36, 68
3, 42032, Note_on_c, 1, 31, 0
3, 42102, Note_on_c, 1, 36, 0
3, 42230, Note_on_c, 1, 36, 75
3, 42574, Note_on_c, 1, 36, 0
3, 42620, Note_on_c, 1, 29, 76
3, 43626, Note_on_c, 1, 36, 79
3, 43690, Note_on_c, 1, 36, 0
3, 43970, Note_on_c, 1, 36, 79
3, 44028, Note_on_c, 1, 29, 0
3, 44074, Note_on_c, 1, 36, 0
3, 44178, Note_on_c, 1, 31, 81
3, 45120, Note_on_c, 1, 36, 74
3, 45188, Note_on_c, 1, 31, 0
3, 45226, Note_on_c, 1, 36, 0
3, 45492, Note_on_c, 1, 36, 66
3, 45668, Note_on_c, 1, 36, 0
3, 45706, Note_on_c, 1, 29, 74
3, 46678, Note_on_c, 1, 36, 80
3, 46750, Note_on_c, 1, 36, 0
3, 46768, Note_on_c, 1, 29, 0
3, 46860, Note_on_c, 1, 36, 83
3, 47220, Note_on_c, 1, 36, 0
3, 47236, Note_on_c, 1, 31, 84
3, 48162, Note_on_c, 1, 36, 80
3, 48218, Note_on_c, 1, 31, 0
3, 48400, Note_on_c, 1, 36, 0
3, 48562, Note_on_c, 1, 36, 81
3, 48738, Note_on_c, 1, 36, 0
3, 48778, Note_on_c, 1, 29, 71
3, 49780, Note_on_c, 1, 36, 83
3, 49882, Note_on_c, 1, 36, 0
3, 50126, Note_on_c, 1, 36, 75
3, 50128, Note_on_c, 1, 29, 0
3, 50222, Note_on_c, 1, 36, 0
3, 50324, Note_on_c, 1, 31, 77
3, 51272, Note_on_c, 1, 43, 91
3, 51394, Note_on_c, 1, 31, 0
3, 51656, Note_on_c, 1, 31, 66
3, 51740, Note_on_c, 1, 31, 0
3, 51778, Note_on_c, 1, 43, 0
3, 51858, Note_on_c, 1, 41, 88
3, 52816, Note_on_c, 1, 36, 77
3, 53008, Note_on_c, 1, 36, 0
3, 53186, Note_on_c, 1, 36, 70
3, 53300, Note_on_c, 1, 36, 0
3, 53366, Note_on_c, 1, 41, 0
3, 53380, Note_on_c, 1, 31, 77
3, 54352, Note_on_c, 1, 36, 74
3, 54404, Note_on_c, 1, 31, 0
3, 54412, Note_on_c, 1, 36, 0
3, 54542, Note_on_c, 1, 36, 78
3, 54858, Note_on_c, 1, 36, 0
3, 54910, Note_on_c, 1, 29, 77
3, 55904, Note_on_c, 1, 41, 95
3, 55936, Note_on_c, 1, 29, 0
3, 56150, Note_on_c, 1, 41, 0
3, 56250, Note_on_c, 1, 36, 74
3, 56356, Note_on_c, 1, 36, 0
3, 56446, Note_on_c, 1, 31, 79
3, 57406, Note_on_c, 1, 43, 88
3, 57506, Note_on_c, 1, 31, 0
3, 57512, Note_on_c, 1, 43, 0
3, 57602, Note_on_c, 1, 43, 69
3, 57750, Note_on_c, 1, 43, 0
3, 57794, Note_on_c, 1, 36, 77
3, 57896, Note_on_c, 1, 36, 0
3, 57988, Note_on_c, 1, 41, 92
3, 58978, Note_on_c, 1, 36, 77
3, 59002, Note_on_c, 1, 41, 0
3, 59092, Note_on_c, 1, 36, 0
3, 59332, Note_on_c, 1, 36, 69
3, 59420, Note_on_c, 1, 36, 0
3, 59518, Note_on_c, 1, 31, 74
3, 60496, Note_on_c, 1, 43, 85
3, 60508, Note_on_c, 1, 31, 0
3, 60778, Note_on_c, 1, 43, 0
3, 60860, Note_on_c, 1, 36, 68
3, 60960, Note_on_c, 1, 36, 0
3, 61066, Note_on_c, 1, 29, 74
3, 62010, Note_on_c, 1, 36, 69
3, 62080, Note_on_c, 1, 36, 0
3, 62114, Note_on_c, 1, 29, 0
3, 62216, Note_on_c, 1, 36, 73
3, 62558, Note_on_c, 1, 36, 0
3, 62578, Note_on_c, 1, 31, 79
3, 63556, Note_on_c, 1, 36, 58
3, 63586, Note_on_c, 1, 36, 0
3, 63638, Note_on_c, 1, 31, 0
3, 63730, Note_on_c, 1, 36, 69
3, 64068, Note_on_c, 1, 36, 0
3, 64096, Note_on_c, 1, 29, 70
3, 65072, Note_on_c, 1, 36, 74
3, 65162, Note_on_c, 1, 36, 0
3, 65472, Note_on_c, 1, 36, 66
3, 65558, Note_on_c, 1, 29, 0
3, 65612, Note_on_c, 1, 36, 0
3, 65670, Note_on_c, 1, 31, 71
3, 66604, Note_on_c, 1, 36, 72
3, 66670, Note_on_c, 1, 36, 0
3, 66774, Note_on_c, 1, 31, 0
3, 66808, Note_on_c, 1, 36, 78
3, 67154, Note_on_c, 1, 36, 0
3, 67186, Note_on_c, 1, 29, 68
3, 68188, Note_on_c, 1, 36, 80
3, 68192, Note_on_c, 1, 29, 0
3, 68380, Note_on_c, 1, 36, 0
3, 68564, Note_on_c, 1, 36, 77
3, 68702, Note_on_c, 1, 36, 0
3, 68760, Note_on_c, 1, 31, 79
3, 69680, Note_on_c, 1, 36, 75
3, 69754, Note_on_c, 1, 36, 0
3, 69872, Note_on_c, 1, 31, 0
3, 69892, Note_on_c, 1, 36, 67
3, 70226, Note_on_c, 1, 36, 0
3, 70262, Note_on_c, 1, 29, 75
3, 71258, Note_on_c, 1, 36, 80
3, 71350, Note_on_c, 1, 29, 0
3, 71380, Note_on_c, 1, 36, 0
3, 71652, Note_on_c, 1, 36, 80
3, 71766, Note_on_c, 1, 36, 0
3, 71842, Note_on_c, 1, 31, 82
3, 73006, Note_on_c, 1, 36, 71
3, 73016, Note_on_c, 1, 31, 0
3, 73130, Note_on_c, 1, 36, 0
3, 73186, Note_on_c, 1, 28, 75
3, 73638, Note_on_c, 1, 28, 0
3, 73700, Note_on_c, 1, 29, 73
3, 74310, Note_on_c, 1, 29, 0
3, 74338, Note_on_c, 1, 36, 80
3, 74488, Note_on_c, 1, 36, 0
3, 74702, Note_on_c, 1, 36, 82
3, 74852, Note_on_c, 1, 36, 0
3, 74896, Note_on_c, 1, 31, 84
3, 76030, Note_on_c, 1, 36, 78
3, 76044, Note_on_c, 1, 31, 0
3, 76232, Note_on_c, 1, 28, 75
3, 76296, Note_on_c, 1, 36, 0
3, 76734, Note_on_c, 1, 28, 0
3, 76786, Note_on_c, 1, 29, 73
3, 77376, Note_on_c, 1, 36, 80
3, 77428, Note_on_c, 1, 29, 0
3, 77594, Note_on_c, 1, 36, 0
3, 77754, Note_on_c, 1, 36, 80
3, 77888, Note_on_c, 1, 36, 0
3, 77946, Note_on_c, 1, 31, 82
3, 78940, Note_on_c, 1, 36, 58
3, 78972, Note_on_c, 1, 36, 0
3, 79076, Note_on_c, 1, 31, 0
3, 79118, Note_on_c, 1, 36, 74
3, 79322, Note_on_c, 1, 36, 0
3, 79334, Note_on_c, 1, 28, 72
3, 79812, Note_on_c, 1, 28, 0
3, 79852, Note_on_c, 1, 29, 67
3, 80420, Note_on_c, 1, 29, 0
3, 80432, Note_on_c, 1, 36, 87
3, 81002, Note_on_c, 1, 36, 0
3, 81026, Note_on_c, 1, 31, 80
3, 81972, Note_on_c, 1, 36, 72
3, 82026, Note_on_c, 1, 36, 0
3, 82112, Note_on_c, 1, 31, 0
3, 82176, Note_on_c, 1, 36, 70
3, 82298, Note_on_c, 1, 36, 0
3, 82352, Note_on_c, 1, 28, 71
3, 82836, Note_on_c, 1, 28, 0
3, 82904, Note_on_c, 1, 29, 64
3, 83524, Note_on_c, 1, 36, 78
3, 83700, Note_on_c, 1, 36, 0
3, 83818, Note_on_c, 1, 29, 0
3, 83902, Note_on_c, 1, 36, 76
3, 84022, Note_on_c, 1, 36, 0
3, 84086, Note_on_c, 1, 31, 80
3, 85264, Note_on_c, 1, 36, 68
3, 85280, Note_on_c, 1, 31, 0
3, 85422, Note_on_c, 1, 36, 0
3, 85446, Note_on_c, 1, 28, 68
3, 85944, Note_on_c, 1, 28, 0
3, 85992, Note_on_c, 1, 29, 65
3, 86618, Note_on_c, 1, 36, 82
3, 86626, Note_on_c, 1, 29, 0
3, 86774, Note_on_c, 1, 36, 0
3, 86972, Note_on_c, 1, 36, 69
3, 87084, Note_on_c, 1, 36, 0
3, 87142, Note_on_c, 1, 31, 74
3, 88124, Note_on_c, 1, 36, 84
3, 88178, Note_on_c, 1, 31, 0
3, 88488, Note_on_c, 1, 28, 71
3, 88598, Note_on_c, 1, 28, 0
3, 88680, Note_on_c, 1, 28, 64
3, 88684, Note_on_c, 1, 36, 0
3, 89016, Note_on_c, 1, 28, 0
3, 89066, Note_on_c, 1, 29, 71
3, 89678, Note_on_c, 1, 29, 0
3, 89690, Note_on_c, 1, 36, 87
3, 89828, Note_on_c, 1, 36, 0
3, 90040, Note_on_c, 1, 36, 76
3, 90148, Note_on_c, 1, 36, 0
3, 90218, Note_on_c, 1, 31, 75
3, 91206, Note_on_c, 1, 36, 46
3, 91244, Note_on_c, 1, 36, 0
3, 91342, Note_on_c, 1, 31, 0
3, 91372, Note_on_c, 1, 36, 73
3, 91578, Note_on_c, 1, 28, 76
3, 91618, Note_on_c, 1, 36, 0
3, 92084, Note_on_c, 1, 28, 0
3, 92130, Note_on_c, 1, 29, 74
3, 92744, Note_on_c, 1, 29, 0
3, 92754, Note_on_c, 1, 36, 87
3, 92904, Note_on_c, 1, 36, 0
3, 93098, Note_on_c, 1, 36, 77
3, 93202, Note_on_c, 1, 36, 0
3, 93282, Note_on_c, 1, 31, 75
3, 94470, Note_on_c, 1, 36, 68
3, 94472, Note_on_c, 1, 31, 0
3, 94676, Note_on_c, 1, 28, 61
3, 95006, Note_on_c, 1, 36, 0
3, 95114, Note_on_c, 1, 28, 0
3, 95174, Note_on_c, 1, 29, 64
3, 95774, Note_on_c, 1, 29, 0
3, 95800, Note_on_c, 1, 36, 74
3, 96356, Note_on_c, 1, 36, 0
3, 96400, Note_on_c, 1, 31, 75
3, 97368, Note_on_c, 1, 36, 88
3, 97416, Note_on_c, 1, 31, 0
3, 97906, Note_on_c, 1, 36, 0
3, 97918, Note_on_c, 1, 29, 74
3, 98892, Note_on_c, 1, 36, 71
3, 98964, Note_on_c, 1, 36, 0
3, 99044, Note_on_c, 1, 29, 0
3, 99072, Note_on_c, 1, 36, 80
3, 99416, Note_on_c, 1, 36, 0
3, 99434, Note_on_c, 1, 31, 77
3, 100430, Note_on_c, 1, 36, 85
3, 100490, Note_on_c, 1, 31, 0
3, 100590, Note_on_c, 1, 36, 0
3, 100758, Note_on_c, 1, 36, 72
3, 100930, Note_on_c, 1, 36, 0
3, 100974, Note_on_c, 1, 28, 68
3, 101328, Note_on_c, 1, 28, 0
3, 101386, Note_on_c, 1, 29, 66
3, 101986, Note_on_c, 1, 36, 72
3, 102072, Note_on_c, 1, 36, 0
3, 102350, Note_on_c, 1, 29, 0
3, 102354, Note_on_c, 1, 36, 71
3, 102458, Note_on_c, 1, 36, 0
3, 102534, Note_on_c, 1, 31, 73
3, 103662, Note_on_c, 1, 31, 0
3, 103684, Note_on_c, 1, 36, 64
3, 103862, Note_on_c, 1, 36, 0
3, 103878, Note_on_c, 1, 28, 71
3, 104354, Note_on_c, 1, 28, 0
3, 104428, Note_on_c, 1, 29, 58
3, 105054, Note_on_c, 1, 29, 0
3, 105062, Note_on_c, 1, 36, 69
3, 105388, Note_on_c, 1, 36, 0
3, 105416, Note_on_c, 1, 34, 51
3, 105568, Note_on_c, 1, 34, 0
3, 105622, Note_on_c, 1, 36, 62
3, 106204, Note_on_c, 1, 31, 74
3, 106242, Note_on_c, 1, 36, 0
3, 106758, Note_on_c, 1, 31, 0
3, 106768, Note_on_c, 1, 36, 61
3, 106900, Note_on_c, 1, 36, 0
3, 106952, Note_on_c, 1, 28, 69
3, 107454, Note_on_c, 1, 28, 0
3, 107512, Note_on_c, 1, 29, 65
3, 108070, Note_on_c, 1, 29, 0
3, 108098, Note_on_c, 1, 36, 74
3, 108298, Note_on_c, 1, 36, 0
3, 108464, Note_on_c, 1, 36, 68
3, 108582, Note_on_c, 1, 36, 0
3, 108660, Note_on_c, 1, 31, 66
3, 109604, Note_on_c, 1, 31, 0
3, 109614, Note_on_c, 1, 36, 83
3, 109980, Note_on_c, 1, 29, 72
3, 109996, Note_on_c, 1, 36, 0
3, 110478, Note_on_c, 1, 41, 72
3, 110518, Note_on_c, 1, 29, 0
3, 110548, Note_on_c, 1, 41, 0
3, 110622, Note_on_c, 1, 41, 83
3, 111084, Note_on_c, 1, 41, 0
3, 111160, Note_on_c, 1, 41, 78
3, 111374, Note_on_c, 1, 41, 0
3, 111520, Note_on_c, 1, 41, 67
3, 111632, Note_on_c, 1, 41, 0
3, 111728, Note_on_c, 1, 36, 72
3, 112642, Note_on_c, 1, 36, 0
3, 112698, Note_on_c, 1, 31, 79
3, 113200, Note_on_c, 1, 31, 0
3, 113264, Note_on_c, 1, 29, 80
3, 114244, Note_on_c, 1, 36, 73
3, 114336, Note_on_c, 1, 36, 0
3, 114628, Note_on_c, 1, 36, 50
3, 114702, Note_on_c, 1, 36, 0
3, 114814, Note_on_c, 1, 43, 77
3, 114870, Note_on_c, 1, 29, 0
3, 116170, Note_on_c, 1, 36, 83
3, 116632, Note_on_c, 1, 43, 0
3, 116714, Note_on_c, 1, 41, 83
3, 116736, Note_on_c, 1, 36, 0
3, 117336, Note_on_c, 1, 36, 74
3, 117366, Note_on_c, 1, 41, 0
3, 117442, Note_on_c, 1, 36, 0
3, 117694, Note_on_c, 1, 36, 62
3, 117782, Note_on_c, 1, 36, 0
3, 117870, Note_on_c, 1, 31, 69
3, 119016, Note_on_c, 1, 31, 0
3, 119052, Note_on_c, 1, 36, 74
3, 119246, Note_on_c, 1, 36, 0
3, 119248, Note_on_c, 1, 28, 64
3, 119722, Note_on_c, 1, 28, 0
3, 119788, Note_on_c, 1, 29, 58
3, 120402, Note_on_c, 1, 36, 70
3, 120470, Note_on_c, 1, 36, 0
3, 120782, Note_on_c, 1, 36, 68
3, 120824, Note_on_c, 1, 29, 0
3, 120870, Note_on_c, 1, 36, 0
3, 120964, Note_on_c, 1, 31, 80
3, 121938, Note_on_c, 1, 36, 62
3, 121982, Note_on_c, 1, 36, 0
3, 122032, Note_on_c, 1, 31, 0
3, 122118, Note_on_c, 1, 36, 72
3, 122312, Note_on_c, 1, 36, 0
3, 122334, Note_on_c, 1, 40, 79
3, 122838, Note_on_c, 1, 40, 0
3, 122900, Note_on_c, 1, 41, 68
3, 123330, Note_on_c, 1, 41, 0
3, 123424, Note_on_c, 1, 41, 19
3, 123492, Note_on_c, 1, 48, 72
3, 123530, Note_on_c, 1, 41, 0
3, 123556, Note_on_c, 1, 48, 0
3, 123816, Note_on_c, 1, 48, 80
3, 123914, Note_on_c, 1, 48, 0
3, 124038, Note_on_c, 1, 43, 47
3, 124970, Note_on_c, 1, 38, 49
3, 125038, Note_on_c, 1, 38, 0
3, 125188, Note_on_c, 1, 31, 68
3, 125272, Note_on_c, 1, 31, 0
3, 125390, Note_on_c, 1, 31, 76
3, 125666, Note_on_c, 1, 31, 0
3, 125752, Note_on_c, 1, 29, 82
3, 125790, Note_on_c, 1, 43, 0
3, 126526, Note_on_c, 1, 36, 71
3, 126596, Note_on_c, 1, 36, 0
3, 126682, Note_on_c, 1, 29, 0
3, 126908, Note_on_c, 1, 36, 62
3, 126980, Note_on_c, 1, 36, 0
3, 127100, Note_on_c, 1, 31, 69
3, 128056, Note_on_c, 1, 36, 64
3, 128092, Note_on_c, 1, 36, 0
3, 128132, Note_on_c, 1, 31, 0
3, 128248, Note_on_c, 1, 36, 67
3, 128326, Note_on_c, 1, 36, 0
3, 128454, Note_on_c, 1, 43, 75
3, 128960, Note_on_c, 1, 43, 0
3, 128988, Note_on_c, 1, 41, 66
3, 129592, Note_on_c, 1, 36, 67
3, 129664, Note_on_c, 1, 41, 0
3, 129672, Note_on_c, 1, 36, 0
3, 129788, Note_on_c, 1, 29, 59
3, 129876, Note_on_c, 1, 29, 0
3, 130008, Note_on_c, 1, 29, 62
3, 130104, Note_on_c, 1, 29, 0
3, 130190, Note_on_c, 1, 36, 84
3, 130718, Note_on_c, 1, 36, 0
3, 130756, Note_on_c, 1, 31, 72
3, 131158, Note_on_c, 1, 36, 43
3, 131198, Note_on_c, 1, 36, 0
3, 131280, Note_on_c, 1, 31, 0
3, 131332, Note_on_c, 1, 43, 80
3, 131662, Note_on_c, 1, 43, 0
3, 131716, Note_on_c, 1, 36, 76
3, 132102, Note_on_c, 1, 36, 0
3, 132118, Note_on_c, 1, 41, 85
3, 132672, Note_on_c, 1, 36, 79
3, 132754, Note_on_c, 1, 41, 0
3, 132760, Note_on_c, 1, 36, 0
3, 133052, Note_on_c, 1, 36, 69
3, 133144, Note_on_c, 1, 36, 0
3, 133252, Note_on_c, 1, 31, 66
3, 134216, Note_on_c, 1, 31, 0
3, 134222, Note_on_c, 1, 36, 79
3, 134748, Note_on_c, 1, 29, 71
3, 134770, Note_on_c, 1, 36, 0
3, 135758, Note_on_c, 1, 36, 80
3, 135944, Note_on_c, 1, 29, 0
3, 136240, Note_on_c, 1, 36, 0
3, 136296, Note_on_c, 1, 31, 74
3, 137288, Note_on_c, 1, 36, 74
3, 137368, Note_on_c, 1, 36, 0
3, 137450, Note_on_c, 1, 31, 0
3, 137480, Note_on_c, 1, 36, 72
3, 137806, Note_on_c, 1, 36, 0
3, 137840, Note_on_c, 1, 29, 60
3, 138784, Note_on_c, 1, 29, 0
3, 138826, Note_on_c, 1, 36, 79
3, 139072, Note_on_c, 1, 36, 0
3, 139182, Note_on_c, 1, 36, 75
3, 139314, Note_on_c, 1, 36, 0
3, 139388, Note_on_c, 1, 31, 72
3, 140364, Note_on_c, 1, 36, 55
3, 140402, Note_on_c, 1, 36, 0
3, 140530, Note_on_c, 1, 31, 0
3, 140554, Note_on_c, 1, 36, 66
3, 140894, Note_on_c, 1, 36, 0
3, 140922, Note_on_c, 1, 29, 66
3, 141888, Note_on_c, 1, 36, 80
3, 141950, Note_on_c, 1, 29, 0
3, 142102, Note_on_c, 1, 36, 0
3, 142276, Note_on_c, 1, 36, 82
3, 142392, Note_on_c, 1, 36, 0
3, 142470, Note_on_c, 1, 31, 70
3, 143394, Note_on_c, 1, 36, 55
3, 143432, Note_on_c, 1, 36, 0
3, 143774, Note_on_c, 1, 31, 0
3, 143814, Note_on_c, 1, 36, 72
3, 143874, Note_on_c, 1, 36, 0
3, 143976, Note_on_c, 1, 29, 77
3, 144984, Note_on_c, 1, 36, 71
3, 145092, Note_on_c, 1, 36, 0
3, 145350, Note_on_c, 1, 36, 66
3, 145366, Note_on_c, 1, 29, 0
3, 145478, Note_on_c, 1, 36, 0
3, 145540, Note_on_c, 1, 31, 80
3, 146542, Note_on_c, 1, 36, 71
3, 146584, Note_on_c, 1, 36, 0
3, 146682, Note_on_c, 1, 31, 0
3, 146714, Note_on_c, 1, 36, 77
3, 146808, Note_on_c, 1, 36, 0
3, 146900, Note_on_c, 1, 28, 75
3, 147386, Note_on_c, 1, 28, 0
3, 147438, Note_on_c, 1, 29, 70
3, 148058, Note_on_c, 1, 36, 81
3, 148166, Note_on_c, 1, 36, 0
3, 148432, Note_on_c, 1, 29, 0
3, 148432, Note_on_c, 1, 36, 71
3, 148546, Note_on_c, 1, 36, 0
3, 148622, Note_on_c, 1, 31, 68
3, 149750, Note_on_c, 1, 36, 72
3, 149764, Note_on_c, 1, 31, 0
3, 149914, Note_on_c, 1, 36, 0
3, 149950, Note_on_c, 1, 28, 71
3, 150500, Note_on_c, 1, 28, 0
3, 150546, Note_on_c, 1, 29, 66
3, 151124, Note_on_c, 1, 36, 74
3, 151164, Note_on_c, 1, 29, 0
3, 151220, Note_on_c, 1, 36, 0
3, 151486, Note_on_c, 1, 36, 74
3, 151612, Note_on_c, 1, 36, 0
3, 151696, Note_on_c, 1, 31, 71
3, 152822, Note_on_c, 1, 31, 0
3, 152826, Note_on_c, 1, 36, 68
3, 153006, Note_on_c, 1, 28, 68
3, 153248, Note_on_c, 1, 36, 0
3, 153496, Note_on_c, 1, 28, 0
3, 153554, Note_on_c, 1, 29, 63
3, 154146, Note_on_c, 1, 36, 70
3, 154160, Note_on_c, 1, 29, 0
3, 154708, Note_on_c, 1, 36, 0
3, 154762, Note_on_c, 1, 31, 70
3, 155690, Note_on_c, 1, 36, 80
3, 155750, Note_on_c, 1, 31, 0
3, 156196, Note_on_c, 1, 36, 0
3, 156254, Note_on_c, 1, 29, 62
3, 157260, Note_on_c, 1, 36, 85
3, 157266, Note_on_c, 1, 29, 0
3, 157646, Note_on_c, 1, 31, 81
3, 157678, Note_on_c, 1, 36, 0
3, 157754, Note_on_c, 1, 31, 0
3, 157814, Note_on_c, 1, 31, 77
3, 158766, Note_on_c, 1, 36, 72
3, 158842, Note_on_c, 1, 36, 0
3, 158924, Note_on_c, 1, 31, 0
3, 158966, Note_on_c, 1, 36, 64
3, 159332, Note_on_c, 1, 36, 0
3, 159354, Note_on_c, 1, 29, 64
3, 160336, Note_on_c, 1, 29, 0
3, 160340, Note_on_c, 1, 36, 87
3, 160678, Note_on_c, 1, 36, 0
3, 160718, Note_on_c, 1, 31, 72
3, 160950, Note_on_c, 1, 31, 0
3, 161106, Note_on_c, 1, 31, 81
3, 161260, Note_on_c, 1, 31, 0
3, 161318, Note_on_c, 1, 31, 78
3, 161862, Note_on_c, 1, 36, 71
3, 161910, Note_on_c, 1, 31, 0
3, 161960, Note_on_c, 1, 36, 0
3, 162054, Note_on_c, 1, 36, 65
3, 162154, Note_on_c, 1, 36, 0
3, 162232, Note_on_c, 1, 36, 63
3, 162390, Note_on_c, 1, 36, 0
3, 162424, Note_on_c, 1, 28, 74
3, 162788, Note_on_c, 1, 28, 0
3, 162820, Note_on_c, 1, 29, 73
3, 163390, Note_on_c, 1, 29, 0
3, 163402, Note_on_c, 1, 36, 77
3, 163912, Note_on_c, 1, 36, 0
3, 163940, Note_on_c, 1, 31, 80
3, 165138, Note_on_c, 1, 31, 0
3, 165142, Note_on_c, 1, 36, 58
3, 165350, Note_on_c, 1, 28, 71
3, 165352, Note_on_c, 1, 36, 0
3, 165706, Note_on_c, 1, 28, 0
3, 165752, Note_on_c, 1, 29, 81
3, 166544, Note_on_c, 1, 36, 83
3, 166554, Note_on_c, 1, 29, 0
3, 166776, Note_on_c, 1, 36, 0
3, 166858, Note_on_c, 1, 36, 74
3, 167012, Note_on_c, 1, 36, 0
3, 167054, Note_on_c, 1, 31, 74
3, 168184, Note_on_c, 1, 36, 69
3, 168192, Note_on_c, 1, 31, 0
3, 168350, Note_on_c, 1, 36, 0
3, 168400, Note_on_c, 1, 28, 77
3, 168746, Note_on_c, 1, 28, 0
3, 168796, Note_on_c, 1, 29, 82
3, 169570, Note_on_c, 1, 36, 82
3, 169658, Note_on_c, 1, 29, 0
3, 169786, Note_on_c, 1, 36, 0
3, 169932, Note_on_c, 1, 36, 68
3, 170080, Note_on_c, 1, 36, 0
3, 170122, Note_on_c, 1, 31, 70
3, 171058, Note_on_c, 1, 36, 80
3, 171106, Note_on_c, 1, 31, 0
3, 171616, Note_on_c, 1, 36, 0
3, 171644, Note_on_c, 1, 29, 75
3, 172608, Note_on_c, 1, 36, 78
3, 172632, Note_on_c, 1, 29, 0
3, 173146, Note_on_c, 1, 36, 0
3, 173174, Note_on_c, 1, 31, 76
3, 174154, Note_on_c, 1, 36, 69
3, 174218, Note_on_c, 1, 36, 0
3, 174330, Note_on_c, 1, 31, 0
3, 174348, Note_on_c, 1, 36, 71
3, 174656, Note_on_c, 1, 36, 0
3, 174688, Note_on_c, 1, 29, 67
3, 175690, Note_on_c, 1, 36, 80
3, 175782, Note_on_c, 1, 29, 0
3, 175890, Note_on_c, 1, 36, 0
3, 176052, Note_on_c, 1, 36, 72
3, 176166, Note_on_c, 1, 36, 0
3, 176246, Note_on_c, 1, 31, 75
3, 177418, Note_on_c, 1, 36, 68
3, 177458, Note_on_c, 1, 31, 0
3, 177636, Note_on_c, 1, 29, 60
3, 177638, Note_on_c, 1, 28, 66
3, 177670, Note_on_c, 1, 28, 0
3, 177724, Note_on_c, 1, 36, 0
3, 178066, Note_on_c, 1, 29, 0
3, 178166, Note_on_c, 1, 29, 71
3, 178776, Note_on_c, 1, 36, 79
3, 178950, Note_on_c, 1, 36, 0
3, 179114, Note_on_c, 1, 29, 0
3, 179138, Note_on_c, 1, 36, 76
3, 179268, Note_on_c, 1, 36, 0
3, 179328, Note_on_c, 1, 31, 76
3, 180346, Note_on_c, 1, 36, 88
3, 180410, Note_on_c, 1, 31, 0
3, 180816, Note_on_c, 1, 36, 0
3, 180846, Note_on_c, 1, 29, 76
3, 181828, Note_on_c, 1, 36, 78
3, 181886, Note_on_c, 1, 36, 0
3, 181970, Note_on_c, 1, 29, 0
3, 182000, Note_on_c, 1, 36, 81
3, 182336, Note_on_c, 1, 36, 0
3, 182370, Note_on_c, 1, 31, 76
3, 183344, Note_on_c, 1, 43, 64
3, 183442, Note_on_c, 1, 31, 0
3, 183462, Note_on_c, 1, 43, 0
3, 183546, Note_on_c, 1, 36, 83
3, 183764, Note_on_c, 1, 41, 74
3, 183800, Note_on_c, 1, 36, 0
3, 184218, Note_on_c, 1, 41, 0
3, 184288, Note_on_c, 1, 41, 82
3, 184890, Note_on_c, 1, 36, 77
3, 184910, Note_on_c, 1, 41, 0
3, 184996, Note_on_c, 1, 36, 0
3, 185270, Note_on_c, 1, 36, 58
3, 185424, Note_on_c, 1, 36, 0
3, 185474, Note_on_c, 1, 29, 74
3, 186020, Note_on_c, 1, 29, 0
3, 186072, Note_on_c, 1, 31, 79
3, 186604, Note_on_c, 1, 31, 0
3, 186628, Note_on_c, 1, 36, 66
3, 186806, Note_on_c, 1, 28, 72
3, 186870, Note_on_c, 1, 36, 0
3, 187304, Note_on_c, 1, 28, 0
3, 187356, Note_on_c, 1, 29, 68
3, 187930, Note_on_c, 1, 36, 76
3, 187938, Note_on_c, 1, 29, 0
3, 188510, Note_on_c, 1, 36, 0
3, 188552, Note_on_c, 1, 31, 76
3, 189528, Note_on_c, 1, 36, 82
3, 189592, Note_on_c, 1, 31, 0
3, 190038, Note_on_c, 1, 36, 0
3, 190070, Note_on_c, 1, 29, 74
3, 191064, Note_on_c, 1, 48, 77
3, 191184, Note_on_c, 1, 29, 0
3, 191614, Note_on_c, 1, 43, 81
3, 191632, Note_on_c, 1, 48, 0
3, 192592, Note_on_c, 1, 48, 87
3, 192644, Note_on_c, 1, 43, 0
3, 193064, Note_on_c, 1, 48, 0
3, 193148, Note_on_c, 1, 41, 80
3, 194084, Note_on_c, 1, 41, 0
3, 194104, Note_on_c, 1, 31, 70
3, 194630, Note_on_c, 1, 31, 0
3, 194700, Note_on_c, 1, 31, 80
3, 195662, Note_on_c, 1, 36, 58
3, 195698, Note_on_c, 1, 36, 0
3, 195800, Note_on_c, 1, 31, 0
3, 195844, Note_on_c, 1, 36, 65
3, 196044, Note_on_c, 1, 36, 0
3, 196062, Note_on_c, 1, 29, 68
3, 197144, Note_on_c, 1, 36, 82
3, 197352, Note_on_c, 1, 29, 0
3, 197718, Note_on_c, 1, 36, 0
3, 197748, Note_on_c, 1, 31, 78
3, 198728, Note_on_c, 1, 36, 79
3, 198890, Note_on_c, 1, 36, 0
3, 199102, Note_on_c, 1, 36, 71
3, 199140, Note_on_c, 1, 31, 0
3, 199190, Note_on_c, 1, 36, 0
3, 199292, Note_on_c, 1, 36, 64
3, 199658, Note_on_c, 1, 36, 0
3, 199680, Note_on_c, 1, 29, 55
3, 199916, Note_on_c, 1, 29, 0
3, 200276, Note_on_c, 1, 48, 75
3, 200822, Note_on_c, 1, 48, 0
3, 200836, Note_on_c, 1, 43, 59
3, 201774, Note_on_c, 1, 48, 70
3, 201860, Note_on_c, 1, 48, 0
3, 201934, Note_on_c, 1, 43, 0
3, 201978, Note_on_c, 1, 48, 55
3, 202330, Note_on_c, 1, 48, 0
3, 202360, Note_on_c, 1, 41, 66
3, 203282, Note_on_c, 1, 41, 0
3, 203390, Note_on_c, 1, 48, 76
3, 203400, Note_on_c, 1, 47, 36
3, 203434, Note_on_c, 1, 47, 0
3, 203528, Note_on_c, 1, 48, 0
3, 203688, Note_on_c, 1, 48, 74
3, 203816, Note_on_c, 1, 48, 0
3, 203902, Note_on_c, 1, 43, 71
3, 204832, Note_on_c, 1, 31, 69
3, 204914, Note_on_c, 1, 31, 0
3, 205044, Note_on_c, 1, 31, 74
3, 205302, Note_on_c, 1, 31, 0
3, 205372, Note_on_c, 1, 43, 0
3, 205422, Note_on_c, 1, 29, 75
3, 206420, Note_on_c, 1, 36, 71
3, 206532, Note_on_c, 1, 36, 0
3, 206734, Note_on_c, 1, 29, 0
3, 206764, Note_on_c, 1, 36, 57
3, 206960, Note_on_c, 1, 36, 0
3, 206970, Note_on_c, 1, 31, 65
3, 207948, Note_on_c, 1, 43, 58
3, 207984, Note_on_c, 1, 43, 0
3, 208126, Note_on_c, 1, 43, 62
3, 208142, Note_on_c, 1, 31, 0
3, 208436, Note_on_c, 1, 43, 0
3, 208500, Note_on_c, 1, 41, 79
3, 209462, Note_on_c, 1, 36, 64
3, 209704, Note_on_c, 1, 36, 0
3, 209846, Note_on_c, 1, 41, 0
3, 209846, Note_on_c, 1, 36, 46
3, 209980, Note_on_c, 1, 36, 0
3, 210066, Note_on_c, 1, 43, 79
3, 211004, Note_on_c, 1, 36, 61
3, 211092, Note_on_c, 1, 36, 0
3, 211210, Note_on_c, 1, 36, 68
3, 211282, Note_on_c, 1, 43, 0
3, 211582, Note_on_c, 1, 36, 0
3, 211600, Note_on_c, 1, 41, 76
3, 212550, Note_on_c, 1, 36, 60
3, 212646, Note_on_c, 1, 36, 0
3, 212936, Note_on_c, 1, 36, 49
3, 212972, Note_on_c, 1, 41, 0
3, 213100, Note_on_c, 1, 36, 0
3, 213128, Note_on_c, 1, 43, 64
3, 214078, Note_on_c, 1, 36, 54
3, 214116, Note_on_c, 1, 36, 0
3, 214228, Note_on_c, 1, 43, 0
3, 214254, Note_on_c, 1, 36, 74
3, 214648, Note_on_c, 1, 29, 66
3, 214658, Note_on_c, 1, 36, 0
3, 215588, Note_on_c, 1, 36, 58
3, 215628, Note_on_c, 1, 36, 0
3, 215686, Note_on_c, 1, 29, 0
3, 215790, Note_on_c, 1, 36, 55
3, 216148, Note_on_c, 1, 36, 0
3, 216178, Note_on_c, 1, 31, 69
3, 217100, Note_on_c, 1, 31, 0
3, 217152, Note_on_c, 1, 36, 63
3, 217220, Note_on_c, 1, 36, 0
3, 217354, Note_on_c, 1, 36, 59
3, 217694, Note_on_c, 1, 36, 0
3, 217722, Note_on_c, 1, 29, 56
3, 218644, Note_on_c, 1, 29, 0
3, 218684, Note_on_c, 1, 36, 47
3, 218724, Note_on_c, 1, 36, 0
3, 218852, Note_on_c, 1, 36, 59
3, 219218, Note_on_c, 1, 36, 0
3, 219250, Note_on_c, 1, 31, 62
3, 220192, Note_on_c, 1, 43, 68
3, 220248, Note_on_c, 1, 31, 0
3, 220274, Note_on_c, 1, 43, 0
3, 220398, Note_on_c, 1, 36, 49
3, 220446, Note_on_c, 1, 36, 0
3, 220610, Note_on_c, 1, 36, 55
3, 220752, Note_on_c, 1, 36, 0
3, 220810, Note_on_c, 1, 41, 76
3, 221752, Note_on_c, 1, 41, 0
3, 221762, Note_on_c, 1, 36, 52
3, 221814, Note_on_c, 1, 36, 0
3, 221948, Note_on_c, 1, 36, 58
3, 223316, Note_on_c, 1, 40, 58
3, 223374, Note_on_c, 1, 40, 0
3, 223512, Note_on_c, 1, 40, 49
3, 223562, Note_on_c, 1, 40, 0
3, 223580, Note_on_c, 1, 36, 0
3, 223694, Note_on_c, 1, 40, 54
3, 223766, Note_on_c, 1, 40, 0
3, 223876, Note_on_c, 1, 41, 71
3, 224832, Note_on_c, 1, 36, 34
3, 224834, Note_on_c, 1, 41, 0
3, 224880, Note_on_c, 1, 36, 0
3, 225024, Note_on_c, 1, 36, 58
3, 226360, Note_on_c, 1, 43, 68
3, 226390, Note_on_c, 1, 36, 0
3, 226444, Note_on_c, 1, 43, 0
3, 226578, Note_on_c, 1, 43, 45
3, 226872, Note_on_c, 1, 43, 0
3, 226940, Note_on_c, 1, 41, 73
3, 227858, Note_on_c, 1, 36, 47
3, 227864, Note_on_c, 1, 41, 0
3, 227936, Note_on_c, 1, 36, 0
3, 228048, Note_on_c, 1, 36, 59
3, 229610, Note_on_c, 1, 48, 56
3, 229718, Note_on_c, 1, 36, 0
3, 229778, Note_on_c, 1, 48, 0
3, 229828, Note_on_c, 1, 40, 66
3, 230400, Note_on_c, 1, 40, 0
3, 230434, Note_on_c, 1, 41, 59
3, 230980, Note_on_c, 1, 36, 71
3, 231032, Note_on_c, 1, 41, 0
3, 231468, Note_on_c, 1, 36, 0
3, 232332, Note_on_c, 1, 36, 49
3, 232466, Note_on_c, 1, 36, 0
3, 232708, Note_on_c, 1, 40, 66
3, 232860, Note_on_c, 1, 40, 0
3, 232928, Note_on_c, 1, 40, 71
3, 233216, Note_on_c, 1, 40, 0
3, 233304, Note_on_c, 1, 41, 61
3, 233610, Note_on_c, 1, 41, 0
3, 233694, Note_on_c, 1, 36, 28
3, 233738, Note_on_c, 1, 36, 0
3, 233892, Note_on_c, 1, 29, 44
3, 234950, Note_on_c, 1, 29, 0
3, 235004, Note_on_c, 1, 31, 57
3, 235574, Note_on_c, 1, 31, 0
3, 235588, Note_on_c, 1, 36, 61
3, 236138, Note_on_c, 1, 36, 0
3, 236150, Note_on_c, 1, 41, 73
3, 237086, Note_on_c, 1, 41, 0
3, 237116, Note_on_c, 1, 36, 55
3, 237208, Note_on_c, 1, 36, 0
3, 237314, Note_on_c, 1, 36, 53
3, 237836, Note_on_c, 1, 36, 0
3, 237864, Note_on_c, 1, 31, 59
3, 238468, Note_on_c, 1, 31, 0
3, 238484, Note_on_c, 1, 36, 59
3, 239248, Note_on_c, 1, 29, 44
3, 239250, Note_on_c, 1, 36, 0
3, 239382, Note_on_c, 1, 29, 0
3, 239456, Note_on_c, 1, 29, 65
3, 240376, Note_on_c, 1, 29, 0
3, 240398, Note_on_c, 1, 36, 62
3, 240956, Note_on_c, 1, 31, 68
3, 240958, Note_on_c, 1, 36, 0
3, 241772, Note_on_c, 1, 36, 65
3, 241804, Note_on_c, 1, 31, 0
3, 241846, Note_on_c, 1, 36, 0
3, 241942, Note_on_c, 1, 36, 57
3, 242298, Note_on_c, 1, 36, 0
3, 242298, Note_on_c, 1, 29, 68
3, 243278, Note_on_c, 1, 36, 60
3, 243336, Note_on_c, 1, 36, 0
3, 243470, Note_on_c, 1, 36, 69
3, 243546, Note_on_c, 1, 29, 0
3, 243824, Note_on_c, 1, 31, 82
3, 243842, Note_on_c, 1, 36, 0
3, 244780, Note_on_c, 1, 31, 0
3, 244806, Note_on_c, 1, 36, 74
3, 245380, Note_on_c, 1, 36, 0
3, 245390, Note_on_c, 1, 41, 81
3, 246342, Note_on_c, 1, 36, 37
3, 246358, Note_on_c, 1, 41, 0
3, 246414, Note_on_c, 1, 36, 0
3, 246520, Note_on_c, 1, 36, 38
3, 246890, Note_on_c, 1, 36, 0
3, 246896, Note_on_c, 1, 31, 69
3, 248074, Note_on_c, 1, 43, 68
3, 248370, Note_on_c, 1, 31, 0
3, 248422, Note_on_c, 1, 43, 0
3, 248458, Note_on_c, 1, 36, 67
3, 248734, Note_on_c, 1, 36, 0
3, 248812, Note_on_c, 1, 41, 68
3, 249380, Note_on_c, 1, 41, 0
3, 249400, Note_on_c, 1, 36, 70
3, 249972, Note_on_c, 1, 36, 0
3, 249980, Note_on_c, 1, 31, 74
3, 250952, Note_on_c, 1, 31, 0
3, 250960, Note_on_c, 1, 36, 75
3, 251544, Note_on_c, 1, 29, 66
3, 251552, Note_on_c, 1, 36, 0
3, 252506, Note_on_c, 1, 36, 87
3, 252582, Note_on_c, 1, 29, 0
3, 253048, Note_on_c, 1, 36, 0
3, 253048, Note_on_c, 1, 31, 81
3, 254022, Note_on_c, 1, 36, 65
3, 254118, Note_on_c, 1, 36, 0
3, 254210, Note_on_c, 1, 31, 0
3, 254212, Note_on_c, 1, 36, 62
3, 254566, Note_on_c, 1, 36, 0
3, 254576, Note_on_c, 1, 29, 77
3, 255546, Note_on_c, 1, 36, 77
3, 255622, Note_on_c, 1, 29, 0
3, 256110, Note_on_c, 1, 31, 75
3, 256134, Note_on_c, 1, 36, 0
3, 257076, Note_on_c, 1, 36, 75
3, 257164, Note_on_c, 1, 36, 0
3, 257260, Note_on_c, 1, 31, 0
3, 257278, Note_on_c, 1, 36, 71
3, 257634, Note_on_c, 1, 36, 0
3, 257652, Note_on_c, 1, 29, 74
3, 258620, Note_on_c, 1, 36, 75
3, 258706, Note_on_c, 1, 36, 0
3, 259028, Note_on_c, 1, 36, 65
3, 259100, Note_on_c, 1, 29, 0
3, 259130, Note_on_c, 1, 36, 0
3, 259224, Note_on_c, 1, 31, 71
3, 260182, Note_on_c, 1, 36, 52
3, 260264, Note_on_c, 1, 36, 0
3, 260560, Note_on_c, 1, 36, 60
3, 260578, Note_on_c, 1, 31, 0
3, 260696, Note_on_c, 1, 36, 0
3, 260732, Note_on_c, 1, 29, 68
3, 261722, Note_on_c, 1, 36, 80
3, 262032, Note_on_c, 1, 29, 0
3, 262252, Note_on_c, 1, 36, 0
3, 262266, Note_on_c, 1, 31, 69
3, 263200, Note_on_c, 1, 31, 0
3, 263236, Note_on_c, 1, 36, 58
3, 263338, Note_on_c, 1, 36, 0
3, 263436, Note_on_c, 1, 36, 51
3, 263794, Note_on_c, 1, 36, 0
3, 263800, Note_on_c, 1, 41, 85
3, 264772, Note_on_c, 1, 36, 38
3, 264790, Note_on_c, 1, 41, 0
3, 264856, Note_on_c, 1, 36, 0
3, 264960, Note_on_c, 1, 36, 29
3, 265020, Note_on_c, 1, 36, 0
3, 265184, Note_on_c, 1, 36, 50
3, 265318, Note_on_c, 1, 36, 0
3, 265358, Note_on_c, 1, 43, 61
3, 266306, Note_on_c, 1, 36, 38
3, 266348, Note_on_c, 1, 36, 0
3, 266688, Note_on_c, 1, 36, 47
3, 266710, Note_on_c, 1, 43, 0
3, 266832, Note_on_c, 1, 36, 0
3, 266890, Note_on_c, 1, 41, 80
3, 267844, Note_on_c, 1, 36, 48
3, 267888, Note_on_c, 1, 36, 0
3, 267966, Note_on_c, 1, 41, 0
3, 268224, Note_on_c, 1, 36, 61
3, 268376, Note_on_c, 1, 36, 0
3, 268430, Note_on_c, 1, 43, 85
3, 269394, Note_on_c, 1, 36, 68
3, 269498, Note_on_c, 1, 36, 0
3, 269788, Note_on_c, 1, 36, 60
3, 269796, Note_on_c, 1, 43, 0
3, 269902, Note_on_c, 1, 36, 0
3, 270000, Note_on_c, 1, 41, 80
3, 270880, Note_on_c, 1, 41, 0
3, 270908, Note_on_c, 1, 36, 69
3, 271498, Note_on_c, 1, 36, 0
3, 271520, Note_on_c, 1, 43, 67
3, 272438, Note_on_c, 1, 36, 38
3, 272484, Note_on_c, 1, 36, 0
3, 272668, Note_on_c, 1, 43, 0
3, 272822, Note_on_c, 1, 36, 48
3, 273006, Note_on_c, 1, 36, 0
3, 273042, Note_on_c, 1, 41, 88
3, 273964, Note_on_c, 1, 41, 0
3, 273988, Note_on_c, 1, 36, 38
3, 274052, Note_on_c, 1, 36, 0
3, 274172, Note_on_c, 1, 36, 56
3, 274552, Note_on_c, 1, 36, 0
3, 274562, Note_on_c, 1, 43, 69
3, 275504, Note_on_c, 1, 36, 59
3, 275566, Note_on_c, 1, 43, 0
3, 275634, Note_on_c, 1, 36, 0
3, 275900, Note_on_c, 1, 36, 36
3, 276040, Note_on_c, 1, 36, 0
3, 276104, Note_on_c, 1, 29, 58
3, 277110, Note_on_c, 1, 36, 51
3, 277196, Note_on_c, 1, 36, 0
3, 277466, Note_on_c, 1, 36, 46
3, 277596, Note_on_c, 1, 36, 0
3, 277650, Note_on_c, 1, 43, 66
3, 278442, Note_on_c, 1, 43, 0
3, 278536, Note_on_c, 1, 36, 54
3, 278638, Note_on_c, 1, 36, 0
3, 278726, Note_on_c, 1, 36, 52
3, 278728, Note_on_c, 1, 29, 0
3, 279148, Note_on_c, 1, 36, 0
3, 279154, Note_on_c, 1, 29, 65
3, 280476, Note_on_c, 1, 36, 55
3, 280800, Note_on_c, 1, 29, 0
3, 281046, Note_on_c, 1, 31, 55
3, 281062, Note_on_c, 1, 36, 0
3, 281656, Note_on_c, 1, 36, 55
3, 281740, Note_on_c, 1, 36, 0
3, 281856, Note_on_c, 1, 31, 0
3, 281866, Note_on_c, 1, 36, 55
3, 282216, Note_on_c, 1, 36, 0
3, 282242, Note_on_c, 1, 29, 56
3, 283224, Note_on_c, 1, 36, 68
3, 283262, Note_on_c, 1, 29, 0
3, 283798, Note_on_c, 1, 31, 54
3, 283812, Note_on_c, 1, 36, 0
3, 284774, Note_on_c, 1, 43, 61
3, 284824, Note_on_c, 1, 31, 0
3, 284886, Note_on_c, 1, 43, 0
3, 284950, Note_on_c, 1, 36, 62
3, 285300, Note_on_c, 1, 36, 0
3, 285312, Note_on_c, 1, 41, 71
3, 286274, Note_on_c, 1, 36, 55
3, 286280, Note_on_c, 1, 41, 0
3, 286390, Note_on_c, 1, 36, 0
3, 286478, Note_on_c, 1, 36, 62
3, 286822, Note_on_c, 1, 36, 0
3, 286838, Note_on_c, 1, 43, 70
3, 287736, Note_on_c, 1, 43, 0
3, 287790, Note_on_c, 1, 36, 57
3, 287894, Note_on_c, 1, 36, 0
3, 288000, Note_on_c, 1, 36, 66
3, 288378, Note_on_c, 1, 36, 0
3, 288390, Note_on_c, 1, 29, 64
3, 290694, Note_on_c, 1, 29, 0
3, 290694, End_track
4, 0, Start_track
4, 0, Title_t, "Drums"
4, 0, Program_c, 9, 0
4, 0, Control_c, 9, 7, 92
4, 0, Program_c, 9, 0
4, 0, Control_c, 9, 7, 127
4, 56, Note_on_c, 9, 81, 85
4, 164, Note_on_c, 9, 81, 0
4, 238, Note_on_c, 9, 80, 60
4, 312, Note_on_c, 9, 80, 0
4, 422, Note_on_c, 9, 80, 59
4, 480, Note_on_c, 9, 80, 0
4, 618, Note_on_c, 9, 81, 75
4, 686, Note_on_c, 9, 81, 0
4, 798, Note_on_c, 9, 80, 60
4, 860, Note_on_c, 9, 80, 0
4, 994, Note_on_c, 9, 80, 62
4, 1054, Note_on_c, 9, 80, 0
4, 1176, Note_on_c, 9, 81, 73
4, 1314, Note_on_c, 9, 81, 0
4, 1356, Note_on_c, 9, 80, 54
4, 1424, Note_on_c, 9, 80, 0
4, 1556, Note_on_c, 9, 80, 60
4, 1630, Note_on_c, 9, 80, 0
4, 1754, Note_on_c, 9, 81, 80
4, 1896, Note_on_c, 9, 81, 0
4, 1942, Note_on_c, 9, 80, 52
4, 2008, Note_on_c, 9, 80, 0
4, 2136, Note_on_c, 9, 80, 55
4, 2204, Note_on_c, 9, 80, 0
4, 2322, Note_on_c, 9, 81, 74
4, 2418, Note_on_c, 9, 81, 0
4, 2508, Note_on_c, 9, 80, 60
4, 2570, Note_on_c, 9, 80, 0
4, 2704, Note_on_c, 9, 81, 74
4, 2800, Note_on_c, 9, 81, 0
4, 2902, Note_on_c, 9, 81, 69
4, 3022, Note_on_c, 9, 81, 0
4, 3076, Note_on_c, 9, 80, 46
4, 3200, Note_on_c, 9, 80, 0
4, 3290, Note_on_c, 9, 81, 77
4, 3424, Note_on_c, 9, 81, 0
4, 3684, Note_on_c, 9, 81, 75
4, 3794, Note_on_c, 9, 81, 0
4, 3874, Note_on_c, 9, 81, 65
4, 4014, Note_on_c, 9, 81, 0
4, 4078, Note_on_c, 9, 80, 35
4, 4170, Note_on_c, 9, 80, 0
4, 4250, Note_on_c, 9, 81, 74
4, 4378, Note_on_c, 9, 81, 0
4, 4448, Note_on_c, 9, 81, 68
4, 4584, Note_on_c, 9, 81, 0
4, 4650, Note_on_c, 9, 80, 25
4, 4756, Note_on_c, 9, 80, 0
4, 4800, Note_on_c, 9, 65, 67
4, 4812, Note_on_c, 9, 42, 80
4, 4816, Note_on_c, 9, 35, 60
4, 4832, Note_on_c, 9, 81, 88
4, 4858, Note_on_c, 9, 65, 0
4, 4882, Note_on_c, 9, 42, 0
4, 4898, Note_on_c, 9, 35, 0
4, 4992, Note_on_c, 9, 65, 82
4, 4998, Note_on_c, 9, 42, 80
4, 4998, Note_on_c, 9, 35, 62
4, 5056, Note_on_c, 9, 65, 0
4, 5062, Note_on_c, 9, 81, 0
4, 5072, Note_on_c, 9, 42, 0
4, 5084, Note_on_c, 9, 35, 0
4, 5086, Note_on_c, 9, 80, 37
4, 5140, Note_on_c, 9, 80, 0
4, 5184, Note_on_c, 9, 65, 85
4, 5190, Note_on_c, 9, 42, 90
4, 5190, Note_on_c, 9, 35, 67
4, 5198, Control_c, 9, 5, 4
4, 5234, Note_on_c, 9, 81, 89
4, 5236, Note_on_c, 9, 65, 0
4, 5312, Note_on_c, 9, 42, 0
4, 5314, Note_on_c, 9, 35, 0
4, 5386, Note_on_c, 9, 81, 0
4, 5606, Note_on_c, 9, 81, 85
4, 5744, Note_on_c, 9, 81, 0
4, 5848, Note_on_c, 9, 80, 19
4, 5888, Note_on_c, 9, 80, 0
4, 6000, Note_on_c, 9, 81, 82
4, 6104, Note_on_c, 9, 81, 0
4, 6144, Note_on_c, 9, 56, 72
4, 6176, Note_on_c, 9, 81, 81
4, 6306, Note_on_c, 9, 56, 0
4, 6328, Note_on_c, 9, 81, 0
4, 6374, Note_on_c, 9, 80, 30
4, 6454, Note_on_c, 9, 80, 0
4, 6528, Note_on_c, 9, 56, 63
4, 6534, Note_on_c, 9, 81, 81
4, 6678, Note_on_c, 9, 56, 0
4, 6704, Note_on_c, 9, 81, 0
4, 6734, Note_on_c, 9, 80, 35
4, 6816, Note_on_c, 9, 80, 0
4, 6894, Note_on_c, 9, 81, 84
4, 6912, Note_on_c, 9, 56, 72
4, 7038, Note_on_c, 9, 81, 0
4, 7050, Note_on_c, 9, 56, 0
4, 7108, Note_on_c, 9, 81, 74
4, 7266, Note_on_c, 9, 81, 0
4, 7294, Note_on_c, 9, 80, 37
4, 7296, Note_on_c, 9, 56, 67
4, 7418, Note_on_c, 9, 56, 0
4, 7430, Note_on_c, 9, 80, 0
4, 7514, Note_on_c, 9, 81, 85
4, 7680, Note_on_c, 9, 56, 63
4, 7790, Note_on_c, 9, 56, 0
4, 7870, Note_on_c, 9, 81, 0
4, 7870, Note_on_c, 9, 80, 39
4, 7948, Note_on_c, 9, 80, 0
4, 8052, Note_on_c, 9, 81, 76
4, 8064, Note_on_c, 9, 56, 67
4, 8148, Note_on_c, 9, 81, 0
4, 8158, Note_on_c, 9, 56, 0
4, 8266, Note_on_c, 9, 81, 77
4, 8350, Note_on_c, 9, 81, 0
4, 8448, Note_on_c, 9, 56, 67
4, 8494, Note_on_c, 9, 80, 25
4, 8582, Note_on_c, 9, 56, 0
4, 8602, Note_on_c, 9, 80, 0
4, 8660, Note_on_c, 9, 81, 67
4, 8788, Note_on_c, 9, 81, 0
4, 8830, Note_on_c, 9, 80, 40
4, 8832, Note_on_c, 9, 56, 63
4, 8924, Note_on_c, 9, 56, 0
4, 8968, Note_on_c, 9, 80, 0
4, 9042, Note_on_c, 9, 80, 56
4, 9200, Note_on_c, 9, 80, 0
4, 9216, Note_on_c, 9, 56, 67
4, 9242, Note_on_c, 9, 81, 70
4, 9350, Note_on_c, 9, 56, 0
4, 9410, Note_on_c, 9, 81, 0
4, 9438, Note_on_c, 9, 80, 32
4, 9568, Note_on_c, 9, 80, 0
4, 9600, Note_on_c, 9, 56, 63
4, 9626, Note_on_c, 9, 81, 67
4, 9742, Note_on_c, 9, 56, 0
4, 9754, Note_on_c, 9, 81, 0
4, 9830, Note_on_c, 9, 81, 60
4, 9958, Note_on_c, 9, 81, 0
4, 9984, Note_on_c, 9, 56, 63
4, 10028, Note_on_c, 9, 80, 18
4, 10118, Note_on_c, 9, 80, 0
4, 10128, Note_on_c, 9, 56, 0
4, 10210, Note_on_c, 9, 81, 65
4, 10328, Note_on_c, 9, 81, 0
4, 10368, Note_on_c, 9, 56, 59
4, 10488, Note_on_c, 9, 56, 0
4, 10568, Note_on_c, 9, 81, 62
4, 10702, Note_on_c, 9, 81, 0
4, 10752, Note_on_c, 9, 56, 67
4, 10776, Note_on_c, 9, 81, 63
4, 10894, Note_on_c, 9, 56, 0
4, 10896, Note_on_c, 9, 81, 0
4, 10944, Note_on_c, 9, 65, 67
4, 10956, Note_on_c, 9, 42, 80
4, 10960, Note_on_c, 9, 35, 60
4, 11002, Note_on_c, 9, 65, 0
4, 11026, Note_on_c, 9, 42, 0
4, 11042, Note_on_c, 9, 35, 0
4, 11136, Note_on_c, 9, 65, 82
4, 11136, Note_on_c, 9, 56, 67
4, 11142, Note_on_c, 9, 42, 80
4, 11142, Note_on_c, 9, 35, 62
4, 11180, Note_on_c, 9, 81, 67
4, 11200, Note_on_c, 9, 65, 0
4, 11216, Note_on_c, 9, 42, 0
4, 11228, Note_on_c, 9, 35, 0
4, 11258, Note_on_c, 9, 56, 0
4, 11276, Note_on_c, 9, 81, 0
4, 11328, Note_on_c, 9, 65, 85
4, 11334, Note_on_c, 9, 42, 90
4, 11334, Note_on_c, 9, 35, 67
4, 11342, Control_c, 9, 5, 4
4, 11362, Note_on_c, 9, 81, 69
4, 11380, Note_on_c, 9, 65, 0
4, 11456, Note_on_c, 9, 42, 0
4, 11458, Note_on_c, 9, 35, 0
4, 11484, Note_on_c, 9, 81, 0
4, 11520, Note_on_c, 9, 56, 67
4, 11640, Note_on_c, 9, 56, 0
4, 11740, Note_on_c, 9, 81, 73
4, 11842, Note_on_c, 9, 81, 0
4, 11904, Note_on_c, 9, 56, 67
4, 11924, Note_on_c, 9, 81, 62
4, 12020, Note_on_c, 9, 56, 0
4, 12060, Note_on_c, 9, 81, 0
4, 12138, Note_on_c, 9, 80, 46
4, 12230, Note_on_c, 9, 80, 0
4, 12288, Note_on_c, 9, 56, 72
4, 12288, Note_on_c, 9, 35, 61
4, 12330, Note_on_c, 9, 81, 78
4, 12440, Note_on_c, 9, 81, 0
4, 12450, Note_on_c, 9, 56, 0
4, 12516, Note_on_c, 9, 81, 66
4, 12644, Note_on_c, 9, 81, 0
4, 12672, Note_on_c, 9, 56, 63
4, 12688, Note_on_c, 9, 80, 42
4, 12760, Note_on_c, 9, 80, 0
4, 12762, Note_on_c, 9, 35, 0
4, 12822, Note_on_c, 9, 56, 0
4, 12898, Note_on_c, 9, 81, 79
4, 13016, Note_on_c, 9, 81, 0
4, 13054, Note_on_c, 9, 35, 68
4, 13056, Note_on_c, 9, 56, 72
4, 13082, Note_on_c, 9, 81, 60
4, 13190, Note_on_c, 9, 81, 0
4, 13194, Note_on_c, 9, 56, 0
4, 13268, Note_on_c, 9, 80, 64
4, 13414, Note_on_c, 9, 80, 0
4, 13440, Note_on_c, 9, 56, 67
4, 13452, Note_on_c, 9, 35, 0
4, 13478, Note_on_c, 9, 81, 52
4, 13514, Note_on_c, 9, 81, 0
4, 13562, Note_on_c, 9, 56, 0
4, 13636, Note_on_c, 9, 35, 75
4, 13656, Note_on_c, 9, 81, 78
4, 13798, Note_on_c, 9, 81, 0
4, 13824, Note_on_c, 9, 56, 63
4, 13866, Note_on_c, 9, 80, 35
4, 13904, Note_on_c, 9, 80, 0
4, 13934, Note_on_c, 9, 56, 0
4, 14040, Note_on_c, 9, 81, 64
4, 14136, Note_on_c, 9, 81, 0
4, 14208, Note_on_c, 9, 56, 67
4, 14224, Note_on_c, 9, 81, 58
4, 14272, Note_on_c, 9, 35, 0
4, 14302, Note_on_c, 9, 56, 0
4, 14364, Note_on_c, 9, 81, 0
4, 14402, Note_on_c, 9, 35, 54
4, 14410, Note_on_c, 9, 80, 57
4, 14460, Note_on_c, 9, 35, 0
4, 14524, Note_on_c, 9, 80, 0
4, 14592, Note_on_c, 9, 56, 67
4, 14592, Note_on_c, 9, 35, 75
4, 14608, Note_on_c, 9, 81, 71
4, 14702, Note_on_c, 9, 81, 0
4, 14726, Note_on_c, 9, 56, 0
4, 14808, Note_on_c, 9, 81, 73
4, 14938, Note_on_c, 9, 81, 0
4, 14976, Note_on_c, 9, 56, 63
4, 14982, Note_on_c, 9, 80, 35
4, 15068, Note_on_c, 9, 56, 0
4, 15098, Note_on_c, 9, 80, 0
4, 15186, Note_on_c, 9, 81, 77
4, 15236, Note_on_c, 9, 35, 0
4, 15294, Note_on_c, 9, 81, 0
4, 15360, Note_on_c, 9, 56, 67
4, 15360, Note_on_c, 9, 35, 61
4, 15364, Note_on_c, 9, 81, 71
4, 15484, Note_on_c, 9, 81, 0
4, 15494, Note_on_c, 9, 56, 0
4, 15570, Note_on_c, 9, 80, 56
4, 15654, Note_on_c, 9, 80, 0
4, 15744, Note_on_c, 9, 56, 63
4, 15766, Note_on_c, 9, 80, 37
4, 15798, Note_on_c, 9, 80, 0
4, 15886, Note_on_c, 9, 56, 0
4, 16014, Note_on_c, 9, 35, 0
4, 16126, Note_on_c, 9, 35, 68
4, 16128, Note_on_c, 9, 56, 63
4, 16272, Note_on_c, 9, 56, 0
4, 16300, Note_on_c, 9, 81, 66
4, 16380, Note_on_c, 9, 81, 0
4, 16512, Note_on_c, 9, 56, 59
4, 16632, Note_on_c, 9, 56, 0
4, 16632, Note_on_c, 9, 35, 0
4, 16696, Note_on_c, 9, 80, 43
4, 16708, Note_on_c, 9, 35, 61
4, 16750, Note_on_c, 9, 80, 0
4, 16930, Note_on_c, 9, 81, 51
4, 17006, Note_on_c, 9, 81, 0
4, 17126, Note_on_c, 9, 81, 32
4, 17208, Note_on_c, 9, 81, 0
4, 17378, Note_on_c, 9, 35, 0
4, 17496, Note_on_c, 9, 81, 58
4, 17602, Note_on_c, 9, 81, 0
4, 17676, Note_on_c, 9, 81, 47
4, 17828, Note_on_c, 9, 81, 0
4, 17874, Note_on_c, 9, 80, 56
4, 17980, Note_on_c, 9, 80, 0
4, 18052, Note_on_c, 9, 81, 33
4, 18128, Note_on_c, 9, 81, 0
4, 18246, Note_on_c, 9, 81, 60
4, 18404, Note_on_c, 9, 81, 0
4, 18432, Note_on_c, 9, 37, 96
4, 18432, Note_on_c, 9, 70, 100
4, 18432, Note_on_c, 9, 56, 72
4, 18432, Note_on_c, 9, 35, 63
4, 18446, Note_on_c, 9, 80, 31
4, 18564, Note_on_c, 9, 80, 0
4, 18574, Note_on_c, 9, 70, 0
4, 18594, Note_on_c, 9, 37, 0
4, 18594, Note_on_c, 9, 56, 0
4, 18626, Note_on_c, 9, 81, 50
4, 18638, Note_on_c, 9, 35, 0
4, 18752, Note_on_c, 9, 81, 0
4, 18816, Note_on_c, 9, 37, 96
4, 18816, Note_on_c, 9, 70, 100
4, 18816, Note_on_c, 9, 56, 63
4, 18820, Note_on_c, 9, 81, 31
4, 18906, Note_on_c, 9, 81, 0
4, 18918, Note_on_c, 9, 70, 0
4, 18966, Note_on_c, 9, 56, 0
4, 18966, Note_on_c, 9, 37, 0
4, 19002, Note_on_c, 9, 80, 49
4, 19010, Note_on_c, 9, 35, 48
4, 19064, Note_on_c, 9, 35, 0
4, 19100, Note_on_c, 9, 80, 0
4, 19192, Note_on_c, 9, 81, 30
4, 19198, Note_on_c, 9, 37, 96
4, 19198, Note_on_c, 9, 35, 68
4, 19200, Note_on_c, 9, 56, 72
4, 19258, Note_on_c, 9, 81, 0
4, 19336, Note_on_c, 9, 37, 0
4, 19338, Note_on_c, 9, 56, 0
4, 19388, Note_on_c, 9, 81, 51
4, 19392, Note_on_c, 9, 70, 91
4, 19480, Note_on_c, 9, 70, 0
4, 19502, Note_on_c, 9, 81, 0
4, 19524, Note_on_c, 9, 35, 0
4, 19574, Note_on_c, 9, 80, 37
4, 19584, Note_on_c, 9, 56, 67
4, 19586, Note_on_c, 9, 37, 96
4, 19688, Note_on_c, 9, 80, 0
4, 19706, Note_on_c, 9, 56, 0
4, 19708, Note_on_c, 9, 37, 0
4, 19756, Note_on_c, 9, 81, 44
4, 19780, Note_on_c, 9, 35, 73
4, 19836, Note_on_c, 9, 81, 0
4, 19840, Note_on_c, 9, 35, 0
4, 19920, Note_on_c, 9, 81, 41
4, 19968, Note_on_c, 9, 56, 63
4, 19974, Note_on_c, 9, 37, 96
4, 19974, Note_on_c, 9, 70, 100
4, 20066, Note_on_c, 9, 70, 0
4, 20078, Note_on_c, 9, 81, 0
4, 20078, Note_on_c, 9, 56, 0
4, 20084, Note_on_c, 9, 37, 0
4, 20138, Note_on_c, 9, 80, 36
4, 20230, Note_on_c, 9, 80, 0
4, 20330, Note_on_c, 9, 81, 37
4, 20352, Note_on_c, 9, 56, 67
4, 20354, Note_on_c, 9, 37, 96
4, 20436, Note_on_c, 9, 81, 0
4, 20446, Note_on_c, 9, 56, 0
4, 20448, Note_on_c, 9, 37, 0
4, 20546, Note_on_c, 9, 70, 100
4, 20546, Note_on_c, 9, 81, 62
4, 20546, Note_on_c, 9, 35, 55
4, 20600, Note_on_c, 9, 35, 0
4, 20636, Note_on_c, 9, 70, 0
4, 20698, Note_on_c, 9, 81, 0
4, 20724, Note_on_c, 9, 80, 30
4, 20736, Note_on_c, 9, 37, 96
4, 20736, Note_on_c, 9, 56, 67
4, 20736, Note_on_c, 9, 35, 68
4, 20838, Note_on_c, 9, 80, 0
4, 20870, Note_on_c, 9, 37, 0
4, 20870, Note_on_c, 9, 56, 0
4, 20920, Note_on_c, 9, 81, 68
4, 20922, Note_on_c, 9, 35, 0
4, 21036, Note_on_c, 9, 81, 0
4, 21120, Note_on_c, 9, 37, 96
4, 21120, Note_on_c, 9, 70, 91
4, 21120, Note_on_c, 9, 56, 63
4, 21124, Note_on_c, 9, 81, 38
4, 21212, Note_on_c, 9, 56, 0
4, 21212, Note_on_c, 9, 37, 0
4, 21214, Note_on_c, 9, 70, 0
4, 21266, Note_on_c, 9, 81, 0
4, 21308, Note_on_c, 9, 35, 48
4, 21322, Note_on_c, 9, 80, 40
4, 21366, Note_on_c, 9, 35, 0
4, 21450, Note_on_c, 9, 80, 0
4, 21504, Note_on_c, 9, 37, 96
4, 21504, Note_on_c, 9, 70, 98
4, 21504, Note_on_c, 9, 56, 67
4, 21504, Note_on_c, 9, 35, 68
4, 21526, Note_on_c, 9, 81, 27
4, 21594, Note_on_c, 9, 70, 0
4, 21614, Note_on_c, 9, 81, 0
4, 21636, Note_on_c, 9, 35, 0
4, 21638, Note_on_c, 9, 56, 0
4, 21638, Note_on_c, 9, 37, 0
4, 21698, Note_on_c, 9, 81, 68
4, 21840, Note_on_c, 9, 81, 0
4, 21888, Note_on_c, 9, 37, 96
4, 21888, Note_on_c, 9, 70, 100
4, 21888, Note_on_c, 9, 56, 63
4, 21896, Note_on_c, 9, 80, 34
4, 21980, Note_on_c, 9, 70, 0
4, 21988, Note_on_c, 9, 80, 0
4, 22030, Note_on_c, 9, 56, 0
4, 22030, Note_on_c, 9, 37, 0
4, 22082, Note_on_c, 9, 35, 58
4, 22084, Note_on_c, 9, 81, 71
4, 22170, Note_on_c, 9, 35, 0
4, 22208, Note_on_c, 9, 81, 0
4, 22270, Note_on_c, 9, 37, 96
4, 22270, Note_on_c, 9, 35, 68
4, 22272, Note_on_c, 9, 56, 63
4, 22282, Note_on_c, 9, 81, 57
4, 22376, Note_on_c, 9, 35, 0
4, 22414, Note_on_c, 9, 37, 0
4, 22416, Note_on_c, 9, 56, 0
4, 22450, Note_on_c, 9, 81, 0
4, 22464, Note_on_c, 9, 70, 100
4, 22510, Note_on_c, 9, 80, 29
4, 22550, Note_on_c, 9, 70, 0
4, 22582, Note_on_c, 9, 80, 0
4, 22656, Note_on_c, 9, 56, 59
4, 22658, Note_on_c, 9, 37, 96
4, 22776, Note_on_c, 9, 56, 0
4, 22778, Note_on_c, 9, 37, 0
4, 22852, Note_on_c, 9, 35, 77
4, 22860, Note_on_c, 9, 81, 78
4, 22920, Note_on_c, 9, 35, 0
4, 22978, Note_on_c, 9, 81, 0
4, 23036, Note_on_c, 9, 81, 66
4, 23040, Note_on_c, 9, 56, 67
4, 23046, Note_on_c, 9, 37, 96
4, 23046, Note_on_c, 9, 70, 91
4, 23146, Note_on_c, 9, 70, 0
4, 23160, Note_on_c, 9, 81, 0
4, 23182, Note_on_c, 9, 56, 0
4, 23188, Note_on_c, 9, 37, 0
4, 23216, Note_on_c, 9, 80, 39
4, 23292, Note_on_c, 9, 80, 0
4, 23404, Note_on_c, 9, 81, 82
4, 23424, Note_on_c, 9, 56, 67
4, 23426, Note_on_c, 9, 37, 96
4, 23542, Note_on_c, 9, 81, 0
4, 23546, Note_on_c, 9, 56, 0
4, 23548, Note_on_c, 9, 37, 0
4, 23618, Note_on_c, 9, 70, 100
4, 23618, Note_on_c, 9, 35, 60
4, 23626, Note_on_c, 9, 81, 51
4, 23672, Note_on_c, 9, 35, 0
4, 23710, Note_on_c, 9, 70, 0
4, 23758, Note_on_c, 9, 81, 0
4, 23808, Note_on_c, 9, 37, 96
4, 23808, Note_on_c, 9, 56, 67
4, 23808, Note_on_c, 9, 35, 70
4, 23874, Note_on_c, 9, 35, 0
4, 23880, Note_on_c, 9, 80, 27
4, 23908, Note_on_c, 9, 80, 0
4, 23928, Note_on_c, 9, 56, 0
4, 23928, Note_on_c, 9, 37, 0
4, 24044, Note_on_c, 9, 81, 75
4, 24140, Note_on_c, 9, 81, 0
4, 24192, Note_on_c, 9, 37, 96
4, 24192, Note_on_c, 9, 70, 100
4, 24192, Note_on_c, 9, 56, 67
4, 24202, Note_on_c, 9, 81, 70
4, 24288, Note_on_c, 9, 70, 0
4, 24308, Note_on_c, 9, 37, 0
4, 24308, Note_on_c, 9, 56, 0
4, 24364, Note_on_c, 9, 81, 0
4, 24380, Note_on_c, 9, 35, 55
4, 24400, Note_on_c, 9, 80, 53
4, 24454, Note_on_c, 9, 35, 0
4, 24488, Note_on_c, 9, 80, 0
4, 24576, Note_on_c, 9, 37, 96
4, 24576, Note_on_c, 9, 70, 100
4, 24576, Note_on_c, 9, 56, 72
4, 24576, Note_on_c, 9, 35, 63
4, 24588, Note_on_c, 9, 81, 44
4, 24644, Note_on_c, 9, 81, 0
4, 24718, Note_on_c, 9, 70, 0
4, 24738, Note_on_c, 9, 37, 0
4, 24738, Note_on_c, 9, 56, 0
4, 24782, Note_on_c, 9, 35, 0
4, 24788, Note_on_c, 9, 81, 91
4, 24886, Note_on_c, 9, 81, 0
4, 24960, Note_on_c, 9, 37, 96
4, 24960, Note_on_c, 9, 70, 100
4, 24960, Note_on_c, 9, 56, 63
4, 24964, Note_on_c, 9, 81, 77
4, 25062, Note_on_c, 9, 70, 0
4, 25110, Note_on_c, 9, 37, 0
4, 25110, Note_on_c, 9, 56, 0
4, 25126, Note_on_c, 9, 81, 0
4, 25154, Note_on_c, 9, 35, 48
4, 25176, Note_on_c, 9, 80, 45
4, 25208, Note_on_c, 9, 35, 0
4, 25260, Note_on_c, 9, 80, 0
4, 25342, Note_on_c, 9, 37, 96
4, 25342, Note_on_c, 9, 35, 68
4, 25344, Note_on_c, 9, 56, 72
4, 25366, Note_on_c, 9, 81, 51
4, 25444, Note_on_c, 9, 81, 0
4, 25480, Note_on_c, 9, 37, 0
4, 25482, Note_on_c, 9, 56, 0
4, 25536, Note_on_c, 9, 70, 91
4, 25550, Note_on_c, 9, 81, 88
4, 25624, Note_on_c, 9, 70, 0
4, 25668, Note_on_c, 9, 35, 0
4, 25688, Note_on_c, 9, 81, 0
4, 25728, Note_on_c, 9, 56, 67
4, 25730, Note_on_c, 9, 37, 96
4, 25798, Note_on_c, 9, 80, 65
4, 25850, Note_on_c, 9, 56, 0
4, 25852, Note_on_c, 9, 37, 0
4, 25862, Note_on_c, 9, 80, 0
4, 25924, Note_on_c, 9, 35, 73
4, 25966, Note_on_c, 9, 81, 80
4, 25984, Note_on_c, 9, 35, 0
4, 26044, Note_on_c, 9, 81, 0
4, 26112, Note_on_c, 9, 56, 63
4, 26118, Note_on_c, 9, 37, 96
4, 26118, Note_on_c, 9, 70, 100
4, 26210, Note_on_c, 9, 70, 0
4, 26222, Note_on_c, 9, 56, 0
4, 26228, Note_on_c, 9, 37, 0
4, 26316, Note_on_c, 9, 81, 83
4, 26414, Note_on_c, 9, 81, 0
4, 26496, Note_on_c, 9, 56, 67
4, 26498, Note_on_c, 9, 37, 96
4, 26506, Note_on_c, 9, 80, 63
4, 26590, Note_on_c, 9, 56, 0
4, 26592, Note_on_c, 9, 37, 0
4, 26598, Note_on_c, 9, 80, 0
4, 26690, Note_on_c, 9, 70, 100
4, 26690, Note_on_c, 9, 81, 60
4, 26690, Note_on_c, 9, 35, 55
4, 26744, Note_on_c, 9, 35, 0
4, 26752, Note_on_c, 9, 81, 0
4, 26780, Note_on_c, 9, 70, 0
4, 26864, Note_on_c, 9, 81, 55
4, 26880, Note_on_c, 9, 37, 96
4, 26880, Note_on_c, 9, 56, 67
4, 26880, Note_on_c, 9, 35, 68
4, 26940, Note_on_c, 9, 81, 0
4, 27014, Note_on_c, 9, 37, 0
4, 27014, Note_on_c, 9, 56, 0
4, 27066, Note_on_c, 9, 35, 0
4, 27072, Note_on_c, 9, 81, 82
4, 27168, Note_on_c, 9, 81, 0
4, 27254, Note_on_c, 9, 80, 60
4, 27264, Note_on_c, 9, 37, 96
4, 27264, Note_on_c, 9, 70, 91
4, 27264, Note_on_c, 9, 56, 63
4, 27348, Note_on_c, 9, 80, 0
4, 27356, Note_on_c, 9, 37, 0
4, 27356, Note_on_c, 9, 56, 0
4, 27358, Note_on_c, 9, 70, 0
4, 27444, Note_on_c, 9, 81, 63
4, 27452, Note_on_c, 9, 35, 48
4, 27510, Note_on_c, 9, 35, 0
4, 27530, Note_on_c, 9, 81, 0
4, 27632, Note_on_c, 9, 81, 65
4, 27648, Note_on_c, 9, 37, 96
4, 27648, Note_on_c, 9, 70, 98
4, 27648, Note_on_c, 9, 56, 67
4, 27648, Note_on_c, 9, 35, 68
4, 27738, Note_on_c, 9, 70, 0
4, 27752, Note_on_c, 9, 81, 0
4, 27780, Note_on_c, 9, 35, 0
4, 27782, Note_on_c, 9, 56, 0
4, 27782, Note_on_c, 9, 37, 0
4, 27816, Note_on_c, 9, 81, 20
4, 27924, Note_on_c, 9, 81, 0
4, 28016, Note_on_c, 9, 81, 59
4, 28032, Note_on_c, 9, 37, 96
4, 28032, Note_on_c, 9, 70, 100
4, 28032, Note_on_c, 9, 56, 63
4, 28104, Note_on_c, 9, 81, 0
4, 28124, Note_on_c, 9, 70, 0
4, 28174, Note_on_c, 9, 37, 0
4, 28174, Note_on_c, 9, 56, 0
4, 28226, Note_on_c, 9, 35, 58
4, 28250, Note_on_c, 9, 81, 74
4, 28314, Note_on_c, 9, 35, 0
4, 28358, Note_on_c, 9, 81, 0
4, 28410, Note_on_c, 9, 80, 36
4, 28414, Note_on_c, 9, 37, 96
4, 28414, Note_on_c, 9, 35, 68
4, 28416, Note_on_c, 9, 56, 63
4, 28476, Note_on_c, 9, 80, 0
4, 28520, Note_on_c, 9, 35, 0
4, 28558, Note_on_c, 9, 37, 0
4, 28560, Note_on_c, 9, 56, 0
4, 28594, Note_on_c, 9, 81, 60
4, 28608, Note_on_c, 9, 70, 100
4, 28694, Note_on_c, 9, 70, 0
4, 28696, Note_on_c, 9, 81, 0
4, 28776, Note_on_c, 9, 81, 59
4, 28800, Note_on_c, 9, 56, 59
4, 28802, Note_on_c, 9, 37, 96
4, 28888, Note_on_c, 9, 81, 0
4, 28920, Note_on_c, 9, 56, 0
4, 28922, Note_on_c, 9, 37, 0
4, 28996, Note_on_c, 9, 35, 77
4, 28996, Note_on_c, 9, 81, 59
4, 29064, Note_on_c, 9, 35, 0
4, 29088, Note_on_c, 9, 81, 0
4, 29184, Note_on_c, 9, 56, 67
4, 29188, Note_on_c, 9, 80, 50
4, 29190, Note_on_c, 9, 37, 96
4, 29190, Note_on_c, 9, 70, 91
4, 29248, Note_on_c, 9, 80, 0
4, 29290, Note_on_c, 9, 70, 0
4, 29326, Note_on_c, 9, 56, 0
4, 29332, Note_on_c, 9, 37, 0
4, 29374, Note_on_c, 9, 81, 73
4, 29530, Note_on_c, 9, 81, 0
4, 29550, Note_on_c, 9, 80, 50
4, 29568, Note_on_c, 9, 56, 67
4, 29570, Note_on_c, 9, 37, 96
4, 29580, Note_on_c, 9, 80, 0
4, 29690, Note_on_c, 9, 56, 0
4, 29692, Note_on_c, 9, 37, 0
4, 29748, Note_on_c, 9, 81, 72
4, 29762, Note_on_c, 9, 70, 100
4, 29762, Note_on_c, 9, 35, 60
4, 29816, Note_on_c, 9, 35, 0
4, 29834, Note_on_c, 9, 81, 0
4, 29854, Note_on_c, 9, 70, 0
4, 29930, Note_on_c, 9, 81, 68
4, 29952, Note_on_c, 9, 37, 96
4, 29952, Note_on_c, 9, 56, 67
4, 29952, Note_on_c, 9, 35, 70
4, 30006, Note_on_c, 9, 81, 0
4, 30018, Note_on_c, 9, 35, 0
4, 30072, Note_on_c, 9, 56, 0
4, 30072, Note_on_c, 9, 37, 0
4, 30124, Note_on_c, 9, 81, 70
4, 30216, Note_on_c, 9, 81, 0
4, 30324, Note_on_c, 9, 81, 70
4, 30336, Note_on_c, 9, 37, 96
4, 30336, Note_on_c, 9, 70, 100
4, 30336, Note_on_c, 9, 56, 67
4, 30432, Note_on_c, 9, 70, 0
4, 30452, Note_on_c, 9, 56, 0
4, 30452, Note_on_c, 9, 37, 0
4, 30464, Note_on_c, 9, 81, 0
4, 30524, Note_on_c, 9, 35, 55
4, 30532, Note_on_c, 9, 80, 56
4, 30598, Note_on_c, 9, 35, 0
4, 30706, Note_on_c, 9, 80, 0
4, 30718, Note_on_c, 9, 81, 47
4, 30720, Note_on_c, 9, 37, 96
4, 30720, Note_on_c, 9, 70, 100
4, 30720, Note_on_c, 9, 56, 72
4, 30720, Note_on_c, 9, 35, 63
4, 30814, Note_on_c, 9, 81, 0
4, 30862, Note_on_c, 9, 70, 0
4, 30882, Note_on_c, 9, 37, 0
4, 30882, Note_on_c, 9, 56, 0
4, 30900, Note_on_c, 9, 81, 63
4, 30926, Note_on_c, 9, 35, 0
4, 31028, Note_on_c, 9, 81, 0
4, 31104, Note_on_c, 9, 37, 96
4, 31104, Note_on_c, 9, 70, 100
4, 31104, Note_on_c, 9, 56, 63
4, 31108, Note_on_c, 9, 81, 27
4, 31206, Note_on_c, 9, 70, 0
4, 31220, Note_on_c, 9, 81, 0
4, 31254, Note_on_c, 9, 56, 0
4, 31254, Note_on_c, 9, 37, 0
4, 31298, Note_on_c, 9, 35, 48
4, 31300, Note_on_c, 9, 81, 71
4, 31352, Note_on_c, 9, 35, 0
4, 31408, Note_on_c, 9, 81, 0
4, 31486, Note_on_c, 9, 37, 96
4, 31486, Note_on_c, 9, 35, 68
4, 31488, Note_on_c, 9, 56, 72
4, 31488, Note_on_c, 9, 81, 68
4, 31624, Note_on_c, 9, 37, 0
4, 31626, Note_on_c, 9, 56, 0
4, 31648, Note_on_c, 9, 81, 0
4, 31680, Note_on_c, 9, 70, 91
4, 31694, Note_on_c, 9, 80, 56
4, 31768, Note_on_c, 9, 70, 0
4, 31812, Note_on_c, 9, 35, 0
4, 31826, Note_on_c, 9, 80, 0
4, 31868, Note_on_c, 9, 81, 46
4, 31872, Note_on_c, 9, 56, 67
4, 31874, Note_on_c, 9, 37, 96
4, 31974, Note_on_c, 9, 81, 0
4, 31994, Note_on_c, 9, 56, 0
4, 31996, Note_on_c, 9, 37, 0
4, 32068, Note_on_c, 9, 35, 73
4, 32074, Note_on_c, 9, 81, 75
4, 32128, Note_on_c, 9, 35, 0
4, 32182, Note_on_c, 9, 81, 0
4, 32256, Note_on_c, 9, 56, 63
4, 32262, Note_on_c, 9, 37, 96
4, 32262, Note_on_c, 9, 70, 100
4, 32262, Note_on_c, 9, 81, 63
4, 32354, Note_on_c, 9, 70, 0
4, 32366, Note_on_c, 9, 56, 0
4, 32372, Note_on_c, 9, 37, 0
4, 32422, Note_on_c, 9, 81, 0
4, 32466, Note_on_c, 9, 80, 46
4, 32578, Note_on_c, 9, 80, 0
4, 32640, Note_on_c, 9, 56, 67
4, 32642, Note_on_c, 9, 81, 55
4, 32642, Note_on_c, 9, 37, 96
4, 32734, Note_on_c, 9, 56, 0
4, 32736, Note_on_c, 9, 37, 0
4, 32786, Note_on_c, 9, 81, 0
4, 32822, Note_on_c, 9, 80, 64
4, 32834, Note_on_c, 9, 70, 100
4, 32834, Note_on_c, 9, 35, 55
4, 32888, Note_on_c, 9, 35, 0
4, 32924, Note_on_c, 9, 70, 0
4, 32962, Note_on_c, 9, 80, 0
4, 33024, Note_on_c, 9, 37, 96
4, 33024, Note_on_c, 9, 56, 67
4, 33024, Note_on_c, 9, 35, 68
4, 33028, Note_on_c, 9, 81, 58
4, 33126, Note_on_c, 9, 81, 0
4, 33158, Note_on_c, 9, 37, 0
4, 33158, Note_on_c, 9, 56, 0
4, 33210, Note_on_c, 9, 35, 0
4, 33238, Note_on_c, 9, 81, 54
4, 33328, Note_on_c, 9, 81, 0
4, 33408, Note_on_c, 9, 37, 96
4, 33408, Note_on_c, 9, 70, 91
4, 33408, Note_on_c, 9, 56, 63
4, 33416, Note_on_c, 9, 81, 62
4, 33500, Note_on_c, 9, 56, 0
4, 33500, Note_on_c, 9, 37, 0
4, 33502, Note_on_c, 9, 70, 0
4, 33536, Note_on_c, 9, 81, 0
4, 33596, Note_on_c, 9, 35, 48
4, 33620, Note_on_c, 9, 80, 64
4, 33654, Note_on_c, 9, 35, 0
4, 33736, Note_on_c, 9, 80, 0
4, 33792, Note_on_c, 9, 37, 96
4, 33792, Note_on_c, 9, 70, 98
4, 33792, Note_on_c, 9, 56, 67
4, 33792, Note_on_c, 9, 35, 68
4, 33806, Note_on_c, 9, 81, 38
4, 33882, Note_on_c, 9, 70, 0
4, 33892, Note_on_c, 9, 81, 0
4, 33924, Note_on_c, 9, 35, 0
4, 33926, Note_on_c, 9, 56, 0
4, 33926, Note_on_c, 9, 37, 0
4, 34010, Note_on_c, 9, 81, 63
4, 34110, Note_on_c, 9, 81, 0
4, 34176, Note_on_c, 9, 37, 96
4, 34176, Note_on_c, 9, 70, 100
4, 34176, Note_on_c, 9, 56, 63
4, 34204, Note_on_c, 9, 81, 49
4, 34268, Note_on_c, 9, 70, 0
4, 34292, Note_on_c, 9, 81, 0
4, 34318, Note_on_c, 9, 56, 0
4, 34318, Note_on_c, 9, 37, 0
4, 34370, Note_on_c, 9, 35, 58
4, 34386, Note_on_c, 9, 81, 64
4, 34458, Note_on_c, 9, 35, 0
4, 34498, Note_on_c, 9, 81, 0
4, 34558, Note_on_c, 9, 37, 96
4, 34558, Note_on_c, 9, 35, 68
4, 34560, Note_on_c, 9, 56, 63
4, 34562, Note_on_c, 9, 81, 76
4, 34664, Note_on_c, 9, 35, 0
4, 34702, Note_on_c, 9, 37, 0
4, 34704, Note_on_c, 9, 56, 0
4, 34714, Note_on_c, 9, 81, 0
4, 34752, Note_on_c, 9, 70, 100
4, 34758, Note_on_c, 9, 80, 56
4, 34838, Note_on_c, 9, 70, 0
4, 34892, Note_on_c, 9, 80, 0
4, 34938, Note_on_c, 9, 81, 53
4, 34944, Note_on_c, 9, 56, 59
4, 34946, Note_on_c, 9, 37, 96
4, 35064, Note_on_c, 9, 56, 0
4, 35066, Note_on_c, 9, 37, 0
4, 35088, Note_on_c, 9, 81, 0
4, 35132, Note_on_c, 9, 80, 67
4, 35140, Note_on_c, 9, 35, 77
4, 35208, Note_on_c, 9, 35, 0
4, 35258, Note_on_c, 9, 80, 0
4, 35326, Note_on_c, 9, 81, 51
4, 35328, Note_on_c, 9, 56, 67
4, 35334, Note_on_c, 9, 37, 96
4, 35334, Note_on_c, 9, 70, 91
4, 35420, Note_on_c, 9, 81, 0
4, 35434, Note_on_c, 9, 70, 0
4, 35470, Note_on_c, 9, 56, 0
4, 35476, Note_on_c, 9, 37, 0
4, 35532, Note_on_c, 9, 81, 44
4, 35598, Note_on_c, 9, 81, 0
4, 35712, Note_on_c, 9, 56, 67
4, 35714, Note_on_c, 9, 37, 96
4, 35720, Note_on_c, 9, 81, 48
4, 35786, Note_on_c, 9, 81, 0
4, 35834, Note_on_c, 9, 56, 0
4, 35836, Note_on_c, 9, 37, 0
4, 35906, Note_on_c, 9, 70, 100
4, 35906, Note_on_c, 9, 35, 60
4, 35908, Note_on_c, 9, 81, 69
4, 35960, Note_on_c, 9, 35, 0
4, 35976, Note_on_c, 9, 81, 0
4, 35998, Note_on_c, 9, 70, 0
4, 36096, Note_on_c, 9, 37, 96
4, 36096, Note_on_c, 9, 56, 67
4, 36096, Note_on_c, 9, 35, 70
4, 36100, Note_on_c, 9, 81, 87
4, 36162, Note_on_c, 9, 35, 0
4, 36216, Note_on_c, 9, 37, 0
4, 36216, Note_on_c, 9, 56, 0
4, 36264, Note_on_c, 9, 81, 0
4, 36292, Note_on_c, 9, 80, 57
4, 36390, Note_on_c, 9, 80, 0
4, 36480, Note_on_c, 9, 37, 96
4, 36480, Note_on_c, 9, 70, 100
4, 36480, Note_on_c, 9, 56, 67
4, 36486, Note_on_c, 9, 81, 47
4, 36576, Note_on_c, 9, 70, 0
4, 36586, Note_on_c, 9, 81, 0
4, 36596, Note_on_c, 9, 56, 0
4, 36596, Note_on_c, 9, 37, 0
4, 36668, Note_on_c, 9, 35, 55
4, 36674, Note_on_c, 9, 80, 64
4, 36742, Note_on_c, 9, 35, 0
4, 36768, Note_on_c, 9, 80, 0
4, 36864, Note_on_c, 9, 37, 96
4, 36864, Note_on_c, 9, 70, 100
4, 36864, Note_on_c, 9, 56, 72
4, 36864, Note_on_c, 9, 35, 63
4, 36876, Note_on_c, 9, 81, 57
4, 36962, Note_on_c, 9, 81, 0
4, 37006, Note_on_c, 9, 70, 0
4, 37026, Note_on_c, 9, 37, 0
4, 37026, Note_on_c, 9, 56, 0
4, 37070, Note_on_c, 9, 35, 0
4, 37080, Note_on_c, 9, 81, 49
4, 37160, Note_on_c, 9, 81, 0
4, 37244, Note_on_c, 9, 80, 59
4, 37248, Note_on_c, 9, 37, 96
4, 37248, Note_on_c, 9, 70, 100
4, 37248, Note_on_c, 9, 56, 63
4, 37350, Note_on_c, 9, 70, 0
4, 37394, Note_on_c, 9, 80, 0
4, 37398, Note_on_c, 9, 37, 0
4, 37398, Note_on_c, 9, 56, 0
4, 37442, Note_on_c, 9, 35, 48
4, 37446, Note_on_c, 9, 81, 47
4, 37496, Note_on_c, 9, 35, 0
4, 37530, Note_on_c, 9, 81, 0
4, 37630, Note_on_c, 9, 37, 96
4, 37630, Note_on_c, 9, 35, 68
4, 37632, Note_on_c, 9, 56, 72
4, 37632, Note_on_c, 9, 81, 54
4, 37756, Note_on_c, 9, 81, 0
4, 37768, Note_on_c, 9, 37, 0
4, 37770, Note_on_c, 9, 56, 0
4, 37824, Note_on_c, 9, 70, 91
4, 37834, Note_on_c, 9, 80, 72
4, 37912, Note_on_c, 9, 70, 0
4, 37956, Note_on_c, 9, 80, 0
4, 37956, Note_on_c, 9, 35, 0
4, 38016, Note_on_c, 9, 56, 67
4, 38018, Note_on_c, 9, 37, 96
4, 38022, Note_on_c, 9, 81, 37
4, 38092, Note_on_c, 9, 81, 0
4, 38138, Note_on_c, 9, 56, 0
4, 38140, Note_on_c, 9, 37, 0
4, 38212, Note_on_c, 9, 35, 73
4, 38216, Note_on_c, 9, 81, 63
4, 38272, Note_on_c, 9, 35, 0
4, 38344, Note_on_c, 9, 81, 0
4, 38400, Note_on_c, 9, 56, 63
4, 38404, Note_on_c, 9, 80, 73
4, 38406, Note_on_c, 9, 37, 96
4, 38406, Note_on_c, 9, 70, 100
4, 38498, Note_on_c, 9, 70, 0
4, 38508, Note_on_c, 9, 80, 0
4, 38510, Note_on_c, 9, 56, 0
4, 38516, Note_on_c, 9, 37, 0
4, 38600, Note_on_c, 9, 81, 51
4, 38700, Note_on_c, 9, 81, 0
4, 38784, Note_on_c, 9, 56, 67
4, 38786, Note_on_c, 9, 37, 96
4, 38798, Note_on_c, 9, 81, 48
4, 38878, Note_on_c, 9, 56, 0
4, 38880, Note_on_c, 9, 37, 0
4, 38888, Note_on_c, 9, 81, 0
4, 38978, Note_on_c, 9, 70, 100
4, 38978, Note_on_c, 9, 35, 55
4, 38982, Note_on_c, 9, 80, 78
4, 39032, Note_on_c, 9, 35, 0
4, 39068, Note_on_c, 9, 70, 0
4, 39104, Note_on_c, 9, 80, 0
4, 39166, Note_on_c, 9, 81, 53
4, 39168, Note_on_c, 9, 37, 96
4, 39168, Note_on_c, 9, 56, 67
4, 39168, Note_on_c, 9, 35, 68
4, 39302, Note_on_c, 9, 56, 0
4, 39302, Note_on_c, 9, 37, 0
4, 39330, Note_on_c, 9, 81, 0
4, 39354, Note_on_c, 9, 35, 0
4, 39374, Note_on_c, 9, 80, 83
4, 39492, Note_on_c, 9, 80, 0
4, 39552, Note_on_c, 9, 37, 96
4, 39552, Note_on_c, 9, 70, 91
4, 39552, Note_on_c, 9, 56, 63
4, 39554, Note_on_c, 9, 81, 60
4, 39644, Note_on_c, 9, 56, 0
4, 39644, Note_on_c, 9, 37, 0
4, 39646, Note_on_c, 9, 70, 0
4, 39664, Note_on_c, 9, 81, 0
4, 39740, Note_on_c, 9, 35, 48
4, 39774, Note_on_c, 9, 81, 52
4, 39798, Note_on_c, 9, 35, 0
4, 39866, Note_on_c, 9, 81, 0
4, 39936, Note_on_c, 9, 37, 96
4, 39936, Note_on_c, 9, 70, 98
4, 39936, Note_on_c, 9, 56, 67
4, 39936, Note_on_c, 9, 35, 68
4, 39954, Note_on_c, 9, 81, 60
4, 40026, Note_on_c, 9, 70, 0
4, 40068, Note_on_c, 9, 35, 0
4, 40070, Note_on_c, 9, 37, 0
4, 40070, Note_on_c, 9, 56, 0
4, 40082, Note_on_c, 9, 81, 0
4, 40134, Note_on_c, 9, 80, 74
4, 40246, Note_on_c, 9, 80, 0
4, 40320, Note_on_c, 9, 37, 96
4, 40320, Note_on_c, 9, 70, 100
4, 40320, Note_on_c, 9, 56, 63
4, 40336, Note_on_c, 9, 81, 50
4, 40412, Note_on_c, 9, 70, 0
4, 40436, Note_on_c, 9, 81, 0
4, 40462, Note_on_c, 9, 56, 0
4, 40462, Note_on_c, 9, 37, 0
4, 40514, Note_on_c, 9, 35, 58
4, 40538, Note_on_c, 9, 81, 64
4, 40602, Note_on_c, 9, 35, 0
4, 40650, Note_on_c, 9, 81, 0
4, 40702, Note_on_c, 9, 37, 96
4, 40702, Note_on_c, 9, 35, 68
4, 40704, Note_on_c, 9, 56, 63
4, 40708, Note_on_c, 9, 80, 72
4, 40808, Note_on_c, 9, 35, 0
4, 40846, Note_on_c, 9, 37, 0
4, 40848, Note_on_c, 9, 56, 0
4, 40858, Note_on_c, 9, 80, 0
4, 40896, Note_on_c, 9, 70, 100
4, 40912, Note_on_c, 9, 81, 60
4, 40982, Note_on_c, 9, 70, 0
4, 41026, Note_on_c, 9, 81, 0
4, 41088, Note_on_c, 9, 56, 59
4, 41090, Note_on_c, 9, 37, 96
4, 41092, Note_on_c, 9, 80, 73
4, 41208, Note_on_c, 9, 56, 0
4, 41210, Note_on_c, 9, 37, 0
4, 41246, Note_on_c, 9, 80, 0
4, 41284, Note_on_c, 9, 35, 77
4, 41312, Note_on_c, 9, 81, 61
4, 41352, Note_on_c, 9, 35, 0
4, 41408, Note_on_c, 9, 81, 0
4, 41472, Note_on_c, 9, 56, 67
4, 41478, Note_on_c, 9, 37, 96
4, 41478, Note_on_c, 9, 70, 91
4, 41508, Note_on_c, 9, 81, 54
4, 41578, Note_on_c, 9, 70, 0
4, 41614, Note_on_c, 9, 56, 0
4, 41620, Note_on_c, 9, 37, 0
4, 41628, Note_on_c, 9, 81, 0
4, 41676, Note_on_c, 9, 80, 76
4, 41834, Note_on_c, 9, 80, 0
4, 41856, Note_on_c, 9, 56, 67
4, 41858, Note_on_c, 9, 37, 96
4, 41862, Note_on_c, 9, 81, 53
4, 41976, Note_on_c, 9, 81, 0
4, 41978, Note_on_c, 9, 56, 0
4, 41980, Note_on_c, 9, 37, 0
4, 42050, Note_on_c, 9, 70, 100
4, 42050, Note_on_c, 9, 35, 60
4, 42066, Note_on_c, 9, 81, 60
4, 42104, Note_on_c, 9, 35, 0
4, 42142, Note_on_c, 9, 70, 0
4, 42204, Note_on_c, 9, 81, 0
4, 42224, Note_on_c, 9, 80, 77
4, 42240, Note_on_c, 9, 37, 96
4, 42240, Note_on_c, 9, 56, 67
4, 42240, Note_on_c, 9, 35, 70
4, 42306, Note_on_c, 9, 35, 0
4, 42348, Note_on_c, 9, 80, 0
4, 42360, Note_on_c, 9, 56, 0
4, 42360, Note_on_c, 9, 37, 0
4, 42424, Note_on_c, 9, 81, 57
4, 42570, Note_on_c, 9, 81, 0
4, 42620, Note_on_c, 9, 80, 82
4, 42624, Note_on_c, 9, 37, 96
4, 42624, Note_on_c, 9, 70, 100
4, 42624, Note_on_c, 9, 56, 67
4, 42720, Note_on_c, 9, 70, 0
4, 42740, Note_on_c, 9, 56, 0
4, 42740, Note_on_c, 9, 37, 0
4, 42742, Note_on_c, 9, 80, 0
4, 42812, Note_on_c, 9, 35, 55
4, 42834, Note_on_c, 9, 81, 50
4, 42886, Note_on_c, 9, 35, 0
4, 42922, Note_on_c, 9, 81, 0
4, 43008, Note_on_c, 9, 37, 96
4, 43008, Note_on_c, 9, 70, 100
4, 43008, Note_on_c, 9, 56, 72
4, 43008, Note_on_c, 9, 35, 63
4, 43032, Note_on_c, 9, 81, 53
4, 43150, Note_on_c, 9, 70, 0
4, 43156, Note_on_c, 9, 81, 0
4, 43170, Note_on_c, 9, 37, 0
4, 43170, Note_on_c, 9, 56, 0
4, 43204, Note_on_c, 9, 80, 78
4, 43214, Note_on_c, 9, 35, 0
4, 43352, Note_on_c, 9, 80, 0
4, 43392, Note_on_c, 9, 37, 96
4, 43392, Note_on_c, 9, 70, 100
4, 43392, Note_on_c, 9, 56, 63
4, 43396, Note_on_c, 9, 81, 48
4, 43494, Note_on_c, 9, 70, 0
4, 43496, Note_on_c, 9, 81, 0
4, 43542, Note_on_c, 9, 56, 0
4, 43542, Note_on_c, 9, 37, 0
4, 43586, Note_on_c, 9, 35, 48
4, 43590, Note_on_c, 9, 81, 58
4, 43640, Note_on_c, 9, 35, 0
4, 43708, Note_on_c, 9, 81, 0
4, 43746, Note_on_c, 9, 80, 77
4, 43774, Note_on_c, 9, 37, 96
4, 43774, Note_on_c, 9, 35, 68
4, 43776, Note_on_c, 9, 56, 72
4, 43892, Note_on_c, 9, 80, 0
4, 43912, Note_on_c, 9, 37, 0
4, 43914, Note_on_c, 9, 56, 0
4, 43944, Note_on_c, 9, 81, 42
4, 43968, Note_on_c, 9, 70, 91
4, 44034, Note_on_c, 9, 81, 0
4, 44056, Note_on_c, 9, 70, 0
4, 44100, Note_on_c, 9, 35, 0
4, 44134, Note_on_c, 9, 81, 59
4, 44160, Note_on_c, 9, 56, 67
4, 44162, Note_on_c, 9, 37, 96
4, 44228, Note_on_c, 9, 80, 82
4, 44230, Note_on_c, 9, 81, 0
4, 44282, Note_on_c, 9, 56, 0
4, 44284, Note_on_c, 9, 37, 0
4, 44346, Note_on_c, 9, 80, 0
4, 44356, Note_on_c, 9, 35, 73
4, 44416, Note_on_c, 9, 35, 0
4, 44544, Note_on_c, 9, 56, 63
4, 44550, Note_on_c, 9, 37, 96
4, 44550, Note_on_c, 9, 70, 100
4, 44642, Note_on_c, 9, 70, 0
4, 44654, Note_on_c, 9, 56, 0
4, 44660, Note_on_c, 9, 37, 0
4, 44722, Note_on_c, 9, 81, 67
4, 44826, Note_on_c, 9, 81, 0
4, 44928, Note_on_c, 9, 56, 67
4, 44930, Note_on_c, 9, 37, 96
4, 44930, Note_on_c, 9, 81, 51
4, 45018, Note_on_c, 9, 81, 0
4, 45022, Note_on_c, 9, 56, 0
4, 45024, Note_on_c, 9, 37, 0
4, 45122, Note_on_c, 9, 70, 100
4, 45122, Note_on_c, 9, 80, 72
4, 45122, Note_on_c, 9, 35, 55
4, 45176, Note_on_c, 9, 35, 0
4, 45212, Note_on_c, 9, 70, 0
4, 45226, Note_on_c, 9, 80, 0
4, 45312, Note_on_c, 9, 37, 96
4, 45312, Note_on_c, 9, 56, 67
4, 45312, Note_on_c, 9, 35, 68
4, 45344, Note_on_c, 9, 81, 20
4, 45392, Note_on_c, 9, 81, 0
4, 45446, Note_on_c, 9, 37, 0
4, 45446, Note_on_c, 9, 56, 0
4, 45498, Note_on_c, 9, 35, 0
4, 45514, Note_on_c, 9, 81, 64
4, 45628, Note_on_c, 9, 81, 0
4, 45670, Note_on_c, 9, 80, 68
4, 45696, Note_on_c, 9, 37, 96
4, 45696, Note_on_c, 9, 70, 91
4, 45696, Note_on_c, 9, 56, 63
4, 45772, Note_on_c, 9, 80, 0
4, 45788, Note_on_c, 9, 37, 0
4, 45788, Note_on_c, 9, 56, 0
4, 45790, Note_on_c, 9, 70, 0
4, 45866, Note_on_c, 9, 81, 49
4, 45884, Note_on_c, 9, 35, 48
4, 45926, Note_on_c, 9, 81, 0
4, 45942, Note_on_c, 9, 35, 0
4, 46076, Note_on_c, 9, 81, 55
4, 46080, Note_on_c, 9, 37, 96
4, 46080, Note_on_c, 9, 70, 98
4, 46080, Note_on_c, 9, 56, 67
4, 46080, Note_on_c, 9, 35, 68
4, 46164, Note_on_c, 9, 81, 0
4, 46170, Note_on_c, 9, 70, 0
4, 46212, Note_on_c, 9, 35, 0
4, 46214, Note_on_c, 9, 56, 0
4, 46214, Note_on_c, 9, 37, 0
4, 46288, Note_on_c, 9, 80, 68
4, 46390, Note_on_c, 9, 80, 0
4, 46456, Note_on_c, 9, 81, 54
4, 46464, Note_on_c, 9, 37, 96
4, 46464, Note_on_c, 9, 70, 100
4, 46464, Note_on_c, 9, 56, 63
4, 46548, Note_on_c, 9, 81, 0
4, 46556, Note_on_c, 9, 70, 0
4, 46606, Note_on_c, 9, 37, 0
4, 46606, Note_on_c, 9, 56, 0
4, 46658, Note_on_c, 9, 35, 58
4, 46680, Note_on_c, 9, 81, 57
4, 46746, Note_on_c, 9, 35, 0
4, 46770, Note_on_c, 9, 81, 0
4, 46846, Note_on_c, 9, 37, 96
4, 46846, Note_on_c, 9, 35, 68
4, 46848, Note_on_c, 9, 56, 63
4, 46856, Note_on_c, 9, 80, 71
4, 46952, Note_on_c, 9, 35, 0
4, 46962, Note_on_c, 9, 80, 0
4, 46990, Note_on_c, 9, 37, 0
4, 46992, Note_on_c, 9, 56, 0
4, 47040, Note_on_c, 9, 70, 100
4, 47068, Note_on_c, 9, 81, 51
4, 47126, Note_on_c, 9, 70, 0
4, 47138, Note_on_c, 9, 81, 0
4, 47232, Note_on_c, 9, 56, 59
4, 47234, Note_on_c, 9, 37, 96
4, 47244, Note_on_c, 9, 80, 78
4, 47344, Note_on_c, 9, 80, 0
4, 47352, Note_on_c, 9, 56, 0
4, 47354, Note_on_c, 9, 37, 0
4, 47428, Note_on_c, 9, 35, 77
4, 47448, Note_on_c, 9, 81, 56
4, 47496, Note_on_c, 9, 35, 0
4, 47534, Note_on_c, 9, 81, 0
4, 47616, Note_on_c, 9, 56, 67
4, 47622, Note_on_c, 9, 37, 96
4, 47622, Note_on_c, 9, 70, 91
4, 47650, Note_on_c, 9, 81, 45
4, 47722, Note_on_c, 9, 70, 0
4, 47726, Note_on_c, 9, 81, 0
4, 47758, Note_on_c, 9, 56, 0
4, 47764, Note_on_c, 9, 37, 0
4, 47818, Note_on_c, 9, 80, 79
4, 47966, Note_on_c, 9, 80, 0
4, 48000, Note_on_c, 9, 56, 67
4, 48002, Note_on_c, 9, 37, 96
4, 48020, Note_on_c, 9, 81, 44
4, 48110, Note_on_c, 9, 81, 0
4, 48122, Note_on_c, 9, 56, 0
4, 48124, Note_on_c, 9, 37, 0
4, 48194, Note_on_c, 9, 70, 100
4, 48194, Note_on_c, 9, 35, 60
4, 48214, Note_on_c, 9, 81, 57
4, 48248, Note_on_c, 9, 35, 0
4, 48286, Note_on_c, 9, 70, 0
4, 48324, Note_on_c, 9, 81, 0
4, 48384, Note_on_c, 9, 37, 96
4, 48384, Note_on_c, 9, 56, 67
4, 48384, Note_on_c, 9, 35, 70
4, 48388, Note_on_c, 9, 80, 70
4, 48450, Note_on_c, 9, 35, 0
4, 48504, Note_on_c, 9, 37, 0
4, 48504, Note_on_c, 9, 56, 0
4, 48550, Note_on_c, 9, 80, 0
4, 48594, Note_on_c, 9, 81, 49
4, 48696, Note_on_c, 9, 81, 0
4, 48768, Note_on_c, 9, 37, 96
4, 48768, Note_on_c, 9, 70, 100
4, 48768, Note_on_c, 9, 56, 67
4, 48772, Note_on_c, 9, 80, 74
4, 48864, Note_on_c, 9, 70, 0
4, 48884, Note_on_c, 9, 37, 0
4, 48884, Note_on_c, 9, 56, 0
4, 48900, Note_on_c, 9, 80, 0
4, 48956, Note_on_c, 9, 35, 55
4, 48972, Note_on_c, 9, 81, 49
4, 49030, Note_on_c, 9, 35, 0
4, 49042, Note_on_c, 9, 81, 0
4, 49152, Note_on_c, 9, 37, 96
4, 49152, Note_on_c, 9, 70, 100
4, 49152, Note_on_c, 9, 56, 72
4, 49152, Note_on_c, 9, 35, 63
4, 49166, Note_on_c, 9, 81, 50
4, 49276, Note_on_c, 9, 81, 0
4, 49294, Note_on_c, 9, 70, 0
4, 49314, Note_on_c, 9, 37, 0
4, 49314, Note_on_c, 9, 56, 0
4, 49352, Note_on_c, 9, 80, 79
4, 49358, Note_on_c, 9, 35, 0
4, 49506, Note_on_c, 9, 80, 0
4, 49526, Note_on_c, 9, 81, 41
4, 49536, Note_on_c, 9, 37, 96
4, 49536, Note_on_c, 9, 70, 100
4, 49536, Note_on_c, 9, 56, 63
4, 49556, Note_on_c, 9, 62, 96
4, 49622, Note_on_c, 9, 81, 0
4, 49638, Note_on_c, 9, 70, 0
4, 49682, Note_on_c, 9, 62, 0
4, 49686, Note_on_c, 9, 56, 0
4, 49686, Note_on_c, 9, 37, 0
4, 49730, Note_on_c, 9, 35, 48
4, 49736, Note_on_c, 9, 81, 55
4, 49784, Note_on_c, 9, 35, 0
4, 49844, Note_on_c, 9, 81, 0
4, 49918, Note_on_c, 9, 37, 96
4, 49918, Note_on_c, 9, 35, 68
4, 49920, Note_on_c, 9, 56, 72
4, 49934, Note_on_c, 9, 80, 80
4, 50056, Note_on_c, 9, 37, 0
4, 50058, Note_on_c, 9, 56, 0
4, 50062, Note_on_c, 9, 80, 0
4, 50112, Note_on_c, 9, 70, 91
4, 50122, Note_on_c, 9, 81, 53
4, 50200, Note_on_c, 9, 70, 0
4, 50210, Note_on_c, 9, 81, 0
4, 50244, Note_on_c, 9, 35, 0
4, 50304, Note_on_c, 9, 56, 67
4, 50306, Note_on_c, 9, 37, 96
4, 50306, Note_on_c, 9, 81, 58
4, 50316, Note_on_c, 9, 64, 65
4, 50398, Note_on_c, 9, 64, 0
4, 50406, Note_on_c, 9, 81, 0
4, 50426, Note_on_c, 9, 56, 0
4, 50428, Note_on_c, 9, 37, 0
4, 50500, Note_on_c, 9, 35, 73
4, 50506, Note_on_c, 9, 64, 69
4, 50510, Note_on_c, 9, 80, 82
4, 50560, Note_on_c, 9, 35, 0
4, 50600, Note_on_c, 9, 64, 0
4, 50630, Note_on_c, 9, 80, 0
4, 50688, Note_on_c, 9, 56, 63
4, 50694, Note_on_c, 9, 37, 96
4, 50694, Note_on_c, 9, 70, 100
4, 50694, Note_on_c, 9, 81, 42
4, 50786, Note_on_c, 9, 70, 0
4, 50792, Note_on_c, 9, 81, 0
4, 50798, Note_on_c, 9, 56, 0
4, 50804, Note_on_c, 9, 37, 0
4, 50892, Note_on_c, 9, 81, 57
4, 51020, Note_on_c, 9, 81, 0
4, 51066, Note_on_c, 9, 80, 79
4, 51072, Note_on_c, 9, 56, 67
4, 51074, Note_on_c, 9, 37, 96
4, 51084, Note_on_c, 9, 62, 92
4, 51166, Note_on_c, 9, 56, 0
4, 51168, Note_on_c, 9, 37, 0
4, 51184, Note_on_c, 9, 80, 0
4, 51206, Note_on_c, 9, 62, 0
4, 51266, Note_on_c, 9, 70, 100
4, 51266, Note_on_c, 9, 35, 55
4, 51274, Note_on_c, 9, 81, 50
4, 51320, Note_on_c, 9, 35, 0
4, 51346, Note_on_c, 9, 81, 0
4, 51356, Note_on_c, 9, 70, 0
4, 51456, Note_on_c, 9, 37, 96
4, 51456, Note_on_c, 9, 56, 67
4, 51456, Note_on_c, 9, 35, 68
4, 51460, Note_on_c, 9, 81, 55
4, 51590, Note_on_c, 9, 81, 0
4, 51590, Note_on_c, 9, 37, 0
4, 51590, Note_on_c, 9, 56, 0
4, 51642, Note_on_c, 9, 35, 0
4, 51658, Note_on_c, 9, 80, 79
4, 51786, Note_on_c, 9, 80, 0
4, 51822, Note_on_c, 9, 63, 65
4, 51840, Note_on_c, 9, 37, 96
4, 51840, Note_on_c, 9, 70, 91
4, 51840, Note_on_c, 9, 56, 63
4, 51846, Note_on_c, 9, 81, 49
4, 51904, Note_on_c, 9, 63, 0
4, 51932, Note_on_c, 9, 56, 0
4, 51932, Note_on_c, 9, 37, 0
4, 51934, Note_on_c, 9, 70, 0
4, 51968, Note_on_c, 9, 81, 0
4, 52018, Note_on_c, 9, 63, 77
4, 52028, Note_on_c, 9, 35, 48
4, 52034, Note_on_c, 9, 80, 85
4, 52086, Note_on_c, 9, 35, 0
4, 52138, Note_on_c, 9, 63, 0
4, 52180, Note_on_c, 9, 80, 0
4, 52224, Note_on_c, 9, 37, 96
4, 52224, Note_on_c, 9, 70, 98
4, 52224, Note_on_c, 9, 56, 67
4, 52224, Note_on_c, 9, 35, 68
4, 52234, Note_on_c, 9, 81, 47
4, 52314, Note_on_c, 9, 70, 0
4, 52342, Note_on_c, 9, 81, 0
4, 52356, Note_on_c, 9, 35, 0
4, 52358, Note_on_c, 9, 56, 0
4, 52358, Note_on_c, 9, 37, 0
4, 52448, Note_on_c, 9, 81, 48
4, 52536, Note_on_c, 9, 81, 0
4, 52608, Note_on_c, 9, 37, 96
4, 52608, Note_on_c, 9, 70, 100
4, 52608, Note_on_c, 9, 56, 63
4, 52612, Note_on_c, 9, 81, 56
4, 52616, Note_on_c, 9, 62, 92
4, 52700, Note_on_c, 9, 70, 0
4, 52726, Note_on_c, 9, 81, 0
4, 52732, Note_on_c, 9, 62, 0
4, 52750, Note_on_c, 9, 56, 0
4, 52750, Note_on_c, 9, 37, 0
4, 52802, Note_on_c, 9, 35, 58
4, 52806, Note_on_c, 9, 80, 82
4, 52890, Note_on_c, 9, 35, 0
4, 52902, Note_on_c, 9, 80, 0
4, 52986, Note_on_c, 9, 81, 47
4, 52990, Note_on_c, 9, 37, 96
4, 52990, Note_on_c, 9, 35, 68
4, 52992, Note_on_c, 9, 56, 63
4, 53086, Note_on_c, 9, 81, 0
4, 53096, Note_on_c, 9, 35, 0
4, 53134, Note_on_c, 9, 37, 0
4, 53136, Note_on_c, 9, 56, 0
4, 53184, Note_on_c, 9, 70, 100
4, 53198, Note_on_c, 9, 81, 53
4, 53270, Note_on_c, 9, 70, 0
4, 53314, Note_on_c, 9, 81, 0
4, 53356, Note_on_c, 9, 80, 75
4, 53374, Note_on_c, 9, 64, 73
4, 53376, Note_on_c, 9, 56, 59
4, 53378, Note_on_c, 9, 37, 96
4, 53454, Note_on_c, 9, 64, 0
4, 53480, Note_on_c, 9, 80, 0
4, 53496, Note_on_c, 9, 56, 0
4, 53498, Note_on_c, 9, 37, 0
4, 53572, Note_on_c, 9, 35, 77
4, 53576, Note_on_c, 9, 81, 46
4, 53576, Note_on_c, 9, 64, 73
4, 53640, Note_on_c, 9, 35, 0
4, 53660, Note_on_c, 9, 81, 0
4, 53688, Note_on_c, 9, 64, 0
4, 53760, Note_on_c, 9, 56, 67
4, 53762, Note_on_c, 9, 81, 48
4, 53766, Note_on_c, 9, 37, 96
4, 53766, Note_on_c, 9, 70, 91
4, 53866, Note_on_c, 9, 70, 0
4, 53902, Note_on_c, 9, 56, 0
4, 53902, Note_on_c, 9, 81, 0
4, 53908, Note_on_c, 9, 37, 0
4, 53966, Note_on_c, 9, 80, 79
4, 54126, Note_on_c, 9, 80, 0
4, 54144, Note_on_c, 9, 56, 67
4, 54146, Note_on_c, 9, 37, 96
4, 54150, Note_on_c, 9, 81, 39
4, 54156, Note_on_c, 9, 62, 94
4, 54258, Note_on_c, 9, 81, 0
4, 54266, Note_on_c, 9, 56, 0
4, 54268, Note_on_c, 9, 37, 0
4, 54268, Note_on_c, 9, 62, 0
4, 54338, Note_on_c, 9, 70, 100
4, 54338, Note_on_c, 9, 35, 60
4, 54364, Note_on_c, 9, 81, 55
4, 54392, Note_on_c, 9, 35, 0
4, 54430, Note_on_c, 9, 70, 0
4, 54500, Note_on_c, 9, 81, 0
4, 54528, Note_on_c, 9, 37, 96
4, 54528, Note_on_c, 9, 56, 67
4, 54528, Note_on_c, 9, 35, 70
4, 54530, Note_on_c, 9, 64, 58
4, 54532, Note_on_c, 9, 80, 79
4, 54594, Note_on_c, 9, 35, 0
4, 54612, Note_on_c, 9, 64, 0
4, 54634, Note_on_c, 9, 80, 0
4, 54648, Note_on_c, 9, 56, 0
4, 54648, Note_on_c, 9, 37, 0
4, 54718, Note_on_c, 9, 81, 54
4, 54810, Note_on_c, 9, 64, 58
4, 54814, Note_on_c, 9, 81, 0
4, 54894, Note_on_c, 9, 64, 0
4, 54904, Note_on_c, 9, 81, 54
4, 54912, Note_on_c, 9, 37, 96
4, 54912, Note_on_c, 9, 70, 100
4, 54912, Note_on_c, 9, 56, 67
4, 55008, Note_on_c, 9, 70, 0
4, 55028, Note_on_c, 9, 56, 0
4, 55028, Note_on_c, 9, 37, 0
4, 55030, Note_on_c, 9, 81, 0
4, 55072, Note_on_c, 9, 64, 58
4, 55100, Note_on_c, 9, 35, 55
4, 55112, Note_on_c, 9, 80, 77
4, 55168, Note_on_c, 9, 64, 0
4, 55174, Note_on_c, 9, 35, 0
4, 55242, Note_on_c, 9, 80, 0
4, 55296, Note_on_c, 9, 37, 96
4, 55296, Note_on_c, 9, 70, 100
4, 55296, Note_on_c, 9, 56, 72
4, 55296, Note_on_c, 9, 35, 63
4, 55308, Note_on_c, 9, 81, 46
4, 55396, Note_on_c, 9, 81, 0
4, 55438, Note_on_c, 9, 70, 0
4, 55458, Note_on_c, 9, 37, 0
4, 55458, Note_on_c, 9, 56, 0
4, 55502, Note_on_c, 9, 35, 0
4, 55518, Note_on_c, 9, 81, 53
4, 55602, Note_on_c, 9, 81, 0
4, 55680, Note_on_c, 9, 37, 96
4, 55680, Note_on_c, 9, 70, 100
4, 55680, Note_on_c, 9, 56, 63
4, 55700, Note_on_c, 9, 62, 96
4, 55714, Note_on_c, 9, 81, 48
4, 55782, Note_on_c, 9, 70, 0
4, 55790, Note_on_c, 9, 81, 0
4, 55826, Note_on_c, 9, 62, 0
4, 55830, Note_on_c, 9, 56, 0
4, 55830, Note_on_c, 9, 37, 0
4, 55874, Note_on_c, 9, 35, 48
4, 55902, Note_on_c, 9, 81, 55
4, 55928, Note_on_c, 9, 35, 0
4, 55976, Note_on_c, 9, 81, 0
4, 56062, Note_on_c, 9, 37, 96
4, 56062, Note_on_c, 9, 35, 68
4, 56064, Note_on_c, 9, 56, 72
4, 56080, Note_on_c, 9, 81, 61
4, 56196, Note_on_c, 9, 81, 0
4, 56200, Note_on_c, 9, 37, 0
4, 56202, Note_on_c, 9, 56, 0
4, 56256, Note_on_c, 9, 70, 91
4, 56264, Note_on_c, 9, 80, 56
4, 56344, Note_on_c, 9, 70, 0
4, 56366, Note_on_c, 9, 80, 0
4, 56388, Note_on_c, 9, 35, 0
4, 56448, Note_on_c, 9, 56, 67
4, 56450, Note_on_c, 9, 37, 96
4, 56452, Note_on_c, 9, 81, 36
4, 56460, Note_on_c, 9, 64, 65
4, 56498, Note_on_c, 9, 81, 0
4, 56542, Note_on_c, 9, 64, 0
4, 56570, Note_on_c, 9, 56, 0
4, 56572, Note_on_c, 9, 37, 0
4, 56644, Note_on_c, 9, 35, 73
4, 56650, Note_on_c, 9, 64, 69
4, 56666, Note_on_c, 9, 81, 40
4, 56704, Note_on_c, 9, 35, 0
4, 56714, Note_on_c, 9, 81, 0
4, 56744, Note_on_c, 9, 64, 0
4, 56832, Note_on_c, 9, 56, 63
4, 56838, Note_on_c, 9, 37, 96
4, 56838, Note_on_c, 9, 70, 100
4, 56854, Note_on_c, 9, 81, 72
4, 56930, Note_on_c, 9, 70, 0
4, 56942, Note_on_c, 9, 56, 0
4, 56948, Note_on_c, 9, 37, 0
4, 57002, Note_on_c, 9, 81, 0
4, 57046, Note_on_c, 9, 80, 55
4, 57134, Note_on_c, 9, 80, 0
4, 57216, Note_on_c, 9, 56, 67
4, 57218, Note_on_c, 9, 37, 96
4, 57228, Note_on_c, 9, 62, 92
4, 57232, Note_on_c, 9, 81, 50
4, 57310, Note_on_c, 9, 56, 0
4, 57312, Note_on_c, 9, 37, 0
4, 57330, Note_on_c, 9, 81, 0
4, 57350, Note_on_c, 9, 62, 0
4, 57410, Note_on_c, 9, 70, 100
4, 57410, Note_on_c, 9, 35, 55
4, 57430, Note_on_c, 9, 81, 76
4, 57464, Note_on_c, 9, 35, 0
4, 57500, Note_on_c, 9, 70, 0
4, 57600, Note_on_c, 9, 37, 96
4, 57600, Note_on_c, 9, 56, 67
4, 57600, Note_on_c, 9, 35, 68
4, 57666, Note_on_c, 9, 81, 0
4, 57734, Note_on_c, 9, 37, 0
4, 57734, Note_on_c, 9, 56, 0
4, 57772, Note_on_c, 9, 80, 59
4, 57786, Note_on_c, 9, 35, 0
4, 57844, Note_on_c, 9, 80, 0
4, 57966, Note_on_c, 9, 63, 65
4, 57984, Note_on_c, 9, 37, 96
4, 57984, Note_on_c, 9, 70, 91
4, 57984, Note_on_c, 9, 56, 63
4, 57994, Note_on_c, 9, 81, 62
4, 58048, Note_on_c, 9, 63, 0
4, 58076, Note_on_c, 9, 56, 0
4, 58076, Note_on_c, 9, 37, 0
4, 58078, Note_on_c, 9, 70, 0
4, 58086, Note_on_c, 9, 81, 0
4, 58162, Note_on_c, 9, 63, 77
4, 58172, Note_on_c, 9, 35, 48
4, 58184, Note_on_c, 9, 81, 67
4, 58230, Note_on_c, 9, 35, 0
4, 58282, Note_on_c, 9, 63, 0
4, 58368, Note_on_c, 9, 37, 96
4, 58368, Note_on_c, 9, 70, 98
4, 58368, Note_on_c, 9, 56, 67
4, 58368, Note_on_c, 9, 35, 68
4, 58458, Note_on_c, 9, 70, 0
4, 58500, Note_on_c, 9, 35, 0
4, 58502, Note_on_c, 9, 56, 0
4, 58502, Note_on_c, 9, 37, 0
4, 58582, Note_on_c, 9, 81, 0
4, 58606, Note_on_c, 9, 80, 47
4, 58676, Note_on_c, 9, 80, 0
4, 58752, Note_on_c, 9, 37, 96
4, 58752, Note_on_c, 9, 70, 100
4, 58752, Note_on_c, 9, 56, 63
4, 58760, Note_on_c, 9, 62, 92
4, 58796, Note_on_c, 9, 81, 62
4, 58844, Note_on_c, 9, 70, 0
4, 58876, Note_on_c, 9, 62, 0
4, 58894, Note_on_c, 9, 37, 0
4, 58894, Note_on_c, 9, 56, 0
4, 58898, Note_on_c, 9, 81, 0
4, 58946, Note_on_c, 9, 35, 58
4, 58984, Note_on_c, 9, 81, 58
4, 59034, Note_on_c, 9, 35, 0
4, 59132, Note_on_c, 9, 81, 0
4, 59134, Note_on_c, 9, 37, 96
4, 59134, Note_on_c, 9, 35, 68
4, 59136, Note_on_c, 9, 56, 63
4, 59240, Note_on_c, 9, 35, 0
4, 59278, Note_on_c, 9, 37, 0
4, 59280, Note_on_c, 9, 56, 0
4, 59328, Note_on_c, 9, 70, 100
4, 59414, Note_on_c, 9, 70, 0
4, 59518, Note_on_c, 9, 64, 73
4, 59520, Note_on_c, 9, 56, 59
4, 59522, Note_on_c, 9, 37, 96
4, 59538, Note_on_c, 9, 81, 58
4, 59598, Note_on_c, 9, 64, 0
4, 59620, Note_on_c, 9, 81, 0
4, 59640, Note_on_c, 9, 56, 0
4, 59642, Note_on_c, 9, 37, 0
4, 59716, Note_on_c, 9, 35, 77
4, 59720, Note_on_c, 9, 64, 73
4, 59726, Note_on_c, 9, 81, 55
4, 59784, Note_on_c, 9, 35, 0
4, 59832, Note_on_c, 9, 64, 0
4, 59834, Note_on_c, 9, 81, 0
4, 59904, Note_on_c, 9, 56, 67
4, 59910, Note_on_c, 9, 37, 96
4, 59910, Note_on_c, 9, 70, 91
4, 60010, Note_on_c, 9, 70, 0
4, 60046, Note_on_c, 9, 56, 0
4, 60052, Note_on_c, 9, 37, 0
4, 60208, Note_on_c, 9, 80, 44
4, 60252, Note_on_c, 9, 80, 0
4, 60288, Note_on_c, 9, 56, 67
4, 60290, Note_on_c, 9, 37, 96
4, 60300, Note_on_c, 9, 62, 94
4, 60304, Note_on_c, 9, 81, 57
4, 60406, Note_on_c, 9, 81, 0
4, 60410, Note_on_c, 9, 56, 0
4, 60412, Note_on_c, 9, 62, 0
4, 60412, Note_on_c, 9, 37, 0
4, 60482, Note_on_c, 9, 70, 100
4, 60482, Note_on_c, 9, 35, 60
4, 60500, Note_on_c, 9, 81, 53
4, 60536, Note_on_c, 9, 35, 0
4, 60574, Note_on_c, 9, 70, 0
4, 60606, Note_on_c, 9, 81, 0
4, 60672, Note_on_c, 9, 37, 96
4, 60672, Note_on_c, 9, 56, 67
4, 60672, Note_on_c, 9, 35, 70
4, 60674, Note_on_c, 9, 64, 58
4, 60738, Note_on_c, 9, 35, 0
4, 60756, Note_on_c, 9, 64, 0
4, 60792, Note_on_c, 9, 56, 0
4, 60792, Note_on_c, 9, 37, 0
4, 60896, Note_on_c, 9, 80, 35
4, 60954, Note_on_c, 9, 64, 58
4, 61038, Note_on_c, 9, 64, 0
4, 61040, Note_on_c, 9, 80, 0
4, 61056, Note_on_c, 9, 37, 96
4, 61056, Note_on_c, 9, 70, 100
4, 61056, Note_on_c, 9, 56, 67
4, 61070, Note_on_c, 9, 81, 58
4, 61152, Note_on_c, 9, 70, 0
4, 61166, Note_on_c, 9, 81, 0
4, 61172, Note_on_c, 9, 56, 0
4, 61172, Note_on_c, 9, 37, 0
4, 61216, Note_on_c, 9, 64, 58
4, 61244, Note_on_c, 9, 35, 55
4, 61266, Note_on_c, 9, 81, 54
4, 61312, Note_on_c, 9, 64, 0
4, 61318, Note_on_c, 9, 35, 0
4, 61412, Note_on_c, 9, 81, 0
4, 61440, Note_on_c, 9, 37, 96
4, 61440, Note_on_c, 9, 70, 100
4, 61440, Note_on_c, 9, 56, 72
4, 61440, Note_on_c, 9, 35, 63
4, 61484, Note_on_c, 9, 80, 27
4, 61550, Note_on_c, 9, 80, 0
4, 61582, Note_on_c, 9, 70, 0
4, 61602, Note_on_c, 9, 37, 0
4, 61602, Note_on_c, 9, 56, 0
4, 61646, Note_on_c, 9, 35, 0
4, 61658, Note_on_c, 9, 80, 47
4, 61808, Note_on_c, 9, 80, 0
4, 61824, Note_on_c, 9, 37, 96
4, 61824, Note_on_c, 9, 70, 100
4, 61824, Note_on_c, 9, 56, 63
4, 61828, Note_on_c, 9, 81, 58
4, 61926, Note_on_c, 9, 70, 0
4, 61966, Note_on_c, 9, 81, 0
4, 61974, Note_on_c, 9, 56, 0
4, 61974, Note_on_c, 9, 37, 0
4, 62018, Note_on_c, 9, 35, 48
4, 62044, Note_on_c, 9, 81, 59
4, 62072, Note_on_c, 9, 35, 0
4, 62186, Note_on_c, 9, 81, 0
4, 62206, Note_on_c, 9, 37, 96
4, 62206, Note_on_c, 9, 35, 68
4, 62208, Note_on_c, 9, 56, 72
4, 62344, Note_on_c, 9, 37, 0
4, 62346, Note_on_c, 9, 56, 0
4, 62400, Note_on_c, 9, 70, 91
4, 62464, Note_on_c, 9, 80, 25
4, 62488, Note_on_c, 9, 70, 0
4, 62532, Note_on_c, 9, 35, 0
4, 62540, Note_on_c, 9, 80, 0
4, 62592, Note_on_c, 9, 56, 67
4, 62594, Note_on_c, 9, 37, 96
4, 62596, Note_on_c, 9, 81, 66
4, 62714, Note_on_c, 9, 56, 0
4, 62716, Note_on_c, 9, 37, 0
4, 62742, Note_on_c, 9, 81, 0
4, 62788, Note_on_c, 9, 35, 73
4, 62808, Note_on_c, 9, 81, 66
4, 62848, Note_on_c, 9, 35, 0
4, 62976, Note_on_c, 9, 81, 0
4, 62976, Note_on_c, 9, 56, 63
4, 62982, Note_on_c, 9, 37, 96
4, 62982, Note_on_c, 9, 70, 100
4, 62994, Note_on_c, 9, 80, 49
4, 63074, Note_on_c, 9, 70, 0
4, 63086, Note_on_c, 9, 56, 0
4, 63092, Note_on_c, 9, 37, 0
4, 63098, Note_on_c, 9, 80, 0
4, 63196, Note_on_c, 9, 80, 37
4, 63294, Note_on_c, 9, 80, 0
4, 63360, Note_on_c, 9, 56, 67
4, 63362, Note_on_c, 9, 37, 96
4, 63364, Note_on_c, 9, 81, 64
4, 63454, Note_on_c, 9, 56, 0
4, 63456, Note_on_c, 9, 37, 0
4, 63510, Note_on_c, 9, 81, 0
4, 63554, Note_on_c, 9, 70, 100
4, 63554, Note_on_c, 9, 35, 55
4, 63580, Note_on_c, 9, 81, 66
4, 63608, Note_on_c, 9, 35, 0
4, 63644, Note_on_c, 9, 70, 0
4, 63728, Note_on_c, 9, 81, 0
4, 63744, Note_on_c, 9, 37, 96
4, 63744, Note_on_c, 9, 56, 67
4, 63744, Note_on_c, 9, 35, 68
4, 63770, Note_on_c, 9, 80, 33
4, 63858, Note_on_c, 9, 80, 0
4, 63878, Note_on_c, 9, 37, 0
4, 63878, Note_on_c, 9, 56, 0
4, 63930, Note_on_c, 9, 35, 0
4, 63970, Note_on_c, 9, 80, 38
4, 64078, Note_on_c, 9, 80, 0
4, 64128, Note_on_c, 9, 37, 96
4, 64128, Note_on_c, 9, 70, 91
4, 64128, Note_on_c, 9, 56, 63
4, 64136, Note_on_c, 9, 81, 66
4, 64220, Note_on_c, 9, 56, 0
4, 64220, Note_on_c, 9, 37, 0
4, 64222, Note_on_c, 9, 70, 0
4, 64286, Note_on_c, 9, 81, 0
4, 64316, Note_on_c, 9, 35, 48
4, 64348, Note_on_c, 9, 81, 73
4, 64374, Note_on_c, 9, 35, 0
4, 64498, Note_on_c, 9, 81, 0
4, 64512, Note_on_c, 9, 37, 96
4, 64512, Note_on_c, 9, 70, 98
4, 64512, Note_on_c, 9, 56, 67
4, 64512, Note_on_c, 9, 35, 68
4, 64544, Note_on_c, 9, 80, 25
4, 64602, Note_on_c, 9, 70, 0
4, 64636, Note_on_c, 9, 80, 0
4, 64644, Note_on_c, 9, 35, 0
4, 64646, Note_on_c, 9, 56, 0
4, 64646, Note_on_c, 9, 37, 0
4, 64734, Note_on_c, 9, 80, 38
4, 64832, Note_on_c, 9, 80, 0
4, 64894, Note_on_c, 9, 81, 64
4, 64896, Note_on_c, 9, 37, 96
4, 64896, Note_on_c, 9, 70, 100
4, 64896, Note_on_c, 9, 56, 63
4, 64988, Note_on_c, 9, 70, 0
4, 65038, Note_on_c, 9, 56, 0
4, 65038, Note_on_c, 9, 37, 0
4, 65048, Note_on_c, 9, 81, 0
4, 65090, Note_on_c, 9, 35, 58
4, 65114, Note_on_c, 9, 81, 68
4, 65178, Note_on_c, 9, 35, 0
4, 65270, Note_on_c, 9, 81, 0
4, 65278, Note_on_c, 9, 37, 96
4, 65278, Note_on_c, 9, 35, 68
4, 65280, Note_on_c, 9, 56, 63
4, 65292, Note_on_c, 9, 80, 32
4, 65384, Note_on_c, 9, 35, 0
4, 65390, Note_on_c, 9, 80, 0
4, 65422, Note_on_c, 9, 37, 0
4, 65424, Note_on_c, 9, 56, 0
4, 65472, Note_on_c, 9, 70, 100
4, 65494, Note_on_c, 9, 80, 31
4, 65558, Note_on_c, 9, 70, 0
4, 65606, Note_on_c, 9, 80, 0
4, 65664, Note_on_c, 9, 56, 59
4, 65666, Note_on_c, 9, 37, 96
4, 65668, Note_on_c, 9, 81, 66
4, 65784, Note_on_c, 9, 56, 0
4, 65786, Note_on_c, 9, 37, 0
4, 65788, Note_on_c, 9, 81, 0
4, 65860, Note_on_c, 9, 35, 77
4, 65874, Note_on_c, 9, 81, 67
4, 65928, Note_on_c, 9, 35, 0
4, 66048, Note_on_c, 9, 56, 67
4, 66054, Note_on_c, 9, 37, 96
4, 66054, Note_on_c, 9, 70, 91
4, 66068, Note_on_c, 9, 80, 43
4, 66072, Note_on_c, 9, 81, 0
4, 66154, Note_on_c, 9, 70, 0
4, 66190, Note_on_c, 9, 56, 0
4, 66196, Note_on_c, 9, 37, 0
4, 66246, Note_on_c, 9, 80, 0
4, 66248, Note_on_c, 9, 81, 63
4, 66366, Note_on_c, 9, 81, 0
4, 66432, Note_on_c, 9, 56, 67
4, 66434, Note_on_c, 9, 37, 96
4, 66446, Note_on_c, 9, 81, 62
4, 66554, Note_on_c, 9, 56, 0
4, 66556, Note_on_c, 9, 37, 0
4, 66612, Note_on_c, 9, 81, 0
4, 66626, Note_on_c, 9, 70, 100
4, 66626, Note_on_c, 9, 35, 60
4, 66638, Note_on_c, 9, 80, 64
4, 66680, Note_on_c, 9, 35, 0
4, 66718, Note_on_c, 9, 70, 0
4, 66788, Note_on_c, 9, 80, 0
4, 66816, Note_on_c, 9, 37, 96
4, 66816, Note_on_c, 9, 56, 67
4, 66816, Note_on_c, 9, 35, 70
4, 66852, Note_on_c, 9, 80, 45
4, 66882, Note_on_c, 9, 35, 0
4, 66936, Note_on_c, 9, 37, 0
4, 66936, Note_on_c, 9, 56, 0
4, 66964, Note_on_c, 9, 80, 0
4, 67074, Note_on_c, 9, 81, 75
4, 67200, Note_on_c, 9, 81, 0
4, 67200, Note_on_c, 9, 37, 96
4, 67200, Note_on_c, 9, 70, 100
4, 67200, Note_on_c, 9, 56, 67
4, 67264, Note_on_c, 9, 81, 59
4, 67296, Note_on_c, 9, 70, 0
4, 67316, Note_on_c, 9, 37, 0
4, 67316, Note_on_c, 9, 56, 0
4, 67368, Note_on_c, 9, 81, 0
4, 67388, Note_on_c, 9, 35, 55
4, 67414, Note_on_c, 9, 80, 62
4, 67462, Note_on_c, 9, 35, 0
4, 67544, Note_on_c, 9, 80, 0
4, 67584, Note_on_c, 9, 37, 96
4, 67584, Note_on_c, 9, 70, 100
4, 67584, Note_on_c, 9, 56, 72
4, 67584, Note_on_c, 9, 35, 63
4, 67608, Note_on_c, 9, 81, 54
4, 67692, Note_on_c, 9, 81, 0
4, 67726, Note_on_c, 9, 70, 0
4, 67746, Note_on_c, 9, 37, 0
4, 67746, Note_on_c, 9, 56, 0
4, 67790, Note_on_c, 9, 35, 0
4, 67808, Note_on_c, 9, 81, 64
4, 67960, Note_on_c, 9, 81, 0
4, 67968, Note_on_c, 9, 37, 96
4, 67968, Note_on_c, 9, 70, 100
4, 67968, Note_on_c, 9, 56, 63
4, 68000, Note_on_c, 9, 80, 36
4, 68070, Note_on_c, 9, 70, 0
4, 68118, Note_on_c, 9, 37, 0
4, 68118, Note_on_c, 9, 56, 0
4, 68130, Note_on_c, 9, 80, 0
4, 68162, Note_on_c, 9, 35, 48
4, 68174, Note_on_c, 9, 81, 66
4, 68216, Note_on_c, 9, 35, 0
4, 68306, Note_on_c, 9, 81, 0
4, 68350, Note_on_c, 9, 37, 96
4, 68350, Note_on_c, 9, 35, 68
4, 68352, Note_on_c, 9, 56, 72
4, 68380, Note_on_c, 9, 81, 67
4, 68488, Note_on_c, 9, 37, 0
4, 68490, Note_on_c, 9, 56, 0
4, 68532, Note_on_c, 9, 81, 0
4, 68544, Note_on_c, 9, 70, 91
4, 68566, Note_on_c, 9, 80, 64
4, 68632, Note_on_c, 9, 70, 0
4, 68676, Note_on_c, 9, 35, 0
4, 68698, Note_on_c, 9, 80, 0
4, 68736, Note_on_c, 9, 56, 67
4, 68738, Note_on_c, 9, 37, 96
4, 68764, Note_on_c, 9, 81, 43
4, 68858, Note_on_c, 9, 56, 0
4, 68860, Note_on_c, 9, 37, 0
4, 68872, Note_on_c, 9, 81, 0
4, 68932, Note_on_c, 9, 35, 73
4, 68968, Note_on_c, 9, 81, 69
4, 68992, Note_on_c, 9, 35, 0
4, 69120, Note_on_c, 9, 56, 63
4, 69122, Note_on_c, 9, 81, 0
4, 69126, Note_on_c, 9, 37, 96
4, 69126, Note_on_c, 9, 70, 100
4, 69218, Note_on_c, 9, 70, 0
4, 69230, Note_on_c, 9, 56, 0
4, 69236, Note_on_c, 9, 37, 0
4, 69348, Note_on_c, 9, 81, 68
4, 69504, Note_on_c, 9, 56, 67
4, 69506, Note_on_c, 9, 37, 96
4, 69598, Note_on_c, 9, 56, 0
4, 69600, Note_on_c, 9, 37, 0
4, 69626, Note_on_c, 9, 81, 0
4, 69698, Note_on_c, 9, 70, 100
4, 69698, Note_on_c, 9, 35, 55
4, 69726, Note_on_c, 9, 81, 67
4, 69752, Note_on_c, 9, 35, 0
4, 69788, Note_on_c, 9, 70, 0
4, 69844, Note_on_c, 9, 81, 0
4, 69888, Note_on_c, 9, 37, 96
4, 69888, Note_on_c, 9, 56, 67
4, 69888, Note_on_c, 9, 35, 68
4, 69926, Note_on_c, 9, 81, 58
4, 70022, Note_on_c, 9, 56, 0
4, 70022, Note_on_c, 9, 37, 0
4, 70074, Note_on_c, 9, 35, 0
4, 70084, Note_on_c, 9, 81, 0
4, 70100, Note_on_c, 9, 80, 52
4, 70204, Note_on_c, 9, 80, 0
4, 70272, Note_on_c, 9, 37, 96
4, 70272, Note_on_c, 9, 70, 91
4, 70272, Note_on_c, 9, 56, 63
4, 70280, Note_on_c, 9, 81, 46
4, 70364, Note_on_c, 9, 56, 0
4, 70364, Note_on_c, 9, 37, 0
4, 70366, Note_on_c, 9, 70, 0
4, 70406, Note_on_c, 9, 81, 0
4, 70460, Note_on_c, 9, 35, 48
4, 70494, Note_on_c, 9, 81, 64
4, 70518, Note_on_c, 9, 35, 0
4, 70628, Note_on_c, 9, 81, 0
4, 70656, Note_on_c, 9, 37, 96
4, 70656, Note_on_c, 9, 70, 98
4, 70656, Note_on_c, 9, 56, 67
4, 70656, Note_on_c, 9, 35, 68
4, 70684, Note_on_c, 9, 81, 71
4, 70746, Note_on_c, 9, 70, 0
4, 70788, Note_on_c, 9, 35, 0
4, 70790, Note_on_c, 9, 37, 0
4, 70790, Note_on_c, 9, 56, 0
4, 70864, Note_on_c, 9, 81, 0
4, 70884, Note_on_c, 9, 80, 34
4, 70984, Note_on_c, 9, 80, 0
4, 71034, Note_on_c, 9, 81, 59
4, 71040, Note_on_c, 9, 37, 96
4, 71040, Note_on_c, 9, 70, 100
4, 71040, Note_on_c, 9, 56, 63
4, 71132, Note_on_c, 9, 70, 0
4, 71182, Note_on_c, 9, 56, 0
4, 71182, Note_on_c, 9, 37, 0
4, 71194, Note_on_c, 9, 81, 0
4, 71234, Note_on_c, 9, 35, 58
4, 71256, Note_on_c, 9, 80, 59
4, 71322, Note_on_c, 9, 35, 0
4, 71390, Note_on_c, 9, 80, 0
4, 71422, Note_on_c, 9, 37, 96
4, 71422, Note_on_c, 9, 35, 68
4, 71424, Note_on_c, 9, 56, 63
4, 71440, Note_on_c, 9, 81, 58
4, 71528, Note_on_c, 9, 35, 0
4, 71546, Note_on_c, 9, 81, 0
4, 71566, Note_on_c, 9, 37, 0
4, 71568, Note_on_c, 9, 56, 0
4, 71616, Note_on_c, 9, 70, 100
4, 71632, Note_on_c, 9, 81, 57
4, 71702, Note_on_c, 9, 70, 0
4, 71732, Note_on_c, 9, 81, 0
4, 71808, Note_on_c, 9, 56, 59
4, 71810, Note_on_c, 9, 37, 96
4, 71812, Note_on_c, 9, 81, 68
4, 71928, Note_on_c, 9, 56, 0
4, 71930, Note_on_c, 9, 37, 0
4, 71956, Note_on_c, 9, 81, 0
4, 72004, Note_on_c, 9, 35, 77
4, 72018, Note_on_c, 9, 80, 56
4, 72072, Note_on_c, 9, 35, 0
4, 72126, Note_on_c, 9, 80, 0
4, 72192, Note_on_c, 9, 56, 67
4, 72192, Note_on_c, 9, 81, 67
4, 72198, Note_on_c, 9, 37, 96
4, 72198, Note_on_c, 9, 70, 91
4, 72298, Note_on_c, 9, 70, 0
4, 72334, Note_on_c, 9, 56, 0
4, 72340, Note_on_c, 9, 37, 0
4, 72396, Note_on_c, 9, 80, 67
4, 72418, Note_on_c, 9, 81, 0
4, 72534, Note_on_c, 9, 80, 0
4, 72576, Note_on_c, 9, 56, 67
4, 72578, Note_on_c, 9, 37, 96
4, 72598, Note_on_c, 9, 81, 69
4, 72698, Note_on_c, 9, 56, 0
4, 72700, Note_on_c, 9, 37, 0
4, 72730, Note_on_c, 9, 81, 0
4, 72770, Note_on_c, 9, 70, 100
4, 72770, Note_on_c, 9, 35, 60
4, 72802, Note_on_c, 9, 81, 70
4, 72824, Note_on_c, 9, 35, 0
4, 72862, Note_on_c, 9, 70, 0
4, 72960, Note_on_c, 9, 37, 96
4, 72960, Note_on_c, 9, 56, 67
4, 72960, Note_on_c, 9, 35, 70
4, 72964, Note_on_c, 9, 81, 0
4, 72974, Note_on_c, 9, 80, 64
4, 73026, Note_on_c, 9, 35, 0
4, 73080, Note_on_c, 9, 37, 0
4, 73080, Note_on_c, 9, 56, 0
4, 73140, Note_on_c, 9, 80, 0
4, 73154, Note_on_c, 9, 81, 79
4, 73336, Note_on_c, 9, 80, 54
4, 73344, Note_on_c, 9, 37, 96
4, 73344, Note_on_c, 9, 70, 100
4, 73344, Note_on_c, 9, 56, 67
4, 73356, Note_on_c, 9, 81, 0
4, 73440, Note_on_c, 9, 70, 0
4, 73460, Note_on_c, 9, 56, 0
4, 73460, Note_on_c, 9, 37, 0
4, 73480, Note_on_c, 9, 80, 0
4, 73532, Note_on_c, 9, 35, 55
4, 73542, Note_on_c, 9, 81, 74
4, 73606, Note_on_c, 9, 35, 0
4, 73680, Note_on_c, 9, 81, 0
4, 73728, Note_on_c, 9, 37, 96
4, 73728, Note_on_c, 9, 70, 100
4, 73728, Note_on_c, 9, 56, 72
4, 73728, Note_on_c, 9, 35, 63
4, 73734, Note_on_c, 9, 81, 68
4, 73870, Note_on_c, 9, 70, 0
4, 73890, Note_on_c, 9, 37, 0
4, 73890, Note_on_c, 9, 56, 0
4, 73930, Note_on_c, 9, 81, 0
4, 73932, Note_on_c, 9, 80, 69
4, 73934, Note_on_c, 9, 35, 0
4, 74072, Note_on_c, 9, 80, 0
4, 74112, Note_on_c, 9, 37, 96
4, 74112, Note_on_c, 9, 70, 100
4, 74112, Note_on_c, 9, 56, 63
4, 74132, Note_on_c, 9, 62, 96
4, 74136, Note_on_c, 9, 81, 54
4, 74214, Note_on_c, 9, 70, 0
4, 74258, Note_on_c, 9, 62, 0
4, 74262, Note_on_c, 9, 37, 0
4, 74262, Note_on_c, 9, 56, 0
4, 74292, Note_on_c, 9, 81, 0
4, 74306, Note_on_c, 9, 35, 48
4, 74312, Note_on_c, 9, 80, 74
4, 74360, Note_on_c, 9, 35, 0
4, 74474, Note_on_c, 9, 80, 0
4, 74494, Note_on_c, 9, 37, 96
4, 74494, Note_on_c, 9, 35, 68
4, 74496, Note_on_c, 9, 56, 72
4, 74500, Note_on_c, 9, 81, 71
4, 74632, Note_on_c, 9, 37, 0
4, 74634, Note_on_c, 9, 56, 0
4, 74636, Note_on_c, 9, 81, 0
4, 74688, Note_on_c, 9, 70, 91
4, 74706, Note_on_c, 9, 81, 69
4, 74776, Note_on_c, 9, 70, 0
4, 74820, Note_on_c, 9, 35, 0
4, 74846, Note_on_c, 9, 81, 0
4, 74880, Note_on_c, 9, 56, 67
4, 74880, Note_on_c, 9, 80, 53
4, 74882, Note_on_c, 9, 37, 96
4, 74892, Note_on_c, 9, 64, 65
4, 74974, Note_on_c, 9, 64, 0
4, 75002, Note_on_c, 9, 56, 0
4, 75004, Note_on_c, 9, 37, 0
4, 75034, Note_on_c, 9, 80, 0
4, 75076, Note_on_c, 9, 81, 77
4, 75076, Note_on_c, 9, 35, 73
4, 75082, Note_on_c, 9, 64, 69
4, 75136, Note_on_c, 9, 35, 0
4, 75176, Note_on_c, 9, 64, 0
4, 75264, Note_on_c, 9, 56, 63
4, 75270, Note_on_c, 9, 37, 96
4, 75270, Note_on_c, 9, 70, 100
4, 75362, Note_on_c, 9, 70, 0
4, 75374, Note_on_c, 9, 56, 0
4, 75380, Note_on_c, 9, 37, 0
4, 75384, Note_on_c, 9, 81, 0
4, 75478, Note_on_c, 9, 80, 74
4, 75598, Note_on_c, 9, 80, 0
4, 75648, Note_on_c, 9, 56, 67
4, 75650, Note_on_c, 9, 37, 96
4, 75660, Note_on_c, 9, 62, 92
4, 75664, Note_on_c, 9, 81, 68
4, 75742, Note_on_c, 9, 56, 0
4, 75744, Note_on_c, 9, 37, 0
4, 75782, Note_on_c, 9, 62, 0
4, 75782, Note_on_c, 9, 81, 0
4, 75842, Note_on_c, 9, 70, 100
4, 75842, Note_on_c, 9, 35, 55
4, 75852, Note_on_c, 9, 81, 68
4, 75896, Note_on_c, 9, 35, 0
4, 75932, Note_on_c, 9, 70, 0
4, 75986, Note_on_c, 9, 81, 0
4, 76032, Note_on_c, 9, 37, 96
4, 76032, Note_on_c, 9, 56, 67
4, 76032, Note_on_c, 9, 35, 68
4, 76054, Note_on_c, 9, 81, 71
4, 76166, Note_on_c, 9, 56, 0
4, 76166, Note_on_c, 9, 37, 0
4, 76202, Note_on_c, 9, 81, 0
4, 76218, Note_on_c, 9, 35, 0
4, 76258, Note_on_c, 9, 80, 71
4, 76376, Note_on_c, 9, 80, 0
4, 76398, Note_on_c, 9, 63, 65
4, 76416, Note_on_c, 9, 37, 96
4, 76416, Note_on_c, 9, 70, 91
4, 76416, Note_on_c, 9, 56, 63
4, 76424, Note_on_c, 9, 81, 68
4, 76480, Note_on_c, 9, 63, 0
4, 76508, Note_on_c, 9, 56, 0
4, 76508, Note_on_c, 9, 37, 0
4, 76510, Note_on_c, 9, 70, 0
4, 76594, Note_on_c, 9, 63, 77
4, 76600, Note_on_c, 9, 81, 0
4, 76604, Note_on_c, 9, 35, 48
4, 76612, Note_on_c, 9, 80, 77
4, 76662, Note_on_c, 9, 35, 0
4, 76714, Note_on_c, 9, 63, 0
4, 76776, Note_on_c, 9, 80, 0
4, 76800, Note_on_c, 9, 37, 96
4, 76800, Note_on_c, 9, 70, 98
4, 76800, Note_on_c, 9, 56, 67
4, 76800, Note_on_c, 9, 35, 68
4, 76816, Note_on_c, 9, 81, 61
4, 76890, Note_on_c, 9, 70, 0
4, 76928, Note_on_c, 9, 81, 0
4, 76932, Note_on_c, 9, 35, 0
4, 76934, Note_on_c, 9, 56, 0
4, 76934, Note_on_c, 9, 37, 0
4, 77016, Note_on_c, 9, 81, 64
4, 77130, Note_on_c, 9, 81, 0
4, 77184, Note_on_c, 9, 37, 96
4, 77184, Note_on_c, 9, 70, 100
4, 77184, Note_on_c, 9, 56, 63
4, 77192, Note_on_c, 9, 62, 92
4, 77198, Note_on_c, 9, 81, 73
4, 77276, Note_on_c, 9, 70, 0
4, 77308, Note_on_c, 9, 62, 0
4, 77326, Note_on_c, 9, 37, 0
4, 77326, Note_on_c, 9, 56, 0
4, 77366, Note_on_c, 9, 81, 0
4, 77378, Note_on_c, 9, 35, 58
4, 77400, Note_on_c, 9, 80, 76
4, 77466, Note_on_c, 9, 35, 0
4, 77544, Note_on_c, 9, 80, 0
4, 77566, Note_on_c, 9, 37, 96
4, 77566, Note_on_c, 9, 35, 68
4, 77568, Note_on_c, 9, 56, 63
4, 77590, Note_on_c, 9, 81, 67
4, 77672, Note_on_c, 9, 35, 0
4, 77710, Note_on_c, 9, 37, 0
4, 77712, Note_on_c, 9, 56, 0
4, 77712, Note_on_c, 9, 81, 0
4, 77760, Note_on_c, 9, 70, 100
4, 77780, Note_on_c, 9, 81, 72
4, 77846, Note_on_c, 9, 70, 0
4, 77940, Note_on_c, 9, 81, 0
4, 77950, Note_on_c, 9, 80, 80
4, 77950, Note_on_c, 9, 64, 73
4, 77952, Note_on_c, 9, 56, 59
4, 77954, Note_on_c, 9, 37, 96
4, 78030, Note_on_c, 9, 64, 0
4, 78072, Note_on_c, 9, 56, 0
4, 78074, Note_on_c, 9, 37, 0
4, 78114, Note_on_c, 9, 80, 0
4, 78146, Note_on_c, 9, 81, 60
4, 78148, Note_on_c, 9, 35, 77
4, 78152, Note_on_c, 9, 64, 73
4, 78216, Note_on_c, 9, 35, 0
4, 78264, Note_on_c, 9, 64, 0
4, 78264, Note_on_c, 9, 81, 0
4, 78330, Note_on_c, 9, 81, 62
4, 78336, Note_on_c, 9, 56, 67
4, 78342, Note_on_c, 9, 37, 96
4, 78342, Note_on_c, 9, 70, 91
4, 78442, Note_on_c, 9, 70, 0
4, 78478, Note_on_c, 9, 56, 0
4, 78484, Note_on_c, 9, 37, 0
4, 78512, Note_on_c, 9, 81, 0
4, 78522, Note_on_c, 9, 80, 83
4, 78720, Note_on_c, 9, 80, 0
4, 78720, Note_on_c, 9, 56, 67
4, 78722, Note_on_c, 9, 37, 96
4, 78732, Note_on_c, 9, 62, 94
4, 78744, Note_on_c, 9, 81, 41
4, 78842, Note_on_c, 9, 56, 0
4, 78844, Note_on_c, 9, 37, 0
4, 78844, Note_on_c, 9, 62, 0
4, 78882, Note_on_c, 9, 81, 0
4, 78914, Note_on_c, 9, 70, 100
4, 78914, Note_on_c, 9, 35, 60
4, 78936, Note_on_c, 9, 80, 84
4, 78968, Note_on_c, 9, 35, 0
4, 79006, Note_on_c, 9, 70, 0
4, 79092, Note_on_c, 9, 80, 0
4, 79104, Note_on_c, 9, 37, 96
4, 79104, Note_on_c, 9, 56, 67
4, 79104, Note_on_c, 9, 35, 70
4, 79106, Note_on_c, 9, 64, 58
4, 79122, Note_on_c, 9, 81, 68
4, 79170, Note_on_c, 9, 35, 0
4, 79188, Note_on_c, 9, 64, 0
4, 79224, Note_on_c, 9, 37, 0
4, 79224, Note_on_c, 9, 56, 0
4, 79260, Note_on_c, 9, 81, 0
4, 79336, Note_on_c, 9, 81, 55
4, 79386, Note_on_c, 9, 64, 58
4, 79434, Note_on_c, 9, 81, 0
4, 79470, Note_on_c, 9, 64, 0
4, 79488, Note_on_c, 9, 37, 96
4, 79488, Note_on_c, 9, 70, 100
4, 79488, Note_on_c, 9, 56, 67
4, 79502, Note_on_c, 9, 81, 64
4, 79584, Note_on_c, 9, 70, 0
4, 79604, Note_on_c, 9, 37, 0
4, 79604, Note_on_c, 9, 56, 0
4, 79648, Note_on_c, 9, 64, 58
4, 79676, Note_on_c, 9, 35, 55
4, 79680, Note_on_c, 9, 81, 0
4, 79696, Note_on_c, 9, 80, 85
4, 79744, Note_on_c, 9, 64, 0
4, 79750, Note_on_c, 9, 35, 0
4, 79844, Note_on_c, 9, 80, 0
4, 79872, Note_on_c, 9, 37, 96
4, 79872, Note_on_c, 9, 70, 100
4, 79872, Note_on_c, 9, 56, 72
4, 79872, Note_on_c, 9, 35, 63
4, 79898, Note_on_c, 9, 81, 50
4, 80002, Note_on_c, 9, 81, 0
4, 80014, Note_on_c, 9, 70, 0
4, 80034, Note_on_c, 9, 37, 0
4, 80034, Note_on_c, 9, 56, 0
4, 80078, Note_on_c, 9, 35, 0
4, 80090, Note_on_c, 9, 81, 62
4, 80200, Note_on_c, 9, 81, 0
4, 80256, Note_on_c, 9, 37, 96
4, 80256, Note_on_c, 9, 70, 100
4, 80256, Note_on_c, 9, 56, 63
4, 80276, Note_on_c, 9, 62, 96
4, 80282, Note_on_c, 9, 81, 62
4, 80358, Note_on_c, 9, 70, 0
4, 80402, Note_on_c, 9, 62, 0
4, 80406, Note_on_c, 9, 37, 0
4, 80406, Note_on_c, 9, 56, 0
4, 80406, Note_on_c, 9, 81, 0
4, 80450, Note_on_c, 9, 35, 48
4, 80458, Note_on_c, 9, 80, 82
4, 80504, Note_on_c, 9, 35, 0
4, 80594, Note_on_c, 9, 80, 0
4, 80638, Note_on_c, 9, 37, 96
4, 80638, Note_on_c, 9, 35, 68
4, 80640, Note_on_c, 9, 56, 72
4, 80644, Note_on_c, 9, 81, 56
4, 80758, Note_on_c, 9, 81, 0
4, 80776, Note_on_c, 9, 37, 0
4, 80778, Note_on_c, 9, 56, 0
4, 80832, Note_on_c, 9, 70, 91
4, 80848, Note_on_c, 9, 81, 62
4, 80920, Note_on_c, 9, 70, 0
4, 80964, Note_on_c, 9, 35, 0
4, 81006, Note_on_c, 9, 81, 0
4, 81024, Note_on_c, 9, 56, 67
4, 81026, Note_on_c, 9, 37, 96
4, 81032, Note_on_c, 9, 80, 81
4, 81036, Note_on_c, 9, 64, 65
4, 81118, Note_on_c, 9, 64, 0
4, 81146, Note_on_c, 9, 56, 0
4, 81148, Note_on_c, 9, 37, 0
4, 81176, Note_on_c, 9, 80, 0
4, 81220, Note_on_c, 9, 35, 73
4, 81226, Note_on_c, 9, 64, 69
4, 81234, Note_on_c, 9, 81, 56
4, 81280, Note_on_c, 9, 35, 0
4, 81320, Note_on_c, 9, 64, 0
4, 81334, Note_on_c, 9, 81, 0
4, 81408, Note_on_c, 9, 56, 63
4, 81414, Note_on_c, 9, 37, 96
4, 81414, Note_on_c, 9, 70, 100
4, 81420, Note_on_c, 9, 81, 58
4, 81506, Note_on_c, 9, 70, 0
4, 81518, Note_on_c, 9, 56, 0
4, 81524, Note_on_c, 9, 37, 0
4, 81566, Note_on_c, 9, 81, 0
4, 81622, Note_on_c, 9, 80, 84
4, 81764, Note_on_c, 9, 80, 0
4, 81792, Note_on_c, 9, 56, 67
4, 81794, Note_on_c, 9, 37, 96
4, 81804, Note_on_c, 9, 62, 92
4, 81820, Note_on_c, 9, 81, 50
4, 81886, Note_on_c, 9, 56, 0
4, 81888, Note_on_c, 9, 37, 0
4, 81912, Note_on_c, 9, 81, 0
4, 81926, Note_on_c, 9, 62, 0
4, 81986, Note_on_c, 9, 70, 100
4, 81986, Note_on_c, 9, 35, 55
4, 82010, Note_on_c, 9, 81, 66
4, 82040, Note_on_c, 9, 35, 0
4, 82076, Note_on_c, 9, 70, 0
4, 82124, Note_on_c, 9, 81, 0
4, 82176, Note_on_c, 9, 37, 96
4, 82176, Note_on_c, 9, 56, 67
4, 82176, Note_on_c, 9, 35, 68
4, 82190, Note_on_c, 9, 81, 72
4, 82310, Note_on_c, 9, 56, 0
4, 82310, Note_on_c, 9, 37, 0
4, 82356, Note_on_c, 9, 81, 0
4, 82362, Note_on_c, 9, 35, 0
4, 82378, Note_on_c, 9, 80, 77
4, 82542, Note_on_c, 9, 63, 65
4, 82548, Note_on_c, 9, 80, 0
4, 82560, Note_on_c, 9, 37, 96
4, 82560, Note_on_c, 9, 70, 91
4, 82560, Note_on_c, 9, 56, 63
4, 82564, Note_on_c, 9, 81, 53
4, 82624, Note_on_c, 9, 63, 0
4, 82652, Note_on_c, 9, 56, 0
4, 82652, Note_on_c, 9, 37, 0
4, 82654, Note_on_c, 9, 70, 0
4, 82678, Note_on_c, 9, 81, 0
4, 82738, Note_on_c, 9, 63, 77
4, 82748, Note_on_c, 9, 35, 48
4, 82758, Note_on_c, 9, 81, 71
4, 82806, Note_on_c, 9, 35, 0
4, 82858, Note_on_c, 9, 63, 0
4, 82926, Note_on_c, 9, 81, 0
4, 82944, Note_on_c, 9, 37, 96
4, 82944, Note_on_c, 9, 70, 98
4, 82944, Note_on_c, 9, 56, 67
4, 82944, Note_on_c, 9, 80, 82
4, 82944, Note_on_c, 9, 35, 68
4, 83034, Note_on_c, 9, 70, 0
4, 83076, Note_on_c, 9, 35, 0
4, 83078, Note_on_c, 9, 37, 0
4, 83078, Note_on_c, 9, 56, 0
4, 83092, Note_on_c, 9, 80, 0
4, 83158, Note_on_c, 9, 81, 58
4, 83270, Note_on_c, 9, 81, 0
4, 83328, Note_on_c, 9, 37, 96
4, 83328, Note_on_c, 9, 70, 100
4, 83328, Note_on_c, 9, 56, 63
4, 83336, Note_on_c, 9, 62, 92
4, 83344, Note_on_c, 9, 81, 55
4, 83420, Note_on_c, 9, 70, 0
4, 83452, Note_on_c, 9, 62, 0
4, 83470, Note_on_c, 9, 37, 0
4, 83470, Note_on_c, 9, 56, 0
4, 83490, Note_on_c, 9, 81, 0
4, 83522, Note_on_c, 9, 35, 58
4, 83526, Note_on_c, 9, 80, 80
4, 83610, Note_on_c, 9, 35, 0
4, 83702, Note_on_c, 9, 80, 0
4, 83710, Note_on_c, 9, 37, 96
4, 83710, Note_on_c, 9, 35, 68
4, 83712, Note_on_c, 9, 56, 63
4, 83722, Note_on_c, 9, 81, 53
4, 83816, Note_on_c, 9, 35, 0
4, 83818, Note_on_c, 9, 81, 0
4, 83854, Note_on_c, 9, 37, 0
4, 83856, Note_on_c, 9, 56, 0
4, 83904, Note_on_c, 9, 70, 100
4, 83906, Note_on_c, 9, 81, 66
4, 83990, Note_on_c, 9, 70, 0
4, 84068, Note_on_c, 9, 81, 0
4, 84072, Note_on_c, 9, 80, 77
4, 84094, Note_on_c, 9, 64, 73
4, 84096, Note_on_c, 9, 56, 59
4, 84098, Note_on_c, 9, 37, 96
4, 84174, Note_on_c, 9, 64, 0
4, 84216, Note_on_c, 9, 56, 0
4, 84218, Note_on_c, 9, 37, 0
4, 84286, Note_on_c, 9, 81, 49
4, 84292, Note_on_c, 9, 35, 77
4, 84296, Note_on_c, 9, 64, 73
4, 84338, Note_on_c, 9, 80, 0
4, 84360, Note_on_c, 9, 35, 0
4, 84406, Note_on_c, 9, 81, 0
4, 84408, Note_on_c, 9, 64, 0
4, 84480, Note_on_c, 9, 56, 67
4, 84482, Note_on_c, 9, 81, 66
4, 84486, Note_on_c, 9, 37, 96
4, 84486, Note_on_c, 9, 70, 91
4, 84586, Note_on_c, 9, 70, 0
4, 84622, Note_on_c, 9, 56, 0
4, 84628, Note_on_c, 9, 37, 0
4, 84680, Note_on_c, 9, 81, 0
4, 84686, Note_on_c, 9, 80, 83
4, 84864, Note_on_c, 9, 56, 67
4, 84866, Note_on_c, 9, 37, 96
4, 84868, Note_on_c, 9, 81, 47
4, 84876, Note_on_c, 9, 62, 94
4, 84880, Note_on_c, 9, 80, 0
4, 84974, Note_on_c, 9, 81, 0
4, 84986, Note_on_c, 9, 56, 0
4, 84988, Note_on_c, 9, 37, 0
4, 84988, Note_on_c, 9, 62, 0
4, 85058, Note_on_c, 9, 70, 100
4, 85058, Note_on_c, 9, 35, 60
4, 85074, Note_on_c, 9, 81, 66
4, 85112, Note_on_c, 9, 35, 0
4, 85150, Note_on_c, 9, 70, 0
4, 85184, Note_on_c, 9, 81, 0
4, 85248, Note_on_c, 9, 37, 96
4, 85248, Note_on_c, 9, 56, 67
4, 85248, Note_on_c, 9, 35, 70
4, 85250, Note_on_c, 9, 64, 58
4, 85252, Note_on_c, 9, 81, 71
4, 85314, Note_on_c, 9, 35, 0
4, 85332, Note_on_c, 9, 64, 0
4, 85368, Note_on_c, 9, 37, 0
4, 85368, Note_on_c, 9, 56, 0
4, 85436, Note_on_c, 9, 81, 0
4, 85442, Note_on_c, 9, 80, 74
4, 85530, Note_on_c, 9, 64, 58
4, 85580, Note_on_c, 9, 80, 0
4, 85614, Note_on_c, 9, 64, 0
4, 85632, Note_on_c, 9, 37, 96
4, 85632, Note_on_c, 9, 70, 100
4, 85632, Note_on_c, 9, 56, 67
4, 85656, Note_on_c, 9, 81, 32
4, 85728, Note_on_c, 9, 70, 0
4, 85732, Note_on_c, 9, 81, 0
4, 85748, Note_on_c, 9, 56, 0
4, 85748, Note_on_c, 9, 37, 0
4, 85792, Note_on_c, 9, 64, 58
4, 85820, Note_on_c, 9, 35, 55
4, 85848, Note_on_c, 9, 80, 81
4, 85888, Note_on_c, 9, 64, 0
4, 85894, Note_on_c, 9, 35, 0
4, 85962, Note_on_c, 9, 80, 0
4, 86016, Note_on_c, 9, 37, 96
4, 86016, Note_on_c, 9, 70, 100
4, 86016, Note_on_c, 9, 56, 72
4, 86016, Note_on_c, 9, 35, 63
4, 86036, Note_on_c, 9, 81, 76
4, 86152, Note_on_c, 9, 81, 0
4, 86158, Note_on_c, 9, 70, 0
4, 86178, Note_on_c, 9, 37, 0
4, 86178, Note_on_c, 9, 56, 0
4, 86222, Note_on_c, 9, 35, 0
4, 86240, Note_on_c, 9, 81, 53
4, 86328, Note_on_c, 9, 81, 0
4, 86400, Note_on_c, 9, 37, 96
4, 86400, Note_on_c, 9, 70, 100
4, 86400, Note_on_c, 9, 56, 63
4, 86416, Note_on_c, 9, 81, 61
4, 86420, Note_on_c, 9, 62, 96
4, 86502, Note_on_c, 9, 70, 0
4, 86544, Note_on_c, 9, 81, 0
4, 86546, Note_on_c, 9, 62, 0
4, 86550, Note_on_c, 9, 56, 0
4, 86550, Note_on_c, 9, 37, 0
4, 86594, Note_on_c, 9, 35, 48
4, 86596, Note_on_c, 9, 80, 67
4, 86648, Note_on_c, 9, 35, 0
4, 86714, Note_on_c, 9, 80, 0
4, 86782, Note_on_c, 9, 37, 96
4, 86782, Note_on_c, 9, 35, 68
4, 86784, Note_on_c, 9, 56, 72
4, 86786, Note_on_c, 9, 81, 65
4, 86908, Note_on_c, 9, 81, 0
4, 86920, Note_on_c, 9, 37, 0
4, 86922, Note_on_c, 9, 56, 0
4, 86976, Note_on_c, 9, 70, 91
4, 86982, Note_on_c, 9, 80, 73
4, 87064, Note_on_c, 9, 70, 0
4, 87086, Note_on_c, 9, 80, 0
4, 87108, Note_on_c, 9, 35, 0
4, 87164, Note_on_c, 9, 81, 55
4, 87168, Note_on_c, 9, 56, 67
4, 87170, Note_on_c, 9, 37, 96
4, 87180, Note_on_c, 9, 64, 65
4, 87252, Note_on_c, 9, 81, 0
4, 87262, Note_on_c, 9, 64, 0
4, 87290, Note_on_c, 9, 56, 0
4, 87292, Note_on_c, 9, 37, 0
4, 87364, Note_on_c, 9, 35, 73
4, 87366, Note_on_c, 9, 81, 64
4, 87370, Note_on_c, 9, 64, 69
4, 87424, Note_on_c, 9, 35, 0
4, 87464, Note_on_c, 9, 64, 0
4, 87476, Note_on_c, 9, 81, 0
4, 87552, Note_on_c, 9, 56, 63
4, 87552, Note_on_c, 9, 81, 64
4, 87558, Note_on_c, 9, 37, 96
4, 87558, Note_on_c, 9, 70, 100
4, 87650, Note_on_c, 9, 70, 0
4, 87662, Note_on_c, 9, 56, 0
4, 87668, Note_on_c, 9, 37, 0
4, 87696, Note_on_c, 9, 81, 0
4, 87740, Note_on_c, 9, 80, 67
4, 87854, Note_on_c, 9, 80, 0
4, 87936, Note_on_c, 9, 56, 67
4, 87938, Note_on_c, 9, 37, 96
4, 87948, Note_on_c, 9, 62, 92
4, 87952, Note_on_c, 9, 81, 55
4, 88030, Note_on_c, 9, 56, 0
4, 88032, Note_on_c, 9, 37, 0
4, 88042, Note_on_c, 9, 81, 0
4, 88070, Note_on_c, 9, 62, 0
4, 88130, Note_on_c, 9, 70, 100
4, 88130, Note_on_c, 9, 35, 55
4, 88132, Note_on_c, 9, 81, 57
4, 88184, Note_on_c, 9, 35, 0
4, 88220, Note_on_c, 9, 70, 0
4, 88260, Note_on_c, 9, 81, 0
4, 88306, Note_on_c, 9, 80, 57
4, 88320, Note_on_c, 9, 37, 96
4, 88320, Note_on_c, 9, 56, 67
4, 88320, Note_on_c, 9, 35, 68
4, 88440, Note_on_c, 9, 80, 0
4, 88454, Note_on_c, 9, 37, 0
4, 88454, Note_on_c, 9, 56, 0
4, 88506, Note_on_c, 9, 35, 0
4, 88526, Note_on_c, 9, 81, 43
4, 88594, Note_on_c, 9, 81, 0
4, 88686, Note_on_c, 9, 63, 65
4, 88704, Note_on_c, 9, 37, 96
4, 88704, Note_on_c, 9, 70, 91
4, 88704, Note_on_c, 9, 56, 63
4, 88714, Note_on_c, 9, 81, 48
4, 88768, Note_on_c, 9, 63, 0
4, 88796, Note_on_c, 9, 56, 0
4, 88796, Note_on_c, 9, 37, 0
4, 88798, Note_on_c, 9, 70, 0
4, 88862, Note_on_c, 9, 81, 0
4, 88882, Note_on_c, 9, 63, 77
4, 88892, Note_on_c, 9, 35, 48
4, 88922, Note_on_c, 9, 80, 58
4, 88950, Note_on_c, 9, 35, 0
4, 89002, Note_on_c, 9, 63, 0
4, 89008, Note_on_c, 9, 80, 0
4, 89088, Note_on_c, 9, 37, 96
4, 89088, Note_on_c, 9, 70, 98
4, 89088, Note_on_c, 9, 56, 67
4, 89088, Note_on_c, 9, 35, 68
4, 89116, Note_on_c, 9, 80, 56
4, 89178, Note_on_c, 9, 70, 0
4, 89212, Note_on_c, 9, 80, 0
4, 89220, Note_on_c, 9, 35, 0
4, 89222, Note_on_c, 9, 56, 0
4, 89222, Note_on_c, 9, 37, 0
4, 89298, Note_on_c, 9, 81, 61
4, 89394, Note_on_c, 9, 81, 0
4, 89472, Note_on_c, 9, 37, 96
4, 89472, Note_on_c, 9, 70, 100
4, 89472, Note_on_c, 9, 56, 63
4, 89480, Note_on_c, 9, 62, 92
4, 89484, Note_on_c, 9, 81, 55
4, 89564, Note_on_c, 9, 70, 0
4, 89596, Note_on_c, 9, 62, 0
4, 89614, Note_on_c, 9, 37, 0
4, 89614, Note_on_c, 9, 56, 0
4, 89618, Note_on_c, 9, 81, 0
4, 89666, Note_on_c, 9, 35, 58
4, 89666, Note_on_c, 9, 80, 71
4, 89754, Note_on_c, 9, 35, 0
4, 89790, Note_on_c, 9, 80, 0
4, 89854, Note_on_c, 9, 37, 96
4, 89854, Note_on_c, 9, 35, 68
4, 89856, Note_on_c, 9, 56, 63
4, 89886, Note_on_c, 9, 81, 32
4, 89940, Note_on_c, 9, 81, 0
4, 89960, Note_on_c, 9, 35, 0
4, 89998, Note_on_c, 9, 37, 0
4, 90000, Note_on_c, 9, 56, 0
4, 90048, Note_on_c, 9, 70, 100
4, 90066, Note_on_c, 9, 81, 64
4, 90134, Note_on_c, 9, 70, 0
4, 90222, Note_on_c, 9, 81, 0
4, 90238, Note_on_c, 9, 64, 73
4, 90240, Note_on_c, 9, 56, 59
4, 90242, Note_on_c, 9, 37, 96
4, 90244, Note_on_c, 9, 80, 60
4, 90318, Note_on_c, 9, 64, 0
4, 90346, Note_on_c, 9, 80, 0
4, 90360, Note_on_c, 9, 56, 0
4, 90362, Note_on_c, 9, 37, 0
4, 90436, Note_on_c, 9, 35, 77
4, 90440, Note_on_c, 9, 64, 73
4, 90440, Note_on_c, 9, 81, 54
4, 90504, Note_on_c, 9, 35, 0
4, 90524, Note_on_c, 9, 81, 0
4, 90552, Note_on_c, 9, 64, 0
4, 90624, Note_on_c, 9, 56, 67
4, 90628, Note_on_c, 9, 81, 58
4, 90630, Note_on_c, 9, 37, 96
4, 90630, Note_on_c, 9, 70, 91
4, 90730, Note_on_c, 9, 70, 0
4, 90736, Note_on_c, 9, 81, 0
4, 90766, Note_on_c, 9, 56, 0
4, 90772, Note_on_c, 9, 37, 0
4, 90876, Note_on_c, 9, 81, 29
4, 90924, Note_on_c, 9, 81, 0
4, 91008, Note_on_c, 9, 56, 67
4, 91010, Note_on_c, 9, 37, 96
4, 91020, Note_on_c, 9, 62, 94
4, 91130, Note_on_c, 9, 56, 0
4, 91132, Note_on_c, 9, 62, 0
4, 91132, Note_on_c, 9, 37, 0
4, 91202, Note_on_c, 9, 70, 100
4, 91202, Note_on_c, 9, 35, 60
4, 91246, Note_on_c, 9, 81, 80
4, 91256, Note_on_c, 9, 35, 0
4, 91294, Note_on_c, 9, 70, 0
4, 91334, Note_on_c, 9, 81, 0
4, 91392, Note_on_c, 9, 37, 96
4, 91392, Note_on_c, 9, 56, 67
4, 91392, Note_on_c, 9, 35, 70
4, 91394, Note_on_c, 9, 64, 58
4, 91458, Note_on_c, 9, 35, 0
4, 91476, Note_on_c, 9, 64, 0
4, 91512, Note_on_c, 9, 56, 0
4, 91512, Note_on_c, 9, 37, 0
4, 91598, Note_on_c, 9, 81, 83
4, 91674, Note_on_c, 9, 64, 58
4, 91726, Note_on_c, 9, 81, 0
4, 91758, Note_on_c, 9, 64, 0
4, 91776, Note_on_c, 9, 37, 96
4, 91776, Note_on_c, 9, 70, 100
4, 91776, Note_on_c, 9, 56, 67
4, 91872, Note_on_c, 9, 70, 0
4, 91892, Note_on_c, 9, 56, 0
4, 91892, Note_on_c, 9, 37, 0
4, 91936, Note_on_c, 9, 64, 58
4, 91964, Note_on_c, 9, 35, 55
4, 91976, Note_on_c, 9, 59, 80
4, 92032, Note_on_c, 9, 64, 0
4, 92038, Note_on_c, 9, 35, 0
4, 92058, Note_on_c, 9, 59, 0
4, 92160, Note_on_c, 9, 37, 96
4, 92160, Note_on_c, 9, 70, 100
4, 92160, Note_on_c, 9, 56, 72
4, 92160, Note_on_c, 9, 35, 63
4, 92182, Note_on_c, 9, 59, 73
4, 92302, Note_on_c, 9, 70, 0
4, 92304, Note_on_c, 9, 59, 0
4, 92322, Note_on_c, 9, 37, 0
4, 92322, Note_on_c, 9, 56, 0
4, 92366, Note_on_c, 9, 35, 0
4, 92544, Note_on_c, 9, 37, 96
4, 92544, Note_on_c, 9, 70, 100
4, 92544, Note_on_c, 9, 56, 63
4, 92564, Note_on_c, 9, 62, 96
4, 92566, Note_on_c, 9, 59, 79
4, 92646, Note_on_c, 9, 70, 0
4, 92690, Note_on_c, 9, 62, 0
4, 92694, Note_on_c, 9, 37, 0
4, 92694, Note_on_c, 9, 56, 0
4, 92738, Note_on_c, 9, 35, 48
4, 92752, Note_on_c, 9, 59, 0
4, 92792, Note_on_c, 9, 35, 0
4, 92926, Note_on_c, 9, 37, 96
4, 92926, Note_on_c, 9, 35, 68
4, 92928, Note_on_c, 9, 56, 72
4, 92966, Note_on_c, 9, 59, 76
4, 93052, Note_on_c, 9, 59, 0
4, 93064, Note_on_c, 9, 37, 0
4, 93066, Note_on_c, 9, 56, 0
4, 93120, Note_on_c, 9, 70, 91
4, 93148, Note_on_c, 9, 59, 51
4, 93208, Note_on_c, 9, 70, 0
4, 93252, Note_on_c, 9, 35, 0
4, 93280, Note_on_c, 9, 59, 0
4, 93312, Note_on_c, 9, 56, 67
4, 93314, Note_on_c, 9, 37, 96
4, 93318, Note_on_c, 9, 53, 54
4, 93324, Note_on_c, 9, 64, 65
4, 93384, Note_on_c, 9, 53, 0
4, 93406, Note_on_c, 9, 64, 0
4, 93434, Note_on_c, 9, 56, 0
4, 93436, Note_on_c, 9, 37, 0
4, 93508, Note_on_c, 9, 35, 73
4, 93512, Note_on_c, 9, 59, 76
4, 93514, Note_on_c, 9, 64, 69
4, 93568, Note_on_c, 9, 35, 0
4, 93608, Note_on_c, 9, 64, 0
4, 93696, Note_on_c, 9, 56, 63
4, 93702, Note_on_c, 9, 37, 96
4, 93702, Note_on_c, 9, 70, 100
4, 93742, Note_on_c, 9, 59, 0
4, 93794, Note_on_c, 9, 70, 0
4, 93806, Note_on_c, 9, 56, 0
4, 93812, Note_on_c, 9, 37, 0
4, 93916, Note_on_c, 9, 59, 64
4, 94080, Note_on_c, 9, 56, 67
4, 94082, Note_on_c, 9, 37, 96
4, 94092, Note_on_c, 9, 62, 92
4, 94174, Note_on_c, 9, 56, 0
4, 94176, Note_on_c, 9, 59, 0
4, 94176, Note_on_c, 9, 37, 0
4, 94214, Note_on_c, 9, 62, 0
4, 94274, Note_on_c, 9, 70, 100
4, 94274, Note_on_c, 9, 35, 55
4, 94292, Note_on_c, 9, 53, 60
4, 94328, Note_on_c, 9, 35, 0
4, 94364, Note_on_c, 9, 70, 0
4, 94400, Note_on_c, 9, 53, 0
4, 94464, Note_on_c, 9, 37, 96
4, 94464, Note_on_c, 9, 56, 67
4, 94464, Note_on_c, 9, 35, 68
4, 94490, Note_on_c, 9, 59, 58
4, 94570, Note_on_c, 9, 59, 0
4, 94598, Note_on_c, 9, 37, 0
4, 94598, Note_on_c, 9, 56, 0
4, 94650, Note_on_c, 9, 35, 0
4, 94664, Note_on_c, 9, 59, 62
4, 94812, Note_on_c, 9, 59, 0
4, 94830, Note_on_c, 9, 63, 65
4, 94848, Note_on_c, 9, 37, 96
4, 94848, Note_on_c, 9, 70, 91
4, 94848, Note_on_c, 9, 56, 63
4, 94864, Note_on_c, 9, 53, 57
4, 94902, Note_on_c, 9, 53, 0
4, 94912, Note_on_c, 9, 63, 0
4, 94940, Note_on_c, 9, 37, 0
4, 94940, Note_on_c, 9, 56, 0
4, 94942, Note_on_c, 9, 70, 0
4, 95026, Note_on_c, 9, 63, 77
4, 95036, Note_on_c, 9, 35, 48
4, 95044, Note_on_c, 9, 53, 68
4, 95094, Note_on_c, 9, 35, 0
4, 95146, Note_on_c, 9, 63, 0
4, 95186, Note_on_c, 9, 53, 0
4, 95232, Note_on_c, 9, 37, 96
4, 95232, Note_on_c, 9, 70, 100
4, 95232, Note_on_c, 9, 56, 72
4, 95240, Note_on_c, 9, 59, 58
4, 95374, Note_on_c, 9, 70, 0
4, 95394, Note_on_c, 9, 37, 0
4, 95394, Note_on_c, 9, 56, 0
4, 95452, Note_on_c, 9, 59, 0
4, 95616, Note_on_c, 9, 37, 96
4, 95616, Note_on_c, 9, 70, 100
4, 95616, Note_on_c, 9, 56, 63
4, 95622, Note_on_c, 9, 59, 67
4, 95624, Note_on_c, 9, 62, 92
4, 95718, Note_on_c, 9, 70, 0
4, 95740, Note_on_c, 9, 62, 0
4, 95766, Note_on_c, 9, 37, 0
4, 95766, Note_on_c, 9, 56, 0
4, 95870, Note_on_c, 9, 59, 0
4, 95998, Note_on_c, 9, 37, 96
4, 96000, Note_on_c, 9, 56, 72
4, 96028, Note_on_c, 9, 59, 50
4, 96096, Note_on_c, 9, 59, 0
4, 96136, Note_on_c, 9, 37, 0
4, 96138, Note_on_c, 9, 56, 0
4, 96176, Note_on_c, 9, 59, 50
4, 96192, Note_on_c, 9, 70, 91
4, 96280, Note_on_c, 9, 70, 0
4, 96294, Note_on_c, 9, 59, 0
4, 96382, Note_on_c, 9, 64, 73
4, 96384, Note_on_c, 9, 56, 67
4, 96386, Note_on_c, 9, 37, 96
4, 96426, Note_on_c, 9, 59, 24
4, 96454, Note_on_c, 9, 59, 0
4, 96462, Note_on_c, 9, 64, 0
4, 96506, Note_on_c, 9, 56, 0
4, 96508, Note_on_c, 9, 37, 0
4, 96584, Note_on_c, 9, 64, 73
4, 96594, Note_on_c, 9, 59, 76
4, 96696, Note_on_c, 9, 64, 0
4, 96722, Note_on_c, 9, 59, 0
4, 96768, Note_on_c, 9, 56, 63
4, 96774, Note_on_c, 9, 37, 96
4, 96774, Note_on_c, 9, 70, 100
4, 96866, Note_on_c, 9, 70, 0
4, 96878, Note_on_c, 9, 56, 0
4, 96884, Note_on_c, 9, 37, 0
4, 97002, Note_on_c, 9, 59, 69
4, 97152, Note_on_c, 9, 56, 67
4, 97154, Note_on_c, 9, 37, 96
4, 97164, Note_on_c, 9, 62, 94
4, 97172, Note_on_c, 9, 59, 0
4, 97246, Note_on_c, 9, 56, 0
4, 97248, Note_on_c, 9, 37, 0
4, 97276, Note_on_c, 9, 62, 0
4, 97346, Note_on_c, 9, 70, 100
4, 97372, Note_on_c, 9, 59, 68
4, 97436, Note_on_c, 9, 70, 0
4, 97458, Note_on_c, 9, 59, 0
4, 97536, Note_on_c, 9, 37, 96
4, 97536, Note_on_c, 9, 56, 67
4, 97536, Note_on_c, 9, 59, 56
4, 97538, Note_on_c, 9, 64, 58
4, 97620, Note_on_c, 9, 64, 0
4, 97644, Note_on_c, 9, 59, 0
4, 97670, Note_on_c, 9, 56, 0
4, 97670, Note_on_c, 9, 37, 0
4, 97722, Note_on_c, 9, 59, 57
4, 97766, Note_on_c, 9, 59, 0
4, 97818, Note_on_c, 9, 64, 58
4, 97902, Note_on_c, 9, 64, 0
4, 97902, Note_on_c, 9, 59, 84
4, 97920, Note_on_c, 9, 37, 96
4, 97920, Note_on_c, 9, 70, 91
4, 97920, Note_on_c, 9, 56, 63
4, 98012, Note_on_c, 9, 56, 0
4, 98012, Note_on_c, 9, 37, 0
4, 98014, Note_on_c, 9, 70, 0
4, 98080, Note_on_c, 9, 64, 58
4, 98130, Note_on_c, 9, 59, 0
4, 98176, Note_on_c, 9, 64, 0
4, 98304, Note_on_c, 9, 37, 96
4, 98304, Note_on_c, 9, 70, 98
4, 98304, Note_on_c, 9, 56, 67
4, 98338, Note_on_c, 9, 59, 64
4, 98394, Note_on_c, 9, 70, 0
4, 98428, Note_on_c, 9, 59, 0
4, 98438, Note_on_c, 9, 56, 0
4, 98438, Note_on_c, 9, 37, 0
4, 98516, Note_on_c, 9, 59, 37
4, 98580, Note_on_c, 9, 59, 0
4, 98688, Note_on_c, 9, 37, 96
4, 98688, Note_on_c, 9, 70, 100
4, 98688, Note_on_c, 9, 56, 63
4, 98708, Note_on_c, 9, 62, 96
4, 98726, Note_on_c, 9, 59, 33
4, 98760, Note_on_c, 9, 59, 0
4, 98780, Note_on_c, 9, 70, 0
4, 98830, Note_on_c, 9, 37, 0
4, 98830, Note_on_c, 9, 56, 0
4, 98834, Note_on_c, 9, 62, 0
4, 98908, Note_on_c, 9, 59, 87
4, 99070, Note_on_c, 9, 37, 96
4, 99072, Note_on_c, 9, 56, 63
4, 99154, Note_on_c, 9, 59, 0
4, 99214, Note_on_c, 9, 37, 0
4, 99216, Note_on_c, 9, 56, 0
4, 99264, Note_on_c, 9, 70, 100
4, 99282, Note_on_c, 9, 59, 43
4, 99320, Note_on_c, 9, 59, 0
4, 99350, Note_on_c, 9, 70, 0
4, 99456, Note_on_c, 9, 56, 59
4, 99458, Note_on_c, 9, 37, 96
4, 99460, Note_on_c, 9, 59, 54
4, 99468, Note_on_c, 9, 64, 65
4, 99528, Note_on_c, 9, 59, 0
4, 99550, Note_on_c, 9, 64, 0
4, 99576, Note_on_c, 9, 56, 0
4, 99578, Note_on_c, 9, 37, 0
4, 99648, Note_on_c, 9, 59, 77
4, 99658, Note_on_c, 9, 64, 69
4, 99752, Note_on_c, 9, 64, 0
4, 99840, Note_on_c, 9, 56, 67
4, 99846, Note_on_c, 9, 37, 96
4, 99846, Note_on_c, 9, 70, 91
4, 99892, Note_on_c, 9, 59, 0
4, 99946, Note_on_c, 9, 70, 0
4, 99982, Note_on_c, 9, 56, 0
4, 99988, Note_on_c, 9, 37, 0
4, 100046, Note_on_c, 9, 59, 82
4, 100224, Note_on_c, 9, 56, 67
4, 100226, Note_on_c, 9, 37, 96
4, 100236, Note_on_c, 9, 62, 92
4, 100312, Note_on_c, 9, 59, 0
4, 100346, Note_on_c, 9, 56, 0
4, 100348, Note_on_c, 9, 37, 0
4, 100358, Note_on_c, 9, 62, 0
4, 100418, Note_on_c, 9, 70, 100
4, 100424, Note_on_c, 9, 59, 80
4, 100510, Note_on_c, 9, 70, 0
4, 100608, Note_on_c, 9, 37, 96
4, 100608, Note_on_c, 9, 56, 67
4, 100672, Note_on_c, 9, 59, 0
4, 100728, Note_on_c, 9, 56, 0
4, 100728, Note_on_c, 9, 37, 0
4, 100842, Note_on_c, 9, 59, 79
4, 100932, Note_on_c, 9, 59, 0
4, 100974, Note_on_c, 9, 63, 65
4, 100992, Note_on_c, 9, 37, 96
4, 100992, Note_on_c, 9, 70, 100
4, 100992, Note_on_c, 9, 56, 67
4, 101020, Note_on_c, 9, 59, 53
4, 101056, Note_on_c, 9, 63, 0
4, 101088, Note_on_c, 9, 70, 0
4, 101108, Note_on_c, 9, 37, 0
4, 101108, Note_on_c, 9, 56, 0
4, 101114, Note_on_c, 9, 59, 0
4, 101170, Note_on_c, 9, 63, 77
4, 101196, Note_on_c, 9, 53, 62
4, 101262, Note_on_c, 9, 53, 0
4, 101290, Note_on_c, 9, 63, 0
4, 101372, Note_on_c, 9, 59, 53
4, 101376, Note_on_c, 9, 37, 96
4, 101376, Note_on_c, 9, 70, 100
4, 101376, Note_on_c, 9, 56, 72
4, 101376, Note_on_c, 9, 35, 63
4, 101488, Note_on_c, 9, 59, 0
4, 101518, Note_on_c, 9, 70, 0
4, 101538, Note_on_c, 9, 37, 0
4, 101538, Note_on_c, 9, 56, 0
4, 101582, Note_on_c, 9, 35, 0
4, 101760, Note_on_c, 9, 37, 96
4, 101760, Note_on_c, 9, 70, 100
4, 101760, Note_on_c, 9, 56, 63
4, 101764, Note_on_c, 9, 59, 68
4, 101780, Note_on_c, 9, 62, 96
4, 101862, Note_on_c, 9, 70, 0
4, 101906, Note_on_c, 9, 62, 0
4, 101910, Note_on_c, 9, 37, 0
4, 101910, Note_on_c, 9, 56, 0
4, 101954, Note_on_c, 9, 35, 48
4, 101960, Note_on_c, 9, 59, 0
4, 102008, Note_on_c, 9, 35, 0
4, 102142, Note_on_c, 9, 37, 96
4, 102142, Note_on_c, 9, 35, 68
4, 102144, Note_on_c, 9, 56, 72
4, 102154, Note_on_c, 9, 59, 76
4, 102276, Note_on_c, 9, 59, 0
4, 102280, Note_on_c, 9, 37, 0
4, 102282, Note_on_c, 9, 56, 0
4, 102336, Note_on_c, 9, 70, 91
4, 102344, Note_on_c, 9, 53, 56
4, 102424, Note_on_c, 9, 70, 0
4, 102426, Note_on_c, 9, 53, 0
4, 102468, Note_on_c, 9, 35, 0
4, 102528, Note_on_c, 9, 56, 67
4, 102530, Note_on_c, 9, 37, 96
4, 102540, Note_on_c, 9, 64, 65
4, 102622, Note_on_c, 9, 64, 0
4, 102650, Note_on_c, 9, 56, 0
4, 102652, Note_on_c, 9, 37, 0
4, 102724, Note_on_c, 9, 35, 73
4, 102730, Note_on_c, 9, 64, 69
4, 102734, Note_on_c, 9, 59, 84
4, 102784, Note_on_c, 9, 35, 0
4, 102824, Note_on_c, 9, 64, 0
4, 102912, Note_on_c, 9, 56, 63
4, 102918, Note_on_c, 9, 37, 96
4, 102918, Note_on_c, 9, 70, 100
4, 102960, Note_on_c, 9, 59, 0
4, 103010, Note_on_c, 9, 70, 0
4, 103022, Note_on_c, 9, 56, 0
4, 103028, Note_on_c, 9, 37, 0
4, 103138, Note_on_c, 9, 59, 82
4, 103296, Note_on_c, 9, 56, 67
4, 103298, Note_on_c, 9, 37, 96
4, 103308, Note_on_c, 9, 62, 92
4, 103330, Note_on_c, 9, 59, 0
4, 103390, Note_on_c, 9, 56, 0
4, 103392, Note_on_c, 9, 37, 0
4, 103430, Note_on_c, 9, 62, 0
4, 103490, Note_on_c, 9, 70, 100
4, 103490, Note_on_c, 9, 35, 55
4, 103506, Note_on_c, 9, 59, 83
4, 103544, Note_on_c, 9, 35, 0
4, 103580, Note_on_c, 9, 70, 0
4, 103598, Note_on_c, 9, 59, 0
4, 103680, Note_on_c, 9, 37, 96
4, 103680, Note_on_c, 9, 56, 67
4, 103680, Note_on_c, 9, 35, 68
4, 103694, Note_on_c, 9, 59, 67
4, 103814, Note_on_c, 9, 56, 0
4, 103814, Note_on_c, 9, 37, 0
4, 103866, Note_on_c, 9, 35, 0
4, 103898, Note_on_c, 9, 59, 0
4, 104046, Note_on_c, 9, 63, 65
4, 104064, Note_on_c, 9, 37, 96
4, 104064, Note_on_c, 9, 70, 91
4, 104064, Note_on_c, 9, 56, 63
4, 104080, Note_on_c, 9, 53, 63
4, 104092, Note_on_c, 9, 59, 71
4, 104128, Note_on_c, 9, 63, 0
4, 104156, Note_on_c, 9, 56, 0
4, 104156, Note_on_c, 9, 37, 0
4, 104158, Note_on_c, 9, 70, 0
4, 104212, Note_on_c, 9, 59, 0
4, 104242, Note_on_c, 9, 63, 77
4, 104252, Note_on_c, 9, 35, 48
4, 104286, Note_on_c, 9, 53, 0
4, 104308, Note_on_c, 9, 59, 69
4, 104310, Note_on_c, 9, 35, 0
4, 104362, Note_on_c, 9, 63, 0
4, 104428, Note_on_c, 9, 59, 0
4, 104448, Note_on_c, 9, 37, 96
4, 104448, Note_on_c, 9, 70, 98
4, 104448, Note_on_c, 9, 56, 67
4, 104448, Note_on_c, 9, 35, 68
4, 104538, Note_on_c, 9, 70, 0
4, 104580, Note_on_c, 9, 35, 0
4, 104582, Note_on_c, 9, 56, 0
4, 104582, Note_on_c, 9, 37, 0
4, 104662, Note_on_c, 9, 59, 70
4, 104668, Note_on_c, 9, 53, 70
4, 104796, Note_on_c, 9, 59, 0
4, 104800, Note_on_c, 9, 53, 0
4, 104832, Note_on_c, 9, 37, 96
4, 104832, Note_on_c, 9, 70, 100
4, 104832, Note_on_c, 9, 56, 63
4, 104840, Note_on_c, 9, 62, 92
4, 104862, Note_on_c, 9, 59, 46
4, 104924, Note_on_c, 9, 70, 0
4, 104956, Note_on_c, 9, 62, 0
4, 104974, Note_on_c, 9, 37, 0
4, 104974, Note_on_c, 9, 56, 0
4, 105026, Note_on_c, 9, 35, 58
4, 105052, Note_on_c, 9, 59, 0
4, 105114, Note_on_c, 9, 35, 0
4, 105214, Note_on_c, 9, 37, 96
4, 105214, Note_on_c, 9, 35, 68
4, 105216, Note_on_c, 9, 56, 63
4, 105222, Note_on_c, 9, 59, 79
4, 105320, Note_on_c, 9, 35, 0
4, 105342, Note_on_c, 9, 59, 0
4, 105358, Note_on_c, 9, 37, 0
4, 105360, Note_on_c, 9, 56, 0
4, 105408, Note_on_c, 9, 70, 100
4, 105414, Note_on_c, 9, 59, 57
4, 105494, Note_on_c, 9, 70, 0
4, 105502, Note_on_c, 9, 59, 0
4, 105596, Note_on_c, 9, 59, 37
4, 105598, Note_on_c, 9, 64, 73
4, 105600, Note_on_c, 9, 56, 59
4, 105602, Note_on_c, 9, 37, 96
4, 105678, Note_on_c, 9, 64, 0
4, 105684, Note_on_c, 9, 59, 0
4, 105720, Note_on_c, 9, 56, 0
4, 105722, Note_on_c, 9, 37, 0
4, 105796, Note_on_c, 9, 35, 77
4, 105800, Note_on_c, 9, 64, 73
4, 105814, Note_on_c, 9, 59, 89
4, 105864, Note_on_c, 9, 35, 0
4, 105912, Note_on_c, 9, 64, 0
4, 105984, Note_on_c, 9, 56, 67
4, 105990, Note_on_c, 9, 37, 96
4, 105990, Note_on_c, 9, 70, 91
4, 106078, Note_on_c, 9, 59, 0
4, 106090, Note_on_c, 9, 70, 0
4, 106126, Note_on_c, 9, 56, 0
4, 106132, Note_on_c, 9, 37, 0
4, 106190, Note_on_c, 9, 59, 58
4, 106256, Note_on_c, 9, 59, 0
4, 106346, Note_on_c, 9, 59, 35
4, 106368, Note_on_c, 9, 56, 67
4, 106370, Note_on_c, 9, 37, 96
4, 106380, Note_on_c, 9, 62, 94
4, 106480, Note_on_c, 9, 59, 0
4, 106490, Note_on_c, 9, 56, 0
4, 106492, Note_on_c, 9, 37, 0
4, 106492, Note_on_c, 9, 62, 0
4, 106562, Note_on_c, 9, 70, 100
4, 106562, Note_on_c, 9, 35, 60
4, 106568, Note_on_c, 9, 59, 71
4, 106578, Note_on_c, 9, 53, 65
4, 106616, Note_on_c, 9, 35, 0
4, 106654, Note_on_c, 9, 70, 0
4, 106752, Note_on_c, 9, 37, 96
4, 106752, Note_on_c, 9, 56, 67
4, 106752, Note_on_c, 9, 35, 70
4, 106754, Note_on_c, 9, 64, 58
4, 106818, Note_on_c, 9, 35, 0
4, 106818, Note_on_c, 9, 53, 0
4, 106824, Note_on_c, 9, 59, 0
4, 106836, Note_on_c, 9, 64, 0
4, 106872, Note_on_c, 9, 56, 0
4, 106872, Note_on_c, 9, 37, 0
4, 106960, Note_on_c, 9, 59, 73
4, 106964, Note_on_c, 9, 53, 76
4, 107034, Note_on_c, 9, 64, 58
4, 107074, Note_on_c, 9, 59, 0
4, 107118, Note_on_c, 9, 64, 0
4, 107136, Note_on_c, 9, 37, 96
4, 107136, Note_on_c, 9, 70, 100
4, 107136, Note_on_c, 9, 56, 67
4, 107204, Note_on_c, 9, 53, 0
4, 107232, Note_on_c, 9, 70, 0
4, 107252, Note_on_c, 9, 37, 0
4, 107252, Note_on_c, 9, 56, 0
4, 107296, Note_on_c, 9, 64, 58
4, 107324, Note_on_c, 9, 35, 55
4, 107336, Note_on_c, 9, 53, 73
4, 107340, Note_on_c, 9, 59, 72
4, 107392, Note_on_c, 9, 64, 0
4, 107398, Note_on_c, 9, 35, 0
4, 107464, Note_on_c, 9, 59, 0
4, 107466, Note_on_c, 9, 53, 0
4, 107520, Note_on_c, 9, 37, 96
4, 107520, Note_on_c, 9, 70, 100
4, 107520, Note_on_c, 9, 56, 72
4, 107520, Note_on_c, 9, 35, 63
4, 107534, Note_on_c, 9, 59, 64
4, 107540, Note_on_c, 9, 53, 55
4, 107662, Note_on_c, 9, 70, 0
4, 107682, Note_on_c, 9, 37, 0
4, 107682, Note_on_c, 9, 56, 0
4, 107726, Note_on_c, 9, 35, 0
4, 107734, Note_on_c, 9, 59, 0
4, 107750, Note_on_c, 9, 53, 0
4, 107904, Note_on_c, 9, 37, 96
4, 107904, Note_on_c, 9, 70, 100
4, 107904, Note_on_c, 9, 56, 63
4, 107916, Note_on_c, 9, 59, 68
4, 107924, Note_on_c, 9, 62, 96
4, 108006, Note_on_c, 9, 70, 0
4, 108036, Note_on_c, 9, 59, 0
4, 108050, Note_on_c, 9, 62, 0
4, 108054, Note_on_c, 9, 56, 0
4, 108054, Note_on_c, 9, 37, 0
4, 108098, Note_on_c, 9, 35, 48
4, 108102, Note_on_c, 9, 59, 64
4, 108152, Note_on_c, 9, 35, 0
4, 108196, Note_on_c, 9, 59, 0
4, 108274, Note_on_c, 9, 59, 55
4, 108286, Note_on_c, 9, 37, 96
4, 108286, Note_on_c, 9, 35, 68
4, 108288, Note_on_c, 9, 56, 72
4, 108406, Note_on_c, 9, 59, 0
4, 108424, Note_on_c, 9, 37, 0
4, 108426, Note_on_c, 9, 56, 0
4, 108480, Note_on_c, 9, 70, 91
4, 108492, Note_on_c, 9, 59, 68
4, 108496, Note_on_c, 9, 53, 62
4, 108568, Note_on_c, 9, 70, 0
4, 108612, Note_on_c, 9, 35, 0
4, 108656, Note_on_c, 9, 53, 0
4, 108672, Note_on_c, 9, 56, 67
4, 108674, Note_on_c, 9, 37, 96
4, 108676, Note_on_c, 9, 59, 0
4, 108684, Note_on_c, 9, 64, 65
4, 108766, Note_on_c, 9, 64, 0
4, 108794, Note_on_c, 9, 56, 0
4, 108796, Note_on_c, 9, 37, 0
4, 108866, Note_on_c, 9, 53, 57
4, 108868, Note_on_c, 9, 35, 73
4, 108874, Note_on_c, 9, 64, 69
4, 108878, Note_on_c, 9, 59, 79
4, 108928, Note_on_c, 9, 35, 0
4, 108968, Note_on_c, 9, 64, 0
4, 109048, Note_on_c, 9, 53, 0
4, 109056, Note_on_c, 9, 56, 63
4, 109062, Note_on_c, 9, 37, 96
4, 109062, Note_on_c, 9, 70, 100
4, 109078, Note_on_c, 9, 59, 0
4, 109154, Note_on_c, 9, 70, 0
4, 109166, Note_on_c, 9, 56, 0
4, 109172, Note_on_c, 9, 37, 0
4, 109248, Note_on_c, 9, 53, 65
4, 109262, Note_on_c, 9, 59, 78
4, 109430, Note_on_c, 9, 59, 0
4, 109440, Note_on_c, 9, 56, 67
4, 109442, Note_on_c, 9, 37, 96
4, 109452, Note_on_c, 9, 62, 92
4, 109474, Note_on_c, 9, 53, 0
4, 109534, Note_on_c, 9, 56, 0
4, 109536, Note_on_c, 9, 37, 0
4, 109574, Note_on_c, 9, 62, 0
4, 109634, Note_on_c, 9, 70, 100
4, 109634, Note_on_c, 9, 35, 55
4, 109642, Note_on_c, 9, 59, 57
4, 109678, Note_on_c, 9, 59, 0
4, 109688, Note_on_c, 9, 35, 0
4, 109724, Note_on_c, 9, 70, 0
4, 109810, Note_on_c, 9, 53, 57
4, 109816, Note_on_c, 9, 59, 74
4, 109824, Note_on_c, 9, 37, 96
4, 109824, Note_on_c, 9, 56, 67
4, 109824, Note_on_c, 9, 35, 68
4, 109958, Note_on_c, 9, 56, 0
4, 109958, Note_on_c, 9, 37, 0
4, 109966, Note_on_c, 9, 59, 0
4, 109970, Note_on_c, 9, 53, 0
4, 110010, Note_on_c, 9, 35, 0
4, 110188, Note_on_c, 9, 59, 52
4, 110190, Note_on_c, 9, 63, 65
4, 110208, Note_on_c, 9, 37, 96
4, 110208, Note_on_c, 9, 70, 91
4, 110208, Note_on_c, 9, 56, 63
4, 110266, Note_on_c, 9, 59, 0
4, 110272, Note_on_c, 9, 63, 0
4, 110300, Note_on_c, 9, 56, 0
4, 110300, Note_on_c, 9, 37, 0
4, 110302, Note_on_c, 9, 70, 0
4, 110386, Note_on_c, 9, 63, 77
4, 110396, Note_on_c, 9, 35, 48
4, 110400, Note_on_c, 9, 59, 85
4, 110454, Note_on_c, 9, 35, 0
4, 110506, Note_on_c, 9, 63, 0
4, 110592, Note_on_c, 9, 37, 96
4, 110592, Note_on_c, 9, 70, 98
4, 110592, Note_on_c, 9, 56, 67
4, 110592, Note_on_c, 9, 35, 68
4, 110630, Note_on_c, 9, 59, 0
4, 110682, Note_on_c, 9, 70, 0
4, 110724, Note_on_c, 9, 35, 0
4, 110726, Note_on_c, 9, 56, 0
4, 110726, Note_on_c, 9, 37, 0
4, 110778, Note_on_c, 9, 59, 62
4, 110848, Note_on_c, 9, 59, 0
4, 110936, Note_on_c, 9, 59, 39
4, 110976, Note_on_c, 9, 37, 96
4, 110976, Note_on_c, 9, 70, 100
4, 110976, Note_on_c, 9, 56, 63
4, 110984, Note_on_c, 9, 62, 92
4, 111034, Note_on_c, 9, 59, 0
4, 111068, Note_on_c, 9, 70, 0
4, 111100, Note_on_c, 9, 62, 0
4, 111118, Note_on_c, 9, 56, 0
4, 111118, Note_on_c, 9, 37, 0
4, 111154, Note_on_c, 9, 59, 52
4, 111170, Note_on_c, 9, 35, 58
4, 111180, Note_on_c, 9, 59, 0
4, 111258, Note_on_c, 9, 35, 0
4, 111352, Note_on_c, 9, 59, 81
4, 111358, Note_on_c, 9, 37, 96
4, 111358, Note_on_c, 9, 35, 68
4, 111360, Note_on_c, 9, 56, 63
4, 111464, Note_on_c, 9, 35, 0
4, 111502, Note_on_c, 9, 37, 0
4, 111504, Note_on_c, 9, 56, 0
4, 111552, Note_on_c, 9, 70, 100
4, 111554, Note_on_c, 9, 59, 0
4, 111638, Note_on_c, 9, 70, 0
4, 111720, Note_on_c, 9, 59, 28
4, 111742, Note_on_c, 9, 64, 73
4, 111744, Note_on_c, 9, 56, 59
4, 111746, Note_on_c, 9, 37, 96
4, 111774, Note_on_c, 9, 59, 0
4, 111822, Note_on_c, 9, 64, 0
4, 111864, Note_on_c, 9, 56, 0
4, 111866, Note_on_c, 9, 37, 0
4, 111936, Note_on_c, 9, 59, 87
4, 111940, Note_on_c, 9, 35, 77
4, 111944, Note_on_c, 9, 64, 73
4, 112008, Note_on_c, 9, 35, 0
4, 112056, Note_on_c, 9, 64, 0
4, 112128, Note_on_c, 9, 56, 67
4, 112134, Note_on_c, 9, 37, 96
4, 112134, Note_on_c, 9, 70, 91
4, 112230, Note_on_c, 9, 59, 0
4, 112234, Note_on_c, 9, 70, 0
4, 112270, Note_on_c, 9, 56, 0
4, 112276, Note_on_c, 9, 37, 0
4, 112344, Note_on_c, 9, 59, 53
4, 112402, Note_on_c, 9, 59, 0
4, 112512, Note_on_c, 9, 56, 67
4, 112514, Note_on_c, 9, 37, 96
4, 112518, Note_on_c, 9, 59, 35
4, 112524, Note_on_c, 9, 62, 94
4, 112602, Note_on_c, 9, 59, 0
4, 112634, Note_on_c, 9, 56, 0
4, 112636, Note_on_c, 9, 37, 0
4, 112636, Note_on_c, 9, 62, 0
4, 112706, Note_on_c, 9, 70, 100
4, 112706, Note_on_c, 9, 35, 60
4, 112716, Note_on_c, 9, 59, 62
4, 112760, Note_on_c, 9, 35, 0
4, 112798, Note_on_c, 9, 70, 0
4, 112800, Note_on_c, 9, 59, 0
4, 112896, Note_on_c, 9, 37, 96
4, 112896, Note_on_c, 9, 56, 67
4, 112896, Note_on_c, 9, 35, 70
4, 112898, Note_on_c, 9, 64, 58
4, 112900, Note_on_c, 9, 59, 54
4, 112962, Note_on_c, 9, 35, 0
4, 112980, Note_on_c, 9, 64, 0
4, 113008, Note_on_c, 9, 59, 0
4, 113016, Note_on_c, 9, 56, 0
4, 113016, Note_on_c, 9, 37, 0
4, 113088, Note_on_c, 9, 53, 44
4, 113100, Note_on_c, 9, 59, 72
4, 113106, Note_on_c, 9, 52, 35
4, 113132, Note_on_c, 9, 52, 0
4, 113178, Note_on_c, 9, 64, 58
4, 113202, Note_on_c, 9, 59, 0
4, 113220, Note_on_c, 9, 53, 0
4, 113262, Note_on_c, 9, 64, 0
4, 113276, Note_on_c, 9, 53, 62
4, 113280, Note_on_c, 9, 37, 96
4, 113280, Note_on_c, 9, 70, 100
4, 113280, Note_on_c, 9, 56, 67
4, 113286, Note_on_c, 9, 59, 65
4, 113376, Note_on_c, 9, 70, 0
4, 113396, Note_on_c, 9, 56, 0
4, 113396, Note_on_c, 9, 37, 0
4, 113440, Note_on_c, 9, 59, 0
4, 113440, Note_on_c, 9, 64, 58
4, 113468, Note_on_c, 9, 35, 55
4, 113536, Note_on_c, 9, 64, 0
4, 113536, Note_on_c, 9, 53, 0
4, 113542, Note_on_c, 9, 35, 0
4, 113646, Note_on_c, 9, 59, 53
4, 113664, Note_on_c, 9, 37, 96
4, 113664, Note_on_c, 9, 70, 100
4, 113664, Note_on_c, 9, 56, 72
4, 113664, Note_on_c, 9, 35, 63
4, 113788, Note_on_c, 9, 59, 0
4, 113806, Note_on_c, 9, 70, 0
4, 113826, Note_on_c, 9, 37, 0
4, 113826, Note_on_c, 9, 56, 0
4, 113860, Note_on_c, 9, 59, 72
4, 113870, Note_on_c, 9, 35, 0
4, 114022, Note_on_c, 9, 59, 0
4, 114048, Note_on_c, 9, 37, 96
4, 114048, Note_on_c, 9, 70, 100
4, 114048, Note_on_c, 9, 56, 63
4, 114068, Note_on_c, 9, 62, 96
4, 114150, Note_on_c, 9, 70, 0
4, 114194, Note_on_c, 9, 62, 0
4, 114198, Note_on_c, 9, 56, 0
4, 114198, Note_on_c, 9, 37, 0
4, 114242, Note_on_c, 9, 35, 48
4, 114260, Note_on_c, 9, 59, 80
4, 114270, Note_on_c, 9, 53, 64
4, 114296, Note_on_c, 9, 35, 0
4, 114430, Note_on_c, 9, 37, 96
4, 114430, Note_on_c, 9, 35, 68
4, 114432, Note_on_c, 9, 56, 72
4, 114468, Note_on_c, 9, 59, 0
4, 114480, Note_on_c, 9, 53, 0
4, 114568, Note_on_c, 9, 37, 0
4, 114570, Note_on_c, 9, 56, 0
4, 114624, Note_on_c, 9, 70, 91
4, 114628, Note_on_c, 9, 59, 56
4, 114686, Note_on_c, 9, 59, 0
4, 114712, Note_on_c, 9, 70, 0
4, 114756, Note_on_c, 9, 35, 0
4, 114808, Note_on_c, 9, 59, 48
4, 114816, Note_on_c, 9, 56, 67
4, 114818, Note_on_c, 9, 37, 96
4, 114828, Note_on_c, 9, 64, 65
4, 114910, Note_on_c, 9, 64, 0
4, 114914, Note_on_c, 9, 59, 0
4, 114938, Note_on_c, 9, 56, 0
4, 114940, Note_on_c, 9, 37, 0
4, 115012, Note_on_c, 9, 35, 73
4, 115016, Note_on_c, 9, 59, 79
4, 115018, Note_on_c, 9, 64, 69
4, 115072, Note_on_c, 9, 35, 0
4, 115112, Note_on_c, 9, 64, 0
4, 115200, Note_on_c, 9, 56, 63
4, 115206, Note_on_c, 9, 37, 96
4, 115206, Note_on_c, 9, 70, 100
4, 115298, Note_on_c, 9, 70, 0
4, 115302, Note_on_c, 9, 59, 0
4, 115310, Note_on_c, 9, 56, 0
4, 115316, Note_on_c, 9, 37, 0
4, 115408, Note_on_c, 9, 59, 60
4, 115494, Note_on_c, 9, 59, 0
4, 115584, Note_on_c, 9, 56, 67
4, 115586, Note_on_c, 9, 37, 96
4, 115596, Note_on_c, 9, 59, 47
4, 115596, Note_on_c, 9, 62, 92
4, 115678, Note_on_c, 9, 59, 0
4, 115678, Note_on_c, 9, 56, 0
4, 115680, Note_on_c, 9, 37, 0
4, 115718, Note_on_c, 9, 62, 0
4, 115778, Note_on_c, 9, 70, 100
4, 115778, Note_on_c, 9, 35, 55
4, 115784, Note_on_c, 9, 59, 77
4, 115832, Note_on_c, 9, 35, 0
4, 115868, Note_on_c, 9, 70, 0
4, 115886, Note_on_c, 9, 59, 0
4, 115968, Note_on_c, 9, 37, 96
4, 115968, Note_on_c, 9, 56, 67
4, 115968, Note_on_c, 9, 35, 68
4, 115972, Note_on_c, 9, 59, 67
4, 116102, Note_on_c, 9, 56, 0
4, 116102, Note_on_c, 9, 37, 0
4, 116154, Note_on_c, 9, 35, 0
4, 116158, Note_on_c, 9, 59, 0
4, 116334, Note_on_c, 9, 63, 65
4, 116352, Note_on_c, 9, 37, 96
4, 116352, Note_on_c, 9, 70, 91
4, 116352, Note_on_c, 9, 56, 63
4, 116374, Note_on_c, 9, 59, 81
4, 116416, Note_on_c, 9, 63, 0
4, 116444, Note_on_c, 9, 56, 0
4, 116444, Note_on_c, 9, 37, 0
4, 116446, Note_on_c, 9, 70, 0
4, 116498, Note_on_c, 9, 59, 0
4, 116530, Note_on_c, 9, 63, 77
4, 116540, Note_on_c, 9, 35, 48
4, 116564, Note_on_c, 9, 59, 56
4, 116598, Note_on_c, 9, 35, 0
4, 116650, Note_on_c, 9, 63, 0
4, 116712, Note_on_c, 9, 59, 0
4, 116736, Note_on_c, 9, 37, 96
4, 116736, Note_on_c, 9, 70, 98
4, 116736, Note_on_c, 9, 56, 67
4, 116736, Note_on_c, 9, 35, 68
4, 116752, Note_on_c, 9, 59, 20
4, 116826, Note_on_c, 9, 70, 0
4, 116844, Note_on_c, 9, 59, 0
4, 116868, Note_on_c, 9, 35, 0
4, 116870, Note_on_c, 9, 56, 0
4, 116870, Note_on_c, 9, 37, 0
4, 116954, Note_on_c, 9, 59, 79
4, 117080, Note_on_c, 9, 59, 0
4, 117120, Note_on_c, 9, 37, 96
4, 117120, Note_on_c, 9, 70, 100
4, 117120, Note_on_c, 9, 56, 63
4, 117128, Note_on_c, 9, 62, 92
4, 117142, Note_on_c, 9, 59, 50
4, 117210, Note_on_c, 9, 59, 0
4, 117212, Note_on_c, 9, 70, 0
4, 117244, Note_on_c, 9, 62, 0
4, 117262, Note_on_c, 9, 56, 0
4, 117262, Note_on_c, 9, 37, 0
4, 117314, Note_on_c, 9, 35, 58
4, 117332, Note_on_c, 9, 59, 55
4, 117398, Note_on_c, 9, 59, 0
4, 117402, Note_on_c, 9, 35, 0
4, 117502, Note_on_c, 9, 37, 96
4, 117502, Note_on_c, 9, 35, 68
4, 117504, Note_on_c, 9, 56, 63
4, 117518, Note_on_c, 9, 59, 84
4, 117608, Note_on_c, 9, 35, 0
4, 117646, Note_on_c, 9, 37, 0
4, 117648, Note_on_c, 9, 56, 0
4, 117696, Note_on_c, 9, 70, 100
4, 117754, Note_on_c, 9, 59, 0
4, 117782, Note_on_c, 9, 70, 0
4, 117886, Note_on_c, 9, 64, 73
4, 117888, Note_on_c, 9, 56, 59
4, 117890, Note_on_c, 9, 37, 96
4, 117892, Note_on_c, 9, 59, 47
4, 117966, Note_on_c, 9, 64, 0
4, 117974, Note_on_c, 9, 59, 0
4, 118008, Note_on_c, 9, 56, 0
4, 118010, Note_on_c, 9, 37, 0
4, 118076, Note_on_c, 9, 59, 77
4, 118084, Note_on_c, 9, 35, 77
4, 118088, Note_on_c, 9, 64, 73
4, 118152, Note_on_c, 9, 35, 0
4, 118200, Note_on_c, 9, 64, 0
4, 118272, Note_on_c, 9, 56, 67
4, 118278, Note_on_c, 9, 37, 96
4, 118278, Note_on_c, 9, 70, 91
4, 118338, Note_on_c, 9, 59, 0
4, 118378, Note_on_c, 9, 70, 0
4, 118414, Note_on_c, 9, 56, 0
4, 118420, Note_on_c, 9, 37, 0
4, 118466, Note_on_c, 9, 59, 54
4, 118562, Note_on_c, 9, 59, 0
4, 118648, Note_on_c, 9, 59, 64
4, 118656, Note_on_c, 9, 56, 67
4, 118658, Note_on_c, 9, 37, 96
4, 118668, Note_on_c, 9, 62, 94
4, 118738, Note_on_c, 9, 59, 0
4, 118778, Note_on_c, 9, 56, 0
4, 118780, Note_on_c, 9, 37, 0
4, 118780, Note_on_c, 9, 62, 0
4, 118834, Note_on_c, 9, 59, 81
4, 118850, Note_on_c, 9, 70, 100
4, 118850, Note_on_c, 9, 35, 60
4, 118904, Note_on_c, 9, 35, 0
4, 118942, Note_on_c, 9, 70, 0
4, 118948, Note_on_c, 9, 59, 0
4, 119032, Note_on_c, 9, 59, 68
4, 119040, Note_on_c, 9, 37, 96
4, 119040, Note_on_c, 9, 56, 67
4, 119040, Note_on_c, 9, 35, 70
4, 119042, Note_on_c, 9, 64, 58
4, 119106, Note_on_c, 9, 35, 0
4, 119124, Note_on_c, 9, 64, 0
4, 119160, Note_on_c, 9, 56, 0
4, 119160, Note_on_c, 9, 37, 0
4, 119186, Note_on_c, 9, 59, 0
4, 119234, Note_on_c, 9, 59, 34
4, 119312, Note_on_c, 9, 59, 0
4, 119322, Note_on_c, 9, 64, 58
4, 119406, Note_on_c, 9, 64, 0
4, 119420, Note_on_c, 9, 59, 81
4, 119424, Note_on_c, 9, 37, 96
4, 119424, Note_on_c, 9, 70, 100
4, 119424, Note_on_c, 9, 56, 67
4, 119520, Note_on_c, 9, 70, 0
4, 119540, Note_on_c, 9, 56, 0
4, 119540, Note_on_c, 9, 37, 0
4, 119554, Note_on_c, 9, 59, 0
4, 119584, Note_on_c, 9, 64, 58
4, 119612, Note_on_c, 9, 35, 55
4, 119624, Note_on_c, 9, 59, 75
4, 119680, Note_on_c, 9, 64, 0
4, 119686, Note_on_c, 9, 35, 0
4, 119748, Note_on_c, 9, 59, 0
4, 119808, Note_on_c, 9, 37, 96
4, 119808, Note_on_c, 9, 70, 100
4, 119808, Note_on_c, 9, 56, 72
4, 119808, Note_on_c, 9, 35, 63
4, 119812, Note_on_c, 9, 59, 68
4, 119950, Note_on_c, 9, 70, 0
4, 119960, Note_on_c, 9, 59, 0
4, 119970, Note_on_c, 9, 37, 0
4, 119970, Note_on_c, 9, 56, 0
4, 120014, Note_on_c, 9, 35, 0
4, 120032, Note_on_c, 9, 59, 43
4, 120080, Note_on_c, 9, 59, 0
4, 120192, Note_on_c, 9, 37, 96
4, 120192, Note_on_c, 9, 70, 100
4, 120192, Note_on_c, 9, 56, 63
4, 120212, Note_on_c, 9, 62, 96
4, 120244, Note_on_c, 9, 59, 26
4, 120294, Note_on_c, 9, 70, 0
4, 120300, Note_on_c, 9, 59, 0
4, 120338, Note_on_c, 9, 62, 0
4, 120342, Note_on_c, 9, 56, 0
4, 120342, Note_on_c, 9, 37, 0
4, 120386, Note_on_c, 9, 35, 48
4, 120406, Note_on_c, 9, 59, 83
4, 120440, Note_on_c, 9, 35, 0
4, 120574, Note_on_c, 9, 37, 96
4, 120574, Note_on_c, 9, 35, 68
4, 120576, Note_on_c, 9, 56, 72
4, 120702, Note_on_c, 9, 59, 0
4, 120712, Note_on_c, 9, 37, 0
4, 120714, Note_on_c, 9, 56, 0
4, 120768, Note_on_c, 9, 70, 91
4, 120784, Note_on_c, 9, 59, 40
4, 120818, Note_on_c, 9, 59, 0
4, 120856, Note_on_c, 9, 70, 0
4, 120900, Note_on_c, 9, 35, 0
4, 120960, Note_on_c, 9, 56, 67
4, 120962, Note_on_c, 9, 37, 96
4, 120972, Note_on_c, 9, 64, 65
4, 120984, Note_on_c, 9, 59, 82
4, 121054, Note_on_c, 9, 64, 0
4, 121082, Note_on_c, 9, 56, 0
4, 121084, Note_on_c, 9, 37, 0
4, 121116, Note_on_c, 9, 59, 0
4, 121156, Note_on_c, 9, 35, 73
4, 121162, Note_on_c, 9, 64, 69
4, 121176, Note_on_c, 9, 59, 62
4, 121216, Note_on_c, 9, 35, 0
4, 121256, Note_on_c, 9, 64, 0
4, 121344, Note_on_c, 9, 56, 63
4, 121350, Note_on_c, 9, 37, 96
4, 121350, Note_on_c, 9, 70, 100
4, 121442, Note_on_c, 9, 70, 0
4, 121454, Note_on_c, 9, 56, 0
4, 121458, Note_on_c, 9, 59, 0
4, 121460, Note_on_c, 9, 37, 0
4, 121572, Note_on_c, 9, 59, 83
4, 121708, Note_on_c, 9, 59, 0
4, 121728, Note_on_c, 9, 56, 67
4, 121730, Note_on_c, 9, 37, 96
4, 121740, Note_on_c, 9, 62, 92
4, 121822, Note_on_c, 9, 56, 0
4, 121824, Note_on_c, 9, 37, 0
4, 121862, Note_on_c, 9, 62, 0
4, 121922, Note_on_c, 9, 70, 100
4, 121922, Note_on_c, 9, 35, 55
4, 121926, Note_on_c, 9, 59, 59
4, 121976, Note_on_c, 9, 35, 0
4, 121996, Note_on_c, 9, 59, 0
4, 122012, Note_on_c, 9, 70, 0
4, 122098, Note_on_c, 9, 59, 58
4, 122112, Note_on_c, 9, 37, 96
4, 122112, Note_on_c, 9, 56, 67
4, 122112, Note_on_c, 9, 35, 68
4, 122246, Note_on_c, 9, 56, 0
4, 122246, Note_on_c, 9, 37, 0
4, 122268, Note_on_c, 9, 59, 0
4, 122298, Note_on_c, 9, 35, 0
4, 122308, Note_on_c, 9, 53, 60
4, 122464, Note_on_c, 9, 53, 0
4, 122476, Note_on_c, 9, 59, 33
4, 122478, Note_on_c, 9, 63, 65
4, 122496, Note_on_c, 9, 37, 96
4, 122496, Note_on_c, 9, 70, 91
4, 122496, Note_on_c, 9, 56, 63
4, 122560, Note_on_c, 9, 63, 0
4, 122588, Note_on_c, 9, 56, 0
4, 122588, Note_on_c, 9, 37, 0
4, 122590, Note_on_c, 9, 70, 0
4, 122610, Note_on_c, 9, 59, 0
4, 122674, Note_on_c, 9, 63, 77
4, 122676, Note_on_c, 9, 53, 65
4, 122684, Note_on_c, 9, 35, 48
4, 122742, Note_on_c, 9, 35, 0
4, 122794, Note_on_c, 9, 63, 0
4, 122874, Note_on_c, 9, 53, 0
4, 122880, Note_on_c, 9, 37, 96
4, 122880, Note_on_c, 9, 70, 98
4, 122880, Note_on_c, 9, 56, 67
4, 122880, Note_on_c, 9, 35, 68
4, 122886, Note_on_c, 9, 59, 60
4, 122970, Note_on_c, 9, 70, 0
4, 123012, Note_on_c, 9, 35, 0
4, 123014, Note_on_c, 9, 37, 0
4, 123014, Note_on_c, 9, 56, 0
4, 123022, Note_on_c, 9, 59, 0
4, 123098, Note_on_c, 9, 59, 42
4, 123148, Note_on_c, 9, 59, 0
4, 123244, Note_on_c, 9, 59, 60
4, 123264, Note_on_c, 9, 37, 96
4, 123264, Note_on_c, 9, 70, 100
4, 123264, Note_on_c, 9, 56, 63
4, 123272, Note_on_c, 9, 62, 92
4, 123356, Note_on_c, 9, 70, 0
4, 123372, Note_on_c, 9, 59, 0
4, 123388, Note_on_c, 9, 62, 0
4, 123406, Note_on_c, 9, 56, 0
4, 123406, Note_on_c, 9, 37, 0
4, 123458, Note_on_c, 9, 35, 58
4, 123460, Note_on_c, 9, 59, 80
4, 123546, Note_on_c, 9, 35, 0
4, 123646, Note_on_c, 9, 37, 96
4, 123646, Note_on_c, 9, 35, 68
4, 123648, Note_on_c, 9, 56, 63
4, 123752, Note_on_c, 9, 35, 0
4, 123778, Note_on_c, 9, 59, 0
4, 123790, Note_on_c, 9, 37, 0
4, 123792, Note_on_c, 9, 56, 0
4, 123836, Note_on_c, 9, 53, 63
4, 123840, Note_on_c, 9, 70, 100
4, 123926, Note_on_c, 9, 70, 0
4, 123966, Note_on_c, 9, 53, 0
4, 124026, Note_on_c, 9, 59, 34
4, 124030, Note_on_c, 9, 64, 73
4, 124032, Note_on_c, 9, 56, 59
4, 124034, Note_on_c, 9, 37, 96
4, 124110, Note_on_c, 9, 64, 0
4, 124144, Note_on_c, 9, 59, 0
4, 124152, Note_on_c, 9, 56, 0
4, 124154, Note_on_c, 9, 37, 0
4, 124224, Note_on_c, 9, 59, 70
4, 124228, Note_on_c, 9, 35, 77
4, 124232, Note_on_c, 9, 64, 73
4, 124296, Note_on_c, 9, 35, 0
4, 124324, Note_on_c, 9, 59, 0
4, 124344, Note_on_c, 9, 64, 0
4, 124416, Note_on_c, 9, 56, 67
4, 124418, Note_on_c, 9, 59, 71
4, 124422, Note_on_c, 9, 37, 96
4, 124422, Note_on_c, 9, 70, 91
4, 124522, Note_on_c, 9, 70, 0
4, 124558, Note_on_c, 9, 56, 0
4, 124564, Note_on_c, 9, 37, 0
4, 124570, Note_on_c, 9, 59, 0
4, 124606, Note_on_c, 9, 53, 45
4, 124796, Note_on_c, 9, 53, 0
4, 124800, Note_on_c, 9, 56, 67
4, 124802, Note_on_c, 9, 37, 96
4, 124812, Note_on_c, 9, 62, 94
4, 124828, Note_on_c, 9, 59, 54
4, 124922, Note_on_c, 9, 56, 0
4, 124924, Note_on_c, 9, 37, 0
4, 124924, Note_on_c, 9, 62, 0
4, 124942, Note_on_c, 9, 59, 0
4, 124994, Note_on_c, 9, 70, 100
4, 124994, Note_on_c, 9, 35, 60
4, 125024, Note_on_c, 9, 53, 70
4, 125048, Note_on_c, 9, 35, 0
4, 125086, Note_on_c, 9, 70, 0
4, 125184, Note_on_c, 9, 37, 96
4, 125184, Note_on_c, 9, 56, 67
4, 125184, Note_on_c, 9, 35, 70
4, 125186, Note_on_c, 9, 64, 58
4, 125250, Note_on_c, 9, 35, 0
4, 125268, Note_on_c, 9, 64, 0
4, 125304, Note_on_c, 9, 56, 0
4, 125304, Note_on_c, 9, 37, 0
4, 125324, Note_on_c, 9, 53, 0
4, 125386, Note_on_c, 9, 59, 74
4, 125466, Note_on_c, 9, 64, 58
4, 125506, Note_on_c, 9, 59, 0
4, 125550, Note_on_c, 9, 64, 0
4, 125568, Note_on_c, 9, 37, 96
4, 125568, Note_on_c, 9, 70, 100
4, 125568, Note_on_c, 9, 56, 67
4, 125576, Note_on_c, 9, 59, 58
4, 125664, Note_on_c, 9, 70, 0
4, 125684, Note_on_c, 9, 37, 0
4, 125684, Note_on_c, 9, 56, 0
4, 125684, Note_on_c, 9, 59, 0
4, 125728, Note_on_c, 9, 64, 58
4, 125756, Note_on_c, 9, 35, 55
4, 125762, Note_on_c, 9, 53, 53
4, 125824, Note_on_c, 9, 64, 0
4, 125830, Note_on_c, 9, 35, 0
4, 125846, Note_on_c, 9, 53, 0
4, 125952, Note_on_c, 9, 37, 96
4, 125952, Note_on_c, 9, 70, 100
4, 125952, Note_on_c, 9, 56, 72
4, 125952, Note_on_c, 9, 35, 63
4, 125960, Note_on_c, 9, 59, 74
4, 126094, Note_on_c, 9, 70, 0
4, 126104, Note_on_c, 9, 59, 0
4, 126114, Note_on_c, 9, 37, 0
4, 126114, Note_on_c, 9, 56, 0
4, 126158, Note_on_c, 9, 35, 0
4, 126180, Note_on_c, 9, 59, 54
4, 126218, Note_on_c, 9, 59, 0
4, 126328, Note_on_c, 9, 59, 49
4, 126336, Note_on_c, 9, 37, 96
4, 126336, Note_on_c, 9, 70, 100
4, 126336, Note_on_c, 9, 56, 63
4, 126356, Note_on_c, 9, 62, 96
4, 126438, Note_on_c, 9, 70, 0
4, 126472, Note_on_c, 9, 59, 0
4, 126482, Note_on_c, 9, 62, 0
4, 126486, Note_on_c, 9, 56, 0
4, 126486, Note_on_c, 9, 37, 0
4, 126530, Note_on_c, 9, 35, 48
4, 126560, Note_on_c, 9, 59, 79
4, 126584, Note_on_c, 9, 35, 0
4, 126718, Note_on_c, 9, 37, 96
4, 126718, Note_on_c, 9, 35, 68
4, 126720, Note_on_c, 9, 56, 72
4, 126856, Note_on_c, 9, 37, 0
4, 126858, Note_on_c, 9, 56, 0
4, 126904, Note_on_c, 9, 59, 0
4, 126912, Note_on_c, 9, 70, 91
4, 126936, Note_on_c, 9, 53, 55
4, 127000, Note_on_c, 9, 70, 0
4, 127044, Note_on_c, 9, 35, 0
4, 127056, Note_on_c, 9, 53, 0
4, 127104, Note_on_c, 9, 56, 67
4, 127106, Note_on_c, 9, 37, 96
4, 127116, Note_on_c, 9, 64, 65
4, 127120, Note_on_c, 9, 59, 55
4, 127198, Note_on_c, 9, 64, 0
4, 127224, Note_on_c, 9, 59, 0
4, 127226, Note_on_c, 9, 56, 0
4, 127228, Note_on_c, 9, 37, 0
4, 127300, Note_on_c, 9, 35, 73
4, 127306, Note_on_c, 9, 64, 69
4, 127322, Note_on_c, 9, 59, 73
4, 127360, Note_on_c, 9, 35, 0
4, 127400, Note_on_c, 9, 64, 0
4, 127488, Note_on_c, 9, 56, 63
4, 127494, Note_on_c, 9, 37, 96
4, 127494, Note_on_c, 9, 70, 100
4, 127586, Note_on_c, 9, 70, 0
4, 127598, Note_on_c, 9, 59, 0
4, 127598, Note_on_c, 9, 56, 0
4, 127604, Note_on_c, 9, 37, 0
4, 127702, Note_on_c, 9, 59, 64
4, 127804, Note_on_c, 9, 59, 0
4, 127872, Note_on_c, 9, 56, 67
4, 127874, Note_on_c, 9, 37, 96
4, 127882, Note_on_c, 9, 59, 55
4, 127884, Note_on_c, 9, 62, 92
4, 127966, Note_on_c, 9, 56, 0
4, 127968, Note_on_c, 9, 37, 0
4, 128006, Note_on_c, 9, 62, 0
4, 128008, Note_on_c, 9, 59, 0
4, 128066, Note_on_c, 9, 70, 100
4, 128066, Note_on_c, 9, 35, 55
4, 128066, Note_on_c, 9, 53, 63
4, 128120, Note_on_c, 9, 35, 0
4, 128156, Note_on_c, 9, 70, 0
4, 128256, Note_on_c, 9, 53, 0
4, 128256, Note_on_c, 9, 59, 58
4, 128256, Note_on_c, 9, 37, 96
4, 128256, Note_on_c, 9, 56, 67
4, 128256, Note_on_c, 9, 35, 68
4, 128390, Note_on_c, 9, 56, 0
4, 128390, Note_on_c, 9, 37, 0
4, 128436, Note_on_c, 9, 59, 0
4, 128436, Note_on_c, 9, 53, 58
4, 128442, Note_on_c, 9, 35, 0
4, 128574, Note_on_c, 9, 53, 0
4, 128622, Note_on_c, 9, 63, 65
4, 128640, Note_on_c, 9, 37, 96
4, 128640, Note_on_c, 9, 70, 91
4, 128640, Note_on_c, 9, 56, 63
4, 128642, Note_on_c, 9, 59, 66
4, 128704, Note_on_c, 9, 63, 0
4, 128732, Note_on_c, 9, 56, 0
4, 128732, Note_on_c, 9, 37, 0
4, 128734, Note_on_c, 9, 70, 0
4, 128748, Note_on_c, 9, 59, 0
4, 128818, Note_on_c, 9, 63, 77
4, 128824, Note_on_c, 9, 59, 70
4, 128828, Note_on_c, 9, 35, 48
4, 128886, Note_on_c, 9, 35, 0
4, 128938, Note_on_c, 9, 63, 0
4, 128964, Note_on_c, 9, 59, 0
4, 129024, Note_on_c, 9, 37, 96
4, 129024, Note_on_c, 9, 70, 98
4, 129024, Note_on_c, 9, 56, 67
4, 129024, Note_on_c, 9, 35, 68
4, 129028, Note_on_c, 9, 59, 72
4, 129114, Note_on_c, 9, 70, 0
4, 129156, Note_on_c, 9, 35, 0
4, 129158, Note_on_c, 9, 37, 0
4, 129158, Note_on_c, 9, 56, 0
4, 129216, Note_on_c, 9, 59, 0
4, 129228, Note_on_c, 9, 53, 58
4, 129372, Note_on_c, 9, 53, 0
4, 129408, Note_on_c, 9, 37, 96
4, 129408, Note_on_c, 9, 70, 100
4, 129408, Note_on_c, 9, 56, 63
4, 129416, Note_on_c, 9, 62, 92
4, 129416, Note_on_c, 9, 59, 51
4, 129484, Note_on_c, 9, 59, 0
4, 129500, Note_on_c, 9, 70, 0
4, 129532, Note_on_c, 9, 62, 0
4, 129550, Note_on_c, 9, 56, 0
4, 129550, Note_on_c, 9, 37, 0
4, 129602, Note_on_c, 9, 35, 58
4, 129610, Note_on_c, 9, 59, 88
4, 129690, Note_on_c, 9, 35, 0
4, 129790, Note_on_c, 9, 37, 96
4, 129790, Note_on_c, 9, 35, 68
4, 129792, Note_on_c, 9, 56, 63
4, 129896, Note_on_c, 9, 35, 0
4, 129934, Note_on_c, 9, 37, 0
4, 129936, Note_on_c, 9, 56, 0
4, 129978, Note_on_c, 9, 59, 0
4, 129984, Note_on_c, 9, 70, 100
4, 129994, Note_on_c, 9, 53, 53
4, 130070, Note_on_c, 9, 70, 0
4, 130140, Note_on_c, 9, 53, 0
4, 130174, Note_on_c, 9, 64, 73
4, 130176, Note_on_c, 9, 56, 59
4, 130178, Note_on_c, 9, 37, 96
4, 130186, Note_on_c, 9, 59, 68
4, 130254, Note_on_c, 9, 64, 0
4, 130296, Note_on_c, 9, 56, 0
4, 130298, Note_on_c, 9, 37, 0
4, 130322, Note_on_c, 9, 59, 0
4, 130372, Note_on_c, 9, 35, 77
4, 130376, Note_on_c, 9, 64, 73
4, 130384, Note_on_c, 9, 59, 73
4, 130440, Note_on_c, 9, 35, 0
4, 130488, Note_on_c, 9, 64, 0
4, 130560, Note_on_c, 9, 56, 67
4, 130566, Note_on_c, 9, 37, 96
4, 130566, Note_on_c, 9, 70, 91
4, 130666, Note_on_c, 9, 70, 0
4, 130702, Note_on_c, 9, 56, 0
4, 130708, Note_on_c, 9, 37, 0
4, 130716, Note_on_c, 9, 59, 0
4, 130784, Note_on_c, 9, 53, 66
4, 130944, Note_on_c, 9, 56, 67
4, 130946, Note_on_c, 9, 37, 96
4, 130956, Note_on_c, 9, 62, 94
4, 131066, Note_on_c, 9, 56, 0
4, 131068, Note_on_c, 9, 62, 0
4, 131068, Note_on_c, 9, 37, 0
4, 131112, Note_on_c, 9, 53, 0
4, 131138, Note_on_c, 9, 70, 100
4, 131138, Note_on_c, 9, 35, 60
4, 131146, Note_on_c, 9, 59, 73
4, 131192, Note_on_c, 9, 35, 0
4, 131230, Note_on_c, 9, 70, 0
4, 131328, Note_on_c, 9, 37, 96
4, 131328, Note_on_c, 9, 56, 67
4, 131328, Note_on_c, 9, 35, 70
4, 131330, Note_on_c, 9, 64, 58
4, 131394, Note_on_c, 9, 35, 0
4, 131412, Note_on_c, 9, 64, 0
4, 131448, Note_on_c, 9, 56, 0
4, 131448, Note_on_c, 9, 37, 0
4, 131526, Note_on_c, 9, 53, 68
4, 131542, Note_on_c, 9, 59, 0
4, 131610, Note_on_c, 9, 64, 58
4, 131694, Note_on_c, 9, 64, 0
4, 131712, Note_on_c, 9, 37, 96
4, 131712, Note_on_c, 9, 70, 100
4, 131712, Note_on_c, 9, 56, 67
4, 131716, Note_on_c, 9, 59, 54
4, 131718, Note_on_c, 9, 53, 0
4, 131808, Note_on_c, 9, 70, 0
4, 131828, Note_on_c, 9, 37, 0
4, 131828, Note_on_c, 9, 56, 0
4, 131832, Note_on_c, 9, 59, 0
4, 131872, Note_on_c, 9, 64, 58
4, 131900, Note_on_c, 9, 35, 55
4, 131908, Note_on_c, 9, 59, 71
4, 131968, Note_on_c, 9, 64, 0
4, 131974, Note_on_c, 9, 35, 0
4, 132010, Note_on_c, 9, 59, 0
4, 132094, Note_on_c, 9, 59, 72
4, 132096, Note_on_c, 9, 37, 96
4, 132096, Note_on_c, 9, 70, 100
4, 132096, Note_on_c, 9, 75, 82
4, 132096, Note_on_c, 9, 74, 71
4, 132096, Note_on_c, 9, 56, 72
4, 132096, Note_on_c, 9, 35, 63
4, 132210, Note_on_c, 9, 75, 0
4, 132238, Note_on_c, 9, 70, 0
4, 132258, Note_on_c, 9, 37, 0
4, 132258, Note_on_c, 9, 56, 0
4, 132286, Note_on_c, 9, 59, 0
4, 132302, Note_on_c, 9, 35, 0
4, 132302, Note_on_c, 9, 53, 59
4, 132304, Note_on_c, 9, 74, 0
4, 132468, Note_on_c, 9, 53, 0
4, 132480, Note_on_c, 9, 37, 96
4, 132480, Note_on_c, 9, 70, 100
4, 132480, Note_on_c, 9, 73, 79
4, 132480, Note_on_c, 9, 56, 63
4, 132500, Note_on_c, 9, 62, 96
4, 132506, Note_on_c, 9, 59, 33
4, 132534, Note_on_c, 9, 73, 0
4, 132582, Note_on_c, 9, 70, 0
4, 132582, Note_on_c, 9, 59, 0
4, 132626, Note_on_c, 9, 62, 0
4, 132630, Note_on_c, 9, 56, 0
4, 132630, Note_on_c, 9, 37, 0
4, 132672, Note_on_c, 9, 73, 75
4, 132674, Note_on_c, 9, 35, 48
4, 132696, Note_on_c, 9, 59, 84
4, 132728, Note_on_c, 9, 35, 0
4, 132728, Note_on_c, 9, 73, 0
4, 132862, Note_on_c, 9, 37, 96
4, 132862, Note_on_c, 9, 35, 68
4, 132864, Note_on_c, 9, 74, 67
4, 132864, Note_on_c, 9, 56, 72
4, 132992, Note_on_c, 9, 74, 0
4, 133000, Note_on_c, 9, 37, 0
4, 133002, Note_on_c, 9, 56, 0
4, 133050, Note_on_c, 9, 59, 0
4, 133056, Note_on_c, 9, 70, 91
4, 133064, Note_on_c, 9, 53, 62
4, 133144, Note_on_c, 9, 70, 0
4, 133188, Note_on_c, 9, 35, 0
4, 133242, Note_on_c, 9, 53, 0
4, 133248, Note_on_c, 9, 73, 73
4, 133248, Note_on_c, 9, 56, 67
4, 133250, Note_on_c, 9, 37, 96
4, 133260, Note_on_c, 9, 64, 65
4, 133264, Note_on_c, 9, 59, 56
4, 133300, Note_on_c, 9, 73, 0
4, 133342, Note_on_c, 9, 64, 0
4, 133364, Note_on_c, 9, 59, 0
4, 133370, Note_on_c, 9, 56, 0
4, 133372, Note_on_c, 9, 37, 0
4, 133440, Note_on_c, 9, 73, 75
4, 133444, Note_on_c, 9, 75, 64
4, 133444, Note_on_c, 9, 35, 73
4, 133450, Note_on_c, 9, 64, 69
4, 133462, Note_on_c, 9, 59, 78
4, 133482, Note_on_c, 9, 75, 0
4, 133504, Note_on_c, 9, 73, 0
4, 133504, Note_on_c, 9, 35, 0
4, 133544, Note_on_c, 9, 64, 0
4, 133632, Note_on_c, 9, 74, 71
4, 133632, Note_on_c, 9, 56, 63
4, 133638, Note_on_c, 9, 37, 96
4, 133638, Note_on_c, 9, 70, 100
4, 133638, Note_on_c, 9, 75, 91
4, 133712, Note_on_c, 9, 75, 0
4, 133730, Note_on_c, 9, 70, 0
4, 133742, Note_on_c, 9, 56, 0
4, 133748, Note_on_c, 9, 37, 0
4, 133752, Note_on_c, 9, 74, 0
4, 133752, Note_on_c, 9, 59, 0
4, 133846, Note_on_c, 9, 59, 78
4, 133854, Note_on_c, 9, 53, 79
4, 134016, Note_on_c, 9, 73, 73
4, 134016, Note_on_c, 9, 56, 67
4, 134018, Note_on_c, 9, 37, 96
4, 134028, Note_on_c, 9, 62, 92
4, 134066, Note_on_c, 9, 73, 0
4, 134104, Note_on_c, 9, 59, 0
4, 134110, Note_on_c, 9, 56, 0
4, 134112, Note_on_c, 9, 37, 0
4, 134118, Note_on_c, 9, 53, 0
4, 134150, Note_on_c, 9, 62, 0
4, 134208, Note_on_c, 9, 73, 75
4, 134210, Note_on_c, 9, 70, 100
4, 134210, Note_on_c, 9, 35, 55
4, 134232, Note_on_c, 9, 53, 68
4, 134236, Note_on_c, 9, 59, 80
4, 134264, Note_on_c, 9, 35, 0
4, 134274, Note_on_c, 9, 73, 0
4, 134300, Note_on_c, 9, 70, 0
4, 134400, Note_on_c, 9, 37, 96
4, 134400, Note_on_c, 9, 74, 64
4, 134400, Note_on_c, 9, 56, 67
4, 134400, Note_on_c, 9, 35, 68
4, 134456, Note_on_c, 9, 53, 0
4, 134490, Note_on_c, 9, 59, 0
4, 134502, Note_on_c, 9, 74, 0
4, 134534, Note_on_c, 9, 56, 0
4, 134534, Note_on_c, 9, 37, 0
4, 134586, Note_on_c, 9, 35, 0
4, 134612, Note_on_c, 9, 53, 72
4, 134634, Note_on_c, 9, 59, 71
4, 134730, Note_on_c, 9, 59, 0
4, 134766, Note_on_c, 9, 63, 65
4, 134784, Note_on_c, 9, 37, 96
4, 134784, Note_on_c, 9, 70, 91
4, 134784, Note_on_c, 9, 73, 73
4, 134784, Note_on_c, 9, 56, 63
4, 134790, Note_on_c, 9, 53, 0
4, 134816, Note_on_c, 9, 59, 64
4, 134848, Note_on_c, 9, 73, 0
4, 134848, Note_on_c, 9, 63, 0
4, 134876, Note_on_c, 9, 37, 0
4, 134876, Note_on_c, 9, 56, 0
4, 134878, Note_on_c, 9, 70, 0
4, 134896, Note_on_c, 9, 59, 0
4, 134962, Note_on_c, 9, 63, 77
4, 134972, Note_on_c, 9, 35, 48
4, 134976, Note_on_c, 9, 73, 69
4, 134980, Note_on_c, 9, 53, 68
4, 135030, Note_on_c, 9, 35, 0
4, 135054, Note_on_c, 9, 73, 0
4, 135082, Note_on_c, 9, 63, 0
4, 135148, Note_on_c, 9, 53, 0
4, 135168, Note_on_c, 9, 37, 96
4, 135168, Note_on_c, 9, 70, 98
4, 135168, Note_on_c, 9, 75, 82
4, 135168, Note_on_c, 9, 74, 63
4, 135168, Note_on_c, 9, 56, 67
4, 135168, Note_on_c, 9, 35, 68
4, 135182, Note_on_c, 9, 51, 62
4, 135242, Note_on_c, 9, 75, 0
4, 135254, Note_on_c, 9, 74, 0
4, 135258, Note_on_c, 9, 70, 0
4, 135300, Note_on_c, 9, 35, 0
4, 135302, Note_on_c, 9, 37, 0
4, 135302, Note_on_c, 9, 56, 0
4, 135366, Note_on_c, 9, 51, 0
4, 135552, Note_on_c, 9, 37, 96
4, 135552, Note_on_c, 9, 70, 100
4, 135552, Note_on_c, 9, 73, 71
4, 135552, Note_on_c, 9, 56, 63
4, 135560, Note_on_c, 9, 62, 92
4, 135592, Note_on_c, 9, 51, 57
4, 135612, Note_on_c, 9, 73, 0
4, 135644, Note_on_c, 9, 70, 0
4, 135676, Note_on_c, 9, 62, 0
4, 135694, Note_on_c, 9, 37, 0
4, 135694, Note_on_c, 9, 56, 0
4, 135744, Note_on_c, 9, 73, 73
4, 135746, Note_on_c, 9, 35, 58
4, 135794, Note_on_c, 9, 73, 0
4, 135804, Note_on_c, 9, 51, 0
4, 135834, Note_on_c, 9, 35, 0
4, 135934, Note_on_c, 9, 37, 96
4, 135934, Note_on_c, 9, 35, 68
4, 135936, Note_on_c, 9, 74, 62
4, 135936, Note_on_c, 9, 56, 63
4, 135966, Note_on_c, 9, 51, 55
4, 136016, Note_on_c, 9, 74, 0
4, 136040, Note_on_c, 9, 35, 0
4, 136066, Note_on_c, 9, 51, 0
4, 136078, Note_on_c, 9, 37, 0
4, 136080, Note_on_c, 9, 56, 0
4, 136128, Note_on_c, 9, 70, 100
4, 136158, Note_on_c, 9, 51, 71
4, 136214, Note_on_c, 9, 70, 0
4, 136318, Note_on_c, 9, 64, 73
4, 136320, Note_on_c, 9, 73, 66
4, 136320, Note_on_c, 9, 56, 59
4, 136322, Note_on_c, 9, 37, 96
4, 136330, Note_on_c, 9, 51, 0
4, 136392, Note_on_c, 9, 73, 0
4, 136398, Note_on_c, 9, 64, 0
4, 136440, Note_on_c, 9, 56, 0
4, 136442, Note_on_c, 9, 37, 0
4, 136512, Note_on_c, 9, 73, 71
4, 136516, Note_on_c, 9, 75, 73
4, 136516, Note_on_c, 9, 35, 77
4, 136520, Note_on_c, 9, 64, 73
4, 136526, Note_on_c, 9, 51, 80
4, 136574, Note_on_c, 9, 75, 0
4, 136584, Note_on_c, 9, 73, 0
4, 136584, Note_on_c, 9, 35, 0
4, 136632, Note_on_c, 9, 64, 0
4, 136704, Note_on_c, 9, 74, 73
4, 136704, Note_on_c, 9, 56, 67
4, 136710, Note_on_c, 9, 37, 96
4, 136710, Note_on_c, 9, 70, 91
4, 136710, Note_on_c, 9, 75, 82
4, 136722, Note_on_c, 9, 51, 0
4, 136782, Note_on_c, 9, 74, 0
4, 136784, Note_on_c, 9, 75, 0
4, 136810, Note_on_c, 9, 70, 0
4, 136846, Note_on_c, 9, 56, 0
4, 136852, Note_on_c, 9, 37, 0
4, 136900, Note_on_c, 9, 51, 77
4, 137088, Note_on_c, 9, 73, 73
4, 137088, Note_on_c, 9, 56, 67
4, 137090, Note_on_c, 9, 37, 96
4, 137100, Note_on_c, 9, 62, 94
4, 137120, Note_on_c, 9, 51, 0
4, 137148, Note_on_c, 9, 73, 0
4, 137210, Note_on_c, 9, 56, 0
4, 137212, Note_on_c, 9, 37, 0
4, 137212, Note_on_c, 9, 62, 0
4, 137280, Note_on_c, 9, 73, 75
4, 137282, Note_on_c, 9, 70, 100
4, 137282, Note_on_c, 9, 35, 60
4, 137292, Note_on_c, 9, 51, 72
4, 137336, Note_on_c, 9, 35, 0
4, 137354, Note_on_c, 9, 73, 0
4, 137374, Note_on_c, 9, 70, 0
4, 137396, Note_on_c, 9, 51, 0
4, 137472, Note_on_c, 9, 37, 96
4, 137472, Note_on_c, 9, 74, 63
4, 137472, Note_on_c, 9, 56, 67
4, 137472, Note_on_c, 9, 35, 70
4, 137474, Note_on_c, 9, 64, 58
4, 137480, Note_on_c, 9, 51, 64
4, 137538, Note_on_c, 9, 35, 0
4, 137550, Note_on_c, 9, 74, 0
4, 137556, Note_on_c, 9, 64, 0
4, 137592, Note_on_c, 9, 37, 0
4, 137592, Note_on_c, 9, 51, 0
4, 137592, Note_on_c, 9, 56, 0
4, 137688, Note_on_c, 9, 51, 81
4, 137754, Note_on_c, 9, 64, 58
4, 137826, Note_on_c, 9, 51, 0
4, 137838, Note_on_c, 9, 64, 0
4, 137850, Note_on_c, 9, 53, 67
4, 137856, Note_on_c, 9, 37, 96
4, 137856, Note_on_c, 9, 70, 100
4, 137856, Note_on_c, 9, 73, 79
4, 137856, Note_on_c, 9, 56, 67
4, 137908, Note_on_c, 9, 73, 0
4, 137952, Note_on_c, 9, 70, 0
4, 137972, Note_on_c, 9, 56, 0
4, 137972, Note_on_c, 9, 37, 0
4, 138016, Note_on_c, 9, 64, 58
4, 138044, Note_on_c, 9, 35, 55
4, 138048, Note_on_c, 9, 73, 79
4, 138054, Note_on_c, 9, 51, 64
4, 138076, Note_on_c, 9, 53, 0
4, 138106, Note_on_c, 9, 73, 0
4, 138112, Note_on_c, 9, 64, 0
4, 138118, Note_on_c, 9, 35, 0
4, 138142, Note_on_c, 9, 51, 0
4, 138240, Note_on_c, 9, 37, 96
4, 138240, Note_on_c, 9, 70, 100
4, 138240, Note_on_c, 9, 75, 91
4, 138240, Note_on_c, 9, 74, 71
4, 138240, Note_on_c, 9, 56, 72
4, 138240, Note_on_c, 9, 35, 63
4, 138260, Note_on_c, 9, 51, 52
4, 138318, Note_on_c, 9, 75, 0
4, 138342, Note_on_c, 9, 51, 0
4, 138382, Note_on_c, 9, 70, 0
4, 138402, Note_on_c, 9, 37, 0
4, 138402, Note_on_c, 9, 56, 0
4, 138446, Note_on_c, 9, 35, 0
4, 138448, Note_on_c, 9, 74, 0
4, 138448, Note_on_c, 9, 51, 71
4, 138556, Note_on_c, 9, 51, 0
4, 138624, Note_on_c, 9, 37, 96
4, 138624, Note_on_c, 9, 70, 100
4, 138624, Note_on_c, 9, 73, 79
4, 138624, Note_on_c, 9, 56, 63
4, 138654, Note_on_c, 9, 51, 68
4, 138678, Note_on_c, 9, 73, 0
4, 138726, Note_on_c, 9, 70, 0
4, 138750, Note_on_c, 9, 51, 0
4, 138774, Note_on_c, 9, 56, 0
4, 138774, Note_on_c, 9, 37, 0
4, 138816, Note_on_c, 9, 73, 75
4, 138818, Note_on_c, 9, 35, 48
4, 138848, Note_on_c, 9, 51, 83
4, 138872, Note_on_c, 9, 35, 0
4, 138872, Note_on_c, 9, 73, 0
4, 139006, Note_on_c, 9, 37, 96
4, 139006, Note_on_c, 9, 35, 68
4, 139008, Note_on_c, 9, 74, 67
4, 139008, Note_on_c, 9, 56, 72
4, 139084, Note_on_c, 9, 51, 0
4, 139136, Note_on_c, 9, 74, 0
4, 139144, Note_on_c, 9, 37, 0
4, 139146, Note_on_c, 9, 56, 0
4, 139200, Note_on_c, 9, 70, 91
4, 139222, Note_on_c, 9, 51, 71
4, 139288, Note_on_c, 9, 70, 0
4, 139316, Note_on_c, 9, 51, 0
4, 139332, Note_on_c, 9, 35, 0
4, 139392, Note_on_c, 9, 73, 73
4, 139392, Note_on_c, 9, 56, 67
4, 139394, Note_on_c, 9, 37, 96
4, 139424, Note_on_c, 9, 51, 72
4, 139444, Note_on_c, 9, 73, 0
4, 139514, Note_on_c, 9, 56, 0
4, 139516, Note_on_c, 9, 37, 0
4, 139516, Note_on_c, 9, 51, 0
4, 139584, Note_on_c, 9, 73, 75
4, 139588, Note_on_c, 9, 75, 73
4, 139588, Note_on_c, 9, 35, 73
4, 139610, Note_on_c, 9, 51, 82
4, 139640, Note_on_c, 9, 75, 0
4, 139648, Note_on_c, 9, 73, 0
4, 139648, Note_on_c, 9, 35, 0
4, 139776, Note_on_c, 9, 74, 71
4, 139776, Note_on_c, 9, 56, 63
4, 139782, Note_on_c, 9, 37, 96
4, 139782, Note_on_c, 9, 70, 100
4, 139782, Note_on_c, 9, 75, 91
4, 139794, Note_on_c, 9, 51, 0
4, 139868, Note_on_c, 9, 75, 0
4, 139874, Note_on_c, 9, 70, 0
4, 139886, Note_on_c, 9, 56, 0
4, 139892, Note_on_c, 9, 37, 0
4, 139896, Note_on_c, 9, 74, 0
4, 139996, Note_on_c, 9, 51, 74
4, 140104, Note_on_c, 9, 51, 0
4, 140160, Note_on_c, 9, 73, 73
4, 140160, Note_on_c, 9, 56, 67
4, 140162, Note_on_c, 9, 37, 96
4, 140196, Note_on_c, 9, 51, 64
4, 140210, Note_on_c, 9, 73, 0
4, 140254, Note_on_c, 9, 56, 0
4, 140256, Note_on_c, 9, 37, 0
4, 140286, Note_on_c, 9, 51, 0
4, 140352, Note_on_c, 9, 73, 75
4, 140354, Note_on_c, 9, 70, 100
4, 140354, Note_on_c, 9, 35, 55
4, 140374, Note_on_c, 9, 51, 72
4, 140408, Note_on_c, 9, 35, 0
4, 140418, Note_on_c, 9, 73, 0
4, 140444, Note_on_c, 9, 70, 0
4, 140544, Note_on_c, 9, 37, 96
4, 140544, Note_on_c, 9, 74, 64
4, 140544, Note_on_c, 9, 56, 67
4, 140544, Note_on_c, 9, 35, 68
4, 140560, Note_on_c, 9, 51, 0
4, 140646, Note_on_c, 9, 74, 0
4, 140678, Note_on_c, 9, 37, 0
4, 140678, Note_on_c, 9, 56, 0
4, 140730, Note_on_c, 9, 35, 0
4, 140774, Note_on_c, 9, 51, 71
4, 140872, Note_on_c, 9, 51, 0
4, 140928, Note_on_c, 9, 37, 96
4, 140928, Note_on_c, 9, 70, 91
4, 140928, Note_on_c, 9, 73, 73
4, 140928, Note_on_c, 9, 56, 63
4, 140954, Note_on_c, 9, 51, 57
4, 140992, Note_on_c, 9, 73, 0
4, 141020, Note_on_c, 9, 56, 0
4, 141020, Note_on_c, 9, 37, 0
4, 141022, Note_on_c, 9, 70, 0
4, 141048, Note_on_c, 9, 51, 0
4, 141116, Note_on_c, 9, 35, 48
4, 141120, Note_on_c, 9, 73, 69
4, 141140, Note_on_c, 9, 51, 69
4, 141174, Note_on_c, 9, 35, 0
4, 141198, Note_on_c, 9, 73, 0
4, 141246, Note_on_c, 9, 51, 0
4, 141312, Note_on_c, 9, 37, 96
4, 141312, Note_on_c, 9, 70, 98
4, 141312, Note_on_c, 9, 75, 91
4, 141312, Note_on_c, 9, 74, 63
4, 141312, Note_on_c, 9, 56, 67
4, 141312, Note_on_c, 9, 35, 68
4, 141334, Note_on_c, 9, 51, 70
4, 141392, Note_on_c, 9, 75, 0
4, 141398, Note_on_c, 9, 74, 0
4, 141402, Note_on_c, 9, 70, 0
4, 141444, Note_on_c, 9, 35, 0
4, 141446, Note_on_c, 9, 37, 0
4, 141446, Note_on_c, 9, 56, 0
4, 141544, Note_on_c, 9, 51, 0
4, 141696, Note_on_c, 9, 37, 96
4, 141696, Note_on_c, 9, 70, 100
4, 141696, Note_on_c, 9, 73, 71
4, 141696, Note_on_c, 9, 56, 63
4, 141700, Note_on_c, 9, 51, 47
4, 141756, Note_on_c, 9, 73, 0
4, 141784, Note_on_c, 9, 51, 0
4, 141788, Note_on_c, 9, 70, 0
4, 141838, Note_on_c, 9, 37, 0
4, 141838, Note_on_c, 9, 56, 0
4, 141888, Note_on_c, 9, 73, 73
4, 141890, Note_on_c, 9, 35, 58
4, 141906, Note_on_c, 9, 51, 79
4, 141938, Note_on_c, 9, 73, 0
4, 141978, Note_on_c, 9, 35, 0
4, 142078, Note_on_c, 9, 37, 96
4, 142078, Note_on_c, 9, 35, 68
4, 142080, Note_on_c, 9, 74, 62
4, 142080, Note_on_c, 9, 56, 63
4, 142136, Note_on_c, 9, 51, 0
4, 142160, Note_on_c, 9, 74, 0
4, 142184, Note_on_c, 9, 35, 0
4, 142222, Note_on_c, 9, 37, 0
4, 142224, Note_on_c, 9, 56, 0
4, 142272, Note_on_c, 9, 70, 100
4, 142274, Note_on_c, 9, 51, 43
4, 142334, Note_on_c, 9, 51, 0
4, 142358, Note_on_c, 9, 70, 0
4, 142464, Note_on_c, 9, 73, 66
4, 142464, Note_on_c, 9, 56, 59
4, 142466, Note_on_c, 9, 37, 96
4, 142468, Note_on_c, 9, 51, 77
4, 142536, Note_on_c, 9, 73, 0
4, 142584, Note_on_c, 9, 56, 0
4, 142586, Note_on_c, 9, 37, 0
4, 142656, Note_on_c, 9, 73, 71
4, 142658, Note_on_c, 9, 51, 0
4, 142660, Note_on_c, 9, 75, 64
4, 142660, Note_on_c, 9, 35, 77
4, 142718, Note_on_c, 9, 75, 0
4, 142728, Note_on_c, 9, 35, 0
4, 142728, Note_on_c, 9, 73, 0
4, 142740, Note_on_c, 9, 51, 38
4, 142828, Note_on_c, 9, 51, 0
4, 142848, Note_on_c, 9, 74, 73
4, 142848, Note_on_c, 9, 56, 67
4, 142854, Note_on_c, 9, 37, 96
4, 142854, Note_on_c, 9, 70, 91
4, 142854, Note_on_c, 9, 75, 91
4, 142926, Note_on_c, 9, 74, 0
4, 142948, Note_on_c, 9, 75, 0
4, 142954, Note_on_c, 9, 70, 0
4, 142990, Note_on_c, 9, 56, 0
4, 142996, Note_on_c, 9, 37, 0
4, 143060, Note_on_c, 9, 51, 74
4, 143232, Note_on_c, 9, 73, 73
4, 143232, Note_on_c, 9, 56, 67
4, 143234, Note_on_c, 9, 37, 96
4, 143236, Note_on_c, 9, 51, 0
4, 143292, Note_on_c, 9, 73, 0
4, 143354, Note_on_c, 9, 56, 0
4, 143356, Note_on_c, 9, 37, 0
4, 143410, Note_on_c, 9, 51, 71
4, 143424, Note_on_c, 9, 73, 75
4, 143426, Note_on_c, 9, 70, 100
4, 143426, Note_on_c, 9, 35, 60
4, 143480, Note_on_c, 9, 35, 0
4, 143498, Note_on_c, 9, 73, 0
4, 143518, Note_on_c, 9, 70, 0
4, 143520, Note_on_c, 9, 51, 0
4, 143616, Note_on_c, 9, 37, 96
4, 143616, Note_on_c, 9, 74, 63
4, 143616, Note_on_c, 9, 56, 67
4, 143616, Note_on_c, 9, 35, 70
4, 143630, Note_on_c, 9, 51, 78
4, 143682, Note_on_c, 9, 35, 0
4, 143694, Note_on_c, 9, 74, 0
4, 143736, Note_on_c, 9, 37, 0
4, 143736, Note_on_c, 9, 56, 0
4, 143882, Note_on_c, 9, 51, 0
4, 143996, Note_on_c, 9, 51, 65
4, 144000, Note_on_c, 9, 37, 96
4, 144000, Note_on_c, 9, 70, 100
4, 144000, Note_on_c, 9, 73, 79
4, 144000, Note_on_c, 9, 56, 67
4, 144052, Note_on_c, 9, 73, 0
4, 144096, Note_on_c, 9, 70, 0
4, 144102, Note_on_c, 9, 51, 0
4, 144116, Note_on_c, 9, 37, 0
4, 144116, Note_on_c, 9, 56, 0
4, 144188, Note_on_c, 9, 35, 55
4, 144192, Note_on_c, 9, 73, 79
4, 144206, Note_on_c, 9, 51, 81
4, 144250, Note_on_c, 9, 73, 0
4, 144262, Note_on_c, 9, 35, 0
4, 144384, Note_on_c, 9, 37, 96
4, 144384, Note_on_c, 9, 70, 100
4, 144384, Note_on_c, 9, 56, 72
4, 144384, Note_on_c, 9, 35, 63
4, 144432, Note_on_c, 9, 51, 0
4, 144440, Note_on_c, 9, 74, 71
4, 144526, Note_on_c, 9, 70, 0
4, 144546, Note_on_c, 9, 56, 0
4, 144546, Note_on_c, 9, 37, 0
4, 144584, Note_on_c, 9, 51, 67
4, 144590, Note_on_c, 9, 35, 0
4, 144648, Note_on_c, 9, 74, 0
4, 144678, Note_on_c, 9, 51, 0
4, 144768, Note_on_c, 9, 37, 96
4, 144768, Note_on_c, 9, 70, 100
4, 144768, Note_on_c, 9, 73, 79
4, 144768, Note_on_c, 9, 56, 63
4, 144780, Note_on_c, 9, 51, 67
4, 144822, Note_on_c, 9, 73, 0
4, 144870, Note_on_c, 9, 70, 0
4, 144888, Note_on_c, 9, 51, 0
4, 144918, Note_on_c, 9, 56, 0
4, 144918, Note_on_c, 9, 37, 0
4, 144960, Note_on_c, 9, 73, 75
4, 144962, Note_on_c, 9, 35, 48
4, 144982, Note_on_c, 9, 51, 83
4, 145016, Note_on_c, 9, 35, 0
4, 145016, Note_on_c, 9, 73, 0
4, 145150, Note_on_c, 9, 37, 96
4, 145150, Note_on_c, 9, 35, 68
4, 145152, Note_on_c, 9, 56, 72
4, 145208, Note_on_c, 9, 74, 67
4, 145220, Note_on_c, 9, 51, 0
4, 145288, Note_on_c, 9, 37, 0
4, 145290, Note_on_c, 9, 56, 0
4, 145336, Note_on_c, 9, 74, 0
4, 145344, Note_on_c, 9, 70, 91
4, 145360, Note_on_c, 9, 51, 62
4, 145432, Note_on_c, 9, 70, 0
4, 145476, Note_on_c, 9, 51, 0
4, 145476, Note_on_c, 9, 35, 0
4, 145536, Note_on_c, 9, 73, 73
4, 145536, Note_on_c, 9, 56, 67
4, 145538, Note_on_c, 9, 37, 96
4, 145554, Note_on_c, 9, 51, 49
4, 145588, Note_on_c, 9, 73, 0
4, 145658, Note_on_c, 9, 56, 0
4, 145660, Note_on_c, 9, 37, 0
4, 145664, Note_on_c, 9, 51, 0
4, 145728, Note_on_c, 9, 73, 75
4, 145732, Note_on_c, 9, 35, 73
4, 145744, Note_on_c, 9, 51, 74
4, 145792, Note_on_c, 9, 35, 0
4, 145792, Note_on_c, 9, 73, 0
4, 145920, Note_on_c, 9, 56, 63
4, 145926, Note_on_c, 9, 37, 96
4, 145926, Note_on_c, 9, 70, 100
4, 145974, Note_on_c, 9, 51, 0
4, 145976, Note_on_c, 9, 74, 71
4, 146018, Note_on_c, 9, 70, 0
4, 146030, Note_on_c, 9, 56, 0
4, 146036, Note_on_c, 9, 37, 0
4, 146096, Note_on_c, 9, 74, 0
4, 146146, Note_on_c, 9, 51, 79
4, 146304, Note_on_c, 9, 73, 73
4, 146304, Note_on_c, 9, 56, 67
4, 146306, Note_on_c, 9, 37, 96
4, 146310, Note_on_c, 9, 51, 0
4, 146354, Note_on_c, 9, 73, 0
4, 146398, Note_on_c, 9, 56, 0
4, 146400, Note_on_c, 9, 37, 0
4, 146496, Note_on_c, 9, 73, 75
4, 146498, Note_on_c, 9, 70, 100
4, 146498, Note_on_c, 9, 35, 55
4, 146514, Note_on_c, 9, 51, 77
4, 146552, Note_on_c, 9, 35, 0
4, 146562, Note_on_c, 9, 73, 0
4, 146588, Note_on_c, 9, 70, 0
4, 146688, Note_on_c, 9, 37, 96
4, 146688, Note_on_c, 9, 56, 67
4, 146688, Note_on_c, 9, 35, 68
4, 146744, Note_on_c, 9, 74, 64
4, 146748, Note_on_c, 9, 51, 0
4, 146822, Note_on_c, 9, 37, 0
4, 146822, Note_on_c, 9, 56, 0
4, 146846, Note_on_c, 9, 74, 0
4, 146874, Note_on_c, 9, 35, 0
4, 146898, Note_on_c, 9, 51, 73
4, 147008, Note_on_c, 9, 51, 0
4, 147072, Note_on_c, 9, 37, 96
4, 147072, Note_on_c, 9, 70, 91
4, 147072, Note_on_c, 9, 73, 73
4, 147072, Note_on_c, 9, 56, 63
4, 147094, Note_on_c, 9, 51, 76
4, 147136, Note_on_c, 9, 73, 0
4, 147164, Note_on_c, 9, 56, 0
4, 147164, Note_on_c, 9, 37, 0
4, 147166, Note_on_c, 9, 70, 0
4, 147260, Note_on_c, 9, 35, 48
4, 147264, Note_on_c, 9, 73, 69
4, 147318, Note_on_c, 9, 35, 0
4, 147336, Note_on_c, 9, 51, 0
4, 147342, Note_on_c, 9, 73, 0
4, 147456, Note_on_c, 9, 37, 96
4, 147456, Note_on_c, 9, 70, 98
4, 147456, Note_on_c, 9, 56, 67
4, 147456, Note_on_c, 9, 35, 68
4, 147460, Note_on_c, 9, 51, 67
4, 147512, Note_on_c, 9, 74, 63
4, 147546, Note_on_c, 9, 70, 0
4, 147588, Note_on_c, 9, 35, 0
4, 147590, Note_on_c, 9, 37, 0
4, 147590, Note_on_c, 9, 56, 0
4, 147598, Note_on_c, 9, 74, 0
4, 147684, Note_on_c, 9, 51, 0
4, 147834, Note_on_c, 9, 51, 64
4, 147840, Note_on_c, 9, 37, 96
4, 147840, Note_on_c, 9, 70, 100
4, 147840, Note_on_c, 9, 73, 71
4, 147840, Note_on_c, 9, 56, 63
4, 147900, Note_on_c, 9, 73, 0
4, 147932, Note_on_c, 9, 70, 0
4, 147950, Note_on_c, 9, 51, 0
4, 147982, Note_on_c, 9, 37, 0
4, 147982, Note_on_c, 9, 56, 0
4, 148032, Note_on_c, 9, 73, 73
4, 148034, Note_on_c, 9, 35, 58
4, 148052, Note_on_c, 9, 51, 83
4, 148082, Note_on_c, 9, 73, 0
4, 148122, Note_on_c, 9, 35, 0
4, 148222, Note_on_c, 9, 37, 96
4, 148222, Note_on_c, 9, 35, 68
4, 148224, Note_on_c, 9, 56, 63
4, 148270, Note_on_c, 9, 51, 0
4, 148280, Note_on_c, 9, 74, 62
4, 148328, Note_on_c, 9, 35, 0
4, 148360, Note_on_c, 9, 74, 0
4, 148366, Note_on_c, 9, 37, 0
4, 148368, Note_on_c, 9, 56, 0
4, 148416, Note_on_c, 9, 70, 100
4, 148422, Note_on_c, 9, 51, 72
4, 148502, Note_on_c, 9, 70, 0
4, 148550, Note_on_c, 9, 51, 0
4, 148608, Note_on_c, 9, 73, 66
4, 148608, Note_on_c, 9, 56, 59
4, 148610, Note_on_c, 9, 37, 96
4, 148624, Note_on_c, 9, 51, 55
4, 148680, Note_on_c, 9, 73, 0
4, 148728, Note_on_c, 9, 56, 0
4, 148730, Note_on_c, 9, 37, 0
4, 148738, Note_on_c, 9, 51, 0
4, 148800, Note_on_c, 9, 73, 71
4, 148804, Note_on_c, 9, 35, 77
4, 148820, Note_on_c, 9, 51, 73
4, 148872, Note_on_c, 9, 35, 0
4, 148872, Note_on_c, 9, 73, 0
4, 148992, Note_on_c, 9, 56, 67
4, 148996, Note_on_c, 9, 51, 0
4, 148998, Note_on_c, 9, 37, 96
4, 148998, Note_on_c, 9, 70, 91
4, 149048, Note_on_c, 9, 74, 73
4, 149098, Note_on_c, 9, 70, 0
4, 149126, Note_on_c, 9, 74, 0
4, 149134, Note_on_c, 9, 56, 0
4, 149140, Note_on_c, 9, 37, 0
4, 149222, Note_on_c, 9, 51, 71
4, 149376, Note_on_c, 9, 73, 73
4, 149376, Note_on_c, 9, 56, 67
4, 149378, Note_on_c, 9, 37, 96
4, 149406, Note_on_c, 9, 51, 0
4, 149436, Note_on_c, 9, 73, 0
4, 149498, Note_on_c, 9, 56, 0
4, 149500, Note_on_c, 9, 37, 0
4, 149568, Note_on_c, 9, 73, 75
4, 149570, Note_on_c, 9, 70, 100
4, 149570, Note_on_c, 9, 35, 60
4, 149588, Note_on_c, 9, 51, 77
4, 149624, Note_on_c, 9, 35, 0
4, 149642, Note_on_c, 9, 73, 0
4, 149662, Note_on_c, 9, 70, 0
4, 149760, Note_on_c, 9, 37, 96
4, 149760, Note_on_c, 9, 56, 67
4, 149760, Note_on_c, 9, 35, 70
4, 149810, Note_on_c, 9, 51, 0
4, 149816, Note_on_c, 9, 74, 63
4, 149826, Note_on_c, 9, 35, 0
4, 149880, Note_on_c, 9, 37, 0
4, 149880, Note_on_c, 9, 56, 0
4, 149894, Note_on_c, 9, 74, 0
4, 149968, Note_on_c, 9, 51, 75
4, 150078, Note_on_c, 9, 51, 0
4, 150144, Note_on_c, 9, 37, 96
4, 150144, Note_on_c, 9, 70, 100
4, 150144, Note_on_c, 9, 73, 79
4, 150144, Note_on_c, 9, 56, 67
4, 150162, Note_on_c, 9, 51, 70
4, 150196, Note_on_c, 9, 73, 0
4, 150240, Note_on_c, 9, 70, 0
4, 150260, Note_on_c, 9, 37, 0
4, 150260, Note_on_c, 9, 56, 0
4, 150332, Note_on_c, 9, 35, 55
4, 150336, Note_on_c, 9, 73, 79
4, 150394, Note_on_c, 9, 73, 0
4, 150406, Note_on_c, 9, 35, 0
4, 150406, Note_on_c, 9, 51, 0
4, 150528, Note_on_c, 9, 37, 96
4, 150528, Note_on_c, 9, 70, 100
4, 150528, Note_on_c, 9, 56, 72
4, 150528, Note_on_c, 9, 35, 63
4, 150536, Note_on_c, 9, 51, 73
4, 150584, Note_on_c, 9, 74, 71
4, 150670, Note_on_c, 9, 70, 0
4, 150690, Note_on_c, 9, 37, 0
4, 150690, Note_on_c, 9, 56, 0
4, 150730, Note_on_c, 9, 51, 0
4, 150734, Note_on_c, 9, 35, 0
4, 150792, Note_on_c, 9, 74, 0
4, 150912, Note_on_c, 9, 37, 96
4, 150912, Note_on_c, 9, 70, 100
4, 150912, Note_on_c, 9, 73, 79
4, 150912, Note_on_c, 9, 56, 63
4, 150916, Note_on_c, 9, 51, 63
4, 150932, Note_on_c, 9, 62, 96
4, 150966, Note_on_c, 9, 73, 0
4, 151014, Note_on_c, 9, 70, 0
4, 151038, Note_on_c, 9, 51, 0
4, 151058, Note_on_c, 9, 62, 0
4, 151062, Note_on_c, 9, 37, 0
4, 151062, Note_on_c, 9, 56, 0
4, 151104, Note_on_c, 9, 73, 75
4, 151106, Note_on_c, 9, 35, 48
4, 151128, Note_on_c, 9, 51, 77
4, 151160, Note_on_c, 9, 35, 0
4, 151160, Note_on_c, 9, 73, 0
4, 151294, Note_on_c, 9, 37, 96
4, 151294, Note_on_c, 9, 35, 68
4, 151296, Note_on_c, 9, 56, 72
4, 151314, Note_on_c, 9, 51, 0
4, 151352, Note_on_c, 9, 74, 67
4, 151432, Note_on_c, 9, 37, 0
4, 151434, Note_on_c, 9, 56, 0
4, 151480, Note_on_c, 9, 74, 0
4, 151486, Note_on_c, 9, 51, 77
4, 151488, Note_on_c, 9, 70, 91
4, 151576, Note_on_c, 9, 70, 0
4, 151592, Note_on_c, 9, 51, 0
4, 151620, Note_on_c, 9, 35, 0
4, 151664, Note_on_c, 9, 51, 61
4, 151680, Note_on_c, 9, 73, 73
4, 151680, Note_on_c, 9, 56, 67
4, 151682, Note_on_c, 9, 37, 96
4, 151692, Note_on_c, 9, 64, 65
4, 151732, Note_on_c, 9, 73, 0
4, 151774, Note_on_c, 9, 64, 0
4, 151802, Note_on_c, 9, 56, 0
4, 151804, Note_on_c, 9, 37, 0
4, 151844, Note_on_c, 9, 51, 0
4, 151872, Note_on_c, 9, 73, 75
4, 151876, Note_on_c, 9, 35, 73
4, 151882, Note_on_c, 9, 64, 69
4, 151936, Note_on_c, 9, 35, 0
4, 151936, Note_on_c, 9, 73, 0
4, 151976, Note_on_c, 9, 64, 0
4, 151978, Note_on_c, 9, 53, 74
4, 151984, Note_on_c, 9, 51, 48
4, 152064, Note_on_c, 9, 56, 63
4, 152070, Note_on_c, 9, 37, 96
4, 152070, Note_on_c, 9, 70, 100
4, 152120, Note_on_c, 9, 74, 71
4, 152134, Note_on_c, 9, 53, 0
4, 152162, Note_on_c, 9, 70, 0
4, 152174, Note_on_c, 9, 56, 0
4, 152180, Note_on_c, 9, 37, 0
4, 152224, Note_on_c, 9, 51, 0
4, 152240, Note_on_c, 9, 74, 0
4, 152382, Note_on_c, 9, 51, 69
4, 152448, Note_on_c, 9, 73, 73
4, 152448, Note_on_c, 9, 56, 67
4, 152450, Note_on_c, 9, 37, 96
4, 152460, Note_on_c, 9, 62, 92
4, 152464, Note_on_c, 9, 51, 0
4, 152498, Note_on_c, 9, 73, 0
4, 152542, Note_on_c, 9, 56, 0
4, 152544, Note_on_c, 9, 37, 0
4, 152582, Note_on_c, 9, 62, 0
4, 152614, Note_on_c, 9, 51, 77
4, 152620, Note_on_c, 9, 53, 66
4, 152640, Note_on_c, 9, 73, 75
4, 152642, Note_on_c, 9, 70, 100
4, 152642, Note_on_c, 9, 35, 55
4, 152696, Note_on_c, 9, 35, 0
4, 152706, Note_on_c, 9, 73, 0
4, 152732, Note_on_c, 9, 70, 0
4, 152832, Note_on_c, 9, 37, 96
4, 152832, Note_on_c, 9, 56, 67
4, 152832, Note_on_c, 9, 35, 68
4, 152844, Note_on_c, 9, 51, 0
4, 152876, Note_on_c, 9, 53, 0
4, 152888, Note_on_c, 9, 74, 64
4, 152966, Note_on_c, 9, 56, 0
4, 152966, Note_on_c, 9, 37, 0
4, 152990, Note_on_c, 9, 74, 0
4, 153006, Note_on_c, 9, 51, 64
4, 153018, Note_on_c, 9, 35, 0
4, 153094, Note_on_c, 9, 51, 0
4, 153198, Note_on_c, 9, 63, 65
4, 153212, Note_on_c, 9, 51, 72
4, 153216, Note_on_c, 9, 37, 96
4, 153216, Note_on_c, 9, 70, 91
4, 153216, Note_on_c, 9, 73, 73
4, 153216, Note_on_c, 9, 56, 63
4, 153280, Note_on_c, 9, 73, 0
4, 153280, Note_on_c, 9, 63, 0
4, 153308, Note_on_c, 9, 37, 0
4, 153308, Note_on_c, 9, 56, 0
4, 153310, Note_on_c, 9, 70, 0
4, 153394, Note_on_c, 9, 63, 77
4, 153404, Note_on_c, 9, 35, 48
4, 153408, Note_on_c, 9, 73, 69
4, 153462, Note_on_c, 9, 35, 0
4, 153486, Note_on_c, 9, 73, 0
4, 153504, Note_on_c, 9, 51, 0
4, 153514, Note_on_c, 9, 63, 0
4, 153600, Note_on_c, 9, 37, 96
4, 153600, Note_on_c, 9, 70, 98
4, 153600, Note_on_c, 9, 56, 67
4, 153600, Note_on_c, 9, 35, 68
4, 153614, Note_on_c, 9, 51, 64
4, 153656, Note_on_c, 9, 74, 63
4, 153690, Note_on_c, 9, 70, 0
4, 153720, Note_on_c, 9, 51, 0
4, 153732, Note_on_c, 9, 35, 0
4, 153734, Note_on_c, 9, 37, 0
4, 153734, Note_on_c, 9, 56, 0
4, 153742, Note_on_c, 9, 74, 0
4, 153794, Note_on_c, 9, 51, 62
4, 153984, Note_on_c, 9, 37, 96
4, 153984, Note_on_c, 9, 70, 100
4, 153984, Note_on_c, 9, 73, 71
4, 153984, Note_on_c, 9, 56, 63
4, 153992, Note_on_c, 9, 62, 92
4, 154006, Note_on_c, 9, 51, 0
4, 154044, Note_on_c, 9, 73, 0
4, 154076, Note_on_c, 9, 70, 0
4, 154108, Note_on_c, 9, 62, 0
4, 154126, Note_on_c, 9, 56, 0
4, 154126, Note_on_c, 9, 37, 0
4, 154176, Note_on_c, 9, 73, 73
4, 154178, Note_on_c, 9, 35, 58
4, 154192, Note_on_c, 9, 51, 74
4, 154226, Note_on_c, 9, 73, 0
4, 154266, Note_on_c, 9, 35, 0
4, 154366, Note_on_c, 9, 37, 96
4, 154366, Note_on_c, 9, 35, 68
4, 154368, Note_on_c, 9, 56, 63
4, 154424, Note_on_c, 9, 74, 62
4, 154434, Note_on_c, 9, 51, 0
4, 154472, Note_on_c, 9, 35, 0
4, 154504, Note_on_c, 9, 74, 0
4, 154510, Note_on_c, 9, 37, 0
4, 154512, Note_on_c, 9, 56, 0
4, 154556, Note_on_c, 9, 51, 64
4, 154560, Note_on_c, 9, 70, 100
4, 154646, Note_on_c, 9, 70, 0
4, 154652, Note_on_c, 9, 51, 0
4, 154730, Note_on_c, 9, 51, 59
4, 154750, Note_on_c, 9, 64, 73
4, 154752, Note_on_c, 9, 73, 66
4, 154752, Note_on_c, 9, 56, 59
4, 154754, Note_on_c, 9, 37, 96
4, 154824, Note_on_c, 9, 73, 0
4, 154830, Note_on_c, 9, 64, 0
4, 154872, Note_on_c, 9, 56, 0
4, 154874, Note_on_c, 9, 37, 0
4, 154944, Note_on_c, 9, 73, 71
4, 154948, Note_on_c, 9, 35, 77
4, 154952, Note_on_c, 9, 64, 73
4, 155016, Note_on_c, 9, 35, 0
4, 155016, Note_on_c, 9, 73, 0
4, 155018, Note_on_c, 9, 51, 0
4, 155064, Note_on_c, 9, 64, 0
4, 155112, Note_on_c, 9, 51, 56
4, 155136, Note_on_c, 9, 56, 67
4, 155142, Note_on_c, 9, 37, 96
4, 155142, Note_on_c, 9, 70, 91
4, 155192, Note_on_c, 9, 51, 0
4, 155192, Note_on_c, 9, 74, 73
4, 155242, Note_on_c, 9, 70, 0
4, 155270, Note_on_c, 9, 74, 0
4, 155278, Note_on_c, 9, 56, 0
4, 155284, Note_on_c, 9, 37, 0
4, 155318, Note_on_c, 9, 51, 69
4, 155520, Note_on_c, 9, 73, 73
4, 155520, Note_on_c, 9, 56, 67
4, 155522, Note_on_c, 9, 37, 96
4, 155532, Note_on_c, 9, 62, 94
4, 155580, Note_on_c, 9, 73, 0
4, 155580, Note_on_c, 9, 51, 0
4, 155642, Note_on_c, 9, 56, 0
4, 155644, Note_on_c, 9, 37, 0
4, 155644, Note_on_c, 9, 62, 0
4, 155690, Note_on_c, 9, 51, 80
4, 155712, Note_on_c, 9, 73, 75
4, 155714, Note_on_c, 9, 70, 100
4, 155714, Note_on_c, 9, 35, 60
4, 155768, Note_on_c, 9, 35, 0
4, 155786, Note_on_c, 9, 73, 0
4, 155806, Note_on_c, 9, 70, 0
4, 155904, Note_on_c, 9, 37, 96
4, 155904, Note_on_c, 9, 56, 67
4, 155904, Note_on_c, 9, 35, 70
4, 155906, Note_on_c, 9, 64, 58
4, 155960, Note_on_c, 9, 74, 63
4, 155962, Note_on_c, 9, 51, 0
4, 155970, Note_on_c, 9, 35, 0
4, 155988, Note_on_c, 9, 64, 0
4, 156024, Note_on_c, 9, 37, 0
4, 156024, Note_on_c, 9, 56, 0
4, 156038, Note_on_c, 9, 74, 0
4, 156104, Note_on_c, 9, 51, 72
4, 156186, Note_on_c, 9, 64, 58
4, 156190, Note_on_c, 9, 51, 0
4, 156270, Note_on_c, 9, 64, 0
4, 156270, Note_on_c, 9, 51, 58
4, 156288, Note_on_c, 9, 37, 96
4, 156288, Note_on_c, 9, 70, 100
4, 156288, Note_on_c, 9, 73, 79
4, 156288, Note_on_c, 9, 56, 67
4, 156340, Note_on_c, 9, 73, 0
4, 156376, Note_on_c, 9, 51, 0
4, 156384, Note_on_c, 9, 70, 0
4, 156404, Note_on_c, 9, 37, 0
4, 156404, Note_on_c, 9, 56, 0
4, 156448, Note_on_c, 9, 64, 58
4, 156468, Note_on_c, 9, 51, 61
4, 156476, Note_on_c, 9, 35, 55
4, 156480, Note_on_c, 9, 73, 79
4, 156538, Note_on_c, 9, 73, 0
4, 156544, Note_on_c, 9, 64, 0
4, 156550, Note_on_c, 9, 35, 0
4, 156566, Note_on_c, 9, 51, 0
4, 156672, Note_on_c, 9, 37, 96
4, 156672, Note_on_c, 9, 70, 100
4, 156672, Note_on_c, 9, 56, 72
4, 156672, Note_on_c, 9, 35, 63
4, 156676, Note_on_c, 9, 51, 82
4, 156728, Note_on_c, 9, 74, 71
4, 156814, Note_on_c, 9, 70, 0
4, 156834, Note_on_c, 9, 37, 0
4, 156834, Note_on_c, 9, 56, 0
4, 156878, Note_on_c, 9, 35, 0
4, 156936, Note_on_c, 9, 74, 0
4, 156962, Note_on_c, 9, 51, 0
4, 157056, Note_on_c, 9, 37, 96
4, 157056, Note_on_c, 9, 70, 100
4, 157056, Note_on_c, 9, 73, 79
4, 157056, Note_on_c, 9, 56, 63
4, 157070, Note_on_c, 9, 51, 62
4, 157076, Note_on_c, 9, 62, 96
4, 157110, Note_on_c, 9, 73, 0
4, 157150, Note_on_c, 9, 51, 0
4, 157158, Note_on_c, 9, 70, 0
4, 157202, Note_on_c, 9, 62, 0
4, 157206, Note_on_c, 9, 56, 0
4, 157206, Note_on_c, 9, 37, 0
4, 157248, Note_on_c, 9, 73, 75
4, 157250, Note_on_c, 9, 35, 48
4, 157264, Note_on_c, 9, 51, 80
4, 157304, Note_on_c, 9, 35, 0
4, 157304, Note_on_c, 9, 73, 0
4, 157438, Note_on_c, 9, 37, 96
4, 157438, Note_on_c, 9, 35, 68
4, 157440, Note_on_c, 9, 56, 72
4, 157496, Note_on_c, 9, 74, 67
4, 157512, Note_on_c, 9, 51, 0
4, 157576, Note_on_c, 9, 37, 0
4, 157578, Note_on_c, 9, 56, 0
4, 157624, Note_on_c, 9, 74, 0
4, 157632, Note_on_c, 9, 70, 91
4, 157638, Note_on_c, 9, 51, 83
4, 157720, Note_on_c, 9, 70, 0
4, 157764, Note_on_c, 9, 35, 0
4, 157824, Note_on_c, 9, 73, 73
4, 157824, Note_on_c, 9, 56, 67
4, 157826, Note_on_c, 9, 37, 96
4, 157836, Note_on_c, 9, 64, 65
4, 157876, Note_on_c, 9, 73, 0
4, 157888, Note_on_c, 9, 51, 0
4, 157918, Note_on_c, 9, 64, 0
4, 157946, Note_on_c, 9, 56, 0
4, 157948, Note_on_c, 9, 37, 0
4, 158016, Note_on_c, 9, 51, 67
4, 158016, Note_on_c, 9, 73, 75
4, 158020, Note_on_c, 9, 35, 73
4, 158026, Note_on_c, 9, 64, 69
4, 158080, Note_on_c, 9, 35, 0
4, 158080, Note_on_c, 9, 73, 0
4, 158104, Note_on_c, 9, 51, 0
4, 158120, Note_on_c, 9, 64, 0
4, 158208, Note_on_c, 9, 56, 63
4, 158210, Note_on_c, 9, 51, 83
4, 158214, Note_on_c, 9, 37, 96
4, 158214, Note_on_c, 9, 70, 100
4, 158264, Note_on_c, 9, 74, 71
4, 158306, Note_on_c, 9, 70, 0
4, 158318, Note_on_c, 9, 56, 0
4, 158324, Note_on_c, 9, 37, 0
4, 158384, Note_on_c, 9, 74, 0
4, 158456, Note_on_c, 9, 51, 0
4, 158574, Note_on_c, 9, 51, 61
4, 158592, Note_on_c, 9, 73, 73
4, 158592, Note_on_c, 9, 56, 67
4, 158594, Note_on_c, 9, 37, 96
4, 158604, Note_on_c, 9, 62, 92
4, 158642, Note_on_c, 9, 73, 0
4, 158648, Note_on_c, 9, 51, 0
4, 158686, Note_on_c, 9, 56, 0
4, 158688, Note_on_c, 9, 37, 0
4, 158726, Note_on_c, 9, 62, 0
4, 158784, Note_on_c, 9, 73, 75
4, 158786, Note_on_c, 9, 70, 100
4, 158786, Note_on_c, 9, 35, 55
4, 158790, Note_on_c, 9, 51, 83
4, 158840, Note_on_c, 9, 35, 0
4, 158850, Note_on_c, 9, 73, 0
4, 158876, Note_on_c, 9, 70, 0
4, 158976, Note_on_c, 9, 37, 96
4, 158976, Note_on_c, 9, 56, 67
4, 158976, Note_on_c, 9, 35, 68
4, 159026, Note_on_c, 9, 51, 0
4, 159032, Note_on_c, 9, 74, 64
4, 159110, Note_on_c, 9, 37, 0
4, 159110, Note_on_c, 9, 56, 0
4, 159134, Note_on_c, 9, 74, 0
4, 159158, Note_on_c, 9, 51, 60
4, 159162, Note_on_c, 9, 35, 0
4, 159226, Note_on_c, 9, 51, 0
4, 159342, Note_on_c, 9, 63, 65
4, 159358, Note_on_c, 9, 51, 83
4, 159360, Note_on_c, 9, 37, 96
4, 159360, Note_on_c, 9, 70, 91
4, 159360, Note_on_c, 9, 73, 73
4, 159360, Note_on_c, 9, 56, 63
4, 159424, Note_on_c, 9, 73, 0
4, 159424, Note_on_c, 9, 63, 0
4, 159452, Note_on_c, 9, 37, 0
4, 159452, Note_on_c, 9, 56, 0
4, 159454, Note_on_c, 9, 70, 0
4, 159538, Note_on_c, 9, 51, 0
4, 159538, Note_on_c, 9, 63, 77
4, 159548, Note_on_c, 9, 35, 48
4, 159552, Note_on_c, 9, 73, 69
4, 159588, Note_on_c, 9, 51, 57
4, 159606, Note_on_c, 9, 35, 0
4, 159630, Note_on_c, 9, 73, 0
4, 159658, Note_on_c, 9, 63, 0
4, 159744, Note_on_c, 9, 37, 96
4, 159744, Note_on_c, 9, 70, 98
4, 159744, Note_on_c, 9, 56, 67
4, 159744, Note_on_c, 9, 35, 68
4, 159794, Note_on_c, 9, 51, 0
4, 159800, Note_on_c, 9, 74, 63
4, 159834, Note_on_c, 9, 70, 0
4, 159876, Note_on_c, 9, 35, 0
4, 159878, Note_on_c, 9, 37, 0
4, 159878, Note_on_c, 9, 56, 0
4, 159886, Note_on_c, 9, 74, 0
4, 159978, Note_on_c, 9, 51, 79
4, 160084, Note_on_c, 9, 51, 0
4, 160128, Note_on_c, 9, 37, 96
4, 160128, Note_on_c, 9, 70, 100
4, 160128, Note_on_c, 9, 73, 71
4, 160128, Note_on_c, 9, 56, 63
4, 160136, Note_on_c, 9, 62, 92
4, 160146, Note_on_c, 9, 51, 36
4, 160188, Note_on_c, 9, 73, 0
4, 160220, Note_on_c, 9, 70, 0
4, 160252, Note_on_c, 9, 62, 0
4, 160270, Note_on_c, 9, 37, 0
4, 160270, Note_on_c, 9, 56, 0
4, 160274, Note_on_c, 9, 51, 0
4, 160320, Note_on_c, 9, 73, 73
4, 160322, Note_on_c, 9, 35, 58
4, 160348, Note_on_c, 9, 51, 81
4, 160370, Note_on_c, 9, 73, 0
4, 160410, Note_on_c, 9, 35, 0
4, 160510, Note_on_c, 9, 37, 96
4, 160510, Note_on_c, 9, 35, 68
4, 160512, Note_on_c, 9, 56, 63
4, 160540, Note_on_c, 9, 51, 0
4, 160568, Note_on_c, 9, 74, 62
4, 160616, Note_on_c, 9, 35, 0
4, 160648, Note_on_c, 9, 74, 0
4, 160654, Note_on_c, 9, 37, 0
4, 160656, Note_on_c, 9, 56, 0
4, 160704, Note_on_c, 9, 70, 100
4, 160724, Note_on_c, 9, 51, 75
4, 160790, Note_on_c, 9, 70, 0
4, 160804, Note_on_c, 9, 51, 0
4, 160888, Note_on_c, 9, 51, 49
4, 160894, Note_on_c, 9, 64, 73
4, 160896, Note_on_c, 9, 73, 66
4, 160896, Note_on_c, 9, 56, 59
4, 160898, Note_on_c, 9, 37, 96
4, 160968, Note_on_c, 9, 73, 0
4, 160974, Note_on_c, 9, 64, 0
4, 161016, Note_on_c, 9, 56, 0
4, 161018, Note_on_c, 9, 37, 0
4, 161034, Note_on_c, 9, 51, 0
4, 161088, Note_on_c, 9, 73, 71
4, 161092, Note_on_c, 9, 35, 77
4, 161096, Note_on_c, 9, 64, 73
4, 161104, Note_on_c, 9, 51, 62
4, 161106, Note_on_c, 9, 53, 68
4, 161160, Note_on_c, 9, 35, 0
4, 161160, Note_on_c, 9, 73, 0
4, 161208, Note_on_c, 9, 64, 0
4, 161280, Note_on_c, 9, 56, 67
4, 161286, Note_on_c, 9, 37, 96
4, 161286, Note_on_c, 9, 70, 91
4, 161336, Note_on_c, 9, 74, 73
4, 161344, Note_on_c, 9, 51, 0
4, 161346, Note_on_c, 9, 53, 0
4, 161386, Note_on_c, 9, 70, 0
4, 161414, Note_on_c, 9, 74, 0
4, 161422, Note_on_c, 9, 56, 0
4, 161428, Note_on_c, 9, 37, 0
4, 161474, Note_on_c, 9, 51, 77
4, 161664, Note_on_c, 9, 73, 73
4, 161664, Note_on_c, 9, 56, 67
4, 161666, Note_on_c, 9, 37, 96
4, 161676, Note_on_c, 9, 62, 94
4, 161698, Note_on_c, 9, 51, 0
4, 161724, Note_on_c, 9, 73, 0
4, 161786, Note_on_c, 9, 56, 0
4, 161788, Note_on_c, 9, 37, 0
4, 161788, Note_on_c, 9, 62, 0
4, 161856, Note_on_c, 9, 73, 75
4, 161858, Note_on_c, 9, 70, 100
4, 161858, Note_on_c, 9, 35, 60
4, 161866, Note_on_c, 9, 51, 71
4, 161870, Note_on_c, 9, 53, 71
4, 161912, Note_on_c, 9, 35, 0
4, 161930, Note_on_c, 9, 73, 0
4, 161950, Note_on_c, 9, 70, 0
4, 161956, Note_on_c, 9, 53, 0
4, 162008, Note_on_c, 9, 51, 0
4, 162048, Note_on_c, 9, 37, 96
4, 162048, Note_on_c, 9, 56, 67
4, 162048, Note_on_c, 9, 35, 70
4, 162050, Note_on_c, 9, 64, 58
4, 162062, Note_on_c, 9, 51, 59
4, 162068, Note_on_c, 9, 53, 64
4, 162104, Note_on_c, 9, 74, 63
4, 162114, Note_on_c, 9, 35, 0
4, 162132, Note_on_c, 9, 64, 0
4, 162168, Note_on_c, 9, 37, 0
4, 162168, Note_on_c, 9, 56, 0
4, 162182, Note_on_c, 9, 74, 0
4, 162300, Note_on_c, 9, 51, 0
4, 162330, Note_on_c, 9, 64, 58
4, 162334, Note_on_c, 9, 53, 0
4, 162414, Note_on_c, 9, 64, 0
4, 162422, Note_on_c, 9, 51, 59
4, 162432, Note_on_c, 9, 37, 96
4, 162432, Note_on_c, 9, 70, 100
4, 162432, Note_on_c, 9, 73, 79
4, 162432, Note_on_c, 9, 56, 67
4, 162484, Note_on_c, 9, 73, 0
4, 162528, Note_on_c, 9, 70, 0
4, 162540, Note_on_c, 9, 51, 0
4, 162548, Note_on_c, 9, 37, 0
4, 162548, Note_on_c, 9, 56, 0
4, 162592, Note_on_c, 9, 64, 58
4, 162620, Note_on_c, 9, 35, 55
4, 162624, Note_on_c, 9, 73, 79
4, 162662, Note_on_c, 9, 51, 77
4, 162668, Note_on_c, 9, 53, 74
4, 162682, Note_on_c, 9, 73, 0
4, 162688, Note_on_c, 9, 64, 0
4, 162694, Note_on_c, 9, 35, 0
4, 162816, Note_on_c, 9, 37, 96
4, 162816, Note_on_c, 9, 70, 100
4, 162816, Note_on_c, 9, 56, 72
4, 162816, Note_on_c, 9, 35, 63
4, 162872, Note_on_c, 9, 74, 71
4, 162902, Note_on_c, 9, 53, 0
4, 162918, Note_on_c, 9, 51, 0
4, 162958, Note_on_c, 9, 70, 0
4, 162978, Note_on_c, 9, 56, 0
4, 162978, Note_on_c, 9, 37, 0
4, 163020, Note_on_c, 9, 51, 63
4, 163022, Note_on_c, 9, 35, 0
4, 163080, Note_on_c, 9, 74, 0
4, 163126, Note_on_c, 9, 51, 0
4, 163200, Note_on_c, 9, 37, 96
4, 163200, Note_on_c, 9, 70, 100
4, 163200, Note_on_c, 9, 73, 79
4, 163200, Note_on_c, 9, 56, 63
4, 163218, Note_on_c, 9, 51, 59
4, 163220, Note_on_c, 9, 62, 96
4, 163254, Note_on_c, 9, 73, 0
4, 163302, Note_on_c, 9, 70, 0
4, 163346, Note_on_c, 9, 62, 0
4, 163350, Note_on_c, 9, 37, 0
4, 163350, Note_on_c, 9, 56, 0
4, 163360, Note_on_c, 9, 51, 0
4, 163392, Note_on_c, 9, 73, 75
4, 163394, Note_on_c, 9, 35, 48
4, 163430, Note_on_c, 9, 51, 79
4, 163448, Note_on_c, 9, 35, 0
4, 163448, Note_on_c, 9, 73, 0
4, 163582, Note_on_c, 9, 37, 96
4, 163582, Note_on_c, 9, 35, 68
4, 163584, Note_on_c, 9, 56, 72
4, 163640, Note_on_c, 9, 74, 67
4, 163720, Note_on_c, 9, 37, 0
4, 163720, Note_on_c, 9, 51, 0
4, 163722, Note_on_c, 9, 56, 0
4, 163768, Note_on_c, 9, 74, 0
4, 163776, Note_on_c, 9, 70, 91
4, 163808, Note_on_c, 9, 51, 55
4, 163864, Note_on_c, 9, 70, 0
4, 163888, Note_on_c, 9, 51, 0
4, 163908, Note_on_c, 9, 35, 0
4, 163968, Note_on_c, 9, 73, 73
4, 163968, Note_on_c, 9, 56, 67
4, 163970, Note_on_c, 9, 37, 96
4, 163980, Note_on_c, 9, 64, 65
4, 163984, Note_on_c, 9, 51, 65
4, 164020, Note_on_c, 9, 73, 0
4, 164062, Note_on_c, 9, 64, 0
4, 164090, Note_on_c, 9, 56, 0
4, 164092, Note_on_c, 9, 37, 0
4, 164122, Note_on_c, 9, 51, 0
4, 164160, Note_on_c, 9, 73, 75
4, 164164, Note_on_c, 9, 35, 73
4, 164170, Note_on_c, 9, 64, 69
4, 164190, Note_on_c, 9, 51, 78
4, 164224, Note_on_c, 9, 35, 0
4, 164224, Note_on_c, 9, 73, 0
4, 164264, Note_on_c, 9, 64, 0
4, 164352, Note_on_c, 9, 56, 63
4, 164358, Note_on_c, 9, 37, 96
4, 164358, Note_on_c, 9, 70, 100
4, 164408, Note_on_c, 9, 74, 71
4, 164446, Note_on_c, 9, 51, 0
4, 164450, Note_on_c, 9, 70, 0
4, 164462, Note_on_c, 9, 56, 0
4, 164468, Note_on_c, 9, 37, 0
4, 164528, Note_on_c, 9, 74, 0
4, 164584, Note_on_c, 9, 51, 83
4, 164736, Note_on_c, 9, 73, 73
4, 164736, Note_on_c, 9, 56, 67
4, 164738, Note_on_c, 9, 37, 96
4, 164748, Note_on_c, 9, 62, 92
4, 164786, Note_on_c, 9, 73, 0
4, 164806, Note_on_c, 9, 51, 0
4, 164830, Note_on_c, 9, 56, 0
4, 164832, Note_on_c, 9, 37, 0
4, 164870, Note_on_c, 9, 62, 0
4, 164928, Note_on_c, 9, 73, 75
4, 164930, Note_on_c, 9, 70, 100
4, 164930, Note_on_c, 9, 35, 55
4, 164958, Note_on_c, 9, 51, 83
4, 164984, Note_on_c, 9, 35, 0
4, 164994, Note_on_c, 9, 73, 0
4, 165020, Note_on_c, 9, 70, 0
4, 165120, Note_on_c, 9, 37, 96
4, 165120, Note_on_c, 9, 56, 67
4, 165120, Note_on_c, 9, 35, 68
4, 165176, Note_on_c, 9, 74, 64
4, 165190, Note_on_c, 9, 51, 0
4, 165254, Note_on_c, 9, 37, 0
4, 165254, Note_on_c, 9, 56, 0
4, 165278, Note_on_c, 9, 74, 0
4, 165306, Note_on_c, 9, 35, 0
4, 165328, Note_on_c, 9, 51, 71
4, 165412, Note_on_c, 9, 51, 0
4, 165486, Note_on_c, 9, 63, 65
4, 165504, Note_on_c, 9, 37, 96
4, 165504, Note_on_c, 9, 70, 91
4, 165504, Note_on_c, 9, 73, 73
4, 165504, Note_on_c, 9, 56, 63
4, 165508, Note_on_c, 9, 51, 50
4, 165568, Note_on_c, 9, 73, 0
4, 165568, Note_on_c, 9, 63, 0
4, 165596, Note_on_c, 9, 56, 0
4, 165596, Note_on_c, 9, 37, 0
4, 165598, Note_on_c, 9, 70, 0
4, 165642, Note_on_c, 9, 51, 0
4, 165682, Note_on_c, 9, 63, 77
4, 165692, Note_on_c, 9, 35, 48
4, 165696, Note_on_c, 9, 73, 69
4, 165710, Note_on_c, 9, 51, 64
4, 165712, Note_on_c, 9, 53, 71
4, 165750, Note_on_c, 9, 35, 0
4, 165774, Note_on_c, 9, 73, 0
4, 165802, Note_on_c, 9, 63, 0
4, 165888, Note_on_c, 9, 37, 96
4, 165888, Note_on_c, 9, 70, 98
4, 165888, Note_on_c, 9, 56, 67
4, 165888, Note_on_c, 9, 35, 68
4, 165944, Note_on_c, 9, 74, 63
4, 165958, Note_on_c, 9, 53, 0
4, 165972, Note_on_c, 9, 51, 0
4, 165978, Note_on_c, 9, 70, 0
4, 166020, Note_on_c, 9, 35, 0
4, 166022, Note_on_c, 9, 37, 0
4, 166022, Note_on_c, 9, 56, 0
4, 166030, Note_on_c, 9, 74, 0
4, 166108, Note_on_c, 9, 51, 74
4, 166272, Note_on_c, 9, 37, 96
4, 166272, Note_on_c, 9, 70, 100
4, 166272, Note_on_c, 9, 73, 71
4, 166272, Note_on_c, 9, 56, 63
4, 166280, Note_on_c, 9, 62, 92
4, 166308, Note_on_c, 9, 51, 0
4, 166332, Note_on_c, 9, 73, 0
4, 166364, Note_on_c, 9, 70, 0
4, 166396, Note_on_c, 9, 62, 0
4, 166414, Note_on_c, 9, 56, 0
4, 166414, Note_on_c, 9, 37, 0
4, 166464, Note_on_c, 9, 73, 73
4, 166466, Note_on_c, 9, 35, 58
4, 166468, Note_on_c, 9, 51, 76
4, 166514, Note_on_c, 9, 73, 0
4, 166554, Note_on_c, 9, 35, 0
4, 166584, Note_on_c, 9, 51, 0
4, 166654, Note_on_c, 9, 37, 96
4, 166654, Note_on_c, 9, 35, 68
4, 166656, Note_on_c, 9, 56, 63
4, 166664, Note_on_c, 9, 51, 70
4, 166712, Note_on_c, 9, 74, 62
4, 166760, Note_on_c, 9, 35, 0
4, 166792, Note_on_c, 9, 74, 0
4, 166798, Note_on_c, 9, 37, 0
4, 166800, Note_on_c, 9, 56, 0
4, 166848, Note_on_c, 9, 70, 100
4, 166908, Note_on_c, 9, 51, 0
4, 166934, Note_on_c, 9, 70, 0
4, 167018, Note_on_c, 9, 51, 64
4, 167038, Note_on_c, 9, 64, 73
4, 167040, Note_on_c, 9, 73, 66
4, 167040, Note_on_c, 9, 56, 59
4, 167042, Note_on_c, 9, 37, 96
4, 167104, Note_on_c, 9, 51, 0
4, 167112, Note_on_c, 9, 73, 0
4, 167118, Note_on_c, 9, 64, 0
4, 167160, Note_on_c, 9, 56, 0
4, 167162, Note_on_c, 9, 37, 0
4, 167232, Note_on_c, 9, 73, 71
4, 167236, Note_on_c, 9, 35, 77
4, 167238, Note_on_c, 9, 51, 83
4, 167240, Note_on_c, 9, 64, 73
4, 167304, Note_on_c, 9, 35, 0
4, 167304, Note_on_c, 9, 73, 0
4, 167352, Note_on_c, 9, 64, 0
4, 167424, Note_on_c, 9, 56, 67
4, 167430, Note_on_c, 9, 37, 96
4, 167430, Note_on_c, 9, 70, 91
4, 167480, Note_on_c, 9, 74, 73
4, 167484, Note_on_c, 9, 51, 0
4, 167530, Note_on_c, 9, 70, 0
4, 167558, Note_on_c, 9, 74, 0
4, 167566, Note_on_c, 9, 56, 0
4, 167572, Note_on_c, 9, 37, 0
4, 167616, Note_on_c, 9, 51, 79
4, 167808, Note_on_c, 9, 73, 73
4, 167808, Note_on_c, 9, 56, 67
4, 167810, Note_on_c, 9, 37, 96
4, 167818, Note_on_c, 9, 51, 0
4, 167820, Note_on_c, 9, 62, 94
4, 167868, Note_on_c, 9, 73, 0
4, 167930, Note_on_c, 9, 56, 0
4, 167932, Note_on_c, 9, 37, 0
4, 167932, Note_on_c, 9, 62, 0
4, 168000, Note_on_c, 9, 73, 75
4, 168002, Note_on_c, 9, 70, 100
4, 168002, Note_on_c, 9, 35, 60
4, 168006, Note_on_c, 9, 51, 70
4, 168056, Note_on_c, 9, 35, 0
4, 168074, Note_on_c, 9, 73, 0
4, 168094, Note_on_c, 9, 70, 0
4, 168130, Note_on_c, 9, 51, 0
4, 168192, Note_on_c, 9, 37, 96
4, 168192, Note_on_c, 9, 56, 67
4, 168192, Note_on_c, 9, 35, 70
4, 168194, Note_on_c, 9, 64, 58
4, 168210, Note_on_c, 9, 51, 62
4, 168248, Note_on_c, 9, 74, 63
4, 168258, Note_on_c, 9, 35, 0
4, 168276, Note_on_c, 9, 64, 0
4, 168312, Note_on_c, 9, 37, 0
4, 168312, Note_on_c, 9, 56, 0
4, 168326, Note_on_c, 9, 74, 0
4, 168454, Note_on_c, 9, 51, 0
4, 168474, Note_on_c, 9, 64, 58
4, 168558, Note_on_c, 9, 64, 0
4, 168576, Note_on_c, 9, 37, 96
4, 168576, Note_on_c, 9, 70, 100
4, 168576, Note_on_c, 9, 73, 79
4, 168576, Note_on_c, 9, 56, 67
4, 168584, Note_on_c, 9, 51, 83
4, 168628, Note_on_c, 9, 73, 0
4, 168672, Note_on_c, 9, 70, 0
4, 168692, Note_on_c, 9, 37, 0
4, 168692, Note_on_c, 9, 56, 0
4, 168736, Note_on_c, 9, 64, 58
4, 168764, Note_on_c, 9, 35, 55
4, 168768, Note_on_c, 9, 73, 79
4, 168806, Note_on_c, 9, 51, 0
4, 168826, Note_on_c, 9, 73, 0
4, 168832, Note_on_c, 9, 64, 0
4, 168838, Note_on_c, 9, 35, 0
4, 168960, Note_on_c, 9, 37, 96
4, 168960, Note_on_c, 9, 42, 100
4, 168960, Note_on_c, 9, 70, 100
4, 168960, Note_on_c, 9, 56, 72
4, 168960, Note_on_c, 9, 35, 63
4, 169016, Note_on_c, 9, 74, 71
4, 169068, Note_on_c, 9, 42, 0
4, 169102, Note_on_c, 9, 70, 0
4, 169122, Note_on_c, 9, 56, 0
4, 169122, Note_on_c, 9, 37, 0
4, 169154, Note_on_c, 9, 42, 44
4, 169166, Note_on_c, 9, 35, 0
4, 169224, Note_on_c, 9, 74, 0
4, 169242, Note_on_c, 9, 42, 0
4, 169344, Note_on_c, 9, 37, 96
4, 169344, Note_on_c, 9, 42, 71
4, 169344, Note_on_c, 9, 70, 100
4, 169344, Note_on_c, 9, 73, 79
4, 169344, Note_on_c, 9, 56, 63
4, 169364, Note_on_c, 9, 62, 96
4, 169398, Note_on_c, 9, 73, 0
4, 169412, Note_on_c, 9, 42, 0
4, 169446, Note_on_c, 9, 70, 0
4, 169490, Note_on_c, 9, 62, 0
4, 169494, Note_on_c, 9, 56, 0
4, 169494, Note_on_c, 9, 37, 0
4, 169536, Note_on_c, 9, 73, 75
4, 169538, Note_on_c, 9, 42, 42
4, 169538, Note_on_c, 9, 35, 48
4, 169592, Note_on_c, 9, 35, 0
4, 169592, Note_on_c, 9, 73, 0
4, 169630, Note_on_c, 9, 42, 0
4, 169726, Note_on_c, 9, 37, 96
4, 169726, Note_on_c, 9, 42, 100
4, 169726, Note_on_c, 9, 35, 68
4, 169728, Note_on_c, 9, 56, 72
4, 169784, Note_on_c, 9, 74, 67
4, 169812, Note_on_c, 9, 42, 0
4, 169864, Note_on_c, 9, 37, 0
4, 169866, Note_on_c, 9, 56, 0
4, 169912, Note_on_c, 9, 74, 0
4, 169920, Note_on_c, 9, 42, 40
4, 169920, Note_on_c, 9, 70, 91
4, 170008, Note_on_c, 9, 70, 0
4, 170052, Note_on_c, 9, 35, 0
4, 170074, Note_on_c, 9, 42, 0
4, 170112, Note_on_c, 9, 73, 73
4, 170112, Note_on_c, 9, 56, 67
4, 170114, Note_on_c, 9, 37, 96
4, 170114, Note_on_c, 9, 42, 67
4, 170124, Note_on_c, 9, 64, 65
4, 170164, Note_on_c, 9, 73, 0
4, 170206, Note_on_c, 9, 64, 0
4, 170212, Note_on_c, 9, 42, 0
4, 170234, Note_on_c, 9, 56, 0
4, 170236, Note_on_c, 9, 37, 0
4, 170304, Note_on_c, 9, 73, 75
4, 170308, Note_on_c, 9, 42, 40
4, 170308, Note_on_c, 9, 35, 73
4, 170314, Note_on_c, 9, 64, 69
4, 170368, Note_on_c, 9, 35, 0
4, 170368, Note_on_c, 9, 73, 0
4, 170408, Note_on_c, 9, 64, 0
4, 170420, Note_on_c, 9, 42, 0
4, 170496, Note_on_c, 9, 56, 63
4, 170502, Note_on_c, 9, 37, 96
4, 170502, Note_on_c, 9, 42, 100
4, 170502, Note_on_c, 9, 70, 100
4, 170552, Note_on_c, 9, 74, 71
4, 170594, Note_on_c, 9, 70, 0
4, 170606, Note_on_c, 9, 56, 0
4, 170612, Note_on_c, 9, 37, 0
4, 170642, Note_on_c, 9, 42, 0
4, 170672, Note_on_c, 9, 74, 0
4, 170692, Note_on_c, 9, 42, 40
4, 170834, Note_on_c, 9, 42, 0
4, 170880, Note_on_c, 9, 73, 73
4, 170880, Note_on_c, 9, 56, 67
4, 170882, Note_on_c, 9, 37, 96
4, 170882, Note_on_c, 9, 42, 67
4, 170892, Note_on_c, 9, 62, 92
4, 170930, Note_on_c, 9, 73, 0
4, 170974, Note_on_c, 9, 56, 0
4, 170976, Note_on_c, 9, 42, 0
4, 170976, Note_on_c, 9, 37, 0
4, 171014, Note_on_c, 9, 62, 0
4, 171072, Note_on_c, 9, 73, 75
4, 171074, Note_on_c, 9, 42, 35
4, 171074, Note_on_c, 9, 70, 100
4, 171074, Note_on_c, 9, 35, 55
4, 171128, Note_on_c, 9, 35, 0
4, 171138, Note_on_c, 9, 73, 0
4, 171164, Note_on_c, 9, 70, 0
4, 171176, Note_on_c, 9, 42, 0
4, 171264, Note_on_c, 9, 37, 96
4, 171264, Note_on_c, 9, 42, 100
4, 171264, Note_on_c, 9, 56, 67
4, 171264, Note_on_c, 9, 35, 68
4, 171320, Note_on_c, 9, 74, 64
4, 171396, Note_on_c, 9, 42, 0
4, 171398, Note_on_c, 9, 37, 0
4, 171398, Note_on_c, 9, 56, 0
4, 171422, Note_on_c, 9, 74, 0
4, 171450, Note_on_c, 9, 35, 0
4, 171460, Note_on_c, 9, 42, 42
4, 171596, Note_on_c, 9, 42, 0
4, 171630, Note_on_c, 9, 63, 65
4, 171648, Note_on_c, 9, 37, 96
4, 171648, Note_on_c, 9, 42, 64
4, 171648, Note_on_c, 9, 70, 91
4, 171648, Note_on_c, 9, 73, 73
4, 171648, Note_on_c, 9, 56, 63
4, 171712, Note_on_c, 9, 73, 0
4, 171712, Note_on_c, 9, 63, 0
4, 171736, Note_on_c, 9, 42, 0
4, 171740, Note_on_c, 9, 56, 0
4, 171740, Note_on_c, 9, 37, 0
4, 171742, Note_on_c, 9, 70, 0
4, 171826, Note_on_c, 9, 63, 77
4, 171836, Note_on_c, 9, 42, 44
4, 171836, Note_on_c, 9, 35, 48
4, 171840, Note_on_c, 9, 73, 69
4, 171894, Note_on_c, 9, 35, 0
4, 171918, Note_on_c, 9, 73, 0
4, 171946, Note_on_c, 9, 63, 0
4, 171958, Note_on_c, 9, 42, 0
4, 172032, Note_on_c, 9, 37, 96
4, 172032, Note_on_c, 9, 42, 100
4, 172032, Note_on_c, 9, 70, 100
4, 172032, Note_on_c, 9, 75, 82
4, 172032, Note_on_c, 9, 74, 71
4, 172032, Note_on_c, 9, 56, 72
4, 172032, Note_on_c, 9, 35, 63
4, 172140, Note_on_c, 9, 42, 0
4, 172146, Note_on_c, 9, 75, 0
4, 172174, Note_on_c, 9, 70, 0
4, 172194, Note_on_c, 9, 37, 0
4, 172194, Note_on_c, 9, 56, 0
4, 172226, Note_on_c, 9, 42, 44
4, 172238, Note_on_c, 9, 35, 0
4, 172240, Note_on_c, 9, 74, 0
4, 172314, Note_on_c, 9, 42, 0
4, 172416, Note_on_c, 9, 37, 96
4, 172416, Note_on_c, 9, 42, 71
4, 172416, Note_on_c, 9, 70, 100
4, 172416, Note_on_c, 9, 73, 79
4, 172416, Note_on_c, 9, 56, 63
4, 172424, Note_on_c, 9, 62, 92
4, 172470, Note_on_c, 9, 73, 0
4, 172484, Note_on_c, 9, 42, 0
4, 172518, Note_on_c, 9, 70, 0
4, 172540, Note_on_c, 9, 62, 0
4, 172566, Note_on_c, 9, 56, 0
4, 172566, Note_on_c, 9, 37, 0
4, 172608, Note_on_c, 9, 73, 75
4, 172610, Note_on_c, 9, 42, 42
4, 172610, Note_on_c, 9, 35, 48
4, 172664, Note_on_c, 9, 35, 0
4, 172664, Note_on_c, 9, 73, 0
4, 172702, Note_on_c, 9, 42, 0
4, 172798, Note_on_c, 9, 37, 96
4, 172798, Note_on_c, 9, 42, 100
4, 172798, Note_on_c, 9, 35, 68
4, 172800, Note_on_c, 9, 74, 67
4, 172800, Note_on_c, 9, 56, 72
4, 172884, Note_on_c, 9, 42, 0
4, 172928, Note_on_c, 9, 74, 0
4, 172936, Note_on_c, 9, 37, 0
4, 172938, Note_on_c, 9, 56, 0
4, 172992, Note_on_c, 9, 42, 40
4, 172992, Note_on_c, 9, 70, 91
4, 173080, Note_on_c, 9, 70, 0
4, 173124, Note_on_c, 9, 35, 0
4, 173146, Note_on_c, 9, 42, 0
4, 173182, Note_on_c, 9, 64, 73
4, 173184, Note_on_c, 9, 73, 73
4, 173184, Note_on_c, 9, 56, 67
4, 173186, Note_on_c, 9, 37, 96
4, 173186, Note_on_c, 9, 42, 67
4, 173236, Note_on_c, 9, 73, 0
4, 173262, Note_on_c, 9, 64, 0
4, 173284, Note_on_c, 9, 42, 0
4, 173306, Note_on_c, 9, 56, 0
4, 173308, Note_on_c, 9, 37, 0
4, 173376, Note_on_c, 9, 73, 75
4, 173380, Note_on_c, 9, 42, 40
4, 173380, Note_on_c, 9, 75, 64
4, 173380, Note_on_c, 9, 35, 73
4, 173384, Note_on_c, 9, 64, 73
4, 173418, Note_on_c, 9, 75, 0
4, 173440, Note_on_c, 9, 35, 0
4, 173440, Note_on_c, 9, 73, 0
4, 173492, Note_on_c, 9, 42, 0
4, 173496, Note_on_c, 9, 64, 0
4, 173568, Note_on_c, 9, 74, 71
4, 173568, Note_on_c, 9, 56, 63
4, 173574, Note_on_c, 9, 37, 96
4, 173574, Note_on_c, 9, 42, 100
4, 173574, Note_on_c, 9, 70, 100
4, 173574, Note_on_c, 9, 75, 91
4, 173648, Note_on_c, 9, 75, 0
4, 173666, Note_on_c, 9, 70, 0
4, 173678, Note_on_c, 9, 56, 0
4, 173684, Note_on_c, 9, 37, 0
4, 173688, Note_on_c, 9, 74, 0
4, 173714, Note_on_c, 9, 42, 0
4, 173764, Note_on_c, 9, 42, 40
4, 173906, Note_on_c, 9, 42, 0
4, 173952, Note_on_c, 9, 73, 73
4, 173952, Note_on_c, 9, 56, 67
4, 173954, Note_on_c, 9, 37, 96
4, 173954, Note_on_c, 9, 42, 67
4, 173964, Note_on_c, 9, 62, 94
4, 174002, Note_on_c, 9, 73, 0
4, 174046, Note_on_c, 9, 56, 0
4, 174048, Note_on_c, 9, 42, 0
4, 174048, Note_on_c, 9, 37, 0
4, 174076, Note_on_c, 9, 62, 0
4, 174144, Note_on_c, 9, 73, 75
4, 174146, Note_on_c, 9, 42, 35
4, 174146, Note_on_c, 9, 70, 100
4, 174146, Note_on_c, 9, 35, 55
4, 174200, Note_on_c, 9, 35, 0
4, 174210, Note_on_c, 9, 73, 0
4, 174236, Note_on_c, 9, 70, 0
4, 174248, Note_on_c, 9, 42, 0
4, 174336, Note_on_c, 9, 37, 96
4, 174336, Note_on_c, 9, 42, 100
4, 174336, Note_on_c, 9, 74, 64
4, 174336, Note_on_c, 9, 56, 67
4, 174336, Note_on_c, 9, 35, 68
4, 174338, Note_on_c, 9, 64, 58
4, 174420, Note_on_c, 9, 64, 0
4, 174438, Note_on_c, 9, 74, 0
4, 174468, Note_on_c, 9, 42, 0
4, 174470, Note_on_c, 9, 37, 0
4, 174470, Note_on_c, 9, 56, 0
4, 174522, Note_on_c, 9, 35, 0
4, 174532, Note_on_c, 9, 42, 42
4, 174618, Note_on_c, 9, 64, 58
4, 174668, Note_on_c, 9, 42, 0
4, 174702, Note_on_c, 9, 64, 0
4, 174720, Note_on_c, 9, 37, 96
4, 174720, Note_on_c, 9, 42, 64
4, 174720, Note_on_c, 9, 70, 91
4, 174720, Note_on_c, 9, 73, 73
4, 174720, Note_on_c, 9, 56, 63
4, 174784, Note_on_c, 9, 73, 0
4, 174808, Note_on_c, 9, 42, 0
4, 174812, Note_on_c, 9, 37, 0
4, 174812, Note_on_c, 9, 56, 0
4, 174814, Note_on_c, 9, 70, 0
4, 174880, Note_on_c, 9, 64, 58
4, 174908, Note_on_c, 9, 42, 44
4, 174908, Note_on_c, 9, 35, 48
4, 174912, Note_on_c, 9, 73, 69
4, 174966, Note_on_c, 9, 35, 0
4, 174976, Note_on_c, 9, 64, 0
4, 174990, Note_on_c, 9, 73, 0
4, 175030, Note_on_c, 9, 42, 0
4, 175104, Note_on_c, 9, 37, 96
4, 175104, Note_on_c, 9, 42, 100
4, 175104, Note_on_c, 9, 70, 98
4, 175104, Note_on_c, 9, 75, 82
4, 175104, Note_on_c, 9, 74, 63
4, 175104, Note_on_c, 9, 56, 67
4, 175104, Note_on_c, 9, 35, 68
4, 175178, Note_on_c, 9, 75, 0
4, 175190, Note_on_c, 9, 74, 0
4, 175194, Note_on_c, 9, 70, 0
4, 175194, Note_on_c, 9, 42, 0
4, 175236, Note_on_c, 9, 35, 0
4, 175238, Note_on_c, 9, 56, 0
4, 175238, Note_on_c, 9, 37, 0
4, 175298, Note_on_c, 9, 42, 36
4, 175430, Note_on_c, 9, 42, 0
4, 175488, Note_on_c, 9, 37, 96
4, 175488, Note_on_c, 9, 42, 52
4, 175488, Note_on_c, 9, 70, 100
4, 175488, Note_on_c, 9, 73, 71
4, 175488, Note_on_c, 9, 56, 63
4, 175508, Note_on_c, 9, 62, 96
4, 175548, Note_on_c, 9, 73, 0
4, 175572, Note_on_c, 9, 42, 0
4, 175580, Note_on_c, 9, 70, 0
4, 175630, Note_on_c, 9, 37, 0
4, 175630, Note_on_c, 9, 56, 0
4, 175634, Note_on_c, 9, 62, 0
4, 175680, Note_on_c, 9, 73, 73
4, 175682, Note_on_c, 9, 42, 33
4, 175682, Note_on_c, 9, 35, 58
4, 175730, Note_on_c, 9, 73, 0
4, 175770, Note_on_c, 9, 35, 0
4, 175826, Note_on_c, 9, 42, 0
4, 175870, Note_on_c, 9, 37, 96
4, 175870, Note_on_c, 9, 42, 100
4, 175870, Note_on_c, 9, 35, 68
4, 175872, Note_on_c, 9, 74, 62
4, 175872, Note_on_c, 9, 56, 63
4, 175952, Note_on_c, 9, 74, 0
4, 175966, Note_on_c, 9, 42, 0
4, 175976, Note_on_c, 9, 35, 0
4, 176014, Note_on_c, 9, 37, 0
4, 176016, Note_on_c, 9, 56, 0
4, 176064, Note_on_c, 9, 42, 44
4, 176064, Note_on_c, 9, 70, 100
4, 176150, Note_on_c, 9, 70, 0
4, 176192, Note_on_c, 9, 42, 0
4, 176256, Note_on_c, 9, 73, 66
4, 176256, Note_on_c, 9, 56, 59
4, 176258, Note_on_c, 9, 37, 96
4, 176258, Note_on_c, 9, 42, 64
4, 176268, Note_on_c, 9, 64, 65
4, 176328, Note_on_c, 9, 73, 0
4, 176350, Note_on_c, 9, 64, 0
4, 176368, Note_on_c, 9, 42, 0
4, 176376, Note_on_c, 9, 56, 0
4, 176378, Note_on_c, 9, 37, 0
4, 176448, Note_on_c, 9, 73, 71
4, 176452, Note_on_c, 9, 42, 40
4, 176452, Note_on_c, 9, 75, 73
4, 176452, Note_on_c, 9, 35, 77
4, 176458, Note_on_c, 9, 64, 69
4, 176510, Note_on_c, 9, 75, 0
4, 176520, Note_on_c, 9, 35, 0
4, 176520, Note_on_c, 9, 73, 0
4, 176552, Note_on_c, 9, 64, 0
4, 176578, Note_on_c, 9, 42, 0
4, 176640, Note_on_c, 9, 74, 73
4, 176640, Note_on_c, 9, 56, 67
4, 176646, Note_on_c, 9, 37, 96
4, 176646, Note_on_c, 9, 42, 100
4, 176646, Note_on_c, 9, 70, 91
4, 176646, Note_on_c, 9, 75, 82
4, 176718, Note_on_c, 9, 74, 0
4, 176720, Note_on_c, 9, 75, 0
4, 176746, Note_on_c, 9, 70, 0
4, 176768, Note_on_c, 9, 42, 0
4, 176782, Note_on_c, 9, 56, 0
4, 176788, Note_on_c, 9, 37, 0
4, 176836, Note_on_c, 9, 42, 32
4, 176954, Note_on_c, 9, 42, 0
4, 177024, Note_on_c, 9, 73, 73
4, 177024, Note_on_c, 9, 56, 67
4, 177026, Note_on_c, 9, 37, 96
4, 177026, Note_on_c, 9, 42, 60
4, 177036, Note_on_c, 9, 62, 92
4, 177084, Note_on_c, 9, 73, 0
4, 177120, Note_on_c, 9, 42, 0
4, 177146, Note_on_c, 9, 56, 0
4, 177148, Note_on_c, 9, 37, 0
4, 177158, Note_on_c, 9, 62, 0
4, 177216, Note_on_c, 9, 73, 75
4, 177218, Note_on_c, 9, 42, 44
4, 177218, Note_on_c, 9, 70, 100
4, 177218, Note_on_c, 9, 35, 60
4, 177272, Note_on_c, 9, 35, 0
4, 177290, Note_on_c, 9, 73, 0
4, 177310, Note_on_c, 9, 70, 0
4, 177326, Note_on_c, 9, 42, 0
4, 177408, Note_on_c, 9, 37, 96
4, 177408, Note_on_c, 9, 42, 100
4, 177408, Note_on_c, 9, 74, 63
4, 177408, Note_on_c, 9, 56, 67
4, 177408, Note_on_c, 9, 35, 70
4, 177474, Note_on_c, 9, 35, 0
4, 177486, Note_on_c, 9, 74, 0
4, 177490, Note_on_c, 9, 42, 0
4, 177528, Note_on_c, 9, 37, 0
4, 177528, Note_on_c, 9, 56, 0
4, 177604, Note_on_c, 9, 42, 44
4, 177730, Note_on_c, 9, 42, 0
4, 177774, Note_on_c, 9, 63, 65
4, 177792, Note_on_c, 9, 37, 96
4, 177792, Note_on_c, 9, 42, 76
4, 177792, Note_on_c, 9, 70, 100
4, 177792, Note_on_c, 9, 73, 79
4, 177792, Note_on_c, 9, 56, 67
4, 177844, Note_on_c, 9, 73, 0
4, 177856, Note_on_c, 9, 63, 0
4, 177884, Note_on_c, 9, 42, 0
4, 177888, Note_on_c, 9, 70, 0
4, 177908, Note_on_c, 9, 56, 0
4, 177908, Note_on_c, 9, 37, 0
4, 177970, Note_on_c, 9, 63, 77
4, 177980, Note_on_c, 9, 42, 40
4, 177980, Note_on_c, 9, 35, 55
4, 177984, Note_on_c, 9, 73, 79
4, 178042, Note_on_c, 9, 73, 0
4, 178054, Note_on_c, 9, 35, 0
4, 178070, Note_on_c, 9, 42, 0
4, 178090, Note_on_c, 9, 63, 0
4, 178176, Note_on_c, 9, 37, 96
4, 178176, Note_on_c, 9, 42, 100
4, 178176, Note_on_c, 9, 70, 100
4, 178176, Note_on_c, 9, 75, 91
4, 178176, Note_on_c, 9, 74, 71
4, 178176, Note_on_c, 9, 56, 72
4, 178176, Note_on_c, 9, 35, 63
4, 178254, Note_on_c, 9, 75, 0
4, 178284, Note_on_c, 9, 42, 0
4, 178318, Note_on_c, 9, 70, 0
4, 178338, Note_on_c, 9, 37, 0
4, 178338, Note_on_c, 9, 56, 0
4, 178370, Note_on_c, 9, 42, 44
4, 178382, Note_on_c, 9, 35, 0
4, 178384, Note_on_c, 9, 74, 0
4, 178458, Note_on_c, 9, 42, 0
4, 178560, Note_on_c, 9, 37, 96
4, 178560, Note_on_c, 9, 42, 71
4, 178560, Note_on_c, 9, 70, 100
4, 178560, Note_on_c, 9, 73, 79
4, 178560, Note_on_c, 9, 56, 63
4, 178614, Note_on_c, 9, 73, 0
4, 178628, Note_on_c, 9, 42, 0
4, 178662, Note_on_c, 9, 70, 0
4, 178710, Note_on_c, 9, 37, 0
4, 178710, Note_on_c, 9, 56, 0
4, 178752, Note_on_c, 9, 73, 75
4, 178754, Note_on_c, 9, 42, 42
4, 178754, Note_on_c, 9, 35, 48
4, 178808, Note_on_c, 9, 35, 0
4, 178808, Note_on_c, 9, 73, 0
4, 178846, Note_on_c, 9, 42, 0
4, 178942, Note_on_c, 9, 37, 96
4, 178942, Note_on_c, 9, 42, 100
4, 178942, Note_on_c, 9, 35, 68
4, 178944, Note_on_c, 9, 74, 67
4, 178944, Note_on_c, 9, 56, 72
4, 179028, Note_on_c, 9, 42, 0
4, 179072, Note_on_c, 9, 74, 0
4, 179080, Note_on_c, 9, 37, 0
4, 179082, Note_on_c, 9, 56, 0
4, 179136, Note_on_c, 9, 42, 40
4, 179136, Note_on_c, 9, 70, 91
4, 179224, Note_on_c, 9, 70, 0
4, 179268, Note_on_c, 9, 35, 0
4, 179290, Note_on_c, 9, 42, 0
4, 179328, Note_on_c, 9, 73, 73
4, 179328, Note_on_c, 9, 56, 67
4, 179330, Note_on_c, 9, 37, 96
4, 179330, Note_on_c, 9, 42, 67
4, 179380, Note_on_c, 9, 73, 0
4, 179428, Note_on_c, 9, 42, 0
4, 179450, Note_on_c, 9, 56, 0
4, 179452, Note_on_c, 9, 37, 0
4, 179520, Note_on_c, 9, 73, 75
4, 179524, Note_on_c, 9, 42, 40
4, 179524, Note_on_c, 9, 75, 73
4, 179524, Note_on_c, 9, 35, 73
4, 179576, Note_on_c, 9, 75, 0
4, 179584, Note_on_c, 9, 35, 0
4, 179584, Note_on_c, 9, 73, 0
4, 179636, Note_on_c, 9, 42, 0
4, 179712, Note_on_c, 9, 74, 71
4, 179712, Note_on_c, 9, 56, 63
4, 179718, Note_on_c, 9, 37, 96
4, 179718, Note_on_c, 9, 42, 100
4, 179718, Note_on_c, 9, 70, 100
4, 179718, Note_on_c, 9, 75, 91
4, 179804, Note_on_c, 9, 75, 0
4, 179810, Note_on_c, 9, 70, 0
4, 179822, Note_on_c, 9, 56, 0
4, 179828, Note_on_c, 9, 37, 0
4, 179832, Note_on_c, 9, 74, 0
4, 179858, Note_on_c, 9, 42, 0
4, 179908, Note_on_c, 9, 42, 40
4, 180050, Note_on_c, 9, 42, 0
4, 180096, Note_on_c, 9, 73, 73
4, 180096, Note_on_c, 9, 56, 67
4, 180098, Note_on_c, 9, 37, 96
4, 180098, Note_on_c, 9, 42, 67
4, 180146, Note_on_c, 9, 73, 0
4, 180190, Note_on_c, 9, 56, 0
4, 180192, Note_on_c, 9, 37, 0
4, 180192, Note_on_c, 9, 42, 0
4, 180288, Note_on_c, 9, 73, 75
4, 180290, Note_on_c, 9, 42, 35
4, 180290, Note_on_c, 9, 70, 100
4, 180290, Note_on_c, 9, 35, 55
4, 180344, Note_on_c, 9, 35, 0
4, 180354, Note_on_c, 9, 73, 0
4, 180380, Note_on_c, 9, 70, 0
4, 180392, Note_on_c, 9, 42, 0
4, 180480, Note_on_c, 9, 37, 96
4, 180480, Note_on_c, 9, 42, 100
4, 180480, Note_on_c, 9, 74, 64
4, 180480, Note_on_c, 9, 56, 67
4, 180480, Note_on_c, 9, 35, 68
4, 180582, Note_on_c, 9, 74, 0
4, 180612, Note_on_c, 9, 42, 0
4, 180614, Note_on_c, 9, 37, 0
4, 180614, Note_on_c, 9, 56, 0
4, 180666, Note_on_c, 9, 35, 0
4, 180676, Note_on_c, 9, 42, 42
4, 180812, Note_on_c, 9, 42, 0
4, 180864, Note_on_c, 9, 37, 96
4, 180864, Note_on_c, 9, 42, 64
4, 180864, Note_on_c, 9, 70, 91
4, 180864, Note_on_c, 9, 73, 73
4, 180864, Note_on_c, 9, 56, 63
4, 180928, Note_on_c, 9, 73, 0
4, 180952, Note_on_c, 9, 42, 0
4, 180956, Note_on_c, 9, 37, 0
4, 180956, Note_on_c, 9, 56, 0
4, 180958, Note_on_c, 9, 70, 0
4, 181052, Note_on_c, 9, 42, 44
4, 181052, Note_on_c, 9, 35, 48
4, 181056, Note_on_c, 9, 73, 69
4, 181110, Note_on_c, 9, 35, 0
4, 181134, Note_on_c, 9, 73, 0
4, 181174, Note_on_c, 9, 42, 0
4, 181248, Note_on_c, 9, 37, 96
4, 181248, Note_on_c, 9, 42, 100
4, 181248, Note_on_c, 9, 70, 98
4, 181248, Note_on_c, 9, 75, 91
4, 181248, Note_on_c, 9, 74, 63
4, 181248, Note_on_c, 9, 56, 67
4, 181248, Note_on_c, 9, 35, 68
4, 181328, Note_on_c, 9, 75, 0
4, 181334, Note_on_c, 9, 74, 0
4, 181338, Note_on_c, 9, 70, 0
4, 181338, Note_on_c, 9, 42, 0
4, 181380, Note_on_c, 9, 35, 0
4, 181382, Note_on_c, 9, 56, 0
4, 181382, Note_on_c, 9, 37, 0
4, 181442, Note_on_c, 9, 42, 36
4, 181574, Note_on_c, 9, 42, 0
4, 181632, Note_on_c, 9, 37, 96
4, 181632, Note_on_c, 9, 42, 52
4, 181632, Note_on_c, 9, 70, 100
4, 181632, Note_on_c, 9, 73, 71
4, 181632, Note_on_c, 9, 56, 63
4, 181692, Note_on_c, 9, 73, 0
4, 181716, Note_on_c, 9, 42, 0
4, 181724, Note_on_c, 9, 70, 0
4, 181774, Note_on_c, 9, 37, 0
4, 181774, Note_on_c, 9, 56, 0
4, 181824, Note_on_c, 9, 73, 73
4, 181826, Note_on_c, 9, 42, 33
4, 181826, Note_on_c, 9, 35, 58
4, 181874, Note_on_c, 9, 73, 0
4, 181914, Note_on_c, 9, 35, 0
4, 181970, Note_on_c, 9, 42, 0
4, 182014, Note_on_c, 9, 37, 96
4, 182014, Note_on_c, 9, 42, 100
4, 182014, Note_on_c, 9, 35, 68
4, 182016, Note_on_c, 9, 74, 62
4, 182016, Note_on_c, 9, 56, 63
4, 182096, Note_on_c, 9, 74, 0
4, 182110, Note_on_c, 9, 42, 0
4, 182120, Note_on_c, 9, 35, 0
4, 182158, Note_on_c, 9, 37, 0
4, 182160, Note_on_c, 9, 56, 0
4, 182208, Note_on_c, 9, 42, 44
4, 182208, Note_on_c, 9, 70, 100
4, 182294, Note_on_c, 9, 70, 0
4, 182336, Note_on_c, 9, 42, 0
4, 182400, Note_on_c, 9, 73, 66
4, 182400, Note_on_c, 9, 56, 59
4, 182402, Note_on_c, 9, 37, 96
4, 182402, Note_on_c, 9, 42, 64
4, 182472, Note_on_c, 9, 73, 0
4, 182512, Note_on_c, 9, 42, 0
4, 182520, Note_on_c, 9, 56, 0
4, 182522, Note_on_c, 9, 37, 0
4, 182592, Note_on_c, 9, 73, 71
4, 182596, Note_on_c, 9, 42, 40
4, 182596, Note_on_c, 9, 75, 64
4, 182596, Note_on_c, 9, 35, 77
4, 182654, Note_on_c, 9, 75, 0
4, 182664, Note_on_c, 9, 35, 0
4, 182664, Note_on_c, 9, 73, 0
4, 182722, Note_on_c, 9, 42, 0
4, 182784, Note_on_c, 9, 74, 73
4, 182784, Note_on_c, 9, 56, 67
4, 182790, Note_on_c, 9, 37, 96
4, 182790, Note_on_c, 9, 42, 100
4, 182790, Note_on_c, 9, 70, 91
4, 182790, Note_on_c, 9, 75, 91
4, 182862, Note_on_c, 9, 74, 0
4, 182884, Note_on_c, 9, 75, 0
4, 182890, Note_on_c, 9, 70, 0
4, 182912, Note_on_c, 9, 42, 0
4, 182926, Note_on_c, 9, 56, 0
4, 182932, Note_on_c, 9, 37, 0
4, 182980, Note_on_c, 9, 42, 32
4, 183098, Note_on_c, 9, 42, 0
4, 183168, Note_on_c, 9, 73, 73
4, 183168, Note_on_c, 9, 56, 67
4, 183170, Note_on_c, 9, 37, 96
4, 183170, Note_on_c, 9, 42, 60
4, 183228, Note_on_c, 9, 73, 0
4, 183264, Note_on_c, 9, 42, 0
4, 183290, Note_on_c, 9, 56, 0
4, 183292, Note_on_c, 9, 37, 0
4, 183360, Note_on_c, 9, 73, 75
4, 183362, Note_on_c, 9, 42, 44
4, 183362, Note_on_c, 9, 70, 100
4, 183362, Note_on_c, 9, 35, 60
4, 183416, Note_on_c, 9, 35, 0
4, 183434, Note_on_c, 9, 73, 0
4, 183454, Note_on_c, 9, 70, 0
4, 183470, Note_on_c, 9, 42, 0
4, 183552, Note_on_c, 9, 37, 96
4, 183552, Note_on_c, 9, 42, 100
4, 183552, Note_on_c, 9, 74, 63
4, 183552, Note_on_c, 9, 56, 67
4, 183552, Note_on_c, 9, 35, 70
4, 183618, Note_on_c, 9, 35, 0
4, 183630, Note_on_c, 9, 74, 0
4, 183634, Note_on_c, 9, 42, 0
4, 183672, Note_on_c, 9, 37, 0
4, 183672, Note_on_c, 9, 56, 0
4, 183748, Note_on_c, 9, 42, 44
4, 183874, Note_on_c, 9, 42, 0
4, 183936, Note_on_c, 9, 37, 96
4, 183936, Note_on_c, 9, 42, 76
4, 183936, Note_on_c, 9, 70, 100
4, 183936, Note_on_c, 9, 73, 79
4, 183936, Note_on_c, 9, 56, 67
4, 183988, Note_on_c, 9, 73, 0
4, 184028, Note_on_c, 9, 42, 0
4, 184032, Note_on_c, 9, 70, 0
4, 184052, Note_on_c, 9, 37, 0
4, 184052, Note_on_c, 9, 56, 0
4, 184124, Note_on_c, 9, 42, 40
4, 184124, Note_on_c, 9, 35, 55
4, 184128, Note_on_c, 9, 73, 79
4, 184186, Note_on_c, 9, 73, 0
4, 184198, Note_on_c, 9, 35, 0
4, 184214, Note_on_c, 9, 42, 0
4, 184320, Note_on_c, 9, 37, 96
4, 184320, Note_on_c, 9, 42, 100
4, 184320, Note_on_c, 9, 70, 100
4, 184320, Note_on_c, 9, 75, 82
4, 184320, Note_on_c, 9, 74, 71
4, 184320, Note_on_c, 9, 56, 72
4, 184320, Note_on_c, 9, 35, 63
4, 184428, Note_on_c, 9, 42, 0
4, 184434, Note_on_c, 9, 75, 0
4, 184462, Note_on_c, 9, 70, 0
4, 184482, Note_on_c, 9, 37, 0
4, 184482, Note_on_c, 9, 56, 0
4, 184514, Note_on_c, 9, 42, 44
4, 184526, Note_on_c, 9, 35, 0
4, 184528, Note_on_c, 9, 74, 0
4, 184602, Note_on_c, 9, 42, 0
4, 184704, Note_on_c, 9, 37, 96
4, 184704, Note_on_c, 9, 42, 71
4, 184704, Note_on_c, 9, 70, 100
4, 184704, Note_on_c, 9, 73, 79
4, 184704, Note_on_c, 9, 56, 63
4, 184758, Note_on_c, 9, 73, 0
4, 184772, Note_on_c, 9, 42, 0
4, 184806, Note_on_c, 9, 70, 0
4, 184854, Note_on_c, 9, 37, 0
4, 184854, Note_on_c, 9, 56, 0
4, 184896, Note_on_c, 9, 73, 75
4, 184898, Note_on_c, 9, 42, 42
4, 184898, Note_on_c, 9, 35, 48
4, 184952, Note_on_c, 9, 35, 0
4, 184952, Note_on_c, 9, 73, 0
4, 184990, Note_on_c, 9, 42, 0
4, 185086, Note_on_c, 9, 37, 96
4, 185086, Note_on_c, 9, 42, 100
4, 185086, Note_on_c, 9, 35, 68
4, 185088, Note_on_c, 9, 74, 67
4, 185088, Note_on_c, 9, 56, 72
4, 185172, Note_on_c, 9, 42, 0
4, 185216, Note_on_c, 9, 74, 0
4, 185224, Note_on_c, 9, 37, 0
4, 185226, Note_on_c, 9, 56, 0
4, 185280, Note_on_c, 9, 42, 40
4, 185280, Note_on_c, 9, 70, 91
4, 185368, Note_on_c, 9, 70, 0
4, 185412, Note_on_c, 9, 35, 0
4, 185434, Note_on_c, 9, 42, 0
4, 185472, Note_on_c, 9, 73, 73
4, 185472, Note_on_c, 9, 56, 67
4, 185474, Note_on_c, 9, 37, 96
4, 185474, Note_on_c, 9, 42, 67
4, 185524, Note_on_c, 9, 73, 0
4, 185572, Note_on_c, 9, 42, 0
4, 185594, Note_on_c, 9, 56, 0
4, 185596, Note_on_c, 9, 37, 0
4, 185664, Note_on_c, 9, 73, 75
4, 185668, Note_on_c, 9, 42, 40
4, 185668, Note_on_c, 9, 75, 64
4, 185668, Note_on_c, 9, 35, 73
4, 185706, Note_on_c, 9, 75, 0
4, 185728, Note_on_c, 9, 35, 0
4, 185728, Note_on_c, 9, 73, 0
4, 185780, Note_on_c, 9, 42, 0
4, 185856, Note_on_c, 9, 74, 71
4, 185856, Note_on_c, 9, 56, 63
4, 185862, Note_on_c, 9, 37, 96
4, 185862, Note_on_c, 9, 42, 100
4, 185862, Note_on_c, 9, 70, 100
4, 185862, Note_on_c, 9, 75, 91
4, 185936, Note_on_c, 9, 75, 0
4, 185954, Note_on_c, 9, 70, 0
4, 185966, Note_on_c, 9, 56, 0
4, 185972, Note_on_c, 9, 37, 0
4, 185976, Note_on_c, 9, 74, 0
4, 186002, Note_on_c, 9, 42, 0
4, 186052, Note_on_c, 9, 42, 40
4, 186194, Note_on_c, 9, 42, 0
4, 186240, Note_on_c, 9, 73, 73
4, 186240, Note_on_c, 9, 56, 67
4, 186242, Note_on_c, 9, 37, 96
4, 186242, Note_on_c, 9, 42, 67
4, 186290, Note_on_c, 9, 73, 0
4, 186334, Note_on_c, 9, 56, 0
4, 186336, Note_on_c, 9, 37, 0
4, 186336, Note_on_c, 9, 42, 0
4, 186432, Note_on_c, 9, 73, 75
4, 186434, Note_on_c, 9, 42, 35
4, 186434, Note_on_c, 9, 70, 100
4, 186434, Note_on_c, 9, 35, 55
4, 186488, Note_on_c, 9, 35, 0
4, 186498, Note_on_c, 9, 73, 0
4, 186524, Note_on_c, 9, 70, 0
4, 186536, Note_on_c, 9, 42, 0
4, 186624, Note_on_c, 9, 37, 96
4, 186624, Note_on_c, 9, 42, 100
4, 186624, Note_on_c, 9, 74, 64
4, 186624, Note_on_c, 9, 56, 67
4, 186624, Note_on_c, 9, 35, 68
4, 186726, Note_on_c, 9, 74, 0
4, 186756, Note_on_c, 9, 42, 0
4, 186758, Note_on_c, 9, 37, 0
4, 186758, Note_on_c, 9, 56, 0
4, 186810, Note_on_c, 9, 35, 0
4, 186820, Note_on_c, 9, 42, 42
4, 186956, Note_on_c, 9, 42, 0
4, 187008, Note_on_c, 9, 37, 96
4, 187008, Note_on_c, 9, 42, 64
4, 187008, Note_on_c, 9, 70, 91
4, 187008, Note_on_c, 9, 73, 73
4, 187008, Note_on_c, 9, 56, 63
4, 187072, Note_on_c, 9, 73, 0
4, 187096, Note_on_c, 9, 42, 0
4, 187100, Note_on_c, 9, 37, 0
4, 187100, Note_on_c, 9, 56, 0
4, 187102, Note_on_c, 9, 70, 0
4, 187196, Note_on_c, 9, 42, 44
4, 187196, Note_on_c, 9, 35, 48
4, 187200, Note_on_c, 9, 73, 69
4, 187254, Note_on_c, 9, 35, 0
4, 187278, Note_on_c, 9, 73, 0
4, 187318, Note_on_c, 9, 42, 0
4, 187392, Note_on_c, 9, 37, 96
4, 187392, Note_on_c, 9, 42, 100
4, 187392, Note_on_c, 9, 70, 98
4, 187392, Note_on_c, 9, 75, 82
4, 187392, Note_on_c, 9, 74, 63
4, 187392, Note_on_c, 9, 56, 67
4, 187392, Note_on_c, 9, 35, 68
4, 187466, Note_on_c, 9, 75, 0
4, 187478, Note_on_c, 9, 74, 0
4, 187482, Note_on_c, 9, 70, 0
4, 187482, Note_on_c, 9, 42, 0
4, 187524, Note_on_c, 9, 35, 0
4, 187526, Note_on_c, 9, 56, 0
4, 187526, Note_on_c, 9, 37, 0
4, 187586, Note_on_c, 9, 42, 36
4, 187718, Note_on_c, 9, 42, 0
4, 187776, Note_on_c, 9, 37, 96
4, 187776, Note_on_c, 9, 42, 52
4, 187776, Note_on_c, 9, 70, 100
4, 187776, Note_on_c, 9, 73, 71
4, 187776, Note_on_c, 9, 56, 63
4, 187836, Note_on_c, 9, 73, 0
4, 187860, Note_on_c, 9, 42, 0
4, 187868, Note_on_c, 9, 70, 0
4, 187918, Note_on_c, 9, 37, 0
4, 187918, Note_on_c, 9, 56, 0
4, 187968, Note_on_c, 9, 73, 73
4, 187970, Note_on_c, 9, 42, 33
4, 187970, Note_on_c, 9, 35, 58
4, 188018, Note_on_c, 9, 73, 0
4, 188058, Note_on_c, 9, 35, 0
4, 188114, Note_on_c, 9, 42, 0
4, 188158, Note_on_c, 9, 37, 96
4, 188158, Note_on_c, 9, 42, 100
4, 188158, Note_on_c, 9, 35, 68
4, 188160, Note_on_c, 9, 74, 62
4, 188160, Note_on_c, 9, 56, 63
4, 188240, Note_on_c, 9, 74, 0
4, 188254, Note_on_c, 9, 42, 0
4, 188264, Note_on_c, 9, 35, 0
4, 188302, Note_on_c, 9, 37, 0
4, 188304, Note_on_c, 9, 56, 0
4, 188352, Note_on_c, 9, 42, 44
4, 188352, Note_on_c, 9, 70, 100
4, 188438, Note_on_c, 9, 70, 0
4, 188480, Note_on_c, 9, 42, 0
4, 188544, Note_on_c, 9, 73, 66
4, 188544, Note_on_c, 9, 56, 59
4, 188546, Note_on_c, 9, 37, 96
4, 188546, Note_on_c, 9, 42, 64
4, 188616, Note_on_c, 9, 73, 0
4, 188656, Note_on_c, 9, 42, 0
4, 188664, Note_on_c, 9, 56, 0
4, 188666, Note_on_c, 9, 37, 0
4, 188736, Note_on_c, 9, 73, 71
4, 188740, Note_on_c, 9, 42, 40
4, 188740, Note_on_c, 9, 75, 73
4, 188740, Note_on_c, 9, 35, 77
4, 188798, Note_on_c, 9, 75, 0
4, 188808, Note_on_c, 9, 35, 0
4, 188808, Note_on_c, 9, 73, 0
4, 188866, Note_on_c, 9, 42, 0
4, 188928, Note_on_c, 9, 74, 73
4, 188928, Note_on_c, 9, 56, 67
4, 188934, Note_on_c, 9, 37, 96
4, 188934, Note_on_c, 9, 42, 100
4, 188934, Note_on_c, 9, 70, 91
4, 188934, Note_on_c, 9, 75, 82
4, 189006, Note_on_c, 9, 74, 0
4, 189008, Note_on_c, 9, 75, 0
4, 189034, Note_on_c, 9, 70, 0
4, 189056, Note_on_c, 9, 42, 0
4, 189070, Note_on_c, 9, 56, 0
4, 189076, Note_on_c, 9, 37, 0
4, 189124, Note_on_c, 9, 42, 32
4, 189242, Note_on_c, 9, 42, 0
4, 189312, Note_on_c, 9, 73, 73
4, 189312, Note_on_c, 9, 56, 67
4, 189314, Note_on_c, 9, 37, 96
4, 189314, Note_on_c, 9, 42, 60
4, 189372, Note_on_c, 9, 73, 0
4, 189408, Note_on_c, 9, 42, 0
4, 189434, Note_on_c, 9, 56, 0
4, 189436, Note_on_c, 9, 37, 0
4, 189504, Note_on_c, 9, 73, 75
4, 189506, Note_on_c, 9, 42, 44
4, 189506, Note_on_c, 9, 70, 100
4, 189506, Note_on_c, 9, 35, 60
4, 189560, Note_on_c, 9, 35, 0
4, 189578, Note_on_c, 9, 73, 0
4, 189598, Note_on_c, 9, 70, 0
4, 189614, Note_on_c, 9, 42, 0
4, 189696, Note_on_c, 9, 37, 96
4, 189696, Note_on_c, 9, 42, 100
4, 189696, Note_on_c, 9, 74, 63
4, 189696, Note_on_c, 9, 56, 67
4, 189696, Note_on_c, 9, 35, 70
4, 189762, Note_on_c, 9, 35, 0
4, 189774, Note_on_c, 9, 74, 0
4, 189778, Note_on_c, 9, 42, 0
4, 189816, Note_on_c, 9, 37, 0
4, 189816, Note_on_c, 9, 56, 0
4, 189892, Note_on_c, 9, 42, 44
4, 190018, Note_on_c, 9, 42, 0
4, 190080, Note_on_c, 9, 37, 96
4, 190080, Note_on_c, 9, 42, 76
4, 190080, Note_on_c, 9, 70, 100
4, 190080, Note_on_c, 9, 73, 79
4, 190080, Note_on_c, 9, 56, 67
4, 190132, Note_on_c, 9, 73, 0
4, 190172, Note_on_c, 9, 42, 0
4, 190176, Note_on_c, 9, 70, 0
4, 190196, Note_on_c, 9, 37, 0
4, 190196, Note_on_c, 9, 56, 0
4, 190268, Note_on_c, 9, 42, 40
4, 190268, Note_on_c, 9, 35, 55
4, 190272, Note_on_c, 9, 73, 79
4, 190330, Note_on_c, 9, 73, 0
4, 190342, Note_on_c, 9, 35, 0
4, 190358, Note_on_c, 9, 42, 0
4, 190464, Note_on_c, 9, 37, 96
4, 190464, Note_on_c, 9, 42, 100
4, 190464, Note_on_c, 9, 70, 100
4, 190464, Note_on_c, 9, 75, 91
4, 190464, Note_on_c, 9, 74, 71
4, 190464, Note_on_c, 9, 56, 72
4, 190464, Note_on_c, 9, 35, 63
4, 190542, Note_on_c, 9, 75, 0
4, 190572, Note_on_c, 9, 42, 0
4, 190606, Note_on_c, 9, 70, 0
4, 190626, Note_on_c, 9, 37, 0
4, 190626, Note_on_c, 9, 56, 0
4, 190658, Note_on_c, 9, 42, 44
4, 190670, Note_on_c, 9, 35, 0
4, 190672, Note_on_c, 9, 74, 0
4, 190746, Note_on_c, 9, 42, 0
4, 190848, Note_on_c, 9, 37, 96
4, 190848, Note_on_c, 9, 42, 71
4, 190848, Note_on_c, 9, 70, 100
4, 190848, Note_on_c, 9, 73, 79
4, 190848, Note_on_c, 9, 56, 63
4, 190902, Note_on_c, 9, 73, 0
4, 190916, Note_on_c, 9, 42, 0
4, 190950, Note_on_c, 9, 70, 0
4, 190998, Note_on_c, 9, 37, 0
4, 190998, Note_on_c, 9, 56, 0
4, 191040, Note_on_c, 9, 73, 75
4, 191042, Note_on_c, 9, 42, 42
4, 191042, Note_on_c, 9, 35, 48
4, 191096, Note_on_c, 9, 35, 0
4, 191096, Note_on_c, 9, 73, 0
4, 191134, Note_on_c, 9, 42, 0
4, 191230, Note_on_c, 9, 37, 96
4, 191230, Note_on_c, 9, 42, 100
4, 191230, Note_on_c, 9, 35, 68
4, 191232, Note_on_c, 9, 74, 67
4, 191232, Note_on_c, 9, 56, 72
4, 191316, Note_on_c, 9, 42, 0
4, 191360, Note_on_c, 9, 74, 0
4, 191368, Note_on_c, 9, 37, 0
4, 191370, Note_on_c, 9, 56, 0
4, 191424, Note_on_c, 9, 42, 40
4, 191424, Note_on_c, 9, 70, 91
4, 191512, Note_on_c, 9, 70, 0
4, 191556, Note_on_c, 9, 35, 0
4, 191578, Note_on_c, 9, 42, 0
4, 191616, Note_on_c, 9, 73, 73
4, 191616, Note_on_c, 9, 56, 67
4, 191618, Note_on_c, 9, 37, 96
4, 191618, Note_on_c, 9, 42, 67
4, 191668, Note_on_c, 9, 73, 0
4, 191716, Note_on_c, 9, 42, 0
4, 191738, Note_on_c, 9, 56, 0
4, 191740, Note_on_c, 9, 37, 0
4, 191808, Note_on_c, 9, 73, 75
4, 191812, Note_on_c, 9, 42, 40
4, 191812, Note_on_c, 9, 75, 73
4, 191812, Note_on_c, 9, 35, 73
4, 191864, Note_on_c, 9, 75, 0
4, 191872, Note_on_c, 9, 35, 0
4, 191872, Note_on_c, 9, 73, 0
4, 191924, Note_on_c, 9, 42, 0
4, 192000, Note_on_c, 9, 74, 71
4, 192000, Note_on_c, 9, 56, 63
4, 192006, Note_on_c, 9, 37, 96
4, 192006, Note_on_c, 9, 42, 100
4, 192006, Note_on_c, 9, 70, 100
4, 192006, Note_on_c, 9, 75, 91
4, 192092, Note_on_c, 9, 75, 0
4, 192098, Note_on_c, 9, 70, 0
4, 192110, Note_on_c, 9, 56, 0
4, 192116, Note_on_c, 9, 37, 0
4, 192120, Note_on_c, 9, 74, 0
4, 192146, Note_on_c, 9, 42, 0
4, 192196, Note_on_c, 9, 42, 40
4, 192338, Note_on_c, 9, 42, 0
4, 192384, Note_on_c, 9, 73, 73
4, 192384, Note_on_c, 9, 56, 67
4, 192386, Note_on_c, 9, 37, 96
4, 192386, Note_on_c, 9, 42, 67
4, 192434, Note_on_c, 9, 73, 0
4, 192478, Note_on_c, 9, 56, 0
4, 192480, Note_on_c, 9, 37, 0
4, 192480, Note_on_c, 9, 42, 0
4, 192576, Note_on_c, 9, 73, 75
4, 192578, Note_on_c, 9, 42, 35
4, 192578, Note_on_c, 9, 70, 100
4, 192578, Note_on_c, 9, 35, 55
4, 192632, Note_on_c, 9, 35, 0
4, 192642, Note_on_c, 9, 73, 0
4, 192668, Note_on_c, 9, 70, 0
4, 192680, Note_on_c, 9, 42, 0
4, 192768, Note_on_c, 9, 37, 96
4, 192768, Note_on_c, 9, 42, 100
4, 192768, Note_on_c, 9, 74, 64
4, 192768, Note_on_c, 9, 56, 67
4, 192768, Note_on_c, 9, 35, 68
4, 192870, Note_on_c, 9, 74, 0
4, 192900, Note_on_c, 9, 42, 0
4, 192902, Note_on_c, 9, 37, 0
4, 192902, Note_on_c, 9, 56, 0
4, 192954, Note_on_c, 9, 35, 0
4, 192964, Note_on_c, 9, 42, 42
4, 193100, Note_on_c, 9, 42, 0
4, 193152, Note_on_c, 9, 37, 96
4, 193152, Note_on_c, 9, 42, 64
4, 193152, Note_on_c, 9, 70, 91
4, 193152, Note_on_c, 9, 73, 73
4, 193152, Note_on_c, 9, 56, 63
4, 193216, Note_on_c, 9, 73, 0
4, 193240, Note_on_c, 9, 42, 0
4, 193244, Note_on_c, 9, 37, 0
4, 193244, Note_on_c, 9, 56, 0
4, 193246, Note_on_c, 9, 70, 0
4, 193340, Note_on_c, 9, 42, 44
4, 193340, Note_on_c, 9, 35, 48
4, 193344, Note_on_c, 9, 73, 69
4, 193398, Note_on_c, 9, 35, 0
4, 193422, Note_on_c, 9, 73, 0
4, 193462, Note_on_c, 9, 42, 0
4, 193536, Note_on_c, 9, 37, 96
4, 193536, Note_on_c, 9, 42, 100
4, 193536, Note_on_c, 9, 70, 98
4, 193536, Note_on_c, 9, 75, 91
4, 193536, Note_on_c, 9, 74, 63
4, 193536, Note_on_c, 9, 56, 67
4, 193536, Note_on_c, 9, 35, 68
4, 193616, Note_on_c, 9, 75, 0
4, 193622, Note_on_c, 9, 74, 0
4, 193626, Note_on_c, 9, 70, 0
4, 193626, Note_on_c, 9, 42, 0
4, 193668, Note_on_c, 9, 35, 0
4, 193670, Note_on_c, 9, 56, 0
4, 193670, Note_on_c, 9, 37, 0
4, 193730, Note_on_c, 9, 42, 36
4, 193862, Note_on_c, 9, 42, 0
4, 193920, Note_on_c, 9, 37, 96
4, 193920, Note_on_c, 9, 42, 52
4, 193920, Note_on_c, 9, 70, 100
4, 193920, Note_on_c, 9, 73, 71
4, 193920, Note_on_c, 9, 56, 63
4, 193980, Note_on_c, 9, 73, 0
4, 194004, Note_on_c, 9, 42, 0
4, 194012, Note_on_c, 9, 70, 0
4, 194062, Note_on_c, 9, 37, 0
4, 194062, Note_on_c, 9, 56, 0
4, 194112, Note_on_c, 9, 73, 73
4, 194114, Note_on_c, 9, 42, 33
4, 194114, Note_on_c, 9, 35, 58
4, 194162, Note_on_c, 9, 73, 0
4, 194202, Note_on_c, 9, 35, 0
4, 194258, Note_on_c, 9, 42, 0
4, 194302, Note_on_c, 9, 37, 96
4, 194302, Note_on_c, 9, 42, 100
4, 194302, Note_on_c, 9, 35, 68
4, 194304, Note_on_c, 9, 74, 62
4, 194304, Note_on_c, 9, 56, 63
4, 194384, Note_on_c, 9, 74, 0
4, 194398, Note_on_c, 9, 42, 0
4, 194408, Note_on_c, 9, 35, 0
4, 194446, Note_on_c, 9, 37, 0
4, 194448, Note_on_c, 9, 56, 0
4, 194496, Note_on_c, 9, 42, 44
4, 194496, Note_on_c, 9, 70, 100
4, 194582, Note_on_c, 9, 70, 0
4, 194624, Note_on_c, 9, 42, 0
4, 194688, Note_on_c, 9, 73, 66
4, 194688, Note_on_c, 9, 56, 59
4, 194690, Note_on_c, 9, 37, 96
4, 194690, Note_on_c, 9, 42, 64
4, 194760, Note_on_c, 9, 73, 0
4, 194800, Note_on_c, 9, 42, 0
4, 194808, Note_on_c, 9, 56, 0
4, 194810, Note_on_c, 9, 37, 0
4, 194880, Note_on_c, 9, 73, 71
4, 194884, Note_on_c, 9, 42, 40
4, 194884, Note_on_c, 9, 75, 64
4, 194884, Note_on_c, 9, 35, 77
4, 194942, Note_on_c, 9, 75, 0
4, 194952, Note_on_c, 9, 35, 0
4, 194952, Note_on_c, 9, 73, 0
4, 195010, Note_on_c, 9, 42, 0
4, 195072, Note_on_c, 9, 74, 73
4, 195072, Note_on_c, 9, 56, 67
4, 195078, Note_on_c, 9, 37, 96
4, 195078, Note_on_c, 9, 42, 100
4, 195078, Note_on_c, 9, 70, 91
4, 195078, Note_on_c, 9, 75, 91
4, 195150, Note_on_c, 9, 74, 0
4, 195172, Note_on_c, 9, 75, 0
4, 195178, Note_on_c, 9, 70, 0
4, 195200, Note_on_c, 9, 42, 0
4, 195214, Note_on_c, 9, 56, 0
4, 195220, Note_on_c, 9, 37, 0
4, 195268, Note_on_c, 9, 42, 32
4, 195386, Note_on_c, 9, 42, 0
4, 195456, Note_on_c, 9, 73, 73
4, 195456, Note_on_c, 9, 56, 67
4, 195458, Note_on_c, 9, 37, 96
4, 195458, Note_on_c, 9, 42, 60
4, 195516, Note_on_c, 9, 73, 0
4, 195552, Note_on_c, 9, 42, 0
4, 195578, Note_on_c, 9, 56, 0
4, 195580, Note_on_c, 9, 37, 0
4, 195648, Note_on_c, 9, 73, 75
4, 195650, Note_on_c, 9, 42, 44
4, 195650, Note_on_c, 9, 70, 100
4, 195650, Note_on_c, 9, 35, 60
4, 195704, Note_on_c, 9, 35, 0
4, 195722, Note_on_c, 9, 73, 0
4, 195742, Note_on_c, 9, 70, 0
4, 195758, Note_on_c, 9, 42, 0
4, 195840, Note_on_c, 9, 37, 96
4, 195840, Note_on_c, 9, 42, 100
4, 195840, Note_on_c, 9, 74, 63
4, 195840, Note_on_c, 9, 56, 67
4, 195840, Note_on_c, 9, 35, 70
4, 195906, Note_on_c, 9, 35, 0
4, 195918, Note_on_c, 9, 74, 0
4, 195922, Note_on_c, 9, 42, 0
4, 195960, Note_on_c, 9, 37, 0
4, 195960, Note_on_c, 9, 56, 0
4, 196036, Note_on_c, 9, 42, 44
4, 196162, Note_on_c, 9, 42, 0
4, 196224, Note_on_c, 9, 37, 96
4, 196224, Note_on_c, 9, 42, 76
4, 196224, Note_on_c, 9, 70, 100
4, 196224, Note_on_c, 9, 73, 79
4, 196224, Note_on_c, 9, 56, 67
4, 196276, Note_on_c, 9, 73, 0
4, 196316, Note_on_c, 9, 42, 0
4, 196320, Note_on_c, 9, 70, 0
4, 196340, Note_on_c, 9, 37, 0
4, 196340, Note_on_c, 9, 56, 0
4, 196412, Note_on_c, 9, 42, 40
4, 196412, Note_on_c, 9, 35, 55
4, 196416, Note_on_c, 9, 73, 79
4, 196474, Note_on_c, 9, 73, 0
4, 196486, Note_on_c, 9, 35, 0
4, 196502, Note_on_c, 9, 42, 0
4, 196608, Note_on_c, 9, 42, 100
4, 196608, Note_on_c, 9, 70, 100
4, 196608, Note_on_c, 9, 75, 82
4, 196608, Note_on_c, 9, 74, 71
4, 196608, Note_on_c, 9, 56, 72
4, 196608, Note_on_c, 9, 35, 69
4, 196716, Note_on_c, 9, 42, 0
4, 196722, Note_on_c, 9, 75, 0
4, 196750, Note_on_c, 9, 70, 0
4, 196770, Note_on_c, 9, 56, 0
4, 196802, Note_on_c, 9, 42, 44
4, 196816, Note_on_c, 9, 74, 0
4, 196890, Note_on_c, 9, 42, 0
4, 196992, Note_on_c, 9, 42, 71
4, 196992, Note_on_c, 9, 70, 100
4, 196992, Note_on_c, 9, 73, 79
4, 196992, Note_on_c, 9, 56, 63
4, 196996, Note_on_c, 9, 35, 0
4, 197046, Note_on_c, 9, 73, 0
4, 197060, Note_on_c, 9, 42, 0
4, 197094, Note_on_c, 9, 70, 0
4, 197142, Note_on_c, 9, 56, 0
4, 197184, Note_on_c, 9, 73, 75
4, 197186, Note_on_c, 9, 42, 42
4, 197186, Note_on_c, 9, 35, 69
4, 197240, Note_on_c, 9, 73, 0
4, 197278, Note_on_c, 9, 42, 0
4, 197374, Note_on_c, 9, 42, 100
4, 197376, Note_on_c, 9, 74, 67
4, 197376, Note_on_c, 9, 56, 72
4, 197378, Note_on_c, 9, 35, 0
4, 197390, Note_on_c, 9, 37, 86
4, 197460, Note_on_c, 9, 42, 0
4, 197504, Note_on_c, 9, 74, 0
4, 197514, Note_on_c, 9, 56, 0
4, 197568, Note_on_c, 9, 42, 40
4, 197568, Note_on_c, 9, 70, 91
4, 197656, Note_on_c, 9, 70, 0
4, 197722, Note_on_c, 9, 42, 0
4, 197756, Note_on_c, 9, 37, 0
4, 197760, Note_on_c, 9, 73, 73
4, 197760, Note_on_c, 9, 56, 67
4, 197762, Note_on_c, 9, 42, 67
4, 197812, Note_on_c, 9, 73, 0
4, 197860, Note_on_c, 9, 42, 0
4, 197882, Note_on_c, 9, 56, 0
4, 197952, Note_on_c, 9, 73, 75
4, 197956, Note_on_c, 9, 42, 40
4, 197956, Note_on_c, 9, 75, 64
4, 197956, Note_on_c, 9, 35, 69
4, 197994, Note_on_c, 9, 75, 0
4, 198016, Note_on_c, 9, 73, 0
4, 198068, Note_on_c, 9, 42, 0
4, 198144, Note_on_c, 9, 74, 71
4, 198144, Note_on_c, 9, 56, 63
4, 198150, Note_on_c, 9, 42, 100
4, 198150, Note_on_c, 9, 70, 100
4, 198150, Note_on_c, 9, 75, 91
4, 198224, Note_on_c, 9, 75, 0
4, 198242, Note_on_c, 9, 70, 0
4, 198254, Note_on_c, 9, 56, 0
4, 198264, Note_on_c, 9, 74, 0
4, 198284, Note_on_c, 9, 35, 0
4, 198290, Note_on_c, 9, 42, 0
4, 198340, Note_on_c, 9, 37, 86
4, 198340, Note_on_c, 9, 42, 40
4, 198482, Note_on_c, 9, 42, 0
4, 198510, Note_on_c, 9, 37, 0
4, 198528, Note_on_c, 9, 73, 73
4, 198528, Note_on_c, 9, 56, 67
4, 198530, Note_on_c, 9, 42, 67
4, 198530, Note_on_c, 9, 35, 56
4, 198568, Note_on_c, 9, 35, 0
4, 198578, Note_on_c, 9, 73, 0
4, 198622, Note_on_c, 9, 56, 0
4, 198624, Note_on_c, 9, 42, 0
4, 198720, Note_on_c, 9, 73, 75
4, 198722, Note_on_c, 9, 42, 35
4, 198722, Note_on_c, 9, 70, 100
4, 198722, Note_on_c, 9, 35, 69
4, 198786, Note_on_c, 9, 73, 0
4, 198812, Note_on_c, 9, 70, 0
4, 198824, Note_on_c, 9, 42, 0
4, 198912, Note_on_c, 9, 37, 89
4, 198912, Note_on_c, 9, 42, 100
4, 198912, Note_on_c, 9, 74, 64
4, 198912, Note_on_c, 9, 56, 67
4, 198964, Note_on_c, 9, 35, 0
4, 199014, Note_on_c, 9, 74, 0
4, 199044, Note_on_c, 9, 42, 0
4, 199046, Note_on_c, 9, 56, 0
4, 199108, Note_on_c, 9, 42, 42
4, 199244, Note_on_c, 9, 42, 0
4, 199296, Note_on_c, 9, 42, 64
4, 199296, Note_on_c, 9, 70, 91
4, 199296, Note_on_c, 9, 73, 73
4, 199296, Note_on_c, 9, 56, 63
4, 199346, Note_on_c, 9, 37, 0
4, 199360, Note_on_c, 9, 73, 0
4, 199384, Note_on_c, 9, 42, 0
4, 199388, Note_on_c, 9, 56, 0
4, 199390, Note_on_c, 9, 70, 0
4, 199484, Note_on_c, 9, 37, 68
4, 199484, Note_on_c, 9, 42, 44
4, 199488, Note_on_c, 9, 73, 69
4, 199566, Note_on_c, 9, 73, 0
4, 199606, Note_on_c, 9, 42, 0
4, 199680, Note_on_c, 9, 42, 100
4, 199680, Note_on_c, 9, 70, 98
4, 199680, Note_on_c, 9, 75, 82
4, 199680, Note_on_c, 9, 74, 63
4, 199680, Note_on_c, 9, 56, 67
4, 199680, Note_on_c, 9, 35, 69
4, 199732, Note_on_c, 9, 37, 0
4, 199754, Note_on_c, 9, 75, 0
4, 199766, Note_on_c, 9, 74, 0
4, 199770, Note_on_c, 9, 42, 0
4, 199770, Note_on_c, 9, 70, 0
4, 199814, Note_on_c, 9, 56, 0
4, 199874, Note_on_c, 9, 42, 36
4, 200006, Note_on_c, 9, 42, 0
4, 200050, Note_on_c, 9, 35, 0
4, 200064, Note_on_c, 9, 42, 52
4, 200064, Note_on_c, 9, 70, 100
4, 200064, Note_on_c, 9, 73, 71
4, 200064, Note_on_c, 9, 56, 63
4, 200124, Note_on_c, 9, 73, 0
4, 200148, Note_on_c, 9, 42, 0
4, 200156, Note_on_c, 9, 70, 0
4, 200206, Note_on_c, 9, 56, 0
4, 200256, Note_on_c, 9, 73, 73
4, 200258, Note_on_c, 9, 42, 33
4, 200258, Note_on_c, 9, 35, 69
4, 200306, Note_on_c, 9, 73, 0
4, 200402, Note_on_c, 9, 42, 0
4, 200446, Note_on_c, 9, 42, 100
4, 200448, Note_on_c, 9, 74, 62
4, 200448, Note_on_c, 9, 56, 63
4, 200460, Note_on_c, 9, 37, 86
4, 200504, Note_on_c, 9, 35, 0
4, 200528, Note_on_c, 9, 74, 0
4, 200542, Note_on_c, 9, 42, 0
4, 200592, Note_on_c, 9, 56, 0
4, 200640, Note_on_c, 9, 42, 44
4, 200640, Note_on_c, 9, 70, 100
4, 200726, Note_on_c, 9, 70, 0
4, 200768, Note_on_c, 9, 42, 0
4, 200832, Note_on_c, 9, 73, 66
4, 200832, Note_on_c, 9, 56, 59
4, 200834, Note_on_c, 9, 42, 64
4, 200904, Note_on_c, 9, 73, 0
4, 200944, Note_on_c, 9, 42, 0
4, 200952, Note_on_c, 9, 56, 0
4, 201024, Note_on_c, 9, 73, 71
4, 201028, Note_on_c, 9, 42, 40
4, 201028, Note_on_c, 9, 75, 73
4, 201028, Note_on_c, 9, 35, 69
4, 201052, Note_on_c, 9, 37, 0
4, 201086, Note_on_c, 9, 75, 0
4, 201096, Note_on_c, 9, 73, 0
4, 201154, Note_on_c, 9, 42, 0
4, 201216, Note_on_c, 9, 74, 73
4, 201216, Note_on_c, 9, 56, 67
4, 201222, Note_on_c, 9, 42, 100
4, 201222, Note_on_c, 9, 70, 91
4, 201222, Note_on_c, 9, 75, 82
4, 201294, Note_on_c, 9, 74, 0
4, 201296, Note_on_c, 9, 75, 0
4, 201322, Note_on_c, 9, 70, 0
4, 201344, Note_on_c, 9, 42, 0
4, 201358, Note_on_c, 9, 56, 0
4, 201376, Note_on_c, 9, 35, 0
4, 201412, Note_on_c, 9, 37, 68
4, 201412, Note_on_c, 9, 42, 32
4, 201530, Note_on_c, 9, 42, 0
4, 201592, Note_on_c, 9, 37, 0
4, 201600, Note_on_c, 9, 73, 73
4, 201600, Note_on_c, 9, 56, 67
4, 201602, Note_on_c, 9, 42, 60
4, 201660, Note_on_c, 9, 73, 0
4, 201696, Note_on_c, 9, 42, 0
4, 201722, Note_on_c, 9, 56, 0
4, 201792, Note_on_c, 9, 73, 75
4, 201794, Note_on_c, 9, 42, 44
4, 201794, Note_on_c, 9, 70, 100
4, 201794, Note_on_c, 9, 35, 69
4, 201866, Note_on_c, 9, 73, 0
4, 201886, Note_on_c, 9, 70, 0
4, 201902, Note_on_c, 9, 42, 0
4, 201984, Note_on_c, 9, 37, 91
4, 201984, Note_on_c, 9, 42, 100
4, 201984, Note_on_c, 9, 74, 63
4, 201984, Note_on_c, 9, 56, 67
4, 202016, Note_on_c, 9, 35, 0
4, 202062, Note_on_c, 9, 74, 0
4, 202066, Note_on_c, 9, 42, 0
4, 202104, Note_on_c, 9, 56, 0
4, 202180, Note_on_c, 9, 42, 44
4, 202306, Note_on_c, 9, 42, 0
4, 202368, Note_on_c, 9, 42, 76
4, 202368, Note_on_c, 9, 70, 100
4, 202368, Note_on_c, 9, 73, 79
4, 202368, Note_on_c, 9, 56, 67
4, 202420, Note_on_c, 9, 73, 0
4, 202432, Note_on_c, 9, 37, 0
4, 202460, Note_on_c, 9, 42, 0
4, 202464, Note_on_c, 9, 70, 0
4, 202484, Note_on_c, 9, 56, 0
4, 202556, Note_on_c, 9, 42, 40
4, 202560, Note_on_c, 9, 73, 79
4, 202618, Note_on_c, 9, 73, 0
4, 202646, Note_on_c, 9, 42, 0
4, 202752, Note_on_c, 9, 42, 100
4, 202752, Note_on_c, 9, 70, 100
4, 202752, Note_on_c, 9, 75, 91
4, 202752, Note_on_c, 9, 74, 71
4, 202752, Note_on_c, 9, 56, 72
4, 202752, Note_on_c, 9, 35, 69
4, 202830, Note_on_c, 9, 75, 0
4, 202860, Note_on_c, 9, 42, 0
4, 202894, Note_on_c, 9, 70, 0
4, 202914, Note_on_c, 9, 56, 0
4, 202946, Note_on_c, 9, 42, 44
4, 202960, Note_on_c, 9, 74, 0
4, 203034, Note_on_c, 9, 42, 0
4, 203136, Note_on_c, 9, 42, 71
4, 203136, Note_on_c, 9, 70, 100
4, 203136, Note_on_c, 9, 73, 79
4, 203136, Note_on_c, 9, 56, 63
4, 203140, Note_on_c, 9, 35, 0
4, 203190, Note_on_c, 9, 73, 0
4, 203204, Note_on_c, 9, 42, 0
4, 203238, Note_on_c, 9, 70, 0
4, 203286, Note_on_c, 9, 56, 0
4, 203328, Note_on_c, 9, 73, 75
4, 203330, Note_on_c, 9, 42, 42
4, 203330, Note_on_c, 9, 35, 69
4, 203384, Note_on_c, 9, 73, 0
4, 203422, Note_on_c, 9, 42, 0
4, 203518, Note_on_c, 9, 42, 100
4, 203520, Note_on_c, 9, 74, 67
4, 203520, Note_on_c, 9, 56, 72
4, 203522, Note_on_c, 9, 35, 0
4, 203534, Note_on_c, 9, 37, 86
4, 203604, Note_on_c, 9, 42, 0
4, 203648, Note_on_c, 9, 74, 0
4, 203658, Note_on_c, 9, 56, 0
4, 203712, Note_on_c, 9, 42, 40
4, 203712, Note_on_c, 9, 70, 91
4, 203800, Note_on_c, 9, 70, 0
4, 203866, Note_on_c, 9, 42, 0
4, 203900, Note_on_c, 9, 37, 0
4, 203904, Note_on_c, 9, 73, 73
4, 203904, Note_on_c, 9, 56, 67
4, 203906, Note_on_c, 9, 42, 67
4, 203956, Note_on_c, 9, 73, 0
4, 204004, Note_on_c, 9, 42, 0
4, 204026, Note_on_c, 9, 56, 0
4, 204096, Note_on_c, 9, 73, 75
4, 204100, Note_on_c, 9, 42, 40
4, 204100, Note_on_c, 9, 75, 73
4, 204100, Note_on_c, 9, 35, 69
4, 204152, Note_on_c, 9, 75, 0
4, 204160, Note_on_c, 9, 73, 0
4, 204212, Note_on_c, 9, 42, 0
4, 204288, Note_on_c, 9, 74, 71
4, 204288, Note_on_c, 9, 56, 63
4, 204294, Note_on_c, 9, 42, 100
4, 204294, Note_on_c, 9, 70, 100
4, 204294, Note_on_c, 9, 75, 91
4, 204380, Note_on_c, 9, 75, 0
4, 204386, Note_on_c, 9, 70, 0
4, 204398, Note_on_c, 9, 56, 0
4, 204408, Note_on_c, 9, 74, 0
4, 204428, Note_on_c, 9, 35, 0
4, 204434, Note_on_c, 9, 42, 0
4, 204484, Note_on_c, 9, 37, 86
4, 204484, Note_on_c, 9, 42, 40
4, 204626, Note_on_c, 9, 42, 0
4, 204654, Note_on_c, 9, 37, 0
4, 204672, Note_on_c, 9, 73, 73
4, 204672, Note_on_c, 9, 56, 67
4, 204674, Note_on_c, 9, 42, 67
4, 204674, Note_on_c, 9, 35, 56
4, 204712, Note_on_c, 9, 35, 0
4, 204722, Note_on_c, 9, 73, 0
4, 204766, Note_on_c, 9, 56, 0
4, 204768, Note_on_c, 9, 42, 0
4, 204864, Note_on_c, 9, 73, 75
4, 204866, Note_on_c, 9, 42, 35
4, 204866, Note_on_c, 9, 70, 100
4, 204866, Note_on_c, 9, 35, 69
4, 204930, Note_on_c, 9, 73, 0
4, 204956, Note_on_c, 9, 70, 0
4, 204968, Note_on_c, 9, 42, 0
4, 205056, Note_on_c, 9, 37, 89
4, 205056, Note_on_c, 9, 42, 100
4, 205056, Note_on_c, 9, 74, 64
4, 205056, Note_on_c, 9, 56, 67
4, 205108, Note_on_c, 9, 35, 0
4, 205158, Note_on_c, 9, 74, 0
4, 205188, Note_on_c, 9, 42, 0
4, 205190, Note_on_c, 9, 56, 0
4, 205252, Note_on_c, 9, 42, 42
4, 205388, Note_on_c, 9, 42, 0
4, 205440, Note_on_c, 9, 42, 64
4, 205440, Note_on_c, 9, 70, 91
4, 205440, Note_on_c, 9, 73, 73
4, 205440, Note_on_c, 9, 56, 63
4, 205490, Note_on_c, 9, 37, 0
4, 205504, Note_on_c, 9, 73, 0
4, 205528, Note_on_c, 9, 42, 0
4, 205532, Note_on_c, 9, 56, 0
4, 205534, Note_on_c, 9, 70, 0
4, 205628, Note_on_c, 9, 37, 68
4, 205628, Note_on_c, 9, 42, 44
4, 205632, Note_on_c, 9, 73, 69
4, 205710, Note_on_c, 9, 73, 0
4, 205750, Note_on_c, 9, 42, 0
4, 205824, Note_on_c, 9, 42, 100
4, 205824, Note_on_c, 9, 70, 98
4, 205824, Note_on_c, 9, 75, 91
4, 205824, Note_on_c, 9, 74, 63
4, 205824, Note_on_c, 9, 56, 67
4, 205824, Note_on_c, 9, 35, 69
4, 205876, Note_on_c, 9, 37, 0
4, 205904, Note_on_c, 9, 75, 0
4, 205910, Note_on_c, 9, 74, 0
4, 205914, Note_on_c, 9, 42, 0
4, 205914, Note_on_c, 9, 70, 0
4, 205958, Note_on_c, 9, 56, 0
4, 206018, Note_on_c, 9, 42, 36
4, 206150, Note_on_c, 9, 42, 0
4, 206194, Note_on_c, 9, 35, 0
4, 206208, Note_on_c, 9, 42, 52
4, 206208, Note_on_c, 9, 70, 100
4, 206208, Note_on_c, 9, 73, 71
4, 206208, Note_on_c, 9, 56, 63
4, 206268, Note_on_c, 9, 73, 0
4, 206292, Note_on_c, 9, 42, 0
4, 206300, Note_on_c, 9, 70, 0
4, 206350, Note_on_c, 9, 56, 0
4, 206400, Note_on_c, 9, 73, 73
4, 206402, Note_on_c, 9, 42, 33
4, 206402, Note_on_c, 9, 35, 69
4, 206450, Note_on_c, 9, 73, 0
4, 206546, Note_on_c, 9, 42, 0
4, 206590, Note_on_c, 9, 42, 100
4, 206592, Note_on_c, 9, 74, 62
4, 206592, Note_on_c, 9, 56, 63
4, 206604, Note_on_c, 9, 37, 86
4, 206648, Note_on_c, 9, 35, 0
4, 206672, Note_on_c, 9, 74, 0
4, 206686, Note_on_c, 9, 42, 0
4, 206736, Note_on_c, 9, 56, 0
4, 206784, Note_on_c, 9, 42, 44
4, 206784, Note_on_c, 9, 70, 100
4, 206870, Note_on_c, 9, 70, 0
4, 206912, Note_on_c, 9, 42, 0
4, 206976, Note_on_c, 9, 73, 66
4, 206976, Note_on_c, 9, 56, 59
4, 206978, Note_on_c, 9, 42, 64
4, 207048, Note_on_c, 9, 73, 0
4, 207088, Note_on_c, 9, 42, 0
4, 207096, Note_on_c, 9, 56, 0
4, 207160, Note_on_c, 9, 70, 107
4, 207168, Note_on_c, 9, 73, 71
4, 207172, Note_on_c, 9, 46, 65
4, 207172, Note_on_c, 9, 75, 64
4, 207172, Note_on_c, 9, 35, 69
4, 207196, Note_on_c, 9, 37, 0
4, 207230, Note_on_c, 9, 75, 0
4, 207240, Note_on_c, 9, 73, 0
4, 207260, Note_on_c, 9, 70, 0
4, 207360, Note_on_c, 9, 74, 73
4, 207360, Note_on_c, 9, 56, 67
4, 207366, Note_on_c, 9, 75, 91
4, 207438, Note_on_c, 9, 74, 0
4, 207460, Note_on_c, 9, 75, 0
4, 207502, Note_on_c, 9, 56, 0
4, 207520, Note_on_c, 9, 35, 0
4, 207552, Note_on_c, 9, 47, 67
4, 207630, Note_on_c, 9, 47, 0
4, 207740, Note_on_c, 9, 47, 58
4, 207744, Note_on_c, 9, 46, 0
4, 207744, Note_on_c, 9, 73, 73
4, 207744, Note_on_c, 9, 56, 67
4, 207804, Note_on_c, 9, 73, 0
4, 207836, Note_on_c, 9, 47, 0
4, 207866, Note_on_c, 9, 56, 0
4, 207936, Note_on_c, 9, 73, 75
4, 207940, Note_on_c, 9, 47, 85
4, 208010, Note_on_c, 9, 73, 0
4, 208128, Note_on_c, 9, 74, 63
4, 208128, Note_on_c, 9, 56, 67
4, 208206, Note_on_c, 9, 74, 0
4, 208248, Note_on_c, 9, 56, 0
4, 208416, Note_on_c, 9, 47, 0
4, 208502, Channel_aftertouch_c, 9, 3
4, 208512, Note_on_c, 9, 73, 79
4, 208512, Note_on_c, 9, 56, 67
4, 208552, Channel_aftertouch_c, 9, 2
4, 208564, Note_on_c, 9, 73, 0
4, 208628, Note_on_c, 9, 56, 0
4, 208704, Note_on_c, 9, 73, 79
4, 208762, Note_on_c, 9, 73, 0
4, 208896, Note_on_c, 9, 37, 96
4, 208896, Note_on_c, 9, 42, 100
4, 208896, Note_on_c, 9, 70, 100
4, 208896, Note_on_c, 9, 74, 71
4, 208896, Note_on_c, 9, 56, 72
4, 208896, Note_on_c, 9, 35, 63
4, 209004, Note_on_c, 9, 42, 0
4, 209038, Note_on_c, 9, 70, 0
4, 209058, Note_on_c, 9, 37, 0
4, 209058, Note_on_c, 9, 56, 0
4, 209090, Note_on_c, 9, 42, 44
4, 209102, Note_on_c, 9, 35, 0
4, 209104, Note_on_c, 9, 74, 0
4, 209178, Note_on_c, 9, 42, 0
4, 209280, Note_on_c, 9, 37, 96
4, 209280, Note_on_c, 9, 42, 71
4, 209280, Note_on_c, 9, 70, 100
4, 209280, Note_on_c, 9, 73, 79
4, 209280, Note_on_c, 9, 56, 63
4, 209334, Note_on_c, 9, 73, 0
4, 209348, Note_on_c, 9, 42, 0
4, 209382, Note_on_c, 9, 70, 0
4, 209430, Note_on_c, 9, 37, 0
4, 209430, Note_on_c, 9, 56, 0
4, 209472, Note_on_c, 9, 73, 75
4, 209474, Note_on_c, 9, 42, 42
4, 209474, Note_on_c, 9, 35, 48
4, 209528, Note_on_c, 9, 35, 0
4, 209528, Note_on_c, 9, 73, 0
4, 209566, Note_on_c, 9, 42, 0
4, 209662, Note_on_c, 9, 37, 96
4, 209662, Note_on_c, 9, 42, 100
4, 209662, Note_on_c, 9, 35, 68
4, 209664, Note_on_c, 9, 74, 67
4, 209664, Note_on_c, 9, 56, 72
4, 209748, Note_on_c, 9, 42, 0
4, 209792, Note_on_c, 9, 74, 0
4, 209800, Note_on_c, 9, 37, 0
4, 209802, Note_on_c, 9, 56, 0
4, 209856, Note_on_c, 9, 42, 40
4, 209856, Note_on_c, 9, 70, 91
4, 209944, Note_on_c, 9, 70, 0
4, 209988, Note_on_c, 9, 35, 0
4, 210010, Note_on_c, 9, 42, 0
4, 210048, Note_on_c, 9, 73, 73
4, 210048, Note_on_c, 9, 56, 67
4, 210050, Note_on_c, 9, 37, 96
4, 210050, Note_on_c, 9, 42, 67
4, 210100, Note_on_c, 9, 73, 0
4, 210148, Note_on_c, 9, 42, 0
4, 210170, Note_on_c, 9, 56, 0
4, 210172, Note_on_c, 9, 37, 0
4, 210240, Note_on_c, 9, 73, 75
4, 210244, Note_on_c, 9, 42, 40
4, 210244, Note_on_c, 9, 35, 73
4, 210304, Note_on_c, 9, 35, 0
4, 210304, Note_on_c, 9, 73, 0
4, 210356, Note_on_c, 9, 42, 0
4, 210432, Note_on_c, 9, 74, 71
4, 210432, Note_on_c, 9, 56, 63
4, 210438, Note_on_c, 9, 37, 96
4, 210438, Note_on_c, 9, 42, 100
4, 210438, Note_on_c, 9, 70, 100
4, 210530, Note_on_c, 9, 70, 0
4, 210542, Note_on_c, 9, 56, 0
4, 210548, Note_on_c, 9, 37, 0
4, 210552, Note_on_c, 9, 74, 0
4, 210578, Note_on_c, 9, 42, 0
4, 210628, Note_on_c, 9, 42, 40
4, 210638, Note_on_c, 9, 65, 65
4, 210706, Note_on_c, 9, 65, 0
4, 210770, Note_on_c, 9, 42, 0
4, 210816, Note_on_c, 9, 73, 73
4, 210816, Note_on_c, 9, 56, 67
4, 210818, Note_on_c, 9, 37, 96
4, 210818, Note_on_c, 9, 42, 67
4, 210830, Note_on_c, 9, 65, 52
4, 210866, Note_on_c, 9, 73, 0
4, 210892, Note_on_c, 9, 65, 0
4, 210910, Note_on_c, 9, 56, 0
4, 210912, Note_on_c, 9, 37, 0
4, 210912, Note_on_c, 9, 42, 0
4, 211008, Note_on_c, 9, 73, 75
4, 211010, Note_on_c, 9, 42, 35
4, 211010, Note_on_c, 9, 70, 100
4, 211010, Note_on_c, 9, 35, 55
4, 211014, Note_on_c, 9, 65, 52
4, 211064, Note_on_c, 9, 35, 0
4, 211074, Note_on_c, 9, 73, 0
4, 211100, Note_on_c, 9, 70, 0
4, 211112, Note_on_c, 9, 42, 0
4, 211112, Note_on_c, 9, 65, 0
4, 211200, Note_on_c, 9, 37, 96
4, 211200, Note_on_c, 9, 42, 100
4, 211200, Note_on_c, 9, 74, 64
4, 211200, Note_on_c, 9, 56, 67
4, 211200, Note_on_c, 9, 35, 68
4, 211204, Note_on_c, 9, 65, 74
4, 211302, Note_on_c, 9, 74, 0
4, 211332, Note_on_c, 9, 42, 0
4, 211334, Note_on_c, 9, 56, 0
4, 211334, Note_on_c, 9, 37, 0
4, 211386, Note_on_c, 9, 35, 0
4, 211396, Note_on_c, 9, 42, 42
4, 211458, Note_on_c, 9, 65, 0
4, 211482, Note_on_c, 9, 66, 74
4, 211532, Note_on_c, 9, 42, 0
4, 211584, Note_on_c, 9, 37, 96
4, 211584, Note_on_c, 9, 42, 64
4, 211584, Note_on_c, 9, 70, 91
4, 211584, Note_on_c, 9, 73, 73
4, 211584, Note_on_c, 9, 56, 63
4, 211598, Note_on_c, 9, 66, 0
4, 211648, Note_on_c, 9, 73, 0
4, 211672, Note_on_c, 9, 42, 0
4, 211676, Note_on_c, 9, 56, 0
4, 211676, Note_on_c, 9, 37, 0
4, 211678, Note_on_c, 9, 70, 0
4, 211732, Note_on_c, 9, 66, 74
4, 211772, Note_on_c, 9, 42, 44
4, 211772, Note_on_c, 9, 35, 48
4, 211776, Note_on_c, 9, 73, 69
4, 211830, Note_on_c, 9, 35, 0
4, 211854, Note_on_c, 9, 73, 0
4, 211894, Note_on_c, 9, 42, 0
4, 211968, Note_on_c, 9, 37, 96
4, 211968, Note_on_c, 9, 42, 100
4, 211968, Note_on_c, 9, 70, 98
4, 211968, Note_on_c, 9, 74, 63
4, 211968, Note_on_c, 9, 56, 67
4, 211968, Note_on_c, 9, 35, 68
4, 212054, Note_on_c, 9, 74, 0
4, 212058, Note_on_c, 9, 70, 0
4, 212058, Note_on_c, 9, 42, 0
4, 212100, Note_on_c, 9, 35, 0
4, 212102, Note_on_c, 9, 37, 0
4, 212102, Note_on_c, 9, 56, 0
4, 212162, Note_on_c, 9, 42, 36
4, 212294, Note_on_c, 9, 42, 0
4, 212352, Note_on_c, 9, 66, 0
4, 212352, Note_on_c, 9, 37, 96
4, 212352, Note_on_c, 9, 42, 52
4, 212352, Note_on_c, 9, 70, 100
4, 212352, Note_on_c, 9, 73, 71
4, 212352, Note_on_c, 9, 56, 63
4, 212412, Note_on_c, 9, 73, 0
4, 212436, Note_on_c, 9, 42, 0
4, 212444, Note_on_c, 9, 70, 0
4, 212494, Note_on_c, 9, 37, 0
4, 212494, Note_on_c, 9, 56, 0
4, 212544, Note_on_c, 9, 73, 73
4, 212546, Note_on_c, 9, 42, 33
4, 212546, Note_on_c, 9, 35, 58
4, 212594, Note_on_c, 9, 73, 0
4, 212634, Note_on_c, 9, 35, 0
4, 212690, Note_on_c, 9, 42, 0
4, 212734, Note_on_c, 9, 37, 96
4, 212734, Note_on_c, 9, 42, 100
4, 212734, Note_on_c, 9, 35, 68
4, 212736, Note_on_c, 9, 74, 62
4, 212736, Note_on_c, 9, 56, 63
4, 212816, Note_on_c, 9, 74, 0
4, 212830, Note_on_c, 9, 42, 0
4, 212840, Note_on_c, 9, 35, 0
4, 212878, Note_on_c, 9, 37, 0
4, 212880, Note_on_c, 9, 56, 0
4, 212928, Note_on_c, 9, 42, 44
4, 212928, Note_on_c, 9, 70, 100
4, 213014, Note_on_c, 9, 70, 0
4, 213056, Note_on_c, 9, 42, 0
4, 213120, Note_on_c, 9, 73, 66
4, 213120, Note_on_c, 9, 56, 59
4, 213122, Note_on_c, 9, 37, 96
4, 213122, Note_on_c, 9, 42, 64
4, 213192, Note_on_c, 9, 73, 0
4, 213232, Note_on_c, 9, 42, 0
4, 213240, Note_on_c, 9, 56, 0
4, 213242, Note_on_c, 9, 37, 0
4, 213312, Note_on_c, 9, 73, 71
4, 213316, Note_on_c, 9, 42, 40
4, 213316, Note_on_c, 9, 35, 77
4, 213384, Note_on_c, 9, 35, 0
4, 213384, Note_on_c, 9, 73, 0
4, 213442, Note_on_c, 9, 42, 0
4, 213504, Note_on_c, 9, 74, 73
4, 213504, Note_on_c, 9, 56, 67
4, 213510, Note_on_c, 9, 37, 96
4, 213510, Note_on_c, 9, 42, 100
4, 213510, Note_on_c, 9, 70, 91
4, 213582, Note_on_c, 9, 74, 0
4, 213610, Note_on_c, 9, 70, 0
4, 213632, Note_on_c, 9, 42, 0
4, 213646, Note_on_c, 9, 56, 0
4, 213652, Note_on_c, 9, 37, 0
4, 213700, Note_on_c, 9, 42, 32
4, 213706, Note_on_c, 9, 66, 54
4, 213746, Note_on_c, 9, 66, 0
4, 213784, Note_on_c, 9, 66, 47
4, 213812, Note_on_c, 9, 66, 0
4, 213818, Note_on_c, 9, 42, 0
4, 213882, Note_on_c, 9, 66, 64
4, 213888, Note_on_c, 9, 73, 73
4, 213888, Note_on_c, 9, 56, 67
4, 213890, Note_on_c, 9, 37, 96
4, 213890, Note_on_c, 9, 42, 60
4, 213946, Note_on_c, 9, 66, 0
4, 213948, Note_on_c, 9, 73, 0
4, 213984, Note_on_c, 9, 42, 0
4, 213990, Note_on_c, 9, 66, 75
4, 214010, Note_on_c, 9, 56, 0
4, 214012, Note_on_c, 9, 37, 0
4, 214040, Note_on_c, 9, 66, 0
4, 214080, Note_on_c, 9, 73, 75
4, 214082, Note_on_c, 9, 42, 44
4, 214082, Note_on_c, 9, 70, 100
4, 214082, Note_on_c, 9, 35, 60
4, 214084, Note_on_c, 9, 65, 84
4, 214136, Note_on_c, 9, 35, 0
4, 214154, Note_on_c, 9, 73, 0
4, 214170, Note_on_c, 9, 65, 0
4, 214174, Note_on_c, 9, 70, 0
4, 214190, Note_on_c, 9, 42, 0
4, 214272, Note_on_c, 9, 37, 96
4, 214272, Note_on_c, 9, 42, 100
4, 214272, Note_on_c, 9, 74, 63
4, 214272, Note_on_c, 9, 56, 67
4, 214272, Note_on_c, 9, 35, 70
4, 214338, Note_on_c, 9, 35, 0
4, 214350, Note_on_c, 9, 74, 0
4, 214354, Note_on_c, 9, 42, 0
4, 214392, Note_on_c, 9, 37, 0
4, 214392, Note_on_c, 9, 56, 0
4, 214468, Note_on_c, 9, 42, 44
4, 214468, Note_on_c, 9, 65, 48
4, 214506, Note_on_c, 9, 65, 0
4, 214594, Note_on_c, 9, 42, 0
4, 214656, Note_on_c, 9, 37, 96
4, 214656, Note_on_c, 9, 42, 76
4, 214656, Note_on_c, 9, 70, 100
4, 214656, Note_on_c, 9, 65, 83
4, 214656, Note_on_c, 9, 73, 79
4, 214656, Note_on_c, 9, 56, 67
4, 214700, Note_on_c, 9, 65, 0
4, 214708, Note_on_c, 9, 73, 0
4, 214748, Note_on_c, 9, 42, 0
4, 214752, Note_on_c, 9, 70, 0
4, 214772, Note_on_c, 9, 37, 0
4, 214772, Note_on_c, 9, 56, 0
4, 214840, Note_on_c, 9, 66, 96
4, 214844, Note_on_c, 9, 42, 40
4, 214844, Note_on_c, 9, 55, 92
4, 214844, Note_on_c, 9, 35, 55
4, 214848, Note_on_c, 9, 73, 79
4, 214906, Note_on_c, 9, 73, 0
4, 214918, Note_on_c, 9, 35, 0
4, 214934, Note_on_c, 9, 42, 0
4, 215040, Note_on_c, 9, 37, 96
4, 215040, Note_on_c, 9, 42, 100
4, 215040, Note_on_c, 9, 70, 100
4, 215040, Note_on_c, 9, 74, 71
4, 215040, Note_on_c, 9, 56, 72
4, 215040, Note_on_c, 9, 35, 63
4, 215148, Note_on_c, 9, 42, 0
4, 215182, Note_on_c, 9, 70, 0
4, 215202, Note_on_c, 9, 37, 0
4, 215202, Note_on_c, 9, 56, 0
4, 215234, Note_on_c, 9, 42, 44
4, 215246, Note_on_c, 9, 35, 0
4, 215248, Note_on_c, 9, 74, 0
4, 215322, Note_on_c, 9, 42, 0
4, 215382, Note_on_c, 9, 66, 0
4, 215402, Note_on_c, 9, 55, 0
4, 215424, Note_on_c, 9, 37, 96
4, 215424, Note_on_c, 9, 42, 71
4, 215424, Note_on_c, 9, 70, 100
4, 215424, Note_on_c, 9, 73, 79
4, 215424, Note_on_c, 9, 56, 63
4, 215478, Note_on_c, 9, 73, 0
4, 215492, Note_on_c, 9, 42, 0
4, 215526, Note_on_c, 9, 70, 0
4, 215574, Note_on_c, 9, 37, 0
4, 215574, Note_on_c, 9, 56, 0
4, 215616, Note_on_c, 9, 73, 75
4, 215618, Note_on_c, 9, 42, 42
4, 215618, Note_on_c, 9, 35, 48
4, 215672, Note_on_c, 9, 35, 0
4, 215672, Note_on_c, 9, 73, 0
4, 215710, Note_on_c, 9, 42, 0
4, 215806, Note_on_c, 9, 37, 96
4, 215806, Note_on_c, 9, 42, 100
4, 215806, Note_on_c, 9, 35, 68
4, 215808, Note_on_c, 9, 74, 67
4, 215808, Note_on_c, 9, 56, 72
4, 215892, Note_on_c, 9, 42, 0
4, 215936, Note_on_c, 9, 74, 0
4, 215944, Note_on_c, 9, 37, 0
4, 215946, Note_on_c, 9, 56, 0
4, 216000, Note_on_c, 9, 42, 40
4, 216000, Note_on_c, 9, 70, 91
4, 216088, Note_on_c, 9, 70, 0
4, 216132, Note_on_c, 9, 35, 0
4, 216154, Note_on_c, 9, 42, 0
4, 216192, Note_on_c, 9, 73, 73
4, 216192, Note_on_c, 9, 56, 67
4, 216194, Note_on_c, 9, 37, 96
4, 216194, Note_on_c, 9, 42, 67
4, 216244, Note_on_c, 9, 73, 0
4, 216292, Note_on_c, 9, 42, 0
4, 216314, Note_on_c, 9, 56, 0
4, 216316, Note_on_c, 9, 37, 0
4, 216384, Note_on_c, 9, 73, 75
4, 216388, Note_on_c, 9, 42, 40
4, 216388, Note_on_c, 9, 35, 73
4, 216448, Note_on_c, 9, 35, 0
4, 216448, Note_on_c, 9, 73, 0
4, 216500, Note_on_c, 9, 42, 0
4, 216576, Note_on_c, 9, 74, 71
4, 216576, Note_on_c, 9, 56, 63
4, 216582, Note_on_c, 9, 37, 96
4, 216582, Note_on_c, 9, 42, 100
4, 216582, Note_on_c, 9, 70, 100
4, 216674, Note_on_c, 9, 70, 0
4, 216686, Note_on_c, 9, 56, 0
4, 216692, Note_on_c, 9, 37, 0
4, 216696, Note_on_c, 9, 74, 0
4, 216722, Note_on_c, 9, 42, 0
4, 216772, Note_on_c, 9, 42, 40
4, 216914, Note_on_c, 9, 42, 0
4, 216960, Note_on_c, 9, 73, 73
4, 216960, Note_on_c, 9, 56, 67
4, 216962, Note_on_c, 9, 37, 96
4, 216962, Note_on_c, 9, 42, 67
4, 217010, Note_on_c, 9, 73, 0
4, 217054, Note_on_c, 9, 56, 0
4, 217056, Note_on_c, 9, 37, 0
4, 217056, Note_on_c, 9, 42, 0
4, 217152, Note_on_c, 9, 73, 75
4, 217154, Note_on_c, 9, 42, 35
4, 217154, Note_on_c, 9, 70, 100
4, 217154, Note_on_c, 9, 35, 55
4, 217208, Note_on_c, 9, 35, 0
4, 217218, Note_on_c, 9, 73, 0
4, 217244, Note_on_c, 9, 70, 0
4, 217256, Note_on_c, 9, 42, 0
4, 217344, Note_on_c, 9, 37, 96
4, 217344, Note_on_c, 9, 42, 100
4, 217344, Note_on_c, 9, 74, 64
4, 217344, Note_on_c, 9, 56, 67
4, 217344, Note_on_c, 9, 35, 68
4, 217446, Note_on_c, 9, 74, 0
4, 217476, Note_on_c, 9, 42, 0
4, 217478, Note_on_c, 9, 37, 0
4, 217478, Note_on_c, 9, 56, 0
4, 217530, Note_on_c, 9, 35, 0
4, 217540, Note_on_c, 9, 42, 42
4, 217676, Note_on_c, 9, 42, 0
4, 217728, Note_on_c, 9, 37, 96
4, 217728, Note_on_c, 9, 42, 64
4, 217728, Note_on_c, 9, 70, 91
4, 217728, Note_on_c, 9, 73, 73
4, 217728, Note_on_c, 9, 56, 63
4, 217792, Note_on_c, 9, 73, 0
4, 217816, Note_on_c, 9, 42, 0
4, 217820, Note_on_c, 9, 37, 0
4, 217820, Note_on_c, 9, 56, 0
4, 217822, Note_on_c, 9, 70, 0
4, 217916, Note_on_c, 9, 42, 44
4, 217916, Note_on_c, 9, 35, 48
4, 217920, Note_on_c, 9, 73, 69
4, 217974, Note_on_c, 9, 35, 0
4, 217998, Note_on_c, 9, 73, 0
4, 218038, Note_on_c, 9, 42, 0
4, 218112, Note_on_c, 9, 37, 96
4, 218112, Note_on_c, 9, 42, 100
4, 218112, Note_on_c, 9, 70, 98
4, 218112, Note_on_c, 9, 74, 63
4, 218112, Note_on_c, 9, 56, 67
4, 218112, Note_on_c, 9, 35, 68
4, 218198, Note_on_c, 9, 74, 0
4, 218202, Note_on_c, 9, 70, 0
4, 218202, Note_on_c, 9, 42, 0
4, 218244, Note_on_c, 9, 35, 0
4, 218246, Note_on_c, 9, 56, 0
4, 218246, Note_on_c, 9, 37, 0
4, 218306, Note_on_c, 9, 42, 36
4, 218438, Note_on_c, 9, 42, 0
4, 218496, Note_on_c, 9, 37, 96
4, 218496, Note_on_c, 9, 42, 52
4, 218496, Note_on_c, 9, 70, 100
4, 218496, Note_on_c, 9, 73, 71
4, 218496, Note_on_c, 9, 56, 63
4, 218556, Note_on_c, 9, 73, 0
4, 218580, Note_on_c, 9, 42, 0
4, 218588, Note_on_c, 9, 70, 0
4, 218638, Note_on_c, 9, 37, 0
4, 218638, Note_on_c, 9, 56, 0
4, 218688, Note_on_c, 9, 73, 73
4, 218690, Note_on_c, 9, 42, 33
4, 218690, Note_on_c, 9, 35, 58
4, 218738, Note_on_c, 9, 73, 0
4, 218778, Note_on_c, 9, 35, 0
4, 218834, Note_on_c, 9, 42, 0
4, 218878, Note_on_c, 9, 37, 96
4, 218878, Note_on_c, 9, 42, 100
4, 218878, Note_on_c, 9, 35, 68
4, 218880, Note_on_c, 9, 74, 62
4, 218880, Note_on_c, 9, 56, 63
4, 218960, Note_on_c, 9, 74, 0
4, 218974, Note_on_c, 9, 42, 0
4, 218984, Note_on_c, 9, 35, 0
4, 219022, Note_on_c, 9, 37, 0
4, 219024, Note_on_c, 9, 56, 0
4, 219072, Note_on_c, 9, 42, 44
4, 219072, Note_on_c, 9, 70, 100
4, 219158, Note_on_c, 9, 70, 0
4, 219200, Note_on_c, 9, 42, 0
4, 219264, Note_on_c, 9, 73, 66
4, 219264, Note_on_c, 9, 56, 59
4, 219266, Note_on_c, 9, 37, 96
4, 219266, Note_on_c, 9, 42, 64
4, 219336, Note_on_c, 9, 73, 0
4, 219376, Note_on_c, 9, 42, 0
4, 219384, Note_on_c, 9, 56, 0
4, 219386, Note_on_c, 9, 37, 0
4, 219456, Note_on_c, 9, 73, 71
4, 219460, Note_on_c, 9, 42, 40
4, 219460, Note_on_c, 9, 35, 77
4, 219528, Note_on_c, 9, 35, 0
4, 219528, Note_on_c, 9, 73, 0
4, 219586, Note_on_c, 9, 42, 0
4, 219648, Note_on_c, 9, 74, 73
4, 219648, Note_on_c, 9, 56, 67
4, 219654, Note_on_c, 9, 37, 96
4, 219654, Note_on_c, 9, 42, 100
4, 219654, Note_on_c, 9, 70, 91
4, 219726, Note_on_c, 9, 74, 0
4, 219754, Note_on_c, 9, 70, 0
4, 219776, Note_on_c, 9, 42, 0
4, 219790, Note_on_c, 9, 56, 0
4, 219796, Note_on_c, 9, 37, 0
4, 219844, Note_on_c, 9, 42, 32
4, 219962, Note_on_c, 9, 42, 0
4, 220032, Note_on_c, 9, 73, 73
4, 220032, Note_on_c, 9, 56, 67
4, 220034, Note_on_c, 9, 37, 96
4, 220034, Note_on_c, 9, 42, 60
4, 220092, Note_on_c, 9, 73, 0
4, 220128, Note_on_c, 9, 42, 0
4, 220154, Note_on_c, 9, 56, 0
4, 220156, Note_on_c, 9, 37, 0
4, 220224, Note_on_c, 9, 73, 75
4, 220226, Note_on_c, 9, 42, 44
4, 220226, Note_on_c, 9, 70, 100
4, 220226, Note_on_c, 9, 35, 60
4, 220280, Note_on_c, 9, 35, 0
4, 220298, Note_on_c, 9, 73, 0
4, 220318, Note_on_c, 9, 70, 0
4, 220334, Note_on_c, 9, 42, 0
4, 220416, Note_on_c, 9, 37, 96
4, 220416, Note_on_c, 9, 42, 100
4, 220416, Note_on_c, 9, 74, 63
4, 220416, Note_on_c, 9, 56, 67
4, 220416, Note_on_c, 9, 35, 70
4, 220482, Note_on_c, 9, 35, 0
4, 220494, Note_on_c, 9, 74, 0
4, 220498, Note_on_c, 9, 42, 0
4, 220536, Note_on_c, 9, 37, 0
4, 220536, Note_on_c, 9, 56, 0
4, 220612, Note_on_c, 9, 42, 44
4, 220738, Note_on_c, 9, 42, 0
4, 220800, Note_on_c, 9, 37, 96
4, 220800, Note_on_c, 9, 42, 76
4, 220800, Note_on_c, 9, 70, 100
4, 220800, Note_on_c, 9, 73, 79
4, 220800, Note_on_c, 9, 56, 67
4, 220852, Note_on_c, 9, 73, 0
4, 220892, Note_on_c, 9, 42, 0
4, 220896, Note_on_c, 9, 70, 0
4, 220916, Note_on_c, 9, 37, 0
4, 220916, Note_on_c, 9, 56, 0
4, 220988, Note_on_c, 9, 42, 40
4, 220988, Note_on_c, 9, 35, 55
4, 220992, Note_on_c, 9, 73, 79
4, 221050, Note_on_c, 9, 73, 0
4, 221062, Note_on_c, 9, 35, 0
4, 221078, Note_on_c, 9, 42, 0
4, 221184, Note_on_c, 9, 37, 96
4, 221184, Note_on_c, 9, 42, 100
4, 221184, Note_on_c, 9, 70, 100
4, 221184, Note_on_c, 9, 75, 82
4, 221184, Note_on_c, 9, 74, 71
4, 221184, Note_on_c, 9, 56, 72
4, 221184, Note_on_c, 9, 35, 63
4, 221292, Note_on_c, 9, 42, 0
4, 221298, Note_on_c, 9, 75, 0
4, 221326, Note_on_c, 9, 70, 0
4, 221346, Note_on_c, 9, 37, 0
4, 221346, Note_on_c, 9, 56, 0
4, 221378, Note_on_c, 9, 42, 44
4, 221390, Note_on_c, 9, 35, 0
4, 221392, Note_on_c, 9, 74, 0
4, 221466, Note_on_c, 9, 42, 0
4, 221568, Note_on_c, 9, 37, 96
4, 221568, Note_on_c, 9, 42, 71
4, 221568, Note_on_c, 9, 70, 100
4, 221568, Note_on_c, 9, 73, 79
4, 221568, Note_on_c, 9, 56, 63
4, 221622, Note_on_c, 9, 73, 0
4, 221636, Note_on_c, 9, 42, 0
4, 221670, Note_on_c, 9, 70, 0
4, 221718, Note_on_c, 9, 37, 0
4, 221718, Note_on_c, 9, 56, 0
4, 221760, Note_on_c, 9, 73, 75
4, 221762, Note_on_c, 9, 42, 42
4, 221762, Note_on_c, 9, 35, 48
4, 221816, Note_on_c, 9, 35, 0
4, 221816, Note_on_c, 9, 73, 0
4, 221854, Note_on_c, 9, 42, 0
4, 221950, Note_on_c, 9, 37, 96
4, 221950, Note_on_c, 9, 42, 100
4, 221950, Note_on_c, 9, 35, 68
4, 221952, Note_on_c, 9, 74, 67
4, 221952, Note_on_c, 9, 56, 72
4, 222036, Note_on_c, 9, 42, 0
4, 222080, Note_on_c, 9, 74, 0
4, 222088, Note_on_c, 9, 37, 0
4, 222090, Note_on_c, 9, 56, 0
4, 222144, Note_on_c, 9, 42, 40
4, 222144, Note_on_c, 9, 70, 91
4, 222232, Note_on_c, 9, 70, 0
4, 222276, Note_on_c, 9, 35, 0
4, 222298, Note_on_c, 9, 42, 0
4, 222336, Note_on_c, 9, 73, 73
4, 222336, Note_on_c, 9, 56, 67
4, 222338, Note_on_c, 9, 37, 96
4, 222338, Note_on_c, 9, 42, 67
4, 222388, Note_on_c, 9, 73, 0
4, 222436, Note_on_c, 9, 42, 0
4, 222458, Note_on_c, 9, 56, 0
4, 222460, Note_on_c, 9, 37, 0
4, 222528, Note_on_c, 9, 73, 75
4, 222532, Note_on_c, 9, 42, 40
4, 222532, Note_on_c, 9, 75, 64
4, 222532, Note_on_c, 9, 35, 73
4, 222570, Note_on_c, 9, 75, 0
4, 222592, Note_on_c, 9, 35, 0
4, 222592, Note_on_c, 9, 73, 0
4, 222644, Note_on_c, 9, 42, 0
4, 222720, Note_on_c, 9, 74, 71
4, 222720, Note_on_c, 9, 56, 63
4, 222726, Note_on_c, 9, 37, 96
4, 222726, Note_on_c, 9, 42, 100
4, 222726, Note_on_c, 9, 70, 100
4, 222726, Note_on_c, 9, 75, 91
4, 222800, Note_on_c, 9, 75, 0
4, 222818, Note_on_c, 9, 70, 0
4, 222830, Note_on_c, 9, 56, 0
4, 222836, Note_on_c, 9, 37, 0
4, 222840, Note_on_c, 9, 74, 0
4, 222866, Note_on_c, 9, 42, 0
4, 222916, Note_on_c, 9, 42, 40
4, 223058, Note_on_c, 9, 42, 0
4, 223104, Note_on_c, 9, 73, 73
4, 223104, Note_on_c, 9, 56, 67
4, 223106, Note_on_c, 9, 37, 96
4, 223106, Note_on_c, 9, 42, 67
4, 223154, Note_on_c, 9, 73, 0
4, 223198, Note_on_c, 9, 56, 0
4, 223200, Note_on_c, 9, 37, 0
4, 223200, Note_on_c, 9, 42, 0
4, 223296, Note_on_c, 9, 73, 75
4, 223298, Note_on_c, 9, 42, 35
4, 223298, Note_on_c, 9, 70, 100
4, 223298, Note_on_c, 9, 35, 55
4, 223352, Note_on_c, 9, 35, 0
4, 223362, Note_on_c, 9, 73, 0
4, 223388, Note_on_c, 9, 70, 0
4, 223400, Note_on_c, 9, 42, 0
4, 223488, Note_on_c, 9, 37, 96
4, 223488, Note_on_c, 9, 42, 100
4, 223488, Note_on_c, 9, 74, 64
4, 223488, Note_on_c, 9, 56, 67
4, 223488, Note_on_c, 9, 35, 68
4, 223590, Note_on_c, 9, 74, 0
4, 223620, Note_on_c, 9, 42, 0
4, 223622, Note_on_c, 9, 37, 0
4, 223622, Note_on_c, 9, 56, 0
4, 223674, Note_on_c, 9, 35, 0
4, 223684, Note_on_c, 9, 42, 42
4, 223820, Note_on_c, 9, 42, 0
4, 223872, Note_on_c, 9, 37, 96
4, 223872, Note_on_c, 9, 42, 64
4, 223872, Note_on_c, 9, 70, 91
4, 223872, Note_on_c, 9, 73, 73
4, 223872, Note_on_c, 9, 56, 63
4, 223936, Note_on_c, 9, 73, 0
4, 223960, Note_on_c, 9, 42, 0
4, 223964, Note_on_c, 9, 37, 0
4, 223964, Note_on_c, 9, 56, 0
4, 223966, Note_on_c, 9, 70, 0
4, 224060, Note_on_c, 9, 42, 44
4, 224060, Note_on_c, 9, 35, 48
4, 224064, Note_on_c, 9, 73, 69
4, 224118, Note_on_c, 9, 35, 0
4, 224142, Note_on_c, 9, 73, 0
4, 224182, Note_on_c, 9, 42, 0
4, 224256, Note_on_c, 9, 37, 96
4, 224256, Note_on_c, 9, 42, 100
4, 224256, Note_on_c, 9, 70, 98
4, 224256, Note_on_c, 9, 75, 82
4, 224256, Note_on_c, 9, 74, 63
4, 224256, Note_on_c, 9, 56, 67
4, 224256, Note_on_c, 9, 35, 68
4, 224330, Note_on_c, 9, 75, 0
4, 224342, Note_on_c, 9, 74, 0
4, 224346, Note_on_c, 9, 70, 0
4, 224346, Note_on_c, 9, 42, 0
4, 224388, Note_on_c, 9, 35, 0
4, 224390, Note_on_c, 9, 56, 0
4, 224390, Note_on_c, 9, 37, 0
4, 224450, Note_on_c, 9, 42, 36
4, 224582, Note_on_c, 9, 42, 0
4, 224640, Note_on_c, 9, 37, 96
4, 224640, Note_on_c, 9, 42, 52
4, 224640, Note_on_c, 9, 70, 100
4, 224640, Note_on_c, 9, 73, 71
4, 224640, Note_on_c, 9, 56, 63
4, 224700, Note_on_c, 9, 73, 0
4, 224724, Note_on_c, 9, 42, 0
4, 224732, Note_on_c, 9, 70, 0
4, 224782, Note_on_c, 9, 37, 0
4, 224782, Note_on_c, 9, 56, 0
4, 224832, Note_on_c, 9, 73, 73
4, 224834, Note_on_c, 9, 42, 33
4, 224834, Note_on_c, 9, 35, 58
4, 224882, Note_on_c, 9, 73, 0
4, 224922, Note_on_c, 9, 35, 0
4, 224978, Note_on_c, 9, 42, 0
4, 225022, Note_on_c, 9, 37, 96
4, 225022, Note_on_c, 9, 42, 100
4, 225022, Note_on_c, 9, 35, 68
4, 225024, Note_on_c, 9, 74, 62
4, 225024, Note_on_c, 9, 56, 63
4, 225104, Note_on_c, 9, 74, 0
4, 225118, Note_on_c, 9, 42, 0
4, 225128, Note_on_c, 9, 35, 0
4, 225166, Note_on_c, 9, 37, 0
4, 225168, Note_on_c, 9, 56, 0
4, 225216, Note_on_c, 9, 42, 44
4, 225216, Note_on_c, 9, 70, 100
4, 225302, Note_on_c, 9, 70, 0
4, 225344, Note_on_c, 9, 42, 0
4, 225408, Note_on_c, 9, 73, 66
4, 225408, Note_on_c, 9, 56, 59
4, 225410, Note_on_c, 9, 37, 96
4, 225410, Note_on_c, 9, 42, 64
4, 225480, Note_on_c, 9, 73, 0
4, 225520, Note_on_c, 9, 42, 0
4, 225528, Note_on_c, 9, 56, 0
4, 225530, Note_on_c, 9, 37, 0
4, 225600, Note_on_c, 9, 73, 71
4, 225604, Note_on_c, 9, 42, 40
4, 225604, Note_on_c, 9, 75, 73
4, 225604, Note_on_c, 9, 35, 77
4, 225662, Note_on_c, 9, 75, 0
4, 225672, Note_on_c, 9, 35, 0
4, 225672, Note_on_c, 9, 73, 0
4, 225730, Note_on_c, 9, 42, 0
4, 225792, Note_on_c, 9, 74, 73
4, 225792, Note_on_c, 9, 56, 67
4, 225798, Note_on_c, 9, 37, 96
4, 225798, Note_on_c, 9, 42, 100
4, 225798, Note_on_c, 9, 70, 91
4, 225798, Note_on_c, 9, 75, 82
4, 225870, Note_on_c, 9, 74, 0
4, 225872, Note_on_c, 9, 75, 0
4, 225898, Note_on_c, 9, 70, 0
4, 225920, Note_on_c, 9, 42, 0
4, 225934, Note_on_c, 9, 56, 0
4, 225940, Note_on_c, 9, 37, 0
4, 225988, Note_on_c, 9, 42, 32
4, 226106, Note_on_c, 9, 42, 0
4, 226176, Note_on_c, 9, 73, 73
4, 226176, Note_on_c, 9, 56, 67
4, 226178, Note_on_c, 9, 37, 96
4, 226178, Note_on_c, 9, 42, 60
4, 226236, Note_on_c, 9, 73, 0
4, 226272, Note_on_c, 9, 42, 0
4, 226298, Note_on_c, 9, 56, 0
4, 226300, Note_on_c, 9, 37, 0
4, 226368, Note_on_c, 9, 73, 75
4, 226370, Note_on_c, 9, 42, 44
4, 226370, Note_on_c, 9, 70, 100
4, 226370, Note_on_c, 9, 35, 60
4, 226424, Note_on_c, 9, 35, 0
4, 226442, Note_on_c, 9, 73, 0
4, 226462, Note_on_c, 9, 70, 0
4, 226478, Note_on_c, 9, 42, 0
4, 226560, Note_on_c, 9, 37, 96
4, 226560, Note_on_c, 9, 42, 100
4, 226560, Note_on_c, 9, 74, 63
4, 226560, Note_on_c, 9, 56, 67
4, 226560, Note_on_c, 9, 35, 70
4, 226626, Note_on_c, 9, 35, 0
4, 226638, Note_on_c, 9, 74, 0
4, 226642, Note_on_c, 9, 42, 0
4, 226680, Note_on_c, 9, 37, 0
4, 226680, Note_on_c, 9, 56, 0
4, 226756, Note_on_c, 9, 42, 44
4, 226882, Note_on_c, 9, 42, 0
4, 226944, Note_on_c, 9, 37, 96
4, 226944, Note_on_c, 9, 42, 76
4, 226944, Note_on_c, 9, 70, 100
4, 226944, Note_on_c, 9, 73, 79
4, 226944, Note_on_c, 9, 56, 67
4, 226996, Note_on_c, 9, 73, 0
4, 227036, Note_on_c, 9, 42, 0
4, 227040, Note_on_c, 9, 70, 0
4, 227060, Note_on_c, 9, 37, 0
4, 227060, Note_on_c, 9, 56, 0
4, 227132, Note_on_c, 9, 42, 40
4, 227132, Note_on_c, 9, 35, 55
4, 227136, Note_on_c, 9, 73, 79
4, 227194, Note_on_c, 9, 73, 0
4, 227206, Note_on_c, 9, 35, 0
4, 227222, Note_on_c, 9, 42, 0
4, 227328, Note_on_c, 9, 37, 96
4, 227328, Note_on_c, 9, 42, 100
4, 227328, Note_on_c, 9, 70, 100
4, 227328, Note_on_c, 9, 75, 91
4, 227328, Note_on_c, 9, 74, 71
4, 227328, Note_on_c, 9, 56, 72
4, 227328, Note_on_c, 9, 35, 63
4, 227406, Note_on_c, 9, 75, 0
4, 227436, Note_on_c, 9, 42, 0
4, 227470, Note_on_c, 9, 70, 0
4, 227490, Note_on_c, 9, 37, 0
4, 227490, Note_on_c, 9, 56, 0
4, 227522, Note_on_c, 9, 42, 44
4, 227534, Note_on_c, 9, 35, 0
4, 227536, Note_on_c, 9, 74, 0
4, 227610, Note_on_c, 9, 42, 0
4, 227712, Note_on_c, 9, 37, 96
4, 227712, Note_on_c, 9, 42, 71
4, 227712, Note_on_c, 9, 70, 100
4, 227712, Note_on_c, 9, 73, 79
4, 227712, Note_on_c, 9, 56, 63
4, 227766, Note_on_c, 9, 73, 0
4, 227780, Note_on_c, 9, 42, 0
4, 227814, Note_on_c, 9, 70, 0
4, 227862, Note_on_c, 9, 37, 0
4, 227862, Note_on_c, 9, 56, 0
4, 227904, Note_on_c, 9, 73, 75
4, 227906, Note_on_c, 9, 42, 42
4, 227906, Note_on_c, 9, 35, 48
4, 227960, Note_on_c, 9, 35, 0
4, 227960, Note_on_c, 9, 73, 0
4, 227998, Note_on_c, 9, 42, 0
4, 228094, Note_on_c, 9, 37, 96
4, 228094, Note_on_c, 9, 42, 100
4, 228094, Note_on_c, 9, 35, 68
4, 228096, Note_on_c, 9, 74, 67
4, 228096, Note_on_c, 9, 56, 72
4, 228180, Note_on_c, 9, 42, 0
4, 228224, Note_on_c, 9, 74, 0
4, 228232, Note_on_c, 9, 37, 0
4, 228234, Note_on_c, 9, 56, 0
4, 228288, Note_on_c, 9, 42, 40
4, 228288, Note_on_c, 9, 70, 91
4, 228376, Note_on_c, 9, 70, 0
4, 228420, Note_on_c, 9, 35, 0
4, 228442, Note_on_c, 9, 42, 0
4, 228480, Note_on_c, 9, 73, 73
4, 228480, Note_on_c, 9, 56, 67
4, 228482, Note_on_c, 9, 37, 96
4, 228482, Note_on_c, 9, 42, 67
4, 228532, Note_on_c, 9, 73, 0
4, 228580, Note_on_c, 9, 42, 0
4, 228602, Note_on_c, 9, 56, 0
4, 228604, Note_on_c, 9, 37, 0
4, 228672, Note_on_c, 9, 73, 75
4, 228676, Note_on_c, 9, 42, 40
4, 228676, Note_on_c, 9, 75, 73
4, 228676, Note_on_c, 9, 35, 73
4, 228728, Note_on_c, 9, 75, 0
4, 228736, Note_on_c, 9, 35, 0
4, 228736, Note_on_c, 9, 73, 0
4, 228788, Note_on_c, 9, 42, 0
4, 228864, Note_on_c, 9, 74, 71
4, 228864, Note_on_c, 9, 56, 63
4, 228870, Note_on_c, 9, 37, 96
4, 228870, Note_on_c, 9, 42, 100
4, 228870, Note_on_c, 9, 70, 100
4, 228870, Note_on_c, 9, 75, 91
4, 228956, Note_on_c, 9, 75, 0
4, 228962, Note_on_c, 9, 70, 0
4, 228974, Note_on_c, 9, 56, 0
4, 228980, Note_on_c, 9, 37, 0
4, 228984, Note_on_c, 9, 74, 0
4, 229010, Note_on_c, 9, 42, 0
4, 229060, Note_on_c, 9, 42, 40
4, 229202, Note_on_c, 9, 42, 0
4, 229248, Note_on_c, 9, 73, 73
4, 229248, Note_on_c, 9, 56, 67
4, 229250, Note_on_c, 9, 37, 96
4, 229250, Note_on_c, 9, 42, 67
4, 229298, Note_on_c, 9, 73, 0
4, 229342, Note_on_c, 9, 56, 0
4, 229344, Note_on_c, 9, 37, 0
4, 229344, Note_on_c, 9, 42, 0
4, 229440, Note_on_c, 9, 73, 75
4, 229442, Note_on_c, 9, 42, 35
4, 229442, Note_on_c, 9, 70, 100
4, 229442, Note_on_c, 9, 35, 55
4, 229496, Note_on_c, 9, 35, 0
4, 229506, Note_on_c, 9, 73, 0
4, 229532, Note_on_c, 9, 70, 0
4, 229544, Note_on_c, 9, 42, 0
4, 229632, Note_on_c, 9, 37, 96
4, 229632, Note_on_c, 9, 42, 100
4, 229632, Note_on_c, 9, 74, 64
4, 229632, Note_on_c, 9, 56, 67
4, 229632, Note_on_c, 9, 35, 68
4, 229734, Note_on_c, 9, 74, 0
4, 229764, Note_on_c, 9, 42, 0
4, 229766, Note_on_c, 9, 37, 0
4, 229766, Note_on_c, 9, 56, 0
4, 229818, Note_on_c, 9, 35, 0
4, 229828, Note_on_c, 9, 42, 42
4, 229964, Note_on_c, 9, 42, 0
4, 230016, Note_on_c, 9, 37, 96
4, 230016, Note_on_c, 9, 42, 64
4, 230016, Note_on_c, 9, 70, 91
4, 230016, Note_on_c, 9, 73, 73
4, 230016, Note_on_c, 9, 56, 63
4, 230080, Note_on_c, 9, 73, 0
4, 230104, Note_on_c, 9, 42, 0
4, 230108, Note_on_c, 9, 37, 0
4, 230108, Note_on_c, 9, 56, 0
4, 230110, Note_on_c, 9, 70, 0
4, 230204, Note_on_c, 9, 42, 44
4, 230204, Note_on_c, 9, 35, 48
4, 230208, Note_on_c, 9, 73, 69
4, 230262, Note_on_c, 9, 35, 0
4, 230286, Note_on_c, 9, 73, 0
4, 230326, Note_on_c, 9, 42, 0
4, 230400, Note_on_c, 9, 37, 96
4, 230400, Note_on_c, 9, 42, 100
4, 230400, Note_on_c, 9, 70, 98
4, 230400, Note_on_c, 9, 75, 91
4, 230400, Note_on_c, 9, 74, 63
4, 230400, Note_on_c, 9, 56, 67
4, 230400, Note_on_c, 9, 35, 68
4, 230480, Note_on_c, 9, 75, 0
4, 230486, Note_on_c, 9, 74, 0
4, 230490, Note_on_c, 9, 70, 0
4, 230490, Note_on_c, 9, 42, 0
4, 230532, Note_on_c, 9, 35, 0
4, 230534, Note_on_c, 9, 56, 0
4, 230534, Note_on_c, 9, 37, 0
4, 230594, Note_on_c, 9, 42, 36
4, 230726, Note_on_c, 9, 42, 0
4, 230784, Note_on_c, 9, 37, 96
4, 230784, Note_on_c, 9, 42, 52
4, 230784, Note_on_c, 9, 70, 100
4, 230784, Note_on_c, 9, 73, 71
4, 230784, Note_on_c, 9, 56, 63
4, 230844, Note_on_c, 9, 73, 0
4, 230868, Note_on_c, 9, 42, 0
4, 230876, Note_on_c, 9, 70, 0
4, 230926, Note_on_c, 9, 37, 0
4, 230926, Note_on_c, 9, 56, 0
4, 230976, Note_on_c, 9, 73, 73
4, 230978, Note_on_c, 9, 42, 33
4, 230978, Note_on_c, 9, 35, 58
4, 231026, Note_on_c, 9, 73, 0
4, 231066, Note_on_c, 9, 35, 0
4, 231122, Note_on_c, 9, 42, 0
4, 231166, Note_on_c, 9, 37, 96
4, 231166, Note_on_c, 9, 42, 100
4, 231166, Note_on_c, 9, 35, 68
4, 231168, Note_on_c, 9, 74, 62
4, 231168, Note_on_c, 9, 56, 63
4, 231248, Note_on_c, 9, 74, 0
4, 231262, Note_on_c, 9, 42, 0
4, 231272, Note_on_c, 9, 35, 0
4, 231310, Note_on_c, 9, 37, 0
4, 231312, Note_on_c, 9, 56, 0
4, 231360, Note_on_c, 9, 42, 44
4, 231360, Note_on_c, 9, 70, 100
4, 231446, Note_on_c, 9, 70, 0
4, 231488, Note_on_c, 9, 42, 0
4, 231552, Note_on_c, 9, 73, 66
4, 231552, Note_on_c, 9, 56, 59
4, 231554, Note_on_c, 9, 37, 96
4, 231554, Note_on_c, 9, 42, 64
4, 231624, Note_on_c, 9, 73, 0
4, 231664, Note_on_c, 9, 42, 0
4, 231672, Note_on_c, 9, 56, 0
4, 231674, Note_on_c, 9, 37, 0
4, 231744, Note_on_c, 9, 73, 71
4, 231748, Note_on_c, 9, 42, 40
4, 231748, Note_on_c, 9, 75, 64
4, 231748, Note_on_c, 9, 35, 77
4, 231806, Note_on_c, 9, 75, 0
4, 231816, Note_on_c, 9, 35, 0
4, 231816, Note_on_c, 9, 73, 0
4, 231874, Note_on_c, 9, 42, 0
4, 231936, Note_on_c, 9, 74, 73
4, 231936, Note_on_c, 9, 56, 67
4, 231942, Note_on_c, 9, 37, 96
4, 231942, Note_on_c, 9, 42, 100
4, 231942, Note_on_c, 9, 70, 91
4, 231942, Note_on_c, 9, 75, 91
4, 232014, Note_on_c, 9, 74, 0
4, 232036, Note_on_c, 9, 75, 0
4, 232042, Note_on_c, 9, 70, 0
4, 232064, Note_on_c, 9, 42, 0
4, 232078, Note_on_c, 9, 56, 0
4, 232084, Note_on_c, 9, 37, 0
4, 232132, Note_on_c, 9, 42, 32
4, 232250, Note_on_c, 9, 42, 0
4, 232320, Note_on_c, 9, 73, 73
4, 232320, Note_on_c, 9, 56, 67
4, 232322, Note_on_c, 9, 37, 96
4, 232322, Note_on_c, 9, 42, 60
4, 232380, Note_on_c, 9, 73, 0
4, 232416, Note_on_c, 9, 42, 0
4, 232442, Note_on_c, 9, 56, 0
4, 232444, Note_on_c, 9, 37, 0
4, 232512, Note_on_c, 9, 73, 75
4, 232514, Note_on_c, 9, 42, 44
4, 232514, Note_on_c, 9, 70, 100
4, 232514, Note_on_c, 9, 35, 60
4, 232568, Note_on_c, 9, 35, 0
4, 232586, Note_on_c, 9, 73, 0
4, 232606, Note_on_c, 9, 70, 0
4, 232622, Note_on_c, 9, 42, 0
4, 232704, Note_on_c, 9, 37, 96
4, 232704, Note_on_c, 9, 42, 100
4, 232704, Note_on_c, 9, 74, 63
4, 232704, Note_on_c, 9, 56, 67
4, 232704, Note_on_c, 9, 35, 70
4, 232770, Note_on_c, 9, 35, 0
4, 232782, Note_on_c, 9, 74, 0
4, 232786, Note_on_c, 9, 42, 0
4, 232824, Note_on_c, 9, 37, 0
4, 232824, Note_on_c, 9, 56, 0
4, 232900, Note_on_c, 9, 42, 44
4, 233026, Note_on_c, 9, 42, 0
4, 233088, Note_on_c, 9, 37, 96
4, 233088, Note_on_c, 9, 42, 76
4, 233088, Note_on_c, 9, 70, 100
4, 233088, Note_on_c, 9, 73, 79
4, 233088, Note_on_c, 9, 56, 67
4, 233140, Note_on_c, 9, 73, 0
4, 233180, Note_on_c, 9, 42, 0
4, 233184, Note_on_c, 9, 70, 0
4, 233204, Note_on_c, 9, 37, 0
4, 233204, Note_on_c, 9, 56, 0
4, 233276, Note_on_c, 9, 42, 40
4, 233276, Note_on_c, 9, 35, 55
4, 233280, Note_on_c, 9, 73, 79
4, 233338, Note_on_c, 9, 73, 0
4, 233350, Note_on_c, 9, 35, 0
4, 233366, Note_on_c, 9, 42, 0
4, 233472, Note_on_c, 9, 37, 96
4, 233472, Note_on_c, 9, 42, 100
4, 233472, Note_on_c, 9, 70, 100
4, 233472, Note_on_c, 9, 56, 72
4, 233472, Note_on_c, 9, 35, 63
4, 233528, Note_on_c, 9, 74, 71
4, 233580, Note_on_c, 9, 42, 0
4, 233614, Note_on_c, 9, 70, 0
4, 233634, Note_on_c, 9, 56, 0
4, 233634, Note_on_c, 9, 37, 0
4, 233666, Note_on_c, 9, 42, 44
4, 233678, Note_on_c, 9, 35, 0
4, 233736, Note_on_c, 9, 74, 0
4, 233754, Note_on_c, 9, 42, 0
4, 233856, Note_on_c, 9, 37, 96
4, 233856, Note_on_c, 9, 42, 71
4, 233856, Note_on_c, 9, 70, 100
4, 233856, Note_on_c, 9, 73, 79
4, 233856, Note_on_c, 9, 56, 63
4, 233910, Note_on_c, 9, 73, 0
4, 233924, Note_on_c, 9, 42, 0
4, 233958, Note_on_c, 9, 70, 0
4, 234006, Note_on_c, 9, 37, 0
4, 234006, Note_on_c, 9, 56, 0
4, 234048, Note_on_c, 9, 73, 75
4, 234050, Note_on_c, 9, 42, 42
4, 234050, Note_on_c, 9, 35, 48
4, 234104, Note_on_c, 9, 35, 0
4, 234104, Note_on_c, 9, 73, 0
4, 234142, Note_on_c, 9, 42, 0
4, 234238, Note_on_c, 9, 37, 96
4, 234238, Note_on_c, 9, 42, 100
4, 234238, Note_on_c, 9, 35, 68
4, 234240, Note_on_c, 9, 56, 72
4, 234296, Note_on_c, 9, 74, 67
4, 234324, Note_on_c, 9, 42, 0
4, 234376, Note_on_c, 9, 37, 0
4, 234378, Note_on_c, 9, 56, 0
4, 234424, Note_on_c, 9, 74, 0
4, 234432, Note_on_c, 9, 42, 40
4, 234432, Note_on_c, 9, 70, 91
4, 234520, Note_on_c, 9, 70, 0
4, 234564, Note_on_c, 9, 35, 0
4, 234586, Note_on_c, 9, 42, 0
4, 234624, Note_on_c, 9, 73, 73
4, 234624, Note_on_c, 9, 56, 67
4, 234626, Note_on_c, 9, 37, 96
4, 234626, Note_on_c, 9, 42, 67
4, 234676, Note_on_c, 9, 73, 0
4, 234724, Note_on_c, 9, 42, 0
4, 234746, Note_on_c, 9, 56, 0
4, 234748, Note_on_c, 9, 37, 0
4, 234816, Note_on_c, 9, 73, 75
4, 234820, Note_on_c, 9, 42, 40
4, 234820, Note_on_c, 9, 35, 73
4, 234880, Note_on_c, 9, 35, 0
4, 234880, Note_on_c, 9, 73, 0
4, 234932, Note_on_c, 9, 42, 0
4, 235008, Note_on_c, 9, 56, 63
4, 235014, Note_on_c, 9, 37, 96
4, 235014, Note_on_c, 9, 42, 100
4, 235014, Note_on_c, 9, 70, 100
4, 235064, Note_on_c, 9, 74, 71
4, 235106, Note_on_c, 9, 70, 0
4, 235118, Note_on_c, 9, 56, 0
4, 235124, Note_on_c, 9, 37, 0
4, 235154, Note_on_c, 9, 42, 0
4, 235184, Note_on_c, 9, 74, 0
4, 235204, Note_on_c, 9, 42, 40
4, 235346, Note_on_c, 9, 42, 0
4, 235392, Note_on_c, 9, 73, 73
4, 235392, Note_on_c, 9, 56, 67
4, 235394, Note_on_c, 9, 37, 96
4, 235394, Note_on_c, 9, 42, 67
4, 235442, Note_on_c, 9, 73, 0
4, 235486, Note_on_c, 9, 56, 0
4, 235488, Note_on_c, 9, 37, 0
4, 235488, Note_on_c, 9, 42, 0
4, 235584, Note_on_c, 9, 73, 75
4, 235586, Note_on_c, 9, 42, 35
4, 235586, Note_on_c, 9, 70, 100
4, 235586, Note_on_c, 9, 35, 55
4, 235640, Note_on_c, 9, 35, 0
4, 235650, Note_on_c, 9, 73, 0
4, 235676, Note_on_c, 9, 70, 0
4, 235688, Note_on_c, 9, 42, 0
4, 235776, Note_on_c, 9, 37, 96
4, 235776, Note_on_c, 9, 42, 100
4, 235776, Note_on_c, 9, 56, 67
4, 235776, Note_on_c, 9, 35, 68
4, 235832, Note_on_c, 9, 74, 64
4, 235908, Note_on_c, 9, 42, 0
4, 235910, Note_on_c, 9, 37, 0
4, 235910, Note_on_c, 9, 56, 0
4, 235934, Note_on_c, 9, 74, 0
4, 235962, Note_on_c, 9, 35, 0
4, 235972, Note_on_c, 9, 42, 42
4, 236108, Note_on_c, 9, 42, 0
4, 236160, Note_on_c, 9, 37, 96
4, 236160, Note_on_c, 9, 42, 64
4, 236160, Note_on_c, 9, 70, 91
4, 236160, Note_on_c, 9, 73, 73
4, 236160, Note_on_c, 9, 56, 63
4, 236224, Note_on_c, 9, 73, 0
4, 236248, Note_on_c, 9, 42, 0
4, 236252, Note_on_c, 9, 37, 0
4, 236252, Note_on_c, 9, 56, 0
4, 236254, Note_on_c, 9, 70, 0
4, 236348, Note_on_c, 9, 42, 44
4, 236348, Note_on_c, 9, 35, 48
4, 236352, Note_on_c, 9, 73, 69
4, 236406, Note_on_c, 9, 35, 0
4, 236430, Note_on_c, 9, 73, 0
4, 236470, Note_on_c, 9, 42, 0
4, 236544, Note_on_c, 9, 37, 96
4, 236544, Note_on_c, 9, 42, 100
4, 236544, Note_on_c, 9, 70, 98
4, 236544, Note_on_c, 9, 56, 67
4, 236544, Note_on_c, 9, 35, 68
4, 236600, Note_on_c, 9, 74, 63
4, 236634, Note_on_c, 9, 70, 0
4, 236634, Note_on_c, 9, 42, 0
4, 236676, Note_on_c, 9, 35, 0
4, 236678, Note_on_c, 9, 37, 0
4, 236678, Note_on_c, 9, 56, 0
4, 236686, Note_on_c, 9, 74, 0
4, 236738, Note_on_c, 9, 42, 36
4, 236870, Note_on_c, 9, 42, 0
4, 236928, Note_on_c, 9, 37, 96
4, 236928, Note_on_c, 9, 42, 52
4, 236928, Note_on_c, 9, 70, 100
4, 236928, Note_on_c, 9, 73, 71
4, 236928, Note_on_c, 9, 56, 63
4, 236988, Note_on_c, 9, 73, 0
4, 237012, Note_on_c, 9, 42, 0
4, 237020, Note_on_c, 9, 70, 0
4, 237070, Note_on_c, 9, 37, 0
4, 237070, Note_on_c, 9, 56, 0
4, 237120, Note_on_c, 9, 73, 73
4, 237122, Note_on_c, 9, 42, 33
4, 237122, Note_on_c, 9, 35, 58
4, 237170, Note_on_c, 9, 73, 0
4, 237210, Note_on_c, 9, 35, 0
4, 237266, Note_on_c, 9, 42, 0
4, 237310, Note_on_c, 9, 37, 96
4, 237310, Note_on_c, 9, 42, 100
4, 237310, Note_on_c, 9, 35, 68
4, 237312, Note_on_c, 9, 56, 63
4, 237368, Note_on_c, 9, 74, 62
4, 237406, Note_on_c, 9, 42, 0
4, 237416, Note_on_c, 9, 35, 0
4, 237448, Note_on_c, 9, 74, 0
4, 237454, Note_on_c, 9, 37, 0
4, 237456, Note_on_c, 9, 56, 0
4, 237504, Note_on_c, 9, 42, 44
4, 237504, Note_on_c, 9, 70, 100
4, 237590, Note_on_c, 9, 70, 0
4, 237632, Note_on_c, 9, 42, 0
4, 237696, Note_on_c, 9, 73, 66
4, 237696, Note_on_c, 9, 56, 59
4, 237698, Note_on_c, 9, 37, 96
4, 237698, Note_on_c, 9, 42, 64
4, 237768, Note_on_c, 9, 73, 0
4, 237808, Note_on_c, 9, 42, 0
4, 237816, Note_on_c, 9, 56, 0
4, 237818, Note_on_c, 9, 37, 0
4, 237888, Note_on_c, 9, 73, 71
4, 237892, Note_on_c, 9, 42, 40
4, 237892, Note_on_c, 9, 35, 77
4, 237960, Note_on_c, 9, 35, 0
4, 237960, Note_on_c, 9, 73, 0
4, 238018, Note_on_c, 9, 42, 0
4, 238080, Note_on_c, 9, 56, 67
4, 238086, Note_on_c, 9, 37, 96
4, 238086, Note_on_c, 9, 42, 100
4, 238086, Note_on_c, 9, 70, 91
4, 238136, Note_on_c, 9, 74, 73
4, 238186, Note_on_c, 9, 70, 0
4, 238208, Note_on_c, 9, 42, 0
4, 238214, Note_on_c, 9, 74, 0
4, 238222, Note_on_c, 9, 56, 0
4, 238228, Note_on_c, 9, 37, 0
4, 238276, Note_on_c, 9, 42, 32
4, 238394, Note_on_c, 9, 42, 0
4, 238464, Note_on_c, 9, 73, 73
4, 238464, Note_on_c, 9, 56, 67
4, 238466, Note_on_c, 9, 37, 96
4, 238466, Note_on_c, 9, 42, 60
4, 238524, Note_on_c, 9, 73, 0
4, 238560, Note_on_c, 9, 42, 0
4, 238586, Note_on_c, 9, 56, 0
4, 238588, Note_on_c, 9, 37, 0
4, 238656, Note_on_c, 9, 73, 75
4, 238658, Note_on_c, 9, 42, 44
4, 238658, Note_on_c, 9, 70, 100
4, 238658, Note_on_c, 9, 35, 60
4, 238712, Note_on_c, 9, 35, 0
4, 238730, Note_on_c, 9, 73, 0
4, 238750, Note_on_c, 9, 70, 0
4, 238766, Note_on_c, 9, 42, 0
4, 238848, Note_on_c, 9, 37, 96
4, 238848, Note_on_c, 9, 42, 100
4, 238848, Note_on_c, 9, 56, 67
4, 238848, Note_on_c, 9, 35, 70
4, 238904, Note_on_c, 9, 74, 63
4, 238914, Note_on_c, 9, 35, 0
4, 238930, Note_on_c, 9, 42, 0
4, 238968, Note_on_c, 9, 37, 0
4, 238968, Note_on_c, 9, 56, 0
4, 238982, Note_on_c, 9, 74, 0
4, 239044, Note_on_c, 9, 42, 44
4, 239170, Note_on_c, 9, 42, 0
4, 239232, Note_on_c, 9, 37, 96
4, 239232, Note_on_c, 9, 42, 76
4, 239232, Note_on_c, 9, 70, 100
4, 239232, Note_on_c, 9, 73, 79
4, 239232, Note_on_c, 9, 56, 67
4, 239284, Note_on_c, 9, 73, 0
4, 239324, Note_on_c, 9, 42, 0
4, 239328, Note_on_c, 9, 70, 0
4, 239348, Note_on_c, 9, 37, 0
4, 239348, Note_on_c, 9, 56, 0
4, 239420, Note_on_c, 9, 42, 40
4, 239420, Note_on_c, 9, 35, 55
4, 239424, Note_on_c, 9, 73, 79
4, 239482, Note_on_c, 9, 73, 0
4, 239494, Note_on_c, 9, 35, 0
4, 239510, Note_on_c, 9, 42, 0
4, 239616, Note_on_c, 9, 37, 96
4, 239616, Note_on_c, 9, 42, 100
4, 239616, Note_on_c, 9, 70, 100
4, 239616, Note_on_c, 9, 56, 72
4, 239616, Note_on_c, 9, 35, 63
4, 239672, Note_on_c, 9, 74, 71
4, 239724, Note_on_c, 9, 42, 0
4, 239758, Note_on_c, 9, 70, 0
4, 239778, Note_on_c, 9, 56, 0
4, 239778, Note_on_c, 9, 37, 0
4, 239810, Note_on_c, 9, 42, 44
4, 239822, Note_on_c, 9, 35, 0
4, 239880, Note_on_c, 9, 74, 0
4, 239898, Note_on_c, 9, 42, 0
4, 240000, Note_on_c, 9, 37, 96
4, 240000, Note_on_c, 9, 42, 71
4, 240000, Note_on_c, 9, 70, 100
4, 240000, Note_on_c, 9, 73, 79
4, 240000, Note_on_c, 9, 56, 63
4, 240020, Note_on_c, 9, 62, 96
4, 240054, Note_on_c, 9, 73, 0
4, 240068, Note_on_c, 9, 42, 0
4, 240102, Note_on_c, 9, 70, 0
4, 240146, Note_on_c, 9, 62, 0
4, 240150, Note_on_c, 9, 56, 0
4, 240150, Note_on_c, 9, 37, 0
4, 240192, Note_on_c, 9, 73, 75
4, 240194, Note_on_c, 9, 42, 42
4, 240194, Note_on_c, 9, 35, 48
4, 240248, Note_on_c, 9, 35, 0
4, 240248, Note_on_c, 9, 73, 0
4, 240286, Note_on_c, 9, 42, 0
4, 240382, Note_on_c, 9, 37, 96
4, 240382, Note_on_c, 9, 42, 100
4, 240382, Note_on_c, 9, 35, 68
4, 240384, Note_on_c, 9, 56, 72
4, 240440, Note_on_c, 9, 74, 67
4, 240468, Note_on_c, 9, 42, 0
4, 240520, Note_on_c, 9, 37, 0
4, 240522, Note_on_c, 9, 56, 0
4, 240568, Note_on_c, 9, 74, 0
4, 240576, Note_on_c, 9, 42, 40
4, 240576, Note_on_c, 9, 70, 91
4, 240664, Note_on_c, 9, 70, 0
4, 240708, Note_on_c, 9, 35, 0
4, 240730, Note_on_c, 9, 42, 0
4, 240768, Note_on_c, 9, 73, 73
4, 240768, Note_on_c, 9, 56, 67
4, 240770, Note_on_c, 9, 37, 96
4, 240770, Note_on_c, 9, 42, 67
4, 240780, Note_on_c, 9, 64, 65
4, 240820, Note_on_c, 9, 73, 0
4, 240862, Note_on_c, 9, 64, 0
4, 240868, Note_on_c, 9, 42, 0
4, 240890, Note_on_c, 9, 56, 0
4, 240892, Note_on_c, 9, 37, 0
4, 240960, Note_on_c, 9, 73, 75
4, 240964, Note_on_c, 9, 42, 40
4, 240964, Note_on_c, 9, 35, 73
4, 240970, Note_on_c, 9, 64, 69
4, 241024, Note_on_c, 9, 35, 0
4, 241024, Note_on_c, 9, 73, 0
4, 241064, Note_on_c, 9, 64, 0
4, 241076, Note_on_c, 9, 42, 0
4, 241152, Note_on_c, 9, 56, 63
4, 241158, Note_on_c, 9, 37, 96
4, 241158, Note_on_c, 9, 42, 100
4, 241158, Note_on_c, 9, 70, 100
4, 241208, Note_on_c, 9, 74, 71
4, 241250, Note_on_c, 9, 70, 0
4, 241262, Note_on_c, 9, 56, 0
4, 241268, Note_on_c, 9, 37, 0
4, 241298, Note_on_c, 9, 42, 0
4, 241328, Note_on_c, 9, 74, 0
4, 241348, Note_on_c, 9, 42, 40
4, 241490, Note_on_c, 9, 42, 0
4, 241536, Note_on_c, 9, 73, 73
4, 241536, Note_on_c, 9, 56, 67
4, 241538, Note_on_c, 9, 37, 96
4, 241538, Note_on_c, 9, 42, 67
4, 241548, Note_on_c, 9, 62, 92
4, 241586, Note_on_c, 9, 73, 0
4, 241630, Note_on_c, 9, 56, 0
4, 241632, Note_on_c, 9, 42, 0
4, 241632, Note_on_c, 9, 37, 0
4, 241670, Note_on_c, 9, 62, 0
4, 241728, Note_on_c, 9, 73, 75
4, 241730, Note_on_c, 9, 42, 35
4, 241730, Note_on_c, 9, 70, 100
4, 241730, Note_on_c, 9, 35, 55
4, 241784, Note_on_c, 9, 35, 0
4, 241794, Note_on_c, 9, 73, 0
4, 241820, Note_on_c, 9, 70, 0
4, 241832, Note_on_c, 9, 42, 0
4, 241920, Note_on_c, 9, 37, 96
4, 241920, Note_on_c, 9, 42, 100
4, 241920, Note_on_c, 9, 56, 67
4, 241920, Note_on_c, 9, 35, 68
4, 241976, Note_on_c, 9, 74, 64
4, 242052, Note_on_c, 9, 42, 0
4, 242054, Note_on_c, 9, 37, 0
4, 242054, Note_on_c, 9, 56, 0
4, 242078, Note_on_c, 9, 74, 0
4, 242106, Note_on_c, 9, 35, 0
4, 242116, Note_on_c, 9, 42, 42
4, 242252, Note_on_c, 9, 42, 0
4, 242286, Note_on_c, 9, 63, 65
4, 242304, Note_on_c, 9, 37, 96
4, 242304, Note_on_c, 9, 42, 64
4, 242304, Note_on_c, 9, 70, 91
4, 242304, Note_on_c, 9, 73, 73
4, 242304, Note_on_c, 9, 56, 63
4, 242368, Note_on_c, 9, 73, 0
4, 242368, Note_on_c, 9, 63, 0
4, 242392, Note_on_c, 9, 42, 0
4, 242396, Note_on_c, 9, 56, 0
4, 242396, Note_on_c, 9, 37, 0
4, 242398, Note_on_c, 9, 70, 0
4, 242482, Note_on_c, 9, 63, 77
4, 242492, Note_on_c, 9, 42, 44
4, 242492, Note_on_c, 9, 35, 48
4, 242496, Note_on_c, 9, 73, 69
4, 242550, Note_on_c, 9, 35, 0
4, 242574, Note_on_c, 9, 73, 0
4, 242602, Note_on_c, 9, 63, 0
4, 242614, Note_on_c, 9, 42, 0
4, 242688, Note_on_c, 9, 37, 96
4, 242688, Note_on_c, 9, 42, 100
4, 242688, Note_on_c, 9, 70, 98
4, 242688, Note_on_c, 9, 56, 67
4, 242688, Note_on_c, 9, 35, 68
4, 242744, Note_on_c, 9, 74, 63
4, 242778, Note_on_c, 9, 70, 0
4, 242778, Note_on_c, 9, 42, 0
4, 242820, Note_on_c, 9, 35, 0
4, 242822, Note_on_c, 9, 37, 0
4, 242822, Note_on_c, 9, 56, 0
4, 242830, Note_on_c, 9, 74, 0
4, 242882, Note_on_c, 9, 42, 36
4, 243014, Note_on_c, 9, 42, 0
4, 243072, Note_on_c, 9, 37, 96
4, 243072, Note_on_c, 9, 42, 52
4, 243072, Note_on_c, 9, 70, 100
4, 243072, Note_on_c, 9, 73, 71
4, 243072, Note_on_c, 9, 56, 63
4, 243080, Note_on_c, 9, 62, 92
4, 243132, Note_on_c, 9, 73, 0
4, 243156, Note_on_c, 9, 42, 0
4, 243164, Note_on_c, 9, 70, 0
4, 243196, Note_on_c, 9, 62, 0
4, 243214, Note_on_c, 9, 56, 0
4, 243214, Note_on_c, 9, 37, 0
4, 243264, Note_on_c, 9, 73, 73
4, 243266, Note_on_c, 9, 42, 33
4, 243266, Note_on_c, 9, 35, 58
4, 243314, Note_on_c, 9, 73, 0
4, 243354, Note_on_c, 9, 35, 0
4, 243410, Note_on_c, 9, 42, 0
4, 243454, Note_on_c, 9, 37, 96
4, 243454, Note_on_c, 9, 42, 100
4, 243454, Note_on_c, 9, 35, 68
4, 243456, Note_on_c, 9, 56, 63
4, 243512, Note_on_c, 9, 74, 62
4, 243550, Note_on_c, 9, 42, 0
4, 243560, Note_on_c, 9, 35, 0
4, 243592, Note_on_c, 9, 74, 0
4, 243598, Note_on_c, 9, 37, 0
4, 243600, Note_on_c, 9, 56, 0
4, 243648, Note_on_c, 9, 42, 44
4, 243648, Note_on_c, 9, 70, 100
4, 243734, Note_on_c, 9, 70, 0
4, 243776, Note_on_c, 9, 42, 0
4, 243838, Note_on_c, 9, 64, 73
4, 243840, Note_on_c, 9, 73, 66
4, 243840, Note_on_c, 9, 56, 59
4, 243842, Note_on_c, 9, 37, 96
4, 243842, Note_on_c, 9, 42, 64
4, 243912, Note_on_c, 9, 73, 0
4, 243918, Note_on_c, 9, 64, 0
4, 243952, Note_on_c, 9, 42, 0
4, 243960, Note_on_c, 9, 56, 0
4, 243962, Note_on_c, 9, 37, 0
4, 244032, Note_on_c, 9, 73, 71
4, 244036, Note_on_c, 9, 42, 40
4, 244036, Note_on_c, 9, 35, 77
4, 244040, Note_on_c, 9, 64, 73
4, 244104, Note_on_c, 9, 35, 0
4, 244104, Note_on_c, 9, 73, 0
4, 244152, Note_on_c, 9, 64, 0
4, 244162, Note_on_c, 9, 42, 0
4, 244224, Note_on_c, 9, 56, 67
4, 244230, Note_on_c, 9, 37, 96
4, 244230, Note_on_c, 9, 42, 100
4, 244230, Note_on_c, 9, 70, 91
4, 244280, Note_on_c, 9, 74, 73
4, 244330, Note_on_c, 9, 70, 0
4, 244352, Note_on_c, 9, 42, 0
4, 244358, Note_on_c, 9, 74, 0
4, 244366, Note_on_c, 9, 56, 0
4, 244372, Note_on_c, 9, 37, 0
4, 244420, Note_on_c, 9, 42, 32
4, 244538, Note_on_c, 9, 42, 0
4, 244608, Note_on_c, 9, 73, 73
4, 244608, Note_on_c, 9, 56, 67
4, 244610, Note_on_c, 9, 37, 96
4, 244610, Note_on_c, 9, 42, 60
4, 244620, Note_on_c, 9, 62, 94
4, 244668, Note_on_c, 9, 73, 0
4, 244704, Note_on_c, 9, 42, 0
4, 244730, Note_on_c, 9, 56, 0
4, 244732, Note_on_c, 9, 37, 0
4, 244732, Note_on_c, 9, 62, 0
4, 244800, Note_on_c, 9, 73, 75
4, 244802, Note_on_c, 9, 42, 44
4, 244802, Note_on_c, 9, 70, 100
4, 244802, Note_on_c, 9, 35, 60
4, 244856, Note_on_c, 9, 35, 0
4, 244874, Note_on_c, 9, 73, 0
4, 244894, Note_on_c, 9, 70, 0
4, 244910, Note_on_c, 9, 42, 0
4, 244992, Note_on_c, 9, 37, 96
4, 244992, Note_on_c, 9, 42, 100
4, 244992, Note_on_c, 9, 56, 67
4, 244992, Note_on_c, 9, 35, 70
4, 244994, Note_on_c, 9, 64, 58
4, 245048, Note_on_c, 9, 74, 63
4, 245058, Note_on_c, 9, 35, 0
4, 245074, Note_on_c, 9, 42, 0
4, 245076, Note_on_c, 9, 64, 0
4, 245112, Note_on_c, 9, 37, 0
4, 245112, Note_on_c, 9, 56, 0
4, 245126, Note_on_c, 9, 74, 0
4, 245188, Note_on_c, 9, 42, 44
4, 245274, Note_on_c, 9, 64, 58
4, 245314, Note_on_c, 9, 42, 0
4, 245358, Note_on_c, 9, 64, 0
4, 245376, Note_on_c, 9, 37, 96
4, 245376, Note_on_c, 9, 42, 76
4, 245376, Note_on_c, 9, 70, 100
4, 245376, Note_on_c, 9, 73, 79
4, 245376, Note_on_c, 9, 56, 67
4, 245428, Note_on_c, 9, 73, 0
4, 245468, Note_on_c, 9, 42, 0
4, 245472, Note_on_c, 9, 70, 0
4, 245492, Note_on_c, 9, 37, 0
4, 245492, Note_on_c, 9, 56, 0
4, 245536, Note_on_c, 9, 64, 58
4, 245564, Note_on_c, 9, 42, 40
4, 245564, Note_on_c, 9, 35, 55
4, 245568, Note_on_c, 9, 73, 79
4, 245626, Note_on_c, 9, 73, 0
4, 245632, Note_on_c, 9, 64, 0
4, 245638, Note_on_c, 9, 35, 0
4, 245654, Note_on_c, 9, 42, 0
4, 245760, Note_on_c, 9, 37, 96
4, 245760, Note_on_c, 9, 42, 100
4, 245760, Note_on_c, 9, 70, 100
4, 245760, Note_on_c, 9, 56, 72
4, 245760, Note_on_c, 9, 35, 63
4, 245816, Note_on_c, 9, 74, 71
4, 245868, Note_on_c, 9, 42, 0
4, 245902, Note_on_c, 9, 70, 0
4, 245922, Note_on_c, 9, 56, 0
4, 245922, Note_on_c, 9, 37, 0
4, 245954, Note_on_c, 9, 42, 44
4, 245966, Note_on_c, 9, 35, 0
4, 246024, Note_on_c, 9, 74, 0
4, 246042, Note_on_c, 9, 42, 0
4, 246144, Note_on_c, 9, 37, 96
4, 246144, Note_on_c, 9, 42, 71
4, 246144, Note_on_c, 9, 70, 100
4, 246144, Note_on_c, 9, 73, 79
4, 246144, Note_on_c, 9, 56, 63
4, 246164, Note_on_c, 9, 62, 96
4, 246198, Note_on_c, 9, 73, 0
4, 246212, Note_on_c, 9, 42, 0
4, 246246, Note_on_c, 9, 70, 0
4, 246290, Note_on_c, 9, 62, 0
4, 246294, Note_on_c, 9, 56, 0
4, 246294, Note_on_c, 9, 37, 0
4, 246336, Note_on_c, 9, 73, 75
4, 246338, Note_on_c, 9, 42, 42
4, 246338, Note_on_c, 9, 35, 48
4, 246392, Note_on_c, 9, 35, 0
4, 246392, Note_on_c, 9, 73, 0
4, 246430, Note_on_c, 9, 42, 0
4, 246526, Note_on_c, 9, 37, 96
4, 246526, Note_on_c, 9, 42, 100
4, 246526, Note_on_c, 9, 35, 68
4, 246528, Note_on_c, 9, 56, 72
4, 246584, Note_on_c, 9, 74, 67
4, 246612, Note_on_c, 9, 42, 0
4, 246664, Note_on_c, 9, 37, 0
4, 246666, Note_on_c, 9, 56, 0
4, 246712, Note_on_c, 9, 74, 0
4, 246720, Note_on_c, 9, 42, 40
4, 246720, Note_on_c, 9, 70, 91
4, 246808, Note_on_c, 9, 70, 0
4, 246852, Note_on_c, 9, 35, 0
4, 246874, Note_on_c, 9, 42, 0
4, 246912, Note_on_c, 9, 73, 73
4, 246912, Note_on_c, 9, 56, 67
4, 246914, Note_on_c, 9, 37, 96
4, 246914, Note_on_c, 9, 42, 67
4, 246924, Note_on_c, 9, 64, 65
4, 246964, Note_on_c, 9, 73, 0
4, 247006, Note_on_c, 9, 64, 0
4, 247012, Note_on_c, 9, 42, 0
4, 247034, Note_on_c, 9, 56, 0
4, 247036, Note_on_c, 9, 37, 0
4, 247104, Note_on_c, 9, 73, 75
4, 247108, Note_on_c, 9, 42, 40
4, 247108, Note_on_c, 9, 35, 73
4, 247114, Note_on_c, 9, 64, 69
4, 247168, Note_on_c, 9, 35, 0
4, 247168, Note_on_c, 9, 73, 0
4, 247208, Note_on_c, 9, 64, 0
4, 247220, Note_on_c, 9, 42, 0
4, 247296, Note_on_c, 9, 56, 63
4, 247302, Note_on_c, 9, 37, 96
4, 247302, Note_on_c, 9, 42, 100
4, 247302, Note_on_c, 9, 70, 100
4, 247352, Note_on_c, 9, 74, 71
4, 247394, Note_on_c, 9, 70, 0
4, 247406, Note_on_c, 9, 56, 0
4, 247412, Note_on_c, 9, 37, 0
4, 247442, Note_on_c, 9, 42, 0
4, 247472, Note_on_c, 9, 74, 0
4, 247492, Note_on_c, 9, 42, 40
4, 247634, Note_on_c, 9, 42, 0
4, 247680, Note_on_c, 9, 73, 73
4, 247680, Note_on_c, 9, 56, 67
4, 247682, Note_on_c, 9, 37, 96
4, 247682, Note_on_c, 9, 42, 67
4, 247692, Note_on_c, 9, 62, 92
4, 247730, Note_on_c, 9, 73, 0
4, 247774, Note_on_c, 9, 56, 0
4, 247776, Note_on_c, 9, 42, 0
4, 247776, Note_on_c, 9, 37, 0
4, 247814, Note_on_c, 9, 62, 0
4, 247872, Note_on_c, 9, 73, 75
4, 247874, Note_on_c, 9, 42, 35
4, 247874, Note_on_c, 9, 70, 100
4, 247874, Note_on_c, 9, 35, 55
4, 247928, Note_on_c, 9, 35, 0
4, 247938, Note_on_c, 9, 73, 0
4, 247964, Note_on_c, 9, 70, 0
4, 247976, Note_on_c, 9, 42, 0
4, 248064, Note_on_c, 9, 37, 96
4, 248064, Note_on_c, 9, 42, 100
4, 248064, Note_on_c, 9, 56, 67
4, 248064, Note_on_c, 9, 35, 68
4, 248120, Note_on_c, 9, 74, 64
4, 248196, Note_on_c, 9, 42, 0
4, 248198, Note_on_c, 9, 37, 0
4, 248198, Note_on_c, 9, 56, 0
4, 248222, Note_on_c, 9, 74, 0
4, 248250, Note_on_c, 9, 35, 0
4, 248260, Note_on_c, 9, 42, 42
4, 248396, Note_on_c, 9, 42, 0
4, 248430, Note_on_c, 9, 63, 65
4, 248448, Note_on_c, 9, 37, 96
4, 248448, Note_on_c, 9, 42, 64
4, 248448, Note_on_c, 9, 70, 91
4, 248448, Note_on_c, 9, 73, 73
4, 248448, Note_on_c, 9, 56, 63
4, 248512, Note_on_c, 9, 73, 0
4, 248512, Note_on_c, 9, 63, 0
4, 248536, Note_on_c, 9, 42, 0
4, 248540, Note_on_c, 9, 56, 0
4, 248540, Note_on_c, 9, 37, 0
4, 248542, Note_on_c, 9, 70, 0
4, 248626, Note_on_c, 9, 63, 77
4, 248636, Note_on_c, 9, 42, 44
4, 248636, Note_on_c, 9, 35, 48
4, 248640, Note_on_c, 9, 73, 69
4, 248694, Note_on_c, 9, 35, 0
4, 248718, Note_on_c, 9, 73, 0
4, 248746, Note_on_c, 9, 63, 0
4, 248758, Note_on_c, 9, 42, 0
4, 248832, Note_on_c, 9, 37, 96
4, 248832, Note_on_c, 9, 42, 100
4, 248832, Note_on_c, 9, 70, 98
4, 248832, Note_on_c, 9, 56, 67
4, 248832, Note_on_c, 9, 35, 68
4, 248888, Note_on_c, 9, 74, 63
4, 248922, Note_on_c, 9, 70, 0
4, 248922, Note_on_c, 9, 42, 0
4, 248964, Note_on_c, 9, 35, 0
4, 248966, Note_on_c, 9, 37, 0
4, 248966, Note_on_c, 9, 56, 0
4, 248974, Note_on_c, 9, 74, 0
4, 249026, Note_on_c, 9, 42, 36
4, 249158, Note_on_c, 9, 42, 0
4, 249216, Note_on_c, 9, 37, 96
4, 249216, Note_on_c, 9, 42, 52
4, 249216, Note_on_c, 9, 70, 100
4, 249216, Note_on_c, 9, 73, 71
4, 249216, Note_on_c, 9, 56, 63
4, 249224, Note_on_c, 9, 62, 92
4, 249276, Note_on_c, 9, 73, 0
4, 249300, Note_on_c, 9, 42, 0
4, 249308, Note_on_c, 9, 70, 0
4, 249340, Note_on_c, 9, 62, 0
4, 249358, Note_on_c, 9, 56, 0
4, 249358, Note_on_c, 9, 37, 0
4, 249408, Note_on_c, 9, 73, 73
4, 249410, Note_on_c, 9, 42, 33
4, 249410, Note_on_c, 9, 35, 58
4, 249458, Note_on_c, 9, 73, 0
4, 249498, Note_on_c, 9, 35, 0
4, 249554, Note_on_c, 9, 42, 0
4, 249598, Note_on_c, 9, 37, 96
4, 249598, Note_on_c, 9, 42, 100
4, 249598, Note_on_c, 9, 35, 68
4, 249600, Note_on_c, 9, 56, 63
4, 249656, Note_on_c, 9, 74, 62
4, 249694, Note_on_c, 9, 42, 0
4, 249704, Note_on_c, 9, 35, 0
4, 249736, Note_on_c, 9, 74, 0
4, 249742, Note_on_c, 9, 37, 0
4, 249744, Note_on_c, 9, 56, 0
4, 249792, Note_on_c, 9, 42, 44
4, 249792, Note_on_c, 9, 70, 100
4, 249878, Note_on_c, 9, 70, 0
4, 249920, Note_on_c, 9, 42, 0
4, 249982, Note_on_c, 9, 64, 73
4, 249984, Note_on_c, 9, 73, 66
4, 249984, Note_on_c, 9, 56, 59
4, 249986, Note_on_c, 9, 37, 96
4, 249986, Note_on_c, 9, 42, 64
4, 250056, Note_on_c, 9, 73, 0
4, 250062, Note_on_c, 9, 64, 0
4, 250096, Note_on_c, 9, 42, 0
4, 250104, Note_on_c, 9, 56, 0
4, 250106, Note_on_c, 9, 37, 0
4, 250176, Note_on_c, 9, 73, 71
4, 250180, Note_on_c, 9, 42, 40
4, 250180, Note_on_c, 9, 35, 77
4, 250184, Note_on_c, 9, 64, 73
4, 250248, Note_on_c, 9, 35, 0
4, 250248, Note_on_c, 9, 73, 0
4, 250296, Note_on_c, 9, 64, 0
4, 250306, Note_on_c, 9, 42, 0
4, 250368, Note_on_c, 9, 56, 67
4, 250374, Note_on_c, 9, 37, 96
4, 250374, Note_on_c, 9, 42, 100
4, 250374, Note_on_c, 9, 70, 91
4, 250424, Note_on_c, 9, 74, 73
4, 250474, Note_on_c, 9, 70, 0
4, 250496, Note_on_c, 9, 42, 0
4, 250502, Note_on_c, 9, 74, 0
4, 250510, Note_on_c, 9, 56, 0
4, 250516, Note_on_c, 9, 37, 0
4, 250564, Note_on_c, 9, 42, 32
4, 250682, Note_on_c, 9, 42, 0
4, 250752, Note_on_c, 9, 73, 73
4, 250752, Note_on_c, 9, 56, 67
4, 250754, Note_on_c, 9, 37, 96
4, 250754, Note_on_c, 9, 42, 60
4, 250764, Note_on_c, 9, 62, 94
4, 250812, Note_on_c, 9, 73, 0
4, 250848, Note_on_c, 9, 42, 0
4, 250874, Note_on_c, 9, 56, 0
4, 250876, Note_on_c, 9, 37, 0
4, 250876, Note_on_c, 9, 62, 0
4, 250944, Note_on_c, 9, 73, 75
4, 250946, Note_on_c, 9, 42, 44
4, 250946, Note_on_c, 9, 70, 100
4, 250946, Note_on_c, 9, 35, 60
4, 251000, Note_on_c, 9, 35, 0
4, 251018, Note_on_c, 9, 73, 0
4, 251038, Note_on_c, 9, 70, 0
4, 251054, Note_on_c, 9, 42, 0
4, 251136, Note_on_c, 9, 37, 96
4, 251136, Note_on_c, 9, 42, 100
4, 251136, Note_on_c, 9, 56, 67
4, 251136, Note_on_c, 9, 35, 70
4, 251138, Note_on_c, 9, 64, 58
4, 251192, Note_on_c, 9, 74, 63
4, 251202, Note_on_c, 9, 35, 0
4, 251218, Note_on_c, 9, 42, 0
4, 251220, Note_on_c, 9, 64, 0
4, 251256, Note_on_c, 9, 37, 0
4, 251256, Note_on_c, 9, 56, 0
4, 251270, Note_on_c, 9, 74, 0
4, 251332, Note_on_c, 9, 42, 44
4, 251418, Note_on_c, 9, 64, 58
4, 251458, Note_on_c, 9, 42, 0
4, 251502, Note_on_c, 9, 64, 0
4, 251520, Note_on_c, 9, 37, 96
4, 251520, Note_on_c, 9, 42, 76
4, 251520, Note_on_c, 9, 70, 100
4, 251520, Note_on_c, 9, 73, 79
4, 251520, Note_on_c, 9, 56, 67
4, 251572, Note_on_c, 9, 73, 0
4, 251612, Note_on_c, 9, 42, 0
4, 251616, Note_on_c, 9, 70, 0
4, 251636, Note_on_c, 9, 37, 0
4, 251636, Note_on_c, 9, 56, 0
4, 251680, Note_on_c, 9, 64, 58
4, 251708, Note_on_c, 9, 42, 40
4, 251708, Note_on_c, 9, 35, 55
4, 251712, Note_on_c, 9, 73, 79
4, 251770, Note_on_c, 9, 73, 0
4, 251776, Note_on_c, 9, 64, 0
4, 251782, Note_on_c, 9, 35, 0
4, 251798, Note_on_c, 9, 42, 0
4, 251904, Note_on_c, 9, 37, 96
4, 251904, Note_on_c, 9, 42, 100
4, 251904, Note_on_c, 9, 70, 100
4, 251904, Note_on_c, 9, 56, 72
4, 251904, Note_on_c, 9, 35, 63
4, 251960, Note_on_c, 9, 74, 71
4, 252012, Note_on_c, 9, 42, 0
4, 252046, Note_on_c, 9, 70, 0
4, 252066, Note_on_c, 9, 56, 0
4, 252066, Note_on_c, 9, 37, 0
4, 252098, Note_on_c, 9, 42, 44
4, 252110, Note_on_c, 9, 35, 0
4, 252168, Note_on_c, 9, 74, 0
4, 252186, Note_on_c, 9, 42, 0
4, 252288, Note_on_c, 9, 37, 96
4, 252288, Note_on_c, 9, 42, 71
4, 252288, Note_on_c, 9, 70, 100
4, 252288, Note_on_c, 9, 73, 79
4, 252288, Note_on_c, 9, 56, 63
4, 252308, Note_on_c, 9, 62, 96
4, 252342, Note_on_c, 9, 73, 0
4, 252356, Note_on_c, 9, 42, 0
4, 252390, Note_on_c, 9, 70, 0
4, 252434, Note_on_c, 9, 62, 0
4, 252438, Note_on_c, 9, 56, 0
4, 252438, Note_on_c, 9, 37, 0
4, 252480, Note_on_c, 9, 73, 75
4, 252482, Note_on_c, 9, 42, 42
4, 252482, Note_on_c, 9, 35, 48
4, 252536, Note_on_c, 9, 35, 0
4, 252536, Note_on_c, 9, 73, 0
4, 252574, Note_on_c, 9, 42, 0
4, 252670, Note_on_c, 9, 37, 96
4, 252670, Note_on_c, 9, 42, 100
4, 252670, Note_on_c, 9, 35, 68
4, 252672, Note_on_c, 9, 56, 72
4, 252728, Note_on_c, 9, 74, 67
4, 252756, Note_on_c, 9, 42, 0
4, 252808, Note_on_c, 9, 37, 0
4, 252810, Note_on_c, 9, 56, 0
4, 252856, Note_on_c, 9, 74, 0
4, 252864, Note_on_c, 9, 42, 40
4, 252864, Note_on_c, 9, 70, 91
4, 252952, Note_on_c, 9, 70, 0
4, 252996, Note_on_c, 9, 35, 0
4, 253018, Note_on_c, 9, 42, 0
4, 253056, Note_on_c, 9, 73, 73
4, 253056, Note_on_c, 9, 56, 67
4, 253058, Note_on_c, 9, 37, 96
4, 253058, Note_on_c, 9, 42, 67
4, 253068, Note_on_c, 9, 64, 65
4, 253108, Note_on_c, 9, 73, 0
4, 253150, Note_on_c, 9, 64, 0
4, 253156, Note_on_c, 9, 42, 0
4, 253178, Note_on_c, 9, 56, 0
4, 253180, Note_on_c, 9, 37, 0
4, 253248, Note_on_c, 9, 73, 75
4, 253252, Note_on_c, 9, 42, 40
4, 253252, Note_on_c, 9, 35, 73
4, 253258, Note_on_c, 9, 64, 69
4, 253312, Note_on_c, 9, 35, 0
4, 253312, Note_on_c, 9, 73, 0
4, 253352, Note_on_c, 9, 64, 0
4, 253364, Note_on_c, 9, 42, 0
4, 253440, Note_on_c, 9, 56, 63
4, 253446, Note_on_c, 9, 37, 96
4, 253446, Note_on_c, 9, 42, 100
4, 253446, Note_on_c, 9, 70, 100
4, 253496, Note_on_c, 9, 74, 71
4, 253538, Note_on_c, 9, 70, 0
4, 253550, Note_on_c, 9, 56, 0
4, 253556, Note_on_c, 9, 37, 0
4, 253586, Note_on_c, 9, 42, 0
4, 253616, Note_on_c, 9, 74, 0
4, 253636, Note_on_c, 9, 42, 40
4, 253778, Note_on_c, 9, 42, 0
4, 253824, Note_on_c, 9, 73, 73
4, 253824, Note_on_c, 9, 56, 67
4, 253826, Note_on_c, 9, 37, 96
4, 253826, Note_on_c, 9, 42, 67
4, 253836, Note_on_c, 9, 62, 92
4, 253874, Note_on_c, 9, 73, 0
4, 253918, Note_on_c, 9, 56, 0
4, 253920, Note_on_c, 9, 42, 0
4, 253920, Note_on_c, 9, 37, 0
4, 253958, Note_on_c, 9, 62, 0
4, 254016, Note_on_c, 9, 73, 75
4, 254018, Note_on_c, 9, 42, 35
4, 254018, Note_on_c, 9, 70, 100
4, 254018, Note_on_c, 9, 35, 55
4, 254072, Note_on_c, 9, 35, 0
4, 254082, Note_on_c, 9, 73, 0
4, 254108, Note_on_c, 9, 70, 0
4, 254120, Note_on_c, 9, 42, 0
4, 254208, Note_on_c, 9, 37, 96
4, 254208, Note_on_c, 9, 42, 100
4, 254208, Note_on_c, 9, 56, 67
4, 254208, Note_on_c, 9, 35, 68
4, 254264, Note_on_c, 9, 74, 64
4, 254340, Note_on_c, 9, 42, 0
4, 254342, Note_on_c, 9, 37, 0
4, 254342, Note_on_c, 9, 56, 0
4, 254366, Note_on_c, 9, 74, 0
4, 254394, Note_on_c, 9, 35, 0
4, 254404, Note_on_c, 9, 42, 42
4, 254540, Note_on_c, 9, 42, 0
4, 254574, Note_on_c, 9, 63, 65
4, 254592, Note_on_c, 9, 37, 96
4, 254592, Note_on_c, 9, 42, 64
4, 254592, Note_on_c, 9, 70, 91
4, 254592, Note_on_c, 9, 73, 73
4, 254592, Note_on_c, 9, 56, 63
4, 254656, Note_on_c, 9, 73, 0
4, 254656, Note_on_c, 9, 63, 0
4, 254680, Note_on_c, 9, 42, 0
4, 254684, Note_on_c, 9, 56, 0
4, 254684, Note_on_c, 9, 37, 0
4, 254686, Note_on_c, 9, 70, 0
4, 254770, Note_on_c, 9, 63, 77
4, 254780, Note_on_c, 9, 42, 44
4, 254780, Note_on_c, 9, 35, 48
4, 254784, Note_on_c, 9, 73, 69
4, 254838, Note_on_c, 9, 35, 0
4, 254862, Note_on_c, 9, 73, 0
4, 254890, Note_on_c, 9, 63, 0
4, 254902, Note_on_c, 9, 42, 0
4, 254976, Note_on_c, 9, 37, 96
4, 254976, Note_on_c, 9, 42, 100
4, 254976, Note_on_c, 9, 70, 98
4, 254976, Note_on_c, 9, 56, 67
4, 254976, Note_on_c, 9, 35, 68
4, 255032, Note_on_c, 9, 74, 63
4, 255066, Note_on_c, 9, 70, 0
4, 255066, Note_on_c, 9, 42, 0
4, 255108, Note_on_c, 9, 35, 0
4, 255110, Note_on_c, 9, 37, 0
4, 255110, Note_on_c, 9, 56, 0
4, 255118, Note_on_c, 9, 74, 0
4, 255170, Note_on_c, 9, 42, 36
4, 255302, Note_on_c, 9, 42, 0
4, 255360, Note_on_c, 9, 37, 96
4, 255360, Note_on_c, 9, 42, 52
4, 255360, Note_on_c, 9, 70, 100
4, 255360, Note_on_c, 9, 73, 71
4, 255360, Note_on_c, 9, 56, 63
4, 255368, Note_on_c, 9, 62, 92
4, 255420, Note_on_c, 9, 73, 0
4, 255444, Note_on_c, 9, 42, 0
4, 255452, Note_on_c, 9, 70, 0
4, 255484, Note_on_c, 9, 62, 0
4, 255502, Note_on_c, 9, 56, 0
4, 255502, Note_on_c, 9, 37, 0
4, 255552, Note_on_c, 9, 73, 73
4, 255554, Note_on_c, 9, 42, 33
4, 255554, Note_on_c, 9, 35, 58
4, 255602, Note_on_c, 9, 73, 0
4, 255642, Note_on_c, 9, 35, 0
4, 255698, Note_on_c, 9, 42, 0
4, 255742, Note_on_c, 9, 37, 96
4, 255742, Note_on_c, 9, 42, 100
4, 255742, Note_on_c, 9, 35, 68
4, 255744, Note_on_c, 9, 56, 63
4, 255800, Note_on_c, 9, 74, 62
4, 255838, Note_on_c, 9, 42, 0
4, 255848, Note_on_c, 9, 35, 0
4, 255880, Note_on_c, 9, 74, 0
4, 255886, Note_on_c, 9, 37, 0
4, 255888, Note_on_c, 9, 56, 0
4, 255936, Note_on_c, 9, 42, 44
4, 255936, Note_on_c, 9, 70, 100
4, 256022, Note_on_c, 9, 70, 0
4, 256064, Note_on_c, 9, 42, 0
4, 256126, Note_on_c, 9, 64, 73
4, 256128, Note_on_c, 9, 73, 66
4, 256128, Note_on_c, 9, 56, 59
4, 256130, Note_on_c, 9, 37, 96
4, 256130, Note_on_c, 9, 42, 64
4, 256200, Note_on_c, 9, 73, 0
4, 256206, Note_on_c, 9, 64, 0
4, 256240, Note_on_c, 9, 42, 0
4, 256248, Note_on_c, 9, 56, 0
4, 256250, Note_on_c, 9, 37, 0
4, 256320, Note_on_c, 9, 73, 71
4, 256324, Note_on_c, 9, 42, 40
4, 256324, Note_on_c, 9, 35, 77
4, 256328, Note_on_c, 9, 64, 73
4, 256392, Note_on_c, 9, 35, 0
4, 256392, Note_on_c, 9, 73, 0
4, 256440, Note_on_c, 9, 64, 0
4, 256450, Note_on_c, 9, 42, 0
4, 256512, Note_on_c, 9, 56, 67
4, 256518, Note_on_c, 9, 37, 96
4, 256518, Note_on_c, 9, 42, 100
4, 256518, Note_on_c, 9, 70, 91
4, 256568, Note_on_c, 9, 74, 73
4, 256618, Note_on_c, 9, 70, 0
4, 256640, Note_on_c, 9, 42, 0
4, 256646, Note_on_c, 9, 74, 0
4, 256654, Note_on_c, 9, 56, 0
4, 256660, Note_on_c, 9, 37, 0
4, 256708, Note_on_c, 9, 42, 32
4, 256826, Note_on_c, 9, 42, 0
4, 256896, Note_on_c, 9, 73, 73
4, 256896, Note_on_c, 9, 56, 67
4, 256898, Note_on_c, 9, 37, 96
4, 256898, Note_on_c, 9, 42, 60
4, 256908, Note_on_c, 9, 62, 94
4, 256956, Note_on_c, 9, 73, 0
4, 256992, Note_on_c, 9, 42, 0
4, 257018, Note_on_c, 9, 56, 0
4, 257020, Note_on_c, 9, 37, 0
4, 257020, Note_on_c, 9, 62, 0
4, 257088, Note_on_c, 9, 73, 75
4, 257090, Note_on_c, 9, 42, 44
4, 257090, Note_on_c, 9, 70, 100
4, 257090, Note_on_c, 9, 35, 60
4, 257144, Note_on_c, 9, 35, 0
4, 257162, Note_on_c, 9, 73, 0
4, 257182, Note_on_c, 9, 70, 0
4, 257198, Note_on_c, 9, 42, 0
4, 257280, Note_on_c, 9, 37, 96
4, 257280, Note_on_c, 9, 42, 100
4, 257280, Note_on_c, 9, 56, 67
4, 257280, Note_on_c, 9, 35, 70
4, 257282, Note_on_c, 9, 64, 58
4, 257336, Note_on_c, 9, 74, 63
4, 257346, Note_on_c, 9, 35, 0
4, 257362, Note_on_c, 9, 42, 0
4, 257364, Note_on_c, 9, 64, 0
4, 257400, Note_on_c, 9, 37, 0
4, 257400, Note_on_c, 9, 56, 0
4, 257414, Note_on_c, 9, 74, 0
4, 257476, Note_on_c, 9, 42, 44
4, 257562, Note_on_c, 9, 64, 58
4, 257602, Note_on_c, 9, 42, 0
4, 257646, Note_on_c, 9, 64, 0
4, 257664, Note_on_c, 9, 37, 96
4, 257664, Note_on_c, 9, 42, 76
4, 257664, Note_on_c, 9, 70, 100
4, 257664, Note_on_c, 9, 73, 79
4, 257664, Note_on_c, 9, 56, 67
4, 257716, Note_on_c, 9, 73, 0
4, 257756, Note_on_c, 9, 42, 0
4, 257760, Note_on_c, 9, 70, 0
4, 257780, Note_on_c, 9, 37, 0
4, 257780, Note_on_c, 9, 56, 0
4, 257824, Note_on_c, 9, 64, 58
4, 257852, Note_on_c, 9, 42, 40
4, 257852, Note_on_c, 9, 35, 55
4, 257856, Note_on_c, 9, 73, 79
4, 257914, Note_on_c, 9, 73, 0
4, 257920, Note_on_c, 9, 64, 0
4, 257926, Note_on_c, 9, 35, 0
4, 257942, Note_on_c, 9, 42, 0
4, 258048, Note_on_c, 9, 37, 96
4, 258048, Note_on_c, 9, 42, 100
4, 258048, Note_on_c, 9, 70, 100
4, 258048, Note_on_c, 9, 56, 72
4, 258048, Note_on_c, 9, 35, 63
4, 258104, Note_on_c, 9, 74, 71
4, 258156, Note_on_c, 9, 42, 0
4, 258190, Note_on_c, 9, 70, 0
4, 258210, Note_on_c, 9, 56, 0
4, 258210, Note_on_c, 9, 37, 0
4, 258242, Note_on_c, 9, 42, 44
4, 258254, Note_on_c, 9, 35, 0
4, 258312, Note_on_c, 9, 74, 0
4, 258330, Note_on_c, 9, 42, 0
4, 258432, Note_on_c, 9, 37, 96
4, 258432, Note_on_c, 9, 42, 71
4, 258432, Note_on_c, 9, 70, 100
4, 258432, Note_on_c, 9, 73, 79
4, 258432, Note_on_c, 9, 56, 63
4, 258452, Note_on_c, 9, 62, 96
4, 258486, Note_on_c, 9, 73, 0
4, 258500, Note_on_c, 9, 42, 0
4, 258534, Note_on_c, 9, 70, 0
4, 258578, Note_on_c, 9, 62, 0
4, 258582, Note_on_c, 9, 56, 0
4, 258582, Note_on_c, 9, 37, 0
4, 258624, Note_on_c, 9, 73, 75
4, 258626, Note_on_c, 9, 42, 42
4, 258626, Note_on_c, 9, 35, 48
4, 258680, Note_on_c, 9, 35, 0
4, 258680, Note_on_c, 9, 73, 0
4, 258718, Note_on_c, 9, 42, 0
4, 258814, Note_on_c, 9, 37, 96
4, 258814, Note_on_c, 9, 42, 100
4, 258814, Note_on_c, 9, 35, 68
4, 258816, Note_on_c, 9, 56, 72
4, 258872, Note_on_c, 9, 74, 67
4, 258900, Note_on_c, 9, 42, 0
4, 258952, Note_on_c, 9, 37, 0
4, 258954, Note_on_c, 9, 56, 0
4, 259000, Note_on_c, 9, 74, 0
4, 259008, Note_on_c, 9, 42, 40
4, 259008, Note_on_c, 9, 70, 91
4, 259096, Note_on_c, 9, 70, 0
4, 259140, Note_on_c, 9, 35, 0
4, 259162, Note_on_c, 9, 42, 0
4, 259200, Note_on_c, 9, 73, 73
4, 259200, Note_on_c, 9, 56, 67
4, 259202, Note_on_c, 9, 37, 96
4, 259202, Note_on_c, 9, 42, 67
4, 259212, Note_on_c, 9, 64, 65
4, 259252, Note_on_c, 9, 73, 0
4, 259294, Note_on_c, 9, 64, 0
4, 259300, Note_on_c, 9, 42, 0
4, 259322, Note_on_c, 9, 56, 0
4, 259324, Note_on_c, 9, 37, 0
4, 259392, Note_on_c, 9, 73, 75
4, 259396, Note_on_c, 9, 42, 40
4, 259396, Note_on_c, 9, 35, 73
4, 259402, Note_on_c, 9, 64, 69
4, 259456, Note_on_c, 9, 35, 0
4, 259456, Note_on_c, 9, 73, 0
4, 259496, Note_on_c, 9, 64, 0
4, 259508, Note_on_c, 9, 42, 0
4, 259584, Note_on_c, 9, 56, 63
4, 259590, Note_on_c, 9, 37, 96
4, 259590, Note_on_c, 9, 42, 100
4, 259590, Note_on_c, 9, 70, 100
4, 259640, Note_on_c, 9, 74, 71
4, 259682, Note_on_c, 9, 70, 0
4, 259694, Note_on_c, 9, 56, 0
4, 259700, Note_on_c, 9, 37, 0
4, 259730, Note_on_c, 9, 42, 0
4, 259760, Note_on_c, 9, 74, 0
4, 259780, Note_on_c, 9, 42, 40
4, 259922, Note_on_c, 9, 42, 0
4, 259968, Note_on_c, 9, 73, 73
4, 259968, Note_on_c, 9, 56, 67
4, 259970, Note_on_c, 9, 37, 96
4, 259970, Note_on_c, 9, 42, 67
4, 259980, Note_on_c, 9, 62, 92
4, 260018, Note_on_c, 9, 73, 0
4, 260062, Note_on_c, 9, 56, 0
4, 260064, Note_on_c, 9, 42, 0
4, 260064, Note_on_c, 9, 37, 0
4, 260102, Note_on_c, 9, 62, 0
4, 260160, Note_on_c, 9, 73, 75
4, 260162, Note_on_c, 9, 42, 35
4, 260162, Note_on_c, 9, 70, 100
4, 260162, Note_on_c, 9, 35, 55
4, 260216, Note_on_c, 9, 35, 0
4, 260226, Note_on_c, 9, 73, 0
4, 260252, Note_on_c, 9, 70, 0
4, 260264, Note_on_c, 9, 42, 0
4, 260352, Note_on_c, 9, 37, 96
4, 260352, Note_on_c, 9, 42, 100
4, 260352, Note_on_c, 9, 56, 67
4, 260352, Note_on_c, 9, 35, 68
4, 260408, Note_on_c, 9, 74, 64
4, 260484, Note_on_c, 9, 42, 0
4, 260486, Note_on_c, 9, 37, 0
4, 260486, Note_on_c, 9, 56, 0
4, 260510, Note_on_c, 9, 74, 0
4, 260538, Note_on_c, 9, 35, 0
4, 260548, Note_on_c, 9, 42, 42
4, 260684, Note_on_c, 9, 42, 0
4, 260718, Note_on_c, 9, 63, 65
4, 260736, Note_on_c, 9, 37, 96
4, 260736, Note_on_c, 9, 42, 64
4, 260736, Note_on_c, 9, 70, 91
4, 260736, Note_on_c, 9, 73, 73
4, 260736, Note_on_c, 9, 56, 63
4, 260800, Note_on_c, 9, 73, 0
4, 260800, Note_on_c, 9, 63, 0
4, 260824, Note_on_c, 9, 42, 0
4, 260828, Note_on_c, 9, 56, 0
4, 260828, Note_on_c, 9, 37, 0
4, 260830, Note_on_c, 9, 70, 0
4, 260914, Note_on_c, 9, 63, 77
4, 260924, Note_on_c, 9, 42, 44
4, 260924, Note_on_c, 9, 35, 48
4, 260928, Note_on_c, 9, 73, 69
4, 260982, Note_on_c, 9, 35, 0
4, 261006, Note_on_c, 9, 73, 0
4, 261034, Note_on_c, 9, 63, 0
4, 261046, Note_on_c, 9, 42, 0
4, 261120, Note_on_c, 9, 37, 90
4, 261120, Note_on_c, 9, 42, 94
4, 261120, Note_on_c, 9, 70, 92
4, 261120, Note_on_c, 9, 56, 67
4, 261120, Note_on_c, 9, 35, 63
4, 261176, Note_on_c, 9, 74, 57
4, 261210, Note_on_c, 9, 70, 0
4, 261210, Note_on_c, 9, 42, 0
4, 261252, Note_on_c, 9, 35, 0
4, 261254, Note_on_c, 9, 37, 0
4, 261254, Note_on_c, 9, 56, 0
4, 261262, Note_on_c, 9, 74, 0
4, 261314, Note_on_c, 9, 42, 30
4, 261446, Note_on_c, 9, 42, 0
4, 261504, Note_on_c, 9, 37, 90
4, 261504, Note_on_c, 9, 42, 46
4, 261504, Note_on_c, 9, 70, 94
4, 261504, Note_on_c, 9, 73, 65
4, 261504, Note_on_c, 9, 56, 63
4, 261512, Note_on_c, 9, 62, 92
4, 261564, Note_on_c, 9, 73, 0
4, 261588, Note_on_c, 9, 42, 0
4, 261596, Note_on_c, 9, 70, 0
4, 261628, Note_on_c, 9, 62, 0
4, 261646, Note_on_c, 9, 56, 0
4, 261646, Note_on_c, 9, 37, 0
4, 261696, Note_on_c, 9, 73, 67
4, 261698, Note_on_c, 9, 42, 27
4, 261698, Note_on_c, 9, 35, 54
4, 261746, Note_on_c, 9, 73, 0
4, 261786, Note_on_c, 9, 35, 0
4, 261842, Note_on_c, 9, 42, 0
4, 261886, Note_on_c, 9, 37, 90
4, 261886, Note_on_c, 9, 42, 94
4, 261886, Note_on_c, 9, 35, 63
4, 261888, Note_on_c, 9, 56, 63
4, 261944, Note_on_c, 9, 74, 56
4, 261982, Note_on_c, 9, 42, 0
4, 261992, Note_on_c, 9, 35, 0
4, 262024, Note_on_c, 9, 74, 0
4, 262030, Note_on_c, 9, 37, 0
4, 262032, Note_on_c, 9, 56, 0
4, 262080, Note_on_c, 9, 42, 38
4, 262080, Note_on_c, 9, 70, 94
4, 262166, Note_on_c, 9, 70, 0
4, 262208, Note_on_c, 9, 42, 0
4, 262270, Note_on_c, 9, 64, 73
4, 262272, Note_on_c, 9, 73, 60
4, 262272, Note_on_c, 9, 56, 59
4, 262274, Note_on_c, 9, 37, 90
4, 262274, Note_on_c, 9, 42, 58
4, 262344, Note_on_c, 9, 73, 0
4, 262350, Note_on_c, 9, 64, 0
4, 262384, Note_on_c, 9, 42, 0
4, 262392, Note_on_c, 9, 56, 0
4, 262394, Note_on_c, 9, 37, 0
4, 262464, Note_on_c, 9, 73, 65
4, 262468, Note_on_c, 9, 42, 34
4, 262468, Note_on_c, 9, 35, 72
4, 262472, Note_on_c, 9, 64, 73
4, 262536, Note_on_c, 9, 35, 0
4, 262536, Note_on_c, 9, 73, 0
4, 262584, Note_on_c, 9, 64, 0
4, 262594, Note_on_c, 9, 42, 0
4, 262656, Note_on_c, 9, 56, 67
4, 262662, Note_on_c, 9, 37, 90
4, 262662, Note_on_c, 9, 42, 94
4, 262662, Note_on_c, 9, 70, 85
4, 262712, Note_on_c, 9, 74, 67
4, 262762, Note_on_c, 9, 70, 0
4, 262784, Note_on_c, 9, 42, 0
4, 262790, Note_on_c, 9, 74, 0
4, 262798, Note_on_c, 9, 56, 0
4, 262804, Note_on_c, 9, 37, 0
4, 262852, Note_on_c, 9, 42, 26
4, 262970, Note_on_c, 9, 42, 0
4, 263040, Note_on_c, 9, 73, 67
4, 263040, Note_on_c, 9, 56, 67
4, 263042, Note_on_c, 9, 37, 90
4, 263042, Note_on_c, 9, 42, 54
4, 263052, Note_on_c, 9, 62, 94
4, 263100, Note_on_c, 9, 73, 0
4, 263136, Note_on_c, 9, 42, 0
4, 263162, Note_on_c, 9, 56, 0
4, 263164, Note_on_c, 9, 37, 0
4, 263164, Note_on_c, 9, 62, 0
4, 263232, Note_on_c, 9, 73, 69
4, 263234, Note_on_c, 9, 42, 38
4, 263234, Note_on_c, 9, 70, 94
4, 263234, Note_on_c, 9, 35, 55
4, 263288, Note_on_c, 9, 35, 0
4, 263306, Note_on_c, 9, 73, 0
4, 263326, Note_on_c, 9, 70, 0
4, 263342, Note_on_c, 9, 42, 0
4, 263424, Note_on_c, 9, 37, 90
4, 263424, Note_on_c, 9, 42, 94
4, 263424, Note_on_c, 9, 56, 67
4, 263424, Note_on_c, 9, 35, 66
4, 263426, Note_on_c, 9, 64, 58
4, 263480, Note_on_c, 9, 74, 57
4, 263490, Note_on_c, 9, 35, 0
4, 263506, Note_on_c, 9, 42, 0
4, 263508, Note_on_c, 9, 64, 0
4, 263544, Note_on_c, 9, 37, 0
4, 263544, Note_on_c, 9, 56, 0
4, 263558, Note_on_c, 9, 74, 0
4, 263620, Note_on_c, 9, 42, 38
4, 263706, Note_on_c, 9, 64, 58
4, 263746, Note_on_c, 9, 42, 0
4, 263790, Note_on_c, 9, 64, 0
4, 263808, Note_on_c, 9, 37, 90
4, 263808, Note_on_c, 9, 42, 70
4, 263808, Note_on_c, 9, 70, 94
4, 263808, Note_on_c, 9, 73, 73
4, 263808, Note_on_c, 9, 56, 67
4, 263860, Note_on_c, 9, 73, 0
4, 263900, Note_on_c, 9, 42, 0
4, 263904, Note_on_c, 9, 70, 0
4, 263924, Note_on_c, 9, 37, 0
4, 263924, Note_on_c, 9, 56, 0
4, 263968, Note_on_c, 9, 64, 58
4, 263996, Note_on_c, 9, 42, 34
4, 263996, Note_on_c, 9, 35, 51
4, 264000, Note_on_c, 9, 73, 73
4, 264058, Note_on_c, 9, 73, 0
4, 264064, Note_on_c, 9, 64, 0
4, 264070, Note_on_c, 9, 35, 0
4, 264086, Note_on_c, 9, 42, 0
4, 264192, Note_on_c, 9, 37, 90
4, 264192, Note_on_c, 9, 42, 94
4, 264192, Note_on_c, 9, 70, 94
4, 264192, Note_on_c, 9, 56, 72
4, 264192, Note_on_c, 9, 35, 59
4, 264248, Note_on_c, 9, 74, 65
4, 264300, Note_on_c, 9, 42, 0
4, 264334, Note_on_c, 9, 70, 0
4, 264354, Note_on_c, 9, 56, 0
4, 264354, Note_on_c, 9, 37, 0
4, 264386, Note_on_c, 9, 42, 38
4, 264398, Note_on_c, 9, 35, 0
4, 264456, Note_on_c, 9, 74, 0
4, 264474, Note_on_c, 9, 42, 0
4, 264576, Note_on_c, 9, 37, 90
4, 264576, Note_on_c, 9, 42, 65
4, 264576, Note_on_c, 9, 70, 94
4, 264576, Note_on_c, 9, 73, 73
4, 264576, Note_on_c, 9, 56, 63
4, 264596, Note_on_c, 9, 62, 96
4, 264630, Note_on_c, 9, 73, 0
4, 264644, Note_on_c, 9, 42, 0
4, 264678, Note_on_c, 9, 70, 0
4, 264722, Note_on_c, 9, 62, 0
4, 264726, Note_on_c, 9, 56, 0
4, 264726, Note_on_c, 9, 37, 0
4, 264768, Note_on_c, 9, 73, 69
4, 264770, Note_on_c, 9, 42, 36
4, 264770, Note_on_c, 9, 35, 43
4, 264824, Note_on_c, 9, 35, 0
4, 264824, Note_on_c, 9, 73, 0
4, 264862, Note_on_c, 9, 42, 0
4, 264958, Note_on_c, 9, 37, 90
4, 264958, Note_on_c, 9, 42, 94
4, 264958, Note_on_c, 9, 35, 63
4, 264960, Note_on_c, 9, 56, 72
4, 265016, Note_on_c, 9, 74, 61
4, 265044, Note_on_c, 9, 42, 0
4, 265096, Note_on_c, 9, 37, 0
4, 265098, Note_on_c, 9, 56, 0
4, 265144, Note_on_c, 9, 74, 0
4, 265152, Note_on_c, 9, 42, 34
4, 265152, Note_on_c, 9, 70, 85
4, 265240, Note_on_c, 9, 70, 0
4, 265284, Note_on_c, 9, 35, 0
4, 265306, Note_on_c, 9, 42, 0
4, 265344, Note_on_c, 9, 73, 67
4, 265344, Note_on_c, 9, 56, 67
4, 265346, Note_on_c, 9, 37, 90
4, 265346, Note_on_c, 9, 42, 61
4, 265356, Note_on_c, 9, 64, 65
4, 265396, Note_on_c, 9, 73, 0
4, 265438, Note_on_c, 9, 64, 0
4, 265444, Note_on_c, 9, 42, 0
4, 265466, Note_on_c, 9, 56, 0
4, 265468, Note_on_c, 9, 37, 0
4, 265536, Note_on_c, 9, 73, 69
4, 265540, Note_on_c, 9, 42, 34
4, 265540, Note_on_c, 9, 35, 69
4, 265546, Note_on_c, 9, 64, 69
4, 265600, Note_on_c, 9, 35, 0
4, 265600, Note_on_c, 9, 73, 0
4, 265640, Note_on_c, 9, 64, 0
4, 265652, Note_on_c, 9, 42, 0
4, 265728, Note_on_c, 9, 56, 63
4, 265734, Note_on_c, 9, 37, 90
4, 265734, Note_on_c, 9, 42, 94
4, 265734, Note_on_c, 9, 70, 94
4, 265784, Note_on_c, 9, 74, 65
4, 265826, Note_on_c, 9, 70, 0
4, 265838, Note_on_c, 9, 56, 0
4, 265844, Note_on_c, 9, 37, 0
4, 265874, Note_on_c, 9, 42, 0
4, 265904, Note_on_c, 9, 74, 0
4, 265924, Note_on_c, 9, 42, 34
4, 266066, Note_on_c, 9, 42, 0
4, 266112, Note_on_c, 9, 73, 67
4, 266112, Note_on_c, 9, 56, 67
4, 266114, Note_on_c, 9, 37, 90
4, 266114, Note_on_c, 9, 42, 61
4, 266124, Note_on_c, 9, 62, 92
4, 266162, Note_on_c, 9, 73, 0
4, 266206, Note_on_c, 9, 56, 0
4, 266208, Note_on_c, 9, 42, 0
4, 266208, Note_on_c, 9, 37, 0
4, 266246, Note_on_c, 9, 62, 0
4, 266304, Note_on_c, 9, 73, 69
4, 266306, Note_on_c, 9, 42, 29
4, 266306, Note_on_c, 9, 70, 94
4, 266306, Note_on_c, 9, 35, 51
4, 266360, Note_on_c, 9, 35, 0
4, 266370, Note_on_c, 9, 73, 0
4, 266396, Note_on_c, 9, 70, 0
4, 266408, Note_on_c, 9, 42, 0
4, 266496, Note_on_c, 9, 37, 90
4, 266496, Note_on_c, 9, 42, 94
4, 266496, Note_on_c, 9, 56, 67
4, 266496, Note_on_c, 9, 35, 63
4, 266552, Note_on_c, 9, 74, 58
4, 266628, Note_on_c, 9, 42, 0
4, 266630, Note_on_c, 9, 37, 0
4, 266630, Note_on_c, 9, 56, 0
4, 266654, Note_on_c, 9, 74, 0
4, 266682, Note_on_c, 9, 35, 0
4, 266692, Note_on_c, 9, 42, 36
4, 266828, Note_on_c, 9, 42, 0
4, 266862, Note_on_c, 9, 63, 65
4, 266880, Note_on_c, 9, 37, 90
4, 266880, Note_on_c, 9, 42, 58
4, 266880, Note_on_c, 9, 70, 85
4, 266880, Note_on_c, 9, 73, 67
4, 266880, Note_on_c, 9, 56, 63
4, 266944, Note_on_c, 9, 73, 0
4, 266944, Note_on_c, 9, 63, 0
4, 266968, Note_on_c, 9, 42, 0
4, 266972, Note_on_c, 9, 56, 0
4, 266972, Note_on_c, 9, 37, 0
4, 266974, Note_on_c, 9, 70, 0
4, 267058, Note_on_c, 9, 63, 77
4, 267068, Note_on_c, 9, 42, 38
4, 267068, Note_on_c, 9, 35, 44
4, 267072, Note_on_c, 9, 73, 63
4, 267126, Note_on_c, 9, 35, 0
4, 267150, Note_on_c, 9, 73, 0
4, 267178, Note_on_c, 9, 63, 0
4, 267190, Note_on_c, 9, 42, 0
4, 267264, Note_on_c, 9, 37, 96
4, 267264, Note_on_c, 9, 42, 100
4, 267264, Note_on_c, 9, 70, 100
4, 267264, Note_on_c, 9, 74, 71
4, 267264, Note_on_c, 9, 56, 72
4, 267264, Note_on_c, 9, 35, 63
4, 267372, Note_on_c, 9, 42, 0
4, 267406, Note_on_c, 9, 70, 0
4, 267426, Note_on_c, 9, 37, 0
4, 267426, Note_on_c, 9, 56, 0
4, 267458, Note_on_c, 9, 42, 44
4, 267470, Note_on_c, 9, 35, 0
4, 267472, Note_on_c, 9, 74, 0
4, 267546, Note_on_c, 9, 42, 0
4, 267648, Note_on_c, 9, 37, 96
4, 267648, Note_on_c, 9, 42, 71
4, 267648, Note_on_c, 9, 70, 100
4, 267648, Note_on_c, 9, 73, 79
4, 267648, Note_on_c, 9, 56, 63
4, 267656, Note_on_c, 9, 62, 92
4, 267702, Note_on_c, 9, 73, 0
4, 267716, Note_on_c, 9, 42, 0
4, 267750, Note_on_c, 9, 70, 0
4, 267772, Note_on_c, 9, 62, 0
4, 267798, Note_on_c, 9, 56, 0
4, 267798, Note_on_c, 9, 37, 0
4, 267840, Note_on_c, 9, 73, 75
4, 267842, Note_on_c, 9, 42, 42
4, 267842, Note_on_c, 9, 35, 48
4, 267896, Note_on_c, 9, 35, 0
4, 267896, Note_on_c, 9, 73, 0
4, 267934, Note_on_c, 9, 42, 0
4, 268030, Note_on_c, 9, 37, 96
4, 268030, Note_on_c, 9, 42, 100
4, 268030, Note_on_c, 9, 35, 68
4, 268032, Note_on_c, 9, 74, 67
4, 268032, Note_on_c, 9, 56, 72
4, 268116, Note_on_c, 9, 42, 0
4, 268160, Note_on_c, 9, 74, 0
4, 268168, Note_on_c, 9, 37, 0
4, 268170, Note_on_c, 9, 56, 0
4, 268224, Note_on_c, 9, 42, 40
4, 268224, Note_on_c, 9, 70, 91
4, 268312, Note_on_c, 9, 70, 0
4, 268356, Note_on_c, 9, 35, 0
4, 268378, Note_on_c, 9, 42, 0
4, 268414, Note_on_c, 9, 64, 73
4, 268416, Note_on_c, 9, 73, 73
4, 268416, Note_on_c, 9, 56, 67
4, 268418, Note_on_c, 9, 37, 96
4, 268418, Note_on_c, 9, 42, 67
4, 268468, Note_on_c, 9, 73, 0
4, 268494, Note_on_c, 9, 64, 0
4, 268516, Note_on_c, 9, 42, 0
4, 268538, Note_on_c, 9, 56, 0
4, 268540, Note_on_c, 9, 37, 0
4, 268608, Note_on_c, 9, 73, 75
4, 268612, Note_on_c, 9, 42, 40
4, 268612, Note_on_c, 9, 35, 73
4, 268616, Note_on_c, 9, 64, 73
4, 268672, Note_on_c, 9, 35, 0
4, 268672, Note_on_c, 9, 73, 0
4, 268724, Note_on_c, 9, 42, 0
4, 268728, Note_on_c, 9, 64, 0
4, 268800, Note_on_c, 9, 74, 71
4, 268800, Note_on_c, 9, 56, 63
4, 268806, Note_on_c, 9, 37, 96
4, 268806, Note_on_c, 9, 42, 100
4, 268806, Note_on_c, 9, 70, 100
4, 268898, Note_on_c, 9, 70, 0
4, 268910, Note_on_c, 9, 56, 0
4, 268916, Note_on_c, 9, 37, 0
4, 268920, Note_on_c, 9, 74, 0
4, 268946, Note_on_c, 9, 42, 0
4, 268996, Note_on_c, 9, 42, 40
4, 269138, Note_on_c, 9, 42, 0
4, 269184, Note_on_c, 9, 73, 73
4, 269184, Note_on_c, 9, 56, 67
4, 269186, Note_on_c, 9, 37, 96
4, 269186, Note_on_c, 9, 42, 67
4, 269196, Note_on_c, 9, 62, 94
4, 269234, Note_on_c, 9, 73, 0
4, 269278, Note_on_c, 9, 56, 0
4, 269280, Note_on_c, 9, 42, 0
4, 269280, Note_on_c, 9, 37, 0
4, 269308, Note_on_c, 9, 62, 0
4, 269376, Note_on_c, 9, 73, 75
4, 269378, Note_on_c, 9, 42, 35
4, 269378, Note_on_c, 9, 70, 100
4, 269378, Note_on_c, 9, 35, 55
4, 269432, Note_on_c, 9, 35, 0
4, 269442, Note_on_c, 9, 73, 0
4, 269468, Note_on_c, 9, 70, 0
4, 269480, Note_on_c, 9, 42, 0
4, 269568, Note_on_c, 9, 37, 96
4, 269568, Note_on_c, 9, 42, 100
4, 269568, Note_on_c, 9, 74, 64
4, 269568, Note_on_c, 9, 56, 67
4, 269568, Note_on_c, 9, 35, 68
4, 269570, Note_on_c, 9, 64, 58
4, 269652, Note_on_c, 9, 64, 0
4, 269670, Note_on_c, 9, 74, 0
4, 269700, Note_on_c, 9, 42, 0
4, 269702, Note_on_c, 9, 37, 0
4, 269702, Note_on_c, 9, 56, 0
4, 269754, Note_on_c, 9, 35, 0
4, 269764, Note_on_c, 9, 42, 42
4, 269850, Note_on_c, 9, 64, 58
4, 269900, Note_on_c, 9, 42, 0
4, 269934, Note_on_c, 9, 64, 0
4, 269952, Note_on_c, 9, 37, 96
4, 269952, Note_on_c, 9, 42, 64
4, 269952, Note_on_c, 9, 70, 91
4, 269952, Note_on_c, 9, 73, 73
4, 269952, Note_on_c, 9, 56, 63
4, 270016, Note_on_c, 9, 73, 0
4, 270040, Note_on_c, 9, 42, 0
4, 270044, Note_on_c, 9, 37, 0
4, 270044, Note_on_c, 9, 56, 0
4, 270046, Note_on_c, 9, 70, 0
4, 270112, Note_on_c, 9, 64, 58
4, 270140, Note_on_c, 9, 42, 44
4, 270140, Note_on_c, 9, 35, 48
4, 270144, Note_on_c, 9, 73, 69
4, 270198, Note_on_c, 9, 35, 0
4, 270208, Note_on_c, 9, 64, 0
4, 270222, Note_on_c, 9, 73, 0
4, 270262, Note_on_c, 9, 42, 0
4, 270336, Note_on_c, 9, 37, 96
4, 270336, Note_on_c, 9, 42, 100
4, 270336, Note_on_c, 9, 70, 98
4, 270336, Note_on_c, 9, 74, 63
4, 270336, Note_on_c, 9, 56, 67
4, 270336, Note_on_c, 9, 35, 68
4, 270422, Note_on_c, 9, 74, 0
4, 270426, Note_on_c, 9, 70, 0
4, 270426, Note_on_c, 9, 42, 0
4, 270468, Note_on_c, 9, 35, 0
4, 270470, Note_on_c, 9, 56, 0
4, 270470, Note_on_c, 9, 37, 0
4, 270530, Note_on_c, 9, 42, 36
4, 270662, Note_on_c, 9, 42, 0
4, 270720, Note_on_c, 9, 37, 96
4, 270720, Note_on_c, 9, 42, 52
4, 270720, Note_on_c, 9, 70, 100
4, 270720, Note_on_c, 9, 73, 71
4, 270720, Note_on_c, 9, 56, 63
4, 270740, Note_on_c, 9, 62, 96
4, 270780, Note_on_c, 9, 73, 0
4, 270804, Note_on_c, 9, 42, 0
4, 270812, Note_on_c, 9, 70, 0
4, 270862, Note_on_c, 9, 37, 0
4, 270862, Note_on_c, 9, 56, 0
4, 270866, Note_on_c, 9, 62, 0
4, 270912, Note_on_c, 9, 73, 73
4, 270914, Note_on_c, 9, 42, 33
4, 270914, Note_on_c, 9, 35, 58
4, 270962, Note_on_c, 9, 73, 0
4, 271002, Note_on_c, 9, 35, 0
4, 271058, Note_on_c, 9, 42, 0
4, 271102, Note_on_c, 9, 37, 96
4, 271102, Note_on_c, 9, 42, 100
4, 271102, Note_on_c, 9, 35, 68
4, 271104, Note_on_c, 9, 74, 62
4, 271104, Note_on_c, 9, 56, 63
4, 271184, Note_on_c, 9, 74, 0
4, 271198, Note_on_c, 9, 42, 0
4, 271208, Note_on_c, 9, 35, 0
4, 271246, Note_on_c, 9, 37, 0
4, 271248, Note_on_c, 9, 56, 0
4, 271296, Note_on_c, 9, 42, 44
4, 271296, Note_on_c, 9, 70, 100
4, 271382, Note_on_c, 9, 70, 0
4, 271424, Note_on_c, 9, 42, 0
4, 271488, Note_on_c, 9, 73, 66
4, 271488, Note_on_c, 9, 56, 59
4, 271490, Note_on_c, 9, 37, 96
4, 271490, Note_on_c, 9, 42, 64
4, 271500, Note_on_c, 9, 64, 65
4, 271560, Note_on_c, 9, 73, 0
4, 271582, Note_on_c, 9, 64, 0
4, 271600, Note_on_c, 9, 42, 0
4, 271608, Note_on_c, 9, 56, 0
4, 271610, Note_on_c, 9, 37, 0
4, 271680, Note_on_c, 9, 73, 71
4, 271684, Note_on_c, 9, 42, 40
4, 271684, Note_on_c, 9, 35, 77
4, 271690, Note_on_c, 9, 64, 69
4, 271752, Note_on_c, 9, 35, 0
4, 271752, Note_on_c, 9, 73, 0
4, 271784, Note_on_c, 9, 64, 0
4, 271810, Note_on_c, 9, 42, 0
4, 271872, Note_on_c, 9, 74, 73
4, 271872, Note_on_c, 9, 56, 67
4, 271878, Note_on_c, 9, 37, 96
4, 271878, Note_on_c, 9, 42, 100
4, 271878, Note_on_c, 9, 70, 91
4, 271950, Note_on_c, 9, 74, 0
4, 271978, Note_on_c, 9, 70, 0
4, 272000, Note_on_c, 9, 42, 0
4, 272014, Note_on_c, 9, 56, 0
4, 272020, Note_on_c, 9, 37, 0
4, 272068, Note_on_c, 9, 42, 32
4, 272186, Note_on_c, 9, 42, 0
4, 272256, Note_on_c, 9, 73, 73
4, 272256, Note_on_c, 9, 56, 67
4, 272258, Note_on_c, 9, 37, 96
4, 272258, Note_on_c, 9, 42, 60
4, 272268, Note_on_c, 9, 62, 92
4, 272316, Note_on_c, 9, 73, 0
4, 272352, Note_on_c, 9, 42, 0
4, 272378, Note_on_c, 9, 56, 0
4, 272380, Note_on_c, 9, 37, 0
4, 272390, Note_on_c, 9, 62, 0
4, 272448, Note_on_c, 9, 73, 75
4, 272450, Note_on_c, 9, 42, 44
4, 272450, Note_on_c, 9, 70, 100
4, 272450, Note_on_c, 9, 35, 60
4, 272504, Note_on_c, 9, 35, 0
4, 272522, Note_on_c, 9, 73, 0
4, 272542, Note_on_c, 9, 70, 0
4, 272558, Note_on_c, 9, 42, 0
4, 272640, Note_on_c, 9, 37, 96
4, 272640, Note_on_c, 9, 42, 100
4, 272640, Note_on_c, 9, 74, 63
4, 272640, Note_on_c, 9, 56, 67
4, 272640, Note_on_c, 9, 35, 70
4, 272706, Note_on_c, 9, 35, 0
4, 272718, Note_on_c, 9, 74, 0
4, 272722, Note_on_c, 9, 42, 0
4, 272760, Note_on_c, 9, 37, 0
4, 272760, Note_on_c, 9, 56, 0
4, 272836, Note_on_c, 9, 42, 44
4, 272962, Note_on_c, 9, 42, 0
4, 273006, Note_on_c, 9, 63, 65
4, 273024, Note_on_c, 9, 37, 96
4, 273024, Note_on_c, 9, 42, 76
4, 273024, Note_on_c, 9, 70, 100
4, 273024, Note_on_c, 9, 73, 79
4, 273024, Note_on_c, 9, 56, 67
4, 273076, Note_on_c, 9, 73, 0
4, 273088, Note_on_c, 9, 63, 0
4, 273116, Note_on_c, 9, 42, 0
4, 273120, Note_on_c, 9, 70, 0
4, 273140, Note_on_c, 9, 56, 0
4, 273140, Note_on_c, 9, 37, 0
4, 273202, Note_on_c, 9, 63, 77
4, 273212, Note_on_c, 9, 42, 40
4, 273212, Note_on_c, 9, 35, 55
4, 273216, Note_on_c, 9, 73, 79
4, 273274, Note_on_c, 9, 73, 0
4, 273286, Note_on_c, 9, 35, 0
4, 273302, Note_on_c, 9, 42, 0
4, 273322, Note_on_c, 9, 63, 0
4, 273408, Note_on_c, 9, 37, 96
4, 273408, Note_on_c, 9, 42, 100
4, 273408, Note_on_c, 9, 70, 100
4, 273408, Note_on_c, 9, 74, 71
4, 273408, Note_on_c, 9, 56, 72
4, 273408, Note_on_c, 9, 35, 63
4, 273516, Note_on_c, 9, 42, 0
4, 273550, Note_on_c, 9, 70, 0
4, 273570, Note_on_c, 9, 37, 0
4, 273570, Note_on_c, 9, 56, 0
4, 273602, Note_on_c, 9, 42, 44
4, 273614, Note_on_c, 9, 35, 0
4, 273616, Note_on_c, 9, 74, 0
4, 273690, Note_on_c, 9, 42, 0
4, 273792, Note_on_c, 9, 37, 96
4, 273792, Note_on_c, 9, 42, 71
4, 273792, Note_on_c, 9, 70, 100
4, 273792, Note_on_c, 9, 73, 79
4, 273792, Note_on_c, 9, 56, 63
4, 273846, Note_on_c, 9, 73, 0
4, 273860, Note_on_c, 9, 42, 0
4, 273894, Note_on_c, 9, 70, 0
4, 273942, Note_on_c, 9, 37, 0
4, 273942, Note_on_c, 9, 56, 0
4, 273984, Note_on_c, 9, 73, 75
4, 273986, Note_on_c, 9, 42, 42
4, 273986, Note_on_c, 9, 35, 48
4, 274040, Note_on_c, 9, 35, 0
4, 274040, Note_on_c, 9, 73, 0
4, 274078, Note_on_c, 9, 42, 0
4, 274174, Note_on_c, 9, 37, 96
4, 274174, Note_on_c, 9, 42, 100
4, 274174, Note_on_c, 9, 35, 68
4, 274176, Note_on_c, 9, 74, 67
4, 274176, Note_on_c, 9, 56, 72
4, 274260, Note_on_c, 9, 42, 0
4, 274304, Note_on_c, 9, 74, 0
4, 274312, Note_on_c, 9, 37, 0
4, 274314, Note_on_c, 9, 56, 0
4, 274368, Note_on_c, 9, 42, 40
4, 274368, Note_on_c, 9, 70, 91
4, 274456, Note_on_c, 9, 70, 0
4, 274500, Note_on_c, 9, 35, 0
4, 274522, Note_on_c, 9, 42, 0
4, 274560, Note_on_c, 9, 73, 73
4, 274560, Note_on_c, 9, 56, 67
4, 274562, Note_on_c, 9, 37, 96
4, 274562, Note_on_c, 9, 42, 67
4, 274612, Note_on_c, 9, 73, 0
4, 274660, Note_on_c, 9, 42, 0
4, 274682, Note_on_c, 9, 56, 0
4, 274684, Note_on_c, 9, 37, 0
4, 274752, Note_on_c, 9, 73, 75
4, 274756, Note_on_c, 9, 42, 40
4, 274756, Note_on_c, 9, 35, 73
4, 274816, Note_on_c, 9, 35, 0
4, 274816, Note_on_c, 9, 73, 0
4, 274868, Note_on_c, 9, 42, 0
4, 274944, Note_on_c, 9, 74, 71
4, 274944, Note_on_c, 9, 56, 63
4, 274950, Note_on_c, 9, 37, 96
4, 274950, Note_on_c, 9, 42, 100
4, 274950, Note_on_c, 9, 70, 100
4, 275042, Note_on_c, 9, 70, 0
4, 275054, Note_on_c, 9, 56, 0
4, 275060, Note_on_c, 9, 37, 0
4, 275064, Note_on_c, 9, 74, 0
4, 275090, Note_on_c, 9, 42, 0
4, 275140, Note_on_c, 9, 42, 40
4, 275282, Note_on_c, 9, 42, 0
4, 275328, Note_on_c, 9, 73, 73
4, 275328, Note_on_c, 9, 56, 67
4, 275330, Note_on_c, 9, 37, 96
4, 275330, Note_on_c, 9, 42, 67
4, 275378, Note_on_c, 9, 73, 0
4, 275422, Note_on_c, 9, 56, 0
4, 275424, Note_on_c, 9, 37, 0
4, 275424, Note_on_c, 9, 42, 0
4, 275520, Note_on_c, 9, 73, 75
4, 275522, Note_on_c, 9, 42, 35
4, 275522, Note_on_c, 9, 70, 100
4, 275522, Note_on_c, 9, 35, 55
4, 275576, Note_on_c, 9, 35, 0
4, 275586, Note_on_c, 9, 73, 0
4, 275612, Note_on_c, 9, 70, 0
4, 275624, Note_on_c, 9, 42, 0
4, 275712, Note_on_c, 9, 37, 96
4, 275712, Note_on_c, 9, 42, 100
4, 275712, Note_on_c, 9, 74, 64
4, 275712, Note_on_c, 9, 56, 67
4, 275712, Note_on_c, 9, 35, 68
4, 275814, Note_on_c, 9, 74, 0
4, 275844, Note_on_c, 9, 42, 0
4, 275846, Note_on_c, 9, 37, 0
4, 275846, Note_on_c, 9, 56, 0
4, 275898, Note_on_c, 9, 35, 0
4, 275908, Note_on_c, 9, 42, 42
4, 276044, Note_on_c, 9, 42, 0
4, 276096, Note_on_c, 9, 37, 96
4, 276096, Note_on_c, 9, 42, 64
4, 276096, Note_on_c, 9, 70, 91
4, 276096, Note_on_c, 9, 73, 73
4, 276096, Note_on_c, 9, 56, 63
4, 276160, Note_on_c, 9, 73, 0
4, 276184, Note_on_c, 9, 42, 0
4, 276188, Note_on_c, 9, 37, 0
4, 276188, Note_on_c, 9, 56, 0
4, 276190, Note_on_c, 9, 70, 0
4, 276284, Note_on_c, 9, 42, 44
4, 276284, Note_on_c, 9, 35, 48
4, 276288, Note_on_c, 9, 73, 69
4, 276342, Note_on_c, 9, 35, 0
4, 276366, Note_on_c, 9, 73, 0
4, 276406, Note_on_c, 9, 42, 0
4, 276480, Note_on_c, 9, 37, 96
4, 276480, Note_on_c, 9, 42, 100
4, 276480, Note_on_c, 9, 70, 98
4, 276480, Note_on_c, 9, 74, 63
4, 276480, Note_on_c, 9, 56, 67
4, 276480, Note_on_c, 9, 35, 68
4, 276566, Note_on_c, 9, 74, 0
4, 276570, Note_on_c, 9, 70, 0
4, 276570, Note_on_c, 9, 42, 0
4, 276612, Note_on_c, 9, 35, 0
4, 276614, Note_on_c, 9, 56, 0
4, 276614, Note_on_c, 9, 37, 0
4, 276674, Note_on_c, 9, 42, 36
4, 276806, Note_on_c, 9, 42, 0
4, 276864, Note_on_c, 9, 37, 96
4, 276864, Note_on_c, 9, 42, 52
4, 276864, Note_on_c, 9, 70, 100
4, 276864, Note_on_c, 9, 73, 71
4, 276864, Note_on_c, 9, 56, 63
4, 276924, Note_on_c, 9, 73, 0
4, 276948, Note_on_c, 9, 42, 0
4, 276956, Note_on_c, 9, 70, 0
4, 277006, Note_on_c, 9, 37, 0
4, 277006, Note_on_c, 9, 56, 0
4, 277056, Note_on_c, 9, 73, 73
4, 277058, Note_on_c, 9, 42, 33
4, 277058, Note_on_c, 9, 35, 58
4, 277106, Note_on_c, 9, 73, 0
4, 277146, Note_on_c, 9, 35, 0
4, 277202, Note_on_c, 9, 42, 0
4, 277246, Note_on_c, 9, 37, 96
4, 277246, Note_on_c, 9, 42, 100
4, 277246, Note_on_c, 9, 35, 68
4, 277248, Note_on_c, 9, 74, 62
4, 277248, Note_on_c, 9, 56, 63
4, 277328, Note_on_c, 9, 74, 0
4, 277342, Note_on_c, 9, 42, 0
4, 277352, Note_on_c, 9, 35, 0
4, 277390, Note_on_c, 9, 37, 0
4, 277392, Note_on_c, 9, 56, 0
4, 277440, Note_on_c, 9, 42, 44
4, 277440, Note_on_c, 9, 70, 100
4, 277526, Note_on_c, 9, 70, 0
4, 277568, Note_on_c, 9, 42, 0
4, 277632, Note_on_c, 9, 73, 66
4, 277632, Note_on_c, 9, 56, 59
4, 277634, Note_on_c, 9, 37, 96
4, 277634, Note_on_c, 9, 42, 64
4, 277704, Note_on_c, 9, 73, 0
4, 277744, Note_on_c, 9, 42, 0
4, 277752, Note_on_c, 9, 56, 0
4, 277754, Note_on_c, 9, 37, 0
4, 277824, Note_on_c, 9, 73, 71
4, 277828, Note_on_c, 9, 42, 40
4, 277828, Note_on_c, 9, 35, 77
4, 277896, Note_on_c, 9, 35, 0
4, 277896, Note_on_c, 9, 73, 0
4, 277954, Note_on_c, 9, 42, 0
4, 278016, Note_on_c, 9, 37, 96
4, 278016, Note_on_c, 9, 42, 100
4, 278016, Note_on_c, 9, 70, 98
4, 278016, Note_on_c, 9, 74, 63
4, 278016, Note_on_c, 9, 35, 68
4, 278102, Note_on_c, 9, 74, 0
4, 278106, Note_on_c, 9, 70, 0
4, 278106, Note_on_c, 9, 42, 0
4, 278148, Note_on_c, 9, 35, 0
4, 278150, Note_on_c, 9, 37, 0
4, 278210, Note_on_c, 9, 42, 36
4, 278342, Note_on_c, 9, 42, 0
4, 278400, Note_on_c, 9, 37, 96
4, 278400, Note_on_c, 9, 42, 52
4, 278400, Note_on_c, 9, 70, 100
4, 278400, Note_on_c, 9, 73, 71
4, 278460, Note_on_c, 9, 73, 0
4, 278484, Note_on_c, 9, 42, 0
4, 278492, Note_on_c, 9, 70, 0
4, 278542, Note_on_c, 9, 37, 0
4, 278592, Note_on_c, 9, 73, 73
4, 278594, Note_on_c, 9, 42, 33
4, 278594, Note_on_c, 9, 35, 58
4, 278642, Note_on_c, 9, 73, 0
4, 278682, Note_on_c, 9, 35, 0
4, 278738, Note_on_c, 9, 42, 0
4, 278782, Note_on_c, 9, 37, 96
4, 278782, Note_on_c, 9, 42, 100
4, 278782, Note_on_c, 9, 35, 68
4, 278784, Note_on_c, 9, 74, 62
4, 278864, Note_on_c, 9, 74, 0
4, 278878, Note_on_c, 9, 42, 0
4, 278888, Note_on_c, 9, 35, 0
4, 278926, Note_on_c, 9, 37, 0
4, 278976, Note_on_c, 9, 42, 44
4, 278976, Note_on_c, 9, 70, 100
4, 279062, Note_on_c, 9, 70, 0
4, 279104, Note_on_c, 9, 42, 0
4, 279158, Channel_aftertouch_c, 9, 3
4, 279168, Note_on_c, 9, 73, 66
4, 279170, Note_on_c, 9, 37, 96
4, 279170, Note_on_c, 9, 42, 64
4, 279206, Channel_aftertouch_c, 9, 3
4, 279208, Channel_aftertouch_c, 9, 2
4, 279218, Channel_aftertouch_c, 9, 4
4, 279224, Channel_aftertouch_c, 9, 5
4, 279232, Channel_aftertouch_c, 9, 4
4, 279240, Note_on_c, 9, 73, 0
4, 279242, Channel_aftertouch_c, 9, 3
4, 279266, Channel_aftertouch_c, 9, 2
4, 279280, Note_on_c, 9, 42, 0
4, 279290, Note_on_c, 9, 37, 0
4, 279360, Note_on_c, 9, 73, 71
4, 279364, Note_on_c, 9, 42, 40
4, 279364, Note_on_c, 9, 35, 77
4, 279432, Note_on_c, 9, 35, 0
4, 279432, Note_on_c, 9, 73, 0
4, 279490, Note_on_c, 9, 42, 0
4, 279552, Note_on_c, 9, 37, 96
4, 279552, Note_on_c, 9, 42, 100
4, 279552, Note_on_c, 9, 70, 100
4, 279552, Note_on_c, 9, 74, 71
4, 279552, Note_on_c, 9, 56, 72
4, 279552, Note_on_c, 9, 35, 63
4, 279614, Channel_aftertouch_c, 9, 3
4, 279630, Channel_aftertouch_c, 9, 4
4, 279636, Channel_aftertouch_c, 9, 5
4, 279646, Channel_aftertouch_c, 9, 6
4, 279648, Channel_aftertouch_c, 9, 7
4, 279656, Channel_aftertouch_c, 9, 8
4, 279660, Note_on_c, 9, 42, 0
4, 279660, Channel_aftertouch_c, 9, 9
4, 279664, Channel_aftertouch_c, 9, 10
4, 279670, Channel_aftertouch_c, 9, 11
4, 279674, Channel_aftertouch_c, 9, 12
4, 279678, Channel_aftertouch_c, 9, 13
4, 279684, Channel_aftertouch_c, 9, 14
4, 279692, Channel_aftertouch_c, 9, 15
4, 279694, Note_on_c, 9, 70, 0
4, 279702, Channel_aftertouch_c, 9, 16
4, 279708, Channel_aftertouch_c, 9, 17
4, 279714, Note_on_c, 9, 37, 0
4, 279714, Note_on_c, 9, 56, 0
4, 279738, Channel_aftertouch_c, 9, 16
4, 279744, Channel_aftertouch_c, 9, 15
4, 279746, Note_on_c, 9, 42, 44
4, 279750, Channel_aftertouch_c, 9, 14
4, 279758, Note_on_c, 9, 35, 0
4, 279758, Channel_aftertouch_c, 9, 13
4, 279760, Note_on_c, 9, 74, 0
4, 279764, Channel_aftertouch_c, 9, 11
4, 279766, Channel_aftertouch_c, 9, 10
4, 279774, Channel_aftertouch_c, 9, 9
4, 279776, Channel_aftertouch_c, 9, 7
4, 279784, Channel_aftertouch_c, 9, 6
4, 279784, Channel_aftertouch_c, 9, 5
4, 279790, Channel_aftertouch_c, 9, 4
4, 279798, Channel_aftertouch_c, 9, 3
4, 279810, Channel_aftertouch_c, 9, 2
4, 279834, Note_on_c, 9, 42, 0
4, 279936, Note_on_c, 9, 37, 96
4, 279936, Note_on_c, 9, 42, 71
4, 279936, Note_on_c, 9, 70, 100
4, 279936, Note_on_c, 9, 73, 79
4, 279936, Note_on_c, 9, 56, 63
4, 279990, Note_on_c, 9, 73, 0
4, 280004, Note_on_c, 9, 42, 0
4, 280038, Note_on_c, 9, 70, 0
4, 280086, Note_on_c, 9, 37, 0
4, 280086, Note_on_c, 9, 56, 0
4, 280128, Note_on_c, 9, 73, 75
4, 280130, Note_on_c, 9, 42, 42
4, 280130, Note_on_c, 9, 35, 55
4, 280184, Note_on_c, 9, 35, 0
4, 280184, Note_on_c, 9, 73, 0
4, 280222, Note_on_c, 9, 42, 0
4, 280318, Note_on_c, 9, 37, 96
4, 280318, Note_on_c, 9, 42, 100
4, 280320, Note_on_c, 9, 74, 67
4, 280320, Note_on_c, 9, 56, 72
4, 280320, Note_on_c, 9, 35, 68
4, 280404, Note_on_c, 9, 42, 0
4, 280448, Note_on_c, 9, 74, 0
4, 280456, Note_on_c, 9, 37, 0
4, 280458, Note_on_c, 9, 56, 0
4, 280506, Note_on_c, 9, 35, 0
4, 280512, Note_on_c, 9, 42, 40
4, 280512, Note_on_c, 9, 70, 91
4, 280600, Note_on_c, 9, 70, 0
4, 280666, Note_on_c, 9, 42, 0
4, 280704, Note_on_c, 9, 73, 73
4, 280704, Note_on_c, 9, 56, 67
4, 280706, Note_on_c, 9, 37, 96
4, 280706, Note_on_c, 9, 42, 67
4, 280756, Note_on_c, 9, 73, 0
4, 280804, Note_on_c, 9, 42, 0
4, 280826, Note_on_c, 9, 56, 0
4, 280828, Note_on_c, 9, 37, 0
4, 280892, Note_on_c, 9, 35, 48
4, 280896, Note_on_c, 9, 73, 75
4, 280900, Note_on_c, 9, 42, 40
4, 280950, Note_on_c, 9, 35, 0
4, 280960, Note_on_c, 9, 73, 0
4, 281012, Note_on_c, 9, 42, 0
4, 281088, Note_on_c, 9, 74, 71
4, 281088, Note_on_c, 9, 56, 63
4, 281088, Note_on_c, 9, 35, 68
4, 281094, Note_on_c, 9, 37, 96
4, 281094, Note_on_c, 9, 42, 100
4, 281094, Note_on_c, 9, 70, 100
4, 281186, Note_on_c, 9, 70, 0
4, 281198, Note_on_c, 9, 56, 0
4, 281204, Note_on_c, 9, 37, 0
4, 281208, Note_on_c, 9, 74, 0
4, 281220, Note_on_c, 9, 35, 0
4, 281234, Note_on_c, 9, 42, 0
4, 281284, Note_on_c, 9, 42, 40
4, 281426, Note_on_c, 9, 42, 0
4, 281472, Note_on_c, 9, 73, 73
4, 281472, Note_on_c, 9, 56, 67
4, 281474, Note_on_c, 9, 37, 96
4, 281474, Note_on_c, 9, 42, 67
4, 281522, Note_on_c, 9, 73, 0
4, 281566, Note_on_c, 9, 56, 0
4, 281568, Note_on_c, 9, 37, 0
4, 281568, Note_on_c, 9, 42, 0
4, 281664, Note_on_c, 9, 73, 75
4, 281666, Note_on_c, 9, 42, 35
4, 281666, Note_on_c, 9, 70, 100
4, 281666, Note_on_c, 9, 35, 55
4, 281720, Note_on_c, 9, 35, 0
4, 281730, Note_on_c, 9, 73, 0
4, 281756, Note_on_c, 9, 70, 0
4, 281768, Note_on_c, 9, 42, 0
4, 281856, Note_on_c, 9, 37, 96
4, 281856, Note_on_c, 9, 42, 100
4, 281856, Note_on_c, 9, 74, 64
4, 281856, Note_on_c, 9, 56, 67
4, 281856, Note_on_c, 9, 35, 68
4, 281958, Note_on_c, 9, 74, 0
4, 281988, Note_on_c, 9, 42, 0
4, 281990, Note_on_c, 9, 37, 0
4, 281990, Note_on_c, 9, 56, 0
4, 282042, Note_on_c, 9, 35, 0
4, 282052, Note_on_c, 9, 42, 42
4, 282188, Note_on_c, 9, 42, 0
4, 282240, Note_on_c, 9, 37, 96
4, 282240, Note_on_c, 9, 42, 64
4, 282240, Note_on_c, 9, 70, 91
4, 282240, Note_on_c, 9, 73, 73
4, 282240, Note_on_c, 9, 56, 63
4, 282304, Note_on_c, 9, 73, 0
4, 282328, Note_on_c, 9, 42, 0
4, 282332, Note_on_c, 9, 37, 0
4, 282332, Note_on_c, 9, 56, 0
4, 282334, Note_on_c, 9, 70, 0
4, 282428, Note_on_c, 9, 42, 44
4, 282428, Note_on_c, 9, 35, 48
4, 282432, Note_on_c, 9, 73, 69
4, 282486, Note_on_c, 9, 35, 0
4, 282510, Note_on_c, 9, 73, 0
4, 282550, Note_on_c, 9, 42, 0
4, 282624, Note_on_c, 9, 37, 96
4, 282624, Note_on_c, 9, 42, 100
4, 282624, Note_on_c, 9, 70, 98
4, 282624, Note_on_c, 9, 74, 63
4, 282624, Note_on_c, 9, 56, 67
4, 282624, Note_on_c, 9, 35, 68
4, 282710, Note_on_c, 9, 74, 0
4, 282714, Note_on_c, 9, 70, 0
4, 282714, Note_on_c, 9, 42, 0
4, 282756, Note_on_c, 9, 35, 0
4, 282758, Note_on_c, 9, 56, 0
4, 282758, Note_on_c, 9, 37, 0
4, 282818, Note_on_c, 9, 42, 36
4, 282950, Note_on_c, 9, 42, 0
4, 283008, Note_on_c, 9, 37, 96
4, 283008, Note_on_c, 9, 42, 52
4, 283008, Note_on_c, 9, 70, 100
4, 283008, Note_on_c, 9, 73, 71
4, 283008, Note_on_c, 9, 56, 63
4, 283068, Note_on_c, 9, 73, 0
4, 283092, Note_on_c, 9, 42, 0
4, 283100, Note_on_c, 9, 70, 0
4, 283150, Note_on_c, 9, 37, 0
4, 283150, Note_on_c, 9, 56, 0
4, 283200, Note_on_c, 9, 73, 73
4, 283202, Note_on_c, 9, 42, 33
4, 283202, Note_on_c, 9, 35, 55
4, 283250, Note_on_c, 9, 73, 0
4, 283256, Note_on_c, 9, 35, 0
4, 283346, Note_on_c, 9, 42, 0
4, 283390, Note_on_c, 9, 37, 96
4, 283390, Note_on_c, 9, 42, 100
4, 283392, Note_on_c, 9, 74, 62
4, 283392, Note_on_c, 9, 56, 63
4, 283392, Note_on_c, 9, 35, 68
4, 283472, Note_on_c, 9, 74, 0
4, 283486, Note_on_c, 9, 42, 0
4, 283534, Note_on_c, 9, 37, 0
4, 283536, Note_on_c, 9, 56, 0
4, 283578, Note_on_c, 9, 35, 0
4, 283584, Note_on_c, 9, 42, 44
4, 283584, Note_on_c, 9, 70, 100
4, 283670, Note_on_c, 9, 70, 0
4, 283712, Note_on_c, 9, 42, 0
4, 283776, Note_on_c, 9, 73, 66
4, 283776, Note_on_c, 9, 56, 59
4, 283778, Note_on_c, 9, 37, 96
4, 283778, Note_on_c, 9, 42, 64
4, 283848, Note_on_c, 9, 73, 0
4, 283888, Note_on_c, 9, 42, 0
4, 283896, Note_on_c, 9, 56, 0
4, 283898, Note_on_c, 9, 37, 0
4, 283964, Note_on_c, 9, 35, 48
4, 283968, Note_on_c, 9, 73, 71
4, 283972, Note_on_c, 9, 42, 40
4, 284022, Note_on_c, 9, 35, 0
4, 284040, Note_on_c, 9, 73, 0
4, 284098, Note_on_c, 9, 42, 0
4, 284160, Note_on_c, 9, 74, 73
4, 284160, Note_on_c, 9, 56, 67
4, 284160, Note_on_c, 9, 35, 68
4, 284166, Note_on_c, 9, 37, 96
4, 284166, Note_on_c, 9, 42, 100
4, 284166, Note_on_c, 9, 70, 91
4, 284238, Note_on_c, 9, 74, 0
4, 284266, Note_on_c, 9, 70, 0
4, 284288, Note_on_c, 9, 42, 0
4, 284292, Note_on_c, 9, 35, 0
4, 284302, Note_on_c, 9, 56, 0
4, 284308, Note_on_c, 9, 37, 0
4, 284352, Note_on_c, 9, 65, 67
4, 284356, Note_on_c, 9, 42, 32
4, 284410, Note_on_c, 9, 65, 0
4, 284474, Note_on_c, 9, 42, 0
4, 284544, Note_on_c, 9, 65, 82
4, 284544, Note_on_c, 9, 73, 73
4, 284544, Note_on_c, 9, 56, 67
4, 284546, Note_on_c, 9, 37, 96
4, 284546, Note_on_c, 9, 42, 60
4, 284604, Note_on_c, 9, 73, 0
4, 284608, Note_on_c, 9, 65, 0
4, 284640, Note_on_c, 9, 42, 0
4, 284666, Note_on_c, 9, 56, 0
4, 284668, Note_on_c, 9, 37, 0
4, 284736, Note_on_c, 9, 55, 84
4, 284736, Note_on_c, 9, 73, 75
4, 284736, Note_on_c, 9, 65, 85
4, 284738, Note_on_c, 9, 42, 44
4, 284738, Note_on_c, 9, 70, 100
4, 284738, Note_on_c, 9, 35, 67
4, 284788, Note_on_c, 9, 65, 0
4, 284792, Note_on_c, 9, 35, 0
4, 284810, Note_on_c, 9, 55, 0
4, 284810, Note_on_c, 9, 73, 0
4, 284830, Note_on_c, 9, 70, 0
4, 284846, Note_on_c, 9, 42, 0
4, 284928, Note_on_c, 9, 37, 96
4, 284928, Note_on_c, 9, 42, 100
4, 284928, Note_on_c, 9, 74, 63
4, 284928, Note_on_c, 9, 56, 67
4, 285006, Note_on_c, 9, 74, 0
4, 285010, Note_on_c, 9, 42, 0
4, 285048, Note_on_c, 9, 37, 0
4, 285048, Note_on_c, 9, 56, 0
4, 285124, Note_on_c, 9, 42, 44
4, 285250, Note_on_c, 9, 42, 0
4, 285312, Note_on_c, 9, 37, 96
4, 285312, Note_on_c, 9, 42, 76
4, 285312, Note_on_c, 9, 70, 100
4, 285312, Note_on_c, 9, 73, 79
4, 285312, Note_on_c, 9, 56, 67
4, 285364, Note_on_c, 9, 73, 0
4, 285404, Note_on_c, 9, 42, 0
4, 285408, Note_on_c, 9, 70, 0
4, 285428, Note_on_c, 9, 37, 0
4, 285428, Note_on_c, 9, 56, 0
4, 285500, Note_on_c, 9, 42, 40
4, 285504, Note_on_c, 9, 73, 79
4, 285562, Note_on_c, 9, 73, 0
4, 285590, Note_on_c, 9, 42, 0
4, 285696, Note_on_c, 9, 37, 96
4, 285696, Note_on_c, 9, 42, 100
4, 285696, Note_on_c, 9, 70, 100
4, 285696, Note_on_c, 9, 74, 71
4, 285696, Note_on_c, 9, 56, 72
4, 285696, Note_on_c, 9, 35, 63
4, 285758, Channel_aftertouch_c, 9, 3
4, 285774, Channel_aftertouch_c, 9, 4
4, 285780, Channel_aftertouch_c, 9, 5
4, 285790, Channel_aftertouch_c, 9, 6
4, 285792, Channel_aftertouch_c, 9, 7
4, 285800, Channel_aftertouch_c, 9, 8
4, 285804, Note_on_c, 9, 42, 0
4, 285804, Channel_aftertouch_c, 9, 9
4, 285808, Channel_aftertouch_c, 9, 10
4, 285814, Channel_aftertouch_c, 9, 11
4, 285818, Channel_aftertouch_c, 9, 12
4, 285822, Channel_aftertouch_c, 9, 13
4, 285828, Channel_aftertouch_c, 9, 14
4, 285836, Channel_aftertouch_c, 9, 15
4, 285838, Note_on_c, 9, 70, 0
4, 285846, Channel_aftertouch_c, 9, 16
4, 285852, Channel_aftertouch_c, 9, 17
4, 285858, Note_on_c, 9, 37, 0
4, 285858, Note_on_c, 9, 56, 0
4, 285882, Channel_aftertouch_c, 9, 16
4, 285888, Channel_aftertouch_c, 9, 15
4, 285890, Note_on_c, 9, 42, 44
4, 285894, Channel_aftertouch_c, 9, 14
4, 285902, Note_on_c, 9, 35, 0
4, 285902, Channel_aftertouch_c, 9, 13
4, 285904, Note_on_c, 9, 74, 0
4, 285908, Channel_aftertouch_c, 9, 11
4, 285910, Channel_aftertouch_c, 9, 10
4, 285918, Channel_aftertouch_c, 9, 9
4, 285920, Channel_aftertouch_c, 9, 7
4, 285928, Channel_aftertouch_c, 9, 6
4, 285928, Channel_aftertouch_c, 9, 5
4, 285934, Channel_aftertouch_c, 9, 4
4, 285942, Channel_aftertouch_c, 9, 3
4, 285954, Channel_aftertouch_c, 9, 2
4, 285978, Note_on_c, 9, 42, 0
4, 286080, Note_on_c, 9, 37, 96
4, 286080, Note_on_c, 9, 42, 71
4, 286080, Note_on_c, 9, 70, 100
4, 286080, Note_on_c, 9, 73, 79
4, 286080, Note_on_c, 9, 56, 63
4, 286134, Note_on_c, 9, 73, 0
4, 286148, Note_on_c, 9, 42, 0
4, 286182, Note_on_c, 9, 70, 0
4, 286230, Note_on_c, 9, 37, 0
4, 286230, Note_on_c, 9, 56, 0
4, 286272, Note_on_c, 9, 73, 75
4, 286274, Note_on_c, 9, 42, 42
4, 286274, Note_on_c, 9, 35, 55
4, 286328, Note_on_c, 9, 35, 0
4, 286328, Note_on_c, 9, 73, 0
4, 286366, Note_on_c, 9, 42, 0
4, 286462, Note_on_c, 9, 37, 96
4, 286462, Note_on_c, 9, 42, 100
4, 286464, Note_on_c, 9, 74, 67
4, 286464, Note_on_c, 9, 56, 72
4, 286464, Note_on_c, 9, 35, 68
4, 286548, Note_on_c, 9, 42, 0
4, 286592, Note_on_c, 9, 74, 0
4, 286600, Note_on_c, 9, 37, 0
4, 286602, Note_on_c, 9, 56, 0
4, 286650, Note_on_c, 9, 35, 0
4, 286656, Note_on_c, 9, 42, 40
4, 286656, Note_on_c, 9, 70, 91
4, 286744, Note_on_c, 9, 70, 0
4, 286810, Note_on_c, 9, 42, 0
4, 286848, Note_on_c, 9, 73, 73
4, 286848, Note_on_c, 9, 56, 67
4, 286850, Note_on_c, 9, 37, 96
4, 286850, Note_on_c, 9, 42, 67
4, 286900, Note_on_c, 9, 73, 0
4, 286948, Note_on_c, 9, 42, 0
4, 286970, Note_on_c, 9, 56, 0
4, 286972, Note_on_c, 9, 37, 0
4, 287036, Note_on_c, 9, 35, 48
4, 287040, Note_on_c, 9, 73, 75
4, 287044, Note_on_c, 9, 42, 40
4, 287094, Note_on_c, 9, 35, 0
4, 287104, Note_on_c, 9, 73, 0
4, 287156, Note_on_c, 9, 42, 0
4, 287232, Note_on_c, 9, 74, 71
4, 287232, Note_on_c, 9, 56, 63
4, 287232, Note_on_c, 9, 35, 68
4, 287238, Note_on_c, 9, 37, 96
4, 287238, Note_on_c, 9, 42, 100
4, 287238, Note_on_c, 9, 70, 100
4, 287330, Note_on_c, 9, 70, 0
4, 287342, Note_on_c, 9, 56, 0
4, 287348, Note_on_c, 9, 37, 0
4, 287352, Note_on_c, 9, 74, 0
4, 287364, Note_on_c, 9, 35, 0
4, 287378, Note_on_c, 9, 42, 0
4, 287428, Note_on_c, 9, 42, 40
4, 287570, Note_on_c, 9, 42, 0
4, 287616, Note_on_c, 9, 73, 73
4, 287616, Note_on_c, 9, 56, 67
4, 287618, Note_on_c, 9, 37, 96
4, 287618, Note_on_c, 9, 42, 67
4, 287666, Note_on_c, 9, 73, 0
4, 287710, Note_on_c, 9, 56, 0
4, 287712, Note_on_c, 9, 37, 0
4, 287712, Note_on_c, 9, 42, 0
4, 287808, Note_on_c, 9, 73, 75
4, 287810, Note_on_c, 9, 42, 35
4, 287810, Note_on_c, 9, 70, 100
4, 287810, Note_on_c, 9, 35, 55
4, 287864, Note_on_c, 9, 35, 0
4, 287874, Note_on_c, 9, 73, 0
4, 287900, Note_on_c, 9, 70, 0
4, 287912, Note_on_c, 9, 42, 0
4, 288000, Note_on_c, 9, 37, 96
4, 288000, Note_on_c, 9, 42, 100
4, 288000, Note_on_c, 9, 74, 64
4, 288000, Note_on_c, 9, 56, 67
4, 288000, Note_on_c, 9, 35, 68
4, 288102, Note_on_c, 9, 74, 0
4, 288132, Note_on_c, 9, 42, 0
4, 288134, Note_on_c, 9, 37, 0
4, 288134, Note_on_c, 9, 56, 0
4, 288186, Note_on_c, 9, 35, 0
4, 288196, Note_on_c, 9, 42, 42
4, 288332, Note_on_c, 9, 42, 0
4, 288384, Note_on_c, 9, 37, 96
4, 288384, Note_on_c, 9, 42, 64
4, 288384, Note_on_c, 9, 70, 91
4, 288384, Note_on_c, 9, 73, 73
4, 288384, Note_on_c, 9, 56, 63
4, 288448, Note_on_c, 9, 73, 0
4, 288472, Note_on_c, 9, 42, 0
4, 288476, Note_on_c, 9, 37, 0
4, 288476, Note_on_c, 9, 56, 0
4, 288478, Note_on_c, 9, 70, 0
4, 288572, Note_on_c, 9, 42, 44
4, 288572, Note_on_c, 9, 35, 48
4, 288576, Note_on_c, 9, 73, 69
4, 288630, Note_on_c, 9, 35, 0
4, 288654, Note_on_c, 9, 73, 0
4, 288694, Note_on_c, 9, 42, 0
4, 288768, Note_on_c, 9, 37, 96
4, 288768, Note_on_c, 9, 42, 100
4, 288768, Note_on_c, 9, 70, 98
4, 288768, Note_on_c, 9, 74, 63
4, 288768, Note_on_c, 9, 56, 67
4, 288768, Note_on_c, 9, 35, 68
4, 288854, Note_on_c, 9, 74, 0
4, 288858, Note_on_c, 9, 70, 0
4, 288858, Note_on_c, 9, 42, 0
4, 288900, Note_on_c, 9, 35, 0
4, 288902, Note_on_c, 9, 56, 0
4, 288902, Note_on_c, 9, 37, 0
4, 288902, End_track
0, 0, End_of_file
