0, 0, Header, 1, 2, 120
1, 0, Start_track
1, 0, Title_t, "untitled"
1, 0, Copyright_t, "Copyright © 1999 by Doug McKenzie"
1, 0, Text_t, "Doug McKenzie"
1, 0, Time_signature, 4, 2, 24, 8
1, 0, Key_signature, 0, "major"
1, 0, Tempo, 666667
1, 0, End_track
2, 0, Start_track
2, 0, MIDI_port, 0
2, 0, Title_t, ""
2, 0, Control_c, 0, 64, 127
2, 0, Note_on_c, 0, 88, 57
2, 0, Control_c, 0, 64, 0
2, 3, Note_on_c, 0, 88, 0
2, 14, Note_on_c, 0, 64, 45
2, 14, Note_on_c, 0, 91, 56
2, 15, Note_on_c, 0, 79, 46
2, 17, Note_on_c, 0, 60, 36
2, 18, Note_on_c, 0, 53, 26
2, 20, Note_on_c, 0, 57, 35
2, 51, Note_on_c, 0, 91, 0
2, 53, Note_on_c, 0, 79, 0
2, 54, Note_on_c, 0, 60, 0
2, 55, Note_on_c, 0, 57, 0
2, 56, Note_on_c, 0, 64, 0
2, 59, Note_on_c, 0, 53, 0
2, 70, Control_c, 0, 64, 127
2, 110, Control_c, 0, 64, 0
2, 140, Note_on_c, 0, 64, 33
2, 140, Note_on_c, 0, 53, 26
2, 141, Note_on_c, 0, 60, 32
2, 141, Note_on_c, 0, 91, 39
2, 142, Note_on_c, 0, 79, 34
2, 142, Note_on_c, 0, 86, 45
2, 144, Note_on_c, 0, 57, 32
2, 160, Note_on_c, 0, 91, 0
2, 165, Note_on_c, 0, 86, 0
2, 169, Note_on_c, 0, 79, 0
2, 182, Note_on_c, 0, 64, 0
2, 185, Note_on_c, 0, 60, 0
2, 187, Note_on_c, 0, 57, 0
2, 192, Note_on_c, 0, 53, 0
2, 217, Control_c, 0, 64, 127
2, 251, Control_c, 0, 64, 0
2, 261, Note_on_c, 0, 89, 38
2, 265, Note_on_c, 0, 64, 17
2, 266, Note_on_c, 0, 60, 31
2, 266, Note_on_c, 0, 53, 18
2, 267, Note_on_c, 0, 84, 25
2, 268, Note_on_c, 0, 57, 30
2, 269, Note_on_c, 0, 77, 15
2, 305, Note_on_c, 0, 84, 0
2, 305, Note_on_c, 0, 89, 0
2, 311, Note_on_c, 0, 77, 0
2, 314, Note_on_c, 0, 57, 0
2, 316, Note_on_c, 0, 64, 0
2, 318, Note_on_c, 0, 60, 0
2, 321, Control_c, 0, 64, 127
2, 326, Note_on_c, 0, 53, 0
2, 342, Note_on_c, 0, 89, 48
2, 343, Note_on_c, 0, 77, 38
2, 345, Note_on_c, 0, 84, 40
2, 353, Note_on_c, 0, 84, 0
2, 354, Note_on_c, 0, 89, 0
2, 360, Note_on_c, 0, 77, 0
2, 379, Note_on_c, 0, 64, 43
2, 381, Note_on_c, 0, 60, 40
2, 384, Note_on_c, 0, 57, 32
2, 388, Note_on_c, 0, 64, 0
2, 389, Note_on_c, 0, 60, 0
2, 392, Note_on_c, 0, 53, 20
2, 394, Note_on_c, 0, 57, 0
2, 404, Note_on_c, 0, 53, 0
2, 459, Note_on_c, 0, 48, 69
2, 492, Note_on_c, 0, 48, 0
2, 497, Control_c, 0, 64, 0
2, 501, Note_on_c, 0, 41, 65
2, 517, Note_on_c, 0, 41, 0
2, 522, Control_c, 0, 64, 127
2, 577, Note_on_c, 0, 76, 74
2, 577, Note_on_c, 0, 68, 76
2, 578, Note_on_c, 0, 65, 85
2, 578, Note_on_c, 0, 71, 71
2, 579, Note_on_c, 0, 64, 83
2, 584, Note_on_c, 0, 74, 34
2, 608, Note_on_c, 0, 65, 0
2, 610, Note_on_c, 0, 68, 0
2, 610, Note_on_c, 0, 76, 0
2, 610, Note_on_c, 0, 74, 0
2, 611, Note_on_c, 0, 64, 0
2, 614, Note_on_c, 0, 71, 0
2, 624, Note_on_c, 0, 64, 78
2, 625, Note_on_c, 0, 76, 57
2, 626, Note_on_c, 0, 68, 62
2, 627, Note_on_c, 0, 71, 69
2, 627, Note_on_c, 0, 65, 73
2, 628, Control_c, 0, 64, 0
2, 641, Control_c, 0, 64, 127
2, 667, Note_on_c, 0, 76, 0
2, 672, Note_on_c, 0, 64, 0
2, 678, Note_on_c, 0, 65, 0
2, 681, Note_on_c, 0, 68, 0
2, 681, Note_on_c, 0, 71, 0
2, 699, Note_on_c, 0, 68, 69
2, 700, Note_on_c, 0, 74, 68
2, 701, Note_on_c, 0, 71, 48
2, 701, Note_on_c, 0, 62, 76
2, 702, Note_on_c, 0, 65, 74
2, 708, Control_c, 0, 64, 0
2, 735, Control_c, 0, 64, 127
2, 747, Note_on_c, 0, 62, 0
2, 757, Note_on_c, 0, 71, 0
2, 759, Note_on_c, 0, 74, 0
2, 760, Note_on_c, 0, 68, 0
2, 766, Note_on_c, 0, 65, 0
2, 816, Note_on_c, 0, 50, 45
2, 850, Note_on_c, 0, 54, 37
2, 852, Note_on_c, 0, 59, 40
2, 853, Note_on_c, 0, 44, 33
2, 854, Control_c, 0, 64, 0
2, 868, Note_on_c, 0, 50, 0
2, 884, Control_c, 0, 64, 127
2, 923, Note_on_c, 0, 59, 0
2, 924, Note_on_c, 0, 54, 0
2, 930, Note_on_c, 0, 58, 51
2, 940, Note_on_c, 0, 44, 0
2, 948, Note_on_c, 0, 58, 0
2, 948, Control_c, 0, 64, 0
2, 964, Control_c, 0, 64, 127
2, 966, Note_on_c, 0, 43, 36
2, 977, Note_on_c, 0, 53, 20
2, 987, Note_on_c, 0, 43, 0
2, 1000, Note_on_c, 0, 53, 0
2, 1053, Note_on_c, 0, 82, 46
2, 1055, Note_on_c, 0, 77, 44
2, 1055, Note_on_c, 0, 89, 47
2, 1058, Note_on_c, 0, 86, 53
2, 1060, Note_on_c, 0, 88, 34
2, 1067, Note_on_c, 0, 88, 0
2, 1080, Note_on_c, 0, 82, 0
2, 1081, Note_on_c, 0, 77, 0
2, 1081, Note_on_c, 0, 86, 0
2, 1088, Note_on_c, 0, 89, 0
2, 1092, Control_c, 0, 64, 0
2, 1094, Note_on_c, 0, 62, 32
2, 1097, Note_on_c, 0, 55, 28
2, 1098, Note_on_c, 0, 89, 22
2, 1103, Note_on_c, 0, 57, 24
2, 1103, Note_on_c, 0, 58, 18
2, 1104, Note_on_c, 0, 77, 22
2, 1104, Note_on_c, 0, 82, 33
2, 1109, Note_on_c, 0, 86, 24
2, 1126, Note_on_c, 0, 82, 0
2, 1127, Note_on_c, 0, 86, 0
2, 1130, Note_on_c, 0, 77, 0
2, 1134, Note_on_c, 0, 89, 0
2, 1140, Note_on_c, 0, 57, 0
2, 1146, Control_c, 0, 64, 127
2, 1149, Note_on_c, 0, 62, 0
2, 1154, Note_on_c, 0, 55, 0
2, 1155, Note_on_c, 0, 58, 0
2, 1173, Note_on_c, 0, 89, 53
2, 1176, Note_on_c, 0, 77, 49
2, 1176, Note_on_c, 0, 82, 43
2, 1187, Note_on_c, 0, 89, 0
2, 1189, Note_on_c, 0, 82, 0
2, 1193, Note_on_c, 0, 77, 0
2, 1213, Note_on_c, 0, 62, 35
2, 1215, Note_on_c, 0, 58, 30
2, 1217, Control_c, 0, 64, 0
2, 1218, Note_on_c, 0, 55, 30
2, 1222, Note_on_c, 0, 74, 30
2, 1226, Note_on_c, 0, 86, 25
2, 1227, Note_on_c, 0, 80, 25
2, 1234, Note_on_c, 0, 80, 0
2, 1242, Note_on_c, 0, 81, 33
2, 1255, Note_on_c, 0, 86, 0
2, 1257, Note_on_c, 0, 74, 0
2, 1258, Note_on_c, 0, 81, 0
2, 1279, Note_on_c, 0, 62, 0
2, 1290, Note_on_c, 0, 86, 38
2, 1291, Note_on_c, 0, 80, 48
2, 1292, Note_on_c, 0, 74, 34
2, 1294, Note_on_c, 0, 55, 0
2, 1302, Note_on_c, 0, 80, 0
2, 1302, Control_c, 0, 64, 127
2, 1306, Note_on_c, 0, 81, 44
2, 1316, Note_on_c, 0, 81, 0
2, 1317, Note_on_c, 0, 58, 0
2, 1320, Note_on_c, 0, 74, 0
2, 1321, Note_on_c, 0, 86, 0
2, 1329, Control_c, 0, 64, 0
2, 1330, Note_on_c, 0, 54, 34
2, 1334, Note_on_c, 0, 58, 14
2, 1334, Note_on_c, 0, 62, 26
2, 1348, Note_on_c, 0, 80, 31
2, 1349, Note_on_c, 0, 86, 19
2, 1351, Note_on_c, 0, 74, 22
2, 1365, Note_on_c, 0, 80, 0
2, 1370, Note_on_c, 0, 81, 33
2, 1378, Note_on_c, 0, 86, 0
2, 1379, Note_on_c, 0, 81, 0
2, 1382, Note_on_c, 0, 74, 0
2, 1390, Control_c, 0, 64, 127
2, 1405, Note_on_c, 0, 62, 0
2, 1410, Note_on_c, 0, 86, 55
2, 1412, Note_on_c, 0, 80, 47
2, 1414, Note_on_c, 0, 74, 35
2, 1425, Note_on_c, 0, 58, 0
2, 1427, Note_on_c, 0, 54, 0
2, 1428, Note_on_c, 0, 80, 0
2, 1429, Note_on_c, 0, 81, 54
2, 1437, Note_on_c, 0, 81, 0
2, 1439, Note_on_c, 0, 86, 0
2, 1443, Note_on_c, 0, 74, 0
2, 1452, Note_on_c, 0, 62, 35
2, 1456, Note_on_c, 0, 58, 21
2, 1458, Note_on_c, 0, 52, 32
2, 1459, Control_c, 0, 64, 0
2, 1465, Note_on_c, 0, 72, 38
2, 1473, Note_on_c, 0, 84, 29
2, 1501, Note_on_c, 0, 84, 0
2, 1502, Note_on_c, 0, 72, 0
2, 1517, Note_on_c, 0, 52, 0
2, 1529, Note_on_c, 0, 62, 0
2, 1534, Note_on_c, 0, 58, 0
2, 1537, Note_on_c, 0, 84, 64
2, 1538, Note_on_c, 0, 72, 62
2, 1542, Control_c, 0, 64, 127
2, 1542, Note_on_c, 0, 81, 52
2, 1562, Control_c, 0, 64, 0
2, 1564, Note_on_c, 0, 81, 0
2, 1565, Note_on_c, 0, 72, 0
2, 1565, Note_on_c, 0, 84, 0
2, 1574, Note_on_c, 0, 58, 29
2, 1574, Note_on_c, 0, 62, 24
2, 1579, Note_on_c, 0, 52, 31
2, 1590, Control_c, 0, 64, 127
2, 1640, Note_on_c, 0, 52, 0
2, 1653, Note_on_c, 0, 62, 0
2, 1654, Note_on_c, 0, 58, 0
2, 1657, Note_on_c, 0, 84, 72
2, 1658, Note_on_c, 0, 72, 68
2, 1671, Note_on_c, 0, 72, 0
2, 1671, Note_on_c, 0, 84, 0
2, 1698, Note_on_c, 0, 64, 40
2, 1700, Note_on_c, 0, 81, 64
2, 1700, Note_on_c, 0, 60, 44
2, 1700, Note_on_c, 0, 69, 70
2, 1701, Note_on_c, 0, 54, 36
2, 1703, Control_c, 0, 64, 0
2, 1703, Note_on_c, 0, 76, 55
2, 1705, Note_on_c, 0, 64, 0
2, 1706, Note_on_c, 0, 60, 0
2, 1712, Note_on_c, 0, 76, 0
2, 1714, Note_on_c, 0, 69, 0
2, 1715, Note_on_c, 0, 81, 0
2, 1716, Note_on_c, 0, 54, 0
2, 1775, Note_on_c, 0, 36, 67
2, 1778, Note_on_c, 0, 38, 69
2, 1784, Control_c, 0, 64, 127
2, 1796, Note_on_c, 0, 36, 0
2, 1818, Control_c, 0, 64, 0
2, 1820, Note_on_c, 0, 50, 54
2, 1865, Note_on_c, 0, 50, 0
2, 1880, Note_on_c, 0, 38, 0
2, 1896, Note_on_c, 0, 62, 64
2, 1897, Note_on_c, 0, 54, 67
2, 1898, Note_on_c, 0, 58, 62
2, 1900, Note_on_c, 0, 44, 73
2, 1903, Control_c, 0, 64, 127
2, 1928, Note_on_c, 0, 54, 0
2, 1932, Note_on_c, 0, 58, 0
2, 1933, Note_on_c, 0, 62, 0
2, 1939, Note_on_c, 0, 44, 0
2, 1941, Control_c, 0, 64, 0
2, 1947, Note_on_c, 0, 43, 42
2, 1949, Note_on_c, 0, 53, 35
2, 1955, Note_on_c, 0, 53, 0
2, 1999, Control_c, 0, 64, 127
2, 2013, Note_on_c, 0, 43, 0
2, 2019, Note_on_c, 0, 31, 70
2, 2025, Note_on_c, 0, 31, 0
2, 2058, Control_c, 0, 64, 0
2, 2059, Note_on_c, 0, 62, 85
2, 2059, Note_on_c, 0, 65, 82
2, 2060, Note_on_c, 0, 69, 78
2, 2060, Note_on_c, 0, 57, 80
2, 2061, Note_on_c, 0, 72, 75
2, 2102, Control_c, 0, 64, 127
2, 2116, Note_on_c, 0, 65, 0
2, 2117, Note_on_c, 0, 72, 0
2, 2118, Note_on_c, 0, 62, 0
2, 2118, Note_on_c, 0, 57, 0
2, 2121, Note_on_c, 0, 69, 0
2, 2136, Note_on_c, 0, 57, 50
2, 2138, Note_on_c, 0, 62, 57
2, 2152, Note_on_c, 0, 62, 0
2, 2161, Note_on_c, 0, 57, 0
2, 2180, Note_on_c, 0, 70, 48
2, 2180, Note_on_c, 0, 48, 55
2, 2181, Control_c, 0, 64, 0
2, 2185, Note_on_c, 0, 70, 0
2, 2244, Control_c, 0, 64, 127
2, 2255, Note_on_c, 0, 69, 68
2, 2255, Note_on_c, 0, 58, 52
2, 2258, Note_on_c, 0, 64, 58
2, 2258, Note_on_c, 0, 61, 55
2, 2259, Note_on_c, 0, 57, 50
2, 2279, Control_c, 0, 64, 0
2, 2298, Control_c, 0, 64, 127
2, 2325, Note_on_c, 0, 48, 0
2, 2330, Note_on_c, 0, 58, 0
2, 2335, Note_on_c, 0, 61, 0
2, 2337, Note_on_c, 0, 64, 0
2, 2343, Note_on_c, 0, 69, 0
2, 2378, Note_on_c, 0, 48, 40
2, 2383, Note_on_c, 0, 57, 0
2, 2386, Note_on_c, 0, 48, 0
2, 2418, Control_c, 0, 64, 0
2, 2419, Note_on_c, 0, 65, 58
2, 2420, Note_on_c, 0, 62, 60
2, 2421, Note_on_c, 0, 72, 44
2, 2424, Note_on_c, 0, 55, 34
2, 2446, Control_c, 0, 64, 127
2, 2473, Note_on_c, 0, 72, 0
2, 2478, Note_on_c, 0, 65, 0
2, 2493, Note_on_c, 0, 62, 0
2, 2531, Note_on_c, 0, 59, 36
2, 2533, Control_c, 0, 64, 0
2, 2533, Note_on_c, 0, 49, 38
2, 2558, Control_c, 0, 64, 127
2, 2575, Note_on_c, 0, 59, 0
2, 2579, Note_on_c, 0, 55, 0
2, 2605, Note_on_c, 0, 49, 0
2, 2609, Note_on_c, 0, 69, 60
2, 2610, Note_on_c, 0, 58, 55
2, 2612, Note_on_c, 0, 61, 56
2, 2612, Note_on_c, 0, 64, 60
2, 2621, Note_on_c, 0, 48, 44
2, 2622, Note_on_c, 0, 57, 35
2, 2623, Control_c, 0, 64, 0
2, 2654, Control_c, 0, 64, 127
2, 2676, Note_on_c, 0, 58, 0
2, 2681, Note_on_c, 0, 64, 0
2, 2685, Note_on_c, 0, 61, 0
2, 2690, Note_on_c, 0, 48, 0
2, 2696, Note_on_c, 0, 57, 0
2, 2707, Note_on_c, 0, 69, 0
2, 2733, Note_on_c, 0, 64, 59
2, 2734, Note_on_c, 0, 67, 40
2, 2734, Note_on_c, 0, 60, 47
2, 2735, Note_on_c, 0, 55, 49
2, 2738, Note_on_c, 0, 46, 36
2, 2744, Control_c, 0, 64, 0
2, 2775, Control_c, 0, 64, 127
2, 2801, Note_on_c, 0, 67, 0
2, 2812, Note_on_c, 0, 64, 0
2, 2829, Note_on_c, 0, 60, 0
2, 2836, Note_on_c, 0, 55, 0
2, 2856, Note_on_c, 0, 52, 28
2, 2875, Note_on_c, 0, 52, 0
2, 2878, Note_on_c, 0, 46, 0
2, 2897, Note_on_c, 0, 45, 43
2, 2898, Control_c, 0, 64, 0
2, 2899, Note_on_c, 0, 53, 38
2, 2930, Control_c, 0, 64, 127
2, 2940, Note_on_c, 0, 60, 54
2, 2948, Note_on_c, 0, 45, 0
2, 2957, Note_on_c, 0, 60, 0
2, 2958, Note_on_c, 0, 53, 0
2, 2968, Note_on_c, 0, 61, 60
2, 2982, Note_on_c, 0, 61, 0
2, 3012, Note_on_c, 0, 65, 64
2, 3016, Note_on_c, 0, 61, 21
2, 3016, Note_on_c, 0, 60, 32
2, 3018, Note_on_c, 0, 55, 20
2, 3019, Control_c, 0, 64, 0
2, 3031, Note_on_c, 0, 65, 0
2, 3048, Note_on_c, 0, 70, 49
2, 3062, Control_c, 0, 64, 127
2, 3063, Note_on_c, 0, 60, 0
2, 3071, Note_on_c, 0, 61, 0
2, 3071, Note_on_c, 0, 70, 0
2, 3075, Note_on_c, 0, 55, 0
2, 3085, Note_on_c, 0, 72, 79
2, 3113, Note_on_c, 0, 72, 0
2, 3123, Control_c, 0, 64, 0
2, 3125, Note_on_c, 0, 64, 46
2, 3125, Note_on_c, 0, 60, 36
2, 3126, Note_on_c, 0, 77, 74
2, 3127, Note_on_c, 0, 54, 38
2, 3190, Note_on_c, 0, 77, 0
2, 3191, Note_on_c, 0, 64, 0
2, 3198, Note_on_c, 0, 72, 30
2, 3201, Control_c, 0, 64, 127
2, 3204, Note_on_c, 0, 54, 0
2, 3206, Note_on_c, 0, 73, 57
2, 3207, Note_on_c, 0, 60, 0
2, 3211, Note_on_c, 0, 77, 13
2, 3220, Note_on_c, 0, 73, 0
2, 3222, Note_on_c, 0, 74, 58
2, 3230, Note_on_c, 0, 77, 0
2, 3230, Note_on_c, 0, 72, 0
2, 3233, Note_on_c, 0, 74, 0
2, 3242, Note_on_c, 0, 54, 36
2, 3244, Control_c, 0, 64, 0
2, 3251, Note_on_c, 0, 62, 22
2, 3252, Note_on_c, 0, 60, 15
2, 3257, Note_on_c, 0, 74, 30
2, 3259, Note_on_c, 0, 68, 68
2, 3271, Note_on_c, 0, 60, 0
2, 3272, Note_on_c, 0, 62, 0
2, 3283, Note_on_c, 0, 68, 0
2, 3290, Note_on_c, 0, 69, 40
2, 3310, Note_on_c, 0, 69, 0
2, 3314, Note_on_c, 0, 74, 0
2, 3332, Note_on_c, 0, 54, 0
2, 3335, Control_c, 0, 64, 127
2, 3335, Note_on_c, 0, 62, 54
2, 3354, Note_on_c, 0, 62, 0
2, 3360, Control_c, 0, 64, 0
2, 3369, Note_on_c, 0, 58, 23
2, 3370, Note_on_c, 0, 57, 30
2, 3372, Note_on_c, 0, 53, 26
2, 3372, Note_on_c, 0, 65, 70
2, 3408, Note_on_c, 0, 58, 0
2, 3413, Note_on_c, 0, 65, 0
2, 3419, Note_on_c, 0, 57, 0
2, 3419, Note_on_c, 0, 67, 47
2, 3434, Note_on_c, 0, 65, 49
2, 3437, Note_on_c, 0, 67, 0
2, 3446, Control_c, 0, 64, 127
2, 3457, Note_on_c, 0, 65, 0
2, 3457, Note_on_c, 0, 62, 46
2, 3469, Note_on_c, 0, 62, 0
2, 3481, Control_c, 0, 64, 0
2, 3484, Note_on_c, 0, 65, 83
2, 3487, Note_on_c, 0, 58, 33
2, 3488, Note_on_c, 0, 62, 35
2, 3509, Note_on_c, 0, 62, 0
2, 3530, Note_on_c, 0, 65, 0
2, 3534, Note_on_c, 0, 67, 38
2, 3536, Note_on_c, 0, 53, 0
2, 3540, Note_on_c, 0, 58, 0
2, 3552, Note_on_c, 0, 65, 45
2, 3554, Note_on_c, 0, 67, 0
2, 3558, Control_c, 0, 64, 127
2, 3571, Note_on_c, 0, 65, 0
2, 3600, Note_on_c, 0, 68, 69
2, 3600, Note_on_c, 0, 58, 36
2, 3603, Control_c, 0, 64, 0
2, 3604, Note_on_c, 0, 52, 47
2, 3612, Note_on_c, 0, 58, 0
2, 3613, Note_on_c, 0, 52, 0
2, 3633, Note_on_c, 0, 68, 0
2, 3638, Note_on_c, 0, 69, 47
2, 3660, Note_on_c, 0, 69, 0
2, 3683, Note_on_c, 0, 70, 69
2, 3685, Note_on_c, 0, 48, 64
2, 3687, Note_on_c, 0, 47, 49
2, 3696, Note_on_c, 0, 47, 0
2, 3715, Note_on_c, 0, 70, 0
2, 3731, Note_on_c, 0, 71, 28
2, 3752, Note_on_c, 0, 71, 0
2, 3770, Note_on_c, 0, 72, 62
2, 3782, Note_on_c, 0, 72, 0
2, 3787, Note_on_c, 0, 48, 0
2, 3789, Control_c, 0, 64, 127
2, 3809, Note_on_c, 0, 74, 77
2, 3811, Note_on_c, 0, 48, 42
2, 3839, Note_on_c, 0, 74, 0
2, 3840, Control_c, 0, 64, 0
2, 3844, Note_on_c, 0, 48, 0
2, 3852, Note_on_c, 0, 41, 60
2, 3865, Control_c, 0, 64, 127
2, 3871, Note_on_c, 0, 41, 0
2, 3934, Note_on_c, 0, 79, 80
2, 3936, Note_on_c, 0, 67, 79
2, 3936, Note_on_c, 0, 76, 68
2, 3937, Note_on_c, 0, 72, 73
2, 3974, Control_c, 0, 64, 0
2, 3975, Note_on_c, 0, 62, 50
2, 3979, Note_on_c, 0, 57, 45
2, 3980, Note_on_c, 0, 53, 30
2, 3980, Note_on_c, 0, 60, 30
2, 3986, Note_on_c, 0, 72, 0
2, 3988, Note_on_c, 0, 67, 0
2, 3989, Note_on_c, 0, 60, 0
2, 3990, Note_on_c, 0, 53, 0
2, 3992, Note_on_c, 0, 79, 0
2, 3993, Note_on_c, 0, 76, 0
2, 3993, Note_on_c, 0, 62, 0
2, 3993, Control_c, 0, 64, 127
2, 4004, Note_on_c, 0, 57, 0
2, 4015, Note_on_c, 0, 79, 50
2, 4015, Note_on_c, 0, 76, 38
2, 4019, Note_on_c, 0, 67, 40
2, 4020, Note_on_c, 0, 72, 37
2, 4029, Note_on_c, 0, 72, 0
2, 4029, Note_on_c, 0, 67, 0
2, 4037, Note_on_c, 0, 79, 0
2, 4040, Note_on_c, 0, 76, 0
2, 4053, Note_on_c, 0, 79, 55
2, 4057, Note_on_c, 0, 72, 58
2, 4060, Note_on_c, 0, 69, 40
2, 4069, Note_on_c, 0, 69, 0
2, 4076, Note_on_c, 0, 79, 0
2, 4078, Note_on_c, 0, 72, 0
2, 4094, Note_on_c, 0, 62, 38
2, 4094, Note_on_c, 0, 77, 54
2, 4095, Control_c, 0, 64, 0
2, 4095, Note_on_c, 0, 67, 32
2, 4095, Note_on_c, 0, 57, 40
2, 4096, Note_on_c, 0, 72, 38
2, 4098, Note_on_c, 0, 69, 49
2, 4125, Note_on_c, 0, 67, 0
2, 4129, Control_c, 0, 64, 127
2, 4132, Note_on_c, 0, 62, 0
2, 4139, Note_on_c, 0, 57, 0
2, 4140, Note_on_c, 0, 72, 0
2, 4140, Note_on_c, 0, 69, 0
2, 4143, Note_on_c, 0, 77, 0
2, 4171, Note_on_c, 0, 77, 55
2, 4173, Note_on_c, 0, 72, 60
2, 4173, Note_on_c, 0, 69, 56
2, 4199, Control_c, 0, 64, 0
2, 4206, Note_on_c, 0, 64, 50
2, 4211, Note_on_c, 0, 60, 34
2, 4214, Control_c, 0, 64, 127
2, 4214, Note_on_c, 0, 57, 30
2, 4215, Note_on_c, 0, 64, 0
2, 4218, Note_on_c, 0, 60, 0
2, 4223, Note_on_c, 0, 57, 0
2, 4268, Note_on_c, 0, 77, 0
2, 4268, Note_on_c, 0, 72, 0
2, 4274, Note_on_c, 0, 69, 0
2, 4326, Note_on_c, 0, 76, 64
2, 4328, Note_on_c, 0, 56, 42
2, 4329, Note_on_c, 0, 68, 40
2, 4329, Note_on_c, 0, 47, 50
2, 4330, Note_on_c, 0, 65, 44
2, 4330, Note_on_c, 0, 71, 47
2, 4331, Control_c, 0, 64, 0
2, 4357, Note_on_c, 0, 47, 0
2, 4363, Control_c, 0, 64, 127
2, 4367, Note_on_c, 0, 56, 0
2, 4395, Note_on_c, 0, 65, 0
2, 4403, Note_on_c, 0, 71, 0
2, 4406, Note_on_c, 0, 76, 0
2, 4406, Note_on_c, 0, 68, 0
2, 4448, Note_on_c, 0, 62, 48
2, 4448, Note_on_c, 0, 76, 40
2, 4450, Control_c, 0, 64, 0
2, 4451, Note_on_c, 0, 65, 44
2, 4451, Note_on_c, 0, 68, 38
2, 4451, Note_on_c, 0, 56, 31
2, 4452, Note_on_c, 0, 71, 40
2, 4454, Note_on_c, 0, 59, 32
2, 4469, Note_on_c, 0, 59, 0
2, 4469, Note_on_c, 0, 62, 0
2, 4472, Control_c, 0, 64, 127
2, 4480, Note_on_c, 0, 56, 0
2, 4492, Note_on_c, 0, 76, 0
2, 4525, Note_on_c, 0, 65, 0
2, 4529, Note_on_c, 0, 71, 0
2, 4531, Note_on_c, 0, 68, 0
2, 4570, Note_on_c, 0, 56, 36
2, 4573, Note_on_c, 0, 74, 35
2, 4575, Control_c, 0, 64, 0
2, 4575, Note_on_c, 0, 71, 27
2, 4575, Note_on_c, 0, 68, 38
2, 4575, Note_on_c, 0, 50, 41
2, 4575, Note_on_c, 0, 65, 38
2, 4604, Note_on_c, 0, 71, 0
2, 4604, Control_c, 0, 64, 127
2, 4609, Note_on_c, 0, 74, 0
2, 4610, Note_on_c, 0, 68, 0
2, 4614, Note_on_c, 0, 65, 0
2, 4638, Note_on_c, 0, 56, 0
2, 4653, Note_on_c, 0, 50, 0
2, 4688, Note_on_c, 0, 56, 56
2, 4688, Note_on_c, 0, 62, 51
2, 4689, Note_on_c, 0, 65, 53
2, 4692, Control_c, 0, 64, 0
2, 4692, Note_on_c, 0, 46, 37
2, 4698, Note_on_c, 0, 46, 0
2, 4717, Control_c, 0, 64, 127
2, 4719, Note_on_c, 0, 65, 0
2, 4739, Note_on_c, 0, 56, 0
2, 4745, Note_on_c, 0, 62, 0
2, 4772, Note_on_c, 0, 54, 48
2, 4772, Note_on_c, 0, 59, 57
2, 4774, Note_on_c, 0, 44, 36
2, 4799, Note_on_c, 0, 54, 0
2, 4805, Control_c, 0, 64, 0
2, 4806, Note_on_c, 0, 44, 0
2, 4806, Note_on_c, 0, 59, 0
2, 4818, Note_on_c, 0, 43, 39
2, 4820, Note_on_c, 0, 58, 36
2, 4825, Note_on_c, 0, 53, 18
2, 4833, Control_c, 0, 64, 127
2, 4850, Note_on_c, 0, 43, 0
2, 4862, Note_on_c, 0, 58, 0
2, 4872, Note_on_c, 0, 53, 0
2, 4881, Note_on_c, 0, 51, 35
2, 4892, Note_on_c, 0, 51, 0
2, 4892, Note_on_c, 0, 65, 64
2, 4892, Note_on_c, 0, 58, 61
2, 4894, Note_on_c, 0, 62, 55
2, 4894, Note_on_c, 0, 55, 61
2, 4895, Note_on_c, 0, 53, 57
2, 4898, Note_on_c, 0, 52, 22
2, 4901, Control_c, 0, 64, 0
2, 4904, Note_on_c, 0, 52, 0
2, 4908, Note_on_c, 0, 55, 0
2, 4916, Note_on_c, 0, 58, 0
2, 4916, Control_c, 0, 64, 127
2, 4917, Note_on_c, 0, 62, 0
2, 4921, Note_on_c, 0, 53, 0
2, 4922, Note_on_c, 0, 65, 0
2, 4970, Control_c, 0, 64, 0
2, 4976, Note_on_c, 0, 77, 69
2, 4977, Note_on_c, 0, 67, 54
2, 4978, Note_on_c, 0, 70, 74
2, 4979, Note_on_c, 0, 65, 58
2, 4979, Note_on_c, 0, 74, 51
2, 4984, Note_on_c, 0, 69, 32
2, 4985, Note_on_c, 0, 65, 0
2, 4990, Note_on_c, 0, 69, 0
2, 4993, Control_c, 0, 64, 127
2, 4999, Note_on_c, 0, 65, 9
2, 5011, Note_on_c, 0, 65, 0
2, 5012, Note_on_c, 0, 74, 0
2, 5018, Note_on_c, 0, 77, 0
2, 5021, Note_on_c, 0, 70, 0
2, 5025, Note_on_c, 0, 67, 0
2, 5049, Control_c, 0, 64, 0
2, 5050, Note_on_c, 0, 74, 48
2, 5051, Note_on_c, 0, 62, 49
2, 5051, Note_on_c, 0, 65, 56
2, 5055, Note_on_c, 0, 70, 31
2, 5057, Note_on_c, 0, 67, 39
2, 5067, Control_c, 0, 64, 127
2, 5081, Note_on_c, 0, 67, 0
2, 5089, Note_on_c, 0, 74, 0
2, 5089, Note_on_c, 0, 70, 0
2, 5090, Note_on_c, 0, 65, 0
2, 5108, Note_on_c, 0, 62, 0
2, 5138, Note_on_c, 0, 57, 38
2, 5166, Note_on_c, 0, 57, 0
2, 5179, Note_on_c, 0, 69, 66
2, 5180, Note_on_c, 0, 62, 73
2, 5180, Note_on_c, 0, 58, 63
2, 5181, Control_c, 0, 64, 0
2, 5181, Note_on_c, 0, 57, 60
2, 5183, Note_on_c, 0, 65, 65
2, 5216, Control_c, 0, 64, 127
2, 5236, Note_on_c, 0, 58, 0
2, 5240, Note_on_c, 0, 65, 0
2, 5241, Note_on_c, 0, 62, 0
2, 5247, Note_on_c, 0, 69, 0
2, 5249, Note_on_c, 0, 57, 0
2, 5257, Note_on_c, 0, 56, 37
2, 5292, Note_on_c, 0, 56, 0
2, 5296, Note_on_c, 0, 65, 65
2, 5297, Control_c, 0, 64, 0
2, 5297, Note_on_c, 0, 72, 51
2, 5298, Note_on_c, 0, 62, 54
2, 5299, Note_on_c, 0, 58, 55
2, 5338, Control_c, 0, 64, 127
2, 5370, Note_on_c, 0, 48, 76
2, 5409, Note_on_c, 0, 58, 0
2, 5424, Note_on_c, 0, 48, 0
2, 5433, Note_on_c, 0, 72, 0
2, 5434, Note_on_c, 0, 65, 0
2, 5449, Note_on_c, 0, 62, 0
2, 5522, Note_on_c, 0, 26, 50
2, 5524, Control_c, 0, 64, 0
2, 5545, Note_on_c, 0, 26, 0
2, 5551, Control_c, 0, 64, 127
2, 5607, Note_on_c, 0, 50, 46
2, 5609, Note_on_c, 0, 54, 47
2, 5609, Note_on_c, 0, 58, 50
2, 5610, Note_on_c, 0, 65, 49
2, 5614, Note_on_c, 0, 60, 44
2, 5618, Control_c, 0, 64, 0
2, 5619, Note_on_c, 0, 65, 0
2, 5620, Note_on_c, 0, 54, 0
2, 5621, Note_on_c, 0, 60, 0
2, 5622, Note_on_c, 0, 50, 0
2, 5624, Note_on_c, 0, 58, 0
2, 5716, Control_c, 0, 64, 127
2, 5732, Note_on_c, 0, 44, 43
2, 5756, Note_on_c, 0, 44, 0
2, 5757, Control_c, 0, 64, 0
2, 5779, Note_on_c, 0, 43, 42
2, 5782, Control_c, 0, 64, 127
2, 5799, Note_on_c, 0, 43, 0
2, 5850, Note_on_c, 0, 31, 64
2, 5857, Note_on_c, 0, 31, 0
2, 5892, Control_c, 0, 64, 0
2, 5896, Note_on_c, 0, 62, 91
2, 5896, Note_on_c, 0, 65, 89
2, 5897, Note_on_c, 0, 72, 80
2, 5897, Note_on_c, 0, 69, 75
2, 5899, Note_on_c, 0, 60, 91
2, 5930, Control_c, 0, 64, 127
2, 5935, Note_on_c, 0, 60, 0
2, 5936, Note_on_c, 0, 62, 0
2, 5936, Note_on_c, 0, 65, 0
2, 5937, Note_on_c, 0, 72, 0
2, 5939, Note_on_c, 0, 69, 0
2, 5973, Note_on_c, 0, 60, 67
2, 5975, Note_on_c, 0, 65, 83
2, 5975, Note_on_c, 0, 72, 71
2, 5976, Note_on_c, 0, 62, 77
2, 5986, Note_on_c, 0, 60, 0
2, 5988, Note_on_c, 0, 65, 0
2, 5988, Note_on_c, 0, 72, 0
2, 5997, Note_on_c, 0, 62, 0
2, 6028, Control_c, 0, 64, 0
2, 6056, Note_on_c, 0, 69, 62
2, 6057, Note_on_c, 0, 58, 48
2, 6058, Note_on_c, 0, 61, 57
2, 6059, Note_on_c, 0, 64, 55
2, 6063, Note_on_c, 0, 57, 41
2, 6064, Note_on_c, 0, 48, 39
2, 6072, Note_on_c, 0, 57, 0
2, 6072, Note_on_c, 0, 58, 0
2, 6074, Note_on_c, 0, 61, 0
2, 6076, Note_on_c, 0, 48, 0
2, 6077, Note_on_c, 0, 64, 0
2, 6078, Note_on_c, 0, 69, 0
2, 6080, Control_c, 0, 64, 127
2, 6100, Control_c, 0, 64, 0
2, 6132, Control_c, 0, 64, 127
2, 6135, Note_on_c, 0, 61, 54
2, 6136, Note_on_c, 0, 69, 46
2, 6136, Note_on_c, 0, 64, 52
2, 6137, Note_on_c, 0, 58, 37
2, 6138, Note_on_c, 0, 48, 42
2, 6138, Note_on_c, 0, 57, 46
2, 6158, Note_on_c, 0, 58, 0
2, 6162, Note_on_c, 0, 64, 0
2, 6164, Note_on_c, 0, 61, 0
2, 6168, Note_on_c, 0, 69, 0
2, 6171, Note_on_c, 0, 48, 0
2, 6176, Note_on_c, 0, 57, 0
2, 6217, Note_on_c, 0, 72, 73
2, 6217, Note_on_c, 0, 65, 77
2, 6218, Note_on_c, 0, 62, 77
2, 6218, Note_on_c, 0, 60, 74
2, 6223, Note_on_c, 0, 68, 40
2, 6225, Control_c, 0, 64, 0
2, 6229, Note_on_c, 0, 68, 0
2, 6252, Control_c, 0, 64, 127
2, 6267, Note_on_c, 0, 60, 0
2, 6268, Note_on_c, 0, 62, 0
2, 6268, Note_on_c, 0, 65, 0
2, 6271, Note_on_c, 0, 72, 0
2, 6294, Note_on_c, 0, 65, 70
2, 6294, Note_on_c, 0, 72, 55
2, 6296, Note_on_c, 0, 62, 55
2, 6297, Note_on_c, 0, 60, 64
2, 6332, Note_on_c, 0, 60, 0
2, 6359, Note_on_c, 0, 72, 0
2, 6363, Note_on_c, 0, 65, 0
2, 6369, Note_on_c, 0, 49, 52
2, 6374, Control_c, 0, 64, 0
2, 6375, Note_on_c, 0, 56, 27
2, 6378, Note_on_c, 0, 62, 0
2, 6392, Control_c, 0, 64, 127
2, 6428, Note_on_c, 0, 49, 0
2, 6431, Note_on_c, 0, 56, 0
2, 6444, Note_on_c, 0, 69, 60
2, 6445, Note_on_c, 0, 58, 42
2, 6447, Note_on_c, 0, 64, 55
2, 6447, Note_on_c, 0, 61, 46
2, 6449, Note_on_c, 0, 48, 43
2, 6449, Note_on_c, 0, 55, 45
2, 6455, Control_c, 0, 64, 0
2, 6477, Note_on_c, 0, 58, 0
2, 6488, Control_c, 0, 64, 127
2, 6491, Note_on_c, 0, 69, 0
2, 6501, Control_c, 0, 64, 0
2, 6505, Note_on_c, 0, 64, 0
2, 6521, Note_on_c, 0, 61, 0
2, 6536, Note_on_c, 0, 60, 66
2, 6571, Note_on_c, 0, 61, 63
2, 6581, Note_on_c, 0, 60, 0
2, 6596, Note_on_c, 0, 61, 0
2, 6597, Note_on_c, 0, 55, 0
2, 6609, Note_on_c, 0, 48, 0
2, 6609, Note_on_c, 0, 62, 57
2, 6631, Note_on_c, 0, 62, 0
2, 6648, Note_on_c, 0, 65, 66
2, 6665, Note_on_c, 0, 65, 0
2, 6686, Note_on_c, 0, 67, 71
2, 6712, Note_on_c, 0, 67, 0
2, 6729, Note_on_c, 0, 65, 63
2, 6754, Note_on_c, 0, 65, 0
2, 6764, Control_c, 0, 64, 127
2, 6808, Note_on_c, 0, 68, 60
2, 6808, Note_on_c, 0, 63, 64
2, 6809, Control_c, 0, 64, 0
2, 6810, Note_on_c, 0, 57, 60
2, 6810, Note_on_c, 0, 33, 47
2, 6812, Note_on_c, 0, 45, 40
2, 6842, Control_c, 0, 64, 127
2, 6898, Note_on_c, 0, 63, 0
2, 6899, Note_on_c, 0, 68, 0
2, 6915, Note_on_c, 0, 57, 0
2, 6933, Note_on_c, 0, 45, 0
2, 6934, Note_on_c, 0, 33, 0
2, 6972, Control_c, 0, 64, 0
2, 6974, Note_on_c, 0, 58, 36
2, 6974, Note_on_c, 0, 53, 32
2, 6974, Note_on_c, 0, 62, 38
2, 6976, Note_on_c, 0, 46, 42
2, 6981, Note_on_c, 0, 65, 34
2, 7013, Control_c, 0, 64, 127
2, 7023, Note_on_c, 0, 53, 0
2, 7041, Note_on_c, 0, 62, 0
2, 7047, Note_on_c, 0, 65, 0
2, 7052, Note_on_c, 0, 58, 0
2, 7052, Note_on_c, 0, 34, 34
2, 7075, Note_on_c, 0, 46, 0
2, 7081, Note_on_c, 0, 34, 0
2, 7092, Note_on_c, 0, 35, 38
2, 7093, Control_c, 0, 64, 0
2, 7094, Note_on_c, 0, 62, 33
2, 7097, Note_on_c, 0, 59, 38
2, 7097, Note_on_c, 0, 56, 28
2, 7098, Note_on_c, 0, 47, 22
2, 7122, Note_on_c, 0, 59, 0
2, 7133, Control_c, 0, 64, 127
2, 7139, Note_on_c, 0, 56, 0
2, 7143, Note_on_c, 0, 35, 0
2, 7145, Note_on_c, 0, 62, 0
2, 7151, Note_on_c, 0, 47, 0
2, 7170, Note_on_c, 0, 48, 52
2, 7172, Note_on_c, 0, 65, 38
2, 7172, Note_on_c, 0, 57, 49
2, 7173, Note_on_c, 0, 60, 49
2, 7181, Note_on_c, 0, 57, 0
2, 7193, Note_on_c, 0, 60, 0
2, 7193, Note_on_c, 0, 48, 0
2, 7199, Note_on_c, 0, 65, 0
2, 7199, Control_c, 0, 64, 0
2, 7249, Note_on_c, 0, 60, 63
2, 7251, Note_on_c, 0, 61, 73
2, 7255, Note_on_c, 0, 60, 0
2, 7262, Note_on_c, 0, 61, 0
2, 7262, Note_on_c, 0, 62, 68
2, 7294, Note_on_c, 0, 65, 85
2, 7302, Note_on_c, 0, 62, 0
2, 7316, Note_on_c, 0, 65, 0
2, 7334, Note_on_c, 0, 67, 79
2, 7363, Note_on_c, 0, 67, 0
2, 7369, Note_on_c, 0, 62, 50
2, 7387, Note_on_c, 0, 62, 0
2, 7405, Note_on_c, 0, 65, 89
2, 7434, Note_on_c, 0, 65, 0
2, 7442, Note_on_c, 0, 67, 56
2, 7464, Note_on_c, 0, 67, 0
2, 7482, Note_on_c, 0, 65, 85
2, 7519, Control_c, 0, 64, 127
2, 7572, Note_on_c, 0, 59, 53
2, 7612, Note_on_c, 0, 44, 28
2, 7633, Note_on_c, 0, 44, 0
2, 7645, Note_on_c, 0, 59, 0
2, 7661, Note_on_c, 0, 58, 46
2, 7667, Note_on_c, 0, 43, 42
2, 7672, Control_c, 0, 64, 0
2, 7683, Note_on_c, 0, 43, 0
2, 7690, Control_c, 0, 64, 127
2, 7718, Note_on_c, 0, 58, 0
2, 7736, Note_on_c, 0, 65, 0
2, 7804, Note_on_c, 0, 62, 39
2, 7806, Note_on_c, 0, 55, 32
2, 7807, Note_on_c, 0, 58, 29
2, 7811, Control_c, 0, 64, 0
2, 7815, Note_on_c, 0, 62, 0
2, 7816, Note_on_c, 0, 55, 0
2, 7827, Control_c, 0, 64, 127
2, 7835, Note_on_c, 0, 58, 0
2, 7841, Note_on_c, 0, 67, 45
2, 7860, Note_on_c, 0, 67, 0
2, 7880, Note_on_c, 0, 70, 88
2, 7916, Note_on_c, 0, 70, 0
2, 7916, Control_c, 0, 64, 0
2, 7921, Note_on_c, 0, 64, 33
2, 7922, Note_on_c, 0, 69, 64
2, 7924, Note_on_c, 0, 60, 34
2, 7924, Note_on_c, 0, 54, 31
2, 7936, Note_on_c, 0, 64, 0
2, 7944, Note_on_c, 0, 60, 0
2, 7946, Control_c, 0, 64, 127
2, 7955, Note_on_c, 0, 54, 0
2, 7986, Note_on_c, 0, 69, 0
2, 8001, Note_on_c, 0, 66, 58
2, 8003, Note_on_c, 0, 72, 46
2, 8005, Note_on_c, 0, 60, 37
2, 8007, Note_on_c, 0, 69, 29
2, 8011, Note_on_c, 0, 60, 0
2, 8015, Note_on_c, 0, 69, 0
2, 8016, Note_on_c, 0, 66, 0
2, 8019, Note_on_c, 0, 72, 0
2, 8039, Control_c, 0, 64, 0
2, 8043, Note_on_c, 0, 54, 35
2, 8085, Control_c, 0, 64, 127
2, 8123, Note_on_c, 0, 44, 38
2, 8137, Note_on_c, 0, 54, 0
2, 8142, Control_c, 0, 64, 0
2, 8163, Control_c, 0, 64, 127
2, 8166, Note_on_c, 0, 82, 51
2, 8169, Note_on_c, 0, 44, 0
2, 8169, Note_on_c, 0, 70, 32
2, 8170, Note_on_c, 0, 55, 35
2, 8178, Note_on_c, 0, 55, 0
2, 8184, Note_on_c, 0, 70, 0
2, 8196, Note_on_c, 0, 82, 0
2, 8199, Control_c, 0, 64, 0
2, 8232, Control_c, 0, 64, 127
2, 8241, Note_on_c, 0, 78, 53
2, 8245, Note_on_c, 0, 85, 46
2, 8247, Note_on_c, 0, 73, 39
2, 8251, Note_on_c, 0, 85, 0
2, 8254, Note_on_c, 0, 78, 0
2, 8255, Note_on_c, 0, 73, 0
2, 8256, Note_on_c, 0, 82, 29
2, 8257, Note_on_c, 0, 86, 58
2, 8258, Note_on_c, 0, 74, 55
2, 8260, Note_on_c, 0, 79, 30
2, 8279, Note_on_c, 0, 74, 0
2, 8282, Note_on_c, 0, 86, 0
2, 8282, Control_c, 0, 64, 0
2, 8285, Note_on_c, 0, 79, 0
2, 8288, Note_on_c, 0, 82, 0
2, 8290, Note_on_c, 0, 62, 32
2, 8294, Note_on_c, 0, 58, 37
2, 8295, Note_on_c, 0, 55, 29
2, 8311, Note_on_c, 0, 73, 33
2, 8313, Note_on_c, 0, 62, 0
2, 8317, Note_on_c, 0, 73, 0
2, 8321, Note_on_c, 0, 82, 23
2, 8321, Note_on_c, 0, 86, 42
2, 8322, Control_c, 0, 64, 127
2, 8322, Note_on_c, 0, 79, 31
2, 8324, Note_on_c, 0, 74, 31
2, 8328, Note_on_c, 0, 55, 0
2, 8336, Note_on_c, 0, 58, 0
2, 8339, Note_on_c, 0, 74, 0
2, 8341, Note_on_c, 0, 86, 0
2, 8349, Note_on_c, 0, 79, 0
2, 8350, Note_on_c, 0, 82, 0
2, 8376, Note_on_c, 0, 73, 57
2, 8381, Note_on_c, 0, 82, 31
2, 8382, Note_on_c, 0, 79, 46
2, 8382, Note_on_c, 0, 86, 50
2, 8386, Note_on_c, 0, 73, 0
2, 8389, Note_on_c, 0, 74, 48
2, 8404, Note_on_c, 0, 74, 0
2, 8408, Note_on_c, 0, 86, 0
2, 8411, Note_on_c, 0, 79, 0
2, 8413, Note_on_c, 0, 82, 0
2, 8418, Control_c, 0, 64, 0
2, 8424, Note_on_c, 0, 86, 60
2, 8424, Note_on_c, 0, 74, 33
2, 8426, Note_on_c, 0, 79, 58
2, 8427, Note_on_c, 0, 82, 52
2, 8457, Control_c, 0, 64, 127
2, 8507, Note_on_c, 0, 74, 0
2, 8510, Note_on_c, 0, 86, 0
2, 8516, Note_on_c, 0, 79, 0
2, 8525, Note_on_c, 0, 82, 0
2, 8538, Note_on_c, 0, 84, 30
2, 8540, Control_c, 0, 64, 0
2, 8541, Note_on_c, 0, 52, 58
2, 8542, Note_on_c, 0, 72, 55
2, 8542, Note_on_c, 0, 79, 37
2, 8576, Control_c, 0, 64, 127
2, 8598, Note_on_c, 0, 79, 0
2, 8613, Note_on_c, 0, 51, 38
2, 8622, Note_on_c, 0, 84, 0
2, 8623, Note_on_c, 0, 72, 0
2, 8641, Note_on_c, 0, 52, 0
2, 8645, Control_c, 0, 64, 0
2, 8650, Note_on_c, 0, 51, 0
2, 8653, Note_on_c, 0, 53, 47
2, 8656, Note_on_c, 0, 72, 52
2, 8657, Note_on_c, 0, 84, 40
2, 8658, Note_on_c, 0, 81, 45
2, 8663, Control_c, 0, 64, 127
2, 8666, Note_on_c, 0, 53, 0
2, 8669, Note_on_c, 0, 72, 0
2, 8675, Note_on_c, 0, 81, 0
2, 8677, Note_on_c, 0, 84, 0
2, 8732, Note_on_c, 0, 89, 83
2, 8733, Note_on_c, 0, 84, 82
2, 8734, Note_on_c, 0, 77, 75
2, 8759, Control_c, 0, 64, 0
2, 8763, Note_on_c, 0, 77, 0
2, 8765, Note_on_c, 0, 84, 0
2, 8765, Note_on_c, 0, 89, 0
2, 8771, Note_on_c, 0, 62, 34
2, 8772, Note_on_c, 0, 60, 29
2, 8773, Note_on_c, 0, 53, 32
2, 8778, Note_on_c, 0, 57, 26
2, 8782, Control_c, 0, 64, 127
2, 8785, Note_on_c, 0, 89, 57
2, 8787, Note_on_c, 0, 84, 50
2, 8788, Note_on_c, 0, 77, 43
2, 8811, Note_on_c, 0, 53, 0
2, 8816, Note_on_c, 0, 62, 0
2, 8816, Note_on_c, 0, 60, 0
2, 8817, Note_on_c, 0, 89, 0
2, 8817, Note_on_c, 0, 77, 0
2, 8817, Note_on_c, 0, 84, 0
2, 8821, Note_on_c, 0, 57, 0
2, 8850, Note_on_c, 0, 89, 75
2, 8853, Note_on_c, 0, 84, 64
2, 8853, Note_on_c, 0, 77, 57
2, 8872, Note_on_c, 0, 89, 0
2, 8873, Note_on_c, 0, 77, 0
2, 8875, Note_on_c, 0, 84, 0
2, 8894, Control_c, 0, 64, 0
2, 8896, Note_on_c, 0, 88, 68
2, 8898, Note_on_c, 0, 55, 54
2, 8898, Note_on_c, 0, 61, 55
2, 8898, Note_on_c, 0, 83, 64
2, 8900, Note_on_c, 0, 64, 46
2, 8900, Note_on_c, 0, 76, 41
2, 8912, Note_on_c, 0, 88, 0
2, 8916, Note_on_c, 0, 83, 0
2, 8917, Note_on_c, 0, 64, 0
2, 8920, Control_c, 0, 64, 127
2, 8925, Note_on_c, 0, 76, 0
2, 8930, Note_on_c, 0, 61, 0
2, 8935, Note_on_c, 0, 55, 0
2, 8979, Note_on_c, 0, 51, 48
2, 9007, Note_on_c, 0, 51, 0
2, 9014, Note_on_c, 0, 53, 32
2, 9014, Note_on_c, 0, 67, 71
2, 9016, Note_on_c, 0, 64, 74
2, 9016, Note_on_c, 0, 61, 76
2, 9016, Note_on_c, 0, 58, 80
2, 9019, Note_on_c, 0, 55, 79
2, 9020, Control_c, 0, 64, 0
2, 9022, Note_on_c, 0, 51, 21
2, 9023, Note_on_c, 0, 53, 0
2, 9028, Note_on_c, 0, 51, 0
2, 9055, Control_c, 0, 64, 127
2, 9081, Note_on_c, 0, 64, 0
2, 9092, Note_on_c, 0, 58, 0
2, 9098, Note_on_c, 0, 67, 0
2, 9102, Note_on_c, 0, 61, 0
2, 9109, Note_on_c, 0, 55, 0
2, 9136, Control_c, 0, 64, 0
2, 9137, Note_on_c, 0, 65, 63
2, 9138, Note_on_c, 0, 57, 53
2, 9139, Note_on_c, 0, 60, 60
2, 9139, Note_on_c, 0, 53, 57
2, 9160, Note_on_c, 0, 57, 0
2, 9161, Control_c, 0, 64, 127
2, 9165, Note_on_c, 0, 60, 0
2, 9169, Note_on_c, 0, 65, 0
2, 9214, Note_on_c, 0, 69, 72
2, 9214, Note_on_c, 0, 65, 74
2, 9215, Note_on_c, 0, 53, 0
2, 9216, Note_on_c, 0, 60, 64
2, 9216, Note_on_c, 0, 57, 71
2, 9222, Note_on_c, 0, 60, 0
2, 9229, Note_on_c, 0, 65, 0
2, 9231, Note_on_c, 0, 69, 0
2, 9237, Note_on_c, 0, 57, 0
2, 9258, Note_on_c, 0, 74, 58
2, 9259, Control_c, 0, 64, 0
2, 9260, Note_on_c, 0, 60, 62
2, 9264, Note_on_c, 0, 67, 46
2, 9265, Note_on_c, 0, 71, 31
2, 9266, Note_on_c, 0, 64, 30
2, 9278, Note_on_c, 0, 64, 0
2, 9279, Note_on_c, 0, 67, 0
2, 9282, Control_c, 0, 64, 127
2, 9284, Note_on_c, 0, 71, 0
2, 9287, Note_on_c, 0, 74, 0
2, 9328, Note_on_c, 0, 60, 0
2, 9336, Note_on_c, 0, 76, 71
2, 9337, Note_on_c, 0, 73, 74
2, 9337, Note_on_c, 0, 64, 83
2, 9337, Note_on_c, 0, 79, 70
2, 9339, Note_on_c, 0, 69, 76
2, 9342, Control_c, 0, 64, 0
2, 9374, Control_c, 0, 64, 127
2, 9390, Note_on_c, 0, 76, 0
2, 9394, Note_on_c, 0, 79, 0
2, 9396, Note_on_c, 0, 73, 0
2, 9398, Note_on_c, 0, 69, 0
2, 9412, Note_on_c, 0, 77, 65
2, 9413, Note_on_c, 0, 69, 60
2, 9416, Note_on_c, 0, 72, 69
2, 9419, Note_on_c, 0, 62, 54
2, 9426, Note_on_c, 0, 64, 0
2, 9438, Note_on_c, 0, 72, 0
2, 9444, Note_on_c, 0, 77, 0
2, 9448, Note_on_c, 0, 69, 0
2, 9472, Note_on_c, 0, 62, 0
2, 9488, Control_c, 0, 64, 0
2, 9492, Note_on_c, 0, 65, 45
2, 9492, Note_on_c, 0, 69, 55
2, 9492, Note_on_c, 0, 72, 48
2, 9499, Note_on_c, 0, 57, 28
2, 9507, Note_on_c, 0, 57, 0
2, 9508, Control_c, 0, 64, 127
2, 9541, Note_on_c, 0, 65, 0
2, 9550, Note_on_c, 0, 69, 0
2, 9554, Note_on_c, 0, 72, 0
2, 9579, Note_on_c, 0, 54, 28
2, 9594, Note_on_c, 0, 54, 0
2, 9609, Control_c, 0, 64, 0
2, 9614, Note_on_c, 0, 64, 32
2, 9617, Note_on_c, 0, 53, 38
2, 9618, Note_on_c, 0, 79, 36
2, 9619, Note_on_c, 0, 86, 34
2, 9620, Note_on_c, 0, 59, 40
2, 9623, Note_on_c, 0, 91, 25
2, 9641, Control_c, 0, 64, 127
2, 9645, Control_c, 0, 64, 0
2, 9655, Note_on_c, 0, 79, 0
2, 9656, Note_on_c, 0, 59, 0
2, 9657, Note_on_c, 0, 53, 0
2, 9658, Note_on_c, 0, 86, 0
2, 9659, Note_on_c, 0, 91, 0
2, 9671, Note_on_c, 0, 64, 0
2, 9681, Control_c, 0, 64, 127
2, 9723, Control_c, 0, 64, 0
2, 9736, Note_on_c, 0, 93, 38
2, 9736, Note_on_c, 0, 81, 34
2, 9737, Note_on_c, 0, 64, 34
2, 9737, Note_on_c, 0, 88, 40
2, 9741, Note_on_c, 0, 53, 32
2, 9741, Note_on_c, 0, 59, 34
2, 9753, Note_on_c, 0, 93, 0
2, 9761, Note_on_c, 0, 64, 0
2, 9762, Note_on_c, 0, 88, 0
2, 9762, Note_on_c, 0, 59, 0
2, 9770, Note_on_c, 0, 81, 0
2, 9773, Note_on_c, 0, 53, 0
2, 9807, Control_c, 0, 64, 127
2, 9824, Note_on_c, 0, 50, 40
2, 9848, Note_on_c, 0, 50, 0
2, 9858, Note_on_c, 0, 57, 32
2, 9860, Control_c, 0, 64, 0
2, 9862, Note_on_c, 0, 60, 26
2, 9863, Note_on_c, 0, 53, 32
2, 9876, Note_on_c, 0, 57, 0
2, 9883, Note_on_c, 0, 60, 0
2, 9917, Control_c, 0, 64, 127
2, 9937, Note_on_c, 0, 53, 0
2, 9944, Note_on_c, 0, 64, 67
2, 9945, Note_on_c, 0, 55, 66
2, 9946, Note_on_c, 0, 59, 61
2, 9978, Note_on_c, 0, 55, 0
2, 9979, Note_on_c, 0, 52, 35
2, 9982, Note_on_c, 0, 59, 0
2, 9983, Note_on_c, 0, 64, 0
2, 9984, Control_c, 0, 64, 0
2, 10019, Note_on_c, 0, 57, 54
2, 10019, Note_on_c, 0, 65, 58
2, 10023, Note_on_c, 0, 62, 46
2, 10023, Note_on_c, 0, 60, 41
2, 10030, Note_on_c, 0, 62, 0
2, 10037, Note_on_c, 0, 60, 0
2, 10039, Note_on_c, 0, 52, 0
2, 10044, Control_c, 0, 64, 127
2, 10045, Note_on_c, 0, 65, 0
2, 10052, Note_on_c, 0, 57, 0
2, 10061, Note_on_c, 0, 50, 40
2, 10098, Control_c, 0, 64, 0
2, 10098, Note_on_c, 0, 53, 45
2, 10099, Note_on_c, 0, 64, 48
2, 10099, Note_on_c, 0, 59, 51
2, 10102, Note_on_c, 0, 43, 38
2, 10138, Control_c, 0, 64, 127
2, 10143, Note_on_c, 0, 53, 0
2, 10157, Note_on_c, 0, 64, 0
2, 10168, Note_on_c, 0, 59, 0
2, 10216, Note_on_c, 0, 50, 0
2, 10216, Note_on_c, 0, 53, 45
2, 10217, Note_on_c, 0, 59, 44
2, 10218, Note_on_c, 0, 62, 45
2, 10219, Note_on_c, 0, 57, 34
2, 10219, Note_on_c, 0, 65, 46
2, 10223, Control_c, 0, 64, 0
2, 10240, Note_on_c, 0, 62, 0
2, 10250, Note_on_c, 0, 65, 0
2, 10252, Note_on_c, 0, 59, 0
2, 10261, Control_c, 0, 64, 127
2, 10263, Note_on_c, 0, 57, 0
2, 10264, Note_on_c, 0, 53, 0
2, 10295, Note_on_c, 0, 62, 59
2, 10296, Note_on_c, 0, 59, 46
2, 10297, Note_on_c, 0, 53, 41
2, 10297, Note_on_c, 0, 57, 43
2, 10324, Note_on_c, 0, 43, 0
2, 10330, Note_on_c, 0, 50, 37
2, 10333, Control_c, 0, 64, 0
2, 10368, Note_on_c, 0, 50, 0
2, 10393, Control_c, 0, 64, 127
2, 10423, Note_on_c, 0, 50, 45
2, 10445, Note_on_c, 0, 50, 0
2, 10467, Control_c, 0, 64, 0
2, 10541, Note_on_c, 0, 53, 0
2, 10541, Control_c, 0, 64, 127
2, 10545, Note_on_c, 0, 47, 74
2, 10545, Note_on_c, 0, 48, 75
2, 10559, Note_on_c, 0, 47, 0
2, 10563, Control_c, 0, 64, 0
2, 10571, Note_on_c, 0, 57, 0
2, 10579, Note_on_c, 0, 59, 0
2, 10585, Note_on_c, 0, 62, 0
2, 10631, Control_c, 0, 64, 127
2, 10661, Note_on_c, 0, 36, 58
2, 10665, Note_on_c, 0, 64, 71
2, 10666, Note_on_c, 0, 76, 51
2, 10668, Note_on_c, 0, 36, 0
2, 10679, Note_on_c, 0, 48, 0
2, 10681, Note_on_c, 0, 64, 0
2, 10683, Note_on_c, 0, 76, 0
2, 10709, Note_on_c, 0, 77, 58
2, 10709, Note_on_c, 0, 65, 64
2, 10730, Note_on_c, 0, 77, 0
2, 10755, Note_on_c, 0, 65, 0
2, 10824, Control_c, 0, 64, 0
2, 10826, Note_on_c, 0, 62, 48
2, 10826, Note_on_c, 0, 66, 33
2, 10826, Note_on_c, 0, 74, 35
2, 10828, Note_on_c, 0, 60, 41
2, 10828, Note_on_c, 0, 69, 49
2, 10831, Note_on_c, 0, 50, 33
2, 10832, Note_on_c, 0, 54, 34
2, 10859, Control_c, 0, 64, 127
2, 10886, Note_on_c, 0, 62, 0
2, 10887, Note_on_c, 0, 69, 0
2, 10892, Note_on_c, 0, 66, 0
2, 10897, Note_on_c, 0, 74, 0
2, 10904, Note_on_c, 0, 60, 0
2, 10925, Note_on_c, 0, 54, 0
2, 10947, Note_on_c, 0, 54, 15
2, 10952, Note_on_c, 0, 60, 55
2, 10970, Note_on_c, 0, 50, 0
2, 10982, Note_on_c, 0, 54, 0
2, 10983, Note_on_c, 0, 60, 0
2, 11020, Note_on_c, 0, 76, 80
2, 11053, Note_on_c, 0, 76, 0
2, 11059, Note_on_c, 0, 55, 33
2, 11061, Control_c, 0, 64, 0
2, 11061, Note_on_c, 0, 62, 30
2, 11062, Note_on_c, 0, 58, 36
2, 11064, Note_on_c, 0, 53, 30
2, 11067, Note_on_c, 0, 72, 45
2, 11104, Note_on_c, 0, 53, 0
2, 11117, Control_c, 0, 64, 127
2, 11120, Note_on_c, 0, 62, 0
2, 11122, Note_on_c, 0, 55, 0
2, 11125, Note_on_c, 0, 58, 0
2, 11129, Note_on_c, 0, 72, 0
2, 11137, Note_on_c, 0, 74, 65
2, 11169, Note_on_c, 0, 74, 0
2, 11175, Control_c, 0, 64, 0
2, 11178, Note_on_c, 0, 62, 34
2, 11181, Note_on_c, 0, 58, 29
2, 11182, Note_on_c, 0, 70, 49
2, 11184, Note_on_c, 0, 53, 28
2, 11186, Note_on_c, 0, 55, 22
2, 11230, Note_on_c, 0, 53, 0
2, 11234, Note_on_c, 0, 55, 0
2, 11235, Note_on_c, 0, 62, 0
2, 11237, Note_on_c, 0, 70, 0
2, 11239, Control_c, 0, 64, 127
2, 11246, Note_on_c, 0, 58, 0
2, 11256, Note_on_c, 0, 70, 62
2, 11278, Note_on_c, 0, 70, 0
2, 11289, Note_on_c, 0, 58, 48
2, 11289, Note_on_c, 0, 62, 44
2, 11290, Control_c, 0, 64, 0
2, 11296, Note_on_c, 0, 52, 36
2, 11297, Note_on_c, 0, 62, 0
2, 11308, Note_on_c, 0, 58, 0
2, 11313, Note_on_c, 0, 52, 0
2, 11371, Note_on_c, 0, 74, 71
2, 11372, Note_on_c, 0, 73, 49
2, 11372, Note_on_c, 0, 48, 73
2, 11373, Note_on_c, 0, 47, 62
2, 11378, Note_on_c, 0, 73, 0
2, 11385, Note_on_c, 0, 47, 0
2, 11413, Control_c, 0, 64, 127
2, 11430, Note_on_c, 0, 48, 0
2, 11434, Note_on_c, 0, 74, 0
2, 11487, Note_on_c, 0, 91, 84
2, 11487, Note_on_c, 0, 79, 78
2, 11514, Control_c, 0, 64, 0
2, 11528, Note_on_c, 0, 41, 24
2, 11532, Note_on_c, 0, 48, 30
2, 11537, Control_c, 0, 64, 127
2, 11537, Note_on_c, 0, 57, 30
2, 11549, Note_on_c, 0, 57, 0
2, 11553, Note_on_c, 0, 41, 0
2, 11555, Note_on_c, 0, 48, 0
2, 11587, Note_on_c, 0, 91, 0
2, 11589, Note_on_c, 0, 79, 0
2, 11613, Note_on_c, 0, 91, 61
2, 11615, Note_on_c, 0, 79, 49
2, 11642, Control_c, 0, 64, 0
2, 11642, Note_on_c, 0, 64, 46
2, 11650, Note_on_c, 0, 60, 20
2, 11651, Note_on_c, 0, 64, 0
2, 11656, Control_c, 0, 64, 127
2, 11657, Note_on_c, 0, 60, 0
2, 11719, Note_on_c, 0, 91, 0
2, 11719, Note_on_c, 0, 48, 45
2, 11730, Note_on_c, 0, 79, 0
2, 11750, Note_on_c, 0, 48, 0
2, 11756, Control_c, 0, 64, 0
2, 11760, Note_on_c, 0, 50, 52
2, 11760, Note_on_c, 0, 89, 57
2, 11764, Note_on_c, 0, 77, 36
2, 11771, Note_on_c, 0, 50, 0
2, 11775, Control_c, 0, 64, 127
2, 11817, Note_on_c, 0, 89, 0
2, 11818, Note_on_c, 0, 77, 0
2, 11841, Note_on_c, 0, 89, 56
2, 11843, Note_on_c, 0, 77, 53
2, 11862, Note_on_c, 0, 89, 0
2, 11875, Control_c, 0, 64, 0
2, 11876, Note_on_c, 0, 77, 0
2, 11876, Note_on_c, 0, 60, 38
2, 11877, Note_on_c, 0, 62, 46
2, 11881, Note_on_c, 0, 57, 32
2, 11883, Note_on_c, 0, 53, 24
2, 11886, Control_c, 0, 64, 127
2, 11892, Note_on_c, 0, 62, 0
2, 11895, Note_on_c, 0, 60, 0
2, 11903, Note_on_c, 0, 57, 0
2, 11913, Note_on_c, 0, 53, 0
2, 11962, Note_on_c, 0, 47, 61
2, 11968, Note_on_c, 0, 47, 0
2, 11993, Note_on_c, 0, 47, 19
2, 11999, Note_on_c, 0, 76, 76
2, 12000, Note_on_c, 0, 71, 72
2, 12002, Note_on_c, 0, 56, 68
2, 12002, Note_on_c, 0, 65, 84
2, 12002, Note_on_c, 0, 68, 70
2, 12003, Control_c, 0, 64, 0
2, 12026, Note_on_c, 0, 47, 0
2, 12034, Control_c, 0, 64, 127
2, 12036, Note_on_c, 0, 56, 0
2, 12057, Note_on_c, 0, 76, 0
2, 12058, Note_on_c, 0, 65, 0
2, 12061, Note_on_c, 0, 68, 0
2, 12064, Note_on_c, 0, 71, 0
2, 12080, Note_on_c, 0, 75, 79
2, 12080, Note_on_c, 0, 71, 60
2, 12083, Note_on_c, 0, 68, 60
2, 12083, Note_on_c, 0, 65, 72
2, 12084, Note_on_c, 0, 64, 44
2, 12085, Note_on_c, 0, 63, 63
2, 12090, Note_on_c, 0, 64, 0
2, 12116, Note_on_c, 0, 65, 0
2, 12117, Note_on_c, 0, 75, 0
2, 12119, Note_on_c, 0, 63, 0
2, 12123, Note_on_c, 0, 62, 62
2, 12125, Note_on_c, 0, 74, 49
2, 12125, Note_on_c, 0, 65, 36
2, 12126, Control_c, 0, 64, 0
2, 12129, Note_on_c, 0, 73, 29
2, 12151, Control_c, 0, 64, 127
2, 12164, Note_on_c, 0, 74, 0
2, 12164, Note_on_c, 0, 71, 0
2, 12171, Note_on_c, 0, 62, 0
2, 12171, Note_on_c, 0, 73, 0
2, 12178, Note_on_c, 0, 68, 0
2, 12193, Note_on_c, 0, 65, 0
2, 12206, Note_on_c, 0, 56, 33
2, 12232, Note_on_c, 0, 56, 0
2, 12243, Note_on_c, 0, 62, 57
2, 12243, Control_c, 0, 64, 0
2, 12243, Note_on_c, 0, 71, 45
2, 12244, Note_on_c, 0, 65, 63
2, 12244, Note_on_c, 0, 59, 49
2, 12246, Note_on_c, 0, 68, 37
2, 12274, Note_on_c, 0, 59, 0
2, 12274, Control_c, 0, 64, 127
2, 12287, Note_on_c, 0, 71, 0
2, 12292, Note_on_c, 0, 65, 0
2, 12299, Note_on_c, 0, 68, 0
2, 12310, Note_on_c, 0, 62, 0
2, 12322, Note_on_c, 0, 50, 56
2, 12350, Note_on_c, 0, 50, 0
2, 12363, Note_on_c, 0, 54, 54
2, 12365, Note_on_c, 0, 59, 55
2, 12368, Note_on_c, 0, 44, 34
2, 12369, Control_c, 0, 64, 0
2, 12400, Control_c, 0, 64, 127
2, 12417, Note_on_c, 0, 44, 0
2, 12447, Note_on_c, 0, 44, 33
2, 12467, Note_on_c, 0, 54, 0
2, 12476, Note_on_c, 0, 59, 0
2, 12478, Note_on_c, 0, 44, 0
2, 12478, Control_c, 0, 64, 0
2, 12488, Note_on_c, 0, 58, 57
2, 12496, Control_c, 0, 64, 127
2, 12497, Note_on_c, 0, 53, 17
2, 12500, Note_on_c, 0, 58, 0
2, 12512, Note_on_c, 0, 53, 0
2, 12566, Note_on_c, 0, 77, 81
2, 12596, Note_on_c, 0, 77, 0
2, 12608, Note_on_c, 0, 72, 34
2, 12617, Control_c, 0, 64, 0
2, 12631, Note_on_c, 0, 73, 21
2, 12646, Note_on_c, 0, 72, 0
2, 12652, Note_on_c, 0, 73, 0
2, 12655, Note_on_c, 0, 74, 38
2, 12678, Note_on_c, 0, 74, 0
2, 12687, Control_c, 0, 64, 127
2, 12692, Note_on_c, 0, 77, 80
2, 12724, Note_on_c, 0, 58, 39
2, 12725, Note_on_c, 0, 62, 40
2, 12729, Control_c, 0, 64, 0
2, 12729, Note_on_c, 0, 57, 24
2, 12731, Note_on_c, 0, 72, 35
2, 12737, Note_on_c, 0, 62, 0
2, 12738, Note_on_c, 0, 57, 0
2, 12745, Note_on_c, 0, 77, 0
2, 12749, Note_on_c, 0, 73, 33
2, 12750, Note_on_c, 0, 58, 0
2, 12766, Note_on_c, 0, 73, 0
2, 12770, Note_on_c, 0, 74, 35
2, 12773, Note_on_c, 0, 72, 0
2, 12785, Note_on_c, 0, 74, 0
2, 12806, Note_on_c, 0, 62, 59
2, 12808, Note_on_c, 0, 64, 48
2, 12817, Control_c, 0, 64, 127
2, 12832, Note_on_c, 0, 64, 0
2, 12846, Note_on_c, 0, 58, 37
2, 12852, Note_on_c, 0, 55, 33
2, 12855, Control_c, 0, 64, 0
2, 12857, Note_on_c, 0, 58, 0
2, 12859, Note_on_c, 0, 55, 0
2, 12884, Note_on_c, 0, 62, 0
2, 12886, Control_c, 0, 64, 127
2, 12890, Note_on_c, 0, 65, 64
2, 12900, Control_c, 0, 64, 0
2, 12915, Note_on_c, 0, 65, 0
2, 12923, Control_c, 0, 64, 127
2, 12929, Note_on_c, 0, 58, 37
2, 12929, Note_on_c, 0, 67, 69
2, 12942, Note_on_c, 0, 58, 0
2, 12945, Note_on_c, 0, 67, 0
2, 12967, Note_on_c, 0, 72, 59
2, 12969, Note_on_c, 0, 62, 49
2, 12969, Note_on_c, 0, 67, 33
2, 12971, Control_c, 0, 64, 0
2, 12971, Note_on_c, 0, 58, 53
2, 12975, Note_on_c, 0, 64, 27
2, 12975, Note_on_c, 0, 52, 58
2, 12981, Note_on_c, 0, 64, 0
2, 13023, Control_c, 0, 64, 127
2, 13044, Note_on_c, 0, 52, 0
2, 13044, Note_on_c, 0, 48, 74
2, 13060, Note_on_c, 0, 58, 0
2, 13068, Note_on_c, 0, 48, 0
2, 13097, Note_on_c, 0, 48, 63
2, 13106, Note_on_c, 0, 72, 0
2, 13110, Note_on_c, 0, 67, 0
2, 13118, Note_on_c, 0, 62, 0
2, 13121, Note_on_c, 0, 48, 0
2, 13149, Control_c, 0, 64, 0
2, 13172, Note_on_c, 0, 49, 72
2, 13194, Note_on_c, 0, 49, 0
2, 13216, Note_on_c, 0, 50, 64
2, 13222, Note_on_c, 0, 50, 0
2, 13291, Note_on_c, 0, 54, 57
2, 13291, Note_on_c, 0, 65, 60
2, 13293, Note_on_c, 0, 26, 47
2, 13293, Note_on_c, 0, 58, 55
2, 13294, Note_on_c, 0, 38, 44
2, 13294, Note_on_c, 0, 60, 58
2, 13322, Control_c, 0, 64, 127
2, 13342, Note_on_c, 0, 26, 0
2, 13352, Note_on_c, 0, 38, 0
2, 13385, Note_on_c, 0, 60, 0
2, 13388, Note_on_c, 0, 54, 0
2, 13393, Note_on_c, 0, 65, 0
2, 13400, Note_on_c, 0, 58, 0
2, 13412, Note_on_c, 0, 50, 33
2, 13433, Note_on_c, 0, 50, 0
2, 13440, Control_c, 0, 64, 0
2, 13454, Note_on_c, 0, 43, 40
2, 13454, Note_on_c, 0, 62, 37
2, 13454, Note_on_c, 0, 58, 36
2, 13456, Note_on_c, 0, 53, 34
2, 13462, Note_on_c, 0, 43, 0
2, 13463, Control_c, 0, 64, 127
2, 13465, Note_on_c, 0, 53, 0
2, 13474, Note_on_c, 0, 62, 0
2, 13475, Note_on_c, 0, 58, 0
2, 13534, Note_on_c, 0, 60, 82
2, 13534, Note_on_c, 0, 65, 88
2, 13535, Note_on_c, 0, 62, 88
2, 13535, Note_on_c, 0, 72, 81
2, 13536, Note_on_c, 0, 69, 74
2, 13565, Note_on_c, 0, 62, 0
2, 13566, Note_on_c, 0, 60, 0
2, 13566, Control_c, 0, 64, 0
2, 13567, Note_on_c, 0, 65, 0
2, 13568, Note_on_c, 0, 72, 0
2, 13569, Note_on_c, 0, 69, 0
2, 13584, Note_on_c, 0, 65, 66
2, 13585, Note_on_c, 0, 72, 43
2, 13585, Note_on_c, 0, 62, 55
2, 13586, Note_on_c, 0, 60, 54
2, 13589, Note_on_c, 0, 69, 27
2, 13592, Note_on_c, 0, 72, 0
2, 13593, Note_on_c, 0, 60, 0
2, 13596, Note_on_c, 0, 69, 0
2, 13598, Note_on_c, 0, 65, 0
2, 13600, Note_on_c, 0, 62, 0
2, 13628, Control_c, 0, 64, 127
2, 13651, Control_c, 0, 64, 0
2, 13661, Note_on_c, 0, 69, 65
2, 13662, Note_on_c, 0, 61, 56
2, 13664, Note_on_c, 0, 48, 50
2, 13664, Note_on_c, 0, 58, 34
2, 13665, Note_on_c, 0, 57, 41
2, 13667, Note_on_c, 0, 64, 50
2, 13674, Note_on_c, 0, 58, 0
2, 13675, Note_on_c, 0, 64, 0
2, 13676, Note_on_c, 0, 57, 0
2, 13677, Note_on_c, 0, 61, 0
2, 13681, Note_on_c, 0, 48, 0
2, 13682, Note_on_c, 0, 69, 0
2, 13735, Note_on_c, 0, 69, 50
2, 13736, Note_on_c, 0, 58, 36
2, 13736, Note_on_c, 0, 61, 46
2, 13737, Note_on_c, 0, 48, 43
2, 13739, Note_on_c, 0, 64, 50
2, 13739, Note_on_c, 0, 57, 43
2, 13749, Note_on_c, 0, 64, 0
2, 13751, Note_on_c, 0, 58, 0
2, 13752, Note_on_c, 0, 61, 0
2, 13754, Note_on_c, 0, 57, 0
2, 13754, Note_on_c, 0, 48, 0
2, 13758, Control_c, 0, 64, 127
2, 13760, Note_on_c, 0, 69, 0
2, 13768, Control_c, 0, 64, 0
2, 13814, Note_on_c, 0, 69, 53
2, 13815, Note_on_c, 0, 58, 45
2, 13816, Note_on_c, 0, 61, 53
2, 13816, Note_on_c, 0, 64, 54
2, 13817, Note_on_c, 0, 48, 47
2, 13817, Note_on_c, 0, 57, 47
2, 13826, Control_c, 0, 64, 127
2, 13829, Note_on_c, 0, 57, 0
2, 13836, Note_on_c, 0, 48, 0
2, 13840, Note_on_c, 0, 61, 0
2, 13840, Note_on_c, 0, 58, 0
2, 13846, Note_on_c, 0, 69, 0
2, 13850, Note_on_c, 0, 64, 0
2, 13888, Note_on_c, 0, 31, 77
2, 13890, Note_on_c, 0, 33, 70
2, 13893, Control_c, 0, 64, 0
2, 13908, Note_on_c, 0, 31, 0
2, 13909, Note_on_c, 0, 33, 0
2, 13913, Control_c, 0, 64, 127
2, 14005, Note_on_c, 0, 57, 96
2, 14006, Note_on_c, 0, 56, 70
2, 14007, Note_on_c, 0, 62, 91
2, 14007, Note_on_c, 0, 65, 87
2, 14007, Note_on_c, 0, 69, 79
2, 14008, Note_on_c, 0, 72, 80
2, 14019, Control_c, 0, 64, 0
2, 14033, Note_on_c, 0, 56, 0
2, 14034, Note_on_c, 0, 62, 0
2, 14041, Note_on_c, 0, 72, 0
2, 14041, Control_c, 0, 64, 127
2, 14042, Note_on_c, 0, 65, 0
2, 14046, Note_on_c, 0, 69, 0
2, 14061, Note_on_c, 0, 62, 46
2, 14072, Note_on_c, 0, 62, 0
2, 14117, Note_on_c, 0, 57, 0
2, 14124, Note_on_c, 0, 58, 72
2, 14127, Note_on_c, 0, 61, 60
2, 14128, Note_on_c, 0, 55, 60
2, 14129, Note_on_c, 0, 69, 64
2, 14129, Note_on_c, 0, 48, 58
2, 14130, Note_on_c, 0, 64, 54
2, 14130, Note_on_c, 0, 68, 26
2, 14146, Control_c, 0, 64, 0
2, 14153, Note_on_c, 0, 69, 0
2, 14158, Note_on_c, 0, 58, 0
2, 14168, Note_on_c, 0, 64, 0
2, 14180, Note_on_c, 0, 68, 0
2, 14199, Note_on_c, 0, 61, 0
2, 14211, Note_on_c, 0, 60, 81
2, 14241, Note_on_c, 0, 55, 0
2, 14246, Note_on_c, 0, 61, 71
2, 14255, Note_on_c, 0, 60, 0
2, 14262, Note_on_c, 0, 48, 0
2, 14271, Note_on_c, 0, 61, 0
2, 14282, Note_on_c, 0, 62, 68
2, 14301, Note_on_c, 0, 62, 0
2, 14318, Note_on_c, 0, 65, 68
2, 14336, Note_on_c, 0, 65, 0
2, 14357, Note_on_c, 0, 67, 68
2, 14379, Note_on_c, 0, 67, 0
2, 14397, Note_on_c, 0, 65, 60
2, 14413, Control_c, 0, 64, 127
2, 14455, Note_on_c, 0, 65, 0
2, 14469, Note_on_c, 0, 46, 23
2, 14475, Note_on_c, 0, 57, 52
2, 14476, Note_on_c, 0, 62, 40
2, 14477, Note_on_c, 0, 47, 44
2, 14478, Note_on_c, 0, 46, 0
2, 14480, Note_on_c, 0, 65, 24
2, 14497, Note_on_c, 0, 57, 0
2, 14507, Note_on_c, 0, 65, 0
2, 14519, Note_on_c, 0, 62, 0
2, 14519, Control_c, 0, 64, 0
2, 14524, Note_on_c, 0, 47, 0
2, 14525, Note_on_c, 0, 61, 43
2, 14526, Note_on_c, 0, 56, 28
2, 14527, Note_on_c, 0, 46, 33
2, 14542, Note_on_c, 0, 65, 20
2, 14575, Control_c, 0, 64, 127
2, 14607, Note_on_c, 0, 56, 0
2, 14613, Note_on_c, 0, 65, 0
2, 14615, Note_on_c, 0, 44, 26
2, 14621, Note_on_c, 0, 61, 0
2, 14636, Note_on_c, 0, 46, 0
2, 14644, Control_c, 0, 64, 0
2, 14646, Note_on_c, 0, 44, 0
2, 14646, Note_on_c, 0, 45, 37
2, 14648, Note_on_c, 0, 65, 34
2, 14648, Note_on_c, 0, 60, 42
2, 14649, Note_on_c, 0, 55, 45
2, 14684, Control_c, 0, 64, 127
2, 14705, Note_on_c, 0, 55, 0
2, 14715, Note_on_c, 0, 60, 0
2, 14745, Note_on_c, 0, 65, 0
2, 14768, Note_on_c, 0, 54, 38
2, 14768, Control_c, 0, 64, 0
2, 14768, Note_on_c, 0, 65, 32
2, 14769, Note_on_c, 0, 45, 0
2, 14772, Note_on_c, 0, 44, 28
2, 14772, Note_on_c, 0, 59, 44
2, 14808, Control_c, 0, 64, 127
2, 14830, Note_on_c, 0, 54, 0
2, 14835, Note_on_c, 0, 59, 0
2, 14857, Note_on_c, 0, 65, 0
2, 14859, Note_on_c, 0, 42, 32
2, 14884, Note_on_c, 0, 42, 0
2, 14886, Note_on_c, 0, 44, 0
2, 14886, Control_c, 0, 64, 0
2, 14887, Note_on_c, 0, 43, 41
2, 14887, Note_on_c, 0, 65, 30
2, 14889, Note_on_c, 0, 53, 45
2, 14891, Note_on_c, 0, 58, 45
2, 14906, Note_on_c, 0, 43, 0
2, 14942, Note_on_c, 0, 65, 0
2, 14951, Note_on_c, 0, 53, 0
2, 14951, Control_c, 0, 64, 127
2, 14956, Note_on_c, 0, 58, 0
2, 14969, Note_on_c, 0, 24, 83
2, 14988, Control_c, 0, 64, 0
2, 15020, Note_on_c, 0, 63, 53
2, 15022, Note_on_c, 0, 52, 52
2, 15023, Note_on_c, 0, 58, 53
2, 15079, Control_c, 0, 64, 127
2, 15115, Control_c, 0, 64, 0
2, 15124, Control_c, 0, 64, 127
2, 15127, Note_on_c, 0, 52, 0
2, 15144, Note_on_c, 0, 58, 0
2, 15150, Note_on_c, 0, 63, 0
2, 15158, Note_on_c, 0, 24, 0
2, 15189, Note_on_c, 0, 72, 64
2, 15219, Note_on_c, 0, 73, 69
2, 15229, Note_on_c, 0, 72, 0
2, 15244, Note_on_c, 0, 73, 0
2, 15255, Note_on_c, 0, 74, 48
2, 15275, Note_on_c, 0, 74, 0
2, 15296, Note_on_c, 0, 77, 37
2, 15315, Note_on_c, 0, 77, 0
2, 15334, Note_on_c, 0, 79, 37
2, 15351, Note_on_c, 0, 79, 0
2, 15371, Note_on_c, 0, 41, 35
2, 15372, Note_on_c, 0, 48, 35
2, 15375, Control_c, 0, 64, 0
2, 15376, Note_on_c, 0, 67, 40
2, 15378, Note_on_c, 0, 79, 27
2, 15383, Note_on_c, 0, 76, 22
2, 15392, Note_on_c, 0, 41, 0
2, 15400, Note_on_c, 0, 48, 0
2, 15400, Note_on_c, 0, 67, 0
2, 15406, Control_c, 0, 64, 127
2, 15443, Note_on_c, 0, 76, 0
2, 15451, Note_on_c, 0, 79, 0
2, 15492, Control_c, 0, 64, 0
2, 15499, Note_on_c, 0, 79, 32
2, 15501, Note_on_c, 0, 64, 29
2, 15502, Note_on_c, 0, 76, 30
2, 15503, Note_on_c, 0, 60, 25
2, 15506, Note_on_c, 0, 57, 28
2, 15506, Note_on_c, 0, 53, 15
2, 15507, Note_on_c, 0, 72, 25
2, 15519, Note_on_c, 0, 72, 0
2, 15529, Note_on_c, 0, 79, 0
2, 15530, Note_on_c, 0, 76, 0
2, 15552, Control_c, 0, 64, 127
2, 15563, Note_on_c, 0, 64, 0
2, 15569, Note_on_c, 0, 57, 0
2, 15572, Note_on_c, 0, 60, 0
2, 15573, Note_on_c, 0, 53, 0
2, 15584, Note_on_c, 0, 79, 42
2, 15585, Note_on_c, 0, 76, 36
2, 15587, Note_on_c, 0, 67, 36
2, 15588, Note_on_c, 0, 72, 53
2, 15617, Control_c, 0, 64, 0
2, 15620, Note_on_c, 0, 76, 0
2, 15620, Note_on_c, 0, 79, 0
2, 15621, Note_on_c, 0, 62, 29
2, 15623, Note_on_c, 0, 67, 0
2, 15626, Note_on_c, 0, 72, 0
2, 15626, Note_on_c, 0, 60, 26
2, 15629, Note_on_c, 0, 57, 26
2, 15654, Note_on_c, 0, 62, 0
2, 15658, Note_on_c, 0, 77, 42
2, 15659, Note_on_c, 0, 65, 39
2, 15661, Note_on_c, 0, 72, 37
2, 15663, Note_on_c, 0, 74, 32
2, 15666, Control_c, 0, 64, 127
2, 15679, Note_on_c, 0, 60, 0
2, 15680, Note_on_c, 0, 57, 0
2, 15689, Note_on_c, 0, 65, 0
2, 15690, Note_on_c, 0, 72, 0
2, 15696, Note_on_c, 0, 74, 0
2, 15696, Note_on_c, 0, 77, 0
2, 15734, Control_c, 0, 64, 0
2, 15738, Note_on_c, 0, 77, 41
2, 15738, Note_on_c, 0, 62, 47
2, 15741, Note_on_c, 0, 65, 38
2, 15742, Note_on_c, 0, 72, 42
2, 15742, Note_on_c, 0, 60, 38
2, 15744, Note_on_c, 0, 53, 19
2, 15745, Note_on_c, 0, 74, 27
2, 15745, Note_on_c, 0, 57, 41
2, 15757, Note_on_c, 0, 53, 0
2, 15757, Note_on_c, 0, 62, 0
2, 15774, Note_on_c, 0, 72, 0
2, 15774, Note_on_c, 0, 65, 0
2, 15776, Note_on_c, 0, 74, 0
2, 15782, Control_c, 0, 64, 127
2, 15784, Note_on_c, 0, 77, 0
2, 15787, Note_on_c, 0, 60, 0
2, 15792, Note_on_c, 0, 57, 0
2, 15821, Note_on_c, 0, 77, 57
2, 15824, Note_on_c, 0, 72, 64
2, 15825, Note_on_c, 0, 65, 60
2, 15826, Note_on_c, 0, 74, 39
2, 15846, Note_on_c, 0, 74, 0
2, 15851, Note_on_c, 0, 77, 0
2, 15855, Control_c, 0, 64, 0
2, 15856, Note_on_c, 0, 72, 0
2, 15863, Note_on_c, 0, 62, 44
2, 15868, Note_on_c, 0, 56, 30
2, 15870, Note_on_c, 0, 59, 35
2, 15870, Note_on_c, 0, 53, 29
2, 15884, Note_on_c, 0, 62, 0
2, 15884, Note_on_c, 0, 65, 0
2, 15903, Note_on_c, 0, 75, 32
2, 15924, Note_on_c, 0, 59, 0
2, 15924, Note_on_c, 0, 56, 0
2, 15930, Note_on_c, 0, 75, 0
2, 15941, Note_on_c, 0, 53, 0
2, 15942, Note_on_c, 0, 64, 65
2, 15943, Note_on_c, 0, 76, 58
2, 15947, Note_on_c, 0, 71, 52
2, 15950, Note_on_c, 0, 74, 31
2, 15960, Note_on_c, 0, 71, 0
2, 15961, Note_on_c, 0, 74, 0
2, 15963, Note_on_c, 0, 76, 0
2, 15963, Note_on_c, 0, 64, 0
2, 15973, Note_on_c, 0, 76, 48
2, 15976, Note_on_c, 0, 64, 65
2, 15978, Note_on_c, 0, 71, 50
2, 15982, Note_on_c, 0, 74, 29
2, 15995, Note_on_c, 0, 76, 0
2, 15996, Note_on_c, 0, 62, 40
2, 15998, Note_on_c, 0, 64, 0
2, 16001, Note_on_c, 0, 56, 32
2, 16004, Note_on_c, 0, 74, 0
2, 16004, Note_on_c, 0, 59, 29
2, 16006, Note_on_c, 0, 71, 0
2, 16006, Note_on_c, 0, 53, 19
2, 16013, Note_on_c, 0, 76, 36
2, 16014, Note_on_c, 0, 64, 58
2, 16016, Note_on_c, 0, 62, 0
2, 16017, Note_on_c, 0, 71, 44
2, 16028, Note_on_c, 0, 76, 0
2, 16028, Note_on_c, 0, 64, 0
2, 16039, Note_on_c, 0, 71, 0
2, 16050, Note_on_c, 0, 75, 60
2, 16053, Note_on_c, 0, 63, 42
2, 16054, Note_on_c, 0, 53, 0
2, 16056, Note_on_c, 0, 71, 32
2, 16057, Note_on_c, 0, 59, 0
2, 16062, Note_on_c, 0, 56, 0
2, 16073, Note_on_c, 0, 63, 0
2, 16076, Note_on_c, 0, 75, 0
2, 16077, Note_on_c, 0, 76, 57
2, 16080, Note_on_c, 0, 64, 29
2, 16097, Note_on_c, 0, 64, 0
2, 16102, Note_on_c, 0, 76, 0
2, 16111, Note_on_c, 0, 71, 0
2, 16118, Note_on_c, 0, 62, 49
2, 16120, Note_on_c, 0, 76, 42
2, 16121, Note_on_c, 0, 64, 66
2, 16124, Note_on_c, 0, 71, 36
2, 16126, Note_on_c, 0, 53, 22
2, 16127, Note_on_c, 0, 56, 27
2, 16129, Note_on_c, 0, 74, 24
2, 16129, Note_on_c, 0, 59, 22
2, 16131, Note_on_c, 0, 62, 0
2, 16145, Note_on_c, 0, 64, 0
2, 16162, Note_on_c, 0, 76, 0
2, 16163, Note_on_c, 0, 74, 0
2, 16169, Note_on_c, 0, 59, 0
2, 16172, Note_on_c, 0, 71, 0
2, 16175, Note_on_c, 0, 53, 0
2, 16178, Note_on_c, 0, 56, 0
2, 16196, Note_on_c, 0, 74, 38
2, 16197, Note_on_c, 0, 62, 55
2, 16198, Note_on_c, 0, 68, 32
2, 16200, Note_on_c, 0, 71, 22
2, 16205, Note_on_c, 0, 62, 0
2, 16211, Note_on_c, 0, 68, 0
2, 16216, Note_on_c, 0, 74, 0
2, 16219, Note_on_c, 0, 71, 0
2, 16230, Note_on_c, 0, 56, 34
2, 16230, Note_on_c, 0, 62, 33
2, 16234, Note_on_c, 0, 59, 28
2, 16298, Note_on_c, 0, 53, 64
2, 16299, Note_on_c, 0, 59, 0
2, 16305, Note_on_c, 0, 56, 0
2, 16312, Note_on_c, 0, 62, 0
2, 16350, Note_on_c, 0, 55, 24
2, 16351, Note_on_c, 0, 58, 20
2, 16354, Note_on_c, 0, 62, 9
2, 16387, Note_on_c, 0, 55, 0
2, 16389, Note_on_c, 0, 62, 0
2, 16401, Note_on_c, 0, 58, 0
2, 16415, Note_on_c, 0, 77, 65
2, 16415, Note_on_c, 0, 65, 78
2, 16415, Note_on_c, 0, 74, 51
2, 16416, Note_on_c, 0, 70, 64
2, 16437, Note_on_c, 0, 65, 0
2, 16440, Note_on_c, 0, 70, 0
2, 16446, Note_on_c, 0, 77, 0
2, 16449, Note_on_c, 0, 74, 0
2, 16449, Note_on_c, 0, 58, 35
2, 16451, Note_on_c, 0, 62, 41
2, 16460, Note_on_c, 0, 77, 29
2, 16463, Note_on_c, 0, 55, 26
2, 16463, Note_on_c, 0, 65, 36
2, 16464, Note_on_c, 0, 70, 33
2, 16467, Note_on_c, 0, 53, 0
2, 16467, Note_on_c, 0, 74, 32
2, 16478, Note_on_c, 0, 70, 0
2, 16481, Note_on_c, 0, 65, 0
2, 16491, Note_on_c, 0, 74, 0
2, 16496, Note_on_c, 0, 77, 0
2, 16510, Note_on_c, 0, 62, 0
2, 16516, Control_c, 0, 64, 127
2, 16520, Note_on_c, 0, 62, 20
2, 16527, Note_on_c, 0, 55, 0
2, 16527, Note_on_c, 0, 77, 62
2, 16531, Note_on_c, 0, 70, 47
2, 16531, Note_on_c, 0, 65, 49
2, 16531, Note_on_c, 0, 74, 30
2, 16533, Note_on_c, 0, 67, 54
2, 16539, Note_on_c, 0, 67, 0
2, 16545, Note_on_c, 0, 74, 0
2, 16548, Note_on_c, 0, 65, 0
2, 16549, Note_on_c, 0, 77, 0
2, 16550, Note_on_c, 0, 70, 0
2, 16562, Note_on_c, 0, 62, 0
2, 16568, Control_c, 0, 64, 0
2, 16569, Note_on_c, 0, 74, 36
2, 16569, Note_on_c, 0, 54, 39
2, 16575, Note_on_c, 0, 62, 44
2, 16597, Note_on_c, 0, 58, 0
2, 16626, Note_on_c, 0, 62, 0
2, 16641, Control_c, 0, 64, 127
2, 16645, Note_on_c, 0, 74, 0
2, 16650, Note_on_c, 0, 58, 44
2, 16655, Note_on_c, 0, 54, 0
2, 16674, Note_on_c, 0, 58, 0
2, 16677, Control_c, 0, 64, 0
2, 16684, Note_on_c, 0, 62, 58
2, 16684, Note_on_c, 0, 74, 33
2, 16687, Note_on_c, 0, 53, 39
2, 16688, Note_on_c, 0, 70, 34
2, 16689, Note_on_c, 0, 67, 45
2, 16689, Note_on_c, 0, 58, 32
2, 16735, Note_on_c, 0, 67, 0
2, 16736, Note_on_c, 0, 53, 0
2, 16738, Note_on_c, 0, 58, 0
2, 16740, Note_on_c, 0, 62, 0
2, 16740, Control_c, 0, 64, 127
2, 16743, Note_on_c, 0, 74, 0
2, 16750, Note_on_c, 0, 70, 0
2, 16769, Note_on_c, 0, 58, 35
2, 16792, Note_on_c, 0, 58, 0
2, 16800, Control_c, 0, 64, 0
2, 16807, Note_on_c, 0, 52, 50
2, 16807, Note_on_c, 0, 60, 37
2, 16808, Note_on_c, 0, 72, 31
2, 16808, Note_on_c, 0, 67, 34
2, 16810, Note_on_c, 0, 58, 17
2, 16844, Note_on_c, 0, 60, 0
2, 16850, Note_on_c, 0, 72, 0
2, 16861, Note_on_c, 0, 52, 0
2, 16863, Note_on_c, 0, 67, 0
2, 16865, Note_on_c, 0, 58, 0
2, 16881, Control_c, 0, 64, 127
2, 16885, Note_on_c, 0, 70, 48
2, 16890, Note_on_c, 0, 59, 40
2, 16905, Note_on_c, 0, 59, 0
2, 16907, Note_on_c, 0, 70, 0
2, 16917, Control_c, 0, 64, 0
2, 16926, Note_on_c, 0, 52, 47
2, 16927, Note_on_c, 0, 60, 48
2, 16930, Note_on_c, 0, 58, 40
2, 16934, Note_on_c, 0, 60, 0
2, 16939, Note_on_c, 0, 67, 19
2, 16947, Note_on_c, 0, 67, 0
2, 16979, Note_on_c, 0, 52, 0
2, 16989, Control_c, 0, 64, 127
2, 16997, Note_on_c, 0, 58, 0
2, 17011, Note_on_c, 0, 54, 75
2, 17012, Note_on_c, 0, 64, 75
2, 17012, Note_on_c, 0, 60, 69
2, 17023, Note_on_c, 0, 64, 0
2, 17031, Note_on_c, 0, 60, 0
2, 17038, Note_on_c, 0, 54, 0
2, 17051, Control_c, 0, 64, 0
2, 17060, Note_on_c, 0, 76, 41
2, 17061, Note_on_c, 0, 69, 56
2, 17061, Note_on_c, 0, 81, 44
2, 17082, Note_on_c, 0, 69, 0
2, 17094, Note_on_c, 0, 76, 0
2, 17099, Note_on_c, 0, 81, 0
2, 17128, Control_c, 0, 64, 127
2, 17168, Control_c, 0, 64, 0
2, 17173, Note_on_c, 0, 82, 70
2, 17174, Note_on_c, 0, 86, 69
2, 17174, Note_on_c, 0, 77, 64
2, 17175, Note_on_c, 0, 89, 68
2, 17189, Note_on_c, 0, 65, 28
2, 17192, Note_on_c, 0, 54, 39
2, 17193, Note_on_c, 0, 60, 8
2, 17197, Note_on_c, 0, 58, 31
2, 17201, Note_on_c, 0, 86, 0
2, 17202, Note_on_c, 0, 77, 0
2, 17203, Note_on_c, 0, 89, 0
2, 17204, Control_c, 0, 64, 127
2, 17212, Note_on_c, 0, 54, 0
2, 17214, Note_on_c, 0, 82, 0
2, 17223, Note_on_c, 0, 58, 0
2, 17227, Note_on_c, 0, 65, 0
2, 17228, Note_on_c, 0, 60, 0
2, 17251, Note_on_c, 0, 54, 42
2, 17268, Note_on_c, 0, 54, 0
2, 17285, Control_c, 0, 64, 0
2, 17290, Note_on_c, 0, 53, 34
2, 17291, Note_on_c, 0, 58, 34
2, 17293, Note_on_c, 0, 57, 36
2, 17294, Note_on_c, 0, 62, 24
2, 17334, Control_c, 0, 64, 127
2, 17347, Note_on_c, 0, 58, 0
2, 17348, Note_on_c, 0, 57, 0
2, 17349, Note_on_c, 0, 62, 0
2, 17362, Note_on_c, 0, 53, 0
2, 17406, Control_c, 0, 64, 0
2, 17410, Note_on_c, 0, 62, 44
2, 17411, Note_on_c, 0, 58, 34
2, 17415, Note_on_c, 0, 57, 44
2, 17416, Note_on_c, 0, 53, 20
2, 17462, Note_on_c, 0, 62, 0
2, 17471, Note_on_c, 0, 58, 0
2, 17472, Note_on_c, 0, 57, 0
2, 17477, Note_on_c, 0, 53, 0
2, 17485, Control_c, 0, 64, 127
2, 17490, Note_on_c, 0, 80, 74
2, 17490, Note_on_c, 0, 84, 81
2, 17491, Note_on_c, 0, 72, 81
2, 17507, Note_on_c, 0, 80, 0
2, 17508, Note_on_c, 0, 81, 54
2, 17522, Note_on_c, 0, 81, 0
2, 17524, Control_c, 0, 64, 0
2, 17525, Note_on_c, 0, 84, 0
2, 17526, Note_on_c, 0, 72, 0
2, 17528, Note_on_c, 0, 58, 36
2, 17529, Note_on_c, 0, 62, 53
2, 17531, Note_on_c, 0, 52, 47
2, 17548, Note_on_c, 0, 62, 0
2, 17561, Note_on_c, 0, 75, 46
2, 17565, Note_on_c, 0, 81, 53
2, 17566, Note_on_c, 0, 69, 55
2, 17568, Note_on_c, 0, 75, 0
2, 17568, Note_on_c, 0, 79, 40
2, 17569, Note_on_c, 0, 73, 47
2, 17569, Note_on_c, 0, 76, 53
2, 17582, Note_on_c, 0, 52, 0
2, 17591, Note_on_c, 0, 73, 0
2, 17593, Note_on_c, 0, 69, 0
2, 17594, Note_on_c, 0, 79, 0
2, 17596, Note_on_c, 0, 81, 0
2, 17597, Note_on_c, 0, 76, 0
2, 17597, Control_c, 0, 64, 127
2, 17598, Note_on_c, 0, 58, 0
2, 17612, Note_on_c, 0, 81, 67
2, 17612, Note_on_c, 0, 73, 53
2, 17613, Note_on_c, 0, 69, 55
2, 17614, Note_on_c, 0, 76, 53
2, 17640, Note_on_c, 0, 69, 0
2, 17641, Note_on_c, 0, 73, 0
2, 17644, Note_on_c, 0, 81, 0
2, 17647, Note_on_c, 0, 76, 0
2, 17648, Control_c, 0, 64, 0
2, 17649, Note_on_c, 0, 58, 32
2, 17649, Note_on_c, 0, 62, 34
2, 17654, Note_on_c, 0, 52, 29
2, 17669, Note_on_c, 0, 69, 53
2, 17669, Note_on_c, 0, 81, 54
2, 17670, Note_on_c, 0, 73, 43
2, 17672, Note_on_c, 0, 76, 28
2, 17679, Note_on_c, 0, 52, 0
2, 17688, Note_on_c, 0, 69, 0
2, 17690, Note_on_c, 0, 73, 0
2, 17690, Control_c, 0, 64, 127
2, 17691, Note_on_c, 0, 81, 0
2, 17693, Note_on_c, 0, 76, 0
2, 17701, Note_on_c, 0, 62, 0
2, 17709, Note_on_c, 0, 81, 66
2, 17710, Note_on_c, 0, 69, 48
2, 17711, Note_on_c, 0, 76, 41
2, 17712, Note_on_c, 0, 73, 48
2, 17719, Note_on_c, 0, 58, 0
2, 17725, Note_on_c, 0, 69, 0
2, 17726, Note_on_c, 0, 81, 0
2, 17730, Note_on_c, 0, 73, 0
2, 17737, Note_on_c, 0, 76, 0
2, 17743, Note_on_c, 0, 67, 54
2, 17744, Note_on_c, 0, 79, 38
2, 17746, Note_on_c, 0, 73, 23
2, 17751, Note_on_c, 0, 62, 40
2, 17755, Note_on_c, 0, 58, 27
2, 17758, Note_on_c, 0, 73, 0
2, 17758, Note_on_c, 0, 67, 0
2, 17758, Note_on_c, 0, 53, 30
2, 17758, Control_c, 0, 64, 0
2, 17758, Note_on_c, 0, 57, 26
2, 17761, Note_on_c, 0, 79, 0
2, 17775, Note_on_c, 0, 62, 0
2, 17777, Note_on_c, 0, 67, 47
2, 17778, Note_on_c, 0, 73, 53
2, 17782, Note_on_c, 0, 76, 36
2, 17783, Note_on_c, 0, 67, 0
2, 17793, Note_on_c, 0, 73, 0
2, 17794, Note_on_c, 0, 76, 0
2, 17802, Note_on_c, 0, 57, 0
2, 17805, Note_on_c, 0, 58, 0
2, 17816, Note_on_c, 0, 84, 74
2, 17818, Note_on_c, 0, 72, 40
2, 17830, Note_on_c, 0, 72, 0
2, 17830, Control_c, 0, 64, 127
2, 17835, Note_on_c, 0, 84, 0
2, 17842, Note_on_c, 0, 53, 0
2, 17850, Note_on_c, 0, 84, 63
2, 17853, Note_on_c, 0, 72, 66
2, 17860, Note_on_c, 0, 81, 31
2, 17868, Note_on_c, 0, 81, 0
2, 17872, Note_on_c, 0, 72, 0
2, 17873, Note_on_c, 0, 84, 0
2, 17879, Control_c, 0, 64, 0
2, 17880, Note_on_c, 0, 58, 39
2, 17881, Note_on_c, 0, 62, 35
2, 17885, Note_on_c, 0, 57, 27
2, 17885, Note_on_c, 0, 53, 22
2, 17887, Note_on_c, 0, 84, 58
2, 17889, Note_on_c, 0, 72, 58
2, 17902, Note_on_c, 0, 62, 0
2, 17906, Note_on_c, 0, 72, 0
2, 17908, Note_on_c, 0, 84, 0
2, 17922, Note_on_c, 0, 84, 57
2, 17924, Note_on_c, 0, 72, 55
2, 17927, Note_on_c, 0, 57, 0
2, 17928, Control_c, 0, 64, 127
2, 17931, Note_on_c, 0, 53, 0
2, 17935, Note_on_c, 0, 58, 0
2, 17939, Note_on_c, 0, 72, 0
2, 17943, Note_on_c, 0, 84, 0
2, 17956, Note_on_c, 0, 84, 58
2, 17957, Note_on_c, 0, 72, 55
2, 17972, Note_on_c, 0, 72, 0
2, 17974, Note_on_c, 0, 84, 0
2, 17988, Note_on_c, 0, 84, 64
2, 17990, Note_on_c, 0, 72, 58
2, 17999, Note_on_c, 0, 58, 31
2, 17999, Note_on_c, 0, 62, 50
2, 18004, Note_on_c, 0, 84, 0
2, 18004, Note_on_c, 0, 52, 43
2, 18007, Note_on_c, 0, 72, 0
2, 18007, Control_c, 0, 64, 0
2, 18028, Note_on_c, 0, 81, 51
2, 18030, Note_on_c, 0, 62, 0
2, 18031, Note_on_c, 0, 69, 43
2, 18050, Note_on_c, 0, 52, 0
2, 18062, Note_on_c, 0, 69, 0
2, 18064, Note_on_c, 0, 81, 0
2, 18065, Note_on_c, 0, 58, 0
2, 18074, Control_c, 0, 64, 127
2, 18088, Note_on_c, 0, 81, 66
2, 18089, Note_on_c, 0, 69, 67
2, 18092, Note_on_c, 0, 76, 50
2, 18093, Note_on_c, 0, 73, 51
2, 18112, Note_on_c, 0, 69, 0
2, 18114, Note_on_c, 0, 81, 0
2, 18114, Control_c, 0, 64, 0
2, 18116, Note_on_c, 0, 73, 0
2, 18119, Note_on_c, 0, 62, 33
2, 18121, Note_on_c, 0, 58, 31
2, 18129, Note_on_c, 0, 62, 0
2, 18130, Note_on_c, 0, 79, 30
2, 18133, Note_on_c, 0, 67, 39
2, 18134, Note_on_c, 0, 73, 28
2, 18141, Note_on_c, 0, 58, 0
2, 18173, Control_c, 0, 64, 127
2, 18186, Note_on_c, 0, 76, 0
2, 18191, Note_on_c, 0, 67, 0
2, 18192, Note_on_c, 0, 79, 0
2, 18192, Note_on_c, 0, 73, 0
2, 18197, Note_on_c, 0, 46, 57
2, 18215, Note_on_c, 0, 46, 0
2, 18231, Control_c, 0, 64, 0
2, 18237, Note_on_c, 0, 45, 46
2, 18244, Note_on_c, 0, 45, 0
2, 18245, Control_c, 0, 64, 127
2, 18323, Note_on_c, 0, 72, 58
2, 18323, Note_on_c, 0, 65, 50
2, 18326, Note_on_c, 0, 60, 33
2, 18327, Note_on_c, 0, 55, 32
2, 18330, Note_on_c, 0, 61, 34
2, 18341, Control_c, 0, 64, 0
2, 18362, Note_on_c, 0, 72, 0
2, 18370, Control_c, 0, 64, 127
2, 18370, Note_on_c, 0, 77, 42
2, 18376, Note_on_c, 0, 72, 18
2, 18389, Note_on_c, 0, 72, 0
2, 18394, Note_on_c, 0, 77, 0
2, 18404, Note_on_c, 0, 65, 0
2, 18405, Note_on_c, 0, 55, 0
2, 18408, Note_on_c, 0, 60, 0
2, 18416, Note_on_c, 0, 61, 0
2, 18444, Note_on_c, 0, 84, 82
2, 18447, Note_on_c, 0, 58, 37
2, 18447, Note_on_c, 0, 54, 47
2, 18448, Note_on_c, 0, 65, 50
2, 18451, Note_on_c, 0, 60, 51
2, 18462, Control_c, 0, 64, 0
2, 18485, Control_c, 0, 64, 127
2, 18513, Note_on_c, 0, 65, 0
2, 18518, Note_on_c, 0, 60, 0
2, 18523, Note_on_c, 0, 58, 0
2, 18533, Note_on_c, 0, 54, 0
2, 18538, Note_on_c, 0, 84, 0
2, 18566, Note_on_c, 0, 82, 74
2, 18597, Control_c, 0, 64, 0
2, 18611, Note_on_c, 0, 54, 27
2, 18613, Note_on_c, 0, 73, 46
2, 18617, Note_on_c, 0, 50, 22
2, 18620, Note_on_c, 0, 82, 0
2, 18624, Note_on_c, 0, 73, 0
2, 18625, Note_on_c, 0, 54, 0
2, 18626, Note_on_c, 0, 50, 0
2, 18668, Control_c, 0, 64, 127
2, 18689, Note_on_c, 0, 54, 49
2, 18689, Note_on_c, 0, 72, 55
2, 18691, Note_on_c, 0, 44, 43
2, 18709, Note_on_c, 0, 54, 0
2, 18712, Note_on_c, 0, 72, 0
2, 18717, Control_c, 0, 64, 0
2, 18727, Note_on_c, 0, 44, 0
2, 18730, Note_on_c, 0, 43, 50
2, 18737, Note_on_c, 0, 70, 37
2, 18738, Control_c, 0, 64, 127
2, 18752, Note_on_c, 0, 43, 0
2, 18803, Note_on_c, 0, 70, 0
2, 18808, Note_on_c, 0, 54, 46
2, 18810, Note_on_c, 0, 65, 63
2, 18810, Note_on_c, 0, 62, 58
2, 18815, Note_on_c, 0, 55, 64
2, 18815, Note_on_c, 0, 70, 15
2, 18830, Note_on_c, 0, 54, 0
2, 18837, Note_on_c, 0, 62, 0
2, 18841, Control_c, 0, 64, 0
2, 18848, Note_on_c, 0, 70, 0
2, 18850, Note_on_c, 0, 65, 0
2, 18856, Note_on_c, 0, 62, 49
2, 18862, Note_on_c, 0, 62, 0
2, 18872, Control_c, 0, 64, 127
2, 18897, Note_on_c, 0, 55, 0
2, 18924, Note_on_c, 0, 69, 66
2, 18925, Note_on_c, 0, 58, 54
2, 18926, Note_on_c, 0, 61, 57
2, 18926, Note_on_c, 0, 64, 61
2, 18928, Note_on_c, 0, 53, 37
2, 18929, Note_on_c, 0, 52, 36
2, 18939, Control_c, 0, 64, 0
2, 18944, Note_on_c, 0, 53, 0
2, 18969, Control_c, 0, 64, 127
2, 18971, Note_on_c, 0, 58, 0
2, 18983, Note_on_c, 0, 61, 0
2, 18985, Note_on_c, 0, 64, 0
2, 18990, Note_on_c, 0, 69, 0
2, 19028, Note_on_c, 0, 52, 0
2, 19048, Note_on_c, 0, 79, 74
2, 19050, Note_on_c, 0, 76, 66
2, 19050, Note_on_c, 0, 69, 77
2, 19051, Note_on_c, 0, 72, 68
2, 19068, Note_on_c, 0, 72, 0
2, 19069, Note_on_c, 0, 69, 0
2, 19074, Note_on_c, 0, 79, 0
2, 19075, Note_on_c, 0, 76, 0
2, 19086, Note_on_c, 0, 79, 60
2, 19087, Note_on_c, 0, 69, 45
2, 19088, Note_on_c, 0, 76, 58
2, 19090, Note_on_c, 0, 72, 52
2, 19092, Note_on_c, 0, 42, 34
2, 19092, Control_c, 0, 64, 0
2, 19092, Note_on_c, 0, 50, 31
2, 19101, Note_on_c, 0, 76, 0
2, 19101, Note_on_c, 0, 69, 0
2, 19103, Note_on_c, 0, 72, 0
2, 19107, Note_on_c, 0, 79, 0
2, 19110, Note_on_c, 0, 50, 0
2, 19123, Note_on_c, 0, 77, 54
2, 19123, Note_on_c, 0, 69, 46
2, 19127, Note_on_c, 0, 74, 40
2, 19127, Note_on_c, 0, 72, 45
2, 19137, Note_on_c, 0, 69, 0
2, 19137, Note_on_c, 0, 42, 0
2, 19139, Note_on_c, 0, 74, 0
2, 19140, Note_on_c, 0, 72, 0
2, 19144, Control_c, 0, 64, 127
2, 19145, Note_on_c, 0, 77, 0
2, 19160, Note_on_c, 0, 77, 62
2, 19162, Note_on_c, 0, 72, 53
2, 19162, Note_on_c, 0, 69, 62
2, 19165, Note_on_c, 0, 74, 28
2, 19172, Note_on_c, 0, 74, 0
2, 19176, Note_on_c, 0, 69, 0
2, 19176, Note_on_c, 0, 72, 0
2, 19179, Note_on_c, 0, 77, 0
2, 19194, Note_on_c, 0, 76, 49
2, 19197, Note_on_c, 0, 67, 55
2, 19199, Note_on_c, 0, 72, 41
2, 19200, Control_c, 0, 64, 0
2, 19202, Note_on_c, 0, 50, 34
2, 19202, Note_on_c, 0, 41, 31
2, 19211, Note_on_c, 0, 41, 0
2, 19216, Note_on_c, 0, 67, 0
2, 19218, Note_on_c, 0, 50, 0
2, 19219, Note_on_c, 0, 72, 0
2, 19221, Note_on_c, 0, 76, 0
2, 19233, Note_on_c, 0, 76, 55
2, 19236, Note_on_c, 0, 67, 35
2, 19239, Note_on_c, 0, 72, 47
2, 19240, Note_on_c, 0, 69, 45
2, 19246, Note_on_c, 0, 72, 0
2, 19248, Note_on_c, 0, 69, 0
2, 19248, Note_on_c, 0, 67, 0
2, 19252, Note_on_c, 0, 76, 0
2, 19256, Control_c, 0, 64, 127
2, 19271, Note_on_c, 0, 74, 30
2, 19272, Note_on_c, 0, 65, 56
2, 19274, Note_on_c, 0, 69, 29
2, 19275, Note_on_c, 0, 71, 29
2, 19288, Note_on_c, 0, 65, 0
2, 19292, Note_on_c, 0, 74, 0
2, 19294, Note_on_c, 0, 69, 0
2, 19295, Note_on_c, 0, 71, 0
2, 19307, Note_on_c, 0, 74, 53
2, 19311, Note_on_c, 0, 65, 43
2, 19311, Note_on_c, 0, 69, 66
2, 19312, Note_on_c, 0, 71, 48
2, 19319, Note_on_c, 0, 71, 0
2, 19322, Note_on_c, 0, 69, 0
2, 19322, Note_on_c, 0, 65, 0
2, 19324, Note_on_c, 0, 74, 0
2, 19325, Note_on_c, 0, 60, 20
2, 19326, Note_on_c, 0, 57, 24
2, 19327, Note_on_c, 0, 53, 24
2, 19332, Note_on_c, 0, 60, 0
2, 19336, Control_c, 0, 64, 0
2, 19340, Note_on_c, 0, 57, 0
2, 19345, Note_on_c, 0, 53, 0
2, 19347, Note_on_c, 0, 72, 25
2, 19347, Note_on_c, 0, 64, 36
2, 19347, Note_on_c, 0, 69, 24
2, 19348, Note_on_c, 0, 67, 33
2, 19366, Note_on_c, 0, 67, 0
2, 19368, Note_on_c, 0, 72, 0
2, 19369, Note_on_c, 0, 64, 0
2, 19372, Note_on_c, 0, 69, 0
2, 19388, Control_c, 0, 64, 127
2, 19396, Note_on_c, 0, 72, 45
2, 19398, Note_on_c, 0, 67, 50
2, 19400, Note_on_c, 0, 64, 61
2, 19402, Note_on_c, 0, 69, 34
2, 19410, Note_on_c, 0, 69, 0
2, 19414, Note_on_c, 0, 72, 0
2, 19418, Note_on_c, 0, 64, 0
2, 19418, Note_on_c, 0, 67, 0
2, 19432, Note_on_c, 0, 72, 49
2, 19434, Note_on_c, 0, 67, 62
2, 19436, Note_on_c, 0, 64, 50
2, 19436, Note_on_c, 0, 69, 52
2, 19441, Note_on_c, 0, 67, 0
2, 19441, Note_on_c, 0, 72, 0
2, 19442, Note_on_c, 0, 69, 0
2, 19445, Note_on_c, 0, 57, 38
2, 19450, Note_on_c, 0, 64, 0
2, 19462, Control_c, 0, 64, 0
2, 19475, Note_on_c, 0, 57, 0
2, 19476, Note_on_c, 0, 69, 38
2, 19480, Note_on_c, 0, 65, 30
2, 19482, Note_on_c, 0, 64, 30
2, 19485, Note_on_c, 0, 62, 24
2, 19494, Note_on_c, 0, 62, 0
2, 19501, Note_on_c, 0, 64, 0
2, 19502, Note_on_c, 0, 65, 0
2, 19506, Note_on_c, 0, 69, 0
2, 19531, Control_c, 0, 64, 127
2, 19538, Note_on_c, 0, 65, 61
2, 19541, Note_on_c, 0, 62, 50
2, 19541, Note_on_c, 0, 60, 53
2, 19542, Note_on_c, 0, 57, 56
2, 19544, Note_on_c, 0, 52, 47
2, 19549, Note_on_c, 0, 53, 47
2, 19550, Note_on_c, 0, 52, 0
2, 19568, Note_on_c, 0, 62, 0
2, 19570, Note_on_c, 0, 60, 0
2, 19571, Note_on_c, 0, 57, 0
2, 19577, Note_on_c, 0, 53, 0
2, 19580, Control_c, 0, 64, 0
2, 19583, Note_on_c, 0, 62, 50
2, 19585, Note_on_c, 0, 50, 33
2, 19586, Note_on_c, 0, 65, 0
2, 19587, Note_on_c, 0, 60, 35
2, 19591, Note_on_c, 0, 57, 30
2, 19621, Control_c, 0, 64, 127
2, 19634, Note_on_c, 0, 57, 0
2, 19636, Note_on_c, 0, 50, 0
2, 19663, Note_on_c, 0, 47, 36
2, 19668, Note_on_c, 0, 60, 0
2, 19675, Note_on_c, 0, 62, 0
2, 19678, Note_on_c, 0, 47, 0
2, 19690, Control_c, 0, 64, 0
2, 19700, Note_on_c, 0, 62, 22
2, 19700, Note_on_c, 0, 56, 49
2, 19700, Note_on_c, 0, 65, 46
2, 19702, Note_on_c, 0, 44, 45
2, 19702, Note_on_c, 0, 59, 55
2, 19715, Control_c, 0, 64, 127
2, 19722, Note_on_c, 0, 56, 0
2, 19729, Note_on_c, 0, 44, 0
2, 19730, Note_on_c, 0, 59, 0
2, 19732, Note_on_c, 0, 65, 0
2, 19734, Note_on_c, 0, 62, 0
2, 19781, Note_on_c, 0, 76, 56
2, 19781, Note_on_c, 0, 65, 81
2, 19783, Note_on_c, 0, 68, 73
2, 19784, Note_on_c, 0, 71, 64
2, 19784, Note_on_c, 0, 64, 83
2, 19812, Note_on_c, 0, 65, 0
2, 19814, Control_c, 0, 64, 0
2, 19827, Note_on_c, 0, 76, 0
2, 19827, Note_on_c, 0, 74, 33
2, 19828, Note_on_c, 0, 65, 34
2, 19829, Note_on_c, 0, 62, 49
2, 19830, Note_on_c, 0, 64, 0
2, 19839, Control_c, 0, 64, 127
2, 19855, Note_on_c, 0, 71, 0
2, 19860, Note_on_c, 0, 65, 0
2, 19861, Note_on_c, 0, 68, 0
2, 19864, Note_on_c, 0, 74, 0
2, 19891, Note_on_c, 0, 62, 0
2, 19905, Note_on_c, 0, 79, 70
2, 19905, Note_on_c, 0, 68, 77
2, 19906, Note_on_c, 0, 74, 61
2, 19906, Note_on_c, 0, 71, 71
2, 19907, Note_on_c, 0, 67, 79
2, 19913, Control_c, 0, 64, 0
2, 19944, Control_c, 0, 64, 127
2, 19956, Note_on_c, 0, 79, 0
2, 19963, Note_on_c, 0, 68, 0
2, 19968, Note_on_c, 0, 71, 0
2, 19973, Note_on_c, 0, 74, 0
2, 19979, Note_on_c, 0, 78, 62
2, 19981, Note_on_c, 0, 68, 55
2, 19982, Note_on_c, 0, 67, 0
2, 19982, Note_on_c, 0, 66, 60
2, 19984, Note_on_c, 0, 71, 45
2, 19986, Note_on_c, 0, 74, 25
2, 19993, Note_on_c, 0, 71, 0
2, 20002, Note_on_c, 0, 68, 0
2, 20003, Note_on_c, 0, 78, 0
2, 20006, Note_on_c, 0, 74, 0
2, 20010, Note_on_c, 0, 66, 0
2, 20022, Note_on_c, 0, 65, 64
2, 20042, Note_on_c, 0, 65, 0
2, 20052, Control_c, 0, 64, 0
2, 20062, Note_on_c, 0, 77, 60
2, 20063, Note_on_c, 0, 68, 69
2, 20063, Note_on_c, 0, 74, 49
2, 20063, Note_on_c, 0, 71, 64
2, 20080, Note_on_c, 0, 77, 0
2, 20081, Note_on_c, 0, 74, 0
2, 20083, Note_on_c, 0, 71, 0
2, 20085, Control_c, 0, 64, 127
2, 20086, Note_on_c, 0, 68, 0
2, 20139, Note_on_c, 0, 44, 45
2, 20175, Note_on_c, 0, 44, 0
2, 20184, Note_on_c, 0, 58, 56
2, 20184, Control_c, 0, 64, 0
2, 20186, Note_on_c, 0, 43, 49
2, 20213, Control_c, 0, 64, 127
2, 20243, Note_on_c, 0, 58, 0
2, 20281, Note_on_c, 0, 50, 35
2, 20292, Note_on_c, 0, 50, 0
2, 20303, Note_on_c, 0, 62, 66
2, 20303, Note_on_c, 0, 58, 67
2, 20304, Note_on_c, 0, 55, 74
2, 20304, Note_on_c, 0, 65, 68
2, 20306, Note_on_c, 0, 53, 64
2, 20307, Note_on_c, 0, 43, 0
2, 20318, Control_c, 0, 64, 0
2, 20352, Control_c, 0, 64, 127
2, 20356, Note_on_c, 0, 55, 0
2, 20363, Note_on_c, 0, 62, 0
2, 20364, Note_on_c, 0, 65, 0
2, 20364, Note_on_c, 0, 58, 0
2, 20392, Note_on_c, 0, 53, 0
2, 20404, Note_on_c, 0, 55, 32
2, 20411, Note_on_c, 0, 55, 0
2, 20417, Note_on_c, 0, 69, 70
2, 20419, Note_on_c, 0, 57, 56
2, 20420, Control_c, 0, 64, 0
2, 20421, Note_on_c, 0, 58, 61
2, 20421, Note_on_c, 0, 62, 64
2, 20423, Note_on_c, 0, 65, 55
2, 20425, Note_on_c, 0, 68, 32
2, 20444, Note_on_c, 0, 68, 0
2, 20447, Control_c, 0, 64, 127
2, 20454, Note_on_c, 0, 58, 0
2, 20463, Note_on_c, 0, 62, 0
2, 20463, Note_on_c, 0, 65, 0
2, 20468, Note_on_c, 0, 69, 0
2, 20495, Note_on_c, 0, 57, 0
2, 20510, Note_on_c, 0, 58, 32
2, 20517, Note_on_c, 0, 59, 59
2, 20522, Note_on_c, 0, 58, 0
2, 20528, Note_on_c, 0, 60, 64
2, 20528, Note_on_c, 0, 62, 53
2, 20529, Note_on_c, 0, 72, 54
2, 20530, Note_on_c, 0, 65, 58
2, 20530, Note_on_c, 0, 69, 48
2, 20531, Note_on_c, 0, 59, 0
2, 20531, Control_c, 0, 64, 0
2, 20563, Control_c, 0, 64, 127
2, 20576, Note_on_c, 0, 62, 0
2, 20581, Note_on_c, 0, 65, 0
2, 20585, Note_on_c, 0, 69, 0
2, 20607, Note_on_c, 0, 60, 0
2, 20611, Note_on_c, 0, 72, 0
2, 20643, Note_on_c, 0, 72, 62
2, 20645, Note_on_c, 0, 67, 58
2, 20646, Note_on_c, 0, 64, 51
2, 20650, Control_c, 0, 64, 0
2, 20701, Control_c, 0, 64, 127
2, 20726, Note_on_c, 0, 58, 36
2, 20730, Note_on_c, 0, 52, 24
2, 20735, Note_on_c, 0, 58, 0
2, 20735, Control_c, 0, 64, 0
2, 20737, Note_on_c, 0, 52, 0
2, 20767, Note_on_c, 0, 51, 58
2, 20795, Note_on_c, 0, 64, 0
2, 20802, Note_on_c, 0, 67, 0
2, 20807, Control_c, 0, 64, 127
2, 20815, Note_on_c, 0, 72, 0
2, 20834, Note_on_c, 0, 51, 0
2, 20852, Note_on_c, 0, 38, 64
2, 20858, Note_on_c, 0, 38, 0
2, 20872, Control_c, 0, 64, 0
2, 20894, Note_on_c, 0, 78, 60
2, 20894, Note_on_c, 0, 81, 62
2, 20895, Note_on_c, 0, 74, 53
2, 20896, Note_on_c, 0, 86, 71
2, 20896, Note_on_c, 0, 60, 65
2, 20896, Note_on_c, 0, 62, 76
2, 20899, Note_on_c, 0, 54, 58
2, 20899, Note_on_c, 0, 76, 36
2, 20902, Note_on_c, 0, 60, 0
2, 20905, Note_on_c, 0, 76, 0
2, 20915, Note_on_c, 0, 60, 17
2, 20923, Note_on_c, 0, 60, 0
2, 20924, Note_on_c, 0, 62, 0
2, 20926, Control_c, 0, 64, 127
2, 20930, Note_on_c, 0, 54, 0
2, 20942, Note_on_c, 0, 81, 0
2, 20944, Note_on_c, 0, 86, 0
2, 20946, Note_on_c, 0, 78, 0
2, 20948, Note_on_c, 0, 74, 0
2, 21007, Control_c, 0, 64, 0
2, 21010, Note_on_c, 0, 81, 51
2, 21011, Note_on_c, 0, 54, 48
2, 21011, Note_on_c, 0, 78, 34
2, 21012, Note_on_c, 0, 69, 44
2, 21013, Note_on_c, 0, 74, 34
2, 21016, Note_on_c, 0, 45, 29
2, 21043, Control_c, 0, 64, 127
2, 21059, Note_on_c, 0, 45, 0
2, 21066, Note_on_c, 0, 69, 0
2, 21071, Note_on_c, 0, 81, 0
2, 21072, Note_on_c, 0, 74, 0
2, 21077, Note_on_c, 0, 78, 0
2, 21084, Note_on_c, 0, 54, 0
2, 21090, Note_on_c, 0, 50, 42
2, 21108, Note_on_c, 0, 50, 0
2, 21110, Control_c, 0, 64, 0
2, 21117, Note_on_c, 0, 43, 41
2, 21127, Note_on_c, 0, 55, 35
2, 21128, Note_on_c, 0, 43, 0
2, 21129, Note_on_c, 0, 72, 52
2, 21129, Note_on_c, 0, 84, 65
2, 21133, Note_on_c, 0, 55, 0
2, 21133, Note_on_c, 0, 77, 32
2, 21136, Note_on_c, 0, 81, 26
2, 21144, Note_on_c, 0, 81, 0
2, 21162, Note_on_c, 0, 77, 0
2, 21166, Note_on_c, 0, 84, 0
2, 21173, Note_on_c, 0, 72, 0
2, 21177, Control_c, 0, 64, 127
2, 21206, Note_on_c, 0, 78, 49
2, 21210, Note_on_c, 0, 83, 50
2, 21223, Note_on_c, 0, 83, 0
2, 21225, Note_on_c, 0, 78, 0
2, 21244, Control_c, 0, 64, 0
2, 21247, Note_on_c, 0, 55, 30
2, 21247, Note_on_c, 0, 58, 38
2, 21248, Note_on_c, 0, 62, 27
2, 21255, Note_on_c, 0, 82, 48
2, 21259, Note_on_c, 0, 62, 0
2, 21271, Note_on_c, 0, 55, 0
2, 21274, Note_on_c, 0, 58, 0
2, 21291, Note_on_c, 0, 82, 0
2, 21310, Control_c, 0, 64, 127
2, 21335, Note_on_c, 0, 84, 65
2, 21340, Note_on_c, 0, 72, 68
2, 21357, Note_on_c, 0, 72, 0
2, 21360, Note_on_c, 0, 84, 0
2, 21365, Control_c, 0, 64, 0
2, 21371, Note_on_c, 0, 58, 33
2, 21371, Note_on_c, 0, 48, 30
2, 21389, Note_on_c, 0, 48, 0
2, 21406, Note_on_c, 0, 58, 0
2, 21406, Note_on_c, 0, 82, 48
2, 21408, Control_c, 0, 64, 127
2, 21412, Note_on_c, 0, 70, 31
2, 21437, Note_on_c, 0, 70, 0
2, 21439, Note_on_c, 0, 82, 0
2, 21491, Control_c, 0, 64, 0
2, 21492, Note_on_c, 0, 64, 43
2, 21492, Note_on_c, 0, 58, 38
2, 21495, Note_on_c, 0, 60, 37
2, 21530, Note_on_c, 0, 64, 0
2, 21535, Note_on_c, 0, 60, 0
2, 21542, Control_c, 0, 64, 127
2, 21546, Note_on_c, 0, 58, 0
2, 21568, Note_on_c, 0, 54, 72
2, 21589, Note_on_c, 0, 54, 0
2, 21608, Note_on_c, 0, 62, 68
2, 21609, Note_on_c, 0, 72, 61
2, 21610, Note_on_c, 0, 59, 33
2, 21610, Note_on_c, 0, 65, 65
2, 21610, Note_on_c, 0, 69, 64
2, 21611, Control_c, 0, 64, 0
2, 21614, Note_on_c, 0, 57, 28
2, 21628, Note_on_c, 0, 59, 0
2, 21663, Note_on_c, 0, 69, 0
2, 21666, Control_c, 0, 64, 127
2, 21668, Note_on_c, 0, 72, 0
2, 21670, Note_on_c, 0, 65, 0
2, 21678, Note_on_c, 0, 62, 0
2, 21713, Note_on_c, 0, 57, 0
2, 21731, Note_on_c, 0, 69, 54
2, 21735, Control_c, 0, 64, 0
2, 21735, Note_on_c, 0, 62, 57
2, 21736, Note_on_c, 0, 57, 54
2, 21736, Note_on_c, 0, 65, 60
2, 21737, Note_on_c, 0, 58, 38
2, 21771, Control_c, 0, 64, 127
2, 21795, Note_on_c, 0, 65, 0
2, 21800, Note_on_c, 0, 62, 0
2, 21807, Note_on_c, 0, 58, 0
2, 21815, Note_on_c, 0, 69, 0
2, 21830, Note_on_c, 0, 57, 0
2, 21845, Note_on_c, 0, 58, 58
2, 21851, Note_on_c, 0, 67, 34
2, 21853, Note_on_c, 0, 61, 37
2, 21855, Note_on_c, 0, 64, 38
2, 21856, Note_on_c, 0, 48, 47
2, 21867, Control_c, 0, 64, 0
2, 21869, Note_on_c, 0, 58, 0
2, 21871, Note_on_c, 0, 67, 0
2, 21875, Note_on_c, 0, 64, 0
2, 21887, Note_on_c, 0, 61, 0
2, 21899, Note_on_c, 0, 60, 49
2, 21922, Note_on_c, 0, 60, 0
2, 21926, Note_on_c, 0, 48, 0
2, 21935, Note_on_c, 0, 61, 54
2, 21959, Note_on_c, 0, 61, 0
2, 21973, Note_on_c, 0, 62, 50
2, 21994, Note_on_c, 0, 62, 0
2, 22015, Note_on_c, 0, 65, 51
2, 22035, Note_on_c, 0, 65, 0
2, 22052, Note_on_c, 0, 67, 65
2, 22080, Note_on_c, 0, 67, 0
2, 22098, Note_on_c, 0, 65, 54
2, 22118, Note_on_c, 0, 65, 0
2, 22157, Control_c, 0, 64, 127
2, 22168, Note_on_c, 0, 68, 60
2, 22170, Note_on_c, 0, 33, 42
2, 22172, Note_on_c, 0, 63, 48
2, 22173, Note_on_c, 0, 45, 35
2, 22175, Note_on_c, 0, 57, 24
2, 22187, Note_on_c, 0, 57, 0
2, 22187, Note_on_c, 0, 45, 0
2, 22191, Note_on_c, 0, 33, 0
2, 22194, Note_on_c, 0, 68, 0
2, 22197, Control_c, 0, 64, 0
2, 22198, Note_on_c, 0, 63, 0
2, 22287, Note_on_c, 0, 56, 35
2, 22288, Note_on_c, 0, 46, 35
2, 22289, Note_on_c, 0, 34, 35
2, 22289, Note_on_c, 0, 62, 34
2, 22290, Note_on_c, 0, 65, 30
2, 22311, Note_on_c, 0, 65, 0
2, 22314, Note_on_c, 0, 56, 0
2, 22315, Note_on_c, 0, 62, 0
2, 22324, Note_on_c, 0, 46, 0
2, 22330, Note_on_c, 0, 34, 0
2, 22407, Note_on_c, 0, 47, 32
2, 22408, Note_on_c, 0, 56, 30
2, 22409, Note_on_c, 0, 35, 36
2, 22410, Note_on_c, 0, 59, 40
2, 22433, Note_on_c, 0, 35, 0
2, 22436, Note_on_c, 0, 59, 0
2, 22440, Note_on_c, 0, 56, 0
2, 22464, Note_on_c, 0, 47, 0
2, 22519, Note_on_c, 0, 47, 49
2, 22522, Note_on_c, 0, 48, 51
2, 22524, Note_on_c, 0, 60, 54
2, 22526, Note_on_c, 0, 47, 0
2, 22526, Note_on_c, 0, 65, 40
2, 22549, Note_on_c, 0, 60, 0
2, 22552, Note_on_c, 0, 65, 0
2, 22573, Note_on_c, 0, 60, 44
2, 22577, Note_on_c, 0, 48, 0
2, 22615, Note_on_c, 0, 60, 0
2, 22645, Note_on_c, 0, 61, 50
2, 22674, Note_on_c, 0, 61, 0
2, 22688, Note_on_c, 0, 62, 51
2, 22747, Note_on_c, 0, 62, 0
2, 22759, Note_on_c, 0, 65, 67
2, 22791, Note_on_c, 0, 65, 0
2, 22805, Note_on_c, 0, 67, 80
2, 22847, Note_on_c, 0, 67, 0
2, 22871, Control_c, 0, 64, 127
2, 22885, Note_on_c, 0, 45, 43
2, 22906, Note_on_c, 0, 45, 0
2, 22925, Note_on_c, 0, 50, 43
2, 22926, Note_on_c, 0, 65, 54
2, 22927, Control_c, 0, 64, 0
2, 22927, Note_on_c, 0, 54, 53
2, 22928, Note_on_c, 0, 60, 59
2, 22949, Note_on_c, 0, 54, 0
2, 22956, Note_on_c, 0, 65, 0
2, 22960, Note_on_c, 0, 60, 0
2, 22975, Note_on_c, 0, 50, 0
2, 22983, Control_c, 0, 64, 127
2, 23006, Note_on_c, 0, 42, 45
2, 23033, Note_on_c, 0, 42, 0
2, 23038, Control_c, 0, 64, 0
2, 23043, Note_on_c, 0, 43, 40
2, 23051, Note_on_c, 0, 66, 28
2, 23052, Note_on_c, 0, 65, 22
2, 23059, Note_on_c, 0, 66, 0
2, 23060, Note_on_c, 0, 43, 0
2, 23068, Note_on_c, 0, 67, 30
2, 23083, Note_on_c, 0, 65, 0
2, 23092, Control_c, 0, 64, 127
2, 23115, Note_on_c, 0, 67, 0
2, 23128, Note_on_c, 0, 70, 77
2, 23165, Note_on_c, 0, 70, 0
2, 23165, Note_on_c, 0, 53, 32
2, 23167, Control_c, 0, 64, 0
2, 23168, Note_on_c, 0, 60, 41
2, 23169, Note_on_c, 0, 56, 36
2, 23172, Note_on_c, 0, 67, 47
2, 23185, Note_on_c, 0, 60, 0
2, 23192, Note_on_c, 0, 56, 0
2, 23198, Note_on_c, 0, 53, 0
2, 23213, Control_c, 0, 64, 127
2, 23230, Note_on_c, 0, 67, 0
2, 23245, Note_on_c, 0, 68, 45
2, 23275, Control_c, 0, 64, 0
2, 23279, Note_on_c, 0, 68, 0
2, 23288, Note_on_c, 0, 50, 34
2, 23289, Note_on_c, 0, 69, 45
2, 23292, Note_on_c, 0, 54, 33
2, 23308, Note_on_c, 0, 60, 2
2, 23309, Control_c, 0, 64, 127
2, 23327, Note_on_c, 0, 50, 0
2, 23333, Note_on_c, 0, 54, 0
2, 23342, Note_on_c, 0, 60, 0
2, 23347, Note_on_c, 0, 69, 0
2, 23365, Note_on_c, 0, 72, 56
2, 23399, Control_c, 0, 64, 0
2, 23402, Note_on_c, 0, 72, 0
2, 23406, Note_on_c, 0, 54, 31
2, 23407, Note_on_c, 0, 58, 34
2, 23409, Note_on_c, 0, 60, 32
2, 23410, Note_on_c, 0, 65, 13
2, 23434, Control_c, 0, 64, 127
2, 23461, Note_on_c, 0, 60, 0
2, 23464, Note_on_c, 0, 65, 0
2, 23486, Note_on_c, 0, 58, 0
2, 23487, Note_on_c, 0, 82, 80
2, 23488, Note_on_c, 0, 70, 82
2, 23505, Note_on_c, 0, 54, 0
2, 23524, Control_c, 0, 64, 0
2, 23525, Note_on_c, 0, 62, 47
2, 23525, Note_on_c, 0, 58, 45
2, 23527, Note_on_c, 0, 70, 0
2, 23528, Note_on_c, 0, 53, 30
2, 23533, Note_on_c, 0, 62, 0
2, 23534, Note_on_c, 0, 82, 0
2, 23542, Note_on_c, 0, 53, 0
2, 23547, Note_on_c, 0, 58, 0
2, 23582, Control_c, 0, 64, 127
2, 23607, Note_on_c, 0, 86, 62
2, 23608, Note_on_c, 0, 82, 47
2, 23608, Note_on_c, 0, 74, 47
2, 23611, Note_on_c, 0, 79, 46
2, 23622, Note_on_c, 0, 79, 0
2, 23624, Note_on_c, 0, 86, 0
2, 23625, Note_on_c, 0, 82, 0
2, 23625, Control_c, 0, 64, 0
2, 23630, Note_on_c, 0, 74, 0
2, 23637, Note_on_c, 0, 43, 40
2, 23645, Note_on_c, 0, 43, 0
2, 23665, Control_c, 0, 64, 127
2, 23718, Note_on_c, 0, 36, 52
2, 23727, Note_on_c, 0, 43, 40
2, 23745, Note_on_c, 0, 36, 0
2, 23750, Control_c, 0, 64, 0
2, 23769, Note_on_c, 0, 52, 38
2, 23771, Control_c, 0, 64, 127
2, 23778, Note_on_c, 0, 43, 0
2, 23794, Note_on_c, 0, 52, 0
2, 23848, Note_on_c, 0, 68, 73
2, 23849, Note_on_c, 0, 72, 71
2, 23849, Note_on_c, 0, 64, 80
2, 23879, Note_on_c, 0, 58, 44
2, 23882, Control_c, 0, 64, 0
2, 23883, Note_on_c, 0, 48, 26
2, 23903, Control_c, 0, 64, 127
2, 23913, Note_on_c, 0, 72, 0
2, 23916, Note_on_c, 0, 64, 0
2, 23925, Note_on_c, 0, 48, 0
2, 23930, Note_on_c, 0, 68, 0
2, 23933, Note_on_c, 0, 58, 0
2, 23966, Note_on_c, 0, 55, 60
2, 23966, Note_on_c, 0, 66, 68
2, 23966, Note_on_c, 0, 61, 71
2, 23970, Note_on_c, 0, 72, 50
2, 23991, Note_on_c, 0, 72, 0
2, 23991, Note_on_c, 0, 61, 0
2, 23995, Note_on_c, 0, 66, 0
2, 24001, Control_c, 0, 64, 0
2, 24002, Note_on_c, 0, 55, 0
2, 24004, Note_on_c, 0, 72, 33
2, 24010, Note_on_c, 0, 62, 53
2, 24010, Note_on_c, 0, 67, 46
2, 24011, Note_on_c, 0, 57, 44
2, 24021, Note_on_c, 0, 62, 0
2, 24021, Control_c, 0, 64, 127
2, 24026, Note_on_c, 0, 67, 0
2, 24030, Note_on_c, 0, 72, 0
2, 24032, Note_on_c, 0, 57, 0
2, 24082, Note_on_c, 0, 64, 58
2, 24087, Note_on_c, 0, 77, 75
2, 24089, Note_on_c, 0, 67, 50
2, 24090, Note_on_c, 0, 72, 64
2, 24093, Note_on_c, 0, 69, 41
2, 24099, Note_on_c, 0, 69, 0
2, 24115, Note_on_c, 0, 64, 0
2, 24137, Note_on_c, 0, 62, 33
2, 24143, Note_on_c, 0, 62, 0
2, 24154, Note_on_c, 0, 72, 0
2, 24167, Note_on_c, 0, 67, 0
2, 24174, Note_on_c, 0, 77, 0
2, 24203, Note_on_c, 0, 76, 55
2, 24205, Note_on_c, 0, 73, 60
2, 24206, Note_on_c, 0, 55, 50
2, 24206, Note_on_c, 0, 67, 54
2, 24206, Note_on_c, 0, 65, 45
2, 24207, Note_on_c, 0, 61, 47
2, 24207, Note_on_c, 0, 70, 57
2, 24212, Control_c, 0, 64, 0
2, 24243, Control_c, 0, 64, 127
2, 24251, Note_on_c, 0, 67, 0
2, 24254, Note_on_c, 0, 70, 0
2, 24256, Note_on_c, 0, 73, 0
2, 24262, Note_on_c, 0, 65, 0
2, 24263, Note_on_c, 0, 76, 0
2, 24264, Note_on_c, 0, 61, 0
2, 24314, Note_on_c, 0, 62, 40
2, 24324, Note_on_c, 0, 79, 65
2, 24326, Note_on_c, 0, 62, 0
2, 24326, Note_on_c, 0, 76, 55
2, 24327, Note_on_c, 0, 70, 64
2, 24328, Note_on_c, 0, 73, 58
2, 24333, Control_c, 0, 64, 0
2, 24333, Note_on_c, 0, 64, 62
2, 24364, Control_c, 0, 64, 127
2, 24413, Note_on_c, 0, 76, 0
2, 24422, Note_on_c, 0, 79, 0
2, 24434, Note_on_c, 0, 70, 0
2, 24445, Note_on_c, 0, 73, 0
2, 24445, Note_on_c, 0, 64, 0
2, 24481, Note_on_c, 0, 77, 51
2, 24485, Note_on_c, 0, 62, 43
2, 24487, Control_c, 0, 64, 0
2, 24488, Note_on_c, 0, 69, 54
2, 24488, Note_on_c, 0, 72, 48
2, 24496, Note_on_c, 0, 55, 0
2, 24501, Note_on_c, 0, 72, 0
2, 24502, Note_on_c, 0, 69, 0
2, 24503, Note_on_c, 0, 77, 0
2, 24520, Note_on_c, 0, 62, 0
2, 24526, Note_on_c, 0, 70, 37
2, 24530, Note_on_c, 0, 73, 47
2, 24543, Note_on_c, 0, 70, 0
2, 24550, Note_on_c, 0, 73, 0
2, 24566, Note_on_c, 0, 76, 66
2, 24567, Note_on_c, 0, 70, 55
2, 24569, Note_on_c, 0, 67, 54
2, 24586, Note_on_c, 0, 67, 0
2, 24591, Note_on_c, 0, 76, 0
2, 24594, Note_on_c, 0, 70, 0
2, 24609, Note_on_c, 0, 74, 40
2, 24609, Note_on_c, 0, 65, 54
2, 24613, Note_on_c, 0, 69, 45
2, 24630, Note_on_c, 0, 69, 0
2, 24634, Note_on_c, 0, 74, 0
2, 24638, Note_on_c, 0, 65, 0
2, 24669, Control_c, 0, 64, 127
2, 24686, Note_on_c, 0, 56, 37
2, 24716, Note_on_c, 0, 56, 0
2, 24717, Control_c, 0, 64, 0
2, 24728, Note_on_c, 0, 57, 45
2, 24729, Note_on_c, 0, 72, 33
2, 24731, Note_on_c, 0, 60, 39
2, 24734, Note_on_c, 0, 65, 30
2, 24751, Note_on_c, 0, 72, 0
2, 24757, Note_on_c, 0, 65, 0
2, 24775, Note_on_c, 0, 60, 0
2, 24777, Control_c, 0, 64, 127
2, 24794, Note_on_c, 0, 57, 0
2, 24805, Note_on_c, 0, 53, 41
2, 24806, Note_on_c, 0, 69, 62
2, 24807, Note_on_c, 0, 60, 61
2, 24811, Note_on_c, 0, 65, 48
2, 24813, Note_on_c, 0, 53, 0
2, 24819, Note_on_c, 0, 65, 0
2, 24823, Note_on_c, 0, 60, 0
2, 24850, Note_on_c, 0, 54, 47
2, 24867, Control_c, 0, 64, 0
2, 24889, Control_c, 0, 64, 127
2, 24918, Note_on_c, 0, 69, 0
2, 24930, Note_on_c, 0, 44, 37
2, 24949, Note_on_c, 0, 54, 0
2, 24961, Note_on_c, 0, 44, 0
2, 24976, Note_on_c, 0, 53, 40
2, 24978, Note_on_c, 0, 43, 34
2, 24981, Note_on_c, 0, 71, 81
2, 24985, Control_c, 0, 64, 0
2, 24991, Note_on_c, 0, 43, 0
2, 24991, Note_on_c, 0, 53, 0
2, 25003, Note_on_c, 0, 71, 0
2, 25009, Note_on_c, 0, 79, 77
2, 25016, Note_on_c, 0, 77, 30
2, 25023, Note_on_c, 0, 77, 0
2, 25032, Note_on_c, 0, 79, 0
2, 25033, Note_on_c, 0, 71, 57
2, 25057, Control_c, 0, 64, 127
2, 25060, Note_on_c, 0, 71, 0
2, 25062, Note_on_c, 0, 70, 59
2, 25084, Note_on_c, 0, 70, 0
2, 25089, Control_c, 0, 64, 0
2, 25095, Note_on_c, 0, 69, 45
2, 25113, Note_on_c, 0, 69, 0
2, 25120, Note_on_c, 0, 77, 62
2, 25139, Note_on_c, 0, 77, 0
2, 25142, Note_on_c, 0, 69, 54
2, 25158, Note_on_c, 0, 69, 0
2, 25171, Note_on_c, 0, 68, 57
2, 25178, Control_c, 0, 64, 127
2, 25194, Note_on_c, 0, 68, 0
2, 25200, Note_on_c, 0, 67, 37
2, 25206, Note_on_c, 0, 59, 26
2, 25214, Note_on_c, 0, 53, 24
2, 25214, Control_c, 0, 64, 0
2, 25215, Note_on_c, 0, 59, 0
2, 25221, Note_on_c, 0, 67, 0
2, 25225, Note_on_c, 0, 53, 0
2, 25228, Note_on_c, 0, 76, 40
2, 25245, Note_on_c, 0, 76, 0
2, 25254, Note_on_c, 0, 67, 37
2, 25268, Note_on_c, 0, 67, 0
2, 25282, Note_on_c, 0, 66, 51
2, 25288, Control_c, 0, 64, 127
2, 25304, Note_on_c, 0, 66, 0
2, 25311, Control_c, 0, 64, 0
2, 25313, Note_on_c, 0, 65, 51
2, 25334, Note_on_c, 0, 54, 4
2, 25364, Note_on_c, 0, 65, 0
2, 25364, Control_c, 0, 64, 127
2, 25390, Note_on_c, 0, 44, 42
2, 25393, Note_on_c, 0, 50, 20
2, 25396, Note_on_c, 0, 61, 51
2, 25415, Note_on_c, 0, 50, 0
2, 25417, Note_on_c, 0, 54, 0
2, 25419, Note_on_c, 0, 61, 0
2, 25430, Note_on_c, 0, 44, 0
2, 25432, Note_on_c, 0, 62, 55
2, 25432, Control_c, 0, 64, 0
2, 25439, Note_on_c, 0, 53, 28
2, 25443, Note_on_c, 0, 43, 24
2, 25473, Note_on_c, 0, 65, 78
2, 25474, Note_on_c, 0, 62, 0
2, 25477, Note_on_c, 0, 53, 0
2, 25495, Control_c, 0, 64, 127
2, 25510, Note_on_c, 0, 65, 0
2, 25511, Note_on_c, 0, 62, 69
2, 25538, Note_on_c, 0, 62, 0
2, 25552, Note_on_c, 0, 53, 31
2, 25556, Note_on_c, 0, 60, 44
2, 25559, Control_c, 0, 64, 0
2, 25612, Note_on_c, 0, 60, 0
2, 25620, Note_on_c, 0, 43, 0
2, 25624, Control_c, 0, 64, 127
2, 25625, Note_on_c, 0, 53, 0
2, 25631, Note_on_c, 0, 58, 52
2, 25634, Note_on_c, 0, 50, 37
2, 25655, Note_on_c, 0, 50, 0
2, 25663, Note_on_c, 0, 58, 0
2, 25674, Note_on_c, 0, 43, 45
2, 25674, Note_on_c, 0, 59, 36
2, 25676, Control_c, 0, 64, 0
2, 25677, Note_on_c, 0, 53, 32
2, 25703, Note_on_c, 0, 43, 0
2, 25704, Note_on_c, 0, 53, 0
2, 25707, Note_on_c, 0, 59, 0
2, 25714, Note_on_c, 0, 45, 33
2, 25715, Note_on_c, 0, 60, 62
2, 25731, Note_on_c, 0, 60, 0
2, 25748, Note_on_c, 0, 45, 0
2, 25748, Control_c, 0, 64, 127
2, 25749, Note_on_c, 0, 46, 53
2, 25750, Note_on_c, 0, 53, 49
2, 25752, Note_on_c, 0, 61, 52
2, 25757, Note_on_c, 0, 58, 45
2, 25773, Note_on_c, 0, 53, 0
2, 25780, Note_on_c, 0, 61, 0
2, 25786, Note_on_c, 0, 58, 0
2, 25790, Note_on_c, 0, 46, 0
2, 25790, Control_c, 0, 64, 0
2, 25793, Note_on_c, 0, 59, 49
2, 25793, Note_on_c, 0, 62, 53
2, 25794, Note_on_c, 0, 53, 37
2, 25795, Note_on_c, 0, 47, 63
2, 25811, Note_on_c, 0, 47, 0
2, 25820, Control_c, 0, 64, 127
2, 25828, Note_on_c, 0, 53, 0
2, 25847, Note_on_c, 0, 59, 0
2, 25853, Note_on_c, 0, 62, 0
2, 25876, Note_on_c, 0, 43, 55
2, 25882, Note_on_c, 0, 43, 0
2, 25921, Note_on_c, 0, 36, 78
2, 25922, Note_on_c, 0, 24, 77
2, 25923, Control_c, 0, 64, 0
2, 25961, Control_c, 0, 64, 127
2, 26147, Note_on_c, 0, 24, 0
2, 26150, Note_on_c, 0, 36, 0
2, 26152, Note_on_c, 0, 27, 25
2, 26160, Note_on_c, 0, 27, 0
2, 26173, Note_on_c, 0, 38, 54
2, 26174, Note_on_c, 0, 26, 38
2, 26175, Note_on_c, 0, 65, 53
2, 26177, Note_on_c, 0, 60, 50
2, 26179, Note_on_c, 0, 54, 23
2, 26180, Control_c, 0, 64, 0
2, 26232, Control_c, 0, 64, 127
2, 26274, Note_on_c, 0, 54, 0
2, 26276, Note_on_c, 0, 60, 0
2, 26284, Note_on_c, 0, 65, 0
2, 26290, Note_on_c, 0, 26, 0
2, 26296, Note_on_c, 0, 54, 36
2, 26298, Note_on_c, 0, 62, 36
2, 26303, Note_on_c, 0, 38, 0
2, 26303, Note_on_c, 0, 60, 42
2, 26328, Note_on_c, 0, 54, 0
2, 26334, Note_on_c, 0, 60, 0
2, 26340, Note_on_c, 0, 62, 0
2, 26380, Note_on_c, 0, 54, 46
2, 26402, Note_on_c, 0, 54, 0
2, 26413, Note_on_c, 0, 57, 62
2, 26414, Control_c, 0, 64, 0
2, 26415, Note_on_c, 0, 72, 64
2, 26416, Note_on_c, 0, 65, 69
2, 26416, Note_on_c, 0, 62, 58
2, 26457, Note_on_c, 0, 72, 0
2, 26467, Note_on_c, 0, 62, 0
2, 26468, Control_c, 0, 64, 127
2, 26482, Note_on_c, 0, 65, 0
2, 26486, Note_on_c, 0, 57, 0
2, 26489, Note_on_c, 0, 58, 51
2, 26494, Note_on_c, 0, 74, 60
2, 26497, Note_on_c, 0, 65, 44
2, 26501, Note_on_c, 0, 72, 30
2, 26507, Note_on_c, 0, 72, 0
2, 26518, Note_on_c, 0, 65, 0
2, 26519, Note_on_c, 0, 74, 0
2, 26531, Note_on_c, 0, 58, 0
2, 26532, Control_c, 0, 64, 0
2, 26540, Note_on_c, 0, 57, 50
2, 26548, Control_c, 0, 64, 127
2, 26602, Note_on_c, 0, 57, 0
2, 26611, Note_on_c, 0, 58, 48
2, 26614, Note_on_c, 0, 63, 26
2, 26614, Note_on_c, 0, 48, 47
2, 26624, Control_c, 0, 64, 0
2, 26624, Note_on_c, 0, 68, 11
2, 26624, Note_on_c, 0, 69, 17
2, 26637, Note_on_c, 0, 69, 0
2, 26644, Note_on_c, 0, 63, 0
2, 26645, Note_on_c, 0, 68, 0
2, 26650, Note_on_c, 0, 58, 0
2, 26669, Control_c, 0, 64, 127
2, 26732, Note_on_c, 0, 64, 50
2, 26733, Note_on_c, 0, 72, 44
2, 26733, Note_on_c, 0, 68, 37
2, 26734, Note_on_c, 0, 58, 48
2, 26735, Note_on_c, 0, 66, 44
2, 26741, Control_c, 0, 64, 0
2, 26751, Note_on_c, 0, 58, 0
2, 26752, Note_on_c, 0, 64, 0
2, 26757, Note_on_c, 0, 48, 0
2, 26757, Control_c, 0, 64, 127
2, 26759, Note_on_c, 0, 66, 0
2, 26764, Note_on_c, 0, 68, 0
2, 26767, Note_on_c, 0, 72, 0
2, 26850, Note_on_c, 0, 48, 33
2, 26879, Note_on_c, 0, 48, 0
2, 26880, Control_c, 0, 64, 0
2, 26890, Note_on_c, 0, 41, 31
2, 26890, Note_on_c, 0, 50, 41
2, 26891, Note_on_c, 0, 91, 47
2, 26892, Note_on_c, 0, 79, 35
2, 26893, Note_on_c, 0, 88, 41
2, 26896, Note_on_c, 0, 84, 46
2, 26898, Control_c, 0, 64, 127
2, 26900, Note_on_c, 0, 41, 0
2, 26907, Note_on_c, 0, 50, 0
2, 26938, Note_on_c, 0, 84, 0
2, 26942, Note_on_c, 0, 91, 0
2, 26943, Note_on_c, 0, 79, 0
2, 26953, Note_on_c, 0, 88, 0
2, 26976, Note_on_c, 0, 91, 61
2, 26978, Note_on_c, 0, 79, 50
2, 26979, Note_on_c, 0, 84, 59
2, 26979, Note_on_c, 0, 88, 58
2, 27013, Note_on_c, 0, 62, 34
2, 27013, Note_on_c, 0, 60, 32
2, 27017, Note_on_c, 0, 84, 0
2, 27017, Note_on_c, 0, 53, 25
2, 27018, Note_on_c, 0, 91, 0
2, 27020, Note_on_c, 0, 88, 0
2, 27020, Note_on_c, 0, 79, 0
2, 27020, Note_on_c, 0, 57, 28
2, 27030, Note_on_c, 0, 62, 0
2, 27037, Note_on_c, 0, 53, 0
2, 27049, Note_on_c, 0, 91, 64
2, 27050, Note_on_c, 0, 79, 53
2, 27051, Note_on_c, 0, 88, 56
2, 27054, Note_on_c, 0, 84, 53
2, 27055, Note_on_c, 0, 60, 0
2, 27055, Note_on_c, 0, 57, 0
2, 27069, Note_on_c, 0, 84, 0
2, 27070, Note_on_c, 0, 79, 0
2, 27075, Note_on_c, 0, 91, 0
2, 27079, Note_on_c, 0, 88, 0
2, 27089, Note_on_c, 0, 91, 61
2, 27091, Note_on_c, 0, 79, 51
2, 27093, Note_on_c, 0, 84, 52
2, 27094, Note_on_c, 0, 88, 50
2, 27111, Note_on_c, 0, 88, 0
2, 27112, Note_on_c, 0, 91, 0
2, 27114, Note_on_c, 0, 79, 0
2, 27118, Note_on_c, 0, 84, 0
2, 27129, Note_on_c, 0, 64, 35
2, 27131, Note_on_c, 0, 60, 32
2, 27131, Note_on_c, 0, 89, 44
2, 27133, Control_c, 0, 64, 0
2, 27133, Note_on_c, 0, 53, 24
2, 27133, Note_on_c, 0, 57, 37
2, 27134, Note_on_c, 0, 77, 32
2, 27135, Note_on_c, 0, 84, 47
2, 27164, Control_c, 0, 64, 127
2, 27183, Note_on_c, 0, 84, 0
2, 27185, Note_on_c, 0, 89, 0
2, 27185, Note_on_c, 0, 77, 0
2, 27199, Note_on_c, 0, 57, 0
2, 27199, Note_on_c, 0, 64, 0
2, 27200, Note_on_c, 0, 53, 0
2, 27206, Note_on_c, 0, 60, 0
2, 27209, Note_on_c, 0, 89, 54
2, 27212, Note_on_c, 0, 77, 36
2, 27213, Note_on_c, 0, 84, 46
2, 27228, Note_on_c, 0, 77, 0
2, 27230, Note_on_c, 0, 89, 0
2, 27231, Note_on_c, 0, 84, 0
2, 27237, Control_c, 0, 64, 0
2, 27246, Note_on_c, 0, 57, 47
2, 27246, Note_on_c, 0, 64, 40
2, 27249, Note_on_c, 0, 60, 31
2, 27254, Control_c, 0, 64, 127
2, 27287, Note_on_c, 0, 89, 63
2, 27288, Note_on_c, 0, 77, 43
2, 27289, Note_on_c, 0, 84, 49
2, 27308, Note_on_c, 0, 57, 0
2, 27316, Note_on_c, 0, 89, 0
2, 27316, Note_on_c, 0, 64, 0
2, 27317, Note_on_c, 0, 84, 0
2, 27324, Note_on_c, 0, 60, 0
2, 27326, Note_on_c, 0, 53, 60
2, 27332, Note_on_c, 0, 77, 0
2, 27344, Note_on_c, 0, 53, 0
2, 27361, Note_on_c, 0, 76, 50
2, 27362, Note_on_c, 0, 80, 53
2, 27363, Note_on_c, 0, 88, 56
2, 27364, Control_c, 0, 64, 0
2, 27365, Note_on_c, 0, 83, 37
2, 27365, Note_on_c, 0, 62, 35
2, 27366, Note_on_c, 0, 56, 32
2, 27367, Note_on_c, 0, 59, 51
2, 27371, Note_on_c, 0, 53, 24
2, 27403, Control_c, 0, 64, 127
2, 27412, Note_on_c, 0, 76, 0
2, 27415, Note_on_c, 0, 80, 0
2, 27421, Note_on_c, 0, 88, 0
2, 27423, Note_on_c, 0, 83, 0
2, 27430, Note_on_c, 0, 59, 0
2, 27434, Note_on_c, 0, 62, 0
2, 27439, Note_on_c, 0, 56, 0
2, 27443, Note_on_c, 0, 88, 56
2, 27444, Note_on_c, 0, 53, 0
2, 27444, Note_on_c, 0, 76, 51
2, 27444, Note_on_c, 0, 80, 45
2, 27448, Note_on_c, 0, 83, 39
2, 27468, Note_on_c, 0, 76, 0
2, 27470, Note_on_c, 0, 88, 0
2, 27470, Note_on_c, 0, 80, 0
2, 27474, Note_on_c, 0, 83, 0
2, 27480, Note_on_c, 0, 56, 30
2, 27481, Control_c, 0, 64, 0
2, 27482, Note_on_c, 0, 62, 38
2, 27483, Note_on_c, 0, 53, 34
2, 27483, Note_on_c, 0, 59, 36
2, 27488, Note_on_c, 0, 76, 35
2, 27488, Note_on_c, 0, 88, 49
2, 27488, Note_on_c, 0, 80, 38
2, 27492, Note_on_c, 0, 83, 40
2, 27512, Control_c, 0, 64, 127
2, 27525, Note_on_c, 0, 80, 0
2, 27527, Note_on_c, 0, 83, 0
2, 27527, Note_on_c, 0, 76, 0
2, 27533, Note_on_c, 0, 88, 0
2, 27544, Note_on_c, 0, 53, 0
2, 27551, Note_on_c, 0, 59, 0
2, 27555, Note_on_c, 0, 56, 0
2, 27558, Note_on_c, 0, 62, 0
2, 27560, Note_on_c, 0, 88, 74
2, 27562, Note_on_c, 0, 76, 39
2, 27564, Note_on_c, 0, 80, 40
2, 27565, Note_on_c, 0, 83, 48
2, 27567, Note_on_c, 0, 77, 31
2, 27574, Note_on_c, 0, 77, 0
2, 27582, Note_on_c, 0, 88, 0
2, 27583, Note_on_c, 0, 80, 0
2, 27584, Note_on_c, 0, 76, 0
2, 27593, Note_on_c, 0, 83, 0
2, 27602, Note_on_c, 0, 62, 38
2, 27604, Control_c, 0, 64, 0
2, 27604, Note_on_c, 0, 86, 40
2, 27605, Note_on_c, 0, 56, 34
2, 27605, Note_on_c, 0, 80, 38
2, 27608, Note_on_c, 0, 59, 33
2, 27610, Note_on_c, 0, 74, 32
2, 27610, Note_on_c, 0, 83, 22
2, 27624, Note_on_c, 0, 86, 0
2, 27624, Note_on_c, 0, 62, 0
2, 27626, Note_on_c, 0, 59, 0
2, 27628, Note_on_c, 0, 80, 0
2, 27633, Note_on_c, 0, 83, 0
2, 27633, Control_c, 0, 64, 127
2, 27636, Note_on_c, 0, 56, 0
2, 27642, Note_on_c, 0, 74, 0
2, 27690, Note_on_c, 0, 50, 40
2, 27728, Control_c, 0, 64, 0
2, 27729, Note_on_c, 0, 59, 39
2, 27729, Note_on_c, 0, 54, 34
2, 27732, Note_on_c, 0, 44, 33
2, 27741, Note_on_c, 0, 50, 0
2, 27761, Control_c, 0, 64, 127
2, 27799, Note_on_c, 0, 54, 0
2, 27813, Note_on_c, 0, 59, 0
2, 27814, Note_on_c, 0, 50, 27
2, 27836, Note_on_c, 0, 50, 0
2, 27840, Control_c, 0, 64, 0
2, 27844, Note_on_c, 0, 44, 0
2, 27851, Note_on_c, 0, 58, 44
2, 27860, Control_c, 0, 64, 127
2, 27861, Note_on_c, 0, 43, 22
2, 27883, Note_on_c, 0, 43, 0
2, 27910, Note_on_c, 0, 58, 0
2, 27918, Note_on_c, 0, 51, 47
2, 27927, Note_on_c, 0, 51, 0
2, 27928, Note_on_c, 0, 52, 67
2, 27930, Note_on_c, 0, 58, 69
2, 27930, Note_on_c, 0, 65, 72
2, 27932, Note_on_c, 0, 62, 68
2, 27932, Note_on_c, 0, 55, 73
2, 27935, Note_on_c, 0, 53, 63
2, 27943, Note_on_c, 0, 52, 0
2, 27958, Control_c, 0, 64, 0
2, 27993, Note_on_c, 0, 55, 0
2, 27998, Note_on_c, 0, 53, 0
2, 28000, Note_on_c, 0, 58, 0
2, 28000, Note_on_c, 0, 50, 35
2, 28002, Note_on_c, 0, 65, 0
2, 28002, Note_on_c, 0, 62, 0
2, 28004, Note_on_c, 0, 51, 39
2, 28013, Note_on_c, 0, 51, 0
2, 28014, Note_on_c, 0, 50, 0
2, 28016, Note_on_c, 0, 52, 53
2, 28020, Note_on_c, 0, 58, 57
2, 28020, Note_on_c, 0, 62, 64
2, 28021, Note_on_c, 0, 65, 57
2, 28022, Note_on_c, 0, 53, 58
2, 28023, Note_on_c, 0, 55, 64
2, 28024, Note_on_c, 0, 52, 0
2, 28035, Control_c, 0, 64, 127
2, 28061, Note_on_c, 0, 53, 0
2, 28061, Note_on_c, 0, 55, 0
2, 28069, Note_on_c, 0, 62, 0
2, 28073, Note_on_c, 0, 58, 0
2, 28074, Note_on_c, 0, 47, 18
2, 28077, Note_on_c, 0, 48, 43
2, 28085, Note_on_c, 0, 65, 0
2, 28086, Note_on_c, 0, 47, 0
2, 28093, Note_on_c, 0, 48, 0
2, 28097, Control_c, 0, 64, 0
2, 28097, Note_on_c, 0, 62, 27
2, 28097, Note_on_c, 0, 58, 53
2, 28097, Note_on_c, 0, 50, 44
2, 28100, Note_on_c, 0, 55, 39
2, 28101, Note_on_c, 0, 53, 45
2, 28102, Note_on_c, 0, 49, 23
2, 28108, Note_on_c, 0, 49, 0
2, 28135, Control_c, 0, 64, 127
2, 28144, Note_on_c, 0, 53, 0
2, 28146, Note_on_c, 0, 55, 0
2, 28150, Note_on_c, 0, 50, 0
2, 28151, Note_on_c, 0, 58, 0
2, 28156, Note_on_c, 0, 62, 0
2, 28174, Note_on_c, 0, 62, 58
2, 28175, Note_on_c, 0, 58, 45
2, 28177, Note_on_c, 0, 55, 32
2, 28178, Note_on_c, 0, 50, 46
2, 28179, Note_on_c, 0, 53, 31
2, 28183, Control_c, 0, 64, 0
2, 28185, Note_on_c, 0, 50, 0
2, 28185, Note_on_c, 0, 55, 0
2, 28186, Note_on_c, 0, 53, 0
2, 28188, Note_on_c, 0, 58, 0
2, 28191, Note_on_c, 0, 62, 0
2, 28230, Control_c, 0, 64, 127
2, 28283, Note_on_c, 0, 24, 63
2, 28286, Control_c, 0, 64, 0
2, 28297, Control_c, 0, 64, 127
2, 28298, Note_on_c, 0, 24, 0
2, 28404, Note_on_c, 0, 84, 87
2, 28405, Note_on_c, 0, 72, 94
2, 28405, Note_on_c, 0, 79, 83
2, 28405, Note_on_c, 0, 58, 67
2, 28406, Note_on_c, 0, 60, 74
2, 28406, Note_on_c, 0, 64, 82
2, 28437, Note_on_c, 0, 72, 0
2, 28443, Note_on_c, 0, 79, 0
2, 28445, Note_on_c, 0, 84, 0
2, 28462, Note_on_c, 0, 84, 55
2, 28463, Note_on_c, 0, 79, 62
2, 28465, Note_on_c, 0, 72, 63
2, 28479, Note_on_c, 0, 72, 0
2, 28482, Note_on_c, 0, 64, 0
2, 28483, Note_on_c, 0, 60, 0
2, 28485, Note_on_c, 0, 84, 0
2, 28487, Note_on_c, 0, 58, 0
2, 28487, Note_on_c, 0, 79, 0
2, 28534, Note_on_c, 0, 79, 80
2, 28535, Note_on_c, 0, 84, 79
2, 28535, Note_on_c, 0, 72, 80
2, 28542, Note_on_c, 0, 72, 0
2, 28544, Note_on_c, 0, 84, 0
2, 28546, Note_on_c, 0, 79, 0
2, 28561, Control_c, 0, 64, 0
2, 28574, Note_on_c, 0, 50, 46
2, 28575, Note_on_c, 0, 60, 57
2, 28575, Note_on_c, 0, 54, 44
2, 28581, Note_on_c, 0, 60, 0
2, 28581, Note_on_c, 0, 50, 0
2, 28589, Note_on_c, 0, 54, 0
2, 28627, Control_c, 0, 64, 127
2, 28651, Note_on_c, 0, 81, 51
2, 28653, Note_on_c, 0, 73, 38
2, 28653, Note_on_c, 0, 69, 50
2, 28653, Note_on_c, 0, 54, 37
2, 28653, Note_on_c, 0, 76, 37
2, 28654, Note_on_c, 0, 60, 32
2, 28656, Note_on_c, 0, 64, 24
2, 28666, Note_on_c, 0, 69, 0
2, 28666, Note_on_c, 0, 73, 0
2, 28668, Note_on_c, 0, 64, 0
2, 28672, Note_on_c, 0, 81, 0
2, 28672, Note_on_c, 0, 76, 0
2, 28675, Note_on_c, 0, 60, 0
2, 28676, Note_on_c, 0, 54, 0
2, 28678, Control_c, 0, 64, 0
2, 28700, Note_on_c, 0, 69, 52
2, 28700, Note_on_c, 0, 64, 37
2, 28700, Note_on_c, 0, 81, 37
2, 28703, Note_on_c, 0, 73, 33
2, 28703, Note_on_c, 0, 54, 33
2, 28705, Note_on_c, 0, 76, 34
2, 28708, Note_on_c, 0, 64, 0
2, 28710, Note_on_c, 0, 73, 0
2, 28712, Note_on_c, 0, 69, 0
2, 28713, Note_on_c, 0, 76, 0
2, 28714, Note_on_c, 0, 81, 0
2, 28718, Note_on_c, 0, 54, 0
2, 28756, Control_c, 0, 64, 127
2, 28773, Note_on_c, 0, 44, 53
2, 28776, Note_on_c, 0, 73, 50
2, 28777, Note_on_c, 0, 69, 57
2, 28778, Note_on_c, 0, 81, 47
2, 28778, Note_on_c, 0, 76, 38
2, 28783, Note_on_c, 0, 69, 0
2, 28787, Note_on_c, 0, 76, 0
2, 28787, Note_on_c, 0, 73, 0
2, 28795, Note_on_c, 0, 81, 0
2, 28796, Note_on_c, 0, 44, 0
2, 28799, Control_c, 0, 64, 0
2, 28817, Note_on_c, 0, 43, 51
2, 28824, Note_on_c, 0, 43, 0
2, 28894, Note_on_c, 0, 62, 50
2, 28894, Note_on_c, 0, 72, 63
2, 28895, Note_on_c, 0, 58, 37
2, 28896, Note_on_c, 0, 84, 53
2, 28897, Note_on_c, 0, 81, 44
2, 28898, Note_on_c, 0, 57, 42
2, 28898, Note_on_c, 0, 53, 27
2, 28900, Note_on_c, 0, 77, 43
2, 28905, Note_on_c, 0, 57, 0
2, 28907, Note_on_c, 0, 77, 0
2, 28907, Note_on_c, 0, 81, 0
2, 28908, Note_on_c, 0, 62, 0
2, 28910, Note_on_c, 0, 72, 0
2, 28910, Note_on_c, 0, 53, 0
2, 28911, Note_on_c, 0, 84, 0
2, 28913, Note_on_c, 0, 58, 0
2, 28939, Note_on_c, 0, 72, 56
2, 28940, Note_on_c, 0, 58, 37
2, 28940, Note_on_c, 0, 84, 48
2, 28943, Note_on_c, 0, 81, 30
2, 28944, Note_on_c, 0, 53, 24
2, 28945, Note_on_c, 0, 57, 24
2, 28946, Note_on_c, 0, 72, 0
2, 28947, Note_on_c, 0, 84, 0
2, 28951, Note_on_c, 0, 81, 0
2, 28951, Note_on_c, 0, 53, 0
2, 28951, Note_on_c, 0, 57, 0
2, 28954, Note_on_c, 0, 58, 0
2, 28994, Control_c, 0, 64, 127
2, 29009, Note_on_c, 0, 58, 42
2, 29010, Note_on_c, 0, 53, 43
2, 29012, Note_on_c, 0, 84, 65
2, 29013, Note_on_c, 0, 72, 71
2, 29017, Note_on_c, 0, 77, 33
2, 29018, Note_on_c, 0, 53, 0
2, 29023, Note_on_c, 0, 72, 0
2, 29024, Note_on_c, 0, 77, 0
2, 29025, Note_on_c, 0, 84, 0
2, 29026, Note_on_c, 0, 58, 0
2, 29048, Control_c, 0, 64, 0
2, 29057, Note_on_c, 0, 81, 61
2, 29058, Note_on_c, 0, 58, 46
2, 29059, Note_on_c, 0, 73, 35
2, 29059, Note_on_c, 0, 60, 54
2, 29061, Note_on_c, 0, 69, 32
2, 29063, Note_on_c, 0, 52, 36
2, 29066, Note_on_c, 0, 60, 0
2, 29066, Note_on_c, 0, 73, 0
2, 29068, Note_on_c, 0, 69, 0
2, 29071, Note_on_c, 0, 52, 0
2, 29072, Note_on_c, 0, 81, 0
2, 29073, Note_on_c, 0, 58, 0
2, 29131, Note_on_c, 0, 81, 68
2, 29132, Note_on_c, 0, 73, 60
2, 29133, Note_on_c, 0, 76, 55
2, 29134, Note_on_c, 0, 69, 60
2, 29135, Note_on_c, 0, 58, 36
2, 29135, Note_on_c, 0, 52, 55
2, 29136, Note_on_c, 0, 60, 51
2, 29167, Control_c, 0, 64, 127
2, 29186, Note_on_c, 0, 81, 0
2, 29192, Note_on_c, 0, 60, 0
2, 29195, Note_on_c, 0, 76, 0
2, 29197, Note_on_c, 0, 69, 0
2, 29198, Note_on_c, 0, 73, 0
2, 29200, Note_on_c, 0, 58, 0
2, 29254, Note_on_c, 0, 53, 22
2, 29258, Note_on_c, 0, 52, 0
2, 29261, Note_on_c, 0, 54, 26
2, 29276, Note_on_c, 0, 55, 51
2, 29277, Note_on_c, 0, 53, 0
2, 29292, Note_on_c, 0, 67, 64
2, 29293, Control_c, 0, 64, 0
2, 29294, Note_on_c, 0, 55, 0
2, 29294, Note_on_c, 0, 62, 71
2, 29294, Note_on_c, 0, 72, 62
2, 29294, Note_on_c, 0, 57, 60
2, 29303, Note_on_c, 0, 54, 0
2, 29342, Control_c, 0, 64, 127
2, 29363, Note_on_c, 0, 72, 0
2, 29363, Note_on_c, 0, 67, 0
2, 29363, Note_on_c, 0, 62, 0
2, 29407, Note_on_c, 0, 67, 48
2, 29408, Note_on_c, 0, 57, 0
2, 29408, Note_on_c, 0, 72, 42
2, 29409, Control_c, 0, 64, 0
2, 29410, Note_on_c, 0, 62, 53
2, 29411, Note_on_c, 0, 49, 37
2, 29428, Note_on_c, 0, 72, 0
2, 29429, Control_c, 0, 64, 127
2, 29434, Note_on_c, 0, 67, 0
2, 29453, Note_on_c, 0, 62, 0
2, 29496, Note_on_c, 0, 49, 0
2, 29525, Control_c, 0, 64, 0
2, 29528, Note_on_c, 0, 69, 38
2, 29530, Note_on_c, 0, 64, 47
2, 29530, Note_on_c, 0, 58, 37
2, 29531, Note_on_c, 0, 48, 36
2, 29531, Note_on_c, 0, 61, 46
2, 29532, Note_on_c, 0, 55, 34
2, 29550, Note_on_c, 0, 69, 0
2, 29550, Control_c, 0, 64, 127
2, 29554, Note_on_c, 0, 58, 0
2, 29565, Note_on_c, 0, 64, 0
2, 29569, Note_on_c, 0, 61, 0
2, 29577, Note_on_c, 0, 60, 70
2, 29599, Note_on_c, 0, 60, 0
2, 29612, Note_on_c, 0, 62, 77
2, 29635, Note_on_c, 0, 62, 0
2, 29647, Control_c, 0, 64, 0
2, 29649, Note_on_c, 0, 55, 0
2, 29649, Note_on_c, 0, 65, 79
2, 29672, Note_on_c, 0, 48, 0
2, 29675, Note_on_c, 0, 65, 0
2, 29684, Note_on_c, 0, 67, 66
2, 29707, Control_c, 0, 64, 127
2, 29711, Note_on_c, 0, 67, 0
2, 29727, Control_c, 0, 64, 0
2, 29728, Note_on_c, 0, 65, 82
2, 29793, Control_c, 0, 64, 127
2, 29828, Note_on_c, 0, 46, 32
2, 29831, Note_on_c, 0, 62, 43
2, 29832, Note_on_c, 0, 57, 53
2, 29833, Control_c, 0, 64, 0
2, 29834, Note_on_c, 0, 46, 0
2, 29836, Note_on_c, 0, 47, 41
2, 29870, Note_on_c, 0, 62, 0
2, 29871, Note_on_c, 0, 47, 0
2, 29872, Note_on_c, 0, 57, 0
2, 29886, Note_on_c, 0, 57, 37
2, 29887, Note_on_c, 0, 62, 52
2, 29887, Note_on_c, 0, 47, 42
2, 29903, Note_on_c, 0, 47, 0
2, 29903, Note_on_c, 0, 57, 0
2, 29904, Note_on_c, 0, 62, 0
2, 29918, Note_on_c, 0, 65, 0
2, 29963, Note_on_c, 0, 57, 45
2, 29963, Note_on_c, 0, 62, 38
2, 29964, Note_on_c, 0, 47, 45
2, 29964, Note_on_c, 0, 65, 37
2, 29967, Control_c, 0, 64, 127
2, 29979, Note_on_c, 0, 57, 0
2, 29993, Note_on_c, 0, 65, 0
2, 30002, Note_on_c, 0, 47, 0
2, 30004, Note_on_c, 0, 62, 0
2, 30007, Control_c, 0, 64, 0
2, 30013, Note_on_c, 0, 46, 34
2, 30014, Note_on_c, 0, 56, 30
2, 30015, Note_on_c, 0, 61, 44
2, 30028, Note_on_c, 0, 56, 0
2, 30037, Note_on_c, 0, 61, 0
2, 30049, Note_on_c, 0, 46, 0
2, 30055, Note_on_c, 0, 60, 71
2, 30070, Note_on_c, 0, 60, 0
2, 30089, Note_on_c, 0, 62, 76
2, 30111, Note_on_c, 0, 62, 0
2, 30126, Note_on_c, 0, 65, 81
2, 30149, Note_on_c, 0, 65, 0
2, 30162, Note_on_c, 0, 67, 75
2, 30186, Note_on_c, 0, 67, 0
2, 30207, Note_on_c, 0, 65, 66
2, 30209, Control_c, 0, 64, 127
2, 30281, Control_c, 0, 64, 0
2, 30304, Note_on_c, 0, 55, 49
2, 30307, Note_on_c, 0, 60, 37
2, 30311, Note_on_c, 0, 45, 24
2, 30316, Note_on_c, 0, 60, 0
2, 30325, Note_on_c, 0, 55, 0
2, 30326, Note_on_c, 0, 45, 0
2, 30347, Control_c, 0, 64, 127
2, 30359, Control_c, 0, 64, 0
2, 30380, Note_on_c, 0, 55, 39
2, 30380, Note_on_c, 0, 60, 42
2, 30381, Note_on_c, 0, 45, 28
2, 30401, Note_on_c, 0, 55, 0
2, 30402, Control_c, 0, 64, 127
2, 30404, Note_on_c, 0, 45, 0
2, 30404, Note_on_c, 0, 60, 0
2, 30457, Note_on_c, 0, 59, 43
2, 30457, Note_on_c, 0, 54, 36
2, 30458, Note_on_c, 0, 44, 36
2, 30480, Note_on_c, 0, 54, 0
2, 30482, Note_on_c, 0, 59, 0
2, 30485, Control_c, 0, 64, 0
2, 30488, Note_on_c, 0, 44, 0
2, 30503, Note_on_c, 0, 65, 0
2, 30544, Note_on_c, 0, 60, 50
2, 30572, Note_on_c, 0, 60, 0
2, 30577, Note_on_c, 0, 61, 55
2, 30596, Note_on_c, 0, 61, 0
2, 30614, Note_on_c, 0, 62, 58
2, 30631, Note_on_c, 0, 62, 0
2, 30650, Note_on_c, 0, 65, 59
2, 30664, Note_on_c, 0, 65, 0
2, 30684, Note_on_c, 0, 67, 66
2, 30694, Control_c, 0, 64, 127
2, 30708, Note_on_c, 0, 67, 0
2, 30727, Control_c, 0, 64, 0
2, 30729, Note_on_c, 0, 65, 65
2, 30770, Control_c, 0, 64, 127
2, 30806, Control_c, 0, 64, 0
2, 30807, Note_on_c, 0, 60, 36
2, 30808, Note_on_c, 0, 55, 33
2, 30809, Note_on_c, 0, 43, 22
2, 30810, Note_on_c, 0, 31, 27
2, 30817, Note_on_c, 0, 55, 0
2, 30818, Note_on_c, 0, 60, 0
2, 30822, Note_on_c, 0, 43, 0
2, 30824, Note_on_c, 0, 31, 0
2, 30828, Note_on_c, 0, 65, 0
2, 30856, Note_on_c, 0, 43, 19
2, 30857, Note_on_c, 0, 60, 22
2, 30863, Note_on_c, 0, 60, 0
2, 30866, Note_on_c, 0, 43, 0
2, 30914, Control_c, 0, 64, 127
2, 30930, Note_on_c, 0, 31, 17
2, 30935, Note_on_c, 0, 60, 28
2, 30941, Note_on_c, 0, 31, 0
2, 30943, Note_on_c, 0, 60, 0
2, 30971, Control_c, 0, 64, 0
2, 30984, Note_on_c, 0, 42, 45
2, 30984, Note_on_c, 0, 30, 46
2, 30986, Note_on_c, 0, 65, 44
2, 30992, Note_on_c, 0, 60, 48
2, 30993, Note_on_c, 0, 58, 31
2, 31021, Note_on_c, 0, 60, 0
2, 31023, Control_c, 0, 64, 127
2, 31033, Note_on_c, 0, 58, 0
2, 31038, Note_on_c, 0, 65, 0
2, 31042, Note_on_c, 0, 30, 0
2, 31042, Note_on_c, 0, 42, 0
2, 31068, Control_c, 0, 64, 0
2, 31109, Note_on_c, 0, 65, 41
2, 31110, Note_on_c, 0, 30, 39
2, 31110, Note_on_c, 0, 58, 31
2, 31110, Note_on_c, 0, 42, 32
2, 31115, Control_c, 0, 64, 127
2, 31116, Note_on_c, 0, 60, 35
2, 31124, Note_on_c, 0, 65, 0
2, 31125, Note_on_c, 0, 60, 0
2, 31130, Note_on_c, 0, 58, 0
2, 31141, Note_on_c, 0, 42, 0
2, 31147, Note_on_c, 0, 30, 0
2, 31195, Note_on_c, 0, 67, 51
2, 31196, Note_on_c, 0, 62, 36
2, 31198, Note_on_c, 0, 55, 41
2, 31198, Note_on_c, 0, 60, 44
2, 31200, Note_on_c, 0, 41, 38
2, 31202, Note_on_c, 0, 29, 32
2, 31204, Note_on_c, 0, 57, 30
2, 31207, Control_c, 0, 64, 0
2, 31250, Control_c, 0, 64, 127
2, 31263, Note_on_c, 0, 57, 0
2, 31263, Note_on_c, 0, 55, 0
2, 31266, Note_on_c, 0, 60, 0
2, 31267, Note_on_c, 0, 62, 0
2, 31282, Note_on_c, 0, 67, 0
2, 31321, Note_on_c, 0, 79, 41
2, 31322, Note_on_c, 0, 67, 28
2, 31328, Note_on_c, 0, 67, 0
2, 31339, Note_on_c, 0, 79, 0
2, 31385, Note_on_c, 0, 74, 48
2, 31386, Note_on_c, 0, 86, 54
2, 31392, Note_on_c, 0, 74, 0
2, 31401, Note_on_c, 0, 86, 0
2, 31451, Note_on_c, 0, 91, 52
2, 31451, Note_on_c, 0, 79, 39
2, 31457, Note_on_c, 0, 79, 0
2, 31463, Note_on_c, 0, 91, 0
2, 31514, Note_on_c, 0, 81, 37
2, 31514, Note_on_c, 0, 93, 51
2, 31521, Note_on_c, 0, 81, 0
2, 31531, Note_on_c, 0, 93, 0
2, 31577, Note_on_c, 0, 98, 34
2, 31590, Note_on_c, 0, 98, 0
2, 31641, Note_on_c, 0, 103, 46
2, 31642, Note_on_c, 0, 91, 32
2, 31654, Note_on_c, 0, 91, 0
2, 31658, Note_on_c, 0, 103, 0
2, 31777, Note_on_c, 0, 98, 28
2, 31807, Note_on_c, 0, 98, 0
2, 31831, Note_on_c, 0, 29, 0
2, 31836, Note_on_c, 0, 41, 0
2, 31970, Control_c, 0, 64, 0
2, 31970, End_track
0, 0, End_of_file
