0, 0, Header, 0, 1, 120
1, 0, Start_track
1, 0, Title_t, "untitled"
1, 0, Text_t, "Doug McK"
1, 0, Time_signature, 4, 2, 24, 8
1, 0, Key_signature, 0, "major"
1, 0, Tempo, 487805
1, 0, Program_c, 0, 0
1, 0, Program_c, 0, 0
1, 173, Note_on_c, 0, 66, 53
1, 208, Note_on_c, 0, 66, 0
1, 232, Note_on_c, 0, 67, 40
1, 257, Note_on_c, 0, 67, 0
1, 293, Note_on_c, 0, 69, 50
1, 318, Note_on_c, 0, 69, 0
1, 350, Note_on_c, 0, 71, 45
1, 368, Note_on_c, 0, 71, 0
1, 418, Note_on_c, 0, 72, 38
1, 439, Note_on_c, 0, 72, 0
1, 480, Note_on_c, 0, 74, 71
1, 480, Note_on_c, 0, 62, 31
1, 519, Note_on_c, 0, 74, 0
1, 529, Note_on_c, 0, 62, 0
1, 547, Note_on_c, 0, 50, 51
1, 548, Note_on_c, 0, 64, 47
1, 549, Note_on_c, 0, 71, 52
1, 551, Note_on_c, 0, 67, 40
1, 560, Note_on_c, 0, 67, 0
1, 561, Note_on_c, 0, 64, 0
1, 565, Note_on_c, 0, 50, 0
1, 569, Note_on_c, 0, 71, 0
1, 665, Note_on_c, 0, 74, 57
1, 666, Note_on_c, 0, 62, 44
1, 686, Note_on_c, 0, 62, 0
1, 690, Note_on_c, 0, 74, 0
1, 724, Note_on_c, 0, 66, 46
1, 725, Note_on_c, 0, 70, 52
1, 726, Note_on_c, 0, 62, 47
1, 727, Note_on_c, 0, 50, 43
1, 734, Note_on_c, 0, 62, 0
1, 739, Note_on_c, 0, 50, 0
1, 739, Note_on_c, 0, 66, 0
1, 745, Note_on_c, 0, 70, 0
1, 845, Note_on_c, 0, 74, 69
1, 850, Note_on_c, 0, 62, 32
1, 879, Note_on_c, 0, 74, 0
1, 896, Note_on_c, 0, 62, 0
1, 911, Note_on_c, 0, 67, 53
1, 912, Note_on_c, 0, 64, 47
1, 913, Note_on_c, 0, 71, 55
1, 914, Note_on_c, 0, 50, 37
1, 919, Note_on_c, 0, 64, 0
1, 920, Note_on_c, 0, 67, 0
1, 924, Note_on_c, 0, 50, 0
1, 925, Note_on_c, 0, 71, 0
1, 1020, Note_on_c, 0, 62, 44
1, 1023, Note_on_c, 0, 74, 68
1, 1032, Note_on_c, 0, 62, 0
1, 1042, Note_on_c, 0, 74, 0
1, 1080, Note_on_c, 0, 66, 59
1, 1080, Note_on_c, 0, 70, 60
1, 1082, Note_on_c, 0, 50, 46
1, 1082, Note_on_c, 0, 62, 49
1, 1089, Note_on_c, 0, 62, 0
1, 1092, Note_on_c, 0, 50, 0
1, 1094, Note_on_c, 0, 66, 0
1, 1098, Note_on_c, 0, 70, 0
1, 1201, Note_on_c, 0, 62, 44
1, 1201, Note_on_c, 0, 74, 79
1, 1209, Note_on_c, 0, 62, 0
1, 1223, Note_on_c, 0, 74, 0
1, 1267, Note_on_c, 0, 50, 39
1, 1268, Note_on_c, 0, 71, 53
1, 1268, Note_on_c, 0, 67, 44
1, 1275, Note_on_c, 0, 67, 0
1, 1277, Note_on_c, 0, 50, 0
1, 1279, Note_on_c, 0, 71, 0
1, 1385, Note_on_c, 0, 74, 53
1, 1389, Note_on_c, 0, 67, 50
1, 1396, Note_on_c, 0, 67, 0
1, 1396, Note_on_c, 0, 74, 0
1, 1443, Note_on_c, 0, 69, 52
1, 1443, Note_on_c, 0, 62, 55
1, 1444, Note_on_c, 0, 66, 27
1, 1445, Note_on_c, 0, 54, 52
1, 1445, Note_on_c, 0, 59, 54
1, 1562, Control_c, 0, 64, 127
1, 1597, Note_on_c, 0, 62, 0
1, 1602, Note_on_c, 0, 59, 0
1, 1611, Note_on_c, 0, 69, 0
1, 1635, Note_on_c, 0, 66, 0
1, 1648, Note_on_c, 0, 51, 37
1, 1668, Control_c, 0, 64, 0
1, 1674, Note_on_c, 0, 55, 87
1, 1675, Note_on_c, 0, 67, 68
1, 1676, Note_on_c, 0, 64, 74
1, 1677, Note_on_c, 0, 61, 67
1, 1678, Note_on_c, 0, 54, 0
1, 1678, Note_on_c, 0, 70, 64
1, 1689, Note_on_c, 0, 51, 0
1, 1790, Note_on_c, 0, 67, 0
1, 1790, Control_c, 0, 64, 127
1, 1791, Note_on_c, 0, 64, 0
1, 1814, Note_on_c, 0, 61, 0
1, 1815, Note_on_c, 0, 70, 0
1, 1866, Note_on_c, 0, 55, 0
1, 1870, Note_on_c, 0, 66, 42
1, 1870, Note_on_c, 0, 59, 53
1, 1872, Note_on_c, 0, 62, 55
1, 1872, Note_on_c, 0, 54, 38
1, 1872, Note_on_c, 0, 69, 42
1, 1876, Control_c, 0, 64, 0
1, 1877, Note_on_c, 0, 59, 0
1, 1879, Note_on_c, 0, 62, 0
1, 1884, Note_on_c, 0, 54, 0
1, 1885, Note_on_c, 0, 69, 0
1, 1892, Note_on_c, 0, 66, 0
1, 1983, Note_on_c, 0, 62, 39
1, 1985, Note_on_c, 0, 50, 26
1, 2016, Note_on_c, 0, 50, 0
1, 2034, Note_on_c, 0, 62, 0
1, 2035, Note_on_c, 0, 64, 46
1, 2039, Note_on_c, 0, 52, 32
1, 2095, Note_on_c, 0, 66, 63
1, 2095, Note_on_c, 0, 54, 59
1, 2100, Note_on_c, 0, 64, 0
1, 2115, Note_on_c, 0, 52, 0
1, 2143, Note_on_c, 0, 66, 0
1, 2145, Note_on_c, 0, 55, 68
1, 2155, Note_on_c, 0, 54, 0
1, 2155, Note_on_c, 0, 67, 48
1, 2195, Note_on_c, 0, 67, 0
1, 2205, Note_on_c, 0, 55, 0
1, 2208, Note_on_c, 0, 69, 87
1, 2208, Note_on_c, 0, 57, 76
1, 2261, Note_on_c, 0, 69, 0
1, 2266, Note_on_c, 0, 59, 64
1, 2266, Note_on_c, 0, 71, 71
1, 2267, Note_on_c, 0, 57, 0
1, 2323, Note_on_c, 0, 71, 0
1, 2329, Note_on_c, 0, 60, 73
1, 2330, Note_on_c, 0, 72, 74
1, 2332, Note_on_c, 0, 59, 0
1, 2362, Note_on_c, 0, 60, 0
1, 2372, Note_on_c, 0, 72, 0
1, 2391, Note_on_c, 0, 62, 50
1, 2393, Note_on_c, 0, 74, 76
1, 2395, Note_on_c, 0, 67, 66
1, 2409, Note_on_c, 0, 67, 0
1, 2417, Note_on_c, 0, 74, 0
1, 2431, Note_on_c, 0, 62, 0
1, 2463, Note_on_c, 0, 71, 30
1, 2465, Note_on_c, 0, 50, 32
1, 2474, Note_on_c, 0, 50, 0
1, 2482, Note_on_c, 0, 71, 0
1, 2573, Note_on_c, 0, 74, 42
1, 2575, Note_on_c, 0, 62, 35
1, 2591, Note_on_c, 0, 62, 0
1, 2602, Note_on_c, 0, 74, 0
1, 2631, Note_on_c, 0, 70, 35
1, 2633, Note_on_c, 0, 66, 31
1, 2634, Note_on_c, 0, 62, 28
1, 2636, Note_on_c, 0, 50, 35
1, 2646, Note_on_c, 0, 50, 0
1, 2649, Note_on_c, 0, 62, 0
1, 2652, Note_on_c, 0, 66, 0
1, 2662, Note_on_c, 0, 70, 0
1, 2753, Note_on_c, 0, 62, 29
1, 2754, Note_on_c, 0, 74, 37
1, 2787, Note_on_c, 0, 74, 0
1, 2794, Note_on_c, 0, 62, 0
1, 2814, Note_on_c, 0, 64, 43
1, 2814, Note_on_c, 0, 71, 40
1, 2815, Note_on_c, 0, 67, 44
1, 2819, Note_on_c, 0, 50, 26
1, 2823, Note_on_c, 0, 64, 0
1, 2825, Note_on_c, 0, 67, 0
1, 2831, Note_on_c, 0, 50, 0
1, 2832, Note_on_c, 0, 71, 0
1, 2929, Note_on_c, 0, 62, 36
1, 2931, Note_on_c, 0, 74, 51
1, 2941, Note_on_c, 0, 62, 0
1, 2950, Note_on_c, 0, 74, 0
1, 2984, Note_on_c, 0, 70, 53
1, 2986, Note_on_c, 0, 66, 39
1, 2988, Note_on_c, 0, 62, 33
1, 2993, Note_on_c, 0, 50, 24
1, 2996, Note_on_c, 0, 62, 0
1, 2997, Note_on_c, 0, 66, 0
1, 3002, Note_on_c, 0, 50, 0
1, 3004, Note_on_c, 0, 70, 0
1, 3109, Note_on_c, 0, 74, 66
1, 3112, Note_on_c, 0, 62, 26
1, 3122, Note_on_c, 0, 62, 0
1, 3130, Note_on_c, 0, 74, 0
1, 3177, Note_on_c, 0, 67, 41
1, 3178, Note_on_c, 0, 71, 36
1, 3182, Note_on_c, 0, 50, 20
1, 3186, Note_on_c, 0, 67, 0
1, 3189, Note_on_c, 0, 50, 0
1, 3191, Note_on_c, 0, 71, 0
1, 3300, Note_on_c, 0, 74, 35
1, 3309, Note_on_c, 0, 50, 20
1, 3310, Note_on_c, 0, 74, 0
1, 3317, Note_on_c, 0, 50, 0
1, 3359, Note_on_c, 0, 66, 35
1, 3359, Note_on_c, 0, 69, 46
1, 3362, Note_on_c, 0, 59, 44
1, 3362, Note_on_c, 0, 62, 42
1, 3364, Note_on_c, 0, 54, 36
1, 3475, Control_c, 0, 64, 127
1, 3509, Note_on_c, 0, 54, 0
1, 3521, Note_on_c, 0, 69, 0
1, 3522, Note_on_c, 0, 62, 0
1, 3522, Note_on_c, 0, 59, 0
1, 3547, Note_on_c, 0, 52, 36
1, 3553, Note_on_c, 0, 66, 0
1, 3565, Note_on_c, 0, 53, 62
1, 3585, Note_on_c, 0, 54, 77
1, 3589, Note_on_c, 0, 53, 0
1, 3589, Control_c, 0, 64, 0
1, 3591, Note_on_c, 0, 52, 0
1, 3595, Note_on_c, 0, 55, 76
1, 3596, Note_on_c, 0, 65, 68
1, 3597, Note_on_c, 0, 60, 64
1, 3597, Note_on_c, 0, 70, 63
1, 3605, Note_on_c, 0, 54, 0
1, 3705, Note_on_c, 0, 65, 0
1, 3708, Control_c, 0, 64, 127
1, 3719, Note_on_c, 0, 70, 0
1, 3729, Note_on_c, 0, 60, 0
1, 3785, Note_on_c, 0, 66, 35
1, 3786, Note_on_c, 0, 59, 36
1, 3787, Note_on_c, 0, 62, 46
1, 3789, Note_on_c, 0, 54, 51
1, 3793, Note_on_c, 0, 69, 24
1, 3795, Note_on_c, 0, 59, 0
1, 3798, Note_on_c, 0, 55, 0
1, 3800, Control_c, 0, 64, 0
1, 3801, Note_on_c, 0, 62, 0
1, 3802, Note_on_c, 0, 69, 0
1, 3806, Note_on_c, 0, 66, 0
1, 3808, Note_on_c, 0, 54, 0
1, 3906, Note_on_c, 0, 69, 80
1, 3909, Note_on_c, 0, 57, 47
1, 3947, Note_on_c, 0, 69, 0
1, 3948, Note_on_c, 0, 57, 0
1, 3959, Note_on_c, 0, 62, 29
1, 3962, Note_on_c, 0, 50, 31
1, 4011, Note_on_c, 0, 62, 0
1, 4020, Note_on_c, 0, 66, 39
1, 4021, Note_on_c, 0, 50, 0
1, 4023, Note_on_c, 0, 54, 35
1, 4065, Note_on_c, 0, 66, 0
1, 4079, Note_on_c, 0, 67, 20
1, 4083, Note_on_c, 0, 55, 36
1, 4121, Note_on_c, 0, 55, 0
1, 4123, Note_on_c, 0, 54, 0
1, 4135, Note_on_c, 0, 57, 40
1, 4136, Note_on_c, 0, 67, 0
1, 4142, Note_on_c, 0, 69, 44
1, 4167, Note_on_c, 0, 69, 0
1, 4186, Note_on_c, 0, 57, 0
1, 4195, Note_on_c, 0, 59, 34
1, 4248, Note_on_c, 0, 59, 0
1, 4254, Note_on_c, 0, 62, 44
1, 4273, Note_on_c, 0, 62, 0
1, 4313, Note_on_c, 0, 64, 57
1, 4314, Note_on_c, 0, 79, 74
1, 4316, Note_on_c, 0, 69, 72
1, 4316, Note_on_c, 0, 72, 66
1, 4358, Note_on_c, 0, 72, 0
1, 4363, Note_on_c, 0, 69, 0
1, 4368, Note_on_c, 0, 79, 0
1, 4374, Note_on_c, 0, 64, 0
1, 4383, Note_on_c, 0, 60, 46
1, 4387, Note_on_c, 0, 76, 37
1, 4395, Note_on_c, 0, 60, 0
1, 4399, Note_on_c, 0, 76, 0
1, 4492, Note_on_c, 0, 79, 28
1, 4498, Note_on_c, 0, 69, 43
1, 4498, Note_on_c, 0, 64, 35
1, 4505, Note_on_c, 0, 79, 0
1, 4512, Note_on_c, 0, 69, 0
1, 4524, Note_on_c, 0, 64, 0
1, 4551, Note_on_c, 0, 53, 42
1, 4551, Note_on_c, 0, 75, 36
1, 4553, Note_on_c, 0, 71, 36
1, 4557, Note_on_c, 0, 68, 25
1, 4568, Note_on_c, 0, 53, 0
1, 4571, Note_on_c, 0, 68, 0
1, 4576, Note_on_c, 0, 71, 0
1, 4582, Note_on_c, 0, 75, 0
1, 4667, Note_on_c, 0, 79, 51
1, 4667, Note_on_c, 0, 75, 52
1, 4668, Note_on_c, 0, 71, 60
1, 4675, Note_on_c, 0, 79, 0
1, 4678, Note_on_c, 0, 75, 0
1, 4681, Note_on_c, 0, 71, 0
1, 4734, Note_on_c, 0, 76, 43
1, 4734, Note_on_c, 0, 65, 53
1, 4736, Note_on_c, 0, 72, 43
1, 4737, Note_on_c, 0, 69, 39
1, 4739, Note_on_c, 0, 48, 35
1, 4743, Note_on_c, 0, 65, 0
1, 4746, Note_on_c, 0, 69, 0
1, 4749, Note_on_c, 0, 48, 0
1, 4750, Note_on_c, 0, 72, 0
1, 4760, Note_on_c, 0, 76, 0
1, 4841, Note_on_c, 0, 79, 50
1, 4844, Note_on_c, 0, 72, 57
1, 4846, Note_on_c, 0, 64, 37
1, 4847, Note_on_c, 0, 60, 52
1, 4847, Note_on_c, 0, 69, 57
1, 4852, Note_on_c, 0, 72, 0
1, 4856, Note_on_c, 0, 64, 0
1, 4858, Note_on_c, 0, 69, 0
1, 4860, Note_on_c, 0, 79, 0
1, 4875, Note_on_c, 0, 60, 0
1, 4904, Note_on_c, 0, 75, 59
1, 4906, Note_on_c, 0, 53, 55
1, 4906, Note_on_c, 0, 71, 52
1, 4907, Note_on_c, 0, 65, 50
1, 4917, Note_on_c, 0, 65, 0
1, 4922, Note_on_c, 0, 53, 0
1, 4928, Note_on_c, 0, 71, 0
1, 4929, Note_on_c, 0, 75, 0
1, 5027, Note_on_c, 0, 79, 64
1, 5029, Note_on_c, 0, 75, 49
1, 5032, Note_on_c, 0, 69, 43
1, 5033, Note_on_c, 0, 71, 40
1, 5035, Note_on_c, 0, 79, 0
1, 5038, Note_on_c, 0, 75, 0
1, 5039, Note_on_c, 0, 69, 0
1, 5041, Note_on_c, 0, 71, 0
1, 5094, Note_on_c, 0, 53, 45
1, 5095, Note_on_c, 0, 68, 44
1, 5097, Note_on_c, 0, 75, 48
1, 5097, Note_on_c, 0, 65, 57
1, 5099, Note_on_c, 0, 71, 39
1, 5104, Note_on_c, 0, 65, 0
1, 5106, Note_on_c, 0, 68, 0
1, 5108, Note_on_c, 0, 53, 0
1, 5108, Note_on_c, 0, 71, 0
1, 5117, Note_on_c, 0, 75, 0
1, 5207, Note_on_c, 0, 79, 47
1, 5213, Note_on_c, 0, 79, 0
1, 5218, Note_on_c, 0, 49, 28
1, 5240, Note_on_c, 0, 49, 0
1, 5272, Note_on_c, 0, 48, 47
1, 5272, Note_on_c, 0, 74, 59
1, 5277, Note_on_c, 0, 55, 35
1, 5278, Note_on_c, 0, 63, 32
1, 5278, Note_on_c, 0, 67, 41
1, 5282, Note_on_c, 0, 70, 29
1, 5313, Note_on_c, 0, 48, 0
1, 5334, Note_on_c, 0, 62, 70
1, 5336, Note_on_c, 0, 55, 0
1, 5369, Note_on_c, 0, 62, 0
1, 5386, Note_on_c, 0, 61, 39
1, 5397, Note_on_c, 0, 61, 0
1, 5449, Note_on_c, 0, 60, 71
1, 5511, Control_c, 0, 64, 127
1, 5578, Note_on_c, 0, 55, 36
1, 5583, Note_on_c, 0, 60, 0
1, 5603, Control_c, 0, 64, 0
1, 5624, Note_on_c, 0, 55, 0
1, 5631, Note_on_c, 0, 48, 51
1, 5640, Note_on_c, 0, 48, 0
1, 5640, Control_c, 0, 64, 127
1, 5652, Control_c, 0, 64, 0
1, 5690, Control_c, 0, 64, 127
1, 5691, Note_on_c, 0, 67, 0
1, 5694, Note_on_c, 0, 63, 0
1, 5701, Note_on_c, 0, 70, 0
1, 5702, Note_on_c, 0, 74, 0
1, 5751, Note_on_c, 0, 77, 68
1, 5752, Control_c, 0, 64, 0
1, 5752, Note_on_c, 0, 29, 65
1, 5766, Note_on_c, 0, 29, 0
1, 5778, Control_c, 0, 64, 127
1, 5811, Note_on_c, 0, 77, 0
1, 5821, Note_on_c, 0, 74, 71
1, 5847, Note_on_c, 0, 74, 0
1, 5852, Control_c, 0, 64, 0
1, 5935, Note_on_c, 0, 77, 38
1, 5937, Note_on_c, 0, 76, 41
1, 5938, Control_c, 0, 64, 127
1, 5945, Note_on_c, 0, 76, 0
1, 5945, Note_on_c, 0, 77, 0
1, 5993, Note_on_c, 0, 61, 58
1, 5995, Control_c, 0, 64, 0
1, 5996, Note_on_c, 0, 73, 33
1, 5997, Note_on_c, 0, 68, 29
1, 6002, Note_on_c, 0, 65, 35
1, 6002, Note_on_c, 0, 57, 37
1, 6002, Note_on_c, 0, 51, 31
1, 6097, Control_c, 0, 64, 127
1, 6128, Note_on_c, 0, 51, 0
1, 6129, Note_on_c, 0, 65, 0
1, 6129, Note_on_c, 0, 57, 0
1, 6137, Note_on_c, 0, 61, 0
1, 6140, Note_on_c, 0, 68, 0
1, 6146, Note_on_c, 0, 73, 0
1, 6241, Control_c, 0, 64, 0
1, 6242, Note_on_c, 0, 74, 57
1, 6244, Note_on_c, 0, 67, 50
1, 6246, Note_on_c, 0, 64, 47
1, 6246, Note_on_c, 0, 62, 38
1, 6279, Note_on_c, 0, 64, 0
1, 6284, Note_on_c, 0, 67, 0
1, 6294, Note_on_c, 0, 74, 0
1, 6313, Note_on_c, 0, 71, 47
1, 6315, Note_on_c, 0, 50, 36
1, 6319, Note_on_c, 0, 62, 0
1, 6323, Note_on_c, 0, 71, 0
1, 6324, Note_on_c, 0, 50, 0
1, 6419, Note_on_c, 0, 74, 55
1, 6426, Note_on_c, 0, 62, 33
1, 6446, Note_on_c, 0, 62, 0
1, 6451, Note_on_c, 0, 74, 0
1, 6478, Note_on_c, 0, 50, 32
1, 6480, Note_on_c, 0, 70, 50
1, 6481, Note_on_c, 0, 66, 35
1, 6483, Note_on_c, 0, 62, 34
1, 6491, Note_on_c, 0, 62, 0
1, 6492, Note_on_c, 0, 66, 0
1, 6495, Note_on_c, 0, 50, 0
1, 6500, Note_on_c, 0, 70, 0
1, 6592, Note_on_c, 0, 74, 60
1, 6596, Note_on_c, 0, 62, 35
1, 6629, Note_on_c, 0, 74, 0
1, 6638, Note_on_c, 0, 62, 0
1, 6656, Note_on_c, 0, 71, 45
1, 6657, Note_on_c, 0, 64, 33
1, 6659, Note_on_c, 0, 50, 36
1, 6659, Note_on_c, 0, 67, 34
1, 6665, Note_on_c, 0, 64, 0
1, 6667, Note_on_c, 0, 67, 0
1, 6667, Note_on_c, 0, 50, 0
1, 6674, Note_on_c, 0, 71, 0
1, 6768, Note_on_c, 0, 74, 64
1, 6774, Note_on_c, 0, 62, 31
1, 6784, Note_on_c, 0, 62, 0
1, 6793, Note_on_c, 0, 74, 0
1, 6824, Note_on_c, 0, 70, 45
1, 6824, Note_on_c, 0, 66, 38
1, 6826, Note_on_c, 0, 62, 32
1, 6827, Note_on_c, 0, 50, 38
1, 6834, Note_on_c, 0, 62, 0
1, 6838, Note_on_c, 0, 50, 0
1, 6838, Note_on_c, 0, 66, 0
1, 6843, Note_on_c, 0, 70, 0
1, 6948, Note_on_c, 0, 74, 71
1, 6951, Note_on_c, 0, 62, 39
1, 6989, Note_on_c, 0, 74, 0
1, 6990, Note_on_c, 0, 62, 0
1, 7013, Note_on_c, 0, 71, 48
1, 7014, Note_on_c, 0, 67, 47
1, 7014, Note_on_c, 0, 64, 44
1, 7015, Note_on_c, 0, 50, 35
1, 7022, Note_on_c, 0, 64, 0
1, 7022, Note_on_c, 0, 67, 0
1, 7026, Note_on_c, 0, 50, 0
1, 7027, Note_on_c, 0, 71, 0
1, 7132, Note_on_c, 0, 74, 60
1, 7142, Note_on_c, 0, 74, 0
1, 7191, Note_on_c, 0, 69, 68
1, 7191, Note_on_c, 0, 59, 68
1, 7192, Note_on_c, 0, 54, 71
1, 7193, Note_on_c, 0, 66, 49
1, 7193, Note_on_c, 0, 62, 74
1, 7304, Control_c, 0, 64, 127
1, 7326, Note_on_c, 0, 62, 0
1, 7333, Note_on_c, 0, 69, 0
1, 7341, Note_on_c, 0, 59, 0
1, 7387, Note_on_c, 0, 66, 0
1, 7391, Note_on_c, 0, 51, 34
1, 7431, Note_on_c, 0, 70, 64
1, 7433, Note_on_c, 0, 51, 0
1, 7433, Control_c, 0, 64, 0
1, 7433, Note_on_c, 0, 60, 58
1, 7433, Note_on_c, 0, 65, 66
1, 7434, Note_on_c, 0, 55, 65
1, 7453, Note_on_c, 0, 54, 0
1, 7479, Control_c, 0, 64, 127
1, 7537, Note_on_c, 0, 65, 0
1, 7548, Note_on_c, 0, 70, 0
1, 7556, Note_on_c, 0, 60, 0
1, 7594, Note_on_c, 0, 55, 0
1, 7621, Control_c, 0, 64, 0
1, 7624, Note_on_c, 0, 66, 67
1, 7625, Note_on_c, 0, 62, 83
1, 7626, Note_on_c, 0, 59, 78
1, 7626, Note_on_c, 0, 69, 74
1, 7627, Note_on_c, 0, 54, 83
1, 7640, Note_on_c, 0, 59, 0
1, 7642, Note_on_c, 0, 62, 0
1, 7644, Note_on_c, 0, 54, 0
1, 7647, Note_on_c, 0, 69, 0
1, 7648, Note_on_c, 0, 66, 0
1, 7738, Note_on_c, 0, 62, 33
1, 7787, Note_on_c, 0, 62, 0
1, 7795, Note_on_c, 0, 64, 36
1, 7834, Note_on_c, 0, 64, 0
1, 7857, Note_on_c, 0, 66, 54
1, 7905, Note_on_c, 0, 66, 0
1, 7919, Note_on_c, 0, 67, 40
1, 7962, Note_on_c, 0, 67, 0
1, 7978, Note_on_c, 0, 69, 68
1, 8021, Note_on_c, 0, 69, 0
1, 8038, Note_on_c, 0, 71, 77
1, 8085, Note_on_c, 0, 71, 0
1, 8099, Note_on_c, 0, 74, 81
1, 8143, Note_on_c, 0, 74, 0
1, 8159, Note_on_c, 0, 45, 48
1, 8160, Note_on_c, 0, 72, 64
1, 8167, Note_on_c, 0, 45, 0
1, 8204, Note_on_c, 0, 72, 0
1, 8222, Note_on_c, 0, 68, 32
1, 8253, Note_on_c, 0, 68, 0
1, 8276, Note_on_c, 0, 64, 33
1, 8276, Note_on_c, 0, 71, 57
1, 8278, Note_on_c, 0, 60, 30
1, 8280, Note_on_c, 0, 59, 29
1, 8289, Note_on_c, 0, 64, 0
1, 8291, Note_on_c, 0, 60, 0
1, 8292, Note_on_c, 0, 59, 0
1, 8311, Note_on_c, 0, 71, 0
1, 8338, Note_on_c, 0, 69, 52
1, 8371, Note_on_c, 0, 69, 0
1, 8392, Note_on_c, 0, 64, 40
1, 8431, Note_on_c, 0, 64, 0
1, 8454, Note_on_c, 0, 67, 62
1, 8455, Note_on_c, 0, 52, 69
1, 8457, Note_on_c, 0, 51, 38
1, 8481, Note_on_c, 0, 51, 0
1, 8493, Note_on_c, 0, 52, 0
1, 8501, Note_on_c, 0, 67, 0
1, 8514, Note_on_c, 0, 69, 58
1, 8544, Note_on_c, 0, 69, 0
1, 8576, Note_on_c, 0, 38, 65
1, 8593, Note_on_c, 0, 38, 0
1, 8699, Note_on_c, 0, 65, 62
1, 8700, Note_on_c, 0, 54, 45
1, 8700, Note_on_c, 0, 60, 41
1, 8702, Note_on_c, 0, 58, 38
1, 8935, Note_on_c, 0, 68, 57
1, 8950, Note_on_c, 0, 68, 0
1, 8974, Note_on_c, 0, 71, 62
1, 8982, Note_on_c, 0, 71, 0
1, 9001, Note_on_c, 0, 74, 103
1, 9002, Note_on_c, 0, 65, 0
1, 9010, Note_on_c, 0, 60, 0
1, 9021, Note_on_c, 0, 58, 0
1, 9033, Note_on_c, 0, 54, 0
1, 9054, Note_on_c, 0, 74, 0
1, 9066, Note_on_c, 0, 71, 42
1, 9095, Note_on_c, 0, 71, 0
1, 9121, Note_on_c, 0, 54, 30
1, 9122, Note_on_c, 0, 43, 34
1, 9125, Note_on_c, 0, 66, 33
1, 9180, Note_on_c, 0, 66, 0
1, 9183, Note_on_c, 0, 62, 48
1, 9194, Note_on_c, 0, 62, 0
1, 9242, Note_on_c, 0, 64, 94
1, 9268, Note_on_c, 0, 64, 0
1, 9279, Note_on_c, 0, 66, 57
1, 9298, Note_on_c, 0, 64, 43
1, 9303, Note_on_c, 0, 54, 0
1, 9304, Note_on_c, 0, 66, 0
1, 9320, Note_on_c, 0, 62, 27
1, 9321, Note_on_c, 0, 64, 0
1, 9351, Note_on_c, 0, 62, 0
1, 9369, Note_on_c, 0, 61, 62
1, 9424, Note_on_c, 0, 64, 71
1, 9426, Note_on_c, 0, 61, 0
1, 9463, Note_on_c, 0, 50, 1
1, 9468, Note_on_c, 0, 64, 0
1, 9482, Note_on_c, 0, 62, 49
1, 9486, Note_on_c, 0, 50, 0
1, 9544, Note_on_c, 0, 57, 43
1, 9549, Note_on_c, 0, 43, 0
1, 9661, Note_on_c, 0, 43, 43
1, 9680, Note_on_c, 0, 43, 0
1, 9730, Note_on_c, 0, 57, 0
1, 9730, Note_on_c, 0, 62, 0
1, 9779, Note_on_c, 0, 40, 37
1, 9787, Note_on_c, 0, 40, 0
1, 9790, Control_c, 0, 64, 127
1, 9834, Control_c, 0, 64, 0
1, 9843, Note_on_c, 0, 71, 56
1, 9843, Note_on_c, 0, 56, 44
1, 9843, Note_on_c, 0, 62, 57
1, 9845, Note_on_c, 0, 67, 55
1, 9852, Control_c, 0, 64, 127
1, 9866, Note_on_c, 0, 62, 0
1, 9876, Note_on_c, 0, 67, 0
1, 9886, Note_on_c, 0, 71, 0
1, 9904, Note_on_c, 0, 74, 82
1, 9904, Note_on_c, 0, 62, 74
1, 9905, Note_on_c, 0, 70, 78
1, 9906, Note_on_c, 0, 65, 85
1, 9908, Note_on_c, 0, 68, 60
1, 9912, Control_c, 0, 64, 0
1, 9913, Note_on_c, 0, 56, 0
1, 9914, Note_on_c, 0, 68, 0
1, 9950, Note_on_c, 0, 65, 0
1, 9951, Note_on_c, 0, 62, 0
1, 9953, Note_on_c, 0, 70, 0
1, 9954, Note_on_c, 0, 74, 0
1, 9962, Note_on_c, 0, 58, 50
1, 9992, Control_c, 0, 64, 127
1, 10023, Note_on_c, 0, 58, 0
1, 10026, Note_on_c, 0, 67, 57
1, 10026, Control_c, 0, 64, 0
1, 10027, Note_on_c, 0, 62, 60
1, 10028, Note_on_c, 0, 57, 54
1, 10028, Note_on_c, 0, 72, 55
1, 10058, Control_c, 0, 64, 127
1, 10065, Note_on_c, 0, 62, 0
1, 10069, Note_on_c, 0, 57, 0
1, 10077, Note_on_c, 0, 67, 0
1, 10085, Note_on_c, 0, 72, 0
1, 10273, Note_on_c, 0, 69, 85
1, 10274, Note_on_c, 0, 83, 94
1, 10274, Note_on_c, 0, 76, 85
1, 10274, Note_on_c, 0, 72, 94
1, 10277, Control_c, 0, 64, 0
1, 10303, Control_c, 0, 64, 127
1, 10323, Note_on_c, 0, 69, 0
1, 10330, Note_on_c, 0, 83, 0
1, 10333, Note_on_c, 0, 76, 0
1, 10335, Note_on_c, 0, 72, 0
1, 10344, Note_on_c, 0, 67, 66
1, 10345, Control_c, 0, 64, 0
1, 10346, Note_on_c, 0, 81, 75
1, 10347, Note_on_c, 0, 76, 64
1, 10348, Note_on_c, 0, 72, 78
1, 10371, Control_c, 0, 64, 127
1, 10382, Note_on_c, 0, 76, 0
1, 10389, Note_on_c, 0, 72, 0
1, 10390, Note_on_c, 0, 81, 0
1, 10411, Note_on_c, 0, 67, 0
1, 10427, Note_on_c, 0, 79, 46
1, 10428, Note_on_c, 0, 64, 48
1, 10429, Note_on_c, 0, 76, 48
1, 10429, Note_on_c, 0, 72, 53
1, 10431, Note_on_c, 0, 67, 30
1, 10431, Control_c, 0, 64, 0
1, 10459, Control_c, 0, 64, 127
1, 10488, Note_on_c, 0, 64, 0
1, 10515, Note_on_c, 0, 79, 0
1, 10518, Note_on_c, 0, 76, 0
1, 10522, Note_on_c, 0, 72, 0
1, 10524, Note_on_c, 0, 67, 0
1, 10616, Control_c, 0, 64, 0
1, 10622, Note_on_c, 0, 60, 38
1, 10623, Note_on_c, 0, 74, 48
1, 10623, Note_on_c, 0, 71, 50
1, 10623, Note_on_c, 0, 54, 33
1, 10625, Note_on_c, 0, 64, 40
1, 10626, Note_on_c, 0, 68, 35
1, 10632, Note_on_c, 0, 60, 0
1, 10634, Note_on_c, 0, 68, 0
1, 10635, Note_on_c, 0, 64, 0
1, 10640, Note_on_c, 0, 74, 0
1, 10641, Note_on_c, 0, 71, 0
1, 10646, Note_on_c, 0, 54, 0
1, 10684, Note_on_c, 0, 71, 42
1, 10684, Note_on_c, 0, 64, 42
1, 10686, Note_on_c, 0, 54, 28
1, 10687, Note_on_c, 0, 68, 37
1, 10687, Note_on_c, 0, 74, 24
1, 10699, Note_on_c, 0, 64, 0
1, 10700, Note_on_c, 0, 74, 0
1, 10701, Note_on_c, 0, 68, 0
1, 10706, Note_on_c, 0, 71, 0
1, 10710, Note_on_c, 0, 54, 0
1, 10749, Note_on_c, 0, 50, 27
1, 10758, Note_on_c, 0, 50, 0
1, 10802, Note_on_c, 0, 64, 39
1, 10803, Note_on_c, 0, 54, 30
1, 10804, Note_on_c, 0, 71, 34
1, 10804, Note_on_c, 0, 68, 34
1, 10805, Note_on_c, 0, 60, 27
1, 10808, Note_on_c, 0, 74, 16
1, 10814, Note_on_c, 0, 60, 0
1, 10816, Note_on_c, 0, 68, 0
1, 10816, Note_on_c, 0, 64, 0
1, 10819, Note_on_c, 0, 74, 0
1, 10821, Note_on_c, 0, 71, 0
1, 10826, Note_on_c, 0, 54, 0
1, 10860, Note_on_c, 0, 74, 36
1, 10861, Note_on_c, 0, 64, 45
1, 10861, Note_on_c, 0, 71, 41
1, 10861, Note_on_c, 0, 60, 46
1, 10862, Note_on_c, 0, 68, 46
1, 10863, Note_on_c, 0, 54, 34
1, 10874, Note_on_c, 0, 64, 0
1, 10874, Note_on_c, 0, 74, 0
1, 10876, Note_on_c, 0, 68, 0
1, 10879, Note_on_c, 0, 71, 0
1, 10880, Note_on_c, 0, 60, 0
1, 10895, Note_on_c, 0, 54, 0
1, 10923, Note_on_c, 0, 50, 32
1, 10933, Note_on_c, 0, 50, 0
1, 10982, Note_on_c, 0, 66, 39
1, 10982, Note_on_c, 0, 74, 46
1, 10984, Note_on_c, 0, 69, 53
1, 10984, Note_on_c, 0, 71, 45
1, 10992, Note_on_c, 0, 69, 0
1, 10994, Note_on_c, 0, 66, 0
1, 10996, Note_on_c, 0, 74, 0
1, 11000, Note_on_c, 0, 71, 0
1, 11040, Note_on_c, 0, 66, 55
1, 11041, Note_on_c, 0, 62, 39
1, 11042, Note_on_c, 0, 74, 43
1, 11043, Note_on_c, 0, 59, 47
1, 11045, Note_on_c, 0, 69, 46
1, 11053, Note_on_c, 0, 69, 0
1, 11056, Note_on_c, 0, 66, 0
1, 11057, Note_on_c, 0, 62, 0
1, 11059, Note_on_c, 0, 59, 0
1, 11062, Note_on_c, 0, 74, 0
1, 11158, Note_on_c, 0, 74, 41
1, 11158, Note_on_c, 0, 66, 35
1, 11160, Note_on_c, 0, 69, 53
1, 11160, Note_on_c, 0, 62, 44
1, 11163, Note_on_c, 0, 71, 34
1, 11168, Note_on_c, 0, 69, 0
1, 11169, Note_on_c, 0, 66, 0
1, 11171, Note_on_c, 0, 62, 0
1, 11172, Note_on_c, 0, 74, 0
1, 11174, Note_on_c, 0, 71, 0
1, 11219, Note_on_c, 0, 74, 58
1, 11219, Note_on_c, 0, 66, 56
1, 11222, Note_on_c, 0, 69, 61
1, 11223, Note_on_c, 0, 62, 41
1, 11225, Note_on_c, 0, 59, 43
1, 11228, Note_on_c, 0, 71, 24
1, 11229, Note_on_c, 0, 69, 0
1, 11231, Note_on_c, 0, 62, 0
1, 11233, Note_on_c, 0, 66, 0
1, 11235, Note_on_c, 0, 71, 0
1, 11239, Note_on_c, 0, 74, 0
1, 11247, Note_on_c, 0, 59, 0
1, 11280, Note_on_c, 0, 50, 39
1, 11288, Note_on_c, 0, 50, 0
1, 11337, Note_on_c, 0, 62, 55
1, 11337, Note_on_c, 0, 66, 51
1, 11340, Note_on_c, 0, 71, 42
1, 11345, Note_on_c, 0, 59, 24
1, 11347, Note_on_c, 0, 57, 26
1, 11348, Note_on_c, 0, 62, 0
1, 11352, Note_on_c, 0, 66, 0
1, 11352, Control_c, 0, 64, 127
1, 11357, Note_on_c, 0, 71, 0
1, 11358, Control_c, 0, 64, 0
1, 11359, Note_on_c, 0, 59, 0
1, 11359, Note_on_c, 0, 57, 0
1, 11393, Note_on_c, 0, 66, 53
1, 11394, Note_on_c, 0, 62, 50
1, 11395, Note_on_c, 0, 59, 44
1, 11396, Note_on_c, 0, 71, 44
1, 11399, Note_on_c, 0, 57, 38
1, 11404, Note_on_c, 0, 62, 0
1, 11407, Note_on_c, 0, 57, 0
1, 11412, Note_on_c, 0, 59, 0
1, 11414, Note_on_c, 0, 66, 0
1, 11423, Note_on_c, 0, 71, 0
1, 11468, Control_c, 0, 64, 127
1, 11480, Control_c, 0, 64, 0
1, 11514, Note_on_c, 0, 58, 25
1, 11514, Note_on_c, 0, 74, 58
1, 11515, Note_on_c, 0, 66, 47
1, 11516, Note_on_c, 0, 69, 58
1, 11517, Note_on_c, 0, 71, 47
1, 11523, Note_on_c, 0, 69, 0
1, 11523, Note_on_c, 0, 66, 0
1, 11526, Note_on_c, 0, 74, 0
1, 11527, Note_on_c, 0, 71, 0
1, 11532, Note_on_c, 0, 58, 0
1, 11575, Note_on_c, 0, 62, 49
1, 11575, Note_on_c, 0, 74, 71
1, 11577, Note_on_c, 0, 66, 60
1, 11577, Note_on_c, 0, 69, 68
1, 11578, Note_on_c, 0, 71, 58
1, 11579, Note_on_c, 0, 59, 52
1, 11585, Note_on_c, 0, 57, 36
1, 11587, Note_on_c, 0, 69, 0
1, 11587, Note_on_c, 0, 62, 0
1, 11587, Control_c, 0, 64, 127
1, 11588, Note_on_c, 0, 66, 0
1, 11592, Note_on_c, 0, 71, 0
1, 11595, Note_on_c, 0, 57, 0
1, 11596, Note_on_c, 0, 74, 0
1, 11599, Note_on_c, 0, 59, 0
1, 11611, Control_c, 0, 64, 0
1, 11633, Note_on_c, 0, 48, 66
1, 11635, Control_c, 0, 64, 127
1, 11648, Note_on_c, 0, 48, 0
1, 11694, Note_on_c, 0, 74, 74
1, 11694, Note_on_c, 0, 66, 80
1, 11695, Note_on_c, 0, 69, 78
1, 11696, Note_on_c, 0, 71, 69
1, 11697, Note_on_c, 0, 62, 75
1, 11697, Note_on_c, 0, 59, 64
1, 11699, Note_on_c, 0, 57, 60
1, 11699, Control_c, 0, 64, 0
1, 11701, Note_on_c, 0, 72, 51
1, 11707, Note_on_c, 0, 72, 0
1, 11711, Note_on_c, 0, 62, 0
1, 11713, Note_on_c, 0, 66, 0
1, 11714, Note_on_c, 0, 69, 0
1, 11715, Note_on_c, 0, 74, 0
1, 11717, Note_on_c, 0, 71, 0
1, 11717, Note_on_c, 0, 59, 0
1, 11718, Note_on_c, 0, 57, 0
1, 11754, Note_on_c, 0, 74, 64
1, 11755, Note_on_c, 0, 66, 62
1, 11755, Note_on_c, 0, 62, 55
1, 11755, Note_on_c, 0, 71, 54
1, 11756, Note_on_c, 0, 59, 58
1, 11756, Note_on_c, 0, 69, 71
1, 11760, Note_on_c, 0, 72, 47
1, 11764, Note_on_c, 0, 62, 0
1, 11767, Note_on_c, 0, 72, 0
1, 11768, Note_on_c, 0, 66, 0
1, 11770, Note_on_c, 0, 69, 0
1, 11774, Control_c, 0, 64, 127
1, 11775, Note_on_c, 0, 71, 0
1, 11776, Note_on_c, 0, 59, 0
1, 11776, Note_on_c, 0, 74, 0
1, 11796, Control_c, 0, 64, 0
1, 11814, Note_on_c, 0, 50, 68
1, 11826, Control_c, 0, 64, 127
1, 11830, Note_on_c, 0, 50, 0
1, 11866, Control_c, 0, 64, 0
1, 11872, Note_on_c, 0, 76, 90
1, 11873, Note_on_c, 0, 72, 88
1, 11873, Note_on_c, 0, 64, 78
1, 11874, Note_on_c, 0, 69, 95
1, 11874, Note_on_c, 0, 65, 105
1, 11874, Note_on_c, 0, 60, 79
1, 11896, Note_on_c, 0, 65, 0
1, 11898, Note_on_c, 0, 64, 0
1, 11900, Note_on_c, 0, 69, 0
1, 11903, Note_on_c, 0, 72, 0
1, 11906, Note_on_c, 0, 76, 0
1, 11909, Note_on_c, 0, 60, 0
1, 11934, Note_on_c, 0, 76, 76
1, 11935, Note_on_c, 0, 64, 69
1, 11935, Note_on_c, 0, 69, 81
1, 11935, Note_on_c, 0, 72, 68
1, 11935, Note_on_c, 0, 65, 88
1, 11937, Note_on_c, 0, 60, 68
1, 11950, Note_on_c, 0, 64, 0
1, 11957, Note_on_c, 0, 60, 0
1, 11962, Control_c, 0, 64, 127
1, 11966, Control_c, 0, 64, 0
1, 11978, Note_on_c, 0, 65, 0
1, 11982, Note_on_c, 0, 69, 0
1, 11984, Note_on_c, 0, 72, 0
1, 11988, Note_on_c, 0, 76, 0
1, 11996, Note_on_c, 0, 50, 50
1, 12000, Control_c, 0, 64, 127
1, 12005, Note_on_c, 0, 50, 0
1, 12032, Control_c, 0, 64, 0
1, 12056, Note_on_c, 0, 65, 71
1, 12056, Note_on_c, 0, 76, 55
1, 12057, Note_on_c, 0, 69, 62
1, 12057, Note_on_c, 0, 72, 57
1, 12059, Note_on_c, 0, 64, 54
1, 12062, Note_on_c, 0, 60, 48
1, 12065, Note_on_c, 0, 69, 0
1, 12066, Note_on_c, 0, 72, 0
1, 12067, Note_on_c, 0, 65, 0
1, 12068, Note_on_c, 0, 64, 0
1, 12072, Note_on_c, 0, 76, 0
1, 12075, Note_on_c, 0, 60, 0
1, 12117, Note_on_c, 0, 76, 61
1, 12117, Note_on_c, 0, 64, 47
1, 12118, Note_on_c, 0, 69, 64
1, 12118, Note_on_c, 0, 65, 70
1, 12119, Note_on_c, 0, 60, 57
1, 12119, Control_c, 0, 64, 127
1, 12119, Note_on_c, 0, 72, 51
1, 12125, Note_on_c, 0, 64, 0
1, 12126, Note_on_c, 0, 60, 0
1, 12126, Note_on_c, 0, 65, 0
1, 12128, Note_on_c, 0, 72, 0
1, 12129, Note_on_c, 0, 69, 0
1, 12137, Note_on_c, 0, 76, 0
1, 12153, Control_c, 0, 64, 0
1, 12172, Note_on_c, 0, 50, 56
1, 12179, Control_c, 0, 64, 127
1, 12183, Note_on_c, 0, 50, 0
1, 12234, Control_c, 0, 64, 0
1, 12235, Note_on_c, 0, 76, 70
1, 12236, Note_on_c, 0, 71, 70
1, 12236, Note_on_c, 0, 68, 65
1, 12236, Note_on_c, 0, 65, 79
1, 12237, Note_on_c, 0, 64, 61
1, 12237, Note_on_c, 0, 59, 64
1, 12238, Note_on_c, 0, 53, 54
1, 12242, Note_on_c, 0, 74, 40
1, 12268, Control_c, 0, 64, 127
1, 12367, Note_on_c, 0, 64, 0
1, 12373, Note_on_c, 0, 59, 0
1, 12378, Note_on_c, 0, 74, 0
1, 12388, Note_on_c, 0, 53, 0
1, 12414, Note_on_c, 0, 65, 0
1, 12415, Note_on_c, 0, 76, 0
1, 12428, Note_on_c, 0, 74, 57
1, 12430, Note_on_c, 0, 71, 0
1, 12430, Note_on_c, 0, 57, 58
1, 12437, Note_on_c, 0, 57, 0
1, 12439, Note_on_c, 0, 68, 0
1, 12466, Note_on_c, 0, 74, 0
1, 12543, Control_c, 0, 64, 0
1, 12548, Note_on_c, 0, 76, 74
1, 12549, Note_on_c, 0, 69, 82
1, 12549, Note_on_c, 0, 60, 76
1, 12549, Note_on_c, 0, 65, 83
1, 12550, Note_on_c, 0, 72, 68
1, 12553, Note_on_c, 0, 74, 50
1, 12562, Note_on_c, 0, 74, 0
1, 12565, Note_on_c, 0, 65, 0
1, 12572, Note_on_c, 0, 69, 0
1, 12572, Note_on_c, 0, 72, 0
1, 12575, Note_on_c, 0, 60, 0
1, 12575, Note_on_c, 0, 76, 0
1, 12665, Note_on_c, 0, 72, 62
1, 12665, Note_on_c, 0, 50, 59
1, 12667, Note_on_c, 0, 65, 58
1, 12669, Note_on_c, 0, 69, 48
1, 12678, Note_on_c, 0, 69, 0
1, 12682, Note_on_c, 0, 65, 0
1, 12682, Note_on_c, 0, 50, 0
1, 12685, Note_on_c, 0, 72, 0
1, 12727, Note_on_c, 0, 68, 68
1, 12727, Note_on_c, 0, 71, 69
1, 12729, Note_on_c, 0, 65, 70
1, 12732, Note_on_c, 0, 59, 50
1, 12734, Note_on_c, 0, 74, 29
1, 12734, Note_on_c, 0, 64, 34
1, 12741, Note_on_c, 0, 74, 0
1, 12753, Control_c, 0, 64, 127
1, 12755, Note_on_c, 0, 64, 0
1, 12770, Note_on_c, 0, 59, 0
1, 12777, Note_on_c, 0, 71, 0
1, 12780, Note_on_c, 0, 68, 0
1, 12782, Note_on_c, 0, 65, 0
1, 12834, Control_c, 0, 64, 0
1, 12837, Note_on_c, 0, 50, 52
1, 12839, Note_on_c, 0, 62, 38
1, 12839, Note_on_c, 0, 65, 46
1, 12868, Control_c, 0, 64, 127
1, 12891, Note_on_c, 0, 50, 0
1, 12894, Note_on_c, 0, 65, 0
1, 12909, Note_on_c, 0, 62, 0
1, 12953, Note_on_c, 0, 63, 48
1, 12956, Control_c, 0, 64, 0
1, 12956, Note_on_c, 0, 62, 48
1, 12958, Note_on_c, 0, 48, 40
1, 12959, Note_on_c, 0, 55, 32
1, 12960, Note_on_c, 0, 58, 30
1, 13020, Control_c, 0, 64, 127
1, 13050, Control_c, 0, 64, 0
1, 13090, Control_c, 0, 64, 127
1, 13107, Note_on_c, 0, 48, 0
1, 13123, Note_on_c, 0, 62, 0
1, 13133, Note_on_c, 0, 63, 0
1, 13137, Note_on_c, 0, 55, 0
1, 13144, Note_on_c, 0, 48, 37
1, 13154, Note_on_c, 0, 58, 0
1, 13195, Note_on_c, 0, 48, 0
1, 13265, Note_on_c, 0, 74, 82
1, 13266, Note_on_c, 0, 67, 83
1, 13267, Control_c, 0, 64, 0
1, 13267, Note_on_c, 0, 63, 72
1, 13267, Note_on_c, 0, 59, 69
1, 13273, Note_on_c, 0, 70, 28
1, 13280, Note_on_c, 0, 70, 0
1, 13297, Control_c, 0, 64, 127
1, 13305, Control_c, 0, 64, 0
1, 13314, Note_on_c, 0, 74, 0
1, 13323, Note_on_c, 0, 59, 0
1, 13326, Note_on_c, 0, 58, 53
1, 13326, Note_on_c, 0, 72, 57
1, 13331, Note_on_c, 0, 67, 0
1, 13345, Control_c, 0, 64, 127
1, 13352, Note_on_c, 0, 63, 0
1, 13365, Note_on_c, 0, 72, 0
1, 13388, Note_on_c, 0, 74, 62
1, 13388, Note_on_c, 0, 66, 51
1, 13389, Control_c, 0, 64, 0
1, 13390, Note_on_c, 0, 62, 52
1, 13391, Note_on_c, 0, 69, 57
1, 13394, Note_on_c, 0, 58, 0
1, 13394, Note_on_c, 0, 57, 54
1, 13429, Control_c, 0, 64, 127
1, 13440, Note_on_c, 0, 57, 0
1, 13502, Note_on_c, 0, 69, 0
1, 13503, Note_on_c, 0, 74, 0
1, 13505, Note_on_c, 0, 41, 64
1, 13511, Note_on_c, 0, 66, 0
1, 13515, Note_on_c, 0, 62, 0
1, 13558, Control_c, 0, 64, 0
1, 13561, Note_on_c, 0, 51, 59
1, 13599, Note_on_c, 0, 57, 67
1, 13614, Note_on_c, 0, 57, 0
1, 13643, Note_on_c, 0, 62, 69
1, 13662, Note_on_c, 0, 62, 0
1, 13686, Note_on_c, 0, 63, 59
1, 13714, Note_on_c, 0, 63, 0
1, 13725, Note_on_c, 0, 67, 70
1, 13738, Control_c, 0, 64, 127
1, 13739, Note_on_c, 0, 67, 0
1, 13754, Control_c, 0, 64, 0
1, 13767, Note_on_c, 0, 71, 80
1, 13788, Note_on_c, 0, 71, 0
1, 13799, Note_on_c, 0, 41, 0
1, 13807, Note_on_c, 0, 74, 80
1, 13810, Note_on_c, 0, 51, 0
1, 13840, Note_on_c, 0, 74, 0
1, 13848, Note_on_c, 0, 71, 58
1, 13866, Note_on_c, 0, 71, 0
1, 13886, Note_on_c, 0, 72, 70
1, 13924, Note_on_c, 0, 72, 0
1, 13926, Note_on_c, 0, 76, 46
1, 13954, Note_on_c, 0, 76, 0
1, 13964, Note_on_c, 0, 79, 46
1, 13984, Note_on_c, 0, 79, 0
1, 14009, Note_on_c, 0, 83, 72
1, 14036, Note_on_c, 0, 83, 0
1, 14047, Note_on_c, 0, 64, 49
1, 14049, Note_on_c, 0, 74, 72
1, 14050, Note_on_c, 0, 86, 77
1, 14051, Note_on_c, 0, 55, 37
1, 14053, Note_on_c, 0, 60, 39
1, 14055, Note_on_c, 0, 57, 36
1, 14079, Note_on_c, 0, 86, 0
1, 14087, Note_on_c, 0, 85, 64
1, 14099, Note_on_c, 0, 74, 0
1, 14109, Note_on_c, 0, 85, 0
1, 14131, Note_on_c, 0, 84, 56
1, 14161, Note_on_c, 0, 84, 0
1, 14212, Note_on_c, 0, 80, 58
1, 14234, Note_on_c, 0, 80, 0
1, 14244, Note_on_c, 0, 83, 75
1, 14268, Note_on_c, 0, 83, 0
1, 14281, Note_on_c, 0, 81, 72
1, 14303, Note_on_c, 0, 81, 0
1, 14319, Note_on_c, 0, 76, 48
1, 14329, Note_on_c, 0, 76, 0
1, 14340, Note_on_c, 0, 60, 0
1, 14340, Note_on_c, 0, 64, 0
1, 14346, Note_on_c, 0, 57, 0
1, 14358, Note_on_c, 0, 79, 82
1, 14379, Note_on_c, 0, 55, 0
1, 14389, Note_on_c, 0, 79, 0
1, 14393, Note_on_c, 0, 81, 56
1, 14407, Note_on_c, 0, 79, 47
1, 14413, Note_on_c, 0, 81, 0
1, 14419, Note_on_c, 0, 76, 34
1, 14432, Note_on_c, 0, 79, 0
1, 14450, Note_on_c, 0, 76, 0
1, 14471, Note_on_c, 0, 78, 71
1, 14485, Note_on_c, 0, 78, 0
1, 14581, Note_on_c, 0, 64, 58
1, 14584, Note_on_c, 0, 60, 48
1, 14588, Note_on_c, 0, 64, 0
1, 14589, Note_on_c, 0, 54, 19
1, 14591, Note_on_c, 0, 60, 0
1, 14598, Note_on_c, 0, 54, 0
1, 14751, Note_on_c, 0, 50, 44
1, 14765, Note_on_c, 0, 50, 0
1, 14809, Note_on_c, 0, 43, 41
1, 14817, Note_on_c, 0, 43, 0
1, 14868, Note_on_c, 0, 66, 37
1, 14869, Note_on_c, 0, 57, 46
1, 14869, Note_on_c, 0, 62, 44
1, 14872, Note_on_c, 0, 54, 48
1, 14872, Note_on_c, 0, 59, 42
1, 14916, Note_on_c, 0, 57, 0
1, 14917, Note_on_c, 0, 54, 0
1, 14920, Note_on_c, 0, 59, 0
1, 14923, Note_on_c, 0, 66, 0
1, 14927, Note_on_c, 0, 62, 0
1, 14989, Note_on_c, 0, 54, 37
1, 14991, Note_on_c, 0, 66, 36
1, 14991, Note_on_c, 0, 57, 44
1, 14992, Note_on_c, 0, 62, 45
1, 14993, Note_on_c, 0, 59, 43
1, 15015, Note_on_c, 0, 57, 0
1, 15021, Note_on_c, 0, 59, 0
1, 15024, Note_on_c, 0, 62, 0
1, 15027, Note_on_c, 0, 66, 0
1, 15035, Note_on_c, 0, 54, 0
1, 15112, Note_on_c, 0, 66, 55
1, 15113, Note_on_c, 0, 62, 60
1, 15114, Note_on_c, 0, 57, 57
1, 15114, Note_on_c, 0, 54, 43
1, 15115, Note_on_c, 0, 59, 50
1, 15125, Note_on_c, 0, 54, 0
1, 15186, Note_on_c, 0, 50, 52
1, 15219, Note_on_c, 0, 50, 0
1, 15234, Note_on_c, 0, 51, 65
1, 15244, Note_on_c, 0, 59, 0
1, 15245, Note_on_c, 0, 57, 0
1, 15258, Note_on_c, 0, 62, 0
1, 15269, Note_on_c, 0, 66, 0
1, 15293, Note_on_c, 0, 51, 0
1, 15295, Control_c, 0, 64, 127
1, 15311, Note_on_c, 0, 56, 56
1, 15311, Note_on_c, 0, 59, 60
1, 15312, Note_on_c, 0, 64, 64
1, 15315, Note_on_c, 0, 52, 54
1, 15321, Control_c, 0, 64, 0
1, 15401, Control_c, 0, 64, 127
1, 15419, Note_on_c, 0, 52, 0
1, 15426, Note_on_c, 0, 64, 0
1, 15426, Note_on_c, 0, 56, 0
1, 15427, Note_on_c, 0, 59, 0
1, 15434, Note_on_c, 0, 47, 84
1, 15441, Control_c, 0, 64, 0
1, 15607, Note_on_c, 0, 68, 32
1, 15665, Note_on_c, 0, 68, 0
1, 15684, Note_on_c, 0, 71, 50
1, 15697, Note_on_c, 0, 71, 0
1, 15713, Note_on_c, 0, 47, 0
1, 15719, Note_on_c, 0, 44, 54
1, 15721, Note_on_c, 0, 74, 91
1, 15784, Note_on_c, 0, 74, 0
1, 15823, Note_on_c, 0, 44, 0
1, 15836, Note_on_c, 0, 45, 54
1, 15839, Note_on_c, 0, 72, 72
1, 15897, Note_on_c, 0, 72, 0
1, 15918, Note_on_c, 0, 69, 60
1, 15932, Note_on_c, 0, 69, 0
1, 15957, Note_on_c, 0, 40, 34
1, 15958, Note_on_c, 0, 45, 0
1, 16045, Note_on_c, 0, 60, 27
1, 16052, Note_on_c, 0, 60, 0
1, 16073, Note_on_c, 0, 40, 0
1, 16073, Note_on_c, 0, 33, 47
1, 16074, Note_on_c, 0, 62, 87
1, 16124, Note_on_c, 0, 62, 0
1, 16143, Note_on_c, 0, 63, 45
1, 16148, Note_on_c, 0, 37, 29
1, 16159, Note_on_c, 0, 62, 46
1, 16172, Note_on_c, 0, 33, 0
1, 16174, Note_on_c, 0, 37, 0
1, 16180, Note_on_c, 0, 63, 0
1, 16180, Note_on_c, 0, 62, 0
1, 16186, Note_on_c, 0, 40, 31
1, 16186, Note_on_c, 0, 60, 45
1, 16253, Note_on_c, 0, 60, 0
1, 16267, Note_on_c, 0, 40, 0
1, 16268, Note_on_c, 0, 39, 48
1, 16269, Note_on_c, 0, 59, 54
1, 16308, Note_on_c, 0, 59, 0
1, 16309, Note_on_c, 0, 39, 0
1, 16321, Note_on_c, 0, 38, 24
1, 16325, Note_on_c, 0, 57, 35
1, 16403, Note_on_c, 0, 38, 0
1, 16427, Note_on_c, 0, 57, 0
1, 16428, Note_on_c, 0, 45, 58
1, 16430, Note_on_c, 0, 55, 62
1, 16535, Note_on_c, 0, 45, 0
1, 16542, Note_on_c, 0, 55, 0
1, 16548, Note_on_c, 0, 52, 64
1, 16549, Note_on_c, 0, 54, 67
1, 16630, Note_on_c, 0, 51, 67
1, 16632, Note_on_c, 0, 52, 0
1, 16662, Note_on_c, 0, 51, 0
1, 16672, Note_on_c, 0, 50, 43
1, 16749, Note_on_c, 0, 50, 0
1, 16750, Note_on_c, 0, 54, 0
1, 16756, Note_on_c, 0, 46, 38
1, 16775, Note_on_c, 0, 46, 0
1, 16783, Note_on_c, 0, 47, 47
1, 16791, Note_on_c, 0, 59, 65
1, 16860, Note_on_c, 0, 59, 0
1, 16880, Note_on_c, 0, 50, 36
1, 16897, Note_on_c, 0, 50, 0
1, 16897, Note_on_c, 0, 47, 0
1, 16908, Note_on_c, 0, 42, 45
1, 16910, Note_on_c, 0, 54, 59
1, 16996, Note_on_c, 0, 39, 30
1, 17014, Note_on_c, 0, 54, 0
1, 17016, Note_on_c, 0, 42, 0
1, 17019, Note_on_c, 0, 39, 0
1, 17028, Note_on_c, 0, 43, 40
1, 17033, Note_on_c, 0, 52, 45
1, 17100, Note_on_c, 0, 52, 0
1, 17141, Note_on_c, 0, 43, 0
1, 17149, Note_on_c, 0, 38, 50
1, 17231, Note_on_c, 0, 37, 33
1, 17251, Note_on_c, 0, 38, 0
1, 17262, Note_on_c, 0, 37, 0
1, 17269, Note_on_c, 0, 47, 66
1, 17371, Note_on_c, 0, 42, 36
1, 17373, Note_on_c, 0, 47, 0
1, 17391, Note_on_c, 0, 42, 0
1, 17392, Note_on_c, 0, 45, 55
1, 17512, Note_on_c, 0, 45, 0
1, 17516, Note_on_c, 0, 43, 54
1, 17631, Note_on_c, 0, 43, 0
1, 17635, Note_on_c, 0, 44, 46
1, 17672, Note_on_c, 0, 52, 38
1, 17683, Note_on_c, 0, 52, 0
1, 17697, Note_on_c, 0, 56, 33
1, 17722, Note_on_c, 0, 56, 0
1, 17728, Note_on_c, 0, 59, 45
1, 17742, Note_on_c, 0, 44, 0
1, 17750, Note_on_c, 0, 59, 0
1, 17750, Note_on_c, 0, 45, 35
1, 17757, Note_on_c, 0, 62, 66
1, 17776, Note_on_c, 0, 62, 0
1, 17788, Note_on_c, 0, 59, 51
1, 17805, Note_on_c, 0, 59, 0
1, 17825, Note_on_c, 0, 60, 28
1, 17851, Note_on_c, 0, 60, 0
1, 17855, Note_on_c, 0, 64, 44
1, 17856, Note_on_c, 0, 45, 0
1, 17860, Note_on_c, 0, 48, 35
1, 17866, Note_on_c, 0, 64, 0
1, 17875, Note_on_c, 0, 67, 60
1, 17888, Note_on_c, 0, 67, 0
1, 17917, Note_on_c, 0, 71, 37
1, 17929, Note_on_c, 0, 71, 0
1, 17940, Note_on_c, 0, 74, 83
1, 17941, Note_on_c, 0, 62, 80
1, 17959, Note_on_c, 0, 62, 0
1, 17967, Note_on_c, 0, 74, 0
1, 17977, Note_on_c, 0, 73, 55
1, 17990, Note_on_c, 0, 48, 0
1, 17994, Note_on_c, 0, 52, 25
1, 17998, Note_on_c, 0, 73, 0
1, 18003, Note_on_c, 0, 72, 43
1, 18032, Note_on_c, 0, 72, 0
1, 18040, Note_on_c, 0, 68, 50
1, 18055, Note_on_c, 0, 68, 0
1, 18066, Note_on_c, 0, 71, 69
1, 18083, Note_on_c, 0, 71, 0
1, 18106, Note_on_c, 0, 52, 0
1, 18118, Note_on_c, 0, 51, 36
1, 18203, Note_on_c, 0, 49, 29
1, 18212, Note_on_c, 0, 51, 0
1, 18221, Note_on_c, 0, 49, 0
1, 18229, Note_on_c, 0, 50, 47
1, 18349, Note_on_c, 0, 38, 47
1, 18352, Note_on_c, 0, 50, 0
1, 18438, Note_on_c, 0, 45, 37
1, 18460, Note_on_c, 0, 45, 0
1, 18472, Note_on_c, 0, 71, 85
1, 18472, Note_on_c, 0, 50, 43
1, 18507, Note_on_c, 0, 71, 0
1, 18510, Note_on_c, 0, 72, 68
1, 18525, Note_on_c, 0, 38, 0
1, 18530, Note_on_c, 0, 72, 0
1, 18551, Note_on_c, 0, 73, 59
1, 18581, Note_on_c, 0, 73, 0
1, 18604, Note_on_c, 0, 38, 18
1, 18659, Note_on_c, 0, 66, 39
1, 18669, Note_on_c, 0, 66, 0
1, 18687, Note_on_c, 0, 38, 0
1, 18691, Note_on_c, 0, 67, 65
1, 18704, Note_on_c, 0, 50, 0
1, 18714, Note_on_c, 0, 67, 0
1, 18721, Note_on_c, 0, 43, 34
1, 18728, Note_on_c, 0, 69, 66
1, 18745, Note_on_c, 0, 69, 0
1, 18786, Note_on_c, 0, 62, 24
1, 18795, Note_on_c, 0, 62, 0
1, 18820, Note_on_c, 0, 64, 61
1, 18831, Note_on_c, 0, 64, 0
1, 18844, Note_on_c, 0, 55, 46
1, 18851, Note_on_c, 0, 66, 54
1, 18902, Note_on_c, 0, 66, 0
1, 18920, Note_on_c, 0, 55, 0
1, 18921, Note_on_c, 0, 59, 51
1, 18941, Note_on_c, 0, 43, 0
1, 18955, Note_on_c, 0, 50, 41
1, 19065, Note_on_c, 0, 50, 0
1, 19081, Note_on_c, 0, 57, 73
1, 19162, Note_on_c, 0, 51, 35
1, 19165, Note_on_c, 0, 57, 0
1, 19191, Note_on_c, 0, 51, 0
1, 19192, Note_on_c, 0, 55, 51
1, 19309, Note_on_c, 0, 55, 0
1, 19312, Note_on_c, 0, 54, 62
1, 19426, Note_on_c, 0, 54, 0
1, 19426, Note_on_c, 0, 59, 0
1, 19434, Note_on_c, 0, 52, 40
1, 19550, Note_on_c, 0, 52, 0
1, 19551, Note_on_c, 0, 51, 54
1, 19553, Note_on_c, 0, 76, 92
1, 19593, Note_on_c, 0, 76, 0
1, 19593, Note_on_c, 0, 77, 65
1, 19615, Note_on_c, 0, 77, 0
1, 19624, Note_on_c, 0, 79, 87
1, 19651, Note_on_c, 0, 79, 0
1, 19656, Note_on_c, 0, 51, 0
1, 19668, Note_on_c, 0, 77, 74
1, 19672, Note_on_c, 0, 50, 48
1, 19697, Note_on_c, 0, 77, 0
1, 19708, Note_on_c, 0, 73, 44
1, 19729, Note_on_c, 0, 73, 0
1, 19740, Note_on_c, 0, 76, 74
1, 19770, Note_on_c, 0, 50, 0
1, 19771, Note_on_c, 0, 74, 58
1, 19771, Note_on_c, 0, 38, 30
1, 19780, Note_on_c, 0, 76, 0
1, 19797, Note_on_c, 0, 74, 0
1, 19805, Note_on_c, 0, 69, 57
1, 19817, Note_on_c, 0, 69, 0
1, 19837, Note_on_c, 0, 72, 82
1, 19862, Note_on_c, 0, 72, 0
1, 19871, Note_on_c, 0, 74, 57
1, 19886, Note_on_c, 0, 72, 44
1, 19895, Note_on_c, 0, 74, 0
1, 19898, Note_on_c, 0, 38, 0
1, 19900, Note_on_c, 0, 45, 32
1, 19903, Note_on_c, 0, 69, 45
1, 19911, Note_on_c, 0, 72, 0
1, 19938, Note_on_c, 0, 69, 0
1, 19947, Note_on_c, 0, 72, 80
1, 19979, Note_on_c, 0, 72, 0
1, 20017, Note_on_c, 0, 45, 0
1, 20026, Note_on_c, 0, 41, 41
1, 20115, Note_on_c, 0, 69, 32
1, 20116, Note_on_c, 0, 42, 53
1, 20124, Note_on_c, 0, 41, 0
1, 20125, Note_on_c, 0, 69, 0
1, 20139, Note_on_c, 0, 42, 0
1, 20152, Note_on_c, 0, 43, 54
1, 20154, Note_on_c, 0, 73, 53
1, 20184, Note_on_c, 0, 73, 0
1, 20186, Note_on_c, 0, 74, 55
1, 20216, Note_on_c, 0, 73, 31
1, 20221, Note_on_c, 0, 74, 0
1, 20245, Note_on_c, 0, 69, 49
1, 20249, Note_on_c, 0, 73, 0
1, 20260, Note_on_c, 0, 69, 0
1, 20269, Note_on_c, 0, 43, 0
1, 20276, Note_on_c, 0, 72, 74
1, 20279, Note_on_c, 0, 55, 55
1, 20298, Note_on_c, 0, 72, 0
1, 20304, Note_on_c, 0, 74, 51
1, 20330, Note_on_c, 0, 72, 30
1, 20339, Note_on_c, 0, 74, 0
1, 20367, Note_on_c, 0, 55, 0
1, 20368, Note_on_c, 0, 72, 0
1, 20371, Note_on_c, 0, 50, 45
1, 20372, Note_on_c, 0, 69, 36
1, 20389, Note_on_c, 0, 69, 0
1, 20400, Note_on_c, 0, 71, 73
1, 20406, Note_on_c, 0, 50, 0
1, 20407, Note_on_c, 0, 53, 46
1, 20477, Note_on_c, 0, 71, 0
1, 20482, Note_on_c, 0, 67, 59
1, 20502, Note_on_c, 0, 67, 0
1, 20520, Note_on_c, 0, 47, 47
1, 20521, Note_on_c, 0, 53, 0
1, 20528, Note_on_c, 0, 62, 20
1, 20582, Note_on_c, 0, 62, 0
1, 20604, Note_on_c, 0, 46, 42
1, 20623, Note_on_c, 0, 47, 0
1, 20633, Note_on_c, 0, 46, 0
1, 20640, Note_on_c, 0, 62, 85
1, 20640, Note_on_c, 0, 48, 35
1, 20682, Note_on_c, 0, 62, 0
1, 20686, Note_on_c, 0, 63, 42
1, 20703, Note_on_c, 0, 62, 51
1, 20714, Note_on_c, 0, 63, 0
1, 20719, Note_on_c, 0, 60, 60
1, 20724, Note_on_c, 0, 62, 0
1, 20739, Note_on_c, 0, 60, 0
1, 20751, Note_on_c, 0, 59, 38
1, 20755, Note_on_c, 0, 40, 45
1, 20756, Note_on_c, 0, 48, 0
1, 20828, Note_on_c, 0, 59, 0
1, 20837, Note_on_c, 0, 62, 62
1, 20855, Note_on_c, 0, 40, 0
1, 20863, Note_on_c, 0, 62, 0
1, 20872, Note_on_c, 0, 43, 30
1, 20879, Note_on_c, 0, 60, 55
1, 20947, Note_on_c, 0, 60, 0
1, 20955, Note_on_c, 0, 55, 63
1, 20962, Note_on_c, 0, 55, 0
1, 20977, Note_on_c, 0, 43, 0
1, 20990, Note_on_c, 0, 40, 61
1, 21109, Note_on_c, 0, 40, 0
1, 21116, Note_on_c, 0, 41, 58
1, 21227, Note_on_c, 0, 41, 0
1, 21233, Note_on_c, 0, 29, 51
1, 21323, Note_on_c, 0, 87, 80
1, 21346, Note_on_c, 0, 41, 24
1, 21351, Note_on_c, 0, 87, 0
1, 21370, Note_on_c, 0, 29, 0
1, 21381, Note_on_c, 0, 81, 31
1, 21426, Note_on_c, 0, 81, 0
1, 21435, Note_on_c, 0, 86, 80
1, 21463, Note_on_c, 0, 86, 0
1, 21470, Note_on_c, 0, 41, 0
1, 21472, Note_on_c, 0, 33, 32
1, 21484, Note_on_c, 0, 84, 57
1, 21533, Note_on_c, 0, 84, 0
1, 21551, Note_on_c, 0, 34, 42
1, 21554, Note_on_c, 0, 33, 0
1, 21556, Note_on_c, 0, 80, 43
1, 21576, Note_on_c, 0, 34, 0
1, 21584, Note_on_c, 0, 80, 0
1, 21598, Note_on_c, 0, 45, 41
1, 21598, Note_on_c, 0, 79, 50
1, 21655, Note_on_c, 0, 79, 0
1, 21677, Note_on_c, 0, 83, 74
1, 21700, Note_on_c, 0, 45, 0
1, 21701, Note_on_c, 0, 83, 0
1, 21709, Note_on_c, 0, 33, 35
1, 21720, Note_on_c, 0, 76, 44
1, 21781, Note_on_c, 0, 76, 0
1, 21800, Note_on_c, 0, 37, 31
1, 21811, Note_on_c, 0, 33, 0
1, 21827, Note_on_c, 0, 37, 0
1, 21835, Note_on_c, 0, 40, 41
1, 21835, Note_on_c, 0, 76, 65
1, 21870, Note_on_c, 0, 76, 0
1, 21934, Note_on_c, 0, 40, 0
1, 21946, Note_on_c, 0, 39, 40
1, 22034, Note_on_c, 0, 37, 35
1, 22038, Note_on_c, 0, 69, 48
1, 22048, Note_on_c, 0, 69, 0
1, 22051, Note_on_c, 0, 39, 0
1, 22063, Note_on_c, 0, 37, 0
1, 22069, Note_on_c, 0, 38, 53
1, 22072, Note_on_c, 0, 78, 70
1, 22153, Note_on_c, 0, 78, 0
1, 22184, Note_on_c, 0, 38, 0
1, 22193, Note_on_c, 0, 78, 77
1, 22194, Note_on_c, 0, 50, 57
1, 22261, Note_on_c, 0, 78, 0
1, 22300, Note_on_c, 0, 50, 0
1, 22313, Note_on_c, 0, 78, 77
1, 22315, Note_on_c, 0, 45, 52
1, 22378, Note_on_c, 0, 78, 0
1, 22394, Note_on_c, 0, 76, 50
1, 22395, Note_on_c, 0, 45, 0
1, 22423, Note_on_c, 0, 76, 0
1, 22434, Note_on_c, 0, 74, 65
1, 22439, Note_on_c, 0, 42, 44
1, 22504, Note_on_c, 0, 39, 34
1, 22508, Note_on_c, 0, 74, 0
1, 22511, Note_on_c, 0, 72, 56
1, 22533, Note_on_c, 0, 42, 0
1, 22536, Note_on_c, 0, 39, 0
1, 22538, Note_on_c, 0, 72, 0
1, 22542, Note_on_c, 0, 43, 36
1, 22557, Note_on_c, 0, 71, 50
1, 22625, Note_on_c, 0, 71, 0
1, 22662, Note_on_c, 0, 43, 0
1, 22671, Note_on_c, 0, 47, 49
1, 22671, Note_on_c, 0, 71, 80
1, 22735, Note_on_c, 0, 71, 0
1, 22750, Note_on_c, 0, 46, 18
1, 22765, Note_on_c, 0, 47, 0
1, 22768, Note_on_c, 0, 46, 0
1, 22790, Note_on_c, 0, 71, 74
1, 22792, Note_on_c, 0, 54, 74
1, 22875, Note_on_c, 0, 72, 56
1, 22879, Note_on_c, 0, 71, 0
1, 22894, Note_on_c, 0, 72, 0
1, 22895, Note_on_c, 0, 54, 0
1, 22908, Note_on_c, 0, 55, 60
1, 22909, Note_on_c, 0, 74, 71
1, 22997, Note_on_c, 0, 55, 0
1, 23030, Note_on_c, 0, 52, 58
1, 23038, Note_on_c, 0, 74, 0
1, 23149, Note_on_c, 0, 40, 45
1, 23159, Note_on_c, 0, 52, 0
1, 23268, Note_on_c, 0, 40, 0
1, 23278, Note_on_c, 0, 44, 34
1, 23286, Note_on_c, 0, 52, 36
1, 23297, Note_on_c, 0, 52, 0
1, 23312, Note_on_c, 0, 56, 39
1, 23336, Note_on_c, 0, 56, 0
1, 23345, Note_on_c, 0, 59, 65
1, 23371, Note_on_c, 0, 59, 0
1, 23376, Note_on_c, 0, 62, 82
1, 23382, Note_on_c, 0, 44, 0
1, 23391, Note_on_c, 0, 47, 34
1, 23395, Note_on_c, 0, 62, 0
1, 23405, Note_on_c, 0, 59, 55
1, 23425, Note_on_c, 0, 59, 0
1, 23435, Note_on_c, 0, 60, 60
1, 23464, Note_on_c, 0, 60, 0
1, 23466, Note_on_c, 0, 47, 0
1, 23466, Note_on_c, 0, 64, 55
1, 23469, Note_on_c, 0, 44, 27
1, 23485, Note_on_c, 0, 64, 0
1, 23494, Note_on_c, 0, 67, 57
1, 23505, Note_on_c, 0, 44, 0
1, 23508, Note_on_c, 0, 67, 0
1, 23512, Note_on_c, 0, 45, 57
1, 23529, Note_on_c, 0, 71, 51
1, 23548, Note_on_c, 0, 71, 0
1, 23560, Note_on_c, 0, 74, 77
1, 23588, Note_on_c, 0, 73, 50
1, 23590, Note_on_c, 0, 74, 0
1, 23602, Note_on_c, 0, 73, 0
1, 23608, Note_on_c, 0, 72, 33
1, 23630, Note_on_c, 0, 72, 0
1, 23631, Note_on_c, 0, 48, 48
1, 23633, Note_on_c, 0, 45, 0
1, 23645, Note_on_c, 0, 68, 35
1, 23668, Note_on_c, 0, 68, 0
1, 23679, Note_on_c, 0, 71, 64
1, 23708, Note_on_c, 0, 69, 49
1, 23715, Note_on_c, 0, 71, 0
1, 23728, Note_on_c, 0, 69, 0
1, 23738, Note_on_c, 0, 64, 62
1, 23755, Note_on_c, 0, 64, 0
1, 23757, Note_on_c, 0, 48, 0
1, 23763, Note_on_c, 0, 52, 30
1, 23772, Note_on_c, 0, 60, 37
1, 23804, Note_on_c, 0, 60, 0
1, 23821, Note_on_c, 0, 60, 68
1, 23828, Note_on_c, 0, 60, 0
1, 23882, Note_on_c, 0, 60, 67
1, 23883, Note_on_c, 0, 51, 44
1, 23884, Note_on_c, 0, 52, 0
1, 23903, Note_on_c, 0, 60, 0
1, 23942, Note_on_c, 0, 60, 67
1, 23956, Note_on_c, 0, 49, 25
1, 23961, Note_on_c, 0, 60, 0
1, 23983, Note_on_c, 0, 51, 0
1, 23989, Note_on_c, 0, 49, 0
1, 23998, Note_on_c, 0, 60, 67
1, 24000, Note_on_c, 0, 50, 36
1, 24019, Note_on_c, 0, 60, 0
1, 24064, Note_on_c, 0, 60, 68
1, 24070, Note_on_c, 0, 45, 24
1, 24080, Note_on_c, 0, 45, 0
1, 24087, Note_on_c, 0, 60, 0
1, 24097, Note_on_c, 0, 59, 42
1, 24123, Note_on_c, 0, 38, 22
1, 24124, Note_on_c, 0, 59, 0
1, 24128, Note_on_c, 0, 50, 0
1, 24135, Note_on_c, 0, 60, 30
1, 24142, Note_on_c, 0, 60, 0
1, 24184, Note_on_c, 0, 60, 59
1, 24204, Note_on_c, 0, 60, 0
1, 24215, Note_on_c, 0, 63, 60
1, 24231, Note_on_c, 0, 50, 24
1, 24242, Note_on_c, 0, 63, 0
1, 24246, Note_on_c, 0, 38, 0
1, 24250, Note_on_c, 0, 68, 25
1, 24261, Note_on_c, 0, 68, 0
1, 24280, Note_on_c, 0, 72, 69
1, 24299, Note_on_c, 0, 72, 0
1, 24306, Note_on_c, 0, 75, 62
1, 24337, Note_on_c, 0, 80, 59
1, 24340, Note_on_c, 0, 75, 0
1, 24350, Note_on_c, 0, 80, 0
1, 24359, Note_on_c, 0, 38, 39
1, 24372, Note_on_c, 0, 83, 34
1, 24392, Note_on_c, 0, 83, 0
1, 24404, Note_on_c, 0, 87, 68
1, 24416, Note_on_c, 0, 38, 0
1, 24426, Note_on_c, 0, 87, 0
1, 24426, Note_on_c, 0, 92, 64
1, 24443, Note_on_c, 0, 42, 19
1, 24452, Note_on_c, 0, 92, 0
1, 24460, Note_on_c, 0, 95, 80
1, 24470, Note_on_c, 0, 50, 0
1, 24474, Note_on_c, 0, 42, 0
1, 24480, Note_on_c, 0, 43, 42
1, 24486, Note_on_c, 0, 95, 0
1, 24489, Note_on_c, 0, 93, 65
1, 24512, Note_on_c, 0, 93, 0
1, 24548, Note_on_c, 0, 91, 41
1, 24563, Note_on_c, 0, 91, 0
1, 24599, Note_on_c, 0, 55, 47
1, 24599, Note_on_c, 0, 86, 55
1, 24606, Note_on_c, 0, 43, 0
1, 24630, Note_on_c, 0, 86, 0
1, 24642, Note_on_c, 0, 83, 43
1, 24662, Note_on_c, 0, 83, 0
1, 24703, Note_on_c, 0, 55, 0
1, 24714, Note_on_c, 0, 78, 44
1, 24716, Note_on_c, 0, 50, 41
1, 24746, Note_on_c, 0, 78, 0
1, 24759, Note_on_c, 0, 74, 32
1, 24798, Note_on_c, 0, 74, 0
1, 24823, Note_on_c, 0, 50, 0
1, 24831, Note_on_c, 0, 54, 36
1, 24833, Note_on_c, 0, 76, 57
1, 24910, Note_on_c, 0, 76, 0
1, 24915, Note_on_c, 0, 71, 44
1, 24927, Note_on_c, 0, 54, 0
1, 24929, Note_on_c, 0, 71, 0
1, 24936, Note_on_c, 0, 50, 34
1, 24946, Note_on_c, 0, 50, 0
1, 24949, Note_on_c, 0, 74, 59
1, 24952, Note_on_c, 0, 52, 53
1, 24968, Note_on_c, 0, 74, 0
1, 25066, Note_on_c, 0, 52, 0
1, 25074, Note_on_c, 0, 49, 61
1, 25182, Note_on_c, 0, 49, 0
1, 25193, Note_on_c, 0, 50, 50
1, 25264, Note_on_c, 0, 50, 0
1, 25271, Note_on_c, 0, 40, 51
1, 25292, Note_on_c, 0, 40, 0
1, 25309, Note_on_c, 0, 44, 46
1, 25421, Note_on_c, 0, 44, 0
1, 25428, Note_on_c, 0, 45, 53
1, 25464, Note_on_c, 0, 56, 47
1, 25480, Note_on_c, 0, 56, 0
1, 25499, Note_on_c, 0, 59, 62
1, 25525, Note_on_c, 0, 59, 0
1, 25535, Note_on_c, 0, 56, 38
1, 25543, Note_on_c, 0, 45, 0
1, 25553, Note_on_c, 0, 33, 37
1, 25556, Note_on_c, 0, 56, 0
1, 25560, Note_on_c, 0, 57, 54
1, 25607, Note_on_c, 0, 57, 0
1, 25631, Note_on_c, 0, 57, 64
1, 25632, Note_on_c, 0, 59, 58
1, 25646, Note_on_c, 0, 59, 0
1, 25657, Note_on_c, 0, 57, 0
1, 25689, Note_on_c, 0, 33, 0
1, 25690, Note_on_c, 0, 45, 44
1, 25694, Note_on_c, 0, 57, 75
1, 25714, Note_on_c, 0, 57, 0
1, 25752, Note_on_c, 0, 57, 78
1, 25775, Note_on_c, 0, 57, 0
1, 25789, Note_on_c, 0, 56, 34
1, 25800, Note_on_c, 0, 33, 38
1, 25802, Note_on_c, 0, 56, 0
1, 25814, Note_on_c, 0, 45, 0
1, 25817, Note_on_c, 0, 57, 42
1, 25853, Note_on_c, 0, 57, 0
1, 25858, Note_on_c, 0, 64, 77
1, 25873, Note_on_c, 0, 45, 65
1, 25879, Note_on_c, 0, 64, 0
1, 25908, Note_on_c, 0, 33, 0
1, 25923, Note_on_c, 0, 45, 0
1, 25933, Note_on_c, 0, 38, 61
1, 26038, Note_on_c, 0, 50, 38
1, 26051, Note_on_c, 0, 38, 0
1, 26109, Note_on_c, 0, 58, 73
1, 26112, Note_on_c, 0, 45, 39
1, 26127, Note_on_c, 0, 45, 0
1, 26136, Note_on_c, 0, 58, 0
1, 26149, Note_on_c, 0, 56, 36
1, 26151, Note_on_c, 0, 50, 0
1, 26156, Note_on_c, 0, 38, 32
1, 26160, Note_on_c, 0, 56, 0
1, 26174, Note_on_c, 0, 58, 53
1, 26209, Note_on_c, 0, 58, 0
1, 26230, Note_on_c, 0, 58, 72
1, 26255, Note_on_c, 0, 58, 0
1, 26263, Note_on_c, 0, 50, 39
1, 26265, Note_on_c, 0, 56, 39
1, 26284, Note_on_c, 0, 56, 0
1, 26292, Note_on_c, 0, 58, 46
1, 26306, Note_on_c, 0, 38, 0
1, 26315, Note_on_c, 0, 58, 0
1, 26319, Note_on_c, 0, 50, 0
1, 26327, Note_on_c, 0, 66, 73
1, 26329, Note_on_c, 0, 42, 58
1, 26349, Note_on_c, 0, 66, 0
1, 26385, Note_on_c, 0, 42, 0
1, 26397, Note_on_c, 0, 43, 45
1, 26462, Note_on_c, 0, 59, 51
1, 26483, Note_on_c, 0, 59, 0
1, 26487, Note_on_c, 0, 43, 0
1, 26498, Note_on_c, 0, 57, 34
1, 26506, Note_on_c, 0, 57, 0
1, 26514, Note_on_c, 0, 55, 32
1, 26519, Note_on_c, 0, 59, 49
1, 26563, Note_on_c, 0, 59, 0
1, 26584, Note_on_c, 0, 59, 57
1, 26608, Note_on_c, 0, 59, 0
1, 26617, Note_on_c, 0, 57, 38
1, 26623, Note_on_c, 0, 55, 0
1, 26627, Note_on_c, 0, 57, 0
1, 26637, Note_on_c, 0, 54, 37
1, 26642, Note_on_c, 0, 59, 55
1, 26674, Note_on_c, 0, 59, 0
1, 26700, Note_on_c, 0, 59, 48
1, 26722, Note_on_c, 0, 59, 0
1, 26733, Note_on_c, 0, 57, 36
1, 26737, Note_on_c, 0, 51, 33
1, 26743, Note_on_c, 0, 57, 0
1, 26743, Note_on_c, 0, 54, 0
1, 26756, Note_on_c, 0, 51, 0
1, 26756, Note_on_c, 0, 59, 55
1, 26759, Note_on_c, 0, 52, 36
1, 26798, Note_on_c, 0, 59, 0
1, 26821, Note_on_c, 0, 59, 46
1, 26845, Note_on_c, 0, 59, 0
1, 26856, Note_on_c, 0, 57, 44
1, 26860, Note_on_c, 0, 52, 0
1, 26867, Note_on_c, 0, 57, 0
1, 26875, Note_on_c, 0, 50, 31
1, 26880, Note_on_c, 0, 59, 42
1, 26903, Note_on_c, 0, 59, 0
1, 26917, Note_on_c, 0, 67, 66
1, 26938, Note_on_c, 0, 67, 0
1, 26996, Note_on_c, 0, 43, 44
1, 26999, Note_on_c, 0, 50, 0
1, 27109, Note_on_c, 0, 43, 0
1, 27121, Note_on_c, 0, 52, 68
1, 27227, Note_on_c, 0, 52, 0
1, 27237, Note_on_c, 0, 49, 53
1, 27326, Note_on_c, 0, 46, 34
1, 27345, Note_on_c, 0, 49, 0
1, 27351, Note_on_c, 0, 46, 0
1, 27357, Note_on_c, 0, 50, 31
1, 27359, Note_on_c, 0, 72, 90
1, 27384, Note_on_c, 0, 72, 0
1, 27405, Note_on_c, 0, 69, 46
1, 27415, Note_on_c, 0, 69, 0
1, 27453, Note_on_c, 0, 65, 76
1, 27454, Note_on_c, 0, 50, 0
1, 27466, Note_on_c, 0, 53, 24
1, 27481, Note_on_c, 0, 65, 0
1, 27494, Note_on_c, 0, 62, 46
1, 27536, Note_on_c, 0, 62, 0
1, 27545, Note_on_c, 0, 61, 64
1, 27567, Note_on_c, 0, 61, 0
1, 27580, Note_on_c, 0, 64, 82
1, 27586, Note_on_c, 0, 57, 42
1, 27592, Note_on_c, 0, 53, 0
1, 27610, Note_on_c, 0, 64, 0
1, 27615, Note_on_c, 0, 61, 48
1, 27640, Note_on_c, 0, 61, 0
1, 27650, Note_on_c, 0, 62, 74
1, 27676, Note_on_c, 0, 62, 0
1, 27676, Note_on_c, 0, 60, 66
1, 27682, Note_on_c, 0, 57, 0
1, 27712, Note_on_c, 0, 60, 0
1, 27733, Note_on_c, 0, 57, 66
1, 27740, Note_on_c, 0, 53, 28
1, 27762, Note_on_c, 0, 53, 0
1, 27778, Note_on_c, 0, 57, 0
1, 27787, Note_on_c, 0, 60, 71
1, 27814, Note_on_c, 0, 60, 0
1, 27851, Note_on_c, 0, 58, 47
1, 27853, Note_on_c, 0, 43, 35
1, 27875, Note_on_c, 0, 58, 0
1, 27888, Note_on_c, 0, 59, 40
1, 27913, Note_on_c, 0, 59, 0
1, 27953, Note_on_c, 0, 43, 0
1, 27963, Note_on_c, 0, 55, 60
1, 28035, Note_on_c, 0, 55, 0
1, 28052, Note_on_c, 0, 50, 17
1, 28060, Note_on_c, 0, 50, 0
1, 28071, Note_on_c, 0, 53, 46
1, 28170, Note_on_c, 0, 53, 0
1, 28171, Note_on_c, 0, 50, 36
1, 28174, Note_on_c, 0, 59, 62
1, 28187, Note_on_c, 0, 59, 0
1, 28187, Note_on_c, 0, 50, 0
1, 28200, Note_on_c, 0, 63, 56
1, 28205, Note_on_c, 0, 47, 35
1, 28222, Note_on_c, 0, 63, 0
1, 28236, Note_on_c, 0, 67, 70
1, 28253, Note_on_c, 0, 67, 0
1, 28262, Note_on_c, 0, 70, 76
1, 28288, Note_on_c, 0, 70, 0
1, 28299, Note_on_c, 0, 46, 21
1, 28310, Note_on_c, 0, 47, 0
1, 28319, Note_on_c, 0, 48, 37
1, 28323, Note_on_c, 0, 46, 0
1, 28324, Note_on_c, 0, 67, 67
1, 28364, Note_on_c, 0, 67, 0
1, 28382, Note_on_c, 0, 63, 69
1, 28407, Note_on_c, 0, 48, 0
1, 28414, Note_on_c, 0, 63, 0
1, 28439, Note_on_c, 0, 62, 61
1, 28440, Note_on_c, 0, 55, 42
1, 28462, Note_on_c, 0, 62, 0
1, 28474, Note_on_c, 0, 65, 71
1, 28495, Note_on_c, 0, 65, 0
1, 28507, Note_on_c, 0, 63, 35
1, 28533, Note_on_c, 0, 63, 0
1, 28538, Note_on_c, 0, 59, 44
1, 28545, Note_on_c, 0, 55, 0
1, 28546, Note_on_c, 0, 59, 0
1, 28563, Note_on_c, 0, 62, 66
1, 28565, Note_on_c, 0, 55, 26
1, 28585, Note_on_c, 0, 62, 0
1, 28601, Note_on_c, 0, 59, 48
1, 28610, Note_on_c, 0, 59, 0
1, 28619, Note_on_c, 0, 55, 0
1, 28628, Note_on_c, 0, 61, 69
1, 28664, Note_on_c, 0, 61, 0
1, 28666, Note_on_c, 0, 59, 44
1, 28675, Note_on_c, 0, 59, 0
1, 28690, Note_on_c, 0, 60, 62
1, 28722, Note_on_c, 0, 60, 0
1, 28732, Note_on_c, 0, 53, 60
1, 28734, Note_on_c, 0, 42, 60
1, 28785, Note_on_c, 0, 53, 0
1, 28793, Note_on_c, 0, 42, 0
1, 28814, Note_on_c, 0, 41, 48
1, 28922, Note_on_c, 0, 41, 0
1, 28924, Note_on_c, 0, 53, 52
1, 29014, Note_on_c, 0, 48, 43
1, 29026, Note_on_c, 0, 48, 0
1, 29037, Note_on_c, 0, 53, 0
1, 29046, Note_on_c, 0, 41, 53
1, 29095, Note_on_c, 0, 59, 62
1, 29121, Note_on_c, 0, 59, 0
1, 29122, Note_on_c, 0, 48, 31
1, 29141, Note_on_c, 0, 48, 0
1, 29151, Note_on_c, 0, 60, 50
1, 29155, Note_on_c, 0, 59, 63
1, 29157, Note_on_c, 0, 53, 27
1, 29160, Note_on_c, 0, 60, 0
1, 29171, Note_on_c, 0, 53, 0
1, 29178, Note_on_c, 0, 41, 0
1, 29179, Note_on_c, 0, 55, 48
1, 29180, Note_on_c, 0, 59, 0
1, 29188, Note_on_c, 0, 55, 0
1, 29217, Note_on_c, 0, 58, 69
1, 29225, Note_on_c, 0, 41, 35
1, 29247, Note_on_c, 0, 58, 0
1, 29265, Note_on_c, 0, 60, 62
1, 29270, Note_on_c, 0, 41, 0
1, 29282, Note_on_c, 0, 60, 0
1, 29297, Note_on_c, 0, 45, 36
1, 29299, Note_on_c, 0, 57, 54
1, 29348, Note_on_c, 0, 57, 0
1, 29410, Note_on_c, 0, 57, 36
1, 29446, Note_on_c, 0, 57, 0
1, 29485, Note_on_c, 0, 52, 35
1, 29507, Note_on_c, 0, 52, 0
1, 29520, Note_on_c, 0, 55, 62
1, 29538, Note_on_c, 0, 45, 0
1, 29611, Note_on_c, 0, 55, 0
1, 29642, Note_on_c, 0, 68, 56
1, 29660, Note_on_c, 0, 68, 0
1, 29661, Note_on_c, 0, 69, 55
1, 29692, Note_on_c, 0, 68, 34
1, 29693, Note_on_c, 0, 69, 0
1, 29707, Note_on_c, 0, 49, 35
1, 29716, Note_on_c, 0, 64, 48
1, 29717, Note_on_c, 0, 68, 0
1, 29734, Note_on_c, 0, 64, 0
1, 29748, Note_on_c, 0, 49, 0
1, 29762, Note_on_c, 0, 50, 30
1, 29770, Note_on_c, 0, 67, 64
1, 29787, Note_on_c, 0, 67, 0
1, 29802, Note_on_c, 0, 69, 56
1, 29819, Note_on_c, 0, 67, 32
1, 29829, Note_on_c, 0, 69, 0
1, 29845, Note_on_c, 0, 64, 50
1, 29853, Note_on_c, 0, 67, 0
1, 29866, Note_on_c, 0, 64, 0
1, 29879, Note_on_c, 0, 38, 34
1, 29885, Note_on_c, 0, 66, 57
1, 29900, Note_on_c, 0, 50, 0
1, 29944, Note_on_c, 0, 66, 0
1, 29956, Note_on_c, 0, 67, 74
1, 29984, Note_on_c, 0, 67, 0
1, 30000, Note_on_c, 0, 69, 75
1, 30001, Note_on_c, 0, 50, 33
1, 30014, Note_on_c, 0, 38, 0
1, 30041, Note_on_c, 0, 69, 0
1, 30074, Note_on_c, 0, 66, 67
1, 30101, Note_on_c, 0, 66, 0
1, 30107, Note_on_c, 0, 50, 0
1, 30116, Note_on_c, 0, 42, 46
1, 30118, Note_on_c, 0, 62, 50
1, 30173, Note_on_c, 0, 62, 0
1, 30184, Note_on_c, 0, 39, 50
1, 30190, Note_on_c, 0, 60, 64
1, 30209, Note_on_c, 0, 60, 0
1, 30214, Note_on_c, 0, 39, 0
1, 30218, Note_on_c, 0, 42, 0
1, 30225, Note_on_c, 0, 43, 31
1, 30243, Note_on_c, 0, 57, 45
1, 30332, Note_on_c, 0, 43, 0
1, 30340, Note_on_c, 0, 57, 0
1, 30353, Note_on_c, 0, 50, 30
1, 30357, Note_on_c, 0, 59, 66
1, 30432, Note_on_c, 0, 59, 0
1, 30457, Note_on_c, 0, 50, 0
1, 30468, Note_on_c, 0, 62, 64
1, 30572, Note_on_c, 0, 62, 0
1, 30590, Note_on_c, 0, 54, 43
1, 30592, Note_on_c, 0, 66, 56
1, 30659, Note_on_c, 0, 66, 0
1, 30686, Note_on_c, 0, 55, 56
1, 30707, Note_on_c, 0, 55, 0
1, 30708, Note_on_c, 0, 66, 46
1, 30709, Note_on_c, 0, 62, 61
1, 30709, Note_on_c, 0, 59, 62
1, 30709, Note_on_c, 0, 57, 54
1, 30709, Note_on_c, 0, 69, 64
1, 30710, Note_on_c, 0, 54, 0
1, 30758, Note_on_c, 0, 66, 0
1, 30767, Note_on_c, 0, 59, 0
1, 30767, Note_on_c, 0, 62, 0
1, 30781, Note_on_c, 0, 69, 0
1, 30791, Note_on_c, 0, 54, 34
1, 30793, Note_on_c, 0, 57, 0
1, 30793, Note_on_c, 0, 66, 35
1, 30814, Note_on_c, 0, 66, 0
1, 30817, Note_on_c, 0, 54, 0
1, 30826, Note_on_c, 0, 55, 57
1, 30829, Note_on_c, 0, 67, 44
1, 30838, Note_on_c, 0, 59, 22
1, 30876, Note_on_c, 0, 59, 0
1, 30886, Note_on_c, 0, 67, 0
1, 30900, Note_on_c, 0, 55, 0
1, 30907, Note_on_c, 0, 69, 58
1, 30907, Note_on_c, 0, 59, 49
1, 30909, Note_on_c, 0, 57, 55
1, 30909, Note_on_c, 0, 62, 47
1, 30931, Note_on_c, 0, 69, 0
1, 30932, Note_on_c, 0, 62, 0
1, 30934, Note_on_c, 0, 59, 0
1, 30943, Note_on_c, 0, 57, 0
1, 30950, Note_on_c, 0, 66, 36
1, 30952, Note_on_c, 0, 54, 40
1, 30961, Control_c, 0, 64, 127
1, 30977, Note_on_c, 0, 54, 0
1, 31026, Note_on_c, 0, 62, 62
1, 31028, Note_on_c, 0, 59, 53
1, 31029, Note_on_c, 0, 50, 53
1, 31035, Control_c, 0, 64, 0
1, 31047, Note_on_c, 0, 59, 0
1, 31050, Note_on_c, 0, 50, 0
1, 31059, Note_on_c, 0, 62, 0
1, 31059, Control_c, 0, 64, 127
1, 31066, Note_on_c, 0, 66, 0
1, 31147, Note_on_c, 0, 74, 78
1, 31148, Note_on_c, 0, 62, 64
1, 31149, Note_on_c, 0, 67, 75
1, 31150, Note_on_c, 0, 64, 76
1, 31152, Control_c, 0, 64, 0
1, 31153, Note_on_c, 0, 71, 44
1, 31162, Note_on_c, 0, 71, 0
1, 31175, Note_on_c, 0, 67, 0
1, 31175, Note_on_c, 0, 64, 0
1, 31176, Note_on_c, 0, 74, 0
1, 31185, Note_on_c, 0, 62, 0
1, 31191, Note_on_c, 0, 60, 40
1, 31195, Note_on_c, 0, 72, 43
1, 31201, Note_on_c, 0, 64, 17
1, 31232, Note_on_c, 0, 64, 0
1, 31241, Note_on_c, 0, 72, 0
1, 31256, Note_on_c, 0, 60, 0
1, 31258, Control_c, 0, 64, 127
1, 31264, Note_on_c, 0, 74, 51
1, 31269, Note_on_c, 0, 62, 56
1, 31272, Note_on_c, 0, 64, 68
1, 31273, Note_on_c, 0, 67, 44
1, 31280, Note_on_c, 0, 67, 0
1, 31288, Note_on_c, 0, 74, 0
1, 31291, Note_on_c, 0, 64, 0
1, 31291, Note_on_c, 0, 62, 0
1, 31302, Control_c, 0, 64, 0
1, 31312, Note_on_c, 0, 50, 40
1, 31314, Note_on_c, 0, 62, 50
1, 31319, Note_on_c, 0, 64, 32
1, 31322, Note_on_c, 0, 71, 27
1, 31323, Note_on_c, 0, 67, 25
1, 31346, Control_c, 0, 64, 127
1, 31349, Note_on_c, 0, 62, 0
1, 31358, Note_on_c, 0, 64, 0
1, 31360, Note_on_c, 0, 67, 0
1, 31360, Note_on_c, 0, 71, 0
1, 31363, Note_on_c, 0, 50, 0
1, 31388, Note_on_c, 0, 71, 45
1, 31388, Note_on_c, 0, 64, 55
1, 31390, Note_on_c, 0, 67, 55
1, 31390, Note_on_c, 0, 50, 47
1, 31392, Note_on_c, 0, 60, 50
1, 31392, Control_c, 0, 64, 0
1, 31398, Note_on_c, 0, 60, 0
1, 31403, Note_on_c, 0, 50, 0
1, 31404, Note_on_c, 0, 64, 0
1, 31407, Note_on_c, 0, 67, 0
1, 31410, Note_on_c, 0, 71, 0
1, 31447, Note_on_c, 0, 68, 30
1, 31455, Note_on_c, 0, 68, 0
1, 31505, Note_on_c, 0, 74, 76
1, 31508, Note_on_c, 0, 64, 74
1, 31508, Note_on_c, 0, 62, 52
1, 31509, Note_on_c, 0, 67, 64
1, 31536, Note_on_c, 0, 67, 0
1, 31536, Note_on_c, 0, 64, 0
1, 31537, Note_on_c, 0, 74, 0
1, 31542, Note_on_c, 0, 62, 0
1, 31553, Note_on_c, 0, 72, 44
1, 31554, Note_on_c, 0, 60, 36
1, 31587, Note_on_c, 0, 72, 0
1, 31620, Note_on_c, 0, 60, 0
1, 31626, Note_on_c, 0, 74, 66
1, 31627, Control_c, 0, 64, 127
1, 31628, Note_on_c, 0, 67, 57
1, 31632, Note_on_c, 0, 64, 58
1, 31642, Note_on_c, 0, 67, 0
1, 31643, Note_on_c, 0, 64, 0
1, 31646, Note_on_c, 0, 74, 0
1, 31661, Control_c, 0, 64, 0
1, 31674, Note_on_c, 0, 60, 63
1, 31674, Note_on_c, 0, 54, 33
1, 31674, Note_on_c, 0, 71, 56
1, 31679, Note_on_c, 0, 64, 56
1, 31680, Note_on_c, 0, 50, 30
1, 31683, Note_on_c, 0, 68, 34
1, 31707, Control_c, 0, 64, 127
1, 31716, Note_on_c, 0, 50, 0
1, 31717, Note_on_c, 0, 64, 0
1, 31722, Note_on_c, 0, 60, 0
1, 31724, Note_on_c, 0, 71, 0
1, 31726, Note_on_c, 0, 54, 0
1, 31729, Control_c, 0, 64, 0
1, 31730, Note_on_c, 0, 68, 0
1, 31747, Note_on_c, 0, 68, 50
1, 31747, Note_on_c, 0, 60, 62
1, 31749, Note_on_c, 0, 64, 61
1, 31750, Note_on_c, 0, 50, 40
1, 31751, Note_on_c, 0, 54, 43
1, 31752, Note_on_c, 0, 71, 30
1, 31755, Note_on_c, 0, 60, 0
1, 31759, Note_on_c, 0, 50, 0
1, 31760, Note_on_c, 0, 64, 0
1, 31767, Note_on_c, 0, 68, 0
1, 31767, Note_on_c, 0, 71, 0
1, 31770, Note_on_c, 0, 54, 0
1, 31864, Note_on_c, 0, 74, 69
1, 31866, Note_on_c, 0, 67, 70
1, 31866, Note_on_c, 0, 62, 69
1, 31866, Note_on_c, 0, 64, 75
1, 31871, Note_on_c, 0, 71, 31
1, 31880, Note_on_c, 0, 71, 0
1, 31889, Note_on_c, 0, 67, 0
1, 31893, Note_on_c, 0, 74, 0
1, 31894, Note_on_c, 0, 64, 0
1, 31896, Note_on_c, 0, 62, 0
1, 31911, Note_on_c, 0, 72, 47
1, 31913, Note_on_c, 0, 60, 42
1, 31918, Control_c, 0, 64, 127
1, 31919, Note_on_c, 0, 64, 17
1, 31933, Note_on_c, 0, 64, 0
1, 31940, Control_c, 0, 64, 0
1, 31946, Note_on_c, 0, 72, 0
1, 31976, Control_c, 0, 64, 127
1, 31978, Note_on_c, 0, 60, 0
1, 31981, Note_on_c, 0, 74, 44
1, 31985, Note_on_c, 0, 62, 45
1, 31985, Note_on_c, 0, 67, 45
1, 31986, Note_on_c, 0, 64, 63
1, 31993, Note_on_c, 0, 67, 0
1, 31993, Note_on_c, 0, 62, 0
1, 31999, Note_on_c, 0, 74, 0
1, 32000, Note_on_c, 0, 64, 0
1, 32014, Control_c, 0, 64, 0
1, 32026, Note_on_c, 0, 60, 60
1, 32028, Note_on_c, 0, 54, 51
1, 32031, Note_on_c, 0, 64, 37
1, 32032, Note_on_c, 0, 71, 22
1, 32044, Note_on_c, 0, 64, 0
1, 32049, Note_on_c, 0, 54, 0
1, 32051, Note_on_c, 0, 71, 0
1, 32058, Note_on_c, 0, 60, 0
1, 32064, Control_c, 0, 64, 127
1, 32102, Control_c, 0, 64, 0
1, 32106, Note_on_c, 0, 69, 62
1, 32106, Note_on_c, 0, 62, 66
1, 32106, Note_on_c, 0, 66, 46
1, 32108, Note_on_c, 0, 57, 57
1, 32108, Note_on_c, 0, 59, 54
1, 32110, Note_on_c, 0, 50, 54
1, 32139, Control_c, 0, 64, 127
1, 32158, Note_on_c, 0, 59, 0
1, 32159, Note_on_c, 0, 57, 0
1, 32162, Note_on_c, 0, 62, 0
1, 32164, Note_on_c, 0, 66, 0
1, 32172, Note_on_c, 0, 69, 0
1, 32226, Note_on_c, 0, 59, 58
1, 32227, Note_on_c, 0, 62, 71
1, 32227, Note_on_c, 0, 81, 75
1, 32229, Note_on_c, 0, 74, 81
1, 32232, Note_on_c, 0, 57, 20
1, 32239, Control_c, 0, 64, 0
1, 32259, Note_on_c, 0, 62, 0
1, 32263, Note_on_c, 0, 74, 0
1, 32263, Note_on_c, 0, 81, 0
1, 32267, Control_c, 0, 64, 127
1, 32277, Note_on_c, 0, 78, 38
1, 32288, Note_on_c, 0, 69, 17
1, 32295, Note_on_c, 0, 57, 0
1, 32298, Note_on_c, 0, 59, 0
1, 32306, Note_on_c, 0, 69, 0
1, 32314, Note_on_c, 0, 78, 0
1, 32346, Control_c, 0, 64, 0
1, 32346, Note_on_c, 0, 62, 69
1, 32347, Note_on_c, 0, 74, 74
1, 32347, Note_on_c, 0, 78, 54
1, 32347, Note_on_c, 0, 81, 73
1, 32347, Note_on_c, 0, 69, 80
1, 32349, Note_on_c, 0, 59, 51
1, 32353, Note_on_c, 0, 57, 50
1, 32372, Note_on_c, 0, 81, 0
1, 32373, Note_on_c, 0, 74, 0
1, 32375, Note_on_c, 0, 78, 0
1, 32375, Note_on_c, 0, 62, 0
1, 32378, Note_on_c, 0, 69, 0
1, 32382, Control_c, 0, 64, 127
1, 32404, Note_on_c, 0, 50, 0
1, 32467, Note_on_c, 0, 74, 70
1, 32467, Note_on_c, 0, 66, 78
1, 32467, Note_on_c, 0, 50, 61
1, 32470, Note_on_c, 0, 57, 0
1, 32472, Note_on_c, 0, 72, 48
1, 32475, Note_on_c, 0, 59, 0
1, 32490, Note_on_c, 0, 66, 0
1, 32490, Control_c, 0, 64, 0
1, 32495, Note_on_c, 0, 74, 0
1, 32497, Note_on_c, 0, 72, 0
1, 32516, Note_on_c, 0, 57, 35
1, 32517, Note_on_c, 0, 62, 46
1, 32520, Control_c, 0, 64, 127
1, 32525, Note_on_c, 0, 62, 0
1, 32535, Note_on_c, 0, 57, 0
1, 32586, Note_on_c, 0, 66, 56
1, 32587, Note_on_c, 0, 62, 73
1, 32591, Note_on_c, 0, 59, 49
1, 32591, Note_on_c, 0, 57, 49
1, 32592, Control_c, 0, 64, 0
1, 32626, Control_c, 0, 64, 127
1, 32627, Note_on_c, 0, 50, 0
1, 32663, Note_on_c, 0, 57, 0
1, 32667, Note_on_c, 0, 59, 0
1, 32673, Note_on_c, 0, 62, 0
1, 32684, Note_on_c, 0, 66, 0
1, 32753, Control_c, 0, 64, 0
1, 32759, Note_on_c, 0, 76, 88
1, 32759, Note_on_c, 0, 67, 101
1, 32760, Note_on_c, 0, 72, 89
1, 32761, Note_on_c, 0, 56, 65
1, 32761, Note_on_c, 0, 62, 80
1, 32781, Control_c, 0, 64, 127
1, 32800, Note_on_c, 0, 67, 0
1, 32804, Note_on_c, 0, 56, 0
1, 32808, Note_on_c, 0, 72, 0
1, 32811, Note_on_c, 0, 62, 0
1, 32812, Note_on_c, 0, 76, 0
1, 32957, Note_on_c, 0, 67, 80
1, 32958, Note_on_c, 0, 62, 71
1, 32959, Note_on_c, 0, 56, 70
1, 32965, Note_on_c, 0, 65, 38
1, 32967, Control_c, 0, 64, 0
1, 32972, Note_on_c, 0, 65, 0
1, 32976, Note_on_c, 0, 67, 0
1, 32987, Note_on_c, 0, 62, 0
1, 32991, Control_c, 0, 64, 127
1, 32999, Note_on_c, 0, 56, 0
1, 33041, Note_on_c, 0, 76, 45
1, 33046, Control_c, 0, 64, 0
1, 33058, Control_c, 0, 64, 127
1, 33065, Note_on_c, 0, 76, 0
1, 33077, Note_on_c, 0, 52, 69
1, 33080, Note_on_c, 0, 83, 75
1, 33098, Note_on_c, 0, 83, 0
1, 33108, Control_c, 0, 64, 0
1, 33109, Note_on_c, 0, 52, 0
1, 33118, Note_on_c, 0, 45, 82
1, 33120, Note_on_c, 0, 86, 94
1, 33135, Note_on_c, 0, 45, 0
1, 33136, Control_c, 0, 64, 127
1, 33182, Note_on_c, 0, 86, 0
1, 33201, Note_on_c, 0, 84, 80
1, 33204, Note_on_c, 0, 64, 65
1, 33204, Note_on_c, 0, 59, 47
1, 33205, Note_on_c, 0, 60, 49
1, 33212, Note_on_c, 0, 55, 34
1, 33220, Control_c, 0, 64, 0
1, 33237, Note_on_c, 0, 84, 0
1, 33240, Note_on_c, 0, 64, 0
1, 33245, Note_on_c, 0, 60, 0
1, 33246, Note_on_c, 0, 59, 0
1, 33252, Note_on_c, 0, 80, 33
1, 33257, Note_on_c, 0, 55, 0
1, 33278, Note_on_c, 0, 80, 0
1, 33286, Note_on_c, 0, 83, 69
1, 33308, Note_on_c, 0, 83, 0
1, 33318, Note_on_c, 0, 45, 71
1, 33325, Note_on_c, 0, 81, 71
1, 33329, Note_on_c, 0, 83, 27
1, 33337, Note_on_c, 0, 45, 0
1, 33346, Control_c, 0, 64, 127
1, 33351, Control_c, 0, 64, 0
1, 33358, Note_on_c, 0, 83, 0
1, 33361, Note_on_c, 0, 81, 0
1, 33363, Note_on_c, 0, 76, 58
1, 33384, Note_on_c, 0, 76, 0
1, 33401, Note_on_c, 0, 74, 61
1, 33405, Control_c, 0, 64, 127
1, 33427, Note_on_c, 0, 74, 0
1, 33436, Note_on_c, 0, 72, 59
1, 33437, Note_on_c, 0, 64, 70
1, 33439, Control_c, 0, 64, 0
1, 33439, Note_on_c, 0, 60, 55
1, 33440, Note_on_c, 0, 59, 51
1, 33448, Note_on_c, 0, 55, 29
1, 33461, Note_on_c, 0, 72, 0
1, 33462, Note_on_c, 0, 64, 0
1, 33464, Note_on_c, 0, 59, 0
1, 33468, Note_on_c, 0, 60, 0
1, 33475, Note_on_c, 0, 55, 0
1, 33484, Note_on_c, 0, 71, 27
1, 33503, Note_on_c, 0, 71, 0
1, 33514, Note_on_c, 0, 74, 74
1, 33537, Note_on_c, 0, 74, 0
1, 33550, Note_on_c, 0, 45, 66
1, 33556, Note_on_c, 0, 72, 73
1, 33563, Note_on_c, 0, 45, 0
1, 33586, Note_on_c, 0, 72, 0
1, 33595, Note_on_c, 0, 71, 44
1, 33626, Note_on_c, 0, 71, 0
1, 33630, Note_on_c, 0, 69, 64
1, 33631, Control_c, 0, 64, 127
1, 33654, Note_on_c, 0, 69, 0
1, 33667, Control_c, 0, 64, 0
1, 33669, Note_on_c, 0, 60, 55
1, 33670, Note_on_c, 0, 54, 47
1, 33672, Note_on_c, 0, 68, 63
1, 33676, Note_on_c, 0, 60, 0
1, 33682, Note_on_c, 0, 50, 24
1, 33690, Note_on_c, 0, 50, 0
1, 33691, Note_on_c, 0, 54, 0
1, 33703, Note_on_c, 0, 68, 0
1, 33715, Note_on_c, 0, 72, 54
1, 33731, Note_on_c, 0, 72, 0
1, 33755, Note_on_c, 0, 38, 33
1, 33757, Note_on_c, 0, 40, 24
1, 33759, Note_on_c, 0, 64, 60
1, 33763, Note_on_c, 0, 38, 0
1, 33765, Note_on_c, 0, 40, 0
1, 33776, Note_on_c, 0, 64, 0
1, 33857, Note_on_c, 0, 65, 71
1, 33859, Note_on_c, 0, 54, 53
1, 33861, Note_on_c, 0, 64, 53
1, 33861, Note_on_c, 0, 58, 45
1, 33863, Note_on_c, 0, 60, 46
1, 33868, Note_on_c, 0, 64, 0
1, 33886, Note_on_c, 0, 65, 0
1, 33891, Note_on_c, 0, 60, 0
1, 33902, Note_on_c, 0, 58, 0
1, 33903, Note_on_c, 0, 54, 0
1, 33938, Note_on_c, 0, 63, 72
1, 33939, Note_on_c, 0, 60, 78
1, 33987, Note_on_c, 0, 60, 0
1, 33998, Note_on_c, 0, 63, 0
1, 34015, Note_on_c, 0, 62, 72
1, 34037, Note_on_c, 0, 62, 0
1, 34042, Control_c, 0, 64, 127
1, 34050, Note_on_c, 0, 60, 57
1, 34071, Note_on_c, 0, 60, 0
1, 34079, Control_c, 0, 64, 0
1, 34083, Note_on_c, 0, 50, 11
1, 34086, Note_on_c, 0, 54, 36
1, 34088, Note_on_c, 0, 62, 60
1, 34089, Note_on_c, 0, 59, 47
1, 34091, Note_on_c, 0, 43, 30
1, 34113, Control_c, 0, 64, 127
1, 34148, Note_on_c, 0, 54, 0
1, 34152, Note_on_c, 0, 59, 0
1, 34178, Note_on_c, 0, 50, 0
1, 34196, Note_on_c, 0, 62, 0
1, 34205, Note_on_c, 0, 59, 54
1, 34206, Note_on_c, 0, 52, 59
1, 34207, Note_on_c, 0, 57, 48
1, 34209, Control_c, 0, 64, 0
1, 34264, Note_on_c, 0, 52, 0
1, 34285, Note_on_c, 0, 53, 84
1, 34293, Control_c, 0, 64, 127
1, 34319, Note_on_c, 0, 57, 0
1, 34320, Note_on_c, 0, 53, 0
1, 34321, Note_on_c, 0, 59, 0
1, 34337, Control_c, 0, 64, 0
1, 34342, Note_on_c, 0, 54, 71
1, 34342, Note_on_c, 0, 57, 54
1, 34345, Note_on_c, 0, 59, 39
1, 34345, Note_on_c, 0, 62, 45
1, 34377, Control_c, 0, 64, 127
1, 34419, Note_on_c, 0, 54, 0
1, 34432, Control_c, 0, 64, 0
1, 34451, Note_on_c, 0, 51, 46
1, 34468, Control_c, 0, 64, 127
1, 34493, Note_on_c, 0, 51, 0
1, 34510, Note_on_c, 0, 57, 0
1, 34518, Note_on_c, 0, 59, 0
1, 34520, Note_on_c, 0, 57, 19
1, 34525, Note_on_c, 0, 59, 19
1, 34525, Note_on_c, 0, 52, 72
1, 34540, Control_c, 0, 64, 0
1, 34582, Control_c, 0, 64, 127
1, 34640, Note_on_c, 0, 52, 0
1, 34640, Note_on_c, 0, 51, 67
1, 34662, Note_on_c, 0, 57, 0
1, 34672, Note_on_c, 0, 59, 0
1, 34681, Note_on_c, 0, 62, 0
1, 34682, Control_c, 0, 64, 0
1, 34687, Note_on_c, 0, 51, 0
1, 34693, Note_on_c, 0, 50, 49
1, 34701, Note_on_c, 0, 43, 0
1, 34730, Control_c, 0, 64, 127
1, 34763, Note_on_c, 0, 43, 55
1, 34765, Note_on_c, 0, 50, 0
1, 34787, Control_c, 0, 64, 0
1, 34801, Note_on_c, 0, 55, 57
1, 34804, Note_on_c, 0, 62, 45
1, 34805, Note_on_c, 0, 59, 49
1, 34808, Note_on_c, 0, 52, 53
1, 34815, Note_on_c, 0, 55, 0
1, 34819, Control_c, 0, 64, 127
1, 34829, Note_on_c, 0, 59, 0
1, 34839, Note_on_c, 0, 62, 0
1, 34888, Note_on_c, 0, 51, 37
1, 34917, Note_on_c, 0, 43, 0
1, 34923, Control_c, 0, 64, 0
1, 34924, Note_on_c, 0, 51, 0
1, 34925, Note_on_c, 0, 69, 49
1, 34926, Note_on_c, 0, 52, 0
1, 34935, Note_on_c, 0, 69, 0
1, 34956, Note_on_c, 0, 72, 59
1, 34966, Note_on_c, 0, 72, 0
1, 34983, Control_c, 0, 64, 127
1, 34988, Note_on_c, 0, 76, 72
1, 35007, Note_on_c, 0, 76, 0
1, 35017, Note_on_c, 0, 79, 81
1, 35023, Control_c, 0, 64, 0
1, 35037, Note_on_c, 0, 60, 43
1, 35039, Note_on_c, 0, 57, 32
1, 35044, Note_on_c, 0, 50, 32
1, 35045, Note_on_c, 0, 53, 32
1, 35050, Note_on_c, 0, 77, 58
1, 35051, Note_on_c, 0, 79, 0
1, 35073, Note_on_c, 0, 77, 0
1, 35081, Note_on_c, 0, 73, 34
1, 35093, Note_on_c, 0, 73, 0
1, 35108, Note_on_c, 0, 76, 68
1, 35124, Note_on_c, 0, 60, 0
1, 35139, Note_on_c, 0, 76, 0
1, 35141, Note_on_c, 0, 73, 27
1, 35150, Note_on_c, 0, 73, 0
1, 35159, Note_on_c, 0, 60, 38
1, 35170, Note_on_c, 0, 74, 71
1, 35194, Note_on_c, 0, 74, 0
1, 35202, Note_on_c, 0, 69, 52
1, 35212, Note_on_c, 0, 69, 0
1, 35224, Note_on_c, 0, 53, 0
1, 35229, Note_on_c, 0, 57, 0
1, 35234, Note_on_c, 0, 50, 0
1, 35240, Control_c, 0, 64, 127
1, 35242, Note_on_c, 0, 72, 60
1, 35248, Note_on_c, 0, 60, 0
1, 35260, Note_on_c, 0, 72, 0
1, 35280, Note_on_c, 0, 74, 62
1, 35286, Control_c, 0, 64, 0
1, 35297, Note_on_c, 0, 74, 0
1, 35322, Control_c, 0, 64, 127
1, 35356, Note_on_c, 0, 69, 48
1, 35357, Note_on_c, 0, 65, 45
1, 35361, Note_on_c, 0, 60, 35
1, 35364, Note_on_c, 0, 55, 26
1, 35367, Note_on_c, 0, 69, 0
1, 35368, Note_on_c, 0, 57, 25
1, 35372, Control_c, 0, 64, 0
1, 35433, Note_on_c, 0, 74, 68
1, 35449, Note_on_c, 0, 74, 0
1, 35449, Note_on_c, 0, 65, 0
1, 35450, Note_on_c, 0, 60, 0
1, 35452, Note_on_c, 0, 57, 0
1, 35453, Note_on_c, 0, 55, 0
1, 35476, Note_on_c, 0, 64, 58
1, 35478, Note_on_c, 0, 59, 58
1, 35480, Note_on_c, 0, 72, 81
1, 35486, Note_on_c, 0, 53, 27
1, 35509, Note_on_c, 0, 64, 0
1, 35515, Note_on_c, 0, 59, 0
1, 35515, Note_on_c, 0, 74, 47
1, 35520, Note_on_c, 0, 72, 0
1, 35524, Note_on_c, 0, 53, 0
1, 35538, Note_on_c, 0, 74, 0
1, 35560, Note_on_c, 0, 72, 79
1, 35568, Note_on_c, 0, 45, 36
1, 35568, Note_on_c, 0, 43, 32
1, 35577, Note_on_c, 0, 43, 0
1, 35579, Note_on_c, 0, 45, 0
1, 35589, Note_on_c, 0, 72, 0
1, 35599, Note_on_c, 0, 74, 59
1, 35621, Control_c, 0, 64, 127
1, 35626, Note_on_c, 0, 74, 0
1, 35637, Control_c, 0, 64, 0
1, 35638, Note_on_c, 0, 72, 65
1, 35639, Note_on_c, 0, 64, 55
1, 35640, Note_on_c, 0, 59, 43
1, 35651, Note_on_c, 0, 53, 14
1, 35660, Note_on_c, 0, 64, 0
1, 35665, Control_c, 0, 64, 127
1, 35667, Note_on_c, 0, 59, 0
1, 35670, Note_on_c, 0, 72, 0
1, 35672, Note_on_c, 0, 53, 0
1, 35679, Note_on_c, 0, 74, 46
1, 35706, Note_on_c, 0, 74, 0
1, 35713, Control_c, 0, 64, 0
1, 35719, Note_on_c, 0, 43, 56
1, 35720, Note_on_c, 0, 73, 57
1, 35728, Note_on_c, 0, 43, 0
1, 35745, Control_c, 0, 64, 127
1, 35753, Note_on_c, 0, 73, 0
1, 35760, Note_on_c, 0, 75, 55
1, 35788, Note_on_c, 0, 75, 0
1, 35799, Control_c, 0, 64, 0
1, 35801, Note_on_c, 0, 64, 55
1, 35802, Note_on_c, 0, 73, 50
1, 35802, Note_on_c, 0, 59, 48
1, 35806, Note_on_c, 0, 53, 27
1, 35816, Note_on_c, 0, 64, 0
1, 35823, Note_on_c, 0, 59, 0
1, 35828, Note_on_c, 0, 53, 0
1, 35829, Control_c, 0, 64, 127
1, 35831, Note_on_c, 0, 73, 0
1, 35843, Note_on_c, 0, 75, 57
1, 35870, Note_on_c, 0, 75, 0
1, 35882, Control_c, 0, 64, 0
1, 35882, Note_on_c, 0, 43, 59
1, 35882, Note_on_c, 0, 73, 54
1, 35899, Note_on_c, 0, 43, 0
1, 35907, Note_on_c, 0, 73, 0
1, 35914, Control_c, 0, 64, 127
1, 35921, Note_on_c, 0, 75, 61
1, 35947, Note_on_c, 0, 75, 0
1, 36067, Note_on_c, 0, 48, 71
1, 36078, Control_c, 0, 64, 0
1, 36091, Note_on_c, 0, 48, 0
1, 36109, Note_on_c, 0, 55, 57
1, 36112, Note_on_c, 0, 63, 30
1, 36119, Note_on_c, 0, 63, 0
1, 36128, Note_on_c, 0, 55, 0
1, 36134, Control_c, 0, 64, 127
1, 36147, Note_on_c, 0, 70, 62
1, 36171, Note_on_c, 0, 70, 0
1, 36188, Note_on_c, 0, 70, 71
1, 36188, Note_on_c, 0, 63, 84
1, 36189, Note_on_c, 0, 67, 87
1, 36189, Note_on_c, 0, 74, 89
1, 36191, Note_on_c, 0, 62, 92
1, 36205, Control_c, 0, 64, 0
1, 36239, Control_c, 0, 64, 127
1, 36262, Note_on_c, 0, 63, 0
1, 36263, Note_on_c, 0, 67, 0
1, 36265, Control_c, 0, 64, 0
1, 36266, Note_on_c, 0, 74, 0
1, 36274, Note_on_c, 0, 63, 71
1, 36274, Note_on_c, 0, 67, 55
1, 36276, Note_on_c, 0, 72, 66
1, 36277, Note_on_c, 0, 60, 74
1, 36279, Note_on_c, 0, 62, 0
1, 36291, Control_c, 0, 64, 127
1, 36319, Note_on_c, 0, 70, 0
1, 36328, Note_on_c, 0, 67, 0
1, 36330, Note_on_c, 0, 63, 0
1, 36337, Control_c, 0, 64, 0
1, 36345, Note_on_c, 0, 72, 0
1, 36347, Note_on_c, 0, 60, 0
1, 36355, Note_on_c, 0, 70, 53
1, 36356, Note_on_c, 0, 63, 49
1, 36356, Note_on_c, 0, 58, 53
1, 36358, Note_on_c, 0, 67, 37
1, 36363, Control_c, 0, 64, 127
1, 36378, Note_on_c, 0, 67, 0
1, 36397, Note_on_c, 0, 63, 0
1, 36409, Note_on_c, 0, 70, 0
1, 36437, Note_on_c, 0, 69, 64
1, 36438, Note_on_c, 0, 58, 0
1, 36438, Note_on_c, 0, 66, 53
1, 36440, Note_on_c, 0, 62, 55
1, 36441, Control_c, 0, 64, 0
1, 36443, Note_on_c, 0, 57, 44
1, 36477, Control_c, 0, 64, 127
1, 36484, Note_on_c, 0, 57, 0
1, 36523, Note_on_c, 0, 69, 0
1, 36534, Note_on_c, 0, 66, 0
1, 36542, Note_on_c, 0, 62, 0
1, 36559, Note_on_c, 0, 41, 49
1, 36602, Note_on_c, 0, 66, 44
1, 36603, Note_on_c, 0, 51, 58
1, 36604, Control_c, 0, 64, 0
1, 36604, Note_on_c, 0, 62, 50
1, 36605, Note_on_c, 0, 57, 39
1, 36656, Control_c, 0, 64, 127
1, 36660, Note_on_c, 0, 57, 0
1, 36662, Note_on_c, 0, 51, 0
1, 36666, Note_on_c, 0, 62, 0
1, 36669, Note_on_c, 0, 66, 0
1, 36683, Note_on_c, 0, 51, 48
1, 36684, Note_on_c, 0, 66, 62
1, 36684, Note_on_c, 0, 62, 60
1, 36685, Note_on_c, 0, 57, 58
1, 36703, Note_on_c, 0, 51, 0
1, 36705, Note_on_c, 0, 57, 0
1, 36710, Note_on_c, 0, 62, 0
1, 36714, Note_on_c, 0, 66, 0
1, 36714, Control_c, 0, 64, 0
1, 36724, Note_on_c, 0, 51, 48
1, 36726, Note_on_c, 0, 57, 55
1, 36726, Note_on_c, 0, 66, 52
1, 36727, Note_on_c, 0, 62, 62
1, 36764, Control_c, 0, 64, 127
1, 36774, Note_on_c, 0, 51, 0
1, 36778, Note_on_c, 0, 57, 0
1, 36781, Note_on_c, 0, 62, 0
1, 36787, Note_on_c, 0, 66, 0
1, 36798, Note_on_c, 0, 51, 56
1, 36801, Note_on_c, 0, 66, 59
1, 36803, Note_on_c, 0, 57, 55
1, 36803, Note_on_c, 0, 62, 50
1, 36821, Note_on_c, 0, 51, 0
1, 36824, Note_on_c, 0, 57, 0
1, 36831, Note_on_c, 0, 62, 0
1, 36834, Note_on_c, 0, 66, 0
1, 36845, Note_on_c, 0, 51, 52
1, 36847, Note_on_c, 0, 57, 42
1, 36848, Note_on_c, 0, 62, 66
1, 36848, Note_on_c, 0, 66, 45
1, 36866, Note_on_c, 0, 57, 0
1, 36866, Note_on_c, 0, 51, 0
1, 36872, Note_on_c, 0, 62, 0
1, 36873, Note_on_c, 0, 66, 0
1, 36911, Control_c, 0, 64, 0
1, 36920, Note_on_c, 0, 66, 59
1, 36921, Note_on_c, 0, 51, 67
1, 36922, Note_on_c, 0, 57, 58
1, 36923, Note_on_c, 0, 62, 61
1, 36925, Note_on_c, 0, 41, 0
1, 36929, Note_on_c, 0, 57, 0
1, 36930, Note_on_c, 0, 62, 0
1, 36933, Control_c, 0, 64, 127
1, 36934, Note_on_c, 0, 51, 0
1, 36943, Note_on_c, 0, 66, 0
1, 36968, Note_on_c, 0, 68, 64
1, 36970, Note_on_c, 0, 56, 68
1, 36971, Control_c, 0, 64, 0
1, 36971, Note_on_c, 0, 60, 55
1, 36973, Note_on_c, 0, 64, 53
1, 36974, Note_on_c, 0, 65, 51
1, 36980, Note_on_c, 0, 65, 0
1, 37007, Control_c, 0, 64, 127
1, 37025, Control_c, 0, 64, 0
1, 37028, Note_on_c, 0, 60, 0
1, 37029, Note_on_c, 0, 64, 0
1, 37043, Note_on_c, 0, 56, 0
1, 37043, Note_on_c, 0, 71, 57
1, 37044, Note_on_c, 0, 59, 54
1, 37047, Note_on_c, 0, 64, 45
1, 37047, Note_on_c, 0, 60, 59
1, 37049, Control_c, 0, 64, 127
1, 37068, Note_on_c, 0, 59, 0
1, 37072, Note_on_c, 0, 64, 0
1, 37073, Note_on_c, 0, 60, 0
1, 37076, Note_on_c, 0, 71, 0
1, 37080, Note_on_c, 0, 68, 0
1, 37083, Control_c, 0, 64, 0
1, 37091, Note_on_c, 0, 69, 51
1, 37094, Note_on_c, 0, 64, 49
1, 37094, Note_on_c, 0, 60, 31
1, 37096, Note_on_c, 0, 57, 55
1, 37117, Control_c, 0, 64, 127
1, 37118, Note_on_c, 0, 64, 0
1, 37122, Note_on_c, 0, 57, 0
1, 37133, Note_on_c, 0, 60, 0
1, 37141, Note_on_c, 0, 69, 0
1, 37147, Control_c, 0, 64, 0
1, 37166, Note_on_c, 0, 64, 39
1, 37168, Note_on_c, 0, 60, 47
1, 37169, Note_on_c, 0, 49, 59
1, 37175, Control_c, 0, 64, 127
1, 37183, Note_on_c, 0, 60, 0
1, 37187, Note_on_c, 0, 64, 0
1, 37189, Note_on_c, 0, 49, 0
1, 37205, Control_c, 0, 64, 0
1, 37214, Note_on_c, 0, 66, 55
1, 37215, Note_on_c, 0, 60, 53
1, 37217, Note_on_c, 0, 50, 57
1, 37247, Control_c, 0, 64, 127
1, 37258, Note_on_c, 0, 60, 0
1, 37283, Note_on_c, 0, 66, 0
1, 37300, Control_c, 0, 64, 0
1, 37324, Note_on_c, 0, 62, 55
1, 37324, Note_on_c, 0, 38, 52
1, 37331, Note_on_c, 0, 57, 27
1, 37332, Note_on_c, 0, 38, 0
1, 37339, Note_on_c, 0, 57, 0
1, 37346, Note_on_c, 0, 50, 0
1, 37349, Note_on_c, 0, 62, 0
1, 37398, Control_c, 0, 64, 127
1, 37422, Control_c, 0, 64, 0
1, 37439, Note_on_c, 0, 64, 73
1, 37440, Note_on_c, 0, 67, 58
1, 37441, Note_on_c, 0, 71, 66
1, 37441, Note_on_c, 0, 60, 71
1, 37445, Note_on_c, 0, 55, 62
1, 37459, Note_on_c, 0, 60, 0
1, 37467, Note_on_c, 0, 71, 0
1, 37468, Note_on_c, 0, 55, 0
1, 37469, Note_on_c, 0, 67, 0
1, 37470, Note_on_c, 0, 64, 0
1, 37555, Note_on_c, 0, 67, 49
1, 37556, Note_on_c, 0, 64, 49
1, 37559, Note_on_c, 0, 52, 50
1, 37561, Note_on_c, 0, 60, 37
1, 37576, Note_on_c, 0, 60, 0
1, 37578, Note_on_c, 0, 52, 0
1, 37581, Note_on_c, 0, 64, 0
1, 37590, Note_on_c, 0, 67, 0
1, 37666, Note_on_c, 0, 49, 46
1, 37674, Note_on_c, 0, 50, 51
1, 37677, Note_on_c, 0, 69, 53
1, 37678, Note_on_c, 0, 63, 46
1, 37678, Note_on_c, 0, 66, 37
1, 37678, Note_on_c, 0, 60, 53
1, 37686, Note_on_c, 0, 49, 0
1, 37690, Note_on_c, 0, 60, 0
1, 37710, Note_on_c, 0, 69, 0
1, 37711, Note_on_c, 0, 63, 0
1, 37718, Note_on_c, 0, 66, 0
1, 37755, Note_on_c, 0, 62, 61
1, 37772, Note_on_c, 0, 62, 0
1, 37796, Note_on_c, 0, 64, 64
1, 37805, Note_on_c, 0, 50, 0
1, 37857, Note_on_c, 0, 64, 0
1, 37871, Note_on_c, 0, 66, 82
1, 37995, Note_on_c, 0, 64, 56
1, 38026, Note_on_c, 0, 64, 0
1, 38038, Note_on_c, 0, 62, 54
1, 38119, Note_on_c, 0, 62, 0
1, 38137, Note_on_c, 0, 66, 0
1, 38159, Note_on_c, 0, 62, 61
1, 38230, Control_c, 0, 64, 127
1, 38234, Control_c, 0, 64, 0
1, 38294, Control_c, 0, 64, 127
1, 38357, Note_on_c, 0, 50, 56
1, 38359, Note_on_c, 0, 49, 36
1, 38363, Control_c, 0, 64, 0
1, 38367, Note_on_c, 0, 49, 0
1, 38369, Note_on_c, 0, 50, 0
1, 38380, Note_on_c, 0, 62, 0
1, 38463, Note_on_c, 0, 62, 55
1, 38464, Note_on_c, 0, 50, 44
1, 38503, Note_on_c, 0, 62, 0
1, 38504, Note_on_c, 0, 50, 0
1, 38521, Note_on_c, 0, 64, 32
1, 38528, Note_on_c, 0, 52, 30
1, 38576, Note_on_c, 0, 64, 0
1, 38585, Note_on_c, 0, 54, 40
1, 38586, Note_on_c, 0, 66, 48
1, 38591, Note_on_c, 0, 52, 0
1, 38614, Note_on_c, 0, 54, 0
1, 38629, Note_on_c, 0, 66, 0
1, 38639, Note_on_c, 0, 55, 35
1, 38644, Note_on_c, 0, 67, 36
1, 38681, Note_on_c, 0, 55, 0
1, 38682, Note_on_c, 0, 67, 0
1, 38703, Note_on_c, 0, 69, 54
1, 38739, Note_on_c, 0, 69, 0
1, 38763, Note_on_c, 0, 71, 38
1, 38765, Note_on_c, 0, 59, 20
1, 38778, Note_on_c, 0, 59, 0
1, 38807, Note_on_c, 0, 71, 0
1, 38820, Note_on_c, 0, 60, 44
1, 38821, Note_on_c, 0, 72, 45
1, 38829, Note_on_c, 0, 60, 0
1, 38830, Control_c, 0, 64, 127
1, 38849, Note_on_c, 0, 72, 0
1, 38868, Control_c, 0, 64, 0
1, 38879, Note_on_c, 0, 74, 55
1, 38882, Note_on_c, 0, 62, 40
1, 38883, Note_on_c, 0, 67, 43
1, 38901, Note_on_c, 0, 67, 0
1, 38909, Note_on_c, 0, 74, 0
1, 38941, Note_on_c, 0, 62, 0
1, 38946, Note_on_c, 0, 64, 40
1, 38947, Note_on_c, 0, 50, 46
1, 38948, Note_on_c, 0, 71, 42
1, 38951, Note_on_c, 0, 67, 32
1, 38957, Note_on_c, 0, 50, 0
1, 38957, Note_on_c, 0, 64, 0
1, 38958, Note_on_c, 0, 67, 0
1, 38963, Note_on_c, 0, 71, 0
1, 39059, Note_on_c, 0, 74, 50
1, 39060, Note_on_c, 0, 62, 49
1, 39077, Note_on_c, 0, 62, 0
1, 39089, Note_on_c, 0, 74, 0
1, 39119, Note_on_c, 0, 70, 47
1, 39120, Note_on_c, 0, 62, 36
1, 39120, Note_on_c, 0, 66, 40
1, 39122, Note_on_c, 0, 54, 42
1, 39132, Note_on_c, 0, 62, 0
1, 39136, Note_on_c, 0, 66, 0
1, 39143, Note_on_c, 0, 70, 0
1, 39146, Note_on_c, 0, 54, 0
1, 39240, Note_on_c, 0, 62, 42
1, 39243, Note_on_c, 0, 74, 54
1, 39274, Note_on_c, 0, 74, 0
1, 39274, Note_on_c, 0, 62, 0
1, 39302, Note_on_c, 0, 71, 51
1, 39303, Note_on_c, 0, 62, 28
1, 39304, Note_on_c, 0, 67, 40
1, 39309, Note_on_c, 0, 50, 35
1, 39315, Note_on_c, 0, 67, 0
1, 39317, Note_on_c, 0, 62, 0
1, 39325, Note_on_c, 0, 71, 0
1, 39326, Note_on_c, 0, 50, 0
1, 39419, Note_on_c, 0, 74, 50
1, 39422, Note_on_c, 0, 62, 29
1, 39424, Note_on_c, 0, 67, 30
1, 39431, Note_on_c, 0, 62, 0
1, 39432, Note_on_c, 0, 67, 0
1, 39444, Note_on_c, 0, 74, 0
1, 39476, Note_on_c, 0, 70, 45
1, 39478, Note_on_c, 0, 66, 37
1, 39480, Note_on_c, 0, 62, 35
1, 39481, Note_on_c, 0, 54, 35
1, 39481, Note_on_c, 0, 60, 37
1, 39491, Note_on_c, 0, 62, 0
1, 39492, Note_on_c, 0, 60, 0
1, 39495, Note_on_c, 0, 66, 0
1, 39502, Note_on_c, 0, 54, 0
1, 39503, Note_on_c, 0, 70, 0
1, 39597, Note_on_c, 0, 62, 37
1, 39599, Note_on_c, 0, 74, 72
1, 39607, Note_on_c, 0, 62, 0
1, 39622, Note_on_c, 0, 74, 0
1, 39661, Note_on_c, 0, 71, 55
1, 39664, Note_on_c, 0, 62, 35
1, 39664, Note_on_c, 0, 67, 50
1, 39668, Note_on_c, 0, 50, 28
1, 39672, Note_on_c, 0, 67, 0
1, 39672, Note_on_c, 0, 62, 0
1, 39676, Note_on_c, 0, 50, 0
1, 39678, Note_on_c, 0, 71, 0
1, 39775, Note_on_c, 0, 74, 50
1, 39789, Note_on_c, 0, 74, 0
1, 39836, Note_on_c, 0, 69, 47
1, 39838, Note_on_c, 0, 66, 31
1, 39839, Note_on_c, 0, 62, 50
1, 39839, Note_on_c, 0, 57, 39
1, 39840, Note_on_c, 0, 54, 50
1, 39840, Note_on_c, 0, 59, 34
1, 39961, Control_c, 0, 64, 127
1, 39982, Note_on_c, 0, 57, 0
1, 39987, Note_on_c, 0, 62, 0
1, 39990, Note_on_c, 0, 59, 0
1, 39991, Note_on_c, 0, 69, 0
1, 40004, Note_on_c, 0, 54, 0
1, 40020, Note_on_c, 0, 66, 0
1, 40031, Note_on_c, 0, 51, 35
1, 40033, Note_on_c, 0, 50, 25
1, 40057, Note_on_c, 0, 54, 67
1, 40061, Note_on_c, 0, 50, 0
1, 40067, Control_c, 0, 64, 0
1, 40068, Note_on_c, 0, 60, 66
1, 40070, Note_on_c, 0, 55, 74
1, 40071, Note_on_c, 0, 65, 64
1, 40078, Note_on_c, 0, 54, 0
1, 40083, Note_on_c, 0, 70, 70
1, 40087, Note_on_c, 0, 51, 0
1, 40192, Control_c, 0, 64, 127
1, 40194, Note_on_c, 0, 65, 0
1, 40207, Note_on_c, 0, 70, 0
1, 40221, Note_on_c, 0, 60, 0
1, 40231, Note_on_c, 0, 55, 0
1, 40244, Note_on_c, 0, 51, 28
1, 40269, Note_on_c, 0, 59, 48
1, 40270, Note_on_c, 0, 66, 37
1, 40270, Note_on_c, 0, 62, 51
1, 40271, Note_on_c, 0, 54, 46
1, 40272, Control_c, 0, 64, 0
1, 40274, Note_on_c, 0, 69, 31
1, 40278, Note_on_c, 0, 51, 0
1, 40279, Note_on_c, 0, 59, 0
1, 40282, Note_on_c, 0, 62, 0
1, 40284, Note_on_c, 0, 54, 0
1, 40288, Note_on_c, 0, 69, 0
1, 40292, Note_on_c, 0, 66, 0
1, 40375, Note_on_c, 0, 67, 48
1, 40375, Note_on_c, 0, 66, 65
1, 40384, Note_on_c, 0, 64, 51
1, 40392, Note_on_c, 0, 67, 0
1, 40403, Note_on_c, 0, 64, 0
1, 40406, Note_on_c, 0, 62, 60
1, 40408, Note_on_c, 0, 66, 0
1, 40409, Note_on_c, 0, 50, 53
1, 40451, Note_on_c, 0, 50, 0
1, 40453, Note_on_c, 0, 62, 0
1, 40460, Note_on_c, 0, 64, 78
1, 40461, Note_on_c, 0, 52, 67
1, 40503, Note_on_c, 0, 64, 0
1, 40507, Note_on_c, 0, 54, 46
1, 40510, Note_on_c, 0, 52, 0
1, 40510, Note_on_c, 0, 66, 55
1, 40548, Note_on_c, 0, 66, 0
1, 40560, Note_on_c, 0, 55, 50
1, 40561, Note_on_c, 0, 67, 35
1, 40563, Note_on_c, 0, 54, 0
1, 40600, Note_on_c, 0, 67, 0
1, 40603, Note_on_c, 0, 55, 0
1, 40612, Note_on_c, 0, 57, 53
1, 40618, Note_on_c, 0, 69, 62
1, 40664, Note_on_c, 0, 59, 45
1, 40666, Note_on_c, 0, 57, 0
1, 40670, Note_on_c, 0, 69, 0
1, 40680, Note_on_c, 0, 71, 27
1, 40722, Note_on_c, 0, 71, 0
1, 40724, Note_on_c, 0, 59, 0
1, 40736, Note_on_c, 0, 72, 54
1, 40739, Note_on_c, 0, 60, 45
1, 40765, Note_on_c, 0, 72, 0
1, 40774, Note_on_c, 0, 60, 0
1, 40791, Note_on_c, 0, 62, 60
1, 40792, Note_on_c, 0, 74, 69
1, 40794, Note_on_c, 0, 64, 74
1, 40795, Note_on_c, 0, 67, 66
1, 40795, Note_on_c, 0, 71, 54
1, 40824, Note_on_c, 0, 64, 0
1, 40825, Note_on_c, 0, 71, 0
1, 40826, Note_on_c, 0, 67, 0
1, 40830, Note_on_c, 0, 74, 0
1, 40844, Note_on_c, 0, 62, 0
1, 40860, Note_on_c, 0, 50, 57
1, 40867, Note_on_c, 0, 71, 51
1, 40875, Note_on_c, 0, 50, 0
1, 40889, Note_on_c, 0, 71, 0
1, 40979, Note_on_c, 0, 62, 46
1, 40980, Note_on_c, 0, 74, 51
1, 40982, Note_on_c, 0, 67, 39
1, 40996, Note_on_c, 0, 67, 0
1, 40999, Note_on_c, 0, 62, 0
1, 41008, Note_on_c, 0, 74, 0
1, 41035, Note_on_c, 0, 70, 40
1, 41037, Note_on_c, 0, 54, 45
1, 41037, Note_on_c, 0, 66, 32
1, 41039, Note_on_c, 0, 62, 34
1, 41056, Note_on_c, 0, 62, 0
1, 41056, Note_on_c, 0, 66, 0
1, 41063, Note_on_c, 0, 54, 0
1, 41064, Note_on_c, 0, 70, 0
1, 41147, Note_on_c, 0, 74, 49
1, 41148, Note_on_c, 0, 62, 31
1, 41151, Note_on_c, 0, 66, 26
1, 41171, Note_on_c, 0, 66, 0
1, 41173, Note_on_c, 0, 62, 0
1, 41187, Note_on_c, 0, 74, 0
1, 41214, Note_on_c, 0, 50, 40
1, 41215, Note_on_c, 0, 71, 44
1, 41217, Note_on_c, 0, 67, 38
1, 41221, Note_on_c, 0, 62, 18
1, 41226, Note_on_c, 0, 50, 0
1, 41230, Note_on_c, 0, 62, 0
1, 41234, Note_on_c, 0, 67, 0
1, 41239, Note_on_c, 0, 71, 0
1, 41333, Note_on_c, 0, 62, 44
1, 41333, Note_on_c, 0, 74, 66
1, 41348, Note_on_c, 0, 62, 0
1, 41356, Note_on_c, 0, 74, 0
1, 41386, Note_on_c, 0, 70, 53
1, 41388, Note_on_c, 0, 66, 42
1, 41388, Note_on_c, 0, 50, 41
1, 41390, Note_on_c, 0, 62, 38
1, 41399, Note_on_c, 0, 62, 0
1, 41399, Note_on_c, 0, 50, 0
1, 41403, Note_on_c, 0, 66, 0
1, 41410, Note_on_c, 0, 70, 0
1, 41509, Note_on_c, 0, 74, 70
1, 41510, Note_on_c, 0, 62, 34
1, 41521, Note_on_c, 0, 62, 0
1, 41534, Note_on_c, 0, 74, 0
1, 41574, Note_on_c, 0, 71, 53
1, 41579, Note_on_c, 0, 67, 42
1, 41586, Note_on_c, 0, 67, 0
1, 41596, Note_on_c, 0, 71, 0
1, 41693, Note_on_c, 0, 74, 58
1, 41695, Note_on_c, 0, 67, 56
1, 41701, Note_on_c, 0, 62, 26
1, 41702, Note_on_c, 0, 67, 0
1, 41702, Note_on_c, 0, 64, 28
1, 41708, Note_on_c, 0, 62, 0
1, 41708, Note_on_c, 0, 74, 0
1, 41709, Note_on_c, 0, 64, 0
1, 41741, Note_on_c, 0, 51, 30
1, 41749, Note_on_c, 0, 51, 0
1, 41757, Note_on_c, 0, 59, 49
1, 41758, Note_on_c, 0, 62, 46
1, 41758, Note_on_c, 0, 69, 53
1, 41759, Note_on_c, 0, 66, 29
1, 41764, Note_on_c, 0, 54, 51
1, 41777, Note_on_c, 0, 59, 0
1, 41780, Note_on_c, 0, 62, 0
1, 41782, Note_on_c, 0, 69, 0
1, 41790, Note_on_c, 0, 66, 0
1, 41790, Note_on_c, 0, 54, 0
1, 41816, Note_on_c, 0, 54, 37
1, 41819, Note_on_c, 0, 66, 31
1, 41822, Note_on_c, 0, 59, 34
1, 41822, Note_on_c, 0, 69, 30
1, 41824, Note_on_c, 0, 62, 37
1, 41836, Note_on_c, 0, 62, 0
1, 41836, Note_on_c, 0, 59, 0
1, 41839, Note_on_c, 0, 54, 0
1, 41840, Note_on_c, 0, 69, 0
1, 41846, Note_on_c, 0, 66, 0
1, 41876, Note_on_c, 0, 54, 47
1, 41878, Note_on_c, 0, 66, 44
1, 41879, Note_on_c, 0, 69, 48
1, 41880, Note_on_c, 0, 59, 44
1, 41882, Note_on_c, 0, 62, 40
1, 41888, Note_on_c, 0, 59, 0
1, 41890, Note_on_c, 0, 62, 0
1, 41893, Note_on_c, 0, 54, 0
1, 41895, Note_on_c, 0, 69, 0
1, 41899, Note_on_c, 0, 66, 0
1, 42001, Note_on_c, 0, 70, 69
1, 42002, Note_on_c, 0, 65, 69
1, 42002, Note_on_c, 0, 60, 60
1, 42005, Note_on_c, 0, 55, 68
1, 42049, Control_c, 0, 64, 127
1, 42056, Note_on_c, 0, 55, 0
1, 42057, Note_on_c, 0, 60, 0
1, 42057, Note_on_c, 0, 70, 0
1, 42062, Note_on_c, 0, 65, 0
1, 42071, Note_on_c, 0, 70, 62
1, 42071, Note_on_c, 0, 65, 34
1, 42073, Note_on_c, 0, 55, 59
1, 42076, Note_on_c, 0, 60, 47
1, 42097, Control_c, 0, 64, 0
1, 42099, Note_on_c, 0, 55, 0
1, 42099, Note_on_c, 0, 65, 0
1, 42101, Note_on_c, 0, 60, 0
1, 42105, Note_on_c, 0, 70, 0
1, 42129, Control_c, 0, 64, 127
1, 42189, Note_on_c, 0, 66, 43
1, 42190, Note_on_c, 0, 69, 51
1, 42190, Note_on_c, 0, 54, 44
1, 42190, Note_on_c, 0, 62, 47
1, 42191, Control_c, 0, 64, 0
1, 42210, Note_on_c, 0, 62, 0
1, 42214, Note_on_c, 0, 69, 0
1, 42215, Note_on_c, 0, 66, 0
1, 42224, Note_on_c, 0, 54, 0
1, 42308, Note_on_c, 0, 50, 48
1, 42310, Note_on_c, 0, 62, 57
1, 42343, Note_on_c, 0, 62, 0
1, 42361, Note_on_c, 0, 69, 73
1, 42375, Note_on_c, 0, 59, 20
1, 42393, Note_on_c, 0, 59, 0
1, 42411, Note_on_c, 0, 69, 0
1, 42414, Note_on_c, 0, 50, 0
1, 42421, Note_on_c, 0, 54, 43
1, 42424, Note_on_c, 0, 66, 35
1, 42434, Control_c, 0, 64, 127
1, 42458, Control_c, 0, 64, 0
1, 42468, Note_on_c, 0, 66, 0
1, 42477, Note_on_c, 0, 67, 56
1, 42483, Note_on_c, 0, 55, 53
1, 42520, Control_c, 0, 64, 127
1, 42522, Note_on_c, 0, 67, 0
1, 42528, Note_on_c, 0, 55, 0
1, 42537, Note_on_c, 0, 54, 0
1, 42538, Note_on_c, 0, 57, 62
1, 42538, Note_on_c, 0, 69, 73
1, 42573, Control_c, 0, 64, 0
1, 42584, Note_on_c, 0, 69, 0
1, 42588, Note_on_c, 0, 57, 0
1, 42595, Control_c, 0, 64, 127
1, 42595, Note_on_c, 0, 59, 53
1, 42603, Note_on_c, 0, 72, 32
1, 42615, Note_on_c, 0, 72, 0
1, 42651, Control_c, 0, 64, 0
1, 42653, Note_on_c, 0, 59, 0
1, 42656, Note_on_c, 0, 74, 48
1, 42657, Control_c, 0, 64, 127
1, 42657, Note_on_c, 0, 62, 45
1, 42667, Note_on_c, 0, 74, 0
1, 42676, Note_on_c, 0, 62, 0
1, 42718, Note_on_c, 0, 79, 68
1, 42719, Control_c, 0, 64, 0
1, 42720, Note_on_c, 0, 69, 68
1, 42721, Note_on_c, 0, 64, 50
1, 42722, Note_on_c, 0, 76, 39
1, 42723, Note_on_c, 0, 72, 60
1, 42749, Note_on_c, 0, 64, 0
1, 42750, Note_on_c, 0, 76, 0
1, 42758, Note_on_c, 0, 72, 0
1, 42763, Note_on_c, 0, 69, 0
1, 42765, Control_c, 0, 64, 127
1, 42773, Note_on_c, 0, 79, 0
1, 42781, Control_c, 0, 64, 0
1, 42786, Note_on_c, 0, 53, 53
1, 42791, Note_on_c, 0, 76, 58
1, 42803, Note_on_c, 0, 53, 0
1, 42810, Note_on_c, 0, 76, 0
1, 42891, Control_c, 0, 64, 127
1, 42894, Note_on_c, 0, 43, 57
1, 42897, Note_on_c, 0, 79, 74
1, 42902, Note_on_c, 0, 43, 0
1, 42925, Note_on_c, 0, 79, 0
1, 42948, Control_c, 0, 64, 0
1, 42956, Note_on_c, 0, 75, 52
1, 42961, Note_on_c, 0, 67, 33
1, 42961, Note_on_c, 0, 59, 45
1, 42961, Note_on_c, 0, 64, 56
1, 42968, Note_on_c, 0, 64, 0
1, 42972, Note_on_c, 0, 67, 0
1, 42979, Note_on_c, 0, 59, 0
1, 42984, Note_on_c, 0, 75, 0
1, 43077, Note_on_c, 0, 50, 62
1, 43080, Note_on_c, 0, 79, 72
1, 43099, Note_on_c, 0, 50, 0
1, 43108, Control_c, 0, 64, 127
1, 43119, Note_on_c, 0, 79, 0
1, 43150, Control_c, 0, 64, 0
1, 43152, Note_on_c, 0, 76, 53
1, 43153, Note_on_c, 0, 67, 53
1, 43154, Note_on_c, 0, 58, 40
1, 43156, Note_on_c, 0, 72, 42
1, 43160, Note_on_c, 0, 67, 0
1, 43161, Note_on_c, 0, 58, 0
1, 43164, Note_on_c, 0, 72, 0
1, 43174, Note_on_c, 0, 76, 0
1, 43263, Note_on_c, 0, 50, 51
1, 43266, Note_on_c, 0, 79, 74
1, 43268, Control_c, 0, 64, 127
1, 43290, Note_on_c, 0, 50, 0
1, 43291, Note_on_c, 0, 79, 0
1, 43301, Control_c, 0, 64, 0
1, 43321, Note_on_c, 0, 75, 60
1, 43322, Note_on_c, 0, 43, 47
1, 43329, Note_on_c, 0, 71, 29
1, 43330, Note_on_c, 0, 43, 0
1, 43338, Note_on_c, 0, 71, 0
1, 43350, Note_on_c, 0, 75, 0
1, 43393, Control_c, 0, 64, 127
1, 43427, Control_c, 0, 64, 0
1, 43438, Note_on_c, 0, 63, 67
1, 43438, Note_on_c, 0, 59, 64
1, 43440, Note_on_c, 0, 79, 80
1, 43441, Note_on_c, 0, 53, 54
1, 43473, Control_c, 0, 64, 127
1, 43525, Control_c, 0, 64, 0
1, 43551, Control_c, 0, 64, 127
1, 43562, Note_on_c, 0, 63, 0
1, 43578, Note_on_c, 0, 59, 0
1, 43593, Note_on_c, 0, 53, 0
1, 43607, Note_on_c, 0, 79, 0
1, 43634, Note_on_c, 0, 75, 43
1, 43657, Note_on_c, 0, 75, 0
1, 43670, Note_on_c, 0, 79, 66
1, 43691, Note_on_c, 0, 79, 0
1, 43698, Control_c, 0, 64, 0
1, 43707, Note_on_c, 0, 48, 45
1, 43728, Control_c, 0, 64, 127
1, 43755, Note_on_c, 0, 48, 0
1, 43766, Note_on_c, 0, 74, 61
1, 43770, Note_on_c, 0, 67, 57
1, 43771, Note_on_c, 0, 63, 42
1, 43773, Note_on_c, 0, 70, 37
1, 43778, Note_on_c, 0, 62, 46
1, 43788, Control_c, 0, 64, 0
1, 43863, Note_on_c, 0, 62, 0
1, 43872, Note_on_c, 0, 61, 67
1, 43892, Control_c, 0, 64, 127
1, 43896, Control_c, 0, 64, 0
1, 43912, Note_on_c, 0, 61, 0
1, 43937, Note_on_c, 0, 60, 45
1, 43938, Control_c, 0, 64, 127
1, 43972, Note_on_c, 0, 60, 0
1, 44002, Note_on_c, 0, 63, 0
1, 44015, Note_on_c, 0, 67, 0
1, 44036, Note_on_c, 0, 74, 0
1, 44041, Note_on_c, 0, 67, 46
1, 44043, Note_on_c, 0, 63, 40
1, 44090, Note_on_c, 0, 63, 0
1, 44093, Note_on_c, 0, 67, 0
1, 44101, Note_on_c, 0, 48, 48
1, 44129, Note_on_c, 0, 48, 0
1, 44141, Note_on_c, 0, 70, 0
1, 44143, Control_c, 0, 64, 0
1, 44159, Note_on_c, 0, 41, 50
1, 44166, Note_on_c, 0, 41, 0
1, 44169, Control_c, 0, 64, 127
1, 44226, Note_on_c, 0, 77, 82
1, 44267, Note_on_c, 0, 77, 0
1, 44286, Note_on_c, 0, 74, 40
1, 44299, Note_on_c, 0, 74, 0
1, 44346, Note_on_c, 0, 77, 72
1, 44361, Note_on_c, 0, 77, 0
1, 44402, Control_c, 0, 64, 0
1, 44408, Note_on_c, 0, 73, 37
1, 44411, Note_on_c, 0, 51, 40
1, 44412, Note_on_c, 0, 65, 32
1, 44420, Note_on_c, 0, 65, 0
1, 44424, Note_on_c, 0, 51, 0
1, 44424, Note_on_c, 0, 73, 0
1, 44468, Control_c, 0, 64, 127
1, 44482, Note_on_c, 0, 73, 37
1, 44484, Control_c, 0, 64, 0
1, 44485, Note_on_c, 0, 61, 30
1, 44486, Note_on_c, 0, 68, 36
1, 44486, Note_on_c, 0, 65, 49
1, 44487, Note_on_c, 0, 57, 47
1, 44489, Note_on_c, 0, 51, 29
1, 44524, Control_c, 0, 64, 127
1, 44555, Note_on_c, 0, 57, 0
1, 44557, Note_on_c, 0, 51, 0
1, 44560, Note_on_c, 0, 65, 0
1, 44565, Note_on_c, 0, 61, 0
1, 44573, Note_on_c, 0, 68, 0
1, 44583, Note_on_c, 0, 73, 0
1, 44641, Note_on_c, 0, 74, 69
1, 44642, Control_c, 0, 64, 0
1, 44643, Note_on_c, 0, 62, 50
1, 44644, Note_on_c, 0, 64, 54
1, 44647, Note_on_c, 0, 67, 45
1, 44680, Note_on_c, 0, 64, 0
1, 44691, Note_on_c, 0, 74, 0
1, 44695, Note_on_c, 0, 67, 0
1, 44709, Note_on_c, 0, 71, 50
1, 44709, Note_on_c, 0, 50, 44
1, 44714, Note_on_c, 0, 62, 0
1, 44719, Note_on_c, 0, 50, 0
1, 44727, Note_on_c, 0, 71, 0
1, 44763, Control_c, 0, 64, 127
1, 44787, Control_c, 0, 64, 0
1, 44825, Note_on_c, 0, 74, 68
1, 44827, Note_on_c, 0, 62, 35
1, 44839, Note_on_c, 0, 62, 0
1, 44847, Control_c, 0, 64, 127
1, 44859, Note_on_c, 0, 74, 0
1, 44871, Control_c, 0, 64, 0
1, 44882, Note_on_c, 0, 70, 47
1, 44882, Note_on_c, 0, 62, 37
1, 44884, Note_on_c, 0, 66, 43
1, 44884, Note_on_c, 0, 50, 35
1, 44895, Note_on_c, 0, 50, 0
1, 44898, Note_on_c, 0, 62, 0
1, 44901, Note_on_c, 0, 66, 0
1, 44907, Note_on_c, 0, 70, 0
1, 44998, Note_on_c, 0, 74, 61
1, 45001, Note_on_c, 0, 62, 36
1, 45043, Note_on_c, 0, 62, 0
1, 45047, Note_on_c, 0, 74, 0
1, 45059, Note_on_c, 0, 64, 45
1, 45061, Note_on_c, 0, 71, 40
1, 45063, Note_on_c, 0, 67, 36
1, 45063, Note_on_c, 0, 50, 41
1, 45068, Note_on_c, 0, 64, 0
1, 45070, Note_on_c, 0, 67, 0
1, 45072, Note_on_c, 0, 50, 0
1, 45075, Note_on_c, 0, 71, 0
1, 45174, Note_on_c, 0, 74, 65
1, 45174, Note_on_c, 0, 62, 47
1, 45197, Note_on_c, 0, 62, 0
1, 45205, Note_on_c, 0, 74, 0
1, 45230, Note_on_c, 0, 70, 46
1, 45230, Note_on_c, 0, 66, 39
1, 45232, Note_on_c, 0, 50, 43
1, 45233, Note_on_c, 0, 62, 35
1, 45240, Note_on_c, 0, 62, 0
1, 45242, Note_on_c, 0, 50, 0
1, 45245, Note_on_c, 0, 66, 0
1, 45250, Note_on_c, 0, 70, 0
1, 45359, Note_on_c, 0, 74, 65
1, 45361, Note_on_c, 0, 62, 41
1, 45404, Note_on_c, 0, 74, 0
1, 45411, Note_on_c, 0, 62, 0
1, 45425, Note_on_c, 0, 64, 43
1, 45425, Note_on_c, 0, 71, 57
1, 45426, Note_on_c, 0, 67, 54
1, 45432, Note_on_c, 0, 50, 33
1, 45436, Note_on_c, 0, 67, 0
1, 45436, Note_on_c, 0, 64, 0
1, 45441, Note_on_c, 0, 50, 0
1, 45444, Note_on_c, 0, 71, 0
1, 45471, Control_c, 0, 64, 127
1, 45521, Control_c, 0, 64, 0
1, 45535, Note_on_c, 0, 74, 54
1, 45544, Note_on_c, 0, 74, 0
1, 45545, Control_c, 0, 64, 127
1, 45599, Control_c, 0, 64, 0
1, 45600, Note_on_c, 0, 69, 45
1, 45600, Note_on_c, 0, 62, 44
1, 45602, Note_on_c, 0, 66, 35
1, 45603, Note_on_c, 0, 54, 37
1, 45603, Note_on_c, 0, 43, 41
1, 45603, Note_on_c, 0, 57, 30
1, 45605, Note_on_c, 0, 59, 29
1, 45639, Control_c, 0, 64, 127
1, 45673, Note_on_c, 0, 57, 0
1, 45676, Note_on_c, 0, 59, 0
1, 45679, Note_on_c, 0, 62, 0
1, 45682, Note_on_c, 0, 43, 0
1, 45688, Note_on_c, 0, 66, 0
1, 45697, Note_on_c, 0, 54, 0
1, 45699, Note_on_c, 0, 69, 0
1, 46020, Note_on_c, 0, 93, 65
1, 46025, Note_on_c, 0, 90, 57
1, 46028, Note_on_c, 0, 78, 47
1, 46030, Note_on_c, 0, 86, 61
1, 46033, Note_on_c, 0, 81, 46
1, 46036, Note_on_c, 0, 83, 43
1, 46043, Note_on_c, 0, 83, 0
1, 46140, Note_on_c, 0, 86, 0
1, 46141, Note_on_c, 0, 81, 0
1, 46147, Note_on_c, 0, 90, 0
1, 46151, Note_on_c, 0, 93, 0
1, 46154, Note_on_c, 0, 78, 0
1, 46319, Control_c, 0, 64, 0
1, 46319, End_track
0, 0, End_of_file
