0, 0, Header, 1, 7, 120
1, 0, Start_track
1, 0, Title_t, "PeopleWillSayWe'reInLove"
1, 0, Text_t, "dougmck@pipeline.com.au. From 'Oaklahoma' - Rodgers and Hammerstein. \012"
1, 0, Time_signature, 3, 2, 24, 8
1, 0, Key_signature, 2, "major"
1, 0, Tempo, 545455
1, 0, Marker_t, "People Will Say We're in Love - sequence by Doug McKenzie"
1, 0, End_track
2, 0, Start_track
2, 0, Title_t, "Acoustic or Rhodes"
2, 0, Program_c, 0, 4
2, 0, Control_c, 0, 64, 127
2, 0, Control_c, 0, 64, 0
2, 0, Control_c, 0, 64, 127
2, 0, Control_c, 0, 64, 0
2, 0, Note_on_c, 0, 61, 20
2, 0, Note_on_c, 0, 73, 38
2, 0, Note_on_c, 0, 54, 27
2, 3, Note_on_c, 0, 64, 24
2, 7, Note_on_c, 0, 59, 26
2, 12, Note_on_c, 0, 73, 0
2, 14, Note_on_c, 0, 74, 54
2, 29, Control_c, 0, 64, 127
2, 75, Note_on_c, 0, 59, 0
2, 76, Note_on_c, 0, 64, 0
2, 83, Note_on_c, 0, 61, 0
2, 83, Note_on_c, 0, 54, 0
2, 96, Note_on_c, 0, 74, 0
2, 105, Note_on_c, 0, 81, 74
2, 105, Note_on_c, 0, 61, 32
2, 105, Note_on_c, 0, 54, 30
2, 106, Note_on_c, 0, 64, 34
2, 109, Note_on_c, 0, 59, 50
2, 224, Note_on_c, 0, 64, 0
2, 231, Note_on_c, 0, 61, 0
2, 232, Note_on_c, 0, 59, 0
2, 364, Note_on_c, 0, 61, 18
2, 365, Note_on_c, 0, 64, 26
2, 365, Note_on_c, 0, 73, 20
2, 366, Note_on_c, 0, 69, 34
2, 375, Note_on_c, 0, 59, 14
2, 376, Control_c, 0, 64, 0
2, 389, Note_on_c, 0, 81, 0
2, 403, Control_c, 0, 64, 127
2, 447, Note_on_c, 0, 64, 0
2, 449, Note_on_c, 0, 61, 0
2, 450, Note_on_c, 0, 69, 0
2, 453, Note_on_c, 0, 59, 0
2, 462, Note_on_c, 0, 73, 0
2, 508, Note_on_c, 0, 54, 0
2, 608, Note_on_c, 0, 83, 91
2, 612, Note_on_c, 0, 61, 59
2, 613, Note_on_c, 0, 71, 92
2, 615, Note_on_c, 0, 64, 60
2, 616, Note_on_c, 0, 59, 53
2, 618, Control_c, 0, 64, 0
2, 632, Note_on_c, 0, 64, 0
2, 639, Control_c, 0, 64, 127
2, 640, Note_on_c, 0, 61, 0
2, 641, Note_on_c, 0, 59, 0
2, 665, Note_on_c, 0, 71, 0
2, 668, Note_on_c, 0, 83, 0
2, 728, Note_on_c, 0, 85, 63
2, 731, Control_c, 0, 64, 0
2, 732, Note_on_c, 0, 61, 31
2, 734, Note_on_c, 0, 73, 49
2, 736, Note_on_c, 0, 64, 38
2, 736, Note_on_c, 0, 54, 36
2, 737, Note_on_c, 0, 59, 45
2, 755, Control_c, 0, 64, 127
2, 772, Note_on_c, 0, 85, 0
2, 784, Note_on_c, 0, 64, 0
2, 784, Note_on_c, 0, 73, 0
2, 793, Note_on_c, 0, 61, 0
2, 814, Note_on_c, 0, 59, 0
2, 873, Note_on_c, 0, 54, 0
2, 921, Note_on_c, 0, 66, 57
2, 999, Note_on_c, 0, 61, 32
2, 1000, Note_on_c, 0, 57, 37
2, 1002, Note_on_c, 0, 64, 42
2, 1013, Control_c, 0, 64, 0
2, 1014, Note_on_c, 0, 57, 0
2, 1016, Note_on_c, 0, 64, 0
2, 1016, Note_on_c, 0, 61, 0
2, 1083, Note_on_c, 0, 57, 48
2, 1084, Note_on_c, 0, 61, 38
2, 1085, Note_on_c, 0, 64, 46
2, 1093, Note_on_c, 0, 57, 0
2, 1097, Note_on_c, 0, 61, 0
2, 1102, Note_on_c, 0, 64, 0
2, 1169, Note_on_c, 0, 57, 44
2, 1169, Note_on_c, 0, 61, 39
2, 1173, Note_on_c, 0, 64, 39
2, 1184, Note_on_c, 0, 57, 0
2, 1186, Note_on_c, 0, 61, 0
2, 1189, Note_on_c, 0, 64, 0
2, 1261, Note_on_c, 0, 61, 42
2, 1263, Note_on_c, 0, 57, 37
2, 1268, Note_on_c, 0, 64, 24
2, 1271, Note_on_c, 0, 57, 0
2, 1277, Note_on_c, 0, 64, 0
2, 1277, Note_on_c, 0, 61, 0
2, 1295, Control_c, 0, 64, 127
2, 1355, Note_on_c, 0, 61, 48
2, 1358, Note_on_c, 0, 57, 39
2, 1361, Note_on_c, 0, 64, 38
2, 1368, Note_on_c, 0, 57, 0
2, 1384, Note_on_c, 0, 61, 0
2, 1405, Note_on_c, 0, 64, 0
2, 1430, Note_on_c, 0, 66, 0
2, 1447, Control_c, 0, 64, 0
2, 1448, Note_on_c, 0, 61, 30
2, 1448, Note_on_c, 0, 54, 34
2, 1448, Note_on_c, 0, 62, 65
2, 1452, Note_on_c, 0, 59, 55
2, 1478, Control_c, 0, 64, 127
2, 1499, Note_on_c, 0, 62, 0
2, 1507, Note_on_c, 0, 59, 0
2, 1508, Note_on_c, 0, 61, 0
2, 1538, Note_on_c, 0, 61, 39
2, 1540, Note_on_c, 0, 64, 40
2, 1552, Note_on_c, 0, 64, 0
2, 1559, Note_on_c, 0, 54, 0
2, 1563, Note_on_c, 0, 61, 0
2, 1626, Note_on_c, 0, 81, 81
2, 1627, Note_on_c, 0, 69, 83
2, 1628, Note_on_c, 0, 61, 65
2, 1628, Note_on_c, 0, 64, 79
2, 1629, Note_on_c, 0, 54, 67
2, 1630, Note_on_c, 0, 59, 72
2, 1634, Control_c, 0, 64, 0
2, 1668, Control_c, 0, 64, 127
2, 1713, Note_on_c, 0, 64, 0
2, 1719, Note_on_c, 0, 61, 0
2, 1726, Note_on_c, 0, 59, 0
2, 1779, Note_on_c, 0, 54, 0
2, 1802, Note_on_c, 0, 54, 51
2, 1811, Control_c, 0, 64, 0
2, 1832, Control_c, 0, 64, 127
2, 1886, Note_on_c, 0, 69, 0
2, 1887, Note_on_c, 0, 61, 42
2, 1891, Note_on_c, 0, 59, 34
2, 1902, Note_on_c, 0, 81, 0
2, 1912, Note_on_c, 0, 59, 0
2, 1916, Note_on_c, 0, 61, 0
2, 1964, Note_on_c, 0, 54, 0
2, 2042, Note_on_c, 0, 56, 65
2, 2043, Note_on_c, 0, 59, 77
2, 2043, Note_on_c, 0, 83, 88
2, 2043, Note_on_c, 0, 80, 71
2, 2043, Note_on_c, 0, 53, 73
2, 2044, Note_on_c, 0, 76, 90
2, 2044, Note_on_c, 0, 71, 91
2, 2044, Note_on_c, 0, 62, 79
2, 2046, Control_c, 0, 64, 0
2, 2050, Note_on_c, 0, 79, 40
2, 2053, Note_on_c, 0, 81, 28
2, 2058, Note_on_c, 0, 79, 0
2, 2062, Note_on_c, 0, 81, 0
2, 2075, Note_on_c, 0, 80, 0
2, 2077, Control_c, 0, 64, 127
2, 2091, Note_on_c, 0, 59, 0
2, 2093, Note_on_c, 0, 83, 0
2, 2095, Note_on_c, 0, 53, 0
2, 2096, Note_on_c, 0, 62, 0
2, 2097, Note_on_c, 0, 56, 0
2, 2101, Note_on_c, 0, 76, 0
2, 2105, Note_on_c, 0, 71, 0
2, 2165, Note_on_c, 0, 73, 45
2, 2166, Note_on_c, 0, 61, 59
2, 2166, Control_c, 0, 64, 0
2, 2167, Note_on_c, 0, 79, 60
2, 2167, Note_on_c, 0, 55, 66
2, 2168, Note_on_c, 0, 76, 52
2, 2168, Note_on_c, 0, 67, 62
2, 2176, Note_on_c, 0, 77, 25
2, 2193, Control_c, 0, 64, 127
2, 2194, Note_on_c, 0, 76, 0
2, 2202, Note_on_c, 0, 79, 0
2, 2203, Note_on_c, 0, 73, 0
2, 2205, Note_on_c, 0, 77, 0
2, 2214, Note_on_c, 0, 67, 0
2, 2225, Note_on_c, 0, 61, 0
2, 2254, Note_on_c, 0, 73, 37
2, 2256, Note_on_c, 0, 61, 36
2, 2256, Note_on_c, 0, 69, 51
2, 2257, Note_on_c, 0, 64, 47
2, 2258, Control_c, 0, 64, 0
2, 2281, Control_c, 0, 64, 127
2, 2294, Note_on_c, 0, 61, 0
2, 2309, Note_on_c, 0, 55, 0
2, 2322, Note_on_c, 0, 64, 0
2, 2325, Note_on_c, 0, 73, 0
2, 2328, Note_on_c, 0, 69, 0
2, 2346, Note_on_c, 0, 69, 48
2, 2347, Note_on_c, 0, 73, 30
2, 2349, Note_on_c, 0, 64, 46
2, 2447, Note_on_c, 0, 62, 80
2, 2453, Control_c, 0, 64, 0
2, 2500, Control_c, 0, 64, 127
2, 2546, Note_on_c, 0, 64, 0
2, 2558, Note_on_c, 0, 69, 0
2, 2600, Note_on_c, 0, 62, 0
2, 2629, Note_on_c, 0, 69, 45
2, 2631, Note_on_c, 0, 64, 35
2, 2634, Note_on_c, 0, 62, 33
2, 2683, Note_on_c, 0, 69, 0
2, 2687, Note_on_c, 0, 62, 0
2, 2693, Note_on_c, 0, 64, 0
2, 2728, Note_on_c, 0, 69, 41
2, 2731, Note_on_c, 0, 64, 28
2, 2733, Note_on_c, 0, 62, 37
2, 2773, Note_on_c, 0, 69, 0
2, 2776, Note_on_c, 0, 62, 0
2, 2779, Note_on_c, 0, 64, 0
2, 2811, Note_on_c, 0, 61, 33
2, 2836, Note_on_c, 0, 73, 0
2, 2848, Note_on_c, 0, 61, 0
2, 2873, Note_on_c, 0, 61, 35
2, 2877, Note_on_c, 0, 64, 35
2, 2878, Note_on_c, 0, 74, 60
2, 2878, Note_on_c, 0, 54, 33
2, 2879, Control_c, 0, 64, 0
2, 2884, Note_on_c, 0, 59, 22
2, 2900, Control_c, 0, 64, 127
2, 2903, Note_on_c, 0, 74, 0
2, 2922, Note_on_c, 0, 61, 0
2, 2923, Note_on_c, 0, 64, 0
2, 2933, Note_on_c, 0, 59, 0
2, 2963, Note_on_c, 0, 61, 40
2, 2964, Note_on_c, 0, 81, 74
2, 2964, Note_on_c, 0, 64, 44
2, 2965, Note_on_c, 0, 59, 33
2, 2971, Control_c, 0, 64, 0
2, 2982, Control_c, 0, 64, 127
2, 3015, Note_on_c, 0, 64, 0
2, 3018, Note_on_c, 0, 59, 0
2, 3021, Note_on_c, 0, 61, 0
2, 3054, Note_on_c, 0, 61, 31
2, 3074, Note_on_c, 0, 61, 0
2, 3122, Note_on_c, 0, 69, 34
2, 3123, Note_on_c, 0, 64, 27
2, 3123, Note_on_c, 0, 61, 31
2, 3140, Note_on_c, 0, 69, 0
2, 3158, Note_on_c, 0, 54, 0
2, 3181, Note_on_c, 0, 54, 39
2, 3190, Note_on_c, 0, 61, 0
2, 3195, Note_on_c, 0, 64, 0
2, 3204, Note_on_c, 0, 54, 0
2, 3241, Note_on_c, 0, 74, 56
2, 3242, Note_on_c, 0, 69, 47
2, 3243, Note_on_c, 0, 81, 0
2, 3245, Note_on_c, 0, 62, 40
2, 3247, Note_on_c, 0, 66, 37
2, 3249, Note_on_c, 0, 57, 49
2, 3251, Control_c, 0, 64, 0
2, 3285, Control_c, 0, 64, 127
2, 3297, Note_on_c, 0, 57, 0
2, 3319, Note_on_c, 0, 69, 0
2, 3334, Note_on_c, 0, 57, 48
2, 3337, Note_on_c, 0, 74, 0
2, 3366, Note_on_c, 0, 57, 0
2, 3381, Note_on_c, 0, 62, 0
2, 3389, Note_on_c, 0, 66, 0
2, 3421, Note_on_c, 0, 83, 110
2, 3424, Control_c, 0, 64, 0
2, 3435, Note_on_c, 0, 83, 0
2, 3450, Note_on_c, 0, 83, 82
2, 3465, Note_on_c, 0, 83, 0
2, 3477, Note_on_c, 0, 66, 46
2, 3478, Note_on_c, 0, 85, 76
2, 3482, Note_on_c, 0, 62, 33
2, 3484, Note_on_c, 0, 57, 30
2, 3489, Note_on_c, 0, 85, 0
2, 3491, Note_on_c, 0, 66, 0
2, 3491, Note_on_c, 0, 62, 0
2, 3493, Note_on_c, 0, 57, 0
2, 3536, Note_on_c, 0, 86, 68
2, 3537, Note_on_c, 0, 66, 42
2, 3543, Note_on_c, 0, 57, 27
2, 3548, Note_on_c, 0, 86, 0
2, 3552, Note_on_c, 0, 57, 0
2, 3552, Note_on_c, 0, 66, 0
2, 3599, Note_on_c, 0, 62, 28
2, 3600, Note_on_c, 0, 86, 59
2, 3601, Note_on_c, 0, 56, 35
2, 3606, Control_c, 0, 64, 127
2, 3653, Note_on_c, 0, 62, 0
2, 3687, Note_on_c, 0, 80, 43
2, 3691, Note_on_c, 0, 67, 37
2, 3692, Note_on_c, 0, 62, 40
2, 3695, Control_c, 0, 64, 0
2, 3722, Control_c, 0, 64, 127
2, 3731, Note_on_c, 0, 67, 0
2, 3739, Note_on_c, 0, 62, 0
2, 3753, Note_on_c, 0, 80, 0
2, 3786, Note_on_c, 0, 80, 37
2, 3789, Note_on_c, 0, 67, 34
2, 3790, Note_on_c, 0, 86, 0
2, 3790, Note_on_c, 0, 62, 38
2, 3798, Note_on_c, 0, 67, 0
2, 3800, Note_on_c, 0, 80, 0
2, 3802, Note_on_c, 0, 62, 0
2, 3818, Note_on_c, 0, 56, 0
2, 3960, Note_on_c, 0, 56, 53
2, 3974, Note_on_c, 0, 56, 0
2, 3977, Control_c, 0, 64, 0
2, 3990, Note_on_c, 0, 59, 55
2, 4005, Note_on_c, 0, 59, 0
2, 4020, Note_on_c, 0, 62, 57
2, 4037, Note_on_c, 0, 62, 0
2, 4050, Note_on_c, 0, 63, 58
2, 4058, Note_on_c, 0, 63, 0
2, 4080, Note_on_c, 0, 64, 46
2, 4103, Note_on_c, 0, 64, 0
2, 4110, Note_on_c, 0, 65, 54
2, 4125, Note_on_c, 0, 65, 0
2, 4140, Note_on_c, 0, 68, 58
2, 4152, Note_on_c, 0, 68, 0
2, 4170, Note_on_c, 0, 71, 68
2, 4170, Note_on_c, 0, 74, 68
2, 4191, Note_on_c, 0, 74, 0
2, 4194, Note_on_c, 0, 71, 0
2, 4200, Note_on_c, 0, 75, 71
2, 4209, Note_on_c, 0, 75, 0
2, 4230, Note_on_c, 0, 76, 76
2, 4260, Note_on_c, 0, 78, 79
2, 4263, Note_on_c, 0, 76, 0
2, 4290, Note_on_c, 0, 77, 74
2, 4297, Note_on_c, 0, 78, 0
2, 4305, Note_on_c, 0, 77, 0
2, 4320, Note_on_c, 0, 76, 74
2, 4335, Note_on_c, 0, 76, 0
2, 4368, Note_on_c, 0, 57, 49
2, 4411, Note_on_c, 0, 57, 0
2, 4417, Control_c, 0, 64, 127
2, 4426, Note_on_c, 0, 57, 65
2, 4464, Note_on_c, 0, 57, 0
2, 4486, Note_on_c, 0, 57, 53
2, 4529, Control_c, 0, 64, 0
2, 4545, Control_c, 0, 64, 127
2, 4545, Note_on_c, 0, 79, 79
2, 4546, Note_on_c, 0, 74, 89
2, 4546, Note_on_c, 0, 83, 80
2, 4547, Note_on_c, 0, 67, 62
2, 4557, Note_on_c, 0, 74, 0
2, 4558, Note_on_c, 0, 67, 0
2, 4559, Note_on_c, 0, 79, 0
2, 4560, Note_on_c, 0, 83, 0
2, 4574, Note_on_c, 0, 83, 67
2, 4576, Note_on_c, 0, 79, 50
2, 4577, Note_on_c, 0, 74, 39
2, 4582, Note_on_c, 0, 79, 0
2, 4585, Note_on_c, 0, 74, 0
2, 4588, Note_on_c, 0, 83, 0
2, 4592, Note_on_c, 0, 67, 22
2, 4593, Control_c, 0, 64, 0
2, 4602, Note_on_c, 0, 82, 58
2, 4603, Note_on_c, 0, 73, 38
2, 4608, Note_on_c, 0, 67, 0
2, 4609, Note_on_c, 0, 78, 30
2, 4616, Note_on_c, 0, 73, 0
2, 4618, Note_on_c, 0, 78, 0
2, 4619, Control_c, 0, 64, 127
2, 4621, Note_on_c, 0, 82, 0
2, 4635, Note_on_c, 0, 83, 70
2, 4637, Note_on_c, 0, 74, 57
2, 4641, Note_on_c, 0, 79, 41
2, 4644, Note_on_c, 0, 74, 0
2, 4644, Note_on_c, 0, 57, 0
2, 4649, Note_on_c, 0, 83, 0
2, 4649, Note_on_c, 0, 79, 0
2, 4657, Control_c, 0, 64, 0
2, 4659, Note_on_c, 0, 78, 57
2, 4660, Note_on_c, 0, 82, 53
2, 4663, Note_on_c, 0, 73, 32
2, 4663, Note_on_c, 0, 57, 47
2, 4664, Note_on_c, 0, 67, 50
2, 4693, Control_c, 0, 64, 127
2, 4697, Note_on_c, 0, 67, 0
2, 4766, Note_on_c, 0, 57, 0
2, 4792, Note_on_c, 0, 57, 46
2, 4853, Note_on_c, 0, 67, 40
2, 4861, Note_on_c, 0, 73, 0
2, 4863, Note_on_c, 0, 67, 0
2, 4871, Note_on_c, 0, 82, 0
2, 4873, Note_on_c, 0, 78, 0
2, 4915, Note_on_c, 0, 72, 55
2, 4916, Note_on_c, 0, 81, 54
2, 4917, Note_on_c, 0, 77, 51
2, 4917, Note_on_c, 0, 67, 35
2, 4922, Note_on_c, 0, 72, 0
2, 4926, Note_on_c, 0, 67, 0
2, 4929, Note_on_c, 0, 77, 0
2, 4931, Note_on_c, 0, 81, 0
2, 4941, Control_c, 0, 64, 0
2, 4943, Note_on_c, 0, 82, 69
2, 4944, Note_on_c, 0, 73, 54
2, 4949, Note_on_c, 0, 67, 40
2, 4958, Note_on_c, 0, 67, 0
2, 4959, Note_on_c, 0, 73, 0
2, 4960, Note_on_c, 0, 82, 0
2, 4970, Note_on_c, 0, 67, 49
2, 4975, Note_on_c, 0, 81, 44
2, 4983, Note_on_c, 0, 81, 0
2, 4985, Control_c, 0, 64, 127
2, 5010, Note_on_c, 0, 57, 0
2, 5023, Control_c, 0, 64, 0
2, 5026, Note_on_c, 0, 67, 0
2, 5037, Note_on_c, 0, 81, 60
2, 5038, Note_on_c, 0, 57, 47
2, 5038, Note_on_c, 0, 72, 48
2, 5038, Note_on_c, 0, 77, 48
2, 5041, Note_on_c, 0, 67, 15
2, 5046, Control_c, 0, 64, 127
2, 5077, Note_on_c, 0, 57, 0
2, 5097, Note_on_c, 0, 57, 36
2, 5099, Note_on_c, 0, 67, 0
2, 5157, Note_on_c, 0, 67, 40
2, 5174, Note_on_c, 0, 67, 0
2, 5239, Note_on_c, 0, 81, 0
2, 5244, Note_on_c, 0, 72, 0
2, 5245, Note_on_c, 0, 77, 0
2, 5278, Note_on_c, 0, 80, 67
2, 5279, Note_on_c, 0, 76, 78
2, 5281, Note_on_c, 0, 71, 74
2, 5282, Note_on_c, 0, 69, 59
2, 5282, Control_c, 0, 64, 0
2, 5297, Control_c, 0, 64, 127
2, 5316, Note_on_c, 0, 69, 0
2, 5316, Note_on_c, 0, 71, 0
2, 5319, Note_on_c, 0, 76, 0
2, 5326, Note_on_c, 0, 80, 0
2, 5338, Note_on_c, 0, 81, 70
2, 5338, Note_on_c, 0, 72, 65
2, 5341, Note_on_c, 0, 69, 46
2, 5346, Note_on_c, 0, 77, 28
2, 5355, Note_on_c, 0, 77, 0
2, 5357, Note_on_c, 0, 72, 0
2, 5360, Note_on_c, 0, 81, 0
2, 5364, Note_on_c, 0, 69, 0
2, 5368, Note_on_c, 0, 57, 0
2, 5401, Note_on_c, 0, 80, 70
2, 5401, Note_on_c, 0, 76, 75
2, 5402, Control_c, 0, 64, 0
2, 5402, Note_on_c, 0, 70, 53
2, 5403, Note_on_c, 0, 57, 66
2, 5408, Note_on_c, 0, 71, 47
2, 5417, Note_on_c, 0, 71, 0
2, 5421, Note_on_c, 0, 70, 0
2, 5431, Control_c, 0, 64, 127
2, 5464, Note_on_c, 0, 69, 46
2, 5476, Note_on_c, 0, 69, 0
2, 5535, Note_on_c, 0, 69, 37
2, 5544, Note_on_c, 0, 69, 0
2, 5588, Note_on_c, 0, 69, 45
2, 5597, Note_on_c, 0, 76, 0
2, 5598, Note_on_c, 0, 69, 0
2, 5618, Note_on_c, 0, 80, 0
2, 5647, Note_on_c, 0, 71, 41
2, 5647, Note_on_c, 0, 69, 42
2, 5649, Note_on_c, 0, 76, 42
2, 5649, Note_on_c, 0, 79, 44
2, 5671, Note_on_c, 0, 57, 0
2, 5686, Note_on_c, 0, 69, 0
2, 5691, Note_on_c, 0, 76, 0
2, 5701, Note_on_c, 0, 79, 0
2, 5702, Note_on_c, 0, 57, 35
2, 5719, Note_on_c, 0, 71, 0
2, 5736, Note_on_c, 0, 57, 0
2, 5764, Note_on_c, 0, 78, 38
2, 5767, Note_on_c, 0, 69, 38
2, 5767, Note_on_c, 0, 62, 41
2, 5767, Note_on_c, 0, 74, 43
2, 5768, Control_c, 0, 64, 0
2, 5785, Control_c, 0, 64, 127
2, 5817, Note_on_c, 0, 69, 0
2, 5834, Note_on_c, 0, 78, 0
2, 5837, Note_on_c, 0, 74, 0
2, 5848, Note_on_c, 0, 81, 53
2, 5855, Note_on_c, 0, 62, 0
2, 5862, Note_on_c, 0, 81, 0
2, 5932, Note_on_c, 0, 93, 64
2, 5939, Note_on_c, 0, 81, 35
2, 6119, Note_on_c, 0, 64, 49
2, 6119, Note_on_c, 0, 54, 49
2, 6119, Note_on_c, 0, 61, 37
2, 6121, Note_on_c, 0, 59, 48
2, 6122, Control_c, 0, 64, 0
2, 6159, Control_c, 0, 64, 127
2, 6174, Note_on_c, 0, 59, 0
2, 6178, Note_on_c, 0, 64, 0
2, 6179, Note_on_c, 0, 54, 0
2, 6182, Note_on_c, 0, 61, 0
2, 6198, Control_c, 0, 64, 0
2, 6210, Note_on_c, 0, 61, 38
2, 6211, Note_on_c, 0, 54, 42
2, 6211, Note_on_c, 0, 64, 39
2, 6213, Note_on_c, 0, 59, 44
2, 6222, Note_on_c, 0, 59, 0
2, 6223, Note_on_c, 0, 64, 0
2, 6227, Note_on_c, 0, 61, 0
2, 6227, Note_on_c, 0, 54, 0
2, 6296, Note_on_c, 0, 61, 33
2, 6296, Control_c, 0, 64, 127
2, 6296, Note_on_c, 0, 54, 37
2, 6297, Note_on_c, 0, 64, 37
2, 6299, Note_on_c, 0, 59, 46
2, 6312, Note_on_c, 0, 93, 0
2, 6331, Note_on_c, 0, 81, 0
2, 6416, Note_on_c, 0, 59, 0
2, 6418, Note_on_c, 0, 64, 0
2, 6419, Note_on_c, 0, 54, 0
2, 6420, Note_on_c, 0, 83, 101
2, 6425, Note_on_c, 0, 61, 0
2, 6466, Note_on_c, 0, 83, 0
2, 6481, Note_on_c, 0, 85, 86
2, 6488, Control_c, 0, 64, 0
2, 6505, Control_c, 0, 64, 127
2, 6557, Note_on_c, 0, 85, 0
2, 6565, Note_on_c, 0, 78, 44
2, 6600, Note_on_c, 0, 78, 0
2, 6658, Note_on_c, 0, 78, 44
2, 6683, Note_on_c, 0, 78, 0
2, 6839, Note_on_c, 0, 61, 42
2, 6840, Note_on_c, 0, 57, 49
2, 6840, Note_on_c, 0, 64, 50
2, 6843, Note_on_c, 0, 50, 38
2, 6848, Note_on_c, 0, 57, 0
2, 6850, Control_c, 0, 64, 0
2, 6852, Note_on_c, 0, 61, 0
2, 6852, Note_on_c, 0, 50, 0
2, 6853, Note_on_c, 0, 64, 0
2, 6900, Note_on_c, 0, 64, 51
2, 6901, Note_on_c, 0, 61, 38
2, 6901, Note_on_c, 0, 57, 50
2, 6902, Note_on_c, 0, 50, 53
2, 6912, Note_on_c, 0, 57, 0
2, 6913, Note_on_c, 0, 61, 0
2, 6914, Note_on_c, 0, 50, 0
2, 6915, Note_on_c, 0, 64, 0
2, 6962, Note_on_c, 0, 50, 46
2, 6963, Note_on_c, 0, 64, 44
2, 6963, Note_on_c, 0, 57, 47
2, 6964, Note_on_c, 0, 61, 34
2, 6976, Note_on_c, 0, 61, 0
2, 6976, Note_on_c, 0, 57, 0
2, 6976, Note_on_c, 0, 50, 0
2, 6978, Note_on_c, 0, 64, 0
2, 6995, Note_on_c, 0, 57, 33
2, 6995, Note_on_c, 0, 61, 28
2, 6995, Note_on_c, 0, 64, 27
2, 6995, Note_on_c, 0, 50, 46
2, 7006, Note_on_c, 0, 57, 0
2, 7008, Note_on_c, 0, 61, 0
2, 7008, Note_on_c, 0, 64, 0
2, 7008, Note_on_c, 0, 50, 0
2, 7075, Note_on_c, 0, 50, 55
2, 7077, Note_on_c, 0, 62, 53
2, 7077, Note_on_c, 0, 55, 42
2, 7088, Note_on_c, 0, 55, 0
2, 7090, Note_on_c, 0, 50, 0
2, 7095, Note_on_c, 0, 62, 0
2, 7110, Note_on_c, 0, 55, 44
2, 7112, Note_on_c, 0, 62, 54
2, 7113, Note_on_c, 0, 59, 44
2, 7116, Note_on_c, 0, 50, 40
2, 7128, Note_on_c, 0, 59, 0
2, 7128, Note_on_c, 0, 55, 0
2, 7144, Control_c, 0, 64, 127
2, 7163, Note_on_c, 0, 50, 0
2, 7177, Note_on_c, 0, 62, 0
2, 7195, Control_c, 0, 64, 0
2, 7200, Note_on_c, 0, 57, 57
2, 7203, Note_on_c, 0, 64, 50
2, 7206, Note_on_c, 0, 50, 43
2, 7220, Control_c, 0, 64, 127
2, 7223, Note_on_c, 0, 50, 0
2, 7254, Note_on_c, 0, 57, 0
2, 7267, Note_on_c, 0, 64, 0
2, 7293, Note_on_c, 0, 50, 30
2, 7295, Note_on_c, 0, 62, 51
2, 7349, Note_on_c, 0, 62, 0
2, 7380, Note_on_c, 0, 69, 89
2, 7382, Note_on_c, 0, 57, 43
2, 7384, Control_c, 0, 64, 0
2, 7405, Control_c, 0, 64, 127
2, 7425, Note_on_c, 0, 57, 0
2, 7440, Note_on_c, 0, 61, 43
2, 7441, Note_on_c, 0, 66, 50
2, 7502, Note_on_c, 0, 57, 30
2, 7512, Note_on_c, 0, 61, 0
2, 7523, Note_on_c, 0, 66, 0
2, 7524, Note_on_c, 0, 50, 0
2, 7532, Note_on_c, 0, 57, 0
2, 7548, Note_on_c, 0, 69, 0
2, 7562, Note_on_c, 0, 62, 44
2, 7563, Control_c, 0, 64, 0
2, 7563, Note_on_c, 0, 57, 34
2, 7565, Note_on_c, 0, 50, 48
2, 7565, Note_on_c, 0, 66, 18
2, 7580, Control_c, 0, 64, 127
2, 7592, Note_on_c, 0, 57, 0
2, 7616, Note_on_c, 0, 62, 0
2, 7629, Note_on_c, 0, 66, 0
2, 7646, Note_on_c, 0, 57, 36
2, 7656, Note_on_c, 0, 57, 0
2, 7734, Control_c, 0, 64, 0
2, 7735, Note_on_c, 0, 74, 79
2, 7735, Note_on_c, 0, 68, 83
2, 7735, Note_on_c, 0, 62, 58
2, 7740, Note_on_c, 0, 59, 18
2, 7759, Control_c, 0, 64, 127
2, 7793, Note_on_c, 0, 74, 0
2, 7798, Note_on_c, 0, 68, 0
2, 7803, Note_on_c, 0, 65, 62
2, 7831, Note_on_c, 0, 65, 0
2, 7848, Note_on_c, 0, 50, 0
2, 7862, Note_on_c, 0, 83, 87
2, 7865, Note_on_c, 0, 50, 43
2, 7873, Note_on_c, 0, 59, 0
2, 7904, Note_on_c, 0, 83, 0
2, 7908, Note_on_c, 0, 50, 0
2, 7913, Note_on_c, 0, 62, 0
2, 7918, Note_on_c, 0, 50, 30
2, 7924, Note_on_c, 0, 79, 70
2, 7925, Control_c, 0, 64, 0
2, 7942, Note_on_c, 0, 50, 0
2, 7957, Control_c, 0, 64, 127
2, 8003, Note_on_c, 0, 73, 38
2, 8005, Control_c, 0, 64, 0
2, 8010, Note_on_c, 0, 79, 0
2, 8080, Note_on_c, 0, 73, 0
2, 8097, Note_on_c, 0, 73, 36
2, 8112, Note_on_c, 0, 73, 0
2, 8192, Note_on_c, 0, 72, 46
2, 8212, Note_on_c, 0, 72, 0
2, 8221, Note_on_c, 0, 73, 32
2, 8238, Note_on_c, 0, 73, 0
2, 8252, Note_on_c, 0, 77, 66
2, 8276, Note_on_c, 0, 77, 0
2, 8278, Note_on_c, 0, 78, 53
2, 8295, Note_on_c, 0, 78, 0
2, 8322, Note_on_c, 0, 66, 27
2, 8328, Note_on_c, 0, 61, 20
2, 8331, Note_on_c, 0, 66, 0
2, 8340, Note_on_c, 0, 61, 0
2, 8346, Note_on_c, 0, 89, 51
2, 8367, Note_on_c, 0, 89, 0
2, 8375, Note_on_c, 0, 94, 43
2, 8378, Note_on_c, 0, 95, 69
2, 8388, Note_on_c, 0, 94, 0
2, 8392, Note_on_c, 0, 95, 0
2, 8406, Note_on_c, 0, 98, 46
2, 8407, Note_on_c, 0, 96, 54
2, 8414, Note_on_c, 0, 98, 0
2, 8416, Note_on_c, 0, 96, 0
2, 8459, Note_on_c, 0, 66, 53
2, 8463, Note_on_c, 0, 61, 36
2, 8468, Note_on_c, 0, 55, 34
2, 8478, Note_on_c, 0, 55, 0
2, 8480, Note_on_c, 0, 61, 0
2, 8484, Note_on_c, 0, 66, 0
2, 8550, Note_on_c, 0, 66, 54
2, 8555, Note_on_c, 0, 61, 43
2, 8555, Note_on_c, 0, 55, 47
2, 8575, Note_on_c, 0, 55, 0
2, 8585, Note_on_c, 0, 66, 0
2, 8594, Note_on_c, 0, 61, 0
2, 8637, Note_on_c, 0, 54, 36
2, 8639, Note_on_c, 0, 65, 30
2, 8643, Note_on_c, 0, 60, 38
2, 8658, Note_on_c, 0, 65, 0
2, 8662, Note_on_c, 0, 60, 0
2, 8677, Note_on_c, 0, 54, 0
2, 8734, Note_on_c, 0, 54, 36
2, 8736, Note_on_c, 0, 65, 40
2, 8737, Note_on_c, 0, 60, 47
2, 8754, Note_on_c, 0, 65, 0
2, 8756, Note_on_c, 0, 60, 0
2, 8764, Note_on_c, 0, 54, 0
2, 8822, Note_on_c, 0, 54, 45
2, 8824, Note_on_c, 0, 74, 80
2, 8825, Note_on_c, 0, 65, 44
2, 8825, Note_on_c, 0, 60, 51
2, 8834, Note_on_c, 0, 65, 0
2, 8837, Note_on_c, 0, 74, 0
2, 8842, Note_on_c, 0, 60, 0
2, 8848, Note_on_c, 0, 54, 0
2, 8886, Note_on_c, 0, 81, 90
2, 8906, Note_on_c, 0, 81, 0
2, 8917, Note_on_c, 0, 54, 48
2, 8918, Note_on_c, 0, 65, 49
2, 8920, Note_on_c, 0, 60, 53
2, 8935, Note_on_c, 0, 60, 0
2, 8937, Note_on_c, 0, 65, 0
2, 8940, Note_on_c, 0, 54, 0
2, 9002, Note_on_c, 0, 66, 49
2, 9003, Note_on_c, 0, 62, 51
2, 9005, Note_on_c, 0, 57, 47
2, 9027, Note_on_c, 0, 66, 0
2, 9029, Note_on_c, 0, 57, 0
2, 9033, Note_on_c, 0, 62, 0
2, 9053, Control_c, 0, 64, 127
2, 9070, Control_c, 0, 64, 0
2, 9087, Note_on_c, 0, 66, 56
2, 9091, Note_on_c, 0, 62, 50
2, 9093, Note_on_c, 0, 57, 35
2, 9103, Note_on_c, 0, 57, 0
2, 9103, Note_on_c, 0, 66, 0
2, 9108, Note_on_c, 0, 62, 0
2, 9125, Control_c, 0, 64, 127
2, 9169, Note_on_c, 0, 83, 76
2, 9171, Note_on_c, 0, 71, 77
2, 9172, Note_on_c, 0, 66, 75
2, 9173, Note_on_c, 0, 57, 68
2, 9173, Note_on_c, 0, 62, 65
2, 9182, Control_c, 0, 64, 0
2, 9209, Control_c, 0, 64, 127
2, 9227, Note_on_c, 0, 83, 0
2, 9228, Note_on_c, 0, 71, 0
2, 9229, Note_on_c, 0, 57, 0
2, 9230, Note_on_c, 0, 66, 0
2, 9238, Note_on_c, 0, 62, 0
2, 9260, Note_on_c, 0, 73, 74
2, 9261, Note_on_c, 0, 85, 85
2, 9262, Note_on_c, 0, 66, 73
2, 9262, Note_on_c, 0, 57, 70
2, 9263, Control_c, 0, 64, 0
2, 9264, Note_on_c, 0, 62, 64
2, 9289, Control_c, 0, 64, 127
2, 9306, Note_on_c, 0, 57, 0
2, 9317, Note_on_c, 0, 62, 0
2, 9321, Note_on_c, 0, 73, 0
2, 9321, Note_on_c, 0, 85, 0
2, 9323, Note_on_c, 0, 66, 0
2, 9346, Control_c, 0, 64, 0
2, 9349, Note_on_c, 0, 74, 88
2, 9349, Note_on_c, 0, 86, 85
2, 9349, Note_on_c, 0, 62, 74
2, 9350, Note_on_c, 0, 67, 83
2, 9350, Note_on_c, 0, 56, 73
2, 9357, Note_on_c, 0, 84, 32
2, 9363, Note_on_c, 0, 84, 0
2, 9377, Control_c, 0, 64, 127
2, 9382, Note_on_c, 0, 86, 0
2, 9393, Note_on_c, 0, 74, 0
2, 9399, Note_on_c, 0, 67, 0
2, 9409, Note_on_c, 0, 56, 0
2, 9415, Note_on_c, 0, 62, 0
2, 9442, Note_on_c, 0, 80, 57
2, 9442, Note_on_c, 0, 68, 53
2, 9444, Note_on_c, 0, 56, 56
2, 9446, Note_on_c, 0, 65, 45
2, 9449, Note_on_c, 0, 62, 47
2, 9451, Control_c, 0, 64, 0
2, 9481, Control_c, 0, 64, 127
2, 9494, Note_on_c, 0, 65, 0
2, 9500, Note_on_c, 0, 56, 0
2, 9502, Note_on_c, 0, 80, 0
2, 9503, Note_on_c, 0, 62, 0
2, 9505, Note_on_c, 0, 68, 0
2, 9539, Note_on_c, 0, 56, 46
2, 9540, Note_on_c, 0, 80, 53
2, 9543, Note_on_c, 0, 62, 36
2, 9544, Note_on_c, 0, 68, 43
2, 9544, Note_on_c, 0, 65, 28
2, 9554, Control_c, 0, 64, 0
2, 9576, Note_on_c, 0, 62, 0
2, 9577, Control_c, 0, 64, 127
2, 9590, Note_on_c, 0, 65, 0
2, 9591, Note_on_c, 0, 56, 0
2, 9608, Note_on_c, 0, 68, 0
2, 9636, Note_on_c, 0, 71, 53
2, 9638, Note_on_c, 0, 68, 38
2, 9639, Note_on_c, 0, 74, 45
2, 9640, Note_on_c, 0, 67, 64
2, 9647, Control_c, 0, 64, 0
2, 9653, Note_on_c, 0, 68, 0
2, 9661, Note_on_c, 0, 71, 0
2, 9664, Note_on_c, 0, 74, 0
2, 9691, Note_on_c, 0, 68, 38
2, 9692, Note_on_c, 0, 71, 50
2, 9698, Note_on_c, 0, 74, 30
2, 9703, Note_on_c, 0, 68, 0
2, 9708, Note_on_c, 0, 71, 0
2, 9712, Note_on_c, 0, 74, 0
2, 9723, Note_on_c, 0, 68, 45
2, 9724, Note_on_c, 0, 67, 0
2, 9725, Note_on_c, 0, 71, 54
2, 9727, Note_on_c, 0, 74, 31
2, 9729, Note_on_c, 0, 65, 53
2, 9744, Note_on_c, 0, 68, 0
2, 9749, Note_on_c, 0, 71, 0
2, 9755, Note_on_c, 0, 74, 0
2, 9779, Note_on_c, 0, 68, 43
2, 9781, Note_on_c, 0, 71, 54
2, 9786, Note_on_c, 0, 74, 32
2, 9793, Note_on_c, 0, 68, 0
2, 9796, Note_on_c, 0, 71, 0
2, 9800, Note_on_c, 0, 74, 0
2, 9812, Note_on_c, 0, 65, 0
2, 9814, Note_on_c, 0, 68, 37
2, 9816, Note_on_c, 0, 71, 61
2, 9818, Note_on_c, 0, 74, 40
2, 9825, Note_on_c, 0, 64, 22
2, 9827, Note_on_c, 0, 68, 0
2, 9834, Note_on_c, 0, 71, 0
2, 9840, Note_on_c, 0, 74, 0
2, 9861, Note_on_c, 0, 78, 1
2, 9865, Note_on_c, 0, 68, 39
2, 9868, Note_on_c, 0, 71, 49
2, 9873, Note_on_c, 0, 74, 29
2, 9877, Note_on_c, 0, 71, 0
2, 9879, Note_on_c, 0, 68, 0
2, 9883, Note_on_c, 0, 74, 0
2, 9892, Note_on_c, 0, 68, 42
2, 9894, Note_on_c, 0, 71, 60
2, 9896, Note_on_c, 0, 74, 45
2, 9900, Note_on_c, 0, 62, 43
2, 9901, Note_on_c, 0, 64, 0
2, 9920, Note_on_c, 0, 71, 0
2, 9925, Note_on_c, 0, 74, 0
2, 9928, Note_on_c, 0, 68, 0
2, 9942, Note_on_c, 0, 80, 0
2, 9953, Note_on_c, 0, 68, 48
2, 9955, Note_on_c, 0, 71, 60
2, 9957, Note_on_c, 0, 74, 42
2, 9959, Note_on_c, 0, 78, 0
2, 9962, Control_c, 0, 64, 127
2, 9969, Note_on_c, 0, 74, 0
2, 9969, Note_on_c, 0, 68, 0
2, 9974, Note_on_c, 0, 71, 0
2, 9988, Control_c, 0, 64, 0
2, 10002, Note_on_c, 0, 62, 0
2, 10017, Note_on_c, 0, 59, 29
2, 10019, Control_c, 0, 64, 127
2, 10029, Note_on_c, 0, 59, 0
2, 10074, Note_on_c, 0, 71, 71
2, 10074, Note_on_c, 0, 62, 71
2, 10075, Note_on_c, 0, 67, 75
2, 10080, Control_c, 0, 64, 0
2, 10136, Note_on_c, 0, 57, 60
2, 10137, Control_c, 0, 64, 127
2, 10150, Note_on_c, 0, 57, 0
2, 10162, Control_c, 0, 64, 0
2, 10201, Note_on_c, 0, 57, 44
2, 10210, Note_on_c, 0, 57, 0
2, 10259, Control_c, 0, 64, 127
2, 10259, Note_on_c, 0, 57, 43
2, 10273, Note_on_c, 0, 71, 0
2, 10276, Note_on_c, 0, 62, 0
2, 10290, Note_on_c, 0, 57, 0
2, 10292, Note_on_c, 0, 67, 0
2, 10313, Note_on_c, 0, 66, 49
2, 10313, Note_on_c, 0, 61, 43
2, 10315, Note_on_c, 0, 70, 40
2, 10315, Note_on_c, 0, 57, 40
2, 10331, Note_on_c, 0, 57, 0
2, 10343, Note_on_c, 0, 61, 0
2, 10345, Control_c, 0, 64, 0
2, 10350, Note_on_c, 0, 70, 0
2, 10359, Note_on_c, 0, 66, 0
2, 10370, Note_on_c, 0, 62, 53
2, 10370, Note_on_c, 0, 57, 38
2, 10373, Note_on_c, 0, 71, 61
2, 10373, Note_on_c, 0, 67, 49
2, 10375, Control_c, 0, 64, 127
2, 10387, Note_on_c, 0, 62, 0
2, 10388, Note_on_c, 0, 57, 0
2, 10396, Note_on_c, 0, 67, 0
2, 10414, Note_on_c, 0, 71, 0
2, 10434, Note_on_c, 0, 72, 57
2, 10434, Control_c, 0, 64, 0
2, 10434, Note_on_c, 0, 68, 52
2, 10435, Note_on_c, 0, 63, 56
2, 10436, Note_on_c, 0, 57, 43
2, 10453, Note_on_c, 0, 57, 0
2, 10476, Note_on_c, 0, 57, 47
2, 10490, Note_on_c, 0, 57, 0
2, 10531, Note_on_c, 0, 57, 51
2, 10543, Note_on_c, 0, 57, 0
2, 10560, Control_c, 0, 64, 127
2, 10564, Control_c, 0, 64, 0
2, 10585, Note_on_c, 0, 57, 50
2, 10595, Note_on_c, 0, 57, 0
2, 10617, Control_c, 0, 64, 127
2, 10636, Note_on_c, 0, 72, 0
2, 10640, Note_on_c, 0, 57, 46
2, 10645, Note_on_c, 0, 63, 0
2, 10648, Note_on_c, 0, 57, 0
2, 10655, Note_on_c, 0, 68, 0
2, 10657, Control_c, 0, 64, 0
2, 10665, Note_on_c, 0, 64, 62
2, 10666, Note_on_c, 0, 73, 37
2, 10668, Note_on_c, 0, 57, 52
2, 10670, Note_on_c, 0, 69, 54
2, 10684, Note_on_c, 0, 57, 0
2, 10727, Note_on_c, 0, 57, 47
2, 10735, Control_c, 0, 64, 127
2, 10737, Note_on_c, 0, 57, 0
2, 10746, Note_on_c, 0, 69, 0
2, 10765, Note_on_c, 0, 64, 0
2, 10780, Note_on_c, 0, 73, 0
2, 10793, Note_on_c, 0, 65, 73
2, 10793, Note_on_c, 0, 70, 62
2, 10793, Note_on_c, 0, 74, 72
2, 10794, Note_on_c, 0, 57, 66
2, 10795, Control_c, 0, 64, 0
2, 10811, Note_on_c, 0, 57, 0
2, 10832, Control_c, 0, 64, 127
2, 10839, Note_on_c, 0, 57, 51
2, 10853, Note_on_c, 0, 57, 0
2, 10869, Control_c, 0, 64, 0
2, 10892, Note_on_c, 0, 57, 43
2, 10903, Note_on_c, 0, 57, 0
2, 10951, Note_on_c, 0, 57, 34
2, 10960, Note_on_c, 0, 57, 0
2, 11008, Note_on_c, 0, 57, 56
2, 11016, Note_on_c, 0, 57, 0
2, 11036, Control_c, 0, 64, 127
2, 11038, Note_on_c, 0, 57, 38
2, 11049, Note_on_c, 0, 57, 0
2, 11072, Note_on_c, 0, 74, 0
2, 11086, Note_on_c, 0, 65, 0
2, 11096, Note_on_c, 0, 57, 61
2, 11099, Control_c, 0, 64, 0
2, 11102, Note_on_c, 0, 70, 0
2, 11112, Note_on_c, 0, 57, 0
2, 11114, Control_c, 0, 64, 127
2, 11156, Control_c, 0, 64, 0
2, 11157, Note_on_c, 0, 75, 73
2, 11157, Note_on_c, 0, 66, 86
2, 11158, Note_on_c, 0, 71, 84
2, 11159, Note_on_c, 0, 57, 80
2, 11182, Note_on_c, 0, 57, 0
2, 11202, Control_c, 0, 64, 127
2, 11218, Note_on_c, 0, 57, 63
2, 11234, Note_on_c, 0, 57, 0
2, 11280, Note_on_c, 0, 57, 67
2, 11294, Note_on_c, 0, 57, 0
2, 11334, Note_on_c, 0, 57, 60
2, 11341, Note_on_c, 0, 66, 0
2, 11343, Note_on_c, 0, 71, 0
2, 11359, Note_on_c, 0, 57, 0
2, 11361, Note_on_c, 0, 75, 0
2, 11395, Control_c, 0, 64, 0
2, 11398, Note_on_c, 0, 72, 84
2, 11398, Note_on_c, 0, 60, 75
2, 11398, Note_on_c, 0, 76, 84
2, 11398, Note_on_c, 0, 67, 94
2, 11424, Control_c, 0, 64, 127
2, 11444, Note_on_c, 0, 67, 0
2, 11456, Note_on_c, 0, 72, 0
2, 11456, Note_on_c, 0, 54, 46
2, 11459, Note_on_c, 0, 76, 0
2, 11477, Note_on_c, 0, 60, 0
2, 11480, Note_on_c, 0, 54, 0
2, 11516, Note_on_c, 0, 55, 74
2, 11517, Note_on_c, 0, 86, 88
2, 11517, Note_on_c, 0, 74, 94
2, 11517, Note_on_c, 0, 57, 75
2, 11518, Note_on_c, 0, 60, 78
2, 11518, Note_on_c, 0, 81, 85
2, 11519, Control_c, 0, 64, 0
2, 11519, Note_on_c, 0, 65, 73
2, 11586, Control_c, 0, 64, 127
2, 11652, Note_on_c, 0, 74, 0
2, 11666, Note_on_c, 0, 60, 0
2, 11672, Note_on_c, 0, 65, 0
2, 11679, Note_on_c, 0, 86, 0
2, 11680, Note_on_c, 0, 81, 0
2, 11681, Note_on_c, 0, 55, 0
2, 11684, Note_on_c, 0, 57, 0
2, 11827, Note_on_c, 0, 53, 89
2, 11827, Note_on_c, 0, 64, 91
2, 11827, Note_on_c, 0, 87, 87
2, 11827, Note_on_c, 0, 79, 91
2, 11828, Note_on_c, 0, 59, 80
2, 11828, Note_on_c, 0, 91, 91
2, 11831, Note_on_c, 0, 85, 51
2, 11834, Control_c, 0, 64, 0
2, 11837, Note_on_c, 0, 85, 0
2, 11871, Note_on_c, 0, 87, 0
2, 11871, Note_on_c, 0, 88, 54
2, 11879, Note_on_c, 0, 88, 0
2, 11881, Note_on_c, 0, 79, 0
2, 11884, Note_on_c, 0, 91, 0
2, 11890, Note_on_c, 0, 59, 0
2, 11895, Note_on_c, 0, 64, 0
2, 11897, Note_on_c, 0, 53, 0
2, 12022, Control_c, 0, 64, 127
2, 12045, Control_c, 0, 64, 0
2, 12064, Control_c, 0, 64, 127
2, 12068, Note_on_c, 0, 65, 92
2, 12068, Note_on_c, 0, 55, 90
2, 12069, Note_on_c, 0, 60, 85
2, 12076, Control_c, 0, 64, 0
2, 12108, Control_c, 0, 64, 127
2, 12139, Note_on_c, 0, 60, 0
2, 12140, Note_on_c, 0, 65, 0
2, 12143, Note_on_c, 0, 55, 0
2, 12162, Note_on_c, 0, 64, 76
2, 12162, Note_on_c, 0, 92, 85
2, 12163, Note_on_c, 0, 80, 80
2, 12164, Note_on_c, 0, 59, 68
2, 12164, Note_on_c, 0, 53, 77
2, 12164, Note_on_c, 0, 87, 77
2, 12167, Control_c, 0, 64, 0
2, 12190, Control_c, 0, 64, 127
2, 12191, Note_on_c, 0, 59, 0
2, 12191, Note_on_c, 0, 64, 0
2, 12199, Note_on_c, 0, 53, 0
2, 12214, Note_on_c, 0, 80, 0
2, 12218, Note_on_c, 0, 87, 0
2, 12219, Note_on_c, 0, 92, 0
2, 12239, Control_c, 0, 64, 0
2, 12240, Note_on_c, 0, 48, 78
2, 12242, Note_on_c, 0, 92, 77
2, 12243, Note_on_c, 0, 88, 74
2, 12243, Note_on_c, 0, 83, 64
2, 12264, Control_c, 0, 64, 127
2, 12269, Note_on_c, 0, 88, 0
2, 12269, Note_on_c, 0, 92, 0
2, 12280, Note_on_c, 0, 83, 0
2, 12357, Note_on_c, 0, 68, 51
2, 12357, Note_on_c, 0, 59, 47
2, 12358, Note_on_c, 0, 64, 52
2, 12359, Note_on_c, 0, 56, 48
2, 12400, Note_on_c, 0, 56, 0
2, 12406, Note_on_c, 0, 64, 0
2, 12431, Note_on_c, 0, 68, 0
2, 12434, Note_on_c, 0, 59, 0
2, 12480, Note_on_c, 0, 48, 0
2, 12480, Note_on_c, 0, 62, 58
2, 12480, Note_on_c, 0, 67, 60
2, 12480, Note_on_c, 0, 57, 67
2, 12481, Note_on_c, 0, 52, 49
2, 12493, Control_c, 0, 64, 0
2, 12495, Note_on_c, 0, 67, 0
2, 12499, Note_on_c, 0, 57, 0
2, 12501, Note_on_c, 0, 62, 0
2, 12510, Note_on_c, 0, 52, 0
2, 12515, Note_on_c, 0, 51, 45
2, 12542, Note_on_c, 0, 67, 58
2, 12543, Note_on_c, 0, 51, 0
2, 12543, Note_on_c, 0, 57, 53
2, 12543, Note_on_c, 0, 62, 49
2, 12546, Note_on_c, 0, 52, 44
2, 12598, Control_c, 0, 64, 127
2, 12630, Note_on_c, 0, 57, 0
2, 12634, Note_on_c, 0, 52, 0
2, 12645, Note_on_c, 0, 62, 0
2, 12647, Note_on_c, 0, 67, 0
2, 12780, Note_on_c, 0, 71, 62
2, 12781, Note_on_c, 0, 62, 51
2, 12781, Note_on_c, 0, 64, 51
2, 12782, Note_on_c, 0, 55, 41
2, 12784, Control_c, 0, 64, 0
2, 12807, Control_c, 0, 64, 127
2, 12837, Note_on_c, 0, 55, 0
2, 12843, Note_on_c, 0, 64, 0
2, 12846, Note_on_c, 0, 62, 0
2, 12859, Note_on_c, 0, 71, 0
2, 12868, Note_on_c, 0, 67, 61
2, 12871, Note_on_c, 0, 62, 29
2, 12879, Note_on_c, 0, 62, 0
2, 12880, Note_on_c, 0, 55, 29
2, 12895, Note_on_c, 0, 67, 0
2, 12896, Note_on_c, 0, 62, 49
2, 12912, Note_on_c, 0, 62, 0
2, 12919, Note_on_c, 0, 55, 0
2, 12950, Note_on_c, 0, 64, 50
2, 12954, Note_on_c, 0, 49, 36
2, 12954, Control_c, 0, 64, 0
2, 12955, Note_on_c, 0, 55, 39
2, 12958, Note_on_c, 0, 59, 26
2, 12959, Note_on_c, 0, 57, 22
2, 12977, Note_on_c, 0, 57, 0
2, 12983, Control_c, 0, 64, 127
2, 13070, Note_on_c, 0, 64, 0
2, 13073, Note_on_c, 0, 55, 0
2, 13085, Note_on_c, 0, 59, 0
2, 13092, Note_on_c, 0, 49, 0
2, 13141, Note_on_c, 0, 66, 82
2, 13141, Note_on_c, 0, 62, 92
2, 13142, Note_on_c, 0, 48, 76
2, 13143, Note_on_c, 0, 58, 80
2, 13150, Control_c, 0, 64, 0
2, 13177, Control_c, 0, 64, 127
2, 13254, Note_on_c, 0, 48, 0
2, 13260, Note_on_c, 0, 58, 0
2, 13270, Note_on_c, 0, 62, 0
2, 13299, Note_on_c, 0, 66, 0
2, 13327, Note_on_c, 0, 69, 83
2, 13327, Note_on_c, 0, 63, 87
2, 13327, Note_on_c, 0, 47, 75
2, 13328, Note_on_c, 0, 57, 78
2, 13331, Control_c, 0, 64, 0
2, 13371, Control_c, 0, 64, 127
2, 13438, Note_on_c, 0, 57, 0
2, 13443, Note_on_c, 0, 47, 0
2, 13461, Note_on_c, 0, 69, 0
2, 13478, Note_on_c, 0, 63, 0
2, 13509, Note_on_c, 0, 62, 80
2, 13510, Note_on_c, 0, 67, 80
2, 13511, Note_on_c, 0, 57, 77
2, 13511, Note_on_c, 0, 47, 78
2, 13518, Control_c, 0, 64, 0
2, 13546, Control_c, 0, 64, 127
2, 13571, Note_on_c, 0, 47, 0
2, 13575, Note_on_c, 0, 57, 0
2, 13575, Note_on_c, 0, 62, 0
2, 13584, Note_on_c, 0, 67, 0
2, 13598, Note_on_c, 0, 66, 67
2, 13599, Note_on_c, 0, 62, 64
2, 13599, Note_on_c, 0, 57, 58
2, 13600, Note_on_c, 0, 47, 59
2, 13624, Note_on_c, 0, 62, 0
2, 13625, Note_on_c, 0, 47, 0
2, 13631, Note_on_c, 0, 66, 0
2, 13635, Note_on_c, 0, 57, 0
2, 13676, Control_c, 0, 64, 0
2, 13679, Note_on_c, 0, 34, 70
2, 13679, Note_on_c, 0, 46, 72
2, 13680, Note_on_c, 0, 64, 81
2, 13681, Note_on_c, 0, 60, 80
2, 13681, Note_on_c, 0, 55, 74
2, 13698, Note_on_c, 0, 46, 0
2, 13699, Note_on_c, 0, 34, 0
2, 13699, Note_on_c, 0, 55, 0
2, 13701, Control_c, 0, 64, 127
2, 13708, Note_on_c, 0, 60, 0
2, 13716, Note_on_c, 0, 64, 0
2, 13773, Control_c, 0, 64, 0
2, 13774, Note_on_c, 0, 79, 74
2, 13774, Note_on_c, 0, 74, 76
2, 13776, Note_on_c, 0, 67, 73
2, 13777, Note_on_c, 0, 62, 69
2, 13777, Control_c, 0, 64, 127
2, 13778, Note_on_c, 0, 69, 73
2, 13784, Note_on_c, 0, 69, 0
2, 13799, Note_on_c, 0, 62, 0
2, 13802, Note_on_c, 0, 67, 0
2, 13809, Note_on_c, 0, 74, 0
2, 13812, Note_on_c, 0, 79, 0
2, 13871, Note_on_c, 0, 56, 77
2, 13872, Note_on_c, 0, 62, 71
2, 13872, Note_on_c, 0, 67, 87
2, 13873, Control_c, 0, 64, 0
2, 13874, Note_on_c, 0, 79, 80
2, 13875, Note_on_c, 0, 84, 84
2, 13875, Note_on_c, 0, 72, 85
2, 13885, Control_c, 0, 64, 127
2, 13904, Note_on_c, 0, 72, 0
2, 13911, Note_on_c, 0, 79, 0
2, 13911, Note_on_c, 0, 84, 0
2, 13922, Note_on_c, 0, 56, 0
2, 13922, Note_on_c, 0, 67, 0
2, 13933, Note_on_c, 0, 62, 0
2, 13961, Note_on_c, 0, 88, 80
2, 13961, Note_on_c, 0, 56, 69
2, 13962, Note_on_c, 0, 76, 75
2, 13962, Note_on_c, 0, 62, 76
2, 13962, Note_on_c, 0, 83, 71
2, 13963, Note_on_c, 0, 67, 78
2, 13965, Note_on_c, 0, 85, 38
2, 13972, Note_on_c, 0, 85, 0
2, 13988, Note_on_c, 0, 76, 0
2, 13994, Note_on_c, 0, 83, 0
2, 13994, Note_on_c, 0, 67, 0
2, 13996, Note_on_c, 0, 88, 0
2, 13996, Note_on_c, 0, 62, 0
2, 14011, Note_on_c, 0, 56, 0
2, 14043, Control_c, 0, 64, 0
2, 14045, Note_on_c, 0, 61, 60
2, 14045, Note_on_c, 0, 55, 66
2, 14047, Note_on_c, 0, 65, 58
2, 14047, Note_on_c, 0, 93, 74
2, 14048, Note_on_c, 0, 81, 61
2, 14048, Note_on_c, 0, 88, 61
2, 14062, Control_c, 0, 64, 127
2, 14073, Note_on_c, 0, 81, 0
2, 14077, Note_on_c, 0, 88, 0
2, 14078, Note_on_c, 0, 93, 0
2, 14093, Note_on_c, 0, 55, 0
2, 14095, Note_on_c, 0, 61, 0
2, 14096, Note_on_c, 0, 65, 0
2, 14129, Control_c, 0, 64, 0
2, 14130, Note_on_c, 0, 96, 52
2, 14131, Note_on_c, 0, 55, 64
2, 14131, Note_on_c, 0, 61, 49
2, 14131, Note_on_c, 0, 91, 49
2, 14132, Note_on_c, 0, 84, 44
2, 14133, Note_on_c, 0, 65, 48
2, 14140, Control_c, 0, 64, 127
2, 14150, Note_on_c, 0, 84, 0
2, 14152, Note_on_c, 0, 91, 0
2, 14155, Note_on_c, 0, 96, 0
2, 14163, Note_on_c, 0, 65, 0
2, 14165, Note_on_c, 0, 61, 0
2, 14166, Note_on_c, 0, 55, 0
2, 14214, Control_c, 0, 64, 0
2, 14216, Note_on_c, 0, 61, 55
2, 14217, Note_on_c, 0, 100, 47
2, 14217, Note_on_c, 0, 88, 47
2, 14218, Note_on_c, 0, 55, 63
2, 14219, Note_on_c, 0, 95, 42
2, 14219, Note_on_c, 0, 65, 53
2, 14230, Control_c, 0, 64, 127
2, 14233, Note_on_c, 0, 88, 0
2, 14237, Note_on_c, 0, 95, 0
2, 14240, Note_on_c, 0, 55, 0
2, 14241, Note_on_c, 0, 100, 0
2, 14246, Note_on_c, 0, 65, 0
2, 14270, Note_on_c, 0, 61, 0
2, 14305, Note_on_c, 0, 105, 55
2, 14305, Note_on_c, 0, 100, 49
2, 14305, Note_on_c, 0, 61, 48
2, 14306, Note_on_c, 0, 93, 47
2, 14307, Note_on_c, 0, 55, 60
2, 14308, Note_on_c, 0, 65, 49
2, 14328, Note_on_c, 0, 105, 0
2, 14329, Note_on_c, 0, 55, 0
2, 14329, Note_on_c, 0, 100, 0
2, 14332, Note_on_c, 0, 65, 0
2, 14336, Note_on_c, 0, 93, 0
2, 14368, Note_on_c, 0, 61, 0
2, 14393, Note_on_c, 0, 61, 28
2, 14394, Note_on_c, 0, 54, 39
2, 14395, Note_on_c, 0, 86, 51
2, 14396, Note_on_c, 0, 64, 38
2, 14397, Note_on_c, 0, 98, 44
2, 14401, Note_on_c, 0, 59, 50
2, 14403, Control_c, 0, 64, 0
2, 14443, Note_on_c, 0, 59, 0
2, 14451, Note_on_c, 0, 61, 0
2, 14452, Note_on_c, 0, 64, 0
2, 14487, Note_on_c, 0, 64, 32
2, 14488, Note_on_c, 0, 61, 29
2, 14491, Note_on_c, 0, 98, 0
2, 14491, Note_on_c, 0, 59, 35
2, 14500, Note_on_c, 0, 86, 0
2, 14501, Note_on_c, 0, 59, 0
2, 14502, Note_on_c, 0, 61, 0
2, 14503, Note_on_c, 0, 64, 0
2, 14579, Note_on_c, 0, 61, 38
2, 14580, Note_on_c, 0, 64, 35
2, 14584, Note_on_c, 0, 59, 43
2, 14597, Note_on_c, 0, 64, 0
2, 14598, Note_on_c, 0, 59, 0
2, 14602, Note_on_c, 0, 61, 0
2, 14671, Note_on_c, 0, 61, 37
2, 14699, Note_on_c, 0, 69, 64
2, 14699, Note_on_c, 0, 66, 49
2, 14703, Note_on_c, 0, 61, 0
2, 14724, Note_on_c, 0, 54, 0
2, 14730, Note_on_c, 0, 66, 0
2, 14752, Note_on_c, 0, 69, 0
2, 14758, Note_on_c, 0, 62, 55
2, 14759, Note_on_c, 0, 66, 39
2, 14762, Note_on_c, 0, 47, 56
2, 14800, Control_c, 0, 64, 127
2, 14801, Note_on_c, 0, 62, 0
2, 14824, Note_on_c, 0, 66, 0
2, 14845, Control_c, 0, 64, 0
2, 14846, Note_on_c, 0, 62, 58
2, 14847, Note_on_c, 0, 54, 35
2, 14850, Note_on_c, 0, 57, 25
2, 14859, Note_on_c, 0, 57, 0
2, 14860, Control_c, 0, 64, 127
2, 14872, Note_on_c, 0, 54, 0
2, 14872, Note_on_c, 0, 62, 0
2, 14911, Note_on_c, 0, 57, 57
2, 14912, Note_on_c, 0, 54, 45
2, 14920, Note_on_c, 0, 57, 0
2, 14923, Note_on_c, 0, 47, 0
2, 14934, Note_on_c, 0, 54, 0
2, 14939, Note_on_c, 0, 71, 82
2, 14942, Control_c, 0, 64, 0
2, 14943, Note_on_c, 0, 75, 48
2, 14949, Note_on_c, 0, 75, 0
2, 14955, Note_on_c, 0, 71, 0
2, 14970, Note_on_c, 0, 71, 72
2, 14987, Note_on_c, 0, 71, 0
2, 14998, Note_on_c, 0, 73, 50
2, 15011, Note_on_c, 0, 73, 0
2, 15027, Note_on_c, 0, 73, 55
2, 15044, Note_on_c, 0, 73, 0
2, 15055, Note_on_c, 0, 74, 76
2, 15071, Note_on_c, 0, 74, 0
2, 15080, Control_c, 0, 64, 127
2, 15088, Note_on_c, 0, 74, 57
2, 15104, Note_on_c, 0, 74, 0
2, 15116, Note_on_c, 0, 74, 80
2, 15118, Control_c, 0, 64, 0
2, 15118, Note_on_c, 0, 56, 53
2, 15119, Note_on_c, 0, 67, 56
2, 15119, Note_on_c, 0, 62, 55
2, 15152, Control_c, 0, 64, 127
2, 15184, Note_on_c, 0, 67, 0
2, 15187, Note_on_c, 0, 56, 0
2, 15189, Note_on_c, 0, 62, 0
2, 15210, Note_on_c, 0, 74, 0
2, 15215, Note_on_c, 0, 67, 64
2, 15216, Note_on_c, 0, 56, 51
2, 15216, Note_on_c, 0, 76, 74
2, 15217, Note_on_c, 0, 62, 58
2, 15228, Control_c, 0, 64, 0
2, 15241, Control_c, 0, 64, 127
2, 15266, Note_on_c, 0, 67, 0
2, 15267, Note_on_c, 0, 56, 0
2, 15267, Note_on_c, 0, 62, 0
2, 15275, Note_on_c, 0, 76, 0
2, 15307, Note_on_c, 0, 76, 71
2, 15309, Note_on_c, 0, 56, 50
2, 15309, Note_on_c, 0, 67, 57
2, 15310, Note_on_c, 0, 62, 50
2, 15312, Control_c, 0, 64, 0
2, 15346, Control_c, 0, 64, 127
2, 15370, Note_on_c, 0, 67, 0
2, 15371, Note_on_c, 0, 62, 0
2, 15372, Note_on_c, 0, 56, 0
2, 15400, Note_on_c, 0, 56, 38
2, 15400, Note_on_c, 0, 67, 49
2, 15402, Note_on_c, 0, 62, 53
2, 15423, Note_on_c, 0, 67, 0
2, 15427, Note_on_c, 0, 62, 0
2, 15432, Note_on_c, 0, 56, 0
2, 15487, Note_on_c, 0, 57, 64
2, 15488, Note_on_c, 0, 68, 63
2, 15489, Note_on_c, 0, 63, 55
2, 15489, Control_c, 0, 64, 0
2, 15518, Control_c, 0, 64, 127
2, 15538, Note_on_c, 0, 57, 0
2, 15548, Note_on_c, 0, 68, 0
2, 15554, Note_on_c, 0, 63, 0
2, 15569, Note_on_c, 0, 67, 60
2, 15571, Control_c, 0, 64, 0
2, 15572, Note_on_c, 0, 56, 35
2, 15572, Note_on_c, 0, 62, 52
2, 15588, Note_on_c, 0, 67, 0
2, 15590, Note_on_c, 0, 56, 0
2, 15594, Note_on_c, 0, 62, 0
2, 15657, Note_on_c, 0, 56, 56
2, 15659, Note_on_c, 0, 67, 60
2, 15660, Note_on_c, 0, 62, 56
2, 15663, Control_c, 0, 64, 127
2, 15697, Note_on_c, 0, 62, 0
2, 15702, Note_on_c, 0, 67, 0
2, 15709, Note_on_c, 0, 56, 0
2, 15734, Note_on_c, 0, 76, 0
2, 15747, Note_on_c, 0, 67, 48
2, 15747, Note_on_c, 0, 56, 57
2, 15750, Note_on_c, 0, 62, 49
2, 15756, Note_on_c, 0, 67, 0
2, 15759, Note_on_c, 0, 62, 0
2, 15772, Note_on_c, 0, 56, 0
2, 15837, Note_on_c, 0, 66, 57
2, 15837, Note_on_c, 0, 45, 57
2, 15838, Note_on_c, 0, 62, 60
2, 15839, Note_on_c, 0, 57, 53
2, 15845, Control_c, 0, 64, 0
2, 15874, Control_c, 0, 64, 127
2, 15895, Note_on_c, 0, 45, 0
2, 15922, Control_c, 0, 64, 0
2, 15924, Note_on_c, 0, 45, 55
2, 15937, Control_c, 0, 64, 127
2, 15943, Note_on_c, 0, 45, 0
2, 15988, Note_on_c, 0, 45, 56
2, 15990, Control_c, 0, 64, 0
2, 16004, Note_on_c, 0, 45, 0
2, 16008, Control_c, 0, 64, 127
2, 16031, Note_on_c, 0, 57, 0
2, 16031, Note_on_c, 0, 62, 0
2, 16043, Note_on_c, 0, 42, 37
2, 16045, Note_on_c, 0, 66, 0
2, 16048, Note_on_c, 0, 39, 20
2, 16061, Note_on_c, 0, 42, 0
2, 16065, Note_on_c, 0, 39, 0
2, 16072, Note_on_c, 0, 61, 51
2, 16072, Control_c, 0, 64, 0
2, 16073, Note_on_c, 0, 56, 37
2, 16073, Note_on_c, 0, 65, 45
2, 16093, Note_on_c, 0, 65, 0
2, 16096, Note_on_c, 0, 56, 0
2, 16100, Note_on_c, 0, 61, 0
2, 16126, Note_on_c, 0, 66, 52
2, 16130, Note_on_c, 0, 45, 53
2, 16133, Note_on_c, 0, 62, 35
2, 16141, Note_on_c, 0, 45, 0
2, 16145, Note_on_c, 0, 62, 0
2, 16151, Note_on_c, 0, 66, 0
2, 16187, Note_on_c, 0, 56, 44
2, 16189, Note_on_c, 0, 61, 46
2, 16190, Note_on_c, 0, 65, 50
2, 16190, Note_on_c, 0, 45, 43
2, 16193, Note_on_c, 0, 33, 31
2, 16206, Control_c, 0, 64, 127
2, 16210, Note_on_c, 0, 45, 0
2, 16215, Note_on_c, 0, 33, 0
2, 16268, Control_c, 0, 64, 0
2, 16272, Note_on_c, 0, 45, 55
2, 16281, Note_on_c, 0, 45, 0
2, 16299, Control_c, 0, 64, 127
2, 16305, Note_on_c, 0, 45, 38
2, 16316, Note_on_c, 0, 45, 0
2, 16351, Control_c, 0, 64, 0
2, 16362, Control_c, 0, 64, 127
2, 16364, Note_on_c, 0, 45, 55
2, 16373, Note_on_c, 0, 45, 0
2, 16410, Control_c, 0, 64, 0
2, 16421, Control_c, 0, 64, 127
2, 16427, Note_on_c, 0, 45, 61
2, 16438, Note_on_c, 0, 45, 0
2, 16487, Note_on_c, 0, 45, 63
2, 16493, Note_on_c, 0, 65, 0
2, 16498, Note_on_c, 0, 56, 0
2, 16501, Note_on_c, 0, 45, 0
2, 16515, Note_on_c, 0, 61, 0
2, 16547, Note_on_c, 0, 64, 82
2, 16548, Note_on_c, 0, 55, 90
2, 16549, Note_on_c, 0, 60, 85
2, 16550, Note_on_c, 0, 45, 87
2, 16554, Control_c, 0, 64, 0
2, 16590, Control_c, 0, 64, 127
2, 16593, Note_on_c, 0, 45, 0
2, 16638, Control_c, 0, 64, 0
2, 16639, Note_on_c, 0, 45, 69
2, 16653, Note_on_c, 0, 45, 0
2, 16670, Control_c, 0, 64, 127
2, 16699, Control_c, 0, 64, 0
2, 16704, Note_on_c, 0, 45, 67
2, 16719, Note_on_c, 0, 45, 0
2, 16730, Control_c, 0, 64, 127
2, 16758, Control_c, 0, 64, 0
2, 16761, Note_on_c, 0, 45, 65
2, 16765, Note_on_c, 0, 55, 0
2, 16769, Note_on_c, 0, 45, 0
2, 16770, Note_on_c, 0, 64, 0
2, 16773, Note_on_c, 0, 60, 0
2, 16785, Note_on_c, 0, 45, 58
2, 16786, Note_on_c, 0, 54, 52
2, 16787, Note_on_c, 0, 63, 44
2, 16796, Note_on_c, 0, 59, 27
2, 16804, Note_on_c, 0, 45, 0
2, 16804, Control_c, 0, 64, 127
2, 16806, Note_on_c, 0, 59, 0
2, 16816, Note_on_c, 0, 54, 0
2, 16817, Note_on_c, 0, 63, 0
2, 16842, Control_c, 0, 64, 0
2, 16848, Note_on_c, 0, 45, 50
2, 16849, Note_on_c, 0, 55, 51
2, 16851, Note_on_c, 0, 60, 51
2, 16854, Note_on_c, 0, 64, 28
2, 16857, Note_on_c, 0, 55, 0
2, 16858, Note_on_c, 0, 45, 0
2, 16859, Note_on_c, 0, 60, 0
2, 16863, Note_on_c, 0, 64, 0
2, 16910, Note_on_c, 0, 54, 67
2, 16911, Note_on_c, 0, 63, 56
2, 16912, Note_on_c, 0, 59, 64
2, 16914, Control_c, 0, 64, 127
2, 16915, Note_on_c, 0, 45, 57
2, 16970, Note_on_c, 0, 45, 0
2, 17028, Note_on_c, 0, 45, 55
2, 17046, Note_on_c, 0, 45, 0
2, 17094, Note_on_c, 0, 45, 54
2, 17104, Note_on_c, 0, 59, 0
2, 17111, Note_on_c, 0, 45, 0
2, 17127, Note_on_c, 0, 54, 0
2, 17130, Note_on_c, 0, 63, 0
2, 17157, Note_on_c, 0, 62, 55
2, 17157, Note_on_c, 0, 45, 46
2, 17158, Note_on_c, 0, 53, 39
2, 17160, Note_on_c, 0, 58, 38
2, 17176, Note_on_c, 0, 45, 0
2, 17202, Note_on_c, 0, 53, 0
2, 17228, Note_on_c, 0, 58, 0
2, 17241, Note_on_c, 0, 62, 0
2, 17269, Control_c, 0, 64, 0
2, 17279, Note_on_c, 0, 45, 43
2, 17279, Note_on_c, 0, 57, 48
2, 17280, Note_on_c, 0, 61, 33
2, 17280, Note_on_c, 0, 38, 42
2, 17290, Control_c, 0, 64, 127
2, 17297, Note_on_c, 0, 38, 0
2, 17300, Note_on_c, 0, 45, 0
2, 17310, Note_on_c, 0, 57, 0
2, 17330, Note_on_c, 0, 61, 0
2, 17405, Note_on_c, 0, 61, 28
2, 17405, Note_on_c, 0, 54, 33
2, 17411, Note_on_c, 0, 59, 25
2, 17417, Control_c, 0, 64, 0
2, 17418, Note_on_c, 0, 59, 0
2, 17419, Note_on_c, 0, 61, 0
2, 17421, Note_on_c, 0, 54, 0
2, 17460, Note_on_c, 0, 64, 47
2, 17486, Note_on_c, 0, 64, 0
2, 17490, Note_on_c, 0, 66, 57
2, 17503, Note_on_c, 0, 66, 0
2, 17520, Note_on_c, 0, 73, 48
2, 17546, Note_on_c, 0, 73, 0
2, 17550, Note_on_c, 0, 69, 30
2, 17562, Note_on_c, 0, 69, 0
2, 17580, Note_on_c, 0, 71, 52
2, 17608, Note_on_c, 0, 71, 0
2, 17610, Note_on_c, 0, 73, 58
2, 17610, Note_on_c, 0, 64, 57
2, 17610, Note_on_c, 0, 61, 37
2, 17610, Note_on_c, 0, 54, 32
2, 17620, Note_on_c, 0, 64, 0
2, 17623, Note_on_c, 0, 54, 0
2, 17624, Note_on_c, 0, 73, 0
2, 17633, Note_on_c, 0, 61, 0
2, 17640, Note_on_c, 0, 76, 32
2, 17658, Note_on_c, 0, 76, 0
2, 17670, Note_on_c, 0, 78, 59
2, 17684, Note_on_c, 0, 78, 0
2, 17700, Note_on_c, 0, 83, 68
2, 17725, Note_on_c, 0, 83, 0
2, 17730, Note_on_c, 0, 78, 37
2, 17737, Note_on_c, 0, 78, 0
2, 17760, Note_on_c, 0, 81, 51
2, 17777, Note_on_c, 0, 81, 0
2, 17790, Note_on_c, 0, 83, 47
2, 17808, Note_on_c, 0, 83, 0
2, 17850, Note_on_c, 0, 61, 38
2, 17850, Note_on_c, 0, 88, 72
2, 17850, Note_on_c, 0, 64, 34
2, 17850, Note_on_c, 0, 54, 21
2, 17850, Note_on_c, 0, 59, 30
2, 17858, Note_on_c, 0, 59, 0
2, 17860, Note_on_c, 0, 64, 0
2, 17864, Note_on_c, 0, 54, 0
2, 17871, Note_on_c, 0, 61, 0
2, 17874, Note_on_c, 0, 88, 0
2, 17880, Note_on_c, 0, 93, 65
2, 17900, Note_on_c, 0, 93, 0
2, 17910, Note_on_c, 0, 97, 68
2, 17929, Note_on_c, 0, 97, 0
2, 17940, Note_on_c, 0, 100, 81
2, 17940, Note_on_c, 0, 64, 61
2, 17940, Note_on_c, 0, 61, 40
2, 17940, Note_on_c, 0, 54, 40
2, 17940, Note_on_c, 0, 59, 55
2, 17978, Note_on_c, 0, 59, 0
2, 17979, Note_on_c, 0, 54, 0
2, 17987, Note_on_c, 0, 61, 0
2, 17987, Note_on_c, 0, 64, 0
2, 17989, Note_on_c, 0, 100, 0
2, 17995, Note_on_c, 0, 61, 37
2, 17996, Note_on_c, 0, 64, 70
2, 17996, Note_on_c, 0, 54, 50
2, 17998, Note_on_c, 0, 97, 77
2, 17999, Note_on_c, 0, 59, 64
2, 18060, Note_on_c, 0, 64, 0
2, 18062, Note_on_c, 0, 97, 0
2, 18063, Note_on_c, 0, 61, 0
2, 18063, Note_on_c, 0, 59, 0
2, 18084, Note_on_c, 0, 93, 68
2, 18088, Note_on_c, 0, 61, 39
2, 18090, Note_on_c, 0, 64, 34
2, 18091, Note_on_c, 0, 59, 43
2, 18108, Note_on_c, 0, 93, 0
2, 18114, Note_on_c, 0, 90, 44
2, 18148, Note_on_c, 0, 90, 0
2, 18154, Note_on_c, 0, 88, 57
2, 18161, Note_on_c, 0, 88, 0
2, 18171, Note_on_c, 0, 59, 0
2, 18184, Note_on_c, 0, 64, 0
2, 18185, Note_on_c, 0, 61, 0
2, 18194, Note_on_c, 0, 54, 0
2, 18237, Note_on_c, 0, 64, 53
2, 18239, Note_on_c, 0, 61, 35
2, 18240, Note_on_c, 0, 54, 30
2, 18242, Note_on_c, 0, 59, 43
2, 18249, Note_on_c, 0, 64, 0
2, 18251, Note_on_c, 0, 59, 0
2, 18255, Note_on_c, 0, 54, 0
2, 18255, Note_on_c, 0, 61, 0
2, 18300, Note_on_c, 0, 54, 46
2, 18301, Note_on_c, 0, 64, 40
2, 18302, Note_on_c, 0, 61, 36
2, 18303, Note_on_c, 0, 59, 54
2, 18316, Note_on_c, 0, 64, 0
2, 18322, Note_on_c, 0, 61, 0
2, 18327, Note_on_c, 0, 59, 0
2, 18329, Note_on_c, 0, 54, 0
2, 18364, Note_on_c, 0, 71, 76
2, 18364, Note_on_c, 0, 74, 74
2, 18364, Note_on_c, 0, 54, 63
2, 18365, Note_on_c, 0, 67, 76
2, 18366, Note_on_c, 0, 62, 67
2, 18387, Control_c, 0, 64, 127
2, 18426, Note_on_c, 0, 62, 0
2, 18434, Note_on_c, 0, 71, 0
2, 18434, Note_on_c, 0, 67, 0
2, 18452, Note_on_c, 0, 71, 67
2, 18453, Note_on_c, 0, 62, 54
2, 18454, Note_on_c, 0, 67, 55
2, 18462, Note_on_c, 0, 74, 0
2, 18480, Note_on_c, 0, 62, 0
2, 18484, Note_on_c, 0, 67, 0
2, 18484, Note_on_c, 0, 71, 0
2, 18542, Note_on_c, 0, 73, 46
2, 18543, Note_on_c, 0, 69, 68
2, 18545, Note_on_c, 0, 64, 57
2, 18545, Note_on_c, 0, 61, 56
2, 18549, Control_c, 0, 64, 0
2, 18584, Control_c, 0, 64, 127
2, 18596, Note_on_c, 0, 61, 0
2, 18598, Note_on_c, 0, 69, 0
2, 18612, Note_on_c, 0, 64, 0
2, 18629, Note_on_c, 0, 69, 69
2, 18632, Note_on_c, 0, 61, 50
2, 18643, Control_c, 0, 64, 0
2, 18654, Control_c, 0, 64, 127
2, 18657, Note_on_c, 0, 69, 0
2, 18661, Note_on_c, 0, 64, 35
2, 18662, Note_on_c, 0, 73, 0
2, 18667, Note_on_c, 0, 54, 0
2, 18695, Note_on_c, 0, 61, 0
2, 18696, Note_on_c, 0, 64, 0
2, 18715, Note_on_c, 0, 61, 33
2, 18718, Note_on_c, 0, 66, 54
2, 18719, Note_on_c, 0, 54, 36
2, 18722, Note_on_c, 0, 59, 38
2, 18726, Control_c, 0, 64, 0
2, 18755, Control_c, 0, 64, 127
2, 18831, Note_on_c, 0, 66, 0
2, 18832, Note_on_c, 0, 59, 0
2, 18835, Note_on_c, 0, 61, 0
2, 18971, Note_on_c, 0, 57, 57
2, 18988, Note_on_c, 0, 57, 0
2, 19002, Note_on_c, 0, 59, 62
2, 19005, Control_c, 0, 64, 0
2, 19018, Note_on_c, 0, 59, 0
2, 19030, Note_on_c, 0, 54, 0
2, 19030, Note_on_c, 0, 61, 57
2, 19051, Note_on_c, 0, 61, 0
2, 19060, Note_on_c, 0, 64, 64
2, 19067, Note_on_c, 0, 54, 46
2, 19080, Note_on_c, 0, 59, 50
2, 19082, Note_on_c, 0, 64, 0
2, 19101, Note_on_c, 0, 59, 0
2, 19110, Note_on_c, 0, 61, 55
2, 19126, Note_on_c, 0, 61, 0
2, 19140, Note_on_c, 0, 62, 58
2, 19156, Note_on_c, 0, 62, 0
2, 19170, Note_on_c, 0, 64, 48
2, 19190, Note_on_c, 0, 64, 0
2, 19230, Note_on_c, 0, 66, 64
2, 19230, Note_on_c, 0, 61, 21
2, 19250, Note_on_c, 0, 61, 0
2, 19254, Note_on_c, 0, 66, 0
2, 19260, Note_on_c, 0, 68, 50
2, 19272, Note_on_c, 0, 68, 0
2, 19273, Control_c, 0, 64, 127
2, 19283, Control_c, 0, 64, 0
2, 19290, Note_on_c, 0, 71, 64
2, 19315, Note_on_c, 0, 71, 0
2, 19320, Note_on_c, 0, 73, 25
2, 19325, Control_c, 0, 64, 127
2, 19327, Note_on_c, 0, 54, 0
2, 19347, Note_on_c, 0, 73, 0
2, 19349, Control_c, 0, 64, 0
2, 19350, Note_on_c, 0, 74, 71
2, 19367, Note_on_c, 0, 74, 0
2, 19380, Note_on_c, 0, 59, 41
2, 19380, Note_on_c, 0, 53, 41
2, 19380, Note_on_c, 0, 62, 27
2, 19380, Note_on_c, 0, 77, 89
2, 19380, Note_on_c, 0, 56, 32
2, 19391, Note_on_c, 0, 62, 0
2, 19396, Note_on_c, 0, 56, 0
2, 19396, Note_on_c, 0, 59, 0
2, 19399, Note_on_c, 0, 53, 0
2, 19401, Control_c, 0, 64, 127
2, 19410, Note_on_c, 0, 74, 57
2, 19414, Note_on_c, 0, 77, 0
2, 19422, Note_on_c, 0, 74, 0
2, 19426, Control_c, 0, 64, 0
2, 19440, Note_on_c, 0, 76, 79
2, 19440, Note_on_c, 0, 55, 44
2, 19465, Note_on_c, 0, 76, 0
2, 19467, Note_on_c, 0, 55, 0
2, 19470, Note_on_c, 0, 73, 38
2, 19490, Note_on_c, 0, 73, 0
2, 19500, Note_on_c, 0, 69, 54
2, 19511, Control_c, 0, 64, 127
2, 19530, Note_on_c, 0, 61, 34
2, 19534, Control_c, 0, 64, 0
2, 19540, Note_on_c, 0, 69, 0
2, 19546, Note_on_c, 0, 61, 0
2, 19560, Note_on_c, 0, 64, 20
2, 19569, Note_on_c, 0, 64, 0
2, 19569, Control_c, 0, 64, 127
2, 19584, Control_c, 0, 64, 0
2, 19616, Note_on_c, 0, 61, 47
2, 19617, Note_on_c, 0, 64, 43
2, 19618, Note_on_c, 0, 55, 40
2, 19620, Control_c, 0, 64, 127
2, 19628, Note_on_c, 0, 55, 0
2, 19628, Note_on_c, 0, 64, 0
2, 19636, Note_on_c, 0, 61, 0
2, 19637, Control_c, 0, 64, 0
2, 19670, Control_c, 0, 64, 127
2, 19702, Control_c, 0, 64, 0
2, 19713, Note_on_c, 0, 64, 42
2, 19714, Note_on_c, 0, 55, 47
2, 19715, Note_on_c, 0, 61, 27
2, 19726, Note_on_c, 0, 55, 0
2, 19729, Note_on_c, 0, 64, 0
2, 19731, Note_on_c, 0, 61, 0
2, 19732, Control_c, 0, 64, 127
2, 19795, Note_on_c, 0, 61, 44
2, 19795, Note_on_c, 0, 55, 60
2, 19796, Note_on_c, 0, 64, 40
2, 19801, Control_c, 0, 64, 0
2, 19874, Note_on_c, 0, 64, 0
2, 19883, Note_on_c, 0, 61, 0
2, 19893, Note_on_c, 0, 61, 29
2, 19895, Note_on_c, 0, 64, 36
2, 19898, Note_on_c, 0, 81, 76
2, 19910, Note_on_c, 0, 64, 0
2, 19922, Note_on_c, 0, 82, 43
2, 19933, Note_on_c, 0, 81, 0
2, 19933, Note_on_c, 0, 83, 55
2, 19936, Note_on_c, 0, 55, 0
2, 19937, Note_on_c, 0, 82, 0
2, 19938, Note_on_c, 0, 61, 0
2, 19953, Note_on_c, 0, 83, 0
2, 19955, Note_on_c, 0, 84, 75
2, 19963, Note_on_c, 0, 61, 15
2, 19979, Note_on_c, 0, 61, 0
2, 19980, Note_on_c, 0, 82, 62
2, 19985, Note_on_c, 0, 84, 0
2, 19996, Note_on_c, 0, 82, 0
2, 20034, Note_on_c, 0, 76, 62
2, 20056, Note_on_c, 0, 77, 36
2, 20062, Note_on_c, 0, 78, 42
2, 20063, Note_on_c, 0, 76, 0
2, 20078, Note_on_c, 0, 78, 0
2, 20079, Note_on_c, 0, 79, 63
2, 20081, Note_on_c, 0, 61, 31
2, 20084, Note_on_c, 0, 77, 0
2, 20103, Note_on_c, 0, 61, 0
2, 20105, Note_on_c, 0, 77, 54
2, 20113, Note_on_c, 0, 79, 0
2, 20145, Note_on_c, 0, 77, 0
2, 20160, Note_on_c, 0, 61, 47
2, 20161, Note_on_c, 0, 64, 58
2, 20162, Note_on_c, 0, 76, 71
2, 20165, Note_on_c, 0, 59, 48
2, 20166, Note_on_c, 0, 54, 32
2, 20233, Note_on_c, 0, 64, 0
2, 20242, Note_on_c, 0, 59, 0
2, 20254, Note_on_c, 0, 76, 0
2, 20256, Note_on_c, 0, 73, 36
2, 20272, Note_on_c, 0, 73, 0
2, 20280, Note_on_c, 0, 74, 61
2, 20283, Note_on_c, 0, 61, 0
2, 20306, Note_on_c, 0, 74, 0
2, 20309, Note_on_c, 0, 61, 27
2, 20314, Note_on_c, 0, 69, 55
2, 20331, Note_on_c, 0, 61, 0
2, 20332, Note_on_c, 0, 69, 0
2, 20340, Note_on_c, 0, 66, 47
2, 20341, Note_on_c, 0, 54, 0
2, 20342, Control_c, 0, 64, 127
2, 20361, Note_on_c, 0, 66, 0
2, 20380, Note_on_c, 0, 62, 28
2, 20390, Note_on_c, 0, 62, 0
2, 20399, Note_on_c, 0, 61, 35
2, 20401, Control_c, 0, 64, 0
2, 20404, Note_on_c, 0, 54, 28
2, 20404, Note_on_c, 0, 66, 63
2, 20407, Note_on_c, 0, 59, 29
2, 20425, Note_on_c, 0, 59, 0
2, 20429, Note_on_c, 0, 61, 0
2, 20435, Note_on_c, 0, 54, 0
2, 20460, Control_c, 0, 64, 127
2, 20466, Note_on_c, 0, 62, 54
2, 20500, Note_on_c, 0, 66, 0
2, 20503, Note_on_c, 0, 62, 0
2, 20525, Note_on_c, 0, 54, 36
2, 20526, Note_on_c, 0, 47, 40
2, 20529, Control_c, 0, 64, 0
2, 20530, Note_on_c, 0, 62, 46
2, 20565, Control_c, 0, 64, 127
2, 20587, Note_on_c, 0, 54, 0
2, 20605, Note_on_c, 0, 47, 0
2, 20605, Control_c, 0, 64, 0
2, 20611, Note_on_c, 0, 62, 0
2, 20620, Note_on_c, 0, 57, 52
2, 20622, Note_on_c, 0, 54, 29
2, 20625, Note_on_c, 0, 47, 30
2, 20626, Control_c, 0, 64, 127
2, 20637, Note_on_c, 0, 66, 1
2, 20649, Note_on_c, 0, 47, 0
2, 20660, Note_on_c, 0, 54, 0
2, 20699, Note_on_c, 0, 54, 43
2, 20701, Note_on_c, 0, 47, 49
2, 20704, Control_c, 0, 64, 0
2, 20733, Control_c, 0, 64, 127
2, 20753, Note_on_c, 0, 57, 0
2, 20756, Note_on_c, 0, 47, 0
2, 20760, Note_on_c, 0, 54, 0
2, 20792, Note_on_c, 0, 54, 37
2, 20795, Note_on_c, 0, 47, 31
2, 20797, Note_on_c, 0, 57, 48
2, 20804, Note_on_c, 0, 47, 0
2, 20805, Note_on_c, 0, 66, 0
2, 20813, Note_on_c, 0, 54, 0
2, 20822, Note_on_c, 0, 57, 0
2, 20883, Note_on_c, 0, 62, 44
2, 20884, Note_on_c, 0, 52, 46
2, 20885, Note_on_c, 0, 56, 38
2, 20893, Control_c, 0, 64, 0
2, 20942, Note_on_c, 0, 62, 0
2, 20979, Note_on_c, 0, 56, 0
2, 21027, Note_on_c, 0, 52, 0
2, 21030, Note_on_c, 0, 56, 55
2, 21046, Note_on_c, 0, 56, 0
2, 21060, Note_on_c, 0, 59, 60
2, 21080, Note_on_c, 0, 59, 0
2, 21090, Note_on_c, 0, 62, 67
2, 21106, Note_on_c, 0, 62, 0
2, 21120, Note_on_c, 0, 63, 67
2, 21131, Note_on_c, 0, 63, 0
2, 21150, Note_on_c, 0, 64, 68
2, 21175, Note_on_c, 0, 64, 0
2, 21180, Note_on_c, 0, 65, 59
2, 21193, Note_on_c, 0, 65, 0
2, 21217, Note_on_c, 0, 68, 44
2, 21226, Note_on_c, 0, 68, 0
2, 21240, Note_on_c, 0, 71, 79
2, 21240, Note_on_c, 0, 74, 55
2, 21240, Note_on_c, 0, 72, 60
2, 21254, Note_on_c, 0, 72, 0
2, 21263, Note_on_c, 0, 74, 0
2, 21266, Note_on_c, 0, 71, 0
2, 21270, Note_on_c, 0, 75, 70
2, 21283, Note_on_c, 0, 75, 0
2, 21300, Note_on_c, 0, 76, 75
2, 21330, Note_on_c, 0, 77, 57
2, 21331, Note_on_c, 0, 76, 0
2, 21343, Note_on_c, 0, 77, 0
2, 21360, Note_on_c, 0, 80, 63
2, 21371, Note_on_c, 0, 80, 0
2, 21390, Note_on_c, 0, 83, 59
2, 21420, Note_on_c, 0, 83, 0
2, 21420, Note_on_c, 0, 85, 63
2, 21426, Note_on_c, 0, 85, 0
2, 21450, Note_on_c, 0, 86, 79
2, 21469, Note_on_c, 0, 86, 0
2, 21480, Note_on_c, 0, 88, 77
2, 21480, Note_on_c, 0, 87, 38
2, 21486, Note_on_c, 0, 87, 0
2, 21503, Note_on_c, 0, 88, 0
2, 21510, Note_on_c, 0, 89, 71
2, 21527, Note_on_c, 0, 89, 0
2, 21540, Note_on_c, 0, 92, 54
2, 21551, Note_on_c, 0, 92, 0
2, 21570, Note_on_c, 0, 93, 66
2, 21588, Note_on_c, 0, 93, 0
2, 21600, Note_on_c, 0, 93, 49
2, 21600, Note_on_c, 0, 95, 66
2, 21607, Note_on_c, 0, 93, 0
2, 21618, Note_on_c, 0, 95, 0
2, 21720, Note_on_c, 0, 57, 25
2, 21726, Note_on_c, 0, 57, 0
2, 21780, Note_on_c, 0, 62, 57
2, 21780, Note_on_c, 0, 57, 32
2, 21780, Note_on_c, 0, 67, 51
2, 21780, Note_on_c, 0, 71, 64
2, 21788, Note_on_c, 0, 57, 0
2, 21788, Note_on_c, 0, 62, 0
2, 21789, Note_on_c, 0, 67, 0
2, 21799, Note_on_c, 0, 71, 0
2, 21810, Note_on_c, 0, 67, 55
2, 21810, Note_on_c, 0, 71, 56
2, 21810, Note_on_c, 0, 62, 49
2, 21818, Note_on_c, 0, 62, 0
2, 21821, Note_on_c, 0, 71, 0
2, 21821, Note_on_c, 0, 67, 0
2, 21840, Note_on_c, 0, 61, 56
2, 21840, Note_on_c, 0, 70, 59
2, 21840, Note_on_c, 0, 66, 59
2, 21840, Note_on_c, 0, 57, 37
2, 21859, Note_on_c, 0, 57, 0
2, 21870, Note_on_c, 0, 61, 0
2, 21872, Note_on_c, 0, 66, 0
2, 21876, Note_on_c, 0, 70, 0
2, 21900, Note_on_c, 0, 62, 47
2, 21900, Note_on_c, 0, 67, 66
2, 21900, Note_on_c, 0, 57, 44
2, 21900, Note_on_c, 0, 71, 57
2, 21908, Note_on_c, 0, 57, 0
2, 21910, Note_on_c, 0, 71, 0
2, 21911, Note_on_c, 0, 62, 0
2, 21912, Note_on_c, 0, 67, 0
2, 21956, Note_on_c, 0, 70, 60
2, 21957, Note_on_c, 0, 66, 58
2, 21957, Note_on_c, 0, 61, 67
2, 21960, Note_on_c, 0, 57, 38
2, 21964, Note_on_c, 0, 61, 0
2, 21965, Note_on_c, 0, 66, 0
2, 21970, Note_on_c, 0, 57, 0
2, 21971, Note_on_c, 0, 70, 0
2, 21987, Note_on_c, 0, 70, 45
2, 21988, Note_on_c, 0, 66, 54
2, 21988, Note_on_c, 0, 61, 47
2, 22003, Note_on_c, 0, 61, 0
2, 22005, Note_on_c, 0, 66, 0
2, 22006, Note_on_c, 0, 70, 0
2, 22006, Note_on_c, 0, 57, 42
2, 22017, Note_on_c, 0, 60, 60
2, 22018, Note_on_c, 0, 69, 55
2, 22019, Note_on_c, 0, 65, 52
2, 22027, Note_on_c, 0, 57, 0
2, 22028, Note_on_c, 0, 65, 0
2, 22030, Note_on_c, 0, 60, 0
2, 22035, Note_on_c, 0, 69, 0
2, 22076, Note_on_c, 0, 57, 60
2, 22078, Note_on_c, 0, 61, 55
2, 22080, Note_on_c, 0, 66, 43
2, 22081, Note_on_c, 0, 70, 30
2, 22085, Note_on_c, 0, 61, 0
2, 22086, Note_on_c, 0, 66, 0
2, 22088, Note_on_c, 0, 70, 0
2, 22093, Note_on_c, 0, 57, 0
2, 22135, Note_on_c, 0, 61, 77
2, 22136, Note_on_c, 0, 66, 71
2, 22136, Note_on_c, 0, 70, 67
2, 22136, Note_on_c, 0, 57, 66
2, 22181, Note_on_c, 0, 57, 0
2, 22190, Note_on_c, 0, 66, 0
2, 22191, Note_on_c, 0, 70, 0
2, 22195, Note_on_c, 0, 61, 0
2, 22197, Note_on_c, 0, 57, 53
2, 22199, Note_on_c, 0, 69, 57
2, 22200, Note_on_c, 0, 60, 60
2, 22201, Note_on_c, 0, 65, 60
2, 22214, Note_on_c, 0, 60, 0
2, 22217, Note_on_c, 0, 65, 0
2, 22219, Note_on_c, 0, 69, 0
2, 22219, Note_on_c, 0, 57, 0
2, 22232, Note_on_c, 0, 61, 57
2, 22233, Note_on_c, 0, 66, 65
2, 22234, Note_on_c, 0, 70, 58
2, 22235, Note_on_c, 0, 57, 51
2, 22244, Note_on_c, 0, 61, 0
2, 22247, Note_on_c, 0, 57, 0
2, 22251, Note_on_c, 0, 66, 0
2, 22258, Note_on_c, 0, 70, 0
2, 22260, Note_on_c, 0, 57, 54
2, 22264, Note_on_c, 0, 69, 60
2, 22264, Note_on_c, 0, 60, 67
2, 22264, Note_on_c, 0, 65, 60
2, 22282, Note_on_c, 0, 60, 0
2, 22283, Note_on_c, 0, 69, 0
2, 22285, Note_on_c, 0, 57, 0
2, 22285, Note_on_c, 0, 65, 0
2, 22319, Note_on_c, 0, 57, 63
2, 22319, Note_on_c, 0, 68, 51
2, 22321, Note_on_c, 0, 64, 51
2, 22322, Note_on_c, 0, 59, 47
2, 22334, Note_on_c, 0, 59, 0
2, 22336, Note_on_c, 0, 64, 0
2, 22336, Note_on_c, 0, 57, 0
2, 22339, Note_on_c, 0, 68, 0
2, 22380, Note_on_c, 0, 68, 60
2, 22380, Note_on_c, 0, 57, 61
2, 22382, Note_on_c, 0, 64, 64
2, 22382, Note_on_c, 0, 59, 67
2, 22427, Control_c, 0, 64, 127
2, 22454, Note_on_c, 0, 59, 0
2, 22460, Note_on_c, 0, 57, 0
2, 22462, Note_on_c, 0, 64, 0
2, 22468, Note_on_c, 0, 68, 0
2, 22508, Note_on_c, 0, 57, 48
2, 22508, Note_on_c, 0, 58, 45
2, 22508, Note_on_c, 0, 63, 54
2, 22510, Note_on_c, 0, 67, 46
2, 22518, Note_on_c, 0, 57, 0
2, 22524, Note_on_c, 0, 58, 0
2, 22524, Note_on_c, 0, 67, 0
2, 22531, Note_on_c, 0, 63, 0
2, 22545, Note_on_c, 0, 59, 53
2, 22546, Note_on_c, 0, 64, 54
2, 22548, Note_on_c, 0, 57, 47
2, 22552, Control_c, 0, 64, 0
2, 22554, Note_on_c, 0, 59, 0
2, 22557, Note_on_c, 0, 57, 0
2, 22560, Note_on_c, 0, 64, 0
2, 22575, Note_on_c, 0, 57, 54
2, 22587, Note_on_c, 0, 57, 0
2, 22626, Note_on_c, 0, 63, 59
2, 22627, Note_on_c, 0, 67, 55
2, 22627, Note_on_c, 0, 57, 64
2, 22628, Note_on_c, 0, 58, 43
2, 22641, Note_on_c, 0, 57, 0
2, 22646, Note_on_c, 0, 58, 0
2, 22646, Note_on_c, 0, 67, 0
2, 22657, Note_on_c, 0, 63, 0
2, 22685, Note_on_c, 0, 66, 62
2, 22685, Note_on_c, 0, 57, 70
2, 22687, Note_on_c, 0, 62, 62
2, 22690, Control_c, 0, 64, 127
2, 22746, Note_on_c, 0, 57, 0
2, 22755, Note_on_c, 0, 62, 0
2, 22762, Note_on_c, 0, 66, 0
2, 22775, Note_on_c, 0, 56, 56
2, 22776, Note_on_c, 0, 65, 64
2, 22776, Note_on_c, 0, 61, 63
2, 22777, Note_on_c, 0, 57, 59
2, 22779, Control_c, 0, 64, 0
2, 22798, Control_c, 0, 64, 127
2, 22803, Note_on_c, 0, 57, 0
2, 22830, Note_on_c, 0, 65, 0
2, 22837, Note_on_c, 0, 56, 0
2, 22839, Note_on_c, 0, 61, 0
2, 22860, Note_on_c, 0, 57, 64
2, 22861, Note_on_c, 0, 64, 62
2, 22863, Note_on_c, 0, 55, 52
2, 22863, Control_c, 0, 64, 0
2, 22868, Note_on_c, 0, 60, 47
2, 22875, Note_on_c, 0, 57, 0
2, 22890, Control_c, 0, 64, 127
2, 22900, Note_on_c, 0, 64, 0
2, 22902, Note_on_c, 0, 55, 0
2, 22904, Note_on_c, 0, 60, 0
2, 22935, Control_c, 0, 64, 0
2, 22948, Note_on_c, 0, 39, 59
2, 22948, Note_on_c, 0, 63, 46
2, 22951, Note_on_c, 0, 58, 45
2, 22951, Note_on_c, 0, 54, 34
2, 22958, Note_on_c, 0, 54, 0
2, 22958, Control_c, 0, 64, 127
2, 22963, Note_on_c, 0, 58, 0
2, 22968, Note_on_c, 0, 27, 9
2, 22971, Note_on_c, 0, 63, 0
2, 22998, Control_c, 0, 64, 0
2, 23025, Note_on_c, 0, 39, 0
2, 23026, Note_on_c, 0, 27, 0
2, 23040, Control_c, 0, 64, 127
2, 23040, Control_c, 0, 64, 0
2, 23042, Note_on_c, 0, 61, 30
2, 23044, Note_on_c, 0, 54, 37
2, 23045, Note_on_c, 0, 64, 34
2, 23045, Note_on_c, 0, 74, 48
2, 23050, Note_on_c, 0, 59, 36
2, 23067, Control_c, 0, 64, 127
2, 23137, Note_on_c, 0, 81, 82
2, 23245, Note_on_c, 0, 61, 0
2, 23246, Note_on_c, 0, 64, 0
2, 23259, Note_on_c, 0, 74, 0
2, 23280, Note_on_c, 0, 59, 0
2, 23346, Note_on_c, 0, 71, 54
2, 23347, Note_on_c, 0, 73, 29
2, 23350, Note_on_c, 0, 61, 26
2, 23357, Control_c, 0, 64, 0
2, 23362, Note_on_c, 0, 71, 0
2, 23363, Note_on_c, 0, 73, 0
2, 23366, Note_on_c, 0, 61, 0
2, 23407, Note_on_c, 0, 71, 54
2, 23409, Note_on_c, 0, 73, 34
2, 23410, Note_on_c, 0, 61, 28
2, 23415, Note_on_c, 0, 64, 25
2, 23416, Note_on_c, 0, 59, 24
2, 23426, Note_on_c, 0, 73, 0
2, 23427, Note_on_c, 0, 71, 0
2, 23432, Note_on_c, 0, 61, 0
2, 23432, Note_on_c, 0, 64, 0
2, 23440, Note_on_c, 0, 59, 0
2, 23458, Control_c, 0, 64, 127
2, 23480, Control_c, 0, 64, 0
2, 23489, Note_on_c, 0, 71, 45
2, 23491, Note_on_c, 0, 73, 34
2, 23492, Note_on_c, 0, 61, 28
2, 23493, Note_on_c, 0, 64, 26
2, 23499, Note_on_c, 0, 59, 18
2, 23509, Control_c, 0, 64, 127
2, 23539, Note_on_c, 0, 71, 0
2, 23554, Note_on_c, 0, 73, 0
2, 23560, Note_on_c, 0, 81, 0
2, 23595, Note_on_c, 0, 64, 0
2, 23604, Note_on_c, 0, 61, 0
2, 23694, Note_on_c, 0, 59, 0
2, 23695, Note_on_c, 0, 83, 103
2, 23715, Control_c, 0, 64, 0
2, 23726, Note_on_c, 0, 84, 79
2, 23727, Note_on_c, 0, 54, 0
2, 23731, Note_on_c, 0, 83, 0
2, 23744, Note_on_c, 0, 84, 0
2, 23750, Note_on_c, 0, 54, 31
2, 23754, Note_on_c, 0, 85, 74
2, 23755, Note_on_c, 0, 61, 25
2, 23757, Note_on_c, 0, 64, 20
2, 23758, Note_on_c, 0, 59, 42
2, 23769, Note_on_c, 0, 85, 0
2, 23814, Note_on_c, 0, 78, 53
2, 23820, Note_on_c, 0, 78, 0
2, 23834, Note_on_c, 0, 64, 0
2, 23854, Note_on_c, 0, 59, 0
2, 23856, Note_on_c, 0, 61, 0
2, 23874, Note_on_c, 0, 78, 42
2, 23880, Note_on_c, 0, 78, 0
2, 23909, Note_on_c, 0, 78, 54
2, 23915, Note_on_c, 0, 78, 0
2, 23935, Note_on_c, 0, 78, 48
2, 23942, Note_on_c, 0, 78, 0
2, 23975, Note_on_c, 0, 54, 0
2, 23999, Note_on_c, 0, 78, 68
2, 24009, Note_on_c, 0, 78, 0
2, 24127, Note_on_c, 0, 62, 67
2, 24128, Note_on_c, 0, 66, 71
2, 24128, Note_on_c, 0, 55, 58
2, 24130, Note_on_c, 0, 59, 63
2, 24142, Note_on_c, 0, 66, 0
2, 24145, Note_on_c, 0, 55, 0
2, 24147, Note_on_c, 0, 59, 0
2, 24149, Note_on_c, 0, 62, 0
2, 24211, Note_on_c, 0, 62, 61
2, 24212, Note_on_c, 0, 66, 65
2, 24214, Note_on_c, 0, 55, 44
2, 24215, Note_on_c, 0, 59, 58
2, 24222, Note_on_c, 0, 55, 0
2, 24229, Note_on_c, 0, 66, 0
2, 24230, Note_on_c, 0, 62, 0
2, 24232, Note_on_c, 0, 59, 0
2, 24308, Note_on_c, 0, 55, 54
2, 24309, Note_on_c, 0, 61, 52
2, 24310, Note_on_c, 0, 66, 54
2, 24434, Note_on_c, 0, 83, 105
2, 24439, Note_on_c, 0, 55, 0
2, 24446, Note_on_c, 0, 66, 0
2, 24461, Note_on_c, 0, 83, 0
2, 24470, Note_on_c, 0, 88, 92
2, 24494, Note_on_c, 0, 54, 37
2, 24494, Note_on_c, 0, 64, 44
2, 24500, Note_on_c, 0, 85, 69
2, 24504, Note_on_c, 0, 88, 0
2, 24523, Note_on_c, 0, 59, 2
2, 24586, Note_on_c, 0, 78, 39
2, 24594, Note_on_c, 0, 85, 0
2, 24612, Note_on_c, 0, 78, 0
2, 24613, Note_on_c, 0, 76, 48
2, 24705, Note_on_c, 0, 76, 0
2, 24710, Note_on_c, 0, 81, 74
2, 24729, Note_on_c, 0, 81, 0
2, 24738, Note_on_c, 0, 78, 62
2, 24807, Note_on_c, 0, 59, 0
2, 24821, Note_on_c, 0, 64, 0
2, 24826, Note_on_c, 0, 61, 0
2, 24828, Note_on_c, 0, 73, 39
2, 24850, Note_on_c, 0, 78, 0
2, 24851, Note_on_c, 0, 73, 0
2, 24855, Note_on_c, 0, 71, 72
2, 24862, Note_on_c, 0, 62, 25
2, 24867, Note_on_c, 0, 59, 26
2, 24944, Note_on_c, 0, 71, 0
2, 24947, Note_on_c, 0, 74, 64
2, 24955, Note_on_c, 0, 62, 0
2, 24975, Note_on_c, 0, 74, 0
2, 24976, Note_on_c, 0, 68, 60
2, 24977, Note_on_c, 0, 62, 36
2, 24987, Note_on_c, 0, 74, 17
2, 25037, Note_on_c, 0, 62, 0
2, 25038, Note_on_c, 0, 59, 0
2, 25056, Note_on_c, 0, 74, 0
2, 25065, Note_on_c, 0, 68, 0
2, 25068, Note_on_c, 0, 65, 54
2, 25084, Note_on_c, 0, 65, 0
2, 25090, Note_on_c, 0, 59, 22
2, 25095, Note_on_c, 0, 62, 52
2, 25127, Note_on_c, 0, 59, 0
2, 25149, Note_on_c, 0, 54, 0
2, 25190, Note_on_c, 0, 62, 0
2, 25193, Note_on_c, 0, 59, 48
2, 25213, Note_on_c, 0, 59, 0
2, 25218, Note_on_c, 0, 61, 52
2, 25225, Note_on_c, 0, 55, 19
2, 25343, Note_on_c, 0, 55, 0
2, 25367, Note_on_c, 0, 61, 0
2, 25370, Note_on_c, 0, 57, 48
2, 25386, Note_on_c, 0, 57, 0
2, 25394, Note_on_c, 0, 58, 38
2, 25423, Note_on_c, 0, 58, 0
2, 25428, Note_on_c, 0, 60, 63
2, 25452, Note_on_c, 0, 61, 70
2, 25456, Note_on_c, 0, 60, 0
2, 25484, Note_on_c, 0, 63, 83
2, 25494, Note_on_c, 0, 61, 0
2, 25510, Note_on_c, 0, 63, 0
2, 25511, Note_on_c, 0, 62, 71
2, 25512, Note_on_c, 0, 64, 72
2, 25518, Note_on_c, 0, 62, 0
2, 25537, Note_on_c, 0, 66, 74
2, 25542, Note_on_c, 0, 64, 0
2, 25558, Note_on_c, 0, 66, 0
2, 25565, Note_on_c, 0, 67, 74
2, 25588, Note_on_c, 0, 67, 0
2, 25597, Note_on_c, 0, 69, 71
2, 25623, Note_on_c, 0, 69, 0
2, 25626, Note_on_c, 0, 70, 56
2, 25646, Note_on_c, 0, 70, 0
2, 25655, Note_on_c, 0, 72, 64
2, 25681, Note_on_c, 0, 72, 0
2, 25682, Note_on_c, 0, 73, 34
2, 25711, Note_on_c, 0, 73, 0
2, 25713, Note_on_c, 0, 75, 55
2, 25731, Note_on_c, 0, 75, 0
2, 25736, Note_on_c, 0, 76, 44
2, 25768, Note_on_c, 0, 76, 0
2, 25768, Note_on_c, 0, 77, 57
2, 25778, Note_on_c, 0, 61, 42
2, 25779, Note_on_c, 0, 66, 47
2, 25784, Note_on_c, 0, 55, 32
2, 25791, Note_on_c, 0, 78, 46
2, 25793, Note_on_c, 0, 77, 0
2, 25818, Note_on_c, 0, 78, 0
2, 25826, Note_on_c, 0, 79, 51
2, 25844, Note_on_c, 0, 55, 0
2, 25853, Note_on_c, 0, 79, 0
2, 25856, Note_on_c, 0, 80, 54
2, 25860, Note_on_c, 0, 66, 0
2, 25878, Note_on_c, 0, 80, 0
2, 25884, Note_on_c, 0, 81, 60
2, 25906, Note_on_c, 0, 64, 36
2, 25908, Note_on_c, 0, 81, 0
2, 25910, Note_on_c, 0, 54, 20
2, 25914, Note_on_c, 0, 59, 36
2, 25920, Note_on_c, 0, 77, 32
2, 25957, Note_on_c, 0, 77, 0
2, 25973, Note_on_c, 0, 78, 47
2, 25999, Note_on_c, 0, 78, 0
2, 26033, Note_on_c, 0, 78, 45
2, 26057, Note_on_c, 0, 78, 0
2, 26066, Note_on_c, 0, 69, 38
2, 26074, Note_on_c, 0, 69, 0
2, 26090, Note_on_c, 0, 69, 47
2, 26113, Note_on_c, 0, 69, 0
2, 26132, Note_on_c, 0, 64, 0
2, 26150, Note_on_c, 0, 73, 59
2, 26170, Note_on_c, 0, 61, 0
2, 26171, Note_on_c, 0, 73, 0
2, 26221, Note_on_c, 0, 59, 0
2, 26229, Note_on_c, 0, 54, 0
2, 26284, Note_on_c, 0, 57, 34
2, 26288, Note_on_c, 0, 66, 52
2, 26290, Note_on_c, 0, 62, 32
2, 26335, Note_on_c, 0, 62, 0
2, 26346, Note_on_c, 0, 66, 0
2, 26348, Note_on_c, 0, 69, 47
2, 26368, Note_on_c, 0, 69, 0
2, 26406, Note_on_c, 0, 62, 60
2, 26426, Note_on_c, 0, 62, 0
2, 26434, Note_on_c, 0, 64, 60
2, 26454, Note_on_c, 0, 64, 0
2, 26463, Note_on_c, 0, 66, 47
2, 26470, Note_on_c, 0, 57, 0
2, 26471, Note_on_c, 0, 66, 0
2, 26521, Note_on_c, 0, 57, 37
2, 26523, Note_on_c, 0, 62, 38
2, 26523, Note_on_c, 0, 66, 31
2, 26535, Note_on_c, 0, 66, 0
2, 26540, Note_on_c, 0, 62, 0
2, 26541, Note_on_c, 0, 57, 0
2, 26590, Note_on_c, 0, 57, 28
2, 26599, Note_on_c, 0, 57, 0
2, 26640, Note_on_c, 0, 62, 36
2, 26642, Note_on_c, 0, 56, 39
2, 26733, Note_on_c, 0, 67, 59
2, 26749, Note_on_c, 0, 67, 0
2, 26758, Note_on_c, 0, 68, 53
2, 26761, Note_on_c, 0, 62, 0
2, 26779, Note_on_c, 0, 70, 56
2, 26780, Note_on_c, 0, 68, 0
2, 26791, Note_on_c, 0, 56, 0
2, 26797, Note_on_c, 0, 71, 74
2, 26801, Note_on_c, 0, 70, 0
2, 26809, Note_on_c, 0, 71, 0
2, 26814, Note_on_c, 0, 70, 61
2, 26845, Note_on_c, 0, 70, 0
2, 26942, Note_on_c, 0, 56, 33
2, 26943, Note_on_c, 0, 67, 45
2, 26946, Note_on_c, 0, 62, 33
2, 26952, Note_on_c, 0, 67, 0
2, 26956, Note_on_c, 0, 62, 0
2, 26961, Note_on_c, 0, 56, 0
2, 27000, Note_on_c, 0, 70, 67
2, 27019, Note_on_c, 0, 70, 0
2, 27025, Note_on_c, 0, 71, 43
2, 27026, Note_on_c, 0, 72, 34
2, 27036, Note_on_c, 0, 73, 52
2, 27040, Note_on_c, 0, 72, 0
2, 27044, Note_on_c, 0, 71, 0
2, 27056, Note_on_c, 0, 73, 0
2, 27057, Note_on_c, 0, 74, 68
2, 27064, Note_on_c, 0, 62, 26
2, 27072, Note_on_c, 0, 73, 25
2, 27077, Note_on_c, 0, 74, 0
2, 27094, Note_on_c, 0, 73, 0
2, 27102, Note_on_c, 0, 62, 0
2, 27195, Note_on_c, 0, 62, 57
2, 27198, Note_on_c, 0, 56, 29
2, 27206, Note_on_c, 0, 62, 0
2, 27207, Note_on_c, 0, 56, 0
2, 27277, Note_on_c, 0, 67, 64
2, 27279, Note_on_c, 0, 56, 46
2, 27279, Note_on_c, 0, 62, 52
2, 27289, Note_on_c, 0, 67, 0
2, 27298, Note_on_c, 0, 56, 0
2, 27323, Note_on_c, 0, 62, 0
2, 27357, Note_on_c, 0, 55, 73
2, 27358, Note_on_c, 0, 62, 74
2, 27359, Note_on_c, 0, 66, 81
2, 27360, Note_on_c, 0, 83, 68
2, 27360, Note_on_c, 0, 71, 76
2, 27361, Note_on_c, 0, 84, 76
2, 27362, Note_on_c, 0, 59, 70
2, 27364, Note_on_c, 0, 72, 52
2, 27372, Note_on_c, 0, 72, 0
2, 27381, Note_on_c, 0, 84, 0
2, 27468, Control_c, 0, 64, 127
2, 27552, Note_on_c, 0, 83, 0
2, 27562, Note_on_c, 0, 66, 0
2, 27569, Note_on_c, 0, 59, 0
2, 27571, Note_on_c, 0, 71, 0
2, 27577, Note_on_c, 0, 62, 0
2, 27582, Note_on_c, 0, 55, 0
2, 27639, Note_on_c, 0, 82, 62
2, 27640, Note_on_c, 0, 62, 58
2, 27640, Note_on_c, 0, 66, 51
2, 27640, Note_on_c, 0, 70, 78
2, 27641, Note_on_c, 0, 55, 53
2, 27643, Control_c, 0, 64, 0
2, 27646, Note_on_c, 0, 75, 30
2, 27648, Note_on_c, 0, 59, 27
2, 27650, Note_on_c, 0, 55, 0
2, 27650, Note_on_c, 0, 66, 0
2, 27653, Note_on_c, 0, 75, 0
2, 27656, Note_on_c, 0, 70, 0
2, 27657, Note_on_c, 0, 59, 0
2, 27660, Note_on_c, 0, 82, 0
2, 27661, Note_on_c, 0, 62, 0
2, 27672, Control_c, 0, 64, 127
2, 27682, Note_on_c, 0, 83, 74
2, 27682, Note_on_c, 0, 71, 81
2, 27683, Note_on_c, 0, 66, 50
2, 27686, Note_on_c, 0, 62, 30
2, 27688, Note_on_c, 0, 59, 45
2, 27688, Note_on_c, 0, 55, 24
2, 27690, Note_on_c, 0, 82, 23
2, 27695, Note_on_c, 0, 55, 0
2, 27695, Note_on_c, 0, 71, 0
2, 27695, Note_on_c, 0, 62, 0
2, 27697, Note_on_c, 0, 59, 0
2, 27697, Note_on_c, 0, 82, 0
2, 27697, Note_on_c, 0, 66, 0
2, 27700, Note_on_c, 0, 83, 0
2, 27723, Note_on_c, 0, 66, 90
2, 27723, Note_on_c, 0, 84, 88
2, 27724, Note_on_c, 0, 61, 77
2, 27724, Note_on_c, 0, 77, 81
2, 27724, Note_on_c, 0, 55, 85
2, 27724, Note_on_c, 0, 72, 92
2, 27725, Note_on_c, 0, 81, 71
2, 27728, Control_c, 0, 64, 0
2, 27785, Control_c, 0, 64, 127
2, 27883, Note_on_c, 0, 55, 0
2, 27888, Note_on_c, 0, 77, 0
2, 27892, Note_on_c, 0, 81, 0
2, 27894, Note_on_c, 0, 66, 0
2, 27894, Note_on_c, 0, 72, 0
2, 27900, Note_on_c, 0, 84, 0
2, 27906, Note_on_c, 0, 61, 0
2, 27960, Note_on_c, 0, 85, 69
2, 27960, Note_on_c, 0, 73, 48
2, 27962, Control_c, 0, 64, 0
2, 27962, Note_on_c, 0, 66, 50
2, 27963, Note_on_c, 0, 55, 55
2, 27963, Note_on_c, 0, 78, 49
2, 27963, Note_on_c, 0, 61, 49
2, 27991, Control_c, 0, 64, 127
2, 28010, Note_on_c, 0, 66, 0
2, 28011, Note_on_c, 0, 55, 0
2, 28012, Note_on_c, 0, 78, 0
2, 28025, Note_on_c, 0, 73, 0
2, 28029, Note_on_c, 0, 85, 0
2, 28034, Note_on_c, 0, 61, 0
2, 28143, Control_c, 0, 64, 0
2, 28143, Note_on_c, 0, 65, 55
2, 28144, Note_on_c, 0, 54, 46
2, 28144, Note_on_c, 0, 86, 71
2, 28145, Note_on_c, 0, 74, 57
2, 28146, Note_on_c, 0, 60, 51
2, 28147, Note_on_c, 0, 81, 52
2, 28186, Control_c, 0, 64, 127
2, 28481, Note_on_c, 0, 60, 0
2, 28483, Note_on_c, 0, 65, 0
2, 28493, Note_on_c, 0, 54, 0
2, 28673, Note_on_c, 0, 65, 59
2, 28673, Note_on_c, 0, 54, 58
2, 28674, Note_on_c, 0, 60, 59
2, 28680, Control_c, 0, 64, 0
2, 28711, Control_c, 0, 64, 127
2, 28729, Note_on_c, 0, 60, 0
2, 28735, Note_on_c, 0, 65, 0
2, 28760, Note_on_c, 0, 54, 0
2, 28770, Note_on_c, 0, 74, 0
2, 28780, Note_on_c, 0, 81, 0
2, 28785, Note_on_c, 0, 86, 0
2, 28793, Note_on_c, 0, 53, 49
2, 28798, Note_on_c, 0, 64, 35
2, 28799, Note_on_c, 0, 59, 51
2, 28801, Control_c, 0, 64, 0
2, 28913, Note_on_c, 0, 86, 92
2, 28930, Note_on_c, 0, 86, 0
2, 28948, Note_on_c, 0, 79, 80
2, 28953, Note_on_c, 0, 86, 51
2, 28957, Note_on_c, 0, 80, 35
2, 28976, Note_on_c, 0, 81, 47
2, 28978, Note_on_c, 0, 79, 0
2, 28979, Note_on_c, 0, 80, 0
2, 28989, Note_on_c, 0, 86, 0
2, 28994, Note_on_c, 0, 81, 0
2, 29098, Note_on_c, 0, 53, 0
2, 29100, Note_on_c, 0, 59, 0
2, 29111, Note_on_c, 0, 64, 0
2, 29153, Note_on_c, 0, 65, 51
2, 29154, Note_on_c, 0, 60, 55
2, 29154, Note_on_c, 0, 55, 47
2, 29175, Note_on_c, 0, 65, 0
2, 29176, Note_on_c, 0, 60, 0
2, 29179, Note_on_c, 0, 55, 0
2, 29247, Note_on_c, 0, 64, 48
2, 29248, Note_on_c, 0, 53, 45
2, 29249, Note_on_c, 0, 59, 51
2, 29263, Note_on_c, 0, 64, 0
2, 29264, Note_on_c, 0, 59, 0
2, 29266, Note_on_c, 0, 53, 0
2, 29316, Note_on_c, 0, 82, 65
2, 29343, Note_on_c, 0, 82, 0
2, 29343, Note_on_c, 0, 83, 65
2, 29361, Note_on_c, 0, 83, 0
2, 29381, Note_on_c, 0, 86, 88
2, 29399, Note_on_c, 0, 86, 0
2, 29405, Note_on_c, 0, 64, 53
2, 29406, Note_on_c, 0, 59, 56
2, 29407, Note_on_c, 0, 53, 51
2, 29411, Note_on_c, 0, 83, 68
2, 29426, Note_on_c, 0, 83, 0
2, 29441, Note_on_c, 0, 59, 0
2, 29453, Note_on_c, 0, 64, 0
2, 29466, Note_on_c, 0, 53, 0
2, 29467, Note_on_c, 0, 80, 64
2, 29483, Note_on_c, 0, 80, 0
2, 29629, Note_on_c, 0, 80, 69
2, 29629, Note_on_c, 0, 75, 47
2, 29631, Note_on_c, 0, 76, 75
2, 29631, Note_on_c, 0, 71, 77
2, 29637, Note_on_c, 0, 64, 36
2, 29641, Note_on_c, 0, 76, 0
2, 29644, Note_on_c, 0, 71, 0
2, 29644, Note_on_c, 0, 75, 0
2, 29645, Note_on_c, 0, 64, 0
2, 29649, Note_on_c, 0, 80, 0
2, 29699, Note_on_c, 0, 71, 34
2, 29709, Note_on_c, 0, 71, 0
2, 29752, Note_on_c, 0, 80, 69
2, 29755, Note_on_c, 0, 71, 76
2, 29757, Note_on_c, 0, 76, 48
2, 29758, Note_on_c, 0, 64, 48
2, 29758, Note_on_c, 0, 53, 39
2, 29760, Note_on_c, 0, 59, 48
2, 29765, Note_on_c, 0, 76, 0
2, 29766, Note_on_c, 0, 71, 0
2, 29767, Note_on_c, 0, 64, 0
2, 29769, Note_on_c, 0, 59, 0
2, 29771, Note_on_c, 0, 80, 0
2, 29775, Note_on_c, 0, 53, 0
2, 29808, Note_on_c, 0, 53, 35
2, 29823, Note_on_c, 0, 53, 0
2, 29846, Note_on_c, 0, 74, 58
2, 29847, Note_on_c, 0, 62, 54
2, 29847, Note_on_c, 0, 79, 54
2, 29847, Note_on_c, 0, 69, 57
2, 29849, Note_on_c, 0, 52, 40
2, 29851, Note_on_c, 0, 57, 40
2, 29875, Note_on_c, 0, 57, 0
2, 29876, Note_on_c, 0, 62, 0
2, 29880, Note_on_c, 0, 69, 0
2, 29881, Note_on_c, 0, 74, 0
2, 29881, Note_on_c, 0, 79, 0
2, 29881, Note_on_c, 0, 52, 0
2, 29927, Note_on_c, 0, 62, 44
2, 29929, Note_on_c, 0, 52, 38
2, 29929, Note_on_c, 0, 79, 53
2, 29930, Note_on_c, 0, 57, 47
2, 29930, Note_on_c, 0, 69, 59
2, 29931, Note_on_c, 0, 74, 54
2, 30003, Control_c, 0, 64, 127
2, 30048, Note_on_c, 0, 79, 0
2, 30055, Note_on_c, 0, 74, 0
2, 30062, Note_on_c, 0, 69, 0
2, 30106, Note_on_c, 0, 62, 0
2, 30112, Note_on_c, 0, 57, 0
2, 30129, Note_on_c, 0, 52, 0
2, 30227, Note_on_c, 0, 67, 79
2, 30228, Note_on_c, 0, 59, 78
2, 30228, Note_on_c, 0, 64, 76
2, 30230, Note_on_c, 0, 55, 67
2, 30230, Note_on_c, 0, 49, 69
2, 30235, Control_c, 0, 64, 0
2, 30270, Control_c, 0, 64, 127
2, 30359, Note_on_c, 0, 64, 0
2, 30364, Note_on_c, 0, 55, 0
2, 30369, Note_on_c, 0, 67, 0
2, 30373, Note_on_c, 0, 59, 0
2, 30396, Note_on_c, 0, 49, 0
2, 30431, Note_on_c, 0, 66, 83
2, 30432, Note_on_c, 0, 57, 85
2, 30432, Note_on_c, 0, 48, 71
2, 30432, Note_on_c, 0, 62, 85
2, 30439, Control_c, 0, 64, 0
2, 30474, Control_c, 0, 64, 127
2, 30534, Note_on_c, 0, 57, 0
2, 30536, Note_on_c, 0, 62, 0
2, 30541, Note_on_c, 0, 48, 0
2, 30560, Note_on_c, 0, 66, 0
2, 30593, Control_c, 0, 64, 0
2, 30596, Note_on_c, 0, 66, 64
2, 30598, Note_on_c, 0, 61, 62
2, 30598, Note_on_c, 0, 57, 71
2, 30598, Note_on_c, 0, 63, 54
2, 30601, Note_on_c, 0, 47, 64
2, 30729, Control_c, 0, 64, 127
2, 30778, Note_on_c, 0, 57, 0
2, 30784, Note_on_c, 0, 61, 0
2, 30787, Note_on_c, 0, 66, 0
2, 30789, Note_on_c, 0, 63, 0
2, 30801, Note_on_c, 0, 53, 55
2, 30801, Note_on_c, 0, 65, 65
2, 30803, Note_on_c, 0, 57, 57
2, 30807, Note_on_c, 0, 63, 28
2, 30808, Note_on_c, 0, 61, 27
2, 30816, Note_on_c, 0, 61, 0
2, 30821, Note_on_c, 0, 57, 0
2, 30826, Note_on_c, 0, 65, 0
2, 30830, Note_on_c, 0, 63, 0
2, 30832, Control_c, 0, 64, 0
2, 30838, Note_on_c, 0, 53, 0
2, 30846, Note_on_c, 0, 54, 62
2, 30847, Note_on_c, 0, 66, 74
2, 30847, Note_on_c, 0, 61, 63
2, 30848, Note_on_c, 0, 57, 69
2, 30849, Note_on_c, 0, 63, 43
2, 30877, Control_c, 0, 64, 127
2, 30888, Note_on_c, 0, 47, 0
2, 30898, Note_on_c, 0, 57, 0
2, 30913, Note_on_c, 0, 54, 0
2, 30915, Note_on_c, 0, 66, 0
2, 30915, Note_on_c, 0, 63, 0
2, 30918, Note_on_c, 0, 61, 0
2, 30925, Note_on_c, 0, 56, 72
2, 30926, Note_on_c, 0, 64, 77
2, 30926, Note_on_c, 0, 46, 69
2, 30927, Note_on_c, 0, 60, 82
2, 30931, Control_c, 0, 64, 0
2, 30962, Control_c, 0, 64, 127
2, 30970, Note_on_c, 0, 46, 0
2, 30973, Note_on_c, 0, 60, 0
2, 30974, Note_on_c, 0, 56, 0
2, 30980, Note_on_c, 0, 64, 0
2, 31037, Note_on_c, 0, 76, 78
2, 31038, Note_on_c, 0, 56, 64
2, 31039, Note_on_c, 0, 62, 70
2, 31039, Note_on_c, 0, 67, 83
2, 31041, Note_on_c, 0, 72, 72
2, 31042, Control_c, 0, 64, 0
2, 31065, Control_c, 0, 64, 127
2, 31076, Note_on_c, 0, 67, 0
2, 31084, Note_on_c, 0, 72, 0
2, 31090, Note_on_c, 0, 76, 0
2, 31099, Note_on_c, 0, 56, 0
2, 31105, Note_on_c, 0, 62, 0
2, 31151, Note_on_c, 0, 62, 80
2, 31151, Note_on_c, 0, 56, 77
2, 31151, Note_on_c, 0, 88, 84
2, 31152, Note_on_c, 0, 76, 85
2, 31152, Note_on_c, 0, 67, 89
2, 31152, Note_on_c, 0, 83, 80
2, 31155, Control_c, 0, 64, 0
2, 31157, Note_on_c, 0, 86, 35
2, 31165, Note_on_c, 0, 86, 0
2, 31178, Control_c, 0, 64, 127
2, 31189, Note_on_c, 0, 76, 0
2, 31197, Note_on_c, 0, 83, 0
2, 31200, Note_on_c, 0, 88, 0
2, 31204, Note_on_c, 0, 67, 0
2, 31206, Note_on_c, 0, 62, 0
2, 31231, Note_on_c, 0, 56, 0
2, 31266, Note_on_c, 0, 55, 91
2, 31266, Note_on_c, 0, 65, 91
2, 31266, Note_on_c, 0, 61, 84
2, 31268, Note_on_c, 0, 91, 87
2, 31268, Note_on_c, 0, 96, 87
2, 31269, Note_on_c, 0, 84, 92
2, 31272, Note_on_c, 0, 94, 45
2, 31272, Control_c, 0, 64, 0
2, 31279, Note_on_c, 0, 94, 0
2, 31295, Control_c, 0, 64, 127
2, 31310, Note_on_c, 0, 84, 0
2, 31316, Note_on_c, 0, 91, 0
2, 31318, Note_on_c, 0, 96, 0
2, 31331, Note_on_c, 0, 55, 0
2, 31333, Note_on_c, 0, 61, 0
2, 31333, Note_on_c, 0, 65, 0
2, 31378, Note_on_c, 0, 61, 77
2, 31379, Note_on_c, 0, 55, 81
2, 31380, Note_on_c, 0, 65, 74
2, 31382, Note_on_c, 0, 88, 76
2, 31382, Note_on_c, 0, 100, 77
2, 31383, Control_c, 0, 64, 0
2, 31383, Note_on_c, 0, 95, 71
2, 31402, Control_c, 0, 64, 127
2, 31412, Note_on_c, 0, 88, 0
2, 31418, Note_on_c, 0, 95, 0
2, 31420, Note_on_c, 0, 100, 0
2, 31429, Note_on_c, 0, 65, 0
2, 31435, Note_on_c, 0, 55, 0
2, 31442, Note_on_c, 0, 61, 0
2, 31501, Note_on_c, 0, 55, 80
2, 31502, Note_on_c, 0, 61, 71
2, 31502, Note_on_c, 0, 107, 84
2, 31503, Note_on_c, 0, 65, 66
2, 31503, Note_on_c, 0, 100, 74
2, 31504, Note_on_c, 0, 95, 68
2, 31505, Note_on_c, 0, 103, 64
2, 31508, Note_on_c, 0, 64, 54
2, 31514, Note_on_c, 0, 64, 0
2, 31517, Control_c, 0, 64, 0
2, 31536, Control_c, 0, 64, 127
2, 31573, Note_on_c, 0, 55, 0
2, 31575, Note_on_c, 0, 107, 0
2, 31575, Note_on_c, 0, 100, 0
2, 31575, Note_on_c, 0, 103, 0
2, 31578, Note_on_c, 0, 65, 0
2, 31588, Note_on_c, 0, 95, 0
2, 31608, Note_on_c, 0, 61, 0
2, 31655, Note_on_c, 0, 54, 42
2, 31656, Note_on_c, 0, 61, 36
2, 31657, Control_c, 0, 64, 0
2, 31658, Note_on_c, 0, 64, 38
2, 31660, Note_on_c, 0, 105, 63
2, 31661, Note_on_c, 0, 93, 52
2, 31661, Note_on_c, 0, 59, 46
2, 31758, Note_on_c, 0, 105, 0
2, 31771, Note_on_c, 0, 93, 0
2, 31783, Note_on_c, 0, 102, 73
2, 31808, Note_on_c, 0, 102, 0
2, 31825, Note_on_c, 0, 64, 0
2, 31916, Note_on_c, 0, 93, 60
2, 31926, Note_on_c, 0, 93, 0
2, 31943, Note_on_c, 0, 61, 0
2, 31955, Note_on_c, 0, 59, 0
2, 31987, Note_on_c, 0, 100, 76
2, 32005, Note_on_c, 0, 100, 0
2, 32046, Note_on_c, 0, 61, 46
2, 32048, Note_on_c, 0, 64, 44
2, 32048, Note_on_c, 0, 59, 54
2, 32048, Note_on_c, 0, 98, 88
2, 32117, Note_on_c, 0, 98, 0
2, 32119, Note_on_c, 0, 64, 0
2, 32140, Note_on_c, 0, 97, 77
2, 32142, Note_on_c, 0, 64, 31
2, 32160, Note_on_c, 0, 97, 0
2, 32168, Note_on_c, 0, 94, 57
2, 32175, Note_on_c, 0, 64, 0
2, 32177, Note_on_c, 0, 94, 0
2, 32186, Note_on_c, 0, 93, 35
2, 32197, Note_on_c, 0, 93, 0
2, 32201, Note_on_c, 0, 61, 0
2, 32226, Note_on_c, 0, 86, 54
2, 32237, Note_on_c, 0, 59, 0
2, 32239, Note_on_c, 0, 86, 0
2, 32288, Note_on_c, 0, 86, 62
2, 32298, Note_on_c, 0, 86, 0
2, 32352, Note_on_c, 0, 64, 30
2, 32353, Note_on_c, 0, 61, 30
2, 32359, Note_on_c, 0, 54, 0
2, 32364, Note_on_c, 0, 61, 0
2, 32369, Note_on_c, 0, 64, 0
2, 32424, Note_on_c, 0, 62, 54
2, 32424, Note_on_c, 0, 56, 46
2, 32511, Note_on_c, 0, 62, 0
2, 32597, Note_on_c, 0, 62, 28
2, 32605, Note_on_c, 0, 64, 55
2, 32615, Note_on_c, 0, 62, 0
2, 32629, Note_on_c, 0, 64, 0
2, 32638, Note_on_c, 0, 65, 62
2, 32645, Note_on_c, 0, 62, 19
2, 32653, Note_on_c, 0, 65, 0
2, 32679, Note_on_c, 0, 62, 0
2, 32722, Note_on_c, 0, 62, 24
2, 32726, Note_on_c, 0, 65, 64
2, 32744, Note_on_c, 0, 62, 0
2, 32749, Note_on_c, 0, 65, 0
2, 32752, Note_on_c, 0, 67, 68
2, 32768, Note_on_c, 0, 62, 30
2, 32770, Note_on_c, 0, 67, 0
2, 32782, Note_on_c, 0, 67, 57
2, 32790, Note_on_c, 0, 56, 0
2, 32794, Note_on_c, 0, 62, 0
2, 32807, Note_on_c, 0, 67, 0
2, 32810, Note_on_c, 0, 68, 67
2, 32818, Note_on_c, 0, 56, 33
2, 32819, Note_on_c, 0, 62, 22
2, 32824, Note_on_c, 0, 68, 0
2, 32836, Note_on_c, 0, 68, 51
2, 32842, Note_on_c, 0, 56, 0
2, 32846, Note_on_c, 0, 62, 0
2, 32854, Note_on_c, 0, 68, 0
2, 32901, Note_on_c, 0, 67, 47
2, 32903, Note_on_c, 0, 56, 26
2, 32905, Note_on_c, 0, 62, 32
2, 32910, Note_on_c, 0, 67, 0
2, 32916, Note_on_c, 0, 62, 0
2, 32917, Note_on_c, 0, 56, 0
2, 32963, Note_on_c, 0, 68, 74
2, 32974, Note_on_c, 0, 68, 0
2, 33018, Note_on_c, 0, 70, 78
2, 33020, Note_on_c, 0, 56, 46
2, 33022, Note_on_c, 0, 62, 49
2, 33022, Note_on_c, 0, 67, 46
2, 33032, Note_on_c, 0, 67, 0
2, 33036, Note_on_c, 0, 70, 0
2, 33044, Note_on_c, 0, 62, 0
2, 33076, Note_on_c, 0, 71, 74
2, 33076, Note_on_c, 0, 72, 66
2, 33082, Note_on_c, 0, 56, 0
2, 33091, Note_on_c, 0, 72, 0
2, 33095, Note_on_c, 0, 71, 0
2, 33131, Note_on_c, 0, 74, 80
2, 33132, Note_on_c, 0, 61, 58
2, 33133, Note_on_c, 0, 66, 62
2, 33133, Note_on_c, 0, 55, 66
2, 33302, Note_on_c, 0, 73, 52
2, 33308, Note_on_c, 0, 74, 0
2, 33333, Note_on_c, 0, 73, 0
2, 33340, Note_on_c, 0, 55, 0
2, 33343, Note_on_c, 0, 66, 0
2, 33358, Note_on_c, 0, 66, 56
2, 33360, Note_on_c, 0, 74, 78
2, 33361, Note_on_c, 0, 55, 54
2, 33413, Note_on_c, 0, 55, 0
2, 33416, Control_c, 0, 64, 127
2, 33425, Note_on_c, 0, 66, 0
2, 33427, Note_on_c, 0, 61, 0
2, 33446, Note_on_c, 0, 74, 0
2, 33481, Note_on_c, 0, 76, 66
2, 33482, Note_on_c, 0, 67, 72
2, 33483, Note_on_c, 0, 61, 52
2, 33485, Note_on_c, 0, 72, 62
2, 33486, Note_on_c, 0, 55, 50
2, 33488, Control_c, 0, 64, 0
2, 33530, Control_c, 0, 64, 127
2, 33592, Note_on_c, 0, 61, 0
2, 33597, Note_on_c, 0, 72, 0
2, 33599, Note_on_c, 0, 55, 0
2, 33601, Note_on_c, 0, 67, 0
2, 33601, Note_on_c, 0, 76, 0
2, 33655, Note_on_c, 0, 77, 67
2, 33656, Note_on_c, 0, 68, 68
2, 33657, Note_on_c, 0, 73, 50
2, 33660, Note_on_c, 0, 57, 68
2, 33670, Control_c, 0, 64, 0
2, 33709, Control_c, 0, 64, 127
2, 33732, Note_on_c, 0, 57, 0
2, 33740, Note_on_c, 0, 77, 0
2, 33741, Note_on_c, 0, 68, 0
2, 33748, Note_on_c, 0, 73, 0
2, 33757, Note_on_c, 0, 78, 51
2, 33757, Note_on_c, 0, 69, 54
2, 33760, Note_on_c, 0, 74, 58
2, 33762, Note_on_c, 0, 57, 52
2, 33766, Control_c, 0, 64, 0
2, 33787, Control_c, 0, 64, 127
2, 33800, Note_on_c, 0, 74, 0
2, 33802, Note_on_c, 0, 69, 0
2, 33808, Note_on_c, 0, 57, 0
2, 33824, Note_on_c, 0, 78, 0
2, 33837, Note_on_c, 0, 79, 56
2, 33837, Note_on_c, 0, 70, 60
2, 33840, Note_on_c, 0, 76, 53
2, 33841, Note_on_c, 0, 57, 52
2, 33844, Control_c, 0, 64, 0
2, 33873, Control_c, 0, 64, 127
2, 33898, Note_on_c, 0, 57, 0
2, 33898, Note_on_c, 0, 76, 0
2, 33898, Note_on_c, 0, 79, 0
2, 33904, Note_on_c, 0, 70, 0
2, 33923, Note_on_c, 0, 71, 49
2, 33923, Note_on_c, 0, 80, 51
2, 33925, Note_on_c, 0, 76, 55
2, 33928, Note_on_c, 0, 57, 52
2, 33929, Control_c, 0, 64, 0
2, 33949, Note_on_c, 0, 57, 0
2, 33963, Note_on_c, 0, 71, 0
2, 33964, Note_on_c, 0, 76, 0
2, 33964, Control_c, 0, 64, 127
2, 33983, Note_on_c, 0, 80, 0
2, 34011, Control_c, 0, 64, 0
2, 34012, Note_on_c, 0, 77, 51
2, 34012, Note_on_c, 0, 81, 60
2, 34013, Note_on_c, 0, 72, 53
2, 34016, Note_on_c, 0, 57, 45
2, 34062, Control_c, 0, 64, 127
2, 34067, Note_on_c, 0, 57, 0
2, 34138, Note_on_c, 0, 57, 55
2, 34147, Note_on_c, 0, 57, 0
2, 34151, Note_on_c, 0, 81, 0
2, 34154, Note_on_c, 0, 77, 0
2, 34170, Note_on_c, 0, 72, 0
2, 34201, Note_on_c, 0, 82, 69
2, 34202, Note_on_c, 0, 78, 62
2, 34202, Note_on_c, 0, 73, 58
2, 34204, Note_on_c, 0, 57, 60
2, 34211, Control_c, 0, 64, 0
2, 34242, Control_c, 0, 64, 127
2, 34253, Note_on_c, 0, 57, 0
2, 34274, Note_on_c, 0, 73, 0
2, 34279, Note_on_c, 0, 78, 0
2, 34285, Control_c, 0, 64, 0
2, 34288, Note_on_c, 0, 83, 66
2, 34288, Note_on_c, 0, 74, 56
2, 34290, Note_on_c, 0, 79, 47
2, 34290, Note_on_c, 0, 57, 58
2, 34292, Note_on_c, 0, 82, 0
2, 34311, Control_c, 0, 64, 127
2, 34326, Note_on_c, 0, 57, 0
2, 34344, Note_on_c, 0, 74, 0
2, 34359, Note_on_c, 0, 79, 0
2, 34378, Note_on_c, 0, 57, 53
2, 34393, Note_on_c, 0, 57, 0
2, 34395, Note_on_c, 0, 83, 0
2, 34420, Control_c, 0, 64, 0
2, 34439, Control_c, 0, 64, 127
2, 34440, Note_on_c, 0, 57, 61
2, 34456, Note_on_c, 0, 57, 0
2, 34500, Note_on_c, 0, 87, 80
2, 34522, Note_on_c, 0, 87, 0
2, 34532, Note_on_c, 0, 88, 74
2, 34534, Control_c, 0, 64, 0
2, 34556, Note_on_c, 0, 88, 0
2, 34560, Note_on_c, 0, 85, 61
2, 34566, Note_on_c, 0, 61, 25
2, 34574, Note_on_c, 0, 61, 0
2, 34574, Note_on_c, 0, 85, 0
2, 34675, Note_on_c, 0, 64, 35
2, 34675, Note_on_c, 0, 61, 29
2, 34677, Note_on_c, 0, 54, 25
2, 34679, Note_on_c, 0, 83, 65
2, 34680, Note_on_c, 0, 59, 41
2, 34700, Note_on_c, 0, 83, 0
2, 34708, Note_on_c, 0, 59, 0
2, 34710, Note_on_c, 0, 85, 58
2, 34715, Note_on_c, 0, 54, 0
2, 34723, Note_on_c, 0, 64, 0
2, 34725, Note_on_c, 0, 61, 0
2, 34729, Note_on_c, 0, 85, 0
2, 34732, Note_on_c, 0, 81, 67
2, 34748, Note_on_c, 0, 81, 0
2, 34850, Note_on_c, 0, 64, 35
2, 34852, Note_on_c, 0, 78, 55
2, 34853, Note_on_c, 0, 54, 25
2, 34854, Note_on_c, 0, 61, 26
2, 34869, Note_on_c, 0, 54, 0
2, 34874, Note_on_c, 0, 64, 0
2, 34875, Note_on_c, 0, 61, 0
2, 34876, Note_on_c, 0, 78, 0
2, 34883, Note_on_c, 0, 81, 57
2, 34907, Note_on_c, 0, 76, 69
2, 34909, Note_on_c, 0, 81, 0
2, 34930, Note_on_c, 0, 76, 0
2, 35016, Note_on_c, 0, 64, 59
2, 35020, Note_on_c, 0, 61, 37
2, 35021, Note_on_c, 0, 73, 51
2, 35033, Note_on_c, 0, 64, 0
2, 35044, Note_on_c, 0, 61, 0
2, 35045, Note_on_c, 0, 73, 0
2, 35056, Note_on_c, 0, 76, 62
2, 35081, Note_on_c, 0, 76, 0
2, 35083, Note_on_c, 0, 71, 60
2, 35098, Note_on_c, 0, 71, 0
2, 35142, Note_on_c, 0, 64, 44
2, 35144, Note_on_c, 0, 61, 32
2, 35153, Note_on_c, 0, 64, 0
2, 35160, Note_on_c, 0, 61, 0
2, 35209, Note_on_c, 0, 69, 81
2, 35233, Note_on_c, 0, 69, 0
2, 35239, Note_on_c, 0, 71, 69
2, 35260, Note_on_c, 0, 71, 0
2, 35264, Note_on_c, 0, 61, 36
2, 35269, Note_on_c, 0, 66, 53
2, 35290, Note_on_c, 0, 61, 0
2, 35305, Note_on_c, 0, 66, 0
2, 35387, Note_on_c, 0, 61, 30
2, 35391, Note_on_c, 0, 64, 80
2, 35404, Note_on_c, 0, 61, 0
2, 35419, Note_on_c, 0, 64, 0
2, 35424, Note_on_c, 0, 69, 74
2, 35443, Note_on_c, 0, 69, 0
2, 35449, Note_on_c, 0, 61, 57
2, 35474, Note_on_c, 0, 61, 0
2, 35565, Note_on_c, 0, 54, 43
2, 35571, Note_on_c, 0, 59, 62
2, 35578, Note_on_c, 0, 54, 0
2, 35589, Note_on_c, 0, 59, 0
2, 35635, Note_on_c, 0, 61, 48
2, 35694, Note_on_c, 0, 57, 54
2, 35700, Note_on_c, 0, 61, 0
2, 35723, Note_on_c, 0, 57, 0
2, 35795, Note_on_c, 0, 59, 57
2, 35805, Note_on_c, 0, 54, 23
2, 35813, Note_on_c, 0, 59, 0
2, 35814, Note_on_c, 0, 54, 0
2, 35824, Note_on_c, 0, 61, 58
2, 35841, Note_on_c, 0, 61, 0
2, 35854, Note_on_c, 0, 62, 50
2, 35856, Note_on_c, 0, 64, 46
2, 35864, Note_on_c, 0, 64, 0
2, 35870, Note_on_c, 0, 62, 0
2, 35879, Note_on_c, 0, 64, 68
2, 35909, Note_on_c, 0, 66, 65
2, 35910, Note_on_c, 0, 64, 0
2, 35928, Note_on_c, 0, 66, 0
2, 35937, Note_on_c, 0, 67, 51
2, 35958, Note_on_c, 0, 67, 0
2, 35994, Note_on_c, 0, 61, 30
2, 35997, Note_on_c, 0, 64, 35
2, 35998, Note_on_c, 0, 54, 32
2, 36000, Note_on_c, 0, 59, 50
2, 36065, Note_on_c, 0, 61, 0
2, 36070, Note_on_c, 0, 64, 0
2, 36088, Note_on_c, 0, 61, 32
2, 36118, Note_on_c, 0, 71, 80
2, 36133, Note_on_c, 0, 61, 0
2, 36141, Note_on_c, 0, 71, 0
2, 36146, Note_on_c, 0, 73, 48
2, 36151, Note_on_c, 0, 61, 18
2, 36164, Note_on_c, 0, 73, 0
2, 36175, Note_on_c, 0, 61, 0
2, 36179, Note_on_c, 0, 69, 71
2, 36186, Note_on_c, 0, 59, 0
2, 36195, Note_on_c, 0, 69, 0
2, 36214, Note_on_c, 0, 66, 45
2, 36219, Note_on_c, 0, 61, 29
2, 36221, Note_on_c, 0, 66, 0
2, 36233, Note_on_c, 0, 61, 0
2, 36266, Note_on_c, 0, 54, 0
2, 36301, Note_on_c, 0, 61, 27
2, 36306, Note_on_c, 0, 70, 88
2, 36316, Note_on_c, 0, 61, 0
2, 36338, Note_on_c, 0, 71, 69
2, 36339, Note_on_c, 0, 70, 0
2, 36364, Note_on_c, 0, 71, 0
2, 36364, Note_on_c, 0, 67, 40
2, 36393, Note_on_c, 0, 67, 0
2, 36400, Note_on_c, 0, 61, 32
2, 36411, Note_on_c, 0, 61, 0
2, 36424, Note_on_c, 0, 68, 67
2, 36446, Note_on_c, 0, 68, 0
2, 36458, Note_on_c, 0, 69, 70
2, 36458, Note_on_c, 0, 61, 31
2, 36476, Note_on_c, 0, 61, 0
2, 36478, Note_on_c, 0, 69, 0
2, 36514, Note_on_c, 0, 61, 38
2, 36525, Note_on_c, 0, 62, 45
2, 36532, Note_on_c, 0, 61, 0
2, 36533, Note_on_c, 0, 62, 0
2, 36547, Note_on_c, 0, 67, 68
2, 36550, Note_on_c, 0, 65, 44
2, 36558, Note_on_c, 0, 65, 0
2, 36580, Note_on_c, 0, 67, 0
2, 36585, Note_on_c, 0, 61, 27
2, 36594, Note_on_c, 0, 61, 0
2, 36605, Note_on_c, 0, 66, 51
2, 36665, Note_on_c, 0, 62, 45
2, 36689, Note_on_c, 0, 62, 0
2, 36693, Note_on_c, 0, 66, 0
2, 36727, Note_on_c, 0, 64, 42
2, 36727, Note_on_c, 0, 61, 50
2, 36745, Note_on_c, 0, 61, 0
2, 36806, Note_on_c, 0, 57, 49
2, 36807, Note_on_c, 0, 61, 1
2, 36874, Note_on_c, 0, 57, 0
2, 36876, Note_on_c, 0, 61, 0
2, 36896, Note_on_c, 0, 61, 37
2, 36898, Note_on_c, 0, 57, 55
2, 36968, Control_c, 0, 64, 127
2, 36988, Control_c, 0, 64, 0
2, 36991, Note_on_c, 0, 50, 59
2, 37006, Note_on_c, 0, 50, 0
2, 37078, Note_on_c, 0, 50, 60
2, 37093, Control_c, 0, 64, 127
2, 37127, Note_on_c, 0, 66, 1
2, 37140, Note_on_c, 0, 57, 0
2, 37142, Note_on_c, 0, 50, 0
2, 37145, Note_on_c, 0, 61, 0
2, 37162, Note_on_c, 0, 61, 47
2, 37165, Note_on_c, 0, 57, 47
2, 37169, Note_on_c, 0, 50, 51
2, 37170, Control_c, 0, 64, 0
2, 37188, Control_c, 0, 64, 127
2, 37208, Note_on_c, 0, 50, 0
2, 37240, Control_c, 0, 64, 0
2, 37254, Note_on_c, 0, 50, 60
2, 37264, Control_c, 0, 64, 127
2, 37292, Note_on_c, 0, 57, 0
2, 37294, Note_on_c, 0, 50, 0
2, 37309, Note_on_c, 0, 61, 0
2, 37313, Note_on_c, 0, 64, 0
2, 37322, Note_on_c, 0, 66, 0
2, 37350, Note_on_c, 0, 50, 32
2, 37358, Note_on_c, 0, 50, 0
2, 37439, Control_c, 0, 64, 0
2, 37439, Note_on_c, 0, 54, 46
2, 37440, Note_on_c, 0, 61, 35
2, 37442, Note_on_c, 0, 64, 41
2, 37442, Note_on_c, 0, 59, 43
2, 37444, Note_on_c, 0, 74, 66
2, 37446, Note_on_c, 0, 86, 68
2, 37464, Control_c, 0, 64, 127
2, 37480, Note_on_c, 0, 59, 0
2, 37482, Note_on_c, 0, 74, 0
2, 37496, Note_on_c, 0, 54, 0
2, 37496, Note_on_c, 0, 86, 0
2, 37497, Note_on_c, 0, 64, 0
2, 37505, Note_on_c, 0, 61, 0
2, 37537, Note_on_c, 0, 64, 46
2, 37538, Note_on_c, 0, 61, 34
2, 37543, Note_on_c, 0, 54, 20
2, 37566, Note_on_c, 0, 61, 0
2, 37569, Note_on_c, 0, 54, 0
2, 37569, Note_on_c, 0, 64, 0
2, 37630, Note_on_c, 0, 54, 44
2, 37632, Note_on_c, 0, 64, 35
2, 37633, Note_on_c, 0, 61, 33
2, 37639, Note_on_c, 0, 59, 25
2, 37650, Note_on_c, 0, 64, 0
2, 37661, Note_on_c, 0, 59, 0
2, 37661, Note_on_c, 0, 61, 0
2, 37692, Note_on_c, 0, 54, 0
2, 37734, Note_on_c, 0, 54, 31
2, 37734, Note_on_c, 0, 61, 48
2, 37735, Note_on_c, 0, 81, 66
2, 37735, Note_on_c, 0, 93, 68
2, 37736, Note_on_c, 0, 64, 37
2, 37737, Note_on_c, 0, 88, 45
2, 37745, Note_on_c, 0, 54, 0
2, 37746, Note_on_c, 0, 88, 0
2, 37750, Note_on_c, 0, 64, 0
2, 37752, Note_on_c, 0, 81, 0
2, 37756, Note_on_c, 0, 61, 0
2, 37757, Note_on_c, 0, 93, 0
2, 37798, Note_on_c, 0, 66, 80
2, 37799, Note_on_c, 0, 61, 55
2, 37800, Note_on_c, 0, 95, 87
2, 37801, Note_on_c, 0, 83, 83
2, 37801, Note_on_c, 0, 57, 71
2, 37802, Note_on_c, 0, 62, 68
2, 37828, Control_c, 0, 64, 0
2, 37855, Control_c, 0, 64, 127
2, 37899, Note_on_c, 0, 62, 0
2, 37908, Note_on_c, 0, 66, 0
2, 37912, Note_on_c, 0, 57, 0
2, 37920, Note_on_c, 0, 83, 0
2, 37925, Note_on_c, 0, 95, 0
2, 37936, Note_on_c, 0, 61, 0
2, 37993, Note_on_c, 0, 97, 71
2, 37994, Note_on_c, 0, 85, 78
2, 37994, Note_on_c, 0, 57, 75
2, 37995, Note_on_c, 0, 66, 83
2, 37996, Note_on_c, 0, 61, 68
2, 37997, Note_on_c, 0, 62, 71
2, 38051, Note_on_c, 0, 57, 0
2, 38056, Note_on_c, 0, 66, 0
2, 38057, Note_on_c, 0, 61, 0
2, 38059, Note_on_c, 0, 85, 0
2, 38059, Note_on_c, 0, 62, 0
2, 38068, Note_on_c, 0, 97, 0
2, 38086, Note_on_c, 0, 66, 77
2, 38088, Note_on_c, 0, 98, 78
2, 38088, Note_on_c, 0, 86, 75
2, 38088, Note_on_c, 0, 57, 68
2, 38090, Note_on_c, 0, 61, 49
2, 38092, Note_on_c, 0, 62, 55
2, 38121, Note_on_c, 0, 62, 0
2, 38123, Note_on_c, 0, 57, 0
2, 38125, Note_on_c, 0, 86, 0
2, 38126, Note_on_c, 0, 98, 0
2, 38140, Note_on_c, 0, 66, 0
2, 38146, Note_on_c, 0, 61, 0
2, 38168, Note_on_c, 0, 56, 73
2, 38168, Note_on_c, 0, 67, 81
2, 38169, Note_on_c, 0, 88, 73
2, 38169, Note_on_c, 0, 62, 73
2, 38169, Note_on_c, 0, 100, 74
2, 38180, Control_c, 0, 64, 0
2, 38207, Control_c, 0, 64, 127
2, 38231, Note_on_c, 0, 100, 0
2, 38240, Note_on_c, 0, 88, 0
2, 38251, Note_on_c, 0, 67, 0
2, 38254, Note_on_c, 0, 56, 0
2, 38254, Note_on_c, 0, 62, 0
2, 38337, Note_on_c, 0, 92, 55
2, 38338, Note_on_c, 0, 80, 37
2, 38339, Note_on_c, 0, 65, 47
2, 38339, Note_on_c, 0, 56, 43
2, 38341, Note_on_c, 0, 62, 45
2, 38400, Note_on_c, 0, 65, 0
2, 38403, Note_on_c, 0, 92, 0
2, 38403, Note_on_c, 0, 80, 0
2, 38405, Note_on_c, 0, 56, 0
2, 38407, Note_on_c, 0, 62, 0
2, 38452, Note_on_c, 0, 92, 55
2, 38453, Note_on_c, 0, 80, 37
2, 38454, Note_on_c, 0, 65, 46
2, 38454, Note_on_c, 0, 62, 46
2, 38455, Note_on_c, 0, 56, 37
2, 38464, Control_c, 0, 64, 0
2, 38480, Control_c, 0, 64, 127
2, 38505, Note_on_c, 0, 62, 0
2, 38506, Note_on_c, 0, 65, 0
2, 38510, Note_on_c, 0, 56, 0
2, 38513, Note_on_c, 0, 80, 0
2, 38513, Note_on_c, 0, 92, 0
2, 38539, Note_on_c, 0, 92, 69
2, 38540, Note_on_c, 0, 57, 78
2, 38540, Note_on_c, 0, 80, 60
2, 38541, Note_on_c, 0, 68, 76
2, 38541, Note_on_c, 0, 63, 71
2, 38544, Control_c, 0, 64, 0
2, 38575, Control_c, 0, 64, 127
2, 38604, Note_on_c, 0, 57, 0
2, 38608, Note_on_c, 0, 80, 0
2, 38609, Note_on_c, 0, 68, 0
2, 38610, Note_on_c, 0, 92, 0
2, 38617, Note_on_c, 0, 63, 0
2, 38636, Note_on_c, 0, 67, 73
2, 38636, Note_on_c, 0, 92, 68
2, 38637, Note_on_c, 0, 62, 65
2, 38638, Note_on_c, 0, 56, 60
2, 38638, Note_on_c, 0, 80, 55
2, 38643, Control_c, 0, 64, 0
2, 38688, Control_c, 0, 64, 127
2, 38766, Note_on_c, 0, 67, 0
2, 38768, Note_on_c, 0, 56, 0
2, 38770, Note_on_c, 0, 62, 0
2, 38802, Note_on_c, 0, 92, 0
2, 38807, Note_on_c, 0, 80, 0
2, 38828, Note_on_c, 0, 67, 40
2, 38828, Note_on_c, 0, 56, 38
2, 38829, Note_on_c, 0, 62, 50
2, 38837, Note_on_c, 0, 67, 0
2, 38842, Note_on_c, 0, 62, 0
2, 38852, Note_on_c, 0, 56, 0
2, 38924, Control_c, 0, 64, 0
2, 38934, Note_on_c, 0, 71, 68
2, 38934, Note_on_c, 0, 62, 67
2, 38936, Note_on_c, 0, 57, 62
2, 38936, Note_on_c, 0, 67, 56
2, 38943, Note_on_c, 0, 67, 0
2, 38943, Note_on_c, 0, 62, 0
2, 38945, Note_on_c, 0, 57, 0
2, 38951, Note_on_c, 0, 71, 0
2, 38971, Note_on_c, 0, 71, 49
2, 38973, Note_on_c, 0, 62, 37
2, 38974, Note_on_c, 0, 67, 38
2, 38978, Note_on_c, 0, 57, 27
2, 38982, Note_on_c, 0, 62, 0
2, 38982, Note_on_c, 0, 71, 0
2, 38983, Note_on_c, 0, 67, 0
2, 38985, Note_on_c, 0, 57, 0
2, 38991, Note_on_c, 0, 57, 36
2, 38993, Note_on_c, 0, 71, 45
2, 38993, Note_on_c, 0, 62, 53
2, 38996, Note_on_c, 0, 67, 69
2, 39004, Note_on_c, 0, 67, 0
2, 39009, Note_on_c, 0, 62, 0
2, 39011, Note_on_c, 0, 71, 0
2, 39011, Note_on_c, 0, 57, 0
2, 39054, Note_on_c, 0, 71, 68
2, 39054, Note_on_c, 0, 57, 58
2, 39055, Note_on_c, 0, 62, 62
2, 39056, Note_on_c, 0, 67, 57
2, 39063, Note_on_c, 0, 67, 0
2, 39064, Note_on_c, 0, 62, 0
2, 39064, Note_on_c, 0, 57, 0
2, 39067, Note_on_c, 0, 71, 0
2, 39117, Note_on_c, 0, 71, 68
2, 39117, Note_on_c, 0, 67, 71
2, 39118, Note_on_c, 0, 62, 72
2, 39119, Note_on_c, 0, 57, 59
2, 39128, Note_on_c, 0, 67, 0
2, 39129, Note_on_c, 0, 71, 0
2, 39130, Note_on_c, 0, 62, 0
2, 39137, Note_on_c, 0, 57, 0
2, 39145, Note_on_c, 0, 62, 62
2, 39146, Note_on_c, 0, 67, 58
2, 39147, Note_on_c, 0, 71, 56
2, 39148, Note_on_c, 0, 57, 24
2, 39161, Note_on_c, 0, 67, 0
2, 39163, Note_on_c, 0, 62, 0
2, 39165, Note_on_c, 0, 71, 0
2, 39170, Note_on_c, 0, 57, 0
2, 39235, Note_on_c, 0, 61, 69
2, 39235, Note_on_c, 0, 66, 62
2, 39236, Note_on_c, 0, 70, 53
2, 39238, Note_on_c, 0, 57, 50
2, 39246, Note_on_c, 0, 70, 0
2, 39246, Note_on_c, 0, 61, 0
2, 39247, Note_on_c, 0, 66, 0
2, 39248, Note_on_c, 0, 57, 0
2, 39264, Note_on_c, 0, 66, 56
2, 39264, Note_on_c, 0, 61, 45
2, 39266, Note_on_c, 0, 70, 37
2, 39269, Note_on_c, 0, 57, 37
2, 39273, Note_on_c, 0, 70, 0
2, 39275, Note_on_c, 0, 61, 0
2, 39277, Note_on_c, 0, 66, 0
2, 39290, Note_on_c, 0, 61, 42
2, 39292, Note_on_c, 0, 70, 39
2, 39292, Note_on_c, 0, 66, 52
2, 39303, Note_on_c, 0, 66, 0
2, 39304, Note_on_c, 0, 70, 0
2, 39304, Note_on_c, 0, 61, 0
2, 39308, Note_on_c, 0, 57, 0
2, 39353, Note_on_c, 0, 70, 53
2, 39354, Note_on_c, 0, 66, 59
2, 39354, Note_on_c, 0, 61, 64
2, 39356, Note_on_c, 0, 57, 32
2, 39360, Note_on_c, 0, 61, 0
2, 39361, Note_on_c, 0, 70, 0
2, 39361, Note_on_c, 0, 66, 0
2, 39364, Note_on_c, 0, 57, 0
2, 39414, Note_on_c, 0, 61, 69
2, 39414, Note_on_c, 0, 70, 55
2, 39414, Note_on_c, 0, 57, 42
2, 39415, Note_on_c, 0, 66, 57
2, 39424, Note_on_c, 0, 57, 0
2, 39424, Note_on_c, 0, 70, 0
2, 39425, Note_on_c, 0, 66, 0
2, 39426, Note_on_c, 0, 61, 0
2, 39472, Note_on_c, 0, 66, 62
2, 39472, Note_on_c, 0, 61, 67
2, 39472, Note_on_c, 0, 70, 49
2, 39475, Note_on_c, 0, 57, 44
2, 39484, Note_on_c, 0, 57, 0
2, 39484, Note_on_c, 0, 70, 0
2, 39486, Note_on_c, 0, 61, 0
2, 39490, Note_on_c, 0, 66, 0
2, 39501, Note_on_c, 0, 61, 42
2, 39502, Note_on_c, 0, 57, 49
2, 39502, Note_on_c, 0, 70, 42
2, 39502, Note_on_c, 0, 66, 56
2, 39552, Note_on_c, 0, 57, 0
2, 39561, Note_on_c, 0, 61, 0
2, 39563, Note_on_c, 0, 70, 0
2, 39565, Note_on_c, 0, 66, 0
2, 39580, Note_on_c, 0, 60, 63
2, 39581, Note_on_c, 0, 57, 53
2, 39581, Note_on_c, 0, 65, 62
2, 39582, Note_on_c, 0, 69, 52
2, 39591, Note_on_c, 0, 65, 0
2, 39594, Note_on_c, 0, 69, 0
2, 39595, Note_on_c, 0, 60, 0
2, 39598, Note_on_c, 0, 57, 0
2, 39610, Note_on_c, 0, 65, 45
2, 39611, Note_on_c, 0, 69, 55
2, 39611, Note_on_c, 0, 60, 48
2, 39615, Note_on_c, 0, 57, 36
2, 39620, Note_on_c, 0, 69, 0
2, 39620, Note_on_c, 0, 65, 0
2, 39621, Note_on_c, 0, 60, 0
2, 39637, Note_on_c, 0, 60, 48
2, 39638, Note_on_c, 0, 69, 44
2, 39638, Note_on_c, 0, 65, 39
2, 39647, Note_on_c, 0, 60, 0
2, 39648, Note_on_c, 0, 65, 0
2, 39650, Note_on_c, 0, 69, 0
2, 39653, Note_on_c, 0, 57, 0
2, 39695, Note_on_c, 0, 57, 55
2, 39696, Note_on_c, 0, 65, 60
2, 39697, Note_on_c, 0, 69, 51
2, 39697, Note_on_c, 0, 60, 61
2, 39704, Note_on_c, 0, 60, 0
2, 39705, Note_on_c, 0, 65, 0
2, 39706, Note_on_c, 0, 69, 0
2, 39706, Note_on_c, 0, 57, 0
2, 39754, Note_on_c, 0, 57, 52
2, 39755, Note_on_c, 0, 65, 65
2, 39756, Note_on_c, 0, 69, 53
2, 39756, Note_on_c, 0, 60, 62
2, 39764, Note_on_c, 0, 60, 0
2, 39765, Note_on_c, 0, 65, 0
2, 39766, Note_on_c, 0, 69, 0
2, 39768, Note_on_c, 0, 57, 0
2, 39814, Note_on_c, 0, 60, 64
2, 39814, Note_on_c, 0, 57, 53
2, 39814, Note_on_c, 0, 65, 66
2, 39814, Note_on_c, 0, 69, 62
2, 39825, Control_c, 0, 64, 127
2, 39848, Note_on_c, 0, 69, 0
2, 39855, Note_on_c, 0, 65, 0
2, 39857, Note_on_c, 0, 57, 0
2, 39858, Note_on_c, 0, 60, 0
2, 39873, Note_on_c, 0, 68, 63
2, 39874, Note_on_c, 0, 57, 63
2, 39874, Note_on_c, 0, 59, 74
2, 39875, Note_on_c, 0, 64, 73
2, 39890, Control_c, 0, 64, 0
2, 39909, Note_on_c, 0, 57, 0
2, 39912, Note_on_c, 0, 64, 0
2, 39913, Note_on_c, 0, 59, 0
2, 39915, Note_on_c, 0, 68, 0
2, 39936, Note_on_c, 0, 68, 69
2, 39937, Note_on_c, 0, 64, 72
2, 39937, Note_on_c, 0, 59, 71
2, 39937, Note_on_c, 0, 57, 71
2, 39946, Control_c, 0, 64, 127
2, 40133, Note_on_c, 0, 57, 0
2, 40146, Note_on_c, 0, 59, 0
2, 40147, Note_on_c, 0, 64, 0
2, 40175, Note_on_c, 0, 68, 0
2, 40205, Note_on_c, 0, 58, 59
2, 40206, Note_on_c, 0, 63, 58
2, 40207, Note_on_c, 0, 67, 57
2, 40208, Note_on_c, 0, 57, 56
2, 40247, Note_on_c, 0, 57, 0
2, 40268, Note_on_c, 0, 67, 0
2, 40268, Note_on_c, 0, 58, 0
2, 40273, Note_on_c, 0, 57, 40
2, 40283, Note_on_c, 0, 63, 0
2, 40289, Note_on_c, 0, 57, 0
2, 40314, Control_c, 0, 64, 0
2, 40321, Note_on_c, 0, 66, 43
2, 40322, Note_on_c, 0, 50, 41
2, 40324, Note_on_c, 0, 62, 49
2, 40324, Note_on_c, 0, 57, 41
2, 40337, Control_c, 0, 64, 127
2, 40343, Note_on_c, 0, 57, 0
2, 40345, Note_on_c, 0, 50, 0
2, 40367, Note_on_c, 0, 62, 0
2, 40375, Note_on_c, 0, 66, 0
2, 40435, Note_on_c, 0, 54, 37
2, 40437, Note_on_c, 0, 64, 36
2, 40439, Note_on_c, 0, 61, 35
2, 40443, Note_on_c, 0, 59, 30
2, 40537, Note_on_c, 0, 64, 0
2, 40545, Note_on_c, 0, 61, 0
2, 40553, Note_on_c, 0, 59, 0
2, 40564, Note_on_c, 0, 64, 51
2, 40566, Note_on_c, 0, 81, 105
2, 40567, Note_on_c, 0, 59, 28
2, 40568, Note_on_c, 0, 61, 29
2, 40582, Control_c, 0, 64, 0
2, 40646, Note_on_c, 0, 64, 0
2, 40649, Note_on_c, 0, 61, 0
2, 40650, Note_on_c, 0, 59, 0
2, 40681, Note_on_c, 0, 61, 39
2, 40681, Note_on_c, 0, 64, 32
2, 40684, Note_on_c, 0, 59, 36
2, 40690, Note_on_c, 0, 64, 0
2, 40693, Note_on_c, 0, 59, 0
2, 40696, Note_on_c, 0, 54, 0
2, 40698, Note_on_c, 0, 61, 0
2, 40742, Control_c, 0, 64, 127
2, 40769, Control_c, 0, 64, 0
2, 40774, Note_on_c, 0, 61, 47
2, 40774, Note_on_c, 0, 64, 53
2, 40775, Note_on_c, 0, 54, 39
2, 40778, Note_on_c, 0, 59, 42
2, 40784, Note_on_c, 0, 64, 0
2, 40786, Note_on_c, 0, 59, 0
2, 40790, Note_on_c, 0, 54, 0
2, 40790, Note_on_c, 0, 61, 0
2, 40864, Note_on_c, 0, 54, 45
2, 40865, Note_on_c, 0, 64, 43
2, 40865, Note_on_c, 0, 61, 35
2, 40868, Note_on_c, 0, 59, 45
2, 40925, Note_on_c, 0, 64, 0
2, 40933, Note_on_c, 0, 61, 0
2, 40934, Note_on_c, 0, 59, 0
2, 40944, Note_on_c, 0, 54, 0
2, 40953, Note_on_c, 0, 81, 0
2, 40958, Note_on_c, 0, 83, 66
2, 40960, Note_on_c, 0, 54, 18
2, 40961, Note_on_c, 0, 71, 75
2, 40962, Note_on_c, 0, 64, 24
2, 40963, Note_on_c, 0, 61, 25
2, 40970, Note_on_c, 0, 64, 0
2, 40974, Note_on_c, 0, 61, 0
2, 40976, Note_on_c, 0, 54, 0
2, 41011, Note_on_c, 0, 71, 0
2, 41012, Note_on_c, 0, 83, 0
2, 41016, Note_on_c, 0, 54, 33
2, 41017, Note_on_c, 0, 61, 34
2, 41032, Note_on_c, 0, 54, 0
2, 41038, Note_on_c, 0, 61, 0
2, 41046, Note_on_c, 0, 73, 67
2, 41046, Note_on_c, 0, 85, 82
2, 41099, Note_on_c, 0, 61, 23
2, 41107, Note_on_c, 0, 61, 0
2, 41111, Note_on_c, 0, 85, 0
2, 41121, Note_on_c, 0, 73, 0
2, 41144, Note_on_c, 0, 61, 27
2, 41146, Note_on_c, 0, 78, 51
2, 41148, Note_on_c, 0, 66, 51
2, 41155, Note_on_c, 0, 66, 0
2, 41155, Note_on_c, 0, 61, 0
2, 41157, Note_on_c, 0, 78, 0
2, 41231, Note_on_c, 0, 66, 60
2, 41232, Note_on_c, 0, 78, 50
2, 41233, Note_on_c, 0, 61, 35
2, 41234, Note_on_c, 0, 54, 34
2, 41241, Note_on_c, 0, 59, 24
2, 41243, Note_on_c, 0, 78, 0
2, 41243, Note_on_c, 0, 66, 0
2, 41251, Note_on_c, 0, 54, 0
2, 41251, Note_on_c, 0, 59, 0
2, 41264, Note_on_c, 0, 61, 0
2, 41324, Note_on_c, 0, 54, 47
2, 41326, Note_on_c, 0, 61, 40
2, 41328, Note_on_c, 0, 64, 31
2, 41342, Note_on_c, 0, 64, 0
2, 41346, Note_on_c, 0, 54, 0
2, 41348, Note_on_c, 0, 61, 0
2, 41411, Note_on_c, 0, 55, 48
2, 41411, Note_on_c, 0, 62, 55
2, 41413, Note_on_c, 0, 66, 49
2, 41416, Note_on_c, 0, 59, 47
2, 41436, Note_on_c, 0, 55, 0
2, 41440, Note_on_c, 0, 59, 0
2, 41441, Note_on_c, 0, 66, 0
2, 41442, Note_on_c, 0, 62, 0
2, 41493, Note_on_c, 0, 62, 53
2, 41494, Note_on_c, 0, 66, 45
2, 41495, Note_on_c, 0, 55, 48
2, 41500, Note_on_c, 0, 59, 43
2, 41516, Note_on_c, 0, 55, 0
2, 41519, Note_on_c, 0, 62, 0
2, 41519, Note_on_c, 0, 66, 0
2, 41521, Note_on_c, 0, 59, 0
2, 41581, Note_on_c, 0, 66, 58
2, 41582, Note_on_c, 0, 61, 50
2, 41582, Note_on_c, 0, 55, 53
2, 41603, Note_on_c, 0, 55, 0
2, 41609, Note_on_c, 0, 66, 0
2, 41610, Note_on_c, 0, 61, 0
2, 41671, Note_on_c, 0, 66, 63
2, 41671, Note_on_c, 0, 61, 54
2, 41674, Note_on_c, 0, 55, 52
2, 41698, Note_on_c, 0, 55, 0
2, 41709, Note_on_c, 0, 66, 0
2, 41720, Note_on_c, 0, 61, 0
2, 41751, Note_on_c, 0, 61, 34
2, 41753, Note_on_c, 0, 64, 45
2, 41753, Note_on_c, 0, 54, 39
2, 41759, Note_on_c, 0, 59, 54
2, 41795, Note_on_c, 0, 59, 0
2, 41803, Note_on_c, 0, 54, 0
2, 41804, Note_on_c, 0, 64, 0
2, 41810, Note_on_c, 0, 61, 0
2, 41842, Note_on_c, 0, 54, 39
2, 41843, Note_on_c, 0, 61, 32
2, 41843, Note_on_c, 0, 64, 41
2, 41849, Note_on_c, 0, 59, 35
2, 41875, Note_on_c, 0, 59, 0
2, 41879, Note_on_c, 0, 54, 0
2, 41880, Note_on_c, 0, 64, 0
2, 41885, Note_on_c, 0, 61, 0
2, 41933, Note_on_c, 0, 86, 91
2, 41934, Note_on_c, 0, 64, 63
2, 41935, Note_on_c, 0, 61, 48
2, 41936, Note_on_c, 0, 54, 46
2, 41937, Note_on_c, 0, 59, 51
2, 41950, Note_on_c, 0, 86, 0
2, 41967, Note_on_c, 0, 59, 0
2, 41969, Note_on_c, 0, 64, 0
2, 41974, Note_on_c, 0, 54, 0
2, 41988, Note_on_c, 0, 86, 82
2, 41992, Note_on_c, 0, 61, 0
2, 42001, Note_on_c, 0, 86, 0
2, 42024, Note_on_c, 0, 93, 92
2, 42044, Note_on_c, 0, 93, 0
2, 42047, Note_on_c, 0, 61, 39
2, 42049, Note_on_c, 0, 64, 43
2, 42049, Note_on_c, 0, 54, 35
2, 42064, Note_on_c, 0, 93, 85
2, 42068, Note_on_c, 0, 64, 0
2, 42072, Note_on_c, 0, 54, 0
2, 42084, Note_on_c, 0, 93, 0
2, 42101, Note_on_c, 0, 85, 68
2, 42110, Note_on_c, 0, 61, 0
2, 42118, Note_on_c, 0, 85, 0
2, 42138, Note_on_c, 0, 85, 73
2, 42160, Note_on_c, 0, 85, 0
2, 42168, Note_on_c, 0, 64, 36
2, 42168, Note_on_c, 0, 61, 37
2, 42170, Note_on_c, 0, 54, 27
2, 42171, Note_on_c, 0, 88, 74
2, 42175, Note_on_c, 0, 59, 45
2, 42189, Note_on_c, 0, 64, 0
2, 42193, Note_on_c, 0, 54, 0
2, 42199, Note_on_c, 0, 59, 0
2, 42199, Note_on_c, 0, 88, 0
2, 42216, Note_on_c, 0, 61, 0
2, 42227, Note_on_c, 0, 81, 63
2, 42249, Note_on_c, 0, 81, 0
2, 42262, Note_on_c, 0, 81, 68
2, 42285, Note_on_c, 0, 81, 0
2, 42296, Note_on_c, 0, 61, 35
2, 42299, Note_on_c, 0, 54, 30
2, 42301, Note_on_c, 0, 64, 32
2, 42302, Note_on_c, 0, 85, 76
2, 42321, Note_on_c, 0, 64, 0
2, 42328, Note_on_c, 0, 61, 0
2, 42330, Note_on_c, 0, 85, 0
2, 42347, Note_on_c, 0, 54, 0
2, 42360, Note_on_c, 0, 83, 80
2, 42380, Note_on_c, 0, 83, 0
2, 42390, Note_on_c, 0, 80, 64
2, 42390, Note_on_c, 0, 59, 32
2, 42390, Note_on_c, 0, 62, 31
2, 42390, Note_on_c, 0, 54, 19
2, 42404, Note_on_c, 0, 62, 0
2, 42412, Note_on_c, 0, 54, 0
2, 42416, Note_on_c, 0, 59, 0
2, 42419, Note_on_c, 0, 80, 0
2, 42450, Note_on_c, 0, 77, 65
2, 42450, Note_on_c, 0, 54, 34
2, 42450, Note_on_c, 0, 59, 28
2, 42463, Note_on_c, 0, 59, 0
2, 42470, Note_on_c, 0, 54, 0
2, 42480, Note_on_c, 0, 55, 68
2, 42480, Note_on_c, 0, 85, 82
2, 42480, Note_on_c, 0, 61, 60
2, 42480, Note_on_c, 0, 66, 61
2, 42482, Note_on_c, 0, 77, 0
2, 42513, Note_on_c, 0, 66, 0
2, 42531, Note_on_c, 0, 55, 0
2, 42537, Note_on_c, 0, 61, 0
2, 42572, Note_on_c, 0, 76, 54
2, 42576, Note_on_c, 0, 66, 47
2, 42578, Note_on_c, 0, 85, 0
2, 42579, Note_on_c, 0, 61, 39
2, 42582, Note_on_c, 0, 55, 29
2, 42591, Note_on_c, 0, 66, 0
2, 42592, Note_on_c, 0, 76, 0
2, 42592, Note_on_c, 0, 55, 0
2, 42607, Note_on_c, 0, 61, 0
2, 42660, Note_on_c, 0, 66, 57
2, 42661, Note_on_c, 0, 61, 52
2, 42663, Note_on_c, 0, 55, 45
2, 42672, Note_on_c, 0, 55, 0
2, 42676, Note_on_c, 0, 66, 0
2, 42681, Note_on_c, 0, 61, 0
2, 42744, Note_on_c, 0, 67, 66
2, 42746, Note_on_c, 0, 56, 43
2, 42746, Note_on_c, 0, 62, 57
2, 42791, Note_on_c, 0, 67, 0
2, 42793, Note_on_c, 0, 62, 0
2, 42806, Note_on_c, 0, 56, 0
2, 42828, Note_on_c, 0, 55, 66
2, 42830, Note_on_c, 0, 61, 43
2, 42831, Note_on_c, 0, 64, 47
2, 42845, Note_on_c, 0, 64, 0
2, 42853, Note_on_c, 0, 55, 0
2, 42859, Note_on_c, 0, 61, 0
2, 42923, Note_on_c, 0, 61, 44
2, 42924, Note_on_c, 0, 64, 44
2, 42925, Note_on_c, 0, 55, 48
2, 42935, Note_on_c, 0, 55, 0
2, 42941, Note_on_c, 0, 64, 0
2, 42946, Note_on_c, 0, 61, 0
2, 43012, Note_on_c, 0, 61, 56
2, 43013, Note_on_c, 0, 64, 59
2, 43013, Note_on_c, 0, 55, 64
2, 43022, Note_on_c, 0, 55, 0
2, 43026, Note_on_c, 0, 64, 0
2, 43034, Note_on_c, 0, 61, 0
2, 43106, Note_on_c, 0, 55, 47
2, 43107, Note_on_c, 0, 61, 30
2, 43114, Note_on_c, 0, 61, 0
2, 43114, Note_on_c, 0, 55, 0
2, 43128, Note_on_c, 0, 55, 70
2, 43130, Note_on_c, 0, 61, 52
2, 43131, Note_on_c, 0, 64, 53
2, 43159, Note_on_c, 0, 55, 0
2, 43167, Note_on_c, 0, 64, 0
2, 43175, Note_on_c, 0, 61, 0
2, 43195, Note_on_c, 0, 64, 58
2, 43196, Note_on_c, 0, 54, 48
2, 43198, Note_on_c, 0, 60, 54
2, 43250, Note_on_c, 0, 60, 0
2, 43255, Note_on_c, 0, 64, 0
2, 43268, Note_on_c, 0, 54, 0
2, 43280, Note_on_c, 0, 74, 71
2, 43292, Note_on_c, 0, 54, 37
2, 43296, Note_on_c, 0, 64, 20
2, 43299, Note_on_c, 0, 74, 0
2, 43312, Note_on_c, 0, 64, 0
2, 43324, Note_on_c, 0, 54, 0
2, 43375, Note_on_c, 0, 61, 52
2, 43375, Note_on_c, 0, 54, 54
2, 43376, Note_on_c, 0, 81, 74
2, 43376, Note_on_c, 0, 64, 49
2, 43376, Note_on_c, 0, 69, 80
2, 43386, Note_on_c, 0, 64, 0
2, 43390, Note_on_c, 0, 61, 0
2, 43390, Note_on_c, 0, 69, 0
2, 43392, Note_on_c, 0, 81, 0
2, 43393, Note_on_c, 0, 54, 0
2, 43468, Note_on_c, 0, 54, 55
2, 43468, Note_on_c, 0, 81, 68
2, 43469, Note_on_c, 0, 69, 68
2, 43470, Note_on_c, 0, 61, 46
2, 43471, Note_on_c, 0, 64, 42
2, 43504, Note_on_c, 0, 54, 0
2, 43507, Note_on_c, 0, 64, 0
2, 43513, Note_on_c, 0, 61, 0
2, 43529, Note_on_c, 0, 69, 0
2, 43532, Note_on_c, 0, 81, 0
2, 43549, Note_on_c, 0, 57, 67
2, 43550, Note_on_c, 0, 81, 66
2, 43551, Note_on_c, 0, 69, 71
2, 43551, Note_on_c, 0, 78, 49
2, 43553, Note_on_c, 0, 74, 61
2, 43553, Note_on_c, 0, 62, 58
2, 43553, Note_on_c, 0, 66, 65
2, 43620, Note_on_c, 0, 57, 0
2, 43624, Note_on_c, 0, 66, 0
2, 43630, Note_on_c, 0, 62, 0
2, 43642, Note_on_c, 0, 66, 60
2, 43645, Note_on_c, 0, 57, 62
2, 43647, Control_c, 0, 64, 127
2, 43649, Note_on_c, 0, 62, 54
2, 43672, Note_on_c, 0, 57, 0
2, 43672, Note_on_c, 0, 66, 0
2, 43682, Note_on_c, 0, 62, 0
2, 43686, Note_on_c, 0, 74, 0
2, 43689, Note_on_c, 0, 69, 0
2, 43698, Note_on_c, 0, 81, 0
2, 43699, Note_on_c, 0, 78, 0
2, 43734, Note_on_c, 0, 83, 87
2, 43734, Note_on_c, 0, 57, 69
2, 43735, Note_on_c, 0, 66, 74
2, 43735, Note_on_c, 0, 71, 92
2, 43736, Note_on_c, 0, 62, 66
2, 43744, Control_c, 0, 64, 0
2, 43773, Control_c, 0, 64, 127
2, 43788, Note_on_c, 0, 82, 29
2, 43791, Note_on_c, 0, 83, 0
2, 43797, Note_on_c, 0, 57, 0
2, 43797, Note_on_c, 0, 66, 0
2, 43804, Note_on_c, 0, 71, 0
2, 43806, Note_on_c, 0, 82, 0
2, 43808, Note_on_c, 0, 62, 0
2, 43836, Note_on_c, 0, 73, 71
2, 43837, Note_on_c, 0, 85, 90
2, 43837, Note_on_c, 0, 66, 74
2, 43837, Note_on_c, 0, 57, 70
2, 43840, Note_on_c, 0, 62, 66
2, 43847, Control_c, 0, 64, 0
2, 43857, Control_c, 0, 64, 127
2, 43884, Note_on_c, 0, 57, 0
2, 43886, Note_on_c, 0, 62, 0
2, 43898, Note_on_c, 0, 85, 0
2, 43900, Note_on_c, 0, 73, 0
2, 43902, Note_on_c, 0, 66, 0
2, 43928, Note_on_c, 0, 62, 71
2, 43928, Note_on_c, 0, 86, 80
2, 43928, Note_on_c, 0, 56, 72
2, 43928, Note_on_c, 0, 67, 81
2, 43929, Note_on_c, 0, 76, 82
2, 43929, Note_on_c, 0, 80, 62
2, 43986, Note_on_c, 0, 86, 0
2, 43991, Note_on_c, 0, 80, 0
2, 43995, Note_on_c, 0, 76, 0
2, 43996, Note_on_c, 0, 67, 0
2, 44011, Note_on_c, 0, 56, 0
2, 44011, Note_on_c, 0, 62, 0
2, 44042, Note_on_c, 0, 80, 65
2, 44044, Note_on_c, 0, 68, 69
2, 44046, Note_on_c, 0, 65, 66
2, 44046, Note_on_c, 0, 56, 67
2, 44047, Note_on_c, 0, 62, 60
2, 44049, Note_on_c, 0, 74, 43
2, 44087, Note_on_c, 0, 74, 0
2, 44096, Note_on_c, 0, 68, 0
2, 44101, Note_on_c, 0, 80, 0
2, 44101, Note_on_c, 0, 65, 0
2, 44109, Note_on_c, 0, 62, 0
2, 44112, Note_on_c, 0, 56, 0
2, 44160, Note_on_c, 0, 80, 72
2, 44161, Note_on_c, 0, 62, 66
2, 44161, Note_on_c, 0, 68, 81
2, 44161, Note_on_c, 0, 65, 71
2, 44162, Note_on_c, 0, 56, 67
2, 44162, Note_on_c, 0, 74, 76
2, 44170, Control_c, 0, 64, 0
2, 44193, Control_c, 0, 64, 127
2, 44258, Note_on_c, 0, 65, 0
2, 44262, Note_on_c, 0, 74, 0
2, 44263, Note_on_c, 0, 62, 0
2, 44263, Note_on_c, 0, 56, 0
2, 44269, Note_on_c, 0, 68, 0
2, 44280, Note_on_c, 0, 68, 30
2, 44282, Note_on_c, 0, 56, 51
2, 44283, Note_on_c, 0, 74, 58
2, 44283, Note_on_c, 0, 67, 71
2, 44285, Note_on_c, 0, 62, 57
2, 44325, Note_on_c, 0, 74, 0
2, 44363, Note_on_c, 0, 67, 0
2, 44372, Note_on_c, 0, 68, 0
2, 44373, Note_on_c, 0, 56, 0
2, 44382, Note_on_c, 0, 62, 0
2, 44397, Note_on_c, 0, 68, 48
2, 44398, Note_on_c, 0, 71, 60
2, 44398, Note_on_c, 0, 65, 62
2, 44398, Note_on_c, 0, 56, 53
2, 44398, Note_on_c, 0, 75, 34
2, 44400, Note_on_c, 0, 62, 49
2, 44405, Note_on_c, 0, 75, 0
2, 44406, Note_on_c, 0, 78, 1
2, 44410, Note_on_c, 0, 80, 0
2, 44480, Note_on_c, 0, 65, 0
2, 44481, Note_on_c, 0, 68, 0
2, 44481, Note_on_c, 0, 56, 0
2, 44494, Note_on_c, 0, 62, 0
2, 44496, Note_on_c, 0, 78, 0
2, 44515, Note_on_c, 0, 71, 0
2, 44519, Note_on_c, 0, 56, 62
2, 44520, Note_on_c, 0, 68, 51
2, 44521, Note_on_c, 0, 62, 50
2, 44521, Note_on_c, 0, 65, 54
2, 44527, Note_on_c, 0, 68, 0
2, 44540, Note_on_c, 0, 65, 0
2, 44552, Note_on_c, 0, 62, 0
2, 44562, Note_on_c, 0, 56, 0
2, 44602, Note_on_c, 0, 62, 50
2, 44616, Note_on_c, 0, 62, 0
2, 44625, Note_on_c, 0, 62, 39
2, 44628, Control_c, 0, 64, 0
2, 44628, Note_on_c, 0, 55, 75
2, 44628, Note_on_c, 0, 87, 82
2, 44629, Note_on_c, 0, 66, 83
2, 44629, Note_on_c, 0, 95, 78
2, 44630, Note_on_c, 0, 91, 68
2, 44631, Note_on_c, 0, 83, 76
2, 44632, Note_on_c, 0, 59, 67
2, 44654, Note_on_c, 0, 88, 51
2, 44657, Note_on_c, 0, 87, 0
2, 44657, Control_c, 0, 64, 127
2, 44726, Note_on_c, 0, 59, 0
2, 44727, Note_on_c, 0, 55, 0
2, 44729, Note_on_c, 0, 83, 0
2, 44730, Note_on_c, 0, 95, 0
2, 44730, Note_on_c, 0, 66, 0
2, 44730, Note_on_c, 0, 88, 0
2, 44736, Note_on_c, 0, 62, 0
2, 44737, Control_c, 0, 64, 0
2, 44739, Note_on_c, 0, 91, 0
2, 44754, Note_on_c, 0, 66, 72
2, 44755, Note_on_c, 0, 55, 68
2, 44756, Note_on_c, 0, 62, 69
2, 44757, Note_on_c, 0, 95, 78
2, 44758, Note_on_c, 0, 59, 68
2, 44758, Note_on_c, 0, 87, 45
2, 44759, Note_on_c, 0, 83, 68
2, 44760, Note_on_c, 0, 91, 51
2, 44762, Note_on_c, 0, 88, 66
2, 44803, Note_on_c, 0, 95, 0
2, 44812, Note_on_c, 0, 83, 0
2, 44815, Note_on_c, 0, 55, 0
2, 44817, Note_on_c, 0, 66, 0
2, 44819, Note_on_c, 0, 87, 0
2, 44820, Note_on_c, 0, 59, 0
2, 44824, Note_on_c, 0, 91, 0
2, 44824, Note_on_c, 0, 88, 0
2, 44825, Note_on_c, 0, 62, 0
2, 44835, Note_on_c, 0, 66, 55
2, 44837, Note_on_c, 0, 62, 30
2, 44840, Note_on_c, 0, 55, 51
2, 44840, Note_on_c, 0, 59, 38
2, 44840, Note_on_c, 0, 94, 57
2, 44841, Note_on_c, 0, 82, 47
2, 44846, Note_on_c, 0, 91, 22
2, 44847, Note_on_c, 0, 88, 20
2, 44855, Note_on_c, 0, 88, 0
2, 44858, Note_on_c, 0, 91, 0
2, 44858, Note_on_c, 0, 55, 0
2, 44858, Note_on_c, 0, 66, 0
2, 44858, Note_on_c, 0, 82, 0
2, 44860, Note_on_c, 0, 94, 0
2, 44865, Note_on_c, 0, 59, 0
2, 44875, Note_on_c, 0, 66, 65
2, 44876, Note_on_c, 0, 55, 66
2, 44878, Note_on_c, 0, 95, 73
2, 44879, Note_on_c, 0, 59, 60
2, 44879, Note_on_c, 0, 83, 66
2, 44879, Note_on_c, 0, 88, 69
2, 44881, Note_on_c, 0, 91, 44
2, 44913, Note_on_c, 0, 88, 0
2, 44916, Note_on_c, 0, 91, 0
2, 44918, Note_on_c, 0, 62, 0
2, 44920, Note_on_c, 0, 83, 0
2, 44926, Note_on_c, 0, 55, 0
2, 44928, Note_on_c, 0, 95, 0
2, 44928, Note_on_c, 0, 66, 0
2, 44930, Note_on_c, 0, 59, 0
2, 44958, Note_on_c, 0, 66, 83
2, 44958, Note_on_c, 0, 96, 85
2, 44958, Note_on_c, 0, 61, 74
2, 44958, Note_on_c, 0, 89, 81
2, 44959, Note_on_c, 0, 93, 79
2, 44959, Note_on_c, 0, 55, 78
2, 44959, Note_on_c, 0, 84, 84
2, 45014, Control_c, 0, 64, 127
2, 45084, Note_on_c, 0, 96, 0
2, 45085, Note_on_c, 0, 84, 0
2, 45087, Note_on_c, 0, 55, 0
2, 45088, Note_on_c, 0, 66, 0
2, 45091, Note_on_c, 0, 93, 0
2, 45096, Note_on_c, 0, 89, 0
2, 45103, Note_on_c, 0, 61, 0
2, 45111, Control_c, 0, 64, 0
2, 45114, Note_on_c, 0, 66, 67
2, 45114, Note_on_c, 0, 55, 72
2, 45114, Note_on_c, 0, 95, 63
2, 45115, Note_on_c, 0, 61, 67
2, 45116, Note_on_c, 0, 89, 58
2, 45117, Note_on_c, 0, 83, 51
2, 45142, Control_c, 0, 64, 127
2, 45193, Note_on_c, 0, 55, 0
2, 45197, Note_on_c, 0, 83, 0
2, 45200, Note_on_c, 0, 66, 0
2, 45201, Note_on_c, 0, 89, 0
2, 45211, Note_on_c, 0, 61, 0
2, 45212, Note_on_c, 0, 95, 0
2, 45234, Control_c, 0, 64, 0
2, 45239, Note_on_c, 0, 61, 72
2, 45239, Note_on_c, 0, 66, 77
2, 45240, Note_on_c, 0, 96, 80
2, 45240, Note_on_c, 0, 55, 77
2, 45240, Note_on_c, 0, 93, 64
2, 45241, Note_on_c, 0, 84, 71
2, 45241, Note_on_c, 0, 89, 69
2, 45257, Control_c, 0, 64, 127
2, 45266, Note_on_c, 0, 89, 0
2, 45270, Note_on_c, 0, 55, 0
2, 45272, Note_on_c, 0, 93, 0
2, 45276, Note_on_c, 0, 96, 0
2, 45276, Note_on_c, 0, 84, 0
2, 45277, Note_on_c, 0, 66, 0
2, 45281, Note_on_c, 0, 61, 0
2, 45313, Note_on_c, 0, 61, 62
2, 45318, Note_on_c, 0, 97, 71
2, 45318, Note_on_c, 0, 85, 74
2, 45339, Note_on_c, 0, 85, 0
2, 45339, Note_on_c, 0, 61, 0
2, 45345, Note_on_c, 0, 97, 0
2, 45353, Note_on_c, 0, 90, 47
2, 45353, Note_on_c, 0, 61, 64
2, 45354, Note_on_c, 0, 54, 68
2, 45356, Note_on_c, 0, 64, 63
2, 45358, Control_c, 0, 64, 0
2, 45359, Note_on_c, 0, 98, 60
2, 45359, Note_on_c, 0, 86, 55
2, 45360, Note_on_c, 0, 84, 45
2, 45364, Note_on_c, 0, 96, 26
2, 45366, Note_on_c, 0, 84, 0
2, 45382, Control_c, 0, 64, 127
2, 45439, Note_on_c, 0, 96, 0
2, 45440, Note_on_c, 0, 64, 0
2, 45440, Note_on_c, 0, 86, 0
2, 45441, Note_on_c, 0, 90, 0
2, 45443, Note_on_c, 0, 54, 0
2, 45446, Note_on_c, 0, 98, 0
2, 45448, Note_on_c, 0, 61, 0
2, 45475, Note_on_c, 0, 90, 58
2, 45476, Note_on_c, 0, 54, 61
2, 45476, Note_on_c, 0, 98, 68
2, 45477, Control_c, 0, 64, 0
2, 45477, Note_on_c, 0, 61, 62
2, 45478, Note_on_c, 0, 64, 64
2, 45478, Note_on_c, 0, 86, 60
2, 45483, Note_on_c, 0, 93, 37
2, 45495, Control_c, 0, 64, 127
2, 45529, Note_on_c, 0, 93, 0
2, 45529, Note_on_c, 0, 98, 0
2, 45529, Note_on_c, 0, 86, 0
2, 45533, Note_on_c, 0, 54, 0
2, 45534, Note_on_c, 0, 61, 0
2, 45539, Note_on_c, 0, 64, 0
2, 45541, Note_on_c, 0, 90, 0
2, 45559, Note_on_c, 0, 97, 63
2, 45561, Note_on_c, 0, 85, 62
2, 45561, Note_on_c, 0, 54, 49
2, 45562, Note_on_c, 0, 61, 55
2, 45565, Note_on_c, 0, 90, 32
2, 45573, Note_on_c, 0, 90, 0
2, 45575, Note_on_c, 0, 85, 0
2, 45579, Note_on_c, 0, 61, 0
2, 45580, Note_on_c, 0, 54, 0
2, 45584, Note_on_c, 0, 97, 0
2, 45594, Control_c, 0, 64, 0
2, 45596, Note_on_c, 0, 54, 64
2, 45597, Note_on_c, 0, 61, 68
2, 45598, Control_c, 0, 64, 127
2, 45599, Note_on_c, 0, 98, 75
2, 45600, Note_on_c, 0, 86, 63
2, 45600, Note_on_c, 0, 64, 69
2, 45600, Note_on_c, 0, 90, 33
2, 45607, Note_on_c, 0, 90, 0
2, 45619, Note_on_c, 0, 86, 0
2, 45633, Note_on_c, 0, 86, 24
2, 45643, Note_on_c, 0, 86, 0
2, 45645, Note_on_c, 0, 64, 0
2, 45646, Note_on_c, 0, 98, 0
2, 45648, Note_on_c, 0, 54, 0
2, 45656, Note_on_c, 0, 61, 0
2, 45682, Note_on_c, 0, 54, 86
2, 45683, Note_on_c, 0, 65, 94
2, 45683, Note_on_c, 0, 98, 95
2, 45683, Note_on_c, 0, 94, 92
2, 45683, Note_on_c, 0, 86, 96
2, 45683, Note_on_c, 0, 60, 88
2, 45686, Note_on_c, 0, 97, 56
2, 45688, Note_on_c, 0, 88, 41
2, 45688, Note_on_c, 0, 58, 39
2, 45692, Note_on_c, 0, 97, 0
2, 45692, Control_c, 0, 64, 0
2, 45694, Note_on_c, 0, 58, 0
2, 45695, Note_on_c, 0, 88, 0
2, 45723, Control_c, 0, 64, 127
2, 45804, Note_on_c, 0, 86, 0
2, 45805, Note_on_c, 0, 65, 0
2, 45806, Note_on_c, 0, 94, 0
2, 45810, Note_on_c, 0, 98, 0
2, 45810, Note_on_c, 0, 60, 0
2, 45812, Note_on_c, 0, 54, 0
2, 45837, Note_on_c, 0, 54, 82
2, 45837, Note_on_c, 0, 65, 82
2, 45838, Note_on_c, 0, 98, 83
2, 45838, Note_on_c, 0, 60, 80
2, 45838, Note_on_c, 0, 86, 92
2, 45839, Note_on_c, 0, 94, 83
2, 45841, Control_c, 0, 64, 0
2, 45867, Control_c, 0, 64, 127
2, 45900, Note_on_c, 0, 98, 0
2, 45910, Note_on_c, 0, 94, 0
2, 45926, Note_on_c, 0, 86, 0
2, 45997, Note_on_c, 0, 54, 0
2, 46000, Note_on_c, 0, 65, 0
2, 46004, Note_on_c, 0, 60, 0
2, 46075, Note_on_c, 0, 86, 83
2, 46075, Note_on_c, 0, 74, 87
2, 46075, Control_c, 0, 64, 0
2, 46076, Note_on_c, 0, 55, 79
2, 46076, Note_on_c, 0, 80, 77
2, 46077, Note_on_c, 0, 65, 76
2, 46077, Note_on_c, 0, 60, 81
2, 46129, Note_on_c, 0, 80, 0
2, 46131, Note_on_c, 0, 65, 0
2, 46131, Note_on_c, 0, 81, 38
2, 46138, Note_on_c, 0, 74, 0
2, 46138, Note_on_c, 0, 60, 0
2, 46139, Note_on_c, 0, 86, 0
2, 46139, Note_on_c, 0, 55, 0
2, 46144, Note_on_c, 0, 81, 0
2, 46286, Note_on_c, 0, 51, 40
2, 46311, Note_on_c, 0, 51, 0
2, 46313, Note_on_c, 0, 57, 60
2, 46313, Note_on_c, 0, 67, 64
2, 46315, Note_on_c, 0, 60, 57
2, 46315, Note_on_c, 0, 55, 71
2, 46319, Note_on_c, 0, 64, 33
2, 46355, Note_on_c, 0, 64, 0
2, 46364, Note_on_c, 0, 67, 0
2, 46371, Note_on_c, 0, 60, 0
2, 46374, Note_on_c, 0, 57, 0
2, 46397, Note_on_c, 0, 54, 62
2, 46399, Note_on_c, 0, 63, 40
2, 46400, Note_on_c, 0, 55, 0
2, 46400, Note_on_c, 0, 57, 52
2, 46402, Note_on_c, 0, 60, 29
2, 46406, Note_on_c, 0, 67, 36
2, 46416, Note_on_c, 0, 60, 0
2, 46423, Note_on_c, 0, 57, 0
2, 46425, Note_on_c, 0, 63, 0
2, 46426, Note_on_c, 0, 67, 0
2, 46441, Note_on_c, 0, 54, 0
2, 46444, Note_on_c, 0, 67, 36
2, 46445, Note_on_c, 0, 57, 47
2, 46449, Note_on_c, 0, 64, 42
2, 46449, Note_on_c, 0, 55, 45
2, 46449, Note_on_c, 0, 60, 45
2, 46502, Note_on_c, 0, 60, 0
2, 46502, Note_on_c, 0, 57, 0
2, 46505, Note_on_c, 0, 67, 0
2, 46506, Note_on_c, 0, 64, 0
2, 46506, Note_on_c, 0, 55, 0
2, 46509, Note_on_c, 0, 54, 25
2, 46521, Note_on_c, 0, 67, 62
2, 46524, Note_on_c, 0, 55, 56
2, 46525, Note_on_c, 0, 57, 58
2, 46525, Note_on_c, 0, 60, 64
2, 46525, Note_on_c, 0, 64, 46
2, 46530, Note_on_c, 0, 54, 0
2, 46543, Note_on_c, 0, 64, 0
2, 46545, Note_on_c, 0, 60, 0
2, 46545, Note_on_c, 0, 55, 0
2, 46547, Note_on_c, 0, 57, 0
2, 46548, Note_on_c, 0, 67, 0
2, 46640, Note_on_c, 0, 56, 72
2, 46640, Note_on_c, 0, 53, 68
2, 46641, Note_on_c, 0, 65, 78
2, 46643, Note_on_c, 0, 59, 62
2, 46646, Note_on_c, 0, 62, 34
2, 46658, Note_on_c, 0, 62, 0
2, 46670, Note_on_c, 0, 59, 0
2, 46675, Note_on_c, 0, 56, 0
2, 46680, Note_on_c, 0, 65, 0
2, 46683, Note_on_c, 0, 53, 0
2, 46687, Note_on_c, 0, 50, 52
2, 46689, Note_on_c, 0, 56, 38
2, 46690, Note_on_c, 0, 62, 40
2, 46697, Note_on_c, 0, 59, 29
2, 46739, Note_on_c, 0, 59, 0
2, 46739, Note_on_c, 0, 62, 0
2, 46743, Note_on_c, 0, 56, 0
2, 46747, Note_on_c, 0, 50, 0
2, 46752, Control_c, 0, 64, 127
2, 46762, Note_on_c, 0, 46, 50
2, 46783, Note_on_c, 0, 46, 0
2, 46793, Control_c, 0, 64, 0
2, 46799, Note_on_c, 0, 56, 51
2, 46801, Note_on_c, 0, 52, 53
2, 46801, Note_on_c, 0, 59, 44
2, 46802, Note_on_c, 0, 47, 50
2, 46855, Note_on_c, 0, 52, 0
2, 46861, Note_on_c, 0, 59, 0
2, 46862, Note_on_c, 0, 56, 0
2, 46870, Note_on_c, 0, 47, 0
2, 46875, Note_on_c, 0, 56, 62
2, 46876, Note_on_c, 0, 64, 73
2, 46876, Note_on_c, 0, 50, 53
2, 46877, Note_on_c, 0, 52, 62
2, 46878, Note_on_c, 0, 59, 61
2, 46880, Control_c, 0, 64, 127
2, 46885, Note_on_c, 0, 62, 32
2, 46895, Note_on_c, 0, 52, 0
2, 46895, Note_on_c, 0, 50, 0
2, 46897, Note_on_c, 0, 59, 0
2, 46909, Note_on_c, 0, 56, 0
2, 46909, Control_c, 0, 64, 0
2, 46910, Note_on_c, 0, 64, 0
2, 46910, Note_on_c, 0, 62, 0
2, 46922, Note_on_c, 0, 60, 63
2, 46925, Note_on_c, 0, 55, 47
2, 46927, Note_on_c, 0, 57, 44
2, 46927, Note_on_c, 0, 48, 48
2, 46946, Control_c, 0, 64, 127
2, 46974, Note_on_c, 0, 55, 0
2, 46978, Note_on_c, 0, 57, 0
2, 46981, Note_on_c, 0, 60, 0
2, 46988, Note_on_c, 0, 48, 0
2, 46998, Note_on_c, 0, 36, 59
2, 47002, Note_on_c, 0, 38, 43
2, 47005, Note_on_c, 0, 36, 0
2, 47009, Note_on_c, 0, 38, 0
2, 47024, Control_c, 0, 64, 0
2, 47035, Note_on_c, 0, 62, 60
2, 47035, Note_on_c, 0, 67, 68
2, 47037, Note_on_c, 0, 52, 66
2, 47038, Note_on_c, 0, 57, 38
2, 47039, Note_on_c, 0, 59, 44
2, 47048, Note_on_c, 0, 59, 0
2, 47048, Note_on_c, 0, 57, 0
2, 47051, Note_on_c, 0, 52, 0
2, 47060, Note_on_c, 0, 62, 0
2, 47062, Note_on_c, 0, 67, 0
2, 47112, Note_on_c, 0, 71, 75
2, 47114, Note_on_c, 0, 64, 76
2, 47114, Note_on_c, 0, 62, 80
2, 47115, Note_on_c, 0, 67, 69
2, 47118, Control_c, 0, 64, 127
2, 47118, Note_on_c, 0, 57, 72
2, 47127, Note_on_c, 0, 62, 0
2, 47127, Note_on_c, 0, 69, 20
2, 47131, Note_on_c, 0, 64, 0
2, 47132, Note_on_c, 0, 57, 0
2, 47138, Note_on_c, 0, 69, 0
2, 47138, Note_on_c, 0, 67, 0
2, 47139, Note_on_c, 0, 71, 0
2, 47153, Control_c, 0, 64, 0
2, 47158, Note_on_c, 0, 74, 88
2, 47159, Note_on_c, 0, 67, 83
2, 47159, Note_on_c, 0, 62, 88
2, 47159, Note_on_c, 0, 64, 88
2, 47161, Note_on_c, 0, 71, 62
2, 47168, Note_on_c, 0, 71, 0
2, 47183, Note_on_c, 0, 64, 0
2, 47184, Note_on_c, 0, 67, 0
2, 47188, Note_on_c, 0, 74, 0
2, 47191, Note_on_c, 0, 62, 0
2, 47203, Note_on_c, 0, 62, 24
2, 47205, Control_c, 0, 64, 127
2, 47211, Note_on_c, 0, 62, 0
2, 47225, Control_c, 0, 64, 0
2, 47232, Note_on_c, 0, 72, 71
2, 47233, Note_on_c, 0, 67, 76
2, 47233, Note_on_c, 0, 64, 73
2, 47234, Note_on_c, 0, 60, 77
2, 47236, Note_on_c, 0, 69, 66
2, 47263, Note_on_c, 0, 69, 0
2, 47264, Note_on_c, 0, 60, 0
2, 47266, Note_on_c, 0, 72, 0
2, 47267, Note_on_c, 0, 67, 0
2, 47275, Note_on_c, 0, 64, 0
2, 47312, Note_on_c, 0, 59, 55
2, 47312, Note_on_c, 0, 71, 60
2, 47314, Note_on_c, 0, 64, 68
2, 47315, Note_on_c, 0, 62, 64
2, 47317, Note_on_c, 0, 67, 51
2, 47320, Note_on_c, 0, 69, 28
2, 47322, Control_c, 0, 64, 127
2, 47339, Note_on_c, 0, 67, 0
2, 47340, Note_on_c, 0, 71, 0
2, 47343, Note_on_c, 0, 64, 0
2, 47343, Note_on_c, 0, 69, 0
2, 47349, Note_on_c, 0, 59, 0
2, 47349, Note_on_c, 0, 62, 0
2, 47352, Note_on_c, 0, 55, 66
2, 47384, Control_c, 0, 64, 0
2, 47388, Note_on_c, 0, 55, 0
2, 47391, Note_on_c, 0, 52, 60
2, 47391, Note_on_c, 0, 59, 59
2, 47392, Note_on_c, 0, 67, 58
2, 47392, Note_on_c, 0, 62, 64
2, 47394, Note_on_c, 0, 64, 57
2, 47415, Control_c, 0, 64, 127
2, 47432, Note_on_c, 0, 59, 0
2, 47432, Note_on_c, 0, 52, 0
2, 47447, Note_on_c, 0, 62, 0
2, 47451, Note_on_c, 0, 67, 0
2, 47452, Note_on_c, 0, 64, 0
2, 47513, Note_on_c, 0, 67, 84
2, 47514, Note_on_c, 0, 64, 85
2, 47514, Note_on_c, 0, 59, 90
2, 47515, Note_on_c, 0, 49, 74
2, 47515, Note_on_c, 0, 55, 66
2, 47515, Control_c, 0, 64, 0
2, 47554, Control_c, 0, 64, 127
2, 47629, Note_on_c, 0, 59, 0
2, 47634, Note_on_c, 0, 64, 0
2, 47636, Note_on_c, 0, 55, 0
2, 47652, Note_on_c, 0, 67, 0
2, 47658, Note_on_c, 0, 49, 0
2, 47709, Note_on_c, 0, 66, 82
2, 47709, Note_on_c, 0, 62, 85
2, 47710, Note_on_c, 0, 55, 72
2, 47710, Note_on_c, 0, 48, 75
2, 47711, Note_on_c, 0, 57, 84
2, 47719, Control_c, 0, 64, 0
2, 47750, Control_c, 0, 64, 127
2, 47794, Note_on_c, 0, 57, 0
2, 47794, Note_on_c, 0, 55, 0
2, 47807, Note_on_c, 0, 48, 0
2, 47812, Note_on_c, 0, 62, 0
2, 47816, Note_on_c, 0, 66, 0
2, 47998, Note_on_c, 0, 69, 84
2, 48000, Note_on_c, 0, 65, 81
2, 48000, Note_on_c, 0, 63, 84
2, 48002, Note_on_c, 0, 57, 84
2, 48002, Note_on_c, 0, 51, 72
2, 48002, Note_on_c, 0, 47, 78
2, 48005, Control_c, 0, 64, 0
2, 48005, Note_on_c, 0, 67, 58
2, 48059, Control_c, 0, 64, 127
2, 48062, Note_on_c, 0, 67, 0
2, 48062, Note_on_c, 0, 47, 0
2, 48065, Note_on_c, 0, 69, 0
2, 48065, Note_on_c, 0, 57, 0
2, 48066, Note_on_c, 0, 63, 0
2, 48072, Note_on_c, 0, 65, 0
2, 48073, Note_on_c, 0, 51, 0
2, 48079, Control_c, 0, 64, 0
2, 48084, Note_on_c, 0, 63, 64
2, 48084, Note_on_c, 0, 69, 68
2, 48084, Note_on_c, 0, 57, 70
2, 48084, Note_on_c, 0, 51, 65
2, 48084, Note_on_c, 0, 47, 64
2, 48085, Note_on_c, 0, 65, 77
2, 48117, Note_on_c, 0, 63, 0
2, 48120, Note_on_c, 0, 47, 0
2, 48120, Note_on_c, 0, 57, 0
2, 48120, Control_c, 0, 64, 127
2, 48123, Note_on_c, 0, 65, 0
2, 48126, Note_on_c, 0, 69, 0
2, 48130, Note_on_c, 0, 51, 0
2, 48154, Note_on_c, 0, 67, 71
2, 48155, Note_on_c, 0, 47, 60
2, 48155, Note_on_c, 0, 63, 74
2, 48156, Note_on_c, 0, 51, 52
2, 48157, Note_on_c, 0, 57, 57
2, 48191, Note_on_c, 0, 47, 0
2, 48192, Note_on_c, 0, 57, 0
2, 48204, Note_on_c, 0, 63, 0
2, 48214, Note_on_c, 0, 67, 0
2, 48222, Note_on_c, 0, 51, 0
2, 48231, Control_c, 0, 64, 0
2, 48234, Note_on_c, 0, 64, 78
2, 48236, Note_on_c, 0, 60, 75
2, 48236, Note_on_c, 0, 56, 83
2, 48237, Note_on_c, 0, 46, 77
2, 48301, Control_c, 0, 64, 127
2, 48334, Note_on_c, 0, 60, 0
2, 48347, Note_on_c, 0, 64, 0
2, 48347, Note_on_c, 0, 46, 0
2, 48352, Note_on_c, 0, 56, 0
2, 48434, Note_on_c, 0, 76, 68
2, 48435, Note_on_c, 0, 62, 60
2, 48436, Note_on_c, 0, 56, 58
2, 48437, Note_on_c, 0, 67, 65
2, 48437, Control_c, 0, 64, 0
2, 48438, Note_on_c, 0, 72, 60
2, 48460, Control_c, 0, 64, 127
2, 48465, Note_on_c, 0, 67, 0
2, 48472, Note_on_c, 0, 72, 0
2, 48476, Note_on_c, 0, 76, 0
2, 48489, Note_on_c, 0, 56, 0
2, 48498, Note_on_c, 0, 62, 0
2, 48511, Note_on_c, 0, 56, 65
2, 48511, Note_on_c, 0, 62, 46
2, 48512, Note_on_c, 0, 72, 62
2, 48512, Note_on_c, 0, 84, 60
2, 48513, Note_on_c, 0, 80, 31
2, 48513, Note_on_c, 0, 77, 43
2, 48515, Note_on_c, 0, 83, 46
2, 48519, Note_on_c, 0, 80, 0
2, 48523, Note_on_c, 0, 83, 0
2, 48527, Note_on_c, 0, 77, 0
2, 48539, Note_on_c, 0, 72, 0
2, 48540, Note_on_c, 0, 62, 0
2, 48551, Note_on_c, 0, 84, 0
2, 48555, Note_on_c, 0, 56, 0
2, 48585, Control_c, 0, 64, 0
2, 48593, Note_on_c, 0, 55, 62
2, 48594, Note_on_c, 0, 61, 50
2, 48595, Note_on_c, 0, 93, 57
2, 48595, Note_on_c, 0, 65, 55
2, 48596, Note_on_c, 0, 88, 35
2, 48598, Note_on_c, 0, 79, 30
2, 48599, Note_on_c, 0, 81, 34
2, 48607, Note_on_c, 0, 79, 0
2, 48608, Control_c, 0, 64, 127
2, 48621, Note_on_c, 0, 93, 0
2, 48634, Note_on_c, 0, 81, 0
2, 48635, Note_on_c, 0, 88, 0
2, 48641, Note_on_c, 0, 55, 0
2, 48644, Note_on_c, 0, 65, 0
2, 48647, Note_on_c, 0, 61, 0
2, 48679, Note_on_c, 0, 96, 52
2, 48682, Note_on_c, 0, 91, 55
2, 48682, Note_on_c, 0, 84, 49
2, 48684, Note_on_c, 0, 61, 59
2, 48684, Control_c, 0, 64, 0
2, 48685, Note_on_c, 0, 65, 61
2, 48685, Note_on_c, 0, 55, 67
2, 48700, Control_c, 0, 64, 127
2, 48702, Note_on_c, 0, 84, 0
2, 48705, Note_on_c, 0, 91, 0
2, 48706, Note_on_c, 0, 65, 0
2, 48707, Note_on_c, 0, 55, 0
2, 48708, Note_on_c, 0, 96, 0
2, 48718, Note_on_c, 0, 61, 0
2, 48763, Note_on_c, 0, 100, 55
2, 48765, Note_on_c, 0, 61, 51
2, 48765, Note_on_c, 0, 55, 64
2, 48766, Note_on_c, 0, 65, 55
2, 48766, Note_on_c, 0, 88, 47
2, 48767, Note_on_c, 0, 95, 43
2, 48782, Note_on_c, 0, 88, 0
2, 48784, Note_on_c, 0, 95, 0
2, 48790, Note_on_c, 0, 55, 0
2, 48791, Note_on_c, 0, 100, 0
2, 48792, Note_on_c, 0, 65, 0
2, 48803, Note_on_c, 0, 61, 0
2, 48845, Note_on_c, 0, 100, 55
2, 48846, Note_on_c, 0, 105, 60
2, 48847, Note_on_c, 0, 61, 42
2, 48847, Note_on_c, 0, 93, 48
2, 48847, Note_on_c, 0, 55, 57
2, 48849, Note_on_c, 0, 65, 46
2, 48867, Note_on_c, 0, 55, 0
2, 48869, Note_on_c, 0, 100, 0
2, 48872, Note_on_c, 0, 105, 0
2, 48880, Note_on_c, 0, 93, 0
2, 48887, Note_on_c, 0, 65, 0
2, 48888, Note_on_c, 0, 61, 0
2, 48903, Note_on_c, 0, 55, 54
2, 48904, Note_on_c, 0, 61, 27
2, 48917, Note_on_c, 0, 55, 0
2, 48939, Note_on_c, 0, 61, 0
2, 48960, Note_on_c, 0, 61, 33
2, 48965, Note_on_c, 0, 54, 39
2, 48965, Note_on_c, 0, 64, 44
2, 48967, Note_on_c, 0, 86, 49
2, 48970, Note_on_c, 0, 59, 44
2, 48994, Control_c, 0, 64, 0
2, 49119, Note_on_c, 0, 64, 0
2, 49128, Note_on_c, 0, 59, 0
2, 49139, Note_on_c, 0, 93, 62
2, 49140, Note_on_c, 0, 64, 33
2, 49150, Note_on_c, 0, 93, 0
2, 49156, Note_on_c, 0, 64, 0
2, 49159, Note_on_c, 0, 61, 0
2, 49199, Note_on_c, 0, 93, 68
2, 49216, Note_on_c, 0, 93, 0
2, 49260, Note_on_c, 0, 93, 66
2, 49264, Note_on_c, 0, 61, 28
2, 49266, Note_on_c, 0, 54, 0
2, 49272, Note_on_c, 0, 61, 0
2, 49274, Note_on_c, 0, 93, 0
2, 49322, Note_on_c, 0, 66, 49
2, 49322, Note_on_c, 0, 61, 35
2, 49323, Note_on_c, 0, 93, 65
2, 49325, Note_on_c, 0, 62, 50
2, 49329, Note_on_c, 0, 57, 28
2, 49332, Note_on_c, 0, 93, 0
2, 49333, Note_on_c, 0, 62, 0
2, 49334, Note_on_c, 0, 66, 0
2, 49335, Note_on_c, 0, 86, 0
2, 49338, Note_on_c, 0, 57, 0
2, 49342, Note_on_c, 0, 61, 0
2, 49388, Note_on_c, 0, 66, 51
2, 49391, Note_on_c, 0, 93, 55
2, 49391, Note_on_c, 0, 57, 39
2, 49392, Note_on_c, 0, 61, 36
2, 49395, Note_on_c, 0, 62, 36
2, 49401, Note_on_c, 0, 93, 0
2, 49404, Note_on_c, 0, 66, 0
2, 49405, Note_on_c, 0, 57, 0
2, 49406, Note_on_c, 0, 62, 0
2, 49413, Note_on_c, 0, 61, 0
2, 49445, Note_on_c, 0, 66, 56
2, 49448, Note_on_c, 0, 61, 40
2, 49448, Note_on_c, 0, 57, 43
2, 49449, Note_on_c, 0, 93, 82
2, 49450, Note_on_c, 0, 62, 50
2, 49461, Control_c, 0, 64, 127
2, 49466, Note_on_c, 0, 66, 0
2, 49479, Note_on_c, 0, 93, 0
2, 49501, Note_on_c, 0, 61, 0
2, 49502, Note_on_c, 0, 57, 0
2, 49502, Note_on_c, 0, 62, 0
2, 49608, Note_on_c, 0, 66, 64
2, 49609, Note_on_c, 0, 57, 48
2, 49610, Note_on_c, 0, 95, 71
2, 49611, Note_on_c, 0, 83, 72
2, 49613, Note_on_c, 0, 62, 42
2, 49621, Note_on_c, 0, 57, 0
2, 49622, Note_on_c, 0, 66, 0
2, 49623, Note_on_c, 0, 83, 0
2, 49623, Note_on_c, 0, 62, 0
2, 49624, Note_on_c, 0, 95, 0
2, 49646, Note_on_c, 0, 66, 63
2, 49650, Note_on_c, 0, 85, 71
2, 49650, Note_on_c, 0, 97, 76
2, 49650, Note_on_c, 0, 57, 34
2, 49656, Note_on_c, 0, 62, 29
2, 49660, Note_on_c, 0, 57, 0
2, 49664, Note_on_c, 0, 85, 0
2, 49666, Note_on_c, 0, 66, 0
2, 49668, Note_on_c, 0, 97, 0
2, 49668, Note_on_c, 0, 62, 0
2, 49695, Note_on_c, 0, 62, 45
2, 49699, Note_on_c, 0, 66, 43
2, 49700, Control_c, 0, 64, 0
2, 49706, Note_on_c, 0, 66, 0
2, 49706, Note_on_c, 0, 62, 0
2, 49708, Note_on_c, 0, 86, 29
2, 49714, Note_on_c, 0, 86, 0
2, 49750, Control_c, 0, 64, 127
2, 49791, Control_c, 0, 64, 0
2, 49809, Control_c, 0, 64, 127
2, 49914, Control_c, 0, 64, 0
2, 49918, Note_on_c, 0, 86, 89
2, 49918, Note_on_c, 0, 98, 85
2, 49919, Note_on_c, 0, 62, 78
2, 49919, Note_on_c, 0, 67, 91
2, 49919, Note_on_c, 0, 56, 80
2, 49933, Control_c, 0, 64, 127
2, 49983, Note_on_c, 0, 86, 0
2, 49985, Note_on_c, 0, 56, 0
2, 49986, Note_on_c, 0, 98, 0
2, 49987, Note_on_c, 0, 67, 0
2, 49989, Note_on_c, 0, 62, 0
2, 50000, Note_on_c, 0, 67, 83
2, 50000, Note_on_c, 0, 56, 71
2, 50001, Note_on_c, 0, 100, 87
2, 50002, Note_on_c, 0, 88, 82
2, 50002, Note_on_c, 0, 62, 82
2, 50044, Note_on_c, 0, 88, 0
2, 50044, Note_on_c, 0, 56, 0
2, 50045, Note_on_c, 0, 67, 0
2, 50046, Note_on_c, 0, 100, 0
2, 50047, Note_on_c, 0, 62, 0
2, 50081, Note_on_c, 0, 67, 88
2, 50081, Note_on_c, 0, 100, 84
2, 50081, Note_on_c, 0, 62, 80
2, 50082, Note_on_c, 0, 56, 84
2, 50082, Note_on_c, 0, 88, 82
2, 50083, Control_c, 0, 64, 0
2, 50095, Control_c, 0, 64, 127
2, 50140, Note_on_c, 0, 88, 0
2, 50141, Note_on_c, 0, 67, 0
2, 50141, Note_on_c, 0, 56, 0
2, 50144, Note_on_c, 0, 100, 0
2, 50147, Note_on_c, 0, 62, 0
2, 50162, Note_on_c, 0, 67, 85
2, 50162, Note_on_c, 0, 56, 81
2, 50163, Note_on_c, 0, 100, 71
2, 50164, Note_on_c, 0, 62, 85
2, 50165, Note_on_c, 0, 88, 80
2, 50167, Control_c, 0, 64, 0
2, 50178, Control_c, 0, 64, 127
2, 50226, Note_on_c, 0, 88, 0
2, 50226, Note_on_c, 0, 67, 0
2, 50229, Note_on_c, 0, 56, 0
2, 50231, Note_on_c, 0, 100, 0
2, 50232, Note_on_c, 0, 62, 0
2, 50248, Note_on_c, 0, 56, 69
2, 50248, Note_on_c, 0, 67, 81
2, 50248, Note_on_c, 0, 62, 78
2, 50250, Note_on_c, 0, 100, 69
2, 50252, Note_on_c, 0, 88, 71
2, 50293, Note_on_c, 0, 88, 0
2, 50293, Note_on_c, 0, 100, 0
2, 50296, Note_on_c, 0, 56, 0
2, 50296, Note_on_c, 0, 67, 0
2, 50300, Note_on_c, 0, 62, 0
2, 50328, Note_on_c, 0, 56, 67
2, 50328, Note_on_c, 0, 62, 71
2, 50328, Note_on_c, 0, 67, 73
2, 50330, Note_on_c, 0, 88, 71
2, 50331, Note_on_c, 0, 100, 70
2, 50347, Note_on_c, 0, 67, 0
2, 50353, Note_on_c, 0, 88, 0
2, 50357, Note_on_c, 0, 62, 0
2, 50358, Note_on_c, 0, 100, 0
2, 50368, Note_on_c, 0, 56, 0
2, 50400, Note_on_c, 0, 55, 85
2, 50401, Note_on_c, 0, 61, 81
2, 50401, Note_on_c, 0, 66, 91
2, 50402, Note_on_c, 0, 90, 78
2, 50403, Note_on_c, 0, 102, 82
2, 50406, Note_on_c, 0, 92, 61
2, 50409, Note_on_c, 0, 103, 50
2, 50412, Note_on_c, 0, 92, 0
2, 50412, Control_c, 0, 64, 0
2, 50416, Note_on_c, 0, 103, 0
2, 50441, Control_c, 0, 64, 127
2, 50599, Note_on_c, 0, 55, 0
2, 50606, Note_on_c, 0, 102, 0
2, 50610, Note_on_c, 0, 90, 0
2, 50614, Note_on_c, 0, 66, 0
2, 50642, Note_on_c, 0, 101, 47
2, 50643, Note_on_c, 0, 89, 32
2, 50645, Note_on_c, 0, 61, 0
2, 50658, Note_on_c, 0, 89, 0
2, 50659, Note_on_c, 0, 101, 0
2, 50706, Note_on_c, 0, 102, 56
2, 50707, Note_on_c, 0, 90, 48
2, 50732, Note_on_c, 0, 90, 0
2, 50735, Note_on_c, 0, 102, 0
2, 50762, Note_on_c, 0, 89, 53
2, 50762, Note_on_c, 0, 61, 42
2, 50762, Note_on_c, 0, 101, 54
2, 50762, Note_on_c, 0, 55, 57
2, 50763, Note_on_c, 0, 66, 48
2, 50770, Control_c, 0, 64, 0
2, 50788, Control_c, 0, 64, 127
2, 50865, Note_on_c, 0, 55, 0
2, 50871, Note_on_c, 0, 66, 0
2, 50905, Note_on_c, 0, 61, 0
2, 50931, Note_on_c, 0, 101, 0
2, 50947, Note_on_c, 0, 89, 0
2, 50991, Note_on_c, 0, 65, 50
2, 50993, Note_on_c, 0, 55, 46
2, 50993, Note_on_c, 0, 61, 37
2, 50997, Note_on_c, 0, 88, 47
2, 50997, Note_on_c, 0, 100, 38
2, 51006, Note_on_c, 0, 55, 0
2, 51008, Note_on_c, 0, 65, 0
2, 51013, Note_on_c, 0, 100, 0
2, 51013, Note_on_c, 0, 61, 0
2, 51014, Note_on_c, 0, 88, 0
2, 51061, Note_on_c, 0, 61, 45
2, 51064, Note_on_c, 0, 90, 46
2, 51065, Note_on_c, 0, 102, 49
2, 51080, Note_on_c, 0, 102, 0
2, 51082, Note_on_c, 0, 90, 0
2, 51091, Note_on_c, 0, 61, 0
2, 51112, Note_on_c, 0, 61, 31
2, 51113, Note_on_c, 0, 54, 46
2, 51115, Note_on_c, 0, 88, 36
2, 51115, Note_on_c, 0, 64, 40
2, 51116, Note_on_c, 0, 100, 53
2, 51123, Control_c, 0, 64, 0
2, 51152, Control_c, 0, 64, 127
2, 51194, Note_on_c, 0, 64, 0
2, 51198, Note_on_c, 0, 61, 0
2, 51210, Note_on_c, 0, 100, 0
2, 51213, Note_on_c, 0, 88, 0
2, 51229, Note_on_c, 0, 61, 34
2, 51233, Note_on_c, 0, 64, 22
2, 51260, Note_on_c, 0, 64, 0
2, 51265, Note_on_c, 0, 61, 0
2, 51305, Note_on_c, 0, 61, 48
2, 51305, Note_on_c, 0, 64, 46
2, 51331, Note_on_c, 0, 64, 0
2, 51340, Note_on_c, 0, 61, 0
2, 51362, Note_on_c, 0, 61, 43
2, 51363, Note_on_c, 0, 64, 40
2, 51389, Note_on_c, 0, 64, 0
2, 51408, Note_on_c, 0, 61, 0
2, 51410, Note_on_c, 0, 54, 0
2, 51423, Note_on_c, 0, 54, 34
2, 51427, Note_on_c, 0, 61, 47
2, 51429, Note_on_c, 0, 64, 36
2, 51462, Note_on_c, 0, 64, 0
2, 51470, Note_on_c, 0, 54, 0
2, 51475, Note_on_c, 0, 61, 0
2, 51546, Note_on_c, 0, 66, 63
2, 51548, Note_on_c, 0, 55, 53
2, 51549, Note_on_c, 0, 62, 60
2, 51559, Note_on_c, 0, 62, 0
2, 51560, Note_on_c, 0, 66, 0
2, 51566, Control_c, 0, 64, 0
2, 51568, Note_on_c, 0, 55, 0
2, 51614, Note_on_c, 0, 66, 56
2, 51615, Note_on_c, 0, 55, 62
2, 51615, Control_c, 0, 64, 127
2, 51615, Note_on_c, 0, 62, 56
2, 51634, Note_on_c, 0, 66, 0
2, 51639, Note_on_c, 0, 55, 0
2, 51640, Note_on_c, 0, 62, 0
2, 51673, Control_c, 0, 64, 0
2, 51716, Note_on_c, 0, 66, 54
2, 51717, Note_on_c, 0, 62, 53
2, 51718, Control_c, 0, 64, 127
2, 51719, Note_on_c, 0, 55, 35
2, 51741, Note_on_c, 0, 62, 0
2, 51743, Note_on_c, 0, 55, 0
2, 51748, Note_on_c, 0, 66, 0
2, 51829, Note_on_c, 0, 54, 35
2, 51833, Note_on_c, 0, 64, 32
2, 51835, Note_on_c, 0, 61, 40
2, 51840, Control_c, 0, 64, 0
2, 51899, Note_on_c, 0, 74, 48
2, 51909, Note_on_c, 0, 74, 0
2, 51938, Note_on_c, 0, 64, 0
2, 51939, Note_on_c, 0, 61, 0
2, 51950, Note_on_c, 0, 54, 0
2, 51953, Note_on_c, 0, 81, 54
2, 51963, Note_on_c, 0, 81, 0
2, 52017, Note_on_c, 0, 81, 61
2, 52029, Note_on_c, 0, 81, 0
2, 52075, Note_on_c, 0, 81, 67
2, 52091, Note_on_c, 0, 81, 0
2, 52136, Note_on_c, 0, 73, 34
2, 52152, Note_on_c, 0, 73, 0
2, 52196, Note_on_c, 0, 54, 34
2, 52197, Note_on_c, 0, 78, 43
2, 52198, Note_on_c, 0, 61, 27
2, 52202, Note_on_c, 0, 64, 17
2, 52212, Note_on_c, 0, 64, 0
2, 52213, Note_on_c, 0, 61, 0
2, 52215, Note_on_c, 0, 54, 0
2, 52220, Note_on_c, 0, 78, 0
2, 52257, Note_on_c, 0, 69, 40
2, 52281, Note_on_c, 0, 69, 0
2, 52318, Note_on_c, 0, 73, 27
2, 52337, Note_on_c, 0, 73, 0
2, 52375, Note_on_c, 0, 66, 39
2, 52376, Note_on_c, 0, 54, 38
2, 52378, Note_on_c, 0, 61, 25
2, 52387, Note_on_c, 0, 66, 0
2, 52389, Note_on_c, 0, 61, 0
2, 52393, Note_on_c, 0, 54, 0
2, 52432, Note_on_c, 0, 69, 82
2, 52491, Note_on_c, 0, 69, 0
2, 52498, Note_on_c, 0, 71, 85
2, 52542, Note_on_c, 0, 71, 0
2, 52557, Note_on_c, 0, 66, 25
2, 52558, Note_on_c, 0, 73, 60
2, 52560, Note_on_c, 0, 62, 22
2, 52565, Note_on_c, 0, 66, 0
2, 52571, Note_on_c, 0, 62, 0
2, 52621, Note_on_c, 0, 73, 0
2, 52627, Note_on_c, 0, 66, 56
2, 52656, Note_on_c, 0, 66, 0
2, 52693, Note_on_c, 0, 66, 13
2, 52781, Note_on_c, 0, 66, 0
2, 52799, Note_on_c, 0, 66, 50
2, 52807, Note_on_c, 0, 57, 38
2, 52850, Control_c, 0, 64, 127
2, 52858, Note_on_c, 0, 57, 0
2, 52858, Note_on_c, 0, 38, 44
2, 52874, Note_on_c, 0, 38, 0
2, 52918, Note_on_c, 0, 61, 53
2, 52919, Note_on_c, 0, 64, 65
2, 52920, Note_on_c, 0, 57, 53
2, 52924, Control_c, 0, 64, 0
2, 52980, Note_on_c, 0, 50, 55
2, 53002, Note_on_c, 0, 50, 0
2, 53042, Note_on_c, 0, 50, 44
2, 53048, Control_c, 0, 64, 127
2, 53063, Note_on_c, 0, 50, 0
2, 53103, Note_on_c, 0, 50, 49
2, 53123, Note_on_c, 0, 57, 0
2, 53126, Note_on_c, 0, 61, 0
2, 53162, Note_on_c, 0, 61, 38
2, 53163, Note_on_c, 0, 57, 44
2, 53201, Note_on_c, 0, 64, 0
2, 53221, Note_on_c, 0, 66, 0
2, 53221, Note_on_c, 0, 57, 0
2, 53226, Note_on_c, 0, 45, 38
2, 53230, Note_on_c, 0, 61, 0
2, 53277, Note_on_c, 0, 45, 0
2, 53282, Control_c, 0, 64, 0
2, 53285, Note_on_c, 0, 54, 46
2, 53287, Note_on_c, 0, 38, 44
2, 53287, Note_on_c, 0, 57, 54
2, 53311, Control_c, 0, 64, 127
2, 53316, Note_on_c, 0, 54, 0
2, 53321, Note_on_c, 0, 50, 0
2, 53321, Note_on_c, 0, 57, 0
2, 53350, Note_on_c, 0, 45, 44
2, 53351, Note_on_c, 0, 38, 0
2, 53358, Note_on_c, 0, 45, 0
2, 53407, Note_on_c, 0, 69, 57
2, 53447, Note_on_c, 0, 69, 0
2, 53470, Note_on_c, 0, 61, 63
2, 53471, Note_on_c, 0, 54, 62
2, 53471, Note_on_c, 0, 64, 67
2, 53473, Note_on_c, 0, 59, 64
2, 53475, Note_on_c, 0, 81, 92
2, 53480, Control_c, 0, 64, 0
2, 53510, Control_c, 0, 64, 127
2, 53547, Note_on_c, 0, 64, 0
2, 53551, Note_on_c, 0, 61, 0
2, 53562, Note_on_c, 0, 61, 30
2, 53565, Note_on_c, 0, 64, 27
2, 53567, Note_on_c, 0, 73, 60
2, 53614, Note_on_c, 0, 59, 0
2, 53616, Note_on_c, 0, 64, 0
2, 53624, Note_on_c, 0, 61, 0
2, 53629, Note_on_c, 0, 54, 0
2, 53650, Note_on_c, 0, 69, 60
2, 53652, Note_on_c, 0, 54, 35
2, 53654, Note_on_c, 0, 64, 38
2, 53656, Note_on_c, 0, 81, 0
2, 53663, Control_c, 0, 64, 0
2, 53681, Control_c, 0, 64, 127
2, 53724, Note_on_c, 0, 69, 0
2, 53737, Note_on_c, 0, 64, 0
2, 53738, Note_on_c, 0, 73, 0
2, 53743, Note_on_c, 0, 69, 52
2, 53763, Note_on_c, 0, 69, 0
2, 53786, Note_on_c, 0, 73, 21
2, 53807, Note_on_c, 0, 73, 0
2, 53814, Note_on_c, 0, 54, 0
2, 53825, Note_on_c, 0, 74, 81
2, 53826, Note_on_c, 0, 68, 81
2, 53826, Note_on_c, 0, 65, 89
2, 53826, Note_on_c, 0, 71, 80
2, 53826, Note_on_c, 0, 62, 88
2, 53830, Note_on_c, 0, 72, 66
2, 53836, Control_c, 0, 64, 0
2, 53837, Note_on_c, 0, 72, 0
2, 53870, Control_c, 0, 64, 127
2, 53917, Note_on_c, 0, 71, 0
2, 53932, Note_on_c, 0, 65, 0
2, 53944, Note_on_c, 0, 71, 59
2, 53947, Note_on_c, 0, 59, 44
2, 53950, Note_on_c, 0, 62, 0
2, 53952, Note_on_c, 0, 74, 0
2, 53967, Note_on_c, 0, 59, 0
2, 53971, Note_on_c, 0, 68, 0
2, 53974, Note_on_c, 0, 65, 48
2, 53977, Note_on_c, 0, 56, 43
2, 53978, Note_on_c, 0, 71, 0
2, 53986, Note_on_c, 0, 65, 0
2, 54006, Note_on_c, 0, 56, 0
2, 54008, Control_c, 0, 64, 0
2, 54009, Note_on_c, 0, 73, 79
2, 54010, Note_on_c, 0, 64, 56
2, 54011, Note_on_c, 0, 69, 57
2, 54013, Note_on_c, 0, 57, 55
2, 54039, Control_c, 0, 64, 127
2, 54065, Note_on_c, 0, 69, 0
2, 54070, Note_on_c, 0, 73, 0
2, 54087, Note_on_c, 0, 64, 0
2, 54097, Note_on_c, 0, 57, 0
2, 54191, Note_on_c, 0, 61, 46
2, 54192, Note_on_c, 0, 45, 44
2, 54192, Note_on_c, 0, 57, 46
2, 54201, Note_on_c, 0, 52, 24
2, 54208, Control_c, 0, 64, 0
2, 54237, Control_c, 0, 64, 127
2, 54246, Note_on_c, 0, 57, 0
2, 54248, Note_on_c, 0, 61, 0
2, 54248, Note_on_c, 0, 45, 0
2, 54248, Note_on_c, 0, 52, 0
2, 54278, Note_on_c, 0, 61, 39
2, 54281, Note_on_c, 0, 57, 29
2, 54291, Note_on_c, 0, 57, 0
2, 54305, Note_on_c, 0, 61, 0
2, 54360, Note_on_c, 0, 55, 46
2, 54360, Note_on_c, 0, 66, 57
2, 54360, Note_on_c, 0, 61, 42
2, 54381, Control_c, 0, 64, 0
2, 54450, Note_on_c, 0, 67, 43
2, 54475, Note_on_c, 0, 67, 0
2, 54480, Note_on_c, 0, 70, 60
2, 54480, Note_on_c, 0, 69, 43
2, 54495, Note_on_c, 0, 70, 0
2, 54500, Note_on_c, 0, 69, 0
2, 54510, Note_on_c, 0, 72, 57
2, 54524, Note_on_c, 0, 72, 0
2, 54540, Note_on_c, 0, 73, 39
2, 54551, Note_on_c, 0, 73, 0
2, 54570, Note_on_c, 0, 77, 48
2, 54588, Note_on_c, 0, 77, 0
2, 54600, Note_on_c, 0, 78, 50
2, 54607, Note_on_c, 0, 78, 0
2, 54628, Note_on_c, 0, 66, 0
2, 54630, Note_on_c, 0, 82, 57
2, 54637, Note_on_c, 0, 82, 0
2, 54658, Note_on_c, 0, 55, 0
2, 54660, Note_on_c, 0, 66, 26
2, 54660, Note_on_c, 0, 84, 60
2, 54666, Note_on_c, 0, 84, 0
2, 54678, Note_on_c, 0, 66, 0
2, 54683, Note_on_c, 0, 61, 0
2, 54690, Note_on_c, 0, 87, 55
2, 54702, Note_on_c, 0, 87, 0
2, 54720, Note_on_c, 0, 88, 64
2, 54720, Note_on_c, 0, 61, 37
2, 54720, Note_on_c, 0, 64, 46
2, 54721, Note_on_c, 0, 54, 35
2, 54728, Note_on_c, 0, 59, 46
2, 54735, Note_on_c, 0, 88, 0
2, 54759, Note_on_c, 0, 91, 74
2, 54772, Note_on_c, 0, 91, 0
2, 54789, Note_on_c, 0, 90, 62
2, 54807, Note_on_c, 0, 90, 0
2, 54822, Note_on_c, 0, 85, 59
2, 54836, Note_on_c, 0, 85, 0
2, 54848, Note_on_c, 0, 81, 40
2, 54878, Note_on_c, 0, 81, 0
2, 54898, Note_on_c, 0, 88, 73
2, 54919, Note_on_c, 0, 88, 0
2, 54953, Note_on_c, 0, 85, 62
2, 54980, Note_on_c, 0, 85, 0
2, 54990, Note_on_c, 0, 81, 31
2, 55010, Note_on_c, 0, 81, 0
2, 55015, Note_on_c, 0, 78, 47
2, 55022, Note_on_c, 0, 59, 0
2, 55028, Note_on_c, 0, 64, 0
2, 55029, Note_on_c, 0, 54, 0
2, 55036, Note_on_c, 0, 78, 0
2, 55038, Note_on_c, 0, 61, 0
2, 55075, Note_on_c, 0, 83, 66
2, 55096, Note_on_c, 0, 83, 0
2, 55138, Note_on_c, 0, 78, 54
2, 55140, Note_on_c, 0, 66, 43
2, 55145, Note_on_c, 0, 61, 37
2, 55145, Note_on_c, 0, 57, 33
2, 55150, Note_on_c, 0, 62, 33
2, 55162, Note_on_c, 0, 78, 0
2, 55169, Note_on_c, 0, 74, 54
2, 55178, Note_on_c, 0, 66, 0
2, 55185, Note_on_c, 0, 74, 0
2, 55202, Note_on_c, 0, 71, 50
2, 55224, Note_on_c, 0, 71, 0
2, 55234, Note_on_c, 0, 57, 0
2, 55238, Note_on_c, 0, 62, 0
2, 55241, Note_on_c, 0, 61, 0
2, 55387, Note_on_c, 0, 66, 56
2, 55393, Note_on_c, 0, 61, 31
2, 55393, Note_on_c, 0, 57, 32
2, 55395, Note_on_c, 0, 62, 30
2, 55404, Note_on_c, 0, 62, 0
2, 55405, Note_on_c, 0, 57, 0
2, 55410, Note_on_c, 0, 66, 0
2, 55414, Note_on_c, 0, 61, 0
2, 55440, Note_on_c, 0, 67, 58
2, 55440, Note_on_c, 0, 62, 43
2, 55440, Note_on_c, 0, 56, 38
2, 55620, Note_on_c, 0, 98, 99
2, 55631, Note_on_c, 0, 67, 0
2, 55641, Note_on_c, 0, 98, 0
2, 55650, Note_on_c, 0, 96, 80
2, 55660, Note_on_c, 0, 56, 0
2, 55672, Note_on_c, 0, 96, 0
2, 55680, Note_on_c, 0, 98, 37
2, 55680, Note_on_c, 0, 92, 74
2, 55689, Note_on_c, 0, 98, 0
2, 55704, Note_on_c, 0, 92, 0
2, 55716, Note_on_c, 0, 62, 0
2, 55740, Note_on_c, 0, 89, 66
2, 55754, Note_on_c, 0, 89, 0
2, 55770, Note_on_c, 0, 86, 51
2, 55793, Note_on_c, 0, 86, 0
2, 55800, Note_on_c, 0, 84, 62
2, 55814, Note_on_c, 0, 84, 0
2, 55860, Note_on_c, 0, 80, 72
2, 55860, Note_on_c, 0, 56, 30
2, 55860, Note_on_c, 0, 65, 27
2, 55860, Note_on_c, 0, 62, 32
2, 55880, Note_on_c, 0, 80, 0
2, 55883, Note_on_c, 0, 65, 0
2, 55884, Note_on_c, 0, 62, 0
2, 55890, Note_on_c, 0, 77, 51
2, 55907, Note_on_c, 0, 56, 0
2, 55911, Note_on_c, 0, 77, 0
2, 55920, Note_on_c, 0, 74, 77
2, 55937, Note_on_c, 0, 74, 0
2, 55950, Note_on_c, 0, 56, 35
2, 55950, Note_on_c, 0, 62, 34
2, 55967, Note_on_c, 0, 62, 0
2, 55971, Note_on_c, 0, 56, 0
2, 55980, Note_on_c, 0, 72, 72
2, 55995, Note_on_c, 0, 72, 0
2, 56010, Note_on_c, 0, 68, 64
2, 56010, Note_on_c, 0, 62, 47
2, 56010, Note_on_c, 0, 56, 30
2, 56019, Note_on_c, 0, 62, 0
2, 56030, Note_on_c, 0, 68, 0
2, 56032, Note_on_c, 0, 56, 0
2, 56040, Note_on_c, 0, 65, 65
2, 56058, Note_on_c, 0, 65, 0
2, 56070, Note_on_c, 0, 62, 64
2, 56088, Note_on_c, 0, 62, 0
2, 56100, Note_on_c, 0, 62, 57
2, 56277, Note_on_c, 0, 62, 59
2, 56278, Note_on_c, 0, 59, 57
2, 56278, Note_on_c, 0, 55, 52
2, 56285, Note_on_c, 0, 55, 0
2, 56285, Note_on_c, 0, 59, 0
2, 56292, Note_on_c, 0, 62, 0
2, 56339, Note_on_c, 0, 45, 57
2, 56340, Note_on_c, 0, 62, 0
2, 56351, Note_on_c, 0, 45, 0
2, 56400, Note_on_c, 0, 71, 80
2, 56401, Note_on_c, 0, 62, 87
2, 56401, Note_on_c, 0, 67, 83
2, 56407, Note_on_c, 0, 57, 51
2, 56414, Note_on_c, 0, 57, 0
2, 56418, Note_on_c, 0, 62, 0
2, 56420, Note_on_c, 0, 67, 0
2, 56421, Note_on_c, 0, 71, 0
2, 56458, Note_on_c, 0, 70, 52
2, 56459, Note_on_c, 0, 61, 59
2, 56461, Note_on_c, 0, 66, 40
2, 56461, Control_c, 0, 64, 127
2, 56471, Note_on_c, 0, 66, 0
2, 56473, Note_on_c, 0, 61, 0
2, 56475, Note_on_c, 0, 70, 0
2, 56487, Note_on_c, 0, 71, 71
2, 56495, Note_on_c, 0, 67, 39
2, 56503, Note_on_c, 0, 67, 0
2, 56504, Note_on_c, 0, 71, 0
2, 56515, Control_c, 0, 64, 0
2, 56518, Note_on_c, 0, 72, 79
2, 56518, Note_on_c, 0, 68, 73
2, 56519, Note_on_c, 0, 63, 74
2, 56523, Note_on_c, 0, 57, 49
2, 56556, Note_on_c, 0, 57, 0
2, 56558, Control_c, 0, 64, 127
2, 56578, Note_on_c, 0, 57, 36
2, 56590, Note_on_c, 0, 57, 0
2, 56637, Note_on_c, 0, 57, 40
2, 56647, Note_on_c, 0, 57, 0
2, 56679, Note_on_c, 0, 63, 0
2, 56684, Note_on_c, 0, 68, 0
2, 56686, Note_on_c, 0, 72, 0
2, 56695, Note_on_c, 0, 71, 55
2, 56697, Note_on_c, 0, 62, 53
2, 56698, Note_on_c, 0, 57, 44
2, 56700, Note_on_c, 0, 67, 48
2, 56711, Note_on_c, 0, 57, 0
2, 56714, Note_on_c, 0, 62, 0
2, 56719, Note_on_c, 0, 67, 0
2, 56729, Note_on_c, 0, 71, 0
2, 56741, Control_c, 0, 64, 0
2, 56760, Note_on_c, 0, 57, 37
2, 56766, Control_c, 0, 64, 127
2, 56772, Note_on_c, 0, 57, 0
2, 56821, Note_on_c, 0, 57, 48
2, 56840, Note_on_c, 0, 57, 0
2, 56875, Note_on_c, 0, 73, 46
2, 56877, Note_on_c, 0, 64, 57
2, 56879, Control_c, 0, 64, 0
2, 56879, Note_on_c, 0, 69, 61
2, 56881, Note_on_c, 0, 57, 51
2, 56900, Note_on_c, 0, 57, 0
2, 56916, Control_c, 0, 64, 127
2, 56937, Note_on_c, 0, 57, 42
2, 56954, Note_on_c, 0, 57, 0
2, 56996, Note_on_c, 0, 57, 47
2, 56997, Note_on_c, 0, 69, 0
2, 57003, Note_on_c, 0, 64, 0
2, 57012, Note_on_c, 0, 57, 0
2, 57036, Note_on_c, 0, 73, 0
2, 57057, Note_on_c, 0, 70, 62
2, 57058, Note_on_c, 0, 74, 64
2, 57060, Control_c, 0, 64, 0
2, 57060, Note_on_c, 0, 65, 67
2, 57062, Note_on_c, 0, 57, 58
2, 57082, Note_on_c, 0, 57, 0
2, 57087, Control_c, 0, 64, 127
2, 57123, Note_on_c, 0, 57, 43
2, 57126, Note_on_c, 0, 74, 0
2, 57134, Note_on_c, 0, 57, 0
2, 57145, Note_on_c, 0, 65, 0
2, 57164, Note_on_c, 0, 70, 0
2, 57183, Note_on_c, 0, 75, 63
2, 57183, Note_on_c, 0, 66, 68
2, 57183, Note_on_c, 0, 71, 68
2, 57186, Note_on_c, 0, 57, 64
2, 57192, Control_c, 0, 64, 0
2, 57204, Note_on_c, 0, 57, 0
2, 57226, Control_c, 0, 64, 127
2, 57241, Note_on_c, 0, 57, 45
2, 57254, Note_on_c, 0, 57, 0
2, 57273, Note_on_c, 0, 71, 0
2, 57287, Note_on_c, 0, 66, 0
2, 57292, Note_on_c, 0, 75, 0
2, 57300, Note_on_c, 0, 72, 60
2, 57300, Note_on_c, 0, 67, 67
2, 57301, Note_on_c, 0, 76, 64
2, 57303, Note_on_c, 0, 57, 59
2, 57315, Control_c, 0, 64, 0
2, 57332, Note_on_c, 0, 57, 0
2, 57334, Control_c, 0, 64, 127
2, 57357, Note_on_c, 0, 72, 0
2, 57362, Note_on_c, 0, 76, 0
2, 57377, Note_on_c, 0, 67, 0
2, 57416, Note_on_c, 0, 73, 46
2, 57417, Note_on_c, 0, 68, 63
2, 57417, Note_on_c, 0, 77, 68
2, 57418, Note_on_c, 0, 57, 57
2, 57432, Control_c, 0, 64, 0
2, 57443, Note_on_c, 0, 57, 0
2, 57457, Control_c, 0, 64, 127
2, 57499, Note_on_c, 0, 77, 0
2, 57502, Note_on_c, 0, 68, 0
2, 57508, Note_on_c, 0, 73, 0
2, 57539, Note_on_c, 0, 77, 37
2, 57560, Note_on_c, 0, 77, 0
2, 57597, Note_on_c, 0, 61, 39
2, 57598, Note_on_c, 0, 54, 37
2, 57600, Note_on_c, 0, 64, 38
2, 57600, Note_on_c, 0, 74, 55
2, 57605, Control_c, 0, 64, 0
2, 57609, Note_on_c, 0, 59, 22
2, 57634, Control_c, 0, 64, 127
2, 57668, Note_on_c, 0, 59, 0
2, 57681, Note_on_c, 0, 61, 0
2, 57685, Note_on_c, 0, 64, 0
2, 57686, Note_on_c, 0, 74, 0
2, 57690, Note_on_c, 0, 54, 0
2, 57728, Note_on_c, 0, 81, 57
2, 57729, Note_on_c, 0, 73, 48
2, 57729, Note_on_c, 0, 54, 30
2, 57730, Note_on_c, 0, 78, 46
2, 57731, Note_on_c, 0, 61, 33
2, 57732, Note_on_c, 0, 64, 38
2, 57734, Note_on_c, 0, 59, 40
2, 57736, Note_on_c, 0, 79, 30
2, 57741, Note_on_c, 0, 69, 37
2, 57743, Control_c, 0, 64, 0
2, 57755, Control_c, 0, 64, 127
2, 57784, Note_on_c, 0, 59, 0
2, 57788, Note_on_c, 0, 64, 0
2, 57809, Note_on_c, 0, 54, 0
2, 57830, Note_on_c, 0, 61, 0
2, 57836, Note_on_c, 0, 69, 0
2, 57836, Note_on_c, 0, 73, 0
2, 57898, Note_on_c, 0, 78, 0
2, 57899, Note_on_c, 0, 79, 0
2, 57910, Note_on_c, 0, 81, 0
2, 57975, Note_on_c, 0, 64, 42
2, 57978, Note_on_c, 0, 61, 27
2, 57979, Note_on_c, 0, 69, 47
2, 57979, Note_on_c, 0, 73, 28
2, 57980, Note_on_c, 0, 59, 34
2, 58019, Note_on_c, 0, 61, 0
2, 58023, Note_on_c, 0, 64, 0
2, 58025, Note_on_c, 0, 69, 0
2, 58027, Note_on_c, 0, 59, 0
2, 58037, Note_on_c, 0, 73, 0
2, 58149, Note_on_c, 0, 95, 71
2, 58154, Note_on_c, 0, 92, 67
2, 58155, Note_on_c, 0, 61, 55
2, 58156, Note_on_c, 0, 64, 60
2, 58157, Note_on_c, 0, 88, 74
2, 58158, Note_on_c, 0, 59, 60
2, 58161, Note_on_c, 0, 83, 59
2, 58184, Note_on_c, 0, 64, 0
2, 58190, Note_on_c, 0, 88, 0
2, 58190, Note_on_c, 0, 61, 0
2, 58191, Note_on_c, 0, 59, 0
2, 58194, Note_on_c, 0, 92, 0
2, 58195, Note_on_c, 0, 95, 0
2, 58196, Note_on_c, 0, 83, 0
2, 58230, Note_on_c, 0, 95, 54
2, 58234, Note_on_c, 0, 92, 71
2, 58237, Note_on_c, 0, 88, 75
2, 58238, Note_on_c, 0, 61, 65
2, 58239, Note_on_c, 0, 83, 70
2, 58240, Note_on_c, 0, 64, 61
2, 58241, Note_on_c, 0, 59, 53
2, 58251, Note_on_c, 0, 59, 0
2, 58264, Note_on_c, 0, 64, 0
2, 58267, Note_on_c, 0, 83, 0
2, 58268, Note_on_c, 0, 88, 0
2, 58268, Note_on_c, 0, 95, 0
2, 58270, Note_on_c, 0, 92, 0
2, 58276, Note_on_c, 0, 61, 0
2, 58324, Note_on_c, 0, 97, 83
2, 58327, Note_on_c, 0, 61, 55
2, 58328, Note_on_c, 0, 64, 70
2, 58329, Note_on_c, 0, 54, 57
2, 58329, Note_on_c, 0, 93, 71
2, 58329, Note_on_c, 0, 90, 71
2, 58331, Note_on_c, 0, 59, 61
2, 58331, Control_c, 0, 64, 0
2, 58334, Note_on_c, 0, 85, 47
2, 58350, Control_c, 0, 64, 127
2, 58357, Note_on_c, 0, 93, 0
2, 58361, Note_on_c, 0, 97, 0
2, 58364, Note_on_c, 0, 90, 0
2, 58364, Note_on_c, 0, 59, 0
2, 58366, Note_on_c, 0, 54, 0
2, 58366, Note_on_c, 0, 85, 0
2, 58380, Note_on_c, 0, 64, 0
2, 58391, Note_on_c, 0, 61, 0
2, 58417, Note_on_c, 0, 90, 57
2, 58420, Note_on_c, 0, 61, 50
2, 58421, Note_on_c, 0, 54, 46
2, 58421, Note_on_c, 0, 78, 60
2, 58423, Note_on_c, 0, 64, 53
2, 58424, Note_on_c, 0, 84, 60
2, 58424, Note_on_c, 0, 86, 48
2, 58425, Note_on_c, 0, 59, 62
2, 58428, Control_c, 0, 64, 0
2, 58447, Control_c, 0, 64, 127
2, 58455, Note_on_c, 0, 84, 0
2, 58457, Note_on_c, 0, 59, 0
2, 58458, Note_on_c, 0, 86, 0
2, 58461, Note_on_c, 0, 54, 0
2, 58463, Note_on_c, 0, 90, 0
2, 58465, Note_on_c, 0, 64, 0
2, 58465, Note_on_c, 0, 78, 0
2, 58472, Note_on_c, 0, 61, 0
2, 58495, Note_on_c, 0, 90, 57
2, 58498, Note_on_c, 0, 54, 45
2, 58500, Note_on_c, 0, 78, 60
2, 58500, Note_on_c, 0, 64, 46
2, 58500, Note_on_c, 0, 61, 39
2, 58502, Note_on_c, 0, 86, 55
2, 58504, Note_on_c, 0, 59, 52
2, 58528, Note_on_c, 0, 59, 0
2, 58532, Note_on_c, 0, 54, 0
2, 58540, Note_on_c, 0, 64, 0
2, 58542, Note_on_c, 0, 61, 0
2, 58542, Note_on_c, 0, 86, 0
2, 58555, Note_on_c, 0, 78, 0
2, 58558, Note_on_c, 0, 90, 0
2, 58748, Note_on_c, 0, 91, 67
2, 58750, Note_on_c, 0, 62, 67
2, 58750, Note_on_c, 0, 55, 64
2, 58751, Note_on_c, 0, 86, 73
2, 58751, Note_on_c, 0, 79, 60
2, 58752, Note_on_c, 0, 66, 69
2, 58754, Note_on_c, 0, 59, 65
2, 58765, Control_c, 0, 64, 0
2, 58784, Control_c, 0, 64, 127
2, 58791, Note_on_c, 0, 79, 0
2, 58796, Note_on_c, 0, 86, 0
2, 58799, Note_on_c, 0, 91, 0
2, 58805, Note_on_c, 0, 55, 0
2, 58806, Note_on_c, 0, 66, 0
2, 58807, Note_on_c, 0, 59, 0
2, 58812, Note_on_c, 0, 62, 0
2, 58834, Note_on_c, 0, 95, 74
2, 58834, Note_on_c, 0, 55, 67
2, 58835, Note_on_c, 0, 88, 69
2, 58835, Note_on_c, 0, 62, 64
2, 58836, Note_on_c, 0, 91, 68
2, 58836, Note_on_c, 0, 83, 65
2, 58836, Note_on_c, 0, 66, 69
2, 58837, Note_on_c, 0, 59, 62
2, 58867, Note_on_c, 0, 83, 0
2, 58867, Note_on_c, 0, 88, 0
2, 58871, Note_on_c, 0, 91, 0
2, 58874, Note_on_c, 0, 62, 0
2, 58876, Note_on_c, 0, 95, 0
2, 58883, Note_on_c, 0, 59, 0
2, 58884, Note_on_c, 0, 55, 0
2, 58887, Note_on_c, 0, 66, 0
2, 58921, Note_on_c, 0, 97, 64
2, 58921, Note_on_c, 0, 66, 73
2, 58922, Note_on_c, 0, 61, 60
2, 58922, Control_c, 0, 64, 0
2, 58923, Note_on_c, 0, 55, 57
2, 58923, Note_on_c, 0, 85, 67
2, 58934, Control_c, 0, 64, 127
2, 58937, Note_on_c, 0, 85, 0
2, 58945, Note_on_c, 0, 97, 0
2, 58949, Note_on_c, 0, 55, 0
2, 58952, Note_on_c, 0, 61, 0
2, 58957, Note_on_c, 0, 66, 0
2, 58994, Note_on_c, 0, 100, 73
2, 58994, Note_on_c, 0, 66, 69
2, 58995, Note_on_c, 0, 55, 69
2, 58995, Note_on_c, 0, 61, 61
2, 58997, Note_on_c, 0, 95, 61
2, 58998, Note_on_c, 0, 88, 57
2, 59001, Note_on_c, 0, 97, 31
2, 59009, Note_on_c, 0, 97, 0
2, 59012, Note_on_c, 0, 88, 0
2, 59017, Note_on_c, 0, 95, 0
2, 59018, Note_on_c, 0, 55, 0
2, 59022, Note_on_c, 0, 66, 0
2, 59023, Note_on_c, 0, 100, 0
2, 59031, Note_on_c, 0, 61, 0
2, 59062, Control_c, 0, 64, 0
2, 59064, Note_on_c, 0, 61, 53
2, 59066, Note_on_c, 0, 54, 54
2, 59066, Note_on_c, 0, 93, 68
2, 59067, Note_on_c, 0, 105, 68
2, 59068, Note_on_c, 0, 100, 69
2, 59069, Note_on_c, 0, 64, 49
2, 59070, Note_on_c, 0, 59, 51
2, 59084, Control_c, 0, 64, 127
2, 59100, Note_on_c, 0, 105, 0
2, 59101, Note_on_c, 0, 100, 0
2, 59111, Note_on_c, 0, 93, 0
2, 59111, Note_on_c, 0, 59, 0
2, 59118, Note_on_c, 0, 64, 0
2, 59121, Note_on_c, 0, 54, 0
2, 59128, Note_on_c, 0, 61, 0
2, 59149, Note_on_c, 0, 102, 54
2, 59150, Note_on_c, 0, 61, 40
2, 59150, Note_on_c, 0, 54, 43
2, 59153, Note_on_c, 0, 90, 51
2, 59155, Note_on_c, 0, 64, 35
2, 59156, Note_on_c, 0, 59, 43
2, 59163, Note_on_c, 0, 102, 0
2, 59165, Note_on_c, 0, 90, 0
2, 59170, Note_on_c, 0, 59, 0
2, 59181, Note_on_c, 0, 64, 0
2, 59190, Note_on_c, 0, 54, 0
2, 59193, Note_on_c, 0, 61, 0
2, 59225, Note_on_c, 0, 61, 42
2, 59226, Note_on_c, 0, 54, 44
2, 59228, Note_on_c, 0, 64, 46
2, 59228, Note_on_c, 0, 98, 58
2, 59229, Note_on_c, 0, 93, 57
2, 59229, Note_on_c, 0, 86, 47
2, 59233, Note_on_c, 0, 59, 37
2, 59235, Control_c, 0, 64, 0
2, 59254, Control_c, 0, 64, 127
2, 59291, Note_on_c, 0, 98, 0
2, 59298, Note_on_c, 0, 93, 0
2, 59301, Note_on_c, 0, 59, 0
2, 59303, Note_on_c, 0, 64, 0
2, 59311, Note_on_c, 0, 86, 0
2, 59311, Note_on_c, 0, 61, 0
2, 59368, Note_on_c, 0, 54, 0
2, 59390, Note_on_c, 0, 54, 36
2, 59391, Note_on_c, 0, 61, 43
2, 59393, Control_c, 0, 64, 0
2, 59396, Note_on_c, 0, 64, 36
2, 59398, Note_on_c, 0, 59, 44
2, 59420, Control_c, 0, 64, 127
2, 59492, Note_on_c, 0, 59, 0
2, 59501, Note_on_c, 0, 64, 0
2, 59510, Note_on_c, 0, 61, 0
2, 59583, Note_on_c, 0, 62, 69
2, 59583, Note_on_c, 0, 74, 73
2, 59583, Note_on_c, 0, 59, 66
2, 59585, Note_on_c, 0, 68, 67
2, 59585, Note_on_c, 0, 71, 68
2, 59586, Note_on_c, 0, 65, 79
2, 59591, Control_c, 0, 64, 0
2, 59622, Control_c, 0, 64, 127
2, 59634, Note_on_c, 0, 62, 0
2, 59641, Note_on_c, 0, 59, 0
2, 59643, Note_on_c, 0, 71, 0
2, 59650, Note_on_c, 0, 68, 0
2, 59650, Note_on_c, 0, 65, 0
2, 59665, Note_on_c, 0, 74, 0
2, 59688, Note_on_c, 0, 65, 65
2, 59688, Note_on_c, 0, 71, 70
2, 59691, Note_on_c, 0, 62, 57
2, 59693, Note_on_c, 0, 59, 58
2, 59713, Note_on_c, 0, 71, 0
2, 59715, Note_on_c, 0, 62, 0
2, 59721, Note_on_c, 0, 59, 0
2, 59721, Note_on_c, 0, 65, 0
2, 59739, Note_on_c, 0, 54, 0
2, 59777, Note_on_c, 0, 67, 70
2, 59778, Note_on_c, 0, 61, 59
2, 59778, Note_on_c, 0, 58, 67
2, 59780, Note_on_c, 0, 55, 57
2, 59789, Note_on_c, 0, 64, 38
2, 59792, Control_c, 0, 64, 0
2, 59825, Control_c, 0, 64, 127
2, 59872, Note_on_c, 0, 64, 0
2, 59872, Note_on_c, 0, 67, 0
2, 59877, Note_on_c, 0, 55, 0
2, 59881, Note_on_c, 0, 58, 0
2, 59882, Note_on_c, 0, 61, 0
2, 59950, Note_on_c, 0, 61, 46
2, 59951, Note_on_c, 0, 55, 56
2, 59953, Note_on_c, 0, 57, 45
2, 59954, Note_on_c, 0, 49, 37
2, 59961, Control_c, 0, 64, 0
2, 59967, Note_on_c, 0, 55, 0
2, 59968, Note_on_c, 0, 57, 0
2, 59974, Note_on_c, 0, 49, 0
2, 59976, Note_on_c, 0, 61, 0
2, 60021, Note_on_c, 0, 61, 50
2, 60021, Note_on_c, 0, 50, 60
2, 60022, Note_on_c, 0, 55, 62
2, 60024, Note_on_c, 0, 57, 54
2, 60056, Control_c, 0, 64, 127
2, 60080, Note_on_c, 0, 57, 0
2, 60081, Note_on_c, 0, 55, 0
2, 60086, Note_on_c, 0, 50, 0
2, 60087, Note_on_c, 0, 61, 0
2, 60111, Control_c, 0, 64, 0
2, 60115, Note_on_c, 0, 61, 47
2, 60116, Note_on_c, 0, 55, 55
2, 60117, Note_on_c, 0, 50, 58
2, 60119, Note_on_c, 0, 57, 50
2, 60157, Control_c, 0, 64, 127
2, 60164, Note_on_c, 0, 50, 0
2, 60191, Note_on_c, 0, 50, 60
2, 60228, Note_on_c, 0, 50, 0
2, 60268, Note_on_c, 0, 50, 68
2, 60306, Note_on_c, 0, 50, 0
2, 60351, Note_on_c, 0, 50, 59
2, 60376, Note_on_c, 0, 50, 0
2, 60426, Note_on_c, 0, 55, 0
2, 60426, Note_on_c, 0, 50, 59
2, 60443, Note_on_c, 0, 61, 0
2, 60444, Note_on_c, 0, 57, 0
2, 60445, Note_on_c, 0, 50, 0
2, 60482, Control_c, 0, 64, 0
2, 60487, Note_on_c, 0, 54, 52
2, 60488, Note_on_c, 0, 62, 64
2, 60490, Note_on_c, 0, 50, 66
2, 60490, Note_on_c, 0, 57, 55
2, 60511, Control_c, 0, 64, 127
2, 60540, Note_on_c, 0, 54, 0
2, 60550, Note_on_c, 0, 57, 0
2, 60555, Note_on_c, 0, 50, 0
2, 60563, Note_on_c, 0, 62, 0
2, 60670, Note_on_c, 0, 49, 72
2, 60670, Note_on_c, 0, 69, 85
2, 60671, Note_on_c, 0, 61, 83
2, 60672, Note_on_c, 0, 57, 73
2, 60688, Control_c, 0, 64, 0
2, 60717, Control_c, 0, 64, 127
2, 60787, Note_on_c, 0, 57, 0
2, 60802, Note_on_c, 0, 49, 0
2, 60810, Note_on_c, 0, 61, 0
2, 60829, Note_on_c, 0, 69, 0
2, 60844, Note_on_c, 0, 57, 44
2, 60848, Note_on_c, 0, 62, 44
2, 60851, Note_on_c, 0, 47, 42
2, 60856, Control_c, 0, 64, 0
2, 60887, Control_c, 0, 64, 127
2, 60903, Note_on_c, 0, 57, 0
2, 60915, Note_on_c, 0, 54, 52
2, 60931, Note_on_c, 0, 47, 0
2, 60933, Note_on_c, 0, 62, 0
2, 60942, Note_on_c, 0, 54, 0
2, 61122, Note_on_c, 0, 83, 78
2, 61128, Note_on_c, 0, 66, 54
2, 61129, Note_on_c, 0, 57, 46
2, 61129, Note_on_c, 0, 62, 45
2, 61130, Note_on_c, 0, 71, 80
2, 61143, Note_on_c, 0, 66, 0
2, 61144, Note_on_c, 0, 62, 0
2, 61145, Note_on_c, 0, 71, 0
2, 61146, Note_on_c, 0, 57, 0
2, 61149, Note_on_c, 0, 83, 0
2, 61177, Note_on_c, 0, 66, 53
2, 61180, Note_on_c, 0, 85, 81
2, 61184, Note_on_c, 0, 73, 60
2, 61185, Note_on_c, 0, 57, 24
2, 61192, Note_on_c, 0, 57, 0
2, 61200, Note_on_c, 0, 73, 0
2, 61204, Note_on_c, 0, 85, 0
2, 61204, Note_on_c, 0, 66, 0
2, 61238, Note_on_c, 0, 86, 75
2, 61239, Control_c, 0, 64, 0
2, 61241, Note_on_c, 0, 56, 51
2, 61242, Note_on_c, 0, 67, 58
2, 61243, Note_on_c, 0, 62, 54
2, 61244, Note_on_c, 0, 82, 53
2, 61246, Note_on_c, 0, 74, 67
2, 61268, Control_c, 0, 64, 127
2, 61345, Note_on_c, 0, 86, 0
2, 61352, Note_on_c, 0, 82, 0
2, 61356, Note_on_c, 0, 74, 0
2, 61357, Note_on_c, 0, 67, 0
2, 61378, Note_on_c, 0, 56, 0
2, 61387, Note_on_c, 0, 62, 0
2, 61413, Note_on_c, 0, 80, 52
2, 61419, Note_on_c, 0, 65, 49
2, 61420, Note_on_c, 0, 68, 53
2, 61420, Note_on_c, 0, 62, 49
2, 61423, Note_on_c, 0, 56, 32
2, 61470, Note_on_c, 0, 65, 0
2, 61474, Note_on_c, 0, 56, 0
2, 61478, Note_on_c, 0, 68, 0
2, 61482, Note_on_c, 0, 62, 0
2, 61487, Note_on_c, 0, 80, 0
2, 61555, Note_on_c, 0, 80, 54
2, 61558, Note_on_c, 0, 62, 49
2, 61558, Note_on_c, 0, 56, 47
2, 61559, Note_on_c, 0, 65, 50
2, 61561, Note_on_c, 0, 68, 32
2, 61561, Note_on_c, 0, 74, 53
2, 61564, Control_c, 0, 64, 0
2, 61591, Control_c, 0, 64, 127
2, 61680, Note_on_c, 0, 65, 0
2, 61684, Note_on_c, 0, 62, 0
2, 61728, Note_on_c, 0, 74, 0
2, 61733, Note_on_c, 0, 68, 0
2, 61754, Note_on_c, 0, 65, 58
2, 61756, Note_on_c, 0, 62, 58
2, 61807, Note_on_c, 0, 56, 0
2, 61813, Note_on_c, 0, 80, 0
2, 61844, Note_on_c, 0, 65, 0
2, 61865, Note_on_c, 0, 62, 0
2, 61873, Note_on_c, 0, 56, 51
2, 61891, Note_on_c, 0, 56, 0
2, 61919, Note_on_c, 0, 66, 83
2, 61919, Note_on_c, 0, 61, 76
2, 61920, Note_on_c, 0, 55, 81
2, 61921, Note_on_c, 0, 83, 84
2, 61922, Note_on_c, 0, 79, 79
2, 61922, Note_on_c, 0, 76, 87
2, 61922, Note_on_c, 0, 71, 94
2, 61928, Control_c, 0, 64, 0
2, 61959, Control_c, 0, 64, 127
2, 62058, Note_on_c, 0, 55, 0
2, 62069, Note_on_c, 0, 66, 0
2, 62078, Note_on_c, 0, 76, 0
2, 62079, Note_on_c, 0, 79, 0
2, 62083, Note_on_c, 0, 71, 0
2, 62086, Note_on_c, 0, 61, 0
2, 62087, Note_on_c, 0, 83, 0
2, 62114, Note_on_c, 0, 66, 67
2, 62117, Note_on_c, 0, 61, 55
2, 62118, Note_on_c, 0, 55, 54
2, 62126, Note_on_c, 0, 55, 0
2, 62132, Note_on_c, 0, 66, 0
2, 62144, Note_on_c, 0, 61, 0
2, 62202, Note_on_c, 0, 82, 57
2, 62202, Note_on_c, 0, 70, 71
2, 62204, Note_on_c, 0, 61, 40
2, 62206, Note_on_c, 0, 75, 33
2, 62212, Note_on_c, 0, 61, 0
2, 62213, Note_on_c, 0, 75, 0
2, 62214, Note_on_c, 0, 70, 0
2, 62218, Note_on_c, 0, 82, 0
2, 62233, Note_on_c, 0, 75, 55
2, 62234, Note_on_c, 0, 71, 68
2, 62234, Note_on_c, 0, 66, 52
2, 62235, Note_on_c, 0, 83, 50
2, 62235, Note_on_c, 0, 61, 39
2, 62235, Note_on_c, 0, 55, 51
2, 62241, Note_on_c, 0, 75, 0
2, 62243, Note_on_c, 0, 55, 0
2, 62244, Note_on_c, 0, 71, 0
2, 62246, Note_on_c, 0, 66, 0
2, 62250, Note_on_c, 0, 83, 0
2, 62254, Note_on_c, 0, 61, 0
2, 62272, Note_on_c, 0, 66, 93
2, 62273, Note_on_c, 0, 61, 79
2, 62273, Note_on_c, 0, 84, 89
2, 62273, Note_on_c, 0, 77, 88
2, 62274, Note_on_c, 0, 72, 91
2, 62274, Note_on_c, 0, 55, 94
2, 62276, Note_on_c, 0, 81, 72
2, 62278, Control_c, 0, 64, 0
2, 62297, Note_on_c, 0, 72, 0
2, 62300, Note_on_c, 0, 66, 0
2, 62304, Control_c, 0, 64, 127
2, 62306, Note_on_c, 0, 61, 0
2, 62308, Note_on_c, 0, 77, 0
2, 62308, Note_on_c, 0, 55, 0
2, 62309, Note_on_c, 0, 84, 0
2, 62313, Note_on_c, 0, 72, 47
2, 62314, Note_on_c, 0, 55, 31
2, 62317, Note_on_c, 0, 81, 0
2, 62322, Note_on_c, 0, 66, 45
2, 62325, Note_on_c, 0, 61, 29
2, 62333, Note_on_c, 0, 55, 0
2, 62333, Note_on_c, 0, 72, 0
2, 62335, Note_on_c, 0, 81, 54
2, 62337, Note_on_c, 0, 77, 27
2, 62337, Note_on_c, 0, 84, 24
2, 62342, Note_on_c, 0, 66, 0
2, 62346, Note_on_c, 0, 61, 0
2, 62346, Note_on_c, 0, 84, 0
2, 62352, Note_on_c, 0, 72, 53
2, 62353, Note_on_c, 0, 55, 67
2, 62354, Note_on_c, 0, 81, 0
2, 62354, Note_on_c, 0, 77, 0
2, 62369, Note_on_c, 0, 61, 34
2, 62370, Note_on_c, 0, 66, 44
2, 62372, Note_on_c, 0, 72, 0
2, 62373, Note_on_c, 0, 55, 0
2, 62374, Note_on_c, 0, 84, 42
2, 62376, Note_on_c, 0, 77, 38
2, 62376, Note_on_c, 0, 81, 47
2, 62386, Note_on_c, 0, 66, 0
2, 62387, Note_on_c, 0, 84, 0
2, 62392, Note_on_c, 0, 61, 0
2, 62393, Note_on_c, 0, 77, 0
2, 62393, Note_on_c, 0, 72, 51
2, 62394, Note_on_c, 0, 55, 66
2, 62396, Note_on_c, 0, 81, 0
2, 62412, Note_on_c, 0, 72, 0
2, 62414, Note_on_c, 0, 84, 48
2, 62414, Note_on_c, 0, 77, 44
2, 62415, Note_on_c, 0, 81, 49
2, 62416, Note_on_c, 0, 61, 35
2, 62419, Note_on_c, 0, 55, 0
2, 62420, Note_on_c, 0, 66, 28
2, 62432, Note_on_c, 0, 84, 0
2, 62433, Note_on_c, 0, 72, 49
2, 62434, Note_on_c, 0, 77, 0
2, 62436, Note_on_c, 0, 81, 0
2, 62437, Note_on_c, 0, 61, 0
2, 62437, Note_on_c, 0, 66, 0
2, 62439, Note_on_c, 0, 55, 59
2, 62450, Note_on_c, 0, 72, 0
2, 62453, Note_on_c, 0, 84, 32
2, 62455, Note_on_c, 0, 77, 34
2, 62455, Note_on_c, 0, 81, 34
2, 62466, Note_on_c, 0, 61, 40
2, 62467, Note_on_c, 0, 55, 0
2, 62474, Note_on_c, 0, 72, 50
2, 62477, Note_on_c, 0, 77, 0
2, 62478, Note_on_c, 0, 81, 0
2, 62485, Note_on_c, 0, 61, 0
2, 62491, Note_on_c, 0, 84, 0
2, 62496, Note_on_c, 0, 77, 40
2, 62498, Note_on_c, 0, 72, 0
2, 62510, Note_on_c, 0, 77, 0
2, 62525, Note_on_c, 0, 85, 71
2, 62526, Note_on_c, 0, 55, 66
2, 62526, Note_on_c, 0, 61, 36
2, 62527, Note_on_c, 0, 66, 51
2, 62527, Control_c, 0, 64, 0
2, 62528, Note_on_c, 0, 73, 35
2, 62537, Control_c, 0, 64, 127
2, 62563, Note_on_c, 0, 66, 0
2, 62564, Note_on_c, 0, 55, 0
2, 62573, Note_on_c, 0, 61, 0
2, 62601, Note_on_c, 0, 73, 0
2, 62609, Note_on_c, 0, 85, 0
2, 62634, Note_on_c, 0, 61, 1
2, 62636, Note_on_c, 0, 64, 46
2, 62638, Note_on_c, 0, 54, 27
2, 62640, Control_c, 0, 64, 0
2, 62640, Note_on_c, 0, 78, 23
2, 62641, Note_on_c, 0, 86, 39
2, 62642, Note_on_c, 0, 59, 45
2, 62663, Note_on_c, 0, 74, 4
2, 62673, Control_c, 0, 64, 127
2, 62733, Note_on_c, 0, 59, 0
2, 62754, Note_on_c, 0, 54, 0
2, 62754, Note_on_c, 0, 64, 0
2, 62783, Note_on_c, 0, 61, 0
2, 62832, Note_on_c, 0, 61, 36
2, 62833, Note_on_c, 0, 54, 34
2, 62837, Note_on_c, 0, 64, 43
2, 62837, Note_on_c, 0, 59, 42
2, 62882, Note_on_c, 0, 74, 0
2, 62887, Note_on_c, 0, 78, 0
2, 62915, Note_on_c, 0, 59, 0
2, 62921, Note_on_c, 0, 86, 0
2, 62926, Note_on_c, 0, 61, 0
2, 62934, Note_on_c, 0, 64, 0
2, 62937, Note_on_c, 0, 54, 0
2, 62999, Note_on_c, 0, 54, 40
2, 63001, Note_on_c, 0, 65, 34
2, 63003, Note_on_c, 0, 60, 36
2, 63014, Control_c, 0, 64, 0
2, 63047, Note_on_c, 0, 96, 42
2, 63061, Note_on_c, 0, 97, 50
2, 63072, Note_on_c, 0, 96, 0
2, 63080, Note_on_c, 0, 97, 0
2, 63080, Note_on_c, 0, 98, 65
2, 63099, Note_on_c, 0, 98, 0
2, 63102, Note_on_c, 0, 101, 69
2, 63119, Note_on_c, 0, 101, 0
2, 63134, Note_on_c, 0, 65, 0
2, 63137, Note_on_c, 0, 60, 0
2, 63139, Note_on_c, 0, 54, 0
2, 63166, Note_on_c, 0, 98, 78
2, 63167, Note_on_c, 0, 92, 79
2, 63183, Note_on_c, 0, 92, 0
2, 63185, Note_on_c, 0, 98, 0
2, 63214, Note_on_c, 0, 89, 71
2, 63216, Note_on_c, 0, 54, 51
2, 63219, Note_on_c, 0, 65, 48
2, 63221, Note_on_c, 0, 60, 40
2, 63231, Note_on_c, 0, 89, 0
2, 63265, Note_on_c, 0, 86, 74
2, 63284, Note_on_c, 0, 86, 0
2, 63288, Note_on_c, 0, 65, 0
2, 63296, Note_on_c, 0, 60, 0
2, 63302, Note_on_c, 0, 84, 75
2, 63322, Note_on_c, 0, 84, 0
2, 63338, Note_on_c, 0, 54, 0
2, 63338, Note_on_c, 0, 82, 65
2, 63345, Note_on_c, 0, 64, 44
2, 63347, Note_on_c, 0, 53, 40
2, 63350, Note_on_c, 0, 59, 39
2, 63358, Note_on_c, 0, 82, 0
2, 63374, Note_on_c, 0, 83, 71
2, 63393, Note_on_c, 0, 83, 0
2, 63412, Note_on_c, 0, 86, 78
2, 63430, Note_on_c, 0, 86, 0
2, 63466, Note_on_c, 0, 86, 68
2, 63471, Note_on_c, 0, 81, 47
2, 63489, Note_on_c, 0, 81, 0
2, 63491, Note_on_c, 0, 86, 0
2, 63536, Note_on_c, 0, 82, 62
2, 63536, Note_on_c, 0, 86, 62
2, 63550, Note_on_c, 0, 83, 48
2, 63560, Note_on_c, 0, 83, 0
2, 63561, Note_on_c, 0, 86, 0
2, 63566, Note_on_c, 0, 82, 0
2, 63592, Note_on_c, 0, 80, 64
2, 63596, Note_on_c, 0, 84, 59
2, 63603, Note_on_c, 0, 80, 0
2, 63603, Note_on_c, 0, 81, 70
2, 63616, Note_on_c, 0, 84, 0
2, 63622, Note_on_c, 0, 81, 0
2, 63641, Note_on_c, 0, 77, 58
2, 63658, Note_on_c, 0, 77, 0
2, 63665, Note_on_c, 0, 74, 40
2, 63678, Note_on_c, 0, 74, 0
2, 63688, Note_on_c, 0, 64, 0
2, 63693, Note_on_c, 0, 72, 49
2, 63694, Note_on_c, 0, 53, 0
2, 63694, Note_on_c, 0, 79, 37
2, 63704, Note_on_c, 0, 79, 0
2, 63710, Note_on_c, 0, 59, 0
2, 63711, Note_on_c, 0, 72, 0
2, 63721, Note_on_c, 0, 70, 56
2, 63737, Note_on_c, 0, 53, 35
2, 63738, Note_on_c, 0, 62, 33
2, 63738, Note_on_c, 0, 59, 17
2, 63741, Note_on_c, 0, 70, 0
2, 63745, Note_on_c, 0, 79, 28
2, 63745, Note_on_c, 0, 71, 54
2, 63772, Note_on_c, 0, 71, 0
2, 63773, Note_on_c, 0, 79, 0
2, 63850, Note_on_c, 0, 67, 54
2, 63879, Control_c, 0, 64, 127
2, 63899, Note_on_c, 0, 53, 0
2, 63916, Note_on_c, 0, 53, 59
2, 63962, Note_on_c, 0, 62, 0
2, 63977, Note_on_c, 0, 59, 0
2, 63994, Note_on_c, 0, 53, 0
2, 64005, Note_on_c, 0, 67, 0
2, 64024, Note_on_c, 0, 65, 68
2, 64045, Note_on_c, 0, 65, 0
2, 64080, Note_on_c, 0, 68, 57
2, 64080, Note_on_c, 0, 59, 68
2, 64080, Note_on_c, 0, 64, 69
2, 64080, Note_on_c, 0, 66, 35
2, 64087, Note_on_c, 0, 66, 0
2, 64089, Control_c, 0, 64, 0
2, 64170, Note_on_c, 0, 48, 29
2, 64219, Note_on_c, 0, 59, 0
2, 64230, Note_on_c, 0, 56, 35
2, 64236, Note_on_c, 0, 64, 0
2, 64241, Control_c, 0, 64, 127
2, 64260, Note_on_c, 0, 59, 51
2, 64266, Note_on_c, 0, 68, 0
2, 64270, Control_c, 0, 64, 0
2, 64285, Note_on_c, 0, 59, 0
2, 64288, Note_on_c, 0, 56, 0
2, 64290, Note_on_c, 0, 64, 55
2, 64310, Note_on_c, 0, 64, 0
2, 64320, Note_on_c, 0, 68, 62
2, 64340, Note_on_c, 0, 68, 0
2, 64350, Note_on_c, 0, 71, 60
2, 64350, Note_on_c, 0, 56, 29
2, 64356, Note_on_c, 0, 56, 0
2, 64364, Note_on_c, 0, 48, 0
2, 64368, Note_on_c, 0, 71, 0
2, 64380, Note_on_c, 0, 74, 80
2, 64380, Note_on_c, 0, 59, 68
2, 64380, Note_on_c, 0, 64, 48
2, 64380, Note_on_c, 0, 65, 56
2, 64386, Note_on_c, 0, 65, 0
2, 64388, Note_on_c, 0, 64, 0
2, 64399, Note_on_c, 0, 74, 0
2, 64404, Note_on_c, 0, 59, 0
2, 64440, Note_on_c, 0, 72, 71
2, 64440, Note_on_c, 0, 64, 77
2, 64440, Note_on_c, 0, 57, 63
2, 64440, Note_on_c, 0, 67, 64
2, 64447, Note_on_c, 0, 67, 0
2, 64454, Note_on_c, 0, 64, 0
2, 64457, Note_on_c, 0, 72, 0
2, 64461, Note_on_c, 0, 57, 0
2, 64500, Note_on_c, 0, 71, 75
2, 64500, Note_on_c, 0, 56, 59
2, 64500, Note_on_c, 0, 62, 66
2, 64500, Note_on_c, 0, 64, 60
2, 64507, Note_on_c, 0, 64, 0
2, 64515, Note_on_c, 0, 62, 0
2, 64522, Note_on_c, 0, 71, 0
2, 64527, Note_on_c, 0, 56, 0
2, 64560, Note_on_c, 0, 69, 73
2, 64560, Note_on_c, 0, 60, 55
2, 64560, Note_on_c, 0, 64, 60
2, 64560, Note_on_c, 0, 55, 55
2, 64569, Note_on_c, 0, 64, 0
2, 64572, Note_on_c, 0, 60, 0
2, 64579, Note_on_c, 0, 69, 0
2, 64583, Note_on_c, 0, 55, 0
2, 64620, Note_on_c, 0, 67, 61
2, 64620, Note_on_c, 0, 57, 43
2, 64620, Note_on_c, 0, 52, 54
2, 64620, Note_on_c, 0, 62, 30
2, 64620, Note_on_c, 0, 61, 29
2, 64643, Note_on_c, 0, 61, 0
2, 64658, Control_c, 0, 64, 127
2, 64663, Note_on_c, 0, 62, 0
2, 64664, Note_on_c, 0, 57, 0
2, 64679, Note_on_c, 0, 67, 0
2, 64680, Note_on_c, 0, 64, 58
2, 64680, Note_on_c, 0, 57, 51
2, 64680, Note_on_c, 0, 62, 41
2, 64712, Note_on_c, 0, 57, 0
2, 64717, Note_on_c, 0, 52, 0
2, 64732, Note_on_c, 0, 62, 0
2, 64736, Note_on_c, 0, 64, 0
2, 64770, Note_on_c, 0, 57, 22
2, 64770, Note_on_c, 0, 54, 35
2, 64777, Note_on_c, 0, 54, 0
2, 64777, Note_on_c, 0, 57, 0
2, 64800, Note_on_c, 0, 49, 55
2, 64800, Note_on_c, 0, 67, 62
2, 64800, Note_on_c, 0, 59, 64
2, 64800, Note_on_c, 0, 64, 57
2, 64817, Control_c, 0, 64, 0
2, 64868, Control_c, 0, 64, 127
2, 64870, Note_on_c, 0, 59, 0
2, 64876, Note_on_c, 0, 55, 51
2, 64905, Note_on_c, 0, 67, 0
2, 64908, Note_on_c, 0, 64, 0
2, 64920, Note_on_c, 0, 59, 53
2, 64939, Note_on_c, 0, 59, 0
2, 64950, Note_on_c, 0, 62, 62
2, 64961, Control_c, 0, 64, 0
2, 64975, Note_on_c, 0, 62, 0
2, 64980, Note_on_c, 0, 49, 0
2, 64987, Note_on_c, 0, 55, 0
2, 65010, Note_on_c, 0, 66, 53
2, 65010, Note_on_c, 0, 69, 73
2, 65022, Note_on_c, 0, 66, 0
2, 65030, Note_on_c, 0, 69, 0
2, 65040, Note_on_c, 0, 74, 71
2, 65060, Note_on_c, 0, 74, 0
2, 65070, Note_on_c, 0, 78, 71
2, 65092, Note_on_c, 0, 78, 0
2, 65100, Note_on_c, 0, 74, 33
2, 65100, Note_on_c, 0, 79, 69
2, 65109, Note_on_c, 0, 74, 0
2, 65130, Note_on_c, 0, 78, 61
2, 65135, Note_on_c, 0, 79, 0
2, 65160, Note_on_c, 0, 74, 32
2, 65174, Note_on_c, 0, 74, 0
2, 65184, Note_on_c, 0, 78, 0
2, 65190, Note_on_c, 0, 69, 34
2, 65198, Note_on_c, 0, 69, 0
2, 65220, Note_on_c, 0, 47, 49
2, 65310, Note_on_c, 0, 57, 47
2, 65367, Note_on_c, 0, 47, 0
2, 65370, Note_on_c, 0, 62, 31
2, 65370, Note_on_c, 0, 67, 48
2, 65379, Note_on_c, 0, 62, 0
2, 65395, Control_c, 0, 64, 127
2, 65396, Note_on_c, 0, 67, 0
2, 65400, Note_on_c, 0, 71, 68
2, 65405, Note_on_c, 0, 57, 0
2, 65424, Note_on_c, 0, 71, 0
2, 65430, Note_on_c, 0, 74, 63
2, 65439, Note_on_c, 0, 74, 0
2, 65460, Note_on_c, 0, 75, 57
2, 65483, Note_on_c, 0, 75, 0
2, 65490, Note_on_c, 0, 76, 53
2, 65490, Note_on_c, 0, 74, 43
2, 65501, Note_on_c, 0, 74, 0
2, 65510, Note_on_c, 0, 76, 0
2, 65516, Control_c, 0, 64, 0
2, 65520, Note_on_c, 0, 79, 76
2, 65520, Note_on_c, 0, 56, 34
2, 65520, Note_on_c, 0, 67, 46
2, 65520, Note_on_c, 0, 62, 38
2, 65545, Note_on_c, 0, 79, 0
2, 65550, Note_on_c, 0, 74, 32
2, 65550, Note_on_c, 0, 75, 37
2, 65566, Note_on_c, 0, 75, 0
2, 65574, Note_on_c, 0, 74, 0
2, 65580, Note_on_c, 0, 76, 45
2, 65604, Note_on_c, 0, 76, 0
2, 65610, Note_on_c, 0, 72, 46
2, 65620, Note_on_c, 0, 72, 0
2, 65633, Note_on_c, 0, 67, 0
2, 65640, Note_on_c, 0, 74, 51
2, 65640, Note_on_c, 0, 79, 62
2, 65665, Note_on_c, 0, 69, 48
2, 65672, Note_on_c, 0, 74, 0
2, 65674, Note_on_c, 0, 69, 0
2, 65686, Note_on_c, 0, 79, 43
2, 65689, Note_on_c, 0, 79, 0
2, 65689, Note_on_c, 0, 62, 0
2, 65689, Note_on_c, 0, 72, 50
2, 65739, Note_on_c, 0, 56, 0
2, 65764, Note_on_c, 0, 72, 0
2, 65769, Note_on_c, 0, 56, 39
2, 65770, Note_on_c, 0, 62, 47
2, 65770, Note_on_c, 0, 67, 39
2, 65771, Control_c, 0, 64, 127
2, 65777, Note_on_c, 0, 79, 0
2, 65851, Note_on_c, 0, 67, 0
2, 65857, Note_on_c, 0, 62, 0
2, 65879, Note_on_c, 0, 56, 0
2, 65882, Control_c, 0, 64, 0
2, 65886, Note_on_c, 0, 96, 92
2, 65886, Note_on_c, 0, 55, 67
2, 65886, Note_on_c, 0, 66, 62
2, 65887, Note_on_c, 0, 61, 50
2, 65903, Note_on_c, 0, 96, 0
2, 65922, Note_on_c, 0, 94, 73
2, 65946, Note_on_c, 0, 94, 0
2, 65950, Note_on_c, 0, 85, 62
2, 65964, Note_on_c, 0, 85, 0
2, 66007, Note_on_c, 0, 84, 57
2, 66023, Note_on_c, 0, 84, 0
2, 66059, Note_on_c, 0, 82, 56
2, 66081, Note_on_c, 0, 82, 0
2, 66117, Note_on_c, 0, 77, 51
2, 66138, Note_on_c, 0, 77, 0
2, 66149, Note_on_c, 0, 73, 49
2, 66173, Note_on_c, 0, 66, 0
2, 66175, Note_on_c, 0, 73, 0
2, 66177, Note_on_c, 0, 55, 0
2, 66180, Note_on_c, 0, 72, 43
2, 66211, Note_on_c, 0, 70, 58
2, 66224, Note_on_c, 0, 72, 0
2, 66233, Note_on_c, 0, 54, 40
2, 66236, Note_on_c, 0, 74, 50
2, 66237, Note_on_c, 0, 64, 32
2, 66240, Note_on_c, 0, 69, 78
2, 66244, Note_on_c, 0, 70, 0
2, 66298, Control_c, 0, 64, 127
2, 66323, Note_on_c, 0, 64, 0
2, 66324, Note_on_c, 0, 74, 0
2, 66330, Note_on_c, 0, 54, 0
2, 66332, Note_on_c, 0, 61, 0
2, 66359, Note_on_c, 0, 81, 72
2, 66363, Note_on_c, 0, 78, 65
2, 66365, Note_on_c, 0, 54, 40
2, 66367, Note_on_c, 0, 74, 69
2, 66367, Note_on_c, 0, 61, 40
2, 66369, Note_on_c, 0, 69, 62
2, 66371, Note_on_c, 0, 59, 36
2, 66371, Note_on_c, 0, 64, 45
2, 66372, Control_c, 0, 64, 0
2, 66401, Control_c, 0, 64, 127
2, 66430, Note_on_c, 0, 64, 0
2, 66431, Note_on_c, 0, 59, 0
2, 66441, Note_on_c, 0, 61, 0
2, 66443, Note_on_c, 0, 74, 0
2, 66447, Note_on_c, 0, 69, 0
2, 66453, Note_on_c, 0, 78, 0
2, 66460, Note_on_c, 0, 81, 0
2, 66476, Note_on_c, 0, 81, 64
2, 66479, Note_on_c, 0, 78, 52
2, 66480, Note_on_c, 0, 69, 0
2, 66482, Note_on_c, 0, 64, 31
2, 66484, Note_on_c, 0, 69, 57
2, 66487, Note_on_c, 0, 61, 19
2, 66488, Note_on_c, 0, 74, 28
2, 66505, Note_on_c, 0, 61, 0
2, 66505, Note_on_c, 0, 64, 0
2, 66548, Note_on_c, 0, 74, 0
2, 66559, Note_on_c, 0, 69, 0
2, 66581, Note_on_c, 0, 78, 0
2, 66596, Note_on_c, 0, 74, 42
2, 66598, Note_on_c, 0, 69, 38
2, 66602, Note_on_c, 0, 61, 30
2, 66605, Note_on_c, 0, 64, 24
2, 66638, Note_on_c, 0, 54, 0
2, 66648, Note_on_c, 0, 61, 0
2, 66662, Note_on_c, 0, 64, 0
2, 66672, Note_on_c, 0, 69, 0
2, 66677, Note_on_c, 0, 74, 0
2, 66713, Note_on_c, 0, 81, 0
2, 66719, Note_on_c, 0, 69, 56
2, 66739, Note_on_c, 0, 69, 0
2, 66884, Note_on_c, 0, 83, 70
2, 66885, Note_on_c, 0, 71, 71
2, 66891, Note_on_c, 0, 82, 34
2, 66896, Note_on_c, 0, 71, 0
2, 66898, Note_on_c, 0, 82, 0
2, 66898, Note_on_c, 0, 83, 0
2, 66916, Note_on_c, 0, 66, 69
2, 66917, Note_on_c, 0, 73, 68
2, 66918, Note_on_c, 0, 85, 85
2, 66919, Note_on_c, 0, 57, 41
2, 66920, Note_on_c, 0, 61, 27
2, 66925, Note_on_c, 0, 62, 45
2, 66937, Note_on_c, 0, 57, 0
2, 66943, Note_on_c, 0, 73, 0
2, 66945, Note_on_c, 0, 85, 0
2, 66948, Note_on_c, 0, 62, 0
2, 66948, Note_on_c, 0, 61, 0
2, 66949, Note_on_c, 0, 66, 0
2, 66963, Note_on_c, 0, 67, 81
2, 66963, Note_on_c, 0, 56, 71
2, 66964, Note_on_c, 0, 62, 53
2, 66964, Note_on_c, 0, 86, 82
2, 66965, Note_on_c, 0, 74, 84
2, 66967, Note_on_c, 0, 85, 73
2, 66968, Control_c, 0, 64, 0
2, 66995, Control_c, 0, 64, 127
2, 67003, Note_on_c, 0, 85, 0
2, 67038, Note_on_c, 0, 74, 0
2, 67043, Note_on_c, 0, 86, 0
2, 67046, Note_on_c, 0, 67, 0
2, 67047, Note_on_c, 0, 62, 0
2, 67047, Note_on_c, 0, 56, 0
2, 67148, Note_on_c, 0, 88, 60
2, 67148, Note_on_c, 0, 56, 43
2, 67148, Note_on_c, 0, 67, 54
2, 67150, Note_on_c, 0, 62, 48
2, 67150, Control_c, 0, 64, 0
2, 67153, Note_on_c, 0, 76, 45
2, 67158, Control_c, 0, 64, 127
2, 67202, Note_on_c, 0, 56, 0
2, 67204, Note_on_c, 0, 62, 0
2, 67205, Note_on_c, 0, 88, 0
2, 67205, Note_on_c, 0, 76, 0
2, 67206, Note_on_c, 0, 67, 0
2, 67236, Note_on_c, 0, 67, 50
2, 67236, Note_on_c, 0, 56, 37
2, 67237, Note_on_c, 0, 88, 49
2, 67238, Note_on_c, 0, 62, 49
2, 67240, Note_on_c, 0, 76, 36
2, 67242, Control_c, 0, 64, 0
2, 67244, Control_c, 0, 64, 127
2, 67285, Note_on_c, 0, 62, 0
2, 67286, Note_on_c, 0, 56, 0
2, 67286, Note_on_c, 0, 67, 0
2, 67288, Note_on_c, 0, 88, 0
2, 67288, Note_on_c, 0, 76, 0
2, 67331, Note_on_c, 0, 88, 54
2, 67332, Note_on_c, 0, 67, 51
2, 67333, Control_c, 0, 64, 0
2, 67333, Note_on_c, 0, 62, 51
2, 67334, Note_on_c, 0, 56, 40
2, 67336, Note_on_c, 0, 76, 30
2, 67349, Control_c, 0, 64, 127
2, 67468, Note_on_c, 0, 67, 0
2, 67476, Note_on_c, 0, 56, 0
2, 67485, Note_on_c, 0, 62, 0
2, 67560, Note_on_c, 0, 76, 0
2, 67565, Note_on_c, 0, 88, 0
2, 67675, Note_on_c, 0, 90, 48
2, 67675, Note_on_c, 0, 62, 41
2, 67677, Note_on_c, 0, 66, 32
2, 67678, Control_c, 0, 64, 0
2, 67680, Note_on_c, 0, 78, 28
2, 67680, Note_on_c, 0, 57, 36
2, 67703, Control_c, 0, 64, 127
2, 67711, Note_on_c, 0, 57, 0
2, 67714, Note_on_c, 0, 66, 0
2, 67720, Note_on_c, 0, 62, 0
2, 67737, Note_on_c, 0, 66, 35
2, 67743, Note_on_c, 0, 62, 27
2, 67759, Note_on_c, 0, 66, 0
2, 67767, Note_on_c, 0, 62, 0
2, 67796, Note_on_c, 0, 66, 35
2, 67802, Note_on_c, 0, 62, 35
2, 67804, Note_on_c, 0, 57, 25
2, 67814, Note_on_c, 0, 57, 0
2, 67816, Note_on_c, 0, 66, 0
2, 67822, Note_on_c, 0, 62, 0
2, 67859, Note_on_c, 0, 66, 38
2, 67865, Note_on_c, 0, 57, 33
2, 67867, Note_on_c, 0, 62, 31
2, 67878, Note_on_c, 0, 57, 0
2, 67878, Note_on_c, 0, 90, 0
2, 67879, Note_on_c, 0, 78, 0
2, 67880, Note_on_c, 0, 66, 0
2, 67882, Note_on_c, 0, 62, 0
2, 67917, Note_on_c, 0, 66, 39
2, 67919, Note_on_c, 0, 89, 44
2, 67924, Note_on_c, 0, 77, 39
2, 67924, Note_on_c, 0, 57, 29
2, 67924, Note_on_c, 0, 62, 31
2, 67936, Note_on_c, 0, 66, 0
2, 67937, Note_on_c, 0, 57, 0
2, 67939, Note_on_c, 0, 89, 0
2, 67942, Note_on_c, 0, 77, 0
2, 67943, Note_on_c, 0, 62, 0
2, 67975, Note_on_c, 0, 66, 42
2, 67979, Note_on_c, 0, 90, 55
2, 67981, Note_on_c, 0, 78, 43
2, 67982, Note_on_c, 0, 62, 31
2, 67992, Note_on_c, 0, 62, 0
2, 67992, Note_on_c, 0, 66, 0
2, 68003, Note_on_c, 0, 78, 0
2, 68005, Note_on_c, 0, 90, 0
2, 68034, Note_on_c, 0, 66, 45
2, 68035, Note_on_c, 0, 61, 37
2, 68036, Note_on_c, 0, 88, 48
2, 68037, Note_on_c, 0, 55, 50
2, 68039, Note_on_c, 0, 76, 41
2, 68041, Control_c, 0, 64, 0
2, 68070, Note_on_c, 0, 55, 0
2, 68072, Note_on_c, 0, 66, 0
2, 68073, Control_c, 0, 64, 127
2, 68074, Note_on_c, 0, 61, 0
2, 68098, Note_on_c, 0, 66, 38
2, 68100, Note_on_c, 0, 61, 30
2, 68100, Note_on_c, 0, 55, 42
2, 68115, Note_on_c, 0, 55, 0
2, 68117, Note_on_c, 0, 66, 0
2, 68125, Note_on_c, 0, 61, 0
2, 68156, Note_on_c, 0, 66, 53
2, 68157, Note_on_c, 0, 55, 62
2, 68159, Note_on_c, 0, 61, 46
2, 68180, Note_on_c, 0, 55, 0
2, 68184, Note_on_c, 0, 66, 0
2, 68193, Note_on_c, 0, 61, 0
2, 68220, Note_on_c, 0, 66, 53
2, 68221, Note_on_c, 0, 61, 52
2, 68223, Note_on_c, 0, 55, 56
2, 68225, Note_on_c, 0, 88, 0
2, 68240, Note_on_c, 0, 55, 0
2, 68240, Note_on_c, 0, 66, 0
2, 68242, Note_on_c, 0, 76, 0
2, 68253, Note_on_c, 0, 61, 0
2, 68278, Note_on_c, 0, 87, 51
2, 68280, Note_on_c, 0, 66, 48
2, 68281, Note_on_c, 0, 75, 49
2, 68281, Note_on_c, 0, 61, 46
2, 68283, Note_on_c, 0, 55, 40
2, 68293, Note_on_c, 0, 55, 0
2, 68296, Note_on_c, 0, 66, 0
2, 68304, Note_on_c, 0, 61, 0
2, 68316, Note_on_c, 0, 75, 0
2, 68316, Note_on_c, 0, 87, 0
2, 68337, Note_on_c, 0, 88, 57
2, 68351, Note_on_c, 0, 88, 0
2, 68395, Control_c, 0, 64, 0
2, 68396, Note_on_c, 0, 50, 54
2, 68398, Note_on_c, 0, 90, 46
2, 68399, Note_on_c, 0, 78, 33
2, 68419, Note_on_c, 0, 90, 0
2, 68421, Control_c, 0, 64, 127
2, 68430, Note_on_c, 0, 78, 0
2, 68460, Note_on_c, 0, 57, 33
2, 68497, Note_on_c, 0, 57, 0
2, 68517, Note_on_c, 0, 57, 32
2, 68530, Note_on_c, 0, 57, 0
2, 68540, Note_on_c, 0, 50, 0
2, 68579, Note_on_c, 0, 66, 47
2, 68581, Note_on_c, 0, 57, 44
2, 68582, Note_on_c, 0, 62, 52
2, 68606, Control_c, 0, 64, 0
2, 68646, Control_c, 0, 64, 127
2, 68663, Note_on_c, 0, 57, 0
2, 68698, Note_on_c, 0, 57, 49
2, 68719, Note_on_c, 0, 57, 0
2, 68753, Note_on_c, 0, 62, 0
2, 68759, Note_on_c, 0, 57, 52
2, 68764, Note_on_c, 0, 66, 0
2, 68781, Note_on_c, 0, 57, 0
2, 68820, Note_on_c, 0, 57, 58
2, 68842, Note_on_c, 0, 57, 0
2, 68874, Note_on_c, 0, 65, 79
2, 68874, Note_on_c, 0, 69, 79
2, 68875, Note_on_c, 0, 60, 74
2, 68876, Note_on_c, 0, 57, 66
2, 68876, Control_c, 0, 64, 0
2, 68890, Control_c, 0, 64, 127
2, 68909, Note_on_c, 0, 57, 0
2, 68909, Note_on_c, 0, 60, 0
2, 68916, Note_on_c, 0, 69, 0
2, 68916, Note_on_c, 0, 65, 0
2, 68942, Note_on_c, 0, 70, 70
2, 68943, Note_on_c, 0, 66, 71
2, 68943, Note_on_c, 0, 61, 49
2, 68944, Note_on_c, 0, 57, 66
2, 68946, Control_c, 0, 64, 0
2, 68950, Note_on_c, 0, 62, 48
2, 68959, Note_on_c, 0, 61, 0
2, 68962, Note_on_c, 0, 62, 0
2, 68969, Control_c, 0, 64, 127
2, 68981, Note_on_c, 0, 57, 0
2, 68991, Note_on_c, 0, 66, 0
2, 68999, Note_on_c, 0, 70, 0
2, 69029, Note_on_c, 0, 72, 63
2, 69030, Note_on_c, 0, 63, 69
2, 69031, Note_on_c, 0, 68, 54
2, 69033, Note_on_c, 0, 57, 51
2, 69034, Control_c, 0, 64, 0
2, 69059, Control_c, 0, 64, 127
2, 69079, Note_on_c, 0, 63, 0
2, 69093, Note_on_c, 0, 72, 0
2, 69095, Note_on_c, 0, 68, 0
2, 69103, Note_on_c, 0, 57, 0
2, 69122, Note_on_c, 0, 45, 60
2, 69129, Note_on_c, 0, 57, 24
2, 69131, Control_c, 0, 64, 0
2, 69156, Control_c, 0, 64, 127
2, 69174, Note_on_c, 0, 45, 0
2, 69187, Note_on_c, 0, 45, 62
2, 69202, Note_on_c, 0, 57, 0
2, 69214, Note_on_c, 0, 45, 0
2, 69241, Note_on_c, 0, 45, 40
2, 69263, Note_on_c, 0, 45, 0
2, 69299, Note_on_c, 0, 66, 50
2, 69300, Note_on_c, 0, 57, 44
2, 69301, Note_on_c, 0, 62, 52
2, 69306, Note_on_c, 0, 45, 43
2, 69317, Control_c, 0, 64, 0
2, 69325, Note_on_c, 0, 45, 0
2, 69326, Note_on_c, 0, 62, 0
2, 69329, Note_on_c, 0, 57, 0
2, 69334, Note_on_c, 0, 66, 0
2, 69345, Control_c, 0, 64, 127
2, 69416, Note_on_c, 0, 45, 57
2, 69444, Note_on_c, 0, 45, 0
2, 69459, Note_on_c, 0, 45, 68
2, 69487, Note_on_c, 0, 45, 0
2, 69504, Control_c, 0, 64, 0
2, 69509, Note_on_c, 0, 45, 62
2, 69518, Control_c, 0, 64, 127
2, 69542, Note_on_c, 0, 45, 0
2, 69569, Note_on_c, 0, 64, 59
2, 69569, Note_on_c, 0, 55, 53
2, 69571, Note_on_c, 0, 45, 64
2, 69573, Control_c, 0, 64, 0
2, 69574, Note_on_c, 0, 60, 48
2, 69600, Control_c, 0, 64, 127
2, 69601, Note_on_c, 0, 45, 0
2, 69658, Note_on_c, 0, 45, 55
2, 69677, Note_on_c, 0, 45, 0
2, 69705, Control_c, 0, 64, 0
2, 69720, Control_c, 0, 64, 127
2, 69725, Note_on_c, 0, 45, 52
2, 69746, Note_on_c, 0, 45, 0
2, 69785, Note_on_c, 0, 33, 59
2, 69787, Note_on_c, 0, 64, 0
2, 69796, Note_on_c, 0, 55, 0
2, 69804, Note_on_c, 0, 60, 0
2, 69843, Note_on_c, 0, 54, 59
2, 69844, Note_on_c, 0, 45, 57
2, 69845, Note_on_c, 0, 63, 51
2, 69846, Note_on_c, 0, 59, 61
2, 69851, Control_c, 0, 64, 0
2, 69868, Note_on_c, 0, 45, 0
2, 69907, Control_c, 0, 64, 127
2, 69908, Note_on_c, 0, 45, 53
2, 69921, Control_c, 0, 64, 0
2, 69926, Note_on_c, 0, 45, 0
2, 69966, Note_on_c, 0, 45, 54
2, 69975, Control_c, 0, 64, 127
2, 69990, Note_on_c, 0, 45, 0
2, 70031, Note_on_c, 0, 45, 50
2, 70056, Note_on_c, 0, 45, 0
2, 70089, Note_on_c, 0, 45, 36
2, 70109, Note_on_c, 0, 45, 0
2, 70148, Note_on_c, 0, 45, 45
2, 70156, Note_on_c, 0, 59, 0
2, 70158, Note_on_c, 0, 54, 0
2, 70168, Note_on_c, 0, 45, 0
2, 70172, Note_on_c, 0, 63, 0
2, 70207, Note_on_c, 0, 62, 54
2, 70209, Note_on_c, 0, 53, 43
2, 70210, Note_on_c, 0, 58, 49
2, 70210, Note_on_c, 0, 45, 43
2, 70216, Control_c, 0, 64, 0
2, 70250, Note_on_c, 0, 45, 0
2, 70263, Control_c, 0, 64, 127
2, 70270, Note_on_c, 0, 45, 38
2, 70290, Note_on_c, 0, 45, 0
2, 70330, Note_on_c, 0, 62, 0
2, 70330, Note_on_c, 0, 45, 40
2, 70348, Note_on_c, 0, 53, 0
2, 70353, Note_on_c, 0, 45, 0
2, 70370, Note_on_c, 0, 58, 0
2, 70394, Note_on_c, 0, 61, 45
2, 70397, Note_on_c, 0, 45, 39
2, 70397, Note_on_c, 0, 52, 40
2, 70400, Note_on_c, 0, 57, 38
2, 70407, Control_c, 0, 64, 0
2, 70442, Control_c, 0, 64, 127
2, 70461, Note_on_c, 0, 33, 0
2, 70510, Note_on_c, 0, 52, 0
2, 70515, Note_on_c, 0, 33, 44
2, 70518, Note_on_c, 0, 57, 0
2, 70545, Note_on_c, 0, 33, 0
2, 70549, Note_on_c, 0, 61, 0
2, 70572, Control_c, 0, 64, 0
2, 70575, Note_on_c, 0, 33, 31
2, 70579, Note_on_c, 0, 45, 0
2, 70586, Control_c, 0, 64, 127
2, 70641, Note_on_c, 0, 66, 32
2, 70641, Note_on_c, 0, 62, 36
2, 70642, Note_on_c, 0, 57, 31
2, 70644, Note_on_c, 0, 45, 35
2, 70648, Control_c, 0, 64, 0
2, 70676, Control_c, 0, 64, 127
2, 70707, Note_on_c, 0, 45, 0
2, 70750, Note_on_c, 0, 45, 38
2, 70774, Note_on_c, 0, 45, 0
2, 70809, Note_on_c, 0, 45, 29
2, 70828, Note_on_c, 0, 45, 0
2, 70864, Note_on_c, 0, 57, 0
2, 70865, Note_on_c, 0, 62, 0
2, 70865, Note_on_c, 0, 45, 29
2, 70871, Note_on_c, 0, 66, 0
2, 70880, Note_on_c, 0, 45, 0
2, 70924, Note_on_c, 0, 65, 36
2, 70924, Note_on_c, 0, 61, 31
2, 70925, Note_on_c, 0, 45, 30
2, 70925, Note_on_c, 0, 56, 23
2, 70932, Control_c, 0, 64, 0
2, 70949, Note_on_c, 0, 45, 0
2, 70969, Control_c, 0, 64, 127
2, 70984, Note_on_c, 0, 45, 24
2, 70999, Note_on_c, 0, 45, 0
2, 71042, Note_on_c, 0, 45, 24
2, 71062, Note_on_c, 0, 45, 0
2, 71104, Note_on_c, 0, 45, 27
2, 71111, Note_on_c, 0, 65, 0
2, 71119, Note_on_c, 0, 45, 0
2, 71121, Note_on_c, 0, 56, 0
2, 71131, Note_on_c, 0, 61, 0
2, 71159, Note_on_c, 0, 45, 23
2, 71170, Note_on_c, 0, 45, 0
2, 71213, Note_on_c, 0, 45, 26
2, 71225, Note_on_c, 0, 45, 0
2, 71265, Control_c, 0, 64, 0
2, 71268, Note_on_c, 0, 64, 26
2, 71270, Note_on_c, 0, 55, 21
2, 71270, Note_on_c, 0, 45, 25
2, 71273, Note_on_c, 0, 60, 25
2, 71281, Note_on_c, 0, 33, 0
2, 71290, Control_c, 0, 64, 127
2, 71325, Note_on_c, 0, 33, 28
2, 71349, Note_on_c, 0, 33, 0
2, 71362, Note_on_c, 0, 45, 0
2, 71373, Note_on_c, 0, 33, 13
2, 71389, Note_on_c, 0, 45, 24
2, 71404, Note_on_c, 0, 45, 0
2, 71451, Note_on_c, 0, 45, 23
2, 71469, Note_on_c, 0, 45, 0
2, 71517, Note_on_c, 0, 45, 23
2, 71530, Note_on_c, 0, 45, 0
2, 71563, Note_on_c, 0, 55, 0
2, 71568, Note_on_c, 0, 64, 0
2, 71580, Note_on_c, 0, 60, 0
2, 71582, Note_on_c, 0, 45, 21
2, 71598, Note_on_c, 0, 45, 0
2, 71646, Note_on_c, 0, 63, 21
2, 71646, Note_on_c, 0, 54, 21
2, 71648, Note_on_c, 0, 59, 28
2, 71649, Note_on_c, 0, 45, 22
2, 71662, Control_c, 0, 64, 0
2, 71681, Note_on_c, 0, 45, 0
2, 71701, Control_c, 0, 64, 127
2, 71787, Note_on_c, 0, 45, 14
2, 71802, Note_on_c, 0, 45, 0
2, 71861, Note_on_c, 0, 54, 0
2, 71862, Note_on_c, 0, 59, 0
2, 71889, Note_on_c, 0, 63, 0
2, 71914, Note_on_c, 0, 53, 16
2, 71914, Note_on_c, 0, 58, 16
2, 71914, Note_on_c, 0, 62, 18
2, 71916, Note_on_c, 0, 45, 14
2, 71925, Control_c, 0, 64, 0
2, 71940, Control_c, 0, 64, 127
2, 71960, Note_on_c, 0, 33, 0
2, 71989, Note_on_c, 0, 62, 0
2, 71990, Note_on_c, 0, 53, 0
2, 71999, Note_on_c, 0, 45, 0
2, 72006, Note_on_c, 0, 58, 0
2, 72021, Note_on_c, 0, 62, 18
2, 72024, Note_on_c, 0, 33, 15
2, 72024, Control_c, 0, 64, 0
2, 72024, Note_on_c, 0, 45, 13
2, 72026, Note_on_c, 0, 57, 16
2, 72055, Control_c, 0, 64, 127
2, 72078, Note_on_c, 0, 57, 0
2, 72082, Note_on_c, 0, 62, 0
2, 72101, Note_on_c, 0, 33, 0
2, 72112, Note_on_c, 0, 45, 0
2, 72288, Control_c, 0, 64, 0
2, 72288, End_track
3, 0, Start_track
3, 0, Title_t, "Acoustic or Fretless Bass"
3, 0, Program_c, 1, 32
3, 0, Control_c, 1, 7, 127
3, 17, Note_on_c, 1, 38, 80
3, 98, Note_on_c, 1, 45, 74
3, 183, Note_on_c, 1, 45, 0
3, 198, Note_on_c, 1, 45, 76
3, 276, Note_on_c, 1, 45, 0
3, 290, Note_on_c, 1, 45, 74
3, 319, Note_on_c, 1, 45, 0
3, 335, Note_on_c, 1, 45, 70
3, 349, Note_on_c, 1, 38, 0
3, 359, Note_on_c, 1, 38, 80
3, 363, Note_on_c, 1, 45, 0
3, 453, Note_on_c, 1, 45, 70
3, 532, Note_on_c, 1, 45, 0
3, 546, Note_on_c, 1, 45, 73
3, 609, Note_on_c, 1, 57, 96
3, 642, Note_on_c, 1, 45, 0
3, 661, Note_on_c, 1, 45, 70
3, 689, Note_on_c, 1, 38, 0
3, 719, Note_on_c, 1, 57, 0
3, 721, Note_on_c, 1, 45, 0
3, 724, Note_on_c, 1, 38, 82
3, 807, Note_on_c, 1, 45, 74
3, 890, Note_on_c, 1, 45, 0
3, 904, Note_on_c, 1, 45, 70
3, 967, Note_on_c, 1, 52, 99
3, 993, Note_on_c, 1, 45, 0
3, 1024, Note_on_c, 1, 45, 70
3, 1050, Note_on_c, 1, 38, 0
3, 1086, Note_on_c, 1, 38, 81
3, 1088, Note_on_c, 1, 45, 0
3, 1179, Note_on_c, 1, 45, 72
3, 1202, Note_on_c, 1, 45, 0
3, 1271, Note_on_c, 1, 45, 84
3, 1316, Note_on_c, 1, 52, 0
3, 1336, Note_on_c, 1, 54, 75
3, 1365, Note_on_c, 1, 45, 0
3, 1388, Note_on_c, 1, 38, 0
3, 1388, Note_on_c, 1, 45, 71
3, 1448, Note_on_c, 1, 38, 89
3, 1455, Note_on_c, 1, 54, 0
3, 1462, Note_on_c, 1, 45, 0
3, 1532, Note_on_c, 1, 45, 76
3, 1622, Note_on_c, 1, 45, 0
3, 1632, Note_on_c, 1, 45, 90
3, 1694, Note_on_c, 1, 52, 108
3, 1716, Note_on_c, 1, 45, 0
3, 1746, Note_on_c, 1, 45, 70
3, 1775, Note_on_c, 1, 38, 0
3, 1803, Note_on_c, 1, 45, 0
3, 1808, Note_on_c, 1, 38, 83
3, 1888, Note_on_c, 1, 52, 0
3, 1896, Note_on_c, 1, 53, 85
3, 1985, Note_on_c, 1, 45, 70
3, 2003, Note_on_c, 1, 45, 0
3, 2050, Note_on_c, 1, 45, 81
3, 2081, Note_on_c, 1, 38, 0
3, 2106, Note_on_c, 1, 38, 79
3, 2143, Note_on_c, 1, 38, 0
3, 2162, Note_on_c, 1, 45, 0
3, 2166, Note_on_c, 1, 38, 89
3, 2183, Note_on_c, 1, 53, 0
3, 2250, Note_on_c, 1, 52, 85
3, 2339, Note_on_c, 1, 45, 70
3, 2353, Note_on_c, 1, 45, 0
3, 2406, Note_on_c, 1, 45, 70
3, 2414, Note_on_c, 1, 45, 0
3, 2458, Note_on_c, 1, 45, 70
3, 2487, Note_on_c, 1, 38, 0
3, 2511, Note_on_c, 1, 45, 0
3, 2517, Note_on_c, 1, 38, 76
3, 2607, Note_on_c, 1, 52, 0
3, 2610, Note_on_c, 1, 57, 71
3, 2699, Note_on_c, 1, 45, 70
3, 2717, Note_on_c, 1, 45, 0
3, 2767, Note_on_c, 1, 49, 70
3, 2810, Note_on_c, 1, 57, 0
3, 2823, Note_on_c, 1, 45, 70
3, 2847, Note_on_c, 1, 38, 0
3, 2869, Note_on_c, 1, 49, 0
3, 2880, Note_on_c, 1, 45, 0
3, 2884, Note_on_c, 1, 38, 81
3, 2971, Note_on_c, 1, 54, 71
3, 3065, Note_on_c, 1, 45, 70
3, 3073, Note_on_c, 1, 45, 0
3, 3124, Note_on_c, 1, 45, 71
3, 3125, Note_on_c, 1, 38, 0
3, 3182, Note_on_c, 1, 37, 70
3, 3197, Note_on_c, 1, 45, 0
3, 3224, Note_on_c, 1, 37, 0
3, 3245, Note_on_c, 1, 35, 70
3, 3246, Note_on_c, 1, 54, 0
3, 3246, Note_on_c, 1, 36, 70
3, 3291, Note_on_c, 1, 36, 0
3, 3331, Note_on_c, 1, 50, 78
3, 3493, Note_on_c, 1, 42, 77
3, 3505, Note_on_c, 1, 35, 0
3, 3551, Note_on_c, 1, 35, 70
3, 3562, Note_on_c, 1, 50, 0
3, 3590, Note_on_c, 1, 42, 0
3, 3613, Note_on_c, 1, 40, 77
3, 3615, Note_on_c, 1, 35, 0
3, 3699, Note_on_c, 1, 56, 70
3, 3849, Note_on_c, 1, 53, 70
3, 3853, Note_on_c, 1, 56, 0
3, 3910, Note_on_c, 1, 47, 70
3, 3933, Note_on_c, 1, 40, 0
3, 3960, Note_on_c, 1, 47, 0
3, 3969, Note_on_c, 1, 40, 77
3, 4045, Note_on_c, 1, 53, 0
3, 4054, Note_on_c, 1, 52, 70
3, 4148, Note_on_c, 1, 47, 80
3, 4229, Note_on_c, 1, 40, 0
3, 4257, Note_on_c, 1, 40, 70
3, 4293, Note_on_c, 1, 47, 0
3, 4309, Note_on_c, 1, 40, 0
3, 4319, Note_on_c, 1, 45, 80
3, 4320, Note_on_c, 1, 52, 0
3, 4406, Note_on_c, 1, 57, 70
3, 4478, Note_on_c, 1, 57, 0
3, 4497, Note_on_c, 1, 57, 70
3, 4544, Note_on_c, 1, 57, 0
3, 4562, Note_on_c, 1, 57, 70
3, 4591, Note_on_c, 1, 45, 0
3, 4622, Note_on_c, 1, 45, 70
3, 4644, Note_on_c, 1, 45, 0
3, 4681, Note_on_c, 1, 45, 70
3, 4746, Note_on_c, 1, 57, 0
3, 4766, Note_on_c, 1, 45, 0
3, 4773, Note_on_c, 1, 57, 70
3, 4841, Control_c, 1, 1, 3
3, 4843, Control_c, 1, 1, 5
3, 4844, Control_c, 1, 1, 6
3, 4845, Control_c, 1, 1, 7
3, 4846, Control_c, 1, 1, 9
3, 4846, Control_c, 1, 1, 10
3, 4847, Control_c, 1, 1, 11
3, 4848, Control_c, 1, 1, 13
3, 4849, Control_c, 1, 1, 14
3, 4849, Control_c, 1, 1, 16
3, 4850, Control_c, 1, 1, 17
3, 4851, Control_c, 1, 1, 18
3, 4851, Control_c, 1, 1, 20
3, 4852, Control_c, 1, 1, 21
3, 4854, Control_c, 1, 1, 23
3, 4903, Pitch_bend_c, 1, 8192
3, 4903, Pitch_bend_c, 1, 8192
3, 4906, Pitch_bend_c, 1, 8842
3, 4908, Pitch_bend_c, 1, 9232
3, 4909, Pitch_bend_c, 1, 9622
3, 4910, Pitch_bend_c, 1, 9882
3, 4912, Pitch_bend_c, 1, 10272
3, 4913, Pitch_bend_c, 1, 10662
3, 4915, Pitch_bend_c, 1, 10922
3, 4916, Pitch_bend_c, 1, 11052
3, 4918, Pitch_bend_c, 1, 11442
3, 4920, Pitch_bend_c, 1, 11572
3, 4927, Pitch_bend_c, 1, 11312
3, 4928, Pitch_bend_c, 1, 10922
3, 4930, Pitch_bend_c, 1, 10792
3, 4931, Pitch_bend_c, 1, 10272
3, 4933, Pitch_bend_c, 1, 9882
3, 4934, Pitch_bend_c, 1, 9362
3, 4935, Pitch_bend_c, 1, 8842
3, 4937, Pitch_bend_c, 1, 8192
3, 4938, Pitch_bend_c, 1, 8192
3, 4947, Pitch_bend_c, 1, 8192
3, 4947, Pitch_bend_c, 1, 8192
3, 4950, Pitch_bend_c, 1, 8192
3, 4953, Pitch_bend_c, 1, 7680
3, 4957, Pitch_bend_c, 1, 8192
3, 4958, Pitch_bend_c, 1, 8192
3, 4960, Pitch_bend_c, 1, 8192
3, 4961, Pitch_bend_c, 1, 8192
3, 5045, Note_on_c, 1, 57, 0
3, 5053, Note_on_c, 1, 57, 70
3, 5208, Note_on_c, 1, 57, 0
3, 5225, Note_on_c, 1, 57, 70
3, 5286, Note_on_c, 1, 45, 70
3, 5304, Note_on_c, 1, 45, 0
3, 5340, Note_on_c, 1, 45, 80
3, 5385, Note_on_c, 1, 45, 0
3, 5399, Note_on_c, 1, 45, 83
3, 5407, Note_on_c, 1, 57, 0
3, 5486, Note_on_c, 1, 57, 71
3, 5554, Note_on_c, 1, 45, 0
3, 5572, Note_on_c, 1, 45, 70
3, 5586, Note_on_c, 1, 45, 0
3, 5633, Note_on_c, 1, 45, 70
3, 5646, Note_on_c, 1, 45, 0
3, 5691, Note_on_c, 1, 45, 70
3, 5726, Note_on_c, 1, 57, 0
3, 5732, Note_on_c, 1, 45, 0
3, 5750, Note_on_c, 1, 38, 73
3, 5839, Note_on_c, 1, 45, 70
3, 5941, Note_on_c, 1, 52, 77
3, 6029, Note_on_c, 1, 45, 0
3, 6057, Note_on_c, 1, 45, 70
3, 6083, Note_on_c, 1, 38, 0
3, 6116, Note_on_c, 1, 45, 0
3, 6119, Note_on_c, 1, 38, 74
3, 6212, Note_on_c, 1, 45, 76
3, 6219, Note_on_c, 1, 52, 0
3, 6309, Note_on_c, 1, 54, 78
3, 6381, Note_on_c, 1, 45, 0
3, 6421, Note_on_c, 1, 45, 70
3, 6443, Note_on_c, 1, 38, 0
3, 6478, Note_on_c, 1, 54, 0
3, 6479, Note_on_c, 1, 45, 0
3, 6484, Note_on_c, 1, 38, 79
3, 6572, Note_on_c, 1, 45, 75
3, 6670, Note_on_c, 1, 52, 70
3, 6754, Note_on_c, 1, 45, 0
3, 6784, Note_on_c, 1, 45, 70
3, 6806, Note_on_c, 1, 38, 0
3, 6843, Note_on_c, 1, 45, 0
3, 6845, Note_on_c, 1, 52, 0
3, 6846, Note_on_c, 1, 38, 80
3, 6928, Note_on_c, 1, 45, 79
3, 7022, Note_on_c, 1, 49, 74
3, 7084, Note_on_c, 1, 45, 0
3, 7139, Note_on_c, 1, 45, 74
3, 7159, Note_on_c, 1, 38, 0
3, 7194, Note_on_c, 1, 45, 0
3, 7198, Note_on_c, 1, 49, 0
3, 7200, Note_on_c, 1, 38, 85
3, 7287, Note_on_c, 1, 45, 88
3, 7385, Note_on_c, 1, 54, 85
3, 7455, Note_on_c, 1, 45, 0
3, 7483, Note_on_c, 1, 45, 70
3, 7492, Note_on_c, 1, 45, 0
3, 7511, Note_on_c, 1, 45, 73
3, 7539, Note_on_c, 1, 38, 0
3, 7565, Note_on_c, 1, 45, 0
3, 7567, Note_on_c, 1, 38, 81
3, 7647, Note_on_c, 1, 45, 81
3, 7721, Note_on_c, 1, 54, 0
3, 7741, Note_on_c, 1, 53, 94
3, 7810, Note_on_c, 1, 45, 0
3, 7854, Note_on_c, 1, 45, 70
3, 7876, Note_on_c, 1, 38, 0
3, 7899, Note_on_c, 1, 45, 0
3, 7915, Note_on_c, 1, 38, 82
3, 7994, Note_on_c, 1, 53, 0
3, 8001, Note_on_c, 1, 52, 82
3, 8071, Note_on_c, 1, 38, 0
3, 8098, Note_on_c, 1, 45, 79
3, 8143, Note_on_c, 1, 45, 0
3, 8159, Note_on_c, 1, 45, 71
3, 8199, Note_on_c, 1, 45, 0
3, 8215, Note_on_c, 1, 38, 76
3, 8263, Note_on_c, 1, 38, 0
3, 8276, Note_on_c, 1, 38, 77
3, 8357, Note_on_c, 1, 49, 77
3, 8365, Note_on_c, 1, 52, 0
3, 8466, Note_on_c, 1, 45, 80
3, 8508, Note_on_c, 1, 45, 0
3, 8523, Note_on_c, 1, 45, 71
3, 8561, Note_on_c, 1, 38, 0
3, 8575, Note_on_c, 1, 38, 73
3, 8617, Note_on_c, 1, 38, 0
3, 8631, Note_on_c, 1, 49, 0
3, 8636, Note_on_c, 1, 38, 74
3, 8637, Note_on_c, 1, 45, 0
3, 8717, Note_on_c, 1, 54, 74
3, 8816, Note_on_c, 1, 45, 70
3, 8833, Note_on_c, 1, 45, 0
3, 8884, Note_on_c, 1, 45, 70
3, 8907, Note_on_c, 1, 38, 0
3, 8930, Note_on_c, 1, 45, 0
3, 8938, Note_on_c, 1, 38, 79
3, 8954, Note_on_c, 1, 38, 0
3, 8994, Note_on_c, 1, 35, 74
3, 9086, Note_on_c, 1, 50, 70
3, 9180, Note_on_c, 1, 42, 82
3, 9196, Note_on_c, 1, 35, 0
3, 9211, Note_on_c, 1, 50, 0
3, 9244, Note_on_c, 1, 50, 70
3, 9266, Note_on_c, 1, 50, 0
3, 9295, Note_on_c, 1, 39, 70
3, 9300, Note_on_c, 1, 42, 0
3, 9345, Note_on_c, 1, 39, 0
3, 9356, Note_on_c, 1, 40, 75
3, 9365, Note_on_c, 1, 54, 0
3, 9440, Note_on_c, 1, 56, 70
3, 9543, Note_on_c, 1, 47, 70
3, 9576, Note_on_c, 1, 47, 0
3, 9653, Note_on_c, 1, 53, 74
3, 9698, Note_on_c, 1, 53, 0
3, 9715, Note_on_c, 1, 52, 70
3, 9794, Note_on_c, 1, 40, 0
3, 9803, Note_on_c, 1, 40, 70
3, 9816, Note_on_c, 1, 56, 0
3, 9884, Note_on_c, 1, 40, 0
3, 9894, Note_on_c, 1, 40, 70
3, 9976, Note_on_c, 1, 40, 0
3, 9999, Note_on_c, 1, 40, 70
3, 10050, Note_on_c, 1, 52, 0
3, 10065, Note_on_c, 1, 40, 0
3, 10067, Note_on_c, 1, 45, 70
3, 10153, Note_on_c, 1, 57, 70
3, 10164, Note_on_c, 1, 57, 0
3, 10183, Note_on_c, 1, 57, 70
3, 10199, Note_on_c, 1, 57, 0
3, 10249, Note_on_c, 1, 57, 70
3, 10266, Note_on_c, 1, 57, 0
3, 10309, Note_on_c, 1, 57, 70
3, 10332, Note_on_c, 1, 45, 0
3, 10370, Note_on_c, 1, 45, 70
3, 10397, Note_on_c, 1, 45, 0
3, 10434, Note_on_c, 1, 45, 85
3, 10462, Note_on_c, 1, 57, 0
3, 10537, Note_on_c, 1, 56, 70
3, 10546, Note_on_c, 1, 56, 0
3, 10627, Note_on_c, 1, 56, 70
3, 10641, Note_on_c, 1, 56, 0
3, 10687, Note_on_c, 1, 57, 84
3, 10705, Note_on_c, 1, 45, 0
3, 10741, Note_on_c, 1, 45, 70
3, 10764, Note_on_c, 1, 45, 0
3, 10804, Note_on_c, 1, 45, 89
3, 10820, Note_on_c, 1, 57, 0
3, 10899, Note_on_c, 1, 57, 70
3, 10908, Note_on_c, 1, 57, 0
3, 10923, Note_on_c, 1, 57, 70
3, 10934, Note_on_c, 1, 57, 0
3, 10979, Note_on_c, 1, 57, 77
3, 10993, Note_on_c, 1, 57, 0
3, 11035, Note_on_c, 1, 57, 87
3, 11070, Note_on_c, 1, 45, 0
3, 11098, Note_on_c, 1, 45, 70
3, 11106, Note_on_c, 1, 45, 0
3, 11156, Note_on_c, 1, 45, 89
3, 11267, Note_on_c, 1, 45, 0
3, 11274, Note_on_c, 1, 44, 83
3, 11284, Note_on_c, 1, 57, 0
3, 11393, Note_on_c, 1, 60, 78
3, 11410, Note_on_c, 1, 44, 0
3, 11445, Note_on_c, 1, 60, 0
3, 11455, Note_on_c, 1, 44, 70
3, 11509, Note_on_c, 1, 44, 0
3, 11514, Note_on_c, 1, 43, 88
3, 11610, Note_on_c, 1, 55, 73
3, 11698, Note_on_c, 1, 38, 70
3, 11717, Note_on_c, 1, 38, 0
3, 11762, Note_on_c, 1, 31, 70
3, 11783, Note_on_c, 1, 31, 0
3, 11816, Note_on_c, 1, 31, 70
3, 11855, Note_on_c, 1, 43, 0
3, 11877, Note_on_c, 1, 43, 95
3, 11957, Note_on_c, 1, 43, 0
3, 11968, Note_on_c, 1, 43, 85
3, 12047, Note_on_c, 1, 43, 0
3, 12058, Note_on_c, 1, 43, 80
3, 12163, Note_on_c, 1, 31, 0
3, 12167, Note_on_c, 1, 38, 70
3, 12210, Note_on_c, 1, 38, 0
3, 12220, Note_on_c, 1, 43, 0
3, 12234, Note_on_c, 1, 36, 85
3, 12358, Note_on_c, 1, 44, 78
3, 12542, Note_on_c, 1, 50, 70
3, 12546, Note_on_c, 1, 48, 70
3, 12554, Note_on_c, 1, 48, 0
3, 12577, Note_on_c, 1, 50, 0
3, 12601, Note_on_c, 1, 48, 76
3, 12603, Note_on_c, 1, 44, 0
3, 12687, Note_on_c, 1, 43, 70
3, 12697, Note_on_c, 1, 36, 0
3, 12701, Note_on_c, 1, 48, 0
3, 12706, Note_on_c, 1, 43, 0
3, 12719, Note_on_c, 1, 43, 80
3, 12834, Note_on_c, 1, 36, 70
3, 12936, Note_on_c, 1, 36, 0
3, 12938, Note_on_c, 1, 43, 0
3, 12968, Note_on_c, 1, 49, 85
3, 13143, Note_on_c, 1, 37, 70
3, 13191, Note_on_c, 1, 49, 0
3, 13205, Note_on_c, 1, 37, 0
3, 13205, Note_on_c, 1, 48, 81
3, 13258, Note_on_c, 1, 36, 70
3, 13307, Note_on_c, 1, 48, 0
3, 13317, Note_on_c, 1, 36, 0
3, 13320, Note_on_c, 1, 47, 81
3, 13496, Note_on_c, 1, 35, 73
3, 13541, Note_on_c, 1, 35, 0
3, 13550, Note_on_c, 1, 35, 70
3, 13601, Note_on_c, 1, 35, 0
3, 13615, Note_on_c, 1, 35, 70
3, 13651, Note_on_c, 1, 47, 0
3, 13652, Note_on_c, 1, 35, 0
3, 13677, Note_on_c, 1, 46, 82
3, 13700, Note_on_c, 1, 55, 0
3, 13861, Note_on_c, 1, 41, 70
3, 13964, Note_on_c, 1, 41, 0
3, 13971, Note_on_c, 1, 34, 70
3, 14022, Note_on_c, 1, 46, 0
3, 14032, Note_on_c, 1, 34, 0
3, 14033, Note_on_c, 1, 33, 77
3, 14161, Note_on_c, 1, 45, 95
3, 14272, Note_on_c, 1, 33, 0
3, 14277, Note_on_c, 1, 45, 0
3, 14280, Note_on_c, 1, 37, 77
3, 14391, Note_on_c, 1, 37, 0
3, 14405, Note_on_c, 1, 38, 79
3, 14490, Note_on_c, 1, 45, 70
3, 14592, Note_on_c, 1, 52, 70
3, 14605, Note_on_c, 1, 52, 0
3, 14649, Note_on_c, 1, 52, 70
3, 14653, Note_on_c, 1, 45, 0
3, 14705, Note_on_c, 1, 45, 70
3, 14715, Note_on_c, 1, 52, 0
3, 14722, Note_on_c, 1, 38, 0
3, 14759, Note_on_c, 1, 45, 0
3, 14764, Note_on_c, 1, 38, 77
3, 14854, Note_on_c, 1, 54, 70
3, 14905, Note_on_c, 1, 38, 0
3, 14950, Note_on_c, 1, 37, 70
3, 14992, Note_on_c, 1, 37, 0
3, 15011, Note_on_c, 1, 35, 71
3, 15020, Note_on_c, 1, 54, 0
3, 15105, Note_on_c, 1, 35, 0
3, 15121, Note_on_c, 1, 35, 74
3, 15213, Note_on_c, 1, 52, 70
3, 15375, Note_on_c, 1, 40, 76
3, 15385, Note_on_c, 1, 35, 0
3, 15480, Note_on_c, 1, 52, 0
3, 15489, Note_on_c, 1, 56, 70
3, 15552, Note_on_c, 1, 52, 70
3, 15664, Note_on_c, 1, 47, 70
3, 15672, Note_on_c, 1, 52, 0
3, 15701, Note_on_c, 1, 40, 0
3, 15766, Note_on_c, 1, 47, 0
3, 15780, Note_on_c, 1, 44, 70
3, 15823, Note_on_c, 1, 44, 0
3, 15840, Note_on_c, 1, 45, 70
3, 15847, Note_on_c, 1, 56, 0
3, 15899, Note_on_c, 1, 57, 70
3, 15908, Note_on_c, 1, 57, 0
3, 15924, Note_on_c, 1, 57, 70
3, 15939, Note_on_c, 1, 57, 0
3, 15953, Note_on_c, 1, 57, 70
3, 15966, Note_on_c, 1, 57, 0
3, 16012, Note_on_c, 1, 57, 70
3, 16023, Note_on_c, 1, 57, 0
3, 16068, Note_on_c, 1, 57, 70
3, 16090, Note_on_c, 1, 45, 0
3, 16131, Note_on_c, 1, 45, 70
3, 16150, Note_on_c, 1, 45, 0
3, 16194, Note_on_c, 1, 45, 78
3, 16206, Note_on_c, 1, 57, 0
3, 16311, Note_on_c, 1, 57, 70
3, 16325, Note_on_c, 1, 57, 0
3, 16375, Note_on_c, 1, 57, 71
3, 16457, Note_on_c, 1, 45, 0
3, 16495, Note_on_c, 1, 45, 70
3, 16516, Note_on_c, 1, 45, 0
3, 16557, Note_on_c, 1, 45, 87
3, 16570, Note_on_c, 1, 57, 0
3, 16649, Note_on_c, 1, 57, 70
3, 16708, Note_on_c, 1, 57, 0
3, 16744, Note_on_c, 1, 57, 70
3, 16818, Note_on_c, 1, 57, 0
3, 16837, Note_on_c, 1, 57, 70
3, 16847, Note_on_c, 1, 57, 0
3, 16862, Note_on_c, 1, 57, 70
3, 16880, Note_on_c, 1, 57, 0
3, 16895, Note_on_c, 1, 45, 0
3, 16920, Note_on_c, 1, 45, 77
3, 17006, Note_on_c, 1, 57, 70
3, 17015, Note_on_c, 1, 57, 0
3, 17076, Note_on_c, 1, 44, 70
3, 17095, Note_on_c, 1, 57, 70
3, 17109, Note_on_c, 1, 44, 0
3, 17138, Note_on_c, 1, 45, 0
3, 17158, Note_on_c, 1, 45, 70
3, 17214, Note_on_c, 1, 39, 70
3, 17219, Note_on_c, 1, 45, 0
3, 17224, Note_on_c, 1, 57, 0
3, 17264, Note_on_c, 1, 39, 0
3, 17279, Note_on_c, 1, 38, 70
3, 17366, Note_on_c, 1, 45, 70
3, 17460, Note_on_c, 1, 54, 72
3, 17540, Note_on_c, 1, 45, 0
3, 17561, Note_on_c, 1, 45, 70
3, 17570, Note_on_c, 1, 45, 0
3, 17580, Note_on_c, 1, 45, 70
3, 17625, Note_on_c, 1, 38, 0
3, 17631, Note_on_c, 1, 45, 0
3, 17640, Note_on_c, 1, 38, 70
3, 17707, Note_on_c, 1, 54, 0
3, 17730, Note_on_c, 1, 52, 70
3, 17820, Note_on_c, 1, 57, 73
3, 17824, Note_on_c, 1, 52, 0
3, 17912, Note_on_c, 1, 57, 0
3, 17940, Note_on_c, 1, 49, 70
3, 17970, Note_on_c, 1, 45, 70
3, 17978, Note_on_c, 1, 38, 0
3, 17997, Note_on_c, 1, 45, 0
3, 18001, Note_on_c, 1, 38, 70
3, 18015, Note_on_c, 1, 49, 0
3, 18085, Note_on_c, 1, 50, 70
3, 18176, Note_on_c, 1, 50, 0
3, 18191, Note_on_c, 1, 54, 70
3, 18282, Note_on_c, 1, 45, 70
3, 18291, Note_on_c, 1, 45, 0
3, 18312, Note_on_c, 1, 45, 70
3, 18340, Note_on_c, 1, 38, 0
3, 18359, Note_on_c, 1, 45, 0
3, 18363, Note_on_c, 1, 38, 70
3, 18447, Note_on_c, 1, 45, 70
3, 18461, Note_on_c, 1, 54, 0
3, 18470, Note_on_c, 1, 45, 0
3, 18479, Note_on_c, 1, 52, 70
3, 18568, Note_on_c, 1, 49, 75
3, 18574, Note_on_c, 1, 52, 0
3, 18668, Note_on_c, 1, 45, 70
3, 18686, Note_on_c, 1, 38, 0
3, 18705, Note_on_c, 1, 45, 0
3, 18729, Note_on_c, 1, 38, 74
3, 18733, Note_on_c, 1, 49, 0
3, 18807, Note_on_c, 1, 45, 70
3, 18910, Note_on_c, 1, 54, 77
3, 18970, Note_on_c, 1, 45, 0
3, 19023, Note_on_c, 1, 45, 70
3, 19045, Note_on_c, 1, 38, 0
3, 19072, Note_on_c, 1, 45, 0
3, 19080, Note_on_c, 1, 38, 74
3, 19086, Note_on_c, 1, 54, 0
3, 19170, Note_on_c, 1, 47, 70
3, 19260, Note_on_c, 1, 53, 95
3, 19347, Note_on_c, 1, 47, 0
3, 19380, Note_on_c, 1, 47, 70
3, 19403, Note_on_c, 1, 38, 0
3, 19425, Note_on_c, 1, 47, 0
3, 19431, Note_on_c, 1, 53, 0
3, 19440, Note_on_c, 1, 38, 76
3, 19530, Note_on_c, 1, 45, 74
3, 19627, Note_on_c, 1, 52, 89
3, 19690, Note_on_c, 1, 45, 0
3, 19742, Note_on_c, 1, 45, 70
3, 19762, Note_on_c, 1, 38, 0
3, 19796, Note_on_c, 1, 45, 0
3, 19806, Note_on_c, 1, 38, 71
3, 19876, Note_on_c, 1, 52, 0
3, 19892, Note_on_c, 1, 45, 80
3, 19988, Note_on_c, 1, 51, 75
3, 20043, Note_on_c, 1, 45, 0
3, 20104, Note_on_c, 1, 45, 70
3, 20119, Note_on_c, 1, 38, 0
3, 20151, Note_on_c, 1, 45, 0
3, 20159, Note_on_c, 1, 51, 0
3, 20164, Note_on_c, 1, 38, 80
3, 20251, Note_on_c, 1, 54, 81
3, 20346, Note_on_c, 1, 45, 70
3, 20399, Note_on_c, 1, 54, 0
3, 20410, Note_on_c, 1, 57, 70
3, 20422, Note_on_c, 1, 45, 0
3, 20449, Note_on_c, 1, 57, 0
3, 20464, Note_on_c, 1, 45, 70
3, 20485, Note_on_c, 1, 38, 0
3, 20513, Note_on_c, 1, 45, 0
3, 20518, Note_on_c, 1, 38, 72
3, 20606, Note_on_c, 1, 50, 72
3, 20704, Note_on_c, 1, 47, 70
3, 20751, Note_on_c, 1, 38, 0
3, 20763, Note_on_c, 1, 47, 0
3, 20770, Note_on_c, 1, 46, 70
3, 20824, Note_on_c, 1, 47, 76
3, 20827, Note_on_c, 1, 50, 0
3, 20834, Note_on_c, 1, 46, 0
3, 20880, Note_on_c, 1, 52, 75
3, 20938, Note_on_c, 1, 47, 0
3, 20969, Note_on_c, 1, 52, 0
3, 20970, Note_on_c, 1, 40, 74
3, 21060, Note_on_c, 1, 47, 70
3, 21081, Note_on_c, 1, 47, 0
3, 21120, Note_on_c, 1, 47, 70
3, 21120, Note_on_c, 1, 56, 70
3, 21138, Note_on_c, 1, 47, 0
3, 21180, Note_on_c, 1, 47, 70
3, 21204, Note_on_c, 1, 40, 0
3, 21227, Note_on_c, 1, 47, 0
3, 21240, Note_on_c, 1, 40, 70
3, 21312, Note_on_c, 1, 56, 0
3, 21330, Note_on_c, 1, 47, 70
3, 21420, Note_on_c, 1, 53, 74
3, 21492, Note_on_c, 1, 47, 0
3, 21540, Note_on_c, 1, 47, 70
3, 21546, Note_on_c, 1, 40, 0
3, 21585, Note_on_c, 1, 53, 0
3, 21586, Note_on_c, 1, 47, 0
3, 21600, Note_on_c, 1, 45, 70
3, 21690, Note_on_c, 1, 57, 70
3, 21699, Note_on_c, 1, 57, 0
3, 21720, Note_on_c, 1, 57, 70
3, 21734, Note_on_c, 1, 57, 0
3, 21780, Note_on_c, 1, 57, 70
3, 21791, Note_on_c, 1, 57, 0
3, 21840, Note_on_c, 1, 57, 70
3, 21865, Note_on_c, 1, 45, 0
3, 21900, Note_on_c, 1, 45, 70
3, 21925, Note_on_c, 1, 45, 0
3, 21958, Note_on_c, 1, 45, 92
3, 21965, Note_on_c, 1, 57, 0
3, 22050, Note_on_c, 1, 57, 70
3, 22072, Note_on_c, 1, 57, 0
3, 22119, Note_on_c, 1, 57, 70
3, 22137, Note_on_c, 1, 57, 0
3, 22175, Note_on_c, 1, 56, 70
3, 22189, Note_on_c, 1, 56, 0
3, 22202, Note_on_c, 1, 57, 70
3, 22225, Note_on_c, 1, 45, 0
3, 22259, Note_on_c, 1, 45, 81
3, 22284, Note_on_c, 1, 45, 0
3, 22321, Note_on_c, 1, 45, 95
3, 22327, Note_on_c, 1, 57, 0
3, 22412, Note_on_c, 1, 57, 70
3, 22420, Note_on_c, 1, 57, 0
3, 22436, Note_on_c, 1, 57, 70
3, 22492, Note_on_c, 1, 57, 0
3, 22498, Note_on_c, 1, 56, 70
3, 22558, Note_on_c, 1, 57, 70
3, 22566, Note_on_c, 1, 56, 0
3, 22591, Note_on_c, 1, 45, 0
3, 22618, Note_on_c, 1, 45, 81
3, 22655, Note_on_c, 1, 45, 0
3, 22661, Note_on_c, 1, 45, 84
3, 22673, Note_on_c, 1, 57, 0
3, 22791, Note_on_c, 1, 57, 84
3, 22819, Note_on_c, 1, 45, 0
3, 22851, Note_on_c, 1, 45, 70
3, 22896, Note_on_c, 1, 45, 0
3, 22909, Note_on_c, 1, 57, 0
3, 22914, Note_on_c, 1, 39, 70
3, 23019, Note_on_c, 1, 39, 0
3, 23041, Note_on_c, 1, 38, 70
3, 23047, Note_on_c, 1, 38, 84
3, 23103, Note_on_c, 1, 38, 0
3, 23133, Note_on_c, 1, 45, 77
3, 23232, Note_on_c, 1, 54, 85
3, 23300, Note_on_c, 1, 45, 0
3, 23330, Note_on_c, 1, 45, 79
3, 23345, Note_on_c, 1, 38, 0
3, 23353, Note_on_c, 1, 54, 0
3, 23396, Note_on_c, 1, 38, 83
3, 23403, Note_on_c, 1, 45, 0
3, 23485, Note_on_c, 1, 45, 82
3, 23582, Note_on_c, 1, 54, 92
3, 23663, Note_on_c, 1, 45, 0
3, 23691, Note_on_c, 1, 45, 81
3, 23707, Note_on_c, 1, 38, 0
3, 23755, Note_on_c, 1, 45, 0
3, 23755, Note_on_c, 1, 54, 0
3, 23756, Note_on_c, 1, 38, 87
3, 23847, Note_on_c, 1, 45, 83
3, 23944, Note_on_c, 1, 55, 113
3, 23998, Note_on_c, 1, 55, 0
3, 24005, Note_on_c, 1, 54, 88
3, 24034, Note_on_c, 1, 45, 0
3, 24062, Note_on_c, 1, 45, 80
3, 24072, Note_on_c, 1, 38, 0
3, 24123, Note_on_c, 1, 54, 0
3, 24125, Note_on_c, 1, 38, 89
3, 24137, Note_on_c, 1, 45, 0
3, 24210, Note_on_c, 1, 52, 90
3, 24313, Note_on_c, 1, 45, 94
3, 24361, Note_on_c, 1, 45, 0
3, 24373, Note_on_c, 1, 45, 85
3, 24414, Note_on_c, 1, 45, 0
3, 24429, Note_on_c, 1, 45, 79
3, 24440, Note_on_c, 1, 38, 0
3, 24450, Note_on_c, 1, 52, 0
3, 24485, Note_on_c, 1, 45, 0
3, 24490, Note_on_c, 1, 38, 92
3, 24577, Note_on_c, 1, 45, 88
3, 24675, Note_on_c, 1, 55, 113
3, 24725, Note_on_c, 1, 55, 0
3, 24735, Note_on_c, 1, 54, 83
3, 24757, Note_on_c, 1, 45, 0
3, 24795, Note_on_c, 1, 45, 84
3, 24804, Note_on_c, 1, 38, 0
3, 24852, Note_on_c, 1, 45, 0
3, 24856, Note_on_c, 1, 38, 90
3, 24857, Note_on_c, 1, 54, 0
3, 24943, Note_on_c, 1, 52, 87
3, 25041, Note_on_c, 1, 45, 95
3, 25063, Note_on_c, 1, 52, 0
3, 25153, Note_on_c, 1, 50, 89
3, 25175, Note_on_c, 1, 38, 0
3, 25206, Note_on_c, 1, 50, 0
3, 25209, Note_on_c, 1, 45, 0
3, 25214, Note_on_c, 1, 38, 83
3, 25297, Note_on_c, 1, 45, 87
3, 25392, Note_on_c, 1, 49, 92
3, 25476, Note_on_c, 1, 45, 0
3, 25491, Note_on_c, 1, 38, 0
3, 25504, Note_on_c, 1, 45, 85
3, 25561, Note_on_c, 1, 45, 0
3, 25568, Note_on_c, 1, 38, 87
3, 25571, Note_on_c, 1, 49, 0
3, 25651, Note_on_c, 1, 45, 85
3, 25747, Note_on_c, 1, 52, 95
3, 25825, Note_on_c, 1, 45, 0
3, 25860, Note_on_c, 1, 45, 81
3, 25872, Note_on_c, 1, 38, 0
3, 25917, Note_on_c, 1, 45, 0
3, 25926, Note_on_c, 1, 38, 90
3, 25930, Note_on_c, 1, 52, 0
3, 26011, Note_on_c, 1, 54, 86
3, 26107, Note_on_c, 1, 38, 0
3, 26109, Note_on_c, 1, 45, 81
3, 26169, Note_on_c, 1, 45, 0
3, 26173, Note_on_c, 1, 37, 83
3, 26178, Note_on_c, 1, 54, 0
3, 26229, Note_on_c, 1, 45, 70
3, 26265, Note_on_c, 1, 37, 0
3, 26274, Note_on_c, 1, 45, 0
3, 26280, Note_on_c, 1, 35, 76
3, 26368, Note_on_c, 1, 47, 80
3, 26453, Note_on_c, 1, 41, 70
3, 26465, Note_on_c, 1, 54, 87
3, 26483, Note_on_c, 1, 41, 0
3, 26548, Note_on_c, 1, 47, 0
3, 26573, Note_on_c, 1, 47, 70
3, 26620, Note_on_c, 1, 47, 0
3, 26621, Note_on_c, 1, 35, 0
3, 26641, Note_on_c, 1, 40, 85
3, 26652, Note_on_c, 1, 54, 0
3, 26731, Note_on_c, 1, 57, 70
3, 26748, Note_on_c, 1, 57, 0
3, 26823, Note_on_c, 1, 56, 82
3, 26917, Note_on_c, 1, 47, 70
3, 26930, Note_on_c, 1, 47, 0
3, 26941, Note_on_c, 1, 52, 71
3, 26961, Note_on_c, 1, 56, 0
3, 26987, Note_on_c, 1, 40, 0
3, 26991, Note_on_c, 1, 52, 0
3, 27001, Note_on_c, 1, 47, 70
3, 27078, Note_on_c, 1, 40, 73
3, 27167, Note_on_c, 1, 40, 0
3, 27180, Note_on_c, 1, 40, 80
3, 27185, Note_on_c, 1, 47, 0
3, 27289, Note_on_c, 1, 40, 0
3, 27294, Note_on_c, 1, 46, 78
3, 27351, Note_on_c, 1, 46, 0
3, 27359, Note_on_c, 1, 45, 90
3, 27433, Note_on_c, 1, 45, 0
3, 27443, Note_on_c, 1, 45, 76
3, 27545, Note_on_c, 1, 33, 83
3, 27589, Note_on_c, 1, 33, 0
3, 27605, Note_on_c, 1, 33, 75
3, 27664, Note_on_c, 1, 45, 0
3, 27713, Note_on_c, 1, 45, 99
3, 27782, Note_on_c, 1, 45, 0
3, 27801, Note_on_c, 1, 45, 89
3, 27875, Note_on_c, 1, 33, 0
3, 27898, Note_on_c, 1, 33, 83
3, 27935, Note_on_c, 1, 33, 0
3, 27963, Note_on_c, 1, 33, 85
3, 28055, Note_on_c, 1, 45, 0
3, 28077, Note_on_c, 1, 45, 89
3, 28146, Note_on_c, 1, 45, 0
3, 28158, Note_on_c, 1, 45, 94
3, 28226, Note_on_c, 1, 33, 0
3, 28255, Note_on_c, 1, 33, 74
3, 28288, Note_on_c, 1, 33, 0
3, 28320, Note_on_c, 1, 33, 87
3, 28358, Note_on_c, 1, 45, 0
3, 28404, Note_on_c, 1, 33, 0
3, 28429, Note_on_c, 1, 44, 98
3, 28515, Note_on_c, 1, 32, 80
3, 28594, Note_on_c, 1, 32, 0
3, 28612, Note_on_c, 1, 32, 75
3, 28638, Note_on_c, 1, 44, 0
3, 28675, Note_on_c, 1, 44, 88
3, 28689, Note_on_c, 1, 32, 0
3, 28733, Note_on_c, 1, 32, 78
3, 28781, Note_on_c, 1, 44, 0
3, 28786, Note_on_c, 1, 32, 0
3, 28793, Note_on_c, 1, 43, 90
3, 28887, Note_on_c, 1, 38, 70
3, 28912, Note_on_c, 1, 38, 0
3, 28917, Note_on_c, 1, 55, 113
3, 29002, Note_on_c, 1, 42, 70
3, 29015, Note_on_c, 1, 42, 0
3, 29036, Note_on_c, 1, 55, 0
3, 29037, Note_on_c, 1, 53, 91
3, 29126, Note_on_c, 1, 42, 70
3, 29130, Note_on_c, 1, 43, 0
3, 29151, Note_on_c, 1, 42, 0
3, 29157, Note_on_c, 1, 43, 95
3, 29159, Note_on_c, 1, 53, 0
3, 29278, Note_on_c, 1, 31, 94
3, 29388, Note_on_c, 1, 31, 0
3, 29397, Note_on_c, 1, 38, 83
3, 29436, Note_on_c, 1, 43, 0
3, 29446, Note_on_c, 1, 38, 0
3, 29459, Note_on_c, 1, 35, 70
3, 29493, Note_on_c, 1, 35, 0
3, 29509, Note_on_c, 1, 36, 92
3, 29639, Note_on_c, 1, 44, 82
3, 29750, Note_on_c, 1, 44, 0
3, 29755, Note_on_c, 1, 43, 82
3, 29856, Note_on_c, 1, 43, 0
3, 29874, Note_on_c, 1, 50, 101
3, 29947, Note_on_c, 1, 43, 70
3, 29974, Note_on_c, 1, 43, 0
3, 29992, Note_on_c, 1, 48, 80
3, 29997, Note_on_c, 1, 50, 0
3, 30080, Note_on_c, 1, 36, 0
3, 30176, Note_on_c, 1, 43, 70
3, 30222, Note_on_c, 1, 43, 0
3, 30222, Note_on_c, 1, 48, 0
3, 30232, Note_on_c, 1, 37, 82
3, 30355, Note_on_c, 1, 49, 94
3, 30370, Note_on_c, 1, 37, 0
3, 30419, Note_on_c, 1, 37, 74
3, 30437, Note_on_c, 1, 49, 0
3, 30481, Note_on_c, 1, 48, 113
3, 30492, Note_on_c, 1, 37, 0
3, 30596, Note_on_c, 1, 48, 0
3, 30603, Note_on_c, 1, 47, 89
3, 30720, Note_on_c, 1, 35, 92
3, 30723, Note_on_c, 1, 47, 0
3, 30820, Note_on_c, 1, 35, 0
3, 30832, Note_on_c, 1, 35, 90
3, 30923, Note_on_c, 1, 33, 70
3, 30934, Note_on_c, 1, 33, 0
3, 30936, Note_on_c, 1, 35, 0
3, 30950, Note_on_c, 1, 34, 86
3, 31068, Note_on_c, 1, 46, 98
3, 31123, Note_on_c, 1, 34, 0
3, 31185, Note_on_c, 1, 34, 85
3, 31194, Note_on_c, 1, 46, 0
3, 31299, Note_on_c, 1, 34, 0
3, 31308, Note_on_c, 1, 33, 84
3, 31430, Note_on_c, 1, 45, 105
3, 31450, Note_on_c, 1, 33, 0
3, 31625, Note_on_c, 1, 37, 75
3, 31629, Note_on_c, 1, 45, 0
3, 31660, Note_on_c, 1, 37, 0
3, 31673, Note_on_c, 1, 38, 83
3, 31766, Note_on_c, 1, 54, 77
3, 31864, Note_on_c, 1, 45, 70
3, 31878, Note_on_c, 1, 45, 0
3, 31929, Note_on_c, 1, 52, 74
3, 31942, Note_on_c, 1, 54, 0
3, 31985, Note_on_c, 1, 45, 70
3, 32008, Note_on_c, 1, 38, 0
3, 32036, Note_on_c, 1, 45, 0
3, 32046, Note_on_c, 1, 38, 78
3, 32052, Note_on_c, 1, 52, 0
3, 32131, Note_on_c, 1, 50, 80
3, 32176, Note_on_c, 1, 38, 0
3, 32236, Note_on_c, 1, 37, 83
3, 32238, Note_on_c, 1, 50, 0
3, 32287, Note_on_c, 1, 37, 0
3, 32302, Note_on_c, 1, 35, 80
3, 32353, Note_on_c, 1, 35, 0
3, 32362, Note_on_c, 1, 35, 80
3, 32401, Note_on_c, 1, 35, 0
3, 32418, Note_on_c, 1, 35, 85
3, 32510, Note_on_c, 1, 40, 81
3, 32524, Note_on_c, 1, 35, 0
3, 32604, Note_on_c, 1, 52, 110
3, 32701, Note_on_c, 1, 40, 0
3, 32713, Note_on_c, 1, 35, 70
3, 32731, Note_on_c, 1, 35, 0
3, 32767, Note_on_c, 1, 35, 79
3, 32856, Note_on_c, 1, 40, 84
3, 32873, Note_on_c, 1, 35, 0
3, 32938, Note_on_c, 1, 40, 0
3, 32951, Note_on_c, 1, 40, 82
3, 32969, Note_on_c, 1, 52, 0
3, 33013, Note_on_c, 1, 46, 74
3, 33040, Note_on_c, 1, 46, 0
3, 33041, Note_on_c, 1, 40, 0
3, 33061, Note_on_c, 1, 40, 70
3, 33126, Note_on_c, 1, 40, 0
3, 33127, Note_on_c, 1, 45, 90
3, 33299, Note_on_c, 1, 40, 73
3, 33363, Note_on_c, 1, 33, 71
3, 33412, Note_on_c, 1, 33, 0
3, 33415, Note_on_c, 1, 40, 0
3, 33424, Note_on_c, 1, 33, 82
3, 33430, Note_on_c, 1, 45, 0
3, 33477, Note_on_c, 1, 45, 90
3, 33489, Note_on_c, 1, 33, 0
3, 33665, Note_on_c, 1, 40, 70
3, 33674, Note_on_c, 1, 40, 0
3, 33721, Note_on_c, 1, 33, 70
3, 33744, Note_on_c, 1, 33, 0
3, 33780, Note_on_c, 1, 33, 83
3, 33797, Note_on_c, 1, 45, 0
3, 33906, Note_on_c, 1, 45, 103
3, 34001, Note_on_c, 1, 33, 0
3, 34020, Note_on_c, 1, 33, 70
3, 34037, Note_on_c, 1, 33, 0
3, 34139, Note_on_c, 1, 33, 80
3, 34165, Note_on_c, 1, 33, 0
3, 34202, Note_on_c, 1, 33, 94
3, 34211, Note_on_c, 1, 45, 0
3, 34297, Note_on_c, 1, 45, 96
3, 34383, Note_on_c, 1, 33, 0
3, 34397, Note_on_c, 1, 33, 70
3, 34429, Note_on_c, 1, 33, 0
3, 34501, Note_on_c, 1, 37, 70
3, 34518, Note_on_c, 1, 45, 0
3, 34544, Note_on_c, 1, 37, 0
3, 34560, Note_on_c, 1, 38, 71
3, 34738, Note_on_c, 1, 45, 70
3, 34799, Note_on_c, 1, 54, 84
3, 34833, Note_on_c, 1, 45, 0
3, 34885, Note_on_c, 1, 45, 70
3, 34893, Note_on_c, 1, 38, 0
3, 34896, Note_on_c, 1, 45, 0
3, 34915, Note_on_c, 1, 38, 76
3, 35101, Note_on_c, 1, 45, 70
3, 35111, Note_on_c, 1, 54, 0
3, 35158, Note_on_c, 1, 52, 105
3, 35165, Note_on_c, 1, 45, 0
3, 35220, Note_on_c, 1, 45, 70
3, 35246, Note_on_c, 1, 38, 0
3, 35265, Note_on_c, 1, 45, 0
3, 35270, Note_on_c, 1, 52, 0
3, 35278, Note_on_c, 1, 50, 96
3, 35397, Note_on_c, 1, 45, 70
3, 35577, Note_on_c, 1, 45, 0
3, 35581, Note_on_c, 1, 39, 78
3, 35631, Note_on_c, 1, 39, 0
3, 35643, Note_on_c, 1, 38, 80
3, 35658, Note_on_c, 1, 50, 0
3, 35761, Note_on_c, 1, 47, 91
3, 35803, Note_on_c, 1, 38, 0
3, 35820, Note_on_c, 1, 38, 70
3, 35874, Note_on_c, 1, 47, 0
3, 35880, Note_on_c, 1, 45, 88
3, 35883, Note_on_c, 1, 38, 0
3, 35942, Note_on_c, 1, 38, 87
3, 35994, Note_on_c, 1, 38, 0
3, 36003, Note_on_c, 1, 45, 0
3, 36005, Note_on_c, 1, 38, 94
3, 36179, Note_on_c, 1, 45, 70
3, 36243, Note_on_c, 1, 54, 82
3, 36276, Note_on_c, 1, 38, 0
3, 36298, Note_on_c, 1, 45, 0
3, 36300, Note_on_c, 1, 38, 70
3, 36325, Note_on_c, 1, 54, 0
3, 36363, Note_on_c, 1, 50, 95
3, 36476, Note_on_c, 1, 50, 0
3, 36480, Note_on_c, 1, 44, 91
3, 36494, Note_on_c, 1, 38, 0
3, 36665, Note_on_c, 1, 37, 70
3, 36701, Note_on_c, 1, 37, 0
3, 36723, Note_on_c, 1, 38, 91
3, 36744, Note_on_c, 1, 44, 0
3, 36837, Note_on_c, 1, 49, 86
3, 36907, Note_on_c, 1, 45, 71
3, 36918, Note_on_c, 1, 49, 0
3, 36980, Note_on_c, 1, 38, 0
3, 37023, Note_on_c, 1, 38, 70
3, 37052, Note_on_c, 1, 38, 0
3, 37086, Note_on_c, 1, 38, 91
3, 37249, Note_on_c, 1, 45, 0
3, 37255, Note_on_c, 1, 40, 70
3, 37309, Note_on_c, 1, 40, 0
3, 37321, Note_on_c, 1, 52, 80
3, 37375, Note_on_c, 1, 52, 0
3, 37379, Note_on_c, 1, 49, 70
3, 37432, Note_on_c, 1, 49, 0
3, 37444, Note_on_c, 1, 50, 85
3, 37451, Note_on_c, 1, 38, 0
3, 37501, Note_on_c, 1, 38, 70
3, 37566, Note_on_c, 1, 42, 78
3, 37703, Note_on_c, 1, 38, 0
3, 37745, Note_on_c, 1, 38, 70
3, 37782, Note_on_c, 1, 38, 0
3, 37803, Note_on_c, 1, 37, 70
3, 37835, Note_on_c, 1, 37, 0
3, 37859, Note_on_c, 1, 50, 0
3, 37861, Note_on_c, 1, 35, 75
3, 37875, Note_on_c, 1, 42, 0
3, 37909, Note_on_c, 1, 35, 0
3, 37921, Note_on_c, 1, 35, 80
3, 38038, Note_on_c, 1, 47, 87
3, 38069, Note_on_c, 1, 35, 0
3, 38096, Note_on_c, 1, 39, 70
3, 38137, Note_on_c, 1, 47, 0
3, 38151, Note_on_c, 1, 39, 0
3, 38160, Note_on_c, 1, 40, 88
3, 38348, Note_on_c, 1, 52, 92
3, 38465, Note_on_c, 1, 39, 70
3, 38512, Note_on_c, 1, 52, 0
3, 38520, Note_on_c, 1, 39, 0
3, 38520, Note_on_c, 1, 44, 83
3, 38708, Note_on_c, 1, 44, 0
3, 38712, Note_on_c, 1, 47, 83
3, 38806, Note_on_c, 1, 40, 0
3, 38835, Note_on_c, 1, 40, 70
3, 38856, Note_on_c, 1, 40, 0
3, 38869, Note_on_c, 1, 47, 0
3, 38880, Note_on_c, 1, 45, 94
3, 38958, Note_on_c, 1, 40, 70
3, 38968, Note_on_c, 1, 40, 0
3, 39001, Note_on_c, 1, 33, 82
3, 39083, Note_on_c, 1, 45, 0
3, 39123, Note_on_c, 1, 45, 118
3, 39293, Note_on_c, 1, 33, 0
3, 39352, Note_on_c, 1, 33, 80
3, 39450, Note_on_c, 1, 33, 0
3, 39471, Note_on_c, 1, 33, 85
3, 39540, Note_on_c, 1, 45, 0
3, 39761, Note_on_c, 1, 33, 0
3, 39777, Note_on_c, 1, 33, 70
3, 39839, Note_on_c, 1, 45, 91
3, 39995, Note_on_c, 1, 33, 0
3, 40025, Note_on_c, 1, 33, 80
3, 40064, Note_on_c, 1, 33, 0
3, 40080, Note_on_c, 1, 33, 77
3, 40113, Note_on_c, 1, 45, 0
3, 40132, Note_on_c, 1, 33, 0
3, 40139, Note_on_c, 1, 33, 71
3, 40195, Note_on_c, 1, 45, 92
3, 40238, Note_on_c, 1, 33, 0
3, 40256, Note_on_c, 1, 37, 77
3, 40266, Note_on_c, 1, 45, 0
3, 40306, Note_on_c, 1, 37, 0
3, 40318, Note_on_c, 1, 38, 92
3, 40416, Note_on_c, 1, 54, 79
3, 40516, Note_on_c, 1, 54, 0
3, 40540, Note_on_c, 1, 52, 87
3, 40601, Note_on_c, 1, 38, 0
3, 40622, Note_on_c, 1, 38, 70
3, 40649, Note_on_c, 1, 38, 0
3, 40679, Note_on_c, 1, 38, 87
3, 40722, Note_on_c, 1, 52, 0
3, 40741, Note_on_c, 1, 52, 70
3, 40764, Note_on_c, 1, 52, 0
3, 40811, Note_on_c, 1, 50, 94
3, 40857, Note_on_c, 1, 38, 0
3, 40872, Note_on_c, 1, 38, 70
3, 40921, Note_on_c, 1, 50, 0
3, 40930, Note_on_c, 1, 49, 86
3, 40949, Note_on_c, 1, 38, 0
3, 40990, Note_on_c, 1, 38, 81
3, 41040, Note_on_c, 1, 38, 0
3, 41053, Note_on_c, 1, 49, 0
3, 41053, Note_on_c, 1, 38, 88
3, 41143, Note_on_c, 1, 47, 88
3, 41191, Note_on_c, 1, 38, 0
3, 41211, Note_on_c, 1, 38, 70
3, 41212, Note_on_c, 1, 47, 0
3, 41241, Note_on_c, 1, 46, 82
3, 41278, Note_on_c, 1, 38, 0
3, 41295, Note_on_c, 1, 38, 78
3, 41329, Note_on_c, 1, 38, 0
3, 41353, Note_on_c, 1, 38, 85
3, 41391, Note_on_c, 1, 38, 0
3, 41410, Note_on_c, 1, 38, 87
3, 41423, Note_on_c, 1, 46, 0
3, 41490, Note_on_c, 1, 45, 88
3, 41561, Note_on_c, 1, 38, 0
3, 41587, Note_on_c, 1, 38, 74
3, 41614, Note_on_c, 1, 38, 0
3, 41645, Note_on_c, 1, 37, 76
3, 41681, Note_on_c, 1, 37, 0
3, 41706, Note_on_c, 1, 37, 83
3, 41717, Note_on_c, 1, 45, 0
3, 41752, Note_on_c, 1, 37, 0
3, 41765, Note_on_c, 1, 38, 91
3, 41852, Note_on_c, 1, 45, 81
3, 41948, Note_on_c, 1, 45, 0
3, 41954, Note_on_c, 1, 52, 83
3, 41956, Note_on_c, 1, 45, 70
3, 41968, Note_on_c, 1, 45, 0
3, 42070, Note_on_c, 1, 45, 70
3, 42083, Note_on_c, 1, 38, 0
3, 42090, Note_on_c, 1, 45, 0
3, 42111, Note_on_c, 1, 45, 70
3, 42133, Note_on_c, 1, 45, 0
3, 42133, Note_on_c, 1, 38, 94
3, 42146, Note_on_c, 1, 52, 0
3, 42211, Note_on_c, 1, 54, 80
3, 42272, Note_on_c, 1, 38, 0
3, 42313, Note_on_c, 1, 38, 78
3, 42315, Note_on_c, 1, 54, 0
3, 42324, Note_on_c, 1, 45, 70
3, 42341, Note_on_c, 1, 45, 0
3, 42360, Note_on_c, 1, 50, 89
3, 42393, Note_on_c, 1, 38, 0
3, 42420, Note_on_c, 1, 44, 70
3, 42428, Note_on_c, 1, 50, 0
3, 42480, Note_on_c, 1, 44, 0
3, 42480, Note_on_c, 1, 38, 85
3, 42572, Note_on_c, 1, 45, 80
3, 42669, Note_on_c, 1, 45, 0
3, 42677, Note_on_c, 1, 49, 78
3, 42721, Note_on_c, 1, 49, 0
3, 42735, Note_on_c, 1, 38, 0
3, 42738, Note_on_c, 1, 52, 83
3, 42795, Note_on_c, 1, 38, 70
3, 42806, Note_on_c, 1, 38, 0
3, 42857, Note_on_c, 1, 38, 90
3, 42918, Note_on_c, 1, 52, 0
3, 42936, Note_on_c, 1, 49, 84
3, 43030, Note_on_c, 1, 45, 77
3, 43037, Note_on_c, 1, 49, 0
3, 43062, Note_on_c, 1, 38, 0
3, 43092, Note_on_c, 1, 36, 70
3, 43093, Note_on_c, 1, 45, 0
3, 43140, Note_on_c, 1, 36, 0
3, 43147, Note_on_c, 1, 37, 70
3, 43190, Note_on_c, 1, 37, 0
3, 43205, Note_on_c, 1, 38, 81
3, 43316, Note_on_c, 1, 50, 88
3, 43428, Note_on_c, 1, 50, 0
3, 43440, Note_on_c, 1, 49, 83
3, 43462, Note_on_c, 1, 38, 0
3, 43530, Note_on_c, 1, 38, 70
3, 43550, Note_on_c, 1, 38, 0
3, 43557, Note_on_c, 1, 49, 0
3, 43559, Note_on_c, 1, 47, 84
3, 43681, Note_on_c, 1, 42, 75
3, 43787, Note_on_c, 1, 42, 0
3, 43796, Note_on_c, 1, 38, 70
3, 43834, Note_on_c, 1, 38, 0
3, 43873, Note_on_c, 1, 39, 70
3, 43895, Note_on_c, 1, 39, 0
3, 43913, Note_on_c, 1, 40, 85
3, 43949, Note_on_c, 1, 47, 0
3, 44030, Note_on_c, 1, 47, 99
3, 44223, Note_on_c, 1, 44, 70
3, 44231, Note_on_c, 1, 47, 0
3, 44243, Note_on_c, 1, 44, 0
3, 44261, Note_on_c, 1, 40, 0
3, 44273, Note_on_c, 1, 35, 75
3, 44386, Note_on_c, 1, 35, 0
3, 44393, Note_on_c, 1, 32, 80
3, 44509, Note_on_c, 1, 32, 0
3, 44518, Note_on_c, 1, 35, 74
3, 44586, Note_on_c, 1, 32, 70
3, 44591, Note_on_c, 1, 35, 0
3, 44617, Note_on_c, 1, 32, 0
3, 44638, Note_on_c, 1, 33, 77
3, 44752, Note_on_c, 1, 47, 113
3, 44872, Note_on_c, 1, 45, 92
3, 44873, Note_on_c, 1, 47, 0
3, 44910, Note_on_c, 1, 33, 0
3, 44993, Note_on_c, 1, 33, 87
3, 45100, Note_on_c, 1, 33, 0
3, 45113, Note_on_c, 1, 33, 84
3, 45131, Note_on_c, 1, 45, 0
3, 45304, Note_on_c, 1, 45, 101
3, 45349, Note_on_c, 1, 45, 0
3, 45364, Note_on_c, 1, 45, 101
3, 45449, Note_on_c, 1, 33, 0
3, 45478, Note_on_c, 1, 33, 92
3, 45491, Note_on_c, 1, 45, 0
3, 45667, Note_on_c, 1, 45, 108
3, 45709, Note_on_c, 1, 45, 0
3, 45729, Note_on_c, 1, 45, 96
3, 45747, Note_on_c, 1, 33, 0
3, 45786, Note_on_c, 1, 33, 83
3, 45802, Note_on_c, 1, 45, 0
3, 45846, Note_on_c, 1, 44, 95
3, 45881, Note_on_c, 1, 33, 0
3, 45959, Note_on_c, 1, 44, 0
3, 45959, Note_on_c, 1, 32, 79
3, 46064, Note_on_c, 1, 32, 0
3, 46077, Note_on_c, 1, 31, 80
3, 46199, Note_on_c, 1, 43, 105
3, 46206, Note_on_c, 1, 31, 0
3, 46316, Note_on_c, 1, 38, 70
3, 46422, Note_on_c, 1, 38, 0
3, 46439, Note_on_c, 1, 32, 85
3, 46555, Note_on_c, 1, 43, 0
3, 46557, Note_on_c, 1, 31, 76
3, 46571, Note_on_c, 1, 32, 0
3, 46641, Note_on_c, 1, 35, 70
3, 46670, Note_on_c, 1, 35, 0
3, 46672, Note_on_c, 1, 43, 95
3, 46680, Note_on_c, 1, 31, 0
3, 46754, Note_on_c, 1, 35, 70
3, 46780, Note_on_c, 1, 35, 0
3, 46794, Note_on_c, 1, 43, 0
3, 46796, Note_on_c, 1, 36, 84
3, 46883, Note_on_c, 1, 34, 70
3, 46912, Note_on_c, 1, 50, 105
3, 46920, Note_on_c, 1, 34, 0
3, 46993, Note_on_c, 1, 34, 70
3, 47023, Note_on_c, 1, 36, 0
3, 47025, Note_on_c, 1, 34, 0
3, 47031, Note_on_c, 1, 48, 82
3, 47042, Note_on_c, 1, 50, 0
3, 47152, Note_on_c, 1, 43, 84
3, 47157, Note_on_c, 1, 48, 0
3, 47263, Note_on_c, 1, 43, 0
3, 47269, Note_on_c, 1, 40, 74
3, 47383, Note_on_c, 1, 40, 0
3, 47396, Note_on_c, 1, 36, 70
3, 47517, Note_on_c, 1, 37, 84
3, 47520, Note_on_c, 1, 36, 0
3, 47631, Note_on_c, 1, 49, 90
3, 47643, Note_on_c, 1, 50, 70
3, 47740, Note_on_c, 1, 50, 0
3, 47740, Note_on_c, 1, 49, 0
3, 47754, Note_on_c, 1, 48, 82
3, 47763, Note_on_c, 1, 37, 0
3, 47876, Note_on_c, 1, 35, 90
3, 47881, Note_on_c, 1, 48, 0
3, 47995, Note_on_c, 1, 47, 108
3, 48140, Note_on_c, 1, 35, 0
3, 48198, Note_on_c, 1, 35, 70
3, 48222, Note_on_c, 1, 35, 0
3, 48243, Note_on_c, 1, 34, 81
3, 48250, Note_on_c, 1, 33, 70
3, 48258, Note_on_c, 1, 33, 0
3, 48264, Note_on_c, 1, 47, 0
3, 48364, Note_on_c, 1, 46, 91
3, 48510, Note_on_c, 1, 34, 0
3, 48561, Note_on_c, 1, 34, 73
3, 48588, Note_on_c, 1, 34, 0
3, 48600, Note_on_c, 1, 46, 0
3, 48606, Note_on_c, 1, 33, 81
3, 48670, Note_on_c, 1, 45, 91
3, 48702, Note_on_c, 1, 45, 0
3, 48728, Note_on_c, 1, 52, 90
3, 48790, Note_on_c, 1, 49, 83
3, 48795, Note_on_c, 1, 33, 0
3, 48796, Note_on_c, 1, 52, 0
3, 48845, Note_on_c, 1, 49, 0
3, 48846, Note_on_c, 1, 37, 72
3, 48891, Note_on_c, 1, 37, 0
3, 48905, Note_on_c, 1, 37, 70
3, 48963, Note_on_c, 1, 37, 0
3, 48966, Note_on_c, 1, 38, 89
3, 49134, Note_on_c, 1, 38, 0
3, 49150, Note_on_c, 1, 38, 80
3, 49203, Note_on_c, 1, 49, 91
3, 49219, Note_on_c, 1, 38, 0
3, 49267, Note_on_c, 1, 38, 70
3, 49313, Note_on_c, 1, 49, 0
3, 49319, Note_on_c, 1, 38, 0
3, 49325, Note_on_c, 1, 47, 101
3, 49507, Note_on_c, 1, 42, 71
3, 49548, Note_on_c, 1, 42, 0
3, 49565, Note_on_c, 1, 38, 73
3, 49619, Note_on_c, 1, 38, 0
3, 49626, Note_on_c, 1, 39, 82
3, 49642, Note_on_c, 1, 47, 0
3, 49681, Note_on_c, 1, 39, 0
3, 49685, Note_on_c, 1, 40, 87
3, 49799, Note_on_c, 1, 52, 108
3, 50029, Note_on_c, 1, 40, 0
3, 50040, Note_on_c, 1, 35, 88
3, 50254, Note_on_c, 1, 35, 0
3, 50269, Note_on_c, 1, 34, 70
3, 50275, Note_on_c, 1, 52, 0
3, 50377, Note_on_c, 1, 34, 0
3, 50389, Note_on_c, 1, 33, 70
3, 50460, Note_on_c, 1, 45, 70
3, 50481, Note_on_c, 1, 45, 0
3, 50520, Note_on_c, 1, 45, 80
3, 50605, Note_on_c, 1, 33, 0
3, 50644, Note_on_c, 1, 33, 70
3, 50676, Note_on_c, 1, 33, 0
3, 50701, Note_on_c, 1, 33, 70
3, 50740, Note_on_c, 1, 33, 0
3, 50757, Note_on_c, 1, 33, 74
3, 50758, Note_on_c, 1, 45, 0
3, 50817, Note_on_c, 1, 45, 70
3, 50839, Note_on_c, 1, 45, 0
3, 50875, Note_on_c, 1, 45, 92
3, 51036, Note_on_c, 1, 33, 0
3, 51060, Note_on_c, 1, 33, 73
3, 51101, Note_on_c, 1, 33, 0
3, 51117, Note_on_c, 1, 33, 80
3, 51156, Note_on_c, 1, 45, 0
3, 51186, Note_on_c, 1, 45, 70
3, 51220, Note_on_c, 1, 45, 0
3, 51239, Note_on_c, 1, 45, 74
3, 51387, Note_on_c, 1, 33, 0
3, 51416, Note_on_c, 1, 33, 80
3, 51456, Note_on_c, 1, 33, 0
3, 51478, Note_on_c, 1, 33, 78
3, 51506, Note_on_c, 1, 45, 0
3, 51524, Note_on_c, 1, 33, 0
3, 51536, Note_on_c, 1, 33, 82
3, 51594, Note_on_c, 1, 45, 88
3, 51623, Note_on_c, 1, 33, 0
3, 51710, Note_on_c, 1, 37, 71
3, 51717, Note_on_c, 1, 45, 0
3, 51824, Note_on_c, 1, 37, 0
3, 51838, Note_on_c, 1, 38, 80
3, 51960, Note_on_c, 1, 45, 70
3, 52078, Note_on_c, 1, 52, 94
3, 52173, Note_on_c, 1, 38, 0
3, 52212, Note_on_c, 1, 45, 0
3, 52214, Note_on_c, 1, 38, 70
3, 52307, Note_on_c, 1, 52, 0
3, 52313, Note_on_c, 1, 54, 83
3, 52510, Note_on_c, 1, 45, 70
3, 52516, Note_on_c, 1, 38, 0
3, 52557, Note_on_c, 1, 45, 0
3, 52566, Note_on_c, 1, 38, 81
3, 52579, Note_on_c, 1, 54, 0
3, 52684, Note_on_c, 1, 45, 74
3, 52798, Note_on_c, 1, 52, 96
3, 52836, Note_on_c, 1, 45, 0
3, 52864, Note_on_c, 1, 45, 70
3, 52900, Note_on_c, 1, 52, 0
3, 52919, Note_on_c, 1, 54, 86
3, 52932, Note_on_c, 1, 45, 0
3, 53100, Note_on_c, 1, 50, 80
3, 53108, Note_on_c, 1, 54, 0
3, 53154, Note_on_c, 1, 38, 0
3, 53165, Note_on_c, 1, 45, 70
3, 53225, Note_on_c, 1, 37, 76
3, 53235, Note_on_c, 1, 45, 0
3, 53239, Note_on_c, 1, 50, 0
3, 53281, Note_on_c, 1, 37, 0
3, 53284, Note_on_c, 1, 38, 88
3, 53405, Note_on_c, 1, 50, 92
3, 53573, Note_on_c, 1, 38, 0
3, 53597, Note_on_c, 1, 38, 70
3, 53637, Note_on_c, 1, 38, 0
3, 53638, Note_on_c, 1, 47, 83
3, 53700, Note_on_c, 1, 50, 0
3, 53752, Note_on_c, 1, 38, 74
3, 53878, Note_on_c, 1, 44, 74
3, 53888, Note_on_c, 1, 47, 0
3, 53905, Note_on_c, 1, 38, 0
3, 53945, Note_on_c, 1, 38, 70
3, 53992, Note_on_c, 1, 38, 0
3, 54002, Note_on_c, 1, 45, 83
3, 54005, Note_on_c, 1, 44, 0
3, 54113, Note_on_c, 1, 38, 70
3, 54196, Note_on_c, 1, 52, 76
3, 54250, Note_on_c, 1, 45, 0
3, 54265, Note_on_c, 1, 52, 0
3, 54267, Note_on_c, 1, 49, 72
3, 54333, Note_on_c, 1, 38, 0
3, 54354, Note_on_c, 1, 38, 70
3, 54471, Note_on_c, 1, 38, 0
3, 54480, Note_on_c, 1, 38, 83
3, 54489, Note_on_c, 1, 49, 0
3, 54660, Note_on_c, 1, 37, 74
3, 54662, Note_on_c, 1, 38, 0
3, 54710, Note_on_c, 1, 37, 0
3, 54733, Note_on_c, 1, 38, 80
3, 54909, Note_on_c, 1, 54, 88
3, 55058, Note_on_c, 1, 38, 0
3, 55062, Note_on_c, 1, 35, 78
3, 55085, Note_on_c, 1, 54, 0
3, 55205, Note_on_c, 1, 50, 95
3, 55342, Note_on_c, 1, 35, 0
3, 55387, Note_on_c, 1, 39, 70
3, 55429, Note_on_c, 1, 39, 0
3, 55436, Note_on_c, 1, 40, 91
3, 55442, Note_on_c, 1, 50, 0
3, 55620, Note_on_c, 1, 54, 85
3, 55672, Note_on_c, 1, 54, 0
3, 55680, Note_on_c, 1, 52, 76
3, 55740, Note_on_c, 1, 54, 70
3, 55860, Note_on_c, 1, 47, 79
3, 55871, Note_on_c, 1, 52, 0
3, 55872, Note_on_c, 1, 54, 0
3, 55915, Note_on_c, 1, 47, 0
3, 55920, Note_on_c, 1, 44, 75
3, 55973, Note_on_c, 1, 40, 0
3, 56155, Note_on_c, 1, 44, 0
3, 56162, Note_on_c, 1, 33, 71
3, 56279, Note_on_c, 1, 45, 92
3, 56380, Note_on_c, 1, 45, 0
3, 56396, Note_on_c, 1, 45, 76
3, 56434, Note_on_c, 1, 33, 0
3, 56457, Note_on_c, 1, 33, 73
3, 56505, Note_on_c, 1, 33, 0
3, 56520, Note_on_c, 1, 33, 70
3, 56528, Note_on_c, 1, 45, 0
3, 56632, Note_on_c, 1, 45, 82
3, 56696, Note_on_c, 1, 44, 70
3, 56700, Note_on_c, 1, 45, 0
3, 56742, Note_on_c, 1, 44, 0
3, 56751, Note_on_c, 1, 45, 70
3, 56791, Note_on_c, 1, 33, 0
3, 56821, Note_on_c, 1, 33, 70
3, 56845, Note_on_c, 1, 33, 0
3, 56877, Note_on_c, 1, 33, 84
3, 56888, Note_on_c, 1, 45, 0
3, 56998, Note_on_c, 1, 45, 85
3, 57059, Note_on_c, 1, 44, 70
3, 57063, Note_on_c, 1, 45, 0
3, 57097, Note_on_c, 1, 44, 0
3, 57111, Note_on_c, 1, 45, 70
3, 57132, Note_on_c, 1, 33, 0
3, 57177, Note_on_c, 1, 33, 72
3, 57183, Note_on_c, 1, 45, 0
3, 57232, Note_on_c, 1, 54, 80
3, 57269, Note_on_c, 1, 33, 0
3, 57292, Note_on_c, 1, 33, 70
3, 57335, Note_on_c, 1, 54, 0
3, 57353, Note_on_c, 1, 45, 75
3, 57422, Note_on_c, 1, 40, 70
3, 57429, Note_on_c, 1, 33, 0
3, 57464, Note_on_c, 1, 40, 0
3, 57475, Note_on_c, 1, 45, 0
3, 57477, Note_on_c, 1, 39, 72
3, 57531, Note_on_c, 1, 39, 0
3, 57540, Note_on_c, 1, 37, 70
3, 57588, Note_on_c, 1, 37, 0
3, 57596, Note_on_c, 1, 38, 88
3, 57788, Note_on_c, 1, 50, 113
3, 57937, Note_on_c, 1, 38, 0
3, 57969, Note_on_c, 1, 38, 76
3, 57987, Note_on_c, 1, 38, 0
3, 58082, Note_on_c, 1, 38, 80
3, 58261, Note_on_c, 1, 38, 0
3, 58262, Note_on_c, 1, 37, 70
3, 58306, Note_on_c, 1, 37, 0
3, 58317, Note_on_c, 1, 38, 76
3, 58323, Note_on_c, 1, 50, 0
3, 58381, Note_on_c, 1, 54, 81
3, 58437, Note_on_c, 1, 54, 0
3, 58445, Note_on_c, 1, 49, 71
3, 58562, Note_on_c, 1, 49, 0
3, 58563, Note_on_c, 1, 45, 70
3, 58602, Note_on_c, 1, 38, 0
3, 58625, Note_on_c, 1, 37, 70
3, 58665, Note_on_c, 1, 37, 0
3, 58676, Note_on_c, 1, 45, 0
3, 58679, Note_on_c, 1, 38, 79
3, 58740, Note_on_c, 1, 52, 95
3, 58786, Note_on_c, 1, 52, 0
3, 58800, Note_on_c, 1, 49, 70
3, 58841, Note_on_c, 1, 38, 0
3, 58857, Note_on_c, 1, 38, 70
3, 58909, Note_on_c, 1, 49, 0
3, 58910, Note_on_c, 1, 45, 73
3, 58931, Note_on_c, 1, 38, 0
3, 58977, Note_on_c, 1, 37, 70
3, 59010, Note_on_c, 1, 45, 0
3, 59035, Note_on_c, 1, 37, 0
3, 59035, Note_on_c, 1, 38, 83
3, 59270, Note_on_c, 1, 50, 105
3, 59298, Note_on_c, 1, 38, 0
3, 59336, Note_on_c, 1, 38, 70
3, 59386, Note_on_c, 1, 50, 0
3, 59389, Note_on_c, 1, 38, 0
3, 59392, Note_on_c, 1, 49, 86
3, 59474, Note_on_c, 1, 38, 70
3, 59494, Note_on_c, 1, 38, 0
3, 59516, Note_on_c, 1, 47, 81
3, 59526, Note_on_c, 1, 49, 0
3, 59584, Note_on_c, 1, 38, 70
3, 59608, Note_on_c, 1, 38, 0
3, 59630, Note_on_c, 1, 47, 0
3, 59635, Note_on_c, 1, 44, 75
3, 59713, Note_on_c, 1, 38, 70
3, 59731, Note_on_c, 1, 38, 0
3, 59748, Note_on_c, 1, 44, 0
3, 59754, Note_on_c, 1, 45, 74
3, 59880, Note_on_c, 1, 38, 81
3, 59891, Note_on_c, 1, 45, 0
3, 59902, Note_on_c, 1, 45, 70
3, 59986, Note_on_c, 1, 38, 0
3, 59999, Note_on_c, 1, 38, 89
3, 60056, Note_on_c, 1, 45, 0
3, 60064, Note_on_c, 1, 49, 86
3, 60125, Note_on_c, 1, 45, 79
3, 60127, Note_on_c, 1, 49, 0
3, 60168, Note_on_c, 1, 38, 0
3, 60193, Note_on_c, 1, 38, 70
3, 60217, Note_on_c, 1, 38, 0
3, 60310, Note_on_c, 1, 38, 79
3, 60362, Note_on_c, 1, 45, 0
3, 60374, Note_on_c, 1, 52, 83
3, 60427, Note_on_c, 1, 52, 0
3, 60434, Note_on_c, 1, 49, 70
3, 60480, Note_on_c, 1, 49, 0
3, 60490, Note_on_c, 1, 50, 82
3, 60505, Note_on_c, 1, 38, 0
3, 60548, Note_on_c, 1, 38, 70
3, 60602, Note_on_c, 1, 50, 0
3, 60606, Note_on_c, 1, 45, 77
3, 60754, Note_on_c, 1, 38, 0
3, 60782, Note_on_c, 1, 37, 80
3, 60832, Note_on_c, 1, 37, 0
3, 60832, Note_on_c, 1, 45, 0
3, 60840, Note_on_c, 1, 35, 73
3, 61018, Note_on_c, 1, 47, 70
3, 61081, Note_on_c, 1, 50, 71
3, 61092, Note_on_c, 1, 47, 0
3, 61135, Note_on_c, 1, 50, 0
3, 61143, Note_on_c, 1, 51, 80
3, 61188, Note_on_c, 1, 51, 0
3, 61200, Note_on_c, 1, 52, 81
3, 61251, Note_on_c, 1, 35, 0
3, 61381, Note_on_c, 1, 40, 82
3, 61441, Note_on_c, 1, 40, 0
3, 61452, Note_on_c, 1, 40, 87
3, 61635, Note_on_c, 1, 28, 90
3, 61793, Note_on_c, 1, 40, 0
3, 61806, Note_on_c, 1, 35, 72
3, 61820, Note_on_c, 1, 28, 0
3, 61851, Note_on_c, 1, 35, 0
3, 61867, Note_on_c, 1, 34, 76
3, 61906, Note_on_c, 1, 34, 0
3, 61914, Note_on_c, 1, 52, 0
3, 61922, Note_on_c, 1, 33, 81
3, 62038, Note_on_c, 1, 45, 113
3, 62184, Note_on_c, 1, 33, 0
3, 62225, Note_on_c, 1, 32, 70
3, 62260, Note_on_c, 1, 32, 0
3, 62281, Note_on_c, 1, 33, 84
3, 62290, Note_on_c, 1, 45, 0
3, 62398, Note_on_c, 1, 45, 110
3, 62523, Note_on_c, 1, 33, 0
3, 62594, Note_on_c, 1, 37, 71
3, 62633, Note_on_c, 1, 37, 0
3, 62649, Note_on_c, 1, 38, 88
3, 62650, Note_on_c, 1, 45, 0
3, 62882, Note_on_c, 1, 50, 94
3, 63071, Note_on_c, 1, 38, 0
3, 63073, Note_on_c, 1, 45, 80
3, 63093, Note_on_c, 1, 45, 0
3, 63101, Note_on_c, 1, 50, 0
3, 63119, Note_on_c, 1, 38, 73
3, 63233, Note_on_c, 1, 32, 82
3, 63235, Note_on_c, 1, 38, 0
3, 63342, Note_on_c, 1, 32, 0
3, 63351, Note_on_c, 1, 31, 71
3, 63547, Note_on_c, 1, 38, 70
3, 63564, Note_on_c, 1, 38, 0
3, 63592, Note_on_c, 1, 45, 90
3, 63609, Note_on_c, 1, 45, 0
3, 63657, Note_on_c, 1, 38, 70
3, 63667, Note_on_c, 1, 38, 0
3, 63671, Note_on_c, 1, 44, 80
3, 63702, Note_on_c, 1, 44, 0
3, 63708, Note_on_c, 1, 43, 76
3, 63781, Note_on_c, 1, 31, 0
3, 63791, Note_on_c, 1, 38, 70
3, 63819, Note_on_c, 1, 38, 0
3, 63820, Note_on_c, 1, 43, 0
3, 63831, Note_on_c, 1, 31, 91
3, 63926, Note_on_c, 1, 38, 70
3, 63953, Note_on_c, 1, 38, 0
3, 64031, Note_on_c, 1, 43, 81
3, 64032, Note_on_c, 1, 38, 70
3, 64043, Note_on_c, 1, 31, 0
3, 64046, Note_on_c, 1, 43, 0
3, 64061, Note_on_c, 1, 38, 0
3, 64080, Note_on_c, 1, 36, 88
3, 64200, Note_on_c, 1, 44, 81
3, 64219, Note_on_c, 1, 44, 0
3, 64260, Note_on_c, 1, 47, 80
3, 64278, Note_on_c, 1, 47, 0
3, 64320, Note_on_c, 1, 50, 95
3, 64391, Note_on_c, 1, 50, 0
3, 64410, Note_on_c, 1, 47, 70
3, 64431, Note_on_c, 1, 47, 0
3, 64440, Note_on_c, 1, 48, 82
3, 64465, Note_on_c, 1, 36, 0
3, 64620, Note_on_c, 1, 43, 70
3, 64666, Note_on_c, 1, 43, 0
3, 64675, Note_on_c, 1, 48, 0
3, 64680, Note_on_c, 1, 40, 70
3, 64711, Note_on_c, 1, 40, 0
3, 64740, Note_on_c, 1, 36, 70
3, 64764, Note_on_c, 1, 36, 0
3, 64800, Note_on_c, 1, 37, 70
3, 64920, Note_on_c, 1, 49, 79
3, 64997, Note_on_c, 1, 49, 0
3, 65040, Note_on_c, 1, 49, 77
3, 65141, Note_on_c, 1, 49, 0
3, 65144, Note_on_c, 1, 37, 0
3, 65160, Note_on_c, 1, 48, 72
3, 65220, Note_on_c, 1, 36, 70
3, 65248, Note_on_c, 1, 36, 0
3, 65280, Note_on_c, 1, 35, 80
3, 65305, Note_on_c, 1, 48, 0
3, 65400, Note_on_c, 1, 47, 92
3, 65515, Note_on_c, 1, 47, 0
3, 65520, Note_on_c, 1, 46, 77
3, 65529, Note_on_c, 1, 35, 0
3, 65580, Note_on_c, 1, 34, 80
3, 65629, Note_on_c, 1, 34, 0
3, 65648, Note_on_c, 1, 34, 91
3, 65688, Note_on_c, 1, 46, 0
3, 65762, Note_on_c, 1, 46, 77
3, 65781, Note_on_c, 1, 34, 0
3, 65828, Note_on_c, 1, 34, 70
3, 65861, Note_on_c, 1, 34, 0
3, 65865, Note_on_c, 1, 46, 0
3, 65883, Note_on_c, 1, 33, 76
3, 65939, Note_on_c, 1, 45, 70
3, 65975, Note_on_c, 1, 45, 0
3, 65997, Note_on_c, 1, 49, 87
3, 66161, Note_on_c, 1, 33, 0
3, 66192, Note_on_c, 1, 37, 70
3, 66227, Note_on_c, 1, 37, 0
3, 66236, Note_on_c, 1, 49, 0
3, 66244, Note_on_c, 1, 38, 70
3, 66302, Note_on_c, 1, 45, 70
3, 66356, Note_on_c, 1, 52, 99
3, 66503, Note_on_c, 1, 38, 0
3, 66542, Note_on_c, 1, 38, 70
3, 66585, Note_on_c, 1, 52, 0
3, 66594, Note_on_c, 1, 38, 0
3, 66599, Note_on_c, 1, 54, 82
3, 66649, Note_on_c, 1, 45, 0
3, 66657, Note_on_c, 1, 37, 70
3, 66676, Note_on_c, 1, 54, 0
3, 66704, Note_on_c, 1, 37, 0
3, 66713, Note_on_c, 1, 35, 74
3, 66836, Note_on_c, 1, 50, 87
3, 66853, Note_on_c, 1, 35, 0
3, 66897, Note_on_c, 1, 39, 70
3, 66923, Note_on_c, 1, 50, 0
3, 66945, Note_on_c, 1, 39, 0
3, 66956, Note_on_c, 1, 40, 80
3, 67200, Note_on_c, 1, 52, 82
3, 67420, Note_on_c, 1, 52, 0
3, 67499, Note_on_c, 1, 35, 70
3, 67532, Note_on_c, 1, 35, 0
3, 67555, Note_on_c, 1, 34, 70
3, 67581, Note_on_c, 1, 34, 0
3, 67612, Note_on_c, 1, 34, 70
3, 67652, Note_on_c, 1, 34, 0
3, 67665, Note_on_c, 1, 40, 0
3, 67672, Note_on_c, 1, 33, 70
3, 67795, Note_on_c, 1, 45, 84
3, 67922, Note_on_c, 1, 33, 0
3, 67984, Note_on_c, 1, 33, 70
3, 68020, Note_on_c, 1, 33, 0
3, 68039, Note_on_c, 1, 33, 70
3, 68043, Note_on_c, 1, 45, 0
3, 68102, Note_on_c, 1, 46, 77
3, 68158, Note_on_c, 1, 46, 0
3, 68162, Note_on_c, 1, 45, 70
3, 68291, Note_on_c, 1, 33, 0
3, 68342, Note_on_c, 1, 21, 70
3, 68357, Note_on_c, 1, 45, 0
3, 68392, Note_on_c, 1, 21, 0
3, 68400, Note_on_c, 1, 33, 76
3, 68514, Note_on_c, 1, 33, 0
3, 68523, Note_on_c, 1, 45, 101
3, 68603, Note_on_c, 1, 45, 0
3, 68642, Note_on_c, 1, 45, 92
3, 68694, Pitch_bend_c, 1, 8192
3, 68695, Pitch_bend_c, 1, 8192
3, 68696, Pitch_bend_c, 1, 8712
3, 68698, Pitch_bend_c, 1, 8972
3, 68699, Pitch_bend_c, 1, 9362
3, 68701, Pitch_bend_c, 1, 9882
3, 68702, Pitch_bend_c, 1, 10142
3, 68704, Pitch_bend_c, 1, 10532
3, 68705, Pitch_bend_c, 1, 10922
3, 68707, Pitch_bend_c, 1, 11312
3, 68709, Pitch_bend_c, 1, 11572
3, 68710, Pitch_bend_c, 1, 11832
3, 68711, Pitch_bend_c, 1, 12092
3, 68713, Pitch_bend_c, 1, 12222
3, 68714, Pitch_bend_c, 1, 12612
3, 68716, Pitch_bend_c, 1, 12872
3, 68717, Pitch_bend_c, 1, 13002
3, 68719, Pitch_bend_c, 1, 13262
3, 68720, Pitch_bend_c, 1, 13652
3, 68722, Pitch_bend_c, 1, 13782
3, 68724, Pitch_bend_c, 1, 14042
3, 68725, Pitch_bend_c, 1, 14302
3, 68727, Pitch_bend_c, 1, 14562
3, 68728, Pitch_bend_c, 1, 14692
3, 68730, Pitch_bend_c, 1, 14822
3, 68731, Pitch_bend_c, 1, 15082
3, 68734, Pitch_bend_c, 1, 15212
3, 68742, Pitch_bend_c, 1, 14968
3, 68744, Pitch_bend_c, 1, 14822
3, 68745, Pitch_bend_c, 1, 14692
3, 68747, Pitch_bend_c, 1, 14562
3, 68748, Pitch_bend_c, 1, 14302
3, 68750, Pitch_bend_c, 1, 14172
3, 68751, Pitch_bend_c, 1, 13912
3, 68753, Pitch_bend_c, 1, 13652
3, 68755, Pitch_bend_c, 1, 13262
3, 68756, Pitch_bend_c, 1, 13002
3, 68757, Pitch_bend_c, 1, 12612
3, 68759, Pitch_bend_c, 1, 12092
3, 68761, Pitch_bend_c, 1, 11702
3, 68762, Pitch_bend_c, 1, 11052
3, 68764, Pitch_bend_c, 1, 10532
3, 68765, Pitch_bend_c, 1, 9882
3, 68767, Pitch_bend_c, 1, 9232
3, 68768, Pitch_bend_c, 1, 8712
3, 68770, Pitch_bend_c, 1, 8192
3, 68770, Pitch_bend_c, 1, 8192
3, 68880, Note_on_c, 1, 33, 70
3, 68916, Note_on_c, 1, 33, 0
3, 68942, Note_on_c, 1, 32, 75
3, 68990, Note_on_c, 1, 32, 0
3, 68999, Note_on_c, 1, 33, 82
3, 69058, Note_on_c, 1, 32, 82
3, 69063, Note_on_c, 1, 45, 0
3, 69066, Note_on_c, 1, 33, 0
3, 69111, Note_on_c, 1, 32, 0
3, 69119, Note_on_c, 1, 33, 94
3, 69240, Note_on_c, 1, 45, 90
3, 69298, Note_on_c, 1, 45, 0
3, 69360, Note_on_c, 1, 45, 84
3, 69372, Note_on_c, 1, 33, 0
3, 69419, Control_c, 1, 1, 21
3, 69422, Control_c, 1, 1, 18
3, 69423, Control_c, 1, 1, 16
3, 69423, Control_c, 1, 1, 17
3, 69424, Control_c, 1, 1, 14
3, 69425, Control_c, 1, 1, 13
3, 69426, Control_c, 1, 1, 11
3, 69427, Control_c, 1, 1, 10
3, 69427, Control_c, 1, 1, 9
3, 69428, Control_c, 1, 1, 8
3, 69429, Control_c, 1, 1, 7
3, 69430, Control_c, 1, 1, 5
3, 69430, Control_c, 1, 1, 4
3, 69431, Control_c, 1, 1, 3
3, 69433, Control_c, 1, 1, 1
3, 69437, Note_on_c, 1, 45, 0
3, 69476, Note_on_c, 1, 45, 88
3, 69543, Note_on_c, 1, 46, 77
3, 69554, Note_on_c, 1, 45, 0
3, 69593, Note_on_c, 1, 46, 0
3, 69600, Note_on_c, 1, 45, 81
3, 69649, Pitch_bend_c, 1, 8192
3, 69651, Pitch_bend_c, 1, 8192
3, 69652, Pitch_bend_c, 1, 8192
3, 69655, Pitch_bend_c, 1, 7680
3, 69656, Pitch_bend_c, 1, 7552
3, 69658, Pitch_bend_c, 1, 7296
3, 69659, Pitch_bend_c, 1, 7168
3, 69661, Pitch_bend_c, 1, 6912
3, 69662, Pitch_bend_c, 1, 6784
3, 69664, Pitch_bend_c, 1, 6528
3, 69665, Pitch_bend_c, 1, 6272
3, 69667, Pitch_bend_c, 1, 5888
3, 69668, Pitch_bend_c, 1, 5632
3, 69670, Pitch_bend_c, 1, 5504
3, 69671, Pitch_bend_c, 1, 5120
3, 69673, Pitch_bend_c, 1, 4864
3, 69675, Pitch_bend_c, 1, 4736
3, 69676, Pitch_bend_c, 1, 4608
3, 69679, Pitch_bend_c, 1, 4352
3, 69681, Pitch_bend_c, 1, 4224
3, 69682, Pitch_bend_c, 1, 4096
3, 69686, Pitch_bend_c, 1, 3968
3, 69687, Pitch_bend_c, 1, 3840
3, 69692, Pitch_bend_c, 1, 3712
3, 69696, Pitch_bend_c, 1, 3584
3, 69702, Pitch_bend_c, 1, 3456
3, 69717, Pitch_bend_c, 1, 3712
3, 69720, Pitch_bend_c, 1, 3968
3, 69721, Pitch_bend_c, 1, 4096
3, 69723, Pitch_bend_c, 1, 4352
3, 69725, Pitch_bend_c, 1, 4480
3, 69726, Pitch_bend_c, 1, 4736
3, 69728, Pitch_bend_c, 1, 4864
3, 69729, Pitch_bend_c, 1, 5120
3, 69731, Pitch_bend_c, 1, 5504
3, 69732, Pitch_bend_c, 1, 5632
3, 69734, Pitch_bend_c, 1, 6016
3, 69735, Pitch_bend_c, 1, 6272
3, 69737, Pitch_bend_c, 1, 6656
3, 69738, Pitch_bend_c, 1, 6912
3, 69740, Pitch_bend_c, 1, 7168
3, 69741, Pitch_bend_c, 1, 7424
3, 69743, Pitch_bend_c, 1, 8192
3, 69744, Pitch_bend_c, 1, 8192
3, 69744, Pitch_bend_c, 1, 8192
3, 69747, Pitch_bend_c, 1, 8192
3, 69778, Pitch_bend_c, 1, 8192
3, 69779, Pitch_bend_c, 1, 8192
3, 69780, Pitch_bend_c, 1, 8192
3, 69781, Pitch_bend_c, 1, 7680
3, 69783, Pitch_bend_c, 1, 7296
3, 69785, Pitch_bend_c, 1, 6912
3, 69786, Pitch_bend_c, 1, 6656
3, 69788, Pitch_bend_c, 1, 6400
3, 69789, Pitch_bend_c, 1, 6016
3, 69791, Pitch_bend_c, 1, 5888
3, 69792, Pitch_bend_c, 1, 5632
3, 69794, Pitch_bend_c, 1, 5376
3, 69795, Pitch_bend_c, 1, 5120
3, 69797, Pitch_bend_c, 1, 4864
3, 69798, Pitch_bend_c, 1, 4608
3, 69800, Pitch_bend_c, 1, 4352
3, 69801, Pitch_bend_c, 1, 4096
3, 69803, Pitch_bend_c, 1, 3840
3, 69804, Pitch_bend_c, 1, 3584
3, 69806, Pitch_bend_c, 1, 3456
3, 69807, Pitch_bend_c, 1, 3200
3, 69809, Pitch_bend_c, 1, 3072
3, 69810, Pitch_bend_c, 1, 2816
3, 69812, Pitch_bend_c, 1, 2688
3, 69813, Pitch_bend_c, 1, 2560
3, 69815, Pitch_bend_c, 1, 2432
3, 69819, Pitch_bend_c, 1, 2304
3, 69826, Pitch_bend_c, 1, 2432
3, 69828, Pitch_bend_c, 1, 2560
3, 69829, Pitch_bend_c, 1, 2688
3, 69831, Pitch_bend_c, 1, 3072
3, 69832, Pitch_bend_c, 1, 3328
3, 69834, Pitch_bend_c, 1, 3712
3, 69835, Pitch_bend_c, 1, 4352
3, 69837, Pitch_bend_c, 1, 5120
3, 69838, Pitch_bend_c, 1, 6144
3, 69840, Pitch_bend_c, 1, 7296
3, 69841, Pitch_bend_c, 1, 8192
3, 69965, Note_on_c, 1, 33, 73
3, 69978, Note_on_c, 1, 45, 0
3, 70145, Note_on_c, 1, 45, 67
3, 70167, Note_on_c, 1, 45, 0
3, 70207, Note_on_c, 1, 45, 67
3, 70328, Note_on_c, 1, 33, 0
3, 70391, Note_on_c, 1, 33, 78
3, 70401, Note_on_c, 1, 45, 0
3, 70679, Note_on_c, 1, 45, 53
3, 70750, Note_on_c, 1, 45, 0
3, 70798, Note_on_c, 1, 45, 51
3, 70833, Note_on_c, 1, 33, 0
3, 70863, Note_on_c, 1, 33, 50
3, 70887, Note_on_c, 1, 33, 0
3, 70918, Note_on_c, 1, 33, 49
3, 70925, Note_on_c, 1, 45, 0
3, 71041, Note_on_c, 1, 45, 46
3, 71078, Note_on_c, 1, 45, 0
3, 71148, Note_on_c, 1, 45, 44
3, 71226, Note_on_c, 1, 33, 0
3, 71280, Note_on_c, 1, 33, 42
3, 71287, Note_on_c, 1, 45, 0
3, 71345, Note_on_c, 1, 45, 41
3, 71361, Note_on_c, 1, 45, 0
3, 71407, Note_on_c, 1, 45, 43
3, 71423, Note_on_c, 1, 45, 0
3, 71464, Note_on_c, 1, 45, 50
3, 71483, Note_on_c, 1, 45, 0
3, 71527, Note_on_c, 1, 45, 58
3, 71565, Note_on_c, 1, 33, 0
3, 71592, Note_on_c, 1, 33, 36
3, 71637, Note_on_c, 1, 33, 0
3, 71654, Note_on_c, 1, 33, 35
3, 71661, Note_on_c, 1, 45, 0
3, 71766, Note_on_c, 1, 45, 32
3, 71793, Note_on_c, 1, 33, 0
3, 71830, Note_on_c, 1, 33, 32
3, 71869, Note_on_c, 1, 33, 0
3, 71892, Note_on_c, 1, 33, 30
3, 71910, Note_on_c, 1, 45, 0
3, 71948, Note_on_c, 1, 45, 42
3, 71978, Note_on_c, 1, 33, 0
3, 72003, Note_on_c, 1, 33, 28
3, 72049, Note_on_c, 1, 33, 0
3, 72067, Note_on_c, 1, 33, 27
3, 72075, Note_on_c, 1, 45, 0
3, 72119, Note_on_c, 1, 45, 34
3, 72274, Note_on_c, 1, 33, 0
3, 72301, Note_on_c, 1, 33, 23
3, 72327, Note_on_c, 1, 33, 0
3, 72354, Note_on_c, 1, 33, 22
3, 72508, Note_on_c, 1, 45, 0
3, 72543, Note_on_c, 1, 45, 18
3, 72554, Note_on_c, 1, 33, 0
3, 72601, Note_on_c, 1, 33, 22
3, 72661, Note_on_c, 1, 33, 0
3, 72670, Note_on_c, 1, 33, 20
3, 72681, Note_on_c, 1, 45, 0
3, 72781, Note_on_c, 1, 45, 14
3, 72802, Note_on_c, 1, 33, 0
3, 72843, Note_on_c, 1, 33, 12
3, 72887, Note_on_c, 1, 33, 0
3, 72912, Note_on_c, 1, 33, 11
3, 72921, Note_on_c, 1, 45, 0
3, 72967, Note_on_c, 1, 45, 10
3, 72977, Note_on_c, 1, 33, 0
3, 73026, Note_on_c, 1, 33, 9
3, 73069, Note_on_c, 1, 45, 0
3, 73098, Note_on_c, 1, 45, 7
3, 73123, Note_on_c, 1, 33, 0
3, 73153, Note_on_c, 1, 33, 7
3, 73169, Note_on_c, 1, 45, 0
3, 73208, Note_on_c, 1, 45, 6
3, 73212, Note_on_c, 1, 33, 0
3, 73266, Note_on_c, 1, 33, 4
3, 73278, Note_on_c, 1, 45, 0
3, 73326, Note_on_c, 1, 45, 3
3, 73327, Note_on_c, 1, 33, 0
3, 73384, Note_on_c, 1, 33, 2
3, 73388, Note_on_c, 1, 45, 0
3, 73427, Note_on_c, 1, 33, 0
3, 73447, Note_on_c, 1, 33, 1
3, 73541, Note_on_c, 1, 33, 0
3, 73564, Note_on_c, 1, 33, 1
3, 73831, Note_on_c, 1, 33, 0
3, 73831, End_track
4, 0, Start_track
4, 0, Title_t, "Drums"
4, 0, Program_c, 9, 32
4, 0, Note_on_c, 9, 44, 72
4, 36, Note_on_c, 9, 44, 0
4, 90, Note_on_c, 9, 59, 65
4, 97, Note_on_c, 9, 59, 0
4, 120, Note_on_c, 9, 44, 71
4, 150, Note_on_c, 9, 59, 69
4, 157, Note_on_c, 9, 44, 0
4, 158, Note_on_c, 9, 59, 0
4, 192, Note_on_c, 9, 36, 26
4, 200, Note_on_c, 9, 36, 0
4, 240, Note_on_c, 9, 44, 65
4, 252, Note_on_c, 9, 36, 30
4, 260, Note_on_c, 9, 36, 0
4, 285, Note_on_c, 9, 44, 0
4, 300, Note_on_c, 9, 59, 70
4, 313, Note_on_c, 9, 59, 0
4, 360, Note_on_c, 9, 59, 80
4, 360, Note_on_c, 9, 44, 60
4, 376, Note_on_c, 9, 59, 0
4, 408, Note_on_c, 9, 44, 0
4, 480, Note_on_c, 9, 59, 64
4, 480, Note_on_c, 9, 44, 60
4, 487, Note_on_c, 9, 59, 0
4, 553, Note_on_c, 9, 44, 0
4, 600, Note_on_c, 9, 44, 64
4, 627, Note_on_c, 9, 44, 0
4, 630, Note_on_c, 9, 46, 74
4, 660, Note_on_c, 9, 59, 73
4, 675, Note_on_c, 9, 59, 0
4, 696, Note_on_c, 9, 36, 28
4, 700, Note_on_c, 9, 46, 0
4, 705, Note_on_c, 9, 36, 0
4, 720, Note_on_c, 9, 44, 63
4, 723, Note_on_c, 9, 36, 33
4, 744, Note_on_c, 9, 36, 0
4, 769, Note_on_c, 9, 44, 0
4, 784, Note_on_c, 9, 36, 31
4, 805, Note_on_c, 9, 36, 0
4, 840, Note_on_c, 9, 59, 72
4, 840, Note_on_c, 9, 44, 59
4, 847, Note_on_c, 9, 59, 0
4, 913, Note_on_c, 9, 44, 0
4, 960, Note_on_c, 9, 53, 67
4, 960, Note_on_c, 9, 44, 56
4, 963, Note_on_c, 9, 37, 53
4, 969, Note_on_c, 9, 53, 0
4, 974, Note_on_c, 9, 37, 0
4, 990, Note_on_c, 9, 59, 76
4, 992, Note_on_c, 9, 37, 53
4, 1004, Note_on_c, 9, 37, 0
4, 1013, Note_on_c, 9, 59, 0
4, 1020, Note_on_c, 9, 36, 35
4, 1021, Note_on_c, 9, 44, 0
4, 1042, Note_on_c, 9, 36, 0
4, 1080, Note_on_c, 9, 53, 50
4, 1080, Note_on_c, 9, 44, 59
4, 1084, Note_on_c, 9, 36, 29
4, 1088, Note_on_c, 9, 53, 0
4, 1110, Note_on_c, 9, 59, 76
4, 1114, Note_on_c, 9, 36, 0
4, 1127, Note_on_c, 9, 44, 0
4, 1148, Note_on_c, 9, 59, 0
4, 1200, Note_on_c, 9, 44, 68
4, 1230, Note_on_c, 9, 59, 36
4, 1239, Note_on_c, 9, 59, 0
4, 1256, Note_on_c, 9, 44, 0
4, 1260, Note_on_c, 9, 59, 29
4, 1267, Note_on_c, 9, 59, 0
4, 1320, Note_on_c, 9, 59, 41
4, 1320, Note_on_c, 9, 44, 65
4, 1330, Note_on_c, 9, 59, 0
4, 1380, Note_on_c, 9, 59, 77
4, 1382, Note_on_c, 9, 38, 27
4, 1386, Note_on_c, 9, 44, 0
4, 1387, Note_on_c, 9, 59, 0
4, 1394, Note_on_c, 9, 38, 0
4, 1410, Note_on_c, 9, 38, 31
4, 1421, Note_on_c, 9, 38, 0
4, 1436, Note_on_c, 9, 36, 37
4, 1440, Note_on_c, 9, 59, 84
4, 1440, Note_on_c, 9, 44, 74
4, 1456, Note_on_c, 9, 59, 0
4, 1459, Note_on_c, 9, 36, 0
4, 1483, Note_on_c, 9, 44, 0
4, 1560, Note_on_c, 9, 59, 31
4, 1560, Note_on_c, 9, 44, 69
4, 1568, Note_on_c, 9, 59, 0
4, 1603, Note_on_c, 9, 44, 0
4, 1620, Note_on_c, 9, 59, 61
4, 1622, Note_on_c, 9, 36, 28
4, 1628, Note_on_c, 9, 59, 0
4, 1638, Note_on_c, 9, 36, 0
4, 1680, Note_on_c, 9, 53, 36
4, 1680, Note_on_c, 9, 44, 61
4, 1681, Note_on_c, 9, 36, 26
4, 1691, Note_on_c, 9, 36, 0
4, 1696, Note_on_c, 9, 53, 0
4, 1730, Note_on_c, 9, 44, 0
4, 1740, Note_on_c, 9, 53, 63
4, 1767, Note_on_c, 9, 53, 0
4, 1800, Note_on_c, 9, 59, 24
4, 1800, Note_on_c, 9, 44, 69
4, 1808, Note_on_c, 9, 59, 0
4, 1844, Note_on_c, 9, 44, 0
4, 1920, Note_on_c, 9, 59, 60
4, 1920, Note_on_c, 9, 44, 71
4, 1931, Note_on_c, 9, 59, 0
4, 1972, Note_on_c, 9, 44, 0
4, 2040, Note_on_c, 9, 44, 63
4, 2066, Note_on_c, 9, 44, 0
4, 2070, Note_on_c, 9, 46, 72
4, 2100, Note_on_c, 9, 59, 65
4, 2111, Note_on_c, 9, 59, 0
4, 2143, Note_on_c, 9, 46, 0
4, 2160, Note_on_c, 9, 59, 79
4, 2160, Note_on_c, 9, 44, 71
4, 2188, Note_on_c, 9, 59, 0
4, 2221, Note_on_c, 9, 44, 0
4, 2280, Note_on_c, 9, 59, 48
4, 2280, Note_on_c, 9, 44, 73
4, 2288, Note_on_c, 9, 59, 0
4, 2318, Note_on_c, 9, 44, 0
4, 2336, Note_on_c, 9, 38, 22
4, 2340, Note_on_c, 9, 53, 71
4, 2340, Note_on_c, 9, 51, 55
4, 2340, Note_on_c, 9, 59, 65
4, 2347, Note_on_c, 9, 38, 0
4, 2361, Note_on_c, 9, 59, 0
4, 2365, Note_on_c, 9, 38, 27
4, 2375, Note_on_c, 9, 38, 0
4, 2385, Note_on_c, 9, 51, 0
4, 2395, Note_on_c, 9, 36, 23
4, 2398, Note_on_c, 9, 53, 0
4, 2400, Note_on_c, 9, 46, 69
4, 2407, Note_on_c, 9, 36, 0
4, 2447, Note_on_c, 9, 46, 0
4, 2453, Note_on_c, 9, 36, 30
4, 2460, Note_on_c, 9, 59, 68
4, 2467, Note_on_c, 9, 59, 0
4, 2482, Note_on_c, 9, 36, 0
4, 2520, Note_on_c, 9, 44, 71
4, 2550, Note_on_c, 9, 53, 71
4, 2550, Note_on_c, 9, 59, 73
4, 2550, Note_on_c, 9, 51, 58
4, 2559, Note_on_c, 9, 44, 0
4, 2573, Note_on_c, 9, 59, 0
4, 2583, Note_on_c, 9, 53, 0
4, 2584, Note_on_c, 9, 51, 0
4, 2640, Note_on_c, 9, 59, 60
4, 2640, Note_on_c, 9, 44, 67
4, 2651, Note_on_c, 9, 59, 0
4, 2683, Note_on_c, 9, 44, 0
4, 2700, Note_on_c, 9, 59, 79
4, 2700, Note_on_c, 9, 51, 67
4, 2700, Note_on_c, 9, 53, 71
4, 2717, Note_on_c, 9, 53, 0
4, 2719, Note_on_c, 9, 51, 0
4, 2720, Note_on_c, 9, 59, 0
4, 2760, Note_on_c, 9, 44, 61
4, 2765, Note_on_c, 9, 37, 42
4, 2773, Note_on_c, 9, 37, 0
4, 2783, Note_on_c, 9, 44, 0
4, 2790, Note_on_c, 9, 46, 69
4, 2792, Note_on_c, 9, 37, 63
4, 2803, Note_on_c, 9, 37, 0
4, 2819, Note_on_c, 9, 36, 32
4, 2820, Note_on_c, 9, 59, 58
4, 2830, Note_on_c, 9, 59, 0
4, 2836, Note_on_c, 9, 36, 0
4, 2853, Note_on_c, 9, 36, 39
4, 2861, Note_on_c, 9, 46, 0
4, 2869, Note_on_c, 9, 36, 0
4, 2880, Note_on_c, 9, 53, 68
4, 2880, Note_on_c, 9, 51, 59
4, 2880, Note_on_c, 9, 59, 76
4, 2880, Note_on_c, 9, 36, 47
4, 2880, Note_on_c, 9, 44, 68
4, 2895, Note_on_c, 9, 59, 0
4, 2895, Note_on_c, 9, 53, 0
4, 2895, Note_on_c, 9, 51, 0
4, 2904, Note_on_c, 9, 36, 0
4, 2929, Note_on_c, 9, 44, 0
4, 2943, Note_on_c, 9, 36, 36
4, 2976, Note_on_c, 9, 36, 0
4, 3000, Note_on_c, 9, 44, 69
4, 3060, Note_on_c, 9, 59, 61
4, 3064, Note_on_c, 9, 44, 0
4, 3068, Note_on_c, 9, 59, 0
4, 3120, Note_on_c, 9, 59, 70
4, 3120, Note_on_c, 9, 44, 70
4, 3128, Note_on_c, 9, 59, 0
4, 3155, Note_on_c, 9, 38, 25
4, 3160, Note_on_c, 9, 38, 0
4, 3171, Note_on_c, 9, 44, 0
4, 3180, Note_on_c, 9, 36, 19
4, 3203, Note_on_c, 9, 36, 0
4, 3240, Note_on_c, 9, 44, 67
4, 3242, Note_on_c, 9, 36, 28
4, 3254, Note_on_c, 9, 36, 0
4, 3292, Note_on_c, 9, 44, 0
4, 3300, Note_on_c, 9, 59, 37
4, 3310, Note_on_c, 9, 59, 0
4, 3360, Note_on_c, 9, 59, 72
4, 3360, Note_on_c, 9, 44, 71
4, 3372, Note_on_c, 9, 59, 0
4, 3416, Note_on_c, 9, 44, 0
4, 3480, Note_on_c, 9, 59, 42
4, 3480, Note_on_c, 9, 44, 75
4, 3490, Note_on_c, 9, 59, 0
4, 3521, Note_on_c, 9, 38, 33
4, 3526, Note_on_c, 9, 38, 0
4, 3536, Note_on_c, 9, 44, 0
4, 3540, Note_on_c, 9, 59, 74
4, 3544, Note_on_c, 9, 36, 30
4, 3550, Note_on_c, 9, 59, 0
4, 3553, Note_on_c, 9, 36, 0
4, 3600, Note_on_c, 9, 59, 76
4, 3600, Note_on_c, 9, 44, 72
4, 3611, Note_on_c, 9, 59, 0
4, 3643, Note_on_c, 9, 44, 0
4, 3720, Note_on_c, 9, 59, 65
4, 3720, Note_on_c, 9, 44, 68
4, 3729, Note_on_c, 9, 59, 0
4, 3759, Note_on_c, 9, 38, 21
4, 3765, Note_on_c, 9, 38, 0
4, 3768, Note_on_c, 9, 44, 0
4, 3840, Note_on_c, 9, 46, 73
4, 3891, Note_on_c, 9, 46, 0
4, 3905, Note_on_c, 9, 36, 17
4, 3913, Note_on_c, 9, 36, 0
4, 3960, Note_on_c, 9, 59, 57
4, 3960, Note_on_c, 9, 44, 72
4, 3969, Note_on_c, 9, 59, 0
4, 4003, Note_on_c, 9, 44, 0
4, 4080, Note_on_c, 9, 59, 46
4, 4080, Note_on_c, 9, 44, 69
4, 4088, Note_on_c, 9, 59, 0
4, 4125, Note_on_c, 9, 44, 0
4, 4140, Note_on_c, 9, 59, 48
4, 4150, Note_on_c, 9, 59, 0
4, 4178, Note_on_c, 9, 38, 29
4, 4186, Note_on_c, 9, 38, 0
4, 4200, Note_on_c, 9, 51, 62
4, 4200, Note_on_c, 9, 53, 60
4, 4200, Note_on_c, 9, 44, 68
4, 4202, Note_on_c, 9, 38, 30
4, 4214, Note_on_c, 9, 38, 0
4, 4215, Note_on_c, 9, 51, 0
4, 4216, Note_on_c, 9, 53, 0
4, 4225, Note_on_c, 9, 44, 0
4, 4230, Note_on_c, 9, 46, 71
4, 4232, Note_on_c, 9, 38, 35
4, 4240, Note_on_c, 9, 38, 0
4, 4253, Note_on_c, 9, 36, 35
4, 4260, Note_on_c, 9, 53, 70
4, 4260, Note_on_c, 9, 51, 58
4, 4272, Note_on_c, 9, 36, 0
4, 4280, Note_on_c, 9, 51, 0
4, 4280, Note_on_c, 9, 53, 0
4, 4300, Note_on_c, 9, 46, 0
4, 4314, Note_on_c, 9, 36, 47
4, 4320, Note_on_c, 9, 59, 58
4, 4320, Note_on_c, 9, 44, 74
4, 4336, Note_on_c, 9, 59, 0
4, 4342, Note_on_c, 9, 36, 0
4, 4372, Note_on_c, 9, 36, 46
4, 4383, Note_on_c, 9, 44, 0
4, 4399, Note_on_c, 9, 36, 0
4, 4433, Note_on_c, 9, 36, 44
4, 4440, Note_on_c, 9, 44, 75
4, 4456, Note_on_c, 9, 36, 0
4, 4484, Note_on_c, 9, 44, 0
4, 4500, Note_on_c, 9, 59, 64
4, 4507, Note_on_c, 9, 59, 0
4, 4560, Note_on_c, 9, 59, 67
4, 4560, Note_on_c, 9, 44, 74
4, 4567, Note_on_c, 9, 59, 0
4, 4598, Note_on_c, 9, 44, 0
4, 4620, Note_on_c, 9, 51, 74
4, 4620, Note_on_c, 9, 53, 79
4, 4636, Note_on_c, 9, 53, 0
4, 4641, Note_on_c, 9, 51, 0
4, 4660, Note_on_c, 9, 38, 26
4, 4667, Note_on_c, 9, 38, 0
4, 4680, Note_on_c, 9, 53, 74
4, 4680, Note_on_c, 9, 51, 62
4, 4680, Note_on_c, 9, 44, 73
4, 4685, Note_on_c, 9, 36, 21
4, 4696, Note_on_c, 9, 36, 0
4, 4698, Note_on_c, 9, 51, 0
4, 4699, Note_on_c, 9, 53, 0
4, 4722, Note_on_c, 9, 44, 0
4, 4736, Note_on_c, 9, 36, 23
4, 4740, Note_on_c, 9, 59, 37
4, 4752, Note_on_c, 9, 59, 0
4, 4756, Note_on_c, 9, 36, 0
4, 4800, Note_on_c, 9, 59, 48
4, 4800, Note_on_c, 9, 44, 72
4, 4810, Note_on_c, 9, 59, 0
4, 4826, Note_on_c, 9, 38, 31
4, 4832, Note_on_c, 9, 38, 0
4, 4834, Note_on_c, 9, 44, 0
4, 4851, Note_on_c, 9, 36, 23
4, 4860, Note_on_c, 9, 59, 32
4, 4863, Note_on_c, 9, 36, 0
4, 4870, Note_on_c, 9, 59, 0
4, 4910, Note_on_c, 9, 36, 34
4, 4920, Note_on_c, 9, 59, 59
4, 4920, Note_on_c, 9, 44, 73
4, 4926, Note_on_c, 9, 36, 0
4, 4927, Note_on_c, 9, 59, 0
4, 4957, Note_on_c, 9, 44, 0
4, 4980, Note_on_c, 9, 59, 94
4, 4999, Note_on_c, 9, 59, 0
4, 5002, Note_on_c, 9, 38, 34
4, 5007, Note_on_c, 9, 38, 0
4, 5023, Note_on_c, 9, 36, 28
4, 5040, Note_on_c, 9, 44, 72
4, 5045, Note_on_c, 9, 36, 0
4, 5073, Note_on_c, 9, 44, 0
4, 5095, Note_on_c, 9, 36, 31
4, 5100, Note_on_c, 9, 59, 43
4, 5107, Note_on_c, 9, 36, 0
4, 5108, Note_on_c, 9, 59, 0
4, 5155, Note_on_c, 9, 36, 31
4, 5160, Note_on_c, 9, 59, 80
4, 5160, Note_on_c, 9, 44, 74
4, 5167, Note_on_c, 9, 36, 0
4, 5176, Note_on_c, 9, 59, 0
4, 5192, Note_on_c, 9, 44, 0
4, 5280, Note_on_c, 9, 59, 74
4, 5280, Note_on_c, 9, 44, 74
4, 5289, Note_on_c, 9, 59, 0
4, 5318, Note_on_c, 9, 44, 0
4, 5336, Note_on_c, 9, 38, 31
4, 5340, Note_on_c, 9, 59, 95
4, 5341, Note_on_c, 9, 38, 0
4, 5358, Note_on_c, 9, 59, 0
4, 5400, Note_on_c, 9, 44, 71
4, 5403, Note_on_c, 9, 36, 14
4, 5410, Note_on_c, 9, 36, 0
4, 5441, Note_on_c, 9, 44, 0
4, 5460, Note_on_c, 9, 59, 73
4, 5460, Note_on_c, 9, 53, 70
4, 5460, Note_on_c, 9, 36, 27
4, 5472, Note_on_c, 9, 36, 0
4, 5476, Note_on_c, 9, 59, 0
4, 5479, Note_on_c, 9, 53, 0
4, 5520, Note_on_c, 9, 59, 76
4, 5520, Note_on_c, 9, 53, 73
4, 5520, Note_on_c, 9, 44, 73
4, 5540, Note_on_c, 9, 59, 0
4, 5546, Note_on_c, 9, 53, 0
4, 5564, Note_on_c, 9, 44, 0
4, 5586, Note_on_c, 9, 36, 32
4, 5601, Note_on_c, 9, 36, 0
4, 5640, Note_on_c, 9, 59, 74
4, 5640, Note_on_c, 9, 53, 51
4, 5640, Note_on_c, 9, 44, 67
4, 5644, Note_on_c, 9, 46, 49
4, 5650, Note_on_c, 9, 59, 0
4, 5651, Note_on_c, 9, 53, 0
4, 5660, Note_on_c, 9, 46, 0
4, 5664, Note_on_c, 9, 44, 0
4, 5670, Note_on_c, 9, 46, 73
4, 5696, Note_on_c, 9, 46, 77
4, 5700, Note_on_c, 9, 53, 65
4, 5700, Note_on_c, 9, 59, 81
4, 5711, Note_on_c, 9, 46, 0
4, 5713, Note_on_c, 9, 59, 0
4, 5717, Note_on_c, 9, 53, 0
4, 5742, Note_on_c, 9, 46, 0
4, 5760, Note_on_c, 9, 59, 80
4, 5760, Note_on_c, 9, 53, 53
4, 5760, Note_on_c, 9, 44, 73
4, 5772, Note_on_c, 9, 53, 0
4, 5777, Note_on_c, 9, 59, 0
4, 5808, Note_on_c, 9, 44, 0
4, 5847, Note_on_c, 9, 38, 29
4, 5853, Note_on_c, 9, 38, 0
4, 5868, Note_on_c, 9, 38, 26
4, 5876, Note_on_c, 9, 38, 0
4, 5880, Note_on_c, 9, 44, 62
4, 5924, Note_on_c, 9, 44, 0
4, 5940, Note_on_c, 9, 59, 50
4, 5948, Note_on_c, 9, 59, 0
4, 6000, Note_on_c, 9, 59, 47
4, 6000, Note_on_c, 9, 44, 63
4, 6008, Note_on_c, 9, 59, 0
4, 6030, Note_on_c, 9, 44, 0
4, 6030, Note_on_c, 9, 46, 71
4, 6049, Note_on_c, 9, 36, 47
4, 6060, Note_on_c, 9, 51, 53
4, 6060, Note_on_c, 9, 53, 60
4, 6073, Note_on_c, 9, 53, 0
4, 6078, Note_on_c, 9, 51, 0
4, 6088, Note_on_c, 9, 36, 0
4, 6098, Note_on_c, 9, 46, 0
4, 6113, Note_on_c, 9, 36, 32
4, 6120, Note_on_c, 9, 59, 49
4, 6120, Note_on_c, 9, 44, 60
4, 6135, Note_on_c, 9, 59, 0
4, 6138, Note_on_c, 9, 36, 0
4, 6189, Note_on_c, 9, 44, 0
4, 6240, Note_on_c, 9, 59, 29
4, 6240, Note_on_c, 9, 44, 71
4, 6250, Note_on_c, 9, 59, 0
4, 6300, Note_on_c, 9, 59, 64
4, 6309, Note_on_c, 9, 59, 0
4, 6315, Note_on_c, 9, 44, 0
4, 6360, Note_on_c, 9, 59, 77
4, 6360, Note_on_c, 9, 44, 71
4, 6374, Note_on_c, 9, 59, 0
4, 6427, Note_on_c, 9, 44, 0
4, 6480, Note_on_c, 9, 59, 74
4, 6480, Note_on_c, 9, 44, 71
4, 6498, Note_on_c, 9, 59, 0
4, 6541, Note_on_c, 9, 44, 0
4, 6600, Note_on_c, 9, 44, 69
4, 6670, Note_on_c, 9, 44, 0
4, 6697, Note_on_c, 9, 38, 28
4, 6704, Note_on_c, 9, 38, 0
4, 6720, Note_on_c, 9, 59, 72
4, 6720, Note_on_c, 9, 44, 68
4, 6723, Note_on_c, 9, 38, 27
4, 6733, Note_on_c, 9, 38, 0
4, 6734, Note_on_c, 9, 59, 0
4, 6784, Note_on_c, 9, 36, 18
4, 6786, Note_on_c, 9, 44, 0
4, 6796, Note_on_c, 9, 36, 0
4, 6810, Note_on_c, 9, 59, 64
4, 6818, Note_on_c, 9, 59, 0
4, 6840, Note_on_c, 9, 59, 67
4, 6840, Note_on_c, 9, 44, 71
4, 6842, Note_on_c, 9, 36, 32
4, 6861, Note_on_c, 9, 36, 0
4, 6862, Note_on_c, 9, 59, 0
4, 6905, Note_on_c, 9, 44, 0
4, 6932, Note_on_c, 9, 38, 26
4, 6939, Note_on_c, 9, 38, 0
4, 6957, Note_on_c, 9, 38, 24
4, 6960, Note_on_c, 9, 59, 70
4, 6960, Note_on_c, 9, 44, 71
4, 6966, Note_on_c, 9, 38, 0
4, 6968, Note_on_c, 9, 59, 0
4, 7021, Note_on_c, 9, 36, 22
4, 7026, Note_on_c, 9, 44, 0
4, 7034, Note_on_c, 9, 36, 0
4, 7080, Note_on_c, 9, 59, 62
4, 7080, Note_on_c, 9, 59, 71
4, 7080, Note_on_c, 9, 46, 71
4, 7081, Note_on_c, 9, 38, 26
4, 7087, Note_on_c, 9, 59, 0
4, 7088, Note_on_c, 9, 38, 0
4, 7097, Note_on_c, 9, 59, 0
4, 7135, Note_on_c, 9, 46, 0
4, 7138, Note_on_c, 9, 36, 22
4, 7172, Note_on_c, 9, 36, 0
4, 7200, Note_on_c, 9, 59, 68
4, 7200, Note_on_c, 9, 44, 69
4, 7203, Note_on_c, 9, 37, 49
4, 7209, Note_on_c, 9, 37, 0
4, 7213, Note_on_c, 9, 59, 0
4, 7257, Note_on_c, 9, 44, 0
4, 7290, Note_on_c, 9, 59, 62
4, 7297, Note_on_c, 9, 59, 0
4, 7300, Note_on_c, 9, 36, 20
4, 7310, Note_on_c, 9, 36, 0
4, 7320, Note_on_c, 9, 59, 72
4, 7320, Note_on_c, 9, 37, 62
4, 7320, Note_on_c, 9, 44, 70
4, 7338, Note_on_c, 9, 37, 0
4, 7345, Note_on_c, 9, 59, 0
4, 7377, Note_on_c, 9, 44, 0
4, 7420, Note_on_c, 9, 36, 19
4, 7429, Note_on_c, 9, 36, 0
4, 7440, Note_on_c, 9, 59, 74
4, 7440, Note_on_c, 9, 44, 71
4, 7441, Note_on_c, 9, 37, 62
4, 7455, Note_on_c, 9, 59, 0
4, 7458, Note_on_c, 9, 37, 0
4, 7500, Note_on_c, 9, 36, 26
4, 7510, Note_on_c, 9, 44, 0
4, 7526, Note_on_c, 9, 36, 0
4, 7530, Note_on_c, 9, 59, 61
4, 7540, Note_on_c, 9, 59, 0
4, 7559, Note_on_c, 9, 36, 37
4, 7560, Note_on_c, 9, 59, 80
4, 7560, Note_on_c, 9, 44, 67
4, 7579, Note_on_c, 9, 36, 0
4, 7586, Note_on_c, 9, 59, 0
4, 7623, Note_on_c, 9, 44, 0
4, 7654, Note_on_c, 9, 37, 56
4, 7664, Note_on_c, 9, 37, 0
4, 7680, Note_on_c, 9, 59, 70
4, 7680, Note_on_c, 9, 37, 42
4, 7680, Note_on_c, 9, 44, 69
4, 7699, Note_on_c, 9, 59, 0
4, 7701, Note_on_c, 9, 37, 0
4, 7742, Note_on_c, 9, 44, 0
4, 7770, Note_on_c, 9, 59, 63
4, 7779, Note_on_c, 9, 59, 0
4, 7779, Note_on_c, 9, 37, 34
4, 7788, Note_on_c, 9, 37, 0
4, 7800, Note_on_c, 9, 59, 71
4, 7800, Note_on_c, 9, 44, 68
4, 7804, Note_on_c, 9, 37, 44
4, 7817, Note_on_c, 9, 59, 0
4, 7823, Note_on_c, 9, 37, 0
4, 7830, Note_on_c, 9, 46, 74
4, 7831, Note_on_c, 9, 44, 0
4, 7860, Note_on_c, 9, 59, 78
4, 7864, Note_on_c, 9, 38, 33
4, 7870, Note_on_c, 9, 59, 0
4, 7871, Note_on_c, 9, 38, 0
4, 7889, Note_on_c, 9, 38, 34
4, 7898, Note_on_c, 9, 46, 0
4, 7902, Note_on_c, 9, 38, 0
4, 7915, Note_on_c, 9, 36, 37
4, 7920, Note_on_c, 9, 59, 74
4, 7920, Note_on_c, 9, 44, 67
4, 7940, Note_on_c, 9, 36, 0
4, 7943, Note_on_c, 9, 59, 0
4, 7982, Note_on_c, 9, 36, 34
4, 7998, Note_on_c, 9, 36, 0
4, 8006, Note_on_c, 9, 44, 0
4, 8010, Note_on_c, 9, 59, 50
4, 8018, Note_on_c, 9, 59, 0
4, 8040, Note_on_c, 9, 59, 60
4, 8040, Note_on_c, 9, 44, 69
4, 8056, Note_on_c, 9, 59, 0
4, 8100, Note_on_c, 9, 59, 71
4, 8111, Note_on_c, 9, 59, 0
4, 8117, Note_on_c, 9, 44, 0
4, 8160, Note_on_c, 9, 59, 79
4, 8160, Note_on_c, 9, 44, 70
4, 8223, Note_on_c, 9, 59, 0
4, 8236, Note_on_c, 9, 44, 0
4, 8280, Note_on_c, 9, 44, 74
4, 8340, Note_on_c, 9, 59, 60
4, 8348, Note_on_c, 9, 59, 0
4, 8348, Note_on_c, 9, 44, 0
4, 8367, Note_on_c, 9, 38, 21
4, 8370, Note_on_c, 9, 59, 68
4, 8374, Note_on_c, 9, 38, 0
4, 8378, Note_on_c, 9, 59, 0
4, 8395, Note_on_c, 9, 38, 28
4, 8400, Note_on_c, 9, 44, 73
4, 8403, Note_on_c, 9, 38, 0
4, 8428, Note_on_c, 9, 36, 31
4, 8430, Note_on_c, 9, 59, 43
4, 8436, Note_on_c, 9, 36, 0
4, 8439, Note_on_c, 9, 59, 0
4, 8452, Note_on_c, 9, 38, 18
4, 8458, Note_on_c, 9, 38, 0
4, 8460, Note_on_c, 9, 59, 74
4, 8470, Note_on_c, 9, 44, 0
4, 8475, Note_on_c, 9, 59, 0
4, 8478, Note_on_c, 9, 38, 18
4, 8486, Note_on_c, 9, 38, 0
4, 8510, Note_on_c, 9, 38, 17
4, 8518, Note_on_c, 9, 38, 0
4, 8520, Note_on_c, 9, 44, 69
4, 8545, Note_on_c, 9, 44, 0
4, 8550, Note_on_c, 9, 46, 72
4, 8574, Note_on_c, 9, 38, 31
4, 8583, Note_on_c, 9, 38, 0
4, 8629, Note_on_c, 9, 46, 0
4, 8637, Note_on_c, 9, 36, 31
4, 8640, Note_on_c, 9, 59, 70
4, 8640, Note_on_c, 9, 44, 70
4, 8655, Note_on_c, 9, 36, 0
4, 8657, Note_on_c, 9, 59, 0
4, 8700, Note_on_c, 9, 36, 30
4, 8713, Note_on_c, 9, 44, 0
4, 8720, Note_on_c, 9, 36, 0
4, 8760, Note_on_c, 9, 44, 71
4, 8811, Note_on_c, 9, 44, 0
4, 8820, Note_on_c, 9, 59, 68
4, 8829, Note_on_c, 9, 59, 0
4, 8880, Note_on_c, 9, 59, 83
4, 8880, Note_on_c, 9, 44, 71
4, 8900, Note_on_c, 9, 59, 0
4, 8934, Note_on_c, 9, 44, 0
4, 8996, Note_on_c, 9, 38, 18
4, 9000, Note_on_c, 9, 59, 76
4, 9000, Note_on_c, 9, 44, 74
4, 9006, Note_on_c, 9, 38, 0
4, 9016, Note_on_c, 9, 59, 0
4, 9029, Note_on_c, 9, 38, 20
4, 9038, Note_on_c, 9, 38, 0
4, 9056, Note_on_c, 9, 44, 0
4, 9061, Note_on_c, 9, 36, 23
4, 9070, Note_on_c, 9, 36, 0
4, 9120, Note_on_c, 9, 53, 78
4, 9120, Note_on_c, 9, 59, 74
4, 9120, Note_on_c, 9, 44, 69
4, 9138, Note_on_c, 9, 59, 0
4, 9139, Note_on_c, 9, 53, 0
4, 9166, Note_on_c, 9, 44, 0
4, 9212, Note_on_c, 9, 38, 32
4, 9220, Note_on_c, 9, 38, 0
4, 9240, Note_on_c, 9, 53, 72
4, 9240, Note_on_c, 9, 59, 76
4, 9240, Note_on_c, 9, 44, 70
4, 9245, Note_on_c, 9, 36, 25
4, 9257, Note_on_c, 9, 36, 0
4, 9257, Note_on_c, 9, 53, 0
4, 9257, Note_on_c, 9, 59, 0
4, 9269, Note_on_c, 9, 44, 0
4, 9270, Note_on_c, 9, 46, 76
4, 9328, Note_on_c, 9, 46, 0
4, 9335, Note_on_c, 9, 38, 25
4, 9341, Note_on_c, 9, 38, 0
4, 9360, Note_on_c, 9, 59, 67
4, 9360, Note_on_c, 9, 44, 71
4, 9372, Note_on_c, 9, 59, 0
4, 9391, Note_on_c, 9, 38, 29
4, 9397, Note_on_c, 9, 38, 0
4, 9424, Note_on_c, 9, 36, 19
4, 9427, Note_on_c, 9, 44, 0
4, 9437, Note_on_c, 9, 36, 0
4, 9480, Note_on_c, 9, 59, 72
4, 9480, Note_on_c, 9, 44, 72
4, 9496, Note_on_c, 9, 59, 0
4, 9540, Note_on_c, 9, 59, 58
4, 9541, Note_on_c, 9, 44, 0
4, 9541, Note_on_c, 9, 38, 28
4, 9548, Note_on_c, 9, 38, 0
4, 9549, Note_on_c, 9, 59, 0
4, 9573, Note_on_c, 9, 38, 30
4, 9580, Note_on_c, 9, 38, 0
4, 9600, Note_on_c, 9, 59, 63
4, 9600, Note_on_c, 9, 44, 73
4, 9608, Note_on_c, 9, 59, 0
4, 9641, Note_on_c, 9, 38, 32
4, 9649, Note_on_c, 9, 38, 0
4, 9659, Note_on_c, 9, 44, 0
4, 9660, Note_on_c, 9, 59, 62
4, 9668, Note_on_c, 9, 59, 0
4, 9697, Note_on_c, 9, 38, 31
4, 9703, Note_on_c, 9, 38, 0
4, 9719, Note_on_c, 9, 36, 29
4, 9720, Note_on_c, 9, 59, 76
4, 9720, Note_on_c, 9, 44, 69
4, 9740, Note_on_c, 9, 59, 0
4, 9744, Note_on_c, 9, 36, 0
4, 9777, Note_on_c, 9, 36, 36
4, 9778, Note_on_c, 9, 44, 0
4, 9799, Note_on_c, 9, 36, 0
4, 9838, Note_on_c, 9, 36, 31
4, 9840, Note_on_c, 9, 59, 80
4, 9840, Note_on_c, 9, 53, 69
4, 9840, Note_on_c, 9, 44, 68
4, 9854, Note_on_c, 9, 36, 0
4, 9891, Note_on_c, 9, 44, 0
4, 9893, Note_on_c, 9, 59, 0
4, 9903, Note_on_c, 9, 53, 0
4, 9960, Note_on_c, 9, 53, 62
4, 9960, Note_on_c, 9, 59, 75
4, 9960, Note_on_c, 9, 44, 72
4, 9981, Note_on_c, 9, 53, 0
4, 9986, Note_on_c, 9, 59, 0
4, 9987, Note_on_c, 9, 38, 27
4, 10000, Note_on_c, 9, 38, 0
4, 10014, Note_on_c, 9, 38, 28
4, 10018, Note_on_c, 9, 44, 0
4, 10027, Note_on_c, 9, 38, 0
4, 10050, Note_on_c, 9, 59, 58
4, 10062, Note_on_c, 9, 59, 0
4, 10077, Note_on_c, 9, 57, 67
4, 10077, Note_on_c, 9, 38, 27
4, 10080, Note_on_c, 9, 59, 68
4, 10080, Note_on_c, 9, 44, 72
4, 10081, Note_on_c, 9, 36, 30
4, 10083, Note_on_c, 9, 38, 0
4, 10085, Note_on_c, 9, 57, 0
4, 10088, Note_on_c, 9, 36, 0
4, 10101, Note_on_c, 9, 59, 0
4, 10125, Note_on_c, 9, 44, 0
4, 10200, Note_on_c, 9, 59, 63
4, 10200, Note_on_c, 9, 44, 71
4, 10208, Note_on_c, 9, 59, 0
4, 10246, Note_on_c, 9, 44, 0
4, 10260, Note_on_c, 9, 59, 60
4, 10263, Note_on_c, 9, 38, 16
4, 10270, Note_on_c, 9, 38, 0
4, 10270, Note_on_c, 9, 59, 0
4, 10293, Note_on_c, 9, 38, 31
4, 10299, Note_on_c, 9, 38, 0
4, 10318, Note_on_c, 9, 36, 27
4, 10320, Note_on_c, 9, 59, 60
4, 10320, Note_on_c, 9, 44, 67
4, 10329, Note_on_c, 9, 59, 0
4, 10335, Note_on_c, 9, 36, 0
4, 10371, Note_on_c, 9, 36, 37
4, 10377, Note_on_c, 9, 44, 0
4, 10380, Note_on_c, 9, 51, 68
4, 10380, Note_on_c, 9, 53, 74
4, 10391, Note_on_c, 9, 36, 0
4, 10397, Note_on_c, 9, 53, 0
4, 10404, Note_on_c, 9, 51, 0
4, 10440, Note_on_c, 9, 59, 62
4, 10440, Note_on_c, 9, 44, 63
4, 10456, Note_on_c, 9, 59, 0
4, 10476, Note_on_c, 9, 44, 0
4, 10500, Note_on_c, 9, 59, 55
4, 10509, Note_on_c, 9, 59, 0
4, 10560, Note_on_c, 9, 59, 73
4, 10560, Note_on_c, 9, 44, 60
4, 10575, Note_on_c, 9, 59, 0
4, 10596, Note_on_c, 9, 44, 0
4, 10614, Note_on_c, 9, 38, 31
4, 10620, Note_on_c, 9, 38, 0
4, 10644, Note_on_c, 9, 36, 30
4, 10659, Note_on_c, 9, 36, 0
4, 10672, Note_on_c, 9, 38, 27
4, 10680, Note_on_c, 9, 46, 71
4, 10696, Note_on_c, 9, 38, 0
4, 10715, Note_on_c, 9, 46, 0
4, 10733, Note_on_c, 9, 36, 26
4, 10740, Note_on_c, 9, 59, 64
4, 10748, Note_on_c, 9, 59, 0
4, 10755, Note_on_c, 9, 36, 0
4, 10794, Note_on_c, 9, 36, 37
4, 10800, Note_on_c, 9, 53, 68
4, 10800, Note_on_c, 9, 51, 59
4, 10800, Note_on_c, 9, 44, 74
4, 10818, Note_on_c, 9, 36, 0
4, 10820, Note_on_c, 9, 53, 0
4, 10823, Note_on_c, 9, 51, 0
4, 10846, Note_on_c, 9, 44, 0
4, 10860, Note_on_c, 9, 59, 52
4, 10879, Note_on_c, 9, 59, 0
4, 10920, Note_on_c, 9, 59, 49
4, 10920, Note_on_c, 9, 44, 69
4, 10929, Note_on_c, 9, 59, 0
4, 10966, Note_on_c, 9, 44, 0
4, 10980, Note_on_c, 9, 59, 58
4, 10983, Note_on_c, 9, 38, 32
4, 10989, Note_on_c, 9, 38, 0
4, 10989, Note_on_c, 9, 59, 0
4, 11040, Note_on_c, 9, 59, 72
4, 11040, Note_on_c, 9, 44, 65
4, 11053, Note_on_c, 9, 59, 0
4, 11065, Note_on_c, 9, 44, 0
4, 11070, Note_on_c, 9, 46, 73
4, 11100, Note_on_c, 9, 51, 53
4, 11100, Note_on_c, 9, 53, 55
4, 11107, Note_on_c, 9, 53, 0
4, 11117, Note_on_c, 9, 51, 0
4, 11131, Note_on_c, 9, 46, 0
4, 11160, Note_on_c, 9, 44, 69
4, 11162, Note_on_c, 9, 38, 35
4, 11172, Note_on_c, 9, 38, 0
4, 11217, Note_on_c, 9, 44, 0
4, 11219, Note_on_c, 9, 38, 37
4, 11220, Note_on_c, 9, 59, 63
4, 11228, Note_on_c, 9, 59, 0
4, 11229, Note_on_c, 9, 38, 0
4, 11280, Note_on_c, 9, 59, 73
4, 11280, Note_on_c, 9, 44, 69
4, 11288, Note_on_c, 9, 59, 0
4, 11329, Note_on_c, 9, 44, 0
4, 11339, Note_on_c, 9, 38, 42
4, 11340, Note_on_c, 9, 53, 64
4, 11340, Note_on_c, 9, 51, 53
4, 11355, Note_on_c, 9, 38, 0
4, 11356, Note_on_c, 9, 53, 0
4, 11364, Note_on_c, 9, 51, 0
4, 11400, Note_on_c, 9, 59, 71
4, 11400, Note_on_c, 9, 44, 62
4, 11409, Note_on_c, 9, 59, 0
4, 11436, Note_on_c, 9, 38, 48
4, 11450, Note_on_c, 9, 38, 0
4, 11460, Note_on_c, 9, 51, 60
4, 11460, Note_on_c, 9, 53, 63
4, 11467, Note_on_c, 9, 53, 0
4, 11476, Note_on_c, 9, 51, 0
4, 11496, Note_on_c, 9, 37, 37
4, 11496, Note_on_c, 9, 36, 42
4, 11499, Note_on_c, 9, 38, 32
4, 11502, Note_on_c, 9, 37, 0
4, 11505, Note_on_c, 9, 38, 0
4, 11507, Note_on_c, 9, 36, 0
4, 11519, Note_on_c, 9, 44, 0
4, 11520, Note_on_c, 9, 51, 83
4, 11520, Note_on_c, 9, 44, 72
4, 11521, Note_on_c, 9, 57, 82
4, 11521, Note_on_c, 9, 38, 38
4, 11522, Note_on_c, 9, 37, 70
4, 11522, Note_on_c, 9, 36, 49
4, 11523, Note_on_c, 9, 40, 58
4, 11528, Note_on_c, 9, 40, 0
4, 11540, Note_on_c, 9, 51, 0
4, 11548, Note_on_c, 9, 57, 0
4, 11556, Note_on_c, 9, 44, 0
4, 11563, Note_on_c, 9, 37, 0
4, 11574, Note_on_c, 9, 36, 0
4, 11574, Note_on_c, 9, 38, 0
4, 11640, Note_on_c, 9, 51, 80
4, 11640, Note_on_c, 9, 44, 71
4, 11660, Note_on_c, 9, 51, 0
4, 11677, Note_on_c, 9, 44, 0
4, 11683, Note_on_c, 9, 38, 32
4, 11689, Note_on_c, 9, 38, 0
4, 11760, Note_on_c, 9, 51, 58
4, 11760, Note_on_c, 9, 51, 79
4, 11760, Note_on_c, 9, 44, 65
4, 11765, Note_on_c, 9, 35, 37
4, 11773, Note_on_c, 9, 51, 0
4, 11778, Note_on_c, 9, 35, 0
4, 11785, Note_on_c, 9, 51, 0
4, 11805, Note_on_c, 9, 44, 0
4, 11823, Note_on_c, 9, 35, 41
4, 11837, Note_on_c, 9, 35, 0
4, 11880, Note_on_c, 9, 51, 67
4, 11880, Note_on_c, 9, 44, 60
4, 11894, Note_on_c, 9, 51, 0
4, 11910, Note_on_c, 9, 51, 78
4, 11928, Note_on_c, 9, 51, 0
4, 11928, Note_on_c, 9, 44, 0
4, 12000, Note_on_c, 9, 51, 78
4, 12000, Note_on_c, 9, 44, 60
4, 12019, Note_on_c, 9, 51, 0
4, 12073, Note_on_c, 9, 44, 0
4, 12120, Note_on_c, 9, 51, 69
4, 12120, Note_on_c, 9, 44, 64
4, 12136, Note_on_c, 9, 51, 0
4, 12147, Note_on_c, 9, 44, 0
4, 12150, Note_on_c, 9, 46, 74
4, 12180, Note_on_c, 9, 51, 74
4, 12195, Note_on_c, 9, 51, 0
4, 12220, Note_on_c, 9, 46, 0
4, 12240, Note_on_c, 9, 51, 87
4, 12240, Note_on_c, 9, 44, 63
4, 12265, Note_on_c, 9, 51, 0
4, 12289, Note_on_c, 9, 44, 0
4, 12330, Note_on_c, 9, 51, 53
4, 12334, Note_on_c, 9, 38, 24
4, 12339, Note_on_c, 9, 51, 0
4, 12343, Note_on_c, 9, 38, 0
4, 12360, Note_on_c, 9, 51, 63
4, 12360, Note_on_c, 9, 44, 59
4, 12363, Note_on_c, 9, 38, 26
4, 12373, Note_on_c, 9, 38, 0
4, 12383, Note_on_c, 9, 51, 0
4, 12394, Note_on_c, 9, 38, 25
4, 12412, Note_on_c, 9, 38, 0
4, 12422, Note_on_c, 9, 36, 25
4, 12432, Note_on_c, 9, 36, 0
4, 12433, Note_on_c, 9, 44, 0
4, 12480, Note_on_c, 9, 44, 56
4, 12540, Note_on_c, 9, 51, 71
4, 12541, Note_on_c, 9, 44, 0
4, 12553, Note_on_c, 9, 51, 0
4, 12600, Note_on_c, 9, 51, 87
4, 12600, Note_on_c, 9, 44, 59
4, 12626, Note_on_c, 9, 51, 0
4, 12647, Note_on_c, 9, 44, 0
4, 12690, Note_on_c, 9, 51, 48
4, 12696, Note_on_c, 9, 38, 27
4, 12697, Note_on_c, 9, 51, 0
4, 12703, Note_on_c, 9, 38, 0
4, 12720, Note_on_c, 9, 51, 61
4, 12720, Note_on_c, 9, 44, 68
4, 12726, Note_on_c, 9, 38, 26
4, 12732, Note_on_c, 9, 38, 0
4, 12739, Note_on_c, 9, 51, 0
4, 12752, Note_on_c, 9, 37, 58
4, 12768, Note_on_c, 9, 37, 0
4, 12776, Note_on_c, 9, 44, 0
4, 12780, Note_on_c, 9, 51, 72
4, 12780, Note_on_c, 9, 38, 25
4, 12793, Note_on_c, 9, 38, 0
4, 12798, Note_on_c, 9, 51, 0
4, 12840, Note_on_c, 9, 51, 70
4, 12840, Note_on_c, 9, 53, 58
4, 12840, Note_on_c, 9, 54, 42
4, 12840, Note_on_c, 9, 38, 32
4, 12840, Note_on_c, 9, 44, 65
4, 12847, Note_on_c, 9, 54, 0
4, 12855, Note_on_c, 9, 38, 0
4, 12860, Note_on_c, 9, 51, 0
4, 12870, Note_on_c, 9, 37, 52
4, 12889, Note_on_c, 9, 37, 0
4, 12899, Note_on_c, 9, 38, 30
4, 12906, Note_on_c, 9, 44, 0
4, 12913, Note_on_c, 9, 38, 0
4, 12917, Note_on_c, 9, 53, 0
4, 12960, Note_on_c, 9, 51, 73
4, 12960, Note_on_c, 9, 53, 66
4, 12960, Note_on_c, 9, 44, 74
4, 12988, Note_on_c, 9, 51, 0
4, 13003, Note_on_c, 9, 44, 0
4, 13050, Note_on_c, 9, 53, 0
4, 13080, Note_on_c, 9, 51, 71
4, 13080, Note_on_c, 9, 53, 49
4, 13080, Note_on_c, 9, 44, 69
4, 13089, Note_on_c, 9, 53, 0
4, 13100, Note_on_c, 9, 51, 0
4, 13123, Note_on_c, 9, 44, 0
4, 13199, Note_on_c, 9, 38, 26
4, 13200, Note_on_c, 9, 51, 77
4, 13200, Note_on_c, 9, 44, 61
4, 13206, Note_on_c, 9, 38, 0
4, 13214, Note_on_c, 9, 51, 0
4, 13250, Note_on_c, 9, 44, 0
4, 13260, Note_on_c, 9, 51, 82
4, 13264, Note_on_c, 9, 38, 30
4, 13277, Note_on_c, 9, 51, 0
4, 13281, Note_on_c, 9, 38, 0
4, 13320, Note_on_c, 9, 51, 87
4, 13320, Note_on_c, 9, 44, 69
4, 13325, Note_on_c, 9, 38, 24
4, 13337, Note_on_c, 9, 38, 0
4, 13364, Note_on_c, 9, 44, 0
4, 13384, Note_on_c, 9, 51, 0
4, 13440, Note_on_c, 9, 51, 77
4, 13440, Note_on_c, 9, 44, 71
4, 13492, Note_on_c, 9, 44, 0
4, 13524, Note_on_c, 9, 51, 0
4, 13560, Note_on_c, 9, 51, 69
4, 13560, Note_on_c, 9, 44, 63
4, 13566, Note_on_c, 9, 40, 50
4, 13573, Note_on_c, 9, 40, 0
4, 13582, Note_on_c, 9, 51, 0
4, 13586, Note_on_c, 9, 44, 0
4, 13590, Note_on_c, 9, 46, 72
4, 13658, Note_on_c, 9, 40, 60
4, 13663, Note_on_c, 9, 46, 0
4, 13664, Note_on_c, 9, 40, 0
4, 13680, Note_on_c, 9, 51, 67
4, 13680, Note_on_c, 9, 53, 57
4, 13680, Note_on_c, 9, 44, 71
4, 13682, Note_on_c, 9, 38, 23
4, 13688, Note_on_c, 9, 53, 0
4, 13694, Note_on_c, 9, 51, 0
4, 13700, Note_on_c, 9, 38, 0
4, 13740, Note_on_c, 9, 38, 24
4, 13741, Note_on_c, 9, 44, 0
4, 13760, Note_on_c, 9, 38, 0
4, 13800, Note_on_c, 9, 53, 52
4, 13800, Note_on_c, 9, 51, 52
4, 13800, Note_on_c, 9, 44, 73
4, 13821, Note_on_c, 9, 53, 0
4, 13828, Note_on_c, 9, 51, 0
4, 13838, Note_on_c, 9, 44, 0
4, 13920, Note_on_c, 9, 46, 69
4, 13967, Note_on_c, 9, 46, 0
4, 13973, Note_on_c, 9, 40, 60
4, 13980, Note_on_c, 9, 40, 0
4, 13980, Note_on_c, 9, 59, 68
4, 13990, Note_on_c, 9, 59, 0
4, 14004, Note_on_c, 9, 36, 28
4, 14021, Note_on_c, 9, 36, 0
4, 14038, Note_on_c, 9, 36, 42
4, 14040, Note_on_c, 9, 51, 50
4, 14040, Note_on_c, 9, 53, 42
4, 14040, Note_on_c, 9, 44, 71
4, 14051, Note_on_c, 9, 53, 0
4, 14057, Note_on_c, 9, 36, 0
4, 14063, Note_on_c, 9, 51, 0
4, 14079, Note_on_c, 9, 44, 0
4, 14099, Note_on_c, 9, 36, 19
4, 14100, Note_on_c, 9, 51, 43
4, 14100, Note_on_c, 9, 53, 44
4, 14115, Note_on_c, 9, 53, 0
4, 14127, Note_on_c, 9, 51, 0
4, 14128, Note_on_c, 9, 36, 0
4, 14160, Note_on_c, 9, 51, 63
4, 14160, Note_on_c, 9, 53, 57
4, 14160, Note_on_c, 9, 44, 67
4, 14174, Note_on_c, 9, 53, 0
4, 14184, Note_on_c, 9, 51, 0
4, 14203, Note_on_c, 9, 44, 0
4, 14280, Note_on_c, 9, 44, 61
4, 14303, Note_on_c, 9, 44, 0
4, 14310, Note_on_c, 9, 46, 69
4, 14340, Note_on_c, 9, 53, 67
4, 14348, Note_on_c, 9, 53, 0
4, 14381, Note_on_c, 9, 46, 0
4, 14400, Note_on_c, 9, 51, 61
4, 14400, Note_on_c, 9, 44, 68
4, 14404, Note_on_c, 9, 38, 23
4, 14415, Note_on_c, 9, 38, 0
4, 14420, Note_on_c, 9, 51, 0
4, 14449, Note_on_c, 9, 44, 0
4, 14464, Note_on_c, 9, 38, 19
4, 14479, Note_on_c, 9, 38, 0
4, 14520, Note_on_c, 9, 44, 69
4, 14580, Note_on_c, 9, 51, 52
4, 14584, Note_on_c, 9, 44, 0
4, 14594, Note_on_c, 9, 51, 0
4, 14640, Note_on_c, 9, 51, 62
4, 14640, Note_on_c, 9, 44, 70
4, 14649, Note_on_c, 9, 51, 0
4, 14691, Note_on_c, 9, 44, 0
4, 14700, Note_on_c, 9, 51, 85
4, 14703, Note_on_c, 9, 36, 25
4, 14718, Note_on_c, 9, 51, 0
4, 14724, Note_on_c, 9, 36, 0
4, 14760, Note_on_c, 9, 51, 70
4, 14760, Note_on_c, 9, 44, 67
4, 14766, Note_on_c, 9, 36, 23
4, 14778, Note_on_c, 9, 51, 0
4, 14791, Note_on_c, 9, 36, 0
4, 14812, Note_on_c, 9, 44, 0
4, 14880, Note_on_c, 9, 44, 71
4, 14910, Note_on_c, 9, 51, 57
4, 14923, Note_on_c, 9, 51, 0
4, 14936, Note_on_c, 9, 44, 0
4, 14940, Note_on_c, 9, 51, 60
4, 14954, Note_on_c, 9, 51, 0
4, 15000, Note_on_c, 9, 51, 53
4, 15000, Note_on_c, 9, 44, 75
4, 15005, Note_on_c, 9, 36, 33
4, 15012, Note_on_c, 9, 36, 0
4, 15013, Note_on_c, 9, 51, 0
4, 15030, Note_on_c, 9, 50, 46
4, 15038, Note_on_c, 9, 50, 0
4, 15056, Note_on_c, 9, 44, 0
4, 15060, Note_on_c, 9, 51, 69
4, 15075, Note_on_c, 9, 51, 0
4, 15120, Note_on_c, 9, 51, 74
4, 15120, Note_on_c, 9, 44, 72
4, 15124, Note_on_c, 9, 36, 26
4, 15132, Note_on_c, 9, 36, 0
4, 15138, Note_on_c, 9, 51, 0
4, 15163, Note_on_c, 9, 44, 0
4, 15215, Note_on_c, 9, 36, 25
4, 15223, Note_on_c, 9, 36, 0
4, 15240, Note_on_c, 9, 44, 68
4, 15288, Note_on_c, 9, 44, 0
4, 15300, Note_on_c, 9, 51, 69
4, 15302, Note_on_c, 9, 36, 25
4, 15314, Note_on_c, 9, 36, 0
4, 15314, Note_on_c, 9, 51, 0
4, 15360, Note_on_c, 9, 46, 73
4, 15411, Note_on_c, 9, 46, 0
4, 15420, Note_on_c, 9, 51, 64
4, 15435, Note_on_c, 9, 51, 0
4, 15480, Note_on_c, 9, 51, 63
4, 15480, Note_on_c, 9, 53, 27
4, 15480, Note_on_c, 9, 44, 72
4, 15494, Note_on_c, 9, 53, 0
4, 15499, Note_on_c, 9, 51, 0
4, 15523, Note_on_c, 9, 44, 0
4, 15600, Note_on_c, 9, 44, 69
4, 15645, Note_on_c, 9, 44, 0
4, 15660, Note_on_c, 9, 51, 69
4, 15677, Note_on_c, 9, 51, 0
4, 15720, Note_on_c, 9, 51, 63
4, 15720, Note_on_c, 9, 44, 68
4, 15732, Note_on_c, 9, 51, 0
4, 15745, Note_on_c, 9, 44, 0
4, 15750, Note_on_c, 9, 46, 71
4, 15780, Note_on_c, 9, 51, 69
4, 15794, Note_on_c, 9, 51, 0
4, 15820, Note_on_c, 9, 46, 0
4, 15840, Note_on_c, 9, 51, 81
4, 15840, Note_on_c, 9, 44, 74
4, 15843, Note_on_c, 9, 36, 46
4, 15855, Note_on_c, 9, 36, 0
4, 15859, Note_on_c, 9, 51, 0
4, 15896, Note_on_c, 9, 36, 39
4, 15903, Note_on_c, 9, 44, 0
4, 15916, Note_on_c, 9, 36, 0
4, 15930, Note_on_c, 9, 51, 58
4, 15942, Note_on_c, 9, 51, 0
4, 15960, Note_on_c, 9, 51, 60
4, 15960, Note_on_c, 9, 44, 75
4, 15976, Note_on_c, 9, 51, 0
4, 16004, Note_on_c, 9, 44, 0
4, 16012, Note_on_c, 9, 36, 34
4, 16020, Note_on_c, 9, 51, 74
4, 16023, Note_on_c, 9, 36, 0
4, 16036, Note_on_c, 9, 51, 0
4, 16071, Note_on_c, 9, 36, 38
4, 16080, Note_on_c, 9, 51, 77
4, 16080, Note_on_c, 9, 53, 74
4, 16080, Note_on_c, 9, 44, 74
4, 16088, Note_on_c, 9, 36, 0
4, 16100, Note_on_c, 9, 51, 0
4, 16104, Note_on_c, 9, 53, 0
4, 16118, Note_on_c, 9, 44, 0
4, 16200, Note_on_c, 9, 51, 74
4, 16200, Note_on_c, 9, 44, 73
4, 16218, Note_on_c, 9, 51, 0
4, 16242, Note_on_c, 9, 44, 0
4, 16260, Note_on_c, 9, 51, 62
4, 16274, Note_on_c, 9, 51, 0
4, 16290, Note_on_c, 9, 51, 63
4, 16305, Note_on_c, 9, 51, 0
4, 16312, Note_on_c, 9, 36, 29
4, 16320, Note_on_c, 9, 36, 0
4, 16320, Note_on_c, 9, 51, 57
4, 16320, Note_on_c, 9, 44, 72
4, 16336, Note_on_c, 9, 51, 0
4, 16347, Note_on_c, 9, 36, 34
4, 16354, Note_on_c, 9, 44, 0
4, 16363, Note_on_c, 9, 36, 0
4, 16378, Note_on_c, 9, 36, 31
4, 16380, Note_on_c, 9, 51, 68
4, 16386, Note_on_c, 9, 36, 0
4, 16396, Note_on_c, 9, 51, 0
4, 16435, Note_on_c, 9, 36, 32
4, 16440, Note_on_c, 9, 51, 80
4, 16440, Note_on_c, 9, 53, 74
4, 16440, Note_on_c, 9, 44, 73
4, 16443, Note_on_c, 9, 36, 0
4, 16469, Note_on_c, 9, 51, 0
4, 16472, Note_on_c, 9, 53, 0
4, 16477, Note_on_c, 9, 44, 0
4, 16560, Note_on_c, 9, 51, 78
4, 16560, Note_on_c, 9, 44, 72
4, 16581, Note_on_c, 9, 51, 0
4, 16593, Note_on_c, 9, 44, 0
4, 16620, Note_on_c, 9, 51, 46
4, 16628, Note_on_c, 9, 51, 0
4, 16646, Note_on_c, 9, 38, 32
4, 16650, Note_on_c, 9, 51, 49
4, 16653, Note_on_c, 9, 38, 0
4, 16661, Note_on_c, 9, 51, 0
4, 16680, Note_on_c, 9, 51, 64
4, 16680, Note_on_c, 9, 36, 16
4, 16680, Note_on_c, 9, 44, 74
4, 16691, Note_on_c, 9, 36, 0
4, 16695, Note_on_c, 9, 51, 0
4, 16704, Note_on_c, 9, 38, 29
4, 16712, Note_on_c, 9, 44, 0
4, 16713, Note_on_c, 9, 38, 0
4, 16730, Note_on_c, 9, 36, 23
4, 16740, Note_on_c, 9, 51, 71
4, 16756, Note_on_c, 9, 51, 0
4, 16757, Note_on_c, 9, 36, 0
4, 16790, Note_on_c, 9, 38, 28
4, 16800, Note_on_c, 9, 51, 83
4, 16800, Note_on_c, 9, 53, 74
4, 16800, Note_on_c, 9, 44, 74
4, 16823, Note_on_c, 9, 38, 0
4, 16838, Note_on_c, 9, 44, 0
4, 16858, Note_on_c, 9, 36, 23
4, 16873, Note_on_c, 9, 36, 0
4, 16880, Note_on_c, 9, 51, 0
4, 16885, Note_on_c, 9, 53, 0
4, 16920, Note_on_c, 9, 51, 80
4, 16920, Note_on_c, 9, 44, 71
4, 16961, Note_on_c, 9, 44, 0
4, 17007, Note_on_c, 9, 51, 0
4, 17013, Note_on_c, 9, 38, 32
4, 17024, Note_on_c, 9, 38, 0
4, 17040, Note_on_c, 9, 51, 75
4, 17040, Note_on_c, 9, 44, 73
4, 17067, Note_on_c, 9, 38, 32
4, 17077, Note_on_c, 9, 38, 0
4, 17084, Note_on_c, 9, 44, 0
4, 17091, Note_on_c, 9, 36, 22
4, 17100, Note_on_c, 9, 36, 0
4, 17119, Note_on_c, 9, 51, 0
4, 17124, Note_on_c, 9, 38, 34
4, 17136, Note_on_c, 9, 38, 0
4, 17160, Note_on_c, 9, 51, 77
4, 17160, Note_on_c, 9, 53, 65
4, 17160, Note_on_c, 9, 44, 67
4, 17176, Note_on_c, 9, 53, 0
4, 17177, Note_on_c, 9, 51, 0
4, 17179, Note_on_c, 9, 38, 33
4, 17184, Note_on_c, 9, 44, 0
4, 17190, Note_on_c, 9, 46, 73
4, 17192, Note_on_c, 9, 38, 0
4, 17207, Note_on_c, 9, 36, 23
4, 17219, Note_on_c, 9, 36, 0
4, 17239, Note_on_c, 9, 38, 29
4, 17244, Note_on_c, 9, 38, 0
4, 17262, Note_on_c, 9, 46, 0
4, 17272, Note_on_c, 9, 36, 21
4, 17280, Note_on_c, 9, 59, 75
4, 17280, Note_on_c, 9, 44, 73
4, 17297, Note_on_c, 9, 59, 0
4, 17311, Note_on_c, 9, 36, 0
4, 17328, Note_on_c, 9, 44, 0
4, 17335, Note_on_c, 9, 36, 35
4, 17355, Note_on_c, 9, 36, 0
4, 17398, Note_on_c, 9, 38, 23
4, 17400, Note_on_c, 9, 59, 80
4, 17400, Note_on_c, 9, 44, 62
4, 17405, Note_on_c, 9, 38, 0
4, 17417, Note_on_c, 9, 59, 0
4, 17444, Note_on_c, 9, 44, 0
4, 17459, Note_on_c, 9, 36, 18
4, 17471, Note_on_c, 9, 36, 0
4, 17520, Note_on_c, 9, 59, 60
4, 17520, Note_on_c, 9, 44, 63
4, 17522, Note_on_c, 9, 36, 30
4, 17527, Note_on_c, 9, 59, 0
4, 17532, Note_on_c, 9, 36, 0
4, 17550, Note_on_c, 9, 44, 0
4, 17550, Note_on_c, 9, 59, 73
4, 17550, Note_on_c, 9, 46, 71
4, 17568, Note_on_c, 9, 59, 0
4, 17618, Note_on_c, 9, 46, 0
4, 17640, Note_on_c, 9, 59, 79
4, 17640, Note_on_c, 9, 44, 60
4, 17659, Note_on_c, 9, 59, 0
4, 17709, Note_on_c, 9, 44, 0
4, 17760, Note_on_c, 9, 59, 54
4, 17760, Note_on_c, 9, 59, 74
4, 17760, Note_on_c, 9, 44, 71
4, 17768, Note_on_c, 9, 59, 0
4, 17782, Note_on_c, 9, 59, 0
4, 17835, Note_on_c, 9, 44, 0
4, 17880, Note_on_c, 9, 59, 85
4, 17880, Note_on_c, 9, 44, 71
4, 17882, Note_on_c, 9, 38, 27
4, 17890, Note_on_c, 9, 38, 0
4, 17900, Note_on_c, 9, 59, 0
4, 17915, Note_on_c, 9, 38, 30
4, 17921, Note_on_c, 9, 38, 0
4, 17942, Note_on_c, 9, 36, 25
4, 17947, Note_on_c, 9, 44, 0
4, 17964, Note_on_c, 9, 36, 0
4, 17970, Note_on_c, 9, 59, 66
4, 17980, Note_on_c, 9, 59, 0
4, 18000, Note_on_c, 9, 59, 80
4, 18000, Note_on_c, 9, 44, 71
4, 18009, Note_on_c, 9, 36, 31
4, 18016, Note_on_c, 9, 59, 0
4, 18031, Note_on_c, 9, 36, 0
4, 18060, Note_on_c, 9, 59, 83
4, 18061, Note_on_c, 9, 44, 0
4, 18075, Note_on_c, 9, 59, 0
4, 18120, Note_on_c, 9, 59, 83
4, 18120, Note_on_c, 9, 44, 69
4, 18136, Note_on_c, 9, 59, 0
4, 18190, Note_on_c, 9, 44, 0
4, 18210, Note_on_c, 9, 59, 44
4, 18218, Note_on_c, 9, 59, 0
4, 18240, Note_on_c, 9, 59, 70
4, 18240, Note_on_c, 9, 44, 68
4, 18259, Note_on_c, 9, 59, 0
4, 18306, Note_on_c, 9, 44, 0
4, 18340, Note_on_c, 9, 38, 23
4, 18347, Note_on_c, 9, 38, 0
4, 18360, Note_on_c, 9, 59, 50
4, 18360, Note_on_c, 9, 59, 68
4, 18360, Note_on_c, 9, 44, 71
4, 18364, Note_on_c, 9, 36, 16
4, 18368, Note_on_c, 9, 59, 0
4, 18373, Note_on_c, 9, 36, 0
4, 18379, Note_on_c, 9, 59, 0
4, 18397, Note_on_c, 9, 38, 32
4, 18403, Note_on_c, 9, 38, 0
4, 18420, Note_on_c, 9, 59, 66
4, 18422, Note_on_c, 9, 36, 21
4, 18425, Note_on_c, 9, 44, 0
4, 18429, Note_on_c, 9, 59, 0
4, 18452, Note_on_c, 9, 36, 0
4, 18480, Note_on_c, 9, 59, 74
4, 18480, Note_on_c, 9, 44, 71
4, 18495, Note_on_c, 9, 59, 0
4, 18510, Note_on_c, 9, 59, 62
4, 18518, Note_on_c, 9, 59, 0
4, 18519, Note_on_c, 9, 38, 25
4, 18525, Note_on_c, 9, 38, 0
4, 18541, Note_on_c, 9, 36, 22
4, 18546, Note_on_c, 9, 44, 0
4, 18551, Note_on_c, 9, 36, 0
4, 18600, Note_on_c, 9, 59, 79
4, 18600, Note_on_c, 9, 46, 71
4, 18616, Note_on_c, 9, 59, 0
4, 18630, Note_on_c, 9, 59, 63
4, 18646, Note_on_c, 9, 59, 0
4, 18655, Note_on_c, 9, 46, 0
4, 18656, Note_on_c, 9, 38, 29
4, 18662, Note_on_c, 9, 38, 0
4, 18720, Note_on_c, 9, 59, 57
4, 18720, Note_on_c, 9, 44, 69
4, 18730, Note_on_c, 9, 59, 0
4, 18750, Note_on_c, 9, 59, 68
4, 18767, Note_on_c, 9, 59, 0
4, 18777, Note_on_c, 9, 44, 0
4, 18784, Note_on_c, 9, 36, 24
4, 18796, Note_on_c, 9, 36, 0
4, 18840, Note_on_c, 9, 59, 74
4, 18840, Note_on_c, 9, 44, 70
4, 18856, Note_on_c, 9, 59, 0
4, 18897, Note_on_c, 9, 44, 0
4, 18960, Note_on_c, 9, 59, 75
4, 18960, Note_on_c, 9, 44, 71
4, 18978, Note_on_c, 9, 59, 0
4, 19030, Note_on_c, 9, 44, 0
4, 19050, Note_on_c, 9, 59, 58
4, 19057, Note_on_c, 9, 59, 0
4, 19080, Note_on_c, 9, 59, 66
4, 19080, Note_on_c, 9, 44, 67
4, 19086, Note_on_c, 9, 36, 25
4, 19095, Note_on_c, 9, 36, 0
4, 19098, Note_on_c, 9, 59, 0
4, 19140, Note_on_c, 9, 59, 84
4, 19142, Note_on_c, 9, 36, 30
4, 19143, Note_on_c, 9, 44, 0
4, 19154, Note_on_c, 9, 59, 0
4, 19156, Note_on_c, 9, 36, 0
4, 19200, Note_on_c, 9, 59, 81
4, 19200, Note_on_c, 9, 44, 69
4, 19217, Note_on_c, 9, 59, 0
4, 19230, Note_on_c, 9, 59, 64
4, 19241, Note_on_c, 9, 59, 0
4, 19262, Note_on_c, 9, 44, 0
4, 19320, Note_on_c, 9, 59, 85
4, 19320, Note_on_c, 9, 44, 68
4, 19336, Note_on_c, 9, 59, 0
4, 19350, Note_on_c, 9, 46, 74
4, 19351, Note_on_c, 9, 44, 0
4, 19377, Note_on_c, 9, 36, 23
4, 19384, Note_on_c, 9, 36, 0
4, 19410, Note_on_c, 9, 59, 62
4, 19417, Note_on_c, 9, 59, 0
4, 19418, Note_on_c, 9, 46, 0
4, 19439, Note_on_c, 9, 36, 26
4, 19440, Note_on_c, 9, 59, 72
4, 19440, Note_on_c, 9, 44, 67
4, 19450, Note_on_c, 9, 36, 0
4, 19462, Note_on_c, 9, 59, 0
4, 19500, Note_on_c, 9, 59, 83
4, 19515, Note_on_c, 9, 59, 0
4, 19526, Note_on_c, 9, 44, 0
4, 19560, Note_on_c, 9, 59, 84
4, 19560, Note_on_c, 9, 44, 69
4, 19582, Note_on_c, 9, 59, 0
4, 19637, Note_on_c, 9, 44, 0
4, 19680, Note_on_c, 9, 44, 70
4, 19740, Note_on_c, 9, 59, 76
4, 19756, Note_on_c, 9, 59, 0
4, 19756, Note_on_c, 9, 44, 0
4, 19772, Note_on_c, 9, 64, 64
4, 19780, Note_on_c, 9, 64, 0
4, 19797, Note_on_c, 9, 64, 68
4, 19800, Note_on_c, 9, 59, 80
4, 19800, Note_on_c, 9, 44, 74
4, 19810, Note_on_c, 9, 64, 0
4, 19817, Note_on_c, 9, 59, 0
4, 19860, Note_on_c, 9, 62, 46
4, 19868, Note_on_c, 9, 44, 0
4, 19882, Note_on_c, 9, 62, 0
4, 19890, Note_on_c, 9, 59, 64
4, 19895, Note_on_c, 9, 62, 66
4, 19897, Note_on_c, 9, 59, 0
4, 19920, Note_on_c, 9, 59, 71
4, 19920, Note_on_c, 9, 44, 73
4, 19930, Note_on_c, 9, 62, 0
4, 19936, Note_on_c, 9, 59, 0
4, 19962, Note_on_c, 9, 62, 32
4, 19971, Note_on_c, 9, 62, 0
4, 19980, Note_on_c, 9, 59, 83
4, 19983, Note_on_c, 9, 63, 72
4, 19990, Note_on_c, 9, 44, 0
4, 19995, Note_on_c, 9, 59, 0
4, 20017, Note_on_c, 9, 63, 0
4, 20040, Note_on_c, 9, 59, 73
4, 20040, Note_on_c, 9, 44, 69
4, 20054, Note_on_c, 9, 59, 0
4, 20065, Note_on_c, 9, 44, 0
4, 20070, Note_on_c, 9, 59, 65
4, 20070, Note_on_c, 9, 46, 72
4, 20073, Note_on_c, 9, 62, 51
4, 20086, Note_on_c, 9, 62, 0
4, 20087, Note_on_c, 9, 59, 0
4, 20102, Note_on_c, 9, 63, 67
4, 20121, Note_on_c, 9, 63, 0
4, 20134, Note_on_c, 9, 63, 62
4, 20149, Note_on_c, 9, 46, 0
4, 20150, Note_on_c, 9, 63, 0
4, 20157, Note_on_c, 9, 62, 55
4, 20160, Note_on_c, 9, 59, 83
4, 20160, Note_on_c, 9, 44, 70
4, 20176, Note_on_c, 9, 59, 0
4, 20191, Note_on_c, 9, 62, 0
4, 20220, Note_on_c, 9, 59, 80
4, 20220, Note_on_c, 9, 62, 57
4, 20233, Note_on_c, 9, 44, 0
4, 20234, Note_on_c, 9, 59, 0
4, 20244, Note_on_c, 9, 62, 0
4, 20280, Note_on_c, 9, 59, 79
4, 20280, Note_on_c, 9, 44, 71
4, 20298, Note_on_c, 9, 59, 0
4, 20321, Note_on_c, 9, 62, 34
4, 20329, Note_on_c, 9, 62, 0
4, 20331, Note_on_c, 9, 44, 0
4, 20370, Note_on_c, 9, 59, 60
4, 20378, Note_on_c, 9, 59, 0
4, 20381, Note_on_c, 9, 64, 80
4, 20397, Note_on_c, 9, 64, 0
4, 20400, Note_on_c, 9, 59, 67
4, 20400, Note_on_c, 9, 44, 71
4, 20409, Note_on_c, 9, 64, 75
4, 20415, Note_on_c, 9, 59, 0
4, 20433, Note_on_c, 9, 64, 0
4, 20443, Note_on_c, 9, 64, 76
4, 20454, Note_on_c, 9, 44, 0
4, 20460, Note_on_c, 9, 64, 0
4, 20460, Note_on_c, 9, 59, 82
4, 20472, Note_on_c, 9, 62, 67
4, 20478, Note_on_c, 9, 59, 0
4, 20514, Note_on_c, 9, 62, 0
4, 20520, Note_on_c, 9, 44, 74
4, 20529, Note_on_c, 9, 62, 68
4, 20550, Note_on_c, 9, 59, 55
4, 20557, Note_on_c, 9, 59, 0
4, 20566, Note_on_c, 9, 62, 0
4, 20576, Note_on_c, 9, 44, 0
4, 20580, Note_on_c, 9, 59, 71
4, 20596, Note_on_c, 9, 59, 0
4, 20619, Note_on_c, 9, 62, 42
4, 20627, Note_on_c, 9, 62, 0
4, 20640, Note_on_c, 9, 59, 79
4, 20640, Note_on_c, 9, 44, 69
4, 20658, Note_on_c, 9, 59, 0
4, 20677, Note_on_c, 9, 63, 80
4, 20686, Note_on_c, 9, 44, 0
4, 20692, Note_on_c, 9, 63, 0
4, 20704, Note_on_c, 9, 63, 67
4, 20730, Note_on_c, 9, 63, 0
4, 20730, Note_on_c, 9, 59, 45
4, 20739, Note_on_c, 9, 59, 0
4, 20760, Note_on_c, 9, 59, 67
4, 20760, Note_on_c, 9, 44, 70
4, 20771, Note_on_c, 9, 63, 87
4, 20776, Note_on_c, 9, 59, 0
4, 20789, Note_on_c, 9, 44, 0
4, 20790, Note_on_c, 9, 46, 76
4, 20801, Note_on_c, 9, 63, 0
4, 20820, Note_on_c, 9, 59, 84
4, 20825, Note_on_c, 9, 62, 45
4, 20836, Note_on_c, 9, 59, 0
4, 20848, Note_on_c, 9, 46, 0
4, 20851, Note_on_c, 9, 62, 0
4, 20880, Note_on_c, 9, 62, 66
4, 20880, Note_on_c, 9, 44, 71
4, 20910, Note_on_c, 9, 59, 68
4, 20911, Note_on_c, 9, 62, 0
4, 20921, Note_on_c, 9, 59, 0
4, 20940, Note_on_c, 9, 59, 55
4, 20947, Note_on_c, 9, 44, 0
4, 20948, Note_on_c, 9, 59, 0
4, 20968, Note_on_c, 9, 64, 64
4, 20981, Note_on_c, 9, 64, 0
4, 20998, Note_on_c, 9, 64, 69
4, 21000, Note_on_c, 9, 59, 71
4, 21000, Note_on_c, 9, 44, 72
4, 21016, Note_on_c, 9, 64, 0
4, 21017, Note_on_c, 9, 59, 0
4, 21061, Note_on_c, 9, 44, 0
4, 21112, Note_on_c, 9, 62, 58
4, 21120, Note_on_c, 9, 44, 73
4, 21142, Note_on_c, 9, 62, 0
4, 21179, Note_on_c, 9, 44, 0
4, 21180, Note_on_c, 9, 59, 74
4, 21195, Note_on_c, 9, 59, 0
4, 21240, Note_on_c, 9, 59, 74
4, 21240, Note_on_c, 9, 44, 69
4, 21258, Note_on_c, 9, 59, 0
4, 21298, Note_on_c, 9, 44, 0
4, 21330, Note_on_c, 9, 59, 69
4, 21339, Note_on_c, 9, 62, 35
4, 21343, Note_on_c, 9, 59, 0
4, 21347, Note_on_c, 9, 62, 0
4, 21360, Note_on_c, 9, 44, 68
4, 21363, Note_on_c, 9, 64, 61
4, 21388, Note_on_c, 9, 64, 0
4, 21390, Note_on_c, 9, 59, 69
4, 21397, Note_on_c, 9, 59, 0
4, 21411, Note_on_c, 9, 44, 0
4, 21420, Note_on_c, 9, 59, 57
4, 21434, Note_on_c, 9, 59, 0
4, 21450, Note_on_c, 9, 64, 71
4, 21462, Note_on_c, 9, 64, 0
4, 21476, Note_on_c, 9, 62, 38
4, 21480, Note_on_c, 9, 59, 72
4, 21480, Note_on_c, 9, 44, 72
4, 21490, Note_on_c, 9, 59, 0
4, 21515, Note_on_c, 9, 62, 0
4, 21532, Note_on_c, 9, 62, 56
4, 21538, Note_on_c, 9, 44, 0
4, 21540, Note_on_c, 9, 59, 73
4, 21547, Note_on_c, 9, 59, 0
4, 21573, Note_on_c, 9, 62, 0
4, 21595, Note_on_c, 9, 64, 70
4, 21600, Note_on_c, 9, 59, 87
4, 21600, Note_on_c, 9, 44, 72
4, 21614, Note_on_c, 9, 59, 0
4, 21620, Note_on_c, 9, 64, 0
4, 21645, Note_on_c, 9, 44, 0
4, 21694, Note_on_c, 9, 64, 62
4, 21702, Note_on_c, 9, 64, 0
4, 21717, Note_on_c, 9, 62, 44
4, 21720, Note_on_c, 9, 59, 67
4, 21720, Note_on_c, 9, 44, 71
4, 21728, Note_on_c, 9, 59, 0
4, 21746, Note_on_c, 9, 62, 0
4, 21766, Note_on_c, 9, 44, 0
4, 21779, Note_on_c, 9, 62, 59
4, 21780, Note_on_c, 9, 59, 74
4, 21789, Note_on_c, 9, 59, 0
4, 21805, Note_on_c, 9, 62, 0
4, 21840, Note_on_c, 9, 59, 75
4, 21840, Note_on_c, 9, 64, 65
4, 21840, Note_on_c, 9, 44, 67
4, 21847, Note_on_c, 9, 64, 0
4, 21858, Note_on_c, 9, 59, 0
4, 21868, Note_on_c, 9, 64, 71
4, 21870, Note_on_c, 9, 59, 81
4, 21880, Note_on_c, 9, 59, 0
4, 21881, Note_on_c, 9, 64, 0
4, 21893, Note_on_c, 9, 62, 57
4, 21897, Note_on_c, 9, 44, 0
4, 21909, Note_on_c, 9, 62, 0
4, 21929, Note_on_c, 9, 64, 73
4, 21944, Note_on_c, 9, 64, 0
4, 21960, Note_on_c, 9, 59, 72
4, 21960, Note_on_c, 9, 44, 63
4, 21976, Note_on_c, 9, 59, 0
4, 21996, Note_on_c, 9, 44, 0
4, 21996, Note_on_c, 9, 62, 59
4, 22011, Note_on_c, 9, 62, 0
4, 22018, Note_on_c, 9, 63, 74
4, 22020, Note_on_c, 9, 59, 65
4, 22020, Note_on_c, 9, 64, 78
4, 22030, Note_on_c, 9, 63, 0
4, 22032, Note_on_c, 9, 59, 0
4, 22043, Note_on_c, 9, 64, 0
4, 22072, Note_on_c, 9, 63, 59
4, 22074, Note_on_c, 9, 64, 71
4, 22080, Note_on_c, 9, 59, 71
4, 22080, Note_on_c, 9, 44, 60
4, 22083, Note_on_c, 9, 63, 0
4, 22095, Note_on_c, 9, 64, 0
4, 22098, Note_on_c, 9, 59, 0
4, 22113, Note_on_c, 9, 62, 46
4, 22116, Note_on_c, 9, 44, 0
4, 22126, Note_on_c, 9, 62, 0
4, 22146, Note_on_c, 9, 63, 76
4, 22147, Note_on_c, 9, 64, 72
4, 22159, Note_on_c, 9, 63, 0
4, 22170, Note_on_c, 9, 59, 63
4, 22172, Note_on_c, 9, 64, 0
4, 22177, Note_on_c, 9, 59, 0
4, 22195, Note_on_c, 9, 64, 74
4, 22197, Note_on_c, 9, 63, 55
4, 22200, Note_on_c, 9, 59, 73
4, 22200, Note_on_c, 9, 46, 71
4, 22206, Note_on_c, 9, 63, 0
4, 22216, Note_on_c, 9, 64, 0
4, 22219, Note_on_c, 9, 59, 0
4, 22235, Note_on_c, 9, 46, 0
4, 22240, Note_on_c, 9, 62, 51
4, 22245, Note_on_c, 9, 62, 0
4, 22260, Note_on_c, 9, 59, 87
4, 22268, Note_on_c, 9, 64, 75
4, 22268, Note_on_c, 9, 63, 54
4, 22275, Note_on_c, 9, 59, 0
4, 22278, Note_on_c, 9, 63, 0
4, 22289, Note_on_c, 9, 64, 0
4, 22315, Note_on_c, 9, 63, 67
4, 22318, Note_on_c, 9, 64, 74
4, 22320, Note_on_c, 9, 59, 88
4, 22320, Note_on_c, 9, 44, 74
4, 22328, Note_on_c, 9, 63, 0
4, 22338, Note_on_c, 9, 64, 0
4, 22353, Note_on_c, 9, 62, 55
4, 22366, Note_on_c, 9, 44, 0
4, 22373, Note_on_c, 9, 62, 0
4, 22384, Note_on_c, 9, 59, 0
4, 22384, Note_on_c, 9, 63, 75
4, 22387, Note_on_c, 9, 64, 76
4, 22398, Note_on_c, 9, 63, 0
4, 22410, Note_on_c, 9, 64, 0
4, 22410, Note_on_c, 9, 59, 57
4, 22417, Note_on_c, 9, 59, 0
4, 22439, Note_on_c, 9, 63, 68
4, 22440, Note_on_c, 9, 59, 74
4, 22440, Note_on_c, 9, 64, 76
4, 22440, Note_on_c, 9, 44, 69
4, 22450, Note_on_c, 9, 63, 0
4, 22458, Note_on_c, 9, 64, 0
4, 22462, Note_on_c, 9, 59, 0
4, 22472, Note_on_c, 9, 62, 63
4, 22486, Note_on_c, 9, 44, 0
4, 22488, Note_on_c, 9, 62, 0
4, 22509, Note_on_c, 9, 63, 72
4, 22511, Note_on_c, 9, 64, 77
4, 22523, Note_on_c, 9, 63, 0
4, 22530, Note_on_c, 9, 59, 66
4, 22536, Note_on_c, 9, 64, 0
4, 22538, Note_on_c, 9, 59, 0
4, 22560, Note_on_c, 9, 59, 80
4, 22560, Note_on_c, 9, 44, 65
4, 22569, Note_on_c, 9, 63, 72
4, 22572, Note_on_c, 9, 64, 75
4, 22585, Note_on_c, 9, 63, 0
4, 22585, Note_on_c, 9, 44, 0
4, 22589, Note_on_c, 9, 59, 0
4, 22590, Note_on_c, 9, 46, 73
4, 22592, Note_on_c, 9, 64, 0
4, 22650, Note_on_c, 9, 59, 65
4, 22651, Note_on_c, 9, 46, 0
4, 22658, Note_on_c, 9, 59, 0
4, 22663, Note_on_c, 9, 62, 58
4, 22676, Note_on_c, 9, 62, 0
4, 22680, Note_on_c, 9, 59, 71
4, 22680, Note_on_c, 9, 44, 69
4, 22686, Note_on_c, 9, 63, 75
4, 22689, Note_on_c, 9, 64, 75
4, 22698, Note_on_c, 9, 63, 0
4, 22712, Note_on_c, 9, 64, 0
4, 22723, Note_on_c, 9, 59, 0
4, 22737, Note_on_c, 9, 44, 0
4, 22743, Note_on_c, 9, 63, 69
4, 22745, Note_on_c, 9, 64, 74
4, 22759, Note_on_c, 9, 63, 0
4, 22766, Note_on_c, 9, 64, 0
4, 22770, Note_on_c, 9, 59, 63
4, 22778, Note_on_c, 9, 59, 0
4, 22796, Note_on_c, 9, 62, 44
4, 22800, Note_on_c, 9, 59, 64
4, 22800, Note_on_c, 9, 44, 69
4, 22810, Note_on_c, 9, 62, 0
4, 22827, Note_on_c, 9, 59, 0
4, 22838, Note_on_c, 9, 64, 80
4, 22839, Note_on_c, 9, 63, 62
4, 22849, Note_on_c, 9, 44, 0
4, 22852, Note_on_c, 9, 63, 0
4, 22857, Note_on_c, 9, 64, 0
4, 22887, Note_on_c, 9, 63, 70
4, 22888, Note_on_c, 9, 64, 69
4, 22890, Note_on_c, 9, 59, 60
4, 22898, Note_on_c, 9, 59, 0
4, 22900, Note_on_c, 9, 63, 0
4, 22908, Note_on_c, 9, 64, 0
4, 22920, Note_on_c, 9, 59, 42
4, 22920, Note_on_c, 9, 44, 62
4, 22924, Note_on_c, 9, 63, 57
4, 22924, Note_on_c, 9, 64, 68
4, 22931, Note_on_c, 9, 59, 0
4, 22941, Note_on_c, 9, 63, 0
4, 22947, Note_on_c, 9, 64, 0
4, 22973, Note_on_c, 9, 62, 45
4, 22980, Note_on_c, 9, 59, 81
4, 22980, Note_on_c, 9, 57, 77
4, 22980, Note_on_c, 9, 53, 74
4, 22993, Note_on_c, 9, 62, 0
4, 22996, Note_on_c, 9, 57, 0
4, 23003, Note_on_c, 9, 53, 0
4, 23005, Note_on_c, 9, 59, 0
4, 23010, Note_on_c, 9, 62, 60
4, 23025, Note_on_c, 9, 62, 0
4, 23039, Note_on_c, 9, 44, 0
4, 23040, Note_on_c, 9, 59, 80
4, 23040, Note_on_c, 9, 44, 72
4, 23045, Note_on_c, 9, 62, 19
4, 23051, Note_on_c, 9, 62, 0
4, 23053, Note_on_c, 9, 59, 0
4, 23076, Note_on_c, 9, 44, 0
4, 23157, Note_on_c, 9, 59, 85
4, 23160, Note_on_c, 9, 44, 71
4, 23173, Note_on_c, 9, 59, 0
4, 23197, Note_on_c, 9, 44, 0
4, 23262, Note_on_c, 9, 59, 44
4, 23271, Note_on_c, 9, 59, 0
4, 23280, Note_on_c, 9, 44, 65
4, 23283, Note_on_c, 9, 59, 80
4, 23314, Note_on_c, 9, 59, 0
4, 23325, Note_on_c, 9, 44, 0
4, 23400, Note_on_c, 9, 44, 60
4, 23404, Note_on_c, 9, 59, 87
4, 23426, Note_on_c, 9, 59, 0
4, 23448, Note_on_c, 9, 44, 0
4, 23520, Note_on_c, 9, 44, 60
4, 23521, Note_on_c, 9, 59, 89
4, 23544, Note_on_c, 9, 59, 0
4, 23593, Note_on_c, 9, 44, 0
4, 23622, Note_on_c, 9, 59, 68
4, 23629, Note_on_c, 9, 59, 0
4, 23640, Note_on_c, 9, 44, 64
4, 23643, Note_on_c, 9, 59, 84
4, 23667, Note_on_c, 9, 44, 0
4, 23670, Note_on_c, 9, 46, 74
4, 23674, Note_on_c, 9, 59, 0
4, 23704, Note_on_c, 9, 59, 89
4, 23721, Note_on_c, 9, 59, 0
4, 23740, Note_on_c, 9, 46, 0
4, 23760, Note_on_c, 9, 44, 63
4, 23762, Note_on_c, 9, 59, 94
4, 23788, Note_on_c, 9, 59, 0
4, 23809, Note_on_c, 9, 44, 0
4, 23856, Note_on_c, 9, 59, 62
4, 23864, Note_on_c, 9, 59, 0
4, 23880, Note_on_c, 9, 44, 59
4, 23882, Note_on_c, 9, 59, 80
4, 23953, Note_on_c, 9, 44, 0
4, 23960, Note_on_c, 9, 59, 0
4, 23998, Note_on_c, 9, 59, 87
4, 24000, Note_on_c, 9, 44, 56
4, 24061, Note_on_c, 9, 44, 0
4, 24074, Note_on_c, 9, 59, 0
4, 24120, Note_on_c, 9, 44, 59
4, 24122, Note_on_c, 9, 59, 81
4, 24167, Note_on_c, 9, 44, 0
4, 24198, Note_on_c, 9, 59, 0
4, 24240, Note_on_c, 9, 44, 68
4, 24241, Note_on_c, 9, 59, 88
4, 24296, Note_on_c, 9, 44, 0
4, 24317, Note_on_c, 9, 59, 0
4, 24341, Note_on_c, 9, 59, 66
4, 24349, Note_on_c, 9, 59, 0
4, 24360, Note_on_c, 9, 44, 65
4, 24366, Note_on_c, 9, 59, 81
4, 24404, Note_on_c, 9, 59, 0
4, 24426, Note_on_c, 9, 44, 0
4, 24430, Note_on_c, 9, 59, 92
4, 24455, Note_on_c, 9, 59, 0
4, 24480, Note_on_c, 9, 44, 74
4, 24490, Note_on_c, 9, 59, 83
4, 24523, Note_on_c, 9, 44, 0
4, 24565, Note_on_c, 9, 59, 0
4, 24600, Note_on_c, 9, 44, 69
4, 24610, Note_on_c, 9, 59, 88
4, 24643, Note_on_c, 9, 44, 0
4, 24692, Note_on_c, 9, 59, 0
4, 24720, Note_on_c, 9, 44, 61
4, 24734, Note_on_c, 9, 59, 74
4, 24753, Note_on_c, 9, 59, 0
4, 24758, Note_on_c, 9, 37, 81
4, 24770, Note_on_c, 9, 44, 0
4, 24820, Note_on_c, 9, 37, 0
4, 24840, Note_on_c, 9, 44, 69
4, 24861, Note_on_c, 9, 59, 75
4, 24884, Note_on_c, 9, 44, 0
4, 24937, Note_on_c, 9, 59, 0
4, 24960, Note_on_c, 9, 44, 71
4, 24976, Note_on_c, 9, 59, 80
4, 25012, Note_on_c, 9, 44, 0
4, 25058, Note_on_c, 9, 59, 0
4, 25075, Note_on_c, 9, 59, 63
4, 25080, Note_on_c, 9, 44, 63
4, 25088, Note_on_c, 9, 59, 0
4, 25102, Note_on_c, 9, 59, 80
4, 25106, Note_on_c, 9, 44, 0
4, 25110, Note_on_c, 9, 46, 72
4, 25125, Note_on_c, 9, 59, 0
4, 25160, Note_on_c, 9, 59, 85
4, 25175, Note_on_c, 9, 59, 0
4, 25183, Note_on_c, 9, 46, 0
4, 25200, Note_on_c, 9, 44, 71
4, 25221, Note_on_c, 9, 59, 91
4, 25261, Note_on_c, 9, 44, 0
4, 25301, Note_on_c, 9, 59, 0
4, 25320, Note_on_c, 9, 44, 73
4, 25327, Note_on_c, 9, 59, 32
4, 25335, Note_on_c, 9, 59, 0
4, 25347, Note_on_c, 9, 59, 80
4, 25358, Note_on_c, 9, 44, 0
4, 25424, Note_on_c, 9, 59, 0
4, 25440, Note_on_c, 9, 46, 69
4, 25461, Note_on_c, 9, 59, 47
4, 25470, Note_on_c, 9, 59, 0
4, 25487, Note_on_c, 9, 46, 0
4, 25510, Note_on_c, 9, 59, 87
4, 25522, Note_on_c, 9, 59, 0
4, 25560, Note_on_c, 9, 44, 71
4, 25572, Note_on_c, 9, 59, 88
4, 25588, Note_on_c, 9, 59, 0
4, 25599, Note_on_c, 9, 44, 0
4, 25656, Note_on_c, 9, 59, 70
4, 25664, Note_on_c, 9, 59, 0
4, 25680, Note_on_c, 9, 44, 67
4, 25682, Note_on_c, 9, 59, 74
4, 25697, Note_on_c, 9, 59, 0
4, 25723, Note_on_c, 9, 44, 0
4, 25742, Note_on_c, 9, 59, 87
4, 25749, Note_on_c, 9, 59, 0
4, 25800, Note_on_c, 9, 44, 61
4, 25823, Note_on_c, 9, 44, 0
4, 25830, Note_on_c, 9, 46, 69
4, 25835, Note_on_c, 9, 59, 68
4, 25842, Note_on_c, 9, 59, 0
4, 25857, Note_on_c, 9, 59, 78
4, 25871, Note_on_c, 9, 59, 0
4, 25901, Note_on_c, 9, 46, 0
4, 25918, Note_on_c, 9, 59, 90
4, 25920, Note_on_c, 9, 44, 68
4, 25936, Note_on_c, 9, 59, 0
4, 25969, Note_on_c, 9, 44, 0
4, 26005, Note_on_c, 9, 59, 66
4, 26012, Note_on_c, 9, 59, 0
4, 26030, Note_on_c, 9, 59, 76
4, 26040, Note_on_c, 9, 44, 69
4, 26046, Note_on_c, 9, 59, 0
4, 26092, Note_on_c, 9, 59, 96
4, 26104, Note_on_c, 9, 44, 0
4, 26110, Note_on_c, 9, 59, 0
4, 26160, Note_on_c, 9, 44, 70
4, 26177, Note_on_c, 9, 59, 69
4, 26191, Note_on_c, 9, 59, 0
4, 26206, Note_on_c, 9, 59, 81
4, 26211, Note_on_c, 9, 44, 0
4, 26221, Note_on_c, 9, 59, 0
4, 26278, Note_on_c, 9, 59, 95
4, 26280, Note_on_c, 9, 44, 67
4, 26332, Note_on_c, 9, 44, 0
4, 26361, Note_on_c, 9, 59, 0
4, 26400, Note_on_c, 9, 44, 71
4, 26403, Note_on_c, 9, 59, 88
4, 26456, Note_on_c, 9, 44, 0
4, 26481, Note_on_c, 9, 59, 0
4, 26520, Note_on_c, 9, 44, 75
4, 26525, Note_on_c, 9, 59, 80
4, 26576, Note_on_c, 9, 44, 0
4, 26596, Note_on_c, 9, 59, 0
4, 26624, Note_on_c, 9, 53, 80
4, 26639, Note_on_c, 9, 53, 0
4, 26640, Note_on_c, 9, 44, 72
4, 26650, Note_on_c, 9, 59, 70
4, 26683, Note_on_c, 9, 44, 0
4, 26688, Note_on_c, 9, 59, 0
4, 26706, Note_on_c, 9, 59, 66
4, 26721, Note_on_c, 9, 59, 0
4, 26760, Note_on_c, 9, 44, 68
4, 26764, Note_on_c, 9, 59, 80
4, 26783, Note_on_c, 9, 59, 0
4, 26808, Note_on_c, 9, 44, 0
4, 26878, Note_on_c, 9, 59, 71
4, 26880, Note_on_c, 9, 46, 73
4, 26906, Note_on_c, 9, 59, 0
4, 26931, Note_on_c, 9, 46, 0
4, 27000, Note_on_c, 9, 44, 72
4, 27004, Note_on_c, 9, 59, 87
4, 27020, Note_on_c, 9, 59, 0
4, 27043, Note_on_c, 9, 44, 0
4, 27062, Note_on_c, 9, 59, 77
4, 27079, Note_on_c, 9, 59, 0
4, 27120, Note_on_c, 9, 59, 83
4, 27120, Note_on_c, 9, 44, 69
4, 27139, Note_on_c, 9, 59, 0
4, 27165, Note_on_c, 9, 44, 0
4, 27240, Note_on_c, 9, 44, 68
4, 27244, Note_on_c, 9, 59, 73
4, 27258, Note_on_c, 9, 59, 0
4, 27265, Note_on_c, 9, 44, 0
4, 27270, Note_on_c, 9, 46, 71
4, 27272, Note_on_c, 9, 59, 82
4, 27288, Note_on_c, 9, 59, 0
4, 27340, Note_on_c, 9, 46, 0
4, 27360, Note_on_c, 9, 44, 74
4, 27361, Note_on_c, 9, 59, 81
4, 27376, Note_on_c, 9, 59, 0
4, 27423, Note_on_c, 9, 44, 0
4, 27480, Note_on_c, 9, 59, 75
4, 27480, Note_on_c, 9, 44, 75
4, 27497, Note_on_c, 9, 59, 0
4, 27524, Note_on_c, 9, 44, 0
4, 27592, Note_on_c, 9, 59, 64
4, 27600, Note_on_c, 9, 59, 0
4, 27600, Note_on_c, 9, 44, 74
4, 27603, Note_on_c, 9, 53, 66
4, 27606, Note_on_c, 9, 51, 33
4, 27617, Note_on_c, 9, 51, 0
4, 27621, Note_on_c, 9, 53, 0
4, 27638, Note_on_c, 9, 44, 0
4, 27656, Note_on_c, 9, 51, 71
4, 27659, Note_on_c, 9, 53, 69
4, 27677, Note_on_c, 9, 53, 0
4, 27680, Note_on_c, 9, 51, 0
4, 27720, Note_on_c, 9, 44, 73
4, 27724, Note_on_c, 9, 59, 81
4, 27750, Note_on_c, 9, 59, 0
4, 27762, Note_on_c, 9, 44, 0
4, 27840, Note_on_c, 9, 44, 72
4, 27844, Note_on_c, 9, 59, 77
4, 27852, Note_on_c, 9, 59, 0
4, 27869, Note_on_c, 9, 59, 65
4, 27874, Note_on_c, 9, 44, 0
4, 27882, Note_on_c, 9, 59, 0
4, 27960, Note_on_c, 9, 44, 73
4, 27962, Note_on_c, 9, 51, 69
4, 27963, Note_on_c, 9, 53, 68
4, 27981, Note_on_c, 9, 53, 0
4, 27982, Note_on_c, 9, 51, 0
4, 27997, Note_on_c, 9, 44, 0
4, 28024, Note_on_c, 9, 51, 74
4, 28025, Note_on_c, 9, 53, 74
4, 28038, Note_on_c, 9, 51, 0
4, 28043, Note_on_c, 9, 53, 0
4, 28080, Note_on_c, 9, 44, 72
4, 28088, Note_on_c, 9, 59, 87
4, 28106, Note_on_c, 9, 59, 0
4, 28113, Note_on_c, 9, 44, 0
4, 28200, Note_on_c, 9, 44, 74
4, 28211, Note_on_c, 9, 59, 83
4, 28232, Note_on_c, 9, 59, 0
4, 28232, Note_on_c, 9, 44, 0
4, 28320, Note_on_c, 9, 44, 74
4, 28336, Note_on_c, 9, 59, 82
4, 28355, Note_on_c, 9, 59, 0
4, 28358, Note_on_c, 9, 44, 0
4, 28428, Note_on_c, 9, 59, 69
4, 28435, Note_on_c, 9, 59, 0
4, 28440, Note_on_c, 9, 44, 71
4, 28452, Note_on_c, 9, 59, 78
4, 28481, Note_on_c, 9, 44, 0
4, 28532, Note_on_c, 9, 59, 0
4, 28560, Note_on_c, 9, 44, 73
4, 28565, Note_on_c, 9, 59, 89
4, 28604, Note_on_c, 9, 44, 0
4, 28652, Note_on_c, 9, 59, 0
4, 28680, Note_on_c, 9, 44, 67
4, 28685, Note_on_c, 9, 59, 87
4, 28704, Note_on_c, 9, 44, 0
4, 28710, Note_on_c, 9, 46, 73
4, 28734, Note_on_c, 9, 59, 0
4, 28776, Note_on_c, 9, 53, 34
4, 28781, Note_on_c, 9, 51, 26
4, 28782, Note_on_c, 9, 46, 0
4, 28785, Note_on_c, 9, 53, 0
4, 28788, Note_on_c, 9, 51, 0
4, 28798, Note_on_c, 9, 53, 79
4, 28800, Note_on_c, 9, 44, 73
4, 28817, Note_on_c, 9, 53, 0
4, 28848, Note_on_c, 9, 44, 0
4, 28920, Note_on_c, 9, 44, 62
4, 28923, Note_on_c, 9, 53, 68
4, 28939, Note_on_c, 9, 53, 0
4, 28964, Note_on_c, 9, 44, 0
4, 29028, Note_on_c, 9, 53, 72
4, 29036, Note_on_c, 9, 53, 0
4, 29040, Note_on_c, 9, 44, 63
4, 29050, Note_on_c, 9, 53, 79
4, 29067, Note_on_c, 9, 53, 0
4, 29070, Note_on_c, 9, 44, 0
4, 29070, Note_on_c, 9, 46, 71
4, 29107, Note_on_c, 9, 53, 80
4, 29117, Note_on_c, 9, 53, 0
4, 29138, Note_on_c, 9, 46, 0
4, 29160, Note_on_c, 9, 44, 60
4, 29166, Note_on_c, 9, 53, 83
4, 29181, Note_on_c, 9, 53, 0
4, 29229, Note_on_c, 9, 44, 0
4, 29260, Note_on_c, 9, 53, 64
4, 29268, Note_on_c, 9, 53, 0
4, 29280, Note_on_c, 9, 44, 71
4, 29284, Note_on_c, 9, 53, 68
4, 29303, Note_on_c, 9, 53, 0
4, 29342, Note_on_c, 9, 53, 71
4, 29353, Note_on_c, 9, 53, 0
4, 29355, Note_on_c, 9, 44, 0
4, 29400, Note_on_c, 9, 44, 71
4, 29403, Note_on_c, 9, 53, 68
4, 29410, Note_on_c, 9, 53, 0
4, 29467, Note_on_c, 9, 44, 0
4, 29520, Note_on_c, 9, 44, 71
4, 29529, Note_on_c, 9, 51, 63
4, 29530, Note_on_c, 9, 53, 59
4, 29538, Note_on_c, 9, 53, 0
4, 29546, Note_on_c, 9, 51, 0
4, 29581, Note_on_c, 9, 44, 0
4, 29620, Note_on_c, 9, 53, 51
4, 29621, Note_on_c, 9, 51, 46
4, 29628, Note_on_c, 9, 53, 0
4, 29630, Note_on_c, 9, 51, 0
4, 29640, Note_on_c, 9, 44, 69
4, 29646, Note_on_c, 9, 59, 78
4, 29664, Note_on_c, 9, 59, 0
4, 29704, Note_on_c, 9, 59, 71
4, 29710, Note_on_c, 9, 44, 0
4, 29722, Note_on_c, 9, 59, 0
4, 29760, Note_on_c, 9, 44, 68
4, 29765, Note_on_c, 9, 59, 78
4, 29781, Note_on_c, 9, 59, 0
4, 29820, Note_on_c, 9, 53, 82
4, 29821, Note_on_c, 9, 51, 67
4, 29826, Note_on_c, 9, 44, 0
4, 29834, Note_on_c, 9, 53, 0
4, 29837, Note_on_c, 9, 51, 0
4, 29878, Note_on_c, 9, 59, 65
4, 29880, Note_on_c, 9, 44, 71
4, 29894, Note_on_c, 9, 59, 0
4, 29938, Note_on_c, 9, 59, 70
4, 29945, Note_on_c, 9, 59, 0
4, 29945, Note_on_c, 9, 44, 0
4, 29999, Note_on_c, 9, 59, 71
4, 30000, Note_on_c, 9, 44, 71
4, 30009, Note_on_c, 9, 59, 0
4, 30066, Note_on_c, 9, 44, 0
4, 30093, Note_on_c, 9, 59, 68
4, 30102, Note_on_c, 9, 59, 0
4, 30120, Note_on_c, 9, 59, 71
4, 30120, Note_on_c, 9, 46, 71
4, 30141, Note_on_c, 9, 59, 0
4, 30175, Note_on_c, 9, 46, 0
4, 30185, Note_on_c, 9, 59, 92
4, 30189, Note_on_c, 9, 60, 62
4, 30196, Note_on_c, 9, 60, 0
4, 30240, Note_on_c, 9, 44, 69
4, 30270, Note_on_c, 9, 59, 0
4, 30284, Note_on_c, 9, 59, 75
4, 30297, Note_on_c, 9, 44, 0
4, 30302, Note_on_c, 9, 59, 0
4, 30332, Note_on_c, 9, 59, 66
4, 30341, Note_on_c, 9, 59, 0
4, 30360, Note_on_c, 9, 59, 85
4, 30360, Note_on_c, 9, 44, 70
4, 30417, Note_on_c, 9, 44, 0
4, 30428, Note_on_c, 9, 59, 0
4, 30452, Note_on_c, 9, 59, 78
4, 30478, Note_on_c, 9, 59, 0
4, 30480, Note_on_c, 9, 44, 71
4, 30515, Note_on_c, 9, 59, 64
4, 30523, Note_on_c, 9, 59, 0
4, 30547, Note_on_c, 9, 59, 92
4, 30550, Note_on_c, 9, 44, 0
4, 30570, Note_on_c, 9, 59, 0
4, 30600, Note_on_c, 9, 44, 67
4, 30608, Note_on_c, 9, 59, 95
4, 30630, Note_on_c, 9, 59, 0
4, 30663, Note_on_c, 9, 44, 0
4, 30665, Note_on_c, 9, 59, 83
4, 30680, Note_on_c, 9, 59, 0
4, 30720, Note_on_c, 9, 44, 69
4, 30729, Note_on_c, 9, 59, 95
4, 30757, Note_on_c, 9, 59, 0
4, 30782, Note_on_c, 9, 44, 0
4, 30828, Note_on_c, 9, 59, 58
4, 30835, Note_on_c, 9, 59, 0
4, 30840, Note_on_c, 9, 44, 68
4, 30850, Note_on_c, 9, 59, 73
4, 30870, Note_on_c, 9, 59, 0
4, 30870, Note_on_c, 9, 46, 74
4, 30871, Note_on_c, 9, 44, 0
4, 30906, Note_on_c, 9, 59, 90
4, 30921, Note_on_c, 9, 59, 0
4, 30938, Note_on_c, 9, 46, 0
4, 30960, Note_on_c, 9, 44, 67
4, 30964, Note_on_c, 9, 59, 96
4, 31033, Note_on_c, 9, 59, 0
4, 31046, Note_on_c, 9, 44, 0
4, 31079, Note_on_c, 9, 59, 91
4, 31080, Note_on_c, 9, 44, 69
4, 31139, Note_on_c, 9, 59, 0
4, 31157, Note_on_c, 9, 44, 0
4, 31165, Note_on_c, 9, 59, 83
4, 31178, Note_on_c, 9, 59, 0
4, 31194, Note_on_c, 9, 59, 87
4, 31200, Note_on_c, 9, 44, 70
4, 31255, Note_on_c, 9, 59, 0
4, 31276, Note_on_c, 9, 44, 0
4, 31308, Note_on_c, 9, 59, 96
4, 31320, Note_on_c, 9, 44, 74
4, 31377, Note_on_c, 9, 59, 0
4, 31388, Note_on_c, 9, 44, 0
4, 31428, Note_on_c, 9, 59, 99
4, 31440, Note_on_c, 9, 44, 73
4, 31484, Note_on_c, 9, 59, 0
4, 31510, Note_on_c, 9, 44, 0
4, 31554, Note_on_c, 9, 59, 76
4, 31555, Note_on_c, 9, 57, 80
4, 31560, Note_on_c, 9, 44, 69
4, 31572, Note_on_c, 9, 57, 0
4, 31574, Note_on_c, 9, 59, 0
4, 31585, Note_on_c, 9, 44, 0
4, 31590, Note_on_c, 9, 46, 72
4, 31641, Note_on_c, 9, 59, 78
4, 31658, Note_on_c, 9, 59, 0
4, 31669, Note_on_c, 9, 46, 0
4, 31672, Note_on_c, 9, 59, 74
4, 31680, Note_on_c, 9, 44, 70
4, 31740, Note_on_c, 9, 59, 0
4, 31753, Note_on_c, 9, 44, 0
4, 31788, Note_on_c, 9, 59, 89
4, 31800, Note_on_c, 9, 44, 71
4, 31817, Note_on_c, 9, 59, 0
4, 31851, Note_on_c, 9, 44, 0
4, 31873, Note_on_c, 9, 59, 60
4, 31883, Note_on_c, 9, 59, 0
4, 31901, Note_on_c, 9, 59, 80
4, 31920, Note_on_c, 9, 44, 71
4, 31964, Note_on_c, 9, 59, 0
4, 31974, Note_on_c, 9, 44, 0
4, 32026, Note_on_c, 9, 59, 90
4, 32040, Note_on_c, 9, 44, 74
4, 32095, Note_on_c, 9, 59, 0
4, 32096, Note_on_c, 9, 44, 0
4, 32160, Note_on_c, 9, 44, 69
4, 32206, Note_on_c, 9, 44, 0
4, 32227, Note_on_c, 9, 59, 71
4, 32239, Note_on_c, 9, 59, 0
4, 32280, Note_on_c, 9, 44, 70
4, 32284, Note_on_c, 9, 59, 81
4, 32294, Note_on_c, 9, 59, 0
4, 32309, Note_on_c, 9, 44, 0
4, 32310, Note_on_c, 9, 46, 76
4, 32368, Note_on_c, 9, 46, 0
4, 32400, Note_on_c, 9, 44, 71
4, 32413, Note_on_c, 9, 59, 75
4, 32430, Note_on_c, 9, 59, 0
4, 32467, Note_on_c, 9, 44, 0
4, 32512, Note_on_c, 9, 59, 75
4, 32520, Note_on_c, 9, 44, 72
4, 32521, Note_on_c, 9, 59, 0
4, 32577, Note_on_c, 9, 59, 67
4, 32581, Note_on_c, 9, 44, 0
4, 32584, Note_on_c, 9, 59, 0
4, 32633, Note_on_c, 9, 59, 50
4, 32640, Note_on_c, 9, 44, 73
4, 32641, Note_on_c, 9, 59, 0
4, 32658, Note_on_c, 9, 59, 71
4, 32674, Note_on_c, 9, 59, 0
4, 32699, Note_on_c, 9, 44, 0
4, 32720, Note_on_c, 9, 59, 79
4, 32732, Note_on_c, 9, 59, 0
4, 32760, Note_on_c, 9, 44, 69
4, 32783, Note_on_c, 9, 59, 80
4, 32799, Note_on_c, 9, 59, 0
4, 32818, Note_on_c, 9, 44, 0
4, 32870, Note_on_c, 9, 59, 78
4, 32879, Note_on_c, 9, 59, 0
4, 32880, Note_on_c, 9, 44, 68
4, 32931, Note_on_c, 9, 44, 0
4, 32950, Note_on_c, 9, 59, 66
4, 32958, Note_on_c, 9, 59, 0
4, 33000, Note_on_c, 9, 44, 72
4, 33013, Note_on_c, 9, 59, 74
4, 33023, Note_on_c, 9, 59, 0
4, 33058, Note_on_c, 9, 44, 0
4, 33068, Note_on_c, 9, 59, 80
4, 33078, Note_on_c, 9, 59, 0
4, 33120, Note_on_c, 9, 44, 72
4, 33131, Note_on_c, 9, 59, 83
4, 33147, Note_on_c, 9, 59, 0
4, 33165, Note_on_c, 9, 44, 0
4, 33214, Note_on_c, 9, 59, 70
4, 33224, Note_on_c, 9, 59, 0
4, 33240, Note_on_c, 9, 44, 71
4, 33244, Note_on_c, 9, 59, 68
4, 33261, Note_on_c, 9, 59, 0
4, 33286, Note_on_c, 9, 44, 0
4, 33311, Note_on_c, 9, 59, 76
4, 33320, Note_on_c, 9, 59, 0
4, 33360, Note_on_c, 9, 44, 67
4, 33401, Note_on_c, 9, 59, 74
4, 33413, Note_on_c, 9, 59, 0
4, 33417, Note_on_c, 9, 44, 0
4, 33426, Note_on_c, 9, 59, 78
4, 33441, Note_on_c, 9, 59, 0
4, 33480, Note_on_c, 9, 44, 63
4, 33485, Note_on_c, 9, 59, 85
4, 33502, Note_on_c, 9, 59, 0
4, 33516, Note_on_c, 9, 44, 0
4, 33567, Note_on_c, 9, 59, 69
4, 33575, Note_on_c, 9, 59, 0
4, 33592, Note_on_c, 9, 59, 74
4, 33600, Note_on_c, 9, 44, 60
4, 33608, Note_on_c, 9, 59, 0
4, 33636, Note_on_c, 9, 44, 0
4, 33658, Note_on_c, 9, 59, 82
4, 33671, Note_on_c, 9, 59, 0
4, 33720, Note_on_c, 9, 46, 71
4, 33748, Note_on_c, 9, 59, 74
4, 33755, Note_on_c, 9, 46, 0
4, 33761, Note_on_c, 9, 59, 0
4, 33768, Note_on_c, 9, 53, 68
4, 33776, Note_on_c, 9, 59, 76
4, 33791, Note_on_c, 9, 59, 0
4, 33802, Note_on_c, 9, 53, 0
4, 33836, Note_on_c, 9, 53, 65
4, 33837, Note_on_c, 9, 59, 87
4, 33840, Note_on_c, 9, 44, 74
4, 33853, Note_on_c, 9, 59, 0
4, 33862, Note_on_c, 9, 53, 0
4, 33886, Note_on_c, 9, 44, 0
4, 33925, Note_on_c, 9, 59, 73
4, 33940, Note_on_c, 9, 59, 0
4, 33956, Note_on_c, 9, 59, 77
4, 33956, Note_on_c, 9, 53, 69
4, 33960, Note_on_c, 9, 44, 69
4, 33972, Note_on_c, 9, 59, 0
4, 33976, Note_on_c, 9, 53, 0
4, 34006, Note_on_c, 9, 44, 0
4, 34016, Note_on_c, 9, 53, 74
4, 34018, Note_on_c, 9, 59, 91
4, 34033, Note_on_c, 9, 59, 0
4, 34045, Note_on_c, 9, 53, 0
4, 34080, Note_on_c, 9, 44, 65
4, 34105, Note_on_c, 9, 44, 0
4, 34106, Note_on_c, 9, 59, 66
4, 34110, Note_on_c, 9, 46, 73
4, 34115, Note_on_c, 9, 59, 0
4, 34131, Note_on_c, 9, 53, 73
4, 34131, Note_on_c, 9, 59, 75
4, 34147, Note_on_c, 9, 59, 0
4, 34154, Note_on_c, 9, 53, 0
4, 34171, Note_on_c, 9, 46, 0
4, 34193, Note_on_c, 9, 53, 80
4, 34194, Note_on_c, 9, 59, 95
4, 34200, Note_on_c, 9, 44, 69
4, 34214, Note_on_c, 9, 59, 0
4, 34233, Note_on_c, 9, 53, 0
4, 34257, Note_on_c, 9, 44, 0
4, 34287, Note_on_c, 9, 59, 77
4, 34287, Note_on_c, 9, 53, 64
4, 34302, Note_on_c, 9, 59, 0
4, 34314, Note_on_c, 9, 59, 82
4, 34320, Note_on_c, 9, 44, 69
4, 34330, Note_on_c, 9, 59, 0
4, 34336, Note_on_c, 9, 53, 0
4, 34369, Note_on_c, 9, 44, 0
4, 34375, Note_on_c, 9, 53, 75
4, 34378, Note_on_c, 9, 59, 94
4, 34391, Note_on_c, 9, 59, 0
4, 34409, Note_on_c, 9, 53, 0
4, 34432, Note_on_c, 9, 53, 59
4, 34438, Note_on_c, 9, 59, 74
4, 34440, Note_on_c, 9, 44, 62
4, 34445, Note_on_c, 9, 59, 0
4, 34451, Note_on_c, 9, 53, 0
4, 34493, Note_on_c, 9, 53, 82
4, 34495, Note_on_c, 9, 59, 94
4, 34509, Note_on_c, 9, 59, 0
4, 34519, Note_on_c, 9, 53, 0
4, 34554, Note_on_c, 9, 53, 74
4, 34555, Note_on_c, 9, 59, 103
4, 34559, Note_on_c, 9, 44, 0
4, 34560, Note_on_c, 9, 44, 72
4, 34573, Note_on_c, 9, 53, 0
4, 34574, Note_on_c, 9, 59, 0
4, 34596, Note_on_c, 9, 44, 0
4, 34644, Note_on_c, 9, 59, 71
4, 34656, Note_on_c, 9, 59, 0
4, 34680, Note_on_c, 9, 44, 71
4, 34717, Note_on_c, 9, 44, 0
4, 34741, Note_on_c, 9, 59, 74
4, 34758, Note_on_c, 9, 59, 0
4, 34800, Note_on_c, 9, 44, 65
4, 34829, Note_on_c, 9, 59, 71
4, 34845, Note_on_c, 9, 59, 0
4, 34845, Note_on_c, 9, 44, 0
4, 34858, Note_on_c, 9, 59, 70
4, 34870, Note_on_c, 9, 59, 0
4, 34917, Note_on_c, 9, 59, 85
4, 34920, Note_on_c, 9, 44, 60
4, 34939, Note_on_c, 9, 59, 0
4, 34968, Note_on_c, 9, 44, 0
4, 35002, Note_on_c, 9, 59, 66
4, 35010, Note_on_c, 9, 59, 0
4, 35029, Note_on_c, 9, 59, 66
4, 35040, Note_on_c, 9, 59, 0
4, 35040, Note_on_c, 9, 44, 60
4, 35095, Note_on_c, 9, 59, 85
4, 35108, Note_on_c, 9, 59, 0
4, 35113, Note_on_c, 9, 44, 0
4, 35160, Note_on_c, 9, 44, 64
4, 35163, Note_on_c, 9, 59, 82
4, 35178, Note_on_c, 9, 59, 0
4, 35187, Note_on_c, 9, 44, 0
4, 35190, Note_on_c, 9, 46, 74
4, 35260, Note_on_c, 9, 46, 0
4, 35280, Note_on_c, 9, 44, 63
4, 35287, Note_on_c, 9, 59, 91
4, 35302, Note_on_c, 9, 59, 0
4, 35329, Note_on_c, 9, 44, 0
4, 35379, Note_on_c, 9, 59, 90
4, 35393, Note_on_c, 9, 59, 0
4, 35400, Note_on_c, 9, 44, 59
4, 35471, Note_on_c, 9, 59, 103
4, 35473, Note_on_c, 9, 44, 0
4, 35491, Note_on_c, 9, 59, 0
4, 35520, Note_on_c, 9, 44, 56
4, 35581, Note_on_c, 9, 44, 0
4, 35590, Note_on_c, 9, 59, 78
4, 35607, Note_on_c, 9, 59, 0
4, 35640, Note_on_c, 9, 44, 59
4, 35651, Note_on_c, 9, 59, 88
4, 35666, Note_on_c, 9, 59, 0
4, 35687, Note_on_c, 9, 44, 0
4, 35739, Note_on_c, 9, 59, 75
4, 35754, Note_on_c, 9, 59, 0
4, 35760, Note_on_c, 9, 44, 68
4, 35816, Note_on_c, 9, 44, 0
4, 35827, Note_on_c, 9, 59, 77
4, 35843, Note_on_c, 9, 59, 0
4, 35880, Note_on_c, 9, 44, 65
4, 35893, Note_on_c, 9, 59, 78
4, 35906, Note_on_c, 9, 59, 0
4, 35946, Note_on_c, 9, 44, 0
4, 36000, Note_on_c, 9, 44, 74
4, 36006, Note_on_c, 9, 59, 83
4, 36022, Note_on_c, 9, 59, 0
4, 36043, Note_on_c, 9, 44, 0
4, 36120, Note_on_c, 9, 44, 69
4, 36163, Note_on_c, 9, 44, 0
4, 36179, Note_on_c, 9, 59, 64
4, 36194, Note_on_c, 9, 59, 0
4, 36240, Note_on_c, 9, 44, 61
4, 36245, Note_on_c, 9, 59, 67
4, 36254, Note_on_c, 9, 59, 0
4, 36290, Note_on_c, 9, 44, 0
4, 36298, Note_on_c, 9, 51, 71
4, 36299, Note_on_c, 9, 53, 77
4, 36309, Note_on_c, 9, 53, 0
4, 36313, Note_on_c, 9, 51, 0
4, 36358, Note_on_c, 9, 59, 66
4, 36360, Note_on_c, 9, 44, 69
4, 36372, Note_on_c, 9, 59, 0
4, 36404, Note_on_c, 9, 44, 0
4, 36417, Note_on_c, 9, 59, 80
4, 36431, Note_on_c, 9, 59, 0
4, 36480, Note_on_c, 9, 44, 71
4, 36482, Note_on_c, 9, 59, 79
4, 36495, Note_on_c, 9, 59, 0
4, 36532, Note_on_c, 9, 44, 0
4, 36542, Note_on_c, 9, 51, 79
4, 36543, Note_on_c, 9, 53, 87
4, 36556, Note_on_c, 9, 51, 0
4, 36557, Note_on_c, 9, 53, 0
4, 36600, Note_on_c, 9, 44, 63
4, 36603, Note_on_c, 9, 59, 60
4, 36613, Note_on_c, 9, 59, 0
4, 36626, Note_on_c, 9, 44, 0
4, 36630, Note_on_c, 9, 46, 72
4, 36662, Note_on_c, 9, 59, 78
4, 36669, Note_on_c, 9, 59, 0
4, 36703, Note_on_c, 9, 46, 0
4, 36720, Note_on_c, 9, 44, 71
4, 36725, Note_on_c, 9, 59, 92
4, 36749, Note_on_c, 9, 59, 0
4, 36781, Note_on_c, 9, 44, 0
4, 36840, Note_on_c, 9, 44, 73
4, 36878, Note_on_c, 9, 44, 0
4, 36903, Note_on_c, 9, 59, 77
4, 36920, Note_on_c, 9, 59, 0
4, 36960, Note_on_c, 9, 46, 69
4, 36993, Note_on_c, 9, 59, 75
4, 37006, Note_on_c, 9, 59, 0
4, 37007, Note_on_c, 9, 46, 0
4, 37077, Note_on_c, 9, 59, 76
4, 37080, Note_on_c, 9, 44, 71
4, 37095, Note_on_c, 9, 59, 0
4, 37119, Note_on_c, 9, 44, 0
4, 37164, Note_on_c, 9, 59, 82
4, 37180, Note_on_c, 9, 59, 0
4, 37200, Note_on_c, 9, 44, 67
4, 37235, Note_on_c, 9, 59, 76
4, 37243, Note_on_c, 9, 44, 0
4, 37245, Note_on_c, 9, 59, 0
4, 37258, Note_on_c, 9, 59, 78
4, 37275, Note_on_c, 9, 59, 0
4, 37320, Note_on_c, 9, 44, 61
4, 37323, Note_on_c, 9, 59, 83
4, 37337, Note_on_c, 9, 59, 0
4, 37343, Note_on_c, 9, 44, 0
4, 37350, Note_on_c, 9, 46, 69
4, 37384, Note_on_c, 9, 59, 70
4, 37393, Note_on_c, 9, 59, 0
4, 37421, Note_on_c, 9, 46, 0
4, 37440, Note_on_c, 9, 44, 68
4, 37447, Note_on_c, 9, 59, 90
4, 37466, Note_on_c, 9, 59, 0
4, 37489, Note_on_c, 9, 44, 0
4, 37532, Note_on_c, 9, 59, 81
4, 37547, Note_on_c, 9, 59, 0
4, 37560, Note_on_c, 9, 44, 69
4, 37624, Note_on_c, 9, 44, 0
4, 37673, Note_on_c, 9, 59, 75
4, 37680, Note_on_c, 9, 44, 70
4, 37686, Note_on_c, 9, 59, 0
4, 37699, Note_on_c, 9, 59, 79
4, 37716, Note_on_c, 9, 59, 0
4, 37731, Note_on_c, 9, 44, 0
4, 37800, Note_on_c, 9, 44, 67
4, 37819, Note_on_c, 9, 59, 80
4, 37836, Note_on_c, 9, 59, 0
4, 37852, Note_on_c, 9, 44, 0
4, 37920, Note_on_c, 9, 44, 71
4, 37941, Note_on_c, 9, 59, 78
4, 37958, Note_on_c, 9, 59, 0
4, 37976, Note_on_c, 9, 44, 0
4, 38040, Note_on_c, 9, 44, 75
4, 38054, Note_on_c, 9, 59, 78
4, 38074, Note_on_c, 9, 59, 0
4, 38096, Note_on_c, 9, 44, 0
4, 38145, Note_on_c, 9, 59, 73
4, 38158, Note_on_c, 9, 59, 0
4, 38160, Note_on_c, 9, 44, 72
4, 38173, Note_on_c, 9, 59, 84
4, 38189, Note_on_c, 9, 59, 0
4, 38203, Note_on_c, 9, 44, 0
4, 38280, Note_on_c, 9, 44, 68
4, 38283, Note_on_c, 9, 59, 83
4, 38302, Note_on_c, 9, 59, 0
4, 38328, Note_on_c, 9, 44, 0
4, 38400, Note_on_c, 9, 46, 73
4, 38409, Note_on_c, 9, 59, 82
4, 38426, Note_on_c, 9, 59, 0
4, 38451, Note_on_c, 9, 46, 0
4, 38520, Note_on_c, 9, 44, 72
4, 38529, Note_on_c, 9, 59, 84
4, 38554, Note_on_c, 9, 59, 0
4, 38563, Note_on_c, 9, 44, 0
4, 38640, Note_on_c, 9, 44, 69
4, 38645, Note_on_c, 9, 59, 85
4, 38666, Note_on_c, 9, 59, 0
4, 38685, Note_on_c, 9, 44, 0
4, 38760, Note_on_c, 9, 44, 68
4, 38763, Note_on_c, 9, 59, 83
4, 38785, Note_on_c, 9, 44, 0
4, 38788, Note_on_c, 9, 59, 0
4, 38790, Note_on_c, 9, 46, 71
4, 38860, Note_on_c, 9, 46, 0
4, 38863, Note_on_c, 9, 59, 66
4, 38872, Note_on_c, 9, 59, 0
4, 38880, Note_on_c, 9, 44, 74
4, 38886, Note_on_c, 9, 59, 81
4, 38943, Note_on_c, 9, 44, 0
4, 38964, Note_on_c, 9, 59, 0
4, 39000, Note_on_c, 9, 44, 75
4, 39004, Note_on_c, 9, 59, 85
4, 39028, Note_on_c, 9, 59, 0
4, 39044, Note_on_c, 9, 44, 0
4, 39105, Note_on_c, 9, 59, 67
4, 39112, Note_on_c, 9, 59, 0
4, 39120, Note_on_c, 9, 44, 74
4, 39126, Note_on_c, 9, 59, 76
4, 39158, Note_on_c, 9, 44, 0
4, 39196, Note_on_c, 9, 59, 0
4, 39240, Note_on_c, 9, 44, 73
4, 39241, Note_on_c, 9, 59, 88
4, 39282, Note_on_c, 9, 44, 0
4, 39304, Note_on_c, 9, 59, 0
4, 39353, Note_on_c, 9, 59, 91
4, 39360, Note_on_c, 9, 44, 72
4, 39394, Note_on_c, 9, 44, 0
4, 39419, Note_on_c, 9, 59, 0
4, 39472, Note_on_c, 9, 59, 87
4, 39480, Note_on_c, 9, 44, 73
4, 39494, Note_on_c, 9, 59, 0
4, 39517, Note_on_c, 9, 44, 0
4, 39550, Note_on_c, 9, 59, 57
4, 39558, Note_on_c, 9, 59, 0
4, 39578, Note_on_c, 9, 59, 81
4, 39600, Note_on_c, 9, 44, 72
4, 39633, Note_on_c, 9, 44, 0
4, 39659, Note_on_c, 9, 59, 0
4, 39700, Note_on_c, 9, 59, 84
4, 39720, Note_on_c, 9, 44, 74
4, 39752, Note_on_c, 9, 44, 0
4, 39762, Note_on_c, 9, 59, 0
4, 39825, Note_on_c, 9, 59, 84
4, 39840, Note_on_c, 9, 44, 74
4, 39846, Note_on_c, 9, 59, 0
4, 39878, Note_on_c, 9, 44, 0
4, 39950, Note_on_c, 9, 59, 84
4, 39960, Note_on_c, 9, 44, 71
4, 39970, Note_on_c, 9, 59, 0
4, 40001, Note_on_c, 9, 44, 0
4, 40071, Note_on_c, 9, 59, 87
4, 40080, Note_on_c, 9, 44, 73
4, 40091, Note_on_c, 9, 59, 0
4, 40124, Note_on_c, 9, 44, 0
4, 40200, Note_on_c, 9, 44, 67
4, 40201, Note_on_c, 9, 59, 85
4, 40220, Note_on_c, 9, 59, 0
4, 40224, Note_on_c, 9, 44, 0
4, 40230, Note_on_c, 9, 46, 73
4, 40302, Note_on_c, 9, 46, 0
4, 40304, Note_on_c, 9, 59, 71
4, 40318, Note_on_c, 9, 59, 0
4, 40320, Note_on_c, 9, 44, 73
4, 40330, Note_on_c, 9, 59, 73
4, 40364, Note_on_c, 9, 59, 0
4, 40368, Note_on_c, 9, 44, 0
4, 40440, Note_on_c, 9, 44, 62
4, 40443, Note_on_c, 9, 59, 82
4, 40463, Note_on_c, 9, 59, 0
4, 40484, Note_on_c, 9, 44, 0
4, 40560, Note_on_c, 9, 44, 63
4, 40562, Note_on_c, 9, 59, 84
4, 40583, Note_on_c, 9, 59, 0
4, 40590, Note_on_c, 9, 44, 0
4, 40590, Note_on_c, 9, 46, 71
4, 40651, Note_on_c, 9, 59, 74
4, 40658, Note_on_c, 9, 46, 0
4, 40661, Note_on_c, 9, 59, 0
4, 40680, Note_on_c, 9, 59, 80
4, 40680, Note_on_c, 9, 44, 60
4, 40703, Note_on_c, 9, 59, 0
4, 40749, Note_on_c, 9, 44, 0
4, 40800, Note_on_c, 9, 44, 71
4, 40802, Note_on_c, 9, 59, 84
4, 40823, Note_on_c, 9, 59, 0
4, 40875, Note_on_c, 9, 44, 0
4, 40920, Note_on_c, 9, 44, 71
4, 40925, Note_on_c, 9, 59, 87
4, 40947, Note_on_c, 9, 59, 0
4, 40987, Note_on_c, 9, 44, 0
4, 41040, Note_on_c, 9, 44, 71
4, 41043, Note_on_c, 9, 59, 84
4, 41063, Note_on_c, 9, 59, 0
4, 41101, Note_on_c, 9, 44, 0
4, 41160, Note_on_c, 9, 44, 69
4, 41161, Note_on_c, 9, 59, 88
4, 41182, Note_on_c, 9, 59, 0
4, 41230, Note_on_c, 9, 44, 0
4, 41276, Note_on_c, 9, 59, 85
4, 41280, Note_on_c, 9, 44, 68
4, 41304, Note_on_c, 9, 59, 0
4, 41346, Note_on_c, 9, 44, 0
4, 41369, Note_on_c, 9, 59, 75
4, 41377, Note_on_c, 9, 59, 0
4, 41398, Note_on_c, 9, 59, 83
4, 41400, Note_on_c, 9, 44, 71
4, 41458, Note_on_c, 9, 59, 0
4, 41465, Note_on_c, 9, 44, 0
4, 41520, Note_on_c, 9, 44, 71
4, 41522, Note_on_c, 9, 59, 90
4, 41551, Note_on_c, 9, 59, 0
4, 41586, Note_on_c, 9, 44, 0
4, 41611, Note_on_c, 9, 59, 76
4, 41618, Note_on_c, 9, 59, 0
4, 41639, Note_on_c, 9, 59, 85
4, 41640, Note_on_c, 9, 46, 71
4, 41690, Note_on_c, 9, 59, 0
4, 41695, Note_on_c, 9, 46, 0
4, 41760, Note_on_c, 9, 59, 88
4, 41760, Note_on_c, 9, 44, 69
4, 41813, Note_on_c, 9, 59, 0
4, 41817, Note_on_c, 9, 44, 0
4, 41878, Note_on_c, 9, 59, 87
4, 41880, Note_on_c, 9, 44, 70
4, 41911, Note_on_c, 9, 59, 0
4, 41937, Note_on_c, 9, 44, 0
4, 41967, Note_on_c, 9, 59, 76
4, 41978, Note_on_c, 9, 59, 0
4, 42000, Note_on_c, 9, 59, 84
4, 42000, Note_on_c, 9, 44, 71
4, 42063, Note_on_c, 9, 59, 0
4, 42070, Note_on_c, 9, 44, 0
4, 42117, Note_on_c, 9, 59, 87
4, 42120, Note_on_c, 9, 44, 67
4, 42175, Note_on_c, 9, 59, 0
4, 42183, Note_on_c, 9, 44, 0
4, 42231, Note_on_c, 9, 59, 84
4, 42240, Note_on_c, 9, 44, 69
4, 42294, Note_on_c, 9, 59, 0
4, 42302, Note_on_c, 9, 44, 0
4, 42354, Note_on_c, 9, 59, 76
4, 42360, Note_on_c, 9, 44, 68
4, 42390, Note_on_c, 9, 46, 74
4, 42391, Note_on_c, 9, 44, 0
4, 42394, Note_on_c, 9, 59, 0
4, 42440, Note_on_c, 9, 59, 66
4, 42456, Note_on_c, 9, 59, 0
4, 42458, Note_on_c, 9, 46, 0
4, 42469, Note_on_c, 9, 59, 81
4, 42480, Note_on_c, 9, 44, 67
4, 42554, Note_on_c, 9, 59, 0
4, 42566, Note_on_c, 9, 44, 0
4, 42600, Note_on_c, 9, 59, 83
4, 42600, Note_on_c, 9, 44, 69
4, 42669, Note_on_c, 9, 59, 0
4, 42677, Note_on_c, 9, 44, 0
4, 42720, Note_on_c, 9, 44, 70
4, 42783, Note_on_c, 9, 59, 70
4, 42796, Note_on_c, 9, 44, 0
4, 42802, Note_on_c, 9, 59, 0
4, 42840, Note_on_c, 9, 44, 74
4, 42856, Note_on_c, 9, 59, 91
4, 42908, Note_on_c, 9, 44, 0
4, 42923, Note_on_c, 9, 59, 0
4, 42955, Note_on_c, 9, 59, 81
4, 42960, Note_on_c, 9, 44, 73
4, 42970, Note_on_c, 9, 59, 0
4, 43030, Note_on_c, 9, 44, 0
4, 43041, Note_on_c, 9, 59, 88
4, 43061, Note_on_c, 9, 59, 0
4, 43080, Note_on_c, 9, 44, 69
4, 43105, Note_on_c, 9, 44, 0
4, 43110, Note_on_c, 9, 46, 72
4, 43143, Note_on_c, 9, 59, 78
4, 43158, Note_on_c, 9, 59, 0
4, 43173, Note_on_c, 9, 59, 57
4, 43189, Note_on_c, 9, 59, 0
4, 43189, Note_on_c, 9, 46, 0
4, 43200, Note_on_c, 9, 44, 70
4, 43224, Note_on_c, 9, 59, 84
4, 43239, Note_on_c, 9, 59, 0
4, 43273, Note_on_c, 9, 44, 0
4, 43313, Note_on_c, 9, 59, 77
4, 43320, Note_on_c, 9, 44, 71
4, 43321, Note_on_c, 9, 59, 0
4, 43371, Note_on_c, 9, 44, 0
4, 43393, Note_on_c, 9, 59, 82
4, 43406, Note_on_c, 9, 59, 0
4, 43440, Note_on_c, 9, 44, 71
4, 43454, Note_on_c, 9, 59, 76
4, 43468, Note_on_c, 9, 59, 0
4, 43494, Note_on_c, 9, 44, 0
4, 43503, Note_on_c, 9, 59, 77
4, 43519, Note_on_c, 9, 59, 0
4, 43560, Note_on_c, 9, 44, 74
4, 43564, Note_on_c, 9, 59, 81
4, 43580, Note_on_c, 9, 59, 0
4, 43616, Note_on_c, 9, 44, 0
4, 43643, Note_on_c, 9, 59, 84
4, 43659, Note_on_c, 9, 59, 0
4, 43680, Note_on_c, 9, 44, 69
4, 43708, Note_on_c, 9, 59, 71
4, 43721, Note_on_c, 9, 59, 0
4, 43726, Note_on_c, 9, 44, 0
4, 43771, Note_on_c, 9, 59, 64
4, 43780, Note_on_c, 9, 59, 0
4, 43798, Note_on_c, 9, 59, 74
4, 43800, Note_on_c, 9, 44, 70
4, 43814, Note_on_c, 9, 59, 0
4, 43829, Note_on_c, 9, 44, 0
4, 43830, Note_on_c, 9, 46, 76
4, 43857, Note_on_c, 9, 59, 83
4, 43872, Note_on_c, 9, 59, 0
4, 43888, Note_on_c, 9, 46, 0
4, 43920, Note_on_c, 9, 59, 85
4, 43920, Note_on_c, 9, 44, 71
4, 43939, Note_on_c, 9, 59, 0
4, 43987, Note_on_c, 9, 44, 0
4, 44040, Note_on_c, 9, 44, 72
4, 44045, Note_on_c, 9, 59, 81
4, 44063, Note_on_c, 9, 59, 0
4, 44101, Note_on_c, 9, 44, 0
4, 44164, Note_on_c, 9, 59, 81
4, 44181, Note_on_c, 9, 59, 0
4, 44250, Note_on_c, 9, 59, 62
4, 44266, Note_on_c, 9, 59, 0
4, 44281, Note_on_c, 9, 59, 79
4, 44311, Note_on_c, 9, 59, 0
4, 44405, Note_on_c, 9, 59, 127
4, 44407, Note_on_c, 9, 44, 62
4, 44432, Note_on_c, 9, 59, 0
4, 44433, Note_on_c, 9, 44, 0
4, 44523, Note_on_c, 9, 59, 124
4, 44546, Note_on_c, 9, 59, 0
4, 44642, Note_on_c, 9, 59, 127
4, 44661, Note_on_c, 9, 59, 0
4, 44761, Note_on_c, 9, 59, 121
4, 44780, Note_on_c, 9, 59, 0
4, 44880, Note_on_c, 9, 59, 123
4, 44896, Note_on_c, 9, 59, 0
4, 44962, Note_on_c, 9, 59, 94
4, 44974, Note_on_c, 9, 59, 0
4, 44994, Note_on_c, 9, 59, 114
4, 45056, Note_on_c, 9, 59, 0
4, 45113, Note_on_c, 9, 59, 127
4, 45114, Note_on_c, 9, 44, 65
4, 45160, Note_on_c, 9, 44, 0
4, 45160, Note_on_c, 9, 59, 0
4, 45237, Note_on_c, 9, 59, 127
4, 45253, Note_on_c, 9, 59, 0
4, 45319, Note_on_c, 9, 53, 80
4, 45320, Note_on_c, 9, 51, 67
4, 45327, Note_on_c, 9, 53, 0
4, 45334, Note_on_c, 9, 51, 0
4, 45362, Note_on_c, 9, 53, 68
4, 45403, Note_on_c, 9, 53, 0
4, 45473, Note_on_c, 9, 59, 89
4, 45475, Note_on_c, 9, 44, 57
4, 45499, Note_on_c, 9, 59, 0
4, 45529, Note_on_c, 9, 44, 0
4, 45586, Note_on_c, 9, 44, 57
4, 45601, Note_on_c, 9, 59, 94
4, 45658, Note_on_c, 9, 59, 0
4, 45660, Note_on_c, 9, 44, 0
4, 45719, Note_on_c, 9, 59, 88
4, 45785, Note_on_c, 9, 59, 0
4, 45840, Note_on_c, 9, 44, 63
4, 45842, Note_on_c, 9, 59, 84
4, 45878, Note_on_c, 9, 59, 0
4, 45884, Note_on_c, 9, 44, 0
4, 45920, Note_on_c, 9, 57, 87
4, 45921, Note_on_c, 9, 59, 79
4, 45921, Note_on_c, 9, 51, 78
4, 45925, Note_on_c, 9, 53, 55
4, 46015, Note_on_c, 9, 51, 0
4, 46018, Note_on_c, 9, 53, 0
4, 46023, Note_on_c, 9, 57, 0
4, 46024, Note_on_c, 9, 59, 0
4, 46045, Note_on_c, 9, 51, 83
4, 46060, Note_on_c, 9, 51, 0
4, 46082, Note_on_c, 9, 51, 107
4, 46109, Note_on_c, 9, 51, 0
4, 46196, Note_on_c, 9, 44, 48
4, 46202, Note_on_c, 9, 51, 123
4, 46233, Note_on_c, 9, 44, 0
4, 46263, Note_on_c, 9, 51, 0
4, 46326, Note_on_c, 9, 51, 118
4, 46370, Note_on_c, 9, 51, 0
4, 46429, Note_on_c, 9, 44, 56
4, 46445, Note_on_c, 9, 51, 113
4, 46467, Note_on_c, 9, 44, 0
4, 46487, Note_on_c, 9, 51, 0
4, 46562, Note_on_c, 9, 51, 119
4, 46586, Note_on_c, 9, 51, 0
4, 46649, Note_on_c, 9, 51, 75
4, 46665, Note_on_c, 9, 51, 0
4, 46674, Note_on_c, 9, 44, 60
4, 46679, Note_on_c, 9, 51, 102
4, 46704, Note_on_c, 9, 44, 0
4, 46752, Note_on_c, 9, 51, 0
4, 46803, Note_on_c, 9, 51, 113
4, 46867, Note_on_c, 9, 51, 0
4, 46917, Note_on_c, 9, 44, 69
4, 46919, Note_on_c, 9, 51, 113
4, 46959, Note_on_c, 9, 44, 0
4, 46990, Note_on_c, 9, 51, 0
4, 47041, Note_on_c, 9, 51, 111
4, 47094, Note_on_c, 9, 51, 0
4, 47124, Note_on_c, 9, 51, 79
4, 47133, Note_on_c, 9, 51, 0
4, 47153, Note_on_c, 9, 44, 63
4, 47155, Note_on_c, 9, 51, 96
4, 47158, Note_on_c, 9, 53, 73
4, 47160, Note_on_c, 9, 54, 46
4, 47193, Note_on_c, 9, 44, 0
4, 47246, Note_on_c, 9, 51, 0
4, 47249, Note_on_c, 9, 53, 0
4, 47254, Note_on_c, 9, 54, 0
4, 47275, Note_on_c, 9, 51, 101
4, 47308, Note_on_c, 9, 51, 0
4, 47352, Note_on_c, 9, 51, 114
4, 47353, Note_on_c, 9, 53, 82
4, 47387, Note_on_c, 9, 44, 63
4, 47418, Note_on_c, 9, 44, 0
4, 47436, Note_on_c, 9, 51, 0
4, 47451, Note_on_c, 9, 53, 0
4, 47464, Note_on_c, 9, 51, 83
4, 47481, Note_on_c, 9, 51, 0
4, 47507, Note_on_c, 9, 51, 117
4, 47508, Note_on_c, 9, 53, 83
4, 47595, Note_on_c, 9, 53, 0
4, 47605, Note_on_c, 9, 51, 0
4, 47633, Note_on_c, 9, 51, 74
4, 47633, Note_on_c, 9, 44, 68
4, 47659, Note_on_c, 9, 51, 0
4, 47664, Note_on_c, 9, 44, 0
4, 47729, Note_on_c, 9, 51, 47
4, 47744, Note_on_c, 9, 51, 0
4, 47758, Note_on_c, 9, 51, 81
4, 47841, Note_on_c, 9, 51, 0
4, 47880, Note_on_c, 9, 51, 85
4, 47957, Note_on_c, 9, 51, 0
4, 47991, Note_on_c, 9, 44, 65
4, 48002, Note_on_c, 9, 51, 90
4, 48013, Note_on_c, 9, 44, 0
4, 48066, Note_on_c, 9, 51, 0
4, 48120, Note_on_c, 9, 51, 91
4, 48171, Note_on_c, 9, 51, 0
4, 48212, Note_on_c, 9, 51, 62
4, 48227, Note_on_c, 9, 51, 0
4, 48242, Note_on_c, 9, 51, 74
4, 48253, Note_on_c, 9, 44, 32
4, 48263, Note_on_c, 9, 44, 0
4, 48313, Note_on_c, 9, 51, 0
4, 48355, Note_on_c, 9, 51, 87
4, 48360, Note_on_c, 9, 44, 73
4, 48398, Note_on_c, 9, 44, 0
4, 48429, Note_on_c, 9, 51, 0
4, 48479, Note_on_c, 9, 51, 86
4, 48480, Note_on_c, 9, 46, 69
4, 48524, Note_on_c, 9, 51, 0
4, 48527, Note_on_c, 9, 46, 0
4, 48570, Note_on_c, 9, 51, 49
4, 48584, Note_on_c, 9, 51, 0
4, 48600, Note_on_c, 9, 44, 71
4, 48601, Note_on_c, 9, 51, 72
4, 48639, Note_on_c, 9, 44, 0
4, 48676, Note_on_c, 9, 51, 0
4, 48716, Note_on_c, 9, 51, 84
4, 48720, Note_on_c, 9, 44, 67
4, 48763, Note_on_c, 9, 44, 0
4, 48793, Note_on_c, 9, 51, 0
4, 48839, Note_on_c, 9, 51, 85
4, 48840, Note_on_c, 9, 44, 61
4, 48863, Note_on_c, 9, 44, 0
4, 48870, Note_on_c, 9, 46, 69
4, 48889, Note_on_c, 9, 51, 0
4, 48930, Note_on_c, 9, 51, 77
4, 48941, Note_on_c, 9, 46, 0
4, 48943, Note_on_c, 9, 51, 0
4, 48959, Note_on_c, 9, 51, 74
4, 48960, Note_on_c, 9, 44, 68
4, 49009, Note_on_c, 9, 44, 0
4, 49027, Note_on_c, 9, 51, 0
4, 49080, Note_on_c, 9, 44, 69
4, 49081, Note_on_c, 9, 51, 85
4, 49144, Note_on_c, 9, 44, 0
4, 49146, Note_on_c, 9, 51, 0
4, 49200, Note_on_c, 9, 44, 70
4, 49203, Note_on_c, 9, 51, 84
4, 49251, Note_on_c, 9, 44, 0
4, 49265, Note_on_c, 9, 51, 0
4, 49319, Note_on_c, 9, 51, 83
4, 49320, Note_on_c, 9, 44, 67
4, 49372, Note_on_c, 9, 44, 0
4, 49382, Note_on_c, 9, 51, 0
4, 49435, Note_on_c, 9, 51, 84
4, 49440, Note_on_c, 9, 44, 71
4, 49493, Note_on_c, 9, 51, 0
4, 49496, Note_on_c, 9, 44, 0
4, 49558, Note_on_c, 9, 51, 82
4, 49560, Note_on_c, 9, 44, 75
4, 49603, Note_on_c, 9, 51, 0
4, 49616, Note_on_c, 9, 44, 0
4, 49643, Note_on_c, 9, 51, 65
4, 49654, Note_on_c, 9, 51, 0
4, 49677, Note_on_c, 9, 51, 67
4, 49680, Note_on_c, 9, 44, 72
4, 49723, Note_on_c, 9, 44, 0
4, 49736, Note_on_c, 9, 51, 0
4, 49797, Note_on_c, 9, 51, 79
4, 49800, Note_on_c, 9, 44, 68
4, 49848, Note_on_c, 9, 44, 0
4, 49869, Note_on_c, 9, 51, 0
4, 49917, Note_on_c, 9, 51, 77
4, 49920, Note_on_c, 9, 46, 73
4, 49958, Note_on_c, 9, 51, 0
4, 49971, Note_on_c, 9, 46, 0
4, 49991, Note_on_c, 9, 51, 67
4, 50013, Note_on_c, 9, 51, 0
4, 50040, Note_on_c, 9, 44, 72
4, 50047, Note_on_c, 9, 51, 72
4, 50051, Note_on_c, 9, 53, 58
4, 50083, Note_on_c, 9, 44, 0
4, 50106, Note_on_c, 9, 53, 0
4, 50107, Note_on_c, 9, 51, 0
4, 50133, Note_on_c, 9, 51, 62
4, 50155, Note_on_c, 9, 51, 0
4, 50160, Note_on_c, 9, 44, 69
4, 50205, Note_on_c, 9, 44, 0
4, 50214, Note_on_c, 9, 51, 74
4, 50217, Note_on_c, 9, 53, 73
4, 50260, Note_on_c, 9, 51, 0
4, 50266, Note_on_c, 9, 53, 0
4, 50280, Note_on_c, 9, 44, 68
4, 50296, Note_on_c, 9, 51, 71
4, 50305, Note_on_c, 9, 44, 0
4, 50310, Note_on_c, 9, 46, 71
4, 50331, Note_on_c, 9, 51, 0
4, 50370, Note_on_c, 9, 51, 77
4, 50371, Note_on_c, 9, 53, 75
4, 50380, Note_on_c, 9, 46, 0
4, 50400, Note_on_c, 9, 53, 0
4, 50400, Note_on_c, 9, 51, 0
4, 50400, Note_on_c, 9, 44, 74
4, 50421, Note_on_c, 9, 51, 74
4, 50463, Note_on_c, 9, 44, 0
4, 50487, Note_on_c, 9, 51, 0
4, 50520, Note_on_c, 9, 44, 75
4, 50534, Note_on_c, 9, 51, 77
4, 50564, Note_on_c, 9, 44, 0
4, 50594, Note_on_c, 9, 51, 0
4, 50640, Note_on_c, 9, 44, 74
4, 50652, Note_on_c, 9, 51, 76
4, 50678, Note_on_c, 9, 44, 0
4, 50695, Note_on_c, 9, 51, 0
4, 50760, Note_on_c, 9, 44, 73
4, 50802, Note_on_c, 9, 44, 0
4, 50827, Note_on_c, 9, 51, 57
4, 50838, Note_on_c, 9, 51, 0
4, 50880, Note_on_c, 9, 44, 72
4, 50888, Note_on_c, 9, 51, 82
4, 50914, Note_on_c, 9, 44, 0
4, 50948, Note_on_c, 9, 51, 0
4, 51000, Note_on_c, 9, 44, 73
4, 51006, Note_on_c, 9, 51, 81
4, 51037, Note_on_c, 9, 44, 0
4, 51061, Note_on_c, 9, 51, 0
4, 51120, Note_on_c, 9, 44, 72
4, 51153, Note_on_c, 9, 44, 0
4, 51181, Note_on_c, 9, 51, 45
4, 51194, Note_on_c, 9, 51, 0
4, 51240, Note_on_c, 9, 51, 84
4, 51240, Note_on_c, 9, 44, 74
4, 51272, Note_on_c, 9, 44, 0
4, 51305, Note_on_c, 9, 51, 0
4, 51360, Note_on_c, 9, 44, 74
4, 51361, Note_on_c, 9, 51, 82
4, 51398, Note_on_c, 9, 44, 0
4, 51439, Note_on_c, 9, 51, 0
4, 51480, Note_on_c, 9, 44, 71
4, 51521, Note_on_c, 9, 44, 0
4, 51545, Note_on_c, 9, 51, 60
4, 51560, Note_on_c, 9, 51, 0
4, 51600, Note_on_c, 9, 44, 73
4, 51602, Note_on_c, 9, 51, 57
4, 51620, Note_on_c, 9, 51, 0
4, 51644, Note_on_c, 9, 44, 0
4, 51720, Note_on_c, 9, 51, 39
4, 51720, Note_on_c, 9, 44, 67
4, 51740, Note_on_c, 9, 51, 0
4, 51744, Note_on_c, 9, 44, 0
4, 51750, Note_on_c, 9, 46, 73
4, 51781, Note_on_c, 9, 51, 38
4, 51796, Note_on_c, 9, 51, 0
4, 51822, Note_on_c, 9, 46, 0
4, 51840, Note_on_c, 9, 44, 73
4, 51853, Note_on_c, 9, 59, 43
4, 51863, Note_on_c, 9, 59, 0
4, 51888, Note_on_c, 9, 44, 0
4, 51905, Note_on_c, 9, 59, 59
4, 51915, Note_on_c, 9, 59, 0
4, 51960, Note_on_c, 9, 44, 62
4, 51966, Note_on_c, 9, 59, 62
4, 51977, Note_on_c, 9, 59, 0
4, 52004, Note_on_c, 9, 44, 0
4, 52022, Note_on_c, 9, 59, 74
4, 52029, Note_on_c, 9, 59, 0
4, 52080, Note_on_c, 9, 44, 63
4, 52081, Note_on_c, 9, 59, 105
4, 52091, Note_on_c, 9, 59, 0
4, 52110, Note_on_c, 9, 44, 0
4, 52110, Note_on_c, 9, 46, 71
4, 52141, Note_on_c, 9, 51, 36
4, 52158, Note_on_c, 9, 51, 0
4, 52178, Note_on_c, 9, 46, 0
4, 52192, Note_on_c, 9, 51, 35
4, 52200, Note_on_c, 9, 44, 60
4, 52212, Note_on_c, 9, 51, 0
4, 52257, Note_on_c, 9, 59, 60
4, 52269, Note_on_c, 9, 44, 0
4, 52270, Note_on_c, 9, 59, 0
4, 52312, Note_on_c, 9, 59, 65
4, 52320, Note_on_c, 9, 59, 0
4, 52320, Note_on_c, 9, 44, 71
4, 52377, Note_on_c, 9, 59, 81
4, 52387, Note_on_c, 9, 59, 0
4, 52395, Note_on_c, 9, 44, 0
4, 52439, Note_on_c, 9, 59, 123
4, 52440, Note_on_c, 9, 44, 71
4, 52456, Note_on_c, 9, 59, 0
4, 52496, Note_on_c, 9, 51, 57
4, 52507, Note_on_c, 9, 44, 0
4, 52516, Note_on_c, 9, 51, 0
4, 52559, Note_on_c, 9, 59, 56
4, 52560, Note_on_c, 9, 44, 71
4, 52571, Note_on_c, 9, 59, 0
4, 52618, Note_on_c, 9, 59, 48
4, 52621, Note_on_c, 9, 44, 0
4, 52636, Note_on_c, 9, 59, 0
4, 52677, Note_on_c, 9, 59, 55
4, 52680, Note_on_c, 9, 44, 69
4, 52692, Note_on_c, 9, 59, 0
4, 52743, Note_on_c, 9, 59, 63
4, 52750, Note_on_c, 9, 44, 0
4, 52757, Note_on_c, 9, 59, 0
4, 52800, Note_on_c, 9, 44, 68
4, 52805, Note_on_c, 9, 59, 63
4, 52808, Note_on_c, 9, 51, 77
4, 52809, Note_on_c, 9, 53, 84
4, 52816, Note_on_c, 9, 59, 0
4, 52847, Note_on_c, 9, 51, 0
4, 52857, Note_on_c, 9, 53, 0
4, 52866, Note_on_c, 9, 44, 0
4, 52869, Note_on_c, 9, 59, 59
4, 52883, Note_on_c, 9, 59, 0
4, 52920, Note_on_c, 9, 44, 71
4, 52925, Note_on_c, 9, 59, 90
4, 52930, Note_on_c, 9, 51, 60
4, 52930, Note_on_c, 9, 53, 67
4, 52938, Note_on_c, 9, 53, 0
4, 52939, Note_on_c, 9, 51, 0
4, 52967, Note_on_c, 9, 59, 0
4, 52982, Note_on_c, 9, 59, 60
4, 52985, Note_on_c, 9, 44, 0
4, 53003, Note_on_c, 9, 59, 0
4, 53040, Note_on_c, 9, 44, 71
4, 53045, Note_on_c, 9, 59, 60
4, 53056, Note_on_c, 9, 59, 0
4, 53100, Note_on_c, 9, 59, 62
4, 53106, Note_on_c, 9, 44, 0
4, 53116, Note_on_c, 9, 59, 0
4, 53160, Note_on_c, 9, 59, 64
4, 53160, Note_on_c, 9, 46, 71
4, 53174, Note_on_c, 9, 59, 0
4, 53215, Note_on_c, 9, 46, 0
4, 53222, Note_on_c, 9, 53, 82
4, 53222, Note_on_c, 9, 51, 74
4, 53256, Note_on_c, 9, 53, 0
4, 53257, Note_on_c, 9, 51, 0
4, 53280, Note_on_c, 9, 44, 69
4, 53283, Note_on_c, 9, 59, 46
4, 53312, Note_on_c, 9, 59, 0
4, 53337, Note_on_c, 9, 44, 0
4, 53343, Note_on_c, 9, 59, 47
4, 53360, Note_on_c, 9, 59, 0
4, 53400, Note_on_c, 9, 44, 70
4, 53403, Note_on_c, 9, 59, 56
4, 53417, Note_on_c, 9, 59, 0
4, 53457, Note_on_c, 9, 44, 0
4, 53460, Note_on_c, 9, 59, 62
4, 53468, Note_on_c, 9, 59, 0
4, 53520, Note_on_c, 9, 44, 71
4, 53523, Note_on_c, 9, 59, 118
4, 53570, Note_on_c, 9, 59, 0
4, 53590, Note_on_c, 9, 44, 0
4, 53590, Note_on_c, 9, 59, 54
4, 53602, Note_on_c, 9, 59, 0
4, 53640, Note_on_c, 9, 44, 67
4, 53650, Note_on_c, 9, 59, 108
4, 53698, Note_on_c, 9, 59, 0
4, 53703, Note_on_c, 9, 44, 0
4, 53714, Note_on_c, 9, 59, 60
4, 53733, Note_on_c, 9, 59, 0
4, 53760, Note_on_c, 9, 44, 69
4, 53771, Note_on_c, 9, 59, 54
4, 53787, Note_on_c, 9, 59, 0
4, 53822, Note_on_c, 9, 44, 0
4, 53833, Note_on_c, 9, 59, 74
4, 53845, Note_on_c, 9, 59, 0
4, 53880, Note_on_c, 9, 44, 68
4, 53910, Note_on_c, 9, 46, 74
4, 53911, Note_on_c, 9, 44, 0
4, 53945, Note_on_c, 9, 59, 68
4, 53960, Note_on_c, 9, 59, 0
4, 53978, Note_on_c, 9, 46, 0
4, 54000, Note_on_c, 9, 44, 67
4, 54010, Note_on_c, 9, 59, 74
4, 54030, Note_on_c, 9, 59, 0
4, 54086, Note_on_c, 9, 44, 0
4, 54120, Note_on_c, 9, 44, 69
4, 54129, Note_on_c, 9, 59, 68
4, 54148, Note_on_c, 9, 59, 0
4, 54197, Note_on_c, 9, 44, 0
4, 54240, Note_on_c, 9, 44, 70
4, 54248, Note_on_c, 9, 59, 71
4, 54262, Note_on_c, 9, 59, 0
4, 54316, Note_on_c, 9, 44, 0
4, 54342, Note_on_c, 9, 59, 69
4, 54352, Note_on_c, 9, 59, 0
4, 54360, Note_on_c, 9, 44, 74
4, 54373, Note_on_c, 9, 59, 81
4, 54428, Note_on_c, 9, 44, 0
4, 54446, Note_on_c, 9, 59, 0
4, 54480, Note_on_c, 9, 44, 73
4, 54491, Note_on_c, 9, 59, 83
4, 54550, Note_on_c, 9, 44, 0
4, 54572, Note_on_c, 9, 59, 0
4, 54600, Note_on_c, 9, 44, 69
4, 54615, Note_on_c, 9, 59, 91
4, 54625, Note_on_c, 9, 44, 0
4, 54630, Note_on_c, 9, 46, 72
4, 54701, Note_on_c, 9, 59, 0
4, 54709, Note_on_c, 9, 46, 0
4, 54720, Note_on_c, 9, 44, 70
4, 54730, Note_on_c, 9, 59, 83
4, 54793, Note_on_c, 9, 44, 0
4, 54804, Note_on_c, 9, 59, 0
4, 54840, Note_on_c, 9, 44, 71
4, 54847, Note_on_c, 9, 59, 81
4, 54891, Note_on_c, 9, 44, 0
4, 54917, Note_on_c, 9, 59, 0
4, 54960, Note_on_c, 9, 44, 71
4, 54965, Note_on_c, 9, 59, 81
4, 55014, Note_on_c, 9, 44, 0
4, 55027, Note_on_c, 9, 59, 0
4, 55079, Note_on_c, 9, 59, 84
4, 55080, Note_on_c, 9, 44, 74
4, 55136, Note_on_c, 9, 44, 0
4, 55149, Note_on_c, 9, 59, 0
4, 55195, Note_on_c, 9, 59, 80
4, 55200, Note_on_c, 9, 44, 69
4, 55246, Note_on_c, 9, 44, 0
4, 55267, Note_on_c, 9, 59, 0
4, 55319, Note_on_c, 9, 59, 81
4, 55320, Note_on_c, 9, 44, 70
4, 55349, Note_on_c, 9, 44, 0
4, 55350, Note_on_c, 9, 46, 76
4, 55394, Note_on_c, 9, 59, 0
4, 55408, Note_on_c, 9, 46, 0
4, 55440, Note_on_c, 9, 44, 71
4, 55503, Note_on_c, 9, 59, 74
4, 55507, Note_on_c, 9, 44, 0
4, 55521, Note_on_c, 9, 59, 0
4, 55560, Note_on_c, 9, 44, 72
4, 55566, Note_on_c, 9, 59, 77
4, 55584, Note_on_c, 9, 59, 0
4, 55621, Note_on_c, 9, 44, 0
4, 55627, Note_on_c, 9, 53, 81
4, 55627, Note_on_c, 9, 51, 65
4, 55643, Note_on_c, 9, 53, 0
4, 55645, Note_on_c, 9, 51, 0
4, 55680, Note_on_c, 9, 44, 73
4, 55688, Note_on_c, 9, 59, 78
4, 55704, Note_on_c, 9, 59, 0
4, 55739, Note_on_c, 9, 44, 0
4, 55751, Note_on_c, 9, 59, 84
4, 55765, Note_on_c, 9, 59, 0
4, 55800, Note_on_c, 9, 44, 69
4, 55811, Note_on_c, 9, 59, 89
4, 55830, Note_on_c, 9, 59, 0
4, 55858, Note_on_c, 9, 44, 0
4, 55920, Note_on_c, 9, 44, 68
4, 55971, Note_on_c, 9, 44, 0
4, 55989, Note_on_c, 9, 51, 74
4, 55990, Note_on_c, 9, 53, 76
4, 56006, Note_on_c, 9, 53, 0
4, 56020, Note_on_c, 9, 51, 0
4, 56040, Note_on_c, 9, 44, 72
4, 56056, Note_on_c, 9, 59, 75
4, 56067, Note_on_c, 9, 59, 0
4, 56098, Note_on_c, 9, 44, 0
4, 56115, Note_on_c, 9, 51, 83
4, 56116, Note_on_c, 9, 53, 88
4, 56135, Note_on_c, 9, 53, 0
4, 56145, Note_on_c, 9, 51, 0
4, 56160, Note_on_c, 9, 44, 72
4, 56175, Note_on_c, 9, 59, 69
4, 56205, Note_on_c, 9, 44, 0
4, 56213, Note_on_c, 9, 59, 0
4, 56241, Note_on_c, 9, 59, 81
4, 56270, Note_on_c, 9, 59, 0
4, 56280, Note_on_c, 9, 44, 71
4, 56300, Note_on_c, 9, 59, 85
4, 56326, Note_on_c, 9, 44, 0
4, 56330, Note_on_c, 9, 59, 0
4, 56400, Note_on_c, 9, 44, 67
4, 56457, Note_on_c, 9, 44, 0
4, 56465, Note_on_c, 9, 59, 74
4, 56481, Note_on_c, 9, 59, 0
4, 56520, Note_on_c, 9, 44, 63
4, 56522, Note_on_c, 9, 59, 85
4, 56555, Note_on_c, 9, 59, 0
4, 56556, Note_on_c, 9, 44, 0
4, 56640, Note_on_c, 9, 44, 60
4, 56676, Note_on_c, 9, 44, 0
4, 56707, Note_on_c, 9, 59, 61
4, 56716, Note_on_c, 9, 59, 0
4, 56760, Note_on_c, 9, 46, 71
4, 56768, Note_on_c, 9, 59, 63
4, 56778, Note_on_c, 9, 59, 0
4, 56795, Note_on_c, 9, 46, 0
4, 56829, Note_on_c, 9, 59, 53
4, 56837, Note_on_c, 9, 59, 0
4, 56880, Note_on_c, 9, 44, 74
4, 56886, Note_on_c, 9, 59, 66
4, 56895, Note_on_c, 9, 59, 0
4, 56926, Note_on_c, 9, 44, 0
4, 56944, Note_on_c, 9, 59, 62
4, 56952, Note_on_c, 9, 59, 0
4, 57000, Note_on_c, 9, 44, 69
4, 57002, Note_on_c, 9, 59, 73
4, 57018, Note_on_c, 9, 59, 0
4, 57046, Note_on_c, 9, 44, 0
4, 57119, Note_on_c, 9, 59, 58
4, 57120, Note_on_c, 9, 44, 65
4, 57127, Note_on_c, 9, 59, 0
4, 57145, Note_on_c, 9, 44, 0
4, 57150, Note_on_c, 9, 46, 73
4, 57180, Note_on_c, 9, 59, 85
4, 57198, Note_on_c, 9, 59, 0
4, 57211, Note_on_c, 9, 46, 0
4, 57240, Note_on_c, 9, 44, 69
4, 57241, Note_on_c, 9, 59, 96
4, 57268, Note_on_c, 9, 59, 0
4, 57297, Note_on_c, 9, 44, 0
4, 57360, Note_on_c, 9, 44, 69
4, 57361, Note_on_c, 9, 59, 62
4, 57369, Note_on_c, 9, 59, 0
4, 57409, Note_on_c, 9, 44, 0
4, 57422, Note_on_c, 9, 59, 78
4, 57436, Note_on_c, 9, 59, 0
4, 57479, Note_on_c, 9, 59, 90
4, 57480, Note_on_c, 9, 44, 62
4, 57493, Note_on_c, 9, 59, 0
4, 57537, Note_on_c, 9, 59, 113
4, 57554, Note_on_c, 9, 59, 0
4, 57599, Note_on_c, 9, 44, 0
4, 57600, Note_on_c, 9, 59, 101
4, 57600, Note_on_c, 9, 44, 72
4, 57619, Note_on_c, 9, 59, 0
4, 57636, Note_on_c, 9, 44, 0
4, 57720, Note_on_c, 9, 44, 71
4, 57757, Note_on_c, 9, 44, 0
4, 57791, Note_on_c, 9, 59, 28
4, 57802, Note_on_c, 9, 59, 0
4, 57840, Note_on_c, 9, 44, 65
4, 57853, Note_on_c, 9, 59, 29
4, 57864, Note_on_c, 9, 59, 0
4, 57885, Note_on_c, 9, 44, 0
4, 57910, Note_on_c, 9, 59, 58
4, 57933, Note_on_c, 9, 59, 0
4, 57960, Note_on_c, 9, 44, 60
4, 57968, Note_on_c, 9, 59, 53
4, 57989, Note_on_c, 9, 59, 0
4, 58008, Note_on_c, 9, 44, 0
4, 58080, Note_on_c, 9, 44, 60
4, 58149, Note_on_c, 9, 59, 57
4, 58153, Note_on_c, 9, 44, 0
4, 58164, Note_on_c, 9, 59, 0
4, 58200, Note_on_c, 9, 44, 64
4, 58207, Note_on_c, 9, 59, 64
4, 58215, Note_on_c, 9, 59, 0
4, 58227, Note_on_c, 9, 44, 0
4, 58230, Note_on_c, 9, 46, 74
4, 58300, Note_on_c, 9, 46, 0
4, 58320, Note_on_c, 9, 44, 63
4, 58369, Note_on_c, 9, 44, 0
4, 58395, Note_on_c, 9, 59, 42
4, 58407, Note_on_c, 9, 59, 0
4, 58440, Note_on_c, 9, 44, 59
4, 58451, Note_on_c, 9, 59, 51
4, 58461, Note_on_c, 9, 59, 0
4, 58505, Note_on_c, 9, 51, 62
4, 58506, Note_on_c, 9, 53, 71
4, 58513, Note_on_c, 9, 44, 0
4, 58522, Note_on_c, 9, 53, 0
4, 58526, Note_on_c, 9, 51, 0
4, 58560, Note_on_c, 9, 44, 56
4, 58564, Note_on_c, 9, 59, 46
4, 58577, Note_on_c, 9, 59, 0
4, 58621, Note_on_c, 9, 44, 0
4, 58626, Note_on_c, 9, 59, 38
4, 58639, Note_on_c, 9, 59, 0
4, 58680, Note_on_c, 9, 44, 59
4, 58684, Note_on_c, 9, 59, 47
4, 58698, Note_on_c, 9, 59, 0
4, 58727, Note_on_c, 9, 44, 0
4, 58800, Note_on_c, 9, 44, 68
4, 58856, Note_on_c, 9, 44, 0
4, 58865, Note_on_c, 9, 51, 48
4, 58868, Note_on_c, 9, 53, 43
4, 58878, Note_on_c, 9, 53, 0
4, 58883, Note_on_c, 9, 51, 0
4, 58920, Note_on_c, 9, 44, 65
4, 58927, Note_on_c, 9, 59, 74
4, 58943, Note_on_c, 9, 59, 0
4, 58983, Note_on_c, 9, 51, 71
4, 58984, Note_on_c, 9, 53, 71
4, 58986, Note_on_c, 9, 44, 0
4, 59002, Note_on_c, 9, 53, 0
4, 59004, Note_on_c, 9, 51, 0
4, 59040, Note_on_c, 9, 44, 74
4, 59044, Note_on_c, 9, 59, 51
4, 59062, Note_on_c, 9, 59, 0
4, 59083, Note_on_c, 9, 44, 0
4, 59110, Note_on_c, 9, 59, 51
4, 59125, Note_on_c, 9, 59, 0
4, 59160, Note_on_c, 9, 44, 69
4, 59172, Note_on_c, 9, 59, 59
4, 59189, Note_on_c, 9, 59, 0
4, 59203, Note_on_c, 9, 44, 0
4, 59280, Note_on_c, 9, 44, 61
4, 59330, Note_on_c, 9, 44, 0
4, 59341, Note_on_c, 9, 51, 53
4, 59343, Note_on_c, 9, 53, 48
4, 59353, Note_on_c, 9, 53, 0
4, 59358, Note_on_c, 9, 51, 0
4, 59400, Note_on_c, 9, 44, 69
4, 59401, Note_on_c, 9, 59, 49
4, 59414, Note_on_c, 9, 59, 0
4, 59444, Note_on_c, 9, 44, 0
4, 59461, Note_on_c, 9, 59, 54
4, 59473, Note_on_c, 9, 59, 0
4, 59520, Note_on_c, 9, 59, 70
4, 59520, Note_on_c, 9, 44, 71
4, 59535, Note_on_c, 9, 59, 0
4, 59572, Note_on_c, 9, 44, 0
4, 59640, Note_on_c, 9, 51, 46
4, 59640, Note_on_c, 9, 53, 53
4, 59640, Note_on_c, 9, 44, 63
4, 59651, Note_on_c, 9, 53, 0
4, 59653, Note_on_c, 9, 51, 0
4, 59666, Note_on_c, 9, 44, 0
4, 59670, Note_on_c, 9, 46, 72
4, 59703, Note_on_c, 9, 59, 68
4, 59715, Note_on_c, 9, 59, 0
4, 59743, Note_on_c, 9, 46, 0
4, 59760, Note_on_c, 9, 44, 71
4, 59766, Note_on_c, 9, 59, 57
4, 59775, Note_on_c, 9, 59, 0
4, 59821, Note_on_c, 9, 44, 0
4, 59826, Note_on_c, 9, 59, 64
4, 59836, Note_on_c, 9, 59, 0
4, 59880, Note_on_c, 9, 44, 73
4, 59890, Note_on_c, 9, 59, 63
4, 59899, Note_on_c, 9, 59, 0
4, 59918, Note_on_c, 9, 44, 0
4, 59948, Note_on_c, 9, 53, 78
4, 59949, Note_on_c, 9, 51, 68
4, 59964, Note_on_c, 9, 53, 0
4, 59965, Note_on_c, 9, 51, 0
4, 60000, Note_on_c, 9, 46, 69
4, 60009, Note_on_c, 9, 59, 57
4, 60020, Note_on_c, 9, 59, 0
4, 60047, Note_on_c, 9, 46, 0
4, 60077, Note_on_c, 9, 59, 58
4, 60087, Note_on_c, 9, 59, 0
4, 60120, Note_on_c, 9, 44, 71
4, 60140, Note_on_c, 9, 53, 72
4, 60141, Note_on_c, 9, 51, 56
4, 60152, Note_on_c, 9, 53, 0
4, 60156, Note_on_c, 9, 51, 0
4, 60159, Note_on_c, 9, 44, 0
4, 60240, Note_on_c, 9, 44, 67
4, 60283, Note_on_c, 9, 44, 0
4, 60320, Note_on_c, 9, 51, 51
4, 60321, Note_on_c, 9, 53, 57
4, 60331, Note_on_c, 9, 53, 0
4, 60337, Note_on_c, 9, 51, 0
4, 60360, Note_on_c, 9, 44, 61
4, 60378, Note_on_c, 9, 59, 66
4, 60383, Note_on_c, 9, 44, 0
4, 60390, Note_on_c, 9, 46, 69
4, 60392, Note_on_c, 9, 59, 0
4, 60434, Note_on_c, 9, 51, 77
4, 60435, Note_on_c, 9, 53, 82
4, 60455, Note_on_c, 9, 53, 0
4, 60457, Note_on_c, 9, 51, 0
4, 60461, Note_on_c, 9, 46, 0
4, 60480, Note_on_c, 9, 44, 68
4, 60496, Note_on_c, 9, 59, 38
4, 60511, Note_on_c, 9, 59, 0
4, 60529, Note_on_c, 9, 44, 0
4, 60558, Note_on_c, 9, 59, 38
4, 60568, Note_on_c, 9, 59, 0
4, 60600, Note_on_c, 9, 44, 69
4, 60611, Note_on_c, 9, 59, 55
4, 60621, Note_on_c, 9, 59, 0
4, 60664, Note_on_c, 9, 44, 0
4, 60668, Note_on_c, 9, 59, 82
4, 60682, Note_on_c, 9, 59, 0
4, 60720, Note_on_c, 9, 44, 70
4, 60729, Note_on_c, 9, 59, 115
4, 60753, Note_on_c, 9, 59, 0
4, 60771, Note_on_c, 9, 44, 0
4, 60798, Note_on_c, 9, 53, 67
4, 60799, Note_on_c, 9, 51, 42
4, 60816, Note_on_c, 9, 53, 0
4, 60821, Note_on_c, 9, 51, 0
4, 60840, Note_on_c, 9, 44, 67
4, 60892, Note_on_c, 9, 44, 0
4, 60911, Note_on_c, 9, 59, 61
4, 60926, Note_on_c, 9, 59, 0
4, 60960, Note_on_c, 9, 44, 71
4, 60972, Note_on_c, 9, 59, 68
4, 60986, Note_on_c, 9, 59, 0
4, 61016, Note_on_c, 9, 44, 0
4, 61031, Note_on_c, 9, 59, 66
4, 61041, Note_on_c, 9, 59, 0
4, 61080, Note_on_c, 9, 44, 75
4, 61091, Note_on_c, 9, 59, 94
4, 61107, Note_on_c, 9, 59, 0
4, 61136, Note_on_c, 9, 44, 0
4, 61145, Note_on_c, 9, 51, 77
4, 61146, Note_on_c, 9, 53, 80
4, 61163, Note_on_c, 9, 53, 0
4, 61168, Note_on_c, 9, 51, 0
4, 61200, Note_on_c, 9, 44, 72
4, 61202, Note_on_c, 9, 59, 62
4, 61221, Note_on_c, 9, 59, 0
4, 61243, Note_on_c, 9, 44, 0
4, 61262, Note_on_c, 9, 59, 65
4, 61277, Note_on_c, 9, 59, 0
4, 61320, Note_on_c, 9, 44, 68
4, 61325, Note_on_c, 9, 59, 74
4, 61341, Note_on_c, 9, 59, 0
4, 61368, Note_on_c, 9, 44, 0
4, 61440, Note_on_c, 9, 46, 73
4, 61491, Note_on_c, 9, 46, 0
4, 61511, Note_on_c, 9, 59, 60
4, 61526, Note_on_c, 9, 59, 0
4, 61560, Note_on_c, 9, 44, 72
4, 61577, Note_on_c, 9, 59, 74
4, 61592, Note_on_c, 9, 59, 0
4, 61603, Note_on_c, 9, 44, 0
4, 61680, Note_on_c, 9, 44, 69
4, 61725, Note_on_c, 9, 44, 0
4, 61747, Note_on_c, 9, 59, 63
4, 61757, Note_on_c, 9, 59, 0
4, 61800, Note_on_c, 9, 44, 68
4, 61809, Note_on_c, 9, 51, 46
4, 61810, Note_on_c, 9, 53, 45
4, 61821, Note_on_c, 9, 53, 0
4, 61825, Note_on_c, 9, 51, 0
4, 61825, Note_on_c, 9, 44, 0
4, 61830, Note_on_c, 9, 46, 71
4, 61866, Note_on_c, 9, 51, 65
4, 61867, Note_on_c, 9, 53, 71
4, 61888, Note_on_c, 9, 53, 0
4, 61893, Note_on_c, 9, 51, 0
4, 61900, Note_on_c, 9, 46, 0
4, 61920, Note_on_c, 9, 44, 74
4, 61925, Note_on_c, 9, 53, 83
4, 61925, Note_on_c, 9, 51, 78
4, 61945, Note_on_c, 9, 53, 0
4, 61951, Note_on_c, 9, 51, 0
4, 61983, Note_on_c, 9, 44, 0
4, 61983, Note_on_c, 9, 59, 71
4, 61999, Note_on_c, 9, 59, 0
4, 62040, Note_on_c, 9, 44, 75
4, 62045, Note_on_c, 9, 59, 82
4, 62062, Note_on_c, 9, 59, 0
4, 62084, Note_on_c, 9, 44, 0
4, 62103, Note_on_c, 9, 51, 80
4, 62105, Note_on_c, 9, 53, 84
4, 62124, Note_on_c, 9, 53, 0
4, 62131, Note_on_c, 9, 51, 0
4, 62160, Note_on_c, 9, 44, 74
4, 62164, Note_on_c, 9, 59, 62
4, 62175, Note_on_c, 9, 59, 0
4, 62198, Note_on_c, 9, 44, 0
4, 62228, Note_on_c, 9, 59, 70
4, 62237, Note_on_c, 9, 59, 0
4, 62280, Note_on_c, 9, 44, 73
4, 62289, Note_on_c, 9, 51, 68
4, 62290, Note_on_c, 9, 53, 69
4, 62309, Note_on_c, 9, 53, 0
4, 62314, Note_on_c, 9, 51, 0
4, 62322, Note_on_c, 9, 44, 0
4, 62343, Note_on_c, 9, 59, 58
4, 62356, Note_on_c, 9, 59, 0
4, 62400, Note_on_c, 9, 44, 72
4, 62404, Note_on_c, 9, 59, 68
4, 62414, Note_on_c, 9, 59, 0
4, 62434, Note_on_c, 9, 44, 0
4, 62467, Note_on_c, 9, 51, 75
4, 62467, Note_on_c, 9, 53, 80
4, 62488, Note_on_c, 9, 53, 0
4, 62492, Note_on_c, 9, 51, 0
4, 62520, Note_on_c, 9, 44, 73
4, 62531, Note_on_c, 9, 59, 60
4, 62547, Note_on_c, 9, 59, 0
4, 62557, Note_on_c, 9, 44, 0
4, 62594, Note_on_c, 9, 59, 60
4, 62604, Note_on_c, 9, 59, 0
4, 62640, Note_on_c, 9, 44, 72
4, 62653, Note_on_c, 9, 53, 75
4, 62653, Note_on_c, 9, 51, 63
4, 62671, Note_on_c, 9, 53, 0
4, 62673, Note_on_c, 9, 51, 0
4, 62673, Note_on_c, 9, 44, 0
4, 62717, Note_on_c, 9, 59, 47
4, 62730, Note_on_c, 9, 59, 0
4, 62760, Note_on_c, 9, 44, 74
4, 62776, Note_on_c, 9, 59, 47
4, 62788, Note_on_c, 9, 59, 0
4, 62792, Note_on_c, 9, 44, 0
4, 62829, Note_on_c, 9, 53, 68
4, 62830, Note_on_c, 9, 51, 56
4, 62847, Note_on_c, 9, 53, 0
4, 62850, Note_on_c, 9, 51, 0
4, 62880, Note_on_c, 9, 44, 74
4, 62894, Note_on_c, 9, 59, 50
4, 62906, Note_on_c, 9, 59, 0
4, 62918, Note_on_c, 9, 44, 0
4, 62954, Note_on_c, 9, 51, 77
4, 62956, Note_on_c, 9, 53, 78
4, 62973, Note_on_c, 9, 53, 0
4, 62977, Note_on_c, 9, 51, 0
4, 63000, Note_on_c, 9, 44, 71
4, 63008, Note_on_c, 9, 59, 68
4, 63022, Note_on_c, 9, 59, 0
4, 63041, Note_on_c, 9, 44, 0
4, 63083, Note_on_c, 9, 51, 77
4, 63083, Note_on_c, 9, 53, 80
4, 63099, Note_on_c, 9, 53, 0
4, 63104, Note_on_c, 9, 51, 0
4, 63120, Note_on_c, 9, 44, 73
4, 63128, Note_on_c, 9, 59, 62
4, 63141, Note_on_c, 9, 59, 0
4, 63164, Note_on_c, 9, 44, 0
4, 63202, Note_on_c, 9, 51, 91
4, 63203, Note_on_c, 9, 53, 91
4, 63222, Note_on_c, 9, 53, 0
4, 63231, Note_on_c, 9, 51, 0
4, 63240, Note_on_c, 9, 44, 67
4, 63248, Note_on_c, 9, 59, 79
4, 63257, Note_on_c, 9, 59, 0
4, 63264, Note_on_c, 9, 44, 0
4, 63270, Note_on_c, 9, 46, 73
4, 63321, Note_on_c, 9, 51, 83
4, 63321, Note_on_c, 9, 53, 84
4, 63336, Note_on_c, 9, 53, 0
4, 63341, Note_on_c, 9, 51, 0
4, 63342, Note_on_c, 9, 46, 0
4, 63358, Note_on_c, 9, 51, 72
4, 63360, Note_on_c, 9, 44, 73
4, 63408, Note_on_c, 9, 44, 0
4, 63423, Note_on_c, 9, 51, 0
4, 63466, Note_on_c, 9, 51, 83
4, 63480, Note_on_c, 9, 44, 62
4, 63524, Note_on_c, 9, 44, 0
4, 63537, Note_on_c, 9, 51, 0
4, 63592, Note_on_c, 9, 51, 81
4, 63600, Note_on_c, 9, 44, 63
4, 63630, Note_on_c, 9, 44, 0
4, 63630, Note_on_c, 9, 46, 71
4, 63651, Note_on_c, 9, 51, 0
4, 63698, Note_on_c, 9, 46, 0
4, 63715, Note_on_c, 9, 51, 79
4, 63720, Note_on_c, 9, 44, 60
4, 63781, Note_on_c, 9, 51, 0
4, 63789, Note_on_c, 9, 44, 0
4, 63840, Note_on_c, 9, 44, 71
4, 63842, Note_on_c, 9, 51, 73
4, 63915, Note_on_c, 9, 44, 0
4, 63916, Note_on_c, 9, 51, 0
4, 63960, Note_on_c, 9, 44, 71
4, 63968, Note_on_c, 9, 51, 76
4, 64013, Note_on_c, 9, 51, 0
4, 64027, Note_on_c, 9, 44, 0
4, 64055, Note_on_c, 9, 51, 60
4, 64071, Note_on_c, 9, 51, 0
4, 64080, Note_on_c, 9, 44, 71
4, 64087, Note_on_c, 9, 51, 72
4, 64141, Note_on_c, 9, 44, 0
4, 64164, Note_on_c, 9, 51, 0
4, 64200, Note_on_c, 9, 44, 69
4, 64209, Note_on_c, 9, 51, 77
4, 64264, Note_on_c, 9, 51, 0
4, 64270, Note_on_c, 9, 44, 0
4, 64320, Note_on_c, 9, 44, 68
4, 64323, Note_on_c, 9, 53, 80
4, 64324, Note_on_c, 9, 51, 81
4, 64386, Note_on_c, 9, 44, 0
4, 64411, Note_on_c, 9, 51, 0
4, 64420, Note_on_c, 9, 53, 0
4, 64440, Note_on_c, 9, 44, 71
4, 64442, Note_on_c, 9, 51, 58
4, 64505, Note_on_c, 9, 44, 0
4, 64511, Note_on_c, 9, 51, 0
4, 64560, Note_on_c, 9, 51, 83
4, 64560, Note_on_c, 9, 44, 71
4, 64561, Note_on_c, 9, 53, 76
4, 64626, Note_on_c, 9, 44, 0
4, 64648, Note_on_c, 9, 51, 0
4, 64653, Note_on_c, 9, 53, 0
4, 64680, Note_on_c, 9, 46, 71
4, 64685, Note_on_c, 9, 51, 63
4, 64730, Note_on_c, 9, 51, 0
4, 64735, Note_on_c, 9, 46, 0
4, 64772, Note_on_c, 9, 51, 65
4, 64786, Note_on_c, 9, 51, 0
4, 64800, Note_on_c, 9, 44, 69
4, 64804, Note_on_c, 9, 51, 72
4, 64857, Note_on_c, 9, 44, 0
4, 64889, Note_on_c, 9, 51, 0
4, 64920, Note_on_c, 9, 44, 70
4, 64931, Note_on_c, 9, 51, 83
4, 64933, Note_on_c, 9, 53, 77
4, 64977, Note_on_c, 9, 44, 0
4, 65013, Note_on_c, 9, 53, 0
4, 65017, Note_on_c, 9, 51, 0
4, 65040, Note_on_c, 9, 44, 71
4, 65050, Note_on_c, 9, 51, 78
4, 65110, Note_on_c, 9, 44, 0
4, 65117, Note_on_c, 9, 51, 0
4, 65160, Note_on_c, 9, 44, 67
4, 65162, Note_on_c, 9, 51, 80
4, 65163, Note_on_c, 9, 53, 74
4, 65223, Note_on_c, 9, 44, 0
4, 65239, Note_on_c, 9, 53, 0
4, 65242, Note_on_c, 9, 51, 0
4, 65274, Note_on_c, 9, 51, 71
4, 65280, Note_on_c, 9, 44, 69
4, 65342, Note_on_c, 9, 44, 0
4, 65358, Note_on_c, 9, 51, 0
4, 65400, Note_on_c, 9, 44, 68
4, 65411, Note_on_c, 9, 51, 76
4, 65430, Note_on_c, 9, 46, 74
4, 65431, Note_on_c, 9, 44, 0
4, 65483, Note_on_c, 9, 51, 0
4, 65498, Note_on_c, 9, 46, 0
4, 65520, Note_on_c, 9, 44, 67
4, 65525, Note_on_c, 9, 51, 80
4, 65527, Note_on_c, 9, 53, 74
4, 65605, Note_on_c, 9, 53, 0
4, 65606, Note_on_c, 9, 51, 0
4, 65606, Note_on_c, 9, 44, 0
4, 65640, Note_on_c, 9, 44, 69
4, 65646, Note_on_c, 9, 51, 68
4, 65647, Note_on_c, 9, 53, 62
4, 65712, Note_on_c, 9, 53, 0
4, 65712, Note_on_c, 9, 51, 0
4, 65717, Note_on_c, 9, 44, 0
4, 65760, Note_on_c, 9, 44, 70
4, 65768, Note_on_c, 9, 51, 75
4, 65836, Note_on_c, 9, 44, 0
4, 65845, Note_on_c, 9, 51, 0
4, 65880, Note_on_c, 9, 44, 74
4, 65888, Note_on_c, 9, 51, 74
4, 65948, Note_on_c, 9, 44, 0
4, 65962, Note_on_c, 9, 51, 0
4, 66000, Note_on_c, 9, 44, 73
4, 66005, Note_on_c, 9, 51, 77
4, 66007, Note_on_c, 9, 53, 68
4, 66064, Note_on_c, 9, 51, 0
4, 66070, Note_on_c, 9, 53, 0
4, 66070, Note_on_c, 9, 44, 0
4, 66120, Note_on_c, 9, 44, 69
4, 66127, Note_on_c, 9, 51, 38
4, 66131, Note_on_c, 9, 53, 28
4, 66145, Note_on_c, 9, 44, 0
4, 66150, Note_on_c, 9, 46, 72
4, 66155, Note_on_c, 9, 53, 0
4, 66185, Note_on_c, 9, 59, 65
4, 66196, Note_on_c, 9, 59, 0
4, 66196, Note_on_c, 9, 51, 0
4, 66229, Note_on_c, 9, 46, 0
4, 66240, Note_on_c, 9, 44, 70
4, 66242, Note_on_c, 9, 59, 75
4, 66262, Note_on_c, 9, 59, 0
4, 66313, Note_on_c, 9, 44, 0
4, 66360, Note_on_c, 9, 44, 71
4, 66363, Note_on_c, 9, 59, 64
4, 66372, Note_on_c, 9, 59, 0
4, 66411, Note_on_c, 9, 44, 0
4, 66421, Note_on_c, 9, 59, 59
4, 66430, Note_on_c, 9, 59, 0
4, 66480, Note_on_c, 9, 44, 71
4, 66483, Note_on_c, 9, 59, 69
4, 66490, Note_on_c, 9, 59, 0
4, 66534, Note_on_c, 9, 44, 0
4, 66540, Note_on_c, 9, 51, 70
4, 66558, Note_on_c, 9, 51, 0
4, 66600, Note_on_c, 9, 44, 74
4, 66609, Note_on_c, 9, 59, 37
4, 66621, Note_on_c, 9, 59, 0
4, 66656, Note_on_c, 9, 44, 0
4, 66667, Note_on_c, 9, 59, 53
4, 66676, Note_on_c, 9, 59, 0
4, 66720, Note_on_c, 9, 44, 69
4, 66721, Note_on_c, 9, 59, 62
4, 66730, Note_on_c, 9, 59, 0
4, 66766, Note_on_c, 9, 44, 0
4, 66781, Note_on_c, 9, 51, 67
4, 66795, Note_on_c, 9, 51, 0
4, 66840, Note_on_c, 9, 59, 68
4, 66840, Note_on_c, 9, 44, 70
4, 66849, Note_on_c, 9, 59, 0
4, 66869, Note_on_c, 9, 44, 0
4, 66870, Note_on_c, 9, 46, 76
4, 66897, Note_on_c, 9, 59, 78
4, 66905, Note_on_c, 9, 59, 0
4, 66928, Note_on_c, 9, 46, 0
4, 66957, Note_on_c, 9, 51, 55
4, 66960, Note_on_c, 9, 44, 71
4, 66972, Note_on_c, 9, 51, 0
4, 67021, Note_on_c, 9, 59, 56
4, 67027, Note_on_c, 9, 44, 0
4, 67031, Note_on_c, 9, 59, 0
4, 67080, Note_on_c, 9, 44, 72
4, 67085, Note_on_c, 9, 59, 37
4, 67094, Note_on_c, 9, 59, 0
4, 67141, Note_on_c, 9, 44, 0
4, 67144, Note_on_c, 9, 59, 69
4, 67151, Note_on_c, 9, 59, 0
4, 67200, Note_on_c, 9, 44, 73
4, 67204, Note_on_c, 9, 51, 56
4, 67213, Note_on_c, 9, 51, 0
4, 67259, Note_on_c, 9, 44, 0
4, 67262, Note_on_c, 9, 59, 60
4, 67270, Note_on_c, 9, 59, 0
4, 67316, Note_on_c, 9, 51, 65
4, 67320, Note_on_c, 9, 44, 69
4, 67336, Note_on_c, 9, 51, 0
4, 67378, Note_on_c, 9, 44, 0
4, 67383, Note_on_c, 9, 59, 51
4, 67392, Note_on_c, 9, 59, 0
4, 67440, Note_on_c, 9, 44, 68
4, 67444, Note_on_c, 9, 59, 74
4, 67452, Note_on_c, 9, 59, 0
4, 67491, Note_on_c, 9, 44, 0
4, 67504, Note_on_c, 9, 51, 86
4, 67527, Note_on_c, 9, 51, 0
4, 67560, Note_on_c, 9, 44, 72
4, 67562, Note_on_c, 9, 59, 46
4, 67572, Note_on_c, 9, 59, 0
4, 67616, Note_on_c, 9, 51, 64
4, 67618, Note_on_c, 9, 44, 0
4, 67632, Note_on_c, 9, 51, 0
4, 67677, Note_on_c, 9, 51, 75
4, 67678, Note_on_c, 9, 59, 81
4, 67679, Note_on_c, 9, 53, 76
4, 67680, Note_on_c, 9, 44, 72
4, 67690, Note_on_c, 9, 59, 0
4, 67696, Note_on_c, 9, 51, 0
4, 67696, Note_on_c, 9, 53, 0
4, 67725, Note_on_c, 9, 44, 0
4, 67745, Note_on_c, 9, 59, 51
4, 67753, Note_on_c, 9, 59, 0
4, 67800, Note_on_c, 9, 44, 71
4, 67801, Note_on_c, 9, 59, 46
4, 67811, Note_on_c, 9, 59, 0
4, 67846, Note_on_c, 9, 44, 0
4, 67861, Note_on_c, 9, 51, 83
4, 67862, Note_on_c, 9, 59, 87
4, 67862, Note_on_c, 9, 53, 84
4, 67879, Note_on_c, 9, 59, 0
4, 67883, Note_on_c, 9, 53, 0
4, 67886, Note_on_c, 9, 51, 0
4, 67920, Note_on_c, 9, 44, 67
4, 67928, Note_on_c, 9, 59, 53
4, 67936, Note_on_c, 9, 59, 0
4, 67977, Note_on_c, 9, 44, 0
4, 67983, Note_on_c, 9, 51, 92
4, 67983, Note_on_c, 9, 59, 92
4, 67985, Note_on_c, 9, 53, 92
4, 67998, Note_on_c, 9, 59, 0
4, 68005, Note_on_c, 9, 53, 0
4, 68009, Note_on_c, 9, 51, 0
4, 68040, Note_on_c, 9, 51, 82
4, 68040, Note_on_c, 9, 44, 63
4, 68041, Note_on_c, 9, 53, 88
4, 68044, Note_on_c, 9, 59, 94
4, 68064, Note_on_c, 9, 59, 0
4, 68065, Note_on_c, 9, 53, 0
4, 68074, Note_on_c, 9, 51, 0
4, 68076, Note_on_c, 9, 44, 0
4, 68105, Note_on_c, 9, 59, 65
4, 68116, Note_on_c, 9, 59, 0
4, 68160, Note_on_c, 9, 44, 60
4, 68163, Note_on_c, 9, 59, 64
4, 68172, Note_on_c, 9, 59, 0
4, 68196, Note_on_c, 9, 44, 0
4, 68222, Note_on_c, 9, 51, 77
4, 68222, Note_on_c, 9, 59, 85
4, 68223, Note_on_c, 9, 53, 79
4, 68242, Note_on_c, 9, 53, 0
4, 68242, Note_on_c, 9, 59, 0
4, 68248, Note_on_c, 9, 51, 0
4, 68280, Note_on_c, 9, 46, 71
4, 68286, Note_on_c, 9, 59, 56
4, 68295, Note_on_c, 9, 59, 0
4, 68315, Note_on_c, 9, 46, 0
4, 68341, Note_on_c, 9, 51, 76
4, 68343, Note_on_c, 9, 53, 76
4, 68344, Note_on_c, 9, 59, 79
4, 68359, Note_on_c, 9, 59, 0
4, 68360, Note_on_c, 9, 53, 0
4, 68364, Note_on_c, 9, 51, 0
4, 68400, Note_on_c, 9, 44, 74
4, 68407, Note_on_c, 9, 59, 57
4, 68417, Note_on_c, 9, 59, 0
4, 68446, Note_on_c, 9, 44, 0
4, 68463, Note_on_c, 9, 59, 61
4, 68473, Note_on_c, 9, 59, 0
4, 68517, Note_on_c, 9, 51, 59
4, 68518, Note_on_c, 9, 53, 59
4, 68519, Note_on_c, 9, 59, 69
4, 68520, Note_on_c, 9, 44, 69
4, 68530, Note_on_c, 9, 59, 0
4, 68530, Note_on_c, 9, 53, 0
4, 68536, Note_on_c, 9, 51, 0
4, 68566, Note_on_c, 9, 44, 0
4, 68582, Note_on_c, 9, 59, 54
4, 68592, Note_on_c, 9, 59, 0
4, 68640, Note_on_c, 9, 44, 65
4, 68643, Note_on_c, 9, 51, 46
4, 68645, Note_on_c, 9, 53, 42
4, 68646, Note_on_c, 9, 59, 55
4, 68655, Note_on_c, 9, 59, 0
4, 68655, Note_on_c, 9, 53, 0
4, 68661, Note_on_c, 9, 51, 0
4, 68665, Note_on_c, 9, 44, 0
4, 68670, Note_on_c, 9, 46, 73
4, 68707, Note_on_c, 9, 59, 36
4, 68718, Note_on_c, 9, 59, 0
4, 68731, Note_on_c, 9, 46, 0
4, 68760, Note_on_c, 9, 44, 69
4, 68817, Note_on_c, 9, 44, 0
4, 68820, Note_on_c, 9, 51, 60
4, 68842, Note_on_c, 9, 51, 0
4, 68880, Note_on_c, 9, 44, 69
4, 68889, Note_on_c, 9, 59, 24
4, 68900, Note_on_c, 9, 59, 0
4, 68929, Note_on_c, 9, 44, 0
4, 68938, Note_on_c, 9, 51, 63
4, 68963, Note_on_c, 9, 51, 0
4, 68999, Note_on_c, 9, 59, 48
4, 69000, Note_on_c, 9, 44, 62
4, 69024, Note_on_c, 9, 59, 0
4, 69062, Note_on_c, 9, 51, 50
4, 69085, Note_on_c, 9, 51, 0
4, 69119, Note_on_c, 9, 44, 0
4, 69125, Note_on_c, 9, 59, 50
4, 69166, Note_on_c, 9, 59, 0
4, 69187, Note_on_c, 9, 51, 48
4, 69206, Note_on_c, 9, 51, 0
4, 69248, Note_on_c, 9, 59, 55
4, 69268, Note_on_c, 9, 59, 0
4, 69306, Note_on_c, 9, 51, 54
4, 69327, Note_on_c, 9, 51, 0
4, 69365, Note_on_c, 9, 59, 48
4, 69376, Note_on_c, 9, 59, 0
4, 69395, Note_on_c, 9, 59, 67
4, 69409, Note_on_c, 9, 59, 0
4, 69426, Note_on_c, 9, 51, 68
4, 69451, Note_on_c, 9, 51, 0
4, 69488, Note_on_c, 9, 59, 54
4, 69501, Note_on_c, 9, 59, 0
4, 69547, Note_on_c, 9, 59, 42
4, 69557, Note_on_c, 9, 59, 0
4, 69600, Note_on_c, 9, 59, 57
4, 69612, Note_on_c, 9, 59, 0
4, 69659, Note_on_c, 9, 51, 44
4, 69685, Note_on_c, 9, 51, 0
4, 69725, Note_on_c, 9, 59, 38
4, 69735, Note_on_c, 9, 59, 0
4, 69785, Note_on_c, 9, 59, 72
4, 69798, Note_on_c, 9, 59, 0
4, 69842, Note_on_c, 9, 59, 90
4, 69862, Note_on_c, 9, 59, 0
4, 69899, Note_on_c, 9, 51, 42
4, 69921, Note_on_c, 9, 51, 0
4, 69962, Note_on_c, 9, 59, 46
4, 69973, Note_on_c, 9, 59, 0
4, 69996, Note_on_c, 9, 59, 35
4, 70011, Note_on_c, 9, 59, 0
4, 70027, Note_on_c, 9, 59, 61
4, 70042, Note_on_c, 9, 59, 0
4, 70092, Note_on_c, 9, 51, 42
4, 70103, Note_on_c, 9, 51, 0
4, 70127, Note_on_c, 9, 59, 49
4, 70138, Note_on_c, 9, 59, 0
4, 70150, Note_on_c, 9, 59, 61
4, 70164, Note_on_c, 9, 59, 0
4, 70210, Note_on_c, 9, 51, 51
4, 70227, Note_on_c, 9, 51, 0
4, 70270, Note_on_c, 9, 59, 31
4, 70283, Note_on_c, 9, 59, 0
4, 70330, Note_on_c, 9, 59, 42
4, 70341, Note_on_c, 9, 59, 0
4, 70354, Note_on_c, 9, 59, 45
4, 70369, Note_on_c, 9, 59, 0
4, 70389, Note_on_c, 9, 51, 55
4, 70412, Note_on_c, 9, 51, 0
4, 70462, Note_on_c, 9, 59, 34
4, 70474, Note_on_c, 9, 59, 0
4, 70492, Note_on_c, 9, 59, 49
4, 70504, Note_on_c, 9, 59, 0
4, 70520, Note_on_c, 9, 51, 57
4, 70543, Note_on_c, 9, 51, 0
4, 70589, Note_on_c, 9, 59, 41
4, 70598, Note_on_c, 9, 59, 0
4, 70644, Note_on_c, 9, 59, 35
4, 70657, Note_on_c, 9, 59, 0
4, 70702, Note_on_c, 9, 59, 41
4, 70711, Note_on_c, 9, 59, 0
4, 70739, Note_on_c, 9, 51, 50
4, 70754, Note_on_c, 9, 51, 0
4, 70766, Note_on_c, 9, 59, 46
4, 70784, Note_on_c, 9, 59, 0
4, 70826, Note_on_c, 9, 59, 43
4, 70837, Note_on_c, 9, 59, 0
4, 70880, Note_on_c, 9, 59, 44
4, 70892, Note_on_c, 9, 59, 0
4, 70932, Note_on_c, 9, 51, 41
4, 70953, Note_on_c, 9, 51, 0
4, 70988, Note_on_c, 9, 59, 37
4, 71000, Note_on_c, 9, 59, 0
4, 71049, Note_on_c, 9, 59, 42
4, 71059, Note_on_c, 9, 59, 0
4, 71115, Note_on_c, 9, 51, 22
4, 71125, Note_on_c, 9, 51, 0
4, 71225, Note_on_c, 9, 51, 27
4, 71245, Note_on_c, 9, 51, 0
4, 71287, Note_on_c, 9, 59, 29
4, 71299, Note_on_c, 9, 59, 0
4, 71342, Note_on_c, 9, 59, 28
4, 71353, Note_on_c, 9, 59, 0
4, 71453, Note_on_c, 9, 53, 22
4, 71453, Note_on_c, 9, 51, 19
4, 71471, Note_on_c, 9, 53, 0
4, 71476, Note_on_c, 9, 51, 0
4, 71585, Note_on_c, 9, 53, 25
4, 71586, Note_on_c, 9, 51, 20
4, 71602, Note_on_c, 9, 53, 0
4, 71609, Note_on_c, 9, 51, 0
4, 71712, Note_on_c, 9, 51, 21
4, 71714, Note_on_c, 9, 53, 21
4, 71730, Note_on_c, 9, 53, 0
4, 71734, Note_on_c, 9, 51, 0
4, 71833, Note_on_c, 9, 53, 23
4, 71835, Note_on_c, 9, 51, 19
4, 71854, Note_on_c, 9, 53, 0
4, 71857, Note_on_c, 9, 51, 0
4, 71960, Note_on_c, 9, 53, 24
4, 71962, Note_on_c, 9, 51, 18
4, 71977, Note_on_c, 9, 53, 0
4, 71980, Note_on_c, 9, 51, 0
4, 72020, Note_on_c, 9, 59, 22
4, 72035, Note_on_c, 9, 59, 0
4, 72079, Note_on_c, 9, 53, 14
4, 72080, Note_on_c, 9, 51, 13
4, 72093, Note_on_c, 9, 53, 0
4, 72096, Note_on_c, 9, 51, 0
4, 72141, Note_on_c, 9, 53, 11
4, 72142, Note_on_c, 9, 51, 9
4, 72158, Note_on_c, 9, 53, 0
4, 72165, Note_on_c, 9, 51, 0
4, 72252, Note_on_c, 9, 59, 14
4, 72269, Note_on_c, 9, 59, 0
4, 72308, Note_on_c, 9, 53, 11
4, 72310, Note_on_c, 9, 51, 10
4, 72325, Note_on_c, 9, 53, 0
4, 72332, Note_on_c, 9, 51, 0
4, 72370, Note_on_c, 9, 53, 13
4, 72374, Note_on_c, 9, 51, 10
4, 72387, Note_on_c, 9, 51, 0
4, 72391, Note_on_c, 9, 53, 0
4, 72480, Note_on_c, 9, 59, 13
4, 72494, Note_on_c, 9, 59, 0
4, 72535, Note_on_c, 9, 53, 8
4, 72539, Note_on_c, 9, 51, 6
4, 72554, Note_on_c, 9, 53, 0
4, 72556, Note_on_c, 9, 51, 0
4, 72596, Note_on_c, 9, 53, 9
4, 72598, Note_on_c, 9, 51, 7
4, 72619, Note_on_c, 9, 53, 0
4, 72621, Note_on_c, 9, 51, 0
4, 72731, Note_on_c, 9, 59, 9
4, 72745, Note_on_c, 9, 59, 0
4, 72788, Note_on_c, 9, 51, 7
4, 72788, Note_on_c, 9, 53, 6
4, 72807, Note_on_c, 9, 51, 0
4, 72809, Note_on_c, 9, 53, 0
4, 72846, Note_on_c, 9, 53, 6
4, 72850, Note_on_c, 9, 51, 4
4, 72871, Note_on_c, 9, 53, 0
4, 72872, Note_on_c, 9, 51, 0
4, 72961, Note_on_c, 9, 59, 7
4, 72975, Note_on_c, 9, 59, 0
4, 73023, Note_on_c, 9, 53, 5
4, 73026, Note_on_c, 9, 51, 4
4, 73045, Note_on_c, 9, 53, 0
4, 73050, Note_on_c, 9, 51, 0
4, 73084, Note_on_c, 9, 51, 3
4, 73089, Note_on_c, 9, 53, 3
4, 73113, Note_on_c, 9, 51, 0
4, 73122, Note_on_c, 9, 53, 0
4, 73122, End_track
5, 0, Start_track
5, 0, Title_t, ""
5, 0, End_track
6, 0, Start_track
6, 0, Title_t, ""
6, 0, Program_c, 9, 0
6, 0, End_track
7, 0, Start_track
7, 0, Title_t, ""
7, 0, Program_c, 0, 0
7, 0, End_track
0, 0, End_of_file
