0, 0, Header, 1, 8, 120
1, 0, Start_track
1, 0, Title_t, "Peri's Scope"
1, 0, Text_t, "Bill Evans - all instruments played in real time. Minimal editing.\012"
1, 0, Text_t, "Doug McKenzie (dougmck@pipeline.com.au)\012"
1, 0, Time_signature, 4, 2, 24, 8
1, 0, Key_signature, 0, "major"
1, 0, Tempo, 500000
1, 0, Marker_t, "'Peri's Scope' by Bill Evans "
1, 0, End_track
2, 0, Start_track
2, 0, Title_t, "Piano or Rhodes"
2, 0, Control_c, 0, 7, 90
2, 301, Control_c, 0, 64, 127
2, 476, Note_on_c, 0, 79, 84
2, 479, Note_on_c, 0, 76, 85
2, 482, Note_on_c, 0, 67, 61
2, 483, Control_c, 0, 64, 0
2, 483, Note_on_c, 0, 72, 71
2, 484, Note_on_c, 0, 65, 58
2, 485, Note_on_c, 0, 69, 71
2, 513, Control_c, 0, 64, 127
2, 562, Note_on_c, 0, 67, 0
2, 564, Note_on_c, 0, 69, 0
2, 572, Note_on_c, 0, 65, 0
2, 625, Note_on_c, 0, 79, 0
2, 628, Note_on_c, 0, 72, 0
2, 631, Note_on_c, 0, 76, 0
2, 716, Note_on_c, 0, 77, 64
2, 716, Note_on_c, 0, 71, 66
2, 718, Note_on_c, 0, 59, 34
2, 718, Note_on_c, 0, 64, 47
2, 719, Note_on_c, 0, 53, 37
2, 726, Control_c, 0, 64, 0
2, 763, Control_c, 0, 64, 127
2, 791, Note_on_c, 0, 77, 0
2, 800, Note_on_c, 0, 76, 71
2, 840, Note_on_c, 0, 71, 0
2, 856, Note_on_c, 0, 64, 0
2, 863, Note_on_c, 0, 59, 0
2, 867, Note_on_c, 0, 76, 0
2, 870, Note_on_c, 0, 53, 0
2, 876, Note_on_c, 0, 74, 73
2, 882, Note_on_c, 0, 76, 24
2, 891, Note_on_c, 0, 76, 0
2, 900, Note_on_c, 0, 74, 0
2, 955, Note_on_c, 0, 79, 43
2, 956, Control_c, 0, 64, 0
2, 957, Note_on_c, 0, 62, 36
2, 958, Note_on_c, 0, 74, 43
2, 960, Note_on_c, 0, 67, 34
2, 960, Note_on_c, 0, 59, 32
2, 962, Note_on_c, 0, 55, 33
2, 963, Note_on_c, 0, 52, 27
2, 998, Control_c, 0, 64, 127
2, 1046, Note_on_c, 0, 79, 0
2, 1050, Note_on_c, 0, 59, 0
2, 1050, Note_on_c, 0, 62, 0
2, 1054, Note_on_c, 0, 74, 0
2, 1056, Note_on_c, 0, 55, 0
2, 1062, Note_on_c, 0, 67, 0
2, 1064, Note_on_c, 0, 52, 0
2, 1159, Note_on_c, 0, 59, 67
2, 1159, Note_on_c, 0, 45, 52
2, 1159, Note_on_c, 0, 60, 68
2, 1159, Note_on_c, 0, 67, 57
2, 1161, Note_on_c, 0, 64, 58
2, 1162, Note_on_c, 0, 55, 55
2, 1163, Note_on_c, 0, 52, 48
2, 1164, Note_on_c, 0, 59, 0
2, 1166, Note_on_c, 0, 60, 0
2, 1167, Note_on_c, 0, 64, 0
2, 1167, Note_on_c, 0, 55, 0
2, 1168, Note_on_c, 0, 52, 0
2, 1168, Note_on_c, 0, 67, 0
2, 1170, Note_on_c, 0, 45, 0
2, 1171, Control_c, 0, 64, 0
2, 1274, Note_on_c, 0, 59, 34
2, 1275, Note_on_c, 0, 60, 55
2, 1276, Note_on_c, 0, 55, 34
2, 1278, Note_on_c, 0, 52, 37
2, 1279, Note_on_c, 0, 45, 28
2, 1293, Control_c, 0, 64, 127
2, 1329, Note_on_c, 0, 55, 0
2, 1333, Note_on_c, 0, 52, 0
2, 1347, Note_on_c, 0, 60, 0
2, 1359, Note_on_c, 0, 59, 0
2, 1417, Note_on_c, 0, 45, 0
2, 1434, Control_c, 0, 64, 0
2, 1440, Control_c, 0, 64, 127
2, 1443, Note_on_c, 0, 57, 49
2, 1445, Note_on_c, 0, 53, 30
2, 1448, Note_on_c, 0, 50, 40
2, 1455, Note_on_c, 0, 53, 0
2, 1461, Note_on_c, 0, 57, 0
2, 1462, Note_on_c, 0, 50, 0
2, 1517, Note_on_c, 0, 69, 69
2, 1529, Note_on_c, 0, 69, 0
2, 1556, Note_on_c, 0, 60, 66
2, 1557, Note_on_c, 0, 64, 72
2, 1557, Note_on_c, 0, 57, 63
2, 1557, Note_on_c, 0, 72, 123
2, 1559, Note_on_c, 0, 53, 55
2, 1562, Control_c, 0, 64, 0
2, 1575, Control_c, 0, 64, 127
2, 1639, Note_on_c, 0, 60, 0
2, 1644, Note_on_c, 0, 53, 0
2, 1645, Note_on_c, 0, 72, 0
2, 1646, Note_on_c, 0, 69, 29
2, 1647, Note_on_c, 0, 57, 0
2, 1649, Note_on_c, 0, 64, 0
2, 1670, Note_on_c, 0, 69, 0
2, 1678, Note_on_c, 0, 71, 58
2, 1678, Note_on_c, 0, 64, 46
2, 1680, Note_on_c, 0, 59, 47
2, 1682, Note_on_c, 0, 53, 24
2, 1684, Control_c, 0, 64, 0
2, 1710, Control_c, 0, 64, 127
2, 1757, Note_on_c, 0, 74, 36
2, 1759, Note_on_c, 0, 71, 0
2, 1764, Note_on_c, 0, 53, 0
2, 1764, Note_on_c, 0, 64, 0
2, 1770, Note_on_c, 0, 59, 0
2, 1770, Note_on_c, 0, 74, 0
2, 1793, Note_on_c, 0, 64, 60
2, 1794, Note_on_c, 0, 83, 61
2, 1795, Note_on_c, 0, 59, 47
2, 1795, Note_on_c, 0, 81, 67
2, 1796, Note_on_c, 0, 53, 45
2, 1818, Note_on_c, 0, 83, 0
2, 1831, Note_on_c, 0, 81, 0
2, 1839, Note_on_c, 0, 53, 0
2, 1842, Note_on_c, 0, 64, 0
2, 1863, Note_on_c, 0, 59, 0
2, 1877, Control_c, 0, 64, 0
2, 1880, Note_on_c, 0, 79, 55
2, 1880, Note_on_c, 0, 59, 26
2, 1881, Note_on_c, 0, 73, 35
2, 1882, Note_on_c, 0, 62, 51
2, 1884, Note_on_c, 0, 67, 25
2, 1884, Note_on_c, 0, 78, 25
2, 1885, Note_on_c, 0, 52, 35
2, 1886, Note_on_c, 0, 55, 42
2, 1894, Note_on_c, 0, 78, 0
2, 1909, Note_on_c, 0, 67, 0
2, 1918, Note_on_c, 0, 73, 0
2, 1922, Note_on_c, 0, 52, 0
2, 1924, Note_on_c, 0, 55, 0
2, 1928, Note_on_c, 0, 62, 0
2, 1929, Note_on_c, 0, 59, 0
2, 1930, Note_on_c, 0, 79, 0
2, 1986, Control_c, 0, 64, 127
2, 2118, Note_on_c, 0, 58, 32
2, 2119, Note_on_c, 0, 64, 45
2, 2120, Note_on_c, 0, 61, 45
2, 2121, Note_on_c, 0, 55, 34
2, 2122, Note_on_c, 0, 45, 34
2, 2122, Note_on_c, 0, 52, 44
2, 2122, Control_c, 0, 64, 0
2, 2145, Control_c, 0, 64, 127
2, 2220, Note_on_c, 0, 61, 0
2, 2225, Note_on_c, 0, 55, 0
2, 2226, Note_on_c, 0, 58, 0
2, 2235, Note_on_c, 0, 52, 0
2, 2240, Note_on_c, 0, 64, 0
2, 2272, Note_on_c, 0, 45, 0
2, 2283, Note_on_c, 0, 66, 43
2, 2283, Note_on_c, 0, 58, 39
2, 2284, Note_on_c, 0, 61, 42
2, 2286, Control_c, 0, 64, 0
2, 2286, Note_on_c, 0, 51, 37
2, 2288, Note_on_c, 0, 63, 34
2, 2310, Control_c, 0, 64, 127
2, 2339, Note_on_c, 0, 66, 0
2, 2341, Note_on_c, 0, 63, 0
2, 2341, Note_on_c, 0, 61, 0
2, 2345, Note_on_c, 0, 58, 0
2, 2349, Note_on_c, 0, 51, 0
2, 2355, Control_c, 0, 64, 0
2, 2360, Note_on_c, 0, 65, 53
2, 2360, Note_on_c, 0, 57, 43
2, 2360, Note_on_c, 0, 60, 47
2, 2361, Note_on_c, 0, 50, 41
2, 2363, Note_on_c, 0, 62, 38
2, 2376, Control_c, 0, 64, 127
2, 2384, Note_on_c, 0, 57, 0
2, 2391, Note_on_c, 0, 50, 0
2, 2393, Note_on_c, 0, 60, 0
2, 2394, Note_on_c, 0, 62, 0
2, 2400, Note_on_c, 0, 65, 0
2, 2478, Note_on_c, 0, 60, 53
2, 2480, Note_on_c, 0, 69, 49
2, 2480, Note_on_c, 0, 57, 37
2, 2482, Note_on_c, 0, 53, 37
2, 2484, Note_on_c, 0, 50, 30
2, 2487, Note_on_c, 0, 69, 0
2, 2509, Control_c, 0, 64, 0
2, 2520, Note_on_c, 0, 72, 101
2, 2529, Control_c, 0, 64, 127
2, 2544, Note_on_c, 0, 72, 0
2, 2550, Note_on_c, 0, 57, 0
2, 2551, Note_on_c, 0, 50, 0
2, 2552, Note_on_c, 0, 53, 0
2, 2553, Note_on_c, 0, 74, 71
2, 2576, Note_on_c, 0, 60, 0
2, 2581, Note_on_c, 0, 74, 0
2, 2592, Note_on_c, 0, 72, 69
2, 2625, Note_on_c, 0, 72, 0
2, 2634, Note_on_c, 0, 64, 36
2, 2636, Note_on_c, 0, 59, 36
2, 2636, Control_c, 0, 64, 0
2, 2637, Note_on_c, 0, 71, 35
2, 2641, Note_on_c, 0, 53, 31
2, 2643, Note_on_c, 0, 57, 22
2, 2664, Control_c, 0, 64, 127
2, 2706, Note_on_c, 0, 71, 0
2, 2716, Note_on_c, 0, 74, 60
2, 2727, Note_on_c, 0, 53, 0
2, 2728, Note_on_c, 0, 57, 0
2, 2729, Note_on_c, 0, 64, 0
2, 2731, Note_on_c, 0, 74, 0
2, 2734, Note_on_c, 0, 59, 0
2, 2753, Note_on_c, 0, 73, 70
2, 2754, Note_on_c, 0, 69, 78
2, 2754, Note_on_c, 0, 81, 79
2, 2756, Note_on_c, 0, 59, 56
2, 2756, Note_on_c, 0, 64, 74
2, 2757, Note_on_c, 0, 57, 58
2, 2758, Note_on_c, 0, 53, 47
2, 2760, Control_c, 0, 64, 0
2, 2760, Note_on_c, 0, 74, 53
2, 2786, Note_on_c, 0, 73, 0
2, 2790, Note_on_c, 0, 69, 0
2, 2792, Note_on_c, 0, 57, 0
2, 2797, Note_on_c, 0, 74, 0
2, 2798, Note_on_c, 0, 64, 0
2, 2800, Note_on_c, 0, 59, 0
2, 2800, Note_on_c, 0, 81, 0
2, 2802, Note_on_c, 0, 53, 0
2, 2818, Control_c, 0, 64, 127
2, 2827, Control_c, 0, 64, 0
2, 2838, Note_on_c, 0, 79, 58
2, 2838, Note_on_c, 0, 67, 66
2, 2838, Note_on_c, 0, 59, 29
2, 2839, Note_on_c, 0, 76, 51
2, 2839, Note_on_c, 0, 55, 51
2, 2840, Note_on_c, 0, 62, 50
2, 2840, Note_on_c, 0, 52, 41
2, 2874, Note_on_c, 0, 67, 0
2, 2878, Note_on_c, 0, 62, 0
2, 2879, Note_on_c, 0, 59, 0
2, 2879, Note_on_c, 0, 55, 0
2, 2879, Note_on_c, 0, 52, 0
2, 2882, Note_on_c, 0, 76, 0
2, 2884, Note_on_c, 0, 79, 0
2, 2959, Control_c, 0, 64, 127
2, 3011, Note_on_c, 0, 72, 96
2, 3011, Note_on_c, 0, 62, 57
2, 3012, Note_on_c, 0, 59, 47
2, 3013, Note_on_c, 0, 55, 43
2, 3013, Note_on_c, 0, 52, 47
2, 3041, Note_on_c, 0, 52, 0
2, 3042, Note_on_c, 0, 55, 0
2, 3045, Note_on_c, 0, 59, 0
2, 3045, Note_on_c, 0, 72, 0
2, 3046, Note_on_c, 0, 74, 68
2, 3048, Note_on_c, 0, 62, 0
2, 3079, Note_on_c, 0, 74, 0
2, 3081, Note_on_c, 0, 72, 78
2, 3106, Control_c, 0, 64, 0
2, 3112, Note_on_c, 0, 72, 0
2, 3118, Note_on_c, 0, 64, 38
2, 3124, Note_on_c, 0, 71, 40
2, 3126, Note_on_c, 0, 60, 31
2, 3127, Note_on_c, 0, 59, 24
2, 3129, Control_c, 0, 64, 127
2, 3173, Note_on_c, 0, 59, 0
2, 3175, Note_on_c, 0, 60, 0
2, 3180, Note_on_c, 0, 64, 0
2, 3186, Note_on_c, 0, 71, 0
2, 3197, Note_on_c, 0, 64, 51
2, 3198, Note_on_c, 0, 72, 83
2, 3200, Note_on_c, 0, 60, 63
2, 3202, Note_on_c, 0, 59, 46
2, 3228, Note_on_c, 0, 59, 0
2, 3228, Note_on_c, 0, 64, 0
2, 3229, Note_on_c, 0, 60, 0
2, 3235, Note_on_c, 0, 72, 0
2, 3244, Note_on_c, 0, 76, 65
2, 3303, Note_on_c, 0, 76, 0
2, 3312, Note_on_c, 0, 79, 66
2, 3356, Note_on_c, 0, 79, 0
2, 3437, Note_on_c, 0, 80, 63
2, 3438, Note_on_c, 0, 64, 54
2, 3439, Note_on_c, 0, 73, 36
2, 3459, Control_c, 0, 64, 0
2, 3475, Control_c, 0, 64, 127
2, 3548, Note_on_c, 0, 80, 0
2, 3551, Note_on_c, 0, 73, 0
2, 3552, Note_on_c, 0, 52, 46
2, 3562, Note_on_c, 0, 64, 0
2, 3643, Note_on_c, 0, 76, 48
2, 3645, Note_on_c, 0, 62, 39
2, 3646, Note_on_c, 0, 67, 29
2, 3647, Note_on_c, 0, 72, 36
2, 3702, Note_on_c, 0, 52, 0
2, 3727, Note_on_c, 0, 52, 45
2, 3732, Note_on_c, 0, 72, 0
2, 3743, Note_on_c, 0, 67, 0
2, 3744, Note_on_c, 0, 76, 0
2, 3749, Note_on_c, 0, 62, 0
2, 3804, Note_on_c, 0, 68, 64
2, 3806, Note_on_c, 0, 71, 61
2, 3807, Note_on_c, 0, 62, 58
2, 3812, Control_c, 0, 64, 0
2, 3830, Control_c, 0, 64, 127
2, 3865, Note_on_c, 0, 52, 0
2, 3883, Note_on_c, 0, 52, 65
2, 3914, Note_on_c, 0, 71, 0
2, 3936, Note_on_c, 0, 62, 0
2, 3939, Note_on_c, 0, 68, 0
2, 3969, Note_on_c, 0, 70, 83
2, 3970, Note_on_c, 0, 62, 68
2, 3970, Note_on_c, 0, 68, 80
2, 3976, Control_c, 0, 64, 0
2, 4011, Control_c, 0, 64, 127
2, 4206, Note_on_c, 0, 68, 0
2, 4206, Note_on_c, 0, 52, 0
2, 4213, Note_on_c, 0, 70, 0
2, 4235, Note_on_c, 0, 62, 0
2, 4321, Note_on_c, 0, 68, 44
2, 4326, Note_on_c, 0, 64, 27
2, 4327, Note_on_c, 0, 69, 45
2, 4327, Note_on_c, 0, 57, 32
2, 4327, Note_on_c, 0, 60, 30
2, 4331, Control_c, 0, 64, 0
2, 4332, Note_on_c, 0, 53, 22
2, 4342, Note_on_c, 0, 68, 0
2, 4396, Note_on_c, 0, 69, 0
2, 4407, Note_on_c, 0, 69, 57
2, 4413, Note_on_c, 0, 69, 0
2, 4424, Note_on_c, 0, 60, 0
2, 4424, Note_on_c, 0, 53, 0
2, 4425, Note_on_c, 0, 64, 0
2, 4426, Note_on_c, 0, 57, 0
2, 4558, Control_c, 0, 64, 127
2, 4563, Note_on_c, 0, 78, 53
2, 4563, Note_on_c, 0, 64, 44
2, 4564, Note_on_c, 0, 59, 37
2, 4564, Note_on_c, 0, 83, 59
2, 4565, Note_on_c, 0, 71, 57
2, 4566, Note_on_c, 0, 53, 40
2, 4592, Note_on_c, 0, 78, 0
2, 4592, Note_on_c, 0, 79, 35
2, 4602, Note_on_c, 0, 71, 0
2, 4606, Note_on_c, 0, 79, 0
2, 4609, Note_on_c, 0, 53, 0
2, 4611, Note_on_c, 0, 83, 0
2, 4612, Note_on_c, 0, 64, 0
2, 4613, Note_on_c, 0, 59, 0
2, 4637, Note_on_c, 0, 84, 81
2, 4638, Note_on_c, 0, 72, 82
2, 4639, Note_on_c, 0, 59, 78
2, 4639, Note_on_c, 0, 79, 75
2, 4639, Note_on_c, 0, 53, 82
2, 4640, Note_on_c, 0, 64, 83
2, 4655, Note_on_c, 0, 72, 0
2, 4657, Note_on_c, 0, 79, 0
2, 4658, Note_on_c, 0, 64, 0
2, 4659, Note_on_c, 0, 53, 0
2, 4660, Note_on_c, 0, 84, 0
2, 4665, Note_on_c, 0, 59, 0
2, 4679, Note_on_c, 0, 59, 76
2, 4679, Note_on_c, 0, 86, 84
2, 4680, Note_on_c, 0, 53, 87
2, 4680, Note_on_c, 0, 81, 85
2, 4681, Control_c, 0, 64, 0
2, 4681, Note_on_c, 0, 74, 83
2, 4681, Note_on_c, 0, 64, 85
2, 4698, Control_c, 0, 64, 127
2, 4714, Note_on_c, 0, 86, 0
2, 4717, Note_on_c, 0, 81, 0
2, 4721, Note_on_c, 0, 74, 0
2, 4723, Note_on_c, 0, 64, 0
2, 4725, Note_on_c, 0, 53, 0
2, 4729, Note_on_c, 0, 59, 0
2, 4753, Note_on_c, 0, 79, 53
2, 4754, Note_on_c, 0, 73, 39
2, 4756, Note_on_c, 0, 67, 53
2, 4758, Note_on_c, 0, 52, 64
2, 4759, Note_on_c, 0, 59, 47
2, 4760, Note_on_c, 0, 55, 62
2, 4760, Note_on_c, 0, 62, 58
2, 4761, Control_c, 0, 64, 0
2, 4772, Note_on_c, 0, 73, 0
2, 4772, Note_on_c, 0, 74, 52
2, 4830, Control_c, 0, 64, 127
2, 4887, Note_on_c, 0, 79, 0
2, 4890, Note_on_c, 0, 74, 0
2, 4900, Note_on_c, 0, 62, 0
2, 4902, Note_on_c, 0, 59, 0
2, 4904, Note_on_c, 0, 67, 0
2, 4910, Note_on_c, 0, 55, 0
2, 4919, Note_on_c, 0, 52, 0
2, 4990, Control_c, 0, 64, 0
2, 4994, Note_on_c, 0, 45, 76
2, 5008, Control_c, 0, 64, 127
2, 5013, Note_on_c, 0, 45, 0
2, 5107, Note_on_c, 0, 61, 51
2, 5108, Note_on_c, 0, 72, 49
2, 5108, Note_on_c, 0, 69, 49
2, 5108, Note_on_c, 0, 65, 54
2, 5110, Note_on_c, 0, 55, 56
2, 5179, Note_on_c, 0, 61, 0
2, 5183, Note_on_c, 0, 55, 0
2, 5211, Note_on_c, 0, 65, 0
2, 5217, Note_on_c, 0, 69, 0
2, 5221, Note_on_c, 0, 72, 0
2, 5279, Note_on_c, 0, 65, 50
2, 5282, Note_on_c, 0, 57, 34
2, 5283, Note_on_c, 0, 50, 36
2, 5284, Note_on_c, 0, 60, 34
2, 5299, Note_on_c, 0, 65, 0
2, 5301, Note_on_c, 0, 57, 0
2, 5308, Note_on_c, 0, 60, 0
2, 5314, Note_on_c, 0, 50, 0
2, 5349, Control_c, 0, 64, 0
2, 5352, Note_on_c, 0, 65, 73
2, 5354, Note_on_c, 0, 60, 73
2, 5354, Note_on_c, 0, 57, 66
2, 5355, Note_on_c, 0, 50, 62
2, 5361, Control_c, 0, 64, 127
2, 5374, Note_on_c, 0, 65, 0
2, 5388, Note_on_c, 0, 57, 0
2, 5396, Note_on_c, 0, 50, 0
2, 5396, Control_c, 0, 64, 0
2, 5401, Note_on_c, 0, 67, 55
2, 5403, Note_on_c, 0, 57, 38
2, 5404, Note_on_c, 0, 52, 57
2, 5409, Note_on_c, 0, 57, 0
2, 5417, Control_c, 0, 64, 127
2, 5418, Note_on_c, 0, 60, 0
2, 5422, Note_on_c, 0, 67, 0
2, 5457, Control_c, 0, 64, 0
2, 5470, Note_on_c, 0, 52, 0
2, 5471, Note_on_c, 0, 62, 72
2, 5471, Note_on_c, 0, 69, 72
2, 5472, Note_on_c, 0, 53, 65
2, 5473, Note_on_c, 0, 60, 67
2, 5473, Note_on_c, 0, 65, 63
2, 5478, Note_on_c, 0, 60, 0
2, 5481, Note_on_c, 0, 65, 0
2, 5482, Note_on_c, 0, 62, 0
2, 5483, Note_on_c, 0, 53, 0
2, 5489, Note_on_c, 0, 69, 0
2, 5512, Control_c, 0, 64, 127
2, 5540, Control_c, 0, 64, 0
2, 5549, Note_on_c, 0, 71, 87
2, 5549, Note_on_c, 0, 53, 62
2, 5549, Note_on_c, 0, 64, 72
2, 5550, Note_on_c, 0, 59, 62
2, 5572, Control_c, 0, 64, 127
2, 5604, Note_on_c, 0, 64, 0
2, 5608, Note_on_c, 0, 53, 0
2, 5611, Note_on_c, 0, 59, 0
2, 5614, Note_on_c, 0, 71, 0
2, 5619, Control_c, 0, 64, 0
2, 5629, Note_on_c, 0, 62, 68
2, 5630, Note_on_c, 0, 53, 55
2, 5630, Note_on_c, 0, 72, 85
2, 5631, Note_on_c, 0, 59, 54
2, 5638, Control_c, 0, 64, 127
2, 5678, Note_on_c, 0, 59, 0
2, 5681, Note_on_c, 0, 62, 0
2, 5682, Note_on_c, 0, 53, 0
2, 5698, Note_on_c, 0, 72, 0
2, 5709, Note_on_c, 0, 74, 75
2, 5725, Note_on_c, 0, 74, 0
2, 5800, Note_on_c, 0, 62, 38
2, 5801, Note_on_c, 0, 67, 54
2, 5802, Note_on_c, 0, 52, 32
2, 5802, Note_on_c, 0, 58, 35
2, 5803, Note_on_c, 0, 57, 47
2, 5803, Note_on_c, 0, 65, 61
2, 5805, Control_c, 0, 64, 0
2, 5855, Note_on_c, 0, 62, 0
2, 5858, Control_c, 0, 64, 127
2, 5866, Note_on_c, 0, 58, 0
2, 5881, Note_on_c, 0, 62, 57
2, 5897, Note_on_c, 0, 57, 0
2, 5899, Note_on_c, 0, 65, 0
2, 5908, Note_on_c, 0, 52, 0
2, 5913, Note_on_c, 0, 67, 0
2, 5916, Note_on_c, 0, 62, 0
2, 5956, Note_on_c, 0, 48, 53
2, 5957, Note_on_c, 0, 65, 64
2, 5957, Note_on_c, 0, 58, 42
2, 5958, Note_on_c, 0, 62, 53
2, 5959, Control_c, 0, 64, 0
2, 5973, Note_on_c, 0, 62, 0
2, 5977, Note_on_c, 0, 48, 0
2, 5977, Note_on_c, 0, 65, 0
2, 5977, Note_on_c, 0, 58, 0
2, 6007, Control_c, 0, 64, 127
2, 6044, Control_c, 0, 64, 0
2, 6052, Note_on_c, 0, 62, 55
2, 6052, Note_on_c, 0, 58, 35
2, 6052, Note_on_c, 0, 64, 54
2, 6054, Note_on_c, 0, 48, 42
2, 6057, Note_on_c, 0, 55, 38
2, 6081, Control_c, 0, 64, 127
2, 6097, Note_on_c, 0, 58, 0
2, 6097, Note_on_c, 0, 62, 0
2, 6117, Note_on_c, 0, 64, 0
2, 6121, Note_on_c, 0, 62, 40
2, 6125, Note_on_c, 0, 58, 33
2, 6128, Note_on_c, 0, 55, 0
2, 6137, Note_on_c, 0, 48, 0
2, 6162, Note_on_c, 0, 62, 0
2, 6175, Note_on_c, 0, 58, 0
2, 6198, Note_on_c, 0, 48, 50
2, 6220, Note_on_c, 0, 48, 0
2, 6229, Control_c, 0, 64, 0
2, 6241, Note_on_c, 0, 41, 54
2, 6246, Control_c, 0, 64, 127
2, 6318, Note_on_c, 0, 48, 53
2, 6319, Note_on_c, 0, 57, 63
2, 6319, Note_on_c, 0, 67, 83
2, 6319, Note_on_c, 0, 71, 81
2, 6320, Note_on_c, 0, 62, 87
2, 6403, Note_on_c, 0, 57, 0
2, 6414, Note_on_c, 0, 62, 0
2, 6423, Note_on_c, 0, 48, 0
2, 6427, Note_on_c, 0, 67, 0
2, 6431, Note_on_c, 0, 71, 0
2, 6438, Note_on_c, 0, 69, 60
2, 6439, Note_on_c, 0, 48, 33
2, 6439, Note_on_c, 0, 65, 68
2, 6439, Note_on_c, 0, 60, 62
2, 6441, Note_on_c, 0, 57, 49
2, 6449, Control_c, 0, 64, 0
2, 6457, Control_c, 0, 64, 127
2, 6503, Note_on_c, 0, 41, 0
2, 6507, Note_on_c, 0, 48, 0
2, 6512, Note_on_c, 0, 57, 0
2, 6566, Note_on_c, 0, 60, 0
2, 6616, Note_on_c, 0, 65, 0
2, 6621, Note_on_c, 0, 69, 0
2, 6676, Note_on_c, 0, 47, 65
2, 6676, Note_on_c, 0, 67, 83
2, 6676, Note_on_c, 0, 62, 92
2, 6677, Note_on_c, 0, 71, 81
2, 6677, Control_c, 0, 64, 0
2, 6677, Note_on_c, 0, 57, 64
2, 6709, Control_c, 0, 64, 127
2, 6775, Note_on_c, 0, 57, 0
2, 6808, Note_on_c, 0, 62, 0
2, 6829, Note_on_c, 0, 67, 0
2, 6834, Note_on_c, 0, 71, 0
2, 6843, Note_on_c, 0, 69, 44
2, 6844, Note_on_c, 0, 60, 44
2, 6845, Note_on_c, 0, 65, 51
2, 6846, Note_on_c, 0, 57, 43
2, 6850, Control_c, 0, 64, 0
2, 6911, Control_c, 0, 64, 127
2, 6961, Note_on_c, 0, 60, 0
2, 6973, Note_on_c, 0, 47, 0
2, 6975, Note_on_c, 0, 57, 0
2, 6990, Note_on_c, 0, 65, 0
2, 6992, Note_on_c, 0, 69, 0
2, 7036, Note_on_c, 0, 66, 82
2, 7036, Note_on_c, 0, 62, 94
2, 7037, Note_on_c, 0, 71, 83
2, 7038, Control_c, 0, 64, 0
2, 7039, Note_on_c, 0, 57, 80
2, 7040, Note_on_c, 0, 47, 74
2, 7051, Note_on_c, 0, 66, 0
2, 7052, Note_on_c, 0, 67, 51
2, 7068, Control_c, 0, 64, 127
2, 7154, Note_on_c, 0, 71, 0
2, 7155, Note_on_c, 0, 47, 0
2, 7162, Note_on_c, 0, 57, 0
2, 7165, Note_on_c, 0, 67, 0
2, 7175, Note_on_c, 0, 62, 0
2, 7200, Control_c, 0, 64, 0
2, 7200, Note_on_c, 0, 70, 70
2, 7221, Note_on_c, 0, 70, 0
2, 7240, Control_c, 0, 64, 127
2, 7274, Note_on_c, 0, 46, 63
2, 7283, Note_on_c, 0, 46, 0
2, 7398, Note_on_c, 0, 62, 84
2, 7398, Note_on_c, 0, 56, 82
2, 7398, Note_on_c, 0, 78, 87
2, 7399, Note_on_c, 0, 67, 92
2, 7399, Note_on_c, 0, 84, 88
2, 7400, Note_on_c, 0, 72, 89
2, 7402, Control_c, 0, 64, 0
2, 7415, Note_on_c, 0, 79, 40
2, 7417, Note_on_c, 0, 78, 0
2, 7426, Control_c, 0, 64, 127
2, 7501, Note_on_c, 0, 84, 0
2, 7513, Note_on_c, 0, 79, 0
2, 7520, Note_on_c, 0, 72, 0
2, 7527, Note_on_c, 0, 67, 0
2, 7530, Note_on_c, 0, 56, 0
2, 7542, Note_on_c, 0, 62, 0
2, 7562, Note_on_c, 0, 62, 40
2, 7563, Note_on_c, 0, 82, 51
2, 7564, Note_on_c, 0, 56, 53
2, 7565, Note_on_c, 0, 67, 50
2, 7565, Note_on_c, 0, 70, 45
2, 7567, Note_on_c, 0, 78, 33
2, 7585, Control_c, 0, 64, 0
2, 7593, Note_on_c, 0, 70, 0
2, 7595, Note_on_c, 0, 67, 0
2, 7595, Note_on_c, 0, 78, 0
2, 7596, Note_on_c, 0, 62, 0
2, 7602, Note_on_c, 0, 82, 0
2, 7608, Note_on_c, 0, 56, 0
2, 7681, Note_on_c, 0, 85, 69
2, 7682, Note_on_c, 0, 61, 42
2, 7682, Note_on_c, 0, 73, 40
2, 7683, Note_on_c, 0, 55, 56
2, 7683, Note_on_c, 0, 65, 55
2, 7683, Control_c, 0, 64, 127
2, 7684, Note_on_c, 0, 80, 44
2, 7759, Note_on_c, 0, 85, 0
2, 7762, Note_on_c, 0, 65, 0
2, 7762, Note_on_c, 0, 80, 0
2, 7765, Note_on_c, 0, 73, 0
2, 7772, Note_on_c, 0, 55, 0
2, 7775, Note_on_c, 0, 61, 0
2, 7882, Note_on_c, 0, 61, 77
2, 7882, Note_on_c, 0, 77, 84
2, 7883, Note_on_c, 0, 81, 79
2, 7883, Note_on_c, 0, 72, 84
2, 7884, Control_c, 0, 64, 0
2, 7884, Note_on_c, 0, 55, 75
2, 7911, Control_c, 0, 64, 127
2, 7947, Note_on_c, 0, 81, 0
2, 7947, Note_on_c, 0, 77, 0
2, 7956, Note_on_c, 0, 72, 0
2, 7965, Note_on_c, 0, 55, 0
2, 8004, Note_on_c, 0, 61, 0
2, 8006, Note_on_c, 0, 55, 36
2, 8047, Note_on_c, 0, 61, 58
2, 8048, Note_on_c, 0, 72, 91
2, 8073, Note_on_c, 0, 55, 0
2, 8082, Note_on_c, 0, 61, 0
2, 8096, Note_on_c, 0, 72, 0
2, 8124, Note_on_c, 0, 74, 67
2, 8124, Note_on_c, 0, 50, 48
2, 8124, Note_on_c, 0, 60, 54
2, 8125, Note_on_c, 0, 69, 69
2, 8126, Note_on_c, 0, 65, 68
2, 8127, Note_on_c, 0, 57, 47
2, 8129, Control_c, 0, 64, 0
2, 8147, Note_on_c, 0, 60, 0
2, 8148, Note_on_c, 0, 57, 0
2, 8152, Note_on_c, 0, 74, 0
2, 8155, Note_on_c, 0, 69, 0
2, 8158, Note_on_c, 0, 65, 0
2, 8189, Note_on_c, 0, 50, 0
2, 8237, Note_on_c, 0, 62, 55
2, 8238, Note_on_c, 0, 69, 58
2, 8238, Note_on_c, 0, 65, 58
2, 8240, Note_on_c, 0, 60, 53
2, 8241, Note_on_c, 0, 57, 56
2, 8266, Control_c, 0, 64, 127
2, 8295, Note_on_c, 0, 57, 0
2, 8299, Note_on_c, 0, 65, 0
2, 8300, Note_on_c, 0, 69, 0
2, 8303, Note_on_c, 0, 62, 0
2, 8310, Note_on_c, 0, 60, 0
2, 8360, Note_on_c, 0, 65, 71
2, 8363, Note_on_c, 0, 57, 48
2, 8364, Note_on_c, 0, 60, 58
2, 8366, Note_on_c, 0, 62, 33
2, 8377, Note_on_c, 0, 57, 0
2, 8379, Note_on_c, 0, 60, 0
2, 8384, Note_on_c, 0, 62, 0
2, 8387, Note_on_c, 0, 65, 0
2, 8410, Control_c, 0, 64, 0
2, 8410, Note_on_c, 0, 53, 45
2, 8411, Note_on_c, 0, 64, 54
2, 8412, Note_on_c, 0, 43, 40
2, 8412, Note_on_c, 0, 59, 49
2, 8413, Note_on_c, 0, 55, 36
2, 8449, Control_c, 0, 64, 127
2, 8475, Note_on_c, 0, 53, 0
2, 8487, Note_on_c, 0, 55, 0
2, 8491, Note_on_c, 0, 59, 0
2, 8505, Note_on_c, 0, 64, 0
2, 8515, Control_c, 0, 64, 0
2, 8519, Note_on_c, 0, 62, 47
2, 8521, Note_on_c, 0, 52, 38
2, 8521, Control_c, 0, 64, 127
2, 8522, Note_on_c, 0, 59, 44
2, 8523, Note_on_c, 0, 55, 27
2, 8536, Note_on_c, 0, 43, 0
2, 8551, Note_on_c, 0, 52, 0
2, 8560, Note_on_c, 0, 55, 0
2, 8566, Note_on_c, 0, 59, 0
2, 8570, Note_on_c, 0, 62, 0
2, 8627, Control_c, 0, 64, 0
2, 8636, Note_on_c, 0, 40, 58
2, 8642, Control_c, 0, 64, 127
2, 8644, Note_on_c, 0, 40, 0
2, 8712, Note_on_c, 0, 79, 70
2, 8714, Note_on_c, 0, 56, 57
2, 8715, Note_on_c, 0, 76, 75
2, 8717, Note_on_c, 0, 62, 69
2, 8718, Note_on_c, 0, 72, 76
2, 8721, Note_on_c, 0, 67, 69
2, 8727, Control_c, 0, 64, 0
2, 8731, Control_c, 0, 64, 127
2, 8798, Note_on_c, 0, 62, 0
2, 8800, Note_on_c, 0, 56, 0
2, 8869, Control_c, 0, 64, 0
2, 8872, Note_on_c, 0, 67, 0
2, 8877, Note_on_c, 0, 45, 47
2, 8879, Note_on_c, 0, 72, 0
2, 8881, Control_c, 0, 64, 127
2, 8884, Note_on_c, 0, 76, 0
2, 8886, Note_on_c, 0, 45, 0
2, 8888, Note_on_c, 0, 79, 0
2, 8915, Note_on_c, 0, 80, 20
2, 8932, Note_on_c, 0, 80, 0
2, 8956, Note_on_c, 0, 84, 44
2, 8959, Note_on_c, 0, 81, 55
2, 8961, Note_on_c, 0, 61, 45
2, 8961, Note_on_c, 0, 77, 55
2, 8962, Note_on_c, 0, 55, 42
2, 8964, Note_on_c, 0, 60, 39
2, 8964, Note_on_c, 0, 65, 52
2, 8965, Note_on_c, 0, 72, 51
2, 8970, Control_c, 0, 64, 0
2, 8983, Control_c, 0, 64, 127
2, 9016, Note_on_c, 0, 65, 0
2, 9018, Note_on_c, 0, 60, 0
2, 9023, Note_on_c, 0, 61, 0
2, 9026, Note_on_c, 0, 55, 0
2, 9036, Note_on_c, 0, 84, 0
2, 9038, Note_on_c, 0, 81, 0
2, 9041, Note_on_c, 0, 77, 0
2, 9043, Note_on_c, 0, 72, 0
2, 9119, Note_on_c, 0, 69, 66
2, 9121, Note_on_c, 0, 65, 68
2, 9122, Note_on_c, 0, 50, 45
2, 9123, Note_on_c, 0, 60, 33
2, 9123, Note_on_c, 0, 57, 50
2, 9125, Note_on_c, 0, 62, 35
2, 9128, Control_c, 0, 64, 0
2, 9132, Note_on_c, 0, 62, 0
2, 9173, Control_c, 0, 64, 127
2, 9184, Note_on_c, 0, 50, 0
2, 9197, Note_on_c, 0, 69, 0
2, 9199, Note_on_c, 0, 65, 0
2, 9201, Note_on_c, 0, 60, 0
2, 9205, Note_on_c, 0, 50, 25
2, 9206, Note_on_c, 0, 57, 0
2, 9235, Control_c, 0, 64, 0
2, 9239, Note_on_c, 0, 57, 44
2, 9239, Note_on_c, 0, 69, 58
2, 9240, Note_on_c, 0, 65, 58
2, 9240, Note_on_c, 0, 60, 55
2, 9258, Note_on_c, 0, 50, 0
2, 9259, Control_c, 0, 64, 127
2, 9277, Note_on_c, 0, 57, 0
2, 9296, Note_on_c, 0, 65, 0
2, 9299, Note_on_c, 0, 60, 0
2, 9300, Note_on_c, 0, 69, 0
2, 9316, Note_on_c, 0, 50, 38
2, 9344, Note_on_c, 0, 50, 0
2, 9356, Control_c, 0, 64, 0
2, 9357, Note_on_c, 0, 59, 53
2, 9357, Note_on_c, 0, 64, 55
2, 9358, Note_on_c, 0, 69, 56
2, 9358, Note_on_c, 0, 43, 48
2, 9416, Control_c, 0, 64, 127
2, 9418, Note_on_c, 0, 59, 0
2, 9427, Note_on_c, 0, 69, 0
2, 9430, Note_on_c, 0, 64, 0
2, 9441, Note_on_c, 0, 67, 41
2, 9456, Note_on_c, 0, 67, 0
2, 9478, Note_on_c, 0, 71, 60
2, 9478, Note_on_c, 0, 64, 55
2, 9478, Note_on_c, 0, 55, 48
2, 9479, Note_on_c, 0, 62, 48
2, 9481, Control_c, 0, 64, 0
2, 9490, Note_on_c, 0, 55, 0
2, 9498, Note_on_c, 0, 64, 0
2, 9501, Note_on_c, 0, 71, 0
2, 9503, Note_on_c, 0, 62, 0
2, 9520, Note_on_c, 0, 43, 0
2, 9527, Control_c, 0, 64, 127
2, 9555, Note_on_c, 0, 58, 57
2, 9555, Note_on_c, 0, 69, 62
2, 9557, Note_on_c, 0, 62, 60
2, 9558, Note_on_c, 0, 64, 51
2, 9559, Note_on_c, 0, 57, 58
2, 9559, Control_c, 0, 64, 0
2, 9646, Control_c, 0, 64, 127
2, 9672, Note_on_c, 0, 57, 0
2, 9675, Note_on_c, 0, 55, 36
2, 9686, Note_on_c, 0, 64, 0
2, 9708, Note_on_c, 0, 55, 0
2, 9718, Note_on_c, 0, 57, 44
2, 9728, Note_on_c, 0, 62, 0
2, 9732, Note_on_c, 0, 69, 0
2, 9743, Note_on_c, 0, 57, 0
2, 9750, Note_on_c, 0, 58, 0
2, 9792, Note_on_c, 0, 61, 52
2, 9792, Note_on_c, 0, 55, 44
2, 9793, Note_on_c, 0, 58, 42
2, 9793, Note_on_c, 0, 64, 42
2, 9796, Note_on_c, 0, 45, 35
2, 9797, Control_c, 0, 64, 0
2, 9818, Control_c, 0, 64, 127
2, 9827, Note_on_c, 0, 45, 0
2, 9827, Note_on_c, 0, 58, 0
2, 9833, Note_on_c, 0, 64, 0
2, 9834, Note_on_c, 0, 61, 0
2, 9892, Note_on_c, 0, 55, 0
2, 9920, Note_on_c, 0, 56, 62
2, 9923, Note_on_c, 0, 68, 83
2, 9923, Note_on_c, 0, 80, 78
2, 9955, Note_on_c, 0, 68, 0
2, 9957, Control_c, 0, 64, 0
2, 9960, Note_on_c, 0, 80, 0
2, 9966, Note_on_c, 0, 57, 60
2, 9968, Note_on_c, 0, 69, 60
2, 9969, Note_on_c, 0, 81, 46
2, 9972, Control_c, 0, 64, 127
2, 9979, Note_on_c, 0, 69, 0
2, 9983, Note_on_c, 0, 81, 0
2, 10031, Note_on_c, 0, 57, 0
2, 10036, Note_on_c, 0, 84, 77
2, 10036, Control_c, 0, 64, 0
2, 10037, Note_on_c, 0, 60, 84
2, 10038, Note_on_c, 0, 72, 83
2, 10047, Note_on_c, 0, 56, 0
2, 10059, Note_on_c, 0, 60, 0
2, 10060, Note_on_c, 0, 84, 0
2, 10062, Note_on_c, 0, 72, 0
2, 10110, Control_c, 0, 64, 127
2, 10139, Control_c, 0, 64, 0
2, 10152, Note_on_c, 0, 81, 70
2, 10153, Note_on_c, 0, 74, 64
2, 10153, Note_on_c, 0, 69, 69
2, 10154, Note_on_c, 0, 77, 61
2, 10155, Note_on_c, 0, 64, 68
2, 10156, Note_on_c, 0, 57, 60
2, 10157, Note_on_c, 0, 60, 58
2, 10174, Note_on_c, 0, 64, 0
2, 10176, Note_on_c, 0, 69, 0
2, 10178, Note_on_c, 0, 60, 0
2, 10180, Note_on_c, 0, 57, 0
2, 10181, Note_on_c, 0, 74, 0
2, 10182, Note_on_c, 0, 81, 0
2, 10183, Note_on_c, 0, 77, 0
2, 10204, Control_c, 0, 64, 127
2, 10387, Control_c, 0, 64, 0
2, 10389, Note_on_c, 0, 77, 74
2, 10391, Note_on_c, 0, 65, 76
2, 10412, Control_c, 0, 64, 127
2, 10428, Note_on_c, 0, 77, 0
2, 10443, Note_on_c, 0, 65, 0
2, 10455, Note_on_c, 0, 74, 68
2, 10513, Note_on_c, 0, 74, 0
2, 10552, Note_on_c, 0, 65, 39
2, 10553, Note_on_c, 0, 69, 52
2, 10554, Note_on_c, 0, 57, 41
2, 10554, Note_on_c, 0, 60, 36
2, 10554, Control_c, 0, 64, 0
2, 10555, Note_on_c, 0, 64, 27
2, 10555, Note_on_c, 0, 53, 26
2, 10582, Control_c, 0, 64, 127
2, 10623, Note_on_c, 0, 65, 0
2, 10634, Note_on_c, 0, 65, 36
2, 10634, Note_on_c, 0, 72, 73
2, 10663, Note_on_c, 0, 65, 0
2, 10668, Note_on_c, 0, 64, 0
2, 10669, Note_on_c, 0, 60, 0
2, 10671, Note_on_c, 0, 53, 0
2, 10675, Note_on_c, 0, 72, 0
2, 10676, Note_on_c, 0, 69, 0
2, 10679, Note_on_c, 0, 57, 0
2, 10797, Control_c, 0, 64, 0
2, 10800, Note_on_c, 0, 76, 44
2, 10801, Note_on_c, 0, 64, 37
2, 10801, Note_on_c, 0, 68, 49
2, 10803, Note_on_c, 0, 59, 36
2, 10804, Note_on_c, 0, 71, 43
2, 10804, Note_on_c, 0, 65, 45
2, 10805, Note_on_c, 0, 53, 27
2, 10818, Control_c, 0, 64, 127
2, 10831, Note_on_c, 0, 71, 0
2, 10835, Note_on_c, 0, 68, 0
2, 10837, Note_on_c, 0, 76, 0
2, 10839, Note_on_c, 0, 65, 0
2, 10907, Note_on_c, 0, 64, 0
2, 10912, Note_on_c, 0, 59, 0
2, 10913, Note_on_c, 0, 53, 0
2, 10992, Note_on_c, 0, 67, 68
2, 10994, Note_on_c, 0, 79, 49
2, 10998, Note_on_c, 0, 67, 0
2, 11010, Note_on_c, 0, 79, 0
2, 11044, Note_on_c, 0, 85, 60
2, 11048, Note_on_c, 0, 73, 48
2, 11052, Note_on_c, 0, 64, 50
2, 11052, Note_on_c, 0, 62, 37
2, 11053, Note_on_c, 0, 67, 53
2, 11057, Control_c, 0, 64, 0
2, 11069, Note_on_c, 0, 85, 0
2, 11074, Note_on_c, 0, 73, 0
2, 11079, Note_on_c, 0, 86, 20
2, 11080, Note_on_c, 0, 74, 34
2, 11110, Note_on_c, 0, 86, 0
2, 11115, Note_on_c, 0, 74, 0
2, 11115, Control_c, 0, 64, 127
2, 11130, Note_on_c, 0, 86, 37
2, 11131, Note_on_c, 0, 74, 54
2, 11135, Control_c, 0, 64, 0
2, 11277, Control_c, 0, 64, 127
2, 11297, Control_c, 0, 64, 0
2, 11322, Note_on_c, 0, 86, 0
2, 11325, Note_on_c, 0, 83, 45
2, 11337, Note_on_c, 0, 74, 0
2, 11350, Note_on_c, 0, 83, 0
2, 11358, Note_on_c, 0, 84, 71
2, 11380, Note_on_c, 0, 84, 0
2, 11397, Note_on_c, 0, 86, 94
2, 11411, Note_on_c, 0, 67, 0
2, 11412, Note_on_c, 0, 62, 0
2, 11412, Note_on_c, 0, 64, 0
2, 11424, Note_on_c, 0, 86, 0
2, 11475, Note_on_c, 0, 82, 62
2, 11479, Note_on_c, 0, 83, 71
2, 11490, Note_on_c, 0, 82, 0
2, 11493, Note_on_c, 0, 83, 0
2, 11520, Note_on_c, 0, 78, 55
2, 11531, Note_on_c, 0, 79, 32
2, 11538, Note_on_c, 0, 78, 0
2, 11549, Note_on_c, 0, 79, 0
2, 11594, Note_on_c, 0, 76, 53
2, 11633, Control_c, 0, 64, 127
2, 11657, Note_on_c, 0, 76, 0
2, 11714, Note_on_c, 0, 71, 90
2, 11736, Note_on_c, 0, 71, 0
2, 11758, Control_c, 0, 64, 0
2, 11760, Note_on_c, 0, 74, 110
2, 11820, Note_on_c, 0, 74, 0
2, 11833, Note_on_c, 0, 74, 64
2, 11866, Note_on_c, 0, 74, 0
2, 11878, Note_on_c, 0, 73, 40
2, 11891, Control_c, 0, 64, 127
2, 11928, Note_on_c, 0, 73, 0
2, 11993, Note_on_c, 0, 79, 71
2, 11994, Note_on_c, 0, 64, 41
2, 11995, Note_on_c, 0, 60, 46
2, 11996, Note_on_c, 0, 53, 30
2, 11998, Note_on_c, 0, 57, 50
2, 12002, Control_c, 0, 64, 0
2, 12060, Control_c, 0, 64, 127
2, 12146, Note_on_c, 0, 60, 0
2, 12158, Note_on_c, 0, 64, 0
2, 12159, Note_on_c, 0, 57, 0
2, 12168, Note_on_c, 0, 53, 0
2, 12240, Note_on_c, 0, 64, 38
2, 12242, Note_on_c, 0, 59, 41
2, 12244, Note_on_c, 0, 53, 35
2, 12245, Note_on_c, 0, 57, 41
2, 12268, Note_on_c, 0, 79, 0
2, 12320, Note_on_c, 0, 77, 103
2, 12409, Note_on_c, 0, 57, 0
2, 12410, Note_on_c, 0, 76, 66
2, 12412, Note_on_c, 0, 64, 0
2, 12413, Note_on_c, 0, 77, 0
2, 12423, Note_on_c, 0, 53, 0
2, 12425, Note_on_c, 0, 59, 0
2, 12436, Note_on_c, 0, 76, 0
2, 12442, Note_on_c, 0, 74, 59
2, 12475, Note_on_c, 0, 74, 0
2, 12480, Control_c, 0, 64, 0
2, 12483, Note_on_c, 0, 52, 44
2, 12484, Note_on_c, 0, 62, 46
2, 12484, Note_on_c, 0, 59, 34
2, 12484, Note_on_c, 0, 79, 57
2, 12485, Note_on_c, 0, 55, 44
2, 12568, Note_on_c, 0, 67, 37
2, 12581, Control_c, 0, 64, 127
2, 12628, Note_on_c, 0, 55, 0
2, 12632, Note_on_c, 0, 59, 0
2, 12633, Note_on_c, 0, 52, 0
2, 12650, Note_on_c, 0, 62, 0
2, 12675, Note_on_c, 0, 67, 0
2, 12715, Note_on_c, 0, 79, 0
2, 12720, Note_on_c, 0, 72, 39
2, 12720, Note_on_c, 0, 55, 40
2, 12722, Note_on_c, 0, 61, 34
2, 12723, Note_on_c, 0, 65, 30
2, 12725, Note_on_c, 0, 60, 44
2, 12727, Control_c, 0, 64, 0
2, 12823, Control_c, 0, 64, 127
2, 12863, Note_on_c, 0, 60, 0
2, 12865, Note_on_c, 0, 65, 0
2, 12876, Note_on_c, 0, 55, 0
2, 12891, Note_on_c, 0, 61, 0
2, 12938, Note_on_c, 0, 72, 0
2, 12956, Note_on_c, 0, 53, 29
2, 12956, Note_on_c, 0, 64, 36
2, 12956, Note_on_c, 0, 60, 40
2, 12958, Control_c, 0, 64, 0
2, 12961, Note_on_c, 0, 57, 32
2, 13116, Note_on_c, 0, 69, 44
2, 13123, Note_on_c, 0, 69, 0
2, 13129, Note_on_c, 0, 64, 0
2, 13130, Note_on_c, 0, 53, 0
2, 13132, Note_on_c, 0, 60, 0
2, 13134, Note_on_c, 0, 57, 0
2, 13148, Note_on_c, 0, 72, 91
2, 13169, Note_on_c, 0, 72, 0
2, 13178, Note_on_c, 0, 74, 82
2, 13199, Control_c, 0, 64, 127
2, 13204, Note_on_c, 0, 72, 74
2, 13212, Note_on_c, 0, 74, 0
2, 13223, Control_c, 0, 64, 0
2, 13224, Note_on_c, 0, 64, 39
2, 13225, Note_on_c, 0, 59, 39
2, 13226, Note_on_c, 0, 72, 0
2, 13230, Note_on_c, 0, 69, 49
2, 13231, Note_on_c, 0, 53, 28
2, 13232, Note_on_c, 0, 57, 22
2, 13244, Note_on_c, 0, 69, 0
2, 13270, Note_on_c, 0, 71, 38
2, 13288, Note_on_c, 0, 71, 0
2, 13307, Note_on_c, 0, 74, 75
2, 13321, Note_on_c, 0, 74, 0
2, 13404, Note_on_c, 0, 80, 70
2, 13409, Note_on_c, 0, 81, 70
2, 13415, Note_on_c, 0, 57, 0
2, 13417, Note_on_c, 0, 80, 0
2, 13422, Note_on_c, 0, 64, 0
2, 13428, Note_on_c, 0, 53, 0
2, 13440, Note_on_c, 0, 81, 0
2, 13453, Note_on_c, 0, 80, 58
2, 13462, Note_on_c, 0, 52, 47
2, 13463, Note_on_c, 0, 62, 46
2, 13466, Note_on_c, 0, 81, 63
2, 13466, Note_on_c, 0, 55, 35
2, 13472, Note_on_c, 0, 80, 0
2, 13493, Note_on_c, 0, 81, 0
2, 13506, Note_on_c, 0, 78, 55
2, 13522, Note_on_c, 0, 79, 57
2, 13526, Note_on_c, 0, 78, 0
2, 13531, Note_on_c, 0, 79, 0
2, 13553, Note_on_c, 0, 75, 67
2, 13561, Note_on_c, 0, 76, 43
2, 13566, Note_on_c, 0, 75, 0
2, 13578, Note_on_c, 0, 76, 0
2, 13605, Note_on_c, 0, 67, 43
2, 13643, Note_on_c, 0, 55, 0
2, 13652, Note_on_c, 0, 52, 0
2, 13652, Note_on_c, 0, 59, 0
2, 13654, Control_c, 0, 64, 127
2, 13668, Note_on_c, 0, 62, 0
2, 13696, Control_c, 0, 64, 0
2, 13755, Note_on_c, 0, 64, 49
2, 13759, Note_on_c, 0, 60, 39
2, 13759, Note_on_c, 0, 55, 30
2, 13760, Note_on_c, 0, 59, 28
2, 13805, Control_c, 0, 64, 127
2, 13840, Note_on_c, 0, 71, 47
2, 13843, Note_on_c, 0, 59, 0
2, 13849, Note_on_c, 0, 67, 0
2, 13849, Control_c, 0, 64, 0
2, 13852, Note_on_c, 0, 55, 0
2, 13857, Control_c, 0, 64, 127
2, 13858, Note_on_c, 0, 64, 0
2, 13862, Note_on_c, 0, 71, 0
2, 13876, Note_on_c, 0, 74, 88
2, 13877, Note_on_c, 0, 60, 0
2, 13905, Note_on_c, 0, 74, 0
2, 13906, Control_c, 0, 64, 0
2, 13912, Note_on_c, 0, 60, 36
2, 13915, Note_on_c, 0, 64, 40
2, 13915, Note_on_c, 0, 53, 36
2, 13917, Note_on_c, 0, 72, 60
2, 13918, Note_on_c, 0, 57, 43
2, 13959, Control_c, 0, 64, 127
2, 14000, Note_on_c, 0, 64, 0
2, 14008, Note_on_c, 0, 72, 0
2, 14017, Note_on_c, 0, 60, 0
2, 14040, Note_on_c, 0, 57, 0
2, 14047, Note_on_c, 0, 53, 0
2, 14078, Note_on_c, 0, 57, 53
2, 14084, Note_on_c, 0, 57, 0
2, 14096, Control_c, 0, 64, 0
2, 14108, Note_on_c, 0, 60, 101
2, 14133, Note_on_c, 0, 62, 58
2, 14135, Note_on_c, 0, 60, 0
2, 14149, Note_on_c, 0, 60, 62
2, 14154, Note_on_c, 0, 62, 0
2, 14167, Note_on_c, 0, 60, 0
2, 14170, Note_on_c, 0, 57, 55
2, 14180, Note_on_c, 0, 57, 0
2, 14182, Note_on_c, 0, 53, 31
2, 14185, Note_on_c, 0, 43, 33
2, 14192, Note_on_c, 0, 59, 58
2, 14231, Note_on_c, 0, 59, 0
2, 14245, Note_on_c, 0, 62, 67
2, 14257, Note_on_c, 0, 62, 0
2, 14283, Note_on_c, 0, 53, 0
2, 14301, Control_c, 0, 64, 127
2, 14314, Control_c, 0, 64, 0
2, 14324, Note_on_c, 0, 69, 64
2, 14324, Note_on_c, 0, 62, 64
2, 14324, Note_on_c, 0, 59, 60
2, 14330, Note_on_c, 0, 59, 0
2, 14332, Note_on_c, 0, 62, 0
2, 14336, Note_on_c, 0, 69, 0
2, 14351, Control_c, 0, 64, 127
2, 14360, Note_on_c, 0, 50, 43
2, 14381, Note_on_c, 0, 50, 0
2, 14381, Control_c, 0, 64, 0
2, 14396, Note_on_c, 0, 43, 0
2, 14398, Note_on_c, 0, 62, 61
2, 14400, Note_on_c, 0, 67, 53
2, 14400, Note_on_c, 0, 52, 47
2, 14401, Note_on_c, 0, 55, 51
2, 14452, Control_c, 0, 64, 127
2, 14474, Note_on_c, 0, 55, 0
2, 14477, Note_on_c, 0, 62, 0
2, 14485, Note_on_c, 0, 67, 0
2, 14513, Control_c, 0, 64, 0
2, 14520, Note_on_c, 0, 60, 103
2, 14577, Note_on_c, 0, 60, 0
2, 14581, Note_on_c, 0, 62, 54
2, 14598, Note_on_c, 0, 60, 64
2, 14608, Note_on_c, 0, 62, 0
2, 14620, Note_on_c, 0, 60, 0
2, 14624, Note_on_c, 0, 59, 44
2, 14719, Note_on_c, 0, 60, 77
2, 14722, Note_on_c, 0, 59, 0
2, 14750, Note_on_c, 0, 60, 0
2, 14764, Note_on_c, 0, 64, 41
2, 14768, Note_on_c, 0, 52, 0
2, 14785, Note_on_c, 0, 64, 0
2, 14805, Note_on_c, 0, 67, 47
2, 14813, Note_on_c, 0, 67, 0
2, 14837, Control_c, 0, 64, 127
2, 14840, Note_on_c, 0, 71, 80
2, 14861, Note_on_c, 0, 71, 0
2, 14883, Note_on_c, 0, 68, 57
2, 14884, Control_c, 0, 64, 0
2, 14884, Note_on_c, 0, 63, 34
2, 14975, Control_c, 0, 64, 127
2, 15068, Note_on_c, 0, 63, 0
2, 15078, Note_on_c, 0, 64, 55
2, 15078, Note_on_c, 0, 60, 47
2, 15105, Control_c, 0, 64, 0
2, 15143, Control_c, 0, 64, 127
2, 15255, Note_on_c, 0, 64, 0
2, 15280, Note_on_c, 0, 60, 0
2, 15319, Note_on_c, 0, 40, 52
2, 15339, Note_on_c, 0, 40, 0
2, 15358, Control_c, 0, 64, 0
2, 15361, Note_on_c, 0, 56, 36
2, 15362, Note_on_c, 0, 59, 39
2, 15362, Note_on_c, 0, 52, 34
2, 15385, Note_on_c, 0, 52, 0
2, 15397, Note_on_c, 0, 66, 1
2, 15407, Note_on_c, 0, 59, 0
2, 15413, Note_on_c, 0, 56, 0
2, 15419, Note_on_c, 0, 68, 0
2, 15438, Note_on_c, 0, 56, 25
2, 15440, Note_on_c, 0, 59, 41
2, 15447, Note_on_c, 0, 59, 0
2, 15449, Note_on_c, 0, 56, 0
2, 15468, Note_on_c, 0, 66, 0
2, 15559, Control_c, 0, 64, 127
2, 15593, Control_c, 0, 64, 0
2, 15600, Note_on_c, 0, 61, 75
2, 15601, Note_on_c, 0, 70, 71
2, 15601, Note_on_c, 0, 66, 72
2, 15611, Note_on_c, 0, 61, 0
2, 15614, Note_on_c, 0, 66, 0
2, 15618, Note_on_c, 0, 70, 0
2, 15739, Control_c, 0, 64, 127
2, 15772, Control_c, 0, 64, 0
2, 15793, Control_c, 0, 64, 127
2, 15794, Note_on_c, 0, 51, 55
2, 15794, Note_on_c, 0, 66, 77
2, 15795, Note_on_c, 0, 70, 71
2, 15795, Note_on_c, 0, 61, 77
2, 15827, Note_on_c, 0, 66, 0
2, 15831, Note_on_c, 0, 61, 0
2, 15832, Note_on_c, 0, 70, 0
2, 15835, Control_c, 0, 64, 0
2, 15836, Note_on_c, 0, 51, 0
2, 15843, Note_on_c, 0, 69, 60
2, 15843, Note_on_c, 0, 60, 42
2, 15844, Note_on_c, 0, 65, 50
2, 15845, Note_on_c, 0, 53, 37
2, 15891, Control_c, 0, 64, 127
2, 15916, Note_on_c, 0, 53, 0
2, 15925, Note_on_c, 0, 60, 0
2, 15939, Note_on_c, 0, 65, 0
2, 15946, Note_on_c, 0, 69, 0
2, 16023, Control_c, 0, 64, 0
2, 16023, Note_on_c, 0, 68, 83
2, 16024, Note_on_c, 0, 70, 78
2, 16024, Note_on_c, 0, 60, 61
2, 16026, Note_on_c, 0, 64, 68
2, 16027, Note_on_c, 0, 53, 46
2, 16027, Note_on_c, 0, 57, 62
2, 16029, Note_on_c, 0, 69, 73
2, 16030, Note_on_c, 0, 70, 0
2, 16038, Note_on_c, 0, 68, 0
2, 16049, Note_on_c, 0, 64, 0
2, 16050, Note_on_c, 0, 60, 0
2, 16053, Note_on_c, 0, 69, 0
2, 16059, Note_on_c, 0, 53, 0
2, 16062, Note_on_c, 0, 57, 0
2, 16092, Note_on_c, 0, 70, 54
2, 16096, Note_on_c, 0, 71, 80
2, 16097, Note_on_c, 0, 64, 49
2, 16097, Note_on_c, 0, 59, 48
2, 16099, Note_on_c, 0, 53, 36
2, 16104, Note_on_c, 0, 70, 0
2, 16210, Control_c, 0, 64, 127
2, 16244, Note_on_c, 0, 71, 0
2, 16245, Note_on_c, 0, 72, 65
2, 16251, Note_on_c, 0, 64, 0
2, 16260, Note_on_c, 0, 53, 0
2, 16265, Note_on_c, 0, 72, 0
2, 16270, Note_on_c, 0, 59, 0
2, 16280, Note_on_c, 0, 74, 72
2, 16307, Control_c, 0, 64, 0
2, 16308, Note_on_c, 0, 74, 0
2, 16318, Note_on_c, 0, 62, 41
2, 16319, Note_on_c, 0, 59, 28
2, 16319, Note_on_c, 0, 52, 31
2, 16320, Note_on_c, 0, 67, 50
2, 16321, Note_on_c, 0, 55, 36
2, 16353, Note_on_c, 0, 67, 0
2, 16361, Note_on_c, 0, 79, 54
2, 16379, Note_on_c, 0, 79, 0
2, 16426, Note_on_c, 0, 55, 0
2, 16426, Note_on_c, 0, 52, 0
2, 16426, Note_on_c, 0, 62, 0
2, 16428, Note_on_c, 0, 59, 0
2, 16434, Note_on_c, 0, 79, 47
2, 16476, Note_on_c, 0, 79, 0
2, 16482, Note_on_c, 0, 67, 35
2, 16496, Note_on_c, 0, 67, 0
2, 16638, Note_on_c, 0, 64, 37
2, 16640, Note_on_c, 0, 60, 47
2, 16643, Note_on_c, 0, 59, 36
2, 16645, Note_on_c, 0, 55, 22
2, 16689, Control_c, 0, 64, 127
2, 16744, Note_on_c, 0, 59, 0
2, 16753, Note_on_c, 0, 55, 0
2, 16755, Note_on_c, 0, 64, 0
2, 16760, Note_on_c, 0, 60, 0
2, 16803, Control_c, 0, 64, 0
2, 16877, Note_on_c, 0, 64, 47
2, 16879, Note_on_c, 0, 57, 54
2, 16879, Note_on_c, 0, 60, 45
2, 16880, Note_on_c, 0, 53, 33
2, 16891, Note_on_c, 0, 60, 0
2, 16891, Note_on_c, 0, 64, 0
2, 16896, Note_on_c, 0, 57, 0
2, 16896, Note_on_c, 0, 53, 0
2, 16927, Note_on_c, 0, 77, 67
2, 16946, Note_on_c, 0, 77, 0
2, 16962, Note_on_c, 0, 79, 74
2, 16977, Note_on_c, 0, 79, 0
2, 17000, Note_on_c, 0, 81, 90
2, 17031, Note_on_c, 0, 81, 0
2, 17037, Note_on_c, 0, 77, 38
2, 17067, Note_on_c, 0, 77, 0
2, 17088, Note_on_c, 0, 64, 62
2, 17088, Note_on_c, 0, 83, 87
2, 17089, Note_on_c, 0, 59, 54
2, 17092, Note_on_c, 0, 53, 42
2, 17157, Note_on_c, 0, 83, 0
2, 17174, Note_on_c, 0, 84, 94
2, 17178, Control_c, 0, 64, 127
2, 17208, Note_on_c, 0, 64, 0
2, 17213, Note_on_c, 0, 53, 0
2, 17224, Note_on_c, 0, 59, 0
2, 17227, Note_on_c, 0, 84, 0
2, 17234, Control_c, 0, 64, 0
2, 17242, Note_on_c, 0, 53, 60
2, 17245, Note_on_c, 0, 59, 44
2, 17245, Note_on_c, 0, 64, 49
2, 17248, Note_on_c, 0, 86, 94
2, 17257, Note_on_c, 0, 84, 24
2, 17264, Note_on_c, 0, 84, 0
2, 17271, Note_on_c, 0, 59, 0
2, 17271, Control_c, 0, 64, 127
2, 17272, Note_on_c, 0, 64, 0
2, 17282, Note_on_c, 0, 86, 0
2, 17283, Note_on_c, 0, 53, 0
2, 17315, Note_on_c, 0, 78, 51
2, 17318, Control_c, 0, 64, 0
2, 17319, Note_on_c, 0, 62, 58
2, 17320, Note_on_c, 0, 57, 51
2, 17320, Note_on_c, 0, 58, 45
2, 17322, Note_on_c, 0, 79, 30
2, 17324, Note_on_c, 0, 77, 34
2, 17331, Note_on_c, 0, 78, 0
2, 17334, Note_on_c, 0, 77, 0
2, 17353, Control_c, 0, 64, 127
2, 17384, Note_on_c, 0, 62, 0
2, 17386, Note_on_c, 0, 58, 0
2, 17403, Control_c, 0, 64, 0
2, 17406, Note_on_c, 0, 62, 29
2, 17409, Note_on_c, 0, 74, 40
2, 17428, Note_on_c, 0, 79, 0
2, 17432, Note_on_c, 0, 74, 0
2, 17432, Control_c, 0, 64, 127
2, 17439, Note_on_c, 0, 57, 0
2, 17439, Note_on_c, 0, 58, 1
2, 17442, Note_on_c, 0, 62, 0
2, 17452, Note_on_c, 0, 58, 0
2, 17475, Note_on_c, 0, 77, 59
2, 17476, Note_on_c, 0, 70, 56
2, 17476, Note_on_c, 0, 74, 44
2, 17477, Note_on_c, 0, 67, 48
2, 17477, Note_on_c, 0, 64, 58
2, 17479, Note_on_c, 0, 58, 42
2, 17483, Note_on_c, 0, 67, 0
2, 17485, Note_on_c, 0, 64, 0
2, 17486, Control_c, 0, 64, 0
2, 17488, Note_on_c, 0, 74, 0
2, 17490, Note_on_c, 0, 70, 0
2, 17494, Note_on_c, 0, 77, 0
2, 17494, Note_on_c, 0, 58, 0
2, 17552, Note_on_c, 0, 74, 60
2, 17556, Note_on_c, 0, 70, 38
2, 17556, Note_on_c, 0, 61, 38
2, 17557, Note_on_c, 0, 64, 33
2, 17558, Note_on_c, 0, 68, 31
2, 17581, Control_c, 0, 64, 127
2, 17606, Note_on_c, 0, 68, 0
2, 17606, Note_on_c, 0, 74, 0
2, 17617, Note_on_c, 0, 64, 0
2, 17620, Note_on_c, 0, 70, 0
2, 17630, Note_on_c, 0, 61, 0
2, 17635, Control_c, 0, 64, 0
2, 17636, Note_on_c, 0, 73, 42
2, 17636, Note_on_c, 0, 68, 50
2, 17636, Note_on_c, 0, 64, 38
2, 17637, Note_on_c, 0, 58, 42
2, 17643, Note_on_c, 0, 70, 26
2, 17666, Control_c, 0, 64, 127
2, 17685, Note_on_c, 0, 64, 0
2, 17694, Note_on_c, 0, 73, 0
2, 17696, Note_on_c, 0, 70, 0
2, 17696, Note_on_c, 0, 68, 0
2, 17717, Note_on_c, 0, 58, 0
2, 17721, Note_on_c, 0, 67, 37
2, 17722, Note_on_c, 0, 72, 45
2, 17724, Note_on_c, 0, 62, 31
2, 17725, Note_on_c, 0, 57, 42
2, 17730, Control_c, 0, 64, 0
2, 17784, Control_c, 0, 64, 127
2, 17856, Note_on_c, 0, 57, 0
2, 17867, Note_on_c, 0, 62, 0
2, 17897, Note_on_c, 0, 67, 0
2, 17902, Note_on_c, 0, 72, 0
2, 17955, Control_c, 0, 64, 0
2, 17960, Note_on_c, 0, 53, 43
2, 17960, Note_on_c, 0, 64, 58
2, 17960, Note_on_c, 0, 71, 113
2, 17961, Note_on_c, 0, 60, 58
2, 17962, Note_on_c, 0, 57, 57
2, 17990, Note_on_c, 0, 71, 0
2, 18007, Note_on_c, 0, 69, 57
2, 18033, Note_on_c, 0, 69, 0
2, 18038, Note_on_c, 0, 71, 44
2, 18065, Note_on_c, 0, 71, 0
2, 18075, Note_on_c, 0, 69, 41
2, 18085, Note_on_c, 0, 69, 0
2, 18200, Note_on_c, 0, 71, 110
2, 18207, Note_on_c, 0, 60, 0
2, 18209, Note_on_c, 0, 64, 0
2, 18211, Note_on_c, 0, 57, 0
2, 18221, Note_on_c, 0, 53, 0
2, 18317, Note_on_c, 0, 71, 0
2, 18318, Note_on_c, 0, 62, 40
2, 18319, Note_on_c, 0, 69, 66
2, 18319, Note_on_c, 0, 51, 38
2, 18321, Note_on_c, 0, 57, 39
2, 18484, Control_c, 0, 64, 127
2, 18522, Note_on_c, 0, 69, 0
2, 18538, Note_on_c, 0, 62, 0
2, 18538, Note_on_c, 0, 51, 0
2, 18541, Note_on_c, 0, 57, 0
2, 18552, Control_c, 0, 64, 0
2, 18556, Note_on_c, 0, 62, 60
2, 18557, Note_on_c, 0, 71, 113
2, 18558, Note_on_c, 0, 57, 58
2, 18559, Note_on_c, 0, 51, 55
2, 18595, Control_c, 0, 64, 127
2, 18620, Note_on_c, 0, 57, 0
2, 18625, Note_on_c, 0, 51, 0
2, 18655, Note_on_c, 0, 62, 0
2, 18703, Note_on_c, 0, 71, 0
2, 18713, Control_c, 0, 64, 0
2, 18720, Note_on_c, 0, 70, 57
2, 18721, Note_on_c, 0, 62, 42
2, 18721, Note_on_c, 0, 67, 55
2, 18723, Note_on_c, 0, 56, 42
2, 18768, Control_c, 0, 64, 127
2, 18809, Note_on_c, 0, 70, 0
2, 18813, Note_on_c, 0, 67, 0
2, 18819, Note_on_c, 0, 56, 0
2, 18832, Note_on_c, 0, 62, 0
2, 18909, Note_on_c, 0, 67, 82
2, 18909, Note_on_c, 0, 62, 74
2, 18909, Note_on_c, 0, 56, 74
2, 18910, Note_on_c, 0, 84, 91
2, 18911, Control_c, 0, 64, 0
2, 18911, Note_on_c, 0, 72, 90
2, 18948, Control_c, 0, 64, 127
2, 19024, Note_on_c, 0, 84, 0
2, 19040, Note_on_c, 0, 56, 0
2, 19042, Note_on_c, 0, 67, 0
2, 19047, Note_on_c, 0, 72, 0
2, 19048, Note_on_c, 0, 62, 0
2, 19075, Note_on_c, 0, 82, 56
2, 19075, Note_on_c, 0, 67, 62
2, 19076, Note_on_c, 0, 70, 48
2, 19076, Note_on_c, 0, 56, 48
2, 19077, Note_on_c, 0, 62, 54
2, 19083, Control_c, 0, 64, 0
2, 19086, Note_on_c, 0, 70, 0
2, 19088, Note_on_c, 0, 67, 0
2, 19095, Note_on_c, 0, 62, 0
2, 19097, Note_on_c, 0, 82, 0
2, 19117, Note_on_c, 0, 56, 0
2, 19197, Note_on_c, 0, 61, 49
2, 19199, Note_on_c, 0, 55, 59
2, 19199, Note_on_c, 0, 85, 74
2, 19199, Note_on_c, 0, 65, 62
2, 19200, Note_on_c, 0, 73, 38
2, 19214, Control_c, 0, 64, 127
2, 19304, Note_on_c, 0, 85, 0
2, 19316, Note_on_c, 0, 65, 0
2, 19323, Note_on_c, 0, 73, 0
2, 19329, Note_on_c, 0, 61, 0
2, 19354, Note_on_c, 0, 55, 0
2, 19377, Note_on_c, 0, 61, 48
2, 19384, Note_on_c, 0, 63, 49
2, 19389, Note_on_c, 0, 63, 0
2, 19389, Note_on_c, 0, 62, 65
2, 19391, Note_on_c, 0, 73, 68
2, 19392, Note_on_c, 0, 61, 0
2, 19392, Note_on_c, 0, 81, 81
2, 19392, Note_on_c, 0, 76, 68
2, 19392, Note_on_c, 0, 70, 81
2, 19397, Note_on_c, 0, 64, 75
2, 19398, Note_on_c, 0, 79, 39
2, 19402, Control_c, 0, 64, 0
2, 19404, Note_on_c, 0, 62, 0
2, 19431, Control_c, 0, 64, 127
2, 19448, Note_on_c, 0, 81, 0
2, 19448, Note_on_c, 0, 79, 0
2, 19457, Note_on_c, 0, 76, 0
2, 19465, Note_on_c, 0, 73, 0
2, 19468, Note_on_c, 0, 70, 0
2, 19504, Control_c, 0, 64, 0
2, 19509, Note_on_c, 0, 64, 0
2, 19514, Note_on_c, 0, 76, 57
2, 19515, Note_on_c, 0, 70, 64
2, 19516, Note_on_c, 0, 73, 38
2, 19516, Note_on_c, 0, 61, 53
2, 19519, Note_on_c, 0, 67, 58
2, 19525, Control_c, 0, 64, 127
2, 19598, Note_on_c, 0, 67, 0
2, 19600, Note_on_c, 0, 70, 0
2, 19601, Note_on_c, 0, 73, 0
2, 19606, Note_on_c, 0, 76, 0
2, 19614, Note_on_c, 0, 73, 35
2, 19615, Note_on_c, 0, 61, 0
2, 19619, Note_on_c, 0, 58, 34
2, 19629, Note_on_c, 0, 58, 0
2, 19629, Note_on_c, 0, 73, 0
2, 19648, Note_on_c, 0, 73, 38
2, 19648, Note_on_c, 0, 61, 56
2, 19649, Note_on_c, 0, 70, 54
2, 19650, Note_on_c, 0, 76, 54
2, 19650, Note_on_c, 0, 67, 56
2, 19666, Note_on_c, 0, 67, 0
2, 19674, Note_on_c, 0, 76, 0
2, 19677, Note_on_c, 0, 70, 0
2, 19680, Note_on_c, 0, 61, 0
2, 19681, Note_on_c, 0, 73, 0
2, 19688, Note_on_c, 0, 76, 43
2, 19689, Note_on_c, 0, 64, 60
2, 19691, Control_c, 0, 64, 0
2, 19691, Note_on_c, 0, 65, 54
2, 19691, Note_on_c, 0, 69, 53
2, 19692, Note_on_c, 0, 72, 48
2, 19697, Note_on_c, 0, 65, 0
2, 19697, Note_on_c, 0, 64, 0
2, 19699, Note_on_c, 0, 72, 0
2, 19702, Note_on_c, 0, 69, 0
2, 19704, Note_on_c, 0, 76, 0
2, 19766, Note_on_c, 0, 62, 79
2, 19767, Note_on_c, 0, 72, 74
2, 19767, Note_on_c, 0, 65, 74
2, 19767, Note_on_c, 0, 60, 78
2, 19767, Note_on_c, 0, 69, 64
2, 19808, Control_c, 0, 64, 127
2, 19843, Note_on_c, 0, 69, 0
2, 19845, Note_on_c, 0, 72, 0
2, 19849, Note_on_c, 0, 65, 0
2, 19855, Note_on_c, 0, 62, 0
2, 19856, Note_on_c, 0, 60, 0
2, 19874, Control_c, 0, 64, 0
2, 19881, Note_on_c, 0, 69, 68
2, 19881, Note_on_c, 0, 57, 72
2, 19883, Note_on_c, 0, 62, 71
2, 19884, Note_on_c, 0, 60, 68
2, 19884, Note_on_c, 0, 65, 55
2, 19889, Note_on_c, 0, 64, 27
2, 19894, Control_c, 0, 64, 127
2, 19895, Note_on_c, 0, 64, 0
2, 19904, Note_on_c, 0, 57, 0
2, 19905, Note_on_c, 0, 65, 0
2, 19907, Note_on_c, 0, 69, 0
2, 19908, Note_on_c, 0, 62, 0
2, 19909, Note_on_c, 0, 60, 0
2, 19930, Note_on_c, 0, 65, 57
2, 19931, Control_c, 0, 64, 0
2, 19932, Note_on_c, 0, 62, 33
2, 19934, Note_on_c, 0, 53, 46
2, 19934, Note_on_c, 0, 60, 38
2, 19938, Note_on_c, 0, 57, 19
2, 19981, Note_on_c, 0, 60, 0
2, 19983, Note_on_c, 0, 57, 0
2, 19988, Note_on_c, 0, 65, 0
2, 19989, Note_on_c, 0, 53, 0
2, 19992, Note_on_c, 0, 62, 0
2, 20002, Note_on_c, 0, 43, 45
2, 20004, Note_on_c, 0, 64, 50
2, 20004, Note_on_c, 0, 60, 40
2, 20006, Note_on_c, 0, 57, 28
2, 20018, Note_on_c, 0, 60, 0
2, 20020, Control_c, 0, 64, 127
2, 20023, Note_on_c, 0, 57, 0
2, 20036, Note_on_c, 0, 64, 0
2, 20040, Control_c, 0, 64, 0
2, 20044, Note_on_c, 0, 62, 33
2, 20048, Note_on_c, 0, 59, 41
2, 20049, Note_on_c, 0, 57, 22
2, 20052, Note_on_c, 0, 52, 29
2, 20088, Note_on_c, 0, 43, 0
2, 20103, Note_on_c, 0, 59, 0
2, 20104, Note_on_c, 0, 52, 0
2, 20111, Note_on_c, 0, 62, 0
2, 20112, Note_on_c, 0, 57, 0
2, 20125, Note_on_c, 0, 51, 29
2, 20129, Control_c, 0, 64, 127
2, 20132, Control_c, 0, 64, 0
2, 20145, Note_on_c, 0, 51, 0
2, 20160, Note_on_c, 0, 62, 46
2, 20161, Note_on_c, 0, 52, 43
2, 20162, Note_on_c, 0, 67, 39
2, 20162, Note_on_c, 0, 55, 43
2, 20180, Note_on_c, 0, 55, 0
2, 20181, Note_on_c, 0, 52, 0
2, 20194, Note_on_c, 0, 62, 0
2, 20195, Note_on_c, 0, 67, 0
2, 20244, Note_on_c, 0, 59, 47
2, 20244, Note_on_c, 0, 71, 52
2, 20244, Note_on_c, 0, 62, 44
2, 20244, Note_on_c, 0, 64, 56
2, 20246, Note_on_c, 0, 67, 45
2, 20251, Note_on_c, 0, 62, 0
2, 20252, Note_on_c, 0, 64, 0
2, 20253, Note_on_c, 0, 67, 0
2, 20253, Note_on_c, 0, 59, 0
2, 20258, Note_on_c, 0, 71, 0
2, 20401, Note_on_c, 0, 65, 50
2, 20402, Note_on_c, 0, 69, 45
2, 20402, Note_on_c, 0, 61, 21
2, 20403, Note_on_c, 0, 45, 42
2, 20404, Note_on_c, 0, 55, 36
2, 20408, Note_on_c, 0, 65, 0
2, 20412, Note_on_c, 0, 45, 0
2, 20414, Note_on_c, 0, 69, 0
2, 20414, Note_on_c, 0, 61, 0
2, 20417, Note_on_c, 0, 55, 0
2, 20469, Control_c, 0, 64, 127
2, 20504, Control_c, 0, 64, 0
2, 20514, Note_on_c, 0, 61, 36
2, 20516, Note_on_c, 0, 65, 54
2, 20517, Note_on_c, 0, 55, 36
2, 20518, Note_on_c, 0, 58, 39
2, 20539, Control_c, 0, 64, 127
2, 20592, Note_on_c, 0, 65, 0
2, 20600, Note_on_c, 0, 55, 0
2, 20603, Note_on_c, 0, 61, 0
2, 20604, Note_on_c, 0, 58, 0
2, 20636, Control_c, 0, 64, 0
2, 20638, Note_on_c, 0, 65, 64
2, 20639, Note_on_c, 0, 81, 73
2, 20640, Note_on_c, 0, 57, 54
2, 20640, Note_on_c, 0, 77, 62
2, 20640, Note_on_c, 0, 69, 74
2, 20643, Note_on_c, 0, 60, 57
2, 20687, Note_on_c, 0, 81, 0
2, 20688, Note_on_c, 0, 77, 0
2, 20691, Note_on_c, 0, 69, 0
2, 20704, Note_on_c, 0, 65, 0
2, 20705, Note_on_c, 0, 60, 0
2, 20710, Note_on_c, 0, 57, 0
2, 20723, Note_on_c, 0, 79, 33
2, 20726, Control_c, 0, 64, 127
2, 20740, Note_on_c, 0, 79, 0
2, 20759, Note_on_c, 0, 65, 59
2, 20759, Note_on_c, 0, 57, 55
2, 20760, Control_c, 0, 64, 0
2, 20760, Note_on_c, 0, 81, 68
2, 20761, Note_on_c, 0, 77, 56
2, 20762, Note_on_c, 0, 69, 60
2, 20763, Note_on_c, 0, 60, 53
2, 20779, Control_c, 0, 64, 127
2, 20800, Note_on_c, 0, 77, 0
2, 20800, Note_on_c, 0, 81, 0
2, 20807, Note_on_c, 0, 69, 0
2, 20817, Note_on_c, 0, 57, 0
2, 20821, Note_on_c, 0, 65, 0
2, 20822, Note_on_c, 0, 60, 0
2, 20843, Note_on_c, 0, 55, 41
2, 20844, Note_on_c, 0, 79, 22
2, 20844, Note_on_c, 0, 67, 32
2, 20852, Note_on_c, 0, 67, 0
2, 20852, Note_on_c, 0, 55, 0
2, 20856, Note_on_c, 0, 79, 0
2, 20875, Control_c, 0, 64, 0
2, 20878, Note_on_c, 0, 64, 47
2, 20879, Note_on_c, 0, 59, 44
2, 20881, Note_on_c, 0, 69, 57
2, 20881, Note_on_c, 0, 81, 52
2, 20883, Note_on_c, 0, 77, 41
2, 20883, Note_on_c, 0, 53, 39
2, 20914, Control_c, 0, 64, 127
2, 20922, Note_on_c, 0, 81, 0
2, 20930, Note_on_c, 0, 69, 0
2, 20934, Note_on_c, 0, 77, 0
2, 20938, Note_on_c, 0, 53, 0
2, 20949, Note_on_c, 0, 64, 0
2, 20949, Note_on_c, 0, 59, 0
2, 20959, Note_on_c, 0, 79, 33
2, 20960, Note_on_c, 0, 67, 33
2, 20961, Note_on_c, 0, 59, 34
2, 20965, Note_on_c, 0, 67, 0
2, 20970, Note_on_c, 0, 79, 0
2, 20984, Note_on_c, 0, 59, 0
2, 20996, Note_on_c, 0, 82, 71
2, 20997, Note_on_c, 0, 59, 69
2, 20997, Note_on_c, 0, 70, 80
2, 20997, Control_c, 0, 64, 0
2, 20999, Note_on_c, 0, 78, 55
2, 20999, Note_on_c, 0, 64, 73
2, 20999, Note_on_c, 0, 53, 74
2, 21003, Note_on_c, 0, 80, 35
2, 21025, Note_on_c, 0, 80, 0
2, 21028, Note_on_c, 0, 78, 0
2, 21029, Note_on_c, 0, 83, 63
2, 21031, Note_on_c, 0, 70, 0
2, 21034, Note_on_c, 0, 82, 0
2, 21049, Note_on_c, 0, 83, 0
2, 21050, Note_on_c, 0, 59, 0
2, 21053, Note_on_c, 0, 64, 0
2, 21057, Note_on_c, 0, 53, 0
2, 21060, Control_c, 0, 64, 127
2, 21074, Note_on_c, 0, 62, 68
2, 21074, Note_on_c, 0, 81, 65
2, 21075, Control_c, 0, 64, 0
2, 21075, Note_on_c, 0, 57, 58
2, 21076, Note_on_c, 0, 58, 51
2, 21076, Note_on_c, 0, 69, 70
2, 21078, Note_on_c, 0, 52, 65
2, 21140, Control_c, 0, 64, 127
2, 21251, Note_on_c, 0, 52, 0
2, 21255, Note_on_c, 0, 57, 0
2, 21264, Note_on_c, 0, 58, 0
2, 21267, Note_on_c, 0, 62, 0
2, 21319, Note_on_c, 0, 58, 38
2, 21320, Note_on_c, 0, 65, 66
2, 21323, Note_on_c, 0, 61, 48
2, 21323, Note_on_c, 0, 55, 47
2, 21331, Control_c, 0, 64, 0
2, 21360, Control_c, 0, 64, 127
2, 21364, Note_on_c, 0, 81, 0
2, 21409, Note_on_c, 0, 69, 0
2, 21444, Note_on_c, 0, 68, 88
2, 21475, Note_on_c, 0, 68, 0
2, 21476, Control_c, 0, 64, 0
2, 21489, Note_on_c, 0, 69, 37
2, 21511, Note_on_c, 0, 69, 0
2, 21522, Note_on_c, 0, 72, 47
2, 21538, Note_on_c, 0, 72, 0
2, 21557, Note_on_c, 0, 76, 81
2, 21565, Control_c, 0, 64, 127
2, 21580, Note_on_c, 0, 76, 0
2, 21584, Note_on_c, 0, 65, 0
2, 21590, Control_c, 0, 64, 0
2, 21594, Note_on_c, 0, 61, 0
2, 21598, Note_on_c, 0, 55, 0
2, 21598, Note_on_c, 0, 58, 0
2, 21670, Note_on_c, 0, 69, 64
2, 21671, Note_on_c, 0, 72, 71
2, 21673, Note_on_c, 0, 62, 71
2, 21673, Note_on_c, 0, 57, 69
2, 21673, Note_on_c, 0, 65, 76
2, 21676, Note_on_c, 0, 55, 62
2, 21681, Note_on_c, 0, 55, 0
2, 21726, Control_c, 0, 64, 127
2, 21769, Note_on_c, 0, 69, 0
2, 21772, Note_on_c, 0, 72, 0
2, 21777, Note_on_c, 0, 65, 0
2, 21795, Note_on_c, 0, 62, 0
2, 21833, Note_on_c, 0, 57, 0
2, 21840, Note_on_c, 0, 69, 62
2, 21841, Control_c, 0, 64, 0
2, 21842, Note_on_c, 0, 62, 57
2, 21843, Note_on_c, 0, 60, 53
2, 21846, Note_on_c, 0, 53, 34
2, 21848, Note_on_c, 0, 60, 0
2, 21853, Note_on_c, 0, 62, 0
2, 21854, Note_on_c, 0, 69, 0
2, 21855, Note_on_c, 0, 53, 0
2, 21920, Note_on_c, 0, 65, 63
2, 21920, Note_on_c, 0, 60, 58
2, 21921, Note_on_c, 0, 50, 46
2, 21922, Control_c, 0, 64, 127
2, 21924, Note_on_c, 0, 57, 24
2, 21938, Note_on_c, 0, 57, 0
2, 21944, Note_on_c, 0, 60, 0
2, 21954, Note_on_c, 0, 65, 0
2, 21963, Note_on_c, 0, 62, 44
2, 21968, Note_on_c, 0, 57, 33
2, 21986, Note_on_c, 0, 50, 0
2, 22011, Note_on_c, 0, 62, 0
2, 22024, Note_on_c, 0, 57, 0
2, 22045, Note_on_c, 0, 50, 37
2, 22061, Note_on_c, 0, 50, 0
2, 22076, Control_c, 0, 64, 0
2, 22083, Note_on_c, 0, 43, 40
2, 22083, Note_on_c, 0, 57, 44
2, 22086, Note_on_c, 0, 53, 18
2, 22122, Note_on_c, 0, 53, 0
2, 22166, Note_on_c, 0, 57, 0
2, 22166, Control_c, 0, 64, 127
2, 22194, Control_c, 0, 64, 0
2, 22198, Note_on_c, 0, 55, 53
2, 22199, Note_on_c, 0, 60, 62
2, 22199, Note_on_c, 0, 57, 49
2, 22210, Note_on_c, 0, 55, 0
2, 22225, Note_on_c, 0, 43, 0
2, 22245, Note_on_c, 0, 60, 0
2, 22245, Note_on_c, 0, 57, 0
2, 22276, Control_c, 0, 64, 127
2, 22279, Note_on_c, 0, 43, 37
2, 22285, Note_on_c, 0, 43, 0
2, 22291, Control_c, 0, 64, 0
2, 22312, Note_on_c, 0, 59, 44
2, 22313, Note_on_c, 0, 64, 47
2, 22314, Note_on_c, 0, 56, 45
2, 22316, Note_on_c, 0, 53, 40
2, 22323, Control_c, 0, 64, 127
2, 22343, Note_on_c, 0, 59, 0
2, 22348, Note_on_c, 0, 56, 0
2, 22350, Note_on_c, 0, 64, 0
2, 22365, Note_on_c, 0, 53, 0
2, 22430, Note_on_c, 0, 67, 26
2, 22448, Note_on_c, 0, 67, 0
2, 22548, Note_on_c, 0, 74, 118
2, 22549, Control_c, 0, 64, 0
2, 22550, Note_on_c, 0, 67, 72
2, 22550, Note_on_c, 0, 62, 62
2, 22550, Note_on_c, 0, 64, 66
2, 22632, Note_on_c, 0, 74, 0
2, 22636, Note_on_c, 0, 71, 25
2, 22657, Note_on_c, 0, 71, 0
2, 22669, Note_on_c, 0, 72, 49
2, 22746, Note_on_c, 0, 72, 0
2, 22754, Note_on_c, 0, 74, 66
2, 22764, Note_on_c, 0, 67, 0
2, 22776, Note_on_c, 0, 74, 0
2, 22796, Note_on_c, 0, 64, 0
2, 22798, Note_on_c, 0, 62, 0
2, 22798, Note_on_c, 0, 70, 50
2, 22805, Note_on_c, 0, 71, 54
2, 22812, Note_on_c, 0, 70, 0
2, 22827, Note_on_c, 0, 71, 0
2, 22877, Note_on_c, 0, 67, 49
2, 22911, Note_on_c, 0, 67, 0
2, 22923, Note_on_c, 0, 69, 64
2, 23000, Note_on_c, 0, 64, 44
2, 23021, Note_on_c, 0, 69, 0
2, 23229, Note_on_c, 0, 64, 0
2, 23240, Note_on_c, 0, 67, 64
2, 23266, Note_on_c, 0, 67, 0
2, 23406, Note_on_c, 0, 73, 71
2, 23427, Note_on_c, 0, 73, 0
2, 23438, Note_on_c, 0, 76, 68
2, 23453, Note_on_c, 0, 76, 0
2, 23465, Note_on_c, 0, 79, 90
2, 23486, Note_on_c, 0, 79, 0
2, 23497, Note_on_c, 0, 77, 66
2, 23518, Note_on_c, 0, 77, 0
2, 23525, Note_on_c, 0, 60, 27
2, 23527, Note_on_c, 0, 73, 33
2, 23527, Note_on_c, 0, 57, 29
2, 23528, Note_on_c, 0, 50, 24
2, 23550, Note_on_c, 0, 73, 0
2, 23558, Note_on_c, 0, 76, 49
2, 23581, Note_on_c, 0, 76, 0
2, 23584, Note_on_c, 0, 74, 30
2, 23610, Note_on_c, 0, 74, 0
2, 23616, Note_on_c, 0, 69, 46
2, 23623, Note_on_c, 0, 69, 0
2, 23638, Note_on_c, 0, 72, 85
2, 23664, Note_on_c, 0, 72, 0
2, 23676, Note_on_c, 0, 74, 48
2, 23684, Note_on_c, 0, 72, 36
2, 23693, Note_on_c, 0, 74, 0
2, 23702, Note_on_c, 0, 72, 0
2, 23705, Note_on_c, 0, 69, 44
2, 23725, Note_on_c, 0, 57, 0
2, 23728, Note_on_c, 0, 69, 0
2, 23729, Note_on_c, 0, 50, 0
2, 23734, Note_on_c, 0, 70, 61
2, 23745, Note_on_c, 0, 60, 0
2, 23753, Note_on_c, 0, 70, 0
2, 23763, Note_on_c, 0, 71, 40
2, 23789, Note_on_c, 0, 71, 0
2, 23799, Note_on_c, 0, 83, 54
2, 23814, Note_on_c, 0, 83, 0
2, 23870, Note_on_c, 0, 64, 35
2, 23871, Note_on_c, 0, 59, 36
2, 23877, Note_on_c, 0, 53, 18
2, 23958, Note_on_c, 0, 59, 0
2, 23966, Note_on_c, 0, 64, 0
2, 23972, Note_on_c, 0, 53, 0
2, 24000, Note_on_c, 0, 62, 40
2, 24008, Note_on_c, 0, 52, 28
2, 24012, Note_on_c, 0, 57, 24
2, 24037, Note_on_c, 0, 57, 0
2, 24041, Note_on_c, 0, 52, 0
2, 24045, Note_on_c, 0, 62, 0
2, 24246, Note_on_c, 0, 61, 33
2, 24247, Note_on_c, 0, 65, 49
2, 24249, Note_on_c, 0, 55, 44
2, 24249, Note_on_c, 0, 60, 33
2, 24259, Note_on_c, 0, 60, 0
2, 24261, Note_on_c, 0, 65, 0
2, 24263, Note_on_c, 0, 55, 0
2, 24264, Note_on_c, 0, 61, 0
2, 24319, Note_on_c, 0, 84, 105
2, 24356, Note_on_c, 0, 84, 0
2, 24368, Note_on_c, 0, 83, 61
2, 24424, Note_on_c, 0, 83, 0
2, 24450, Note_on_c, 0, 60, 55
2, 24452, Note_on_c, 0, 82, 86
2, 24456, Note_on_c, 0, 60, 0
2, 24456, Note_on_c, 0, 57, 24
2, 24462, Note_on_c, 0, 57, 0
2, 24498, Note_on_c, 0, 82, 0
2, 24513, Note_on_c, 0, 80, 44
2, 24554, Note_on_c, 0, 80, 0
2, 24568, Note_on_c, 0, 81, 75
2, 24600, Note_on_c, 0, 81, 0
2, 24611, Note_on_c, 0, 76, 35
2, 24672, Note_on_c, 0, 76, 0
2, 24681, Note_on_c, 0, 79, 74
2, 24685, Note_on_c, 0, 64, 41
2, 24685, Note_on_c, 0, 60, 49
2, 24686, Note_on_c, 0, 53, 36
2, 24687, Note_on_c, 0, 57, 48
2, 24692, Note_on_c, 0, 64, 0
2, 24694, Note_on_c, 0, 53, 0
2, 24707, Note_on_c, 0, 79, 0
2, 24707, Note_on_c, 0, 60, 0
2, 24711, Note_on_c, 0, 57, 0
2, 24723, Note_on_c, 0, 77, 62
2, 24790, Note_on_c, 0, 77, 0
2, 24799, Control_c, 0, 64, 127
2, 24799, Note_on_c, 0, 73, 34
2, 24824, Note_on_c, 0, 73, 0
2, 24829, Control_c, 0, 64, 0
2, 24836, Note_on_c, 0, 76, 75
2, 24901, Note_on_c, 0, 76, 0
2, 24913, Note_on_c, 0, 74, 68
2, 24914, Note_on_c, 0, 64, 55
2, 24915, Note_on_c, 0, 59, 44
2, 24919, Note_on_c, 0, 53, 26
2, 24930, Note_on_c, 0, 59, 0
2, 24930, Note_on_c, 0, 64, 0
2, 24934, Note_on_c, 0, 53, 0
2, 24965, Note_on_c, 0, 74, 0
2, 24997, Note_on_c, 0, 62, 46
2, 24999, Note_on_c, 0, 57, 50
2, 24999, Note_on_c, 0, 52, 51
2, 25004, Note_on_c, 0, 71, 65
2, 25062, Note_on_c, 0, 62, 0
2, 25064, Note_on_c, 0, 52, 0
2, 25067, Note_on_c, 0, 57, 0
2, 25068, Note_on_c, 0, 71, 0
2, 25083, Note_on_c, 0, 62, 31
2, 25085, Note_on_c, 0, 57, 50
2, 25086, Note_on_c, 0, 52, 40
2, 25086, Note_on_c, 0, 67, 53
2, 25123, Note_on_c, 0, 57, 0
2, 25124, Note_on_c, 0, 52, 0
2, 25133, Note_on_c, 0, 62, 0
2, 25144, Control_c, 0, 64, 127
2, 25145, Note_on_c, 0, 67, 0
2, 25160, Note_on_c, 0, 67, 63
2, 25161, Note_on_c, 0, 61, 42
2, 25162, Note_on_c, 0, 55, 64
2, 25162, Note_on_c, 0, 65, 65
2, 25165, Note_on_c, 0, 60, 42
2, 25166, Note_on_c, 0, 59, 38
2, 25168, Control_c, 0, 64, 0
2, 25198, Note_on_c, 0, 59, 0
2, 25232, Control_c, 0, 64, 127
2, 25282, Note_on_c, 0, 68, 53
2, 25295, Note_on_c, 0, 67, 0
2, 25296, Note_on_c, 0, 65, 0
2, 25311, Note_on_c, 0, 68, 0
2, 25314, Note_on_c, 0, 65, 18
2, 25322, Control_c, 0, 64, 0
2, 25327, Note_on_c, 0, 69, 37
2, 25343, Note_on_c, 0, 60, 0
2, 25345, Note_on_c, 0, 65, 0
2, 25350, Note_on_c, 0, 69, 0
2, 25359, Note_on_c, 0, 72, 46
2, 25361, Note_on_c, 0, 61, 0
2, 25363, Note_on_c, 0, 55, 0
2, 25376, Note_on_c, 0, 72, 0
2, 25396, Note_on_c, 0, 76, 82
2, 25407, Control_c, 0, 64, 127
2, 25427, Note_on_c, 0, 76, 0
2, 25431, Control_c, 0, 64, 0
2, 25436, Note_on_c, 0, 64, 48
2, 25437, Note_on_c, 0, 79, 80
2, 25439, Note_on_c, 0, 60, 47
2, 25441, Note_on_c, 0, 53, 33
2, 25441, Note_on_c, 0, 57, 38
2, 25465, Note_on_c, 0, 53, 0
2, 25465, Note_on_c, 0, 64, 0
2, 25468, Note_on_c, 0, 79, 0
2, 25469, Note_on_c, 0, 60, 0
2, 25470, Note_on_c, 0, 57, 0
2, 25480, Note_on_c, 0, 77, 56
2, 25503, Note_on_c, 0, 77, 0
2, 25510, Note_on_c, 0, 73, 37
2, 25535, Note_on_c, 0, 73, 0
2, 25540, Note_on_c, 0, 76, 68
2, 25568, Note_on_c, 0, 76, 0
2, 25570, Note_on_c, 0, 74, 40
2, 25594, Note_on_c, 0, 74, 0
2, 25601, Note_on_c, 0, 69, 44
2, 25611, Note_on_c, 0, 69, 0
2, 25625, Note_on_c, 0, 72, 70
2, 25645, Note_on_c, 0, 72, 0
2, 25658, Note_on_c, 0, 74, 27
2, 25660, Note_on_c, 0, 72, 50
2, 25668, Note_on_c, 0, 74, 0
2, 25683, Note_on_c, 0, 72, 0
2, 25683, Note_on_c, 0, 69, 37
2, 25714, Note_on_c, 0, 69, 0
2, 25720, Note_on_c, 0, 70, 62
2, 25738, Note_on_c, 0, 70, 0
2, 25751, Note_on_c, 0, 71, 35
2, 25768, Note_on_c, 0, 71, 0
2, 25804, Note_on_c, 0, 59, 36
2, 25804, Note_on_c, 0, 64, 43
2, 25808, Note_on_c, 0, 53, 38
2, 25813, Note_on_c, 0, 88, 87
2, 25818, Note_on_c, 0, 86, 29
2, 25829, Note_on_c, 0, 88, 0
2, 25848, Note_on_c, 0, 86, 0
2, 25861, Note_on_c, 0, 64, 0
2, 25864, Note_on_c, 0, 53, 0
2, 25871, Note_on_c, 0, 84, 68
2, 25872, Note_on_c, 0, 59, 0
2, 25902, Note_on_c, 0, 84, 0
2, 25914, Note_on_c, 0, 59, 32
2, 25915, Note_on_c, 0, 62, 34
2, 25915, Note_on_c, 0, 52, 34
2, 25916, Note_on_c, 0, 55, 32
2, 25917, Note_on_c, 0, 82, 57
2, 25927, Note_on_c, 0, 83, 60
2, 25933, Note_on_c, 0, 82, 0
2, 25944, Note_on_c, 0, 83, 0
2, 25968, Note_on_c, 0, 78, 51
2, 25977, Note_on_c, 0, 79, 53
2, 25982, Note_on_c, 0, 78, 0
2, 25997, Note_on_c, 0, 79, 0
2, 26040, Note_on_c, 0, 76, 52
2, 26063, Note_on_c, 0, 76, 0
2, 26093, Control_c, 0, 64, 127
2, 26127, Note_on_c, 0, 71, 62
2, 26132, Note_on_c, 0, 73, 27
2, 26138, Control_c, 0, 64, 0
2, 26145, Note_on_c, 0, 73, 0
2, 26175, Control_c, 0, 64, 127
2, 26190, Note_on_c, 0, 62, 0
2, 26191, Note_on_c, 0, 55, 0
2, 26193, Note_on_c, 0, 59, 0
2, 26206, Note_on_c, 0, 52, 0
2, 26241, Note_on_c, 0, 62, 48
2, 26244, Note_on_c, 0, 59, 37
2, 26245, Note_on_c, 0, 55, 39
2, 26250, Note_on_c, 0, 62, 0
2, 26256, Note_on_c, 0, 59, 0
2, 26262, Note_on_c, 0, 55, 0
2, 26280, Control_c, 0, 64, 0
2, 26300, Control_c, 0, 64, 127
2, 26361, Note_on_c, 0, 71, 0
2, 26363, Note_on_c, 0, 69, 44
2, 26395, Note_on_c, 0, 69, 0
2, 26404, Note_on_c, 0, 62, 37
2, 26405, Control_c, 0, 64, 0
2, 26405, Note_on_c, 0, 56, 34
2, 26408, Note_on_c, 0, 52, 40
2, 26409, Note_on_c, 0, 68, 37
2, 26483, Note_on_c, 0, 64, 28
2, 26514, Control_c, 0, 64, 127
2, 26549, Note_on_c, 0, 68, 0
2, 26568, Note_on_c, 0, 64, 0
2, 26639, Control_c, 0, 64, 0
2, 26644, Note_on_c, 0, 67, 83
2, 26667, Note_on_c, 0, 67, 0
2, 26676, Note_on_c, 0, 72, 45
2, 26678, Note_on_c, 0, 71, 41
2, 26683, Note_on_c, 0, 52, 0
2, 26684, Note_on_c, 0, 71, 0
2, 26685, Note_on_c, 0, 56, 0
2, 26690, Note_on_c, 0, 72, 0
2, 26703, Note_on_c, 0, 77, 56
2, 26709, Note_on_c, 0, 62, 0
2, 26711, Control_c, 0, 64, 127
2, 26727, Note_on_c, 0, 77, 0
2, 26734, Note_on_c, 0, 79, 64
2, 26745, Control_c, 0, 64, 0
2, 26748, Note_on_c, 0, 79, 0
2, 26761, Note_on_c, 0, 84, 77
2, 26785, Note_on_c, 0, 84, 0
2, 26794, Note_on_c, 0, 89, 58
2, 26797, Note_on_c, 0, 88, 45
2, 26804, Note_on_c, 0, 88, 0
2, 26812, Note_on_c, 0, 89, 0
2, 26818, Note_on_c, 0, 91, 83
2, 26849, Note_on_c, 0, 91, 0
2, 26849, Note_on_c, 0, 89, 69
2, 26863, Note_on_c, 0, 89, 0
2, 26877, Note_on_c, 0, 67, 38
2, 26880, Note_on_c, 0, 56, 33
2, 26881, Note_on_c, 0, 62, 39
2, 27075, Control_c, 0, 64, 127
2, 27097, Note_on_c, 0, 67, 0
2, 27099, Note_on_c, 0, 56, 0
2, 27108, Note_on_c, 0, 62, 0
2, 27116, Control_c, 0, 64, 0
2, 27118, Note_on_c, 0, 56, 33
2, 27120, Note_on_c, 0, 62, 24
2, 27121, Note_on_c, 0, 65, 48
2, 27157, Control_c, 0, 64, 127
2, 27234, Control_c, 0, 64, 0
2, 27241, Note_on_c, 0, 82, 93
2, 27255, Note_on_c, 0, 65, 0
2, 27256, Note_on_c, 0, 62, 0
2, 27272, Note_on_c, 0, 82, 0
2, 27276, Note_on_c, 0, 56, 0
2, 27280, Note_on_c, 0, 80, 62
2, 27302, Note_on_c, 0, 80, 0
2, 27302, Control_c, 0, 64, 127
2, 27342, Control_c, 0, 64, 0
2, 27358, Note_on_c, 0, 64, 48
2, 27360, Note_on_c, 0, 60, 51
2, 27360, Note_on_c, 0, 57, 50
2, 27362, Note_on_c, 0, 53, 36
2, 27366, Note_on_c, 0, 76, 32
2, 27390, Note_on_c, 0, 76, 0
2, 27403, Note_on_c, 0, 79, 81
2, 27430, Note_on_c, 0, 79, 0
2, 27440, Note_on_c, 0, 77, 77
2, 27445, Note_on_c, 0, 79, 26
2, 27451, Note_on_c, 0, 79, 0
2, 27465, Note_on_c, 0, 77, 0
2, 27485, Note_on_c, 0, 73, 25
2, 27512, Note_on_c, 0, 73, 0
2, 27519, Note_on_c, 0, 76, 68
2, 27549, Note_on_c, 0, 76, 0
2, 27560, Note_on_c, 0, 74, 68
2, 27564, Note_on_c, 0, 76, 30
2, 27582, Note_on_c, 0, 76, 0
2, 27587, Note_on_c, 0, 74, 0
2, 27592, Note_on_c, 0, 64, 0
2, 27612, Note_on_c, 0, 60, 0
2, 27626, Note_on_c, 0, 71, 58
2, 27628, Note_on_c, 0, 57, 0
2, 27628, Note_on_c, 0, 53, 0
2, 27660, Note_on_c, 0, 71, 0
2, 27683, Note_on_c, 0, 72, 89
2, 27686, Note_on_c, 0, 64, 62
2, 27689, Note_on_c, 0, 59, 53
2, 27693, Note_on_c, 0, 53, 35
2, 27712, Note_on_c, 0, 72, 0
2, 27738, Note_on_c, 0, 74, 89
2, 27760, Note_on_c, 0, 74, 0
2, 27772, Note_on_c, 0, 64, 0
2, 27773, Note_on_c, 0, 71, 71
2, 27780, Note_on_c, 0, 59, 0
2, 27791, Note_on_c, 0, 71, 0
2, 27792, Note_on_c, 0, 53, 0
2, 27802, Note_on_c, 0, 67, 49
2, 27826, Note_on_c, 0, 67, 0
2, 27836, Note_on_c, 0, 64, 33
2, 27846, Note_on_c, 0, 64, 0
2, 27858, Note_on_c, 0, 62, 56
2, 27860, Note_on_c, 0, 67, 62
2, 27860, Note_on_c, 0, 56, 37
2, 27861, Note_on_c, 0, 52, 38
2, 27972, Control_c, 0, 64, 127
2, 27979, Note_on_c, 0, 52, 0
2, 27985, Note_on_c, 0, 56, 0
2, 27989, Note_on_c, 0, 62, 0
2, 28035, Note_on_c, 0, 67, 0
2, 28080, Note_on_c, 0, 65, 45
2, 28080, Note_on_c, 0, 55, 48
2, 28081, Note_on_c, 0, 61, 35
2, 28081, Control_c, 0, 64, 0
2, 28083, Note_on_c, 0, 60, 45
2, 28125, Note_on_c, 0, 84, 90
2, 28126, Note_on_c, 0, 72, 91
2, 28152, Note_on_c, 0, 84, 0
2, 28157, Note_on_c, 0, 72, 0
2, 28168, Note_on_c, 0, 61, 0
2, 28168, Note_on_c, 0, 60, 0
2, 28171, Note_on_c, 0, 65, 0
2, 28172, Note_on_c, 0, 81, 28
2, 28173, Note_on_c, 0, 55, 0
2, 28181, Note_on_c, 0, 81, 0
2, 28205, Note_on_c, 0, 65, 58
2, 28206, Note_on_c, 0, 61, 39
2, 28206, Note_on_c, 0, 55, 42
2, 28206, Note_on_c, 0, 60, 46
2, 28206, Note_on_c, 0, 84, 87
2, 28207, Note_on_c, 0, 72, 87
2, 28238, Note_on_c, 0, 72, 0
2, 28241, Note_on_c, 0, 84, 0
2, 28245, Note_on_c, 0, 60, 0
2, 28251, Note_on_c, 0, 65, 0
2, 28254, Note_on_c, 0, 81, 33
2, 28258, Note_on_c, 0, 55, 0
2, 28262, Note_on_c, 0, 81, 0
2, 28271, Note_on_c, 0, 61, 0
2, 28288, Note_on_c, 0, 84, 88
2, 28289, Note_on_c, 0, 60, 52
2, 28290, Note_on_c, 0, 64, 52
2, 28290, Note_on_c, 0, 72, 84
2, 28290, Note_on_c, 0, 57, 58
2, 28291, Note_on_c, 0, 53, 36
2, 28292, Note_on_c, 0, 74, 61
2, 28298, Note_on_c, 0, 74, 0
2, 28343, Control_c, 0, 64, 127
2, 28420, Note_on_c, 0, 72, 0
2, 28428, Control_c, 0, 64, 0
2, 28442, Note_on_c, 0, 84, 0
2, 28448, Note_on_c, 0, 81, 49
2, 28448, Note_on_c, 0, 72, 47
2, 28455, Control_c, 0, 64, 127
2, 28472, Note_on_c, 0, 81, 0
2, 28476, Note_on_c, 0, 53, 0
2, 28489, Note_on_c, 0, 72, 0
2, 28511, Note_on_c, 0, 57, 0
2, 28512, Note_on_c, 0, 60, 0
2, 28515, Note_on_c, 0, 64, 0
2, 28519, Note_on_c, 0, 53, 37
2, 28527, Note_on_c, 0, 53, 0
2, 28550, Control_c, 0, 64, 0
2, 28555, Note_on_c, 0, 65, 66
2, 28555, Note_on_c, 0, 76, 54
2, 28557, Note_on_c, 0, 69, 59
2, 28557, Note_on_c, 0, 72, 52
2, 28558, Note_on_c, 0, 64, 67
2, 28573, Note_on_c, 0, 65, 0
2, 28576, Note_on_c, 0, 69, 0
2, 28580, Note_on_c, 0, 72, 0
2, 28583, Note_on_c, 0, 76, 0
2, 28584, Note_on_c, 0, 64, 0
2, 28602, Note_on_c, 0, 62, 26
2, 28613, Note_on_c, 0, 62, 0
2, 28636, Note_on_c, 0, 76, 52
2, 28636, Note_on_c, 0, 72, 52
2, 28637, Note_on_c, 0, 64, 61
2, 28637, Note_on_c, 0, 65, 53
2, 28638, Note_on_c, 0, 69, 58
2, 28694, Control_c, 0, 64, 127
2, 28700, Note_on_c, 0, 65, 0
2, 28701, Note_on_c, 0, 69, 0
2, 28705, Note_on_c, 0, 72, 0
2, 28710, Control_c, 0, 64, 0
2, 28711, Note_on_c, 0, 76, 0
2, 28712, Note_on_c, 0, 64, 0
2, 28716, Note_on_c, 0, 74, 42
2, 28719, Note_on_c, 0, 65, 42
2, 28720, Note_on_c, 0, 69, 41
2, 28721, Note_on_c, 0, 62, 45
2, 28733, Control_c, 0, 64, 127
2, 28736, Note_on_c, 0, 62, 0
2, 28738, Note_on_c, 0, 69, 0
2, 28738, Note_on_c, 0, 74, 0
2, 28744, Note_on_c, 0, 65, 0
2, 28774, Note_on_c, 0, 55, 18
2, 28784, Note_on_c, 0, 55, 0
2, 28792, Control_c, 0, 64, 0
2, 28800, Note_on_c, 0, 58, 57
2, 28800, Note_on_c, 0, 62, 60
2, 28802, Note_on_c, 0, 69, 60
2, 28803, Note_on_c, 0, 57, 50
2, 28806, Note_on_c, 0, 65, 41
2, 28824, Note_on_c, 0, 65, 0
2, 28828, Note_on_c, 0, 58, 0
2, 28830, Note_on_c, 0, 62, 0
2, 28831, Note_on_c, 0, 57, 0
2, 28834, Note_on_c, 0, 69, 0
2, 28836, Note_on_c, 0, 56, 36
2, 28865, Note_on_c, 0, 56, 0
2, 28869, Note_on_c, 0, 58, 37
2, 28870, Note_on_c, 0, 62, 51
2, 28870, Note_on_c, 0, 67, 47
2, 28872, Note_on_c, 0, 55, 41
2, 28908, Note_on_c, 0, 67, 0
2, 28911, Note_on_c, 0, 62, 0
2, 28925, Note_on_c, 0, 58, 0
2, 28925, Note_on_c, 0, 55, 0
2, 28941, Note_on_c, 0, 65, 66
2, 28941, Note_on_c, 0, 58, 33
2, 28944, Note_on_c, 0, 55, 26
2, 28947, Note_on_c, 0, 62, 33
2, 28948, Note_on_c, 0, 53, 49
2, 28984, Control_c, 0, 64, 127
2, 28992, Note_on_c, 0, 62, 0
2, 28993, Note_on_c, 0, 55, 0
2, 29003, Note_on_c, 0, 65, 0
2, 29004, Note_on_c, 0, 53, 0
2, 29004, Note_on_c, 0, 62, 24
2, 29008, Note_on_c, 0, 50, 34
2, 29014, Note_on_c, 0, 62, 0
2, 29035, Note_on_c, 0, 58, 0
2, 29035, Control_c, 0, 64, 0
2, 29043, Note_on_c, 0, 50, 0
2, 29050, Note_on_c, 0, 58, 35
2, 29051, Note_on_c, 0, 52, 37
2, 29051, Note_on_c, 0, 55, 32
2, 29053, Note_on_c, 0, 64, 32
2, 29058, Note_on_c, 0, 61, 23
2, 29065, Note_on_c, 0, 61, 0
2, 29107, Control_c, 0, 64, 127
2, 29129, Note_on_c, 0, 48, 53
2, 29133, Note_on_c, 0, 52, 0
2, 29135, Note_on_c, 0, 48, 0
2, 29136, Note_on_c, 0, 55, 0
2, 29152, Note_on_c, 0, 58, 0
2, 29185, Note_on_c, 0, 64, 0
2, 29253, Control_c, 0, 64, 0
2, 29277, Note_on_c, 0, 64, 53
2, 29278, Note_on_c, 0, 82, 62
2, 29279, Note_on_c, 0, 60, 49
2, 29280, Note_on_c, 0, 57, 48
2, 29280, Note_on_c, 0, 53, 32
2, 29281, Note_on_c, 0, 70, 74
2, 29301, Note_on_c, 0, 64, 0
2, 29306, Note_on_c, 0, 82, 0
2, 29309, Note_on_c, 0, 70, 0
2, 29312, Note_on_c, 0, 60, 0
2, 29317, Note_on_c, 0, 71, 29
2, 29323, Note_on_c, 0, 57, 0
2, 29325, Note_on_c, 0, 53, 0
2, 29336, Note_on_c, 0, 71, 0
2, 29339, Note_on_c, 0, 83, 34
2, 29355, Note_on_c, 0, 83, 0
2, 29357, Note_on_c, 0, 71, 38
2, 29377, Note_on_c, 0, 71, 0
2, 29378, Note_on_c, 0, 83, 32
2, 29394, Note_on_c, 0, 83, 0
2, 29398, Note_on_c, 0, 71, 34
2, 29419, Note_on_c, 0, 71, 0
2, 29419, Note_on_c, 0, 83, 35
2, 29439, Note_on_c, 0, 83, 0
2, 29448, Note_on_c, 0, 71, 35
2, 29464, Note_on_c, 0, 83, 49
2, 29465, Note_on_c, 0, 64, 60
2, 29471, Note_on_c, 0, 64, 0
2, 29471, Note_on_c, 0, 57, 36
2, 29475, Note_on_c, 0, 71, 0
2, 29480, Note_on_c, 0, 57, 0
2, 29484, Note_on_c, 0, 83, 0
2, 29497, Note_on_c, 0, 69, 55
2, 29498, Note_on_c, 0, 81, 46
2, 29506, Note_on_c, 0, 69, 0
2, 29512, Note_on_c, 0, 81, 0
2, 29643, Note_on_c, 0, 64, 44
2, 29645, Note_on_c, 0, 57, 49
2, 29646, Note_on_c, 0, 60, 38
2, 29650, Note_on_c, 0, 64, 0
2, 29653, Note_on_c, 0, 60, 0
2, 29657, Note_on_c, 0, 57, 0
2, 29685, Note_on_c, 0, 83, 67
2, 29701, Note_on_c, 0, 83, 0
2, 29718, Note_on_c, 0, 84, 89
2, 29746, Note_on_c, 0, 84, 0
2, 29758, Note_on_c, 0, 63, 40
2, 29758, Note_on_c, 0, 67, 48
2, 29758, Note_on_c, 0, 57, 51
2, 29758, Note_on_c, 0, 86, 81
2, 29760, Note_on_c, 0, 62, 43
2, 29823, Note_on_c, 0, 57, 0
2, 29824, Note_on_c, 0, 67, 0
2, 29825, Note_on_c, 0, 62, 0
2, 29826, Note_on_c, 0, 63, 0
2, 29835, Note_on_c, 0, 86, 0
2, 29837, Note_on_c, 0, 82, 52
2, 29839, Note_on_c, 0, 67, 45
2, 29840, Note_on_c, 0, 57, 46
2, 29843, Note_on_c, 0, 62, 35
2, 29844, Note_on_c, 0, 63, 33
2, 29846, Note_on_c, 0, 83, 60
2, 29851, Note_on_c, 0, 82, 0
2, 29871, Control_c, 0, 64, 127
2, 29873, Note_on_c, 0, 67, 0
2, 29876, Note_on_c, 0, 62, 0
2, 29877, Note_on_c, 0, 63, 0
2, 29884, Note_on_c, 0, 83, 0
2, 29890, Note_on_c, 0, 67, 32
2, 29892, Note_on_c, 0, 79, 47
2, 29896, Note_on_c, 0, 63, 25
2, 29925, Note_on_c, 0, 63, 0
2, 29927, Note_on_c, 0, 67, 0
2, 29933, Note_on_c, 0, 57, 0
2, 29960, Note_on_c, 0, 57, 34
2, 29961, Note_on_c, 0, 74, 54
2, 29961, Note_on_c, 0, 67, 28
2, 29963, Note_on_c, 0, 63, 34
2, 29964, Note_on_c, 0, 62, 30
2, 29968, Note_on_c, 0, 79, 0
2, 29969, Control_c, 0, 64, 0
2, 29994, Control_c, 0, 64, 127
2, 30023, Note_on_c, 0, 62, 0
2, 30035, Note_on_c, 0, 67, 0
2, 30038, Note_on_c, 0, 63, 0
2, 30042, Note_on_c, 0, 57, 0
2, 30052, Note_on_c, 0, 74, 0
2, 30078, Note_on_c, 0, 67, 37
2, 30078, Note_on_c, 0, 71, 44
2, 30078, Note_on_c, 0, 57, 36
2, 30079, Note_on_c, 0, 62, 39
2, 30079, Note_on_c, 0, 63, 28
2, 30088, Control_c, 0, 64, 0
2, 30108, Control_c, 0, 64, 127
2, 30164, Note_on_c, 0, 67, 0
2, 30179, Note_on_c, 0, 62, 0
2, 30181, Note_on_c, 0, 63, 0
2, 30183, Note_on_c, 0, 71, 0
2, 30188, Note_on_c, 0, 57, 0
2, 30243, Note_on_c, 0, 67, 53
2, 30244, Note_on_c, 0, 62, 44
2, 30244, Note_on_c, 0, 56, 44
2, 30250, Control_c, 0, 64, 0
2, 30285, Note_on_c, 0, 76, 80
2, 30286, Note_on_c, 0, 84, 81
2, 30287, Note_on_c, 0, 80, 55
2, 30298, Note_on_c, 0, 80, 0
2, 30309, Control_c, 0, 64, 127
2, 30316, Note_on_c, 0, 84, 0
2, 30322, Note_on_c, 0, 76, 0
2, 30322, Note_on_c, 0, 79, 47
2, 30324, Note_on_c, 0, 72, 44
2, 30339, Note_on_c, 0, 67, 0
2, 30345, Note_on_c, 0, 56, 0
2, 30346, Note_on_c, 0, 62, 0
2, 30350, Note_on_c, 0, 72, 0
2, 30355, Note_on_c, 0, 79, 0
2, 30357, Control_c, 0, 64, 0
2, 30361, Note_on_c, 0, 76, 37
2, 30362, Note_on_c, 0, 67, 45
2, 30362, Note_on_c, 0, 56, 42
2, 30364, Note_on_c, 0, 62, 35
2, 30365, Note_on_c, 0, 84, 72
2, 30393, Note_on_c, 0, 84, 0
2, 30395, Note_on_c, 0, 76, 0
2, 30399, Control_c, 0, 64, 127
2, 30401, Note_on_c, 0, 72, 34
2, 30404, Note_on_c, 0, 79, 32
2, 30414, Note_on_c, 0, 67, 0
2, 30416, Note_on_c, 0, 62, 0
2, 30419, Note_on_c, 0, 56, 0
2, 30422, Note_on_c, 0, 72, 0
2, 30429, Note_on_c, 0, 79, 0
2, 30438, Note_on_c, 0, 56, 51
2, 30438, Note_on_c, 0, 76, 61
2, 30439, Note_on_c, 0, 67, 54
2, 30439, Note_on_c, 0, 62, 43
2, 30440, Note_on_c, 0, 84, 68
2, 30442, Control_c, 0, 64, 0
2, 30467, Note_on_c, 0, 76, 0
2, 30469, Control_c, 0, 64, 127
2, 30471, Note_on_c, 0, 84, 0
2, 30480, Note_on_c, 0, 72, 36
2, 30481, Note_on_c, 0, 79, 35
2, 30493, Note_on_c, 0, 62, 0
2, 30493, Note_on_c, 0, 67, 0
2, 30495, Control_c, 0, 64, 0
2, 30500, Note_on_c, 0, 56, 0
2, 30505, Note_on_c, 0, 72, 0
2, 30511, Note_on_c, 0, 79, 0
2, 30513, Control_c, 0, 64, 127
2, 30519, Note_on_c, 0, 76, 66
2, 30520, Note_on_c, 0, 56, 55
2, 30520, Note_on_c, 0, 67, 60
2, 30521, Note_on_c, 0, 84, 75
2, 30521, Note_on_c, 0, 62, 49
2, 30550, Note_on_c, 0, 84, 0
2, 30550, Note_on_c, 0, 76, 0
2, 30557, Note_on_c, 0, 79, 45
2, 30559, Note_on_c, 0, 72, 35
2, 30562, Note_on_c, 0, 67, 0
2, 30569, Note_on_c, 0, 62, 0
2, 30574, Note_on_c, 0, 56, 0
2, 30579, Note_on_c, 0, 72, 0
2, 30589, Note_on_c, 0, 79, 0
2, 30597, Note_on_c, 0, 76, 67
2, 30598, Note_on_c, 0, 56, 60
2, 30599, Note_on_c, 0, 67, 61
2, 30599, Note_on_c, 0, 62, 63
2, 30600, Note_on_c, 0, 84, 68
2, 30625, Note_on_c, 0, 84, 0
2, 30630, Note_on_c, 0, 76, 0
2, 30638, Note_on_c, 0, 79, 48
2, 30652, Note_on_c, 0, 67, 0
2, 30654, Note_on_c, 0, 62, 0
2, 30659, Note_on_c, 0, 79, 0
2, 30665, Note_on_c, 0, 56, 0
2, 30679, Note_on_c, 0, 77, 83
2, 30679, Note_on_c, 0, 61, 71
2, 30679, Note_on_c, 0, 55, 82
2, 30679, Note_on_c, 0, 84, 82
2, 30679, Note_on_c, 0, 65, 80
2, 30682, Note_on_c, 0, 72, 56
2, 30683, Control_c, 0, 64, 0
2, 30688, Note_on_c, 0, 72, 0
2, 30715, Note_on_c, 0, 84, 0
2, 30715, Control_c, 0, 64, 127
2, 30720, Note_on_c, 0, 81, 55
2, 30725, Note_on_c, 0, 72, 39
2, 30731, Note_on_c, 0, 77, 0
2, 30734, Note_on_c, 0, 65, 0
2, 30738, Note_on_c, 0, 55, 0
2, 30740, Note_on_c, 0, 72, 0
2, 30743, Note_on_c, 0, 61, 0
2, 30750, Note_on_c, 0, 81, 0
2, 30756, Note_on_c, 0, 61, 57
2, 30757, Note_on_c, 0, 55, 60
2, 30757, Note_on_c, 0, 84, 74
2, 30758, Note_on_c, 0, 77, 69
2, 30758, Note_on_c, 0, 65, 73
2, 30760, Control_c, 0, 64, 0
2, 30761, Note_on_c, 0, 60, 67
2, 30765, Note_on_c, 0, 58, 27
2, 30788, Note_on_c, 0, 84, 0
2, 30789, Control_c, 0, 64, 127
2, 30796, Note_on_c, 0, 60, 0
2, 30796, Note_on_c, 0, 81, 46
2, 30800, Note_on_c, 0, 72, 24
2, 30806, Note_on_c, 0, 65, 0
2, 30807, Note_on_c, 0, 77, 0
2, 30808, Note_on_c, 0, 55, 0
2, 30812, Note_on_c, 0, 58, 0
2, 30813, Note_on_c, 0, 61, 0
2, 30815, Note_on_c, 0, 72, 0
2, 30824, Note_on_c, 0, 81, 0
2, 30826, Control_c, 0, 64, 0
2, 30834, Note_on_c, 0, 55, 44
2, 30835, Note_on_c, 0, 77, 57
2, 30835, Note_on_c, 0, 84, 66
2, 30835, Note_on_c, 0, 65, 48
2, 30836, Note_on_c, 0, 61, 32
2, 30837, Note_on_c, 0, 60, 52
2, 30839, Note_on_c, 0, 72, 50
2, 30842, Note_on_c, 0, 58, 23
2, 30854, Note_on_c, 0, 72, 0
2, 30858, Control_c, 0, 64, 127
2, 30862, Note_on_c, 0, 60, 0
2, 30865, Note_on_c, 0, 77, 0
2, 30867, Note_on_c, 0, 84, 0
2, 30868, Note_on_c, 0, 65, 0
2, 30869, Note_on_c, 0, 55, 0
2, 30871, Note_on_c, 0, 61, 0
2, 30874, Note_on_c, 0, 58, 0
2, 30878, Note_on_c, 0, 81, 52
2, 30902, Note_on_c, 0, 81, 0
2, 30911, Control_c, 0, 64, 0
2, 30914, Note_on_c, 0, 84, 51
2, 30915, Note_on_c, 0, 65, 51
2, 30915, Note_on_c, 0, 61, 38
2, 30916, Note_on_c, 0, 55, 39
2, 30918, Note_on_c, 0, 77, 39
2, 30918, Note_on_c, 0, 72, 38
2, 30919, Note_on_c, 0, 60, 46
2, 30940, Note_on_c, 0, 72, 0
2, 30940, Note_on_c, 0, 77, 0
2, 30941, Control_c, 0, 64, 127
2, 30948, Note_on_c, 0, 84, 0
2, 30952, Note_on_c, 0, 60, 0
2, 30955, Note_on_c, 0, 65, 0
2, 30956, Note_on_c, 0, 81, 33
2, 30957, Note_on_c, 0, 61, 0
2, 30960, Note_on_c, 0, 55, 0
2, 30973, Note_on_c, 0, 81, 0
2, 30990, Note_on_c, 0, 65, 58
2, 30991, Note_on_c, 0, 84, 63
2, 30992, Note_on_c, 0, 61, 39
2, 30993, Note_on_c, 0, 55, 34
2, 30993, Note_on_c, 0, 60, 47
2, 30995, Note_on_c, 0, 77, 34
2, 30995, Note_on_c, 0, 72, 36
2, 31009, Note_on_c, 0, 72, 0
2, 31010, Note_on_c, 0, 77, 0
2, 31019, Note_on_c, 0, 60, 0
2, 31021, Note_on_c, 0, 61, 0
2, 31022, Note_on_c, 0, 55, 0
2, 31023, Note_on_c, 0, 84, 0
2, 31024, Note_on_c, 0, 65, 0
2, 31034, Note_on_c, 0, 81, 54
2, 31041, Note_on_c, 0, 81, 0
2, 31071, Control_c, 0, 64, 0
2, 31072, Note_on_c, 0, 61, 44
2, 31073, Note_on_c, 0, 65, 72
2, 31073, Note_on_c, 0, 55, 64
2, 31074, Note_on_c, 0, 88, 80
2, 31074, Note_on_c, 0, 60, 62
2, 31075, Note_on_c, 0, 84, 64
2, 31075, Note_on_c, 0, 76, 58
2, 31076, Note_on_c, 0, 81, 61
2, 31078, Note_on_c, 0, 58, 35
2, 31092, Control_c, 0, 64, 127
2, 31100, Note_on_c, 0, 76, 0
2, 31101, Note_on_c, 0, 81, 0
2, 31104, Note_on_c, 0, 88, 0
2, 31105, Note_on_c, 0, 84, 0
2, 31112, Note_on_c, 0, 65, 0
2, 31114, Note_on_c, 0, 60, 0
2, 31115, Note_on_c, 0, 55, 0
2, 31117, Note_on_c, 0, 61, 0
2, 31120, Note_on_c, 0, 58, 0
2, 31159, Note_on_c, 0, 61, 64
2, 31160, Note_on_c, 0, 55, 69
2, 31160, Note_on_c, 0, 91, 85
2, 31162, Note_on_c, 0, 65, 74
2, 31162, Note_on_c, 0, 79, 78
2, 31162, Note_on_c, 0, 88, 78
2, 31162, Note_on_c, 0, 84, 79
2, 31170, Note_on_c, 0, 65, 0
2, 31173, Note_on_c, 0, 88, 0
2, 31173, Note_on_c, 0, 84, 0
2, 31176, Note_on_c, 0, 55, 0
2, 31177, Note_on_c, 0, 91, 0
2, 31179, Note_on_c, 0, 79, 0
2, 31183, Note_on_c, 0, 61, 0
2, 31203, Note_on_c, 0, 53, 49
2, 31203, Note_on_c, 0, 80, 69
2, 31205, Note_on_c, 0, 60, 53
2, 31206, Note_on_c, 0, 57, 64
2, 31206, Control_c, 0, 64, 0
2, 31206, Note_on_c, 0, 87, 48
2, 31206, Note_on_c, 0, 64, 55
2, 31208, Note_on_c, 0, 75, 34
2, 31212, Note_on_c, 0, 84, 29
2, 31217, Note_on_c, 0, 80, 0
2, 31219, Note_on_c, 0, 88, 60
2, 31220, Note_on_c, 0, 75, 0
2, 31222, Note_on_c, 0, 76, 57
2, 31225, Note_on_c, 0, 87, 0
2, 31229, Note_on_c, 0, 81, 26
2, 31252, Control_c, 0, 64, 127
2, 31255, Note_on_c, 0, 86, 6
2, 31272, Note_on_c, 0, 84, 0
2, 31274, Note_on_c, 0, 88, 0
2, 31275, Note_on_c, 0, 81, 0
2, 31282, Note_on_c, 0, 86, 0
2, 31291, Note_on_c, 0, 76, 0
2, 31294, Note_on_c, 0, 64, 0
2, 31298, Note_on_c, 0, 60, 0
2, 31301, Note_on_c, 0, 57, 0
2, 31301, Note_on_c, 0, 53, 0
2, 31325, Control_c, 0, 64, 0
2, 31326, Note_on_c, 0, 53, 24
2, 31326, Note_on_c, 0, 84, 32
2, 31327, Note_on_c, 0, 72, 35
2, 31328, Note_on_c, 0, 57, 46
2, 31328, Note_on_c, 0, 64, 37
2, 31328, Note_on_c, 0, 79, 38
2, 31329, Note_on_c, 0, 60, 40
2, 31357, Control_c, 0, 64, 127
2, 31382, Note_on_c, 0, 84, 0
2, 31387, Note_on_c, 0, 79, 0
2, 31393, Note_on_c, 0, 72, 0
2, 31394, Note_on_c, 0, 53, 0
2, 31395, Note_on_c, 0, 57, 0
2, 31396, Note_on_c, 0, 60, 0
2, 31399, Note_on_c, 0, 64, 0
2, 31444, Note_on_c, 0, 79, 75
2, 31445, Note_on_c, 0, 72, 80
2, 31446, Note_on_c, 0, 69, 66
2, 31447, Note_on_c, 0, 67, 70
2, 31450, Control_c, 0, 64, 0
2, 31450, Note_on_c, 0, 71, 53
2, 31455, Note_on_c, 0, 71, 0
2, 31459, Note_on_c, 0, 69, 0
2, 31461, Note_on_c, 0, 72, 0
2, 31469, Note_on_c, 0, 79, 0
2, 31471, Note_on_c, 0, 67, 0
2, 31476, Note_on_c, 0, 66, 36
2, 31489, Note_on_c, 0, 66, 0
2, 31497, Note_on_c, 0, 65, 20
2, 31504, Note_on_c, 0, 65, 0
2, 31523, Note_on_c, 0, 63, 18
2, 31532, Control_c, 0, 64, 127
2, 31535, Note_on_c, 0, 63, 0
2, 31550, Note_on_c, 0, 76, 57
2, 31550, Note_on_c, 0, 65, 67
2, 31551, Note_on_c, 0, 69, 68
2, 31552, Note_on_c, 0, 72, 64
2, 31560, Control_c, 0, 64, 0
2, 31566, Note_on_c, 0, 65, 0
2, 31568, Note_on_c, 0, 69, 0
2, 31571, Note_on_c, 0, 72, 0
2, 31573, Note_on_c, 0, 76, 0
2, 31620, Note_on_c, 0, 67, 61
2, 31620, Note_on_c, 0, 62, 36
2, 31620, Note_on_c, 0, 71, 43
2, 31620, Note_on_c, 0, 74, 52
2, 31621, Note_on_c, 0, 64, 55
2, 31623, Note_on_c, 0, 60, 38
2, 31628, Note_on_c, 0, 60, 0
2, 31636, Note_on_c, 0, 62, 0
2, 31636, Note_on_c, 0, 64, 0
2, 31637, Note_on_c, 0, 67, 0
2, 31643, Note_on_c, 0, 71, 0
2, 31646, Note_on_c, 0, 74, 0
2, 31655, Note_on_c, 0, 59, 42
2, 31661, Note_on_c, 0, 59, 0
2, 31664, Note_on_c, 0, 56, 32
2, 31667, Control_c, 0, 64, 127
2, 31669, Note_on_c, 0, 56, 0
2, 31700, Control_c, 0, 64, 0
2, 31753, Note_on_c, 0, 67, 49
2, 31753, Note_on_c, 0, 59, 54
2, 31753, Note_on_c, 0, 62, 53
2, 31756, Note_on_c, 0, 64, 36
2, 31758, Note_on_c, 0, 59, 0
2, 31761, Note_on_c, 0, 62, 0
2, 31765, Note_on_c, 0, 64, 0
2, 31769, Note_on_c, 0, 67, 0
2, 31813, Note_on_c, 0, 67, 77
2, 31814, Note_on_c, 0, 79, 67
2, 31816, Note_on_c, 0, 62, 54
2, 31817, Note_on_c, 0, 56, 59
2, 31818, Note_on_c, 0, 78, 39
2, 31822, Note_on_c, 0, 62, 0
2, 31824, Note_on_c, 0, 78, 0
2, 31826, Note_on_c, 0, 67, 0
2, 31838, Note_on_c, 0, 56, 0
2, 31848, Note_on_c, 0, 79, 0
2, 31877, Control_c, 0, 64, 127
2, 31885, Note_on_c, 0, 62, 54
2, 31886, Note_on_c, 0, 56, 28
2, 31892, Note_on_c, 0, 56, 0
2, 31892, Note_on_c, 0, 62, 0
2, 31924, Control_c, 0, 64, 0
2, 31926, Note_on_c, 0, 65, 55
2, 31926, Note_on_c, 0, 67, 42
2, 31926, Note_on_c, 0, 61, 44
2, 31927, Note_on_c, 0, 72, 55
2, 31927, Note_on_c, 0, 55, 51
2, 31930, Note_on_c, 0, 60, 29
2, 31968, Control_c, 0, 64, 127
2, 32013, Note_on_c, 0, 65, 0
2, 32019, Note_on_c, 0, 61, 0
2, 32020, Note_on_c, 0, 60, 0
2, 32043, Note_on_c, 0, 61, 35
2, 32044, Note_on_c, 0, 60, 24
2, 32045, Note_on_c, 0, 65, 38
2, 32058, Note_on_c, 0, 72, 0
2, 32061, Note_on_c, 0, 67, 0
2, 32080, Note_on_c, 0, 55, 0
2, 32106, Note_on_c, 0, 65, 0
2, 32109, Note_on_c, 0, 60, 0
2, 32122, Note_on_c, 0, 55, 38
2, 32129, Note_on_c, 0, 55, 0
2, 32140, Note_on_c, 0, 61, 0
2, 32158, Control_c, 0, 64, 0
2, 32161, Note_on_c, 0, 53, 35
2, 32163, Note_on_c, 0, 64, 49
2, 32163, Note_on_c, 0, 60, 31
2, 32164, Note_on_c, 0, 81, 69
2, 32165, Note_on_c, 0, 72, 66
2, 32165, Note_on_c, 0, 57, 46
2, 32212, Control_c, 0, 64, 127
2, 32213, Note_on_c, 0, 81, 0
2, 32218, Note_on_c, 0, 72, 0
2, 32246, Note_on_c, 0, 71, 30
2, 32249, Note_on_c, 0, 79, 24
2, 32254, Note_on_c, 0, 60, 0
2, 32254, Note_on_c, 0, 53, 0
2, 32254, Note_on_c, 0, 64, 0
2, 32256, Note_on_c, 0, 57, 0
2, 32263, Note_on_c, 0, 71, 0
2, 32268, Note_on_c, 0, 79, 0
2, 32281, Control_c, 0, 64, 0
2, 32284, Note_on_c, 0, 81, 64
2, 32285, Note_on_c, 0, 64, 39
2, 32285, Note_on_c, 0, 72, 54
2, 32286, Note_on_c, 0, 57, 47
2, 32286, Note_on_c, 0, 53, 27
2, 32287, Note_on_c, 0, 60, 42
2, 32320, Control_c, 0, 64, 127
2, 32355, Note_on_c, 0, 60, 0
2, 32364, Note_on_c, 0, 81, 0
2, 32364, Note_on_c, 0, 72, 0
2, 32365, Note_on_c, 0, 53, 0
2, 32366, Note_on_c, 0, 64, 0
2, 32370, Note_on_c, 0, 57, 0
2, 32398, Control_c, 0, 64, 0
2, 32404, Note_on_c, 0, 79, 33
2, 32405, Note_on_c, 0, 71, 40
2, 32405, Note_on_c, 0, 64, 24
2, 32407, Note_on_c, 0, 59, 39
2, 32409, Note_on_c, 0, 53, 20
2, 32453, Note_on_c, 0, 71, 0
2, 32455, Note_on_c, 0, 53, 0
2, 32456, Note_on_c, 0, 79, 0
2, 32461, Note_on_c, 0, 64, 0
2, 32461, Control_c, 0, 64, 127
2, 32466, Note_on_c, 0, 59, 0
2, 32482, Note_on_c, 0, 81, 49
2, 32482, Note_on_c, 0, 64, 34
2, 32482, Note_on_c, 0, 72, 47
2, 32484, Note_on_c, 0, 59, 46
2, 32489, Note_on_c, 0, 72, 0
2, 32489, Note_on_c, 0, 81, 0
2, 32492, Note_on_c, 0, 64, 0
2, 32492, Note_on_c, 0, 59, 0
2, 32503, Control_c, 0, 64, 0
2, 32565, Control_c, 0, 64, 127
2, 32596, Control_c, 0, 64, 0
2, 32596, Note_on_c, 0, 62, 53
2, 32596, Note_on_c, 0, 58, 37
2, 32599, Note_on_c, 0, 52, 49
2, 32599, Note_on_c, 0, 57, 41
2, 32648, Note_on_c, 0, 62, 0
2, 32652, Note_on_c, 0, 58, 0
2, 32656, Note_on_c, 0, 57, 0
2, 32679, Note_on_c, 0, 57, 54
2, 32692, Note_on_c, 0, 57, 0
2, 32705, Note_on_c, 0, 58, 50
2, 32716, Note_on_c, 0, 58, 0
2, 32734, Note_on_c, 0, 62, 72
2, 32750, Note_on_c, 0, 62, 0
2, 32760, Note_on_c, 0, 66, 71
2, 32770, Note_on_c, 0, 58, 30
2, 32772, Note_on_c, 0, 62, 24
2, 32777, Note_on_c, 0, 66, 0
2, 32790, Note_on_c, 0, 69, 75
2, 32807, Note_on_c, 0, 52, 0
2, 32809, Note_on_c, 0, 69, 0
2, 32817, Note_on_c, 0, 58, 0
2, 32820, Note_on_c, 0, 66, 37
2, 32834, Note_on_c, 0, 66, 0
2, 32848, Note_on_c, 0, 67, 64
2, 32868, Note_on_c, 0, 67, 0
2, 32873, Note_on_c, 0, 61, 33
2, 32875, Note_on_c, 0, 69, 54
2, 32887, Note_on_c, 0, 62, 0
2, 32900, Note_on_c, 0, 69, 0
2, 32907, Note_on_c, 0, 55, 1
2, 32910, Note_on_c, 0, 70, 60
2, 32925, Note_on_c, 0, 70, 0
2, 32937, Note_on_c, 0, 72, 63
2, 32956, Note_on_c, 0, 61, 0
2, 32957, Note_on_c, 0, 72, 0
2, 32959, Note_on_c, 0, 73, 54
2, 32978, Note_on_c, 0, 73, 0
2, 32984, Note_on_c, 0, 75, 56
2, 32984, Note_on_c, 0, 61, 27
2, 32995, Note_on_c, 0, 75, 0
2, 33003, Note_on_c, 0, 76, 46
2, 33017, Note_on_c, 0, 76, 0
2, 33022, Note_on_c, 0, 78, 50
2, 33024, Note_on_c, 0, 55, 0
2, 33030, Note_on_c, 0, 78, 0
2, 33041, Note_on_c, 0, 61, 0
2, 33045, Note_on_c, 0, 79, 30
2, 33054, Note_on_c, 0, 79, 0
2, 33060, Note_on_c, 0, 81, 50
2, 33078, Note_on_c, 0, 81, 0
2, 33080, Note_on_c, 0, 82, 34
2, 33095, Note_on_c, 0, 82, 0
2, 33095, Note_on_c, 0, 83, 45
2, 33108, Note_on_c, 0, 83, 0
2, 33115, Note_on_c, 0, 84, 76
2, 33126, Note_on_c, 0, 60, 43
2, 33132, Note_on_c, 0, 57, 35
2, 33133, Note_on_c, 0, 84, 0
2, 33136, Note_on_c, 0, 50, 24
2, 33136, Note_on_c, 0, 53, 18
2, 33140, Note_on_c, 0, 81, 71
2, 33157, Note_on_c, 0, 81, 0
2, 33178, Note_on_c, 0, 77, 66
2, 33201, Note_on_c, 0, 77, 0
2, 33206, Note_on_c, 0, 76, 58
2, 33223, Note_on_c, 0, 76, 0
2, 33235, Note_on_c, 0, 79, 68
2, 33255, Note_on_c, 0, 79, 0
2, 33255, Note_on_c, 0, 53, 0
2, 33259, Note_on_c, 0, 57, 0
2, 33263, Note_on_c, 0, 50, 0
2, 33264, Note_on_c, 0, 77, 57
2, 33275, Note_on_c, 0, 60, 0
2, 33284, Note_on_c, 0, 77, 0
2, 33301, Note_on_c, 0, 73, 28
2, 33311, Note_on_c, 0, 73, 0
2, 33322, Note_on_c, 0, 76, 74
2, 33359, Note_on_c, 0, 69, 30
2, 33364, Note_on_c, 0, 76, 0
2, 33365, Note_on_c, 0, 69, 0
2, 33379, Note_on_c, 0, 64, 34
2, 33380, Note_on_c, 0, 72, 81
2, 33382, Note_on_c, 0, 60, 32
2, 33384, Note_on_c, 0, 57, 33
2, 33384, Note_on_c, 0, 53, 20
2, 33400, Note_on_c, 0, 72, 0
2, 33413, Note_on_c, 0, 74, 57
2, 33414, Note_on_c, 0, 64, 0
2, 33417, Note_on_c, 0, 72, 54
2, 33428, Note_on_c, 0, 74, 0
2, 33435, Note_on_c, 0, 72, 0
2, 33435, Note_on_c, 0, 69, 44
2, 33449, Note_on_c, 0, 60, 0
2, 33458, Note_on_c, 0, 69, 0
2, 33460, Note_on_c, 0, 57, 0
2, 33469, Note_on_c, 0, 70, 60
2, 33485, Note_on_c, 0, 70, 0
2, 33490, Note_on_c, 0, 64, 38
2, 33493, Note_on_c, 0, 60, 34
2, 33493, Note_on_c, 0, 57, 28
2, 33495, Note_on_c, 0, 71, 39
2, 33513, Note_on_c, 0, 71, 0
2, 33526, Note_on_c, 0, 72, 71
2, 33528, Note_on_c, 0, 64, 0
2, 33532, Note_on_c, 0, 53, 0
2, 33534, Note_on_c, 0, 57, 0
2, 33538, Note_on_c, 0, 60, 0
2, 33538, Note_on_c, 0, 72, 0
2, 33549, Note_on_c, 0, 76, 83
2, 33575, Note_on_c, 0, 76, 0
2, 33583, Note_on_c, 0, 79, 80
2, 33606, Note_on_c, 0, 65, 46
2, 33609, Note_on_c, 0, 77, 73
2, 33610, Note_on_c, 0, 60, 37
2, 33611, Note_on_c, 0, 55, 32
2, 33611, Note_on_c, 0, 57, 34
2, 33614, Note_on_c, 0, 79, 0
2, 33641, Note_on_c, 0, 77, 0
2, 33670, Note_on_c, 0, 76, 80
2, 33697, Note_on_c, 0, 76, 0
2, 33728, Note_on_c, 0, 76, 52
2, 33733, Note_on_c, 0, 74, 47
2, 33745, Note_on_c, 0, 74, 0
2, 33752, Note_on_c, 0, 76, 0
2, 33769, Note_on_c, 0, 65, 0
2, 33770, Note_on_c, 0, 69, 60
2, 33772, Note_on_c, 0, 57, 0
2, 33775, Note_on_c, 0, 60, 0
2, 33779, Control_c, 0, 64, 127
2, 33781, Note_on_c, 0, 55, 0
2, 33804, Note_on_c, 0, 69, 0
2, 33812, Note_on_c, 0, 72, 82
2, 33840, Control_c, 0, 64, 0
2, 33840, Note_on_c, 0, 59, 60
2, 33840, Note_on_c, 0, 64, 55
2, 33846, Note_on_c, 0, 64, 0
2, 33850, Note_on_c, 0, 59, 0
2, 33880, Note_on_c, 0, 74, 68
2, 33890, Note_on_c, 0, 72, 0
2, 33909, Control_c, 0, 64, 127
2, 33912, Note_on_c, 0, 43, 57
2, 33913, Note_on_c, 0, 74, 0
2, 33918, Note_on_c, 0, 43, 0
2, 33921, Note_on_c, 0, 69, 29
2, 33928, Note_on_c, 0, 69, 0
2, 33952, Note_on_c, 0, 71, 74
2, 33955, Control_c, 0, 64, 0
2, 33968, Control_c, 0, 64, 127
2, 33983, Note_on_c, 0, 71, 0
2, 33993, Note_on_c, 0, 74, 36
2, 33994, Note_on_c, 0, 76, 28
2, 34000, Note_on_c, 0, 76, 0
2, 34004, Note_on_c, 0, 74, 0
2, 34034, Note_on_c, 0, 59, 30
2, 34047, Note_on_c, 0, 59, 0
2, 34082, Note_on_c, 0, 67, 60
2, 34083, Note_on_c, 0, 71, 49
2, 34083, Note_on_c, 0, 64, 51
2, 34084, Note_on_c, 0, 55, 49
2, 34084, Note_on_c, 0, 62, 55
2, 34086, Control_c, 0, 64, 0
2, 34089, Note_on_c, 0, 64, 0
2, 34090, Note_on_c, 0, 62, 0
2, 34090, Note_on_c, 0, 67, 0
2, 34091, Note_on_c, 0, 55, 0
2, 34093, Note_on_c, 0, 71, 0
2, 34151, Control_c, 0, 64, 127
2, 34160, Note_on_c, 0, 67, 49
2, 34161, Note_on_c, 0, 62, 43
2, 34164, Note_on_c, 0, 59, 48
2, 34166, Note_on_c, 0, 52, 24
2, 34167, Note_on_c, 0, 64, 27
2, 34171, Control_c, 0, 64, 0
2, 34172, Note_on_c, 0, 67, 0
2, 34173, Note_on_c, 0, 59, 0
2, 34178, Note_on_c, 0, 64, 0
2, 34179, Note_on_c, 0, 62, 0
2, 34195, Note_on_c, 0, 52, 0
2, 34202, Note_on_c, 0, 66, 40
2, 34207, Note_on_c, 0, 51, 40
2, 34208, Note_on_c, 0, 61, 37
2, 34209, Note_on_c, 0, 56, 33
2, 34225, Note_on_c, 0, 56, 0
2, 34226, Note_on_c, 0, 61, 0
2, 34226, Note_on_c, 0, 66, 0
2, 34249, Note_on_c, 0, 51, 0
2, 34278, Note_on_c, 0, 67, 49
2, 34280, Note_on_c, 0, 64, 43
2, 34280, Note_on_c, 0, 62, 44
2, 34284, Note_on_c, 0, 52, 40
2, 34304, Note_on_c, 0, 59, 4
2, 34344, Control_c, 0, 64, 127
2, 34460, Note_on_c, 0, 64, 0
2, 34461, Note_on_c, 0, 59, 0
2, 34462, Note_on_c, 0, 62, 0
2, 34463, Note_on_c, 0, 67, 0
2, 34485, Note_on_c, 0, 52, 0
2, 34487, Control_c, 0, 64, 0
2, 34516, Note_on_c, 0, 51, 51
2, 34518, Note_on_c, 0, 66, 44
2, 34518, Note_on_c, 0, 61, 48
2, 34521, Note_on_c, 0, 58, 31
2, 34521, Note_on_c, 0, 63, 32
2, 34532, Note_on_c, 0, 58, 0
2, 34540, Note_on_c, 0, 61, 0
2, 34541, Note_on_c, 0, 63, 0
2, 34541, Note_on_c, 0, 66, 0
2, 34550, Note_on_c, 0, 51, 0
2, 34557, Note_on_c, 0, 52, 42
2, 34557, Note_on_c, 0, 67, 54
2, 34560, Note_on_c, 0, 62, 36
2, 34561, Note_on_c, 0, 59, 31
2, 34567, Note_on_c, 0, 59, 0
2, 34567, Note_on_c, 0, 62, 0
2, 34573, Note_on_c, 0, 67, 0
2, 34573, Note_on_c, 0, 52, 0
2, 34639, Note_on_c, 0, 71, 110
2, 34660, Note_on_c, 0, 71, 0
2, 34679, Note_on_c, 0, 74, 91
2, 34703, Note_on_c, 0, 74, 0
2, 34714, Note_on_c, 0, 74, 66
2, 34744, Note_on_c, 0, 74, 0
2, 34753, Note_on_c, 0, 67, 52
2, 34782, Note_on_c, 0, 67, 0
2, 34794, Note_on_c, 0, 71, 62
2, 34817, Note_on_c, 0, 71, 0
2, 34832, Note_on_c, 0, 71, 44
2, 34848, Control_c, 0, 64, 127
2, 34863, Note_on_c, 0, 71, 0
2, 34873, Note_on_c, 0, 64, 42
2, 34900, Note_on_c, 0, 64, 0
2, 34912, Note_on_c, 0, 67, 65
2, 34933, Note_on_c, 0, 67, 0
2, 34951, Note_on_c, 0, 67, 36
2, 34973, Note_on_c, 0, 67, 0
2, 34998, Note_on_c, 0, 67, 24
2, 35010, Note_on_c, 0, 67, 0
2, 35035, Note_on_c, 0, 67, 37
2, 35038, Note_on_c, 0, 60, 35
2, 35038, Note_on_c, 0, 57, 36
2, 35039, Control_c, 0, 64, 0
2, 35039, Note_on_c, 0, 50, 26
2, 35040, Note_on_c, 0, 53, 34
2, 35074, Control_c, 0, 64, 127
2, 35100, Note_on_c, 0, 53, 0
2, 35104, Note_on_c, 0, 57, 0
2, 35104, Note_on_c, 0, 50, 0
2, 35109, Note_on_c, 0, 67, 0
2, 35110, Note_on_c, 0, 60, 0
2, 35190, Note_on_c, 0, 88, 19
2, 35203, Note_on_c, 0, 88, 0
2, 35239, Note_on_c, 0, 53, 71
2, 35239, Note_on_c, 0, 60, 74
2, 35240, Note_on_c, 0, 64, 83
2, 35240, Note_on_c, 0, 91, 89
2, 35240, Note_on_c, 0, 57, 73
2, 35241, Note_on_c, 0, 79, 82
2, 35241, Note_on_c, 0, 88, 83
2, 35242, Note_on_c, 0, 84, 85
2, 35247, Note_on_c, 0, 89, 34
2, 35266, Note_on_c, 0, 88, 0
2, 35270, Note_on_c, 0, 60, 0
2, 35271, Note_on_c, 0, 89, 0
2, 35272, Note_on_c, 0, 79, 0
2, 35272, Note_on_c, 0, 84, 0
2, 35272, Note_on_c, 0, 91, 0
2, 35273, Note_on_c, 0, 53, 0
2, 35274, Note_on_c, 0, 64, 0
2, 35277, Note_on_c, 0, 57, 0
2, 35288, Note_on_c, 0, 89, 67
2, 35289, Note_on_c, 0, 53, 58
2, 35290, Note_on_c, 0, 64, 60
2, 35290, Note_on_c, 0, 59, 70
2, 35291, Note_on_c, 0, 77, 58
2, 35291, Note_on_c, 0, 84, 54
2, 35296, Control_c, 0, 64, 0
2, 35317, Control_c, 0, 64, 127
2, 35335, Note_on_c, 0, 89, 0
2, 35341, Note_on_c, 0, 77, 0
2, 35343, Note_on_c, 0, 53, 0
2, 35345, Note_on_c, 0, 84, 0
2, 35348, Note_on_c, 0, 64, 0
2, 35352, Note_on_c, 0, 59, 0
2, 35365, Note_on_c, 0, 88, 62
2, 35366, Note_on_c, 0, 64, 40
2, 35367, Note_on_c, 0, 59, 60
2, 35367, Note_on_c, 0, 76, 41
2, 35369, Note_on_c, 0, 83, 47
2, 35369, Note_on_c, 0, 53, 37
2, 35387, Note_on_c, 0, 83, 0
2, 35387, Note_on_c, 0, 64, 0
2, 35387, Note_on_c, 0, 88, 0
2, 35388, Note_on_c, 0, 53, 0
2, 35392, Note_on_c, 0, 76, 0
2, 35395, Note_on_c, 0, 59, 0
2, 35403, Control_c, 0, 64, 0
2, 35406, Note_on_c, 0, 86, 49
2, 35408, Note_on_c, 0, 53, 45
2, 35409, Note_on_c, 0, 59, 46
2, 35410, Note_on_c, 0, 64, 36
2, 35411, Note_on_c, 0, 74, 27
2, 35412, Note_on_c, 0, 81, 38
2, 35421, Control_c, 0, 64, 127
2, 35456, Note_on_c, 0, 74, 0
2, 35459, Note_on_c, 0, 64, 0
2, 35460, Note_on_c, 0, 53, 0
2, 35462, Note_on_c, 0, 81, 0
2, 35465, Note_on_c, 0, 86, 0
2, 35467, Note_on_c, 0, 59, 0
2, 35522, Note_on_c, 0, 59, 34
2, 35522, Note_on_c, 0, 62, 53
2, 35524, Note_on_c, 0, 91, 46
2, 35524, Note_on_c, 0, 52, 48
2, 35525, Note_on_c, 0, 55, 48
2, 35527, Note_on_c, 0, 79, 32
2, 35530, Control_c, 0, 64, 0
2, 35583, Control_c, 0, 64, 127
2, 35618, Note_on_c, 0, 91, 0
2, 35639, Note_on_c, 0, 79, 0
2, 35653, Note_on_c, 0, 62, 0
2, 35656, Note_on_c, 0, 59, 0
2, 35667, Note_on_c, 0, 55, 0
2, 35682, Note_on_c, 0, 52, 0
2, 35758, Note_on_c, 0, 67, 32
2, 35759, Note_on_c, 0, 64, 40
2, 35759, Note_on_c, 0, 45, 42
2, 35760, Note_on_c, 0, 61, 36
2, 35761, Note_on_c, 0, 55, 34
2, 35762, Note_on_c, 0, 58, 25
2, 35763, Control_c, 0, 64, 0
2, 35832, Control_c, 0, 64, 127
2, 35895, Note_on_c, 0, 55, 0
2, 35899, Note_on_c, 0, 64, 0
2, 35899, Note_on_c, 0, 67, 0
2, 35913, Note_on_c, 0, 58, 0
2, 35914, Note_on_c, 0, 61, 0
2, 35923, Note_on_c, 0, 45, 0
2, 35998, Note_on_c, 0, 53, 50
2, 35999, Control_c, 0, 64, 0
2, 35999, Note_on_c, 0, 60, 57
2, 36001, Note_on_c, 0, 57, 40
2, 36004, Note_on_c, 0, 53, 0
2, 36007, Note_on_c, 0, 57, 0
2, 36010, Note_on_c, 0, 60, 0
2, 36079, Note_on_c, 0, 69, 47
2, 36087, Note_on_c, 0, 69, 0
2, 36115, Note_on_c, 0, 72, 68
2, 36141, Note_on_c, 0, 72, 0
2, 36143, Note_on_c, 0, 74, 50
2, 36162, Note_on_c, 0, 72, 34
2, 36168, Note_on_c, 0, 74, 0
2, 36191, Note_on_c, 0, 72, 0
2, 36196, Note_on_c, 0, 69, 37
2, 36215, Note_on_c, 0, 69, 0
2, 36233, Note_on_c, 0, 71, 48
2, 36302, Control_c, 0, 64, 127
2, 36312, Note_on_c, 0, 71, 0
2, 36315, Note_on_c, 0, 74, 49
2, 36316, Note_on_c, 0, 64, 39
2, 36321, Note_on_c, 0, 59, 22
2, 36328, Note_on_c, 0, 59, 0
2, 36329, Note_on_c, 0, 64, 0
2, 36332, Note_on_c, 0, 74, 0
2, 36351, Note_on_c, 0, 64, 68
2, 36352, Control_c, 0, 64, 0
2, 36352, Note_on_c, 0, 59, 69
2, 36353, Note_on_c, 0, 81, 78
2, 36353, Note_on_c, 0, 53, 62
2, 36380, Control_c, 0, 64, 127
2, 36385, Note_on_c, 0, 59, 0
2, 36391, Note_on_c, 0, 64, 0
2, 36392, Note_on_c, 0, 81, 0
2, 36400, Note_on_c, 0, 53, 0
2, 36433, Control_c, 0, 64, 0
2, 36436, Note_on_c, 0, 79, 40
2, 36437, Note_on_c, 0, 74, 47
2, 36438, Note_on_c, 0, 62, 37
2, 36440, Note_on_c, 0, 52, 42
2, 36440, Note_on_c, 0, 67, 37
2, 36441, Note_on_c, 0, 57, 55
2, 36510, Control_c, 0, 64, 127
2, 36587, Note_on_c, 0, 52, 0
2, 36588, Note_on_c, 0, 57, 0
2, 36600, Note_on_c, 0, 62, 0
2, 36688, Note_on_c, 0, 67, 0
2, 36721, Note_on_c, 0, 55, 48
2, 36722, Note_on_c, 0, 65, 58
2, 36723, Note_on_c, 0, 60, 48
2, 36725, Note_on_c, 0, 61, 29
2, 36725, Control_c, 0, 64, 0
2, 36781, Note_on_c, 0, 79, 0
2, 36783, Control_c, 0, 64, 127
2, 36789, Note_on_c, 0, 74, 0
2, 36853, Note_on_c, 0, 60, 0
2, 36869, Note_on_c, 0, 65, 0
2, 36876, Note_on_c, 0, 55, 0
2, 36892, Note_on_c, 0, 61, 0
2, 36958, Control_c, 0, 64, 0
2, 36960, Note_on_c, 0, 64, 33
2, 36962, Note_on_c, 0, 60, 37
2, 36962, Note_on_c, 0, 53, 29
2, 36964, Note_on_c, 0, 57, 39
2, 37043, Note_on_c, 0, 69, 57
2, 37059, Note_on_c, 0, 69, 0
2, 37123, Note_on_c, 0, 72, 85
2, 37135, Note_on_c, 0, 72, 0
2, 37160, Note_on_c, 0, 74, 94
2, 37161, Note_on_c, 0, 53, 0
2, 37163, Note_on_c, 0, 60, 0
2, 37171, Note_on_c, 0, 64, 0
2, 37173, Control_c, 0, 64, 127
2, 37177, Note_on_c, 0, 57, 0
2, 37193, Note_on_c, 0, 74, 0
2, 37199, Control_c, 0, 64, 0
2, 37203, Note_on_c, 0, 64, 46
2, 37207, Note_on_c, 0, 59, 42
2, 37209, Note_on_c, 0, 71, 34
2, 37209, Note_on_c, 0, 53, 24
2, 37242, Note_on_c, 0, 71, 0
2, 37246, Note_on_c, 0, 74, 66
2, 37262, Note_on_c, 0, 74, 0
2, 37281, Note_on_c, 0, 77, 71
2, 37297, Control_c, 0, 64, 127
2, 37303, Note_on_c, 0, 77, 0
2, 37314, Control_c, 0, 64, 0
2, 37317, Note_on_c, 0, 80, 62
2, 37318, Note_on_c, 0, 68, 77
2, 37323, Note_on_c, 0, 74, 36
2, 37333, Note_on_c, 0, 74, 0
2, 37345, Note_on_c, 0, 80, 0
2, 37349, Note_on_c, 0, 68, 0
2, 37356, Note_on_c, 0, 69, 29
2, 37374, Note_on_c, 0, 64, 0
2, 37384, Note_on_c, 0, 59, 0
2, 37384, Note_on_c, 0, 69, 0
2, 37384, Note_on_c, 0, 81, 58
2, 37387, Note_on_c, 0, 53, 0
2, 37391, Control_c, 0, 64, 127
2, 37406, Note_on_c, 0, 81, 0
2, 37409, Note_on_c, 0, 69, 48
2, 37419, Note_on_c, 0, 81, 51
2, 37433, Note_on_c, 0, 69, 0
2, 37440, Note_on_c, 0, 81, 0
2, 37446, Control_c, 0, 64, 0
2, 37446, Note_on_c, 0, 52, 36
2, 37446, Note_on_c, 0, 62, 43
2, 37447, Note_on_c, 0, 59, 28
2, 37449, Note_on_c, 0, 67, 63
2, 37450, Note_on_c, 0, 55, 31
2, 37453, Note_on_c, 0, 79, 34
2, 37515, Control_c, 0, 64, 127
2, 37578, Note_on_c, 0, 79, 0
2, 37590, Note_on_c, 0, 67, 0
2, 37618, Control_c, 0, 64, 0
2, 37626, Note_on_c, 0, 72, 55
2, 37636, Note_on_c, 0, 74, 64
2, 37637, Note_on_c, 0, 72, 0
2, 37656, Note_on_c, 0, 72, 42
2, 37662, Note_on_c, 0, 74, 0
2, 37674, Note_on_c, 0, 72, 0
2, 37678, Note_on_c, 0, 71, 32
2, 37701, Note_on_c, 0, 71, 0
2, 37709, Note_on_c, 0, 59, 0
2, 37710, Note_on_c, 0, 62, 0
2, 37713, Note_on_c, 0, 72, 75
2, 37740, Note_on_c, 0, 72, 0
2, 37764, Note_on_c, 0, 74, 78
2, 37789, Note_on_c, 0, 74, 0
2, 37811, Note_on_c, 0, 76, 65
2, 37826, Control_c, 0, 64, 127
2, 37834, Note_on_c, 0, 76, 0
2, 37844, Note_on_c, 0, 55, 0
2, 37869, Note_on_c, 0, 52, 0
2, 37870, Note_on_c, 0, 79, 57
2, 37872, Note_on_c, 0, 77, 43
2, 37879, Note_on_c, 0, 77, 0
2, 37889, Note_on_c, 0, 79, 0
2, 37926, Control_c, 0, 64, 0
2, 37944, Note_on_c, 0, 73, 49
2, 37945, Note_on_c, 0, 80, 52
2, 37962, Note_on_c, 0, 64, 15
2, 37982, Control_c, 0, 64, 127
2, 38030, Note_on_c, 0, 52, 40
2, 38037, Note_on_c, 0, 80, 0
2, 38040, Note_on_c, 0, 64, 0
2, 38041, Note_on_c, 0, 73, 0
2, 38097, Note_on_c, 0, 52, 0
2, 38115, Note_on_c, 0, 60, 40
2, 38116, Note_on_c, 0, 64, 36
2, 38120, Note_on_c, 0, 52, 29
2, 38133, Control_c, 0, 64, 0
2, 38165, Control_c, 0, 64, 127
2, 38228, Note_on_c, 0, 52, 0
2, 38291, Note_on_c, 0, 64, 0
2, 38301, Note_on_c, 0, 60, 0
2, 38359, Note_on_c, 0, 40, 24
2, 38399, Note_on_c, 0, 56, 39
2, 38400, Note_on_c, 0, 59, 51
2, 38401, Control_c, 0, 64, 0
2, 38404, Note_on_c, 0, 52, 28
2, 38444, Note_on_c, 0, 40, 0
2, 38450, Control_c, 0, 64, 127
2, 38476, Note_on_c, 0, 40, 37
2, 38516, Note_on_c, 0, 56, 0
2, 38535, Note_on_c, 0, 56, 6
2, 38541, Note_on_c, 0, 52, 0
2, 38552, Note_on_c, 0, 59, 0
2, 38565, Note_on_c, 0, 56, 0
2, 38599, Note_on_c, 0, 58, 46
2, 38601, Note_on_c, 0, 56, 32
2, 38609, Control_c, 0, 64, 0
2, 38610, Note_on_c, 0, 52, 19
2, 38635, Control_c, 0, 64, 127
2, 38678, Note_on_c, 0, 56, 0
2, 38679, Note_on_c, 0, 58, 0
2, 38699, Note_on_c, 0, 52, 0
2, 38725, Note_on_c, 0, 40, 0
2, 38838, Note_on_c, 0, 80, 71
2, 38839, Note_on_c, 0, 68, 86
2, 38841, Note_on_c, 0, 53, 53
2, 38841, Note_on_c, 0, 81, 78
2, 38842, Note_on_c, 0, 60, 63
2, 38843, Note_on_c, 0, 57, 55
2, 38847, Control_c, 0, 64, 0
2, 38891, Note_on_c, 0, 81, 0
2, 38896, Note_on_c, 0, 80, 0
2, 38898, Note_on_c, 0, 68, 0
2, 38913, Note_on_c, 0, 68, 56
2, 38918, Note_on_c, 0, 80, 27
2, 38918, Note_on_c, 0, 81, 73
2, 38959, Note_on_c, 0, 68, 0
2, 38960, Note_on_c, 0, 80, 0
2, 38960, Note_on_c, 0, 81, 0
2, 38968, Note_on_c, 0, 57, 0
2, 38971, Note_on_c, 0, 60, 0
2, 38988, Note_on_c, 0, 53, 0
2, 39073, Control_c, 0, 64, 127
2, 39119, Control_c, 0, 64, 0
2, 39125, Note_on_c, 0, 83, 80
2, 39126, Note_on_c, 0, 71, 77
2, 39127, Note_on_c, 0, 59, 64
2, 39128, Note_on_c, 0, 53, 70
2, 39128, Note_on_c, 0, 64, 72
2, 39145, Control_c, 0, 64, 127
2, 39173, Note_on_c, 0, 71, 0
2, 39176, Note_on_c, 0, 53, 0
2, 39179, Note_on_c, 0, 64, 0
2, 39181, Note_on_c, 0, 83, 0
2, 39183, Note_on_c, 0, 59, 0
2, 39204, Note_on_c, 0, 84, 73
2, 39207, Note_on_c, 0, 72, 66
2, 39207, Note_on_c, 0, 59, 53
2, 39209, Note_on_c, 0, 64, 38
2, 39210, Note_on_c, 0, 53, 36
2, 39215, Note_on_c, 0, 64, 0
2, 39215, Note_on_c, 0, 72, 0
2, 39216, Note_on_c, 0, 53, 0
2, 39219, Note_on_c, 0, 84, 0
2, 39222, Note_on_c, 0, 59, 0
2, 39235, Control_c, 0, 64, 0
2, 39235, Note_on_c, 0, 59, 70
2, 39235, Note_on_c, 0, 53, 76
2, 39236, Note_on_c, 0, 64, 74
2, 39238, Note_on_c, 0, 86, 84
2, 39239, Note_on_c, 0, 74, 87
2, 39262, Control_c, 0, 64, 127
2, 39272, Note_on_c, 0, 86, 0
2, 39292, Note_on_c, 0, 74, 0
2, 39299, Note_on_c, 0, 64, 0
2, 39299, Note_on_c, 0, 53, 0
2, 39329, Note_on_c, 0, 59, 0
2, 39363, Control_c, 0, 64, 0
2, 39367, Note_on_c, 0, 79, 45
2, 39367, Note_on_c, 0, 62, 48
2, 39367, Note_on_c, 0, 59, 27
2, 39368, Note_on_c, 0, 67, 41
2, 39369, Note_on_c, 0, 52, 40
2, 39371, Note_on_c, 0, 55, 44
2, 39400, Control_c, 0, 64, 127
2, 39444, Note_on_c, 0, 55, 0
2, 39447, Note_on_c, 0, 52, 0
2, 39454, Note_on_c, 0, 59, 0
2, 39463, Note_on_c, 0, 62, 0
2, 39465, Note_on_c, 0, 67, 0
2, 39477, Note_on_c, 0, 79, 0
2, 39522, Control_c, 0, 64, 0
2, 39528, Note_on_c, 0, 76, 70
2, 39529, Note_on_c, 0, 72, 74
2, 39529, Note_on_c, 0, 67, 77
2, 39531, Note_on_c, 0, 55, 63
2, 39531, Note_on_c, 0, 61, 49
2, 39531, Note_on_c, 0, 65, 72
2, 39532, Note_on_c, 0, 60, 56
2, 39547, Note_on_c, 0, 65, 0
2, 39551, Control_c, 0, 64, 127
2, 39556, Note_on_c, 0, 67, 0
2, 39556, Note_on_c, 0, 60, 0
2, 39557, Note_on_c, 0, 61, 0
2, 39563, Note_on_c, 0, 65, 56
2, 39565, Note_on_c, 0, 79, 74
2, 39566, Note_on_c, 0, 61, 29
2, 39568, Note_on_c, 0, 60, 24
2, 39569, Note_on_c, 0, 72, 0
2, 39571, Note_on_c, 0, 76, 0
2, 39574, Note_on_c, 0, 65, 0
2, 39574, Note_on_c, 0, 60, 0
2, 39579, Note_on_c, 0, 61, 0
2, 39581, Note_on_c, 0, 79, 0
2, 39581, Note_on_c, 0, 55, 0
2, 39601, Control_c, 0, 64, 0
2, 39603, Note_on_c, 0, 55, 81
2, 39604, Note_on_c, 0, 77, 87
2, 39604, Note_on_c, 0, 84, 89
2, 39604, Note_on_c, 0, 61, 60
2, 39605, Note_on_c, 0, 65, 69
2, 39634, Note_on_c, 0, 65, 0
2, 39640, Note_on_c, 0, 55, 0
2, 39640, Note_on_c, 0, 61, 0
2, 39642, Note_on_c, 0, 84, 0
2, 39642, Note_on_c, 0, 77, 0
2, 39649, Note_on_c, 0, 81, 66
2, 39650, Note_on_c, 0, 55, 48
2, 39650, Note_on_c, 0, 65, 56
2, 39651, Note_on_c, 0, 61, 59
2, 39651, Note_on_c, 0, 77, 33
2, 39653, Note_on_c, 0, 72, 51
2, 39678, Control_c, 0, 64, 127
2, 39684, Note_on_c, 0, 81, 0
2, 39687, Note_on_c, 0, 77, 0
2, 39696, Note_on_c, 0, 72, 0
2, 39697, Note_on_c, 0, 65, 0
2, 39724, Note_on_c, 0, 61, 0
2, 39729, Control_c, 0, 64, 0
2, 39729, Note_on_c, 0, 73, 33
2, 39729, Note_on_c, 0, 76, 35
2, 39730, Note_on_c, 0, 64, 43
2, 39730, Note_on_c, 0, 70, 55
2, 39744, Control_c, 0, 64, 127
2, 39760, Note_on_c, 0, 64, 0
2, 39764, Note_on_c, 0, 70, 0
2, 39766, Control_c, 0, 64, 0
2, 39767, Note_on_c, 0, 79, 64
2, 39768, Note_on_c, 0, 70, 27
2, 39769, Note_on_c, 0, 61, 55
2, 39785, Control_c, 0, 64, 127
2, 39787, Note_on_c, 0, 76, 0
2, 39806, Note_on_c, 0, 79, 0
2, 39813, Note_on_c, 0, 70, 0
2, 39819, Note_on_c, 0, 55, 0
2, 39823, Note_on_c, 0, 73, 0
2, 39838, Note_on_c, 0, 61, 0
2, 39838, Control_c, 0, 64, 0
2, 39840, Note_on_c, 0, 62, 45
2, 39840, Note_on_c, 0, 77, 32
2, 39843, Note_on_c, 0, 69, 34
2, 39844, Note_on_c, 0, 72, 36
2, 39867, Control_c, 0, 64, 127
2, 39893, Note_on_c, 0, 62, 0
2, 39900, Note_on_c, 0, 77, 0
2, 39900, Note_on_c, 0, 72, 0
2, 39910, Note_on_c, 0, 69, 0
2, 39920, Note_on_c, 0, 64, 39
2, 39922, Note_on_c, 0, 60, 30
2, 39923, Note_on_c, 0, 53, 24
2, 39925, Note_on_c, 0, 57, 30
2, 39936, Control_c, 0, 64, 0
2, 39959, Note_on_c, 0, 65, 50
2, 39967, Note_on_c, 0, 64, 0
2, 39969, Note_on_c, 0, 65, 0
2, 39979, Note_on_c, 0, 57, 0
2, 39980, Note_on_c, 0, 60, 0
2, 39982, Note_on_c, 0, 53, 0
2, 39994, Note_on_c, 0, 67, 50
2, 40001, Note_on_c, 0, 67, 0
2, 40022, Note_on_c, 0, 69, 76
2, 40042, Note_on_c, 0, 69, 0
2, 40056, Note_on_c, 0, 72, 74
2, 40075, Note_on_c, 0, 72, 0
2, 40084, Note_on_c, 0, 64, 34
2, 40087, Note_on_c, 0, 59, 38
2, 40088, Note_on_c, 0, 53, 25
2, 40089, Note_on_c, 0, 71, 51
2, 40113, Note_on_c, 0, 71, 0
2, 40125, Note_on_c, 0, 72, 48
2, 40141, Note_on_c, 0, 72, 0
2, 40151, Note_on_c, 0, 74, 90
2, 40182, Note_on_c, 0, 74, 0
2, 40202, Note_on_c, 0, 71, 58
2, 40212, Note_on_c, 0, 64, 0
2, 40227, Note_on_c, 0, 71, 0
2, 40242, Note_on_c, 0, 67, 33
2, 40249, Note_on_c, 0, 59, 0
2, 40252, Note_on_c, 0, 67, 0
2, 40265, Note_on_c, 0, 53, 0
2, 40271, Control_c, 0, 64, 127
2, 40315, Control_c, 0, 64, 0
2, 40332, Note_on_c, 0, 62, 36
2, 40335, Note_on_c, 0, 57, 26
2, 40337, Note_on_c, 0, 58, 27
2, 40441, Note_on_c, 0, 69, 39
2, 40460, Note_on_c, 0, 69, 0
2, 40466, Note_on_c, 0, 70, 56
2, 40478, Note_on_c, 0, 70, 0
2, 40483, Note_on_c, 0, 62, 0
2, 40496, Note_on_c, 0, 74, 75
2, 40507, Note_on_c, 0, 58, 0
2, 40514, Note_on_c, 0, 74, 0
2, 40526, Note_on_c, 0, 81, 79
2, 40572, Note_on_c, 0, 81, 0
2, 40573, Note_on_c, 0, 57, 0
2, 40575, Note_on_c, 0, 78, 59
2, 40590, Note_on_c, 0, 78, 0
2, 40601, Note_on_c, 0, 79, 47
2, 40614, Note_on_c, 0, 79, 0
2, 40617, Note_on_c, 0, 81, 48
2, 40632, Note_on_c, 0, 81, 0
2, 40635, Note_on_c, 0, 82, 57
2, 40645, Note_on_c, 0, 82, 0
2, 40653, Note_on_c, 0, 84, 57
2, 40666, Note_on_c, 0, 84, 0
2, 40672, Note_on_c, 0, 85, 55
2, 40688, Note_on_c, 0, 85, 0
2, 40694, Note_on_c, 0, 87, 67
2, 40705, Note_on_c, 0, 87, 0
2, 40709, Note_on_c, 0, 63, 36
2, 40710, Note_on_c, 0, 52, 37
2, 40712, Note_on_c, 0, 58, 33
2, 40713, Note_on_c, 0, 56, 27
2, 40714, Note_on_c, 0, 88, 60
2, 40729, Note_on_c, 0, 88, 0
2, 40733, Note_on_c, 0, 89, 53
2, 40749, Note_on_c, 0, 89, 0
2, 40752, Note_on_c, 0, 52, 0
2, 40756, Note_on_c, 0, 90, 32
2, 40760, Note_on_c, 0, 56, 0
2, 40762, Note_on_c, 0, 90, 0
2, 40763, Note_on_c, 0, 63, 0
2, 40764, Note_on_c, 0, 58, 0
2, 40768, Note_on_c, 0, 91, 42
2, 40782, Note_on_c, 0, 91, 0
2, 40791, Note_on_c, 0, 92, 67
2, 40805, Note_on_c, 0, 92, 0
2, 40808, Note_on_c, 0, 64, 31
2, 40810, Note_on_c, 0, 57, 40
2, 40810, Note_on_c, 0, 60, 44
2, 40812, Note_on_c, 0, 53, 22
2, 40813, Note_on_c, 0, 93, 42
2, 40831, Note_on_c, 0, 93, 0
2, 40852, Note_on_c, 0, 95, 68
2, 40864, Note_on_c, 0, 95, 0
2, 40892, Note_on_c, 0, 94, 68
2, 40894, Note_on_c, 0, 82, 59
2, 40902, Note_on_c, 0, 92, 26
2, 40911, Note_on_c, 0, 82, 0
2, 40913, Note_on_c, 0, 94, 0
2, 40914, Note_on_c, 0, 83, 40
2, 40915, Note_on_c, 0, 95, 51
2, 40921, Note_on_c, 0, 95, 0
2, 40923, Note_on_c, 0, 83, 0
2, 40926, Note_on_c, 0, 92, 0
2, 40946, Note_on_c, 0, 82, 60
2, 40947, Note_on_c, 0, 94, 40
2, 40955, Note_on_c, 0, 64, 0
2, 40960, Note_on_c, 0, 82, 0
2, 40961, Note_on_c, 0, 94, 0
2, 40963, Note_on_c, 0, 60, 0
2, 40963, Note_on_c, 0, 83, 40
2, 40966, Note_on_c, 0, 57, 0
2, 40983, Note_on_c, 0, 83, 0
2, 40998, Note_on_c, 0, 93, 71
2, 41001, Note_on_c, 0, 81, 58
2, 41015, Note_on_c, 0, 81, 0
2, 41022, Note_on_c, 0, 93, 0
2, 41031, Note_on_c, 0, 57, 17
2, 41036, Note_on_c, 0, 64, 25
2, 41041, Note_on_c, 0, 60, 13
2, 41044, Note_on_c, 0, 93, 70
2, 41045, Note_on_c, 0, 81, 55
2, 41105, Note_on_c, 0, 53, 0
2, 41112, Note_on_c, 0, 57, 0
2, 41114, Note_on_c, 0, 64, 0
2, 41135, Note_on_c, 0, 60, 0
2, 41159, Control_c, 0, 64, 127
2, 41159, Note_on_c, 0, 53, 36
2, 41161, Note_on_c, 0, 57, 31
2, 41162, Note_on_c, 0, 60, 24
2, 41168, Note_on_c, 0, 60, 0
2, 41168, Note_on_c, 0, 81, 0
2, 41173, Note_on_c, 0, 57, 0
2, 41174, Note_on_c, 0, 93, 0
2, 41184, Note_on_c, 0, 53, 0
2, 41235, Note_on_c, 0, 62, 74
2, 41236, Note_on_c, 0, 51, 73
2, 41236, Note_on_c, 0, 95, 90
2, 41237, Note_on_c, 0, 57, 66
2, 41237, Note_on_c, 0, 83, 80
2, 41237, Note_on_c, 0, 91, 77
2, 41246, Control_c, 0, 64, 0
2, 41276, Control_c, 0, 64, 127
2, 41334, Note_on_c, 0, 95, 0
2, 41334, Note_on_c, 0, 62, 0
2, 41334, Note_on_c, 0, 51, 0
2, 41336, Note_on_c, 0, 91, 0
2, 41338, Note_on_c, 0, 83, 0
2, 41346, Note_on_c, 0, 57, 0
2, 41357, Note_on_c, 0, 62, 64
2, 41358, Note_on_c, 0, 51, 56
2, 41358, Note_on_c, 0, 93, 54
2, 41359, Note_on_c, 0, 57, 39
2, 41360, Note_on_c, 0, 81, 53
2, 41364, Control_c, 0, 64, 0
2, 41392, Control_c, 0, 64, 127
2, 41417, Note_on_c, 0, 93, 0
2, 41433, Note_on_c, 0, 81, 0
2, 41453, Note_on_c, 0, 62, 0
2, 41496, Note_on_c, 0, 57, 0
2, 41500, Note_on_c, 0, 51, 0
2, 41635, Note_on_c, 0, 71, 80
2, 41636, Note_on_c, 0, 51, 75
2, 41636, Note_on_c, 0, 66, 77
2, 41636, Note_on_c, 0, 62, 80
2, 41637, Control_c, 0, 64, 0
2, 41637, Note_on_c, 0, 57, 78
2, 41663, Note_on_c, 0, 66, 0
2, 41663, Note_on_c, 0, 67, 31
2, 41673, Note_on_c, 0, 57, 0
2, 41678, Note_on_c, 0, 62, 0
2, 41682, Note_on_c, 0, 51, 0
2, 41686, Note_on_c, 0, 67, 0
2, 41690, Note_on_c, 0, 71, 0
2, 41764, Note_on_c, 0, 70, 64
2, 41765, Note_on_c, 0, 62, 60
2, 41765, Note_on_c, 0, 46, 38
2, 41767, Note_on_c, 0, 56, 25
2, 41768, Note_on_c, 0, 65, 40
2, 41772, Note_on_c, 0, 46, 0
2, 41772, Note_on_c, 0, 62, 0
2, 41773, Note_on_c, 0, 56, 0
2, 41774, Note_on_c, 0, 65, 0
2, 41781, Note_on_c, 0, 70, 0
2, 41828, Control_c, 0, 64, 127
2, 41872, Control_c, 0, 64, 0
2, 41874, Note_on_c, 0, 56, 69
2, 41875, Note_on_c, 0, 72, 80
2, 41876, Note_on_c, 0, 67, 80
2, 41876, Note_on_c, 0, 64, 84
2, 41876, Note_on_c, 0, 62, 70
2, 41879, Note_on_c, 0, 65, 50
2, 41885, Note_on_c, 0, 65, 0
2, 41896, Control_c, 0, 64, 127
2, 41913, Control_c, 0, 64, 0
2, 41931, Control_c, 0, 64, 127
2, 41933, Note_on_c, 0, 67, 0
2, 41942, Note_on_c, 0, 56, 0
2, 41943, Note_on_c, 0, 64, 0
2, 41944, Note_on_c, 0, 62, 0
2, 41946, Note_on_c, 0, 72, 0
2, 41957, Note_on_c, 0, 70, 62
2, 41958, Note_on_c, 0, 62, 57
2, 41960, Note_on_c, 0, 65, 69
2, 41962, Note_on_c, 0, 56, 59
2, 41972, Control_c, 0, 64, 0
2, 42005, Control_c, 0, 64, 127
2, 42041, Note_on_c, 0, 56, 0
2, 42065, Note_on_c, 0, 62, 0
2, 42069, Note_on_c, 0, 56, 59
2, 42089, Note_on_c, 0, 56, 0
2, 42092, Note_on_c, 0, 65, 0
2, 42106, Note_on_c, 0, 70, 0
2, 42117, Note_on_c, 0, 56, 53
2, 42159, Note_on_c, 0, 56, 0
2, 42192, Note_on_c, 0, 55, 60
2, 42192, Note_on_c, 0, 85, 86
2, 42192, Note_on_c, 0, 61, 53
2, 42193, Note_on_c, 0, 73, 71
2, 42193, Note_on_c, 0, 65, 74
2, 42196, Note_on_c, 0, 60, 54
2, 42197, Control_c, 0, 64, 0
2, 42199, Note_on_c, 0, 58, 32
2, 42228, Control_c, 0, 64, 127
2, 42240, Note_on_c, 0, 85, 0
2, 42251, Note_on_c, 0, 73, 0
2, 42259, Note_on_c, 0, 65, 0
2, 42260, Note_on_c, 0, 60, 0
2, 42267, Note_on_c, 0, 61, 0
2, 42269, Note_on_c, 0, 55, 0
2, 42275, Note_on_c, 0, 58, 0
2, 42311, Note_on_c, 0, 81, 60
2, 42312, Note_on_c, 0, 55, 57
2, 42313, Note_on_c, 0, 69, 43
2, 42314, Note_on_c, 0, 65, 60
2, 42314, Note_on_c, 0, 76, 39
2, 42316, Note_on_c, 0, 61, 45
2, 42316, Note_on_c, 0, 73, 25
2, 42321, Control_c, 0, 64, 0
2, 42358, Control_c, 0, 64, 127
2, 42399, Note_on_c, 0, 81, 0
2, 42407, Note_on_c, 0, 76, 0
2, 42410, Note_on_c, 0, 65, 0
2, 42422, Note_on_c, 0, 73, 0
2, 42433, Note_on_c, 0, 69, 0
2, 42447, Note_on_c, 0, 61, 0
2, 42481, Note_on_c, 0, 61, 46
2, 42484, Note_on_c, 0, 64, 43
2, 42488, Control_c, 0, 64, 0
2, 42494, Control_c, 0, 64, 127
2, 42602, Note_on_c, 0, 64, 0
2, 42613, Note_on_c, 0, 61, 0
2, 42620, Note_on_c, 0, 55, 0
2, 42676, Note_on_c, 0, 72, 91
2, 42709, Note_on_c, 0, 72, 0
2, 42717, Control_c, 0, 64, 0
2, 42718, Note_on_c, 0, 74, 83
2, 42723, Note_on_c, 0, 60, 48
2, 42736, Note_on_c, 0, 57, 17
2, 42751, Control_c, 0, 64, 127
2, 42760, Note_on_c, 0, 57, 0
2, 42774, Note_on_c, 0, 60, 0
2, 42790, Note_on_c, 0, 74, 0
2, 42795, Note_on_c, 0, 69, 77
2, 42797, Note_on_c, 0, 60, 62
2, 42798, Note_on_c, 0, 50, 34
2, 42800, Note_on_c, 0, 57, 40
2, 42802, Note_on_c, 0, 53, 32
2, 42804, Control_c, 0, 64, 0
2, 42828, Control_c, 0, 64, 127
2, 42846, Note_on_c, 0, 60, 0
2, 42847, Note_on_c, 0, 57, 0
2, 42853, Note_on_c, 0, 53, 0
2, 42856, Note_on_c, 0, 69, 0
2, 42869, Note_on_c, 0, 50, 0
2, 42914, Note_on_c, 0, 65, 82
2, 42940, Note_on_c, 0, 65, 0
2, 42957, Note_on_c, 0, 64, 63
2, 42961, Control_c, 0, 64, 0
2, 42963, Note_on_c, 0, 43, 36
2, 42963, Note_on_c, 0, 53, 33
2, 43017, Control_c, 0, 64, 127
2, 43034, Note_on_c, 0, 53, 0
2, 43074, Note_on_c, 0, 64, 0
2, 43080, Note_on_c, 0, 62, 43
2, 43081, Note_on_c, 0, 53, 32
2, 43083, Control_c, 0, 64, 0
2, 43085, Note_on_c, 0, 59, 32
2, 43149, Note_on_c, 0, 59, 0
2, 43150, Control_c, 0, 64, 127
2, 43154, Note_on_c, 0, 62, 0
2, 43157, Note_on_c, 0, 53, 0
2, 43165, Note_on_c, 0, 50, 32
2, 43191, Note_on_c, 0, 50, 0
2, 43197, Control_c, 0, 64, 0
2, 43198, Note_on_c, 0, 67, 49
2, 43200, Note_on_c, 0, 55, 38
2, 43202, Note_on_c, 0, 62, 47
2, 43203, Note_on_c, 0, 52, 40
2, 43205, Note_on_c, 0, 43, 0
2, 43261, Control_c, 0, 64, 127
2, 43304, Note_on_c, 0, 55, 0
2, 43318, Note_on_c, 0, 52, 0
2, 43325, Note_on_c, 0, 62, 0
2, 43332, Note_on_c, 0, 67, 0
2, 43446, Note_on_c, 0, 55, 40
2, 43447, Note_on_c, 0, 84, 53
2, 43447, Control_c, 0, 64, 0
2, 43448, Note_on_c, 0, 61, 36
2, 43448, Note_on_c, 0, 65, 48
2, 43448, Note_on_c, 0, 72, 51
2, 43450, Note_on_c, 0, 60, 37
2, 43478, Control_c, 0, 64, 127
2, 43576, Note_on_c, 0, 60, 0
2, 43578, Note_on_c, 0, 65, 0
2, 43586, Note_on_c, 0, 72, 0
2, 43588, Note_on_c, 0, 61, 0
2, 43589, Note_on_c, 0, 55, 0
2, 43605, Note_on_c, 0, 84, 0
2, 43673, Control_c, 0, 64, 0
2, 43676, Note_on_c, 0, 93, 70
2, 43677, Note_on_c, 0, 64, 37
2, 43678, Note_on_c, 0, 53, 33
2, 43678, Note_on_c, 0, 81, 43
2, 43680, Note_on_c, 0, 57, 47
2, 43680, Note_on_c, 0, 60, 42
2, 43704, Control_c, 0, 64, 127
2, 43720, Note_on_c, 0, 93, 0
2, 43734, Note_on_c, 0, 57, 0
2, 43735, Note_on_c, 0, 81, 0
2, 43736, Note_on_c, 0, 60, 0
2, 43737, Note_on_c, 0, 64, 0
2, 43738, Note_on_c, 0, 53, 0
2, 43764, Note_on_c, 0, 64, 39
2, 43765, Note_on_c, 0, 79, 30
2, 43765, Note_on_c, 0, 91, 31
2, 43765, Note_on_c, 0, 53, 24
2, 43768, Note_on_c, 0, 57, 33
2, 43768, Note_on_c, 0, 60, 33
2, 43780, Note_on_c, 0, 79, 0
2, 43780, Note_on_c, 0, 64, 0
2, 43783, Note_on_c, 0, 91, 0
2, 43784, Note_on_c, 0, 60, 0
2, 43784, Note_on_c, 0, 57, 0
2, 43790, Note_on_c, 0, 53, 0
2, 43800, Note_on_c, 0, 64, 47
2, 43802, Note_on_c, 0, 53, 30
2, 43803, Note_on_c, 0, 93, 74
2, 43803, Note_on_c, 0, 57, 54
2, 43804, Note_on_c, 0, 60, 59
2, 43805, Note_on_c, 0, 81, 47
2, 43807, Control_c, 0, 64, 0
2, 43832, Note_on_c, 0, 93, 0
2, 43835, Note_on_c, 0, 64, 0
2, 43836, Note_on_c, 0, 57, 0
2, 43837, Note_on_c, 0, 60, 0
2, 43837, Note_on_c, 0, 81, 0
2, 43838, Note_on_c, 0, 53, 0
2, 43874, Control_c, 0, 64, 127
2, 43885, Note_on_c, 0, 79, 43
2, 43886, Note_on_c, 0, 91, 39
2, 43887, Note_on_c, 0, 60, 25
2, 43887, Note_on_c, 0, 57, 31
2, 43892, Note_on_c, 0, 79, 0
2, 43893, Note_on_c, 0, 60, 0
2, 43895, Note_on_c, 0, 91, 0
2, 43899, Note_on_c, 0, 90, 25
2, 43902, Note_on_c, 0, 57, 0
2, 43905, Note_on_c, 0, 90, 0
2, 43917, Control_c, 0, 64, 0
2, 43920, Note_on_c, 0, 92, 64
2, 43921, Note_on_c, 0, 80, 56
2, 43923, Note_on_c, 0, 64, 64
2, 43924, Note_on_c, 0, 53, 44
2, 43924, Note_on_c, 0, 59, 55
2, 43948, Control_c, 0, 64, 127
2, 43957, Note_on_c, 0, 93, 27
2, 43959, Note_on_c, 0, 80, 0
2, 43961, Note_on_c, 0, 92, 0
2, 43966, Note_on_c, 0, 81, 19
2, 43979, Note_on_c, 0, 53, 0
2, 43981, Note_on_c, 0, 93, 0
2, 43983, Note_on_c, 0, 81, 0
2, 43987, Note_on_c, 0, 64, 0
2, 43988, Note_on_c, 0, 59, 0
2, 44001, Note_on_c, 0, 64, 55
2, 44002, Note_on_c, 0, 79, 62
2, 44002, Note_on_c, 0, 59, 58
2, 44005, Note_on_c, 0, 91, 44
2, 44013, Note_on_c, 0, 64, 0
2, 44016, Note_on_c, 0, 79, 0
2, 44018, Note_on_c, 0, 91, 0
2, 44019, Note_on_c, 0, 59, 0
2, 44030, Control_c, 0, 64, 0
2, 44039, Note_on_c, 0, 82, 75
2, 44039, Note_on_c, 0, 94, 80
2, 44040, Note_on_c, 0, 59, 53
2, 44040, Note_on_c, 0, 53, 67
2, 44040, Note_on_c, 0, 64, 75
2, 44066, Control_c, 0, 64, 127
2, 44070, Note_on_c, 0, 95, 20
2, 44071, Note_on_c, 0, 82, 0
2, 44088, Note_on_c, 0, 94, 0
2, 44091, Note_on_c, 0, 95, 0
2, 44094, Note_on_c, 0, 59, 0
2, 44095, Note_on_c, 0, 64, 0
2, 44100, Note_on_c, 0, 53, 0
2, 44122, Note_on_c, 0, 62, 70
2, 44124, Note_on_c, 0, 57, 54
2, 44124, Note_on_c, 0, 93, 89
2, 44124, Note_on_c, 0, 58, 58
2, 44125, Control_c, 0, 64, 0
2, 44125, Note_on_c, 0, 81, 70
2, 44126, Note_on_c, 0, 52, 60
2, 44130, Note_on_c, 0, 83, 32
2, 44135, Note_on_c, 0, 83, 0
2, 44200, Control_c, 0, 64, 127
2, 44271, Note_on_c, 0, 93, 0
2, 44284, Note_on_c, 0, 81, 0
2, 44297, Note_on_c, 0, 62, 0
2, 44299, Note_on_c, 0, 57, 0
2, 44304, Note_on_c, 0, 58, 0
2, 44307, Note_on_c, 0, 52, 0
2, 44394, Control_c, 0, 64, 0
2, 44401, Note_on_c, 0, 61, 43
2, 44402, Note_on_c, 0, 64, 45
2, 44403, Note_on_c, 0, 58, 34
2, 44403, Note_on_c, 0, 45, 34
2, 44404, Note_on_c, 0, 55, 36
2, 44416, Note_on_c, 0, 58, 0
2, 44420, Note_on_c, 0, 45, 0
2, 44424, Note_on_c, 0, 61, 0
2, 44424, Note_on_c, 0, 64, 0
2, 44491, Control_c, 0, 64, 127
2, 44521, Note_on_c, 0, 68, 73
2, 44523, Note_on_c, 0, 56, 63
2, 44524, Control_c, 0, 64, 0
2, 44530, Note_on_c, 0, 55, 0
2, 44554, Note_on_c, 0, 68, 0
2, 44556, Note_on_c, 0, 69, 53
2, 44560, Note_on_c, 0, 57, 53
2, 44569, Control_c, 0, 64, 127
2, 44574, Note_on_c, 0, 69, 0
2, 44584, Note_on_c, 0, 57, 0
2, 44584, Control_c, 0, 64, 0
2, 44587, Note_on_c, 0, 56, 0
2, 44595, Note_on_c, 0, 72, 71
2, 44595, Note_on_c, 0, 65, 80
2, 44596, Note_on_c, 0, 60, 82
2, 44596, Note_on_c, 0, 69, 80
2, 44645, Note_on_c, 0, 69, 0
2, 44659, Control_c, 0, 64, 127
2, 44663, Note_on_c, 0, 69, 26
2, 44663, Note_on_c, 0, 71, 42
2, 44672, Note_on_c, 0, 71, 0
2, 44676, Note_on_c, 0, 69, 0
2, 44681, Note_on_c, 0, 72, 0
2, 44687, Note_on_c, 0, 65, 0
2, 44704, Note_on_c, 0, 60, 0
2, 44712, Note_on_c, 0, 65, 84
2, 44712, Note_on_c, 0, 69, 78
2, 44712, Note_on_c, 0, 60, 71
2, 44714, Note_on_c, 0, 57, 73
2, 44720, Control_c, 0, 64, 0
2, 44758, Control_c, 0, 64, 127
2, 44784, Note_on_c, 0, 57, 0
2, 44810, Note_on_c, 0, 65, 0
2, 44813, Note_on_c, 0, 69, 0
2, 44820, Note_on_c, 0, 60, 0
2, 44877, Control_c, 0, 64, 0
2, 44878, Note_on_c, 0, 65, 51
2, 44880, Note_on_c, 0, 62, 36
2, 44882, Note_on_c, 0, 57, 27
2, 44884, Note_on_c, 0, 53, 31
2, 44884, Note_on_c, 0, 60, 43
2, 44896, Note_on_c, 0, 53, 0
2, 44904, Note_on_c, 0, 62, 0
2, 44907, Note_on_c, 0, 60, 0
2, 44908, Note_on_c, 0, 65, 0
2, 44911, Note_on_c, 0, 57, 0
2, 44954, Control_c, 0, 64, 127
2, 44989, Control_c, 0, 64, 0
2, 44999, Note_on_c, 0, 62, 42
2, 45001, Note_on_c, 0, 60, 39
2, 45001, Note_on_c, 0, 50, 38
2, 45002, Note_on_c, 0, 53, 25
2, 45002, Note_on_c, 0, 57, 39
2, 45028, Note_on_c, 0, 50, 0
2, 45030, Note_on_c, 0, 53, 0
2, 45035, Note_on_c, 0, 62, 0
2, 45038, Note_on_c, 0, 60, 0
2, 45041, Note_on_c, 0, 57, 0
2, 45075, Control_c, 0, 64, 127
2, 45120, Control_c, 0, 64, 0
2, 45121, Note_on_c, 0, 41, 53
2, 45123, Note_on_c, 0, 57, 60
2, 45123, Note_on_c, 0, 53, 44
2, 45161, Note_on_c, 0, 53, 0
2, 45163, Note_on_c, 0, 41, 0
2, 45167, Note_on_c, 0, 57, 0
2, 45235, Note_on_c, 0, 60, 63
2, 45236, Note_on_c, 0, 41, 50
2, 45238, Note_on_c, 0, 53, 35
2, 45239, Note_on_c, 0, 57, 40
2, 45263, Note_on_c, 0, 41, 0
2, 45273, Note_on_c, 0, 57, 0
2, 45273, Note_on_c, 0, 53, 0
2, 45274, Note_on_c, 0, 60, 0
2, 45291, Control_c, 0, 64, 127
2, 45333, Control_c, 0, 64, 0
2, 45352, Note_on_c, 0, 64, 50
2, 45352, Note_on_c, 0, 56, 44
2, 45353, Note_on_c, 0, 43, 43
2, 45357, Note_on_c, 0, 59, 32
2, 45365, Note_on_c, 0, 59, 0
2, 45368, Control_c, 0, 64, 127
2, 45370, Note_on_c, 0, 56, 0
2, 45373, Note_on_c, 0, 64, 0
2, 45430, Note_on_c, 0, 67, 62
2, 45435, Note_on_c, 0, 53, 33
2, 45443, Note_on_c, 0, 43, 0
2, 45452, Note_on_c, 0, 53, 0
2, 45474, Note_on_c, 0, 67, 0
2, 45612, Note_on_c, 0, 74, 63
2, 45613, Note_on_c, 0, 36, 51
2, 45613, Note_on_c, 0, 66, 47
2, 45617, Note_on_c, 0, 52, 56
2, 45620, Control_c, 0, 64, 0
2, 45654, Control_c, 0, 64, 127
2, 45682, Note_on_c, 0, 43, 50
2, 45683, Note_on_c, 0, 36, 0
2, 45684, Note_on_c, 0, 52, 0
2, 45688, Note_on_c, 0, 43, 0
2, 45736, Note_on_c, 0, 57, 54
2, 45776, Note_on_c, 0, 59, 55
2, 45809, Note_on_c, 0, 74, 0
2, 45815, Note_on_c, 0, 63, 46
2, 45822, Note_on_c, 0, 66, 0
2, 45847, Note_on_c, 0, 63, 0
2, 45848, Note_on_c, 0, 66, 53
2, 45884, Note_on_c, 0, 66, 0
2, 45887, Note_on_c, 0, 74, 51
2, 45898, Note_on_c, 0, 74, 0
2, 45925, Note_on_c, 0, 78, 47
2, 45956, Note_on_c, 0, 78, 0
2, 45964, Note_on_c, 0, 83, 50
2, 46077, Note_on_c, 0, 83, 0
2, 46081, Note_on_c, 0, 81, 40
2, 46112, Note_on_c, 0, 81, 0
2, 46114, Note_on_c, 0, 83, 45
2, 46132, Note_on_c, 0, 83, 0
2, 46147, Note_on_c, 0, 88, 71
2, 46213, Note_on_c, 0, 88, 0
2, 46218, Note_on_c, 0, 86, 30
2, 46246, Note_on_c, 0, 86, 0
2, 46248, Note_on_c, 0, 88, 43
2, 46270, Note_on_c, 0, 88, 0
2, 46283, Note_on_c, 0, 95, 62
2, 46346, Note_on_c, 0, 95, 0
2, 46354, Note_on_c, 0, 93, 40
2, 46384, Note_on_c, 0, 95, 43
2, 46403, Note_on_c, 0, 93, 0
2, 46418, Note_on_c, 0, 95, 0
2, 46422, Note_on_c, 0, 100, 52
2, 46454, Note_on_c, 0, 100, 0
2, 46454, Note_on_c, 0, 57, 0
2, 46457, Note_on_c, 0, 59, 0
2, 46687, Control_c, 0, 64, 0
2, 46687, End_track
3, 0, Start_track
3, 0, Title_t, "Bass"
3, 0, Program_c, 1, 32
3, 11999, Note_on_c, 1, 38, 60
3, 12163, Note_on_c, 1, 38, 0
3, 12164, Note_on_c, 1, 45, 66
3, 12179, Note_on_c, 1, 45, 0
3, 12197, Note_on_c, 1, 44, 71
3, 12239, Note_on_c, 1, 44, 0
3, 12242, Note_on_c, 1, 43, 68
3, 12439, Note_on_c, 1, 55, 105
3, 12459, Note_on_c, 1, 43, 0
3, 12467, Note_on_c, 1, 55, 0
3, 12481, Note_on_c, 1, 52, 76
3, 12640, Note_on_c, 1, 47, 62
3, 12649, Note_on_c, 1, 52, 0
3, 12658, Note_on_c, 1, 47, 0
3, 12676, Note_on_c, 1, 46, 62
3, 12713, Note_on_c, 1, 46, 0
3, 12716, Note_on_c, 1, 45, 53
3, 12755, Note_on_c, 1, 60, 90
3, 12834, Note_on_c, 1, 60, 0
3, 12837, Note_on_c, 1, 52, 56
3, 12864, Note_on_c, 1, 45, 0
3, 12866, Note_on_c, 1, 52, 0
3, 12877, Note_on_c, 1, 39, 45
3, 12899, Note_on_c, 1, 39, 0
3, 12913, Note_on_c, 1, 38, 70
3, 13212, Note_on_c, 1, 38, 0
3, 13213, Note_on_c, 1, 43, 53
3, 13220, Note_on_c, 1, 43, 0
3, 13287, Note_on_c, 1, 43, 49
3, 13313, Note_on_c, 1, 43, 0
3, 13328, Note_on_c, 1, 41, 55
3, 13433, Note_on_c, 1, 41, 0
3, 13440, Note_on_c, 1, 40, 46
3, 13489, Note_on_c, 1, 50, 81
3, 13502, Note_on_c, 1, 40, 0
3, 13522, Note_on_c, 1, 50, 0
3, 13522, Note_on_c, 1, 48, 74
3, 13760, Note_on_c, 1, 45, 65
3, 13761, Note_on_c, 1, 48, 0
3, 13804, Note_on_c, 1, 55, 85
3, 13820, Note_on_c, 1, 45, 0
3, 13880, Note_on_c, 1, 50, 76
3, 13886, Note_on_c, 1, 55, 0
3, 13916, Note_on_c, 1, 50, 0
3, 13922, Note_on_c, 1, 38, 44
3, 14167, Note_on_c, 1, 43, 58
3, 14168, Note_on_c, 1, 38, 0
3, 14199, Note_on_c, 1, 43, 0
3, 14208, Note_on_c, 1, 43, 57
3, 14258, Note_on_c, 1, 55, 105
3, 14271, Note_on_c, 1, 43, 0
3, 14363, Note_on_c, 1, 43, 19
3, 14368, Note_on_c, 1, 43, 0
3, 14397, Note_on_c, 1, 55, 0
3, 14401, Note_on_c, 1, 52, 49
3, 14641, Note_on_c, 1, 52, 0
3, 14647, Note_on_c, 1, 48, 57
3, 14727, Note_on_c, 1, 41, 80
3, 14752, Note_on_c, 1, 41, 0
3, 14762, Note_on_c, 1, 48, 0
3, 14769, Note_on_c, 1, 38, 52
3, 14841, Note_on_c, 1, 38, 0
3, 14842, Note_on_c, 1, 39, 59
3, 14878, Note_on_c, 1, 39, 0
3, 14886, Note_on_c, 1, 40, 61
3, 14963, Note_on_c, 1, 56, 74
3, 15308, Note_on_c, 1, 40, 0
3, 15317, Note_on_c, 1, 39, 46
3, 15319, Note_on_c, 1, 56, 0
3, 15359, Note_on_c, 1, 39, 0
3, 15362, Note_on_c, 1, 40, 58
3, 15718, Note_on_c, 1, 56, 91
3, 15737, Note_on_c, 1, 40, 0
3, 15751, Note_on_c, 1, 57, 71
3, 15756, Note_on_c, 1, 56, 0
3, 15780, Note_on_c, 1, 57, 0
3, 15791, Note_on_c, 1, 59, 80
3, 15826, Note_on_c, 1, 59, 0
3, 15833, Note_on_c, 1, 53, 71
3, 16001, Note_on_c, 1, 48, 60
3, 16005, Note_on_c, 1, 53, 0
3, 16008, Note_on_c, 1, 48, 0
3, 16037, Note_on_c, 1, 42, 59
3, 16074, Note_on_c, 1, 42, 0
3, 16081, Note_on_c, 1, 43, 51
3, 16156, Note_on_c, 1, 55, 101
3, 16235, Note_on_c, 1, 43, 0
3, 16283, Note_on_c, 1, 43, 48
3, 16288, Note_on_c, 1, 43, 0
3, 16316, Note_on_c, 1, 55, 0
3, 16321, Note_on_c, 1, 52, 81
3, 16399, Note_on_c, 1, 52, 0
3, 16406, Note_on_c, 1, 47, 62
3, 16414, Note_on_c, 1, 47, 0
3, 16445, Note_on_c, 1, 40, 62
3, 16562, Note_on_c, 1, 45, 66
3, 16563, Note_on_c, 1, 40, 0
3, 16677, Note_on_c, 1, 45, 0
3, 16678, Note_on_c, 1, 33, 59
3, 16802, Note_on_c, 1, 38, 56
3, 16806, Note_on_c, 1, 33, 0
3, 16924, Note_on_c, 1, 38, 0
3, 16924, Note_on_c, 1, 48, 110
3, 16936, Note_on_c, 1, 48, 0
3, 16962, Note_on_c, 1, 45, 54
3, 16980, Note_on_c, 1, 45, 0
3, 16998, Note_on_c, 1, 44, 69
3, 17072, Note_on_c, 1, 44, 0
3, 17082, Note_on_c, 1, 43, 64
3, 17157, Note_on_c, 1, 43, 0
3, 17160, Note_on_c, 1, 55, 94
3, 17277, Note_on_c, 1, 55, 0
3, 17277, Note_on_c, 1, 48, 74
3, 17477, Note_on_c, 1, 62, 99
3, 17549, Note_on_c, 1, 62, 0
3, 17556, Note_on_c, 1, 60, 80
3, 17643, Note_on_c, 1, 55, 66
3, 17651, Note_on_c, 1, 60, 0
3, 17679, Note_on_c, 1, 48, 0
3, 17722, Note_on_c, 1, 40, 74
3, 17725, Note_on_c, 1, 55, 0
3, 17760, Note_on_c, 1, 40, 0
3, 17764, Note_on_c, 1, 41, 87
3, 17920, Note_on_c, 1, 36, 53
3, 17923, Note_on_c, 1, 41, 0
3, 17935, Note_on_c, 1, 36, 0
3, 17953, Note_on_c, 1, 33, 62
3, 17983, Note_on_c, 1, 33, 0
3, 17990, Note_on_c, 1, 29, 73
3, 18242, Note_on_c, 1, 29, 0
3, 18243, Note_on_c, 1, 35, 63
3, 18327, Note_on_c, 1, 47, 105
3, 18499, Note_on_c, 1, 35, 0
3, 18557, Note_on_c, 1, 35, 81
3, 18670, Note_on_c, 1, 35, 0
3, 18676, Note_on_c, 1, 34, 86
3, 18700, Note_on_c, 1, 47, 0
3, 18794, Note_on_c, 1, 50, 82
3, 18986, Note_on_c, 1, 34, 0
3, 19082, Note_on_c, 1, 34, 82
3, 19094, Note_on_c, 1, 50, 0
3, 19195, Note_on_c, 1, 34, 0
3, 19204, Note_on_c, 1, 33, 70
3, 19281, Note_on_c, 1, 49, 83
3, 19481, Note_on_c, 1, 33, 0
3, 19484, Note_on_c, 1, 40, 69
3, 19497, Note_on_c, 1, 40, 0
3, 19516, Note_on_c, 1, 36, 68
3, 19550, Note_on_c, 1, 36, 0
3, 19555, Note_on_c, 1, 49, 0
3, 19556, Note_on_c, 1, 37, 79
3, 19679, Note_on_c, 1, 37, 0
3, 19682, Note_on_c, 1, 38, 56
3, 19720, Note_on_c, 1, 48, 68
3, 19740, Note_on_c, 1, 48, 0
3, 19758, Note_on_c, 1, 45, 52
3, 19760, Note_on_c, 1, 47, 41
3, 19766, Note_on_c, 1, 47, 0
3, 19786, Note_on_c, 1, 45, 0
3, 19798, Note_on_c, 1, 41, 62
3, 19877, Note_on_c, 1, 41, 0
3, 19881, Note_on_c, 1, 42, 64
3, 19916, Note_on_c, 1, 42, 0
3, 19922, Note_on_c, 1, 38, 0
3, 19924, Note_on_c, 1, 43, 57
3, 20003, Note_on_c, 1, 38, 74
3, 20004, Note_on_c, 1, 43, 0
3, 20030, Note_on_c, 1, 38, 0
3, 20041, Note_on_c, 1, 31, 74
3, 20157, Note_on_c, 1, 31, 0
3, 20162, Note_on_c, 1, 40, 68
3, 20278, Note_on_c, 1, 52, 99
3, 20305, Note_on_c, 1, 40, 0
3, 20437, Note_on_c, 1, 48, 70
3, 20439, Note_on_c, 1, 52, 0
3, 20449, Note_on_c, 1, 48, 0
3, 20474, Note_on_c, 1, 45, 73
3, 20509, Note_on_c, 1, 45, 0
3, 20520, Note_on_c, 1, 40, 70
3, 20593, Note_on_c, 1, 40, 0
3, 20600, Note_on_c, 1, 33, 44
3, 20639, Note_on_c, 1, 33, 0
3, 20642, Note_on_c, 1, 38, 80
3, 20801, Note_on_c, 1, 45, 82
3, 20837, Note_on_c, 1, 45, 0
3, 20837, Note_on_c, 1, 44, 73
3, 20867, Note_on_c, 1, 44, 0
3, 20878, Note_on_c, 1, 43, 69
3, 20899, Note_on_c, 1, 38, 0
3, 20980, Note_on_c, 1, 43, 0
3, 20996, Note_on_c, 1, 43, 58
3, 21026, Note_on_c, 1, 43, 0
3, 21031, Note_on_c, 1, 42, 49
3, 21039, Note_on_c, 1, 42, 0
3, 21072, Note_on_c, 1, 40, 80
3, 21316, Note_on_c, 1, 40, 0
3, 21319, Note_on_c, 1, 34, 58
3, 21358, Note_on_c, 1, 34, 0
3, 21361, Note_on_c, 1, 33, 59
3, 21439, Note_on_c, 1, 52, 94
3, 21475, Note_on_c, 1, 52, 0
3, 21480, Note_on_c, 1, 33, 0
3, 21483, Note_on_c, 1, 49, 60
3, 21560, Note_on_c, 1, 39, 57
3, 21567, Note_on_c, 1, 49, 0
3, 21599, Note_on_c, 1, 39, 0
3, 21603, Note_on_c, 1, 38, 62
3, 21786, Note_on_c, 1, 38, 0
3, 21846, Note_on_c, 1, 40, 83
3, 22044, Note_on_c, 1, 39, 47
3, 22052, Note_on_c, 1, 40, 0
3, 22075, Note_on_c, 1, 39, 0
3, 22081, Note_on_c, 1, 41, 96
3, 22204, Note_on_c, 1, 41, 0
3, 22238, Note_on_c, 1, 41, 51
3, 22260, Note_on_c, 1, 41, 0
3, 22271, Note_on_c, 1, 42, 76
3, 22305, Note_on_c, 1, 42, 0
3, 22309, Note_on_c, 1, 43, 80
3, 22395, Note_on_c, 1, 55, 115
3, 22560, Note_on_c, 1, 43, 0
3, 22640, Note_on_c, 1, 48, 92
3, 22642, Note_on_c, 1, 55, 0
3, 23402, Note_on_c, 1, 52, 91
3, 23429, Note_on_c, 1, 48, 0
3, 23431, Note_on_c, 1, 52, 0
3, 23483, Note_on_c, 1, 49, 64
3, 23513, Note_on_c, 1, 49, 0
3, 23523, Note_on_c, 1, 50, 60
3, 23532, Note_on_c, 1, 50, 0
3, 23558, Note_on_c, 1, 45, 66
3, 23578, Note_on_c, 1, 45, 0
3, 23594, Note_on_c, 1, 41, 62
3, 23623, Note_on_c, 1, 41, 0
3, 23634, Note_on_c, 1, 38, 53
3, 23716, Note_on_c, 1, 38, 0
3, 23716, Note_on_c, 1, 42, 57
3, 23756, Note_on_c, 1, 42, 0
3, 23763, Note_on_c, 1, 43, 62
3, 23873, Note_on_c, 1, 43, 0
3, 23877, Note_on_c, 1, 35, 92
3, 23993, Note_on_c, 1, 35, 0
3, 23998, Note_on_c, 1, 36, 79
3, 24110, Note_on_c, 1, 36, 0
3, 24115, Note_on_c, 1, 34, 88
3, 24225, Note_on_c, 1, 34, 0
3, 24232, Note_on_c, 1, 33, 78
3, 24311, Note_on_c, 1, 33, 0
3, 24313, Note_on_c, 1, 40, 87
3, 24348, Note_on_c, 1, 40, 0
3, 24354, Note_on_c, 1, 36, 80
3, 24426, Note_on_c, 1, 36, 0
3, 24432, Note_on_c, 1, 37, 74
3, 24470, Note_on_c, 1, 37, 0
3, 24473, Note_on_c, 1, 38, 74
3, 24552, Note_on_c, 1, 52, 115
3, 24566, Note_on_c, 1, 38, 0
3, 24640, Note_on_c, 1, 48, 79
3, 24644, Note_on_c, 1, 52, 0
3, 24651, Note_on_c, 1, 48, 0
3, 24675, Note_on_c, 1, 45, 67
3, 24698, Note_on_c, 1, 45, 0
3, 24716, Note_on_c, 1, 43, 67
3, 24793, Note_on_c, 1, 38, 45
3, 24796, Note_on_c, 1, 43, 0
3, 24807, Note_on_c, 1, 38, 0
3, 24831, Note_on_c, 1, 35, 73
3, 24952, Note_on_c, 1, 35, 0
3, 24958, Note_on_c, 1, 36, 64
3, 25071, Note_on_c, 1, 36, 0
3, 25079, Note_on_c, 1, 47, 83
3, 25192, Note_on_c, 1, 47, 0
3, 25204, Note_on_c, 1, 45, 78
3, 25317, Note_on_c, 1, 45, 0
3, 25319, Note_on_c, 1, 40, 71
3, 25432, Note_on_c, 1, 40, 0
3, 25439, Note_on_c, 1, 38, 57
3, 25560, Note_on_c, 1, 45, 125
3, 25564, Note_on_c, 1, 38, 0
3, 25628, Note_on_c, 1, 45, 0
3, 25639, Note_on_c, 1, 45, 76
3, 25665, Note_on_c, 1, 45, 0
3, 25678, Note_on_c, 1, 47, 90
3, 25791, Note_on_c, 1, 47, 0
3, 25800, Note_on_c, 1, 43, 74
3, 25918, Note_on_c, 1, 40, 64
3, 25920, Note_on_c, 1, 43, 0
3, 26041, Note_on_c, 1, 50, 99
3, 26044, Note_on_c, 1, 40, 0
3, 26124, Note_on_c, 1, 40, 25
3, 26134, Note_on_c, 1, 40, 0
3, 26162, Note_on_c, 1, 48, 71
3, 26164, Note_on_c, 1, 50, 0
3, 26244, Note_on_c, 1, 38, 54
3, 26257, Note_on_c, 1, 48, 0
3, 26272, Note_on_c, 1, 38, 0
3, 26281, Note_on_c, 1, 39, 69
3, 26392, Note_on_c, 1, 39, 0
3, 26395, Note_on_c, 1, 40, 66
3, 26517, Note_on_c, 1, 52, 95
3, 26576, Note_on_c, 1, 40, 0
3, 26599, Note_on_c, 1, 40, 52
3, 26630, Note_on_c, 1, 52, 0
3, 26640, Note_on_c, 1, 56, 83
3, 26758, Note_on_c, 1, 54, 77
3, 26767, Note_on_c, 1, 56, 0
3, 26772, Note_on_c, 1, 40, 0
3, 26840, Note_on_c, 1, 40, 44
3, 26849, Note_on_c, 1, 40, 0
3, 26876, Note_on_c, 1, 52, 72
3, 26884, Note_on_c, 1, 54, 0
3, 26994, Note_on_c, 1, 52, 0
3, 26995, Note_on_c, 1, 50, 74
3, 27100, Note_on_c, 1, 50, 0
3, 27116, Note_on_c, 1, 47, 87
3, 27195, Note_on_c, 1, 47, 0
3, 27198, Note_on_c, 1, 44, 71
3, 27236, Note_on_c, 1, 40, 95
3, 27238, Note_on_c, 1, 44, 0
3, 27360, Note_on_c, 1, 41, 83
3, 27365, Note_on_c, 1, 40, 0
3, 27444, Note_on_c, 1, 50, 92
3, 27448, Note_on_c, 1, 49, 37
3, 27454, Note_on_c, 1, 49, 0
3, 27476, Note_on_c, 1, 50, 0
3, 27487, Note_on_c, 1, 45, 80
3, 27496, Note_on_c, 1, 41, 0
3, 27596, Note_on_c, 1, 45, 0
3, 27603, Note_on_c, 1, 47, 74
3, 27680, Note_on_c, 1, 43, 59
3, 27703, Note_on_c, 1, 47, 0
3, 27706, Note_on_c, 1, 43, 0
3, 27719, Note_on_c, 1, 38, 76
3, 27834, Note_on_c, 1, 38, 0
3, 27834, Note_on_c, 1, 40, 71
3, 27955, Note_on_c, 1, 32, 85
3, 27956, Note_on_c, 1, 40, 0
3, 28069, Note_on_c, 1, 32, 0
3, 28077, Note_on_c, 1, 33, 101
3, 28185, Note_on_c, 1, 33, 0
3, 28198, Note_on_c, 1, 33, 94
3, 28312, Note_on_c, 1, 33, 0
3, 28316, Note_on_c, 1, 29, 90
3, 28432, Note_on_c, 1, 29, 0
3, 28434, Note_on_c, 1, 33, 94
3, 28549, Note_on_c, 1, 33, 0
3, 28555, Note_on_c, 1, 31, 81
3, 28678, Note_on_c, 1, 31, 0
3, 28679, Note_on_c, 1, 43, 103
3, 28801, Note_on_c, 1, 43, 0
3, 28805, Note_on_c, 1, 36, 94
3, 28921, Note_on_c, 1, 50, 118
3, 28932, Note_on_c, 1, 36, 0
3, 29004, Note_on_c, 1, 36, 30
3, 29020, Note_on_c, 1, 36, 0
3, 29036, Note_on_c, 1, 50, 0
3, 29040, Note_on_c, 1, 48, 89
3, 29122, Note_on_c, 1, 43, 74
3, 29140, Note_on_c, 1, 43, 0
3, 29161, Note_on_c, 1, 36, 83
3, 29267, Note_on_c, 1, 36, 0
3, 29274, Note_on_c, 1, 48, 0
3, 29276, Note_on_c, 1, 29, 95
3, 29391, Note_on_c, 1, 41, 90
3, 29410, Note_on_c, 1, 29, 0
3, 29504, Note_on_c, 1, 41, 0
3, 29517, Note_on_c, 1, 41, 90
3, 29636, Note_on_c, 1, 41, 0
3, 29640, Note_on_c, 1, 29, 85
3, 29645, Note_on_c, 1, 41, 35
3, 29652, Note_on_c, 1, 41, 0
3, 29755, Note_on_c, 1, 29, 0
3, 29760, Note_on_c, 1, 35, 105
3, 29876, Note_on_c, 1, 47, 103
3, 29976, Note_on_c, 1, 47, 0
3, 29999, Note_on_c, 1, 47, 89
3, 30026, Note_on_c, 1, 35, 0
3, 30077, Note_on_c, 1, 35, 110
3, 30218, Note_on_c, 1, 35, 0
3, 30237, Note_on_c, 1, 34, 88
3, 30249, Note_on_c, 1, 47, 0
3, 30438, Note_on_c, 1, 50, 115
3, 30500, Note_on_c, 1, 34, 0
3, 30557, Note_on_c, 1, 34, 85
3, 30628, Note_on_c, 1, 34, 0
3, 30639, Note_on_c, 1, 31, 67
3, 30662, Note_on_c, 1, 31, 0
3, 30674, Note_on_c, 1, 32, 82
3, 30678, Note_on_c, 1, 50, 0
3, 30710, Note_on_c, 1, 32, 0
3, 30715, Note_on_c, 1, 33, 90
3, 30796, Note_on_c, 1, 49, 90
3, 30825, Note_on_c, 1, 33, 0
3, 30839, Note_on_c, 1, 45, 79
3, 30844, Note_on_c, 1, 49, 0
3, 30921, Note_on_c, 1, 36, 62
3, 30932, Note_on_c, 1, 36, 0
3, 30943, Note_on_c, 1, 45, 0
3, 30961, Note_on_c, 1, 40, 84
3, 31084, Note_on_c, 1, 40, 0
3, 31085, Note_on_c, 1, 36, 75
3, 31115, Note_on_c, 1, 36, 0
3, 31128, Note_on_c, 1, 37, 46
3, 31152, Note_on_c, 1, 37, 0
3, 31163, Note_on_c, 1, 38, 89
3, 31241, Note_on_c, 1, 45, 96
3, 31303, Note_on_c, 1, 37, 36
3, 31316, Note_on_c, 1, 45, 0
3, 31325, Note_on_c, 1, 41, 58
3, 31327, Note_on_c, 1, 37, 0
3, 31374, Note_on_c, 1, 41, 0
3, 31403, Note_on_c, 1, 48, 90
3, 31458, Note_on_c, 1, 38, 0
3, 31473, Note_on_c, 1, 48, 0
3, 31480, Note_on_c, 1, 47, 77
3, 31532, Note_on_c, 1, 38, 43
3, 31538, Note_on_c, 1, 38, 0
3, 31554, Note_on_c, 1, 47, 0
3, 31564, Note_on_c, 1, 43, 73
3, 31639, Note_on_c, 1, 43, 0
3, 31643, Note_on_c, 1, 41, 88
3, 31709, Note_on_c, 1, 41, 0
3, 31720, Note_on_c, 1, 40, 70
3, 31758, Note_on_c, 1, 35, 71
3, 31766, Note_on_c, 1, 40, 0
3, 31788, Note_on_c, 1, 35, 0
3, 31800, Note_on_c, 1, 34, 82
3, 31920, Note_on_c, 1, 34, 0
3, 31922, Note_on_c, 1, 33, 71
3, 32036, Note_on_c, 1, 33, 0
3, 32037, Note_on_c, 1, 40, 82
3, 32123, Note_on_c, 1, 37, 58
3, 32128, Note_on_c, 1, 40, 0
3, 32154, Note_on_c, 1, 37, 0
3, 32163, Note_on_c, 1, 38, 77
3, 32245, Note_on_c, 1, 48, 110
3, 32277, Note_on_c, 1, 48, 0
3, 32287, Note_on_c, 1, 45, 72
3, 32293, Note_on_c, 1, 38, 0
3, 32352, Note_on_c, 1, 45, 0
3, 32363, Note_on_c, 1, 46, 77
3, 32365, Note_on_c, 1, 38, 60
3, 32375, Note_on_c, 1, 38, 0
3, 32398, Note_on_c, 1, 46, 0
3, 32399, Note_on_c, 1, 47, 70
3, 32417, Note_on_c, 1, 47, 0
3, 32436, Note_on_c, 1, 43, 49
3, 32443, Note_on_c, 1, 43, 0
3, 32475, Note_on_c, 1, 38, 83
3, 32511, Note_on_c, 1, 38, 0
3, 32517, Note_on_c, 1, 31, 89
3, 32604, Note_on_c, 1, 38, 50
3, 32625, Note_on_c, 1, 38, 0
3, 32628, Note_on_c, 1, 31, 0
3, 32643, Note_on_c, 1, 40, 76
3, 32643, Note_on_c, 1, 41, 82
3, 32670, Note_on_c, 1, 41, 0
3, 32758, Note_on_c, 1, 40, 0
3, 32760, Note_on_c, 1, 34, 91
3, 32873, Note_on_c, 1, 34, 0
3, 32880, Note_on_c, 1, 33, 78
3, 33001, Note_on_c, 1, 40, 89
3, 33003, Note_on_c, 1, 33, 0
3, 33083, Note_on_c, 1, 37, 60
3, 33090, Note_on_c, 1, 40, 0
3, 33120, Note_on_c, 1, 37, 0
3, 33122, Note_on_c, 1, 38, 95
3, 33208, Note_on_c, 1, 37, 31
3, 33239, Note_on_c, 1, 37, 0
3, 33241, Note_on_c, 1, 50, 113
3, 33322, Note_on_c, 1, 37, 32
3, 33356, Note_on_c, 1, 50, 0
3, 33364, Note_on_c, 1, 52, 94
3, 33399, Note_on_c, 1, 37, 0
3, 33420, Note_on_c, 1, 38, 0
3, 33480, Note_on_c, 1, 40, 103
3, 33489, Note_on_c, 1, 52, 0
3, 33590, Note_on_c, 1, 37, 32
3, 33592, Note_on_c, 1, 40, 0
3, 33596, Note_on_c, 1, 37, 0
3, 33601, Note_on_c, 1, 41, 95
3, 33710, Note_on_c, 1, 41, 0
3, 33714, Note_on_c, 1, 29, 91
3, 33833, Note_on_c, 1, 29, 0
3, 33841, Note_on_c, 1, 31, 92
3, 33960, Note_on_c, 1, 43, 110
3, 33990, Note_on_c, 1, 31, 0
3, 34080, Note_on_c, 1, 36, 115
3, 34083, Note_on_c, 1, 43, 0
3, 34519, Note_on_c, 1, 50, 78
3, 34560, Note_on_c, 1, 50, 0
3, 34567, Note_on_c, 1, 48, 60
3, 34833, Note_on_c, 1, 36, 0
3, 34838, Note_on_c, 1, 40, 66
3, 34852, Note_on_c, 1, 40, 0
3, 34871, Note_on_c, 1, 36, 71
3, 34903, Note_on_c, 1, 36, 0
3, 34908, Note_on_c, 1, 48, 0
3, 34910, Note_on_c, 1, 37, 74
3, 35041, Note_on_c, 1, 37, 0
3, 35047, Note_on_c, 1, 38, 50
3, 35131, Note_on_c, 1, 45, 58
3, 35140, Note_on_c, 1, 45, 0
3, 35155, Note_on_c, 1, 38, 0
3, 35164, Note_on_c, 1, 48, 85
3, 35243, Note_on_c, 1, 38, 32
3, 35251, Note_on_c, 1, 38, 0
3, 35275, Note_on_c, 1, 48, 0
3, 35280, Note_on_c, 1, 47, 65
3, 35361, Note_on_c, 1, 38, 47
3, 35382, Note_on_c, 1, 38, 0
3, 35391, Note_on_c, 1, 47, 0
3, 35396, Note_on_c, 1, 31, 71
3, 35514, Note_on_c, 1, 31, 0
3, 35517, Note_on_c, 1, 36, 58
3, 35713, Note_on_c, 1, 36, 0
3, 35720, Note_on_c, 1, 34, 60
3, 35753, Note_on_c, 1, 34, 0
3, 35760, Note_on_c, 1, 33, 64
3, 35841, Note_on_c, 1, 40, 80
3, 35849, Note_on_c, 1, 33, 0
3, 35870, Note_on_c, 1, 40, 0
3, 35876, Note_on_c, 1, 48, 115
3, 35949, Note_on_c, 1, 48, 0
3, 35958, Note_on_c, 1, 48, 96
3, 35988, Note_on_c, 1, 48, 0
3, 35998, Note_on_c, 1, 38, 80
3, 36073, Note_on_c, 1, 38, 0
3, 36079, Note_on_c, 1, 38, 66
3, 36115, Note_on_c, 1, 48, 118
3, 36135, Note_on_c, 1, 38, 0
3, 36200, Note_on_c, 1, 38, 58
3, 36207, Note_on_c, 1, 38, 0
3, 36232, Note_on_c, 1, 48, 0
3, 36236, Note_on_c, 1, 47, 88
3, 36325, Note_on_c, 1, 38, 44
3, 36333, Note_on_c, 1, 38, 0
3, 36360, Note_on_c, 1, 31, 87
3, 36364, Note_on_c, 1, 47, 0
3, 36597, Note_on_c, 1, 31, 0
3, 36599, Note_on_c, 1, 50, 110
3, 36690, Note_on_c, 1, 36, 34
3, 36698, Note_on_c, 1, 36, 0
3, 36719, Note_on_c, 1, 50, 0
3, 36721, Note_on_c, 1, 48, 81
3, 36801, Note_on_c, 1, 40, 50
3, 36808, Note_on_c, 1, 40, 0
3, 36835, Note_on_c, 1, 48, 0
3, 36840, Note_on_c, 1, 45, 73
3, 36958, Note_on_c, 1, 45, 0
3, 36961, Note_on_c, 1, 38, 76
3, 37239, Note_on_c, 1, 48, 80
3, 37252, Note_on_c, 1, 38, 0
3, 37263, Note_on_c, 1, 48, 0
3, 37273, Note_on_c, 1, 45, 76
3, 37307, Note_on_c, 1, 45, 0
3, 37320, Note_on_c, 1, 43, 74
3, 37399, Note_on_c, 1, 38, 66
3, 37414, Note_on_c, 1, 38, 0
3, 37435, Note_on_c, 1, 36, 80
3, 37436, Note_on_c, 1, 43, 0
3, 37555, Note_on_c, 1, 47, 95
3, 37570, Note_on_c, 1, 36, 0
3, 37667, Note_on_c, 1, 47, 0
3, 37679, Note_on_c, 1, 40, 79
3, 37874, Note_on_c, 1, 33, 53
3, 37895, Note_on_c, 1, 33, 0
3, 37909, Note_on_c, 1, 40, 0
3, 37919, Note_on_c, 1, 28, 96
3, 38156, Note_on_c, 1, 40, 99
3, 38395, Note_on_c, 1, 28, 0
3, 38400, Note_on_c, 1, 32, 80
3, 38627, Note_on_c, 1, 40, 0
3, 38632, Note_on_c, 1, 32, 0
3, 38635, Note_on_c, 1, 35, 83
3, 38754, Note_on_c, 1, 35, 0
3, 38758, Note_on_c, 1, 40, 99
3, 38874, Note_on_c, 1, 40, 0
3, 38878, Note_on_c, 1, 41, 115
3, 38958, Note_on_c, 1, 36, 101
3, 38960, Note_on_c, 1, 41, 0
3, 38993, Note_on_c, 1, 36, 0
3, 38996, Note_on_c, 1, 33, 71
3, 38998, Note_on_c, 1, 35, 68
3, 39003, Note_on_c, 1, 35, 0
3, 39112, Note_on_c, 1, 33, 0
3, 39119, Note_on_c, 1, 31, 83
3, 39123, Note_on_c, 1, 33, 50
3, 39129, Note_on_c, 1, 33, 0
3, 39212, Note_on_c, 1, 38, 29
3, 39218, Note_on_c, 1, 38, 0
3, 39241, Note_on_c, 1, 43, 118
3, 39253, Note_on_c, 1, 31, 0
3, 39355, Note_on_c, 1, 43, 0
3, 39355, Note_on_c, 1, 40, 94
3, 39474, Note_on_c, 1, 34, 91
3, 39480, Note_on_c, 1, 40, 0
3, 39590, Note_on_c, 1, 34, 0
3, 39597, Note_on_c, 1, 33, 82
3, 39600, Note_on_c, 1, 34, 60
3, 39611, Note_on_c, 1, 34, 0
3, 39717, Note_on_c, 1, 40, 89
3, 39728, Note_on_c, 1, 33, 0
3, 39781, Note_on_c, 1, 36, 82
3, 39788, Note_on_c, 1, 40, 0
3, 39831, Note_on_c, 1, 36, 0
3, 39839, Note_on_c, 1, 38, 88
3, 39892, Note_on_c, 1, 38, 0
3, 39900, Note_on_c, 1, 38, 92
3, 40084, Note_on_c, 1, 45, 113
3, 40084, Note_on_c, 1, 47, 89
3, 40090, Note_on_c, 1, 47, 0
3, 40097, Note_on_c, 1, 38, 0
3, 40145, Note_on_c, 1, 43, 95
3, 40152, Note_on_c, 1, 45, 0
3, 40316, Note_on_c, 1, 36, 96
3, 40322, Note_on_c, 1, 43, 0
3, 40439, Note_on_c, 1, 50, 113
3, 40444, Note_on_c, 1, 48, 38
3, 40449, Note_on_c, 1, 48, 0
3, 40466, Note_on_c, 1, 36, 0
3, 40553, Note_on_c, 1, 50, 0
3, 40558, Note_on_c, 1, 48, 79
3, 40638, Note_on_c, 1, 48, 0
3, 40638, Note_on_c, 1, 43, 60
3, 40656, Note_on_c, 1, 43, 0
3, 40676, Note_on_c, 1, 40, 79
3, 40791, Note_on_c, 1, 41, 92
3, 40793, Note_on_c, 1, 40, 0
3, 41036, Note_on_c, 1, 36, 81
3, 41042, Note_on_c, 1, 41, 0
3, 41270, Note_on_c, 1, 36, 0
3, 41278, Note_on_c, 1, 35, 88
3, 41518, Note_on_c, 1, 47, 105
3, 41522, Note_on_c, 1, 42, 39
3, 41528, Note_on_c, 1, 42, 0
3, 41752, Note_on_c, 1, 47, 0
3, 41752, Note_on_c, 1, 46, 111
3, 41771, Note_on_c, 1, 35, 0
3, 41990, Note_on_c, 1, 34, 92
3, 42005, Note_on_c, 1, 46, 0
3, 42227, Note_on_c, 1, 34, 0
3, 42234, Note_on_c, 1, 33, 80
3, 42235, Note_on_c, 1, 34, 32
3, 42246, Note_on_c, 1, 34, 0
3, 42476, Note_on_c, 1, 45, 95
3, 42481, Note_on_c, 1, 33, 0
3, 42485, Note_on_c, 1, 45, 0
3, 42557, Note_on_c, 1, 40, 82
3, 42586, Note_on_c, 1, 40, 0
3, 42596, Note_on_c, 1, 37, 87
3, 42706, Note_on_c, 1, 37, 0
3, 42714, Note_on_c, 1, 38, 84
3, 42833, Note_on_c, 1, 45, 115
3, 42843, Note_on_c, 1, 38, 0
3, 42920, Note_on_c, 1, 38, 57
3, 42932, Note_on_c, 1, 38, 0
3, 42949, Note_on_c, 1, 45, 0
3, 42955, Note_on_c, 1, 43, 91
3, 43156, Note_on_c, 1, 43, 0
3, 43161, Note_on_c, 1, 41, 88
3, 43202, Note_on_c, 1, 41, 0
3, 43205, Note_on_c, 1, 40, 81
3, 43280, Note_on_c, 1, 34, 62
3, 43282, Note_on_c, 1, 40, 0
3, 43308, Note_on_c, 1, 34, 0
3, 43319, Note_on_c, 1, 33, 91
3, 43447, Note_on_c, 1, 45, 101
3, 43484, Note_on_c, 1, 33, 0
3, 43560, Note_on_c, 1, 37, 84
3, 43561, Note_on_c, 1, 45, 0
3, 43670, Note_on_c, 1, 37, 0
3, 43677, Note_on_c, 1, 38, 83
3, 43919, Note_on_c, 1, 43, 85
3, 43925, Note_on_c, 1, 41, 29
3, 43926, Note_on_c, 1, 38, 0
3, 43930, Note_on_c, 1, 41, 0
3, 44079, Note_on_c, 1, 42, 67
3, 44089, Note_on_c, 1, 43, 0
3, 44094, Note_on_c, 1, 42, 0
3, 44114, Note_on_c, 1, 41, 81
3, 44140, Note_on_c, 1, 41, 0
3, 44154, Note_on_c, 1, 40, 88
3, 44357, Note_on_c, 1, 46, 92
3, 44374, Note_on_c, 1, 40, 0
3, 44388, Note_on_c, 1, 46, 0
3, 44398, Note_on_c, 1, 45, 78
3, 44409, Note_on_c, 1, 45, 0
3, 44474, Note_on_c, 1, 40, 75
3, 44501, Note_on_c, 1, 40, 0
3, 44513, Note_on_c, 1, 37, 87
3, 44626, Note_on_c, 1, 37, 0
3, 44631, Note_on_c, 1, 38, 105
3, 44868, Note_on_c, 1, 38, 0
3, 44879, Note_on_c, 1, 40, 99
3, 45112, Note_on_c, 1, 40, 0
3, 45123, Note_on_c, 1, 41, 99
3, 45337, Note_on_c, 1, 38, 30
3, 45348, Note_on_c, 1, 41, 0
3, 45360, Note_on_c, 1, 38, 0
3, 45361, Note_on_c, 1, 43, 91
3, 45442, Note_on_c, 1, 35, 66
3, 45457, Note_on_c, 1, 43, 0
3, 45554, Note_on_c, 1, 35, 0
3, 45559, Note_on_c, 1, 36, 103
3, 46357, Note_on_c, 1, 36, 0
3, 46357, End_track
4, 0, Start_track
4, 0, Title_t, "Jazz kit"
4, 0, Program_c, 9, 32
4, 11957, Note_on_c, 9, 36, 38
4, 11969, Note_on_c, 9, 36, 0
4, 11992, Note_on_c, 9, 51, 59
4, 12010, Note_on_c, 9, 51, 0
4, 12198, Note_on_c, 9, 51, 58
4, 12216, Note_on_c, 9, 51, 0
4, 12237, Note_on_c, 9, 51, 38
4, 12295, Note_on_c, 9, 51, 0
4, 12356, Note_on_c, 9, 51, 83
4, 12469, Note_on_c, 9, 51, 0
4, 12561, Note_on_c, 9, 51, 59
4, 12575, Note_on_c, 9, 51, 0
4, 12602, Note_on_c, 9, 51, 55
4, 12672, Note_on_c, 9, 51, 0
4, 12720, Note_on_c, 9, 51, 65
4, 12758, Note_on_c, 9, 51, 0
4, 12840, Note_on_c, 9, 51, 62
4, 12915, Note_on_c, 9, 51, 0
4, 12917, Note_on_c, 9, 36, 43
4, 12925, Note_on_c, 9, 36, 0
4, 12962, Note_on_c, 9, 51, 61
4, 13013, Note_on_c, 9, 51, 0
4, 13075, Note_on_c, 9, 53, 69
4, 13081, Note_on_c, 9, 51, 70
4, 13128, Note_on_c, 9, 53, 0
4, 13146, Note_on_c, 9, 51, 0
4, 13192, Note_on_c, 9, 53, 71
4, 13199, Note_on_c, 9, 51, 60
4, 13223, Note_on_c, 9, 53, 0
4, 13286, Note_on_c, 9, 51, 0
4, 13314, Note_on_c, 9, 53, 73
4, 13325, Note_on_c, 9, 51, 55
4, 13340, Note_on_c, 9, 53, 0
4, 13402, Note_on_c, 9, 36, 40
4, 13411, Note_on_c, 9, 36, 0
4, 13419, Note_on_c, 9, 51, 0
4, 13447, Note_on_c, 9, 51, 55
4, 13535, Note_on_c, 9, 51, 0
4, 13564, Note_on_c, 9, 51, 50
4, 13641, Note_on_c, 9, 51, 0
4, 13676, Note_on_c, 9, 51, 49
4, 13764, Note_on_c, 9, 51, 0
4, 13795, Note_on_c, 9, 51, 51
4, 13840, Note_on_c, 9, 51, 0
4, 13868, Note_on_c, 9, 44, 54
4, 13877, Note_on_c, 9, 44, 0
4, 13882, Note_on_c, 9, 51, 85
4, 13902, Note_on_c, 9, 51, 0
4, 13922, Note_on_c, 9, 51, 59
4, 14000, Note_on_c, 9, 51, 0
4, 14048, Note_on_c, 9, 51, 38
4, 14060, Note_on_c, 9, 51, 0
4, 14088, Note_on_c, 9, 51, 51
4, 14105, Note_on_c, 9, 51, 0
4, 14118, Note_on_c, 9, 38, 35
4, 14125, Note_on_c, 9, 51, 77
4, 14132, Note_on_c, 9, 38, 0
4, 14162, Note_on_c, 9, 36, 20
4, 14174, Note_on_c, 9, 36, 0
4, 14200, Note_on_c, 9, 51, 0
4, 14217, Note_on_c, 9, 51, 47
4, 14225, Note_on_c, 9, 51, 0
4, 14241, Note_on_c, 9, 36, 30
4, 14251, Note_on_c, 9, 51, 56
4, 14254, Note_on_c, 9, 36, 0
4, 14268, Note_on_c, 9, 51, 0
4, 14286, Note_on_c, 9, 51, 78
4, 14356, Note_on_c, 9, 51, 0
4, 14384, Note_on_c, 9, 51, 59
4, 14477, Note_on_c, 9, 51, 0
4, 14599, Note_on_c, 9, 51, 63
4, 14600, Note_on_c, 9, 38, 33
4, 14619, Note_on_c, 9, 51, 0
4, 14621, Note_on_c, 9, 38, 0
4, 14642, Note_on_c, 9, 51, 33
4, 14643, Note_on_c, 9, 38, 25
4, 14664, Note_on_c, 9, 38, 0
4, 14700, Note_on_c, 9, 51, 0
4, 14716, Note_on_c, 9, 36, 62
4, 14722, Note_on_c, 9, 51, 60
4, 14742, Note_on_c, 9, 51, 0
4, 14752, Note_on_c, 9, 36, 0
4, 14761, Note_on_c, 9, 51, 37
4, 14798, Note_on_c, 9, 51, 0
4, 14840, Note_on_c, 9, 51, 60
4, 14848, Note_on_c, 9, 51, 0
4, 14882, Note_on_c, 9, 51, 37
4, 14890, Note_on_c, 9, 51, 0
4, 14920, Note_on_c, 9, 38, 32
4, 14942, Note_on_c, 9, 38, 0
4, 14959, Note_on_c, 9, 38, 51
4, 14989, Note_on_c, 9, 38, 0
4, 15006, Note_on_c, 9, 36, 32
4, 15033, Note_on_c, 9, 36, 0
4, 15076, Note_on_c, 9, 53, 74
4, 15079, Note_on_c, 9, 51, 60
4, 15088, Note_on_c, 9, 53, 0
4, 15106, Note_on_c, 9, 51, 0
4, 15161, Note_on_c, 9, 53, 45
4, 15169, Note_on_c, 9, 53, 0
4, 15191, Note_on_c, 9, 38, 49
4, 15207, Note_on_c, 9, 38, 0
4, 15247, Note_on_c, 9, 51, 68
4, 15250, Note_on_c, 9, 53, 74
4, 15274, Note_on_c, 9, 53, 0
4, 15285, Note_on_c, 9, 51, 0
4, 15322, Note_on_c, 9, 36, 27
4, 15331, Note_on_c, 9, 36, 0
4, 15335, Note_on_c, 9, 53, 46
4, 15347, Note_on_c, 9, 53, 0
4, 15412, Note_on_c, 9, 59, 71
4, 15416, Note_on_c, 9, 51, 58
4, 15443, Note_on_c, 9, 51, 0
4, 15447, Note_on_c, 9, 59, 0
4, 15498, Note_on_c, 9, 53, 54
4, 15502, Note_on_c, 9, 51, 33
4, 15511, Note_on_c, 9, 53, 0
4, 15514, Note_on_c, 9, 51, 0
4, 15562, Note_on_c, 9, 36, 27
4, 15569, Note_on_c, 9, 51, 74
4, 15570, Note_on_c, 9, 36, 0
4, 15572, Note_on_c, 9, 53, 79
4, 15588, Note_on_c, 9, 53, 0
4, 15597, Note_on_c, 9, 51, 0
4, 15606, Note_on_c, 9, 38, 29
4, 15616, Note_on_c, 9, 38, 0
4, 15638, Note_on_c, 9, 38, 36
4, 15645, Note_on_c, 9, 53, 59
4, 15651, Note_on_c, 9, 38, 0
4, 15659, Note_on_c, 9, 53, 0
4, 15723, Note_on_c, 9, 51, 61
4, 15726, Note_on_c, 9, 38, 24
4, 15727, Note_on_c, 9, 53, 80
4, 15739, Note_on_c, 9, 51, 0
4, 15743, Note_on_c, 9, 53, 0
4, 15743, Note_on_c, 9, 38, 0
4, 15759, Note_on_c, 9, 38, 39
4, 15775, Note_on_c, 9, 38, 0
4, 15802, Note_on_c, 9, 51, 98
4, 15803, Note_on_c, 9, 36, 44
4, 15820, Note_on_c, 9, 36, 0
4, 15823, Note_on_c, 9, 51, 0
4, 15844, Note_on_c, 9, 51, 56
4, 15846, Note_on_c, 9, 36, 32
4, 15867, Note_on_c, 9, 36, 0
4, 15918, Note_on_c, 9, 51, 0
4, 15959, Note_on_c, 9, 51, 52
4, 16035, Note_on_c, 9, 51, 0
4, 16161, Note_on_c, 9, 38, 25
4, 16164, Note_on_c, 9, 51, 50
4, 16171, Note_on_c, 9, 38, 0
4, 16174, Note_on_c, 9, 51, 0
4, 16205, Note_on_c, 9, 51, 40
4, 16246, Note_on_c, 9, 51, 0
4, 16281, Note_on_c, 9, 51, 95
4, 16321, Note_on_c, 9, 38, 33
4, 16333, Note_on_c, 9, 38, 0
4, 16359, Note_on_c, 9, 38, 21
4, 16375, Note_on_c, 9, 38, 0
4, 16380, Note_on_c, 9, 51, 0
4, 16403, Note_on_c, 9, 38, 46
4, 16405, Note_on_c, 9, 51, 30
4, 16428, Note_on_c, 9, 51, 0
4, 16450, Note_on_c, 9, 51, 47
4, 16463, Note_on_c, 9, 38, 0
4, 16467, Note_on_c, 9, 51, 0
4, 16518, Note_on_c, 9, 38, 29
4, 16528, Note_on_c, 9, 51, 71
4, 16538, Note_on_c, 9, 51, 0
4, 16543, Note_on_c, 9, 38, 0
4, 16567, Note_on_c, 9, 38, 39
4, 16576, Note_on_c, 9, 38, 0
4, 16595, Note_on_c, 9, 53, 79
4, 16640, Note_on_c, 9, 38, 59
4, 16650, Note_on_c, 9, 53, 0
4, 16685, Note_on_c, 9, 38, 0
4, 16691, Note_on_c, 9, 51, 53
4, 16715, Note_on_c, 9, 38, 33
4, 16723, Note_on_c, 9, 38, 0
4, 16724, Note_on_c, 9, 51, 0
4, 16754, Note_on_c, 9, 36, 26
4, 16761, Note_on_c, 9, 51, 50
4, 16770, Note_on_c, 9, 36, 0
4, 16778, Note_on_c, 9, 51, 0
4, 16797, Note_on_c, 9, 36, 28
4, 16801, Note_on_c, 9, 51, 51
4, 16809, Note_on_c, 9, 36, 0
4, 16871, Note_on_c, 9, 51, 0
4, 16918, Note_on_c, 9, 51, 67
4, 16977, Note_on_c, 9, 51, 0
4, 17012, Note_on_c, 9, 51, 46
4, 17022, Note_on_c, 9, 51, 0
4, 17041, Note_on_c, 9, 51, 57
4, 17117, Note_on_c, 9, 51, 0
4, 17155, Note_on_c, 9, 51, 76
4, 17252, Note_on_c, 9, 51, 0
4, 17365, Note_on_c, 9, 51, 52
4, 17376, Note_on_c, 9, 51, 0
4, 17402, Note_on_c, 9, 51, 53
4, 17408, Note_on_c, 9, 38, 18
4, 17449, Note_on_c, 9, 38, 0
4, 17477, Note_on_c, 9, 46, 33
4, 17482, Note_on_c, 9, 51, 0
4, 17508, Note_on_c, 9, 46, 0
4, 17515, Note_on_c, 9, 51, 59
4, 17542, Note_on_c, 9, 51, 0
4, 17556, Note_on_c, 9, 46, 54
4, 17599, Note_on_c, 9, 59, 85
4, 17613, Note_on_c, 9, 46, 0
4, 17641, Note_on_c, 9, 46, 62
4, 17690, Note_on_c, 9, 46, 0
4, 17713, Note_on_c, 9, 38, 44
4, 17733, Note_on_c, 9, 38, 0
4, 17754, Note_on_c, 9, 59, 0
4, 17824, Note_on_c, 9, 59, 71
4, 17840, Note_on_c, 9, 53, 33
4, 17850, Note_on_c, 9, 59, 0
4, 17861, Note_on_c, 9, 53, 0
4, 17913, Note_on_c, 9, 53, 59
4, 17929, Note_on_c, 9, 53, 0
4, 18071, Note_on_c, 9, 38, 34
4, 18078, Note_on_c, 9, 38, 0
4, 18082, Note_on_c, 9, 51, 57
4, 18094, Note_on_c, 9, 51, 0
4, 18118, Note_on_c, 9, 36, 21
4, 18128, Note_on_c, 9, 36, 0
4, 18193, Note_on_c, 9, 36, 56
4, 18199, Note_on_c, 9, 59, 72
4, 18217, Note_on_c, 9, 59, 0
4, 18229, Note_on_c, 9, 36, 0
4, 18254, Note_on_c, 9, 59, 80
4, 18271, Note_on_c, 9, 53, 62
4, 18287, Note_on_c, 9, 59, 0
4, 18298, Note_on_c, 9, 53, 0
4, 18321, Note_on_c, 9, 38, 24
4, 18330, Note_on_c, 9, 38, 0
4, 18357, Note_on_c, 9, 51, 29
4, 18374, Note_on_c, 9, 51, 0
4, 18443, Note_on_c, 9, 51, 62
4, 18462, Note_on_c, 9, 51, 0
4, 18517, Note_on_c, 9, 51, 57
4, 18529, Note_on_c, 9, 46, 40
4, 18546, Note_on_c, 9, 46, 0
4, 18550, Note_on_c, 9, 51, 0
4, 18569, Note_on_c, 9, 38, 29
4, 18577, Note_on_c, 9, 38, 0
4, 18606, Note_on_c, 9, 51, 72
4, 18609, Note_on_c, 9, 36, 30
4, 18624, Note_on_c, 9, 36, 0
4, 18625, Note_on_c, 9, 51, 0
4, 18675, Note_on_c, 9, 36, 69
4, 18686, Note_on_c, 9, 51, 70
4, 18702, Note_on_c, 9, 51, 0
4, 18706, Note_on_c, 9, 36, 0
4, 18724, Note_on_c, 9, 51, 50
4, 18746, Note_on_c, 9, 51, 0
4, 18893, Note_on_c, 9, 38, 33
4, 18901, Note_on_c, 9, 38, 0
4, 18915, Note_on_c, 9, 51, 57
4, 18924, Note_on_c, 9, 38, 25
4, 18926, Note_on_c, 9, 51, 0
4, 18941, Note_on_c, 9, 38, 0
4, 18963, Note_on_c, 9, 38, 33
4, 18964, Note_on_c, 9, 51, 37
4, 18974, Note_on_c, 9, 38, 0
4, 18975, Note_on_c, 9, 51, 0
4, 18996, Note_on_c, 9, 51, 56
4, 19010, Note_on_c, 9, 51, 0
4, 19034, Note_on_c, 9, 36, 43
4, 19049, Note_on_c, 9, 36, 0
4, 19084, Note_on_c, 9, 51, 77
4, 19124, Note_on_c, 9, 38, 35
4, 19134, Note_on_c, 9, 51, 0
4, 19135, Note_on_c, 9, 38, 0
4, 19160, Note_on_c, 9, 38, 42
4, 19174, Note_on_c, 9, 38, 0
4, 19283, Note_on_c, 9, 51, 40
4, 19291, Note_on_c, 9, 51, 0
4, 19326, Note_on_c, 9, 51, 38
4, 19340, Note_on_c, 9, 51, 0
4, 19360, Note_on_c, 9, 38, 33
4, 19368, Note_on_c, 9, 38, 0
4, 19396, Note_on_c, 9, 38, 33
4, 19402, Note_on_c, 9, 51, 67
4, 19416, Note_on_c, 9, 38, 0
4, 19418, Note_on_c, 9, 51, 0
4, 19484, Note_on_c, 9, 38, 35
4, 19492, Note_on_c, 9, 38, 0
4, 19516, Note_on_c, 9, 51, 34
4, 19519, Note_on_c, 9, 38, 30
4, 19524, Note_on_c, 9, 51, 0
4, 19535, Note_on_c, 9, 38, 0
4, 19599, Note_on_c, 9, 38, 39
4, 19609, Note_on_c, 9, 38, 0
4, 19632, Note_on_c, 9, 51, 70
4, 19635, Note_on_c, 9, 57, 65
4, 19640, Note_on_c, 9, 36, 66
4, 19650, Note_on_c, 9, 51, 0
4, 19656, Note_on_c, 9, 57, 0
4, 19669, Note_on_c, 9, 36, 0
4, 19681, Note_on_c, 9, 36, 67
4, 19721, Note_on_c, 9, 36, 0
4, 19883, Note_on_c, 9, 38, 22
4, 19889, Note_on_c, 9, 51, 46
4, 19890, Note_on_c, 9, 38, 0
4, 19900, Note_on_c, 9, 51, 0
4, 19924, Note_on_c, 9, 51, 49
4, 19994, Note_on_c, 9, 51, 0
4, 20041, Note_on_c, 9, 51, 83
4, 20155, Note_on_c, 9, 51, 0
4, 20243, Note_on_c, 9, 51, 42
4, 20255, Note_on_c, 9, 51, 0
4, 20279, Note_on_c, 9, 51, 38
4, 20312, Note_on_c, 9, 51, 0
4, 20356, Note_on_c, 9, 38, 28
4, 20358, Note_on_c, 9, 51, 70
4, 20361, Note_on_c, 9, 53, 64
4, 20371, Note_on_c, 9, 38, 0
4, 20386, Note_on_c, 9, 53, 0
4, 20388, Note_on_c, 9, 51, 0
4, 20448, Note_on_c, 9, 53, 74
4, 20474, Note_on_c, 9, 53, 0
4, 20476, Note_on_c, 9, 38, 24
4, 20485, Note_on_c, 9, 38, 0
4, 20524, Note_on_c, 9, 53, 64
4, 20528, Note_on_c, 9, 51, 68
4, 20547, Note_on_c, 9, 53, 0
4, 20566, Note_on_c, 9, 51, 0
4, 20604, Note_on_c, 9, 51, 70
4, 20633, Note_on_c, 9, 51, 0
4, 20643, Note_on_c, 9, 38, 27
4, 20654, Note_on_c, 9, 38, 0
4, 20676, Note_on_c, 9, 51, 69
4, 20712, Note_on_c, 9, 51, 0
4, 20723, Note_on_c, 9, 38, 22
4, 20731, Note_on_c, 9, 38, 0
4, 20759, Note_on_c, 9, 51, 70
4, 20809, Note_on_c, 9, 51, 0
4, 20954, Note_on_c, 9, 44, 25
4, 20956, Note_on_c, 9, 51, 31
4, 20963, Note_on_c, 9, 44, 0
4, 20965, Note_on_c, 9, 51, 0
4, 21002, Note_on_c, 9, 51, 39
4, 21026, Note_on_c, 9, 51, 0
4, 21029, Note_on_c, 9, 44, 57
4, 21072, Note_on_c, 9, 44, 0
4, 21084, Note_on_c, 9, 51, 90
4, 21104, Note_on_c, 9, 51, 0
4, 21111, Note_on_c, 9, 44, 58
4, 21156, Note_on_c, 9, 44, 0
4, 21175, Note_on_c, 9, 51, 54
4, 21183, Note_on_c, 9, 51, 0
4, 21194, Note_on_c, 9, 44, 51
4, 21231, Note_on_c, 9, 44, 0
4, 21278, Note_on_c, 9, 44, 32
4, 21307, Note_on_c, 9, 44, 0
4, 21324, Note_on_c, 9, 38, 30
4, 21331, Note_on_c, 9, 51, 38
4, 21334, Note_on_c, 9, 38, 0
4, 21339, Note_on_c, 9, 51, 0
4, 21369, Note_on_c, 9, 51, 48
4, 21389, Note_on_c, 9, 51, 0
4, 21444, Note_on_c, 9, 51, 59
4, 21444, Note_on_c, 9, 38, 32
4, 21454, Note_on_c, 9, 51, 0
4, 21456, Note_on_c, 9, 38, 0
4, 21557, Note_on_c, 9, 44, 36
4, 21559, Note_on_c, 9, 51, 53
4, 21567, Note_on_c, 9, 51, 0
4, 21575, Note_on_c, 9, 44, 0
4, 21596, Note_on_c, 9, 51, 59
4, 21603, Note_on_c, 9, 38, 22
4, 21612, Note_on_c, 9, 38, 0
4, 21640, Note_on_c, 9, 51, 0
4, 21675, Note_on_c, 9, 38, 45
4, 21691, Note_on_c, 9, 38, 0
4, 21794, Note_on_c, 9, 36, 48
4, 21803, Note_on_c, 9, 36, 0
4, 21803, Note_on_c, 9, 51, 36
4, 21820, Note_on_c, 9, 51, 0
4, 21840, Note_on_c, 9, 51, 64
4, 21844, Note_on_c, 9, 36, 32
4, 21856, Note_on_c, 9, 36, 0
4, 21871, Note_on_c, 9, 51, 0
4, 21953, Note_on_c, 9, 51, 83
4, 22016, Note_on_c, 9, 51, 0
4, 22159, Note_on_c, 9, 51, 43
4, 22174, Note_on_c, 9, 51, 0
4, 22193, Note_on_c, 9, 51, 50
4, 22198, Note_on_c, 9, 38, 31
4, 22210, Note_on_c, 9, 38, 0
4, 22223, Note_on_c, 9, 51, 0
4, 22238, Note_on_c, 9, 38, 24
4, 22255, Note_on_c, 9, 38, 0
4, 22283, Note_on_c, 9, 51, 91
4, 22370, Note_on_c, 9, 51, 0
4, 22389, Note_on_c, 9, 51, 42
4, 22401, Note_on_c, 9, 51, 0
4, 22433, Note_on_c, 9, 51, 42
4, 22449, Note_on_c, 9, 51, 0
4, 22510, Note_on_c, 9, 51, 90
4, 22511, Note_on_c, 9, 57, 88
4, 22538, Note_on_c, 9, 51, 0
4, 22540, Note_on_c, 9, 57, 0
4, 22664, Note_on_c, 9, 38, 25
4, 22677, Note_on_c, 9, 38, 0
4, 22701, Note_on_c, 9, 38, 27
4, 22714, Note_on_c, 9, 38, 0
4, 22939, Note_on_c, 9, 38, 26
4, 22948, Note_on_c, 9, 38, 0
4, 23111, Note_on_c, 9, 38, 61
4, 23136, Note_on_c, 9, 38, 0
4, 23231, Note_on_c, 9, 36, 24
4, 23239, Note_on_c, 9, 36, 0
4, 23240, Note_on_c, 9, 51, 59
4, 23253, Note_on_c, 9, 51, 0
4, 23279, Note_on_c, 9, 38, 42
4, 23283, Note_on_c, 9, 51, 33
4, 23300, Note_on_c, 9, 38, 0
4, 23311, Note_on_c, 9, 51, 0
4, 23349, Note_on_c, 9, 38, 52
4, 23365, Note_on_c, 9, 38, 0
4, 23480, Note_on_c, 9, 44, 39
4, 23481, Note_on_c, 9, 53, 74
4, 23483, Note_on_c, 9, 51, 57
4, 23492, Note_on_c, 9, 51, 0
4, 23495, Note_on_c, 9, 44, 0
4, 23498, Note_on_c, 9, 53, 0
4, 23516, Note_on_c, 9, 57, 57
4, 23516, Note_on_c, 9, 38, 48
4, 23527, Note_on_c, 9, 57, 0
4, 23530, Note_on_c, 9, 38, 0
4, 23533, Note_on_c, 9, 51, 42
4, 23542, Note_on_c, 9, 51, 0
4, 23723, Note_on_c, 9, 51, 65
4, 23739, Note_on_c, 9, 51, 0
4, 23763, Note_on_c, 9, 51, 32
4, 23812, Note_on_c, 9, 51, 0
4, 23829, Note_on_c, 9, 38, 48
4, 23844, Note_on_c, 9, 38, 0
4, 23871, Note_on_c, 9, 51, 69
4, 23952, Note_on_c, 9, 51, 0
4, 24001, Note_on_c, 9, 51, 62
4, 24008, Note_on_c, 9, 36, 24
4, 24020, Note_on_c, 9, 36, 0
4, 24071, Note_on_c, 9, 51, 0
4, 24078, Note_on_c, 9, 36, 42
4, 24092, Note_on_c, 9, 36, 0
4, 24124, Note_on_c, 9, 51, 60
4, 24189, Note_on_c, 9, 51, 0
4, 24243, Note_on_c, 9, 51, 72
4, 24305, Note_on_c, 9, 51, 0
4, 24324, Note_on_c, 9, 38, 33
4, 24331, Note_on_c, 9, 38, 0
4, 24358, Note_on_c, 9, 36, 15
4, 24360, Note_on_c, 9, 51, 73
4, 24385, Note_on_c, 9, 51, 0
4, 24403, Note_on_c, 9, 36, 0
4, 24433, Note_on_c, 9, 36, 43
4, 24443, Note_on_c, 9, 51, 51
4, 24449, Note_on_c, 9, 36, 0
4, 24457, Note_on_c, 9, 51, 0
4, 24478, Note_on_c, 9, 51, 57
4, 24541, Note_on_c, 9, 51, 0
4, 24594, Note_on_c, 9, 51, 59
4, 24648, Note_on_c, 9, 51, 0
4, 24678, Note_on_c, 9, 38, 42
4, 24679, Note_on_c, 9, 59, 79
4, 24684, Note_on_c, 9, 38, 0
4, 24705, Note_on_c, 9, 59, 0
4, 24722, Note_on_c, 9, 51, 28
4, 24798, Note_on_c, 9, 51, 0
4, 24835, Note_on_c, 9, 51, 44
4, 24911, Note_on_c, 9, 51, 0
4, 24956, Note_on_c, 9, 51, 55
4, 25031, Note_on_c, 9, 51, 0
4, 25074, Note_on_c, 9, 51, 62
4, 25079, Note_on_c, 9, 38, 21
4, 25094, Note_on_c, 9, 38, 0
4, 25115, Note_on_c, 9, 38, 33
4, 25135, Note_on_c, 9, 38, 0
4, 25142, Note_on_c, 9, 51, 0
4, 25169, Note_on_c, 9, 51, 60
4, 25185, Note_on_c, 9, 51, 0
4, 25201, Note_on_c, 9, 51, 56
4, 25282, Note_on_c, 9, 38, 28
4, 25285, Note_on_c, 9, 51, 0
4, 25291, Note_on_c, 9, 38, 0
4, 25318, Note_on_c, 9, 51, 75
4, 25361, Note_on_c, 9, 38, 49
4, 25378, Note_on_c, 9, 38, 0
4, 25395, Note_on_c, 9, 51, 0
4, 25401, Note_on_c, 9, 36, 49
4, 25409, Note_on_c, 9, 51, 45
4, 25421, Note_on_c, 9, 51, 0
4, 25423, Note_on_c, 9, 36, 0
4, 25439, Note_on_c, 9, 51, 61
4, 25440, Note_on_c, 9, 36, 51
4, 25492, Note_on_c, 9, 36, 0
4, 25527, Note_on_c, 9, 51, 0
4, 25558, Note_on_c, 9, 51, 78
4, 25657, Note_on_c, 9, 51, 0
4, 25676, Note_on_c, 9, 51, 44
4, 25694, Note_on_c, 9, 51, 0
4, 25722, Note_on_c, 9, 51, 67
4, 25783, Note_on_c, 9, 51, 0
4, 25812, Note_on_c, 9, 51, 70
4, 25876, Note_on_c, 9, 51, 0
4, 25888, Note_on_c, 9, 51, 52
4, 25923, Note_on_c, 9, 51, 0
4, 25954, Note_on_c, 9, 51, 74
4, 26000, Note_on_c, 9, 51, 0
4, 26043, Note_on_c, 9, 51, 68
4, 26104, Note_on_c, 9, 51, 0
4, 26117, Note_on_c, 9, 38, 39
4, 26125, Note_on_c, 9, 51, 39
4, 26136, Note_on_c, 9, 38, 0
4, 26140, Note_on_c, 9, 51, 0
4, 26163, Note_on_c, 9, 51, 49
4, 26226, Note_on_c, 9, 51, 0
4, 26272, Note_on_c, 9, 51, 69
4, 26284, Note_on_c, 9, 44, 24
4, 26294, Note_on_c, 9, 51, 0
4, 26296, Note_on_c, 9, 44, 0
4, 26359, Note_on_c, 9, 44, 53
4, 26361, Note_on_c, 9, 51, 76
4, 26367, Note_on_c, 9, 53, 52
4, 26376, Note_on_c, 9, 44, 0
4, 26397, Note_on_c, 9, 53, 0
4, 26397, Note_on_c, 9, 51, 0
4, 26440, Note_on_c, 9, 44, 48
4, 26447, Note_on_c, 9, 53, 54
4, 26469, Note_on_c, 9, 44, 0
4, 26471, Note_on_c, 9, 53, 0
4, 26516, Note_on_c, 9, 51, 71
4, 26524, Note_on_c, 9, 53, 57
4, 26524, Note_on_c, 9, 44, 50
4, 26550, Note_on_c, 9, 51, 0
4, 26551, Note_on_c, 9, 44, 0
4, 26579, Note_on_c, 9, 53, 0
4, 26602, Note_on_c, 9, 51, 53
4, 26603, Note_on_c, 9, 38, 39
4, 26623, Note_on_c, 9, 38, 0
4, 26634, Note_on_c, 9, 51, 0
4, 26679, Note_on_c, 9, 51, 47
4, 26726, Note_on_c, 9, 51, 0
4, 26768, Note_on_c, 9, 51, 64
4, 26802, Note_on_c, 9, 51, 0
4, 26842, Note_on_c, 9, 51, 62
4, 26850, Note_on_c, 9, 53, 48
4, 26886, Note_on_c, 9, 51, 0
4, 26887, Note_on_c, 9, 53, 0
4, 26921, Note_on_c, 9, 51, 57
4, 26957, Note_on_c, 9, 38, 27
4, 26966, Note_on_c, 9, 38, 0
4, 26976, Note_on_c, 9, 51, 0
4, 27008, Note_on_c, 9, 51, 59
4, 27058, Note_on_c, 9, 51, 0
4, 27086, Note_on_c, 9, 51, 55
4, 27111, Note_on_c, 9, 51, 0
4, 27139, Note_on_c, 9, 51, 37
4, 27165, Note_on_c, 9, 51, 0
4, 27206, Note_on_c, 9, 51, 64
4, 27223, Note_on_c, 9, 51, 0
4, 27240, Note_on_c, 9, 44, 67
4, 27255, Note_on_c, 9, 51, 38
4, 27266, Note_on_c, 9, 51, 0
4, 27275, Note_on_c, 9, 44, 0
4, 27318, Note_on_c, 9, 38, 24
4, 27319, Note_on_c, 9, 51, 80
4, 27321, Note_on_c, 9, 57, 74
4, 27326, Note_on_c, 9, 38, 0
4, 27349, Note_on_c, 9, 57, 0
4, 27405, Note_on_c, 9, 38, 39
4, 27416, Note_on_c, 9, 38, 0
4, 27427, Note_on_c, 9, 51, 0
4, 27445, Note_on_c, 9, 38, 34
4, 27460, Note_on_c, 9, 38, 0
4, 27478, Note_on_c, 9, 51, 47
4, 27533, Note_on_c, 9, 51, 0
4, 27568, Note_on_c, 9, 51, 45
4, 27577, Note_on_c, 9, 51, 0
4, 27600, Note_on_c, 9, 51, 49
4, 27682, Note_on_c, 9, 51, 0
4, 27716, Note_on_c, 9, 51, 62
4, 27781, Note_on_c, 9, 51, 0
4, 27955, Note_on_c, 9, 51, 57
4, 27958, Note_on_c, 9, 46, 52
4, 27982, Note_on_c, 9, 46, 0
4, 28025, Note_on_c, 9, 51, 0
4, 28047, Note_on_c, 9, 51, 42
4, 28059, Note_on_c, 9, 51, 0
4, 28079, Note_on_c, 9, 51, 55
4, 28125, Note_on_c, 9, 38, 45
4, 28132, Note_on_c, 9, 38, 0
4, 28161, Note_on_c, 9, 38, 42
4, 28164, Note_on_c, 9, 51, 0
4, 28177, Note_on_c, 9, 38, 0
4, 28202, Note_on_c, 9, 51, 81
4, 28307, Note_on_c, 9, 51, 0
4, 28403, Note_on_c, 9, 51, 55
4, 28419, Note_on_c, 9, 51, 0
4, 28442, Note_on_c, 9, 51, 68
4, 28448, Note_on_c, 9, 38, 34
4, 28455, Note_on_c, 9, 38, 0
4, 28484, Note_on_c, 9, 38, 45
4, 28502, Note_on_c, 9, 38, 0
4, 28518, Note_on_c, 9, 38, 42
4, 28532, Note_on_c, 9, 51, 0
4, 28543, Note_on_c, 9, 38, 0
4, 28565, Note_on_c, 9, 51, 61
4, 28625, Note_on_c, 9, 51, 0
4, 28681, Note_on_c, 9, 51, 48
4, 28750, Note_on_c, 9, 51, 0
4, 28753, Note_on_c, 9, 36, 46
4, 28760, Note_on_c, 9, 59, 77
4, 28767, Note_on_c, 9, 36, 0
4, 28789, Note_on_c, 9, 59, 0
4, 28807, Note_on_c, 9, 51, 19
4, 28881, Note_on_c, 9, 51, 0
4, 28921, Note_on_c, 9, 51, 50
4, 29005, Note_on_c, 9, 51, 0
4, 29038, Note_on_c, 9, 51, 67
4, 29088, Note_on_c, 9, 38, 23
4, 29096, Note_on_c, 9, 38, 0
4, 29124, Note_on_c, 9, 51, 0
4, 29130, Note_on_c, 9, 36, 16
4, 29138, Note_on_c, 9, 36, 0
4, 29165, Note_on_c, 9, 51, 59
4, 29218, Note_on_c, 9, 51, 0
4, 29244, Note_on_c, 9, 38, 60
4, 29248, Note_on_c, 9, 51, 50
4, 29256, Note_on_c, 9, 51, 0
4, 29263, Note_on_c, 9, 38, 0
4, 29278, Note_on_c, 9, 51, 67
4, 29291, Note_on_c, 9, 36, 30
4, 29303, Note_on_c, 9, 36, 0
4, 29366, Note_on_c, 9, 51, 0
4, 29368, Note_on_c, 9, 36, 23
4, 29377, Note_on_c, 9, 36, 0
4, 29399, Note_on_c, 9, 51, 71
4, 29479, Note_on_c, 9, 51, 0
4, 29515, Note_on_c, 9, 51, 69
4, 29581, Note_on_c, 9, 51, 0
4, 29606, Note_on_c, 9, 51, 31
4, 29616, Note_on_c, 9, 51, 0
4, 29634, Note_on_c, 9, 51, 70
4, 29732, Note_on_c, 9, 51, 0
4, 29757, Note_on_c, 9, 51, 65
4, 29855, Note_on_c, 9, 51, 0
4, 29878, Note_on_c, 9, 51, 67
4, 29927, Note_on_c, 9, 38, 39
4, 29934, Note_on_c, 9, 38, 0
4, 29972, Note_on_c, 9, 51, 0
4, 30001, Note_on_c, 9, 51, 67
4, 30076, Note_on_c, 9, 51, 0
4, 30083, Note_on_c, 9, 38, 30
4, 30092, Note_on_c, 9, 38, 0
4, 30202, Note_on_c, 9, 51, 83
4, 30203, Note_on_c, 9, 36, 43
4, 30210, Note_on_c, 9, 36, 0
4, 30224, Note_on_c, 9, 51, 0
4, 30243, Note_on_c, 9, 51, 42
4, 30311, Note_on_c, 9, 51, 0
4, 30358, Note_on_c, 9, 51, 70
4, 30398, Note_on_c, 9, 51, 0
4, 30441, Note_on_c, 9, 38, 34
4, 30449, Note_on_c, 9, 51, 39
4, 30450, Note_on_c, 9, 38, 0
4, 30468, Note_on_c, 9, 51, 0
4, 30519, Note_on_c, 9, 51, 67
4, 30537, Note_on_c, 9, 51, 0
4, 30549, Note_on_c, 9, 38, 36
4, 30557, Note_on_c, 9, 38, 0
4, 30600, Note_on_c, 9, 57, 24
4, 30603, Note_on_c, 9, 51, 52
4, 30610, Note_on_c, 9, 57, 0
4, 30622, Note_on_c, 9, 51, 0
4, 30638, Note_on_c, 9, 57, 31
4, 30645, Note_on_c, 9, 57, 0
4, 30678, Note_on_c, 9, 51, 63
4, 30679, Note_on_c, 9, 38, 37
4, 30686, Note_on_c, 9, 38, 0
4, 30690, Note_on_c, 9, 51, 0
4, 30752, Note_on_c, 9, 38, 36
4, 30757, Note_on_c, 9, 51, 46
4, 30761, Note_on_c, 9, 38, 0
4, 30766, Note_on_c, 9, 51, 0
4, 30788, Note_on_c, 9, 38, 27
4, 30793, Note_on_c, 9, 51, 51
4, 30804, Note_on_c, 9, 51, 0
4, 30807, Note_on_c, 9, 38, 0
4, 30836, Note_on_c, 9, 51, 83
4, 30856, Note_on_c, 9, 51, 0
4, 30871, Note_on_c, 9, 38, 24
4, 30891, Note_on_c, 9, 38, 0
4, 30910, Note_on_c, 9, 38, 57
4, 30916, Note_on_c, 9, 51, 71
4, 30924, Note_on_c, 9, 51, 0
4, 30937, Note_on_c, 9, 38, 0
4, 30957, Note_on_c, 9, 38, 21
4, 30976, Note_on_c, 9, 38, 0
4, 30992, Note_on_c, 9, 38, 45
4, 31010, Note_on_c, 9, 38, 0
4, 31030, Note_on_c, 9, 38, 66
4, 31047, Note_on_c, 9, 51, 65
4, 31055, Note_on_c, 9, 51, 0
4, 31059, Note_on_c, 9, 38, 0
4, 31070, Note_on_c, 9, 38, 63
4, 31082, Note_on_c, 9, 51, 90
4, 31088, Note_on_c, 9, 38, 0
4, 31102, Note_on_c, 9, 51, 0
4, 31116, Note_on_c, 9, 38, 53
4, 31132, Note_on_c, 9, 38, 0
4, 31154, Note_on_c, 9, 51, 95
4, 31180, Note_on_c, 9, 51, 0
4, 31190, Note_on_c, 9, 57, 69
4, 31192, Note_on_c, 9, 36, 66
4, 31193, Note_on_c, 9, 38, 61
4, 31202, Note_on_c, 9, 51, 42
4, 31218, Note_on_c, 9, 38, 0
4, 31221, Note_on_c, 9, 57, 0
4, 31226, Note_on_c, 9, 36, 0
4, 31272, Note_on_c, 9, 51, 0
4, 31314, Note_on_c, 9, 51, 81
4, 31397, Note_on_c, 9, 51, 0
4, 31445, Note_on_c, 9, 51, 54
4, 31506, Note_on_c, 9, 51, 0
4, 31516, Note_on_c, 9, 38, 24
4, 31524, Note_on_c, 9, 38, 0
4, 31555, Note_on_c, 9, 51, 86
4, 31650, Note_on_c, 9, 51, 0
4, 31675, Note_on_c, 9, 51, 25
4, 31738, Note_on_c, 9, 51, 0
4, 31800, Note_on_c, 9, 51, 72
4, 31883, Note_on_c, 9, 51, 0
4, 31917, Note_on_c, 9, 51, 54
4, 31997, Note_on_c, 9, 51, 0
4, 32001, Note_on_c, 9, 38, 18
4, 32009, Note_on_c, 9, 38, 0
4, 32039, Note_on_c, 9, 51, 59
4, 32102, Note_on_c, 9, 51, 0
4, 32122, Note_on_c, 9, 36, 41
4, 32125, Note_on_c, 9, 51, 38
4, 32133, Note_on_c, 9, 36, 0
4, 32136, Note_on_c, 9, 51, 0
4, 32157, Note_on_c, 9, 51, 60
4, 32240, Note_on_c, 9, 51, 0
4, 32276, Note_on_c, 9, 51, 62
4, 32339, Note_on_c, 9, 51, 0
4, 32357, Note_on_c, 9, 51, 61
4, 32362, Note_on_c, 9, 53, 67
4, 32362, Note_on_c, 9, 38, 33
4, 32370, Note_on_c, 9, 38, 0
4, 32450, Note_on_c, 9, 51, 0
4, 32466, Note_on_c, 9, 53, 0
4, 32478, Note_on_c, 9, 51, 35
4, 32478, Note_on_c, 9, 36, 27
4, 32488, Note_on_c, 9, 36, 0
4, 32496, Note_on_c, 9, 51, 0
4, 32519, Note_on_c, 9, 53, 64
4, 32521, Note_on_c, 9, 51, 64
4, 32596, Note_on_c, 9, 38, 33
4, 32602, Note_on_c, 9, 51, 0
4, 32603, Note_on_c, 9, 38, 0
4, 32617, Note_on_c, 9, 53, 0
4, 32641, Note_on_c, 9, 51, 35
4, 32676, Note_on_c, 9, 51, 0
4, 32712, Note_on_c, 9, 51, 71
4, 32716, Note_on_c, 9, 53, 70
4, 32719, Note_on_c, 9, 36, 24
4, 32727, Note_on_c, 9, 36, 0
4, 32754, Note_on_c, 9, 38, 39
4, 32761, Note_on_c, 9, 38, 0
4, 32783, Note_on_c, 9, 51, 0
4, 32808, Note_on_c, 9, 53, 0
4, 32829, Note_on_c, 9, 51, 37
4, 32834, Note_on_c, 9, 38, 53
4, 32847, Note_on_c, 9, 38, 0
4, 32847, Note_on_c, 9, 51, 0
4, 32876, Note_on_c, 9, 51, 71
4, 32880, Note_on_c, 9, 53, 69
4, 32957, Note_on_c, 9, 51, 0
4, 32958, Note_on_c, 9, 36, 26
4, 32965, Note_on_c, 9, 36, 0
4, 32982, Note_on_c, 9, 53, 0
4, 32998, Note_on_c, 9, 51, 42
4, 33028, Note_on_c, 9, 51, 0
4, 33045, Note_on_c, 9, 38, 30
4, 33053, Note_on_c, 9, 38, 0
4, 33076, Note_on_c, 9, 51, 82
4, 33079, Note_on_c, 9, 53, 74
4, 33080, Note_on_c, 9, 38, 49
4, 33099, Note_on_c, 9, 38, 0
4, 33130, Note_on_c, 9, 51, 0
4, 33185, Note_on_c, 9, 53, 0
4, 33198, Note_on_c, 9, 51, 49
4, 33198, Note_on_c, 9, 36, 30
4, 33206, Note_on_c, 9, 36, 0
4, 33220, Note_on_c, 9, 51, 0
4, 33244, Note_on_c, 9, 51, 56
4, 33316, Note_on_c, 9, 38, 51
4, 33319, Note_on_c, 9, 36, 29
4, 33323, Note_on_c, 9, 38, 0
4, 33328, Note_on_c, 9, 36, 0
4, 33343, Note_on_c, 9, 51, 0
4, 33365, Note_on_c, 9, 51, 55
4, 33447, Note_on_c, 9, 51, 0
4, 33481, Note_on_c, 9, 51, 56
4, 33486, Note_on_c, 9, 36, 45
4, 33537, Note_on_c, 9, 51, 0
4, 33542, Note_on_c, 9, 36, 0
4, 33559, Note_on_c, 9, 36, 60
4, 33567, Note_on_c, 9, 51, 68
4, 33577, Note_on_c, 9, 51, 0
4, 33603, Note_on_c, 9, 51, 56
4, 33605, Note_on_c, 9, 36, 0
4, 33676, Note_on_c, 9, 51, 0
4, 33719, Note_on_c, 9, 51, 64
4, 33776, Note_on_c, 9, 51, 0
4, 33797, Note_on_c, 9, 51, 46
4, 33809, Note_on_c, 9, 51, 0
4, 33840, Note_on_c, 9, 51, 27
4, 33848, Note_on_c, 9, 51, 0
4, 33921, Note_on_c, 9, 51, 40
4, 33925, Note_on_c, 9, 38, 21
4, 33929, Note_on_c, 9, 51, 0
4, 33935, Note_on_c, 9, 38, 0
4, 33966, Note_on_c, 9, 51, 31
4, 33975, Note_on_c, 9, 51, 0
4, 34036, Note_on_c, 9, 51, 80
4, 34039, Note_on_c, 9, 57, 76
4, 34165, Note_on_c, 9, 38, 16
4, 34172, Note_on_c, 9, 38, 0
4, 34174, Note_on_c, 9, 51, 0
4, 34182, Note_on_c, 9, 57, 0
4, 34205, Note_on_c, 9, 38, 25
4, 34213, Note_on_c, 9, 51, 27
4, 34214, Note_on_c, 9, 38, 0
4, 34243, Note_on_c, 9, 51, 0
4, 34244, Note_on_c, 9, 38, 33
4, 34252, Note_on_c, 9, 38, 0
4, 34282, Note_on_c, 9, 38, 65
4, 34287, Note_on_c, 9, 51, 52
4, 34306, Note_on_c, 9, 51, 0
4, 34327, Note_on_c, 9, 38, 0
4, 34339, Note_on_c, 9, 51, 28
4, 34379, Note_on_c, 9, 51, 0
4, 34394, Note_on_c, 9, 36, 41
4, 34405, Note_on_c, 9, 36, 0
4, 34442, Note_on_c, 9, 36, 33
4, 34460, Note_on_c, 9, 36, 0
4, 34521, Note_on_c, 9, 51, 55
4, 34539, Note_on_c, 9, 51, 0
4, 34565, Note_on_c, 9, 51, 35
4, 34603, Note_on_c, 9, 51, 0
4, 34635, Note_on_c, 9, 38, 36
4, 34642, Note_on_c, 9, 38, 0
4, 34762, Note_on_c, 9, 38, 36
4, 34770, Note_on_c, 9, 38, 0
4, 34844, Note_on_c, 9, 46, 47
4, 34855, Note_on_c, 9, 46, 0
4, 34887, Note_on_c, 9, 38, 26
4, 34896, Note_on_c, 9, 38, 0
4, 34923, Note_on_c, 9, 46, 45
4, 34937, Note_on_c, 9, 46, 0
4, 34967, Note_on_c, 9, 38, 41
4, 34974, Note_on_c, 9, 38, 0
4, 34997, Note_on_c, 9, 51, 71
4, 34997, Note_on_c, 9, 57, 66
4, 35000, Note_on_c, 9, 38, 55
4, 35011, Note_on_c, 9, 38, 0
4, 35021, Note_on_c, 9, 51, 0
4, 35023, Note_on_c, 9, 57, 0
4, 35171, Note_on_c, 9, 51, 27
4, 35180, Note_on_c, 9, 51, 0
4, 35249, Note_on_c, 9, 51, 49
4, 35271, Note_on_c, 9, 51, 0
4, 35285, Note_on_c, 9, 51, 44
4, 35358, Note_on_c, 9, 51, 0
4, 35480, Note_on_c, 9, 36, 53
4, 35491, Note_on_c, 9, 51, 46
4, 35494, Note_on_c, 9, 36, 0
4, 35505, Note_on_c, 9, 51, 0
4, 35525, Note_on_c, 9, 51, 43
4, 35592, Note_on_c, 9, 51, 0
4, 35599, Note_on_c, 9, 59, 59
4, 35632, Note_on_c, 9, 59, 0
4, 35717, Note_on_c, 9, 38, 38
4, 35724, Note_on_c, 9, 38, 0
4, 35724, Note_on_c, 9, 51, 45
4, 35733, Note_on_c, 9, 51, 0
4, 35765, Note_on_c, 9, 51, 49
4, 35825, Note_on_c, 9, 51, 0
4, 35836, Note_on_c, 9, 36, 25
4, 35844, Note_on_c, 9, 36, 0
4, 35881, Note_on_c, 9, 51, 50
4, 35941, Note_on_c, 9, 51, 0
4, 36000, Note_on_c, 9, 51, 92
4, 36063, Note_on_c, 9, 51, 0
4, 36087, Note_on_c, 9, 51, 42
4, 36103, Note_on_c, 9, 51, 0
4, 36125, Note_on_c, 9, 51, 37
4, 36187, Note_on_c, 9, 51, 0
4, 36268, Note_on_c, 9, 44, 31
4, 36279, Note_on_c, 9, 44, 0
4, 36318, Note_on_c, 9, 51, 75
4, 36356, Note_on_c, 9, 44, 33
4, 36373, Note_on_c, 9, 44, 0
4, 36399, Note_on_c, 9, 51, 0
4, 36430, Note_on_c, 9, 44, 44
4, 36438, Note_on_c, 9, 44, 0
4, 36487, Note_on_c, 9, 51, 69
4, 36508, Note_on_c, 9, 44, 39
4, 36518, Note_on_c, 9, 44, 0
4, 36553, Note_on_c, 9, 51, 0
4, 36590, Note_on_c, 9, 44, 41
4, 36601, Note_on_c, 9, 51, 30
4, 36605, Note_on_c, 9, 44, 0
4, 36612, Note_on_c, 9, 51, 0
4, 36674, Note_on_c, 9, 44, 44
4, 36679, Note_on_c, 9, 51, 90
4, 36688, Note_on_c, 9, 44, 0
4, 36756, Note_on_c, 9, 51, 0
4, 36761, Note_on_c, 9, 44, 42
4, 36774, Note_on_c, 9, 44, 0
4, 36798, Note_on_c, 9, 38, 38
4, 36804, Note_on_c, 9, 51, 52
4, 36806, Note_on_c, 9, 38, 0
4, 36814, Note_on_c, 9, 51, 0
4, 36838, Note_on_c, 9, 44, 37
4, 36849, Note_on_c, 9, 44, 0
4, 36851, Note_on_c, 9, 51, 71
4, 36852, Note_on_c, 9, 53, 63
4, 36883, Note_on_c, 9, 38, 43
4, 36895, Note_on_c, 9, 38, 0
4, 36915, Note_on_c, 9, 51, 0
4, 36919, Note_on_c, 9, 44, 50
4, 36931, Note_on_c, 9, 53, 0
4, 36933, Note_on_c, 9, 44, 0
4, 36964, Note_on_c, 9, 51, 42
4, 36964, Note_on_c, 9, 36, 59
4, 36979, Note_on_c, 9, 51, 0
4, 37003, Note_on_c, 9, 36, 0
4, 37045, Note_on_c, 9, 51, 82
4, 37049, Note_on_c, 9, 53, 71
4, 37097, Note_on_c, 9, 51, 0
4, 37125, Note_on_c, 9, 53, 0
4, 37165, Note_on_c, 9, 51, 46
4, 37174, Note_on_c, 9, 51, 0
4, 37217, Note_on_c, 9, 51, 80
4, 37223, Note_on_c, 9, 53, 68
4, 37264, Note_on_c, 9, 51, 0
4, 37282, Note_on_c, 9, 53, 0
4, 37324, Note_on_c, 9, 51, 39
4, 37338, Note_on_c, 9, 51, 0
4, 37390, Note_on_c, 9, 51, 83
4, 37397, Note_on_c, 9, 53, 66
4, 37429, Note_on_c, 9, 51, 0
4, 37451, Note_on_c, 9, 53, 0
4, 37515, Note_on_c, 9, 51, 45
4, 37536, Note_on_c, 9, 51, 0
4, 37557, Note_on_c, 9, 38, 26
4, 37561, Note_on_c, 9, 51, 67
4, 37578, Note_on_c, 9, 38, 0
4, 37628, Note_on_c, 9, 51, 0
4, 37639, Note_on_c, 9, 38, 40
4, 37646, Note_on_c, 9, 38, 0
4, 37677, Note_on_c, 9, 51, 71
4, 37742, Note_on_c, 9, 51, 0
4, 37759, Note_on_c, 9, 36, 21
4, 37763, Note_on_c, 9, 51, 31
4, 37766, Note_on_c, 9, 36, 0
4, 37773, Note_on_c, 9, 51, 0
4, 37794, Note_on_c, 9, 51, 61
4, 37865, Note_on_c, 9, 51, 0
4, 37917, Note_on_c, 9, 51, 78
4, 38007, Note_on_c, 9, 51, 0
4, 38040, Note_on_c, 9, 51, 46
4, 38103, Note_on_c, 9, 51, 0
4, 38117, Note_on_c, 9, 36, 45
4, 38132, Note_on_c, 9, 36, 0
4, 38161, Note_on_c, 9, 36, 30
4, 38162, Note_on_c, 9, 51, 55
4, 38173, Note_on_c, 9, 36, 0
4, 38204, Note_on_c, 9, 51, 0
4, 38242, Note_on_c, 9, 38, 21
4, 38244, Note_on_c, 9, 51, 71
4, 38246, Note_on_c, 9, 46, 67
4, 38250, Note_on_c, 9, 38, 0
4, 38333, Note_on_c, 9, 46, 0
4, 38341, Note_on_c, 9, 51, 0
4, 38370, Note_on_c, 9, 51, 42
4, 38387, Note_on_c, 9, 51, 0
4, 38421, Note_on_c, 9, 51, 73
4, 38423, Note_on_c, 9, 46, 69
4, 38440, Note_on_c, 9, 38, 35
4, 38447, Note_on_c, 9, 38, 0
4, 38494, Note_on_c, 9, 51, 0
4, 38524, Note_on_c, 9, 46, 0
4, 38526, Note_on_c, 9, 51, 48
4, 38547, Note_on_c, 9, 51, 0
4, 38594, Note_on_c, 9, 51, 80
4, 38597, Note_on_c, 9, 46, 74
4, 38601, Note_on_c, 9, 36, 25
4, 38609, Note_on_c, 9, 36, 0
4, 38656, Note_on_c, 9, 51, 0
4, 38677, Note_on_c, 9, 38, 37
4, 38678, Note_on_c, 9, 46, 0
4, 38684, Note_on_c, 9, 38, 0
4, 38716, Note_on_c, 9, 36, 34
4, 38718, Note_on_c, 9, 51, 39
4, 38726, Note_on_c, 9, 36, 0
4, 38734, Note_on_c, 9, 51, 0
4, 38754, Note_on_c, 9, 46, 45
4, 38757, Note_on_c, 9, 51, 47
4, 38759, Note_on_c, 9, 38, 30
4, 38766, Note_on_c, 9, 46, 0
4, 38772, Note_on_c, 9, 38, 0
4, 38787, Note_on_c, 9, 51, 0
4, 38840, Note_on_c, 9, 38, 57
4, 38841, Note_on_c, 9, 51, 84
4, 38843, Note_on_c, 9, 57, 79
4, 38854, Note_on_c, 9, 38, 0
4, 38890, Note_on_c, 9, 36, 24
4, 38901, Note_on_c, 9, 36, 0
4, 38949, Note_on_c, 9, 57, 0
4, 38964, Note_on_c, 9, 51, 0
4, 38964, Note_on_c, 9, 36, 41
4, 38980, Note_on_c, 9, 36, 0
4, 39001, Note_on_c, 9, 36, 36
4, 39025, Note_on_c, 9, 36, 0
4, 39084, Note_on_c, 9, 51, 44
4, 39106, Note_on_c, 9, 51, 0
4, 39123, Note_on_c, 9, 51, 47
4, 39171, Note_on_c, 9, 51, 0
4, 39327, Note_on_c, 9, 51, 49
4, 39336, Note_on_c, 9, 51, 0
4, 39368, Note_on_c, 9, 51, 40
4, 39419, Note_on_c, 9, 51, 0
4, 39477, Note_on_c, 9, 51, 81
4, 39561, Note_on_c, 9, 51, 0
4, 39677, Note_on_c, 9, 51, 49
4, 39682, Note_on_c, 9, 36, 27
4, 39687, Note_on_c, 9, 51, 0
4, 39691, Note_on_c, 9, 36, 0
4, 39720, Note_on_c, 9, 51, 67
4, 39720, Note_on_c, 9, 44, 27
4, 39729, Note_on_c, 9, 44, 0
4, 39756, Note_on_c, 9, 44, 34
4, 39770, Note_on_c, 9, 44, 0
4, 39771, Note_on_c, 9, 51, 0
4, 39796, Note_on_c, 9, 36, 49
4, 39804, Note_on_c, 9, 51, 90
4, 39822, Note_on_c, 9, 36, 0
4, 39910, Note_on_c, 9, 51, 0
4, 39939, Note_on_c, 9, 51, 37
4, 39947, Note_on_c, 9, 51, 0
4, 40039, Note_on_c, 9, 36, 26
4, 40049, Note_on_c, 9, 36, 0
4, 40112, Note_on_c, 9, 44, 32
4, 40120, Note_on_c, 9, 44, 0
4, 40200, Note_on_c, 9, 44, 36
4, 40207, Note_on_c, 9, 44, 0
4, 40232, Note_on_c, 9, 51, 56
4, 40246, Note_on_c, 9, 51, 0
4, 40266, Note_on_c, 9, 51, 51
4, 40274, Note_on_c, 9, 44, 45
4, 40284, Note_on_c, 9, 44, 0
4, 40287, Note_on_c, 9, 51, 0
4, 40313, Note_on_c, 9, 51, 64
4, 40320, Note_on_c, 9, 36, 14
4, 40327, Note_on_c, 9, 36, 0
4, 40372, Note_on_c, 9, 44, 33
4, 40378, Note_on_c, 9, 44, 0
4, 40381, Note_on_c, 9, 51, 0
4, 40437, Note_on_c, 9, 51, 73
4, 40444, Note_on_c, 9, 44, 44
4, 40454, Note_on_c, 9, 44, 0
4, 40495, Note_on_c, 9, 51, 0
4, 40515, Note_on_c, 9, 44, 58
4, 40527, Note_on_c, 9, 44, 0
4, 40531, Note_on_c, 9, 51, 36
4, 40541, Note_on_c, 9, 51, 0
4, 40562, Note_on_c, 9, 51, 53
4, 40596, Note_on_c, 9, 44, 42
4, 40604, Note_on_c, 9, 44, 0
4, 40630, Note_on_c, 9, 51, 0
4, 40634, Note_on_c, 9, 36, 39
4, 40643, Note_on_c, 9, 36, 0
4, 40677, Note_on_c, 9, 51, 82
4, 40677, Note_on_c, 9, 44, 48
4, 40687, Note_on_c, 9, 44, 0
4, 40745, Note_on_c, 9, 51, 0
4, 40756, Note_on_c, 9, 44, 54
4, 40765, Note_on_c, 9, 44, 0
4, 40793, Note_on_c, 9, 51, 75
4, 40862, Note_on_c, 9, 51, 0
4, 40915, Note_on_c, 9, 51, 77
4, 40995, Note_on_c, 9, 51, 0
4, 41036, Note_on_c, 9, 51, 71
4, 41111, Note_on_c, 9, 51, 0
4, 41161, Note_on_c, 9, 51, 74
4, 41210, Note_on_c, 9, 51, 0
4, 41240, Note_on_c, 9, 36, 52
4, 41244, Note_on_c, 9, 51, 64
4, 41245, Note_on_c, 9, 53, 57
4, 41255, Note_on_c, 9, 36, 0
4, 41278, Note_on_c, 9, 36, 38
4, 41298, Note_on_c, 9, 36, 0
4, 41340, Note_on_c, 9, 51, 0
4, 41351, Note_on_c, 9, 53, 0
4, 41363, Note_on_c, 9, 51, 47
4, 41380, Note_on_c, 9, 51, 0
4, 41416, Note_on_c, 9, 51, 71
4, 41421, Note_on_c, 9, 53, 62
4, 41467, Note_on_c, 9, 51, 0
4, 41479, Note_on_c, 9, 44, 24
4, 41484, Note_on_c, 9, 53, 0
4, 41485, Note_on_c, 9, 44, 0
4, 41522, Note_on_c, 9, 51, 38
4, 41556, Note_on_c, 9, 51, 0
4, 41564, Note_on_c, 9, 44, 39
4, 41571, Note_on_c, 9, 44, 0
4, 41603, Note_on_c, 9, 51, 69
4, 41603, Note_on_c, 9, 36, 35
4, 41616, Note_on_c, 9, 36, 0
4, 41624, Note_on_c, 9, 51, 0
4, 41641, Note_on_c, 9, 44, 24
4, 41648, Note_on_c, 9, 44, 0
4, 41686, Note_on_c, 9, 36, 33
4, 41693, Note_on_c, 9, 36, 0
4, 41720, Note_on_c, 9, 36, 56
4, 41725, Note_on_c, 9, 51, 40
4, 41740, Note_on_c, 9, 51, 0
4, 41757, Note_on_c, 9, 36, 0
4, 41763, Note_on_c, 9, 51, 63
4, 41769, Note_on_c, 9, 36, 53
4, 41809, Note_on_c, 9, 36, 0
4, 41832, Note_on_c, 9, 51, 0
4, 41879, Note_on_c, 9, 51, 88
4, 41964, Note_on_c, 9, 51, 0
4, 42009, Note_on_c, 9, 51, 30
4, 42017, Note_on_c, 9, 51, 0
4, 42079, Note_on_c, 9, 51, 80
4, 42119, Note_on_c, 9, 36, 32
4, 42127, Note_on_c, 9, 36, 0
4, 42131, Note_on_c, 9, 51, 0
4, 42192, Note_on_c, 9, 36, 68
4, 42198, Note_on_c, 9, 51, 44
4, 42207, Note_on_c, 9, 36, 0
4, 42211, Note_on_c, 9, 51, 0
4, 42238, Note_on_c, 9, 51, 75
4, 42311, Note_on_c, 9, 51, 0
4, 42316, Note_on_c, 9, 36, 18
4, 42323, Note_on_c, 9, 36, 0
4, 42432, Note_on_c, 9, 51, 81
4, 42434, Note_on_c, 9, 38, 44
4, 42446, Note_on_c, 9, 38, 0
4, 42520, Note_on_c, 9, 51, 0
4, 42554, Note_on_c, 9, 38, 55
4, 42557, Note_on_c, 9, 51, 34
4, 42570, Note_on_c, 9, 51, 0
4, 42574, Note_on_c, 9, 38, 0
4, 42602, Note_on_c, 9, 51, 71
4, 42626, Note_on_c, 9, 51, 0
4, 42676, Note_on_c, 9, 51, 77
4, 42678, Note_on_c, 9, 38, 48
4, 42680, Note_on_c, 9, 53, 48
4, 42692, Note_on_c, 9, 38, 0
4, 42703, Note_on_c, 9, 51, 0
4, 42706, Note_on_c, 9, 53, 0
4, 42719, Note_on_c, 9, 57, 59
4, 42722, Note_on_c, 9, 38, 40
4, 42723, Note_on_c, 9, 36, 39
4, 42732, Note_on_c, 9, 36, 0
4, 42734, Note_on_c, 9, 57, 0
4, 42735, Note_on_c, 9, 38, 0
4, 42802, Note_on_c, 9, 51, 40
4, 42812, Note_on_c, 9, 51, 0
4, 42845, Note_on_c, 9, 51, 60
4, 42898, Note_on_c, 9, 51, 0
4, 42955, Note_on_c, 9, 51, 84
4, 42992, Note_on_c, 9, 38, 41
4, 43017, Note_on_c, 9, 51, 0
4, 43024, Note_on_c, 9, 38, 0
4, 43042, Note_on_c, 9, 51, 35
4, 43055, Note_on_c, 9, 51, 0
4, 43070, Note_on_c, 9, 36, 62
4, 43072, Note_on_c, 9, 57, 60
4, 43077, Note_on_c, 9, 38, 30
4, 43079, Note_on_c, 9, 51, 39
4, 43084, Note_on_c, 9, 38, 0
4, 43090, Note_on_c, 9, 57, 0
4, 43109, Note_on_c, 9, 51, 0
4, 43118, Note_on_c, 9, 36, 0
4, 43169, Note_on_c, 9, 51, 58
4, 43177, Note_on_c, 9, 51, 0
4, 43202, Note_on_c, 9, 51, 59
4, 43245, Note_on_c, 9, 51, 0
4, 43407, Note_on_c, 9, 51, 44
4, 43420, Note_on_c, 9, 51, 0
4, 43439, Note_on_c, 9, 51, 62
4, 43479, Note_on_c, 9, 51, 0
4, 43535, Note_on_c, 9, 51, 87
4, 43631, Note_on_c, 9, 51, 0
4, 43647, Note_on_c, 9, 51, 45
4, 43656, Note_on_c, 9, 51, 0
4, 43684, Note_on_c, 9, 51, 79
4, 43760, Note_on_c, 9, 38, 27
4, 43766, Note_on_c, 9, 51, 0
4, 43768, Note_on_c, 9, 38, 0
4, 43877, Note_on_c, 9, 36, 34
4, 43885, Note_on_c, 9, 36, 0
4, 43929, Note_on_c, 9, 51, 62
4, 43978, Note_on_c, 9, 51, 0
4, 43996, Note_on_c, 9, 38, 33
4, 44012, Note_on_c, 9, 38, 0
4, 44039, Note_on_c, 9, 51, 94
4, 44042, Note_on_c, 9, 38, 27
4, 44061, Note_on_c, 9, 38, 0
4, 44119, Note_on_c, 9, 36, 39
4, 44127, Note_on_c, 9, 36, 0
4, 44137, Note_on_c, 9, 51, 0
4, 44235, Note_on_c, 9, 51, 55
4, 44237, Note_on_c, 9, 38, 49
4, 44246, Note_on_c, 9, 38, 0
4, 44260, Note_on_c, 9, 51, 0
4, 44274, Note_on_c, 9, 51, 44
4, 44286, Note_on_c, 9, 38, 28
4, 44294, Note_on_c, 9, 38, 0
4, 44319, Note_on_c, 9, 51, 0
4, 44354, Note_on_c, 9, 36, 57
4, 44358, Note_on_c, 9, 51, 83
4, 44375, Note_on_c, 9, 36, 0
4, 44393, Note_on_c, 9, 51, 0
4, 44429, Note_on_c, 9, 51, 63
4, 44465, Note_on_c, 9, 51, 0
4, 44477, Note_on_c, 9, 38, 55
4, 44492, Note_on_c, 9, 38, 0
4, 44523, Note_on_c, 9, 51, 83
4, 44524, Note_on_c, 9, 38, 21
4, 44536, Note_on_c, 9, 38, 0
4, 44559, Note_on_c, 9, 51, 0
4, 44589, Note_on_c, 9, 36, 59
4, 44603, Note_on_c, 9, 51, 74
4, 44604, Note_on_c, 9, 36, 0
4, 44623, Note_on_c, 9, 51, 0
4, 44637, Note_on_c, 9, 51, 77
4, 44687, Note_on_c, 9, 51, 0
4, 44708, Note_on_c, 9, 38, 57
4, 44735, Note_on_c, 9, 38, 0
4, 44752, Note_on_c, 9, 51, 85
4, 44757, Note_on_c, 9, 38, 25
4, 44796, Note_on_c, 9, 38, 0
4, 44820, Note_on_c, 9, 51, 0
4, 44834, Note_on_c, 9, 36, 71
4, 44849, Note_on_c, 9, 51, 43
4, 44862, Note_on_c, 9, 51, 0
4, 44866, Note_on_c, 9, 36, 0
4, 44882, Note_on_c, 9, 51, 62
4, 44942, Note_on_c, 9, 51, 0
4, 44954, Note_on_c, 9, 38, 39
4, 44962, Note_on_c, 9, 38, 0
4, 44999, Note_on_c, 9, 51, 82
4, 45001, Note_on_c, 9, 38, 21
4, 45013, Note_on_c, 9, 38, 0
4, 45053, Note_on_c, 9, 51, 0
4, 45070, Note_on_c, 9, 36, 62
4, 45088, Note_on_c, 9, 51, 33
4, 45097, Note_on_c, 9, 51, 0
4, 45102, Note_on_c, 9, 36, 0
4, 45120, Note_on_c, 9, 51, 49
4, 45164, Note_on_c, 9, 51, 0
4, 45196, Note_on_c, 9, 38, 51
4, 45212, Note_on_c, 9, 38, 0
4, 45235, Note_on_c, 9, 51, 73
4, 45239, Note_on_c, 9, 57, 65
4, 45242, Note_on_c, 9, 38, 42
4, 45250, Note_on_c, 9, 38, 0
4, 45265, Note_on_c, 9, 57, 0
4, 45299, Note_on_c, 9, 51, 0
4, 45316, Note_on_c, 9, 36, 45
4, 45323, Note_on_c, 9, 36, 0
4, 45364, Note_on_c, 9, 51, 46
4, 45393, Note_on_c, 9, 51, 0
4, 45431, Note_on_c, 9, 36, 49
4, 45438, Note_on_c, 9, 36, 0
4, 45479, Note_on_c, 9, 44, 33
4, 45481, Note_on_c, 9, 51, 79
4, 45483, Note_on_c, 9, 57, 74
4, 45494, Note_on_c, 9, 44, 0
4, 45514, Note_on_c, 9, 57, 0
4, 45539, Note_on_c, 9, 51, 0
4, 45552, Note_on_c, 9, 57, 49
4, 45554, Note_on_c, 9, 36, 45
4, 45559, Note_on_c, 9, 57, 0
4, 45561, Note_on_c, 9, 36, 0
4, 45594, Note_on_c, 9, 51, 54
4, 45645, Note_on_c, 9, 51, 0
4, 46489, Note_on_c, 9, 38, 38
4, 46500, Note_on_c, 9, 38, 0
4, 46532, Note_on_c, 9, 38, 35
4, 46552, Note_on_c, 9, 38, 0
4, 46580, Note_on_c, 9, 36, 42
4, 46584, Note_on_c, 9, 57, 45
4, 46599, Note_on_c, 9, 57, 0
4, 46677, Note_on_c, 9, 36, 0
4, 46677, End_track
5, 0, Start_track
5, 0, Title_t, "dougmck@pipeline.com.au"
5, 0, End_track
6, 0, Start_track
6, 0, Title_t, " "
6, 0, End_track
7, 0, Start_track
7, 0, Title_t, ""
7, 0, End_track
8, 0, Start_track
8, 0, Title_t, ""
8, 0, End_track
0, 0, End_of_file
