0, 0, Header, 1, 6, 384
1, 0, Start_track
1, 0, Title_t, "Pick Yourself Up"
1, 0, Text_t, "Doug McKenzie (dougmck@pipeline.com.au)                  \012"
1, 0, SMPTE_offset, 96, 0, 3, 0, 0
1, 0, MIDI_port, 0
1, 0, System_exclusive, 10, 65, 16, 66, 18, 64, 0, 127, 0, 65, 247
1, 0, System_exclusive, 8, 67, 115, 1, 17, 15, 89, 3, 247
1, 0, MIDI_port, 0
1, 0, System_exclusive, 8, 67, 115, 1, 17, 15, 89, 0, 247
1, 0, MIDI_port, 0
1, 0, System_exclusive, 5, 126, 127, 9, 1, 247
1, 0, MIDI_port, 0
1, 0, System_exclusive, 10, 65, 16, 66, 18, 64, 0, 127, 0, 65, 247
1, 0, MIDI_port, 0
1, 0, Time_signature, 4, 2, 24, 8
1, 0, Key_signature, 0, "major"
1, 0, Tempo, 387097
1, 1536, Marker_t, "Sequence by dougmck@pipeline.com.au"
1, 1536, End_track
2, 0, Start_track
2, 0, MIDI_port, 0
2, 0, Title_t, "Pick Yourself Up"
2, 386, Program_c, 0, 0
2, 387, Control_c, 0, 7, 127
2, 3072, Note_on_c, 0, 77, 64
2, 3172, Note_on_c, 0, 77, 0
2, 3443, Note_on_c, 0, 77, 76
2, 3456, Note_on_c, 0, 60, 50
2, 3459, Note_on_c, 0, 50, 40
2, 3463, Note_on_c, 0, 53, 45
2, 3492, Note_on_c, 0, 60, 0
2, 3504, Note_on_c, 0, 50, 0
2, 3541, Note_on_c, 0, 53, 0
2, 3633, Note_on_c, 0, 77, 0
2, 3639, Control_c, 0, 64, 127
2, 3705, Note_on_c, 0, 79, 57
2, 3790, Note_on_c, 0, 79, 0
2, 3805, Control_c, 0, 64, 0
2, 3846, Note_on_c, 0, 77, 55
2, 3847, Note_on_c, 0, 64, 39
2, 3854, Note_on_c, 0, 59, 46
2, 3859, Note_on_c, 0, 53, 29
2, 3929, Control_c, 0, 64, 127
2, 4043, Note_on_c, 0, 64, 0
2, 4059, Note_on_c, 0, 77, 0
2, 4077, Note_on_c, 0, 59, 0
2, 4097, Note_on_c, 0, 76, 53
2, 4108, Control_c, 0, 64, 0
2, 4125, Note_on_c, 0, 64, 40
2, 4134, Note_on_c, 0, 59, 22
2, 4211, Note_on_c, 0, 76, 0
2, 4229, Note_on_c, 0, 64, 0
2, 4239, Control_c, 0, 64, 127
2, 4243, Note_on_c, 0, 74, 31
2, 4275, Note_on_c, 0, 53, 0
2, 4387, Note_on_c, 0, 59, 0
2, 4420, Control_c, 0, 64, 0
2, 4433, Note_on_c, 0, 74, 0
2, 4463, Note_on_c, 0, 62, 41
2, 4466, Note_on_c, 0, 76, 62
2, 4468, Note_on_c, 0, 59, 11
2, 4485, Note_on_c, 0, 52, 32
2, 4493, Note_on_c, 0, 55, 34
2, 4543, Note_on_c, 0, 62, 0
2, 4552, Note_on_c, 0, 55, 0
2, 4553, Note_on_c, 0, 52, 0
2, 4557, Note_on_c, 0, 76, 0
2, 4560, Note_on_c, 0, 59, 0
2, 4707, Control_c, 0, 64, 127
2, 4830, Control_c, 0, 64, 0
2, 4838, Note_on_c, 0, 62, 47
2, 4847, Note_on_c, 0, 59, 36
2, 4852, Note_on_c, 0, 76, 62
2, 4853, Note_on_c, 0, 52, 33
2, 4857, Note_on_c, 0, 55, 36
2, 4896, Note_on_c, 0, 52, 0
2, 4901, Note_on_c, 0, 55, 0
2, 4910, Note_on_c, 0, 62, 0
2, 4919, Note_on_c, 0, 59, 0
2, 4920, Note_on_c, 0, 76, 0
2, 5027, Control_c, 0, 64, 127
2, 5209, Note_on_c, 0, 74, 52
2, 5211, Note_on_c, 0, 69, 62
2, 5214, Note_on_c, 0, 79, 52
2, 5214, Note_on_c, 0, 64, 60
2, 5266, Control_c, 0, 64, 0
2, 5275, Note_on_c, 0, 69, 0
2, 5281, Note_on_c, 0, 79, 0
2, 5286, Note_on_c, 0, 74, 0
2, 5324, Note_on_c, 0, 64, 0
2, 5348, Note_on_c, 0, 63, 40
2, 5604, Note_on_c, 0, 69, 74
2, 5606, Note_on_c, 0, 79, 64
2, 5614, Note_on_c, 0, 74, 57
2, 5617, Note_on_c, 0, 64, 64
2, 5638, Note_on_c, 0, 69, 0
2, 5642, Note_on_c, 0, 74, 0
2, 5648, Note_on_c, 0, 64, 0
2, 5652, Note_on_c, 0, 63, 0
2, 5661, Note_on_c, 0, 79, 0
2, 5808, Control_c, 0, 64, 127
2, 5996, Note_on_c, 0, 74, 61
2, 5997, Note_on_c, 0, 65, 73
2, 6007, Note_on_c, 0, 69, 64
2, 6016, Note_on_c, 0, 71, 60
2, 6038, Control_c, 0, 64, 0
2, 6039, Note_on_c, 0, 62, 63
2, 6061, Note_on_c, 0, 65, 0
2, 6092, Note_on_c, 0, 69, 0
2, 6099, Note_on_c, 0, 74, 0
2, 6104, Note_on_c, 0, 71, 0
2, 6170, Note_on_c, 0, 62, 0
2, 6187, Note_on_c, 0, 60, 40
2, 6309, Control_c, 0, 64, 127
2, 6390, Note_on_c, 0, 62, 57
2, 6391, Note_on_c, 0, 74, 48
2, 6394, Note_on_c, 0, 65, 61
2, 6398, Note_on_c, 0, 69, 58
2, 6404, Control_c, 0, 64, 0
2, 6409, Note_on_c, 0, 71, 40
2, 6422, Note_on_c, 0, 65, 0
2, 6423, Note_on_c, 0, 60, 0
2, 6426, Note_on_c, 0, 69, 0
2, 6443, Note_on_c, 0, 71, 0
2, 6446, Note_on_c, 0, 74, 0
2, 6453, Note_on_c, 0, 62, 0
2, 6574, Control_c, 0, 64, 127
2, 6837, Control_c, 0, 64, 0
2, 6879, Note_on_c, 0, 62, 61
2, 6885, Note_on_c, 0, 56, 42
2, 6885, Note_on_c, 0, 67, 48
2, 6976, Control_c, 0, 64, 127
2, 7184, Control_c, 0, 64, 0
2, 7263, Note_on_c, 0, 77, 92
2, 7298, Control_c, 0, 64, 127
2, 7314, Note_on_c, 0, 67, 0
2, 7316, Note_on_c, 0, 62, 0
2, 7460, Note_on_c, 0, 77, 0
2, 7493, Note_on_c, 0, 74, 66
2, 7540, Note_on_c, 0, 56, 0
2, 7625, Note_on_c, 0, 55, 42
2, 7633, Control_c, 0, 64, 0
2, 7637, Note_on_c, 0, 74, 0
2, 7642, Note_on_c, 0, 64, 24
2, 7656, Note_on_c, 0, 60, 34
2, 7815, Note_on_c, 0, 72, 36
2, 7893, Note_on_c, 0, 72, 0
2, 8065, Note_on_c, 0, 72, 55
2, 8078, Control_c, 0, 64, 127
2, 8178, Note_on_c, 0, 55, 0
2, 8204, Note_on_c, 0, 64, 0
2, 8216, Note_on_c, 0, 60, 0
2, 8280, Note_on_c, 0, 72, 0
2, 8304, Note_on_c, 0, 76, 63
2, 8348, Control_c, 0, 64, 0
2, 8463, Control_c, 0, 64, 127
2, 8683, Note_on_c, 0, 64, 66
2, 8689, Note_on_c, 0, 57, 53
2, 8693, Control_c, 0, 64, 0
2, 8701, Note_on_c, 0, 60, 44
2, 8723, Note_on_c, 0, 64, 0
2, 8729, Note_on_c, 0, 60, 0
2, 8769, Note_on_c, 0, 57, 0
2, 8774, Note_on_c, 0, 76, 0
2, 8883, Control_c, 0, 64, 127
2, 9070, Note_on_c, 0, 72, 60
2, 9120, Control_c, 0, 64, 0
2, 9174, Note_on_c, 0, 72, 0
2, 9186, Note_on_c, 0, 65, 41
2, 9211, Note_on_c, 0, 55, 20
2, 9220, Note_on_c, 0, 65, 0
2, 9220, Note_on_c, 0, 60, 20
2, 9233, Note_on_c, 0, 57, 20
2, 9236, Note_on_c, 0, 67, 25
2, 9252, Control_c, 0, 64, 127
2, 9268, Note_on_c, 0, 60, 0
2, 9269, Note_on_c, 0, 55, 0
2, 9277, Note_on_c, 0, 57, 0
2, 9370, Note_on_c, 0, 67, 0
2, 9453, Note_on_c, 0, 67, 33
2, 9507, Control_c, 0, 64, 0
2, 9519, Note_on_c, 0, 67, 0
2, 9597, Control_c, 0, 64, 127
2, 9598, Note_on_c, 0, 67, 36
2, 9868, Note_on_c, 0, 67, 0
2, 9909, Control_c, 0, 64, 0
2, 9944, Note_on_c, 0, 67, 57
2, 9958, Control_c, 0, 64, 127
2, 10087, Note_on_c, 0, 67, 0
2, 10229, Note_on_c, 0, 55, 31
2, 10260, Note_on_c, 0, 55, 0
2, 10345, Note_on_c, 0, 43, 54
2, 10362, Control_c, 0, 64, 0
2, 10435, Control_c, 0, 64, 127
2, 10611, Note_on_c, 0, 56, 45
2, 10619, Note_on_c, 0, 67, 35
2, 10621, Note_on_c, 0, 60, 51
2, 10624, Note_on_c, 0, 55, 49
2, 10629, Note_on_c, 0, 63, 36
2, 10649, Control_c, 0, 64, 0
2, 11439, Note_on_c, 0, 55, 0
2, 11519, Control_c, 0, 64, 127
2, 11760, Note_on_c, 0, 50, 39
2, 11772, Note_on_c, 0, 56, 0
2, 11791, Note_on_c, 0, 60, 0
2, 11799, Note_on_c, 0, 67, 0
2, 11824, Note_on_c, 0, 63, 0
2, 11845, Note_on_c, 0, 50, 0
2, 11856, Control_c, 0, 64, 0
2, 11882, Note_on_c, 0, 67, 49
2, 11888, Note_on_c, 0, 55, 57
2, 11896, Note_on_c, 0, 56, 65
2, 11897, Note_on_c, 0, 63, 48
2, 11898, Note_on_c, 0, 60, 60
2, 12259, Control_c, 0, 64, 127
2, 12326, Note_on_c, 0, 56, 0
2, 12333, Note_on_c, 0, 60, 0
2, 12351, Note_on_c, 0, 55, 0
2, 12354, Note_on_c, 0, 67, 0
2, 12386, Note_on_c, 0, 63, 0
2, 12538, Note_on_c, 0, 67, 60
2, 12553, Note_on_c, 0, 57, 62
2, 12555, Note_on_c, 0, 60, 57
2, 12561, Note_on_c, 0, 55, 64
2, 12562, Control_c, 0, 64, 0
2, 12564, Note_on_c, 0, 65, 49
2, 12638, Note_on_c, 0, 43, 0
2, 12679, Note_on_c, 0, 57, 0
2, 12703, Control_c, 0, 64, 127
2, 12720, Note_on_c, 0, 60, 0
2, 12726, Note_on_c, 0, 65, 0
2, 12735, Note_on_c, 0, 55, 0
2, 12764, Note_on_c, 0, 67, 0
2, 13065, Control_c, 0, 64, 0
2, 13077, Note_on_c, 0, 68, 79
2, 13078, Note_on_c, 0, 74, 74
2, 13086, Note_on_c, 0, 71, 66
2, 13088, Note_on_c, 0, 59, 67
2, 13089, Note_on_c, 0, 64, 79
2, 13189, Control_c, 0, 64, 127
2, 13196, Note_on_c, 0, 71, 0
2, 13230, Note_on_c, 0, 74, 0
2, 13237, Note_on_c, 0, 64, 0
2, 13252, Note_on_c, 0, 68, 0
2, 13313, Note_on_c, 0, 72, 47
2, 13323, Note_on_c, 0, 64, 44
2, 13324, Note_on_c, 0, 59, 0
2, 13341, Note_on_c, 0, 67, 36
2, 13341, Note_on_c, 0, 57, 51
2, 13373, Note_on_c, 0, 67, 0
2, 13376, Control_c, 0, 64, 0
2, 13384, Note_on_c, 0, 64, 0
2, 13394, Note_on_c, 0, 72, 0
2, 13442, Note_on_c, 0, 57, 0
2, 13472, Note_on_c, 0, 56, 19
2, 13622, Control_c, 0, 64, 127
2, 13689, Note_on_c, 0, 72, 57
2, 13690, Note_on_c, 0, 56, 0
2, 13691, Note_on_c, 0, 62, 60
2, 13694, Note_on_c, 0, 67, 58
2, 13704, Control_c, 0, 64, 0
2, 13705, Note_on_c, 0, 57, 44
2, 13741, Note_on_c, 0, 62, 0
2, 13750, Note_on_c, 0, 72, 0
2, 13751, Note_on_c, 0, 67, 0
2, 13763, Note_on_c, 0, 57, 0
2, 13943, Control_c, 0, 64, 127
2, 14065, Note_on_c, 0, 67, 53
2, 14076, Note_on_c, 0, 59, 47
2, 14077, Note_on_c, 0, 62, 51
2, 14093, Note_on_c, 0, 55, 67
2, 14118, Note_on_c, 0, 62, 0
2, 14124, Control_c, 0, 64, 0
2, 14125, Note_on_c, 0, 59, 0
2, 14143, Note_on_c, 0, 67, 0
2, 14412, Control_c, 0, 64, 127
2, 14461, Control_c, 0, 64, 0
2, 14592, Control_c, 0, 64, 127
2, 14886, Note_on_c, 0, 55, 0
2, 15098, Note_on_c, 0, 64, 47
2, 15179, Note_on_c, 0, 65, 41
2, 15211, Note_on_c, 0, 66, 56
2, 15212, Note_on_c, 0, 64, 0
2, 15255, Note_on_c, 0, 65, 0
2, 15307, Control_c, 0, 64, 0
2, 15313, Note_on_c, 0, 66, 0
2, 15313, Note_on_c, 0, 67, 64
2, 15349, Note_on_c, 0, 62, 48
2, 15354, Note_on_c, 0, 55, 41
2, 15380, Note_on_c, 0, 66, 23
2, 15387, Note_on_c, 0, 59, 34
2, 15734, Control_c, 0, 64, 127
2, 15784, Note_on_c, 0, 62, 0
2, 15854, Note_on_c, 0, 59, 0
2, 15854, Note_on_c, 0, 55, 0
2, 15904, Note_on_c, 0, 66, 0
2, 15927, Note_on_c, 0, 67, 0
2, 15973, Note_on_c, 0, 69, 76
2, 16054, Control_c, 0, 64, 0
2, 16064, Note_on_c, 0, 69, 0
2, 16064, Note_on_c, 0, 66, 37
2, 16083, Note_on_c, 0, 61, 36
2, 16121, Note_on_c, 0, 55, 18
2, 16122, Note_on_c, 0, 67, 29
2, 16260, Control_c, 0, 64, 127
2, 16297, Note_on_c, 0, 67, 0
2, 16340, Note_on_c, 0, 66, 0
2, 16363, Note_on_c, 0, 66, 29
2, 16368, Control_c, 0, 64, 0
2, 16438, Note_on_c, 0, 55, 0
2, 16499, Note_on_c, 0, 64, 35
2, 16534, Note_on_c, 0, 66, 0
2, 16555, Control_c, 0, 64, 127
2, 16613, Control_c, 0, 64, 0
2, 16673, Control_c, 0, 64, 127
2, 16721, Note_on_c, 0, 64, 0
2, 16763, Note_on_c, 0, 61, 0
2, 16778, Control_c, 0, 64, 0
2, 16846, Note_on_c, 0, 61, 14
2, 16865, Note_on_c, 0, 64, 35
2, 16876, Note_on_c, 0, 54, 28
2, 16882, Note_on_c, 0, 66, 38
2, 16896, Note_on_c, 0, 59, 32
2, 17048, Note_on_c, 0, 59, 0
2, 17055, Note_on_c, 0, 64, 0
2, 17079, Note_on_c, 0, 66, 0
2, 17091, Note_on_c, 0, 61, 0
2, 17111, Note_on_c, 0, 54, 0
2, 17279, Control_c, 0, 64, 127
2, 17582, Control_c, 0, 64, 0
2, 17653, Note_on_c, 0, 69, 73
2, 17863, Control_c, 0, 64, 127
2, 17944, Control_c, 0, 64, 0
2, 18043, Note_on_c, 0, 54, 42
2, 18043, Note_on_c, 0, 62, 43
2, 18059, Note_on_c, 0, 59, 33
2, 18114, Note_on_c, 0, 59, 0
2, 18121, Note_on_c, 0, 62, 0
2, 18156, Note_on_c, 0, 54, 0
2, 18290, Note_on_c, 0, 69, 0
2, 18453, Control_c, 0, 64, 127
2, 18683, Note_on_c, 0, 49, 59
2, 18692, Note_on_c, 0, 59, 50
2, 18716, Control_c, 0, 64, 0
2, 18733, Note_on_c, 0, 59, 0
2, 18752, Note_on_c, 0, 49, 0
2, 18833, Note_on_c, 0, 76, 55
2, 18894, Note_on_c, 0, 76, 0
2, 19085, Note_on_c, 0, 79, 72
2, 19173, Note_on_c, 0, 79, 0
2, 19300, Note_on_c, 0, 79, 68
2, 19405, Note_on_c, 0, 79, 0
2, 19456, Note_on_c, 0, 63, 57
2, 19462, Note_on_c, 0, 58, 52
2, 19490, Note_on_c, 0, 63, 0
2, 19535, Note_on_c, 0, 58, 0
2, 19557, Note_on_c, 0, 78, 60
2, 19636, Note_on_c, 0, 78, 0
2, 19788, Note_on_c, 0, 76, 72
2, 19836, Note_on_c, 0, 47, 44
2, 19861, Note_on_c, 0, 57, 33
2, 19866, Note_on_c, 0, 47, 0
2, 19879, Note_on_c, 0, 76, 0
2, 19895, Note_on_c, 0, 57, 0
2, 19939, Note_on_c, 0, 74, 60
2, 20198, Note_on_c, 0, 76, 57
2, 20207, Note_on_c, 0, 74, 0
2, 20269, Note_on_c, 0, 74, 53
2, 20283, Note_on_c, 0, 76, 0
2, 20328, Note_on_c, 0, 66, 42
2, 20338, Note_on_c, 0, 73, 45
2, 20343, Note_on_c, 0, 57, 38
2, 20343, Note_on_c, 0, 62, 33
2, 20376, Note_on_c, 0, 74, 0
2, 20502, Note_on_c, 0, 66, 0
2, 20532, Note_on_c, 0, 57, 0
2, 20570, Note_on_c, 0, 73, 0
2, 20574, Note_on_c, 0, 62, 0
2, 20594, Note_on_c, 0, 74, 62
2, 20682, Note_on_c, 0, 74, 0
2, 20717, Note_on_c, 0, 67, 53
2, 20720, Note_on_c, 0, 56, 39
2, 20721, Note_on_c, 0, 78, 64
2, 20722, Note_on_c, 0, 62, 42
2, 21074, Control_c, 0, 64, 127
2, 21204, Note_on_c, 0, 67, 0
2, 21241, Note_on_c, 0, 62, 0
2, 21290, Note_on_c, 0, 78, 0
2, 21336, Note_on_c, 0, 74, 58
2, 21378, Control_c, 0, 64, 0
2, 21546, Note_on_c, 0, 74, 0
2, 21557, Note_on_c, 0, 56, 0
2, 21674, Control_c, 0, 64, 127
2, 21723, Control_c, 0, 64, 0
2, 21871, Control_c, 0, 64, 127
2, 21872, Note_on_c, 0, 69, 48
2, 21879, Note_on_c, 0, 55, 34
2, 21888, Note_on_c, 0, 66, 18
2, 21910, Note_on_c, 0, 61, 19
2, 21989, Note_on_c, 0, 55, 0
2, 22014, Note_on_c, 0, 66, 0
2, 22028, Note_on_c, 0, 69, 0
2, 22050, Note_on_c, 0, 61, 0
2, 22111, Note_on_c, 0, 69, 54
2, 22112, Note_on_c, 0, 66, 36
2, 22137, Note_on_c, 0, 55, 30
2, 22137, Note_on_c, 0, 61, 31
2, 22170, Note_on_c, 0, 55, 0
2, 22183, Note_on_c, 0, 66, 0
2, 22188, Note_on_c, 0, 69, 0
2, 22214, Note_on_c, 0, 61, 0
2, 22224, Control_c, 0, 64, 0
2, 22243, Note_on_c, 0, 66, 33
2, 22250, Note_on_c, 0, 69, 54
2, 22255, Note_on_c, 0, 55, 40
2, 22263, Note_on_c, 0, 61, 14
2, 22265, Control_c, 0, 64, 127
2, 22389, Note_on_c, 0, 55, 0
2, 22417, Note_on_c, 0, 69, 0
2, 22425, Note_on_c, 0, 66, 0
2, 22445, Note_on_c, 0, 61, 0
2, 22503, Note_on_c, 0, 69, 69
2, 22507, Note_on_c, 0, 66, 53
2, 22516, Note_on_c, 0, 61, 43
2, 22516, Note_on_c, 0, 55, 62
2, 22577, Control_c, 0, 64, 0
2, 22676, Control_c, 0, 64, 127
2, 22921, Note_on_c, 0, 55, 0
2, 23002, Note_on_c, 0, 66, 0
2, 23045, Control_c, 0, 64, 0
2, 23050, Note_on_c, 0, 61, 0
2, 23066, Note_on_c, 0, 62, 58
2, 23079, Note_on_c, 0, 67, 25
2, 23091, Note_on_c, 0, 56, 21
2, 23135, Note_on_c, 0, 69, 0
2, 23168, Note_on_c, 0, 70, 59
2, 23224, Note_on_c, 0, 70, 0
2, 23290, Note_on_c, 0, 74, 67
2, 23387, Note_on_c, 0, 74, 0
2, 23418, Note_on_c, 0, 77, 51
2, 23500, Note_on_c, 0, 77, 0
2, 23545, Note_on_c, 0, 81, 71
2, 23608, Note_on_c, 0, 81, 0
2, 23665, Note_on_c, 0, 84, 89
2, 23667, Note_on_c, 0, 72, 83
2, 23677, Note_on_c, 0, 74, 71
2, 23707, Note_on_c, 0, 74, 0
2, 23785, Control_c, 0, 64, 127
2, 23862, Note_on_c, 0, 84, 0
2, 23868, Note_on_c, 0, 72, 0
2, 23877, Control_c, 0, 64, 0
2, 23939, Note_on_c, 0, 82, 74
2, 23974, Control_c, 0, 64, 127
2, 24115, Control_c, 0, 64, 0
2, 24144, Note_on_c, 0, 82, 0
2, 24199, Note_on_c, 0, 81, 66
2, 24202, Note_on_c, 0, 83, 65
2, 24204, Control_c, 0, 64, 127
2, 24267, Note_on_c, 0, 83, 0
2, 24308, Note_on_c, 0, 67, 0
2, 24365, Note_on_c, 0, 62, 0
2, 24396, Note_on_c, 0, 81, 0
2, 24425, Control_c, 0, 64, 0
2, 24442, Note_on_c, 0, 79, 64
2, 24511, Note_on_c, 0, 56, 0
2, 24549, Control_c, 0, 64, 127
2, 24560, Note_on_c, 0, 81, 3
2, 24613, Note_on_c, 0, 81, 0
2, 24615, Note_on_c, 0, 79, 0
2, 24696, Control_c, 0, 64, 0
2, 24711, Note_on_c, 0, 76, 71
2, 24722, Note_on_c, 0, 62, 47
2, 24734, Note_on_c, 0, 59, 33
2, 24736, Note_on_c, 0, 52, 27
2, 24738, Note_on_c, 0, 55, 36
2, 24869, Control_c, 0, 64, 127
2, 24911, Note_on_c, 0, 76, 0
2, 24952, Note_on_c, 0, 52, 0
2, 24956, Note_on_c, 0, 55, 0
2, 24958, Note_on_c, 0, 71, 42
2, 24975, Note_on_c, 0, 59, 0
2, 25039, Note_on_c, 0, 62, 0
2, 25111, Note_on_c, 0, 71, 0
2, 25172, Note_on_c, 0, 73, 49
2, 25174, Control_c, 0, 64, 0
2, 25183, Note_on_c, 0, 61, 53
2, 25184, Note_on_c, 0, 55, 51
2, 25191, Note_on_c, 0, 65, 49
2, 25314, Control_c, 0, 64, 127
2, 25378, Control_c, 0, 64, 0
2, 25419, Note_on_c, 0, 76, 71
2, 25429, Note_on_c, 0, 73, 0
2, 25510, Control_c, 0, 64, 127
2, 25581, Note_on_c, 0, 76, 0
2, 25609, Control_c, 0, 64, 0
2, 25654, Note_on_c, 0, 65, 0
2, 25676, Note_on_c, 0, 69, 64
2, 25679, Note_on_c, 0, 55, 0
2, 25691, Control_c, 0, 64, 127
2, 25821, Note_on_c, 0, 61, 0
2, 25887, Note_on_c, 0, 69, 0
2, 25937, Control_c, 0, 64, 0
2, 25946, Note_on_c, 0, 61, 25
2, 25947, Note_on_c, 0, 64, 48
2, 25949, Note_on_c, 0, 66, 48
2, 25952, Note_on_c, 0, 54, 31
2, 26077, Control_c, 0, 64, 127
2, 26292, Note_on_c, 0, 64, 0
2, 26304, Note_on_c, 0, 66, 0
2, 26413, Control_c, 0, 64, 0
2, 26460, Note_on_c, 0, 64, 40
2, 26471, Control_c, 0, 64, 127
2, 26618, Note_on_c, 0, 64, 0
2, 26628, Note_on_c, 0, 61, 0
2, 26733, Note_on_c, 0, 66, 46
2, 26751, Note_on_c, 0, 61, 21
2, 26756, Note_on_c, 0, 64, 32
2, 26771, Note_on_c, 0, 59, 33
2, 26775, Control_c, 0, 64, 0
2, 26890, Control_c, 0, 64, 127
2, 26970, Note_on_c, 0, 64, 0
2, 27000, Note_on_c, 0, 59, 0
2, 27038, Note_on_c, 0, 61, 0
2, 27056, Note_on_c, 0, 54, 0
2, 27202, Control_c, 0, 64, 0
2, 27243, Control_c, 0, 64, 127
2, 27333, Note_on_c, 0, 66, 0
2, 27605, Control_c, 0, 64, 0
2, 27992, Note_on_c, 0, 58, 36
2, 27994, Note_on_c, 0, 75, 60
2, 28117, Note_on_c, 0, 58, 0
2, 28127, Note_on_c, 0, 75, 0
2, 28272, Note_on_c, 0, 75, 42
2, 28310, Note_on_c, 0, 75, 0
2, 28489, Note_on_c, 0, 79, 24
2, 28489, Note_on_c, 0, 68, 11
2, 28497, Note_on_c, 0, 78, 18
2, 28532, Note_on_c, 0, 67, 34
2, 28553, Note_on_c, 0, 68, 0
2, 28591, Note_on_c, 0, 78, 0
2, 28621, Note_on_c, 0, 67, 0
2, 28630, Note_on_c, 0, 79, 0
2, 28644, Note_on_c, 0, 62, 47
2, 28671, Note_on_c, 0, 58, 33
2, 28677, Note_on_c, 0, 62, 0
2, 28765, Note_on_c, 0, 82, 83
2, 28769, Note_on_c, 0, 70, 81
2, 28782, Note_on_c, 0, 58, 0
2, 28943, Note_on_c, 0, 82, 0
2, 28988, Note_on_c, 0, 70, 0
2, 29150, Note_on_c, 0, 66, 49
2, 29186, Note_on_c, 0, 79, 25
2, 29229, Note_on_c, 0, 66, 0
2, 29259, Note_on_c, 0, 67, 25
2, 29315, Note_on_c, 0, 79, 0
2, 29389, Note_on_c, 0, 67, 0
2, 29534, Note_on_c, 0, 75, 50
2, 29554, Note_on_c, 0, 63, 44
2, 29659, Note_on_c, 0, 63, 0
2, 29738, Note_on_c, 0, 75, 0
2, 29911, Note_on_c, 0, 59, 30
2, 29911, Note_on_c, 0, 51, 37
2, 29921, Note_on_c, 0, 55, 45
2, 30066, Note_on_c, 0, 55, 0
2, 30074, Note_on_c, 0, 51, 0
2, 30078, Note_on_c, 0, 59, 0
2, 30290, Note_on_c, 0, 51, 31
2, 30294, Note_on_c, 0, 60, 45
2, 30305, Note_on_c, 0, 55, 42
2, 30315, Control_c, 0, 64, 127
2, 30396, Note_on_c, 0, 55, 0
2, 30406, Note_on_c, 0, 51, 0
2, 30458, Note_on_c, 0, 60, 0
2, 30587, Control_c, 0, 64, 0
2, 30686, Note_on_c, 0, 60, 50
2, 30687, Note_on_c, 0, 56, 38
2, 30688, Note_on_c, 0, 65, 54
2, 30695, Note_on_c, 0, 73, 48
2, 30701, Note_on_c, 0, 61, 47
2, 30925, Note_on_c, 0, 73, 0
2, 30942, Note_on_c, 0, 75, 56
2, 31065, Note_on_c, 0, 75, 0
2, 31069, Note_on_c, 0, 73, 37
2, 31113, Control_c, 0, 64, 127
2, 31225, Note_on_c, 0, 65, 0
2, 31249, Note_on_c, 0, 73, 0
2, 31253, Note_on_c, 0, 56, 0
2, 31259, Note_on_c, 0, 60, 0
2, 31289, Note_on_c, 0, 61, 0
2, 31334, Note_on_c, 0, 72, 65
2, 31346, Note_on_c, 0, 65, 53
2, 31353, Note_on_c, 0, 61, 32
2, 31356, Note_on_c, 0, 56, 32
2, 31358, Note_on_c, 0, 60, 46
2, 31384, Control_c, 0, 64, 0
2, 31556, Note_on_c, 0, 72, 0
2, 31584, Note_on_c, 0, 73, 26
2, 31611, Note_on_c, 0, 61, 0
2, 31615, Note_on_c, 0, 65, 0
2, 31660, Note_on_c, 0, 72, 33
2, 31663, Control_c, 0, 64, 127
2, 31702, Note_on_c, 0, 73, 0
2, 31752, Note_on_c, 0, 72, 0
2, 31782, Note_on_c, 0, 69, 25
2, 31845, Note_on_c, 0, 69, 0
2, 31860, Control_c, 0, 64, 0
2, 31869, Note_on_c, 0, 65, 33
2, 31874, Note_on_c, 0, 61, 28
2, 32059, Note_on_c, 0, 65, 0
2, 32072, Note_on_c, 0, 60, 0
2, 32082, Control_c, 0, 64, 127
2, 32120, Note_on_c, 0, 72, 56
2, 32129, Note_on_c, 0, 56, 0
2, 32149, Note_on_c, 0, 65, 34
2, 32158, Note_on_c, 0, 55, 48
2, 32181, Control_c, 0, 64, 0
2, 32225, Note_on_c, 0, 72, 0
2, 32312, Note_on_c, 0, 70, 34
2, 32514, Note_on_c, 0, 70, 0
2, 32538, Note_on_c, 0, 67, 47
2, 32567, Note_on_c, 0, 67, 0
2, 32577, Note_on_c, 0, 65, 0
2, 32621, Note_on_c, 0, 55, 0
2, 32695, Note_on_c, 0, 61, 0
2, 33015, Note_on_c, 0, 61, 48
2, 33020, Note_on_c, 0, 65, 57
2, 33051, Note_on_c, 0, 65, 0
2, 33119, Note_on_c, 0, 61, 0
2, 33407, Note_on_c, 0, 61, 34
2, 33423, Control_c, 0, 64, 127
2, 33455, Note_on_c, 0, 61, 0
2, 33671, Note_on_c, 0, 64, 51
2, 33674, Note_on_c, 0, 59, 51
2, 33684, Control_c, 0, 64, 0
2, 33685, Note_on_c, 0, 54, 27
2, 34177, Control_c, 0, 64, 127
2, 34370, Note_on_c, 0, 59, 0
2, 34425, Note_on_c, 0, 59, 22
2, 34473, Control_c, 0, 64, 0
2, 34519, Note_on_c, 0, 69, 61
2, 34529, Note_on_c, 0, 64, 0
2, 34560, Note_on_c, 0, 70, 46
2, 34608, Note_on_c, 0, 70, 0
2, 34610, Note_on_c, 0, 69, 0
2, 34618, Note_on_c, 0, 71, 54
2, 34643, Note_on_c, 0, 59, 0
2, 34734, Note_on_c, 0, 54, 0
2, 34749, Note_on_c, 0, 71, 0
2, 34808, Note_on_c, 0, 74, 75
2, 34815, Note_on_c, 0, 59, 46
2, 34828, Note_on_c, 0, 54, 35
2, 34882, Note_on_c, 0, 74, 0
2, 34931, Note_on_c, 0, 76, 78
2, 34941, Control_c, 0, 64, 127
2, 34984, Control_c, 0, 64, 0
2, 35052, Note_on_c, 0, 59, 0
2, 35064, Control_c, 0, 64, 127
2, 35123, Note_on_c, 0, 54, 0
2, 35156, Note_on_c, 0, 76, 0
2, 35244, Control_c, 0, 64, 0
2, 35299, Note_on_c, 0, 79, 79
2, 35303, Note_on_c, 0, 54, 57
2, 35308, Note_on_c, 0, 67, 80
2, 35313, Note_on_c, 0, 64, 75
2, 35317, Note_on_c, 0, 59, 63
2, 35318, Note_on_c, 0, 74, 72
2, 35508, Note_on_c, 0, 79, 0
2, 35509, Note_on_c, 0, 67, 0
2, 35526, Note_on_c, 0, 64, 0
2, 35526, Note_on_c, 0, 74, 0
2, 35533, Note_on_c, 0, 54, 0
2, 35543, Note_on_c, 0, 59, 0
2, 35578, Note_on_c, 0, 79, 36
2, 35584, Note_on_c, 0, 74, 68
2, 35587, Note_on_c, 0, 67, 53
2, 35588, Note_on_c, 0, 64, 58
2, 35597, Note_on_c, 0, 54, 19
2, 35600, Note_on_c, 0, 59, 41
2, 35641, Note_on_c, 0, 79, 0
2, 35643, Note_on_c, 0, 67, 0
2, 35648, Note_on_c, 0, 74, 0
2, 35651, Note_on_c, 0, 64, 0
2, 35684, Note_on_c, 0, 59, 0
2, 35719, Note_on_c, 0, 54, 0
2, 36069, Note_on_c, 0, 58, 52
2, 36070, Note_on_c, 0, 74, 58
2, 36079, Note_on_c, 0, 67, 58
2, 36083, Note_on_c, 0, 59, 65
2, 36084, Note_on_c, 0, 71, 36
2, 36085, Note_on_c, 0, 62, 64
2, 36090, Note_on_c, 0, 79, 30
2, 36108, Note_on_c, 0, 72, 36
2, 36142, Note_on_c, 0, 72, 0
2, 36150, Note_on_c, 0, 58, 0
2, 36160, Note_on_c, 0, 62, 0
2, 36184, Note_on_c, 0, 59, 0
2, 36200, Note_on_c, 0, 67, 0
2, 36207, Note_on_c, 0, 71, 0
2, 36219, Note_on_c, 0, 74, 0
2, 36234, Note_on_c, 0, 79, 0
2, 36436, Note_on_c, 0, 55, 58
2, 36445, Note_on_c, 0, 67, 58
2, 36450, Note_on_c, 0, 74, 72
2, 36450, Note_on_c, 0, 71, 36
2, 36453, Control_c, 0, 64, 127
2, 36454, Note_on_c, 0, 62, 61
2, 36531, Note_on_c, 0, 62, 0
2, 36555, Note_on_c, 0, 55, 0
2, 36555, Note_on_c, 0, 67, 0
2, 36587, Note_on_c, 0, 71, 0
2, 36594, Note_on_c, 0, 74, 0
2, 36740, Control_c, 0, 64, 0
2, 36840, Note_on_c, 0, 59, 66
2, 36842, Note_on_c, 0, 62, 78
2, 36843, Note_on_c, 0, 52, 65
2, 36843, Note_on_c, 0, 79, 76
2, 36845, Note_on_c, 0, 74, 82
2, 36852, Note_on_c, 0, 55, 59
2, 36853, Note_on_c, 0, 67, 75
2, 36898, Control_c, 0, 64, 127
2, 37148, Note_on_c, 0, 67, 0
2, 37160, Note_on_c, 0, 74, 0
2, 37171, Note_on_c, 0, 79, 0
2, 37179, Note_on_c, 0, 52, 0
2, 37184, Control_c, 0, 64, 0
2, 37196, Note_on_c, 0, 55, 0
2, 37202, Note_on_c, 0, 59, 0
2, 37225, Control_c, 0, 64, 127
2, 37248, Note_on_c, 0, 74, 50
2, 37321, Note_on_c, 0, 62, 0
2, 37365, Note_on_c, 0, 74, 0
2, 37463, Control_c, 0, 64, 0
2, 37490, Note_on_c, 0, 61, 59
2, 37491, Note_on_c, 0, 55, 71
2, 37492, Note_on_c, 0, 73, 59
2, 37492, Note_on_c, 0, 65, 74
2, 37493, Note_on_c, 0, 76, 69
2, 37500, Note_on_c, 0, 79, 68
2, 37500, Note_on_c, 0, 67, 79
2, 37551, Note_on_c, 0, 67, 0
2, 37555, Note_on_c, 0, 65, 0
2, 37564, Note_on_c, 0, 55, 0
2, 37577, Note_on_c, 0, 73, 0
2, 37586, Note_on_c, 0, 76, 0
2, 37602, Note_on_c, 0, 79, 0
2, 37609, Note_on_c, 0, 61, 0
2, 37718, Note_on_c, 0, 80, 23
2, 37754, Note_on_c, 0, 80, 0
2, 37882, Note_on_c, 0, 83, 71
2, 37883, Note_on_c, 0, 76, 71
2, 37887, Note_on_c, 0, 71, 71
2, 37887, Note_on_c, 0, 61, 62
2, 37888, Note_on_c, 0, 79, 55
2, 37890, Note_on_c, 0, 55, 70
2, 37893, Note_on_c, 0, 65, 71
2, 37916, Note_on_c, 0, 58, 27
2, 37927, Note_on_c, 0, 55, 0
2, 37935, Note_on_c, 0, 65, 0
2, 37944, Note_on_c, 0, 71, 0
2, 37946, Note_on_c, 0, 79, 0
2, 37954, Note_on_c, 0, 83, 0
2, 37955, Note_on_c, 0, 76, 0
2, 37976, Note_on_c, 0, 58, 0
2, 37996, Note_on_c, 0, 61, 0
2, 38005, Control_c, 0, 64, 127
2, 38274, Note_on_c, 0, 79, 82
2, 38277, Control_c, 0, 64, 0
2, 38278, Note_on_c, 0, 72, 88
2, 38279, Note_on_c, 0, 64, 91
2, 38280, Note_on_c, 0, 69, 82
2, 38301, Note_on_c, 0, 71, 46
2, 38328, Note_on_c, 0, 71, 0
2, 38432, Note_on_c, 0, 79, 0
2, 38470, Note_on_c, 0, 72, 0
2, 38493, Note_on_c, 0, 69, 0
2, 38621, Control_c, 0, 64, 127
2, 38641, Note_on_c, 0, 78, 70
2, 38649, Note_on_c, 0, 73, 61
2, 38649, Note_on_c, 0, 63, 69
2, 38652, Note_on_c, 0, 64, 0
2, 38658, Note_on_c, 0, 69, 71
2, 38737, Note_on_c, 0, 69, 0
2, 38745, Control_c, 0, 64, 0
2, 38784, Note_on_c, 0, 78, 0
2, 38788, Note_on_c, 0, 63, 0
2, 38802, Note_on_c, 0, 77, 44
2, 38807, Note_on_c, 0, 62, 44
2, 38860, Note_on_c, 0, 67, 24
2, 38867, Note_on_c, 0, 73, 0
2, 38868, Note_on_c, 0, 69, 18
2, 38897, Note_on_c, 0, 69, 0
2, 38921, Note_on_c, 0, 77, 0
2, 38944, Control_c, 0, 64, 127
2, 39006, Note_on_c, 0, 67, 0
2, 39024, Note_on_c, 0, 62, 0
2, 39043, Note_on_c, 0, 58, 44
2, 39066, Control_c, 0, 64, 0
2, 39148, Note_on_c, 0, 58, 0
2, 39153, Note_on_c, 0, 76, 65
2, 39165, Note_on_c, 0, 65, 60
2, 39167, Note_on_c, 0, 69, 57
2, 39172, Note_on_c, 0, 60, 47
2, 39229, Control_c, 0, 64, 127
2, 39277, Note_on_c, 0, 76, 0
2, 39321, Note_on_c, 0, 65, 0
2, 39329, Note_on_c, 0, 69, 0
2, 39401, Note_on_c, 0, 60, 0
2, 39401, Note_on_c, 0, 75, 71
2, 39412, Note_on_c, 0, 65, 54
2, 39414, Note_on_c, 0, 69, 51
2, 39421, Note_on_c, 0, 59, 53
2, 39476, Note_on_c, 0, 65, 0
2, 39486, Control_c, 0, 64, 0
2, 39496, Note_on_c, 0, 75, 0
2, 39499, Note_on_c, 0, 69, 0
2, 39504, Note_on_c, 0, 59, 0
2, 39516, Note_on_c, 0, 58, 50
2, 39548, Note_on_c, 0, 65, 20
2, 39599, Note_on_c, 0, 65, 0
2, 39660, Note_on_c, 0, 58, 0
2, 39689, Control_c, 0, 64, 127
2, 39781, Note_on_c, 0, 73, 37
2, 39785, Note_on_c, 0, 68, 65
2, 39791, Note_on_c, 0, 51, 59
2, 39809, Note_on_c, 0, 58, 33
2, 39873, Note_on_c, 0, 51, 0
2, 39878, Note_on_c, 0, 73, 0
2, 39886, Control_c, 0, 64, 0
2, 39896, Note_on_c, 0, 58, 0
2, 39904, Note_on_c, 0, 68, 0
2, 39954, Note_on_c, 0, 72, 39
2, 39958, Note_on_c, 0, 60, 24
2, 39975, Note_on_c, 0, 57, 40
2, 39981, Note_on_c, 0, 50, 37
2, 39984, Note_on_c, 0, 69, 36
2, 39992, Note_on_c, 0, 65, 25
2, 40043, Control_c, 0, 64, 127
2, 40138, Note_on_c, 0, 69, 0
2, 40173, Note_on_c, 0, 72, 0
2, 40175, Note_on_c, 0, 57, 0
2, 40178, Note_on_c, 0, 65, 0
2, 40210, Note_on_c, 0, 60, 0
2, 40219, Note_on_c, 0, 57, 16
2, 40266, Control_c, 0, 64, 0
2, 40308, Note_on_c, 0, 65, 85
2, 40368, Note_on_c, 0, 57, 0
2, 40371, Note_on_c, 0, 50, 0
2, 40477, Note_on_c, 0, 65, 0
2, 40528, Note_on_c, 0, 67, 33
2, 40562, Note_on_c, 0, 65, 40
2, 40564, Note_on_c, 0, 67, 0
2, 40569, Control_c, 0, 64, 127
2, 40584, Note_on_c, 0, 64, 69
2, 40596, Note_on_c, 0, 65, 0
2, 40626, Control_c, 0, 64, 0
2, 40641, Note_on_c, 0, 64, 0
2, 40672, Note_on_c, 0, 65, 58
2, 40690, Note_on_c, 0, 59, 39
2, 40704, Note_on_c, 0, 53, 48
2, 41069, Control_c, 0, 64, 127
2, 41127, Control_c, 0, 64, 0
2, 41142, Note_on_c, 0, 53, 0
2, 41218, Control_c, 0, 64, 127
2, 41266, Note_on_c, 0, 59, 0
2, 41313, Note_on_c, 0, 65, 0
2, 41337, Note_on_c, 0, 67, 56
2, 41357, Note_on_c, 0, 59, 35
2, 41398, Control_c, 0, 64, 0
2, 41400, Note_on_c, 0, 55, 28
2, 41410, Note_on_c, 0, 67, 0
2, 41462, Note_on_c, 0, 55, 0
2, 41477, Note_on_c, 0, 59, 0
2, 41516, Note_on_c, 0, 64, 41
2, 41764, Note_on_c, 0, 64, 0
2, 41844, Note_on_c, 0, 64, 69
2, 42062, Note_on_c, 0, 64, 0
2, 42099, Note_on_c, 0, 67, 74
2, 42238, Note_on_c, 0, 67, 0
2, 42348, Note_on_c, 0, 67, 35
2, 42371, Note_on_c, 0, 57, 54
2, 42380, Note_on_c, 0, 62, 61
2, 42402, Note_on_c, 0, 48, 30
2, 42404, Note_on_c, 0, 41, 28
2, 42466, Note_on_c, 0, 57, 0
2, 42529, Note_on_c, 0, 41, 0
2, 42554, Note_on_c, 0, 67, 0
2, 42557, Note_on_c, 0, 62, 0
2, 42560, Note_on_c, 0, 48, 0
2, 42624, Note_on_c, 0, 64, 58
2, 42655, Control_c, 0, 64, 127
2, 42731, Note_on_c, 0, 64, 0
2, 42820, Control_c, 0, 64, 0
2, 42871, Note_on_c, 0, 62, 62
2, 42879, Note_on_c, 0, 57, 44
2, 42880, Note_on_c, 0, 47, 50
2, 42915, Note_on_c, 0, 47, 0
2, 42917, Note_on_c, 0, 57, 0
2, 42961, Note_on_c, 0, 62, 0
2, 43140, Control_c, 0, 64, 127
2, 43313, Control_c, 0, 64, 0
2, 43632, Control_c, 0, 64, 127
2, 43638, Note_on_c, 0, 74, 54
2, 43647, Note_on_c, 0, 57, 30
2, 43659, Note_on_c, 0, 62, 37
2, 43679, Note_on_c, 0, 57, 0
2, 43692, Note_on_c, 0, 62, 0
2, 43715, Control_c, 0, 64, 0
2, 43724, Note_on_c, 0, 74, 0
2, 43762, Note_on_c, 0, 68, 78
2, 43766, Note_on_c, 0, 77, 70
2, 43774, Note_on_c, 0, 74, 61
2, 43776, Note_on_c, 0, 71, 66
2, 43783, Note_on_c, 0, 67, 71
2, 43949, Note_on_c, 0, 68, 0
2, 43952, Note_on_c, 0, 77, 0
2, 43957, Note_on_c, 0, 67, 0
2, 43962, Note_on_c, 0, 71, 0
2, 43975, Note_on_c, 0, 74, 0
2, 43979, Control_c, 0, 64, 127
2, 44017, Note_on_c, 0, 77, 61
2, 44023, Note_on_c, 0, 68, 43
2, 44026, Note_on_c, 0, 67, 60
2, 44036, Note_on_c, 0, 71, 52
2, 44045, Control_c, 0, 64, 0
2, 44046, Note_on_c, 0, 74, 38
2, 44093, Note_on_c, 0, 74, 0
2, 44098, Note_on_c, 0, 67, 0
2, 44102, Note_on_c, 0, 68, 0
2, 44108, Note_on_c, 0, 77, 0
2, 44109, Note_on_c, 0, 71, 0
2, 44150, Note_on_c, 0, 76, 42
2, 44159, Note_on_c, 0, 68, 29
2, 44163, Note_on_c, 0, 65, 46
2, 44179, Note_on_c, 0, 71, 37
2, 44203, Note_on_c, 0, 65, 0
2, 44236, Note_on_c, 0, 76, 0
2, 44264, Note_on_c, 0, 68, 0
2, 44266, Note_on_c, 0, 71, 0
2, 44315, Control_c, 0, 64, 127
2, 44459, Note_on_c, 0, 56, 27
2, 44464, Control_c, 0, 64, 0
2, 44533, Note_on_c, 0, 68, 63
2, 44541, Note_on_c, 0, 58, 54
2, 44542, Note_on_c, 0, 64, 62
2, 44544, Note_on_c, 0, 74, 51
2, 44556, Note_on_c, 0, 56, 0
2, 44644, Control_c, 0, 64, 127
2, 44684, Control_c, 0, 64, 0
2, 44696, Note_on_c, 0, 74, 0
2, 44724, Note_on_c, 0, 64, 0
2, 44725, Control_c, 0, 64, 127
2, 44769, Note_on_c, 0, 68, 0
2, 44787, Note_on_c, 0, 58, 0
2, 44796, Note_on_c, 0, 72, 54
2, 44800, Control_c, 0, 64, 0
2, 44802, Note_on_c, 0, 62, 55
2, 44806, Note_on_c, 0, 67, 51
2, 44812, Note_on_c, 0, 57, 50
2, 44859, Note_on_c, 0, 62, 0
2, 44876, Note_on_c, 0, 67, 0
2, 44882, Note_on_c, 0, 72, 0
2, 44904, Note_on_c, 0, 57, 0
2, 45013, Control_c, 0, 64, 127
2, 45168, Note_on_c, 0, 76, 59
2, 45178, Control_c, 0, 64, 0
2, 45180, Note_on_c, 0, 68, 50
2, 45181, Note_on_c, 0, 64, 58
2, 45184, Note_on_c, 0, 72, 53
2, 45188, Note_on_c, 0, 54, 42
2, 45193, Note_on_c, 0, 62, 29
2, 45198, Note_on_c, 0, 60, 33
2, 45222, Note_on_c, 0, 62, 0
2, 45374, Control_c, 0, 64, 127
2, 45538, Note_on_c, 0, 72, 0
2, 45573, Note_on_c, 0, 64, 0
2, 45582, Note_on_c, 0, 68, 0
2, 45587, Note_on_c, 0, 50, 38
2, 45606, Control_c, 0, 64, 0
2, 45629, Note_on_c, 0, 76, 0
2, 45635, Note_on_c, 0, 60, 0
2, 45673, Note_on_c, 0, 50, 0
2, 45674, Note_on_c, 0, 64, 45
2, 45674, Note_on_c, 0, 72, 50
2, 45682, Note_on_c, 0, 68, 35
2, 45720, Control_c, 0, 64, 127
2, 45748, Note_on_c, 0, 54, 0
2, 45807, Note_on_c, 0, 64, 0
2, 45818, Note_on_c, 0, 72, 0
2, 45886, Note_on_c, 0, 68, 0
2, 46032, Control_c, 0, 64, 0
2, 46041, Note_on_c, 0, 43, 36
2, 46329, Note_on_c, 0, 67, 35
2, 46334, Note_on_c, 0, 65, 40
2, 46340, Note_on_c, 0, 60, 38
2, 46348, Note_on_c, 0, 57, 20
2, 46524, Control_c, 0, 64, 127
2, 46787, Control_c, 0, 64, 0
2, 46798, Note_on_c, 0, 43, 0
2, 46830, Note_on_c, 0, 55, 95
2, 47239, Control_c, 0, 64, 127
2, 47510, Control_c, 0, 64, 0
2, 47601, Control_c, 0, 64, 127
2, 47615, Note_on_c, 0, 57, 0
2, 47719, Note_on_c, 0, 60, 0
2, 47728, Note_on_c, 0, 67, 0
2, 47767, Note_on_c, 0, 65, 0
2, 47852, Note_on_c, 0, 54, 31
2, 47865, Note_on_c, 0, 55, 0
2, 47910, Note_on_c, 0, 54, 0
2, 47929, Control_c, 0, 64, 0
2, 47957, Note_on_c, 0, 67, 58
2, 47963, Note_on_c, 0, 63, 44
2, 47967, Note_on_c, 0, 60, 64
2, 47967, Note_on_c, 0, 56, 51
2, 48232, Note_on_c, 0, 55, 77
2, 48623, Note_on_c, 0, 51, 37
2, 48624, Note_on_c, 0, 55, 0
2, 48715, Note_on_c, 0, 51, 0
2, 48784, Note_on_c, 0, 55, 77
2, 49084, Note_on_c, 0, 56, 0
2, 49102, Note_on_c, 0, 60, 0
2, 49186, Control_c, 0, 64, 127
2, 49271, Note_on_c, 0, 63, 0
2, 49289, Note_on_c, 0, 67, 0
2, 49326, Note_on_c, 0, 55, 0
2, 49389, Note_on_c, 0, 67, 57
2, 49392, Control_c, 0, 64, 0
2, 49400, Note_on_c, 0, 60, 60
2, 49403, Note_on_c, 0, 57, 51
2, 49404, Note_on_c, 0, 65, 41
2, 49421, Note_on_c, 0, 55, 45
2, 49508, Control_c, 0, 64, 127
2, 49512, Note_on_c, 0, 55, 0
2, 49638, Note_on_c, 0, 57, 0
2, 49698, Note_on_c, 0, 65, 0
2, 49698, Note_on_c, 0, 60, 0
2, 49733, Note_on_c, 0, 43, 65
2, 49752, Control_c, 0, 64, 0
2, 49771, Note_on_c, 0, 67, 0
2, 49795, Note_on_c, 0, 43, 0
2, 49835, Control_c, 0, 64, 127
2, 50121, Note_on_c, 0, 68, 57
2, 50122, Note_on_c, 0, 74, 69
2, 50126, Note_on_c, 0, 65, 68
2, 50129, Note_on_c, 0, 71, 45
2, 50137, Note_on_c, 0, 64, 67
2, 50149, Note_on_c, 0, 59, 53
2, 50164, Control_c, 0, 64, 0
2, 50166, Note_on_c, 0, 53, 24
2, 50206, Note_on_c, 0, 64, 0
2, 50237, Note_on_c, 0, 59, 0
2, 50239, Note_on_c, 0, 65, 0
2, 50270, Note_on_c, 0, 74, 0
2, 50270, Note_on_c, 0, 53, 0
2, 50278, Note_on_c, 0, 71, 0
2, 50316, Note_on_c, 0, 68, 0
2, 50512, Note_on_c, 0, 54, 64
2, 50516, Note_on_c, 0, 55, 74
2, 50640, Note_on_c, 0, 54, 0
2, 51030, Note_on_c, 0, 64, 58
2, 51213, Note_on_c, 0, 64, 0
2, 51311, Note_on_c, 0, 67, 42
2, 51348, Note_on_c, 0, 67, 0
2, 51428, Note_on_c, 0, 71, 88
2, 51698, Note_on_c, 0, 71, 0
2, 51787, Note_on_c, 0, 55, 0
2, 51798, Note_on_c, 0, 70, 75
2, 52087, Note_on_c, 0, 57, 27
2, 52094, Note_on_c, 0, 70, 0
2, 52150, Note_on_c, 0, 57, 0
2, 52178, Note_on_c, 0, 69, 71
2, 52441, Note_on_c, 0, 65, 64
2, 52461, Note_on_c, 0, 69, 0
2, 52529, Note_on_c, 0, 65, 0
2, 52606, Note_on_c, 0, 62, 24
2, 52822, Note_on_c, 0, 62, 0
2, 52858, Note_on_c, 0, 65, 74
2, 53233, Note_on_c, 0, 50, 42
2, 53290, Note_on_c, 0, 50, 0
2, 53296, Note_on_c, 0, 65, 0
2, 53995, Note_on_c, 0, 62, 64
2, 54002, Note_on_c, 0, 59, 52
2, 54012, Note_on_c, 0, 60, 41
2, 54019, Note_on_c, 0, 52, 35
2, 54029, Note_on_c, 0, 55, 42
2, 54034, Note_on_c, 0, 62, 0
2, 54041, Note_on_c, 0, 60, 0
2, 54055, Note_on_c, 0, 52, 0
2, 54098, Note_on_c, 0, 71, 92
2, 54115, Note_on_c, 0, 59, 0
2, 54155, Note_on_c, 0, 55, 0
2, 54296, Note_on_c, 0, 71, 0
2, 54365, Note_on_c, 0, 67, 58
2, 54461, Note_on_c, 0, 67, 0
2, 54505, Note_on_c, 0, 64, 36
2, 54711, Note_on_c, 0, 64, 0
2, 54745, Note_on_c, 0, 69, 58
2, 54759, Note_on_c, 0, 57, 62
2, 54761, Note_on_c, 0, 41, 24
2, 54769, Note_on_c, 0, 52, 30
2, 54791, Note_on_c, 0, 41, 0
2, 54805, Note_on_c, 0, 52, 0
2, 54978, Control_c, 0, 64, 127
2, 55006, Note_on_c, 0, 57, 0
2, 55113, Note_on_c, 0, 47, 62
2, 55126, Note_on_c, 0, 69, 0
2, 55151, Control_c, 0, 64, 0
2, 55204, Note_on_c, 0, 47, 0
2, 55314, Control_c, 0, 64, 127
2, 55504, Control_c, 0, 64, 0
2, 55513, Note_on_c, 0, 57, 59
2, 55533, Note_on_c, 0, 65, 46
2, 55533, Note_on_c, 0, 62, 53
2, 55561, Note_on_c, 0, 65, 0
2, 55576, Note_on_c, 0, 62, 0
2, 55599, Note_on_c, 0, 57, 0
2, 55639, Note_on_c, 0, 77, 87
2, 55819, Note_on_c, 0, 77, 0
2, 55885, Note_on_c, 0, 74, 69
2, 55970, Note_on_c, 0, 74, 0
2, 56004, Note_on_c, 0, 62, 33
2, 56011, Note_on_c, 0, 56, 23
2, 56013, Note_on_c, 0, 65, 32
2, 56024, Note_on_c, 0, 71, 38
2, 56046, Control_c, 0, 64, 127
2, 56246, Note_on_c, 0, 71, 0
2, 56276, Control_c, 0, 64, 0
2, 56277, Note_on_c, 0, 74, 77
2, 56374, Note_on_c, 0, 62, 0
2, 56410, Note_on_c, 0, 65, 0
2, 56440, Control_c, 0, 64, 127
2, 56624, Note_on_c, 0, 56, 0
2, 56715, Note_on_c, 0, 74, 0
2, 56735, Control_c, 0, 64, 0
2, 56780, Note_on_c, 0, 72, 64
2, 56783, Note_on_c, 0, 55, 33
2, 56798, Note_on_c, 0, 57, 22
2, 56858, Note_on_c, 0, 72, 0
2, 56866, Note_on_c, 0, 74, 50
2, 56965, Note_on_c, 0, 72, 30
2, 56992, Note_on_c, 0, 74, 0
2, 57066, Note_on_c, 0, 72, 0
2, 57098, Note_on_c, 0, 71, 28
2, 57140, Note_on_c, 0, 71, 0
2, 57154, Note_on_c, 0, 64, 24
2, 57204, Note_on_c, 0, 72, 62
2, 57261, Note_on_c, 0, 64, 0
2, 57364, Note_on_c, 0, 72, 0
2, 57410, Control_c, 0, 64, 127
2, 57441, Note_on_c, 0, 74, 62
2, 57451, Control_c, 0, 64, 0
2, 57532, Note_on_c, 0, 74, 0
2, 57563, Note_on_c, 0, 55, 0
2, 57588, Note_on_c, 0, 75, 38
2, 57594, Note_on_c, 0, 57, 0
2, 57689, Control_c, 0, 64, 127
2, 57722, Note_on_c, 0, 75, 0
2, 57817, Note_on_c, 0, 76, 57
2, 57826, Note_on_c, 0, 64, 41
2, 57844, Note_on_c, 0, 60, 29
2, 57861, Control_c, 0, 64, 0
2, 57880, Note_on_c, 0, 64, 0
2, 57884, Note_on_c, 0, 60, 0
2, 57913, Note_on_c, 0, 76, 0
2, 57967, Note_on_c, 0, 72, 34
2, 58058, Control_c, 0, 64, 127
2, 58250, Note_on_c, 0, 72, 0
2, 58274, Control_c, 0, 64, 0
2, 58322, Note_on_c, 0, 65, 27
2, 58334, Note_on_c, 0, 60, 33
2, 58335, Note_on_c, 0, 55, 18
2, 58353, Note_on_c, 0, 57, 20
2, 58420, Control_c, 0, 64, 127
2, 58635, Control_c, 0, 64, 0
2, 58694, Note_on_c, 0, 65, 0
2, 58709, Note_on_c, 0, 79, 70
2, 58753, Note_on_c, 0, 78, 25
2, 58780, Note_on_c, 0, 78, 0
2, 58807, Control_c, 0, 64, 127
2, 58811, Note_on_c, 0, 60, 0
2, 58826, Note_on_c, 0, 79, 0
2, 58968, Note_on_c, 0, 67, 45
2, 58983, Note_on_c, 0, 65, 42
2, 59001, Note_on_c, 0, 60, 28
2, 59011, Control_c, 0, 64, 0
2, 59012, Note_on_c, 0, 67, 0
2, 59029, Note_on_c, 0, 65, 0
2, 59108, Note_on_c, 0, 67, 30
2, 59111, Note_on_c, 0, 60, 0
2, 59181, Note_on_c, 0, 67, 0
2, 59217, Control_c, 0, 64, 127
2, 59234, Note_on_c, 0, 67, 66
2, 59273, Note_on_c, 0, 67, 0
2, 59406, Control_c, 0, 64, 0
2, 59428, Note_on_c, 0, 60, 18
2, 59469, Note_on_c, 0, 60, 0
2, 59479, Note_on_c, 0, 67, 80
2, 59507, Note_on_c, 0, 57, 0
2, 59545, Note_on_c, 0, 67, 0
2, 59586, Control_c, 0, 64, 127
2, 59606, Note_on_c, 0, 67, 58
2, 59611, Note_on_c, 0, 55, 0
2, 59685, Note_on_c, 0, 67, 0
2, 59786, Note_on_c, 0, 61, 37
2, 59796, Note_on_c, 0, 65, 41
2, 59799, Note_on_c, 0, 56, 36
2, 59808, Control_c, 0, 64, 0
2, 59809, Note_on_c, 0, 67, 64
2, 59818, Note_on_c, 0, 55, 17
2, 59866, Note_on_c, 0, 67, 0
2, 59925, Note_on_c, 0, 65, 0
2, 59934, Note_on_c, 0, 67, 51
2, 60002, Note_on_c, 0, 67, 0
2, 60006, Note_on_c, 0, 61, 0
2, 60101, Note_on_c, 0, 67, 65
2, 60132, Note_on_c, 0, 61, 38
2, 60143, Note_on_c, 0, 65, 34
2, 60174, Note_on_c, 0, 67, 0
2, 60186, Note_on_c, 0, 65, 0
2, 60219, Note_on_c, 0, 67, 47
2, 60243, Note_on_c, 0, 61, 0
2, 60273, Note_on_c, 0, 56, 0
2, 60281, Note_on_c, 0, 55, 0
2, 60288, Note_on_c, 0, 67, 0
2, 60358, Note_on_c, 0, 67, 64
2, 60438, Note_on_c, 0, 67, 0
2, 60469, Note_on_c, 0, 67, 58
2, 60517, Note_on_c, 0, 65, 37
2, 60520, Note_on_c, 0, 61, 35
2, 60548, Note_on_c, 0, 67, 0
2, 60563, Note_on_c, 0, 65, 0
2, 60605, Note_on_c, 0, 67, 73
2, 60659, Note_on_c, 0, 61, 0
2, 60685, Note_on_c, 0, 67, 0
2, 60725, Note_on_c, 0, 67, 36
2, 60783, Note_on_c, 0, 67, 0
2, 60897, Note_on_c, 0, 67, 74
2, 60910, Note_on_c, 0, 61, 38
2, 60915, Note_on_c, 0, 65, 44
2, 60929, Note_on_c, 0, 56, 33
2, 61141, Note_on_c, 0, 67, 0
2, 61150, Note_on_c, 0, 68, 71
2, 61249, Note_on_c, 0, 65, 0
2, 61254, Control_c, 0, 64, 127
2, 61262, Note_on_c, 0, 68, 0
2, 61281, Note_on_c, 0, 67, 71
2, 61338, Note_on_c, 0, 61, 0
2, 61357, Note_on_c, 0, 67, 0
2, 61361, Control_c, 0, 64, 0
2, 61419, Note_on_c, 0, 56, 0
2, 61429, Note_on_c, 0, 67, 64
2, 61583, Control_c, 0, 64, 127
2, 61609, Note_on_c, 0, 67, 0
2, 61669, Note_on_c, 0, 65, 62
2, 61690, Control_c, 0, 64, 0
2, 61734, Note_on_c, 0, 65, 0
2, 61796, Note_on_c, 0, 66, 49
2, 62001, Control_c, 0, 64, 127
2, 62009, Note_on_c, 0, 66, 0
2, 62046, Note_on_c, 0, 67, 59
2, 62068, Control_c, 0, 64, 0
2, 62149, Note_on_c, 0, 67, 0
2, 62198, Note_on_c, 0, 65, 36
2, 62299, Control_c, 0, 64, 127
2, 62353, Note_on_c, 0, 65, 0
2, 62494, Control_c, 0, 64, 0
2, 62539, Note_on_c, 0, 64, 57
2, 62739, Note_on_c, 0, 64, 0
2, 62766, Control_c, 0, 64, 127
2, 62786, Note_on_c, 0, 65, 69
2, 62787, Note_on_c, 0, 55, 54
2, 62807, Control_c, 0, 64, 0
2, 62818, Note_on_c, 0, 54, 25
2, 62842, Note_on_c, 0, 55, 0
2, 62846, Note_on_c, 0, 54, 0
2, 62917, Note_on_c, 0, 65, 0
2, 62927, Note_on_c, 0, 64, 53
2, 63070, Control_c, 0, 64, 127
2, 63109, Note_on_c, 0, 64, 0
2, 63189, Note_on_c, 0, 59, 34
2, 63194, Control_c, 0, 64, 0
2, 63199, Note_on_c, 0, 60, 26
2, 63227, Note_on_c, 0, 60, 0
2, 63241, Note_on_c, 0, 59, 0
2, 63313, Note_on_c, 0, 55, 50
2, 63374, Control_c, 0, 64, 127
2, 63546, Control_c, 0, 64, 0
2, 63594, Note_on_c, 0, 55, 0
2, 63671, Note_on_c, 0, 59, 40
2, 63694, Control_c, 0, 64, 127
2, 63926, Note_on_c, 0, 46, 36
2, 63932, Control_c, 0, 64, 0
2, 63953, Note_on_c, 0, 46, 0
2, 63976, Note_on_c, 0, 59, 0
2, 64007, Note_on_c, 0, 60, 53
2, 64064, Control_c, 0, 64, 127
2, 64275, Note_on_c, 0, 60, 0
2, 64288, Note_on_c, 0, 62, 62
2, 64352, Control_c, 0, 64, 0
2, 64379, Note_on_c, 0, 61, 25
2, 64521, Note_on_c, 0, 61, 0
2, 64556, Control_c, 0, 64, 127
2, 64619, Note_on_c, 0, 62, 0
2, 64633, Note_on_c, 0, 64, 60
2, 64701, Note_on_c, 0, 64, 0
2, 64737, Control_c, 0, 64, 0
2, 64756, Note_on_c, 0, 66, 53
2, 64870, Note_on_c, 0, 66, 0
2, 64911, Note_on_c, 0, 67, 53
2, 65040, Note_on_c, 0, 67, 0
2, 65100, Note_on_c, 0, 61, 35
2, 65119, Note_on_c, 0, 69, 55
2, 65184, Note_on_c, 0, 61, 0
2, 65204, Note_on_c, 0, 69, 0
2, 65293, Note_on_c, 0, 70, 36
2, 65438, Note_on_c, 0, 70, 0
2, 65485, Note_on_c, 0, 61, 35
2, 65493, Note_on_c, 0, 66, 35
2, 65494, Note_on_c, 0, 55, 35
2, 65507, Note_on_c, 0, 72, 59
2, 65653, Note_on_c, 0, 72, 0
2, 65688, Note_on_c, 0, 73, 25
2, 65850, Note_on_c, 0, 73, 0
2, 65884, Note_on_c, 0, 75, 55
2, 65967, Note_on_c, 0, 55, 0
2, 65974, Note_on_c, 0, 75, 0
2, 65992, Note_on_c, 0, 66, 0
2, 66030, Note_on_c, 0, 76, 42
2, 66182, Note_on_c, 0, 61, 0
2, 66211, Note_on_c, 0, 76, 0
2, 66252, Note_on_c, 0, 78, 48
2, 66356, Note_on_c, 0, 64, 33
2, 66360, Note_on_c, 0, 61, 25
2, 66384, Note_on_c, 0, 54, 29
2, 66390, Note_on_c, 0, 59, 29
2, 66392, Note_on_c, 0, 78, 0
2, 66411, Note_on_c, 0, 79, 36
2, 66531, Note_on_c, 0, 64, 0
2, 66536, Note_on_c, 0, 59, 0
2, 66559, Note_on_c, 0, 54, 0
2, 66569, Note_on_c, 0, 61, 0
2, 66583, Note_on_c, 0, 79, 0
2, 66644, Note_on_c, 0, 83, 71
2, 66646, Note_on_c, 0, 61, 34
2, 66653, Note_on_c, 0, 54, 37
2, 66654, Note_on_c, 0, 64, 39
2, 66674, Note_on_c, 0, 59, 32
2, 66706, Note_on_c, 0, 64, 0
2, 66715, Note_on_c, 0, 59, 0
2, 66740, Note_on_c, 0, 83, 0
2, 66747, Note_on_c, 0, 61, 0
2, 66775, Note_on_c, 0, 54, 0
2, 66824, Note_on_c, 0, 81, 38
2, 66992, Note_on_c, 0, 81, 0
2, 67148, Note_on_c, 0, 78, 55
2, 67359, Note_on_c, 0, 78, 0
2, 67520, Note_on_c, 0, 76, 52
2, 67530, Control_c, 0, 64, 127
2, 67668, Note_on_c, 0, 76, 0
2, 67785, Control_c, 0, 64, 0
2, 67871, Note_on_c, 0, 49, 35
2, 67880, Note_on_c, 0, 59, 31
2, 67909, Note_on_c, 0, 71, 32
2, 67927, Note_on_c, 0, 49, 0
2, 67959, Note_on_c, 0, 59, 0
2, 68072, Note_on_c, 0, 71, 0
2, 68276, Note_on_c, 0, 82, 64
2, 68280, Note_on_c, 0, 70, 76
2, 68281, Note_on_c, 0, 63, 51
2, 68296, Note_on_c, 0, 52, 40
2, 68327, Note_on_c, 0, 80, 25
2, 68352, Note_on_c, 0, 52, 0
2, 68425, Note_on_c, 0, 63, 0
2, 68450, Note_on_c, 0, 70, 0
2, 68468, Note_on_c, 0, 82, 0
2, 68474, Note_on_c, 0, 71, 32
2, 68525, Note_on_c, 0, 71, 0
2, 68568, Note_on_c, 0, 80, 0
2, 68584, Note_on_c, 0, 58, 36
2, 68648, Note_on_c, 0, 58, 0
2, 68686, Note_on_c, 0, 82, 55
2, 68696, Note_on_c, 0, 70, 42
2, 68859, Note_on_c, 0, 82, 0
2, 68897, Note_on_c, 0, 70, 0
2, 68968, Note_on_c, 0, 66, 37
2, 68971, Note_on_c, 0, 81, 57
2, 68971, Note_on_c, 0, 62, 44
2, 68974, Note_on_c, 0, 57, 39
2, 68991, Note_on_c, 0, 69, 34
2, 69086, Control_c, 0, 64, 127
2, 69371, Control_c, 0, 64, 0
2, 69438, Control_c, 0, 64, 127
2, 69509, Note_on_c, 0, 62, 0
2, 69518, Note_on_c, 0, 57, 0
2, 69535, Note_on_c, 0, 81, 0
2, 69547, Note_on_c, 0, 66, 0
2, 69580, Note_on_c, 0, 69, 0
2, 69814, Control_c, 0, 64, 0
2, 69834, Note_on_c, 0, 78, 75
2, 69838, Note_on_c, 0, 56, 42
2, 69842, Note_on_c, 0, 67, 54
2, 69850, Note_on_c, 0, 62, 48
2, 70119, Note_on_c, 0, 78, 0
2, 70142, Note_on_c, 0, 77, 32
2, 70187, Note_on_c, 0, 76, 58
2, 70202, Note_on_c, 0, 77, 0
2, 70210, Note_on_c, 0, 75, 69
2, 70215, Note_on_c, 0, 67, 0
2, 70237, Note_on_c, 0, 76, 0
2, 70268, Note_on_c, 0, 62, 0
2, 70296, Note_on_c, 0, 74, 56
2, 70320, Note_on_c, 0, 75, 0
2, 70453, Note_on_c, 0, 56, 0
2, 70584, Note_on_c, 0, 74, 0
2, 70644, Control_c, 0, 64, 127
2, 70662, Note_on_c, 0, 69, 31
2, 70831, Note_on_c, 0, 69, 0
2, 70899, Note_on_c, 0, 69, 53
2, 70916, Note_on_c, 0, 65, 48
2, 70923, Note_on_c, 0, 61, 39
2, 70941, Control_c, 0, 64, 0
2, 70966, Note_on_c, 0, 69, 0
2, 70975, Note_on_c, 0, 65, 0
2, 71037, Note_on_c, 0, 61, 0
2, 71037, Note_on_c, 0, 69, 51
2, 71176, Note_on_c, 0, 69, 0
2, 71268, Note_on_c, 0, 68, 49
2, 71294, Note_on_c, 0, 61, 31
2, 71316, Note_on_c, 0, 68, 0
2, 71380, Note_on_c, 0, 68, 46
2, 71409, Note_on_c, 0, 61, 0
2, 71421, Note_on_c, 0, 69, 60
2, 71443, Note_on_c, 0, 68, 0
2, 71457, Control_c, 0, 64, 127
2, 71547, Note_on_c, 0, 69, 0
2, 71614, Control_c, 0, 64, 0
2, 71651, Note_on_c, 0, 61, 53
2, 71658, Note_on_c, 0, 65, 54
2, 71671, Note_on_c, 0, 55, 35
2, 71690, Note_on_c, 0, 65, 0
2, 71703, Note_on_c, 0, 55, 0
2, 71754, Note_on_c, 0, 61, 0
2, 71845, Control_c, 0, 64, 127
2, 72065, Control_c, 0, 64, 0
2, 72125, Note_on_c, 0, 64, 54
2, 72150, Note_on_c, 0, 62, 44
2, 72151, Note_on_c, 0, 58, 34
2, 72192, Note_on_c, 0, 62, 0
2, 72203, Note_on_c, 0, 64, 0
2, 72235, Note_on_c, 0, 58, 0
2, 72526, Control_c, 0, 64, 127
2, 72797, Control_c, 0, 64, 0
2, 72883, Note_on_c, 0, 69, 92
2, 73139, Note_on_c, 0, 69, 0
2, 73154, Note_on_c, 0, 68, 39
2, 73213, Note_on_c, 0, 68, 0
2, 73277, Note_on_c, 0, 69, 54
2, 73322, Control_c, 0, 64, 127
2, 73456, Note_on_c, 0, 69, 0
2, 73527, Control_c, 0, 64, 0
2, 73549, Note_on_c, 0, 62, 46
2, 73551, Note_on_c, 0, 56, 38
2, 73555, Note_on_c, 0, 70, 68
2, 73558, Note_on_c, 0, 67, 35
2, 73594, Note_on_c, 0, 67, 0
2, 73627, Note_on_c, 0, 62, 0
2, 73699, Note_on_c, 0, 56, 0
2, 73712, Note_on_c, 0, 70, 0
2, 73804, Note_on_c, 0, 61, 38
2, 73806, Note_on_c, 0, 69, 65
2, 73810, Note_on_c, 0, 55, 47
2, 73864, Control_c, 0, 64, 127
2, 73921, Note_on_c, 0, 55, 0
2, 73938, Control_c, 0, 64, 0
2, 73945, Note_on_c, 0, 61, 0
2, 74011, Note_on_c, 0, 69, 0
2, 74066, Note_on_c, 0, 68, 55
2, 74074, Note_on_c, 0, 61, 33
2, 74079, Note_on_c, 0, 55, 36
2, 74102, Control_c, 0, 64, 127
2, 74126, Note_on_c, 0, 55, 0
2, 74193, Note_on_c, 0, 61, 0
2, 74236, Note_on_c, 0, 68, 0
2, 74301, Control_c, 0, 64, 0
2, 74310, Note_on_c, 0, 69, 64
2, 74313, Note_on_c, 0, 61, 37
2, 74317, Note_on_c, 0, 55, 43
2, 74324, Note_on_c, 0, 65, 40
2, 74380, Note_on_c, 0, 65, 0
2, 74398, Note_on_c, 0, 55, 0
2, 74443, Note_on_c, 0, 61, 0
2, 74466, Note_on_c, 0, 69, 0
2, 74473, Control_c, 0, 64, 127
2, 74514, Note_on_c, 0, 76, 64
2, 74520, Note_on_c, 0, 61, 44
2, 74524, Note_on_c, 0, 55, 37
2, 74539, Note_on_c, 0, 65, 39
2, 74586, Note_on_c, 0, 65, 0
2, 74615, Note_on_c, 0, 55, 0
2, 74659, Note_on_c, 0, 61, 0
2, 74686, Control_c, 0, 64, 0
2, 74694, Note_on_c, 0, 76, 0
2, 74776, Note_on_c, 0, 61, 45
2, 74790, Note_on_c, 0, 74, 60
2, 74792, Note_on_c, 0, 55, 38
2, 74801, Control_c, 0, 64, 127
2, 74826, Note_on_c, 0, 55, 0
2, 74959, Note_on_c, 0, 61, 0
2, 74977, Note_on_c, 0, 74, 0
2, 75046, Note_on_c, 0, 61, 28
2, 75049, Control_c, 0, 64, 0
2, 75053, Note_on_c, 0, 69, 49
2, 75062, Note_on_c, 0, 54, 29
2, 75067, Note_on_c, 0, 64, 36
2, 75100, Note_on_c, 0, 59, 27
2, 75179, Control_c, 0, 64, 127
2, 75510, Control_c, 0, 64, 0
2, 75532, Control_c, 0, 64, 127
2, 75541, Note_on_c, 0, 59, 0
2, 75544, Note_on_c, 0, 66, 45
2, 75577, Note_on_c, 0, 64, 0
2, 75639, Note_on_c, 0, 54, 0
2, 75676, Note_on_c, 0, 61, 0
2, 75877, Note_on_c, 0, 69, 0
2, 75894, Control_c, 0, 64, 0
2, 75931, Note_on_c, 0, 64, 46
2, 75942, Note_on_c, 0, 61, 28
2, 75943, Note_on_c, 0, 54, 31
2, 75957, Note_on_c, 0, 66, 0
2, 75959, Note_on_c, 0, 59, 41
2, 75985, Control_c, 0, 64, 127
2, 76304, Control_c, 0, 64, 0
2, 76329, Control_c, 0, 64, 127
2, 76330, Note_on_c, 0, 59, 0
2, 76368, Note_on_c, 0, 54, 0
2, 76398, Note_on_c, 0, 61, 0
2, 76400, Note_on_c, 0, 64, 0
2, 76600, Control_c, 0, 64, 0
2, 76602, Note_on_c, 0, 62, 36
2, 76610, Note_on_c, 0, 65, 40
2, 76624, Note_on_c, 0, 60, 32
2, 76632, Note_on_c, 0, 55, 27
2, 77000, Note_on_c, 0, 86, 83
2, 77104, Note_on_c, 0, 86, 0
2, 77150, Note_on_c, 0, 81, 53
2, 77220, Note_on_c, 0, 65, 0
2, 77261, Note_on_c, 0, 82, 70
2, 77270, Note_on_c, 0, 81, 0
2, 77368, Note_on_c, 0, 82, 0
2, 77396, Note_on_c, 0, 84, 74
2, 77471, Note_on_c, 0, 60, 0
2, 77489, Note_on_c, 0, 62, 0
2, 77498, Note_on_c, 0, 84, 0
2, 77515, Note_on_c, 0, 55, 0
2, 77768, Note_on_c, 0, 65, 48
2, 77775, Note_on_c, 0, 62, 32
2, 77790, Note_on_c, 0, 60, 33
2, 77813, Note_on_c, 0, 65, 0
2, 77823, Note_on_c, 0, 60, 0
2, 77831, Note_on_c, 0, 62, 0
2, 78157, Note_on_c, 0, 62, 53
2, 78166, Note_on_c, 0, 86, 81
2, 78174, Note_on_c, 0, 60, 43
2, 78174, Note_on_c, 0, 65, 45
2, 78203, Note_on_c, 0, 65, 0
2, 78204, Note_on_c, 0, 55, 18
2, 78244, Note_on_c, 0, 55, 0
2, 78257, Note_on_c, 0, 86, 0
2, 78273, Note_on_c, 0, 60, 0
2, 78304, Note_on_c, 0, 81, 62
2, 78364, Note_on_c, 0, 62, 0
2, 78391, Note_on_c, 0, 81, 0
2, 78427, Note_on_c, 0, 84, 67
2, 78526, Note_on_c, 0, 84, 0
2, 78566, Note_on_c, 0, 62, 34
2, 78569, Note_on_c, 0, 82, 54
2, 78642, Note_on_c, 0, 82, 0
2, 78675, Note_on_c, 0, 62, 0
2, 78716, Note_on_c, 0, 78, 50
2, 78784, Note_on_c, 0, 78, 0
2, 78850, Note_on_c, 0, 81, 55
2, 78959, Note_on_c, 0, 79, 36
2, 78964, Note_on_c, 0, 81, 0
2, 79004, Note_on_c, 0, 62, 30
2, 79031, Note_on_c, 0, 79, 0
2, 79095, Note_on_c, 0, 74, 38
2, 79118, Note_on_c, 0, 62, 0
2, 79132, Note_on_c, 0, 74, 0
2, 79203, Note_on_c, 0, 77, 54
2, 79279, Note_on_c, 0, 77, 0
2, 79321, Note_on_c, 0, 75, 51
2, 79399, Note_on_c, 0, 62, 34
2, 79409, Note_on_c, 0, 75, 0
2, 79460, Note_on_c, 0, 71, 32
2, 79493, Note_on_c, 0, 62, 0
2, 79495, Note_on_c, 0, 71, 0
2, 79567, Note_on_c, 0, 74, 60
2, 79655, Note_on_c, 0, 74, 0
2, 79707, Note_on_c, 0, 72, 55
2, 79750, Note_on_c, 0, 72, 0
2, 79850, Note_on_c, 0, 70, 56
2, 79940, Note_on_c, 0, 70, 0
2, 80116, Note_on_c, 0, 67, 20
2, 80148, Note_on_c, 0, 67, 0
2, 80268, Note_on_c, 0, 65, 24
2, 80412, Note_on_c, 0, 65, 0
2, 80499, Note_on_c, 0, 60, 36
2, 80502, Note_on_c, 0, 56, 33
2, 80532, Note_on_c, 0, 60, 0
2, 80580, Note_on_c, 0, 56, 0
2, 80640, Note_on_c, 0, 61, 59
2, 80726, Note_on_c, 0, 63, 51
2, 80731, Note_on_c, 0, 61, 0
2, 80810, Note_on_c, 0, 61, 34
2, 80852, Note_on_c, 0, 63, 0
2, 80917, Note_on_c, 0, 61, 0
2, 80944, Note_on_c, 0, 57, 36
2, 80982, Note_on_c, 0, 57, 0
2, 81030, Note_on_c, 0, 60, 65
2, 81258, Note_on_c, 0, 60, 0
2, 81297, Note_on_c, 0, 57, 49
2, 81338, Note_on_c, 0, 57, 0
2, 81396, Note_on_c, 0, 58, 45
2, 81651, Note_on_c, 0, 58, 0
2, 82029, Note_on_c, 0, 56, 49
2, 82106, Note_on_c, 0, 56, 0
2, 82419, Note_on_c, 0, 50, 41
2, 82473, Note_on_c, 0, 50, 0
2, 82543, Note_on_c, 0, 57, 69
2, 82610, Note_on_c, 0, 57, 0
2, 82648, Note_on_c, 0, 55, 46
2, 82697, Note_on_c, 0, 55, 0
2, 82727, Note_on_c, 0, 54, 32
2, 82802, Note_on_c, 0, 54, 0
2, 82840, Note_on_c, 0, 55, 50
2, 82896, Note_on_c, 0, 55, 0
2, 82907, Note_on_c, 0, 54, 31
2, 82968, Note_on_c, 0, 59, 40
2, 82982, Note_on_c, 0, 54, 0
2, 83012, Note_on_c, 0, 59, 0
2, 83060, Note_on_c, 0, 59, 39
2, 83128, Note_on_c, 0, 59, 0
2, 83145, Note_on_c, 0, 58, 55
2, 83235, Note_on_c, 0, 59, 58
2, 83268, Note_on_c, 0, 58, 0
2, 83291, Note_on_c, 0, 50, 36
2, 83297, Note_on_c, 0, 59, 0
2, 83368, Note_on_c, 0, 50, 0
2, 83373, Note_on_c, 0, 64, 61
2, 83438, Note_on_c, 0, 64, 0
2, 83470, Note_on_c, 0, 62, 33
2, 83536, Note_on_c, 0, 62, 0
2, 83561, Note_on_c, 0, 61, 39
2, 83624, Note_on_c, 0, 62, 57
2, 83652, Note_on_c, 0, 61, 0
2, 83671, Note_on_c, 0, 62, 0
2, 83761, Note_on_c, 0, 69, 76
2, 83839, Note_on_c, 0, 69, 0
2, 83849, Note_on_c, 0, 67, 40
2, 83923, Note_on_c, 0, 67, 0
2, 83953, Note_on_c, 0, 66, 34
2, 84039, Note_on_c, 0, 66, 0
2, 84043, Note_on_c, 0, 67, 55
2, 84085, Note_on_c, 0, 67, 0
2, 84089, Note_on_c, 0, 64, 33
2, 84111, Note_on_c, 0, 59, 35
2, 84123, Note_on_c, 0, 64, 0
2, 84165, Note_on_c, 0, 59, 0
2, 84175, Note_on_c, 0, 74, 74
2, 84229, Note_on_c, 0, 73, 25
2, 84244, Note_on_c, 0, 74, 0
2, 84303, Note_on_c, 0, 73, 0
2, 84742, Note_on_c, 0, 62, 62
2, 84757, Note_on_c, 0, 59, 46
2, 84772, Note_on_c, 0, 62, 0
2, 84796, Note_on_c, 0, 59, 0
2, 85152, Note_on_c, 0, 71, 34
2, 85153, Note_on_c, 0, 62, 34
2, 85170, Note_on_c, 0, 74, 59
2, 85184, Note_on_c, 0, 62, 0
2, 85185, Note_on_c, 0, 71, 0
2, 85229, Note_on_c, 0, 74, 0
2, 85284, Note_on_c, 0, 79, 80
2, 85290, Note_on_c, 0, 67, 75
2, 85411, Note_on_c, 0, 79, 0
2, 85471, Note_on_c, 0, 67, 0
2, 85510, Note_on_c, 0, 78, 42
2, 85580, Note_on_c, 0, 78, 0
2, 85633, Note_on_c, 0, 79, 70
2, 85645, Control_c, 0, 64, 127
2, 85646, Note_on_c, 0, 67, 59
2, 85777, Note_on_c, 0, 79, 0
2, 85807, Note_on_c, 0, 67, 0
2, 85864, Note_on_c, 0, 62, 58
2, 85867, Control_c, 0, 64, 0
2, 85878, Note_on_c, 0, 76, 50
2, 85902, Note_on_c, 0, 55, 36
2, 85912, Note_on_c, 0, 62, 0
2, 85950, Note_on_c, 0, 55, 0
2, 85951, Note_on_c, 0, 76, 0
2, 86007, Note_on_c, 0, 79, 58
2, 86010, Note_on_c, 0, 67, 57
2, 86055, Control_c, 0, 64, 127
2, 86131, Note_on_c, 0, 67, 0
2, 86159, Note_on_c, 0, 79, 0
2, 86245, Control_c, 0, 64, 0
2, 86264, Note_on_c, 0, 62, 74
2, 86264, Note_on_c, 0, 83, 72
2, 86264, Note_on_c, 0, 71, 69
2, 86274, Note_on_c, 0, 59, 48
2, 86275, Note_on_c, 0, 55, 46
2, 86288, Note_on_c, 0, 52, 28
2, 86308, Note_on_c, 0, 71, 0
2, 86312, Note_on_c, 0, 59, 0
2, 86318, Note_on_c, 0, 52, 0
2, 86330, Note_on_c, 0, 62, 0
2, 86331, Note_on_c, 0, 83, 0
2, 86335, Note_on_c, 0, 55, 0
2, 86393, Control_c, 0, 64, 127
2, 86581, Control_c, 0, 64, 0
2, 86610, Note_on_c, 0, 55, 65
2, 86618, Note_on_c, 0, 66, 61
2, 86619, Note_on_c, 0, 84, 74
2, 86621, Note_on_c, 0, 72, 78
2, 86621, Note_on_c, 0, 61, 57
2, 86685, Note_on_c, 0, 66, 0
2, 86694, Note_on_c, 0, 55, 0
2, 86704, Note_on_c, 0, 72, 0
2, 86721, Control_c, 0, 64, 127
2, 86731, Note_on_c, 0, 84, 0
2, 86769, Note_on_c, 0, 61, 0
2, 86979, Control_c, 0, 64, 0
2, 86992, Note_on_c, 0, 61, 58
2, 86994, Note_on_c, 0, 66, 62
2, 87001, Note_on_c, 0, 55, 62
2, 87006, Note_on_c, 0, 76, 69
2, 87008, Note_on_c, 0, 88, 71
2, 87090, Note_on_c, 0, 76, 0
2, 87114, Note_on_c, 0, 88, 0
2, 87124, Control_c, 0, 64, 127
2, 87152, Note_on_c, 0, 55, 0
2, 87154, Note_on_c, 0, 66, 0
2, 87321, Note_on_c, 0, 61, 0
2, 87370, Control_c, 0, 64, 0
2, 87377, Note_on_c, 0, 60, 63
2, 87378, Note_on_c, 0, 91, 66
2, 87379, Note_on_c, 0, 64, 74
2, 87381, Note_on_c, 0, 79, 71
2, 87391, Note_on_c, 0, 53, 54
2, 87396, Note_on_c, 0, 88, 50
2, 87398, Note_on_c, 0, 57, 57
2, 87400, Note_on_c, 0, 89, 35
2, 87470, Note_on_c, 0, 79, 0
2, 87485, Note_on_c, 0, 64, 0
2, 87486, Note_on_c, 0, 88, 0
2, 87496, Note_on_c, 0, 89, 0
2, 87501, Note_on_c, 0, 91, 0
2, 87511, Control_c, 0, 64, 127
2, 87527, Note_on_c, 0, 57, 0
2, 87539, Note_on_c, 0, 53, 0
2, 87553, Note_on_c, 0, 60, 0
2, 87756, Note_on_c, 0, 60, 68
2, 87758, Note_on_c, 0, 96, 82
2, 87763, Note_on_c, 0, 91, 69
2, 87764, Note_on_c, 0, 64, 76
2, 87766, Note_on_c, 0, 84, 62
2, 87768, Note_on_c, 0, 53, 65
2, 87768, Note_on_c, 0, 57, 61
2, 87770, Control_c, 0, 64, 0
2, 87901, Control_c, 0, 64, 127
2, 88083, Note_on_c, 0, 96, 0
2, 88085, Note_on_c, 0, 60, 0
2, 88096, Note_on_c, 0, 91, 0
2, 88146, Note_on_c, 0, 84, 0
2, 88149, Note_on_c, 0, 64, 0
2, 88152, Note_on_c, 0, 53, 0
2, 88159, Note_on_c, 0, 57, 0
2, 88281, Note_on_c, 0, 90, 48
2, 88282, Note_on_c, 0, 83, 48
2, 88283, Note_on_c, 0, 95, 56
2, 88284, Note_on_c, 0, 64, 67
2, 88286, Control_c, 0, 64, 0
2, 88289, Note_on_c, 0, 59, 58
2, 88296, Note_on_c, 0, 53, 44
2, 88400, Note_on_c, 0, 91, 38
2, 88430, Note_on_c, 0, 90, 0
2, 88438, Note_on_c, 0, 64, 0
2, 88454, Note_on_c, 0, 83, 0
2, 88465, Note_on_c, 0, 95, 0
2, 88468, Note_on_c, 0, 53, 0
2, 88472, Note_on_c, 0, 91, 0
2, 88479, Note_on_c, 0, 59, 0
2, 88673, Note_on_c, 0, 93, 60
2, 88674, Note_on_c, 0, 88, 55
2, 88677, Note_on_c, 0, 59, 51
2, 88681, Note_on_c, 0, 64, 57
2, 88687, Note_on_c, 0, 53, 39
2, 88691, Note_on_c, 0, 81, 33
2, 88755, Note_on_c, 0, 64, 0
2, 88770, Note_on_c, 0, 93, 0
2, 88788, Note_on_c, 0, 59, 0
2, 88790, Note_on_c, 0, 88, 0
2, 88796, Note_on_c, 0, 53, 0
2, 88816, Note_on_c, 0, 81, 0
2, 89017, Control_c, 0, 64, 127
2, 89045, Note_on_c, 0, 50, 39
2, 89046, Note_on_c, 0, 60, 40
2, 89049, Note_on_c, 0, 57, 39
2, 89053, Note_on_c, 0, 89, 48
2, 89056, Note_on_c, 0, 77, 35
2, 89057, Note_on_c, 0, 84, 43
2, 89064, Note_on_c, 0, 53, 34
2, 89178, Note_on_c, 0, 77, 0
2, 89181, Note_on_c, 0, 53, 0
2, 89188, Note_on_c, 0, 50, 0
2, 89191, Note_on_c, 0, 57, 0
2, 89195, Note_on_c, 0, 84, 0
2, 89225, Note_on_c, 0, 89, 0
2, 89225, Note_on_c, 0, 60, 0
2, 89412, Control_c, 0, 64, 0
2, 89436, Note_on_c, 0, 87, 80
2, 89439, Note_on_c, 0, 93, 82
2, 89447, Note_on_c, 0, 54, 80
2, 89448, Note_on_c, 0, 81, 65
2, 89449, Note_on_c, 0, 65, 80
2, 89450, Note_on_c, 0, 60, 72
2, 89462, Note_on_c, 0, 90, 32
2, 89482, Note_on_c, 0, 64, 31
2, 89490, Note_on_c, 0, 90, 0
2, 89511, Note_on_c, 0, 64, 0
2, 89534, Note_on_c, 0, 87, 0
2, 89548, Note_on_c, 0, 88, 53
2, 89585, Control_c, 0, 64, 127
2, 89686, Note_on_c, 0, 93, 0
2, 89710, Note_on_c, 0, 88, 0
2, 89711, Note_on_c, 0, 65, 0
2, 89720, Note_on_c, 0, 60, 0
2, 89723, Note_on_c, 0, 81, 0
2, 89757, Control_c, 0, 64, 0
2, 89774, Note_on_c, 0, 54, 0
2, 89829, Note_on_c, 0, 64, 67
2, 89833, Note_on_c, 0, 91, 79
2, 89837, Note_on_c, 0, 85, 74
2, 89838, Note_on_c, 0, 59, 65
2, 89839, Note_on_c, 0, 79, 63
2, 89840, Note_on_c, 0, 53, 68
2, 89890, Control_c, 0, 64, 127
2, 89939, Note_on_c, 0, 85, 0
2, 89964, Note_on_c, 0, 86, 35
2, 90101, Note_on_c, 0, 91, 0
2, 90114, Note_on_c, 0, 79, 0
2, 90124, Note_on_c, 0, 86, 0
2, 90129, Note_on_c, 0, 53, 0
2, 90134, Note_on_c, 0, 64, 0
2, 90167, Note_on_c, 0, 59, 0
2, 90169, Control_c, 0, 64, 0
2, 90205, Note_on_c, 0, 89, 60
2, 90210, Note_on_c, 0, 53, 53
2, 90211, Note_on_c, 0, 64, 51
2, 90214, Note_on_c, 0, 77, 53
2, 90218, Note_on_c, 0, 59, 51
2, 90225, Note_on_c, 0, 84, 60
2, 90276, Control_c, 0, 64, 127
2, 90342, Note_on_c, 0, 89, 0
2, 90367, Note_on_c, 0, 84, 0
2, 90391, Note_on_c, 0, 53, 0
2, 90391, Note_on_c, 0, 64, 0
2, 90395, Note_on_c, 0, 77, 0
2, 90463, Note_on_c, 0, 59, 0
2, 90557, Control_c, 0, 64, 0
2, 90594, Note_on_c, 0, 62, 48
2, 90601, Note_on_c, 0, 59, 31
2, 90607, Note_on_c, 0, 76, 36
2, 90614, Note_on_c, 0, 83, 41
2, 90614, Note_on_c, 0, 88, 33
2, 90627, Note_on_c, 0, 52, 24
2, 90627, Note_on_c, 0, 55, 27
2, 90646, Control_c, 0, 64, 127
2, 90670, Note_on_c, 0, 76, 0
2, 90695, Note_on_c, 0, 55, 0
2, 90696, Note_on_c, 0, 83, 0
2, 90697, Note_on_c, 0, 52, 0
2, 90704, Note_on_c, 0, 62, 0
2, 90706, Note_on_c, 0, 88, 0
2, 90747, Note_on_c, 0, 59, 0
2, 90886, Note_on_c, 0, 91, 54
2, 90887, Note_on_c, 0, 62, 58
2, 90890, Note_on_c, 0, 59, 47
2, 90891, Note_on_c, 0, 79, 42
2, 90895, Note_on_c, 0, 86, 57
2, 90901, Note_on_c, 0, 52, 40
2, 90902, Note_on_c, 0, 55, 44
2, 90909, Control_c, 0, 64, 0
2, 90992, Note_on_c, 0, 52, 0
2, 90999, Note_on_c, 0, 55, 0
2, 91004, Note_on_c, 0, 91, 0
2, 91007, Note_on_c, 0, 79, 0
2, 91014, Note_on_c, 0, 86, 0
2, 91024, Control_c, 0, 64, 127
2, 91032, Note_on_c, 0, 59, 0
2, 91089, Note_on_c, 0, 62, 0
2, 91238, Control_c, 0, 64, 0
2, 91251, Note_on_c, 0, 88, 50
2, 91252, Note_on_c, 0, 64, 57
2, 91255, Note_on_c, 0, 76, 40
2, 91256, Note_on_c, 0, 83, 44
2, 91258, Note_on_c, 0, 53, 40
2, 91263, Note_on_c, 0, 57, 50
2, 91264, Note_on_c, 0, 60, 49
2, 91271, Note_on_c, 0, 85, 36
2, 91300, Note_on_c, 0, 85, 0
2, 91333, Note_on_c, 0, 83, 0
2, 91338, Note_on_c, 0, 76, 0
2, 91340, Note_on_c, 0, 64, 0
2, 91346, Note_on_c, 0, 88, 0
2, 91354, Note_on_c, 0, 53, 0
2, 91366, Note_on_c, 0, 57, 0
2, 91369, Note_on_c, 0, 60, 0
2, 91369, Control_c, 0, 64, 127
2, 91609, Note_on_c, 0, 84, 48
2, 91615, Control_c, 0, 64, 0
2, 91622, Note_on_c, 0, 79, 44
2, 91622, Note_on_c, 0, 64, 55
2, 91627, Note_on_c, 0, 72, 43
2, 91632, Note_on_c, 0, 57, 49
2, 91634, Note_on_c, 0, 53, 33
2, 91635, Note_on_c, 0, 60, 46
2, 91710, Note_on_c, 0, 84, 0
2, 91717, Note_on_c, 0, 53, 0
2, 91722, Note_on_c, 0, 72, 0
2, 91727, Note_on_c, 0, 79, 0
2, 91746, Control_c, 0, 64, 127
2, 91747, Note_on_c, 0, 57, 0
2, 91751, Note_on_c, 0, 60, 0
2, 91923, Note_on_c, 0, 64, 0
2, 92084, Control_c, 0, 64, 0
2, 92090, Note_on_c, 0, 74, 53
2, 92100, Note_on_c, 0, 65, 58
2, 92104, Note_on_c, 0, 69, 60
2, 92121, Note_on_c, 0, 71, 47
2, 92122, Note_on_c, 0, 64, 72
2, 92394, Note_on_c, 0, 65, 0
2, 92403, Note_on_c, 0, 74, 0
2, 92403, Note_on_c, 0, 64, 0
2, 92408, Note_on_c, 0, 69, 0
2, 92417, Note_on_c, 0, 62, 53
2, 92419, Note_on_c, 0, 71, 0
2, 92499, Note_on_c, 0, 74, 40
2, 92508, Note_on_c, 0, 69, 38
2, 92508, Note_on_c, 0, 65, 50
2, 92517, Note_on_c, 0, 71, 26
2, 92519, Note_on_c, 0, 62, 0
2, 92520, Note_on_c, 0, 64, 44
2, 92568, Control_c, 0, 64, 127
2, 92660, Note_on_c, 0, 65, 0
2, 92699, Note_on_c, 0, 69, 0
2, 92702, Note_on_c, 0, 71, 0
2, 92708, Note_on_c, 0, 74, 0
2, 92847, Control_c, 0, 64, 0
2, 92852, Note_on_c, 0, 64, 0
2, 92893, Note_on_c, 0, 77, 45
2, 92894, Note_on_c, 0, 62, 48
2, 92901, Note_on_c, 0, 56, 38
2, 92903, Note_on_c, 0, 74, 36
2, 92909, Note_on_c, 0, 65, 34
2, 93028, Control_c, 0, 64, 127
2, 93046, Note_on_c, 0, 65, 0
2, 93047, Note_on_c, 0, 74, 0
2, 93065, Note_on_c, 0, 77, 0
2, 93066, Note_on_c, 0, 62, 0
2, 93086, Control_c, 0, 64, 0
2, 93095, Note_on_c, 0, 56, 0
2, 93308, Control_c, 0, 64, 127
2, 93612, Control_c, 0, 64, 0
2, 93661, Note_on_c, 0, 72, 80
2, 93663, Note_on_c, 0, 59, 42
2, 93672, Note_on_c, 0, 60, 38
2, 93680, Note_on_c, 0, 55, 40
2, 93688, Note_on_c, 0, 64, 37
2, 93840, Note_on_c, 0, 72, 0
2, 93865, Note_on_c, 0, 59, 0
2, 93870, Note_on_c, 0, 55, 0
2, 93879, Note_on_c, 0, 60, 0
2, 93892, Note_on_c, 0, 74, 24
2, 93893, Note_on_c, 0, 64, 0
2, 93919, Note_on_c, 0, 72, 35
2, 93966, Note_on_c, 0, 74, 0
2, 93983, Note_on_c, 0, 71, 51
2, 93993, Note_on_c, 0, 72, 0
2, 94020, Note_on_c, 0, 71, 0
2, 94042, Note_on_c, 0, 64, 36
2, 94059, Note_on_c, 0, 60, 34
2, 94060, Note_on_c, 0, 55, 33
2, 94060, Note_on_c, 0, 72, 60
2, 94068, Note_on_c, 0, 59, 36
2, 94224, Note_on_c, 0, 55, 0
2, 94225, Note_on_c, 0, 59, 0
2, 94228, Control_c, 0, 64, 127
2, 94235, Note_on_c, 0, 64, 0
2, 94250, Note_on_c, 0, 60, 0
2, 94306, Note_on_c, 0, 72, 0
2, 94310, Control_c, 0, 64, 0
2, 94332, Note_on_c, 0, 76, 64
2, 94348, Note_on_c, 0, 54, 39
2, 94356, Note_on_c, 0, 64, 26
2, 94358, Note_on_c, 0, 60, 36
2, 94548, Control_c, 0, 64, 127
2, 94640, Control_c, 0, 64, 0
2, 94778, Control_c, 0, 64, 127
2, 94891, Note_on_c, 0, 60, 0
2, 94908, Note_on_c, 0, 64, 0
2, 94931, Note_on_c, 0, 54, 0
2, 95069, Note_on_c, 0, 76, 0
2, 95131, Control_c, 0, 64, 0
2, 95172, Note_on_c, 0, 65, 37
2, 95174, Note_on_c, 0, 60, 42
2, 95182, Note_on_c, 0, 55, 24
2, 95210, Note_on_c, 0, 57, 24
2, 95376, Note_on_c, 0, 65, 0
2, 95430, Note_on_c, 0, 79, 68
2, 95451, Note_on_c, 0, 57, 0
2, 95525, Note_on_c, 0, 79, 0
2, 95559, Note_on_c, 0, 67, 37
2, 95560, Note_on_c, 0, 60, 0
2, 95607, Note_on_c, 0, 55, 0
2, 95629, Note_on_c, 0, 67, 0
2, 95708, Note_on_c, 0, 67, 34
2, 95787, Note_on_c, 0, 67, 0
2, 95836, Note_on_c, 0, 79, 62
2, 95897, Note_on_c, 0, 60, 19
2, 95939, Note_on_c, 0, 79, 0
2, 95944, Note_on_c, 0, 60, 0
2, 95982, Note_on_c, 0, 67, 36
2, 96019, Note_on_c, 0, 67, 0
2, 96112, Note_on_c, 0, 67, 36
2, 96187, Note_on_c, 0, 67, 0
2, 96239, Note_on_c, 0, 79, 62
2, 96340, Note_on_c, 0, 79, 0
2, 96358, Note_on_c, 0, 67, 34
2, 96394, Note_on_c, 0, 67, 0
2, 96481, Note_on_c, 0, 67, 34
2, 96564, Note_on_c, 0, 67, 0
2, 96613, Note_on_c, 0, 79, 58
2, 96631, Note_on_c, 0, 56, 47
2, 96636, Note_on_c, 0, 55, 36
2, 96639, Note_on_c, 0, 65, 49
2, 96649, Note_on_c, 0, 61, 28
2, 96672, Note_on_c, 0, 55, 0
2, 96678, Note_on_c, 0, 65, 0
2, 96717, Note_on_c, 0, 79, 0
2, 96734, Note_on_c, 0, 67, 36
2, 96750, Note_on_c, 0, 56, 0
2, 96756, Note_on_c, 0, 61, 0
2, 96779, Note_on_c, 0, 67, 0
2, 96879, Note_on_c, 0, 67, 33
2, 96961, Note_on_c, 0, 67, 0
2, 97010, Note_on_c, 0, 79, 62
2, 97015, Note_on_c, 0, 65, 67
2, 97022, Note_on_c, 0, 61, 46
2, 97031, Note_on_c, 0, 56, 33
2, 97051, Note_on_c, 0, 65, 0
2, 97072, Note_on_c, 0, 56, 0
2, 97104, Note_on_c, 0, 79, 0
2, 97110, Note_on_c, 0, 61, 0
2, 97124, Note_on_c, 0, 67, 36
2, 97176, Note_on_c, 0, 67, 0
2, 97266, Note_on_c, 0, 67, 43
2, 97346, Note_on_c, 0, 67, 0
2, 97361, Note_on_c, 0, 45, 70
2, 97389, Note_on_c, 0, 45, 0
2, 97391, Note_on_c, 0, 79, 68
2, 97495, Note_on_c, 0, 79, 0
2, 97510, Note_on_c, 0, 67, 28
2, 97552, Note_on_c, 0, 67, 0
2, 97638, Note_on_c, 0, 67, 38
2, 97723, Note_on_c, 0, 67, 0
2, 97761, Note_on_c, 0, 79, 68
2, 97763, Note_on_c, 0, 65, 73
2, 97775, Note_on_c, 0, 56, 44
2, 97777, Note_on_c, 0, 61, 45
2, 97777, Note_on_c, 0, 55, 51
2, 97834, Note_on_c, 0, 65, 0
2, 97861, Note_on_c, 0, 55, 0
2, 97862, Note_on_c, 0, 79, 0
2, 97876, Note_on_c, 0, 67, 49
2, 97906, Note_on_c, 0, 67, 0
2, 97911, Note_on_c, 0, 61, 0
2, 97926, Note_on_c, 0, 56, 0
2, 98027, Note_on_c, 0, 67, 35
2, 98066, Control_c, 0, 64, 127
2, 98107, Note_on_c, 0, 67, 0
2, 98137, Note_on_c, 0, 79, 75
2, 98183, Note_on_c, 0, 59, 60
2, 98185, Note_on_c, 0, 64, 66
2, 98190, Control_c, 0, 64, 0
2, 98203, Note_on_c, 0, 53, 42
2, 98265, Note_on_c, 0, 79, 0
2, 98271, Note_on_c, 0, 67, 46
2, 98311, Note_on_c, 0, 64, 0
2, 98343, Note_on_c, 0, 59, 0
2, 98365, Note_on_c, 0, 53, 0
2, 98375, Note_on_c, 0, 79, 13
2, 98393, Control_c, 0, 64, 127
2, 98446, Note_on_c, 0, 67, 0
2, 98465, Note_on_c, 0, 79, 0
2, 98515, Note_on_c, 0, 67, 53
2, 98576, Note_on_c, 0, 45, 31
2, 98577, Note_on_c, 0, 67, 0
2, 98590, Control_c, 0, 64, 0
2, 98780, Control_c, 0, 64, 127
2, 98960, Control_c, 0, 64, 0
2, 98998, Note_on_c, 0, 67, 50
2, 98999, Note_on_c, 0, 59, 56
2, 99004, Note_on_c, 0, 62, 61
2, 99108, Control_c, 0, 64, 127
2, 99128, Note_on_c, 0, 67, 0
2, 99135, Note_on_c, 0, 65, 17
2, 99185, Note_on_c, 0, 59, 0
2, 99199, Note_on_c, 0, 65, 0
2, 99219, Note_on_c, 0, 62, 0
2, 99248, Note_on_c, 0, 49, 42
2, 99271, Control_c, 0, 64, 0
2, 99279, Note_on_c, 0, 45, 0
2, 99322, Note_on_c, 0, 49, 0
2, 99374, Note_on_c, 0, 56, 37
2, 99375, Note_on_c, 0, 66, 44
2, 99376, Note_on_c, 0, 51, 45
2, 99380, Note_on_c, 0, 61, 50
2, 99420, Control_c, 0, 64, 127
2, 99558, Note_on_c, 0, 56, 0
2, 99563, Note_on_c, 0, 61, 0
2, 99566, Note_on_c, 0, 66, 0
2, 99637, Note_on_c, 0, 51, 0
2, 99637, Note_on_c, 0, 67, 55
2, 99638, Note_on_c, 0, 57, 59
2, 99641, Note_on_c, 0, 62, 57
2, 99650, Control_c, 0, 64, 0
2, 99651, Note_on_c, 0, 52, 60
2, 99753, Note_on_c, 0, 57, 0
2, 99797, Control_c, 0, 64, 127
2, 100001, Note_on_c, 0, 67, 0
2, 100019, Note_on_c, 0, 62, 0
2, 100112, Control_c, 0, 64, 0
2, 100175, Note_on_c, 0, 64, 123
2, 100250, Control_c, 0, 64, 127
2, 100500, Note_on_c, 0, 64, 0
2, 100505, Control_c, 0, 64, 0
2, 100553, Note_on_c, 0, 67, 81
2, 100636, Control_c, 0, 64, 127
2, 100721, Note_on_c, 0, 67, 0
2, 100775, Note_on_c, 0, 67, 46
2, 100801, Note_on_c, 0, 52, 0
2, 100841, Control_c, 0, 64, 0
2, 100867, Note_on_c, 0, 67, 0
2, 100897, Note_on_c, 0, 64, 58
2, 100972, Control_c, 0, 64, 127
2, 101088, Note_on_c, 0, 64, 0
2, 101180, Note_on_c, 0, 60, 58
2, 101197, Note_on_c, 0, 57, 47
2, 101199, Note_on_c, 0, 64, 34
2, 101207, Note_on_c, 0, 60, 0
2, 101216, Note_on_c, 0, 53, 37
2, 101219, Control_c, 0, 64, 0
2, 101240, Note_on_c, 0, 64, 0
2, 101257, Note_on_c, 0, 53, 0
2, 101277, Note_on_c, 0, 57, 0
2, 101321, Note_on_c, 0, 65, 78
2, 101504, Note_on_c, 0, 65, 0
2, 101578, Note_on_c, 0, 65, 52
2, 101644, Note_on_c, 0, 65, 0
2, 101698, Note_on_c, 0, 69, 88
2, 101893, Note_on_c, 0, 69, 0
2, 101968, Note_on_c, 0, 69, 58
2, 101997, Note_on_c, 0, 64, 51
2, 102000, Note_on_c, 0, 59, 43
2, 102030, Note_on_c, 0, 64, 0
2, 102073, Note_on_c, 0, 59, 0
2, 102078, Note_on_c, 0, 69, 0
2, 102121, Note_on_c, 0, 67, 24
2, 102348, Note_on_c, 0, 71, 79
2, 102359, Note_on_c, 0, 59, 40
2, 102362, Note_on_c, 0, 64, 67
2, 102368, Note_on_c, 0, 67, 0
2, 102368, Note_on_c, 0, 53, 53
2, 102525, Control_c, 0, 64, 127
2, 102657, Note_on_c, 0, 64, 0
2, 102673, Note_on_c, 0, 53, 0
2, 102796, Control_c, 0, 64, 0
2, 102844, Note_on_c, 0, 62, 39
2, 102859, Note_on_c, 0, 67, 48
2, 102876, Note_on_c, 0, 71, 0
2, 102952, Control_c, 0, 64, 127
2, 102986, Control_c, 0, 64, 0
2, 103015, Note_on_c, 0, 62, 0
2, 103045, Note_on_c, 0, 67, 0
2, 103051, Note_on_c, 0, 59, 0
2, 103281, Control_c, 0, 64, 127
2, 103568, Control_c, 0, 64, 0
2, 103633, Note_on_c, 0, 64, 57
2, 103634, Note_on_c, 0, 74, 84
2, 103637, Note_on_c, 0, 60, 46
2, 103649, Note_on_c, 0, 53, 42
2, 103663, Note_on_c, 0, 57, 40
2, 103733, Control_c, 0, 64, 127
2, 103921, Control_c, 0, 64, 0
2, 103967, Note_on_c, 0, 74, 0
2, 104033, Note_on_c, 0, 71, 57
2, 104045, Control_c, 0, 64, 127
2, 104067, Note_on_c, 0, 53, 0
2, 104075, Note_on_c, 0, 57, 0
2, 104076, Note_on_c, 0, 64, 0
2, 104091, Note_on_c, 0, 60, 0
2, 104280, Note_on_c, 0, 71, 0
2, 104301, Note_on_c, 0, 62, 54
2, 104310, Note_on_c, 0, 67, 54
2, 104310, Note_on_c, 0, 57, 35
2, 104332, Control_c, 0, 64, 0
2, 104337, Note_on_c, 0, 62, 0
2, 104347, Note_on_c, 0, 57, 0
2, 104364, Note_on_c, 0, 67, 0
2, 104570, Control_c, 0, 64, 127
2, 104759, Control_c, 0, 64, 0
2, 104814, Note_on_c, 0, 64, 87
2, 104814, Note_on_c, 0, 76, 96
2, 104899, Control_c, 0, 64, 127
2, 105106, Note_on_c, 0, 76, 0
2, 105129, Note_on_c, 0, 64, 0
2, 105154, Control_c, 0, 64, 0
2, 105180, Note_on_c, 0, 62, 44
2, 105192, Note_on_c, 0, 71, 55
2, 105228, Note_on_c, 0, 56, 28
2, 105319, Control_c, 0, 64, 127
2, 105374, Note_on_c, 0, 56, 0
2, 105433, Note_on_c, 0, 71, 0
2, 105442, Note_on_c, 0, 67, 55
2, 105458, Note_on_c, 0, 56, 46
2, 105474, Control_c, 0, 64, 0
2, 105501, Note_on_c, 0, 62, 0
2, 105504, Note_on_c, 0, 67, 0
2, 105584, Note_on_c, 0, 56, 0
2, 105646, Control_c, 0, 64, 127
2, 105893, Control_c, 0, 64, 0
2, 105944, Note_on_c, 0, 55, 60
2, 105946, Note_on_c, 0, 64, 66
2, 105947, Note_on_c, 0, 77, 78
2, 105952, Note_on_c, 0, 60, 53
2, 105966, Note_on_c, 0, 57, 41
2, 106041, Control_c, 0, 64, 127
2, 106262, Control_c, 0, 64, 0
2, 106271, Note_on_c, 0, 77, 0
2, 106304, Note_on_c, 0, 60, 0
2, 106313, Note_on_c, 0, 57, 0
2, 106322, Note_on_c, 0, 76, 63
2, 106326, Note_on_c, 0, 55, 0
2, 106339, Note_on_c, 0, 64, 0
2, 106362, Control_c, 0, 64, 127
2, 106521, Note_on_c, 0, 76, 0
2, 106587, Note_on_c, 0, 75, 53
2, 106605, Note_on_c, 0, 61, 32
2, 106606, Note_on_c, 0, 55, 43
2, 106607, Note_on_c, 0, 65, 49
2, 106608, Note_on_c, 0, 60, 38
2, 106610, Control_c, 0, 64, 0
2, 106757, Control_c, 0, 64, 127
2, 106988, Control_c, 0, 64, 0
2, 107046, Note_on_c, 0, 75, 0
2, 107095, Control_c, 0, 64, 127
2, 107098, Note_on_c, 0, 76, 43
2, 107101, Note_on_c, 0, 65, 0
2, 107108, Note_on_c, 0, 60, 0
2, 107156, Note_on_c, 0, 61, 0
2, 107243, Note_on_c, 0, 55, 0
2, 107337, Note_on_c, 0, 76, 0
2, 107440, Control_c, 0, 64, 0
2, 107483, Note_on_c, 0, 67, 41
2, 107485, Note_on_c, 0, 55, 32
2, 107498, Note_on_c, 0, 60, 30
2, 107788, Note_on_c, 0, 67, 0
2, 107850, Note_on_c, 0, 55, 0
2, 107901, Note_on_c, 0, 67, 51
2, 107913, Note_on_c, 0, 55, 17
2, 107940, Control_c, 0, 64, 127
2, 108066, Note_on_c, 0, 67, 0
2, 108157, Note_on_c, 0, 66, 52
2, 108204, Control_c, 0, 64, 0
2, 108225, Note_on_c, 0, 66, 0
2, 108283, Note_on_c, 0, 67, 47
2, 108327, Control_c, 0, 64, 127
2, 108351, Note_on_c, 0, 55, 0
2, 108359, Note_on_c, 0, 60, 0
2, 108549, Control_c, 0, 64, 0
2, 108550, Note_on_c, 0, 67, 0
2, 108555, Note_on_c, 0, 69, 64
2, 108688, Control_c, 0, 64, 127
2, 108708, Note_on_c, 0, 69, 0
2, 108738, Note_on_c, 0, 70, 54
2, 108893, Note_on_c, 0, 70, 0
2, 108947, Note_on_c, 0, 72, 63
2, 108967, Note_on_c, 0, 61, 33
2, 108969, Note_on_c, 0, 56, 28
2, 108975, Note_on_c, 0, 65, 42
2, 108977, Control_c, 0, 64, 0
2, 109002, Note_on_c, 0, 55, 24
2, 109116, Note_on_c, 0, 72, 0
2, 109157, Control_c, 0, 64, 127
2, 109263, Control_c, 0, 64, 0
2, 109403, Control_c, 0, 64, 127
2, 109497, Note_on_c, 0, 65, 0
2, 109502, Note_on_c, 0, 55, 0
2, 109538, Note_on_c, 0, 61, 0
2, 109540, Note_on_c, 0, 56, 0
2, 109649, Note_on_c, 0, 61, 45
2, 109651, Note_on_c, 0, 65, 57
2, 109658, Note_on_c, 0, 56, 36
2, 109662, Note_on_c, 0, 55, 39
2, 109682, Control_c, 0, 64, 0
2, 109798, Control_c, 0, 64, 127
2, 110068, Control_c, 0, 64, 0
2, 110134, Control_c, 0, 64, 127
2, 110157, Note_on_c, 0, 65, 0
2, 110191, Note_on_c, 0, 55, 0
2, 110193, Note_on_c, 0, 56, 0
2, 110201, Note_on_c, 0, 61, 0
2, 110496, Control_c, 0, 64, 0
2, 110528, Control_c, 0, 64, 127
2, 110812, Note_on_c, 0, 65, 71
2, 110820, Note_on_c, 0, 60, 54
2, 110829, Note_on_c, 0, 57, 44
2, 110830, Note_on_c, 0, 55, 44
2, 110849, Control_c, 0, 64, 0
2, 110981, Control_c, 0, 64, 127
2, 111168, Note_on_c, 0, 60, 0
2, 111173, Note_on_c, 0, 65, 0
2, 111192, Note_on_c, 0, 57, 0
2, 111193, Note_on_c, 0, 55, 0
2, 111286, Control_c, 0, 64, 0
2, 111314, Note_on_c, 0, 64, 72
2, 111319, Note_on_c, 0, 59, 65
2, 111320, Note_on_c, 0, 87, 84
2, 111324, Note_on_c, 0, 91, 84
2, 111324, Note_on_c, 0, 53, 68
2, 111324, Note_on_c, 0, 79, 82
2, 111415, Control_c, 0, 64, 127
2, 111470, Note_on_c, 0, 88, 53
2, 111489, Note_on_c, 0, 87, 0
2, 111500, Note_on_c, 0, 88, 0
2, 111514, Note_on_c, 0, 91, 0
2, 111518, Note_on_c, 0, 79, 0
2, 111539, Note_on_c, 0, 53, 0
2, 111546, Note_on_c, 0, 64, 0
2, 111561, Note_on_c, 0, 59, 0
2, 111613, Control_c, 0, 64, 0
2, 111686, Note_on_c, 0, 87, 75
2, 111688, Note_on_c, 0, 75, 77
2, 111699, Note_on_c, 0, 64, 58
2, 111700, Note_on_c, 0, 53, 60
2, 111706, Note_on_c, 0, 59, 52
2, 111758, Note_on_c, 0, 88, 38
2, 111786, Control_c, 0, 64, 127
2, 111802, Note_on_c, 0, 86, 24
2, 111807, Note_on_c, 0, 75, 0
2, 111808, Note_on_c, 0, 76, 39
2, 111819, Note_on_c, 0, 87, 0
2, 111825, Note_on_c, 0, 83, 18
2, 111843, Note_on_c, 0, 81, 19
2, 111854, Note_on_c, 0, 86, 0
2, 111866, Note_on_c, 0, 88, 0
2, 111895, Note_on_c, 0, 76, 0
2, 111901, Note_on_c, 0, 83, 0
2, 111907, Note_on_c, 0, 81, 0
2, 111913, Note_on_c, 0, 53, 0
2, 111918, Note_on_c, 0, 64, 0
2, 111990, Note_on_c, 0, 59, 0
2, 112073, Control_c, 0, 64, 0
2, 112085, Note_on_c, 0, 82, 67
2, 112086, Note_on_c, 0, 59, 47
2, 112090, Note_on_c, 0, 70, 74
2, 112099, Note_on_c, 0, 62, 55
2, 112123, Note_on_c, 0, 52, 29
2, 112123, Note_on_c, 0, 55, 35
2, 112148, Note_on_c, 0, 83, 29
2, 112149, Note_on_c, 0, 70, 0
2, 112195, Note_on_c, 0, 71, 14
2, 112196, Note_on_c, 0, 76, 26
2, 112219, Note_on_c, 0, 79, 13
2, 112223, Control_c, 0, 64, 127
2, 112256, Note_on_c, 0, 83, 0
2, 112290, Note_on_c, 0, 79, 0
2, 112295, Note_on_c, 0, 82, 0
2, 112327, Note_on_c, 0, 76, 0
2, 112354, Note_on_c, 0, 71, 0
2, 112358, Note_on_c, 0, 52, 0
2, 112368, Note_on_c, 0, 62, 0
2, 112385, Note_on_c, 0, 55, 0
2, 112403, Control_c, 0, 64, 0
2, 112405, Note_on_c, 0, 59, 0
2, 112470, Note_on_c, 0, 79, 61
2, 112475, Note_on_c, 0, 62, 37
2, 112485, Note_on_c, 0, 59, 28
2, 112487, Note_on_c, 0, 67, 56
2, 112503, Note_on_c, 0, 74, 39
2, 112519, Control_c, 0, 64, 127
2, 112527, Note_on_c, 0, 55, 15
2, 112647, Note_on_c, 0, 59, 0
2, 112660, Note_on_c, 0, 74, 0
2, 112675, Note_on_c, 0, 79, 0
2, 112707, Note_on_c, 0, 67, 0
2, 112747, Note_on_c, 0, 59, 31
2, 112790, Note_on_c, 0, 62, 0
2, 112872, Control_c, 0, 64, 0
2, 112913, Note_on_c, 0, 59, 0
2, 113027, Note_on_c, 0, 66, 36
2, 113060, Note_on_c, 0, 59, 29
2, 113075, Note_on_c, 0, 66, 0
2, 113082, Note_on_c, 0, 67, 49
2, 113142, Note_on_c, 0, 66, 40
2, 113150, Note_on_c, 0, 67, 0
2, 113150, Note_on_c, 0, 59, 0
2, 113173, Note_on_c, 0, 55, 0
2, 113217, Note_on_c, 0, 64, 41
2, 113218, Note_on_c, 0, 66, 0
2, 113268, Note_on_c, 0, 64, 0
2, 113286, Note_on_c, 0, 66, 37
2, 113356, Note_on_c, 0, 66, 0
2, 113398, Note_on_c, 0, 67, 36
2, 113456, Note_on_c, 0, 67, 0
2, 113471, Note_on_c, 0, 69, 58
2, 113545, Note_on_c, 0, 69, 0
2, 113555, Note_on_c, 0, 70, 60
2, 113619, Note_on_c, 0, 70, 0
2, 113645, Note_on_c, 0, 72, 60
2, 113691, Note_on_c, 0, 72, 0
2, 113794, Note_on_c, 0, 73, 48
2, 113859, Note_on_c, 0, 73, 0
2, 113925, Note_on_c, 0, 75, 65
2, 113989, Note_on_c, 0, 75, 0
2, 114037, Note_on_c, 0, 66, 34
2, 114041, Note_on_c, 0, 62, 30
2, 114043, Note_on_c, 0, 76, 57
2, 114092, Note_on_c, 0, 76, 0
2, 114115, Note_on_c, 0, 66, 0
2, 114144, Note_on_c, 0, 62, 0
2, 114164, Note_on_c, 0, 78, 56
2, 114227, Note_on_c, 0, 78, 0
2, 114276, Note_on_c, 0, 79, 57
2, 114280, Note_on_c, 0, 66, 28
2, 114292, Note_on_c, 0, 62, 32
2, 114313, Note_on_c, 0, 66, 0
2, 114332, Note_on_c, 0, 62, 0
2, 114344, Note_on_c, 0, 79, 0
2, 114405, Note_on_c, 0, 81, 60
2, 114464, Note_on_c, 0, 81, 0
2, 114629, Note_on_c, 0, 82, 68
2, 114632, Note_on_c, 0, 66, 46
2, 114633, Note_on_c, 0, 61, 47
2, 114664, Note_on_c, 0, 66, 0
2, 114695, Note_on_c, 0, 61, 0
2, 114702, Note_on_c, 0, 82, 0
2, 114761, Note_on_c, 0, 66, 39
2, 114774, Note_on_c, 0, 61, 39
2, 114780, Note_on_c, 0, 84, 55
2, 114782, Note_on_c, 0, 55, 26
2, 114817, Note_on_c, 0, 55, 0
2, 114821, Note_on_c, 0, 66, 0
2, 114849, Note_on_c, 0, 84, 0
2, 114856, Note_on_c, 0, 61, 0
2, 114999, Note_on_c, 0, 61, 39
2, 115009, Note_on_c, 0, 66, 25
2, 115013, Note_on_c, 0, 85, 69
2, 115036, Note_on_c, 0, 66, 0
2, 115057, Control_c, 0, 64, 127
2, 115066, Control_c, 0, 64, 0
2, 115109, Note_on_c, 0, 85, 0
2, 115134, Note_on_c, 0, 54, 42
2, 115147, Note_on_c, 0, 64, 41
2, 115150, Note_on_c, 0, 86, 53
2, 115232, Control_c, 0, 64, 127
2, 115308, Note_on_c, 0, 64, 0
2, 115314, Note_on_c, 0, 86, 0
2, 115324, Note_on_c, 0, 54, 0
2, 115349, Note_on_c, 0, 61, 0
2, 115382, Note_on_c, 0, 88, 74
2, 115402, Note_on_c, 0, 61, 35
2, 115406, Note_on_c, 0, 64, 39
2, 115416, Note_on_c, 0, 54, 32
2, 115454, Control_c, 0, 64, 0
2, 115456, Note_on_c, 0, 64, 0
2, 115464, Note_on_c, 0, 88, 0
2, 115524, Note_on_c, 0, 64, 36
2, 115525, Note_on_c, 0, 85, 64
2, 115536, Control_c, 0, 64, 127
2, 115647, Note_on_c, 0, 64, 0
2, 115696, Note_on_c, 0, 54, 0
2, 115702, Note_on_c, 0, 61, 0
2, 115711, Note_on_c, 0, 85, 0
2, 115768, Note_on_c, 0, 81, 61
2, 115784, Note_on_c, 0, 61, 31
2, 115787, Note_on_c, 0, 54, 31
2, 115800, Note_on_c, 0, 64, 30
2, 115835, Note_on_c, 0, 64, 0
2, 115848, Control_c, 0, 64, 0
2, 115860, Note_on_c, 0, 81, 0
2, 115873, Note_on_c, 0, 61, 0
2, 115922, Note_on_c, 0, 78, 44
2, 115931, Note_on_c, 0, 61, 19
2, 115986, Note_on_c, 0, 61, 0
2, 115991, Note_on_c, 0, 78, 0
2, 116006, Note_on_c, 0, 54, 0
2, 116012, Control_c, 0, 64, 127
2, 116226, Control_c, 0, 64, 0
2, 116273, Note_on_c, 0, 74, 65
2, 116291, Note_on_c, 0, 50, 29
2, 116321, Note_on_c, 0, 50, 0
2, 116407, Control_c, 0, 64, 127
2, 116516, Note_on_c, 0, 74, 0
2, 116663, Control_c, 0, 64, 0
2, 116682, Note_on_c, 0, 71, 54
2, 116786, Control_c, 0, 64, 127
2, 116998, Control_c, 0, 64, 0
2, 117005, Note_on_c, 0, 71, 0
2, 117033, Note_on_c, 0, 68, 54
2, 117037, Note_on_c, 0, 59, 32
2, 117038, Note_on_c, 0, 76, 58
2, 117067, Note_on_c, 0, 63, 25
2, 117171, Control_c, 0, 64, 127
2, 117265, Note_on_c, 0, 59, 0
2, 117293, Note_on_c, 0, 68, 0
2, 117314, Note_on_c, 0, 63, 0
2, 117392, Control_c, 0, 64, 0
2, 117400, Note_on_c, 0, 76, 0
2, 117422, Note_on_c, 0, 68, 46
2, 117430, Note_on_c, 0, 58, 47
2, 117445, Note_on_c, 0, 75, 52
2, 117464, Note_on_c, 0, 64, 24
2, 117523, Control_c, 0, 64, 127
2, 117635, Note_on_c, 0, 58, 0
2, 117638, Note_on_c, 0, 68, 0
2, 117668, Note_on_c, 0, 64, 0
2, 117754, Control_c, 0, 64, 0
2, 117812, Note_on_c, 0, 58, 25
2, 117819, Note_on_c, 0, 70, 36
2, 117844, Control_c, 0, 64, 127
2, 117867, Note_on_c, 0, 75, 0
2, 117872, Note_on_c, 0, 58, 0
2, 117952, Note_on_c, 0, 70, 0
2, 118173, Control_c, 0, 64, 0
2, 118247, Control_c, 0, 64, 127
2, 118474, Note_on_c, 0, 66, 59
2, 118476, Note_on_c, 0, 74, 57
2, 118482, Note_on_c, 0, 69, 54
2, 118483, Note_on_c, 0, 62, 63
2, 118531, Note_on_c, 0, 66, 0
2, 118539, Note_on_c, 0, 69, 0
2, 118542, Control_c, 0, 64, 0
2, 118544, Note_on_c, 0, 62, 0
2, 118550, Note_on_c, 0, 74, 0
2, 118627, Note_on_c, 0, 60, 52
2, 118710, Note_on_c, 0, 60, 0
2, 118730, Note_on_c, 0, 74, 62
2, 118732, Control_c, 0, 64, 127
2, 118733, Note_on_c, 0, 66, 60
2, 118743, Note_on_c, 0, 62, 57
2, 118810, Note_on_c, 0, 66, 0
2, 118832, Note_on_c, 0, 74, 0
2, 118883, Note_on_c, 0, 62, 0
2, 119027, Control_c, 0, 64, 0
2, 119043, Note_on_c, 0, 78, 64
2, 119047, Note_on_c, 0, 68, 75
2, 119052, Note_on_c, 0, 65, 79
2, 119058, Note_on_c, 0, 71, 64
2, 119062, Note_on_c, 0, 74, 60
2, 119167, Control_c, 0, 64, 127
2, 119186, Note_on_c, 0, 68, 0
2, 119197, Note_on_c, 0, 74, 0
2, 119204, Note_on_c, 0, 71, 0
2, 119204, Note_on_c, 0, 65, 0
2, 119217, Note_on_c, 0, 78, 0
2, 119331, Control_c, 0, 64, 0
2, 119344, Note_on_c, 0, 74, 55
2, 119348, Note_on_c, 0, 68, 62
2, 119360, Note_on_c, 0, 62, 59
2, 119360, Note_on_c, 0, 65, 57
2, 119369, Note_on_c, 0, 73, 28
2, 119389, Note_on_c, 0, 65, 0
2, 119400, Note_on_c, 0, 73, 0
2, 119418, Note_on_c, 0, 68, 0
2, 119433, Note_on_c, 0, 62, 0
2, 119434, Note_on_c, 0, 74, 0
2, 119651, Control_c, 0, 64, 127
2, 119676, Note_on_c, 0, 67, 72
2, 119678, Note_on_c, 0, 69, 47
2, 119686, Note_on_c, 0, 62, 63
2, 119791, Note_on_c, 0, 67, 0
2, 119794, Note_on_c, 0, 69, 0
2, 119842, Control_c, 0, 64, 0
2, 119847, Note_on_c, 0, 62, 0
2, 120100, Note_on_c, 0, 69, 40
2, 120104, Note_on_c, 0, 64, 58
2, 120109, Note_on_c, 0, 61, 35
2, 120119, Note_on_c, 0, 57, 47
2, 120156, Note_on_c, 0, 61, 0
2, 120170, Note_on_c, 0, 57, 0
2, 120177, Note_on_c, 0, 64, 0
2, 120213, Note_on_c, 0, 69, 0
2, 120363, Note_on_c, 0, 45, 51
2, 120422, Note_on_c, 0, 45, 0
2, 120424, Control_c, 0, 64, 127
2, 120508, Control_c, 0, 64, 0
2, 120646, Note_on_c, 0, 61, 45
2, 120653, Note_on_c, 0, 64, 50
2, 120676, Note_on_c, 0, 57, 28
2, 120692, Note_on_c, 0, 64, 0
2, 120717, Note_on_c, 0, 57, 0
2, 120728, Note_on_c, 0, 61, 0
2, 120867, Note_on_c, 0, 45, 50
2, 120903, Note_on_c, 0, 45, 0
2, 120981, Note_on_c, 0, 58, 62
2, 120984, Note_on_c, 0, 62, 57
2, 120991, Note_on_c, 0, 57, 59
2, 121069, Note_on_c, 0, 57, 0
2, 121081, Control_c, 0, 64, 127
2, 121108, Note_on_c, 0, 62, 0
2, 121136, Note_on_c, 0, 58, 0
2, 121216, Note_on_c, 0, 33, 51
2, 121221, Control_c, 0, 64, 0
2, 121248, Note_on_c, 0, 33, 0
2, 121418, Control_c, 0, 64, 127
2, 121517, Control_c, 0, 64, 0
2, 121536, Note_on_c, 0, 62, 66
2, 121537, Note_on_c, 0, 58, 65
2, 121542, Note_on_c, 0, 65, 53
2, 121545, Note_on_c, 0, 57, 67
2, 121581, Note_on_c, 0, 57, 0
2, 121618, Note_on_c, 0, 65, 0
2, 121632, Note_on_c, 0, 58, 0
2, 121641, Note_on_c, 0, 62, 0
2, 121920, Note_on_c, 0, 57, 82
2, 121921, Note_on_c, 0, 62, 82
2, 121926, Note_on_c, 0, 58, 83
2, 121926, Note_on_c, 0, 69, 80
2, 121931, Note_on_c, 0, 65, 66
2, 122108, Note_on_c, 0, 69, 0
2, 122214, Note_on_c, 0, 58, 0
2, 122228, Note_on_c, 0, 62, 0
2, 122252, Note_on_c, 0, 65, 0
2, 122312, Note_on_c, 0, 68, 72
2, 122314, Note_on_c, 0, 57, 0
2, 122330, Note_on_c, 0, 56, 60
2, 122330, Note_on_c, 0, 58, 65
2, 122331, Note_on_c, 0, 62, 57
2, 122350, Note_on_c, 0, 65, 35
2, 122394, Note_on_c, 0, 65, 0
2, 122430, Note_on_c, 0, 58, 0
2, 122468, Note_on_c, 0, 68, 0
2, 122468, Note_on_c, 0, 56, 0
2, 122499, Note_on_c, 0, 55, 42
2, 122507, Note_on_c, 0, 67, 29
2, 122587, Note_on_c, 0, 67, 0
2, 122631, Note_on_c, 0, 62, 0
2, 122745, Note_on_c, 0, 55, 0
2, 122745, Note_on_c, 0, 66, 51
2, 122751, Note_on_c, 0, 58, 52
2, 122755, Note_on_c, 0, 54, 53
2, 122761, Note_on_c, 0, 61, 49
2, 122765, Control_c, 0, 64, 127
2, 122823, Control_c, 0, 64, 0
2, 122850, Note_on_c, 0, 66, 0
2, 122854, Note_on_c, 0, 58, 0
2, 122859, Note_on_c, 0, 61, 0
2, 122871, Note_on_c, 0, 54, 0
2, 122988, Note_on_c, 0, 62, 38
2, 122995, Note_on_c, 0, 57, 26
2, 122998, Note_on_c, 0, 52, 32
2, 123002, Note_on_c, 0, 59, 24
2, 123006, Note_on_c, 0, 64, 59
2, 123009, Note_on_c, 0, 55, 22
2, 123035, Note_on_c, 0, 57, 0
2, 123051, Note_on_c, 0, 55, 0
2, 123108, Note_on_c, 0, 62, 0
2, 123159, Note_on_c, 0, 59, 0
2, 123224, Note_on_c, 0, 64, 0
2, 123259, Note_on_c, 0, 55, 32
2, 123267, Control_c, 0, 64, 127
2, 123335, Note_on_c, 0, 52, 0
2, 123379, Note_on_c, 0, 55, 0
2, 123449, Control_c, 0, 64, 0
2, 123489, Note_on_c, 0, 64, 62
2, 123490, Note_on_c, 0, 55, 56
2, 123497, Note_on_c, 0, 58, 53
2, 123499, Note_on_c, 0, 61, 52
2, 123644, Control_c, 0, 64, 127
2, 123833, Control_c, 0, 64, 0
2, 123863, Note_on_c, 0, 52, 58
2, 123865, Note_on_c, 0, 45, 68
2, 123891, Note_on_c, 0, 52, 0
2, 123939, Note_on_c, 0, 45, 0
2, 123976, Note_on_c, 0, 55, 0
2, 123982, Control_c, 0, 64, 127
2, 124069, Note_on_c, 0, 61, 0
2, 124112, Note_on_c, 0, 58, 0
2, 124175, Note_on_c, 0, 64, 0
2, 124195, Control_c, 0, 64, 0
2, 124212, Note_on_c, 0, 38, 54
2, 124220, Note_on_c, 0, 26, 46
2, 124229, Note_on_c, 0, 28, 48
2, 124334, Control_c, 0, 64, 127
2, 124339, Note_on_c, 0, 28, 0
2, 124554, Note_on_c, 0, 38, 0
2, 124635, Note_on_c, 0, 38, 32
2, 124704, Control_c, 0, 64, 0
2, 124736, Note_on_c, 0, 62, 90
2, 124762, Note_on_c, 0, 26, 0
2, 124816, Note_on_c, 0, 38, 0
2, 125000, Note_on_c, 0, 62, 0
2, 125007, Note_on_c, 0, 61, 42
2, 125091, Note_on_c, 0, 61, 0
2, 125135, Note_on_c, 0, 62, 38
2, 125388, Note_on_c, 0, 62, 0
2, 125504, Note_on_c, 0, 62, 74
2, 125761, Note_on_c, 0, 62, 0
2, 125763, Note_on_c, 0, 61, 39
2, 125838, Note_on_c, 0, 61, 0
2, 125866, Note_on_c, 0, 62, 36
2, 126173, Note_on_c, 0, 62, 0
2, 126249, Note_on_c, 0, 63, 62
2, 126508, Note_on_c, 0, 63, 0
2, 126539, Note_on_c, 0, 62, 36
2, 126547, Note_on_c, 0, 58, 26
2, 126593, Note_on_c, 0, 58, 0
2, 126640, Note_on_c, 0, 62, 0
2, 126647, Note_on_c, 0, 63, 59
2, 126875, Note_on_c, 0, 63, 0
2, 126911, Note_on_c, 0, 62, 51
2, 126916, Note_on_c, 0, 65, 51
2, 126941, Note_on_c, 0, 58, 29
2, 126944, Note_on_c, 0, 62, 0
2, 127002, Note_on_c, 0, 65, 0
2, 127046, Note_on_c, 0, 67, 37
2, 127062, Note_on_c, 0, 58, 0
2, 127231, Note_on_c, 0, 67, 0
2, 127295, Note_on_c, 0, 70, 59
2, 127620, Note_on_c, 0, 70, 0
2, 127653, Note_on_c, 0, 72, 54
2, 127671, Note_on_c, 0, 65, 51
2, 127693, Note_on_c, 0, 58, 25
2, 127695, Note_on_c, 0, 60, 34
2, 127702, Note_on_c, 0, 65, 0
2, 127734, Note_on_c, 0, 72, 0
2, 127738, Note_on_c, 0, 60, 0
2, 127764, Note_on_c, 0, 74, 48
2, 127811, Note_on_c, 0, 58, 0
2, 127840, Note_on_c, 0, 74, 0
2, 127902, Note_on_c, 0, 77, 55
2, 128001, Note_on_c, 0, 79, 53
2, 128007, Note_on_c, 0, 77, 0
2, 128114, Note_on_c, 0, 79, 0
2, 128120, Note_on_c, 0, 82, 59
2, 128219, Note_on_c, 0, 82, 0
2, 128225, Note_on_c, 0, 86, 76
2, 128350, Note_on_c, 0, 62, 25
2, 128351, Note_on_c, 0, 86, 0
2, 128351, Note_on_c, 0, 82, 55
2, 128379, Note_on_c, 0, 62, 0
2, 128430, Note_on_c, 0, 82, 0
2, 128969, Note_on_c, 0, 65, 56
2, 128981, Note_on_c, 0, 62, 50
2, 128983, Note_on_c, 0, 60, 37
2, 129007, Note_on_c, 0, 55, 31
2, 129009, Note_on_c, 0, 58, 25
2, 129043, Note_on_c, 0, 65, 0
2, 129067, Note_on_c, 0, 60, 0
2, 129072, Note_on_c, 0, 62, 0
2, 129075, Note_on_c, 0, 55, 0
2, 129121, Note_on_c, 0, 58, 0
2, 129343, Note_on_c, 0, 62, 43
2, 129346, Note_on_c, 0, 65, 56
2, 129356, Note_on_c, 0, 60, 38
2, 129383, Note_on_c, 0, 65, 0
2, 129390, Note_on_c, 0, 60, 0
2, 129398, Note_on_c, 0, 62, 0
2, 129739, Note_on_c, 0, 62, 47
2, 129749, Note_on_c, 0, 58, 37
2, 129759, Note_on_c, 0, 51, 27
2, 129771, Note_on_c, 0, 55, 37
2, 130006, Note_on_c, 0, 85, 67
2, 130006, Note_on_c, 0, 73, 68
2, 130037, Note_on_c, 0, 51, 0
2, 130038, Note_on_c, 0, 62, 0
2, 130140, Note_on_c, 0, 85, 0
2, 130145, Note_on_c, 0, 73, 0
2, 130146, Note_on_c, 0, 58, 0
2, 130150, Note_on_c, 0, 74, 58
2, 130187, Note_on_c, 0, 55, 0
2, 130222, Note_on_c, 0, 74, 0
2, 130247, Note_on_c, 0, 86, 24
2, 130261, Note_on_c, 0, 82, 40
2, 130294, Note_on_c, 0, 86, 0
2, 130363, Note_on_c, 0, 74, 58
2, 130378, Note_on_c, 0, 82, 0
2, 130378, Note_on_c, 0, 86, 31
2, 130426, Note_on_c, 0, 86, 0
2, 130434, Note_on_c, 0, 74, 0
2, 130463, Note_on_c, 0, 62, 36
2, 130473, Note_on_c, 0, 58, 29
2, 130489, Note_on_c, 0, 55, 37
2, 130495, Note_on_c, 0, 62, 0
2, 130530, Note_on_c, 0, 70, 54
2, 130530, Note_on_c, 0, 82, 27
2, 130570, Note_on_c, 0, 58, 0
2, 130688, Note_on_c, 0, 82, 0
2, 130707, Note_on_c, 0, 70, 0
2, 130741, Note_on_c, 0, 55, 0
2, 130811, Note_on_c, 0, 79, 24
2, 130827, Note_on_c, 0, 78, 19
2, 130849, Note_on_c, 0, 79, 0
2, 130863, Note_on_c, 0, 78, 0
2, 131178, Note_on_c, 0, 62, 43
2, 131180, Note_on_c, 0, 58, 35
2, 131192, Note_on_c, 0, 55, 37
2, 131212, Note_on_c, 0, 62, 0
2, 131233, Note_on_c, 0, 55, 0
2, 131263, Note_on_c, 0, 58, 0
2, 131541, Note_on_c, 0, 51, 45
2, 131551, Note_on_c, 0, 58, 46
2, 131611, Note_on_c, 0, 51, 0
2, 131636, Note_on_c, 0, 58, 0
2, 131672, Control_c, 0, 64, 127
2, 131835, Control_c, 0, 64, 0
2, 131933, Note_on_c, 0, 54, 42
2, 131938, Note_on_c, 0, 64, 56
2, 131944, Note_on_c, 0, 59, 53
2, 132424, Note_on_c, 0, 86, 94
2, 132543, Note_on_c, 0, 86, 0
2, 132678, Note_on_c, 0, 82, 75
2, 132796, Note_on_c, 0, 82, 0
2, 132882, Note_on_c, 0, 83, 62
2, 132971, Note_on_c, 0, 83, 0
2, 133086, Note_on_c, 0, 78, 54
2, 133161, Note_on_c, 0, 78, 0
2, 133262, Note_on_c, 0, 76, 39
2, 133419, Note_on_c, 0, 76, 0
2, 133468, Note_on_c, 0, 71, 54
2, 133540, Note_on_c, 0, 71, 0
2, 133616, Note_on_c, 0, 66, 37
2, 133654, Note_on_c, 0, 64, 0
2, 133779, Note_on_c, 0, 66, 0
2, 133842, Note_on_c, 0, 66, 57
2, 133956, Note_on_c, 0, 66, 0
2, 133956, Note_on_c, 0, 64, 38
2, 133958, Note_on_c, 0, 59, 0
2, 134127, Note_on_c, 0, 64, 0
2, 134228, Note_on_c, 0, 64, 36
2, 134256, Note_on_c, 0, 59, 22
2, 134303, Note_on_c, 0, 64, 0
2, 134352, Note_on_c, 0, 66, 63
2, 134413, Note_on_c, 0, 59, 0
2, 134466, Note_on_c, 0, 54, 0
2, 134614, Note_on_c, 0, 59, 41
2, 134651, Note_on_c, 0, 54, 23
2, 134666, Note_on_c, 0, 59, 0
2, 134714, Note_on_c, 0, 66, 0
2, 134731, Note_on_c, 0, 54, 0
2, 134739, Note_on_c, 0, 62, 51
2, 134784, Control_c, 0, 64, 127
2, 134908, Note_on_c, 0, 62, 0
2, 134996, Note_on_c, 0, 66, 45
2, 135075, Note_on_c, 0, 66, 0
2, 135088, Control_c, 0, 64, 0
2, 135123, Note_on_c, 0, 62, 63
2, 135126, Note_on_c, 0, 67, 56
2, 135129, Note_on_c, 0, 59, 52
2, 135134, Note_on_c, 0, 55, 57
2, 135285, Control_c, 0, 64, 127
2, 135336, Note_on_c, 0, 67, 0
2, 135356, Note_on_c, 0, 59, 0
2, 135357, Note_on_c, 0, 55, 0
2, 135367, Control_c, 0, 64, 0
2, 135368, Note_on_c, 0, 62, 0
2, 135387, Note_on_c, 0, 54, 32
2, 135492, Note_on_c, 0, 54, 0
2, 135498, Note_on_c, 0, 55, 54
2, 135508, Note_on_c, 0, 59, 44
2, 135508, Note_on_c, 0, 67, 31
2, 135509, Note_on_c, 0, 62, 42
2, 135532, Control_c, 0, 64, 127
2, 135541, Note_on_c, 0, 67, 0
2, 135556, Note_on_c, 0, 62, 0
2, 135595, Note_on_c, 0, 59, 0
2, 135603, Note_on_c, 0, 55, 0
2, 135783, Note_on_c, 0, 71, 59
2, 135784, Note_on_c, 0, 61, 69
2, 135786, Note_on_c, 0, 59, 63
2, 135790, Note_on_c, 0, 64, 73
2, 135803, Note_on_c, 0, 67, 50
2, 135813, Control_c, 0, 64, 0
2, 135999, Control_c, 0, 64, 127
2, 136126, Note_on_c, 0, 61, 0
2, 136128, Note_on_c, 0, 71, 0
2, 136129, Note_on_c, 0, 67, 0
2, 136133, Note_on_c, 0, 59, 0
2, 136139, Note_on_c, 0, 64, 0
2, 136164, Control_c, 0, 64, 0
2, 136168, Note_on_c, 0, 56, 21
2, 136278, Note_on_c, 0, 59, 54
2, 136281, Note_on_c, 0, 61, 47
2, 136283, Note_on_c, 0, 64, 61
2, 136298, Note_on_c, 0, 56, 0
2, 136298, Control_c, 0, 64, 127
2, 136299, Note_on_c, 0, 71, 41
2, 136318, Note_on_c, 0, 67, 26
2, 136341, Note_on_c, 0, 61, 0
2, 136351, Note_on_c, 0, 67, 0
2, 136356, Note_on_c, 0, 64, 0
2, 136381, Note_on_c, 0, 59, 0
2, 136383, Note_on_c, 0, 71, 0
2, 136549, Note_on_c, 0, 76, 73
2, 136555, Note_on_c, 0, 65, 78
2, 136561, Note_on_c, 0, 64, 77
2, 136561, Note_on_c, 0, 69, 69
2, 136565, Note_on_c, 0, 72, 61
2, 136567, Control_c, 0, 64, 0
2, 136697, Control_c, 0, 64, 127
2, 136887, Note_on_c, 0, 65, 0
2, 136907, Note_on_c, 0, 69, 0
2, 136912, Note_on_c, 0, 64, 0
2, 136913, Note_on_c, 0, 72, 0
2, 136917, Note_on_c, 0, 76, 0
2, 136928, Note_on_c, 0, 63, 38
2, 136969, Control_c, 0, 64, 0
2, 137041, Note_on_c, 0, 69, 57
2, 137043, Control_c, 0, 64, 127
2, 137051, Note_on_c, 0, 63, 0
2, 137056, Note_on_c, 0, 76, 45
2, 137059, Note_on_c, 0, 65, 48
2, 137059, Note_on_c, 0, 64, 61
2, 137064, Note_on_c, 0, 72, 39
2, 137097, Note_on_c, 0, 65, 0
2, 137128, Note_on_c, 0, 72, 0
2, 137135, Note_on_c, 0, 69, 0
2, 137197, Note_on_c, 0, 76, 0
2, 137202, Note_on_c, 0, 64, 0
2, 137316, Control_c, 0, 64, 0
2, 137316, Note_on_c, 0, 79, 70
2, 137317, Note_on_c, 0, 64, 57
2, 137317, Note_on_c, 0, 75, 67
2, 137319, Note_on_c, 0, 59, 51
2, 137320, Note_on_c, 0, 67, 64
2, 137328, Note_on_c, 0, 53, 50
2, 137407, Note_on_c, 0, 75, 0
2, 137413, Note_on_c, 0, 76, 37
2, 137440, Control_c, 0, 64, 127
2, 137598, Note_on_c, 0, 53, 0
2, 137602, Note_on_c, 0, 59, 0
2, 137620, Note_on_c, 0, 67, 0
2, 137668, Note_on_c, 0, 79, 0
2, 137692, Note_on_c, 0, 64, 0
2, 137697, Note_on_c, 0, 59, 40
2, 137702, Note_on_c, 0, 76, 0
2, 137754, Control_c, 0, 64, 0
2, 137821, Note_on_c, 0, 53, 33
2, 137822, Note_on_c, 0, 64, 53
2, 137824, Note_on_c, 0, 80, 64
2, 137830, Note_on_c, 0, 68, 69
2, 137845, Note_on_c, 0, 75, 51
2, 137858, Control_c, 0, 64, 127
2, 137926, Note_on_c, 0, 64, 0
2, 137934, Note_on_c, 0, 59, 0
2, 137937, Note_on_c, 0, 53, 0
2, 138007, Note_on_c, 0, 68, 0
2, 138011, Note_on_c, 0, 75, 0
2, 138020, Note_on_c, 0, 80, 0
2, 138084, Note_on_c, 0, 81, 64
2, 138088, Control_c, 0, 64, 0
2, 138089, Note_on_c, 0, 64, 61
2, 138093, Note_on_c, 0, 69, 58
2, 138097, Note_on_c, 0, 57, 57
2, 138098, Note_on_c, 0, 76, 60
2, 138099, Note_on_c, 0, 60, 49
2, 138101, Note_on_c, 0, 53, 40
2, 138115, Note_on_c, 0, 71, 40
2, 138146, Note_on_c, 0, 69, 0
2, 138147, Note_on_c, 0, 71, 0
2, 138178, Note_on_c, 0, 76, 0
2, 138186, Note_on_c, 0, 81, 0
2, 138188, Note_on_c, 0, 64, 0
2, 138188, Note_on_c, 0, 53, 0
2, 138206, Note_on_c, 0, 60, 0
2, 138213, Note_on_c, 0, 57, 0
2, 138229, Control_c, 0, 64, 127
2, 138289, Note_on_c, 0, 84, 71
2, 138293, Note_on_c, 0, 64, 52
2, 138296, Note_on_c, 0, 57, 49
2, 138296, Note_on_c, 0, 79, 61
2, 138296, Note_on_c, 0, 72, 63
2, 138296, Note_on_c, 0, 53, 44
2, 138298, Note_on_c, 0, 60, 51
2, 138396, Note_on_c, 0, 72, 0
2, 138439, Note_on_c, 0, 79, 0
2, 138440, Note_on_c, 0, 64, 0
2, 138449, Note_on_c, 0, 53, 0
2, 138454, Note_on_c, 0, 84, 0
2, 138463, Note_on_c, 0, 57, 0
2, 138469, Note_on_c, 0, 60, 0
2, 138520, Control_c, 0, 64, 0
2, 138586, Note_on_c, 0, 53, 53
2, 138591, Note_on_c, 0, 76, 63
2, 138592, Note_on_c, 0, 64, 57
2, 138593, Note_on_c, 0, 60, 49
2, 138594, Note_on_c, 0, 88, 65
2, 138597, Note_on_c, 0, 83, 60
2, 138601, Note_on_c, 0, 57, 60
2, 138629, Control_c, 0, 64, 127
2, 138670, Note_on_c, 0, 64, 0
2, 138674, Note_on_c, 0, 60, 0
2, 138677, Note_on_c, 0, 76, 0
2, 138692, Note_on_c, 0, 83, 0
2, 138714, Note_on_c, 0, 53, 0
2, 138719, Note_on_c, 0, 88, 0
2, 138725, Note_on_c, 0, 57, 0
2, 138859, Note_on_c, 0, 93, 82
2, 138867, Note_on_c, 0, 87, 78
2, 138868, Note_on_c, 0, 81, 73
2, 138870, Note_on_c, 0, 59, 71
2, 138873, Note_on_c, 0, 53, 77
2, 138876, Note_on_c, 0, 64, 80
2, 138883, Control_c, 0, 64, 0
2, 138979, Note_on_c, 0, 87, 0
2, 138995, Note_on_c, 0, 88, 46
2, 139002, Note_on_c, 0, 64, 0
2, 139003, Note_on_c, 0, 53, 0
2, 139006, Note_on_c, 0, 90, 30
2, 139010, Note_on_c, 0, 81, 0
2, 139014, Control_c, 0, 64, 127
2, 139016, Note_on_c, 0, 93, 0
2, 139029, Note_on_c, 0, 88, 0
2, 139035, Note_on_c, 0, 90, 0
2, 139049, Note_on_c, 0, 59, 0
2, 139127, Note_on_c, 0, 92, 71
2, 139135, Note_on_c, 0, 87, 68
2, 139135, Note_on_c, 0, 59, 44
2, 139136, Note_on_c, 0, 80, 51
2, 139138, Note_on_c, 0, 53, 62
2, 139145, Note_on_c, 0, 64, 64
2, 139235, Note_on_c, 0, 64, 0
2, 139263, Note_on_c, 0, 53, 0
2, 139292, Note_on_c, 0, 92, 0
2, 139293, Note_on_c, 0, 87, 0
2, 139296, Control_c, 0, 64, 0
2, 139299, Note_on_c, 0, 80, 0
2, 139301, Note_on_c, 0, 59, 0
2, 139367, Note_on_c, 0, 53, 55
2, 139384, Note_on_c, 0, 59, 59
2, 139385, Note_on_c, 0, 64, 61
2, 139393, Control_c, 0, 64, 127
2, 139394, Note_on_c, 0, 91, 50
2, 139394, Note_on_c, 0, 86, 63
2, 139401, Note_on_c, 0, 79, 52
2, 139406, Note_on_c, 0, 90, 30
2, 139434, Note_on_c, 0, 90, 0
2, 139471, Note_on_c, 0, 86, 0
2, 139474, Note_on_c, 0, 91, 0
2, 139486, Note_on_c, 0, 64, 0
2, 139498, Note_on_c, 0, 53, 0
2, 139514, Note_on_c, 0, 79, 0
2, 139520, Note_on_c, 0, 59, 0
2, 139638, Note_on_c, 0, 88, 69
2, 139640, Note_on_c, 0, 62, 63
2, 139650, Note_on_c, 0, 76, 58
2, 139651, Note_on_c, 0, 83, 60
2, 139659, Note_on_c, 0, 52, 31
2, 139662, Note_on_c, 0, 59, 41
2, 139664, Control_c, 0, 64, 0
2, 139668, Note_on_c, 0, 55, 46
2, 139714, Note_on_c, 0, 83, 0
2, 139725, Note_on_c, 0, 76, 0
2, 139729, Note_on_c, 0, 88, 0
2, 139743, Note_on_c, 0, 62, 0
2, 139744, Note_on_c, 0, 59, 0
2, 139753, Note_on_c, 0, 52, 0
2, 139757, Note_on_c, 0, 55, 0
2, 139781, Control_c, 0, 64, 127
2, 139888, Note_on_c, 0, 83, 49
2, 139896, Note_on_c, 0, 62, 43
2, 139904, Note_on_c, 0, 71, 43
2, 139920, Note_on_c, 0, 52, 22
2, 139921, Note_on_c, 0, 76, 43
2, 139924, Note_on_c, 0, 59, 27
2, 139936, Note_on_c, 0, 55, 25
2, 139987, Note_on_c, 0, 62, 0
2, 139996, Note_on_c, 0, 55, 0
2, 140009, Note_on_c, 0, 59, 0
2, 140012, Note_on_c, 0, 71, 0
2, 140028, Note_on_c, 0, 76, 0
2, 140030, Note_on_c, 0, 83, 0
2, 140076, Control_c, 0, 64, 0
2, 140139, Note_on_c, 0, 62, 46
2, 140143, Note_on_c, 0, 79, 32
2, 140143, Note_on_c, 0, 59, 35
2, 140157, Control_c, 0, 64, 127
2, 140173, Note_on_c, 0, 67, 18
2, 140195, Note_on_c, 0, 52, 0
2, 140223, Note_on_c, 0, 59, 0
2, 140241, Note_on_c, 0, 67, 0
2, 140241, Note_on_c, 0, 79, 0
2, 140257, Note_on_c, 0, 62, 0
2, 140386, Control_c, 0, 64, 0
2, 140393, Note_on_c, 0, 81, 66
2, 140400, Note_on_c, 0, 64, 39
2, 140405, Note_on_c, 0, 69, 40
2, 140418, Note_on_c, 0, 60, 43
2, 140418, Note_on_c, 0, 57, 53
2, 140426, Note_on_c, 0, 53, 17
2, 140551, Control_c, 0, 64, 127
2, 140715, Control_c, 0, 64, 0
2, 140790, Control_c, 0, 64, 127
2, 140857, Note_on_c, 0, 53, 0
2, 140859, Note_on_c, 0, 57, 0
2, 140866, Note_on_c, 0, 60, 0
2, 140961, Note_on_c, 0, 64, 0
2, 141060, Note_on_c, 0, 69, 0
2, 141113, Note_on_c, 0, 81, 0
2, 141249, Control_c, 0, 64, 0
2, 141262, Note_on_c, 0, 57, 36
2, 141266, Note_on_c, 0, 65, 30
2, 141269, Note_on_c, 0, 62, 30
2, 141272, Note_on_c, 0, 74, 64
2, 141324, Note_on_c, 0, 76, 62
2, 141334, Note_on_c, 0, 74, 0
2, 141409, Note_on_c, 0, 74, 40
2, 141442, Note_on_c, 0, 76, 0
2, 141510, Note_on_c, 0, 74, 0
2, 141542, Note_on_c, 0, 73, 25
2, 141580, Note_on_c, 0, 73, 0
2, 141680, Note_on_c, 0, 74, 81
2, 141729, Note_on_c, 0, 65, 0
2, 141772, Note_on_c, 0, 74, 0
2, 141776, Note_on_c, 0, 62, 0
2, 141790, Note_on_c, 0, 57, 0
2, 141919, Note_on_c, 0, 77, 78
2, 141932, Note_on_c, 0, 67, 60
2, 141932, Note_on_c, 0, 62, 64
2, 141932, Note_on_c, 0, 56, 55
2, 142037, Note_on_c, 0, 77, 0
2, 142122, Note_on_c, 0, 76, 53
2, 142224, Note_on_c, 0, 76, 0
2, 142302, Note_on_c, 0, 67, 0
2, 142319, Note_on_c, 0, 74, 68
2, 142422, Note_on_c, 0, 74, 0
2, 142475, Note_on_c, 0, 72, 30
2, 142500, Control_c, 0, 64, 127
2, 142509, Note_on_c, 0, 62, 0
2, 142598, Note_on_c, 0, 72, 0
2, 142674, Note_on_c, 0, 56, 0
2, 142677, Note_on_c, 0, 71, 60
2, 142779, Control_c, 0, 64, 0
2, 142785, Note_on_c, 0, 71, 0
2, 142807, Note_on_c, 0, 64, 24
2, 142811, Note_on_c, 0, 57, 32
2, 142818, Note_on_c, 0, 60, 35
2, 142841, Note_on_c, 0, 68, 40
2, 143010, Note_on_c, 0, 68, 0
2, 143074, Note_on_c, 0, 71, 55
2, 143180, Note_on_c, 0, 71, 0
2, 143182, Note_on_c, 0, 64, 0
2, 143226, Note_on_c, 0, 69, 55
2, 143254, Note_on_c, 0, 60, 0
2, 143270, Note_on_c, 0, 57, 0
2, 143305, Control_c, 0, 64, 127
2, 143393, Note_on_c, 0, 69, 0
2, 143439, Note_on_c, 0, 64, 62
2, 143464, Note_on_c, 0, 55, 55
2, 143519, Control_c, 0, 64, 0
2, 143531, Note_on_c, 0, 55, 0
2, 143535, Note_on_c, 0, 64, 0
2, 143666, Note_on_c, 0, 62, 8
2, 143675, Control_c, 0, 64, 127
2, 143858, Note_on_c, 0, 62, 0
2, 143874, Control_c, 0, 64, 0
2, 143955, Note_on_c, 0, 61, 49
2, 144011, Control_c, 0, 64, 127
2, 144255, Note_on_c, 0, 61, 0
2, 144299, Control_c, 0, 64, 0
2, 144316, Note_on_c, 0, 62, 55
2, 144331, Note_on_c, 0, 55, 36
2, 144480, Control_c, 0, 64, 127
2, 144493, Note_on_c, 0, 55, 0
2, 144517, Note_on_c, 0, 62, 0
2, 144592, Note_on_c, 0, 55, 64
2, 144617, Note_on_c, 0, 43, 46
2, 144619, Control_c, 0, 64, 0
2, 144778, Control_c, 0, 64, 127
2, 144998, Note_on_c, 0, 50, 34
2, 145021, Note_on_c, 0, 55, 0
2, 145055, Control_c, 0, 64, 0
2, 145088, Note_on_c, 0, 50, 0
2, 145101, Note_on_c, 0, 55, 48
2, 145170, Control_c, 0, 64, 127
2, 145243, Note_on_c, 0, 43, 0
2, 145400, Note_on_c, 0, 55, 0
2, 145449, Control_c, 0, 64, 0
2, 145471, Note_on_c, 0, 43, 31
2, 145488, Note_on_c, 0, 57, 50
2, 145589, Control_c, 0, 64, 127
2, 145762, Note_on_c, 0, 55, 45
2, 145762, Control_c, 0, 64, 0
2, 145782, Note_on_c, 0, 43, 0
2, 145792, Note_on_c, 0, 55, 0
2, 145885, Control_c, 0, 64, 127
2, 146063, Note_on_c, 0, 57, 0
2, 146103, Note_on_c, 0, 58, 67
2, 146164, Control_c, 0, 64, 0
2, 146167, Note_on_c, 0, 43, 22
2, 146192, Note_on_c, 0, 43, 0
2, 146280, Control_c, 0, 64, 127
2, 146339, Note_on_c, 0, 58, 0
2, 146390, Note_on_c, 0, 60, 57
2, 146492, Note_on_c, 0, 60, 0
2, 146526, Note_on_c, 0, 63, 51
2, 146599, Control_c, 0, 64, 0
2, 146610, Note_on_c, 0, 63, 0
2, 146663, Note_on_c, 0, 65, 40
2, 146739, Note_on_c, 0, 65, 0
2, 146785, Note_on_c, 0, 67, 55
2, 146837, Control_c, 0, 64, 127
2, 146906, Note_on_c, 0, 67, 0
2, 146910, Note_on_c, 0, 70, 61
2, 146940, Note_on_c, 0, 65, 34
2, 146947, Note_on_c, 0, 56, 32
2, 146948, Note_on_c, 0, 61, 36
2, 146957, Note_on_c, 0, 55, 24
2, 146962, Note_on_c, 0, 70, 0
2, 146969, Control_c, 0, 64, 0
2, 147057, Note_on_c, 0, 72, 32
2, 147095, Note_on_c, 0, 72, 0
2, 147145, Note_on_c, 0, 73, 30
2, 147177, Note_on_c, 0, 65, 0
2, 147220, Note_on_c, 0, 55, 0
2, 147228, Note_on_c, 0, 61, 0
2, 147240, Note_on_c, 0, 73, 0
2, 147273, Note_on_c, 0, 75, 43
2, 147281, Note_on_c, 0, 56, 0
2, 147299, Control_c, 0, 64, 127
2, 147340, Note_on_c, 0, 75, 0
2, 147395, Note_on_c, 0, 79, 77
2, 147421, Control_c, 0, 64, 0
2, 147533, Note_on_c, 0, 77, 55
2, 147559, Note_on_c, 0, 79, 0
2, 147645, Note_on_c, 0, 77, 0
2, 148037, Control_c, 0, 64, 127
2, 148062, Note_on_c, 0, 64, 65
2, 148071, Control_c, 0, 64, 0
2, 148071, Note_on_c, 0, 59, 47
2, 148099, Note_on_c, 0, 64, 0
2, 148119, Note_on_c, 0, 59, 0
2, 148299, Note_on_c, 0, 73, 50
2, 148314, Note_on_c, 0, 74, 77
2, 148387, Note_on_c, 0, 73, 0
2, 148398, Control_c, 0, 64, 127
2, 148436, Note_on_c, 0, 74, 0
2, 148505, Control_c, 0, 64, 0
2, 148592, Note_on_c, 0, 71, 65
2, 148674, Note_on_c, 0, 71, 0
2, 148736, Control_c, 0, 64, 127
2, 148851, Note_on_c, 0, 74, 75
2, 148861, Control_c, 0, 64, 0
2, 148922, Note_on_c, 0, 74, 0
2, 149100, Note_on_c, 0, 72, 62
2, 149108, Note_on_c, 0, 67, 49
2, 149113, Control_c, 0, 64, 127
2, 149119, Note_on_c, 0, 64, 48
2, 149120, Note_on_c, 0, 62, 39
2, 149132, Note_on_c, 0, 57, 40
2, 149162, Note_on_c, 0, 62, 0
2, 149178, Note_on_c, 0, 67, 0
2, 149185, Note_on_c, 0, 72, 0
2, 149187, Note_on_c, 0, 64, 0
2, 149190, Note_on_c, 0, 57, 0
2, 149262, Control_c, 0, 64, 0
2, 149341, Note_on_c, 0, 71, 64
2, 149356, Note_on_c, 0, 62, 58
2, 149366, Note_on_c, 0, 55, 50
2, 149374, Note_on_c, 0, 64, 46
2, 149403, Control_c, 0, 64, 127
2, 149416, Note_on_c, 0, 64, 0
2, 149423, Note_on_c, 0, 55, 0
2, 149431, Note_on_c, 0, 62, 0
2, 149434, Note_on_c, 0, 71, 0
2, 149631, Control_c, 0, 64, 0
2, 149834, Note_on_c, 0, 69, 69
2, 149845, Note_on_c, 0, 60, 65
2, 149847, Note_on_c, 0, 64, 68
2, 149852, Control_c, 0, 64, 127
2, 149871, Note_on_c, 0, 53, 38
2, 149901, Note_on_c, 0, 53, 0
2, 149908, Note_on_c, 0, 60, 0
2, 149918, Note_on_c, 0, 69, 0
2, 149920, Note_on_c, 0, 64, 0
2, 150042, Control_c, 0, 64, 0
2, 150109, Note_on_c, 0, 68, 71
2, 150121, Note_on_c, 0, 63, 60
2, 150122, Note_on_c, 0, 60, 66
2, 150129, Note_on_c, 0, 52, 53
2, 150155, Note_on_c, 0, 60, 0
2, 150167, Note_on_c, 0, 52, 0
2, 150173, Note_on_c, 0, 68, 0
2, 150196, Note_on_c, 0, 63, 0
2, 150321, Control_c, 0, 64, 127
2, 150347, Note_on_c, 0, 66, 63
2, 150355, Note_on_c, 0, 58, 64
2, 150368, Note_on_c, 0, 51, 63
2, 150452, Control_c, 0, 64, 0
2, 150457, Note_on_c, 0, 58, 0
2, 150485, Note_on_c, 0, 51, 0
2, 150504, Note_on_c, 0, 66, 0
2, 150527, Note_on_c, 0, 65, 48
2, 150533, Note_on_c, 0, 50, 40
2, 150539, Note_on_c, 0, 57, 46
2, 150641, Control_c, 0, 64, 127
2, 150660, Note_on_c, 0, 65, 0
2, 150720, Note_on_c, 0, 57, 0
2, 150783, Note_on_c, 0, 50, 0
2, 150797, Control_c, 0, 64, 0
2, 150870, Note_on_c, 0, 60, 53
2, 150879, Note_on_c, 0, 45, 46
2, 150894, Note_on_c, 0, 53, 28
2, 150908, Note_on_c, 0, 57, 32
2, 150930, Note_on_c, 0, 45, 0
2, 151003, Control_c, 0, 64, 127
2, 151011, Note_on_c, 0, 57, 0
2, 151021, Note_on_c, 0, 53, 0
2, 151052, Note_on_c, 0, 60, 0
2, 151143, Control_c, 0, 64, 0
2, 151242, Note_on_c, 0, 56, 38
2, 151244, Note_on_c, 0, 43, 40
2, 151261, Note_on_c, 0, 59, 33
2, 151269, Note_on_c, 0, 52, 31
2, 151275, Note_on_c, 0, 64, 24
2, 151287, Note_on_c, 0, 43, 0
2, 151290, Control_c, 0, 64, 127
2, 151297, Note_on_c, 0, 59, 0
2, 151308, Note_on_c, 0, 56, 0
2, 151315, Note_on_c, 0, 52, 0
2, 151328, Note_on_c, 0, 64, 0
2, 151509, Note_on_c, 0, 70, 74
2, 151525, Note_on_c, 0, 58, 62
2, 151528, Note_on_c, 0, 59, 38
2, 151528, Note_on_c, 0, 63, 57
2, 151554, Note_on_c, 0, 60, 30
2, 151564, Note_on_c, 0, 58, 0
2, 151580, Note_on_c, 0, 60, 0
2, 151596, Control_c, 0, 64, 0
2, 151607, Note_on_c, 0, 70, 0
2, 151608, Note_on_c, 0, 59, 0
2, 151619, Note_on_c, 0, 63, 0
2, 151660, Note_on_c, 0, 54, 46
2, 151675, Note_on_c, 0, 68, 44
2, 151697, Note_on_c, 0, 59, 31
2, 151698, Note_on_c, 0, 63, 28
2, 151754, Control_c, 0, 64, 127
2, 151774, Note_on_c, 0, 54, 0
2, 151807, Note_on_c, 0, 59, 0
2, 151817, Note_on_c, 0, 68, 0
2, 151869, Note_on_c, 0, 63, 0
2, 151949, Control_c, 0, 64, 0
2, 152025, Note_on_c, 0, 52, 34
2, 152033, Note_on_c, 0, 67, 49
2, 152040, Note_on_c, 0, 57, 44
2, 152043, Note_on_c, 0, 62, 45
2, 152098, Control_c, 0, 64, 127
2, 152108, Note_on_c, 0, 67, 0
2, 152109, Note_on_c, 0, 57, 0
2, 152149, Note_on_c, 0, 62, 0
2, 152239, Note_on_c, 0, 52, 0
2, 152272, Note_on_c, 0, 56, 47
2, 152275, Note_on_c, 0, 66, 38
2, 152287, Note_on_c, 0, 51, 37
2, 152303, Note_on_c, 0, 61, 28
2, 152324, Note_on_c, 0, 66, 0
2, 152335, Control_c, 0, 64, 0
2, 152336, Note_on_c, 0, 61, 0
2, 152344, Note_on_c, 0, 56, 0
2, 152382, Note_on_c, 0, 51, 0
2, 152403, Note_on_c, 0, 52, 46
2, 152417, Note_on_c, 0, 67, 55
2, 152442, Note_on_c, 0, 52, 0
2, 152459, Control_c, 0, 64, 127
2, 152464, Note_on_c, 0, 67, 0
2, 152657, Note_on_c, 0, 74, 79
2, 152669, Note_on_c, 0, 67, 74
2, 152670, Note_on_c, 0, 59, 80
2, 152672, Note_on_c, 0, 64, 82
2, 152680, Control_c, 0, 64, 0
2, 152829, Control_c, 0, 64, 127
2, 152950, Note_on_c, 0, 74, 0
2, 152972, Note_on_c, 0, 64, 0
2, 152973, Note_on_c, 0, 67, 0
2, 153039, Note_on_c, 0, 64, 68
2, 153040, Note_on_c, 0, 72, 65
2, 153040, Note_on_c, 0, 67, 62
2, 153058, Control_c, 0, 64, 0
2, 153060, Note_on_c, 0, 57, 69
2, 153091, Note_on_c, 0, 59, 0
2, 153173, Control_c, 0, 64, 127
2, 153181, Note_on_c, 0, 64, 0
2, 153227, Note_on_c, 0, 67, 0
2, 153233, Note_on_c, 0, 72, 0
2, 153240, Note_on_c, 0, 57, 0
2, 153409, Note_on_c, 0, 76, 76
2, 153416, Note_on_c, 0, 69, 76
2, 153419, Note_on_c, 0, 71, 61
2, 153422, Note_on_c, 0, 65, 77
2, 153423, Note_on_c, 0, 64, 78
2, 153444, Control_c, 0, 64, 0
2, 153593, Control_c, 0, 64, 127
2, 153752, Note_on_c, 0, 65, 0
2, 153752, Note_on_c, 0, 76, 0
2, 153761, Note_on_c, 0, 69, 0
2, 153809, Note_on_c, 0, 64, 0
2, 153812, Note_on_c, 0, 62, 47
2, 153819, Note_on_c, 0, 71, 0
2, 153856, Control_c, 0, 64, 0
2, 153918, Note_on_c, 0, 71, 51
2, 153924, Note_on_c, 0, 76, 54
2, 153930, Note_on_c, 0, 69, 60
2, 153936, Note_on_c, 0, 65, 54
2, 153937, Note_on_c, 0, 64, 58
2, 153956, Note_on_c, 0, 62, 0
2, 153962, Control_c, 0, 64, 127
2, 154029, Note_on_c, 0, 69, 0
2, 154077, Note_on_c, 0, 65, 0
2, 154088, Note_on_c, 0, 71, 0
2, 154097, Note_on_c, 0, 76, 0
2, 154161, Note_on_c, 0, 64, 0
2, 154200, Control_c, 0, 64, 0
2, 154209, Note_on_c, 0, 71, 55
2, 154209, Note_on_c, 0, 68, 51
2, 154214, Note_on_c, 0, 65, 61
2, 154222, Note_on_c, 0, 56, 37
2, 154232, Note_on_c, 0, 62, 36
2, 154334, Control_c, 0, 64, 127
2, 154418, Note_on_c, 0, 62, 0
2, 154483, Note_on_c, 0, 65, 0
2, 154495, Note_on_c, 0, 71, 0
2, 154514, Note_on_c, 0, 68, 0
2, 154567, Note_on_c, 0, 56, 0
2, 154605, Note_on_c, 0, 56, 37
2, 154679, Control_c, 0, 64, 0
2, 154718, Note_on_c, 0, 68, 64
2, 154723, Note_on_c, 0, 64, 68
2, 154729, Note_on_c, 0, 74, 55
2, 154733, Note_on_c, 0, 71, 48
2, 154736, Note_on_c, 0, 56, 0
2, 154739, Note_on_c, 0, 58, 62
2, 154802, Control_c, 0, 64, 127
2, 154857, Note_on_c, 0, 71, 0
2, 154880, Note_on_c, 0, 64, 0
2, 154886, Note_on_c, 0, 74, 0
2, 154916, Note_on_c, 0, 68, 0
2, 154983, Control_c, 0, 64, 0
2, 154994, Note_on_c, 0, 72, 48
2, 155008, Note_on_c, 0, 67, 46
2, 155018, Note_on_c, 0, 62, 36
2, 155028, Note_on_c, 0, 57, 49
2, 155033, Note_on_c, 0, 60, 34
2, 155034, Note_on_c, 0, 58, 0
2, 155123, Control_c, 0, 64, 127
2, 155231, Note_on_c, 0, 60, 0
2, 155261, Note_on_c, 0, 62, 0
2, 155296, Note_on_c, 0, 67, 0
2, 155316, Note_on_c, 0, 57, 0
2, 155343, Note_on_c, 0, 72, 0
2, 155348, Note_on_c, 0, 54, 36
2, 155393, Control_c, 0, 64, 0
2, 155455, Note_on_c, 0, 57, 46
2, 155465, Note_on_c, 0, 54, 0
2, 155465, Note_on_c, 0, 67, 43
2, 155488, Note_on_c, 0, 72, 36
2, 155509, Control_c, 0, 64, 127
2, 155538, Note_on_c, 0, 57, 0
2, 155553, Note_on_c, 0, 67, 0
2, 155586, Note_on_c, 0, 72, 0
2, 155732, Note_on_c, 0, 76, 53
2, 155735, Note_on_c, 0, 66, 39
2, 155738, Control_c, 0, 64, 0
2, 155742, Note_on_c, 0, 64, 50
2, 155742, Note_on_c, 0, 60, 49
2, 155746, Note_on_c, 0, 54, 36
2, 155886, Control_c, 0, 64, 127
2, 156122, Note_on_c, 0, 50, 51
2, 156127, Note_on_c, 0, 64, 0
2, 156142, Control_c, 0, 64, 0
2, 156167, Note_on_c, 0, 50, 0
2, 156186, Note_on_c, 0, 66, 0
2, 156211, Note_on_c, 0, 60, 0
2, 156214, Note_on_c, 0, 54, 0
2, 156240, Control_c, 0, 64, 127
2, 156269, Note_on_c, 0, 76, 0
2, 156624, Note_on_c, 0, 79, 69
2, 156627, Control_c, 0, 64, 0
2, 156630, Note_on_c, 0, 69, 77
2, 156632, Note_on_c, 0, 72, 68
2, 156637, Note_on_c, 0, 67, 67
2, 156645, Note_on_c, 0, 77, 48
2, 156742, Note_on_c, 0, 72, 0
2, 156750, Note_on_c, 0, 79, 0
2, 156754, Note_on_c, 0, 69, 0
2, 156792, Note_on_c, 0, 77, 0
2, 156837, Note_on_c, 0, 67, 0
2, 156840, Control_c, 0, 64, 127
2, 156865, Note_on_c, 0, 78, 63
2, 156876, Note_on_c, 0, 66, 52
2, 156893, Note_on_c, 0, 69, 46
2, 156900, Note_on_c, 0, 72, 30
2, 156913, Control_c, 0, 64, 0
2, 156952, Note_on_c, 0, 69, 0
2, 156989, Note_on_c, 0, 66, 0
2, 157007, Note_on_c, 0, 78, 0
2, 157023, Note_on_c, 0, 77, 45
2, 157031, Note_on_c, 0, 65, 47
2, 157032, Note_on_c, 0, 69, 27
2, 157061, Control_c, 0, 64, 127
2, 157110, Note_on_c, 0, 72, 0
2, 157122, Note_on_c, 0, 77, 0
2, 157159, Note_on_c, 0, 65, 0
2, 157171, Note_on_c, 0, 69, 0
2, 157274, Note_on_c, 0, 55, 41
2, 157332, Control_c, 0, 64, 0
2, 157382, Note_on_c, 0, 76, 70
2, 157390, Note_on_c, 0, 65, 67
2, 157398, Note_on_c, 0, 69, 60
2, 157413, Note_on_c, 0, 64, 60
2, 157504, Note_on_c, 0, 76, 0
2, 157521, Control_c, 0, 64, 127
2, 157531, Note_on_c, 0, 65, 0
2, 157549, Note_on_c, 0, 69, 0
2, 157579, Note_on_c, 0, 64, 0
2, 157628, Note_on_c, 0, 75, 72
2, 157630, Note_on_c, 0, 63, 53
2, 157640, Note_on_c, 0, 65, 49
2, 157645, Note_on_c, 0, 69, 52
2, 157685, Control_c, 0, 64, 0
2, 157716, Note_on_c, 0, 65, 0
2, 157746, Note_on_c, 0, 63, 0
2, 157760, Note_on_c, 0, 75, 0
2, 157764, Note_on_c, 0, 69, 0
2, 157770, Note_on_c, 0, 65, 29
2, 157779, Note_on_c, 0, 62, 43
2, 157801, Control_c, 0, 64, 127
2, 157888, Note_on_c, 0, 55, 0
2, 157945, Note_on_c, 0, 62, 0
2, 157966, Note_on_c, 0, 65, 0
2, 158105, Control_c, 0, 64, 0
2, 158139, Note_on_c, 0, 70, 69
2, 158149, Note_on_c, 0, 63, 62
2, 158150, Note_on_c, 0, 58, 83
2, 158155, Note_on_c, 0, 67, 63
2, 158156, Note_on_c, 0, 60, 66
2, 158270, Control_c, 0, 64, 127
2, 158309, Note_on_c, 0, 70, 0
2, 158311, Note_on_c, 0, 60, 0
2, 158325, Note_on_c, 0, 67, 0
2, 158359, Note_on_c, 0, 63, 0
2, 158382, Note_on_c, 0, 58, 0
2, 158396, Note_on_c, 0, 68, 62
2, 158401, Note_on_c, 0, 56, 53
2, 158401, Note_on_c, 0, 63, 34
2, 158409, Note_on_c, 0, 60, 42
2, 158450, Note_on_c, 0, 60, 0
2, 158474, Control_c, 0, 64, 0
2, 158517, Note_on_c, 0, 56, 0
2, 158521, Note_on_c, 0, 63, 0
2, 158532, Note_on_c, 0, 68, 0
2, 158533, Note_on_c, 0, 55, 58
2, 158560, Note_on_c, 0, 60, 34
2, 158616, Control_c, 0, 64, 127
2, 158778, Note_on_c, 0, 55, 0
2, 158790, Note_on_c, 0, 60, 0
2, 158804, Note_on_c, 0, 51, 52
2, 158869, Control_c, 0, 64, 0
2, 158914, Note_on_c, 0, 67, 54
2, 158919, Note_on_c, 0, 51, 0
2, 158934, Note_on_c, 0, 56, 55
2, 158939, Note_on_c, 0, 60, 57
2, 158949, Note_on_c, 0, 63, 35
2, 158951, Note_on_c, 0, 55, 56
2, 158992, Control_c, 0, 64, 127
2, 159040, Note_on_c, 0, 67, 0
2, 159092, Note_on_c, 0, 60, 0
2, 159105, Note_on_c, 0, 56, 0
2, 159124, Note_on_c, 0, 63, 0
2, 159154, Note_on_c, 0, 55, 0
2, 159168, Note_on_c, 0, 66, 52
2, 159181, Note_on_c, 0, 56, 37
2, 159186, Note_on_c, 0, 54, 55
2, 159191, Note_on_c, 0, 60, 44
2, 159255, Control_c, 0, 64, 0
2, 159263, Note_on_c, 0, 66, 0
2, 159293, Note_on_c, 0, 54, 0
2, 159322, Note_on_c, 0, 53, 51
2, 159368, Note_on_c, 0, 60, 0
2, 159371, Note_on_c, 0, 56, 0
2, 159378, Control_c, 0, 64, 127
2, 159537, Note_on_c, 0, 53, 0
2, 159564, Note_on_c, 0, 64, 64
2, 159565, Note_on_c, 0, 60, 61
2, 159571, Note_on_c, 0, 57, 73
2, 159574, Note_on_c, 0, 53, 58
2, 159583, Note_on_c, 0, 43, 60
2, 159600, Control_c, 0, 64, 0
2, 159772, Control_c, 0, 64, 127
2, 159913, Note_on_c, 0, 60, 0
2, 159929, Note_on_c, 0, 53, 0
2, 159970, Note_on_c, 0, 57, 0
2, 159977, Control_c, 0, 64, 0
2, 159992, Note_on_c, 0, 50, 38
2, 160019, Note_on_c, 0, 64, 0
2, 160066, Note_on_c, 0, 53, 55
2, 160069, Note_on_c, 0, 57, 40
2, 160072, Note_on_c, 0, 60, 48
2, 160110, Control_c, 0, 64, 127
2, 160209, Note_on_c, 0, 57, 0
2, 160212, Note_on_c, 0, 53, 0
2, 160218, Note_on_c, 0, 60, 0
2, 160320, Note_on_c, 0, 56, 57
2, 160322, Note_on_c, 0, 50, 0
2, 160330, Note_on_c, 0, 64, 53
2, 160331, Note_on_c, 0, 59, 47
2, 160341, Note_on_c, 0, 53, 58
2, 160358, Control_c, 0, 64, 0
2, 160503, Control_c, 0, 64, 127
2, 160514, Note_on_c, 0, 64, 0
2, 160607, Note_on_c, 0, 56, 0
2, 160617, Note_on_c, 0, 62, 1
2, 160660, Note_on_c, 0, 59, 0
2, 160724, Note_on_c, 0, 53, 0
2, 160734, Note_on_c, 0, 62, 0
2, 160742, Control_c, 0, 64, 0
2, 160839, Note_on_c, 0, 63, 47
2, 160839, Note_on_c, 0, 58, 59
2, 160846, Note_on_c, 0, 54, 44
2, 160847, Note_on_c, 0, 51, 47
2, 160873, Control_c, 0, 64, 127
2, 160890, Note_on_c, 0, 43, 0
2, 161007, Note_on_c, 0, 63, 0
2, 161020, Note_on_c, 0, 54, 0
2, 161052, Note_on_c, 0, 58, 0
2, 161087, Note_on_c, 0, 64, 59
2, 161095, Control_c, 0, 64, 0
2, 161096, Note_on_c, 0, 55, 55
2, 161097, Note_on_c, 0, 59, 53
2, 161100, Note_on_c, 0, 52, 54
2, 161119, Note_on_c, 0, 51, 0
2, 161160, Note_on_c, 0, 55, 0
2, 161178, Note_on_c, 0, 59, 0
2, 161195, Note_on_c, 0, 64, 0
2, 161219, Control_c, 0, 64, 127
2, 161290, Note_on_c, 0, 52, 0
2, 161467, Note_on_c, 0, 67, 68
2, 161468, Note_on_c, 0, 62, 79
2, 161475, Note_on_c, 0, 57, 68
2, 161480, Note_on_c, 0, 53, 71
2, 161490, Control_c, 0, 64, 0
2, 161547, Note_on_c, 0, 57, 0
2, 161614, Control_c, 0, 64, 127
2, 161835, Note_on_c, 0, 62, 0
2, 161868, Note_on_c, 0, 67, 0
2, 161884, Note_on_c, 0, 51, 36
2, 161999, Control_c, 0, 64, 0
2, 162109, Note_on_c, 0, 51, 0
2, 162187, Note_on_c, 0, 57, 56
2, 162224, Note_on_c, 0, 57, 0
2, 162299, Note_on_c, 0, 62, 61
2, 162349, Note_on_c, 0, 53, 0
2, 162405, Note_on_c, 0, 62, 0
2, 162410, Note_on_c, 0, 66, 51
2, 162479, Note_on_c, 0, 66, 0
2, 162548, Note_on_c, 0, 69, 65
2, 162620, Note_on_c, 0, 69, 0
2, 162662, Note_on_c, 0, 74, 58
2, 162746, Note_on_c, 0, 74, 0
2, 162799, Note_on_c, 0, 78, 37
2, 162864, Note_on_c, 0, 78, 0
2, 162928, Note_on_c, 0, 79, 58
2, 162997, Note_on_c, 0, 79, 0
2, 163025, Note_on_c, 0, 78, 56
2, 163069, Note_on_c, 0, 62, 35
2, 163071, Note_on_c, 0, 66, 42
2, 163108, Note_on_c, 0, 78, 0
2, 163108, Note_on_c, 0, 55, 18
2, 163170, Note_on_c, 0, 79, 56
2, 163236, Note_on_c, 0, 79, 0
2, 163271, Note_on_c, 0, 78, 37
2, 163338, Note_on_c, 0, 78, 0
2, 163399, Note_on_c, 0, 79, 63
2, 163451, Note_on_c, 0, 62, 0
2, 163474, Note_on_c, 0, 79, 0
2, 163489, Note_on_c, 0, 66, 0
2, 163494, Note_on_c, 0, 78, 44
2, 163574, Note_on_c, 0, 78, 0
2, 163574, Note_on_c, 0, 55, 0
2, 163627, Note_on_c, 0, 79, 51
2, 163703, Note_on_c, 0, 79, 0
2, 163824, Note_on_c, 0, 66, 52
2, 163831, Note_on_c, 0, 81, 54
2, 163833, Note_on_c, 0, 61, 51
2, 163841, Note_on_c, 0, 55, 45
2, 163883, Note_on_c, 0, 81, 0
2, 164131, Note_on_c, 0, 55, 0
2, 164168, Note_on_c, 0, 66, 0
2, 164313, Note_on_c, 0, 64, 45
2, 164324, Note_on_c, 0, 54, 37
2, 164345, Note_on_c, 0, 59, 31
2, 164735, Control_c, 0, 64, 127
2, 164952, Note_on_c, 0, 78, 44
2, 164973, Note_on_c, 0, 64, 0
2, 165014, Control_c, 0, 64, 0
2, 165021, Note_on_c, 0, 59, 0
2, 165022, Note_on_c, 0, 78, 0
2, 165090, Note_on_c, 0, 79, 74
2, 165092, Note_on_c, 0, 61, 0
2, 165149, Note_on_c, 0, 79, 0
2, 165178, Note_on_c, 0, 54, 0
2, 165345, Note_on_c, 0, 79, 69
2, 165360, Note_on_c, 0, 62, 45
2, 165367, Note_on_c, 0, 54, 32
2, 165369, Note_on_c, 0, 59, 38
2, 165405, Note_on_c, 0, 79, 0
2, 165507, Note_on_c, 0, 76, 48
2, 165605, Control_c, 0, 64, 127
2, 165613, Note_on_c, 0, 76, 0
2, 165707, Note_on_c, 0, 62, 0
2, 165710, Note_on_c, 0, 59, 0
2, 165745, Note_on_c, 0, 76, 57
2, 165813, Note_on_c, 0, 54, 0
2, 165819, Note_on_c, 0, 76, 0
2, 165827, Control_c, 0, 64, 0
2, 165891, Note_on_c, 0, 71, 45
2, 166003, Note_on_c, 0, 71, 0
2, 166121, Note_on_c, 0, 49, 42
2, 166126, Note_on_c, 0, 71, 50
2, 166131, Note_on_c, 0, 59, 40
2, 166159, Note_on_c, 0, 49, 0
2, 166173, Note_on_c, 0, 59, 0
2, 166175, Note_on_c, 0, 71, 0
2, 166249, Note_on_c, 0, 76, 58
2, 166325, Note_on_c, 0, 76, 0
2, 166443, Control_c, 0, 64, 127
2, 166493, Note_on_c, 0, 76, 58
2, 166497, Note_on_c, 0, 63, 67
2, 166516, Note_on_c, 0, 58, 38
2, 166529, Note_on_c, 0, 76, 0
2, 166547, Note_on_c, 0, 63, 0
2, 166566, Control_c, 0, 64, 0
2, 166572, Note_on_c, 0, 58, 0
2, 166624, Note_on_c, 0, 78, 56
2, 166636, Note_on_c, 0, 66, 45
2, 166759, Note_on_c, 0, 78, 0
2, 166764, Control_c, 0, 64, 127
2, 166788, Note_on_c, 0, 66, 0
2, 166858, Note_on_c, 0, 78, 39
2, 166877, Note_on_c, 0, 66, 33
2, 166887, Control_c, 0, 64, 0
2, 166896, Note_on_c, 0, 78, 0
2, 166899, Note_on_c, 0, 54, 37
2, 166906, Note_on_c, 0, 66, 0
2, 166932, Note_on_c, 0, 54, 0
2, 167007, Note_on_c, 0, 75, 36
2, 167009, Note_on_c, 0, 63, 53
2, 167105, Note_on_c, 0, 75, 0
2, 167134, Note_on_c, 0, 63, 0
2, 167150, Control_c, 0, 64, 127
2, 167245, Note_on_c, 0, 75, 56
2, 167253, Note_on_c, 0, 63, 60
2, 167274, Note_on_c, 0, 57, 62
2, 167282, Note_on_c, 0, 47, 58
2, 167305, Control_c, 0, 64, 0
2, 167314, Note_on_c, 0, 75, 0
2, 167317, Note_on_c, 0, 57, 0
2, 167330, Note_on_c, 0, 63, 0
2, 167375, Note_on_c, 0, 47, 0
2, 167439, Note_on_c, 0, 62, 22
2, 167478, Note_on_c, 0, 74, 12
2, 167535, Note_on_c, 0, 74, 0
2, 167553, Control_c, 0, 64, 127
2, 167562, Note_on_c, 0, 62, 0
2, 167639, Note_on_c, 0, 74, 29
2, 167653, Note_on_c, 0, 62, 34
2, 167659, Control_c, 0, 64, 0
2, 167681, Note_on_c, 0, 74, 0
2, 167683, Note_on_c, 0, 62, 0
2, 167784, Note_on_c, 0, 66, 52
2, 167823, Control_c, 0, 64, 127
2, 167915, Note_on_c, 0, 66, 0
2, 168009, Note_on_c, 0, 78, 55
2, 168020, Note_on_c, 0, 66, 51
2, 168056, Note_on_c, 0, 62, 39
2, 168078, Note_on_c, 0, 78, 0
2, 168086, Note_on_c, 0, 66, 0
2, 168090, Note_on_c, 0, 62, 0
2, 168104, Control_c, 0, 64, 0
2, 168175, Note_on_c, 0, 76, 38
2, 168182, Note_on_c, 0, 64, 34
2, 168261, Note_on_c, 0, 64, 0
2, 168276, Control_c, 0, 64, 127
2, 168288, Note_on_c, 0, 76, 0
2, 168371, Note_on_c, 0, 76, 49
2, 168374, Control_c, 0, 64, 0
2, 168392, Note_on_c, 0, 64, 51
2, 168392, Note_on_c, 0, 62, 68
2, 168397, Note_on_c, 0, 56, 47
2, 168423, Note_on_c, 0, 65, 24
2, 168433, Note_on_c, 0, 64, 0
2, 168438, Note_on_c, 0, 76, 0
2, 168438, Note_on_c, 0, 62, 0
2, 168451, Note_on_c, 0, 65, 0
2, 168470, Note_on_c, 0, 56, 0
2, 168507, Note_on_c, 0, 62, 64
2, 168516, Note_on_c, 0, 56, 35
2, 168524, Note_on_c, 0, 74, 24
2, 168538, Control_c, 0, 64, 127
2, 168635, Note_on_c, 0, 62, 0
2, 168676, Note_on_c, 0, 74, 0
2, 168808, Note_on_c, 0, 56, 0
2, 168867, Control_c, 0, 64, 0
2, 168924, Control_c, 0, 64, 127
2, 169244, Control_c, 0, 64, 0
2, 169295, Control_c, 0, 64, 127
2, 169630, Control_c, 0, 64, 0
2, 169666, Note_on_c, 0, 61, 47
2, 169670, Note_on_c, 0, 55, 64
2, 169671, Note_on_c, 0, 65, 70
2, 169673, Note_on_c, 0, 60, 52
2, 169675, Note_on_c, 0, 93, 75
2, 169679, Note_on_c, 0, 81, 70
2, 169680, Note_on_c, 0, 88, 73
2, 169690, Note_on_c, 0, 58, 39
2, 169780, Note_on_c, 0, 81, 0
2, 169785, Note_on_c, 0, 88, 0
2, 169795, Note_on_c, 0, 65, 0
2, 169798, Note_on_c, 0, 60, 0
2, 169801, Note_on_c, 0, 55, 0
2, 169813, Note_on_c, 0, 93, 0
2, 169819, Note_on_c, 0, 61, 0
2, 169819, Note_on_c, 0, 58, 0
2, 169856, Control_c, 0, 64, 127
2, 169897, Control_c, 0, 64, 0
2, 170047, Note_on_c, 0, 60, 57
2, 170048, Note_on_c, 0, 61, 50
2, 170049, Note_on_c, 0, 65, 73
2, 170050, Note_on_c, 0, 93, 68
2, 170051, Note_on_c, 0, 81, 68
2, 170052, Note_on_c, 0, 88, 71
2, 170055, Note_on_c, 0, 55, 60
2, 170152, Control_c, 0, 64, 127
2, 170190, Note_on_c, 0, 55, 0
2, 170198, Note_on_c, 0, 81, 0
2, 170208, Note_on_c, 0, 65, 0
2, 170214, Note_on_c, 0, 93, 0
2, 170220, Note_on_c, 0, 61, 0
2, 170237, Note_on_c, 0, 60, 0
2, 170237, Note_on_c, 0, 88, 0
2, 170333, Control_c, 0, 64, 0
2, 170437, Note_on_c, 0, 62, 66
2, 170439, Note_on_c, 0, 94, 74
2, 170440, Note_on_c, 0, 82, 70
2, 170440, Note_on_c, 0, 56, 65
2, 170441, Note_on_c, 0, 67, 71
2, 170449, Note_on_c, 0, 60, 57
2, 170476, Note_on_c, 0, 88, 41
2, 170493, Control_c, 0, 64, 127
2, 170527, Note_on_c, 0, 88, 0
2, 170602, Note_on_c, 0, 67, 0
2, 170608, Note_on_c, 0, 94, 0
2, 170611, Note_on_c, 0, 82, 0
2, 170612, Note_on_c, 0, 60, 0
2, 170619, Note_on_c, 0, 56, 0
2, 170637, Note_on_c, 0, 62, 0
2, 170700, Note_on_c, 0, 96, 69
2, 170703, Note_on_c, 0, 84, 62
2, 170703, Note_on_c, 0, 56, 37
2, 170705, Note_on_c, 0, 62, 64
2, 170712, Note_on_c, 0, 60, 36
2, 170717, Note_on_c, 0, 67, 25
2, 170733, Note_on_c, 0, 84, 0
2, 170745, Note_on_c, 0, 60, 0
2, 170746, Note_on_c, 0, 67, 0
2, 170748, Note_on_c, 0, 96, 0
2, 170770, Note_on_c, 0, 56, 0
2, 170789, Control_c, 0, 64, 0
2, 170794, Note_on_c, 0, 62, 0
2, 170818, Note_on_c, 0, 67, 40
2, 170822, Note_on_c, 0, 56, 33
2, 170823, Note_on_c, 0, 62, 19
2, 170827, Note_on_c, 0, 82, 55
2, 170837, Note_on_c, 0, 94, 38
2, 170843, Note_on_c, 0, 60, 40
2, 170847, Control_c, 0, 64, 127
2, 170922, Note_on_c, 0, 67, 0
2, 170925, Note_on_c, 0, 62, 0
2, 170962, Note_on_c, 0, 60, 0
2, 170971, Note_on_c, 0, 94, 0
2, 170979, Note_on_c, 0, 82, 0
2, 170997, Note_on_c, 0, 56, 0
2, 171051, Control_c, 0, 64, 0
2, 171065, Note_on_c, 0, 93, 59
2, 171068, Note_on_c, 0, 65, 58
2, 171075, Note_on_c, 0, 60, 43
2, 171076, Note_on_c, 0, 81, 48
2, 171084, Note_on_c, 0, 61, 38
2, 171085, Note_on_c, 0, 88, 49
2, 171098, Note_on_c, 0, 55, 53
2, 171208, Control_c, 0, 64, 127
2, 171418, Note_on_c, 0, 81, 0
2, 171431, Note_on_c, 0, 93, 0
2, 171436, Note_on_c, 0, 55, 0
2, 171469, Note_on_c, 0, 88, 0
2, 171469, Note_on_c, 0, 65, 0
2, 171476, Note_on_c, 0, 61, 0
2, 171487, Note_on_c, 0, 60, 0
2, 171504, Control_c, 0, 64, 0
2, 171582, Note_on_c, 0, 60, 48
2, 171582, Note_on_c, 0, 67, 60
2, 171584, Note_on_c, 0, 82, 67
2, 171585, Note_on_c, 0, 94, 83
2, 171590, Note_on_c, 0, 62, 62
2, 171591, Note_on_c, 0, 56, 49
2, 171635, Control_c, 0, 64, 127
2, 171741, Note_on_c, 0, 67, 0
2, 171755, Note_on_c, 0, 62, 0
2, 171779, Note_on_c, 0, 94, 0
2, 171779, Note_on_c, 0, 82, 0
2, 171798, Note_on_c, 0, 60, 0
2, 171823, Note_on_c, 0, 56, 0
2, 171849, Control_c, 0, 64, 0
2, 171854, Note_on_c, 0, 65, 70
2, 171859, Note_on_c, 0, 96, 77
2, 171860, Note_on_c, 0, 55, 62
2, 171861, Note_on_c, 0, 60, 58
2, 171868, Note_on_c, 0, 95, 56
2, 171872, Note_on_c, 0, 83, 49
2, 171874, Note_on_c, 0, 84, 51
2, 171880, Note_on_c, 0, 58, 20
2, 171909, Note_on_c, 0, 95, 0
2, 171974, Note_on_c, 0, 83, 0
2, 171979, Note_on_c, 0, 96, 0
2, 171980, Control_c, 0, 64, 127
2, 172003, Note_on_c, 0, 65, 0
2, 172004, Note_on_c, 0, 84, 0
2, 172027, Note_on_c, 0, 60, 0
2, 172029, Note_on_c, 0, 55, 0
2, 172075, Note_on_c, 0, 58, 0
2, 172218, Control_c, 0, 64, 0
2, 172221, Note_on_c, 0, 93, 69
2, 172227, Note_on_c, 0, 61, 49
2, 172232, Note_on_c, 0, 65, 65
2, 172236, Note_on_c, 0, 60, 32
2, 172237, Note_on_c, 0, 81, 47
2, 172238, Note_on_c, 0, 55, 52
2, 172244, Note_on_c, 0, 88, 51
2, 172254, Note_on_c, 0, 58, 31
2, 172383, Control_c, 0, 64, 127
2, 172403, Note_on_c, 0, 65, 0
2, 172411, Note_on_c, 0, 60, 0
2, 172412, Note_on_c, 0, 88, 0
2, 172447, Note_on_c, 0, 61, 0
2, 172449, Note_on_c, 0, 93, 0
2, 172455, Note_on_c, 0, 55, 0
2, 172456, Note_on_c, 0, 58, 0
2, 172501, Note_on_c, 0, 81, 0
2, 172711, Control_c, 0, 64, 0
2, 172752, Note_on_c, 0, 91, 62
2, 172753, Note_on_c, 0, 55, 74
2, 172755, Note_on_c, 0, 85, 59
2, 172760, Note_on_c, 0, 65, 69
2, 172762, Note_on_c, 0, 79, 48
2, 172764, Note_on_c, 0, 88, 52
2, 172787, Note_on_c, 0, 65, 0
2, 172801, Note_on_c, 0, 88, 0
2, 172826, Note_on_c, 0, 85, 0
2, 172826, Note_on_c, 0, 79, 0
2, 172827, Note_on_c, 0, 55, 0
2, 172830, Note_on_c, 0, 91, 0
2, 173135, Note_on_c, 0, 55, 50
2, 173136, Note_on_c, 0, 61, 46
2, 173139, Control_c, 0, 64, 127
2, 173146, Note_on_c, 0, 65, 42
2, 173248, Note_on_c, 0, 55, 0
2, 173263, Note_on_c, 0, 65, 0
2, 173399, Note_on_c, 0, 61, 0
2, 173443, Control_c, 0, 64, 0
2, 173526, Note_on_c, 0, 54, 50
2, 173527, Note_on_c, 0, 61, 34
2, 173531, Note_on_c, 0, 64, 50
2, 173553, Note_on_c, 0, 88, 94
2, 173558, Note_on_c, 0, 59, 29
2, 173691, Note_on_c, 0, 88, 0
2, 173750, Note_on_c, 0, 85, 77
2, 173856, Note_on_c, 0, 85, 0
2, 173874, Note_on_c, 0, 86, 67
2, 173903, Note_on_c, 0, 87, 58
2, 173921, Note_on_c, 0, 87, 0
2, 173952, Note_on_c, 0, 88, 58
2, 173964, Note_on_c, 0, 86, 0
2, 174021, Note_on_c, 0, 88, 0
2, 174105, Note_on_c, 0, 64, 0
2, 174153, Note_on_c, 0, 81, 75
2, 174320, Note_on_c, 0, 82, 46
2, 174333, Note_on_c, 0, 81, 0
2, 174382, Note_on_c, 0, 83, 40
2, 174400, Note_on_c, 0, 59, 0
2, 174408, Note_on_c, 0, 82, 0
2, 174427, Note_on_c, 0, 61, 0
2, 174429, Note_on_c, 0, 84, 70
2, 174431, Note_on_c, 0, 83, 0
2, 174497, Note_on_c, 0, 84, 0
2, 174590, Note_on_c, 0, 54, 0
2, 174598, Note_on_c, 0, 78, 65
2, 174639, Note_on_c, 0, 54, 17
2, 174640, Note_on_c, 0, 64, 42
2, 174643, Note_on_c, 0, 61, 36
2, 174673, Note_on_c, 0, 64, 0
2, 174731, Note_on_c, 0, 78, 0
2, 174731, Note_on_c, 0, 54, 0
2, 174749, Note_on_c, 0, 61, 0
2, 174757, Note_on_c, 0, 79, 34
2, 174810, Note_on_c, 0, 80, 25
2, 174853, Note_on_c, 0, 79, 0
2, 174872, Control_c, 0, 64, 127
2, 174888, Note_on_c, 0, 81, 65
2, 174928, Note_on_c, 0, 80, 0
2, 174985, Note_on_c, 0, 81, 0
2, 175028, Control_c, 0, 64, 0
2, 175043, Note_on_c, 0, 76, 64
2, 175205, Note_on_c, 0, 76, 0
2, 175336, Note_on_c, 0, 65, 75
2, 175342, Note_on_c, 0, 60, 54
2, 175344, Note_on_c, 0, 56, 29
2, 175347, Note_on_c, 0, 62, 60
2, 175354, Note_on_c, 0, 55, 33
2, 175396, Note_on_c, 0, 65, 0
2, 175410, Note_on_c, 0, 62, 0
2, 175421, Note_on_c, 0, 56, 0
2, 175429, Note_on_c, 0, 60, 0
2, 175452, Note_on_c, 0, 55, 0
2, 175586, Control_c, 0, 64, 127
2, 175662, Control_c, 0, 64, 0
2, 175691, Note_on_c, 0, 51, 59
2, 175694, Note_on_c, 0, 77, 71
2, 175700, Note_on_c, 0, 65, 79
2, 175702, Note_on_c, 0, 58, 56
2, 175719, Note_on_c, 0, 67, 39
2, 175747, Note_on_c, 0, 67, 0
2, 175762, Note_on_c, 0, 65, 0
2, 175767, Note_on_c, 0, 51, 0
2, 175778, Note_on_c, 0, 58, 0
2, 175804, Note_on_c, 0, 77, 0
2, 175852, Note_on_c, 0, 74, 30
2, 175899, Control_c, 0, 64, 127
2, 175951, Note_on_c, 0, 74, 0
2, 176109, Note_on_c, 0, 53, 40
2, 176153, Control_c, 0, 64, 0
2, 176171, Note_on_c, 0, 53, 0
2, 176176, Note_on_c, 0, 54, 18
2, 176194, Note_on_c, 0, 70, 48
2, 176201, Note_on_c, 0, 55, 55
2, 176211, Note_on_c, 0, 60, 44
2, 176214, Note_on_c, 0, 65, 53
2, 176244, Note_on_c, 0, 54, 0
2, 176430, Note_on_c, 0, 60, 0
2, 176442, Note_on_c, 0, 65, 0
2, 176467, Note_on_c, 0, 55, 0
2, 176480, Note_on_c, 0, 54, 35
2, 176489, Note_on_c, 0, 70, 0
2, 176594, Note_on_c, 0, 55, 47
2, 176594, Note_on_c, 0, 70, 55
2, 176597, Control_c, 0, 64, 127
2, 176604, Note_on_c, 0, 54, 0
2, 176604, Note_on_c, 0, 60, 45
2, 176605, Note_on_c, 0, 65, 49
2, 176792, Note_on_c, 0, 65, 0
2, 176794, Note_on_c, 0, 60, 0
2, 176839, Note_on_c, 0, 55, 0
2, 176872, Note_on_c, 0, 70, 0
2, 176927, Control_c, 0, 64, 0
2, 176970, Note_on_c, 0, 62, 44
2, 176975, Note_on_c, 0, 72, 51
2, 176984, Note_on_c, 0, 65, 56
2, 176990, Note_on_c, 0, 56, 36
2, 177082, Control_c, 0, 64, 127
2, 177109, Note_on_c, 0, 72, 0
2, 177109, Note_on_c, 0, 62, 0
2, 177129, Note_on_c, 0, 65, 0
2, 177233, Note_on_c, 0, 70, 56
2, 177238, Control_c, 0, 64, 0
2, 177239, Note_on_c, 0, 60, 54
2, 177244, Note_on_c, 0, 65, 54
2, 177253, Note_on_c, 0, 55, 48
2, 177273, Note_on_c, 0, 60, 0
2, 177277, Note_on_c, 0, 65, 0
2, 177279, Note_on_c, 0, 56, 0
2, 177318, Note_on_c, 0, 70, 0
2, 177377, Control_c, 0, 64, 127
2, 177526, Control_c, 0, 64, 0
2, 177628, Note_on_c, 0, 56, 29
2, 177700, Note_on_c, 0, 56, 0
2, 177956, Note_on_c, 0, 51, 57
2, 177974, Note_on_c, 0, 55, 0
2, 178047, Note_on_c, 0, 51, 0
2, 178090, Note_on_c, 0, 55, 62
2, 178160, Note_on_c, 0, 55, 0
2, 178180, Note_on_c, 0, 58, 51
2, 178291, Note_on_c, 0, 62, 47
2, 178292, Note_on_c, 0, 58, 0
2, 178394, Note_on_c, 0, 65, 50
2, 178427, Note_on_c, 0, 62, 0
2, 178460, Note_on_c, 0, 58, 27
2, 178464, Note_on_c, 0, 65, 0
2, 178498, Note_on_c, 0, 62, 57
2, 178552, Note_on_c, 0, 62, 0
2, 178574, Note_on_c, 0, 58, 0
2, 178596, Note_on_c, 0, 63, 47
2, 178662, Note_on_c, 0, 63, 0
2, 178726, Note_on_c, 0, 67, 64
2, 178826, Note_on_c, 0, 70, 55
2, 178827, Note_on_c, 0, 67, 0
2, 178892, Note_on_c, 0, 70, 0
2, 178946, Note_on_c, 0, 74, 63
2, 179031, Note_on_c, 0, 74, 0
2, 179193, Note_on_c, 0, 65, 64
2, 179193, Note_on_c, 0, 62, 53
2, 179205, Note_on_c, 0, 60, 38
2, 179220, Note_on_c, 0, 65, 0
2, 179235, Note_on_c, 0, 60, 0
2, 179237, Note_on_c, 0, 62, 0
2, 179633, Note_on_c, 0, 61, 27
2, 179643, Note_on_c, 0, 67, 44
2, 179646, Note_on_c, 0, 56, 48
2, 179650, Note_on_c, 0, 65, 62
2, 179656, Note_on_c, 0, 73, 56
2, 179660, Note_on_c, 0, 60, 41
2, 179674, Note_on_c, 0, 65, 0
2, 179683, Note_on_c, 0, 67, 0
2, 179691, Note_on_c, 0, 60, 0
2, 179751, Note_on_c, 0, 73, 0
2, 179755, Note_on_c, 0, 75, 60
2, 179755, Note_on_c, 0, 60, 20
2, 179792, Note_on_c, 0, 61, 0
2, 179853, Note_on_c, 0, 73, 28
2, 179874, Note_on_c, 0, 75, 0
2, 179892, Note_on_c, 0, 56, 0
2, 179935, Note_on_c, 0, 73, 0
2, 179954, Note_on_c, 0, 72, 57
2, 179970, Note_on_c, 0, 61, 23
2, 179995, Note_on_c, 0, 72, 0
2, 180023, Note_on_c, 0, 61, 0
2, 180070, Note_on_c, 0, 73, 51
2, 180071, Note_on_c, 0, 60, 0
2, 180263, Note_on_c, 0, 73, 0
2, 180307, Note_on_c, 0, 75, 55
2, 180326, Note_on_c, 0, 61, 36
2, 180326, Note_on_c, 0, 65, 50
2, 180341, Note_on_c, 0, 60, 30
2, 180362, Note_on_c, 0, 65, 0
2, 180382, Note_on_c, 0, 60, 0
2, 180403, Note_on_c, 0, 75, 0
2, 180424, Note_on_c, 0, 61, 0
2, 180477, Note_on_c, 0, 77, 26
2, 180602, Note_on_c, 0, 77, 0
2, 180685, Note_on_c, 0, 79, 58
2, 180787, Note_on_c, 0, 79, 0
2, 180839, Note_on_c, 0, 81, 50
2, 180969, Note_on_c, 0, 81, 0
2, 181058, Note_on_c, 0, 82, 67
2, 181078, Note_on_c, 0, 62, 46
2, 181078, Note_on_c, 0, 59, 54
2, 181091, Note_on_c, 0, 54, 31
2, 181116, Note_on_c, 0, 62, 0
2, 181125, Note_on_c, 0, 59, 0
2, 181172, Note_on_c, 0, 54, 0
2, 181197, Note_on_c, 0, 82, 0
2, 181245, Note_on_c, 0, 83, 36
2, 181386, Note_on_c, 0, 83, 0
2, 181455, Note_on_c, 0, 86, 71
2, 181463, Note_on_c, 0, 50, 67
2, 181464, Note_on_c, 0, 74, 63
2, 181491, Note_on_c, 0, 49, 31
2, 181496, Note_on_c, 0, 50, 0
2, 181544, Note_on_c, 0, 86, 0
2, 181544, Note_on_c, 0, 49, 0
2, 181555, Note_on_c, 0, 74, 0
2, 181629, Note_on_c, 0, 82, 35
2, 181754, Note_on_c, 0, 82, 0
2, 181762, Note_on_c, 0, 83, 45
2, 181814, Note_on_c, 0, 83, 0
2, 181850, Note_on_c, 0, 86, 74
2, 181869, Note_on_c, 0, 74, 55
2, 181943, Note_on_c, 0, 86, 0
2, 182020, Note_on_c, 0, 74, 0
2, 182043, Note_on_c, 0, 82, 18
2, 182086, Note_on_c, 0, 82, 0
2, 182118, Note_on_c, 0, 83, 36
2, 182161, Note_on_c, 0, 83, 0
2, 182203, Note_on_c, 0, 86, 63
2, 182259, Note_on_c, 0, 64, 31
2, 182276, Note_on_c, 0, 86, 0
2, 182279, Note_on_c, 0, 59, 34
2, 182296, Note_on_c, 0, 64, 0
2, 182324, Note_on_c, 0, 59, 0
2, 182327, Note_on_c, 0, 78, 55
2, 182581, Note_on_c, 0, 78, 0
2, 182591, Note_on_c, 0, 74, 71
2, 182606, Note_on_c, 0, 59, 36
2, 182669, Note_on_c, 0, 74, 0
2, 182745, Note_on_c, 0, 59, 0
2, 182753, Note_on_c, 0, 71, 33
2, 182916, Note_on_c, 0, 71, 0
2, 182982, Note_on_c, 0, 71, 56
2, 183002, Note_on_c, 0, 59, 29
2, 183038, Note_on_c, 0, 59, 0
2, 183048, Note_on_c, 0, 56, 25
2, 183056, Note_on_c, 0, 71, 0
2, 183088, Note_on_c, 0, 56, 0
2, 183110, Note_on_c, 0, 66, 56
2, 183247, Note_on_c, 0, 66, 0
2, 183362, Note_on_c, 0, 66, 62
2, 183364, Note_on_c, 0, 49, 60
2, 183380, Note_on_c, 0, 50, 78
2, 183415, Note_on_c, 0, 49, 0
2, 183422, Note_on_c, 0, 66, 0
2, 183538, Note_on_c, 0, 62, 25
2, 183748, Note_on_c, 0, 62, 0
2, 183823, Note_on_c, 0, 62, 59
2, 183945, Note_on_c, 0, 62, 0
2, 184145, Note_on_c, 0, 49, 35
2, 184170, Note_on_c, 0, 59, 30
2, 184190, Note_on_c, 0, 50, 0
2, 184207, Note_on_c, 0, 59, 0
2, 184243, Note_on_c, 0, 49, 0
2, 184261, Note_on_c, 0, 67, 53
2, 184268, Note_on_c, 0, 52, 60
2, 184268, Note_on_c, 0, 59, 58
2, 184272, Note_on_c, 0, 62, 58
2, 184298, Note_on_c, 0, 64, 37
2, 184394, Control_c, 0, 64, 127
2, 184517, Control_c, 0, 64, 0
2, 184527, Note_on_c, 0, 64, 0
2, 184551, Note_on_c, 0, 59, 0
2, 184574, Note_on_c, 0, 62, 0
2, 184594, Note_on_c, 0, 67, 0
2, 184643, Note_on_c, 0, 59, 33
2, 184646, Note_on_c, 0, 52, 0
2, 184648, Note_on_c, 0, 64, 35
2, 184660, Note_on_c, 0, 50, 45
2, 184665, Control_c, 0, 64, 127
2, 184751, Note_on_c, 0, 59, 0
2, 184756, Note_on_c, 0, 64, 0
2, 184791, Note_on_c, 0, 50, 0
2, 184904, Note_on_c, 0, 67, 59
2, 184914, Note_on_c, 0, 58, 69
2, 184926, Note_on_c, 0, 61, 51
2, 184927, Note_on_c, 0, 64, 50
2, 184935, Control_c, 0, 64, 0
2, 184948, Note_on_c, 0, 57, 40
2, 184952, Note_on_c, 0, 55, 42
2, 185027, Note_on_c, 0, 57, 0
2, 185040, Note_on_c, 0, 67, 0
2, 185048, Note_on_c, 0, 64, 0
2, 185055, Note_on_c, 0, 58, 0
2, 185059, Control_c, 0, 64, 127
2, 185060, Note_on_c, 0, 61, 0
2, 185227, Note_on_c, 0, 55, 0
2, 185281, Control_c, 0, 64, 0
2, 185304, Note_on_c, 0, 61, 57
2, 185307, Note_on_c, 0, 64, 68
2, 185312, Note_on_c, 0, 67, 46
2, 185322, Note_on_c, 0, 71, 44
2, 185327, Note_on_c, 0, 70, 13
2, 185360, Note_on_c, 0, 71, 0
2, 185377, Note_on_c, 0, 61, 0
2, 185382, Note_on_c, 0, 64, 0
2, 185389, Control_c, 0, 64, 127
2, 185420, Note_on_c, 0, 67, 0
2, 185441, Note_on_c, 0, 70, 0
2, 185636, Control_c, 0, 64, 0
2, 185666, Note_on_c, 0, 60, 66
2, 185671, Note_on_c, 0, 65, 68
2, 185675, Note_on_c, 0, 69, 64
2, 185677, Note_on_c, 0, 57, 51
2, 185680, Note_on_c, 0, 50, 27
2, 185690, Note_on_c, 0, 53, 32
2, 185723, Note_on_c, 0, 50, 0
2, 185733, Note_on_c, 0, 53, 0
2, 185738, Note_on_c, 0, 65, 0
2, 185747, Note_on_c, 0, 69, 0
2, 185750, Note_on_c, 0, 57, 0
2, 185757, Control_c, 0, 64, 127
2, 185797, Note_on_c, 0, 60, 0
2, 186050, Note_on_c, 0, 76, 59
2, 186052, Note_on_c, 0, 69, 66
2, 186055, Note_on_c, 0, 60, 62
2, 186059, Note_on_c, 0, 65, 58
2, 186060, Note_on_c, 0, 72, 55
2, 186064, Note_on_c, 0, 54, 56
2, 186064, Control_c, 0, 64, 0
2, 186103, Note_on_c, 0, 65, 0
2, 186133, Note_on_c, 0, 69, 0
2, 186138, Note_on_c, 0, 72, 0
2, 186162, Note_on_c, 0, 76, 0
2, 186175, Control_c, 0, 64, 127
2, 186254, Note_on_c, 0, 60, 0
2, 186435, Note_on_c, 0, 64, 62
2, 186436, Note_on_c, 0, 79, 61
2, 186439, Control_c, 0, 64, 0
2, 186440, Note_on_c, 0, 67, 58
2, 186444, Note_on_c, 0, 59, 56
2, 186446, Note_on_c, 0, 54, 0
2, 186449, Note_on_c, 0, 53, 50
2, 186461, Note_on_c, 0, 76, 57
2, 186493, Note_on_c, 0, 67, 0
2, 186511, Note_on_c, 0, 64, 0
2, 186513, Note_on_c, 0, 76, 0
2, 186533, Note_on_c, 0, 79, 0
2, 186562, Control_c, 0, 64, 127
2, 186581, Note_on_c, 0, 53, 0
2, 186604, Note_on_c, 0, 59, 0
2, 186808, Note_on_c, 0, 75, 86
2, 186819, Note_on_c, 0, 63, 77
2, 186820, Note_on_c, 0, 71, 74
2, 186821, Note_on_c, 0, 53, 66
2, 186823, Note_on_c, 0, 83, 66
2, 186828, Note_on_c, 0, 59, 61
2, 186836, Note_on_c, 0, 56, 42
2, 186850, Control_c, 0, 64, 0
2, 186914, Note_on_c, 0, 75, 0
2, 186935, Note_on_c, 0, 76, 27
2, 186997, Control_c, 0, 64, 127
2, 187127, Note_on_c, 0, 53, 0
2, 187174, Note_on_c, 0, 59, 0
2, 187175, Note_on_c, 0, 56, 0
2, 187206, Note_on_c, 0, 63, 0
2, 187226, Note_on_c, 0, 71, 0
2, 187240, Note_on_c, 0, 76, 0
2, 187263, Note_on_c, 0, 83, 0
2, 187327, Control_c, 0, 64, 0
2, 187345, Note_on_c, 0, 84, 68
2, 187349, Note_on_c, 0, 65, 69
2, 187351, Note_on_c, 0, 55, 63
2, 187352, Note_on_c, 0, 72, 61
2, 187354, Note_on_c, 0, 60, 60
2, 187364, Note_on_c, 0, 57, 57
2, 187440, Note_on_c, 0, 72, 0
2, 187483, Control_c, 0, 64, 127
2, 187527, Note_on_c, 0, 65, 0
2, 187535, Note_on_c, 0, 84, 0
2, 187539, Note_on_c, 0, 55, 0
2, 187552, Note_on_c, 0, 57, 0
2, 187558, Note_on_c, 0, 60, 0
2, 187616, Control_c, 0, 64, 0
2, 187730, Note_on_c, 0, 93, 90
2, 187732, Note_on_c, 0, 81, 79
2, 187735, Note_on_c, 0, 55, 71
2, 187736, Note_on_c, 0, 65, 81
2, 187738, Note_on_c, 0, 88, 80
2, 187738, Note_on_c, 0, 90, 60
2, 187739, Note_on_c, 0, 60, 67
2, 187748, Note_on_c, 0, 57, 55
2, 187754, Note_on_c, 0, 83, 46
2, 187782, Note_on_c, 0, 83, 0
2, 187848, Control_c, 0, 64, 127
2, 187961, Note_on_c, 0, 90, 0
2, 187969, Note_on_c, 0, 93, 0
2, 187969, Note_on_c, 0, 65, 0
2, 187970, Note_on_c, 0, 88, 0
2, 187986, Note_on_c, 0, 55, 0
2, 187987, Note_on_c, 0, 60, 0
2, 187991, Note_on_c, 0, 57, 0
2, 187993, Note_on_c, 0, 81, 0
2, 188069, Control_c, 0, 64, 0
2, 188116, Note_on_c, 0, 59, 51
2, 188120, Note_on_c, 0, 64, 55
2, 188129, Note_on_c, 0, 53, 45
2, 188130, Note_on_c, 0, 91, 53
2, 188135, Control_c, 0, 64, 127
2, 188138, Note_on_c, 0, 79, 40
2, 188146, Note_on_c, 0, 86, 50
2, 188186, Note_on_c, 0, 79, 0
2, 188220, Note_on_c, 0, 86, 0
2, 188222, Note_on_c, 0, 91, 0
2, 188231, Note_on_c, 0, 53, 0
2, 188245, Note_on_c, 0, 64, 0
2, 188260, Note_on_c, 0, 59, 0
2, 188401, Note_on_c, 0, 98, 66
2, 188406, Control_c, 0, 64, 0
2, 188409, Note_on_c, 0, 91, 70
2, 188410, Note_on_c, 0, 59, 64
2, 188415, Note_on_c, 0, 63, 76
2, 188416, Note_on_c, 0, 53, 72
2, 188419, Note_on_c, 0, 86, 55
2, 188420, Note_on_c, 0, 56, 49
2, 188524, Note_on_c, 0, 91, 0
2, 188530, Control_c, 0, 64, 127
2, 188541, Note_on_c, 0, 98, 0
2, 188569, Note_on_c, 0, 86, 0
2, 188627, Note_on_c, 0, 53, 0
2, 188637, Note_on_c, 0, 63, 0
2, 188705, Note_on_c, 0, 56, 0
2, 188724, Note_on_c, 0, 59, 0
2, 188772, Note_on_c, 0, 59, 27
2, 188777, Control_c, 0, 64, 0
2, 188779, Note_on_c, 0, 62, 68
2, 188780, Note_on_c, 0, 95, 74
2, 188785, Note_on_c, 0, 88, 64
2, 188786, Note_on_c, 0, 83, 54
2, 188790, Note_on_c, 0, 91, 52
2, 188790, Note_on_c, 0, 55, 55
2, 188805, Note_on_c, 0, 52, 49
2, 188888, Note_on_c, 0, 91, 0
2, 188896, Note_on_c, 0, 95, 0
2, 188901, Control_c, 0, 64, 127
2, 188903, Note_on_c, 0, 88, 0
2, 188934, Note_on_c, 0, 83, 0
2, 188954, Note_on_c, 0, 62, 0
2, 188957, Note_on_c, 0, 52, 0
2, 188958, Note_on_c, 0, 55, 0
2, 189005, Note_on_c, 0, 59, 0
2, 189157, Note_on_c, 0, 59, 54
2, 189157, Note_on_c, 0, 91, 65
2, 189164, Control_c, 0, 64, 0
2, 189167, Note_on_c, 0, 62, 68
2, 189167, Note_on_c, 0, 86, 65
2, 189169, Note_on_c, 0, 55, 47
2, 189173, Note_on_c, 0, 52, 50
2, 189177, Note_on_c, 0, 79, 44
2, 189236, Note_on_c, 0, 91, 0
2, 189240, Note_on_c, 0, 86, 0
2, 189243, Note_on_c, 0, 79, 0
2, 189290, Note_on_c, 0, 55, 0
2, 189300, Note_on_c, 0, 52, 0
2, 189304, Control_c, 0, 64, 127
2, 189321, Note_on_c, 0, 59, 0
2, 189415, Note_on_c, 0, 62, 0
2, 189533, Note_on_c, 0, 88, 63
2, 189539, Note_on_c, 0, 76, 60
2, 189542, Note_on_c, 0, 64, 66
2, 189543, Note_on_c, 0, 53, 53
2, 189547, Note_on_c, 0, 81, 54
2, 189550, Control_c, 0, 64, 0
2, 189554, Note_on_c, 0, 60, 50
2, 189557, Note_on_c, 0, 84, 39
2, 189557, Note_on_c, 0, 57, 55
2, 189585, Note_on_c, 0, 84, 0
2, 189593, Note_on_c, 0, 81, 0
2, 189601, Note_on_c, 0, 76, 0
2, 189611, Note_on_c, 0, 88, 0
2, 189611, Note_on_c, 0, 64, 0
2, 189642, Note_on_c, 0, 60, 0
2, 189649, Note_on_c, 0, 53, 0
2, 189652, Note_on_c, 0, 57, 0
2, 189682, Control_c, 0, 64, 127
2, 189911, Note_on_c, 0, 84, 55
2, 189919, Note_on_c, 0, 79, 50
2, 189919, Note_on_c, 0, 64, 63
2, 189921, Note_on_c, 0, 72, 50
2, 189928, Note_on_c, 0, 53, 44
2, 189928, Note_on_c, 0, 60, 48
2, 189929, Note_on_c, 0, 57, 48
2, 189938, Control_c, 0, 64, 0
2, 190046, Note_on_c, 0, 84, 0
2, 190062, Control_c, 0, 64, 127
2, 190078, Note_on_c, 0, 79, 0
2, 190128, Note_on_c, 0, 72, 0
2, 190139, Note_on_c, 0, 57, 0
2, 190144, Note_on_c, 0, 53, 0
2, 190147, Note_on_c, 0, 60, 0
2, 190209, Note_on_c, 0, 64, 0
2, 190309, Note_on_c, 0, 61, 33
2, 190409, Note_on_c, 0, 76, 58
2, 190414, Note_on_c, 0, 61, 0
2, 190416, Note_on_c, 0, 69, 59
2, 190417, Note_on_c, 0, 65, 57
2, 190418, Note_on_c, 0, 71, 50
2, 190424, Control_c, 0, 64, 0
2, 190432, Note_on_c, 0, 64, 68
2, 190551, Note_on_c, 0, 76, 0
2, 190582, Note_on_c, 0, 69, 0
2, 190586, Note_on_c, 0, 65, 0
2, 190595, Note_on_c, 0, 71, 0
2, 190661, Note_on_c, 0, 64, 0
2, 190662, Note_on_c, 0, 63, 58
2, 190671, Note_on_c, 0, 75, 65
2, 190672, Note_on_c, 0, 65, 58
2, 190693, Note_on_c, 0, 71, 24
2, 190695, Note_on_c, 0, 69, 34
2, 190738, Note_on_c, 0, 71, 0
2, 190779, Note_on_c, 0, 75, 0
2, 190780, Note_on_c, 0, 63, 0
2, 190814, Note_on_c, 0, 62, 32
2, 190914, Note_on_c, 0, 69, 0
2, 190990, Control_c, 0, 64, 127
2, 190996, Note_on_c, 0, 62, 0
2, 191014, Note_on_c, 0, 65, 0
2, 191046, Note_on_c, 0, 56, 37
2, 191130, Control_c, 0, 64, 0
2, 191137, Note_on_c, 0, 56, 0
2, 191159, Note_on_c, 0, 72, 55
2, 191166, Note_on_c, 0, 59, 40
2, 191166, Note_on_c, 0, 62, 44
2, 191170, Note_on_c, 0, 68, 37
2, 191191, Note_on_c, 0, 65, 44
2, 191310, Control_c, 0, 64, 127
2, 191320, Note_on_c, 0, 72, 0
2, 191387, Note_on_c, 0, 62, 0
2, 191389, Note_on_c, 0, 68, 0
2, 191404, Note_on_c, 0, 65, 0
2, 191441, Note_on_c, 0, 59, 0
2, 191455, Note_on_c, 0, 54, 30
2, 191467, Control_c, 0, 64, 0
2, 191531, Note_on_c, 0, 54, 0
2, 191546, Note_on_c, 0, 62, 44
2, 191547, Note_on_c, 0, 65, 54
2, 191548, Note_on_c, 0, 56, 33
2, 191551, Note_on_c, 0, 68, 30
2, 191556, Note_on_c, 0, 71, 24
2, 191631, Control_c, 0, 64, 127
2, 191762, Note_on_c, 0, 65, 0
2, 191766, Note_on_c, 0, 62, 0
2, 191800, Note_on_c, 0, 68, 0
2, 191809, Note_on_c, 0, 54, 25
2, 191826, Note_on_c, 0, 71, 0
2, 191870, Control_c, 0, 64, 0
2, 191928, Note_on_c, 0, 56, 0
2, 191932, Note_on_c, 0, 54, 0
2, 191938, Note_on_c, 0, 69, 44
2, 191939, Note_on_c, 0, 64, 40
2, 191952, Note_on_c, 0, 60, 28
2, 191956, Note_on_c, 0, 57, 31
2, 192009, Control_c, 0, 64, 127
2, 192032, Note_on_c, 0, 69, 0
2, 192051, Note_on_c, 0, 64, 0
2, 192096, Note_on_c, 0, 57, 0
2, 192105, Note_on_c, 0, 60, 0
2, 192185, Note_on_c, 0, 49, 38
2, 192262, Note_on_c, 0, 50, 45
2, 192279, Control_c, 0, 64, 0
2, 192286, Note_on_c, 0, 49, 0
2, 192298, Note_on_c, 0, 50, 0
2, 192317, Note_on_c, 0, 51, 35
2, 192327, Note_on_c, 0, 57, 46
2, 192328, Note_on_c, 0, 52, 45
2, 192336, Note_on_c, 0, 67, 18
2, 192336, Note_on_c, 0, 60, 49
2, 192346, Note_on_c, 0, 64, 25
2, 192371, Note_on_c, 0, 51, 0
2, 192413, Note_on_c, 0, 64, 0
2, 192421, Control_c, 0, 64, 127
2, 192425, Note_on_c, 0, 67, 0
2, 192491, Note_on_c, 0, 57, 0
2, 192581, Note_on_c, 0, 52, 0
2, 192583, Note_on_c, 0, 60, 0
2, 192606, Note_on_c, 0, 48, 54
2, 192666, Control_c, 0, 64, 0
2, 192682, Note_on_c, 0, 48, 0
2, 192704, Note_on_c, 0, 54, 59
2, 192718, Note_on_c, 0, 50, 58
2, 192721, Note_on_c, 0, 66, 33
2, 192725, Note_on_c, 0, 60, 48
2, 192738, Note_on_c, 0, 62, 34
2, 192846, Control_c, 0, 64, 127
2, 192888, Control_c, 0, 64, 0
2, 192974, Note_on_c, 0, 38, 66
2, 193003, Note_on_c, 0, 54, 0
2, 193050, Note_on_c, 0, 38, 0
2, 193068, Control_c, 0, 64, 127
2, 193088, Note_on_c, 0, 62, 0
2, 193116, Note_on_c, 0, 60, 0
2, 193160, Note_on_c, 0, 66, 0
2, 193188, Note_on_c, 0, 50, 0
2, 193368, Note_on_c, 0, 50, 53
2, 193471, Control_c, 0, 64, 0
2, 193483, Note_on_c, 0, 55, 34
2, 193499, Note_on_c, 0, 50, 0
2, 193595, Note_on_c, 0, 55, 0
2, 193760, Note_on_c, 0, 50, 35
2, 193827, Note_on_c, 0, 50, 0
2, 193861, Note_on_c, 0, 55, 69
2, 193897, Note_on_c, 0, 55, 0
2, 193946, Note_on_c, 0, 55, 71
2, 194002, Note_on_c, 0, 55, 0
2, 194169, Note_on_c, 0, 50, 41
2, 194221, Note_on_c, 0, 50, 0
2, 194263, Note_on_c, 0, 55, 73
2, 194297, Note_on_c, 0, 55, 0
2, 194360, Note_on_c, 0, 55, 73
2, 194388, Note_on_c, 0, 55, 0
2, 194547, Note_on_c, 0, 55, 87
2, 194603, Note_on_c, 0, 55, 0
2, 194765, Note_on_c, 0, 55, 83
2, 194834, Note_on_c, 0, 55, 0
2, 194957, Note_on_c, 0, 43, 36
2, 195003, Note_on_c, 0, 43, 0
2, 195035, Note_on_c, 0, 56, 79
2, 195053, Note_on_c, 0, 58, 62
2, 195173, Note_on_c, 0, 56, 0
2, 195196, Note_on_c, 0, 58, 0
2, 195255, Note_on_c, 0, 56, 62
2, 195265, Note_on_c, 0, 58, 53
2, 195336, Note_on_c, 0, 56, 0
2, 195383, Note_on_c, 0, 58, 0
2, 195631, Note_on_c, 0, 43, 55
2, 195651, Note_on_c, 0, 55, 67
2, 195667, Note_on_c, 0, 43, 0
2, 195680, Note_on_c, 0, 55, 0
2, 195994, Note_on_c, 0, 55, 68
2, 195996, Note_on_c, 0, 56, 62
2, 196001, Note_on_c, 0, 65, 74
2, 196006, Note_on_c, 0, 61, 55
2, 196248, Control_c, 0, 64, 127
2, 196405, Note_on_c, 0, 55, 0
2, 196420, Note_on_c, 0, 65, 0
2, 196435, Note_on_c, 0, 56, 0
2, 196448, Note_on_c, 0, 61, 0
2, 196457, Note_on_c, 0, 65, 35
2, 196500, Note_on_c, 0, 55, 29
2, 196501, Note_on_c, 0, 60, 32
2, 196510, Control_c, 0, 64, 0
2, 196525, Note_on_c, 0, 65, 0
2, 196552, Note_on_c, 0, 67, 81
2, 196574, Note_on_c, 0, 55, 0
2, 196591, Note_on_c, 0, 60, 0
2, 196619, Note_on_c, 0, 67, 0
2, 196666, Note_on_c, 0, 67, 60
2, 196759, Note_on_c, 0, 67, 0
2, 196928, Note_on_c, 0, 67, 69
2, 197082, Note_on_c, 0, 67, 0
2, 197135, Control_c, 0, 64, 127
2, 197192, Control_c, 0, 64, 0
2, 197210, Note_on_c, 0, 60, 29
2, 197248, Note_on_c, 0, 60, 0
2, 197318, Note_on_c, 0, 81, 62
2, 197319, Note_on_c, 0, 79, 55
2, 197422, Control_c, 0, 64, 127
2, 197505, Control_c, 0, 64, 0
2, 197538, Note_on_c, 0, 81, 0
2, 197557, Note_on_c, 0, 64, 74
2, 197561, Note_on_c, 0, 59, 61
2, 197571, Note_on_c, 0, 53, 60
2, 197590, Note_on_c, 0, 79, 0
2, 197726, Control_c, 0, 64, 127
2, 197895, Note_on_c, 0, 53, 0
2, 197897, Note_on_c, 0, 64, 0
2, 197990, Note_on_c, 0, 59, 0
2, 198030, Control_c, 0, 64, 0
2, 198047, Note_on_c, 0, 62, 34
2, 198057, Note_on_c, 0, 74, 64
2, 198061, Note_on_c, 0, 79, 46
2, 198062, Note_on_c, 0, 52, 38
2, 198069, Note_on_c, 0, 67, 53
2, 198078, Note_on_c, 0, 62, 0
2, 198155, Note_on_c, 0, 52, 0
2, 198337, Note_on_c, 0, 55, 80
2, 198345, Note_on_c, 0, 79, 0
2, 198350, Note_on_c, 0, 54, 46
2, 198365, Note_on_c, 0, 74, 0
2, 198367, Note_on_c, 0, 67, 0
2, 198414, Note_on_c, 0, 54, 0
2, 198532, Control_c, 0, 64, 127
2, 198688, Control_c, 0, 64, 0
2, 198850, Note_on_c, 0, 74, 52
2, 198853, Note_on_c, 0, 67, 47
2, 198857, Note_on_c, 0, 79, 36
2, 198876, Control_c, 0, 64, 127
2, 198903, Note_on_c, 0, 67, 0
2, 198933, Note_on_c, 0, 79, 0
2, 198943, Note_on_c, 0, 74, 0
2, 198980, Note_on_c, 0, 55, 0
2, 199142, Control_c, 0, 64, 0
2, 199217, Note_on_c, 0, 51, 37
2, 199231, Note_on_c, 0, 66, 62
2, 199237, Note_on_c, 0, 78, 56
2, 199238, Note_on_c, 0, 73, 38
2, 199279, Control_c, 0, 64, 127
2, 199427, Note_on_c, 0, 78, 0
2, 199440, Note_on_c, 0, 73, 0
2, 199446, Note_on_c, 0, 66, 0
2, 199484, Note_on_c, 0, 51, 0
2, 199502, Control_c, 0, 64, 0
2, 199509, Note_on_c, 0, 72, 55
2, 199512, Note_on_c, 0, 50, 51
2, 199512, Note_on_c, 0, 57, 43
2, 199513, Note_on_c, 0, 60, 39
2, 199515, Note_on_c, 0, 65, 54
2, 199515, Note_on_c, 0, 77, 38
2, 199649, Control_c, 0, 64, 127
2, 199664, Note_on_c, 0, 65, 0
2, 199759, Note_on_c, 0, 57, 0
2, 199762, Note_on_c, 0, 50, 0
2, 199821, Note_on_c, 0, 60, 0
2, 199859, Note_on_c, 0, 72, 0
2, 199895, Note_on_c, 0, 77, 0
2, 200372, Control_c, 0, 64, 0
2, 200416, Note_on_c, 0, 75, 58
2, 200416, Note_on_c, 0, 83, 49
2, 200416, Note_on_c, 0, 59, 45
2, 200421, Note_on_c, 0, 64, 53
2, 200429, Note_on_c, 0, 71, 43
2, 200465, Note_on_c, 0, 71, 0
2, 200475, Note_on_c, 0, 64, 0
2, 200485, Note_on_c, 0, 75, 0
2, 200502, Note_on_c, 0, 59, 0
2, 200512, Note_on_c, 0, 83, 0
2, 201056, Note_on_c, 0, 62, 71
2, 201064, Note_on_c, 0, 59, 47
2, 201064, Note_on_c, 0, 86, 77
2, 201067, Note_on_c, 0, 74, 75
2, 201070, Note_on_c, 0, 79, 65
2, 201073, Note_on_c, 0, 52, 43
2, 201078, Control_c, 0, 64, 127
2, 201079, Note_on_c, 0, 83, 48
2, 201080, Note_on_c, 0, 55, 44
2, 201108, Note_on_c, 0, 83, 0
2, 201121, Control_c, 0, 64, 0
2, 201125, Note_on_c, 0, 55, 0
2, 201131, Note_on_c, 0, 62, 0
2, 201131, Note_on_c, 0, 52, 0
2, 201137, Note_on_c, 0, 79, 0
2, 201141, Note_on_c, 0, 59, 0
2, 201144, Note_on_c, 0, 74, 0
2, 201155, Note_on_c, 0, 86, 0
2, 201304, Note_on_c, 0, 62, 45
2, 201309, Control_c, 0, 64, 127
2, 201311, Note_on_c, 0, 83, 43
2, 201313, Note_on_c, 0, 59, 33
2, 201331, Note_on_c, 0, 76, 29
2, 201335, Note_on_c, 0, 79, 32
2, 201339, Note_on_c, 0, 71, 19
2, 201365, Note_on_c, 0, 62, 0
2, 201368, Note_on_c, 0, 59, 0
2, 201371, Note_on_c, 0, 79, 0
2, 201378, Note_on_c, 0, 76, 0
2, 201388, Note_on_c, 0, 83, 0
2, 201389, Note_on_c, 0, 71, 0
2, 201464, Control_c, 0, 64, 0
2, 201555, Note_on_c, 0, 79, 29
2, 201563, Note_on_c, 0, 62, 35
2, 201565, Note_on_c, 0, 59, 34
2, 201568, Note_on_c, 0, 67, 39
2, 201580, Control_c, 0, 64, 127
2, 201612, Note_on_c, 0, 67, 0
2, 201621, Note_on_c, 0, 62, 0
2, 201626, Note_on_c, 0, 59, 0
2, 201635, Note_on_c, 0, 79, 0
2, 201809, Control_c, 0, 64, 0
2, 201825, Note_on_c, 0, 76, 41
2, 201829, Note_on_c, 0, 64, 58
2, 201831, Note_on_c, 0, 60, 33
2, 201840, Note_on_c, 0, 57, 30
2, 201855, Note_on_c, 0, 53, 24
2, 201958, Control_c, 0, 64, 127
2, 202314, Note_on_c, 0, 53, 0
2, 202337, Note_on_c, 0, 57, 0
2, 202342, Note_on_c, 0, 60, 0
2, 202391, Note_on_c, 0, 64, 0
2, 202650, Note_on_c, 0, 76, 0
2, 202700, Note_on_c, 0, 64, 41
2, 202707, Note_on_c, 0, 57, 37
2, 202713, Note_on_c, 0, 62, 33
2, 202720, Note_on_c, 0, 69, 59
2, 202748, Control_c, 0, 64, 0
2, 202764, Note_on_c, 0, 69, 0
2, 202800, Note_on_c, 0, 71, 62
2, 202867, Note_on_c, 0, 71, 0
2, 202938, Note_on_c, 0, 71, 54
2, 203057, Note_on_c, 0, 71, 0
2, 203072, Note_on_c, 0, 72, 74
2, 203136, Note_on_c, 0, 72, 0
2, 203172, Note_on_c, 0, 72, 61
2, 203215, Note_on_c, 0, 64, 0
2, 203221, Note_on_c, 0, 62, 0
2, 203226, Note_on_c, 0, 72, 0
2, 203233, Note_on_c, 0, 57, 0
2, 203252, Note_on_c, 0, 74, 60
2, 203290, Note_on_c, 0, 74, 0
2, 203330, Note_on_c, 0, 74, 58
2, 203376, Note_on_c, 0, 74, 0
2, 203395, Note_on_c, 0, 76, 67
2, 203437, Note_on_c, 0, 76, 0
2, 203469, Note_on_c, 0, 76, 54
2, 203480, Note_on_c, 0, 62, 30
2, 203485, Note_on_c, 0, 56, 20
2, 203532, Note_on_c, 0, 76, 0
2, 203542, Note_on_c, 0, 77, 58
2, 203585, Note_on_c, 0, 77, 0
2, 203629, Note_on_c, 0, 77, 43
2, 203690, Note_on_c, 0, 77, 0
2, 203696, Note_on_c, 0, 79, 59
2, 203731, Note_on_c, 0, 79, 0
2, 203778, Note_on_c, 0, 79, 54
2, 203814, Note_on_c, 0, 79, 0
2, 204000, Note_on_c, 0, 62, 0
2, 204014, Note_on_c, 0, 56, 0
2, 204090, Note_on_c, 0, 56, 44
2, 204101, Note_on_c, 0, 81, 44
2, 204101, Note_on_c, 0, 62, 32
2, 204133, Note_on_c, 0, 62, 0
2, 204204, Note_on_c, 0, 83, 45
2, 204220, Note_on_c, 0, 56, 0
2, 204236, Note_on_c, 0, 81, 0
2, 204265, Note_on_c, 0, 83, 0
2, 204286, Note_on_c, 0, 86, 74
2, 204319, Note_on_c, 0, 64, 39
2, 204327, Note_on_c, 0, 55, 24
2, 204344, Note_on_c, 0, 57, 32
2, 204362, Note_on_c, 0, 60, 24
2, 204368, Note_on_c, 0, 86, 0
2, 204434, Note_on_c, 0, 84, 76
2, 204507, Note_on_c, 0, 84, 0
2, 204519, Note_on_c, 0, 64, 0
2, 204576, Note_on_c, 0, 84, 71
2, 204653, Note_on_c, 0, 84, 0
2, 204702, Note_on_c, 0, 60, 0
2, 204728, Note_on_c, 0, 57, 0
2, 204730, Note_on_c, 0, 55, 0
2, 204958, Note_on_c, 0, 57, 44
2, 204984, Note_on_c, 0, 65, 24
2, 205010, Note_on_c, 0, 65, 0
2, 205038, Note_on_c, 0, 57, 0
2, 205315, Note_on_c, 0, 76, 72
2, 205319, Note_on_c, 0, 65, 62
2, 205319, Note_on_c, 0, 88, 74
2, 205320, Note_on_c, 0, 80, 55
2, 205327, Note_on_c, 0, 61, 29
2, 205331, Note_on_c, 0, 84, 40
2, 205348, Note_on_c, 0, 65, 0
2, 205382, Note_on_c, 0, 76, 0
2, 205397, Note_on_c, 0, 88, 0
2, 205398, Note_on_c, 0, 80, 0
2, 205405, Note_on_c, 0, 84, 0
2, 205423, Note_on_c, 0, 55, 2
2, 205441, Note_on_c, 0, 65, 40
2, 205465, Note_on_c, 0, 86, 46
2, 205492, Note_on_c, 0, 74, 34
2, 205618, Note_on_c, 0, 65, 0
2, 205642, Note_on_c, 0, 86, 0
2, 205661, Note_on_c, 0, 74, 0
2, 205667, Note_on_c, 0, 61, 0
2, 205675, Note_on_c, 0, 55, 0
2, 205798, Note_on_c, 0, 55, 32
2, 205806, Note_on_c, 0, 65, 35
2, 205825, Note_on_c, 0, 57, 27
2, 205837, Note_on_c, 0, 60, 22
2, 205842, Note_on_c, 0, 65, 0
2, 205869, Note_on_c, 0, 60, 0
2, 205893, Note_on_c, 0, 55, 0
2, 205895, Note_on_c, 0, 57, 0
2, 206415, Note_on_c, 0, 60, 37
2, 206443, Note_on_c, 0, 60, 0
2, 206526, Note_on_c, 0, 79, 66
2, 206529, Note_on_c, 0, 67, 75
2, 206581, Note_on_c, 0, 67, 0
2, 206591, Note_on_c, 0, 79, 0
2, 206636, Note_on_c, 0, 79, 38
2, 206641, Note_on_c, 0, 67, 63
2, 206695, Note_on_c, 0, 67, 0
2, 206705, Note_on_c, 0, 79, 0
2, 206798, Note_on_c, 0, 60, 37
2, 206831, Note_on_c, 0, 60, 0
2, 206917, Note_on_c, 0, 67, 76
2, 206919, Note_on_c, 0, 79, 50
2, 206926, Note_on_c, 0, 78, 32
2, 206929, Note_on_c, 0, 73, 25
2, 206952, Note_on_c, 0, 79, 0
2, 206958, Note_on_c, 0, 67, 0
2, 206960, Note_on_c, 0, 78, 0
2, 206961, Note_on_c, 0, 73, 0
2, 207027, Note_on_c, 0, 79, 29
2, 207031, Note_on_c, 0, 67, 49
2, 207073, Note_on_c, 0, 67, 0
2, 207085, Note_on_c, 0, 79, 0
2, 207173, Note_on_c, 0, 65, 58
2, 207178, Note_on_c, 0, 61, 46
2, 207185, Note_on_c, 0, 56, 33
2, 207203, Note_on_c, 0, 65, 0
2, 207250, Note_on_c, 0, 56, 0
2, 207286, Note_on_c, 0, 61, 0
2, 207312, Note_on_c, 0, 68, 68
2, 207316, Note_on_c, 0, 80, 46
2, 207321, Note_on_c, 0, 75, 51
2, 207340, Note_on_c, 0, 68, 0
2, 207345, Note_on_c, 0, 80, 0
2, 207348, Note_on_c, 0, 75, 0
2, 207431, Note_on_c, 0, 80, 46
2, 207435, Note_on_c, 0, 68, 44
2, 207453, Note_on_c, 0, 75, 38
2, 207471, Note_on_c, 0, 68, 0
2, 207490, Note_on_c, 0, 75, 0
2, 207498, Note_on_c, 0, 80, 0
2, 207557, Note_on_c, 0, 61, 49
2, 207558, Note_on_c, 0, 56, 37
2, 207589, Note_on_c, 0, 55, 24
2, 207618, Note_on_c, 0, 55, 0
2, 207670, Note_on_c, 0, 56, 0
2, 207676, Note_on_c, 0, 61, 0
2, 207684, Note_on_c, 0, 82, 59
2, 207689, Note_on_c, 0, 68, 68
2, 207735, Note_on_c, 0, 68, 0
2, 207755, Note_on_c, 0, 82, 0
2, 207802, Note_on_c, 0, 68, 47
2, 207806, Note_on_c, 0, 82, 34
2, 207845, Note_on_c, 0, 75, 25
2, 207873, Note_on_c, 0, 75, 0
2, 207877, Note_on_c, 0, 68, 0
2, 207883, Note_on_c, 0, 82, 0
2, 207935, Note_on_c, 0, 61, 44
2, 207936, Note_on_c, 0, 65, 57
2, 207940, Note_on_c, 0, 56, 33
2, 207964, Note_on_c, 0, 65, 0
2, 208044, Note_on_c, 0, 56, 0
2, 208060, Note_on_c, 0, 61, 0
2, 208068, Note_on_c, 0, 82, 56
2, 208068, Note_on_c, 0, 68, 72
2, 208116, Note_on_c, 0, 68, 0
2, 208117, Note_on_c, 0, 82, 0
2, 208180, Note_on_c, 0, 68, 46
2, 208187, Note_on_c, 0, 82, 43
2, 208197, Note_on_c, 0, 75, 38
2, 208242, Note_on_c, 0, 68, 0
2, 208256, Note_on_c, 0, 75, 0
2, 208268, Note_on_c, 0, 82, 0
2, 208330, Note_on_c, 0, 61, 64
2, 208335, Note_on_c, 0, 65, 76
2, 208335, Note_on_c, 0, 56, 51
2, 208346, Note_on_c, 0, 55, 54
2, 208369, Note_on_c, 0, 65, 0
2, 208376, Note_on_c, 0, 55, 0
2, 208412, Note_on_c, 0, 56, 0
2, 208459, Note_on_c, 0, 82, 69
2, 208462, Note_on_c, 0, 68, 73
2, 208465, Note_on_c, 0, 75, 69
2, 208478, Note_on_c, 0, 61, 0
2, 208516, Note_on_c, 0, 68, 0
2, 208526, Note_on_c, 0, 82, 0
2, 208535, Note_on_c, 0, 75, 0
2, 208720, Note_on_c, 0, 81, 65
2, 208721, Note_on_c, 0, 74, 71
2, 208724, Note_on_c, 0, 59, 64
2, 208725, Note_on_c, 0, 64, 75
2, 208730, Note_on_c, 0, 53, 70
2, 208732, Note_on_c, 0, 69, 63
2, 208735, Note_on_c, 0, 67, 61
2, 208884, Note_on_c, 0, 67, 0
2, 208926, Control_c, 0, 64, 127
2, 208947, Note_on_c, 0, 81, 0
2, 208960, Note_on_c, 0, 69, 0
2, 208972, Note_on_c, 0, 74, 0
2, 208993, Note_on_c, 0, 53, 0
2, 209002, Note_on_c, 0, 64, 0
2, 209036, Note_on_c, 0, 59, 0
2, 209116, Note_on_c, 0, 80, 60
2, 209121, Note_on_c, 0, 68, 74
2, 209126, Note_on_c, 0, 59, 54
2, 209126, Note_on_c, 0, 75, 70
2, 209134, Note_on_c, 0, 64, 74
2, 209144, Note_on_c, 0, 53, 47
2, 209204, Note_on_c, 0, 64, 0
2, 209225, Note_on_c, 0, 68, 0
2, 209246, Control_c, 0, 64, 0
2, 209259, Note_on_c, 0, 80, 0
2, 209265, Note_on_c, 0, 75, 0
2, 209277, Note_on_c, 0, 64, 50
2, 209277, Note_on_c, 0, 79, 46
2, 209293, Note_on_c, 0, 78, 35
2, 209298, Note_on_c, 0, 67, 31
2, 209354, Note_on_c, 0, 78, 0
2, 209354, Control_c, 0, 64, 127
2, 209375, Note_on_c, 0, 79, 0
2, 209383, Note_on_c, 0, 59, 0
2, 209420, Note_on_c, 0, 53, 0
2, 209436, Note_on_c, 0, 64, 0
2, 209440, Note_on_c, 0, 67, 0
2, 209534, Note_on_c, 0, 72, 70
2, 209534, Note_on_c, 0, 67, 44
2, 209539, Note_on_c, 0, 77, 62
2, 209540, Note_on_c, 0, 64, 62
2, 209547, Note_on_c, 0, 69, 46
2, 209579, Note_on_c, 0, 69, 0
2, 209614, Note_on_c, 0, 64, 0
2, 209620, Note_on_c, 0, 72, 0
2, 209626, Note_on_c, 0, 77, 0
2, 209641, Control_c, 0, 64, 0
2, 209650, Note_on_c, 0, 67, 0
2, 209755, Note_on_c, 0, 76, 64
2, 209756, Note_on_c, 0, 64, 54
2, 209772, Note_on_c, 0, 65, 54
2, 209782, Control_c, 0, 64, 127
2, 209783, Note_on_c, 0, 69, 52
2, 209886, Note_on_c, 0, 64, 0
2, 209890, Note_on_c, 0, 76, 0
2, 209919, Note_on_c, 0, 65, 0
2, 209937, Note_on_c, 0, 69, 0
2, 209986, Control_c, 0, 64, 0
2, 210012, Note_on_c, 0, 62, 56
2, 210019, Note_on_c, 0, 74, 44
2, 210020, Note_on_c, 0, 65, 53
2, 210024, Note_on_c, 0, 69, 39
2, 210035, Control_c, 0, 64, 127
2, 210076, Note_on_c, 0, 69, 0
2, 210091, Note_on_c, 0, 62, 0
2, 210107, Note_on_c, 0, 74, 0
2, 210124, Note_on_c, 0, 65, 0
2, 210266, Note_on_c, 0, 72, 62
2, 210271, Note_on_c, 0, 64, 62
2, 210277, Note_on_c, 0, 67, 53
2, 210288, Note_on_c, 0, 69, 53
2, 210298, Control_c, 0, 64, 0
2, 210299, Note_on_c, 0, 57, 42
2, 210329, Note_on_c, 0, 69, 0
2, 210340, Note_on_c, 0, 57, 0
2, 210353, Note_on_c, 0, 67, 0
2, 210378, Note_on_c, 0, 72, 0
2, 210388, Note_on_c, 0, 64, 0
2, 210404, Control_c, 0, 64, 127
2, 210623, Note_on_c, 0, 57, 64
2, 210629, Note_on_c, 0, 64, 51
2, 210630, Note_on_c, 0, 56, 45
2, 210631, Note_on_c, 0, 62, 43
2, 210635, Note_on_c, 0, 69, 34
2, 210638, Note_on_c, 0, 60, 34
2, 210659, Control_c, 0, 64, 0
2, 210660, Note_on_c, 0, 67, 37
2, 210692, Note_on_c, 0, 56, 0
2, 210707, Note_on_c, 0, 60, 0
2, 210791, Control_c, 0, 64, 127
2, 210987, Note_on_c, 0, 62, 0
2, 210991, Note_on_c, 0, 64, 0
2, 210992, Note_on_c, 0, 67, 0
2, 211069, Note_on_c, 0, 69, 0
2, 211087, Control_c, 0, 64, 0
2, 211139, Note_on_c, 0, 55, 64
2, 211144, Note_on_c, 0, 57, 0
2, 211145, Note_on_c, 0, 67, 50
2, 211148, Note_on_c, 0, 64, 52
2, 211156, Note_on_c, 0, 60, 44
2, 211177, Control_c, 0, 64, 127
2, 211323, Note_on_c, 0, 60, 0
2, 211371, Note_on_c, 0, 64, 0
2, 211424, Note_on_c, 0, 57, 40
2, 211448, Control_c, 0, 64, 0
2, 211457, Note_on_c, 0, 57, 0
2, 211476, Note_on_c, 0, 55, 0
2, 211530, Control_c, 0, 64, 127
2, 211899, Control_c, 0, 64, 0
2, 211929, Note_on_c, 0, 59, 31
2, 211933, Note_on_c, 0, 55, 32
2, 211952, Note_on_c, 0, 52, 20
2, 211981, Note_on_c, 0, 59, 0
2, 211990, Note_on_c, 0, 52, 0
2, 211999, Note_on_c, 0, 55, 0
2, 212190, Note_on_c, 0, 66, 44
2, 212233, Note_on_c, 0, 67, 0
2, 212325, Note_on_c, 0, 66, 0
2, 212356, Note_on_c, 0, 62, 22
2, 212556, Note_on_c, 0, 62, 0
2, 212560, Note_on_c, 0, 64, 54
2, 212577, Note_on_c, 0, 56, 32
2, 212637, Note_on_c, 0, 56, 0
2, 212685, Note_on_c, 0, 64, 0
2, 212738, Note_on_c, 0, 66, 23
2, 212905, Note_on_c, 0, 66, 0
2, 212945, Note_on_c, 0, 67, 57
2, 212970, Note_on_c, 0, 55, 60
2, 212972, Note_on_c, 0, 66, 49
2, 212991, Note_on_c, 0, 61, 34
2, 213046, Note_on_c, 0, 67, 0
2, 213144, Note_on_c, 0, 69, 20
2, 213270, Note_on_c, 0, 69, 0
2, 213280, Note_on_c, 0, 55, 0
2, 213317, Note_on_c, 0, 66, 0
2, 213342, Note_on_c, 0, 70, 57
2, 213399, Note_on_c, 0, 70, 0
2, 213465, Note_on_c, 0, 64, 48
2, 213480, Note_on_c, 0, 73, 42
2, 213487, Note_on_c, 0, 54, 30
2, 213503, Note_on_c, 0, 59, 28
2, 213674, Note_on_c, 0, 73, 0
2, 213708, Note_on_c, 0, 76, 65
2, 213807, Note_on_c, 0, 76, 0
2, 213859, Note_on_c, 0, 69, 36
2, 213885, Note_on_c, 0, 59, 0
2, 213909, Note_on_c, 0, 64, 0
2, 213998, Note_on_c, 0, 61, 0
2, 214098, Note_on_c, 0, 61, 21
2, 214112, Note_on_c, 0, 69, 0
2, 214189, Note_on_c, 0, 61, 0
2, 214217, Note_on_c, 0, 54, 0
2, 214464, Note_on_c, 0, 62, 68
2, 214477, Note_on_c, 0, 59, 46
2, 214505, Note_on_c, 0, 54, 18
2, 214506, Note_on_c, 0, 62, 0
2, 214544, Note_on_c, 0, 59, 0
2, 214566, Note_on_c, 0, 66, 60
2, 214588, Note_on_c, 0, 54, 0
2, 214788, Note_on_c, 0, 66, 0
2, 214829, Note_on_c, 0, 69, 59
2, 214918, Note_on_c, 0, 69, 0
2, 215007, Note_on_c, 0, 64, 35
2, 215219, Note_on_c, 0, 49, 55
2, 215288, Note_on_c, 0, 49, 0
2, 215613, Note_on_c, 0, 59, 68
2, 215616, Note_on_c, 0, 64, 0
2, 215972, Note_on_c, 0, 59, 0
2, 215989, Note_on_c, 0, 66, 50
2, 216101, Note_on_c, 0, 66, 0
2, 216179, Note_on_c, 0, 55, 40
2, 216194, Note_on_c, 0, 57, 24
2, 216238, Note_on_c, 0, 55, 0
2, 216396, Note_on_c, 0, 47, 47
2, 216425, Note_on_c, 0, 47, 0
2, 216542, Note_on_c, 0, 57, 0
2, 216758, Note_on_c, 0, 57, 66
2, 216760, Note_on_c, 0, 62, 63
2, 216799, Note_on_c, 0, 50, 54
2, 216894, Note_on_c, 0, 49, 35
2, 216895, Note_on_c, 0, 50, 0
2, 216904, Note_on_c, 0, 62, 0
2, 216920, Note_on_c, 0, 57, 0
2, 217159, Note_on_c, 0, 50, 56
2, 217237, Note_on_c, 0, 49, 0
2, 217245, Note_on_c, 0, 50, 0
2, 217277, Note_on_c, 0, 56, 62
2, 217279, Note_on_c, 0, 66, 48
2, 217285, Note_on_c, 0, 62, 50
2, 217295, Note_on_c, 0, 59, 55
2, 217310, Note_on_c, 0, 54, 69
2, 217552, Note_on_c, 0, 54, 0
2, 217564, Note_on_c, 0, 62, 0
2, 217576, Note_on_c, 0, 59, 0
2, 217576, Note_on_c, 0, 56, 0
2, 217626, Note_on_c, 0, 66, 0
2, 217657, Note_on_c, 0, 62, 55
2, 217666, Note_on_c, 0, 56, 36
2, 217681, Note_on_c, 0, 59, 36
2, 217683, Control_c, 0, 64, 127
2, 217685, Note_on_c, 0, 52, 49
2, 217767, Note_on_c, 0, 59, 0
2, 217854, Note_on_c, 0, 56, 0
2, 217901, Note_on_c, 0, 62, 0
2, 217938, Note_on_c, 0, 52, 0
2, 217954, Control_c, 0, 64, 0
2, 218027, Note_on_c, 0, 45, 56
2, 218055, Note_on_c, 0, 45, 0
2, 218086, Control_c, 0, 64, 127
2, 218835, Note_on_c, 0, 66, 57
2, 218842, Note_on_c, 0, 96, 65
2, 218845, Note_on_c, 0, 61, 50
2, 218847, Note_on_c, 0, 84, 44
2, 218857, Note_on_c, 0, 56, 14
2, 218862, Note_on_c, 0, 91, 43
2, 218882, Control_c, 0, 64, 0
2, 218923, Note_on_c, 0, 84, 0
2, 218947, Note_on_c, 0, 56, 0
2, 218948, Note_on_c, 0, 66, 0
2, 218949, Note_on_c, 0, 91, 0
2, 218952, Note_on_c, 0, 61, 0
2, 218958, Note_on_c, 0, 96, 0
2, 219207, Note_on_c, 0, 67, 60
2, 219214, Note_on_c, 0, 62, 53
2, 219215, Note_on_c, 0, 97, 62
2, 219216, Note_on_c, 0, 56, 42
2, 219217, Note_on_c, 0, 92, 57
2, 219225, Note_on_c, 0, 85, 44
2, 219346, Note_on_c, 0, 67, 0
2, 219366, Note_on_c, 0, 62, 0
2, 219378, Note_on_c, 0, 85, 0
2, 219399, Note_on_c, 0, 92, 0
2, 219429, Note_on_c, 0, 97, 0
2, 219433, Note_on_c, 0, 56, 0
2, 219581, Note_on_c, 0, 66, 55
2, 219597, Note_on_c, 0, 55, 50
2, 219604, Note_on_c, 0, 61, 45
2, 219607, Note_on_c, 0, 96, 66
2, 219615, Note_on_c, 0, 84, 51
2, 219617, Note_on_c, 0, 91, 54
2, 219723, Note_on_c, 0, 55, 0
2, 219771, Note_on_c, 0, 96, 0
2, 219800, Note_on_c, 0, 66, 0
2, 219828, Note_on_c, 0, 91, 0
2, 219832, Note_on_c, 0, 61, 0
2, 219851, Note_on_c, 0, 84, 0
2, 219982, Note_on_c, 0, 65, 50
2, 219991, Note_on_c, 0, 95, 45
2, 219995, Note_on_c, 0, 90, 37
2, 220003, Note_on_c, 0, 83, 33
2, 220006, Note_on_c, 0, 54, 26
2, 220009, Note_on_c, 0, 60, 38
2, 220121, Note_on_c, 0, 83, 0
2, 220128, Note_on_c, 0, 54, 0
2, 220132, Note_on_c, 0, 65, 0
2, 220149, Note_on_c, 0, 95, 0
2, 220156, Note_on_c, 0, 60, 0
2, 220185, Note_on_c, 0, 90, 0
2, 220254, Note_on_c, 0, 66, 56
2, 220254, Note_on_c, 0, 96, 64
2, 220257, Note_on_c, 0, 55, 57
2, 220262, Note_on_c, 0, 91, 49
2, 220263, Note_on_c, 0, 84, 37
2, 220279, Note_on_c, 0, 61, 47
2, 220904, Note_on_c, 0, 96, 0
2, 220924, Note_on_c, 0, 84, 0
2, 220926, Note_on_c, 0, 91, 0
2, 220937, Note_on_c, 0, 55, 0
2, 220960, Note_on_c, 0, 66, 0
2, 220970, Note_on_c, 0, 61, 0
2, 221027, Note_on_c, 0, 95, 66
2, 221036, Note_on_c, 0, 90, 50
2, 221037, Note_on_c, 0, 83, 55
2, 221041, Note_on_c, 0, 60, 62
2, 221060, Note_on_c, 0, 65, 31
2, 221060, Note_on_c, 0, 54, 34
2, 221125, Note_on_c, 0, 65, 0
2, 221129, Note_on_c, 0, 83, 0
2, 221138, Note_on_c, 0, 60, 0
2, 221147, Note_on_c, 0, 54, 0
2, 221160, Note_on_c, 0, 95, 0
2, 221165, Note_on_c, 0, 90, 0
2, 221245, Note_on_c, 0, 66, 60
2, 221254, Note_on_c, 0, 61, 51
2, 221256, Note_on_c, 0, 55, 54
2, 221257, Note_on_c, 0, 96, 69
2, 221260, Note_on_c, 0, 91, 59
2, 221260, Note_on_c, 0, 84, 52
2, 221347, Note_on_c, 0, 84, 0
2, 221360, Note_on_c, 0, 55, 0
2, 221368, Note_on_c, 0, 96, 0
2, 221389, Note_on_c, 0, 91, 0
2, 221406, Note_on_c, 0, 66, 0
2, 221423, Note_on_c, 0, 61, 0
2, 221470, Note_on_c, 0, 97, 75
2, 221471, Note_on_c, 0, 62, 66
2, 221473, Note_on_c, 0, 85, 69
2, 221478, Note_on_c, 0, 67, 48
2, 221483, Note_on_c, 0, 56, 46
2, 221501, Note_on_c, 0, 91, 31
2, 221509, Note_on_c, 0, 94, 25
2, 221535, Note_on_c, 0, 67, 0
2, 221540, Note_on_c, 0, 94, 0
2, 221555, Note_on_c, 0, 62, 0
2, 221568, Note_on_c, 0, 91, 0
2, 221569, Note_on_c, 0, 85, 0
2, 221573, Note_on_c, 0, 56, 0
2, 221584, Note_on_c, 0, 97, 0
2, 221643, Note_on_c, 0, 55, 59
2, 221650, Note_on_c, 0, 66, 56
2, 221653, Note_on_c, 0, 96, 54
2, 221656, Note_on_c, 0, 91, 53
2, 221663, Note_on_c, 0, 61, 52
2, 221671, Note_on_c, 0, 84, 50
2, 221707, Note_on_c, 0, 96, 0
2, 221755, Note_on_c, 0, 55, 0
2, 221759, Note_on_c, 0, 84, 0
2, 221761, Note_on_c, 0, 91, 0
2, 221768, Note_on_c, 0, 66, 0
2, 221784, Note_on_c, 0, 61, 0
2, 221861, Note_on_c, 0, 83, 59
2, 221862, Note_on_c, 0, 95, 66
2, 221879, Note_on_c, 0, 54, 31
2, 221897, Note_on_c, 0, 83, 0
2, 221908, Note_on_c, 0, 54, 0
2, 221926, Note_on_c, 0, 95, 0
2, 222025, Note_on_c, 0, 66, 71
2, 222028, Note_on_c, 0, 84, 51
2, 222030, Note_on_c, 0, 55, 68
2, 222032, Note_on_c, 0, 96, 50
2, 222036, Note_on_c, 0, 91, 45
2, 222098, Note_on_c, 0, 96, 0
2, 222113, Note_on_c, 0, 84, 0
2, 222116, Note_on_c, 0, 91, 0
2, 222133, Note_on_c, 0, 55, 0
2, 222157, Note_on_c, 0, 66, 0
2, 222279, Note_on_c, 0, 61, 53
2, 222280, Note_on_c, 0, 66, 58
2, 222283, Note_on_c, 0, 97, 63
2, 222288, Note_on_c, 0, 85, 57
2, 222307, Note_on_c, 0, 92, 34
2, 222345, Note_on_c, 0, 92, 0
2, 222356, Note_on_c, 0, 66, 0
2, 222425, Note_on_c, 0, 85, 0
2, 222446, Note_on_c, 0, 97, 0
2, 222451, Note_on_c, 0, 61, 0
2, 222531, Note_on_c, 0, 61, 50
2, 222536, Note_on_c, 0, 98, 61
2, 222545, Note_on_c, 0, 86, 51
2, 222547, Note_on_c, 0, 64, 62
2, 222556, Note_on_c, 0, 54, 40
2, 222557, Note_on_c, 0, 59, 58
2, 222992, Control_c, 0, 64, 127
2, 223059, Note_on_c, 0, 96, 1
2, 223067, Note_on_c, 0, 59, 0
2, 223113, Note_on_c, 0, 64, 0
2, 223115, Note_on_c, 0, 98, 0
2, 223144, Note_on_c, 0, 54, 0
2, 223154, Note_on_c, 0, 96, 0
2, 223159, Note_on_c, 0, 61, 0
2, 223230, Note_on_c, 0, 86, 0
2, 223293, Note_on_c, 0, 54, 48
2, 223307, Note_on_c, 0, 61, 39
2, 223307, Note_on_c, 0, 64, 50
2, 223325, Note_on_c, 0, 59, 40
2, 223351, Control_c, 0, 64, 0
2, 223467, Control_c, 0, 64, 127
2, 223779, Note_on_c, 0, 59, 0
2, 223809, Note_on_c, 0, 54, 0
2, 223845, Note_on_c, 0, 61, 0
2, 223857, Note_on_c, 0, 64, 0
2, 224226, Note_on_c, 0, 65, 60
2, 224231, Control_c, 0, 64, 0
2, 224232, Note_on_c, 0, 62, 36
2, 224234, Note_on_c, 0, 89, 101
2, 224239, Note_on_c, 0, 60, 48
2, 224239, Note_on_c, 0, 55, 44
2, 224326, Note_on_c, 0, 89, 0
2, 224507, Note_on_c, 0, 86, 76
2, 224540, Note_on_c, 0, 65, 0
2, 224597, Note_on_c, 0, 86, 0
2, 224680, Note_on_c, 0, 82, 33
2, 224696, Note_on_c, 0, 62, 0
2, 224730, Note_on_c, 0, 60, 0
2, 224765, Control_c, 0, 64, 127
2, 224853, Note_on_c, 0, 82, 0
2, 224874, Note_on_c, 0, 79, 61
2, 224910, Note_on_c, 0, 62, 22
2, 224914, Control_c, 0, 64, 0
2, 224936, Note_on_c, 0, 60, 17
2, 224961, Note_on_c, 0, 79, 0
2, 225034, Note_on_c, 0, 77, 32
2, 225076, Note_on_c, 0, 60, 0
2, 225079, Note_on_c, 0, 62, 0
2, 225200, Control_c, 0, 64, 127
2, 225235, Note_on_c, 0, 77, 0
2, 225257, Control_c, 0, 64, 0
2, 225385, Note_on_c, 0, 77, 72
2, 225422, Control_c, 0, 64, 127
2, 225623, Note_on_c, 0, 77, 0
2, 225653, Note_on_c, 0, 74, 38
2, 225700, Note_on_c, 0, 74, 0
2, 225726, Control_c, 0, 64, 0
2, 225780, Note_on_c, 0, 77, 73
2, 225819, Note_on_c, 0, 55, 0
2, 225990, Note_on_c, 0, 76, 48
2, 226038, Note_on_c, 0, 75, 60
2, 226067, Note_on_c, 0, 62, 17
2, 226075, Note_on_c, 0, 76, 0
2, 226090, Note_on_c, 0, 77, 0
2, 226128, Note_on_c, 0, 74, 50
2, 226164, Note_on_c, 0, 75, 0
2, 226219, Control_c, 0, 64, 127
2, 226239, Note_on_c, 0, 62, 0
2, 226275, Note_on_c, 0, 74, 0
2, 226375, Note_on_c, 0, 70, 47
2, 226401, Note_on_c, 0, 62, 32
2, 226406, Note_on_c, 0, 65, 22
2, 226416, Control_c, 0, 64, 0
2, 226535, Note_on_c, 0, 55, 1
2, 226555, Control_c, 0, 64, 127
2, 226685, Note_on_c, 0, 62, 0
2, 226760, Note_on_c, 0, 65, 0
2, 226810, Control_c, 0, 64, 0
2, 226811, Note_on_c, 0, 62, 22
2, 226829, Note_on_c, 0, 70, 0
2, 226865, Note_on_c, 0, 69, 61
2, 226950, Note_on_c, 0, 55, 0
2, 226990, Note_on_c, 0, 70, 37
2, 227017, Control_c, 0, 64, 127
2, 227027, Note_on_c, 0, 62, 0
2, 227057, Note_on_c, 0, 69, 0
2, 227113, Note_on_c, 0, 71, 43
2, 227202, Note_on_c, 0, 71, 0
2, 227203, Note_on_c, 0, 70, 0
2, 227204, Note_on_c, 0, 72, 45
2, 227246, Note_on_c, 0, 72, 0
2, 227287, Control_c, 0, 64, 0
2, 227534, Note_on_c, 0, 65, 40
2, 227535, Note_on_c, 0, 62, 43
2, 227567, Note_on_c, 0, 65, 0
2, 227599, Note_on_c, 0, 62, 0
2, 227905, Note_on_c, 0, 62, 44
2, 227944, Note_on_c, 0, 62, 0
2, 228028, Note_on_c, 0, 65, 80
2, 228037, Note_on_c, 0, 67, 74
2, 228115, Note_on_c, 0, 67, 0
2, 228245, Note_on_c, 0, 62, 66
2, 228278, Note_on_c, 0, 65, 0
2, 228318, Note_on_c, 0, 62, 0
2, 228322, Control_c, 0, 64, 127
2, 228340, Note_on_c, 0, 63, 42
2, 228388, Control_c, 0, 64, 0
2, 228400, Note_on_c, 0, 64, 53
2, 228410, Note_on_c, 0, 63, 0
2, 228461, Note_on_c, 0, 64, 0
2, 228499, Note_on_c, 0, 65, 30
2, 228538, Note_on_c, 0, 65, 0
2, 228636, Note_on_c, 0, 62, 57
2, 228705, Note_on_c, 0, 62, 0
2, 228832, Note_on_c, 0, 58, 60
2, 228955, Note_on_c, 0, 58, 0
2, 228959, Note_on_c, 0, 55, 37
2, 229026, Note_on_c, 0, 55, 0
2, 229198, Note_on_c, 0, 55, 62
2, 229217, Control_c, 0, 64, 127
2, 229324, Control_c, 0, 64, 0
2, 229365, Note_on_c, 0, 55, 0
2, 229760, Control_c, 0, 64, 127
2, 229846, Note_on_c, 0, 51, 51
2, 229891, Control_c, 0, 64, 0
2, 229907, Note_on_c, 0, 51, 0
2, 230087, Note_on_c, 0, 55, 31
2, 230123, Note_on_c, 0, 55, 0
2, 230196, Control_c, 0, 64, 127
2, 230237, Note_on_c, 0, 58, 25
2, 230277, Note_on_c, 0, 58, 0
2, 230335, Control_c, 0, 64, 0
2, 230341, Note_on_c, 0, 43, 50
2, 230368, Note_on_c, 0, 59, 58
2, 230558, Note_on_c, 0, 43, 0
2, 230597, Note_on_c, 0, 59, 0
2, 230653, Note_on_c, 0, 55, 39
2, 230688, Note_on_c, 0, 55, 0
2, 230959, Note_on_c, 0, 43, 58
2, 230968, Note_on_c, 0, 50, 58
2, 231003, Note_on_c, 0, 43, 0
2, 231036, Note_on_c, 0, 50, 0
2, 231172, Control_c, 0, 64, 127
2, 231313, Control_c, 0, 64, 0
2, 231342, Note_on_c, 0, 54, 57
2, 231353, Note_on_c, 0, 64, 66
2, 231360, Note_on_c, 0, 59, 51
2, 231872, Control_c, 0, 64, 127
2, 232135, Note_on_c, 0, 78, 42
2, 232185, Note_on_c, 0, 78, 0
2, 232199, Control_c, 0, 64, 0
2, 232264, Note_on_c, 0, 81, 75
2, 232380, Note_on_c, 0, 81, 0
2, 232396, Note_on_c, 0, 78, 37
2, 232452, Note_on_c, 0, 78, 0
2, 232519, Note_on_c, 0, 79, 70
2, 232719, Note_on_c, 0, 79, 0
2, 232741, Control_c, 0, 64, 127
2, 232838, Note_on_c, 0, 73, 39
2, 232910, Note_on_c, 0, 73, 0
2, 232975, Note_on_c, 0, 76, 44
2, 232985, Note_on_c, 0, 74, 41
2, 233037, Control_c, 0, 64, 0
2, 233073, Note_on_c, 0, 74, 0
2, 233076, Note_on_c, 0, 76, 0
2, 233109, Note_on_c, 0, 73, 27
2, 233140, Note_on_c, 0, 73, 0
2, 233188, Note_on_c, 0, 59, 0
2, 233194, Note_on_c, 0, 64, 0
2, 233210, Note_on_c, 0, 74, 71
2, 233261, Note_on_c, 0, 54, 0
2, 233349, Note_on_c, 0, 74, 0
2, 233394, Note_on_c, 0, 67, 48
2, 233404, Note_on_c, 0, 62, 37
2, 233447, Note_on_c, 0, 62, 0
2, 233449, Note_on_c, 0, 55, 22
2, 233492, Note_on_c, 0, 55, 0
2, 233801, Control_c, 0, 64, 127
2, 234013, Note_on_c, 0, 67, 0
2, 234080, Note_on_c, 0, 69, 47
2, 234130, Control_c, 0, 64, 0
2, 234184, Note_on_c, 0, 69, 0
2, 234194, Note_on_c, 0, 65, 42
2, 234195, Note_on_c, 0, 61, 37
2, 234204, Note_on_c, 0, 55, 32
2, 234223, Note_on_c, 0, 70, 55
2, 234261, Control_c, 0, 64, 127
2, 234421, Note_on_c, 0, 70, 0
2, 234472, Note_on_c, 0, 72, 53
2, 234522, Note_on_c, 0, 65, 0
2, 234523, Note_on_c, 0, 55, 0
2, 234541, Control_c, 0, 64, 0
2, 234552, Note_on_c, 0, 72, 0
2, 234584, Note_on_c, 0, 61, 0
2, 234648, Control_c, 0, 64, 127
2, 234818, Note_on_c, 0, 62, 52
2, 234842, Note_on_c, 0, 76, 63
2, 234926, Note_on_c, 0, 62, 0
2, 234943, Control_c, 0, 64, 0
2, 234946, Note_on_c, 0, 76, 0
2, 234961, Note_on_c, 0, 64, 48
2, 234979, Note_on_c, 0, 79, 44
2, 234984, Note_on_c, 0, 69, 46
2, 235111, Note_on_c, 0, 79, 0
2, 235131, Note_on_c, 0, 69, 0
2, 235173, Control_c, 0, 64, 127
2, 235183, Note_on_c, 0, 64, 0
2, 235234, Note_on_c, 0, 77, 44
2, 235237, Note_on_c, 0, 63, 47
2, 235247, Note_on_c, 0, 69, 30
2, 235280, Control_c, 0, 64, 0
2, 235285, Note_on_c, 0, 69, 0
2, 235291, Note_on_c, 0, 77, 0
2, 235351, Note_on_c, 0, 63, 0
2, 235409, Note_on_c, 0, 62, 28
2, 235527, Control_c, 0, 64, 127
2, 235547, Note_on_c, 0, 62, 0
2, 235614, Note_on_c, 0, 76, 46
2, 235614, Note_on_c, 0, 69, 62
2, 235617, Control_c, 0, 64, 0
2, 235622, Note_on_c, 0, 65, 49
2, 235653, Note_on_c, 0, 60, 44
2, 235660, Note_on_c, 0, 76, 0
2, 235668, Note_on_c, 0, 69, 0
2, 235672, Note_on_c, 0, 65, 0
2, 235799, Note_on_c, 0, 60, 0
2, 235806, Control_c, 0, 64, 127
2, 235830, Note_on_c, 0, 72, 46
2, 235847, Note_on_c, 0, 65, 47
2, 235872, Note_on_c, 0, 57, 45
2, 235874, Note_on_c, 0, 69, 32
2, 235912, Note_on_c, 0, 69, 0
2, 235940, Note_on_c, 0, 65, 0
2, 235952, Note_on_c, 0, 72, 0
2, 236025, Note_on_c, 0, 57, 0
2, 236052, Control_c, 0, 64, 0
2, 236104, Note_on_c, 0, 63, 43
2, 236110, Note_on_c, 0, 53, 42
2, 236118, Control_c, 0, 64, 127
2, 236173, Note_on_c, 0, 53, 0
2, 236272, Note_on_c, 0, 63, 0
2, 236397, Control_c, 0, 64, 0
2, 236571, Note_on_c, 0, 65, 56
2, 236574, Note_on_c, 0, 57, 59
2, 236576, Note_on_c, 0, 60, 54
2, 236580, Note_on_c, 0, 62, 55
2, 236602, Control_c, 0, 64, 127
2, 236746, Note_on_c, 0, 65, 0
2, 236750, Note_on_c, 0, 57, 0
2, 236754, Note_on_c, 0, 60, 0
2, 236767, Control_c, 0, 64, 0
2, 236773, Note_on_c, 0, 62, 0
2, 236887, Note_on_c, 0, 65, 57
2, 236893, Note_on_c, 0, 60, 53
2, 236899, Control_c, 0, 64, 127
2, 236900, Note_on_c, 0, 57, 57
2, 236900, Note_on_c, 0, 50, 52
2, 236907, Note_on_c, 0, 62, 34
2, 236980, Note_on_c, 0, 57, 0
2, 236984, Note_on_c, 0, 62, 0
2, 236987, Note_on_c, 0, 60, 0
2, 237020, Note_on_c, 0, 65, 0
2, 237146, Note_on_c, 0, 67, 71
2, 237159, Note_on_c, 0, 53, 60
2, 237160, Note_on_c, 0, 59, 63
2, 237163, Note_on_c, 0, 62, 57
2, 237194, Note_on_c, 0, 62, 0
2, 237218, Note_on_c, 0, 67, 0
2, 237225, Note_on_c, 0, 53, 0
2, 237230, Note_on_c, 0, 59, 0
2, 237268, Control_c, 0, 64, 0
2, 237277, Note_on_c, 0, 50, 0
2, 237317, Note_on_c, 0, 65, 63
2, 237326, Note_on_c, 0, 43, 36
2, 237336, Note_on_c, 0, 57, 50
2, 237344, Note_on_c, 0, 53, 34
2, 237449, Control_c, 0, 64, 127
2, 237463, Note_on_c, 0, 57, 0
2, 237464, Note_on_c, 0, 53, 0
2, 237507, Control_c, 0, 64, 0
2, 237525, Note_on_c, 0, 65, 0
2, 237538, Note_on_c, 0, 64, 48
2, 237586, Note_on_c, 0, 64, 0
2, 237646, Note_on_c, 0, 56, 37
2, 237654, Control_c, 0, 64, 127
2, 237656, Note_on_c, 0, 50, 45
2, 237661, Note_on_c, 0, 62, 44
2, 237663, Note_on_c, 0, 59, 37
2, 237767, Note_on_c, 0, 59, 0
2, 237768, Note_on_c, 0, 50, 0
2, 237827, Note_on_c, 0, 56, 0
2, 237845, Note_on_c, 0, 62, 0
2, 237911, Note_on_c, 0, 64, 59
2, 237918, Note_on_c, 0, 48, 48
2, 237919, Note_on_c, 0, 43, 0
2, 237919, Note_on_c, 0, 55, 48
2, 237921, Note_on_c, 0, 59, 42
2, 237925, Control_c, 0, 64, 0
2, 238049, Control_c, 0, 64, 127
2, 238058, Note_on_c, 0, 59, 0
2, 238059, Note_on_c, 0, 55, 0
2, 238176, Note_on_c, 0, 64, 0
2, 238278, Control_c, 0, 64, 0
2, 238279, Note_on_c, 0, 48, 0
2, 238283, Note_on_c, 0, 67, 62
2, 238291, Note_on_c, 0, 62, 60
2, 238293, Note_on_c, 0, 57, 58
2, 238297, Note_on_c, 0, 52, 57
2, 238419, Control_c, 0, 64, 127
2, 238476, Note_on_c, 0, 57, 0
2, 238571, Note_on_c, 0, 52, 0
2, 238582, Note_on_c, 0, 62, 0
2, 238603, Note_on_c, 0, 67, 0
2, 238765, Note_on_c, 0, 75, 18
2, 238824, Note_on_c, 0, 64, 74
2, 238829, Note_on_c, 0, 79, 58
2, 238830, Note_on_c, 0, 75, 0
2, 238832, Note_on_c, 0, 69, 70
2, 238839, Note_on_c, 0, 60, 49
2, 238843, Note_on_c, 0, 57, 42
2, 238848, Note_on_c, 0, 72, 45
2, 238853, Control_c, 0, 64, 0
2, 238854, Note_on_c, 0, 76, 44
2, 238892, Note_on_c, 0, 53, 32
2, 239010, Control_c, 0, 64, 127
2, 239115, Note_on_c, 0, 76, 0
2, 239133, Note_on_c, 0, 64, 0
2, 239151, Note_on_c, 0, 60, 0
2, 239222, Note_on_c, 0, 72, 0
2, 239228, Note_on_c, 0, 64, 36
2, 239256, Note_on_c, 0, 69, 0
2, 239269, Note_on_c, 0, 53, 0
2, 239276, Note_on_c, 0, 64, 0
2, 239287, Note_on_c, 0, 57, 0
2, 239374, Note_on_c, 0, 79, 0
2, 239451, Note_on_c, 0, 76, 80
2, 239486, Control_c, 0, 64, 0
2, 239559, Note_on_c, 0, 76, 0
2, 239581, Note_on_c, 0, 74, 66
2, 239585, Note_on_c, 0, 65, 39
2, 239591, Note_on_c, 0, 62, 31
2, 239595, Note_on_c, 0, 57, 31
2, 239736, Note_on_c, 0, 74, 0
2, 239743, Note_on_c, 0, 65, 0
2, 239746, Note_on_c, 0, 76, 54
2, 239816, Note_on_c, 0, 74, 46
2, 239839, Note_on_c, 0, 76, 0
2, 239890, Note_on_c, 0, 73, 31
2, 239900, Note_on_c, 0, 74, 0
2, 239936, Note_on_c, 0, 73, 0
2, 239940, Note_on_c, 0, 65, 36
2, 239967, Note_on_c, 0, 74, 56
2, 240111, Note_on_c, 0, 57, 0
2, 240149, Note_on_c, 0, 65, 0
2, 240190, Note_on_c, 0, 62, 0
2, 240221, Note_on_c, 0, 77, 74
2, 240228, Note_on_c, 0, 56, 55
2, 240234, Note_on_c, 0, 67, 60
2, 240238, Note_on_c, 0, 62, 34
2, 240259, Note_on_c, 0, 74, 0
2, 240970, Note_on_c, 0, 74, 64
2, 241005, Note_on_c, 0, 67, 0
2, 241055, Note_on_c, 0, 62, 0
2, 241065, Note_on_c, 0, 77, 0
2, 241097, Note_on_c, 0, 74, 0
2, 241152, Note_on_c, 0, 72, 30
2, 241296, Note_on_c, 0, 72, 0
2, 241299, Note_on_c, 0, 56, 0
2, 241494, Note_on_c, 0, 64, 40
2, 241494, Note_on_c, 0, 72, 49
2, 241545, Note_on_c, 0, 55, 26
2, 241610, Note_on_c, 0, 64, 0
2, 241646, Note_on_c, 0, 55, 0
2, 241685, Note_on_c, 0, 72, 0
2, 241886, Note_on_c, 0, 65, 40
2, 241889, Note_on_c, 0, 76, 53
2, 241900, Note_on_c, 0, 54, 29
2, 241902, Note_on_c, 0, 60, 31
2, 241922, Note_on_c, 0, 58, 30
2, 242255, Control_c, 0, 64, 127
2, 242318, Note_on_c, 0, 65, 0
2, 242351, Note_on_c, 0, 60, 0
2, 242379, Note_on_c, 0, 58, 0
2, 242397, Note_on_c, 0, 54, 0
2, 242488, Note_on_c, 0, 72, 56
2, 242522, Note_on_c, 0, 72, 0
2, 242522, Note_on_c, 0, 76, 0
2, 242600, Control_c, 0, 64, 0
2, 242800, Note_on_c, 0, 79, 35
2, 242808, Note_on_c, 0, 65, 34
2, 242809, Note_on_c, 0, 91, 34
2, 242813, Note_on_c, 0, 60, 30
2, 242820, Note_on_c, 0, 57, 34
2, 242839, Note_on_c, 0, 65, 0
2, 242850, Note_on_c, 0, 79, 0
2, 242851, Note_on_c, 0, 60, 0
2, 242859, Note_on_c, 0, 91, 0
2, 242869, Note_on_c, 0, 57, 0
2, 243059, Note_on_c, 0, 79, 42
2, 243065, Note_on_c, 0, 91, 39
2, 243067, Note_on_c, 0, 57, 33
2, 243084, Note_on_c, 0, 60, 31
2, 243103, Note_on_c, 0, 79, 0
2, 243122, Note_on_c, 0, 60, 0
2, 243123, Note_on_c, 0, 91, 0
2, 243131, Note_on_c, 0, 57, 0
2, 243298, Note_on_c, 0, 65, 54
2, 243302, Note_on_c, 0, 57, 33
2, 243304, Note_on_c, 0, 91, 51
2, 243307, Note_on_c, 0, 79, 45
2, 243311, Note_on_c, 0, 60, 40
2, 243349, Note_on_c, 0, 65, 0
2, 243360, Note_on_c, 0, 79, 0
2, 243379, Note_on_c, 0, 91, 0
2, 243393, Note_on_c, 0, 60, 0
2, 243403, Note_on_c, 0, 57, 0
2, 243546, Note_on_c, 0, 65, 51
2, 243556, Note_on_c, 0, 57, 32
2, 243559, Note_on_c, 0, 60, 40
2, 243563, Note_on_c, 0, 91, 57
2, 243572, Note_on_c, 0, 79, 44
2, 243612, Note_on_c, 0, 65, 0
2, 243622, Note_on_c, 0, 79, 0
2, 243640, Note_on_c, 0, 91, 0
2, 243643, Note_on_c, 0, 57, 0
2, 243644, Note_on_c, 0, 60, 0
2, 243809, Note_on_c, 0, 65, 51
2, 243826, Note_on_c, 0, 60, 37
2, 243826, Note_on_c, 0, 57, 35
2, 243826, Note_on_c, 0, 91, 60
2, 243828, Note_on_c, 0, 55, 24
2, 243834, Note_on_c, 0, 79, 46
2, 243866, Note_on_c, 0, 55, 0
2, 243873, Note_on_c, 0, 65, 0
2, 243874, Note_on_c, 0, 60, 0
2, 243883, Note_on_c, 0, 57, 0
2, 243886, Note_on_c, 0, 79, 0
2, 243901, Note_on_c, 0, 91, 0
2, 244073, Note_on_c, 0, 55, 33
2, 244073, Note_on_c, 0, 91, 61
2, 244075, Note_on_c, 0, 79, 54
2, 244085, Note_on_c, 0, 65, 45
2, 244088, Note_on_c, 0, 60, 39
2, 244098, Note_on_c, 0, 57, 34
2, 244115, Note_on_c, 0, 65, 0
2, 244117, Note_on_c, 0, 55, 0
2, 244123, Note_on_c, 0, 60, 0
2, 244136, Note_on_c, 0, 57, 0
2, 244140, Note_on_c, 0, 79, 0
2, 244146, Note_on_c, 0, 91, 0
2, 244324, Note_on_c, 0, 79, 54
2, 244326, Note_on_c, 0, 65, 67
2, 244330, Note_on_c, 0, 55, 60
2, 244330, Note_on_c, 0, 61, 46
2, 244333, Note_on_c, 0, 91, 38
2, 244368, Note_on_c, 0, 65, 0
2, 244388, Note_on_c, 0, 79, 0
2, 244389, Note_on_c, 0, 91, 0
2, 244392, Note_on_c, 0, 61, 0
2, 244396, Note_on_c, 0, 55, 0
2, 244572, Note_on_c, 0, 56, 43
2, 244575, Note_on_c, 0, 91, 60
2, 244578, Note_on_c, 0, 61, 38
2, 244578, Note_on_c, 0, 79, 54
2, 244578, Note_on_c, 0, 65, 54
2, 244586, Note_on_c, 0, 55, 36
2, 244625, Note_on_c, 0, 55, 0
2, 244641, Note_on_c, 0, 65, 0
2, 244649, Note_on_c, 0, 79, 0
2, 244653, Note_on_c, 0, 61, 0
2, 244656, Note_on_c, 0, 91, 0
2, 244683, Note_on_c, 0, 56, 0
2, 244834, Note_on_c, 0, 56, 39
2, 244835, Note_on_c, 0, 61, 46
2, 244835, Note_on_c, 0, 91, 58
2, 244835, Note_on_c, 0, 65, 62
2, 244836, Note_on_c, 0, 79, 53
2, 244856, Note_on_c, 0, 55, 31
2, 244888, Note_on_c, 0, 55, 0
2, 244891, Note_on_c, 0, 65, 0
2, 244901, Note_on_c, 0, 79, 0
2, 244914, Note_on_c, 0, 61, 0
2, 244915, Note_on_c, 0, 91, 0
2, 244931, Note_on_c, 0, 56, 0
2, 245073, Note_on_c, 0, 91, 52
2, 245074, Note_on_c, 0, 56, 37
2, 245075, Note_on_c, 0, 61, 42
2, 245079, Note_on_c, 0, 65, 48
2, 245082, Note_on_c, 0, 79, 42
2, 245140, Note_on_c, 0, 65, 0
2, 245151, Note_on_c, 0, 79, 0
2, 245158, Note_on_c, 0, 91, 0
2, 245170, Note_on_c, 0, 61, 0
2, 245187, Note_on_c, 0, 56, 0
2, 245313, Note_on_c, 0, 61, 35
2, 245316, Note_on_c, 0, 56, 26
2, 245320, Note_on_c, 0, 91, 52
2, 245320, Note_on_c, 0, 65, 44
2, 245323, Note_on_c, 0, 79, 44
2, 245374, Note_on_c, 0, 65, 0
2, 245393, Note_on_c, 0, 79, 0
2, 245397, Note_on_c, 0, 91, 0
2, 245415, Note_on_c, 0, 61, 0
2, 245431, Note_on_c, 0, 56, 0
2, 245558, Note_on_c, 0, 65, 63
2, 245564, Note_on_c, 0, 91, 55
2, 245567, Note_on_c, 0, 79, 50
2, 245571, Note_on_c, 0, 57, 42
2, 245574, Note_on_c, 0, 60, 48
2, 245582, Note_on_c, 0, 55, 37
2, 245619, Note_on_c, 0, 55, 0
2, 245626, Note_on_c, 0, 65, 0
2, 245635, Note_on_c, 0, 79, 0
2, 245639, Note_on_c, 0, 60, 0
2, 245643, Note_on_c, 0, 91, 0
2, 245655, Note_on_c, 0, 57, 0
2, 245806, Note_on_c, 0, 91, 57
2, 245813, Note_on_c, 0, 79, 48
2, 245815, Note_on_c, 0, 65, 44
2, 245816, Note_on_c, 0, 57, 34
2, 245825, Note_on_c, 0, 60, 44
2, 245875, Note_on_c, 0, 65, 0
2, 245891, Note_on_c, 0, 79, 0
2, 245896, Note_on_c, 0, 57, 0
2, 245900, Note_on_c, 0, 91, 0
2, 245902, Note_on_c, 0, 60, 0
2, 246054, Note_on_c, 0, 65, 51
2, 246062, Note_on_c, 0, 60, 41
2, 246072, Note_on_c, 0, 91, 57
2, 246072, Note_on_c, 0, 79, 51
2, 246076, Note_on_c, 0, 55, 30
2, 246085, Note_on_c, 0, 57, 32
2, 246098, Note_on_c, 0, 65, 0
2, 246125, Note_on_c, 0, 79, 0
2, 246129, Note_on_c, 0, 60, 0
2, 246130, Note_on_c, 0, 57, 0
2, 246133, Note_on_c, 0, 55, 0
2, 246157, Note_on_c, 0, 91, 0
2, 246324, Note_on_c, 0, 95, 84
2, 246330, Note_on_c, 0, 64, 80
2, 246331, Note_on_c, 0, 83, 68
2, 246333, Note_on_c, 0, 59, 69
2, 246335, Note_on_c, 0, 53, 76
2, 246697, Note_on_c, 0, 53, 0
2, 246703, Note_on_c, 0, 95, 0
2, 246704, Note_on_c, 0, 64, 0
2, 246706, Note_on_c, 0, 83, 0
2, 246750, Note_on_c, 0, 59, 0
2, 246805, Note_on_c, 0, 59, 40
2, 246806, Note_on_c, 0, 64, 46
2, 246810, Note_on_c, 0, 53, 49
2, 246819, Note_on_c, 0, 95, 69
2, 246823, Note_on_c, 0, 83, 62
2, 246880, Note_on_c, 0, 64, 0
2, 246903, Note_on_c, 0, 53, 0
2, 246924, Note_on_c, 0, 83, 0
2, 246932, Note_on_c, 0, 59, 0
2, 246967, Note_on_c, 0, 95, 0
2, 247086, Note_on_c, 0, 96, 80
2, 247092, Note_on_c, 0, 84, 63
2, 247093, Note_on_c, 0, 91, 70
2, 247140, Note_on_c, 0, 91, 0
2, 247157, Note_on_c, 0, 96, 0
2, 247168, Note_on_c, 0, 84, 0
2, 247455, Note_on_c, 0, 54, 79
2, 247463, Note_on_c, 0, 55, 79
2, 247513, Note_on_c, 0, 54, 0
2, 248258, Note_on_c, 0, 49, 40
2, 248305, Note_on_c, 0, 55, 0
2, 248368, Note_on_c, 0, 58, 46
2, 248371, Note_on_c, 0, 66, 45
2, 248372, Note_on_c, 0, 49, 0
2, 248379, Note_on_c, 0, 51, 43
2, 248382, Note_on_c, 0, 61, 50
2, 248666, Note_on_c, 0, 66, 0
2, 248698, Note_on_c, 0, 49, 21
2, 248706, Note_on_c, 0, 61, 0
2, 248720, Note_on_c, 0, 58, 0
2, 248736, Note_on_c, 0, 51, 0
2, 248749, Note_on_c, 0, 49, 0
2, 248777, Note_on_c, 0, 57, 50
2, 248778, Note_on_c, 0, 65, 49
2, 248787, Note_on_c, 0, 50, 38
2, 248788, Note_on_c, 0, 60, 40
2, 249209, Control_c, 0, 64, 127
2, 249383, Note_on_c, 0, 65, 0
2, 249408, Note_on_c, 0, 50, 0
2, 249414, Note_on_c, 0, 57, 0
2, 249419, Note_on_c, 0, 60, 0
2, 249455, Control_c, 0, 64, 0
2, 249548, Note_on_c, 0, 57, 48
2, 249550, Note_on_c, 0, 65, 44
2, 249562, Note_on_c, 0, 50, 36
2, 249568, Note_on_c, 0, 60, 34
2, 249886, Note_on_c, 0, 65, 0
2, 249932, Control_c, 0, 64, 127
2, 249964, Note_on_c, 0, 57, 0
2, 249970, Note_on_c, 0, 60, 0
2, 249980, Note_on_c, 0, 50, 0
2, 250269, Control_c, 0, 64, 0
2, 250314, Note_on_c, 0, 56, 48
2, 250325, Note_on_c, 0, 60, 50
2, 250330, Note_on_c, 0, 55, 60
2, 250333, Note_on_c, 0, 67, 30
2, 250565, Note_on_c, 0, 67, 0
2, 250569, Note_on_c, 0, 60, 0
2, 250583, Note_on_c, 0, 56, 0
2, 250592, Note_on_c, 0, 43, 44
2, 250755, Control_c, 0, 64, 127
2, 250764, Note_on_c, 0, 55, 0
2, 250910, Control_c, 0, 64, 0
2, 250959, Note_on_c, 0, 56, 37
2, 250969, Note_on_c, 0, 55, 45
2, 250969, Note_on_c, 0, 67, 32
2, 250970, Note_on_c, 0, 60, 50
2, 251090, Note_on_c, 0, 43, 0
2, 251090, Control_c, 0, 64, 127
2, 251307, Note_on_c, 0, 43, 66
2, 251336, Control_c, 0, 64, 0
2, 251436, Note_on_c, 0, 67, 0
2, 251493, Control_c, 0, 64, 127
2, 251494, Note_on_c, 0, 56, 0
2, 251498, Note_on_c, 0, 60, 0
2, 251712, Note_on_c, 0, 55, 0
2, 251751, Note_on_c, 0, 50, 26
2, 251797, Note_on_c, 0, 50, 0
2, 251829, Control_c, 0, 64, 0
2, 251849, Note_on_c, 0, 59, 51
2, 251860, Note_on_c, 0, 62, 44
2, 251867, Note_on_c, 0, 53, 38
2, 251889, Note_on_c, 0, 59, 0
2, 251906, Note_on_c, 0, 53, 0
2, 251906, Note_on_c, 0, 62, 0
2, 252174, Note_on_c, 0, 50, 24
2, 252219, Note_on_c, 0, 50, 0
2, 252220, Note_on_c, 0, 56, 37
2, 252224, Note_on_c, 0, 59, 49
2, 252230, Note_on_c, 0, 62, 43
2, 252232, Note_on_c, 0, 53, 48
2, 252365, Note_on_c, 0, 56, 0
2, 252373, Note_on_c, 0, 59, 0
2, 252378, Note_on_c, 0, 62, 0
2, 252396, Control_c, 0, 64, 127
2, 252491, Note_on_c, 0, 53, 0
2, 252527, Control_c, 0, 64, 0
2, 252635, Control_c, 0, 64, 127
2, 252637, Note_on_c, 0, 43, 0
2, 252867, Note_on_c, 0, 63, 61
2, 252868, Note_on_c, 0, 71, 50
2, 252877, Note_on_c, 0, 68, 44
2, 252879, Note_on_c, 0, 59, 53
2, 252906, Control_c, 0, 64, 0
2, 253022, Note_on_c, 0, 59, 0
2, 253029, Control_c, 0, 64, 127
2, 253128, Note_on_c, 0, 63, 0
2, 253137, Note_on_c, 0, 68, 0
2, 253201, Note_on_c, 0, 71, 0
2, 253263, Note_on_c, 0, 67, 41
2, 253267, Control_c, 0, 64, 0
2, 253268, Note_on_c, 0, 52, 48
2, 253269, Note_on_c, 0, 64, 52
2, 253272, Note_on_c, 0, 60, 33
2, 253286, Note_on_c, 0, 57, 36
2, 253429, Note_on_c, 0, 52, 0
2, 253473, Control_c, 0, 64, 127
2, 253628, Control_c, 0, 64, 0
2, 253633, Note_on_c, 0, 52, 57
2, 253643, Note_on_c, 0, 57, 0
2, 253715, Note_on_c, 0, 60, 0
2, 253740, Note_on_c, 0, 52, 0
2, 253744, Control_c, 0, 64, 127
2, 253745, Note_on_c, 0, 64, 0
2, 253762, Note_on_c, 0, 67, 0
2, 254028, Note_on_c, 0, 79, 71
2, 254042, Note_on_c, 0, 78, 48
2, 254117, Note_on_c, 0, 78, 0
2, 254123, Control_c, 0, 64, 0
2, 254144, Note_on_c, 0, 79, 0
2, 254203, Control_c, 0, 64, 127
2, 254384, Note_on_c, 0, 79, 71
2, 254543, Note_on_c, 0, 67, 36
2, 254749, Note_on_c, 0, 79, 0
2, 254770, Note_on_c, 0, 67, 0
2, 254895, Control_c, 0, 64, 0
2, 254900, Note_on_c, 0, 79, 50
2, 254911, Note_on_c, 0, 65, 35
2, 254918, Note_on_c, 0, 55, 33
2, 254923, Note_on_c, 0, 56, 33
2, 254924, Note_on_c, 0, 61, 35
2, 255028, Note_on_c, 0, 65, 0
2, 255046, Note_on_c, 0, 55, 0
2, 255052, Note_on_c, 0, 79, 0
2, 255066, Note_on_c, 0, 61, 0
2, 255095, Note_on_c, 0, 56, 0
2, 255280, Control_c, 0, 64, 127
2, 255547, Note_on_c, 0, 79, 47
2, 255560, Note_on_c, 0, 67, 42
2, 255566, Note_on_c, 0, 56, 28
2, 255570, Note_on_c, 0, 55, 26
2, 255572, Note_on_c, 0, 65, 35
2, 255575, Control_c, 0, 64, 0
2, 255576, Note_on_c, 0, 61, 31
2, 255633, Control_c, 0, 64, 127
2, 255799, Note_on_c, 0, 65, 0
2, 255847, Note_on_c, 0, 61, 0
2, 255849, Note_on_c, 0, 55, 0
2, 255900, Note_on_c, 0, 56, 0
2, 256109, Note_on_c, 0, 55, 62
2, 256132, Note_on_c, 0, 45, 37
2, 256133, Note_on_c, 0, 43, 31
2, 256201, Note_on_c, 0, 45, 0
2, 256215, Note_on_c, 0, 43, 0
2, 256274, Note_on_c, 0, 55, 0
2, 256344, Note_on_c, 0, 43, 66
2, 256345, Note_on_c, 0, 55, 61
2, 256356, Control_c, 0, 64, 0
2, 256455, Control_c, 0, 64, 127
2, 256840, Note_on_c, 0, 43, 0
2, 256849, Note_on_c, 0, 55, 0
2, 257094, Note_on_c, 0, 43, 57
2, 257102, Note_on_c, 0, 55, 66
2, 257112, Control_c, 0, 64, 0
2, 257179, Control_c, 0, 64, 127
2, 257359, Note_on_c, 0, 43, 0
2, 257369, Note_on_c, 0, 55, 0
2, 257512, Note_on_c, 0, 67, 0
2, 257619, Note_on_c, 0, 67, 41
2, 257698, Note_on_c, 0, 67, 0
2, 257840, Note_on_c, 0, 79, 0
2, 257989, Note_on_c, 0, 79, 54
2, 257992, Note_on_c, 0, 56, 46
2, 257996, Note_on_c, 0, 65, 49
2, 257996, Note_on_c, 0, 55, 40
2, 258013, Note_on_c, 0, 67, 45
2, 258014, Note_on_c, 0, 61, 32
2, 258019, Note_on_c, 0, 72, 43
2, 258032, Control_c, 0, 64, 0
2, 258065, Note_on_c, 0, 72, 0
2, 258080, Note_on_c, 0, 67, 0
2, 258083, Note_on_c, 0, 65, 0
2, 258093, Note_on_c, 0, 55, 0
2, 258123, Note_on_c, 0, 61, 0
2, 258153, Note_on_c, 0, 56, 0
2, 258161, Note_on_c, 0, 79, 0
2, 258368, Control_c, 0, 64, 127
2, 258609, Note_on_c, 0, 79, 42
2, 258622, Note_on_c, 0, 56, 27
2, 258625, Note_on_c, 0, 65, 44
2, 258625, Note_on_c, 0, 67, 40
2, 258628, Note_on_c, 0, 72, 41
2, 258636, Note_on_c, 0, 61, 30
2, 258653, Note_on_c, 0, 55, 20
2, 258658, Note_on_c, 0, 65, 0
2, 258694, Note_on_c, 0, 67, 0
2, 258694, Note_on_c, 0, 61, 0
2, 258697, Note_on_c, 0, 72, 0
2, 258706, Note_on_c, 0, 55, 0
2, 258752, Note_on_c, 0, 56, 0
2, 258753, Note_on_c, 0, 79, 0
2, 258988, Note_on_c, 0, 43, 68
2, 259049, Note_on_c, 0, 43, 0
2, 259116, Control_c, 0, 64, 0
2, 259136, Note_on_c, 0, 43, 19
2, 259154, Note_on_c, 0, 31, 35
2, 259240, Control_c, 0, 64, 127
2, 259291, Note_on_c, 0, 31, 0
2, 259363, Control_c, 0, 64, 0
2, 259393, Note_on_c, 0, 31, 73
2, 259445, Control_c, 0, 64, 127
2, 259513, Note_on_c, 0, 31, 0
2, 259564, Note_on_c, 0, 43, 0
2, 259827, Note_on_c, 0, 50, 24
2, 259883, Note_on_c, 0, 50, 0
2, 259889, Note_on_c, 0, 56, 50
2, 259896, Note_on_c, 0, 67, 39
2, 259900, Note_on_c, 0, 60, 57
2, 259900, Note_on_c, 0, 55, 52
2, 259903, Note_on_c, 0, 63, 47
2, 259913, Control_c, 0, 64, 0
2, 260012, Control_c, 0, 64, 127
2, 260055, Note_on_c, 0, 67, 0
2, 260077, Note_on_c, 0, 56, 0
2, 260083, Note_on_c, 0, 60, 0
2, 260090, Note_on_c, 0, 55, 0
2, 260094, Control_c, 0, 64, 0
2, 260114, Note_on_c, 0, 63, 0
2, 260160, Note_on_c, 0, 67, 47
2, 260162, Note_on_c, 0, 56, 47
2, 260167, Note_on_c, 0, 63, 27
2, 260167, Note_on_c, 0, 55, 53
2, 260173, Note_on_c, 0, 60, 48
2, 260283, Control_c, 0, 64, 127
2, 260526, Note_on_c, 0, 60, 0
2, 260529, Note_on_c, 0, 63, 0
2, 260541, Note_on_c, 0, 56, 0
2, 260577, Note_on_c, 0, 67, 0
2, 260662, Control_c, 0, 64, 0
2, 260664, Note_on_c, 0, 56, 45
2, 260667, Note_on_c, 0, 43, 51
2, 260674, Note_on_c, 0, 63, 38
2, 260694, Control_c, 0, 64, 127
2, 260703, Note_on_c, 0, 60, 33
2, 260748, Note_on_c, 0, 60, 0
2, 260750, Note_on_c, 0, 55, 0
2, 260797, Note_on_c, 0, 43, 0
2, 260802, Note_on_c, 0, 56, 0
2, 260839, Note_on_c, 0, 63, 0
2, 261293, Control_c, 0, 64, 0
2, 261307, Note_on_c, 0, 67, 56
2, 261321, Note_on_c, 0, 43, 53
2, 261322, Note_on_c, 0, 57, 52
2, 261325, Note_on_c, 0, 60, 53
2, 261353, Note_on_c, 0, 57, 0
2, 261368, Note_on_c, 0, 60, 0
2, 261394, Note_on_c, 0, 67, 0
2, 261407, Note_on_c, 0, 43, 0
2, 261808, Note_on_c, 0, 67, 37
2, 261815, Note_on_c, 0, 57, 48
2, 261820, Note_on_c, 0, 43, 50
2, 261820, Note_on_c, 0, 60, 51
2, 261822, Note_on_c, 0, 65, 43
2, 261861, Control_c, 0, 64, 127
2, 261893, Note_on_c, 0, 43, 0
2, 262300, Note_on_c, 0, 57, 0
2, 262314, Note_on_c, 0, 60, 0
2, 262359, Note_on_c, 0, 67, 0
2, 262432, Note_on_c, 0, 65, 0
2, 262575, Control_c, 0, 64, 0
2, 262590, Note_on_c, 0, 56, 32
2, 262594, Note_on_c, 0, 59, 50
2, 262594, Note_on_c, 0, 43, 45
2, 262595, Note_on_c, 0, 64, 57
2, 262985, Control_c, 0, 64, 127
2, 263118, Note_on_c, 0, 59, 0
2, 263174, Note_on_c, 0, 56, 0
2, 263221, Note_on_c, 0, 64, 0
2, 263248, Note_on_c, 0, 56, 33
2, 263255, Note_on_c, 0, 62, 51
2, 263267, Note_on_c, 0, 59, 43
2, 263280, Note_on_c, 0, 31, 36
2, 263283, Control_c, 0, 64, 0
2, 263361, Note_on_c, 0, 43, 0
2, 263380, Control_c, 0, 64, 127
2, 263457, Note_on_c, 0, 31, 0
2, 263575, Note_on_c, 0, 56, 0
2, 263650, Note_on_c, 0, 59, 0
2, 263726, Note_on_c, 0, 62, 0
2, 264021, Note_on_c, 0, 62, 41
2, 264031, Note_on_c, 0, 59, 46
2, 264034, Note_on_c, 0, 57, 40
2, 264037, Control_c, 0, 64, 0
2, 264038, Note_on_c, 0, 36, 43
2, 264051, Note_on_c, 0, 24, 38
2, 264123, Note_on_c, 0, 57, 0
2, 264179, Note_on_c, 0, 59, 0
2, 264185, Control_c, 0, 64, 127
2, 264216, Note_on_c, 0, 62, 0
2, 264426, Note_on_c, 0, 69, 50
2, 264489, Note_on_c, 0, 69, 0
2, 264549, Note_on_c, 0, 74, 54
2, 264635, Note_on_c, 0, 74, 0
2, 264643, Note_on_c, 0, 78, 39
2, 264683, Note_on_c, 0, 78, 0
2, 264755, Note_on_c, 0, 81, 64
2, 264840, Note_on_c, 0, 81, 0
2, 264866, Note_on_c, 0, 86, 43
2, 264939, Note_on_c, 0, 86, 0
2, 264950, Note_on_c, 0, 90, 49
2, 264998, Note_on_c, 0, 90, 0
2, 265080, Note_on_c, 0, 93, 58
2, 265175, Note_on_c, 0, 98, 38
2, 265212, Note_on_c, 0, 93, 0
2, 265268, Note_on_c, 0, 102, 59
2, 265335, Note_on_c, 0, 98, 0
2, 265339, Note_on_c, 0, 102, 0
2, 265367, Note_on_c, 0, 103, 61
2, 265479, Note_on_c, 0, 102, 60
2, 265490, Note_on_c, 0, 103, 0
2, 265537, Note_on_c, 0, 102, 0
2, 265584, Note_on_c, 0, 103, 55
2, 265662, Note_on_c, 0, 102, 59
2, 265678, Note_on_c, 0, 24, 0
2, 265703, Note_on_c, 0, 103, 0
2, 265739, Note_on_c, 0, 102, 0
2, 265894, Note_on_c, 0, 24, 62
2, 266296, Control_c, 0, 64, 0
2, 266330, Note_on_c, 0, 24, 0
2, 266423, Note_on_c, 0, 24, 54
2, 266909, Note_on_c, 0, 24, 0
2, 266914, Note_on_c, 0, 36, 0
2, 266914, End_track
3, 0, Start_track
3, 0, MIDI_port, 0
3, 0, Title_t, "Kern/Fields"
3, 0, End_track
4, 0, Start_track
4, 0, MIDI_port, 0
4, 0, Title_t, "Sequence by"
4, 391, Program_c, 1, 35
4, 392, Control_c, 1, 7, 100
4, 3044, Note_on_c, 1, 38, 81
4, 3386, Note_on_c, 1, 37, 55
4, 3437, Note_on_c, 1, 38, 0
4, 3455, Note_on_c, 1, 45, 101
4, 3478, Note_on_c, 1, 37, 0
4, 3776, Note_on_c, 1, 38, 74
4, 3832, Note_on_c, 1, 45, 0
4, 3854, Note_on_c, 1, 38, 0
4, 3854, Note_on_c, 1, 43, 66
4, 4191, Note_on_c, 1, 43, 0
4, 4238, Note_on_c, 1, 41, 75
4, 4558, Note_on_c, 1, 41, 0
4, 4608, Note_on_c, 1, 40, 57
4, 4882, Note_on_c, 1, 36, 77
4, 4911, Note_on_c, 1, 36, 0
4, 4914, Note_on_c, 1, 40, 0
4, 4965, Note_on_c, 1, 30, 79
4, 5266, Note_on_c, 1, 30, 0
4, 5277, Note_on_c, 1, 36, 66
4, 5321, Note_on_c, 1, 36, 0
4, 5394, Note_on_c, 1, 29, 51
4, 5641, Note_on_c, 1, 29, 0
4, 5643, Note_on_c, 1, 36, 72
4, 5687, Note_on_c, 1, 36, 0
4, 5736, Note_on_c, 1, 41, 74
4, 6076, Note_on_c, 1, 41, 0
4, 6107, Note_on_c, 1, 40, 62
4, 6394, Note_on_c, 1, 39, 51
4, 6438, Note_on_c, 1, 40, 0
4, 6470, Note_on_c, 1, 39, 0
4, 6498, Note_on_c, 1, 47, 85
4, 6801, Note_on_c, 1, 40, 44
4, 6832, Note_on_c, 1, 47, 0
4, 6837, Note_on_c, 1, 40, 0
4, 6886, Note_on_c, 1, 52, 79
4, 7161, Note_on_c, 1, 42, 65
4, 7181, Note_on_c, 1, 52, 0
4, 7189, Note_on_c, 1, 42, 0
4, 7265, Note_on_c, 1, 46, 71
4, 7615, Note_on_c, 1, 46, 0
4, 7656, Note_on_c, 1, 45, 55
4, 7695, Note_on_c, 1, 45, 0
4, 7895, Note_on_c, 1, 40, 76
4, 7965, Note_on_c, 1, 40, 0
4, 8022, Note_on_c, 1, 39, 63
4, 8307, Note_on_c, 1, 37, 52
4, 8349, Note_on_c, 1, 39, 0
4, 8396, Note_on_c, 1, 37, 0
4, 8402, Note_on_c, 1, 38, 64
4, 8688, Note_on_c, 1, 39, 65
4, 8713, Note_on_c, 1, 38, 0
4, 8760, Note_on_c, 1, 39, 0
4, 8785, Note_on_c, 1, 44, 88
4, 9151, Note_on_c, 1, 44, 0
4, 9192, Note_on_c, 1, 43, 57
4, 9455, Note_on_c, 1, 38, 65
4, 9495, Note_on_c, 1, 38, 0
4, 9575, Note_on_c, 1, 55, 88
4, 10148, Note_on_c, 1, 43, 0
4, 10232, Note_on_c, 1, 42, 65
4, 10328, Note_on_c, 1, 42, 0
4, 10366, Note_on_c, 1, 43, 66
4, 10557, Note_on_c, 1, 55, 0
4, 10661, Note_on_c, 1, 42, 54
4, 10761, Note_on_c, 1, 56, 82
4, 10767, Note_on_c, 1, 42, 0
4, 11213, Note_on_c, 1, 42, 49
4, 11245, Note_on_c, 1, 42, 0
4, 11311, Note_on_c, 1, 56, 0
4, 11340, Note_on_c, 1, 55, 85
4, 11721, Note_on_c, 1, 39, 72
4, 11731, Note_on_c, 1, 43, 0
4, 11801, Note_on_c, 1, 39, 0
4, 11801, Note_on_c, 1, 55, 0
4, 11856, Note_on_c, 1, 42, 77
4, 12143, Note_on_c, 1, 39, 50
4, 12219, Note_on_c, 1, 42, 0
4, 12228, Note_on_c, 1, 39, 0
4, 12258, Note_on_c, 1, 43, 63
4, 12625, Note_on_c, 1, 43, 0
4, 12640, Note_on_c, 1, 38, 63
4, 13020, Note_on_c, 1, 38, 0
4, 13039, Note_on_c, 1, 31, 49
4, 13272, Note_on_c, 1, 31, 0
4, 13281, Note_on_c, 1, 34, 71
4, 13355, Note_on_c, 1, 34, 0
4, 13399, Note_on_c, 1, 35, 68
4, 13654, Note_on_c, 1, 34, 49
4, 13741, Note_on_c, 1, 34, 0
4, 13747, Note_on_c, 1, 35, 0
4, 13775, Note_on_c, 1, 36, 57
4, 14044, Note_on_c, 1, 34, 51
4, 14084, Note_on_c, 1, 36, 0
4, 14152, Note_on_c, 1, 38, 71
4, 14162, Note_on_c, 1, 34, 0
4, 14411, Note_on_c, 1, 34, 56
4, 14519, Note_on_c, 1, 34, 0
4, 14529, Note_on_c, 1, 38, 0
4, 14568, Note_on_c, 1, 40, 61
4, 14834, Note_on_c, 1, 40, 0
4, 14836, Note_on_c, 1, 34, 46
4, 14904, Note_on_c, 1, 34, 0
4, 14939, Note_on_c, 1, 39, 71
4, 15285, Note_on_c, 1, 39, 0
4, 15321, Note_on_c, 1, 40, 65
4, 15574, Note_on_c, 1, 40, 0
4, 15612, Note_on_c, 1, 47, 76
4, 15707, Note_on_c, 1, 47, 0
4, 15753, Note_on_c, 1, 43, 54
4, 16004, Note_on_c, 1, 33, 74
4, 16015, Note_on_c, 1, 43, 0
4, 16075, Note_on_c, 1, 33, 0
4, 16161, Note_on_c, 1, 37, 56
4, 16476, Note_on_c, 1, 37, 0
4, 16499, Note_on_c, 1, 40, 79
4, 16721, Note_on_c, 1, 40, 0
4, 16755, Note_on_c, 1, 37, 66
4, 16855, Note_on_c, 1, 37, 0
4, 16880, Note_on_c, 1, 38, 62
4, 17134, Note_on_c, 1, 37, 55
4, 17151, Note_on_c, 1, 38, 0
4, 17207, Note_on_c, 1, 37, 0
4, 17237, Note_on_c, 1, 40, 75
4, 17579, Note_on_c, 1, 40, 0
4, 17632, Note_on_c, 1, 42, 64
4, 17920, Note_on_c, 1, 37, 49
4, 17948, Note_on_c, 1, 37, 0
4, 17975, Note_on_c, 1, 42, 0
4, 18039, Note_on_c, 1, 40, 52
4, 18353, Note_on_c, 1, 40, 0
4, 18372, Note_on_c, 1, 34, 47
4, 18409, Note_on_c, 1, 37, 65
4, 18418, Note_on_c, 1, 34, 0
4, 18682, Note_on_c, 1, 34, 50
4, 18711, Note_on_c, 1, 34, 0
4, 18786, Note_on_c, 1, 47, 68
4, 18797, Note_on_c, 1, 37, 0
4, 19051, Note_on_c, 1, 37, 44
4, 19108, Note_on_c, 1, 47, 0
4, 19146, Note_on_c, 1, 37, 0
4, 19147, Note_on_c, 1, 42, 59
4, 19424, Note_on_c, 1, 37, 73
4, 19477, Note_on_c, 1, 42, 0
4, 19504, Note_on_c, 1, 37, 0
4, 19603, Note_on_c, 1, 36, 43
4, 19895, Note_on_c, 1, 36, 0
4, 19944, Note_on_c, 1, 35, 55
4, 20202, Note_on_c, 1, 40, 57
4, 20254, Note_on_c, 1, 35, 0
4, 20269, Note_on_c, 1, 40, 0
4, 20319, Note_on_c, 1, 52, 85
4, 20642, Note_on_c, 1, 52, 0
4, 20696, Note_on_c, 1, 47, 62
4, 20945, Note_on_c, 1, 47, 0
4, 20966, Note_on_c, 1, 40, 57
4, 21350, Note_on_c, 1, 40, 0
4, 21351, Note_on_c, 1, 34, 64
4, 21423, Note_on_c, 1, 34, 0
4, 21498, Note_on_c, 1, 33, 45
4, 21859, Note_on_c, 1, 45, 81
4, 22495, Note_on_c, 1, 33, 0
4, 22513, Note_on_c, 1, 40, 55
4, 22558, Note_on_c, 1, 40, 0
4, 22618, Note_on_c, 1, 33, 82
4, 23276, Note_on_c, 1, 40, 56
4, 23333, Note_on_c, 1, 45, 0
4, 23346, Note_on_c, 1, 40, 0
4, 23407, Note_on_c, 1, 46, 97
4, 23642, Note_on_c, 1, 46, 0
4, 23660, Note_on_c, 1, 45, 76
4, 23957, Note_on_c, 1, 45, 0
4, 24043, Note_on_c, 1, 33, 0
4, 24043, Note_on_c, 1, 40, 91
4, 24111, Note_on_c, 1, 40, 0
4, 24189, Note_on_c, 1, 33, 95
4, 25178, Note_on_c, 1, 40, 58
4, 25218, Note_on_c, 1, 40, 0
4, 25260, Note_on_c, 1, 45, 86
4, 25299, Note_on_c, 1, 33, 0
4, 25336, Note_on_c, 1, 45, 0
4, 25392, Note_on_c, 1, 45, 43
4, 25555, Note_on_c, 1, 36, 83
4, 25573, Note_on_c, 1, 45, 0
4, 25685, Note_on_c, 1, 36, 0
4, 25688, Note_on_c, 1, 37, 69
4, 25957, Note_on_c, 1, 34, 53
4, 26050, Note_on_c, 1, 37, 0
4, 26059, Note_on_c, 1, 34, 0
4, 26067, Note_on_c, 1, 38, 62
4, 26377, Note_on_c, 1, 37, 40
4, 26427, Note_on_c, 1, 38, 0
4, 26468, Note_on_c, 1, 40, 67
4, 26469, Note_on_c, 1, 37, 0
4, 26730, Note_on_c, 1, 37, 42
4, 26778, Note_on_c, 1, 37, 0
4, 26800, Note_on_c, 1, 40, 0
4, 26871, Note_on_c, 1, 42, 58
4, 27061, Note_on_c, 1, 42, 0
4, 27105, Note_on_c, 1, 37, 72
4, 27201, Note_on_c, 1, 37, 0
4, 27234, Note_on_c, 1, 38, 64
4, 27477, Note_on_c, 1, 37, 52
4, 27527, Note_on_c, 1, 38, 0
4, 27618, Note_on_c, 1, 39, 56
4, 27621, Note_on_c, 1, 37, 0
4, 27864, Note_on_c, 1, 37, 59
4, 27965, Note_on_c, 1, 37, 0
4, 27972, Note_on_c, 1, 39, 0
4, 27994, Note_on_c, 1, 43, 60
4, 28265, Note_on_c, 1, 39, 55
4, 28329, Note_on_c, 1, 43, 0
4, 28352, Note_on_c, 1, 39, 0
4, 28376, Note_on_c, 1, 51, 83
4, 28711, Note_on_c, 1, 51, 0
4, 28761, Note_on_c, 1, 46, 66
4, 29027, Note_on_c, 1, 41, 54
4, 29065, Note_on_c, 1, 41, 0
4, 29086, Note_on_c, 1, 46, 0
4, 29150, Note_on_c, 1, 43, 45
4, 29401, Note_on_c, 1, 39, 52
4, 29481, Note_on_c, 1, 39, 0
4, 29486, Note_on_c, 1, 43, 0
4, 29522, Note_on_c, 1, 41, 72
4, 29784, Note_on_c, 1, 37, 56
4, 29826, Note_on_c, 1, 41, 0
4, 29897, Note_on_c, 1, 37, 0
4, 29900, Note_on_c, 1, 39, 65
4, 30227, Note_on_c, 1, 39, 0
4, 30314, Note_on_c, 1, 38, 90
4, 30636, Note_on_c, 1, 38, 0
4, 30677, Note_on_c, 1, 39, 63
4, 31049, Note_on_c, 1, 39, 0
4, 31101, Note_on_c, 1, 41, 57
4, 31351, Note_on_c, 1, 39, 57
4, 31413, Note_on_c, 1, 41, 0
4, 31427, Note_on_c, 1, 39, 0
4, 31465, Note_on_c, 1, 43, 64
4, 31737, Note_on_c, 1, 39, 54
4, 31788, Note_on_c, 1, 43, 0
4, 31806, Note_on_c, 1, 39, 0
4, 31832, Note_on_c, 1, 46, 81
4, 32186, Note_on_c, 1, 46, 0
4, 32223, Note_on_c, 1, 51, 92
4, 32490, Note_on_c, 1, 39, 47
4, 32589, Note_on_c, 1, 39, 0
4, 32611, Note_on_c, 1, 43, 72
4, 32834, Note_on_c, 1, 43, 0
4, 32864, Note_on_c, 1, 51, 0
4, 32874, Note_on_c, 1, 39, 65
4, 32977, Note_on_c, 1, 39, 0
4, 33002, Note_on_c, 1, 41, 76
4, 33275, Note_on_c, 1, 39, 61
4, 33303, Note_on_c, 1, 41, 0
4, 33377, Note_on_c, 1, 39, 0
4, 33386, Note_on_c, 1, 42, 79
4, 33672, Note_on_c, 1, 39, 44
4, 33736, Note_on_c, 1, 42, 0
4, 33741, Note_on_c, 1, 39, 0
4, 33783, Note_on_c, 1, 43, 58
4, 33885, Note_on_c, 1, 43, 0
4, 33914, Note_on_c, 1, 38, 87
4, 33991, Note_on_c, 1, 38, 0
4, 34046, Note_on_c, 1, 34, 89
4, 34131, Note_on_c, 1, 34, 0
4, 34162, Note_on_c, 1, 36, 101
4, 34456, Note_on_c, 1, 36, 0
4, 34517, Note_on_c, 1, 36, 77
4, 34892, Note_on_c, 1, 36, 0
4, 34926, Note_on_c, 1, 37, 83
4, 35171, Note_on_c, 1, 34, 53
4, 35194, Note_on_c, 1, 37, 0
4, 35281, Note_on_c, 1, 34, 0
4, 35287, Note_on_c, 1, 38, 72
4, 35528, Note_on_c, 1, 38, 0
4, 35548, Note_on_c, 1, 35, 84
4, 35622, Note_on_c, 1, 35, 0
4, 35675, Note_on_c, 1, 30, 67
4, 36010, Note_on_c, 1, 30, 0
4, 36062, Note_on_c, 1, 31, 73
4, 36367, Note_on_c, 1, 31, 0
4, 36409, Note_on_c, 1, 35, 70
4, 36677, Note_on_c, 1, 34, 52
4, 36762, Note_on_c, 1, 35, 0
4, 36796, Note_on_c, 1, 34, 0
4, 36811, Note_on_c, 1, 40, 69
4, 37182, Note_on_c, 1, 40, 0
4, 37195, Note_on_c, 1, 34, 74
4, 37532, Note_on_c, 1, 34, 0
4, 37588, Note_on_c, 1, 33, 65
4, 37864, Note_on_c, 1, 34, 56
4, 37867, Note_on_c, 1, 33, 0
4, 37947, Note_on_c, 1, 34, 0
4, 37967, Note_on_c, 1, 44, 83
4, 38162, Note_on_c, 1, 34, 26
4, 38296, Note_on_c, 1, 44, 0
4, 38348, Note_on_c, 1, 43, 70
4, 38353, Note_on_c, 1, 34, 0
4, 38579, Note_on_c, 1, 43, 0
4, 38615, Note_on_c, 1, 38, 68
4, 38680, Note_on_c, 1, 38, 0
4, 38722, Note_on_c, 1, 32, 72
4, 39019, Note_on_c, 1, 38, 56
4, 39023, Note_on_c, 1, 32, 0
4, 39086, Note_on_c, 1, 38, 0
4, 39131, Note_on_c, 1, 31, 69
4, 39342, Note_on_c, 1, 31, 0
4, 39402, Note_on_c, 1, 39, 100
4, 39778, Note_on_c, 1, 37, 59
4, 39867, Note_on_c, 1, 39, 0
4, 39891, Note_on_c, 1, 38, 77
4, 39906, Note_on_c, 1, 37, 0
4, 40178, Note_on_c, 1, 37, 56
4, 40240, Note_on_c, 1, 38, 0
4, 40282, Note_on_c, 1, 45, 74
4, 40338, Note_on_c, 1, 37, 0
4, 40653, Note_on_c, 1, 45, 0
4, 40678, Note_on_c, 1, 43, 55
4, 41071, Note_on_c, 1, 43, 0
4, 41071, Note_on_c, 1, 35, 62
4, 41402, Note_on_c, 1, 35, 0
4, 41438, Note_on_c, 1, 36, 64
4, 41701, Note_on_c, 1, 48, 77
4, 41746, Note_on_c, 1, 36, 0
4, 41787, Note_on_c, 1, 48, 0
4, 41851, Note_on_c, 1, 45, 52
4, 42119, Note_on_c, 1, 40, 44
4, 42137, Note_on_c, 1, 45, 0
4, 42147, Note_on_c, 1, 40, 0
4, 42223, Note_on_c, 1, 41, 56
4, 42568, Note_on_c, 1, 41, 0
4, 42593, Note_on_c, 1, 40, 65
4, 42936, Note_on_c, 1, 40, 0
4, 42996, Note_on_c, 1, 38, 58
4, 43224, Note_on_c, 1, 32, 55
4, 43273, Note_on_c, 1, 32, 0
4, 43324, Note_on_c, 1, 38, 0
4, 43347, Note_on_c, 1, 36, 76
4, 43583, Note_on_c, 1, 32, 58
4, 43634, Note_on_c, 1, 36, 0
4, 43691, Note_on_c, 1, 32, 0
4, 43723, Note_on_c, 1, 35, 66
4, 43989, Note_on_c, 1, 35, 0
4, 43996, Note_on_c, 1, 40, 79
4, 44024, Note_on_c, 1, 40, 0
4, 44072, Note_on_c, 1, 32, 74
4, 44456, Note_on_c, 1, 32, 0
4, 44494, Note_on_c, 1, 33, 69
4, 44743, Note_on_c, 1, 32, 55
4, 44807, Note_on_c, 1, 33, 0
4, 44819, Note_on_c, 1, 32, 0
4, 44847, Note_on_c, 1, 35, 66
4, 45005, Note_on_c, 1, 35, 0
4, 45115, Note_on_c, 1, 36, 75
4, 45186, Note_on_c, 1, 36, 0
4, 45255, Note_on_c, 1, 38, 73
4, 45517, Note_on_c, 1, 34, 65
4, 45649, Note_on_c, 1, 45, 92
4, 45665, Note_on_c, 1, 34, 0
4, 45670, Note_on_c, 1, 38, 0
4, 45913, Note_on_c, 1, 38, 52
4, 45954, Note_on_c, 1, 38, 0
4, 45992, Note_on_c, 1, 45, 0
4, 46060, Note_on_c, 1, 43, 51
4, 46319, Note_on_c, 1, 38, 54
4, 46358, Note_on_c, 1, 38, 0
4, 46376, Note_on_c, 1, 43, 0
4, 46409, Note_on_c, 1, 50, 87
4, 47060, Note_on_c, 1, 50, 0
4, 47066, Note_on_c, 1, 43, 62
4, 47099, Note_on_c, 1, 43, 0
4, 47207, Note_on_c, 1, 31, 62
4, 47581, Note_on_c, 1, 43, 81
4, 48109, Note_on_c, 1, 43, 0
4, 48212, Note_on_c, 1, 43, 92
4, 48552, Note_on_c, 1, 31, 0
4, 48623, Note_on_c, 1, 38, 67
4, 48656, Note_on_c, 1, 38, 0
4, 48754, Note_on_c, 1, 31, 99
4, 50143, Note_on_c, 1, 34, 62
4, 50146, Note_on_c, 1, 31, 0
4, 50146, Note_on_c, 1, 43, 0
4, 50271, Note_on_c, 1, 34, 0
4, 50292, Note_on_c, 1, 35, 73
4, 50518, Note_on_c, 1, 35, 0
4, 50533, Note_on_c, 1, 36, 94
4, 50644, Note_on_c, 1, 36, 0
4, 51304, Note_on_c, 1, 43, 93
4, 51389, Note_on_c, 1, 43, 0
4, 51416, Note_on_c, 1, 40, 84
4, 51618, Note_on_c, 1, 40, 0
4, 51688, Note_on_c, 1, 36, 63
4, 51725, Note_on_c, 1, 36, 0
4, 51788, Note_on_c, 1, 37, 62
4, 52044, Note_on_c, 1, 34, 50
4, 52142, Note_on_c, 1, 37, 0
4, 52168, Note_on_c, 1, 34, 0
4, 52173, Note_on_c, 1, 38, 56
4, 52439, Note_on_c, 1, 45, 99
4, 52445, Note_on_c, 1, 38, 0
4, 52525, Note_on_c, 1, 45, 0
4, 52582, Note_on_c, 1, 41, 67
4, 52850, Note_on_c, 1, 38, 48
4, 52870, Note_on_c, 1, 41, 0
4, 52884, Note_on_c, 1, 38, 0
4, 52969, Note_on_c, 1, 47, 59
4, 53268, Note_on_c, 1, 47, 0
4, 53319, Note_on_c, 1, 43, 55
4, 53583, Note_on_c, 1, 38, 67
4, 53629, Note_on_c, 1, 38, 0
4, 53656, Note_on_c, 1, 43, 0
4, 53705, Note_on_c, 1, 48, 70
4, 53997, Note_on_c, 1, 48, 0
4, 54070, Note_on_c, 1, 42, 65
4, 54404, Note_on_c, 1, 42, 0
4, 54471, Note_on_c, 1, 41, 60
4, 54783, Note_on_c, 1, 36, 81
4, 54789, Note_on_c, 1, 41, 0
4, 54827, Note_on_c, 1, 36, 0
4, 54892, Note_on_c, 1, 36, 50
4, 55207, Note_on_c, 1, 36, 0
4, 55245, Note_on_c, 1, 35, 65
4, 55607, Note_on_c, 1, 35, 0
4, 55624, Note_on_c, 1, 47, 68
4, 55894, Note_on_c, 1, 35, 56
4, 55895, Note_on_c, 1, 47, 0
4, 55937, Note_on_c, 1, 35, 0
4, 56003, Note_on_c, 1, 40, 69
4, 56210, Note_on_c, 1, 40, 0
4, 56277, Note_on_c, 1, 40, 69
4, 56308, Note_on_c, 1, 40, 0
4, 56389, Note_on_c, 1, 34, 71
4, 56770, Note_on_c, 1, 34, 0
4, 56781, Note_on_c, 1, 33, 70
4, 57043, Note_on_c, 1, 34, 64
4, 57107, Note_on_c, 1, 33, 0
4, 57129, Note_on_c, 1, 34, 0
4, 57165, Note_on_c, 1, 40, 69
4, 57176, Note_on_c, 1, 45, 56
4, 57210, Note_on_c, 1, 45, 0
4, 57411, Note_on_c, 1, 40, 0
4, 57427, Note_on_c, 1, 39, 79
4, 57533, Note_on_c, 1, 39, 0
4, 57571, Note_on_c, 1, 38, 65
4, 57820, Note_on_c, 1, 37, 69
4, 57859, Note_on_c, 1, 38, 0
4, 57929, Note_on_c, 1, 47, 81
4, 57936, Note_on_c, 1, 37, 0
4, 58425, Note_on_c, 1, 47, 0
4, 58436, Note_on_c, 1, 43, 76
4, 58464, Note_on_c, 1, 43, 0
4, 58564, Note_on_c, 1, 38, 70
4, 58610, Note_on_c, 1, 38, 0
4, 58684, Note_on_c, 1, 32, 81
4, 59058, Note_on_c, 1, 32, 0
4, 59084, Note_on_c, 1, 31, 66
4, 59351, Note_on_c, 1, 38, 58
4, 59395, Note_on_c, 1, 38, 0
4, 59396, Note_on_c, 1, 31, 0
4, 59455, Note_on_c, 1, 43, 108
4, 60115, Note_on_c, 1, 38, 69
4, 60152, Note_on_c, 1, 43, 0
4, 60156, Note_on_c, 1, 38, 0
4, 60240, Note_on_c, 1, 31, 82
4, 60874, Note_on_c, 1, 38, 71
4, 60902, Note_on_c, 1, 38, 0
4, 60997, Note_on_c, 1, 43, 97
4, 61207, Note_on_c, 1, 43, 0
4, 61251, Note_on_c, 1, 44, 83
4, 61358, Note_on_c, 1, 44, 0
4, 61395, Note_on_c, 1, 43, 61
4, 61571, Note_on_c, 1, 31, 0
4, 61628, Note_on_c, 1, 43, 0
4, 61641, Note_on_c, 1, 31, 95
4, 62392, Note_on_c, 1, 34, 77
4, 62410, Note_on_c, 1, 31, 0
4, 62474, Note_on_c, 1, 34, 0
4, 62519, Note_on_c, 1, 35, 68
4, 62738, Note_on_c, 1, 35, 0
4, 62780, Note_on_c, 1, 36, 89
4, 63168, Note_on_c, 1, 34, 62
4, 63224, Note_on_c, 1, 36, 0
4, 63288, Note_on_c, 1, 38, 74
4, 63309, Note_on_c, 1, 34, 0
4, 63554, Note_on_c, 1, 34, 56
4, 63636, Note_on_c, 1, 34, 0
4, 63672, Note_on_c, 1, 38, 0
4, 63694, Note_on_c, 1, 40, 56
4, 64010, Note_on_c, 1, 40, 0
4, 64065, Note_on_c, 1, 39, 68
4, 64336, Note_on_c, 1, 37, 54
4, 64364, Note_on_c, 1, 37, 0
4, 64410, Note_on_c, 1, 39, 0
4, 64438, Note_on_c, 1, 40, 67
4, 64719, Note_on_c, 1, 37, 65
4, 64790, Note_on_c, 1, 40, 0
4, 64791, Note_on_c, 1, 37, 0
4, 64843, Note_on_c, 1, 47, 66
4, 65077, Note_on_c, 1, 37, 61
4, 65133, Note_on_c, 1, 37, 0
4, 65145, Note_on_c, 1, 47, 0
4, 65234, Note_on_c, 1, 45, 55
4, 65466, Note_on_c, 1, 40, 74
4, 65512, Note_on_c, 1, 45, 0
4, 65572, Note_on_c, 1, 40, 0
4, 65598, Note_on_c, 1, 33, 69
4, 65900, Note_on_c, 1, 33, 0
4, 65973, Note_on_c, 1, 38, 69
4, 66229, Note_on_c, 1, 37, 62
4, 66291, Note_on_c, 1, 37, 0
4, 66314, Note_on_c, 1, 38, 0
4, 66360, Note_on_c, 1, 40, 64
4, 66637, Note_on_c, 1, 38, 50
4, 66681, Note_on_c, 1, 38, 0
4, 66713, Note_on_c, 1, 40, 0
4, 66757, Note_on_c, 1, 43, 55
4, 67024, Note_on_c, 1, 38, 68
4, 67056, Note_on_c, 1, 38, 0
4, 67056, Note_on_c, 1, 43, 0
4, 67282, Note_on_c, 1, 35, 21
4, 67512, Note_on_c, 1, 35, 0
4, 67530, Note_on_c, 1, 37, 63
4, 67785, Note_on_c, 1, 34, 53
4, 67885, Note_on_c, 1, 34, 0
4, 67914, Note_on_c, 1, 37, 0
4, 67922, Note_on_c, 1, 47, 58
4, 68234, Note_on_c, 1, 47, 0
4, 68282, Note_on_c, 1, 42, 77
4, 68576, Note_on_c, 1, 37, 46
4, 68668, Note_on_c, 1, 37, 0
4, 68942, Note_on_c, 1, 42, 0
4, 68945, Note_on_c, 1, 37, 63
4, 69027, Note_on_c, 1, 37, 0
4, 69059, Note_on_c, 1, 47, 75
4, 69427, Note_on_c, 1, 47, 0
4, 69430, Note_on_c, 1, 39, 71
4, 69675, Note_on_c, 1, 37, 46
4, 69762, Note_on_c, 1, 39, 0
4, 69776, Note_on_c, 1, 37, 0
4, 69807, Note_on_c, 1, 40, 65
4, 70146, Note_on_c, 1, 40, 0
4, 70184, Note_on_c, 1, 34, 65
4, 70552, Note_on_c, 1, 34, 0
4, 70597, Note_on_c, 1, 33, 51
4, 70866, Note_on_c, 1, 40, 66
4, 70903, Note_on_c, 1, 40, 0
4, 70977, Note_on_c, 1, 45, 74
4, 71255, Note_on_c, 1, 40, 45
4, 71301, Note_on_c, 1, 40, 0
4, 71307, Note_on_c, 1, 45, 0
4, 71392, Note_on_c, 1, 46, 49
4, 71684, Note_on_c, 1, 46, 0
4, 71716, Note_on_c, 1, 33, 0
4, 71771, Note_on_c, 1, 45, 49
4, 71991, Note_on_c, 1, 45, 0
4, 72005, Note_on_c, 1, 40, 79
4, 72085, Note_on_c, 1, 40, 0
4, 72163, Note_on_c, 1, 33, 56
4, 72781, Note_on_c, 1, 40, 60
4, 72817, Note_on_c, 1, 40, 0
4, 73043, Note_on_c, 1, 48, 80
4, 73117, Note_on_c, 1, 48, 0
4, 73187, Note_on_c, 1, 46, 56
4, 73228, Note_on_c, 1, 46, 0
4, 73324, Note_on_c, 1, 45, 56
4, 73567, Note_on_c, 1, 40, 49
4, 73587, Note_on_c, 1, 45, 0
4, 73634, Note_on_c, 1, 40, 0
4, 73682, Note_on_c, 1, 48, 70
4, 73721, Note_on_c, 1, 48, 0
4, 73755, Note_on_c, 1, 33, 0
4, 73834, Note_on_c, 1, 47, 51
4, 73882, Note_on_c, 1, 47, 0
4, 73920, Note_on_c, 1, 45, 68
4, 73982, Note_on_c, 1, 45, 0
4, 74224, Note_on_c, 1, 48, 73
4, 74304, Note_on_c, 1, 48, 0
4, 74324, Note_on_c, 1, 47, 66
4, 74371, Note_on_c, 1, 47, 0
4, 74664, Note_on_c, 1, 33, 79
4, 74783, Note_on_c, 1, 36, 82
4, 74791, Note_on_c, 1, 33, 0
4, 75038, Note_on_c, 1, 36, 0
4, 75078, Note_on_c, 1, 37, 76
4, 75192, Note_on_c, 1, 37, 0
4, 75216, Note_on_c, 1, 38, 56
4, 75430, Note_on_c, 1, 37, 58
4, 75480, Note_on_c, 1, 38, 0
4, 75503, Note_on_c, 1, 37, 0
4, 75536, Note_on_c, 1, 40, 73
4, 75741, Note_on_c, 1, 37, 47
4, 75826, Note_on_c, 1, 37, 0
4, 75883, Note_on_c, 1, 40, 0
4, 75940, Note_on_c, 1, 42, 57
4, 76164, Note_on_c, 1, 42, 0
4, 76203, Note_on_c, 1, 37, 69
4, 76295, Note_on_c, 1, 37, 0
4, 76341, Note_on_c, 1, 38, 61
4, 76657, Note_on_c, 1, 38, 0
4, 76726, Note_on_c, 1, 39, 68
4, 76961, Note_on_c, 1, 37, 55
4, 77095, Note_on_c, 1, 37, 0
4, 77098, Note_on_c, 1, 39, 0
4, 77107, Note_on_c, 1, 43, 55
4, 77369, Note_on_c, 1, 39, 54
4, 77469, Note_on_c, 1, 43, 0
4, 77494, Note_on_c, 1, 39, 0
4, 77522, Note_on_c, 1, 51, 54
4, 77793, Note_on_c, 1, 39, 44
4, 77879, Note_on_c, 1, 51, 0
4, 77897, Note_on_c, 1, 39, 0
4, 77898, Note_on_c, 1, 50, 72
4, 78228, Note_on_c, 1, 50, 0
4, 78272, Note_on_c, 1, 48, 74
4, 78564, Note_on_c, 1, 43, 66
4, 78619, Note_on_c, 1, 48, 0
4, 78652, Note_on_c, 1, 43, 0
4, 78662, Note_on_c, 1, 46, 71
4, 78981, Note_on_c, 1, 46, 0
4, 79062, Note_on_c, 1, 43, 56
4, 79316, Note_on_c, 1, 39, 56
4, 79362, Note_on_c, 1, 39, 0
4, 79414, Note_on_c, 1, 41, 79
4, 79415, Note_on_c, 1, 43, 0
4, 79688, Note_on_c, 1, 37, 55
4, 79747, Note_on_c, 1, 41, 0
4, 79764, Note_on_c, 1, 37, 0
4, 79788, Note_on_c, 1, 39, 68
4, 80136, Note_on_c, 1, 39, 0
4, 80188, Note_on_c, 1, 36, 76
4, 80525, Note_on_c, 1, 36, 0
4, 80580, Note_on_c, 1, 37, 62
4, 80844, Note_on_c, 1, 34, 50
4, 80966, Note_on_c, 1, 34, 0
4, 80972, Note_on_c, 1, 38, 70
4, 80974, Note_on_c, 1, 37, 0
4, 81230, Note_on_c, 1, 38, 0
4, 81239, Note_on_c, 1, 37, 56
4, 81334, Note_on_c, 1, 37, 0
4, 81359, Note_on_c, 1, 39, 71
4, 81678, Note_on_c, 1, 39, 0
4, 81715, Note_on_c, 1, 34, 69
4, 82001, Note_on_c, 1, 39, 63
4, 82070, Note_on_c, 1, 34, 0
4, 82084, Note_on_c, 1, 39, 0
4, 82131, Note_on_c, 1, 43, 79
4, 82469, Note_on_c, 1, 43, 0
4, 82501, Note_on_c, 1, 42, 72
4, 82821, Note_on_c, 1, 42, 0
4, 82899, Note_on_c, 1, 43, 60
4, 83067, Note_on_c, 1, 43, 0
4, 83149, Note_on_c, 1, 38, 77
4, 83218, Note_on_c, 1, 38, 0
4, 83286, Note_on_c, 1, 35, 72
4, 83636, Note_on_c, 1, 35, 0
4, 83667, Note_on_c, 1, 31, 67
4, 83961, Note_on_c, 1, 35, 47
4, 83984, Note_on_c, 1, 31, 0
4, 84009, Note_on_c, 1, 35, 0
4, 84032, Note_on_c, 1, 38, 78
4, 84310, Note_on_c, 1, 35, 60
4, 84319, Note_on_c, 1, 38, 0
4, 84374, Note_on_c, 1, 35, 0
4, 84429, Note_on_c, 1, 43, 84
4, 84793, Note_on_c, 1, 43, 0
4, 84813, Note_on_c, 1, 40, 65
4, 85144, Note_on_c, 1, 40, 0
4, 85201, Note_on_c, 1, 38, 72
4, 85450, Note_on_c, 1, 35, 72
4, 85515, Note_on_c, 1, 38, 0
4, 85520, Note_on_c, 1, 35, 0
4, 85576, Note_on_c, 1, 39, 69
4, 85912, Note_on_c, 1, 39, 0
4, 85941, Note_on_c, 1, 40, 69
4, 86291, Note_on_c, 1, 40, 0
4, 86322, Note_on_c, 1, 34, 73
4, 86671, Note_on_c, 1, 34, 0
4, 86731, Note_on_c, 1, 33, 66
4, 87064, Note_on_c, 1, 33, 0
4, 87111, Note_on_c, 1, 39, 76
4, 87376, Note_on_c, 1, 37, 57
4, 87451, Note_on_c, 1, 39, 0
4, 87487, Note_on_c, 1, 37, 0
4, 87492, Note_on_c, 1, 38, 73
4, 87767, Note_on_c, 1, 45, 85
4, 87795, Note_on_c, 1, 38, 0
4, 87845, Note_on_c, 1, 45, 0
4, 87902, Note_on_c, 1, 44, 71
4, 88156, Note_on_c, 1, 38, 67
4, 88202, Note_on_c, 1, 38, 0
4, 88206, Note_on_c, 1, 44, 0
4, 88265, Note_on_c, 1, 43, 58
4, 88500, Note_on_c, 1, 43, 0
4, 88520, Note_on_c, 1, 37, 99
4, 88960, Note_on_c, 1, 34, 44
4, 89035, Note_on_c, 1, 37, 0
4, 89049, Note_on_c, 1, 38, 60
4, 89080, Note_on_c, 1, 34, 0
4, 89302, Note_on_c, 1, 48, 107
4, 89381, Note_on_c, 1, 38, 0
4, 89430, Note_on_c, 1, 48, 0
4, 89455, Note_on_c, 1, 45, 59
4, 89720, Note_on_c, 1, 38, 60
4, 89753, Note_on_c, 1, 38, 0
4, 89769, Note_on_c, 1, 45, 0
4, 89803, Note_on_c, 1, 47, 70
4, 90139, Note_on_c, 1, 47, 0
4, 90187, Note_on_c, 1, 43, 49
4, 90449, Note_on_c, 1, 38, 57
4, 90483, Note_on_c, 1, 38, 0
4, 90520, Note_on_c, 1, 43, 0
4, 90569, Note_on_c, 1, 40, 60
4, 90935, Note_on_c, 1, 29, 67
4, 90984, Note_on_c, 1, 40, 0
4, 91236, Note_on_c, 1, 36, 63
4, 91278, Note_on_c, 1, 36, 0
4, 91311, Note_on_c, 1, 29, 0
4, 91358, Note_on_c, 1, 41, 67
4, 91678, Note_on_c, 1, 41, 0
4, 91720, Note_on_c, 1, 34, 79
4, 92081, Note_on_c, 1, 34, 0
4, 92102, Note_on_c, 1, 35, 66
4, 92363, Note_on_c, 1, 34, 56
4, 92433, Note_on_c, 1, 34, 0
4, 92441, Note_on_c, 1, 35, 0
4, 92486, Note_on_c, 1, 47, 72
4, 92693, Note_on_c, 1, 37, 44
4, 92768, Note_on_c, 1, 37, 0
4, 92863, Note_on_c, 1, 47, 0
4, 92887, Note_on_c, 1, 40, 66
4, 93148, Note_on_c, 1, 37, 59
4, 93168, Note_on_c, 1, 39, 56
4, 93187, Note_on_c, 1, 40, 0
4, 93220, Note_on_c, 1, 39, 0
4, 93276, Note_on_c, 1, 37, 0
4, 93280, Note_on_c, 1, 52, 90
4, 93592, Note_on_c, 1, 52, 0
4, 93678, Note_on_c, 1, 48, 48
4, 93895, Note_on_c, 1, 48, 0
4, 93897, Note_on_c, 1, 39, 86
4, 94363, Note_on_c, 1, 39, 0
4, 94396, Note_on_c, 1, 38, 61
4, 94653, Note_on_c, 1, 39, 70
4, 94701, Note_on_c, 1, 38, 0
4, 94719, Note_on_c, 1, 39, 0
4, 94758, Note_on_c, 1, 44, 75
4, 95143, Note_on_c, 1, 44, 0
4, 95176, Note_on_c, 1, 43, 56
4, 95441, Note_on_c, 1, 38, 49
4, 95479, Note_on_c, 1, 38, 0
4, 95564, Note_on_c, 1, 55, 83
4, 95807, Note_on_c, 1, 55, 0
4, 95959, Note_on_c, 1, 55, 68
4, 96231, Note_on_c, 1, 43, 0
4, 96236, Note_on_c, 1, 31, 49
4, 96244, Note_on_c, 1, 55, 0
4, 96295, Note_on_c, 1, 31, 0
4, 96343, Note_on_c, 1, 43, 54
4, 96721, Note_on_c, 1, 55, 81
4, 96889, Note_on_c, 1, 55, 0
4, 96995, Note_on_c, 1, 38, 72
4, 97034, Note_on_c, 1, 38, 0
4, 97104, Note_on_c, 1, 55, 90
4, 97396, Note_on_c, 1, 31, 52
4, 97403, Note_on_c, 1, 43, 0
4, 97437, Note_on_c, 1, 31, 0
4, 97439, Note_on_c, 1, 55, 0
4, 97513, Note_on_c, 1, 43, 49
4, 97750, Note_on_c, 1, 38, 72
4, 97790, Note_on_c, 1, 38, 0
4, 97822, Note_on_c, 1, 43, 0
4, 97875, Note_on_c, 1, 56, 71
4, 97879, Note_on_c, 1, 55, 97
4, 98106, Note_on_c, 1, 56, 0
4, 98128, Note_on_c, 1, 38, 65
4, 98138, Note_on_c, 1, 55, 0
4, 98166, Note_on_c, 1, 38, 0
4, 98230, Note_on_c, 1, 55, 86
4, 98513, Note_on_c, 1, 38, 61
4, 98523, Note_on_c, 1, 55, 0
4, 98547, Note_on_c, 1, 38, 0
4, 98629, Note_on_c, 1, 43, 51
4, 98890, Note_on_c, 1, 38, 54
4, 98923, Note_on_c, 1, 38, 0
4, 98970, Note_on_c, 1, 43, 0
4, 98998, Note_on_c, 1, 55, 99
4, 99266, Note_on_c, 1, 55, 0
4, 99393, Note_on_c, 1, 55, 99
4, 99682, Note_on_c, 1, 55, 0
4, 99790, Note_on_c, 1, 43, 44
4, 100136, Note_on_c, 1, 55, 107
4, 100813, Note_on_c, 1, 40, 88
4, 100881, Note_on_c, 1, 55, 0
4, 100883, Note_on_c, 1, 43, 0
4, 100902, Note_on_c, 1, 40, 0
4, 100954, Note_on_c, 1, 39, 62
4, 101198, Note_on_c, 1, 37, 65
4, 101207, Note_on_c, 1, 39, 0
4, 101297, Note_on_c, 1, 37, 0
4, 101326, Note_on_c, 1, 38, 73
4, 101597, Note_on_c, 1, 37, 66
4, 101639, Note_on_c, 1, 38, 0
4, 101699, Note_on_c, 1, 37, 0
4, 101714, Note_on_c, 1, 48, 111
4, 101954, Note_on_c, 1, 48, 0
4, 101996, Note_on_c, 1, 45, 64
4, 102067, Note_on_c, 1, 45, 0
4, 102114, Note_on_c, 1, 47, 81
4, 102310, Note_on_c, 1, 47, 0
4, 102381, Note_on_c, 1, 42, 68
4, 102457, Note_on_c, 1, 42, 0
4, 102506, Note_on_c, 1, 43, 64
4, 102656, Note_on_c, 1, 43, 0
4, 102727, Note_on_c, 1, 36, 86
4, 102755, Note_on_c, 1, 36, 0
4, 102861, Note_on_c, 1, 40, 83
4, 103120, Note_on_c, 1, 34, 53
4, 103149, Note_on_c, 1, 34, 0
4, 103200, Note_on_c, 1, 40, 0
4, 103240, Note_on_c, 1, 36, 62
4, 103495, Note_on_c, 1, 34, 61
4, 103524, Note_on_c, 1, 36, 0
4, 103549, Note_on_c, 1, 34, 0
4, 103623, Note_on_c, 1, 41, 61
4, 103990, Note_on_c, 1, 41, 0
4, 103991, Note_on_c, 1, 34, 75
4, 104326, Note_on_c, 1, 34, 0
4, 104382, Note_on_c, 1, 35, 53
4, 104638, Note_on_c, 1, 34, 72
4, 104688, Note_on_c, 1, 34, 0
4, 104700, Note_on_c, 1, 35, 0
4, 104767, Note_on_c, 1, 47, 86
4, 104985, Note_on_c, 1, 47, 0
4, 105036, Note_on_c, 1, 39, 74
4, 105149, Note_on_c, 1, 39, 0
4, 105152, Note_on_c, 1, 40, 60
4, 105424, Note_on_c, 1, 52, 96
4, 105430, Note_on_c, 1, 39, 50
4, 105461, Note_on_c, 1, 40, 0
4, 105491, Note_on_c, 1, 39, 0
4, 105522, Note_on_c, 1, 52, 0
4, 105557, Note_on_c, 1, 47, 53
4, 105822, Note_on_c, 1, 42, 68
4, 105853, Note_on_c, 1, 42, 0
4, 105879, Note_on_c, 1, 47, 0
4, 105937, Note_on_c, 1, 50, 75
4, 106259, Note_on_c, 1, 50, 0
4, 106322, Note_on_c, 1, 48, 57
4, 106591, Note_on_c, 1, 39, 55
4, 106646, Note_on_c, 1, 48, 0
4, 106653, Note_on_c, 1, 39, 0
4, 106706, Note_on_c, 1, 50, 67
4, 106959, Note_on_c, 1, 50, 0
4, 106961, Note_on_c, 1, 45, 68
4, 106992, Note_on_c, 1, 45, 0
4, 107120, Note_on_c, 1, 42, 66
4, 107422, Note_on_c, 1, 42, 0
4, 107454, Note_on_c, 1, 43, 61
4, 107749, Note_on_c, 1, 31, 81
4, 107792, Note_on_c, 1, 43, 0
4, 108132, Note_on_c, 1, 38, 70
4, 108186, Note_on_c, 1, 31, 0
4, 108203, Note_on_c, 1, 38, 0
4, 108257, Note_on_c, 1, 43, 78
4, 108524, Note_on_c, 1, 44, 55
4, 108537, Note_on_c, 1, 45, 79
4, 108556, Note_on_c, 1, 43, 0
4, 108608, Note_on_c, 1, 45, 0
4, 108660, Note_on_c, 1, 43, 51
4, 108665, Note_on_c, 1, 44, 0
4, 108917, Note_on_c, 1, 31, 99
4, 109073, Note_on_c, 1, 43, 0
4, 109292, Note_on_c, 1, 38, 72
4, 109353, Note_on_c, 1, 38, 0
4, 109366, Note_on_c, 1, 31, 0
4, 109412, Note_on_c, 1, 43, 64
4, 109622, Note_on_c, 1, 43, 0
4, 109658, Note_on_c, 1, 44, 76
4, 109754, Note_on_c, 1, 44, 0
4, 109810, Note_on_c, 1, 43, 34
4, 109999, Note_on_c, 1, 39, 57
4, 110026, Note_on_c, 1, 39, 0
4, 110033, Note_on_c, 1, 43, 0
4, 110136, Note_on_c, 1, 31, 62
4, 110410, Note_on_c, 1, 38, 78
4, 110449, Note_on_c, 1, 38, 0
4, 110495, Note_on_c, 1, 31, 0
4, 110525, Note_on_c, 1, 43, 65
4, 110746, Note_on_c, 1, 43, 0
4, 110782, Note_on_c, 1, 44, 75
4, 110826, Note_on_c, 1, 38, 36
4, 110870, Note_on_c, 1, 44, 0
4, 110879, Note_on_c, 1, 38, 0
4, 110908, Note_on_c, 1, 43, 45
4, 111154, Note_on_c, 1, 38, 94
4, 111214, Note_on_c, 1, 38, 0
4, 111250, Note_on_c, 1, 43, 0
4, 111291, Note_on_c, 1, 34, 83
4, 111629, Note_on_c, 1, 34, 0
4, 111655, Note_on_c, 1, 35, 76
4, 111935, Note_on_c, 1, 34, 54
4, 112012, Note_on_c, 1, 34, 0
4, 112017, Note_on_c, 1, 35, 0
4, 112040, Note_on_c, 1, 36, 67
4, 112332, Note_on_c, 1, 34, 45
4, 112402, Note_on_c, 1, 36, 0
4, 112422, Note_on_c, 1, 38, 68
4, 112453, Note_on_c, 1, 34, 0
4, 112707, Note_on_c, 1, 36, 71
4, 112764, Note_on_c, 1, 38, 0
4, 112783, Note_on_c, 1, 36, 0
4, 112823, Note_on_c, 1, 41, 55
4, 113091, Note_on_c, 1, 34, 58
4, 113141, Note_on_c, 1, 41, 0
4, 113149, Note_on_c, 1, 34, 0
4, 113198, Note_on_c, 1, 39, 68
4, 113498, Note_on_c, 1, 34, 50
4, 113536, Note_on_c, 1, 34, 0
4, 113539, Note_on_c, 1, 39, 0
4, 113574, Note_on_c, 1, 40, 71
4, 113854, Note_on_c, 1, 37, 61
4, 113911, Note_on_c, 1, 37, 0
4, 113916, Note_on_c, 1, 40, 0
4, 113966, Note_on_c, 1, 52, 85
4, 114339, Note_on_c, 1, 52, 0
4, 114378, Note_on_c, 1, 45, 63
4, 114632, Note_on_c, 1, 43, 63
4, 114688, Note_on_c, 1, 45, 0
4, 114689, Note_on_c, 1, 43, 0
4, 114733, Note_on_c, 1, 51, 82
4, 115102, Note_on_c, 1, 51, 0
4, 115141, Note_on_c, 1, 50, 74
4, 115495, Note_on_c, 1, 50, 0
4, 115537, Note_on_c, 1, 42, 55
4, 115837, Note_on_c, 1, 42, 0
4, 115889, Note_on_c, 1, 43, 52
4, 116252, Note_on_c, 1, 43, 0
4, 116256, Note_on_c, 1, 38, 68
4, 116601, Note_on_c, 1, 38, 0
4, 116647, Note_on_c, 1, 37, 63
4, 116919, Note_on_c, 1, 40, 72
4, 116960, Note_on_c, 1, 40, 0
4, 117011, Note_on_c, 1, 37, 0
4, 117039, Note_on_c, 1, 47, 74
4, 117298, Note_on_c, 1, 37, 50
4, 117363, Note_on_c, 1, 37, 0
4, 117367, Note_on_c, 1, 47, 0
4, 117423, Note_on_c, 1, 42, 62
4, 117806, Note_on_c, 1, 42, 0
4, 117810, Note_on_c, 1, 34, 77
4, 118153, Note_on_c, 1, 34, 0
4, 118206, Note_on_c, 1, 35, 73
4, 118545, Note_on_c, 1, 35, 0
4, 118587, Note_on_c, 1, 39, 80
4, 118929, Note_on_c, 1, 39, 0
4, 118976, Note_on_c, 1, 40, 68
4, 119290, Note_on_c, 1, 40, 0
4, 119347, Note_on_c, 1, 34, 74
4, 119692, Note_on_c, 1, 34, 0
4, 119747, Note_on_c, 1, 33, 63
4, 120014, Note_on_c, 1, 40, 72
4, 120050, Note_on_c, 1, 40, 0
4, 120139, Note_on_c, 1, 45, 85
4, 120191, Note_on_c, 1, 45, 0
4, 120398, Note_on_c, 1, 45, 79
4, 120429, Note_on_c, 1, 45, 0
4, 120519, Note_on_c, 1, 45, 79
4, 120566, Note_on_c, 1, 45, 0
4, 120705, Note_on_c, 1, 33, 0
4, 120777, Note_on_c, 1, 33, 97
4, 121927, Note_on_c, 1, 40, 68
4, 121959, Note_on_c, 1, 40, 0
4, 122054, Note_on_c, 1, 45, 83
4, 122081, Note_on_c, 1, 45, 0
4, 122310, Note_on_c, 1, 46, 76
4, 122384, Note_on_c, 1, 46, 0
4, 122442, Note_on_c, 1, 45, 73
4, 122620, Note_on_c, 1, 33, 0
4, 122688, Note_on_c, 1, 33, 93
4, 122697, Note_on_c, 1, 45, 0
4, 123620, Note_on_c, 1, 35, 59
4, 123623, Note_on_c, 1, 33, 0
4, 123672, Note_on_c, 1, 35, 0
4, 123848, Note_on_c, 1, 36, 79
4, 123943, Note_on_c, 1, 36, 0
4, 123992, Note_on_c, 1, 37, 59
4, 124254, Note_on_c, 1, 34, 50
4, 124337, Note_on_c, 1, 37, 0
4, 124349, Note_on_c, 1, 38, 62
4, 124374, Note_on_c, 1, 34, 0
4, 124713, Note_on_c, 1, 40, 57
4, 124729, Note_on_c, 1, 38, 0
4, 125007, Note_on_c, 1, 37, 61
4, 125057, Note_on_c, 1, 37, 0
4, 125065, Note_on_c, 1, 40, 0
4, 125106, Note_on_c, 1, 42, 56
4, 125369, Note_on_c, 1, 38, 96
4, 125402, Note_on_c, 1, 42, 0
4, 125827, Note_on_c, 1, 38, 0
4, 125863, Note_on_c, 1, 39, 65
4, 126123, Note_on_c, 1, 37, 47
4, 126193, Note_on_c, 1, 39, 0
4, 126209, Note_on_c, 1, 37, 0
4, 126260, Note_on_c, 1, 43, 62
4, 126524, Note_on_c, 1, 39, 53
4, 126612, Note_on_c, 1, 43, 0
4, 126624, Note_on_c, 1, 39, 0
4, 126671, Note_on_c, 1, 51, 55
4, 127236, Note_on_c, 1, 51, 0
4, 127269, Note_on_c, 1, 46, 79
4, 127310, Note_on_c, 1, 43, 45
4, 127349, Note_on_c, 1, 43, 0
4, 127360, Note_on_c, 1, 46, 0
4, 127460, Note_on_c, 1, 48, 51
4, 127643, Note_on_c, 1, 48, 0
4, 127669, Note_on_c, 1, 45, 77
4, 127745, Note_on_c, 1, 45, 0
4, 127802, Note_on_c, 1, 46, 52
4, 127985, Note_on_c, 1, 46, 0
4, 128075, Note_on_c, 1, 44, 49
4, 128121, Note_on_c, 1, 44, 0
4, 128200, Note_on_c, 1, 45, 57
4, 128310, Note_on_c, 1, 45, 0
4, 128455, Note_on_c, 1, 42, 62
4, 128533, Note_on_c, 1, 42, 0
4, 128580, Note_on_c, 1, 43, 55
4, 128706, Note_on_c, 1, 43, 0
4, 128968, Note_on_c, 1, 42, 74
4, 129051, Note_on_c, 1, 42, 0
4, 129347, Note_on_c, 1, 41, 58
4, 129623, Note_on_c, 1, 41, 0
4, 129711, Note_on_c, 1, 39, 73
4, 130090, Note_on_c, 1, 39, 0
4, 130144, Note_on_c, 1, 38, 87
4, 130459, Note_on_c, 1, 38, 0
4, 130508, Note_on_c, 1, 39, 69
4, 130757, Note_on_c, 1, 39, 0
4, 130770, Note_on_c, 1, 34, 83
4, 131248, Note_on_c, 1, 34, 0
4, 131255, Note_on_c, 1, 36, 76
4, 131518, Note_on_c, 1, 34, 69
4, 131577, Note_on_c, 1, 36, 0
4, 131591, Note_on_c, 1, 34, 0
4, 131631, Note_on_c, 1, 42, 77
4, 131853, Note_on_c, 1, 42, 0
4, 131907, Note_on_c, 1, 43, 79
4, 132267, Note_on_c, 1, 43, 0
4, 132285, Note_on_c, 1, 40, 76
4, 132366, Note_on_c, 1, 40, 0
4, 132422, Note_on_c, 1, 42, 65
4, 132497, Note_on_c, 1, 42, 0
4, 132674, Note_on_c, 1, 39, 83
4, 132773, Note_on_c, 1, 39, 0
4, 132819, Note_on_c, 1, 40, 59
4, 133045, Note_on_c, 1, 40, 0
4, 133076, Note_on_c, 1, 34, 48
4, 133077, Note_on_c, 1, 37, 65
4, 133120, Note_on_c, 1, 34, 0
4, 133172, Note_on_c, 1, 37, 0
4, 133196, Note_on_c, 1, 38, 68
4, 133419, Note_on_c, 1, 38, 0
4, 133428, Note_on_c, 1, 34, 76
4, 133550, Note_on_c, 1, 34, 0
4, 133580, Note_on_c, 1, 35, 50
4, 133816, Note_on_c, 1, 35, 0
4, 133817, Note_on_c, 1, 30, 79
4, 133916, Note_on_c, 1, 30, 0
4, 133953, Note_on_c, 1, 31, 64
4, 134228, Note_on_c, 1, 30, 51
4, 134262, Note_on_c, 1, 31, 0
4, 134332, Note_on_c, 1, 33, 63
4, 134387, Note_on_c, 1, 30, 0
4, 134712, Note_on_c, 1, 35, 66
4, 134722, Note_on_c, 1, 33, 0
4, 134945, Note_on_c, 1, 34, 55
4, 135019, Note_on_c, 1, 35, 0
4, 135028, Note_on_c, 1, 38, 68
4, 135053, Note_on_c, 1, 34, 0
4, 135089, Note_on_c, 1, 38, 0
4, 135101, Note_on_c, 1, 43, 76
4, 135472, Note_on_c, 1, 43, 0
4, 135474, Note_on_c, 1, 34, 75
4, 135817, Note_on_c, 1, 34, 0
4, 135860, Note_on_c, 1, 33, 66
4, 136216, Note_on_c, 1, 33, 0
4, 136230, Note_on_c, 1, 40, 55
4, 136491, Note_on_c, 1, 40, 0
4, 136516, Note_on_c, 1, 37, 65
4, 136627, Note_on_c, 1, 37, 0
4, 136631, Note_on_c, 1, 38, 69
4, 136909, Note_on_c, 1, 45, 93
4, 136962, Note_on_c, 1, 38, 0
4, 136991, Note_on_c, 1, 45, 0
4, 137065, Note_on_c, 1, 44, 49
4, 137308, Note_on_c, 1, 38, 68
4, 137354, Note_on_c, 1, 44, 0
4, 137363, Note_on_c, 1, 38, 0
4, 137414, Note_on_c, 1, 43, 63
4, 137775, Note_on_c, 1, 43, 0
4, 137783, Note_on_c, 1, 42, 95
4, 138086, Note_on_c, 1, 39, 72
4, 138091, Note_on_c, 1, 42, 0
4, 138115, Note_on_c, 1, 39, 0
4, 138152, Note_on_c, 1, 38, 47
4, 138181, Note_on_c, 1, 38, 0
4, 138225, Note_on_c, 1, 45, 76
4, 138226, Note_on_c, 1, 43, 70
4, 138261, Note_on_c, 1, 43, 0
4, 138528, Note_on_c, 1, 45, 0
4, 138578, Note_on_c, 1, 50, 86
4, 138839, Note_on_c, 1, 38, 58
4, 138884, Note_on_c, 1, 50, 0
4, 138891, Note_on_c, 1, 38, 0
4, 138973, Note_on_c, 1, 43, 58
4, 139213, Note_on_c, 1, 35, 94
4, 139231, Note_on_c, 1, 43, 0
4, 139675, Note_on_c, 1, 35, 0
4, 139718, Note_on_c, 1, 36, 65
4, 140050, Note_on_c, 1, 36, 0
4, 140332, Note_on_c, 1, 36, 94
4, 140445, Note_on_c, 1, 36, 0
4, 140477, Note_on_c, 1, 41, 69
4, 140813, Note_on_c, 1, 41, 0
4, 140858, Note_on_c, 1, 35, 77
4, 141261, Note_on_c, 1, 47, 85
4, 141280, Note_on_c, 1, 35, 0
4, 141551, Note_on_c, 1, 37, 37
4, 141590, Note_on_c, 1, 37, 0
4, 141611, Note_on_c, 1, 47, 0
4, 141636, Note_on_c, 1, 39, 75
4, 141901, Note_on_c, 1, 37, 44
4, 141980, Note_on_c, 1, 39, 0
4, 141981, Note_on_c, 1, 37, 0
4, 142012, Note_on_c, 1, 40, 77
4, 142274, Note_on_c, 1, 40, 0
4, 142302, Note_on_c, 1, 34, 82
4, 142778, Note_on_c, 1, 34, 0
4, 142784, Note_on_c, 1, 33, 70
4, 143067, Note_on_c, 1, 38, 79
4, 143106, Note_on_c, 1, 33, 0
4, 143159, Note_on_c, 1, 48, 77
4, 143171, Note_on_c, 1, 38, 0
4, 143424, Note_on_c, 1, 38, 53
4, 143517, Note_on_c, 1, 38, 0
4, 143529, Note_on_c, 1, 48, 0
4, 143558, Note_on_c, 1, 50, 75
4, 143897, Note_on_c, 1, 50, 0
4, 143925, Note_on_c, 1, 42, 83
4, 144279, Note_on_c, 1, 42, 0
4, 144341, Note_on_c, 1, 43, 74
4, 144708, Note_on_c, 1, 31, 67
4, 145029, Note_on_c, 1, 31, 0
4, 145116, Note_on_c, 1, 31, 62
4, 145347, Note_on_c, 1, 43, 0
4, 145378, Note_on_c, 1, 38, 72
4, 145417, Note_on_c, 1, 38, 0
4, 145479, Note_on_c, 1, 43, 79
4, 145818, Note_on_c, 1, 43, 0
4, 145864, Note_on_c, 1, 43, 54
4, 145937, Note_on_c, 1, 31, 0
4, 146111, Note_on_c, 1, 32, 102
4, 146584, Note_on_c, 1, 32, 0
4, 146614, Note_on_c, 1, 43, 0
4, 146647, Note_on_c, 1, 31, 74
4, 146928, Note_on_c, 1, 38, 70
4, 147006, Note_on_c, 1, 38, 0
4, 147019, Note_on_c, 1, 43, 87
4, 147305, Note_on_c, 1, 38, 57
4, 147306, Note_on_c, 1, 43, 0
4, 147351, Note_on_c, 1, 38, 0
4, 147374, Note_on_c, 1, 43, 71
4, 147510, Note_on_c, 1, 31, 0
4, 147658, Note_on_c, 1, 34, 96
4, 147659, Note_on_c, 1, 43, 0
4, 148550, Note_on_c, 1, 34, 0
4, 148551, Note_on_c, 1, 35, 76
4, 148826, Note_on_c, 1, 34, 50
4, 148901, Note_on_c, 1, 35, 0
4, 148909, Note_on_c, 1, 34, 0
4, 148922, Note_on_c, 1, 36, 71
4, 149601, Note_on_c, 1, 34, 39
4, 149681, Note_on_c, 1, 34, 0
4, 149936, Note_on_c, 1, 34, 62
4, 150029, Note_on_c, 1, 36, 0
4, 150050, Note_on_c, 1, 34, 0
4, 150068, Note_on_c, 1, 45, 58
4, 150308, Note_on_c, 1, 37, 64
4, 150347, Note_on_c, 1, 45, 0
4, 150399, Note_on_c, 1, 37, 0
4, 150459, Note_on_c, 1, 38, 56
4, 150784, Note_on_c, 1, 38, 0
4, 150829, Note_on_c, 1, 32, 62
4, 151196, Note_on_c, 1, 32, 0
4, 151231, Note_on_c, 1, 31, 55
4, 151545, Note_on_c, 1, 31, 0
4, 151612, Note_on_c, 1, 47, 77
4, 151955, Note_on_c, 1, 47, 0
4, 151999, Note_on_c, 1, 43, 51
4, 152277, Note_on_c, 1, 40, 66
4, 152315, Note_on_c, 1, 40, 0
4, 152350, Note_on_c, 1, 43, 0
4, 152383, Note_on_c, 1, 52, 76
4, 152726, Note_on_c, 1, 52, 0
4, 152770, Note_on_c, 1, 45, 59
4, 153118, Note_on_c, 1, 45, 0
4, 153158, Note_on_c, 1, 41, 57
4, 153475, Note_on_c, 1, 39, 38
4, 153511, Note_on_c, 1, 41, 0
4, 153521, Note_on_c, 1, 39, 0
4, 153540, Note_on_c, 1, 47, 72
4, 153901, Note_on_c, 1, 47, 0
4, 153922, Note_on_c, 1, 39, 67
4, 154283, Note_on_c, 1, 39, 0
4, 154330, Note_on_c, 1, 40, 62
4, 154695, Note_on_c, 1, 40, 0
4, 154718, Note_on_c, 1, 33, 65
4, 155027, Note_on_c, 1, 33, 0
4, 155089, Note_on_c, 1, 33, 83
4, 155412, Note_on_c, 1, 33, 0
4, 155450, Note_on_c, 1, 39, 83
4, 155777, Note_on_c, 1, 34, 44
4, 155806, Note_on_c, 1, 39, 0
4, 155842, Note_on_c, 1, 38, 66
4, 155849, Note_on_c, 1, 34, 0
4, 156112, Note_on_c, 1, 34, 49
4, 156242, Note_on_c, 1, 44, 74
4, 156260, Note_on_c, 1, 34, 0
4, 156323, Note_on_c, 1, 44, 0
4, 156483, Note_on_c, 1, 44, 86
4, 156574, Note_on_c, 1, 38, 0
4, 156597, Note_on_c, 1, 44, 0
4, 156630, Note_on_c, 1, 43, 53
4, 156864, Note_on_c, 1, 38, 63
4, 156912, Note_on_c, 1, 38, 0
4, 156931, Note_on_c, 1, 43, 0
4, 156995, Note_on_c, 1, 55, 81
4, 157134, Note_on_c, 1, 55, 0
4, 157253, Note_on_c, 1, 55, 73
4, 157363, Note_on_c, 1, 55, 0
4, 157411, Note_on_c, 1, 43, 49
4, 157571, Note_on_c, 1, 43, 0
4, 157651, Note_on_c, 1, 43, 67
4, 157715, Note_on_c, 1, 43, 0
4, 157789, Note_on_c, 1, 31, 76
4, 158069, Note_on_c, 1, 38, 52
4, 158135, Note_on_c, 1, 38, 0
4, 158148, Note_on_c, 1, 31, 0
4, 158149, Note_on_c, 1, 55, 84
4, 158223, Note_on_c, 1, 55, 0
4, 158407, Note_on_c, 1, 55, 87
4, 158498, Note_on_c, 1, 55, 0
4, 158548, Note_on_c, 1, 43, 55
4, 158727, Note_on_c, 1, 43, 0
4, 158792, Note_on_c, 1, 43, 77
4, 158851, Note_on_c, 1, 43, 0
4, 158920, Note_on_c, 1, 31, 76
4, 159176, Note_on_c, 1, 38, 73
4, 159226, Note_on_c, 1, 31, 0
4, 159242, Note_on_c, 1, 38, 0
4, 159291, Note_on_c, 1, 55, 86
4, 159450, Note_on_c, 1, 55, 0
4, 159547, Note_on_c, 1, 55, 85
4, 159637, Note_on_c, 1, 55, 0
4, 159714, Note_on_c, 1, 43, 39
4, 159840, Note_on_c, 1, 43, 0
4, 159933, Note_on_c, 1, 43, 74
4, 159990, Note_on_c, 1, 43, 0
4, 160078, Note_on_c, 1, 31, 68
4, 160321, Note_on_c, 1, 38, 55
4, 160396, Note_on_c, 1, 38, 0
4, 160422, Note_on_c, 1, 31, 0
4, 160442, Note_on_c, 1, 55, 84
4, 160538, Note_on_c, 1, 55, 0
4, 160704, Note_on_c, 1, 55, 91
4, 160797, Note_on_c, 1, 55, 0
4, 160833, Note_on_c, 1, 43, 62
4, 160924, Note_on_c, 1, 43, 0
4, 161074, Note_on_c, 1, 55, 80
4, 161160, Note_on_c, 1, 55, 0
4, 161192, Note_on_c, 1, 43, 67
4, 161448, Note_on_c, 1, 38, 95
4, 161468, Note_on_c, 1, 43, 0
4, 161524, Note_on_c, 1, 38, 0
4, 161564, Note_on_c, 1, 43, 62
4, 161847, Note_on_c, 1, 36, 80
4, 161872, Note_on_c, 1, 43, 0
4, 161931, Note_on_c, 1, 36, 0
4, 161970, Note_on_c, 1, 37, 67
4, 162352, Note_on_c, 1, 39, 86
4, 162399, Note_on_c, 1, 37, 0
4, 162625, Note_on_c, 1, 37, 49
4, 162661, Note_on_c, 1, 39, 0
4, 162715, Note_on_c, 1, 40, 70
4, 162724, Note_on_c, 1, 37, 0
4, 163118, Note_on_c, 1, 40, 0
4, 163124, Note_on_c, 1, 34, 69
4, 163485, Note_on_c, 1, 34, 0
4, 163517, Note_on_c, 1, 33, 54
4, 163800, Note_on_c, 1, 34, 50
4, 163815, Note_on_c, 1, 33, 0
4, 163876, Note_on_c, 1, 39, 67
4, 163893, Note_on_c, 1, 34, 0
4, 164168, Note_on_c, 1, 34, 51
4, 164170, Note_on_c, 1, 39, 0
4, 164283, Note_on_c, 1, 38, 66
4, 164314, Note_on_c, 1, 34, 0
4, 164554, Note_on_c, 1, 45, 72
4, 164575, Note_on_c, 1, 38, 0
4, 164622, Note_on_c, 1, 45, 0
4, 164677, Note_on_c, 1, 44, 66
4, 164948, Note_on_c, 1, 37, 56
4, 165035, Note_on_c, 1, 37, 0
4, 165041, Note_on_c, 1, 44, 0
4, 165064, Note_on_c, 1, 43, 63
4, 165442, Note_on_c, 1, 35, 85
4, 165732, Note_on_c, 1, 35, 0
4, 165736, Note_on_c, 1, 43, 0
4, 165830, Note_on_c, 1, 37, 84
4, 166215, Note_on_c, 1, 49, 74
4, 166229, Note_on_c, 1, 37, 0
4, 166462, Note_on_c, 1, 37, 58
4, 166535, Note_on_c, 1, 49, 0
4, 166554, Note_on_c, 1, 37, 0
4, 166601, Note_on_c, 1, 42, 70
4, 166938, Note_on_c, 1, 42, 0
4, 166984, Note_on_c, 1, 34, 78
4, 167316, Note_on_c, 1, 34, 0
4, 167349, Note_on_c, 1, 35, 75
4, 167688, Note_on_c, 1, 35, 0
4, 167727, Note_on_c, 1, 39, 74
4, 168070, Note_on_c, 1, 39, 0
4, 168114, Note_on_c, 1, 40, 68
4, 168442, Note_on_c, 1, 40, 0
4, 168496, Note_on_c, 1, 34, 75
4, 168870, Note_on_c, 1, 34, 0
4, 168887, Note_on_c, 1, 33, 65
4, 169199, Note_on_c, 1, 40, 49
4, 169237, Note_on_c, 1, 40, 0
4, 169280, Note_on_c, 1, 45, 61
4, 169601, Note_on_c, 1, 45, 0
4, 169665, Note_on_c, 1, 49, 52
4, 169917, Note_on_c, 1, 45, 61
4, 169937, Note_on_c, 1, 49, 0
4, 169952, Note_on_c, 1, 45, 0
4, 170049, Note_on_c, 1, 45, 49
4, 170285, Note_on_c, 1, 33, 0
4, 170297, Note_on_c, 1, 45, 0
4, 170303, Note_on_c, 1, 40, 50
4, 170365, Note_on_c, 1, 40, 0
4, 170380, Note_on_c, 1, 33, 65
4, 170654, Note_on_c, 1, 40, 49
4, 170706, Note_on_c, 1, 40, 0
4, 170774, Note_on_c, 1, 50, 75
4, 171045, Note_on_c, 1, 40, 54
4, 171102, Note_on_c, 1, 40, 0
4, 171131, Note_on_c, 1, 50, 0
4, 171187, Note_on_c, 1, 46, 54
4, 171206, Note_on_c, 1, 33, 0
4, 171450, Note_on_c, 1, 43, 77
4, 171475, Note_on_c, 1, 46, 0
4, 171477, Note_on_c, 1, 43, 0
4, 171550, Note_on_c, 1, 34, 67
4, 171943, Note_on_c, 1, 34, 0
4, 171957, Note_on_c, 1, 33, 72
4, 172343, Note_on_c, 1, 40, 81
4, 172428, Note_on_c, 1, 33, 0
4, 172714, Note_on_c, 1, 40, 0
4, 172731, Note_on_c, 1, 36, 73
4, 173074, Note_on_c, 1, 36, 0
4, 173107, Note_on_c, 1, 37, 67
4, 173357, Note_on_c, 1, 34, 51
4, 173475, Note_on_c, 1, 37, 0
4, 173502, Note_on_c, 1, 38, 66
4, 173508, Note_on_c, 1, 34, 0
4, 173872, Note_on_c, 1, 40, 62
4, 173928, Note_on_c, 1, 38, 0
4, 174225, Note_on_c, 1, 40, 0
4, 174260, Note_on_c, 1, 42, 68
4, 174532, Note_on_c, 1, 39, 113
4, 174581, Note_on_c, 1, 42, 0
4, 175062, Note_on_c, 1, 41, 74
4, 175089, Note_on_c, 1, 39, 0
4, 175325, Note_on_c, 1, 39, 56
4, 175359, Note_on_c, 1, 39, 0
4, 175387, Note_on_c, 1, 41, 0
4, 175440, Note_on_c, 1, 43, 73
4, 175725, Note_on_c, 1, 39, 42
4, 175772, Note_on_c, 1, 43, 0
4, 175777, Note_on_c, 1, 39, 0
4, 175827, Note_on_c, 1, 46, 62
4, 176163, Note_on_c, 1, 46, 0
4, 176186, Note_on_c, 1, 51, 80
4, 176537, Note_on_c, 1, 51, 0
4, 176598, Note_on_c, 1, 50, 67
4, 176870, Note_on_c, 1, 43, 55
4, 176903, Note_on_c, 1, 50, 0
4, 176919, Note_on_c, 1, 43, 0
4, 176954, Note_on_c, 1, 48, 74
4, 177227, Note_on_c, 1, 43, 46
4, 177258, Note_on_c, 1, 43, 0
4, 177296, Note_on_c, 1, 48, 0
4, 177340, Note_on_c, 1, 46, 65
4, 177712, Note_on_c, 1, 43, 77
4, 177756, Note_on_c, 1, 46, 0
4, 177991, Note_on_c, 1, 37, 63
4, 178039, Note_on_c, 1, 43, 0
4, 178054, Note_on_c, 1, 37, 0
4, 178109, Note_on_c, 1, 38, 76
4, 178240, Note_on_c, 1, 39, 65
4, 178256, Note_on_c, 1, 38, 0
4, 178448, Note_on_c, 1, 39, 0
4, 178509, Note_on_c, 1, 39, 79
4, 178827, Note_on_c, 1, 39, 0
4, 178880, Note_on_c, 1, 34, 75
4, 179202, Note_on_c, 1, 34, 0
4, 179266, Note_on_c, 1, 34, 76
4, 179616, Note_on_c, 1, 34, 0
4, 179638, Note_on_c, 1, 31, 81
4, 179984, Note_on_c, 1, 31, 0
4, 180027, Note_on_c, 1, 34, 83
4, 180414, Note_on_c, 1, 34, 0
4, 180422, Note_on_c, 1, 39, 68
4, 180682, Note_on_c, 1, 34, 57
4, 180684, Note_on_c, 1, 39, 0
4, 180771, Note_on_c, 1, 34, 0
4, 180826, Note_on_c, 1, 37, 77
4, 181015, Note_on_c, 1, 37, 0
4, 181125, Note_on_c, 1, 38, 74
4, 181155, Note_on_c, 1, 38, 0
4, 181218, Note_on_c, 1, 43, 76
4, 181516, Note_on_c, 1, 43, 0
4, 181572, Note_on_c, 1, 47, 67
4, 181849, Note_on_c, 1, 38, 65
4, 181893, Note_on_c, 1, 38, 0
4, 181908, Note_on_c, 1, 47, 0
4, 181939, Note_on_c, 1, 50, 83
4, 182239, Note_on_c, 1, 38, 56
4, 182267, Note_on_c, 1, 50, 0
4, 182293, Note_on_c, 1, 38, 0
4, 182345, Note_on_c, 1, 48, 72
4, 182617, Note_on_c, 1, 38, 66
4, 182654, Note_on_c, 1, 48, 0
4, 182655, Note_on_c, 1, 38, 0
4, 182738, Note_on_c, 1, 47, 51
4, 182920, Note_on_c, 1, 47, 0
4, 182980, Note_on_c, 1, 43, 69
4, 183020, Note_on_c, 1, 43, 0
4, 183099, Note_on_c, 1, 38, 61
4, 183453, Note_on_c, 1, 38, 0
4, 183499, Note_on_c, 1, 35, 68
4, 183777, Note_on_c, 1, 35, 0
4, 183857, Note_on_c, 1, 31, 57
4, 183970, Note_on_c, 1, 31, 0
4, 184127, Note_on_c, 1, 39, 78
4, 184215, Note_on_c, 1, 39, 0
4, 184243, Note_on_c, 1, 40, 72
4, 184453, Note_on_c, 1, 40, 0
4, 184532, Note_on_c, 1, 31, 78
4, 184562, Note_on_c, 1, 31, 0
4, 184657, Note_on_c, 1, 32, 86
4, 184945, Note_on_c, 1, 32, 0
4, 185011, Note_on_c, 1, 33, 70
4, 185252, Note_on_c, 1, 33, 0
4, 185254, Note_on_c, 1, 32, 61
4, 185386, Note_on_c, 1, 39, 64
4, 185391, Note_on_c, 1, 32, 0
4, 185657, Note_on_c, 1, 32, 39
4, 185704, Note_on_c, 1, 39, 0
4, 185721, Note_on_c, 1, 32, 0
4, 185801, Note_on_c, 1, 43, 63
4, 185966, Note_on_c, 1, 43, 0
4, 186063, Note_on_c, 1, 37, 97
4, 186496, Note_on_c, 1, 37, 0
4, 186559, Note_on_c, 1, 38, 85
4, 186779, Note_on_c, 1, 38, 0
4, 186827, Note_on_c, 1, 43, 79
4, 186898, Note_on_c, 1, 43, 0
4, 186946, Note_on_c, 1, 39, 69
4, 187199, Note_on_c, 1, 37, 55
4, 187289, Note_on_c, 1, 39, 0
4, 187326, Note_on_c, 1, 38, 63
4, 187330, Note_on_c, 1, 37, 0
4, 187599, Note_on_c, 1, 37, 55
4, 187663, Note_on_c, 1, 38, 0
4, 187709, Note_on_c, 1, 45, 85
4, 187747, Note_on_c, 1, 37, 0
4, 187982, Note_on_c, 1, 38, 65
4, 188032, Note_on_c, 1, 38, 0
4, 188067, Note_on_c, 1, 45, 0
4, 188108, Note_on_c, 1, 43, 61
4, 188507, Note_on_c, 1, 35, 80
4, 188600, Note_on_c, 1, 43, 0
4, 188873, Note_on_c, 1, 35, 0
4, 188878, Note_on_c, 1, 36, 63
4, 189145, Note_on_c, 1, 34, 51
4, 189207, Note_on_c, 1, 36, 0
4, 189236, Note_on_c, 1, 43, 73
4, 189245, Note_on_c, 1, 34, 0
4, 189495, Note_on_c, 1, 36, 54
4, 189539, Note_on_c, 1, 36, 0
4, 189642, Note_on_c, 1, 43, 0
4, 189656, Note_on_c, 1, 41, 51
4, 189872, Note_on_c, 1, 34, 71
4, 189944, Note_on_c, 1, 41, 0
4, 189974, Note_on_c, 1, 34, 0
4, 190020, Note_on_c, 1, 36, 72
4, 190272, Note_on_c, 1, 36, 0
4, 190284, Note_on_c, 1, 34, 61
4, 190357, Note_on_c, 1, 34, 0
4, 190385, Note_on_c, 1, 35, 68
4, 190668, Note_on_c, 1, 34, 59
4, 190742, Note_on_c, 1, 35, 0
4, 190783, Note_on_c, 1, 47, 68
4, 190790, Note_on_c, 1, 34, 0
4, 191044, Note_on_c, 1, 34, 61
4, 191113, Note_on_c, 1, 34, 0
4, 191160, Note_on_c, 1, 47, 0
4, 191178, Note_on_c, 1, 40, 64
4, 191499, Note_on_c, 1, 40, 0
4, 191540, Note_on_c, 1, 34, 70
4, 191904, Note_on_c, 1, 34, 0
4, 191913, Note_on_c, 1, 33, 63
4, 192196, Note_on_c, 1, 39, 52
4, 192249, Note_on_c, 1, 39, 0
4, 192292, Note_on_c, 1, 45, 68
4, 192622, Note_on_c, 1, 33, 0
4, 192644, Note_on_c, 1, 45, 0
4, 192693, Note_on_c, 1, 50, 80
4, 192941, Note_on_c, 1, 39, 61
4, 192995, Note_on_c, 1, 39, 0
4, 193029, Note_on_c, 1, 50, 0
4, 193067, Note_on_c, 1, 44, 62
4, 193441, Note_on_c, 1, 44, 0
4, 193469, Note_on_c, 1, 43, 63
4, 193854, Note_on_c, 1, 43, 0
4, 193874, Note_on_c, 1, 55, 69
4, 194193, Note_on_c, 1, 55, 0
4, 194288, Note_on_c, 1, 56, 63
4, 194588, Note_on_c, 1, 56, 0
4, 194656, Note_on_c, 1, 55, 76
4, 194899, Note_on_c, 1, 38, 71
4, 194925, Note_on_c, 1, 55, 0
4, 194966, Note_on_c, 1, 38, 0
4, 195024, Note_on_c, 1, 43, 47
4, 195273, Note_on_c, 1, 32, 96
4, 195287, Note_on_c, 1, 43, 0
4, 196032, Note_on_c, 1, 38, 65
4, 196095, Note_on_c, 1, 32, 0
4, 196111, Note_on_c, 1, 38, 0
4, 196151, Note_on_c, 1, 31, 85
4, 196800, Note_on_c, 1, 43, 64
4, 196834, Note_on_c, 1, 43, 0
4, 196923, Note_on_c, 1, 55, 113
4, 196930, Note_on_c, 1, 31, 0
4, 197217, Note_on_c, 1, 38, 43
4, 197274, Note_on_c, 1, 38, 0
4, 197537, Note_on_c, 1, 55, 0
4, 197544, Note_on_c, 1, 53, 83
4, 197635, Note_on_c, 1, 53, 0
4, 197688, Note_on_c, 1, 52, 62
4, 198046, Note_on_c, 1, 52, 0
4, 198082, Note_on_c, 1, 53, 81
4, 198255, Note_on_c, 1, 53, 0
4, 198339, Note_on_c, 1, 52, 81
4, 198424, Note_on_c, 1, 52, 0
4, 198498, Note_on_c, 1, 48, 43
4, 198726, Note_on_c, 1, 42, 39
4, 198759, Note_on_c, 1, 48, 0
4, 198774, Note_on_c, 1, 42, 0
4, 198852, Note_on_c, 1, 48, 67
4, 199106, Note_on_c, 1, 37, 72
4, 199133, Note_on_c, 1, 48, 0
4, 199175, Note_on_c, 1, 37, 0
4, 199226, Note_on_c, 1, 37, 81
4, 199616, Note_on_c, 1, 37, 0
4, 199624, Note_on_c, 1, 38, 66
4, 199888, Note_on_c, 1, 37, 58
4, 199943, Note_on_c, 1, 38, 0
4, 199960, Note_on_c, 1, 37, 0
4, 200004, Note_on_c, 1, 45, 81
4, 200108, Note_on_c, 1, 45, 0
4, 200253, Note_on_c, 1, 42, 74
4, 200348, Note_on_c, 1, 42, 0
4, 200400, Note_on_c, 1, 43, 64
4, 200603, Note_on_c, 1, 43, 0
4, 200656, Note_on_c, 1, 40, 70
4, 200769, Note_on_c, 1, 40, 0
4, 200789, Note_on_c, 1, 41, 64
4, 200963, Note_on_c, 1, 41, 0
4, 201018, Note_on_c, 1, 39, 73
4, 201138, Note_on_c, 1, 39, 0
4, 201146, Note_on_c, 1, 40, 78
4, 201384, Note_on_c, 1, 40, 0
4, 201409, Note_on_c, 1, 34, 53
4, 201437, Note_on_c, 1, 34, 0
4, 201532, Note_on_c, 1, 38, 67
4, 201812, Note_on_c, 1, 36, 66
4, 201844, Note_on_c, 1, 38, 0
4, 201852, Note_on_c, 1, 36, 0
4, 201927, Note_on_c, 1, 41, 60
4, 202248, Note_on_c, 1, 41, 0
4, 202562, Note_on_c, 1, 34, 83
4, 202657, Note_on_c, 1, 34, 0
4, 202742, Note_on_c, 1, 35, 52
4, 202957, Note_on_c, 1, 34, 68
4, 203012, Note_on_c, 1, 35, 0
4, 203022, Note_on_c, 1, 34, 0
4, 203094, Note_on_c, 1, 47, 60
4, 203336, Note_on_c, 1, 39, 67
4, 203343, Note_on_c, 1, 47, 0
4, 203467, Note_on_c, 1, 39, 0
4, 203474, Note_on_c, 1, 40, 54
4, 203736, Note_on_c, 1, 39, 65
4, 203787, Note_on_c, 1, 40, 0
4, 203834, Note_on_c, 1, 39, 0
4, 203846, Note_on_c, 1, 52, 86
4, 204112, Note_on_c, 1, 44, 50
4, 204118, Note_on_c, 1, 52, 0
4, 204225, Note_on_c, 1, 45, 59
4, 204236, Note_on_c, 1, 44, 0
4, 204572, Note_on_c, 1, 45, 0
4, 204614, Note_on_c, 1, 39, 69
4, 204998, Note_on_c, 1, 39, 0
4, 205013, Note_on_c, 1, 38, 62
4, 205267, Note_on_c, 1, 42, 53
4, 205279, Note_on_c, 1, 38, 0
4, 205351, Note_on_c, 1, 42, 0
4, 205367, Note_on_c, 1, 44, 71
4, 205627, Note_on_c, 1, 42, 50
4, 205712, Note_on_c, 1, 44, 0
4, 205736, Note_on_c, 1, 42, 0
4, 205747, Note_on_c, 1, 43, 61
4, 205996, Note_on_c, 1, 55, 79
4, 206067, Note_on_c, 1, 55, 0
4, 206142, Note_on_c, 1, 55, 77
4, 206266, Note_on_c, 1, 55, 0
4, 206399, Note_on_c, 1, 31, 79
4, 206459, Note_on_c, 1, 43, 0
4, 206492, Note_on_c, 1, 31, 0
4, 206561, Note_on_c, 1, 55, 63
4, 206730, Note_on_c, 1, 55, 0
4, 206787, Note_on_c, 1, 55, 82
4, 206815, Note_on_c, 1, 55, 0
4, 206909, Note_on_c, 1, 43, 61
4, 207188, Note_on_c, 1, 55, 79
4, 207240, Note_on_c, 1, 55, 0
4, 207306, Note_on_c, 1, 55, 78
4, 207399, Note_on_c, 1, 55, 0
4, 207537, Note_on_c, 1, 31, 76
4, 207608, Note_on_c, 1, 31, 0
4, 207687, Note_on_c, 1, 55, 85
4, 207875, Note_on_c, 1, 55, 0
4, 207936, Note_on_c, 1, 55, 91
4, 207999, Note_on_c, 1, 55, 0
4, 208160, Note_on_c, 1, 43, 0
4, 208312, Note_on_c, 1, 43, 76
4, 208391, Note_on_c, 1, 43, 0
4, 208439, Note_on_c, 1, 43, 68
4, 208676, Note_on_c, 1, 31, 73
4, 208765, Note_on_c, 1, 31, 0
4, 208786, Note_on_c, 1, 43, 0
4, 208830, Note_on_c, 1, 55, 81
4, 208903, Note_on_c, 1, 43, 41
4, 209005, Note_on_c, 1, 55, 0
4, 209065, Note_on_c, 1, 55, 93
4, 209125, Note_on_c, 1, 55, 0
4, 209435, Note_on_c, 1, 43, 0
4, 209472, Note_on_c, 1, 42, 70
4, 209562, Note_on_c, 1, 42, 0
4, 209605, Note_on_c, 1, 55, 72
4, 209628, Note_on_c, 1, 43, 54
4, 209633, Note_on_c, 1, 55, 0
4, 209813, Note_on_c, 1, 43, 0
4, 209865, Note_on_c, 1, 34, 67
4, 209949, Note_on_c, 1, 34, 0
4, 209980, Note_on_c, 1, 35, 51
4, 210275, Note_on_c, 1, 34, 39
4, 210308, Note_on_c, 1, 34, 0
4, 210319, Note_on_c, 1, 35, 0
4, 210347, Note_on_c, 1, 36, 57
4, 210628, Note_on_c, 1, 34, 52
4, 210669, Note_on_c, 1, 36, 0
4, 210723, Note_on_c, 1, 38, 69
4, 210743, Note_on_c, 1, 34, 0
4, 210967, Note_on_c, 1, 34, 49
4, 211041, Note_on_c, 1, 34, 0
4, 211084, Note_on_c, 1, 38, 0
4, 211126, Note_on_c, 1, 40, 68
4, 211416, Note_on_c, 1, 37, 51
4, 211430, Note_on_c, 1, 40, 0
4, 211468, Note_on_c, 1, 37, 0
4, 211513, Note_on_c, 1, 39, 65
4, 211851, Note_on_c, 1, 37, 49
4, 211869, Note_on_c, 1, 39, 0
4, 211902, Note_on_c, 1, 37, 0
4, 211902, Note_on_c, 1, 40, 61
4, 212142, Note_on_c, 1, 40, 0
4, 212181, Note_on_c, 1, 52, 83
4, 212267, Note_on_c, 1, 52, 0
4, 212323, Note_on_c, 1, 47, 45
4, 212631, Note_on_c, 1, 47, 0
4, 212679, Note_on_c, 1, 49, 62
4, 212933, Note_on_c, 1, 39, 46
4, 212975, Note_on_c, 1, 39, 0
4, 213013, Note_on_c, 1, 49, 0
4, 213052, Note_on_c, 1, 45, 57
4, 213313, Note_on_c, 1, 37, 63
4, 213330, Note_on_c, 1, 45, 0
4, 213391, Note_on_c, 1, 37, 0
4, 213441, Note_on_c, 1, 38, 60
4, 213689, Note_on_c, 1, 37, 59
4, 213739, Note_on_c, 1, 38, 0
4, 213815, Note_on_c, 1, 45, 70
4, 213828, Note_on_c, 1, 37, 0
4, 214071, Note_on_c, 1, 37, 44
4, 214124, Note_on_c, 1, 37, 0
4, 214178, Note_on_c, 1, 45, 0
4, 214237, Note_on_c, 1, 42, 48
4, 214573, Note_on_c, 1, 42, 0
4, 214599, Note_on_c, 1, 38, 63
4, 214869, Note_on_c, 1, 37, 57
4, 214943, Note_on_c, 1, 37, 0
4, 215230, Note_on_c, 1, 38, 0
4, 215256, Note_on_c, 1, 37, 64
4, 215284, Note_on_c, 1, 37, 0
4, 215352, Note_on_c, 1, 37, 88
4, 215744, Note_on_c, 1, 37, 0
4, 215749, Note_on_c, 1, 42, 73
4, 216105, Note_on_c, 1, 42, 0
4, 216124, Note_on_c, 1, 30, 68
4, 216400, Note_on_c, 1, 34, 58
4, 216439, Note_on_c, 1, 30, 0
4, 216500, Note_on_c, 1, 34, 0
4, 216508, Note_on_c, 1, 35, 72
4, 216850, Note_on_c, 1, 35, 0
4, 216884, Note_on_c, 1, 39, 72
4, 217175, Note_on_c, 1, 35, 56
4, 217190, Note_on_c, 1, 39, 0
4, 217229, Note_on_c, 1, 35, 0
4, 217263, Note_on_c, 1, 40, 64
4, 217636, Note_on_c, 1, 47, 77
4, 217737, Note_on_c, 1, 40, 0
4, 218010, Note_on_c, 1, 47, 0
4, 218049, Note_on_c, 1, 45, 57
4, 218372, Note_on_c, 1, 45, 0
4, 218438, Note_on_c, 1, 45, 76
4, 218717, Note_on_c, 1, 45, 0
4, 218850, Note_on_c, 1, 45, 69
4, 219098, Note_on_c, 1, 45, 0
4, 219115, Note_on_c, 1, 33, 82
4, 219175, Note_on_c, 1, 33, 0
4, 219234, Note_on_c, 1, 45, 78
4, 219542, Note_on_c, 1, 45, 0
4, 219615, Note_on_c, 1, 45, 67
4, 219904, Note_on_c, 1, 45, 0
4, 219983, Note_on_c, 1, 45, 74
4, 220299, Note_on_c, 1, 45, 0
4, 220388, Note_on_c, 1, 45, 55
4, 220625, Note_on_c, 1, 33, 91
4, 220636, Note_on_c, 1, 45, 0
4, 220700, Note_on_c, 1, 33, 0
4, 220764, Note_on_c, 1, 45, 68
4, 221052, Note_on_c, 1, 45, 0
4, 221128, Note_on_c, 1, 45, 73
4, 221444, Note_on_c, 1, 45, 0
4, 221515, Note_on_c, 1, 45, 76
4, 221827, Note_on_c, 1, 45, 0
4, 221904, Note_on_c, 1, 45, 69
4, 222142, Note_on_c, 1, 36, 84
4, 222170, Note_on_c, 1, 45, 0
4, 222211, Note_on_c, 1, 36, 0
4, 222269, Note_on_c, 1, 37, 56
4, 222528, Note_on_c, 1, 38, 107
4, 222560, Note_on_c, 1, 37, 0
4, 222913, Note_on_c, 1, 37, 64
4, 222937, Note_on_c, 1, 38, 0
4, 223030, Note_on_c, 1, 40, 70
4, 223058, Note_on_c, 1, 37, 0
4, 223340, Note_on_c, 1, 39, 55
4, 223346, Note_on_c, 1, 40, 0
4, 223444, Note_on_c, 1, 41, 61
4, 223445, Note_on_c, 1, 39, 0
4, 223731, Note_on_c, 1, 38, 102
4, 223743, Note_on_c, 1, 41, 0
4, 224163, Note_on_c, 1, 38, 0
4, 224197, Note_on_c, 1, 39, 69
4, 224481, Note_on_c, 1, 37, 42
4, 224534, Note_on_c, 1, 37, 0
4, 224554, Note_on_c, 1, 39, 0
4, 224573, Note_on_c, 1, 43, 64
4, 224847, Note_on_c, 1, 39, 57
4, 224918, Note_on_c, 1, 39, 0
4, 224919, Note_on_c, 1, 43, 0
4, 224967, Note_on_c, 1, 51, 66
4, 225332, Note_on_c, 1, 51, 0
4, 225350, Note_on_c, 1, 50, 74
4, 225629, Note_on_c, 1, 39, 49
4, 225684, Note_on_c, 1, 39, 0
4, 225693, Note_on_c, 1, 50, 0
4, 225735, Note_on_c, 1, 48, 67
4, 226063, Note_on_c, 1, 48, 0
4, 226106, Note_on_c, 1, 46, 59
4, 226225, Note_on_c, 1, 46, 0
4, 226383, Note_on_c, 1, 42, 74
4, 226491, Note_on_c, 1, 42, 0
4, 226511, Note_on_c, 1, 43, 55
4, 226736, Note_on_c, 1, 43, 0
4, 226887, Note_on_c, 1, 41, 64
4, 227101, Note_on_c, 1, 41, 0
4, 227141, Note_on_c, 1, 36, 66
4, 227177, Note_on_c, 1, 36, 0
4, 227262, Note_on_c, 1, 39, 62
4, 227586, Note_on_c, 1, 39, 0
4, 227639, Note_on_c, 1, 34, 66
4, 227993, Note_on_c, 1, 34, 0
4, 228024, Note_on_c, 1, 36, 66
4, 228291, Note_on_c, 1, 34, 62
4, 228340, Note_on_c, 1, 36, 0
4, 228356, Note_on_c, 1, 34, 0
4, 228416, Note_on_c, 1, 38, 68
4, 228735, Note_on_c, 1, 38, 0
4, 228781, Note_on_c, 1, 39, 68
4, 229128, Note_on_c, 1, 39, 0
4, 229176, Note_on_c, 1, 43, 67
4, 229499, Note_on_c, 1, 43, 0
4, 229579, Note_on_c, 1, 46, 62
4, 229828, Note_on_c, 1, 38, 76
4, 229830, Note_on_c, 1, 46, 0
4, 229882, Note_on_c, 1, 38, 0
4, 229949, Note_on_c, 1, 42, 64
4, 230179, Note_on_c, 1, 42, 0
4, 230223, Note_on_c, 1, 43, 70
4, 230565, Note_on_c, 1, 43, 0
4, 230606, Note_on_c, 1, 40, 64
4, 230664, Note_on_c, 1, 40, 0
4, 230706, Note_on_c, 1, 42, 71
4, 230942, Note_on_c, 1, 42, 0
4, 230980, Note_on_c, 1, 39, 65
4, 231068, Note_on_c, 1, 39, 0
4, 231106, Note_on_c, 1, 40, 53
4, 231356, Note_on_c, 1, 40, 0
4, 231381, Note_on_c, 1, 37, 61
4, 231447, Note_on_c, 1, 37, 0
4, 231481, Note_on_c, 1, 38, 78
4, 231668, Note_on_c, 1, 38, 0
4, 231753, Note_on_c, 1, 34, 76
4, 231844, Note_on_c, 1, 34, 0
4, 231872, Note_on_c, 1, 35, 49
4, 232071, Note_on_c, 1, 35, 0
4, 232118, Note_on_c, 1, 29, 83
4, 232180, Note_on_c, 1, 29, 0
4, 232274, Note_on_c, 1, 30, 36
4, 232505, Note_on_c, 1, 27, 56
4, 232614, Note_on_c, 1, 30, 0
4, 232618, Note_on_c, 1, 27, 0
4, 232631, Note_on_c, 1, 31, 65
4, 232894, Note_on_c, 1, 35, 53
4, 232944, Note_on_c, 1, 35, 0
4, 233007, Note_on_c, 1, 38, 69
4, 233012, Note_on_c, 1, 31, 0
4, 233260, Note_on_c, 1, 35, 59
4, 233307, Note_on_c, 1, 35, 0
4, 233359, Note_on_c, 1, 38, 0
4, 233402, Note_on_c, 1, 43, 67
4, 233680, Note_on_c, 1, 35, 41
4, 233717, Note_on_c, 1, 43, 0
4, 233718, Note_on_c, 1, 35, 0
4, 233783, Note_on_c, 1, 38, 63
4, 234111, Note_on_c, 1, 38, 0
4, 234165, Note_on_c, 1, 43, 76
4, 234560, Note_on_c, 1, 34, 70
4, 234577, Note_on_c, 1, 43, 0
4, 234818, Note_on_c, 1, 37, 58
4, 234847, Note_on_c, 1, 37, 0
4, 234874, Note_on_c, 1, 38, 59
4, 234921, Note_on_c, 1, 38, 0
4, 234932, Note_on_c, 1, 34, 0
4, 234967, Note_on_c, 1, 43, 61
4, 235357, Note_on_c, 1, 42, 103
4, 235363, Note_on_c, 1, 43, 0
4, 235675, Note_on_c, 1, 42, 0
4, 235737, Note_on_c, 1, 43, 70
4, 235993, Note_on_c, 1, 55, 90
4, 236008, Note_on_c, 1, 43, 0
4, 236024, Note_on_c, 1, 55, 0
4, 236084, Note_on_c, 1, 39, 67
4, 236473, Note_on_c, 1, 39, 0
4, 236488, Note_on_c, 1, 38, 74
4, 236768, Note_on_c, 1, 42, 54
4, 236775, Note_on_c, 1, 38, 0
4, 236807, Note_on_c, 1, 42, 0
4, 236874, Note_on_c, 1, 53, 99
4, 237223, Note_on_c, 1, 53, 0
4, 237258, Note_on_c, 1, 53, 52
4, 237392, Note_on_c, 1, 53, 0
4, 237612, Note_on_c, 1, 52, 71
4, 237898, Note_on_c, 1, 52, 0
4, 237912, Note_on_c, 1, 50, 83
4, 238027, Note_on_c, 1, 50, 0
4, 238029, Note_on_c, 1, 48, 91
4, 238288, Note_on_c, 1, 48, 0
4, 238370, Note_on_c, 1, 45, 79
4, 238713, Note_on_c, 1, 45, 0
4, 238867, Note_on_c, 1, 41, 30
4, 239024, Note_on_c, 1, 39, 74
4, 239074, Note_on_c, 1, 41, 0
4, 239111, Note_on_c, 1, 39, 0
4, 239160, Note_on_c, 1, 48, 76
4, 239522, Note_on_c, 1, 48, 0
4, 239537, Note_on_c, 1, 47, 74
4, 239804, Note_on_c, 1, 41, 74
4, 239823, Note_on_c, 1, 47, 0
4, 239870, Note_on_c, 1, 41, 0
4, 239953, Note_on_c, 1, 35, 60
4, 240277, Note_on_c, 1, 35, 0
4, 240318, Note_on_c, 1, 40, 63
4, 240638, Note_on_c, 1, 40, 0
4, 240686, Note_on_c, 1, 34, 78
4, 241057, Note_on_c, 1, 34, 0
4, 241100, Note_on_c, 1, 33, 61
4, 241422, Note_on_c, 1, 33, 0
4, 241489, Note_on_c, 1, 33, 77
4, 242115, Note_on_c, 1, 34, 80
4, 242194, Note_on_c, 1, 33, 0
4, 242214, Note_on_c, 1, 34, 0
4, 242261, Note_on_c, 1, 38, 70
4, 242871, Note_on_c, 1, 38, 0
4, 242890, Note_on_c, 1, 31, 67
4, 242967, Note_on_c, 1, 31, 0
4, 243027, Note_on_c, 1, 43, 70
4, 243319, Note_on_c, 1, 43, 0
4, 243419, Note_on_c, 1, 43, 64
4, 243697, Note_on_c, 1, 43, 0
4, 244174, Note_on_c, 1, 31, 74
4, 244504, Note_on_c, 1, 31, 0
4, 244783, Note_on_c, 1, 31, 68
4, 245173, Note_on_c, 1, 38, 53
4, 245256, Note_on_c, 1, 38, 0
4, 245271, Note_on_c, 1, 31, 0
4, 245301, Note_on_c, 1, 43, 88
4, 245556, Note_on_c, 1, 43, 0
4, 245695, Note_on_c, 1, 43, 94
4, 246055, Note_on_c, 1, 43, 0
4, 246314, Note_on_c, 1, 43, 89
4, 246851, Note_on_c, 1, 43, 0
4, 247233, Note_on_c, 1, 31, 70
4, 247616, Note_on_c, 1, 31, 0
4, 247855, Note_on_c, 1, 31, 83
4, 248112, Note_on_c, 1, 31, 0
4, 248286, Note_on_c, 1, 31, 43
4, 248344, Note_on_c, 1, 31, 0
4, 248394, Note_on_c, 1, 43, 93
4, 248666, Note_on_c, 1, 43, 0
4, 248797, Note_on_c, 1, 43, 99
4, 249168, Note_on_c, 1, 43, 0
4, 249435, Note_on_c, 1, 43, 87
4, 250014, Note_on_c, 1, 43, 0
4, 250313, Note_on_c, 1, 31, 81
4, 250627, Note_on_c, 1, 31, 0
4, 250906, Note_on_c, 1, 31, 88
4, 251646, Note_on_c, 1, 31, 0
4, 251838, Note_on_c, 1, 31, 102
4, 252004, Note_on_c, 1, 31, 0
4, 252241, Note_on_c, 1, 31, 85
4, 252823, Note_on_c, 1, 31, 0
4, 252852, Note_on_c, 1, 34, 74
4, 252948, Note_on_c, 1, 34, 0
4, 252998, Note_on_c, 1, 35, 63
4, 253204, Note_on_c, 1, 35, 0
4, 253230, Note_on_c, 1, 36, 106
4, 253478, Note_on_c, 1, 36, 0
4, 253654, Note_on_c, 1, 43, 70
4, 253748, Note_on_c, 1, 43, 0
4, 254149, Note_on_c, 1, 43, 79
4, 254502, Note_on_c, 1, 43, 0
4, 254541, Note_on_c, 1, 31, 62
4, 255547, Note_on_c, 1, 43, 96
4, 255618, Note_on_c, 1, 31, 0
4, 256117, Note_on_c, 1, 31, 83
4, 256294, Note_on_c, 1, 43, 0
4, 257511, Note_on_c, 1, 38, 48
4, 257573, Note_on_c, 1, 38, 0
4, 257636, Note_on_c, 1, 31, 0
4, 257646, Note_on_c, 1, 43, 73
4, 257824, Note_on_c, 1, 43, 0
4, 257886, Note_on_c, 1, 43, 85
4, 258615, Note_on_c, 1, 31, 77
4, 258658, Note_on_c, 1, 43, 0
4, 260724, Note_on_c, 1, 43, 58
4, 260741, Note_on_c, 1, 31, 0
4, 260824, Note_on_c, 1, 43, 0
4, 260958, Note_on_c, 1, 43, 73
4, 262226, Note_on_c, 1, 31, 60
4, 262298, Note_on_c, 1, 43, 0
4, 264562, Note_on_c, 1, 31, 0
4, 264914, Note_on_c, 1, 36, 81
4, 265687, Note_on_c, 1, 48, 74
4, 265743, Note_on_c, 1, 48, 0
4, 266278, Note_on_c, 1, 36, 0
4, 266288, Note_on_c, 1, 48, 73
4, 266782, Note_on_c, 1, 48, 0
4, 266849, Note_on_c, 1, 36, 64
4, 268097, Note_on_c, 1, 36, 0
4, 268097, End_track
5, 0, Start_track
5, 0, MIDI_port, 0
5, 0, Title_t, "dougmck@pipeline.com.au"
5, 0, End_track
6, 0, Start_track
6, 0, MIDI_port, 0
6, 0, Title_t, ""
6, 431, Program_c, 9, 40
6, 432, Control_c, 9, 7, 100
6, 3072, Note_on_c, 9, 38, 58
6, 3072, Note_on_c, 9, 35, 30
6, 3080, Note_on_c, 9, 35, 0
6, 3092, Note_on_c, 9, 38, 0
6, 3284, Note_on_c, 9, 40, 45
6, 3332, Note_on_c, 9, 40, 0
6, 3420, Note_on_c, 9, 38, 58
6, 3420, Note_on_c, 9, 44, 82
6, 3420, Note_on_c, 9, 35, 35
6, 3424, Note_on_c, 9, 44, 0
6, 3428, Note_on_c, 9, 35, 0
6, 3432, Note_on_c, 9, 38, 0
6, 3676, Note_on_c, 9, 40, 45
6, 3724, Note_on_c, 9, 40, 0
6, 3804, Note_on_c, 9, 38, 58
6, 3804, Note_on_c, 9, 35, 35
6, 3820, Note_on_c, 9, 35, 0
6, 3820, Note_on_c, 9, 38, 0
6, 4052, Note_on_c, 9, 40, 45
6, 4096, Note_on_c, 9, 40, 0
6, 4184, Note_on_c, 9, 35, 35
6, 4188, Note_on_c, 9, 38, 77
6, 4188, Note_on_c, 9, 44, 82
6, 4192, Note_on_c, 9, 35, 0
6, 4196, Note_on_c, 9, 44, 0
6, 4196, Note_on_c, 9, 38, 0
6, 4436, Note_on_c, 9, 40, 45
6, 4448, Note_on_c, 9, 35, 74
6, 4484, Note_on_c, 9, 40, 0
6, 4504, Note_on_c, 9, 35, 0
6, 4568, Note_on_c, 9, 38, 58
6, 4568, Note_on_c, 9, 35, 35
6, 4572, Note_on_c, 9, 35, 0
6, 4576, Note_on_c, 9, 38, 0
6, 4820, Note_on_c, 9, 40, 45
6, 4868, Note_on_c, 9, 40, 0
6, 4952, Note_on_c, 9, 38, 58
6, 4952, Note_on_c, 9, 35, 35
6, 4952, Note_on_c, 9, 35, 0
6, 4956, Note_on_c, 9, 38, 0
6, 4956, Note_on_c, 9, 44, 82
6, 4956, Note_on_c, 9, 44, 0
6, 5204, Note_on_c, 9, 40, 45
6, 5252, Note_on_c, 9, 40, 0
6, 5332, Note_on_c, 9, 38, 58
6, 5336, Note_on_c, 9, 38, 0
6, 5336, Note_on_c, 9, 35, 35
6, 5340, Note_on_c, 9, 35, 0
6, 5588, Note_on_c, 9, 40, 60
6, 5608, Note_on_c, 9, 40, 0
6, 5720, Note_on_c, 9, 38, 77
6, 5720, Note_on_c, 9, 44, 82
6, 5724, Note_on_c, 9, 35, 35
6, 5732, Note_on_c, 9, 35, 0
6, 5736, Note_on_c, 9, 44, 0
6, 5736, Note_on_c, 9, 38, 0
6, 5972, Note_on_c, 9, 40, 60
6, 5980, Note_on_c, 9, 40, 0
6, 6100, Note_on_c, 9, 35, 35
6, 6104, Note_on_c, 9, 38, 58
6, 6112, Note_on_c, 9, 38, 0
6, 6112, Note_on_c, 9, 35, 0
6, 6356, Note_on_c, 9, 40, 60
6, 6372, Note_on_c, 9, 40, 0
6, 6484, Note_on_c, 9, 44, 82
6, 6488, Note_on_c, 9, 38, 58
6, 6492, Note_on_c, 9, 35, 35
6, 6496, Note_on_c, 9, 35, 0
6, 6496, Note_on_c, 9, 38, 0
6, 6496, Note_on_c, 9, 44, 0
6, 6740, Note_on_c, 9, 40, 60
6, 6756, Note_on_c, 9, 40, 0
6, 6868, Note_on_c, 9, 38, 58
6, 6872, Note_on_c, 9, 35, 35
6, 6876, Note_on_c, 9, 35, 0
6, 6880, Note_on_c, 9, 38, 0
6, 7124, Note_on_c, 9, 40, 60
6, 7144, Note_on_c, 9, 40, 0
6, 7252, Note_on_c, 9, 35, 35
6, 7256, Note_on_c, 9, 44, 82
6, 7260, Note_on_c, 9, 35, 0
6, 7260, Note_on_c, 9, 38, 77
6, 7264, Note_on_c, 9, 38, 0
6, 7264, Note_on_c, 9, 44, 0
6, 7400, Note_on_c, 9, 40, 44
6, 7433, Note_on_c, 9, 40, 0
6, 7480, Note_on_c, 9, 40, 29
6, 7512, Note_on_c, 9, 40, 60
6, 7520, Note_on_c, 9, 40, 0
6, 7544, Note_on_c, 9, 38, 81
6, 7588, Note_on_c, 9, 38, 0
6, 7631, Note_on_c, 9, 40, 0
6, 7640, Note_on_c, 9, 38, 81
6, 7640, Note_on_c, 9, 35, 35
6, 7644, Note_on_c, 9, 38, 58
6, 7652, Note_on_c, 9, 35, 0
6, 7652, Note_on_c, 9, 38, 0
6, 7652, Note_on_c, 9, 35, 68
6, 7680, Note_on_c, 9, 38, 0
6, 7708, Note_on_c, 9, 35, 0
6, 7896, Note_on_c, 9, 40, 60
6, 7908, Note_on_c, 9, 40, 0
6, 8020, Note_on_c, 9, 35, 35
6, 8024, Note_on_c, 9, 38, 58
6, 8024, Note_on_c, 9, 44, 82
6, 8028, Note_on_c, 9, 44, 0
6, 8032, Note_on_c, 9, 38, 0
6, 8032, Note_on_c, 9, 35, 0
6, 8276, Note_on_c, 9, 40, 60
6, 8292, Note_on_c, 9, 40, 0
6, 8404, Note_on_c, 9, 35, 35
6, 8408, Note_on_c, 9, 38, 58
6, 8412, Note_on_c, 9, 38, 0
6, 8412, Note_on_c, 9, 35, 0
6, 8623, Note_on_c, 9, 40, 62
6, 8660, Note_on_c, 9, 40, 60
6, 8664, Note_on_c, 9, 40, 0
6, 8683, Note_on_c, 9, 40, 0
6, 8765, Note_on_c, 9, 35, 40
6, 8788, Note_on_c, 9, 46, 62
6, 8792, Note_on_c, 9, 35, 35
6, 8796, Note_on_c, 9, 38, 77
6, 8800, Note_on_c, 9, 38, 0
6, 8800, Note_on_c, 9, 35, 0
6, 8800, Note_on_c, 9, 46, 0
6, 8925, Note_on_c, 9, 35, 0
6, 9037, Note_on_c, 9, 35, 44
6, 9048, Note_on_c, 9, 40, 60
6, 9064, Note_on_c, 9, 40, 0
6, 9075, Note_on_c, 9, 35, 0
6, 9176, Note_on_c, 9, 38, 58
6, 9176, Note_on_c, 9, 35, 35
6, 9180, Note_on_c, 9, 38, 0
6, 9184, Note_on_c, 9, 35, 0
6, 9216, Note_on_c, 9, 38, 58
6, 9216, Note_on_c, 9, 35, 30
6, 9224, Note_on_c, 9, 35, 0
6, 9236, Note_on_c, 9, 38, 0
6, 9428, Note_on_c, 9, 40, 45
6, 9476, Note_on_c, 9, 40, 0
6, 9564, Note_on_c, 9, 38, 58
6, 9564, Note_on_c, 9, 44, 82
6, 9564, Note_on_c, 9, 35, 35
6, 9568, Note_on_c, 9, 44, 0
6, 9572, Note_on_c, 9, 35, 0
6, 9576, Note_on_c, 9, 38, 0
6, 9820, Note_on_c, 9, 40, 45
6, 9868, Note_on_c, 9, 40, 0
6, 9948, Note_on_c, 9, 38, 58
6, 9948, Note_on_c, 9, 35, 35
6, 9964, Note_on_c, 9, 35, 0
6, 9964, Note_on_c, 9, 38, 0
6, 10196, Note_on_c, 9, 40, 45
6, 10203, Note_on_c, 9, 38, 63
6, 10240, Note_on_c, 9, 40, 0
6, 10251, Note_on_c, 9, 38, 0
6, 10328, Note_on_c, 9, 35, 35
6, 10332, Note_on_c, 9, 38, 77
6, 10332, Note_on_c, 9, 44, 82
6, 10336, Note_on_c, 9, 35, 0
6, 10340, Note_on_c, 9, 44, 0
6, 10340, Note_on_c, 9, 38, 0
6, 10527, Note_on_c, 9, 38, 57
6, 10580, Note_on_c, 9, 40, 45
6, 10610, Note_on_c, 9, 38, 0
6, 10628, Note_on_c, 9, 40, 0
6, 10670, Note_on_c, 9, 35, 55
6, 10712, Note_on_c, 9, 38, 58
6, 10712, Note_on_c, 9, 35, 35
6, 10714, Note_on_c, 9, 35, 0
6, 10716, Note_on_c, 9, 35, 0
6, 10720, Note_on_c, 9, 38, 0
6, 10964, Note_on_c, 9, 40, 45
6, 11012, Note_on_c, 9, 40, 0
6, 11096, Note_on_c, 9, 38, 58
6, 11096, Note_on_c, 9, 35, 35
6, 11096, Note_on_c, 9, 35, 0
6, 11100, Note_on_c, 9, 38, 0
6, 11100, Note_on_c, 9, 44, 82
6, 11100, Note_on_c, 9, 44, 0
6, 11348, Note_on_c, 9, 40, 45
6, 11396, Note_on_c, 9, 40, 0
6, 11476, Note_on_c, 9, 38, 58
6, 11480, Note_on_c, 9, 38, 0
6, 11480, Note_on_c, 9, 35, 35
6, 11484, Note_on_c, 9, 35, 0
6, 11732, Note_on_c, 9, 40, 60
6, 11752, Note_on_c, 9, 40, 0
6, 11864, Note_on_c, 9, 38, 77
6, 11864, Note_on_c, 9, 44, 82
6, 11868, Note_on_c, 9, 35, 35
6, 11876, Note_on_c, 9, 35, 0
6, 11880, Note_on_c, 9, 44, 0
6, 11880, Note_on_c, 9, 38, 0
6, 12116, Note_on_c, 9, 40, 60
6, 12124, Note_on_c, 9, 40, 0
6, 12133, Note_on_c, 9, 38, 51
6, 12179, Note_on_c, 9, 38, 0
6, 12244, Note_on_c, 9, 35, 35
6, 12248, Note_on_c, 9, 38, 58
6, 12256, Note_on_c, 9, 38, 0
6, 12256, Note_on_c, 9, 35, 0
6, 12256, Note_on_c, 9, 59, 59
6, 12284, Note_on_c, 9, 35, 44
6, 12288, Note_on_c, 9, 59, 0
6, 12342, Note_on_c, 9, 35, 0
6, 12500, Note_on_c, 9, 40, 60
6, 12516, Note_on_c, 9, 40, 0
6, 12628, Note_on_c, 9, 44, 82
6, 12632, Note_on_c, 9, 38, 58
6, 12636, Note_on_c, 9, 35, 35
6, 12640, Note_on_c, 9, 35, 0
6, 12640, Note_on_c, 9, 38, 0
6, 12640, Note_on_c, 9, 44, 0
6, 12884, Note_on_c, 9, 40, 60
6, 12900, Note_on_c, 9, 40, 0
6, 13012, Note_on_c, 9, 38, 58
6, 13016, Note_on_c, 9, 35, 35
6, 13020, Note_on_c, 9, 35, 0
6, 13024, Note_on_c, 9, 38, 0
6, 13268, Note_on_c, 9, 40, 60
6, 13288, Note_on_c, 9, 40, 0
6, 13396, Note_on_c, 9, 35, 35
6, 13400, Note_on_c, 9, 44, 82
6, 13404, Note_on_c, 9, 35, 0
6, 13404, Note_on_c, 9, 38, 77
6, 13408, Note_on_c, 9, 38, 0
6, 13408, Note_on_c, 9, 44, 0
6, 13656, Note_on_c, 9, 40, 60
6, 13664, Note_on_c, 9, 40, 0
6, 13688, Note_on_c, 9, 38, 81
6, 13732, Note_on_c, 9, 38, 0
6, 13784, Note_on_c, 9, 38, 81
6, 13784, Note_on_c, 9, 35, 35
6, 13788, Note_on_c, 9, 38, 58
6, 13796, Note_on_c, 9, 35, 0
6, 13796, Note_on_c, 9, 38, 0
6, 13824, Note_on_c, 9, 38, 0
6, 14040, Note_on_c, 9, 40, 60
6, 14052, Note_on_c, 9, 40, 0
6, 14164, Note_on_c, 9, 35, 35
6, 14168, Note_on_c, 9, 38, 58
6, 14168, Note_on_c, 9, 44, 82
6, 14172, Note_on_c, 9, 44, 0
6, 14176, Note_on_c, 9, 38, 0
6, 14176, Note_on_c, 9, 35, 0
6, 14420, Note_on_c, 9, 40, 60
6, 14436, Note_on_c, 9, 40, 0
6, 14438, Note_on_c, 9, 35, 59
6, 14510, Note_on_c, 9, 35, 0
6, 14548, Note_on_c, 9, 35, 35
6, 14552, Note_on_c, 9, 38, 58
6, 14556, Note_on_c, 9, 38, 0
6, 14556, Note_on_c, 9, 35, 0
6, 14570, Note_on_c, 9, 35, 36
6, 14765, Note_on_c, 9, 35, 0
6, 14804, Note_on_c, 9, 40, 60
6, 14808, Note_on_c, 9, 40, 0
6, 14839, Note_on_c, 9, 35, 54
6, 14887, Note_on_c, 9, 35, 0
6, 14932, Note_on_c, 9, 46, 62
6, 14936, Note_on_c, 9, 35, 35
6, 14940, Note_on_c, 9, 38, 77
6, 14944, Note_on_c, 9, 38, 0
6, 14944, Note_on_c, 9, 35, 0
6, 14944, Note_on_c, 9, 46, 0
6, 15192, Note_on_c, 9, 40, 60
6, 15208, Note_on_c, 9, 40, 0
6, 15320, Note_on_c, 9, 38, 58
6, 15320, Note_on_c, 9, 35, 35
6, 15324, Note_on_c, 9, 38, 0
6, 15328, Note_on_c, 9, 35, 0
6, 15576, Note_on_c, 9, 40, 60
6, 15588, Note_on_c, 9, 40, 0
6, 15704, Note_on_c, 9, 44, 82
6, 15704, Note_on_c, 9, 35, 35
6, 15708, Note_on_c, 9, 38, 58
6, 15716, Note_on_c, 9, 38, 0
6, 15720, Note_on_c, 9, 35, 0
6, 15720, Note_on_c, 9, 44, 0
6, 15956, Note_on_c, 9, 40, 60
6, 15972, Note_on_c, 9, 40, 0
6, 16084, Note_on_c, 9, 38, 58
6, 16088, Note_on_c, 9, 35, 35
6, 16092, Note_on_c, 9, 38, 0
6, 16096, Note_on_c, 9, 35, 0
6, 16340, Note_on_c, 9, 40, 60
6, 16356, Note_on_c, 9, 40, 0
6, 16472, Note_on_c, 9, 38, 77
6, 16472, Note_on_c, 9, 44, 82
6, 16472, Note_on_c, 9, 35, 35
6, 16484, Note_on_c, 9, 35, 0
6, 16488, Note_on_c, 9, 44, 0
6, 16492, Note_on_c, 9, 38, 0
6, 16724, Note_on_c, 9, 40, 60
6, 16727, Note_on_c, 9, 38, 57
6, 16740, Note_on_c, 9, 40, 0
6, 16755, Note_on_c, 9, 38, 0
6, 16852, Note_on_c, 9, 38, 58
6, 16856, Note_on_c, 9, 35, 35
6, 16864, Note_on_c, 9, 35, 0
6, 16868, Note_on_c, 9, 38, 0
6, 17106, Note_on_c, 9, 38, 61
6, 17108, Note_on_c, 9, 40, 60
6, 17124, Note_on_c, 9, 40, 0
6, 17134, Note_on_c, 9, 38, 0
6, 17236, Note_on_c, 9, 38, 58
6, 17240, Note_on_c, 9, 44, 82
6, 17240, Note_on_c, 9, 35, 35
6, 17248, Note_on_c, 9, 44, 0
6, 17252, Note_on_c, 9, 35, 0
6, 17252, Note_on_c, 9, 38, 0
6, 17298, Note_on_c, 9, 35, 51
6, 17380, Note_on_c, 9, 35, 0
6, 17496, Note_on_c, 9, 40, 60
6, 17508, Note_on_c, 9, 40, 0
6, 17535, Note_on_c, 9, 35, 69
6, 17602, Note_on_c, 9, 35, 0
6, 17624, Note_on_c, 9, 38, 58
6, 17624, Note_on_c, 9, 35, 35
6, 17632, Note_on_c, 9, 35, 0
6, 17632, Note_on_c, 9, 38, 0
6, 17876, Note_on_c, 9, 40, 60
6, 17892, Note_on_c, 9, 40, 0
6, 18004, Note_on_c, 9, 38, 77
6, 18008, Note_on_c, 9, 44, 82
6, 18008, Note_on_c, 9, 35, 35
6, 18020, Note_on_c, 9, 35, 0
6, 18020, Note_on_c, 9, 44, 0
6, 18020, Note_on_c, 9, 38, 0
6, 18260, Note_on_c, 9, 40, 60
6, 18272, Note_on_c, 9, 40, 0
6, 18388, Note_on_c, 9, 38, 58
6, 18392, Note_on_c, 9, 35, 35
6, 18396, Note_on_c, 9, 35, 0
6, 18396, Note_on_c, 9, 38, 0
6, 18644, Note_on_c, 9, 40, 60
6, 18652, Note_on_c, 9, 40, 0
6, 18776, Note_on_c, 9, 38, 58
6, 18776, Note_on_c, 9, 44, 82
6, 18780, Note_on_c, 9, 35, 35
6, 18784, Note_on_c, 9, 35, 0
6, 18784, Note_on_c, 9, 44, 0
6, 18784, Note_on_c, 9, 38, 0
6, 18917, Note_on_c, 9, 38, 69
6, 18946, Note_on_c, 9, 38, 0
6, 19028, Note_on_c, 9, 40, 60
6, 19048, Note_on_c, 9, 40, 0
6, 19048, Note_on_c, 9, 38, 63
6, 19101, Note_on_c, 9, 38, 0
6, 19156, Note_on_c, 9, 35, 35
6, 19160, Note_on_c, 9, 38, 58
6, 19168, Note_on_c, 9, 38, 0
6, 19168, Note_on_c, 9, 35, 0
6, 19180, Note_on_c, 9, 35, 42
6, 19263, Note_on_c, 9, 35, 0
6, 19416, Note_on_c, 9, 40, 60
6, 19424, Note_on_c, 9, 40, 0
6, 19544, Note_on_c, 9, 38, 77
6, 19544, Note_on_c, 9, 35, 35
6, 19548, Note_on_c, 9, 44, 82
6, 19556, Note_on_c, 9, 44, 0
6, 19560, Note_on_c, 9, 35, 0
6, 19560, Note_on_c, 9, 38, 0
6, 19796, Note_on_c, 9, 40, 60
6, 19812, Note_on_c, 9, 40, 0
6, 19837, Note_on_c, 9, 35, 31
6, 19881, Note_on_c, 9, 35, 0
6, 19924, Note_on_c, 9, 38, 58
6, 19924, Note_on_c, 9, 35, 35
6, 19932, Note_on_c, 9, 35, 0
6, 19932, Note_on_c, 9, 38, 0
6, 20175, Note_on_c, 9, 39, 61
6, 20180, Note_on_c, 9, 40, 60
6, 20188, Note_on_c, 9, 40, 0
6, 20206, Note_on_c, 9, 39, 0
6, 20312, Note_on_c, 9, 38, 58
6, 20312, Note_on_c, 9, 44, 82
6, 20312, Note_on_c, 9, 35, 35
6, 20320, Note_on_c, 9, 35, 0
6, 20320, Note_on_c, 9, 44, 0
6, 20320, Note_on_c, 9, 38, 0
6, 20330, Note_on_c, 9, 35, 22
6, 20380, Note_on_c, 9, 35, 0
6, 20554, Note_on_c, 9, 35, 62
6, 20564, Note_on_c, 9, 40, 60
6, 20584, Note_on_c, 9, 40, 0
6, 20637, Note_on_c, 9, 35, 0
6, 20681, Note_on_c, 9, 35, 35
6, 20692, Note_on_c, 9, 35, 35
6, 20696, Note_on_c, 9, 38, 58
6, 20700, Note_on_c, 9, 38, 0
6, 20700, Note_on_c, 9, 35, 0
6, 20784, Note_on_c, 9, 35, 0
6, 20952, Note_on_c, 9, 40, 60
6, 20964, Note_on_c, 9, 40, 0
6, 21080, Note_on_c, 9, 46, 62
6, 21080, Note_on_c, 9, 35, 35
6, 21084, Note_on_c, 9, 38, 77
6, 21092, Note_on_c, 9, 38, 0
6, 21096, Note_on_c, 9, 35, 0
6, 21096, Note_on_c, 9, 46, 0
6, 21336, Note_on_c, 9, 40, 60
6, 21348, Note_on_c, 9, 40, 0
6, 21468, Note_on_c, 9, 38, 58
6, 21468, Note_on_c, 9, 35, 30
6, 21484, Note_on_c, 9, 35, 0
6, 21484, Note_on_c, 9, 38, 0
6, 21716, Note_on_c, 9, 40, 45
6, 21764, Note_on_c, 9, 40, 0
6, 21852, Note_on_c, 9, 38, 58
6, 21852, Note_on_c, 9, 44, 82
6, 21852, Note_on_c, 9, 35, 35
6, 21868, Note_on_c, 9, 35, 0
6, 21868, Note_on_c, 9, 44, 0
6, 21872, Note_on_c, 9, 38, 0
6, 22108, Note_on_c, 9, 40, 45
6, 22156, Note_on_c, 9, 40, 0
6, 22236, Note_on_c, 9, 38, 58
6, 22236, Note_on_c, 9, 35, 35
6, 22244, Note_on_c, 9, 35, 0
6, 22244, Note_on_c, 9, 38, 0
6, 22484, Note_on_c, 9, 40, 45
6, 22532, Note_on_c, 9, 40, 0
6, 22612, Note_on_c, 9, 35, 35
6, 22620, Note_on_c, 9, 38, 77
6, 22620, Note_on_c, 9, 44, 82
6, 22624, Note_on_c, 9, 35, 0
6, 22628, Note_on_c, 9, 44, 0
6, 22628, Note_on_c, 9, 38, 0
6, 22868, Note_on_c, 9, 40, 45
6, 22885, Note_on_c, 9, 39, 75
6, 22916, Note_on_c, 9, 40, 0
6, 22976, Note_on_c, 9, 39, 0
6, 23000, Note_on_c, 9, 38, 58
6, 23000, Note_on_c, 9, 35, 35
6, 23004, Note_on_c, 9, 35, 0
6, 23008, Note_on_c, 9, 38, 0
6, 23039, Note_on_c, 9, 35, 43
6, 23206, Note_on_c, 9, 35, 0
6, 23252, Note_on_c, 9, 40, 45
6, 23300, Note_on_c, 9, 40, 0
6, 23380, Note_on_c, 9, 35, 35
6, 23384, Note_on_c, 9, 38, 58
6, 23388, Note_on_c, 9, 35, 0
6, 23388, Note_on_c, 9, 44, 82
6, 23392, Note_on_c, 9, 44, 0
6, 23392, Note_on_c, 9, 38, 0
6, 23636, Note_on_c, 9, 40, 45
6, 23684, Note_on_c, 9, 40, 0
6, 23764, Note_on_c, 9, 38, 58
6, 23768, Note_on_c, 9, 38, 0
6, 23768, Note_on_c, 9, 35, 35
6, 23772, Note_on_c, 9, 35, 0
6, 24020, Note_on_c, 9, 40, 60
6, 24036, Note_on_c, 9, 40, 0
6, 24156, Note_on_c, 9, 38, 77
6, 24156, Note_on_c, 9, 44, 82
6, 24156, Note_on_c, 9, 35, 35
6, 24168, Note_on_c, 9, 35, 0
6, 24168, Note_on_c, 9, 44, 0
6, 24168, Note_on_c, 9, 38, 0
6, 24404, Note_on_c, 9, 40, 60
6, 24424, Note_on_c, 9, 40, 0
6, 24532, Note_on_c, 9, 38, 58
6, 24532, Note_on_c, 9, 35, 35
6, 24540, Note_on_c, 9, 38, 0
6, 24544, Note_on_c, 9, 35, 0
6, 24792, Note_on_c, 9, 40, 60
6, 24796, Note_on_c, 9, 40, 0
6, 24916, Note_on_c, 9, 38, 58
6, 24916, Note_on_c, 9, 44, 82
6, 24924, Note_on_c, 9, 35, 35
6, 24928, Note_on_c, 9, 35, 0
6, 24928, Note_on_c, 9, 44, 0
6, 24928, Note_on_c, 9, 38, 0
6, 25172, Note_on_c, 9, 40, 60
6, 25188, Note_on_c, 9, 40, 0
6, 25304, Note_on_c, 9, 38, 58
6, 25304, Note_on_c, 9, 35, 35
6, 25312, Note_on_c, 9, 35, 0
6, 25312, Note_on_c, 9, 38, 0
6, 25556, Note_on_c, 9, 40, 60
6, 25572, Note_on_c, 9, 40, 0
6, 25684, Note_on_c, 9, 35, 35
6, 25688, Note_on_c, 9, 44, 82
6, 25692, Note_on_c, 9, 35, 0
6, 25692, Note_on_c, 9, 38, 77
6, 25696, Note_on_c, 9, 38, 0
6, 25696, Note_on_c, 9, 44, 0
6, 25857, Note_on_c, 9, 39, 72
6, 25913, Note_on_c, 9, 39, 0
6, 25940, Note_on_c, 9, 40, 60
6, 25960, Note_on_c, 9, 40, 0
6, 25966, Note_on_c, 9, 39, 73
6, 25976, Note_on_c, 9, 38, 81
6, 26020, Note_on_c, 9, 38, 0
6, 26045, Note_on_c, 9, 39, 0
6, 26068, Note_on_c, 9, 38, 81
6, 26072, Note_on_c, 9, 35, 35
6, 26076, Note_on_c, 9, 38, 58
6, 26080, Note_on_c, 9, 35, 0
6, 26080, Note_on_c, 9, 38, 0
6, 26114, Note_on_c, 9, 59, 42
6, 26114, Note_on_c, 9, 35, 58
6, 26116, Note_on_c, 9, 38, 0
6, 26149, Note_on_c, 9, 59, 0
6, 26208, Note_on_c, 9, 35, 0
6, 26324, Note_on_c, 9, 40, 60
6, 26340, Note_on_c, 9, 40, 0
6, 26452, Note_on_c, 9, 38, 58
6, 26452, Note_on_c, 9, 35, 35
6, 26460, Note_on_c, 9, 44, 82
6, 26464, Note_on_c, 9, 44, 0
6, 26464, Note_on_c, 9, 35, 0
6, 26464, Note_on_c, 9, 38, 0
6, 26712, Note_on_c, 9, 40, 60
6, 26728, Note_on_c, 9, 40, 0
6, 26836, Note_on_c, 9, 38, 58
6, 26836, Note_on_c, 9, 35, 35
6, 26840, Note_on_c, 9, 38, 0
6, 26844, Note_on_c, 9, 35, 0
6, 27084, Note_on_c, 9, 39, 79
6, 27092, Note_on_c, 9, 40, 60
6, 27108, Note_on_c, 9, 40, 0
6, 27171, Note_on_c, 9, 39, 0
6, 27220, Note_on_c, 9, 44, 82
6, 27220, Note_on_c, 9, 35, 35
6, 27228, Note_on_c, 9, 38, 77
6, 27232, Note_on_c, 9, 38, 0
6, 27232, Note_on_c, 9, 35, 0
6, 27232, Note_on_c, 9, 44, 0
6, 27253, Note_on_c, 9, 35, 34
6, 27301, Note_on_c, 9, 35, 0
6, 27461, Note_on_c, 9, 35, 60
6, 27476, Note_on_c, 9, 40, 60
6, 27488, Note_on_c, 9, 40, 0
6, 27531, Note_on_c, 9, 35, 0
6, 27604, Note_on_c, 9, 38, 58
6, 27608, Note_on_c, 9, 35, 35
6, 27612, Note_on_c, 9, 35, 0
6, 27612, Note_on_c, 9, 38, 0
6, 27860, Note_on_c, 9, 40, 60
6, 27880, Note_on_c, 9, 40, 0
6, 27988, Note_on_c, 9, 38, 58
6, 27988, Note_on_c, 9, 44, 82
6, 27988, Note_on_c, 9, 35, 35
6, 28000, Note_on_c, 9, 38, 0
6, 28004, Note_on_c, 9, 35, 0
6, 28004, Note_on_c, 9, 44, 0
6, 28248, Note_on_c, 9, 40, 60
6, 28248, Note_on_c, 9, 40, 0
6, 28376, Note_on_c, 9, 38, 58
6, 28376, Note_on_c, 9, 35, 35
6, 28380, Note_on_c, 9, 38, 0
6, 28384, Note_on_c, 9, 35, 0
6, 28632, Note_on_c, 9, 40, 60
6, 28635, Note_on_c, 9, 35, 71
6, 28644, Note_on_c, 9, 40, 0
6, 28702, Note_on_c, 9, 35, 0
6, 28756, Note_on_c, 9, 44, 82
6, 28757, Note_on_c, 9, 35, 66
6, 28760, Note_on_c, 9, 38, 77
6, 28760, Note_on_c, 9, 35, 35
6, 28772, Note_on_c, 9, 35, 0
6, 28776, Note_on_c, 9, 44, 0
6, 28776, Note_on_c, 9, 38, 0
6, 28943, Note_on_c, 9, 35, 0
6, 29012, Note_on_c, 9, 40, 60
6, 29028, Note_on_c, 9, 40, 0
6, 29140, Note_on_c, 9, 38, 58
6, 29144, Note_on_c, 9, 35, 35
6, 29148, Note_on_c, 9, 35, 0
6, 29148, Note_on_c, 9, 38, 0
6, 29396, Note_on_c, 9, 40, 60
6, 29412, Note_on_c, 9, 40, 0
6, 29528, Note_on_c, 9, 38, 58
6, 29528, Note_on_c, 9, 44, 82
6, 29528, Note_on_c, 9, 35, 35
6, 29544, Note_on_c, 9, 44, 0
6, 29544, Note_on_c, 9, 38, 0
6, 29548, Note_on_c, 9, 35, 0
6, 29780, Note_on_c, 9, 40, 60
6, 29800, Note_on_c, 9, 40, 0
6, 29908, Note_on_c, 9, 38, 58
6, 29916, Note_on_c, 9, 35, 35
6, 29920, Note_on_c, 9, 35, 0
6, 29920, Note_on_c, 9, 38, 0
6, 30168, Note_on_c, 9, 40, 60
6, 30182, Note_on_c, 9, 38, 90
6, 30184, Note_on_c, 9, 40, 0
6, 30217, Note_on_c, 9, 38, 0
6, 30296, Note_on_c, 9, 38, 77
6, 30296, Note_on_c, 9, 44, 82
6, 30296, Note_on_c, 9, 35, 35
6, 30308, Note_on_c, 9, 44, 0
6, 30312, Note_on_c, 9, 35, 0
6, 30312, Note_on_c, 9, 38, 0
6, 30548, Note_on_c, 9, 40, 60
6, 30564, Note_on_c, 9, 40, 0
6, 30676, Note_on_c, 9, 38, 58
6, 30680, Note_on_c, 9, 35, 35
6, 30688, Note_on_c, 9, 35, 0
6, 30688, Note_on_c, 9, 38, 0
6, 30932, Note_on_c, 9, 40, 60
6, 30948, Note_on_c, 9, 40, 0
6, 31060, Note_on_c, 9, 38, 58
6, 31060, Note_on_c, 9, 44, 82
6, 31072, Note_on_c, 9, 44, 0
6, 31072, Note_on_c, 9, 38, 0
6, 31072, Note_on_c, 9, 35, 35
6, 31072, Note_on_c, 9, 35, 0
6, 31316, Note_on_c, 9, 40, 60
6, 31318, Note_on_c, 9, 35, 49
6, 31336, Note_on_c, 9, 40, 0
6, 31358, Note_on_c, 9, 35, 0
6, 31444, Note_on_c, 9, 35, 35
6, 31447, Note_on_c, 9, 35, 27
6, 31448, Note_on_c, 9, 38, 58
6, 31456, Note_on_c, 9, 38, 0
6, 31456, Note_on_c, 9, 35, 0
6, 31611, Note_on_c, 9, 35, 0
6, 31700, Note_on_c, 9, 40, 60
6, 31720, Note_on_c, 9, 40, 0
6, 31828, Note_on_c, 9, 38, 77
6, 31832, Note_on_c, 9, 35, 35
6, 31836, Note_on_c, 9, 46, 62
6, 31848, Note_on_c, 9, 46, 0
6, 31848, Note_on_c, 9, 35, 0
6, 31848, Note_on_c, 9, 38, 0
6, 32088, Note_on_c, 9, 40, 60
6, 32099, Note_on_c, 9, 35, 58
6, 32100, Note_on_c, 9, 40, 0
6, 32132, Note_on_c, 9, 35, 0
6, 32216, Note_on_c, 9, 38, 58
6, 32216, Note_on_c, 9, 35, 35
6, 32224, Note_on_c, 9, 35, 0
6, 32224, Note_on_c, 9, 38, 0
6, 32468, Note_on_c, 9, 40, 60
6, 32484, Note_on_c, 9, 40, 0
6, 32596, Note_on_c, 9, 38, 58
6, 32596, Note_on_c, 9, 35, 35
6, 32604, Note_on_c, 9, 44, 82
6, 32608, Note_on_c, 9, 44, 0
6, 32612, Note_on_c, 9, 35, 0
6, 32612, Note_on_c, 9, 38, 0
6, 32852, Note_on_c, 9, 40, 60
6, 32864, Note_on_c, 9, 40, 0
6, 32984, Note_on_c, 9, 38, 58
6, 32984, Note_on_c, 9, 35, 35
6, 32988, Note_on_c, 9, 35, 0
6, 32988, Note_on_c, 9, 38, 0
6, 33236, Note_on_c, 9, 40, 60
6, 33251, Note_on_c, 9, 35, 48
6, 33256, Note_on_c, 9, 40, 0
6, 33283, Note_on_c, 9, 35, 0
6, 33372, Note_on_c, 9, 38, 77
6, 33372, Note_on_c, 9, 44, 82
6, 33372, Note_on_c, 9, 35, 35
6, 33384, Note_on_c, 9, 35, 0
6, 33384, Note_on_c, 9, 44, 0
6, 33384, Note_on_c, 9, 38, 0
6, 33620, Note_on_c, 9, 40, 60
6, 33628, Note_on_c, 9, 46, 97
6, 33640, Note_on_c, 9, 40, 0
6, 33666, Note_on_c, 9, 46, 0
6, 33756, Note_on_c, 9, 38, 58
6, 33756, Note_on_c, 9, 35, 30
6, 33772, Note_on_c, 9, 35, 0
6, 33772, Note_on_c, 9, 38, 0
6, 34004, Note_on_c, 9, 40, 45
6, 34052, Note_on_c, 9, 40, 0
6, 34140, Note_on_c, 9, 38, 58
6, 34140, Note_on_c, 9, 44, 82
6, 34140, Note_on_c, 9, 35, 35
6, 34156, Note_on_c, 9, 35, 0
6, 34156, Note_on_c, 9, 44, 0
6, 34156, Note_on_c, 9, 38, 0
6, 34396, Note_on_c, 9, 40, 45
6, 34444, Note_on_c, 9, 40, 0
6, 34524, Note_on_c, 9, 38, 58
6, 34524, Note_on_c, 9, 35, 35
6, 34540, Note_on_c, 9, 35, 0
6, 34540, Note_on_c, 9, 38, 0
6, 34772, Note_on_c, 9, 40, 45
6, 34774, Note_on_c, 9, 38, 37
6, 34820, Note_on_c, 9, 40, 0
6, 34826, Note_on_c, 9, 38, 0
6, 34897, Note_on_c, 9, 35, 57
6, 34900, Note_on_c, 9, 35, 35
6, 34908, Note_on_c, 9, 38, 77
6, 34908, Note_on_c, 9, 44, 82
6, 34912, Note_on_c, 9, 35, 0
6, 34916, Note_on_c, 9, 44, 0
6, 34916, Note_on_c, 9, 38, 0
6, 35121, Note_on_c, 9, 35, 0
6, 35156, Note_on_c, 9, 40, 45
6, 35171, Note_on_c, 9, 35, 56
6, 35204, Note_on_c, 9, 40, 0
6, 35216, Note_on_c, 9, 35, 0
6, 35284, Note_on_c, 9, 38, 58
6, 35284, Note_on_c, 9, 35, 35
6, 35292, Note_on_c, 9, 35, 0
6, 35292, Note_on_c, 9, 38, 0
6, 35540, Note_on_c, 9, 40, 45
6, 35588, Note_on_c, 9, 40, 0
6, 35668, Note_on_c, 9, 35, 35
6, 35672, Note_on_c, 9, 35, 0
6, 35672, Note_on_c, 9, 38, 58
6, 35676, Note_on_c, 9, 38, 0
6, 35676, Note_on_c, 9, 44, 82
6, 35676, Note_on_c, 9, 44, 0
6, 35928, Note_on_c, 9, 40, 45
6, 35972, Note_on_c, 9, 40, 0
6, 36052, Note_on_c, 9, 38, 58
6, 36056, Note_on_c, 9, 38, 0
6, 36056, Note_on_c, 9, 35, 35
6, 36060, Note_on_c, 9, 35, 0
6, 36308, Note_on_c, 9, 40, 60
6, 36324, Note_on_c, 9, 40, 0
6, 36436, Note_on_c, 9, 46, 62
6, 36440, Note_on_c, 9, 38, 77
6, 36440, Note_on_c, 9, 35, 35
6, 36452, Note_on_c, 9, 35, 0
6, 36452, Note_on_c, 9, 38, 0
6, 36452, Note_on_c, 9, 46, 0
6, 36696, Note_on_c, 9, 40, 60
6, 36708, Note_on_c, 9, 40, 0
6, 36709, Note_on_c, 9, 35, 55
6, 36777, Note_on_c, 9, 35, 0
6, 36820, Note_on_c, 9, 35, 35
6, 36824, Note_on_c, 9, 38, 58
6, 36828, Note_on_c, 9, 38, 0
6, 36828, Note_on_c, 9, 35, 0
6, 36862, Note_on_c, 9, 35, 35
6, 36903, Note_on_c, 9, 35, 0
6, 37076, Note_on_c, 9, 40, 60
6, 37096, Note_on_c, 9, 40, 0
6, 37204, Note_on_c, 9, 44, 82
6, 37208, Note_on_c, 9, 38, 58
6, 37212, Note_on_c, 9, 44, 0
6, 37212, Note_on_c, 9, 35, 35
6, 37212, Note_on_c, 9, 35, 0
6, 37216, Note_on_c, 9, 38, 0
6, 37464, Note_on_c, 9, 40, 60
6, 37476, Note_on_c, 9, 40, 0
6, 37588, Note_on_c, 9, 38, 58
6, 37592, Note_on_c, 9, 35, 35
6, 37600, Note_on_c, 9, 35, 0
6, 37600, Note_on_c, 9, 38, 0
6, 37848, Note_on_c, 9, 40, 60
6, 37860, Note_on_c, 9, 40, 0
6, 37972, Note_on_c, 9, 35, 35
6, 37976, Note_on_c, 9, 44, 82
6, 37980, Note_on_c, 9, 35, 0
6, 37980, Note_on_c, 9, 38, 77
6, 37984, Note_on_c, 9, 38, 0
6, 37984, Note_on_c, 9, 44, 0
6, 38228, Note_on_c, 9, 40, 60
6, 38230, Note_on_c, 9, 35, 54
6, 38244, Note_on_c, 9, 40, 0
6, 38260, Note_on_c, 9, 35, 0
6, 38264, Note_on_c, 9, 38, 81
6, 38308, Note_on_c, 9, 38, 0
6, 38360, Note_on_c, 9, 38, 81
6, 38360, Note_on_c, 9, 35, 35
6, 38364, Note_on_c, 9, 38, 58
6, 38368, Note_on_c, 9, 35, 0
6, 38368, Note_on_c, 9, 38, 0
6, 38404, Note_on_c, 9, 38, 0
6, 38612, Note_on_c, 9, 40, 60
6, 38628, Note_on_c, 9, 40, 0
6, 38740, Note_on_c, 9, 35, 35
6, 38744, Note_on_c, 9, 38, 58
6, 38748, Note_on_c, 9, 44, 82
6, 38756, Note_on_c, 9, 44, 0
6, 38756, Note_on_c, 9, 38, 0
6, 38756, Note_on_c, 9, 35, 0
6, 38996, Note_on_c, 9, 40, 60
6, 39012, Note_on_c, 9, 40, 0
6, 39124, Note_on_c, 9, 35, 35
6, 39128, Note_on_c, 9, 38, 58
6, 39128, Note_on_c, 9, 38, 0
6, 39136, Note_on_c, 9, 35, 0
6, 39384, Note_on_c, 9, 40, 60
6, 39396, Note_on_c, 9, 40, 0
6, 39508, Note_on_c, 9, 44, 82
6, 39512, Note_on_c, 9, 35, 35
6, 39516, Note_on_c, 9, 38, 77
6, 39520, Note_on_c, 9, 38, 0
6, 39520, Note_on_c, 9, 35, 0
6, 39520, Note_on_c, 9, 44, 0
6, 39764, Note_on_c, 9, 40, 60
6, 39772, Note_on_c, 9, 40, 0
6, 39782, Note_on_c, 9, 35, 51
6, 39815, Note_on_c, 9, 35, 0
6, 39892, Note_on_c, 9, 38, 58
6, 39896, Note_on_c, 9, 35, 35
6, 39900, Note_on_c, 9, 35, 0
6, 39900, Note_on_c, 9, 38, 0
6, 39928, Note_on_c, 9, 35, 57
6, 39952, Note_on_c, 9, 51, 36
6, 39965, Note_on_c, 9, 35, 0
6, 39980, Note_on_c, 9, 51, 0
6, 40148, Note_on_c, 9, 40, 60
6, 40164, Note_on_c, 9, 40, 0
6, 40276, Note_on_c, 9, 44, 82
6, 40276, Note_on_c, 9, 35, 35
6, 40280, Note_on_c, 9, 38, 58
6, 40292, Note_on_c, 9, 38, 0
6, 40296, Note_on_c, 9, 35, 0
6, 40300, Note_on_c, 9, 44, 0
6, 40532, Note_on_c, 9, 40, 60
6, 40548, Note_on_c, 9, 40, 0
6, 40660, Note_on_c, 9, 38, 58
6, 40660, Note_on_c, 9, 35, 35
6, 40668, Note_on_c, 9, 35, 0
6, 40668, Note_on_c, 9, 38, 0
6, 40916, Note_on_c, 9, 40, 60
6, 40917, Note_on_c, 9, 51, 57
6, 40936, Note_on_c, 9, 40, 0
6, 40945, Note_on_c, 9, 51, 0
6, 41022, Note_on_c, 9, 35, 28
6, 41048, Note_on_c, 9, 38, 77
6, 41048, Note_on_c, 9, 44, 82
6, 41048, Note_on_c, 9, 35, 35
6, 41064, Note_on_c, 9, 44, 0
6, 41064, Note_on_c, 9, 35, 0
6, 41064, Note_on_c, 9, 38, 0
6, 41076, Note_on_c, 9, 35, 0
6, 41294, Note_on_c, 9, 35, 78
6, 41304, Note_on_c, 9, 40, 60
6, 41316, Note_on_c, 9, 40, 0
6, 41417, Note_on_c, 9, 35, 0
6, 41432, Note_on_c, 9, 38, 58
6, 41432, Note_on_c, 9, 35, 35
6, 41436, Note_on_c, 9, 35, 0
6, 41440, Note_on_c, 9, 38, 0
6, 41449, Note_on_c, 9, 35, 50
6, 41594, Note_on_c, 9, 35, 0
6, 41684, Note_on_c, 9, 40, 60
6, 41696, Note_on_c, 9, 35, 47
6, 41704, Note_on_c, 9, 40, 0
6, 41753, Note_on_c, 9, 35, 0
6, 41812, Note_on_c, 9, 38, 58
6, 41816, Note_on_c, 9, 44, 82
6, 41816, Note_on_c, 9, 35, 35
6, 41832, Note_on_c, 9, 35, 0
6, 41832, Note_on_c, 9, 44, 0
6, 41832, Note_on_c, 9, 38, 0
6, 42068, Note_on_c, 9, 40, 60
6, 42084, Note_on_c, 9, 40, 0
6, 42196, Note_on_c, 9, 38, 58
6, 42200, Note_on_c, 9, 35, 35
6, 42204, Note_on_c, 9, 35, 0
6, 42208, Note_on_c, 9, 38, 0
6, 42452, Note_on_c, 9, 40, 60
6, 42472, Note_on_c, 9, 40, 0
6, 42584, Note_on_c, 9, 38, 77
6, 42588, Note_on_c, 9, 44, 82
6, 42588, Note_on_c, 9, 35, 35
6, 42596, Note_on_c, 9, 44, 0
6, 42596, Note_on_c, 9, 38, 0
6, 42600, Note_on_c, 9, 35, 0
6, 42836, Note_on_c, 9, 40, 60
6, 42856, Note_on_c, 9, 40, 0
6, 42968, Note_on_c, 9, 38, 58
6, 42968, Note_on_c, 9, 35, 35
6, 42976, Note_on_c, 9, 35, 0
6, 42976, Note_on_c, 9, 38, 0
6, 43220, Note_on_c, 9, 40, 60
6, 43240, Note_on_c, 9, 40, 0
6, 43348, Note_on_c, 9, 38, 58
6, 43356, Note_on_c, 9, 44, 82
6, 43356, Note_on_c, 9, 35, 35
6, 43360, Note_on_c, 9, 35, 0
6, 43364, Note_on_c, 9, 44, 0
6, 43364, Note_on_c, 9, 38, 0
6, 43604, Note_on_c, 9, 40, 60
6, 43620, Note_on_c, 9, 40, 0
6, 43732, Note_on_c, 9, 38, 58
6, 43732, Note_on_c, 9, 35, 35
6, 43744, Note_on_c, 9, 35, 0
6, 43744, Note_on_c, 9, 38, 0
6, 43790, Note_on_c, 9, 35, 37
6, 43980, Note_on_c, 9, 35, 0
6, 43988, Note_on_c, 9, 40, 60
6, 44004, Note_on_c, 9, 40, 0
6, 44029, Note_on_c, 9, 35, 35
6, 44094, Note_on_c, 9, 35, 0
6, 44116, Note_on_c, 9, 38, 77
6, 44116, Note_on_c, 9, 35, 35
6, 44120, Note_on_c, 9, 44, 82
6, 44124, Note_on_c, 9, 44, 0
6, 44128, Note_on_c, 9, 35, 0
6, 44128, Note_on_c, 9, 38, 0
6, 44372, Note_on_c, 9, 40, 60
6, 44380, Note_on_c, 9, 40, 0
6, 44500, Note_on_c, 9, 38, 58
6, 44504, Note_on_c, 9, 35, 35
6, 44516, Note_on_c, 9, 35, 0
6, 44516, Note_on_c, 9, 38, 0
6, 44760, Note_on_c, 9, 40, 60
6, 44772, Note_on_c, 9, 40, 0
6, 44884, Note_on_c, 9, 35, 35
6, 44888, Note_on_c, 9, 38, 58
6, 44892, Note_on_c, 9, 38, 0
6, 44892, Note_on_c, 9, 44, 82
6, 44892, Note_on_c, 9, 44, 0
6, 44896, Note_on_c, 9, 35, 0
6, 45144, Note_on_c, 9, 40, 60
6, 45156, Note_on_c, 9, 40, 0
6, 45268, Note_on_c, 9, 38, 58
6, 45268, Note_on_c, 9, 35, 35
6, 45272, Note_on_c, 9, 38, 0
6, 45276, Note_on_c, 9, 35, 0
6, 45524, Note_on_c, 9, 40, 60
6, 45528, Note_on_c, 9, 40, 0
6, 45656, Note_on_c, 9, 38, 77
6, 45656, Note_on_c, 9, 46, 62
6, 45656, Note_on_c, 9, 35, 35
6, 45664, Note_on_c, 9, 35, 0
6, 45664, Note_on_c, 9, 46, 0
6, 45664, Note_on_c, 9, 38, 0
6, 45908, Note_on_c, 9, 40, 60
6, 45921, Note_on_c, 9, 35, 51
6, 45924, Note_on_c, 9, 40, 0
6, 45955, Note_on_c, 9, 35, 0
6, 46044, Note_on_c, 9, 38, 58
6, 46044, Note_on_c, 9, 35, 30
6, 46052, Note_on_c, 9, 35, 0
6, 46056, Note_on_c, 9, 38, 0
6, 46292, Note_on_c, 9, 40, 45
6, 46340, Note_on_c, 9, 40, 0
6, 46428, Note_on_c, 9, 44, 82
6, 46436, Note_on_c, 9, 38, 58
6, 46436, Note_on_c, 9, 35, 35
6, 46444, Note_on_c, 9, 35, 0
6, 46444, Note_on_c, 9, 38, 0
6, 46444, Note_on_c, 9, 44, 0
6, 46684, Note_on_c, 9, 40, 45
6, 46732, Note_on_c, 9, 40, 0
6, 46812, Note_on_c, 9, 38, 58
6, 46812, Note_on_c, 9, 35, 35
6, 46828, Note_on_c, 9, 35, 0
6, 46828, Note_on_c, 9, 38, 0
6, 47058, Note_on_c, 9, 35, 57
6, 47060, Note_on_c, 9, 40, 45
6, 47088, Note_on_c, 9, 35, 0
6, 47108, Note_on_c, 9, 40, 0
6, 47188, Note_on_c, 9, 35, 35
6, 47200, Note_on_c, 9, 35, 0
6, 47200, Note_on_c, 9, 38, 77
6, 47200, Note_on_c, 9, 44, 82
6, 47204, Note_on_c, 9, 44, 0
6, 47204, Note_on_c, 9, 38, 0
6, 47444, Note_on_c, 9, 40, 45
6, 47492, Note_on_c, 9, 40, 0
6, 47576, Note_on_c, 9, 38, 58
6, 47576, Note_on_c, 9, 35, 35
6, 47580, Note_on_c, 9, 35, 0
6, 47584, Note_on_c, 9, 38, 0
6, 47828, Note_on_c, 9, 40, 45
6, 47876, Note_on_c, 9, 40, 0
6, 47960, Note_on_c, 9, 38, 58
6, 47960, Note_on_c, 9, 35, 35
6, 47964, Note_on_c, 9, 35, 0
6, 47964, Note_on_c, 9, 44, 82
6, 47972, Note_on_c, 9, 44, 0
6, 47972, Note_on_c, 9, 38, 0
6, 48212, Note_on_c, 9, 40, 45
6, 48260, Note_on_c, 9, 40, 0
6, 48344, Note_on_c, 9, 38, 58
6, 48344, Note_on_c, 9, 38, 0
6, 48348, Note_on_c, 9, 35, 35
6, 48352, Note_on_c, 9, 35, 0
6, 48600, Note_on_c, 9, 40, 60
6, 48612, Note_on_c, 9, 40, 0
6, 48728, Note_on_c, 9, 38, 77
6, 48728, Note_on_c, 9, 44, 82
6, 48728, Note_on_c, 9, 35, 35
6, 48740, Note_on_c, 9, 35, 0
6, 48740, Note_on_c, 9, 44, 0
6, 48740, Note_on_c, 9, 38, 0
6, 48746, Note_on_c, 9, 51, 48
6, 48844, Note_on_c, 9, 51, 0
6, 48980, Note_on_c, 9, 40, 60
6, 48981, Note_on_c, 9, 35, 55
6, 48986, Note_on_c, 9, 51, 83
6, 48996, Note_on_c, 9, 40, 0
6, 49014, Note_on_c, 9, 35, 0
6, 49056, Note_on_c, 9, 51, 0
6, 49112, Note_on_c, 9, 38, 58
6, 49112, Note_on_c, 9, 35, 35
6, 49116, Note_on_c, 9, 35, 0
6, 49116, Note_on_c, 9, 38, 0
6, 49364, Note_on_c, 9, 40, 60
6, 49380, Note_on_c, 9, 40, 0
6, 49492, Note_on_c, 9, 44, 82
6, 49496, Note_on_c, 9, 38, 58
6, 49504, Note_on_c, 9, 35, 35
6, 49504, Note_on_c, 9, 35, 0
6, 49508, Note_on_c, 9, 38, 0
6, 49508, Note_on_c, 9, 44, 0
6, 49748, Note_on_c, 9, 40, 60
6, 49764, Note_on_c, 9, 40, 0
6, 49880, Note_on_c, 9, 38, 58
6, 49880, Note_on_c, 9, 35, 35
6, 49884, Note_on_c, 9, 35, 0
6, 49888, Note_on_c, 9, 38, 0
6, 50136, Note_on_c, 9, 40, 60
6, 50152, Note_on_c, 9, 40, 0
6, 50239, Note_on_c, 9, 46, 62
6, 50264, Note_on_c, 9, 35, 35
6, 50268, Note_on_c, 9, 35, 0
6, 50268, Note_on_c, 9, 38, 77
6, 50268, Note_on_c, 9, 44, 82
6, 50272, Note_on_c, 9, 44, 0
6, 50272, Note_on_c, 9, 38, 0
6, 50303, Note_on_c, 9, 46, 0
6, 50520, Note_on_c, 9, 40, 60
6, 50524, Note_on_c, 9, 40, 0
6, 50548, Note_on_c, 9, 38, 81
6, 50592, Note_on_c, 9, 38, 0
6, 50644, Note_on_c, 9, 38, 81
6, 50648, Note_on_c, 9, 38, 58
6, 50648, Note_on_c, 9, 35, 35
6, 50652, Note_on_c, 9, 35, 0
6, 50656, Note_on_c, 9, 38, 0
6, 50692, Note_on_c, 9, 38, 0
6, 50875, Note_on_c, 9, 40, 45
6, 50923, Note_on_c, 9, 40, 0
6, 51011, Note_on_c, 9, 38, 58
6, 51011, Note_on_c, 9, 44, 82
6, 51011, Note_on_c, 9, 35, 35
6, 51015, Note_on_c, 9, 44, 0
6, 51019, Note_on_c, 9, 35, 0
6, 51023, Note_on_c, 9, 38, 0
6, 51267, Note_on_c, 9, 40, 45
6, 51275, Note_on_c, 9, 35, 58
6, 51306, Note_on_c, 9, 35, 0
6, 51315, Note_on_c, 9, 40, 0
6, 51395, Note_on_c, 9, 38, 58
6, 51395, Note_on_c, 9, 35, 35
6, 51406, Note_on_c, 9, 35, 60
6, 51411, Note_on_c, 9, 35, 0
6, 51411, Note_on_c, 9, 38, 0
6, 51597, Note_on_c, 9, 35, 0
6, 51643, Note_on_c, 9, 40, 45
6, 51661, Note_on_c, 9, 35, 54
6, 51687, Note_on_c, 9, 40, 0
6, 51715, Note_on_c, 9, 35, 0
6, 51775, Note_on_c, 9, 35, 35
6, 51779, Note_on_c, 9, 38, 77
6, 51779, Note_on_c, 9, 44, 82
6, 51783, Note_on_c, 9, 35, 0
6, 51787, Note_on_c, 9, 44, 0
6, 51787, Note_on_c, 9, 38, 0
6, 52027, Note_on_c, 9, 40, 45
6, 52075, Note_on_c, 9, 40, 0
6, 52159, Note_on_c, 9, 38, 58
6, 52159, Note_on_c, 9, 35, 35
6, 52163, Note_on_c, 9, 35, 0
6, 52167, Note_on_c, 9, 38, 0
6, 52411, Note_on_c, 9, 40, 45
6, 52459, Note_on_c, 9, 40, 0
6, 52543, Note_on_c, 9, 38, 58
6, 52543, Note_on_c, 9, 35, 35
6, 52543, Note_on_c, 9, 35, 0
6, 52547, Note_on_c, 9, 38, 0
6, 52547, Note_on_c, 9, 44, 82
6, 52547, Note_on_c, 9, 44, 0
6, 52795, Note_on_c, 9, 40, 45
6, 52802, Note_on_c, 9, 35, 44
6, 52840, Note_on_c, 9, 35, 0
6, 52843, Note_on_c, 9, 40, 0
6, 52923, Note_on_c, 9, 38, 58
6, 52927, Note_on_c, 9, 38, 0
6, 52927, Note_on_c, 9, 35, 35
6, 52931, Note_on_c, 9, 35, 0
6, 53179, Note_on_c, 9, 40, 60
6, 53199, Note_on_c, 9, 40, 0
6, 53311, Note_on_c, 9, 38, 77
6, 53311, Note_on_c, 9, 44, 82
6, 53315, Note_on_c, 9, 35, 35
6, 53323, Note_on_c, 9, 35, 0
6, 53327, Note_on_c, 9, 44, 0
6, 53327, Note_on_c, 9, 38, 0
6, 53563, Note_on_c, 9, 40, 60
6, 53571, Note_on_c, 9, 40, 0
6, 53691, Note_on_c, 9, 35, 35
6, 53695, Note_on_c, 9, 38, 58
6, 53703, Note_on_c, 9, 38, 0
6, 53703, Note_on_c, 9, 35, 0
6, 53947, Note_on_c, 9, 40, 60
6, 53963, Note_on_c, 9, 40, 0
6, 54075, Note_on_c, 9, 44, 82
6, 54079, Note_on_c, 9, 38, 58
6, 54083, Note_on_c, 9, 35, 35
6, 54087, Note_on_c, 9, 35, 0
6, 54087, Note_on_c, 9, 38, 0
6, 54087, Note_on_c, 9, 44, 0
6, 54331, Note_on_c, 9, 40, 60
6, 54347, Note_on_c, 9, 40, 0
6, 54459, Note_on_c, 9, 38, 58
6, 54463, Note_on_c, 9, 35, 35
6, 54467, Note_on_c, 9, 35, 0
6, 54471, Note_on_c, 9, 38, 0
6, 54715, Note_on_c, 9, 40, 60
6, 54735, Note_on_c, 9, 40, 0
6, 54843, Note_on_c, 9, 35, 35
6, 54847, Note_on_c, 9, 44, 82
6, 54851, Note_on_c, 9, 35, 0
6, 54851, Note_on_c, 9, 38, 77
6, 54855, Note_on_c, 9, 38, 0
6, 54855, Note_on_c, 9, 44, 0
6, 55103, Note_on_c, 9, 40, 60
6, 55111, Note_on_c, 9, 40, 0
6, 55116, Note_on_c, 9, 35, 34
6, 55135, Note_on_c, 9, 38, 81
6, 55153, Note_on_c, 9, 35, 0
6, 55179, Note_on_c, 9, 38, 0
6, 55231, Note_on_c, 9, 38, 81
6, 55231, Note_on_c, 9, 35, 35
6, 55235, Note_on_c, 9, 38, 58
6, 55243, Note_on_c, 9, 35, 0
6, 55243, Note_on_c, 9, 38, 0
6, 55271, Note_on_c, 9, 38, 0
6, 55487, Note_on_c, 9, 40, 60
6, 55499, Note_on_c, 9, 40, 0
6, 55611, Note_on_c, 9, 35, 35
6, 55615, Note_on_c, 9, 38, 58
6, 55615, Note_on_c, 9, 44, 82
6, 55619, Note_on_c, 9, 44, 0
6, 55623, Note_on_c, 9, 38, 0
6, 55623, Note_on_c, 9, 35, 0
6, 55867, Note_on_c, 9, 40, 60
6, 55883, Note_on_c, 9, 40, 0
6, 55995, Note_on_c, 9, 35, 35
6, 55999, Note_on_c, 9, 38, 58
6, 56003, Note_on_c, 9, 38, 0
6, 56003, Note_on_c, 9, 35, 0
6, 56251, Note_on_c, 9, 40, 60
6, 56252, Note_on_c, 9, 35, 37
6, 56255, Note_on_c, 9, 40, 0
6, 56289, Note_on_c, 9, 35, 0
6, 56379, Note_on_c, 9, 46, 62
6, 56383, Note_on_c, 9, 35, 35
6, 56387, Note_on_c, 9, 38, 77
6, 56391, Note_on_c, 9, 38, 0
6, 56391, Note_on_c, 9, 35, 0
6, 56391, Note_on_c, 9, 46, 0
6, 56395, Note_on_c, 9, 51, 33
6, 56423, Note_on_c, 9, 51, 0
6, 56639, Note_on_c, 9, 40, 60
6, 56639, Note_on_c, 9, 51, 86
6, 56655, Note_on_c, 9, 40, 0
6, 56699, Note_on_c, 9, 51, 0
6, 56767, Note_on_c, 9, 38, 58
6, 56767, Note_on_c, 9, 35, 35
6, 56769, Note_on_c, 9, 51, 61
6, 56771, Note_on_c, 9, 38, 0
6, 56775, Note_on_c, 9, 35, 0
6, 56807, Note_on_c, 9, 38, 58
6, 56807, Note_on_c, 9, 35, 30
6, 56815, Note_on_c, 9, 35, 0
6, 56818, Note_on_c, 9, 51, 0
6, 56827, Note_on_c, 9, 38, 0
6, 57019, Note_on_c, 9, 40, 45
6, 57028, Note_on_c, 9, 35, 46
6, 57067, Note_on_c, 9, 40, 0
6, 57082, Note_on_c, 9, 35, 0
6, 57155, Note_on_c, 9, 38, 58
6, 57155, Note_on_c, 9, 44, 82
6, 57155, Note_on_c, 9, 35, 35
6, 57159, Note_on_c, 9, 44, 0
6, 57163, Note_on_c, 9, 35, 0
6, 57167, Note_on_c, 9, 38, 0
6, 57411, Note_on_c, 9, 40, 45
6, 57426, Note_on_c, 9, 35, 71
6, 57459, Note_on_c, 9, 40, 0
6, 57474, Note_on_c, 9, 35, 0
6, 57539, Note_on_c, 9, 38, 58
6, 57539, Note_on_c, 9, 35, 35
6, 57555, Note_on_c, 9, 35, 0
6, 57555, Note_on_c, 9, 38, 0
6, 57787, Note_on_c, 9, 40, 45
6, 57831, Note_on_c, 9, 40, 0
6, 57919, Note_on_c, 9, 35, 35
6, 57923, Note_on_c, 9, 38, 77
6, 57923, Note_on_c, 9, 44, 82
6, 57927, Note_on_c, 9, 35, 0
6, 57931, Note_on_c, 9, 44, 0
6, 57931, Note_on_c, 9, 38, 0
6, 58171, Note_on_c, 9, 40, 45
6, 58219, Note_on_c, 9, 40, 0
6, 58303, Note_on_c, 9, 38, 58
6, 58303, Note_on_c, 9, 35, 35
6, 58307, Note_on_c, 9, 35, 0
6, 58311, Note_on_c, 9, 38, 0
6, 58555, Note_on_c, 9, 40, 45
6, 58603, Note_on_c, 9, 40, 0
6, 58687, Note_on_c, 9, 38, 58
6, 58687, Note_on_c, 9, 35, 35
6, 58687, Note_on_c, 9, 35, 0
6, 58691, Note_on_c, 9, 38, 0
6, 58691, Note_on_c, 9, 44, 82
6, 58691, Note_on_c, 9, 44, 0
6, 58939, Note_on_c, 9, 40, 45
6, 58987, Note_on_c, 9, 40, 0
6, 59067, Note_on_c, 9, 38, 58
6, 59071, Note_on_c, 9, 38, 0
6, 59071, Note_on_c, 9, 35, 35
6, 59075, Note_on_c, 9, 35, 0
6, 59212, Note_on_c, 9, 39, 53
6, 59245, Note_on_c, 9, 39, 0
6, 59323, Note_on_c, 9, 40, 60
6, 59340, Note_on_c, 9, 39, 70
6, 59343, Note_on_c, 9, 40, 0
6, 59390, Note_on_c, 9, 39, 0
6, 59455, Note_on_c, 9, 38, 77
6, 59455, Note_on_c, 9, 44, 82
6, 59459, Note_on_c, 9, 35, 35
6, 59467, Note_on_c, 9, 35, 0
6, 59471, Note_on_c, 9, 44, 0
6, 59471, Note_on_c, 9, 38, 0
6, 59475, Note_on_c, 9, 35, 57
6, 59674, Note_on_c, 9, 35, 0
6, 59707, Note_on_c, 9, 40, 60
6, 59715, Note_on_c, 9, 40, 0
6, 59835, Note_on_c, 9, 35, 35
6, 59839, Note_on_c, 9, 38, 58
6, 59847, Note_on_c, 9, 38, 0
6, 59847, Note_on_c, 9, 35, 0
6, 60091, Note_on_c, 9, 40, 60
6, 60107, Note_on_c, 9, 40, 0
6, 60219, Note_on_c, 9, 44, 82
6, 60223, Note_on_c, 9, 38, 58
6, 60227, Note_on_c, 9, 35, 35
6, 60231, Note_on_c, 9, 35, 0
6, 60231, Note_on_c, 9, 38, 0
6, 60231, Note_on_c, 9, 44, 0
6, 60475, Note_on_c, 9, 40, 60
6, 60491, Note_on_c, 9, 40, 0
6, 60603, Note_on_c, 9, 38, 58
6, 60607, Note_on_c, 9, 35, 35
6, 60611, Note_on_c, 9, 35, 0
6, 60615, Note_on_c, 9, 38, 0
6, 60652, Note_on_c, 9, 39, 28
6, 60692, Note_on_c, 9, 39, 0
6, 60764, Note_on_c, 9, 39, 57
6, 60798, Note_on_c, 9, 39, 0
6, 60859, Note_on_c, 9, 40, 60
6, 60879, Note_on_c, 9, 40, 0
6, 60888, Note_on_c, 9, 35, 58
6, 60945, Note_on_c, 9, 35, 0
6, 60987, Note_on_c, 9, 35, 35
6, 60991, Note_on_c, 9, 44, 82
6, 60995, Note_on_c, 9, 35, 0
6, 60995, Note_on_c, 9, 38, 77
6, 60999, Note_on_c, 9, 38, 0
6, 60999, Note_on_c, 9, 44, 0
6, 61040, Note_on_c, 9, 39, 53
6, 61073, Note_on_c, 9, 39, 0
6, 61247, Note_on_c, 9, 40, 60
6, 61255, Note_on_c, 9, 40, 0
6, 61279, Note_on_c, 9, 38, 81
6, 61323, Note_on_c, 9, 38, 0
6, 61375, Note_on_c, 9, 38, 81
6, 61375, Note_on_c, 9, 35, 35
6, 61379, Note_on_c, 9, 38, 58
6, 61387, Note_on_c, 9, 35, 0
6, 61387, Note_on_c, 9, 38, 0
6, 61415, Note_on_c, 9, 38, 0
6, 61631, Note_on_c, 9, 40, 60
6, 61643, Note_on_c, 9, 40, 0
6, 61755, Note_on_c, 9, 35, 35
6, 61759, Note_on_c, 9, 38, 58
6, 61759, Note_on_c, 9, 44, 82
6, 61763, Note_on_c, 9, 44, 0
6, 61767, Note_on_c, 9, 38, 0
6, 61767, Note_on_c, 9, 35, 0
6, 62011, Note_on_c, 9, 40, 60
6, 62019, Note_on_c, 9, 39, 68
6, 62027, Note_on_c, 9, 40, 0
6, 62072, Note_on_c, 9, 39, 0
6, 62130, Note_on_c, 9, 35, 42
6, 62139, Note_on_c, 9, 35, 35
6, 62143, Note_on_c, 9, 38, 58
6, 62147, Note_on_c, 9, 38, 0
6, 62147, Note_on_c, 9, 35, 0
6, 62182, Note_on_c, 9, 35, 0
6, 62395, Note_on_c, 9, 40, 60
6, 62398, Note_on_c, 9, 35, 55
6, 62399, Note_on_c, 9, 40, 0
6, 62471, Note_on_c, 9, 35, 0
6, 62523, Note_on_c, 9, 46, 62
6, 62527, Note_on_c, 9, 35, 35
6, 62531, Note_on_c, 9, 38, 77
6, 62535, Note_on_c, 9, 38, 0
6, 62535, Note_on_c, 9, 35, 0
6, 62535, Note_on_c, 9, 46, 0
6, 62783, Note_on_c, 9, 40, 60
6, 62799, Note_on_c, 9, 40, 0
6, 62911, Note_on_c, 9, 38, 58
6, 62911, Note_on_c, 9, 35, 35
6, 62915, Note_on_c, 9, 38, 0
6, 62919, Note_on_c, 9, 35, 0
6, 63167, Note_on_c, 9, 40, 60
6, 63179, Note_on_c, 9, 40, 0
6, 63295, Note_on_c, 9, 44, 82
6, 63295, Note_on_c, 9, 35, 35
6, 63299, Note_on_c, 9, 38, 58
6, 63307, Note_on_c, 9, 38, 0
6, 63311, Note_on_c, 9, 35, 0
6, 63311, Note_on_c, 9, 44, 0
6, 63321, Note_on_c, 9, 39, 36
6, 63363, Note_on_c, 9, 39, 0
6, 63445, Note_on_c, 9, 39, 62
6, 63502, Note_on_c, 9, 39, 0
6, 63547, Note_on_c, 9, 40, 60
6, 63550, Note_on_c, 9, 39, 71
6, 63563, Note_on_c, 9, 40, 0
6, 63597, Note_on_c, 9, 39, 0
6, 63675, Note_on_c, 9, 38, 58
6, 63679, Note_on_c, 9, 35, 35
6, 63683, Note_on_c, 9, 38, 0
6, 63687, Note_on_c, 9, 35, 0
6, 63703, Note_on_c, 9, 35, 42
6, 63773, Note_on_c, 9, 35, 0
6, 63931, Note_on_c, 9, 40, 60
6, 63947, Note_on_c, 9, 40, 0
6, 64063, Note_on_c, 9, 38, 77
6, 64063, Note_on_c, 9, 44, 82
6, 64063, Note_on_c, 9, 35, 35
6, 64075, Note_on_c, 9, 35, 0
6, 64079, Note_on_c, 9, 44, 0
6, 64083, Note_on_c, 9, 38, 0
6, 64285, Note_on_c, 9, 39, 60
6, 64315, Note_on_c, 9, 39, 0
6, 64315, Note_on_c, 9, 40, 60
6, 64331, Note_on_c, 9, 40, 0
6, 64443, Note_on_c, 9, 38, 58
6, 64447, Note_on_c, 9, 35, 35
6, 64455, Note_on_c, 9, 35, 0
6, 64459, Note_on_c, 9, 38, 0
6, 64597, Note_on_c, 9, 39, 57
6, 64625, Note_on_c, 9, 39, 0
6, 64699, Note_on_c, 9, 40, 60
6, 64702, Note_on_c, 9, 39, 60
6, 64715, Note_on_c, 9, 40, 0
6, 64751, Note_on_c, 9, 39, 0
6, 64827, Note_on_c, 9, 38, 58
6, 64831, Note_on_c, 9, 44, 82
6, 64831, Note_on_c, 9, 35, 35
6, 64839, Note_on_c, 9, 44, 0
6, 64843, Note_on_c, 9, 35, 0
6, 64843, Note_on_c, 9, 38, 0
6, 64854, Note_on_c, 9, 35, 62
6, 64925, Note_on_c, 9, 35, 0
6, 65087, Note_on_c, 9, 40, 60
6, 65099, Note_on_c, 9, 40, 0
6, 65215, Note_on_c, 9, 38, 58
6, 65215, Note_on_c, 9, 35, 35
6, 65223, Note_on_c, 9, 35, 0
6, 65223, Note_on_c, 9, 38, 0
6, 65422, Note_on_c, 9, 39, 59
6, 65452, Note_on_c, 9, 39, 0
6, 65467, Note_on_c, 9, 40, 60
6, 65483, Note_on_c, 9, 40, 0
6, 65536, Note_on_c, 9, 39, 42
6, 65595, Note_on_c, 9, 38, 77
6, 65599, Note_on_c, 9, 44, 82
6, 65599, Note_on_c, 9, 35, 35
6, 65611, Note_on_c, 9, 35, 0
6, 65611, Note_on_c, 9, 44, 0
6, 65611, Note_on_c, 9, 38, 0
6, 65614, Note_on_c, 9, 39, 0
6, 65647, Note_on_c, 9, 51, 62
6, 65657, Note_on_c, 9, 35, 50
6, 65691, Note_on_c, 9, 51, 0
6, 65783, Note_on_c, 9, 35, 0
6, 65851, Note_on_c, 9, 40, 60
6, 65863, Note_on_c, 9, 40, 0
6, 65979, Note_on_c, 9, 38, 58
6, 65983, Note_on_c, 9, 35, 35
6, 65987, Note_on_c, 9, 35, 0
6, 65987, Note_on_c, 9, 38, 0
6, 66235, Note_on_c, 9, 40, 60
6, 66243, Note_on_c, 9, 40, 0
6, 66367, Note_on_c, 9, 38, 58
6, 66367, Note_on_c, 9, 44, 82
6, 66371, Note_on_c, 9, 35, 35
6, 66375, Note_on_c, 9, 35, 0
6, 66375, Note_on_c, 9, 44, 0
6, 66375, Note_on_c, 9, 38, 0
6, 66619, Note_on_c, 9, 40, 60
6, 66639, Note_on_c, 9, 40, 0
6, 66747, Note_on_c, 9, 35, 35
6, 66751, Note_on_c, 9, 38, 58
6, 66759, Note_on_c, 9, 38, 0
6, 66759, Note_on_c, 9, 35, 0
6, 67007, Note_on_c, 9, 40, 60
6, 67007, Note_on_c, 9, 39, 60
6, 67015, Note_on_c, 9, 40, 0
6, 67035, Note_on_c, 9, 39, 0
6, 67135, Note_on_c, 9, 38, 77
6, 67135, Note_on_c, 9, 35, 35
6, 67139, Note_on_c, 9, 44, 82
6, 67142, Note_on_c, 9, 35, 26
6, 67147, Note_on_c, 9, 44, 0
6, 67151, Note_on_c, 9, 38, 0
6, 67151, Note_on_c, 9, 35, 0
6, 67174, Note_on_c, 9, 35, 0
6, 67387, Note_on_c, 9, 40, 60
6, 67403, Note_on_c, 9, 40, 0
6, 67515, Note_on_c, 9, 38, 58
6, 67515, Note_on_c, 9, 35, 35
6, 67523, Note_on_c, 9, 35, 0
6, 67523, Note_on_c, 9, 38, 0
6, 67771, Note_on_c, 9, 40, 60
6, 67779, Note_on_c, 9, 40, 0
6, 67903, Note_on_c, 9, 38, 58
6, 67903, Note_on_c, 9, 44, 82
6, 67903, Note_on_c, 9, 35, 35
6, 67911, Note_on_c, 9, 35, 0
6, 67911, Note_on_c, 9, 44, 0
6, 67911, Note_on_c, 9, 38, 0
6, 68155, Note_on_c, 9, 40, 60
6, 68175, Note_on_c, 9, 40, 0
6, 68283, Note_on_c, 9, 35, 35
6, 68287, Note_on_c, 9, 38, 58
6, 68291, Note_on_c, 9, 38, 0
6, 68291, Note_on_c, 9, 35, 0
6, 68525, Note_on_c, 9, 35, 30
6, 68543, Note_on_c, 9, 40, 60
6, 68555, Note_on_c, 9, 40, 0
6, 68563, Note_on_c, 9, 35, 0
6, 68671, Note_on_c, 9, 46, 62
6, 68671, Note_on_c, 9, 35, 35
6, 68675, Note_on_c, 9, 38, 77
6, 68683, Note_on_c, 9, 38, 0
6, 68687, Note_on_c, 9, 35, 0
6, 68687, Note_on_c, 9, 46, 0
6, 68918, Note_on_c, 9, 38, 77
6, 68927, Note_on_c, 9, 40, 60
6, 68939, Note_on_c, 9, 40, 0
6, 68952, Note_on_c, 9, 38, 0
6, 69059, Note_on_c, 9, 38, 58
6, 69059, Note_on_c, 9, 35, 30
6, 69060, Note_on_c, 9, 35, 36
6, 69075, Note_on_c, 9, 35, 0
6, 69075, Note_on_c, 9, 38, 0
6, 69140, Note_on_c, 9, 35, 0
6, 69306, Note_on_c, 9, 35, 47
6, 69307, Note_on_c, 9, 40, 45
6, 69355, Note_on_c, 9, 40, 0
6, 69357, Note_on_c, 9, 35, 0
6, 69443, Note_on_c, 9, 38, 58
6, 69443, Note_on_c, 9, 44, 82
6, 69443, Note_on_c, 9, 35, 35
6, 69459, Note_on_c, 9, 35, 0
6, 69459, Note_on_c, 9, 44, 0
6, 69463, Note_on_c, 9, 38, 0
6, 69685, Note_on_c, 9, 35, 48
6, 69699, Note_on_c, 9, 40, 45
6, 69734, Note_on_c, 9, 35, 0
6, 69747, Note_on_c, 9, 40, 0
6, 69827, Note_on_c, 9, 38, 58
6, 69827, Note_on_c, 9, 35, 35
6, 69835, Note_on_c, 9, 35, 0
6, 69835, Note_on_c, 9, 38, 0
6, 69837, Note_on_c, 9, 38, 37
6, 69872, Note_on_c, 9, 38, 0
6, 69966, Note_on_c, 9, 38, 64
6, 70026, Note_on_c, 9, 38, 0
6, 70075, Note_on_c, 9, 40, 45
6, 70091, Note_on_c, 9, 38, 81
6, 70123, Note_on_c, 9, 40, 0
6, 70156, Note_on_c, 9, 38, 0
6, 70203, Note_on_c, 9, 35, 35
6, 70211, Note_on_c, 9, 38, 77
6, 70211, Note_on_c, 9, 44, 82
6, 70215, Note_on_c, 9, 35, 0
6, 70217, Note_on_c, 9, 35, 61
6, 70219, Note_on_c, 9, 44, 0
6, 70219, Note_on_c, 9, 38, 0
6, 70327, Note_on_c, 9, 35, 0
6, 70459, Note_on_c, 9, 40, 45
6, 70507, Note_on_c, 9, 40, 0
6, 70591, Note_on_c, 9, 38, 58
6, 70591, Note_on_c, 9, 35, 35
6, 70595, Note_on_c, 9, 35, 0
6, 70599, Note_on_c, 9, 38, 0
6, 70843, Note_on_c, 9, 40, 45
6, 70891, Note_on_c, 9, 40, 0
6, 70971, Note_on_c, 9, 35, 35
6, 70975, Note_on_c, 9, 38, 58
6, 70979, Note_on_c, 9, 35, 0
6, 70979, Note_on_c, 9, 44, 82
6, 70983, Note_on_c, 9, 44, 0
6, 70983, Note_on_c, 9, 38, 0
6, 71227, Note_on_c, 9, 40, 45
6, 71275, Note_on_c, 9, 40, 0
6, 71355, Note_on_c, 9, 38, 58
6, 71359, Note_on_c, 9, 38, 0
6, 71359, Note_on_c, 9, 35, 35
6, 71363, Note_on_c, 9, 35, 0
6, 71611, Note_on_c, 9, 40, 60
6, 71627, Note_on_c, 9, 40, 0
6, 71747, Note_on_c, 9, 38, 77
6, 71747, Note_on_c, 9, 44, 82
6, 71747, Note_on_c, 9, 35, 35
6, 71759, Note_on_c, 9, 35, 0
6, 71759, Note_on_c, 9, 44, 0
6, 71759, Note_on_c, 9, 38, 0
6, 71995, Note_on_c, 9, 40, 60
6, 72015, Note_on_c, 9, 40, 0
6, 72021, Note_on_c, 9, 38, 54
6, 72049, Note_on_c, 9, 38, 0
6, 72123, Note_on_c, 9, 38, 58
6, 72123, Note_on_c, 9, 35, 35
6, 72131, Note_on_c, 9, 38, 0
6, 72135, Note_on_c, 9, 35, 0
6, 72383, Note_on_c, 9, 40, 60
6, 72387, Note_on_c, 9, 40, 0
6, 72390, Note_on_c, 9, 38, 65
6, 72417, Note_on_c, 9, 38, 0
6, 72507, Note_on_c, 9, 38, 58
6, 72507, Note_on_c, 9, 44, 82
6, 72515, Note_on_c, 9, 35, 35
6, 72519, Note_on_c, 9, 35, 0
6, 72519, Note_on_c, 9, 44, 0
6, 72519, Note_on_c, 9, 38, 0
6, 72763, Note_on_c, 9, 40, 60
6, 72775, Note_on_c, 9, 38, 66
6, 72779, Note_on_c, 9, 40, 0
6, 72803, Note_on_c, 9, 38, 0
6, 72895, Note_on_c, 9, 38, 58
6, 72895, Note_on_c, 9, 35, 35
6, 72903, Note_on_c, 9, 35, 0
6, 72903, Note_on_c, 9, 38, 0
6, 72935, Note_on_c, 9, 35, 37
6, 72986, Note_on_c, 9, 35, 0
6, 73147, Note_on_c, 9, 40, 60
6, 73163, Note_on_c, 9, 40, 0
6, 73275, Note_on_c, 9, 35, 35
6, 73279, Note_on_c, 9, 44, 82
6, 73283, Note_on_c, 9, 35, 0
6, 73283, Note_on_c, 9, 38, 77
6, 73287, Note_on_c, 9, 38, 0
6, 73287, Note_on_c, 9, 44, 0
6, 73531, Note_on_c, 9, 40, 60
6, 73551, Note_on_c, 9, 40, 0
6, 73567, Note_on_c, 9, 38, 81
6, 73611, Note_on_c, 9, 38, 0
6, 73659, Note_on_c, 9, 38, 81
6, 73663, Note_on_c, 9, 35, 35
6, 73667, Note_on_c, 9, 38, 58
6, 73671, Note_on_c, 9, 35, 0
6, 73671, Note_on_c, 9, 38, 0
6, 73707, Note_on_c, 9, 38, 0
6, 73893, Note_on_c, 9, 39, 62
6, 73915, Note_on_c, 9, 40, 60
6, 73931, Note_on_c, 9, 40, 0
6, 73936, Note_on_c, 9, 39, 0
6, 74043, Note_on_c, 9, 38, 58
6, 74043, Note_on_c, 9, 35, 35
6, 74051, Note_on_c, 9, 44, 82
6, 74055, Note_on_c, 9, 44, 0
6, 74055, Note_on_c, 9, 35, 0
6, 74055, Note_on_c, 9, 38, 0
6, 74281, Note_on_c, 9, 39, 78
6, 74303, Note_on_c, 9, 40, 60
6, 74319, Note_on_c, 9, 40, 0
6, 74328, Note_on_c, 9, 39, 0
6, 74427, Note_on_c, 9, 38, 58
6, 74427, Note_on_c, 9, 35, 35
6, 74431, Note_on_c, 9, 38, 0
6, 74435, Note_on_c, 9, 35, 0
6, 74663, Note_on_c, 9, 39, 76
6, 74683, Note_on_c, 9, 40, 60
6, 74699, Note_on_c, 9, 40, 0
6, 74710, Note_on_c, 9, 39, 0
6, 74811, Note_on_c, 9, 44, 82
6, 74811, Note_on_c, 9, 35, 35
6, 74819, Note_on_c, 9, 38, 77
6, 74823, Note_on_c, 9, 38, 0
6, 74823, Note_on_c, 9, 35, 0
6, 74823, Note_on_c, 9, 44, 0
6, 75038, Note_on_c, 9, 39, 78
6, 75067, Note_on_c, 9, 40, 60
6, 75079, Note_on_c, 9, 40, 0
6, 75094, Note_on_c, 9, 39, 0
6, 75171, Note_on_c, 9, 35, 48
6, 75195, Note_on_c, 9, 38, 58
6, 75199, Note_on_c, 9, 35, 35
6, 75203, Note_on_c, 9, 38, 0
6, 75203, Note_on_c, 9, 35, 0
6, 75217, Note_on_c, 9, 35, 0
6, 75451, Note_on_c, 9, 40, 60
6, 75471, Note_on_c, 9, 40, 0
6, 75579, Note_on_c, 9, 38, 58
6, 75579, Note_on_c, 9, 44, 82
6, 75579, Note_on_c, 9, 35, 35
6, 75591, Note_on_c, 9, 38, 0
6, 75595, Note_on_c, 9, 35, 0
6, 75595, Note_on_c, 9, 44, 0
6, 75839, Note_on_c, 9, 40, 60
6, 75839, Note_on_c, 9, 40, 0
6, 75967, Note_on_c, 9, 38, 58
6, 75967, Note_on_c, 9, 35, 35
6, 75971, Note_on_c, 9, 38, 0
6, 75975, Note_on_c, 9, 35, 0
6, 76223, Note_on_c, 9, 40, 60
6, 76235, Note_on_c, 9, 40, 0
6, 76347, Note_on_c, 9, 44, 82
6, 76351, Note_on_c, 9, 38, 77
6, 76351, Note_on_c, 9, 35, 35
6, 76363, Note_on_c, 9, 35, 0
6, 76367, Note_on_c, 9, 38, 0
6, 76367, Note_on_c, 9, 44, 0
6, 76603, Note_on_c, 9, 40, 60
6, 76619, Note_on_c, 9, 40, 0
6, 76731, Note_on_c, 9, 38, 58
6, 76735, Note_on_c, 9, 35, 35
6, 76739, Note_on_c, 9, 35, 0
6, 76739, Note_on_c, 9, 38, 0
6, 76894, Note_on_c, 9, 38, 48
6, 76929, Note_on_c, 9, 38, 0
6, 76987, Note_on_c, 9, 40, 60
6, 77003, Note_on_c, 9, 40, 0
6, 77119, Note_on_c, 9, 38, 58
6, 77119, Note_on_c, 9, 44, 82
6, 77119, Note_on_c, 9, 35, 35
6, 77135, Note_on_c, 9, 44, 0
6, 77135, Note_on_c, 9, 38, 0
6, 77139, Note_on_c, 9, 35, 0
6, 77160, Note_on_c, 9, 39, 48
6, 77188, Note_on_c, 9, 39, 0
6, 77371, Note_on_c, 9, 40, 60
6, 77391, Note_on_c, 9, 40, 0
6, 77499, Note_on_c, 9, 38, 58
6, 77507, Note_on_c, 9, 35, 35
6, 77511, Note_on_c, 9, 35, 0
6, 77511, Note_on_c, 9, 38, 0
6, 77759, Note_on_c, 9, 40, 60
6, 77773, Note_on_c, 9, 38, 90
6, 77775, Note_on_c, 9, 40, 0
6, 77808, Note_on_c, 9, 38, 0
6, 77887, Note_on_c, 9, 38, 77
6, 77887, Note_on_c, 9, 44, 82
6, 77887, Note_on_c, 9, 35, 35
6, 77899, Note_on_c, 9, 44, 0
6, 77903, Note_on_c, 9, 35, 0
6, 77903, Note_on_c, 9, 38, 0
6, 78139, Note_on_c, 9, 40, 60
6, 78155, Note_on_c, 9, 40, 0
6, 78267, Note_on_c, 9, 38, 58
6, 78271, Note_on_c, 9, 35, 35
6, 78279, Note_on_c, 9, 35, 0
6, 78279, Note_on_c, 9, 38, 0
6, 78454, Note_on_c, 9, 39, 67
6, 78523, Note_on_c, 9, 40, 60
6, 78539, Note_on_c, 9, 40, 0
6, 78559, Note_on_c, 9, 39, 0
6, 78577, Note_on_c, 9, 38, 56
6, 78605, Note_on_c, 9, 38, 0
6, 78651, Note_on_c, 9, 38, 58
6, 78651, Note_on_c, 9, 44, 82
6, 78663, Note_on_c, 9, 44, 0
6, 78663, Note_on_c, 9, 38, 0
6, 78663, Note_on_c, 9, 35, 35
6, 78663, Note_on_c, 9, 35, 0
6, 78679, Note_on_c, 9, 35, 60
6, 78774, Note_on_c, 9, 35, 0
6, 78907, Note_on_c, 9, 40, 60
6, 78927, Note_on_c, 9, 40, 0
6, 79035, Note_on_c, 9, 35, 35
6, 79039, Note_on_c, 9, 38, 58
6, 79047, Note_on_c, 9, 38, 0
6, 79047, Note_on_c, 9, 35, 0
6, 79070, Note_on_c, 9, 39, 45
6, 79169, Note_on_c, 9, 39, 0
6, 79176, Note_on_c, 9, 38, 67
6, 79219, Note_on_c, 9, 38, 0
6, 79291, Note_on_c, 9, 40, 60
6, 79308, Note_on_c, 9, 35, 67
6, 79311, Note_on_c, 9, 40, 0
6, 79412, Note_on_c, 9, 35, 0
6, 79419, Note_on_c, 9, 38, 77
6, 79423, Note_on_c, 9, 35, 35
6, 79427, Note_on_c, 9, 46, 62
6, 79439, Note_on_c, 9, 46, 0
6, 79439, Note_on_c, 9, 35, 0
6, 79439, Note_on_c, 9, 38, 0
6, 79616, Note_on_c, 9, 39, 54
6, 79679, Note_on_c, 9, 40, 60
6, 79691, Note_on_c, 9, 40, 0
6, 79716, Note_on_c, 9, 39, 0
6, 79720, Note_on_c, 9, 38, 49
6, 79752, Note_on_c, 9, 38, 0
6, 79807, Note_on_c, 9, 38, 58
6, 79807, Note_on_c, 9, 35, 35
6, 79815, Note_on_c, 9, 35, 0
6, 79815, Note_on_c, 9, 38, 0
6, 79828, Note_on_c, 9, 35, 64
6, 79925, Note_on_c, 9, 35, 0
6, 80059, Note_on_c, 9, 40, 60
6, 80075, Note_on_c, 9, 40, 0
6, 80187, Note_on_c, 9, 38, 58
6, 80187, Note_on_c, 9, 35, 35
6, 80195, Note_on_c, 9, 44, 82
6, 80199, Note_on_c, 9, 44, 0
6, 80203, Note_on_c, 9, 35, 0
6, 80203, Note_on_c, 9, 38, 0
6, 80443, Note_on_c, 9, 40, 60
6, 80455, Note_on_c, 9, 40, 0
6, 80575, Note_on_c, 9, 38, 58
6, 80575, Note_on_c, 9, 35, 35
6, 80579, Note_on_c, 9, 35, 0
6, 80579, Note_on_c, 9, 38, 0
6, 80827, Note_on_c, 9, 40, 60
6, 80827, Note_on_c, 9, 35, 47
6, 80847, Note_on_c, 9, 40, 0
6, 80865, Note_on_c, 9, 35, 0
6, 80963, Note_on_c, 9, 38, 77
6, 80963, Note_on_c, 9, 44, 82
6, 80963, Note_on_c, 9, 35, 35
6, 80975, Note_on_c, 9, 35, 0
6, 80975, Note_on_c, 9, 44, 0
6, 80975, Note_on_c, 9, 38, 0
6, 80978, Note_on_c, 9, 35, 24
6, 81038, Note_on_c, 9, 35, 0
6, 81199, Note_on_c, 9, 35, 54
6, 81211, Note_on_c, 9, 40, 60
6, 81219, Note_on_c, 9, 46, 97
6, 81231, Note_on_c, 9, 40, 0
6, 81257, Note_on_c, 9, 46, 0
6, 81273, Note_on_c, 9, 35, 0
6, 81347, Note_on_c, 9, 38, 58
6, 81347, Note_on_c, 9, 35, 30
6, 81363, Note_on_c, 9, 35, 0
6, 81363, Note_on_c, 9, 38, 0
6, 81595, Note_on_c, 9, 40, 45
6, 81643, Note_on_c, 9, 40, 0
6, 81731, Note_on_c, 9, 38, 58
6, 81731, Note_on_c, 9, 44, 82
6, 81731, Note_on_c, 9, 35, 35
6, 81747, Note_on_c, 9, 35, 0
6, 81747, Note_on_c, 9, 44, 0
6, 81747, Note_on_c, 9, 38, 0
6, 81987, Note_on_c, 9, 40, 45
6, 82035, Note_on_c, 9, 40, 0
6, 82115, Note_on_c, 9, 38, 58
6, 82115, Note_on_c, 9, 35, 35
6, 82131, Note_on_c, 9, 35, 0
6, 82131, Note_on_c, 9, 38, 0
6, 82363, Note_on_c, 9, 40, 45
6, 82411, Note_on_c, 9, 40, 0
6, 82491, Note_on_c, 9, 35, 35
6, 82499, Note_on_c, 9, 38, 77
6, 82499, Note_on_c, 9, 44, 82
6, 82503, Note_on_c, 9, 35, 0
6, 82507, Note_on_c, 9, 44, 0
6, 82507, Note_on_c, 9, 38, 0
6, 82747, Note_on_c, 9, 40, 45
6, 82769, Note_on_c, 9, 35, 53
6, 82795, Note_on_c, 9, 40, 0
6, 82802, Note_on_c, 9, 35, 0
6, 82875, Note_on_c, 9, 38, 58
6, 82875, Note_on_c, 9, 35, 35
6, 82883, Note_on_c, 9, 35, 0
6, 82883, Note_on_c, 9, 38, 0
6, 83131, Note_on_c, 9, 40, 45
6, 83179, Note_on_c, 9, 40, 0
6, 83259, Note_on_c, 9, 35, 35
6, 83263, Note_on_c, 9, 35, 0
6, 83263, Note_on_c, 9, 38, 58
6, 83267, Note_on_c, 9, 38, 0
6, 83267, Note_on_c, 9, 44, 82
6, 83267, Note_on_c, 9, 44, 0
6, 83519, Note_on_c, 9, 40, 45
6, 83563, Note_on_c, 9, 40, 0
6, 83643, Note_on_c, 9, 38, 58
6, 83647, Note_on_c, 9, 38, 0
6, 83647, Note_on_c, 9, 35, 35
6, 83651, Note_on_c, 9, 35, 0
6, 83899, Note_on_c, 9, 40, 60
6, 83915, Note_on_c, 9, 40, 0
6, 84027, Note_on_c, 9, 46, 62
6, 84031, Note_on_c, 9, 38, 77
6, 84031, Note_on_c, 9, 35, 35
6, 84043, Note_on_c, 9, 35, 0
6, 84043, Note_on_c, 9, 38, 0
6, 84043, Note_on_c, 9, 46, 0
6, 84287, Note_on_c, 9, 40, 60
6, 84299, Note_on_c, 9, 40, 0
6, 84411, Note_on_c, 9, 35, 35
6, 84415, Note_on_c, 9, 38, 58
6, 84419, Note_on_c, 9, 38, 0
6, 84419, Note_on_c, 9, 35, 0
6, 84667, Note_on_c, 9, 40, 60
6, 84687, Note_on_c, 9, 40, 0
6, 84795, Note_on_c, 9, 44, 82
6, 84799, Note_on_c, 9, 38, 58
6, 84803, Note_on_c, 9, 44, 0
6, 84803, Note_on_c, 9, 35, 35
6, 84803, Note_on_c, 9, 35, 0
6, 84807, Note_on_c, 9, 38, 0
6, 85055, Note_on_c, 9, 40, 60
6, 85067, Note_on_c, 9, 40, 0
6, 85179, Note_on_c, 9, 38, 58
6, 85183, Note_on_c, 9, 35, 35
6, 85191, Note_on_c, 9, 35, 0
6, 85191, Note_on_c, 9, 38, 0
6, 85439, Note_on_c, 9, 40, 60
6, 85451, Note_on_c, 9, 40, 0
6, 85563, Note_on_c, 9, 35, 35
6, 85567, Note_on_c, 9, 44, 82
6, 85571, Note_on_c, 9, 35, 0
6, 85571, Note_on_c, 9, 38, 77
6, 85575, Note_on_c, 9, 38, 0
6, 85575, Note_on_c, 9, 44, 0
6, 85819, Note_on_c, 9, 40, 60
6, 85835, Note_on_c, 9, 40, 0
6, 85855, Note_on_c, 9, 38, 81
6, 85899, Note_on_c, 9, 38, 0
6, 85951, Note_on_c, 9, 38, 81
6, 85951, Note_on_c, 9, 35, 35
6, 85955, Note_on_c, 9, 38, 58
6, 85959, Note_on_c, 9, 35, 0
6, 85959, Note_on_c, 9, 38, 0
6, 85995, Note_on_c, 9, 38, 0
6, 86203, Note_on_c, 9, 40, 60
6, 86219, Note_on_c, 9, 40, 0
6, 86247, Note_on_c, 9, 35, 25
6, 86275, Note_on_c, 9, 35, 0
6, 86331, Note_on_c, 9, 35, 35
6, 86335, Note_on_c, 9, 38, 58
6, 86339, Note_on_c, 9, 44, 82
6, 86347, Note_on_c, 9, 44, 0
6, 86347, Note_on_c, 9, 38, 0
6, 86347, Note_on_c, 9, 35, 0
6, 86587, Note_on_c, 9, 40, 60
6, 86603, Note_on_c, 9, 40, 0
6, 86618, Note_on_c, 9, 35, 50
6, 86651, Note_on_c, 9, 35, 0
6, 86715, Note_on_c, 9, 35, 35
6, 86719, Note_on_c, 9, 38, 58
6, 86719, Note_on_c, 9, 38, 0
6, 86727, Note_on_c, 9, 35, 0
6, 86975, Note_on_c, 9, 40, 60
6, 86987, Note_on_c, 9, 40, 0
6, 87099, Note_on_c, 9, 44, 82
6, 87103, Note_on_c, 9, 35, 35
6, 87107, Note_on_c, 9, 38, 77
6, 87111, Note_on_c, 9, 38, 0
6, 87111, Note_on_c, 9, 35, 0
6, 87111, Note_on_c, 9, 44, 0
6, 87355, Note_on_c, 9, 40, 60
6, 87363, Note_on_c, 9, 40, 0
6, 87366, Note_on_c, 9, 35, 68
6, 87394, Note_on_c, 9, 35, 0
6, 87483, Note_on_c, 9, 38, 58
6, 87487, Note_on_c, 9, 35, 35
6, 87491, Note_on_c, 9, 35, 0
6, 87491, Note_on_c, 9, 38, 0
6, 87739, Note_on_c, 9, 40, 60
6, 87755, Note_on_c, 9, 40, 0
6, 87867, Note_on_c, 9, 44, 82
6, 87867, Note_on_c, 9, 35, 35
6, 87871, Note_on_c, 9, 38, 58
6, 87883, Note_on_c, 9, 38, 0
6, 87887, Note_on_c, 9, 35, 0
6, 87891, Note_on_c, 9, 44, 0
6, 88123, Note_on_c, 9, 40, 60
6, 88139, Note_on_c, 9, 40, 0
6, 88251, Note_on_c, 9, 38, 58
6, 88251, Note_on_c, 9, 35, 35
6, 88259, Note_on_c, 9, 35, 0
6, 88259, Note_on_c, 9, 38, 0
6, 88507, Note_on_c, 9, 40, 60
6, 88527, Note_on_c, 9, 40, 0
6, 88639, Note_on_c, 9, 38, 77
6, 88639, Note_on_c, 9, 44, 82
6, 88639, Note_on_c, 9, 35, 35
6, 88655, Note_on_c, 9, 35, 0
6, 88655, Note_on_c, 9, 44, 0
6, 88655, Note_on_c, 9, 38, 0
6, 88895, Note_on_c, 9, 40, 60
6, 88907, Note_on_c, 9, 40, 0
6, 89023, Note_on_c, 9, 38, 58
6, 89023, Note_on_c, 9, 35, 35
6, 89027, Note_on_c, 9, 35, 0
6, 89031, Note_on_c, 9, 38, 0
6, 89275, Note_on_c, 9, 40, 60
6, 89287, Note_on_c, 9, 35, 47
6, 89295, Note_on_c, 9, 40, 0
6, 89344, Note_on_c, 9, 35, 0
6, 89403, Note_on_c, 9, 38, 58
6, 89407, Note_on_c, 9, 44, 82
6, 89407, Note_on_c, 9, 35, 35
6, 89423, Note_on_c, 9, 35, 0
6, 89423, Note_on_c, 9, 44, 0
6, 89423, Note_on_c, 9, 38, 0
6, 89659, Note_on_c, 9, 40, 60
6, 89675, Note_on_c, 9, 40, 0
6, 89679, Note_on_c, 9, 38, 68
6, 89707, Note_on_c, 9, 38, 0
6, 89787, Note_on_c, 9, 38, 58
6, 89791, Note_on_c, 9, 35, 35
6, 89795, Note_on_c, 9, 35, 0
6, 89799, Note_on_c, 9, 38, 0
6, 89812, Note_on_c, 9, 38, 72
6, 89848, Note_on_c, 9, 38, 0
6, 90043, Note_on_c, 9, 40, 60
6, 90052, Note_on_c, 9, 38, 72
6, 90063, Note_on_c, 9, 40, 0
6, 90084, Note_on_c, 9, 38, 0
6, 90175, Note_on_c, 9, 38, 77
6, 90179, Note_on_c, 9, 44, 82
6, 90179, Note_on_c, 9, 35, 35
6, 90187, Note_on_c, 9, 44, 0
6, 90187, Note_on_c, 9, 38, 0
6, 90191, Note_on_c, 9, 35, 0
6, 90218, Note_on_c, 9, 35, 37
6, 90277, Note_on_c, 9, 35, 0
6, 90427, Note_on_c, 9, 40, 60
6, 90445, Note_on_c, 9, 35, 74
6, 90447, Note_on_c, 9, 40, 0
6, 90559, Note_on_c, 9, 38, 58
6, 90559, Note_on_c, 9, 35, 35
6, 90561, Note_on_c, 9, 35, 0
6, 90567, Note_on_c, 9, 35, 0
6, 90567, Note_on_c, 9, 38, 0
6, 90603, Note_on_c, 9, 35, 44
6, 90695, Note_on_c, 9, 35, 0
6, 90811, Note_on_c, 9, 40, 60
6, 90831, Note_on_c, 9, 40, 0
6, 90939, Note_on_c, 9, 38, 58
6, 90947, Note_on_c, 9, 44, 82
6, 90947, Note_on_c, 9, 35, 35
6, 90951, Note_on_c, 9, 35, 0
6, 90955, Note_on_c, 9, 44, 0
6, 90955, Note_on_c, 9, 38, 0
6, 91195, Note_on_c, 9, 40, 60
6, 91206, Note_on_c, 9, 35, 33
6, 91211, Note_on_c, 9, 40, 0
6, 91241, Note_on_c, 9, 35, 0
6, 91323, Note_on_c, 9, 38, 58
6, 91323, Note_on_c, 9, 35, 35
6, 91335, Note_on_c, 9, 35, 0
6, 91335, Note_on_c, 9, 38, 0
6, 91352, Note_on_c, 9, 38, 50
6, 91381, Note_on_c, 9, 35, 37
6, 91383, Note_on_c, 9, 38, 0
6, 91464, Note_on_c, 9, 38, 69
6, 91530, Note_on_c, 9, 38, 0
6, 91571, Note_on_c, 9, 35, 0
6, 91579, Note_on_c, 9, 40, 60
6, 91581, Note_on_c, 9, 38, 84
6, 91595, Note_on_c, 9, 40, 0
6, 91620, Note_on_c, 9, 35, 35
6, 91649, Note_on_c, 9, 38, 0
6, 91685, Note_on_c, 9, 35, 0
6, 91707, Note_on_c, 9, 38, 77
6, 91707, Note_on_c, 9, 35, 35
6, 91711, Note_on_c, 9, 44, 82
6, 91715, Note_on_c, 9, 44, 0
6, 91719, Note_on_c, 9, 35, 0
6, 91719, Note_on_c, 9, 38, 0
6, 91720, Note_on_c, 9, 35, 53
6, 91845, Note_on_c, 9, 35, 0
6, 91963, Note_on_c, 9, 40, 60
6, 91971, Note_on_c, 9, 40, 0
6, 92091, Note_on_c, 9, 38, 58
6, 92095, Note_on_c, 9, 35, 35
6, 92107, Note_on_c, 9, 35, 0
6, 92107, Note_on_c, 9, 38, 0
6, 92351, Note_on_c, 9, 40, 60
6, 92363, Note_on_c, 9, 40, 0
6, 92475, Note_on_c, 9, 35, 35
6, 92479, Note_on_c, 9, 38, 58
6, 92483, Note_on_c, 9, 38, 0
6, 92483, Note_on_c, 9, 44, 82
6, 92483, Note_on_c, 9, 44, 0
6, 92487, Note_on_c, 9, 35, 0
6, 92732, Note_on_c, 9, 35, 36
6, 92735, Note_on_c, 9, 40, 60
6, 92747, Note_on_c, 9, 40, 0
6, 92769, Note_on_c, 9, 35, 0
6, 92859, Note_on_c, 9, 38, 58
6, 92859, Note_on_c, 9, 35, 35
6, 92863, Note_on_c, 9, 38, 0
6, 92867, Note_on_c, 9, 35, 0
6, 93014, Note_on_c, 9, 39, 75
6, 93065, Note_on_c, 9, 39, 0
6, 93115, Note_on_c, 9, 40, 60
6, 93119, Note_on_c, 9, 40, 0
6, 93136, Note_on_c, 9, 39, 76
6, 93212, Note_on_c, 9, 39, 0
6, 93247, Note_on_c, 9, 38, 77
6, 93247, Note_on_c, 9, 46, 62
6, 93247, Note_on_c, 9, 35, 35
6, 93255, Note_on_c, 9, 35, 0
6, 93255, Note_on_c, 9, 46, 0
6, 93255, Note_on_c, 9, 38, 0
6, 93281, Note_on_c, 9, 35, 55
6, 93384, Note_on_c, 9, 35, 0
6, 93499, Note_on_c, 9, 40, 60
6, 93515, Note_on_c, 9, 40, 0
6, 93635, Note_on_c, 9, 38, 58
6, 93635, Note_on_c, 9, 35, 30
6, 93643, Note_on_c, 9, 35, 0
6, 93647, Note_on_c, 9, 38, 0
6, 93883, Note_on_c, 9, 40, 45
6, 93931, Note_on_c, 9, 40, 0
6, 94019, Note_on_c, 9, 44, 82
6, 94027, Note_on_c, 9, 38, 58
6, 94027, Note_on_c, 9, 35, 35
6, 94035, Note_on_c, 9, 35, 0
6, 94035, Note_on_c, 9, 38, 0
6, 94035, Note_on_c, 9, 44, 0
6, 94256, Note_on_c, 9, 39, 68
6, 94275, Note_on_c, 9, 40, 45
6, 94284, Note_on_c, 9, 39, 0
6, 94323, Note_on_c, 9, 40, 0
6, 94403, Note_on_c, 9, 38, 58
6, 94403, Note_on_c, 9, 35, 35
6, 94419, Note_on_c, 9, 35, 0
6, 94419, Note_on_c, 9, 38, 0
6, 94651, Note_on_c, 9, 40, 45
6, 94666, Note_on_c, 9, 35, 44
6, 94699, Note_on_c, 9, 40, 0
6, 94700, Note_on_c, 9, 35, 0
6, 94779, Note_on_c, 9, 35, 35
6, 94791, Note_on_c, 9, 35, 0
6, 94791, Note_on_c, 9, 38, 77
6, 94791, Note_on_c, 9, 44, 82
6, 94795, Note_on_c, 9, 44, 0
6, 94795, Note_on_c, 9, 38, 0
6, 95035, Note_on_c, 9, 40, 45
6, 95083, Note_on_c, 9, 40, 0
6, 95167, Note_on_c, 9, 38, 58
6, 95167, Note_on_c, 9, 35, 35
6, 95171, Note_on_c, 9, 35, 0
6, 95175, Note_on_c, 9, 38, 0
6, 95419, Note_on_c, 9, 40, 45
6, 95467, Note_on_c, 9, 40, 0
6, 95551, Note_on_c, 9, 38, 58
6, 95551, Note_on_c, 9, 35, 35
6, 95555, Note_on_c, 9, 35, 0
6, 95555, Note_on_c, 9, 44, 82
6, 95563, Note_on_c, 9, 44, 0
6, 95563, Note_on_c, 9, 38, 0
6, 95803, Note_on_c, 9, 40, 45
6, 95836, Note_on_c, 9, 39, 37
6, 95851, Note_on_c, 9, 40, 0
6, 95864, Note_on_c, 9, 39, 0
6, 95935, Note_on_c, 9, 38, 58
6, 95935, Note_on_c, 9, 38, 0
6, 95939, Note_on_c, 9, 35, 35
6, 95943, Note_on_c, 9, 35, 0
6, 96191, Note_on_c, 9, 40, 60
6, 96203, Note_on_c, 9, 40, 0
6, 96211, Note_on_c, 9, 39, 72
6, 96259, Note_on_c, 9, 39, 0
6, 96319, Note_on_c, 9, 38, 77
6, 96319, Note_on_c, 9, 44, 82
6, 96319, Note_on_c, 9, 35, 35
6, 96331, Note_on_c, 9, 35, 0
6, 96331, Note_on_c, 9, 44, 0
6, 96331, Note_on_c, 9, 38, 0
6, 96337, Note_on_c, 9, 51, 48
6, 96372, Note_on_c, 9, 39, 58
6, 96401, Note_on_c, 9, 39, 0
6, 96435, Note_on_c, 9, 51, 0
6, 96571, Note_on_c, 9, 40, 60
6, 96577, Note_on_c, 9, 51, 83
6, 96580, Note_on_c, 9, 35, 41
6, 96587, Note_on_c, 9, 40, 0
6, 96616, Note_on_c, 9, 35, 0
6, 96647, Note_on_c, 9, 51, 0
6, 96703, Note_on_c, 9, 38, 58
6, 96703, Note_on_c, 9, 35, 35
6, 96707, Note_on_c, 9, 35, 0
6, 96707, Note_on_c, 9, 38, 0
6, 96955, Note_on_c, 9, 40, 60
6, 96971, Note_on_c, 9, 40, 0
6, 97083, Note_on_c, 9, 44, 82
6, 97087, Note_on_c, 9, 38, 58
6, 97095, Note_on_c, 9, 35, 35
6, 97095, Note_on_c, 9, 35, 0
6, 97099, Note_on_c, 9, 38, 0
6, 97099, Note_on_c, 9, 44, 0
6, 97339, Note_on_c, 9, 40, 60
6, 97355, Note_on_c, 9, 40, 0
6, 97363, Note_on_c, 9, 39, 72
6, 97417, Note_on_c, 9, 39, 0
6, 97471, Note_on_c, 9, 38, 58
6, 97471, Note_on_c, 9, 35, 35
6, 97475, Note_on_c, 9, 35, 0
6, 97479, Note_on_c, 9, 38, 0
6, 97515, Note_on_c, 9, 39, 78
6, 97561, Note_on_c, 9, 39, 0
6, 97726, Note_on_c, 9, 35, 74
6, 97727, Note_on_c, 9, 40, 60
6, 97743, Note_on_c, 9, 40, 0
6, 97790, Note_on_c, 9, 35, 0
6, 97855, Note_on_c, 9, 35, 35
6, 97859, Note_on_c, 9, 35, 0
6, 97859, Note_on_c, 9, 38, 77
6, 97859, Note_on_c, 9, 44, 82
6, 97863, Note_on_c, 9, 44, 0
6, 97863, Note_on_c, 9, 38, 0
6, 98111, Note_on_c, 9, 40, 60
6, 98115, Note_on_c, 9, 40, 0
6, 98139, Note_on_c, 9, 38, 81
6, 98183, Note_on_c, 9, 38, 0
6, 98235, Note_on_c, 9, 38, 81
6, 98239, Note_on_c, 9, 38, 58
6, 98239, Note_on_c, 9, 35, 35
6, 98243, Note_on_c, 9, 35, 0
6, 98247, Note_on_c, 9, 38, 0
6, 98283, Note_on_c, 9, 38, 0
6, 98491, Note_on_c, 9, 40, 60
6, 98499, Note_on_c, 9, 40, 0
6, 98619, Note_on_c, 9, 35, 35
6, 98623, Note_on_c, 9, 38, 58
6, 98627, Note_on_c, 9, 44, 82
6, 98627, Note_on_c, 9, 44, 0
6, 98631, Note_on_c, 9, 38, 0
6, 98631, Note_on_c, 9, 35, 0
6, 98634, Note_on_c, 9, 39, 42
6, 98677, Note_on_c, 9, 39, 0
6, 98756, Note_on_c, 9, 39, 59
6, 98812, Note_on_c, 9, 39, 0
6, 98873, Note_on_c, 9, 39, 76
6, 98879, Note_on_c, 9, 40, 60
6, 98891, Note_on_c, 9, 40, 0
6, 98949, Note_on_c, 9, 39, 0
6, 99003, Note_on_c, 9, 35, 35
6, 99007, Note_on_c, 9, 38, 58
6, 99007, Note_on_c, 9, 38, 0
6, 99011, Note_on_c, 9, 35, 0
6, 99013, Note_on_c, 9, 35, 40
6, 99054, Note_on_c, 9, 35, 0
6, 99259, Note_on_c, 9, 40, 60
6, 99279, Note_on_c, 9, 40, 0
6, 99387, Note_on_c, 9, 44, 82
6, 99391, Note_on_c, 9, 35, 35
6, 99395, Note_on_c, 9, 38, 77
6, 99403, Note_on_c, 9, 38, 0
6, 99403, Note_on_c, 9, 35, 0
6, 99403, Note_on_c, 9, 44, 0
6, 99647, Note_on_c, 9, 40, 60
6, 99659, Note_on_c, 9, 40, 0
6, 99775, Note_on_c, 9, 38, 58
6, 99775, Note_on_c, 9, 38, 0
6, 99894, Note_on_c, 9, 39, 64
6, 99952, Note_on_c, 9, 39, 0
6, 100011, Note_on_c, 9, 39, 58
6, 100027, Note_on_c, 9, 40, 60
6, 100035, Note_on_c, 9, 40, 0
6, 100069, Note_on_c, 9, 39, 0
6, 100146, Note_on_c, 9, 35, 54
6, 100155, Note_on_c, 9, 35, 35
6, 100159, Note_on_c, 9, 38, 58
6, 100163, Note_on_c, 9, 44, 82
6, 100163, Note_on_c, 9, 44, 0
6, 100167, Note_on_c, 9, 38, 0
6, 100167, Note_on_c, 9, 35, 0
6, 100213, Note_on_c, 9, 35, 0
6, 100415, Note_on_c, 9, 40, 60
6, 100427, Note_on_c, 9, 40, 0
6, 100528, Note_on_c, 9, 39, 43
6, 100539, Note_on_c, 9, 35, 35
6, 100543, Note_on_c, 9, 38, 58
6, 100543, Note_on_c, 9, 38, 0
6, 100547, Note_on_c, 9, 35, 0
6, 100569, Note_on_c, 9, 39, 0
6, 100653, Note_on_c, 9, 39, 64
6, 100707, Note_on_c, 9, 39, 0
6, 100795, Note_on_c, 9, 40, 60
6, 100811, Note_on_c, 9, 35, 62
6, 100815, Note_on_c, 9, 40, 0
6, 100886, Note_on_c, 9, 35, 0
6, 100923, Note_on_c, 9, 44, 82
6, 100927, Note_on_c, 9, 35, 35
6, 100931, Note_on_c, 9, 38, 77
6, 100939, Note_on_c, 9, 38, 0
6, 100939, Note_on_c, 9, 35, 0
6, 100939, Note_on_c, 9, 44, 0
6, 101091, Note_on_c, 9, 39, 60
6, 101144, Note_on_c, 9, 39, 0
6, 101183, Note_on_c, 9, 40, 60
6, 101195, Note_on_c, 9, 40, 0
6, 101206, Note_on_c, 9, 39, 59
6, 101269, Note_on_c, 9, 39, 0
6, 101311, Note_on_c, 9, 38, 58
6, 101311, Note_on_c, 9, 38, 0
6, 101340, Note_on_c, 9, 35, 53
6, 101351, Note_on_c, 9, 38, 58
6, 101351, Note_on_c, 9, 35, 30
6, 101359, Note_on_c, 9, 35, 0
6, 101371, Note_on_c, 9, 38, 0
6, 101436, Note_on_c, 9, 35, 0
6, 101563, Note_on_c, 9, 40, 45
6, 101611, Note_on_c, 9, 40, 0
6, 101699, Note_on_c, 9, 38, 58
6, 101699, Note_on_c, 9, 44, 82
6, 101699, Note_on_c, 9, 35, 35
6, 101703, Note_on_c, 9, 44, 0
6, 101707, Note_on_c, 9, 35, 0
6, 101711, Note_on_c, 9, 38, 0
6, 101955, Note_on_c, 9, 40, 45
6, 102003, Note_on_c, 9, 40, 0
6, 102083, Note_on_c, 9, 38, 58
6, 102083, Note_on_c, 9, 35, 35
6, 102099, Note_on_c, 9, 35, 0
6, 102099, Note_on_c, 9, 38, 0
6, 102231, Note_on_c, 9, 39, 60
6, 102272, Note_on_c, 9, 39, 0
6, 102331, Note_on_c, 9, 40, 45
6, 102352, Note_on_c, 9, 39, 52
6, 102375, Note_on_c, 9, 40, 0
6, 102421, Note_on_c, 9, 39, 0
6, 102463, Note_on_c, 9, 35, 35
6, 102467, Note_on_c, 9, 38, 77
6, 102467, Note_on_c, 9, 44, 82
6, 102471, Note_on_c, 9, 35, 0
6, 102475, Note_on_c, 9, 44, 0
6, 102475, Note_on_c, 9, 38, 0
6, 102476, Note_on_c, 9, 59, 65
6, 102477, Note_on_c, 9, 35, 58
6, 102505, Note_on_c, 9, 59, 0
6, 102570, Note_on_c, 9, 35, 0
6, 102715, Note_on_c, 9, 40, 45
6, 102763, Note_on_c, 9, 40, 0
6, 102847, Note_on_c, 9, 38, 58
6, 102847, Note_on_c, 9, 35, 35
6, 102851, Note_on_c, 9, 35, 0
6, 102855, Note_on_c, 9, 38, 0
6, 102971, Note_on_c, 9, 39, 64
6, 103063, Note_on_c, 9, 39, 0
6, 103099, Note_on_c, 9, 40, 45
6, 103121, Note_on_c, 9, 35, 66
6, 103147, Note_on_c, 9, 40, 0
6, 103231, Note_on_c, 9, 35, 0
6, 103231, Note_on_c, 9, 38, 58
6, 103231, Note_on_c, 9, 35, 35
6, 103235, Note_on_c, 9, 38, 0
6, 103235, Note_on_c, 9, 44, 82
6, 103235, Note_on_c, 9, 44, 0
6, 103252, Note_on_c, 9, 35, 0
6, 103432, Note_on_c, 9, 59, 68
6, 103459, Note_on_c, 9, 59, 0
6, 103483, Note_on_c, 9, 40, 45
6, 103531, Note_on_c, 9, 40, 0
6, 103557, Note_on_c, 9, 39, 64
6, 103611, Note_on_c, 9, 38, 58
6, 103615, Note_on_c, 9, 38, 0
6, 103615, Note_on_c, 9, 35, 35
6, 103619, Note_on_c, 9, 35, 0
6, 103631, Note_on_c, 9, 39, 0
6, 103867, Note_on_c, 9, 40, 60
6, 103887, Note_on_c, 9, 40, 0
6, 103999, Note_on_c, 9, 38, 77
6, 103999, Note_on_c, 9, 44, 82
6, 104003, Note_on_c, 9, 35, 35
6, 104011, Note_on_c, 9, 35, 0
6, 104015, Note_on_c, 9, 44, 0
6, 104015, Note_on_c, 9, 38, 0
6, 104251, Note_on_c, 9, 40, 60
6, 104259, Note_on_c, 9, 40, 0
6, 104379, Note_on_c, 9, 35, 35
6, 104383, Note_on_c, 9, 38, 58
6, 104391, Note_on_c, 9, 38, 0
6, 104391, Note_on_c, 9, 35, 0
6, 104635, Note_on_c, 9, 40, 60
6, 104645, Note_on_c, 9, 39, 64
6, 104651, Note_on_c, 9, 40, 0
6, 104702, Note_on_c, 9, 39, 0
6, 104760, Note_on_c, 9, 35, 44
6, 104763, Note_on_c, 9, 44, 82
6, 104767, Note_on_c, 9, 38, 58
6, 104771, Note_on_c, 9, 35, 35
6, 104775, Note_on_c, 9, 38, 0
6, 104775, Note_on_c, 9, 35, 0
6, 104775, Note_on_c, 9, 44, 0
6, 104927, Note_on_c, 9, 35, 0
6, 105012, Note_on_c, 9, 35, 54
6, 105019, Note_on_c, 9, 40, 60
6, 105035, Note_on_c, 9, 40, 0
6, 105084, Note_on_c, 9, 35, 0
6, 105147, Note_on_c, 9, 38, 58
6, 105151, Note_on_c, 9, 35, 35
6, 105155, Note_on_c, 9, 35, 0
6, 105159, Note_on_c, 9, 38, 0
6, 105403, Note_on_c, 9, 40, 60
6, 105423, Note_on_c, 9, 40, 0
6, 105531, Note_on_c, 9, 35, 35
6, 105535, Note_on_c, 9, 44, 82
6, 105539, Note_on_c, 9, 35, 0
6, 105539, Note_on_c, 9, 38, 77
6, 105543, Note_on_c, 9, 38, 0
6, 105543, Note_on_c, 9, 44, 0
6, 105791, Note_on_c, 9, 40, 60
6, 105799, Note_on_c, 9, 40, 0
6, 105823, Note_on_c, 9, 38, 81
6, 105867, Note_on_c, 9, 38, 0
6, 105919, Note_on_c, 9, 38, 81
6, 105919, Note_on_c, 9, 35, 35
6, 105923, Note_on_c, 9, 38, 58
6, 105931, Note_on_c, 9, 35, 0
6, 105931, Note_on_c, 9, 38, 0
6, 105959, Note_on_c, 9, 38, 0
6, 106175, Note_on_c, 9, 40, 60
6, 106187, Note_on_c, 9, 40, 0
6, 106299, Note_on_c, 9, 35, 35
6, 106303, Note_on_c, 9, 38, 58
6, 106303, Note_on_c, 9, 44, 82
6, 106307, Note_on_c, 9, 44, 0
6, 106311, Note_on_c, 9, 38, 0
6, 106311, Note_on_c, 9, 35, 0
6, 106555, Note_on_c, 9, 40, 60
6, 106571, Note_on_c, 9, 40, 0
6, 106683, Note_on_c, 9, 35, 35
6, 106687, Note_on_c, 9, 38, 58
6, 106691, Note_on_c, 9, 38, 0
6, 106691, Note_on_c, 9, 35, 0
6, 106939, Note_on_c, 9, 40, 60
6, 106943, Note_on_c, 9, 40, 0
6, 107067, Note_on_c, 9, 46, 62
6, 107071, Note_on_c, 9, 35, 35
6, 107075, Note_on_c, 9, 38, 77
6, 107079, Note_on_c, 9, 38, 0
6, 107079, Note_on_c, 9, 35, 0
6, 107079, Note_on_c, 9, 46, 0
6, 107327, Note_on_c, 9, 40, 60
6, 107343, Note_on_c, 9, 40, 0
6, 107455, Note_on_c, 9, 38, 58
6, 107459, Note_on_c, 9, 38, 0
6, 107495, Note_on_c, 9, 38, 58
6, 107495, Note_on_c, 9, 35, 30
6, 107503, Note_on_c, 9, 35, 0
6, 107515, Note_on_c, 9, 38, 0
6, 107707, Note_on_c, 9, 40, 45
6, 107755, Note_on_c, 9, 40, 0
6, 107843, Note_on_c, 9, 38, 58
6, 107843, Note_on_c, 9, 44, 82
6, 107843, Note_on_c, 9, 35, 35
6, 107847, Note_on_c, 9, 44, 0
6, 107851, Note_on_c, 9, 35, 0
6, 107855, Note_on_c, 9, 38, 0
6, 108099, Note_on_c, 9, 40, 45
6, 108147, Note_on_c, 9, 40, 0
6, 108227, Note_on_c, 9, 38, 58
6, 108227, Note_on_c, 9, 35, 35
6, 108243, Note_on_c, 9, 35, 0
6, 108243, Note_on_c, 9, 38, 0
6, 108475, Note_on_c, 9, 40, 45
6, 108519, Note_on_c, 9, 40, 0
6, 108607, Note_on_c, 9, 35, 35
6, 108611, Note_on_c, 9, 38, 77
6, 108611, Note_on_c, 9, 44, 82
6, 108615, Note_on_c, 9, 35, 0
6, 108619, Note_on_c, 9, 44, 0
6, 108619, Note_on_c, 9, 38, 0
6, 108845, Note_on_c, 9, 39, 56
6, 108859, Note_on_c, 9, 40, 45
6, 108873, Note_on_c, 9, 39, 0
6, 108907, Note_on_c, 9, 40, 0
6, 108991, Note_on_c, 9, 38, 58
6, 108991, Note_on_c, 9, 35, 35
6, 108995, Note_on_c, 9, 35, 0
6, 108999, Note_on_c, 9, 38, 0
6, 109238, Note_on_c, 9, 35, 42
6, 109243, Note_on_c, 9, 40, 45
6, 109280, Note_on_c, 9, 35, 0
6, 109291, Note_on_c, 9, 40, 0
6, 109375, Note_on_c, 9, 38, 58
6, 109375, Note_on_c, 9, 35, 35
6, 109375, Note_on_c, 9, 35, 0
6, 109379, Note_on_c, 9, 38, 0
6, 109379, Note_on_c, 9, 44, 82
6, 109379, Note_on_c, 9, 44, 0
6, 109627, Note_on_c, 9, 40, 45
6, 109675, Note_on_c, 9, 40, 0
6, 109755, Note_on_c, 9, 38, 58
6, 109759, Note_on_c, 9, 38, 0
6, 109759, Note_on_c, 9, 35, 35
6, 109763, Note_on_c, 9, 35, 0
6, 110011, Note_on_c, 9, 40, 60
6, 110031, Note_on_c, 9, 40, 0
6, 110143, Note_on_c, 9, 38, 77
6, 110143, Note_on_c, 9, 44, 82
6, 110147, Note_on_c, 9, 35, 35
6, 110155, Note_on_c, 9, 35, 0
6, 110159, Note_on_c, 9, 44, 0
6, 110159, Note_on_c, 9, 38, 0
6, 110395, Note_on_c, 9, 40, 60
6, 110403, Note_on_c, 9, 40, 0
6, 110523, Note_on_c, 9, 35, 35
6, 110527, Note_on_c, 9, 38, 58
6, 110535, Note_on_c, 9, 38, 0
6, 110535, Note_on_c, 9, 35, 0
6, 110779, Note_on_c, 9, 40, 60
6, 110795, Note_on_c, 9, 40, 0
6, 110907, Note_on_c, 9, 44, 82
6, 110911, Note_on_c, 9, 38, 58
6, 110915, Note_on_c, 9, 35, 35
6, 110919, Note_on_c, 9, 35, 0
6, 110919, Note_on_c, 9, 38, 0
6, 110919, Note_on_c, 9, 44, 0
6, 111163, Note_on_c, 9, 40, 60
6, 111179, Note_on_c, 9, 40, 0
6, 111291, Note_on_c, 9, 38, 58
6, 111295, Note_on_c, 9, 35, 35
6, 111299, Note_on_c, 9, 35, 0
6, 111303, Note_on_c, 9, 38, 0
6, 111404, Note_on_c, 9, 39, 57
6, 111432, Note_on_c, 9, 39, 0
6, 111547, Note_on_c, 9, 40, 60
6, 111567, Note_on_c, 9, 40, 0
6, 111674, Note_on_c, 9, 39, 87
6, 111675, Note_on_c, 9, 35, 35
6, 111679, Note_on_c, 9, 44, 82
6, 111683, Note_on_c, 9, 35, 0
6, 111683, Note_on_c, 9, 38, 77
6, 111687, Note_on_c, 9, 38, 0
6, 111687, Note_on_c, 9, 44, 0
6, 111740, Note_on_c, 9, 39, 0
6, 111914, Note_on_c, 9, 39, 92
6, 111935, Note_on_c, 9, 40, 60
6, 111943, Note_on_c, 9, 40, 0
6, 111967, Note_on_c, 9, 38, 81
6, 111981, Note_on_c, 9, 39, 0
6, 112011, Note_on_c, 9, 38, 0
6, 112058, Note_on_c, 9, 35, 48
6, 112063, Note_on_c, 9, 38, 81
6, 112063, Note_on_c, 9, 35, 35
6, 112067, Note_on_c, 9, 38, 58
6, 112075, Note_on_c, 9, 38, 0
6, 112075, Note_on_c, 9, 35, 0
6, 112103, Note_on_c, 9, 38, 0
6, 112162, Note_on_c, 9, 35, 0
6, 112319, Note_on_c, 9, 40, 60
6, 112331, Note_on_c, 9, 40, 0
6, 112443, Note_on_c, 9, 35, 35
6, 112447, Note_on_c, 9, 38, 58
6, 112447, Note_on_c, 9, 44, 82
6, 112451, Note_on_c, 9, 44, 0
6, 112455, Note_on_c, 9, 38, 0
6, 112455, Note_on_c, 9, 35, 0
6, 112699, Note_on_c, 9, 40, 60
6, 112715, Note_on_c, 9, 40, 0
6, 112827, Note_on_c, 9, 35, 35
6, 112831, Note_on_c, 9, 38, 58
6, 112835, Note_on_c, 9, 38, 0
6, 112835, Note_on_c, 9, 35, 0
6, 113083, Note_on_c, 9, 40, 60
6, 113087, Note_on_c, 9, 40, 0
6, 113211, Note_on_c, 9, 46, 62
6, 113215, Note_on_c, 9, 35, 35
6, 113219, Note_on_c, 9, 38, 77
6, 113223, Note_on_c, 9, 38, 0
6, 113223, Note_on_c, 9, 35, 0
6, 113223, Note_on_c, 9, 46, 0
6, 113471, Note_on_c, 9, 40, 60
6, 113487, Note_on_c, 9, 40, 0
6, 113488, Note_on_c, 9, 39, 43
6, 113576, Note_on_c, 9, 39, 0
6, 113599, Note_on_c, 9, 38, 58
6, 113599, Note_on_c, 9, 35, 35
6, 113603, Note_on_c, 9, 38, 0
6, 113607, Note_on_c, 9, 35, 0
6, 113855, Note_on_c, 9, 40, 60
6, 113867, Note_on_c, 9, 40, 0
6, 113880, Note_on_c, 9, 39, 64
6, 113953, Note_on_c, 9, 39, 0
6, 113983, Note_on_c, 9, 44, 82
6, 113983, Note_on_c, 9, 35, 35
6, 113987, Note_on_c, 9, 38, 58
6, 113995, Note_on_c, 9, 38, 0
6, 113999, Note_on_c, 9, 35, 0
6, 113999, Note_on_c, 9, 44, 0
6, 114235, Note_on_c, 9, 40, 60
6, 114251, Note_on_c, 9, 40, 0
6, 114260, Note_on_c, 9, 39, 77
6, 114350, Note_on_c, 9, 39, 0
6, 114363, Note_on_c, 9, 38, 58
6, 114367, Note_on_c, 9, 35, 35
6, 114371, Note_on_c, 9, 38, 0
6, 114375, Note_on_c, 9, 35, 0
6, 114619, Note_on_c, 9, 40, 60
6, 114632, Note_on_c, 9, 39, 78
6, 114635, Note_on_c, 9, 40, 0
6, 114708, Note_on_c, 9, 39, 0
6, 114751, Note_on_c, 9, 38, 77
6, 114751, Note_on_c, 9, 44, 82
6, 114751, Note_on_c, 9, 35, 35
6, 114763, Note_on_c, 9, 35, 0
6, 114767, Note_on_c, 9, 44, 0
6, 114771, Note_on_c, 9, 38, 0
6, 114985, Note_on_c, 9, 39, 74
6, 115003, Note_on_c, 9, 40, 60
6, 115019, Note_on_c, 9, 40, 0
6, 115071, Note_on_c, 9, 39, 0
6, 115111, Note_on_c, 9, 57, 66
6, 115125, Note_on_c, 9, 35, 62
6, 115131, Note_on_c, 9, 38, 58
6, 115135, Note_on_c, 9, 35, 35
6, 115139, Note_on_c, 9, 57, 0
6, 115143, Note_on_c, 9, 35, 0
6, 115147, Note_on_c, 9, 38, 0
6, 115209, Note_on_c, 9, 35, 0
6, 115387, Note_on_c, 9, 40, 60
6, 115403, Note_on_c, 9, 40, 0
6, 115515, Note_on_c, 9, 38, 58
6, 115519, Note_on_c, 9, 44, 82
6, 115519, Note_on_c, 9, 35, 35
6, 115527, Note_on_c, 9, 44, 0
6, 115531, Note_on_c, 9, 35, 0
6, 115531, Note_on_c, 9, 38, 0
6, 115775, Note_on_c, 9, 40, 60
6, 115787, Note_on_c, 9, 40, 0
6, 115903, Note_on_c, 9, 38, 58
6, 115903, Note_on_c, 9, 35, 35
6, 115911, Note_on_c, 9, 35, 0
6, 115911, Note_on_c, 9, 38, 0
6, 116004, Note_on_c, 9, 39, 60
6, 116064, Note_on_c, 9, 39, 0
6, 116126, Note_on_c, 9, 39, 56
6, 116155, Note_on_c, 9, 40, 60
6, 116171, Note_on_c, 9, 40, 0
6, 116177, Note_on_c, 9, 39, 0
6, 116269, Note_on_c, 9, 35, 56
6, 116283, Note_on_c, 9, 38, 77
6, 116287, Note_on_c, 9, 44, 82
6, 116287, Note_on_c, 9, 35, 35
6, 116299, Note_on_c, 9, 44, 0
6, 116299, Note_on_c, 9, 35, 0
6, 116299, Note_on_c, 9, 38, 0
6, 116377, Note_on_c, 9, 35, 0
6, 116539, Note_on_c, 9, 40, 60
6, 116551, Note_on_c, 9, 40, 0
6, 116667, Note_on_c, 9, 38, 58
6, 116671, Note_on_c, 9, 35, 35
6, 116675, Note_on_c, 9, 35, 0
6, 116675, Note_on_c, 9, 38, 0
6, 116923, Note_on_c, 9, 40, 60
6, 116931, Note_on_c, 9, 40, 0
6, 117055, Note_on_c, 9, 38, 58
6, 117055, Note_on_c, 9, 44, 82
6, 117059, Note_on_c, 9, 35, 35
6, 117063, Note_on_c, 9, 35, 0
6, 117063, Note_on_c, 9, 44, 0
6, 117063, Note_on_c, 9, 38, 0
6, 117305, Note_on_c, 9, 51, 33
6, 117307, Note_on_c, 9, 40, 60
6, 117327, Note_on_c, 9, 40, 0
6, 117333, Note_on_c, 9, 51, 0
6, 117435, Note_on_c, 9, 35, 35
6, 117439, Note_on_c, 9, 38, 58
6, 117447, Note_on_c, 9, 38, 0
6, 117447, Note_on_c, 9, 35, 0
6, 117450, Note_on_c, 9, 51, 38
6, 117480, Note_on_c, 9, 51, 0
6, 117676, Note_on_c, 9, 35, 67
6, 117695, Note_on_c, 9, 40, 60
6, 117703, Note_on_c, 9, 40, 0
6, 117808, Note_on_c, 9, 35, 0
6, 117823, Note_on_c, 9, 38, 77
6, 117823, Note_on_c, 9, 35, 35
6, 117827, Note_on_c, 9, 44, 82
6, 117835, Note_on_c, 9, 44, 0
6, 117839, Note_on_c, 9, 35, 0
6, 117839, Note_on_c, 9, 38, 0
6, 118075, Note_on_c, 9, 40, 60
6, 118091, Note_on_c, 9, 40, 0
6, 118203, Note_on_c, 9, 38, 58
6, 118203, Note_on_c, 9, 35, 35
6, 118211, Note_on_c, 9, 35, 0
6, 118211, Note_on_c, 9, 38, 0
6, 118459, Note_on_c, 9, 40, 60
6, 118467, Note_on_c, 9, 40, 0
6, 118591, Note_on_c, 9, 38, 58
6, 118591, Note_on_c, 9, 44, 82
6, 118591, Note_on_c, 9, 35, 35
6, 118599, Note_on_c, 9, 35, 0
6, 118599, Note_on_c, 9, 44, 0
6, 118599, Note_on_c, 9, 38, 0
6, 118843, Note_on_c, 9, 40, 60
6, 118863, Note_on_c, 9, 40, 0
6, 118971, Note_on_c, 9, 35, 35
6, 118975, Note_on_c, 9, 38, 58
6, 118979, Note_on_c, 9, 38, 0
6, 118979, Note_on_c, 9, 35, 0
6, 118995, Note_on_c, 9, 39, 25
6, 119040, Note_on_c, 9, 39, 0
6, 119210, Note_on_c, 9, 39, 38
6, 119231, Note_on_c, 9, 40, 60
6, 119238, Note_on_c, 9, 39, 0
6, 119243, Note_on_c, 9, 40, 0
6, 119359, Note_on_c, 9, 46, 62
6, 119359, Note_on_c, 9, 35, 35
6, 119359, Note_on_c, 9, 35, 61
6, 119363, Note_on_c, 9, 38, 77
6, 119371, Note_on_c, 9, 38, 0
6, 119375, Note_on_c, 9, 46, 0
6, 119375, Note_on_c, 9, 35, 0
6, 119588, Note_on_c, 9, 35, 0
6, 119615, Note_on_c, 9, 40, 60
6, 119627, Note_on_c, 9, 40, 0
6, 119747, Note_on_c, 9, 38, 58
6, 119747, Note_on_c, 9, 35, 30
6, 119763, Note_on_c, 9, 35, 0
6, 119763, Note_on_c, 9, 38, 0
6, 119995, Note_on_c, 9, 40, 45
6, 120043, Note_on_c, 9, 40, 0
6, 120131, Note_on_c, 9, 38, 58
6, 120131, Note_on_c, 9, 44, 82
6, 120131, Note_on_c, 9, 35, 35
6, 120147, Note_on_c, 9, 35, 0
6, 120147, Note_on_c, 9, 44, 0
6, 120151, Note_on_c, 9, 38, 0
6, 120387, Note_on_c, 9, 40, 45
6, 120435, Note_on_c, 9, 40, 0
6, 120515, Note_on_c, 9, 38, 58
6, 120515, Note_on_c, 9, 35, 35
6, 120515, Note_on_c, 9, 39, 52
6, 120523, Note_on_c, 9, 35, 0
6, 120523, Note_on_c, 9, 38, 0
6, 120568, Note_on_c, 9, 39, 0
6, 120635, Note_on_c, 9, 39, 64
6, 120692, Note_on_c, 9, 39, 0
6, 120763, Note_on_c, 9, 40, 45
6, 120770, Note_on_c, 9, 35, 85
6, 120811, Note_on_c, 9, 40, 0
6, 120891, Note_on_c, 9, 35, 35
6, 120899, Note_on_c, 9, 38, 77
6, 120899, Note_on_c, 9, 44, 82
6, 120903, Note_on_c, 9, 35, 0
6, 120907, Note_on_c, 9, 44, 0
6, 120907, Note_on_c, 9, 38, 0
6, 121016, Note_on_c, 9, 35, 0
6, 121147, Note_on_c, 9, 40, 45
6, 121195, Note_on_c, 9, 40, 0
6, 121279, Note_on_c, 9, 38, 58
6, 121279, Note_on_c, 9, 35, 35
6, 121283, Note_on_c, 9, 35, 0
6, 121287, Note_on_c, 9, 38, 0
6, 121531, Note_on_c, 9, 40, 45
6, 121579, Note_on_c, 9, 40, 0
6, 121659, Note_on_c, 9, 35, 35
6, 121663, Note_on_c, 9, 38, 58
6, 121667, Note_on_c, 9, 35, 0
6, 121667, Note_on_c, 9, 44, 82
6, 121671, Note_on_c, 9, 44, 0
6, 121671, Note_on_c, 9, 38, 0
6, 121915, Note_on_c, 9, 40, 45
6, 121963, Note_on_c, 9, 40, 0
6, 122043, Note_on_c, 9, 38, 58
6, 122047, Note_on_c, 9, 38, 0
6, 122047, Note_on_c, 9, 35, 35
6, 122051, Note_on_c, 9, 35, 0
6, 122299, Note_on_c, 9, 40, 60
6, 122315, Note_on_c, 9, 40, 0
6, 122435, Note_on_c, 9, 38, 77
6, 122435, Note_on_c, 9, 44, 82
6, 122435, Note_on_c, 9, 35, 35
6, 122447, Note_on_c, 9, 35, 0
6, 122447, Note_on_c, 9, 44, 0
6, 122447, Note_on_c, 9, 38, 0
6, 122683, Note_on_c, 9, 40, 60
6, 122703, Note_on_c, 9, 40, 0
6, 122811, Note_on_c, 9, 38, 58
6, 122811, Note_on_c, 9, 35, 35
6, 122819, Note_on_c, 9, 38, 0
6, 122823, Note_on_c, 9, 35, 0
6, 123071, Note_on_c, 9, 40, 60
6, 123075, Note_on_c, 9, 40, 0
6, 123076, Note_on_c, 9, 39, 37
6, 123104, Note_on_c, 9, 39, 0
6, 123195, Note_on_c, 9, 38, 58
6, 123195, Note_on_c, 9, 44, 82
6, 123203, Note_on_c, 9, 35, 35
6, 123207, Note_on_c, 9, 35, 0
6, 123207, Note_on_c, 9, 44, 0
6, 123207, Note_on_c, 9, 38, 0
6, 123210, Note_on_c, 9, 39, 29
6, 123264, Note_on_c, 9, 39, 0
6, 123448, Note_on_c, 9, 39, 82
6, 123451, Note_on_c, 9, 40, 60
6, 123467, Note_on_c, 9, 40, 0
6, 123496, Note_on_c, 9, 39, 0
6, 123583, Note_on_c, 9, 38, 58
6, 123583, Note_on_c, 9, 35, 35
6, 123591, Note_on_c, 9, 35, 0
6, 123591, Note_on_c, 9, 38, 0
6, 123612, Note_on_c, 9, 39, 77
6, 123664, Note_on_c, 9, 39, 0
6, 123822, Note_on_c, 9, 35, 44
6, 123835, Note_on_c, 9, 40, 60
6, 123851, Note_on_c, 9, 40, 0
6, 123909, Note_on_c, 9, 35, 0
6, 123963, Note_on_c, 9, 35, 35
6, 123967, Note_on_c, 9, 44, 82
6, 123971, Note_on_c, 9, 35, 0
6, 123971, Note_on_c, 9, 38, 77
6, 123975, Note_on_c, 9, 38, 0
6, 123975, Note_on_c, 9, 44, 0
6, 124219, Note_on_c, 9, 40, 60
6, 124239, Note_on_c, 9, 40, 0
6, 124255, Note_on_c, 9, 38, 81
6, 124299, Note_on_c, 9, 38, 0
6, 124347, Note_on_c, 9, 38, 81
6, 124351, Note_on_c, 9, 35, 35
6, 124355, Note_on_c, 9, 38, 58
6, 124359, Note_on_c, 9, 35, 0
6, 124359, Note_on_c, 9, 38, 0
6, 124395, Note_on_c, 9, 38, 0
6, 124603, Note_on_c, 9, 40, 60
6, 124619, Note_on_c, 9, 40, 0
6, 124731, Note_on_c, 9, 38, 58
6, 124731, Note_on_c, 9, 35, 35
6, 124739, Note_on_c, 9, 44, 82
6, 124743, Note_on_c, 9, 44, 0
6, 124743, Note_on_c, 9, 35, 0
6, 124743, Note_on_c, 9, 38, 0
6, 124991, Note_on_c, 9, 40, 60
6, 125007, Note_on_c, 9, 40, 0
6, 125115, Note_on_c, 9, 38, 58
6, 125115, Note_on_c, 9, 35, 35
6, 125119, Note_on_c, 9, 38, 0
6, 125123, Note_on_c, 9, 35, 0
6, 125363, Note_on_c, 9, 39, 44
6, 125371, Note_on_c, 9, 40, 60
6, 125387, Note_on_c, 9, 40, 0
6, 125392, Note_on_c, 9, 39, 0
6, 125499, Note_on_c, 9, 44, 82
6, 125499, Note_on_c, 9, 35, 35
6, 125507, Note_on_c, 9, 38, 77
6, 125511, Note_on_c, 9, 38, 0
6, 125511, Note_on_c, 9, 35, 0
6, 125511, Note_on_c, 9, 44, 0
6, 125752, Note_on_c, 9, 35, 46
6, 125755, Note_on_c, 9, 40, 60
6, 125767, Note_on_c, 9, 40, 0
6, 125832, Note_on_c, 9, 35, 0
6, 125883, Note_on_c, 9, 38, 58
6, 125887, Note_on_c, 9, 35, 35
6, 125891, Note_on_c, 9, 35, 0
6, 125891, Note_on_c, 9, 38, 0
6, 126139, Note_on_c, 9, 40, 60
6, 126159, Note_on_c, 9, 40, 0
6, 126267, Note_on_c, 9, 38, 58
6, 126267, Note_on_c, 9, 44, 82
6, 126267, Note_on_c, 9, 35, 35
6, 126279, Note_on_c, 9, 38, 0
6, 126283, Note_on_c, 9, 35, 0
6, 126283, Note_on_c, 9, 44, 0
6, 126516, Note_on_c, 9, 45, 44
6, 126527, Note_on_c, 9, 40, 60
6, 126527, Note_on_c, 9, 40, 0
6, 126548, Note_on_c, 9, 45, 0
6, 126655, Note_on_c, 9, 38, 58
6, 126655, Note_on_c, 9, 35, 35
6, 126659, Note_on_c, 9, 38, 0
6, 126663, Note_on_c, 9, 35, 0
6, 126903, Note_on_c, 9, 35, 44
6, 126911, Note_on_c, 9, 40, 60
6, 126923, Note_on_c, 9, 40, 0
6, 126972, Note_on_c, 9, 35, 0
6, 127035, Note_on_c, 9, 44, 82
6, 127039, Note_on_c, 9, 38, 77
6, 127039, Note_on_c, 9, 35, 35
6, 127051, Note_on_c, 9, 35, 0
6, 127053, Note_on_c, 9, 39, 30
6, 127055, Note_on_c, 9, 38, 0
6, 127055, Note_on_c, 9, 44, 0
6, 127089, Note_on_c, 9, 39, 0
6, 127286, Note_on_c, 9, 39, 88
6, 127291, Note_on_c, 9, 40, 60
6, 127307, Note_on_c, 9, 40, 0
6, 127342, Note_on_c, 9, 39, 0
6, 127419, Note_on_c, 9, 38, 58
6, 127423, Note_on_c, 9, 35, 35
6, 127427, Note_on_c, 9, 35, 0
6, 127427, Note_on_c, 9, 38, 0
6, 127457, Note_on_c, 9, 39, 33
6, 127488, Note_on_c, 9, 39, 0
6, 127658, Note_on_c, 9, 35, 50
6, 127675, Note_on_c, 9, 40, 60
6, 127691, Note_on_c, 9, 40, 0
6, 127741, Note_on_c, 9, 35, 0
6, 127807, Note_on_c, 9, 38, 58
6, 127807, Note_on_c, 9, 44, 82
6, 127807, Note_on_c, 9, 35, 35
6, 127823, Note_on_c, 9, 44, 0
6, 127823, Note_on_c, 9, 38, 0
6, 127827, Note_on_c, 9, 35, 0
6, 128059, Note_on_c, 9, 40, 60
6, 128065, Note_on_c, 9, 35, 55
6, 128079, Note_on_c, 9, 40, 0
6, 128107, Note_on_c, 9, 35, 0
6, 128187, Note_on_c, 9, 38, 58
6, 128195, Note_on_c, 9, 35, 35
6, 128199, Note_on_c, 9, 35, 0
6, 128199, Note_on_c, 9, 38, 0
6, 128447, Note_on_c, 9, 40, 60
6, 128461, Note_on_c, 9, 38, 90
6, 128463, Note_on_c, 9, 40, 0
6, 128496, Note_on_c, 9, 38, 0
6, 128575, Note_on_c, 9, 38, 77
6, 128575, Note_on_c, 9, 44, 82
6, 128575, Note_on_c, 9, 35, 35
6, 128587, Note_on_c, 9, 44, 0
6, 128591, Note_on_c, 9, 35, 0
6, 128591, Note_on_c, 9, 38, 0
6, 128827, Note_on_c, 9, 40, 60
6, 128843, Note_on_c, 9, 40, 0
6, 128955, Note_on_c, 9, 38, 58
6, 128959, Note_on_c, 9, 35, 35
6, 128967, Note_on_c, 9, 35, 0
6, 128967, Note_on_c, 9, 38, 0
6, 129117, Note_on_c, 9, 39, 52
6, 129150, Note_on_c, 9, 39, 0
6, 129211, Note_on_c, 9, 40, 60
6, 129222, Note_on_c, 9, 39, 53
6, 129227, Note_on_c, 9, 40, 0
6, 129280, Note_on_c, 9, 39, 0
6, 129339, Note_on_c, 9, 38, 58
6, 129339, Note_on_c, 9, 44, 82
6, 129351, Note_on_c, 9, 44, 0
6, 129351, Note_on_c, 9, 38, 0
6, 129351, Note_on_c, 9, 35, 35
6, 129351, Note_on_c, 9, 35, 0
6, 129370, Note_on_c, 9, 35, 57
6, 129474, Note_on_c, 9, 35, 0
6, 129595, Note_on_c, 9, 40, 60
6, 129615, Note_on_c, 9, 40, 0
6, 129723, Note_on_c, 9, 35, 35
6, 129727, Note_on_c, 9, 38, 58
6, 129735, Note_on_c, 9, 38, 0
6, 129735, Note_on_c, 9, 35, 0
6, 129979, Note_on_c, 9, 40, 60
6, 129999, Note_on_c, 9, 40, 0
6, 130107, Note_on_c, 9, 38, 77
6, 130111, Note_on_c, 9, 35, 35
6, 130115, Note_on_c, 9, 46, 62
6, 130127, Note_on_c, 9, 46, 0
6, 130127, Note_on_c, 9, 35, 0
6, 130127, Note_on_c, 9, 38, 0
6, 130318, Note_on_c, 9, 39, 67
6, 130367, Note_on_c, 9, 40, 60
6, 130379, Note_on_c, 9, 40, 0
6, 130416, Note_on_c, 9, 39, 0
6, 130425, Note_on_c, 9, 38, 61
6, 130465, Note_on_c, 9, 38, 0
6, 130495, Note_on_c, 9, 38, 58
6, 130495, Note_on_c, 9, 35, 35
6, 130503, Note_on_c, 9, 35, 0
6, 130503, Note_on_c, 9, 38, 0
6, 130536, Note_on_c, 9, 35, 53
6, 130628, Note_on_c, 9, 35, 0
6, 130747, Note_on_c, 9, 40, 60
6, 130763, Note_on_c, 9, 40, 0
6, 130875, Note_on_c, 9, 38, 58
6, 130875, Note_on_c, 9, 35, 35
6, 130883, Note_on_c, 9, 44, 82
6, 130887, Note_on_c, 9, 44, 0
6, 130891, Note_on_c, 9, 35, 0
6, 130891, Note_on_c, 9, 38, 0
6, 131131, Note_on_c, 9, 40, 60
6, 131143, Note_on_c, 9, 40, 0
6, 131253, Note_on_c, 9, 38, 40
6, 131263, Note_on_c, 9, 38, 58
6, 131263, Note_on_c, 9, 35, 35
6, 131267, Note_on_c, 9, 35, 0
6, 131267, Note_on_c, 9, 38, 0
6, 131297, Note_on_c, 9, 38, 0
6, 131383, Note_on_c, 9, 38, 55
6, 131419, Note_on_c, 9, 38, 0
6, 131515, Note_on_c, 9, 40, 60
6, 131535, Note_on_c, 9, 40, 0
6, 131651, Note_on_c, 9, 38, 77
6, 131651, Note_on_c, 9, 44, 82
6, 131651, Note_on_c, 9, 35, 35
6, 131663, Note_on_c, 9, 35, 0
6, 131663, Note_on_c, 9, 44, 0
6, 131663, Note_on_c, 9, 38, 0
6, 131899, Note_on_c, 9, 40, 60
6, 131907, Note_on_c, 9, 46, 97
6, 131919, Note_on_c, 9, 40, 0
6, 131945, Note_on_c, 9, 46, 0
6, 132035, Note_on_c, 9, 38, 58
6, 132035, Note_on_c, 9, 35, 30
6, 132048, Note_on_c, 9, 38, 24
6, 132051, Note_on_c, 9, 35, 0
6, 132051, Note_on_c, 9, 38, 0
6, 132082, Note_on_c, 9, 38, 0
6, 132158, Note_on_c, 9, 38, 60
6, 132217, Note_on_c, 9, 38, 0
6, 132283, Note_on_c, 9, 40, 45
6, 132331, Note_on_c, 9, 40, 0
6, 132419, Note_on_c, 9, 38, 58
6, 132419, Note_on_c, 9, 44, 82
6, 132419, Note_on_c, 9, 35, 35
6, 132435, Note_on_c, 9, 35, 0
6, 132435, Note_on_c, 9, 44, 0
6, 132435, Note_on_c, 9, 38, 0
6, 132457, Note_on_c, 9, 38, 69
6, 132485, Note_on_c, 9, 38, 0
6, 132675, Note_on_c, 9, 40, 45
6, 132687, Note_on_c, 9, 38, 75
6, 132723, Note_on_c, 9, 38, 0
6, 132723, Note_on_c, 9, 40, 0
6, 132803, Note_on_c, 9, 38, 58
6, 132803, Note_on_c, 9, 35, 35
6, 132819, Note_on_c, 9, 35, 0
6, 132819, Note_on_c, 9, 38, 0
6, 133051, Note_on_c, 9, 40, 45
6, 133099, Note_on_c, 9, 40, 0
6, 133179, Note_on_c, 9, 35, 35
6, 133187, Note_on_c, 9, 38, 77
6, 133187, Note_on_c, 9, 44, 82
6, 133191, Note_on_c, 9, 35, 0
6, 133195, Note_on_c, 9, 44, 0
6, 133195, Note_on_c, 9, 38, 0
6, 133435, Note_on_c, 9, 40, 45
6, 133483, Note_on_c, 9, 40, 0
6, 133563, Note_on_c, 9, 38, 58
6, 133563, Note_on_c, 9, 35, 35
6, 133571, Note_on_c, 9, 35, 0
6, 133571, Note_on_c, 9, 38, 0
6, 133819, Note_on_c, 9, 40, 45
6, 133867, Note_on_c, 9, 40, 0
6, 133947, Note_on_c, 9, 35, 35
6, 133951, Note_on_c, 9, 35, 0
6, 133951, Note_on_c, 9, 38, 58
6, 133955, Note_on_c, 9, 38, 0
6, 133955, Note_on_c, 9, 44, 82
6, 133955, Note_on_c, 9, 44, 0
6, 133956, Note_on_c, 9, 39, 37
6, 133986, Note_on_c, 9, 39, 0
6, 134089, Note_on_c, 9, 39, 39
6, 134117, Note_on_c, 9, 39, 0
6, 134207, Note_on_c, 9, 40, 45
6, 134251, Note_on_c, 9, 40, 0
6, 134331, Note_on_c, 9, 38, 58
6, 134335, Note_on_c, 9, 38, 0
6, 134335, Note_on_c, 9, 35, 35
6, 134339, Note_on_c, 9, 35, 0
6, 134350, Note_on_c, 9, 39, 53
6, 134378, Note_on_c, 9, 39, 0
6, 134483, Note_on_c, 9, 39, 50
6, 134511, Note_on_c, 9, 39, 0
6, 134587, Note_on_c, 9, 40, 60
6, 134603, Note_on_c, 9, 40, 0
6, 134715, Note_on_c, 9, 46, 62
6, 134719, Note_on_c, 9, 38, 77
6, 134719, Note_on_c, 9, 35, 35
6, 134731, Note_on_c, 9, 35, 0
6, 134731, Note_on_c, 9, 38, 0
6, 134731, Note_on_c, 9, 46, 0
6, 134739, Note_on_c, 9, 39, 59
6, 134777, Note_on_c, 9, 39, 0
6, 134853, Note_on_c, 9, 39, 69
6, 134904, Note_on_c, 9, 39, 0
6, 134975, Note_on_c, 9, 40, 60
6, 134978, Note_on_c, 9, 35, 71
6, 134987, Note_on_c, 9, 40, 0
6, 135099, Note_on_c, 9, 35, 35
6, 135103, Note_on_c, 9, 38, 58
6, 135107, Note_on_c, 9, 38, 0
6, 135107, Note_on_c, 9, 35, 0
6, 135128, Note_on_c, 9, 35, 0
6, 135355, Note_on_c, 9, 40, 60
6, 135375, Note_on_c, 9, 40, 0
6, 135483, Note_on_c, 9, 44, 82
6, 135487, Note_on_c, 9, 38, 58
6, 135491, Note_on_c, 9, 44, 0
6, 135491, Note_on_c, 9, 35, 35
6, 135491, Note_on_c, 9, 35, 0
6, 135495, Note_on_c, 9, 38, 0
6, 135743, Note_on_c, 9, 40, 60
6, 135755, Note_on_c, 9, 40, 0
6, 135867, Note_on_c, 9, 38, 58
6, 135871, Note_on_c, 9, 35, 35
6, 135879, Note_on_c, 9, 35, 0
6, 135879, Note_on_c, 9, 38, 0
6, 136127, Note_on_c, 9, 40, 60
6, 136139, Note_on_c, 9, 40, 0
6, 136251, Note_on_c, 9, 35, 35
6, 136255, Note_on_c, 9, 44, 82
6, 136259, Note_on_c, 9, 35, 0
6, 136259, Note_on_c, 9, 38, 77
6, 136263, Note_on_c, 9, 38, 0
6, 136263, Note_on_c, 9, 44, 0
6, 136484, Note_on_c, 9, 39, 61
6, 136507, Note_on_c, 9, 40, 60
6, 136523, Note_on_c, 9, 40, 0
6, 136543, Note_on_c, 9, 38, 81
6, 136551, Note_on_c, 9, 39, 0
6, 136587, Note_on_c, 9, 38, 0
6, 136639, Note_on_c, 9, 38, 81
6, 136639, Note_on_c, 9, 35, 35
6, 136643, Note_on_c, 9, 38, 58
6, 136647, Note_on_c, 9, 35, 0
6, 136647, Note_on_c, 9, 38, 0
6, 136647, Note_on_c, 9, 35, 44
6, 136683, Note_on_c, 9, 38, 0
6, 136819, Note_on_c, 9, 35, 0
6, 136891, Note_on_c, 9, 40, 60
6, 136901, Note_on_c, 9, 35, 49
6, 136907, Note_on_c, 9, 40, 0
6, 136944, Note_on_c, 9, 35, 0
6, 137019, Note_on_c, 9, 35, 35
6, 137023, Note_on_c, 9, 38, 58
6, 137027, Note_on_c, 9, 44, 82
6, 137035, Note_on_c, 9, 44, 0
6, 137035, Note_on_c, 9, 38, 0
6, 137035, Note_on_c, 9, 35, 0
6, 137275, Note_on_c, 9, 40, 60
6, 137291, Note_on_c, 9, 40, 0
6, 137403, Note_on_c, 9, 35, 35
6, 137407, Note_on_c, 9, 38, 58
6, 137407, Note_on_c, 9, 38, 0
6, 137415, Note_on_c, 9, 35, 0
6, 137663, Note_on_c, 9, 40, 60
6, 137675, Note_on_c, 9, 40, 0
6, 137787, Note_on_c, 9, 44, 82
6, 137791, Note_on_c, 9, 35, 35
6, 137795, Note_on_c, 9, 38, 77
6, 137799, Note_on_c, 9, 38, 0
6, 137799, Note_on_c, 9, 35, 0
6, 137799, Note_on_c, 9, 44, 0
6, 138043, Note_on_c, 9, 40, 60
6, 138051, Note_on_c, 9, 40, 0
6, 138051, Note_on_c, 9, 35, 66
6, 138085, Note_on_c, 9, 35, 0
6, 138171, Note_on_c, 9, 38, 58
6, 138175, Note_on_c, 9, 35, 35
6, 138179, Note_on_c, 9, 35, 0
6, 138179, Note_on_c, 9, 38, 0
6, 138427, Note_on_c, 9, 40, 60
6, 138443, Note_on_c, 9, 40, 0
6, 138555, Note_on_c, 9, 44, 82
6, 138555, Note_on_c, 9, 35, 35
6, 138559, Note_on_c, 9, 38, 58
6, 138571, Note_on_c, 9, 38, 0
6, 138575, Note_on_c, 9, 35, 0
6, 138579, Note_on_c, 9, 44, 0
6, 138811, Note_on_c, 9, 40, 60
6, 138827, Note_on_c, 9, 40, 0
6, 138939, Note_on_c, 9, 38, 58
6, 138939, Note_on_c, 9, 35, 35
6, 138947, Note_on_c, 9, 35, 0
6, 138947, Note_on_c, 9, 38, 0
6, 139195, Note_on_c, 9, 40, 60
6, 139215, Note_on_c, 9, 40, 0
6, 139327, Note_on_c, 9, 38, 77
6, 139327, Note_on_c, 9, 44, 82
6, 139327, Note_on_c, 9, 35, 35
6, 139343, Note_on_c, 9, 35, 0
6, 139343, Note_on_c, 9, 44, 0
6, 139343, Note_on_c, 9, 38, 0
6, 139583, Note_on_c, 9, 40, 60
6, 139584, Note_on_c, 9, 35, 51
6, 139595, Note_on_c, 9, 40, 0
6, 139625, Note_on_c, 9, 35, 0
6, 139711, Note_on_c, 9, 38, 58
6, 139711, Note_on_c, 9, 35, 35
6, 139715, Note_on_c, 9, 35, 0
6, 139719, Note_on_c, 9, 38, 0
6, 139963, Note_on_c, 9, 40, 60
6, 139975, Note_on_c, 9, 35, 47
6, 139983, Note_on_c, 9, 40, 0
6, 140032, Note_on_c, 9, 35, 0
6, 140091, Note_on_c, 9, 38, 58
6, 140095, Note_on_c, 9, 44, 82
6, 140095, Note_on_c, 9, 35, 35
6, 140111, Note_on_c, 9, 35, 0
6, 140111, Note_on_c, 9, 44, 0
6, 140111, Note_on_c, 9, 38, 0
6, 140347, Note_on_c, 9, 40, 60
6, 140363, Note_on_c, 9, 40, 0
6, 140475, Note_on_c, 9, 38, 58
6, 140479, Note_on_c, 9, 35, 35
6, 140483, Note_on_c, 9, 35, 0
6, 140487, Note_on_c, 9, 38, 0
6, 140731, Note_on_c, 9, 40, 60
6, 140751, Note_on_c, 9, 40, 0
6, 140863, Note_on_c, 9, 38, 77
6, 140867, Note_on_c, 9, 44, 82
6, 140867, Note_on_c, 9, 35, 35
6, 140875, Note_on_c, 9, 44, 0
6, 140875, Note_on_c, 9, 38, 0
6, 140879, Note_on_c, 9, 35, 0
6, 141115, Note_on_c, 9, 40, 60
6, 141135, Note_on_c, 9, 40, 0
6, 141247, Note_on_c, 9, 38, 58
6, 141247, Note_on_c, 9, 35, 35
6, 141255, Note_on_c, 9, 35, 0
6, 141255, Note_on_c, 9, 38, 0
6, 141499, Note_on_c, 9, 40, 60
6, 141519, Note_on_c, 9, 40, 0
6, 141627, Note_on_c, 9, 38, 58
6, 141635, Note_on_c, 9, 44, 82
6, 141635, Note_on_c, 9, 35, 35
6, 141639, Note_on_c, 9, 35, 0
6, 141643, Note_on_c, 9, 44, 0
6, 141643, Note_on_c, 9, 38, 0
6, 141883, Note_on_c, 9, 40, 60
6, 141899, Note_on_c, 9, 40, 0
6, 141915, Note_on_c, 9, 35, 45
6, 142010, Note_on_c, 9, 35, 0
6, 142011, Note_on_c, 9, 38, 58
6, 142023, Note_on_c, 9, 38, 0
6, 142069, Note_on_c, 9, 35, 37
6, 142259, Note_on_c, 9, 35, 0
6, 142267, Note_on_c, 9, 40, 60
6, 142283, Note_on_c, 9, 40, 0
6, 142286, Note_on_c, 9, 36, 64
6, 142308, Note_on_c, 9, 35, 35
6, 142367, Note_on_c, 9, 36, 0
6, 142373, Note_on_c, 9, 35, 0
6, 142395, Note_on_c, 9, 38, 77
6, 142395, Note_on_c, 9, 35, 35
6, 142399, Note_on_c, 9, 44, 82
6, 142403, Note_on_c, 9, 44, 0
6, 142407, Note_on_c, 9, 35, 0
6, 142407, Note_on_c, 9, 38, 0
6, 142419, Note_on_c, 9, 36, 46
6, 142556, Note_on_c, 9, 36, 0
6, 142651, Note_on_c, 9, 40, 60
6, 142659, Note_on_c, 9, 40, 0
6, 142779, Note_on_c, 9, 38, 58
6, 142783, Note_on_c, 9, 35, 35
6, 142795, Note_on_c, 9, 35, 0
6, 142795, Note_on_c, 9, 38, 0
6, 143039, Note_on_c, 9, 40, 60
6, 143051, Note_on_c, 9, 40, 0
6, 143163, Note_on_c, 9, 35, 35
6, 143167, Note_on_c, 9, 38, 58
6, 143171, Note_on_c, 9, 38, 0
6, 143171, Note_on_c, 9, 44, 82
6, 143171, Note_on_c, 9, 44, 0
6, 143175, Note_on_c, 9, 35, 0
6, 143423, Note_on_c, 9, 40, 60
6, 143435, Note_on_c, 9, 40, 0
6, 143547, Note_on_c, 9, 38, 58
6, 143547, Note_on_c, 9, 35, 35
6, 143551, Note_on_c, 9, 38, 0
6, 143555, Note_on_c, 9, 35, 0
6, 143803, Note_on_c, 9, 40, 60
6, 143807, Note_on_c, 9, 40, 0
6, 143812, Note_on_c, 9, 36, 36
6, 143846, Note_on_c, 9, 36, 0
6, 143935, Note_on_c, 9, 38, 77
6, 143935, Note_on_c, 9, 46, 62
6, 143935, Note_on_c, 9, 35, 35
6, 143943, Note_on_c, 9, 35, 0
6, 143943, Note_on_c, 9, 46, 0
6, 143943, Note_on_c, 9, 38, 0
6, 144187, Note_on_c, 9, 40, 60
6, 144203, Note_on_c, 9, 40, 0
6, 144323, Note_on_c, 9, 38, 58
6, 144323, Note_on_c, 9, 35, 30
6, 144331, Note_on_c, 9, 35, 0
6, 144335, Note_on_c, 9, 38, 0
6, 144571, Note_on_c, 9, 40, 45
6, 144619, Note_on_c, 9, 40, 0
6, 144707, Note_on_c, 9, 44, 82
6, 144715, Note_on_c, 9, 38, 58
6, 144715, Note_on_c, 9, 35, 35
6, 144723, Note_on_c, 9, 35, 0
6, 144723, Note_on_c, 9, 38, 0
6, 144723, Note_on_c, 9, 44, 0
6, 144963, Note_on_c, 9, 40, 45
6, 145011, Note_on_c, 9, 40, 0
6, 145091, Note_on_c, 9, 38, 58
6, 145091, Note_on_c, 9, 35, 35
6, 145107, Note_on_c, 9, 35, 0
6, 145107, Note_on_c, 9, 38, 0
6, 145339, Note_on_c, 9, 40, 45
6, 145339, Note_on_c, 9, 39, 59
6, 145366, Note_on_c, 9, 39, 0
6, 145387, Note_on_c, 9, 40, 0
6, 145467, Note_on_c, 9, 35, 35
6, 145479, Note_on_c, 9, 35, 0
6, 145479, Note_on_c, 9, 38, 77
6, 145479, Note_on_c, 9, 44, 82
6, 145483, Note_on_c, 9, 44, 0
6, 145483, Note_on_c, 9, 38, 0
6, 145718, Note_on_c, 9, 39, 64
6, 145723, Note_on_c, 9, 40, 45
6, 145754, Note_on_c, 9, 39, 0
6, 145771, Note_on_c, 9, 40, 0
6, 145855, Note_on_c, 9, 38, 58
6, 145855, Note_on_c, 9, 35, 35
6, 145859, Note_on_c, 9, 35, 0
6, 145859, Note_on_c, 9, 36, 40
6, 145863, Note_on_c, 9, 38, 0
6, 145917, Note_on_c, 9, 36, 0
6, 146095, Note_on_c, 9, 36, 58
6, 146107, Note_on_c, 9, 40, 45
6, 146155, Note_on_c, 9, 40, 0
6, 146167, Note_on_c, 9, 36, 0
6, 146239, Note_on_c, 9, 38, 58
6, 146239, Note_on_c, 9, 35, 35
6, 146243, Note_on_c, 9, 35, 0
6, 146243, Note_on_c, 9, 44, 82
6, 146251, Note_on_c, 9, 44, 0
6, 146251, Note_on_c, 9, 38, 0
6, 146491, Note_on_c, 9, 40, 45
6, 146539, Note_on_c, 9, 40, 0
6, 146623, Note_on_c, 9, 38, 58
6, 146623, Note_on_c, 9, 38, 0
6, 146627, Note_on_c, 9, 35, 35
6, 146631, Note_on_c, 9, 35, 0
6, 146810, Note_on_c, 9, 39, 61
6, 146850, Note_on_c, 9, 39, 0
6, 146879, Note_on_c, 9, 40, 60
6, 146891, Note_on_c, 9, 40, 0
6, 146927, Note_on_c, 9, 39, 60
6, 146982, Note_on_c, 9, 39, 0
6, 147007, Note_on_c, 9, 38, 77
6, 147007, Note_on_c, 9, 44, 82
6, 147007, Note_on_c, 9, 35, 35
6, 147019, Note_on_c, 9, 35, 0
6, 147019, Note_on_c, 9, 44, 0
6, 147019, Note_on_c, 9, 38, 0
6, 147025, Note_on_c, 9, 51, 48
6, 147090, Note_on_c, 9, 39, 59
6, 147123, Note_on_c, 9, 39, 0
6, 147123, Note_on_c, 9, 51, 0
6, 147259, Note_on_c, 9, 40, 60
6, 147265, Note_on_c, 9, 51, 83
6, 147275, Note_on_c, 9, 40, 0
6, 147313, Note_on_c, 9, 39, 79
6, 147335, Note_on_c, 9, 51, 0
6, 147367, Note_on_c, 9, 39, 0
6, 147391, Note_on_c, 9, 38, 58
6, 147391, Note_on_c, 9, 35, 35
6, 147395, Note_on_c, 9, 35, 0
6, 147395, Note_on_c, 9, 38, 0
6, 147455, Note_on_c, 9, 36, 46
6, 147491, Note_on_c, 9, 36, 0
6, 147643, Note_on_c, 9, 40, 60
6, 147659, Note_on_c, 9, 40, 0
6, 147771, Note_on_c, 9, 44, 82
6, 147775, Note_on_c, 9, 38, 58
6, 147783, Note_on_c, 9, 35, 35
6, 147783, Note_on_c, 9, 35, 0
6, 147787, Note_on_c, 9, 38, 0
6, 147787, Note_on_c, 9, 44, 0
6, 148027, Note_on_c, 9, 40, 60
6, 148043, Note_on_c, 9, 40, 0
6, 148159, Note_on_c, 9, 38, 58
6, 148159, Note_on_c, 9, 35, 35
6, 148163, Note_on_c, 9, 35, 0
6, 148167, Note_on_c, 9, 38, 0
6, 148411, Note_on_c, 9, 39, 74
6, 148415, Note_on_c, 9, 40, 60
6, 148431, Note_on_c, 9, 40, 0
6, 148460, Note_on_c, 9, 39, 0
6, 148543, Note_on_c, 9, 35, 35
6, 148547, Note_on_c, 9, 35, 0
6, 148547, Note_on_c, 9, 38, 77
6, 148547, Note_on_c, 9, 44, 82
6, 148551, Note_on_c, 9, 44, 0
6, 148551, Note_on_c, 9, 38, 0
6, 148555, Note_on_c, 9, 36, 32
6, 148606, Note_on_c, 9, 36, 0
6, 148783, Note_on_c, 9, 36, 53
6, 148799, Note_on_c, 9, 40, 60
6, 148803, Note_on_c, 9, 40, 0
6, 148825, Note_on_c, 9, 36, 0
6, 148827, Note_on_c, 9, 38, 81
6, 148871, Note_on_c, 9, 38, 0
6, 148923, Note_on_c, 9, 38, 81
6, 148927, Note_on_c, 9, 38, 58
6, 148927, Note_on_c, 9, 35, 35
6, 148931, Note_on_c, 9, 35, 0
6, 148935, Note_on_c, 9, 38, 0
6, 148971, Note_on_c, 9, 38, 0
6, 149179, Note_on_c, 9, 40, 60
6, 149187, Note_on_c, 9, 40, 0
6, 149307, Note_on_c, 9, 35, 35
6, 149311, Note_on_c, 9, 38, 58
6, 149315, Note_on_c, 9, 44, 82
6, 149315, Note_on_c, 9, 44, 0
6, 149319, Note_on_c, 9, 38, 0
6, 149319, Note_on_c, 9, 35, 0
6, 149567, Note_on_c, 9, 40, 60
6, 149579, Note_on_c, 9, 40, 0
6, 149691, Note_on_c, 9, 35, 35
6, 149695, Note_on_c, 9, 38, 58
6, 149695, Note_on_c, 9, 38, 0
6, 149699, Note_on_c, 9, 35, 0
6, 149947, Note_on_c, 9, 40, 60
6, 149967, Note_on_c, 9, 40, 0
6, 150075, Note_on_c, 9, 44, 82
6, 150079, Note_on_c, 9, 35, 35
6, 150083, Note_on_c, 9, 38, 77
6, 150091, Note_on_c, 9, 38, 0
6, 150091, Note_on_c, 9, 35, 0
6, 150091, Note_on_c, 9, 44, 0
6, 150310, Note_on_c, 9, 39, 58
6, 150335, Note_on_c, 9, 40, 60
6, 150347, Note_on_c, 9, 40, 0
6, 150398, Note_on_c, 9, 39, 0
6, 150432, Note_on_c, 9, 59, 67
6, 150463, Note_on_c, 9, 59, 0
6, 150463, Note_on_c, 9, 38, 58
6, 150463, Note_on_c, 9, 38, 0
6, 150466, Note_on_c, 9, 36, 45
6, 150503, Note_on_c, 9, 38, 58
6, 150523, Note_on_c, 9, 38, 0
6, 150529, Note_on_c, 9, 36, 0
6, 150715, Note_on_c, 9, 40, 45
6, 150763, Note_on_c, 9, 40, 0
6, 150851, Note_on_c, 9, 38, 58
6, 150851, Note_on_c, 9, 44, 82
6, 150851, Note_on_c, 9, 35, 35
6, 150855, Note_on_c, 9, 44, 0
6, 150859, Note_on_c, 9, 35, 0
6, 150863, Note_on_c, 9, 38, 0
6, 151107, Note_on_c, 9, 40, 45
6, 151155, Note_on_c, 9, 40, 0
6, 151235, Note_on_c, 9, 38, 58
6, 151235, Note_on_c, 9, 35, 35
6, 151251, Note_on_c, 9, 35, 0
6, 151251, Note_on_c, 9, 38, 0
6, 151469, Note_on_c, 9, 39, 67
6, 151483, Note_on_c, 9, 40, 45
6, 151527, Note_on_c, 9, 40, 0
6, 151540, Note_on_c, 9, 39, 0
6, 151615, Note_on_c, 9, 35, 35
6, 151619, Note_on_c, 9, 38, 77
6, 151619, Note_on_c, 9, 44, 82
6, 151621, Note_on_c, 9, 36, 45
6, 151623, Note_on_c, 9, 35, 0
6, 151627, Note_on_c, 9, 38, 0
6, 151627, Note_on_c, 9, 44, 0
6, 151796, Note_on_c, 9, 36, 0
6, 151865, Note_on_c, 9, 36, 62
6, 151867, Note_on_c, 9, 40, 45
6, 151900, Note_on_c, 9, 36, 0
6, 151915, Note_on_c, 9, 40, 0
6, 151999, Note_on_c, 9, 38, 58
6, 151999, Note_on_c, 9, 35, 35
6, 152003, Note_on_c, 9, 35, 0
6, 152007, Note_on_c, 9, 38, 0
6, 152251, Note_on_c, 9, 40, 45
6, 152299, Note_on_c, 9, 40, 0
6, 152383, Note_on_c, 9, 38, 58
6, 152383, Note_on_c, 9, 35, 35
6, 152383, Note_on_c, 9, 35, 0
6, 152387, Note_on_c, 9, 38, 0
6, 152387, Note_on_c, 9, 44, 82
6, 152387, Note_on_c, 9, 44, 0
6, 152635, Note_on_c, 9, 40, 45
6, 152683, Note_on_c, 9, 40, 0
6, 152763, Note_on_c, 9, 38, 58
6, 152767, Note_on_c, 9, 38, 0
6, 152767, Note_on_c, 9, 35, 35
6, 152771, Note_on_c, 9, 35, 0
6, 152912, Note_on_c, 9, 39, 62
6, 152977, Note_on_c, 9, 39, 0
6, 153019, Note_on_c, 9, 40, 60
6, 153023, Note_on_c, 9, 39, 72
6, 153039, Note_on_c, 9, 40, 0
6, 153074, Note_on_c, 9, 39, 0
6, 153151, Note_on_c, 9, 38, 77
6, 153151, Note_on_c, 9, 44, 82
6, 153155, Note_on_c, 9, 35, 35
6, 153163, Note_on_c, 9, 35, 0
6, 153167, Note_on_c, 9, 44, 0
6, 153167, Note_on_c, 9, 38, 0
6, 153403, Note_on_c, 9, 40, 60
6, 153411, Note_on_c, 9, 40, 0
6, 153531, Note_on_c, 9, 35, 35
6, 153535, Note_on_c, 9, 38, 58
6, 153543, Note_on_c, 9, 38, 0
6, 153543, Note_on_c, 9, 35, 0
6, 153787, Note_on_c, 9, 40, 60
6, 153803, Note_on_c, 9, 40, 0
6, 153915, Note_on_c, 9, 44, 82
6, 153919, Note_on_c, 9, 38, 58
6, 153923, Note_on_c, 9, 35, 35
6, 153927, Note_on_c, 9, 35, 0
6, 153927, Note_on_c, 9, 38, 0
6, 153927, Note_on_c, 9, 44, 0
6, 154171, Note_on_c, 9, 40, 60
6, 154187, Note_on_c, 9, 40, 0
6, 154299, Note_on_c, 9, 38, 58
6, 154303, Note_on_c, 9, 35, 35
6, 154307, Note_on_c, 9, 35, 0
6, 154311, Note_on_c, 9, 38, 0
6, 154437, Note_on_c, 9, 39, 56
6, 154478, Note_on_c, 9, 39, 0
6, 154552, Note_on_c, 9, 39, 53
6, 154555, Note_on_c, 9, 40, 60
6, 154575, Note_on_c, 9, 40, 0
6, 154602, Note_on_c, 9, 39, 0
6, 154681, Note_on_c, 9, 36, 66
6, 154683, Note_on_c, 9, 35, 35
6, 154687, Note_on_c, 9, 44, 82
6, 154691, Note_on_c, 9, 35, 0
6, 154691, Note_on_c, 9, 38, 77
6, 154695, Note_on_c, 9, 38, 0
6, 154695, Note_on_c, 9, 44, 0
6, 154786, Note_on_c, 9, 36, 0
6, 154943, Note_on_c, 9, 40, 60
6, 154951, Note_on_c, 9, 40, 0
6, 154975, Note_on_c, 9, 38, 81
6, 155019, Note_on_c, 9, 38, 0
6, 155071, Note_on_c, 9, 38, 81
6, 155071, Note_on_c, 9, 35, 35
6, 155075, Note_on_c, 9, 38, 58
6, 155083, Note_on_c, 9, 35, 0
6, 155083, Note_on_c, 9, 38, 0
6, 155111, Note_on_c, 9, 38, 0
6, 155327, Note_on_c, 9, 40, 60
6, 155339, Note_on_c, 9, 40, 0
6, 155451, Note_on_c, 9, 35, 35
6, 155455, Note_on_c, 9, 38, 58
6, 155455, Note_on_c, 9, 44, 82
6, 155459, Note_on_c, 9, 44, 0
6, 155463, Note_on_c, 9, 38, 0
6, 155463, Note_on_c, 9, 35, 0
6, 155707, Note_on_c, 9, 40, 60
6, 155718, Note_on_c, 9, 39, 44
6, 155723, Note_on_c, 9, 40, 0
6, 155746, Note_on_c, 9, 39, 0
6, 155835, Note_on_c, 9, 35, 35
6, 155839, Note_on_c, 9, 38, 58
6, 155843, Note_on_c, 9, 38, 0
6, 155843, Note_on_c, 9, 35, 0
6, 156091, Note_on_c, 9, 40, 60
6, 156095, Note_on_c, 9, 40, 0
6, 156100, Note_on_c, 9, 39, 74
6, 156156, Note_on_c, 9, 39, 0
6, 156219, Note_on_c, 9, 46, 62
6, 156223, Note_on_c, 9, 35, 35
6, 156227, Note_on_c, 9, 38, 77
6, 156231, Note_on_c, 9, 38, 0
6, 156231, Note_on_c, 9, 35, 0
6, 156231, Note_on_c, 9, 46, 0
6, 156235, Note_on_c, 9, 39, 47
6, 156303, Note_on_c, 9, 39, 0
6, 156479, Note_on_c, 9, 40, 60
6, 156495, Note_on_c, 9, 40, 0
6, 156607, Note_on_c, 9, 38, 58
6, 156611, Note_on_c, 9, 38, 0
6, 156647, Note_on_c, 9, 38, 58
6, 156647, Note_on_c, 9, 35, 30
6, 156655, Note_on_c, 9, 35, 0
6, 156667, Note_on_c, 9, 38, 0
6, 156859, Note_on_c, 9, 40, 45
6, 156907, Note_on_c, 9, 40, 0
6, 156995, Note_on_c, 9, 38, 58
6, 156995, Note_on_c, 9, 44, 82
6, 156995, Note_on_c, 9, 35, 35
6, 156999, Note_on_c, 9, 44, 0
6, 157003, Note_on_c, 9, 35, 0
6, 157007, Note_on_c, 9, 38, 0
6, 157251, Note_on_c, 9, 40, 45
6, 157299, Note_on_c, 9, 40, 0
6, 157379, Note_on_c, 9, 38, 58
6, 157379, Note_on_c, 9, 35, 35
6, 157395, Note_on_c, 9, 35, 0
6, 157395, Note_on_c, 9, 38, 0
6, 157618, Note_on_c, 9, 39, 80
6, 157627, Note_on_c, 9, 40, 45
6, 157671, Note_on_c, 9, 40, 0
6, 157723, Note_on_c, 9, 39, 0
6, 157759, Note_on_c, 9, 35, 35
6, 157763, Note_on_c, 9, 38, 77
6, 157763, Note_on_c, 9, 44, 82
6, 157767, Note_on_c, 9, 35, 0
6, 157771, Note_on_c, 9, 44, 0
6, 157771, Note_on_c, 9, 38, 0
6, 158011, Note_on_c, 9, 40, 45
6, 158059, Note_on_c, 9, 40, 0
6, 158143, Note_on_c, 9, 38, 58
6, 158143, Note_on_c, 9, 35, 35
6, 158147, Note_on_c, 9, 35, 0
6, 158151, Note_on_c, 9, 38, 0
6, 158395, Note_on_c, 9, 40, 45
6, 158443, Note_on_c, 9, 40, 0
6, 158527, Note_on_c, 9, 38, 58
6, 158527, Note_on_c, 9, 35, 35
6, 158527, Note_on_c, 9, 35, 0
6, 158531, Note_on_c, 9, 38, 0
6, 158531, Note_on_c, 9, 44, 82
6, 158531, Note_on_c, 9, 44, 0
6, 158765, Note_on_c, 9, 39, 69
6, 158779, Note_on_c, 9, 40, 45
6, 158822, Note_on_c, 9, 39, 0
6, 158827, Note_on_c, 9, 40, 0
6, 158907, Note_on_c, 9, 38, 58
6, 158911, Note_on_c, 9, 38, 0
6, 158911, Note_on_c, 9, 35, 35
6, 158915, Note_on_c, 9, 35, 0
6, 159163, Note_on_c, 9, 40, 60
6, 159183, Note_on_c, 9, 40, 0
6, 159295, Note_on_c, 9, 38, 77
6, 159295, Note_on_c, 9, 44, 82
6, 159299, Note_on_c, 9, 35, 35
6, 159307, Note_on_c, 9, 35, 0
6, 159311, Note_on_c, 9, 44, 0
6, 159311, Note_on_c, 9, 38, 0
6, 159534, Note_on_c, 9, 39, 77
6, 159547, Note_on_c, 9, 40, 60
6, 159555, Note_on_c, 9, 40, 0
6, 159588, Note_on_c, 9, 39, 0
6, 159675, Note_on_c, 9, 35, 35
6, 159679, Note_on_c, 9, 38, 58
6, 159687, Note_on_c, 9, 38, 0
6, 159687, Note_on_c, 9, 35, 0
6, 159931, Note_on_c, 9, 40, 60
6, 159932, Note_on_c, 9, 36, 68
6, 159947, Note_on_c, 9, 40, 0
6, 160022, Note_on_c, 9, 36, 0
6, 160059, Note_on_c, 9, 44, 82
6, 160063, Note_on_c, 9, 38, 58
6, 160067, Note_on_c, 9, 35, 35
6, 160071, Note_on_c, 9, 35, 0
6, 160071, Note_on_c, 9, 38, 0
6, 160071, Note_on_c, 9, 44, 0
6, 160315, Note_on_c, 9, 40, 60
6, 160331, Note_on_c, 9, 40, 0
6, 160443, Note_on_c, 9, 38, 58
6, 160447, Note_on_c, 9, 35, 35
6, 160451, Note_on_c, 9, 35, 0
6, 160455, Note_on_c, 9, 38, 0
6, 160679, Note_on_c, 9, 39, 73
6, 160699, Note_on_c, 9, 40, 60
6, 160719, Note_on_c, 9, 40, 0
6, 160738, Note_on_c, 9, 39, 0
6, 160807, Note_on_c, 9, 36, 45
6, 160827, Note_on_c, 9, 35, 35
6, 160831, Note_on_c, 9, 44, 82
6, 160835, Note_on_c, 9, 35, 0
6, 160835, Note_on_c, 9, 38, 77
6, 160839, Note_on_c, 9, 38, 0
6, 160839, Note_on_c, 9, 44, 0
6, 160905, Note_on_c, 9, 36, 0
6, 161075, Note_on_c, 9, 36, 66
6, 161087, Note_on_c, 9, 40, 60
6, 161095, Note_on_c, 9, 40, 0
6, 161119, Note_on_c, 9, 38, 81
6, 161143, Note_on_c, 9, 36, 0
6, 161163, Note_on_c, 9, 38, 0
6, 161215, Note_on_c, 9, 38, 81
6, 161215, Note_on_c, 9, 35, 35
6, 161219, Note_on_c, 9, 38, 58
6, 161227, Note_on_c, 9, 35, 0
6, 161227, Note_on_c, 9, 38, 0
6, 161255, Note_on_c, 9, 38, 0
6, 161471, Note_on_c, 9, 40, 60
6, 161483, Note_on_c, 9, 40, 0
6, 161595, Note_on_c, 9, 35, 35
6, 161599, Note_on_c, 9, 38, 58
6, 161599, Note_on_c, 9, 44, 82
6, 161603, Note_on_c, 9, 44, 0
6, 161607, Note_on_c, 9, 38, 0
6, 161607, Note_on_c, 9, 35, 0
6, 161851, Note_on_c, 9, 40, 60
6, 161856, Note_on_c, 9, 39, 55
6, 161867, Note_on_c, 9, 40, 0
6, 161906, Note_on_c, 9, 39, 0
6, 161979, Note_on_c, 9, 35, 35
6, 161983, Note_on_c, 9, 38, 58
6, 161987, Note_on_c, 9, 38, 0
6, 161987, Note_on_c, 9, 35, 0
6, 162235, Note_on_c, 9, 40, 60
6, 162239, Note_on_c, 9, 40, 0
6, 162243, Note_on_c, 9, 36, 54
6, 162278, Note_on_c, 9, 36, 0
6, 162363, Note_on_c, 9, 46, 62
6, 162367, Note_on_c, 9, 35, 35
6, 162371, Note_on_c, 9, 38, 77
6, 162375, Note_on_c, 9, 38, 0
6, 162375, Note_on_c, 9, 35, 0
6, 162375, Note_on_c, 9, 46, 0
6, 162623, Note_on_c, 9, 40, 60
6, 162639, Note_on_c, 9, 40, 0
6, 162751, Note_on_c, 9, 38, 58
6, 162751, Note_on_c, 9, 35, 35
6, 162755, Note_on_c, 9, 38, 0
6, 162759, Note_on_c, 9, 35, 0
6, 163007, Note_on_c, 9, 40, 60
6, 163019, Note_on_c, 9, 40, 0
6, 163135, Note_on_c, 9, 44, 82
6, 163135, Note_on_c, 9, 35, 35
6, 163139, Note_on_c, 9, 38, 58
6, 163147, Note_on_c, 9, 38, 0
6, 163151, Note_on_c, 9, 35, 0
6, 163151, Note_on_c, 9, 44, 0
6, 163387, Note_on_c, 9, 40, 60
6, 163403, Note_on_c, 9, 40, 0
6, 163507, Note_on_c, 9, 39, 35
6, 163515, Note_on_c, 9, 38, 58
6, 163519, Note_on_c, 9, 35, 35
6, 163523, Note_on_c, 9, 38, 0
6, 163527, Note_on_c, 9, 35, 0
6, 163539, Note_on_c, 9, 39, 0
6, 163648, Note_on_c, 9, 39, 50
6, 163687, Note_on_c, 9, 39, 0
6, 163771, Note_on_c, 9, 40, 60
6, 163787, Note_on_c, 9, 40, 0
6, 163903, Note_on_c, 9, 38, 77
6, 163903, Note_on_c, 9, 44, 82
6, 163903, Note_on_c, 9, 35, 35
6, 163915, Note_on_c, 9, 35, 0
6, 163919, Note_on_c, 9, 44, 0
6, 163923, Note_on_c, 9, 38, 0
6, 164155, Note_on_c, 9, 40, 60
6, 164156, Note_on_c, 9, 36, 62
6, 164171, Note_on_c, 9, 40, 0
6, 164200, Note_on_c, 9, 36, 0
6, 164283, Note_on_c, 9, 38, 58
6, 164287, Note_on_c, 9, 35, 35
6, 164295, Note_on_c, 9, 35, 0
6, 164299, Note_on_c, 9, 38, 0
6, 164539, Note_on_c, 9, 40, 60
6, 164555, Note_on_c, 9, 40, 0
6, 164667, Note_on_c, 9, 38, 58
6, 164671, Note_on_c, 9, 44, 82
6, 164671, Note_on_c, 9, 35, 35
6, 164679, Note_on_c, 9, 44, 0
6, 164683, Note_on_c, 9, 35, 0
6, 164683, Note_on_c, 9, 38, 0
6, 164927, Note_on_c, 9, 40, 60
6, 164939, Note_on_c, 9, 40, 0
6, 165055, Note_on_c, 9, 38, 58
6, 165055, Note_on_c, 9, 35, 35
6, 165063, Note_on_c, 9, 35, 0
6, 165063, Note_on_c, 9, 38, 0
6, 165307, Note_on_c, 9, 40, 60
6, 165323, Note_on_c, 9, 40, 0
6, 165419, Note_on_c, 9, 39, 45
6, 165435, Note_on_c, 9, 38, 77
6, 165439, Note_on_c, 9, 44, 82
6, 165439, Note_on_c, 9, 35, 35
6, 165446, Note_on_c, 9, 39, 0
6, 165451, Note_on_c, 9, 38, 0
6, 165451, Note_on_c, 9, 44, 0
6, 165451, Note_on_c, 9, 35, 0
6, 165529, Note_on_c, 9, 39, 35
6, 165560, Note_on_c, 9, 39, 0
6, 165683, Note_on_c, 9, 36, 65
6, 165691, Note_on_c, 9, 40, 60
6, 165703, Note_on_c, 9, 40, 0
6, 165780, Note_on_c, 9, 36, 0
6, 165819, Note_on_c, 9, 38, 58
6, 165823, Note_on_c, 9, 35, 35
6, 165827, Note_on_c, 9, 35, 0
6, 165827, Note_on_c, 9, 38, 0
6, 166075, Note_on_c, 9, 40, 60
6, 166083, Note_on_c, 9, 40, 0
6, 166207, Note_on_c, 9, 38, 58
6, 166207, Note_on_c, 9, 44, 82
6, 166211, Note_on_c, 9, 35, 35
6, 166215, Note_on_c, 9, 35, 0
6, 166215, Note_on_c, 9, 44, 0
6, 166215, Note_on_c, 9, 38, 0
6, 166459, Note_on_c, 9, 40, 60
6, 166479, Note_on_c, 9, 40, 0
6, 166587, Note_on_c, 9, 35, 35
6, 166591, Note_on_c, 9, 38, 58
6, 166599, Note_on_c, 9, 38, 0
6, 166599, Note_on_c, 9, 35, 0
6, 166599, Note_on_c, 9, 39, 52
6, 166672, Note_on_c, 9, 39, 0
6, 166790, Note_on_c, 9, 36, 69
6, 166847, Note_on_c, 9, 40, 60
6, 166855, Note_on_c, 9, 40, 0
6, 166880, Note_on_c, 9, 36, 0
6, 166975, Note_on_c, 9, 38, 77
6, 166975, Note_on_c, 9, 35, 35
6, 166979, Note_on_c, 9, 44, 82
6, 166987, Note_on_c, 9, 44, 0
6, 166991, Note_on_c, 9, 35, 0
6, 166991, Note_on_c, 9, 38, 0
6, 167227, Note_on_c, 9, 40, 60
6, 167243, Note_on_c, 9, 40, 0
6, 167355, Note_on_c, 9, 38, 58
6, 167355, Note_on_c, 9, 35, 35
6, 167363, Note_on_c, 9, 35, 0
6, 167363, Note_on_c, 9, 38, 0
6, 167591, Note_on_c, 9, 39, 65
6, 167611, Note_on_c, 9, 40, 60
6, 167619, Note_on_c, 9, 40, 0
6, 167651, Note_on_c, 9, 39, 0
6, 167715, Note_on_c, 9, 36, 33
6, 167743, Note_on_c, 9, 38, 58
6, 167743, Note_on_c, 9, 44, 82
6, 167743, Note_on_c, 9, 35, 35
6, 167751, Note_on_c, 9, 35, 0
6, 167751, Note_on_c, 9, 44, 0
6, 167751, Note_on_c, 9, 38, 0
6, 167753, Note_on_c, 9, 36, 0
6, 167995, Note_on_c, 9, 40, 60
6, 168015, Note_on_c, 9, 40, 0
6, 168123, Note_on_c, 9, 35, 35
6, 168127, Note_on_c, 9, 38, 58
6, 168131, Note_on_c, 9, 38, 0
6, 168131, Note_on_c, 9, 35, 0
6, 168383, Note_on_c, 9, 40, 60
6, 168395, Note_on_c, 9, 40, 0
6, 168511, Note_on_c, 9, 46, 62
6, 168511, Note_on_c, 9, 35, 35
6, 168515, Note_on_c, 9, 38, 77
6, 168523, Note_on_c, 9, 38, 0
6, 168527, Note_on_c, 9, 35, 0
6, 168527, Note_on_c, 9, 46, 0
6, 168767, Note_on_c, 9, 40, 60
6, 168779, Note_on_c, 9, 40, 0
6, 168899, Note_on_c, 9, 38, 58
6, 168899, Note_on_c, 9, 35, 30
6, 168915, Note_on_c, 9, 35, 0
6, 168915, Note_on_c, 9, 38, 0
6, 169125, Note_on_c, 9, 39, 57
6, 169147, Note_on_c, 9, 40, 45
6, 169153, Note_on_c, 9, 39, 0
6, 169195, Note_on_c, 9, 40, 0
6, 169270, Note_on_c, 9, 39, 44
6, 169283, Note_on_c, 9, 38, 58
6, 169283, Note_on_c, 9, 44, 82
6, 169283, Note_on_c, 9, 35, 35
6, 169297, Note_on_c, 9, 39, 0
6, 169299, Note_on_c, 9, 35, 0
6, 169299, Note_on_c, 9, 44, 0
6, 169303, Note_on_c, 9, 38, 0
6, 169513, Note_on_c, 9, 36, 54
6, 169539, Note_on_c, 9, 40, 45
6, 169550, Note_on_c, 9, 36, 0
6, 169587, Note_on_c, 9, 40, 0
6, 169667, Note_on_c, 9, 38, 58
6, 169667, Note_on_c, 9, 35, 35
6, 169675, Note_on_c, 9, 35, 0
6, 169675, Note_on_c, 9, 38, 0
6, 169892, Note_on_c, 9, 39, 56
6, 169915, Note_on_c, 9, 40, 45
6, 169921, Note_on_c, 9, 39, 0
6, 169963, Note_on_c, 9, 40, 0
6, 170031, Note_on_c, 9, 39, 57
6, 170043, Note_on_c, 9, 35, 35
6, 170051, Note_on_c, 9, 38, 77
6, 170051, Note_on_c, 9, 44, 82
6, 170055, Note_on_c, 9, 35, 0
6, 170059, Note_on_c, 9, 39, 0
6, 170059, Note_on_c, 9, 38, 0
6, 170059, Note_on_c, 9, 44, 0
6, 170282, Note_on_c, 9, 36, 50
6, 170299, Note_on_c, 9, 40, 45
6, 170313, Note_on_c, 9, 36, 0
6, 170347, Note_on_c, 9, 40, 0
6, 170431, Note_on_c, 9, 38, 58
6, 170431, Note_on_c, 9, 35, 35
6, 170435, Note_on_c, 9, 35, 0
6, 170439, Note_on_c, 9, 38, 0
6, 170683, Note_on_c, 9, 40, 45
6, 170731, Note_on_c, 9, 40, 0
6, 170811, Note_on_c, 9, 35, 35
6, 170815, Note_on_c, 9, 38, 58
6, 170819, Note_on_c, 9, 35, 0
6, 170819, Note_on_c, 9, 44, 82
6, 170823, Note_on_c, 9, 44, 0
6, 170823, Note_on_c, 9, 38, 0
6, 171067, Note_on_c, 9, 40, 45
6, 171115, Note_on_c, 9, 40, 0
6, 171195, Note_on_c, 9, 38, 58
6, 171199, Note_on_c, 9, 38, 0
6, 171199, Note_on_c, 9, 35, 35
6, 171203, Note_on_c, 9, 35, 0
6, 171440, Note_on_c, 9, 39, 59
6, 171451, Note_on_c, 9, 40, 60
6, 171467, Note_on_c, 9, 40, 0
6, 171494, Note_on_c, 9, 39, 0
6, 171587, Note_on_c, 9, 38, 77
6, 171587, Note_on_c, 9, 44, 82
6, 171587, Note_on_c, 9, 35, 35
6, 171596, Note_on_c, 9, 39, 36
6, 171599, Note_on_c, 9, 35, 0
6, 171599, Note_on_c, 9, 38, 0
6, 171599, Note_on_c, 9, 44, 0
6, 171632, Note_on_c, 9, 39, 0
6, 171830, Note_on_c, 9, 36, 66
6, 171835, Note_on_c, 9, 40, 60
6, 171855, Note_on_c, 9, 40, 0
6, 171892, Note_on_c, 9, 36, 0
6, 171963, Note_on_c, 9, 38, 58
6, 171963, Note_on_c, 9, 35, 35
6, 171971, Note_on_c, 9, 38, 0
6, 171975, Note_on_c, 9, 35, 0
6, 172002, Note_on_c, 9, 39, 29
6, 172102, Note_on_c, 9, 39, 0
6, 172223, Note_on_c, 9, 40, 60
6, 172227, Note_on_c, 9, 40, 0
6, 172227, Note_on_c, 9, 39, 69
6, 172284, Note_on_c, 9, 39, 0
6, 172347, Note_on_c, 9, 38, 58
6, 172347, Note_on_c, 9, 44, 82
6, 172355, Note_on_c, 9, 35, 35
6, 172359, Note_on_c, 9, 35, 0
6, 172359, Note_on_c, 9, 44, 0
6, 172359, Note_on_c, 9, 38, 0
6, 172603, Note_on_c, 9, 40, 60
6, 172619, Note_on_c, 9, 40, 0
6, 172735, Note_on_c, 9, 38, 58
6, 172735, Note_on_c, 9, 35, 35
6, 172743, Note_on_c, 9, 35, 0
6, 172743, Note_on_c, 9, 38, 0
6, 172987, Note_on_c, 9, 40, 60
6, 172991, Note_on_c, 9, 39, 67
6, 173003, Note_on_c, 9, 40, 0
6, 173089, Note_on_c, 9, 39, 0
6, 173115, Note_on_c, 9, 35, 35
6, 173119, Note_on_c, 9, 44, 82
6, 173123, Note_on_c, 9, 35, 0
6, 173123, Note_on_c, 9, 38, 77
6, 173127, Note_on_c, 9, 38, 0
6, 173127, Note_on_c, 9, 44, 0
6, 173154, Note_on_c, 9, 36, 48
6, 173283, Note_on_c, 9, 36, 0
6, 173371, Note_on_c, 9, 40, 60
6, 173389, Note_on_c, 9, 36, 51
6, 173391, Note_on_c, 9, 40, 0
6, 173407, Note_on_c, 9, 38, 81
6, 173451, Note_on_c, 9, 38, 0
6, 173466, Note_on_c, 9, 36, 0
6, 173499, Note_on_c, 9, 38, 81
6, 173503, Note_on_c, 9, 35, 35
6, 173507, Note_on_c, 9, 38, 58
6, 173511, Note_on_c, 9, 35, 0
6, 173511, Note_on_c, 9, 38, 0
6, 173547, Note_on_c, 9, 38, 0
6, 173755, Note_on_c, 9, 40, 60
6, 173771, Note_on_c, 9, 40, 0
6, 173883, Note_on_c, 9, 38, 58
6, 173883, Note_on_c, 9, 35, 35
6, 173891, Note_on_c, 9, 44, 82
6, 173895, Note_on_c, 9, 44, 0
6, 173895, Note_on_c, 9, 35, 0
6, 173895, Note_on_c, 9, 38, 0
6, 174143, Note_on_c, 9, 40, 60
6, 174159, Note_on_c, 9, 40, 0
6, 174267, Note_on_c, 9, 38, 58
6, 174267, Note_on_c, 9, 35, 35
6, 174271, Note_on_c, 9, 38, 0
6, 174275, Note_on_c, 9, 35, 0
6, 174523, Note_on_c, 9, 40, 60
6, 174539, Note_on_c, 9, 40, 0
6, 174651, Note_on_c, 9, 44, 82
6, 174651, Note_on_c, 9, 35, 35
6, 174659, Note_on_c, 9, 38, 77
6, 174663, Note_on_c, 9, 38, 0
6, 174663, Note_on_c, 9, 35, 0
6, 174663, Note_on_c, 9, 44, 0
6, 174907, Note_on_c, 9, 40, 60
6, 174919, Note_on_c, 9, 40, 0
6, 175035, Note_on_c, 9, 38, 58
6, 175039, Note_on_c, 9, 35, 35
6, 175043, Note_on_c, 9, 35, 0
6, 175043, Note_on_c, 9, 38, 0
6, 175291, Note_on_c, 9, 40, 60
6, 175311, Note_on_c, 9, 40, 0
6, 175419, Note_on_c, 9, 38, 58
6, 175419, Note_on_c, 9, 44, 82
6, 175419, Note_on_c, 9, 35, 35
6, 175431, Note_on_c, 9, 38, 0
6, 175435, Note_on_c, 9, 35, 0
6, 175435, Note_on_c, 9, 44, 0
6, 175679, Note_on_c, 9, 40, 60
6, 175679, Note_on_c, 9, 40, 0
6, 175807, Note_on_c, 9, 38, 58
6, 175807, Note_on_c, 9, 35, 35
6, 175811, Note_on_c, 9, 38, 0
6, 175815, Note_on_c, 9, 35, 0
6, 176063, Note_on_c, 9, 40, 60
6, 176075, Note_on_c, 9, 40, 0
6, 176187, Note_on_c, 9, 44, 82
6, 176191, Note_on_c, 9, 38, 77
6, 176191, Note_on_c, 9, 35, 35
6, 176203, Note_on_c, 9, 35, 0
6, 176207, Note_on_c, 9, 38, 0
6, 176207, Note_on_c, 9, 44, 0
6, 176443, Note_on_c, 9, 40, 60
6, 176459, Note_on_c, 9, 40, 0
6, 176482, Note_on_c, 9, 36, 32
6, 176513, Note_on_c, 9, 36, 0
6, 176571, Note_on_c, 9, 38, 58
6, 176575, Note_on_c, 9, 35, 35
6, 176579, Note_on_c, 9, 35, 0
6, 176579, Note_on_c, 9, 38, 0
6, 176629, Note_on_c, 9, 59, 22
6, 176701, Note_on_c, 9, 59, 0
6, 176827, Note_on_c, 9, 40, 60
6, 176838, Note_on_c, 9, 59, 73
6, 176843, Note_on_c, 9, 40, 0
6, 176866, Note_on_c, 9, 59, 0
6, 176959, Note_on_c, 9, 38, 58
6, 176959, Note_on_c, 9, 44, 82
6, 176959, Note_on_c, 9, 35, 35
6, 176975, Note_on_c, 9, 44, 0
6, 176975, Note_on_c, 9, 38, 0
6, 176979, Note_on_c, 9, 35, 0
6, 177211, Note_on_c, 9, 40, 60
6, 177231, Note_on_c, 9, 40, 0
6, 177339, Note_on_c, 9, 38, 58
6, 177347, Note_on_c, 9, 35, 35
6, 177351, Note_on_c, 9, 35, 0
6, 177351, Note_on_c, 9, 38, 0
6, 177599, Note_on_c, 9, 40, 60
6, 177613, Note_on_c, 9, 38, 90
6, 177615, Note_on_c, 9, 40, 0
6, 177648, Note_on_c, 9, 38, 0
6, 177727, Note_on_c, 9, 38, 77
6, 177727, Note_on_c, 9, 44, 82
6, 177727, Note_on_c, 9, 35, 35
6, 177739, Note_on_c, 9, 44, 0
6, 177743, Note_on_c, 9, 35, 0
6, 177743, Note_on_c, 9, 38, 0
6, 177979, Note_on_c, 9, 40, 60
6, 177986, Note_on_c, 9, 39, 59
6, 177995, Note_on_c, 9, 40, 0
6, 178025, Note_on_c, 9, 39, 0
6, 178107, Note_on_c, 9, 38, 58
6, 178111, Note_on_c, 9, 35, 35
6, 178119, Note_on_c, 9, 35, 0
6, 178119, Note_on_c, 9, 38, 0
6, 178128, Note_on_c, 9, 39, 51
6, 178219, Note_on_c, 9, 39, 0
6, 178363, Note_on_c, 9, 40, 60
6, 178374, Note_on_c, 9, 39, 53
6, 178379, Note_on_c, 9, 40, 0
6, 178403, Note_on_c, 9, 39, 0
6, 178491, Note_on_c, 9, 38, 58
6, 178491, Note_on_c, 9, 44, 82
6, 178503, Note_on_c, 9, 44, 0
6, 178503, Note_on_c, 9, 38, 0
6, 178503, Note_on_c, 9, 35, 35
6, 178503, Note_on_c, 9, 35, 0
6, 178510, Note_on_c, 9, 36, 13
6, 178585, Note_on_c, 9, 36, 0
6, 178747, Note_on_c, 9, 40, 60
6, 178755, Note_on_c, 9, 36, 55
6, 178767, Note_on_c, 9, 40, 0
6, 178788, Note_on_c, 9, 36, 0
6, 178875, Note_on_c, 9, 35, 35
6, 178879, Note_on_c, 9, 38, 58
6, 178887, Note_on_c, 9, 38, 0
6, 178887, Note_on_c, 9, 35, 0
6, 178898, Note_on_c, 9, 36, 53
6, 178988, Note_on_c, 9, 36, 0
6, 179131, Note_on_c, 9, 40, 60
6, 179151, Note_on_c, 9, 40, 0
6, 179259, Note_on_c, 9, 38, 77
6, 179263, Note_on_c, 9, 35, 35
6, 179267, Note_on_c, 9, 46, 62
6, 179279, Note_on_c, 9, 46, 0
6, 179279, Note_on_c, 9, 35, 0
6, 179279, Note_on_c, 9, 38, 0
6, 179519, Note_on_c, 9, 40, 60
6, 179531, Note_on_c, 9, 40, 0
6, 179647, Note_on_c, 9, 38, 58
6, 179647, Note_on_c, 9, 35, 35
6, 179655, Note_on_c, 9, 35, 0
6, 179655, Note_on_c, 9, 38, 0
6, 179899, Note_on_c, 9, 40, 60
6, 179915, Note_on_c, 9, 40, 0
6, 180027, Note_on_c, 9, 38, 58
6, 180027, Note_on_c, 9, 35, 35
6, 180035, Note_on_c, 9, 44, 82
6, 180039, Note_on_c, 9, 44, 0
6, 180043, Note_on_c, 9, 35, 0
6, 180043, Note_on_c, 9, 38, 0
6, 180283, Note_on_c, 9, 40, 60
6, 180295, Note_on_c, 9, 40, 0
6, 180415, Note_on_c, 9, 38, 58
6, 180415, Note_on_c, 9, 35, 35
6, 180419, Note_on_c, 9, 35, 0
6, 180419, Note_on_c, 9, 38, 0
6, 180558, Note_on_c, 9, 40, 40
6, 180592, Note_on_c, 9, 40, 0
6, 180660, Note_on_c, 9, 40, 51
6, 180667, Note_on_c, 9, 40, 60
6, 180687, Note_on_c, 9, 40, 0
6, 180693, Note_on_c, 9, 40, 0
6, 180803, Note_on_c, 9, 38, 77
6, 180803, Note_on_c, 9, 44, 82
6, 180803, Note_on_c, 9, 35, 35
6, 180815, Note_on_c, 9, 35, 0
6, 180815, Note_on_c, 9, 44, 0
6, 180815, Note_on_c, 9, 38, 0
6, 180830, Note_on_c, 9, 36, 38
6, 180869, Note_on_c, 9, 36, 0
6, 181051, Note_on_c, 9, 40, 60
6, 181059, Note_on_c, 9, 46, 97
6, 181071, Note_on_c, 9, 40, 0
6, 181097, Note_on_c, 9, 46, 0
6, 181187, Note_on_c, 9, 38, 58
6, 181187, Note_on_c, 9, 35, 30
6, 181203, Note_on_c, 9, 35, 0
6, 181203, Note_on_c, 9, 38, 0
6, 181435, Note_on_c, 9, 40, 45
6, 181448, Note_on_c, 9, 37, 36
6, 181481, Note_on_c, 9, 37, 0
6, 181483, Note_on_c, 9, 40, 0
6, 181571, Note_on_c, 9, 38, 58
6, 181571, Note_on_c, 9, 44, 82
6, 181571, Note_on_c, 9, 35, 35
6, 181587, Note_on_c, 9, 35, 0
6, 181587, Note_on_c, 9, 44, 0
6, 181587, Note_on_c, 9, 38, 0
6, 181827, Note_on_c, 9, 40, 45
6, 181875, Note_on_c, 9, 40, 0
6, 181955, Note_on_c, 9, 38, 58
6, 181955, Note_on_c, 9, 35, 35
6, 181971, Note_on_c, 9, 35, 0
6, 181971, Note_on_c, 9, 38, 0
6, 182203, Note_on_c, 9, 40, 45
6, 182251, Note_on_c, 9, 40, 0
6, 182331, Note_on_c, 9, 35, 35
6, 182339, Note_on_c, 9, 38, 77
6, 182339, Note_on_c, 9, 44, 82
6, 182343, Note_on_c, 9, 35, 0
6, 182347, Note_on_c, 9, 44, 0
6, 182347, Note_on_c, 9, 38, 0
6, 182587, Note_on_c, 9, 40, 45
6, 182593, Note_on_c, 9, 39, 77
6, 182635, Note_on_c, 9, 40, 0
6, 182652, Note_on_c, 9, 39, 0
6, 182715, Note_on_c, 9, 38, 58
6, 182715, Note_on_c, 9, 35, 35
6, 182723, Note_on_c, 9, 35, 0
6, 182723, Note_on_c, 9, 38, 0
6, 182881, Note_on_c, 9, 39, 59
6, 182939, Note_on_c, 9, 39, 0
6, 182971, Note_on_c, 9, 40, 45
6, 183019, Note_on_c, 9, 40, 0
6, 183099, Note_on_c, 9, 35, 35
6, 183103, Note_on_c, 9, 35, 0
6, 183103, Note_on_c, 9, 38, 58
6, 183107, Note_on_c, 9, 38, 0
6, 183107, Note_on_c, 9, 44, 82
6, 183107, Note_on_c, 9, 44, 0
6, 183145, Note_on_c, 9, 39, 74
6, 183215, Note_on_c, 9, 39, 0
6, 183359, Note_on_c, 9, 40, 45
6, 183378, Note_on_c, 9, 39, 70
6, 183403, Note_on_c, 9, 40, 0
6, 183432, Note_on_c, 9, 39, 0
6, 183483, Note_on_c, 9, 38, 58
6, 183487, Note_on_c, 9, 38, 0
6, 183487, Note_on_c, 9, 35, 35
6, 183491, Note_on_c, 9, 35, 0
6, 183532, Note_on_c, 9, 36, 24
6, 183592, Note_on_c, 9, 36, 0
6, 183738, Note_on_c, 9, 36, 59
6, 183739, Note_on_c, 9, 40, 60
6, 183755, Note_on_c, 9, 40, 0
6, 183791, Note_on_c, 9, 36, 0
6, 183867, Note_on_c, 9, 46, 62
6, 183871, Note_on_c, 9, 38, 77
6, 183871, Note_on_c, 9, 35, 35
6, 183883, Note_on_c, 9, 35, 0
6, 183883, Note_on_c, 9, 38, 0
6, 183883, Note_on_c, 9, 46, 0
6, 184127, Note_on_c, 9, 40, 60
6, 184139, Note_on_c, 9, 40, 0
6, 184251, Note_on_c, 9, 35, 35
6, 184255, Note_on_c, 9, 38, 58
6, 184259, Note_on_c, 9, 38, 0
6, 184259, Note_on_c, 9, 35, 0
6, 184507, Note_on_c, 9, 40, 60
6, 184527, Note_on_c, 9, 40, 0
6, 184635, Note_on_c, 9, 44, 82
6, 184639, Note_on_c, 9, 38, 58
6, 184643, Note_on_c, 9, 44, 0
6, 184643, Note_on_c, 9, 35, 35
6, 184643, Note_on_c, 9, 35, 0
6, 184647, Note_on_c, 9, 38, 0
6, 184895, Note_on_c, 9, 40, 60
6, 184904, Note_on_c, 9, 36, 34
6, 184907, Note_on_c, 9, 40, 0
6, 184943, Note_on_c, 9, 36, 0
6, 185019, Note_on_c, 9, 38, 58
6, 185023, Note_on_c, 9, 35, 35
6, 185031, Note_on_c, 9, 35, 0
6, 185031, Note_on_c, 9, 38, 0
6, 185039, Note_on_c, 9, 39, 53
6, 185067, Note_on_c, 9, 39, 0
6, 185166, Note_on_c, 9, 39, 59
6, 185210, Note_on_c, 9, 39, 0
6, 185279, Note_on_c, 9, 40, 60
6, 185291, Note_on_c, 9, 40, 0
6, 185291, Note_on_c, 9, 39, 83
6, 185361, Note_on_c, 9, 39, 0
6, 185403, Note_on_c, 9, 35, 35
6, 185407, Note_on_c, 9, 44, 82
6, 185411, Note_on_c, 9, 35, 0
6, 185411, Note_on_c, 9, 38, 77
6, 185415, Note_on_c, 9, 38, 0
6, 185415, Note_on_c, 9, 44, 0
6, 185659, Note_on_c, 9, 40, 60
6, 185675, Note_on_c, 9, 40, 0
6, 185695, Note_on_c, 9, 38, 81
6, 185739, Note_on_c, 9, 38, 0
6, 185791, Note_on_c, 9, 38, 81
6, 185791, Note_on_c, 9, 35, 35
6, 185795, Note_on_c, 9, 38, 58
6, 185799, Note_on_c, 9, 35, 0
6, 185799, Note_on_c, 9, 38, 0
6, 185835, Note_on_c, 9, 38, 0
6, 186043, Note_on_c, 9, 40, 60
6, 186059, Note_on_c, 9, 40, 0
6, 186171, Note_on_c, 9, 35, 35
6, 186175, Note_on_c, 9, 38, 58
6, 186179, Note_on_c, 9, 44, 82
6, 186187, Note_on_c, 9, 44, 0
6, 186187, Note_on_c, 9, 38, 0
6, 186187, Note_on_c, 9, 35, 0
6, 186190, Note_on_c, 9, 39, 45
6, 186218, Note_on_c, 9, 39, 0
6, 186309, Note_on_c, 9, 39, 55
6, 186360, Note_on_c, 9, 39, 0
6, 186423, Note_on_c, 9, 39, 83
6, 186427, Note_on_c, 9, 40, 60
6, 186443, Note_on_c, 9, 40, 0
6, 186517, Note_on_c, 9, 39, 0
6, 186555, Note_on_c, 9, 35, 35
6, 186559, Note_on_c, 9, 38, 58
6, 186559, Note_on_c, 9, 38, 0
6, 186567, Note_on_c, 9, 35, 0
6, 186806, Note_on_c, 9, 36, 60
6, 186815, Note_on_c, 9, 40, 60
6, 186827, Note_on_c, 9, 40, 0
6, 186845, Note_on_c, 9, 36, 0
6, 186939, Note_on_c, 9, 44, 82
6, 186943, Note_on_c, 9, 35, 35
6, 186947, Note_on_c, 9, 38, 77
6, 186947, Note_on_c, 9, 36, 57
6, 186951, Note_on_c, 9, 38, 0
6, 186951, Note_on_c, 9, 44, 0
6, 186951, Note_on_c, 9, 35, 0
6, 187068, Note_on_c, 9, 36, 0
6, 187195, Note_on_c, 9, 40, 60
6, 187203, Note_on_c, 9, 40, 0
6, 187323, Note_on_c, 9, 38, 58
6, 187327, Note_on_c, 9, 35, 35
6, 187331, Note_on_c, 9, 35, 0
6, 187331, Note_on_c, 9, 38, 0
6, 187579, Note_on_c, 9, 40, 60
6, 187595, Note_on_c, 9, 40, 0
6, 187707, Note_on_c, 9, 44, 82
6, 187707, Note_on_c, 9, 35, 35
6, 187711, Note_on_c, 9, 38, 58
6, 187723, Note_on_c, 9, 38, 0
6, 187727, Note_on_c, 9, 35, 0
6, 187731, Note_on_c, 9, 44, 0
6, 187963, Note_on_c, 9, 40, 60
6, 187979, Note_on_c, 9, 40, 0
6, 188091, Note_on_c, 9, 38, 58
6, 188091, Note_on_c, 9, 35, 35
6, 188099, Note_on_c, 9, 35, 0
6, 188099, Note_on_c, 9, 38, 0
6, 188201, Note_on_c, 9, 39, 55
6, 188259, Note_on_c, 9, 39, 0
6, 188319, Note_on_c, 9, 39, 55
6, 188347, Note_on_c, 9, 40, 60
6, 188367, Note_on_c, 9, 40, 0
6, 188379, Note_on_c, 9, 39, 0
6, 188473, Note_on_c, 9, 36, 36
6, 188479, Note_on_c, 9, 38, 77
6, 188479, Note_on_c, 9, 44, 82
6, 188479, Note_on_c, 9, 35, 35
6, 188495, Note_on_c, 9, 35, 0
6, 188495, Note_on_c, 9, 44, 0
6, 188495, Note_on_c, 9, 38, 0
6, 188537, Note_on_c, 9, 36, 0
6, 188735, Note_on_c, 9, 40, 60
6, 188747, Note_on_c, 9, 40, 0
6, 188851, Note_on_c, 9, 39, 50
6, 188863, Note_on_c, 9, 38, 58
6, 188863, Note_on_c, 9, 35, 35
6, 188867, Note_on_c, 9, 35, 0
6, 188871, Note_on_c, 9, 38, 0
6, 188884, Note_on_c, 9, 39, 0
6, 188976, Note_on_c, 9, 39, 59
6, 189029, Note_on_c, 9, 39, 0
6, 189115, Note_on_c, 9, 40, 60
6, 189127, Note_on_c, 9, 35, 47
6, 189135, Note_on_c, 9, 40, 0
6, 189141, Note_on_c, 9, 36, 48
6, 189181, Note_on_c, 9, 36, 0
6, 189184, Note_on_c, 9, 35, 0
6, 189243, Note_on_c, 9, 38, 58
6, 189247, Note_on_c, 9, 44, 82
6, 189247, Note_on_c, 9, 35, 35
6, 189263, Note_on_c, 9, 35, 0
6, 189263, Note_on_c, 9, 44, 0
6, 189263, Note_on_c, 9, 38, 0
6, 189499, Note_on_c, 9, 40, 60
6, 189515, Note_on_c, 9, 40, 0
6, 189627, Note_on_c, 9, 38, 58
6, 189631, Note_on_c, 9, 35, 35
6, 189635, Note_on_c, 9, 35, 0
6, 189639, Note_on_c, 9, 38, 0
6, 189883, Note_on_c, 9, 40, 60
6, 189903, Note_on_c, 9, 40, 0
6, 190015, Note_on_c, 9, 38, 77
6, 190019, Note_on_c, 9, 44, 82
6, 190019, Note_on_c, 9, 35, 35
6, 190027, Note_on_c, 9, 44, 0
6, 190027, Note_on_c, 9, 38, 0
6, 190031, Note_on_c, 9, 35, 0
6, 190267, Note_on_c, 9, 40, 60
6, 190287, Note_on_c, 9, 40, 0
6, 190399, Note_on_c, 9, 38, 58
6, 190399, Note_on_c, 9, 35, 35
6, 190407, Note_on_c, 9, 35, 0
6, 190407, Note_on_c, 9, 38, 0
6, 190412, Note_on_c, 9, 39, 50
6, 190455, Note_on_c, 9, 39, 0
6, 190617, Note_on_c, 9, 39, 62
6, 190651, Note_on_c, 9, 40, 60
6, 190671, Note_on_c, 9, 40, 0
6, 190675, Note_on_c, 9, 39, 0
6, 190779, Note_on_c, 9, 38, 58
6, 190780, Note_on_c, 9, 39, 62
6, 190787, Note_on_c, 9, 44, 82
6, 190787, Note_on_c, 9, 35, 35
6, 190791, Note_on_c, 9, 35, 0
6, 190795, Note_on_c, 9, 44, 0
6, 190795, Note_on_c, 9, 38, 0
6, 190829, Note_on_c, 9, 39, 0
6, 190882, Note_on_c, 9, 39, 67
6, 190911, Note_on_c, 9, 39, 0
6, 191009, Note_on_c, 9, 36, 65
6, 191035, Note_on_c, 9, 40, 60
6, 191051, Note_on_c, 9, 40, 0
6, 191083, Note_on_c, 9, 36, 0
6, 191163, Note_on_c, 9, 38, 58
6, 191163, Note_on_c, 9, 35, 35
6, 191175, Note_on_c, 9, 35, 0
6, 191175, Note_on_c, 9, 38, 0
6, 191221, Note_on_c, 9, 35, 37
6, 191411, Note_on_c, 9, 35, 0
6, 191419, Note_on_c, 9, 40, 60
6, 191435, Note_on_c, 9, 40, 0
6, 191460, Note_on_c, 9, 35, 35
6, 191525, Note_on_c, 9, 35, 0
6, 191547, Note_on_c, 9, 38, 77
6, 191547, Note_on_c, 9, 35, 35
6, 191551, Note_on_c, 9, 44, 82
6, 191555, Note_on_c, 9, 44, 0
6, 191559, Note_on_c, 9, 35, 0
6, 191559, Note_on_c, 9, 38, 0
6, 191803, Note_on_c, 9, 40, 60
6, 191811, Note_on_c, 9, 40, 0
6, 191931, Note_on_c, 9, 38, 58
6, 191935, Note_on_c, 9, 35, 35
6, 191947, Note_on_c, 9, 35, 0
6, 191947, Note_on_c, 9, 38, 0
6, 192191, Note_on_c, 9, 40, 60
6, 192203, Note_on_c, 9, 40, 0
6, 192209, Note_on_c, 9, 36, 24
6, 192246, Note_on_c, 9, 36, 0
6, 192307, Note_on_c, 9, 39, 46
6, 192315, Note_on_c, 9, 35, 35
6, 192319, Note_on_c, 9, 38, 58
6, 192323, Note_on_c, 9, 38, 0
6, 192323, Note_on_c, 9, 44, 82
6, 192323, Note_on_c, 9, 44, 0
6, 192327, Note_on_c, 9, 35, 0
6, 192375, Note_on_c, 9, 39, 0
6, 192431, Note_on_c, 9, 39, 69
6, 192489, Note_on_c, 9, 39, 0
6, 192541, Note_on_c, 9, 39, 83
6, 192575, Note_on_c, 9, 40, 60
6, 192587, Note_on_c, 9, 40, 0
6, 192605, Note_on_c, 9, 39, 0
6, 192678, Note_on_c, 9, 36, 59
6, 192699, Note_on_c, 9, 38, 58
6, 192699, Note_on_c, 9, 35, 35
6, 192703, Note_on_c, 9, 38, 0
6, 192707, Note_on_c, 9, 35, 0
6, 192778, Note_on_c, 9, 36, 0
6, 192955, Note_on_c, 9, 40, 60
6, 192959, Note_on_c, 9, 40, 0
6, 193087, Note_on_c, 9, 38, 77
6, 193087, Note_on_c, 9, 46, 62
6, 193087, Note_on_c, 9, 35, 35
6, 193095, Note_on_c, 9, 35, 0
6, 193095, Note_on_c, 9, 46, 0
6, 193095, Note_on_c, 9, 38, 0
6, 193339, Note_on_c, 9, 40, 60
6, 193355, Note_on_c, 9, 40, 0
6, 193475, Note_on_c, 9, 38, 58
6, 193475, Note_on_c, 9, 35, 30
6, 193483, Note_on_c, 9, 35, 0
6, 193487, Note_on_c, 9, 38, 0
6, 193723, Note_on_c, 9, 40, 45
6, 193771, Note_on_c, 9, 40, 0
6, 193859, Note_on_c, 9, 44, 82
6, 193867, Note_on_c, 9, 38, 58
6, 193867, Note_on_c, 9, 35, 35
6, 193875, Note_on_c, 9, 35, 0
6, 193875, Note_on_c, 9, 38, 0
6, 193875, Note_on_c, 9, 44, 0
6, 194115, Note_on_c, 9, 40, 45
6, 194163, Note_on_c, 9, 40, 0
6, 194243, Note_on_c, 9, 38, 58
6, 194243, Note_on_c, 9, 35, 35
6, 194259, Note_on_c, 9, 35, 0
6, 194259, Note_on_c, 9, 38, 0
6, 194491, Note_on_c, 9, 40, 45
6, 194539, Note_on_c, 9, 40, 0
6, 194619, Note_on_c, 9, 35, 35
6, 194631, Note_on_c, 9, 35, 0
6, 194631, Note_on_c, 9, 38, 77
6, 194631, Note_on_c, 9, 44, 82
6, 194635, Note_on_c, 9, 44, 0
6, 194635, Note_on_c, 9, 38, 0
6, 194862, Note_on_c, 9, 39, 51
6, 194875, Note_on_c, 9, 40, 45
6, 194891, Note_on_c, 9, 39, 0
6, 194923, Note_on_c, 9, 40, 0
6, 195007, Note_on_c, 9, 38, 58
6, 195007, Note_on_c, 9, 35, 35
6, 195011, Note_on_c, 9, 35, 0
6, 195015, Note_on_c, 9, 38, 0
6, 195255, Note_on_c, 9, 39, 48
6, 195259, Note_on_c, 9, 40, 45
6, 195288, Note_on_c, 9, 39, 0
6, 195307, Note_on_c, 9, 40, 0
6, 195391, Note_on_c, 9, 38, 58
6, 195391, Note_on_c, 9, 35, 35
6, 195395, Note_on_c, 9, 35, 0
6, 195395, Note_on_c, 9, 44, 82
6, 195403, Note_on_c, 9, 44, 0
6, 195403, Note_on_c, 9, 38, 0
6, 195636, Note_on_c, 9, 39, 49
6, 195643, Note_on_c, 9, 40, 45
6, 195669, Note_on_c, 9, 39, 0
6, 195691, Note_on_c, 9, 40, 0
6, 195775, Note_on_c, 9, 38, 58
6, 195775, Note_on_c, 9, 38, 0
6, 195779, Note_on_c, 9, 35, 35
6, 195783, Note_on_c, 9, 35, 0
6, 196013, Note_on_c, 9, 39, 45
6, 196031, Note_on_c, 9, 40, 60
6, 196043, Note_on_c, 9, 40, 0
6, 196053, Note_on_c, 9, 39, 0
6, 196159, Note_on_c, 9, 38, 77
6, 196159, Note_on_c, 9, 44, 82
6, 196159, Note_on_c, 9, 35, 35
6, 196171, Note_on_c, 9, 35, 0
6, 196171, Note_on_c, 9, 44, 0
6, 196171, Note_on_c, 9, 38, 0
6, 196177, Note_on_c, 9, 51, 48
6, 196275, Note_on_c, 9, 51, 0
6, 196397, Note_on_c, 9, 39, 48
6, 196411, Note_on_c, 9, 40, 60
6, 196417, Note_on_c, 9, 51, 83
6, 196426, Note_on_c, 9, 39, 0
6, 196427, Note_on_c, 9, 40, 0
6, 196487, Note_on_c, 9, 51, 0
6, 196543, Note_on_c, 9, 38, 58
6, 196543, Note_on_c, 9, 35, 35
6, 196547, Note_on_c, 9, 35, 0
6, 196547, Note_on_c, 9, 38, 0
6, 196790, Note_on_c, 9, 36, 47
6, 196795, Note_on_c, 9, 40, 60
6, 196811, Note_on_c, 9, 40, 0
6, 196878, Note_on_c, 9, 36, 0
6, 196923, Note_on_c, 9, 44, 82
6, 196927, Note_on_c, 9, 38, 58
6, 196935, Note_on_c, 9, 35, 35
6, 196935, Note_on_c, 9, 35, 0
6, 196939, Note_on_c, 9, 38, 0
6, 196939, Note_on_c, 9, 44, 0
6, 197179, Note_on_c, 9, 40, 60
6, 197191, Note_on_c, 9, 36, 55
6, 197195, Note_on_c, 9, 40, 0
6, 197234, Note_on_c, 9, 36, 0
6, 197311, Note_on_c, 9, 38, 58
6, 197311, Note_on_c, 9, 35, 35
6, 197315, Note_on_c, 9, 35, 0
6, 197319, Note_on_c, 9, 38, 0
6, 197567, Note_on_c, 9, 40, 60
6, 197583, Note_on_c, 9, 40, 0
6, 197584, Note_on_c, 9, 36, 57
6, 197619, Note_on_c, 9, 36, 0
6, 197695, Note_on_c, 9, 35, 35
6, 197699, Note_on_c, 9, 35, 0
6, 197699, Note_on_c, 9, 38, 77
6, 197699, Note_on_c, 9, 44, 82
6, 197703, Note_on_c, 9, 44, 0
6, 197703, Note_on_c, 9, 38, 0
6, 197951, Note_on_c, 9, 40, 60
6, 197955, Note_on_c, 9, 40, 0
6, 197961, Note_on_c, 9, 36, 62
6, 197979, Note_on_c, 9, 38, 81
6, 198023, Note_on_c, 9, 38, 0
6, 198043, Note_on_c, 9, 36, 0
6, 198075, Note_on_c, 9, 38, 81
6, 198079, Note_on_c, 9, 38, 58
6, 198079, Note_on_c, 9, 35, 35
6, 198083, Note_on_c, 9, 35, 0
6, 198087, Note_on_c, 9, 38, 0
6, 198120, Note_on_c, 9, 39, 37
6, 198123, Note_on_c, 9, 38, 0
6, 198213, Note_on_c, 9, 39, 0
6, 198331, Note_on_c, 9, 40, 60
6, 198339, Note_on_c, 9, 40, 0
6, 198459, Note_on_c, 9, 35, 35
6, 198463, Note_on_c, 9, 38, 58
6, 198467, Note_on_c, 9, 44, 82
6, 198467, Note_on_c, 9, 44, 0
6, 198471, Note_on_c, 9, 38, 0
6, 198471, Note_on_c, 9, 35, 0
6, 198719, Note_on_c, 9, 40, 60
6, 198731, Note_on_c, 9, 40, 0
6, 198843, Note_on_c, 9, 35, 35
6, 198847, Note_on_c, 9, 38, 58
6, 198847, Note_on_c, 9, 38, 0
6, 198851, Note_on_c, 9, 35, 0
6, 199085, Note_on_c, 9, 39, 54
6, 199099, Note_on_c, 9, 40, 60
6, 199119, Note_on_c, 9, 40, 0
6, 199129, Note_on_c, 9, 39, 0
6, 199217, Note_on_c, 9, 39, 36
6, 199227, Note_on_c, 9, 44, 82
6, 199231, Note_on_c, 9, 35, 35
6, 199235, Note_on_c, 9, 38, 77
6, 199243, Note_on_c, 9, 38, 0
6, 199243, Note_on_c, 9, 35, 0
6, 199243, Note_on_c, 9, 44, 0
6, 199324, Note_on_c, 9, 39, 0
6, 199445, Note_on_c, 9, 39, 57
6, 199487, Note_on_c, 9, 40, 60
6, 199493, Note_on_c, 9, 39, 0
6, 199499, Note_on_c, 9, 40, 0
6, 199615, Note_on_c, 9, 38, 58
6, 199615, Note_on_c, 9, 38, 0
6, 199655, Note_on_c, 9, 38, 58
6, 199655, Note_on_c, 9, 35, 30
6, 199663, Note_on_c, 9, 35, 0
6, 199675, Note_on_c, 9, 38, 0
6, 199867, Note_on_c, 9, 40, 45
6, 199915, Note_on_c, 9, 40, 0
6, 200003, Note_on_c, 9, 38, 58
6, 200003, Note_on_c, 9, 44, 82
6, 200003, Note_on_c, 9, 35, 35
6, 200007, Note_on_c, 9, 44, 0
6, 200011, Note_on_c, 9, 35, 0
6, 200015, Note_on_c, 9, 38, 0
6, 200259, Note_on_c, 9, 40, 45
6, 200307, Note_on_c, 9, 40, 0
6, 200387, Note_on_c, 9, 38, 58
6, 200387, Note_on_c, 9, 35, 35
6, 200403, Note_on_c, 9, 35, 0
6, 200403, Note_on_c, 9, 38, 0
6, 200618, Note_on_c, 9, 39, 53
6, 200635, Note_on_c, 9, 40, 45
6, 200679, Note_on_c, 9, 40, 0
6, 200709, Note_on_c, 9, 39, 0
6, 200767, Note_on_c, 9, 35, 35
6, 200771, Note_on_c, 9, 38, 77
6, 200771, Note_on_c, 9, 44, 82
6, 200775, Note_on_c, 9, 35, 0
6, 200779, Note_on_c, 9, 44, 0
6, 200779, Note_on_c, 9, 38, 0
6, 200786, Note_on_c, 9, 36, 46
6, 200909, Note_on_c, 9, 36, 0
6, 201015, Note_on_c, 9, 36, 55
6, 201019, Note_on_c, 9, 40, 45
6, 201067, Note_on_c, 9, 40, 0
6, 201105, Note_on_c, 9, 36, 0
6, 201151, Note_on_c, 9, 38, 58
6, 201151, Note_on_c, 9, 35, 35
6, 201155, Note_on_c, 9, 35, 0
6, 201159, Note_on_c, 9, 38, 0
6, 201403, Note_on_c, 9, 40, 45
6, 201451, Note_on_c, 9, 40, 0
6, 201535, Note_on_c, 9, 38, 58
6, 201535, Note_on_c, 9, 35, 35
6, 201535, Note_on_c, 9, 35, 0
6, 201539, Note_on_c, 9, 38, 0
6, 201539, Note_on_c, 9, 44, 82
6, 201539, Note_on_c, 9, 44, 0
6, 201787, Note_on_c, 9, 40, 45
6, 201835, Note_on_c, 9, 40, 0
6, 201915, Note_on_c, 9, 38, 58
6, 201919, Note_on_c, 9, 38, 0
6, 201919, Note_on_c, 9, 35, 35
6, 201923, Note_on_c, 9, 35, 0
6, 202171, Note_on_c, 9, 40, 60
6, 202191, Note_on_c, 9, 40, 0
6, 202303, Note_on_c, 9, 38, 77
6, 202303, Note_on_c, 9, 44, 82
6, 202307, Note_on_c, 9, 35, 35
6, 202315, Note_on_c, 9, 35, 0
6, 202319, Note_on_c, 9, 44, 0
6, 202319, Note_on_c, 9, 38, 0
6, 202555, Note_on_c, 9, 40, 60
6, 202563, Note_on_c, 9, 40, 0
6, 202564, Note_on_c, 9, 36, 64
6, 202597, Note_on_c, 9, 36, 0
6, 202683, Note_on_c, 9, 35, 35
6, 202687, Note_on_c, 9, 38, 58
6, 202695, Note_on_c, 9, 38, 0
6, 202695, Note_on_c, 9, 35, 0
6, 202939, Note_on_c, 9, 40, 60
6, 202955, Note_on_c, 9, 40, 0
6, 203067, Note_on_c, 9, 44, 82
6, 203071, Note_on_c, 9, 38, 58
6, 203075, Note_on_c, 9, 35, 35
6, 203079, Note_on_c, 9, 35, 0
6, 203079, Note_on_c, 9, 38, 0
6, 203079, Note_on_c, 9, 44, 0
6, 203323, Note_on_c, 9, 40, 60
6, 203339, Note_on_c, 9, 40, 0
6, 203451, Note_on_c, 9, 38, 58
6, 203455, Note_on_c, 9, 35, 35
6, 203459, Note_on_c, 9, 35, 0
6, 203463, Note_on_c, 9, 38, 0
6, 203707, Note_on_c, 9, 40, 60
6, 203727, Note_on_c, 9, 40, 0
6, 203835, Note_on_c, 9, 35, 35
6, 203839, Note_on_c, 9, 44, 82
6, 203843, Note_on_c, 9, 35, 0
6, 203843, Note_on_c, 9, 38, 77
6, 203847, Note_on_c, 9, 38, 0
6, 203847, Note_on_c, 9, 44, 0
6, 204095, Note_on_c, 9, 40, 60
6, 204103, Note_on_c, 9, 40, 0
6, 204127, Note_on_c, 9, 38, 81
6, 204171, Note_on_c, 9, 38, 0
6, 204223, Note_on_c, 9, 38, 81
6, 204223, Note_on_c, 9, 35, 35
6, 204227, Note_on_c, 9, 38, 58
6, 204235, Note_on_c, 9, 35, 0
6, 204235, Note_on_c, 9, 38, 0
6, 204263, Note_on_c, 9, 38, 0
6, 204479, Note_on_c, 9, 40, 60
6, 204491, Note_on_c, 9, 40, 0
6, 204603, Note_on_c, 9, 35, 35
6, 204607, Note_on_c, 9, 38, 58
6, 204607, Note_on_c, 9, 44, 82
6, 204611, Note_on_c, 9, 44, 0
6, 204615, Note_on_c, 9, 38, 0
6, 204615, Note_on_c, 9, 35, 0
6, 204859, Note_on_c, 9, 40, 60
6, 204875, Note_on_c, 9, 40, 0
6, 204886, Note_on_c, 9, 36, 27
6, 204914, Note_on_c, 9, 36, 0
6, 204987, Note_on_c, 9, 35, 35
6, 204991, Note_on_c, 9, 38, 58
6, 204995, Note_on_c, 9, 38, 0
6, 204995, Note_on_c, 9, 35, 0
6, 205243, Note_on_c, 9, 40, 60
6, 205247, Note_on_c, 9, 40, 0
6, 205273, Note_on_c, 9, 36, 25
6, 205305, Note_on_c, 9, 36, 0
6, 205371, Note_on_c, 9, 46, 62
6, 205375, Note_on_c, 9, 35, 35
6, 205379, Note_on_c, 9, 38, 77
6, 205383, Note_on_c, 9, 38, 0
6, 205383, Note_on_c, 9, 35, 0
6, 205383, Note_on_c, 9, 46, 0
6, 205628, Note_on_c, 9, 36, 49
6, 205631, Note_on_c, 9, 40, 60
6, 205647, Note_on_c, 9, 40, 0
6, 205676, Note_on_c, 9, 36, 0
6, 205759, Note_on_c, 9, 38, 58
6, 205759, Note_on_c, 9, 35, 35
6, 205763, Note_on_c, 9, 38, 0
6, 205767, Note_on_c, 9, 35, 0
6, 205789, Note_on_c, 9, 36, 29
6, 205858, Note_on_c, 9, 36, 0
6, 206015, Note_on_c, 9, 40, 60
6, 206027, Note_on_c, 9, 40, 0
6, 206143, Note_on_c, 9, 44, 82
6, 206143, Note_on_c, 9, 35, 35
6, 206147, Note_on_c, 9, 38, 58
6, 206155, Note_on_c, 9, 38, 0
6, 206159, Note_on_c, 9, 35, 0
6, 206159, Note_on_c, 9, 44, 0
6, 206391, Note_on_c, 9, 39, 51
6, 206395, Note_on_c, 9, 40, 60
6, 206411, Note_on_c, 9, 40, 0
6, 206486, Note_on_c, 9, 39, 0
6, 206523, Note_on_c, 9, 38, 58
6, 206527, Note_on_c, 9, 35, 35
6, 206531, Note_on_c, 9, 38, 0
6, 206535, Note_on_c, 9, 35, 0
6, 206779, Note_on_c, 9, 40, 60
6, 206795, Note_on_c, 9, 40, 0
6, 206911, Note_on_c, 9, 38, 77
6, 206911, Note_on_c, 9, 44, 82
6, 206911, Note_on_c, 9, 35, 35
6, 206923, Note_on_c, 9, 35, 0
6, 206927, Note_on_c, 9, 44, 0
6, 206931, Note_on_c, 9, 38, 0
6, 207150, Note_on_c, 9, 39, 81
6, 207163, Note_on_c, 9, 40, 60
6, 207179, Note_on_c, 9, 40, 0
6, 207267, Note_on_c, 9, 39, 0
6, 207291, Note_on_c, 9, 38, 58
6, 207295, Note_on_c, 9, 35, 35
6, 207303, Note_on_c, 9, 35, 0
6, 207307, Note_on_c, 9, 38, 0
6, 207547, Note_on_c, 9, 40, 60
6, 207563, Note_on_c, 9, 40, 0
6, 207675, Note_on_c, 9, 38, 58
6, 207679, Note_on_c, 9, 44, 82
6, 207679, Note_on_c, 9, 35, 35
6, 207687, Note_on_c, 9, 44, 0
6, 207691, Note_on_c, 9, 35, 0
6, 207691, Note_on_c, 9, 38, 0
6, 207932, Note_on_c, 9, 39, 80
6, 207935, Note_on_c, 9, 40, 60
6, 207947, Note_on_c, 9, 40, 0
6, 208059, Note_on_c, 9, 39, 0
6, 208063, Note_on_c, 9, 38, 58
6, 208063, Note_on_c, 9, 35, 35
6, 208071, Note_on_c, 9, 35, 0
6, 208071, Note_on_c, 9, 38, 0
6, 208113, Note_on_c, 9, 36, 47
6, 208159, Note_on_c, 9, 36, 0
6, 208315, Note_on_c, 9, 40, 60
6, 208331, Note_on_c, 9, 40, 0
6, 208340, Note_on_c, 9, 36, 41
6, 208377, Note_on_c, 9, 36, 0
6, 208443, Note_on_c, 9, 38, 77
6, 208447, Note_on_c, 9, 44, 82
6, 208447, Note_on_c, 9, 35, 35
6, 208459, Note_on_c, 9, 35, 0
6, 208459, Note_on_c, 9, 44, 0
6, 208459, Note_on_c, 9, 38, 0
6, 208699, Note_on_c, 9, 40, 60
6, 208711, Note_on_c, 9, 40, 0
6, 208827, Note_on_c, 9, 38, 58
6, 208831, Note_on_c, 9, 35, 35
6, 208835, Note_on_c, 9, 35, 0
6, 208835, Note_on_c, 9, 38, 0
6, 209083, Note_on_c, 9, 40, 60
6, 209091, Note_on_c, 9, 40, 0
6, 209215, Note_on_c, 9, 38, 58
6, 209215, Note_on_c, 9, 44, 82
6, 209219, Note_on_c, 9, 35, 35
6, 209223, Note_on_c, 9, 35, 0
6, 209223, Note_on_c, 9, 44, 0
6, 209223, Note_on_c, 9, 38, 0
6, 209467, Note_on_c, 9, 40, 60
6, 209487, Note_on_c, 9, 40, 0
6, 209595, Note_on_c, 9, 35, 35
6, 209599, Note_on_c, 9, 38, 58
6, 209607, Note_on_c, 9, 38, 0
6, 209607, Note_on_c, 9, 35, 0
6, 209855, Note_on_c, 9, 40, 60
6, 209863, Note_on_c, 9, 40, 0
6, 209983, Note_on_c, 9, 38, 77
6, 209983, Note_on_c, 9, 35, 35
6, 209987, Note_on_c, 9, 44, 82
6, 209995, Note_on_c, 9, 44, 0
6, 209999, Note_on_c, 9, 35, 0
6, 209999, Note_on_c, 9, 38, 0
6, 210222, Note_on_c, 9, 39, 67
6, 210235, Note_on_c, 9, 40, 60
6, 210251, Note_on_c, 9, 40, 0
6, 210345, Note_on_c, 9, 39, 0
6, 210357, Note_on_c, 9, 59, 53
6, 210363, Note_on_c, 9, 38, 58
6, 210363, Note_on_c, 9, 35, 35
6, 210364, Note_on_c, 9, 36, 46
6, 210371, Note_on_c, 9, 35, 0
6, 210371, Note_on_c, 9, 38, 0
6, 210390, Note_on_c, 9, 59, 0
6, 210427, Note_on_c, 9, 36, 0
6, 210619, Note_on_c, 9, 40, 60
6, 210627, Note_on_c, 9, 40, 0
6, 210751, Note_on_c, 9, 38, 58
6, 210751, Note_on_c, 9, 44, 82
6, 210751, Note_on_c, 9, 35, 35
6, 210759, Note_on_c, 9, 35, 0
6, 210759, Note_on_c, 9, 44, 0
6, 210759, Note_on_c, 9, 38, 0
6, 211003, Note_on_c, 9, 40, 60
6, 211023, Note_on_c, 9, 40, 0
6, 211131, Note_on_c, 9, 35, 35
6, 211135, Note_on_c, 9, 38, 58
6, 211139, Note_on_c, 9, 38, 0
6, 211139, Note_on_c, 9, 35, 0
6, 211383, Note_on_c, 9, 39, 69
6, 211391, Note_on_c, 9, 40, 60
6, 211403, Note_on_c, 9, 40, 0
6, 211456, Note_on_c, 9, 39, 0
6, 211514, Note_on_c, 9, 59, 74
6, 211519, Note_on_c, 9, 46, 62
6, 211519, Note_on_c, 9, 35, 35
6, 211523, Note_on_c, 9, 38, 77
6, 211526, Note_on_c, 9, 36, 66
6, 211531, Note_on_c, 9, 38, 0
6, 211535, Note_on_c, 9, 35, 0
6, 211535, Note_on_c, 9, 46, 0
6, 211586, Note_on_c, 9, 59, 0
6, 211630, Note_on_c, 9, 36, 0
6, 211775, Note_on_c, 9, 40, 60
6, 211787, Note_on_c, 9, 40, 0
6, 211907, Note_on_c, 9, 38, 58
6, 211907, Note_on_c, 9, 35, 30
6, 211923, Note_on_c, 9, 35, 0
6, 211923, Note_on_c, 9, 38, 0
6, 212155, Note_on_c, 9, 40, 45
6, 212203, Note_on_c, 9, 40, 0
6, 212291, Note_on_c, 9, 38, 58
6, 212291, Note_on_c, 9, 44, 82
6, 212291, Note_on_c, 9, 35, 35
6, 212307, Note_on_c, 9, 35, 0
6, 212307, Note_on_c, 9, 44, 0
6, 212311, Note_on_c, 9, 38, 0
6, 212547, Note_on_c, 9, 40, 45
6, 212595, Note_on_c, 9, 40, 0
6, 212675, Note_on_c, 9, 38, 58
6, 212675, Note_on_c, 9, 35, 35
6, 212683, Note_on_c, 9, 35, 0
6, 212683, Note_on_c, 9, 38, 0
6, 212923, Note_on_c, 9, 40, 45
6, 212928, Note_on_c, 9, 39, 63
6, 212971, Note_on_c, 9, 40, 0
6, 213021, Note_on_c, 9, 39, 0
6, 213051, Note_on_c, 9, 35, 35
6, 213059, Note_on_c, 9, 38, 77
6, 213059, Note_on_c, 9, 44, 82
6, 213063, Note_on_c, 9, 35, 0
6, 213067, Note_on_c, 9, 44, 0
6, 213067, Note_on_c, 9, 38, 0
6, 213307, Note_on_c, 9, 40, 45
6, 213311, Note_on_c, 9, 36, 54
6, 213347, Note_on_c, 9, 36, 0
6, 213355, Note_on_c, 9, 40, 0
6, 213439, Note_on_c, 9, 38, 58
6, 213439, Note_on_c, 9, 35, 35
6, 213443, Note_on_c, 9, 35, 0
6, 213447, Note_on_c, 9, 38, 0
6, 213453, Note_on_c, 9, 36, 34
6, 213525, Note_on_c, 9, 36, 0
6, 213691, Note_on_c, 9, 40, 45
6, 213739, Note_on_c, 9, 40, 0
6, 213819, Note_on_c, 9, 35, 35
6, 213823, Note_on_c, 9, 38, 58
6, 213827, Note_on_c, 9, 35, 0
6, 213827, Note_on_c, 9, 44, 82
6, 213831, Note_on_c, 9, 44, 0
6, 213831, Note_on_c, 9, 38, 0
6, 214075, Note_on_c, 9, 40, 45
6, 214123, Note_on_c, 9, 40, 0
6, 214203, Note_on_c, 9, 38, 58
6, 214207, Note_on_c, 9, 38, 0
6, 214207, Note_on_c, 9, 35, 35
6, 214211, Note_on_c, 9, 35, 0
6, 214434, Note_on_c, 9, 38, 62
6, 214459, Note_on_c, 9, 40, 60
6, 214470, Note_on_c, 9, 38, 0
6, 214475, Note_on_c, 9, 40, 0
6, 214595, Note_on_c, 9, 38, 77
6, 214595, Note_on_c, 9, 44, 82
6, 214595, Note_on_c, 9, 35, 35
6, 214607, Note_on_c, 9, 35, 0
6, 214607, Note_on_c, 9, 44, 0
6, 214607, Note_on_c, 9, 38, 0
6, 214822, Note_on_c, 9, 38, 75
6, 214843, Note_on_c, 9, 40, 60
6, 214863, Note_on_c, 9, 40, 0
6, 214875, Note_on_c, 9, 38, 0
6, 214971, Note_on_c, 9, 38, 58
6, 214971, Note_on_c, 9, 35, 35
6, 214979, Note_on_c, 9, 38, 0
6, 214983, Note_on_c, 9, 35, 0
6, 215231, Note_on_c, 9, 40, 60
6, 215235, Note_on_c, 9, 40, 0
6, 215355, Note_on_c, 9, 38, 58
6, 215355, Note_on_c, 9, 44, 82
6, 215363, Note_on_c, 9, 35, 35
6, 215367, Note_on_c, 9, 35, 0
6, 215367, Note_on_c, 9, 44, 0
6, 215367, Note_on_c, 9, 38, 0
6, 215611, Note_on_c, 9, 40, 60
6, 215627, Note_on_c, 9, 40, 0
6, 215743, Note_on_c, 9, 38, 58
6, 215743, Note_on_c, 9, 35, 35
6, 215751, Note_on_c, 9, 35, 0
6, 215751, Note_on_c, 9, 38, 0
6, 215880, Note_on_c, 9, 39, 55
6, 215914, Note_on_c, 9, 39, 0
6, 215984, Note_on_c, 9, 39, 42
6, 215995, Note_on_c, 9, 40, 60
6, 216011, Note_on_c, 9, 40, 0
6, 216085, Note_on_c, 9, 39, 0
6, 216123, Note_on_c, 9, 35, 35
6, 216127, Note_on_c, 9, 44, 82
6, 216129, Note_on_c, 9, 46, 62
6, 216131, Note_on_c, 9, 35, 0
6, 216131, Note_on_c, 9, 38, 77
6, 216131, Note_on_c, 9, 36, 64
6, 216135, Note_on_c, 9, 38, 0
6, 216135, Note_on_c, 9, 44, 0
6, 216188, Note_on_c, 9, 46, 0
6, 216227, Note_on_c, 9, 36, 0
6, 216379, Note_on_c, 9, 40, 60
6, 216399, Note_on_c, 9, 40, 0
6, 216415, Note_on_c, 9, 38, 81
6, 216459, Note_on_c, 9, 38, 0
6, 216507, Note_on_c, 9, 38, 81
6, 216511, Note_on_c, 9, 35, 35
6, 216515, Note_on_c, 9, 38, 58
6, 216519, Note_on_c, 9, 35, 0
6, 216519, Note_on_c, 9, 38, 0
6, 216555, Note_on_c, 9, 38, 0
6, 216613, Note_on_c, 9, 39, 62
6, 216763, Note_on_c, 9, 40, 60
6, 216779, Note_on_c, 9, 40, 0
6, 216812, Note_on_c, 9, 39, 0
6, 216829, Note_on_c, 9, 46, 62
6, 216833, Note_on_c, 9, 36, 75
6, 216889, Note_on_c, 9, 46, 0
6, 216891, Note_on_c, 9, 38, 58
6, 216891, Note_on_c, 9, 35, 35
6, 216899, Note_on_c, 9, 44, 82
6, 216902, Note_on_c, 9, 36, 0
6, 216903, Note_on_c, 9, 38, 0
6, 216903, Note_on_c, 9, 35, 0
6, 216903, Note_on_c, 9, 44, 0
6, 217151, Note_on_c, 9, 40, 60
6, 217167, Note_on_c, 9, 40, 0
6, 217275, Note_on_c, 9, 38, 58
6, 217275, Note_on_c, 9, 35, 35
6, 217279, Note_on_c, 9, 38, 0
6, 217283, Note_on_c, 9, 35, 0
6, 217531, Note_on_c, 9, 40, 60
6, 217547, Note_on_c, 9, 40, 0
6, 217659, Note_on_c, 9, 44, 82
6, 217659, Note_on_c, 9, 35, 35
6, 217667, Note_on_c, 9, 38, 77
6, 217671, Note_on_c, 9, 38, 0
6, 217671, Note_on_c, 9, 35, 0
6, 217671, Note_on_c, 9, 44, 0
6, 217915, Note_on_c, 9, 40, 60
6, 217927, Note_on_c, 9, 40, 0
6, 218043, Note_on_c, 9, 38, 58
6, 218047, Note_on_c, 9, 35, 35
6, 218051, Note_on_c, 9, 35, 0
6, 218051, Note_on_c, 9, 38, 0
6, 218197, Note_on_c, 9, 39, 64
6, 218243, Note_on_c, 9, 39, 0
6, 218292, Note_on_c, 9, 39, 63
6, 218299, Note_on_c, 9, 40, 60
6, 218319, Note_on_c, 9, 40, 0
6, 218377, Note_on_c, 9, 39, 0
6, 218426, Note_on_c, 9, 46, 56
6, 218427, Note_on_c, 9, 38, 58
6, 218427, Note_on_c, 9, 44, 82
6, 218427, Note_on_c, 9, 35, 35
6, 218437, Note_on_c, 9, 36, 53
6, 218439, Note_on_c, 9, 38, 0
6, 218443, Note_on_c, 9, 35, 0
6, 218443, Note_on_c, 9, 44, 0
6, 218487, Note_on_c, 9, 46, 0
6, 218526, Note_on_c, 9, 36, 0
6, 218687, Note_on_c, 9, 40, 60
6, 218687, Note_on_c, 9, 40, 0
6, 218815, Note_on_c, 9, 38, 58
6, 218815, Note_on_c, 9, 35, 35
6, 218819, Note_on_c, 9, 38, 0
6, 218823, Note_on_c, 9, 35, 0
6, 218915, Note_on_c, 9, 39, 59
6, 218991, Note_on_c, 9, 39, 0
6, 219067, Note_on_c, 9, 46, 62
6, 219071, Note_on_c, 9, 40, 60
6, 219074, Note_on_c, 9, 36, 58
6, 219083, Note_on_c, 9, 40, 0
6, 219118, Note_on_c, 9, 46, 0
6, 219157, Note_on_c, 9, 36, 0
6, 219195, Note_on_c, 9, 44, 82
6, 219199, Note_on_c, 9, 38, 77
6, 219199, Note_on_c, 9, 35, 35
6, 219211, Note_on_c, 9, 35, 0
6, 219215, Note_on_c, 9, 38, 0
6, 219215, Note_on_c, 9, 44, 0
6, 219451, Note_on_c, 9, 40, 60
6, 219467, Note_on_c, 9, 40, 0
6, 219579, Note_on_c, 9, 38, 58
6, 219583, Note_on_c, 9, 35, 35
6, 219587, Note_on_c, 9, 35, 0
6, 219587, Note_on_c, 9, 38, 0
6, 219835, Note_on_c, 9, 40, 60
6, 219851, Note_on_c, 9, 40, 0
6, 219967, Note_on_c, 9, 38, 58
6, 219967, Note_on_c, 9, 44, 82
6, 219967, Note_on_c, 9, 35, 35
6, 219983, Note_on_c, 9, 44, 0
6, 219983, Note_on_c, 9, 38, 0
6, 219987, Note_on_c, 9, 35, 0
6, 220219, Note_on_c, 9, 40, 60
6, 220239, Note_on_c, 9, 40, 0
6, 220347, Note_on_c, 9, 38, 58
6, 220355, Note_on_c, 9, 35, 35
6, 220359, Note_on_c, 9, 35, 0
6, 220359, Note_on_c, 9, 38, 0
6, 220607, Note_on_c, 9, 40, 60
6, 220623, Note_on_c, 9, 40, 0
6, 220735, Note_on_c, 9, 38, 77
6, 220735, Note_on_c, 9, 44, 82
6, 220735, Note_on_c, 9, 35, 35
6, 220747, Note_on_c, 9, 44, 0
6, 220751, Note_on_c, 9, 35, 0
6, 220751, Note_on_c, 9, 38, 0
6, 220987, Note_on_c, 9, 40, 60
6, 221000, Note_on_c, 9, 39, 44
6, 221003, Note_on_c, 9, 40, 0
6, 221066, Note_on_c, 9, 39, 0
6, 221115, Note_on_c, 9, 38, 58
6, 221119, Note_on_c, 9, 35, 35
6, 221127, Note_on_c, 9, 35, 0
6, 221127, Note_on_c, 9, 38, 0
6, 221141, Note_on_c, 9, 39, 30
6, 221230, Note_on_c, 9, 39, 0
6, 221371, Note_on_c, 9, 40, 60
6, 221387, Note_on_c, 9, 40, 0
6, 221499, Note_on_c, 9, 38, 58
6, 221499, Note_on_c, 9, 44, 82
6, 221511, Note_on_c, 9, 44, 0
6, 221511, Note_on_c, 9, 38, 0
6, 221511, Note_on_c, 9, 35, 35
6, 221511, Note_on_c, 9, 35, 0
6, 221752, Note_on_c, 9, 39, 51
6, 221755, Note_on_c, 9, 40, 60
6, 221775, Note_on_c, 9, 40, 0
6, 221810, Note_on_c, 9, 39, 0
6, 221883, Note_on_c, 9, 35, 35
6, 221887, Note_on_c, 9, 38, 58
6, 221895, Note_on_c, 9, 38, 0
6, 221895, Note_on_c, 9, 35, 0
6, 222139, Note_on_c, 9, 40, 60
6, 222159, Note_on_c, 9, 40, 0
6, 222267, Note_on_c, 9, 38, 77
6, 222271, Note_on_c, 9, 35, 35
6, 222275, Note_on_c, 9, 46, 62
6, 222287, Note_on_c, 9, 46, 0
6, 222287, Note_on_c, 9, 35, 0
6, 222287, Note_on_c, 9, 38, 0
6, 222527, Note_on_c, 9, 40, 60
6, 222539, Note_on_c, 9, 40, 0
6, 222655, Note_on_c, 9, 38, 58
6, 222655, Note_on_c, 9, 35, 35
6, 222663, Note_on_c, 9, 35, 0
6, 222663, Note_on_c, 9, 38, 0
6, 222907, Note_on_c, 9, 40, 60
6, 222923, Note_on_c, 9, 40, 0
6, 223035, Note_on_c, 9, 38, 58
6, 223035, Note_on_c, 9, 35, 35
6, 223043, Note_on_c, 9, 44, 82
6, 223047, Note_on_c, 9, 44, 0
6, 223051, Note_on_c, 9, 35, 0
6, 223051, Note_on_c, 9, 38, 0
6, 223291, Note_on_c, 9, 40, 60
6, 223303, Note_on_c, 9, 40, 0
6, 223423, Note_on_c, 9, 38, 58
6, 223423, Note_on_c, 9, 35, 35
6, 223427, Note_on_c, 9, 35, 0
6, 223427, Note_on_c, 9, 38, 0
6, 223664, Note_on_c, 9, 39, 54
6, 223675, Note_on_c, 9, 40, 60
6, 223695, Note_on_c, 9, 40, 0
6, 223761, Note_on_c, 9, 39, 0
6, 223811, Note_on_c, 9, 38, 77
6, 223811, Note_on_c, 9, 44, 82
6, 223811, Note_on_c, 9, 35, 35
6, 223823, Note_on_c, 9, 35, 0
6, 223823, Note_on_c, 9, 44, 0
6, 223823, Note_on_c, 9, 38, 0
6, 223841, Note_on_c, 9, 36, 25
6, 223905, Note_on_c, 9, 36, 0
6, 224059, Note_on_c, 9, 40, 60
6, 224060, Note_on_c, 9, 36, 41
6, 224079, Note_on_c, 9, 40, 0
6, 224113, Note_on_c, 9, 36, 0
6, 224195, Note_on_c, 9, 38, 58
6, 224195, Note_on_c, 9, 35, 30
6, 224211, Note_on_c, 9, 35, 0
6, 224211, Note_on_c, 9, 38, 0
6, 224443, Note_on_c, 9, 40, 45
6, 224448, Note_on_c, 9, 39, 77
6, 224491, Note_on_c, 9, 40, 0
6, 224549, Note_on_c, 9, 39, 0
6, 224579, Note_on_c, 9, 38, 58
6, 224579, Note_on_c, 9, 44, 82
6, 224579, Note_on_c, 9, 35, 35
6, 224595, Note_on_c, 9, 35, 0
6, 224595, Note_on_c, 9, 44, 0
6, 224595, Note_on_c, 9, 38, 0
6, 224835, Note_on_c, 9, 40, 45
6, 224883, Note_on_c, 9, 40, 0
6, 224963, Note_on_c, 9, 38, 58
6, 224963, Note_on_c, 9, 35, 35
6, 224979, Note_on_c, 9, 35, 0
6, 224979, Note_on_c, 9, 38, 0
6, 225211, Note_on_c, 9, 40, 45
6, 225215, Note_on_c, 9, 39, 61
6, 225259, Note_on_c, 9, 40, 0
6, 225305, Note_on_c, 9, 39, 0
6, 225339, Note_on_c, 9, 35, 35
6, 225347, Note_on_c, 9, 38, 77
6, 225347, Note_on_c, 9, 44, 82
6, 225351, Note_on_c, 9, 35, 0
6, 225355, Note_on_c, 9, 44, 0
6, 225355, Note_on_c, 9, 38, 0
6, 225595, Note_on_c, 9, 40, 45
6, 225617, Note_on_c, 9, 39, 78
6, 225643, Note_on_c, 9, 40, 0
6, 225723, Note_on_c, 9, 38, 58
6, 225723, Note_on_c, 9, 35, 35
6, 225731, Note_on_c, 9, 35, 0
6, 225731, Note_on_c, 9, 38, 0
6, 225745, Note_on_c, 9, 39, 0
6, 225979, Note_on_c, 9, 40, 45
6, 225999, Note_on_c, 9, 39, 79
6, 226027, Note_on_c, 9, 40, 0
6, 226107, Note_on_c, 9, 35, 35
6, 226111, Note_on_c, 9, 35, 0
6, 226111, Note_on_c, 9, 38, 58
6, 226115, Note_on_c, 9, 38, 0
6, 226115, Note_on_c, 9, 44, 82
6, 226115, Note_on_c, 9, 44, 0
6, 226116, Note_on_c, 9, 39, 0
6, 226367, Note_on_c, 9, 40, 45
6, 226374, Note_on_c, 9, 39, 83
6, 226411, Note_on_c, 9, 40, 0
6, 226491, Note_on_c, 9, 38, 58
6, 226495, Note_on_c, 9, 38, 0
6, 226495, Note_on_c, 9, 35, 35
6, 226499, Note_on_c, 9, 35, 0
6, 226510, Note_on_c, 9, 39, 0
6, 226747, Note_on_c, 9, 40, 60
6, 226763, Note_on_c, 9, 40, 0
6, 226768, Note_on_c, 9, 39, 90
6, 226875, Note_on_c, 9, 46, 62
6, 226879, Note_on_c, 9, 38, 77
6, 226879, Note_on_c, 9, 35, 35
6, 226891, Note_on_c, 9, 35, 0
6, 226891, Note_on_c, 9, 38, 0
6, 226891, Note_on_c, 9, 46, 0
6, 226956, Note_on_c, 9, 39, 0
6, 227135, Note_on_c, 9, 40, 60
6, 227141, Note_on_c, 9, 39, 84
6, 227147, Note_on_c, 9, 40, 0
6, 227259, Note_on_c, 9, 35, 35
6, 227263, Note_on_c, 9, 38, 58
6, 227267, Note_on_c, 9, 38, 0
6, 227267, Note_on_c, 9, 35, 0
6, 227289, Note_on_c, 9, 39, 0
6, 227313, Note_on_c, 9, 36, 53
6, 227424, Note_on_c, 9, 36, 0
6, 227515, Note_on_c, 9, 40, 60
6, 227535, Note_on_c, 9, 40, 0
6, 227643, Note_on_c, 9, 44, 82
6, 227647, Note_on_c, 9, 38, 58
6, 227651, Note_on_c, 9, 44, 0
6, 227651, Note_on_c, 9, 35, 35
6, 227651, Note_on_c, 9, 35, 0
6, 227655, Note_on_c, 9, 38, 0
6, 227903, Note_on_c, 9, 40, 60
6, 227915, Note_on_c, 9, 40, 0
6, 228027, Note_on_c, 9, 38, 58
6, 228031, Note_on_c, 9, 35, 35
6, 228039, Note_on_c, 9, 35, 0
6, 228039, Note_on_c, 9, 38, 0
6, 228271, Note_on_c, 9, 39, 34
6, 228287, Note_on_c, 9, 40, 60
6, 228299, Note_on_c, 9, 40, 0
6, 228340, Note_on_c, 9, 39, 0
6, 228411, Note_on_c, 9, 35, 35
6, 228415, Note_on_c, 9, 44, 82
6, 228419, Note_on_c, 9, 35, 0
6, 228419, Note_on_c, 9, 38, 77
6, 228423, Note_on_c, 9, 38, 0
6, 228423, Note_on_c, 9, 44, 0
6, 228667, Note_on_c, 9, 40, 60
6, 228683, Note_on_c, 9, 40, 0
6, 228703, Note_on_c, 9, 38, 81
6, 228747, Note_on_c, 9, 38, 0
6, 228799, Note_on_c, 9, 38, 81
6, 228799, Note_on_c, 9, 35, 35
6, 228803, Note_on_c, 9, 38, 58
6, 228807, Note_on_c, 9, 35, 0
6, 228807, Note_on_c, 9, 38, 0
6, 228843, Note_on_c, 9, 38, 0
6, 229051, Note_on_c, 9, 40, 60
6, 229067, Note_on_c, 9, 40, 0
6, 229179, Note_on_c, 9, 35, 35
6, 229183, Note_on_c, 9, 38, 58
6, 229187, Note_on_c, 9, 44, 82
6, 229195, Note_on_c, 9, 44, 0
6, 229195, Note_on_c, 9, 38, 0
6, 229195, Note_on_c, 9, 35, 0
6, 229435, Note_on_c, 9, 40, 60
6, 229451, Note_on_c, 9, 40, 0
6, 229452, Note_on_c, 9, 39, 28
6, 229503, Note_on_c, 9, 39, 0
6, 229563, Note_on_c, 9, 35, 35
6, 229567, Note_on_c, 9, 38, 58
6, 229567, Note_on_c, 9, 38, 0
6, 229568, Note_on_c, 9, 39, 25
6, 229575, Note_on_c, 9, 35, 0
6, 229718, Note_on_c, 9, 39, 0
6, 229804, Note_on_c, 9, 39, 59
6, 229823, Note_on_c, 9, 40, 60
6, 229835, Note_on_c, 9, 40, 0
6, 229913, Note_on_c, 9, 39, 0
6, 229947, Note_on_c, 9, 44, 82
6, 229951, Note_on_c, 9, 35, 35
6, 229954, Note_on_c, 9, 39, 67
6, 229955, Note_on_c, 9, 38, 77
6, 229959, Note_on_c, 9, 38, 0
6, 229959, Note_on_c, 9, 44, 0
6, 229959, Note_on_c, 9, 35, 0
6, 230106, Note_on_c, 9, 39, 0
6, 230162, Note_on_c, 9, 39, 74
6, 230203, Note_on_c, 9, 40, 60
6, 230211, Note_on_c, 9, 40, 0
6, 230290, Note_on_c, 9, 39, 0
6, 230298, Note_on_c, 9, 46, 69
6, 230331, Note_on_c, 9, 38, 58
6, 230332, Note_on_c, 9, 36, 51
6, 230335, Note_on_c, 9, 35, 35
6, 230339, Note_on_c, 9, 35, 0
6, 230339, Note_on_c, 9, 38, 0
6, 230359, Note_on_c, 9, 46, 0
6, 230429, Note_on_c, 9, 36, 0
6, 230587, Note_on_c, 9, 40, 60
6, 230588, Note_on_c, 9, 36, 38
6, 230603, Note_on_c, 9, 40, 0
6, 230626, Note_on_c, 9, 36, 0
6, 230715, Note_on_c, 9, 44, 82
6, 230715, Note_on_c, 9, 35, 35
6, 230719, Note_on_c, 9, 38, 58
6, 230731, Note_on_c, 9, 38, 0
6, 230735, Note_on_c, 9, 35, 0
6, 230739, Note_on_c, 9, 44, 0
6, 230971, Note_on_c, 9, 40, 60
6, 230987, Note_on_c, 9, 40, 0
6, 231099, Note_on_c, 9, 38, 58
6, 231099, Note_on_c, 9, 35, 35
6, 231107, Note_on_c, 9, 35, 0
6, 231107, Note_on_c, 9, 38, 0
6, 231355, Note_on_c, 9, 40, 60
6, 231375, Note_on_c, 9, 40, 0
6, 231487, Note_on_c, 9, 38, 77
6, 231487, Note_on_c, 9, 44, 82
6, 231487, Note_on_c, 9, 35, 35
6, 231503, Note_on_c, 9, 35, 0
6, 231503, Note_on_c, 9, 44, 0
6, 231503, Note_on_c, 9, 38, 0
6, 231743, Note_on_c, 9, 40, 60
6, 231755, Note_on_c, 9, 40, 0
6, 231866, Note_on_c, 9, 46, 49
6, 231871, Note_on_c, 9, 38, 58
6, 231871, Note_on_c, 9, 35, 35
6, 231875, Note_on_c, 9, 35, 0
6, 231879, Note_on_c, 9, 38, 0
6, 231902, Note_on_c, 9, 46, 0
6, 232123, Note_on_c, 9, 40, 60
6, 232143, Note_on_c, 9, 40, 0
6, 232251, Note_on_c, 9, 38, 58
6, 232255, Note_on_c, 9, 44, 82
6, 232255, Note_on_c, 9, 35, 35
6, 232271, Note_on_c, 9, 35, 0
6, 232271, Note_on_c, 9, 44, 0
6, 232271, Note_on_c, 9, 38, 0
6, 232507, Note_on_c, 9, 40, 60
6, 232523, Note_on_c, 9, 40, 0
6, 232635, Note_on_c, 9, 38, 58
6, 232639, Note_on_c, 9, 35, 35
6, 232643, Note_on_c, 9, 35, 0
6, 232647, Note_on_c, 9, 38, 0
6, 232750, Note_on_c, 9, 39, 44
6, 232819, Note_on_c, 9, 39, 0
6, 232891, Note_on_c, 9, 40, 60
6, 232911, Note_on_c, 9, 40, 0
6, 233023, Note_on_c, 9, 38, 77
6, 233027, Note_on_c, 9, 44, 82
6, 233027, Note_on_c, 9, 35, 35
6, 233030, Note_on_c, 9, 39, 53
6, 233035, Note_on_c, 9, 44, 0
6, 233035, Note_on_c, 9, 38, 0
6, 233039, Note_on_c, 9, 35, 0
6, 233102, Note_on_c, 9, 39, 0
6, 233275, Note_on_c, 9, 40, 60
6, 233285, Note_on_c, 9, 36, 59
6, 233295, Note_on_c, 9, 40, 0
6, 233321, Note_on_c, 9, 36, 0
6, 233407, Note_on_c, 9, 38, 58
6, 233407, Note_on_c, 9, 35, 35
6, 233415, Note_on_c, 9, 35, 0
6, 233415, Note_on_c, 9, 38, 0
6, 233659, Note_on_c, 9, 40, 60
6, 233679, Note_on_c, 9, 40, 0
6, 233787, Note_on_c, 9, 38, 58
6, 233795, Note_on_c, 9, 44, 82
6, 233795, Note_on_c, 9, 35, 35
6, 233799, Note_on_c, 9, 35, 0
6, 233803, Note_on_c, 9, 44, 0
6, 233803, Note_on_c, 9, 38, 0
6, 234043, Note_on_c, 9, 40, 60
6, 234059, Note_on_c, 9, 40, 0
6, 234171, Note_on_c, 9, 38, 58
6, 234171, Note_on_c, 9, 35, 35
6, 234183, Note_on_c, 9, 35, 0
6, 234183, Note_on_c, 9, 38, 0
6, 234199, Note_on_c, 9, 39, 36
6, 234227, Note_on_c, 9, 39, 0
6, 234286, Note_on_c, 9, 39, 51
6, 234341, Note_on_c, 9, 39, 0
6, 234427, Note_on_c, 9, 40, 60
6, 234443, Note_on_c, 9, 40, 0
6, 234555, Note_on_c, 9, 38, 77
6, 234555, Note_on_c, 9, 35, 35
6, 234559, Note_on_c, 9, 44, 82
6, 234563, Note_on_c, 9, 44, 0
6, 234567, Note_on_c, 9, 35, 0
6, 234567, Note_on_c, 9, 38, 0
6, 234572, Note_on_c, 9, 39, 57
6, 234625, Note_on_c, 9, 39, 0
6, 234811, Note_on_c, 9, 40, 60
6, 234819, Note_on_c, 9, 40, 0
6, 234824, Note_on_c, 9, 36, 74
6, 234902, Note_on_c, 9, 36, 0
6, 234939, Note_on_c, 9, 38, 58
6, 234943, Note_on_c, 9, 35, 35
6, 234955, Note_on_c, 9, 35, 0
6, 234955, Note_on_c, 9, 38, 0
6, 235102, Note_on_c, 9, 39, 50
6, 235138, Note_on_c, 9, 39, 0
6, 235199, Note_on_c, 9, 40, 60
6, 235211, Note_on_c, 9, 40, 0
6, 235216, Note_on_c, 9, 39, 54
6, 235273, Note_on_c, 9, 39, 0
6, 235323, Note_on_c, 9, 35, 35
6, 235327, Note_on_c, 9, 38, 58
6, 235331, Note_on_c, 9, 38, 0
6, 235331, Note_on_c, 9, 44, 82
6, 235331, Note_on_c, 9, 44, 0
6, 235335, Note_on_c, 9, 35, 0
6, 235369, Note_on_c, 9, 36, 45
6, 235408, Note_on_c, 9, 36, 0
6, 235583, Note_on_c, 9, 40, 60
6, 235595, Note_on_c, 9, 40, 0
6, 235707, Note_on_c, 9, 38, 58
6, 235707, Note_on_c, 9, 35, 35
6, 235711, Note_on_c, 9, 38, 0
6, 235715, Note_on_c, 9, 35, 0
6, 235963, Note_on_c, 9, 40, 60
6, 235967, Note_on_c, 9, 40, 0
6, 236095, Note_on_c, 9, 38, 77
6, 236095, Note_on_c, 9, 46, 62
6, 236095, Note_on_c, 9, 35, 35
6, 236103, Note_on_c, 9, 35, 0
6, 236103, Note_on_c, 9, 46, 0
6, 236103, Note_on_c, 9, 38, 0
6, 236347, Note_on_c, 9, 40, 60
6, 236363, Note_on_c, 9, 40, 0
6, 236483, Note_on_c, 9, 38, 58
6, 236483, Note_on_c, 9, 35, 30
6, 236491, Note_on_c, 9, 35, 0
6, 236495, Note_on_c, 9, 38, 0
6, 236588, Note_on_c, 9, 39, 53
6, 236649, Note_on_c, 9, 39, 0
6, 236712, Note_on_c, 9, 39, 60
6, 236731, Note_on_c, 9, 40, 45
6, 236779, Note_on_c, 9, 40, 0
6, 236815, Note_on_c, 9, 39, 0
6, 236867, Note_on_c, 9, 44, 82
6, 236875, Note_on_c, 9, 38, 58
6, 236875, Note_on_c, 9, 35, 35
6, 236883, Note_on_c, 9, 35, 0
6, 236883, Note_on_c, 9, 38, 0
6, 236883, Note_on_c, 9, 44, 0
6, 236907, Note_on_c, 9, 36, 32
6, 236940, Note_on_c, 9, 36, 0
6, 237123, Note_on_c, 9, 40, 45
6, 237171, Note_on_c, 9, 40, 0
6, 237251, Note_on_c, 9, 38, 58
6, 237251, Note_on_c, 9, 35, 35
6, 237267, Note_on_c, 9, 35, 0
6, 237267, Note_on_c, 9, 38, 0
6, 237499, Note_on_c, 9, 40, 45
6, 237547, Note_on_c, 9, 40, 0
6, 237627, Note_on_c, 9, 35, 35
6, 237639, Note_on_c, 9, 35, 0
6, 237639, Note_on_c, 9, 38, 77
6, 237639, Note_on_c, 9, 44, 82
6, 237643, Note_on_c, 9, 44, 0
6, 237643, Note_on_c, 9, 38, 0
6, 237876, Note_on_c, 9, 39, 58
6, 237883, Note_on_c, 9, 40, 45
6, 237931, Note_on_c, 9, 40, 0
6, 237982, Note_on_c, 9, 39, 0
6, 238015, Note_on_c, 9, 38, 58
6, 238015, Note_on_c, 9, 35, 35
6, 238019, Note_on_c, 9, 35, 0
6, 238023, Note_on_c, 9, 38, 0
6, 238054, Note_on_c, 9, 36, 37
6, 238173, Note_on_c, 9, 36, 0
6, 238267, Note_on_c, 9, 40, 45
6, 238267, Note_on_c, 9, 36, 46
6, 238303, Note_on_c, 9, 36, 0
6, 238315, Note_on_c, 9, 40, 0
6, 238399, Note_on_c, 9, 38, 58
6, 238399, Note_on_c, 9, 35, 35
6, 238403, Note_on_c, 9, 35, 0
6, 238403, Note_on_c, 9, 44, 82
6, 238411, Note_on_c, 9, 44, 0
6, 238411, Note_on_c, 9, 38, 0
6, 238651, Note_on_c, 9, 40, 45
6, 238699, Note_on_c, 9, 40, 0
6, 238783, Note_on_c, 9, 38, 58
6, 238783, Note_on_c, 9, 38, 0
6, 238787, Note_on_c, 9, 35, 35
6, 238791, Note_on_c, 9, 35, 0
6, 239039, Note_on_c, 9, 40, 60
6, 239051, Note_on_c, 9, 40, 0
6, 239167, Note_on_c, 9, 38, 77
6, 239167, Note_on_c, 9, 44, 82
6, 239167, Note_on_c, 9, 35, 35
6, 239179, Note_on_c, 9, 35, 0
6, 239179, Note_on_c, 9, 44, 0
6, 239179, Note_on_c, 9, 38, 0
6, 239419, Note_on_c, 9, 40, 60
6, 239435, Note_on_c, 9, 40, 0
6, 239551, Note_on_c, 9, 38, 58
6, 239551, Note_on_c, 9, 35, 35
6, 239555, Note_on_c, 9, 35, 0
6, 239555, Note_on_c, 9, 38, 0
6, 239803, Note_on_c, 9, 40, 60
6, 239819, Note_on_c, 9, 40, 0
6, 239931, Note_on_c, 9, 44, 82
6, 239935, Note_on_c, 9, 38, 58
6, 239943, Note_on_c, 9, 35, 35
6, 239943, Note_on_c, 9, 35, 0
6, 239947, Note_on_c, 9, 38, 0
6, 239947, Note_on_c, 9, 44, 0
6, 240187, Note_on_c, 9, 40, 60
6, 240195, Note_on_c, 9, 39, 30
6, 240203, Note_on_c, 9, 40, 0
6, 240235, Note_on_c, 9, 39, 0
6, 240319, Note_on_c, 9, 38, 58
6, 240319, Note_on_c, 9, 35, 35
6, 240323, Note_on_c, 9, 35, 0
6, 240327, Note_on_c, 9, 38, 0
6, 240572, Note_on_c, 9, 39, 51
6, 240575, Note_on_c, 9, 40, 60
6, 240591, Note_on_c, 9, 40, 0
6, 240655, Note_on_c, 9, 39, 0
6, 240703, Note_on_c, 9, 35, 35
6, 240707, Note_on_c, 9, 35, 0
6, 240707, Note_on_c, 9, 38, 77
6, 240707, Note_on_c, 9, 44, 82
6, 240711, Note_on_c, 9, 44, 0
6, 240711, Note_on_c, 9, 38, 0
6, 240959, Note_on_c, 9, 40, 60
6, 240963, Note_on_c, 9, 40, 0
6, 240965, Note_on_c, 9, 39, 45
6, 240987, Note_on_c, 9, 38, 81
6, 241031, Note_on_c, 9, 38, 0
6, 241038, Note_on_c, 9, 39, 0
6, 241083, Note_on_c, 9, 38, 81
6, 241087, Note_on_c, 9, 38, 58
6, 241087, Note_on_c, 9, 35, 35
6, 241091, Note_on_c, 9, 35, 0
6, 241095, Note_on_c, 9, 38, 0
6, 241131, Note_on_c, 9, 38, 0
6, 241339, Note_on_c, 9, 40, 60
6, 241347, Note_on_c, 9, 40, 0
6, 241467, Note_on_c, 9, 35, 35
6, 241471, Note_on_c, 9, 38, 58
6, 241475, Note_on_c, 9, 44, 82
6, 241475, Note_on_c, 9, 44, 0
6, 241479, Note_on_c, 9, 38, 0
6, 241479, Note_on_c, 9, 35, 0
6, 241708, Note_on_c, 9, 39, 50
6, 241727, Note_on_c, 9, 40, 60
6, 241739, Note_on_c, 9, 40, 0
6, 241789, Note_on_c, 9, 39, 0
6, 241851, Note_on_c, 9, 35, 35
6, 241855, Note_on_c, 9, 38, 58
6, 241855, Note_on_c, 9, 38, 0
6, 241859, Note_on_c, 9, 35, 0
6, 242082, Note_on_c, 9, 36, 80
6, 242107, Note_on_c, 9, 40, 60
6, 242127, Note_on_c, 9, 40, 0
6, 242183, Note_on_c, 9, 36, 0
6, 242235, Note_on_c, 9, 44, 82
6, 242239, Note_on_c, 9, 35, 35
6, 242243, Note_on_c, 9, 38, 77
6, 242247, Note_on_c, 9, 36, 74
6, 242251, Note_on_c, 9, 38, 0
6, 242251, Note_on_c, 9, 44, 0
6, 242251, Note_on_c, 9, 35, 0
6, 242380, Note_on_c, 9, 36, 0
6, 242495, Note_on_c, 9, 40, 60
6, 242507, Note_on_c, 9, 40, 0
6, 242623, Note_on_c, 9, 38, 58
6, 242623, Note_on_c, 9, 38, 0
6, 242623, Note_on_c, 9, 35, 35
6, 242627, Note_on_c, 9, 35, 0
6, 242663, Note_on_c, 9, 38, 58
6, 242663, Note_on_c, 9, 35, 30
6, 242671, Note_on_c, 9, 35, 0
6, 242683, Note_on_c, 9, 38, 0
6, 242875, Note_on_c, 9, 40, 45
6, 242923, Note_on_c, 9, 40, 0
6, 243011, Note_on_c, 9, 38, 58
6, 243011, Note_on_c, 9, 44, 82
6, 243011, Note_on_c, 9, 35, 35
6, 243015, Note_on_c, 9, 44, 0
6, 243019, Note_on_c, 9, 35, 0
6, 243023, Note_on_c, 9, 38, 0
6, 243267, Note_on_c, 9, 40, 45
6, 243294, Note_on_c, 9, 39, 25
6, 243315, Note_on_c, 9, 40, 0
6, 243328, Note_on_c, 9, 39, 0
6, 243395, Note_on_c, 9, 38, 58
6, 243395, Note_on_c, 9, 35, 35
6, 243411, Note_on_c, 9, 35, 0
6, 243411, Note_on_c, 9, 38, 0
6, 243643, Note_on_c, 9, 40, 45
6, 243644, Note_on_c, 9, 39, 53
6, 243687, Note_on_c, 9, 40, 0
6, 243741, Note_on_c, 9, 39, 0
6, 243775, Note_on_c, 9, 35, 35
6, 243779, Note_on_c, 9, 38, 77
6, 243779, Note_on_c, 9, 44, 82
6, 243783, Note_on_c, 9, 35, 0
6, 243787, Note_on_c, 9, 44, 0
6, 243787, Note_on_c, 9, 38, 0
6, 243821, Note_on_c, 9, 36, 27
6, 243886, Note_on_c, 9, 36, 0
6, 244027, Note_on_c, 9, 40, 45
6, 244075, Note_on_c, 9, 40, 0
6, 244159, Note_on_c, 9, 38, 58
6, 244159, Note_on_c, 9, 35, 35
6, 244163, Note_on_c, 9, 35, 0
6, 244167, Note_on_c, 9, 38, 0
6, 244411, Note_on_c, 9, 40, 45
6, 244459, Note_on_c, 9, 40, 0
6, 244543, Note_on_c, 9, 38, 58
6, 244543, Note_on_c, 9, 35, 35
6, 244543, Note_on_c, 9, 35, 0
6, 244547, Note_on_c, 9, 38, 0
6, 244547, Note_on_c, 9, 44, 82
6, 244547, Note_on_c, 9, 44, 0
6, 244785, Note_on_c, 9, 39, 52
6, 244795, Note_on_c, 9, 40, 45
6, 244843, Note_on_c, 9, 40, 0
6, 244868, Note_on_c, 9, 39, 0
6, 244923, Note_on_c, 9, 38, 58
6, 244927, Note_on_c, 9, 38, 0
6, 244927, Note_on_c, 9, 35, 35
6, 244931, Note_on_c, 9, 35, 0
6, 245149, Note_on_c, 9, 36, 57
6, 245179, Note_on_c, 9, 40, 60
6, 245199, Note_on_c, 9, 40, 0
6, 245231, Note_on_c, 9, 36, 0
6, 245311, Note_on_c, 9, 38, 77
6, 245311, Note_on_c, 9, 44, 82
6, 245315, Note_on_c, 9, 35, 35
6, 245323, Note_on_c, 9, 35, 0
6, 245327, Note_on_c, 9, 44, 0
6, 245327, Note_on_c, 9, 38, 0
6, 245563, Note_on_c, 9, 40, 60
6, 245571, Note_on_c, 9, 40, 0
6, 245691, Note_on_c, 9, 35, 35
6, 245695, Note_on_c, 9, 38, 58
6, 245703, Note_on_c, 9, 38, 0
6, 245703, Note_on_c, 9, 35, 0
6, 245916, Note_on_c, 9, 39, 51
6, 245947, Note_on_c, 9, 40, 60
6, 245963, Note_on_c, 9, 40, 0
6, 246010, Note_on_c, 9, 39, 0
6, 246075, Note_on_c, 9, 44, 82
6, 246079, Note_on_c, 9, 38, 58
6, 246083, Note_on_c, 9, 35, 35
6, 246087, Note_on_c, 9, 35, 0
6, 246087, Note_on_c, 9, 38, 0
6, 246087, Note_on_c, 9, 44, 0
6, 246331, Note_on_c, 9, 40, 60
6, 246347, Note_on_c, 9, 40, 0
6, 246459, Note_on_c, 9, 38, 58
6, 246463, Note_on_c, 9, 35, 35
6, 246467, Note_on_c, 9, 35, 0
6, 246471, Note_on_c, 9, 38, 0
6, 246715, Note_on_c, 9, 40, 60
6, 246735, Note_on_c, 9, 40, 0
6, 246843, Note_on_c, 9, 35, 35
6, 246847, Note_on_c, 9, 44, 82
6, 246851, Note_on_c, 9, 35, 0
6, 246851, Note_on_c, 9, 38, 77
6, 246855, Note_on_c, 9, 38, 0
6, 246855, Note_on_c, 9, 44, 0
6, 247091, Note_on_c, 9, 39, 54
6, 247103, Note_on_c, 9, 40, 60
6, 247111, Note_on_c, 9, 40, 0
6, 247135, Note_on_c, 9, 38, 81
6, 247179, Note_on_c, 9, 38, 0
6, 247182, Note_on_c, 9, 39, 0
6, 247231, Note_on_c, 9, 38, 81
6, 247231, Note_on_c, 9, 35, 35
6, 247235, Note_on_c, 9, 38, 58
6, 247243, Note_on_c, 9, 35, 0
6, 247243, Note_on_c, 9, 38, 0
6, 247271, Note_on_c, 9, 38, 0
6, 247479, Note_on_c, 9, 36, 52
6, 247487, Note_on_c, 9, 40, 60
6, 247499, Note_on_c, 9, 40, 0
6, 247514, Note_on_c, 9, 36, 0
6, 247611, Note_on_c, 9, 35, 35
6, 247615, Note_on_c, 9, 38, 58
6, 247615, Note_on_c, 9, 44, 82
6, 247619, Note_on_c, 9, 44, 0
6, 247623, Note_on_c, 9, 38, 0
6, 247623, Note_on_c, 9, 35, 0
6, 247867, Note_on_c, 9, 40, 60
6, 247878, Note_on_c, 9, 36, 66
6, 247883, Note_on_c, 9, 40, 0
6, 247965, Note_on_c, 9, 36, 0
6, 247995, Note_on_c, 9, 35, 35
6, 247999, Note_on_c, 9, 38, 58
6, 248003, Note_on_c, 9, 38, 0
6, 248003, Note_on_c, 9, 35, 0
6, 248251, Note_on_c, 9, 40, 60
6, 248255, Note_on_c, 9, 40, 0
6, 248369, Note_on_c, 9, 46, 59
6, 248379, Note_on_c, 9, 46, 62
6, 248383, Note_on_c, 9, 35, 35
6, 248387, Note_on_c, 9, 38, 77
6, 248391, Note_on_c, 9, 38, 0
6, 248391, Note_on_c, 9, 35, 0
6, 248391, Note_on_c, 9, 46, 0
6, 248408, Note_on_c, 9, 46, 0
6, 248639, Note_on_c, 9, 40, 60
6, 248655, Note_on_c, 9, 40, 0
6, 248767, Note_on_c, 9, 38, 58
6, 248767, Note_on_c, 9, 35, 35
6, 248771, Note_on_c, 9, 38, 0
6, 248775, Note_on_c, 9, 35, 0
6, 249023, Note_on_c, 9, 40, 60
6, 249035, Note_on_c, 9, 40, 0
6, 249151, Note_on_c, 9, 44, 82
6, 249151, Note_on_c, 9, 35, 35
6, 249155, Note_on_c, 9, 38, 58
6, 249163, Note_on_c, 9, 38, 0
6, 249167, Note_on_c, 9, 35, 0
6, 249167, Note_on_c, 9, 44, 0
6, 249403, Note_on_c, 9, 40, 60
6, 249419, Note_on_c, 9, 40, 0
6, 249531, Note_on_c, 9, 38, 58
6, 249535, Note_on_c, 9, 35, 35
6, 249539, Note_on_c, 9, 38, 0
6, 249543, Note_on_c, 9, 35, 0
6, 249648, Note_on_c, 9, 36, 54
6, 249677, Note_on_c, 9, 36, 0
6, 249787, Note_on_c, 9, 40, 60
6, 249797, Note_on_c, 9, 36, 49
6, 249803, Note_on_c, 9, 40, 0
6, 249877, Note_on_c, 9, 36, 0
6, 249919, Note_on_c, 9, 38, 77
6, 249919, Note_on_c, 9, 44, 82
6, 249919, Note_on_c, 9, 35, 35
6, 249931, Note_on_c, 9, 35, 0
6, 249935, Note_on_c, 9, 44, 0
6, 249939, Note_on_c, 9, 38, 0
6, 249945, Note_on_c, 9, 36, 53
6, 249976, Note_on_c, 9, 36, 0
6, 250171, Note_on_c, 9, 40, 60
6, 250187, Note_on_c, 9, 40, 0
6, 250299, Note_on_c, 9, 38, 58
6, 250303, Note_on_c, 9, 35, 35
6, 250311, Note_on_c, 9, 35, 0
6, 250315, Note_on_c, 9, 38, 0
6, 250555, Note_on_c, 9, 40, 60
6, 250571, Note_on_c, 9, 40, 0
6, 250683, Note_on_c, 9, 38, 58
6, 250687, Note_on_c, 9, 44, 82
6, 250687, Note_on_c, 9, 35, 35
6, 250695, Note_on_c, 9, 44, 0
6, 250699, Note_on_c, 9, 35, 0
6, 250699, Note_on_c, 9, 38, 0
6, 250933, Note_on_c, 9, 39, 63
6, 250943, Note_on_c, 9, 40, 60
6, 250955, Note_on_c, 9, 40, 0
6, 250961, Note_on_c, 9, 39, 0
6, 251071, Note_on_c, 9, 38, 58
6, 251071, Note_on_c, 9, 35, 35
6, 251079, Note_on_c, 9, 35, 0
6, 251079, Note_on_c, 9, 38, 0
6, 251323, Note_on_c, 9, 40, 60
6, 251333, Note_on_c, 9, 39, 88
6, 251339, Note_on_c, 9, 40, 0
6, 251390, Note_on_c, 9, 39, 0
6, 251451, Note_on_c, 9, 38, 77
6, 251455, Note_on_c, 9, 44, 82
6, 251455, Note_on_c, 9, 35, 35
6, 251467, Note_on_c, 9, 35, 0
6, 251467, Note_on_c, 9, 44, 0
6, 251467, Note_on_c, 9, 38, 0
6, 251492, Note_on_c, 9, 51, 51
6, 251494, Note_on_c, 9, 46, 57
6, 251520, Note_on_c, 9, 51, 0
6, 251528, Note_on_c, 9, 46, 0
6, 251707, Note_on_c, 9, 40, 60
6, 251713, Note_on_c, 9, 39, 64
6, 251719, Note_on_c, 9, 40, 0
6, 251762, Note_on_c, 9, 39, 0
6, 251835, Note_on_c, 9, 38, 58
6, 251839, Note_on_c, 9, 35, 35
6, 251843, Note_on_c, 9, 35, 0
6, 251843, Note_on_c, 9, 38, 0
6, 251896, Note_on_c, 9, 36, 30
6, 251947, Note_on_c, 9, 36, 0
6, 252091, Note_on_c, 9, 40, 60
6, 252099, Note_on_c, 9, 40, 0
6, 252223, Note_on_c, 9, 38, 58
6, 252223, Note_on_c, 9, 44, 82
6, 252227, Note_on_c, 9, 35, 35
6, 252231, Note_on_c, 9, 35, 0
6, 252231, Note_on_c, 9, 44, 0
6, 252231, Note_on_c, 9, 38, 0
6, 252454, Note_on_c, 9, 39, 69
6, 252475, Note_on_c, 9, 40, 60
6, 252495, Note_on_c, 9, 40, 0
6, 252518, Note_on_c, 9, 39, 0
6, 252586, Note_on_c, 9, 36, 44
6, 252603, Note_on_c, 9, 35, 35
6, 252607, Note_on_c, 9, 38, 58
6, 252615, Note_on_c, 9, 38, 0
6, 252615, Note_on_c, 9, 35, 0
6, 252628, Note_on_c, 9, 36, 0
6, 252863, Note_on_c, 9, 40, 60
6, 252871, Note_on_c, 9, 40, 0
6, 252991, Note_on_c, 9, 38, 77
6, 252991, Note_on_c, 9, 35, 35
6, 252995, Note_on_c, 9, 44, 82
6, 253003, Note_on_c, 9, 44, 0
6, 253007, Note_on_c, 9, 35, 0
6, 253007, Note_on_c, 9, 38, 0
6, 253243, Note_on_c, 9, 40, 60
6, 253259, Note_on_c, 9, 40, 0
6, 253371, Note_on_c, 9, 38, 58
6, 253371, Note_on_c, 9, 35, 35
6, 253379, Note_on_c, 9, 35, 0
6, 253379, Note_on_c, 9, 38, 0
6, 253608, Note_on_c, 9, 39, 54
6, 253627, Note_on_c, 9, 40, 60
6, 253635, Note_on_c, 9, 40, 0
6, 253679, Note_on_c, 9, 39, 0
6, 253759, Note_on_c, 9, 38, 58
6, 253759, Note_on_c, 9, 44, 82
6, 253759, Note_on_c, 9, 35, 35
6, 253767, Note_on_c, 9, 35, 0
6, 253767, Note_on_c, 9, 44, 0
6, 253767, Note_on_c, 9, 38, 0
6, 253992, Note_on_c, 9, 39, 49
6, 254011, Note_on_c, 9, 40, 60
6, 254031, Note_on_c, 9, 40, 0
6, 254090, Note_on_c, 9, 39, 0
6, 254128, Note_on_c, 9, 53, 52
6, 254139, Note_on_c, 9, 35, 35
6, 254143, Note_on_c, 9, 38, 58
6, 254143, Note_on_c, 9, 36, 48
6, 254147, Note_on_c, 9, 38, 0
6, 254147, Note_on_c, 9, 35, 0
6, 254181, Note_on_c, 9, 53, 0
6, 254226, Note_on_c, 9, 36, 0
6, 254399, Note_on_c, 9, 40, 60
6, 254411, Note_on_c, 9, 40, 0
6, 254527, Note_on_c, 9, 46, 62
6, 254527, Note_on_c, 9, 35, 35
6, 254531, Note_on_c, 9, 38, 77
6, 254539, Note_on_c, 9, 38, 0
6, 254543, Note_on_c, 9, 35, 0
6, 254543, Note_on_c, 9, 46, 0
6, 254765, Note_on_c, 9, 39, 57
6, 254783, Note_on_c, 9, 40, 60
6, 254795, Note_on_c, 9, 40, 0
6, 254853, Note_on_c, 9, 39, 0
6, 254906, Note_on_c, 9, 53, 56
6, 254915, Note_on_c, 9, 38, 58
6, 254915, Note_on_c, 9, 35, 30
6, 254931, Note_on_c, 9, 35, 0
6, 254931, Note_on_c, 9, 38, 0
6, 254933, Note_on_c, 9, 53, 0
6, 254938, Note_on_c, 9, 36, 47
6, 254984, Note_on_c, 9, 36, 0
6, 255163, Note_on_c, 9, 40, 45
6, 255211, Note_on_c, 9, 40, 0
6, 255299, Note_on_c, 9, 38, 58
6, 255299, Note_on_c, 9, 44, 82
6, 255299, Note_on_c, 9, 35, 35
6, 255315, Note_on_c, 9, 35, 0
6, 255315, Note_on_c, 9, 44, 0
6, 255319, Note_on_c, 9, 38, 0
6, 255555, Note_on_c, 9, 40, 45
6, 255603, Note_on_c, 9, 40, 0
6, 255683, Note_on_c, 9, 38, 58
6, 255683, Note_on_c, 9, 35, 35
6, 255691, Note_on_c, 9, 35, 0
6, 255691, Note_on_c, 9, 38, 0
6, 255931, Note_on_c, 9, 40, 45
6, 255979, Note_on_c, 9, 40, 0
6, 256059, Note_on_c, 9, 35, 35
6, 256067, Note_on_c, 9, 38, 77
6, 256067, Note_on_c, 9, 44, 82
6, 256071, Note_on_c, 9, 35, 0
6, 256075, Note_on_c, 9, 44, 0
6, 256075, Note_on_c, 9, 38, 0
6, 256315, Note_on_c, 9, 40, 45
6, 256363, Note_on_c, 9, 40, 0
6, 256447, Note_on_c, 9, 38, 58
6, 256447, Note_on_c, 9, 35, 35
6, 256451, Note_on_c, 9, 35, 0
6, 256455, Note_on_c, 9, 38, 0
6, 256699, Note_on_c, 9, 40, 45
6, 256747, Note_on_c, 9, 40, 0
6, 256827, Note_on_c, 9, 35, 35
6, 256831, Note_on_c, 9, 38, 58
6, 256835, Note_on_c, 9, 35, 0
6, 256835, Note_on_c, 9, 44, 82
6, 256839, Note_on_c, 9, 44, 0
6, 256839, Note_on_c, 9, 38, 0
6, 257069, Note_on_c, 9, 45, 45
6, 257083, Note_on_c, 9, 40, 45
6, 257100, Note_on_c, 9, 45, 0
6, 257131, Note_on_c, 9, 40, 0
6, 257211, Note_on_c, 9, 38, 58
6, 257215, Note_on_c, 9, 38, 0
6, 257215, Note_on_c, 9, 35, 35
6, 257219, Note_on_c, 9, 35, 0
6, 257447, Note_on_c, 9, 45, 62
6, 257467, Note_on_c, 9, 40, 60
6, 257475, Note_on_c, 9, 45, 0
6, 257483, Note_on_c, 9, 40, 0
6, 257603, Note_on_c, 9, 38, 77
6, 257603, Note_on_c, 9, 44, 82
6, 257603, Note_on_c, 9, 35, 35
6, 257615, Note_on_c, 9, 35, 0
6, 257615, Note_on_c, 9, 44, 0
6, 257615, Note_on_c, 9, 38, 0
6, 257844, Note_on_c, 9, 39, 60
6, 257851, Note_on_c, 9, 40, 60
6, 257871, Note_on_c, 9, 40, 0
6, 257968, Note_on_c, 9, 39, 0
6, 257979, Note_on_c, 9, 38, 58
6, 257979, Note_on_c, 9, 35, 35
6, 257987, Note_on_c, 9, 38, 0
6, 257991, Note_on_c, 9, 35, 0
6, 258023, Note_on_c, 9, 36, 25
6, 258071, Note_on_c, 9, 36, 0
6, 258239, Note_on_c, 9, 40, 60
6, 258243, Note_on_c, 9, 40, 0
6, 258363, Note_on_c, 9, 38, 58
6, 258363, Note_on_c, 9, 44, 82
6, 258371, Note_on_c, 9, 35, 35
6, 258375, Note_on_c, 9, 35, 0
6, 258375, Note_on_c, 9, 44, 0
6, 258375, Note_on_c, 9, 38, 0
6, 258619, Note_on_c, 9, 40, 60
6, 258635, Note_on_c, 9, 40, 0
6, 258751, Note_on_c, 9, 38, 58
6, 258751, Note_on_c, 9, 35, 35
6, 258759, Note_on_c, 9, 35, 0
6, 258759, Note_on_c, 9, 38, 0
6, 259003, Note_on_c, 9, 40, 60
6, 259009, Note_on_c, 9, 45, 39
6, 259019, Note_on_c, 9, 40, 0
6, 259042, Note_on_c, 9, 45, 0
6, 259131, Note_on_c, 9, 35, 35
6, 259135, Note_on_c, 9, 44, 82
6, 259137, Note_on_c, 9, 39, 33
6, 259139, Note_on_c, 9, 35, 0
6, 259139, Note_on_c, 9, 38, 77
6, 259143, Note_on_c, 9, 38, 0
6, 259143, Note_on_c, 9, 44, 0
6, 259175, Note_on_c, 9, 39, 0
6, 259377, Note_on_c, 9, 39, 55
6, 259387, Note_on_c, 9, 40, 60
6, 259407, Note_on_c, 9, 40, 0
6, 259423, Note_on_c, 9, 38, 81
6, 259467, Note_on_c, 9, 38, 0
6, 259468, Note_on_c, 9, 39, 0
6, 259515, Note_on_c, 9, 38, 81
6, 259519, Note_on_c, 9, 35, 35
6, 259523, Note_on_c, 9, 38, 58
6, 259527, Note_on_c, 9, 35, 0
6, 259527, Note_on_c, 9, 38, 0
6, 259527, Note_on_c, 9, 36, 55
6, 259528, Note_on_c, 9, 57, 63
6, 259555, Note_on_c, 9, 57, 0
6, 259563, Note_on_c, 9, 38, 0
6, 259614, Note_on_c, 9, 36, 0
6, 259641, Note_on_c, 9, 46, 73
6, 259698, Note_on_c, 9, 46, 0
6, 259771, Note_on_c, 9, 40, 60
6, 259787, Note_on_c, 9, 40, 0
6, 259899, Note_on_c, 9, 38, 58
6, 259899, Note_on_c, 9, 35, 35
6, 259907, Note_on_c, 9, 44, 82
6, 259911, Note_on_c, 9, 44, 0
6, 259911, Note_on_c, 9, 35, 0
6, 259911, Note_on_c, 9, 38, 0
6, 259911, Note_on_c, 9, 46, 87
6, 260042, Note_on_c, 9, 46, 0
6, 260159, Note_on_c, 9, 40, 60
6, 260162, Note_on_c, 9, 46, 84
6, 260175, Note_on_c, 9, 40, 0
6, 260269, Note_on_c, 9, 46, 0
6, 260283, Note_on_c, 9, 38, 58
6, 260283, Note_on_c, 9, 35, 35
6, 260287, Note_on_c, 9, 38, 0
6, 260291, Note_on_c, 9, 35, 0
6, 260403, Note_on_c, 9, 46, 82
6, 260518, Note_on_c, 9, 46, 0
6, 260538, Note_on_c, 9, 39, 55
6, 260539, Note_on_c, 9, 40, 60
6, 260555, Note_on_c, 9, 40, 0
6, 260586, Note_on_c, 9, 39, 0
6, 260659, Note_on_c, 9, 46, 85
6, 260667, Note_on_c, 9, 44, 82
6, 260667, Note_on_c, 9, 35, 35
6, 260675, Note_on_c, 9, 38, 77
6, 260679, Note_on_c, 9, 38, 0
6, 260679, Note_on_c, 9, 35, 0
6, 260679, Note_on_c, 9, 44, 0
6, 260730, Note_on_c, 9, 36, 31
6, 260760, Note_on_c, 9, 46, 0
6, 260774, Note_on_c, 9, 36, 0
6, 260917, Note_on_c, 9, 46, 95
6, 260923, Note_on_c, 9, 40, 60
6, 260935, Note_on_c, 9, 40, 0
6, 260947, Note_on_c, 9, 36, 78
6, 261016, Note_on_c, 9, 46, 0
6, 261051, Note_on_c, 9, 38, 58
6, 261055, Note_on_c, 9, 35, 35
6, 261059, Note_on_c, 9, 35, 0
6, 261059, Note_on_c, 9, 38, 0
6, 261067, Note_on_c, 9, 46, 64
6, 261069, Note_on_c, 9, 36, 0
6, 261116, Note_on_c, 9, 46, 0
6, 261307, Note_on_c, 9, 40, 60
6, 261327, Note_on_c, 9, 40, 0
6, 261435, Note_on_c, 9, 38, 58
6, 261435, Note_on_c, 9, 44, 82
6, 261435, Note_on_c, 9, 35, 35
6, 261447, Note_on_c, 9, 38, 0
6, 261451, Note_on_c, 9, 35, 0
6, 261451, Note_on_c, 9, 44, 0
6, 261695, Note_on_c, 9, 40, 60
6, 261695, Note_on_c, 9, 40, 0
6, 261823, Note_on_c, 9, 38, 58
6, 261823, Note_on_c, 9, 35, 35
6, 261827, Note_on_c, 9, 38, 0
6, 261831, Note_on_c, 9, 35, 0
6, 262079, Note_on_c, 9, 40, 60
6, 262084, Note_on_c, 9, 39, 50
6, 262091, Note_on_c, 9, 40, 0
6, 262172, Note_on_c, 9, 39, 0
6, 262203, Note_on_c, 9, 44, 82
6, 262207, Note_on_c, 9, 38, 77
6, 262207, Note_on_c, 9, 35, 35
6, 262219, Note_on_c, 9, 35, 0
6, 262223, Note_on_c, 9, 38, 0
6, 262223, Note_on_c, 9, 44, 0
6, 262310, Note_on_c, 9, 39, 56
6, 262459, Note_on_c, 9, 40, 60
6, 262475, Note_on_c, 9, 40, 0
6, 262491, Note_on_c, 9, 39, 0
6, 262587, Note_on_c, 9, 38, 58
6, 262591, Note_on_c, 9, 35, 35
6, 262595, Note_on_c, 9, 35, 0
6, 262595, Note_on_c, 9, 38, 0
6, 262604, Note_on_c, 9, 39, 62
6, 262728, Note_on_c, 9, 39, 0
6, 262843, Note_on_c, 9, 40, 60
6, 262859, Note_on_c, 9, 40, 0
6, 262889, Note_on_c, 9, 39, 52
6, 262971, Note_on_c, 9, 39, 0
6, 262975, Note_on_c, 9, 38, 58
6, 262975, Note_on_c, 9, 44, 82
6, 262975, Note_on_c, 9, 35, 35
6, 262991, Note_on_c, 9, 44, 0
6, 262991, Note_on_c, 9, 38, 0
6, 262995, Note_on_c, 9, 35, 0
6, 263227, Note_on_c, 9, 40, 60
6, 263247, Note_on_c, 9, 40, 0
6, 263355, Note_on_c, 9, 38, 58
6, 263363, Note_on_c, 9, 35, 35
6, 263367, Note_on_c, 9, 35, 0
6, 263367, Note_on_c, 9, 38, 0
6, 263615, Note_on_c, 9, 40, 60
6, 263631, Note_on_c, 9, 40, 0
6, 263646, Note_on_c, 9, 39, 42
6, 263700, Note_on_c, 9, 39, 0
6, 263743, Note_on_c, 9, 38, 77
6, 263743, Note_on_c, 9, 44, 82
6, 263743, Note_on_c, 9, 35, 35
6, 263755, Note_on_c, 9, 44, 0
6, 263759, Note_on_c, 9, 35, 0
6, 263759, Note_on_c, 9, 38, 0
6, 263924, Note_on_c, 9, 39, 39
6, 263995, Note_on_c, 9, 40, 60
6, 264011, Note_on_c, 9, 40, 0
6, 264013, Note_on_c, 9, 39, 0
6, 264123, Note_on_c, 9, 38, 58
6, 264127, Note_on_c, 9, 35, 35
6, 264135, Note_on_c, 9, 35, 0
6, 264135, Note_on_c, 9, 38, 0
6, 264166, Note_on_c, 9, 39, 48
6, 264251, Note_on_c, 9, 39, 0
6, 264379, Note_on_c, 9, 40, 60
6, 264395, Note_on_c, 9, 40, 0
6, 264421, Note_on_c, 9, 39, 42
6, 264503, Note_on_c, 9, 39, 0
6, 264507, Note_on_c, 9, 38, 58
6, 264507, Note_on_c, 9, 44, 82
6, 264519, Note_on_c, 9, 44, 0
6, 264519, Note_on_c, 9, 38, 0
6, 264519, Note_on_c, 9, 35, 35
6, 264519, Note_on_c, 9, 35, 0
6, 264763, Note_on_c, 9, 40, 60
6, 264783, Note_on_c, 9, 40, 0
6, 264891, Note_on_c, 9, 35, 35
6, 264895, Note_on_c, 9, 38, 58
6, 264903, Note_on_c, 9, 38, 0
6, 264903, Note_on_c, 9, 35, 0
6, 265147, Note_on_c, 9, 40, 60
6, 265155, Note_on_c, 9, 39, 40
6, 265167, Note_on_c, 9, 40, 0
6, 265237, Note_on_c, 9, 39, 0
6, 265275, Note_on_c, 9, 38, 77
6, 265279, Note_on_c, 9, 35, 35
6, 265283, Note_on_c, 9, 46, 62
6, 265295, Note_on_c, 9, 46, 0
6, 265295, Note_on_c, 9, 35, 0
6, 265295, Note_on_c, 9, 38, 0
6, 265522, Note_on_c, 9, 39, 51
6, 265535, Note_on_c, 9, 40, 60
6, 265547, Note_on_c, 9, 40, 0
6, 265622, Note_on_c, 9, 39, 0
6, 265663, Note_on_c, 9, 38, 58
6, 265663, Note_on_c, 9, 35, 35
6, 265671, Note_on_c, 9, 35, 0
6, 265671, Note_on_c, 9, 38, 0
6, 265696, Note_on_c, 9, 36, 33
6, 265743, Note_on_c, 9, 36, 0
6, 265915, Note_on_c, 9, 40, 60
6, 265931, Note_on_c, 9, 40, 0
6, 266043, Note_on_c, 9, 38, 58
6, 266043, Note_on_c, 9, 35, 35
6, 266051, Note_on_c, 9, 44, 82
6, 266055, Note_on_c, 9, 44, 0
6, 266059, Note_on_c, 9, 35, 0
6, 266059, Note_on_c, 9, 38, 0
6, 266274, Note_on_c, 9, 39, 40
6, 266299, Note_on_c, 9, 40, 60
6, 266311, Note_on_c, 9, 40, 0
6, 266382, Note_on_c, 9, 39, 0
6, 266431, Note_on_c, 9, 38, 58
6, 266431, Note_on_c, 9, 35, 35
6, 266435, Note_on_c, 9, 35, 0
6, 266435, Note_on_c, 9, 38, 0
6, 266523, Note_on_c, 9, 46, 49
6, 266542, Note_on_c, 9, 39, 31
6, 266595, Note_on_c, 9, 46, 0
6, 266636, Note_on_c, 9, 39, 0
6, 266683, Note_on_c, 9, 40, 60
6, 266703, Note_on_c, 9, 40, 0
6, 266703, End_track
0, 0, End_of_file
