0, 0, Header, 1, 4, 120
1, 0, Start_track
1, 0, Title_t, "Poinciana"
1, 0, Text_t, "dougmck@pipeline.com.au.    http://home.wanadoo.nl/dougmckenzie/    This is the classic way to do this song - originally done by Ahmad Jamal - but 'covered' by Keith Jarret, and also Michel Camilo. \012"
1, 0, Time_signature, 4, 2, 24, 8
1, 0, Key_signature, 0, "major"
1, 0, Tempo, 588235
1, 0, Marker_t, "Introduction"
1, 116, Marker_t, "Bass plays figure right through intro and 1st chorus"
1, 12482, Marker_t, "Little chordal device repeated each time in Bridge"
1, 14410, Marker_t, "Much copied latin type bass figure on dominant chord"
1, 15560, Marker_t, "LH chords play in a 'clave' like pattern in gaps between melody"
1, 19200, Marker_t, "On Drums, ride plays on off-beat (2 and 4) only"
1, 20161, Marker_t, "Bass continues more freely - but with chord root on beat 1 - gap - then rest of figure"
1, 20733, Marker_t, "arpeggiated 4ths"
1, 24395, Marker_t, "More arpeggiated 3 note 4th chords"
1, 26593, Marker_t, "Piano anticipates the chords of the Bridge"
1, 34593, Marker_t, "One of the 'riffy' figures used by Ahmad Jamal"
1, 35520, Marker_t, "Typical Jamal device - set up a pattern -then leave out the last repetition"
1, 36635, Marker_t, "Fill in the rest yourself!"
1, 38386, Marker_t, "Another melodic figure used by Jamal in the original recording"
1, 42205, Marker_t, "Bridge is now Bb7sus instead of Fm7"
1, 44135, Marker_t, "Bb7 sus"
1, 45084, Marker_t, "Latin bass figure played in unison without chord"
1, 46050, Marker_t, "Same melodic figure over 'A' section"
1, 49828, Marker_t, "Yet another  little melodic figure repeated"
1, 72925, Marker_t, "Return to original Bridge chords"
1, 80640, Marker_t, "Intro again"
1, 80640, End_track
2, 0, Start_track
2, 0, Title_t, "http://home.wanadoo.nl/dougmckenzie/"
2, 0, Program_c, 0, 0
2, 0, Control_c, 0, 7, 99
2, 0, Control_c, 0, 91, 0
2, 0, Control_c, 0, 93, 0
2, 0, Control_c, 0, 64, 127
2, 6, Control_c, 0, 64, 0
2, 7, Note_on_c, 0, 67, 36
2, 7, Note_on_c, 0, 57, 40
2, 9, Note_on_c, 0, 60, 46
2, 14, Note_on_c, 0, 55, 41
2, 14, Note_on_c, 0, 65, 35
2, 191, Note_on_c, 0, 43, 36
2, 204, Note_on_c, 0, 43, 0
2, 248, Note_on_c, 0, 43, 39
2, 259, Note_on_c, 0, 43, 0
2, 417, Note_on_c, 0, 50, 37
2, 426, Note_on_c, 0, 50, 0
2, 486, Note_on_c, 0, 43, 42
2, 552, Note_on_c, 0, 55, 0
2, 584, Control_c, 0, 64, 127
2, 586, Note_on_c, 0, 55, 51
2, 678, Note_on_c, 0, 55, 0
2, 679, Note_on_c, 0, 67, 0
2, 684, Note_on_c, 0, 65, 0
2, 688, Note_on_c, 0, 57, 0
2, 688, Note_on_c, 0, 60, 0
2, 724, Note_on_c, 0, 43, 0
2, 726, Note_on_c, 0, 60, 88
2, 726, Note_on_c, 0, 65, 84
2, 727, Note_on_c, 0, 57, 89
2, 728, Control_c, 0, 64, 0
2, 730, Note_on_c, 0, 53, 63
2, 782, Control_c, 0, 64, 127
2, 798, Note_on_c, 0, 57, 0
2, 806, Note_on_c, 0, 60, 0
2, 811, Note_on_c, 0, 65, 0
2, 821, Note_on_c, 0, 53, 0
2, 855, Note_on_c, 0, 60, 80
2, 855, Note_on_c, 0, 65, 78
2, 855, Note_on_c, 0, 69, 73
2, 856, Control_c, 0, 64, 0
2, 858, Note_on_c, 0, 53, 60
2, 905, Control_c, 0, 64, 127
2, 922, Note_on_c, 0, 69, 0
2, 922, Note_on_c, 0, 65, 0
2, 931, Note_on_c, 0, 53, 0
2, 932, Note_on_c, 0, 60, 0
2, 972, Control_c, 0, 64, 0
2, 975, Note_on_c, 0, 67, 39
2, 980, Note_on_c, 0, 43, 38
2, 980, Note_on_c, 0, 57, 44
2, 981, Note_on_c, 0, 60, 32
2, 982, Note_on_c, 0, 55, 33
2, 985, Note_on_c, 0, 65, 35
2, 1055, Note_on_c, 0, 55, 0
2, 1055, Note_on_c, 0, 57, 0
2, 1060, Note_on_c, 0, 65, 0
2, 1061, Note_on_c, 0, 60, 0
2, 1079, Note_on_c, 0, 60, 33
2, 1080, Note_on_c, 0, 65, 18
2, 1088, Note_on_c, 0, 60, 0
2, 1099, Note_on_c, 0, 65, 0
2, 1154, Note_on_c, 0, 55, 41
2, 1160, Note_on_c, 0, 65, 13
2, 1165, Note_on_c, 0, 55, 0
2, 1176, Note_on_c, 0, 65, 0
2, 1235, Note_on_c, 0, 65, 18
2, 1245, Note_on_c, 0, 55, 24
2, 1253, Note_on_c, 0, 55, 0
2, 1260, Note_on_c, 0, 65, 0
2, 1318, Note_on_c, 0, 65, 15
2, 1321, Note_on_c, 0, 60, 30
2, 1321, Note_on_c, 0, 57, 30
2, 1325, Note_on_c, 0, 55, 29
2, 1381, Control_c, 0, 64, 127
2, 1417, Note_on_c, 0, 57, 0
2, 1426, Note_on_c, 0, 60, 0
2, 1432, Note_on_c, 0, 43, 0
2, 1436, Note_on_c, 0, 55, 0
2, 1464, Note_on_c, 0, 67, 0
2, 1465, Note_on_c, 0, 65, 0
2, 1680, Note_on_c, 0, 89, 64
2, 1686, Note_on_c, 0, 84, 64
2, 1688, Control_c, 0, 64, 0
2, 1689, Note_on_c, 0, 55, 40
2, 1689, Note_on_c, 0, 81, 50
2, 1689, Note_on_c, 0, 88, 36
2, 1691, Note_on_c, 0, 65, 37
2, 1692, Note_on_c, 0, 57, 36
2, 1692, Note_on_c, 0, 60, 34
2, 1697, Note_on_c, 0, 77, 44
2, 1729, Control_c, 0, 64, 127
2, 1742, Note_on_c, 0, 77, 0
2, 1744, Note_on_c, 0, 81, 0
2, 1749, Note_on_c, 0, 84, 0
2, 1755, Note_on_c, 0, 88, 0
2, 1756, Note_on_c, 0, 60, 0
2, 1756, Note_on_c, 0, 89, 0
2, 1763, Note_on_c, 0, 55, 0
2, 1768, Note_on_c, 0, 65, 0
2, 1775, Note_on_c, 0, 57, 0
2, 1803, Control_c, 0, 64, 0
2, 1804, Note_on_c, 0, 93, 73
2, 1805, Note_on_c, 0, 88, 68
2, 1806, Note_on_c, 0, 65, 55
2, 1807, Note_on_c, 0, 55, 50
2, 1808, Note_on_c, 0, 60, 40
2, 1808, Note_on_c, 0, 57, 43
2, 1809, Note_on_c, 0, 81, 53
2, 1839, Control_c, 0, 64, 127
2, 1868, Note_on_c, 0, 93, 0
2, 1869, Note_on_c, 0, 88, 0
2, 1871, Note_on_c, 0, 60, 0
2, 1873, Note_on_c, 0, 57, 0
2, 1874, Note_on_c, 0, 55, 0
2, 1879, Note_on_c, 0, 65, 0
2, 1880, Note_on_c, 0, 81, 0
2, 1912, Control_c, 0, 64, 0
2, 1916, Note_on_c, 0, 91, 58
2, 1919, Note_on_c, 0, 84, 42
2, 1922, Note_on_c, 0, 65, 46
2, 1922, Note_on_c, 0, 57, 44
2, 1924, Note_on_c, 0, 60, 31
2, 1924, Note_on_c, 0, 55, 30
2, 1929, Note_on_c, 0, 84, 0
2, 1930, Note_on_c, 0, 91, 0
2, 1931, Note_on_c, 0, 65, 0
2, 1932, Note_on_c, 0, 55, 0
2, 1932, Note_on_c, 0, 60, 0
2, 1933, Note_on_c, 0, 57, 0
2, 2004, Note_on_c, 0, 91, 58
2, 2007, Note_on_c, 0, 84, 54
2, 2007, Note_on_c, 0, 65, 54
2, 2009, Note_on_c, 0, 79, 25
2, 2011, Note_on_c, 0, 57, 38
2, 2013, Note_on_c, 0, 60, 28
2, 2016, Note_on_c, 0, 84, 0
2, 2017, Note_on_c, 0, 79, 0
2, 2021, Note_on_c, 0, 60, 0
2, 2022, Note_on_c, 0, 57, 0
2, 2024, Note_on_c, 0, 65, 0
2, 2024, Note_on_c, 0, 91, 0
2, 2095, Note_on_c, 0, 91, 64
2, 2097, Note_on_c, 0, 65, 35
2, 2098, Note_on_c, 0, 57, 32
2, 2099, Note_on_c, 0, 84, 51
2, 2100, Note_on_c, 0, 55, 30
2, 2101, Note_on_c, 0, 79, 25
2, 2103, Note_on_c, 0, 60, 38
2, 2126, Control_c, 0, 64, 127
2, 2213, Note_on_c, 0, 91, 0
2, 2224, Note_on_c, 0, 84, 0
2, 2230, Note_on_c, 0, 79, 0
2, 2324, Note_on_c, 0, 65, 0
2, 2326, Note_on_c, 0, 60, 0
2, 2344, Note_on_c, 0, 57, 0
2, 2344, Note_on_c, 0, 55, 0
2, 2646, Note_on_c, 0, 60, 72
2, 2646, Note_on_c, 0, 65, 73
2, 2646, Note_on_c, 0, 53, 53
2, 2647, Note_on_c, 0, 62, 68
2, 2648, Control_c, 0, 64, 0
2, 2648, Note_on_c, 0, 57, 71
2, 2692, Control_c, 0, 64, 127
2, 2699, Note_on_c, 0, 62, 0
2, 2705, Note_on_c, 0, 60, 0
2, 2708, Note_on_c, 0, 65, 0
2, 2720, Note_on_c, 0, 57, 0
2, 2739, Note_on_c, 0, 53, 0
2, 2768, Control_c, 0, 64, 0
2, 2769, Note_on_c, 0, 62, 56
2, 2770, Note_on_c, 0, 53, 35
2, 2771, Note_on_c, 0, 56, 40
2, 2771, Note_on_c, 0, 50, 41
2, 2774, Note_on_c, 0, 59, 53
2, 2809, Note_on_c, 0, 62, 0
2, 2810, Control_c, 0, 64, 127
2, 2811, Note_on_c, 0, 59, 0
2, 2813, Note_on_c, 0, 50, 0
2, 2832, Note_on_c, 0, 56, 0
2, 2832, Note_on_c, 0, 53, 0
2, 2880, Control_c, 0, 64, 0
2, 2881, Note_on_c, 0, 60, 37
2, 2883, Note_on_c, 0, 57, 38
2, 2883, Note_on_c, 0, 52, 34
2, 2884, Note_on_c, 0, 55, 34
2, 2887, Note_on_c, 0, 48, 32
2, 2951, Control_c, 0, 64, 127
2, 3109, Note_on_c, 0, 48, 0
2, 3118, Note_on_c, 0, 52, 0
2, 3146, Note_on_c, 0, 55, 0
2, 3152, Note_on_c, 0, 60, 0
2, 3154, Note_on_c, 0, 57, 0
2, 3551, Note_on_c, 0, 91, 80
2, 3552, Note_on_c, 0, 90, 64
2, 3555, Note_on_c, 0, 55, 90
2, 3558, Control_c, 0, 64, 0
2, 3565, Note_on_c, 0, 90, 0
2, 3636, Control_c, 0, 64, 127
2, 3715, Note_on_c, 0, 55, 0
2, 3784, Note_on_c, 0, 91, 0
2, 3794, Note_on_c, 0, 88, 46
2, 3813, Note_on_c, 0, 88, 0
2, 3835, Control_c, 0, 64, 0
2, 3854, Note_on_c, 0, 86, 49
2, 3855, Note_on_c, 0, 67, 36
2, 3855, Note_on_c, 0, 62, 34
2, 3858, Note_on_c, 0, 64, 34
2, 3917, Note_on_c, 0, 64, 0
2, 3917, Note_on_c, 0, 62, 0
2, 3918, Note_on_c, 0, 86, 0
2, 3920, Note_on_c, 0, 67, 0
2, 3939, Note_on_c, 0, 86, 48
2, 3942, Note_on_c, 0, 67, 35
2, 3943, Note_on_c, 0, 64, 32
2, 3945, Note_on_c, 0, 62, 32
2, 3950, Note_on_c, 0, 86, 0
2, 3953, Note_on_c, 0, 64, 0
2, 3955, Note_on_c, 0, 62, 0
2, 3956, Note_on_c, 0, 67, 0
2, 4022, Note_on_c, 0, 67, 33
2, 4023, Note_on_c, 0, 86, 46
2, 4026, Note_on_c, 0, 62, 34
2, 4026, Note_on_c, 0, 64, 34
2, 4178, Control_c, 0, 64, 127
2, 4243, Note_on_c, 0, 86, 0
2, 4415, Note_on_c, 0, 72, 60
2, 4429, Note_on_c, 0, 72, 0
2, 4430, Control_c, 0, 64, 0
2, 4441, Note_on_c, 0, 74, 76
2, 4458, Note_on_c, 0, 74, 0
2, 4502, Note_on_c, 0, 76, 92
2, 4518, Note_on_c, 0, 76, 0
2, 4564, Note_on_c, 0, 79, 94
2, 4578, Note_on_c, 0, 67, 0
2, 4592, Note_on_c, 0, 79, 0
2, 4600, Note_on_c, 0, 64, 0
2, 4607, Note_on_c, 0, 62, 0
2, 4621, Note_on_c, 0, 74, 63
2, 4623, Note_on_c, 0, 79, 42
2, 4625, Note_on_c, 0, 75, 63
2, 4637, Note_on_c, 0, 74, 0
2, 4645, Note_on_c, 0, 75, 0
2, 4646, Note_on_c, 0, 76, 50
2, 4653, Note_on_c, 0, 79, 0
2, 4668, Note_on_c, 0, 76, 0
2, 4687, Note_on_c, 0, 74, 59
2, 4704, Note_on_c, 0, 74, 0
2, 4745, Note_on_c, 0, 72, 42
2, 4761, Control_c, 0, 64, 127
2, 4762, Note_on_c, 0, 72, 0
2, 4804, Note_on_c, 0, 70, 59
2, 4808, Note_on_c, 0, 55, 31
2, 4809, Control_c, 0, 64, 0
2, 4812, Note_on_c, 0, 48, 30
2, 4849, Control_c, 0, 64, 127
2, 4985, Note_on_c, 0, 67, 36
2, 4986, Note_on_c, 0, 63, 28
2, 4986, Control_c, 0, 64, 0
2, 4987, Note_on_c, 0, 62, 36
2, 4988, Note_on_c, 0, 58, 29
2, 5068, Control_c, 0, 64, 127
2, 5117, Note_on_c, 0, 62, 0
2, 5127, Note_on_c, 0, 48, 0
2, 5127, Note_on_c, 0, 67, 0
2, 5130, Note_on_c, 0, 63, 0
2, 5131, Note_on_c, 0, 55, 0
2, 5140, Note_on_c, 0, 58, 0
2, 5148, Note_on_c, 0, 70, 0
2, 5219, Note_on_c, 0, 75, 67
2, 5220, Note_on_c, 0, 63, 52
2, 5221, Note_on_c, 0, 70, 60
2, 5221, Note_on_c, 0, 65, 56
2, 5222, Control_c, 0, 64, 0
2, 5223, Note_on_c, 0, 58, 56
2, 5226, Note_on_c, 0, 53, 32
2, 5276, Control_c, 0, 64, 127
2, 5333, Note_on_c, 0, 53, 0
2, 5336, Note_on_c, 0, 65, 0
2, 5348, Note_on_c, 0, 70, 0
2, 5350, Note_on_c, 0, 58, 0
2, 5353, Note_on_c, 0, 63, 0
2, 5385, Note_on_c, 0, 75, 0
2, 5393, Control_c, 0, 64, 0
2, 5398, Note_on_c, 0, 72, 49
2, 5399, Note_on_c, 0, 65, 43
2, 5401, Note_on_c, 0, 77, 54
2, 5402, Note_on_c, 0, 60, 35
2, 5409, Note_on_c, 0, 55, 25
2, 5437, Control_c, 0, 64, 127
2, 5454, Note_on_c, 0, 55, 0
2, 5455, Note_on_c, 0, 72, 0
2, 5458, Note_on_c, 0, 65, 0
2, 5460, Note_on_c, 0, 77, 0
2, 5460, Note_on_c, 0, 60, 0
2, 5528, Note_on_c, 0, 82, 53
2, 5529, Note_on_c, 0, 77, 36
2, 5529, Note_on_c, 0, 72, 36
2, 5530, Note_on_c, 0, 63, 38
2, 5531, Control_c, 0, 64, 0
2, 5533, Note_on_c, 0, 58, 44
2, 5535, Note_on_c, 0, 53, 20
2, 5567, Control_c, 0, 64, 127
2, 5580, Note_on_c, 0, 72, 0
2, 5591, Note_on_c, 0, 53, 0
2, 5605, Note_on_c, 0, 63, 0
2, 5609, Note_on_c, 0, 58, 0
2, 5623, Note_on_c, 0, 77, 0
2, 5625, Note_on_c, 0, 82, 0
2, 5639, Note_on_c, 0, 84, 71
2, 5639, Control_c, 0, 64, 0
2, 5640, Note_on_c, 0, 58, 42
2, 5641, Note_on_c, 0, 63, 33
2, 5679, Note_on_c, 0, 84, 0
2, 5679, Control_c, 0, 64, 127
2, 5697, Note_on_c, 0, 58, 0
2, 5706, Note_on_c, 0, 63, 0
2, 5761, Control_c, 0, 64, 0
2, 5765, Note_on_c, 0, 80, 47
2, 5766, Note_on_c, 0, 63, 33
2, 5768, Note_on_c, 0, 68, 31
2, 5770, Note_on_c, 0, 56, 42
2, 5770, Note_on_c, 0, 60, 28
2, 5942, Control_c, 0, 64, 127
2, 5969, Note_on_c, 0, 68, 0
2, 5976, Note_on_c, 0, 63, 0
2, 6126, Note_on_c, 0, 56, 0
2, 6133, Note_on_c, 0, 60, 0
2, 6165, Note_on_c, 0, 80, 0
2, 6301, Note_on_c, 0, 56, 64
2, 6302, Note_on_c, 0, 65, 69
2, 6303, Control_c, 0, 64, 0
2, 6303, Note_on_c, 0, 80, 72
2, 6304, Note_on_c, 0, 68, 64
2, 6306, Note_on_c, 0, 60, 34
2, 6309, Note_on_c, 0, 65, 0
2, 6314, Note_on_c, 0, 68, 0
2, 6314, Note_on_c, 0, 60, 0
2, 6319, Note_on_c, 0, 56, 0
2, 6320, Note_on_c, 0, 80, 0
2, 6362, Note_on_c, 0, 56, 56
2, 6363, Note_on_c, 0, 65, 61
2, 6365, Note_on_c, 0, 60, 36
2, 6366, Note_on_c, 0, 82, 65
2, 6366, Note_on_c, 0, 70, 50
2, 6370, Note_on_c, 0, 65, 0
2, 6370, Note_on_c, 0, 56, 0
2, 6373, Note_on_c, 0, 70, 0
2, 6373, Note_on_c, 0, 60, 0
2, 6379, Note_on_c, 0, 82, 0
2, 6425, Note_on_c, 0, 84, 80
2, 6427, Note_on_c, 0, 72, 53
2, 6427, Note_on_c, 0, 56, 68
2, 6427, Note_on_c, 0, 65, 69
2, 6427, Note_on_c, 0, 60, 50
2, 6434, Note_on_c, 0, 65, 0
2, 6434, Note_on_c, 0, 72, 0
2, 6436, Note_on_c, 0, 60, 0
2, 6441, Note_on_c, 0, 84, 0
2, 6443, Note_on_c, 0, 56, 0
2, 6487, Note_on_c, 0, 56, 77
2, 6489, Note_on_c, 0, 65, 80
2, 6489, Note_on_c, 0, 87, 79
2, 6490, Note_on_c, 0, 75, 83
2, 6490, Note_on_c, 0, 60, 62
2, 6491, Note_on_c, 0, 55, 64
2, 6499, Control_c, 0, 64, 127
2, 6538, Note_on_c, 0, 87, 0
2, 6545, Note_on_c, 0, 75, 0
2, 6551, Note_on_c, 0, 55, 0
2, 6555, Note_on_c, 0, 65, 0
2, 6556, Note_on_c, 0, 60, 0
2, 6563, Note_on_c, 0, 56, 0
2, 6579, Note_on_c, 0, 84, 64
2, 6581, Note_on_c, 0, 56, 49
2, 6582, Note_on_c, 0, 65, 48
2, 6584, Note_on_c, 0, 72, 45
2, 6586, Note_on_c, 0, 60, 31
2, 6588, Note_on_c, 0, 84, 0
2, 6590, Note_on_c, 0, 65, 0
2, 6591, Note_on_c, 0, 72, 0
2, 6593, Control_c, 0, 64, 0
2, 6594, Note_on_c, 0, 60, 0
2, 6599, Note_on_c, 0, 56, 0
2, 6614, Note_on_c, 0, 82, 37
2, 6614, Note_on_c, 0, 65, 37
2, 6615, Note_on_c, 0, 56, 28
2, 6615, Note_on_c, 0, 60, 30
2, 6618, Note_on_c, 0, 68, 26
2, 6622, Note_on_c, 0, 82, 0
2, 6624, Note_on_c, 0, 65, 0
2, 6625, Note_on_c, 0, 60, 0
2, 6625, Note_on_c, 0, 68, 0
2, 6638, Note_on_c, 0, 56, 0
2, 6666, Note_on_c, 0, 65, 53
2, 6670, Note_on_c, 0, 56, 35
2, 6673, Note_on_c, 0, 55, 31
2, 6673, Note_on_c, 0, 80, 37
2, 6675, Note_on_c, 0, 68, 29
2, 6677, Note_on_c, 0, 65, 0
2, 6686, Note_on_c, 0, 55, 0
2, 6689, Note_on_c, 0, 80, 0
2, 6693, Note_on_c, 0, 68, 0
2, 6693, Note_on_c, 0, 56, 0
2, 6726, Note_on_c, 0, 62, 44
2, 6727, Note_on_c, 0, 52, 40
2, 6728, Note_on_c, 0, 67, 54
2, 6728, Note_on_c, 0, 79, 47
2, 6729, Note_on_c, 0, 57, 43
2, 6734, Note_on_c, 0, 77, 30
2, 6746, Control_c, 0, 64, 127
2, 6757, Note_on_c, 0, 77, 0
2, 6796, Note_on_c, 0, 79, 0
2, 6800, Note_on_c, 0, 62, 0
2, 6804, Note_on_c, 0, 57, 0
2, 6808, Note_on_c, 0, 67, 0
2, 6826, Note_on_c, 0, 52, 0
2, 6900, Control_c, 0, 64, 0
2, 6902, Note_on_c, 0, 52, 47
2, 6904, Note_on_c, 0, 67, 43
2, 6904, Note_on_c, 0, 57, 43
2, 6907, Note_on_c, 0, 62, 37
2, 6916, Note_on_c, 0, 57, 0
2, 6921, Note_on_c, 0, 62, 0
2, 6926, Note_on_c, 0, 67, 0
2, 6936, Note_on_c, 0, 52, 0
2, 6942, Note_on_c, 0, 51, 34
2, 6969, Note_on_c, 0, 67, 39
2, 6969, Note_on_c, 0, 57, 33
2, 6970, Note_on_c, 0, 62, 39
2, 6971, Note_on_c, 0, 51, 0
2, 6972, Note_on_c, 0, 52, 38
2, 7030, Control_c, 0, 64, 127
2, 7168, Note_on_c, 0, 57, 0
2, 7181, Note_on_c, 0, 52, 0
2, 7196, Note_on_c, 0, 62, 0
2, 7204, Note_on_c, 0, 52, 37
2, 7205, Note_on_c, 0, 67, 0
2, 7205, Note_on_c, 0, 57, 32
2, 7205, Control_c, 0, 64, 0
2, 7213, Note_on_c, 0, 52, 0
2, 7214, Note_on_c, 0, 57, 0
2, 7271, Control_c, 0, 64, 127
2, 7319, Control_c, 0, 64, 0
2, 7325, Note_on_c, 0, 67, 80
2, 7328, Note_on_c, 0, 65, 54
2, 7332, Note_on_c, 0, 57, 35
2, 7332, Note_on_c, 0, 60, 33
2, 7337, Note_on_c, 0, 65, 0
2, 7338, Note_on_c, 0, 67, 0
2, 7341, Note_on_c, 0, 60, 0
2, 7345, Note_on_c, 0, 57, 0
2, 7395, Control_c, 0, 64, 127
2, 7435, Control_c, 0, 64, 0
2, 7447, Note_on_c, 0, 65, 80
2, 7447, Note_on_c, 0, 57, 71
2, 7448, Note_on_c, 0, 55, 70
2, 7448, Note_on_c, 0, 72, 85
2, 7448, Note_on_c, 0, 79, 83
2, 7449, Note_on_c, 0, 60, 62
2, 7450, Note_on_c, 0, 69, 83
2, 7480, Control_c, 0, 64, 127
2, 7511, Note_on_c, 0, 79, 0
2, 7515, Note_on_c, 0, 72, 0
2, 7518, Note_on_c, 0, 65, 0
2, 7518, Note_on_c, 0, 60, 0
2, 7522, Note_on_c, 0, 69, 0
2, 7523, Note_on_c, 0, 55, 0
2, 7524, Note_on_c, 0, 57, 0
2, 7568, Note_on_c, 0, 76, 66
2, 7568, Control_c, 0, 64, 0
2, 7571, Note_on_c, 0, 64, 49
2, 7572, Note_on_c, 0, 68, 53
2, 7572, Note_on_c, 0, 65, 51
2, 7573, Note_on_c, 0, 59, 44
2, 7580, Note_on_c, 0, 53, 24
2, 7621, Control_c, 0, 64, 127
2, 7629, Note_on_c, 0, 76, 0
2, 7632, Note_on_c, 0, 59, 0
2, 7633, Note_on_c, 0, 64, 0
2, 7644, Note_on_c, 0, 65, 0
2, 7651, Note_on_c, 0, 53, 0
2, 7652, Note_on_c, 0, 68, 0
2, 7687, Note_on_c, 0, 57, 42
2, 7688, Note_on_c, 0, 74, 42
2, 7688, Note_on_c, 0, 67, 49
2, 7689, Control_c, 0, 64, 0
2, 7689, Note_on_c, 0, 62, 40
2, 7692, Note_on_c, 0, 52, 44
2, 7743, Note_on_c, 0, 52, 0
2, 7749, Note_on_c, 0, 62, 0
2, 7750, Note_on_c, 0, 74, 0
2, 7754, Note_on_c, 0, 57, 0
2, 7755, Note_on_c, 0, 67, 0
2, 7782, Note_on_c, 0, 74, 43
2, 7785, Note_on_c, 0, 67, 36
2, 7786, Note_on_c, 0, 57, 32
2, 7788, Note_on_c, 0, 52, 33
2, 7794, Note_on_c, 0, 67, 0
2, 7797, Note_on_c, 0, 74, 0
2, 7798, Note_on_c, 0, 57, 0
2, 7801, Note_on_c, 0, 52, 0
2, 7860, Note_on_c, 0, 52, 36
2, 7862, Note_on_c, 0, 74, 43
2, 7863, Note_on_c, 0, 67, 36
2, 7864, Note_on_c, 0, 62, 32
2, 7868, Note_on_c, 0, 59, 30
2, 7947, Control_c, 0, 64, 127
2, 7989, Note_on_c, 0, 59, 0
2, 8124, Note_on_c, 0, 62, 0
2, 8142, Note_on_c, 0, 52, 0
2, 8143, Note_on_c, 0, 67, 0
2, 8152, Note_on_c, 0, 74, 0
2, 8226, Note_on_c, 0, 60, 34
2, 8227, Note_on_c, 0, 84, 68
2, 8228, Note_on_c, 0, 72, 51
2, 8230, Control_c, 0, 64, 0
2, 8268, Note_on_c, 0, 72, 0
2, 8270, Note_on_c, 0, 84, 0
2, 8274, Control_c, 0, 64, 127
2, 8287, Note_on_c, 0, 60, 0
2, 8287, Note_on_c, 0, 62, 60
2, 8288, Note_on_c, 0, 74, 58
2, 8289, Note_on_c, 0, 86, 58
2, 8306, Note_on_c, 0, 74, 0
2, 8316, Note_on_c, 0, 86, 0
2, 8330, Control_c, 0, 64, 0
2, 8345, Note_on_c, 0, 62, 0
2, 8348, Note_on_c, 0, 76, 85
2, 8348, Note_on_c, 0, 88, 83
2, 8348, Note_on_c, 0, 64, 78
2, 8363, Control_c, 0, 64, 127
2, 8374, Note_on_c, 0, 76, 0
2, 8383, Note_on_c, 0, 88, 0
2, 8384, Note_on_c, 0, 64, 0
2, 8409, Note_on_c, 0, 67, 73
2, 8412, Note_on_c, 0, 93, 73
2, 8413, Control_c, 0, 64, 0
2, 8414, Note_on_c, 0, 81, 74
2, 8414, Note_on_c, 0, 91, 78
2, 8445, Note_on_c, 0, 93, 0
2, 8449, Note_on_c, 0, 91, 0
2, 8453, Control_c, 0, 64, 127
2, 8461, Note_on_c, 0, 81, 0
2, 8489, Control_c, 0, 64, 0
2, 8499, Note_on_c, 0, 76, 62
2, 8499, Note_on_c, 0, 88, 63
2, 8500, Note_on_c, 0, 64, 48
2, 8502, Note_on_c, 0, 67, 0
2, 8519, Note_on_c, 0, 76, 0
2, 8520, Note_on_c, 0, 88, 0
2, 8538, Note_on_c, 0, 64, 0
2, 8555, Note_on_c, 0, 62, 57
2, 8561, Note_on_c, 0, 88, 32
2, 8562, Note_on_c, 0, 86, 41
2, 8563, Note_on_c, 0, 62, 0
2, 8563, Note_on_c, 0, 76, 31
2, 8570, Note_on_c, 0, 88, 0
2, 8571, Note_on_c, 0, 86, 0
2, 8572, Note_on_c, 0, 76, 0
2, 8581, Control_c, 0, 64, 127
2, 8610, Note_on_c, 0, 84, 50
2, 8625, Note_on_c, 0, 84, 0
2, 8631, Control_c, 0, 64, 0
2, 8641, Note_on_c, 0, 82, 69
2, 8643, Note_on_c, 0, 70, 52
2, 8697, Note_on_c, 0, 48, 47
2, 8701, Control_c, 0, 64, 127
2, 8718, Note_on_c, 0, 82, 0
2, 8725, Note_on_c, 0, 70, 0
2, 8759, Note_on_c, 0, 48, 0
2, 8766, Note_on_c, 0, 55, 33
2, 8820, Note_on_c, 0, 63, 47
2, 8823, Note_on_c, 0, 58, 42
2, 8824, Note_on_c, 0, 62, 35
2, 8826, Control_c, 0, 64, 0
2, 8884, Control_c, 0, 64, 127
2, 8954, Note_on_c, 0, 62, 0
2, 8956, Note_on_c, 0, 63, 0
2, 9000, Note_on_c, 0, 62, 59
2, 9000, Note_on_c, 0, 65, 55
2, 9008, Control_c, 0, 64, 0
2, 9029, Note_on_c, 0, 65, 0
2, 9029, Note_on_c, 0, 62, 0
2, 9039, Note_on_c, 0, 63, 38
2, 9039, Note_on_c, 0, 60, 29
2, 9050, Note_on_c, 0, 60, 0
2, 9054, Note_on_c, 0, 63, 0
2, 9062, Note_on_c, 0, 62, 66
2, 9063, Note_on_c, 0, 65, 41
2, 9139, Control_c, 0, 64, 127
2, 9163, Control_c, 0, 64, 0
2, 9167, Note_on_c, 0, 62, 0
2, 9169, Note_on_c, 0, 65, 0
2, 9175, Note_on_c, 0, 60, 37
2, 9176, Note_on_c, 0, 63, 34
2, 9186, Note_on_c, 0, 60, 0
2, 9191, Note_on_c, 0, 55, 0
2, 9204, Note_on_c, 0, 63, 0
2, 9233, Note_on_c, 0, 60, 1
2, 9234, Note_on_c, 0, 63, 58
2, 9303, Control_c, 0, 64, 127
2, 9311, Control_c, 0, 64, 0
2, 9313, Note_on_c, 0, 60, 0
2, 9331, Note_on_c, 0, 63, 0
2, 9339, Note_on_c, 0, 55, 31
2, 9354, Note_on_c, 0, 62, 56
2, 9356, Note_on_c, 0, 65, 46
2, 9368, Note_on_c, 0, 55, 0
2, 9378, Note_on_c, 0, 65, 0
2, 9379, Note_on_c, 0, 62, 0
2, 9404, Note_on_c, 0, 55, 38
2, 9414, Note_on_c, 0, 58, 0
2, 9420, Note_on_c, 0, 62, 68
2, 9422, Note_on_c, 0, 65, 55
2, 9426, Note_on_c, 0, 55, 0
2, 9426, Note_on_c, 0, 58, 19
2, 9491, Control_c, 0, 64, 127
2, 9495, Note_on_c, 0, 58, 0
2, 9506, Note_on_c, 0, 55, 31
2, 9510, Note_on_c, 0, 62, 0
2, 9515, Note_on_c, 0, 55, 0
2, 9515, Control_c, 0, 64, 0
2, 9523, Note_on_c, 0, 65, 0
2, 9533, Note_on_c, 0, 60, 44
2, 9535, Note_on_c, 0, 63, 38
2, 9564, Note_on_c, 0, 63, 0
2, 9582, Note_on_c, 0, 60, 0
2, 9595, Note_on_c, 0, 65, 45
2, 9598, Note_on_c, 0, 68, 39
2, 9598, Note_on_c, 0, 53, 37
2, 9599, Note_on_c, 0, 56, 36
2, 9602, Note_on_c, 0, 60, 32
2, 9647, Control_c, 0, 64, 127
2, 9681, Note_on_c, 0, 65, 0
2, 9699, Note_on_c, 0, 68, 0
2, 9721, Note_on_c, 0, 60, 0
2, 9728, Note_on_c, 0, 53, 0
2, 9731, Note_on_c, 0, 56, 0
2, 9827, Note_on_c, 0, 62, 52
2, 9830, Control_c, 0, 64, 0
2, 9841, Note_on_c, 0, 79, 62
2, 9842, Note_on_c, 0, 68, 56
2, 9843, Note_on_c, 0, 72, 54
2, 9844, Note_on_c, 0, 64, 59
2, 9846, Note_on_c, 0, 62, 0
2, 9851, Note_on_c, 0, 76, 29
2, 9869, Note_on_c, 0, 68, 0
2, 9870, Note_on_c, 0, 76, 0
2, 9876, Note_on_c, 0, 79, 0
2, 9876, Note_on_c, 0, 72, 0
2, 9878, Note_on_c, 0, 64, 0
2, 9885, Note_on_c, 0, 62, 52
2, 9903, Note_on_c, 0, 79, 68
2, 9906, Note_on_c, 0, 68, 50
2, 9906, Note_on_c, 0, 72, 58
2, 9908, Note_on_c, 0, 62, 0
2, 9908, Note_on_c, 0, 64, 59
2, 9944, Note_on_c, 0, 68, 0
2, 9949, Note_on_c, 0, 79, 0
2, 9950, Note_on_c, 0, 72, 0
2, 9958, Note_on_c, 0, 64, 0
2, 9966, Note_on_c, 0, 68, 44
2, 9967, Note_on_c, 0, 72, 44
2, 9967, Note_on_c, 0, 62, 53
2, 9967, Note_on_c, 0, 77, 55
2, 9977, Note_on_c, 0, 62, 0
2, 9981, Note_on_c, 0, 68, 0
2, 9983, Note_on_c, 0, 72, 0
2, 9991, Note_on_c, 0, 77, 0
2, 10028, Control_c, 0, 64, 127
2, 10089, Control_c, 0, 64, 0
2, 10089, Note_on_c, 0, 65, 49
2, 10090, Note_on_c, 0, 55, 39
2, 10091, Note_on_c, 0, 60, 45
2, 10108, Note_on_c, 0, 60, 0
2, 10108, Note_on_c, 0, 65, 0
2, 10117, Note_on_c, 0, 55, 0
2, 10172, Note_on_c, 0, 68, 68
2, 10176, Note_on_c, 0, 61, 40
2, 10177, Note_on_c, 0, 65, 49
2, 10178, Note_on_c, 0, 56, 46
2, 10183, Note_on_c, 0, 55, 33
2, 10189, Note_on_c, 0, 68, 0
2, 10233, Note_on_c, 0, 70, 74
2, 10242, Note_on_c, 0, 65, 0
2, 10243, Note_on_c, 0, 56, 0
2, 10249, Note_on_c, 0, 70, 0
2, 10249, Note_on_c, 0, 55, 0
2, 10256, Note_on_c, 0, 61, 0
2, 10285, Note_on_c, 0, 72, 59
2, 10297, Note_on_c, 0, 72, 0
2, 10311, Note_on_c, 0, 61, 43
2, 10311, Note_on_c, 0, 65, 53
2, 10314, Note_on_c, 0, 75, 73
2, 10316, Note_on_c, 0, 55, 34
2, 10317, Note_on_c, 0, 56, 46
2, 10339, Note_on_c, 0, 75, 0
2, 10386, Note_on_c, 0, 65, 0
2, 10391, Note_on_c, 0, 61, 0
2, 10403, Note_on_c, 0, 56, 0
2, 10409, Note_on_c, 0, 72, 64
2, 10416, Note_on_c, 0, 61, 34
2, 10416, Note_on_c, 0, 65, 40
2, 10422, Note_on_c, 0, 56, 15
2, 10427, Note_on_c, 0, 72, 0
2, 10430, Note_on_c, 0, 65, 0
2, 10446, Note_on_c, 0, 70, 36
2, 10454, Note_on_c, 0, 61, 0
2, 10464, Note_on_c, 0, 55, 0
2, 10470, Note_on_c, 0, 56, 0
2, 10473, Note_on_c, 0, 70, 0
2, 10494, Note_on_c, 0, 68, 59
2, 10526, Note_on_c, 0, 68, 0
2, 10552, Note_on_c, 0, 55, 45
2, 10553, Note_on_c, 0, 67, 60
2, 10555, Note_on_c, 0, 60, 30
2, 10562, Note_on_c, 0, 48, 20
2, 10731, Note_on_c, 0, 67, 0
2, 10733, Note_on_c, 0, 64, 59
2, 10775, Note_on_c, 0, 55, 0
2, 10817, Note_on_c, 0, 64, 0
2, 10829, Note_on_c, 0, 69, 58
2, 10857, Note_on_c, 0, 69, 0
2, 10858, Note_on_c, 0, 67, 35
2, 10909, Note_on_c, 0, 67, 0
2, 10916, Note_on_c, 0, 64, 57
2, 10921, Note_on_c, 0, 60, 0
2, 10967, Note_on_c, 0, 55, 22
2, 10971, Note_on_c, 0, 64, 0
2, 10978, Note_on_c, 0, 55, 0
2, 11101, Note_on_c, 0, 60, 24
2, 11109, Note_on_c, 0, 60, 0
2, 11114, Note_on_c, 0, 48, 0
2, 11197, Note_on_c, 0, 60, 24
2, 11200, Note_on_c, 0, 55, 28
2, 11205, Note_on_c, 0, 60, 0
2, 11208, Note_on_c, 0, 55, 0
2, 11282, Note_on_c, 0, 60, 34
2, 11290, Note_on_c, 0, 60, 0
2, 11369, Note_on_c, 0, 62, 58
2, 11373, Note_on_c, 0, 57, 38
2, 11382, Note_on_c, 0, 57, 0
2, 11382, Note_on_c, 0, 62, 0
2, 11458, Note_on_c, 0, 63, 55
2, 11462, Note_on_c, 0, 58, 50
2, 11579, Note_on_c, 0, 68, 56
2, 11596, Note_on_c, 0, 68, 0
2, 11623, Note_on_c, 0, 70, 58
2, 11638, Note_on_c, 0, 70, 0
2, 11680, Note_on_c, 0, 72, 75
2, 11699, Note_on_c, 0, 72, 0
2, 11738, Note_on_c, 0, 74, 80
2, 11754, Note_on_c, 0, 74, 0
2, 11768, Note_on_c, 0, 75, 80
2, 11793, Note_on_c, 0, 58, 0
2, 11833, Note_on_c, 0, 63, 0
2, 11881, Note_on_c, 0, 58, 34
2, 11882, Note_on_c, 0, 75, 0
2, 11882, Note_on_c, 0, 74, 74
2, 11898, Note_on_c, 0, 58, 0
2, 11978, Note_on_c, 0, 74, 0
2, 11996, Note_on_c, 0, 77, 80
2, 11997, Note_on_c, 0, 65, 85
2, 12000, Note_on_c, 0, 63, 58
2, 12001, Note_on_c, 0, 58, 2
2, 12047, Note_on_c, 0, 53, 1
2, 12083, Note_on_c, 0, 53, 0
2, 12097, Note_on_c, 0, 77, 0
2, 12103, Note_on_c, 0, 63, 0
2, 12119, Note_on_c, 0, 75, 72
2, 12119, Note_on_c, 0, 63, 50
2, 12126, Note_on_c, 0, 53, 26
2, 12204, Note_on_c, 0, 58, 0
2, 12218, Note_on_c, 0, 63, 0
2, 12227, Note_on_c, 0, 75, 0
2, 12242, Note_on_c, 0, 58, 29
2, 12243, Note_on_c, 0, 74, 72
2, 12244, Note_on_c, 0, 63, 51
2, 12310, Note_on_c, 0, 58, 0
2, 12322, Note_on_c, 0, 63, 0
2, 12335, Note_on_c, 0, 72, 59
2, 12348, Note_on_c, 0, 58, 43
2, 12350, Control_c, 0, 64, 127
2, 12361, Note_on_c, 0, 72, 0
2, 12361, Note_on_c, 0, 74, 0
2, 12361, Note_on_c, 0, 65, 0
2, 12369, Note_on_c, 0, 53, 0
2, 12371, Note_on_c, 0, 58, 0
2, 12392, Control_c, 0, 64, 0
2, 12394, Note_on_c, 0, 71, 54
2, 12418, Note_on_c, 0, 71, 0
2, 12421, Control_c, 0, 64, 127
2, 12439, Control_c, 0, 64, 0
2, 12445, Note_on_c, 0, 50, 40
2, 12445, Note_on_c, 0, 68, 60
2, 12460, Note_on_c, 0, 68, 0
2, 12466, Note_on_c, 0, 50, 0
2, 12480, Note_on_c, 0, 67, 70
2, 12515, Note_on_c, 0, 67, 0
2, 12546, Note_on_c, 0, 66, 82
2, 12546, Note_on_c, 0, 43, 57
2, 12548, Note_on_c, 0, 62, 88
2, 12549, Note_on_c, 0, 57, 84
2, 12549, Note_on_c, 0, 31, 65
2, 12561, Control_c, 0, 64, 127
2, 12575, Control_c, 0, 64, 0
2, 12629, Control_c, 0, 64, 127
2, 12696, Note_on_c, 0, 57, 0
2, 12697, Note_on_c, 0, 62, 0
2, 12700, Note_on_c, 0, 31, 0
2, 12711, Note_on_c, 0, 43, 0
2, 12718, Note_on_c, 0, 66, 0
2, 12725, Control_c, 0, 64, 0
2, 12730, Note_on_c, 0, 67, 74
2, 12730, Note_on_c, 0, 64, 80
2, 12731, Note_on_c, 0, 60, 73
2, 12732, Note_on_c, 0, 45, 74
2, 12733, Note_on_c, 0, 33, 64
2, 12801, Control_c, 0, 64, 127
2, 12806, Note_on_c, 0, 60, 0
2, 12807, Note_on_c, 0, 33, 0
2, 12809, Note_on_c, 0, 45, 0
2, 12811, Note_on_c, 0, 64, 0
2, 12813, Note_on_c, 0, 67, 0
2, 12817, Control_c, 0, 64, 0
2, 12824, Note_on_c, 0, 45, 60
2, 12825, Note_on_c, 0, 64, 68
2, 12826, Note_on_c, 0, 33, 47
2, 12826, Note_on_c, 0, 60, 45
2, 12827, Note_on_c, 0, 67, 69
2, 12899, Control_c, 0, 64, 127
2, 12923, Note_on_c, 0, 60, 0
2, 12942, Note_on_c, 0, 64, 0
2, 12943, Note_on_c, 0, 33, 0
2, 12948, Note_on_c, 0, 45, 0
2, 12949, Note_on_c, 0, 60, 39
2, 12950, Note_on_c, 0, 67, 0
2, 12950, Control_c, 0, 64, 0
2, 12957, Note_on_c, 0, 60, 0
2, 12970, Note_on_c, 0, 47, 60
2, 12970, Note_on_c, 0, 35, 50
2, 12970, Note_on_c, 0, 69, 49
2, 12972, Note_on_c, 0, 66, 47
2, 12976, Note_on_c, 0, 62, 31
2, 12978, Note_on_c, 0, 64, 33
2, 12985, Note_on_c, 0, 64, 0
2, 13041, Note_on_c, 0, 62, 0
2, 13042, Note_on_c, 0, 35, 0
2, 13044, Note_on_c, 0, 47, 0
2, 13044, Note_on_c, 0, 69, 0
2, 13045, Note_on_c, 0, 66, 0
2, 13062, Note_on_c, 0, 35, 43
2, 13062, Note_on_c, 0, 47, 49
2, 13063, Note_on_c, 0, 62, 62
2, 13063, Note_on_c, 0, 66, 48
2, 13064, Note_on_c, 0, 69, 39
2, 13074, Note_on_c, 0, 35, 0
2, 13076, Note_on_c, 0, 62, 0
2, 13077, Note_on_c, 0, 47, 0
2, 13081, Note_on_c, 0, 69, 0
2, 13081, Note_on_c, 0, 66, 0
2, 13092, Note_on_c, 0, 67, 47
2, 13094, Note_on_c, 0, 45, 50
2, 13102, Note_on_c, 0, 45, 0
2, 13107, Note_on_c, 0, 67, 0
2, 13146, Note_on_c, 0, 66, 64
2, 13147, Note_on_c, 0, 43, 54
2, 13149, Note_on_c, 0, 62, 58
2, 13150, Note_on_c, 0, 31, 53
2, 13155, Note_on_c, 0, 59, 30
2, 13241, Control_c, 0, 64, 127
2, 13270, Note_on_c, 0, 31, 0
2, 13282, Note_on_c, 0, 43, 0
2, 13308, Note_on_c, 0, 59, 0
2, 13322, Note_on_c, 0, 62, 0
2, 13334, Note_on_c, 0, 66, 0
2, 13372, Note_on_c, 0, 67, 80
2, 13379, Control_c, 0, 64, 0
2, 13431, Note_on_c, 0, 67, 0
2, 13435, Note_on_c, 0, 60, 42
2, 13437, Note_on_c, 0, 68, 64
2, 13439, Note_on_c, 0, 63, 40
2, 13446, Note_on_c, 0, 63, 0
2, 13448, Note_on_c, 0, 56, 25
2, 13460, Note_on_c, 0, 60, 0
2, 13502, Note_on_c, 0, 56, 0
2, 13530, Note_on_c, 0, 70, 56
2, 13534, Note_on_c, 0, 68, 0
2, 13577, Note_on_c, 0, 70, 0
2, 13591, Note_on_c, 0, 72, 37
2, 13605, Note_on_c, 0, 72, 0
2, 13642, Note_on_c, 0, 74, 37
2, 13661, Note_on_c, 0, 74, 0
2, 13680, Note_on_c, 0, 75, 62
2, 13737, Note_on_c, 0, 75, 0
2, 13799, Note_on_c, 0, 63, 44
2, 13805, Note_on_c, 0, 60, 35
2, 13811, Note_on_c, 0, 63, 0
2, 13814, Note_on_c, 0, 60, 0
2, 13858, Note_on_c, 0, 74, 62
2, 13875, Note_on_c, 0, 74, 0
2, 13921, Note_on_c, 0, 64, 32
2, 13921, Note_on_c, 0, 67, 45
2, 13924, Note_on_c, 0, 77, 76
2, 13924, Note_on_c, 0, 60, 33
2, 13927, Note_on_c, 0, 79, 42
2, 13931, Note_on_c, 0, 67, 0
2, 13936, Note_on_c, 0, 79, 0
2, 13943, Note_on_c, 0, 64, 0
2, 13948, Note_on_c, 0, 60, 0
2, 14008, Note_on_c, 0, 75, 64
2, 14016, Note_on_c, 0, 64, 36
2, 14019, Note_on_c, 0, 60, 27
2, 14042, Note_on_c, 0, 64, 0
2, 14045, Note_on_c, 0, 60, 0
2, 14083, Note_on_c, 0, 77, 0
2, 14089, Note_on_c, 0, 75, 0
2, 14099, Note_on_c, 0, 64, 46
2, 14100, Note_on_c, 0, 74, 73
2, 14103, Note_on_c, 0, 67, 49
2, 14104, Note_on_c, 0, 60, 32
2, 14104, Note_on_c, 0, 56, 39
2, 14154, Note_on_c, 0, 67, 0
2, 14164, Note_on_c, 0, 64, 0
2, 14177, Note_on_c, 0, 74, 0
2, 14181, Note_on_c, 0, 60, 0
2, 14195, Note_on_c, 0, 72, 72
2, 14197, Note_on_c, 0, 67, 40
2, 14199, Note_on_c, 0, 64, 32
2, 14209, Note_on_c, 0, 67, 0
2, 14218, Note_on_c, 0, 64, 0
2, 14260, Note_on_c, 0, 72, 0
2, 14263, Note_on_c, 0, 56, 0
2, 14271, Note_on_c, 0, 60, 14
2, 14276, Note_on_c, 0, 71, 58
2, 14291, Note_on_c, 0, 60, 0
2, 14302, Note_on_c, 0, 71, 0
2, 14330, Note_on_c, 0, 68, 56
2, 14362, Note_on_c, 0, 68, 0
2, 14396, Note_on_c, 0, 67, 59
2, 14404, Note_on_c, 0, 67, 0
2, 14491, Note_on_c, 0, 50, 61
2, 14495, Note_on_c, 0, 38, 44
2, 14502, Note_on_c, 0, 50, 0
2, 14522, Note_on_c, 0, 38, 0
2, 14523, Note_on_c, 0, 53, 50
2, 14530, Note_on_c, 0, 41, 38
2, 14545, Note_on_c, 0, 53, 0
2, 14561, Note_on_c, 0, 41, 0
2, 14562, Note_on_c, 0, 57, 62
2, 14569, Note_on_c, 0, 45, 43
2, 14578, Note_on_c, 0, 45, 0
2, 14578, Note_on_c, 0, 57, 0
2, 14614, Note_on_c, 0, 48, 85
2, 14615, Note_on_c, 0, 60, 95
2, 14691, Note_on_c, 0, 60, 0
2, 14702, Note_on_c, 0, 48, 0
2, 14702, Note_on_c, 0, 47, 48
2, 14705, Note_on_c, 0, 59, 59
2, 14739, Note_on_c, 0, 59, 0
2, 14740, Note_on_c, 0, 47, 0
2, 14748, Note_on_c, 0, 55, 36
2, 14748, Note_on_c, 0, 43, 36
2, 14756, Note_on_c, 0, 55, 0
2, 14760, Note_on_c, 0, 43, 0
2, 14768, Note_on_c, 0, 48, 72
2, 14768, Note_on_c, 0, 60, 73
2, 14813, Note_on_c, 0, 60, 0
2, 14824, Note_on_c, 0, 47, 62
2, 14825, Note_on_c, 0, 48, 0
2, 14826, Note_on_c, 0, 59, 69
2, 14847, Note_on_c, 0, 47, 0
2, 14849, Note_on_c, 0, 59, 0
2, 14889, Note_on_c, 0, 55, 65
2, 14890, Note_on_c, 0, 43, 62
2, 14892, Note_on_c, 0, 53, 44
2, 14900, Note_on_c, 0, 53, 0
2, 14904, Note_on_c, 0, 55, 0
2, 14905, Note_on_c, 0, 43, 0
2, 14945, Note_on_c, 0, 38, 60
2, 14949, Note_on_c, 0, 50, 63
2, 14973, Note_on_c, 0, 50, 0
2, 14989, Note_on_c, 0, 38, 0
2, 15007, Note_on_c, 0, 41, 52
2, 15009, Note_on_c, 0, 53, 42
2, 15034, Note_on_c, 0, 53, 0
2, 15037, Note_on_c, 0, 41, 0
2, 15043, Note_on_c, 0, 57, 64
2, 15045, Note_on_c, 0, 45, 62
2, 15061, Note_on_c, 0, 57, 0
2, 15062, Note_on_c, 0, 45, 0
2, 15099, Note_on_c, 0, 48, 85
2, 15100, Note_on_c, 0, 60, 94
2, 15171, Note_on_c, 0, 60, 0
2, 15181, Note_on_c, 0, 59, 63
2, 15182, Note_on_c, 0, 48, 0
2, 15182, Note_on_c, 0, 47, 47
2, 15210, Note_on_c, 0, 47, 0
2, 15212, Note_on_c, 0, 59, 0
2, 15220, Note_on_c, 0, 55, 40
2, 15221, Note_on_c, 0, 43, 40
2, 15228, Note_on_c, 0, 55, 0
2, 15240, Note_on_c, 0, 43, 0
2, 15243, Note_on_c, 0, 60, 71
2, 15246, Note_on_c, 0, 48, 72
2, 15293, Note_on_c, 0, 60, 0
2, 15302, Note_on_c, 0, 48, 0
2, 15303, Note_on_c, 0, 47, 50
2, 15304, Note_on_c, 0, 59, 50
2, 15335, Note_on_c, 0, 59, 0
2, 15338, Note_on_c, 0, 47, 0
2, 15340, Note_on_c, 0, 43, 30
2, 15343, Note_on_c, 0, 55, 41
2, 15350, Note_on_c, 0, 43, 0
2, 15351, Note_on_c, 0, 55, 0
2, 15364, Note_on_c, 0, 50, 66
2, 15367, Note_on_c, 0, 62, 68
2, 15405, Note_on_c, 0, 62, 0
2, 15413, Note_on_c, 0, 50, 0
2, 15426, Note_on_c, 0, 62, 57
2, 15431, Note_on_c, 0, 50, 49
2, 15481, Note_on_c, 0, 50, 0
2, 15488, Note_on_c, 0, 62, 0
2, 15573, Note_on_c, 0, 62, 57
2, 15577, Note_on_c, 0, 57, 44
2, 15581, Note_on_c, 0, 62, 0
2, 15586, Note_on_c, 0, 57, 0
2, 15658, Note_on_c, 0, 62, 60
2, 15659, Note_on_c, 0, 57, 55
2, 15666, Note_on_c, 0, 62, 0
2, 15668, Note_on_c, 0, 57, 0
2, 15754, Note_on_c, 0, 62, 64
2, 15755, Note_on_c, 0, 57, 55
2, 15761, Note_on_c, 0, 62, 0
2, 15763, Note_on_c, 0, 57, 0
2, 15840, Note_on_c, 0, 62, 65
2, 15841, Note_on_c, 0, 57, 57
2, 15847, Note_on_c, 0, 62, 0
2, 15849, Note_on_c, 0, 57, 0
2, 15936, Note_on_c, 0, 72, 55
2, 15936, Note_on_c, 0, 62, 66
2, 15937, Note_on_c, 0, 84, 47
2, 15938, Note_on_c, 0, 57, 50
2, 15942, Note_on_c, 0, 62, 0
2, 15942, Note_on_c, 0, 72, 0
2, 15946, Note_on_c, 0, 84, 0
2, 15947, Note_on_c, 0, 57, 0
2, 15962, Note_on_c, 0, 86, 68
2, 15962, Note_on_c, 0, 74, 63
2, 15991, Note_on_c, 0, 74, 0
2, 15997, Note_on_c, 0, 86, 0
2, 16023, Note_on_c, 0, 88, 76
2, 16024, Note_on_c, 0, 76, 74
2, 16042, Note_on_c, 0, 76, 0
2, 16049, Note_on_c, 0, 88, 0
2, 16066, Note_on_c, 0, 62, 29
2, 16068, Note_on_c, 0, 57, 34
2, 16074, Note_on_c, 0, 62, 0
2, 16079, Note_on_c, 0, 57, 0
2, 16088, Note_on_c, 0, 90, 69
2, 16090, Note_on_c, 0, 78, 72
2, 16096, Note_on_c, 0, 91, 46
2, 16099, Note_on_c, 0, 89, 25
2, 16105, Note_on_c, 0, 90, 0
2, 16108, Note_on_c, 0, 78, 0
2, 16109, Note_on_c, 0, 79, 62
2, 16122, Note_on_c, 0, 91, 0
2, 16123, Note_on_c, 0, 79, 0
2, 16125, Note_on_c, 0, 89, 0
2, 16130, Note_on_c, 0, 62, 35
2, 16132, Note_on_c, 0, 57, 38
2, 16138, Note_on_c, 0, 62, 0
2, 16142, Note_on_c, 0, 57, 0
2, 16148, Note_on_c, 0, 75, 72
2, 16149, Note_on_c, 0, 87, 56
2, 16166, Note_on_c, 0, 75, 0
2, 16169, Note_on_c, 0, 88, 49
2, 16169, Note_on_c, 0, 76, 36
2, 16170, Note_on_c, 0, 87, 0
2, 16177, Note_on_c, 0, 88, 0
2, 16183, Note_on_c, 0, 76, 0
2, 16190, Note_on_c, 0, 62, 40
2, 16195, Note_on_c, 0, 57, 34
2, 16199, Note_on_c, 0, 62, 0
2, 16205, Note_on_c, 0, 57, 0
2, 16206, Note_on_c, 0, 86, 68
2, 16213, Note_on_c, 0, 74, 32
2, 16238, Note_on_c, 0, 86, 0
2, 16241, Note_on_c, 0, 74, 0
2, 16248, Note_on_c, 0, 57, 52
2, 16249, Note_on_c, 0, 62, 47
2, 16256, Note_on_c, 0, 62, 0
2, 16258, Note_on_c, 0, 57, 0
2, 16267, Note_on_c, 0, 84, 45
2, 16271, Note_on_c, 0, 72, 54
2, 16272, Note_on_c, 0, 83, 43
2, 16274, Note_on_c, 0, 82, 37
2, 16279, Note_on_c, 0, 83, 0
2, 16292, Note_on_c, 0, 84, 0
2, 16300, Note_on_c, 0, 82, 0
2, 16303, Note_on_c, 0, 72, 0
2, 16328, Note_on_c, 0, 82, 49
2, 16331, Note_on_c, 0, 67, 41
2, 16333, Note_on_c, 0, 62, 53
2, 16333, Note_on_c, 0, 70, 48
2, 16334, Note_on_c, 0, 58, 25
2, 16335, Note_on_c, 0, 63, 35
2, 16375, Note_on_c, 0, 67, 0
2, 16378, Note_on_c, 0, 58, 0
2, 16385, Note_on_c, 0, 62, 0
2, 16389, Note_on_c, 0, 63, 0
2, 16397, Note_on_c, 0, 70, 0
2, 16400, Note_on_c, 0, 82, 0
2, 16412, Note_on_c, 0, 82, 45
2, 16413, Note_on_c, 0, 70, 39
2, 16418, Note_on_c, 0, 75, 38
2, 16419, Note_on_c, 0, 67, 38
2, 16420, Note_on_c, 0, 63, 36
2, 16423, Note_on_c, 0, 79, 34
2, 16428, Note_on_c, 0, 67, 0
2, 16438, Note_on_c, 0, 63, 0
2, 16499, Note_on_c, 0, 63, 58
2, 16500, Note_on_c, 0, 67, 67
2, 16502, Note_on_c, 0, 62, 62
2, 16508, Note_on_c, 0, 67, 0
2, 16509, Note_on_c, 0, 62, 0
2, 16517, Note_on_c, 0, 63, 0
2, 16593, Note_on_c, 0, 63, 47
2, 16594, Note_on_c, 0, 67, 43
2, 16597, Note_on_c, 0, 62, 45
2, 16603, Note_on_c, 0, 67, 0
2, 16604, Note_on_c, 0, 62, 0
2, 16611, Note_on_c, 0, 63, 0
2, 16680, Note_on_c, 0, 63, 69
2, 16683, Note_on_c, 0, 58, 50
2, 16686, Note_on_c, 0, 53, 27
2, 16693, Note_on_c, 0, 63, 0
2, 16695, Note_on_c, 0, 53, 0
2, 16697, Note_on_c, 0, 58, 0
2, 16772, Note_on_c, 0, 60, 64
2, 16772, Note_on_c, 0, 65, 69
2, 16774, Note_on_c, 0, 55, 58
2, 16783, Note_on_c, 0, 55, 0
2, 16790, Note_on_c, 0, 60, 0
2, 16790, Note_on_c, 0, 65, 0
2, 16857, Note_on_c, 0, 62, 71
2, 16857, Note_on_c, 0, 67, 65
2, 16862, Note_on_c, 0, 56, 59
2, 16863, Note_on_c, 0, 65, 57
2, 16869, Note_on_c, 0, 65, 0
2, 16979, Note_on_c, 0, 67, 0
2, 16982, Note_on_c, 0, 62, 0
2, 17002, Note_on_c, 0, 56, 0
2, 17038, Note_on_c, 0, 58, 63
2, 17038, Note_on_c, 0, 63, 69
2, 17055, Note_on_c, 0, 63, 0
2, 17068, Note_on_c, 0, 58, 0
2, 17129, Note_on_c, 0, 58, 60
2, 17129, Note_on_c, 0, 63, 64
2, 17133, Note_on_c, 0, 53, 37
2, 17142, Note_on_c, 0, 79, 0
2, 17154, Note_on_c, 0, 75, 0
2, 17156, Note_on_c, 0, 82, 0
2, 17159, Note_on_c, 0, 70, 0
2, 17200, Note_on_c, 0, 53, 0
2, 17200, Note_on_c, 0, 58, 0
2, 17208, Note_on_c, 0, 63, 0
2, 17219, Note_on_c, 0, 56, 57
2, 17221, Note_on_c, 0, 64, 44
2, 17222, Note_on_c, 0, 53, 38
2, 17222, Note_on_c, 0, 60, 42
2, 17340, Note_on_c, 0, 68, 74
2, 17357, Note_on_c, 0, 68, 0
2, 17370, Note_on_c, 0, 68, 59
2, 17388, Note_on_c, 0, 68, 0
2, 17399, Note_on_c, 0, 68, 52
2, 17420, Note_on_c, 0, 68, 0
2, 17432, Note_on_c, 0, 68, 51
2, 17449, Note_on_c, 0, 68, 0
2, 17457, Note_on_c, 0, 68, 38
2, 17458, Note_on_c, 0, 60, 0
2, 17483, Note_on_c, 0, 68, 0
2, 17514, Note_on_c, 0, 64, 0
2, 17522, Note_on_c, 0, 68, 91
2, 17554, Note_on_c, 0, 68, 0
2, 17584, Note_on_c, 0, 68, 86
2, 17619, Note_on_c, 0, 68, 0
2, 17625, Note_on_c, 0, 60, 33
2, 17641, Note_on_c, 0, 60, 0
2, 17647, Note_on_c, 0, 68, 87
2, 17660, Note_on_c, 0, 53, 0
2, 17663, Note_on_c, 0, 56, 0
2, 17691, Note_on_c, 0, 64, 91
2, 17691, Note_on_c, 0, 59, 82
2, 17691, Note_on_c, 0, 53, 81
2, 17859, Note_on_c, 0, 68, 0
2, 17889, Note_on_c, 0, 70, 82
2, 17918, Note_on_c, 0, 70, 0
2, 17927, Note_on_c, 0, 71, 66
2, 17951, Note_on_c, 0, 71, 0
2, 17983, Note_on_c, 0, 72, 88
2, 18002, Note_on_c, 0, 72, 0
2, 18002, Note_on_c, 0, 64, 0
2, 18003, Note_on_c, 0, 59, 0
2, 18040, Note_on_c, 0, 75, 82
2, 18061, Note_on_c, 0, 53, 0
2, 18062, Note_on_c, 0, 75, 0
2, 18091, Note_on_c, 0, 72, 74
2, 18116, Note_on_c, 0, 72, 0
2, 18120, Note_on_c, 0, 70, 48
2, 18158, Note_on_c, 0, 63, 32
2, 18161, Note_on_c, 0, 70, 0
2, 18165, Note_on_c, 0, 63, 0
2, 18171, Note_on_c, 0, 56, 32
2, 18177, Note_on_c, 0, 68, 71
2, 18192, Note_on_c, 0, 56, 0
2, 18215, Note_on_c, 0, 68, 0
2, 18239, Note_on_c, 0, 62, 49
2, 18239, Note_on_c, 0, 67, 71
2, 18242, Note_on_c, 0, 57, 50
2, 18243, Note_on_c, 0, 52, 29
2, 18247, Note_on_c, 0, 62, 0
2, 18251, Note_on_c, 0, 57, 0
2, 18263, Note_on_c, 0, 67, 0
2, 18270, Note_on_c, 0, 52, 0
2, 18298, Note_on_c, 0, 67, 68
2, 18324, Note_on_c, 0, 67, 0
2, 18354, Note_on_c, 0, 54, 43
2, 18360, Note_on_c, 0, 55, 36
2, 18361, Note_on_c, 0, 67, 60
2, 18369, Note_on_c, 0, 55, 0
2, 18371, Note_on_c, 0, 54, 0
2, 18380, Note_on_c, 0, 67, 0
2, 18406, Note_on_c, 0, 55, 70
2, 18410, Note_on_c, 0, 66, 31
2, 18417, Note_on_c, 0, 66, 0
2, 18477, Note_on_c, 0, 50, 31
2, 18487, Note_on_c, 0, 50, 0
2, 18582, Note_on_c, 0, 50, 57
2, 18587, Note_on_c, 0, 55, 0
2, 18589, Note_on_c, 0, 50, 0
2, 18606, Note_on_c, 0, 55, 57
2, 18646, Note_on_c, 0, 55, 0
2, 18661, Note_on_c, 0, 55, 65
2, 18890, Note_on_c, 0, 55, 0
2, 18897, Note_on_c, 0, 43, 58
2, 18903, Note_on_c, 0, 42, 38
2, 18910, Note_on_c, 0, 42, 0
2, 18916, Note_on_c, 0, 43, 0
2, 18994, Note_on_c, 0, 63, 67
2, 18997, Note_on_c, 0, 53, 33
2, 18997, Note_on_c, 0, 58, 58
2, 19008, Note_on_c, 0, 53, 0
2, 19011, Note_on_c, 0, 63, 0
2, 19023, Note_on_c, 0, 58, 0
2, 19080, Note_on_c, 0, 63, 63
2, 19081, Note_on_c, 0, 53, 55
2, 19084, Note_on_c, 0, 58, 61
2, 19154, Note_on_c, 0, 53, 0
2, 19167, Note_on_c, 0, 63, 0
2, 19174, Note_on_c, 0, 58, 0
2, 19181, Note_on_c, 0, 62, 57
2, 19182, Note_on_c, 0, 57, 37
2, 19185, Note_on_c, 0, 52, 44
2, 19301, Note_on_c, 0, 83, 62
2, 19309, Note_on_c, 0, 83, 0
2, 19326, Note_on_c, 0, 74, 74
2, 19326, Note_on_c, 0, 86, 80
2, 19351, Note_on_c, 0, 74, 0
2, 19356, Note_on_c, 0, 86, 0
2, 19368, Note_on_c, 0, 84, 66
2, 19390, Note_on_c, 0, 84, 0
2, 19433, Note_on_c, 0, 57, 0
2, 19442, Note_on_c, 0, 52, 0
2, 19443, Note_on_c, 0, 62, 0
2, 19498, Note_on_c, 0, 62, 58
2, 19499, Note_on_c, 0, 57, 55
2, 19508, Note_on_c, 0, 62, 0
2, 19509, Note_on_c, 0, 57, 0
2, 19559, Note_on_c, 0, 54, 55
2, 19563, Note_on_c, 0, 63, 76
2, 19565, Note_on_c, 0, 58, 59
2, 19589, Note_on_c, 0, 54, 0
2, 19590, Note_on_c, 0, 63, 0
2, 19598, Note_on_c, 0, 58, 0
2, 19655, Note_on_c, 0, 62, 65
2, 19657, Note_on_c, 0, 57, 50
2, 19660, Note_on_c, 0, 52, 33
2, 19662, Note_on_c, 0, 62, 0
2, 19667, Note_on_c, 0, 57, 0
2, 19673, Note_on_c, 0, 52, 0
2, 19685, Note_on_c, 0, 83, 91
2, 19715, Note_on_c, 0, 83, 0
2, 19728, Note_on_c, 0, 86, 72
2, 19762, Note_on_c, 0, 86, 0
2, 19777, Note_on_c, 0, 84, 80
2, 19785, Note_on_c, 0, 62, 40
2, 19789, Note_on_c, 0, 57, 26
2, 19793, Note_on_c, 0, 62, 0
2, 19797, Note_on_c, 0, 57, 0
2, 19804, Note_on_c, 0, 84, 0
2, 19838, Note_on_c, 0, 83, 80
2, 19862, Note_on_c, 0, 83, 0
2, 19868, Note_on_c, 0, 79, 59
2, 19894, Note_on_c, 0, 79, 0
2, 19903, Note_on_c, 0, 76, 57
2, 19916, Note_on_c, 0, 76, 0
2, 19966, Note_on_c, 0, 57, 22
2, 19977, Note_on_c, 0, 57, 0
2, 19982, Note_on_c, 0, 75, 67
2, 20007, Note_on_c, 0, 75, 0
2, 20007, Note_on_c, 0, 76, 55
2, 20007, Note_on_c, 0, 74, 47
2, 20028, Note_on_c, 0, 74, 0
2, 20028, Note_on_c, 0, 62, 30
2, 20030, Note_on_c, 0, 76, 0
2, 20035, Note_on_c, 0, 62, 0
2, 20049, Note_on_c, 0, 74, 69
2, 20091, Note_on_c, 0, 74, 0
2, 20092, Note_on_c, 0, 57, 28
2, 20101, Note_on_c, 0, 57, 0
2, 20104, Note_on_c, 0, 72, 62
2, 20143, Note_on_c, 0, 72, 0
2, 20162, Note_on_c, 0, 70, 52
2, 20254, Note_on_c, 0, 67, 62
2, 20254, Note_on_c, 0, 63, 60
2, 20257, Note_on_c, 0, 70, 0
2, 20261, Note_on_c, 0, 58, 30
2, 20263, Note_on_c, 0, 63, 0
2, 20272, Note_on_c, 0, 58, 0
2, 20330, Note_on_c, 0, 67, 0
2, 20344, Note_on_c, 0, 65, 66
2, 20437, Note_on_c, 0, 63, 61
2, 20439, Note_on_c, 0, 65, 0
2, 20460, Note_on_c, 0, 63, 0
2, 20465, Note_on_c, 0, 60, 24
2, 20499, Note_on_c, 0, 60, 0
2, 20522, Note_on_c, 0, 58, 67
2, 20579, Note_on_c, 0, 58, 0
2, 20583, Note_on_c, 0, 60, 55
2, 20713, Note_on_c, 0, 60, 0
2, 20758, Note_on_c, 0, 48, 55
2, 20777, Note_on_c, 0, 48, 0
2, 20802, Note_on_c, 0, 53, 31
2, 20821, Note_on_c, 0, 53, 0
2, 20823, Note_on_c, 0, 58, 44
2, 20854, Note_on_c, 0, 58, 0
2, 20857, Note_on_c, 0, 60, 68
2, 20884, Note_on_c, 0, 60, 0
2, 20889, Note_on_c, 0, 53, 44
2, 20912, Note_on_c, 0, 53, 0
2, 20922, Note_on_c, 0, 58, 72
2, 20950, Note_on_c, 0, 63, 51
2, 20971, Note_on_c, 0, 58, 0
2, 20982, Note_on_c, 0, 63, 0
2, 20983, Note_on_c, 0, 65, 64
2, 20995, Note_on_c, 0, 51, 40
2, 21000, Note_on_c, 0, 65, 0
2, 21003, Note_on_c, 0, 51, 0
2, 21006, Note_on_c, 0, 60, 50
2, 21029, Note_on_c, 0, 60, 0
2, 21038, Note_on_c, 0, 65, 61
2, 21067, Note_on_c, 0, 65, 0
2, 21069, Note_on_c, 0, 70, 46
2, 21092, Note_on_c, 0, 70, 0
2, 21102, Note_on_c, 0, 72, 60
2, 21124, Note_on_c, 0, 65, 27
2, 21128, Note_on_c, 0, 72, 0
2, 21159, Note_on_c, 0, 65, 0
2, 21189, Note_on_c, 0, 75, 56
2, 21212, Note_on_c, 0, 75, 0
2, 21224, Note_on_c, 0, 77, 74
2, 21230, Note_on_c, 0, 63, 60
2, 21235, Note_on_c, 0, 58, 37
2, 21244, Note_on_c, 0, 63, 0
2, 21252, Note_on_c, 0, 77, 0
2, 21256, Note_on_c, 0, 58, 0
2, 21302, Note_on_c, 0, 72, 62
2, 21329, Note_on_c, 0, 72, 0
2, 21339, Note_on_c, 0, 77, 67
2, 21343, Note_on_c, 0, 63, 46
2, 21351, Note_on_c, 0, 58, 32
2, 21352, Note_on_c, 0, 63, 0
2, 21360, Note_on_c, 0, 58, 0
2, 21365, Note_on_c, 0, 77, 0
2, 21367, Note_on_c, 0, 82, 60
2, 21392, Note_on_c, 0, 82, 0
2, 21400, Note_on_c, 0, 84, 71
2, 21422, Note_on_c, 0, 84, 0
2, 21428, Note_on_c, 0, 77, 48
2, 21441, Note_on_c, 0, 77, 0
2, 21457, Note_on_c, 0, 82, 69
2, 21485, Note_on_c, 0, 87, 46
2, 21491, Note_on_c, 0, 82, 0
2, 21511, Note_on_c, 0, 87, 0
2, 21523, Note_on_c, 0, 89, 70
2, 21540, Note_on_c, 0, 89, 0
2, 21606, Note_on_c, 0, 65, 54
2, 21612, Note_on_c, 0, 55, 25
2, 21613, Note_on_c, 0, 60, 33
2, 21613, Note_on_c, 0, 56, 35
2, 21622, Note_on_c, 0, 60, 0
2, 21623, Note_on_c, 0, 65, 0
2, 21626, Note_on_c, 0, 55, 0
2, 21630, Note_on_c, 0, 56, 0
2, 21698, Note_on_c, 0, 65, 66
2, 21698, Note_on_c, 0, 56, 62
2, 21702, Note_on_c, 0, 60, 47
2, 21706, Note_on_c, 0, 55, 29
2, 21709, Note_on_c, 0, 60, 0
2, 21710, Note_on_c, 0, 65, 0
2, 21714, Note_on_c, 0, 55, 0
2, 21724, Note_on_c, 0, 56, 0
2, 21785, Note_on_c, 0, 64, 72
2, 21787, Note_on_c, 0, 53, 66
2, 21787, Note_on_c, 0, 59, 61
2, 21790, Note_on_c, 0, 58, 34
2, 21797, Note_on_c, 0, 58, 0
2, 21846, Note_on_c, 0, 91, 81
2, 21847, Note_on_c, 0, 79, 84
2, 21850, Note_on_c, 0, 89, 62
2, 21854, Note_on_c, 0, 64, 0
2, 21857, Note_on_c, 0, 89, 0
2, 21858, Note_on_c, 0, 59, 0
2, 21864, Note_on_c, 0, 53, 0
2, 21865, Note_on_c, 0, 79, 0
2, 21866, Note_on_c, 0, 91, 0
2, 21902, Note_on_c, 0, 59, 53
2, 21903, Note_on_c, 0, 63, 56
2, 21904, Note_on_c, 0, 80, 71
2, 21905, Note_on_c, 0, 92, 78
2, 21905, Note_on_c, 0, 56, 58
2, 21905, Note_on_c, 0, 53, 44
2, 21909, Note_on_c, 0, 63, 0
2, 21915, Note_on_c, 0, 53, 0
2, 21916, Note_on_c, 0, 59, 0
2, 21920, Note_on_c, 0, 80, 0
2, 21922, Note_on_c, 0, 92, 0
2, 21928, Note_on_c, 0, 56, 0
2, 21969, Note_on_c, 0, 94, 72
2, 21969, Note_on_c, 0, 82, 78
2, 21970, Note_on_c, 0, 57, 54
2, 21972, Note_on_c, 0, 51, 32
2, 21973, Note_on_c, 0, 62, 36
2, 21978, Note_on_c, 0, 57, 0
2, 21980, Note_on_c, 0, 51, 0
2, 21981, Note_on_c, 0, 62, 0
2, 21982, Note_on_c, 0, 82, 0
2, 21984, Note_on_c, 0, 94, 0
2, 21998, Note_on_c, 0, 82, 60
2, 22003, Note_on_c, 0, 95, 64
2, 22005, Note_on_c, 0, 82, 0
2, 22005, Note_on_c, 0, 83, 68
2, 22006, Note_on_c, 0, 62, 36
2, 22008, Note_on_c, 0, 57, 38
2, 22018, Note_on_c, 0, 57, 0
2, 22019, Note_on_c, 0, 62, 0
2, 22023, Note_on_c, 0, 83, 0
2, 22025, Note_on_c, 0, 95, 0
2, 22061, Note_on_c, 0, 95, 83
2, 22062, Note_on_c, 0, 62, 81
2, 22062, Note_on_c, 0, 57, 74
2, 22062, Note_on_c, 0, 83, 84
2, 22062, Note_on_c, 0, 52, 75
2, 22063, Note_on_c, 0, 88, 72
2, 22064, Note_on_c, 0, 91, 60
2, 22168, Note_on_c, 0, 95, 0
2, 22174, Note_on_c, 0, 91, 0
2, 22178, Note_on_c, 0, 88, 0
2, 22184, Note_on_c, 0, 83, 0
2, 22187, Note_on_c, 0, 62, 0
2, 22187, Note_on_c, 0, 52, 0
2, 22202, Note_on_c, 0, 62, 61
2, 22203, Note_on_c, 0, 52, 39
2, 22203, Note_on_c, 0, 91, 61
2, 22204, Note_on_c, 0, 86, 62
2, 22206, Note_on_c, 0, 79, 42
2, 22215, Note_on_c, 0, 79, 0
2, 22220, Note_on_c, 0, 86, 0
2, 22221, Note_on_c, 0, 91, 0
2, 22226, Note_on_c, 0, 62, 0
2, 22234, Note_on_c, 0, 52, 0
2, 22241, Note_on_c, 0, 57, 0
2, 22358, Note_on_c, 0, 79, 64
2, 22358, Note_on_c, 0, 74, 70
2, 22359, Note_on_c, 0, 69, 65
2, 22360, Note_on_c, 0, 64, 63
2, 22370, Note_on_c, 0, 69, 0
2, 22374, Note_on_c, 0, 74, 0
2, 22375, Note_on_c, 0, 79, 0
2, 22375, Note_on_c, 0, 64, 0
2, 22416, Note_on_c, 0, 62, 59
2, 22436, Note_on_c, 0, 62, 0
2, 22445, Note_on_c, 0, 74, 80
2, 22445, Note_on_c, 0, 79, 74
2, 22446, Note_on_c, 0, 64, 70
2, 22447, Note_on_c, 0, 69, 68
2, 22548, Note_on_c, 0, 64, 0
2, 22612, Note_on_c, 0, 79, 0
2, 22614, Note_on_c, 0, 69, 0
2, 22619, Note_on_c, 0, 74, 0
2, 22620, Note_on_c, 0, 55, 87
2, 22622, Note_on_c, 0, 54, 63
2, 22635, Note_on_c, 0, 54, 0
2, 22722, Note_on_c, 0, 54, 39
2, 22735, Note_on_c, 0, 54, 0
2, 22737, Note_on_c, 0, 65, 96
2, 22772, Note_on_c, 0, 65, 0
2, 22794, Note_on_c, 0, 54, 33
2, 22803, Note_on_c, 0, 54, 0
2, 22805, Note_on_c, 0, 65, 96
2, 22913, Note_on_c, 0, 54, 45
2, 22914, Note_on_c, 0, 65, 0
2, 22922, Note_on_c, 0, 54, 0
2, 22940, Note_on_c, 0, 65, 66
2, 22966, Note_on_c, 0, 65, 0
2, 22982, Note_on_c, 0, 55, 0
2, 23029, Note_on_c, 0, 52, 49
2, 23032, Note_on_c, 0, 57, 52
2, 23045, Note_on_c, 0, 57, 0
2, 23052, Note_on_c, 0, 65, 108
2, 23054, Note_on_c, 0, 52, 0
2, 23084, Note_on_c, 0, 64, 68
2, 23093, Note_on_c, 0, 65, 0
2, 23105, Note_on_c, 0, 64, 0
2, 23115, Note_on_c, 0, 60, 28
2, 23142, Note_on_c, 0, 60, 0
2, 23165, Note_on_c, 0, 55, 58
2, 23200, Note_on_c, 0, 55, 0
2, 23223, Note_on_c, 0, 55, 53
2, 23230, Note_on_c, 0, 55, 0
2, 23320, Note_on_c, 0, 57, 48
2, 23320, Note_on_c, 0, 62, 47
2, 23327, Note_on_c, 0, 62, 0
2, 23328, Note_on_c, 0, 57, 0
2, 23400, Note_on_c, 0, 63, 71
2, 23401, Note_on_c, 0, 53, 57
2, 23407, Note_on_c, 0, 63, 0
2, 23408, Note_on_c, 0, 58, 27
2, 23409, Note_on_c, 0, 53, 0
2, 23416, Note_on_c, 0, 58, 0
2, 23492, Note_on_c, 0, 57, 61
2, 23492, Note_on_c, 0, 62, 68
2, 23495, Note_on_c, 0, 52, 45
2, 23499, Note_on_c, 0, 62, 0
2, 23502, Note_on_c, 0, 57, 0
2, 23504, Note_on_c, 0, 52, 0
2, 23566, Note_on_c, 0, 57, 28
2, 23574, Note_on_c, 0, 57, 0
2, 23587, Note_on_c, 0, 77, 92
2, 23610, Note_on_c, 0, 77, 0
2, 23622, Note_on_c, 0, 76, 65
2, 23652, Note_on_c, 0, 72, 53
2, 23656, Note_on_c, 0, 76, 0
2, 23675, Note_on_c, 0, 72, 0
2, 23687, Note_on_c, 0, 67, 50
2, 23696, Note_on_c, 0, 67, 0
2, 23708, Note_on_c, 0, 65, 54
2, 23733, Note_on_c, 0, 65, 0
2, 23745, Note_on_c, 0, 57, 36
2, 23756, Note_on_c, 0, 57, 0
2, 23762, Note_on_c, 0, 63, 52
2, 23788, Note_on_c, 0, 63, 0
2, 23791, Note_on_c, 0, 64, 54
2, 23807, Note_on_c, 0, 64, 0
2, 23830, Note_on_c, 0, 63, 59
2, 23859, Note_on_c, 0, 63, 0
2, 23862, Note_on_c, 0, 64, 48
2, 23878, Note_on_c, 0, 64, 0
2, 23890, Note_on_c, 0, 60, 47
2, 23925, Note_on_c, 0, 57, 28
2, 23929, Note_on_c, 0, 60, 0
2, 23934, Note_on_c, 0, 57, 0
2, 23942, Note_on_c, 0, 62, 74
2, 23993, Note_on_c, 0, 62, 0
2, 24006, Note_on_c, 0, 63, 64
2, 24086, Note_on_c, 0, 60, 70
2, 24108, Note_on_c, 0, 63, 0
2, 24143, Note_on_c, 0, 55, 38
2, 24151, Note_on_c, 0, 55, 0
2, 24172, Note_on_c, 0, 58, 56
2, 24178, Note_on_c, 0, 60, 0
2, 24225, Note_on_c, 0, 58, 0
2, 24236, Note_on_c, 0, 60, 47
2, 24258, Note_on_c, 0, 60, 0
2, 24359, Note_on_c, 0, 63, 60
2, 24363, Note_on_c, 0, 58, 51
2, 24370, Note_on_c, 0, 63, 0
2, 24377, Note_on_c, 0, 58, 0
2, 24421, Note_on_c, 0, 65, 58
2, 24439, Note_on_c, 0, 65, 0
2, 24459, Note_on_c, 0, 70, 65
2, 24479, Note_on_c, 0, 70, 0
2, 24487, Note_on_c, 0, 75, 63
2, 24514, Note_on_c, 0, 75, 0
2, 24521, Note_on_c, 0, 62, 64
2, 24522, Note_on_c, 0, 57, 57
2, 24524, Note_on_c, 0, 77, 77
2, 24526, Note_on_c, 0, 51, 48
2, 24594, Note_on_c, 0, 62, 0
2, 24601, Note_on_c, 0, 77, 0
2, 24605, Note_on_c, 0, 62, 27
2, 24605, Note_on_c, 0, 72, 46
2, 24616, Note_on_c, 0, 62, 0
2, 24622, Note_on_c, 0, 51, 0
2, 24623, Note_on_c, 0, 72, 0
2, 24624, Note_on_c, 0, 57, 0
2, 24720, Note_on_c, 0, 65, 63
2, 24721, Note_on_c, 0, 62, 31
2, 24723, Note_on_c, 0, 57, 32
2, 24728, Note_on_c, 0, 62, 0
2, 24733, Note_on_c, 0, 57, 0
2, 24741, Note_on_c, 0, 65, 0
2, 24757, Note_on_c, 0, 70, 59
2, 24776, Note_on_c, 0, 70, 0
2, 24782, Note_on_c, 0, 75, 55
2, 24809, Note_on_c, 0, 75, 0
2, 24821, Note_on_c, 0, 77, 80
2, 24825, Note_on_c, 0, 62, 53
2, 24826, Note_on_c, 0, 57, 54
2, 24829, Note_on_c, 0, 51, 37
2, 24862, Note_on_c, 0, 57, 0
2, 24886, Note_on_c, 0, 57, 44
2, 24895, Note_on_c, 0, 77, 0
2, 24896, Note_on_c, 0, 51, 0
2, 24899, Note_on_c, 0, 57, 0
2, 24899, Note_on_c, 0, 72, 60
2, 24901, Note_on_c, 0, 62, 0
2, 24935, Note_on_c, 0, 72, 0
2, 24946, Note_on_c, 0, 68, 65
2, 24954, Note_on_c, 0, 60, 50
2, 24954, Note_on_c, 0, 63, 58
2, 24960, Note_on_c, 0, 56, 45
2, 24974, Note_on_c, 0, 63, 0
2, 24979, Note_on_c, 0, 68, 0
2, 24995, Note_on_c, 0, 67, 60
2, 25014, Note_on_c, 0, 60, 0
2, 25022, Note_on_c, 0, 67, 0
2, 25027, Note_on_c, 0, 56, 0
2, 25032, Note_on_c, 0, 70, 74
2, 25059, Note_on_c, 0, 70, 0
2, 25073, Note_on_c, 0, 68, 61
2, 25105, Note_on_c, 0, 68, 0
2, 25124, Note_on_c, 0, 70, 57
2, 25125, Note_on_c, 0, 63, 45
2, 25130, Note_on_c, 0, 60, 34
2, 25133, Note_on_c, 0, 63, 0
2, 25134, Note_on_c, 0, 68, 64
2, 25135, Note_on_c, 0, 56, 28
2, 25147, Note_on_c, 0, 70, 0
2, 25150, Note_on_c, 0, 67, 55
2, 25160, Note_on_c, 0, 68, 0
2, 25183, Note_on_c, 0, 60, 0
2, 25189, Note_on_c, 0, 56, 0
2, 25234, Note_on_c, 0, 60, 50
2, 25236, Note_on_c, 0, 63, 46
2, 25243, Note_on_c, 0, 63, 0
2, 25243, Note_on_c, 0, 56, 30
2, 25247, Note_on_c, 0, 60, 0
2, 25267, Note_on_c, 0, 56, 0
2, 25296, Note_on_c, 0, 60, 40
2, 25298, Note_on_c, 0, 65, 70
2, 25301, Note_on_c, 0, 67, 0
2, 25303, Note_on_c, 0, 56, 28
2, 25312, Note_on_c, 0, 60, 0
2, 25318, Note_on_c, 0, 65, 0
2, 25321, Note_on_c, 0, 56, 0
2, 25330, Note_on_c, 0, 66, 63
2, 25368, Note_on_c, 0, 56, 39
2, 25369, Note_on_c, 0, 60, 22
2, 25378, Note_on_c, 0, 66, 0
2, 25385, Note_on_c, 0, 67, 74
2, 25388, Note_on_c, 0, 60, 0
2, 25394, Note_on_c, 0, 56, 0
2, 25440, Note_on_c, 0, 64, 66
2, 25441, Note_on_c, 0, 53, 42
2, 25463, Note_on_c, 0, 59, 6
2, 25495, Control_c, 0, 64, 127
2, 25499, Note_on_c, 0, 67, 0
2, 25519, Note_on_c, 0, 64, 0
2, 25522, Note_on_c, 0, 53, 0
2, 25525, Note_on_c, 0, 59, 0
2, 25527, Control_c, 0, 64, 0
2, 25537, Note_on_c, 0, 68, 71
2, 25538, Note_on_c, 0, 80, 72
2, 25540, Note_on_c, 0, 53, 59
2, 25540, Note_on_c, 0, 59, 64
2, 25542, Note_on_c, 0, 64, 68
2, 25565, Control_c, 0, 64, 127
2, 25604, Note_on_c, 0, 80, 0
2, 25604, Note_on_c, 0, 68, 0
2, 25605, Note_on_c, 0, 53, 0
2, 25608, Note_on_c, 0, 64, 0
2, 25618, Note_on_c, 0, 59, 0
2, 25626, Note_on_c, 0, 70, 71
2, 25627, Note_on_c, 0, 82, 80
2, 25628, Note_on_c, 0, 59, 48
2, 25628, Note_on_c, 0, 53, 63
2, 25628, Note_on_c, 0, 64, 64
2, 25629, Control_c, 0, 64, 0
2, 25673, Control_c, 0, 64, 127
2, 25688, Note_on_c, 0, 64, 0
2, 25691, Note_on_c, 0, 53, 0
2, 25698, Note_on_c, 0, 59, 0
2, 25707, Note_on_c, 0, 70, 0
2, 25711, Note_on_c, 0, 82, 0
2, 25712, Control_c, 0, 64, 0
2, 25719, Note_on_c, 0, 71, 71
2, 25720, Note_on_c, 0, 53, 61
2, 25721, Note_on_c, 0, 63, 64
2, 25722, Note_on_c, 0, 83, 58
2, 25723, Note_on_c, 0, 59, 51
2, 25727, Note_on_c, 0, 56, 43
2, 25746, Control_c, 0, 64, 127
2, 25776, Note_on_c, 0, 71, 0
2, 25778, Note_on_c, 0, 83, 0
2, 25780, Note_on_c, 0, 53, 0
2, 25784, Note_on_c, 0, 63, 0
2, 25787, Note_on_c, 0, 59, 0
2, 25788, Note_on_c, 0, 56, 0
2, 25805, Note_on_c, 0, 72, 66
2, 25806, Note_on_c, 0, 63, 64
2, 25807, Note_on_c, 0, 53, 57
2, 25807, Note_on_c, 0, 84, 67
2, 25808, Control_c, 0, 64, 0
2, 25809, Note_on_c, 0, 56, 45
2, 25810, Note_on_c, 0, 59, 49
2, 25848, Note_on_c, 0, 59, 0
2, 25848, Control_c, 0, 64, 127
2, 25859, Note_on_c, 0, 53, 0
2, 25865, Note_on_c, 0, 72, 0
2, 25865, Note_on_c, 0, 63, 0
2, 25867, Note_on_c, 0, 84, 0
2, 25874, Note_on_c, 0, 56, 0
2, 25890, Control_c, 0, 64, 0
2, 25899, Note_on_c, 0, 86, 70
2, 25899, Note_on_c, 0, 62, 60
2, 25899, Note_on_c, 0, 74, 68
2, 25900, Note_on_c, 0, 52, 54
2, 25901, Note_on_c, 0, 57, 62
2, 25928, Control_c, 0, 64, 127
2, 25956, Note_on_c, 0, 74, 0
2, 25957, Note_on_c, 0, 52, 0
2, 25958, Note_on_c, 0, 62, 0
2, 25962, Note_on_c, 0, 86, 0
2, 25965, Note_on_c, 0, 57, 0
2, 25989, Control_c, 0, 64, 0
2, 25989, Note_on_c, 0, 62, 58
2, 25989, Note_on_c, 0, 76, 62
2, 25989, Note_on_c, 0, 52, 45
2, 25989, Note_on_c, 0, 88, 66
2, 25991, Note_on_c, 0, 57, 49
2, 26023, Control_c, 0, 64, 127
2, 26036, Note_on_c, 0, 76, 0
2, 26042, Note_on_c, 0, 88, 0
2, 26044, Note_on_c, 0, 52, 0
2, 26047, Note_on_c, 0, 62, 0
2, 26053, Note_on_c, 0, 57, 0
2, 26073, Control_c, 0, 64, 0
2, 26082, Note_on_c, 0, 91, 72
2, 26083, Note_on_c, 0, 79, 65
2, 26084, Note_on_c, 0, 57, 57
2, 26084, Note_on_c, 0, 62, 63
2, 26085, Note_on_c, 0, 52, 55
2, 26105, Control_c, 0, 64, 127
2, 26113, Note_on_c, 0, 79, 0
2, 26115, Note_on_c, 0, 57, 0
2, 26124, Note_on_c, 0, 52, 0
2, 26124, Note_on_c, 0, 62, 0
2, 26125, Note_on_c, 0, 91, 0
2, 26166, Note_on_c, 0, 59, 58
2, 26168, Control_c, 0, 64, 0
2, 26169, Note_on_c, 0, 98, 69
2, 26169, Note_on_c, 0, 55, 55
2, 26170, Note_on_c, 0, 52, 50
2, 26170, Note_on_c, 0, 62, 65
2, 26171, Note_on_c, 0, 86, 71
2, 26204, Control_c, 0, 64, 127
2, 26219, Note_on_c, 0, 98, 0
2, 26224, Note_on_c, 0, 62, 0
2, 26225, Note_on_c, 0, 52, 0
2, 26229, Note_on_c, 0, 86, 0
2, 26235, Note_on_c, 0, 55, 0
2, 26236, Note_on_c, 0, 59, 0
2, 26258, Control_c, 0, 64, 0
2, 26258, Note_on_c, 0, 95, 60
2, 26258, Note_on_c, 0, 59, 46
2, 26259, Note_on_c, 0, 62, 61
2, 26261, Note_on_c, 0, 83, 57
2, 26262, Note_on_c, 0, 55, 39
2, 26267, Note_on_c, 0, 62, 0
2, 26270, Note_on_c, 0, 83, 0
2, 26272, Note_on_c, 0, 55, 0
2, 26273, Note_on_c, 0, 95, 0
2, 26274, Note_on_c, 0, 59, 0
2, 26339, Note_on_c, 0, 52, 60
2, 26339, Note_on_c, 0, 79, 65
2, 26340, Note_on_c, 0, 62, 65
2, 26340, Note_on_c, 0, 91, 69
2, 26341, Note_on_c, 0, 57, 55
2, 26342, Note_on_c, 0, 86, 54
2, 26347, Note_on_c, 0, 55, 36
2, 26391, Control_c, 0, 64, 127
2, 26473, Note_on_c, 0, 86, 0
2, 26473, Note_on_c, 0, 91, 0
2, 26502, Note_on_c, 0, 79, 0
2, 26601, Note_on_c, 0, 62, 0
2, 26623, Note_on_c, 0, 62, 29
2, 26631, Control_c, 0, 64, 0
2, 26635, Note_on_c, 0, 68, 74
2, 26636, Note_on_c, 0, 72, 57
2, 26643, Note_on_c, 0, 72, 0
2, 26647, Note_on_c, 0, 62, 0
2, 26647, Note_on_c, 0, 68, 0
2, 26694, Note_on_c, 0, 70, 55
2, 26697, Note_on_c, 0, 62, 32
2, 26698, Note_on_c, 0, 67, 44
2, 26707, Note_on_c, 0, 67, 0
2, 26709, Note_on_c, 0, 70, 0
2, 26758, Note_on_c, 0, 68, 75
2, 26759, Note_on_c, 0, 72, 66
2, 26766, Note_on_c, 0, 57, 0
2, 26768, Note_on_c, 0, 55, 0
2, 26769, Note_on_c, 0, 62, 0
2, 26780, Note_on_c, 0, 52, 0
2, 26806, Note_on_c, 0, 72, 0
2, 26816, Note_on_c, 0, 70, 34
2, 26817, Note_on_c, 0, 67, 42
2, 26825, Note_on_c, 0, 68, 0
2, 26838, Note_on_c, 0, 67, 0
2, 26841, Note_on_c, 0, 70, 0
2, 26853, Note_on_c, 0, 68, 59
2, 26854, Note_on_c, 0, 72, 58
2, 26857, Note_on_c, 0, 63, 42
2, 26858, Note_on_c, 0, 60, 33
2, 26865, Note_on_c, 0, 56, 43
2, 26866, Note_on_c, 0, 53, 15
2, 26872, Note_on_c, 0, 72, 0
2, 26872, Note_on_c, 0, 68, 0
2, 26882, Note_on_c, 0, 68, 30
2, 26884, Note_on_c, 0, 72, 44
2, 26910, Note_on_c, 0, 60, 0
2, 26926, Note_on_c, 0, 63, 0
2, 26929, Note_on_c, 0, 72, 0
2, 26938, Note_on_c, 0, 70, 44
2, 26941, Note_on_c, 0, 67, 43
2, 26950, Note_on_c, 0, 68, 0
2, 26957, Note_on_c, 0, 67, 0
2, 26963, Note_on_c, 0, 70, 0
2, 26995, Note_on_c, 0, 56, 0
2, 27003, Note_on_c, 0, 53, 0
2, 27003, Note_on_c, 0, 72, 54
2, 27004, Note_on_c, 0, 68, 58
2, 27047, Note_on_c, 0, 68, 0
2, 27047, Note_on_c, 0, 72, 0
2, 27066, Note_on_c, 0, 70, 44
2, 27069, Note_on_c, 0, 67, 36
2, 27080, Note_on_c, 0, 67, 0
2, 27087, Note_on_c, 0, 70, 0
2, 27098, Note_on_c, 0, 68, 55
2, 27099, Note_on_c, 0, 72, 49
2, 27113, Note_on_c, 0, 68, 0
2, 27114, Note_on_c, 0, 72, 0
2, 27163, Note_on_c, 0, 63, 57
2, 27164, Note_on_c, 0, 60, 47
2, 27167, Note_on_c, 0, 56, 50
2, 27173, Note_on_c, 0, 60, 0
2, 27177, Note_on_c, 0, 63, 0
2, 27184, Note_on_c, 0, 56, 0
2, 27246, Note_on_c, 0, 63, 51
2, 27247, Note_on_c, 0, 67, 66
2, 27248, Note_on_c, 0, 56, 61
2, 27254, Note_on_c, 0, 60, 48
2, 27327, Note_on_c, 0, 67, 0
2, 27332, Note_on_c, 0, 56, 0
2, 27335, Note_on_c, 0, 60, 0
2, 27345, Note_on_c, 0, 67, 66
2, 27347, Note_on_c, 0, 64, 74
2, 27348, Note_on_c, 0, 60, 45
2, 27348, Note_on_c, 0, 56, 53
2, 27362, Note_on_c, 0, 63, 0
2, 27441, Note_on_c, 0, 64, 0
2, 27462, Note_on_c, 0, 64, 31
2, 27475, Note_on_c, 0, 67, 0
2, 27486, Note_on_c, 0, 72, 74
2, 27486, Note_on_c, 0, 68, 77
2, 27496, Note_on_c, 0, 64, 0
2, 27526, Note_on_c, 0, 72, 0
2, 27530, Note_on_c, 0, 64, 15
2, 27533, Note_on_c, 0, 68, 0
2, 27544, Note_on_c, 0, 70, 57
2, 27549, Note_on_c, 0, 67, 55
2, 27555, Note_on_c, 0, 64, 0
2, 27566, Note_on_c, 0, 67, 0
2, 27574, Note_on_c, 0, 60, 0
2, 27578, Note_on_c, 0, 70, 0
2, 27599, Note_on_c, 0, 64, 16
2, 27602, Note_on_c, 0, 56, 0
2, 27603, Note_on_c, 0, 60, 20
2, 27607, Note_on_c, 0, 68, 74
2, 27607, Note_on_c, 0, 72, 69
2, 27644, Note_on_c, 0, 72, 0
2, 27650, Note_on_c, 0, 68, 0
2, 27663, Note_on_c, 0, 70, 49
2, 27668, Note_on_c, 0, 64, 0
2, 27668, Note_on_c, 0, 67, 41
2, 27684, Note_on_c, 0, 67, 0
2, 27686, Note_on_c, 0, 60, 0
2, 27695, Note_on_c, 0, 70, 0
2, 27728, Note_on_c, 0, 68, 71
2, 27728, Note_on_c, 0, 72, 67
2, 27732, Note_on_c, 0, 56, 25
2, 27738, Note_on_c, 0, 60, 19
2, 27743, Note_on_c, 0, 56, 0
2, 27764, Note_on_c, 0, 60, 0
2, 27771, Note_on_c, 0, 72, 0
2, 27772, Note_on_c, 0, 68, 0
2, 27787, Note_on_c, 0, 67, 53
2, 27790, Note_on_c, 0, 70, 47
2, 27797, Note_on_c, 0, 70, 0
2, 27797, Note_on_c, 0, 67, 0
2, 27907, Note_on_c, 0, 66, 80
2, 27908, Note_on_c, 0, 62, 84
2, 27908, Note_on_c, 0, 57, 83
2, 27909, Note_on_c, 0, 43, 62
2, 27912, Note_on_c, 0, 54, 62
2, 27920, Note_on_c, 0, 54, 0
2, 28061, Note_on_c, 0, 57, 0
2, 28062, Note_on_c, 0, 62, 0
2, 28071, Note_on_c, 0, 43, 0
2, 28084, Note_on_c, 0, 66, 0
2, 28089, Note_on_c, 0, 67, 78
2, 28091, Note_on_c, 0, 60, 78
2, 28091, Note_on_c, 0, 64, 81
2, 28092, Note_on_c, 0, 55, 77
2, 28092, Note_on_c, 0, 45, 68
2, 28297, Note_on_c, 0, 60, 0
2, 28305, Note_on_c, 0, 51, 51
2, 28306, Note_on_c, 0, 45, 0
2, 28307, Note_on_c, 0, 64, 0
2, 28313, Note_on_c, 0, 60, 57
2, 28314, Note_on_c, 0, 67, 0
2, 28314, Note_on_c, 0, 55, 0
2, 28321, Note_on_c, 0, 60, 0
2, 28324, Note_on_c, 0, 51, 0
2, 28331, Note_on_c, 0, 62, 66
2, 28331, Note_on_c, 0, 69, 66
2, 28333, Note_on_c, 0, 57, 66
2, 28334, Note_on_c, 0, 45, 48
2, 28334, Note_on_c, 0, 47, 50
2, 28342, Note_on_c, 0, 45, 0
2, 28353, Note_on_c, 0, 62, 0
2, 28358, Note_on_c, 0, 69, 0
2, 28360, Note_on_c, 0, 57, 0
2, 28363, Note_on_c, 0, 47, 0
2, 28387, Note_on_c, 0, 69, 65
2, 28387, Note_on_c, 0, 62, 75
2, 28388, Note_on_c, 0, 57, 66
2, 28389, Note_on_c, 0, 47, 55
2, 28389, Note_on_c, 0, 66, 58
2, 28413, Note_on_c, 0, 57, 0
2, 28419, Note_on_c, 0, 47, 0
2, 28421, Note_on_c, 0, 62, 0
2, 28423, Note_on_c, 0, 69, 0
2, 28427, Note_on_c, 0, 66, 0
2, 28448, Note_on_c, 0, 55, 57
2, 28448, Note_on_c, 0, 62, 48
2, 28449, Note_on_c, 0, 45, 62
2, 28449, Note_on_c, 0, 67, 47
2, 28452, Note_on_c, 0, 60, 43
2, 28462, Note_on_c, 0, 60, 0
2, 28466, Note_on_c, 0, 55, 0
2, 28466, Note_on_c, 0, 62, 0
2, 28473, Note_on_c, 0, 45, 0
2, 28474, Note_on_c, 0, 67, 0
2, 28512, Note_on_c, 0, 66, 77
2, 28513, Note_on_c, 0, 62, 74
2, 28514, Note_on_c, 0, 59, 68
2, 28514, Note_on_c, 0, 43, 59
2, 28515, Note_on_c, 0, 54, 68
2, 28674, Note_on_c, 0, 59, 0
2, 28688, Note_on_c, 0, 62, 0
2, 28699, Note_on_c, 0, 66, 0
2, 28715, Note_on_c, 0, 54, 0
2, 28716, Note_on_c, 0, 43, 0
2, 28716, Note_on_c, 0, 50, 54
2, 28729, Note_on_c, 0, 69, 84
2, 28732, Note_on_c, 0, 50, 0
2, 28794, Note_on_c, 0, 69, 0
2, 28794, Note_on_c, 0, 68, 64
2, 28812, Note_on_c, 0, 56, 25
2, 28844, Note_on_c, 0, 56, 0
2, 28883, Note_on_c, 0, 60, 51
2, 28889, Note_on_c, 0, 56, 28
2, 28891, Note_on_c, 0, 60, 0
2, 28901, Note_on_c, 0, 56, 0
2, 28944, Note_on_c, 0, 70, 65
2, 28955, Note_on_c, 0, 68, 0
2, 28978, Note_on_c, 0, 70, 0
2, 29003, Note_on_c, 0, 72, 72
2, 29020, Note_on_c, 0, 67, 33
2, 29026, Note_on_c, 0, 72, 0
2, 29029, Note_on_c, 0, 67, 0
2, 29067, Note_on_c, 0, 74, 70
2, 29070, Note_on_c, 0, 72, 64
2, 29077, Note_on_c, 0, 72, 0
2, 29081, Note_on_c, 0, 74, 0
2, 29095, Note_on_c, 0, 75, 68
2, 29135, Note_on_c, 0, 67, 45
2, 29141, Note_on_c, 0, 63, 27
2, 29143, Note_on_c, 0, 67, 0
2, 29154, Note_on_c, 0, 63, 0
2, 29204, Note_on_c, 0, 75, 0
2, 29212, Note_on_c, 0, 74, 58
2, 29234, Note_on_c, 0, 74, 0
2, 29268, Note_on_c, 0, 64, 49
2, 29271, Note_on_c, 0, 67, 63
2, 29271, Note_on_c, 0, 77, 94
2, 29273, Note_on_c, 0, 56, 50
2, 29274, Note_on_c, 0, 60, 37
2, 29348, Note_on_c, 0, 64, 0
2, 29368, Note_on_c, 0, 67, 0
2, 29374, Note_on_c, 0, 64, 31
2, 29375, Note_on_c, 0, 77, 0
2, 29386, Note_on_c, 0, 67, 33
2, 29393, Note_on_c, 0, 75, 80
2, 29424, Note_on_c, 0, 77, 16
2, 29428, Note_on_c, 0, 64, 0
2, 29461, Note_on_c, 0, 67, 0
2, 29474, Note_on_c, 0, 77, 0
2, 29485, Note_on_c, 0, 64, 32
2, 29486, Note_on_c, 0, 75, 0
2, 29512, Note_on_c, 0, 56, 0
2, 29514, Note_on_c, 0, 77, 77
2, 29514, Note_on_c, 0, 74, 82
2, 29522, Note_on_c, 0, 64, 0
2, 29523, Note_on_c, 0, 60, 0
2, 29545, Note_on_c, 0, 64, 31
2, 29551, Note_on_c, 0, 74, 0
2, 29559, Note_on_c, 0, 77, 0
2, 29567, Note_on_c, 0, 64, 0
2, 29579, Note_on_c, 0, 72, 57
2, 29605, Note_on_c, 0, 72, 0
2, 29619, Note_on_c, 0, 67, 24
2, 29626, Note_on_c, 0, 67, 0
2, 29631, Note_on_c, 0, 60, 17
2, 29637, Note_on_c, 0, 71, 68
2, 29666, Note_on_c, 0, 60, 0
2, 29668, Note_on_c, 0, 71, 0
2, 29690, Note_on_c, 0, 68, 59
2, 29720, Note_on_c, 0, 68, 0
2, 29754, Note_on_c, 0, 67, 95
2, 29754, Note_on_c, 0, 55, 79
2, 29754, Note_on_c, 0, 43, 74
2, 30006, Note_on_c, 0, 43, 0
2, 30097, Note_on_c, 0, 55, 0
2, 30123, Note_on_c, 0, 67, 0
2, 30236, Note_on_c, 0, 31, 34
2, 30238, Note_on_c, 0, 60, 40
2, 30238, Note_on_c, 0, 43, 32
2, 30238, Note_on_c, 0, 57, 41
2, 30239, Note_on_c, 0, 53, 39
2, 30249, Note_on_c, 0, 53, 0
2, 30251, Note_on_c, 0, 43, 0
2, 30251, Note_on_c, 0, 57, 0
2, 30251, Note_on_c, 0, 60, 0
2, 30253, Note_on_c, 0, 31, 0
2, 30301, Note_on_c, 0, 31, 38
2, 30302, Note_on_c, 0, 43, 34
2, 30302, Note_on_c, 0, 57, 45
2, 30302, Note_on_c, 0, 60, 36
2, 30302, Note_on_c, 0, 53, 39
2, 30313, Note_on_c, 0, 53, 0
2, 30315, Note_on_c, 0, 43, 0
2, 30317, Note_on_c, 0, 60, 0
2, 30317, Note_on_c, 0, 57, 0
2, 30320, Note_on_c, 0, 31, 0
2, 30392, Note_on_c, 0, 53, 43
2, 30393, Note_on_c, 0, 57, 44
2, 30394, Note_on_c, 0, 60, 36
2, 30398, Note_on_c, 0, 31, 34
2, 30398, Note_on_c, 0, 43, 28
2, 30402, Note_on_c, 0, 53, 0
2, 30404, Note_on_c, 0, 60, 0
2, 30406, Note_on_c, 0, 57, 0
2, 30407, Note_on_c, 0, 43, 0
2, 30411, Note_on_c, 0, 31, 0
2, 30457, Note_on_c, 0, 31, 43
2, 30457, Note_on_c, 0, 60, 41
2, 30458, Note_on_c, 0, 43, 34
2, 30459, Note_on_c, 0, 57, 47
2, 30470, Note_on_c, 0, 57, 0
2, 30471, Note_on_c, 0, 43, 0
2, 30471, Note_on_c, 0, 31, 0
2, 30476, Note_on_c, 0, 60, 0
2, 30510, Note_on_c, 0, 56, 56
2, 30511, Note_on_c, 0, 53, 57
2, 30513, Note_on_c, 0, 59, 51
2, 30515, Note_on_c, 0, 43, 46
2, 30526, Note_on_c, 0, 56, 0
2, 30527, Note_on_c, 0, 53, 0
2, 30531, Note_on_c, 0, 59, 0
2, 30546, Note_on_c, 0, 43, 0
2, 30570, Note_on_c, 0, 31, 42
2, 30598, Note_on_c, 0, 43, 50
2, 30613, Note_on_c, 0, 43, 0
2, 30616, Note_on_c, 0, 31, 0
2, 30651, Note_on_c, 0, 74, 80
2, 30654, Note_on_c, 0, 62, 84
2, 30655, Note_on_c, 0, 73, 59
2, 30668, Note_on_c, 0, 62, 0
2, 30677, Note_on_c, 0, 73, 0
2, 30678, Note_on_c, 0, 74, 0
2, 30717, Note_on_c, 0, 74, 60
2, 30718, Note_on_c, 0, 62, 72
2, 30719, Note_on_c, 0, 71, 48
2, 30722, Note_on_c, 0, 67, 49
2, 30734, Note_on_c, 0, 62, 0
2, 30744, Note_on_c, 0, 67, 0
2, 30751, Note_on_c, 0, 74, 0
2, 30757, Note_on_c, 0, 62, 44
2, 30760, Note_on_c, 0, 71, 0
2, 30771, Note_on_c, 0, 74, 16
2, 30775, Note_on_c, 0, 71, 22
2, 30777, Note_on_c, 0, 62, 0
2, 30780, Note_on_c, 0, 67, 32
2, 30792, Note_on_c, 0, 67, 0
2, 30799, Note_on_c, 0, 62, 31
2, 30801, Note_on_c, 0, 74, 0
2, 30802, Note_on_c, 0, 71, 0
2, 30811, Note_on_c, 0, 62, 0
2, 30881, Note_on_c, 0, 62, 58
2, 30885, Note_on_c, 0, 57, 44
2, 30891, Note_on_c, 0, 62, 0
2, 30893, Note_on_c, 0, 57, 0
2, 30958, Note_on_c, 0, 62, 57
2, 30962, Note_on_c, 0, 52, 26
2, 30964, Note_on_c, 0, 57, 43
2, 30965, Note_on_c, 0, 62, 0
2, 30972, Note_on_c, 0, 57, 0
2, 30973, Note_on_c, 0, 52, 0
2, 31052, Note_on_c, 0, 62, 60
2, 31057, Note_on_c, 0, 57, 33
2, 31059, Note_on_c, 0, 62, 0
2, 31066, Note_on_c, 0, 57, 0
2, 31142, Note_on_c, 0, 62, 72
2, 31145, Note_on_c, 0, 54, 37
2, 31146, Note_on_c, 0, 57, 48
2, 31149, Note_on_c, 0, 62, 0
2, 31152, Note_on_c, 0, 54, 0
2, 31154, Note_on_c, 0, 57, 0
2, 31240, Note_on_c, 0, 62, 67
2, 31242, Note_on_c, 0, 57, 52
2, 31247, Note_on_c, 0, 62, 0
2, 31248, Note_on_c, 0, 52, 24
2, 31250, Note_on_c, 0, 57, 0
2, 31256, Note_on_c, 0, 52, 0
2, 31303, Note_on_c, 0, 72, 53
2, 31312, Note_on_c, 0, 72, 0
2, 31326, Note_on_c, 0, 74, 65
2, 31352, Note_on_c, 0, 74, 0
2, 31365, Note_on_c, 0, 62, 50
2, 31371, Note_on_c, 0, 57, 35
2, 31373, Note_on_c, 0, 62, 0
2, 31373, Note_on_c, 0, 52, 24
2, 31383, Note_on_c, 0, 52, 0
2, 31383, Note_on_c, 0, 57, 0
2, 31391, Note_on_c, 0, 76, 103
2, 31415, Note_on_c, 0, 76, 0
2, 31453, Note_on_c, 0, 79, 101
2, 31482, Note_on_c, 0, 79, 0
2, 31490, Note_on_c, 0, 62, 32
2, 31498, Note_on_c, 0, 62, 0
2, 31504, Note_on_c, 0, 74, 58
2, 31508, Note_on_c, 0, 79, 30
2, 31518, Note_on_c, 0, 75, 39
2, 31535, Note_on_c, 0, 74, 0
2, 31545, Note_on_c, 0, 75, 0
2, 31545, Note_on_c, 0, 76, 39
2, 31547, Note_on_c, 0, 79, 0
2, 31555, Note_on_c, 0, 76, 0
2, 31555, Note_on_c, 0, 57, 30
2, 31557, Note_on_c, 0, 52, 20
2, 31568, Note_on_c, 0, 52, 0
2, 31568, Note_on_c, 0, 57, 0
2, 31572, Note_on_c, 0, 74, 80
2, 31574, Note_on_c, 0, 79, 64
2, 31606, Note_on_c, 0, 74, 0
2, 31607, Note_on_c, 0, 79, 0
2, 31633, Note_on_c, 0, 72, 53
2, 31670, Note_on_c, 0, 72, 0
2, 31686, Note_on_c, 0, 67, 38
2, 31690, Note_on_c, 0, 63, 34
2, 31690, Note_on_c, 0, 58, 34
2, 31694, Note_on_c, 0, 62, 35
2, 31695, Note_on_c, 0, 70, 56
2, 31751, Note_on_c, 0, 67, 0
2, 31754, Note_on_c, 0, 62, 0
2, 31757, Note_on_c, 0, 63, 0
2, 31764, Note_on_c, 0, 58, 0
2, 31789, Note_on_c, 0, 67, 51
2, 31791, Note_on_c, 0, 63, 36
2, 31795, Note_on_c, 0, 58, 23
2, 31796, Note_on_c, 0, 67, 0
2, 31802, Note_on_c, 0, 63, 0
2, 31808, Note_on_c, 0, 58, 0
2, 31869, Note_on_c, 0, 55, 64
2, 31872, Note_on_c, 0, 70, 0
2, 31961, Note_on_c, 0, 62, 61
2, 31963, Note_on_c, 0, 65, 41
2, 31966, Note_on_c, 0, 63, 34
2, 31973, Note_on_c, 0, 63, 0
2, 31976, Note_on_c, 0, 62, 0
2, 31979, Note_on_c, 0, 55, 0
2, 31980, Note_on_c, 0, 65, 0
2, 32017, Note_on_c, 0, 55, 28
2, 32017, Note_on_c, 0, 60, 28
2, 32025, Note_on_c, 0, 60, 0
2, 32031, Note_on_c, 0, 55, 0
2, 32041, Note_on_c, 0, 65, 61
2, 32041, Note_on_c, 0, 62, 69
2, 32083, Note_on_c, 0, 55, 33
2, 32087, Note_on_c, 0, 65, 0
2, 32089, Note_on_c, 0, 62, 0
2, 32100, Note_on_c, 0, 63, 49
2, 32102, Note_on_c, 0, 60, 44
2, 32106, Note_on_c, 0, 55, 0
2, 32111, Note_on_c, 0, 60, 0
2, 32123, Note_on_c, 0, 63, 0
2, 32162, Note_on_c, 0, 55, 33
2, 32169, Note_on_c, 0, 48, 27
2, 32174, Note_on_c, 0, 55, 0
2, 32184, Note_on_c, 0, 48, 0
2, 32254, Note_on_c, 0, 55, 54
2, 32254, Note_on_c, 0, 63, 51
2, 32255, Note_on_c, 0, 58, 55
2, 32263, Note_on_c, 0, 55, 0
2, 32270, Note_on_c, 0, 58, 0
2, 32274, Note_on_c, 0, 63, 0
2, 32336, Note_on_c, 0, 63, 60
2, 32337, Note_on_c, 0, 58, 60
2, 32338, Note_on_c, 0, 55, 54
2, 32353, Note_on_c, 0, 48, 32
2, 32365, Note_on_c, 0, 48, 0
2, 32431, Note_on_c, 0, 47, 53
2, 32470, Note_on_c, 0, 47, 0
2, 32498, Note_on_c, 0, 48, 77
2, 32554, Note_on_c, 0, 48, 0
2, 32556, Note_on_c, 0, 42, 68
2, 32560, Note_on_c, 0, 55, 0
2, 32579, Note_on_c, 0, 58, 0
2, 32581, Note_on_c, 0, 63, 0
2, 32623, Note_on_c, 0, 48, 41
2, 32626, Note_on_c, 0, 42, 0
2, 32642, Note_on_c, 0, 56, 81
2, 32644, Note_on_c, 0, 48, 0
2, 32645, Note_on_c, 0, 41, 29
2, 32672, Note_on_c, 0, 56, 0
2, 32681, Note_on_c, 0, 58, 48
2, 32690, Note_on_c, 0, 56, 35
2, 32700, Note_on_c, 0, 55, 30
2, 32704, Note_on_c, 0, 58, 0
2, 32711, Note_on_c, 0, 56, 0
2, 32726, Note_on_c, 0, 55, 0
2, 32735, Note_on_c, 0, 56, 43
2, 32750, Note_on_c, 0, 48, 29
2, 32756, Note_on_c, 0, 56, 0
2, 32757, Note_on_c, 0, 58, 52
2, 32765, Note_on_c, 0, 48, 0
2, 32766, Note_on_c, 0, 41, 0
2, 32778, Note_on_c, 0, 58, 0
2, 32793, Note_on_c, 0, 60, 56
2, 32818, Note_on_c, 0, 60, 0
2, 32819, Note_on_c, 0, 63, 46
2, 32854, Note_on_c, 0, 64, 79
2, 32855, Note_on_c, 0, 63, 0
2, 32870, Note_on_c, 0, 64, 0
2, 32880, Note_on_c, 0, 67, 83
2, 32903, Note_on_c, 0, 60, 32
2, 32911, Note_on_c, 0, 67, 0
2, 32918, Note_on_c, 0, 64, 51
2, 32926, Note_on_c, 0, 60, 0
2, 32929, Note_on_c, 0, 64, 0
2, 32942, Note_on_c, 0, 65, 43
2, 32967, Note_on_c, 0, 65, 0
2, 32975, Note_on_c, 0, 67, 61
2, 32980, Note_on_c, 0, 60, 30
2, 32995, Note_on_c, 0, 60, 0
2, 32998, Note_on_c, 0, 67, 0
2, 33010, Note_on_c, 0, 68, 44
2, 33026, Note_on_c, 0, 68, 0
2, 33102, Note_on_c, 0, 65, 64
2, 33102, Note_on_c, 0, 61, 53
2, 33105, Note_on_c, 0, 56, 57
2, 33106, Note_on_c, 0, 55, 44
2, 33264, Note_on_c, 0, 82, 81
2, 33266, Note_on_c, 0, 71, 71
2, 33286, Note_on_c, 0, 71, 0
2, 33296, Note_on_c, 0, 80, 35
2, 33297, Note_on_c, 0, 82, 0
2, 33311, Note_on_c, 0, 65, 0
2, 33319, Note_on_c, 0, 80, 0
2, 33322, Note_on_c, 0, 55, 0
2, 33326, Note_on_c, 0, 61, 0
2, 33330, Note_on_c, 0, 56, 0
2, 33352, Note_on_c, 0, 82, 80
2, 33353, Note_on_c, 0, 64, 64
2, 33353, Note_on_c, 0, 53, 56
2, 33355, Note_on_c, 0, 71, 78
2, 33356, Note_on_c, 0, 59, 58
2, 33425, Note_on_c, 0, 53, 0
2, 33430, Note_on_c, 0, 64, 0
2, 33437, Note_on_c, 0, 82, 0
2, 33437, Note_on_c, 0, 71, 0
2, 33443, Note_on_c, 0, 59, 0
2, 33451, Note_on_c, 0, 80, 65
2, 33453, Note_on_c, 0, 71, 60
2, 33453, Note_on_c, 0, 63, 69
2, 33456, Note_on_c, 0, 59, 48
2, 33458, Note_on_c, 0, 56, 52
2, 33459, Note_on_c, 0, 53, 34
2, 33504, Note_on_c, 0, 59, 0
2, 33515, Note_on_c, 0, 80, 0
2, 33517, Note_on_c, 0, 53, 0
2, 33523, Note_on_c, 0, 71, 0
2, 33527, Note_on_c, 0, 63, 0
2, 33533, Note_on_c, 0, 56, 0
2, 33540, Note_on_c, 0, 62, 72
2, 33541, Note_on_c, 0, 74, 76
2, 33542, Note_on_c, 0, 79, 68
2, 33543, Note_on_c, 0, 57, 57
2, 33543, Note_on_c, 0, 69, 67
2, 33545, Note_on_c, 0, 52, 55
2, 33546, Note_on_c, 0, 78, 33
2, 33553, Note_on_c, 0, 78, 0
2, 33628, Control_c, 0, 64, 127
2, 33669, Note_on_c, 0, 79, 0
2, 33673, Note_on_c, 0, 74, 0
2, 33682, Note_on_c, 0, 69, 0
2, 33704, Note_on_c, 0, 62, 0
2, 33732, Note_on_c, 0, 74, 69
2, 33733, Note_on_c, 0, 67, 69
2, 33733, Note_on_c, 0, 64, 70
2, 33735, Note_on_c, 0, 57, 0
2, 33735, Control_c, 0, 64, 0
2, 33740, Note_on_c, 0, 60, 33
2, 33742, Note_on_c, 0, 59, 29
2, 33766, Note_on_c, 0, 60, 0
2, 33781, Note_on_c, 0, 74, 0
2, 33784, Control_c, 0, 64, 127
2, 33791, Note_on_c, 0, 67, 0
2, 33802, Note_on_c, 0, 64, 0
2, 33804, Note_on_c, 0, 52, 0
2, 33824, Control_c, 0, 64, 0
2, 33833, Note_on_c, 0, 59, 0
2, 33834, Note_on_c, 0, 71, 51
2, 33835, Note_on_c, 0, 64, 55
2, 33835, Note_on_c, 0, 62, 60
2, 33835, Note_on_c, 0, 55, 48
2, 33840, Note_on_c, 0, 67, 30
2, 33844, Note_on_c, 0, 55, 0
2, 33852, Note_on_c, 0, 62, 0
2, 33852, Note_on_c, 0, 67, 0
2, 33854, Note_on_c, 0, 64, 0
2, 33857, Note_on_c, 0, 71, 0
2, 33912, Note_on_c, 0, 67, 52
2, 33914, Note_on_c, 0, 62, 61
2, 33915, Note_on_c, 0, 55, 38
2, 33915, Note_on_c, 0, 50, 43
2, 33915, Note_on_c, 0, 59, 47
2, 33916, Note_on_c, 0, 43, 32
2, 33920, Note_on_c, 0, 64, 25
2, 33923, Note_on_c, 0, 55, 0
2, 33924, Note_on_c, 0, 59, 0
2, 33924, Note_on_c, 0, 50, 0
2, 33927, Note_on_c, 0, 64, 0
2, 33930, Note_on_c, 0, 62, 0
2, 33931, Note_on_c, 0, 67, 0
2, 33939, Note_on_c, 0, 43, 0
2, 34002, Note_on_c, 0, 60, 50
2, 34003, Note_on_c, 0, 43, 48
2, 34003, Note_on_c, 0, 57, 58
2, 34003, Note_on_c, 0, 53, 47
2, 34069, Note_on_c, 0, 53, 0
2, 34073, Note_on_c, 0, 57, 0
2, 34075, Note_on_c, 0, 60, 0
2, 34080, Note_on_c, 0, 31, 50
2, 34095, Note_on_c, 0, 43, 0
2, 34102, Note_on_c, 0, 31, 0
2, 34326, Note_on_c, 0, 86, 82
2, 34361, Note_on_c, 0, 85, 63
2, 34366, Note_on_c, 0, 86, 0
2, 34374, Note_on_c, 0, 84, 68
2, 34388, Note_on_c, 0, 85, 0
2, 34389, Note_on_c, 0, 83, 68
2, 34399, Note_on_c, 0, 84, 0
2, 34410, Note_on_c, 0, 83, 0
2, 34451, Note_on_c, 0, 79, 66
2, 34470, Note_on_c, 0, 79, 0
2, 34507, Note_on_c, 0, 76, 38
2, 34525, Note_on_c, 0, 76, 0
2, 34625, Note_on_c, 0, 65, 50
2, 34629, Note_on_c, 0, 77, 53
2, 34639, Note_on_c, 0, 65, 0
2, 34644, Note_on_c, 0, 77, 0
2, 34686, Note_on_c, 0, 76, 56
2, 34689, Note_on_c, 0, 64, 48
2, 34715, Note_on_c, 0, 76, 0
2, 34725, Note_on_c, 0, 64, 0
2, 34747, Note_on_c, 0, 72, 46
2, 34748, Note_on_c, 0, 60, 26
2, 34770, Note_on_c, 0, 72, 0
2, 34775, Note_on_c, 0, 60, 0
2, 34784, Note_on_c, 0, 55, 31
2, 34786, Note_on_c, 0, 67, 32
2, 34799, Note_on_c, 0, 67, 0
2, 34805, Note_on_c, 0, 55, 0
2, 34841, Note_on_c, 0, 77, 62
2, 34843, Note_on_c, 0, 65, 52
2, 34856, Note_on_c, 0, 65, 0
2, 34860, Note_on_c, 0, 77, 0
2, 34894, Note_on_c, 0, 76, 66
2, 34898, Note_on_c, 0, 64, 62
2, 34911, Note_on_c, 0, 64, 0
2, 34916, Note_on_c, 0, 76, 0
2, 34951, Note_on_c, 0, 76, 47
2, 34955, Note_on_c, 0, 64, 42
2, 34970, Note_on_c, 0, 64, 0
2, 34970, Note_on_c, 0, 60, 35
2, 34972, Note_on_c, 0, 76, 0
2, 34976, Note_on_c, 0, 72, 47
2, 35020, Note_on_c, 0, 60, 0
2, 35021, Note_on_c, 0, 72, 0
2, 35036, Note_on_c, 0, 55, 32
2, 35037, Note_on_c, 0, 67, 36
2, 35049, Note_on_c, 0, 67, 0
2, 35053, Note_on_c, 0, 55, 0
2, 35100, Note_on_c, 0, 77, 54
2, 35101, Note_on_c, 0, 65, 34
2, 35121, Note_on_c, 0, 65, 0
2, 35124, Note_on_c, 0, 77, 0
2, 35166, Note_on_c, 0, 64, 39
2, 35167, Note_on_c, 0, 76, 44
2, 35196, Note_on_c, 0, 64, 0
2, 35202, Note_on_c, 0, 76, 0
2, 35203, Note_on_c, 0, 72, 40
2, 35207, Note_on_c, 0, 60, 28
2, 35213, Note_on_c, 0, 72, 0
2, 35228, Note_on_c, 0, 60, 0
2, 35262, Note_on_c, 0, 55, 37
2, 35263, Note_on_c, 0, 67, 37
2, 35271, Note_on_c, 0, 67, 0
2, 35274, Note_on_c, 0, 55, 0
2, 35320, Note_on_c, 0, 77, 74
2, 35324, Note_on_c, 0, 65, 64
2, 35397, Note_on_c, 0, 77, 0
2, 35401, Note_on_c, 0, 65, 0
2, 35406, Note_on_c, 0, 64, 31
2, 35406, Note_on_c, 0, 76, 39
2, 35417, Note_on_c, 0, 76, 0
2, 35418, Note_on_c, 0, 64, 0
2, 35437, Note_on_c, 0, 76, 38
2, 35442, Note_on_c, 0, 64, 22
2, 35460, Note_on_c, 0, 76, 0
2, 35460, Note_on_c, 0, 72, 44
2, 35463, Note_on_c, 0, 64, 0
2, 35467, Note_on_c, 0, 60, 18
2, 35477, Note_on_c, 0, 72, 0
2, 35510, Note_on_c, 0, 60, 0
2, 35518, Note_on_c, 0, 67, 35
2, 35521, Note_on_c, 0, 55, 27
2, 35532, Note_on_c, 0, 67, 0
2, 35541, Note_on_c, 0, 55, 0
2, 35580, Note_on_c, 0, 77, 75
2, 35581, Note_on_c, 0, 65, 50
2, 35597, Note_on_c, 0, 77, 0
2, 35601, Note_on_c, 0, 65, 0
2, 35639, Note_on_c, 0, 75, 56
2, 35641, Note_on_c, 0, 63, 30
2, 35667, Note_on_c, 0, 75, 0
2, 35681, Note_on_c, 0, 72, 25
2, 35681, Note_on_c, 0, 60, 32
2, 35688, Note_on_c, 0, 63, 0
2, 35699, Note_on_c, 0, 72, 0
2, 35704, Note_on_c, 0, 60, 0
2, 35737, Note_on_c, 0, 67, 42
2, 35739, Note_on_c, 0, 55, 48
2, 35747, Note_on_c, 0, 67, 0
2, 35749, Note_on_c, 0, 55, 0
2, 35797, Note_on_c, 0, 77, 82
2, 35801, Note_on_c, 0, 65, 64
2, 35872, Note_on_c, 0, 77, 0
2, 35882, Note_on_c, 0, 65, 0
2, 35885, Note_on_c, 0, 75, 37
2, 35885, Note_on_c, 0, 63, 26
2, 35896, Note_on_c, 0, 63, 0
2, 35898, Note_on_c, 0, 75, 0
2, 35916, Note_on_c, 0, 75, 54
2, 35918, Note_on_c, 0, 63, 30
2, 35939, Note_on_c, 0, 75, 0
2, 35944, Note_on_c, 0, 72, 35
2, 35946, Note_on_c, 0, 60, 17
2, 35948, Note_on_c, 0, 63, 0
2, 35958, Note_on_c, 0, 72, 0
2, 35971, Note_on_c, 0, 60, 0
2, 36002, Note_on_c, 0, 55, 47
2, 36004, Note_on_c, 0, 67, 39
2, 36014, Note_on_c, 0, 67, 0
2, 36021, Note_on_c, 0, 55, 0
2, 36100, Note_on_c, 0, 77, 68
2, 36102, Note_on_c, 0, 65, 43
2, 36118, Note_on_c, 0, 65, 0
2, 36118, Note_on_c, 0, 77, 0
2, 36126, Note_on_c, 0, 75, 40
2, 36126, Note_on_c, 0, 63, 36
2, 36150, Note_on_c, 0, 75, 0
2, 36154, Note_on_c, 0, 63, 0
2, 36163, Note_on_c, 0, 72, 47
2, 36165, Note_on_c, 0, 60, 29
2, 36172, Note_on_c, 0, 72, 0
2, 36179, Note_on_c, 0, 60, 0
2, 36218, Note_on_c, 0, 67, 53
2, 36219, Note_on_c, 0, 55, 49
2, 36226, Note_on_c, 0, 67, 0
2, 36227, Note_on_c, 0, 55, 0
2, 36277, Note_on_c, 0, 77, 85
2, 36279, Note_on_c, 0, 65, 74
2, 36349, Note_on_c, 0, 77, 0
2, 36358, Note_on_c, 0, 63, 46
2, 36360, Note_on_c, 0, 75, 49
2, 36361, Note_on_c, 0, 65, 0
2, 36399, Note_on_c, 0, 75, 0
2, 36408, Note_on_c, 0, 63, 0
2, 36420, Note_on_c, 0, 72, 48
2, 36422, Note_on_c, 0, 60, 34
2, 36430, Note_on_c, 0, 60, 0
2, 36440, Note_on_c, 0, 72, 0
2, 36479, Note_on_c, 0, 65, 44
2, 36489, Note_on_c, 0, 65, 0
2, 36546, Note_on_c, 0, 70, 47
2, 36574, Note_on_c, 0, 70, 0
2, 36600, Note_on_c, 0, 80, 37
2, 36603, Note_on_c, 0, 68, 40
2, 36627, Note_on_c, 0, 80, 0
2, 36632, Note_on_c, 0, 68, 0
2, 36643, Note_on_c, 0, 77, 31
2, 36647, Note_on_c, 0, 65, 41
2, 36657, Note_on_c, 0, 77, 0
2, 36658, Note_on_c, 0, 65, 0
2, 36995, Note_on_c, 0, 68, 73
2, 36998, Note_on_c, 0, 63, 70
2, 36998, Note_on_c, 0, 59, 64
2, 36998, Note_on_c, 0, 53, 59
2, 37003, Control_c, 0, 64, 127
2, 37052, Note_on_c, 0, 68, 0
2, 37073, Note_on_c, 0, 59, 0
2, 37079, Control_c, 0, 64, 0
2, 37082, Note_on_c, 0, 53, 0
2, 37084, Note_on_c, 0, 70, 62
2, 37085, Note_on_c, 0, 55, 50
2, 37097, Note_on_c, 0, 63, 0
2, 37099, Note_on_c, 0, 70, 0
2, 37120, Note_on_c, 0, 55, 0
2, 37139, Note_on_c, 0, 65, 51
2, 37140, Note_on_c, 0, 72, 51
2, 37143, Note_on_c, 0, 57, 48
2, 37148, Note_on_c, 0, 65, 0
2, 37150, Note_on_c, 0, 57, 0
2, 37156, Note_on_c, 0, 72, 0
2, 37199, Note_on_c, 0, 75, 61
2, 37202, Note_on_c, 0, 68, 59
2, 37204, Note_on_c, 0, 60, 40
2, 37204, Note_on_c, 0, 65, 51
2, 37210, Note_on_c, 0, 65, 0
2, 37214, Note_on_c, 0, 60, 0
2, 37214, Note_on_c, 0, 68, 0
2, 37216, Note_on_c, 0, 75, 0
2, 37258, Note_on_c, 0, 65, 62
2, 37259, Note_on_c, 0, 72, 50
2, 37261, Note_on_c, 0, 56, 52
2, 37272, Note_on_c, 0, 72, 0
2, 37273, Note_on_c, 0, 65, 0
2, 37277, Note_on_c, 0, 56, 0
2, 37315, Control_c, 0, 64, 127
2, 37320, Note_on_c, 0, 65, 43
2, 37320, Note_on_c, 0, 70, 46
2, 37320, Note_on_c, 0, 55, 30
2, 37321, Control_c, 0, 64, 0
2, 37323, Note_on_c, 0, 60, 27
2, 37340, Note_on_c, 0, 60, 0
2, 37342, Note_on_c, 0, 70, 0
2, 37344, Note_on_c, 0, 65, 0
2, 37349, Note_on_c, 0, 55, 0
2, 37359, Note_on_c, 0, 60, 37
2, 37361, Note_on_c, 0, 68, 31
2, 37365, Note_on_c, 0, 53, 26
2, 37368, Note_on_c, 0, 68, 0
2, 37374, Note_on_c, 0, 60, 0
2, 37378, Note_on_c, 0, 53, 0
2, 37413, Note_on_c, 0, 62, 51
2, 37414, Note_on_c, 0, 67, 44
2, 37415, Note_on_c, 0, 57, 45
2, 37418, Note_on_c, 0, 52, 27
2, 37427, Note_on_c, 0, 57, 0
2, 37428, Note_on_c, 0, 52, 0
2, 37428, Note_on_c, 0, 67, 0
2, 37431, Note_on_c, 0, 62, 0
2, 37471, Note_on_c, 0, 56, 32
2, 37474, Note_on_c, 0, 61, 23
2, 37476, Note_on_c, 0, 51, 25
2, 37486, Note_on_c, 0, 56, 0
2, 37491, Note_on_c, 0, 51, 0
2, 37491, Note_on_c, 0, 61, 0
2, 37494, Note_on_c, 0, 52, 42
2, 37498, Note_on_c, 0, 67, 39
2, 37502, Note_on_c, 0, 62, 24
2, 37513, Note_on_c, 0, 57, 1
2, 37578, Note_on_c, 0, 67, 0
2, 37585, Note_on_c, 0, 57, 0
2, 37586, Note_on_c, 0, 62, 0
2, 37617, Note_on_c, 0, 52, 0
2, 37619, Note_on_c, 0, 61, 35
2, 37621, Note_on_c, 0, 56, 31
2, 37621, Note_on_c, 0, 51, 25
2, 37622, Note_on_c, 0, 66, 32
2, 37647, Note_on_c, 0, 56, 0
2, 37654, Note_on_c, 0, 51, 0
2, 37656, Note_on_c, 0, 61, 0
2, 37658, Note_on_c, 0, 66, 0
2, 37659, Note_on_c, 0, 57, 35
2, 37661, Note_on_c, 0, 52, 34
2, 37661, Note_on_c, 0, 62, 37
2, 37662, Note_on_c, 0, 67, 32
2, 37667, Note_on_c, 0, 57, 0
2, 37670, Note_on_c, 0, 62, 0
2, 37672, Note_on_c, 0, 67, 0
2, 37675, Note_on_c, 0, 52, 0
2, 38282, Control_c, 0, 64, 127
2, 38306, Control_c, 0, 64, 0
2, 38344, Control_c, 0, 64, 127
2, 38357, Control_c, 0, 64, 0
2, 38405, Note_on_c, 0, 83, 82
2, 38406, Note_on_c, 0, 71, 74
2, 38406, Note_on_c, 0, 59, 50
2, 38533, Control_c, 0, 64, 127
2, 38599, Control_c, 0, 64, 0
2, 38933, Note_on_c, 0, 71, 0
2, 39008, Control_c, 0, 64, 127
2, 39017, Note_on_c, 0, 59, 0
2, 39021, Note_on_c, 0, 83, 0
2, 39052, Control_c, 0, 64, 0
2, 39060, Note_on_c, 0, 84, 54
2, 39061, Note_on_c, 0, 83, 61
2, 39063, Note_on_c, 0, 58, 40
2, 39064, Note_on_c, 0, 59, 55
2, 39074, Note_on_c, 0, 58, 0
2, 39076, Note_on_c, 0, 84, 0
2, 39078, Note_on_c, 0, 59, 0
2, 39080, Note_on_c, 0, 83, 0
2, 39123, Note_on_c, 0, 88, 84
2, 39124, Note_on_c, 0, 64, 82
2, 39128, Note_on_c, 0, 59, 57
2, 39129, Note_on_c, 0, 58, 35
2, 39134, Note_on_c, 0, 58, 0
2, 39134, Note_on_c, 0, 59, 0
2, 39140, Note_on_c, 0, 88, 0
2, 39141, Note_on_c, 0, 64, 0
2, 39223, Note_on_c, 0, 88, 82
2, 39223, Note_on_c, 0, 64, 74
2, 39241, Note_on_c, 0, 64, 0
2, 39248, Note_on_c, 0, 88, 0
2, 39249, Note_on_c, 0, 83, 64
2, 39250, Note_on_c, 0, 59, 55
2, 39272, Note_on_c, 0, 59, 0
2, 39273, Note_on_c, 0, 83, 0
2, 39305, Note_on_c, 0, 83, 53
2, 39307, Note_on_c, 0, 59, 53
2, 39336, Note_on_c, 0, 83, 0
2, 39337, Note_on_c, 0, 59, 0
2, 39359, Note_on_c, 0, 58, 56
2, 39361, Note_on_c, 0, 82, 47
2, 39425, Control_c, 0, 64, 127
2, 39439, Note_on_c, 0, 82, 0
2, 39439, Note_on_c, 0, 58, 0
2, 39454, Control_c, 0, 64, 0
2, 39456, Note_on_c, 0, 82, 40
2, 39457, Note_on_c, 0, 58, 48
2, 39484, Note_on_c, 0, 58, 0
2, 39490, Note_on_c, 0, 82, 0
2, 39536, Note_on_c, 0, 82, 37
2, 39537, Note_on_c, 0, 58, 47
2, 39539, Note_on_c, 0, 70, 33
2, 39964, Control_c, 0, 64, 127
2, 39983, Note_on_c, 0, 58, 0
2, 39990, Note_on_c, 0, 70, 0
2, 39990, Note_on_c, 0, 82, 0
2, 40015, Note_on_c, 0, 82, 59
2, 40016, Note_on_c, 0, 70, 53
2, 40017, Note_on_c, 0, 58, 52
2, 40044, Note_on_c, 0, 70, 0
2, 40054, Note_on_c, 0, 82, 0
2, 40081, Control_c, 0, 64, 0
2, 40083, Note_on_c, 0, 65, 42
2, 40084, Note_on_c, 0, 58, 0
2, 40090, Note_on_c, 0, 65, 0
2, 40174, Note_on_c, 0, 63, 61
2, 40177, Note_on_c, 0, 87, 59
2, 40178, Note_on_c, 0, 75, 57
2, 40188, Note_on_c, 0, 75, 0
2, 40192, Note_on_c, 0, 87, 0
2, 40194, Note_on_c, 0, 63, 0
2, 40203, Note_on_c, 0, 58, 48
2, 40205, Note_on_c, 0, 85, 45
2, 40210, Note_on_c, 0, 73, 25
2, 40211, Note_on_c, 0, 85, 0
2, 40216, Note_on_c, 0, 73, 0
2, 40224, Note_on_c, 0, 58, 0
2, 40261, Note_on_c, 0, 82, 55
2, 40262, Note_on_c, 0, 58, 56
2, 40264, Note_on_c, 0, 70, 52
2, 40279, Note_on_c, 0, 70, 0
2, 40291, Note_on_c, 0, 82, 0
2, 40312, Note_on_c, 0, 58, 0
2, 40320, Note_on_c, 0, 80, 51
2, 40322, Note_on_c, 0, 56, 53
2, 40322, Note_on_c, 0, 68, 40
2, 40338, Note_on_c, 0, 68, 0
2, 40342, Note_on_c, 0, 80, 0
2, 40343, Note_on_c, 0, 56, 0
2, 40383, Note_on_c, 0, 80, 55
2, 40385, Note_on_c, 0, 56, 51
2, 40385, Note_on_c, 0, 68, 42
2, 40441, Control_c, 0, 64, 127
2, 40634, Note_on_c, 0, 80, 0
2, 40636, Note_on_c, 0, 68, 0
2, 40689, Note_on_c, 0, 56, 0
2, 40839, Note_on_c, 0, 68, 74
2, 40840, Note_on_c, 0, 65, 76
2, 40840, Note_on_c, 0, 55, 63
2, 40841, Note_on_c, 0, 60, 66
2, 40846, Control_c, 0, 64, 0
2, 40872, Control_c, 0, 64, 127
2, 40907, Note_on_c, 0, 60, 0
2, 40911, Note_on_c, 0, 68, 0
2, 40915, Control_c, 0, 64, 0
2, 40916, Note_on_c, 0, 70, 55
2, 40920, Note_on_c, 0, 56, 55
2, 40925, Note_on_c, 0, 55, 0
2, 40930, Note_on_c, 0, 70, 0
2, 40933, Note_on_c, 0, 65, 0
2, 40939, Note_on_c, 0, 56, 0
2, 40975, Note_on_c, 0, 65, 43
2, 40975, Note_on_c, 0, 72, 43
2, 40976, Note_on_c, 0, 58, 59
2, 40982, Note_on_c, 0, 65, 0
2, 40990, Note_on_c, 0, 72, 0
2, 40991, Note_on_c, 0, 58, 0
2, 41034, Note_on_c, 0, 75, 57
2, 41037, Note_on_c, 0, 68, 52
2, 41038, Note_on_c, 0, 65, 57
2, 41038, Note_on_c, 0, 60, 38
2, 41046, Note_on_c, 0, 75, 0
2, 41047, Note_on_c, 0, 65, 0
2, 41048, Note_on_c, 0, 68, 0
2, 41054, Note_on_c, 0, 60, 0
2, 41095, Note_on_c, 0, 65, 62
2, 41095, Note_on_c, 0, 72, 47
2, 41098, Note_on_c, 0, 56, 45
2, 41109, Note_on_c, 0, 72, 0
2, 41109, Note_on_c, 0, 65, 0
2, 41115, Note_on_c, 0, 56, 0
2, 41157, Note_on_c, 0, 70, 44
2, 41159, Note_on_c, 0, 55, 34
2, 41159, Note_on_c, 0, 65, 40
2, 41172, Note_on_c, 0, 70, 0
2, 41179, Note_on_c, 0, 65, 0
2, 41186, Note_on_c, 0, 55, 0
2, 41198, Note_on_c, 0, 68, 34
2, 41198, Note_on_c, 0, 60, 36
2, 41206, Note_on_c, 0, 60, 0
2, 41207, Note_on_c, 0, 68, 0
2, 41258, Note_on_c, 0, 62, 46
2, 41259, Note_on_c, 0, 67, 41
2, 41260, Note_on_c, 0, 57, 39
2, 41261, Note_on_c, 0, 52, 32
2, 41269, Note_on_c, 0, 57, 0
2, 41270, Note_on_c, 0, 67, 0
2, 41273, Note_on_c, 0, 62, 0
2, 41275, Note_on_c, 0, 52, 0
2, 41315, Note_on_c, 0, 66, 33
2, 41315, Note_on_c, 0, 61, 39
2, 41318, Note_on_c, 0, 51, 32
2, 41319, Note_on_c, 0, 56, 26
2, 41327, Note_on_c, 0, 56, 0
2, 41335, Note_on_c, 0, 61, 0
2, 41336, Note_on_c, 0, 66, 0
2, 41338, Note_on_c, 0, 51, 0
2, 41342, Note_on_c, 0, 67, 34
2, 41343, Note_on_c, 0, 52, 34
2, 41344, Note_on_c, 0, 57, 18
2, 41348, Note_on_c, 0, 62, 24
2, 41434, Note_on_c, 0, 62, 0
2, 41434, Note_on_c, 0, 67, 0
2, 41435, Note_on_c, 0, 57, 0
2, 41457, Note_on_c, 0, 52, 0
2, 41458, Note_on_c, 0, 51, 33
2, 41461, Note_on_c, 0, 56, 27
2, 41464, Note_on_c, 0, 61, 28
2, 41484, Note_on_c, 0, 56, 0
2, 41489, Note_on_c, 0, 61, 0
2, 41495, Note_on_c, 0, 51, 0
2, 41496, Note_on_c, 0, 57, 32
2, 41496, Note_on_c, 0, 62, 44
2, 41496, Note_on_c, 0, 67, 42
2, 41498, Note_on_c, 0, 52, 41
2, 41505, Note_on_c, 0, 57, 0
2, 41506, Note_on_c, 0, 62, 0
2, 41507, Note_on_c, 0, 52, 0
2, 41508, Note_on_c, 0, 67, 0
2, 42241, Note_on_c, 0, 58, 68
2, 42241, Note_on_c, 0, 70, 64
2, 42242, Note_on_c, 0, 60, 58
2, 42242, Note_on_c, 0, 63, 59
2, 42300, Note_on_c, 0, 58, 0
2, 42301, Note_on_c, 0, 60, 0
2, 42305, Note_on_c, 0, 70, 0
2, 42307, Note_on_c, 0, 63, 0
2, 42334, Note_on_c, 0, 58, 57
2, 42335, Note_on_c, 0, 70, 50
2, 42338, Note_on_c, 0, 63, 37
2, 42341, Note_on_c, 0, 60, 27
2, 42350, Note_on_c, 0, 60, 0
2, 42352, Note_on_c, 0, 70, 0
2, 42356, Note_on_c, 0, 58, 0
2, 42365, Note_on_c, 0, 56, 42
2, 42374, Note_on_c, 0, 68, 23
2, 42385, Note_on_c, 0, 63, 0
2, 42387, Note_on_c, 0, 68, 0
2, 42419, Note_on_c, 0, 56, 0
2, 42425, Note_on_c, 0, 63, 48
2, 42425, Note_on_c, 0, 70, 53
2, 42425, Note_on_c, 0, 58, 52
2, 42427, Note_on_c, 0, 60, 35
2, 42443, Note_on_c, 0, 60, 0
2, 42453, Note_on_c, 0, 70, 0
2, 42454, Note_on_c, 0, 63, 0
2, 42462, Note_on_c, 0, 58, 0
2, 42696, Note_on_c, 0, 56, 49
2, 42715, Note_on_c, 0, 70, 64
2, 42716, Note_on_c, 0, 63, 57
2, 42716, Note_on_c, 0, 60, 49
2, 42717, Note_on_c, 0, 56, 0
2, 42717, Note_on_c, 0, 58, 53
2, 42739, Note_on_c, 0, 60, 0
2, 42745, Note_on_c, 0, 70, 0
2, 42746, Note_on_c, 0, 58, 0
2, 42747, Note_on_c, 0, 63, 0
2, 42776, Note_on_c, 0, 70, 68
2, 42777, Note_on_c, 0, 58, 55
2, 42778, Note_on_c, 0, 63, 69
2, 42780, Note_on_c, 0, 60, 55
2, 42808, Note_on_c, 0, 60, 0
2, 42818, Note_on_c, 0, 63, 0
2, 42819, Note_on_c, 0, 70, 0
2, 42825, Note_on_c, 0, 58, 0
2, 42843, Note_on_c, 0, 63, 25
2, 42843, Note_on_c, 0, 60, 22
2, 42844, Note_on_c, 0, 56, 31
2, 42844, Note_on_c, 0, 68, 25
2, 42855, Note_on_c, 0, 56, 0
2, 42855, Note_on_c, 0, 60, 0
2, 42856, Note_on_c, 0, 63, 0
2, 42856, Note_on_c, 0, 68, 0
2, 42875, Note_on_c, 0, 70, 76
2, 42878, Note_on_c, 0, 60, 60
2, 42879, Note_on_c, 0, 58, 55
2, 42881, Note_on_c, 0, 63, 40
2, 42887, Note_on_c, 0, 63, 0
2, 42887, Note_on_c, 0, 60, 0
2, 42894, Note_on_c, 0, 58, 0
2, 42894, Note_on_c, 0, 70, 0
2, 42932, Note_on_c, 0, 70, 74
2, 42932, Note_on_c, 0, 63, 69
2, 42933, Note_on_c, 0, 60, 64
2, 42935, Note_on_c, 0, 58, 71
2, 42956, Note_on_c, 0, 60, 0
2, 42958, Note_on_c, 0, 58, 0
2, 42961, Note_on_c, 0, 63, 0
2, 42962, Note_on_c, 0, 70, 0
2, 43048, Note_on_c, 0, 70, 55
2, 43050, Note_on_c, 0, 58, 59
2, 43053, Note_on_c, 0, 63, 36
2, 43056, Note_on_c, 0, 60, 24
2, 43061, Note_on_c, 0, 60, 0
2, 43063, Note_on_c, 0, 70, 0
2, 43067, Note_on_c, 0, 58, 0
2, 43069, Note_on_c, 0, 63, 0
2, 43072, Note_on_c, 0, 56, 44
2, 43126, Note_on_c, 0, 56, 0
2, 43129, Note_on_c, 0, 58, 52
2, 43130, Note_on_c, 0, 63, 69
2, 43131, Note_on_c, 0, 70, 57
2, 43132, Note_on_c, 0, 60, 52
2, 43135, Note_on_c, 0, 58, 0
2, 43137, Note_on_c, 0, 70, 0
2, 43138, Note_on_c, 0, 60, 0
2, 43143, Note_on_c, 0, 63, 0
2, 43252, Note_on_c, 0, 43, 68
2, 43253, Note_on_c, 0, 62, 63
2, 43254, Note_on_c, 0, 31, 68
2, 43255, Note_on_c, 0, 54, 70
2, 43255, Note_on_c, 0, 57, 64
2, 43256, Note_on_c, 0, 59, 60
2, 43409, Note_on_c, 0, 59, 0
2, 43423, Note_on_c, 0, 57, 0
2, 43424, Note_on_c, 0, 31, 0
2, 43427, Note_on_c, 0, 54, 0
2, 43427, Note_on_c, 0, 43, 0
2, 43427, Note_on_c, 0, 34, 33
2, 43433, Note_on_c, 0, 62, 0
2, 43439, Note_on_c, 0, 34, 0
2, 43442, Note_on_c, 0, 55, 60
2, 43443, Note_on_c, 0, 60, 44
2, 43443, Note_on_c, 0, 45, 62
2, 43445, Note_on_c, 0, 64, 47
2, 43518, Note_on_c, 0, 64, 0
2, 43519, Note_on_c, 0, 55, 0
2, 43523, Note_on_c, 0, 60, 0
2, 43528, Note_on_c, 0, 45, 0
2, 43543, Note_on_c, 0, 55, 57
2, 43544, Note_on_c, 0, 60, 35
2, 43545, Note_on_c, 0, 45, 43
2, 43545, Note_on_c, 0, 64, 49
2, 43640, Note_on_c, 0, 55, 0
2, 43641, Note_on_c, 0, 60, 0
2, 43645, Note_on_c, 0, 64, 0
2, 43659, Note_on_c, 0, 44, 46
2, 43662, Note_on_c, 0, 45, 0
2, 43679, Note_on_c, 0, 66, 59
2, 43680, Note_on_c, 0, 44, 0
2, 43680, Note_on_c, 0, 57, 61
2, 43681, Note_on_c, 0, 62, 62
2, 43682, Note_on_c, 0, 47, 57
2, 43692, Note_on_c, 0, 57, 0
2, 43694, Note_on_c, 0, 66, 0
2, 43695, Note_on_c, 0, 62, 0
2, 43695, Note_on_c, 0, 47, 0
2, 43736, Note_on_c, 0, 47, 55
2, 43737, Note_on_c, 0, 66, 60
2, 43740, Note_on_c, 0, 57, 63
2, 43743, Note_on_c, 0, 62, 43
2, 43755, Note_on_c, 0, 57, 0
2, 43758, Note_on_c, 0, 66, 0
2, 43764, Note_on_c, 0, 62, 0
2, 43772, Note_on_c, 0, 47, 0
2, 43799, Note_on_c, 0, 64, 45
2, 43799, Note_on_c, 0, 45, 47
2, 43800, Note_on_c, 0, 60, 32
2, 43809, Note_on_c, 0, 60, 0
2, 43812, Note_on_c, 0, 64, 0
2, 43813, Note_on_c, 0, 45, 0
2, 43856, Note_on_c, 0, 58, 53
2, 43859, Note_on_c, 0, 54, 49
2, 43862, Note_on_c, 0, 58, 0
2, 43862, Note_on_c, 0, 62, 62
2, 43862, Note_on_c, 0, 43, 50
2, 43870, Note_on_c, 0, 59, 26
2, 43976, Control_c, 0, 64, 127
2, 43999, Note_on_c, 0, 54, 0
2, 44011, Note_on_c, 0, 62, 0
2, 44020, Note_on_c, 0, 59, 0
2, 44034, Note_on_c, 0, 43, 0
2, 44095, Note_on_c, 0, 61, 19
2, 44133, Note_on_c, 0, 61, 0
2, 44153, Note_on_c, 0, 94, 64
2, 44154, Note_on_c, 0, 82, 59
2, 44154, Note_on_c, 0, 67, 52
2, 44155, Note_on_c, 0, 63, 42
2, 44156, Note_on_c, 0, 60, 42
2, 44156, Note_on_c, 0, 56, 49
2, 44157, Control_c, 0, 64, 0
2, 44159, Note_on_c, 0, 87, 38
2, 44174, Note_on_c, 0, 87, 0
2, 44175, Note_on_c, 0, 94, 0
2, 44175, Note_on_c, 0, 67, 0
2, 44177, Note_on_c, 0, 82, 0
2, 44180, Note_on_c, 0, 60, 0
2, 44181, Note_on_c, 0, 63, 0
2, 44183, Note_on_c, 0, 56, 0
2, 44191, Note_on_c, 0, 94, 59
2, 44192, Note_on_c, 0, 82, 52
2, 44193, Note_on_c, 0, 56, 21
2, 44194, Note_on_c, 0, 67, 34
2, 44195, Note_on_c, 0, 63, 27
2, 44195, Note_on_c, 0, 60, 40
2, 44198, Note_on_c, 0, 87, 32
2, 44208, Note_on_c, 0, 94, 0
2, 44211, Note_on_c, 0, 82, 0
2, 44212, Note_on_c, 0, 87, 0
2, 44222, Note_on_c, 0, 80, 28
2, 44226, Note_on_c, 0, 92, 27
2, 44230, Note_on_c, 0, 87, 20
2, 44238, Note_on_c, 0, 56, 0
2, 44241, Note_on_c, 0, 80, 0
2, 44242, Note_on_c, 0, 92, 0
2, 44242, Note_on_c, 0, 87, 0
2, 44243, Note_on_c, 0, 60, 0
2, 44246, Note_on_c, 0, 63, 0
2, 44246, Note_on_c, 0, 67, 0
2, 44278, Note_on_c, 0, 67, 53
2, 44279, Note_on_c, 0, 94, 60
2, 44280, Note_on_c, 0, 63, 37
2, 44281, Note_on_c, 0, 87, 45
2, 44282, Note_on_c, 0, 82, 30
2, 44283, Note_on_c, 0, 60, 37
2, 44284, Note_on_c, 0, 56, 35
2, 44293, Note_on_c, 0, 82, 0
2, 44295, Note_on_c, 0, 87, 0
2, 44297, Note_on_c, 0, 94, 0
2, 44300, Note_on_c, 0, 56, 0
2, 44307, Note_on_c, 0, 67, 0
2, 44307, Note_on_c, 0, 60, 0
2, 44308, Note_on_c, 0, 63, 0
2, 44369, Note_on_c, 0, 94, 53
2, 44371, Note_on_c, 0, 82, 36
2, 44373, Note_on_c, 0, 63, 37
2, 44373, Note_on_c, 0, 67, 45
2, 44375, Note_on_c, 0, 87, 35
2, 44375, Note_on_c, 0, 60, 35
2, 44376, Note_on_c, 0, 56, 35
2, 44394, Note_on_c, 0, 56, 0
2, 44394, Note_on_c, 0, 67, 0
2, 44395, Note_on_c, 0, 94, 0
2, 44396, Note_on_c, 0, 87, 0
2, 44396, Note_on_c, 0, 82, 0
2, 44397, Note_on_c, 0, 60, 0
2, 44397, Note_on_c, 0, 63, 0
2, 44568, Note_on_c, 0, 56, 67
2, 44569, Note_on_c, 0, 67, 58
2, 44569, Note_on_c, 0, 63, 50
2, 44570, Note_on_c, 0, 60, 44
2, 44570, Note_on_c, 0, 92, 73
2, 44570, Note_on_c, 0, 80, 61
2, 44571, Note_on_c, 0, 87, 57
2, 44581, Note_on_c, 0, 80, 0
2, 44586, Note_on_c, 0, 92, 0
2, 44591, Note_on_c, 0, 87, 0
2, 44592, Note_on_c, 0, 67, 0
2, 44597, Note_on_c, 0, 60, 0
2, 44599, Note_on_c, 0, 63, 0
2, 44600, Note_on_c, 0, 92, 56
2, 44601, Note_on_c, 0, 56, 0
2, 44601, Note_on_c, 0, 80, 43
2, 44605, Note_on_c, 0, 87, 39
2, 44609, Note_on_c, 0, 80, 0
2, 44613, Note_on_c, 0, 87, 0
2, 44613, Note_on_c, 0, 92, 0
2, 44623, Note_on_c, 0, 67, 58
2, 44623, Note_on_c, 0, 56, 67
2, 44624, Note_on_c, 0, 63, 60
2, 44627, Note_on_c, 0, 94, 72
2, 44627, Note_on_c, 0, 60, 58
2, 44628, Note_on_c, 0, 82, 59
2, 44629, Note_on_c, 0, 87, 61
2, 44648, Note_on_c, 0, 82, 0
2, 44649, Note_on_c, 0, 94, 0
2, 44651, Note_on_c, 0, 56, 0
2, 44652, Note_on_c, 0, 87, 0
2, 44656, Note_on_c, 0, 67, 0
2, 44658, Note_on_c, 0, 60, 0
2, 44663, Note_on_c, 0, 94, 53
2, 44664, Note_on_c, 0, 82, 49
2, 44666, Note_on_c, 0, 67, 22
2, 44667, Note_on_c, 0, 87, 46
2, 44667, Note_on_c, 0, 56, 35
2, 44671, Note_on_c, 0, 60, 19
2, 44675, Note_on_c, 0, 94, 0
2, 44676, Note_on_c, 0, 82, 0
2, 44686, Note_on_c, 0, 80, 37
2, 44689, Note_on_c, 0, 92, 25
2, 44716, Note_on_c, 0, 92, 0
2, 44716, Note_on_c, 0, 80, 0
2, 44721, Note_on_c, 0, 87, 0
2, 44724, Note_on_c, 0, 56, 0
2, 44729, Note_on_c, 0, 67, 0
2, 44730, Note_on_c, 0, 60, 0
2, 44740, Note_on_c, 0, 63, 0
2, 44756, Note_on_c, 0, 82, 69
2, 44756, Note_on_c, 0, 94, 69
2, 44757, Note_on_c, 0, 63, 53
2, 44758, Note_on_c, 0, 67, 60
2, 44759, Note_on_c, 0, 87, 56
2, 44759, Note_on_c, 0, 60, 48
2, 44759, Note_on_c, 0, 56, 55
2, 44779, Note_on_c, 0, 94, 0
2, 44782, Note_on_c, 0, 56, 0
2, 44783, Note_on_c, 0, 82, 0
2, 44785, Note_on_c, 0, 67, 0
2, 44786, Note_on_c, 0, 60, 0
2, 44787, Note_on_c, 0, 87, 0
2, 44790, Note_on_c, 0, 63, 0
2, 44819, Note_on_c, 0, 92, 48
2, 44819, Note_on_c, 0, 67, 40
2, 44819, Note_on_c, 0, 63, 35
2, 44820, Note_on_c, 0, 80, 35
2, 44822, Note_on_c, 0, 60, 32
2, 44822, Note_on_c, 0, 56, 38
2, 44828, Note_on_c, 0, 87, 25
2, 44839, Note_on_c, 0, 80, 0
2, 44839, Note_on_c, 0, 92, 0
2, 44841, Note_on_c, 0, 56, 0
2, 44844, Note_on_c, 0, 67, 0
2, 44845, Note_on_c, 0, 87, 0
2, 44846, Note_on_c, 0, 60, 0
2, 44848, Note_on_c, 0, 63, 0
2, 44855, Note_on_c, 0, 82, 49
2, 44856, Note_on_c, 0, 94, 59
2, 44856, Note_on_c, 0, 67, 57
2, 44858, Note_on_c, 0, 63, 46
2, 44858, Note_on_c, 0, 87, 52
2, 44859, Note_on_c, 0, 56, 40
2, 44860, Note_on_c, 0, 60, 51
2, 44865, Note_on_c, 0, 87, 0
2, 44866, Note_on_c, 0, 60, 0
2, 44868, Note_on_c, 0, 82, 0
2, 44869, Note_on_c, 0, 94, 0
2, 44874, Note_on_c, 0, 67, 0
2, 44877, Note_on_c, 0, 56, 0
2, 44884, Note_on_c, 0, 63, 0
2, 45093, Note_on_c, 0, 38, 33
2, 45109, Note_on_c, 0, 38, 0
2, 45112, Note_on_c, 0, 43, 48
2, 45112, Note_on_c, 0, 55, 67
2, 45133, Note_on_c, 0, 43, 0
2, 45143, Note_on_c, 0, 55, 0
2, 45205, Note_on_c, 0, 38, 41
2, 45207, Note_on_c, 0, 50, 38
2, 45215, Note_on_c, 0, 50, 0
2, 45224, Note_on_c, 0, 38, 0
2, 45233, Note_on_c, 0, 41, 32
2, 45259, Note_on_c, 0, 41, 0
2, 45271, Note_on_c, 0, 43, 36
2, 45272, Note_on_c, 0, 55, 53
2, 45277, Note_on_c, 0, 55, 0
2, 45280, Note_on_c, 0, 43, 0
2, 45327, Note_on_c, 0, 60, 95
2, 45328, Note_on_c, 0, 48, 55
2, 45329, Note_on_c, 0, 47, 64
2, 45342, Note_on_c, 0, 47, 0
2, 45401, Note_on_c, 0, 48, 0
2, 45405, Note_on_c, 0, 60, 0
2, 45415, Note_on_c, 0, 59, 50
2, 45418, Note_on_c, 0, 47, 16
2, 45436, Note_on_c, 0, 47, 0
2, 45440, Note_on_c, 0, 59, 0
2, 45456, Note_on_c, 0, 55, 33
2, 45466, Note_on_c, 0, 55, 0
2, 45477, Note_on_c, 0, 60, 65
2, 45479, Note_on_c, 0, 48, 43
2, 45516, Note_on_c, 0, 48, 0
2, 45523, Note_on_c, 0, 60, 0
2, 45536, Note_on_c, 0, 59, 65
2, 45538, Note_on_c, 0, 47, 32
2, 45555, Note_on_c, 0, 47, 0
2, 45556, Note_on_c, 0, 59, 0
2, 45637, Note_on_c, 0, 55, 49
2, 45643, Note_on_c, 0, 43, 36
2, 45651, Note_on_c, 0, 55, 0
2, 45657, Note_on_c, 0, 43, 0
2, 45666, Note_on_c, 0, 50, 45
2, 45678, Note_on_c, 0, 38, 24
2, 45681, Note_on_c, 0, 50, 0
2, 45689, Note_on_c, 0, 38, 0
2, 45700, Note_on_c, 0, 53, 57
2, 45703, Note_on_c, 0, 41, 44
2, 45718, Note_on_c, 0, 53, 0
2, 45722, Note_on_c, 0, 41, 0
2, 45752, Note_on_c, 0, 57, 79
2, 45754, Note_on_c, 0, 43, 58
2, 45763, Note_on_c, 0, 57, 0
2, 45765, Note_on_c, 0, 43, 0
2, 45807, Note_on_c, 0, 48, 87
2, 45807, Note_on_c, 0, 60, 101
2, 45842, Note_on_c, 0, 60, 0
2, 45855, Note_on_c, 0, 48, 0
2, 45859, Note_on_c, 0, 60, 50
2, 45867, Note_on_c, 0, 48, 48
2, 45884, Note_on_c, 0, 60, 0
2, 45887, Note_on_c, 0, 48, 0
2, 45887, Note_on_c, 0, 59, 48
2, 45890, Note_on_c, 0, 47, 34
2, 45915, Note_on_c, 0, 59, 0
2, 45930, Note_on_c, 0, 47, 0
2, 45935, Note_on_c, 0, 43, 36
2, 45947, Note_on_c, 0, 43, 0
2, 45952, Note_on_c, 0, 60, 77
2, 45952, Note_on_c, 0, 48, 63
2, 46000, Note_on_c, 0, 60, 0
2, 46010, Note_on_c, 0, 48, 0
2, 46011, Note_on_c, 0, 47, 51
2, 46012, Note_on_c, 0, 59, 58
2, 46028, Note_on_c, 0, 47, 0
2, 46030, Note_on_c, 0, 59, 0
2, 46060, Note_on_c, 0, 55, 20
2, 46062, Note_on_c, 0, 57, 58
2, 46066, Note_on_c, 0, 82, 56
2, 46068, Note_on_c, 0, 55, 0
2, 46075, Note_on_c, 0, 57, 0
2, 46076, Note_on_c, 0, 58, 67
2, 46076, Note_on_c, 0, 83, 80
2, 46077, Note_on_c, 0, 82, 0
2, 46078, Note_on_c, 0, 59, 71
2, 46088, Note_on_c, 0, 58, 0
2, 46685, Note_on_c, 0, 83, 0
2, 46703, Note_on_c, 0, 59, 0
2, 46745, Note_on_c, 0, 83, 87
2, 46746, Note_on_c, 0, 59, 75
2, 46762, Note_on_c, 0, 83, 0
2, 46764, Note_on_c, 0, 59, 0
2, 46779, Note_on_c, 0, 59, 48
2, 46780, Note_on_c, 0, 83, 44
2, 46795, Note_on_c, 0, 83, 0
2, 46800, Note_on_c, 0, 59, 0
2, 46804, Note_on_c, 0, 88, 73
2, 46804, Note_on_c, 0, 64, 67
2, 46820, Note_on_c, 0, 88, 0
2, 46825, Note_on_c, 0, 64, 0
2, 46861, Note_on_c, 0, 64, 58
2, 46862, Note_on_c, 0, 88, 77
2, 46888, Note_on_c, 0, 88, 0
2, 46901, Note_on_c, 0, 64, 0
2, 46926, Note_on_c, 0, 82, 23
2, 46928, Note_on_c, 0, 83, 60
2, 46932, Note_on_c, 0, 59, 28
2, 46942, Note_on_c, 0, 82, 0
2, 46944, Note_on_c, 0, 59, 0
2, 46951, Note_on_c, 0, 83, 0
2, 46980, Note_on_c, 0, 82, 46
2, 46986, Note_on_c, 0, 59, 42
2, 46989, Note_on_c, 0, 83, 45
2, 46999, Note_on_c, 0, 82, 0
2, 47036, Note_on_c, 0, 83, 0
2, 47044, Note_on_c, 0, 59, 0
2, 47046, Note_on_c, 0, 82, 51
2, 47047, Note_on_c, 0, 58, 54
2, 47125, Note_on_c, 0, 82, 0
2, 47127, Note_on_c, 0, 58, 0
2, 47144, Note_on_c, 0, 82, 34
2, 47145, Note_on_c, 0, 58, 53
2, 47204, Note_on_c, 0, 82, 0
2, 47208, Note_on_c, 0, 58, 0
2, 47225, Note_on_c, 0, 82, 31
2, 47226, Note_on_c, 0, 58, 39
2, 47711, Note_on_c, 0, 82, 0
2, 47717, Note_on_c, 0, 58, 0
2, 47729, Note_on_c, 0, 58, 45
2, 47732, Note_on_c, 0, 82, 35
2, 47742, Note_on_c, 0, 82, 0
2, 47746, Note_on_c, 0, 58, 0
2, 47753, Note_on_c, 0, 87, 76
2, 47754, Note_on_c, 0, 63, 71
2, 47764, Note_on_c, 0, 63, 0
2, 47768, Note_on_c, 0, 87, 0
2, 47812, Note_on_c, 0, 63, 77
2, 47813, Note_on_c, 0, 87, 82
2, 47856, Note_on_c, 0, 87, 0
2, 47863, Note_on_c, 0, 63, 0
2, 47875, Note_on_c, 0, 58, 61
2, 47876, Note_on_c, 0, 82, 56
2, 47896, Note_on_c, 0, 82, 0
2, 47899, Note_on_c, 0, 58, 0
2, 47933, Note_on_c, 0, 82, 78
2, 47933, Note_on_c, 0, 58, 71
2, 47971, Note_on_c, 0, 82, 0
2, 47984, Note_on_c, 0, 58, 0
2, 47998, Note_on_c, 0, 56, 71
2, 47999, Note_on_c, 0, 80, 64
2, 48086, Note_on_c, 0, 80, 0
2, 48089, Note_on_c, 0, 56, 0
2, 48097, Note_on_c, 0, 55, 28
2, 48115, Note_on_c, 0, 55, 0
2, 48115, Note_on_c, 0, 56, 54
2, 48117, Note_on_c, 0, 80, 39
2, 48173, Note_on_c, 0, 80, 0
2, 48176, Note_on_c, 0, 56, 0
2, 48183, Note_on_c, 0, 55, 24
2, 48192, Note_on_c, 0, 79, 10
2, 48211, Note_on_c, 0, 79, 0
2, 48218, Note_on_c, 0, 80, 38
2, 48220, Note_on_c, 0, 56, 46
2, 48222, Note_on_c, 0, 55, 0
2, 48238, Note_on_c, 0, 80, 0
2, 48244, Note_on_c, 0, 56, 0
2, 48527, Note_on_c, 0, 68, 55
2, 48527, Note_on_c, 0, 65, 50
2, 48528, Note_on_c, 0, 60, 47
2, 48531, Note_on_c, 0, 53, 34
2, 48552, Control_c, 0, 64, 127
2, 48560, Control_c, 0, 64, 0
2, 48574, Control_c, 0, 64, 127
2, 48590, Note_on_c, 0, 60, 0
2, 48595, Note_on_c, 0, 65, 0
2, 48600, Control_c, 0, 64, 0
2, 48606, Note_on_c, 0, 53, 0
2, 48607, Note_on_c, 0, 70, 51
2, 48608, Note_on_c, 0, 55, 50
2, 48616, Note_on_c, 0, 68, 0
2, 48622, Note_on_c, 0, 70, 0
2, 48630, Note_on_c, 0, 55, 0
2, 48664, Note_on_c, 0, 72, 46
2, 48666, Note_on_c, 0, 65, 36
2, 48669, Note_on_c, 0, 56, 47
2, 48673, Note_on_c, 0, 65, 0
2, 48681, Note_on_c, 0, 72, 0
2, 48691, Note_on_c, 0, 56, 0
2, 48722, Note_on_c, 0, 75, 60
2, 48723, Note_on_c, 0, 60, 52
2, 48725, Note_on_c, 0, 65, 49
2, 48726, Note_on_c, 0, 68, 34
2, 48728, Note_on_c, 0, 72, 33
2, 48735, Note_on_c, 0, 72, 0
2, 48737, Note_on_c, 0, 68, 0
2, 48738, Note_on_c, 0, 65, 0
2, 48739, Note_on_c, 0, 60, 0
2, 48739, Note_on_c, 0, 75, 0
2, 48817, Note_on_c, 0, 56, 55
2, 48818, Note_on_c, 0, 72, 49
2, 48830, Note_on_c, 0, 72, 0
2, 48832, Note_on_c, 0, 56, 0
2, 48871, Note_on_c, 0, 70, 57
2, 48875, Note_on_c, 0, 63, 47
2, 48876, Note_on_c, 0, 55, 49
2, 48885, Note_on_c, 0, 55, 0
2, 48886, Note_on_c, 0, 63, 0
2, 48888, Note_on_c, 0, 70, 0
2, 48932, Note_on_c, 0, 68, 57
2, 48935, Note_on_c, 0, 53, 30
2, 48942, Note_on_c, 0, 53, 0
2, 48947, Note_on_c, 0, 68, 0
2, 48960, Note_on_c, 0, 67, 46
2, 48967, Note_on_c, 0, 67, 0
2, 49055, Note_on_c, 0, 57, 59
2, 49055, Note_on_c, 0, 67, 47
2, 49057, Note_on_c, 0, 62, 51
2, 49057, Note_on_c, 0, 52, 36
2, 49063, Note_on_c, 0, 62, 0
2, 49063, Note_on_c, 0, 67, 0
2, 49065, Note_on_c, 0, 57, 0
2, 49067, Note_on_c, 0, 52, 0
2, 49098, Control_c, 0, 64, 127
2, 49110, Note_on_c, 0, 66, 35
2, 49111, Note_on_c, 0, 56, 37
2, 49112, Note_on_c, 0, 61, 42
2, 49112, Note_on_c, 0, 51, 35
2, 49119, Note_on_c, 0, 56, 0
2, 49122, Note_on_c, 0, 66, 0
2, 49130, Note_on_c, 0, 61, 0
2, 49131, Note_on_c, 0, 51, 0
2, 49134, Note_on_c, 0, 57, 44
2, 49135, Note_on_c, 0, 52, 37
2, 49139, Note_on_c, 0, 67, 36
2, 49139, Note_on_c, 0, 62, 32
2, 49207, Control_c, 0, 64, 0
2, 49242, Note_on_c, 0, 67, 0
2, 49242, Note_on_c, 0, 57, 0
2, 49247, Note_on_c, 0, 62, 0
2, 49259, Note_on_c, 0, 52, 0
2, 49261, Note_on_c, 0, 56, 38
2, 49262, Note_on_c, 0, 51, 34
2, 49266, Note_on_c, 0, 61, 28
2, 49267, Note_on_c, 0, 66, 20
2, 49286, Note_on_c, 0, 56, 0
2, 49289, Note_on_c, 0, 66, 0
2, 49293, Note_on_c, 0, 61, 0
2, 49315, Note_on_c, 0, 51, 0
2, 49325, Note_on_c, 0, 57, 50
2, 49325, Note_on_c, 0, 67, 41
2, 49326, Note_on_c, 0, 52, 31
2, 49326, Note_on_c, 0, 62, 44
2, 49332, Note_on_c, 0, 57, 0
2, 49333, Note_on_c, 0, 62, 0
2, 49334, Note_on_c, 0, 52, 0
2, 49335, Note_on_c, 0, 67, 0
2, 49839, Note_on_c, 0, 79, 37
2, 49842, Note_on_c, 0, 55, 33
2, 49850, Note_on_c, 0, 79, 0
2, 49863, Note_on_c, 0, 55, 0
2, 49865, Note_on_c, 0, 60, 35
2, 49867, Note_on_c, 0, 84, 47
2, 49876, Note_on_c, 0, 84, 0
2, 49888, Note_on_c, 0, 60, 0
2, 49898, Note_on_c, 0, 88, 54
2, 49899, Note_on_c, 0, 64, 60
2, 49910, Note_on_c, 0, 88, 0
2, 49914, Note_on_c, 0, 64, 0
2, 49922, Note_on_c, 0, 89, 89
2, 49923, Note_on_c, 0, 65, 74
2, 49945, Note_on_c, 0, 89, 0
2, 49952, Note_on_c, 0, 65, 0
2, 49958, Note_on_c, 0, 88, 24
2, 49961, Note_on_c, 0, 64, 36
2, 49966, Note_on_c, 0, 88, 0
2, 49974, Note_on_c, 0, 64, 0
2, 49980, Note_on_c, 0, 89, 76
2, 49985, Note_on_c, 0, 65, 49
2, 50002, Note_on_c, 0, 89, 0
2, 50004, Note_on_c, 0, 65, 0
2, 50015, Note_on_c, 0, 88, 41
2, 50021, Note_on_c, 0, 64, 27
2, 50032, Note_on_c, 0, 88, 0
2, 50041, Note_on_c, 0, 64, 0
2, 50041, Note_on_c, 0, 84, 42
2, 50044, Note_on_c, 0, 60, 30
2, 50060, Note_on_c, 0, 84, 0
2, 50069, Note_on_c, 0, 60, 0
2, 50160, Note_on_c, 0, 84, 53
2, 50160, Note_on_c, 0, 60, 46
2, 50175, Note_on_c, 0, 84, 0
2, 50180, Note_on_c, 0, 60, 0
2, 50254, Note_on_c, 0, 86, 54
2, 50255, Note_on_c, 0, 62, 37
2, 50305, Note_on_c, 0, 86, 0
2, 50311, Note_on_c, 0, 62, 0
2, 50312, Note_on_c, 0, 55, 43
2, 50339, Note_on_c, 0, 55, 0
2, 50342, Note_on_c, 0, 60, 32
2, 50344, Note_on_c, 0, 84, 29
2, 50351, Note_on_c, 0, 84, 0
2, 50370, Note_on_c, 0, 60, 0
2, 50370, Note_on_c, 0, 86, 39
2, 50379, Note_on_c, 0, 86, 0
2, 50398, Note_on_c, 0, 89, 59
2, 50399, Note_on_c, 0, 65, 67
2, 50422, Note_on_c, 0, 89, 0
2, 50428, Note_on_c, 0, 88, 40
2, 50429, Note_on_c, 0, 65, 0
2, 50442, Note_on_c, 0, 88, 0
2, 50455, Note_on_c, 0, 89, 51
2, 50458, Note_on_c, 0, 65, 53
2, 50474, Note_on_c, 0, 89, 0
2, 50482, Note_on_c, 0, 65, 0
2, 50487, Note_on_c, 0, 88, 49
2, 50490, Note_on_c, 0, 64, 42
2, 50507, Note_on_c, 0, 88, 0
2, 50514, Note_on_c, 0, 84, 49
2, 50516, Note_on_c, 0, 60, 37
2, 50517, Note_on_c, 0, 64, 0
2, 50530, Note_on_c, 0, 84, 0
2, 50536, Note_on_c, 0, 60, 0
2, 50571, Note_on_c, 0, 57, 47
2, 50571, Note_on_c, 0, 81, 47
2, 50581, Note_on_c, 0, 81, 0
2, 50605, Note_on_c, 0, 57, 0
2, 50634, Note_on_c, 0, 84, 82
2, 50635, Note_on_c, 0, 60, 62
2, 50645, Note_on_c, 0, 84, 0
2, 50650, Note_on_c, 0, 60, 0
2, 50727, Note_on_c, 0, 86, 83
2, 50731, Note_on_c, 0, 62, 53
2, 50781, Note_on_c, 0, 86, 0
2, 50782, Note_on_c, 0, 62, 0
2, 50785, Note_on_c, 0, 55, 32
2, 50787, Note_on_c, 0, 79, 34
2, 50796, Note_on_c, 0, 79, 0
2, 50806, Note_on_c, 0, 55, 0
2, 50814, Note_on_c, 0, 60, 17
2, 50841, Note_on_c, 0, 60, 0
2, 50850, Note_on_c, 0, 62, 35
2, 50863, Note_on_c, 0, 62, 0
2, 50874, Note_on_c, 0, 89, 74
2, 50875, Note_on_c, 0, 65, 49
2, 50896, Note_on_c, 0, 89, 0
2, 50898, Note_on_c, 0, 65, 0
2, 50909, Note_on_c, 0, 87, 35
2, 50914, Note_on_c, 0, 63, 25
2, 50924, Note_on_c, 0, 87, 0
2, 50930, Note_on_c, 0, 63, 0
2, 50933, Note_on_c, 0, 89, 64
2, 50937, Note_on_c, 0, 65, 46
2, 50952, Note_on_c, 0, 89, 0
2, 50964, Note_on_c, 0, 65, 0
2, 50965, Note_on_c, 0, 87, 45
2, 50969, Note_on_c, 0, 63, 29
2, 50991, Note_on_c, 0, 84, 54
2, 50994, Note_on_c, 0, 60, 25
2, 50996, Note_on_c, 0, 63, 0
2, 50998, Note_on_c, 0, 87, 0
2, 51005, Note_on_c, 0, 84, 0
2, 51015, Note_on_c, 0, 60, 0
2, 51053, Note_on_c, 0, 79, 35
2, 51054, Note_on_c, 0, 55, 52
2, 51060, Note_on_c, 0, 79, 0
2, 51071, Note_on_c, 0, 55, 0
2, 51121, Note_on_c, 0, 82, 51
2, 51125, Note_on_c, 0, 58, 47
2, 51131, Note_on_c, 0, 58, 0
2, 51133, Note_on_c, 0, 82, 0
2, 51212, Note_on_c, 0, 60, 54
2, 51212, Note_on_c, 0, 84, 56
2, 51327, Note_on_c, 0, 84, 0
2, 51327, Note_on_c, 0, 60, 0
2, 51327, Note_on_c, 0, 58, 49
2, 51346, Note_on_c, 0, 58, 0
2, 51355, Note_on_c, 0, 89, 67
2, 51355, Note_on_c, 0, 65, 48
2, 51375, Note_on_c, 0, 89, 0
2, 51380, Note_on_c, 0, 65, 0
2, 51387, Note_on_c, 0, 63, 36
2, 51387, Note_on_c, 0, 87, 51
2, 51405, Note_on_c, 0, 87, 0
2, 51405, Note_on_c, 0, 63, 0
2, 51420, Note_on_c, 0, 89, 71
2, 51431, Note_on_c, 0, 65, 37
2, 51447, Note_on_c, 0, 65, 0
2, 51448, Note_on_c, 0, 89, 0
2, 51448, Note_on_c, 0, 87, 55
2, 51454, Note_on_c, 0, 63, 34
2, 51472, Note_on_c, 0, 87, 0
2, 51474, Note_on_c, 0, 84, 60
2, 51479, Note_on_c, 0, 60, 22
2, 51487, Note_on_c, 0, 63, 0
2, 51488, Note_on_c, 0, 84, 0
2, 51493, Note_on_c, 0, 60, 0
2, 51533, Note_on_c, 0, 55, 38
2, 51535, Note_on_c, 0, 79, 24
2, 51543, Note_on_c, 0, 79, 0
2, 51551, Note_on_c, 0, 55, 0
2, 51597, Note_on_c, 0, 58, 50
2, 51620, Note_on_c, 0, 58, 0
2, 51690, Note_on_c, 0, 60, 48
2, 51690, Note_on_c, 0, 84, 68
2, 51752, Note_on_c, 0, 84, 0
2, 51754, Note_on_c, 0, 60, 0
2, 51755, Note_on_c, 0, 58, 35
2, 51756, Note_on_c, 0, 79, 28
2, 51763, Note_on_c, 0, 79, 0
2, 51765, Note_on_c, 0, 58, 0
2, 51804, Note_on_c, 0, 58, 44
2, 51826, Note_on_c, 0, 58, 0
2, 51833, Note_on_c, 0, 65, 64
2, 51836, Note_on_c, 0, 89, 79
2, 51856, Note_on_c, 0, 89, 0
2, 51862, Note_on_c, 0, 65, 0
2, 51870, Note_on_c, 0, 63, 40
2, 51873, Note_on_c, 0, 87, 30
2, 51882, Note_on_c, 0, 87, 0
2, 51890, Note_on_c, 0, 63, 0
2, 51893, Note_on_c, 0, 89, 69
2, 51896, Note_on_c, 0, 65, 49
2, 51913, Note_on_c, 0, 89, 0
2, 51920, Note_on_c, 0, 65, 0
2, 51922, Note_on_c, 0, 63, 37
2, 51928, Note_on_c, 0, 87, 35
2, 51950, Note_on_c, 0, 84, 50
2, 51951, Note_on_c, 0, 87, 0
2, 51954, Note_on_c, 0, 60, 24
2, 51959, Note_on_c, 0, 63, 0
2, 51965, Note_on_c, 0, 84, 0
2, 51996, Note_on_c, 0, 60, 0
2, 52010, Note_on_c, 0, 80, 52
2, 52012, Note_on_c, 0, 56, 50
2, 52028, Note_on_c, 0, 80, 0
2, 52037, Note_on_c, 0, 56, 0
2, 52072, Note_on_c, 0, 60, 44
2, 52076, Note_on_c, 0, 84, 61
2, 52096, Note_on_c, 0, 84, 0
2, 52104, Note_on_c, 0, 60, 0
2, 52172, Note_on_c, 0, 86, 74
2, 52172, Note_on_c, 0, 62, 57
2, 52257, Control_c, 0, 64, 127
2, 52265, Note_on_c, 0, 86, 0
2, 52286, Note_on_c, 0, 62, 0
2, 52360, Note_on_c, 0, 68, 57
2, 52361, Note_on_c, 0, 63, 71
2, 52362, Note_on_c, 0, 60, 66
2, 52365, Note_on_c, 0, 53, 53
2, 52366, Control_c, 0, 64, 0
2, 52368, Note_on_c, 0, 66, 31
2, 52412, Note_on_c, 0, 66, 0
2, 52421, Note_on_c, 0, 68, 0
2, 52428, Note_on_c, 0, 60, 0
2, 52433, Note_on_c, 0, 63, 0
2, 52441, Note_on_c, 0, 53, 0
2, 52442, Note_on_c, 0, 60, 46
2, 52443, Note_on_c, 0, 63, 33
2, 52444, Note_on_c, 0, 55, 40
2, 52450, Note_on_c, 0, 60, 0
2, 52452, Note_on_c, 0, 63, 0
2, 52456, Note_on_c, 0, 55, 0
2, 52497, Note_on_c, 0, 57, 41
2, 52498, Note_on_c, 0, 72, 41
2, 52511, Note_on_c, 0, 72, 0
2, 52518, Note_on_c, 0, 57, 0
2, 52568, Control_c, 0, 64, 127
2, 52592, Control_c, 0, 64, 0
2, 52596, Note_on_c, 0, 75, 51
2, 52599, Note_on_c, 0, 68, 43
2, 52599, Note_on_c, 0, 65, 40
2, 52599, Note_on_c, 0, 71, 42
2, 52600, Note_on_c, 0, 63, 60
2, 52606, Note_on_c, 0, 71, 0
2, 52606, Note_on_c, 0, 65, 0
2, 52608, Note_on_c, 0, 63, 0
2, 52609, Note_on_c, 0, 75, 0
2, 52611, Note_on_c, 0, 68, 0
2, 52706, Note_on_c, 0, 70, 67
2, 52708, Note_on_c, 0, 63, 64
2, 52710, Note_on_c, 0, 59, 46
2, 52710, Note_on_c, 0, 56, 56
2, 52720, Note_on_c, 0, 59, 0
2, 52724, Note_on_c, 0, 70, 0
2, 52724, Note_on_c, 0, 63, 0
2, 52734, Note_on_c, 0, 56, 0
2, 52739, Note_on_c, 0, 68, 31
2, 52740, Note_on_c, 0, 54, 36
2, 52747, Note_on_c, 0, 68, 0
2, 52748, Note_on_c, 0, 54, 0
2, 52772, Note_on_c, 0, 51, 48
2, 52794, Note_on_c, 0, 51, 0
2, 52796, Note_on_c, 0, 57, 53
2, 52796, Note_on_c, 0, 62, 59
2, 52797, Note_on_c, 0, 67, 50
2, 52802, Note_on_c, 0, 52, 33
2, 52820, Note_on_c, 0, 67, 0
2, 52826, Note_on_c, 0, 62, 0
2, 52831, Note_on_c, 0, 57, 0
2, 52851, Note_on_c, 0, 52, 0
2, 52856, Note_on_c, 0, 51, 34
2, 52857, Note_on_c, 0, 61, 33
2, 52857, Note_on_c, 0, 66, 29
2, 52859, Note_on_c, 0, 56, 19
2, 52888, Note_on_c, 0, 56, 0
2, 52893, Note_on_c, 0, 51, 0
2, 52893, Note_on_c, 0, 61, 0
2, 52896, Note_on_c, 0, 66, 0
2, 52896, Note_on_c, 0, 57, 42
2, 52898, Note_on_c, 0, 62, 40
2, 52898, Note_on_c, 0, 52, 32
2, 52898, Note_on_c, 0, 67, 46
2, 52938, Note_on_c, 0, 67, 0
2, 52946, Note_on_c, 0, 57, 0
2, 52946, Note_on_c, 0, 62, 0
2, 52971, Note_on_c, 0, 52, 0
2, 52974, Note_on_c, 0, 61, 37
2, 52975, Note_on_c, 0, 51, 34
2, 52976, Note_on_c, 0, 66, 29
2, 52981, Note_on_c, 0, 56, 18
2, 53007, Note_on_c, 0, 56, 0
2, 53011, Note_on_c, 0, 61, 0
2, 53012, Note_on_c, 0, 66, 0
2, 53014, Note_on_c, 0, 51, 0
2, 53015, Note_on_c, 0, 57, 39
2, 53016, Note_on_c, 0, 52, 36
2, 53018, Note_on_c, 0, 67, 32
2, 53019, Note_on_c, 0, 62, 32
2, 53022, Note_on_c, 0, 57, 0
2, 53024, Note_on_c, 0, 52, 0
2, 53026, Note_on_c, 0, 62, 0
2, 53027, Note_on_c, 0, 67, 0
2, 53074, Note_on_c, 0, 43, 38
2, 53076, Note_on_c, 0, 42, 35
2, 53090, Note_on_c, 0, 42, 0
2, 53281, Note_on_c, 0, 43, 0
2, 53436, Note_on_c, 0, 55, 53
2, 53437, Note_on_c, 0, 54, 38
2, 53442, Note_on_c, 0, 54, 0
2, 53442, Note_on_c, 0, 55, 0
2, 53552, Note_on_c, 0, 55, 70
2, 53555, Note_on_c, 0, 54, 40
2, 53561, Note_on_c, 0, 54, 0
2, 53561, Note_on_c, 0, 55, 0
2, 53621, Note_on_c, 0, 55, 53
2, 53626, Note_on_c, 0, 55, 0
2, 53641, Note_on_c, 0, 84, 95
2, 53670, Note_on_c, 0, 84, 0
2, 53677, Note_on_c, 0, 77, 58
2, 53694, Note_on_c, 0, 77, 0
2, 53738, Note_on_c, 0, 58, 37
2, 53744, Note_on_c, 0, 58, 0
2, 53859, Note_on_c, 0, 58, 51
2, 53860, Note_on_c, 0, 62, 39
2, 53864, Note_on_c, 0, 58, 0
2, 53866, Note_on_c, 0, 62, 0
2, 53879, Note_on_c, 0, 84, 103
2, 53909, Note_on_c, 0, 84, 0
2, 53913, Note_on_c, 0, 77, 50
2, 53927, Note_on_c, 0, 77, 0
2, 53972, Note_on_c, 0, 75, 60
2, 53977, Note_on_c, 0, 58, 33
2, 53978, Note_on_c, 0, 62, 26
2, 53978, Note_on_c, 0, 57, 25
2, 53983, Note_on_c, 0, 62, 0
2, 53985, Note_on_c, 0, 57, 0
2, 53985, Note_on_c, 0, 58, 0
2, 53989, Note_on_c, 0, 75, 0
2, 54057, Note_on_c, 0, 77, 74
2, 54085, Note_on_c, 0, 77, 0
2, 54093, Note_on_c, 0, 75, 35
2, 54108, Note_on_c, 0, 75, 0
2, 54118, Note_on_c, 0, 76, 44
2, 54145, Note_on_c, 0, 76, 0
2, 54152, Note_on_c, 0, 72, 49
2, 54166, Note_on_c, 0, 72, 0
2, 54179, Note_on_c, 0, 67, 28
2, 54208, Note_on_c, 0, 67, 0
2, 54241, Note_on_c, 0, 67, 34
2, 54258, Note_on_c, 0, 67, 0
2, 54300, Note_on_c, 0, 67, 38
2, 54322, Note_on_c, 0, 67, 0
2, 54361, Note_on_c, 0, 67, 37
2, 54382, Note_on_c, 0, 67, 0
2, 54602, Note_on_c, 0, 67, 54
2, 54628, Note_on_c, 0, 67, 0
2, 54641, Note_on_c, 0, 69, 24
2, 54647, Note_on_c, 0, 69, 0
2, 54662, Note_on_c, 0, 72, 39
2, 54692, Note_on_c, 0, 72, 0
2, 54696, Note_on_c, 0, 74, 66
2, 54717, Note_on_c, 0, 74, 0
2, 54723, Note_on_c, 0, 75, 53
2, 54754, Note_on_c, 0, 75, 0
2, 54763, Note_on_c, 0, 72, 27
2, 54771, Note_on_c, 0, 72, 0
2, 54783, Note_on_c, 0, 74, 67
2, 54814, Note_on_c, 0, 74, 0
2, 54814, Note_on_c, 0, 73, 43
2, 54831, Note_on_c, 0, 73, 0
2, 54842, Note_on_c, 0, 72, 27
2, 54869, Note_on_c, 0, 72, 0
2, 54876, Note_on_c, 0, 67, 47
2, 54885, Note_on_c, 0, 67, 0
2, 54955, Note_on_c, 0, 67, 41
2, 55049, Note_on_c, 0, 62, 53
2, 55052, Note_on_c, 0, 57, 48
2, 55053, Note_on_c, 0, 51, 33
2, 55054, Note_on_c, 0, 67, 0
2, 55139, Note_on_c, 0, 85, 78
2, 55139, Note_on_c, 0, 73, 74
2, 55159, Note_on_c, 0, 73, 0
2, 55164, Note_on_c, 0, 74, 57
2, 55165, Note_on_c, 0, 62, 0
2, 55166, Note_on_c, 0, 85, 0
2, 55169, Note_on_c, 0, 51, 0
2, 55176, Note_on_c, 0, 57, 0
2, 55190, Note_on_c, 0, 74, 0
2, 55192, Note_on_c, 0, 86, 53
2, 55208, Note_on_c, 0, 86, 0
2, 55208, Note_on_c, 0, 74, 34
2, 55227, Note_on_c, 0, 86, 34
2, 55236, Note_on_c, 0, 86, 0
2, 55236, Note_on_c, 0, 74, 0
2, 55315, Note_on_c, 0, 62, 49
2, 55317, Note_on_c, 0, 51, 32
2, 55318, Note_on_c, 0, 57, 40
2, 55328, Note_on_c, 0, 57, 0
2, 55329, Note_on_c, 0, 62, 0
2, 55334, Note_on_c, 0, 51, 0
2, 55414, Note_on_c, 0, 62, 49
2, 55415, Note_on_c, 0, 51, 37
2, 55416, Note_on_c, 0, 57, 46
2, 55424, Note_on_c, 0, 62, 0
2, 55425, Note_on_c, 0, 57, 0
2, 55429, Note_on_c, 0, 51, 0
2, 55473, Note_on_c, 0, 83, 51
2, 55483, Note_on_c, 0, 83, 0
2, 55533, Note_on_c, 0, 86, 74
2, 55537, Note_on_c, 0, 62, 56
2, 55540, Note_on_c, 0, 57, 46
2, 55543, Note_on_c, 0, 62, 0
2, 55548, Note_on_c, 0, 57, 0
2, 55549, Note_on_c, 0, 86, 0
2, 55561, Note_on_c, 0, 87, 39
2, 55584, Note_on_c, 0, 87, 0
2, 55590, Note_on_c, 0, 88, 69
2, 55591, Note_on_c, 0, 57, 71
2, 55592, Note_on_c, 0, 51, 67
2, 55592, Note_on_c, 0, 62, 75
2, 55592, Note_on_c, 0, 89, 65
2, 55598, Note_on_c, 0, 89, 0
2, 55609, Note_on_c, 0, 51, 0
2, 55609, Note_on_c, 0, 88, 0
2, 55612, Note_on_c, 0, 57, 0
2, 55618, Note_on_c, 0, 89, 74
2, 55620, Note_on_c, 0, 62, 0
2, 55637, Note_on_c, 0, 89, 0
2, 55649, Note_on_c, 0, 90, 82
2, 55665, Note_on_c, 0, 60, 38
2, 55666, Note_on_c, 0, 56, 50
2, 55668, Note_on_c, 0, 53, 42
2, 55669, Note_on_c, 0, 90, 0
2, 55675, Note_on_c, 0, 91, 75
2, 55710, Note_on_c, 0, 89, 57
2, 55712, Note_on_c, 0, 91, 0
2, 55723, Note_on_c, 0, 60, 0
2, 55724, Note_on_c, 0, 89, 0
2, 55725, Note_on_c, 0, 53, 0
2, 55730, Note_on_c, 0, 56, 0
2, 55750, Note_on_c, 0, 84, 24
2, 55757, Note_on_c, 0, 84, 0
2, 55765, Note_on_c, 0, 80, 57
2, 55772, Note_on_c, 0, 63, 42
2, 55773, Note_on_c, 0, 60, 28
2, 55781, Note_on_c, 0, 56, 31
2, 55787, Note_on_c, 0, 53, 11
2, 55794, Note_on_c, 0, 80, 0
2, 55796, Note_on_c, 0, 63, 0
2, 55828, Note_on_c, 0, 82, 75
2, 55846, Note_on_c, 0, 82, 0
2, 55849, Note_on_c, 0, 53, 0
2, 55852, Note_on_c, 0, 80, 70
2, 55861, Note_on_c, 0, 60, 0
2, 55867, Note_on_c, 0, 56, 0
2, 55875, Note_on_c, 0, 80, 0
2, 55886, Note_on_c, 0, 82, 35
2, 55894, Note_on_c, 0, 80, 58
2, 55901, Note_on_c, 0, 60, 32
2, 55903, Note_on_c, 0, 56, 35
2, 55913, Note_on_c, 0, 82, 0
2, 55918, Note_on_c, 0, 80, 0
2, 55920, Note_on_c, 0, 79, 30
2, 55924, Note_on_c, 0, 56, 0
2, 55937, Note_on_c, 0, 60, 0
2, 55942, Note_on_c, 0, 79, 0
2, 55953, Note_on_c, 0, 78, 54
2, 55974, Note_on_c, 0, 78, 0
2, 55980, Note_on_c, 0, 77, 26
2, 56001, Note_on_c, 0, 77, 0
2, 56012, Note_on_c, 0, 75, 39
2, 56022, Note_on_c, 0, 56, 31
2, 56023, Note_on_c, 0, 64, 34
2, 56025, Note_on_c, 0, 60, 20
2, 56031, Note_on_c, 0, 64, 0
2, 56033, Note_on_c, 0, 75, 0
2, 56039, Note_on_c, 0, 60, 0
2, 56039, Note_on_c, 0, 72, 41
2, 56078, Note_on_c, 0, 72, 0
2, 56082, Note_on_c, 0, 60, 39
2, 56093, Note_on_c, 0, 56, 0
2, 56097, Note_on_c, 0, 60, 0
2, 56097, Note_on_c, 0, 68, 69
2, 56153, Note_on_c, 0, 68, 0
2, 56157, Note_on_c, 0, 65, 32
2, 56157, Note_on_c, 0, 57, 37
2, 56159, Note_on_c, 0, 55, 34
2, 56160, Note_on_c, 0, 60, 36
2, 56163, Note_on_c, 0, 67, 41
2, 56188, Note_on_c, 0, 67, 0
2, 56197, Note_on_c, 0, 68, 39
2, 56218, Note_on_c, 0, 68, 0
2, 56220, Note_on_c, 0, 65, 0
2, 56223, Note_on_c, 0, 67, 33
2, 56227, Note_on_c, 0, 60, 0
2, 56253, Note_on_c, 0, 65, 33
2, 56257, Note_on_c, 0, 67, 0
2, 56260, Note_on_c, 0, 60, 25
2, 56261, Note_on_c, 0, 65, 0
2, 56270, Note_on_c, 0, 60, 0
2, 56274, Note_on_c, 0, 55, 0
2, 56280, Note_on_c, 0, 67, 68
2, 56283, Note_on_c, 0, 57, 0
2, 56308, Note_on_c, 0, 67, 0
2, 56317, Note_on_c, 0, 68, 53
2, 56318, Note_on_c, 0, 65, 38
2, 56327, Note_on_c, 0, 60, 20
2, 56328, Note_on_c, 0, 65, 0
2, 56335, Note_on_c, 0, 68, 0
2, 56337, Note_on_c, 0, 60, 0
2, 56341, Note_on_c, 0, 67, 47
2, 56370, Note_on_c, 0, 67, 0
2, 56398, Note_on_c, 0, 63, 46
2, 56400, Note_on_c, 0, 59, 42
2, 56402, Note_on_c, 0, 67, 66
2, 56429, Note_on_c, 0, 67, 0
2, 56436, Note_on_c, 0, 63, 0
2, 56437, Note_on_c, 0, 68, 47
2, 56451, Note_on_c, 0, 68, 0
2, 56464, Note_on_c, 0, 70, 51
2, 56468, Note_on_c, 0, 59, 0
2, 56480, Note_on_c, 0, 70, 0
2, 56495, Note_on_c, 0, 59, 46
2, 56496, Note_on_c, 0, 63, 47
2, 56498, Note_on_c, 0, 70, 69
2, 56502, Note_on_c, 0, 53, 24
2, 56519, Note_on_c, 0, 70, 0
2, 56520, Note_on_c, 0, 71, 57
2, 56524, Note_on_c, 0, 63, 0
2, 56532, Note_on_c, 0, 59, 0
2, 56535, Note_on_c, 0, 71, 0
2, 56539, Note_on_c, 0, 53, 0
2, 56553, Note_on_c, 0, 70, 64
2, 56555, Note_on_c, 0, 63, 43
2, 56557, Note_on_c, 0, 59, 40
2, 56559, Note_on_c, 0, 53, 17
2, 56575, Note_on_c, 0, 71, 57
2, 56576, Note_on_c, 0, 70, 0
2, 56582, Note_on_c, 0, 71, 0
2, 56584, Note_on_c, 0, 59, 0
2, 56598, Note_on_c, 0, 56, 25
2, 56599, Note_on_c, 0, 63, 0
2, 56602, Note_on_c, 0, 70, 68
2, 56604, Note_on_c, 0, 53, 0
2, 56616, Note_on_c, 0, 71, 62
2, 56619, Note_on_c, 0, 70, 0
2, 56620, Note_on_c, 0, 56, 0
2, 56630, Note_on_c, 0, 71, 0
2, 56644, Note_on_c, 0, 57, 38
2, 56644, Note_on_c, 0, 62, 33
2, 56647, Note_on_c, 0, 70, 60
2, 56651, Note_on_c, 0, 52, 26
2, 56671, Note_on_c, 0, 71, 53
2, 56672, Note_on_c, 0, 70, 0
2, 56682, Note_on_c, 0, 57, 0
2, 56696, Note_on_c, 0, 71, 0
2, 56699, Note_on_c, 0, 74, 70
2, 56710, Note_on_c, 0, 57, 24
2, 56730, Note_on_c, 0, 74, 0
2, 56736, Note_on_c, 0, 71, 51
2, 56766, Note_on_c, 0, 62, 0
2, 56779, Note_on_c, 0, 57, 0
2, 56785, Note_on_c, 0, 71, 0
2, 56789, Note_on_c, 0, 72, 53
2, 56797, Note_on_c, 0, 57, 37
2, 56813, Note_on_c, 0, 72, 0
2, 56816, Note_on_c, 0, 67, 36
2, 56826, Note_on_c, 0, 57, 0
2, 56863, Note_on_c, 0, 67, 0
2, 56864, Note_on_c, 0, 52, 0
2, 56873, Note_on_c, 0, 62, 48
2, 56925, Note_on_c, 0, 62, 0
2, 56933, Note_on_c, 0, 65, 49
2, 56967, Note_on_c, 0, 65, 0
2, 57035, Note_on_c, 0, 62, 36
2, 57036, Note_on_c, 0, 57, 43
2, 57042, Note_on_c, 0, 62, 0
2, 57043, Note_on_c, 0, 57, 0
2, 57112, Note_on_c, 0, 62, 48
2, 57115, Note_on_c, 0, 57, 46
2, 57119, Note_on_c, 0, 62, 0
2, 57122, Note_on_c, 0, 57, 0
2, 57478, Control_c, 0, 64, 127
2, 57523, Control_c, 0, 64, 0
2, 57598, Note_on_c, 0, 94, 81
2, 57599, Note_on_c, 0, 82, 81
2, 57600, Note_on_c, 0, 56, 71
2, 57600, Note_on_c, 0, 63, 65
2, 57600, Note_on_c, 0, 67, 69
2, 57601, Note_on_c, 0, 60, 48
2, 57601, Note_on_c, 0, 87, 68
2, 57620, Note_on_c, 0, 82, 0
2, 57623, Note_on_c, 0, 67, 0
2, 57623, Note_on_c, 0, 87, 0
2, 57626, Note_on_c, 0, 94, 0
2, 57628, Note_on_c, 0, 56, 0
2, 57629, Note_on_c, 0, 60, 0
2, 57635, Note_on_c, 0, 94, 65
2, 57636, Note_on_c, 0, 82, 46
2, 57638, Note_on_c, 0, 67, 52
2, 57640, Note_on_c, 0, 56, 43
2, 57640, Note_on_c, 0, 87, 53
2, 57642, Note_on_c, 0, 60, 53
2, 57648, Note_on_c, 0, 82, 0
2, 57649, Note_on_c, 0, 60, 0
2, 57651, Note_on_c, 0, 67, 0
2, 57651, Note_on_c, 0, 94, 0
2, 57658, Note_on_c, 0, 80, 44
2, 57660, Note_on_c, 0, 67, 31
2, 57661, Note_on_c, 0, 60, 15
2, 57680, Note_on_c, 0, 80, 0
2, 57680, Note_on_c, 0, 56, 0
2, 57681, Note_on_c, 0, 67, 0
2, 57681, Note_on_c, 0, 87, 0
2, 57683, Note_on_c, 0, 60, 0
2, 57690, Note_on_c, 0, 63, 0
2, 57720, Note_on_c, 0, 94, 67
2, 57722, Note_on_c, 0, 82, 48
2, 57723, Note_on_c, 0, 67, 54
2, 57723, Note_on_c, 0, 63, 35
2, 57724, Note_on_c, 0, 87, 46
2, 57725, Note_on_c, 0, 56, 40
2, 57726, Note_on_c, 0, 60, 39
2, 57740, Note_on_c, 0, 67, 0
2, 57740, Note_on_c, 0, 82, 0
2, 57741, Note_on_c, 0, 87, 0
2, 57741, Note_on_c, 0, 56, 0
2, 57744, Note_on_c, 0, 94, 0
2, 57746, Note_on_c, 0, 60, 0
2, 57747, Note_on_c, 0, 63, 0
2, 57780, Note_on_c, 0, 92, 43
2, 57780, Note_on_c, 0, 80, 36
2, 57782, Control_c, 0, 64, 127
2, 57783, Note_on_c, 0, 56, 50
2, 57783, Note_on_c, 0, 63, 36
2, 57784, Note_on_c, 0, 60, 29
2, 57785, Note_on_c, 0, 67, 32
2, 57798, Note_on_c, 0, 80, 0
2, 57800, Note_on_c, 0, 67, 0
2, 57801, Note_on_c, 0, 56, 0
2, 57802, Note_on_c, 0, 92, 0
2, 57806, Note_on_c, 0, 60, 0
2, 57808, Note_on_c, 0, 63, 0
2, 57816, Note_on_c, 0, 94, 67
2, 57818, Note_on_c, 0, 82, 38
2, 57819, Note_on_c, 0, 67, 45
2, 57820, Note_on_c, 0, 63, 46
2, 57820, Note_on_c, 0, 56, 54
2, 57821, Note_on_c, 0, 87, 48
2, 57821, Note_on_c, 0, 60, 52
2, 57830, Control_c, 0, 64, 0
2, 57833, Note_on_c, 0, 82, 0
2, 57835, Note_on_c, 0, 87, 0
2, 57835, Note_on_c, 0, 67, 0
2, 57837, Note_on_c, 0, 94, 0
2, 57841, Note_on_c, 0, 60, 0
2, 57847, Note_on_c, 0, 94, 62
2, 57848, Note_on_c, 0, 67, 65
2, 57848, Note_on_c, 0, 82, 46
2, 57849, Note_on_c, 0, 60, 31
2, 57850, Note_on_c, 0, 87, 59
2, 57856, Control_c, 0, 64, 127
2, 57870, Note_on_c, 0, 82, 0
2, 57871, Note_on_c, 0, 87, 0
2, 57874, Note_on_c, 0, 56, 0
2, 57875, Note_on_c, 0, 67, 0
2, 57877, Note_on_c, 0, 94, 0
2, 57877, Note_on_c, 0, 60, 0
2, 57882, Note_on_c, 0, 63, 0
2, 57885, Control_c, 0, 64, 0
2, 57890, Note_on_c, 0, 96, 70
2, 57891, Note_on_c, 0, 67, 47
2, 57891, Note_on_c, 0, 84, 57
2, 57891, Note_on_c, 0, 63, 44
2, 57892, Note_on_c, 0, 56, 47
2, 57892, Note_on_c, 0, 60, 47
2, 57897, Note_on_c, 0, 84, 0
2, 57900, Note_on_c, 0, 67, 0
2, 57900, Note_on_c, 0, 96, 0
2, 57900, Note_on_c, 0, 60, 0
2, 57906, Note_on_c, 0, 63, 0
2, 57907, Note_on_c, 0, 56, 0
2, 57940, Note_on_c, 0, 94, 72
2, 57941, Note_on_c, 0, 63, 63
2, 57941, Note_on_c, 0, 82, 62
2, 57942, Note_on_c, 0, 67, 61
2, 57942, Note_on_c, 0, 60, 42
2, 57945, Note_on_c, 0, 56, 31
2, 57948, Note_on_c, 0, 67, 0
2, 57950, Note_on_c, 0, 60, 0
2, 57951, Note_on_c, 0, 56, 0
2, 57952, Note_on_c, 0, 94, 0
2, 57952, Note_on_c, 0, 82, 0
2, 57954, Note_on_c, 0, 63, 0
2, 57998, Note_on_c, 0, 92, 72
2, 57998, Note_on_c, 0, 63, 55
2, 57998, Note_on_c, 0, 80, 64
2, 57998, Note_on_c, 0, 67, 62
2, 58000, Note_on_c, 0, 60, 43
2, 58000, Note_on_c, 0, 56, 55
2, 58012, Note_on_c, 0, 80, 0
2, 58013, Note_on_c, 0, 67, 0
2, 58017, Note_on_c, 0, 56, 0
2, 58019, Note_on_c, 0, 60, 0
2, 58022, Note_on_c, 0, 92, 0
2, 58026, Note_on_c, 0, 56, 29
2, 58028, Note_on_c, 0, 79, 29
2, 58029, Note_on_c, 0, 67, 45
2, 58030, Note_on_c, 0, 60, 34
2, 58033, Note_on_c, 0, 91, 13
2, 58059, Note_on_c, 0, 91, 0
2, 58063, Note_on_c, 0, 60, 0
2, 58064, Note_on_c, 0, 67, 0
2, 58065, Note_on_c, 0, 79, 0
2, 58066, Note_on_c, 0, 56, 0
2, 58066, Note_on_c, 0, 63, 0
2, 58129, Control_c, 0, 64, 127
2, 58195, Note_on_c, 0, 56, 78
2, 58196, Note_on_c, 0, 63, 73
2, 58196, Note_on_c, 0, 67, 83
2, 58196, Note_on_c, 0, 60, 63
2, 58197, Note_on_c, 0, 94, 90
2, 58197, Note_on_c, 0, 82, 94
2, 58198, Note_on_c, 0, 87, 81
2, 58205, Note_on_c, 0, 82, 0
2, 58217, Note_on_c, 0, 87, 0
2, 58218, Note_on_c, 0, 94, 0
2, 58220, Note_on_c, 0, 67, 0
2, 58220, Note_on_c, 0, 56, 0
2, 58225, Note_on_c, 0, 60, 0
2, 58229, Note_on_c, 0, 63, 0
2, 58230, Note_on_c, 0, 94, 57
2, 58232, Note_on_c, 0, 82, 64
2, 58235, Note_on_c, 0, 87, 58
2, 58236, Note_on_c, 0, 56, 48
2, 58236, Note_on_c, 0, 67, 54
2, 58237, Note_on_c, 0, 63, 31
2, 58238, Note_on_c, 0, 60, 52
2, 58242, Control_c, 0, 64, 0
2, 58244, Note_on_c, 0, 82, 0
2, 58245, Note_on_c, 0, 94, 0
2, 58250, Note_on_c, 0, 87, 0
2, 58264, Note_on_c, 0, 87, 15
2, 58271, Note_on_c, 0, 67, 0
2, 58272, Note_on_c, 0, 56, 0
2, 58273, Note_on_c, 0, 87, 0
2, 58278, Note_on_c, 0, 60, 0
2, 58281, Note_on_c, 0, 63, 0
2, 58288, Note_on_c, 0, 94, 83
2, 58289, Note_on_c, 0, 82, 82
2, 58290, Note_on_c, 0, 67, 71
2, 58290, Note_on_c, 0, 56, 71
2, 58291, Note_on_c, 0, 63, 64
2, 58291, Note_on_c, 0, 60, 64
2, 58291, Note_on_c, 0, 87, 69
2, 58358, Note_on_c, 0, 94, 0
2, 58361, Note_on_c, 0, 82, 0
2, 58364, Note_on_c, 0, 56, 0
2, 58366, Note_on_c, 0, 67, 0
2, 58366, Note_on_c, 0, 87, 0
2, 58368, Note_on_c, 0, 60, 0
2, 58374, Note_on_c, 0, 80, 51
2, 58374, Note_on_c, 0, 56, 48
2, 58374, Note_on_c, 0, 92, 54
2, 58375, Note_on_c, 0, 67, 57
2, 58377, Note_on_c, 0, 87, 46
2, 58378, Control_c, 0, 64, 127
2, 58379, Note_on_c, 0, 60, 38
2, 58385, Control_c, 0, 64, 0
2, 58387, Note_on_c, 0, 60, 0
2, 58389, Note_on_c, 0, 80, 0
2, 58391, Note_on_c, 0, 67, 0
2, 58393, Note_on_c, 0, 87, 0
2, 58394, Note_on_c, 0, 92, 0
2, 58396, Note_on_c, 0, 56, 0
2, 58401, Note_on_c, 0, 63, 0
2, 58431, Note_on_c, 0, 94, 79
2, 58432, Note_on_c, 0, 82, 75
2, 58433, Note_on_c, 0, 63, 59
2, 58433, Note_on_c, 0, 56, 68
2, 58434, Note_on_c, 0, 67, 62
2, 58434, Note_on_c, 0, 87, 65
2, 58435, Note_on_c, 0, 60, 49
2, 58436, Control_c, 0, 64, 127
2, 58449, Note_on_c, 0, 82, 0
2, 58450, Note_on_c, 0, 94, 0
2, 58455, Note_on_c, 0, 67, 0
2, 58455, Note_on_c, 0, 87, 0
2, 58458, Note_on_c, 0, 60, 0
2, 58460, Control_c, 0, 64, 0
2, 58462, Note_on_c, 0, 56, 0
2, 58462, Control_c, 0, 64, 127
2, 58482, Note_on_c, 0, 63, 0
2, 58490, Note_on_c, 0, 92, 77
2, 58491, Note_on_c, 0, 80, 73
2, 58491, Note_on_c, 0, 63, 54
2, 58492, Note_on_c, 0, 67, 74
2, 58492, Note_on_c, 0, 56, 71
2, 58492, Note_on_c, 0, 87, 69
2, 58493, Note_on_c, 0, 60, 53
2, 58497, Control_c, 0, 64, 0
2, 58499, Note_on_c, 0, 60, 0
2, 58500, Note_on_c, 0, 80, 0
2, 58500, Note_on_c, 0, 92, 0
2, 58500, Note_on_c, 0, 67, 0
2, 58501, Note_on_c, 0, 87, 0
2, 58504, Note_on_c, 0, 63, 0
2, 58511, Note_on_c, 0, 56, 0
2, 58619, Note_on_c, 0, 31, 80
2, 58619, Note_on_c, 0, 43, 84
2, 58620, Note_on_c, 0, 62, 78
2, 58620, Note_on_c, 0, 54, 85
2, 58620, Note_on_c, 0, 57, 80
2, 58622, Note_on_c, 0, 59, 74
2, 58732, Note_on_c, 0, 54, 0
2, 58741, Control_c, 0, 64, 127
2, 58747, Note_on_c, 0, 54, 36
2, 58755, Note_on_c, 0, 59, 0
2, 58757, Control_c, 0, 64, 0
2, 58763, Note_on_c, 0, 54, 0
2, 58764, Note_on_c, 0, 57, 0
2, 58770, Note_on_c, 0, 62, 0
2, 58781, Note_on_c, 0, 31, 0
2, 58786, Note_on_c, 0, 43, 0
2, 58806, Note_on_c, 0, 45, 74
2, 58806, Note_on_c, 0, 33, 70
2, 58806, Note_on_c, 0, 60, 63
2, 58807, Note_on_c, 0, 55, 75
2, 58808, Note_on_c, 0, 64, 63
2, 58871, Control_c, 0, 64, 127
2, 58876, Note_on_c, 0, 55, 0
2, 58880, Note_on_c, 0, 64, 0
2, 58883, Note_on_c, 0, 60, 0
2, 58891, Note_on_c, 0, 33, 0
2, 58891, Note_on_c, 0, 45, 0
2, 58908, Control_c, 0, 64, 0
2, 58909, Note_on_c, 0, 60, 66
2, 58909, Note_on_c, 0, 64, 60
2, 58910, Note_on_c, 0, 55, 69
2, 58911, Note_on_c, 0, 45, 68
2, 58913, Note_on_c, 0, 33, 54
2, 58976, Note_on_c, 0, 33, 0
2, 58987, Note_on_c, 0, 55, 0
2, 58987, Control_c, 0, 64, 127
2, 58992, Note_on_c, 0, 60, 0
2, 58997, Note_on_c, 0, 64, 0
2, 59016, Note_on_c, 0, 45, 0
2, 59024, Note_on_c, 0, 44, 48
2, 59027, Control_c, 0, 64, 0
2, 59028, Note_on_c, 0, 43, 36
2, 59035, Note_on_c, 0, 43, 0
2, 59035, Note_on_c, 0, 46, 46
2, 59040, Note_on_c, 0, 66, 67
2, 59041, Note_on_c, 0, 57, 65
2, 59042, Note_on_c, 0, 62, 71
2, 59043, Note_on_c, 0, 47, 66
2, 59045, Note_on_c, 0, 44, 0
2, 59056, Note_on_c, 0, 46, 0
2, 59063, Note_on_c, 0, 57, 0
2, 59066, Note_on_c, 0, 62, 0
2, 59068, Note_on_c, 0, 66, 0
2, 59075, Note_on_c, 0, 47, 0
2, 59086, Note_on_c, 0, 44, 25
2, 59100, Note_on_c, 0, 66, 57
2, 59100, Note_on_c, 0, 47, 48
2, 59101, Note_on_c, 0, 57, 58
2, 59102, Note_on_c, 0, 62, 62
2, 59105, Note_on_c, 0, 44, 0
2, 59122, Note_on_c, 0, 66, 0
2, 59127, Note_on_c, 0, 57, 0
2, 59136, Note_on_c, 0, 62, 0
2, 59139, Note_on_c, 0, 47, 0
2, 59142, Note_on_c, 0, 42, 37
2, 59159, Note_on_c, 0, 44, 23
2, 59162, Note_on_c, 0, 45, 48
2, 59163, Note_on_c, 0, 64, 39
2, 59164, Note_on_c, 0, 42, 0
2, 59164, Note_on_c, 0, 60, 36
2, 59166, Note_on_c, 0, 44, 0
2, 59166, Note_on_c, 0, 55, 27
2, 59173, Note_on_c, 0, 64, 0
2, 59174, Note_on_c, 0, 60, 0
2, 59184, Note_on_c, 0, 55, 0
2, 59200, Note_on_c, 0, 45, 0
2, 59206, Note_on_c, 0, 42, 33
2, 59221, Note_on_c, 0, 42, 0
2, 59222, Note_on_c, 0, 54, 34
2, 59223, Note_on_c, 0, 57, 48
2, 59224, Note_on_c, 0, 62, 43
2, 59225, Note_on_c, 0, 43, 37
2, 59229, Note_on_c, 0, 59, 40
2, 59277, Control_c, 0, 64, 127
2, 59339, Note_on_c, 0, 54, 0
2, 59343, Note_on_c, 0, 57, 0
2, 59348, Note_on_c, 0, 43, 0
2, 59355, Note_on_c, 0, 59, 0
2, 59358, Note_on_c, 0, 62, 0
2, 59486, Note_on_c, 0, 80, 48
2, 59496, Note_on_c, 0, 81, 51
2, 59503, Note_on_c, 0, 81, 0
2, 59505, Control_c, 0, 64, 0
2, 59510, Note_on_c, 0, 80, 0
2, 59510, Note_on_c, 0, 82, 62
2, 59512, Note_on_c, 0, 63, 33
2, 59513, Note_on_c, 0, 67, 33
2, 59513, Note_on_c, 0, 56, 46
2, 59515, Note_on_c, 0, 60, 34
2, 59568, Note_on_c, 0, 82, 0
2, 59571, Note_on_c, 0, 80, 32
2, 59601, Note_on_c, 0, 80, 0
2, 59609, Note_on_c, 0, 82, 48
2, 59622, Note_on_c, 0, 60, 0
2, 59624, Note_on_c, 0, 56, 0
2, 59624, Note_on_c, 0, 67, 0
2, 59625, Note_on_c, 0, 63, 0
2, 59629, Note_on_c, 0, 82, 0
2, 59669, Note_on_c, 0, 79, 36
2, 59680, Note_on_c, 0, 79, 0
2, 59695, Note_on_c, 0, 80, 31
2, 59719, Note_on_c, 0, 80, 0
2, 59726, Note_on_c, 0, 82, 59
2, 59730, Note_on_c, 0, 67, 48
2, 59732, Note_on_c, 0, 63, 34
2, 59736, Note_on_c, 0, 60, 20
2, 59737, Note_on_c, 0, 67, 0
2, 59743, Note_on_c, 0, 60, 0
2, 59746, Note_on_c, 0, 63, 0
2, 59746, Note_on_c, 0, 82, 0
2, 59758, Note_on_c, 0, 84, 51
2, 59776, Note_on_c, 0, 84, 0
2, 59790, Note_on_c, 0, 87, 77
2, 59795, Note_on_c, 0, 67, 59
2, 59795, Note_on_c, 0, 63, 55
2, 59797, Note_on_c, 0, 60, 36
2, 59802, Note_on_c, 0, 56, 23
2, 59810, Note_on_c, 0, 87, 0
2, 59818, Note_on_c, 0, 88, 72
2, 59842, Note_on_c, 0, 88, 0
2, 59845, Note_on_c, 0, 67, 0
2, 59848, Note_on_c, 0, 56, 0
2, 59849, Note_on_c, 0, 91, 85
2, 59851, Note_on_c, 0, 60, 0
2, 59853, Note_on_c, 0, 63, 0
2, 59870, Note_on_c, 0, 67, 37
2, 59873, Note_on_c, 0, 56, 27
2, 59874, Note_on_c, 0, 63, 36
2, 59875, Note_on_c, 0, 89, 62
2, 59879, Note_on_c, 0, 60, 25
2, 59882, Note_on_c, 0, 91, 0
2, 59904, Note_on_c, 0, 89, 0
2, 59904, Note_on_c, 0, 63, 0
2, 59905, Note_on_c, 0, 56, 0
2, 59905, Note_on_c, 0, 60, 0
2, 59906, Note_on_c, 0, 84, 68
2, 59918, Note_on_c, 0, 67, 0
2, 59926, Note_on_c, 0, 84, 0
2, 59934, Note_on_c, 0, 80, 25
2, 59953, Note_on_c, 0, 80, 0
2, 59992, Note_on_c, 0, 82, 60
2, 59993, Note_on_c, 0, 67, 33
2, 59995, Note_on_c, 0, 63, 32
2, 59995, Note_on_c, 0, 56, 28
2, 59996, Note_on_c, 0, 60, 37
2, 60048, Note_on_c, 0, 82, 0
2, 60058, Note_on_c, 0, 80, 53
2, 60066, Note_on_c, 0, 56, 0
2, 60066, Note_on_c, 0, 67, 0
2, 60068, Note_on_c, 0, 60, 0
2, 60073, Note_on_c, 0, 63, 0
2, 60077, Note_on_c, 0, 80, 0
2, 60092, Note_on_c, 0, 79, 64
2, 60092, Note_on_c, 0, 63, 32
2, 60093, Note_on_c, 0, 67, 35
2, 60095, Note_on_c, 0, 56, 31
2, 60100, Note_on_c, 0, 60, 24
2, 60126, Note_on_c, 0, 56, 0
2, 60129, Note_on_c, 0, 60, 0
2, 60134, Note_on_c, 0, 67, 0
2, 60136, Note_on_c, 0, 79, 0
2, 60137, Note_on_c, 0, 63, 0
2, 60143, Note_on_c, 0, 80, 49
2, 60158, Note_on_c, 0, 79, 36
2, 60166, Note_on_c, 0, 80, 0
2, 60170, Note_on_c, 0, 67, 32
2, 60173, Note_on_c, 0, 77, 43
2, 60173, Note_on_c, 0, 63, 34
2, 60174, Note_on_c, 0, 79, 0
2, 60174, Note_on_c, 0, 56, 32
2, 60177, Note_on_c, 0, 60, 30
2, 60191, Note_on_c, 0, 56, 0
2, 60193, Note_on_c, 0, 63, 0
2, 60195, Note_on_c, 0, 67, 0
2, 60196, Note_on_c, 0, 60, 0
2, 60197, Note_on_c, 0, 77, 0
2, 60236, Control_c, 0, 64, 127
2, 60265, Control_c, 0, 64, 0
2, 60270, Note_on_c, 0, 75, 60
2, 60272, Note_on_c, 0, 56, 30
2, 60272, Note_on_c, 0, 67, 25
2, 60274, Note_on_c, 0, 63, 27
2, 60275, Note_on_c, 0, 60, 33
2, 60293, Note_on_c, 0, 75, 0
2, 60298, Note_on_c, 0, 72, 36
2, 60310, Note_on_c, 0, 67, 0
2, 60324, Note_on_c, 0, 63, 0
2, 60346, Note_on_c, 0, 72, 0
2, 60355, Control_c, 0, 64, 127
2, 60357, Note_on_c, 0, 63, 30
2, 60358, Note_on_c, 0, 70, 33
2, 60367, Note_on_c, 0, 56, 0
2, 60368, Note_on_c, 0, 63, 0
2, 60371, Note_on_c, 0, 60, 0
2, 60377, Note_on_c, 0, 70, 0
2, 60416, Control_c, 0, 64, 0
2, 60507, Note_on_c, 0, 67, 49
2, 60509, Note_on_c, 0, 43, 40
2, 60529, Note_on_c, 0, 43, 0
2, 60529, Note_on_c, 0, 67, 0
2, 60564, Note_on_c, 0, 38, 48
2, 60566, Note_on_c, 0, 62, 31
2, 60577, Note_on_c, 0, 62, 0
2, 60589, Note_on_c, 0, 38, 0
2, 60594, Note_on_c, 0, 41, 37
2, 60596, Note_on_c, 0, 65, 36
2, 60627, Note_on_c, 0, 41, 0
2, 60628, Note_on_c, 0, 65, 0
2, 60632, Note_on_c, 0, 67, 64
2, 60635, Note_on_c, 0, 43, 32
2, 60643, Note_on_c, 0, 43, 0
2, 60644, Note_on_c, 0, 67, 0
2, 60687, Note_on_c, 0, 72, 81
2, 60689, Note_on_c, 0, 48, 87
2, 60691, Note_on_c, 0, 47, 75
2, 60701, Note_on_c, 0, 47, 0
2, 60769, Note_on_c, 0, 72, 0
2, 60775, Note_on_c, 0, 71, 50
2, 60776, Note_on_c, 0, 48, 0
2, 60777, Note_on_c, 0, 47, 37
2, 60810, Note_on_c, 0, 47, 0
2, 60814, Note_on_c, 0, 71, 0
2, 60819, Note_on_c, 0, 43, 32
2, 60821, Note_on_c, 0, 67, 25
2, 60832, Note_on_c, 0, 67, 0
2, 60836, Note_on_c, 0, 43, 0
2, 60840, Note_on_c, 0, 48, 53
2, 60840, Note_on_c, 0, 72, 55
2, 60889, Note_on_c, 0, 72, 0
2, 60890, Note_on_c, 0, 48, 0
2, 60894, Note_on_c, 0, 47, 37
2, 60894, Note_on_c, 0, 71, 50
2, 60919, Note_on_c, 0, 47, 0
2, 60920, Note_on_c, 0, 71, 0
2, 60954, Note_on_c, 0, 67, 40
2, 60957, Note_on_c, 0, 43, 38
2, 60979, Note_on_c, 0, 67, 0
2, 60980, Note_on_c, 0, 43, 0
2, 61415, Note_on_c, 0, 67, 33
2, 61431, Note_on_c, 0, 67, 0
2, 61438, Note_on_c, 0, 62, 54
2, 61438, Note_on_c, 0, 74, 66
2, 61443, Note_on_c, 0, 62, 0
2, 61528, Note_on_c, 0, 74, 0
2, 61536, Note_on_c, 0, 71, 45
2, 61537, Note_on_c, 0, 62, 47
2, 61542, Note_on_c, 0, 62, 0
2, 61543, Note_on_c, 0, 57, 29
2, 61551, Note_on_c, 0, 57, 0
2, 61556, Note_on_c, 0, 71, 0
2, 61564, Note_on_c, 0, 67, 26
2, 61614, Note_on_c, 0, 67, 0
2, 61620, Note_on_c, 0, 62, 43
2, 61645, Note_on_c, 0, 62, 0
2, 61717, Note_on_c, 0, 63, 55
2, 61722, Note_on_c, 0, 58, 37
2, 61728, Note_on_c, 0, 58, 0
2, 61731, Note_on_c, 0, 63, 0
2, 61802, Note_on_c, 0, 57, 40
2, 61803, Note_on_c, 0, 62, 36
2, 61804, Note_on_c, 0, 52, 29
2, 61812, Note_on_c, 0, 62, 0
2, 61815, Note_on_c, 0, 52, 0
2, 61815, Note_on_c, 0, 57, 0
2, 61894, Note_on_c, 0, 62, 55
2, 61898, Note_on_c, 0, 57, 38
2, 61901, Note_on_c, 0, 62, 0
2, 61902, Note_on_c, 0, 52, 18
2, 61906, Note_on_c, 0, 57, 0
2, 61908, Note_on_c, 0, 52, 0
2, 61962, Note_on_c, 0, 62, 57
2, 61965, Note_on_c, 0, 57, 40
2, 61968, Note_on_c, 0, 62, 0
2, 61972, Note_on_c, 0, 57, 0
2, 61982, Note_on_c, 0, 81, 28
2, 61998, Note_on_c, 0, 82, 37
2, 62003, Note_on_c, 0, 81, 0
2, 62011, Note_on_c, 0, 82, 0
2, 62024, Note_on_c, 0, 86, 73
2, 62025, Note_on_c, 0, 74, 68
2, 62039, Note_on_c, 0, 74, 0
2, 62041, Note_on_c, 0, 86, 0
2, 62048, Note_on_c, 0, 86, 62
2, 62049, Note_on_c, 0, 74, 60
2, 62076, Note_on_c, 0, 86, 0
2, 62079, Note_on_c, 0, 74, 0
2, 62089, Note_on_c, 0, 62, 41
2, 62093, Note_on_c, 0, 57, 31
2, 62095, Note_on_c, 0, 62, 0
2, 62096, Note_on_c, 0, 86, 76
2, 62097, Note_on_c, 0, 74, 68
2, 62100, Note_on_c, 0, 57, 0
2, 62136, Note_on_c, 0, 86, 0
2, 62138, Note_on_c, 0, 74, 0
2, 62144, Note_on_c, 0, 57, 33
2, 62153, Note_on_c, 0, 57, 0
2, 62155, Note_on_c, 0, 86, 57
2, 62156, Note_on_c, 0, 74, 58
2, 62212, Control_c, 0, 64, 127
2, 62258, Note_on_c, 0, 62, 34
2, 62264, Note_on_c, 0, 62, 0
2, 62313, Note_on_c, 0, 86, 0
2, 62314, Note_on_c, 0, 74, 0
2, 62332, Control_c, 0, 64, 0
2, 62338, Note_on_c, 0, 75, 69
2, 62339, Note_on_c, 0, 87, 71
2, 62397, Note_on_c, 0, 67, 40
2, 62399, Note_on_c, 0, 63, 34
2, 62401, Control_c, 0, 64, 127
2, 62401, Note_on_c, 0, 62, 37
2, 62402, Note_on_c, 0, 58, 31
2, 62473, Note_on_c, 0, 75, 0
2, 62475, Note_on_c, 0, 62, 0
2, 62477, Note_on_c, 0, 67, 0
2, 62478, Note_on_c, 0, 58, 0
2, 62481, Note_on_c, 0, 87, 0
2, 62484, Note_on_c, 0, 63, 0
2, 62497, Note_on_c, 0, 89, 74
2, 62497, Note_on_c, 0, 67, 54
2, 62498, Control_c, 0, 64, 0
2, 62498, Note_on_c, 0, 77, 66
2, 62499, Note_on_c, 0, 63, 45
2, 62499, Note_on_c, 0, 58, 43
2, 62500, Note_on_c, 0, 62, 38
2, 62524, Control_c, 0, 64, 127
2, 62526, Control_c, 0, 64, 0
2, 62532, Control_c, 0, 64, 127
2, 62548, Note_on_c, 0, 89, 0
2, 62561, Note_on_c, 0, 77, 0
2, 62563, Note_on_c, 0, 67, 0
2, 62563, Note_on_c, 0, 58, 0
2, 62568, Note_on_c, 0, 62, 0
2, 62568, Note_on_c, 0, 63, 0
2, 62580, Note_on_c, 0, 86, 60
2, 62581, Control_c, 0, 64, 0
2, 62581, Note_on_c, 0, 74, 58
2, 62582, Note_on_c, 0, 67, 38
2, 62583, Note_on_c, 0, 63, 31
2, 62584, Note_on_c, 0, 58, 25
2, 62584, Note_on_c, 0, 62, 33
2, 62587, Note_on_c, 0, 85, 29
2, 62597, Note_on_c, 0, 85, 0
2, 62605, Note_on_c, 0, 86, 0
2, 62605, Note_on_c, 0, 74, 0
2, 62609, Note_on_c, 0, 58, 0
2, 62609, Note_on_c, 0, 67, 0
2, 62611, Note_on_c, 0, 62, 0
2, 62616, Note_on_c, 0, 63, 0
2, 62674, Note_on_c, 0, 67, 40
2, 62678, Note_on_c, 0, 63, 25
2, 62683, Note_on_c, 0, 67, 0
2, 62687, Note_on_c, 0, 63, 0
2, 62761, Note_on_c, 0, 67, 57
2, 62762, Note_on_c, 0, 63, 50
2, 62763, Note_on_c, 0, 62, 53
2, 62763, Note_on_c, 0, 101, 92
2, 62765, Note_on_c, 0, 58, 31
2, 62778, Note_on_c, 0, 58, 0
2, 62781, Note_on_c, 0, 67, 0
2, 62788, Note_on_c, 0, 63, 0
2, 62795, Note_on_c, 0, 101, 0
2, 62799, Note_on_c, 0, 98, 52
2, 62804, Note_on_c, 0, 62, 0
2, 62815, Note_on_c, 0, 98, 0
2, 62831, Note_on_c, 0, 99, 29
2, 62850, Note_on_c, 0, 99, 0
2, 62858, Note_on_c, 0, 67, 55
2, 62859, Note_on_c, 0, 101, 72
2, 62861, Note_on_c, 0, 63, 39
2, 62867, Note_on_c, 0, 67, 0
2, 62880, Note_on_c, 0, 101, 0
2, 62884, Note_on_c, 0, 63, 0
2, 62887, Note_on_c, 0, 95, 45
2, 62920, Note_on_c, 0, 98, 68
2, 62922, Note_on_c, 0, 95, 0
2, 62925, Note_on_c, 0, 63, 25
2, 62935, Note_on_c, 0, 63, 0
2, 62948, Note_on_c, 0, 96, 45
2, 62950, Note_on_c, 0, 98, 0
2, 62974, Note_on_c, 0, 96, 0
2, 62976, Note_on_c, 0, 91, 59
2, 62981, Note_on_c, 0, 67, 45
2, 62986, Note_on_c, 0, 63, 23
2, 62989, Note_on_c, 0, 67, 0
2, 62992, Note_on_c, 0, 91, 0
2, 63000, Note_on_c, 0, 63, 0
2, 63003, Note_on_c, 0, 89, 47
2, 63028, Note_on_c, 0, 89, 0
2, 63062, Note_on_c, 0, 86, 28
2, 63087, Note_on_c, 0, 86, 0
2, 63097, Note_on_c, 0, 89, 72
2, 63102, Note_on_c, 0, 62, 64
2, 63108, Note_on_c, 0, 62, 0
2, 63120, Note_on_c, 0, 89, 0
2, 63127, Note_on_c, 0, 87, 50
2, 63152, Note_on_c, 0, 87, 0
2, 63158, Note_on_c, 0, 79, 34
2, 63172, Note_on_c, 0, 79, 0
2, 63186, Note_on_c, 0, 79, 29
2, 63203, Note_on_c, 0, 79, 0
2, 63215, Note_on_c, 0, 86, 74
2, 63244, Note_on_c, 0, 77, 39
2, 63246, Note_on_c, 0, 86, 0
2, 63262, Note_on_c, 0, 77, 0
2, 63276, Note_on_c, 0, 77, 47
2, 63290, Note_on_c, 0, 77, 0
2, 63297, Note_on_c, 0, 84, 74
2, 63323, Note_on_c, 0, 84, 0
2, 63330, Note_on_c, 0, 75, 59
2, 63344, Note_on_c, 0, 75, 0
2, 63354, Note_on_c, 0, 75, 54
2, 63379, Note_on_c, 0, 75, 0
2, 63392, Note_on_c, 0, 80, 62
2, 63394, Note_on_c, 0, 60, 32
2, 63396, Note_on_c, 0, 63, 25
2, 63401, Note_on_c, 0, 63, 0
2, 63401, Note_on_c, 0, 60, 0
2, 63423, Note_on_c, 0, 80, 0
2, 63423, Note_on_c, 0, 72, 20
2, 63439, Note_on_c, 0, 72, 0
2, 63452, Note_on_c, 0, 72, 53
2, 63466, Note_on_c, 0, 72, 0
2, 63476, Note_on_c, 0, 80, 55
2, 63497, Note_on_c, 0, 80, 0
2, 63510, Note_on_c, 0, 68, 63
2, 63517, Note_on_c, 0, 60, 28
2, 63522, Note_on_c, 0, 56, 27
2, 63532, Note_on_c, 0, 68, 0
2, 63537, Note_on_c, 0, 60, 0
2, 63543, Note_on_c, 0, 67, 44
2, 63549, Note_on_c, 0, 56, 0
2, 63572, Note_on_c, 0, 67, 0
2, 63656, Note_on_c, 0, 63, 45
2, 63657, Note_on_c, 0, 60, 33
2, 63660, Note_on_c, 0, 56, 35
2, 63674, Note_on_c, 0, 60, 0
2, 63675, Note_on_c, 0, 63, 0
2, 63713, Note_on_c, 0, 56, 0
2, 63721, Note_on_c, 0, 67, 96
2, 63754, Note_on_c, 0, 67, 0
2, 63760, Note_on_c, 0, 68, 37
2, 63764, Note_on_c, 0, 60, 24
2, 63768, Note_on_c, 0, 67, 36
2, 63776, Note_on_c, 0, 60, 0
2, 63777, Note_on_c, 0, 68, 0
2, 63786, Note_on_c, 0, 67, 0
2, 63786, Note_on_c, 0, 65, 43
2, 63802, Note_on_c, 0, 65, 0
2, 63823, Note_on_c, 0, 67, 80
2, 63824, Note_on_c, 0, 65, 63
2, 63827, Note_on_c, 0, 60, 31
2, 63827, Note_on_c, 0, 56, 37
2, 63827, Note_on_c, 0, 55, 32
2, 63831, Note_on_c, 0, 65, 0
2, 63834, Note_on_c, 0, 60, 0
2, 63835, Note_on_c, 0, 55, 0
2, 63843, Note_on_c, 0, 67, 0
2, 63845, Note_on_c, 0, 56, 0
2, 63959, Note_on_c, 0, 68, 44
2, 63960, Note_on_c, 0, 55, 36
2, 63963, Note_on_c, 0, 63, 51
2, 63964, Note_on_c, 0, 60, 42
2, 63981, Note_on_c, 0, 68, 0
2, 63998, Control_c, 0, 64, 127
2, 64001, Note_on_c, 0, 55, 0
2, 64001, Note_on_c, 0, 70, 68
2, 64003, Note_on_c, 0, 56, 58
2, 64013, Note_on_c, 0, 63, 0
2, 64015, Note_on_c, 0, 60, 0
2, 64021, Control_c, 0, 64, 0
2, 64022, Note_on_c, 0, 70, 0
2, 64036, Note_on_c, 0, 56, 0
2, 64045, Note_on_c, 0, 72, 62
2, 64047, Note_on_c, 0, 58, 42
2, 64058, Note_on_c, 0, 72, 0
2, 64062, Note_on_c, 0, 58, 0
2, 64085, Note_on_c, 0, 73, 64
2, 64088, Note_on_c, 0, 75, 64
2, 64089, Note_on_c, 0, 65, 51
2, 64089, Note_on_c, 0, 60, 42
2, 64093, Note_on_c, 0, 67, 37
2, 64100, Note_on_c, 0, 67, 0
2, 64109, Note_on_c, 0, 73, 0
2, 64114, Note_on_c, 0, 75, 0
2, 64118, Note_on_c, 0, 65, 0
2, 64118, Note_on_c, 0, 60, 0
2, 64171, Note_on_c, 0, 72, 58
2, 64171, Note_on_c, 0, 65, 70
2, 64174, Note_on_c, 0, 58, 44
2, 64186, Note_on_c, 0, 72, 0
2, 64191, Note_on_c, 0, 65, 0
2, 64201, Note_on_c, 0, 58, 0
2, 64206, Note_on_c, 0, 56, 37
2, 64207, Note_on_c, 0, 65, 38
2, 64208, Note_on_c, 0, 70, 42
2, 64209, Note_on_c, 0, 60, 34
2, 64217, Note_on_c, 0, 65, 0
2, 64221, Note_on_c, 0, 60, 0
2, 64221, Note_on_c, 0, 70, 0
2, 64231, Note_on_c, 0, 56, 0
2, 64243, Note_on_c, 0, 55, 48
2, 64245, Note_on_c, 0, 68, 40
2, 64248, Note_on_c, 0, 63, 26
2, 64253, Note_on_c, 0, 68, 0
2, 64255, Note_on_c, 0, 63, 0
2, 64255, Note_on_c, 0, 55, 0
2, 64292, Note_on_c, 0, 57, 43
2, 64293, Note_on_c, 0, 67, 44
2, 64294, Note_on_c, 0, 62, 42
2, 64296, Note_on_c, 0, 52, 41
2, 64304, Note_on_c, 0, 57, 0
2, 64308, Note_on_c, 0, 62, 0
2, 64309, Note_on_c, 0, 67, 0
2, 64311, Note_on_c, 0, 52, 0
2, 64350, Note_on_c, 0, 66, 42
2, 64350, Note_on_c, 0, 51, 44
2, 64350, Note_on_c, 0, 61, 46
2, 64350, Note_on_c, 0, 56, 47
2, 64366, Note_on_c, 0, 61, 0
2, 64368, Note_on_c, 0, 56, 0
2, 64368, Note_on_c, 0, 66, 0
2, 64370, Note_on_c, 0, 51, 0
2, 64376, Note_on_c, 0, 67, 40
2, 64377, Note_on_c, 0, 57, 28
2, 64377, Note_on_c, 0, 52, 29
2, 64379, Note_on_c, 0, 62, 36
2, 64393, Note_on_c, 0, 67, 0
2, 64402, Note_on_c, 0, 57, 0
2, 64402, Note_on_c, 0, 62, 0
2, 64431, Note_on_c, 0, 52, 0
2, 64435, Note_on_c, 0, 56, 48
2, 64436, Note_on_c, 0, 51, 39
2, 64436, Note_on_c, 0, 61, 37
2, 64438, Note_on_c, 0, 66, 35
2, 64471, Note_on_c, 0, 56, 0
2, 64475, Note_on_c, 0, 61, 0
2, 64475, Note_on_c, 0, 52, 49
2, 64476, Note_on_c, 0, 57, 45
2, 64477, Note_on_c, 0, 66, 0
2, 64480, Note_on_c, 0, 62, 33
2, 64480, Note_on_c, 0, 67, 32
2, 64481, Note_on_c, 0, 52, 0
2, 64483, Note_on_c, 0, 57, 0
2, 64483, Note_on_c, 0, 51, 0
2, 64486, Note_on_c, 0, 62, 0
2, 64488, Note_on_c, 0, 67, 0
2, 64533, Note_on_c, 0, 43, 66
2, 64539, Note_on_c, 0, 42, 38
2, 64552, Note_on_c, 0, 43, 0
2, 64553, Note_on_c, 0, 42, 0
2, 64594, Note_on_c, 0, 43, 62
2, 64608, Note_on_c, 0, 43, 0
2, 64679, Note_on_c, 0, 60, 74
2, 64878, Note_on_c, 0, 60, 0
2, 65072, Note_on_c, 0, 66, 69
2, 65098, Note_on_c, 0, 66, 0
2, 65100, Note_on_c, 0, 67, 51
2, 65129, Note_on_c, 0, 67, 0
2, 65133, Note_on_c, 0, 79, 71
2, 65157, Note_on_c, 0, 79, 0
2, 65163, Note_on_c, 0, 66, 36
2, 65187, Note_on_c, 0, 66, 0
2, 65189, Note_on_c, 0, 67, 56
2, 65207, Note_on_c, 0, 67, 0
2, 65213, Note_on_c, 0, 80, 79
2, 65239, Note_on_c, 0, 80, 0
2, 65252, Note_on_c, 0, 66, 45
2, 65277, Note_on_c, 0, 66, 0
2, 65281, Note_on_c, 0, 67, 37
2, 65302, Note_on_c, 0, 67, 0
2, 65310, Note_on_c, 0, 79, 73
2, 65334, Note_on_c, 0, 79, 0
2, 65336, Note_on_c, 0, 77, 45
2, 65372, Note_on_c, 0, 77, 0
2, 65395, Note_on_c, 0, 75, 70
2, 65409, Note_on_c, 0, 76, 58
2, 65411, Note_on_c, 0, 75, 0
2, 65446, Note_on_c, 0, 76, 0
2, 65455, Note_on_c, 0, 72, 60
2, 65479, Note_on_c, 0, 72, 0
2, 65492, Note_on_c, 0, 67, 35
2, 65503, Note_on_c, 0, 67, 0
2, 65518, Note_on_c, 0, 74, 58
2, 65518, Note_on_c, 0, 57, 36
2, 65522, Note_on_c, 0, 52, 24
2, 65533, Note_on_c, 0, 52, 0
2, 65536, Note_on_c, 0, 57, 0
2, 65567, Note_on_c, 0, 74, 0
2, 65575, Note_on_c, 0, 72, 63
2, 65607, Note_on_c, 0, 72, 0
2, 65648, Note_on_c, 0, 71, 67
2, 65672, Note_on_c, 0, 71, 0
2, 65680, Note_on_c, 0, 67, 56
2, 65697, Note_on_c, 0, 67, 0
2, 65705, Note_on_c, 0, 64, 44
2, 65740, Note_on_c, 0, 64, 0
2, 65760, Note_on_c, 0, 64, 47
2, 65792, Note_on_c, 0, 64, 0
2, 65821, Note_on_c, 0, 64, 42
2, 65847, Note_on_c, 0, 64, 0
2, 65917, Note_on_c, 0, 62, 45
2, 65920, Note_on_c, 0, 52, 32
2, 65920, Note_on_c, 0, 57, 41
2, 65928, Note_on_c, 0, 57, 0
2, 65930, Note_on_c, 0, 62, 0
2, 65932, Note_on_c, 0, 52, 0
2, 65997, Note_on_c, 0, 62, 34
2, 65998, Note_on_c, 0, 52, 30
2, 66000, Note_on_c, 0, 57, 38
2, 66009, Note_on_c, 0, 57, 0
2, 66012, Note_on_c, 0, 62, 0
2, 66013, Note_on_c, 0, 52, 0
2, 66089, Note_on_c, 0, 62, 44
2, 66091, Note_on_c, 0, 57, 50
2, 66093, Note_on_c, 0, 52, 31
2, 66106, Note_on_c, 0, 62, 0
2, 66109, Note_on_c, 0, 52, 0
2, 66110, Note_on_c, 0, 57, 0
2, 66171, Note_on_c, 0, 62, 45
2, 66172, Note_on_c, 0, 52, 33
2, 66175, Note_on_c, 0, 57, 40
2, 66183, Note_on_c, 0, 57, 0
2, 66183, Note_on_c, 0, 62, 0
2, 66186, Note_on_c, 0, 52, 0
2, 66296, Note_on_c, 0, 62, 46
2, 66298, Note_on_c, 0, 51, 33
2, 66298, Note_on_c, 0, 57, 46
2, 66311, Note_on_c, 0, 57, 0
2, 66312, Note_on_c, 0, 62, 0
2, 66328, Note_on_c, 0, 51, 0
2, 66389, Note_on_c, 0, 62, 44
2, 66390, Note_on_c, 0, 51, 33
2, 66392, Note_on_c, 0, 57, 42
2, 66404, Note_on_c, 0, 57, 0
2, 66406, Note_on_c, 0, 62, 0
2, 66415, Note_on_c, 0, 51, 0
2, 66452, Note_on_c, 0, 62, 48
2, 66455, Note_on_c, 0, 51, 32
2, 66458, Note_on_c, 0, 57, 33
2, 66459, Note_on_c, 0, 62, 0
2, 66468, Note_on_c, 0, 57, 0
2, 66478, Note_on_c, 0, 51, 0
2, 66478, Note_on_c, 0, 65, 68
2, 66505, Note_on_c, 0, 65, 0
2, 66513, Note_on_c, 0, 62, 36
2, 66539, Note_on_c, 0, 62, 0
2, 66546, Note_on_c, 0, 63, 36
2, 66566, Note_on_c, 0, 63, 0
2, 66573, Note_on_c, 0, 62, 34
2, 66573, Note_on_c, 0, 51, 31
2, 66574, Note_on_c, 0, 65, 65
2, 66578, Note_on_c, 0, 57, 22
2, 66582, Note_on_c, 0, 62, 0
2, 66591, Note_on_c, 0, 65, 0
2, 66595, Note_on_c, 0, 51, 0
2, 66596, Note_on_c, 0, 57, 0
2, 66604, Note_on_c, 0, 67, 55
2, 66623, Note_on_c, 0, 67, 0
2, 66634, Note_on_c, 0, 69, 49
2, 66655, Note_on_c, 0, 69, 0
2, 66661, Note_on_c, 0, 70, 50
2, 66690, Note_on_c, 0, 70, 0
2, 66695, Note_on_c, 0, 71, 68
2, 66711, Note_on_c, 0, 71, 0
2, 66722, Note_on_c, 0, 74, 87
2, 66753, Note_on_c, 0, 74, 0
2, 66756, Note_on_c, 0, 57, 33
2, 66758, Note_on_c, 0, 71, 55
2, 66767, Note_on_c, 0, 71, 0
2, 66769, Note_on_c, 0, 57, 0
2, 66783, Note_on_c, 0, 72, 36
2, 66805, Note_on_c, 0, 72, 0
2, 66813, Note_on_c, 0, 74, 66
2, 66814, Note_on_c, 0, 62, 50
2, 66818, Note_on_c, 0, 57, 37
2, 66821, Note_on_c, 0, 62, 0
2, 66827, Note_on_c, 0, 57, 0
2, 66833, Note_on_c, 0, 74, 0
2, 66837, Note_on_c, 0, 75, 46
2, 66857, Note_on_c, 0, 75, 0
2, 66871, Note_on_c, 0, 79, 55
2, 66872, Note_on_c, 0, 62, 24
2, 66873, Note_on_c, 0, 57, 32
2, 66880, Note_on_c, 0, 62, 0
2, 66886, Note_on_c, 0, 57, 0
2, 66899, Note_on_c, 0, 79, 0
2, 66901, Note_on_c, 0, 83, 49
2, 66921, Note_on_c, 0, 83, 0
2, 66929, Note_on_c, 0, 86, 83
2, 66935, Note_on_c, 0, 62, 25
2, 66942, Note_on_c, 0, 62, 0
2, 66958, Note_on_c, 0, 84, 64
2, 66961, Note_on_c, 0, 86, 0
2, 66980, Note_on_c, 0, 84, 0
2, 66992, Note_on_c, 0, 79, 53
2, 66993, Note_on_c, 0, 57, 36
2, 67000, Note_on_c, 0, 79, 0
2, 67007, Note_on_c, 0, 57, 0
2, 67016, Note_on_c, 0, 86, 87
2, 67045, Note_on_c, 0, 86, 0
2, 67052, Note_on_c, 0, 83, 36
2, 67061, Note_on_c, 0, 83, 0
2, 67077, Note_on_c, 0, 84, 87
2, 67105, Note_on_c, 0, 83, 66
2, 67112, Note_on_c, 0, 57, 45
2, 67113, Note_on_c, 0, 84, 0
2, 67113, Note_on_c, 0, 62, 30
2, 67116, Note_on_c, 0, 51, 17
2, 67120, Note_on_c, 0, 62, 0
2, 67129, Note_on_c, 0, 83, 0
2, 67131, Note_on_c, 0, 57, 0
2, 67135, Note_on_c, 0, 80, 51
2, 67142, Note_on_c, 0, 51, 0
2, 67167, Note_on_c, 0, 80, 0
2, 67170, Note_on_c, 0, 77, 36
2, 67181, Note_on_c, 0, 77, 0
2, 67191, Note_on_c, 0, 82, 67
2, 67225, Note_on_c, 0, 82, 0
2, 67225, Note_on_c, 0, 80, 52
2, 67230, Note_on_c, 0, 60, 35
2, 67234, Note_on_c, 0, 63, 25
2, 67240, Note_on_c, 0, 63, 0
2, 67241, Note_on_c, 0, 60, 0
2, 67243, Note_on_c, 0, 80, 0
2, 67256, Note_on_c, 0, 82, 84
2, 67284, Note_on_c, 0, 80, 51
2, 67292, Note_on_c, 0, 82, 0
2, 67309, Note_on_c, 0, 80, 0
2, 67318, Note_on_c, 0, 79, 32
2, 67343, Note_on_c, 0, 79, 0
2, 67346, Note_on_c, 0, 77, 68
2, 67358, Note_on_c, 0, 67, 41
2, 67358, Note_on_c, 0, 63, 33
2, 67361, Note_on_c, 0, 77, 0
2, 67367, Note_on_c, 0, 67, 0
2, 67375, Note_on_c, 0, 75, 27
2, 67386, Note_on_c, 0, 63, 0
2, 67415, Note_on_c, 0, 74, 35
2, 67416, Note_on_c, 0, 75, 0
2, 67424, Note_on_c, 0, 74, 0
2, 67432, Note_on_c, 0, 77, 76
2, 67468, Note_on_c, 0, 77, 0
2, 67472, Note_on_c, 0, 74, 35
2, 67478, Note_on_c, 0, 67, 31
2, 67482, Note_on_c, 0, 74, 0
2, 67486, Note_on_c, 0, 67, 0
2, 67493, Note_on_c, 0, 75, 57
2, 67523, Note_on_c, 0, 75, 0
2, 67527, Note_on_c, 0, 68, 61
2, 67541, Note_on_c, 0, 68, 0
2, 67553, Note_on_c, 0, 68, 52
2, 67592, Note_on_c, 0, 63, 21
2, 67596, Note_on_c, 0, 68, 0
2, 67612, Note_on_c, 0, 68, 63
2, 67614, Note_on_c, 0, 63, 0
2, 67650, Note_on_c, 0, 68, 0
2, 67675, Note_on_c, 0, 65, 54
2, 67679, Note_on_c, 0, 56, 48
2, 67693, Note_on_c, 0, 65, 0
2, 67703, Note_on_c, 0, 56, 0
2, 67736, Note_on_c, 0, 65, 52
2, 67739, Note_on_c, 0, 56, 43
2, 67741, Note_on_c, 0, 55, 34
2, 67741, Note_on_c, 0, 60, 32
2, 67768, Note_on_c, 0, 60, 0
2, 67772, Note_on_c, 0, 65, 0
2, 67778, Note_on_c, 0, 55, 0
2, 67785, Note_on_c, 0, 56, 0
2, 67832, Note_on_c, 0, 64, 59
2, 67834, Note_on_c, 0, 53, 43
2, 67835, Note_on_c, 0, 59, 54
2, 67866, Note_on_c, 0, 64, 0
2, 67869, Note_on_c, 0, 53, 0
2, 67870, Note_on_c, 0, 59, 0
2, 67891, Note_on_c, 0, 80, 80
2, 67892, Note_on_c, 0, 68, 85
2, 67893, Note_on_c, 0, 75, 71
2, 67896, Note_on_c, 0, 63, 76
2, 67898, Note_on_c, 0, 56, 59
2, 67898, Note_on_c, 0, 53, 54
2, 67899, Note_on_c, 0, 59, 65
2, 67906, Note_on_c, 0, 53, 0
2, 67908, Note_on_c, 0, 68, 0
2, 67909, Note_on_c, 0, 63, 0
2, 67918, Note_on_c, 0, 80, 0
2, 67918, Note_on_c, 0, 75, 0
2, 67919, Note_on_c, 0, 59, 0
2, 67930, Note_on_c, 0, 56, 0
2, 67948, Note_on_c, 0, 82, 83
2, 67949, Note_on_c, 0, 70, 92
2, 67954, Note_on_c, 0, 76, 54
2, 67985, Note_on_c, 0, 76, 0
2, 67986, Note_on_c, 0, 70, 0
2, 67986, Note_on_c, 0, 71, 62
2, 67989, Note_on_c, 0, 82, 0
2, 68008, Note_on_c, 0, 83, 47
2, 68014, Note_on_c, 0, 76, 63
2, 68015, Note_on_c, 0, 71, 0
2, 68019, Note_on_c, 0, 83, 0
2, 68022, Note_on_c, 0, 63, 53
2, 68028, Note_on_c, 0, 56, 44
2, 68028, Note_on_c, 0, 59, 38
2, 68028, Note_on_c, 0, 53, 20
2, 68031, Note_on_c, 0, 76, 0
2, 68034, Note_on_c, 0, 63, 0
2, 68036, Note_on_c, 0, 68, 69
2, 68036, Note_on_c, 0, 80, 61
2, 68037, Note_on_c, 0, 59, 0
2, 68068, Note_on_c, 0, 80, 0
2, 68074, Note_on_c, 0, 68, 0
2, 68091, Note_on_c, 0, 53, 0
2, 68093, Note_on_c, 0, 67, 68
2, 68093, Note_on_c, 0, 79, 60
2, 68100, Note_on_c, 0, 56, 0
2, 68124, Note_on_c, 0, 79, 0
2, 68131, Note_on_c, 0, 67, 0
2, 68153, Note_on_c, 0, 77, 53
2, 68153, Note_on_c, 0, 62, 37
2, 68155, Note_on_c, 0, 52, 28
2, 68157, Note_on_c, 0, 65, 43
2, 68158, Note_on_c, 0, 57, 37
2, 68169, Note_on_c, 0, 62, 0
2, 68170, Note_on_c, 0, 57, 0
2, 68174, Note_on_c, 0, 52, 0
2, 68178, Note_on_c, 0, 77, 0
2, 68187, Note_on_c, 0, 65, 0
2, 68211, Note_on_c, 0, 75, 50
2, 68214, Note_on_c, 0, 63, 46
2, 68224, Note_on_c, 0, 63, 0
2, 68227, Note_on_c, 0, 76, 39
2, 68229, Note_on_c, 0, 64, 30
2, 68240, Note_on_c, 0, 75, 0
2, 68241, Note_on_c, 0, 76, 0
2, 68253, Note_on_c, 0, 52, 32
2, 68255, Note_on_c, 0, 64, 0
2, 68258, Note_on_c, 0, 57, 30
2, 68264, Note_on_c, 0, 52, 0
2, 68267, Note_on_c, 0, 57, 0
2, 68277, Note_on_c, 0, 72, 45
2, 68292, Note_on_c, 0, 60, 9
2, 68314, Note_on_c, 0, 72, 0
2, 68319, Note_on_c, 0, 60, 0
2, 68337, Note_on_c, 0, 72, 50
2, 68341, Note_on_c, 0, 60, 24
2, 68359, Note_on_c, 0, 60, 0
2, 68373, Note_on_c, 0, 72, 0
2, 68438, Note_on_c, 0, 54, 51
2, 68438, Note_on_c, 0, 55, 59
2, 68451, Note_on_c, 0, 54, 0
2, 68454, Note_on_c, 0, 55, 0
2, 68495, Note_on_c, 0, 43, 57
2, 68515, Note_on_c, 0, 43, 0
2, 68557, Note_on_c, 0, 59, 41
2, 68565, Note_on_c, 0, 59, 0
2, 68750, Note_on_c, 0, 63, 68
2, 68754, Note_on_c, 0, 53, 43
2, 68755, Note_on_c, 0, 59, 47
2, 68787, Note_on_c, 0, 53, 0
2, 68793, Note_on_c, 0, 59, 0
2, 68805, Note_on_c, 0, 63, 0
2, 68846, Note_on_c, 0, 63, 63
2, 68849, Note_on_c, 0, 58, 52
2, 68850, Note_on_c, 0, 59, 53
2, 68850, Note_on_c, 0, 53, 36
2, 68877, Note_on_c, 0, 53, 0
2, 68878, Note_on_c, 0, 59, 0
2, 68884, Note_on_c, 0, 63, 0
2, 68886, Note_on_c, 0, 58, 0
2, 68933, Note_on_c, 0, 63, 62
2, 68938, Note_on_c, 0, 58, 50
2, 68938, Note_on_c, 0, 53, 34
2, 68938, Note_on_c, 0, 59, 55
2, 68986, Note_on_c, 0, 53, 0
2, 68989, Note_on_c, 0, 59, 0
2, 68994, Note_on_c, 0, 63, 0
2, 68998, Note_on_c, 0, 58, 0
2, 69032, Note_on_c, 0, 63, 64
2, 69038, Note_on_c, 0, 59, 46
2, 69039, Note_on_c, 0, 53, 32
2, 69040, Note_on_c, 0, 58, 37
2, 69063, Note_on_c, 0, 59, 0
2, 69072, Note_on_c, 0, 58, 0
2, 69073, Note_on_c, 0, 63, 0
2, 69080, Note_on_c, 0, 53, 0
2, 69094, Note_on_c, 0, 89, 89
2, 69117, Note_on_c, 0, 89, 0
2, 69121, Note_on_c, 0, 57, 33
2, 69123, Note_on_c, 0, 52, 20
2, 69123, Note_on_c, 0, 88, 55
2, 69150, Note_on_c, 0, 57, 0
2, 69154, Note_on_c, 0, 88, 0
2, 69154, Note_on_c, 0, 84, 71
2, 69175, Note_on_c, 0, 84, 0
2, 69181, Note_on_c, 0, 79, 45
2, 69199, Note_on_c, 0, 79, 0
2, 69202, Note_on_c, 0, 52, 0
2, 69240, Note_on_c, 0, 62, 53
2, 69244, Note_on_c, 0, 52, 31
2, 69246, Note_on_c, 0, 57, 37
2, 69256, Note_on_c, 0, 57, 0
2, 69257, Note_on_c, 0, 52, 0
2, 69257, Note_on_c, 0, 62, 0
2, 69331, Note_on_c, 0, 62, 56
2, 69334, Note_on_c, 0, 52, 35
2, 69334, Note_on_c, 0, 57, 43
2, 69346, Note_on_c, 0, 57, 0
2, 69348, Note_on_c, 0, 62, 0
2, 69349, Note_on_c, 0, 52, 0
2, 69416, Note_on_c, 0, 63, 67
2, 69418, Note_on_c, 0, 59, 58
2, 69422, Note_on_c, 0, 53, 38
2, 69468, Note_on_c, 0, 53, 0
2, 69469, Note_on_c, 0, 59, 0
2, 69479, Note_on_c, 0, 63, 0
2, 69509, Note_on_c, 0, 63, 57
2, 69514, Note_on_c, 0, 59, 52
2, 69515, Note_on_c, 0, 58, 46
2, 69517, Note_on_c, 0, 53, 35
2, 69534, Note_on_c, 0, 59, 0
2, 69541, Note_on_c, 0, 58, 0
2, 69551, Note_on_c, 0, 53, 0
2, 69552, Note_on_c, 0, 63, 0
2, 69597, Note_on_c, 0, 62, 36
2, 69597, Note_on_c, 0, 52, 37
2, 69599, Note_on_c, 0, 57, 50
2, 69662, Note_on_c, 0, 93, 80
2, 69685, Note_on_c, 0, 93, 0
2, 69699, Note_on_c, 0, 91, 29
2, 69709, Note_on_c, 0, 91, 0
2, 69722, Note_on_c, 0, 96, 88
2, 69753, Note_on_c, 0, 95, 72
2, 69754, Note_on_c, 0, 96, 0
2, 69780, Note_on_c, 0, 91, 54
2, 69783, Note_on_c, 0, 95, 0
2, 69794, Note_on_c, 0, 62, 0
2, 69801, Note_on_c, 0, 57, 0
2, 69808, Note_on_c, 0, 91, 0
2, 69816, Note_on_c, 0, 86, 52
2, 69821, Note_on_c, 0, 57, 15
2, 69831, Note_on_c, 0, 86, 0
2, 69834, Note_on_c, 0, 57, 0
2, 69878, Note_on_c, 0, 62, 42
2, 69886, Note_on_c, 0, 62, 0
2, 69906, Note_on_c, 0, 86, 95
2, 69941, Note_on_c, 0, 86, 0
2, 69996, Note_on_c, 0, 62, 38
2, 70000, Note_on_c, 0, 57, 31
2, 70003, Note_on_c, 0, 62, 0
2, 70008, Note_on_c, 0, 57, 0
2, 70019, Note_on_c, 0, 52, 0
2, 70049, Note_on_c, 0, 62, 59
2, 70054, Note_on_c, 0, 57, 24
2, 70055, Note_on_c, 0, 62, 0
2, 70060, Note_on_c, 0, 57, 0
2, 70138, Note_on_c, 0, 67, 46
2, 70139, Note_on_c, 0, 58, 39
2, 70140, Note_on_c, 0, 63, 47
2, 70142, Note_on_c, 0, 62, 44
2, 70151, Note_on_c, 0, 62, 0
2, 70157, Note_on_c, 0, 67, 0
2, 70167, Note_on_c, 0, 58, 0
2, 70180, Note_on_c, 0, 63, 0
2, 70234, Note_on_c, 0, 67, 53
2, 70235, Note_on_c, 0, 63, 40
2, 70238, Note_on_c, 0, 62, 37
2, 70241, Note_on_c, 0, 58, 23
2, 70243, Note_on_c, 0, 67, 0
2, 70246, Note_on_c, 0, 62, 0
2, 70253, Note_on_c, 0, 58, 0
2, 70257, Note_on_c, 0, 63, 0
2, 70261, Note_on_c, 0, 94, 77
2, 70287, Note_on_c, 0, 94, 0
2, 70294, Note_on_c, 0, 93, 62
2, 70306, Note_on_c, 0, 93, 0
2, 70322, Note_on_c, 0, 96, 92
2, 70353, Note_on_c, 0, 94, 71
2, 70357, Note_on_c, 0, 67, 46
2, 70359, Note_on_c, 0, 63, 33
2, 70364, Note_on_c, 0, 96, 0
2, 70366, Note_on_c, 0, 67, 0
2, 70382, Note_on_c, 0, 63, 0
2, 70383, Note_on_c, 0, 91, 58
2, 70384, Note_on_c, 0, 94, 0
2, 70408, Note_on_c, 0, 91, 0
2, 70417, Note_on_c, 0, 87, 53
2, 70420, Note_on_c, 0, 67, 38
2, 70423, Note_on_c, 0, 63, 33
2, 70428, Note_on_c, 0, 67, 0
2, 70443, Note_on_c, 0, 63, 0
2, 70446, Note_on_c, 0, 87, 0
2, 70449, Note_on_c, 0, 86, 44
2, 70466, Note_on_c, 0, 86, 0
2, 70477, Note_on_c, 0, 89, 83
2, 70505, Note_on_c, 0, 86, 55
2, 70506, Note_on_c, 0, 89, 0
2, 70526, Note_on_c, 0, 86, 0
2, 70533, Note_on_c, 0, 87, 70
2, 70539, Note_on_c, 0, 67, 38
2, 70543, Note_on_c, 0, 63, 26
2, 70549, Note_on_c, 0, 67, 0
2, 70557, Note_on_c, 0, 63, 0
2, 70561, Note_on_c, 0, 87, 0
2, 70563, Note_on_c, 0, 79, 28
2, 70594, Note_on_c, 0, 79, 0
2, 70598, Note_on_c, 0, 67, 24
2, 70601, Note_on_c, 0, 63, 25
2, 70605, Note_on_c, 0, 67, 0
2, 70615, Note_on_c, 0, 63, 0
2, 70620, Note_on_c, 0, 79, 48
2, 70653, Note_on_c, 0, 79, 0
2, 70677, Note_on_c, 0, 67, 34
2, 70678, Note_on_c, 0, 63, 37
2, 70680, Note_on_c, 0, 79, 50
2, 70684, Note_on_c, 0, 58, 25
2, 70702, Note_on_c, 0, 67, 0
2, 70704, Note_on_c, 0, 58, 0
2, 70705, Note_on_c, 0, 79, 0
2, 70713, Note_on_c, 0, 77, 66
2, 70735, Note_on_c, 0, 77, 0
2, 70737, Note_on_c, 0, 63, 0
2, 70742, Note_on_c, 0, 75, 31
2, 70765, Note_on_c, 0, 75, 0
2, 70783, Note_on_c, 0, 74, 30
2, 70784, Note_on_c, 0, 67, 30
2, 70786, Note_on_c, 0, 63, 23
2, 70790, Note_on_c, 0, 74, 0
2, 70797, Note_on_c, 0, 58, 15
2, 70798, Note_on_c, 0, 77, 68
2, 70817, Note_on_c, 0, 67, 0
2, 70824, Note_on_c, 0, 58, 0
2, 70825, Note_on_c, 0, 77, 0
2, 70834, Note_on_c, 0, 74, 33
2, 70846, Note_on_c, 0, 74, 0
2, 70857, Note_on_c, 0, 75, 55
2, 70862, Note_on_c, 0, 63, 0
2, 70886, Note_on_c, 0, 75, 0
2, 70896, Note_on_c, 0, 72, 41
2, 70896, Note_on_c, 0, 67, 36
2, 70898, Note_on_c, 0, 58, 32
2, 70900, Note_on_c, 0, 63, 23
2, 70908, Note_on_c, 0, 67, 0
2, 70909, Note_on_c, 0, 72, 0
2, 70916, Note_on_c, 0, 58, 0
2, 70917, Note_on_c, 0, 63, 0
2, 70951, Note_on_c, 0, 58, 47
2, 70953, Note_on_c, 0, 67, 43
2, 70955, Note_on_c, 0, 63, 42
2, 70962, Note_on_c, 0, 67, 0
2, 70968, Note_on_c, 0, 63, 0
2, 70971, Note_on_c, 0, 58, 0
2, 71033, Note_on_c, 0, 56, 37
2, 71035, Note_on_c, 0, 63, 32
2, 71035, Note_on_c, 0, 67, 31
2, 71038, Note_on_c, 0, 60, 34
2, 71057, Note_on_c, 0, 67, 0
2, 71060, Note_on_c, 0, 60, 0
2, 71065, Note_on_c, 0, 56, 0
2, 71098, Note_on_c, 0, 63, 0
2, 71132, Note_on_c, 0, 67, 54
2, 71132, Note_on_c, 0, 63, 48
2, 71135, Note_on_c, 0, 56, 35
2, 71138, Note_on_c, 0, 60, 32
2, 71148, Note_on_c, 0, 60, 0
2, 71150, Note_on_c, 0, 67, 0
2, 71156, Note_on_c, 0, 56, 0
2, 71160, Note_on_c, 0, 63, 0
2, 71196, Note_on_c, 0, 63, 45
2, 71196, Note_on_c, 0, 67, 48
2, 71201, Note_on_c, 0, 60, 31
2, 71204, Note_on_c, 0, 67, 0
2, 71211, Note_on_c, 0, 60, 0
2, 71220, Note_on_c, 0, 63, 0
2, 71220, Note_on_c, 0, 82, 84
2, 71249, Note_on_c, 0, 82, 0
2, 71253, Note_on_c, 0, 63, 36
2, 71258, Note_on_c, 0, 80, 39
2, 71271, Note_on_c, 0, 80, 0
2, 71274, Note_on_c, 0, 63, 0
2, 71282, Note_on_c, 0, 84, 91
2, 71308, Note_on_c, 0, 84, 0
2, 71315, Note_on_c, 0, 80, 56
2, 71317, Note_on_c, 0, 63, 36
2, 71338, Note_on_c, 0, 80, 0
2, 71340, Note_on_c, 0, 63, 0
2, 71343, Note_on_c, 0, 77, 48
2, 71369, Note_on_c, 0, 77, 0
2, 71375, Note_on_c, 0, 74, 59
2, 71379, Note_on_c, 0, 63, 40
2, 71390, Note_on_c, 0, 74, 0
2, 71396, Note_on_c, 0, 72, 46
2, 71403, Note_on_c, 0, 63, 0
2, 71428, Note_on_c, 0, 72, 0
2, 71434, Note_on_c, 0, 63, 37
2, 71436, Note_on_c, 0, 68, 35
2, 71444, Note_on_c, 0, 68, 0
2, 71455, Note_on_c, 0, 63, 0
2, 71458, Note_on_c, 0, 74, 64
2, 71484, Note_on_c, 0, 74, 0
2, 71494, Note_on_c, 0, 63, 27
2, 71511, Note_on_c, 0, 63, 0
2, 71518, Note_on_c, 0, 72, 50
2, 71546, Note_on_c, 0, 72, 0
2, 71552, Note_on_c, 0, 70, 64
2, 71563, Note_on_c, 0, 65, 28
2, 71563, Note_on_c, 0, 61, 31
2, 71565, Note_on_c, 0, 56, 33
2, 71572, Note_on_c, 0, 65, 0
2, 71574, Note_on_c, 0, 70, 0
2, 71581, Note_on_c, 0, 68, 33
2, 71586, Note_on_c, 0, 61, 0
2, 71586, Note_on_c, 0, 56, 0
2, 71600, Note_on_c, 0, 68, 0
2, 71614, Note_on_c, 0, 67, 79
2, 71619, Note_on_c, 0, 61, 40
2, 71623, Note_on_c, 0, 65, 26
2, 71631, Note_on_c, 0, 56, 25
2, 71637, Note_on_c, 0, 55, 14
2, 71638, Note_on_c, 0, 65, 0
2, 71656, Note_on_c, 0, 61, 0
2, 71658, Note_on_c, 0, 55, 0
2, 71660, Note_on_c, 0, 56, 0
2, 71661, Note_on_c, 0, 67, 0
2, 71662, Note_on_c, 0, 68, 54
2, 71675, Note_on_c, 0, 67, 47
2, 71684, Note_on_c, 0, 61, 26
2, 71685, Note_on_c, 0, 68, 0
2, 71694, Note_on_c, 0, 61, 0
2, 71697, Note_on_c, 0, 67, 0
2, 71698, Note_on_c, 0, 65, 41
2, 71727, Note_on_c, 0, 65, 0
2, 71739, Note_on_c, 0, 64, 30
2, 71741, Note_on_c, 0, 62, 39
2, 71745, Note_on_c, 0, 56, 26
2, 71748, Note_on_c, 0, 62, 0
2, 71748, Note_on_c, 0, 64, 0
2, 71753, Note_on_c, 0, 56, 0
2, 71761, Note_on_c, 0, 65, 55
2, 71762, Note_on_c, 0, 67, 47
2, 71769, Note_on_c, 0, 67, 0
2, 71795, Note_on_c, 0, 65, 0
2, 71795, Note_on_c, 0, 62, 50
2, 71804, Note_on_c, 0, 62, 0
2, 71821, Note_on_c, 0, 63, 64
2, 71857, Note_on_c, 0, 63, 0
2, 71859, Note_on_c, 0, 59, 40
2, 71862, Note_on_c, 0, 53, 20
2, 71868, Note_on_c, 0, 59, 0
2, 71869, Note_on_c, 0, 53, 0
2, 71879, Note_on_c, 0, 62, 62
2, 71917, Note_on_c, 0, 50, 25
2, 71927, Note_on_c, 0, 62, 0
2, 71931, Note_on_c, 0, 50, 0
2, 71933, Note_on_c, 0, 59, 74
2, 72177, Note_on_c, 0, 43, 30
2, 72180, Note_on_c, 0, 59, 0
2, 72182, Note_on_c, 0, 55, 37
2, 72215, Note_on_c, 0, 43, 0
2, 72219, Note_on_c, 0, 55, 0
2, 72245, Note_on_c, 0, 55, 60
2, 72248, Note_on_c, 0, 43, 27
2, 72294, Note_on_c, 0, 43, 0
2, 72307, Note_on_c, 0, 55, 0
2, 72338, Note_on_c, 0, 36, 54
2, 72345, Note_on_c, 0, 36, 0
2, 72418, Note_on_c, 0, 62, 53
2, 72423, Note_on_c, 0, 57, 28
2, 72424, Note_on_c, 0, 62, 0
2, 72431, Note_on_c, 0, 57, 0
2, 72511, Note_on_c, 0, 62, 40
2, 72515, Note_on_c, 0, 57, 35
2, 72520, Note_on_c, 0, 62, 0
2, 72525, Note_on_c, 0, 57, 0
2, 72596, Note_on_c, 0, 62, 45
2, 72598, Note_on_c, 0, 57, 44
2, 72603, Note_on_c, 0, 52, 20
2, 72605, Note_on_c, 0, 62, 0
2, 72607, Note_on_c, 0, 57, 0
2, 72612, Note_on_c, 0, 52, 0
2, 72682, Note_on_c, 0, 62, 48
2, 72684, Note_on_c, 0, 52, 37
2, 72684, Control_c, 0, 64, 127
2, 72685, Note_on_c, 0, 57, 44
2, 72726, Note_on_c, 0, 57, 0
2, 72728, Note_on_c, 0, 62, 0
2, 72730, Note_on_c, 0, 52, 0
2, 72778, Note_on_c, 0, 62, 41
2, 72781, Note_on_c, 0, 57, 37
2, 72782, Note_on_c, 0, 52, 29
2, 72800, Note_on_c, 0, 62, 0
2, 72802, Note_on_c, 0, 52, 0
2, 72804, Note_on_c, 0, 57, 0
2, 72938, Control_c, 0, 64, 0
2, 72947, Note_on_c, 0, 68, 82
2, 72950, Note_on_c, 0, 60, 77
2, 72950, Note_on_c, 0, 63, 77
2, 72951, Note_on_c, 0, 53, 70
2, 72990, Control_c, 0, 64, 127
2, 73010, Note_on_c, 0, 68, 0
2, 73026, Note_on_c, 0, 60, 0
2, 73029, Note_on_c, 0, 63, 0
2, 73036, Note_on_c, 0, 53, 0
2, 73037, Note_on_c, 0, 70, 73
2, 73040, Note_on_c, 0, 55, 62
2, 73041, Note_on_c, 0, 60, 49
2, 73050, Note_on_c, 0, 60, 0
2, 73056, Note_on_c, 0, 70, 0
2, 73065, Control_c, 0, 64, 0
2, 73066, Note_on_c, 0, 55, 0
2, 73071, Note_on_c, 0, 60, 50
2, 73073, Note_on_c, 0, 56, 60
2, 73074, Note_on_c, 0, 72, 55
2, 73090, Note_on_c, 0, 60, 0
2, 73093, Note_on_c, 0, 72, 0
2, 73118, Note_on_c, 0, 74, 68
2, 73119, Note_on_c, 0, 56, 0
2, 73120, Note_on_c, 0, 59, 57
2, 73130, Note_on_c, 0, 59, 0
2, 73136, Note_on_c, 0, 74, 0
2, 73166, Note_on_c, 0, 75, 72
2, 73169, Note_on_c, 0, 60, 65
2, 73170, Note_on_c, 0, 65, 62
2, 73171, Note_on_c, 0, 68, 43
2, 73172, Note_on_c, 0, 72, 40
2, 73175, Note_on_c, 0, 73, 25
2, 73176, Note_on_c, 0, 58, 45
2, 73207, Note_on_c, 0, 58, 0
2, 73209, Note_on_c, 0, 73, 0
2, 73241, Control_c, 0, 64, 127
2, 73297, Note_on_c, 0, 68, 0
2, 73297, Note_on_c, 0, 72, 0
2, 73298, Note_on_c, 0, 65, 0
2, 73317, Note_on_c, 0, 75, 0
2, 73330, Note_on_c, 0, 74, 68
2, 73331, Note_on_c, 0, 65, 53
2, 73333, Note_on_c, 0, 58, 50
2, 73335, Note_on_c, 0, 68, 39
2, 73337, Control_c, 0, 64, 0
2, 73348, Note_on_c, 0, 60, 0
2, 73376, Control_c, 0, 64, 127
2, 73385, Note_on_c, 0, 68, 0
2, 73386, Note_on_c, 0, 74, 0
2, 73388, Note_on_c, 0, 65, 0
2, 73441, Note_on_c, 0, 58, 0
2, 73452, Note_on_c, 0, 77, 74
2, 73453, Note_on_c, 0, 72, 77
2, 73454, Note_on_c, 0, 68, 77
2, 73454, Note_on_c, 0, 65, 77
2, 73458, Control_c, 0, 64, 0
2, 73499, Control_c, 0, 64, 127
2, 73527, Note_on_c, 0, 68, 0
2, 73528, Note_on_c, 0, 77, 0
2, 73528, Note_on_c, 0, 72, 0
2, 73538, Control_c, 0, 64, 0
2, 73542, Note_on_c, 0, 75, 65
2, 73542, Note_on_c, 0, 63, 63
2, 73543, Note_on_c, 0, 72, 67
2, 73544, Note_on_c, 0, 68, 50
2, 73545, Note_on_c, 0, 65, 0
2, 73601, Control_c, 0, 64, 127
2, 73604, Note_on_c, 0, 61, 44
2, 73605, Note_on_c, 0, 68, 0
2, 73608, Note_on_c, 0, 75, 0
2, 73613, Note_on_c, 0, 72, 0
2, 73619, Note_on_c, 0, 63, 0
2, 73623, Note_on_c, 0, 68, 55
2, 73625, Note_on_c, 0, 74, 68
2, 73626, Control_c, 0, 64, 0
2, 73627, Note_on_c, 0, 61, 0
2, 73627, Note_on_c, 0, 62, 71
2, 73663, Control_c, 0, 64, 127
2, 73704, Note_on_c, 0, 74, 0
2, 73704, Control_c, 0, 64, 0
2, 73705, Note_on_c, 0, 68, 0
2, 73717, Note_on_c, 0, 72, 65
2, 73718, Note_on_c, 0, 60, 51
2, 73720, Note_on_c, 0, 62, 0
2, 73722, Note_on_c, 0, 74, 48
2, 73736, Control_c, 0, 64, 127
2, 73759, Note_on_c, 0, 74, 0
2, 73775, Note_on_c, 0, 60, 0
2, 73782, Note_on_c, 0, 72, 0
2, 73798, Note_on_c, 0, 71, 52
2, 73800, Note_on_c, 0, 59, 48
2, 73808, Control_c, 0, 64, 0
2, 73818, Note_on_c, 0, 59, 0
2, 73821, Note_on_c, 0, 71, 0
2, 73857, Note_on_c, 0, 68, 37
2, 73860, Note_on_c, 0, 56, 28
2, 73874, Note_on_c, 0, 56, 0
2, 73884, Note_on_c, 0, 68, 0
2, 73920, Note_on_c, 0, 43, 43
2, 73923, Note_on_c, 0, 67, 45
2, 73925, Note_on_c, 0, 55, 24
2, 73942, Note_on_c, 0, 55, 0
2, 73946, Note_on_c, 0, 67, 0
2, 73959, Note_on_c, 0, 43, 0
2, 74103, Note_on_c, 0, 43, 64
2, 74105, Note_on_c, 0, 62, 68
2, 74105, Note_on_c, 0, 31, 57
2, 74106, Note_on_c, 0, 59, 63
2, 74106, Note_on_c, 0, 55, 60
2, 74113, Note_on_c, 0, 55, 0
2, 74115, Note_on_c, 0, 59, 0
2, 74117, Note_on_c, 0, 31, 0
2, 74117, Note_on_c, 0, 43, 0
2, 74123, Note_on_c, 0, 62, 0
2, 74170, Note_on_c, 0, 64, 80
2, 74172, Note_on_c, 0, 45, 85
2, 74173, Note_on_c, 0, 33, 80
2, 74173, Note_on_c, 0, 55, 82
2, 74173, Note_on_c, 0, 60, 71
2, 74246, Note_on_c, 0, 55, 0
2, 74247, Note_on_c, 0, 33, 0
2, 74251, Note_on_c, 0, 45, 0
2, 74255, Note_on_c, 0, 60, 0
2, 74256, Note_on_c, 0, 64, 0
2, 74262, Note_on_c, 0, 33, 53
2, 74264, Note_on_c, 0, 64, 33
2, 74265, Note_on_c, 0, 45, 64
2, 74266, Note_on_c, 0, 55, 62
2, 74267, Note_on_c, 0, 60, 71
2, 74330, Note_on_c, 0, 55, 0
2, 74333, Note_on_c, 0, 33, 0
2, 74340, Note_on_c, 0, 45, 0
2, 74344, Note_on_c, 0, 60, 0
2, 74352, Note_on_c, 0, 33, 40
2, 74353, Note_on_c, 0, 45, 60
2, 74354, Note_on_c, 0, 60, 39
2, 74354, Note_on_c, 0, 55, 54
2, 74361, Note_on_c, 0, 55, 0
2, 74370, Note_on_c, 0, 33, 0
2, 74370, Note_on_c, 0, 60, 0
2, 74371, Note_on_c, 0, 45, 0
2, 74376, Note_on_c, 0, 64, 0
2, 74413, Note_on_c, 0, 66, 83
2, 74415, Note_on_c, 0, 47, 75
2, 74415, Note_on_c, 0, 62, 79
2, 74416, Note_on_c, 0, 57, 82
2, 74416, Note_on_c, 0, 35, 69
2, 74437, Control_c, 0, 64, 127
2, 74482, Note_on_c, 0, 35, 0
2, 74482, Note_on_c, 0, 47, 0
2, 74484, Note_on_c, 0, 66, 0
2, 74486, Note_on_c, 0, 57, 0
2, 74492, Note_on_c, 0, 62, 0
2, 74502, Control_c, 0, 64, 0
2, 74508, Note_on_c, 0, 64, 62
2, 74508, Note_on_c, 0, 60, 55
2, 74509, Note_on_c, 0, 55, 55
2, 74510, Note_on_c, 0, 45, 62
2, 74512, Note_on_c, 0, 33, 61
2, 74525, Note_on_c, 0, 55, 0
2, 74528, Note_on_c, 0, 60, 0
2, 74530, Note_on_c, 0, 64, 0
2, 74533, Note_on_c, 0, 45, 0
2, 74538, Note_on_c, 0, 33, 0
2, 74591, Note_on_c, 0, 43, 58
2, 74592, Note_on_c, 0, 31, 62
2, 74593, Note_on_c, 0, 59, 54
2, 74593, Note_on_c, 0, 62, 52
2, 74595, Note_on_c, 0, 55, 46
2, 74657, Control_c, 0, 64, 127
2, 74730, Note_on_c, 0, 31, 0
2, 74741, Note_on_c, 0, 55, 0
2, 74743, Note_on_c, 0, 43, 0
2, 74750, Note_on_c, 0, 59, 0
2, 74760, Note_on_c, 0, 62, 0
2, 74877, Note_on_c, 0, 63, 49
2, 74879, Note_on_c, 0, 56, 37
2, 74880, Control_c, 0, 64, 0
2, 74881, Note_on_c, 0, 68, 33
2, 74882, Note_on_c, 0, 67, 30
2, 74883, Note_on_c, 0, 60, 35
2, 74942, Note_on_c, 0, 67, 0
2, 74946, Note_on_c, 0, 63, 0
2, 74955, Note_on_c, 0, 68, 0
2, 74967, Note_on_c, 0, 67, 47
2, 74968, Note_on_c, 0, 70, 70
2, 74969, Note_on_c, 0, 63, 35
2, 74978, Note_on_c, 0, 67, 0
2, 74983, Note_on_c, 0, 63, 0
2, 74984, Note_on_c, 0, 60, 0
2, 74984, Note_on_c, 0, 56, 0
2, 74985, Note_on_c, 0, 70, 0
2, 75026, Note_on_c, 0, 72, 71
2, 75027, Note_on_c, 0, 63, 46
2, 75030, Note_on_c, 0, 67, 34
2, 75030, Note_on_c, 0, 60, 24
2, 75039, Note_on_c, 0, 67, 0
2, 75040, Note_on_c, 0, 60, 0
2, 75040, Note_on_c, 0, 63, 0
2, 75046, Note_on_c, 0, 72, 0
2, 75087, Note_on_c, 0, 74, 58
2, 75102, Note_on_c, 0, 74, 0
2, 75110, Note_on_c, 0, 63, 45
2, 75111, Note_on_c, 0, 67, 49
2, 75113, Note_on_c, 0, 60, 34
2, 75114, Note_on_c, 0, 75, 63
2, 75114, Note_on_c, 0, 56, 36
2, 75158, Note_on_c, 0, 75, 0
2, 75179, Note_on_c, 0, 67, 0
2, 75183, Note_on_c, 0, 63, 0
2, 75186, Note_on_c, 0, 56, 0
2, 75189, Note_on_c, 0, 60, 0
2, 75203, Note_on_c, 0, 56, 38
2, 75204, Note_on_c, 0, 75, 43
2, 75205, Note_on_c, 0, 63, 44
2, 75205, Note_on_c, 0, 67, 44
2, 75208, Note_on_c, 0, 60, 36
2, 75211, Note_on_c, 0, 75, 0
2, 75211, Note_on_c, 0, 74, 29
2, 75218, Note_on_c, 0, 74, 0
2, 75220, Note_on_c, 0, 67, 0
2, 75229, Note_on_c, 0, 74, 71
2, 75234, Note_on_c, 0, 67, 25
2, 75246, Note_on_c, 0, 67, 0
2, 75246, Note_on_c, 0, 74, 0
2, 75251, Note_on_c, 0, 56, 0
2, 75255, Note_on_c, 0, 60, 0
2, 75257, Note_on_c, 0, 63, 0
2, 75289, Note_on_c, 0, 77, 99
2, 75290, Note_on_c, 0, 63, 69
2, 75290, Note_on_c, 0, 56, 74
2, 75290, Note_on_c, 0, 67, 75
2, 75290, Note_on_c, 0, 60, 66
2, 75364, Control_c, 0, 64, 127
2, 75365, Note_on_c, 0, 56, 0
2, 75367, Note_on_c, 0, 67, 0
2, 75370, Note_on_c, 0, 60, 0
2, 75371, Note_on_c, 0, 63, 0
2, 75372, Note_on_c, 0, 77, 0
2, 75385, Note_on_c, 0, 75, 73
2, 75386, Note_on_c, 0, 63, 71
2, 75387, Note_on_c, 0, 67, 60
2, 75388, Note_on_c, 0, 56, 54
2, 75388, Note_on_c, 0, 60, 51
2, 75397, Control_c, 0, 64, 0
2, 75419, Note_on_c, 0, 67, 0
2, 75420, Note_on_c, 0, 63, 0
2, 75423, Note_on_c, 0, 75, 0
2, 75427, Note_on_c, 0, 56, 0
2, 75429, Note_on_c, 0, 60, 0
2, 75473, Note_on_c, 0, 64, 60
2, 75474, Note_on_c, 0, 75, 83
2, 75475, Note_on_c, 0, 60, 49
2, 75475, Note_on_c, 0, 67, 65
2, 75477, Note_on_c, 0, 56, 58
2, 75521, Control_c, 0, 64, 127
2, 75539, Note_on_c, 0, 56, 0
2, 75541, Note_on_c, 0, 67, 0
2, 75547, Note_on_c, 0, 64, 0
2, 75548, Note_on_c, 0, 60, 0
2, 75555, Note_on_c, 0, 75, 0
2, 75568, Note_on_c, 0, 74, 78
2, 75586, Control_c, 0, 64, 0
2, 75589, Note_on_c, 0, 74, 0
2, 75589, Note_on_c, 0, 60, 45
2, 75590, Note_on_c, 0, 67, 60
2, 75594, Note_on_c, 0, 56, 35
2, 75596, Note_on_c, 0, 72, 65
2, 75616, Note_on_c, 0, 56, 0
2, 75616, Note_on_c, 0, 67, 0
2, 75619, Note_on_c, 0, 72, 0
2, 75623, Note_on_c, 0, 60, 0
2, 75665, Control_c, 0, 64, 127
2, 75669, Control_c, 0, 64, 0
2, 75712, Note_on_c, 0, 67, 33
2, 75714, Note_on_c, 0, 63, 31
2, 75716, Control_c, 0, 64, 127
2, 75722, Note_on_c, 0, 67, 0
2, 75723, Note_on_c, 0, 63, 0
2, 75746, Control_c, 0, 64, 0
2, 75758, Note_on_c, 0, 71, 62
2, 75759, Note_on_c, 0, 63, 49
2, 75768, Note_on_c, 0, 56, 21
2, 75770, Note_on_c, 0, 63, 0
2, 75776, Note_on_c, 0, 56, 0
2, 75781, Note_on_c, 0, 71, 0
2, 75786, Note_on_c, 0, 70, 37
2, 75817, Note_on_c, 0, 70, 0
2, 75840, Note_on_c, 0, 54, 38
2, 75843, Note_on_c, 0, 68, 28
2, 75848, Note_on_c, 0, 54, 0
2, 75850, Note_on_c, 0, 68, 0
2, 75932, Note_on_c, 0, 50, 43
2, 75933, Note_on_c, 0, 62, 58
2, 75942, Note_on_c, 0, 62, 0
2, 75954, Note_on_c, 0, 50, 0
2, 75961, Note_on_c, 0, 53, 30
2, 75962, Note_on_c, 0, 65, 46
2, 75984, Note_on_c, 0, 65, 0
2, 75992, Note_on_c, 0, 53, 0
2, 76002, Note_on_c, 0, 55, 32
2, 76006, Note_on_c, 0, 67, 41
2, 76012, Note_on_c, 0, 55, 0
2, 76014, Note_on_c, 0, 67, 0
2, 76047, Note_on_c, 0, 72, 85
2, 76052, Note_on_c, 0, 60, 71
2, 76114, Note_on_c, 0, 72, 0
2, 76128, Note_on_c, 0, 60, 0
2, 76131, Note_on_c, 0, 71, 45
2, 76133, Note_on_c, 0, 59, 38
2, 76154, Note_on_c, 0, 59, 0
2, 76156, Note_on_c, 0, 71, 0
2, 76172, Note_on_c, 0, 67, 43
2, 76184, Note_on_c, 0, 67, 0
2, 76199, Note_on_c, 0, 60, 55
2, 76200, Note_on_c, 0, 72, 69
2, 76245, Note_on_c, 0, 72, 0
2, 76253, Note_on_c, 0, 60, 0
2, 76255, Note_on_c, 0, 59, 62
2, 76256, Note_on_c, 0, 71, 70
2, 76291, Note_on_c, 0, 71, 0
2, 76300, Note_on_c, 0, 59, 0
2, 76314, Note_on_c, 0, 55, 48
2, 76315, Note_on_c, 0, 67, 36
2, 76338, Note_on_c, 0, 67, 0
2, 76346, Note_on_c, 0, 55, 0
2, 76386, Note_on_c, 0, 62, 39
2, 76393, Note_on_c, 0, 50, 37
2, 76400, Note_on_c, 0, 62, 0
2, 76404, Note_on_c, 0, 50, 0
2, 76680, Note_on_c, 0, 85, 71
2, 76681, Note_on_c, 0, 73, 62
2, 76692, Note_on_c, 0, 73, 0
2, 76693, Note_on_c, 0, 86, 38
2, 76702, Note_on_c, 0, 85, 0
2, 76702, Note_on_c, 0, 74, 38
2, 76722, Note_on_c, 0, 74, 0
2, 76722, Note_on_c, 0, 86, 0
2, 76745, Note_on_c, 0, 86, 63
2, 76748, Note_on_c, 0, 74, 65
2, 76770, Note_on_c, 0, 74, 0
2, 76773, Note_on_c, 0, 86, 0
2, 76802, Note_on_c, 0, 85, 36
2, 76804, Note_on_c, 0, 73, 40
2, 76818, Note_on_c, 0, 73, 0
2, 76824, Note_on_c, 0, 85, 0
2, 76826, Note_on_c, 0, 74, 33
2, 76849, Note_on_c, 0, 74, 0
2, 76851, Note_on_c, 0, 86, 44
2, 76874, Note_on_c, 0, 86, 0
2, 76902, Note_on_c, 0, 74, 68
2, 76903, Note_on_c, 0, 86, 62
2, 76910, Note_on_c, 0, 74, 0
2, 76911, Note_on_c, 0, 86, 0
2, 76984, Note_on_c, 0, 55, 40
2, 76985, Note_on_c, 0, 86, 64
2, 76986, Note_on_c, 0, 74, 58
2, 76986, Note_on_c, 0, 60, 27
2, 76987, Note_on_c, 0, 83, 39
2, 76988, Note_on_c, 0, 79, 43
2, 76991, Note_on_c, 0, 50, 32
2, 77032, Control_c, 0, 64, 127
2, 77123, Note_on_c, 0, 55, 0
2, 77127, Note_on_c, 0, 50, 0
2, 77128, Note_on_c, 0, 60, 0
2, 77226, Note_on_c, 0, 62, 46
2, 77230, Note_on_c, 0, 57, 35
2, 77232, Note_on_c, 0, 52, 33
2, 77243, Control_c, 0, 64, 0
2, 77280, Control_c, 0, 64, 127
2, 77299, Note_on_c, 0, 52, 0
2, 77302, Note_on_c, 0, 74, 0
2, 77302, Note_on_c, 0, 86, 0
2, 77304, Note_on_c, 0, 62, 0
2, 77307, Note_on_c, 0, 83, 0
2, 77311, Note_on_c, 0, 57, 0
2, 77313, Note_on_c, 0, 79, 0
2, 77332, Note_on_c, 0, 57, 44
2, 77333, Note_on_c, 0, 62, 54
2, 77334, Note_on_c, 0, 84, 64
2, 77336, Note_on_c, 0, 72, 49
2, 77340, Note_on_c, 0, 79, 31
2, 77342, Note_on_c, 0, 62, 0
2, 77345, Note_on_c, 0, 72, 0
2, 77346, Note_on_c, 0, 57, 0
2, 77352, Note_on_c, 0, 79, 0
2, 77354, Note_on_c, 0, 84, 0
2, 77414, Note_on_c, 0, 57, 64
2, 77415, Note_on_c, 0, 62, 62
2, 77415, Note_on_c, 0, 86, 72
2, 77415, Note_on_c, 0, 74, 70
2, 77421, Note_on_c, 0, 57, 0
2, 77421, Control_c, 0, 64, 0
2, 77422, Note_on_c, 0, 62, 0
2, 77425, Note_on_c, 0, 74, 0
2, 77431, Note_on_c, 0, 86, 0
2, 77474, Control_c, 0, 64, 127
2, 77500, Note_on_c, 0, 62, 45
2, 77500, Note_on_c, 0, 76, 56
2, 77500, Note_on_c, 0, 57, 44
2, 77500, Note_on_c, 0, 88, 52
2, 77507, Note_on_c, 0, 62, 0
2, 77508, Note_on_c, 0, 76, 0
2, 77509, Note_on_c, 0, 57, 0
2, 77510, Note_on_c, 0, 88, 0
2, 77524, Control_c, 0, 64, 0
2, 77526, Note_on_c, 0, 57, 64
2, 77527, Note_on_c, 0, 62, 62
2, 77527, Note_on_c, 0, 52, 72
2, 77529, Note_on_c, 0, 91, 87
2, 77530, Note_on_c, 0, 79, 78
2, 77572, Note_on_c, 0, 91, 0
2, 77578, Control_c, 0, 64, 127
2, 77579, Note_on_c, 0, 79, 0
2, 77592, Note_on_c, 0, 52, 0
2, 77592, Note_on_c, 0, 62, 0
2, 77597, Note_on_c, 0, 57, 0
2, 77606, Control_c, 0, 64, 0
2, 77615, Note_on_c, 0, 57, 64
2, 77616, Note_on_c, 0, 62, 65
2, 77617, Note_on_c, 0, 88, 68
2, 77618, Note_on_c, 0, 52, 57
2, 77619, Note_on_c, 0, 76, 62
2, 77620, Note_on_c, 0, 83, 67
2, 77626, Note_on_c, 0, 52, 0
2, 77627, Note_on_c, 0, 62, 0
2, 77628, Note_on_c, 0, 83, 0
2, 77631, Note_on_c, 0, 88, 0
2, 77631, Note_on_c, 0, 76, 0
2, 77633, Note_on_c, 0, 57, 0
2, 77646, Note_on_c, 0, 57, 48
2, 77646, Note_on_c, 0, 86, 64
2, 77647, Note_on_c, 0, 62, 55
2, 77650, Note_on_c, 0, 74, 54
2, 77653, Note_on_c, 0, 52, 17
2, 77661, Note_on_c, 0, 74, 0
2, 77662, Note_on_c, 0, 52, 0
2, 77663, Note_on_c, 0, 62, 0
2, 77667, Note_on_c, 0, 86, 0
2, 77671, Note_on_c, 0, 57, 0
2, 77708, Note_on_c, 0, 62, 59
2, 77708, Note_on_c, 0, 52, 39
2, 77710, Note_on_c, 0, 57, 32
2, 77710, Note_on_c, 0, 72, 66
2, 77711, Note_on_c, 0, 84, 68
2, 77716, Note_on_c, 0, 62, 0
2, 77717, Note_on_c, 0, 52, 0
2, 77717, Control_c, 0, 64, 127
2, 77718, Note_on_c, 0, 72, 0
2, 77718, Note_on_c, 0, 84, 0
2, 77719, Note_on_c, 0, 57, 0
2, 77727, Control_c, 0, 64, 0
2, 77769, Note_on_c, 0, 67, 70
2, 77769, Note_on_c, 0, 82, 55
2, 77770, Note_on_c, 0, 63, 55
2, 77771, Note_on_c, 0, 62, 60
2, 77771, Note_on_c, 0, 58, 56
2, 77772, Note_on_c, 0, 70, 59
2, 77772, Control_c, 0, 64, 127
2, 77774, Note_on_c, 0, 75, 48
2, 77775, Note_on_c, 0, 79, 35
2, 77829, Note_on_c, 0, 70, 0
2, 77830, Note_on_c, 0, 67, 0
2, 77831, Note_on_c, 0, 82, 0
2, 77833, Note_on_c, 0, 58, 0
2, 77833, Note_on_c, 0, 75, 0
2, 77834, Note_on_c, 0, 62, 0
2, 77837, Note_on_c, 0, 63, 0
2, 77838, Note_on_c, 0, 79, 0
2, 77855, Control_c, 0, 64, 0
2, 77856, Note_on_c, 0, 82, 54
2, 77858, Note_on_c, 0, 75, 51
2, 77861, Note_on_c, 0, 67, 58
2, 77862, Note_on_c, 0, 63, 45
2, 77862, Note_on_c, 0, 58, 50
2, 77865, Note_on_c, 0, 62, 50
2, 77867, Note_on_c, 0, 75, 0
2, 77870, Note_on_c, 0, 67, 0
2, 77872, Note_on_c, 0, 62, 0
2, 77874, Note_on_c, 0, 82, 0
2, 77878, Note_on_c, 0, 58, 0
2, 77879, Note_on_c, 0, 63, 0
2, 77945, Note_on_c, 0, 63, 35
2, 77946, Note_on_c, 0, 82, 51
2, 77947, Note_on_c, 0, 62, 49
2, 77948, Note_on_c, 0, 67, 44
2, 77949, Note_on_c, 0, 58, 52
2, 77949, Note_on_c, 0, 70, 45
2, 77949, Note_on_c, 0, 75, 45
2, 77951, Note_on_c, 0, 79, 35
2, 77985, Control_c, 0, 64, 127
2, 78066, Note_on_c, 0, 67, 0
2, 78066, Note_on_c, 0, 62, 0
2, 78068, Note_on_c, 0, 63, 0
2, 78070, Note_on_c, 0, 58, 0
2, 78114, Control_c, 0, 64, 0
2, 78122, Note_on_c, 0, 67, 39
2, 78124, Note_on_c, 0, 62, 34
2, 78125, Note_on_c, 0, 63, 28
2, 78132, Note_on_c, 0, 67, 0
2, 78134, Note_on_c, 0, 62, 0
2, 78137, Note_on_c, 0, 63, 0
2, 78213, Note_on_c, 0, 67, 34
2, 78216, Note_on_c, 0, 62, 26
2, 78217, Note_on_c, 0, 63, 29
2, 78227, Note_on_c, 0, 67, 0
2, 78228, Note_on_c, 0, 62, 0
2, 78234, Note_on_c, 0, 63, 0
2, 78300, Note_on_c, 0, 67, 46
2, 78303, Note_on_c, 0, 62, 35
2, 78304, Note_on_c, 0, 63, 31
2, 78310, Note_on_c, 0, 67, 0
2, 78313, Note_on_c, 0, 62, 0
2, 78319, Note_on_c, 0, 63, 0
2, 78389, Note_on_c, 0, 67, 39
2, 78391, Note_on_c, 0, 62, 38
2, 78391, Note_on_c, 0, 63, 31
2, 78400, Note_on_c, 0, 67, 0
2, 78401, Note_on_c, 0, 62, 0
2, 78406, Note_on_c, 0, 63, 0
2, 78472, Note_on_c, 0, 62, 47
2, 78473, Note_on_c, 0, 67, 44
2, 78474, Note_on_c, 0, 63, 36
2, 78482, Note_on_c, 0, 67, 0
2, 78485, Note_on_c, 0, 62, 0
2, 78495, Note_on_c, 0, 63, 0
2, 78568, Note_on_c, 0, 67, 40
2, 78568, Note_on_c, 0, 62, 38
2, 78570, Note_on_c, 0, 63, 35
2, 78572, Note_on_c, 0, 58, 31
2, 78578, Note_on_c, 0, 67, 0
2, 78588, Note_on_c, 0, 58, 0
2, 78588, Note_on_c, 0, 62, 0
2, 78591, Note_on_c, 0, 63, 0
2, 78617, Note_on_c, 0, 79, 0
2, 78621, Note_on_c, 0, 58, 52
2, 78628, Note_on_c, 0, 63, 27
2, 78629, Note_on_c, 0, 70, 0
2, 78634, Note_on_c, 0, 82, 0
2, 78635, Note_on_c, 0, 75, 0
2, 78646, Note_on_c, 0, 58, 0
2, 78653, Note_on_c, 0, 81, 54
2, 78655, Note_on_c, 0, 75, 43
2, 78656, Note_on_c, 0, 69, 55
2, 78678, Note_on_c, 0, 81, 0
2, 78680, Note_on_c, 0, 69, 0
2, 78683, Note_on_c, 0, 63, 0
2, 78697, Note_on_c, 0, 75, 0
2, 78719, Note_on_c, 0, 80, 44
2, 78722, Note_on_c, 0, 75, 53
2, 78722, Note_on_c, 0, 63, 35
2, 78723, Note_on_c, 0, 67, 38
2, 78724, Note_on_c, 0, 56, 40
2, 78725, Note_on_c, 0, 60, 35
2, 78787, Note_on_c, 0, 67, 0
2, 78787, Control_c, 0, 64, 127
2, 78789, Note_on_c, 0, 56, 0
2, 78792, Note_on_c, 0, 60, 0
2, 78795, Note_on_c, 0, 80, 0
2, 78797, Note_on_c, 0, 63, 0
2, 78797, Note_on_c, 0, 75, 0
2, 78808, Note_on_c, 0, 80, 50
2, 78811, Note_on_c, 0, 75, 49
2, 78813, Note_on_c, 0, 68, 51
2, 78815, Note_on_c, 0, 60, 37
2, 78816, Note_on_c, 0, 63, 39
2, 78816, Note_on_c, 0, 56, 48
2, 78816, Note_on_c, 0, 67, 45
2, 78818, Control_c, 0, 64, 0
2, 78840, Control_c, 0, 64, 127
2, 78860, Note_on_c, 0, 67, 0
2, 78860, Note_on_c, 0, 56, 0
2, 78862, Note_on_c, 0, 60, 0
2, 78867, Note_on_c, 0, 68, 0
2, 78870, Note_on_c, 0, 80, 0
2, 78873, Note_on_c, 0, 63, 0
2, 78877, Note_on_c, 0, 75, 0
2, 78898, Note_on_c, 0, 80, 60
2, 78899, Control_c, 0, 64, 0
2, 78900, Note_on_c, 0, 68, 61
2, 78900, Note_on_c, 0, 75, 67
2, 78901, Note_on_c, 0, 60, 50
2, 78901, Note_on_c, 0, 63, 55
2, 78902, Note_on_c, 0, 56, 57
2, 78904, Note_on_c, 0, 67, 56
2, 78949, Control_c, 0, 64, 127
2, 79043, Note_on_c, 0, 67, 0
2, 79058, Note_on_c, 0, 60, 0
2, 79060, Note_on_c, 0, 63, 0
2, 79071, Note_on_c, 0, 56, 0
2, 79086, Note_on_c, 0, 80, 0
2, 79087, Note_on_c, 0, 75, 0
2, 79087, Note_on_c, 0, 68, 0
2, 79239, Note_on_c, 0, 68, 73
2, 79240, Note_on_c, 0, 65, 74
2, 79242, Note_on_c, 0, 60, 67
2, 79243, Note_on_c, 0, 55, 64
2, 79249, Control_c, 0, 64, 0
2, 79284, Control_c, 0, 64, 127
2, 79307, Note_on_c, 0, 68, 0
2, 79308, Note_on_c, 0, 60, 0
2, 79316, Note_on_c, 0, 70, 59
2, 79322, Note_on_c, 0, 56, 53
2, 79326, Note_on_c, 0, 55, 0
2, 79331, Control_c, 0, 64, 0
2, 79335, Note_on_c, 0, 65, 0
2, 79338, Note_on_c, 0, 70, 0
2, 79355, Note_on_c, 0, 56, 0
2, 79378, Control_c, 0, 64, 127
2, 79381, Note_on_c, 0, 72, 64
2, 79393, Control_c, 0, 64, 0
2, 79397, Note_on_c, 0, 72, 0
2, 79438, Note_on_c, 0, 75, 67
2, 79441, Note_on_c, 0, 63, 61
2, 79441, Note_on_c, 0, 68, 58
2, 79443, Note_on_c, 0, 65, 56
2, 79450, Note_on_c, 0, 65, 0
2, 79450, Control_c, 0, 64, 127
2, 79453, Note_on_c, 0, 63, 0
2, 79455, Note_on_c, 0, 68, 0
2, 79456, Note_on_c, 0, 75, 0
2, 79462, Control_c, 0, 64, 0
2, 79499, Note_on_c, 0, 65, 67
2, 79500, Note_on_c, 0, 72, 54
2, 79502, Note_on_c, 0, 60, 43
2, 79515, Note_on_c, 0, 60, 0
2, 79518, Note_on_c, 0, 72, 0
2, 79518, Note_on_c, 0, 65, 0
2, 79555, Control_c, 0, 64, 127
2, 79562, Note_on_c, 0, 70, 40
2, 79566, Note_on_c, 0, 56, 34
2, 79572, Note_on_c, 0, 65, 17
2, 79574, Note_on_c, 0, 70, 0
2, 79584, Control_c, 0, 64, 0
2, 79590, Note_on_c, 0, 65, 0
2, 79597, Note_on_c, 0, 56, 0
2, 79607, Control_c, 0, 64, 127
2, 79608, Note_on_c, 0, 54, 44
2, 79625, Note_on_c, 0, 54, 0
2, 79632, Control_c, 0, 64, 0
2, 79654, Note_on_c, 0, 62, 44
2, 79655, Note_on_c, 0, 67, 48
2, 79655, Note_on_c, 0, 52, 40
2, 79656, Note_on_c, 0, 57, 40
2, 79698, Note_on_c, 0, 67, 0
2, 79707, Note_on_c, 0, 57, 0
2, 79713, Note_on_c, 0, 62, 0
2, 79736, Note_on_c, 0, 52, 0
2, 79739, Note_on_c, 0, 61, 45
2, 79743, Note_on_c, 0, 66, 28
2, 79744, Note_on_c, 0, 51, 30
2, 79758, Note_on_c, 0, 66, 0
2, 79769, Note_on_c, 0, 61, 0
2, 79773, Note_on_c, 0, 51, 0
2, 79803, Note_on_c, 0, 67, 37
2, 79805, Note_on_c, 0, 57, 36
2, 79806, Note_on_c, 0, 52, 29
2, 79811, Note_on_c, 0, 62, 33
2, 79814, Note_on_c, 0, 67, 0
2, 79820, Note_on_c, 0, 52, 0
2, 79822, Note_on_c, 0, 57, 0
2, 79822, Note_on_c, 0, 62, 0
2, 79867, Note_on_c, 0, 51, 33
2, 79868, Note_on_c, 0, 56, 32
2, 79868, Note_on_c, 0, 66, 32
2, 79868, Note_on_c, 0, 61, 33
2, 79888, Note_on_c, 0, 56, 0
2, 79894, Note_on_c, 0, 61, 0
2, 79894, Note_on_c, 0, 66, 0
2, 79897, Note_on_c, 0, 51, 0
2, 79903, Note_on_c, 0, 52, 33
2, 79906, Note_on_c, 0, 67, 31
2, 79907, Note_on_c, 0, 57, 20
2, 79911, Note_on_c, 0, 62, 30
2, 80064, Note_on_c, 0, 67, 0
2, 80072, Note_on_c, 0, 57, 0
2, 80075, Note_on_c, 0, 62, 0
2, 80104, Note_on_c, 0, 52, 0
2, 80104, Note_on_c, 0, 51, 35
2, 80106, Note_on_c, 0, 66, 30
2, 80108, Note_on_c, 0, 56, 23
2, 80108, Note_on_c, 0, 61, 34
2, 80142, Note_on_c, 0, 56, 0
2, 80145, Note_on_c, 0, 61, 0
2, 80147, Note_on_c, 0, 66, 0
2, 80149, Note_on_c, 0, 51, 0
2, 80151, Note_on_c, 0, 52, 43
2, 80152, Note_on_c, 0, 57, 34
2, 80157, Note_on_c, 0, 67, 31
2, 80162, Note_on_c, 0, 62, 26
2, 80258, Control_c, 0, 64, 127
2, 80303, Note_on_c, 0, 57, 0
2, 80307, Note_on_c, 0, 52, 0
2, 80339, Note_on_c, 0, 62, 0
2, 80365, Note_on_c, 0, 67, 0
2, 80644, Note_on_c, 0, 67, 41
2, 80646, Note_on_c, 0, 57, 44
2, 80647, Note_on_c, 0, 60, 33
2, 80648, Note_on_c, 0, 55, 40
2, 80649, Note_on_c, 0, 65, 40
2, 80889, Control_c, 0, 64, 127
2, 81260, Note_on_c, 0, 55, 0
2, 81309, Note_on_c, 0, 60, 0
2, 81315, Note_on_c, 0, 67, 0
2, 81316, Note_on_c, 0, 57, 0
2, 81318, Note_on_c, 0, 65, 0
2, 81343, Note_on_c, 0, 50, 62
2, 81351, Note_on_c, 0, 51, 38
2, 81364, Note_on_c, 0, 52, 79
2, 81367, Note_on_c, 0, 51, 0
2, 81372, Control_c, 0, 64, 0
2, 81373, Note_on_c, 0, 50, 0
2, 81378, Note_on_c, 0, 57, 70
2, 81379, Note_on_c, 0, 65, 67
2, 81379, Note_on_c, 0, 60, 60
2, 81382, Note_on_c, 0, 53, 81
2, 81383, Note_on_c, 0, 62, 59
2, 81390, Note_on_c, 0, 52, 0
2, 81400, Note_on_c, 0, 62, 0
2, 81431, Control_c, 0, 64, 127
2, 81448, Note_on_c, 0, 57, 0
2, 81460, Note_on_c, 0, 60, 0
2, 81460, Note_on_c, 0, 65, 0
2, 81461, Note_on_c, 0, 54, 38
2, 81466, Note_on_c, 0, 53, 0
2, 81475, Note_on_c, 0, 53, 19
2, 81486, Note_on_c, 0, 53, 0
2, 81487, Note_on_c, 0, 56, 59
2, 81489, Note_on_c, 0, 54, 0
2, 81495, Note_on_c, 0, 60, 46
2, 81495, Note_on_c, 0, 69, 49
2, 81495, Note_on_c, 0, 65, 55
2, 81497, Control_c, 0, 64, 0
2, 81497, Note_on_c, 0, 62, 66
2, 81498, Note_on_c, 0, 57, 72
2, 81499, Note_on_c, 0, 56, 0
2, 81550, Control_c, 0, 64, 127
2, 81560, Note_on_c, 0, 62, 0
2, 81560, Note_on_c, 0, 65, 0
2, 81561, Note_on_c, 0, 69, 0
2, 81569, Note_on_c, 0, 60, 0
2, 81571, Note_on_c, 0, 57, 0
2, 81599, Note_on_c, 0, 51, 6
2, 81613, Control_c, 0, 64, 0
2, 81615, Note_on_c, 0, 67, 35
2, 81616, Note_on_c, 0, 55, 45
2, 81616, Note_on_c, 0, 65, 20
2, 81617, Note_on_c, 0, 60, 35
2, 81619, Note_on_c, 0, 51, 0
2, 81622, Note_on_c, 0, 57, 31
2, 81684, Control_c, 0, 64, 127
2, 81699, Note_on_c, 0, 57, 0
2, 81709, Note_on_c, 0, 60, 0
2, 81724, Note_on_c, 0, 67, 0
2, 81729, Note_on_c, 0, 65, 0
2, 81739, Note_on_c, 0, 55, 0
2, 82021, Note_on_c, 0, 90, 32
2, 82022, Note_on_c, 0, 91, 49
2, 82024, Note_on_c, 0, 55, 40
2, 82031, Note_on_c, 0, 54, 21
2, 82038, Note_on_c, 0, 54, 0
2, 82039, Note_on_c, 0, 90, 0
2, 82044, Control_c, 0, 64, 0
2, 82114, Control_c, 0, 64, 127
2, 82210, Note_on_c, 0, 55, 0
2, 82214, Note_on_c, 0, 91, 0
2, 82899, Control_c, 0, 64, 0
2, 83047, Control_c, 0, 64, 127
2, 83274, Note_on_c, 0, 51, 35
2, 83284, Note_on_c, 0, 99, 51
2, 83289, Note_on_c, 0, 52, 57
2, 83291, Note_on_c, 0, 51, 0
2, 83295, Note_on_c, 0, 53, 60
2, 83298, Note_on_c, 0, 52, 0
2, 83298, Control_c, 0, 64, 0
2, 83299, Note_on_c, 0, 101, 57
2, 83306, Note_on_c, 0, 99, 0
2, 83339, Control_c, 0, 64, 127
2, 83400, Note_on_c, 0, 101, 0
2, 83408, Control_c, 0, 64, 0
2, 83410, Note_on_c, 0, 53, 0
2, 83410, Note_on_c, 0, 50, 48
2, 83412, Note_on_c, 0, 98, 36
2, 83441, Control_c, 0, 64, 127
2, 83511, Note_on_c, 0, 98, 0
2, 83512, Note_on_c, 0, 50, 0
2, 83523, Note_on_c, 0, 96, 38
2, 83525, Note_on_c, 0, 48, 53
2, 83527, Control_c, 0, 64, 0
2, 83542, Note_on_c, 0, 96, 0
2, 83544, Note_on_c, 0, 48, 0
2, 83723, Note_on_c, 0, 41, 32
2, 83735, Note_on_c, 0, 89, 13
2, 83742, Note_on_c, 0, 42, 42
2, 83744, Note_on_c, 0, 90, 56
2, 83745, Note_on_c, 0, 41, 0
2, 83754, Note_on_c, 0, 89, 0
2, 83764, Note_on_c, 0, 42, 0
2, 83768, Note_on_c, 0, 91, 64
2, 83770, Note_on_c, 0, 90, 0
2, 83770, Note_on_c, 0, 43, 44
2, 83805, Note_on_c, 0, 91, 0
2, 83811, Note_on_c, 0, 43, 0
2, 83980, Note_on_c, 0, 34, 18
2, 83995, Note_on_c, 0, 83, 51
2, 83999, Note_on_c, 0, 35, 37
2, 84002, Note_on_c, 0, 34, 0
2, 84014, Note_on_c, 0, 84, 62
2, 84014, Note_on_c, 0, 36, 36
2, 84016, Note_on_c, 0, 35, 0
2, 84016, Note_on_c, 0, 83, 0
2, 84034, Note_on_c, 0, 84, 0
2, 84035, Note_on_c, 0, 36, 0
2, 84134, Note_on_c, 0, 78, 44
2, 84142, Note_on_c, 0, 30, 20
2, 84143, Note_on_c, 0, 31, 35
2, 84151, Note_on_c, 0, 79, 40
2, 84155, Note_on_c, 0, 30, 0
2, 84155, Note_on_c, 0, 78, 0
2, 84172, Note_on_c, 0, 79, 0
2, 84175, Note_on_c, 0, 31, 0
2, 84266, Note_on_c, 0, 24, 35
2, 84274, Note_on_c, 0, 72, 19
2, 84316, Note_on_c, 0, 72, 0
2, 84317, Note_on_c, 0, 24, 0
2, 84317, End_track
3, 0, Start_track
3, 0, Control_c, 1, 0, 0
3, 0, Control_c, 1, 7, 106
3, 0, Control_c, 1, 93, 0
3, 0, Control_c, 1, 32, 2
3, 0, Program_c, 1, 32
3, 12, Note_on_c, 1, 31, 94
3, 223, Note_on_c, 1, 35, 95
3, 230, Note_on_c, 1, 31, 0
3, 246, Note_on_c, 1, 35, 0
3, 279, Note_on_c, 1, 35, 90
3, 313, Note_on_c, 1, 35, 0
3, 335, Note_on_c, 1, 36, 78
3, 363, Note_on_c, 1, 36, 0
3, 364, Note_on_c, 1, 38, 77
3, 416, Note_on_c, 1, 38, 0
3, 427, Note_on_c, 1, 45, 74
3, 428, Note_on_c, 1, 43, 71
3, 436, Note_on_c, 1, 45, 0
3, 477, Note_on_c, 1, 43, 0
3, 479, Note_on_c, 1, 31, 84
3, 696, Note_on_c, 1, 31, 0
3, 701, Note_on_c, 1, 35, 94
3, 729, Note_on_c, 1, 35, 0
3, 763, Note_on_c, 1, 35, 92
3, 793, Note_on_c, 1, 35, 0
3, 819, Note_on_c, 1, 36, 75
3, 843, Note_on_c, 1, 36, 0
3, 846, Note_on_c, 1, 38, 77
3, 902, Note_on_c, 1, 38, 0
3, 905, Note_on_c, 1, 43, 103
3, 943, Note_on_c, 1, 43, 0
3, 962, Note_on_c, 1, 31, 92
3, 1164, Note_on_c, 1, 31, 0
3, 1177, Note_on_c, 1, 35, 90
3, 1200, Note_on_c, 1, 35, 0
3, 1242, Note_on_c, 1, 35, 96
3, 1266, Note_on_c, 1, 35, 0
3, 1296, Note_on_c, 1, 36, 84
3, 1319, Note_on_c, 1, 36, 0
3, 1325, Note_on_c, 1, 38, 82
3, 1381, Note_on_c, 1, 43, 101
3, 1385, Note_on_c, 1, 38, 0
3, 1432, Note_on_c, 1, 43, 0
3, 1440, Note_on_c, 1, 31, 91
3, 1649, Note_on_c, 1, 31, 0
3, 1656, Note_on_c, 1, 35, 94
3, 1684, Note_on_c, 1, 35, 0
3, 1722, Note_on_c, 1, 35, 103
3, 1752, Note_on_c, 1, 35, 0
3, 1774, Note_on_c, 1, 36, 82
3, 1800, Note_on_c, 1, 38, 84
3, 1803, Note_on_c, 1, 36, 0
3, 1859, Note_on_c, 1, 43, 95
3, 1862, Note_on_c, 1, 38, 0
3, 1913, Note_on_c, 1, 43, 0
3, 1918, Note_on_c, 1, 31, 92
3, 2135, Note_on_c, 1, 35, 89
3, 2138, Note_on_c, 1, 31, 0
3, 2157, Note_on_c, 1, 35, 0
3, 2196, Note_on_c, 1, 35, 91
3, 2219, Note_on_c, 1, 35, 0
3, 2250, Note_on_c, 1, 36, 76
3, 2280, Note_on_c, 1, 38, 82
3, 2289, Note_on_c, 1, 36, 0
3, 2340, Note_on_c, 1, 38, 0
3, 2341, Note_on_c, 1, 43, 103
3, 2392, Note_on_c, 1, 43, 0
3, 2399, Note_on_c, 1, 31, 82
3, 2602, Note_on_c, 1, 31, 0
3, 2616, Note_on_c, 1, 35, 90
3, 2638, Note_on_c, 1, 35, 0
3, 2674, Note_on_c, 1, 35, 88
3, 2695, Note_on_c, 1, 35, 0
3, 2729, Note_on_c, 1, 36, 73
3, 2756, Note_on_c, 1, 38, 78
3, 2757, Note_on_c, 1, 36, 0
3, 2813, Note_on_c, 1, 38, 0
3, 2819, Note_on_c, 1, 43, 85
3, 2846, Note_on_c, 1, 43, 0
3, 2877, Note_on_c, 1, 36, 87
3, 3102, Note_on_c, 1, 43, 79
3, 3115, Note_on_c, 1, 43, 0
3, 3146, Note_on_c, 1, 36, 0
3, 3160, Note_on_c, 1, 43, 80
3, 3175, Note_on_c, 1, 43, 0
3, 3212, Note_on_c, 1, 36, 47
3, 3237, Note_on_c, 1, 43, 78
3, 3245, Note_on_c, 1, 36, 0
3, 3302, Note_on_c, 1, 45, 71
3, 3310, Note_on_c, 1, 43, 0
3, 3323, Note_on_c, 1, 45, 0
3, 3362, Note_on_c, 1, 36, 74
3, 3519, Note_on_c, 1, 36, 0
3, 3544, Note_on_c, 1, 31, 99
3, 3713, Note_on_c, 1, 31, 0
3, 3721, Note_on_c, 1, 35, 83
3, 3826, Note_on_c, 1, 35, 0
3, 3837, Note_on_c, 1, 36, 66
3, 4058, Note_on_c, 1, 40, 80
3, 4078, Note_on_c, 1, 36, 0
3, 4079, Note_on_c, 1, 40, 0
3, 4120, Note_on_c, 1, 40, 81
3, 4144, Note_on_c, 1, 40, 0
3, 4186, Note_on_c, 1, 41, 76
3, 4202, Note_on_c, 1, 41, 0
3, 4212, Note_on_c, 1, 43, 71
3, 4261, Note_on_c, 1, 43, 0
3, 4264, Note_on_c, 1, 31, 72
3, 4319, Note_on_c, 1, 31, 0
3, 4323, Note_on_c, 1, 36, 75
3, 4545, Note_on_c, 1, 40, 81
3, 4566, Note_on_c, 1, 40, 0
3, 4603, Note_on_c, 1, 40, 77
3, 4630, Note_on_c, 1, 40, 0
3, 4639, Note_on_c, 1, 36, 0
3, 4657, Note_on_c, 1, 41, 64
3, 4672, Note_on_c, 1, 41, 0
3, 4683, Note_on_c, 1, 43, 71
3, 4737, Note_on_c, 1, 43, 0
3, 4745, Note_on_c, 1, 31, 74
3, 4787, Note_on_c, 1, 31, 0
3, 4803, Note_on_c, 1, 36, 87
3, 5020, Note_on_c, 1, 39, 83
3, 5037, Note_on_c, 1, 36, 0
3, 5041, Note_on_c, 1, 39, 0
3, 5081, Note_on_c, 1, 39, 84
3, 5106, Note_on_c, 1, 39, 0
3, 5136, Note_on_c, 1, 41, 72
3, 5150, Note_on_c, 1, 41, 0
3, 5162, Note_on_c, 1, 43, 79
3, 5215, Note_on_c, 1, 43, 0
3, 5218, Note_on_c, 1, 31, 76
3, 5267, Note_on_c, 1, 31, 0
3, 5277, Note_on_c, 1, 36, 85
3, 5498, Note_on_c, 1, 39, 80
3, 5520, Note_on_c, 1, 39, 0
3, 5559, Note_on_c, 1, 39, 81
3, 5563, Note_on_c, 1, 36, 0
3, 5586, Note_on_c, 1, 39, 0
3, 5617, Note_on_c, 1, 41, 58
3, 5633, Note_on_c, 1, 41, 0
3, 5643, Note_on_c, 1, 43, 74
3, 5694, Note_on_c, 1, 43, 0
3, 5702, Note_on_c, 1, 31, 62
3, 5737, Note_on_c, 1, 31, 0
3, 5760, Note_on_c, 1, 41, 85
3, 5897, Note_on_c, 1, 41, 0
3, 5981, Note_on_c, 1, 44, 74
3, 6002, Note_on_c, 1, 44, 0
3, 6041, Note_on_c, 1, 44, 67
3, 6045, Note_on_c, 1, 41, 26
3, 6052, Note_on_c, 1, 41, 0
3, 6059, Note_on_c, 1, 44, 0
3, 6096, Note_on_c, 1, 48, 73
3, 6113, Note_on_c, 1, 48, 0
3, 6124, Note_on_c, 1, 50, 84
3, 6167, Note_on_c, 1, 50, 0
3, 6182, Note_on_c, 1, 41, 66
3, 6215, Note_on_c, 1, 41, 0
3, 6243, Note_on_c, 1, 31, 71
3, 6301, Note_on_c, 1, 43, 90
3, 6303, Note_on_c, 1, 31, 0
3, 6425, Note_on_c, 1, 44, 81
3, 6429, Note_on_c, 1, 43, 0
3, 6458, Note_on_c, 1, 43, 74
3, 6461, Note_on_c, 1, 44, 0
3, 6483, Note_on_c, 1, 43, 0
3, 6516, Note_on_c, 1, 43, 72
3, 6522, Note_on_c, 1, 41, 25
3, 6528, Note_on_c, 1, 41, 0
3, 6534, Note_on_c, 1, 43, 0
3, 6569, Note_on_c, 1, 31, 74
3, 6601, Note_on_c, 1, 35, 78
3, 6617, Note_on_c, 1, 35, 0
3, 6639, Note_on_c, 1, 31, 0
3, 6658, Note_on_c, 1, 35, 85
3, 6699, Note_on_c, 1, 35, 0
3, 6718, Note_on_c, 1, 36, 78
3, 6937, Note_on_c, 1, 40, 79
3, 6945, Note_on_c, 1, 36, 0
3, 6958, Note_on_c, 1, 40, 0
3, 6995, Note_on_c, 1, 40, 75
3, 7018, Note_on_c, 1, 40, 0
3, 7051, Note_on_c, 1, 41, 66
3, 7067, Note_on_c, 1, 41, 0
3, 7078, Note_on_c, 1, 43, 69
3, 7134, Note_on_c, 1, 43, 0
3, 7136, Note_on_c, 1, 31, 68
3, 7171, Note_on_c, 1, 31, 0
3, 7202, Note_on_c, 1, 36, 82
3, 7421, Note_on_c, 1, 43, 82
3, 7437, Note_on_c, 1, 43, 0
3, 7461, Note_on_c, 1, 36, 0
3, 7478, Note_on_c, 1, 43, 94
3, 7502, Note_on_c, 1, 43, 0
3, 7535, Note_on_c, 1, 36, 26
3, 7546, Note_on_c, 1, 36, 0
3, 7554, Note_on_c, 1, 31, 76
3, 7618, Note_on_c, 1, 31, 0
3, 7619, Note_on_c, 1, 35, 75
3, 7670, Note_on_c, 1, 35, 0
3, 7682, Note_on_c, 1, 36, 77
3, 7897, Note_on_c, 1, 40, 79
3, 7919, Note_on_c, 1, 40, 0
3, 7957, Note_on_c, 1, 40, 73
3, 7971, Note_on_c, 1, 36, 0
3, 7977, Note_on_c, 1, 40, 0
3, 8010, Note_on_c, 1, 41, 64
3, 8025, Note_on_c, 1, 41, 0
3, 8038, Note_on_c, 1, 43, 77
3, 8092, Note_on_c, 1, 43, 0
3, 8097, Note_on_c, 1, 31, 68
3, 8150, Note_on_c, 1, 31, 0
3, 8161, Note_on_c, 1, 36, 77
3, 8383, Note_on_c, 1, 40, 72
3, 8401, Note_on_c, 1, 40, 0
3, 8406, Note_on_c, 1, 36, 0
3, 8437, Note_on_c, 1, 40, 76
3, 8458, Note_on_c, 1, 40, 0
3, 8492, Note_on_c, 1, 41, 62
3, 8509, Note_on_c, 1, 41, 0
3, 8521, Note_on_c, 1, 43, 73
3, 8526, Note_on_c, 1, 41, 29
3, 8533, Note_on_c, 1, 41, 0
3, 8576, Note_on_c, 1, 43, 0
3, 8577, Note_on_c, 1, 31, 77
3, 8628, Note_on_c, 1, 31, 0
3, 8640, Note_on_c, 1, 36, 82
3, 8855, Note_on_c, 1, 39, 81
3, 8881, Note_on_c, 1, 39, 0
3, 8918, Note_on_c, 1, 39, 81
3, 8942, Note_on_c, 1, 39, 0
3, 8969, Note_on_c, 1, 41, 67
3, 8985, Note_on_c, 1, 41, 0
3, 8996, Note_on_c, 1, 36, 0
3, 8997, Note_on_c, 1, 43, 80
3, 9049, Note_on_c, 1, 43, 0
3, 9053, Note_on_c, 1, 31, 71
3, 9107, Note_on_c, 1, 31, 0
3, 9116, Note_on_c, 1, 36, 81
3, 9334, Note_on_c, 1, 39, 85
3, 9355, Note_on_c, 1, 39, 0
3, 9397, Note_on_c, 1, 39, 79
3, 9423, Note_on_c, 1, 39, 0
3, 9443, Note_on_c, 1, 36, 0
3, 9451, Note_on_c, 1, 41, 66
3, 9466, Note_on_c, 1, 41, 0
3, 9479, Note_on_c, 1, 43, 71
3, 9536, Note_on_c, 1, 43, 0
3, 9539, Note_on_c, 1, 31, 62
3, 9591, Note_on_c, 1, 31, 0
3, 9600, Note_on_c, 1, 29, 77
3, 9810, Note_on_c, 1, 29, 0
3, 9823, Note_on_c, 1, 44, 85
3, 9840, Note_on_c, 1, 44, 0
3, 9877, Note_on_c, 1, 44, 80
3, 9896, Note_on_c, 1, 44, 0
3, 9933, Note_on_c, 1, 41, 53
3, 9947, Note_on_c, 1, 41, 0
3, 9964, Note_on_c, 1, 48, 82
3, 10013, Note_on_c, 1, 48, 0
3, 10021, Note_on_c, 1, 44, 70
3, 10071, Note_on_c, 1, 44, 0
3, 10082, Note_on_c, 1, 38, 84
3, 10297, Note_on_c, 1, 44, 75
3, 10319, Note_on_c, 1, 44, 0
3, 10324, Note_on_c, 1, 38, 0
3, 10360, Note_on_c, 1, 44, 77
3, 10390, Note_on_c, 1, 44, 0
3, 10419, Note_on_c, 1, 43, 76
3, 10437, Note_on_c, 1, 43, 0
3, 10446, Note_on_c, 1, 38, 44
3, 10492, Note_on_c, 1, 38, 0
3, 10499, Note_on_c, 1, 35, 73
3, 10550, Note_on_c, 1, 35, 0
3, 10561, Note_on_c, 1, 36, 74
3, 10781, Note_on_c, 1, 40, 84
3, 10799, Note_on_c, 1, 36, 0
3, 10800, Note_on_c, 1, 40, 0
3, 10840, Note_on_c, 1, 40, 75
3, 10867, Note_on_c, 1, 40, 0
3, 10893, Note_on_c, 1, 41, 68
3, 10909, Note_on_c, 1, 41, 0
3, 10922, Note_on_c, 1, 43, 77
3, 10955, Note_on_c, 1, 43, 0
3, 10977, Note_on_c, 1, 31, 61
3, 11024, Note_on_c, 1, 31, 0
3, 11042, Note_on_c, 1, 36, 75
3, 11264, Note_on_c, 1, 40, 80
3, 11282, Note_on_c, 1, 40, 0
3, 11323, Note_on_c, 1, 40, 76
3, 11344, Note_on_c, 1, 40, 0
3, 11378, Note_on_c, 1, 41, 73
3, 11392, Note_on_c, 1, 41, 0
3, 11399, Note_on_c, 1, 36, 0
3, 11406, Note_on_c, 1, 43, 74
3, 11431, Note_on_c, 1, 43, 0
3, 11462, Note_on_c, 1, 29, 55
3, 11483, Note_on_c, 1, 29, 0
3, 11519, Note_on_c, 1, 29, 79
3, 11731, Note_on_c, 1, 29, 0
3, 11737, Note_on_c, 1, 44, 80
3, 11762, Note_on_c, 1, 44, 0
3, 11795, Note_on_c, 1, 44, 76
3, 11816, Note_on_c, 1, 44, 0
3, 11849, Note_on_c, 1, 46, 48
3, 11867, Note_on_c, 1, 46, 0
3, 11878, Note_on_c, 1, 48, 68
3, 11923, Note_on_c, 1, 48, 0
3, 11935, Note_on_c, 1, 36, 59
3, 11993, Note_on_c, 1, 36, 0
3, 12000, Note_on_c, 1, 41, 80
3, 12219, Note_on_c, 1, 44, 79
3, 12240, Note_on_c, 1, 44, 0
3, 12281, Note_on_c, 1, 44, 72
3, 12297, Note_on_c, 1, 44, 0
3, 12339, Note_on_c, 1, 48, 60
3, 12358, Note_on_c, 1, 48, 0
3, 12363, Note_on_c, 1, 50, 74
3, 12410, Note_on_c, 1, 41, 0
3, 12411, Note_on_c, 1, 50, 0
3, 12420, Note_on_c, 1, 44, 64
3, 12455, Note_on_c, 1, 44, 0
3, 12480, Note_on_c, 1, 31, 98
3, 12648, Note_on_c, 1, 31, 0
3, 12728, Note_on_c, 1, 33, 82
3, 12960, Note_on_c, 1, 35, 83
3, 12968, Note_on_c, 1, 33, 0
3, 13043, Note_on_c, 1, 35, 82
3, 13050, Note_on_c, 1, 35, 0
3, 13073, Note_on_c, 1, 35, 0
3, 13077, Note_on_c, 1, 33, 82
3, 13196, Note_on_c, 1, 33, 0
3, 13200, Note_on_c, 1, 31, 82
3, 13360, Note_on_c, 1, 31, 0
3, 13375, Note_on_c, 1, 31, 43
3, 13376, Note_on_c, 1, 31, 0
3, 13445, Note_on_c, 1, 41, 71
3, 13661, Note_on_c, 1, 44, 77
3, 13666, Note_on_c, 1, 41, 0
3, 13682, Note_on_c, 1, 44, 0
3, 13715, Note_on_c, 1, 44, 75
3, 13737, Note_on_c, 1, 44, 0
3, 13773, Note_on_c, 1, 48, 70
3, 13787, Note_on_c, 1, 48, 0
3, 13799, Note_on_c, 1, 50, 77
3, 13853, Note_on_c, 1, 50, 0
3, 13861, Note_on_c, 1, 40, 65
3, 13867, Note_on_c, 1, 40, 0
3, 13918, Note_on_c, 1, 41, 79
3, 14143, Note_on_c, 1, 44, 83
3, 14161, Note_on_c, 1, 44, 0
3, 14202, Note_on_c, 1, 41, 0
3, 14202, Note_on_c, 1, 44, 80
3, 14224, Note_on_c, 1, 44, 0
3, 14253, Note_on_c, 1, 41, 49
3, 14265, Note_on_c, 1, 41, 0
3, 14282, Note_on_c, 1, 50, 84
3, 14313, Note_on_c, 1, 50, 0
3, 14338, Note_on_c, 1, 44, 70
3, 14366, Note_on_c, 1, 44, 0
3, 14399, Note_on_c, 1, 31, 94
3, 14742, Note_on_c, 1, 43, 72
3, 14755, Note_on_c, 1, 43, 0
3, 14802, Note_on_c, 1, 43, 74
3, 14813, Note_on_c, 1, 31, 0
3, 14824, Note_on_c, 1, 43, 0
3, 14860, Note_on_c, 1, 31, 56
3, 14892, Note_on_c, 1, 43, 88
3, 15283, Note_on_c, 1, 31, 0
3, 15294, Note_on_c, 1, 43, 0
3, 15302, Note_on_c, 1, 35, 85
3, 15353, Note_on_c, 1, 35, 0
3, 15365, Note_on_c, 1, 36, 74
3, 15571, Note_on_c, 1, 40, 74
3, 15589, Note_on_c, 1, 40, 0
3, 15633, Note_on_c, 1, 40, 71
3, 15648, Note_on_c, 1, 40, 0
3, 15690, Note_on_c, 1, 41, 66
3, 15706, Note_on_c, 1, 41, 0
3, 15714, Note_on_c, 1, 36, 0
3, 15720, Note_on_c, 1, 43, 70
3, 15777, Note_on_c, 1, 43, 0
3, 15778, Note_on_c, 1, 31, 58
3, 15832, Note_on_c, 1, 31, 0
3, 15839, Note_on_c, 1, 36, 70
3, 16053, Note_on_c, 1, 40, 79
3, 16072, Note_on_c, 1, 40, 0
3, 16117, Note_on_c, 1, 40, 73
3, 16132, Note_on_c, 1, 40, 0
3, 16171, Note_on_c, 1, 41, 67
3, 16185, Note_on_c, 1, 41, 0
3, 16200, Note_on_c, 1, 43, 76
3, 16230, Note_on_c, 1, 36, 0
3, 16250, Note_on_c, 1, 43, 0
3, 16256, Note_on_c, 1, 31, 74
3, 16308, Note_on_c, 1, 31, 0
3, 16317, Note_on_c, 1, 36, 83
3, 16536, Note_on_c, 1, 39, 80
3, 16554, Note_on_c, 1, 39, 0
3, 16599, Note_on_c, 1, 39, 75
3, 16621, Note_on_c, 1, 39, 0
3, 16653, Note_on_c, 1, 41, 58
3, 16669, Note_on_c, 1, 41, 0
3, 16681, Note_on_c, 1, 43, 80
3, 16693, Note_on_c, 1, 36, 0
3, 16731, Note_on_c, 1, 43, 0
3, 16738, Note_on_c, 1, 31, 77
3, 16772, Note_on_c, 1, 31, 0
3, 16801, Note_on_c, 1, 36, 64
3, 17016, Note_on_c, 1, 39, 78
3, 17026, Note_on_c, 1, 36, 0
3, 17035, Note_on_c, 1, 39, 0
3, 17078, Note_on_c, 1, 39, 79
3, 17101, Note_on_c, 1, 39, 0
3, 17135, Note_on_c, 1, 41, 60
3, 17151, Note_on_c, 1, 41, 0
3, 17161, Note_on_c, 1, 43, 66
3, 17209, Note_on_c, 1, 43, 0
3, 17217, Note_on_c, 1, 31, 66
3, 17261, Note_on_c, 1, 31, 0
3, 17280, Note_on_c, 1, 41, 81
3, 17481, Note_on_c, 1, 41, 0
3, 17495, Note_on_c, 1, 44, 77
3, 17518, Note_on_c, 1, 44, 0
3, 17561, Note_on_c, 1, 44, 73
3, 17584, Note_on_c, 1, 44, 0
3, 17615, Note_on_c, 1, 48, 59
3, 17630, Note_on_c, 1, 48, 0
3, 17644, Note_on_c, 1, 50, 76
3, 17691, Note_on_c, 1, 50, 0
3, 17705, Note_on_c, 1, 41, 51
3, 17749, Note_on_c, 1, 41, 0
3, 17763, Note_on_c, 1, 38, 87
3, 17972, Note_on_c, 1, 44, 82
3, 17981, Note_on_c, 1, 38, 0
3, 17996, Note_on_c, 1, 44, 0
3, 18036, Note_on_c, 1, 44, 76
3, 18067, Note_on_c, 1, 44, 0
3, 18093, Note_on_c, 1, 43, 80
3, 18111, Note_on_c, 1, 43, 0
3, 18119, Note_on_c, 1, 31, 77
3, 18167, Note_on_c, 1, 31, 0
3, 18176, Note_on_c, 1, 35, 71
3, 18223, Note_on_c, 1, 35, 0
3, 18238, Note_on_c, 1, 36, 69
3, 18461, Note_on_c, 1, 40, 88
3, 18483, Note_on_c, 1, 36, 0
3, 18484, Note_on_c, 1, 40, 0
3, 18528, Note_on_c, 1, 40, 80
3, 18550, Note_on_c, 1, 40, 0
3, 18581, Note_on_c, 1, 41, 74
3, 18596, Note_on_c, 1, 41, 0
3, 18608, Note_on_c, 1, 43, 75
3, 18641, Note_on_c, 1, 43, 0
3, 18661, Note_on_c, 1, 31, 68
3, 18704, Note_on_c, 1, 31, 0
3, 18719, Note_on_c, 1, 36, 78
3, 18941, Note_on_c, 1, 40, 83
3, 18950, Note_on_c, 1, 36, 0
3, 18967, Note_on_c, 1, 40, 0
3, 19000, Note_on_c, 1, 40, 80
3, 19025, Note_on_c, 1, 40, 0
3, 19053, Note_on_c, 1, 41, 69
3, 19068, Note_on_c, 1, 41, 0
3, 19079, Note_on_c, 1, 43, 80
3, 19103, Note_on_c, 1, 43, 0
3, 19136, Note_on_c, 1, 31, 75
3, 19161, Note_on_c, 1, 31, 0
3, 19205, Note_on_c, 1, 36, 62
3, 19450, Note_on_c, 1, 43, 47
3, 19468, Note_on_c, 1, 43, 0
3, 19546, Note_on_c, 1, 43, 59
3, 19578, Note_on_c, 1, 43, 0
3, 19599, Note_on_c, 1, 43, 51
3, 19620, Note_on_c, 1, 43, 0
3, 19627, Note_on_c, 1, 50, 78
3, 19682, Note_on_c, 1, 50, 0
3, 19687, Note_on_c, 1, 48, 66
3, 19701, Note_on_c, 1, 36, 0
3, 19837, Note_on_c, 1, 43, 64
3, 19850, Note_on_c, 1, 48, 0
3, 19852, Note_on_c, 1, 43, 0
3, 19866, Note_on_c, 1, 36, 66
3, 19910, Note_on_c, 1, 36, 0
3, 19926, Note_on_c, 1, 36, 53
3, 20076, Note_on_c, 1, 43, 54
3, 20083, Note_on_c, 1, 43, 0
3, 20101, Note_on_c, 1, 43, 51
3, 20110, Note_on_c, 1, 36, 0
3, 20161, Note_on_c, 1, 36, 67
3, 20164, Note_on_c, 1, 43, 0
3, 20302, Note_on_c, 1, 43, 62
3, 20328, Note_on_c, 1, 43, 0
3, 20370, Note_on_c, 1, 43, 44
3, 20379, Note_on_c, 1, 43, 0
3, 20400, Note_on_c, 1, 51, 80
3, 20497, Note_on_c, 1, 43, 48
3, 20506, Note_on_c, 1, 43, 0
3, 20520, Note_on_c, 1, 50, 49
3, 20547, Note_on_c, 1, 50, 0
3, 20564, Note_on_c, 1, 48, 62
3, 20566, Note_on_c, 1, 36, 0
3, 20567, Note_on_c, 1, 43, 31
3, 20571, Note_on_c, 1, 48, 0
3, 20574, Note_on_c, 1, 51, 0
3, 20641, Note_on_c, 1, 43, 0
3, 20645, Note_on_c, 1, 36, 70
3, 20694, Note_on_c, 1, 36, 0
3, 20708, Note_on_c, 1, 36, 60
3, 20859, Note_on_c, 1, 43, 51
3, 20871, Note_on_c, 1, 36, 0
3, 20877, Note_on_c, 1, 43, 0
3, 20884, Note_on_c, 1, 51, 71
3, 20916, Note_on_c, 1, 51, 0
3, 20932, Note_on_c, 1, 43, 29
3, 20942, Note_on_c, 1, 51, 81
3, 20943, Note_on_c, 1, 43, 0
3, 21030, Note_on_c, 1, 50, 74
3, 21043, Note_on_c, 1, 51, 0
3, 21047, Note_on_c, 1, 50, 0
3, 21055, Note_on_c, 1, 43, 47
3, 21069, Note_on_c, 1, 43, 0
3, 21069, Note_on_c, 1, 40, 31
3, 21077, Note_on_c, 1, 40, 0
3, 21123, Note_on_c, 1, 41, 56
3, 21272, Note_on_c, 1, 36, 53
3, 21275, Note_on_c, 1, 41, 0
3, 21280, Note_on_c, 1, 36, 0
3, 21300, Note_on_c, 1, 30, 59
3, 21306, Note_on_c, 1, 30, 0
3, 21307, Note_on_c, 1, 31, 49
3, 21340, Note_on_c, 1, 31, 0
3, 21341, Note_on_c, 1, 32, 36
3, 21350, Note_on_c, 1, 32, 0
3, 21368, Note_on_c, 1, 30, 70
3, 21394, Note_on_c, 1, 30, 0
3, 21424, Note_on_c, 1, 29, 71
3, 21588, Note_on_c, 1, 36, 46
3, 21594, Note_on_c, 1, 29, 0
3, 21599, Note_on_c, 1, 36, 0
3, 21605, Note_on_c, 1, 44, 71
3, 21627, Note_on_c, 1, 44, 0
3, 21666, Note_on_c, 1, 43, 78
3, 21757, Note_on_c, 1, 38, 60
3, 21766, Note_on_c, 1, 43, 0
3, 21803, Note_on_c, 1, 38, 0
3, 21834, Note_on_c, 1, 38, 74
3, 21913, Note_on_c, 1, 38, 0
3, 21925, Note_on_c, 1, 34, 62
3, 21944, Note_on_c, 1, 34, 0
3, 21954, Note_on_c, 1, 35, 62
3, 22010, Note_on_c, 1, 35, 0
3, 22015, Note_on_c, 1, 36, 66
3, 22186, Note_on_c, 1, 34, 15
3, 22198, Note_on_c, 1, 36, 0
3, 22204, Note_on_c, 1, 45, 59
3, 22207, Note_on_c, 1, 34, 0
3, 22298, Note_on_c, 1, 36, 44
3, 22312, Note_on_c, 1, 36, 0
3, 22313, Note_on_c, 1, 45, 0
3, 22320, Note_on_c, 1, 43, 52
3, 22468, Note_on_c, 1, 38, 49
3, 22488, Note_on_c, 1, 38, 0
3, 22489, Note_on_c, 1, 43, 0
3, 22503, Note_on_c, 1, 32, 11
3, 22536, Note_on_c, 1, 32, 0
3, 22559, Note_on_c, 1, 31, 55
3, 22587, Note_on_c, 1, 31, 0
3, 22620, Note_on_c, 1, 31, 71
3, 22719, Note_on_c, 1, 38, 25
3, 22727, Note_on_c, 1, 38, 0
3, 22742, Note_on_c, 1, 43, 69
3, 22768, Note_on_c, 1, 31, 0
3, 22827, Note_on_c, 1, 43, 0
3, 22838, Note_on_c, 1, 43, 76
3, 22887, Note_on_c, 1, 43, 0
3, 22896, Note_on_c, 1, 42, 46
3, 22909, Note_on_c, 1, 42, 0
3, 22924, Note_on_c, 1, 43, 68
3, 23018, Note_on_c, 1, 41, 63
3, 23025, Note_on_c, 1, 41, 0
3, 23031, Note_on_c, 1, 43, 0
3, 23046, Note_on_c, 1, 36, 71
3, 23087, Note_on_c, 1, 36, 0
3, 23109, Note_on_c, 1, 36, 49
3, 23284, Note_on_c, 1, 36, 0
3, 23286, Note_on_c, 1, 43, 57
3, 23303, Note_on_c, 1, 43, 0
3, 23348, Note_on_c, 1, 43, 67
3, 23444, Note_on_c, 1, 34, 53
3, 23452, Note_on_c, 1, 43, 0
3, 23460, Note_on_c, 1, 34, 0
3, 23468, Note_on_c, 1, 35, 52
3, 23530, Note_on_c, 1, 35, 0
3, 23532, Note_on_c, 1, 36, 53
3, 23631, Note_on_c, 1, 34, 31
3, 23635, Note_on_c, 1, 36, 0
3, 23638, Note_on_c, 1, 43, 20
3, 23641, Note_on_c, 1, 34, 0
3, 23645, Note_on_c, 1, 43, 0
3, 23697, Note_on_c, 1, 36, 29
3, 23705, Note_on_c, 1, 36, 0
3, 23707, Note_on_c, 1, 52, 80
3, 23853, Note_on_c, 1, 36, 32
3, 23858, Note_on_c, 1, 52, 0
3, 23862, Note_on_c, 1, 36, 0
3, 23873, Note_on_c, 1, 50, 58
3, 23911, Note_on_c, 1, 50, 0
3, 23942, Note_on_c, 1, 43, 33
3, 23985, Note_on_c, 1, 43, 0
3, 23997, Note_on_c, 1, 36, 66
3, 24129, Note_on_c, 1, 36, 0
3, 24147, Note_on_c, 1, 36, 54
3, 24170, Note_on_c, 1, 36, 0
3, 24174, Note_on_c, 1, 43, 53
3, 24201, Note_on_c, 1, 43, 0
3, 24217, Note_on_c, 1, 36, 41
3, 24226, Note_on_c, 1, 36, 0
3, 24239, Note_on_c, 1, 51, 74
3, 24334, Note_on_c, 1, 36, 42
3, 24344, Note_on_c, 1, 51, 0
3, 24345, Note_on_c, 1, 36, 0
3, 24360, Note_on_c, 1, 50, 51
3, 24403, Note_on_c, 1, 50, 0
3, 24430, Note_on_c, 1, 43, 51
3, 24431, Note_on_c, 1, 45, 61
3, 24455, Note_on_c, 1, 45, 0
3, 24482, Note_on_c, 1, 36, 66
3, 24513, Note_on_c, 1, 43, 0
3, 24668, Note_on_c, 1, 36, 0
3, 24672, Note_on_c, 1, 46, 78
3, 24812, Note_on_c, 1, 43, 55
3, 24820, Note_on_c, 1, 43, 0
3, 24821, Note_on_c, 1, 46, 0
3, 24834, Note_on_c, 1, 36, 56
3, 24890, Note_on_c, 1, 36, 0
3, 24895, Note_on_c, 1, 30, 56
3, 24941, Note_on_c, 1, 30, 0
3, 24958, Note_on_c, 1, 29, 55
3, 25072, Note_on_c, 1, 29, 0
3, 25084, Note_on_c, 1, 31, 63
3, 25176, Note_on_c, 1, 32, 73
3, 25181, Note_on_c, 1, 31, 0
3, 25268, Note_on_c, 1, 29, 57
3, 25270, Note_on_c, 1, 32, 0
3, 25354, Note_on_c, 1, 29, 0
3, 25360, Note_on_c, 1, 30, 64
3, 25441, Note_on_c, 1, 30, 0
3, 25447, Note_on_c, 1, 31, 64
3, 25534, Note_on_c, 1, 38, 53
3, 25543, Note_on_c, 1, 38, 0
3, 25551, Note_on_c, 1, 31, 0
3, 25558, Note_on_c, 1, 44, 64
3, 25598, Note_on_c, 1, 44, 0
3, 25622, Note_on_c, 1, 43, 74
3, 25779, Note_on_c, 1, 38, 68
3, 25793, Note_on_c, 1, 43, 0
3, 25794, Note_on_c, 1, 38, 0
3, 25805, Note_on_c, 1, 35, 61
3, 25831, Note_on_c, 1, 35, 0
3, 25857, Note_on_c, 1, 35, 59
3, 25905, Note_on_c, 1, 35, 0
3, 25921, Note_on_c, 1, 36, 61
3, 26095, Note_on_c, 1, 43, 63
3, 26099, Note_on_c, 1, 36, 0
3, 26118, Note_on_c, 1, 43, 0
3, 26131, Note_on_c, 1, 42, 45
3, 26150, Note_on_c, 1, 42, 0
3, 26161, Note_on_c, 1, 43, 36
3, 26254, Note_on_c, 1, 36, 57
3, 26262, Note_on_c, 1, 43, 0
3, 26267, Note_on_c, 1, 36, 0
3, 26280, Note_on_c, 1, 35, 52
3, 26322, Note_on_c, 1, 35, 0
3, 26338, Note_on_c, 1, 35, 54
3, 26389, Note_on_c, 1, 35, 0
3, 26398, Note_on_c, 1, 36, 65
3, 26486, Note_on_c, 1, 43, 57
3, 26498, Note_on_c, 1, 36, 0
3, 26543, Note_on_c, 1, 36, 51
3, 26548, Note_on_c, 1, 43, 0
3, 26563, Note_on_c, 1, 36, 0
3, 26573, Note_on_c, 1, 52, 60
3, 26658, Note_on_c, 1, 36, 35
3, 26666, Note_on_c, 1, 43, 57
3, 26667, Note_on_c, 1, 36, 0
3, 26672, Note_on_c, 1, 52, 0
3, 26754, Note_on_c, 1, 39, 59
3, 26757, Note_on_c, 1, 43, 0
3, 26790, Note_on_c, 1, 39, 0
3, 26811, Note_on_c, 1, 40, 57
3, 26861, Note_on_c, 1, 40, 0
3, 26874, Note_on_c, 1, 41, 50
3, 27065, Note_on_c, 1, 36, 61
3, 27071, Note_on_c, 1, 41, 0
3, 27083, Note_on_c, 1, 36, 0
3, 27103, Note_on_c, 1, 36, 55
3, 27127, Note_on_c, 1, 29, 39
3, 27130, Note_on_c, 1, 36, 0
3, 27161, Note_on_c, 1, 29, 0
3, 27180, Note_on_c, 1, 29, 40
3, 27295, Note_on_c, 1, 35, 55
3, 27318, Note_on_c, 1, 29, 0
3, 27339, Note_on_c, 1, 35, 0
3, 27345, Note_on_c, 1, 36, 62
3, 27401, Note_on_c, 1, 36, 0
3, 27418, Note_on_c, 1, 36, 56
3, 27573, Note_on_c, 1, 40, 53
3, 27578, Note_on_c, 1, 34, 28
3, 27586, Note_on_c, 1, 36, 0
3, 27589, Note_on_c, 1, 40, 0
3, 27598, Note_on_c, 1, 41, 60
3, 27603, Note_on_c, 1, 34, 0
3, 27626, Note_on_c, 1, 41, 0
3, 27655, Note_on_c, 1, 41, 67
3, 27818, Note_on_c, 1, 41, 0
3, 27901, Note_on_c, 1, 47, 81
3, 27903, Note_on_c, 1, 31, 66
3, 28085, Note_on_c, 1, 47, 0
3, 28089, Note_on_c, 1, 31, 0
3, 28092, Note_on_c, 1, 48, 78
3, 28095, Note_on_c, 1, 33, 64
3, 28269, Note_on_c, 1, 33, 0
3, 28291, Note_on_c, 1, 33, 36
3, 28296, Note_on_c, 1, 47, 60
3, 28298, Note_on_c, 1, 48, 0
3, 28302, Note_on_c, 1, 47, 0
3, 28305, Note_on_c, 1, 33, 0
3, 28331, Note_on_c, 1, 50, 68
3, 28331, Note_on_c, 1, 35, 65
3, 28362, Note_on_c, 1, 35, 0
3, 28362, Note_on_c, 1, 50, 0
3, 28383, Note_on_c, 1, 50, 75
3, 28385, Note_on_c, 1, 35, 61
3, 28448, Note_on_c, 1, 33, 57
3, 28448, Note_on_c, 1, 48, 69
3, 28470, Note_on_c, 1, 35, 0
3, 28484, Note_on_c, 1, 50, 0
3, 28510, Note_on_c, 1, 31, 51
3, 28526, Note_on_c, 1, 48, 0
3, 28528, Note_on_c, 1, 33, 0
3, 28559, Note_on_c, 1, 47, 64
3, 28658, Note_on_c, 1, 31, 0
3, 28698, Note_on_c, 1, 47, 0
3, 28703, Note_on_c, 1, 34, 49
3, 28725, Note_on_c, 1, 34, 0
3, 28729, Note_on_c, 1, 46, 55
3, 28770, Note_on_c, 1, 46, 0
3, 28793, Note_on_c, 1, 41, 62
3, 28945, Note_on_c, 1, 36, 60
3, 28947, Note_on_c, 1, 41, 0
3, 28963, Note_on_c, 1, 36, 0
3, 29026, Note_on_c, 1, 29, 68
3, 29063, Note_on_c, 1, 29, 0
3, 29093, Note_on_c, 1, 29, 64
3, 29194, Note_on_c, 1, 35, 62
3, 29196, Note_on_c, 1, 29, 0
3, 29277, Note_on_c, 1, 35, 0
3, 29278, Note_on_c, 1, 36, 63
3, 29373, Note_on_c, 1, 34, 43
3, 29382, Note_on_c, 1, 36, 0
3, 29390, Note_on_c, 1, 34, 0
3, 29395, Note_on_c, 1, 43, 60
3, 29418, Note_on_c, 1, 43, 0
3, 29455, Note_on_c, 1, 41, 64
3, 29641, Note_on_c, 1, 36, 38
3, 29651, Note_on_c, 1, 41, 0
3, 29670, Note_on_c, 1, 36, 0
3, 29691, Note_on_c, 1, 30, 37
3, 29727, Note_on_c, 1, 30, 0
3, 29755, Note_on_c, 1, 31, 55
3, 29848, Note_on_c, 1, 38, 49
3, 29858, Note_on_c, 1, 31, 0
3, 29864, Note_on_c, 1, 38, 0
3, 29876, Note_on_c, 1, 41, 38
3, 29905, Note_on_c, 1, 41, 0
3, 29912, Note_on_c, 1, 43, 60
3, 29929, Note_on_c, 1, 43, 0
3, 29963, Note_on_c, 1, 48, 95
3, 30047, Note_on_c, 1, 48, 0
3, 30052, Note_on_c, 1, 47, 61
3, 30086, Note_on_c, 1, 47, 0
3, 30089, Note_on_c, 1, 43, 52
3, 30101, Note_on_c, 1, 43, 0
3, 30116, Note_on_c, 1, 48, 78
3, 30160, Note_on_c, 1, 48, 0
3, 30175, Note_on_c, 1, 47, 66
3, 30198, Note_on_c, 1, 47, 0
3, 30237, Note_on_c, 1, 43, 79
3, 30269, Note_on_c, 1, 43, 0
3, 30298, Note_on_c, 1, 38, 58
3, 30331, Note_on_c, 1, 38, 0
3, 30358, Note_on_c, 1, 41, 49
3, 30385, Note_on_c, 1, 41, 0
3, 30407, Note_on_c, 1, 45, 58
3, 30417, Note_on_c, 1, 45, 0
3, 30451, Note_on_c, 1, 48, 96
3, 30523, Note_on_c, 1, 48, 0
3, 30532, Note_on_c, 1, 47, 54
3, 30560, Note_on_c, 1, 47, 0
3, 30572, Note_on_c, 1, 43, 30
3, 30580, Note_on_c, 1, 43, 0
3, 30597, Note_on_c, 1, 48, 80
3, 30643, Note_on_c, 1, 48, 0
3, 30660, Note_on_c, 1, 47, 62
3, 30689, Note_on_c, 1, 47, 0
3, 30716, Note_on_c, 1, 36, 64
3, 30875, Note_on_c, 1, 43, 58
3, 30889, Note_on_c, 1, 36, 0
3, 30943, Note_on_c, 1, 36, 31
3, 30951, Note_on_c, 1, 43, 0
3, 30965, Note_on_c, 1, 36, 0
3, 30966, Note_on_c, 1, 48, 72
3, 31058, Note_on_c, 1, 43, 49
3, 31065, Note_on_c, 1, 48, 0
3, 31134, Note_on_c, 1, 43, 0
3, 31151, Note_on_c, 1, 36, 53
3, 31384, Note_on_c, 1, 31, 59
3, 31388, Note_on_c, 1, 36, 0
3, 31405, Note_on_c, 1, 31, 0
3, 31447, Note_on_c, 1, 31, 57
3, 31540, Note_on_c, 1, 31, 0
3, 31543, Note_on_c, 1, 36, 49
3, 31570, Note_on_c, 1, 36, 0
3, 31621, Note_on_c, 1, 43, 68
3, 31841, Note_on_c, 1, 36, 25
3, 31848, Note_on_c, 1, 36, 0
3, 31850, Note_on_c, 1, 43, 0
3, 31864, Note_on_c, 1, 39, 47
3, 31894, Note_on_c, 1, 39, 0
3, 31924, Note_on_c, 1, 36, 50
3, 32003, Note_on_c, 1, 36, 0
3, 32022, Note_on_c, 1, 36, 63
3, 32090, Note_on_c, 1, 36, 0
3, 32101, Note_on_c, 1, 31, 54
3, 32147, Note_on_c, 1, 31, 0
3, 32157, Note_on_c, 1, 36, 59
3, 32319, Note_on_c, 1, 32, 27
3, 32336, Note_on_c, 1, 36, 0
3, 32338, Note_on_c, 1, 43, 49
3, 32340, Note_on_c, 1, 32, 0
3, 32375, Note_on_c, 1, 43, 0
3, 32398, Note_on_c, 1, 51, 71
3, 32494, Note_on_c, 1, 43, 68
3, 32497, Note_on_c, 1, 51, 0
3, 32517, Note_on_c, 1, 42, 69
3, 32521, Note_on_c, 1, 43, 0
3, 32545, Note_on_c, 1, 42, 0
3, 32563, Note_on_c, 1, 36, 42
3, 32572, Note_on_c, 1, 36, 0
3, 32580, Note_on_c, 1, 42, 68
3, 32631, Note_on_c, 1, 42, 0
3, 32640, Note_on_c, 1, 41, 64
3, 32796, Note_on_c, 1, 36, 63
3, 32809, Note_on_c, 1, 41, 0
3, 32881, Note_on_c, 1, 29, 48
3, 32895, Note_on_c, 1, 36, 0
3, 32910, Note_on_c, 1, 29, 0
3, 32951, Note_on_c, 1, 29, 47
3, 33051, Note_on_c, 1, 29, 0
3, 33066, Note_on_c, 1, 30, 46
3, 33122, Note_on_c, 1, 30, 0
3, 33126, Note_on_c, 1, 31, 57
3, 33279, Note_on_c, 1, 38, 51
3, 33284, Note_on_c, 1, 31, 0
3, 33299, Note_on_c, 1, 38, 0
3, 33300, Note_on_c, 1, 42, 59
3, 33355, Note_on_c, 1, 42, 0
3, 33365, Note_on_c, 1, 43, 63
3, 33460, Note_on_c, 1, 34, 47
3, 33465, Note_on_c, 1, 43, 0
3, 33472, Note_on_c, 1, 34, 0
3, 33480, Note_on_c, 1, 35, 58
3, 33545, Note_on_c, 1, 35, 0
3, 33547, Note_on_c, 1, 36, 62
3, 33711, Note_on_c, 1, 34, 32
3, 33721, Note_on_c, 1, 36, 0
3, 33727, Note_on_c, 1, 43, 58
3, 33738, Note_on_c, 1, 34, 0
3, 33809, Note_on_c, 1, 43, 0
3, 33824, Note_on_c, 1, 52, 62
3, 33882, Note_on_c, 1, 52, 0
3, 33888, Note_on_c, 1, 36, 24
3, 33898, Note_on_c, 1, 36, 0
3, 33905, Note_on_c, 1, 52, 65
3, 33999, Note_on_c, 1, 43, 55
3, 34074, Note_on_c, 1, 52, 0
3, 34076, Note_on_c, 1, 43, 0
3, 34082, Note_on_c, 1, 31, 55
3, 34112, Note_on_c, 1, 31, 0
3, 34142, Note_on_c, 1, 31, 53
3, 34325, Note_on_c, 1, 31, 0
3, 34327, Note_on_c, 1, 38, 66
3, 34406, Note_on_c, 1, 38, 0
3, 34417, Note_on_c, 1, 34, 44
3, 34493, Note_on_c, 1, 34, 0
3, 34506, Note_on_c, 1, 35, 41
3, 34563, Note_on_c, 1, 36, 69
3, 34564, Note_on_c, 1, 35, 0
3, 34808, Note_on_c, 1, 36, 0
3, 34809, Note_on_c, 1, 43, 61
3, 34955, Note_on_c, 1, 43, 0
3, 34962, Note_on_c, 1, 43, 38
3, 34984, Note_on_c, 1, 53, 99
3, 34988, Note_on_c, 1, 43, 0
3, 35042, Note_on_c, 1, 52, 78
3, 35047, Note_on_c, 1, 53, 0
3, 35132, Note_on_c, 1, 48, 64
3, 35139, Note_on_c, 1, 52, 0
3, 35144, Note_on_c, 1, 48, 0
3, 35155, Note_on_c, 1, 43, 60
3, 35184, Note_on_c, 1, 43, 0
3, 35216, Note_on_c, 1, 43, 74
3, 35474, Note_on_c, 1, 43, 0
3, 35491, Note_on_c, 1, 43, 44
3, 35514, Note_on_c, 1, 43, 0
3, 35520, Note_on_c, 1, 36, 68
3, 35537, Note_on_c, 1, 36, 0
3, 35576, Note_on_c, 1, 36, 66
3, 35737, Note_on_c, 1, 43, 59
3, 35746, Note_on_c, 1, 43, 0
3, 35759, Note_on_c, 1, 53, 60
3, 35774, Note_on_c, 1, 53, 0
3, 35799, Note_on_c, 1, 43, 47
3, 35803, Note_on_c, 1, 53, 90
3, 35806, Note_on_c, 1, 43, 0
3, 35814, Note_on_c, 1, 36, 0
3, 35879, Note_on_c, 1, 51, 70
3, 35888, Note_on_c, 1, 53, 0
3, 35927, Note_on_c, 1, 51, 0
3, 35938, Note_on_c, 1, 48, 60
3, 35948, Note_on_c, 1, 48, 0
3, 35974, Note_on_c, 1, 43, 61
3, 35986, Note_on_c, 1, 43, 0
3, 36002, Note_on_c, 1, 36, 70
3, 36035, Note_on_c, 1, 36, 0
3, 36057, Note_on_c, 1, 36, 68
3, 36216, Note_on_c, 1, 43, 51
3, 36223, Note_on_c, 1, 43, 0
3, 36240, Note_on_c, 1, 53, 83
3, 36249, Note_on_c, 1, 36, 0
3, 36256, Note_on_c, 1, 53, 0
3, 36273, Note_on_c, 1, 53, 75
3, 36296, Note_on_c, 1, 53, 0
3, 36296, Note_on_c, 1, 51, 50
3, 36340, Note_on_c, 1, 43, 33
3, 36347, Note_on_c, 1, 43, 0
3, 36351, Note_on_c, 1, 51, 0
3, 36358, Note_on_c, 1, 48, 72
3, 36378, Note_on_c, 1, 48, 0
3, 36394, Note_on_c, 1, 43, 73
3, 36411, Note_on_c, 1, 43, 0
3, 36417, Note_on_c, 1, 42, 54
3, 36474, Note_on_c, 1, 42, 0
3, 36479, Note_on_c, 1, 41, 61
3, 36697, Note_on_c, 1, 36, 58
3, 36700, Note_on_c, 1, 41, 0
3, 36707, Note_on_c, 1, 36, 0
3, 36719, Note_on_c, 1, 29, 55
3, 36754, Note_on_c, 1, 29, 0
3, 36780, Note_on_c, 1, 29, 58
3, 36873, Note_on_c, 1, 41, 62
3, 36885, Note_on_c, 1, 41, 0
3, 36890, Note_on_c, 1, 29, 0
3, 36940, Note_on_c, 1, 44, 82
3, 36944, Note_on_c, 1, 46, 42
3, 36950, Note_on_c, 1, 46, 0
3, 36958, Note_on_c, 1, 44, 0
3, 36959, Note_on_c, 1, 43, 56
3, 37001, Note_on_c, 1, 43, 0
3, 37015, Note_on_c, 1, 43, 68
3, 37106, Note_on_c, 1, 38, 59
3, 37114, Note_on_c, 1, 43, 0
3, 37119, Note_on_c, 1, 38, 0
3, 37133, Note_on_c, 1, 31, 64
3, 37181, Note_on_c, 1, 31, 0
3, 37198, Note_on_c, 1, 31, 64
3, 37348, Note_on_c, 1, 38, 62
3, 37359, Note_on_c, 1, 31, 0
3, 37363, Note_on_c, 1, 38, 0
3, 37374, Note_on_c, 1, 35, 55
3, 37428, Note_on_c, 1, 35, 0
3, 37438, Note_on_c, 1, 36, 75
3, 37656, Note_on_c, 1, 43, 54
3, 37663, Note_on_c, 1, 43, 0
3, 37681, Note_on_c, 1, 53, 83
3, 37709, Note_on_c, 1, 53, 0
3, 37743, Note_on_c, 1, 53, 80
3, 37790, Note_on_c, 1, 53, 0
3, 37800, Note_on_c, 1, 36, 0
3, 37804, Note_on_c, 1, 52, 46
3, 37823, Note_on_c, 1, 52, 0
3, 37833, Note_on_c, 1, 48, 69
3, 37848, Note_on_c, 1, 48, 0
3, 37859, Note_on_c, 1, 43, 48
3, 37907, Note_on_c, 1, 43, 0
3, 37914, Note_on_c, 1, 31, 68
3, 37956, Note_on_c, 1, 31, 0
3, 37975, Note_on_c, 1, 31, 74
3, 38138, Note_on_c, 1, 43, 71
3, 38156, Note_on_c, 1, 43, 0
3, 38168, Note_on_c, 1, 31, 0
3, 38198, Note_on_c, 1, 43, 74
3, 38218, Note_on_c, 1, 43, 0
3, 38261, Note_on_c, 1, 43, 35
3, 38269, Note_on_c, 1, 43, 0
3, 38281, Note_on_c, 1, 53, 89
3, 38322, Note_on_c, 1, 43, 50
3, 38328, Note_on_c, 1, 43, 0
3, 38332, Note_on_c, 1, 53, 0
3, 38338, Note_on_c, 1, 52, 80
3, 38393, Note_on_c, 1, 52, 0
3, 38401, Note_on_c, 1, 36, 71
3, 38444, Note_on_c, 1, 36, 0
3, 38462, Note_on_c, 1, 36, 72
3, 38736, Note_on_c, 1, 43, 63
3, 38749, Note_on_c, 1, 43, 0
3, 38749, Note_on_c, 1, 36, 0
3, 38760, Note_on_c, 1, 53, 85
3, 38793, Note_on_c, 1, 53, 0
3, 38798, Note_on_c, 1, 43, 33
3, 38806, Note_on_c, 1, 43, 0
3, 38817, Note_on_c, 1, 52, 80
3, 38865, Note_on_c, 1, 52, 0
3, 38877, Note_on_c, 1, 48, 67
3, 38906, Note_on_c, 1, 48, 0
3, 38911, Note_on_c, 1, 43, 78
3, 38930, Note_on_c, 1, 43, 0
3, 38936, Note_on_c, 1, 36, 73
3, 38981, Note_on_c, 1, 36, 0
3, 38999, Note_on_c, 1, 36, 66
3, 39216, Note_on_c, 1, 43, 55
3, 39222, Note_on_c, 1, 43, 0
3, 39224, Note_on_c, 1, 36, 0
3, 39239, Note_on_c, 1, 43, 62
3, 39302, Note_on_c, 1, 36, 65
3, 39306, Note_on_c, 1, 43, 0
3, 39458, Note_on_c, 1, 43, 44
3, 39466, Note_on_c, 1, 43, 0
3, 39483, Note_on_c, 1, 51, 49
3, 39495, Note_on_c, 1, 51, 0
3, 39511, Note_on_c, 1, 51, 70
3, 39534, Note_on_c, 1, 51, 0
3, 39539, Note_on_c, 1, 50, 63
3, 39575, Note_on_c, 1, 50, 0
3, 39599, Note_on_c, 1, 48, 68
3, 39613, Note_on_c, 1, 36, 0
3, 39656, Note_on_c, 1, 43, 67
3, 39724, Note_on_c, 1, 43, 0
3, 39745, Note_on_c, 1, 48, 0
3, 39751, Note_on_c, 1, 43, 74
3, 39794, Note_on_c, 1, 43, 0
3, 39816, Note_on_c, 1, 43, 68
3, 39839, Note_on_c, 1, 43, 0
3, 39841, Note_on_c, 1, 36, 70
3, 40054, Note_on_c, 1, 43, 58
3, 40067, Note_on_c, 1, 43, 0
3, 40082, Note_on_c, 1, 51, 62
3, 40084, Note_on_c, 1, 36, 0
3, 40101, Note_on_c, 1, 51, 0
3, 40111, Note_on_c, 1, 51, 71
3, 40132, Note_on_c, 1, 51, 0
3, 40138, Note_on_c, 1, 50, 58
3, 40171, Note_on_c, 1, 50, 0
3, 40198, Note_on_c, 1, 48, 67
3, 40251, Note_on_c, 1, 48, 0
3, 40260, Note_on_c, 1, 43, 53
3, 40263, Note_on_c, 1, 41, 46
3, 40307, Note_on_c, 1, 41, 0
3, 40307, Note_on_c, 1, 43, 0
3, 40319, Note_on_c, 1, 29, 64
3, 40543, Note_on_c, 1, 36, 60
3, 40554, Note_on_c, 1, 29, 0
3, 40557, Note_on_c, 1, 36, 0
3, 40564, Note_on_c, 1, 44, 57
3, 40582, Note_on_c, 1, 44, 0
3, 40597, Note_on_c, 1, 44, 50
3, 40618, Note_on_c, 1, 44, 0
3, 40620, Note_on_c, 1, 43, 53
3, 40650, Note_on_c, 1, 43, 0
3, 40683, Note_on_c, 1, 41, 53
3, 40716, Note_on_c, 1, 41, 0
3, 40740, Note_on_c, 1, 30, 57
3, 40789, Note_on_c, 1, 30, 0
3, 40798, Note_on_c, 1, 31, 68
3, 41023, Note_on_c, 1, 38, 28
3, 41033, Note_on_c, 1, 38, 0
3, 41040, Note_on_c, 1, 50, 75
3, 41052, Note_on_c, 1, 50, 0
3, 41072, Note_on_c, 1, 50, 77
3, 41077, Note_on_c, 1, 38, 24
3, 41085, Note_on_c, 1, 38, 0
3, 41095, Note_on_c, 1, 50, 0
3, 41097, Note_on_c, 1, 48, 55
3, 41120, Note_on_c, 1, 48, 0
3, 41159, Note_on_c, 1, 47, 55
3, 41174, Note_on_c, 1, 31, 0
3, 41206, Note_on_c, 1, 47, 0
3, 41216, Note_on_c, 1, 35, 60
3, 41272, Note_on_c, 1, 35, 0
3, 41279, Note_on_c, 1, 36, 66
3, 41525, Note_on_c, 1, 45, 74
3, 41532, Note_on_c, 1, 36, 0
3, 41539, Note_on_c, 1, 45, 0
3, 41553, Note_on_c, 1, 45, 62
3, 41576, Note_on_c, 1, 45, 0
3, 41579, Note_on_c, 1, 44, 61
3, 41619, Note_on_c, 1, 44, 0
3, 41643, Note_on_c, 1, 43, 65
3, 41684, Note_on_c, 1, 43, 0
3, 41698, Note_on_c, 1, 31, 74
3, 41755, Note_on_c, 1, 31, 0
3, 41757, Note_on_c, 1, 36, 71
3, 41939, Note_on_c, 1, 45, 83
3, 41962, Note_on_c, 1, 45, 0
3, 41972, Note_on_c, 1, 45, 75
3, 41994, Note_on_c, 1, 36, 0
3, 41997, Note_on_c, 1, 45, 0
3, 42033, Note_on_c, 1, 45, 75
3, 42053, Note_on_c, 1, 45, 0
3, 42060, Note_on_c, 1, 44, 57
3, 42097, Note_on_c, 1, 44, 0
3, 42126, Note_on_c, 1, 43, 58
3, 42235, Note_on_c, 1, 43, 0
3, 42242, Note_on_c, 1, 34, 57
3, 42361, Note_on_c, 1, 46, 67
3, 42381, Note_on_c, 1, 46, 0
3, 42398, Note_on_c, 1, 46, 67
3, 42417, Note_on_c, 1, 46, 0
3, 42417, Note_on_c, 1, 34, 0
3, 42423, Note_on_c, 1, 44, 46
3, 42476, Note_on_c, 1, 44, 0
3, 42487, Note_on_c, 1, 46, 65
3, 42580, Note_on_c, 1, 32, 79
3, 42582, Note_on_c, 1, 46, 0
3, 42603, Note_on_c, 1, 32, 0
3, 42631, Note_on_c, 1, 32, 78
3, 42658, Note_on_c, 1, 32, 0
3, 42658, Note_on_c, 1, 33, 81
3, 42717, Note_on_c, 1, 33, 0
3, 42719, Note_on_c, 1, 34, 81
3, 42842, Note_on_c, 1, 46, 74
3, 42844, Note_on_c, 1, 34, 0
3, 42857, Note_on_c, 1, 46, 0
3, 42872, Note_on_c, 1, 46, 55
3, 42889, Note_on_c, 1, 46, 0
3, 42897, Note_on_c, 1, 34, 71
3, 42957, Note_on_c, 1, 34, 0
3, 42960, Note_on_c, 1, 46, 82
3, 43054, Note_on_c, 1, 34, 64
3, 43066, Note_on_c, 1, 34, 0
3, 43079, Note_on_c, 1, 34, 56
3, 43102, Note_on_c, 1, 34, 0
3, 43135, Note_on_c, 1, 34, 76
3, 43151, Note_on_c, 1, 46, 0
3, 43170, Note_on_c, 1, 34, 0
3, 43260, Note_on_c, 1, 31, 92
3, 43444, Note_on_c, 1, 31, 0
3, 43450, Note_on_c, 1, 33, 92
3, 43609, Note_on_c, 1, 33, 0
3, 43628, Note_on_c, 1, 33, 79
3, 43650, Note_on_c, 1, 33, 0
3, 43660, Note_on_c, 1, 33, 72
3, 43686, Note_on_c, 1, 35, 80
3, 43687, Note_on_c, 1, 33, 0
3, 43773, Note_on_c, 1, 35, 0
3, 43777, Note_on_c, 1, 33, 83
3, 43850, Note_on_c, 1, 33, 0
3, 43857, Note_on_c, 1, 31, 78
3, 44061, Note_on_c, 1, 31, 0
3, 44068, Note_on_c, 1, 32, 65
3, 44088, Note_on_c, 1, 32, 0
3, 44095, Note_on_c, 1, 33, 60
3, 44152, Note_on_c, 1, 33, 0
3, 44158, Note_on_c, 1, 34, 69
3, 44250, Note_on_c, 1, 46, 62
3, 44256, Note_on_c, 1, 34, 0
3, 44264, Note_on_c, 1, 46, 0
3, 44312, Note_on_c, 1, 46, 69
3, 44332, Note_on_c, 1, 46, 0
3, 44342, Note_on_c, 1, 45, 45
3, 44367, Note_on_c, 1, 45, 0
3, 44400, Note_on_c, 1, 46, 62
3, 44419, Note_on_c, 1, 46, 0
3, 44549, Note_on_c, 1, 48, 101
3, 44550, Note_on_c, 1, 32, 82
3, 44576, Note_on_c, 1, 48, 0
3, 44581, Note_on_c, 1, 32, 0
3, 44596, Note_on_c, 1, 33, 79
3, 44596, Note_on_c, 1, 49, 87
3, 44628, Note_on_c, 1, 49, 0
3, 44637, Note_on_c, 1, 33, 0
3, 44637, Note_on_c, 1, 50, 73
3, 44638, Note_on_c, 1, 34, 80
3, 44810, Note_on_c, 1, 50, 0
3, 44812, Note_on_c, 1, 34, 0
3, 44817, Note_on_c, 1, 33, 45
3, 44850, Note_on_c, 1, 33, 0
3, 44853, Note_on_c, 1, 34, 76
3, 45114, Note_on_c, 1, 34, 0
3, 45120, Note_on_c, 1, 43, 74
3, 45133, Note_on_c, 1, 43, 0
3, 45214, Note_on_c, 1, 38, 45
3, 45224, Note_on_c, 1, 38, 0
3, 45238, Note_on_c, 1, 41, 40
3, 45262, Note_on_c, 1, 41, 0
3, 45271, Note_on_c, 1, 43, 55
3, 45281, Note_on_c, 1, 43, 0
3, 45328, Note_on_c, 1, 48, 92
3, 45403, Note_on_c, 1, 48, 0
3, 45410, Note_on_c, 1, 47, 55
3, 45439, Note_on_c, 1, 47, 0
3, 45450, Note_on_c, 1, 43, 31
3, 45460, Note_on_c, 1, 43, 0
3, 45476, Note_on_c, 1, 48, 80
3, 45521, Note_on_c, 1, 48, 0
3, 45533, Note_on_c, 1, 47, 62
3, 45560, Note_on_c, 1, 47, 0
3, 45597, Note_on_c, 1, 43, 69
3, 45628, Note_on_c, 1, 43, 0
3, 45659, Note_on_c, 1, 38, 48
3, 45687, Note_on_c, 1, 38, 0
3, 45722, Note_on_c, 1, 41, 39
3, 45742, Note_on_c, 1, 41, 0
3, 45757, Note_on_c, 1, 43, 57
3, 45766, Note_on_c, 1, 43, 0
3, 45816, Note_on_c, 1, 48, 99
3, 45889, Note_on_c, 1, 48, 0
3, 45900, Note_on_c, 1, 47, 36
3, 45923, Note_on_c, 1, 47, 0
3, 45937, Note_on_c, 1, 43, 35
3, 45946, Note_on_c, 1, 43, 0
3, 45959, Note_on_c, 1, 48, 73
3, 46006, Note_on_c, 1, 48, 0
3, 46017, Note_on_c, 1, 47, 54
3, 46053, Note_on_c, 1, 47, 0
3, 46080, Note_on_c, 1, 36, 64
3, 46331, Note_on_c, 1, 53, 60
3, 46344, Note_on_c, 1, 53, 0
3, 46355, Note_on_c, 1, 53, 60
3, 46377, Note_on_c, 1, 53, 0
3, 46384, Note_on_c, 1, 52, 63
3, 46390, Note_on_c, 1, 36, 0
3, 46436, Note_on_c, 1, 52, 0
3, 46442, Note_on_c, 1, 48, 66
3, 46496, Note_on_c, 1, 48, 0
3, 46503, Note_on_c, 1, 43, 38
3, 46556, Note_on_c, 1, 43, 0
3, 46566, Note_on_c, 1, 36, 60
3, 46639, Note_on_c, 1, 36, 0
3, 46659, Note_on_c, 1, 36, 64
3, 46740, Note_on_c, 1, 31, 49
3, 46741, Note_on_c, 1, 36, 0
3, 46791, Note_on_c, 1, 31, 0
3, 46802, Note_on_c, 1, 36, 62
3, 46956, Note_on_c, 1, 43, 47
3, 46963, Note_on_c, 1, 43, 0
3, 46983, Note_on_c, 1, 53, 78
3, 47012, Note_on_c, 1, 36, 0
3, 47072, Note_on_c, 1, 51, 70
3, 47122, Note_on_c, 1, 53, 0
3, 47160, Note_on_c, 1, 48, 60
3, 47179, Note_on_c, 1, 48, 0
3, 47187, Note_on_c, 1, 51, 0
3, 47193, Note_on_c, 1, 48, 58
3, 47218, Note_on_c, 1, 48, 0
3, 47218, Note_on_c, 1, 43, 53
3, 47262, Note_on_c, 1, 43, 0
3, 47284, Note_on_c, 1, 36, 63
3, 47306, Note_on_c, 1, 36, 0
3, 47346, Note_on_c, 1, 36, 70
3, 47441, Note_on_c, 1, 31, 68
3, 47449, Note_on_c, 1, 36, 0
3, 47520, Note_on_c, 1, 31, 0
3, 47523, Note_on_c, 1, 36, 71
3, 47741, Note_on_c, 1, 43, 53
3, 47748, Note_on_c, 1, 43, 0
3, 47765, Note_on_c, 1, 51, 70
3, 47771, Note_on_c, 1, 36, 0
3, 47784, Note_on_c, 1, 51, 0
3, 47792, Note_on_c, 1, 51, 81
3, 47820, Note_on_c, 1, 51, 0
3, 47820, Note_on_c, 1, 50, 62
3, 47865, Note_on_c, 1, 50, 0
3, 47878, Note_on_c, 1, 48, 72
3, 47928, Note_on_c, 1, 48, 0
3, 47937, Note_on_c, 1, 43, 51
3, 47939, Note_on_c, 1, 29, 68
3, 47951, Note_on_c, 1, 43, 0
3, 47983, Note_on_c, 1, 29, 0
3, 47998, Note_on_c, 1, 29, 63
3, 48217, Note_on_c, 1, 36, 68
3, 48229, Note_on_c, 1, 36, 0
3, 48233, Note_on_c, 1, 29, 0
3, 48245, Note_on_c, 1, 44, 60
3, 48261, Note_on_c, 1, 44, 0
3, 48273, Note_on_c, 1, 44, 58
3, 48280, Note_on_c, 1, 46, 25
3, 48293, Note_on_c, 1, 46, 0
3, 48300, Note_on_c, 1, 43, 58
3, 48308, Note_on_c, 1, 44, 0
3, 48329, Note_on_c, 1, 43, 0
3, 48336, Note_on_c, 1, 36, 44
3, 48345, Note_on_c, 1, 36, 0
3, 48362, Note_on_c, 1, 41, 54
3, 48384, Note_on_c, 1, 41, 0
3, 48396, Note_on_c, 1, 30, 74
3, 48474, Note_on_c, 1, 30, 0
3, 48482, Note_on_c, 1, 31, 72
3, 48643, Note_on_c, 1, 38, 53
3, 48652, Note_on_c, 1, 38, 0
3, 48663, Note_on_c, 1, 43, 71
3, 48698, Note_on_c, 1, 43, 0
3, 48698, Note_on_c, 1, 42, 49
3, 48712, Note_on_c, 1, 42, 0
3, 48722, Note_on_c, 1, 43, 58
3, 48724, Note_on_c, 1, 31, 0
3, 48818, Note_on_c, 1, 38, 64
3, 48829, Note_on_c, 1, 38, 0
3, 48836, Note_on_c, 1, 43, 0
3, 48844, Note_on_c, 1, 35, 58
3, 48900, Note_on_c, 1, 35, 0
3, 48906, Note_on_c, 1, 36, 74
3, 49081, Note_on_c, 1, 50, 69
3, 49098, Note_on_c, 1, 36, 0
3, 49099, Note_on_c, 1, 50, 0
3, 49110, Note_on_c, 1, 50, 67
3, 49140, Note_on_c, 1, 48, 58
3, 49149, Note_on_c, 1, 50, 0
3, 49185, Note_on_c, 1, 48, 0
3, 49198, Note_on_c, 1, 43, 57
3, 49210, Control_c, 1, 64, 127
3, 49215, Control_c, 1, 64, 0
3, 49297, Note_on_c, 1, 31, 58
3, 49306, Note_on_c, 1, 31, 0
3, 49306, Note_on_c, 1, 43, 0
3, 49325, Note_on_c, 1, 31, 79
3, 49376, Note_on_c, 1, 31, 0
3, 49385, Note_on_c, 1, 36, 77
3, 49543, Note_on_c, 1, 43, 44
3, 49553, Note_on_c, 1, 43, 0
3, 49570, Note_on_c, 1, 53, 64
3, 49576, Note_on_c, 1, 36, 0
3, 49587, Note_on_c, 1, 53, 0
3, 49597, Note_on_c, 1, 53, 71
3, 49625, Note_on_c, 1, 52, 62
3, 49630, Note_on_c, 1, 53, 0
3, 49663, Note_on_c, 1, 36, 17
3, 49668, Note_on_c, 1, 52, 0
3, 49675, Note_on_c, 1, 36, 0
3, 49684, Note_on_c, 1, 48, 68
3, 49730, Note_on_c, 1, 48, 0
3, 49743, Note_on_c, 1, 43, 53
3, 49765, Note_on_c, 1, 43, 0
3, 49800, Note_on_c, 1, 30, 56
3, 49823, Note_on_c, 1, 30, 0
3, 49860, Note_on_c, 1, 31, 69
3, 49884, Note_on_c, 1, 31, 0
3, 49922, Note_on_c, 1, 36, 69
3, 50136, Note_on_c, 1, 43, 54
3, 50145, Note_on_c, 1, 43, 0
3, 50151, Note_on_c, 1, 36, 0
3, 50162, Note_on_c, 1, 53, 51
3, 50182, Note_on_c, 1, 53, 0
3, 50217, Note_on_c, 1, 52, 74
3, 50254, Note_on_c, 1, 52, 0
3, 50279, Note_on_c, 1, 48, 64
3, 50295, Note_on_c, 1, 48, 0
3, 50313, Note_on_c, 1, 43, 57
3, 50325, Note_on_c, 1, 43, 0
3, 50337, Note_on_c, 1, 43, 72
3, 50391, Note_on_c, 1, 43, 0
3, 50399, Note_on_c, 1, 36, 66
3, 50612, Note_on_c, 1, 43, 60
3, 50621, Note_on_c, 1, 43, 0
3, 50675, Note_on_c, 1, 43, 56
3, 50682, Note_on_c, 1, 43, 0
3, 50732, Note_on_c, 1, 43, 52
3, 50740, Note_on_c, 1, 43, 0
3, 50761, Note_on_c, 1, 53, 75
3, 50792, Note_on_c, 1, 52, 72
3, 50795, Note_on_c, 1, 53, 0
3, 50803, Note_on_c, 1, 36, 0
3, 50810, Note_on_c, 1, 52, 0
3, 50818, Note_on_c, 1, 48, 66
3, 50839, Note_on_c, 1, 48, 0
3, 50856, Note_on_c, 1, 43, 60
3, 50873, Note_on_c, 1, 43, 0
3, 50881, Note_on_c, 1, 36, 73
3, 50924, Note_on_c, 1, 36, 0
3, 50935, Note_on_c, 1, 36, 66
3, 51097, Note_on_c, 1, 43, 44
3, 51106, Note_on_c, 1, 43, 0
3, 51117, Note_on_c, 1, 51, 59
3, 51140, Note_on_c, 1, 51, 0
3, 51151, Note_on_c, 1, 43, 34
3, 51159, Note_on_c, 1, 43, 0
3, 51176, Note_on_c, 1, 50, 76
3, 51189, Note_on_c, 1, 36, 0
3, 51224, Note_on_c, 1, 50, 0
3, 51240, Note_on_c, 1, 48, 60
3, 51259, Note_on_c, 1, 48, 0
3, 51274, Note_on_c, 1, 43, 55
3, 51290, Note_on_c, 1, 43, 0
3, 51304, Note_on_c, 1, 36, 64
3, 51310, Note_on_c, 1, 43, 39
3, 51321, Note_on_c, 1, 36, 0
3, 51352, Note_on_c, 1, 43, 0
3, 51361, Note_on_c, 1, 36, 80
3, 51574, Note_on_c, 1, 43, 43
3, 51590, Note_on_c, 1, 43, 0
3, 51593, Note_on_c, 1, 36, 0
3, 51597, Note_on_c, 1, 51, 70
3, 51623, Note_on_c, 1, 51, 0
3, 51659, Note_on_c, 1, 50, 87
3, 51707, Note_on_c, 1, 50, 0
3, 51720, Note_on_c, 1, 48, 67
3, 51727, Note_on_c, 1, 48, 0
3, 51750, Note_on_c, 1, 43, 54
3, 51767, Note_on_c, 1, 43, 0
3, 51777, Note_on_c, 1, 36, 62
3, 51829, Note_on_c, 1, 36, 0
3, 51836, Note_on_c, 1, 29, 63
3, 52012, Note_on_c, 1, 29, 0
3, 52013, Note_on_c, 1, 36, 64
3, 52175, Note_on_c, 1, 41, 28
3, 52183, Note_on_c, 1, 41, 0
3, 52189, Note_on_c, 1, 36, 0
3, 52196, Note_on_c, 1, 44, 55
3, 52226, Note_on_c, 1, 44, 0
3, 52233, Note_on_c, 1, 36, 43
3, 52246, Note_on_c, 1, 36, 0
3, 52256, Note_on_c, 1, 43, 70
3, 52295, Note_on_c, 1, 43, 0
3, 52320, Note_on_c, 1, 41, 57
3, 52339, Note_on_c, 1, 41, 0
3, 52378, Note_on_c, 1, 36, 69
3, 52395, Note_on_c, 1, 36, 0
3, 52439, Note_on_c, 1, 31, 82
3, 52563, Note_on_c, 1, 43, 74
3, 52596, Note_on_c, 1, 43, 0
3, 52597, Note_on_c, 1, 42, 45
3, 52613, Note_on_c, 1, 42, 0
3, 52619, Note_on_c, 1, 31, 0
3, 52621, Note_on_c, 1, 43, 58
3, 52712, Note_on_c, 1, 38, 68
3, 52725, Note_on_c, 1, 43, 0
3, 52726, Note_on_c, 1, 38, 0
3, 52736, Note_on_c, 1, 35, 55
3, 52797, Note_on_c, 1, 35, 0
3, 52800, Note_on_c, 1, 36, 67
3, 52958, Note_on_c, 1, 34, 36
3, 52968, Note_on_c, 1, 34, 0
3, 52977, Note_on_c, 1, 53, 90
3, 52983, Note_on_c, 1, 36, 0
3, 53030, Note_on_c, 1, 53, 0
3, 53038, Note_on_c, 1, 52, 74
3, 53128, Note_on_c, 1, 52, 0
3, 53132, Note_on_c, 1, 48, 66
3, 53145, Note_on_c, 1, 48, 0
3, 53158, Note_on_c, 1, 43, 46
3, 53195, Note_on_c, 1, 43, 0
3, 53213, Note_on_c, 1, 31, 82
3, 53498, Note_on_c, 1, 38, 48
3, 53507, Note_on_c, 1, 38, 0
3, 53519, Note_on_c, 1, 41, 71
3, 53539, Note_on_c, 1, 41, 0
3, 53578, Note_on_c, 1, 40, 73
3, 53580, Note_on_c, 1, 31, 0
3, 53672, Note_on_c, 1, 35, 64
3, 53677, Note_on_c, 1, 40, 0
3, 53760, Note_on_c, 1, 35, 0
3, 53762, Note_on_c, 1, 36, 58
3, 53917, Note_on_c, 1, 36, 0
3, 53924, Note_on_c, 1, 36, 24
3, 53945, Note_on_c, 1, 53, 80
3, 53949, Note_on_c, 1, 36, 0
3, 54030, Note_on_c, 1, 52, 82
3, 54043, Note_on_c, 1, 53, 0
3, 54098, Note_on_c, 1, 36, 29
3, 54111, Note_on_c, 1, 52, 0
3, 54113, Note_on_c, 1, 36, 0
3, 54116, Note_on_c, 1, 48, 63
3, 54137, Note_on_c, 1, 48, 0
3, 54149, Note_on_c, 1, 35, 79
3, 54232, Note_on_c, 1, 35, 0
3, 54240, Note_on_c, 1, 36, 62
3, 54391, Note_on_c, 1, 36, 0
3, 54404, Note_on_c, 1, 36, 46
3, 54404, Note_on_c, 1, 43, 66
3, 54413, Note_on_c, 1, 36, 0
3, 54429, Note_on_c, 1, 43, 0
3, 54455, Note_on_c, 1, 43, 54
3, 54471, Note_on_c, 1, 43, 0
3, 54482, Note_on_c, 1, 53, 80
3, 54505, Note_on_c, 1, 53, 0
3, 54519, Note_on_c, 1, 36, 51
3, 54529, Note_on_c, 1, 36, 0
3, 54539, Note_on_c, 1, 52, 83
3, 54576, Note_on_c, 1, 52, 0
3, 54582, Note_on_c, 1, 36, 27
3, 54590, Note_on_c, 1, 36, 0
3, 54599, Note_on_c, 1, 48, 69
3, 54620, Note_on_c, 1, 48, 0
3, 54629, Note_on_c, 1, 43, 61
3, 54640, Note_on_c, 1, 43, 0
3, 54656, Note_on_c, 1, 36, 64
3, 54705, Note_on_c, 1, 36, 0
3, 54721, Note_on_c, 1, 36, 72
3, 54798, Note_on_c, 1, 36, 0
3, 54805, Note_on_c, 1, 36, 22
3, 54875, Note_on_c, 1, 43, 38
3, 54890, Note_on_c, 1, 43, 0
3, 54903, Note_on_c, 1, 53, 80
3, 54926, Note_on_c, 1, 53, 0
3, 54937, Note_on_c, 1, 43, 40
3, 54944, Note_on_c, 1, 43, 0
3, 54958, Note_on_c, 1, 51, 85
3, 54978, Note_on_c, 1, 36, 0
3, 55056, Note_on_c, 1, 48, 78
3, 55068, Note_on_c, 1, 51, 0
3, 55072, Note_on_c, 1, 48, 0
3, 55082, Note_on_c, 1, 43, 48
3, 55091, Note_on_c, 1, 43, 0
3, 55136, Note_on_c, 1, 31, 58
3, 55181, Note_on_c, 1, 31, 0
3, 55195, Note_on_c, 1, 36, 65
3, 55293, Note_on_c, 1, 48, 48
3, 55300, Note_on_c, 1, 48, 0
3, 55316, Note_on_c, 1, 36, 0
3, 55317, Note_on_c, 1, 53, 69
3, 55333, Note_on_c, 1, 53, 0
3, 55345, Note_on_c, 1, 53, 78
3, 55366, Note_on_c, 1, 53, 0
3, 55374, Note_on_c, 1, 51, 57
3, 55413, Note_on_c, 1, 51, 0
3, 55437, Note_on_c, 1, 48, 77
3, 55482, Note_on_c, 1, 48, 0
3, 55498, Note_on_c, 1, 36, 77
3, 55593, Note_on_c, 1, 32, 37
3, 55616, Note_on_c, 1, 32, 0
3, 55619, Note_on_c, 1, 53, 83
3, 55620, Note_on_c, 1, 36, 0
3, 55665, Note_on_c, 1, 53, 0
3, 55679, Note_on_c, 1, 48, 61
3, 55685, Note_on_c, 1, 48, 0
3, 55736, Note_on_c, 1, 29, 70
3, 55890, Note_on_c, 1, 36, 57
3, 55901, Note_on_c, 1, 29, 0
3, 55909, Note_on_c, 1, 36, 0
3, 55912, Note_on_c, 1, 44, 76
3, 55919, Note_on_c, 1, 46, 21
3, 55927, Note_on_c, 1, 46, 0
3, 55937, Note_on_c, 1, 44, 0
3, 55951, Note_on_c, 1, 36, 53
3, 55959, Note_on_c, 1, 36, 0
3, 55973, Note_on_c, 1, 43, 77
3, 56023, Note_on_c, 1, 43, 0
3, 56038, Note_on_c, 1, 41, 58
3, 56056, Note_on_c, 1, 41, 0
3, 56096, Note_on_c, 1, 32, 65
3, 56122, Note_on_c, 1, 32, 0
3, 56161, Note_on_c, 1, 31, 66
3, 56336, Note_on_c, 1, 31, 0
3, 56338, Note_on_c, 1, 43, 71
3, 56368, Note_on_c, 1, 43, 0
3, 56374, Note_on_c, 1, 46, 77
3, 56390, Note_on_c, 1, 46, 0
3, 56400, Note_on_c, 1, 47, 64
3, 56496, Note_on_c, 1, 43, 66
3, 56503, Note_on_c, 1, 47, 0
3, 56511, Note_on_c, 1, 43, 0
3, 56523, Note_on_c, 1, 35, 63
3, 56576, Note_on_c, 1, 35, 0
3, 56584, Note_on_c, 1, 36, 75
3, 56759, Note_on_c, 1, 43, 53
3, 56777, Note_on_c, 1, 43, 0
3, 56791, Note_on_c, 1, 43, 48
3, 56797, Note_on_c, 1, 36, 0
3, 56810, Note_on_c, 1, 43, 0
3, 56819, Note_on_c, 1, 53, 74
3, 56868, Note_on_c, 1, 53, 0
3, 56881, Note_on_c, 1, 52, 63
3, 56972, Note_on_c, 1, 43, 58
3, 57054, Note_on_c, 1, 43, 0
3, 57056, Note_on_c, 1, 52, 0
3, 57060, Note_on_c, 1, 36, 74
3, 57239, Note_on_c, 1, 43, 55
3, 57243, Note_on_c, 1, 36, 0
3, 57260, Note_on_c, 1, 43, 0
3, 57273, Note_on_c, 1, 43, 55
3, 57287, Note_on_c, 1, 43, 0
3, 57291, Note_on_c, 1, 31, 67
3, 57351, Note_on_c, 1, 31, 0
3, 57359, Note_on_c, 1, 36, 68
3, 57439, Note_on_c, 1, 36, 0
3, 57455, Note_on_c, 1, 36, 60
3, 57470, Note_on_c, 1, 36, 0
3, 57481, Note_on_c, 1, 36, 62
3, 57561, Note_on_c, 1, 36, 0
3, 57602, Note_on_c, 1, 46, 75
3, 57634, Note_on_c, 1, 46, 0
3, 57696, Note_on_c, 1, 46, 63
3, 57716, Note_on_c, 1, 46, 0
3, 57723, Note_on_c, 1, 44, 42
3, 57772, Note_on_c, 1, 44, 0
3, 57783, Note_on_c, 1, 46, 70
3, 58024, Note_on_c, 1, 34, 72
3, 58107, Note_on_c, 1, 46, 0
3, 58201, Note_on_c, 1, 34, 0
3, 58203, Note_on_c, 1, 46, 64
3, 58215, Note_on_c, 1, 46, 0
3, 58232, Note_on_c, 1, 46, 60
3, 58249, Note_on_c, 1, 46, 0
3, 58259, Note_on_c, 1, 44, 54
3, 58285, Note_on_c, 1, 44, 0
3, 58321, Note_on_c, 1, 46, 80
3, 58410, Note_on_c, 1, 46, 0
3, 58416, Note_on_c, 1, 44, 67
3, 58433, Note_on_c, 1, 44, 0
3, 58472, Note_on_c, 1, 44, 60
3, 58485, Note_on_c, 1, 44, 0
3, 58497, Note_on_c, 1, 46, 77
3, 58530, Note_on_c, 1, 46, 0
3, 58621, Note_on_c, 1, 31, 88
3, 58796, Note_on_c, 1, 31, 0
3, 58808, Note_on_c, 1, 33, 78
3, 58887, Note_on_c, 1, 33, 0
3, 58906, Note_on_c, 1, 33, 80
3, 59007, Note_on_c, 1, 33, 0
3, 59021, Note_on_c, 1, 33, 53
3, 59040, Note_on_c, 1, 33, 0
3, 59047, Note_on_c, 1, 35, 75
3, 59062, Note_on_c, 1, 35, 0
3, 59107, Note_on_c, 1, 35, 77
3, 59125, Note_on_c, 1, 35, 0
3, 59166, Note_on_c, 1, 33, 79
3, 59178, Note_on_c, 1, 33, 0
3, 59223, Note_on_c, 1, 31, 89
3, 59459, Note_on_c, 1, 35, 60
3, 59465, Note_on_c, 1, 31, 0
3, 59473, Note_on_c, 1, 35, 0
3, 59515, Note_on_c, 1, 34, 72
3, 59637, Note_on_c, 1, 50, 71
3, 59666, Note_on_c, 1, 50, 0
3, 59668, Note_on_c, 1, 49, 59
3, 59689, Note_on_c, 1, 49, 0
3, 59695, Note_on_c, 1, 50, 64
3, 59705, Note_on_c, 1, 34, 0
3, 59730, Note_on_c, 1, 50, 0
3, 59797, Note_on_c, 1, 34, 70
3, 59812, Note_on_c, 1, 34, 0
3, 59880, Note_on_c, 1, 34, 69
3, 59933, Note_on_c, 1, 34, 0
3, 59937, Note_on_c, 1, 48, 71
3, 59938, Note_on_c, 1, 32, 58
3, 59952, Note_on_c, 1, 48, 0
3, 59969, Note_on_c, 1, 32, 0
3, 59970, Note_on_c, 1, 49, 46
3, 59977, Note_on_c, 1, 33, 29
3, 59985, Note_on_c, 1, 33, 0
3, 59990, Note_on_c, 1, 49, 0
3, 59997, Note_on_c, 1, 34, 67
3, 59998, Note_on_c, 1, 50, 64
3, 60026, Note_on_c, 1, 50, 0
3, 60036, Note_on_c, 1, 34, 0
3, 60094, Note_on_c, 1, 34, 71
3, 60119, Note_on_c, 1, 34, 0
3, 60151, Note_on_c, 1, 32, 47
3, 60160, Note_on_c, 1, 32, 0
3, 60176, Note_on_c, 1, 34, 78
3, 60416, Note_on_c, 1, 34, 0
3, 60417, Note_on_c, 1, 46, 67
3, 60431, Note_on_c, 1, 46, 0
3, 60477, Note_on_c, 1, 43, 64
3, 60493, Note_on_c, 1, 43, 0
3, 60569, Note_on_c, 1, 38, 47
3, 60587, Note_on_c, 1, 38, 0
3, 60594, Note_on_c, 1, 40, 44
3, 60622, Note_on_c, 1, 40, 0
3, 60633, Note_on_c, 1, 43, 43
3, 60642, Note_on_c, 1, 43, 0
3, 60685, Note_on_c, 1, 48, 65
3, 60765, Note_on_c, 1, 48, 0
3, 60775, Note_on_c, 1, 47, 32
3, 60812, Note_on_c, 1, 47, 0
3, 60842, Note_on_c, 1, 48, 53
3, 60892, Note_on_c, 1, 48, 0
3, 60899, Note_on_c, 1, 47, 44
3, 60923, Note_on_c, 1, 47, 0
3, 60959, Note_on_c, 1, 43, 47
3, 60977, Note_on_c, 1, 43, 0
3, 61018, Note_on_c, 1, 38, 54
3, 61039, Note_on_c, 1, 38, 0
3, 61086, Note_on_c, 1, 41, 42
3, 61101, Note_on_c, 1, 41, 0
3, 61116, Note_on_c, 1, 45, 57
3, 61128, Note_on_c, 1, 45, 0
3, 61169, Note_on_c, 1, 48, 91
3, 61245, Note_on_c, 1, 48, 0
3, 61248, Note_on_c, 1, 47, 55
3, 61269, Note_on_c, 1, 47, 0
3, 61315, Note_on_c, 1, 48, 53
3, 61368, Note_on_c, 1, 48, 0
3, 61376, Note_on_c, 1, 47, 40
3, 61408, Note_on_c, 1, 47, 0
3, 61446, Note_on_c, 1, 36, 30
3, 61660, Note_on_c, 1, 43, 41
3, 61667, Note_on_c, 1, 43, 0
3, 61684, Note_on_c, 1, 53, 47
3, 61702, Note_on_c, 1, 53, 0
3, 61731, Note_on_c, 1, 36, 0
3, 61739, Note_on_c, 1, 52, 59
3, 61790, Note_on_c, 1, 52, 0
3, 61804, Note_on_c, 1, 48, 31
3, 61823, Note_on_c, 1, 48, 0
3, 61864, Note_on_c, 1, 43, 42
3, 61882, Note_on_c, 1, 43, 0
3, 61923, Note_on_c, 1, 36, 57
3, 62139, Note_on_c, 1, 43, 44
3, 62147, Note_on_c, 1, 43, 0
3, 62161, Note_on_c, 1, 36, 0
3, 62162, Note_on_c, 1, 53, 68
3, 62179, Note_on_c, 1, 53, 0
3, 62193, Note_on_c, 1, 53, 68
3, 62222, Note_on_c, 1, 53, 0
3, 62223, Note_on_c, 1, 52, 46
3, 62268, Note_on_c, 1, 52, 0
3, 62280, Note_on_c, 1, 48, 53
3, 62337, Note_on_c, 1, 48, 0
3, 62337, Note_on_c, 1, 43, 55
3, 62396, Note_on_c, 1, 43, 0
3, 62402, Note_on_c, 1, 36, 55
3, 62618, Note_on_c, 1, 43, 43
3, 62627, Note_on_c, 1, 43, 0
3, 62643, Note_on_c, 1, 53, 62
3, 62657, Note_on_c, 1, 53, 0
3, 62672, Note_on_c, 1, 53, 60
3, 62695, Note_on_c, 1, 53, 0
3, 62699, Note_on_c, 1, 51, 40
3, 62722, Note_on_c, 1, 51, 0
3, 62760, Note_on_c, 1, 48, 54
3, 62774, Note_on_c, 1, 36, 0
3, 62799, Note_on_c, 1, 48, 0
3, 62820, Note_on_c, 1, 43, 60
3, 62838, Note_on_c, 1, 43, 0
3, 62855, Note_on_c, 1, 43, 57
3, 62874, Note_on_c, 1, 43, 0
3, 62886, Note_on_c, 1, 36, 64
3, 63096, Note_on_c, 1, 43, 40
3, 63112, Note_on_c, 1, 43, 0
3, 63125, Note_on_c, 1, 53, 64
3, 63139, Note_on_c, 1, 53, 0
3, 63154, Note_on_c, 1, 53, 66
3, 63172, Note_on_c, 1, 53, 0
3, 63180, Note_on_c, 1, 51, 46
3, 63201, Note_on_c, 1, 51, 0
3, 63219, Note_on_c, 1, 51, 73
3, 63244, Note_on_c, 1, 48, 55
3, 63245, Note_on_c, 1, 36, 0
3, 63248, Note_on_c, 1, 51, 0
3, 63303, Note_on_c, 1, 43, 70
3, 63328, Note_on_c, 1, 48, 0
3, 63356, Note_on_c, 1, 43, 0
3, 63364, Note_on_c, 1, 41, 67
3, 63537, Note_on_c, 1, 48, 92
3, 63542, Note_on_c, 1, 41, 0
3, 63693, Note_on_c, 1, 41, 58
3, 63701, Note_on_c, 1, 41, 0
3, 63713, Note_on_c, 1, 48, 0
3, 63721, Note_on_c, 1, 44, 47
3, 63742, Note_on_c, 1, 44, 0
3, 63753, Note_on_c, 1, 44, 54
3, 63773, Note_on_c, 1, 44, 0
3, 63779, Note_on_c, 1, 32, 69
3, 63841, Note_on_c, 1, 31, 69
3, 63848, Note_on_c, 1, 32, 0
3, 64022, Note_on_c, 1, 43, 83
3, 64023, Note_on_c, 1, 31, 0
3, 64203, Note_on_c, 1, 34, 46
3, 64206, Note_on_c, 1, 43, 0
3, 64217, Note_on_c, 1, 34, 0
3, 64235, Note_on_c, 1, 34, 58
3, 64255, Note_on_c, 1, 34, 0
3, 64260, Note_on_c, 1, 35, 56
3, 64312, Note_on_c, 1, 35, 0
3, 64319, Note_on_c, 1, 36, 62
3, 64499, Note_on_c, 1, 43, 47
3, 64509, Note_on_c, 1, 36, 0
3, 64510, Note_on_c, 1, 43, 0
3, 64531, Note_on_c, 1, 43, 57
3, 64548, Note_on_c, 1, 43, 0
3, 64562, Note_on_c, 1, 53, 50
3, 64578, Note_on_c, 1, 53, 0
3, 64591, Note_on_c, 1, 53, 60
3, 64617, Note_on_c, 1, 53, 0
3, 64622, Note_on_c, 1, 52, 43
3, 64670, Note_on_c, 1, 52, 0
3, 64686, Note_on_c, 1, 48, 44
3, 64740, Note_on_c, 1, 48, 0
3, 64744, Note_on_c, 1, 43, 42
3, 64788, Note_on_c, 1, 43, 0
3, 64806, Note_on_c, 1, 36, 73
3, 64892, Note_on_c, 1, 36, 0
3, 64898, Note_on_c, 1, 31, 74
3, 64928, Note_on_c, 1, 31, 0
3, 64985, Note_on_c, 1, 43, 80
3, 65089, Note_on_c, 1, 43, 0
3, 65101, Note_on_c, 1, 43, 67
3, 65197, Note_on_c, 1, 34, 57
3, 65204, Note_on_c, 1, 43, 0
3, 65212, Note_on_c, 1, 34, 0
3, 65219, Note_on_c, 1, 35, 60
3, 65261, Note_on_c, 1, 35, 0
3, 65287, Note_on_c, 1, 36, 43
3, 65338, Note_on_c, 1, 36, 0
3, 65387, Note_on_c, 1, 43, 51
3, 65393, Note_on_c, 1, 43, 0
3, 65411, Note_on_c, 1, 50, 68
3, 65447, Note_on_c, 1, 50, 0
3, 65464, Note_on_c, 1, 50, 64
3, 65515, Note_on_c, 1, 50, 0
3, 65528, Note_on_c, 1, 48, 46
3, 65548, Note_on_c, 1, 48, 0
3, 65560, Note_on_c, 1, 48, 69
3, 65573, Note_on_c, 1, 48, 0
3, 65587, Note_on_c, 1, 43, 45
3, 65606, Note_on_c, 1, 43, 0
3, 65649, Note_on_c, 1, 43, 35
3, 65761, Note_on_c, 1, 36, 55
3, 65763, Note_on_c, 1, 43, 0
3, 65856, Note_on_c, 1, 43, 47
3, 65948, Note_on_c, 1, 43, 0
3, 65975, Note_on_c, 1, 43, 48
3, 65991, Note_on_c, 1, 43, 0
3, 66001, Note_on_c, 1, 50, 57
3, 66022, Note_on_c, 1, 50, 0
3, 66065, Note_on_c, 1, 50, 67
3, 66126, Note_on_c, 1, 36, 0
3, 66159, Note_on_c, 1, 48, 64
3, 66161, Note_on_c, 1, 50, 0
3, 66166, Note_on_c, 1, 48, 0
3, 66181, Note_on_c, 1, 43, 42
3, 66194, Note_on_c, 1, 43, 0
3, 66239, Note_on_c, 1, 36, 61
3, 66274, Note_on_c, 1, 36, 0
3, 66301, Note_on_c, 1, 36, 60
3, 66398, Note_on_c, 1, 43, 43
3, 66405, Note_on_c, 1, 43, 0
3, 66465, Note_on_c, 1, 43, 33
3, 66473, Note_on_c, 1, 43, 0
3, 66490, Note_on_c, 1, 51, 52
3, 66505, Note_on_c, 1, 51, 0
3, 66522, Note_on_c, 1, 51, 69
3, 66542, Note_on_c, 1, 51, 0
3, 66552, Note_on_c, 1, 50, 53
3, 66592, Note_on_c, 1, 50, 0
3, 66604, Note_on_c, 1, 48, 60
3, 66619, Note_on_c, 1, 36, 0
3, 66660, Note_on_c, 1, 43, 47
3, 66674, Note_on_c, 1, 48, 0
3, 66713, Note_on_c, 1, 43, 0
3, 66719, Note_on_c, 1, 36, 56
3, 66810, Note_on_c, 1, 43, 40
3, 66818, Note_on_c, 1, 43, 0
3, 66834, Note_on_c, 1, 36, 0
3, 66840, Note_on_c, 1, 51, 53
3, 66859, Note_on_c, 1, 51, 0
3, 66869, Note_on_c, 1, 51, 67
3, 66889, Note_on_c, 1, 51, 0
3, 66898, Note_on_c, 1, 50, 33
3, 66954, Note_on_c, 1, 50, 0
3, 66960, Note_on_c, 1, 48, 62
3, 67009, Note_on_c, 1, 48, 0
3, 67016, Note_on_c, 1, 43, 58
3, 67037, Note_on_c, 1, 43, 0
3, 67081, Note_on_c, 1, 43, 46
3, 67103, Note_on_c, 1, 43, 0
3, 67111, Note_on_c, 1, 36, 60
3, 67171, Note_on_c, 1, 42, 67
3, 67183, Note_on_c, 1, 36, 0
3, 67194, Note_on_c, 1, 42, 0
3, 67196, Note_on_c, 1, 41, 64
3, 67231, Note_on_c, 1, 41, 0
3, 67258, Note_on_c, 1, 36, 49
3, 67346, Note_on_c, 1, 36, 0
3, 67347, Note_on_c, 1, 30, 63
3, 67441, Note_on_c, 1, 30, 0
3, 67445, Note_on_c, 1, 29, 53
3, 67536, Note_on_c, 1, 36, 57
3, 67542, Note_on_c, 1, 36, 0
3, 67548, Note_on_c, 1, 29, 0
3, 67559, Note_on_c, 1, 36, 52
3, 67616, Note_on_c, 1, 36, 0
3, 67619, Note_on_c, 1, 31, 70
3, 67774, Note_on_c, 1, 38, 53
3, 67785, Note_on_c, 1, 38, 0
3, 67799, Note_on_c, 1, 43, 78
3, 67826, Note_on_c, 1, 43, 0
3, 67828, Note_on_c, 1, 44, 38
3, 67832, Note_on_c, 1, 42, 64
3, 67834, Note_on_c, 1, 44, 0
3, 67851, Note_on_c, 1, 42, 0
3, 67858, Note_on_c, 1, 43, 28
3, 67903, Note_on_c, 1, 31, 0
3, 67978, Note_on_c, 1, 44, 15
3, 68003, Note_on_c, 1, 44, 0
3, 68016, Note_on_c, 1, 38, 58
3, 68021, Note_on_c, 1, 43, 0
3, 68029, Note_on_c, 1, 38, 0
3, 68040, Note_on_c, 1, 42, 48
3, 68057, Note_on_c, 1, 42, 0
3, 68075, Note_on_c, 1, 35, 77
3, 68170, Note_on_c, 1, 35, 0
3, 68172, Note_on_c, 1, 36, 64
3, 68260, Note_on_c, 1, 50, 66
3, 68270, Note_on_c, 1, 36, 0
3, 68277, Note_on_c, 1, 50, 0
3, 68285, Note_on_c, 1, 48, 58
3, 68343, Note_on_c, 1, 48, 0
3, 68343, Note_on_c, 1, 43, 68
3, 68516, Note_on_c, 1, 35, 43
3, 68521, Note_on_c, 1, 43, 0
3, 68531, Note_on_c, 1, 35, 0
3, 68547, Note_on_c, 1, 35, 60
3, 68567, Note_on_c, 1, 35, 0
3, 68576, Note_on_c, 1, 38, 66
3, 68629, Note_on_c, 1, 38, 0
3, 68636, Note_on_c, 1, 36, 64
3, 68752, Note_on_c, 1, 36, 0
3, 68758, Note_on_c, 1, 45, 78
3, 68777, Note_on_c, 1, 45, 0
3, 68795, Note_on_c, 1, 36, 53
3, 68804, Note_on_c, 1, 36, 0
3, 68817, Note_on_c, 1, 44, 75
3, 68919, Note_on_c, 1, 44, 0
3, 68919, Note_on_c, 1, 43, 75
3, 68995, Note_on_c, 1, 43, 0
3, 69004, Note_on_c, 1, 31, 56
3, 69032, Note_on_c, 1, 31, 0
3, 69056, Note_on_c, 1, 31, 68
3, 69109, Note_on_c, 1, 31, 0
3, 69120, Note_on_c, 1, 36, 74
3, 69210, Note_on_c, 1, 43, 68
3, 69215, Note_on_c, 1, 36, 0
3, 69224, Note_on_c, 1, 43, 0
3, 69237, Note_on_c, 1, 43, 58
3, 69280, Note_on_c, 1, 43, 0
3, 69299, Note_on_c, 1, 31, 69
3, 69355, Note_on_c, 1, 31, 0
3, 69365, Note_on_c, 1, 36, 58
3, 69455, Note_on_c, 1, 43, 59
3, 69460, Note_on_c, 1, 36, 0
3, 69521, Note_on_c, 1, 43, 0
3, 69523, Note_on_c, 1, 36, 62
3, 69539, Note_on_c, 1, 36, 0
3, 69546, Note_on_c, 1, 53, 80
3, 69598, Note_on_c, 1, 53, 0
3, 69607, Note_on_c, 1, 52, 65
3, 69698, Note_on_c, 1, 48, 37
3, 69703, Note_on_c, 1, 52, 0
3, 69710, Note_on_c, 1, 48, 0
3, 69721, Note_on_c, 1, 43, 38
3, 69738, Note_on_c, 1, 43, 0
3, 69751, Note_on_c, 1, 36, 61
3, 69805, Note_on_c, 1, 36, 0
3, 69837, Note_on_c, 1, 36, 59
3, 69917, Note_on_c, 1, 36, 0
3, 69931, Note_on_c, 1, 36, 34
3, 69957, Note_on_c, 1, 36, 0
3, 69958, Note_on_c, 1, 43, 49
3, 69973, Note_on_c, 1, 43, 0
3, 69990, Note_on_c, 1, 43, 52
3, 70000, Note_on_c, 1, 43, 0
3, 70017, Note_on_c, 1, 36, 58
3, 70069, Note_on_c, 1, 36, 0
3, 70081, Note_on_c, 1, 36, 66
3, 70154, Note_on_c, 1, 36, 0
3, 70170, Note_on_c, 1, 36, 38
3, 70209, Note_on_c, 1, 36, 0
3, 70210, Note_on_c, 1, 46, 44
3, 70217, Note_on_c, 1, 46, 0
3, 70239, Note_on_c, 1, 46, 62
3, 70256, Note_on_c, 1, 46, 0
3, 70261, Note_on_c, 1, 36, 67
3, 70325, Note_on_c, 1, 51, 68
3, 70370, Note_on_c, 1, 36, 0
3, 70408, Note_on_c, 1, 36, 49
3, 70425, Note_on_c, 1, 51, 0
3, 70442, Note_on_c, 1, 50, 36
3, 70443, Note_on_c, 1, 36, 0
3, 70458, Note_on_c, 1, 50, 0
3, 70499, Note_on_c, 1, 36, 68
3, 70648, Note_on_c, 1, 43, 38
3, 70656, Note_on_c, 1, 43, 0
3, 70677, Note_on_c, 1, 51, 76
3, 70699, Note_on_c, 1, 51, 0
3, 70708, Note_on_c, 1, 51, 59
3, 70730, Note_on_c, 1, 51, 0
3, 70740, Note_on_c, 1, 50, 32
3, 70771, Note_on_c, 1, 50, 0
3, 70799, Note_on_c, 1, 48, 68
3, 70810, Note_on_c, 1, 36, 0
3, 70856, Note_on_c, 1, 43, 36
3, 70856, Note_on_c, 1, 45, 38
3, 70867, Note_on_c, 1, 45, 0
3, 70868, Note_on_c, 1, 43, 0
3, 70883, Note_on_c, 1, 43, 19
3, 70931, Note_on_c, 1, 43, 0
3, 70946, Note_on_c, 1, 36, 58
3, 70963, Note_on_c, 1, 36, 0
3, 70968, Note_on_c, 1, 30, 54
3, 70984, Note_on_c, 1, 48, 0
3, 71023, Note_on_c, 1, 30, 0
3, 71036, Note_on_c, 1, 29, 58
3, 71130, Note_on_c, 1, 36, 55
3, 71137, Note_on_c, 1, 36, 0
3, 71157, Note_on_c, 1, 44, 57
3, 71165, Note_on_c, 1, 29, 0
3, 71183, Note_on_c, 1, 44, 0
3, 71190, Note_on_c, 1, 36, 49
3, 71200, Note_on_c, 1, 36, 0
3, 71216, Note_on_c, 1, 43, 72
3, 71264, Note_on_c, 1, 36, 29
3, 71269, Note_on_c, 1, 43, 0
3, 71272, Note_on_c, 1, 36, 0
3, 71281, Note_on_c, 1, 41, 62
3, 71377, Note_on_c, 1, 36, 71
3, 71378, Note_on_c, 1, 41, 0
3, 71390, Note_on_c, 1, 36, 0
3, 71399, Note_on_c, 1, 30, 55
3, 71413, Note_on_c, 1, 30, 0
3, 71414, Note_on_c, 1, 31, 32
3, 71424, Note_on_c, 1, 31, 0
3, 71458, Note_on_c, 1, 31, 78
3, 71619, Note_on_c, 1, 38, 48
3, 71627, Note_on_c, 1, 38, 0
3, 71642, Note_on_c, 1, 47, 74
3, 71657, Note_on_c, 1, 31, 0
3, 71675, Note_on_c, 1, 47, 0
3, 71676, Note_on_c, 1, 46, 59
3, 71681, Note_on_c, 1, 38, 32
3, 71693, Note_on_c, 1, 38, 0
3, 71693, Note_on_c, 1, 46, 0
3, 71702, Note_on_c, 1, 47, 58
3, 71738, Note_on_c, 1, 47, 0
3, 71740, Note_on_c, 1, 31, 78
3, 71803, Note_on_c, 1, 31, 0
3, 71826, Note_on_c, 1, 31, 80
3, 71907, Note_on_c, 1, 31, 0
3, 71915, Note_on_c, 1, 34, 52
3, 71931, Note_on_c, 1, 34, 0
3, 71941, Note_on_c, 1, 35, 60
3, 71993, Note_on_c, 1, 35, 0
3, 71998, Note_on_c, 1, 36, 52
3, 72106, Note_on_c, 1, 34, 42
3, 72116, Note_on_c, 1, 36, 0
3, 72126, Note_on_c, 1, 45, 66
3, 72130, Note_on_c, 1, 34, 0
3, 72151, Note_on_c, 1, 45, 0
3, 72183, Note_on_c, 1, 44, 60
3, 72229, Note_on_c, 1, 44, 0
3, 72245, Note_on_c, 1, 43, 49
3, 72338, Note_on_c, 1, 35, 32
3, 72349, Note_on_c, 1, 43, 0
3, 72362, Note_on_c, 1, 35, 0
3, 72368, Note_on_c, 1, 36, 44
3, 72376, Note_on_c, 1, 36, 0
3, 72417, Note_on_c, 1, 36, 62
3, 72573, Note_on_c, 1, 34, 42
3, 72583, Note_on_c, 1, 36, 0
3, 72588, Note_on_c, 1, 34, 0
3, 72595, Note_on_c, 1, 45, 65
3, 72612, Note_on_c, 1, 45, 0
3, 72656, Note_on_c, 1, 43, 79
3, 72805, Note_on_c, 1, 39, 64
3, 72812, Note_on_c, 1, 43, 0
3, 72820, Note_on_c, 1, 39, 0
3, 72830, Note_on_c, 1, 40, 45
3, 72858, Note_on_c, 1, 40, 0
3, 72885, Note_on_c, 1, 40, 60
3, 72942, Note_on_c, 1, 40, 0
3, 72950, Note_on_c, 1, 41, 73
3, 73045, Note_on_c, 1, 41, 0
3, 73048, Note_on_c, 1, 36, 48
3, 73056, Note_on_c, 1, 36, 0
3, 73074, Note_on_c, 1, 36, 64
3, 73126, Note_on_c, 1, 36, 0
3, 73134, Note_on_c, 1, 29, 65
3, 73302, Note_on_c, 1, 29, 0
3, 73319, Note_on_c, 1, 36, 71
3, 73379, Note_on_c, 1, 36, 0
3, 73389, Note_on_c, 1, 41, 63
3, 73440, Note_on_c, 1, 41, 0
3, 73450, Note_on_c, 1, 44, 83
3, 73465, Note_on_c, 1, 44, 0
3, 73510, Note_on_c, 1, 44, 77
3, 73601, Note_on_c, 1, 41, 59
3, 73608, Note_on_c, 1, 41, 0
3, 73610, Note_on_c, 1, 44, 0
3, 73623, Note_on_c, 1, 43, 65
3, 73672, Note_on_c, 1, 43, 0
3, 73683, Note_on_c, 1, 41, 64
3, 73777, Note_on_c, 1, 36, 68
3, 73784, Note_on_c, 1, 41, 0
3, 73787, Note_on_c, 1, 36, 0
3, 73800, Note_on_c, 1, 36, 71
3, 73839, Note_on_c, 1, 36, 0
3, 73861, Note_on_c, 1, 36, 74
3, 73890, Note_on_c, 1, 36, 0
3, 73981, Note_on_c, 1, 47, 95
3, 73982, Note_on_c, 1, 31, 82
3, 74164, Note_on_c, 1, 31, 0
3, 74169, Note_on_c, 1, 48, 79
3, 74170, Note_on_c, 1, 33, 67
3, 74177, Note_on_c, 1, 47, 0
3, 74275, Note_on_c, 1, 33, 0
3, 74277, Note_on_c, 1, 48, 0
3, 74290, Note_on_c, 1, 33, 63
3, 74290, Note_on_c, 1, 48, 72
3, 74396, Note_on_c, 1, 48, 0
3, 74405, Note_on_c, 1, 33, 0
3, 74411, Note_on_c, 1, 50, 80
3, 74412, Note_on_c, 1, 35, 62
3, 74508, Note_on_c, 1, 48, 87
3, 74509, Note_on_c, 1, 33, 65
3, 74514, Note_on_c, 1, 35, 0
3, 74514, Note_on_c, 1, 50, 0
3, 74585, Note_on_c, 1, 48, 0
3, 74587, Note_on_c, 1, 31, 69
3, 74588, Note_on_c, 1, 33, 0
3, 74588, Note_on_c, 1, 47, 80
3, 74768, Note_on_c, 1, 47, 0
3, 74791, Note_on_c, 1, 36, 54
3, 74800, Note_on_c, 1, 36, 0
3, 74802, Note_on_c, 1, 31, 0
3, 74812, Note_on_c, 1, 42, 71
3, 74865, Note_on_c, 1, 42, 0
3, 74876, Note_on_c, 1, 41, 70
3, 74971, Note_on_c, 1, 36, 62
3, 74978, Note_on_c, 1, 36, 0
3, 74979, Note_on_c, 1, 41, 0
3, 74997, Note_on_c, 1, 36, 70
3, 75038, Note_on_c, 1, 36, 0
3, 75052, Note_on_c, 1, 29, 63
3, 75208, Note_on_c, 1, 29, 0
3, 75208, Note_on_c, 1, 36, 58
3, 75215, Note_on_c, 1, 36, 0
3, 75233, Note_on_c, 1, 36, 64
3, 75288, Note_on_c, 1, 36, 0
3, 75296, Note_on_c, 1, 41, 85
3, 75464, Note_on_c, 1, 41, 0
3, 75475, Note_on_c, 1, 44, 75
3, 75577, Note_on_c, 1, 36, 59
3, 75581, Note_on_c, 1, 44, 0
3, 75585, Note_on_c, 1, 36, 0
3, 75598, Note_on_c, 1, 41, 63
3, 75612, Note_on_c, 1, 41, 0
3, 75654, Note_on_c, 1, 41, 71
3, 75755, Note_on_c, 1, 36, 44
3, 75763, Note_on_c, 1, 36, 0
3, 75817, Note_on_c, 1, 41, 0
3, 75843, Note_on_c, 1, 43, 66
3, 75897, Note_on_c, 1, 43, 0
3, 75941, Note_on_c, 1, 38, 55
3, 75957, Note_on_c, 1, 38, 0
3, 75970, Note_on_c, 1, 41, 31
3, 75994, Note_on_c, 1, 41, 0
3, 76003, Note_on_c, 1, 43, 42
3, 76011, Note_on_c, 1, 43, 0
3, 76052, Note_on_c, 1, 48, 84
3, 76125, Note_on_c, 1, 48, 0
3, 76137, Note_on_c, 1, 47, 46
3, 76162, Note_on_c, 1, 47, 0
3, 76178, Note_on_c, 1, 43, 40
3, 76186, Note_on_c, 1, 43, 0
3, 76200, Note_on_c, 1, 48, 75
3, 76245, Note_on_c, 1, 48, 0
3, 76257, Note_on_c, 1, 47, 67
3, 76278, Note_on_c, 1, 47, 0
3, 76319, Note_on_c, 1, 43, 64
3, 76338, Note_on_c, 1, 43, 0
3, 76379, Note_on_c, 1, 38, 38
3, 76406, Note_on_c, 1, 38, 0
3, 76436, Note_on_c, 1, 41, 47
3, 76461, Note_on_c, 1, 41, 0
3, 76478, Note_on_c, 1, 43, 59
3, 76493, Note_on_c, 1, 43, 0
3, 76532, Note_on_c, 1, 48, 94
3, 76552, Note_on_c, 1, 48, 0
3, 76595, Note_on_c, 1, 47, 90
3, 76625, Note_on_c, 1, 47, 0
3, 76656, Note_on_c, 1, 43, 44
3, 76663, Note_on_c, 1, 43, 0
3, 76681, Note_on_c, 1, 48, 90
3, 76729, Note_on_c, 1, 48, 0
3, 76738, Note_on_c, 1, 47, 64
3, 76795, Note_on_c, 1, 47, 0
3, 76805, Note_on_c, 1, 36, 69
3, 76895, Note_on_c, 1, 43, 67
3, 76909, Note_on_c, 1, 43, 0
3, 76959, Note_on_c, 1, 43, 62
3, 76967, Note_on_c, 1, 43, 0
3, 76969, Note_on_c, 1, 36, 0
3, 76987, Note_on_c, 1, 52, 76
3, 77134, Note_on_c, 1, 48, 72
3, 77138, Note_on_c, 1, 52, 0
3, 77147, Note_on_c, 1, 48, 0
3, 77161, Note_on_c, 1, 48, 54
3, 77172, Note_on_c, 1, 48, 0
3, 77220, Note_on_c, 1, 43, 62
3, 77238, Note_on_c, 1, 43, 0
3, 77287, Note_on_c, 1, 36, 65
3, 77377, Note_on_c, 1, 43, 55
3, 77387, Note_on_c, 1, 36, 0
3, 77388, Note_on_c, 1, 43, 0
3, 77437, Note_on_c, 1, 36, 59
3, 77453, Note_on_c, 1, 36, 0
3, 77464, Note_on_c, 1, 31, 64
3, 77625, Note_on_c, 1, 36, 62
3, 77632, Note_on_c, 1, 31, 0
3, 77638, Note_on_c, 1, 36, 0
3, 77649, Note_on_c, 1, 36, 62
3, 77684, Note_on_c, 1, 36, 0
3, 77707, Note_on_c, 1, 36, 71
3, 77859, Note_on_c, 1, 43, 37
3, 77867, Note_on_c, 1, 43, 0
3, 77885, Note_on_c, 1, 51, 56
3, 77906, Note_on_c, 1, 51, 0
3, 77907, Note_on_c, 1, 36, 0
3, 77918, Note_on_c, 1, 51, 70
3, 77945, Note_on_c, 1, 51, 0
3, 77946, Note_on_c, 1, 50, 47
3, 77995, Note_on_c, 1, 50, 0
3, 78006, Note_on_c, 1, 48, 50
3, 78097, Note_on_c, 1, 48, 0
3, 78099, Note_on_c, 1, 43, 26
3, 78106, Note_on_c, 1, 43, 0
3, 78118, Note_on_c, 1, 36, 74
3, 78166, Note_on_c, 1, 36, 0
3, 78179, Note_on_c, 1, 36, 71
3, 78334, Note_on_c, 1, 43, 41
3, 78342, Note_on_c, 1, 43, 0
3, 78356, Note_on_c, 1, 36, 0
3, 78361, Note_on_c, 1, 51, 55
3, 78379, Note_on_c, 1, 51, 0
3, 78390, Note_on_c, 1, 51, 80
3, 78420, Note_on_c, 1, 51, 0
3, 78421, Note_on_c, 1, 50, 59
3, 78453, Note_on_c, 1, 50, 0
3, 78474, Note_on_c, 1, 48, 65
3, 78524, Note_on_c, 1, 48, 0
3, 78534, Note_on_c, 1, 43, 48
3, 78553, Note_on_c, 1, 43, 0
3, 78566, Note_on_c, 1, 43, 60
3, 78589, Note_on_c, 1, 43, 0
3, 78623, Note_on_c, 1, 36, 81
3, 78653, Note_on_c, 1, 43, 54
3, 78661, Note_on_c, 1, 43, 0
3, 78708, Note_on_c, 1, 36, 0
3, 78710, Note_on_c, 1, 29, 68
3, 78837, Note_on_c, 1, 36, 59
3, 78897, Note_on_c, 1, 36, 0
3, 78938, Note_on_c, 1, 36, 57
3, 78945, Note_on_c, 1, 36, 0
3, 78961, Note_on_c, 1, 44, 52
3, 78977, Note_on_c, 1, 44, 0
3, 78994, Note_on_c, 1, 44, 45
3, 79017, Note_on_c, 1, 44, 0
3, 79018, Note_on_c, 1, 43, 51
3, 79022, Note_on_c, 1, 29, 0
3, 79072, Note_on_c, 1, 43, 0
3, 79084, Note_on_c, 1, 41, 56
3, 79110, Note_on_c, 1, 41, 0
3, 79146, Note_on_c, 1, 36, 62
3, 79191, Note_on_c, 1, 36, 0
3, 79204, Note_on_c, 1, 31, 62
3, 79305, Note_on_c, 1, 38, 28
3, 79317, Note_on_c, 1, 38, 0
3, 79325, Note_on_c, 1, 43, 73
3, 79359, Note_on_c, 1, 42, 57
3, 79361, Note_on_c, 1, 43, 0
3, 79374, Note_on_c, 1, 42, 0
3, 79380, Note_on_c, 1, 43, 34
3, 79388, Note_on_c, 1, 31, 0
3, 79477, Note_on_c, 1, 31, 60
3, 79494, Note_on_c, 1, 31, 0
3, 79552, Note_on_c, 1, 43, 0
3, 79556, Note_on_c, 1, 31, 69
3, 79680, Note_on_c, 1, 31, 0
3, 79682, Note_on_c, 1, 36, 70
3, 79779, Note_on_c, 1, 45, 72
3, 79790, Note_on_c, 1, 36, 0
3, 79792, Note_on_c, 1, 45, 0
3, 79834, Note_on_c, 1, 44, 71
3, 79850, Note_on_c, 1, 44, 0
3, 79858, Note_on_c, 1, 43, 63
3, 79962, Note_on_c, 1, 36, 70
3, 79972, Note_on_c, 1, 43, 0
3, 79973, Note_on_c, 1, 36, 0
3, 80020, Note_on_c, 1, 36, 68
3, 80035, Note_on_c, 1, 36, 0
3, 80047, Note_on_c, 1, 31, 62
3, 80075, Note_on_c, 1, 31, 0
3, 80105, Note_on_c, 1, 31, 66
3, 80132, Note_on_c, 1, 31, 0
3, 80165, Note_on_c, 1, 36, 68
3, 80268, Note_on_c, 1, 36, 0
3, 80275, Note_on_c, 1, 45, 73
3, 80284, Note_on_c, 1, 45, 0
3, 80324, Note_on_c, 1, 45, 74
3, 80333, Note_on_c, 1, 45, 0
3, 80377, Note_on_c, 1, 44, 74
3, 80394, Note_on_c, 1, 44, 0
3, 80401, Note_on_c, 1, 43, 60
3, 80435, Note_on_c, 1, 43, 0
3, 80461, Note_on_c, 1, 36, 71
3, 80511, Note_on_c, 1, 36, 0
3, 80519, Note_on_c, 1, 31, 58
3, 80555, Note_on_c, 1, 31, 0
3, 80579, Note_on_c, 1, 31, 66
3, 80617, Note_on_c, 1, 31, 0
3, 80652, Note_on_c, 1, 31, 94
3, 80863, Note_on_c, 1, 35, 95
3, 80870, Note_on_c, 1, 31, 0
3, 80886, Note_on_c, 1, 35, 0
3, 80919, Note_on_c, 1, 35, 90
3, 80953, Note_on_c, 1, 35, 0
3, 80975, Note_on_c, 1, 36, 78
3, 81003, Note_on_c, 1, 36, 0
3, 81004, Note_on_c, 1, 38, 77
3, 81056, Note_on_c, 1, 38, 0
3, 81067, Note_on_c, 1, 45, 74
3, 81068, Note_on_c, 1, 43, 71
3, 81076, Note_on_c, 1, 45, 0
3, 81117, Note_on_c, 1, 43, 0
3, 81119, Note_on_c, 1, 31, 84
3, 81336, Note_on_c, 1, 31, 0
3, 81341, Note_on_c, 1, 35, 94
3, 81369, Note_on_c, 1, 35, 0
3, 81403, Note_on_c, 1, 35, 92
3, 81433, Note_on_c, 1, 35, 0
3, 81459, Note_on_c, 1, 36, 75
3, 81483, Note_on_c, 1, 36, 0
3, 81486, Note_on_c, 1, 38, 77
3, 81542, Note_on_c, 1, 38, 0
3, 81545, Note_on_c, 1, 43, 103
3, 81583, Note_on_c, 1, 43, 0
3, 81602, Note_on_c, 1, 31, 92
3, 81804, Note_on_c, 1, 31, 0
3, 81817, Note_on_c, 1, 35, 90
3, 81840, Note_on_c, 1, 35, 0
3, 81882, Note_on_c, 1, 35, 96
3, 81906, Note_on_c, 1, 35, 0
3, 81936, Note_on_c, 1, 36, 84
3, 81959, Note_on_c, 1, 36, 0
3, 81965, Note_on_c, 1, 38, 82
3, 82021, Note_on_c, 1, 43, 101
3, 82025, Note_on_c, 1, 38, 0
3, 82072, Note_on_c, 1, 43, 0
3, 82080, Note_on_c, 1, 31, 91
3, 82289, Note_on_c, 1, 31, 0
3, 82296, Note_on_c, 1, 35, 94
3, 82324, Note_on_c, 1, 35, 0
3, 82362, Note_on_c, 1, 35, 103
3, 82392, Note_on_c, 1, 35, 0
3, 82414, Note_on_c, 1, 36, 82
3, 82440, Note_on_c, 1, 38, 84
3, 82443, Note_on_c, 1, 36, 0
3, 82499, Note_on_c, 1, 43, 95
3, 82502, Note_on_c, 1, 38, 0
3, 82553, Note_on_c, 1, 43, 0
3, 82558, Note_on_c, 1, 31, 92
3, 82775, Note_on_c, 1, 35, 89
3, 82778, Note_on_c, 1, 31, 0
3, 82797, Note_on_c, 1, 35, 0
3, 82836, Note_on_c, 1, 35, 91
3, 82859, Note_on_c, 1, 35, 0
3, 82890, Note_on_c, 1, 36, 76
3, 82920, Note_on_c, 1, 38, 82
3, 82929, Note_on_c, 1, 36, 0
3, 82980, Note_on_c, 1, 38, 0
3, 82981, Note_on_c, 1, 43, 103
3, 83032, Note_on_c, 1, 43, 0
3, 83039, Note_on_c, 1, 31, 82
3, 83242, Note_on_c, 1, 31, 0
3, 83256, Note_on_c, 1, 35, 90
3, 83278, Note_on_c, 1, 35, 0
3, 83314, Note_on_c, 1, 35, 88
3, 83335, Note_on_c, 1, 35, 0
3, 83369, Note_on_c, 1, 36, 73
3, 83396, Note_on_c, 1, 38, 78
3, 83397, Note_on_c, 1, 36, 0
3, 83453, Note_on_c, 1, 38, 0
3, 83459, Note_on_c, 1, 43, 85
3, 83486, Note_on_c, 1, 43, 0
3, 83517, Note_on_c, 1, 36, 87
3, 83742, Note_on_c, 1, 43, 79
3, 83755, Note_on_c, 1, 43, 0
3, 83786, Note_on_c, 1, 36, 0
3, 83800, Note_on_c, 1, 43, 80
3, 83815, Note_on_c, 1, 43, 0
3, 83852, Note_on_c, 1, 36, 47
3, 83877, Note_on_c, 1, 43, 78
3, 83885, Note_on_c, 1, 36, 0
3, 83942, Note_on_c, 1, 45, 71
3, 83950, Note_on_c, 1, 43, 0
3, 83963, Note_on_c, 1, 45, 0
3, 83998, Note_on_c, 1, 36, 65
3, 84021, Note_on_c, 1, 36, 0
3, 84123, Note_on_c, 1, 43, 60
3, 84144, Note_on_c, 1, 43, 0
3, 84250, Note_on_c, 1, 48, 60
3, 84288, Note_on_c, 1, 48, 0
3, 84288, End_track
4, 0, Start_track
4, 0, Title_t, "Drums"
4, 0, Control_c, 9, 0, 0
4, 0, Control_c, 9, 32, 3
4, 0, Program_c, 9, 32
4, 0, Control_c, 9, 91, 0
4, 0, Control_c, 9, 93, 0
4, 0, Note_on_c, 9, 64, 63
4, 18, Note_on_c, 9, 64, 0
4, 60, Note_on_c, 9, 44, 30
4, 106, Note_on_c, 9, 64, 36
4, 115, Note_on_c, 9, 64, 0
4, 120, Note_on_c, 9, 44, 0
4, 129, Note_on_c, 9, 64, 65
4, 154, Note_on_c, 9, 64, 0
4, 180, Note_on_c, 9, 44, 25
4, 218, Note_on_c, 9, 64, 46
4, 226, Note_on_c, 9, 64, 0
4, 240, Note_on_c, 9, 44, 0
4, 244, Note_on_c, 9, 64, 57
4, 260, Note_on_c, 9, 64, 0
4, 300, Note_on_c, 9, 44, 24
4, 334, Note_on_c, 9, 64, 53
4, 342, Note_on_c, 9, 64, 0
4, 360, Note_on_c, 9, 44, 0
4, 360, Note_on_c, 9, 64, 47
4, 387, Note_on_c, 9, 64, 0
4, 418, Note_on_c, 9, 41, 43
4, 420, Note_on_c, 9, 44, 21
4, 428, Note_on_c, 9, 41, 0
4, 480, Note_on_c, 9, 44, 0
4, 487, Note_on_c, 9, 64, 48
4, 508, Note_on_c, 9, 64, 0
4, 540, Note_on_c, 9, 44, 18
4, 583, Note_on_c, 9, 64, 47
4, 591, Note_on_c, 9, 64, 0
4, 600, Note_on_c, 9, 44, 0
4, 606, Note_on_c, 9, 64, 55
4, 627, Note_on_c, 9, 64, 0
4, 660, Note_on_c, 9, 44, 19
4, 702, Note_on_c, 9, 64, 48
4, 710, Note_on_c, 9, 64, 0
4, 720, Note_on_c, 9, 44, 0
4, 724, Note_on_c, 9, 64, 55
4, 745, Note_on_c, 9, 64, 0
4, 780, Note_on_c, 9, 44, 17
4, 813, Note_on_c, 9, 64, 52
4, 821, Note_on_c, 9, 64, 0
4, 840, Note_on_c, 9, 44, 0
4, 840, Note_on_c, 9, 64, 50
4, 873, Note_on_c, 9, 64, 0
4, 900, Note_on_c, 9, 41, 51
4, 900, Note_on_c, 9, 44, 17
4, 912, Note_on_c, 9, 41, 0
4, 960, Note_on_c, 9, 44, 0
4, 964, Note_on_c, 9, 64, 58
4, 979, Note_on_c, 9, 64, 0
4, 1020, Note_on_c, 9, 44, 21
4, 1060, Note_on_c, 9, 64, 38
4, 1069, Note_on_c, 9, 64, 0
4, 1080, Note_on_c, 9, 44, 0
4, 1086, Note_on_c, 9, 64, 53
4, 1105, Note_on_c, 9, 64, 0
4, 1140, Note_on_c, 9, 44, 17
4, 1179, Note_on_c, 9, 64, 39
4, 1187, Note_on_c, 9, 64, 0
4, 1200, Note_on_c, 9, 44, 0
4, 1205, Note_on_c, 9, 64, 46
4, 1224, Note_on_c, 9, 64, 0
4, 1260, Note_on_c, 9, 44, 19
4, 1291, Note_on_c, 9, 64, 48
4, 1300, Note_on_c, 9, 64, 0
4, 1319, Note_on_c, 9, 64, 47
4, 1320, Note_on_c, 9, 44, 0
4, 1338, Note_on_c, 9, 64, 0
4, 1380, Note_on_c, 9, 44, 19
4, 1440, Note_on_c, 9, 44, 0
4, 1500, Note_on_c, 9, 44, 19
4, 1539, Note_on_c, 9, 64, 36
4, 1548, Note_on_c, 9, 64, 0
4, 1560, Note_on_c, 9, 44, 0
4, 1564, Note_on_c, 9, 64, 54
4, 1585, Note_on_c, 9, 64, 0
4, 1620, Note_on_c, 9, 44, 22
4, 1656, Note_on_c, 9, 64, 40
4, 1665, Note_on_c, 9, 64, 0
4, 1678, Note_on_c, 9, 64, 39
4, 1680, Note_on_c, 9, 44, 0
4, 1696, Note_on_c, 9, 64, 0
4, 1740, Note_on_c, 9, 44, 19
4, 1769, Note_on_c, 9, 64, 55
4, 1777, Note_on_c, 9, 64, 0
4, 1797, Note_on_c, 9, 64, 41
4, 1800, Note_on_c, 9, 44, 0
4, 1825, Note_on_c, 9, 64, 0
4, 1858, Note_on_c, 9, 41, 60
4, 1860, Note_on_c, 9, 44, 18
4, 1875, Note_on_c, 9, 41, 0
4, 1920, Note_on_c, 9, 44, 0
4, 1921, Note_on_c, 9, 64, 62
4, 1933, Note_on_c, 9, 64, 0
4, 1980, Note_on_c, 9, 44, 20
4, 2016, Note_on_c, 9, 64, 41
4, 2024, Note_on_c, 9, 64, 0
4, 2040, Note_on_c, 9, 44, 0
4, 2041, Note_on_c, 9, 64, 51
4, 2063, Note_on_c, 9, 64, 0
4, 2100, Note_on_c, 9, 44, 19
4, 2143, Note_on_c, 9, 64, 24
4, 2150, Note_on_c, 9, 64, 0
4, 2160, Note_on_c, 9, 44, 0
4, 2164, Note_on_c, 9, 64, 41
4, 2173, Note_on_c, 9, 64, 0
4, 2220, Note_on_c, 9, 44, 22
4, 2251, Note_on_c, 9, 64, 55
4, 2259, Note_on_c, 9, 64, 0
4, 2278, Note_on_c, 9, 64, 48
4, 2280, Note_on_c, 9, 44, 0
4, 2309, Note_on_c, 9, 64, 0
4, 2337, Note_on_c, 9, 41, 58
4, 2340, Note_on_c, 9, 44, 21
4, 2355, Note_on_c, 9, 41, 0
4, 2400, Note_on_c, 9, 44, 0
4, 2400, Note_on_c, 9, 64, 58
4, 2418, Note_on_c, 9, 64, 0
4, 2460, Note_on_c, 9, 44, 21
4, 2499, Note_on_c, 9, 64, 43
4, 2507, Note_on_c, 9, 64, 0
4, 2520, Note_on_c, 9, 44, 0
4, 2522, Note_on_c, 9, 64, 58
4, 2541, Note_on_c, 9, 64, 0
4, 2580, Note_on_c, 9, 44, 21
4, 2614, Note_on_c, 9, 64, 36
4, 2623, Note_on_c, 9, 64, 0
4, 2640, Note_on_c, 9, 44, 0
4, 2642, Note_on_c, 9, 64, 44
4, 2654, Note_on_c, 9, 64, 0
4, 2700, Note_on_c, 9, 44, 18
4, 2729, Note_on_c, 9, 64, 44
4, 2738, Note_on_c, 9, 64, 0
4, 2760, Note_on_c, 9, 44, 0
4, 2761, Note_on_c, 9, 64, 33
4, 2786, Note_on_c, 9, 64, 0
4, 2817, Note_on_c, 9, 41, 52
4, 2820, Note_on_c, 9, 44, 19
4, 2828, Note_on_c, 9, 41, 0
4, 2880, Note_on_c, 9, 44, 0
4, 2880, Note_on_c, 9, 64, 54
4, 2894, Note_on_c, 9, 64, 0
4, 2940, Note_on_c, 9, 44, 18
4, 2976, Note_on_c, 9, 64, 33
4, 2985, Note_on_c, 9, 64, 0
4, 3000, Note_on_c, 9, 44, 0
4, 3003, Note_on_c, 9, 64, 45
4, 3022, Note_on_c, 9, 64, 0
4, 3060, Note_on_c, 9, 44, 18
4, 3093, Note_on_c, 9, 64, 42
4, 3103, Note_on_c, 9, 64, 0
4, 3120, Note_on_c, 9, 44, 0
4, 3123, Note_on_c, 9, 64, 40
4, 3133, Note_on_c, 9, 64, 0
4, 3180, Note_on_c, 9, 44, 16
4, 3209, Note_on_c, 9, 64, 51
4, 3218, Note_on_c, 9, 64, 0
4, 3238, Note_on_c, 9, 64, 47
4, 3240, Note_on_c, 9, 44, 0
4, 3261, Note_on_c, 9, 64, 0
4, 3296, Note_on_c, 9, 41, 53
4, 3300, Note_on_c, 9, 44, 23
4, 3310, Note_on_c, 9, 41, 0
4, 3357, Note_on_c, 9, 64, 57
4, 3360, Note_on_c, 9, 44, 0
4, 3367, Note_on_c, 9, 64, 0
4, 3420, Note_on_c, 9, 44, 17
4, 3459, Note_on_c, 9, 64, 56
4, 3474, Note_on_c, 9, 64, 0
4, 3480, Note_on_c, 9, 44, 0
4, 3487, Note_on_c, 9, 64, 49
4, 3494, Note_on_c, 9, 64, 0
4, 3540, Note_on_c, 9, 44, 21
4, 3576, Note_on_c, 9, 64, 42
4, 3584, Note_on_c, 9, 64, 0
4, 3600, Note_on_c, 9, 44, 0
4, 3602, Note_on_c, 9, 64, 51
4, 3618, Note_on_c, 9, 64, 0
4, 3660, Note_on_c, 9, 44, 21
4, 3693, Note_on_c, 9, 64, 54
4, 3701, Note_on_c, 9, 64, 0
4, 3720, Note_on_c, 9, 44, 0
4, 3723, Note_on_c, 9, 64, 44
4, 3741, Note_on_c, 9, 64, 0
4, 3779, Note_on_c, 9, 41, 49
4, 3780, Note_on_c, 9, 46, 37
4, 3788, Note_on_c, 9, 41, 0
4, 3840, Note_on_c, 9, 46, 0
4, 3844, Note_on_c, 9, 64, 64
4, 3852, Note_on_c, 9, 64, 0
4, 3900, Note_on_c, 9, 44, 17
4, 3932, Note_on_c, 9, 64, 48
4, 3940, Note_on_c, 9, 64, 0
4, 3956, Note_on_c, 9, 64, 45
4, 3960, Note_on_c, 9, 44, 0
4, 3974, Note_on_c, 9, 64, 0
4, 4020, Note_on_c, 9, 44, 17
4, 4047, Note_on_c, 9, 64, 51
4, 4055, Note_on_c, 9, 64, 0
4, 4075, Note_on_c, 9, 64, 40
4, 4080, Note_on_c, 9, 44, 0
4, 4093, Note_on_c, 9, 64, 0
4, 4140, Note_on_c, 9, 44, 18
4, 4171, Note_on_c, 9, 64, 48
4, 4179, Note_on_c, 9, 64, 0
4, 4197, Note_on_c, 9, 64, 36
4, 4200, Note_on_c, 9, 44, 0
4, 4219, Note_on_c, 9, 64, 0
4, 4257, Note_on_c, 9, 41, 41
4, 4260, Note_on_c, 9, 44, 18
4, 4270, Note_on_c, 9, 41, 0
4, 4320, Note_on_c, 9, 44, 0
4, 4325, Note_on_c, 9, 64, 65
4, 4332, Note_on_c, 9, 64, 0
4, 4380, Note_on_c, 9, 44, 18
4, 4418, Note_on_c, 9, 64, 40
4, 4427, Note_on_c, 9, 64, 0
4, 4440, Note_on_c, 9, 44, 0
4, 4442, Note_on_c, 9, 64, 49
4, 4460, Note_on_c, 9, 64, 0
4, 4500, Note_on_c, 9, 44, 19
4, 4537, Note_on_c, 9, 64, 44
4, 4546, Note_on_c, 9, 64, 0
4, 4560, Note_on_c, 9, 44, 0
4, 4563, Note_on_c, 9, 64, 49
4, 4572, Note_on_c, 9, 64, 0
4, 4620, Note_on_c, 9, 44, 19
4, 4655, Note_on_c, 9, 64, 40
4, 4663, Note_on_c, 9, 64, 0
4, 4679, Note_on_c, 9, 64, 45
4, 4680, Note_on_c, 9, 44, 0
4, 4701, Note_on_c, 9, 64, 0
4, 4739, Note_on_c, 9, 41, 57
4, 4740, Note_on_c, 9, 44, 16
4, 4750, Note_on_c, 9, 41, 0
4, 4800, Note_on_c, 9, 44, 0
4, 4801, Note_on_c, 9, 64, 58
4, 4809, Note_on_c, 9, 64, 0
4, 4860, Note_on_c, 9, 44, 16
4, 4897, Note_on_c, 9, 64, 41
4, 4906, Note_on_c, 9, 64, 0
4, 4920, Note_on_c, 9, 44, 0
4, 4922, Note_on_c, 9, 64, 54
4, 4938, Note_on_c, 9, 64, 0
4, 4980, Note_on_c, 9, 44, 18
4, 5016, Note_on_c, 9, 64, 44
4, 5025, Note_on_c, 9, 64, 0
4, 5040, Note_on_c, 9, 44, 0
4, 5041, Note_on_c, 9, 64, 49
4, 5058, Note_on_c, 9, 64, 0
4, 5100, Note_on_c, 9, 44, 19
4, 5134, Note_on_c, 9, 64, 46
4, 5142, Note_on_c, 9, 64, 0
4, 5160, Note_on_c, 9, 44, 0
4, 5166, Note_on_c, 9, 64, 44
4, 5186, Note_on_c, 9, 64, 0
4, 5216, Note_on_c, 9, 41, 59
4, 5220, Note_on_c, 9, 44, 24
4, 5231, Note_on_c, 9, 41, 0
4, 5280, Note_on_c, 9, 44, 0
4, 5280, Note_on_c, 9, 64, 67
4, 5294, Note_on_c, 9, 64, 0
4, 5340, Note_on_c, 9, 44, 16
4, 5371, Note_on_c, 9, 64, 38
4, 5380, Note_on_c, 9, 64, 0
4, 5400, Note_on_c, 9, 44, 0
4, 5400, Note_on_c, 9, 64, 48
4, 5414, Note_on_c, 9, 64, 0
4, 5460, Note_on_c, 9, 44, 17
4, 5492, Note_on_c, 9, 64, 45
4, 5501, Note_on_c, 9, 64, 0
4, 5516, Note_on_c, 9, 64, 49
4, 5520, Note_on_c, 9, 44, 0
4, 5530, Note_on_c, 9, 64, 0
4, 5580, Note_on_c, 9, 44, 16
4, 5605, Note_on_c, 9, 64, 50
4, 5613, Note_on_c, 9, 64, 0
4, 5635, Note_on_c, 9, 64, 47
4, 5640, Note_on_c, 9, 44, 0
4, 5659, Note_on_c, 9, 64, 0
4, 5699, Note_on_c, 9, 41, 50
4, 5700, Note_on_c, 9, 44, 23
4, 5713, Note_on_c, 9, 41, 0
4, 5760, Note_on_c, 9, 44, 0
4, 5763, Note_on_c, 9, 64, 64
4, 5771, Note_on_c, 9, 64, 0
4, 5820, Note_on_c, 9, 44, 11
4, 5861, Note_on_c, 9, 64, 48
4, 5869, Note_on_c, 9, 64, 0
4, 5880, Note_on_c, 9, 44, 0
4, 5888, Note_on_c, 9, 64, 45
4, 5907, Note_on_c, 9, 64, 0
4, 5940, Note_on_c, 9, 44, 14
4, 5988, Note_on_c, 9, 64, 42
4, 5997, Note_on_c, 9, 64, 0
4, 6000, Note_on_c, 9, 44, 0
4, 6011, Note_on_c, 9, 64, 54
4, 6019, Note_on_c, 9, 64, 0
4, 6060, Note_on_c, 9, 44, 21
4, 6100, Note_on_c, 9, 64, 47
4, 6109, Note_on_c, 9, 64, 0
4, 6120, Note_on_c, 9, 44, 0
4, 6123, Note_on_c, 9, 64, 62
4, 6142, Note_on_c, 9, 64, 0
4, 6179, Note_on_c, 9, 41, 64
4, 6180, Note_on_c, 9, 46, 50
4, 6196, Note_on_c, 9, 41, 0
4, 6240, Note_on_c, 9, 46, 0
4, 6242, Note_on_c, 9, 64, 61
4, 6249, Note_on_c, 9, 64, 0
4, 6300, Note_on_c, 9, 44, 19
4, 6341, Note_on_c, 9, 64, 33
4, 6350, Note_on_c, 9, 64, 0
4, 6360, Note_on_c, 9, 44, 0
4, 6365, Note_on_c, 9, 64, 64
4, 6371, Note_on_c, 9, 64, 0
4, 6420, Note_on_c, 9, 44, 16
4, 6452, Note_on_c, 9, 64, 53
4, 6460, Note_on_c, 9, 64, 0
4, 6478, Note_on_c, 9, 64, 49
4, 6480, Note_on_c, 9, 44, 0
4, 6498, Note_on_c, 9, 64, 0
4, 6540, Note_on_c, 9, 44, 19
4, 6578, Note_on_c, 9, 64, 62
4, 6585, Note_on_c, 9, 64, 0
4, 6600, Note_on_c, 9, 44, 0
4, 6604, Note_on_c, 9, 64, 57
4, 6622, Note_on_c, 9, 64, 0
4, 6657, Note_on_c, 9, 41, 70
4, 6660, Note_on_c, 9, 44, 17
4, 6672, Note_on_c, 9, 41, 0
4, 6720, Note_on_c, 9, 44, 0
4, 6721, Note_on_c, 9, 64, 66
4, 6731, Note_on_c, 9, 64, 0
4, 6780, Note_on_c, 9, 44, 16
4, 6814, Note_on_c, 9, 64, 34
4, 6823, Note_on_c, 9, 64, 0
4, 6838, Note_on_c, 9, 64, 52
4, 6840, Note_on_c, 9, 44, 0
4, 6857, Note_on_c, 9, 64, 0
4, 6900, Note_on_c, 9, 44, 16
4, 6934, Note_on_c, 9, 64, 36
4, 6943, Note_on_c, 9, 64, 0
4, 6958, Note_on_c, 9, 64, 54
4, 6960, Note_on_c, 9, 44, 0
4, 6968, Note_on_c, 9, 64, 0
4, 7020, Note_on_c, 9, 44, 19
4, 7050, Note_on_c, 9, 64, 55
4, 7057, Note_on_c, 9, 64, 0
4, 7080, Note_on_c, 9, 44, 0
4, 7080, Note_on_c, 9, 64, 35
4, 7096, Note_on_c, 9, 64, 0
4, 7136, Note_on_c, 9, 41, 60
4, 7140, Note_on_c, 9, 44, 23
4, 7150, Note_on_c, 9, 41, 0
4, 7196, Note_on_c, 9, 64, 66
4, 7200, Note_on_c, 9, 44, 0
4, 7210, Note_on_c, 9, 64, 0
4, 7260, Note_on_c, 9, 44, 17
4, 7287, Note_on_c, 9, 64, 36
4, 7297, Note_on_c, 9, 64, 0
4, 7314, Note_on_c, 9, 64, 50
4, 7320, Note_on_c, 9, 44, 0
4, 7324, Note_on_c, 9, 64, 0
4, 7380, Note_on_c, 9, 44, 20
4, 7435, Note_on_c, 9, 64, 55
4, 7440, Note_on_c, 9, 44, 0
4, 7451, Note_on_c, 9, 64, 0
4, 7500, Note_on_c, 9, 44, 20
4, 7533, Note_on_c, 9, 64, 56
4, 7541, Note_on_c, 9, 64, 0
4, 7560, Note_on_c, 9, 44, 0
4, 7560, Note_on_c, 9, 64, 51
4, 7584, Note_on_c, 9, 64, 0
4, 7617, Note_on_c, 9, 41, 68
4, 7620, Note_on_c, 9, 44, 26
4, 7633, Note_on_c, 9, 41, 0
4, 7680, Note_on_c, 9, 44, 0
4, 7680, Note_on_c, 9, 64, 67
4, 7694, Note_on_c, 9, 64, 0
4, 7740, Note_on_c, 9, 44, 30
4, 7800, Note_on_c, 9, 44, 0
4, 7803, Note_on_c, 9, 64, 58
4, 7823, Note_on_c, 9, 64, 0
4, 7860, Note_on_c, 9, 44, 25
4, 7899, Note_on_c, 9, 64, 66
4, 7907, Note_on_c, 9, 64, 0
4, 7920, Note_on_c, 9, 44, 0
4, 7926, Note_on_c, 9, 64, 56
4, 7939, Note_on_c, 9, 64, 0
4, 7980, Note_on_c, 9, 44, 24
4, 8014, Note_on_c, 9, 64, 64
4, 8023, Note_on_c, 9, 64, 0
4, 8040, Note_on_c, 9, 44, 0
4, 8041, Note_on_c, 9, 64, 61
4, 8066, Note_on_c, 9, 64, 0
4, 8099, Note_on_c, 9, 41, 64
4, 8100, Note_on_c, 9, 44, 21
4, 8116, Note_on_c, 9, 41, 0
4, 8160, Note_on_c, 9, 44, 0
4, 8162, Note_on_c, 9, 64, 71
4, 8178, Note_on_c, 9, 64, 0
4, 8220, Note_on_c, 9, 44, 18
4, 8253, Note_on_c, 9, 64, 52
4, 8261, Note_on_c, 9, 64, 0
4, 8280, Note_on_c, 9, 44, 0
4, 8282, Note_on_c, 9, 64, 54
4, 8291, Note_on_c, 9, 64, 0
4, 8340, Note_on_c, 9, 44, 19
4, 8399, Note_on_c, 9, 64, 67
4, 8400, Note_on_c, 9, 44, 0
4, 8406, Note_on_c, 9, 64, 0
4, 8419, Note_on_c, 9, 64, 31
4, 8428, Note_on_c, 9, 64, 0
4, 8460, Note_on_c, 9, 44, 17
4, 8494, Note_on_c, 9, 64, 53
4, 8503, Note_on_c, 9, 64, 0
4, 8519, Note_on_c, 9, 64, 71
4, 8520, Note_on_c, 9, 44, 0
4, 8533, Note_on_c, 9, 64, 0
4, 8577, Note_on_c, 9, 41, 62
4, 8580, Note_on_c, 9, 44, 17
4, 8595, Note_on_c, 9, 41, 0
4, 8640, Note_on_c, 9, 44, 0
4, 8642, Note_on_c, 9, 64, 68
4, 8650, Note_on_c, 9, 64, 0
4, 8700, Note_on_c, 9, 44, 21
4, 8732, Note_on_c, 9, 64, 49
4, 8740, Note_on_c, 9, 64, 0
4, 8758, Note_on_c, 9, 64, 46
4, 8760, Note_on_c, 9, 44, 0
4, 8775, Note_on_c, 9, 64, 0
4, 8820, Note_on_c, 9, 44, 17
4, 8850, Note_on_c, 9, 64, 60
4, 8858, Note_on_c, 9, 64, 0
4, 8875, Note_on_c, 9, 64, 58
4, 8880, Note_on_c, 9, 44, 0
4, 8882, Note_on_c, 9, 64, 0
4, 8940, Note_on_c, 9, 44, 19
4, 8974, Note_on_c, 9, 64, 49
4, 8983, Note_on_c, 9, 64, 0
4, 9000, Note_on_c, 9, 44, 0
4, 9001, Note_on_c, 9, 64, 53
4, 9011, Note_on_c, 9, 64, 0
4, 9059, Note_on_c, 9, 41, 52
4, 9060, Note_on_c, 9, 44, 19
4, 9070, Note_on_c, 9, 41, 0
4, 9120, Note_on_c, 9, 44, 0
4, 9121, Note_on_c, 9, 64, 69
4, 9131, Note_on_c, 9, 64, 0
4, 9180, Note_on_c, 9, 44, 19
4, 9217, Note_on_c, 9, 64, 35
4, 9226, Note_on_c, 9, 64, 0
4, 9240, Note_on_c, 9, 44, 0
4, 9241, Note_on_c, 9, 64, 57
4, 9259, Note_on_c, 9, 64, 0
4, 9300, Note_on_c, 9, 44, 22
4, 9338, Note_on_c, 9, 64, 51
4, 9345, Note_on_c, 9, 64, 0
4, 9359, Note_on_c, 9, 64, 53
4, 9360, Note_on_c, 9, 44, 0
4, 9371, Note_on_c, 9, 64, 0
4, 9420, Note_on_c, 9, 44, 19
4, 9443, Note_on_c, 9, 64, 57
4, 9452, Note_on_c, 9, 64, 0
4, 9470, Note_on_c, 9, 64, 44
4, 9480, Note_on_c, 9, 44, 0
4, 9497, Note_on_c, 9, 64, 0
4, 9535, Note_on_c, 9, 41, 57
4, 9540, Note_on_c, 9, 44, 18
4, 9551, Note_on_c, 9, 41, 0
4, 9597, Note_on_c, 9, 64, 66
4, 9600, Note_on_c, 9, 44, 0
4, 9607, Note_on_c, 9, 64, 0
4, 9660, Note_on_c, 9, 44, 20
4, 9691, Note_on_c, 9, 64, 46
4, 9699, Note_on_c, 9, 64, 0
4, 9716, Note_on_c, 9, 64, 57
4, 9720, Note_on_c, 9, 44, 0
4, 9733, Note_on_c, 9, 64, 0
4, 9780, Note_on_c, 9, 44, 19
4, 9817, Note_on_c, 9, 64, 35
4, 9826, Note_on_c, 9, 64, 0
4, 9839, Note_on_c, 9, 64, 29
4, 9840, Note_on_c, 9, 44, 0
4, 9852, Note_on_c, 9, 64, 0
4, 9900, Note_on_c, 9, 44, 22
4, 9927, Note_on_c, 9, 64, 60
4, 9935, Note_on_c, 9, 64, 0
4, 9955, Note_on_c, 9, 64, 47
4, 9960, Note_on_c, 9, 44, 0
4, 9999, Note_on_c, 9, 64, 0
4, 10018, Note_on_c, 9, 41, 54
4, 10020, Note_on_c, 9, 44, 21
4, 10033, Note_on_c, 9, 41, 0
4, 10080, Note_on_c, 9, 44, 0
4, 10082, Note_on_c, 9, 64, 64
4, 10089, Note_on_c, 9, 64, 0
4, 10140, Note_on_c, 9, 44, 21
4, 10173, Note_on_c, 9, 64, 55
4, 10181, Note_on_c, 9, 64, 0
4, 10198, Note_on_c, 9, 64, 43
4, 10200, Note_on_c, 9, 44, 0
4, 10215, Note_on_c, 9, 64, 0
4, 10260, Note_on_c, 9, 44, 21
4, 10293, Note_on_c, 9, 64, 54
4, 10301, Note_on_c, 9, 64, 0
4, 10318, Note_on_c, 9, 64, 45
4, 10320, Note_on_c, 9, 44, 0
4, 10332, Note_on_c, 9, 64, 0
4, 10380, Note_on_c, 9, 44, 18
4, 10411, Note_on_c, 9, 64, 45
4, 10420, Note_on_c, 9, 64, 0
4, 10437, Note_on_c, 9, 64, 40
4, 10440, Note_on_c, 9, 44, 0
4, 10449, Note_on_c, 9, 64, 0
4, 10494, Note_on_c, 9, 41, 61
4, 10500, Note_on_c, 9, 44, 19
4, 10508, Note_on_c, 9, 41, 0
4, 10556, Note_on_c, 9, 64, 67
4, 10560, Note_on_c, 9, 44, 0
4, 10565, Note_on_c, 9, 64, 0
4, 10620, Note_on_c, 9, 44, 18
4, 10650, Note_on_c, 9, 64, 53
4, 10659, Note_on_c, 9, 64, 0
4, 10680, Note_on_c, 9, 44, 0
4, 10680, Note_on_c, 9, 64, 34
4, 10689, Note_on_c, 9, 64, 0
4, 10740, Note_on_c, 9, 44, 18
4, 10773, Note_on_c, 9, 64, 56
4, 10781, Note_on_c, 9, 64, 0
4, 10800, Note_on_c, 9, 44, 0
4, 10800, Note_on_c, 9, 64, 45
4, 10808, Note_on_c, 9, 64, 0
4, 10860, Note_on_c, 9, 44, 16
4, 10893, Note_on_c, 9, 64, 48
4, 10901, Note_on_c, 9, 64, 0
4, 10919, Note_on_c, 9, 64, 47
4, 10920, Note_on_c, 9, 44, 0
4, 10940, Note_on_c, 9, 64, 0
4, 10975, Note_on_c, 9, 41, 62
4, 10980, Note_on_c, 9, 44, 23
4, 10987, Note_on_c, 9, 41, 0
4, 11039, Note_on_c, 9, 64, 70
4, 11040, Note_on_c, 9, 44, 0
4, 11050, Note_on_c, 9, 64, 0
4, 11100, Note_on_c, 9, 44, 17
4, 11133, Note_on_c, 9, 64, 57
4, 11140, Note_on_c, 9, 64, 0
4, 11160, Note_on_c, 9, 44, 0
4, 11163, Note_on_c, 9, 64, 34
4, 11174, Note_on_c, 9, 64, 0
4, 11220, Note_on_c, 9, 44, 21
4, 11248, Note_on_c, 9, 64, 68
4, 11260, Note_on_c, 9, 64, 0
4, 11277, Note_on_c, 9, 64, 64
4, 11280, Note_on_c, 9, 44, 0
4, 11291, Note_on_c, 9, 64, 0
4, 11340, Note_on_c, 9, 44, 21
4, 11374, Note_on_c, 9, 64, 59
4, 11382, Note_on_c, 9, 64, 0
4, 11399, Note_on_c, 9, 64, 65
4, 11400, Note_on_c, 9, 44, 0
4, 11419, Note_on_c, 9, 64, 0
4, 11460, Note_on_c, 9, 46, 37
4, 11520, Note_on_c, 9, 46, 0
4, 11520, Note_on_c, 9, 64, 63
4, 11538, Note_on_c, 9, 64, 0
4, 11580, Note_on_c, 9, 44, 17
4, 11626, Note_on_c, 9, 64, 36
4, 11635, Note_on_c, 9, 64, 0
4, 11640, Note_on_c, 9, 44, 0
4, 11649, Note_on_c, 9, 64, 65
4, 11674, Note_on_c, 9, 64, 0
4, 11700, Note_on_c, 9, 44, 17
4, 11738, Note_on_c, 9, 64, 46
4, 11746, Note_on_c, 9, 64, 0
4, 11760, Note_on_c, 9, 44, 0
4, 11764, Note_on_c, 9, 64, 57
4, 11780, Note_on_c, 9, 64, 0
4, 11820, Note_on_c, 9, 44, 18
4, 11854, Note_on_c, 9, 64, 53
4, 11862, Note_on_c, 9, 64, 0
4, 11880, Note_on_c, 9, 44, 0
4, 11880, Note_on_c, 9, 64, 47
4, 11907, Note_on_c, 9, 64, 0
4, 11938, Note_on_c, 9, 41, 43
4, 11940, Note_on_c, 9, 44, 18
4, 11948, Note_on_c, 9, 41, 0
4, 12000, Note_on_c, 9, 44, 0
4, 12007, Note_on_c, 9, 64, 48
4, 12028, Note_on_c, 9, 64, 0
4, 12060, Note_on_c, 9, 44, 18
4, 12103, Note_on_c, 9, 64, 47
4, 12111, Note_on_c, 9, 64, 0
4, 12120, Note_on_c, 9, 44, 0
4, 12126, Note_on_c, 9, 64, 55
4, 12147, Note_on_c, 9, 64, 0
4, 12180, Note_on_c, 9, 44, 19
4, 12222, Note_on_c, 9, 64, 48
4, 12230, Note_on_c, 9, 64, 0
4, 12240, Note_on_c, 9, 44, 0
4, 12244, Note_on_c, 9, 64, 55
4, 12265, Note_on_c, 9, 64, 0
4, 12300, Note_on_c, 9, 44, 19
4, 12333, Note_on_c, 9, 64, 52
4, 12341, Note_on_c, 9, 64, 0
4, 12360, Note_on_c, 9, 44, 0
4, 12360, Note_on_c, 9, 64, 50
4, 12393, Note_on_c, 9, 64, 0
4, 12420, Note_on_c, 9, 41, 51
4, 12420, Note_on_c, 9, 44, 16
4, 12432, Note_on_c, 9, 41, 0
4, 12480, Note_on_c, 9, 44, 0
4, 12484, Note_on_c, 9, 64, 58
4, 12499, Note_on_c, 9, 64, 0
4, 12540, Note_on_c, 9, 44, 16
4, 12580, Note_on_c, 9, 64, 38
4, 12589, Note_on_c, 9, 64, 0
4, 12600, Note_on_c, 9, 44, 0
4, 12606, Note_on_c, 9, 64, 53
4, 12625, Note_on_c, 9, 64, 0
4, 12660, Note_on_c, 9, 44, 18
4, 12699, Note_on_c, 9, 64, 39
4, 12707, Note_on_c, 9, 64, 0
4, 12720, Note_on_c, 9, 44, 0
4, 12725, Note_on_c, 9, 64, 46
4, 12744, Note_on_c, 9, 64, 0
4, 12780, Note_on_c, 9, 44, 19
4, 12811, Note_on_c, 9, 64, 48
4, 12820, Note_on_c, 9, 64, 0
4, 12839, Note_on_c, 9, 64, 47
4, 12840, Note_on_c, 9, 44, 0
4, 12858, Note_on_c, 9, 64, 0
4, 12900, Note_on_c, 9, 44, 24
4, 12960, Note_on_c, 9, 44, 0
4, 13020, Note_on_c, 9, 44, 16
4, 13059, Note_on_c, 9, 64, 36
4, 13068, Note_on_c, 9, 64, 0
4, 13080, Note_on_c, 9, 44, 0
4, 13084, Note_on_c, 9, 64, 54
4, 13105, Note_on_c, 9, 64, 0
4, 13140, Note_on_c, 9, 44, 17
4, 13176, Note_on_c, 9, 64, 40
4, 13185, Note_on_c, 9, 64, 0
4, 13198, Note_on_c, 9, 64, 39
4, 13200, Note_on_c, 9, 44, 0
4, 13216, Note_on_c, 9, 64, 0
4, 13260, Note_on_c, 9, 44, 16
4, 13289, Note_on_c, 9, 64, 55
4, 13297, Note_on_c, 9, 64, 0
4, 13317, Note_on_c, 9, 64, 41
4, 13320, Note_on_c, 9, 44, 0
4, 13345, Note_on_c, 9, 64, 0
4, 13378, Note_on_c, 9, 41, 60
4, 13380, Note_on_c, 9, 44, 23
4, 13395, Note_on_c, 9, 41, 0
4, 13440, Note_on_c, 9, 44, 0
4, 13441, Note_on_c, 9, 64, 62
4, 13453, Note_on_c, 9, 64, 0
4, 13500, Note_on_c, 9, 44, 11
4, 13536, Note_on_c, 9, 64, 41
4, 13544, Note_on_c, 9, 64, 0
4, 13560, Note_on_c, 9, 44, 0
4, 13561, Note_on_c, 9, 64, 51
4, 13583, Note_on_c, 9, 64, 0
4, 13620, Note_on_c, 9, 44, 14
4, 13663, Note_on_c, 9, 64, 24
4, 13670, Note_on_c, 9, 64, 0
4, 13680, Note_on_c, 9, 44, 0
4, 13684, Note_on_c, 9, 64, 41
4, 13693, Note_on_c, 9, 64, 0
4, 13740, Note_on_c, 9, 44, 21
4, 13771, Note_on_c, 9, 64, 55
4, 13779, Note_on_c, 9, 64, 0
4, 13798, Note_on_c, 9, 64, 48
4, 13800, Note_on_c, 9, 44, 0
4, 13829, Note_on_c, 9, 64, 0
4, 13857, Note_on_c, 9, 41, 58
4, 13860, Note_on_c, 9, 46, 50
4, 13875, Note_on_c, 9, 41, 0
4, 13920, Note_on_c, 9, 46, 0
4, 13920, Note_on_c, 9, 64, 58
4, 13938, Note_on_c, 9, 64, 0
4, 13980, Note_on_c, 9, 44, 19
4, 14019, Note_on_c, 9, 64, 43
4, 14027, Note_on_c, 9, 64, 0
4, 14040, Note_on_c, 9, 44, 0
4, 14042, Note_on_c, 9, 64, 58
4, 14061, Note_on_c, 9, 64, 0
4, 14100, Note_on_c, 9, 44, 16
4, 14134, Note_on_c, 9, 64, 36
4, 14143, Note_on_c, 9, 64, 0
4, 14160, Note_on_c, 9, 44, 0
4, 14162, Note_on_c, 9, 64, 44
4, 14174, Note_on_c, 9, 64, 0
4, 14220, Note_on_c, 9, 44, 19
4, 14249, Note_on_c, 9, 64, 44
4, 14258, Note_on_c, 9, 64, 0
4, 14280, Note_on_c, 9, 44, 0
4, 14281, Note_on_c, 9, 64, 33
4, 14306, Note_on_c, 9, 64, 0
4, 14337, Note_on_c, 9, 41, 52
4, 14340, Note_on_c, 9, 44, 17
4, 14348, Note_on_c, 9, 41, 0
4, 14400, Note_on_c, 9, 44, 0
4, 14400, Note_on_c, 9, 64, 54
4, 14414, Note_on_c, 9, 64, 0
4, 14460, Note_on_c, 9, 44, 16
4, 14496, Note_on_c, 9, 64, 33
4, 14505, Note_on_c, 9, 64, 0
4, 14520, Note_on_c, 9, 44, 0
4, 14523, Note_on_c, 9, 64, 45
4, 14542, Note_on_c, 9, 64, 0
4, 14580, Note_on_c, 9, 44, 16
4, 14613, Note_on_c, 9, 64, 42
4, 14623, Note_on_c, 9, 64, 0
4, 14640, Note_on_c, 9, 44, 0
4, 14643, Note_on_c, 9, 64, 40
4, 14653, Note_on_c, 9, 64, 0
4, 14700, Note_on_c, 9, 44, 19
4, 14729, Note_on_c, 9, 64, 51
4, 14738, Note_on_c, 9, 64, 0
4, 14758, Note_on_c, 9, 64, 47
4, 14760, Note_on_c, 9, 44, 0
4, 14781, Note_on_c, 9, 64, 0
4, 14816, Note_on_c, 9, 41, 53
4, 14820, Note_on_c, 9, 44, 23
4, 14830, Note_on_c, 9, 41, 0
4, 14877, Note_on_c, 9, 64, 57
4, 14880, Note_on_c, 9, 44, 0
4, 14887, Note_on_c, 9, 64, 0
4, 14940, Note_on_c, 9, 44, 17
4, 14979, Note_on_c, 9, 64, 56
4, 14994, Note_on_c, 9, 64, 0
4, 15000, Note_on_c, 9, 44, 0
4, 15007, Note_on_c, 9, 64, 49
4, 15014, Note_on_c, 9, 64, 0
4, 15060, Note_on_c, 9, 44, 20
4, 15096, Note_on_c, 9, 64, 42
4, 15104, Note_on_c, 9, 64, 0
4, 15120, Note_on_c, 9, 44, 0
4, 15122, Note_on_c, 9, 64, 51
4, 15138, Note_on_c, 9, 64, 0
4, 15180, Note_on_c, 9, 44, 20
4, 15213, Note_on_c, 9, 64, 54
4, 15221, Note_on_c, 9, 64, 0
4, 15240, Note_on_c, 9, 44, 0
4, 15243, Note_on_c, 9, 64, 44
4, 15261, Note_on_c, 9, 64, 0
4, 15299, Note_on_c, 9, 41, 49
4, 15300, Note_on_c, 9, 44, 26
4, 15308, Note_on_c, 9, 41, 0
4, 15360, Note_on_c, 9, 44, 0
4, 15364, Note_on_c, 9, 64, 64
4, 15372, Note_on_c, 9, 64, 0
4, 15420, Note_on_c, 9, 44, 30
4, 15452, Note_on_c, 9, 64, 48
4, 15460, Note_on_c, 9, 64, 0
4, 15476, Note_on_c, 9, 64, 45
4, 15480, Note_on_c, 9, 44, 0
4, 15494, Note_on_c, 9, 64, 0
4, 15540, Note_on_c, 9, 44, 25
4, 15567, Note_on_c, 9, 64, 51
4, 15575, Note_on_c, 9, 64, 0
4, 15595, Note_on_c, 9, 64, 40
4, 15600, Note_on_c, 9, 44, 0
4, 15613, Note_on_c, 9, 64, 0
4, 15660, Note_on_c, 9, 44, 24
4, 15691, Note_on_c, 9, 64, 48
4, 15699, Note_on_c, 9, 64, 0
4, 15717, Note_on_c, 9, 64, 36
4, 15720, Note_on_c, 9, 44, 0
4, 15739, Note_on_c, 9, 64, 0
4, 15777, Note_on_c, 9, 41, 41
4, 15780, Note_on_c, 9, 44, 21
4, 15790, Note_on_c, 9, 41, 0
4, 15840, Note_on_c, 9, 44, 0
4, 15845, Note_on_c, 9, 64, 65
4, 15852, Note_on_c, 9, 64, 0
4, 15900, Note_on_c, 9, 44, 18
4, 15938, Note_on_c, 9, 64, 40
4, 15947, Note_on_c, 9, 64, 0
4, 15960, Note_on_c, 9, 44, 0
4, 15962, Note_on_c, 9, 64, 49
4, 15980, Note_on_c, 9, 64, 0
4, 16020, Note_on_c, 9, 44, 19
4, 16057, Note_on_c, 9, 64, 44
4, 16066, Note_on_c, 9, 64, 0
4, 16080, Note_on_c, 9, 44, 0
4, 16083, Note_on_c, 9, 64, 49
4, 16092, Note_on_c, 9, 64, 0
4, 16140, Note_on_c, 9, 44, 17
4, 16175, Note_on_c, 9, 64, 40
4, 16183, Note_on_c, 9, 64, 0
4, 16199, Note_on_c, 9, 64, 45
4, 16200, Note_on_c, 9, 44, 0
4, 16221, Note_on_c, 9, 64, 0
4, 16259, Note_on_c, 9, 41, 57
4, 16260, Note_on_c, 9, 44, 17
4, 16270, Note_on_c, 9, 41, 0
4, 16320, Note_on_c, 9, 44, 0
4, 16321, Note_on_c, 9, 64, 58
4, 16329, Note_on_c, 9, 64, 0
4, 16380, Note_on_c, 9, 44, 21
4, 16417, Note_on_c, 9, 64, 41
4, 16426, Note_on_c, 9, 64, 0
4, 16440, Note_on_c, 9, 44, 0
4, 16442, Note_on_c, 9, 64, 54
4, 16458, Note_on_c, 9, 64, 0
4, 16500, Note_on_c, 9, 44, 17
4, 16536, Note_on_c, 9, 64, 44
4, 16545, Note_on_c, 9, 64, 0
4, 16560, Note_on_c, 9, 44, 0
4, 16561, Note_on_c, 9, 64, 49
4, 16578, Note_on_c, 9, 64, 0
4, 16620, Note_on_c, 9, 44, 19
4, 16654, Note_on_c, 9, 64, 46
4, 16662, Note_on_c, 9, 64, 0
4, 16680, Note_on_c, 9, 44, 0
4, 16686, Note_on_c, 9, 64, 44
4, 16706, Note_on_c, 9, 64, 0
4, 16736, Note_on_c, 9, 41, 59
4, 16740, Note_on_c, 9, 44, 19
4, 16751, Note_on_c, 9, 41, 0
4, 16800, Note_on_c, 9, 44, 0
4, 16800, Note_on_c, 9, 64, 67
4, 16814, Note_on_c, 9, 64, 0
4, 16860, Note_on_c, 9, 44, 19
4, 16891, Note_on_c, 9, 64, 38
4, 16900, Note_on_c, 9, 64, 0
4, 16920, Note_on_c, 9, 44, 0
4, 16920, Note_on_c, 9, 64, 48
4, 16934, Note_on_c, 9, 64, 0
4, 16980, Note_on_c, 9, 44, 22
4, 17012, Note_on_c, 9, 64, 45
4, 17021, Note_on_c, 9, 64, 0
4, 17036, Note_on_c, 9, 64, 49
4, 17040, Note_on_c, 9, 44, 0
4, 17050, Note_on_c, 9, 64, 0
4, 17100, Note_on_c, 9, 44, 19
4, 17125, Note_on_c, 9, 64, 50
4, 17133, Note_on_c, 9, 64, 0
4, 17155, Note_on_c, 9, 64, 47
4, 17160, Note_on_c, 9, 44, 0
4, 17179, Note_on_c, 9, 64, 0
4, 17219, Note_on_c, 9, 41, 50
4, 17220, Note_on_c, 9, 44, 18
4, 17233, Note_on_c, 9, 41, 0
4, 17280, Note_on_c, 9, 44, 0
4, 17283, Note_on_c, 9, 64, 64
4, 17291, Note_on_c, 9, 64, 0
4, 17340, Note_on_c, 9, 44, 20
4, 17381, Note_on_c, 9, 64, 48
4, 17389, Note_on_c, 9, 64, 0
4, 17400, Note_on_c, 9, 44, 0
4, 17408, Note_on_c, 9, 64, 45
4, 17427, Note_on_c, 9, 64, 0
4, 17460, Note_on_c, 9, 44, 19
4, 17508, Note_on_c, 9, 64, 42
4, 17517, Note_on_c, 9, 64, 0
4, 17520, Note_on_c, 9, 44, 0
4, 17531, Note_on_c, 9, 64, 54
4, 17539, Note_on_c, 9, 64, 0
4, 17580, Note_on_c, 9, 44, 22
4, 17620, Note_on_c, 9, 64, 47
4, 17629, Note_on_c, 9, 64, 0
4, 17640, Note_on_c, 9, 44, 0
4, 17643, Note_on_c, 9, 64, 62
4, 17662, Note_on_c, 9, 64, 0
4, 17699, Note_on_c, 9, 41, 64
4, 17700, Note_on_c, 9, 44, 21
4, 17716, Note_on_c, 9, 41, 0
4, 17760, Note_on_c, 9, 44, 0
4, 17762, Note_on_c, 9, 64, 61
4, 17769, Note_on_c, 9, 64, 0
4, 17820, Note_on_c, 9, 44, 21
4, 17861, Note_on_c, 9, 64, 33
4, 17870, Note_on_c, 9, 64, 0
4, 17880, Note_on_c, 9, 44, 0
4, 17885, Note_on_c, 9, 64, 64
4, 17891, Note_on_c, 9, 64, 0
4, 17940, Note_on_c, 9, 44, 21
4, 17972, Note_on_c, 9, 64, 53
4, 17980, Note_on_c, 9, 64, 0
4, 17998, Note_on_c, 9, 64, 49
4, 18000, Note_on_c, 9, 44, 0
4, 18018, Note_on_c, 9, 64, 0
4, 18060, Note_on_c, 9, 44, 18
4, 18098, Note_on_c, 9, 64, 62
4, 18105, Note_on_c, 9, 64, 0
4, 18120, Note_on_c, 9, 44, 0
4, 18124, Note_on_c, 9, 64, 57
4, 18142, Note_on_c, 9, 64, 0
4, 18177, Note_on_c, 9, 41, 70
4, 18180, Note_on_c, 9, 44, 19
4, 18192, Note_on_c, 9, 41, 0
4, 18240, Note_on_c, 9, 44, 0
4, 18241, Note_on_c, 9, 64, 66
4, 18251, Note_on_c, 9, 64, 0
4, 18300, Note_on_c, 9, 44, 18
4, 18334, Note_on_c, 9, 64, 34
4, 18343, Note_on_c, 9, 64, 0
4, 18358, Note_on_c, 9, 64, 52
4, 18360, Note_on_c, 9, 44, 0
4, 18377, Note_on_c, 9, 64, 0
4, 18420, Note_on_c, 9, 44, 18
4, 18454, Note_on_c, 9, 64, 36
4, 18463, Note_on_c, 9, 64, 0
4, 18478, Note_on_c, 9, 64, 54
4, 18480, Note_on_c, 9, 44, 0
4, 18488, Note_on_c, 9, 64, 0
4, 18540, Note_on_c, 9, 44, 16
4, 18570, Note_on_c, 9, 64, 55
4, 18577, Note_on_c, 9, 64, 0
4, 18600, Note_on_c, 9, 44, 0
4, 18600, Note_on_c, 9, 64, 35
4, 18616, Note_on_c, 9, 64, 0
4, 18656, Note_on_c, 9, 41, 60
4, 18660, Note_on_c, 9, 44, 23
4, 18670, Note_on_c, 9, 41, 0
4, 18716, Note_on_c, 9, 64, 66
4, 18720, Note_on_c, 9, 44, 0
4, 18730, Note_on_c, 9, 64, 0
4, 18780, Note_on_c, 9, 44, 17
4, 18807, Note_on_c, 9, 64, 36
4, 18817, Note_on_c, 9, 64, 0
4, 18834, Note_on_c, 9, 64, 50
4, 18840, Note_on_c, 9, 44, 0
4, 18844, Note_on_c, 9, 64, 0
4, 18900, Note_on_c, 9, 44, 21
4, 18955, Note_on_c, 9, 64, 55
4, 18960, Note_on_c, 9, 44, 0
4, 18971, Note_on_c, 9, 64, 0
4, 19020, Note_on_c, 9, 44, 21
4, 19053, Note_on_c, 9, 64, 56
4, 19061, Note_on_c, 9, 64, 0
4, 19080, Note_on_c, 9, 44, 0
4, 19080, Note_on_c, 9, 64, 51
4, 19104, Note_on_c, 9, 64, 0
4, 19137, Note_on_c, 9, 41, 68
4, 19140, Note_on_c, 9, 46, 37
4, 19153, Note_on_c, 9, 41, 0
4, 19200, Note_on_c, 9, 46, 0
4, 19200, Note_on_c, 9, 64, 63
4, 19218, Note_on_c, 9, 64, 0
4, 19260, Note_on_c, 9, 53, 52
4, 19306, Note_on_c, 9, 64, 36
4, 19315, Note_on_c, 9, 64, 0
4, 19320, Note_on_c, 9, 53, 0
4, 19329, Note_on_c, 9, 64, 65
4, 19354, Note_on_c, 9, 64, 0
4, 19380, Note_on_c, 9, 53, 54
4, 19418, Note_on_c, 9, 64, 46
4, 19426, Note_on_c, 9, 64, 0
4, 19440, Note_on_c, 9, 53, 0
4, 19444, Note_on_c, 9, 64, 57
4, 19460, Note_on_c, 9, 64, 0
4, 19500, Note_on_c, 9, 53, 55
4, 19534, Note_on_c, 9, 64, 53
4, 19542, Note_on_c, 9, 64, 0
4, 19560, Note_on_c, 9, 53, 0
4, 19560, Note_on_c, 9, 64, 47
4, 19587, Note_on_c, 9, 64, 0
4, 19618, Note_on_c, 9, 41, 43
4, 19620, Note_on_c, 9, 53, 57
4, 19628, Note_on_c, 9, 41, 0
4, 19680, Note_on_c, 9, 53, 0
4, 19687, Note_on_c, 9, 64, 48
4, 19708, Note_on_c, 9, 64, 0
4, 19740, Note_on_c, 9, 53, 55
4, 19783, Note_on_c, 9, 64, 47
4, 19791, Note_on_c, 9, 64, 0
4, 19800, Note_on_c, 9, 53, 0
4, 19806, Note_on_c, 9, 64, 55
4, 19827, Note_on_c, 9, 64, 0
4, 19860, Note_on_c, 9, 53, 58
4, 19902, Note_on_c, 9, 64, 48
4, 19910, Note_on_c, 9, 64, 0
4, 19920, Note_on_c, 9, 53, 0
4, 19924, Note_on_c, 9, 64, 55
4, 19945, Note_on_c, 9, 64, 0
4, 19980, Note_on_c, 9, 53, 58
4, 20013, Note_on_c, 9, 64, 52
4, 20021, Note_on_c, 9, 64, 0
4, 20040, Note_on_c, 9, 53, 0
4, 20040, Note_on_c, 9, 64, 50
4, 20073, Note_on_c, 9, 64, 0
4, 20100, Note_on_c, 9, 41, 51
4, 20100, Note_on_c, 9, 53, 51
4, 20112, Note_on_c, 9, 41, 0
4, 20160, Note_on_c, 9, 53, 0
4, 20164, Note_on_c, 9, 64, 58
4, 20179, Note_on_c, 9, 64, 0
4, 20220, Note_on_c, 9, 53, 49
4, 20260, Note_on_c, 9, 64, 38
4, 20269, Note_on_c, 9, 64, 0
4, 20280, Note_on_c, 9, 53, 0
4, 20286, Note_on_c, 9, 64, 53
4, 20305, Note_on_c, 9, 64, 0
4, 20340, Note_on_c, 9, 53, 57
4, 20379, Note_on_c, 9, 64, 39
4, 20387, Note_on_c, 9, 64, 0
4, 20400, Note_on_c, 9, 53, 0
4, 20405, Note_on_c, 9, 64, 46
4, 20424, Note_on_c, 9, 64, 0
4, 20460, Note_on_c, 9, 53, 58
4, 20491, Note_on_c, 9, 64, 48
4, 20500, Note_on_c, 9, 64, 0
4, 20519, Note_on_c, 9, 64, 47
4, 20520, Note_on_c, 9, 53, 0
4, 20538, Note_on_c, 9, 64, 0
4, 20580, Note_on_c, 9, 53, 74
4, 20640, Note_on_c, 9, 53, 0
4, 20700, Note_on_c, 9, 53, 51
4, 20739, Note_on_c, 9, 64, 36
4, 20748, Note_on_c, 9, 64, 0
4, 20760, Note_on_c, 9, 53, 0
4, 20764, Note_on_c, 9, 64, 54
4, 20785, Note_on_c, 9, 64, 0
4, 20820, Note_on_c, 9, 53, 54
4, 20856, Note_on_c, 9, 64, 40
4, 20865, Note_on_c, 9, 64, 0
4, 20878, Note_on_c, 9, 64, 39
4, 20880, Note_on_c, 9, 53, 0
4, 20896, Note_on_c, 9, 64, 0
4, 20940, Note_on_c, 9, 53, 49
4, 20969, Note_on_c, 9, 64, 55
4, 20977, Note_on_c, 9, 64, 0
4, 20997, Note_on_c, 9, 64, 41
4, 21000, Note_on_c, 9, 53, 0
4, 21025, Note_on_c, 9, 64, 0
4, 21058, Note_on_c, 9, 41, 60
4, 21060, Note_on_c, 9, 53, 72
4, 21075, Note_on_c, 9, 41, 0
4, 21120, Note_on_c, 9, 53, 0
4, 21121, Note_on_c, 9, 64, 62
4, 21133, Note_on_c, 9, 64, 0
4, 21180, Note_on_c, 9, 53, 35
4, 21216, Note_on_c, 9, 64, 41
4, 21224, Note_on_c, 9, 64, 0
4, 21240, Note_on_c, 9, 53, 0
4, 21241, Note_on_c, 9, 64, 51
4, 21263, Note_on_c, 9, 64, 0
4, 21300, Note_on_c, 9, 53, 44
4, 21343, Note_on_c, 9, 64, 24
4, 21350, Note_on_c, 9, 64, 0
4, 21360, Note_on_c, 9, 53, 0
4, 21364, Note_on_c, 9, 64, 41
4, 21373, Note_on_c, 9, 64, 0
4, 21420, Note_on_c, 9, 53, 65
4, 21451, Note_on_c, 9, 64, 55
4, 21459, Note_on_c, 9, 64, 0
4, 21478, Note_on_c, 9, 64, 48
4, 21480, Note_on_c, 9, 53, 0
4, 21509, Note_on_c, 9, 64, 0
4, 21537, Note_on_c, 9, 41, 58
4, 21540, Note_on_c, 9, 59, 77
4, 21555, Note_on_c, 9, 41, 0
4, 21600, Note_on_c, 9, 59, 0
4, 21600, Note_on_c, 9, 64, 58
4, 21618, Note_on_c, 9, 64, 0
4, 21660, Note_on_c, 9, 53, 58
4, 21699, Note_on_c, 9, 64, 43
4, 21707, Note_on_c, 9, 64, 0
4, 21720, Note_on_c, 9, 53, 0
4, 21722, Note_on_c, 9, 64, 58
4, 21741, Note_on_c, 9, 64, 0
4, 21780, Note_on_c, 9, 53, 51
4, 21814, Note_on_c, 9, 64, 36
4, 21823, Note_on_c, 9, 64, 0
4, 21840, Note_on_c, 9, 53, 0
4, 21842, Note_on_c, 9, 64, 44
4, 21854, Note_on_c, 9, 64, 0
4, 21900, Note_on_c, 9, 53, 58
4, 21929, Note_on_c, 9, 64, 44
4, 21938, Note_on_c, 9, 64, 0
4, 21960, Note_on_c, 9, 53, 0
4, 21961, Note_on_c, 9, 64, 33
4, 21986, Note_on_c, 9, 64, 0
4, 22017, Note_on_c, 9, 41, 52
4, 22020, Note_on_c, 9, 53, 54
4, 22028, Note_on_c, 9, 41, 0
4, 22080, Note_on_c, 9, 53, 0
4, 22080, Note_on_c, 9, 64, 54
4, 22094, Note_on_c, 9, 64, 0
4, 22140, Note_on_c, 9, 53, 49
4, 22176, Note_on_c, 9, 64, 33
4, 22185, Note_on_c, 9, 64, 0
4, 22200, Note_on_c, 9, 53, 0
4, 22203, Note_on_c, 9, 64, 45
4, 22222, Note_on_c, 9, 64, 0
4, 22260, Note_on_c, 9, 53, 51
4, 22293, Note_on_c, 9, 64, 42
4, 22303, Note_on_c, 9, 64, 0
4, 22320, Note_on_c, 9, 53, 0
4, 22323, Note_on_c, 9, 64, 40
4, 22333, Note_on_c, 9, 64, 0
4, 22380, Note_on_c, 9, 53, 58
4, 22409, Note_on_c, 9, 64, 51
4, 22418, Note_on_c, 9, 64, 0
4, 22438, Note_on_c, 9, 64, 47
4, 22440, Note_on_c, 9, 53, 0
4, 22461, Note_on_c, 9, 64, 0
4, 22496, Note_on_c, 9, 41, 53
4, 22500, Note_on_c, 9, 53, 71
4, 22510, Note_on_c, 9, 41, 0
4, 22557, Note_on_c, 9, 64, 57
4, 22560, Note_on_c, 9, 53, 0
4, 22567, Note_on_c, 9, 64, 0
4, 22620, Note_on_c, 9, 53, 54
4, 22659, Note_on_c, 9, 64, 56
4, 22674, Note_on_c, 9, 64, 0
4, 22680, Note_on_c, 9, 53, 0
4, 22687, Note_on_c, 9, 64, 49
4, 22694, Note_on_c, 9, 64, 0
4, 22740, Note_on_c, 9, 53, 62
4, 22776, Note_on_c, 9, 64, 42
4, 22784, Note_on_c, 9, 64, 0
4, 22800, Note_on_c, 9, 53, 0
4, 22802, Note_on_c, 9, 64, 51
4, 22818, Note_on_c, 9, 64, 0
4, 22860, Note_on_c, 9, 53, 62
4, 22893, Note_on_c, 9, 64, 54
4, 22901, Note_on_c, 9, 64, 0
4, 22920, Note_on_c, 9, 53, 0
4, 22923, Note_on_c, 9, 64, 44
4, 22941, Note_on_c, 9, 64, 0
4, 22979, Note_on_c, 9, 41, 49
4, 22980, Note_on_c, 9, 53, 80
4, 22988, Note_on_c, 9, 41, 0
4, 23040, Note_on_c, 9, 53, 0
4, 23044, Note_on_c, 9, 64, 64
4, 23052, Note_on_c, 9, 64, 0
4, 23100, Note_on_c, 9, 53, 93
4, 23132, Note_on_c, 9, 64, 48
4, 23140, Note_on_c, 9, 64, 0
4, 23156, Note_on_c, 9, 64, 45
4, 23160, Note_on_c, 9, 53, 0
4, 23174, Note_on_c, 9, 64, 0
4, 23220, Note_on_c, 9, 53, 77
4, 23247, Note_on_c, 9, 64, 51
4, 23255, Note_on_c, 9, 64, 0
4, 23275, Note_on_c, 9, 64, 40
4, 23280, Note_on_c, 9, 53, 0
4, 23293, Note_on_c, 9, 64, 0
4, 23340, Note_on_c, 9, 53, 74
4, 23371, Note_on_c, 9, 64, 48
4, 23379, Note_on_c, 9, 64, 0
4, 23397, Note_on_c, 9, 64, 36
4, 23400, Note_on_c, 9, 53, 0
4, 23419, Note_on_c, 9, 64, 0
4, 23457, Note_on_c, 9, 41, 41
4, 23460, Note_on_c, 9, 53, 65
4, 23470, Note_on_c, 9, 41, 0
4, 23520, Note_on_c, 9, 53, 0
4, 23525, Note_on_c, 9, 64, 65
4, 23532, Note_on_c, 9, 64, 0
4, 23580, Note_on_c, 9, 53, 57
4, 23618, Note_on_c, 9, 64, 40
4, 23627, Note_on_c, 9, 64, 0
4, 23640, Note_on_c, 9, 53, 0
4, 23642, Note_on_c, 9, 64, 49
4, 23660, Note_on_c, 9, 64, 0
4, 23700, Note_on_c, 9, 53, 60
4, 23737, Note_on_c, 9, 64, 44
4, 23746, Note_on_c, 9, 64, 0
4, 23760, Note_on_c, 9, 53, 0
4, 23763, Note_on_c, 9, 64, 49
4, 23772, Note_on_c, 9, 64, 0
4, 23820, Note_on_c, 9, 53, 52
4, 23855, Note_on_c, 9, 64, 40
4, 23863, Note_on_c, 9, 64, 0
4, 23879, Note_on_c, 9, 64, 45
4, 23880, Note_on_c, 9, 53, 0
4, 23901, Note_on_c, 9, 64, 0
4, 23939, Note_on_c, 9, 41, 57
4, 23940, Note_on_c, 9, 53, 54
4, 23948, Note_on_c, 9, 68, 34
4, 23950, Note_on_c, 9, 41, 0
4, 23957, Note_on_c, 9, 68, 0
4, 24000, Note_on_c, 9, 53, 0
4, 24001, Note_on_c, 9, 64, 58
4, 24009, Note_on_c, 9, 64, 0
4, 24060, Note_on_c, 9, 53, 65
4, 24097, Note_on_c, 9, 64, 41
4, 24106, Note_on_c, 9, 64, 0
4, 24120, Note_on_c, 9, 53, 0
4, 24122, Note_on_c, 9, 64, 54
4, 24138, Note_on_c, 9, 64, 0
4, 24180, Note_on_c, 9, 53, 54
4, 24216, Note_on_c, 9, 64, 44
4, 24225, Note_on_c, 9, 64, 0
4, 24240, Note_on_c, 9, 53, 0
4, 24241, Note_on_c, 9, 64, 49
4, 24258, Note_on_c, 9, 64, 0
4, 24300, Note_on_c, 9, 53, 60
4, 24334, Note_on_c, 9, 64, 46
4, 24342, Note_on_c, 9, 64, 0
4, 24360, Note_on_c, 9, 53, 0
4, 24366, Note_on_c, 9, 64, 44
4, 24386, Note_on_c, 9, 64, 0
4, 24416, Note_on_c, 9, 41, 59
4, 24420, Note_on_c, 9, 53, 60
4, 24431, Note_on_c, 9, 41, 0
4, 24480, Note_on_c, 9, 53, 0
4, 24480, Note_on_c, 9, 64, 67
4, 24494, Note_on_c, 9, 64, 0
4, 24540, Note_on_c, 9, 53, 60
4, 24571, Note_on_c, 9, 64, 38
4, 24580, Note_on_c, 9, 64, 0
4, 24600, Note_on_c, 9, 53, 0
4, 24600, Note_on_c, 9, 64, 48
4, 24614, Note_on_c, 9, 64, 0
4, 24660, Note_on_c, 9, 53, 69
4, 24692, Note_on_c, 9, 64, 45
4, 24701, Note_on_c, 9, 64, 0
4, 24716, Note_on_c, 9, 64, 49
4, 24720, Note_on_c, 9, 53, 0
4, 24730, Note_on_c, 9, 64, 0
4, 24780, Note_on_c, 9, 53, 58
4, 24805, Note_on_c, 9, 64, 50
4, 24813, Note_on_c, 9, 64, 0
4, 24835, Note_on_c, 9, 64, 47
4, 24840, Note_on_c, 9, 53, 0
4, 24859, Note_on_c, 9, 64, 0
4, 24899, Note_on_c, 9, 41, 50
4, 24900, Note_on_c, 9, 53, 57
4, 24913, Note_on_c, 9, 41, 0
4, 24960, Note_on_c, 9, 53, 0
4, 24963, Note_on_c, 9, 64, 64
4, 24971, Note_on_c, 9, 64, 0
4, 25020, Note_on_c, 9, 53, 62
4, 25061, Note_on_c, 9, 64, 48
4, 25069, Note_on_c, 9, 64, 0
4, 25080, Note_on_c, 9, 53, 0
4, 25088, Note_on_c, 9, 64, 45
4, 25107, Note_on_c, 9, 64, 0
4, 25140, Note_on_c, 9, 53, 60
4, 25188, Note_on_c, 9, 64, 42
4, 25197, Note_on_c, 9, 64, 0
4, 25200, Note_on_c, 9, 53, 0
4, 25211, Note_on_c, 9, 64, 54
4, 25219, Note_on_c, 9, 64, 0
4, 25260, Note_on_c, 9, 53, 68
4, 25300, Note_on_c, 9, 64, 47
4, 25309, Note_on_c, 9, 64, 0
4, 25320, Note_on_c, 9, 53, 0
4, 25323, Note_on_c, 9, 64, 62
4, 25342, Note_on_c, 9, 64, 0
4, 25379, Note_on_c, 9, 41, 64
4, 25380, Note_on_c, 9, 53, 65
4, 25396, Note_on_c, 9, 41, 0
4, 25440, Note_on_c, 9, 53, 0
4, 25442, Note_on_c, 9, 64, 61
4, 25449, Note_on_c, 9, 64, 0
4, 25500, Note_on_c, 9, 53, 65
4, 25541, Note_on_c, 9, 64, 33
4, 25550, Note_on_c, 9, 64, 0
4, 25560, Note_on_c, 9, 53, 0
4, 25565, Note_on_c, 9, 64, 64
4, 25571, Note_on_c, 9, 64, 0
4, 25620, Note_on_c, 9, 53, 65
4, 25652, Note_on_c, 9, 64, 53
4, 25660, Note_on_c, 9, 64, 0
4, 25678, Note_on_c, 9, 64, 49
4, 25680, Note_on_c, 9, 53, 0
4, 25698, Note_on_c, 9, 64, 0
4, 25740, Note_on_c, 9, 53, 57
4, 25778, Note_on_c, 9, 64, 62
4, 25785, Note_on_c, 9, 64, 0
4, 25800, Note_on_c, 9, 53, 0
4, 25804, Note_on_c, 9, 64, 57
4, 25822, Note_on_c, 9, 64, 0
4, 25857, Note_on_c, 9, 41, 70
4, 25860, Note_on_c, 9, 53, 58
4, 25872, Note_on_c, 9, 41, 0
4, 25920, Note_on_c, 9, 53, 0
4, 25921, Note_on_c, 9, 64, 66
4, 25931, Note_on_c, 9, 64, 0
4, 25980, Note_on_c, 9, 53, 55
4, 26014, Note_on_c, 9, 64, 34
4, 26023, Note_on_c, 9, 64, 0
4, 26038, Note_on_c, 9, 64, 52
4, 26040, Note_on_c, 9, 53, 0
4, 26057, Note_on_c, 9, 64, 0
4, 26100, Note_on_c, 9, 53, 57
4, 26134, Note_on_c, 9, 64, 36
4, 26143, Note_on_c, 9, 64, 0
4, 26158, Note_on_c, 9, 64, 54
4, 26160, Note_on_c, 9, 53, 0
4, 26168, Note_on_c, 9, 64, 0
4, 26220, Note_on_c, 9, 53, 49
4, 26250, Note_on_c, 9, 64, 55
4, 26257, Note_on_c, 9, 64, 0
4, 26280, Note_on_c, 9, 53, 0
4, 26280, Note_on_c, 9, 64, 35
4, 26290, Note_on_c, 9, 64, 34
4, 26296, Note_on_c, 9, 64, 0
4, 26298, Note_on_c, 9, 64, 0
4, 26336, Note_on_c, 9, 41, 60
4, 26340, Note_on_c, 9, 53, 72
4, 26350, Note_on_c, 9, 41, 0
4, 26396, Note_on_c, 9, 64, 66
4, 26400, Note_on_c, 9, 53, 0
4, 26410, Note_on_c, 9, 64, 0
4, 26460, Note_on_c, 9, 53, 54
4, 26487, Note_on_c, 9, 64, 36
4, 26497, Note_on_c, 9, 64, 0
4, 26514, Note_on_c, 9, 64, 50
4, 26520, Note_on_c, 9, 53, 0
4, 26524, Note_on_c, 9, 64, 0
4, 26580, Note_on_c, 9, 53, 66
4, 26635, Note_on_c, 9, 64, 55
4, 26640, Note_on_c, 9, 53, 0
4, 26651, Note_on_c, 9, 64, 0
4, 26700, Note_on_c, 9, 53, 66
4, 26733, Note_on_c, 9, 64, 56
4, 26741, Note_on_c, 9, 64, 0
4, 26760, Note_on_c, 9, 53, 0
4, 26760, Note_on_c, 9, 64, 51
4, 26784, Note_on_c, 9, 64, 0
4, 26817, Note_on_c, 9, 41, 68
4, 26820, Note_on_c, 9, 59, 57
4, 26833, Note_on_c, 9, 41, 0
4, 26880, Note_on_c, 9, 59, 0
4, 26880, Note_on_c, 9, 64, 67
4, 26894, Note_on_c, 9, 64, 0
4, 26940, Note_on_c, 9, 53, 52
4, 27000, Note_on_c, 9, 53, 0
4, 27003, Note_on_c, 9, 64, 58
4, 27023, Note_on_c, 9, 64, 0
4, 27060, Note_on_c, 9, 53, 54
4, 27099, Note_on_c, 9, 64, 66
4, 27107, Note_on_c, 9, 64, 0
4, 27120, Note_on_c, 9, 53, 0
4, 27126, Note_on_c, 9, 64, 56
4, 27139, Note_on_c, 9, 64, 0
4, 27180, Note_on_c, 9, 53, 55
4, 27214, Note_on_c, 9, 64, 64
4, 27223, Note_on_c, 9, 64, 0
4, 27240, Note_on_c, 9, 53, 0
4, 27241, Note_on_c, 9, 64, 61
4, 27266, Note_on_c, 9, 64, 0
4, 27299, Note_on_c, 9, 41, 64
4, 27300, Note_on_c, 9, 53, 57
4, 27316, Note_on_c, 9, 41, 0
4, 27360, Note_on_c, 9, 53, 0
4, 27362, Note_on_c, 9, 64, 71
4, 27378, Note_on_c, 9, 64, 0
4, 27420, Note_on_c, 9, 53, 55
4, 27453, Note_on_c, 9, 64, 52
4, 27461, Note_on_c, 9, 64, 0
4, 27480, Note_on_c, 9, 53, 0
4, 27482, Note_on_c, 9, 64, 54
4, 27491, Note_on_c, 9, 64, 0
4, 27540, Note_on_c, 9, 53, 58
4, 27599, Note_on_c, 9, 64, 67
4, 27600, Note_on_c, 9, 53, 0
4, 27606, Note_on_c, 9, 64, 0
4, 27619, Note_on_c, 9, 64, 31
4, 27628, Note_on_c, 9, 64, 0
4, 27660, Note_on_c, 9, 53, 58
4, 27694, Note_on_c, 9, 64, 53
4, 27703, Note_on_c, 9, 64, 0
4, 27719, Note_on_c, 9, 64, 71
4, 27720, Note_on_c, 9, 53, 0
4, 27733, Note_on_c, 9, 64, 0
4, 27777, Note_on_c, 9, 41, 62
4, 27780, Note_on_c, 9, 53, 51
4, 27795, Note_on_c, 9, 41, 0
4, 27840, Note_on_c, 9, 53, 0
4, 27842, Note_on_c, 9, 64, 68
4, 27850, Note_on_c, 9, 64, 0
4, 27900, Note_on_c, 9, 53, 49
4, 27932, Note_on_c, 9, 64, 49
4, 27940, Note_on_c, 9, 64, 0
4, 27958, Note_on_c, 9, 64, 46
4, 27960, Note_on_c, 9, 53, 0
4, 27975, Note_on_c, 9, 64, 0
4, 28020, Note_on_c, 9, 53, 57
4, 28050, Note_on_c, 9, 64, 60
4, 28058, Note_on_c, 9, 64, 0
4, 28075, Note_on_c, 9, 64, 58
4, 28080, Note_on_c, 9, 53, 0
4, 28082, Note_on_c, 9, 64, 0
4, 28140, Note_on_c, 9, 53, 58
4, 28174, Note_on_c, 9, 64, 49
4, 28183, Note_on_c, 9, 64, 0
4, 28200, Note_on_c, 9, 53, 0
4, 28201, Note_on_c, 9, 64, 53
4, 28211, Note_on_c, 9, 64, 0
4, 28259, Note_on_c, 9, 41, 52
4, 28260, Note_on_c, 9, 53, 74
4, 28270, Note_on_c, 9, 41, 0
4, 28320, Note_on_c, 9, 53, 0
4, 28321, Note_on_c, 9, 64, 69
4, 28331, Note_on_c, 9, 64, 0
4, 28380, Note_on_c, 9, 53, 51
4, 28417, Note_on_c, 9, 64, 35
4, 28426, Note_on_c, 9, 64, 0
4, 28440, Note_on_c, 9, 53, 0
4, 28441, Note_on_c, 9, 64, 57
4, 28459, Note_on_c, 9, 64, 0
4, 28500, Note_on_c, 9, 53, 54
4, 28538, Note_on_c, 9, 64, 51
4, 28545, Note_on_c, 9, 64, 0
4, 28559, Note_on_c, 9, 64, 53
4, 28560, Note_on_c, 9, 53, 0
4, 28571, Note_on_c, 9, 64, 0
4, 28620, Note_on_c, 9, 53, 49
4, 28643, Note_on_c, 9, 64, 57
4, 28652, Note_on_c, 9, 64, 0
4, 28670, Note_on_c, 9, 64, 44
4, 28680, Note_on_c, 9, 53, 0
4, 28697, Note_on_c, 9, 64, 0
4, 28735, Note_on_c, 9, 41, 57
4, 28740, Note_on_c, 9, 53, 72
4, 28751, Note_on_c, 9, 41, 0
4, 28797, Note_on_c, 9, 64, 66
4, 28800, Note_on_c, 9, 53, 0
4, 28807, Note_on_c, 9, 64, 0
4, 28860, Note_on_c, 9, 53, 35
4, 28891, Note_on_c, 9, 64, 46
4, 28899, Note_on_c, 9, 64, 0
4, 28916, Note_on_c, 9, 64, 57
4, 28920, Note_on_c, 9, 53, 0
4, 28933, Note_on_c, 9, 64, 0
4, 28980, Note_on_c, 9, 53, 44
4, 29017, Note_on_c, 9, 64, 35
4, 29026, Note_on_c, 9, 64, 0
4, 29039, Note_on_c, 9, 64, 29
4, 29040, Note_on_c, 9, 53, 0
4, 29052, Note_on_c, 9, 64, 0
4, 29100, Note_on_c, 9, 53, 65
4, 29127, Note_on_c, 9, 64, 60
4, 29135, Note_on_c, 9, 64, 0
4, 29155, Note_on_c, 9, 64, 47
4, 29160, Note_on_c, 9, 53, 0
4, 29199, Note_on_c, 9, 64, 0
4, 29218, Note_on_c, 9, 41, 54
4, 29220, Note_on_c, 9, 59, 77
4, 29233, Note_on_c, 9, 41, 0
4, 29280, Note_on_c, 9, 59, 0
4, 29282, Note_on_c, 9, 64, 64
4, 29289, Note_on_c, 9, 64, 0
4, 29340, Note_on_c, 9, 53, 58
4, 29373, Note_on_c, 9, 64, 55
4, 29381, Note_on_c, 9, 64, 0
4, 29398, Note_on_c, 9, 64, 43
4, 29400, Note_on_c, 9, 53, 0
4, 29415, Note_on_c, 9, 64, 0
4, 29460, Note_on_c, 9, 53, 51
4, 29493, Note_on_c, 9, 64, 54
4, 29501, Note_on_c, 9, 64, 0
4, 29518, Note_on_c, 9, 64, 45
4, 29520, Note_on_c, 9, 53, 0
4, 29532, Note_on_c, 9, 64, 0
4, 29580, Note_on_c, 9, 53, 58
4, 29611, Note_on_c, 9, 64, 45
4, 29620, Note_on_c, 9, 64, 0
4, 29637, Note_on_c, 9, 64, 40
4, 29640, Note_on_c, 9, 53, 0
4, 29649, Note_on_c, 9, 64, 0
4, 29694, Note_on_c, 9, 41, 61
4, 29700, Note_on_c, 9, 53, 54
4, 29708, Note_on_c, 9, 41, 0
4, 29756, Note_on_c, 9, 64, 67
4, 29760, Note_on_c, 9, 53, 0
4, 29765, Note_on_c, 9, 64, 0
4, 29820, Note_on_c, 9, 53, 49
4, 29850, Note_on_c, 9, 64, 53
4, 29859, Note_on_c, 9, 64, 0
4, 29880, Note_on_c, 9, 53, 0
4, 29880, Note_on_c, 9, 64, 34
4, 29889, Note_on_c, 9, 64, 0
4, 29940, Note_on_c, 9, 53, 51
4, 29973, Note_on_c, 9, 64, 56
4, 29981, Note_on_c, 9, 64, 0
4, 30000, Note_on_c, 9, 53, 0
4, 30000, Note_on_c, 9, 64, 45
4, 30008, Note_on_c, 9, 64, 0
4, 30060, Note_on_c, 9, 53, 58
4, 30093, Note_on_c, 9, 64, 48
4, 30101, Note_on_c, 9, 64, 0
4, 30119, Note_on_c, 9, 64, 47
4, 30120, Note_on_c, 9, 53, 0
4, 30140, Note_on_c, 9, 64, 0
4, 30175, Note_on_c, 9, 41, 62
4, 30180, Note_on_c, 9, 53, 71
4, 30187, Note_on_c, 9, 41, 0
4, 30239, Note_on_c, 9, 64, 70
4, 30240, Note_on_c, 9, 53, 0
4, 30250, Note_on_c, 9, 64, 0
4, 30300, Note_on_c, 9, 53, 54
4, 30333, Note_on_c, 9, 64, 57
4, 30340, Note_on_c, 9, 64, 0
4, 30360, Note_on_c, 9, 53, 0
4, 30363, Note_on_c, 9, 64, 34
4, 30374, Note_on_c, 9, 64, 0
4, 30420, Note_on_c, 9, 53, 62
4, 30448, Note_on_c, 9, 64, 68
4, 30460, Note_on_c, 9, 64, 0
4, 30477, Note_on_c, 9, 64, 64
4, 30480, Note_on_c, 9, 53, 0
4, 30491, Note_on_c, 9, 64, 0
4, 30540, Note_on_c, 9, 53, 62
4, 30574, Note_on_c, 9, 64, 59
4, 30582, Note_on_c, 9, 64, 0
4, 30599, Note_on_c, 9, 64, 65
4, 30600, Note_on_c, 9, 53, 0
4, 30619, Note_on_c, 9, 64, 0
4, 30660, Note_on_c, 9, 53, 80
4, 30720, Note_on_c, 9, 53, 0
4, 30720, Note_on_c, 9, 64, 67
4, 30734, Note_on_c, 9, 64, 0
4, 30780, Note_on_c, 9, 53, 93
4, 30840, Note_on_c, 9, 53, 0
4, 30843, Note_on_c, 9, 64, 58
4, 30863, Note_on_c, 9, 64, 0
4, 30900, Note_on_c, 9, 53, 77
4, 30939, Note_on_c, 9, 64, 66
4, 30947, Note_on_c, 9, 64, 0
4, 30960, Note_on_c, 9, 53, 0
4, 30966, Note_on_c, 9, 64, 56
4, 30979, Note_on_c, 9, 64, 0
4, 31020, Note_on_c, 9, 53, 74
4, 31054, Note_on_c, 9, 64, 64
4, 31063, Note_on_c, 9, 64, 0
4, 31080, Note_on_c, 9, 53, 0
4, 31081, Note_on_c, 9, 64, 61
4, 31106, Note_on_c, 9, 64, 0
4, 31139, Note_on_c, 9, 41, 64
4, 31140, Note_on_c, 9, 53, 65
4, 31156, Note_on_c, 9, 41, 0
4, 31200, Note_on_c, 9, 53, 0
4, 31202, Note_on_c, 9, 64, 71
4, 31218, Note_on_c, 9, 64, 0
4, 31260, Note_on_c, 9, 53, 57
4, 31293, Note_on_c, 9, 64, 52
4, 31301, Note_on_c, 9, 64, 0
4, 31320, Note_on_c, 9, 53, 0
4, 31322, Note_on_c, 9, 64, 54
4, 31331, Note_on_c, 9, 64, 0
4, 31380, Note_on_c, 9, 53, 60
4, 31439, Note_on_c, 9, 64, 67
4, 31440, Note_on_c, 9, 53, 0
4, 31446, Note_on_c, 9, 64, 0
4, 31459, Note_on_c, 9, 64, 31
4, 31468, Note_on_c, 9, 64, 0
4, 31500, Note_on_c, 9, 53, 52
4, 31534, Note_on_c, 9, 64, 53
4, 31543, Note_on_c, 9, 64, 0
4, 31559, Note_on_c, 9, 64, 71
4, 31560, Note_on_c, 9, 53, 0
4, 31573, Note_on_c, 9, 64, 0
4, 31617, Note_on_c, 9, 41, 62
4, 31620, Note_on_c, 9, 53, 54
4, 31635, Note_on_c, 9, 41, 0
4, 31680, Note_on_c, 9, 53, 0
4, 31682, Note_on_c, 9, 64, 68
4, 31690, Note_on_c, 9, 64, 0
4, 31740, Note_on_c, 9, 53, 65
4, 31772, Note_on_c, 9, 64, 49
4, 31780, Note_on_c, 9, 64, 0
4, 31798, Note_on_c, 9, 64, 46
4, 31800, Note_on_c, 9, 53, 0
4, 31815, Note_on_c, 9, 64, 0
4, 31860, Note_on_c, 9, 53, 54
4, 31890, Note_on_c, 9, 64, 60
4, 31898, Note_on_c, 9, 64, 0
4, 31915, Note_on_c, 9, 64, 58
4, 31920, Note_on_c, 9, 53, 0
4, 31922, Note_on_c, 9, 64, 0
4, 31980, Note_on_c, 9, 53, 60
4, 32014, Note_on_c, 9, 64, 49
4, 32023, Note_on_c, 9, 64, 0
4, 32040, Note_on_c, 9, 53, 0
4, 32041, Note_on_c, 9, 64, 53
4, 32051, Note_on_c, 9, 64, 0
4, 32099, Note_on_c, 9, 41, 52
4, 32100, Note_on_c, 9, 53, 60
4, 32110, Note_on_c, 9, 41, 0
4, 32160, Note_on_c, 9, 53, 0
4, 32161, Note_on_c, 9, 64, 69
4, 32171, Note_on_c, 9, 64, 0
4, 32220, Note_on_c, 9, 53, 60
4, 32257, Note_on_c, 9, 64, 35
4, 32266, Note_on_c, 9, 64, 0
4, 32280, Note_on_c, 9, 53, 0
4, 32281, Note_on_c, 9, 64, 57
4, 32299, Note_on_c, 9, 64, 0
4, 32340, Note_on_c, 9, 53, 69
4, 32378, Note_on_c, 9, 64, 51
4, 32385, Note_on_c, 9, 64, 0
4, 32399, Note_on_c, 9, 64, 53
4, 32400, Note_on_c, 9, 53, 0
4, 32411, Note_on_c, 9, 64, 0
4, 32460, Note_on_c, 9, 53, 58
4, 32483, Note_on_c, 9, 64, 57
4, 32492, Note_on_c, 9, 64, 0
4, 32510, Note_on_c, 9, 64, 44
4, 32520, Note_on_c, 9, 53, 0
4, 32537, Note_on_c, 9, 64, 0
4, 32575, Note_on_c, 9, 41, 57
4, 32580, Note_on_c, 9, 53, 57
4, 32591, Note_on_c, 9, 41, 0
4, 32637, Note_on_c, 9, 64, 66
4, 32640, Note_on_c, 9, 53, 0
4, 32647, Note_on_c, 9, 64, 0
4, 32700, Note_on_c, 9, 53, 62
4, 32731, Note_on_c, 9, 64, 46
4, 32739, Note_on_c, 9, 64, 0
4, 32756, Note_on_c, 9, 64, 57
4, 32760, Note_on_c, 9, 53, 0
4, 32773, Note_on_c, 9, 64, 0
4, 32820, Note_on_c, 9, 53, 60
4, 32857, Note_on_c, 9, 64, 35
4, 32866, Note_on_c, 9, 64, 0
4, 32879, Note_on_c, 9, 64, 29
4, 32880, Note_on_c, 9, 53, 0
4, 32892, Note_on_c, 9, 64, 0
4, 32940, Note_on_c, 9, 53, 68
4, 32967, Note_on_c, 9, 64, 60
4, 32975, Note_on_c, 9, 64, 0
4, 32995, Note_on_c, 9, 64, 47
4, 33000, Note_on_c, 9, 53, 0
4, 33039, Note_on_c, 9, 64, 0
4, 33058, Note_on_c, 9, 41, 54
4, 33060, Note_on_c, 9, 53, 65
4, 33073, Note_on_c, 9, 41, 0
4, 33120, Note_on_c, 9, 53, 0
4, 33122, Note_on_c, 9, 64, 64
4, 33129, Note_on_c, 9, 64, 0
4, 33180, Note_on_c, 9, 53, 65
4, 33213, Note_on_c, 9, 64, 55
4, 33221, Note_on_c, 9, 64, 0
4, 33238, Note_on_c, 9, 64, 43
4, 33240, Note_on_c, 9, 53, 0
4, 33255, Note_on_c, 9, 64, 0
4, 33300, Note_on_c, 9, 53, 65
4, 33333, Note_on_c, 9, 64, 54
4, 33341, Note_on_c, 9, 64, 0
4, 33358, Note_on_c, 9, 64, 45
4, 33360, Note_on_c, 9, 53, 0
4, 33372, Note_on_c, 9, 64, 0
4, 33420, Note_on_c, 9, 53, 57
4, 33451, Note_on_c, 9, 64, 45
4, 33460, Note_on_c, 9, 64, 0
4, 33477, Note_on_c, 9, 64, 40
4, 33480, Note_on_c, 9, 53, 0
4, 33489, Note_on_c, 9, 64, 0
4, 33534, Note_on_c, 9, 41, 61
4, 33540, Note_on_c, 9, 53, 58
4, 33548, Note_on_c, 9, 41, 0
4, 33596, Note_on_c, 9, 64, 67
4, 33600, Note_on_c, 9, 53, 0
4, 33605, Note_on_c, 9, 64, 0
4, 33660, Note_on_c, 9, 53, 55
4, 33690, Note_on_c, 9, 64, 53
4, 33699, Note_on_c, 9, 64, 0
4, 33720, Note_on_c, 9, 53, 0
4, 33720, Note_on_c, 9, 64, 34
4, 33729, Note_on_c, 9, 64, 0
4, 33780, Note_on_c, 9, 53, 57
4, 33813, Note_on_c, 9, 64, 56
4, 33821, Note_on_c, 9, 64, 0
4, 33840, Note_on_c, 9, 53, 0
4, 33840, Note_on_c, 9, 64, 45
4, 33848, Note_on_c, 9, 64, 0
4, 33900, Note_on_c, 9, 53, 49
4, 33933, Note_on_c, 9, 64, 48
4, 33941, Note_on_c, 9, 64, 0
4, 33959, Note_on_c, 9, 64, 47
4, 33960, Note_on_c, 9, 53, 0
4, 33980, Note_on_c, 9, 64, 0
4, 34015, Note_on_c, 9, 41, 62
4, 34020, Note_on_c, 9, 53, 72
4, 34027, Note_on_c, 9, 41, 0
4, 34079, Note_on_c, 9, 64, 70
4, 34080, Note_on_c, 9, 53, 0
4, 34090, Note_on_c, 9, 64, 0
4, 34140, Note_on_c, 9, 53, 54
4, 34173, Note_on_c, 9, 64, 57
4, 34180, Note_on_c, 9, 64, 0
4, 34200, Note_on_c, 9, 53, 0
4, 34203, Note_on_c, 9, 64, 34
4, 34214, Note_on_c, 9, 64, 0
4, 34260, Note_on_c, 9, 53, 66
4, 34288, Note_on_c, 9, 64, 68
4, 34300, Note_on_c, 9, 64, 0
4, 34317, Note_on_c, 9, 64, 64
4, 34320, Note_on_c, 9, 53, 0
4, 34331, Note_on_c, 9, 64, 0
4, 34380, Note_on_c, 9, 53, 66
4, 34414, Note_on_c, 9, 64, 59
4, 34422, Note_on_c, 9, 64, 0
4, 34439, Note_on_c, 9, 64, 65
4, 34440, Note_on_c, 9, 53, 0
4, 34459, Note_on_c, 9, 64, 0
4, 34500, Note_on_c, 9, 59, 57
4, 34560, Note_on_c, 9, 59, 0
4, 34560, Note_on_c, 9, 64, 63
4, 34578, Note_on_c, 9, 64, 0
4, 34620, Note_on_c, 9, 51, 52
4, 34620, Note_on_c, 9, 53, 52
4, 34666, Note_on_c, 9, 64, 36
4, 34675, Note_on_c, 9, 64, 0
4, 34680, Note_on_c, 9, 53, 0
4, 34680, Note_on_c, 9, 51, 0
4, 34689, Note_on_c, 9, 64, 65
4, 34714, Note_on_c, 9, 64, 0
4, 34740, Note_on_c, 9, 51, 54
4, 34740, Note_on_c, 9, 53, 54
4, 34778, Note_on_c, 9, 64, 46
4, 34786, Note_on_c, 9, 64, 0
4, 34800, Note_on_c, 9, 53, 0
4, 34800, Note_on_c, 9, 51, 0
4, 34804, Note_on_c, 9, 64, 57
4, 34820, Note_on_c, 9, 64, 0
4, 34860, Note_on_c, 9, 51, 55
4, 34860, Note_on_c, 9, 53, 55
4, 34894, Note_on_c, 9, 64, 53
4, 34902, Note_on_c, 9, 64, 0
4, 34920, Note_on_c, 9, 53, 0
4, 34920, Note_on_c, 9, 51, 0
4, 34920, Note_on_c, 9, 64, 47
4, 34947, Note_on_c, 9, 64, 0
4, 34978, Note_on_c, 9, 41, 43
4, 34980, Note_on_c, 9, 51, 57
4, 34980, Note_on_c, 9, 53, 57
4, 34988, Note_on_c, 9, 41, 0
4, 35040, Note_on_c, 9, 53, 0
4, 35040, Note_on_c, 9, 51, 0
4, 35047, Note_on_c, 9, 64, 48
4, 35068, Note_on_c, 9, 64, 0
4, 35100, Note_on_c, 9, 51, 55
4, 35100, Note_on_c, 9, 53, 55
4, 35143, Note_on_c, 9, 64, 47
4, 35151, Note_on_c, 9, 64, 0
4, 35160, Note_on_c, 9, 53, 0
4, 35160, Note_on_c, 9, 51, 0
4, 35166, Note_on_c, 9, 64, 55
4, 35187, Note_on_c, 9, 64, 0
4, 35220, Note_on_c, 9, 51, 58
4, 35220, Note_on_c, 9, 53, 58
4, 35262, Note_on_c, 9, 64, 48
4, 35270, Note_on_c, 9, 64, 0
4, 35280, Note_on_c, 9, 53, 0
4, 35280, Note_on_c, 9, 51, 0
4, 35284, Note_on_c, 9, 64, 55
4, 35305, Note_on_c, 9, 64, 0
4, 35340, Note_on_c, 9, 51, 58
4, 35340, Note_on_c, 9, 53, 58
4, 35373, Note_on_c, 9, 64, 52
4, 35381, Note_on_c, 9, 64, 0
4, 35400, Note_on_c, 9, 53, 0
4, 35400, Note_on_c, 9, 51, 0
4, 35400, Note_on_c, 9, 64, 50
4, 35433, Note_on_c, 9, 64, 0
4, 35460, Note_on_c, 9, 41, 51
4, 35460, Note_on_c, 9, 51, 51
4, 35460, Note_on_c, 9, 53, 51
4, 35472, Note_on_c, 9, 41, 0
4, 35520, Note_on_c, 9, 53, 0
4, 35520, Note_on_c, 9, 51, 0
4, 35524, Note_on_c, 9, 64, 58
4, 35539, Note_on_c, 9, 64, 0
4, 35580, Note_on_c, 9, 51, 49
4, 35580, Note_on_c, 9, 53, 49
4, 35620, Note_on_c, 9, 64, 38
4, 35629, Note_on_c, 9, 64, 0
4, 35640, Note_on_c, 9, 53, 0
4, 35640, Note_on_c, 9, 51, 0
4, 35646, Note_on_c, 9, 64, 53
4, 35665, Note_on_c, 9, 64, 0
4, 35700, Note_on_c, 9, 51, 57
4, 35700, Note_on_c, 9, 53, 57
4, 35739, Note_on_c, 9, 64, 39
4, 35747, Note_on_c, 9, 64, 0
4, 35760, Note_on_c, 9, 53, 0
4, 35760, Note_on_c, 9, 51, 0
4, 35765, Note_on_c, 9, 64, 46
4, 35784, Note_on_c, 9, 64, 0
4, 35820, Note_on_c, 9, 51, 58
4, 35820, Note_on_c, 9, 53, 58
4, 35851, Note_on_c, 9, 64, 48
4, 35860, Note_on_c, 9, 64, 0
4, 35879, Note_on_c, 9, 64, 47
4, 35880, Note_on_c, 9, 53, 0
4, 35880, Note_on_c, 9, 51, 0
4, 35898, Note_on_c, 9, 64, 0
4, 35940, Note_on_c, 9, 51, 74
4, 35940, Note_on_c, 9, 53, 74
4, 36000, Note_on_c, 9, 53, 0
4, 36000, Note_on_c, 9, 51, 0
4, 36060, Note_on_c, 9, 51, 51
4, 36060, Note_on_c, 9, 53, 51
4, 36099, Note_on_c, 9, 64, 36
4, 36108, Note_on_c, 9, 64, 0
4, 36120, Note_on_c, 9, 53, 0
4, 36120, Note_on_c, 9, 51, 0
4, 36124, Note_on_c, 9, 64, 54
4, 36145, Note_on_c, 9, 64, 0
4, 36180, Note_on_c, 9, 51, 54
4, 36180, Note_on_c, 9, 53, 54
4, 36216, Note_on_c, 9, 64, 40
4, 36225, Note_on_c, 9, 64, 0
4, 36238, Note_on_c, 9, 64, 39
4, 36240, Note_on_c, 9, 53, 0
4, 36240, Note_on_c, 9, 51, 0
4, 36256, Note_on_c, 9, 64, 0
4, 36300, Note_on_c, 9, 51, 49
4, 36300, Note_on_c, 9, 53, 49
4, 36329, Note_on_c, 9, 64, 55
4, 36337, Note_on_c, 9, 64, 0
4, 36357, Note_on_c, 9, 64, 41
4, 36360, Note_on_c, 9, 53, 0
4, 36360, Note_on_c, 9, 51, 0
4, 36385, Note_on_c, 9, 64, 0
4, 36418, Note_on_c, 9, 41, 60
4, 36420, Note_on_c, 9, 51, 72
4, 36420, Note_on_c, 9, 53, 72
4, 36435, Note_on_c, 9, 41, 0
4, 36480, Note_on_c, 9, 53, 0
4, 36480, Note_on_c, 9, 51, 0
4, 36481, Note_on_c, 9, 64, 62
4, 36493, Note_on_c, 9, 64, 0
4, 36540, Note_on_c, 9, 51, 35
4, 36540, Note_on_c, 9, 53, 35
4, 36576, Note_on_c, 9, 64, 41
4, 36584, Note_on_c, 9, 64, 0
4, 36600, Note_on_c, 9, 53, 0
4, 36600, Note_on_c, 9, 51, 0
4, 36601, Note_on_c, 9, 64, 51
4, 36623, Note_on_c, 9, 64, 0
4, 36660, Note_on_c, 9, 51, 44
4, 36660, Note_on_c, 9, 53, 44
4, 36703, Note_on_c, 9, 64, 24
4, 36710, Note_on_c, 9, 64, 0
4, 36720, Note_on_c, 9, 53, 0
4, 36720, Note_on_c, 9, 51, 0
4, 36724, Note_on_c, 9, 64, 41
4, 36733, Note_on_c, 9, 64, 0
4, 36780, Note_on_c, 9, 51, 65
4, 36780, Note_on_c, 9, 53, 65
4, 36811, Note_on_c, 9, 64, 55
4, 36819, Note_on_c, 9, 64, 0
4, 36838, Note_on_c, 9, 64, 48
4, 36840, Note_on_c, 9, 53, 0
4, 36840, Note_on_c, 9, 51, 0
4, 36869, Note_on_c, 9, 64, 0
4, 36897, Note_on_c, 9, 41, 58
4, 36900, Note_on_c, 9, 59, 77
4, 36915, Note_on_c, 9, 41, 0
4, 36960, Note_on_c, 9, 59, 0
4, 36960, Note_on_c, 9, 64, 58
4, 36978, Note_on_c, 9, 64, 0
4, 37020, Note_on_c, 9, 51, 58
4, 37020, Note_on_c, 9, 53, 58
4, 37059, Note_on_c, 9, 64, 43
4, 37067, Note_on_c, 9, 64, 0
4, 37080, Note_on_c, 9, 53, 0
4, 37080, Note_on_c, 9, 51, 0
4, 37082, Note_on_c, 9, 64, 58
4, 37101, Note_on_c, 9, 64, 0
4, 37140, Note_on_c, 9, 51, 51
4, 37140, Note_on_c, 9, 53, 51
4, 37174, Note_on_c, 9, 64, 36
4, 37183, Note_on_c, 9, 64, 0
4, 37200, Note_on_c, 9, 53, 0
4, 37200, Note_on_c, 9, 51, 0
4, 37202, Note_on_c, 9, 64, 44
4, 37214, Note_on_c, 9, 64, 0
4, 37260, Note_on_c, 9, 51, 58
4, 37260, Note_on_c, 9, 53, 58
4, 37289, Note_on_c, 9, 64, 44
4, 37298, Note_on_c, 9, 64, 0
4, 37320, Note_on_c, 9, 53, 0
4, 37320, Note_on_c, 9, 51, 0
4, 37321, Note_on_c, 9, 64, 33
4, 37346, Note_on_c, 9, 64, 0
4, 37377, Note_on_c, 9, 41, 52
4, 37380, Note_on_c, 9, 51, 54
4, 37380, Note_on_c, 9, 53, 54
4, 37388, Note_on_c, 9, 41, 0
4, 37440, Note_on_c, 9, 53, 0
4, 37440, Note_on_c, 9, 51, 0
4, 37440, Note_on_c, 9, 64, 54
4, 37454, Note_on_c, 9, 64, 0
4, 37500, Note_on_c, 9, 51, 49
4, 37500, Note_on_c, 9, 53, 49
4, 37536, Note_on_c, 9, 64, 33
4, 37545, Note_on_c, 9, 64, 0
4, 37560, Note_on_c, 9, 53, 0
4, 37560, Note_on_c, 9, 51, 0
4, 37563, Note_on_c, 9, 64, 45
4, 37582, Note_on_c, 9, 64, 0
4, 37620, Note_on_c, 9, 51, 51
4, 37620, Note_on_c, 9, 53, 51
4, 37653, Note_on_c, 9, 64, 42
4, 37663, Note_on_c, 9, 64, 0
4, 37680, Note_on_c, 9, 53, 0
4, 37680, Note_on_c, 9, 51, 0
4, 37683, Note_on_c, 9, 64, 40
4, 37693, Note_on_c, 9, 64, 0
4, 37740, Note_on_c, 9, 51, 58
4, 37740, Note_on_c, 9, 53, 58
4, 37769, Note_on_c, 9, 64, 51
4, 37778, Note_on_c, 9, 64, 0
4, 37798, Note_on_c, 9, 64, 47
4, 37800, Note_on_c, 9, 53, 0
4, 37800, Note_on_c, 9, 51, 0
4, 37821, Note_on_c, 9, 64, 0
4, 37856, Note_on_c, 9, 41, 53
4, 37860, Note_on_c, 9, 51, 71
4, 37860, Note_on_c, 9, 53, 71
4, 37870, Note_on_c, 9, 41, 0
4, 37917, Note_on_c, 9, 64, 57
4, 37920, Note_on_c, 9, 53, 0
4, 37920, Note_on_c, 9, 51, 0
4, 37927, Note_on_c, 9, 64, 0
4, 37980, Note_on_c, 9, 51, 54
4, 37980, Note_on_c, 9, 53, 54
4, 38019, Note_on_c, 9, 64, 56
4, 38034, Note_on_c, 9, 64, 0
4, 38040, Note_on_c, 9, 53, 0
4, 38040, Note_on_c, 9, 51, 0
4, 38047, Note_on_c, 9, 64, 49
4, 38054, Note_on_c, 9, 64, 0
4, 38100, Note_on_c, 9, 51, 62
4, 38100, Note_on_c, 9, 53, 62
4, 38136, Note_on_c, 9, 64, 42
4, 38144, Note_on_c, 9, 64, 0
4, 38160, Note_on_c, 9, 53, 0
4, 38160, Note_on_c, 9, 51, 0
4, 38162, Note_on_c, 9, 64, 51
4, 38178, Note_on_c, 9, 64, 0
4, 38220, Note_on_c, 9, 51, 62
4, 38220, Note_on_c, 9, 53, 62
4, 38253, Note_on_c, 9, 64, 54
4, 38261, Note_on_c, 9, 64, 0
4, 38280, Note_on_c, 9, 53, 0
4, 38280, Note_on_c, 9, 51, 0
4, 38283, Note_on_c, 9, 64, 44
4, 38301, Note_on_c, 9, 64, 0
4, 38339, Note_on_c, 9, 41, 49
4, 38340, Note_on_c, 9, 51, 80
4, 38340, Note_on_c, 9, 53, 80
4, 38348, Note_on_c, 9, 41, 0
4, 38400, Note_on_c, 9, 53, 0
4, 38400, Note_on_c, 9, 51, 0
4, 38404, Note_on_c, 9, 64, 64
4, 38412, Note_on_c, 9, 64, 0
4, 38460, Note_on_c, 9, 51, 93
4, 38460, Note_on_c, 9, 53, 93
4, 38492, Note_on_c, 9, 64, 48
4, 38500, Note_on_c, 9, 64, 0
4, 38516, Note_on_c, 9, 64, 45
4, 38520, Note_on_c, 9, 53, 0
4, 38520, Note_on_c, 9, 51, 0
4, 38534, Note_on_c, 9, 64, 0
4, 38580, Note_on_c, 9, 51, 77
4, 38580, Note_on_c, 9, 53, 77
4, 38607, Note_on_c, 9, 64, 51
4, 38615, Note_on_c, 9, 64, 0
4, 38635, Note_on_c, 9, 64, 40
4, 38640, Note_on_c, 9, 53, 0
4, 38640, Note_on_c, 9, 51, 0
4, 38653, Note_on_c, 9, 64, 0
4, 38700, Note_on_c, 9, 51, 74
4, 38700, Note_on_c, 9, 53, 74
4, 38731, Note_on_c, 9, 64, 48
4, 38739, Note_on_c, 9, 64, 0
4, 38757, Note_on_c, 9, 64, 36
4, 38760, Note_on_c, 9, 53, 0
4, 38760, Note_on_c, 9, 51, 0
4, 38779, Note_on_c, 9, 64, 0
4, 38817, Note_on_c, 9, 41, 41
4, 38820, Note_on_c, 9, 51, 65
4, 38820, Note_on_c, 9, 53, 65
4, 38830, Note_on_c, 9, 41, 0
4, 38880, Note_on_c, 9, 53, 0
4, 38880, Note_on_c, 9, 51, 0
4, 38885, Note_on_c, 9, 64, 65
4, 38892, Note_on_c, 9, 64, 0
4, 38940, Note_on_c, 9, 51, 57
4, 38940, Note_on_c, 9, 53, 57
4, 38978, Note_on_c, 9, 64, 40
4, 38987, Note_on_c, 9, 64, 0
4, 39000, Note_on_c, 9, 53, 0
4, 39000, Note_on_c, 9, 51, 0
4, 39002, Note_on_c, 9, 64, 49
4, 39020, Note_on_c, 9, 64, 0
4, 39060, Note_on_c, 9, 51, 60
4, 39060, Note_on_c, 9, 53, 60
4, 39097, Note_on_c, 9, 64, 44
4, 39106, Note_on_c, 9, 64, 0
4, 39120, Note_on_c, 9, 53, 0
4, 39120, Note_on_c, 9, 51, 0
4, 39123, Note_on_c, 9, 64, 49
4, 39132, Note_on_c, 9, 64, 0
4, 39180, Note_on_c, 9, 51, 52
4, 39180, Note_on_c, 9, 53, 52
4, 39215, Note_on_c, 9, 64, 40
4, 39223, Note_on_c, 9, 64, 0
4, 39239, Note_on_c, 9, 64, 45
4, 39240, Note_on_c, 9, 53, 0
4, 39240, Note_on_c, 9, 51, 0
4, 39261, Note_on_c, 9, 64, 0
4, 39299, Note_on_c, 9, 41, 57
4, 39300, Note_on_c, 9, 51, 54
4, 39300, Note_on_c, 9, 53, 54
4, 39310, Note_on_c, 9, 41, 0
4, 39360, Note_on_c, 9, 53, 0
4, 39360, Note_on_c, 9, 51, 0
4, 39361, Note_on_c, 9, 64, 58
4, 39369, Note_on_c, 9, 64, 0
4, 39420, Note_on_c, 9, 51, 65
4, 39420, Note_on_c, 9, 53, 65
4, 39457, Note_on_c, 9, 64, 41
4, 39466, Note_on_c, 9, 64, 0
4, 39480, Note_on_c, 9, 53, 0
4, 39480, Note_on_c, 9, 51, 0
4, 39482, Note_on_c, 9, 64, 54
4, 39498, Note_on_c, 9, 64, 0
4, 39540, Note_on_c, 9, 51, 54
4, 39540, Note_on_c, 9, 53, 54
4, 39576, Note_on_c, 9, 64, 44
4, 39585, Note_on_c, 9, 64, 0
4, 39600, Note_on_c, 9, 53, 0
4, 39600, Note_on_c, 9, 51, 0
4, 39601, Note_on_c, 9, 64, 49
4, 39618, Note_on_c, 9, 64, 0
4, 39660, Note_on_c, 9, 51, 60
4, 39660, Note_on_c, 9, 53, 60
4, 39694, Note_on_c, 9, 64, 46
4, 39702, Note_on_c, 9, 64, 0
4, 39720, Note_on_c, 9, 53, 0
4, 39720, Note_on_c, 9, 51, 0
4, 39726, Note_on_c, 9, 64, 44
4, 39746, Note_on_c, 9, 64, 0
4, 39776, Note_on_c, 9, 41, 59
4, 39780, Note_on_c, 9, 51, 60
4, 39780, Note_on_c, 9, 53, 60
4, 39791, Note_on_c, 9, 41, 0
4, 39840, Note_on_c, 9, 53, 0
4, 39840, Note_on_c, 9, 51, 0
4, 39840, Note_on_c, 9, 64, 67
4, 39854, Note_on_c, 9, 64, 0
4, 39900, Note_on_c, 9, 51, 60
4, 39900, Note_on_c, 9, 53, 60
4, 39931, Note_on_c, 9, 64, 38
4, 39940, Note_on_c, 9, 64, 0
4, 39960, Note_on_c, 9, 53, 0
4, 39960, Note_on_c, 9, 51, 0
4, 39960, Note_on_c, 9, 64, 48
4, 39974, Note_on_c, 9, 64, 0
4, 40020, Note_on_c, 9, 51, 69
4, 40020, Note_on_c, 9, 53, 69
4, 40052, Note_on_c, 9, 64, 45
4, 40061, Note_on_c, 9, 64, 0
4, 40076, Note_on_c, 9, 64, 49
4, 40080, Note_on_c, 9, 53, 0
4, 40080, Note_on_c, 9, 51, 0
4, 40090, Note_on_c, 9, 64, 0
4, 40140, Note_on_c, 9, 51, 58
4, 40140, Note_on_c, 9, 53, 58
4, 40165, Note_on_c, 9, 64, 50
4, 40173, Note_on_c, 9, 64, 0
4, 40195, Note_on_c, 9, 64, 47
4, 40200, Note_on_c, 9, 53, 0
4, 40200, Note_on_c, 9, 51, 0
4, 40219, Note_on_c, 9, 64, 0
4, 40259, Note_on_c, 9, 41, 50
4, 40260, Note_on_c, 9, 51, 57
4, 40260, Note_on_c, 9, 53, 57
4, 40273, Note_on_c, 9, 41, 0
4, 40320, Note_on_c, 9, 53, 0
4, 40320, Note_on_c, 9, 51, 0
4, 40323, Note_on_c, 9, 64, 64
4, 40331, Note_on_c, 9, 64, 0
4, 40380, Note_on_c, 9, 51, 62
4, 40380, Note_on_c, 9, 53, 62
4, 40421, Note_on_c, 9, 64, 48
4, 40429, Note_on_c, 9, 64, 0
4, 40440, Note_on_c, 9, 53, 0
4, 40440, Note_on_c, 9, 51, 0
4, 40448, Note_on_c, 9, 64, 45
4, 40467, Note_on_c, 9, 64, 0
4, 40500, Note_on_c, 9, 51, 60
4, 40500, Note_on_c, 9, 53, 60
4, 40548, Note_on_c, 9, 64, 42
4, 40557, Note_on_c, 9, 64, 0
4, 40560, Note_on_c, 9, 53, 0
4, 40560, Note_on_c, 9, 51, 0
4, 40571, Note_on_c, 9, 64, 54
4, 40579, Note_on_c, 9, 64, 0
4, 40620, Note_on_c, 9, 51, 68
4, 40620, Note_on_c, 9, 53, 68
4, 40660, Note_on_c, 9, 64, 47
4, 40669, Note_on_c, 9, 64, 0
4, 40680, Note_on_c, 9, 53, 0
4, 40680, Note_on_c, 9, 51, 0
4, 40683, Note_on_c, 9, 64, 62
4, 40702, Note_on_c, 9, 64, 0
4, 40739, Note_on_c, 9, 41, 64
4, 40740, Note_on_c, 9, 51, 65
4, 40740, Note_on_c, 9, 53, 65
4, 40756, Note_on_c, 9, 41, 0
4, 40800, Note_on_c, 9, 53, 0
4, 40800, Note_on_c, 9, 51, 0
4, 40802, Note_on_c, 9, 64, 61
4, 40809, Note_on_c, 9, 64, 0
4, 40860, Note_on_c, 9, 51, 65
4, 40860, Note_on_c, 9, 53, 65
4, 40901, Note_on_c, 9, 64, 33
4, 40910, Note_on_c, 9, 64, 0
4, 40920, Note_on_c, 9, 53, 0
4, 40920, Note_on_c, 9, 51, 0
4, 40925, Note_on_c, 9, 64, 64
4, 40931, Note_on_c, 9, 64, 0
4, 40980, Note_on_c, 9, 51, 65
4, 40980, Note_on_c, 9, 53, 65
4, 41012, Note_on_c, 9, 64, 53
4, 41020, Note_on_c, 9, 64, 0
4, 41038, Note_on_c, 9, 64, 49
4, 41040, Note_on_c, 9, 53, 0
4, 41040, Note_on_c, 9, 51, 0
4, 41058, Note_on_c, 9, 64, 0
4, 41100, Note_on_c, 9, 51, 57
4, 41100, Note_on_c, 9, 53, 57
4, 41138, Note_on_c, 9, 64, 62
4, 41145, Note_on_c, 9, 64, 0
4, 41160, Note_on_c, 9, 53, 0
4, 41160, Note_on_c, 9, 51, 0
4, 41164, Note_on_c, 9, 64, 57
4, 41182, Note_on_c, 9, 64, 0
4, 41217, Note_on_c, 9, 41, 70
4, 41220, Note_on_c, 9, 51, 58
4, 41220, Note_on_c, 9, 53, 58
4, 41232, Note_on_c, 9, 41, 0
4, 41280, Note_on_c, 9, 53, 0
4, 41280, Note_on_c, 9, 51, 0
4, 41281, Note_on_c, 9, 64, 66
4, 41291, Note_on_c, 9, 64, 0
4, 41340, Note_on_c, 9, 51, 55
4, 41340, Note_on_c, 9, 53, 55
4, 41374, Note_on_c, 9, 64, 34
4, 41383, Note_on_c, 9, 64, 0
4, 41398, Note_on_c, 9, 64, 52
4, 41400, Note_on_c, 9, 53, 0
4, 41400, Note_on_c, 9, 51, 0
4, 41417, Note_on_c, 9, 64, 0
4, 41460, Note_on_c, 9, 51, 57
4, 41460, Note_on_c, 9, 53, 57
4, 41494, Note_on_c, 9, 64, 36
4, 41503, Note_on_c, 9, 64, 0
4, 41518, Note_on_c, 9, 64, 54
4, 41520, Note_on_c, 9, 53, 0
4, 41520, Note_on_c, 9, 51, 0
4, 41528, Note_on_c, 9, 64, 0
4, 41580, Note_on_c, 9, 51, 49
4, 41580, Note_on_c, 9, 53, 49
4, 41610, Note_on_c, 9, 64, 55
4, 41617, Note_on_c, 9, 64, 0
4, 41640, Note_on_c, 9, 53, 0
4, 41640, Note_on_c, 9, 51, 0
4, 41640, Note_on_c, 9, 64, 35
4, 41656, Note_on_c, 9, 64, 0
4, 41696, Note_on_c, 9, 41, 60
4, 41700, Note_on_c, 9, 51, 72
4, 41700, Note_on_c, 9, 53, 72
4, 41710, Note_on_c, 9, 41, 0
4, 41756, Note_on_c, 9, 64, 66
4, 41760, Note_on_c, 9, 53, 0
4, 41760, Note_on_c, 9, 51, 0
4, 41770, Note_on_c, 9, 64, 0
4, 41820, Note_on_c, 9, 51, 54
4, 41820, Note_on_c, 9, 53, 54
4, 41847, Note_on_c, 9, 64, 36
4, 41857, Note_on_c, 9, 64, 0
4, 41874, Note_on_c, 9, 64, 50
4, 41880, Note_on_c, 9, 53, 0
4, 41880, Note_on_c, 9, 51, 0
4, 41884, Note_on_c, 9, 64, 0
4, 41940, Note_on_c, 9, 51, 66
4, 41940, Note_on_c, 9, 53, 66
4, 41995, Note_on_c, 9, 64, 55
4, 42000, Note_on_c, 9, 53, 0
4, 42000, Note_on_c, 9, 51, 0
4, 42011, Note_on_c, 9, 64, 0
4, 42060, Note_on_c, 9, 51, 66
4, 42060, Note_on_c, 9, 53, 66
4, 42093, Note_on_c, 9, 64, 56
4, 42101, Note_on_c, 9, 64, 0
4, 42120, Note_on_c, 9, 53, 0
4, 42120, Note_on_c, 9, 51, 0
4, 42120, Note_on_c, 9, 64, 51
4, 42144, Note_on_c, 9, 64, 0
4, 42177, Note_on_c, 9, 41, 68
4, 42180, Note_on_c, 9, 59, 57
4, 42193, Note_on_c, 9, 41, 0
4, 42240, Note_on_c, 9, 59, 0
4, 42240, Note_on_c, 9, 64, 67
4, 42254, Note_on_c, 9, 64, 0
4, 42300, Note_on_c, 9, 51, 52
4, 42300, Note_on_c, 9, 53, 52
4, 42360, Note_on_c, 9, 53, 0
4, 42360, Note_on_c, 9, 51, 0
4, 42363, Note_on_c, 9, 64, 58
4, 42383, Note_on_c, 9, 64, 0
4, 42420, Note_on_c, 9, 51, 54
4, 42420, Note_on_c, 9, 53, 54
4, 42459, Note_on_c, 9, 64, 66
4, 42467, Note_on_c, 9, 64, 0
4, 42480, Note_on_c, 9, 53, 0
4, 42480, Note_on_c, 9, 51, 0
4, 42486, Note_on_c, 9, 64, 56
4, 42499, Note_on_c, 9, 64, 0
4, 42540, Note_on_c, 9, 51, 55
4, 42540, Note_on_c, 9, 53, 55
4, 42574, Note_on_c, 9, 64, 64
4, 42583, Note_on_c, 9, 64, 0
4, 42600, Note_on_c, 9, 53, 0
4, 42600, Note_on_c, 9, 51, 0
4, 42601, Note_on_c, 9, 64, 61
4, 42626, Note_on_c, 9, 64, 0
4, 42659, Note_on_c, 9, 41, 64
4, 42660, Note_on_c, 9, 51, 57
4, 42660, Note_on_c, 9, 53, 57
4, 42676, Note_on_c, 9, 41, 0
4, 42720, Note_on_c, 9, 53, 0
4, 42720, Note_on_c, 9, 51, 0
4, 42722, Note_on_c, 9, 64, 71
4, 42738, Note_on_c, 9, 64, 0
4, 42780, Note_on_c, 9, 51, 55
4, 42780, Note_on_c, 9, 53, 55
4, 42813, Note_on_c, 9, 64, 52
4, 42821, Note_on_c, 9, 64, 0
4, 42840, Note_on_c, 9, 53, 0
4, 42840, Note_on_c, 9, 51, 0
4, 42842, Note_on_c, 9, 64, 54
4, 42851, Note_on_c, 9, 64, 0
4, 42900, Note_on_c, 9, 51, 58
4, 42900, Note_on_c, 9, 53, 58
4, 42959, Note_on_c, 9, 64, 67
4, 42960, Note_on_c, 9, 53, 0
4, 42960, Note_on_c, 9, 51, 0
4, 42966, Note_on_c, 9, 64, 0
4, 42979, Note_on_c, 9, 64, 31
4, 42988, Note_on_c, 9, 64, 0
4, 43020, Note_on_c, 9, 51, 58
4, 43020, Note_on_c, 9, 53, 58
4, 43054, Note_on_c, 9, 64, 53
4, 43063, Note_on_c, 9, 64, 0
4, 43079, Note_on_c, 9, 64, 71
4, 43080, Note_on_c, 9, 53, 0
4, 43080, Note_on_c, 9, 51, 0
4, 43093, Note_on_c, 9, 64, 0
4, 43137, Note_on_c, 9, 41, 62
4, 43140, Note_on_c, 9, 51, 51
4, 43140, Note_on_c, 9, 53, 51
4, 43155, Note_on_c, 9, 41, 0
4, 43200, Note_on_c, 9, 53, 0
4, 43200, Note_on_c, 9, 51, 0
4, 43202, Note_on_c, 9, 64, 68
4, 43210, Note_on_c, 9, 64, 0
4, 43260, Note_on_c, 9, 51, 49
4, 43260, Note_on_c, 9, 53, 49
4, 43292, Note_on_c, 9, 64, 49
4, 43300, Note_on_c, 9, 64, 0
4, 43318, Note_on_c, 9, 64, 46
4, 43320, Note_on_c, 9, 53, 0
4, 43320, Note_on_c, 9, 51, 0
4, 43335, Note_on_c, 9, 64, 0
4, 43380, Note_on_c, 9, 51, 57
4, 43380, Note_on_c, 9, 53, 57
4, 43410, Note_on_c, 9, 64, 60
4, 43418, Note_on_c, 9, 64, 0
4, 43435, Note_on_c, 9, 64, 58
4, 43440, Note_on_c, 9, 53, 0
4, 43440, Note_on_c, 9, 51, 0
4, 43442, Note_on_c, 9, 64, 0
4, 43500, Note_on_c, 9, 51, 58
4, 43500, Note_on_c, 9, 53, 58
4, 43534, Note_on_c, 9, 64, 49
4, 43543, Note_on_c, 9, 64, 0
4, 43560, Note_on_c, 9, 53, 0
4, 43560, Note_on_c, 9, 51, 0
4, 43561, Note_on_c, 9, 64, 53
4, 43571, Note_on_c, 9, 64, 0
4, 43619, Note_on_c, 9, 41, 52
4, 43620, Note_on_c, 9, 51, 74
4, 43620, Note_on_c, 9, 53, 74
4, 43630, Note_on_c, 9, 41, 0
4, 43680, Note_on_c, 9, 53, 0
4, 43680, Note_on_c, 9, 51, 0
4, 43681, Note_on_c, 9, 64, 69
4, 43691, Note_on_c, 9, 64, 0
4, 43740, Note_on_c, 9, 51, 51
4, 43740, Note_on_c, 9, 53, 51
4, 43777, Note_on_c, 9, 64, 35
4, 43786, Note_on_c, 9, 64, 0
4, 43800, Note_on_c, 9, 53, 0
4, 43800, Note_on_c, 9, 51, 0
4, 43801, Note_on_c, 9, 64, 57
4, 43819, Note_on_c, 9, 64, 0
4, 43860, Note_on_c, 9, 51, 54
4, 43860, Note_on_c, 9, 53, 54
4, 43898, Note_on_c, 9, 64, 51
4, 43905, Note_on_c, 9, 64, 0
4, 43919, Note_on_c, 9, 64, 53
4, 43920, Note_on_c, 9, 53, 0
4, 43920, Note_on_c, 9, 51, 0
4, 43931, Note_on_c, 9, 64, 0
4, 43980, Note_on_c, 9, 51, 49
4, 43980, Note_on_c, 9, 53, 49
4, 44003, Note_on_c, 9, 64, 57
4, 44012, Note_on_c, 9, 64, 0
4, 44030, Note_on_c, 9, 64, 44
4, 44040, Note_on_c, 9, 53, 0
4, 44040, Note_on_c, 9, 51, 0
4, 44057, Note_on_c, 9, 64, 0
4, 44095, Note_on_c, 9, 41, 57
4, 44100, Note_on_c, 9, 51, 72
4, 44100, Note_on_c, 9, 53, 72
4, 44111, Note_on_c, 9, 41, 0
4, 44157, Note_on_c, 9, 64, 66
4, 44160, Note_on_c, 9, 53, 0
4, 44160, Note_on_c, 9, 51, 0
4, 44167, Note_on_c, 9, 64, 0
4, 44220, Note_on_c, 9, 51, 35
4, 44220, Note_on_c, 9, 53, 35
4, 44251, Note_on_c, 9, 64, 46
4, 44259, Note_on_c, 9, 64, 0
4, 44276, Note_on_c, 9, 64, 57
4, 44280, Note_on_c, 9, 53, 0
4, 44280, Note_on_c, 9, 51, 0
4, 44293, Note_on_c, 9, 64, 0
4, 44340, Note_on_c, 9, 51, 44
4, 44340, Note_on_c, 9, 53, 44
4, 44377, Note_on_c, 9, 64, 35
4, 44386, Note_on_c, 9, 64, 0
4, 44399, Note_on_c, 9, 64, 29
4, 44400, Note_on_c, 9, 53, 0
4, 44400, Note_on_c, 9, 51, 0
4, 44412, Note_on_c, 9, 64, 0
4, 44460, Note_on_c, 9, 51, 65
4, 44460, Note_on_c, 9, 53, 65
4, 44487, Note_on_c, 9, 64, 60
4, 44495, Note_on_c, 9, 64, 0
4, 44515, Note_on_c, 9, 64, 47
4, 44520, Note_on_c, 9, 53, 0
4, 44520, Note_on_c, 9, 51, 0
4, 44559, Note_on_c, 9, 64, 0
4, 44578, Note_on_c, 9, 41, 54
4, 44580, Note_on_c, 9, 59, 77
4, 44593, Note_on_c, 9, 41, 0
4, 44640, Note_on_c, 9, 59, 0
4, 44642, Note_on_c, 9, 64, 64
4, 44649, Note_on_c, 9, 64, 0
4, 44700, Note_on_c, 9, 51, 58
4, 44700, Note_on_c, 9, 53, 58
4, 44733, Note_on_c, 9, 64, 55
4, 44741, Note_on_c, 9, 64, 0
4, 44758, Note_on_c, 9, 64, 43
4, 44760, Note_on_c, 9, 53, 0
4, 44760, Note_on_c, 9, 51, 0
4, 44775, Note_on_c, 9, 64, 0
4, 44820, Note_on_c, 9, 51, 51
4, 44820, Note_on_c, 9, 53, 51
4, 44853, Note_on_c, 9, 64, 54
4, 44861, Note_on_c, 9, 64, 0
4, 44878, Note_on_c, 9, 64, 45
4, 44880, Note_on_c, 9, 53, 0
4, 44880, Note_on_c, 9, 51, 0
4, 44892, Note_on_c, 9, 64, 0
4, 44940, Note_on_c, 9, 51, 58
4, 44940, Note_on_c, 9, 53, 58
4, 44971, Note_on_c, 9, 64, 45
4, 44980, Note_on_c, 9, 64, 0
4, 44997, Note_on_c, 9, 64, 40
4, 45000, Note_on_c, 9, 53, 0
4, 45000, Note_on_c, 9, 51, 0
4, 45009, Note_on_c, 9, 64, 0
4, 45054, Note_on_c, 9, 41, 61
4, 45060, Note_on_c, 9, 51, 54
4, 45060, Note_on_c, 9, 53, 54
4, 45068, Note_on_c, 9, 41, 0
4, 45116, Note_on_c, 9, 64, 67
4, 45120, Note_on_c, 9, 53, 0
4, 45120, Note_on_c, 9, 51, 0
4, 45125, Note_on_c, 9, 64, 0
4, 45180, Note_on_c, 9, 51, 49
4, 45180, Note_on_c, 9, 53, 49
4, 45210, Note_on_c, 9, 64, 53
4, 45219, Note_on_c, 9, 64, 0
4, 45240, Note_on_c, 9, 53, 0
4, 45240, Note_on_c, 9, 51, 0
4, 45240, Note_on_c, 9, 64, 34
4, 45249, Note_on_c, 9, 64, 0
4, 45300, Note_on_c, 9, 51, 51
4, 45300, Note_on_c, 9, 53, 51
4, 45333, Note_on_c, 9, 64, 56
4, 45341, Note_on_c, 9, 64, 0
4, 45360, Note_on_c, 9, 53, 0
4, 45360, Note_on_c, 9, 51, 0
4, 45360, Note_on_c, 9, 64, 45
4, 45368, Note_on_c, 9, 64, 0
4, 45420, Note_on_c, 9, 51, 58
4, 45420, Note_on_c, 9, 53, 58
4, 45453, Note_on_c, 9, 64, 48
4, 45461, Note_on_c, 9, 64, 0
4, 45479, Note_on_c, 9, 64, 47
4, 45480, Note_on_c, 9, 53, 0
4, 45480, Note_on_c, 9, 51, 0
4, 45500, Note_on_c, 9, 64, 0
4, 45535, Note_on_c, 9, 41, 62
4, 45540, Note_on_c, 9, 51, 71
4, 45540, Note_on_c, 9, 53, 71
4, 45547, Note_on_c, 9, 41, 0
4, 45599, Note_on_c, 9, 64, 70
4, 45600, Note_on_c, 9, 53, 0
4, 45600, Note_on_c, 9, 51, 0
4, 45610, Note_on_c, 9, 64, 0
4, 45660, Note_on_c, 9, 51, 54
4, 45660, Note_on_c, 9, 53, 54
4, 45693, Note_on_c, 9, 64, 57
4, 45700, Note_on_c, 9, 64, 0
4, 45720, Note_on_c, 9, 53, 0
4, 45720, Note_on_c, 9, 51, 0
4, 45723, Note_on_c, 9, 64, 34
4, 45734, Note_on_c, 9, 64, 0
4, 45780, Note_on_c, 9, 51, 62
4, 45780, Note_on_c, 9, 53, 62
4, 45808, Note_on_c, 9, 64, 68
4, 45820, Note_on_c, 9, 64, 0
4, 45837, Note_on_c, 9, 64, 64
4, 45840, Note_on_c, 9, 53, 0
4, 45840, Note_on_c, 9, 51, 0
4, 45851, Note_on_c, 9, 64, 0
4, 45900, Note_on_c, 9, 51, 62
4, 45900, Note_on_c, 9, 53, 62
4, 45934, Note_on_c, 9, 64, 59
4, 45942, Note_on_c, 9, 64, 0
4, 45959, Note_on_c, 9, 64, 65
4, 45960, Note_on_c, 9, 53, 0
4, 45960, Note_on_c, 9, 51, 0
4, 45979, Note_on_c, 9, 64, 0
4, 46020, Note_on_c, 9, 51, 80
4, 46020, Note_on_c, 9, 53, 80
4, 46080, Note_on_c, 9, 53, 0
4, 46080, Note_on_c, 9, 51, 0
4, 46140, Note_on_c, 9, 51, 93
4, 46140, Note_on_c, 9, 53, 93
4, 46200, Note_on_c, 9, 53, 0
4, 46200, Note_on_c, 9, 51, 0
4, 46260, Note_on_c, 9, 51, 77
4, 46260, Note_on_c, 9, 53, 77
4, 46320, Note_on_c, 9, 53, 0
4, 46320, Note_on_c, 9, 51, 0
4, 46380, Note_on_c, 9, 51, 74
4, 46380, Note_on_c, 9, 53, 74
4, 46440, Note_on_c, 9, 53, 0
4, 46440, Note_on_c, 9, 51, 0
4, 46500, Note_on_c, 9, 51, 65
4, 46500, Note_on_c, 9, 53, 65
4, 46560, Note_on_c, 9, 53, 0
4, 46560, Note_on_c, 9, 51, 0
4, 46620, Note_on_c, 9, 51, 57
4, 46620, Note_on_c, 9, 53, 57
4, 46680, Note_on_c, 9, 53, 0
4, 46680, Note_on_c, 9, 51, 0
4, 46740, Note_on_c, 9, 51, 60
4, 46740, Note_on_c, 9, 53, 60
4, 46800, Note_on_c, 9, 53, 0
4, 46800, Note_on_c, 9, 51, 0
4, 46860, Note_on_c, 9, 51, 52
4, 46860, Note_on_c, 9, 53, 52
4, 46920, Note_on_c, 9, 53, 0
4, 46920, Note_on_c, 9, 51, 0
4, 46980, Note_on_c, 9, 51, 54
4, 46980, Note_on_c, 9, 53, 54
4, 47040, Note_on_c, 9, 53, 0
4, 47040, Note_on_c, 9, 51, 0
4, 47100, Note_on_c, 9, 51, 65
4, 47100, Note_on_c, 9, 53, 65
4, 47160, Note_on_c, 9, 53, 0
4, 47160, Note_on_c, 9, 51, 0
4, 47220, Note_on_c, 9, 51, 54
4, 47220, Note_on_c, 9, 53, 54
4, 47280, Note_on_c, 9, 53, 0
4, 47280, Note_on_c, 9, 51, 0
4, 47340, Note_on_c, 9, 51, 60
4, 47340, Note_on_c, 9, 53, 60
4, 47400, Note_on_c, 9, 53, 0
4, 47400, Note_on_c, 9, 51, 0
4, 47460, Note_on_c, 9, 51, 60
4, 47460, Note_on_c, 9, 53, 60
4, 47520, Note_on_c, 9, 53, 0
4, 47520, Note_on_c, 9, 51, 0
4, 47580, Note_on_c, 9, 51, 60
4, 47580, Note_on_c, 9, 53, 60
4, 47640, Note_on_c, 9, 53, 0
4, 47640, Note_on_c, 9, 51, 0
4, 47700, Note_on_c, 9, 51, 69
4, 47700, Note_on_c, 9, 53, 69
4, 47760, Note_on_c, 9, 53, 0
4, 47760, Note_on_c, 9, 51, 0
4, 47820, Note_on_c, 9, 51, 58
4, 47820, Note_on_c, 9, 53, 58
4, 47880, Note_on_c, 9, 53, 0
4, 47880, Note_on_c, 9, 51, 0
4, 47940, Note_on_c, 9, 51, 57
4, 47940, Note_on_c, 9, 53, 57
4, 48000, Note_on_c, 9, 53, 0
4, 48000, Note_on_c, 9, 51, 0
4, 48060, Note_on_c, 9, 51, 62
4, 48060, Note_on_c, 9, 53, 62
4, 48120, Note_on_c, 9, 53, 0
4, 48120, Note_on_c, 9, 51, 0
4, 48180, Note_on_c, 9, 51, 60
4, 48180, Note_on_c, 9, 53, 60
4, 48240, Note_on_c, 9, 53, 0
4, 48240, Note_on_c, 9, 51, 0
4, 48300, Note_on_c, 9, 51, 68
4, 48300, Note_on_c, 9, 53, 68
4, 48360, Note_on_c, 9, 53, 0
4, 48360, Note_on_c, 9, 51, 0
4, 48420, Note_on_c, 9, 51, 65
4, 48420, Note_on_c, 9, 53, 65
4, 48480, Note_on_c, 9, 53, 0
4, 48480, Note_on_c, 9, 51, 0
4, 48540, Note_on_c, 9, 51, 65
4, 48540, Note_on_c, 9, 53, 65
4, 48600, Note_on_c, 9, 53, 0
4, 48600, Note_on_c, 9, 51, 0
4, 48660, Note_on_c, 9, 51, 65
4, 48660, Note_on_c, 9, 53, 65
4, 48720, Note_on_c, 9, 53, 0
4, 48720, Note_on_c, 9, 51, 0
4, 48780, Note_on_c, 9, 51, 57
4, 48780, Note_on_c, 9, 53, 57
4, 48840, Note_on_c, 9, 53, 0
4, 48840, Note_on_c, 9, 51, 0
4, 48900, Note_on_c, 9, 51, 58
4, 48900, Note_on_c, 9, 53, 58
4, 48960, Note_on_c, 9, 53, 0
4, 48960, Note_on_c, 9, 51, 0
4, 49020, Note_on_c, 9, 51, 55
4, 49020, Note_on_c, 9, 53, 55
4, 49080, Note_on_c, 9, 53, 0
4, 49080, Note_on_c, 9, 51, 0
4, 49140, Note_on_c, 9, 51, 57
4, 49140, Note_on_c, 9, 53, 57
4, 49200, Note_on_c, 9, 53, 0
4, 49200, Note_on_c, 9, 51, 0
4, 49260, Note_on_c, 9, 51, 49
4, 49260, Note_on_c, 9, 53, 49
4, 49320, Note_on_c, 9, 53, 0
4, 49320, Note_on_c, 9, 51, 0
4, 49380, Note_on_c, 9, 51, 72
4, 49380, Note_on_c, 9, 53, 72
4, 49440, Note_on_c, 9, 53, 0
4, 49440, Note_on_c, 9, 51, 0
4, 49500, Note_on_c, 9, 51, 54
4, 49500, Note_on_c, 9, 53, 54
4, 49560, Note_on_c, 9, 53, 0
4, 49560, Note_on_c, 9, 51, 0
4, 49620, Note_on_c, 9, 51, 66
4, 49620, Note_on_c, 9, 53, 66
4, 49680, Note_on_c, 9, 53, 0
4, 49680, Note_on_c, 9, 51, 0
4, 49740, Note_on_c, 9, 51, 66
4, 49740, Note_on_c, 9, 53, 66
4, 49800, Note_on_c, 9, 53, 0
4, 49800, Note_on_c, 9, 51, 0
4, 49860, Note_on_c, 9, 59, 57
4, 49920, Note_on_c, 9, 59, 0
4, 49920, Note_on_c, 9, 64, 63
4, 49938, Note_on_c, 9, 64, 0
4, 49980, Note_on_c, 9, 44, 52
4, 49981, Note_on_c, 9, 81, 52
4, 50026, Note_on_c, 9, 64, 36
4, 50035, Note_on_c, 9, 64, 0
4, 50040, Note_on_c, 9, 44, 0
4, 50041, Note_on_c, 9, 81, 0
4, 50049, Note_on_c, 9, 64, 65
4, 50074, Note_on_c, 9, 64, 0
4, 50100, Note_on_c, 9, 44, 54
4, 50101, Note_on_c, 9, 81, 54
4, 50138, Note_on_c, 9, 64, 46
4, 50146, Note_on_c, 9, 64, 0
4, 50160, Note_on_c, 9, 44, 0
4, 50161, Note_on_c, 9, 81, 0
4, 50164, Note_on_c, 9, 64, 57
4, 50180, Note_on_c, 9, 64, 0
4, 50220, Note_on_c, 9, 44, 55
4, 50221, Note_on_c, 9, 81, 55
4, 50254, Note_on_c, 9, 64, 53
4, 50262, Note_on_c, 9, 64, 0
4, 50280, Note_on_c, 9, 44, 0
4, 50280, Note_on_c, 9, 64, 47
4, 50281, Note_on_c, 9, 81, 0
4, 50307, Note_on_c, 9, 64, 0
4, 50338, Note_on_c, 9, 41, 43
4, 50340, Note_on_c, 9, 44, 57
4, 50341, Note_on_c, 9, 81, 57
4, 50348, Note_on_c, 9, 41, 0
4, 50400, Note_on_c, 9, 44, 0
4, 50401, Note_on_c, 9, 81, 0
4, 50407, Note_on_c, 9, 64, 48
4, 50428, Note_on_c, 9, 64, 0
4, 50460, Note_on_c, 9, 44, 55
4, 50461, Note_on_c, 9, 81, 55
4, 50503, Note_on_c, 9, 64, 47
4, 50511, Note_on_c, 9, 64, 0
4, 50520, Note_on_c, 9, 44, 0
4, 50521, Note_on_c, 9, 81, 0
4, 50526, Note_on_c, 9, 64, 55
4, 50547, Note_on_c, 9, 64, 0
4, 50580, Note_on_c, 9, 44, 58
4, 50581, Note_on_c, 9, 81, 58
4, 50622, Note_on_c, 9, 64, 48
4, 50630, Note_on_c, 9, 64, 0
4, 50640, Note_on_c, 9, 44, 0
4, 50641, Note_on_c, 9, 81, 0
4, 50644, Note_on_c, 9, 64, 55
4, 50665, Note_on_c, 9, 64, 0
4, 50700, Note_on_c, 9, 44, 58
4, 50701, Note_on_c, 9, 81, 58
4, 50733, Note_on_c, 9, 64, 52
4, 50741, Note_on_c, 9, 64, 0
4, 50760, Note_on_c, 9, 44, 0
4, 50760, Note_on_c, 9, 64, 50
4, 50761, Note_on_c, 9, 81, 0
4, 50793, Note_on_c, 9, 64, 0
4, 50820, Note_on_c, 9, 41, 51
4, 50820, Note_on_c, 9, 44, 51
4, 50821, Note_on_c, 9, 81, 51
4, 50832, Note_on_c, 9, 41, 0
4, 50880, Note_on_c, 9, 44, 0
4, 50881, Note_on_c, 9, 81, 0
4, 50884, Note_on_c, 9, 64, 58
4, 50899, Note_on_c, 9, 64, 0
4, 50940, Note_on_c, 9, 44, 49
4, 50941, Note_on_c, 9, 81, 49
4, 50980, Note_on_c, 9, 64, 38
4, 50989, Note_on_c, 9, 64, 0
4, 51000, Note_on_c, 9, 44, 0
4, 51001, Note_on_c, 9, 81, 0
4, 51006, Note_on_c, 9, 64, 53
4, 51025, Note_on_c, 9, 64, 0
4, 51060, Note_on_c, 9, 44, 57
4, 51061, Note_on_c, 9, 81, 57
4, 51099, Note_on_c, 9, 64, 39
4, 51107, Note_on_c, 9, 64, 0
4, 51120, Note_on_c, 9, 44, 0
4, 51121, Note_on_c, 9, 81, 0
4, 51125, Note_on_c, 9, 64, 46
4, 51144, Note_on_c, 9, 64, 0
4, 51180, Note_on_c, 9, 44, 58
4, 51181, Note_on_c, 9, 81, 58
4, 51211, Note_on_c, 9, 64, 48
4, 51220, Note_on_c, 9, 64, 0
4, 51239, Note_on_c, 9, 64, 47
4, 51240, Note_on_c, 9, 44, 0
4, 51241, Note_on_c, 9, 81, 0
4, 51258, Note_on_c, 9, 64, 0
4, 51300, Note_on_c, 9, 44, 74
4, 51301, Note_on_c, 9, 81, 74
4, 51360, Note_on_c, 9, 44, 0
4, 51361, Note_on_c, 9, 81, 0
4, 51420, Note_on_c, 9, 44, 51
4, 51421, Note_on_c, 9, 81, 51
4, 51459, Note_on_c, 9, 64, 36
4, 51468, Note_on_c, 9, 64, 0
4, 51480, Note_on_c, 9, 44, 0
4, 51481, Note_on_c, 9, 81, 0
4, 51484, Note_on_c, 9, 64, 54
4, 51505, Note_on_c, 9, 64, 0
4, 51540, Note_on_c, 9, 44, 54
4, 51541, Note_on_c, 9, 81, 54
4, 51576, Note_on_c, 9, 64, 40
4, 51585, Note_on_c, 9, 64, 0
4, 51598, Note_on_c, 9, 64, 39
4, 51600, Note_on_c, 9, 44, 0
4, 51601, Note_on_c, 9, 81, 0
4, 51616, Note_on_c, 9, 64, 0
4, 51660, Note_on_c, 9, 44, 49
4, 51661, Note_on_c, 9, 81, 49
4, 51689, Note_on_c, 9, 64, 55
4, 51697, Note_on_c, 9, 64, 0
4, 51717, Note_on_c, 9, 64, 41
4, 51720, Note_on_c, 9, 44, 0
4, 51721, Note_on_c, 9, 81, 0
4, 51745, Note_on_c, 9, 64, 0
4, 51778, Note_on_c, 9, 41, 60
4, 51780, Note_on_c, 9, 44, 72
4, 51781, Note_on_c, 9, 81, 72
4, 51795, Note_on_c, 9, 41, 0
4, 51840, Note_on_c, 9, 44, 0
4, 51841, Note_on_c, 9, 81, 0
4, 51841, Note_on_c, 9, 64, 62
4, 51853, Note_on_c, 9, 64, 0
4, 51900, Note_on_c, 9, 44, 35
4, 51901, Note_on_c, 9, 81, 35
4, 51936, Note_on_c, 9, 64, 41
4, 51944, Note_on_c, 9, 64, 0
4, 51960, Note_on_c, 9, 44, 0
4, 51961, Note_on_c, 9, 81, 0
4, 51961, Note_on_c, 9, 64, 51
4, 51983, Note_on_c, 9, 64, 0
4, 52020, Note_on_c, 9, 44, 44
4, 52021, Note_on_c, 9, 81, 44
4, 52063, Note_on_c, 9, 64, 24
4, 52070, Note_on_c, 9, 64, 0
4, 52080, Note_on_c, 9, 44, 0
4, 52081, Note_on_c, 9, 81, 0
4, 52084, Note_on_c, 9, 64, 41
4, 52093, Note_on_c, 9, 64, 0
4, 52140, Note_on_c, 9, 44, 65
4, 52141, Note_on_c, 9, 81, 65
4, 52171, Note_on_c, 9, 64, 55
4, 52179, Note_on_c, 9, 64, 0
4, 52198, Note_on_c, 9, 64, 48
4, 52200, Note_on_c, 9, 44, 0
4, 52201, Note_on_c, 9, 81, 0
4, 52229, Note_on_c, 9, 64, 0
4, 52257, Note_on_c, 9, 41, 58
4, 52260, Note_on_c, 9, 53, 77
4, 52261, Note_on_c, 9, 81, 77
4, 52275, Note_on_c, 9, 41, 0
4, 52320, Note_on_c, 9, 53, 0
4, 52320, Note_on_c, 9, 64, 58
4, 52321, Note_on_c, 9, 81, 0
4, 52338, Note_on_c, 9, 64, 0
4, 52380, Note_on_c, 9, 44, 58
4, 52381, Note_on_c, 9, 81, 58
4, 52419, Note_on_c, 9, 64, 43
4, 52427, Note_on_c, 9, 64, 0
4, 52440, Note_on_c, 9, 44, 0
4, 52441, Note_on_c, 9, 81, 0
4, 52442, Note_on_c, 9, 64, 58
4, 52461, Note_on_c, 9, 64, 0
4, 52500, Note_on_c, 9, 44, 51
4, 52501, Note_on_c, 9, 81, 51
4, 52534, Note_on_c, 9, 64, 36
4, 52543, Note_on_c, 9, 64, 0
4, 52560, Note_on_c, 9, 44, 0
4, 52561, Note_on_c, 9, 81, 0
4, 52562, Note_on_c, 9, 64, 44
4, 52574, Note_on_c, 9, 64, 0
4, 52620, Note_on_c, 9, 44, 58
4, 52621, Note_on_c, 9, 81, 58
4, 52649, Note_on_c, 9, 64, 44
4, 52658, Note_on_c, 9, 64, 0
4, 52680, Note_on_c, 9, 44, 0
4, 52681, Note_on_c, 9, 81, 0
4, 52681, Note_on_c, 9, 64, 33
4, 52706, Note_on_c, 9, 64, 0
4, 52737, Note_on_c, 9, 41, 52
4, 52740, Note_on_c, 9, 44, 54
4, 52741, Note_on_c, 9, 81, 54
4, 52748, Note_on_c, 9, 41, 0
4, 52800, Note_on_c, 9, 44, 0
4, 52800, Note_on_c, 9, 64, 54
4, 52801, Note_on_c, 9, 81, 0
4, 52814, Note_on_c, 9, 64, 0
4, 52860, Note_on_c, 9, 44, 49
4, 52861, Note_on_c, 9, 81, 49
4, 52896, Note_on_c, 9, 64, 33
4, 52905, Note_on_c, 9, 64, 0
4, 52920, Note_on_c, 9, 44, 0
4, 52921, Note_on_c, 9, 81, 0
4, 52923, Note_on_c, 9, 64, 45
4, 52942, Note_on_c, 9, 64, 0
4, 52980, Note_on_c, 9, 44, 51
4, 52981, Note_on_c, 9, 81, 51
4, 53013, Note_on_c, 9, 64, 42
4, 53023, Note_on_c, 9, 64, 0
4, 53040, Note_on_c, 9, 44, 0
4, 53041, Note_on_c, 9, 81, 0
4, 53043, Note_on_c, 9, 64, 40
4, 53053, Note_on_c, 9, 64, 0
4, 53100, Note_on_c, 9, 44, 58
4, 53101, Note_on_c, 9, 81, 58
4, 53129, Note_on_c, 9, 64, 51
4, 53138, Note_on_c, 9, 64, 0
4, 53158, Note_on_c, 9, 64, 47
4, 53160, Note_on_c, 9, 44, 0
4, 53161, Note_on_c, 9, 81, 0
4, 53181, Note_on_c, 9, 64, 0
4, 53216, Note_on_c, 9, 41, 53
4, 53220, Note_on_c, 9, 44, 71
4, 53221, Note_on_c, 9, 81, 71
4, 53230, Note_on_c, 9, 41, 0
4, 53277, Note_on_c, 9, 64, 57
4, 53280, Note_on_c, 9, 44, 0
4, 53281, Note_on_c, 9, 81, 0
4, 53287, Note_on_c, 9, 64, 0
4, 53340, Note_on_c, 9, 44, 54
4, 53341, Note_on_c, 9, 81, 54
4, 53379, Note_on_c, 9, 64, 56
4, 53394, Note_on_c, 9, 64, 0
4, 53400, Note_on_c, 9, 44, 0
4, 53401, Note_on_c, 9, 81, 0
4, 53407, Note_on_c, 9, 64, 49
4, 53414, Note_on_c, 9, 64, 0
4, 53460, Note_on_c, 9, 44, 62
4, 53461, Note_on_c, 9, 81, 62
4, 53496, Note_on_c, 9, 64, 42
4, 53504, Note_on_c, 9, 64, 0
4, 53520, Note_on_c, 9, 44, 0
4, 53521, Note_on_c, 9, 81, 0
4, 53522, Note_on_c, 9, 64, 51
4, 53538, Note_on_c, 9, 64, 0
4, 53580, Note_on_c, 9, 44, 62
4, 53581, Note_on_c, 9, 81, 62
4, 53613, Note_on_c, 9, 64, 54
4, 53621, Note_on_c, 9, 64, 0
4, 53640, Note_on_c, 9, 44, 0
4, 53641, Note_on_c, 9, 81, 0
4, 53643, Note_on_c, 9, 64, 44
4, 53661, Note_on_c, 9, 64, 0
4, 53699, Note_on_c, 9, 41, 49
4, 53700, Note_on_c, 9, 44, 80
4, 53701, Note_on_c, 9, 81, 80
4, 53708, Note_on_c, 9, 41, 0
4, 53760, Note_on_c, 9, 44, 0
4, 53761, Note_on_c, 9, 81, 0
4, 53764, Note_on_c, 9, 64, 64
4, 53772, Note_on_c, 9, 64, 0
4, 53820, Note_on_c, 9, 44, 93
4, 53821, Note_on_c, 9, 81, 93
4, 53852, Note_on_c, 9, 64, 48
4, 53860, Note_on_c, 9, 64, 0
4, 53876, Note_on_c, 9, 64, 45
4, 53880, Note_on_c, 9, 44, 0
4, 53881, Note_on_c, 9, 81, 0
4, 53894, Note_on_c, 9, 64, 0
4, 53940, Note_on_c, 9, 44, 77
4, 53941, Note_on_c, 9, 81, 77
4, 53967, Note_on_c, 9, 64, 51
4, 53975, Note_on_c, 9, 64, 0
4, 53995, Note_on_c, 9, 64, 40
4, 54000, Note_on_c, 9, 44, 0
4, 54001, Note_on_c, 9, 81, 0
4, 54013, Note_on_c, 9, 64, 0
4, 54060, Note_on_c, 9, 44, 74
4, 54061, Note_on_c, 9, 81, 74
4, 54091, Note_on_c, 9, 64, 48
4, 54099, Note_on_c, 9, 64, 0
4, 54117, Note_on_c, 9, 64, 36
4, 54120, Note_on_c, 9, 44, 0
4, 54121, Note_on_c, 9, 81, 0
4, 54139, Note_on_c, 9, 64, 0
4, 54177, Note_on_c, 9, 41, 41
4, 54180, Note_on_c, 9, 44, 65
4, 54181, Note_on_c, 9, 81, 65
4, 54190, Note_on_c, 9, 41, 0
4, 54240, Note_on_c, 9, 44, 0
4, 54241, Note_on_c, 9, 81, 0
4, 54245, Note_on_c, 9, 64, 65
4, 54252, Note_on_c, 9, 64, 0
4, 54300, Note_on_c, 9, 44, 57
4, 54301, Note_on_c, 9, 81, 57
4, 54338, Note_on_c, 9, 64, 40
4, 54347, Note_on_c, 9, 64, 0
4, 54360, Note_on_c, 9, 44, 0
4, 54361, Note_on_c, 9, 81, 0
4, 54362, Note_on_c, 9, 64, 49
4, 54380, Note_on_c, 9, 64, 0
4, 54420, Note_on_c, 9, 44, 60
4, 54421, Note_on_c, 9, 81, 60
4, 54457, Note_on_c, 9, 64, 44
4, 54466, Note_on_c, 9, 64, 0
4, 54480, Note_on_c, 9, 44, 0
4, 54481, Note_on_c, 9, 81, 0
4, 54483, Note_on_c, 9, 64, 49
4, 54492, Note_on_c, 9, 64, 0
4, 54540, Note_on_c, 9, 44, 52
4, 54541, Note_on_c, 9, 81, 52
4, 54575, Note_on_c, 9, 64, 40
4, 54583, Note_on_c, 9, 64, 0
4, 54599, Note_on_c, 9, 64, 45
4, 54600, Note_on_c, 9, 44, 0
4, 54601, Note_on_c, 9, 81, 0
4, 54621, Note_on_c, 9, 64, 0
4, 54659, Note_on_c, 9, 41, 57
4, 54660, Note_on_c, 9, 44, 54
4, 54661, Note_on_c, 9, 81, 54
4, 54670, Note_on_c, 9, 41, 0
4, 54720, Note_on_c, 9, 44, 0
4, 54721, Note_on_c, 9, 81, 0
4, 54721, Note_on_c, 9, 64, 58
4, 54729, Note_on_c, 9, 64, 0
4, 54780, Note_on_c, 9, 44, 65
4, 54781, Note_on_c, 9, 81, 65
4, 54817, Note_on_c, 9, 64, 41
4, 54826, Note_on_c, 9, 64, 0
4, 54840, Note_on_c, 9, 44, 0
4, 54841, Note_on_c, 9, 81, 0
4, 54842, Note_on_c, 9, 64, 54
4, 54858, Note_on_c, 9, 64, 0
4, 54900, Note_on_c, 9, 44, 54
4, 54901, Note_on_c, 9, 81, 54
4, 54936, Note_on_c, 9, 64, 44
4, 54945, Note_on_c, 9, 64, 0
4, 54960, Note_on_c, 9, 44, 0
4, 54961, Note_on_c, 9, 81, 0
4, 54961, Note_on_c, 9, 64, 49
4, 54978, Note_on_c, 9, 64, 0
4, 55020, Note_on_c, 9, 44, 60
4, 55021, Note_on_c, 9, 81, 60
4, 55054, Note_on_c, 9, 64, 46
4, 55062, Note_on_c, 9, 64, 0
4, 55080, Note_on_c, 9, 44, 0
4, 55081, Note_on_c, 9, 81, 0
4, 55086, Note_on_c, 9, 64, 44
4, 55106, Note_on_c, 9, 64, 0
4, 55136, Note_on_c, 9, 41, 59
4, 55140, Note_on_c, 9, 44, 60
4, 55141, Note_on_c, 9, 81, 60
4, 55151, Note_on_c, 9, 41, 0
4, 55200, Note_on_c, 9, 44, 0
4, 55200, Note_on_c, 9, 64, 67
4, 55201, Note_on_c, 9, 81, 0
4, 55214, Note_on_c, 9, 64, 0
4, 55260, Note_on_c, 9, 44, 60
4, 55261, Note_on_c, 9, 81, 60
4, 55291, Note_on_c, 9, 64, 38
4, 55300, Note_on_c, 9, 64, 0
4, 55320, Note_on_c, 9, 44, 0
4, 55320, Note_on_c, 9, 64, 48
4, 55321, Note_on_c, 9, 81, 0
4, 55334, Note_on_c, 9, 64, 0
4, 55380, Note_on_c, 9, 44, 69
4, 55381, Note_on_c, 9, 81, 69
4, 55412, Note_on_c, 9, 64, 45
4, 55421, Note_on_c, 9, 64, 0
4, 55436, Note_on_c, 9, 64, 49
4, 55440, Note_on_c, 9, 44, 0
4, 55441, Note_on_c, 9, 81, 0
4, 55450, Note_on_c, 9, 64, 0
4, 55500, Note_on_c, 9, 44, 58
4, 55501, Note_on_c, 9, 81, 58
4, 55525, Note_on_c, 9, 64, 50
4, 55533, Note_on_c, 9, 64, 0
4, 55555, Note_on_c, 9, 64, 47
4, 55560, Note_on_c, 9, 44, 0
4, 55561, Note_on_c, 9, 81, 0
4, 55579, Note_on_c, 9, 64, 0
4, 55619, Note_on_c, 9, 41, 50
4, 55620, Note_on_c, 9, 44, 57
4, 55621, Note_on_c, 9, 81, 57
4, 55633, Note_on_c, 9, 41, 0
4, 55680, Note_on_c, 9, 44, 0
4, 55681, Note_on_c, 9, 81, 0
4, 55683, Note_on_c, 9, 64, 64
4, 55691, Note_on_c, 9, 64, 0
4, 55740, Note_on_c, 9, 44, 62
4, 55741, Note_on_c, 9, 81, 62
4, 55781, Note_on_c, 9, 64, 48
4, 55789, Note_on_c, 9, 64, 0
4, 55800, Note_on_c, 9, 44, 0
4, 55801, Note_on_c, 9, 81, 0
4, 55808, Note_on_c, 9, 64, 45
4, 55827, Note_on_c, 9, 64, 0
4, 55860, Note_on_c, 9, 44, 60
4, 55861, Note_on_c, 9, 81, 60
4, 55908, Note_on_c, 9, 64, 42
4, 55917, Note_on_c, 9, 64, 0
4, 55920, Note_on_c, 9, 44, 0
4, 55921, Note_on_c, 9, 81, 0
4, 55931, Note_on_c, 9, 64, 54
4, 55939, Note_on_c, 9, 64, 0
4, 55980, Note_on_c, 9, 44, 68
4, 55981, Note_on_c, 9, 81, 68
4, 56020, Note_on_c, 9, 64, 47
4, 56029, Note_on_c, 9, 64, 0
4, 56040, Note_on_c, 9, 44, 0
4, 56041, Note_on_c, 9, 81, 0
4, 56043, Note_on_c, 9, 64, 62
4, 56062, Note_on_c, 9, 64, 0
4, 56099, Note_on_c, 9, 41, 64
4, 56100, Note_on_c, 9, 44, 65
4, 56101, Note_on_c, 9, 81, 65
4, 56116, Note_on_c, 9, 41, 0
4, 56160, Note_on_c, 9, 44, 0
4, 56161, Note_on_c, 9, 81, 0
4, 56162, Note_on_c, 9, 64, 61
4, 56169, Note_on_c, 9, 64, 0
4, 56220, Note_on_c, 9, 44, 65
4, 56221, Note_on_c, 9, 81, 65
4, 56261, Note_on_c, 9, 64, 33
4, 56270, Note_on_c, 9, 64, 0
4, 56280, Note_on_c, 9, 44, 0
4, 56281, Note_on_c, 9, 81, 0
4, 56285, Note_on_c, 9, 64, 64
4, 56291, Note_on_c, 9, 64, 0
4, 56340, Note_on_c, 9, 44, 65
4, 56341, Note_on_c, 9, 81, 65
4, 56372, Note_on_c, 9, 64, 53
4, 56380, Note_on_c, 9, 64, 0
4, 56398, Note_on_c, 9, 64, 49
4, 56400, Note_on_c, 9, 44, 0
4, 56401, Note_on_c, 9, 81, 0
4, 56418, Note_on_c, 9, 64, 0
4, 56460, Note_on_c, 9, 44, 57
4, 56461, Note_on_c, 9, 81, 57
4, 56498, Note_on_c, 9, 64, 62
4, 56505, Note_on_c, 9, 64, 0
4, 56520, Note_on_c, 9, 44, 0
4, 56521, Note_on_c, 9, 81, 0
4, 56524, Note_on_c, 9, 64, 57
4, 56542, Note_on_c, 9, 64, 0
4, 56577, Note_on_c, 9, 41, 70
4, 56580, Note_on_c, 9, 44, 58
4, 56581, Note_on_c, 9, 81, 58
4, 56592, Note_on_c, 9, 41, 0
4, 56640, Note_on_c, 9, 44, 0
4, 56641, Note_on_c, 9, 81, 0
4, 56641, Note_on_c, 9, 64, 66
4, 56651, Note_on_c, 9, 64, 0
4, 56700, Note_on_c, 9, 44, 55
4, 56701, Note_on_c, 9, 81, 55
4, 56734, Note_on_c, 9, 64, 34
4, 56743, Note_on_c, 9, 64, 0
4, 56758, Note_on_c, 9, 64, 52
4, 56760, Note_on_c, 9, 44, 0
4, 56761, Note_on_c, 9, 81, 0
4, 56777, Note_on_c, 9, 64, 0
4, 56820, Note_on_c, 9, 44, 57
4, 56821, Note_on_c, 9, 81, 57
4, 56854, Note_on_c, 9, 64, 36
4, 56863, Note_on_c, 9, 64, 0
4, 56878, Note_on_c, 9, 64, 54
4, 56880, Note_on_c, 9, 44, 0
4, 56881, Note_on_c, 9, 81, 0
4, 56888, Note_on_c, 9, 64, 0
4, 56940, Note_on_c, 9, 44, 49
4, 56941, Note_on_c, 9, 81, 49
4, 56970, Note_on_c, 9, 64, 55
4, 56977, Note_on_c, 9, 64, 0
4, 57000, Note_on_c, 9, 44, 0
4, 57000, Note_on_c, 9, 64, 35
4, 57001, Note_on_c, 9, 81, 0
4, 57016, Note_on_c, 9, 64, 0
4, 57056, Note_on_c, 9, 41, 60
4, 57060, Note_on_c, 9, 44, 72
4, 57061, Note_on_c, 9, 81, 72
4, 57070, Note_on_c, 9, 41, 0
4, 57116, Note_on_c, 9, 64, 66
4, 57120, Note_on_c, 9, 44, 0
4, 57121, Note_on_c, 9, 81, 0
4, 57130, Note_on_c, 9, 64, 0
4, 57180, Note_on_c, 9, 44, 54
4, 57181, Note_on_c, 9, 81, 54
4, 57207, Note_on_c, 9, 64, 36
4, 57217, Note_on_c, 9, 64, 0
4, 57234, Note_on_c, 9, 64, 50
4, 57240, Note_on_c, 9, 44, 0
4, 57241, Note_on_c, 9, 81, 0
4, 57244, Note_on_c, 9, 64, 0
4, 57300, Note_on_c, 9, 44, 66
4, 57301, Note_on_c, 9, 81, 66
4, 57355, Note_on_c, 9, 64, 55
4, 57360, Note_on_c, 9, 44, 0
4, 57361, Note_on_c, 9, 81, 0
4, 57371, Note_on_c, 9, 64, 0
4, 57420, Note_on_c, 9, 44, 66
4, 57421, Note_on_c, 9, 81, 66
4, 57453, Note_on_c, 9, 64, 56
4, 57461, Note_on_c, 9, 64, 0
4, 57480, Note_on_c, 9, 44, 0
4, 57480, Note_on_c, 9, 64, 51
4, 57481, Note_on_c, 9, 81, 0
4, 57504, Note_on_c, 9, 64, 0
4, 57537, Note_on_c, 9, 41, 68
4, 57540, Note_on_c, 9, 53, 57
4, 57541, Note_on_c, 9, 81, 57
4, 57553, Note_on_c, 9, 41, 0
4, 57600, Note_on_c, 9, 53, 0
4, 57600, Note_on_c, 9, 64, 67
4, 57601, Note_on_c, 9, 81, 0
4, 57614, Note_on_c, 9, 64, 0
4, 57660, Note_on_c, 9, 44, 52
4, 57661, Note_on_c, 9, 81, 52
4, 57720, Note_on_c, 9, 44, 0
4, 57721, Note_on_c, 9, 81, 0
4, 57723, Note_on_c, 9, 64, 58
4, 57743, Note_on_c, 9, 64, 0
4, 57780, Note_on_c, 9, 44, 54
4, 57781, Note_on_c, 9, 81, 54
4, 57819, Note_on_c, 9, 64, 66
4, 57827, Note_on_c, 9, 64, 0
4, 57840, Note_on_c, 9, 44, 0
4, 57841, Note_on_c, 9, 81, 0
4, 57846, Note_on_c, 9, 64, 56
4, 57859, Note_on_c, 9, 64, 0
4, 57900, Note_on_c, 9, 44, 55
4, 57901, Note_on_c, 9, 81, 55
4, 57934, Note_on_c, 9, 64, 64
4, 57943, Note_on_c, 9, 64, 0
4, 57960, Note_on_c, 9, 44, 0
4, 57961, Note_on_c, 9, 81, 0
4, 57961, Note_on_c, 9, 64, 61
4, 57986, Note_on_c, 9, 64, 0
4, 58019, Note_on_c, 9, 41, 64
4, 58020, Note_on_c, 9, 44, 57
4, 58021, Note_on_c, 9, 81, 57
4, 58036, Note_on_c, 9, 41, 0
4, 58080, Note_on_c, 9, 44, 0
4, 58081, Note_on_c, 9, 81, 0
4, 58082, Note_on_c, 9, 64, 71
4, 58098, Note_on_c, 9, 64, 0
4, 58140, Note_on_c, 9, 44, 55
4, 58141, Note_on_c, 9, 81, 55
4, 58173, Note_on_c, 9, 64, 52
4, 58181, Note_on_c, 9, 64, 0
4, 58200, Note_on_c, 9, 44, 0
4, 58201, Note_on_c, 9, 81, 0
4, 58202, Note_on_c, 9, 64, 54
4, 58211, Note_on_c, 9, 64, 0
4, 58260, Note_on_c, 9, 44, 58
4, 58261, Note_on_c, 9, 81, 58
4, 58319, Note_on_c, 9, 64, 67
4, 58320, Note_on_c, 9, 44, 0
4, 58321, Note_on_c, 9, 81, 0
4, 58326, Note_on_c, 9, 64, 0
4, 58339, Note_on_c, 9, 64, 31
4, 58348, Note_on_c, 9, 64, 0
4, 58380, Note_on_c, 9, 44, 58
4, 58381, Note_on_c, 9, 81, 58
4, 58414, Note_on_c, 9, 64, 53
4, 58423, Note_on_c, 9, 64, 0
4, 58439, Note_on_c, 9, 64, 71
4, 58440, Note_on_c, 9, 44, 0
4, 58441, Note_on_c, 9, 81, 0
4, 58453, Note_on_c, 9, 64, 0
4, 58497, Note_on_c, 9, 41, 62
4, 58500, Note_on_c, 9, 44, 51
4, 58501, Note_on_c, 9, 81, 51
4, 58515, Note_on_c, 9, 41, 0
4, 58560, Note_on_c, 9, 44, 0
4, 58561, Note_on_c, 9, 81, 0
4, 58562, Note_on_c, 9, 64, 68
4, 58570, Note_on_c, 9, 64, 0
4, 58620, Note_on_c, 9, 44, 49
4, 58621, Note_on_c, 9, 81, 49
4, 58652, Note_on_c, 9, 64, 49
4, 58660, Note_on_c, 9, 64, 0
4, 58678, Note_on_c, 9, 64, 46
4, 58680, Note_on_c, 9, 44, 0
4, 58681, Note_on_c, 9, 81, 0
4, 58695, Note_on_c, 9, 64, 0
4, 58740, Note_on_c, 9, 44, 57
4, 58741, Note_on_c, 9, 81, 57
4, 58770, Note_on_c, 9, 64, 60
4, 58778, Note_on_c, 9, 64, 0
4, 58795, Note_on_c, 9, 64, 58
4, 58800, Note_on_c, 9, 44, 0
4, 58801, Note_on_c, 9, 81, 0
4, 58802, Note_on_c, 9, 64, 0
4, 58860, Note_on_c, 9, 44, 58
4, 58861, Note_on_c, 9, 81, 58
4, 58894, Note_on_c, 9, 64, 49
4, 58903, Note_on_c, 9, 64, 0
4, 58920, Note_on_c, 9, 44, 0
4, 58921, Note_on_c, 9, 81, 0
4, 58921, Note_on_c, 9, 64, 53
4, 58931, Note_on_c, 9, 64, 0
4, 58979, Note_on_c, 9, 41, 52
4, 58980, Note_on_c, 9, 44, 74
4, 58981, Note_on_c, 9, 81, 74
4, 58990, Note_on_c, 9, 41, 0
4, 59040, Note_on_c, 9, 44, 0
4, 59041, Note_on_c, 9, 81, 0
4, 59041, Note_on_c, 9, 64, 69
4, 59051, Note_on_c, 9, 64, 0
4, 59100, Note_on_c, 9, 44, 51
4, 59101, Note_on_c, 9, 81, 51
4, 59137, Note_on_c, 9, 64, 35
4, 59146, Note_on_c, 9, 64, 0
4, 59160, Note_on_c, 9, 44, 0
4, 59161, Note_on_c, 9, 81, 0
4, 59161, Note_on_c, 9, 64, 57
4, 59179, Note_on_c, 9, 64, 0
4, 59220, Note_on_c, 9, 44, 54
4, 59221, Note_on_c, 9, 81, 54
4, 59258, Note_on_c, 9, 64, 51
4, 59265, Note_on_c, 9, 64, 0
4, 59279, Note_on_c, 9, 64, 53
4, 59280, Note_on_c, 9, 44, 0
4, 59281, Note_on_c, 9, 81, 0
4, 59291, Note_on_c, 9, 64, 0
4, 59340, Note_on_c, 9, 44, 49
4, 59341, Note_on_c, 9, 81, 49
4, 59363, Note_on_c, 9, 64, 57
4, 59372, Note_on_c, 9, 64, 0
4, 59390, Note_on_c, 9, 64, 44
4, 59400, Note_on_c, 9, 44, 0
4, 59401, Note_on_c, 9, 81, 0
4, 59417, Note_on_c, 9, 64, 0
4, 59455, Note_on_c, 9, 41, 57
4, 59460, Note_on_c, 9, 44, 72
4, 59461, Note_on_c, 9, 81, 72
4, 59471, Note_on_c, 9, 41, 0
4, 59517, Note_on_c, 9, 64, 66
4, 59520, Note_on_c, 9, 44, 0
4, 59521, Note_on_c, 9, 81, 0
4, 59527, Note_on_c, 9, 64, 0
4, 59580, Note_on_c, 9, 44, 35
4, 59581, Note_on_c, 9, 81, 35
4, 59611, Note_on_c, 9, 64, 46
4, 59619, Note_on_c, 9, 64, 0
4, 59636, Note_on_c, 9, 64, 57
4, 59640, Note_on_c, 9, 44, 0
4, 59641, Note_on_c, 9, 81, 0
4, 59653, Note_on_c, 9, 64, 0
4, 59700, Note_on_c, 9, 44, 44
4, 59701, Note_on_c, 9, 81, 44
4, 59737, Note_on_c, 9, 64, 35
4, 59746, Note_on_c, 9, 64, 0
4, 59759, Note_on_c, 9, 64, 29
4, 59760, Note_on_c, 9, 44, 0
4, 59761, Note_on_c, 9, 81, 0
4, 59772, Note_on_c, 9, 64, 0
4, 59820, Note_on_c, 9, 44, 65
4, 59821, Note_on_c, 9, 81, 65
4, 59847, Note_on_c, 9, 64, 60
4, 59855, Note_on_c, 9, 64, 0
4, 59875, Note_on_c, 9, 64, 47
4, 59880, Note_on_c, 9, 44, 0
4, 59881, Note_on_c, 9, 81, 0
4, 59919, Note_on_c, 9, 64, 0
4, 59938, Note_on_c, 9, 41, 54
4, 59940, Note_on_c, 9, 53, 77
4, 59941, Note_on_c, 9, 81, 77
4, 59953, Note_on_c, 9, 41, 0
4, 60000, Note_on_c, 9, 53, 0
4, 60001, Note_on_c, 9, 81, 0
4, 60002, Note_on_c, 9, 64, 64
4, 60009, Note_on_c, 9, 64, 0
4, 60060, Note_on_c, 9, 44, 58
4, 60061, Note_on_c, 9, 81, 58
4, 60093, Note_on_c, 9, 64, 55
4, 60101, Note_on_c, 9, 64, 0
4, 60118, Note_on_c, 9, 64, 43
4, 60120, Note_on_c, 9, 44, 0
4, 60121, Note_on_c, 9, 81, 0
4, 60135, Note_on_c, 9, 64, 0
4, 60180, Note_on_c, 9, 44, 51
4, 60181, Note_on_c, 9, 81, 51
4, 60213, Note_on_c, 9, 64, 54
4, 60221, Note_on_c, 9, 64, 0
4, 60238, Note_on_c, 9, 64, 45
4, 60240, Note_on_c, 9, 44, 0
4, 60241, Note_on_c, 9, 81, 0
4, 60252, Note_on_c, 9, 64, 0
4, 60300, Note_on_c, 9, 44, 58
4, 60301, Note_on_c, 9, 81, 58
4, 60331, Note_on_c, 9, 64, 45
4, 60340, Note_on_c, 9, 64, 0
4, 60357, Note_on_c, 9, 64, 40
4, 60360, Note_on_c, 9, 44, 0
4, 60361, Note_on_c, 9, 81, 0
4, 60369, Note_on_c, 9, 64, 0
4, 60414, Note_on_c, 9, 41, 61
4, 60420, Note_on_c, 9, 44, 54
4, 60421, Note_on_c, 9, 81, 54
4, 60428, Note_on_c, 9, 41, 0
4, 60476, Note_on_c, 9, 64, 67
4, 60480, Note_on_c, 9, 44, 0
4, 60481, Note_on_c, 9, 81, 0
4, 60485, Note_on_c, 9, 64, 0
4, 60540, Note_on_c, 9, 44, 49
4, 60541, Note_on_c, 9, 81, 49
4, 60570, Note_on_c, 9, 64, 53
4, 60579, Note_on_c, 9, 64, 0
4, 60600, Note_on_c, 9, 44, 0
4, 60600, Note_on_c, 9, 64, 34
4, 60601, Note_on_c, 9, 81, 0
4, 60609, Note_on_c, 9, 64, 0
4, 60660, Note_on_c, 9, 44, 51
4, 60661, Note_on_c, 9, 81, 51
4, 60693, Note_on_c, 9, 64, 56
4, 60701, Note_on_c, 9, 64, 0
4, 60720, Note_on_c, 9, 44, 0
4, 60720, Note_on_c, 9, 64, 45
4, 60721, Note_on_c, 9, 81, 0
4, 60728, Note_on_c, 9, 64, 0
4, 60780, Note_on_c, 9, 44, 58
4, 60781, Note_on_c, 9, 81, 58
4, 60813, Note_on_c, 9, 64, 48
4, 60821, Note_on_c, 9, 64, 0
4, 60839, Note_on_c, 9, 64, 47
4, 60840, Note_on_c, 9, 44, 0
4, 60841, Note_on_c, 9, 81, 0
4, 60860, Note_on_c, 9, 64, 0
4, 60895, Note_on_c, 9, 41, 62
4, 60900, Note_on_c, 9, 44, 71
4, 60901, Note_on_c, 9, 81, 71
4, 60907, Note_on_c, 9, 41, 0
4, 60959, Note_on_c, 9, 64, 70
4, 60960, Note_on_c, 9, 44, 0
4, 60961, Note_on_c, 9, 81, 0
4, 60970, Note_on_c, 9, 64, 0
4, 61020, Note_on_c, 9, 44, 54
4, 61021, Note_on_c, 9, 81, 54
4, 61053, Note_on_c, 9, 64, 57
4, 61060, Note_on_c, 9, 64, 0
4, 61080, Note_on_c, 9, 44, 0
4, 61081, Note_on_c, 9, 81, 0
4, 61083, Note_on_c, 9, 64, 34
4, 61094, Note_on_c, 9, 64, 0
4, 61140, Note_on_c, 9, 44, 62
4, 61141, Note_on_c, 9, 81, 62
4, 61168, Note_on_c, 9, 64, 68
4, 61180, Note_on_c, 9, 64, 0
4, 61197, Note_on_c, 9, 64, 64
4, 61200, Note_on_c, 9, 44, 0
4, 61201, Note_on_c, 9, 81, 0
4, 61211, Note_on_c, 9, 64, 0
4, 61260, Note_on_c, 9, 44, 62
4, 61261, Note_on_c, 9, 81, 62
4, 61294, Note_on_c, 9, 64, 59
4, 61302, Note_on_c, 9, 64, 0
4, 61319, Note_on_c, 9, 64, 65
4, 61320, Note_on_c, 9, 44, 0
4, 61321, Note_on_c, 9, 81, 0
4, 61339, Note_on_c, 9, 64, 0
4, 61380, Note_on_c, 9, 44, 80
4, 61381, Note_on_c, 9, 81, 80
4, 61440, Note_on_c, 9, 44, 0
4, 61441, Note_on_c, 9, 81, 0
4, 61500, Note_on_c, 9, 44, 93
4, 61501, Note_on_c, 9, 81, 93
4, 61560, Note_on_c, 9, 44, 0
4, 61561, Note_on_c, 9, 81, 0
4, 61620, Note_on_c, 9, 44, 77
4, 61621, Note_on_c, 9, 81, 77
4, 61680, Note_on_c, 9, 44, 0
4, 61681, Note_on_c, 9, 81, 0
4, 61740, Note_on_c, 9, 44, 74
4, 61741, Note_on_c, 9, 81, 74
4, 61800, Note_on_c, 9, 44, 0
4, 61801, Note_on_c, 9, 81, 0
4, 61860, Note_on_c, 9, 44, 65
4, 61861, Note_on_c, 9, 81, 65
4, 61920, Note_on_c, 9, 44, 0
4, 61921, Note_on_c, 9, 81, 0
4, 61980, Note_on_c, 9, 44, 57
4, 61981, Note_on_c, 9, 81, 57
4, 62040, Note_on_c, 9, 44, 0
4, 62041, Note_on_c, 9, 81, 0
4, 62100, Note_on_c, 9, 44, 60
4, 62101, Note_on_c, 9, 81, 60
4, 62160, Note_on_c, 9, 44, 0
4, 62161, Note_on_c, 9, 81, 0
4, 62220, Note_on_c, 9, 44, 52
4, 62221, Note_on_c, 9, 81, 52
4, 62280, Note_on_c, 9, 44, 0
4, 62281, Note_on_c, 9, 81, 0
4, 62340, Note_on_c, 9, 44, 54
4, 62341, Note_on_c, 9, 81, 54
4, 62400, Note_on_c, 9, 44, 0
4, 62401, Note_on_c, 9, 81, 0
4, 62460, Note_on_c, 9, 44, 65
4, 62461, Note_on_c, 9, 81, 65
4, 62520, Note_on_c, 9, 44, 0
4, 62521, Note_on_c, 9, 81, 0
4, 62580, Note_on_c, 9, 44, 54
4, 62581, Note_on_c, 9, 81, 54
4, 62640, Note_on_c, 9, 44, 0
4, 62641, Note_on_c, 9, 81, 0
4, 62700, Note_on_c, 9, 44, 60
4, 62701, Note_on_c, 9, 81, 60
4, 62760, Note_on_c, 9, 44, 0
4, 62761, Note_on_c, 9, 81, 0
4, 62820, Note_on_c, 9, 44, 60
4, 62821, Note_on_c, 9, 81, 60
4, 62880, Note_on_c, 9, 44, 0
4, 62881, Note_on_c, 9, 81, 0
4, 62940, Note_on_c, 9, 44, 60
4, 62941, Note_on_c, 9, 81, 60
4, 63000, Note_on_c, 9, 44, 0
4, 63001, Note_on_c, 9, 81, 0
4, 63060, Note_on_c, 9, 44, 69
4, 63061, Note_on_c, 9, 81, 69
4, 63120, Note_on_c, 9, 44, 0
4, 63121, Note_on_c, 9, 81, 0
4, 63180, Note_on_c, 9, 44, 58
4, 63181, Note_on_c, 9, 81, 58
4, 63240, Note_on_c, 9, 44, 0
4, 63241, Note_on_c, 9, 81, 0
4, 63300, Note_on_c, 9, 44, 57
4, 63301, Note_on_c, 9, 81, 57
4, 63360, Note_on_c, 9, 44, 0
4, 63361, Note_on_c, 9, 81, 0
4, 63420, Note_on_c, 9, 44, 62
4, 63421, Note_on_c, 9, 81, 62
4, 63480, Note_on_c, 9, 44, 0
4, 63481, Note_on_c, 9, 81, 0
4, 63540, Note_on_c, 9, 44, 60
4, 63541, Note_on_c, 9, 81, 60
4, 63600, Note_on_c, 9, 44, 0
4, 63601, Note_on_c, 9, 81, 0
4, 63660, Note_on_c, 9, 44, 68
4, 63661, Note_on_c, 9, 81, 68
4, 63720, Note_on_c, 9, 44, 0
4, 63721, Note_on_c, 9, 81, 0
4, 63780, Note_on_c, 9, 44, 65
4, 63781, Note_on_c, 9, 81, 65
4, 63840, Note_on_c, 9, 44, 0
4, 63841, Note_on_c, 9, 81, 0
4, 63900, Note_on_c, 9, 44, 65
4, 63901, Note_on_c, 9, 81, 65
4, 63960, Note_on_c, 9, 44, 0
4, 63961, Note_on_c, 9, 81, 0
4, 64020, Note_on_c, 9, 44, 65
4, 64021, Note_on_c, 9, 81, 65
4, 64080, Note_on_c, 9, 44, 0
4, 64081, Note_on_c, 9, 81, 0
4, 64140, Note_on_c, 9, 44, 57
4, 64141, Note_on_c, 9, 81, 57
4, 64200, Note_on_c, 9, 44, 0
4, 64201, Note_on_c, 9, 81, 0
4, 64260, Note_on_c, 9, 44, 58
4, 64261, Note_on_c, 9, 81, 58
4, 64320, Note_on_c, 9, 44, 0
4, 64321, Note_on_c, 9, 81, 0
4, 64380, Note_on_c, 9, 44, 55
4, 64381, Note_on_c, 9, 81, 55
4, 64440, Note_on_c, 9, 44, 0
4, 64441, Note_on_c, 9, 81, 0
4, 64500, Note_on_c, 9, 44, 57
4, 64501, Note_on_c, 9, 81, 57
4, 64560, Note_on_c, 9, 44, 0
4, 64561, Note_on_c, 9, 81, 0
4, 64620, Note_on_c, 9, 44, 49
4, 64621, Note_on_c, 9, 81, 49
4, 64680, Note_on_c, 9, 44, 0
4, 64681, Note_on_c, 9, 81, 0
4, 64740, Note_on_c, 9, 44, 72
4, 64741, Note_on_c, 9, 81, 72
4, 64800, Note_on_c, 9, 44, 0
4, 64801, Note_on_c, 9, 81, 0
4, 64860, Note_on_c, 9, 44, 54
4, 64861, Note_on_c, 9, 81, 54
4, 64920, Note_on_c, 9, 44, 0
4, 64921, Note_on_c, 9, 81, 0
4, 64980, Note_on_c, 9, 44, 66
4, 64981, Note_on_c, 9, 81, 66
4, 65040, Note_on_c, 9, 44, 0
4, 65041, Note_on_c, 9, 81, 0
4, 65100, Note_on_c, 9, 44, 66
4, 65101, Note_on_c, 9, 81, 66
4, 65160, Note_on_c, 9, 44, 0
4, 65161, Note_on_c, 9, 81, 0
4, 65220, Note_on_c, 9, 53, 57
4, 65221, Note_on_c, 9, 81, 57
4, 65280, Note_on_c, 9, 53, 0
4, 65280, Note_on_c, 9, 64, 63
4, 65281, Note_on_c, 9, 81, 0
4, 65298, Note_on_c, 9, 64, 0
4, 65340, Note_on_c, 9, 53, 52
4, 65386, Note_on_c, 9, 64, 36
4, 65395, Note_on_c, 9, 64, 0
4, 65400, Note_on_c, 9, 53, 0
4, 65409, Note_on_c, 9, 64, 65
4, 65434, Note_on_c, 9, 64, 0
4, 65460, Note_on_c, 9, 53, 54
4, 65498, Note_on_c, 9, 64, 46
4, 65506, Note_on_c, 9, 64, 0
4, 65520, Note_on_c, 9, 53, 0
4, 65524, Note_on_c, 9, 64, 57
4, 65540, Note_on_c, 9, 64, 0
4, 65580, Note_on_c, 9, 53, 55
4, 65614, Note_on_c, 9, 64, 53
4, 65622, Note_on_c, 9, 64, 0
4, 65640, Note_on_c, 9, 53, 0
4, 65640, Note_on_c, 9, 64, 47
4, 65667, Note_on_c, 9, 64, 0
4, 65698, Note_on_c, 9, 41, 43
4, 65700, Note_on_c, 9, 53, 57
4, 65708, Note_on_c, 9, 41, 0
4, 65760, Note_on_c, 9, 53, 0
4, 65767, Note_on_c, 9, 64, 48
4, 65788, Note_on_c, 9, 64, 0
4, 65820, Note_on_c, 9, 53, 55
4, 65863, Note_on_c, 9, 64, 47
4, 65871, Note_on_c, 9, 64, 0
4, 65880, Note_on_c, 9, 53, 0
4, 65886, Note_on_c, 9, 64, 55
4, 65907, Note_on_c, 9, 64, 0
4, 65940, Note_on_c, 9, 53, 58
4, 65982, Note_on_c, 9, 64, 48
4, 65990, Note_on_c, 9, 64, 0
4, 66000, Note_on_c, 9, 53, 0
4, 66004, Note_on_c, 9, 64, 55
4, 66025, Note_on_c, 9, 64, 0
4, 66060, Note_on_c, 9, 53, 58
4, 66093, Note_on_c, 9, 64, 52
4, 66101, Note_on_c, 9, 64, 0
4, 66120, Note_on_c, 9, 53, 0
4, 66120, Note_on_c, 9, 64, 50
4, 66153, Note_on_c, 9, 64, 0
4, 66180, Note_on_c, 9, 41, 51
4, 66180, Note_on_c, 9, 53, 51
4, 66192, Note_on_c, 9, 41, 0
4, 66240, Note_on_c, 9, 53, 0
4, 66244, Note_on_c, 9, 64, 58
4, 66259, Note_on_c, 9, 64, 0
4, 66300, Note_on_c, 9, 53, 49
4, 66340, Note_on_c, 9, 64, 38
4, 66349, Note_on_c, 9, 64, 0
4, 66360, Note_on_c, 9, 53, 0
4, 66366, Note_on_c, 9, 64, 53
4, 66385, Note_on_c, 9, 64, 0
4, 66420, Note_on_c, 9, 53, 57
4, 66459, Note_on_c, 9, 64, 39
4, 66467, Note_on_c, 9, 64, 0
4, 66480, Note_on_c, 9, 53, 0
4, 66485, Note_on_c, 9, 64, 46
4, 66504, Note_on_c, 9, 64, 0
4, 66540, Note_on_c, 9, 53, 58
4, 66571, Note_on_c, 9, 64, 48
4, 66580, Note_on_c, 9, 64, 0
4, 66599, Note_on_c, 9, 64, 47
4, 66600, Note_on_c, 9, 53, 0
4, 66618, Note_on_c, 9, 64, 0
4, 66660, Note_on_c, 9, 53, 74
4, 66720, Note_on_c, 9, 53, 0
4, 66780, Note_on_c, 9, 53, 51
4, 66819, Note_on_c, 9, 64, 36
4, 66828, Note_on_c, 9, 64, 0
4, 66840, Note_on_c, 9, 53, 0
4, 66844, Note_on_c, 9, 64, 54
4, 66865, Note_on_c, 9, 64, 0
4, 66900, Note_on_c, 9, 53, 54
4, 66936, Note_on_c, 9, 64, 40
4, 66945, Note_on_c, 9, 64, 0
4, 66958, Note_on_c, 9, 64, 39
4, 66960, Note_on_c, 9, 53, 0
4, 66976, Note_on_c, 9, 64, 0
4, 67020, Note_on_c, 9, 53, 49
4, 67049, Note_on_c, 9, 64, 55
4, 67057, Note_on_c, 9, 64, 0
4, 67077, Note_on_c, 9, 64, 41
4, 67080, Note_on_c, 9, 53, 0
4, 67105, Note_on_c, 9, 64, 0
4, 67138, Note_on_c, 9, 41, 60
4, 67140, Note_on_c, 9, 53, 72
4, 67155, Note_on_c, 9, 41, 0
4, 67200, Note_on_c, 9, 53, 0
4, 67201, Note_on_c, 9, 64, 62
4, 67213, Note_on_c, 9, 64, 0
4, 67260, Note_on_c, 9, 53, 35
4, 67296, Note_on_c, 9, 64, 41
4, 67304, Note_on_c, 9, 64, 0
4, 67320, Note_on_c, 9, 53, 0
4, 67321, Note_on_c, 9, 64, 51
4, 67343, Note_on_c, 9, 64, 0
4, 67380, Note_on_c, 9, 53, 44
4, 67423, Note_on_c, 9, 64, 24
4, 67430, Note_on_c, 9, 64, 0
4, 67440, Note_on_c, 9, 53, 0
4, 67444, Note_on_c, 9, 64, 41
4, 67453, Note_on_c, 9, 64, 0
4, 67500, Note_on_c, 9, 53, 65
4, 67531, Note_on_c, 9, 64, 55
4, 67539, Note_on_c, 9, 64, 0
4, 67558, Note_on_c, 9, 64, 48
4, 67560, Note_on_c, 9, 53, 0
4, 67589, Note_on_c, 9, 64, 0
4, 67617, Note_on_c, 9, 41, 58
4, 67620, Note_on_c, 9, 59, 77
4, 67635, Note_on_c, 9, 41, 0
4, 67680, Note_on_c, 9, 59, 0
4, 67680, Note_on_c, 9, 64, 58
4, 67698, Note_on_c, 9, 64, 0
4, 67740, Note_on_c, 9, 53, 58
4, 67779, Note_on_c, 9, 64, 43
4, 67787, Note_on_c, 9, 64, 0
4, 67800, Note_on_c, 9, 53, 0
4, 67802, Note_on_c, 9, 64, 58
4, 67821, Note_on_c, 9, 64, 0
4, 67860, Note_on_c, 9, 53, 51
4, 67894, Note_on_c, 9, 64, 36
4, 67903, Note_on_c, 9, 64, 0
4, 67920, Note_on_c, 9, 53, 0
4, 67922, Note_on_c, 9, 64, 44
4, 67934, Note_on_c, 9, 64, 0
4, 67980, Note_on_c, 9, 53, 58
4, 68009, Note_on_c, 9, 64, 44
4, 68018, Note_on_c, 9, 64, 0
4, 68040, Note_on_c, 9, 53, 0
4, 68041, Note_on_c, 9, 64, 33
4, 68066, Note_on_c, 9, 64, 0
4, 68097, Note_on_c, 9, 41, 52
4, 68100, Note_on_c, 9, 53, 54
4, 68108, Note_on_c, 9, 41, 0
4, 68160, Note_on_c, 9, 53, 0
4, 68160, Note_on_c, 9, 64, 54
4, 68174, Note_on_c, 9, 64, 0
4, 68220, Note_on_c, 9, 53, 49
4, 68256, Note_on_c, 9, 64, 33
4, 68265, Note_on_c, 9, 64, 0
4, 68280, Note_on_c, 9, 53, 0
4, 68283, Note_on_c, 9, 64, 45
4, 68302, Note_on_c, 9, 64, 0
4, 68340, Note_on_c, 9, 53, 51
4, 68373, Note_on_c, 9, 64, 42
4, 68383, Note_on_c, 9, 64, 0
4, 68400, Note_on_c, 9, 53, 0
4, 68403, Note_on_c, 9, 64, 40
4, 68413, Note_on_c, 9, 64, 0
4, 68460, Note_on_c, 9, 53, 58
4, 68489, Note_on_c, 9, 64, 51
4, 68498, Note_on_c, 9, 64, 0
4, 68518, Note_on_c, 9, 64, 47
4, 68520, Note_on_c, 9, 53, 0
4, 68541, Note_on_c, 9, 64, 0
4, 68576, Note_on_c, 9, 41, 53
4, 68580, Note_on_c, 9, 53, 71
4, 68590, Note_on_c, 9, 41, 0
4, 68637, Note_on_c, 9, 64, 57
4, 68640, Note_on_c, 9, 53, 0
4, 68647, Note_on_c, 9, 64, 0
4, 68700, Note_on_c, 9, 53, 54
4, 68739, Note_on_c, 9, 64, 56
4, 68754, Note_on_c, 9, 64, 0
4, 68760, Note_on_c, 9, 53, 0
4, 68767, Note_on_c, 9, 64, 49
4, 68774, Note_on_c, 9, 64, 0
4, 68820, Note_on_c, 9, 53, 62
4, 68856, Note_on_c, 9, 64, 42
4, 68864, Note_on_c, 9, 64, 0
4, 68880, Note_on_c, 9, 53, 0
4, 68882, Note_on_c, 9, 64, 51
4, 68898, Note_on_c, 9, 64, 0
4, 68940, Note_on_c, 9, 53, 62
4, 68973, Note_on_c, 9, 64, 54
4, 68981, Note_on_c, 9, 64, 0
4, 69000, Note_on_c, 9, 53, 0
4, 69003, Note_on_c, 9, 64, 44
4, 69021, Note_on_c, 9, 64, 0
4, 69059, Note_on_c, 9, 41, 49
4, 69060, Note_on_c, 9, 53, 80
4, 69068, Note_on_c, 9, 41, 0
4, 69120, Note_on_c, 9, 53, 0
4, 69124, Note_on_c, 9, 64, 64
4, 69132, Note_on_c, 9, 64, 0
4, 69180, Note_on_c, 9, 53, 93
4, 69212, Note_on_c, 9, 64, 48
4, 69220, Note_on_c, 9, 64, 0
4, 69236, Note_on_c, 9, 64, 45
4, 69240, Note_on_c, 9, 53, 0
4, 69254, Note_on_c, 9, 64, 0
4, 69300, Note_on_c, 9, 53, 77
4, 69327, Note_on_c, 9, 64, 51
4, 69335, Note_on_c, 9, 64, 0
4, 69355, Note_on_c, 9, 64, 40
4, 69360, Note_on_c, 9, 53, 0
4, 69373, Note_on_c, 9, 64, 0
4, 69420, Note_on_c, 9, 53, 74
4, 69451, Note_on_c, 9, 64, 48
4, 69459, Note_on_c, 9, 64, 0
4, 69477, Note_on_c, 9, 64, 36
4, 69480, Note_on_c, 9, 53, 0
4, 69499, Note_on_c, 9, 64, 0
4, 69537, Note_on_c, 9, 41, 41
4, 69540, Note_on_c, 9, 53, 65
4, 69550, Note_on_c, 9, 41, 0
4, 69600, Note_on_c, 9, 53, 0
4, 69605, Note_on_c, 9, 64, 65
4, 69612, Note_on_c, 9, 64, 0
4, 69660, Note_on_c, 9, 53, 57
4, 69698, Note_on_c, 9, 64, 40
4, 69707, Note_on_c, 9, 64, 0
4, 69720, Note_on_c, 9, 53, 0
4, 69722, Note_on_c, 9, 64, 49
4, 69740, Note_on_c, 9, 64, 0
4, 69780, Note_on_c, 9, 53, 60
4, 69817, Note_on_c, 9, 64, 44
4, 69826, Note_on_c, 9, 64, 0
4, 69840, Note_on_c, 9, 53, 0
4, 69843, Note_on_c, 9, 64, 49
4, 69852, Note_on_c, 9, 64, 0
4, 69900, Note_on_c, 9, 53, 52
4, 69935, Note_on_c, 9, 64, 40
4, 69943, Note_on_c, 9, 64, 0
4, 69959, Note_on_c, 9, 64, 45
4, 69960, Note_on_c, 9, 53, 0
4, 69981, Note_on_c, 9, 64, 0
4, 70019, Note_on_c, 9, 41, 57
4, 70020, Note_on_c, 9, 53, 54
4, 70030, Note_on_c, 9, 41, 0
4, 70080, Note_on_c, 9, 53, 0
4, 70081, Note_on_c, 9, 64, 58
4, 70089, Note_on_c, 9, 64, 0
4, 70140, Note_on_c, 9, 53, 65
4, 70177, Note_on_c, 9, 64, 41
4, 70186, Note_on_c, 9, 64, 0
4, 70200, Note_on_c, 9, 53, 0
4, 70202, Note_on_c, 9, 64, 54
4, 70218, Note_on_c, 9, 64, 0
4, 70260, Note_on_c, 9, 53, 54
4, 70296, Note_on_c, 9, 64, 44
4, 70305, Note_on_c, 9, 64, 0
4, 70320, Note_on_c, 9, 53, 0
4, 70321, Note_on_c, 9, 64, 49
4, 70338, Note_on_c, 9, 64, 0
4, 70380, Note_on_c, 9, 53, 60
4, 70414, Note_on_c, 9, 64, 46
4, 70422, Note_on_c, 9, 64, 0
4, 70440, Note_on_c, 9, 53, 0
4, 70446, Note_on_c, 9, 64, 44
4, 70466, Note_on_c, 9, 64, 0
4, 70496, Note_on_c, 9, 41, 59
4, 70500, Note_on_c, 9, 53, 60
4, 70511, Note_on_c, 9, 41, 0
4, 70560, Note_on_c, 9, 53, 0
4, 70560, Note_on_c, 9, 64, 67
4, 70574, Note_on_c, 9, 64, 0
4, 70620, Note_on_c, 9, 53, 60
4, 70651, Note_on_c, 9, 64, 38
4, 70660, Note_on_c, 9, 64, 0
4, 70680, Note_on_c, 9, 53, 0
4, 70680, Note_on_c, 9, 64, 48
4, 70694, Note_on_c, 9, 64, 0
4, 70740, Note_on_c, 9, 53, 69
4, 70772, Note_on_c, 9, 64, 45
4, 70781, Note_on_c, 9, 64, 0
4, 70796, Note_on_c, 9, 64, 49
4, 70800, Note_on_c, 9, 53, 0
4, 70810, Note_on_c, 9, 64, 0
4, 70860, Note_on_c, 9, 53, 58
4, 70885, Note_on_c, 9, 64, 50
4, 70893, Note_on_c, 9, 64, 0
4, 70915, Note_on_c, 9, 64, 47
4, 70920, Note_on_c, 9, 53, 0
4, 70939, Note_on_c, 9, 64, 0
4, 70979, Note_on_c, 9, 41, 50
4, 70980, Note_on_c, 9, 53, 57
4, 70993, Note_on_c, 9, 41, 0
4, 71040, Note_on_c, 9, 53, 0
4, 71043, Note_on_c, 9, 64, 64
4, 71051, Note_on_c, 9, 64, 0
4, 71100, Note_on_c, 9, 53, 62
4, 71141, Note_on_c, 9, 64, 48
4, 71149, Note_on_c, 9, 64, 0
4, 71160, Note_on_c, 9, 53, 0
4, 71168, Note_on_c, 9, 64, 45
4, 71187, Note_on_c, 9, 64, 0
4, 71220, Note_on_c, 9, 53, 60
4, 71268, Note_on_c, 9, 64, 42
4, 71277, Note_on_c, 9, 64, 0
4, 71280, Note_on_c, 9, 53, 0
4, 71291, Note_on_c, 9, 64, 54
4, 71299, Note_on_c, 9, 64, 0
4, 71340, Note_on_c, 9, 53, 68
4, 71380, Note_on_c, 9, 64, 47
4, 71389, Note_on_c, 9, 64, 0
4, 71400, Note_on_c, 9, 53, 0
4, 71403, Note_on_c, 9, 64, 62
4, 71422, Note_on_c, 9, 64, 0
4, 71459, Note_on_c, 9, 41, 64
4, 71460, Note_on_c, 9, 53, 65
4, 71476, Note_on_c, 9, 41, 0
4, 71520, Note_on_c, 9, 53, 0
4, 71522, Note_on_c, 9, 64, 61
4, 71529, Note_on_c, 9, 64, 0
4, 71580, Note_on_c, 9, 53, 65
4, 71621, Note_on_c, 9, 64, 33
4, 71630, Note_on_c, 9, 64, 0
4, 71640, Note_on_c, 9, 53, 0
4, 71645, Note_on_c, 9, 64, 64
4, 71651, Note_on_c, 9, 64, 0
4, 71700, Note_on_c, 9, 53, 65
4, 71732, Note_on_c, 9, 64, 53
4, 71740, Note_on_c, 9, 64, 0
4, 71758, Note_on_c, 9, 64, 49
4, 71760, Note_on_c, 9, 53, 0
4, 71778, Note_on_c, 9, 64, 0
4, 71820, Note_on_c, 9, 53, 57
4, 71858, Note_on_c, 9, 64, 62
4, 71865, Note_on_c, 9, 64, 0
4, 71880, Note_on_c, 9, 53, 0
4, 71884, Note_on_c, 9, 64, 57
4, 71902, Note_on_c, 9, 64, 0
4, 71937, Note_on_c, 9, 41, 70
4, 71940, Note_on_c, 9, 53, 58
4, 71952, Note_on_c, 9, 41, 0
4, 72000, Note_on_c, 9, 53, 0
4, 72001, Note_on_c, 9, 64, 66
4, 72011, Note_on_c, 9, 64, 0
4, 72060, Note_on_c, 9, 53, 55
4, 72094, Note_on_c, 9, 64, 34
4, 72103, Note_on_c, 9, 64, 0
4, 72118, Note_on_c, 9, 64, 52
4, 72120, Note_on_c, 9, 53, 0
4, 72137, Note_on_c, 9, 64, 0
4, 72180, Note_on_c, 9, 53, 57
4, 72214, Note_on_c, 9, 64, 36
4, 72223, Note_on_c, 9, 64, 0
4, 72238, Note_on_c, 9, 64, 54
4, 72240, Note_on_c, 9, 53, 0
4, 72248, Note_on_c, 9, 64, 0
4, 72300, Note_on_c, 9, 53, 49
4, 72330, Note_on_c, 9, 64, 55
4, 72337, Note_on_c, 9, 64, 0
4, 72360, Note_on_c, 9, 53, 0
4, 72360, Note_on_c, 9, 64, 35
4, 72376, Note_on_c, 9, 64, 0
4, 72416, Note_on_c, 9, 41, 60
4, 72420, Note_on_c, 9, 53, 72
4, 72430, Note_on_c, 9, 41, 0
4, 72476, Note_on_c, 9, 64, 66
4, 72480, Note_on_c, 9, 53, 0
4, 72490, Note_on_c, 9, 64, 0
4, 72540, Note_on_c, 9, 53, 54
4, 72567, Note_on_c, 9, 64, 36
4, 72577, Note_on_c, 9, 64, 0
4, 72594, Note_on_c, 9, 64, 50
4, 72600, Note_on_c, 9, 53, 0
4, 72604, Note_on_c, 9, 64, 0
4, 72660, Note_on_c, 9, 53, 66
4, 72715, Note_on_c, 9, 64, 55
4, 72720, Note_on_c, 9, 53, 0
4, 72731, Note_on_c, 9, 64, 0
4, 72780, Note_on_c, 9, 53, 66
4, 72813, Note_on_c, 9, 64, 56
4, 72821, Note_on_c, 9, 64, 0
4, 72840, Note_on_c, 9, 53, 0
4, 72840, Note_on_c, 9, 64, 51
4, 72864, Note_on_c, 9, 64, 0
4, 72897, Note_on_c, 9, 41, 68
4, 72900, Note_on_c, 9, 59, 57
4, 72913, Note_on_c, 9, 41, 0
4, 72960, Note_on_c, 9, 59, 0
4, 72960, Note_on_c, 9, 64, 67
4, 72974, Note_on_c, 9, 64, 0
4, 73020, Note_on_c, 9, 53, 52
4, 73080, Note_on_c, 9, 53, 0
4, 73083, Note_on_c, 9, 64, 58
4, 73103, Note_on_c, 9, 64, 0
4, 73140, Note_on_c, 9, 53, 54
4, 73179, Note_on_c, 9, 64, 66
4, 73187, Note_on_c, 9, 64, 0
4, 73200, Note_on_c, 9, 53, 0
4, 73206, Note_on_c, 9, 64, 56
4, 73219, Note_on_c, 9, 64, 0
4, 73260, Note_on_c, 9, 53, 55
4, 73294, Note_on_c, 9, 64, 64
4, 73303, Note_on_c, 9, 64, 0
4, 73320, Note_on_c, 9, 53, 0
4, 73321, Note_on_c, 9, 64, 61
4, 73346, Note_on_c, 9, 64, 0
4, 73379, Note_on_c, 9, 41, 64
4, 73380, Note_on_c, 9, 53, 57
4, 73396, Note_on_c, 9, 41, 0
4, 73440, Note_on_c, 9, 53, 0
4, 73442, Note_on_c, 9, 64, 71
4, 73458, Note_on_c, 9, 64, 0
4, 73500, Note_on_c, 9, 53, 55
4, 73533, Note_on_c, 9, 64, 52
4, 73541, Note_on_c, 9, 64, 0
4, 73560, Note_on_c, 9, 53, 0
4, 73562, Note_on_c, 9, 64, 54
4, 73571, Note_on_c, 9, 64, 0
4, 73620, Note_on_c, 9, 53, 58
4, 73679, Note_on_c, 9, 64, 67
4, 73680, Note_on_c, 9, 53, 0
4, 73686, Note_on_c, 9, 64, 0
4, 73699, Note_on_c, 9, 64, 31
4, 73708, Note_on_c, 9, 64, 0
4, 73740, Note_on_c, 9, 53, 58
4, 73774, Note_on_c, 9, 64, 53
4, 73783, Note_on_c, 9, 64, 0
4, 73799, Note_on_c, 9, 64, 71
4, 73800, Note_on_c, 9, 53, 0
4, 73813, Note_on_c, 9, 64, 0
4, 73857, Note_on_c, 9, 41, 62
4, 73860, Note_on_c, 9, 53, 51
4, 73875, Note_on_c, 9, 41, 0
4, 73920, Note_on_c, 9, 53, 0
4, 73922, Note_on_c, 9, 64, 68
4, 73930, Note_on_c, 9, 64, 0
4, 73980, Note_on_c, 9, 53, 49
4, 74012, Note_on_c, 9, 64, 49
4, 74020, Note_on_c, 9, 64, 0
4, 74038, Note_on_c, 9, 64, 46
4, 74040, Note_on_c, 9, 53, 0
4, 74055, Note_on_c, 9, 64, 0
4, 74100, Note_on_c, 9, 53, 57
4, 74130, Note_on_c, 9, 64, 60
4, 74138, Note_on_c, 9, 64, 0
4, 74155, Note_on_c, 9, 64, 58
4, 74160, Note_on_c, 9, 53, 0
4, 74162, Note_on_c, 9, 64, 0
4, 74220, Note_on_c, 9, 53, 58
4, 74254, Note_on_c, 9, 64, 49
4, 74263, Note_on_c, 9, 64, 0
4, 74280, Note_on_c, 9, 53, 0
4, 74281, Note_on_c, 9, 64, 53
4, 74291, Note_on_c, 9, 64, 0
4, 74339, Note_on_c, 9, 41, 52
4, 74340, Note_on_c, 9, 53, 74
4, 74350, Note_on_c, 9, 41, 0
4, 74400, Note_on_c, 9, 53, 0
4, 74401, Note_on_c, 9, 64, 69
4, 74411, Note_on_c, 9, 64, 0
4, 74460, Note_on_c, 9, 53, 51
4, 74497, Note_on_c, 9, 64, 35
4, 74506, Note_on_c, 9, 64, 0
4, 74520, Note_on_c, 9, 53, 0
4, 74521, Note_on_c, 9, 64, 57
4, 74539, Note_on_c, 9, 64, 0
4, 74580, Note_on_c, 9, 53, 54
4, 74618, Note_on_c, 9, 64, 51
4, 74625, Note_on_c, 9, 64, 0
4, 74639, Note_on_c, 9, 64, 53
4, 74640, Note_on_c, 9, 53, 0
4, 74651, Note_on_c, 9, 64, 0
4, 74700, Note_on_c, 9, 53, 49
4, 74723, Note_on_c, 9, 64, 57
4, 74732, Note_on_c, 9, 64, 0
4, 74750, Note_on_c, 9, 64, 44
4, 74760, Note_on_c, 9, 53, 0
4, 74777, Note_on_c, 9, 64, 0
4, 74815, Note_on_c, 9, 41, 57
4, 74820, Note_on_c, 9, 53, 72
4, 74831, Note_on_c, 9, 41, 0
4, 74877, Note_on_c, 9, 64, 66
4, 74880, Note_on_c, 9, 53, 0
4, 74887, Note_on_c, 9, 64, 0
4, 74940, Note_on_c, 9, 53, 35
4, 74971, Note_on_c, 9, 64, 46
4, 74979, Note_on_c, 9, 64, 0
4, 74996, Note_on_c, 9, 64, 57
4, 75000, Note_on_c, 9, 53, 0
4, 75013, Note_on_c, 9, 64, 0
4, 75060, Note_on_c, 9, 53, 44
4, 75097, Note_on_c, 9, 64, 35
4, 75106, Note_on_c, 9, 64, 0
4, 75119, Note_on_c, 9, 64, 29
4, 75120, Note_on_c, 9, 53, 0
4, 75132, Note_on_c, 9, 64, 0
4, 75180, Note_on_c, 9, 53, 65
4, 75207, Note_on_c, 9, 64, 60
4, 75215, Note_on_c, 9, 64, 0
4, 75235, Note_on_c, 9, 64, 47
4, 75240, Note_on_c, 9, 53, 0
4, 75279, Note_on_c, 9, 64, 0
4, 75298, Note_on_c, 9, 41, 54
4, 75300, Note_on_c, 9, 59, 77
4, 75313, Note_on_c, 9, 41, 0
4, 75360, Note_on_c, 9, 59, 0
4, 75362, Note_on_c, 9, 64, 64
4, 75369, Note_on_c, 9, 64, 0
4, 75420, Note_on_c, 9, 53, 58
4, 75453, Note_on_c, 9, 64, 55
4, 75461, Note_on_c, 9, 64, 0
4, 75478, Note_on_c, 9, 64, 43
4, 75480, Note_on_c, 9, 53, 0
4, 75495, Note_on_c, 9, 64, 0
4, 75540, Note_on_c, 9, 53, 51
4, 75573, Note_on_c, 9, 64, 54
4, 75581, Note_on_c, 9, 64, 0
4, 75598, Note_on_c, 9, 64, 45
4, 75600, Note_on_c, 9, 53, 0
4, 75612, Note_on_c, 9, 64, 0
4, 75660, Note_on_c, 9, 53, 58
4, 75691, Note_on_c, 9, 64, 45
4, 75700, Note_on_c, 9, 64, 0
4, 75717, Note_on_c, 9, 64, 40
4, 75720, Note_on_c, 9, 53, 0
4, 75729, Note_on_c, 9, 64, 0
4, 75774, Note_on_c, 9, 41, 61
4, 75780, Note_on_c, 9, 53, 54
4, 75788, Note_on_c, 9, 41, 0
4, 75836, Note_on_c, 9, 64, 67
4, 75840, Note_on_c, 9, 53, 0
4, 75845, Note_on_c, 9, 64, 0
4, 75900, Note_on_c, 9, 53, 49
4, 75930, Note_on_c, 9, 64, 53
4, 75939, Note_on_c, 9, 64, 0
4, 75960, Note_on_c, 9, 53, 0
4, 75960, Note_on_c, 9, 64, 34
4, 75969, Note_on_c, 9, 64, 0
4, 76020, Note_on_c, 9, 53, 51
4, 76053, Note_on_c, 9, 64, 56
4, 76061, Note_on_c, 9, 64, 0
4, 76080, Note_on_c, 9, 53, 0
4, 76080, Note_on_c, 9, 64, 45
4, 76088, Note_on_c, 9, 64, 0
4, 76140, Note_on_c, 9, 53, 58
4, 76173, Note_on_c, 9, 64, 48
4, 76181, Note_on_c, 9, 64, 0
4, 76199, Note_on_c, 9, 64, 47
4, 76200, Note_on_c, 9, 53, 0
4, 76220, Note_on_c, 9, 64, 0
4, 76255, Note_on_c, 9, 41, 62
4, 76260, Note_on_c, 9, 53, 71
4, 76267, Note_on_c, 9, 41, 0
4, 76319, Note_on_c, 9, 64, 70
4, 76320, Note_on_c, 9, 53, 0
4, 76330, Note_on_c, 9, 64, 0
4, 76380, Note_on_c, 9, 53, 54
4, 76413, Note_on_c, 9, 64, 57
4, 76420, Note_on_c, 9, 64, 0
4, 76440, Note_on_c, 9, 53, 0
4, 76443, Note_on_c, 9, 64, 34
4, 76454, Note_on_c, 9, 64, 0
4, 76500, Note_on_c, 9, 53, 62
4, 76528, Note_on_c, 9, 64, 68
4, 76540, Note_on_c, 9, 64, 0
4, 76557, Note_on_c, 9, 64, 64
4, 76560, Note_on_c, 9, 53, 0
4, 76571, Note_on_c, 9, 64, 0
4, 76620, Note_on_c, 9, 53, 62
4, 76654, Note_on_c, 9, 64, 59
4, 76662, Note_on_c, 9, 64, 0
4, 76679, Note_on_c, 9, 64, 65
4, 76680, Note_on_c, 9, 53, 0
4, 76699, Note_on_c, 9, 64, 0
4, 76740, Note_on_c, 9, 53, 80
4, 76800, Note_on_c, 9, 53, 0
4, 76860, Note_on_c, 9, 53, 93
4, 76920, Note_on_c, 9, 53, 0
4, 76980, Note_on_c, 9, 53, 77
4, 77040, Note_on_c, 9, 53, 0
4, 77100, Note_on_c, 9, 53, 74
4, 77160, Note_on_c, 9, 53, 0
4, 77220, Note_on_c, 9, 53, 65
4, 77280, Note_on_c, 9, 53, 0
4, 77280, Note_on_c, 9, 64, 63
4, 77298, Note_on_c, 9, 64, 0
4, 77340, Note_on_c, 9, 53, 57
4, 77340, Note_on_c, 9, 44, 30
4, 77386, Note_on_c, 9, 64, 36
4, 77395, Note_on_c, 9, 64, 0
4, 77400, Note_on_c, 9, 44, 0
4, 77400, Note_on_c, 9, 53, 0
4, 77409, Note_on_c, 9, 64, 65
4, 77434, Note_on_c, 9, 64, 0
4, 77460, Note_on_c, 9, 53, 60
4, 77460, Note_on_c, 9, 44, 25
4, 77498, Note_on_c, 9, 64, 46
4, 77506, Note_on_c, 9, 64, 0
4, 77520, Note_on_c, 9, 44, 0
4, 77520, Note_on_c, 9, 53, 0
4, 77524, Note_on_c, 9, 64, 57
4, 77540, Note_on_c, 9, 64, 0
4, 77580, Note_on_c, 9, 53, 52
4, 77580, Note_on_c, 9, 44, 24
4, 77614, Note_on_c, 9, 64, 53
4, 77622, Note_on_c, 9, 64, 0
4, 77640, Note_on_c, 9, 44, 0
4, 77640, Note_on_c, 9, 53, 0
4, 77640, Note_on_c, 9, 64, 47
4, 77667, Note_on_c, 9, 64, 0
4, 77698, Note_on_c, 9, 41, 43
4, 77700, Note_on_c, 9, 53, 54
4, 77700, Note_on_c, 9, 44, 21
4, 77708, Note_on_c, 9, 41, 0
4, 77760, Note_on_c, 9, 44, 0
4, 77760, Note_on_c, 9, 53, 0
4, 77767, Note_on_c, 9, 64, 48
4, 77788, Note_on_c, 9, 64, 0
4, 77820, Note_on_c, 9, 53, 65
4, 77820, Note_on_c, 9, 44, 18
4, 77863, Note_on_c, 9, 64, 47
4, 77871, Note_on_c, 9, 64, 0
4, 77880, Note_on_c, 9, 44, 0
4, 77880, Note_on_c, 9, 53, 0
4, 77886, Note_on_c, 9, 64, 55
4, 77907, Note_on_c, 9, 64, 0
4, 77940, Note_on_c, 9, 53, 54
4, 77940, Note_on_c, 9, 44, 19
4, 77982, Note_on_c, 9, 64, 48
4, 77990, Note_on_c, 9, 64, 0
4, 78000, Note_on_c, 9, 44, 0
4, 78000, Note_on_c, 9, 53, 0
4, 78004, Note_on_c, 9, 64, 55
4, 78025, Note_on_c, 9, 64, 0
4, 78060, Note_on_c, 9, 53, 60
4, 78060, Note_on_c, 9, 44, 17
4, 78093, Note_on_c, 9, 64, 52
4, 78101, Note_on_c, 9, 64, 0
4, 78120, Note_on_c, 9, 44, 0
4, 78120, Note_on_c, 9, 53, 0
4, 78120, Note_on_c, 9, 64, 50
4, 78153, Note_on_c, 9, 64, 0
4, 78180, Note_on_c, 9, 41, 51
4, 78180, Note_on_c, 9, 53, 60
4, 78180, Note_on_c, 9, 44, 17
4, 78192, Note_on_c, 9, 41, 0
4, 78240, Note_on_c, 9, 44, 0
4, 78240, Note_on_c, 9, 53, 0
4, 78244, Note_on_c, 9, 64, 58
4, 78259, Note_on_c, 9, 64, 0
4, 78300, Note_on_c, 9, 53, 60
4, 78300, Note_on_c, 9, 44, 21
4, 78340, Note_on_c, 9, 64, 38
4, 78349, Note_on_c, 9, 64, 0
4, 78360, Note_on_c, 9, 44, 0
4, 78360, Note_on_c, 9, 53, 0
4, 78366, Note_on_c, 9, 64, 53
4, 78385, Note_on_c, 9, 64, 0
4, 78420, Note_on_c, 9, 53, 69
4, 78420, Note_on_c, 9, 44, 17
4, 78459, Note_on_c, 9, 64, 39
4, 78467, Note_on_c, 9, 64, 0
4, 78480, Note_on_c, 9, 44, 0
4, 78480, Note_on_c, 9, 53, 0
4, 78485, Note_on_c, 9, 64, 46
4, 78504, Note_on_c, 9, 64, 0
4, 78540, Note_on_c, 9, 53, 58
4, 78540, Note_on_c, 9, 44, 19
4, 78571, Note_on_c, 9, 64, 48
4, 78580, Note_on_c, 9, 64, 0
4, 78599, Note_on_c, 9, 64, 47
4, 78600, Note_on_c, 9, 44, 0
4, 78600, Note_on_c, 9, 53, 0
4, 78618, Note_on_c, 9, 64, 0
4, 78660, Note_on_c, 9, 53, 57
4, 78660, Note_on_c, 9, 44, 19
4, 78720, Note_on_c, 9, 44, 0
4, 78720, Note_on_c, 9, 53, 0
4, 78780, Note_on_c, 9, 53, 62
4, 78780, Note_on_c, 9, 44, 19
4, 78819, Note_on_c, 9, 64, 36
4, 78828, Note_on_c, 9, 64, 0
4, 78840, Note_on_c, 9, 44, 0
4, 78840, Note_on_c, 9, 53, 0
4, 78844, Note_on_c, 9, 64, 54
4, 78865, Note_on_c, 9, 64, 0
4, 78900, Note_on_c, 9, 53, 60
4, 78900, Note_on_c, 9, 44, 22
4, 78936, Note_on_c, 9, 64, 40
4, 78945, Note_on_c, 9, 64, 0
4, 78958, Note_on_c, 9, 64, 39
4, 78960, Note_on_c, 9, 44, 0
4, 78960, Note_on_c, 9, 53, 0
4, 78976, Note_on_c, 9, 64, 0
4, 79020, Note_on_c, 9, 53, 68
4, 79020, Note_on_c, 9, 44, 19
4, 79049, Note_on_c, 9, 64, 55
4, 79057, Note_on_c, 9, 64, 0
4, 79077, Note_on_c, 9, 64, 41
4, 79080, Note_on_c, 9, 44, 0
4, 79080, Note_on_c, 9, 53, 0
4, 79105, Note_on_c, 9, 64, 0
4, 79138, Note_on_c, 9, 41, 60
4, 79140, Note_on_c, 9, 53, 65
4, 79140, Note_on_c, 9, 44, 18
4, 79155, Note_on_c, 9, 41, 0
4, 79200, Note_on_c, 9, 44, 0
4, 79200, Note_on_c, 9, 53, 0
4, 79201, Note_on_c, 9, 64, 62
4, 79213, Note_on_c, 9, 64, 0
4, 79260, Note_on_c, 9, 53, 65
4, 79260, Note_on_c, 9, 44, 20
4, 79296, Note_on_c, 9, 64, 41
4, 79304, Note_on_c, 9, 64, 0
4, 79320, Note_on_c, 9, 44, 0
4, 79320, Note_on_c, 9, 53, 0
4, 79321, Note_on_c, 9, 64, 51
4, 79343, Note_on_c, 9, 64, 0
4, 79380, Note_on_c, 9, 53, 65
4, 79380, Note_on_c, 9, 44, 19
4, 79423, Note_on_c, 9, 64, 24
4, 79430, Note_on_c, 9, 64, 0
4, 79440, Note_on_c, 9, 44, 0
4, 79440, Note_on_c, 9, 53, 0
4, 79444, Note_on_c, 9, 64, 41
4, 79453, Note_on_c, 9, 64, 0
4, 79500, Note_on_c, 9, 53, 57
4, 79500, Note_on_c, 9, 44, 22
4, 79531, Note_on_c, 9, 64, 55
4, 79539, Note_on_c, 9, 64, 0
4, 79558, Note_on_c, 9, 64, 48
4, 79560, Note_on_c, 9, 44, 0
4, 79560, Note_on_c, 9, 53, 0
4, 79589, Note_on_c, 9, 64, 0
4, 79617, Note_on_c, 9, 41, 58
4, 79620, Note_on_c, 9, 53, 58
4, 79620, Note_on_c, 9, 44, 21
4, 79635, Note_on_c, 9, 41, 0
4, 79680, Note_on_c, 9, 44, 0
4, 79680, Note_on_c, 9, 53, 0
4, 79680, Note_on_c, 9, 64, 58
4, 79698, Note_on_c, 9, 64, 0
4, 79740, Note_on_c, 9, 53, 55
4, 79740, Note_on_c, 9, 44, 21
4, 79779, Note_on_c, 9, 64, 43
4, 79787, Note_on_c, 9, 64, 0
4, 79800, Note_on_c, 9, 44, 0
4, 79800, Note_on_c, 9, 53, 0
4, 79802, Note_on_c, 9, 64, 58
4, 79821, Note_on_c, 9, 64, 0
4, 79860, Note_on_c, 9, 53, 57
4, 79860, Note_on_c, 9, 44, 21
4, 79894, Note_on_c, 9, 64, 36
4, 79903, Note_on_c, 9, 64, 0
4, 79920, Note_on_c, 9, 44, 0
4, 79920, Note_on_c, 9, 53, 0
4, 79922, Note_on_c, 9, 64, 44
4, 79934, Note_on_c, 9, 64, 0
4, 79980, Note_on_c, 9, 53, 49
4, 79980, Note_on_c, 9, 44, 18
4, 80009, Note_on_c, 9, 64, 44
4, 80018, Note_on_c, 9, 64, 0
4, 80040, Note_on_c, 9, 44, 0
4, 80040, Note_on_c, 9, 53, 0
4, 80041, Note_on_c, 9, 64, 33
4, 80066, Note_on_c, 9, 64, 0
4, 80097, Note_on_c, 9, 41, 52
4, 80100, Note_on_c, 9, 53, 72
4, 80100, Note_on_c, 9, 44, 19
4, 80108, Note_on_c, 9, 41, 0
4, 80160, Note_on_c, 9, 44, 0
4, 80160, Note_on_c, 9, 53, 0
4, 80160, Note_on_c, 9, 64, 54
4, 80174, Note_on_c, 9, 64, 0
4, 80220, Note_on_c, 9, 53, 54
4, 80220, Note_on_c, 9, 44, 18
4, 80256, Note_on_c, 9, 64, 33
4, 80265, Note_on_c, 9, 64, 0
4, 80280, Note_on_c, 9, 44, 0
4, 80280, Note_on_c, 9, 53, 0
4, 80283, Note_on_c, 9, 64, 45
4, 80302, Note_on_c, 9, 64, 0
4, 80340, Note_on_c, 9, 53, 66
4, 80340, Note_on_c, 9, 44, 18
4, 80373, Note_on_c, 9, 64, 42
4, 80383, Note_on_c, 9, 64, 0
4, 80400, Note_on_c, 9, 44, 0
4, 80400, Note_on_c, 9, 53, 0
4, 80403, Note_on_c, 9, 64, 40
4, 80413, Note_on_c, 9, 64, 0
4, 80460, Note_on_c, 9, 53, 66
4, 80460, Note_on_c, 9, 44, 16
4, 80489, Note_on_c, 9, 64, 51
4, 80498, Note_on_c, 9, 64, 0
4, 80518, Note_on_c, 9, 64, 47
4, 80520, Note_on_c, 9, 44, 0
4, 80520, Note_on_c, 9, 53, 0
4, 80541, Note_on_c, 9, 64, 0
4, 80576, Note_on_c, 9, 41, 53
4, 80580, Note_on_c, 9, 59, 57
4, 80580, Note_on_c, 9, 44, 23
4, 80590, Note_on_c, 9, 41, 0
4, 80637, Note_on_c, 9, 64, 57
4, 80640, Note_on_c, 9, 44, 0
4, 80640, Note_on_c, 9, 59, 0
4, 80640, Note_on_c, 9, 64, 63
4, 80647, Note_on_c, 9, 64, 0
4, 80658, Note_on_c, 9, 64, 0
4, 80700, Note_on_c, 9, 44, 30
4, 80746, Note_on_c, 9, 64, 36
4, 80755, Note_on_c, 9, 64, 0
4, 80760, Note_on_c, 9, 44, 0
4, 80769, Note_on_c, 9, 64, 65
4, 80794, Note_on_c, 9, 64, 0
4, 80820, Note_on_c, 9, 44, 25
4, 80858, Note_on_c, 9, 64, 46
4, 80866, Note_on_c, 9, 64, 0
4, 80880, Note_on_c, 9, 44, 0
4, 80884, Note_on_c, 9, 64, 57
4, 80900, Note_on_c, 9, 64, 0
4, 80940, Note_on_c, 9, 44, 24
4, 80974, Note_on_c, 9, 64, 53
4, 80982, Note_on_c, 9, 64, 0
4, 81000, Note_on_c, 9, 44, 0
4, 81000, Note_on_c, 9, 64, 47
4, 81027, Note_on_c, 9, 64, 0
4, 81058, Note_on_c, 9, 41, 43
4, 81060, Note_on_c, 9, 44, 21
4, 81068, Note_on_c, 9, 41, 0
4, 81120, Note_on_c, 9, 44, 0
4, 81127, Note_on_c, 9, 64, 48
4, 81148, Note_on_c, 9, 64, 0
4, 81180, Note_on_c, 9, 44, 18
4, 81223, Note_on_c, 9, 64, 47
4, 81231, Note_on_c, 9, 64, 0
4, 81240, Note_on_c, 9, 44, 0
4, 81246, Note_on_c, 9, 64, 55
4, 81267, Note_on_c, 9, 64, 0
4, 81300, Note_on_c, 9, 44, 19
4, 81342, Note_on_c, 9, 64, 48
4, 81350, Note_on_c, 9, 64, 0
4, 81360, Note_on_c, 9, 44, 0
4, 81364, Note_on_c, 9, 64, 55
4, 81385, Note_on_c, 9, 64, 0
4, 81420, Note_on_c, 9, 44, 17
4, 81453, Note_on_c, 9, 64, 52
4, 81461, Note_on_c, 9, 64, 0
4, 81480, Note_on_c, 9, 44, 0
4, 81480, Note_on_c, 9, 64, 50
4, 81513, Note_on_c, 9, 64, 0
4, 81540, Note_on_c, 9, 41, 51
4, 81540, Note_on_c, 9, 44, 17
4, 81552, Note_on_c, 9, 41, 0
4, 81600, Note_on_c, 9, 44, 0
4, 81604, Note_on_c, 9, 64, 58
4, 81619, Note_on_c, 9, 64, 0
4, 81660, Note_on_c, 9, 44, 21
4, 81700, Note_on_c, 9, 64, 38
4, 81709, Note_on_c, 9, 64, 0
4, 81720, Note_on_c, 9, 44, 0
4, 81726, Note_on_c, 9, 64, 53
4, 81745, Note_on_c, 9, 64, 0
4, 81780, Note_on_c, 9, 44, 17
4, 81819, Note_on_c, 9, 64, 39
4, 81827, Note_on_c, 9, 64, 0
4, 81840, Note_on_c, 9, 44, 0
4, 81845, Note_on_c, 9, 64, 46
4, 81864, Note_on_c, 9, 64, 0
4, 81900, Note_on_c, 9, 44, 19
4, 81931, Note_on_c, 9, 64, 48
4, 81940, Note_on_c, 9, 64, 0
4, 81959, Note_on_c, 9, 64, 47
4, 81960, Note_on_c, 9, 44, 0
4, 81978, Note_on_c, 9, 64, 0
4, 82020, Note_on_c, 9, 44, 19
4, 82080, Note_on_c, 9, 44, 0
4, 82140, Note_on_c, 9, 44, 19
4, 82179, Note_on_c, 9, 64, 36
4, 82188, Note_on_c, 9, 64, 0
4, 82200, Note_on_c, 9, 44, 0
4, 82204, Note_on_c, 9, 64, 54
4, 82225, Note_on_c, 9, 64, 0
4, 82260, Note_on_c, 9, 44, 22
4, 82296, Note_on_c, 9, 64, 40
4, 82305, Note_on_c, 9, 64, 0
4, 82318, Note_on_c, 9, 64, 39
4, 82320, Note_on_c, 9, 44, 0
4, 82336, Note_on_c, 9, 64, 0
4, 82380, Note_on_c, 9, 44, 19
4, 82409, Note_on_c, 9, 64, 55
4, 82417, Note_on_c, 9, 64, 0
4, 82437, Note_on_c, 9, 64, 41
4, 82440, Note_on_c, 9, 44, 0
4, 82465, Note_on_c, 9, 64, 0
4, 82498, Note_on_c, 9, 41, 60
4, 82500, Note_on_c, 9, 44, 18
4, 82515, Note_on_c, 9, 41, 0
4, 82560, Note_on_c, 9, 44, 0
4, 82561, Note_on_c, 9, 64, 62
4, 82573, Note_on_c, 9, 64, 0
4, 82620, Note_on_c, 9, 44, 20
4, 82656, Note_on_c, 9, 64, 41
4, 82664, Note_on_c, 9, 64, 0
4, 82680, Note_on_c, 9, 44, 0
4, 82681, Note_on_c, 9, 64, 51
4, 82703, Note_on_c, 9, 64, 0
4, 82740, Note_on_c, 9, 44, 19
4, 82783, Note_on_c, 9, 64, 24
4, 82790, Note_on_c, 9, 64, 0
4, 82800, Note_on_c, 9, 44, 0
4, 82804, Note_on_c, 9, 64, 41
4, 82813, Note_on_c, 9, 64, 0
4, 82860, Note_on_c, 9, 44, 22
4, 82891, Note_on_c, 9, 64, 55
4, 82899, Note_on_c, 9, 64, 0
4, 82918, Note_on_c, 9, 64, 48
4, 82920, Note_on_c, 9, 44, 0
4, 82949, Note_on_c, 9, 64, 0
4, 82977, Note_on_c, 9, 41, 58
4, 82980, Note_on_c, 9, 44, 21
4, 82995, Note_on_c, 9, 41, 0
4, 83040, Note_on_c, 9, 44, 0
4, 83040, Note_on_c, 9, 64, 58
4, 83058, Note_on_c, 9, 64, 0
4, 83100, Note_on_c, 9, 44, 21
4, 83139, Note_on_c, 9, 64, 43
4, 83147, Note_on_c, 9, 64, 0
4, 83160, Note_on_c, 9, 44, 0
4, 83162, Note_on_c, 9, 64, 58
4, 83181, Note_on_c, 9, 64, 0
4, 83220, Note_on_c, 9, 44, 21
4, 83254, Note_on_c, 9, 64, 36
4, 83263, Note_on_c, 9, 64, 0
4, 83280, Note_on_c, 9, 44, 0
4, 83282, Note_on_c, 9, 64, 44
4, 83294, Note_on_c, 9, 64, 0
4, 83340, Note_on_c, 9, 44, 18
4, 83369, Note_on_c, 9, 64, 44
4, 83378, Note_on_c, 9, 64, 0
4, 83400, Note_on_c, 9, 44, 0
4, 83401, Note_on_c, 9, 64, 33
4, 83426, Note_on_c, 9, 64, 0
4, 83457, Note_on_c, 9, 41, 52
4, 83460, Note_on_c, 9, 44, 19
4, 83468, Note_on_c, 9, 41, 0
4, 83520, Note_on_c, 9, 44, 0
4, 83520, Note_on_c, 9, 64, 54
4, 83534, Note_on_c, 9, 64, 0
4, 83580, Note_on_c, 9, 44, 18
4, 83616, Note_on_c, 9, 64, 33
4, 83625, Note_on_c, 9, 64, 0
4, 83640, Note_on_c, 9, 44, 0
4, 83643, Note_on_c, 9, 64, 45
4, 83662, Note_on_c, 9, 64, 0
4, 83700, Note_on_c, 9, 44, 18
4, 83733, Note_on_c, 9, 64, 42
4, 83743, Note_on_c, 9, 64, 0
4, 83760, Note_on_c, 9, 44, 0
4, 83763, Note_on_c, 9, 64, 40
4, 83773, Note_on_c, 9, 64, 0
4, 83820, Note_on_c, 9, 44, 16
4, 83849, Note_on_c, 9, 64, 51
4, 83858, Note_on_c, 9, 64, 0
4, 83878, Note_on_c, 9, 64, 47
4, 83880, Note_on_c, 9, 44, 0
4, 83901, Note_on_c, 9, 64, 0
4, 83936, Note_on_c, 9, 41, 53
4, 83940, Note_on_c, 9, 44, 23
4, 83950, Note_on_c, 9, 41, 0
4, 83997, Note_on_c, 9, 64, 57
4, 84000, Note_on_c, 9, 44, 0
4, 84007, Note_on_c, 9, 64, 0
4, 84007, End_track
0, 0, End_of_file
