0, 0, Header, 0, 1, 120
1, 0, Start_track
1, 0, Title_t, "I Loves You Porgy (version 2)"
1, 0, Text_t, "Doug mckenzie\012"
1, 0, Text_t, "dougmck@tpg.com.au\012"
1, 0, Time_signature, 4, 2, 24, 8
1, 0, Key_signature, -1, "major"
1, 0, Tempo, 500000
1, 0, Marker_t, "I Loves You Porgy version 2 - rubato beginning chorus"
1, 0, Program_c, 0, 0
1, 295, Note_on_c, 0, 65, 71
1, 296, Note_on_c, 0, 53, 41
1, 360, Control_c, 0, 64, 127
1, 363, Note_on_c, 0, 69, 74
1, 365, Note_on_c, 0, 65, 0
1, 366, Note_on_c, 0, 57, 56
1, 379, Note_on_c, 0, 53, 0
1, 423, Note_on_c, 0, 72, 79
1, 426, Note_on_c, 0, 60, 64
1, 429, Note_on_c, 0, 57, 0
1, 433, Note_on_c, 0, 69, 0
1, 474, Note_on_c, 0, 72, 0
1, 499, Note_on_c, 0, 76, 74
1, 501, Note_on_c, 0, 72, 68
1, 502, Note_on_c, 0, 67, 78
1, 502, Note_on_c, 0, 69, 70
1, 505, Note_on_c, 0, 64, 68
1, 508, Control_c, 0, 64, 0
1, 517, Note_on_c, 0, 60, 0
1, 546, Control_c, 0, 64, 127
1, 569, Note_on_c, 0, 69, 0
1, 569, Note_on_c, 0, 67, 0
1, 575, Note_on_c, 0, 76, 0
1, 575, Note_on_c, 0, 72, 0
1, 597, Note_on_c, 0, 64, 0
1, 632, Note_on_c, 0, 79, 57
1, 634, Note_on_c, 0, 69, 55
1, 635, Note_on_c, 0, 76, 55
1, 635, Note_on_c, 0, 72, 51
1, 640, Note_on_c, 0, 64, 36
1, 743, Note_on_c, 0, 64, 0
1, 764, Note_on_c, 0, 79, 0
1, 778, Note_on_c, 0, 76, 0
1, 780, Note_on_c, 0, 72, 0
1, 782, Note_on_c, 0, 69, 0
1, 859, Note_on_c, 0, 77, 49
1, 863, Note_on_c, 0, 63, 26
1, 863, Note_on_c, 0, 70, 34
1, 865, Note_on_c, 0, 67, 34
1, 867, Note_on_c, 0, 53, 31
1, 870, Note_on_c, 0, 60, 31
1, 871, Control_c, 0, 64, 0
1, 879, Note_on_c, 0, 58, 19
1, 909, Control_c, 0, 64, 127
1, 931, Note_on_c, 0, 63, 0
1, 932, Note_on_c, 0, 60, 0
1, 942, Note_on_c, 0, 58, 0
1, 943, Note_on_c, 0, 53, 0
1, 1040, Note_on_c, 0, 29, 36
1, 1058, Note_on_c, 0, 29, 0
1, 1098, Note_on_c, 0, 77, 0
1, 1130, Note_on_c, 0, 67, 0
1, 1135, Note_on_c, 0, 70, 0
1, 1224, Note_on_c, 0, 66, 25
1, 1224, Note_on_c, 0, 72, 27
1, 1225, Note_on_c, 0, 51, 32
1, 1226, Note_on_c, 0, 62, 20
1, 1228, Note_on_c, 0, 69, 27
1, 1232, Note_on_c, 0, 57, 24
1, 1433, Note_on_c, 0, 62, 0
1, 1436, Note_on_c, 0, 69, 0
1, 1451, Note_on_c, 0, 66, 0
1, 1473, Note_on_c, 0, 72, 0
1, 1508, Note_on_c, 0, 69, 89
1, 1514, Note_on_c, 0, 57, 0
1, 1515, Note_on_c, 0, 51, 0
1, 1543, Note_on_c, 0, 69, 0
1, 1552, Marker_t, "'Drumming' on melody note - with either fingers 2&3 or  4,3&2"
1, 1578, Note_on_c, 0, 69, 87
1, 1610, Note_on_c, 0, 69, 0
1, 1647, Note_on_c, 0, 69, 72
1, 1674, Note_on_c, 0, 69, 0
1, 1713, Note_on_c, 0, 69, 66
1, 1739, Note_on_c, 0, 69, 0
1, 1769, Note_on_c, 0, 69, 62
1, 1793, Note_on_c, 0, 69, 0
1, 1818, Note_on_c, 0, 69, 58
1, 1835, Note_on_c, 0, 69, 0
1, 1855, Note_on_c, 0, 69, 53
1, 1871, Note_on_c, 0, 69, 0
1, 1893, Note_on_c, 0, 69, 45
1, 1904, Note_on_c, 0, 69, 0
1, 1921, Note_on_c, 0, 69, 51
1, 1937, Note_on_c, 0, 69, 0
1, 1955, Note_on_c, 0, 69, 54
1, 1971, Note_on_c, 0, 69, 0
1, 1986, Note_on_c, 0, 69, 54
1, 2002, Note_on_c, 0, 69, 0
1, 2023, Note_on_c, 0, 69, 57
1, 2037, Note_on_c, 0, 69, 0
1, 2057, Note_on_c, 0, 69, 54
1, 2070, Note_on_c, 0, 69, 0
1, 2095, Note_on_c, 0, 69, 60
1, 2107, Note_on_c, 0, 69, 0
1, 2132, Note_on_c, 0, 69, 61
1, 2144, Note_on_c, 0, 69, 0
1, 2176, Note_on_c, 0, 69, 68
1, 2187, Note_on_c, 0, 62, 28
1, 2188, Note_on_c, 0, 65, 31
1, 2191, Note_on_c, 0, 60, 29
1, 2219, Note_on_c, 0, 70, 28
1, 2239, Control_c, 0, 64, 0
1, 2240, Note_on_c, 0, 71, 49
1, 2253, Note_on_c, 0, 69, 0
1, 2256, Note_on_c, 0, 70, 0
1, 2269, Note_on_c, 0, 71, 0
1, 2269, Note_on_c, 0, 72, 54
1, 2287, Control_c, 0, 64, 127
1, 2319, Note_on_c, 0, 65, 0
1, 2320, Note_on_c, 0, 62, 0
1, 2323, Note_on_c, 0, 60, 0
1, 2411, Note_on_c, 0, 62, 43
1, 2415, Note_on_c, 0, 57, 35
1, 2416, Note_on_c, 0, 65, 34
1, 2501, Note_on_c, 0, 72, 0
1, 2524, Note_on_c, 0, 57, 0
1, 2531, Note_on_c, 0, 65, 0
1, 2571, Note_on_c, 0, 62, 0
1, 2763, Note_on_c, 0, 62, 44
1, 2764, Note_on_c, 0, 57, 36
1, 2766, Note_on_c, 0, 58, 31
1, 2767, Note_on_c, 0, 52, 26
1, 2768, Note_on_c, 0, 45, 30
1, 2771, Control_c, 0, 64, 0
1, 2797, Control_c, 0, 64, 127
1, 2811, Note_on_c, 0, 52, 0
1, 2815, Note_on_c, 0, 57, 0
1, 2819, Note_on_c, 0, 62, 0
1, 2824, Note_on_c, 0, 45, 0
1, 2830, Note_on_c, 0, 58, 0
1, 2897, Note_on_c, 0, 53, 44
1, 2903, Note_on_c, 0, 58, 34
1, 2903, Note_on_c, 0, 50, 32
1, 2905, Control_c, 0, 64, 0
1, 2905, Note_on_c, 0, 43, 35
1, 2906, Note_on_c, 0, 60, 45
1, 2941, Control_c, 0, 64, 127
1, 2985, Note_on_c, 0, 53, 0
1, 2997, Note_on_c, 0, 60, 0
1, 3012, Note_on_c, 0, 58, 0
1, 3086, Note_on_c, 0, 60, 37
1, 3087, Note_on_c, 0, 62, 39
1, 3105, Note_on_c, 0, 60, 0
1, 3117, Note_on_c, 0, 62, 0
1, 3152, Note_on_c, 0, 65, 75
1, 3174, Note_on_c, 0, 43, 0
1, 3183, Note_on_c, 0, 65, 0
1, 3192, Note_on_c, 0, 50, 0
1, 3209, Note_on_c, 0, 69, 108
1, 3247, Note_on_c, 0, 69, 0
1, 3275, Note_on_c, 0, 72, 70
1, 3275, Note_on_c, 0, 65, 69
1, 3276, Note_on_c, 0, 62, 79
1, 3276, Note_on_c, 0, 69, 70
1, 3277, Note_on_c, 0, 57, 51
1, 3284, Control_c, 0, 64, 0
1, 3302, Control_c, 0, 64, 127
1, 3335, Note_on_c, 0, 62, 0
1, 3342, Note_on_c, 0, 57, 0
1, 3344, Note_on_c, 0, 65, 0
1, 3348, Note_on_c, 0, 69, 0
1, 3349, Note_on_c, 0, 72, 0
1, 3393, Note_on_c, 0, 76, 68
1, 3394, Note_on_c, 0, 67, 64
1, 3396, Note_on_c, 0, 60, 39
1, 3396, Note_on_c, 0, 72, 53
1, 3406, Control_c, 0, 64, 0
1, 3424, Control_c, 0, 64, 127
1, 3459, Note_on_c, 0, 60, 0
1, 3460, Note_on_c, 0, 72, 0
1, 3464, Note_on_c, 0, 67, 0
1, 3469, Note_on_c, 0, 76, 0
1, 3596, Note_on_c, 0, 58, 33
1, 3596, Note_on_c, 0, 62, 32
1, 3597, Control_c, 0, 64, 0
1, 3600, Note_on_c, 0, 69, 36
1, 3601, Note_on_c, 0, 66, 28
1, 3602, Note_on_c, 0, 48, 33
1, 3615, Control_c, 0, 64, 127
1, 3640, Note_on_c, 0, 48, 0
1, 3642, Note_on_c, 0, 62, 0
1, 3647, Note_on_c, 0, 66, 0
1, 3652, Note_on_c, 0, 69, 0
1, 3660, Note_on_c, 0, 58, 0
1, 4218, Marker_t, "'So What' voicings briefly harmonise melody"
1, 4272, Note_on_c, 0, 75, 51
1, 4274, Note_on_c, 0, 70, 35
1, 4277, Note_on_c, 0, 80, 33
1, 4277, Note_on_c, 0, 84, 34
1, 4316, Note_on_c, 0, 84, 0
1, 4340, Note_on_c, 0, 75, 0
1, 4342, Note_on_c, 0, 80, 0
1, 4357, Note_on_c, 0, 70, 0
1, 4385, Note_on_c, 0, 81, 47
1, 4386, Note_on_c, 0, 67, 38
1, 4387, Note_on_c, 0, 72, 31
1, 4390, Note_on_c, 0, 77, 32
1, 4428, Note_on_c, 0, 81, 0
1, 4435, Note_on_c, 0, 77, 0
1, 4445, Note_on_c, 0, 72, 0
1, 4475, Note_on_c, 0, 67, 0
1, 4490, Note_on_c, 0, 77, 54
1, 4497, Note_on_c, 0, 73, 29
1, 4497, Note_on_c, 0, 64, 22
1, 4560, Note_on_c, 0, 77, 0
1, 4561, Note_on_c, 0, 64, 0
1, 4567, Note_on_c, 0, 73, 0
1, 4602, Note_on_c, 0, 81, 50
1, 4604, Note_on_c, 0, 69, 31
1, 4606, Note_on_c, 0, 76, 36
1, 4606, Note_on_c, 0, 64, 28
1, 4607, Note_on_c, 0, 74, 33
1, 4609, Note_on_c, 0, 53, 22
1, 4614, Control_c, 0, 64, 0
1, 4642, Control_c, 0, 64, 127
1, 4676, Note_on_c, 0, 64, 0
1, 4705, Note_on_c, 0, 63, 50
1, 4710, Control_c, 0, 64, 0
1, 4730, Control_c, 0, 64, 127
1, 4771, Note_on_c, 0, 74, 0
1, 4773, Note_on_c, 0, 63, 0
1, 4782, Note_on_c, 0, 69, 0
1, 4802, Note_on_c, 0, 76, 0
1, 4811, Note_on_c, 0, 69, 34
1, 4812, Note_on_c, 0, 62, 42
1, 4813, Note_on_c, 0, 74, 34
1, 4818, Control_c, 0, 64, 0
1, 4848, Control_c, 0, 64, 127
1, 4981, Note_on_c, 0, 53, 0
1, 4999, Note_on_c, 0, 53, 43
1, 5037, Note_on_c, 0, 74, 0
1, 5046, Note_on_c, 0, 62, 0
1, 5047, Note_on_c, 0, 69, 0
1, 5101, Note_on_c, 0, 53, 0
1, 5130, Note_on_c, 0, 81, 0
1, 5149, Note_on_c, 0, 61, 38
1, 5154, Note_on_c, 0, 69, 35
1, 5155, Note_on_c, 0, 73, 21
1, 5158, Note_on_c, 0, 57, 36
1, 5159, Control_c, 0, 64, 0
1, 5189, Control_c, 0, 64, 127
1, 5203, Note_on_c, 0, 57, 0
1, 5203, Note_on_c, 0, 61, 0
1, 5265, Note_on_c, 0, 73, 0
1, 5266, Note_on_c, 0, 69, 0
1, 5306, Note_on_c, 0, 45, 55
1, 5312, Note_on_c, 0, 62, 67
1, 5333, Note_on_c, 0, 45, 0
1, 5368, Note_on_c, 0, 62, 0
1, 5401, Note_on_c, 0, 65, 75
1, 5438, Note_on_c, 0, 65, 0
1, 5491, Note_on_c, 0, 69, 92
1, 5494, Note_on_c, 0, 66, 52
1, 5494, Note_on_c, 0, 61, 49
1, 5494, Note_on_c, 0, 55, 55
1, 5500, Control_c, 0, 64, 0
1, 5522, Control_c, 0, 64, 127
1, 5562, Note_on_c, 0, 69, 0
1, 5574, Note_on_c, 0, 72, 80
1, 5624, Note_on_c, 0, 55, 0
1, 5631, Note_on_c, 0, 66, 0
1, 5633, Note_on_c, 0, 72, 0
1, 5647, Note_on_c, 0, 61, 0
1, 5656, Note_on_c, 0, 72, 68
1, 5658, Note_on_c, 0, 61, 34
1, 5661, Note_on_c, 0, 55, 38
1, 5661, Note_on_c, 0, 65, 42
1, 5706, Note_on_c, 0, 72, 0
1, 5750, Note_on_c, 0, 76, 71
1, 5763, Note_on_c, 0, 65, 0
1, 5780, Note_on_c, 0, 55, 0
1, 5782, Note_on_c, 0, 61, 0
1, 5847, Note_on_c, 0, 76, 0
1, 5875, Note_on_c, 0, 76, 53
1, 5907, Note_on_c, 0, 76, 0
1, 5953, Note_on_c, 0, 81, 62
1, 6006, Note_on_c, 0, 81, 0
1, 6031, Note_on_c, 0, 81, 54
1, 6036, Note_on_c, 0, 50, 39
1, 6048, Control_c, 0, 64, 0
1, 6082, Control_c, 0, 64, 127
1, 6100, Note_on_c, 0, 81, 0
1, 6106, Note_on_c, 0, 84, 62
1, 6108, Note_on_c, 0, 57, 29
1, 6151, Note_on_c, 0, 84, 0
1, 6182, Note_on_c, 0, 57, 0
1, 6185, Note_on_c, 0, 84, 64
1, 6189, Note_on_c, 0, 50, 0
1, 6189, Note_on_c, 0, 60, 31
1, 6204, Note_on_c, 0, 60, 0
1, 6212, Note_on_c, 0, 84, 0
1, 6264, Note_on_c, 0, 88, 67
1, 6269, Note_on_c, 0, 64, 38
1, 6272, Note_on_c, 0, 76, 57
1, 6280, Note_on_c, 0, 60, 22
1, 6325, Note_on_c, 0, 60, 0
1, 6328, Note_on_c, 0, 76, 0
1, 6330, Note_on_c, 0, 64, 0
1, 6331, Note_on_c, 0, 88, 0
1, 6369, Note_on_c, 0, 88, 56
1, 6369, Note_on_c, 0, 64, 35
1, 6375, Note_on_c, 0, 81, 35
1, 6375, Note_on_c, 0, 76, 34
1, 6376, Note_on_c, 0, 57, 29
1, 6381, Note_on_c, 0, 60, 20
1, 6428, Note_on_c, 0, 88, 0
1, 6429, Note_on_c, 0, 64, 0
1, 6430, Note_on_c, 0, 60, 0
1, 6436, Note_on_c, 0, 57, 0
1, 6441, Note_on_c, 0, 81, 0
1, 6444, Note_on_c, 0, 76, 0
1, 6538, Marker_t, "2 note RH glissando - index and little fingers trail"
1, 6552, Note_on_c, 0, 50, 59
1, 6559, Note_on_c, 0, 50, 0
1, 6559, Note_on_c, 0, 55, 26
1, 6566, Note_on_c, 0, 52, 35
1, 6569, Note_on_c, 0, 57, 32
1, 6571, Note_on_c, 0, 55, 0
1, 6575, Note_on_c, 0, 52, 0
1, 6581, Note_on_c, 0, 57, 0
1, 6581, Note_on_c, 0, 53, 51
1, 6584, Note_on_c, 0, 59, 48
1, 6589, Note_on_c, 0, 53, 0
1, 6592, Note_on_c, 0, 59, 0
1, 6593, Note_on_c, 0, 55, 55
1, 6598, Note_on_c, 0, 60, 57
1, 6599, Note_on_c, 0, 55, 0
1, 6605, Note_on_c, 0, 57, 64
1, 6609, Note_on_c, 0, 62, 40
1, 6610, Note_on_c, 0, 60, 0
1, 6612, Note_on_c, 0, 57, 0
1, 6618, Note_on_c, 0, 59, 67
1, 6619, Control_c, 0, 64, 0
1, 6621, Note_on_c, 0, 64, 40
1, 6624, Note_on_c, 0, 62, 0
1, 6625, Note_on_c, 0, 59, 0
1, 6632, Note_on_c, 0, 60, 64
1, 6635, Note_on_c, 0, 64, 0
1, 6635, Note_on_c, 0, 65, 50
1, 6639, Note_on_c, 0, 60, 0
1, 6643, Note_on_c, 0, 62, 64
1, 6646, Note_on_c, 0, 67, 35
1, 6647, Note_on_c, 0, 65, 0
1, 6650, Note_on_c, 0, 62, 0
1, 6655, Note_on_c, 0, 64, 55
1, 6658, Note_on_c, 0, 69, 36
1, 6660, Note_on_c, 0, 67, 0
1, 6663, Note_on_c, 0, 64, 0
1, 6668, Note_on_c, 0, 65, 63
1, 6669, Note_on_c, 0, 71, 29
1, 6672, Note_on_c, 0, 69, 0
1, 6674, Note_on_c, 0, 65, 0
1, 6681, Note_on_c, 0, 67, 54
1, 6683, Note_on_c, 0, 72, 32
1, 6685, Note_on_c, 0, 71, 0
1, 6688, Note_on_c, 0, 67, 0
1, 6697, Note_on_c, 0, 69, 41
1, 6697, Note_on_c, 0, 74, 17
1, 6699, Note_on_c, 0, 72, 0
1, 6705, Note_on_c, 0, 69, 0
1, 6709, Note_on_c, 0, 76, 22
1, 6710, Note_on_c, 0, 71, 56
1, 6715, Note_on_c, 0, 74, 0
1, 6717, Note_on_c, 0, 71, 0
1, 6726, Note_on_c, 0, 72, 43
1, 6726, Note_on_c, 0, 77, 20
1, 6728, Note_on_c, 0, 76, 0
1, 6734, Note_on_c, 0, 72, 0
1, 6737, Note_on_c, 0, 74, 34
1, 6739, Note_on_c, 0, 79, 24
1, 6743, Note_on_c, 0, 77, 0
1, 6746, Note_on_c, 0, 74, 0
1, 6750, Control_c, 0, 64, 127
1, 6752, Note_on_c, 0, 76, 43
1, 6754, Note_on_c, 0, 81, 19
1, 6756, Note_on_c, 0, 79, 0
1, 6760, Note_on_c, 0, 76, 0
1, 6770, Note_on_c, 0, 77, 47
1, 6771, Note_on_c, 0, 83, 14
1, 6774, Note_on_c, 0, 81, 0
1, 6780, Note_on_c, 0, 77, 0
1, 6788, Note_on_c, 0, 79, 36
1, 6791, Note_on_c, 0, 84, 31
1, 6793, Note_on_c, 0, 83, 0
1, 6799, Note_on_c, 0, 79, 0
1, 6808, Note_on_c, 0, 86, 15
1, 6809, Note_on_c, 0, 81, 46
1, 6810, Note_on_c, 0, 84, 0
1, 6816, Note_on_c, 0, 81, 0
1, 6824, Note_on_c, 0, 83, 37
1, 6824, Note_on_c, 0, 88, 17
1, 6827, Note_on_c, 0, 86, 0
1, 6832, Note_on_c, 0, 83, 0
1, 6840, Note_on_c, 0, 89, 28
1, 6841, Note_on_c, 0, 88, 0
1, 6841, Note_on_c, 0, 84, 32
1, 6849, Note_on_c, 0, 84, 0
1, 6857, Note_on_c, 0, 86, 24
1, 6859, Note_on_c, 0, 91, 24
1, 6860, Note_on_c, 0, 89, 0
1, 6866, Note_on_c, 0, 86, 0
1, 6877, Note_on_c, 0, 91, 0
1, 6878, Note_on_c, 0, 93, 34
1, 6880, Note_on_c, 0, 88, 24
1, 6888, Note_on_c, 0, 88, 0
1, 6891, Note_on_c, 0, 93, 0
1, 6896, Note_on_c, 0, 95, 41
1, 6900, Marker_t, "Target note is C (3rd of Ab) in RH - while Left plays Ab (Root of Ab7)"
1, 6903, Note_on_c, 0, 95, 0
1, 6909, Note_on_c, 0, 32, 50
1, 6910, Control_c, 0, 64, 0
1, 6912, Note_on_c, 0, 44, 30
1, 6914, Note_on_c, 0, 96, 36
1, 6944, Control_c, 0, 64, 127
1, 6962, Note_on_c, 0, 32, 0
1, 6975, Note_on_c, 0, 44, 0
1, 7030, Note_on_c, 0, 96, 0
1, 7049, Note_on_c, 0, 60, 53
1, 7287, Note_on_c, 0, 84, 74
1, 7288, Note_on_c, 0, 72, 64
1, 7294, Note_on_c, 0, 65, 35
1, 7311, Note_on_c, 0, 84, 0
1, 7329, Note_on_c, 0, 72, 0
1, 7370, Note_on_c, 0, 65, 0
1, 7390, Note_on_c, 0, 81, 59
1, 7394, Note_on_c, 0, 69, 55
1, 7412, Note_on_c, 0, 81, 0
1, 7424, Note_on_c, 0, 69, 0
1, 7470, Note_on_c, 0, 78, 46
1, 7471, Note_on_c, 0, 60, 0
1, 7472, Note_on_c, 0, 66, 51
1, 7511, Note_on_c, 0, 66, 0
1, 7515, Note_on_c, 0, 78, 0
1, 7562, Note_on_c, 0, 77, 51
1, 7563, Note_on_c, 0, 65, 46
1, 7567, Note_on_c, 0, 59, 26
1, 7569, Note_on_c, 0, 64, 24
1, 7570, Note_on_c, 0, 53, 28
1, 7572, Control_c, 0, 64, 0
1, 7600, Control_c, 0, 64, 127
1, 7609, Note_on_c, 0, 65, 0
1, 7614, Note_on_c, 0, 77, 0
1, 7639, Note_on_c, 0, 64, 0
1, 7644, Note_on_c, 0, 59, 0
1, 7645, Note_on_c, 0, 69, 57
1, 7646, Note_on_c, 0, 81, 53
1, 7658, Note_on_c, 0, 53, 0
1, 7697, Note_on_c, 0, 81, 0
1, 7720, Note_on_c, 0, 69, 0
1, 7748, Note_on_c, 0, 43, 37
1, 7848, Note_on_c, 0, 43, 0
1, 7888, Note_on_c, 0, 43, 43
1, 8005, Note_on_c, 0, 59, 40
1, 8005, Note_on_c, 0, 64, 44
1, 8006, Note_on_c, 0, 69, 38
1, 8008, Note_on_c, 0, 53, 36
1, 8015, Control_c, 0, 64, 0
1, 8068, Control_c, 0, 64, 127
1, 8092, Note_on_c, 0, 64, 0
1, 8116, Note_on_c, 0, 63, 35
1, 8120, Control_c, 0, 64, 0
1, 8140, Control_c, 0, 64, 127
1, 8203, Note_on_c, 0, 63, 0
1, 8209, Note_on_c, 0, 59, 0
1, 8235, Note_on_c, 0, 59, 34
1, 8236, Note_on_c, 0, 62, 32
1, 8240, Control_c, 0, 64, 0
1, 8264, Control_c, 0, 64, 127
1, 8369, Note_on_c, 0, 69, 0
1, 8382, Note_on_c, 0, 62, 0
1, 8393, Marker_t, "Each note of Gm7 chord connected chromatically"
1, 8422, Note_on_c, 0, 59, 0
1, 8461, Note_on_c, 0, 53, 0
1, 8471, Note_on_c, 0, 43, 0
1, 8474, Note_on_c, 0, 58, 77
1, 8481, Note_on_c, 0, 46, 46
1, 8528, Note_on_c, 0, 58, 0
1, 8528, Note_on_c, 0, 59, 55
1, 8533, Control_c, 0, 64, 0
1, 8536, Note_on_c, 0, 46, 0
1, 8539, Note_on_c, 0, 47, 32
1, 8548, Note_on_c, 0, 59, 0
1, 8557, Control_c, 0, 64, 127
1, 8559, Note_on_c, 0, 47, 0
1, 8570, Note_on_c, 0, 61, 62
1, 8572, Note_on_c, 0, 46, 29
1, 8589, Note_on_c, 0, 46, 0
1, 8589, Control_c, 0, 64, 0
1, 8590, Note_on_c, 0, 61, 0
1, 8598, Note_on_c, 0, 62, 62
1, 8598, Note_on_c, 0, 48, 13
1, 8637, Note_on_c, 0, 62, 0
1, 8643, Note_on_c, 0, 48, 0
1, 8652, Note_on_c, 0, 51, 23
1, 8661, Control_c, 0, 64, 127
1, 8667, Note_on_c, 0, 63, 23
1, 8680, Note_on_c, 0, 63, 0
1, 8682, Note_on_c, 0, 64, 53
1, 8691, Note_on_c, 0, 52, 28
1, 8695, Note_on_c, 0, 51, 0
1, 8703, Control_c, 0, 64, 0
1, 8704, Note_on_c, 0, 52, 0
1, 8705, Note_on_c, 0, 64, 0
1, 8710, Note_on_c, 0, 65, 58
1, 8712, Note_on_c, 0, 53, 33
1, 8752, Control_c, 0, 64, 127
1, 8815, Note_on_c, 0, 65, 0
1, 8820, Note_on_c, 0, 53, 0
1, 8896, Note_on_c, 0, 69, 57
1, 8896, Note_on_c, 0, 62, 62
1, 8897, Note_on_c, 0, 58, 56
1, 8900, Control_c, 0, 64, 0
1, 8901, Note_on_c, 0, 65, 45
1, 8901, Note_on_c, 0, 43, 43
1, 8903, Note_on_c, 0, 53, 37
1, 8916, Control_c, 0, 64, 127
1, 8925, Note_on_c, 0, 62, 0
1, 8927, Note_on_c, 0, 58, 0
1, 8928, Note_on_c, 0, 65, 0
1, 8934, Note_on_c, 0, 69, 0
1, 8971, Note_on_c, 0, 72, 74
1, 9001, Note_on_c, 0, 72, 0
1, 9013, Note_on_c, 0, 53, 0
1, 9029, Note_on_c, 0, 43, 0
1, 9071, Note_on_c, 0, 45, 50
1, 9074, Control_c, 0, 64, 0
1, 9075, Note_on_c, 0, 64, 49
1, 9075, Note_on_c, 0, 55, 49
1, 9075, Note_on_c, 0, 60, 49
1, 9086, Control_c, 0, 64, 127
1, 9109, Note_on_c, 0, 55, 0
1, 9116, Note_on_c, 0, 60, 0
1, 9150, Note_on_c, 0, 64, 0
1, 9158, Note_on_c, 0, 45, 0
1, 9168, Note_on_c, 0, 62, 51
1, 9168, Note_on_c, 0, 57, 44
1, 9168, Note_on_c, 0, 46, 40
1, 9169, Control_c, 0, 64, 0
1, 9171, Note_on_c, 0, 58, 44
1, 9188, Note_on_c, 0, 57, 0
1, 9205, Note_on_c, 0, 58, 0
1, 9209, Note_on_c, 0, 62, 0
1, 9219, Note_on_c, 0, 46, 0
1, 9222, Note_on_c, 0, 47, 51
1, 9225, Note_on_c, 0, 56, 29
1, 9227, Note_on_c, 0, 62, 35
1, 9230, Note_on_c, 0, 59, 49
1, 9235, Control_c, 0, 64, 127
1, 9253, Note_on_c, 0, 59, 0
1, 9267, Note_on_c, 0, 56, 0
1, 9277, Note_on_c, 0, 62, 0
1, 9295, Note_on_c, 0, 47, 0
1, 9299, Control_c, 0, 64, 0
1, 9300, Note_on_c, 0, 62, 48
1, 9303, Note_on_c, 0, 48, 48
1, 9304, Note_on_c, 0, 58, 37
1, 9308, Note_on_c, 0, 55, 35
1, 9331, Control_c, 0, 64, 127
1, 9355, Note_on_c, 0, 55, 0
1, 9363, Note_on_c, 0, 62, 0
1, 9366, Note_on_c, 0, 58, 0
1, 9393, Control_c, 0, 64, 0
1, 9394, Note_on_c, 0, 36, 46
1, 9395, Note_on_c, 0, 69, 66
1, 9403, Control_c, 0, 64, 127
1, 9409, Note_on_c, 0, 36, 0
1, 9422, Note_on_c, 0, 48, 0
1, 9455, Note_on_c, 0, 69, 0
1, 9513, Note_on_c, 0, 65, 40
1, 9514, Note_on_c, 0, 58, 25
1, 9514, Note_on_c, 0, 62, 37
1, 9516, Note_on_c, 0, 48, 34
1, 9519, Note_on_c, 0, 57, 35
1, 9521, Control_c, 0, 64, 0
1, 9568, Control_c, 0, 64, 127
1, 9598, Note_on_c, 0, 62, 0
1, 9637, Note_on_c, 0, 62, 47
1, 9640, Note_on_c, 0, 57, 0
1, 9642, Note_on_c, 0, 58, 0
1, 9662, Note_on_c, 0, 48, 0
1, 9666, Note_on_c, 0, 65, 0
1, 9689, Note_on_c, 0, 62, 0
1, 9862, Marker_t, "Delay arrival of the tonic chord - approach it from underneath"
1, 9872, Note_on_c, 0, 65, 34
1, 9872, Note_on_c, 0, 39, 33
1, 9875, Control_c, 0, 64, 0
1, 9875, Note_on_c, 0, 55, 28
1, 9876, Note_on_c, 0, 60, 34
1, 9877, Note_on_c, 0, 46, 23
1, 9897, Control_c, 0, 64, 127
1, 9911, Note_on_c, 0, 55, 0
1, 9923, Note_on_c, 0, 39, 0
1, 9934, Note_on_c, 0, 46, 0
1, 9940, Note_on_c, 0, 60, 0
1, 9950, Note_on_c, 0, 40, 38
1, 9951, Control_c, 0, 64, 0
1, 9953, Note_on_c, 0, 47, 26
1, 9953, Note_on_c, 0, 61, 40
1, 9956, Note_on_c, 0, 56, 27
1, 9967, Control_c, 0, 64, 127
1, 9992, Note_on_c, 0, 40, 0
1, 10006, Note_on_c, 0, 65, 0
1, 10012, Note_on_c, 0, 56, 0
1, 10013, Note_on_c, 0, 47, 0
1, 10019, Note_on_c, 0, 61, 0
1, 10034, Note_on_c, 0, 57, 53
1, 10035, Note_on_c, 0, 65, 36
1, 10035, Control_c, 0, 64, 0
1, 10037, Note_on_c, 0, 62, 38
1, 10039, Note_on_c, 0, 41, 32
1, 10057, Note_on_c, 0, 57, 0
1, 10059, Control_c, 0, 64, 127
1, 10080, Note_on_c, 0, 65, 0
1, 10082, Note_on_c, 0, 62, 0
1, 10111, Note_on_c, 0, 41, 0
1, 10112, Note_on_c, 0, 48, 37
1, 10116, Note_on_c, 0, 72, 59
1, 10119, Note_on_c, 0, 72, 33
1, 10121, Note_on_c, 0, 48, 0
1, 10134, Note_on_c, 0, 72, 0
1, 10145, Note_on_c, 0, 72, 0
1, 10201, Note_on_c, 0, 72, 50
1, 10205, Note_on_c, 0, 62, 31
1, 10206, Note_on_c, 0, 48, 36
1, 10206, Note_on_c, 0, 65, 40
1, 10207, Note_on_c, 0, 58, 21
1, 10208, Control_c, 0, 64, 0
1, 10231, Note_on_c, 0, 62, 0
1, 10234, Control_c, 0, 64, 127
1, 10236, Note_on_c, 0, 65, 0
1, 10246, Note_on_c, 0, 72, 0
1, 10292, Note_on_c, 0, 58, 0
1, 10292, Note_on_c, 0, 84, 55
1, 10292, Note_on_c, 0, 55, 34
1, 10293, Note_on_c, 0, 48, 0
1, 10293, Note_on_c, 0, 72, 51
1, 10305, Note_on_c, 0, 55, 0
1, 10307, Note_on_c, 0, 72, 0
1, 10316, Note_on_c, 0, 84, 0
1, 10391, Note_on_c, 0, 93, 44
1, 10395, Note_on_c, 0, 81, 28
1, 10400, Note_on_c, 0, 58, 25
1, 10409, Note_on_c, 0, 81, 0
1, 10417, Note_on_c, 0, 93, 0
1, 10518, Note_on_c, 0, 89, 34
1, 10520, Note_on_c, 0, 101, 38
1, 10531, Note_on_c, 0, 64, 15
1, 10579, Note_on_c, 0, 101, 0
1, 10626, Note_on_c, 0, 89, 0
1, 10808, Note_on_c, 0, 77, 44
1, 10841, Note_on_c, 0, 77, 0
1, 10855, Note_on_c, 0, 81, 64
1, 10861, Note_on_c, 0, 64, 0
1, 10884, Note_on_c, 0, 81, 0
1, 10890, Note_on_c, 0, 58, 0
1, 10897, Note_on_c, 0, 84, 67
1, 10923, Note_on_c, 0, 84, 0
1, 10945, Note_on_c, 0, 88, 54
1, 10946, Note_on_c, 0, 76, 47
1, 10948, Control_c, 0, 64, 0
1, 10951, Note_on_c, 0, 53, 27
1, 10972, Note_on_c, 0, 76, 0
1, 10974, Control_c, 0, 64, 127
1, 10975, Note_on_c, 0, 88, 0
1, 11008, Note_on_c, 0, 93, 50
1, 11013, Note_on_c, 0, 60, 18
1, 11016, Note_on_c, 0, 93, 0
1, 11086, Note_on_c, 0, 88, 41
1, 11088, Note_on_c, 0, 76, 32
1, 11092, Note_on_c, 0, 81, 32
1, 11092, Note_on_c, 0, 64, 22
1, 11154, Note_on_c, 0, 53, 0
1, 11169, Note_on_c, 0, 88, 0
1, 11177, Note_on_c, 0, 81, 0
1, 11193, Note_on_c, 0, 76, 0
1, 11196, Note_on_c, 0, 53, 32
1, 11229, Note_on_c, 0, 64, 0
1, 11250, Note_on_c, 0, 53, 0
1, 11293, Note_on_c, 0, 60, 0
1, 11300, Note_on_c, 0, 77, 52
1, 11307, Note_on_c, 0, 70, 40
1, 11307, Note_on_c, 0, 63, 27
1, 11311, Note_on_c, 0, 67, 37
1, 11314, Note_on_c, 0, 53, 17
1, 11322, Note_on_c, 0, 58, 20
1, 11327, Control_c, 0, 64, 0
1, 11367, Control_c, 0, 64, 127
1, 11426, Note_on_c, 0, 63, 0
1, 11433, Note_on_c, 0, 60, 24
1, 11450, Note_on_c, 0, 67, 0
1, 11458, Note_on_c, 0, 77, 0
1, 11474, Note_on_c, 0, 70, 0
1, 11539, Note_on_c, 0, 63, 30
1, 11734, Note_on_c, 0, 77, 72
1, 11763, Note_on_c, 0, 77, 0
1, 11800, Note_on_c, 0, 72, 82
1, 11849, Note_on_c, 0, 63, 0
1, 11855, Note_on_c, 0, 72, 0
1, 11864, Note_on_c, 0, 60, 0
1, 11868, Note_on_c, 0, 69, 60
1, 11877, Note_on_c, 0, 58, 0
1, 11881, Note_on_c, 0, 53, 0
1, 11895, Note_on_c, 0, 69, 0
1, 12023, Note_on_c, 0, 61, 30
1, 12025, Note_on_c, 0, 46, 31
1, 12027, Note_on_c, 0, 69, 41
1, 12028, Note_on_c, 0, 64, 36
1, 12029, Control_c, 0, 64, 0
1, 12030, Note_on_c, 0, 53, 32
1, 12033, Note_on_c, 0, 57, 16
1, 12049, Control_c, 0, 64, 127
1, 12065, Note_on_c, 0, 57, 0
1, 12075, Note_on_c, 0, 64, 0
1, 12077, Note_on_c, 0, 61, 0
1, 12081, Note_on_c, 0, 69, 0
1, 12121, Note_on_c, 0, 53, 0
1, 12126, Note_on_c, 0, 65, 49
1, 12126, Note_on_c, 0, 72, 55
1, 12128, Note_on_c, 0, 54, 37
1, 12134, Control_c, 0, 64, 0
1, 12156, Control_c, 0, 64, 127
1, 12191, Note_on_c, 0, 65, 0
1, 12228, Note_on_c, 0, 54, 0
1, 12241, Note_on_c, 0, 65, 39
1, 12244, Note_on_c, 0, 62, 45
1, 12248, Note_on_c, 0, 55, 37
1, 12260, Control_c, 0, 64, 0
1, 12300, Control_c, 0, 64, 127
1, 12328, Note_on_c, 0, 46, 0
1, 12360, Note_on_c, 0, 45, 48
1, 12366, Control_c, 0, 64, 0
1, 12394, Control_c, 0, 64, 127
1, 12404, Note_on_c, 0, 72, 0
1, 12437, Note_on_c, 0, 65, 0
1, 12454, Note_on_c, 0, 62, 0
1, 12556, Note_on_c, 0, 45, 0
1, 12591, Note_on_c, 0, 45, 51
1, 12646, Note_on_c, 0, 55, 0
1, 12677, Note_on_c, 0, 58, 64
1, 12679, Note_on_c, 0, 62, 68
1, 12682, Note_on_c, 0, 55, 49
1, 12726, Note_on_c, 0, 58, 0
1, 12735, Note_on_c, 0, 65, 73
1, 12765, Note_on_c, 0, 45, 0
1, 12773, Note_on_c, 0, 65, 0
1, 12775, Note_on_c, 0, 62, 0
1, 12790, Note_on_c, 0, 65, 60
1, 12794, Note_on_c, 0, 45, 49
1, 12832, Note_on_c, 0, 65, 0
1, 12839, Note_on_c, 0, 69, 78
1, 12851, Note_on_c, 0, 45, 0
1, 12872, Note_on_c, 0, 69, 0
1, 12884, Note_on_c, 0, 55, 0
1, 12910, Note_on_c, 0, 65, 65
1, 12911, Note_on_c, 0, 72, 71
1, 12912, Note_on_c, 0, 43, 57
1, 12920, Control_c, 0, 64, 0
1, 12960, Control_c, 0, 64, 127
1, 12961, Note_on_c, 0, 72, 0
1, 12967, Note_on_c, 0, 65, 0
1, 12994, Note_on_c, 0, 76, 72
1, 12995, Note_on_c, 0, 50, 55
1, 13021, Note_on_c, 0, 43, 0
1, 13048, Note_on_c, 0, 50, 0
1, 13060, Note_on_c, 0, 76, 0
1, 13081, Note_on_c, 0, 57, 34
1, 13082, Note_on_c, 0, 76, 68
1, 13148, Note_on_c, 0, 57, 0
1, 13168, Note_on_c, 0, 58, 37
1, 13193, Note_on_c, 0, 76, 0
1, 13206, Note_on_c, 0, 58, 0
1, 13280, Note_on_c, 0, 84, 83
1, 13280, Note_on_c, 0, 76, 80
1, 13281, Note_on_c, 0, 73, 67
1, 13283, Note_on_c, 0, 72, 88
1, 13285, Note_on_c, 0, 79, 55
1, 13287, Note_on_c, 0, 82, 37
1, 13291, Control_c, 0, 64, 0
1, 13313, Control_c, 0, 64, 127
1, 13335, Note_on_c, 0, 84, 0
1, 13338, Note_on_c, 0, 79, 0
1, 13340, Note_on_c, 0, 76, 0
1, 13341, Note_on_c, 0, 82, 0
1, 13348, Note_on_c, 0, 72, 0
1, 13362, Note_on_c, 0, 73, 0
1, 13407, Note_on_c, 0, 81, 68
1, 13408, Note_on_c, 0, 73, 57
1, 13409, Note_on_c, 0, 70, 70
1, 13412, Note_on_c, 0, 69, 65
1, 13414, Note_on_c, 0, 76, 48
1, 13425, Control_c, 0, 64, 0
1, 13441, Control_c, 0, 64, 127
1, 13502, Note_on_c, 0, 81, 0
1, 13503, Note_on_c, 0, 70, 0
1, 13504, Note_on_c, 0, 69, 0
1, 13506, Note_on_c, 0, 76, 0
1, 13508, Note_on_c, 0, 73, 0
1, 13551, Note_on_c, 0, 73, 34
1, 13552, Note_on_c, 0, 70, 35
1, 13554, Note_on_c, 0, 76, 42
1, 13556, Note_on_c, 0, 69, 43
1, 13560, Note_on_c, 0, 81, 22
1, 13573, Note_on_c, 0, 69, 0
1, 13575, Note_on_c, 0, 81, 0
1, 13597, Note_on_c, 0, 76, 0
1, 13615, Note_on_c, 0, 73, 0
1, 13617, Note_on_c, 0, 70, 0
1, 13778, Note_on_c, 0, 77, 40
1, 13780, Note_on_c, 0, 70, 27
1, 13781, Note_on_c, 0, 58, 29
1, 13783, Note_on_c, 0, 74, 40
1, 13783, Note_on_c, 0, 65, 33
1, 13784, Note_on_c, 0, 48, 32
1, 13790, Control_c, 0, 64, 0
1, 13802, Control_c, 0, 64, 127
1, 13822, Note_on_c, 0, 65, 0
1, 13830, Note_on_c, 0, 74, 0
1, 13831, Note_on_c, 0, 58, 0
1, 13833, Note_on_c, 0, 70, 0
1, 13841, Note_on_c, 0, 77, 0
1, 13911, Note_on_c, 0, 81, 58
1, 13914, Note_on_c, 0, 57, 33
1, 13917, Note_on_c, 0, 76, 47
1, 13919, Note_on_c, 0, 69, 40
1, 13921, Control_c, 0, 64, 0
1, 13959, Control_c, 0, 64, 127
1, 13973, Note_on_c, 0, 48, 0
1, 13993, Note_on_c, 0, 81, 0
1, 14003, Note_on_c, 0, 76, 0
1, 14007, Note_on_c, 0, 48, 49
1, 14010, Note_on_c, 0, 69, 0
1, 14028, Note_on_c, 0, 57, 0
1, 14092, Note_on_c, 0, 65, 48
1, 14095, Note_on_c, 0, 57, 33
1, 14099, Note_on_c, 0, 60, 38
1, 14147, Note_on_c, 0, 60, 0
1, 14159, Note_on_c, 0, 72, 74
1, 14177, Note_on_c, 0, 48, 0
1, 14193, Note_on_c, 0, 72, 0
1, 14217, Note_on_c, 0, 65, 0
1, 14233, Note_on_c, 0, 73, 55
1, 14237, Note_on_c, 0, 49, 48
1, 14247, Note_on_c, 0, 57, 0
1, 14249, Control_c, 0, 64, 0
1, 14276, Control_c, 0, 64, 127
1, 14295, Note_on_c, 0, 73, 0
1, 14304, Note_on_c, 0, 49, 0
1, 14310, Note_on_c, 0, 57, 40
1, 14356, Note_on_c, 0, 57, 0
1, 14371, Note_on_c, 0, 61, 34
1, 14377, Note_on_c, 0, 73, 25
1, 14377, Note_on_c, 0, 76, 35
1, 14383, Note_on_c, 0, 69, 24
1, 14431, Note_on_c, 0, 69, 0
1, 14431, Note_on_c, 0, 76, 0
1, 14434, Note_on_c, 0, 61, 0
1, 14438, Note_on_c, 0, 79, 64
1, 14440, Note_on_c, 0, 62, 47
1, 14448, Note_on_c, 0, 62, 0
1, 14454, Note_on_c, 0, 73, 0
1, 14471, Note_on_c, 0, 79, 0
1, 14471, Note_on_c, 0, 69, 15
1, 14505, Note_on_c, 0, 69, 0
1, 14516, Note_on_c, 0, 77, 52
1, 14522, Note_on_c, 0, 50, 36
1, 14530, Control_c, 0, 64, 0
1, 14584, Control_c, 0, 64, 127
1, 14598, Note_on_c, 0, 57, 29
1, 14639, Note_on_c, 0, 50, 0
1, 14667, Note_on_c, 0, 77, 0
1, 14676, Note_on_c, 0, 65, 25
1, 14677, Note_on_c, 0, 69, 41
1, 14682, Note_on_c, 0, 64, 24
1, 14714, Note_on_c, 0, 64, 0
1, 14751, Note_on_c, 0, 76, 72
1, 14776, Note_on_c, 0, 60, 6
1, 14820, Note_on_c, 0, 76, 0
1, 14849, Note_on_c, 0, 76, 62
1, 14858, Note_on_c, 0, 50, 29
1, 14863, Note_on_c, 0, 57, 0
1, 14865, Control_c, 0, 64, 0
1, 14889, Control_c, 0, 64, 127
1, 14907, Note_on_c, 0, 69, 0
1, 14924, Note_on_c, 0, 65, 0
1, 14946, Note_on_c, 0, 60, 0
1, 14953, Note_on_c, 0, 74, 55
1, 14960, Note_on_c, 0, 57, 19
1, 14963, Note_on_c, 0, 76, 0
1, 14971, Note_on_c, 0, 57, 0
1, 14978, Note_on_c, 0, 50, 0
1, 15083, Note_on_c, 0, 44, 49
1, 15094, Control_c, 0, 64, 0
1, 15100, Control_c, 0, 64, 127
1, 15105, Note_on_c, 0, 44, 0
1, 15171, Note_on_c, 0, 74, 0
1, 15184, Note_on_c, 0, 72, 74
1, 15186, Note_on_c, 0, 54, 40
1, 15186, Note_on_c, 0, 65, 43
1, 15189, Note_on_c, 0, 60, 40
1, 15254, Note_on_c, 0, 72, 0
1, 15257, Note_on_c, 0, 65, 0
1, 15264, Note_on_c, 0, 69, 65
1, 15295, Note_on_c, 0, 60, 0
1, 15307, Note_on_c, 0, 54, 0
1, 15315, Note_on_c, 0, 69, 0
1, 15320, Note_on_c, 0, 66, 73
1, 15374, Note_on_c, 0, 66, 0
1, 15387, Note_on_c, 0, 65, 75
1, 15389, Note_on_c, 0, 43, 36
1, 15390, Note_on_c, 0, 53, 47
1, 15401, Control_c, 0, 64, 0
1, 15427, Control_c, 0, 64, 127
1, 15439, Note_on_c, 0, 53, 0
1, 15457, Note_on_c, 0, 65, 0
1, 15467, Note_on_c, 0, 69, 67
1, 15469, Note_on_c, 0, 54, 51
1, 15473, Control_c, 0, 64, 0
1, 15499, Control_c, 0, 64, 127
1, 15534, Note_on_c, 0, 54, 0
1, 15555, Note_on_c, 0, 53, 46
1, 15556, Note_on_c, 0, 59, 46
1, 15557, Note_on_c, 0, 64, 35
1, 15563, Control_c, 0, 64, 0
1, 15583, Control_c, 0, 64, 127
1, 15623, Note_on_c, 0, 64, 0
1, 15629, Note_on_c, 0, 59, 0
1, 15636, Note_on_c, 0, 53, 0
1, 15652, Control_c, 0, 64, 0
1, 15652, Note_on_c, 0, 59, 39
1, 15652, Note_on_c, 0, 63, 39
1, 15654, Note_on_c, 0, 53, 34
1, 15668, Control_c, 0, 64, 127
1, 15723, Note_on_c, 0, 59, 0
1, 15735, Note_on_c, 0, 63, 0
1, 15738, Note_on_c, 0, 53, 0
1, 15762, Note_on_c, 0, 62, 38
1, 15762, Note_on_c, 0, 59, 30
1, 15763, Note_on_c, 0, 53, 35
1, 15770, Control_c, 0, 64, 0
1, 15802, Control_c, 0, 64, 127
1, 15820, Note_on_c, 0, 69, 0
1, 15828, Note_on_c, 0, 59, 0
1, 15860, Note_on_c, 0, 58, 92
1, 15916, Note_on_c, 0, 58, 0
1, 15931, Note_on_c, 0, 62, 0
1, 15941, Note_on_c, 0, 58, 88
1, 15981, Note_on_c, 0, 53, 0
1, 16015, Note_on_c, 0, 62, 71
1, 16028, Note_on_c, 0, 58, 0
1, 16028, Note_on_c, 0, 43, 0
1, 16076, Note_on_c, 0, 65, 72
1, 16091, Note_on_c, 0, 62, 0
1, 16113, Note_on_c, 0, 65, 0
1, 16155, Note_on_c, 0, 69, 66
1, 16156, Note_on_c, 0, 62, 65
1, 16157, Note_on_c, 0, 43, 44
1, 16157, Note_on_c, 0, 31, 55
1, 16158, Note_on_c, 0, 65, 57
1, 16158, Note_on_c, 0, 57, 62
1, 16161, Control_c, 0, 64, 0
1, 16175, Control_c, 0, 64, 127
1, 16178, Note_on_c, 0, 57, 0
1, 16186, Note_on_c, 0, 62, 0
1, 16188, Note_on_c, 0, 65, 0
1, 16190, Note_on_c, 0, 69, 0
1, 16221, Note_on_c, 0, 72, 69
1, 16225, Note_on_c, 0, 71, 67
1, 16268, Note_on_c, 0, 72, 0
1, 16277, Note_on_c, 0, 71, 0
1, 16283, Note_on_c, 0, 31, 0
1, 16304, Note_on_c, 0, 43, 0
1, 16341, Note_on_c, 0, 33, 46
1, 16341, Note_on_c, 0, 55, 46
1, 16341, Note_on_c, 0, 64, 44
1, 16341, Note_on_c, 0, 60, 51
1, 16345, Note_on_c, 0, 45, 28
1, 16346, Control_c, 0, 64, 0
1, 16364, Control_c, 0, 64, 127
1, 16393, Note_on_c, 0, 60, 0
1, 16395, Note_on_c, 0, 33, 0
1, 16396, Note_on_c, 0, 55, 0
1, 16406, Note_on_c, 0, 45, 0
1, 16418, Note_on_c, 0, 64, 0
1, 16450, Note_on_c, 0, 62, 45
1, 16450, Control_c, 0, 64, 0
1, 16451, Note_on_c, 0, 58, 40
1, 16451, Note_on_c, 0, 53, 45
1, 16452, Note_on_c, 0, 34, 37
1, 16454, Note_on_c, 0, 46, 26
1, 16480, Control_c, 0, 64, 127
1, 16500, Note_on_c, 0, 34, 0
1, 16508, Note_on_c, 0, 53, 0
1, 16508, Note_on_c, 0, 46, 0
1, 16516, Note_on_c, 0, 62, 0
1, 16531, Note_on_c, 0, 58, 0
1, 16577, Note_on_c, 0, 61, 39
1, 16581, Note_on_c, 0, 55, 36
1, 16585, Note_on_c, 0, 61, 0
1, 16585, Note_on_c, 0, 62, 58
1, 16587, Note_on_c, 0, 58, 15
1, 16590, Note_on_c, 0, 48, 34
1, 16593, Note_on_c, 0, 36, 26
1, 16600, Control_c, 0, 64, 0
1, 16685, Control_c, 0, 64, 127
1, 16700, Note_on_c, 0, 65, 54
1, 16756, Note_on_c, 0, 55, 0
1, 16762, Note_on_c, 0, 48, 0
1, 16771, Note_on_c, 0, 62, 0
1, 16776, Note_on_c, 0, 65, 0
1, 16788, Note_on_c, 0, 58, 0
1, 16842, Note_on_c, 0, 58, 34
1, 16842, Note_on_c, 0, 62, 41
1, 16844, Note_on_c, 0, 65, 36
1, 16845, Note_on_c, 0, 48, 32
1, 16850, Note_on_c, 0, 53, 14
1, 16853, Control_c, 0, 64, 0
1, 16889, Control_c, 0, 64, 127
1, 16953, Note_on_c, 0, 65, 0
1, 17006, Note_on_c, 0, 65, 35
1, 17056, Note_on_c, 0, 36, 0
1, 17075, Note_on_c, 0, 48, 0
1, 17077, Note_on_c, 0, 53, 0
1, 17097, Note_on_c, 0, 58, 0
1, 17105, Note_on_c, 0, 65, 0
1, 17115, Note_on_c, 0, 62, 0
1, 17165, Note_on_c, 0, 41, 38
1, 17165, Note_on_c, 0, 65, 40
1, 17168, Control_c, 0, 64, 0
1, 17188, Control_c, 0, 64, 127
1, 17212, Note_on_c, 0, 65, 0
1, 17232, Note_on_c, 0, 48, 48
1, 17253, Note_on_c, 0, 41, 0
1, 17285, Note_on_c, 0, 48, 0
1, 17300, Note_on_c, 0, 57, 35
1, 17325, Note_on_c, 0, 57, 0
1, 17361, Note_on_c, 0, 60, 40
1, 17423, Note_on_c, 0, 64, 48
1, 17472, Note_on_c, 0, 72, 77
1, 17473, Note_on_c, 0, 64, 0
1, 17485, Note_on_c, 0, 60, 0
1, 17508, Note_on_c, 0, 72, 0
1, 17524, Note_on_c, 0, 77, 80
1, 17561, Note_on_c, 0, 77, 0
1, 17576, Note_on_c, 0, 76, 80
1, 17622, Note_on_c, 0, 76, 0
1, 17629, Control_c, 0, 64, 0
1, 17629, Note_on_c, 0, 47, 53
1, 17630, Note_on_c, 0, 74, 60
1, 17638, Note_on_c, 0, 47, 0
1, 17650, Control_c, 0, 64, 127
1, 17695, Note_on_c, 0, 57, 45
1, 17754, Note_on_c, 0, 69, 53
1, 17756, Note_on_c, 0, 62, 35
1, 17796, Note_on_c, 0, 74, 0
1, 17806, Note_on_c, 0, 69, 0
1, 17824, Note_on_c, 0, 57, 0
1, 17825, Note_on_c, 0, 74, 46
1, 17888, Note_on_c, 0, 74, 0
1, 17909, Note_on_c, 0, 62, 0
1, 17909, Note_on_c, 0, 72, 49
1, 17912, Note_on_c, 0, 74, 40
1, 17915, Note_on_c, 0, 56, 35
1, 17926, Control_c, 0, 64, 0
1, 17958, Control_c, 0, 64, 127
1, 17994, Note_on_c, 0, 62, 38
1, 18074, Note_on_c, 0, 72, 0
1, 18099, Note_on_c, 0, 71, 41
1, 18108, Note_on_c, 0, 65, 24
1, 18279, Note_on_c, 0, 65, 0
1, 18294, Note_on_c, 0, 62, 0
1, 18309, Note_on_c, 0, 56, 0
1, 18481, Note_on_c, 0, 40, 73
1, 18483, Note_on_c, 0, 33, 62
1, 18484, Note_on_c, 0, 71, 0
1, 18486, Note_on_c, 0, 74, 0
1, 18502, Control_c, 0, 64, 0
1, 18532, Control_c, 0, 64, 127
1, 18603, Note_on_c, 0, 33, 0
1, 18612, Note_on_c, 0, 40, 0
1, 19280, Marker_t, "Melody harmonised with alternating drop 2 Am6/E7b9 chords "
1, 19303, Note_on_c, 0, 69, 43
1, 19304, Note_on_c, 0, 66, 31
1, 19307, Note_on_c, 0, 64, 43
1, 19308, Note_on_c, 0, 54, 30
1, 19311, Note_on_c, 0, 60, 14
1, 19368, Note_on_c, 0, 64, 0
1, 19373, Note_on_c, 0, 60, 0
1, 19492, Note_on_c, 0, 69, 0
1, 19500, Note_on_c, 0, 66, 0
1, 19518, Note_on_c, 0, 54, 0
1, 19548, Note_on_c, 0, 69, 58
1, 19549, Note_on_c, 0, 54, 44
1, 19550, Note_on_c, 0, 60, 44
1, 19550, Note_on_c, 0, 64, 53
1, 19599, Note_on_c, 0, 60, 0
1, 19616, Note_on_c, 0, 64, 0
1, 19622, Note_on_c, 0, 69, 0
1, 19648, Note_on_c, 0, 71, 64
1, 19649, Note_on_c, 0, 68, 57
1, 19651, Note_on_c, 0, 62, 37
1, 19651, Note_on_c, 0, 56, 58
1, 19652, Note_on_c, 0, 54, 0
1, 19653, Note_on_c, 0, 64, 44
1, 19667, Note_on_c, 0, 64, 0
1, 19675, Note_on_c, 0, 62, 0
1, 19685, Note_on_c, 0, 71, 0
1, 19693, Note_on_c, 0, 68, 0
1, 19713, Note_on_c, 0, 72, 63
1, 19715, Note_on_c, 0, 64, 58
1, 19716, Note_on_c, 0, 57, 59
1, 19718, Note_on_c, 0, 69, 48
1, 19719, Note_on_c, 0, 67, 47
1, 19720, Note_on_c, 0, 56, 0
1, 19722, Control_c, 0, 64, 0
1, 19728, Control_c, 0, 64, 127
1, 19730, Note_on_c, 0, 71, 24
1, 19736, Note_on_c, 0, 64, 0
1, 19741, Note_on_c, 0, 67, 0
1, 19745, Note_on_c, 0, 69, 0
1, 19748, Note_on_c, 0, 72, 0
1, 19748, Note_on_c, 0, 71, 0
1, 19771, Note_on_c, 0, 74, 68
1, 19775, Note_on_c, 0, 65, 70
1, 19775, Note_on_c, 0, 71, 64
1, 19776, Note_on_c, 0, 68, 53
1, 19776, Control_c, 0, 64, 0
1, 19777, Note_on_c, 0, 59, 68
1, 19782, Note_on_c, 0, 72, 34
1, 19787, Note_on_c, 0, 57, 0
1, 19796, Control_c, 0, 64, 127
1, 19809, Note_on_c, 0, 65, 0
1, 19813, Note_on_c, 0, 68, 0
1, 19813, Note_on_c, 0, 74, 0
1, 19819, Note_on_c, 0, 72, 0
1, 19822, Note_on_c, 0, 71, 0
1, 19832, Control_c, 0, 64, 0
1, 19833, Note_on_c, 0, 76, 74
1, 19836, Note_on_c, 0, 67, 67
1, 19837, Note_on_c, 0, 71, 77
1, 19837, Note_on_c, 0, 60, 67
1, 19838, Note_on_c, 0, 59, 0
1, 19844, Note_on_c, 0, 72, 28
1, 19848, Control_c, 0, 64, 127
1, 19864, Note_on_c, 0, 74, 4
1, 19871, Note_on_c, 0, 72, 0
1, 19874, Note_on_c, 0, 71, 0
1, 19876, Note_on_c, 0, 76, 0
1, 19879, Note_on_c, 0, 74, 0
1, 19880, Note_on_c, 0, 67, 0
1, 19896, Note_on_c, 0, 74, 50
1, 19896, Control_c, 0, 64, 0
1, 19897, Note_on_c, 0, 60, 0
1, 19901, Note_on_c, 0, 59, 57
1, 19902, Note_on_c, 0, 65, 50
1, 19903, Note_on_c, 0, 71, 43
1, 19903, Note_on_c, 0, 69, 45
1, 19904, Control_c, 0, 64, 127
1, 19926, Note_on_c, 0, 74, 0
1, 19927, Note_on_c, 0, 71, 0
1, 19930, Note_on_c, 0, 69, 0
1, 19936, Note_on_c, 0, 65, 0
1, 19965, Note_on_c, 0, 72, 56
1, 19968, Note_on_c, 0, 57, 40
1, 19969, Note_on_c, 0, 59, 0
1, 19969, Note_on_c, 0, 64, 40
1, 19973, Note_on_c, 0, 69, 31
1, 19974, Note_on_c, 0, 67, 36
1, 19977, Note_on_c, 0, 57, 0
1, 19983, Note_on_c, 0, 69, 0
1, 19983, Note_on_c, 0, 67, 0
1, 19984, Note_on_c, 0, 64, 0
1, 19987, Note_on_c, 0, 72, 0
1, 20049, Control_c, 0, 64, 0
1, 20051, Note_on_c, 0, 47, 43
1, 20053, Note_on_c, 0, 69, 22
1, 20089, Control_c, 0, 64, 127
1, 20112, Note_on_c, 0, 69, 0
1, 20115, Note_on_c, 0, 47, 0
1, 20117, Note_on_c, 0, 57, 52
1, 20134, Note_on_c, 0, 57, 0
1, 20170, Note_on_c, 0, 62, 44
1, 20208, Note_on_c, 0, 69, 53
1, 20219, Note_on_c, 0, 69, 0
1, 20243, Note_on_c, 0, 74, 38
1, 20267, Note_on_c, 0, 62, 0
1, 20272, Note_on_c, 0, 74, 0
1, 20285, Note_on_c, 0, 77, 62
1, 20308, Note_on_c, 0, 77, 0
1, 20321, Note_on_c, 0, 81, 75
1, 20321, Note_on_c, 0, 77, 70
1, 20352, Note_on_c, 0, 77, 0
1, 20358, Note_on_c, 0, 81, 0
1, 20370, Note_on_c, 0, 79, 54
1, 20372, Note_on_c, 0, 76, 57
1, 20404, Note_on_c, 0, 79, 0
1, 20408, Note_on_c, 0, 76, 0
1, 20425, Note_on_c, 0, 76, 41
1, 20426, Note_on_c, 0, 79, 38
1, 20435, Note_on_c, 0, 56, 31
1, 20444, Control_c, 0, 64, 0
1, 20476, Control_c, 0, 64, 127
1, 20477, Note_on_c, 0, 79, 0
1, 20480, Note_on_c, 0, 76, 0
1, 20484, Note_on_c, 0, 74, 50
1, 20486, Note_on_c, 0, 77, 44
1, 20489, Note_on_c, 0, 62, 34
1, 20530, Note_on_c, 0, 74, 0
1, 20546, Note_on_c, 0, 77, 0
1, 20558, Note_on_c, 0, 67, 44
1, 20559, Note_on_c, 0, 72, 34
1, 20564, Note_on_c, 0, 76, 32
1, 20580, Note_on_c, 0, 67, 0
1, 20600, Note_on_c, 0, 72, 0
1, 20621, Note_on_c, 0, 76, 0
1, 20637, Note_on_c, 0, 65, 33
1, 20638, Note_on_c, 0, 71, 45
1, 20639, Note_on_c, 0, 74, 53
1, 20651, Note_on_c, 0, 65, 0
1, 20651, Note_on_c, 0, 62, 0
1, 20656, Note_on_c, 0, 74, 0
1, 20659, Note_on_c, 0, 71, 0
1, 20666, Note_on_c, 0, 56, 0
1, 20719, Note_on_c, 0, 72, 54
1, 20723, Control_c, 0, 64, 0
1, 20724, Note_on_c, 0, 67, 44
1, 20724, Note_on_c, 0, 57, 34
1, 20726, Note_on_c, 0, 64, 32
1, 20727, Note_on_c, 0, 60, 29
1, 20729, Note_on_c, 0, 69, 37
1, 20739, Note_on_c, 0, 60, 0
1, 20741, Control_c, 0, 64, 127
1, 20749, Note_on_c, 0, 69, 0
1, 20750, Note_on_c, 0, 57, 0
1, 20754, Note_on_c, 0, 67, 0
1, 20758, Note_on_c, 0, 72, 0
1, 20764, Note_on_c, 0, 64, 0
1, 20819, Note_on_c, 0, 69, 73
1, 20821, Note_on_c, 0, 60, 66
1, 20821, Note_on_c, 0, 66, 60
1, 20821, Note_on_c, 0, 64, 72
1, 20852, Note_on_c, 0, 69, 0
1, 20858, Note_on_c, 0, 60, 0
1, 20861, Note_on_c, 0, 64, 0
1, 20872, Note_on_c, 0, 66, 0
1, 20893, Note_on_c, 0, 71, 72
1, 20894, Control_c, 0, 64, 0
1, 20895, Note_on_c, 0, 62, 68
1, 20895, Note_on_c, 0, 65, 63
1, 20897, Note_on_c, 0, 66, 42
1, 20897, Note_on_c, 0, 45, 51
1, 20899, Note_on_c, 0, 68, 42
1, 20909, Control_c, 0, 64, 127
1, 20920, Note_on_c, 0, 65, 0
1, 20921, Note_on_c, 0, 66, 0
1, 20921, Note_on_c, 0, 62, 0
1, 20926, Note_on_c, 0, 71, 0
1, 20929, Note_on_c, 0, 68, 0
1, 20952, Note_on_c, 0, 74, 58
1, 20952, Note_on_c, 0, 64, 61
1, 20952, Note_on_c, 0, 72, 54
1, 20956, Note_on_c, 0, 69, 45
1, 20956, Note_on_c, 0, 67, 54
1, 20960, Note_on_c, 0, 71, 50
1, 20971, Note_on_c, 0, 71, 0
1, 20973, Note_on_c, 0, 64, 0
1, 20973, Note_on_c, 0, 67, 0
1, 20975, Note_on_c, 0, 69, 0
1, 20979, Note_on_c, 0, 74, 0
1, 20980, Note_on_c, 0, 72, 0
1, 21009, Note_on_c, 0, 74, 68
1, 21011, Note_on_c, 0, 56, 51
1, 21012, Note_on_c, 0, 68, 62
1, 21013, Note_on_c, 0, 65, 71
1, 21013, Note_on_c, 0, 71, 64
1, 21014, Control_c, 0, 64, 0
1, 21018, Note_on_c, 0, 72, 43
1, 21034, Control_c, 0, 64, 127
1, 21044, Note_on_c, 0, 65, 0
1, 21044, Note_on_c, 0, 74, 0
1, 21048, Note_on_c, 0, 68, 0
1, 21052, Note_on_c, 0, 72, 0
1, 21055, Note_on_c, 0, 71, 0
1, 21073, Note_on_c, 0, 76, 73
1, 21076, Note_on_c, 0, 71, 64
1, 21076, Note_on_c, 0, 67, 65
1, 21078, Note_on_c, 0, 72, 57
1, 21098, Note_on_c, 0, 56, 0
1, 21099, Note_on_c, 0, 72, 0
1, 21102, Note_on_c, 0, 71, 0
1, 21103, Note_on_c, 0, 45, 0
1, 21105, Note_on_c, 0, 76, 0
1, 21110, Note_on_c, 0, 67, 0
1, 21135, Note_on_c, 0, 74, 64
1, 21139, Note_on_c, 0, 65, 60
1, 21139, Note_on_c, 0, 45, 40
1, 21140, Note_on_c, 0, 69, 60
1, 21141, Note_on_c, 0, 71, 50
1, 21142, Control_c, 0, 64, 0
1, 21158, Control_c, 0, 64, 127
1, 21167, Note_on_c, 0, 71, 0
1, 21167, Note_on_c, 0, 74, 0
1, 21168, Note_on_c, 0, 69, 0
1, 21182, Note_on_c, 0, 65, 0
1, 21207, Note_on_c, 0, 72, 40
1, 21210, Note_on_c, 0, 67, 44
1, 21210, Note_on_c, 0, 64, 48
1, 21216, Note_on_c, 0, 69, 32
1, 21224, Note_on_c, 0, 69, 0
1, 21225, Note_on_c, 0, 45, 0
1, 21225, Note_on_c, 0, 67, 0
1, 21225, Note_on_c, 0, 72, 0
1, 21230, Note_on_c, 0, 64, 0
1, 21289, Note_on_c, 0, 44, 43
1, 21292, Note_on_c, 0, 60, 34
1, 21293, Note_on_c, 0, 64, 40
1, 21294, Control_c, 0, 64, 0
1, 21330, Control_c, 0, 64, 127
1, 21344, Note_on_c, 0, 54, 34
1, 21345, Note_on_c, 0, 60, 0
1, 21352, Note_on_c, 0, 64, 0
1, 21353, Note_on_c, 0, 44, 0
1, 21367, Note_on_c, 0, 54, 0
1, 21407, Note_on_c, 0, 60, 47
1, 21459, Note_on_c, 0, 72, 43
1, 21469, Note_on_c, 0, 72, 0
1, 21480, Note_on_c, 0, 60, 0
1, 21528, Note_on_c, 0, 64, 30
1, 21530, Note_on_c, 0, 81, 29
1, 21532, Note_on_c, 0, 59, 28
1, 21533, Note_on_c, 0, 79, 27
1, 21534, Note_on_c, 0, 69, 24
1, 21535, Control_c, 0, 64, 0
1, 21545, Note_on_c, 0, 81, 0
1, 21549, Note_on_c, 0, 67, 7
1, 21579, Control_c, 0, 64, 127
1, 21588, Note_on_c, 0, 69, 0
1, 21597, Note_on_c, 0, 59, 0
1, 21599, Note_on_c, 0, 64, 0
1, 21601, Note_on_c, 0, 53, 22
1, 21611, Note_on_c, 0, 53, 0
1, 21672, Note_on_c, 0, 50, 55
1, 21702, Note_on_c, 0, 67, 0
1, 21717, Note_on_c, 0, 79, 0
1, 21741, Note_on_c, 0, 43, 53
1, 21743, Note_on_c, 0, 50, 0
1, 21750, Note_on_c, 0, 43, 0
1, 21823, Note_on_c, 0, 72, 73
1, 21824, Note_on_c, 0, 63, 71
1, 21824, Note_on_c, 0, 67, 76
1, 21825, Note_on_c, 0, 48, 55
1, 21829, Note_on_c, 0, 55, 45
1, 21830, Control_c, 0, 64, 0
1, 21831, Note_on_c, 0, 69, 36
1, 21848, Control_c, 0, 64, 127
1, 21878, Note_on_c, 0, 48, 0
1, 21907, Note_on_c, 0, 48, 61
1, 21916, Note_on_c, 0, 69, 0
1, 21921, Note_on_c, 0, 63, 0
1, 21922, Note_on_c, 0, 72, 0
1, 21922, Note_on_c, 0, 67, 0
1, 22000, Note_on_c, 0, 74, 64
1, 22002, Note_on_c, 0, 68, 59
1, 22002, Note_on_c, 0, 65, 69
1, 22003, Note_on_c, 0, 71, 63
1, 22005, Note_on_c, 0, 55, 0
1, 22008, Note_on_c, 0, 57, 39
1, 22019, Control_c, 0, 64, 0
1, 22026, Control_c, 0, 64, 127
1, 22028, Note_on_c, 0, 48, 0
1, 22039, Note_on_c, 0, 74, 0
1, 22041, Note_on_c, 0, 65, 0
1, 22047, Note_on_c, 0, 68, 0
1, 22048, Note_on_c, 0, 71, 0
1, 22085, Note_on_c, 0, 57, 0
1, 22085, Note_on_c, 0, 75, 69
1, 22087, Note_on_c, 0, 67, 64
1, 22088, Note_on_c, 0, 59, 54
1, 22089, Note_on_c, 0, 69, 60
1, 22091, Note_on_c, 0, 72, 42
1, 22112, Note_on_c, 0, 69, 0
1, 22114, Note_on_c, 0, 67, 0
1, 22116, Note_on_c, 0, 72, 0
1, 22127, Note_on_c, 0, 75, 0
1, 22160, Note_on_c, 0, 77, 68
1, 22163, Note_on_c, 0, 59, 0
1, 22163, Note_on_c, 0, 68, 69
1, 22164, Note_on_c, 0, 71, 66
1, 22166, Note_on_c, 0, 74, 53
1, 22169, Control_c, 0, 64, 0
1, 22173, Note_on_c, 0, 60, 36
1, 22179, Control_c, 0, 64, 127
1, 22193, Note_on_c, 0, 74, 0
1, 22194, Note_on_c, 0, 71, 0
1, 22195, Note_on_c, 0, 77, 0
1, 22195, Note_on_c, 0, 68, 0
1, 22228, Note_on_c, 0, 79, 76
1, 22264, Note_on_c, 0, 79, 0
1, 22282, Note_on_c, 0, 77, 71
1, 22319, Note_on_c, 0, 60, 0
1, 22321, Note_on_c, 0, 77, 0
1, 22338, Note_on_c, 0, 75, 68
1, 22365, Note_on_c, 0, 75, 0
1, 22405, Note_on_c, 0, 65, 34
1, 22406, Note_on_c, 0, 72, 46
1, 22408, Note_on_c, 0, 60, 35
1, 22413, Note_on_c, 0, 50, 37
1, 22422, Control_c, 0, 64, 0
1, 22471, Control_c, 0, 64, 127
1, 22481, Note_on_c, 0, 56, 37
1, 22483, Note_on_c, 0, 60, 0
1, 22493, Note_on_c, 0, 72, 0
1, 22509, Note_on_c, 0, 65, 0
1, 22545, Note_on_c, 0, 65, 49
1, 22548, Note_on_c, 0, 60, 34
1, 22581, Note_on_c, 0, 65, 0
1, 22582, Note_on_c, 0, 50, 0
1, 22598, Note_on_c, 0, 60, 0
1, 22601, Note_on_c, 0, 56, 0
1, 22607, Note_on_c, 0, 68, 49
1, 22637, Note_on_c, 0, 68, 0
1, 22676, Note_on_c, 0, 75, 53
1, 22678, Note_on_c, 0, 68, 37
1, 22678, Note_on_c, 0, 63, 52
1, 22679, Note_on_c, 0, 65, 44
1, 22681, Note_on_c, 0, 71, 45
1, 22686, Control_c, 0, 64, 0
1, 22712, Control_c, 0, 64, 127
1, 22741, Note_on_c, 0, 63, 0
1, 22750, Note_on_c, 0, 65, 0
1, 22751, Note_on_c, 0, 75, 0
1, 22753, Note_on_c, 0, 71, 0
1, 22757, Note_on_c, 0, 68, 0
1, 22772, Note_on_c, 0, 62, 39
1, 22841, Note_on_c, 0, 62, 0
1, 22871, Note_on_c, 0, 59, 28
1, 22961, Note_on_c, 0, 59, 0
1, 22966, Note_on_c, 0, 67, 42
1, 23003, Note_on_c, 0, 67, 0
1, 23131, Marker_t, "Series of altered dominant chords with low  pedal note (C)"
1, 23145, Note_on_c, 0, 76, 66
1, 23149, Note_on_c, 0, 62, 43
1, 23149, Note_on_c, 0, 72, 55
1, 23152, Note_on_c, 0, 67, 55
1, 23154, Control_c, 0, 64, 0
1, 23155, Note_on_c, 0, 56, 26
1, 23168, Control_c, 0, 64, 127
1, 23177, Note_on_c, 0, 62, 0
1, 23188, Note_on_c, 0, 56, 0
1, 23209, Note_on_c, 0, 76, 0
1, 23233, Note_on_c, 0, 76, 48
1, 23307, Note_on_c, 0, 24, 27
1, 23314, Note_on_c, 0, 24, 0
1, 23342, Note_on_c, 0, 76, 0
1, 23412, Note_on_c, 0, 76, 33
1, 23426, Note_on_c, 0, 67, 0
1, 23427, Note_on_c, 0, 72, 0
1, 23434, Note_on_c, 0, 76, 0
1, 23493, Note_on_c, 0, 77, 50
1, 23495, Note_on_c, 0, 61, 30
1, 23497, Note_on_c, 0, 69, 36
1, 23498, Note_on_c, 0, 65, 33
1, 23504, Note_on_c, 0, 72, 24
1, 23505, Note_on_c, 0, 55, 37
1, 23507, Control_c, 0, 64, 0
1, 23525, Control_c, 0, 64, 127
1, 23547, Note_on_c, 0, 55, 0
1, 23549, Note_on_c, 0, 61, 0
1, 23557, Note_on_c, 0, 77, 0
1, 23586, Note_on_c, 0, 77, 42
1, 23670, Note_on_c, 0, 24, 38
1, 23690, Note_on_c, 0, 24, 0
1, 23757, Note_on_c, 0, 77, 0
1, 23792, Note_on_c, 0, 65, 0
1, 23800, Note_on_c, 0, 77, 48
1, 23843, Note_on_c, 0, 77, 0
1, 23848, Note_on_c, 0, 72, 0
1, 23850, Note_on_c, 0, 69, 0
1, 23908, Note_on_c, 0, 54, 37
1, 23908, Note_on_c, 0, 70, 39
1, 23908, Note_on_c, 0, 74, 44
1, 23909, Note_on_c, 0, 65, 35
1, 23910, Note_on_c, 0, 60, 34
1, 23918, Control_c, 0, 64, 0
1, 23936, Control_c, 0, 64, 127
1, 23974, Note_on_c, 0, 60, 0
1, 23974, Note_on_c, 0, 74, 0
1, 23990, Note_on_c, 0, 54, 0
1, 24008, Note_on_c, 0, 74, 57
1, 24094, Note_on_c, 0, 24, 62
1, 24110, Note_on_c, 0, 24, 0
1, 24180, Note_on_c, 0, 74, 0
1, 24227, Note_on_c, 0, 74, 61
1, 24256, Note_on_c, 0, 65, 0
1, 24264, Note_on_c, 0, 74, 0
1, 24276, Note_on_c, 0, 70, 0
1, 24327, Note_on_c, 0, 75, 61
1, 24332, Note_on_c, 0, 67, 53
1, 24333, Note_on_c, 0, 63, 39
1, 24334, Note_on_c, 0, 59, 36
1, 24337, Note_on_c, 0, 53, 30
1, 24343, Control_c, 0, 64, 0
1, 24365, Control_c, 0, 64, 127
1, 24398, Note_on_c, 0, 63, 0
1, 24400, Note_on_c, 0, 59, 0
1, 24404, Note_on_c, 0, 75, 0
1, 24408, Note_on_c, 0, 53, 0
1, 24431, Note_on_c, 0, 75, 56
1, 24543, Note_on_c, 0, 24, 38
1, 24582, Note_on_c, 0, 24, 0
1, 24690, Note_on_c, 0, 75, 0
1, 24717, Note_on_c, 0, 75, 35
1, 24758, Note_on_c, 0, 75, 0
1, 24765, Note_on_c, 0, 67, 0
1, 25117, Note_on_c, 0, 62, 30
1, 25117, Note_on_c, 0, 65, 44
1, 25122, Note_on_c, 0, 48, 36
1, 25124, Note_on_c, 0, 58, 20
1, 25137, Control_c, 0, 64, 0
1, 25175, Control_c, 0, 64, 127
1, 25205, Note_on_c, 0, 58, 0
1, 25211, Note_on_c, 0, 48, 0
1, 25212, Note_on_c, 0, 55, 38
1, 25223, Note_on_c, 0, 55, 0
1, 25261, Note_on_c, 0, 62, 0
1, 25289, Note_on_c, 0, 58, 38
1, 25293, Note_on_c, 0, 65, 0
1, 25339, Note_on_c, 0, 62, 52
1, 25380, Note_on_c, 0, 65, 48
1, 25426, Note_on_c, 0, 69, 42
1, 25440, Marker_t, "On C7sus-combined arpeggios, and  chromatic neighbor tones on some chord notes"
1, 25447, Note_on_c, 0, 69, 0
1, 25459, Note_on_c, 0, 70, 42
1, 25470, Note_on_c, 0, 70, 0
1, 25492, Note_on_c, 0, 74, 57
1, 25510, Note_on_c, 0, 74, 0
1, 25522, Note_on_c, 0, 78, 63
1, 25539, Note_on_c, 0, 78, 0
1, 25552, Note_on_c, 0, 81, 78
1, 25584, Note_on_c, 0, 78, 74
1, 25585, Note_on_c, 0, 81, 0
1, 25602, Note_on_c, 0, 78, 0
1, 25613, Note_on_c, 0, 79, 70
1, 25637, Note_on_c, 0, 79, 0
1, 25645, Note_on_c, 0, 81, 65
1, 25651, Note_on_c, 0, 62, 0
1, 25676, Note_on_c, 0, 82, 67
1, 25679, Note_on_c, 0, 81, 0
1, 25693, Note_on_c, 0, 82, 0
1, 25709, Note_on_c, 0, 86, 73
1, 25734, Note_on_c, 0, 86, 0
1, 25744, Note_on_c, 0, 90, 62
1, 25767, Note_on_c, 0, 90, 0
1, 25781, Note_on_c, 0, 93, 66
1, 25810, Note_on_c, 0, 93, 0
1, 25815, Note_on_c, 0, 90, 55
1, 25839, Note_on_c, 0, 90, 0
1, 25849, Note_on_c, 0, 91, 46
1, 25879, Note_on_c, 0, 91, 0
1, 25889, Note_on_c, 0, 93, 55
1, 25914, Note_on_c, 0, 93, 0
1, 25928, Note_on_c, 0, 94, 40
1, 25943, Note_on_c, 0, 94, 0
1, 25953, Note_on_c, 0, 62, 22
1, 25967, Note_on_c, 0, 96, 47
1, 25995, Note_on_c, 0, 96, 0
1, 26005, Note_on_c, 0, 98, 53
1, 26035, Note_on_c, 0, 98, 0
1, 26047, Note_on_c, 0, 100, 53
1, 26083, Note_on_c, 0, 100, 0
1, 26089, Note_on_c, 0, 101, 44
1, 26123, Note_on_c, 0, 101, 0
1, 26130, Note_on_c, 0, 65, 0
1, 26135, Note_on_c, 0, 103, 47
1, 26138, Note_on_c, 0, 62, 0
1, 26164, Note_on_c, 0, 58, 0
1, 26174, Note_on_c, 0, 103, 0
1, 26182, Note_on_c, 0, 105, 51
1, 26218, Note_on_c, 0, 105, 0
1, 26228, Note_on_c, 0, 106, 43
1, 26266, Note_on_c, 0, 106, 0
1, 26279, Note_on_c, 0, 107, 47
1, 26317, Marker_t, "Run must arrive on a strong chord tone - here the root of the C7 chord - C"
1, 26321, Note_on_c, 0, 107, 0
1, 26331, Note_on_c, 0, 108, 50
1, 26370, Note_on_c, 0, 108, 0
1, 26410, Note_on_c, 0, 108, 43
1, 26418, Note_on_c, 0, 24, 33
1, 26419, Note_on_c, 0, 36, 27
1, 26505, Note_on_c, 0, 108, 0
1, 26872, Note_on_c, 0, 24, 0
1, 26881, Note_on_c, 0, 36, 0
1, 27133, Note_on_c, 0, 77, 45
1, 27137, Note_on_c, 0, 53, 44
1, 27191, Note_on_c, 0, 77, 0
1, 27193, Note_on_c, 0, 53, 0
1, 27200, Note_on_c, 0, 57, 39
1, 27202, Note_on_c, 0, 81, 58
1, 27252, Note_on_c, 0, 81, 0
1, 27262, Note_on_c, 0, 57, 0
1, 27264, Note_on_c, 0, 84, 67
1, 27267, Note_on_c, 0, 60, 52
1, 27284, Note_on_c, 0, 84, 0
1, 27315, Note_on_c, 0, 60, 0
1, 27338, Note_on_c, 0, 88, 75
1, 27342, Note_on_c, 0, 64, 41
1, 27401, Note_on_c, 0, 88, 0
1, 27409, Note_on_c, 0, 64, 0
1, 27416, Note_on_c, 0, 67, 57
1, 27417, Note_on_c, 0, 91, 76
1, 27491, Note_on_c, 0, 67, 0
1, 27494, Note_on_c, 0, 91, 0
1, 27622, Note_on_c, 0, 77, 50
1, 27626, Note_on_c, 0, 63, 30
1, 27631, Note_on_c, 0, 70, 35
1, 27632, Note_on_c, 0, 67, 38
1, 27633, Note_on_c, 0, 58, 29
1, 27638, Note_on_c, 0, 53, 22
1, 27646, Control_c, 0, 64, 0
1, 27704, Control_c, 0, 64, 127
1, 27800, Note_on_c, 0, 77, 0
1, 27825, Note_on_c, 0, 63, 0
1, 27833, Note_on_c, 0, 58, 0
1, 27833, Note_on_c, 0, 70, 0
1, 27838, Note_on_c, 0, 53, 0
1, 27841, Note_on_c, 0, 67, 0
1, 27934, Note_on_c, 0, 72, 32
1, 27938, Note_on_c, 0, 51, 29
1, 27939, Note_on_c, 0, 69, 30
1, 27940, Note_on_c, 0, 66, 25
1, 27942, Note_on_c, 0, 62, 24
1, 27947, Note_on_c, 0, 57, 29
1, 27955, Control_c, 0, 64, 0
1, 28005, Control_c, 0, 64, 127
1, 28045, Note_on_c, 0, 69, 0
1, 28069, Note_on_c, 0, 69, 56
1, 28070, Note_on_c, 0, 72, 0
1, 28135, Note_on_c, 0, 57, 0
1, 28139, Note_on_c, 0, 69, 0
1, 28148, Note_on_c, 0, 66, 0
1, 28150, Note_on_c, 0, 62, 0
1, 28196, Note_on_c, 0, 51, 0
1, 28248, Note_on_c, 0, 61, 30
1, 28249, Note_on_c, 0, 46, 30
1, 28250, Note_on_c, 0, 69, 36
1, 28250, Note_on_c, 0, 64, 40
1, 28254, Control_c, 0, 64, 0
1, 28257, Note_on_c, 0, 53, 27
1, 28284, Control_c, 0, 64, 127
1, 28299, Note_on_c, 0, 64, 0
1, 28304, Note_on_c, 0, 61, 0
1, 28306, Note_on_c, 0, 69, 0
1, 28370, Note_on_c, 0, 72, 53
1, 28409, Note_on_c, 0, 72, 0
1, 28498, Note_on_c, 0, 46, 0
1, 28562, Note_on_c, 0, 53, 0
1, 28606, Note_on_c, 0, 46, 32
1, 28608, Note_on_c, 0, 54, 27
1, 28676, Note_on_c, 0, 46, 0
1, 28681, Note_on_c, 0, 54, 0
1, 28703, Note_on_c, 0, 62, 31
1, 28704, Note_on_c, 0, 46, 26
1, 28705, Note_on_c, 0, 57, 27
1, 28705, Note_on_c, 0, 65, 31
1, 28713, Note_on_c, 0, 55, 29
1, 28721, Control_c, 0, 64, 0
1, 28779, Control_c, 0, 64, 127
1, 28791, Note_on_c, 0, 57, 0
1, 28826, Note_on_c, 0, 65, 0
1, 28827, Note_on_c, 0, 62, 0
1, 28853, Note_on_c, 0, 62, 39
1, 28883, Note_on_c, 0, 62, 0
1, 28901, Note_on_c, 0, 65, 71
1, 28925, Note_on_c, 0, 55, 0
1, 28927, Note_on_c, 0, 65, 0
1, 28938, Note_on_c, 0, 46, 0
1, 28947, Note_on_c, 0, 69, 85
1, 28984, Note_on_c, 0, 69, 0
1, 29002, Control_c, 0, 64, 0
1, 29002, Note_on_c, 0, 72, 80
1, 29005, Note_on_c, 0, 43, 50
1, 29024, Note_on_c, 0, 43, 0
1, 29024, Control_c, 0, 64, 127
1, 29034, Note_on_c, 0, 72, 0
1, 29096, Note_on_c, 0, 76, 59
1, 29132, Note_on_c, 0, 76, 0
1, 29186, Note_on_c, 0, 76, 57
1, 29187, Note_on_c, 0, 62, 28
1, 29190, Note_on_c, 0, 57, 28
1, 29194, Note_on_c, 0, 58, 34
1, 29247, Note_on_c, 0, 76, 0
1, 29287, Note_on_c, 0, 76, 60
1, 29336, Note_on_c, 0, 76, 0
1, 29366, Note_on_c, 0, 62, 0
1, 29371, Note_on_c, 0, 76, 50
1, 29378, Note_on_c, 0, 57, 0
1, 29390, Note_on_c, 0, 58, 0
1, 29410, Note_on_c, 0, 76, 0
1, 29441, Note_on_c, 0, 76, 35
1, 29482, Note_on_c, 0, 76, 0
1, 29518, Note_on_c, 0, 76, 40
1, 29523, Note_on_c, 0, 48, 34
1, 29523, Control_c, 0, 64, 0
1, 29526, Note_on_c, 0, 58, 23
1, 29527, Note_on_c, 0, 70, 31
1, 29529, Note_on_c, 0, 65, 24
1, 29546, Control_c, 0, 64, 127
1, 29550, Note_on_c, 0, 65, 0
1, 29563, Note_on_c, 0, 70, 0
1, 29570, Note_on_c, 0, 76, 0
1, 29571, Note_on_c, 0, 48, 0
1, 29590, Note_on_c, 0, 58, 0
1, 29987, Note_on_c, 0, 75, 42
1, 29988, Note_on_c, 0, 70, 34
1, 29989, Note_on_c, 0, 84, 52
1, 29993, Note_on_c, 0, 80, 37
1, 30022, Note_on_c, 0, 84, 0
1, 30033, Note_on_c, 0, 80, 0
1, 30034, Note_on_c, 0, 75, 0
1, 30061, Note_on_c, 0, 70, 0
1, 30078, Note_on_c, 0, 81, 55
1, 30079, Note_on_c, 0, 72, 42
1, 30080, Note_on_c, 0, 77, 47
1, 30081, Note_on_c, 0, 66, 39
1, 30122, Note_on_c, 0, 81, 0
1, 30130, Note_on_c, 0, 77, 0
1, 30139, Note_on_c, 0, 72, 0
1, 30177, Note_on_c, 0, 66, 0
1, 30183, Note_on_c, 0, 77, 59
1, 30187, Note_on_c, 0, 70, 36
1, 30190, Note_on_c, 0, 64, 30
1, 30222, Note_on_c, 0, 77, 0
1, 30227, Note_on_c, 0, 70, 0
1, 30241, Note_on_c, 0, 64, 0
1, 30350, Note_on_c, 0, 81, 41
1, 30354, Note_on_c, 0, 79, 35
1, 30355, Note_on_c, 0, 62, 24
1, 30357, Note_on_c, 0, 74, 20
1, 30358, Note_on_c, 0, 76, 34
1, 30358, Control_c, 0, 64, 0
1, 30359, Note_on_c, 0, 53, 24
1, 30361, Note_on_c, 0, 69, 13
1, 30386, Control_c, 0, 64, 127
1, 30436, Note_on_c, 0, 74, 0
1, 30438, Note_on_c, 0, 61, 37
1, 30445, Note_on_c, 0, 62, 0
1, 30472, Note_on_c, 0, 69, 0
1, 30501, Note_on_c, 0, 81, 0
1, 30503, Note_on_c, 0, 76, 0
1, 30508, Note_on_c, 0, 79, 0
1, 30518, Note_on_c, 0, 69, 43
1, 30523, Note_on_c, 0, 60, 30
1, 30524, Note_on_c, 0, 72, 31
1, 30530, Control_c, 0, 64, 0
1, 30534, Note_on_c, 0, 53, 0
1, 30546, Control_c, 0, 64, 127
1, 30595, Note_on_c, 0, 61, 0
1, 30603, Note_on_c, 0, 60, 0
1, 30642, Note_on_c, 0, 72, 0
1, 30646, Note_on_c, 0, 69, 0
1, 30659, Control_c, 0, 64, 0
1, 30667, Note_on_c, 0, 47, 7
1, 30675, Control_c, 0, 64, 127
1, 30691, Note_on_c, 0, 47, 0
1, 30739, Note_on_c, 0, 61, 47
1, 30747, Note_on_c, 0, 45, 36
1, 30748, Note_on_c, 0, 55, 32
1, 30751, Note_on_c, 0, 64, 24
1, 30763, Control_c, 0, 64, 0
1, 30797, Control_c, 0, 64, 127
1, 30837, Note_on_c, 0, 52, 38
1, 30844, Note_on_c, 0, 64, 0
1, 30850, Note_on_c, 0, 55, 0
1, 30858, Note_on_c, 0, 61, 0
1, 30914, Note_on_c, 0, 62, 51
1, 30924, Note_on_c, 0, 55, 26
1, 30940, Note_on_c, 0, 62, 0
1, 30965, Note_on_c, 0, 65, 70
1, 30993, Note_on_c, 0, 65, 0
1, 30998, Note_on_c, 0, 45, 0
1, 31003, Note_on_c, 0, 52, 0
1, 31011, Note_on_c, 0, 69, 84
1, 31053, Note_on_c, 0, 69, 0
1, 31057, Note_on_c, 0, 72, 74
1, 31072, Note_on_c, 0, 55, 0
1, 31086, Note_on_c, 0, 72, 0
1, 31121, Note_on_c, 0, 76, 71
1, 31122, Note_on_c, 0, 50, 44
1, 31156, Note_on_c, 0, 76, 0
1, 31195, Note_on_c, 0, 79, 66
1, 31197, Note_on_c, 0, 57, 37
1, 31200, Control_c, 0, 64, 0
1, 31222, Control_c, 0, 64, 127
1, 31226, Note_on_c, 0, 79, 0
1, 31273, Note_on_c, 0, 65, 38
1, 31275, Note_on_c, 0, 61, 34
1, 31276, Note_on_c, 0, 69, 47
1, 31342, Note_on_c, 0, 65, 0
1, 31343, Note_on_c, 0, 61, 0
1, 31349, Note_on_c, 0, 76, 66
1, 31358, Note_on_c, 0, 57, 0
1, 31362, Note_on_c, 0, 69, 0
1, 31363, Note_on_c, 0, 60, 28
1, 31439, Note_on_c, 0, 60, 0
1, 31441, Note_on_c, 0, 65, 34
1, 31443, Note_on_c, 0, 69, 37
1, 31444, Note_on_c, 0, 57, 30
1, 31462, Note_on_c, 0, 50, 0
1, 31520, Note_on_c, 0, 65, 0
1, 31537, Note_on_c, 0, 76, 0
1, 31547, Note_on_c, 0, 69, 0
1, 31552, Note_on_c, 0, 72, 69
1, 31557, Note_on_c, 0, 50, 45
1, 31570, Note_on_c, 0, 57, 0
1, 31590, Note_on_c, 0, 50, 0
1, 31670, Note_on_c, 0, 44, 51
1, 31670, Note_on_c, 0, 69, 54
1, 31690, Control_c, 0, 64, 0
1, 31736, Control_c, 0, 64, 127
1, 31771, Note_on_c, 0, 66, 52
1, 31776, Note_on_c, 0, 54, 35
1, 31776, Note_on_c, 0, 60, 40
1, 31795, Note_on_c, 0, 69, 0
1, 31795, Note_on_c, 0, 72, 0
1, 31831, Note_on_c, 0, 60, 0
1, 31850, Note_on_c, 0, 54, 0
1, 31853, Note_on_c, 0, 66, 0
1, 31874, Note_on_c, 0, 44, 0
1, 31885, Note_on_c, 0, 65, 33
1, 31885, Note_on_c, 0, 59, 35
1, 31887, Note_on_c, 0, 43, 35
1, 31892, Note_on_c, 0, 53, 25
1, 31901, Control_c, 0, 64, 0
1, 31945, Control_c, 0, 64, 127
1, 31966, Note_on_c, 0, 53, 0
1, 31992, Note_on_c, 0, 69, 57
1, 31993, Note_on_c, 0, 54, 46
1, 31993, Control_c, 0, 64, 0
1, 32021, Control_c, 0, 64, 127
1, 32060, Note_on_c, 0, 65, 0
1, 32080, Note_on_c, 0, 54, 0
1, 32120, Note_on_c, 0, 53, 44
1, 32133, Control_c, 0, 64, 0
1, 32155, Control_c, 0, 64, 127
1, 32202, Note_on_c, 0, 69, 0
1, 32223, Note_on_c, 0, 59, 0
1, 32376, Note_on_c, 0, 43, 0
1, 32412, Note_on_c, 0, 53, 0
1, 32449, Note_on_c, 0, 43, 47
1, 32454, Note_on_c, 0, 57, 80
1, 32494, Control_c, 0, 64, 0
1, 32504, Control_c, 0, 64, 127
1, 32511, Note_on_c, 0, 43, 0
1, 32524, Note_on_c, 0, 45, 60
1, 32524, Note_on_c, 0, 58, 78
1, 32534, Note_on_c, 0, 57, 0
1, 32589, Note_on_c, 0, 45, 0
1, 32590, Note_on_c, 0, 58, 0
1, 32595, Note_on_c, 0, 46, 52
1, 32596, Note_on_c, 0, 62, 68
1, 32603, Control_c, 0, 64, 0
1, 32625, Control_c, 0, 64, 127
1, 32654, Note_on_c, 0, 62, 0
1, 32660, Note_on_c, 0, 65, 62
1, 32663, Control_c, 0, 64, 0
1, 32664, Note_on_c, 0, 50, 52
1, 32669, Control_c, 0, 64, 127
1, 32709, Note_on_c, 0, 50, 0
1, 32713, Note_on_c, 0, 46, 0
1, 32719, Note_on_c, 0, 65, 0
1, 32745, Note_on_c, 0, 69, 58
1, 32746, Note_on_c, 0, 62, 43
1, 32746, Note_on_c, 0, 65, 53
1, 32753, Control_c, 0, 64, 0
1, 32773, Control_c, 0, 64, 127
1, 32831, Note_on_c, 0, 72, 62
1, 32841, Note_on_c, 0, 57, 26
1, 32857, Note_on_c, 0, 57, 0
1, 32910, Note_on_c, 0, 72, 0
1, 32949, Note_on_c, 0, 69, 0
1, 32986, Note_on_c, 0, 65, 0
1, 32996, Note_on_c, 0, 62, 0
1, 33162, Note_on_c, 0, 45, 35
1, 33165, Note_on_c, 0, 64, 35
1, 33165, Note_on_c, 0, 60, 37
1, 33166, Note_on_c, 0, 55, 31
1, 33166, Control_c, 0, 64, 0
1, 33167, Note_on_c, 0, 33, 31
1, 33176, Control_c, 0, 64, 127
1, 33197, Note_on_c, 0, 33, 0
1, 33201, Note_on_c, 0, 60, 0
1, 33201, Note_on_c, 0, 55, 0
1, 33209, Note_on_c, 0, 45, 0
1, 33231, Note_on_c, 0, 64, 0
1, 33269, Note_on_c, 0, 58, 43
1, 33270, Note_on_c, 0, 62, 44
1, 33270, Note_on_c, 0, 46, 33
1, 33271, Note_on_c, 0, 53, 37
1, 33273, Note_on_c, 0, 34, 35
1, 33279, Control_c, 0, 64, 0
1, 33309, Control_c, 0, 64, 127
1, 33323, Note_on_c, 0, 34, 0
1, 33328, Note_on_c, 0, 62, 0
1, 33332, Note_on_c, 0, 46, 0
1, 33335, Note_on_c, 0, 53, 0
1, 33350, Note_on_c, 0, 58, 0
1, 33433, Note_on_c, 0, 61, 55
1, 33435, Note_on_c, 0, 58, 50
1, 33438, Note_on_c, 0, 24, 57
1, 33439, Note_on_c, 0, 36, 48
1, 33440, Note_on_c, 0, 53, 24
1, 33451, Note_on_c, 0, 65, 19
1, 33452, Control_c, 0, 64, 0
1, 33453, Note_on_c, 0, 62, 35
1, 33457, Note_on_c, 0, 61, 0
1, 33580, Control_c, 0, 64, 127
1, 33585, Note_on_c, 0, 65, 0
1, 33599, Note_on_c, 0, 65, 62
1, 33701, Note_on_c, 0, 65, 0
1, 33734, Note_on_c, 0, 65, 46
1, 33799, Note_on_c, 0, 65, 0
1, 33831, Note_on_c, 0, 65, 44
1, 33848, Note_on_c, 0, 24, 0
1, 33861, Note_on_c, 0, 36, 0
1, 33886, Note_on_c, 0, 65, 0
1, 33928, Note_on_c, 0, 65, 37
1, 33986, Note_on_c, 0, 65, 0
1, 34020, Note_on_c, 0, 53, 0
1, 34026, Note_on_c, 0, 65, 44
1, 34053, Note_on_c, 0, 58, 0
1, 34061, Note_on_c, 0, 62, 0
1, 34068, Note_on_c, 0, 65, 0
1, 34129, Note_on_c, 0, 65, 46
1, 34132, Note_on_c, 0, 41, 36
1, 34138, Control_c, 0, 64, 0
1, 34160, Control_c, 0, 64, 127
1, 34190, Note_on_c, 0, 65, 0
1, 34201, Note_on_c, 0, 48, 39
1, 34227, Note_on_c, 0, 41, 0
1, 34250, Note_on_c, 0, 48, 0
1, 34264, Note_on_c, 0, 67, 44
1, 34265, Note_on_c, 0, 62, 28
1, 34267, Note_on_c, 0, 57, 35
1, 34318, Note_on_c, 0, 57, 0
1, 34327, Note_on_c, 0, 62, 0
1, 34338, Note_on_c, 0, 72, 39
1, 34342, Note_on_c, 0, 60, 40
1, 34344, Note_on_c, 0, 67, 0
1, 34363, Note_on_c, 0, 72, 0
1, 34449, Note_on_c, 0, 60, 0
1, 34502, Note_on_c, 0, 60, 38
1, 34567, Note_on_c, 0, 60, 0
1, 34599, Note_on_c, 0, 60, 36
1, 34634, Note_on_c, 0, 60, 0
1, 34706, Note_on_c, 0, 60, 33
1, 34796, Note_on_c, 0, 60, 0
1, 34844, Note_on_c, 0, 60, 36
1, 34898, Note_on_c, 0, 60, 0
1, 35040, Marker_t, "On turnaround, chords are derived from diminished scale Gb/G, C/Db, Eb/E, A/Bb"
1, 35049, Note_on_c, 0, 73, 31
1, 35050, Note_on_c, 0, 82, 40
1, 35052, Note_on_c, 0, 67, 41
1, 35053, Note_on_c, 0, 78, 32
1, 35095, Note_on_c, 0, 82, 0
1, 35097, Note_on_c, 0, 78, 0
1, 35100, Note_on_c, 0, 73, 0
1, 35121, Note_on_c, 0, 67, 0
1, 35162, Note_on_c, 0, 67, 43
1, 35164, Note_on_c, 0, 61, 34
1, 35164, Note_on_c, 0, 76, 34
1, 35167, Note_on_c, 0, 72, 34
1, 35179, Control_c, 0, 64, 0
1, 35192, Control_c, 0, 64, 127
1, 35326, Note_on_c, 0, 67, 0
1, 35336, Note_on_c, 0, 72, 0
1, 35343, Note_on_c, 0, 76, 0
1, 35408, Note_on_c, 0, 61, 0
1, 35408, Note_on_c, 0, 63, 40
1, 35408, Note_on_c, 0, 79, 49
1, 35408, Note_on_c, 0, 70, 43
1, 35409, Note_on_c, 0, 75, 40
1, 35463, Note_on_c, 0, 79, 0
1, 35474, Note_on_c, 0, 75, 0
1, 35480, Note_on_c, 0, 70, 0
1, 35494, Note_on_c, 0, 63, 0
1, 35553, Note_on_c, 0, 73, 26
1, 35557, Note_on_c, 0, 69, 37
1, 35559, Note_on_c, 0, 64, 32
1, 35562, Note_on_c, 0, 58, 31
1, 35582, Control_c, 0, 64, 0
1, 35602, Control_c, 0, 64, 127
1, 35818, Note_on_c, 0, 58, 0
1, 35835, Note_on_c, 0, 64, 0
1, 35837, Note_on_c, 0, 73, 0
1, 35853, Note_on_c, 0, 69, 0
1, 36019, Note_on_c, 0, 61, 29
1, 36019, Note_on_c, 0, 70, 33
1, 36020, Note_on_c, 0, 66, 33
1, 36025, Note_on_c, 0, 43, 26
1, 36030, Note_on_c, 0, 55, 16
1, 36041, Control_c, 0, 64, 0
1, 36067, Control_c, 0, 64, 127
1, 36299, Note_on_c, 0, 61, 0
1, 36352, Note_on_c, 0, 66, 0
1, 36364, Note_on_c, 0, 70, 0
1, 36447, Note_on_c, 0, 55, 0
1, 36450, Note_on_c, 0, 43, 0
1, 36480, Marker_t, "Into tempo"
1, 36495, Note_on_c, 0, 72, 54
1, 36515, Note_on_c, 0, 72, 0
1, 36532, Note_on_c, 0, 72, 46
1, 36560, Note_on_c, 0, 72, 0
1, 36581, Control_c, 0, 64, 0
1, 36581, Note_on_c, 0, 48, 31
1, 36582, Note_on_c, 0, 76, 56
1, 36583, Note_on_c, 0, 41, 26
1, 36590, Note_on_c, 0, 57, 25
1, 36603, Control_c, 0, 64, 127
1, 36607, Note_on_c, 0, 48, 0
1, 36611, Note_on_c, 0, 41, 0
1, 36627, Note_on_c, 0, 57, 0
1, 36639, Note_on_c, 0, 76, 0
1, 36641, Note_on_c, 0, 79, 48
1, 36750, Note_on_c, 0, 64, 26
1, 36756, Note_on_c, 0, 57, 31
1, 36756, Note_on_c, 0, 60, 32
1, 36757, Note_on_c, 0, 53, 25
1, 36808, Note_on_c, 0, 57, 0
1, 36811, Note_on_c, 0, 53, 0
1, 36813, Note_on_c, 0, 64, 0
1, 36818, Note_on_c, 0, 60, 0
1, 36822, Note_on_c, 0, 79, 0
1, 36922, Note_on_c, 0, 63, 34
1, 36928, Note_on_c, 0, 70, 39
1, 36930, Note_on_c, 0, 58, 38
1, 36931, Note_on_c, 0, 67, 36
1, 36933, Note_on_c, 0, 53, 22
1, 36936, Control_c, 0, 64, 0
1, 36963, Control_c, 0, 64, 127
1, 36995, Note_on_c, 0, 67, 0
1, 37014, Note_on_c, 0, 53, 0
1, 37015, Note_on_c, 0, 70, 0
1, 37024, Note_on_c, 0, 63, 0
1, 37027, Note_on_c, 0, 58, 0
1, 37035, Note_on_c, 0, 77, 80
1, 37101, Note_on_c, 0, 67, 45
1, 37103, Note_on_c, 0, 63, 33
1, 37107, Note_on_c, 0, 57, 31
1, 37128, Note_on_c, 0, 67, 0
1, 37156, Note_on_c, 0, 63, 0
1, 37158, Note_on_c, 0, 77, 0
1, 37164, Note_on_c, 0, 57, 0
1, 37204, Note_on_c, 0, 72, 84
1, 37253, Note_on_c, 0, 71, 55
1, 37259, Note_on_c, 0, 72, 0
1, 37271, Note_on_c, 0, 70, 57
1, 37276, Note_on_c, 0, 71, 0
1, 37291, Control_c, 0, 64, 0
1, 37292, Note_on_c, 0, 65, 24
1, 37293, Note_on_c, 0, 62, 24
1, 37296, Note_on_c, 0, 60, 32
1, 37304, Note_on_c, 0, 70, 0
1, 37306, Note_on_c, 0, 69, 20
1, 37329, Note_on_c, 0, 65, 0
1, 37345, Note_on_c, 0, 69, 0
1, 37349, Note_on_c, 0, 72, 58
1, 37377, Note_on_c, 0, 72, 0
1, 37401, Note_on_c, 0, 72, 64
1, 37418, Note_on_c, 0, 72, 0
1, 37458, Note_on_c, 0, 72, 50
1, 37463, Control_c, 0, 64, 127
1, 37464, Note_on_c, 0, 53, 31
1, 37544, Note_on_c, 0, 62, 0
1, 37545, Note_on_c, 0, 60, 0
1, 37611, Note_on_c, 0, 53, 0
1, 37626, Note_on_c, 0, 69, 34
1, 37627, Note_on_c, 0, 65, 33
1, 37630, Note_on_c, 0, 57, 31
1, 37634, Control_c, 0, 64, 0
1, 37642, Control_c, 0, 64, 127
1, 37680, Note_on_c, 0, 69, 0
1, 37687, Note_on_c, 0, 72, 0
1, 37688, Note_on_c, 0, 65, 0
1, 37690, Note_on_c, 0, 57, 0
1, 37800, Note_on_c, 0, 62, 66
1, 37826, Note_on_c, 0, 62, 0
1, 37846, Note_on_c, 0, 65, 61
1, 37851, Control_c, 0, 64, 0
1, 37863, Note_on_c, 0, 65, 0
1, 37895, Control_c, 0, 64, 127
1, 37903, Note_on_c, 0, 54, 46
1, 37903, Note_on_c, 0, 69, 64
1, 37905, Note_on_c, 0, 44, 40
1, 37940, Note_on_c, 0, 54, 0
1, 37947, Note_on_c, 0, 44, 0
1, 37949, Control_c, 0, 64, 0
1, 37958, Note_on_c, 0, 69, 0
1, 37963, Note_on_c, 0, 43, 51
1, 37965, Note_on_c, 0, 72, 59
1, 37967, Note_on_c, 0, 53, 31
1, 37969, Control_c, 0, 64, 127
1, 37983, Note_on_c, 0, 43, 0
1, 37997, Note_on_c, 0, 53, 0
1, 37998, Note_on_c, 0, 72, 0
1, 38045, Note_on_c, 0, 76, 73
1, 38132, Note_on_c, 0, 62, 24
1, 38133, Note_on_c, 0, 58, 33
1, 38135, Note_on_c, 0, 53, 28
1, 38136, Note_on_c, 0, 57, 26
1, 38175, Note_on_c, 0, 76, 0
1, 38194, Note_on_c, 0, 57, 0
1, 38195, Note_on_c, 0, 53, 0
1, 38199, Note_on_c, 0, 62, 0
1, 38202, Note_on_c, 0, 58, 0
1, 38243, Note_on_c, 0, 84, 87
1, 38263, Note_on_c, 0, 84, 0
1, 38282, Control_c, 0, 64, 0
1, 38314, Note_on_c, 0, 69, 53
1, 38319, Note_on_c, 0, 64, 45
1, 38330, Note_on_c, 0, 69, 0
1, 38335, Note_on_c, 0, 64, 0
1, 38376, Note_on_c, 0, 81, 54
1, 38377, Note_on_c, 0, 73, 35
1, 38377, Note_on_c, 0, 69, 57
1, 38382, Note_on_c, 0, 76, 39
1, 38385, Note_on_c, 0, 79, 20
1, 38392, Note_on_c, 0, 79, 0
1, 38392, Note_on_c, 0, 76, 0
1, 38393, Note_on_c, 0, 69, 0
1, 38395, Note_on_c, 0, 73, 0
1, 38397, Note_on_c, 0, 81, 0
1, 38437, Note_on_c, 0, 48, 47
1, 38442, Control_c, 0, 64, 127
1, 38559, Note_on_c, 0, 77, 54
1, 38562, Note_on_c, 0, 73, 28
1, 38563, Note_on_c, 0, 65, 34
1, 38564, Note_on_c, 0, 70, 32
1, 38565, Note_on_c, 0, 58, 34
1, 38569, Control_c, 0, 64, 0
1, 38585, Control_c, 0, 64, 127
1, 38625, Note_on_c, 0, 77, 0
1, 38629, Note_on_c, 0, 65, 0
1, 38648, Note_on_c, 0, 70, 0
1, 38649, Note_on_c, 0, 73, 0
1, 38661, Note_on_c, 0, 58, 0
1, 38686, Note_on_c, 0, 64, 39
1, 38690, Note_on_c, 0, 69, 31
1, 38690, Note_on_c, 0, 57, 33
1, 38701, Control_c, 0, 64, 0
1, 38737, Control_c, 0, 64, 127
1, 38773, Note_on_c, 0, 69, 0
1, 38784, Note_on_c, 0, 64, 0
1, 38806, Note_on_c, 0, 57, 0
1, 38807, Note_on_c, 0, 48, 0
1, 38869, Note_on_c, 0, 48, 34
1, 38871, Note_on_c, 0, 57, 30
1, 38926, Note_on_c, 0, 60, 45
1, 38943, Note_on_c, 0, 48, 0
1, 38945, Note_on_c, 0, 60, 0
1, 38945, Note_on_c, 0, 57, 0
1, 38957, Note_on_c, 0, 61, 56
1, 38971, Note_on_c, 0, 61, 0
1, 38974, Control_c, 0, 64, 0
1, 38989, Note_on_c, 0, 65, 61
1, 39005, Note_on_c, 0, 65, 0
1, 39017, Note_on_c, 0, 66, 56
1, 39030, Note_on_c, 0, 66, 0
1, 39046, Note_on_c, 0, 57, 36
1, 39051, Note_on_c, 0, 49, 27
1, 39055, Note_on_c, 0, 72, 32
1, 39066, Note_on_c, 0, 72, 0
1, 39079, Note_on_c, 0, 73, 37
1, 39093, Note_on_c, 0, 73, 0
1, 39113, Note_on_c, 0, 77, 53
1, 39130, Note_on_c, 0, 77, 0
1, 39140, Note_on_c, 0, 78, 38
1, 39156, Note_on_c, 0, 78, 0
1, 39162, Note_on_c, 0, 57, 0
1, 39171, Note_on_c, 0, 84, 47
1, 39179, Note_on_c, 0, 84, 0
1, 39202, Note_on_c, 0, 49, 0
1, 39249, Note_on_c, 0, 49, 33
1, 39249, Note_on_c, 0, 57, 34
1, 39263, Control_c, 0, 64, 127
1, 39358, Note_on_c, 0, 74, 58
1, 39378, Note_on_c, 0, 49, 0
1, 39384, Note_on_c, 0, 75, 49
1, 39387, Note_on_c, 0, 57, 0
1, 39392, Note_on_c, 0, 74, 0
1, 39400, Note_on_c, 0, 76, 54
1, 39401, Note_on_c, 0, 75, 0
1, 39421, Note_on_c, 0, 76, 0
1, 39427, Note_on_c, 0, 79, 70
1, 39441, Control_c, 0, 64, 0
1, 39442, Note_on_c, 0, 60, 27
1, 39443, Note_on_c, 0, 57, 30
1, 39445, Note_on_c, 0, 50, 25
1, 39446, Note_on_c, 0, 79, 0
1, 39464, Note_on_c, 0, 77, 59
1, 39486, Note_on_c, 0, 77, 0
1, 39497, Note_on_c, 0, 73, 37
1, 39511, Note_on_c, 0, 73, 0
1, 39525, Note_on_c, 0, 76, 49
1, 39548, Note_on_c, 0, 74, 48
1, 39551, Note_on_c, 0, 76, 0
1, 39565, Note_on_c, 0, 74, 0
1, 39577, Note_on_c, 0, 69, 42
1, 39581, Note_on_c, 0, 60, 0
1, 39589, Note_on_c, 0, 69, 0
1, 39603, Note_on_c, 0, 67, 38
1, 39622, Control_c, 0, 64, 127
1, 39624, Note_on_c, 0, 67, 0
1, 39625, Note_on_c, 0, 57, 0
1, 39631, Note_on_c, 0, 65, 34
1, 39653, Note_on_c, 0, 65, 0
1, 39661, Note_on_c, 0, 64, 27
1, 39663, Note_on_c, 0, 57, 19
1, 39668, Control_c, 0, 64, 0
1, 39668, Note_on_c, 0, 60, 11
1, 39678, Note_on_c, 0, 64, 0
1, 39687, Note_on_c, 0, 67, 40
1, 39712, Note_on_c, 0, 67, 0
1, 39721, Note_on_c, 0, 64, 20
1, 39730, Note_on_c, 0, 64, 0
1, 39741, Note_on_c, 0, 60, 0
1, 39745, Note_on_c, 0, 65, 57
1, 39764, Control_c, 0, 64, 127
1, 39783, Note_on_c, 0, 57, 0
1, 39809, Note_on_c, 0, 50, 0
1, 39809, Note_on_c, 0, 60, 15
1, 39891, Note_on_c, 0, 60, 0
1, 39900, Note_on_c, 0, 44, 31
1, 39908, Control_c, 0, 64, 0
1, 39916, Control_c, 0, 64, 127
1, 39931, Note_on_c, 0, 44, 0
1, 39933, Note_on_c, 0, 65, 0
1, 40040, Note_on_c, 0, 65, 53
1, 40043, Note_on_c, 0, 54, 34
1, 40043, Note_on_c, 0, 60, 46
1, 40045, Note_on_c, 0, 58, 40
1, 40107, Note_on_c, 0, 72, 83
1, 40114, Note_on_c, 0, 65, 0
1, 40140, Note_on_c, 0, 60, 0
1, 40145, Note_on_c, 0, 72, 0
1, 40161, Note_on_c, 0, 69, 74
1, 40185, Note_on_c, 0, 54, 0
1, 40195, Note_on_c, 0, 58, 0
1, 40207, Note_on_c, 0, 69, 0
1, 40221, Note_on_c, 0, 64, 33
1, 40222, Note_on_c, 0, 65, 48
1, 40225, Note_on_c, 0, 59, 38
1, 40227, Note_on_c, 0, 53, 28
1, 40229, Control_c, 0, 64, 0
1, 40267, Control_c, 0, 64, 127
1, 40274, Note_on_c, 0, 65, 0
1, 40278, Note_on_c, 0, 64, 0
1, 40280, Note_on_c, 0, 69, 70
1, 40286, Note_on_c, 0, 59, 0
1, 40308, Note_on_c, 0, 53, 0
1, 40414, Note_on_c, 0, 43, 34
1, 40414, Note_on_c, 0, 64, 44
1, 40417, Note_on_c, 0, 59, 40
1, 40417, Note_on_c, 0, 53, 41
1, 40430, Control_c, 0, 64, 0
1, 40462, Control_c, 0, 64, 127
1, 40486, Note_on_c, 0, 53, 0
1, 40494, Note_on_c, 0, 64, 0
1, 40510, Note_on_c, 0, 59, 0
1, 40538, Control_c, 0, 64, 0
1, 40538, Note_on_c, 0, 63, 40
1, 40539, Note_on_c, 0, 54, 34
1, 40540, Note_on_c, 0, 59, 38
1, 40542, Control_c, 0, 64, 127
1, 40584, Note_on_c, 0, 54, 0
1, 40589, Note_on_c, 0, 59, 0
1, 40595, Note_on_c, 0, 69, 0
1, 40598, Note_on_c, 0, 63, 0
1, 40615, Note_on_c, 0, 62, 48
1, 40615, Note_on_c, 0, 59, 43
1, 40619, Note_on_c, 0, 53, 36
1, 40620, Control_c, 0, 64, 0
1, 40656, Control_c, 0, 64, 127
1, 40684, Note_on_c, 0, 59, 0
1, 40725, Note_on_c, 0, 62, 0
1, 40740, Note_on_c, 0, 57, 67
1, 40776, Note_on_c, 0, 43, 0
1, 40778, Note_on_c, 0, 53, 0
1, 40793, Note_on_c, 0, 57, 0
1, 40805, Note_on_c, 0, 53, 50
1, 40808, Note_on_c, 0, 43, 35
1, 40812, Note_on_c, 0, 58, 20
1, 40813, Control_c, 0, 64, 0
1, 40817, Note_on_c, 0, 53, 0
1, 40819, Note_on_c, 0, 43, 0
1, 40826, Note_on_c, 0, 58, 0
1, 40853, Note_on_c, 0, 62, 49
1, 40877, Note_on_c, 0, 62, 0
1, 40891, Note_on_c, 0, 65, 51
1, 40917, Note_on_c, 0, 65, 0
1, 40933, Control_c, 0, 64, 127
1, 40938, Note_on_c, 0, 69, 68
1, 40962, Note_on_c, 0, 69, 0
1, 40993, Note_on_c, 0, 69, 45
1, 40994, Note_on_c, 0, 62, 32
1, 40995, Note_on_c, 0, 65, 40
1, 40996, Note_on_c, 0, 43, 31
1, 40996, Note_on_c, 0, 53, 37
1, 40997, Control_c, 0, 64, 0
1, 41031, Control_c, 0, 64, 127
1, 41038, Note_on_c, 0, 62, 0
1, 41050, Note_on_c, 0, 72, 62
1, 41066, Note_on_c, 0, 65, 0
1, 41067, Note_on_c, 0, 69, 0
1, 41100, Note_on_c, 0, 72, 0
1, 41113, Note_on_c, 0, 62, 37
1, 41131, Note_on_c, 0, 43, 0
1, 41137, Note_on_c, 0, 62, 0
1, 41150, Note_on_c, 0, 53, 0
1, 41187, Note_on_c, 0, 45, 36
1, 41187, Note_on_c, 0, 60, 40
1, 41188, Note_on_c, 0, 64, 43
1, 41190, Control_c, 0, 64, 0
1, 41204, Note_on_c, 0, 64, 0
1, 41206, Control_c, 0, 64, 127
1, 41210, Note_on_c, 0, 60, 0
1, 41216, Note_on_c, 0, 45, 0
1, 41253, Note_on_c, 0, 58, 43
1, 41254, Note_on_c, 0, 62, 48
1, 41256, Control_c, 0, 64, 0
1, 41260, Note_on_c, 0, 46, 30
1, 41260, Note_on_c, 0, 53, 24
1, 41284, Control_c, 0, 64, 127
1, 41289, Note_on_c, 0, 62, 0
1, 41290, Note_on_c, 0, 53, 0
1, 41294, Note_on_c, 0, 58, 0
1, 41300, Note_on_c, 0, 46, 0
1, 41316, Control_c, 0, 64, 0
1, 41326, Note_on_c, 0, 47, 58
1, 41328, Note_on_c, 0, 59, 64
1, 41329, Note_on_c, 0, 62, 60
1, 41348, Control_c, 0, 64, 127
1, 41366, Note_on_c, 0, 59, 0
1, 41374, Note_on_c, 0, 62, 0
1, 41398, Control_c, 0, 64, 0
1, 41400, Note_on_c, 0, 47, 0
1, 41408, Note_on_c, 0, 55, 41
1, 41408, Note_on_c, 0, 58, 56
1, 41409, Note_on_c, 0, 48, 60
1, 41409, Note_on_c, 0, 64, 29
1, 41422, Note_on_c, 0, 62, 28
1, 41424, Note_on_c, 0, 64, 0
1, 41495, Note_on_c, 0, 55, 0
1, 41495, Note_on_c, 0, 62, 0
1, 41506, Note_on_c, 0, 58, 0
1, 41527, Note_on_c, 0, 58, 61
1, 41529, Note_on_c, 0, 36, 55
1, 41531, Note_on_c, 0, 65, 61
1, 41531, Note_on_c, 0, 53, 54
1, 41532, Note_on_c, 0, 62, 57
1, 41555, Control_c, 0, 64, 127
1, 41568, Note_on_c, 0, 48, 0
1, 41585, Note_on_c, 0, 53, 0
1, 41587, Note_on_c, 0, 65, 0
1, 41590, Note_on_c, 0, 62, 0
1, 41593, Note_on_c, 0, 58, 0
1, 41605, Control_c, 0, 64, 0
1, 41610, Note_on_c, 0, 65, 46
1, 41610, Note_on_c, 0, 58, 50
1, 41611, Note_on_c, 0, 48, 40
1, 41613, Note_on_c, 0, 62, 44
1, 41613, Note_on_c, 0, 53, 37
1, 41639, Control_c, 0, 64, 127
1, 41668, Note_on_c, 0, 62, 0
1, 41674, Note_on_c, 0, 48, 0
1, 41693, Note_on_c, 0, 36, 0
1, 41711, Note_on_c, 0, 53, 0
1, 41719, Note_on_c, 0, 65, 0
1, 41738, Note_on_c, 0, 62, 47
1, 41760, Note_on_c, 0, 58, 0
1, 41804, Note_on_c, 0, 62, 0
1, 41819, Note_on_c, 0, 55, 44
1, 41819, Note_on_c, 0, 39, 27
1, 41820, Note_on_c, 0, 65, 44
1, 41821, Note_on_c, 0, 60, 43
1, 41823, Note_on_c, 0, 46, 32
1, 41824, Control_c, 0, 64, 0
1, 41850, Control_c, 0, 64, 127
1, 41883, Note_on_c, 0, 39, 0
1, 41884, Note_on_c, 0, 55, 0
1, 41892, Note_on_c, 0, 46, 0
1, 41923, Note_on_c, 0, 65, 0
1, 41924, Note_on_c, 0, 60, 0
1, 41943, Note_on_c, 0, 47, 36
1, 41944, Note_on_c, 0, 40, 35
1, 41945, Note_on_c, 0, 61, 43
1, 41946, Note_on_c, 0, 56, 35
1, 41947, Note_on_c, 0, 65, 32
1, 41979, Note_on_c, 0, 40, 0
1, 41983, Note_on_c, 0, 47, 0
1, 41993, Note_on_c, 0, 65, 0
1, 42003, Note_on_c, 0, 56, 0
1, 42005, Note_on_c, 0, 61, 0
1, 42020, Note_on_c, 0, 48, 37
1, 42021, Control_c, 0, 64, 0
1, 42022, Note_on_c, 0, 41, 36
1, 42023, Note_on_c, 0, 62, 40
1, 42024, Note_on_c, 0, 65, 36
1, 42025, Note_on_c, 0, 57, 43
1, 42053, Note_on_c, 0, 57, 0
1, 42061, Control_c, 0, 64, 127
1, 42064, Note_on_c, 0, 62, 0
1, 42068, Note_on_c, 0, 65, 0
1, 42111, Note_on_c, 0, 41, 0
1, 42120, Note_on_c, 0, 48, 0
1, 42146, Note_on_c, 0, 77, 80
1, 42199, Note_on_c, 0, 77, 0
1, 42214, Note_on_c, 0, 77, 55
1, 42218, Note_on_c, 0, 48, 43
1, 42219, Note_on_c, 0, 70, 33
1, 42221, Note_on_c, 0, 74, 46
1, 42221, Control_c, 0, 64, 0
1, 42222, Note_on_c, 0, 58, 25
1, 42223, Note_on_c, 0, 65, 26
1, 42241, Control_c, 0, 64, 127
1, 42260, Note_on_c, 0, 48, 0
1, 42266, Note_on_c, 0, 65, 0
1, 42272, Note_on_c, 0, 74, 0
1, 42275, Note_on_c, 0, 70, 0
1, 42282, Note_on_c, 0, 77, 0
1, 42284, Note_on_c, 0, 58, 0
1, 42338, Note_on_c, 0, 81, 58
1, 42342, Note_on_c, 0, 73, 26
1, 42342, Note_on_c, 0, 69, 45
1, 42344, Note_on_c, 0, 76, 42
1, 42367, Note_on_c, 0, 69, 0
1, 42367, Note_on_c, 0, 73, 0
1, 42391, Note_on_c, 0, 76, 0
1, 42400, Note_on_c, 0, 81, 0
1, 42404, Note_on_c, 0, 61, 30
1, 42409, Note_on_c, 0, 58, 29
1, 42415, Note_on_c, 0, 61, 0
1, 42425, Note_on_c, 0, 58, 0
1, 42450, Marker_t, "Phrase uses diatonic  notes grouped in 3's  - each finishing on a F7 chord tone"
1, 42468, Note_on_c, 0, 88, 76
1, 42494, Note_on_c, 0, 88, 0
1, 42524, Note_on_c, 0, 89, 96
1, 42558, Note_on_c, 0, 89, 0
1, 42577, Note_on_c, 0, 41, 33
1, 42581, Note_on_c, 0, 48, 32
1, 42586, Note_on_c, 0, 91, 94
1, 42586, Control_c, 0, 64, 0
1, 42590, Note_on_c, 0, 57, 43
1, 42617, Control_c, 0, 64, 127
1, 42662, Note_on_c, 0, 91, 0
1, 42663, Note_on_c, 0, 41, 0
1, 42670, Note_on_c, 0, 48, 0
1, 42670, Note_on_c, 0, 84, 45
1, 42682, Note_on_c, 0, 57, 0
1, 42688, Note_on_c, 0, 84, 0
1, 42714, Note_on_c, 0, 86, 65
1, 42731, Note_on_c, 0, 86, 0
1, 42754, Note_on_c, 0, 88, 83
1, 42773, Note_on_c, 0, 88, 0
1, 42801, Note_on_c, 0, 81, 68
1, 42804, Note_on_c, 0, 60, 36
1, 42804, Note_on_c, 0, 64, 31
1, 42809, Note_on_c, 0, 57, 26
1, 42811, Note_on_c, 0, 53, 19
1, 42817, Note_on_c, 0, 81, 0
1, 42817, Control_c, 0, 64, 0
1, 42842, Note_on_c, 0, 82, 52
1, 42858, Note_on_c, 0, 82, 0
1, 42878, Note_on_c, 0, 84, 64
1, 42894, Note_on_c, 0, 84, 0
1, 42907, Control_c, 0, 64, 127
1, 42916, Note_on_c, 0, 77, 50
1, 42930, Note_on_c, 0, 77, 0
1, 42941, Note_on_c, 0, 53, 0
1, 42942, Note_on_c, 0, 57, 0
1, 42943, Note_on_c, 0, 79, 57
1, 42946, Note_on_c, 0, 64, 0
1, 42958, Note_on_c, 0, 79, 0
1, 42976, Note_on_c, 0, 60, 0
1, 42978, Note_on_c, 0, 81, 63
1, 42994, Note_on_c, 0, 81, 0
1, 43011, Note_on_c, 0, 63, 31
1, 43013, Note_on_c, 0, 74, 55
1, 43016, Note_on_c, 0, 58, 32
1, 43023, Control_c, 0, 64, 0
1, 43028, Note_on_c, 0, 53, 15
1, 43029, Note_on_c, 0, 74, 0
1, 43048, Note_on_c, 0, 75, 42
1, 43062, Note_on_c, 0, 75, 0
1, 43073, Note_on_c, 0, 77, 50
1, 43096, Note_on_c, 0, 77, 0
1, 43105, Note_on_c, 0, 72, 43
1, 43116, Note_on_c, 0, 72, 0
1, 43122, Note_on_c, 0, 63, 0
1, 43130, Note_on_c, 0, 74, 41
1, 43146, Note_on_c, 0, 74, 0
1, 43155, Note_on_c, 0, 58, 0
1, 43159, Note_on_c, 0, 75, 49
1, 43168, Control_c, 0, 64, 127
1, 43175, Note_on_c, 0, 75, 0
1, 43194, Note_on_c, 0, 69, 31
1, 43209, Note_on_c, 0, 69, 0
1, 43216, Note_on_c, 0, 70, 45
1, 43224, Note_on_c, 0, 63, 21
1, 43226, Control_c, 0, 64, 0
1, 43235, Note_on_c, 0, 70, 0
1, 43247, Note_on_c, 0, 72, 49
1, 43258, Note_on_c, 0, 58, 1
1, 43264, Note_on_c, 0, 60, 1
1, 43267, Note_on_c, 0, 72, 0
1, 43277, Note_on_c, 0, 65, 34
1, 43280, Note_on_c, 0, 63, 0
1, 43287, Note_on_c, 0, 65, 0
1, 43316, Note_on_c, 0, 60, 0
1, 43326, Note_on_c, 0, 69, 38
1, 43328, Control_c, 0, 64, 127
1, 43330, Note_on_c, 0, 58, 0
1, 43335, Note_on_c, 0, 53, 0
1, 43341, Note_on_c, 0, 69, 0
1, 43343, Note_on_c, 0, 70, 52
1, 43364, Note_on_c, 0, 70, 0
1, 43367, Note_on_c, 0, 71, 57
1, 43386, Note_on_c, 0, 71, 0
1, 43391, Note_on_c, 0, 72, 62
1, 43416, Note_on_c, 0, 72, 0
1, 43427, Control_c, 0, 64, 0
1, 43428, Note_on_c, 0, 69, 28
1, 43428, Note_on_c, 0, 71, 26
1, 43429, Note_on_c, 0, 57, 26
1, 43431, Note_on_c, 0, 46, 20
1, 43432, Note_on_c, 0, 53, 22
1, 43440, Note_on_c, 0, 71, 0
1, 43452, Note_on_c, 0, 69, 0
1, 43466, Note_on_c, 0, 65, 37
1, 43476, Note_on_c, 0, 57, 0
1, 43479, Note_on_c, 0, 65, 0
1, 43491, Note_on_c, 0, 62, 40
1, 43506, Note_on_c, 0, 62, 0
1, 43522, Note_on_c, 0, 58, 39
1, 43531, Note_on_c, 0, 53, 0
1, 43543, Note_on_c, 0, 58, 0
1, 43550, Note_on_c, 0, 57, 40
1, 43559, Note_on_c, 0, 57, 0
1, 43572, Note_on_c, 0, 60, 56
1, 43581, Control_c, 0, 64, 127
1, 43643, Control_c, 0, 64, 0
1, 43649, Note_on_c, 0, 53, 22
1, 43668, Control_c, 0, 64, 127
1, 43698, Note_on_c, 0, 46, 0
1, 43699, Note_on_c, 0, 57, 50
1, 43714, Note_on_c, 0, 57, 0
1, 43714, Note_on_c, 0, 60, 0
1, 43738, Note_on_c, 0, 58, 42
1, 43757, Note_on_c, 0, 58, 0
1, 43776, Note_on_c, 0, 46, 33
1, 43777, Note_on_c, 0, 60, 58
1, 43798, Note_on_c, 0, 60, 0
1, 43803, Note_on_c, 0, 53, 0
1, 43813, Note_on_c, 0, 46, 0
1, 43832, Note_on_c, 0, 60, 56
1, 43836, Note_on_c, 0, 45, 50
1, 43842, Control_c, 0, 64, 0
1, 43878, Control_c, 0, 64, 127
1, 43992, Note_on_c, 0, 45, 0
1, 44024, Note_on_c, 0, 60, 0
1, 44050, Note_on_c, 0, 57, 74
1, 44081, Note_on_c, 0, 57, 0
1, 44112, Note_on_c, 0, 62, 72
1, 44131, Note_on_c, 0, 62, 0
1, 44167, Note_on_c, 0, 65, 74
1, 44171, Note_on_c, 0, 54, 50
1, 44174, Note_on_c, 0, 44, 45
1, 44206, Note_on_c, 0, 65, 0
1, 44214, Note_on_c, 0, 54, 0
1, 44216, Note_on_c, 0, 44, 0
1, 44236, Note_on_c, 0, 65, 49
1, 44237, Note_on_c, 0, 72, 45
1, 44237, Note_on_c, 0, 62, 48
1, 44238, Note_on_c, 0, 43, 48
1, 44239, Control_c, 0, 64, 0
1, 44242, Note_on_c, 0, 69, 35
1, 44271, Control_c, 0, 64, 127
1, 44277, Note_on_c, 0, 62, 0
1, 44287, Note_on_c, 0, 65, 0
1, 44290, Note_on_c, 0, 69, 0
1, 44297, Note_on_c, 0, 72, 0
1, 44297, Note_on_c, 0, 50, 45
1, 44298, Note_on_c, 0, 43, 0
1, 44306, Note_on_c, 0, 50, 0
1, 44359, Note_on_c, 0, 58, 47
1, 44419, Note_on_c, 0, 77, 59
1, 44419, Note_on_c, 0, 70, 59
1, 44422, Note_on_c, 0, 65, 45
1, 44424, Note_on_c, 0, 62, 47
1, 44430, Note_on_c, 0, 65, 0
1, 44431, Note_on_c, 0, 70, 0
1, 44437, Note_on_c, 0, 77, 0
1, 44477, Note_on_c, 0, 62, 0
1, 44482, Note_on_c, 0, 81, 72
1, 44482, Note_on_c, 0, 74, 77
1, 44483, Note_on_c, 0, 70, 75
1, 44486, Note_on_c, 0, 65, 68
1, 44488, Note_on_c, 0, 77, 42
1, 44496, Note_on_c, 0, 70, 0
1, 44497, Note_on_c, 0, 58, 0
1, 44497, Note_on_c, 0, 74, 0
1, 44497, Note_on_c, 0, 77, 0
1, 44502, Note_on_c, 0, 65, 0
1, 44506, Note_on_c, 0, 81, 0
1, 44543, Note_on_c, 0, 69, 80
1, 44544, Note_on_c, 0, 84, 83
1, 44544, Note_on_c, 0, 77, 81
1, 44544, Note_on_c, 0, 74, 85
1, 44546, Control_c, 0, 64, 0
1, 44546, Note_on_c, 0, 81, 71
1, 44555, Control_c, 0, 64, 127
1, 44564, Note_on_c, 0, 74, 0
1, 44566, Note_on_c, 0, 77, 0
1, 44567, Note_on_c, 0, 81, 0
1, 44567, Note_on_c, 0, 69, 0
1, 44571, Note_on_c, 0, 84, 0
1, 44606, Note_on_c, 0, 87, 87
1, 44607, Note_on_c, 0, 75, 82
1, 44607, Note_on_c, 0, 79, 80
1, 44608, Note_on_c, 0, 82, 70
1, 44609, Note_on_c, 0, 76, 80
1, 44610, Control_c, 0, 64, 0
1, 44612, Note_on_c, 0, 80, 27
1, 44619, Note_on_c, 0, 80, 0
1, 44634, Control_c, 0, 64, 127
1, 44639, Note_on_c, 0, 87, 0
1, 44648, Note_on_c, 0, 82, 0
1, 44648, Note_on_c, 0, 75, 0
1, 44648, Note_on_c, 0, 76, 0
1, 44649, Note_on_c, 0, 79, 0
1, 44662, Note_on_c, 0, 85, 62
1, 44663, Note_on_c, 0, 76, 64
1, 44664, Control_c, 0, 64, 0
1, 44666, Note_on_c, 0, 73, 37
1, 44677, Note_on_c, 0, 85, 0
1, 44682, Note_on_c, 0, 76, 0
1, 44688, Control_c, 0, 64, 127
1, 44691, Note_on_c, 0, 73, 0
1, 44718, Control_c, 0, 64, 0
1, 44723, Note_on_c, 0, 76, 63
1, 44724, Note_on_c, 0, 73, 42
1, 44724, Note_on_c, 0, 84, 53
1, 44725, Note_on_c, 0, 72, 47
1, 44731, Note_on_c, 0, 84, 0
1, 44733, Note_on_c, 0, 72, 0
1, 44738, Note_on_c, 0, 76, 0
1, 44743, Note_on_c, 0, 73, 0
1, 44752, Control_c, 0, 64, 127
1, 44841, Control_c, 0, 64, 0
1, 44843, Note_on_c, 0, 58, 34
1, 44844, Note_on_c, 0, 70, 55
1, 44844, Note_on_c, 0, 73, 35
1, 44847, Note_on_c, 0, 81, 40
1, 44852, Note_on_c, 0, 76, 30
1, 44867, Control_c, 0, 64, 127
1, 44877, Note_on_c, 0, 81, 0
1, 44891, Note_on_c, 0, 70, 0
1, 44902, Note_on_c, 0, 58, 0
1, 44902, Note_on_c, 0, 76, 0
1, 44908, Note_on_c, 0, 48, 35
1, 44918, Note_on_c, 0, 73, 0
1, 44966, Note_on_c, 0, 79, 50
1, 44969, Control_c, 0, 64, 0
1, 44972, Note_on_c, 0, 57, 36
1, 44972, Note_on_c, 0, 69, 38
1, 44973, Note_on_c, 0, 72, 34
1, 44974, Note_on_c, 0, 76, 34
1, 44987, Control_c, 0, 64, 127
1, 45009, Note_on_c, 0, 79, 0
1, 45014, Note_on_c, 0, 48, 0
1, 45017, Note_on_c, 0, 76, 0
1, 45018, Note_on_c, 0, 72, 0
1, 45025, Note_on_c, 0, 69, 0
1, 45033, Note_on_c, 0, 48, 47
1, 45058, Note_on_c, 0, 57, 0
1, 45093, Note_on_c, 0, 57, 49
1, 45093, Note_on_c, 0, 76, 50
1, 45093, Note_on_c, 0, 64, 50
1, 45093, Note_on_c, 0, 69, 59
1, 45096, Note_on_c, 0, 72, 37
1, 45143, Note_on_c, 0, 48, 0
1, 45208, Note_on_c, 0, 64, 0
1, 45258, Note_on_c, 0, 69, 0
1, 45258, Note_on_c, 0, 72, 0
1, 45260, Note_on_c, 0, 48, 60
1, 45268, Note_on_c, 0, 76, 0
1, 45302, Note_on_c, 0, 48, 0
1, 45318, Note_on_c, 0, 57, 0
1, 45338, Note_on_c, 0, 57, 51
1, 45343, Note_on_c, 0, 49, 36
1, 45368, Control_c, 0, 64, 0
1, 45381, Note_on_c, 0, 61, 40
1, 45397, Note_on_c, 0, 61, 0
1, 45413, Note_on_c, 0, 65, 54
1, 45424, Note_on_c, 0, 65, 0
1, 45427, Note_on_c, 0, 66, 55
1, 45456, Note_on_c, 0, 66, 0
1, 45459, Note_on_c, 0, 57, 0
1, 45464, Note_on_c, 0, 70, 38
1, 45471, Note_on_c, 0, 70, 0
1, 45486, Note_on_c, 0, 72, 41
1, 45498, Note_on_c, 0, 72, 0
1, 45509, Note_on_c, 0, 73, 34
1, 45523, Note_on_c, 0, 73, 0
1, 45544, Note_on_c, 0, 57, 50
1, 45556, Note_on_c, 0, 77, 48
1, 45568, Note_on_c, 0, 77, 0
1, 45587, Note_on_c, 0, 78, 57
1, 45607, Note_on_c, 0, 78, 0
1, 45621, Note_on_c, 0, 82, 54
1, 45636, Note_on_c, 0, 82, 0
1, 45655, Note_on_c, 0, 83, 34
1, 45658, Note_on_c, 0, 84, 32
1, 45663, Note_on_c, 0, 49, 0
1, 45665, Note_on_c, 0, 84, 0
1, 45665, Note_on_c, 0, 83, 0
1, 45677, Note_on_c, 0, 87, 50
1, 45691, Control_c, 0, 64, 127
1, 45692, Note_on_c, 0, 57, 0
1, 45705, Note_on_c, 0, 87, 0
1, 45706, Note_on_c, 0, 88, 71
1, 45725, Note_on_c, 0, 88, 0
1, 45725, Control_c, 0, 64, 0
1, 45734, Note_on_c, 0, 91, 80
1, 45739, Note_on_c, 0, 57, 31
1, 45741, Note_on_c, 0, 50, 37
1, 45756, Note_on_c, 0, 91, 0
1, 45773, Note_on_c, 0, 88, 65
1, 45786, Note_on_c, 0, 88, 0
1, 45800, Note_on_c, 0, 89, 72
1, 45822, Note_on_c, 0, 89, 0
1, 45831, Note_on_c, 0, 88, 66
1, 45848, Note_on_c, 0, 88, 0
1, 45859, Note_on_c, 0, 81, 53
1, 45873, Note_on_c, 0, 81, 0
1, 45893, Note_on_c, 0, 79, 36
1, 45896, Control_c, 0, 64, 127
1, 45917, Note_on_c, 0, 79, 0
1, 45944, Control_c, 0, 64, 0
1, 45950, Note_on_c, 0, 62, 22
1, 45970, Control_c, 0, 64, 127
1, 45994, Note_on_c, 0, 50, 0
1, 46010, Note_on_c, 0, 79, 59
1, 46019, Note_on_c, 0, 62, 0
1, 46035, Note_on_c, 0, 79, 0
1, 46052, Note_on_c, 0, 81, 56
1, 46053, Note_on_c, 0, 50, 30
1, 46062, Control_c, 0, 64, 0
1, 46067, Note_on_c, 0, 57, 0
1, 46068, Note_on_c, 0, 79, 38
1, 46071, Note_on_c, 0, 81, 0
1, 46073, Note_on_c, 0, 50, 0
1, 46086, Control_c, 0, 64, 127
1, 46089, Note_on_c, 0, 79, 0
1, 46090, Note_on_c, 0, 77, 39
1, 46109, Note_on_c, 0, 77, 0
1, 46120, Note_on_c, 0, 79, 51
1, 46138, Note_on_c, 0, 79, 0
1, 46150, Control_c, 0, 64, 0
1, 46153, Note_on_c, 0, 44, 32
1, 46154, Note_on_c, 0, 54, 35
1, 46154, Note_on_c, 0, 80, 63
1, 46181, Control_c, 0, 64, 127
1, 46196, Note_on_c, 0, 44, 0
1, 46204, Note_on_c, 0, 54, 0
1, 46266, Note_on_c, 0, 65, 54
1, 46271, Note_on_c, 0, 54, 26
1, 46275, Note_on_c, 0, 60, 34
1, 46275, Note_on_c, 0, 58, 32
1, 46311, Note_on_c, 0, 80, 0
1, 46337, Note_on_c, 0, 65, 0
1, 46339, Note_on_c, 0, 60, 0
1, 46341, Note_on_c, 0, 54, 0
1, 46353, Note_on_c, 0, 58, 0
1, 46377, Note_on_c, 0, 84, 84
1, 46378, Note_on_c, 0, 72, 80
1, 46380, Note_on_c, 0, 65, 62
1, 46380, Note_on_c, 0, 58, 51
1, 46382, Note_on_c, 0, 54, 46
1, 46382, Note_on_c, 0, 60, 53
1, 46425, Note_on_c, 0, 72, 0
1, 46428, Note_on_c, 0, 84, 0
1, 46430, Note_on_c, 0, 65, 0
1, 46440, Note_on_c, 0, 60, 0
1, 46446, Note_on_c, 0, 81, 74
1, 46457, Note_on_c, 0, 58, 0
1, 46477, Note_on_c, 0, 81, 0
1, 46479, Note_on_c, 0, 54, 0
1, 46494, Note_on_c, 0, 54, 47
1, 46495, Note_on_c, 0, 78, 57
1, 46497, Note_on_c, 0, 65, 30
1, 46505, Note_on_c, 0, 60, 20
1, 46506, Note_on_c, 0, 58, 18
1, 46517, Note_on_c, 0, 78, 0
1, 46521, Note_on_c, 0, 65, 0
1, 46528, Note_on_c, 0, 60, 0
1, 46548, Note_on_c, 0, 78, 58
1, 46567, Note_on_c, 0, 58, 0
1, 46570, Note_on_c, 0, 54, 0
1, 46577, Note_on_c, 0, 78, 0
1, 46592, Control_c, 0, 64, 0
1, 46593, Note_on_c, 0, 77, 57
1, 46594, Note_on_c, 0, 59, 43
1, 46595, Note_on_c, 0, 64, 36
1, 46596, Note_on_c, 0, 53, 31
1, 46628, Control_c, 0, 64, 127
1, 46645, Note_on_c, 0, 77, 0
1, 46649, Note_on_c, 0, 64, 0
1, 46653, Note_on_c, 0, 59, 0
1, 46655, Note_on_c, 0, 81, 64
1, 46670, Note_on_c, 0, 53, 0
1, 46680, Note_on_c, 0, 81, 0
1, 46731, Note_on_c, 0, 43, 24
1, 46761, Note_on_c, 0, 43, 0
1, 46798, Note_on_c, 0, 61, 64
1, 46799, Note_on_c, 0, 67, 68
1, 46799, Note_on_c, 0, 63, 46
1, 46800, Note_on_c, 0, 59, 62
1, 46805, Note_on_c, 0, 53, 47
1, 46811, Note_on_c, 0, 59, 0
1, 46822, Control_c, 0, 64, 0
1, 46829, Note_on_c, 0, 63, 0
1, 46830, Note_on_c, 0, 61, 0
1, 46834, Note_on_c, 0, 59, 37
1, 46836, Note_on_c, 0, 67, 0
1, 46850, Note_on_c, 0, 59, 0
1, 46851, Note_on_c, 0, 67, 15
1, 46853, Note_on_c, 0, 61, 23
1, 46854, Note_on_c, 0, 63, 27
1, 46870, Note_on_c, 0, 61, 0
1, 46870, Note_on_c, 0, 59, 35
1, 46875, Note_on_c, 0, 63, 0
1, 46889, Note_on_c, 0, 59, 0
1, 46895, Note_on_c, 0, 61, 23
1, 46895, Note_on_c, 0, 63, 30
1, 46909, Note_on_c, 0, 63, 0
1, 46910, Note_on_c, 0, 61, 0
1, 46911, Note_on_c, 0, 59, 32
1, 46929, Note_on_c, 0, 59, 0
1, 46933, Note_on_c, 0, 61, 30
1, 46935, Note_on_c, 0, 63, 31
1, 46950, Note_on_c, 0, 63, 0
1, 46950, Note_on_c, 0, 61, 0
1, 46950, Note_on_c, 0, 59, 27
1, 46954, Note_on_c, 0, 67, 0
1, 46957, Control_c, 0, 64, 127
1, 46967, Note_on_c, 0, 59, 0
1, 46970, Note_on_c, 0, 67, 10
1, 46971, Note_on_c, 0, 61, 31
1, 46973, Note_on_c, 0, 63, 29
1, 46989, Note_on_c, 0, 63, 0
1, 46989, Note_on_c, 0, 61, 0
1, 46989, Note_on_c, 0, 67, 0
1, 46990, Note_on_c, 0, 59, 26
1, 47003, Note_on_c, 0, 53, 0
1, 47006, Note_on_c, 0, 59, 0
1, 47009, Note_on_c, 0, 61, 44
1, 47010, Note_on_c, 0, 67, 16
1, 47012, Note_on_c, 0, 63, 32
1, 47025, Note_on_c, 0, 59, 40
1, 47029, Note_on_c, 0, 63, 0
1, 47030, Note_on_c, 0, 61, 0
1, 47033, Control_c, 0, 64, 0
1, 47040, Note_on_c, 0, 54, 62
1, 47045, Note_on_c, 0, 59, 0
1, 47048, Note_on_c, 0, 61, 37
1, 47051, Note_on_c, 0, 63, 31
1, 47060, Note_on_c, 0, 67, 0
1, 47061, Note_on_c, 0, 63, 0
1, 47064, Note_on_c, 0, 61, 0
1, 47064, Note_on_c, 0, 59, 40
1, 47080, Note_on_c, 0, 59, 0
1, 47083, Note_on_c, 0, 67, 18
1, 47085, Note_on_c, 0, 61, 29
1, 47089, Note_on_c, 0, 63, 32
1, 47097, Note_on_c, 0, 67, 0
1, 47098, Note_on_c, 0, 63, 0
1, 47099, Control_c, 0, 64, 127
1, 47100, Note_on_c, 0, 59, 30
1, 47101, Note_on_c, 0, 61, 0
1, 47120, Note_on_c, 0, 59, 0
1, 47121, Note_on_c, 0, 61, 36
1, 47125, Note_on_c, 0, 63, 35
1, 47135, Note_on_c, 0, 63, 0
1, 47137, Control_c, 0, 64, 0
1, 47140, Note_on_c, 0, 61, 0
1, 47141, Note_on_c, 0, 59, 40
1, 47157, Note_on_c, 0, 59, 0
1, 47159, Note_on_c, 0, 61, 38
1, 47162, Note_on_c, 0, 67, 13
1, 47166, Note_on_c, 0, 63, 25
1, 47174, Note_on_c, 0, 63, 0
1, 47175, Note_on_c, 0, 59, 42
1, 47177, Note_on_c, 0, 67, 0
1, 47177, Note_on_c, 0, 61, 0
1, 47181, Control_c, 0, 64, 127
1, 47198, Note_on_c, 0, 67, 19
1, 47199, Note_on_c, 0, 54, 0
1, 47202, Note_on_c, 0, 61, 26
1, 47205, Note_on_c, 0, 63, 31
1, 47215, Note_on_c, 0, 50, 33
1, 47216, Note_on_c, 0, 59, 0
1, 47219, Note_on_c, 0, 67, 0
1, 47247, Note_on_c, 0, 63, 0
1, 47248, Note_on_c, 0, 61, 0
1, 47249, Note_on_c, 0, 50, 0
1, 47258, Note_on_c, 0, 58, 71
1, 47259, Note_on_c, 0, 53, 55
1, 47260, Note_on_c, 0, 43, 47
1, 47266, Control_c, 0, 64, 0
1, 47309, Note_on_c, 0, 58, 0
1, 47313, Note_on_c, 0, 62, 72
1, 47319, Note_on_c, 0, 58, 19
1, 47322, Control_c, 0, 64, 127
1, 47332, Note_on_c, 0, 58, 0
1, 47359, Note_on_c, 0, 65, 70
1, 47378, Note_on_c, 0, 62, 0
1, 47389, Note_on_c, 0, 65, 0
1, 47389, Note_on_c, 0, 53, 0
1, 47397, Note_on_c, 0, 43, 0
1, 47403, Note_on_c, 0, 69, 73
1, 47411, Note_on_c, 0, 43, 25
1, 47425, Note_on_c, 0, 69, 0
1, 47429, Note_on_c, 0, 43, 0
1, 47460, Note_on_c, 0, 69, 69
1, 47462, Note_on_c, 0, 58, 57
1, 47463, Note_on_c, 0, 62, 60
1, 47464, Note_on_c, 0, 43, 42
1, 47466, Note_on_c, 0, 53, 37
1, 47467, Control_c, 0, 64, 0
1, 47467, Note_on_c, 0, 65, 42
1, 47488, Control_c, 0, 64, 127
1, 47490, Note_on_c, 0, 62, 0
1, 47492, Note_on_c, 0, 65, 0
1, 47494, Note_on_c, 0, 58, 0
1, 47495, Note_on_c, 0, 69, 0
1, 47526, Note_on_c, 0, 72, 79
1, 47553, Note_on_c, 0, 72, 0
1, 47576, Note_on_c, 0, 53, 0
1, 47588, Note_on_c, 0, 72, 62
1, 47597, Note_on_c, 0, 43, 0
1, 47605, Note_on_c, 0, 72, 0
1, 47657, Note_on_c, 0, 60, 38
1, 47658, Note_on_c, 0, 45, 51
1, 47660, Note_on_c, 0, 61, 56
1, 47664, Note_on_c, 0, 33, 24
1, 47666, Control_c, 0, 64, 0
1, 47672, Note_on_c, 0, 60, 0
1, 47676, Note_on_c, 0, 61, 0
1, 47679, Note_on_c, 0, 62, 54
1, 47707, Control_c, 0, 64, 127
1, 47718, Note_on_c, 0, 62, 0
1, 47729, Note_on_c, 0, 65, 62
1, 47729, Note_on_c, 0, 58, 64
1, 47731, Note_on_c, 0, 53, 76
1, 47732, Note_on_c, 0, 62, 64
1, 47745, Control_c, 0, 64, 0
1, 47753, Control_c, 0, 64, 127
1, 47777, Note_on_c, 0, 33, 0
1, 47778, Note_on_c, 0, 45, 0
1, 47779, Note_on_c, 0, 53, 0
1, 47782, Note_on_c, 0, 65, 0
1, 47784, Note_on_c, 0, 58, 0
1, 47786, Note_on_c, 0, 62, 0
1, 47795, Control_c, 0, 64, 0
1, 47798, Note_on_c, 0, 65, 61
1, 47798, Note_on_c, 0, 58, 71
1, 47800, Note_on_c, 0, 46, 76
1, 47801, Note_on_c, 0, 34, 70
1, 47801, Note_on_c, 0, 53, 71
1, 47802, Note_on_c, 0, 62, 68
1, 47810, Note_on_c, 0, 64, 27
1, 47827, Control_c, 0, 64, 127
1, 47832, Note_on_c, 0, 34, 0
1, 47847, Note_on_c, 0, 53, 0
1, 47847, Note_on_c, 0, 64, 0
1, 47854, Note_on_c, 0, 46, 0
1, 47855, Note_on_c, 0, 58, 0
1, 47856, Note_on_c, 0, 62, 0
1, 47858, Note_on_c, 0, 65, 0
1, 47876, Note_on_c, 0, 65, 62
1, 47877, Note_on_c, 0, 58, 79
1, 47878, Note_on_c, 0, 62, 66
1, 47878, Note_on_c, 0, 48, 75
1, 47879, Note_on_c, 0, 53, 80
1, 47880, Note_on_c, 0, 36, 57
1, 47884, Note_on_c, 0, 64, 37
1, 47887, Control_c, 0, 64, 0
1, 47888, Note_on_c, 0, 38, 24
1, 47895, Note_on_c, 0, 38, 0
1, 47947, Control_c, 0, 64, 127
1, 47994, Note_on_c, 0, 36, 0
1, 48019, Note_on_c, 0, 36, 63
1, 48046, Note_on_c, 0, 48, 0
1, 48048, Note_on_c, 0, 53, 0
1, 48061, Note_on_c, 0, 64, 0
1, 48070, Note_on_c, 0, 62, 0
1, 48072, Note_on_c, 0, 58, 0
1, 48076, Note_on_c, 0, 65, 0
1, 48097, Note_on_c, 0, 58, 51
1, 48100, Note_on_c, 0, 62, 48
1, 48100, Note_on_c, 0, 65, 30
1, 48102, Note_on_c, 0, 48, 37
1, 48102, Control_c, 0, 64, 0
1, 48102, Note_on_c, 0, 53, 38
1, 48140, Control_c, 0, 64, 127
1, 48170, Note_on_c, 0, 48, 0
1, 48186, Note_on_c, 0, 36, 0
1, 48193, Note_on_c, 0, 65, 0
1, 48229, Note_on_c, 0, 53, 0
1, 48236, Note_on_c, 0, 65, 45
1, 48246, Note_on_c, 0, 58, 0
1, 48260, Note_on_c, 0, 65, 0
1, 48263, Note_on_c, 0, 62, 0
1, 48299, Control_c, 0, 64, 0
1, 48306, Note_on_c, 0, 65, 40
1, 48310, Note_on_c, 0, 41, 34
1, 48312, Note_on_c, 0, 60, 36
1, 48313, Note_on_c, 0, 29, 31
1, 48332, Note_on_c, 0, 60, 0
1, 48333, Control_c, 0, 64, 127
1, 48337, Note_on_c, 0, 65, 0
1, 48349, Note_on_c, 0, 29, 0
1, 48360, Note_on_c, 0, 41, 0
1, 48381, Note_on_c, 0, 72, 55
1, 48517, Note_on_c, 0, 64, 30
1, 48522, Note_on_c, 0, 57, 36
1, 48522, Note_on_c, 0, 60, 33
1, 48524, Note_on_c, 0, 53, 20
1, 48584, Note_on_c, 0, 60, 0
1, 48584, Note_on_c, 0, 64, 0
1, 48592, Note_on_c, 0, 57, 0
1, 48602, Note_on_c, 0, 72, 0
1, 48606, Note_on_c, 0, 53, 0
1, 48651, Note_on_c, 0, 48, 24
1, 48657, Note_on_c, 0, 48, 0
1, 48733, Note_on_c, 0, 62, 45
1, 48733, Note_on_c, 0, 65, 43
1, 48735, Note_on_c, 0, 57, 43
1, 48746, Control_c, 0, 64, 0
1, 48780, Control_c, 0, 64, 127
1, 48794, Note_on_c, 0, 69, 42
1, 48805, Note_on_c, 0, 69, 0
1, 48837, Note_on_c, 0, 74, 105
1, 48861, Note_on_c, 0, 74, 0
1, 48879, Note_on_c, 0, 57, 0
1, 48881, Note_on_c, 0, 65, 0
1, 48889, Note_on_c, 0, 77, 92
1, 48891, Note_on_c, 0, 62, 0
1, 48919, Note_on_c, 0, 77, 0
1, 48935, Note_on_c, 0, 76, 94
1, 48937, Note_on_c, 0, 67, 64
1, 48937, Note_on_c, 0, 62, 51
1, 48937, Note_on_c, 0, 56, 50
1, 48940, Control_c, 0, 64, 0
1, 48973, Note_on_c, 0, 76, 0
1, 48991, Note_on_c, 0, 74, 82
1, 49006, Control_c, 0, 64, 127
1, 49007, Note_on_c, 0, 67, 0
1, 49015, Note_on_c, 0, 62, 0
1, 49023, Note_on_c, 0, 74, 0
1, 49029, Note_on_c, 0, 56, 0
1, 49035, Note_on_c, 0, 72, 66
1, 49082, Note_on_c, 0, 72, 0
1, 49092, Note_on_c, 0, 71, 50
1, 49095, Marker_t, "Bluesy phrases over Am"
1, 49115, Note_on_c, 0, 71, 0
1, 49138, Note_on_c, 0, 72, 60
1, 49144, Note_on_c, 0, 52, 34
1, 49145, Control_c, 0, 64, 0
1, 49145, Note_on_c, 0, 45, 41
1, 49183, Note_on_c, 0, 72, 0
1, 49188, Note_on_c, 0, 74, 50
1, 49206, Note_on_c, 0, 72, 42
1, 49211, Note_on_c, 0, 74, 0
1, 49231, Note_on_c, 0, 71, 46
1, 49239, Note_on_c, 0, 72, 0
1, 49258, Note_on_c, 0, 71, 0
1, 49282, Note_on_c, 0, 72, 71
1, 49293, Note_on_c, 0, 45, 0
1, 49307, Note_on_c, 0, 72, 0
1, 49317, Control_c, 0, 64, 127
1, 49321, Note_on_c, 0, 74, 64
1, 49340, Note_on_c, 0, 74, 0
1, 49359, Note_on_c, 0, 74, 49
1, 49361, Note_on_c, 0, 52, 0
1, 49362, Note_on_c, 0, 53, 44
1, 49363, Control_c, 0, 64, 0
1, 49364, Note_on_c, 0, 45, 30
1, 49376, Note_on_c, 0, 75, 42
1, 49392, Note_on_c, 0, 74, 0
1, 49395, Note_on_c, 0, 75, 0
1, 49396, Note_on_c, 0, 76, 50
1, 49414, Note_on_c, 0, 76, 0
1, 49427, Note_on_c, 0, 81, 46
1, 49427, Note_on_c, 0, 83, 46
1, 49439, Note_on_c, 0, 83, 0
1, 49446, Note_on_c, 0, 81, 0
1, 49471, Note_on_c, 0, 74, 76
1, 49473, Note_on_c, 0, 81, 54
1, 49492, Note_on_c, 0, 74, 0
1, 49495, Note_on_c, 0, 75, 34
1, 49511, Note_on_c, 0, 81, 0
1, 49515, Note_on_c, 0, 74, 49
1, 49526, Note_on_c, 0, 75, 0
1, 49529, Note_on_c, 0, 45, 0
1, 49533, Note_on_c, 0, 53, 0
1, 49534, Control_c, 0, 64, 127
1, 49539, Note_on_c, 0, 74, 0
1, 49541, Note_on_c, 0, 72, 40
1, 49563, Note_on_c, 0, 72, 0
1, 49566, Note_on_c, 0, 71, 58
1, 49577, Note_on_c, 0, 45, 40
1, 49578, Note_on_c, 0, 54, 28
1, 49582, Control_c, 0, 64, 0
1, 49588, Note_on_c, 0, 71, 0
1, 49594, Note_on_c, 0, 74, 60
1, 49620, Note_on_c, 0, 74, 0
1, 49624, Note_on_c, 0, 71, 53
1, 49638, Note_on_c, 0, 71, 0
1, 49652, Note_on_c, 0, 72, 70
1, 49694, Control_c, 0, 64, 127
1, 49732, Note_on_c, 0, 45, 0
1, 49745, Note_on_c, 0, 54, 0
1, 49802, Note_on_c, 0, 53, 53
1, 49803, Note_on_c, 0, 45, 44
1, 49805, Control_c, 0, 64, 0
1, 49833, Control_c, 0, 64, 127
1, 49868, Note_on_c, 0, 53, 0
1, 49889, Note_on_c, 0, 72, 0
1, 49913, Note_on_c, 0, 52, 38
1, 49935, Note_on_c, 0, 45, 0
1, 49936, Note_on_c, 0, 52, 0
1, 50007, Control_c, 0, 64, 0
1, 50015, Note_on_c, 0, 62, 44
1, 50016, Note_on_c, 0, 57, 38
1, 50017, Note_on_c, 0, 65, 38
1, 50018, Note_on_c, 0, 47, 48
1, 50037, Control_c, 0, 64, 127
1, 50039, Note_on_c, 0, 57, 0
1, 50052, Note_on_c, 0, 62, 0
1, 50054, Note_on_c, 0, 65, 0
1, 50071, Note_on_c, 0, 47, 0
1, 50091, Note_on_c, 0, 69, 71
1, 50114, Note_on_c, 0, 69, 0
1, 50142, Note_on_c, 0, 77, 80
1, 50161, Note_on_c, 0, 77, 0
1, 50191, Note_on_c, 0, 86, 99
1, 50224, Note_on_c, 0, 86, 0
1, 50235, Note_on_c, 0, 65, 56
1, 50235, Note_on_c, 0, 62, 51
1, 50235, Note_on_c, 0, 57, 57
1, 50236, Control_c, 0, 64, 0
1, 50236, Note_on_c, 0, 89, 90
1, 50274, Control_c, 0, 64, 127
1, 50275, Note_on_c, 0, 89, 0
1, 50295, Note_on_c, 0, 89, 82
1, 50329, Note_on_c, 0, 89, 0
1, 50342, Note_on_c, 0, 88, 88
1, 50370, Note_on_c, 0, 65, 0
1, 50377, Note_on_c, 0, 88, 0
1, 50390, Note_on_c, 0, 57, 0
1, 50397, Note_on_c, 0, 88, 89
1, 50405, Note_on_c, 0, 62, 0
1, 50432, Note_on_c, 0, 88, 0
1, 50442, Note_on_c, 0, 86, 73
1, 50444, Note_on_c, 0, 62, 50
1, 50444, Note_on_c, 0, 67, 58
1, 50446, Note_on_c, 0, 56, 43
1, 50451, Control_c, 0, 64, 0
1, 50484, Note_on_c, 0, 86, 0
1, 50485, Control_c, 0, 64, 127
1, 50498, Note_on_c, 0, 86, 71
1, 50526, Note_on_c, 0, 86, 0
1, 50544, Note_on_c, 0, 84, 59
1, 50551, Note_on_c, 0, 67, 0
1, 50575, Note_on_c, 0, 84, 0
1, 50593, Note_on_c, 0, 56, 0
1, 50599, Note_on_c, 0, 62, 0
1, 50600, Note_on_c, 0, 84, 71
1, 50629, Note_on_c, 0, 84, 0
1, 50646, Note_on_c, 0, 83, 64
1, 50649, Note_on_c, 0, 65, 37
1, 50650, Note_on_c, 0, 62, 34
1, 50653, Control_c, 0, 64, 0
1, 50654, Note_on_c, 0, 56, 25
1, 50676, Note_on_c, 0, 83, 0
1, 50688, Note_on_c, 0, 65, 0
1, 50697, Control_c, 0, 64, 127
1, 50705, Note_on_c, 0, 62, 0
1, 50705, Note_on_c, 0, 83, 49
1, 50718, Note_on_c, 0, 56, 0
1, 50731, Note_on_c, 0, 83, 0
1, 50750, Note_on_c, 0, 86, 81
1, 50790, Note_on_c, 0, 86, 0
1, 50814, Note_on_c, 0, 83, 43
1, 50840, Note_on_c, 0, 83, 0
1, 50852, Control_c, 0, 64, 0
1, 50856, Note_on_c, 0, 52, 34
1, 50857, Note_on_c, 0, 45, 33
1, 50857, Note_on_c, 0, 84, 57
1, 50867, Note_on_c, 0, 84, 0
1, 50928, Note_on_c, 0, 84, 58
1, 50941, Note_on_c, 0, 84, 0
1, 50968, Note_on_c, 0, 86, 87
1, 50974, Note_on_c, 0, 93, 62
1, 50988, Note_on_c, 0, 86, 0
1, 51000, Note_on_c, 0, 45, 0
1, 51004, Note_on_c, 0, 87, 69
1, 51013, Note_on_c, 0, 52, 0
1, 51020, Note_on_c, 0, 93, 0
1, 51023, Note_on_c, 0, 87, 0
1, 51043, Note_on_c, 0, 86, 95
1, 51045, Note_on_c, 0, 93, 87
1, 51049, Note_on_c, 0, 52, 58
1, 51051, Note_on_c, 0, 45, 51
1, 51071, Note_on_c, 0, 86, 0
1, 51080, Note_on_c, 0, 87, 65
1, 51096, Note_on_c, 0, 93, 0
1, 51104, Note_on_c, 0, 45, 0
1, 51104, Note_on_c, 0, 87, 0
1, 51117, Note_on_c, 0, 86, 94
1, 51119, Note_on_c, 0, 93, 84
1, 51120, Note_on_c, 0, 53, 75
1, 51121, Note_on_c, 0, 45, 58
1, 51130, Note_on_c, 0, 52, 0
1, 51152, Control_c, 0, 64, 127
1, 51264, Note_on_c, 0, 45, 0
1, 51293, Note_on_c, 0, 93, 0
1, 51298, Note_on_c, 0, 86, 0
1, 51305, Note_on_c, 0, 45, 45
1, 51307, Note_on_c, 0, 84, 53
1, 51318, Note_on_c, 0, 84, 0
1, 51319, Note_on_c, 0, 53, 0
1, 51325, Note_on_c, 0, 45, 0
1, 51350, Note_on_c, 0, 54, 74
1, 51352, Note_on_c, 0, 86, 105
1, 51352, Control_c, 0, 64, 0
1, 51353, Note_on_c, 0, 45, 62
1, 51354, Note_on_c, 0, 93, 88
1, 51376, Note_on_c, 0, 93, 0
1, 51380, Note_on_c, 0, 86, 0
1, 51389, Note_on_c, 0, 93, 44
1, 51392, Note_on_c, 0, 87, 63
1, 51407, Note_on_c, 0, 93, 0
1, 51415, Note_on_c, 0, 87, 0
1, 51416, Note_on_c, 0, 54, 0
1, 51428, Note_on_c, 0, 86, 94
1, 51430, Note_on_c, 0, 54, 59
1, 51430, Note_on_c, 0, 93, 83
1, 51443, Control_c, 0, 64, 127
1, 51456, Note_on_c, 0, 86, 0
1, 51464, Note_on_c, 0, 87, 63
1, 51483, Note_on_c, 0, 93, 0
1, 51489, Note_on_c, 0, 87, 0
1, 51501, Note_on_c, 0, 86, 80
1, 51507, Note_on_c, 0, 93, 74
1, 51524, Note_on_c, 0, 86, 0
1, 51533, Note_on_c, 0, 86, 51
1, 51536, Note_on_c, 0, 87, 75
1, 51546, Note_on_c, 0, 86, 0
1, 51556, Note_on_c, 0, 45, 0
1, 51557, Note_on_c, 0, 93, 0
1, 51559, Note_on_c, 0, 54, 0
1, 51559, Note_on_c, 0, 87, 0
1, 51572, Note_on_c, 0, 86, 73
1, 51572, Note_on_c, 0, 93, 64
1, 51577, Note_on_c, 0, 53, 53
1, 51578, Note_on_c, 0, 45, 48
1, 51579, Control_c, 0, 64, 0
1, 51604, Control_c, 0, 64, 127
1, 51650, Note_on_c, 0, 53, 0
1, 51668, Note_on_c, 0, 84, 74
1, 51670, Note_on_c, 0, 52, 58
1, 51711, Note_on_c, 0, 93, 0
1, 51719, Note_on_c, 0, 86, 0
1, 51725, Note_on_c, 0, 84, 0
1, 51771, Note_on_c, 0, 45, 0
1, 51781, Note_on_c, 0, 52, 0
1, 51783, Note_on_c, 0, 51, 33
1, 51801, Note_on_c, 0, 51, 0
1, 51822, Note_on_c, 0, 44, 55
1, 51822, Note_on_c, 0, 88, 53
1, 51823, Note_on_c, 0, 54, 53
1, 51824, Note_on_c, 0, 80, 34
1, 51824, Note_on_c, 0, 76, 48
1, 51827, Control_c, 0, 64, 0
1, 51828, Note_on_c, 0, 84, 38
1, 51857, Control_c, 0, 64, 127
1, 51891, Note_on_c, 0, 44, 0
1, 51896, Note_on_c, 0, 88, 0
1, 51898, Note_on_c, 0, 54, 0
1, 51900, Note_on_c, 0, 84, 0
1, 51913, Note_on_c, 0, 80, 0
1, 51915, Note_on_c, 0, 76, 0
1, 52051, Note_on_c, 0, 54, 38
1, 52053, Note_on_c, 0, 76, 36
1, 52053, Note_on_c, 0, 68, 33
1, 52055, Note_on_c, 0, 60, 34
1, 52055, Note_on_c, 0, 72, 36
1, 52055, Note_on_c, 0, 64, 34
1, 52098, Note_on_c, 0, 76, 0
1, 52100, Note_on_c, 0, 72, 0
1, 52109, Note_on_c, 0, 60, 0
1, 52113, Note_on_c, 0, 68, 0
1, 52113, Note_on_c, 0, 64, 0
1, 52131, Note_on_c, 0, 54, 0
1, 52189, Note_on_c, 0, 67, 69
1, 52267, Note_on_c, 0, 67, 0
1, 52268, Control_c, 0, 64, 0
1, 52270, Note_on_c, 0, 63, 54
1, 52271, Note_on_c, 0, 59, 62
1, 52275, Note_on_c, 0, 43, 40
1, 52275, Note_on_c, 0, 53, 40
1, 52278, Note_on_c, 0, 59, 0
1, 52286, Note_on_c, 0, 43, 0
1, 52286, Control_c, 0, 64, 127
1, 52287, Note_on_c, 0, 63, 0
1, 52303, Note_on_c, 0, 53, 0
1, 52340, Note_on_c, 0, 79, 72
1, 52347, Note_on_c, 0, 78, 32
1, 52354, Note_on_c, 0, 78, 0
1, 52371, Note_on_c, 0, 79, 0
1, 52484, Note_on_c, 0, 71, 60
1, 52486, Note_on_c, 0, 67, 48
1, 52487, Note_on_c, 0, 61, 46
1, 52500, Note_on_c, 0, 71, 0
1, 52508, Note_on_c, 0, 67, 0
1, 52511, Note_on_c, 0, 61, 0
1, 52562, Note_on_c, 0, 63, 65
1, 52564, Note_on_c, 0, 59, 41
1, 52565, Note_on_c, 0, 67, 71
1, 52595, Note_on_c, 0, 59, 0
1, 52595, Note_on_c, 0, 63, 0
1, 52606, Note_on_c, 0, 67, 0
1, 52631, Note_on_c, 0, 74, 80
1, 52635, Note_on_c, 0, 55, 53
1, 52635, Control_c, 0, 64, 0
1, 52639, Control_c, 0, 64, 127
1, 52677, Note_on_c, 0, 74, 0
1, 52706, Note_on_c, 0, 55, 0
1, 52707, Note_on_c, 0, 67, 42
1, 52708, Note_on_c, 0, 63, 31
1, 52709, Note_on_c, 0, 72, 46
1, 52711, Note_on_c, 0, 48, 46
1, 52712, Note_on_c, 0, 58, 32
1, 52721, Control_c, 0, 64, 0
1, 52753, Control_c, 0, 64, 127
1, 52789, Note_on_c, 0, 58, 0
1, 52794, Note_on_c, 0, 67, 0
1, 52796, Note_on_c, 0, 72, 0
1, 52797, Note_on_c, 0, 55, 36
1, 52805, Note_on_c, 0, 63, 0
1, 52923, Note_on_c, 0, 55, 0
1, 52932, Note_on_c, 0, 48, 0
1, 53021, Note_on_c, 0, 48, 45
1, 53022, Note_on_c, 0, 56, 35
1, 53026, Control_c, 0, 64, 0
1, 53064, Control_c, 0, 64, 127
1, 53066, Note_on_c, 0, 60, 49
1, 53081, Note_on_c, 0, 60, 0
1, 53096, Control_c, 0, 64, 0
1, 53097, Note_on_c, 0, 62, 60
1, 53122, Note_on_c, 0, 62, 0
1, 53129, Note_on_c, 0, 48, 0
1, 53129, Control_c, 0, 64, 127
1, 53134, Note_on_c, 0, 63, 77
1, 53145, Note_on_c, 0, 56, 0
1, 53163, Note_on_c, 0, 63, 0
1, 53171, Note_on_c, 0, 48, 42
1, 53174, Note_on_c, 0, 65, 70
1, 53174, Note_on_c, 0, 57, 53
1, 53181, Control_c, 0, 64, 0
1, 53206, Note_on_c, 0, 65, 0
1, 53216, Note_on_c, 0, 67, 69
1, 53240, Note_on_c, 0, 67, 0
1, 53256, Note_on_c, 0, 65, 54
1, 53271, Control_c, 0, 64, 127
1, 53321, Note_on_c, 0, 48, 0
1, 53330, Note_on_c, 0, 57, 0
1, 53396, Note_on_c, 0, 48, 44
1, 53398, Note_on_c, 0, 56, 32
1, 53401, Control_c, 0, 64, 0
1, 53428, Control_c, 0, 64, 127
1, 53460, Note_on_c, 0, 56, 0
1, 53483, Note_on_c, 0, 48, 0
1, 53510, Note_on_c, 0, 48, 33
1, 53514, Note_on_c, 0, 55, 39
1, 53527, Note_on_c, 0, 55, 0
1, 53534, Note_on_c, 0, 48, 0
1, 53562, Note_on_c, 0, 63, 53
1, 53590, Note_on_c, 0, 65, 0
1, 53602, Note_on_c, 0, 63, 0
1, 53611, Note_on_c, 0, 60, 48
1, 53612, Note_on_c, 0, 54, 36
1, 53614, Control_c, 0, 64, 0
1, 53617, Note_on_c, 0, 44, 32
1, 53644, Control_c, 0, 64, 127
1, 53650, Note_on_c, 0, 60, 0
1, 53665, Note_on_c, 0, 72, 58
1, 53672, Note_on_c, 0, 44, 0
1, 53680, Note_on_c, 0, 54, 0
1, 53753, Note_on_c, 0, 72, 0
1, 53808, Note_on_c, 0, 54, 26
1, 53809, Note_on_c, 0, 65, 27
1, 53813, Note_on_c, 0, 58, 35
1, 53816, Note_on_c, 0, 60, 32
1, 53882, Note_on_c, 0, 84, 78
1, 53883, Note_on_c, 0, 72, 71
1, 53940, Note_on_c, 0, 72, 0
1, 53958, Note_on_c, 0, 80, 45
1, 53961, Note_on_c, 0, 84, 0
1, 53962, Note_on_c, 0, 60, 0
1, 53962, Note_on_c, 0, 65, 0
1, 53974, Note_on_c, 0, 54, 0
1, 53983, Note_on_c, 0, 77, 48
1, 53991, Note_on_c, 0, 58, 0
1, 54005, Note_on_c, 0, 77, 0
1, 54008, Note_on_c, 0, 72, 59
1, 54009, Note_on_c, 0, 80, 0
1, 54020, Note_on_c, 0, 72, 0
1, 54036, Note_on_c, 0, 64, 36
1, 54037, Note_on_c, 0, 59, 35
1, 54039, Note_on_c, 0, 53, 39
1, 54040, Note_on_c, 0, 75, 50
1, 54043, Note_on_c, 0, 87, 64
1, 54043, Control_c, 0, 64, 0
1, 54066, Note_on_c, 0, 88, 28
1, 54077, Control_c, 0, 64, 127
1, 54091, Note_on_c, 0, 88, 0
1, 54120, Note_on_c, 0, 64, 0
1, 54124, Note_on_c, 0, 59, 0
1, 54128, Note_on_c, 0, 87, 0
1, 54135, Note_on_c, 0, 53, 0
1, 54138, Note_on_c, 0, 75, 0
1, 54148, Note_on_c, 0, 74, 71
1, 54148, Note_on_c, 0, 86, 74
1, 54250, Note_on_c, 0, 43, 55
1, 54259, Note_on_c, 0, 43, 0
1, 54360, Note_on_c, 0, 74, 0
1, 54369, Note_on_c, 0, 86, 0
1, 54376, Note_on_c, 0, 74, 55
1, 54380, Note_on_c, 0, 86, 19
1, 54394, Note_on_c, 0, 74, 0
1, 54404, Note_on_c, 0, 86, 0
1, 54601, Note_on_c, 0, 88, 80
1, 54601, Note_on_c, 0, 76, 80
1, 54602, Note_on_c, 0, 84, 76
1, 54602, Note_on_c, 0, 67, 83
1, 54603, Note_on_c, 0, 56, 74
1, 54603, Note_on_c, 0, 62, 70
1, 54609, Note_on_c, 0, 86, 25
1, 54611, Control_c, 0, 64, 0
1, 54613, Note_on_c, 0, 84, 0
1, 54614, Note_on_c, 0, 67, 0
1, 54614, Note_on_c, 0, 76, 0
1, 54615, Note_on_c, 0, 86, 0
1, 54617, Note_on_c, 0, 88, 0
1, 54619, Note_on_c, 0, 62, 0
1, 54620, Note_on_c, 0, 56, 0
1, 54663, Control_c, 0, 64, 127
1, 54679, Control_c, 0, 64, 0
1, 54681, Note_on_c, 0, 76, 69
1, 54681, Note_on_c, 0, 88, 68
1, 54681, Note_on_c, 0, 84, 64
1, 54682, Note_on_c, 0, 56, 63
1, 54683, Note_on_c, 0, 67, 74
1, 54683, Note_on_c, 0, 62, 64
1, 54688, Note_on_c, 0, 88, 0
1, 54689, Note_on_c, 0, 84, 0
1, 54692, Note_on_c, 0, 76, 0
1, 54692, Note_on_c, 0, 67, 0
1, 54694, Note_on_c, 0, 62, 0
1, 54697, Note_on_c, 0, 56, 0
1, 54749, Note_on_c, 0, 76, 62
1, 54749, Note_on_c, 0, 88, 64
1, 54750, Note_on_c, 0, 84, 58
1, 54752, Note_on_c, 0, 67, 71
1, 54753, Note_on_c, 0, 56, 51
1, 54755, Note_on_c, 0, 62, 49
1, 54756, Note_on_c, 0, 88, 0
1, 54758, Note_on_c, 0, 84, 0
1, 54759, Note_on_c, 0, 67, 0
1, 54761, Note_on_c, 0, 76, 0
1, 54763, Note_on_c, 0, 62, 0
1, 54764, Note_on_c, 0, 56, 0
1, 54810, Control_c, 0, 64, 127
1, 54820, Note_on_c, 0, 76, 59
1, 54821, Note_on_c, 0, 88, 62
1, 54821, Note_on_c, 0, 84, 57
1, 54821, Note_on_c, 0, 62, 58
1, 54823, Note_on_c, 0, 67, 53
1, 54823, Note_on_c, 0, 56, 36
1, 54829, Note_on_c, 0, 88, 0
1, 54830, Note_on_c, 0, 84, 0
1, 54831, Note_on_c, 0, 67, 0
1, 54833, Note_on_c, 0, 56, 0
1, 54834, Note_on_c, 0, 76, 0
1, 54838, Note_on_c, 0, 62, 0
1, 54862, Control_c, 0, 64, 0
1, 54876, Control_c, 0, 64, 127
1, 54896, Note_on_c, 0, 76, 49
1, 54898, Note_on_c, 0, 84, 34
1, 54898, Note_on_c, 0, 62, 49
1, 54900, Note_on_c, 0, 88, 26
1, 54905, Note_on_c, 0, 76, 0
1, 54906, Note_on_c, 0, 84, 0
1, 54907, Note_on_c, 0, 88, 0
1, 54909, Note_on_c, 0, 62, 0
1, 54927, Note_on_c, 0, 88, 49
1, 54928, Note_on_c, 0, 84, 50
1, 54929, Note_on_c, 0, 76, 47
1, 54931, Note_on_c, 0, 67, 41
1, 54931, Note_on_c, 0, 62, 47
1, 54936, Note_on_c, 0, 84, 0
1, 54936, Note_on_c, 0, 88, 0
1, 54936, Note_on_c, 0, 56, 25
1, 54938, Note_on_c, 0, 76, 0
1, 54942, Note_on_c, 0, 67, 0
1, 54951, Note_on_c, 0, 62, 0
1, 54955, Note_on_c, 0, 76, 54
1, 54957, Note_on_c, 0, 56, 0
1, 54957, Note_on_c, 0, 88, 47
1, 54958, Note_on_c, 0, 84, 51
1, 54962, Note_on_c, 0, 76, 0
1, 54965, Note_on_c, 0, 84, 0
1, 54965, Note_on_c, 0, 88, 0
1, 54982, Note_on_c, 0, 66, 69
1, 54983, Note_on_c, 0, 55, 73
1, 54983, Note_on_c, 0, 89, 76
1, 54984, Note_on_c, 0, 84, 68
1, 54984, Note_on_c, 0, 61, 56
1, 54984, Note_on_c, 0, 77, 66
1, 54985, Control_c, 0, 64, 0
1, 55015, Control_c, 0, 64, 127
1, 55042, Note_on_c, 0, 55, 0
1, 55043, Note_on_c, 0, 77, 0
1, 55044, Note_on_c, 0, 84, 0
1, 55044, Note_on_c, 0, 89, 0
1, 55045, Note_on_c, 0, 66, 0
1, 55055, Note_on_c, 0, 61, 0
1, 55070, Note_on_c, 0, 66, 56
1, 55071, Note_on_c, 0, 89, 68
1, 55071, Note_on_c, 0, 61, 35
1, 55071, Note_on_c, 0, 77, 66
1, 55074, Note_on_c, 0, 55, 58
1, 55075, Note_on_c, 0, 84, 46
1, 55122, Note_on_c, 0, 55, 0
1, 55130, Note_on_c, 0, 84, 0
1, 55135, Note_on_c, 0, 77, 0
1, 55136, Note_on_c, 0, 66, 0
1, 55138, Note_on_c, 0, 61, 0
1, 55138, Note_on_c, 0, 89, 0
1, 55189, Note_on_c, 0, 77, 50
1, 55189, Note_on_c, 0, 89, 60
1, 55190, Note_on_c, 0, 66, 57
1, 55191, Note_on_c, 0, 61, 48
1, 55193, Note_on_c, 0, 55, 58
1, 55195, Note_on_c, 0, 84, 40
1, 55304, Note_on_c, 0, 89, 0
1, 55308, Note_on_c, 0, 84, 0
1, 55313, Note_on_c, 0, 55, 0
1, 55316, Note_on_c, 0, 77, 0
1, 55318, Note_on_c, 0, 66, 0
1, 55329, Note_on_c, 0, 61, 0
1, 55414, Control_c, 0, 64, 0
1, 55415, Note_on_c, 0, 82, 85
1, 55416, Note_on_c, 0, 65, 78
1, 55416, Note_on_c, 0, 58, 60
1, 55416, Note_on_c, 0, 60, 68
1, 55416, Note_on_c, 0, 54, 74
1, 55417, Note_on_c, 0, 86, 88
1, 55417, Note_on_c, 0, 74, 94
1, 55423, Note_on_c, 0, 84, 33
1, 55430, Note_on_c, 0, 84, 0
1, 55438, Control_c, 0, 64, 127
1, 55461, Note_on_c, 0, 86, 0
1, 55463, Note_on_c, 0, 74, 0
1, 55464, Note_on_c, 0, 82, 0
1, 55464, Note_on_c, 0, 65, 0
1, 55465, Note_on_c, 0, 54, 0
1, 55466, Note_on_c, 0, 60, 0
1, 55471, Note_on_c, 0, 58, 0
1, 55492, Note_on_c, 0, 74, 55
1, 55492, Note_on_c, 0, 65, 41
1, 55494, Note_on_c, 0, 54, 26
1, 55495, Note_on_c, 0, 60, 38
1, 55495, Note_on_c, 0, 86, 31
1, 55500, Note_on_c, 0, 74, 0
1, 55501, Note_on_c, 0, 65, 0
1, 55502, Note_on_c, 0, 54, 0
1, 55503, Note_on_c, 0, 60, 0
1, 55504, Note_on_c, 0, 86, 0
1, 55523, Note_on_c, 0, 86, 37
1, 55523, Note_on_c, 0, 65, 36
1, 55524, Note_on_c, 0, 74, 43
1, 55532, Note_on_c, 0, 86, 0
1, 55533, Note_on_c, 0, 65, 0
1, 55534, Note_on_c, 0, 74, 0
1, 55549, Note_on_c, 0, 74, 47
1, 55549, Note_on_c, 0, 86, 43
1, 55550, Note_on_c, 0, 65, 48
1, 55550, Note_on_c, 0, 82, 46
1, 55553, Note_on_c, 0, 60, 37
1, 55559, Note_on_c, 0, 65, 0
1, 55559, Note_on_c, 0, 86, 0
1, 55560, Note_on_c, 0, 74, 0
1, 55560, Note_on_c, 0, 82, 0
1, 55562, Note_on_c, 0, 60, 0
1, 55576, Note_on_c, 0, 74, 57
1, 55577, Note_on_c, 0, 82, 58
1, 55578, Note_on_c, 0, 86, 48
1, 55579, Note_on_c, 0, 65, 35
1, 55582, Note_on_c, 0, 60, 24
1, 55586, Note_on_c, 0, 86, 0
1, 55586, Note_on_c, 0, 74, 0
1, 55588, Note_on_c, 0, 65, 0
1, 55589, Note_on_c, 0, 60, 0
1, 55590, Note_on_c, 0, 82, 0
1, 55604, Note_on_c, 0, 82, 62
1, 55604, Note_on_c, 0, 74, 65
1, 55605, Note_on_c, 0, 86, 57
1, 55606, Note_on_c, 0, 65, 59
1, 55607, Note_on_c, 0, 60, 56
1, 55611, Note_on_c, 0, 54, 28
1, 55613, Note_on_c, 0, 86, 0
1, 55615, Note_on_c, 0, 65, 0
1, 55615, Note_on_c, 0, 74, 0
1, 55618, Note_on_c, 0, 82, 0
1, 55618, Note_on_c, 0, 60, 0
1, 55618, Note_on_c, 0, 54, 0
1, 55631, Note_on_c, 0, 74, 80
1, 55632, Note_on_c, 0, 82, 74
1, 55633, Note_on_c, 0, 86, 80
1, 55634, Note_on_c, 0, 65, 83
1, 55634, Note_on_c, 0, 54, 73
1, 55635, Note_on_c, 0, 60, 80
1, 55639, Note_on_c, 0, 58, 40
1, 55645, Note_on_c, 0, 58, 0
1, 55645, Note_on_c, 0, 74, 0
1, 55646, Note_on_c, 0, 65, 0
1, 55646, Note_on_c, 0, 86, 0
1, 55648, Note_on_c, 0, 54, 0
1, 55649, Note_on_c, 0, 60, 0
1, 55649, Note_on_c, 0, 82, 0
1, 55660, Note_on_c, 0, 82, 81
1, 55661, Note_on_c, 0, 54, 83
1, 55661, Note_on_c, 0, 86, 76
1, 55661, Note_on_c, 0, 65, 84
1, 55661, Note_on_c, 0, 74, 82
1, 55662, Note_on_c, 0, 60, 85
1, 55665, Note_on_c, 0, 80, 56
1, 55665, Note_on_c, 0, 58, 62
1, 55671, Note_on_c, 0, 80, 0
1, 55672, Note_on_c, 0, 58, 0
1, 55701, Note_on_c, 0, 86, 0
1, 55702, Note_on_c, 0, 74, 0
1, 55702, Note_on_c, 0, 54, 0
1, 55705, Note_on_c, 0, 82, 0
1, 55706, Note_on_c, 0, 65, 0
1, 55709, Note_on_c, 0, 60, 0
1, 55722, Note_on_c, 0, 82, 78
1, 55723, Note_on_c, 0, 86, 81
1, 55723, Note_on_c, 0, 74, 87
1, 55724, Note_on_c, 0, 65, 82
1, 55724, Note_on_c, 0, 54, 82
1, 55724, Note_on_c, 0, 60, 80
1, 55751, Note_on_c, 0, 74, 0
1, 55755, Note_on_c, 0, 86, 0
1, 55756, Note_on_c, 0, 65, 0
1, 55757, Note_on_c, 0, 82, 0
1, 55759, Note_on_c, 0, 54, 0
1, 55760, Note_on_c, 0, 60, 0
1, 55772, Note_on_c, 0, 54, 65
1, 55773, Note_on_c, 0, 65, 66
1, 55774, Note_on_c, 0, 82, 71
1, 55774, Note_on_c, 0, 86, 71
1, 55775, Note_on_c, 0, 60, 77
1, 55775, Note_on_c, 0, 74, 88
1, 55798, Note_on_c, 0, 74, 0
1, 55799, Note_on_c, 0, 65, 0
1, 55799, Note_on_c, 0, 86, 0
1, 55801, Note_on_c, 0, 54, 0
1, 55804, Note_on_c, 0, 60, 0
1, 55804, Note_on_c, 0, 82, 0
1, 55832, Note_on_c, 0, 82, 74
1, 55833, Note_on_c, 0, 86, 80
1, 55833, Note_on_c, 0, 74, 89
1, 55835, Note_on_c, 0, 54, 70
1, 55835, Note_on_c, 0, 65, 67
1, 55835, Note_on_c, 0, 60, 71
1, 55849, Note_on_c, 0, 86, 0
1, 55852, Note_on_c, 0, 74, 0
1, 55854, Note_on_c, 0, 65, 0
1, 55860, Note_on_c, 0, 82, 0
1, 55861, Note_on_c, 0, 60, 0
1, 55872, Note_on_c, 0, 54, 0
1, 55890, Note_on_c, 0, 87, 75
1, 55891, Note_on_c, 0, 64, 74
1, 55891, Note_on_c, 0, 79, 66
1, 55891, Note_on_c, 0, 75, 64
1, 55892, Note_on_c, 0, 59, 72
1, 55892, Note_on_c, 0, 53, 71
1, 55894, Control_c, 0, 64, 0
1, 55894, Note_on_c, 0, 83, 51
1, 55921, Control_c, 0, 64, 127
1, 55939, Note_on_c, 0, 64, 0
1, 55943, Note_on_c, 0, 59, 0
1, 55944, Note_on_c, 0, 87, 0
1, 55951, Note_on_c, 0, 75, 0
1, 55951, Note_on_c, 0, 53, 0
1, 55953, Note_on_c, 0, 79, 0
1, 55959, Note_on_c, 0, 83, 0
1, 55965, Note_on_c, 0, 87, 64
1, 55968, Note_on_c, 0, 75, 62
1, 55969, Note_on_c, 0, 83, 32
1, 55969, Note_on_c, 0, 79, 47
1, 55972, Note_on_c, 0, 85, 27
1, 55979, Note_on_c, 0, 85, 0
1, 55984, Note_on_c, 0, 83, 0
1, 55984, Note_on_c, 0, 87, 0
1, 55988, Note_on_c, 0, 79, 0
1, 55998, Note_on_c, 0, 75, 0
1, 56112, Note_on_c, 0, 63, 47
1, 56112, Note_on_c, 0, 56, 34
1, 56114, Note_on_c, 0, 53, 38
1, 56115, Note_on_c, 0, 59, 46
1, 56118, Note_on_c, 0, 43, 32
1, 56124, Control_c, 0, 64, 0
1, 56154, Control_c, 0, 64, 127
1, 56181, Note_on_c, 0, 53, 0
1, 56195, Note_on_c, 0, 63, 0
1, 56197, Note_on_c, 0, 43, 0
1, 56204, Note_on_c, 0, 56, 0
1, 56216, Note_on_c, 0, 63, 34
1, 56240, Note_on_c, 0, 59, 0
1, 56280, Note_on_c, 0, 63, 0
1, 56345, Note_on_c, 0, 65, 47
1, 56347, Note_on_c, 0, 58, 44
1, 56348, Note_on_c, 0, 53, 34
1, 56348, Note_on_c, 0, 62, 42
1, 56348, Note_on_c, 0, 24, 44
1, 56353, Control_c, 0, 64, 0
1, 56369, Note_on_c, 0, 53, 0
1, 56373, Note_on_c, 0, 24, 0
1, 56376, Note_on_c, 0, 58, 0
1, 56378, Note_on_c, 0, 62, 0
1, 56379, Control_c, 0, 64, 127
1, 56385, Note_on_c, 0, 65, 0
1, 56466, Note_on_c, 0, 77, 54
1, 56467, Note_on_c, 0, 70, 59
1, 56469, Note_on_c, 0, 74, 46
1, 56469, Note_on_c, 0, 65, 50
1, 56475, Note_on_c, 0, 58, 20
1, 56481, Note_on_c, 0, 65, 0
1, 56491, Note_on_c, 0, 70, 0
1, 56495, Note_on_c, 0, 74, 0
1, 56507, Note_on_c, 0, 77, 0
1, 56577, Note_on_c, 0, 89, 57
1, 56579, Note_on_c, 0, 62, 36
1, 56582, Note_on_c, 0, 86, 46
1, 56583, Note_on_c, 0, 77, 45
1, 56583, Note_on_c, 0, 82, 32
1, 56604, Note_on_c, 0, 86, 0
1, 56607, Note_on_c, 0, 89, 0
1, 56613, Note_on_c, 0, 82, 0
1, 56619, Note_on_c, 0, 77, 0
1, 56683, Note_on_c, 0, 77, 40
1, 56688, Note_on_c, 0, 67, 41
1, 56698, Note_on_c, 0, 67, 0
1, 56715, Note_on_c, 0, 62, 0
1, 56765, Note_on_c, 0, 77, 0
1, 56788, Note_on_c, 0, 77, 46
1, 56792, Note_on_c, 0, 74, 44
1, 56794, Note_on_c, 0, 62, 29
1, 56795, Note_on_c, 0, 70, 30
1, 56797, Note_on_c, 0, 65, 32
1, 56835, Note_on_c, 0, 62, 0
1, 56896, Note_on_c, 0, 62, 36
1, 56906, Note_on_c, 0, 74, 0
1, 56909, Note_on_c, 0, 77, 0
1, 56917, Note_on_c, 0, 70, 0
1, 56922, Note_on_c, 0, 65, 0
1, 56956, Note_on_c, 0, 62, 0
1, 56981, Note_on_c, 0, 58, 0
1, 57002, Note_on_c, 0, 70, 40
1, 57004, Note_on_c, 0, 62, 24
1, 57008, Note_on_c, 0, 65, 41
1, 57014, Note_on_c, 0, 58, 25
1, 57044, Note_on_c, 0, 58, 0
1, 57078, Note_on_c, 0, 62, 0
1, 57112, Note_on_c, 0, 62, 40
1, 57123, Note_on_c, 0, 65, 0
1, 57135, Note_on_c, 0, 70, 0
1, 57137, Note_on_c, 0, 62, 0
1, 57239, Note_on_c, 0, 62, 34
1, 57239, Note_on_c, 0, 48, 30
1, 57240, Note_on_c, 0, 58, 26
1, 57240, Note_on_c, 0, 65, 37
1, 57245, Note_on_c, 0, 55, 28
1, 57250, Control_c, 0, 64, 0
1, 57298, Control_c, 0, 64, 127
1, 57480, Note_on_c, 0, 58, 0
1, 57582, Note_on_c, 0, 62, 0
1, 57590, Note_on_c, 0, 65, 0
1, 57689, Note_on_c, 0, 48, 0
1, 57697, Note_on_c, 0, 55, 0
1, 57775, Note_on_c, 0, 77, 61
1, 57795, Note_on_c, 0, 77, 0
1, 57821, Note_on_c, 0, 77, 53
1, 57846, Note_on_c, 0, 77, 0
1, 57879, Note_on_c, 0, 81, 74
1, 57902, Note_on_c, 0, 81, 0
1, 57920, Note_on_c, 0, 81, 66
1, 57952, Note_on_c, 0, 81, 0
1, 57981, Note_on_c, 0, 84, 63
1, 58000, Note_on_c, 0, 84, 0
1, 58026, Note_on_c, 0, 84, 55
1, 58045, Note_on_c, 0, 84, 0
1, 58090, Note_on_c, 0, 88, 66
1, 58108, Note_on_c, 0, 88, 0
1, 58129, Note_on_c, 0, 41, 35
1, 58134, Note_on_c, 0, 48, 24
1, 58135, Note_on_c, 0, 88, 55
1, 58138, Note_on_c, 0, 57, 43
1, 58141, Control_c, 0, 64, 0
1, 58167, Control_c, 0, 64, 127
1, 58181, Note_on_c, 0, 88, 0
1, 58190, Note_on_c, 0, 41, 0
1, 58193, Note_on_c, 0, 91, 59
1, 58194, Note_on_c, 0, 48, 0
1, 58215, Note_on_c, 0, 91, 0
1, 58215, Note_on_c, 0, 57, 0
1, 58236, Note_on_c, 0, 91, 55
1, 58242, Note_on_c, 0, 79, 27
1, 58276, Note_on_c, 0, 91, 0
1, 58288, Note_on_c, 0, 79, 0
1, 58354, Note_on_c, 0, 88, 46
1, 58355, Note_on_c, 0, 81, 42
1, 58356, Note_on_c, 0, 64, 36
1, 58360, Note_on_c, 0, 76, 24
1, 58361, Note_on_c, 0, 53, 27
1, 58361, Note_on_c, 0, 60, 36
1, 58361, Note_on_c, 0, 57, 36
1, 58389, Note_on_c, 0, 88, 0
1, 58408, Note_on_c, 0, 81, 0
1, 58421, Note_on_c, 0, 76, 0
1, 58476, Note_on_c, 0, 64, 0
1, 58476, Note_on_c, 0, 57, 0
1, 58483, Note_on_c, 0, 53, 0
1, 58513, Note_on_c, 0, 60, 0
1, 58580, Note_on_c, 0, 70, 39
1, 58581, Note_on_c, 0, 67, 41
1, 58582, Note_on_c, 0, 63, 35
1, 58587, Note_on_c, 0, 60, 36
1, 58592, Control_c, 0, 64, 0
1, 58593, Note_on_c, 0, 53, 24
1, 58597, Note_on_c, 0, 58, 21
1, 58622, Control_c, 0, 64, 127
1, 58650, Note_on_c, 0, 67, 0
1, 58651, Note_on_c, 0, 70, 0
1, 58665, Note_on_c, 0, 63, 0
1, 58668, Note_on_c, 0, 77, 82
1, 58687, Note_on_c, 0, 60, 0
1, 58690, Note_on_c, 0, 53, 0
1, 58708, Note_on_c, 0, 77, 0
1, 58715, Note_on_c, 0, 58, 0
1, 58804, Note_on_c, 0, 66, 40
1, 58805, Note_on_c, 0, 72, 53
1, 58807, Note_on_c, 0, 69, 49
1, 58811, Control_c, 0, 64, 0
1, 58812, Note_on_c, 0, 57, 34
1, 58812, Note_on_c, 0, 62, 33
1, 58831, Control_c, 0, 64, 127
1, 58833, Note_on_c, 0, 69, 0
1, 58841, Note_on_c, 0, 72, 0
1, 58843, Note_on_c, 0, 66, 0
1, 58857, Note_on_c, 0, 62, 0
1, 58899, Note_on_c, 0, 51, 57
1, 58944, Note_on_c, 0, 57, 0
1, 58972, Note_on_c, 0, 69, 57
1, 58973, Note_on_c, 0, 66, 49
1, 58976, Note_on_c, 0, 62, 46
1, 58997, Note_on_c, 0, 62, 0
1, 59002, Note_on_c, 0, 66, 0
1, 59017, Note_on_c, 0, 69, 0
1, 59034, Note_on_c, 0, 69, 50
1, 59035, Note_on_c, 0, 51, 0
1, 59038, Note_on_c, 0, 65, 56
1, 59039, Note_on_c, 0, 57, 49
1, 59040, Note_on_c, 0, 46, 30
1, 59041, Note_on_c, 0, 62, 46
1, 59042, Note_on_c, 0, 53, 40
1, 59052, Control_c, 0, 64, 0
1, 59083, Note_on_c, 0, 57, 0
1, 59090, Control_c, 0, 64, 127
1, 59092, Note_on_c, 0, 62, 0
1, 59092, Note_on_c, 0, 65, 0
1, 59094, Note_on_c, 0, 69, 0
1, 59113, Note_on_c, 0, 72, 71
1, 59257, Note_on_c, 0, 62, 41
1, 59257, Note_on_c, 0, 65, 44
1, 59261, Note_on_c, 0, 57, 30
1, 59389, Note_on_c, 0, 72, 0
1, 59392, Note_on_c, 0, 65, 0
1, 59397, Note_on_c, 0, 57, 0
1, 59402, Note_on_c, 0, 62, 0
1, 59440, Note_on_c, 0, 46, 0
1, 59451, Note_on_c, 0, 53, 0
1, 59493, Note_on_c, 0, 62, 36
1, 59493, Note_on_c, 0, 57, 36
1, 59494, Note_on_c, 0, 65, 40
1, 59495, Note_on_c, 0, 53, 32
1, 59496, Note_on_c, 0, 46, 29
1, 59507, Control_c, 0, 64, 0
1, 59543, Control_c, 0, 64, 127
1, 59595, Note_on_c, 0, 53, 0
1, 59640, Note_on_c, 0, 46, 0
1, 59644, Note_on_c, 0, 57, 0
1, 59675, Note_on_c, 0, 62, 0
1, 59685, Note_on_c, 0, 65, 0
1, 59724, Note_on_c, 0, 62, 45
1, 59726, Note_on_c, 0, 57, 35
1, 59728, Note_on_c, 0, 45, 36
1, 59728, Note_on_c, 0, 55, 33
1, 59730, Control_c, 0, 64, 0
1, 59758, Note_on_c, 0, 57, 0
1, 59774, Control_c, 0, 64, 127
1, 59783, Note_on_c, 0, 62, 0
1, 59800, Control_c, 0, 64, 0
1, 59804, Note_on_c, 0, 60, 42
1, 59817, Note_on_c, 0, 61, 39
1, 59821, Note_on_c, 0, 60, 0
1, 59831, Note_on_c, 0, 61, 0
1, 59834, Note_on_c, 0, 62, 47
1, 59855, Note_on_c, 0, 62, 0
1, 59894, Note_on_c, 0, 45, 0
1, 59920, Control_c, 0, 64, 127
1, 59940, Note_on_c, 0, 55, 0
1, 59945, Note_on_c, 0, 43, 53
1, 59966, Note_on_c, 0, 43, 0
1, 60088, Note_on_c, 0, 69, 66
1, 60104, Note_on_c, 0, 69, 0
1, 60113, Control_c, 0, 64, 0
1, 60115, Note_on_c, 0, 70, 37
1, 60123, Note_on_c, 0, 70, 0
1, 60140, Note_on_c, 0, 74, 62
1, 60156, Note_on_c, 0, 74, 0
1, 60157, Control_c, 0, 64, 127
1, 60158, Note_on_c, 0, 78, 53
1, 60171, Control_c, 0, 64, 0
1, 60181, Note_on_c, 0, 78, 0
1, 60182, Note_on_c, 0, 62, 24
1, 60183, Note_on_c, 0, 58, 29
1, 60185, Note_on_c, 0, 53, 24
1, 60186, Note_on_c, 0, 57, 32
1, 60187, Note_on_c, 0, 81, 42
1, 60210, Note_on_c, 0, 81, 0
1, 60210, Note_on_c, 0, 78, 44
1, 60226, Note_on_c, 0, 78, 0
1, 60242, Note_on_c, 0, 79, 48
1, 60252, Note_on_c, 0, 79, 0
1, 60313, Control_c, 0, 64, 127
1, 60359, Control_c, 0, 64, 0
1, 60364, Note_on_c, 0, 62, 0
1, 60365, Note_on_c, 0, 57, 0
1, 60369, Control_c, 0, 64, 127
1, 60372, Note_on_c, 0, 53, 0
1, 60382, Note_on_c, 0, 58, 0
1, 60419, Note_on_c, 0, 52, 42
1, 60420, Note_on_c, 0, 61, 26
1, 60421, Note_on_c, 0, 58, 35
1, 60434, Control_c, 0, 64, 0
1, 60471, Note_on_c, 0, 75, 47
1, 60482, Note_on_c, 0, 75, 0
1, 60489, Note_on_c, 0, 76, 55
1, 60494, Note_on_c, 0, 61, 0
1, 60501, Note_on_c, 0, 75, 44
1, 60508, Note_on_c, 0, 76, 0
1, 60512, Note_on_c, 0, 52, 0
1, 60520, Note_on_c, 0, 73, 35
1, 60525, Note_on_c, 0, 58, 0
1, 60529, Note_on_c, 0, 75, 0
1, 60541, Note_on_c, 0, 73, 0
1, 60541, Note_on_c, 0, 72, 43
1, 60550, Note_on_c, 0, 72, 0
1, 60584, Note_on_c, 0, 70, 59
1, 60604, Note_on_c, 0, 70, 0
1, 60618, Note_on_c, 0, 66, 64
1, 60636, Note_on_c, 0, 66, 0
1, 60648, Note_on_c, 0, 64, 47
1, 60652, Note_on_c, 0, 58, 27
1, 60653, Note_on_c, 0, 48, 43
1, 60665, Note_on_c, 0, 64, 0
1, 60672, Note_on_c, 0, 58, 0
1, 60672, Note_on_c, 0, 63, 42
1, 60678, Note_on_c, 0, 48, 0
1, 60697, Note_on_c, 0, 63, 0
1, 60702, Note_on_c, 0, 61, 27
1, 60710, Note_on_c, 0, 61, 0
1, 60716, Note_on_c, 0, 60, 46
1, 60725, Note_on_c, 0, 60, 0
1, 60746, Note_on_c, 0, 58, 34
1, 60763, Note_on_c, 0, 58, 0
1, 60812, Note_on_c, 0, 54, 53
1, 60844, Note_on_c, 0, 54, 0
1, 60848, Note_on_c, 0, 52, 50
1, 60865, Note_on_c, 0, 52, 0
1, 60871, Note_on_c, 0, 51, 48
1, 60887, Note_on_c, 0, 51, 0
1, 60893, Note_on_c, 0, 50, 50
1, 60907, Note_on_c, 0, 50, 0
1, 60919, Note_on_c, 0, 49, 42
1, 60925, Note_on_c, 0, 49, 0
1, 60931, Note_on_c, 0, 48, 54
1, 60964, Note_on_c, 0, 48, 0
1, 60986, Note_on_c, 0, 29, 60
1, 60989, Control_c, 0, 64, 127
1, 61044, Note_on_c, 0, 41, 68
1, 61112, Note_on_c, 0, 57, 73
1, 61135, Note_on_c, 0, 57, 0
1, 61135, Note_on_c, 0, 29, 0
1, 61154, Note_on_c, 0, 41, 0
1, 61166, Note_on_c, 0, 60, 80
1, 61195, Note_on_c, 0, 60, 0
1, 61217, Note_on_c, 0, 64, 87
1, 61258, Note_on_c, 0, 64, 0
1, 61269, Note_on_c, 0, 67, 66
1, 61310, Note_on_c, 0, 67, 0
1, 61325, Note_on_c, 0, 69, 64
1, 61326, Note_on_c, 0, 61, 42
1, 61326, Note_on_c, 0, 66, 47
1, 61328, Note_on_c, 0, 55, 45
1, 61338, Control_c, 0, 64, 0
1, 61369, Note_on_c, 0, 69, 0
1, 61381, Note_on_c, 0, 70, 59
1, 61392, Control_c, 0, 64, 127
1, 61423, Note_on_c, 0, 70, 0
1, 61434, Note_on_c, 0, 72, 63
1, 61436, Note_on_c, 0, 66, 0
1, 61445, Note_on_c, 0, 55, 0
1, 61471, Note_on_c, 0, 72, 0
1, 61481, Note_on_c, 0, 73, 49
1, 61498, Note_on_c, 0, 61, 0
1, 61504, Note_on_c, 0, 73, 0
1, 61532, Note_on_c, 0, 79, 69
1, 61542, Note_on_c, 0, 61, 33
1, 61547, Note_on_c, 0, 65, 30
1, 61550, Note_on_c, 0, 55, 31
1, 61553, Note_on_c, 0, 79, 0
1, 61555, Control_c, 0, 64, 0
1, 61565, Note_on_c, 0, 82, 58
1, 61587, Control_c, 0, 64, 127
1, 61593, Note_on_c, 0, 82, 0
1, 61598, Note_on_c, 0, 87, 60
1, 61611, Note_on_c, 0, 87, 0
1, 61629, Note_on_c, 0, 91, 71
1, 61646, Note_on_c, 0, 91, 0
1, 61663, Note_on_c, 0, 94, 71
1, 61671, Note_on_c, 0, 65, 0
1, 61681, Note_on_c, 0, 94, 0
1, 61686, Note_on_c, 0, 55, 0
1, 61687, Note_on_c, 0, 61, 0
1, 61696, Note_on_c, 0, 99, 64
1, 61715, Note_on_c, 0, 99, 0
1, 61733, Note_on_c, 0, 101, 51
1, 61753, Note_on_c, 0, 101, 0
1, 61768, Note_on_c, 0, 103, 80
1, 61774, Note_on_c, 0, 57, 38
1, 61776, Note_on_c, 0, 50, 45
1, 61787, Control_c, 0, 64, 0
1, 61798, Note_on_c, 0, 103, 0
1, 61817, Note_on_c, 0, 101, 47
1, 61827, Control_c, 0, 64, 127
1, 61847, Note_on_c, 0, 101, 0
1, 61862, Note_on_c, 0, 100, 55
1, 61888, Note_on_c, 0, 100, 0
1, 61905, Note_on_c, 0, 91, 33
1, 61907, Note_on_c, 0, 93, 30
1, 61916, Note_on_c, 0, 93, 0
1, 61928, Note_on_c, 0, 91, 0
1, 61951, Note_on_c, 0, 57, 0
1, 61955, Note_on_c, 0, 91, 41
1, 61981, Note_on_c, 0, 91, 0
1, 62018, Note_on_c, 0, 62, 41
1, 62020, Note_on_c, 0, 57, 32
1, 62022, Note_on_c, 0, 91, 64
1, 62023, Note_on_c, 0, 98, 62
1, 62024, Control_c, 0, 64, 0
1, 62052, Control_c, 0, 64, 127
1, 62062, Note_on_c, 0, 89, 54
1, 62064, Note_on_c, 0, 98, 0
1, 62065, Note_on_c, 0, 91, 0
1, 62073, Note_on_c, 0, 89, 0
1, 62103, Note_on_c, 0, 91, 64
1, 62104, Note_on_c, 0, 98, 62
1, 62125, Note_on_c, 0, 98, 0
1, 62126, Note_on_c, 0, 91, 0
1, 62136, Note_on_c, 0, 62, 0
1, 62143, Note_on_c, 0, 57, 0
1, 62145, Note_on_c, 0, 89, 39
1, 62151, Note_on_c, 0, 50, 0
1, 62155, Note_on_c, 0, 89, 0
1, 62182, Note_on_c, 0, 98, 55
1, 62183, Note_on_c, 0, 91, 57
1, 62201, Note_on_c, 0, 98, 0
1, 62202, Note_on_c, 0, 91, 0
1, 62224, Note_on_c, 0, 98, 54
1, 62225, Note_on_c, 0, 91, 57
1, 62245, Note_on_c, 0, 98, 0
1, 62248, Note_on_c, 0, 54, 34
1, 62249, Note_on_c, 0, 91, 0
1, 62249, Control_c, 0, 64, 0
1, 62251, Note_on_c, 0, 44, 35
1, 62255, Note_on_c, 0, 89, 56
1, 62269, Note_on_c, 0, 89, 0
1, 62283, Control_c, 0, 64, 127
1, 62291, Note_on_c, 0, 91, 61
1, 62293, Note_on_c, 0, 98, 36
1, 62310, Note_on_c, 0, 98, 0
1, 62313, Note_on_c, 0, 91, 0
1, 62320, Note_on_c, 0, 44, 0
1, 62326, Note_on_c, 0, 54, 0
1, 62330, Note_on_c, 0, 98, 46
1, 62332, Note_on_c, 0, 94, 53
1, 62355, Note_on_c, 0, 94, 0
1, 62355, Note_on_c, 0, 98, 0
1, 62370, Note_on_c, 0, 89, 53
1, 62405, Note_on_c, 0, 89, 0
1, 62466, Note_on_c, 0, 54, 31
1, 62467, Note_on_c, 0, 65, 36
1, 62471, Note_on_c, 0, 60, 45
1, 62473, Note_on_c, 0, 58, 42
1, 62586, Note_on_c, 0, 65, 0
1, 62588, Note_on_c, 0, 60, 0
1, 62612, Note_on_c, 0, 58, 0
1, 62616, Note_on_c, 0, 54, 0
1, 62706, Note_on_c, 0, 59, 41
1, 62708, Note_on_c, 0, 64, 24
1, 62711, Note_on_c, 0, 53, 31
1, 62714, Control_c, 0, 64, 0
1, 62735, Control_c, 0, 64, 127
1, 62751, Note_on_c, 0, 64, 0
1, 62758, Note_on_c, 0, 59, 0
1, 62776, Note_on_c, 0, 53, 0
1, 62782, Note_on_c, 0, 64, 68
1, 62803, Note_on_c, 0, 64, 0
1, 62847, Note_on_c, 0, 69, 67
1, 62848, Note_on_c, 0, 64, 71
1, 62849, Note_on_c, 0, 43, 50
1, 62849, Note_on_c, 0, 59, 68
1, 62854, Note_on_c, 0, 53, 49
1, 62864, Note_on_c, 0, 59, 0
1, 62869, Note_on_c, 0, 43, 0
1, 62873, Note_on_c, 0, 64, 0
1, 62875, Note_on_c, 0, 69, 0
1, 62881, Note_on_c, 0, 53, 0
1, 62921, Note_on_c, 0, 72, 74
1, 62923, Note_on_c, 0, 65, 83
1, 62923, Note_on_c, 0, 57, 80
1, 62923, Note_on_c, 0, 69, 73
1, 62924, Note_on_c, 0, 62, 84
1, 62925, Control_c, 0, 64, 0
1, 62930, Note_on_c, 0, 71, 44
1, 62967, Control_c, 0, 64, 127
1, 62975, Note_on_c, 0, 72, 0
1, 62978, Note_on_c, 0, 62, 0
1, 62981, Note_on_c, 0, 71, 0
1, 62982, Note_on_c, 0, 65, 0
1, 62984, Note_on_c, 0, 57, 0
1, 62985, Note_on_c, 0, 69, 0
1, 62991, Note_on_c, 0, 72, 55
1, 62994, Note_on_c, 0, 62, 58
1, 62995, Note_on_c, 0, 65, 73
1, 62997, Note_on_c, 0, 57, 64
1, 63009, Note_on_c, 0, 72, 0
1, 63011, Note_on_c, 0, 65, 0
1, 63016, Note_on_c, 0, 62, 0
1, 63020, Note_on_c, 0, 57, 0
1, 63062, Note_on_c, 0, 69, 64
1, 63062, Note_on_c, 0, 53, 45
1, 63063, Control_c, 0, 64, 0
1, 63063, Note_on_c, 0, 64, 62
1, 63068, Note_on_c, 0, 59, 22
1, 63091, Control_c, 0, 64, 127
1, 63104, Note_on_c, 0, 64, 0
1, 63112, Note_on_c, 0, 59, 0
1, 63116, Note_on_c, 0, 53, 0
1, 63119, Note_on_c, 0, 69, 0
1, 63145, Note_on_c, 0, 65, 55
1, 63145, Note_on_c, 0, 59, 50
1, 63147, Note_on_c, 0, 62, 47
1, 63148, Note_on_c, 0, 43, 39
1, 63149, Note_on_c, 0, 53, 42
1, 63151, Control_c, 0, 64, 0
1, 63185, Control_c, 0, 64, 127
1, 63201, Note_on_c, 0, 59, 0
1, 63211, Note_on_c, 0, 69, 60
1, 63257, Note_on_c, 0, 53, 0
1, 63297, Note_on_c, 0, 65, 0
1, 63297, Note_on_c, 0, 62, 0
1, 63337, Note_on_c, 0, 69, 0
1, 63363, Note_on_c, 0, 65, 42
1, 63363, Note_on_c, 0, 62, 38
1, 63363, Note_on_c, 0, 53, 33
1, 63364, Note_on_c, 0, 59, 32
1, 63441, Note_on_c, 0, 43, 0
1, 63473, Note_on_c, 0, 43, 59
1, 63500, Note_on_c, 0, 43, 0
1, 63503, Note_on_c, 0, 59, 0
1, 63521, Note_on_c, 0, 62, 0
1, 63523, Note_on_c, 0, 65, 0
1, 63525, Note_on_c, 0, 53, 0
1, 63535, Note_on_c, 0, 43, 60
1, 63559, Note_on_c, 0, 43, 0
1, 63579, Note_on_c, 0, 60, 42
1, 63583, Note_on_c, 0, 61, 57
1, 63587, Note_on_c, 0, 53, 46
1, 63588, Note_on_c, 0, 43, 44
1, 63597, Note_on_c, 0, 61, 0
1, 63598, Note_on_c, 0, 60, 0
1, 63599, Note_on_c, 0, 62, 54
1, 63605, Control_c, 0, 64, 0
1, 63645, Note_on_c, 0, 65, 39
1, 63649, Note_on_c, 0, 58, 50
1, 63677, Control_c, 0, 64, 127
1, 63776, Note_on_c, 0, 65, 0
1, 63796, Note_on_c, 0, 53, 0
1, 63809, Note_on_c, 0, 65, 61
1, 63814, Note_on_c, 0, 43, 0
1, 63819, Note_on_c, 0, 58, 0
1, 63840, Marker_t, "'Gospelly'"
1, 63846, Note_on_c, 0, 62, 0
1, 63852, Note_on_c, 0, 65, 0
1, 63872, Note_on_c, 0, 60, 66
1, 63873, Note_on_c, 0, 45, 54
1, 63875, Note_on_c, 0, 55, 42
1, 63878, Note_on_c, 0, 33, 30
1, 63879, Control_c, 0, 64, 0
1, 63884, Note_on_c, 0, 55, 0
1, 63885, Note_on_c, 0, 33, 0
1, 63885, Note_on_c, 0, 45, 0
1, 63890, Note_on_c, 0, 60, 0
1, 63935, Note_on_c, 0, 46, 63
1, 63936, Note_on_c, 0, 34, 60
1, 63953, Note_on_c, 0, 46, 0
1, 63955, Note_on_c, 0, 34, 0
1, 63988, Control_c, 0, 64, 127
1, 63989, Note_on_c, 0, 47, 56
1, 63991, Note_on_c, 0, 35, 51
1, 63999, Note_on_c, 0, 35, 0
1, 64007, Note_on_c, 0, 47, 0
1, 64038, Control_c, 0, 64, 0
1, 64043, Note_on_c, 0, 53, 64
1, 64043, Note_on_c, 0, 65, 51
1, 64043, Note_on_c, 0, 58, 48
1, 64044, Note_on_c, 0, 48, 49
1, 64045, Note_on_c, 0, 62, 42
1, 64045, Note_on_c, 0, 36, 42
1, 64092, Control_c, 0, 64, 127
1, 64161, Note_on_c, 0, 48, 0
1, 64184, Note_on_c, 0, 53, 0
1, 64213, Note_on_c, 0, 62, 0
1, 64217, Note_on_c, 0, 58, 0
1, 64223, Note_on_c, 0, 65, 0
1, 64275, Note_on_c, 0, 58, 42
1, 64277, Note_on_c, 0, 65, 42
1, 64277, Note_on_c, 0, 53, 35
1, 64278, Note_on_c, 0, 62, 44
1, 64280, Note_on_c, 0, 48, 33
1, 64288, Control_c, 0, 64, 0
1, 64319, Control_c, 0, 64, 127
1, 64368, Note_on_c, 0, 62, 0
1, 64393, Note_on_c, 0, 36, 0
1, 64447, Note_on_c, 0, 53, 0
1, 64455, Note_on_c, 0, 48, 0
1, 64465, Note_on_c, 0, 65, 0
1, 64466, Note_on_c, 0, 58, 0
1, 64469, Note_on_c, 0, 62, 48
1, 64500, Note_on_c, 0, 62, 0
1, 64514, Note_on_c, 0, 57, 47
1, 64514, Note_on_c, 0, 65, 36
1, 64516, Note_on_c, 0, 62, 40
1, 64517, Note_on_c, 0, 60, 49
1, 64527, Control_c, 0, 64, 0
1, 64591, Note_on_c, 0, 48, 67
1, 64595, Note_on_c, 0, 47, 57
1, 64602, Note_on_c, 0, 47, 0
1, 64694, Control_c, 0, 64, 127
1, 64702, Note_on_c, 0, 57, 0
1, 64706, Note_on_c, 0, 60, 0
1, 64708, Note_on_c, 0, 62, 0
1, 64710, Note_on_c, 0, 65, 0
1, 64729, Note_on_c, 0, 47, 37
1, 64737, Note_on_c, 0, 47, 0
1, 64740, Control_c, 0, 64, 0
1, 64749, Note_on_c, 0, 65, 40
1, 64751, Note_on_c, 0, 62, 34
1, 64752, Note_on_c, 0, 57, 34
1, 64753, Note_on_c, 0, 60, 35
1, 64827, Note_on_c, 0, 36, 38
1, 64868, Control_c, 0, 64, 127
1, 64909, Note_on_c, 0, 57, 0
1, 64912, Note_on_c, 0, 60, 0
1, 64925, Note_on_c, 0, 62, 0
1, 64928, Note_on_c, 0, 65, 0
1, 64934, Note_on_c, 0, 43, 24
1, 64941, Note_on_c, 0, 48, 0
1, 64967, Note_on_c, 0, 43, 0
1, 64977, Note_on_c, 0, 58, 46
1, 64977, Note_on_c, 0, 62, 39
1, 64978, Note_on_c, 0, 65, 35
1, 64978, Control_c, 0, 64, 0
1, 64980, Note_on_c, 0, 48, 37
1, 65005, Note_on_c, 0, 36, 0
1, 65018, Control_c, 0, 64, 127
1, 65033, Note_on_c, 0, 58, 0
1, 65033, Note_on_c, 0, 62, 0
1, 65046, Note_on_c, 0, 65, 0
1, 65061, Note_on_c, 0, 36, 51
1, 65084, Note_on_c, 0, 36, 0
1, 65098, Note_on_c, 0, 48, 0
1, 65213, Note_on_c, 0, 63, 39
1, 65217, Note_on_c, 0, 58, 38
1, 65217, Note_on_c, 0, 52, 44
1, 65225, Control_c, 0, 64, 0
1, 65239, Control_c, 0, 64, 127
1, 65271, Note_on_c, 0, 63, 0
1, 65274, Note_on_c, 0, 52, 0
1, 65282, Note_on_c, 0, 58, 0
1, 65298, Note_on_c, 0, 91, 95
1, 65335, Note_on_c, 0, 91, 0
1, 65423, Note_on_c, 0, 89, 84
1, 65483, Note_on_c, 0, 41, 68
1, 65500, Control_c, 0, 64, 0
1, 65530, Control_c, 0, 64, 127
1, 65547, Note_on_c, 0, 88, 83
1, 65558, Note_on_c, 0, 89, 0
1, 65560, Note_on_c, 0, 41, 0
1, 65600, Note_on_c, 0, 88, 0
1, 65617, Note_on_c, 0, 84, 83
1, 65620, Note_on_c, 0, 87, 47
1, 65627, Note_on_c, 0, 87, 0
1, 65652, Note_on_c, 0, 84, 0
1, 65659, Note_on_c, 0, 81, 67
1, 65678, Note_on_c, 0, 81, 0
1, 65700, Note_on_c, 0, 76, 49
1, 65733, Note_on_c, 0, 76, 0
1, 65736, Note_on_c, 0, 72, 43
1, 65737, Note_on_c, 0, 64, 31
1, 65740, Note_on_c, 0, 60, 34
1, 65741, Note_on_c, 0, 57, 36
1, 65742, Note_on_c, 0, 53, 28
1, 65755, Control_c, 0, 64, 0
1, 65764, Note_on_c, 0, 72, 0
1, 65787, Note_on_c, 0, 74, 55
1, 65805, Control_c, 0, 64, 127
1, 65817, Note_on_c, 0, 74, 0
1, 65832, Note_on_c, 0, 69, 47
1, 65848, Note_on_c, 0, 69, 0
1, 65868, Note_on_c, 0, 72, 55
1, 65899, Note_on_c, 0, 64, 0
1, 65905, Note_on_c, 0, 57, 0
1, 65912, Note_on_c, 0, 60, 0
1, 65922, Note_on_c, 0, 53, 0
1, 65928, Note_on_c, 0, 72, 0
1, 65979, Note_on_c, 0, 65, 45
1, 65985, Note_on_c, 0, 63, 36
1, 65988, Note_on_c, 0, 60, 34
1, 65988, Note_on_c, 0, 69, 22
1, 65993, Note_on_c, 0, 53, 24
1, 65994, Note_on_c, 0, 58, 31
1, 65997, Control_c, 0, 64, 0
1, 66018, Note_on_c, 0, 69, 0
1, 66033, Control_c, 0, 64, 127
1, 66068, Note_on_c, 0, 60, 0
1, 66068, Note_on_c, 0, 63, 0
1, 66080, Note_on_c, 0, 58, 0
1, 66088, Note_on_c, 0, 53, 0
1, 66098, Note_on_c, 0, 65, 0
1, 66212, Note_on_c, 0, 51, 42
1, 66212, Note_on_c, 0, 61, 32
1, 66213, Note_on_c, 0, 65, 35
1, 66215, Note_on_c, 0, 57, 31
1, 66219, Note_on_c, 0, 63, 25
1, 66224, Control_c, 0, 64, 0
1, 66256, Control_c, 0, 64, 127
1, 66287, Note_on_c, 0, 57, 0
1, 66301, Note_on_c, 0, 61, 0
1, 66315, Note_on_c, 0, 63, 0
1, 66322, Note_on_c, 0, 65, 0
1, 66383, Marker_t, "The phrasing and interval structure of the last phrase is echoed over new chord"
1, 66405, Note_on_c, 0, 86, 96
1, 66431, Note_on_c, 0, 51, 0
1, 66455, Note_on_c, 0, 86, 0
1, 66472, Note_on_c, 0, 46, 53
1, 66473, Note_on_c, 0, 84, 91
1, 66474, Control_c, 0, 64, 0
1, 66506, Control_c, 0, 64, 127
1, 66514, Note_on_c, 0, 84, 0
1, 66529, Note_on_c, 0, 81, 81
1, 66533, Note_on_c, 0, 46, 0
1, 66558, Note_on_c, 0, 81, 0
1, 66568, Note_on_c, 0, 77, 71
1, 66595, Note_on_c, 0, 77, 0
1, 66601, Note_on_c, 0, 74, 61
1, 66620, Note_on_c, 0, 74, 0
1, 66638, Note_on_c, 0, 72, 56
1, 66663, Note_on_c, 0, 72, 0
1, 66677, Note_on_c, 0, 69, 47
1, 66699, Note_on_c, 0, 69, 0
1, 66700, Note_on_c, 0, 65, 25
1, 66704, Note_on_c, 0, 62, 28
1, 66708, Note_on_c, 0, 60, 36
1, 66711, Control_c, 0, 64, 0
1, 66714, Note_on_c, 0, 72, 66
1, 66732, Note_on_c, 0, 65, 0
1, 66745, Note_on_c, 0, 72, 0
1, 66751, Note_on_c, 0, 69, 40
1, 66759, Control_c, 0, 64, 127
1, 66774, Note_on_c, 0, 69, 0
1, 66784, Note_on_c, 0, 70, 48
1, 66866, Note_on_c, 0, 62, 0
1, 66886, Note_on_c, 0, 60, 0
1, 66926, Note_on_c, 0, 70, 0
1, 66942, Note_on_c, 0, 62, 41
1, 66946, Note_on_c, 0, 65, 35
1, 67064, Note_on_c, 0, 57, 67
1, 67065, Note_on_c, 0, 65, 0
1, 67106, Note_on_c, 0, 62, 0
1, 67186, Note_on_c, 0, 58, 33
1, 67186, Note_on_c, 0, 62, 49
1, 67269, Note_on_c, 0, 57, 0
1, 67297, Note_on_c, 0, 50, 45
1, 67314, Note_on_c, 0, 62, 0
1, 67331, Note_on_c, 0, 58, 0
1, 67371, Note_on_c, 0, 50, 0
1, 67425, Note_on_c, 0, 50, 40
1, 67427, Note_on_c, 0, 43, 37
1, 67427, Note_on_c, 0, 53, 37
1, 67427, Note_on_c, 0, 58, 49
1, 67428, Control_c, 0, 64, 0
1, 67454, Control_c, 0, 64, 127
1, 67456, Note_on_c, 0, 53, 0
1, 67469, Note_on_c, 0, 58, 0
1, 67494, Note_on_c, 0, 43, 0
1, 67498, Note_on_c, 0, 50, 0
1, 67535, Marker_t, "And echoed again"
1, 67572, Note_on_c, 0, 84, 103
1, 67611, Note_on_c, 0, 84, 0
1, 67634, Note_on_c, 0, 82, 84
1, 67670, Note_on_c, 0, 82, 0
1, 67688, Note_on_c, 0, 81, 78
1, 67692, Note_on_c, 0, 57, 41
1, 67693, Note_on_c, 0, 62, 44
1, 67696, Note_on_c, 0, 58, 50
1, 67703, Control_c, 0, 64, 0
1, 67722, Note_on_c, 0, 81, 0
1, 67726, Note_on_c, 0, 77, 71
1, 67736, Control_c, 0, 64, 127
1, 67751, Note_on_c, 0, 77, 0
1, 67757, Note_on_c, 0, 74, 56
1, 67777, Note_on_c, 0, 74, 0
1, 67791, Note_on_c, 0, 70, 47
1, 67818, Note_on_c, 0, 62, 0
1, 67825, Note_on_c, 0, 70, 0
1, 67825, Note_on_c, 0, 69, 47
1, 67833, Note_on_c, 0, 57, 0
1, 67839, Note_on_c, 0, 58, 0
1, 67842, Note_on_c, 0, 69, 0
1, 67863, Note_on_c, 0, 72, 69
1, 67899, Note_on_c, 0, 70, 60
1, 67909, Note_on_c, 0, 72, 0
1, 67932, Note_on_c, 0, 65, 51
1, 67940, Note_on_c, 0, 48, 34
1, 67942, Note_on_c, 0, 58, 23
1, 67953, Control_c, 0, 64, 0
1, 67961, Note_on_c, 0, 65, 0
1, 67970, Note_on_c, 0, 62, 47
1, 67974, Note_on_c, 0, 70, 0
1, 67993, Note_on_c, 0, 62, 0
1, 68012, Note_on_c, 0, 64, 43
1, 68038, Control_c, 0, 64, 127
1, 68051, Note_on_c, 0, 64, 0
1, 68144, Note_on_c, 0, 58, 0
1, 68187, Note_on_c, 0, 58, 29
1, 68189, Note_on_c, 0, 60, 34
1, 68202, Note_on_c, 0, 58, 0
1, 68202, Note_on_c, 0, 48, 0
1, 68263, Note_on_c, 0, 60, 0
1, 68282, Note_on_c, 0, 48, 54
1, 68303, Note_on_c, 0, 48, 0
1, 68347, Note_on_c, 0, 48, 48
1, 68395, Note_on_c, 0, 48, 0
1, 68417, Note_on_c, 0, 41, 33
1, 68420, Note_on_c, 0, 57, 60
1, 68423, Control_c, 0, 64, 0
1, 68447, Control_c, 0, 64, 127
1, 68483, Note_on_c, 0, 41, 0
1, 68511, Note_on_c, 0, 57, 0
1, 68515, Note_on_c, 0, 79, 85
1, 68570, Note_on_c, 0, 79, 0
1, 68587, Note_on_c, 0, 76, 84
1, 68617, Note_on_c, 0, 76, 0
1, 68625, Note_on_c, 0, 77, 77
1, 68659, Note_on_c, 0, 77, 0
1, 68671, Note_on_c, 0, 64, 29
1, 68672, Note_on_c, 0, 53, 32
1, 68675, Note_on_c, 0, 60, 33
1, 68675, Note_on_c, 0, 57, 35
1, 68676, Note_on_c, 0, 76, 77
1, 68683, Control_c, 0, 64, 0
1, 68709, Note_on_c, 0, 76, 0
1, 68717, Note_on_c, 0, 72, 62
1, 68729, Control_c, 0, 64, 127
1, 68750, Note_on_c, 0, 72, 0
1, 68756, Note_on_c, 0, 69, 54
1, 68778, Note_on_c, 0, 69, 0
1, 68793, Note_on_c, 0, 74, 72
1, 68820, Note_on_c, 0, 74, 0
1, 68823, Note_on_c, 0, 64, 0
1, 68831, Note_on_c, 0, 72, 71
1, 68835, Note_on_c, 0, 57, 0
1, 68835, Note_on_c, 0, 60, 0
1, 68844, Note_on_c, 0, 53, 0
1, 68856, Note_on_c, 0, 72, 0
1, 68867, Note_on_c, 0, 69, 58
1, 68892, Note_on_c, 0, 69, 0
1, 68904, Note_on_c, 0, 65, 54
1, 68936, Control_c, 0, 64, 0
1, 68938, Note_on_c, 0, 65, 0
1, 68940, Note_on_c, 0, 62, 47
1, 68952, Control_c, 0, 64, 127
1, 68973, Note_on_c, 0, 62, 0
1, 69011, Note_on_c, 0, 46, 61
1, 69020, Control_c, 0, 64, 0
1, 69044, Control_c, 0, 64, 127
1, 69076, Note_on_c, 0, 55, 71
1, 69078, Note_on_c, 0, 46, 0
1, 69078, Note_on_c, 0, 45, 71
1, 69125, Control_c, 0, 64, 0
1, 69134, Note_on_c, 0, 72, 96
1, 69163, Note_on_c, 0, 72, 0
1, 69182, Note_on_c, 0, 70, 69
1, 69219, Note_on_c, 0, 61, 68
1, 69230, Note_on_c, 0, 70, 0
1, 69235, Note_on_c, 0, 61, 0
1, 69237, Note_on_c, 0, 55, 0
1, 69262, Note_on_c, 0, 59, 31
1, 69271, Control_c, 0, 64, 127
1, 69277, Note_on_c, 0, 59, 0
1, 69285, Note_on_c, 0, 58, 49
1, 69291, Note_on_c, 0, 45, 0
1, 69303, Note_on_c, 0, 58, 0
1, 69316, Note_on_c, 0, 57, 45
1, 69317, Control_c, 0, 64, 0
1, 69334, Note_on_c, 0, 57, 0
1, 69340, Note_on_c, 0, 55, 52
1, 69360, Note_on_c, 0, 55, 0
1, 69363, Control_c, 0, 64, 127
1, 69373, Note_on_c, 0, 53, 36
1, 69401, Note_on_c, 0, 53, 0
1, 69401, Note_on_c, 0, 52, 55
1, 69420, Note_on_c, 0, 52, 0
1, 69431, Note_on_c, 0, 38, 30
1, 69434, Note_on_c, 0, 26, 34
1, 69435, Note_on_c, 0, 55, 47
1, 69447, Control_c, 0, 64, 0
1, 69455, Note_on_c, 0, 55, 0
1, 69463, Note_on_c, 0, 52, 40
1, 69483, Note_on_c, 0, 52, 0
1, 69493, Note_on_c, 0, 53, 44
1, 69498, Control_c, 0, 64, 127
1, 69535, Note_on_c, 0, 26, 0
1, 69549, Note_on_c, 0, 38, 0
1, 69554, Note_on_c, 0, 53, 0
1, 69674, Note_on_c, 0, 60, 37
1, 69675, Note_on_c, 0, 57, 36
1, 69676, Note_on_c, 0, 50, 28
1, 69677, Note_on_c, 0, 53, 36
1, 69738, Note_on_c, 0, 65, 51
1, 69763, Note_on_c, 0, 65, 0
1, 69778, Note_on_c, 0, 69, 52
1, 69789, Note_on_c, 0, 69, 0
1, 69814, Note_on_c, 0, 72, 58
1, 69825, Note_on_c, 0, 50, 0
1, 69828, Note_on_c, 0, 53, 0
1, 69831, Note_on_c, 0, 72, 0
1, 69831, Note_on_c, 0, 57, 0
1, 69839, Note_on_c, 0, 60, 0
1, 69848, Note_on_c, 0, 74, 55
1, 69880, Note_on_c, 0, 75, 62
1, 69882, Note_on_c, 0, 74, 0
1, 69901, Note_on_c, 0, 75, 0
1, 69912, Note_on_c, 0, 77, 59
1, 69917, Note_on_c, 0, 65, 51
1, 69922, Note_on_c, 0, 54, 26
1, 69923, Note_on_c, 0, 60, 33
1, 69926, Note_on_c, 0, 58, 31
1, 69931, Control_c, 0, 64, 0
1, 69942, Note_on_c, 0, 77, 0
1, 69956, Note_on_c, 0, 82, 42
1, 69971, Note_on_c, 0, 82, 0
1, 70006, Note_on_c, 0, 84, 52
1, 70019, Control_c, 0, 64, 127
1, 70022, Note_on_c, 0, 84, 0
1, 70038, Note_on_c, 0, 86, 65
1, 70052, Note_on_c, 0, 86, 0
1, 70067, Note_on_c, 0, 65, 0
1, 70068, Note_on_c, 0, 89, 70
1, 70075, Note_on_c, 0, 60, 0
1, 70078, Note_on_c, 0, 58, 0
1, 70080, Note_on_c, 0, 54, 0
1, 70087, Note_on_c, 0, 89, 0
1, 70094, Note_on_c, 0, 92, 60
1, 70100, Note_on_c, 0, 91, 65
1, 70101, Note_on_c, 0, 92, 0
1, 70115, Note_on_c, 0, 91, 0
1, 70127, Note_on_c, 0, 94, 75
1, 70149, Note_on_c, 0, 94, 0
1, 70160, Note_on_c, 0, 98, 79
1, 70161, Note_on_c, 0, 86, 66
1, 70164, Note_on_c, 0, 65, 55
1, 70165, Note_on_c, 0, 54, 37
1, 70166, Note_on_c, 0, 60, 53
1, 70169, Note_on_c, 0, 58, 34
1, 70178, Control_c, 0, 64, 0
1, 70201, Control_c, 0, 64, 127
1, 70211, Note_on_c, 0, 98, 0
1, 70213, Note_on_c, 0, 86, 0
1, 70216, Note_on_c, 0, 65, 0
1, 70220, Note_on_c, 0, 60, 0
1, 70221, Note_on_c, 0, 54, 0
1, 70222, Note_on_c, 0, 58, 0
1, 70235, Note_on_c, 0, 54, 44
1, 70235, Note_on_c, 0, 98, 68
1, 70236, Note_on_c, 0, 65, 44
1, 70237, Note_on_c, 0, 86, 66
1, 70239, Note_on_c, 0, 60, 48
1, 70240, Note_on_c, 0, 58, 47
1, 70259, Note_on_c, 0, 98, 0
1, 70265, Note_on_c, 0, 86, 0
1, 70268, Note_on_c, 0, 65, 0
1, 70274, Note_on_c, 0, 60, 0
1, 70276, Note_on_c, 0, 58, 0
1, 70276, Note_on_c, 0, 54, 0
1, 70302, Note_on_c, 0, 92, 62
1, 70303, Note_on_c, 0, 84, 64
1, 70303, Note_on_c, 0, 96, 60
1, 70305, Note_on_c, 0, 54, 53
1, 70305, Note_on_c, 0, 65, 54
1, 70308, Note_on_c, 0, 58, 42
1, 70309, Note_on_c, 0, 60, 48
1, 70328, Note_on_c, 0, 92, 0
1, 70329, Note_on_c, 0, 93, 46
1, 70332, Note_on_c, 0, 84, 0
1, 70334, Note_on_c, 0, 96, 0
1, 70337, Note_on_c, 0, 65, 0
1, 70338, Note_on_c, 0, 58, 0
1, 70338, Note_on_c, 0, 93, 0
1, 70341, Note_on_c, 0, 60, 0
1, 70342, Note_on_c, 0, 54, 0
1, 70369, Note_on_c, 0, 65, 55
1, 70370, Note_on_c, 0, 54, 53
1, 70370, Note_on_c, 0, 58, 50
1, 70371, Note_on_c, 0, 85, 50
1, 70371, Note_on_c, 0, 80, 38
1, 70372, Note_on_c, 0, 92, 46
1, 70373, Note_on_c, 0, 60, 53
1, 70383, Note_on_c, 0, 90, 31
1, 70386, Note_on_c, 0, 85, 0
1, 70390, Note_on_c, 0, 80, 0
1, 70390, Note_on_c, 0, 92, 0
1, 70390, Note_on_c, 0, 93, 64
1, 70390, Note_on_c, 0, 86, 40
1, 70391, Note_on_c, 0, 90, 0
1, 70392, Note_on_c, 0, 81, 54
1, 70394, Note_on_c, 0, 91, 43
1, 70396, Note_on_c, 0, 88, 29
1, 70399, Note_on_c, 0, 93, 0
1, 70399, Note_on_c, 0, 60, 0
1, 70400, Note_on_c, 0, 65, 0
1, 70403, Note_on_c, 0, 91, 0
1, 70404, Note_on_c, 0, 88, 0
1, 70407, Note_on_c, 0, 86, 0
1, 70409, Note_on_c, 0, 81, 0
1, 70418, Note_on_c, 0, 54, 0
1, 70421, Note_on_c, 0, 58, 0
1, 70432, Note_on_c, 0, 77, 66
1, 70433, Note_on_c, 0, 64, 46
1, 70433, Note_on_c, 0, 85, 58
1, 70434, Note_on_c, 0, 89, 57
1, 70435, Control_c, 0, 64, 0
1, 70435, Note_on_c, 0, 59, 47
1, 70438, Note_on_c, 0, 53, 35
1, 70465, Note_on_c, 0, 86, 44
1, 70467, Control_c, 0, 64, 127
1, 70468, Note_on_c, 0, 85, 0
1, 70471, Note_on_c, 0, 77, 0
1, 70473, Note_on_c, 0, 86, 0
1, 70478, Note_on_c, 0, 89, 0
1, 70479, Note_on_c, 0, 53, 0
1, 70489, Note_on_c, 0, 64, 0
1, 70491, Note_on_c, 0, 59, 0
1, 70501, Note_on_c, 0, 93, 82
1, 70502, Note_on_c, 0, 86, 66
1, 70503, Note_on_c, 0, 81, 65
1, 70505, Control_c, 0, 64, 0
1, 70506, Note_on_c, 0, 64, 51
1, 70506, Note_on_c, 0, 59, 66
1, 70509, Note_on_c, 0, 89, 37
1, 70509, Note_on_c, 0, 53, 51
1, 70529, Control_c, 0, 64, 127
1, 70579, Note_on_c, 0, 53, 0
1, 70580, Note_on_c, 0, 64, 0
1, 70605, Note_on_c, 0, 59, 0
1, 70624, Note_on_c, 0, 81, 0
1, 70624, Note_on_c, 0, 86, 0
1, 70624, Note_on_c, 0, 89, 0
1, 70633, Note_on_c, 0, 93, 0
1, 70670, Note_on_c, 0, 64, 48
1, 70671, Note_on_c, 0, 93, 70
1, 70672, Note_on_c, 0, 59, 48
1, 70672, Note_on_c, 0, 53, 40
1, 70675, Note_on_c, 0, 81, 40
1, 70676, Note_on_c, 0, 86, 42
1, 70677, Note_on_c, 0, 89, 33
1, 70693, Note_on_c, 0, 93, 0
1, 70699, Note_on_c, 0, 64, 0
1, 70699, Note_on_c, 0, 89, 0
1, 70702, Note_on_c, 0, 86, 0
1, 70702, Note_on_c, 0, 59, 0
1, 70711, Note_on_c, 0, 81, 0
1, 70720, Note_on_c, 0, 53, 0
1, 70877, Note_on_c, 0, 50, 41
1, 70895, Note_on_c, 0, 50, 0
1, 70900, Note_on_c, 0, 61, 42
1, 70906, Note_on_c, 0, 65, 36
1, 70906, Note_on_c, 0, 69, 50
1, 70907, Note_on_c, 0, 59, 34
1, 70908, Control_c, 0, 64, 0
1, 70911, Note_on_c, 0, 53, 36
1, 70914, Note_on_c, 0, 61, 0
1, 70918, Note_on_c, 0, 62, 38
1, 70934, Control_c, 0, 64, 127
1, 70937, Note_on_c, 0, 65, 0
1, 70940, Note_on_c, 0, 62, 0
1, 70940, Note_on_c, 0, 69, 0
1, 70944, Note_on_c, 0, 59, 0
1, 70950, Note_on_c, 0, 53, 0
1, 70989, Note_on_c, 0, 65, 50
1, 70993, Note_on_c, 0, 62, 37
1, 70994, Note_on_c, 0, 43, 36
1, 70994, Note_on_c, 0, 59, 41
1, 70996, Note_on_c, 0, 50, 34
1, 70997, Note_on_c, 0, 53, 24
1, 71006, Control_c, 0, 64, 0
1, 71037, Control_c, 0, 64, 127
1, 71049, Note_on_c, 0, 53, 0
1, 71089, Note_on_c, 0, 59, 0
1, 71106, Note_on_c, 0, 65, 0
1, 71107, Note_on_c, 0, 62, 0
1, 71110, Note_on_c, 0, 43, 0
1, 71111, Marker_t, "Developing a double time sort of feel"
1, 71166, Note_on_c, 0, 57, 58
1, 71169, Note_on_c, 0, 53, 44
1, 71170, Note_on_c, 0, 43, 33
1, 71173, Note_on_c, 0, 50, 0
1, 71181, Control_c, 0, 64, 0
1, 71183, Note_on_c, 0, 57, 0
1, 71236, Note_on_c, 0, 58, 69
1, 71249, Note_on_c, 0, 50, 33
1, 71254, Note_on_c, 0, 58, 0
1, 71274, Note_on_c, 0, 62, 58
1, 71276, Note_on_c, 0, 43, 0
1, 71279, Note_on_c, 0, 50, 0
1, 71289, Note_on_c, 0, 53, 0
1, 71292, Note_on_c, 0, 62, 0
1, 71309, Note_on_c, 0, 67, 43
1, 71320, Note_on_c, 0, 67, 0
1, 71344, Note_on_c, 0, 69, 37
1, 71345, Note_on_c, 0, 71, 35
1, 71362, Note_on_c, 0, 71, 0
1, 71362, Note_on_c, 0, 69, 0
1, 71382, Note_on_c, 0, 70, 67
1, 71390, Note_on_c, 0, 62, 43
1, 71393, Note_on_c, 0, 58, 33
1, 71396, Note_on_c, 0, 57, 26
1, 71407, Note_on_c, 0, 70, 0
1, 71419, Note_on_c, 0, 67, 46
1, 71436, Note_on_c, 0, 67, 0
1, 71458, Note_on_c, 0, 69, 48
1, 71479, Note_on_c, 0, 69, 0
1, 71494, Note_on_c, 0, 70, 35
1, 71505, Note_on_c, 0, 70, 0
1, 71528, Note_on_c, 0, 74, 54
1, 71547, Note_on_c, 0, 74, 0
1, 71557, Note_on_c, 0, 62, 0
1, 71558, Control_c, 0, 64, 127
1, 71563, Note_on_c, 0, 78, 59
1, 71565, Note_on_c, 0, 57, 0
1, 71571, Note_on_c, 0, 58, 0
1, 71588, Note_on_c, 0, 78, 0
1, 71604, Note_on_c, 0, 81, 78
1, 71608, Note_on_c, 0, 62, 60
1, 71608, Control_c, 0, 64, 0
1, 71610, Note_on_c, 0, 58, 42
1, 71626, Note_on_c, 0, 81, 0
1, 71666, Control_c, 0, 64, 127
1, 71667, Note_on_c, 0, 57, 1
1, 71682, Note_on_c, 0, 81, 83
1, 71701, Note_on_c, 0, 81, 0
1, 71718, Note_on_c, 0, 62, 0
1, 71728, Note_on_c, 0, 81, 65
1, 71736, Note_on_c, 0, 57, 0
1, 71737, Note_on_c, 0, 82, 57
1, 71745, Note_on_c, 0, 82, 0
1, 71745, Note_on_c, 0, 58, 0
1, 71747, Note_on_c, 0, 83, 54
1, 71749, Note_on_c, 0, 81, 0
1, 71767, Control_c, 0, 64, 0
1, 71776, Note_on_c, 0, 83, 0
1, 71804, Note_on_c, 0, 86, 87
1, 71815, Control_c, 0, 64, 127
1, 71818, Note_on_c, 0, 86, 0
1, 71835, Control_c, 0, 64, 0
1, 71923, Note_on_c, 0, 70, 74
1, 71924, Note_on_c, 0, 77, 58
1, 71924, Note_on_c, 0, 58, 71
1, 71925, Note_on_c, 0, 65, 74
1, 71926, Note_on_c, 0, 74, 55
1, 71933, Note_on_c, 0, 65, 0
1, 71936, Note_on_c, 0, 74, 0
1, 71938, Note_on_c, 0, 70, 0
1, 71939, Note_on_c, 0, 58, 0
1, 71942, Note_on_c, 0, 77, 0
1, 72007, Marker_t, "That low 'pedal' tone agin - sustained through quite a few bars"
1, 72014, Note_on_c, 0, 48, 58
1, 72025, Control_c, 0, 64, 127
1, 72091, Control_c, 0, 64, 0
1, 72091, Note_on_c, 0, 73, 42
1, 72094, Note_on_c, 0, 64, 48
1, 72096, Note_on_c, 0, 68, 36
1, 72097, Note_on_c, 0, 58, 49
1, 72098, Note_on_c, 0, 70, 34
1, 72114, Control_c, 0, 64, 127
1, 72140, Note_on_c, 0, 48, 0
1, 72177, Note_on_c, 0, 48, 68
1, 72245, Note_on_c, 0, 58, 0
1, 72255, Note_on_c, 0, 73, 0
1, 72259, Note_on_c, 0, 64, 0
1, 72275, Note_on_c, 0, 68, 0
1, 72289, Note_on_c, 0, 70, 0
1, 72344, Note_on_c, 0, 72, 43
1, 72345, Note_on_c, 0, 67, 51
1, 72345, Note_on_c, 0, 62, 43
1, 72349, Note_on_c, 0, 57, 34
1, 72354, Control_c, 0, 64, 0
1, 72390, Control_c, 0, 64, 127
1, 72392, Note_on_c, 0, 48, 0
1, 72427, Note_on_c, 0, 48, 59
1, 72456, Note_on_c, 0, 48, 0
1, 72479, Note_on_c, 0, 48, 45
1, 72494, Note_on_c, 0, 62, 0
1, 72503, Note_on_c, 0, 48, 0
1, 72551, Note_on_c, 0, 48, 53
1, 72553, Note_on_c, 0, 67, 0
1, 72556, Note_on_c, 0, 57, 0
1, 72561, Note_on_c, 0, 72, 0
1, 72596, Note_on_c, 0, 67, 57
1, 72597, Note_on_c, 0, 62, 53
1, 72598, Note_on_c, 0, 57, 50
1, 72618, Note_on_c, 0, 62, 0
1, 72627, Note_on_c, 0, 67, 0
1, 72642, Note_on_c, 0, 48, 0
1, 72672, Note_on_c, 0, 77, 89
1, 72699, Note_on_c, 0, 77, 0
1, 72723, Note_on_c, 0, 77, 80
1, 72747, Note_on_c, 0, 77, 0
1, 72790, Note_on_c, 0, 48, 55
1, 72796, Note_on_c, 0, 57, 0
1, 72838, Note_on_c, 0, 76, 75
1, 72840, Note_on_c, 0, 73, 51
1, 72841, Note_on_c, 0, 68, 74
1, 72841, Note_on_c, 0, 58, 73
1, 72841, Note_on_c, 0, 64, 79
1, 72850, Control_c, 0, 64, 0
1, 72884, Control_c, 0, 64, 127
1, 72896, Note_on_c, 0, 76, 0
1, 72905, Note_on_c, 0, 64, 0
1, 72912, Note_on_c, 0, 76, 67
1, 72915, Note_on_c, 0, 64, 28
1, 72941, Note_on_c, 0, 76, 0
1, 72943, Note_on_c, 0, 64, 0
1, 72945, Note_on_c, 0, 48, 0
1, 72951, Note_on_c, 0, 68, 0
1, 72953, Note_on_c, 0, 73, 0
1, 72958, Note_on_c, 0, 76, 48
1, 72989, Note_on_c, 0, 76, 0
1, 73023, Note_on_c, 0, 58, 0
1, 73026, Note_on_c, 0, 76, 57
1, 73028, Note_on_c, 0, 48, 54
1, 73053, Note_on_c, 0, 76, 0
1, 73077, Note_on_c, 0, 73, 50
1, 73078, Note_on_c, 0, 68, 59
1, 73079, Note_on_c, 0, 58, 51
1, 73080, Note_on_c, 0, 64, 53
1, 73082, Control_c, 0, 64, 0
1, 73120, Control_c, 0, 64, 127
1, 73128, Note_on_c, 0, 58, 0
1, 73132, Note_on_c, 0, 73, 0
1, 73133, Note_on_c, 0, 64, 0
1, 73140, Note_on_c, 0, 68, 0
1, 73149, Note_on_c, 0, 73, 49
1, 73150, Note_on_c, 0, 64, 47
1, 73150, Note_on_c, 0, 58, 44
1, 73152, Note_on_c, 0, 68, 59
1, 73177, Note_on_c, 0, 64, 0
1, 73184, Note_on_c, 0, 68, 0
1, 73184, Note_on_c, 0, 73, 0
1, 73195, Note_on_c, 0, 48, 0
1, 73197, Note_on_c, 0, 73, 36
1, 73199, Note_on_c, 0, 64, 44
1, 73199, Note_on_c, 0, 68, 38
1, 73221, Note_on_c, 0, 68, 0
1, 73223, Note_on_c, 0, 64, 0
1, 73230, Note_on_c, 0, 73, 0
1, 73267, Note_on_c, 0, 73, 40
1, 73269, Note_on_c, 0, 68, 55
1, 73270, Note_on_c, 0, 49, 50
1, 73275, Note_on_c, 0, 64, 34
1, 73288, Note_on_c, 0, 64, 0
1, 73290, Note_on_c, 0, 58, 0
1, 73295, Note_on_c, 0, 73, 0
1, 73296, Note_on_c, 0, 68, 0
1, 73300, Note_on_c, 0, 49, 0
1, 73313, Control_c, 0, 64, 0
1, 73314, Note_on_c, 0, 72, 60
1, 73315, Note_on_c, 0, 48, 39
1, 73316, Note_on_c, 0, 67, 51
1, 73318, Note_on_c, 0, 64, 40
1, 73319, Note_on_c, 0, 57, 38
1, 73337, Note_on_c, 0, 64, 0
1, 73338, Control_c, 0, 64, 127
1, 73340, Note_on_c, 0, 67, 0
1, 73344, Note_on_c, 0, 72, 0
1, 73391, Note_on_c, 0, 79, 69
1, 73395, Note_on_c, 0, 72, 55
1, 73397, Note_on_c, 0, 67, 48
1, 73397, Note_on_c, 0, 69, 58
1, 73458, Note_on_c, 0, 79, 0
1, 73459, Note_on_c, 0, 57, 0
1, 73464, Note_on_c, 0, 69, 0
1, 73466, Note_on_c, 0, 72, 0
1, 73473, Note_on_c, 0, 67, 0
1, 73556, Note_on_c, 0, 72, 37
1, 73557, Note_on_c, 0, 64, 38
1, 73558, Note_on_c, 0, 67, 44
1, 73559, Note_on_c, 0, 57, 38
1, 73562, Note_on_c, 0, 69, 41
1, 73588, Note_on_c, 0, 48, 0
1, 73637, Note_on_c, 0, 48, 59
1, 73672, Note_on_c, 0, 72, 0
1, 73675, Note_on_c, 0, 69, 0
1, 73682, Note_on_c, 0, 67, 0
1, 73697, Note_on_c, 0, 64, 0
1, 73710, Note_on_c, 0, 57, 0
1, 73791, Note_on_c, 0, 58, 59
1, 73792, Note_on_c, 0, 67, 58
1, 73793, Note_on_c, 0, 63, 49
1, 73799, Control_c, 0, 64, 0
1, 73802, Note_on_c, 0, 55, 33
1, 73812, Control_c, 0, 64, 127
1, 73821, Note_on_c, 0, 58, 0
1, 73825, Note_on_c, 0, 67, 0
1, 73832, Note_on_c, 0, 48, 0
1, 73852, Note_on_c, 0, 63, 0
1, 73869, Note_on_c, 0, 48, 58
1, 73912, Note_on_c, 0, 55, 0
1, 73941, Note_on_c, 0, 48, 0
1, 73949, Note_on_c, 0, 74, 65
1, 73950, Note_on_c, 0, 66, 67
1, 73951, Note_on_c, 0, 62, 73
1, 73951, Note_on_c, 0, 69, 62
1, 73951, Note_on_c, 0, 51, 52
1, 73952, Note_on_c, 0, 57, 67
1, 73957, Control_c, 0, 64, 0
1, 73981, Control_c, 0, 64, 127
1, 73988, Note_on_c, 0, 57, 0
1, 73993, Note_on_c, 0, 51, 0
1, 74017, Note_on_c, 0, 62, 0
1, 74021, Note_on_c, 0, 66, 0
1, 74028, Note_on_c, 0, 69, 0
1, 74029, Note_on_c, 0, 41, 64
1, 74033, Note_on_c, 0, 74, 0
1, 74047, Note_on_c, 0, 41, 0
1, 74110, Note_on_c, 0, 78, 64
1, 74111, Note_on_c, 0, 81, 76
1, 74111, Note_on_c, 0, 74, 82
1, 74111, Note_on_c, 0, 69, 82
1, 74112, Note_on_c, 0, 51, 72
1, 74113, Note_on_c, 0, 57, 67
1, 74122, Control_c, 0, 64, 0
1, 74136, Control_c, 0, 64, 127
1, 74204, Note_on_c, 0, 81, 0
1, 74205, Note_on_c, 0, 78, 0
1, 74207, Note_on_c, 0, 74, 0
1, 74213, Note_on_c, 0, 69, 0
1, 74219, Note_on_c, 0, 57, 0
1, 74247, Note_on_c, 0, 51, 0
1, 74267, Marker_t, "The BbMaj7 chord is played as A/Bb"
1, 74276, Note_on_c, 0, 73, 67
1, 74276, Note_on_c, 0, 81, 72
1, 74276, Note_on_c, 0, 46, 62
1, 74277, Note_on_c, 0, 76, 70
1, 74278, Note_on_c, 0, 53, 60
1, 74278, Note_on_c, 0, 69, 79
1, 74281, Control_c, 0, 64, 0
1, 74282, Note_on_c, 0, 79, 43
1, 74301, Note_on_c, 0, 79, 0
1, 74301, Control_c, 0, 64, 127
1, 74302, Note_on_c, 0, 81, 0
1, 74305, Note_on_c, 0, 76, 0
1, 74312, Note_on_c, 0, 73, 0
1, 74313, Note_on_c, 0, 69, 0
1, 74347, Note_on_c, 0, 57, 54
1, 74348, Marker_t, "This enables the whole/half dim scale over this Bb chord"
1, 74356, Note_on_c, 0, 57, 0
1, 74362, Note_on_c, 0, 58, 46
1, 74362, Control_c, 0, 64, 0
1, 74378, Note_on_c, 0, 58, 0
1, 74382, Note_on_c, 0, 60, 67
1, 74399, Note_on_c, 0, 60, 0
1, 74400, Note_on_c, 0, 61, 45
1, 74414, Note_on_c, 0, 63, 56
1, 74416, Note_on_c, 0, 61, 0
1, 74428, Note_on_c, 0, 63, 0
1, 74433, Note_on_c, 0, 64, 54
1, 74443, Note_on_c, 0, 64, 0
1, 74451, Note_on_c, 0, 66, 51
1, 74458, Note_on_c, 0, 66, 0
1, 74470, Note_on_c, 0, 67, 64
1, 74487, Note_on_c, 0, 67, 0
1, 74491, Note_on_c, 0, 69, 51
1, 74498, Note_on_c, 0, 46, 0
1, 74502, Note_on_c, 0, 69, 0
1, 74503, Note_on_c, 0, 70, 57
1, 74511, Note_on_c, 0, 70, 0
1, 74525, Note_on_c, 0, 72, 47
1, 74534, Note_on_c, 0, 72, 0
1, 74534, Note_on_c, 0, 46, 25
1, 74536, Note_on_c, 0, 73, 34
1, 74553, Note_on_c, 0, 73, 0
1, 74554, Note_on_c, 0, 75, 42
1, 74574, Note_on_c, 0, 75, 0
1, 74591, Note_on_c, 0, 53, 0
1, 74593, Note_on_c, 0, 79, 73
1, 74595, Note_on_c, 0, 57, 1
1, 74597, Note_on_c, 0, 46, 0
1, 74610, Note_on_c, 0, 57, 0
1, 74622, Note_on_c, 0, 79, 0
1, 74633, Note_on_c, 0, 77, 55
1, 74657, Note_on_c, 0, 77, 0
1, 74673, Note_on_c, 0, 74, 53
1, 74692, Control_c, 0, 64, 127
1, 74696, Note_on_c, 0, 74, 0
1, 74709, Note_on_c, 0, 69, 52
1, 74728, Note_on_c, 0, 69, 0
1, 74744, Note_on_c, 0, 81, 60
1, 74752, Control_c, 0, 64, 0
1, 74753, Note_on_c, 0, 65, 36
1, 74759, Note_on_c, 0, 62, 34
1, 74766, Note_on_c, 0, 60, 27
1, 74767, Note_on_c, 0, 81, 0
1, 74783, Note_on_c, 0, 77, 50
1, 74785, Note_on_c, 0, 65, 0
1, 74805, Note_on_c, 0, 77, 0
1, 74821, Note_on_c, 0, 74, 54
1, 74848, Note_on_c, 0, 74, 0
1, 74896, Control_c, 0, 64, 127
1, 74902, Note_on_c, 0, 93, 79
1, 74918, Note_on_c, 0, 93, 0
1, 74938, Note_on_c, 0, 89, 50
1, 74942, Note_on_c, 0, 88, 51
1, 74949, Note_on_c, 0, 88, 0
1, 74954, Note_on_c, 0, 89, 0
1, 74975, Note_on_c, 0, 86, 66
1, 74997, Note_on_c, 0, 86, 0
1, 75007, Note_on_c, 0, 81, 60
1, 75024, Note_on_c, 0, 81, 0
1, 75039, Note_on_c, 0, 60, 0
1, 75041, Note_on_c, 0, 62, 0
1, 75086, Note_on_c, 0, 55, 78
1, 75103, Control_c, 0, 64, 0
1, 75127, Control_c, 0, 64, 127
1, 75156, Note_on_c, 0, 55, 0
1, 75211, Note_on_c, 0, 50, 49
1, 75258, Note_on_c, 0, 62, 49
1, 75258, Note_on_c, 0, 53, 47
1, 75261, Note_on_c, 0, 58, 35
1, 75263, Note_on_c, 0, 57, 33
1, 75263, Note_on_c, 0, 43, 36
1, 75269, Control_c, 0, 64, 0
1, 75305, Control_c, 0, 64, 127
1, 75346, Note_on_c, 0, 57, 0
1, 75347, Note_on_c, 0, 53, 0
1, 75373, Note_on_c, 0, 58, 0
1, 75387, Note_on_c, 0, 57, 37
1, 75395, Note_on_c, 0, 58, 13
1, 75409, Note_on_c, 0, 57, 0
1, 75416, Note_on_c, 0, 58, 0
1, 75425, Note_on_c, 0, 50, 0
1, 75444, Note_on_c, 0, 62, 0
1, 75511, Note_on_c, 0, 53, 48
1, 75533, Note_on_c, 0, 53, 0
1, 75533, Note_on_c, 0, 43, 0
1, 75578, Control_c, 0, 64, 0
1, 75588, Note_on_c, 0, 74, 49
1, 75606, Note_on_c, 0, 74, 0
1, 75626, Note_on_c, 0, 77, 50
1, 75643, Note_on_c, 0, 77, 0
1, 75660, Note_on_c, 0, 81, 46
1, 75676, Note_on_c, 0, 81, 0
1, 75681, Control_c, 0, 64, 127
1, 75700, Note_on_c, 0, 82, 61
1, 75725, Note_on_c, 0, 82, 0
1, 75739, Control_c, 0, 64, 0
1, 75742, Note_on_c, 0, 84, 65
1, 75743, Note_on_c, 0, 72, 51
1, 75745, Note_on_c, 0, 62, 45
1, 75745, Note_on_c, 0, 58, 31
1, 75748, Note_on_c, 0, 52, 40
1, 75767, Control_c, 0, 64, 127
1, 75770, Note_on_c, 0, 72, 0
1, 75774, Note_on_c, 0, 84, 0
1, 75793, Note_on_c, 0, 52, 0
1, 75794, Note_on_c, 0, 62, 0
1, 75807, Note_on_c, 0, 58, 0
1, 75823, Note_on_c, 0, 58, 49
1, 75823, Note_on_c, 0, 88, 77
1, 75823, Note_on_c, 0, 63, 65
1, 75825, Control_c, 0, 64, 0
1, 75826, Note_on_c, 0, 52, 56
1, 75826, Note_on_c, 0, 76, 62
1, 75851, Control_c, 0, 64, 127
1, 75886, Note_on_c, 0, 88, 0
1, 75900, Note_on_c, 0, 76, 0
1, 75902, Note_on_c, 0, 63, 0
1, 75906, Note_on_c, 0, 52, 0
1, 75940, Note_on_c, 0, 58, 0
1, 75971, Control_c, 0, 64, 0
1, 75984, Note_on_c, 0, 61, 56
1, 75984, Note_on_c, 0, 84, 66
1, 75986, Note_on_c, 0, 58, 49
1, 75987, Note_on_c, 0, 52, 42
1, 75988, Note_on_c, 0, 72, 57
1, 75997, Note_on_c, 0, 72, 0
1, 75997, Note_on_c, 0, 61, 0
1, 75998, Note_on_c, 0, 84, 0
1, 75998, Note_on_c, 0, 52, 0
1, 76008, Note_on_c, 0, 58, 0
1, 76019, Control_c, 0, 64, 127
1, 76063, Control_c, 0, 64, 0
1, 76064, Note_on_c, 0, 81, 58
1, 76065, Note_on_c, 0, 73, 29
1, 76066, Note_on_c, 0, 61, 43
1, 76067, Note_on_c, 0, 69, 55
1, 76069, Note_on_c, 0, 52, 36
1, 76072, Note_on_c, 0, 58, 35
1, 76095, Note_on_c, 0, 73, 0
1, 76096, Control_c, 0, 64, 127
1, 76099, Note_on_c, 0, 69, 0
1, 76110, Note_on_c, 0, 81, 0
1, 76116, Note_on_c, 0, 76, 33
1, 76144, Note_on_c, 0, 61, 0
1, 76145, Note_on_c, 0, 52, 0
1, 76162, Note_on_c, 0, 58, 0
1, 76165, Note_on_c, 0, 76, 0
1, 76233, Note_on_c, 0, 81, 62
1, 76237, Note_on_c, 0, 53, 57
1, 76240, Note_on_c, 0, 69, 46
1, 76240, Control_c, 0, 64, 0
1, 76241, Note_on_c, 0, 60, 39
1, 76266, Control_c, 0, 64, 127
1, 76269, Note_on_c, 0, 81, 0
1, 76286, Note_on_c, 0, 69, 0
1, 76304, Note_on_c, 0, 60, 0
1, 76351, Note_on_c, 0, 71, 62
1, 76353, Note_on_c, 0, 56, 39
1, 76355, Note_on_c, 0, 68, 35
1, 76355, Note_on_c, 0, 62, 43
1, 76356, Control_c, 0, 64, 0
1, 76364, Control_c, 0, 64, 127
1, 76373, Note_on_c, 0, 62, 0
1, 76376, Note_on_c, 0, 71, 0
1, 76381, Note_on_c, 0, 68, 0
1, 76417, Control_c, 0, 64, 0
1, 76423, Note_on_c, 0, 74, 60
1, 76425, Note_on_c, 0, 68, 58
1, 76425, Note_on_c, 0, 62, 62
1, 76426, Note_on_c, 0, 71, 57
1, 76426, Note_on_c, 0, 65, 63
1, 76433, Control_c, 0, 64, 127
1, 76433, Note_on_c, 0, 72, 30
1, 76443, Note_on_c, 0, 62, 0
1, 76445, Note_on_c, 0, 56, 0
1, 76450, Note_on_c, 0, 71, 0
1, 76451, Note_on_c, 0, 72, 0
1, 76455, Note_on_c, 0, 74, 0
1, 76461, Note_on_c, 0, 68, 0
1, 76462, Note_on_c, 0, 65, 0
1, 76487, Control_c, 0, 64, 0
1, 76488, Note_on_c, 0, 53, 0
1, 76488, Note_on_c, 0, 72, 50
1, 76489, Note_on_c, 0, 57, 54
1, 76493, Note_on_c, 0, 67, 47
1, 76494, Note_on_c, 0, 64, 46
1, 76510, Note_on_c, 0, 67, 0
1, 76513, Control_c, 0, 64, 127
1, 76514, Note_on_c, 0, 72, 0
1, 76521, Note_on_c, 0, 64, 0
1, 76566, Note_on_c, 0, 69, 44
1, 76568, Note_on_c, 0, 57, 0
1, 76568, Note_on_c, 0, 53, 50
1, 76568, Note_on_c, 0, 60, 32
1, 76569, Note_on_c, 0, 64, 48
1, 76574, Note_on_c, 0, 65, 37
1, 76576, Control_c, 0, 64, 0
1, 76606, Control_c, 0, 64, 127
1, 76612, Note_on_c, 0, 65, 0
1, 76619, Note_on_c, 0, 64, 0
1, 76623, Note_on_c, 0, 53, 0
1, 76627, Note_on_c, 0, 60, 0
1, 76629, Note_on_c, 0, 69, 0
1, 76680, Note_on_c, 0, 61, 46
1, 76681, Note_on_c, 0, 64, 47
1, 76683, Note_on_c, 0, 58, 37
1, 76684, Control_c, 0, 64, 0
1, 76684, Note_on_c, 0, 55, 35
1, 76685, Note_on_c, 0, 45, 34
1, 76703, Note_on_c, 0, 61, 0
1, 76705, Note_on_c, 0, 64, 0
1, 76705, Note_on_c, 0, 58, 0
1, 76707, Control_c, 0, 64, 127
1, 76708, Note_on_c, 0, 45, 0
1, 76716, Note_on_c, 0, 55, 0
1, 76748, Control_c, 0, 64, 0
1, 76755, Note_on_c, 0, 61, 79
1, 76755, Note_on_c, 0, 64, 78
1, 76756, Note_on_c, 0, 72, 66
1, 76757, Note_on_c, 0, 60, 80
1, 76761, Note_on_c, 0, 70, 39
1, 76770, Control_c, 0, 64, 127
1, 76783, Note_on_c, 0, 61, 0
1, 76784, Note_on_c, 0, 64, 0
1, 76792, Note_on_c, 0, 72, 0
1, 76794, Note_on_c, 0, 70, 0
1, 76808, Note_on_c, 0, 60, 0
1, 76836, Note_on_c, 0, 75, 74
1, 76837, Note_on_c, 0, 70, 72
1, 76838, Control_c, 0, 64, 0
1, 76839, Note_on_c, 0, 63, 75
1, 76839, Note_on_c, 0, 67, 73
1, 76840, Note_on_c, 0, 64, 73
1, 76855, Note_on_c, 0, 63, 0
1, 76858, Control_c, 0, 64, 127
1, 76860, Note_on_c, 0, 67, 0
1, 76863, Note_on_c, 0, 75, 0
1, 76866, Note_on_c, 0, 70, 0
1, 76871, Note_on_c, 0, 64, 0
1, 76919, Note_on_c, 0, 67, 64
1, 76920, Note_on_c, 0, 61, 65
1, 76920, Note_on_c, 0, 57, 63
1, 76925, Control_c, 0, 64, 0
1, 76925, Note_on_c, 0, 64, 53
1, 76957, Control_c, 0, 64, 127
1, 76969, Note_on_c, 0, 67, 0
1, 76970, Note_on_c, 0, 64, 0
1, 76990, Note_on_c, 0, 61, 0
1, 77017, Note_on_c, 0, 57, 0
1, 77019, Note_on_c, 0, 58, 56
1, 77019, Note_on_c, 0, 54, 45
1, 77020, Note_on_c, 0, 61, 47
1, 77023, Note_on_c, 0, 64, 50
1, 77035, Control_c, 0, 64, 0
1, 77058, Control_c, 0, 64, 127
1, 77069, Note_on_c, 0, 54, 0
1, 77076, Note_on_c, 0, 61, 0
1, 77090, Note_on_c, 0, 58, 0
1, 77102, Note_on_c, 0, 61, 64
1, 77114, Note_on_c, 0, 48, 27
1, 77114, Control_c, 0, 64, 0
1, 77117, Note_on_c, 0, 64, 0
1, 77124, Note_on_c, 0, 48, 0
1, 77131, Control_c, 0, 64, 127
1, 77132, Note_on_c, 0, 61, 0
1, 77143, Note_on_c, 0, 49, 53
1, 77177, Note_on_c, 0, 49, 0
1, 77177, Control_c, 0, 64, 0
1, 77183, Note_on_c, 0, 65, 47
1, 77187, Note_on_c, 0, 57, 46
1, 77187, Note_on_c, 0, 60, 53
1, 77188, Note_on_c, 0, 50, 57
1, 77211, Control_c, 0, 64, 127
1, 77221, Note_on_c, 0, 57, 0
1, 77247, Note_on_c, 0, 60, 0
1, 77248, Note_on_c, 0, 65, 0
1, 77263, Note_on_c, 0, 38, 60
1, 77272, Note_on_c, 0, 38, 0
1, 77281, Note_on_c, 0, 50, 0
1, 77303, Marker_t, "On Dm7 chord, each note of chord is 'surrounded' by  diminished chords"
1, 77357, Note_on_c, 0, 61, 57
1, 77359, Note_on_c, 0, 70, 50
1, 77361, Note_on_c, 0, 73, 31
1, 77362, Note_on_c, 0, 76, 44
1, 77374, Note_on_c, 0, 70, 0
1, 77383, Note_on_c, 0, 76, 0
1, 77383, Note_on_c, 0, 73, 0
1, 77391, Note_on_c, 0, 61, 0
1, 77393, Note_on_c, 0, 79, 65
1, 77394, Note_on_c, 0, 70, 57
1, 77394, Note_on_c, 0, 64, 55
1, 77397, Note_on_c, 0, 73, 28
1, 77406, Note_on_c, 0, 73, 0
1, 77410, Control_c, 0, 64, 0
1, 77414, Note_on_c, 0, 64, 0
1, 77414, Note_on_c, 0, 79, 0
1, 77415, Note_on_c, 0, 70, 0
1, 77432, Note_on_c, 0, 62, 56
1, 77432, Note_on_c, 0, 77, 65
1, 77435, Note_on_c, 0, 69, 60
1, 77453, Note_on_c, 0, 69, 0
1, 77457, Note_on_c, 0, 77, 0
1, 77471, Note_on_c, 0, 62, 0
1, 77497, Note_on_c, 0, 61, 52
1, 77500, Note_on_c, 0, 73, 21
1, 77517, Note_on_c, 0, 73, 0
1, 77524, Note_on_c, 0, 61, 0
1, 77527, Note_on_c, 0, 76, 73
1, 77531, Note_on_c, 0, 64, 55
1, 77533, Note_on_c, 0, 69, 40
1, 77533, Note_on_c, 0, 65, 36
1, 77547, Note_on_c, 0, 65, 0
1, 77548, Note_on_c, 0, 69, 0
1, 77549, Note_on_c, 0, 64, 0
1, 77553, Note_on_c, 0, 76, 0
1, 77562, Note_on_c, 0, 60, 45
1, 77562, Note_on_c, 0, 74, 56
1, 77563, Note_on_c, 0, 65, 50
1, 77567, Note_on_c, 0, 69, 34
1, 77572, Control_c, 0, 64, 127
1, 77577, Note_on_c, 0, 69, 0
1, 77583, Note_on_c, 0, 65, 0
1, 77585, Note_on_c, 0, 74, 0
1, 77601, Note_on_c, 0, 60, 0
1, 77635, Note_on_c, 0, 62, 52
1, 77635, Note_on_c, 0, 57, 50
1, 77636, Note_on_c, 0, 69, 51
1, 77640, Note_on_c, 0, 65, 32
1, 77643, Note_on_c, 0, 57, 0
1, 77652, Note_on_c, 0, 62, 0
1, 77655, Note_on_c, 0, 65, 0
1, 77661, Note_on_c, 0, 69, 0
1, 77685, Note_on_c, 0, 65, 60
1, 77686, Note_on_c, 0, 44, 42
1, 77687, Control_c, 0, 64, 0
1, 77690, Note_on_c, 0, 60, 28
1, 77690, Note_on_c, 0, 54, 23
1, 77720, Control_c, 0, 64, 127
1, 77735, Note_on_c, 0, 60, 0
1, 77743, Note_on_c, 0, 54, 0
1, 77750, Note_on_c, 0, 44, 0
1, 77752, Note_on_c, 0, 65, 0
1, 77920, Note_on_c, 0, 65, 80
1, 77921, Note_on_c, 0, 54, 68
1, 77922, Note_on_c, 0, 58, 62
1, 77923, Note_on_c, 0, 60, 66
1, 77923, Note_on_c, 0, 84, 84
1, 77924, Note_on_c, 0, 72, 82
1, 77929, Control_c, 0, 64, 0
1, 77932, Note_on_c, 0, 60, 0
1, 77934, Note_on_c, 0, 65, 0
1, 77939, Note_on_c, 0, 54, 0
1, 77943, Note_on_c, 0, 58, 0
1, 77964, Note_on_c, 0, 72, 0
1, 77979, Note_on_c, 0, 84, 0
1, 77994, Control_c, 0, 64, 127
1, 77998, Note_on_c, 0, 81, 44
1, 78024, Note_on_c, 0, 81, 0
1, 78036, Control_c, 0, 64, 0
1, 78042, Note_on_c, 0, 78, 37
1, 78076, Control_c, 0, 64, 127
1, 78101, Note_on_c, 0, 78, 0
1, 78125, Note_on_c, 0, 71, 18
1, 78136, Note_on_c, 0, 71, 0
1, 78156, Note_on_c, 0, 64, 48
1, 78157, Note_on_c, 0, 77, 44
1, 78158, Note_on_c, 0, 59, 50
1, 78160, Control_c, 0, 64, 0
1, 78163, Note_on_c, 0, 53, 31
1, 78175, Note_on_c, 0, 64, 0
1, 78177, Note_on_c, 0, 59, 0
1, 78190, Note_on_c, 0, 53, 0
1, 78202, Control_c, 0, 64, 127
1, 78221, Note_on_c, 0, 77, 0
1, 78234, Note_on_c, 0, 81, 58
1, 78240, Control_c, 0, 64, 0
1, 78247, Note_on_c, 0, 81, 0
1, 78302, Marker_t, "Double feel getting more pronounced"
1, 78341, Control_c, 0, 64, 127
1, 78359, Note_on_c, 0, 43, 32
1, 78369, Note_on_c, 0, 43, 0
1, 78398, Note_on_c, 0, 58, 38
1, 78404, Note_on_c, 0, 53, 29
1, 78405, Note_on_c, 0, 58, 0
1, 78409, Control_c, 0, 64, 0
1, 78415, Note_on_c, 0, 59, 35
1, 78446, Note_on_c, 0, 53, 0
1, 78468, Note_on_c, 0, 59, 0
1, 78474, Note_on_c, 0, 65, 66
1, 78483, Note_on_c, 0, 43, 33
1, 78493, Note_on_c, 0, 43, 0
1, 78502, Note_on_c, 0, 65, 0
1, 78522, Note_on_c, 0, 65, 42
1, 78548, Note_on_c, 0, 65, 0
1, 78581, Control_c, 0, 64, 127
1, 78592, Note_on_c, 0, 42, 45
1, 78610, Note_on_c, 0, 42, 0
1, 78627, Control_c, 0, 64, 0
1, 78634, Note_on_c, 0, 45, 53
1, 78635, Note_on_c, 0, 65, 41
1, 78636, Note_on_c, 0, 53, 42
1, 78636, Note_on_c, 0, 60, 55
1, 78674, Note_on_c, 0, 60, 0
1, 78677, Note_on_c, 0, 53, 0
1, 78694, Note_on_c, 0, 45, 0
1, 78704, Note_on_c, 0, 61, 49
1, 78704, Note_on_c, 0, 46, 37
1, 78708, Note_on_c, 0, 53, 30
1, 78709, Control_c, 0, 64, 127
1, 78725, Note_on_c, 0, 61, 0
1, 78727, Note_on_c, 0, 53, 0
1, 78729, Note_on_c, 0, 65, 0
1, 78742, Control_c, 0, 64, 0
1, 78745, Note_on_c, 0, 46, 0
1, 78747, Note_on_c, 0, 47, 54
1, 78749, Note_on_c, 0, 62, 35
1, 78751, Note_on_c, 0, 59, 48
1, 78751, Note_on_c, 0, 65, 44
1, 78752, Note_on_c, 0, 53, 32
1, 78778, Note_on_c, 0, 47, 0
1, 78784, Control_c, 0, 64, 127
1, 78825, Note_on_c, 0, 42, 74
1, 78825, Note_on_c, 0, 43, 91
1, 78829, Note_on_c, 0, 53, 0
1, 78836, Note_on_c, 0, 59, 0
1, 78842, Control_c, 0, 64, 0
1, 78847, Note_on_c, 0, 42, 0
1, 78862, Note_on_c, 0, 62, 0
1, 78864, Note_on_c, 0, 65, 0
1, 78872, Note_on_c, 0, 58, 54
1, 78905, Note_on_c, 0, 58, 0
1, 78936, Control_c, 0, 64, 127
1, 78947, Note_on_c, 0, 58, 55
1, 78949, Note_on_c, 0, 31, 56
1, 78957, Note_on_c, 0, 31, 0
1, 78971, Note_on_c, 0, 43, 0
1, 78976, Note_on_c, 0, 58, 0
1, 78982, Control_c, 0, 64, 0
1, 78990, Control_c, 0, 64, 127
1, 78996, Note_on_c, 0, 62, 40
1, 79034, Note_on_c, 0, 62, 0
1, 79060, Note_on_c, 0, 65, 44
1, 79066, Note_on_c, 0, 50, 41
1, 79068, Note_on_c, 0, 65, 0
1, 79090, Note_on_c, 0, 50, 0
1, 79103, Control_c, 0, 64, 0
1, 79106, Note_on_c, 0, 58, 53
1, 79107, Note_on_c, 0, 43, 41
1, 79107, Note_on_c, 0, 69, 57
1, 79107, Note_on_c, 0, 62, 51
1, 79109, Note_on_c, 0, 53, 41
1, 79122, Note_on_c, 0, 43, 0
1, 79123, Note_on_c, 0, 58, 0
1, 79124, Control_c, 0, 64, 127
1, 79128, Note_on_c, 0, 62, 0
1, 79135, Note_on_c, 0, 69, 0
1, 79137, Note_on_c, 0, 53, 0
1, 79178, Note_on_c, 0, 57, 67
1, 79179, Note_on_c, 0, 72, 56
1, 79179, Control_c, 0, 64, 0
1, 79180, Note_on_c, 0, 62, 64
1, 79181, Note_on_c, 0, 65, 57
1, 79187, Note_on_c, 0, 72, 0
1, 79189, Note_on_c, 0, 65, 0
1, 79196, Note_on_c, 0, 57, 0
1, 79198, Note_on_c, 0, 62, 0
1, 79227, Note_on_c, 0, 53, 59
1, 79233, Note_on_c, 0, 69, 37
1, 79233, Note_on_c, 0, 62, 30
1, 79236, Note_on_c, 0, 53, 0
1, 79241, Note_on_c, 0, 69, 0
1, 79242, Note_on_c, 0, 62, 0
1, 79259, Control_c, 0, 64, 127
1, 79300, Note_on_c, 0, 50, 29
1, 79303, Note_on_c, 0, 62, 40
1, 79310, Note_on_c, 0, 58, 26
1, 79312, Note_on_c, 0, 55, 17
1, 79374, Note_on_c, 0, 62, 0
1, 79377, Note_on_c, 0, 55, 0
1, 79384, Note_on_c, 0, 58, 0
1, 79422, Note_on_c, 0, 53, 41
1, 79422, Note_on_c, 0, 65, 44
1, 79423, Note_on_c, 0, 58, 39
1, 79423, Note_on_c, 0, 62, 43
1, 79425, Note_on_c, 0, 55, 44
1, 79452, Note_on_c, 0, 53, 0
1, 79453, Note_on_c, 0, 50, 0
1, 79503, Note_on_c, 0, 55, 0
1, 79524, Note_on_c, 0, 62, 0
1, 79526, Note_on_c, 0, 58, 0
1, 79540, Note_on_c, 0, 30, 56
1, 79544, Note_on_c, 0, 36, 32
1, 79551, Note_on_c, 0, 30, 0
1, 79553, Note_on_c, 0, 36, 0
1, 79569, Note_on_c, 0, 65, 0
1, 79584, Note_on_c, 0, 61, 62
1, 79587, Note_on_c, 0, 36, 63
1, 79587, Note_on_c, 0, 24, 68
1, 79590, Control_c, 0, 64, 0
1, 79597, Note_on_c, 0, 62, 40
1, 79600, Note_on_c, 0, 61, 0
1, 79601, Note_on_c, 0, 24, 0
1, 79610, Control_c, 0, 64, 127
1, 79613, Note_on_c, 0, 36, 0
1, 79643, Note_on_c, 0, 62, 0
1, 79657, Note_on_c, 0, 48, 85
1, 79657, Note_on_c, 0, 65, 69
1, 79657, Note_on_c, 0, 58, 65
1, 79658, Note_on_c, 0, 53, 71
1, 79658, Note_on_c, 0, 62, 71
1, 79665, Note_on_c, 0, 47, 36
1, 79672, Note_on_c, 0, 47, 0
1, 79688, Note_on_c, 0, 65, 0
1, 79690, Note_on_c, 0, 53, 0
1, 79690, Control_c, 0, 64, 0
1, 79692, Note_on_c, 0, 58, 0
1, 79693, Note_on_c, 0, 48, 0
1, 79695, Note_on_c, 0, 62, 0
1, 79703, Note_on_c, 0, 48, 47
1, 79704, Note_on_c, 0, 65, 60
1, 79706, Note_on_c, 0, 58, 34
1, 79709, Note_on_c, 0, 53, 29
1, 79711, Note_on_c, 0, 62, 37
1, 79737, Note_on_c, 0, 62, 0
1, 79743, Note_on_c, 0, 53, 0
1, 79744, Note_on_c, 0, 58, 0
1, 79747, Note_on_c, 0, 48, 0
1, 79752, Note_on_c, 0, 65, 0
1, 79771, Control_c, 0, 64, 127
1, 79781, Note_on_c, 0, 47, 40
1, 79788, Control_c, 0, 64, 0
1, 79814, Note_on_c, 0, 47, 0
1, 79819, Note_on_c, 0, 58, 55
1, 79821, Note_on_c, 0, 48, 59
1, 79821, Note_on_c, 0, 65, 56
1, 79822, Note_on_c, 0, 53, 55
1, 79823, Note_on_c, 0, 62, 53
1, 79825, Control_c, 0, 64, 127
1, 79869, Note_on_c, 0, 53, 0
1, 79870, Note_on_c, 0, 48, 0
1, 79873, Note_on_c, 0, 65, 0
1, 79877, Note_on_c, 0, 58, 0
1, 79880, Note_on_c, 0, 62, 0
1, 79892, Note_on_c, 0, 48, 57
1, 79894, Note_on_c, 0, 58, 61
1, 79896, Note_on_c, 0, 65, 46
1, 79896, Note_on_c, 0, 62, 41
1, 79897, Note_on_c, 0, 53, 49
1, 79916, Note_on_c, 0, 53, 0
1, 79918, Note_on_c, 0, 48, 0
1, 79920, Note_on_c, 0, 58, 0
1, 79923, Note_on_c, 0, 65, 0
1, 79926, Note_on_c, 0, 62, 0
1, 80004, Note_on_c, 0, 39, 73
1, 80005, Note_on_c, 0, 60, 83
1, 80006, Note_on_c, 0, 65, 71
1, 80006, Note_on_c, 0, 46, 63
1, 80008, Note_on_c, 0, 55, 76
1, 80011, Control_c, 0, 64, 0
1, 80014, Note_on_c, 0, 55, 0
1, 80020, Note_on_c, 0, 60, 0
1, 80025, Note_on_c, 0, 46, 0
1, 80025, Note_on_c, 0, 65, 0
1, 80027, Note_on_c, 0, 39, 0
1, 80114, Note_on_c, 0, 47, 76
1, 80114, Note_on_c, 0, 61, 65
1, 80114, Note_on_c, 0, 56, 75
1, 80116, Note_on_c, 0, 65, 64
1, 80116, Note_on_c, 0, 40, 66
1, 80122, Note_on_c, 0, 65, 0
1, 80127, Note_on_c, 0, 56, 0
1, 80129, Note_on_c, 0, 47, 0
1, 80131, Note_on_c, 0, 40, 0
1, 80133, Note_on_c, 0, 61, 0
1, 80179, Control_c, 0, 64, 127
1, 80216, Control_c, 0, 64, 0
1, 80223, Note_on_c, 0, 65, 64
1, 80224, Note_on_c, 0, 57, 73
1, 80224, Note_on_c, 0, 62, 62
1, 80225, Note_on_c, 0, 41, 66
1, 80225, Note_on_c, 0, 48, 64
1, 80250, Control_c, 0, 64, 127
1, 80252, Note_on_c, 0, 57, 0
1, 80266, Note_on_c, 0, 62, 0
1, 80270, Note_on_c, 0, 65, 0
1, 80327, Note_on_c, 0, 41, 0
1, 80332, Note_on_c, 0, 69, 83
1, 80341, Note_on_c, 0, 48, 0
1, 80358, Note_on_c, 0, 69, 0
1, 80378, Note_on_c, 0, 74, 79
1, 80403, Note_on_c, 0, 74, 0
1, 80443, Note_on_c, 0, 77, 90
1, 80468, Note_on_c, 0, 77, 0
1, 80490, Note_on_c, 0, 47, 60
1, 80491, Note_on_c, 0, 76, 67
1, 80493, Note_on_c, 0, 71, 58
1, 80495, Note_on_c, 0, 69, 50
1, 80497, Control_c, 0, 64, 0
1, 80523, Control_c, 0, 64, 127
1, 80560, Note_on_c, 0, 57, 47
1, 80580, Note_on_c, 0, 71, 0
1, 80587, Note_on_c, 0, 69, 0
1, 80618, Note_on_c, 0, 57, 0
1, 80699, Note_on_c, 0, 76, 0
1, 80725, Note_on_c, 0, 74, 47
1, 80726, Note_on_c, 0, 65, 47
1, 80728, Control_c, 0, 64, 0
1, 80728, Note_on_c, 0, 71, 43
1, 80729, Note_on_c, 0, 56, 37
1, 80730, Note_on_c, 0, 68, 30
1, 80738, Note_on_c, 0, 47, 0
1, 80754, Control_c, 0, 64, 127
1, 80808, Note_on_c, 0, 47, 41
1, 80809, Note_on_c, 0, 74, 0
1, 80814, Note_on_c, 0, 71, 0
1, 80827, Note_on_c, 0, 47, 0
1, 80828, Note_on_c, 0, 68, 0
1, 80832, Note_on_c, 0, 56, 0
1, 80833, Note_on_c, 0, 65, 0
1, 80947, Marker_t, "Drop 2 voicings again"
1, 80973, Note_on_c, 0, 69, 74
1, 80974, Note_on_c, 0, 54, 64
1, 80974, Note_on_c, 0, 64, 71
1, 80974, Control_c, 0, 64, 0
1, 80975, Note_on_c, 0, 60, 72
1, 80975, Note_on_c, 0, 66, 53
1, 80996, Control_c, 0, 64, 127
1, 81015, Note_on_c, 0, 69, 0
1, 81021, Note_on_c, 0, 60, 0
1, 81022, Note_on_c, 0, 54, 0
1, 81027, Note_on_c, 0, 64, 0
1, 81032, Note_on_c, 0, 66, 0
1, 81048, Note_on_c, 0, 66, 30
1, 81051, Note_on_c, 0, 69, 34
1, 81051, Note_on_c, 0, 64, 40
1, 81053, Note_on_c, 0, 54, 46
1, 81063, Note_on_c, 0, 64, 0
1, 81066, Note_on_c, 0, 69, 0
1, 81072, Note_on_c, 0, 66, 0
1, 81083, Note_on_c, 0, 54, 0
1, 81089, Note_on_c, 0, 71, 68
1, 81090, Note_on_c, 0, 62, 70
1, 81090, Note_on_c, 0, 68, 43
1, 81090, Note_on_c, 0, 65, 63
1, 81092, Note_on_c, 0, 55, 69
1, 81099, Control_c, 0, 64, 0
1, 81129, Control_c, 0, 64, 127
1, 81189, Note_on_c, 0, 55, 0
1, 81190, Note_on_c, 0, 62, 0
1, 81191, Note_on_c, 0, 65, 0
1, 81194, Note_on_c, 0, 71, 0
1, 81198, Note_on_c, 0, 68, 0
1, 81210, Note_on_c, 0, 71, 62
1, 81213, Note_on_c, 0, 68, 38
1, 81214, Note_on_c, 0, 62, 46
1, 81215, Note_on_c, 0, 65, 58
1, 81217, Note_on_c, 0, 55, 54
1, 81240, Note_on_c, 0, 65, 0
1, 81244, Note_on_c, 0, 71, 0
1, 81248, Note_on_c, 0, 68, 0
1, 81258, Note_on_c, 0, 62, 0
1, 81292, Note_on_c, 0, 55, 0
1, 81292, Note_on_c, 0, 72, 62
1, 81293, Note_on_c, 0, 62, 62
1, 81295, Note_on_c, 0, 69, 57
1, 81295, Note_on_c, 0, 57, 54
1, 81295, Note_on_c, 0, 65, 58
1, 81300, Control_c, 0, 64, 0
1, 81328, Control_c, 0, 64, 127
1, 81343, Note_on_c, 0, 65, 0
1, 81343, Note_on_c, 0, 62, 0
1, 81349, Note_on_c, 0, 69, 0
1, 81352, Note_on_c, 0, 72, 0
1, 81392, Note_on_c, 0, 57, 0
1, 81399, Note_on_c, 0, 74, 57
1, 81403, Note_on_c, 0, 68, 50
1, 81403, Note_on_c, 0, 71, 51
1, 81404, Control_c, 0, 64, 0
1, 81404, Note_on_c, 0, 59, 58
1, 81404, Note_on_c, 0, 65, 61
1, 81434, Control_c, 0, 64, 127
1, 81451, Note_on_c, 0, 65, 0
1, 81456, Note_on_c, 0, 68, 0
1, 81457, Note_on_c, 0, 74, 0
1, 81461, Note_on_c, 0, 71, 0
1, 81628, Note_on_c, 0, 59, 0
1, 81628, Note_on_c, 0, 76, 74
1, 81629, Note_on_c, 0, 60, 65
1, 81632, Note_on_c, 0, 67, 70
1, 81634, Note_on_c, 0, 72, 44
1, 81635, Note_on_c, 0, 69, 44
1, 81644, Note_on_c, 0, 72, 0
1, 81645, Note_on_c, 0, 69, 0
1, 81646, Note_on_c, 0, 67, 0
1, 81654, Note_on_c, 0, 76, 0
1, 81659, Note_on_c, 0, 60, 0
1, 81675, Control_c, 0, 64, 0
1, 81688, Note_on_c, 0, 74, 58
1, 81690, Note_on_c, 0, 65, 63
1, 81693, Note_on_c, 0, 59, 39
1, 81697, Note_on_c, 0, 65, 0
1, 81700, Note_on_c, 0, 74, 0
1, 81709, Control_c, 0, 64, 127
1, 81740, Note_on_c, 0, 59, 0
1, 81766, Note_on_c, 0, 72, 57
1, 81767, Note_on_c, 0, 67, 53
1, 81767, Note_on_c, 0, 64, 53
1, 81769, Note_on_c, 0, 57, 36
1, 81776, Note_on_c, 0, 67, 0
1, 81778, Note_on_c, 0, 57, 0
1, 81778, Note_on_c, 0, 64, 0
1, 81783, Note_on_c, 0, 72, 0
1, 81863, Control_c, 0, 64, 0
1, 81871, Note_on_c, 0, 69, 50
1, 81872, Note_on_c, 0, 57, 46
1, 81873, Note_on_c, 0, 62, 41
1, 81875, Note_on_c, 0, 47, 44
1, 81888, Control_c, 0, 64, 127
1, 81897, Note_on_c, 0, 57, 0
1, 81910, Note_on_c, 0, 47, 0
1, 81926, Note_on_c, 0, 62, 0
1, 81952, Note_on_c, 0, 69, 0
1, 82125, Note_on_c, 0, 65, 41
1, 82127, Note_on_c, 0, 62, 30
1, 82131, Note_on_c, 0, 57, 34
1, 82138, Control_c, 0, 64, 0
1, 82182, Control_c, 0, 64, 127
1, 82198, Note_on_c, 0, 81, 84
1, 82206, Control_c, 0, 64, 0
1, 82220, Control_c, 0, 64, 127
1, 82226, Note_on_c, 0, 81, 0
1, 82235, Note_on_c, 0, 80, 49
1, 82247, Note_on_c, 0, 80, 0
1, 82267, Note_on_c, 0, 81, 49
1, 82285, Note_on_c, 0, 57, 0
1, 82293, Note_on_c, 0, 62, 0
1, 82296, Note_on_c, 0, 65, 0
1, 82298, Note_on_c, 0, 81, 0
1, 82298, Note_on_c, 0, 82, 46
1, 82320, Note_on_c, 0, 82, 0
1, 82320, Note_on_c, 0, 83, 51
1, 82336, Note_on_c, 0, 83, 0
1, 82349, Note_on_c, 0, 84, 79
1, 82357, Control_c, 0, 64, 0
1, 82357, Note_on_c, 0, 67, 50
1, 82360, Note_on_c, 0, 62, 36
1, 82363, Note_on_c, 0, 56, 29
1, 82401, Control_c, 0, 64, 127
1, 82418, Note_on_c, 0, 84, 0
1, 82427, Note_on_c, 0, 83, 60
1, 82454, Note_on_c, 0, 67, 0
1, 82460, Note_on_c, 0, 62, 0
1, 82468, Note_on_c, 0, 56, 0
1, 82535, Note_on_c, 0, 40, 51
1, 82546, Note_on_c, 0, 40, 0
1, 82607, Note_on_c, 0, 56, 67
1, 82608, Note_on_c, 0, 62, 58
1, 82608, Note_on_c, 0, 67, 68
1, 82616, Control_c, 0, 64, 0
1, 82637, Control_c, 0, 64, 127
1, 82668, Note_on_c, 0, 67, 0
1, 82675, Note_on_c, 0, 56, 0
1, 82690, Note_on_c, 0, 65, 61
1, 82692, Note_on_c, 0, 56, 44
1, 82709, Note_on_c, 0, 65, 0
1, 82713, Note_on_c, 0, 62, 0
1, 82721, Note_on_c, 0, 56, 0
1, 82749, Note_on_c, 0, 83, 0
1, 82799, Note_on_c, 0, 52, 78
1, 82802, Note_on_c, 0, 45, 76
1, 82814, Control_c, 0, 64, 0
1, 82834, Control_c, 0, 64, 127
1, 82890, Note_on_c, 0, 45, 0
1, 82912, Note_on_c, 0, 52, 0
1, 82918, Note_on_c, 0, 69, 82
1, 82920, Note_on_c, 0, 64, 82
1, 82920, Note_on_c, 0, 66, 68
1, 82920, Note_on_c, 0, 60, 83
1, 82921, Note_on_c, 0, 54, 80
1, 82939, Control_c, 0, 64, 0
1, 82971, Control_c, 0, 64, 127
1, 83052, Note_on_c, 0, 69, 0
1, 83107, Note_on_c, 0, 60, 0
1, 83109, Note_on_c, 0, 64, 0
1, 83114, Note_on_c, 0, 66, 0
1, 83131, Note_on_c, 0, 54, 0
1, 83162, Note_on_c, 0, 71, 61
1, 83163, Control_c, 0, 64, 0
1, 83163, Note_on_c, 0, 56, 46
1, 83164, Note_on_c, 0, 68, 50
1, 83165, Note_on_c, 0, 65, 57
1, 83165, Note_on_c, 0, 62, 60
1, 83183, Control_c, 0, 64, 127
1, 83185, Note_on_c, 0, 62, 0
1, 83185, Note_on_c, 0, 65, 0
1, 83196, Note_on_c, 0, 71, 0
1, 83203, Note_on_c, 0, 68, 0
1, 83211, Control_c, 0, 64, 0
1, 83220, Note_on_c, 0, 64, 63
1, 83220, Note_on_c, 0, 72, 55
1, 83221, Note_on_c, 0, 67, 58
1, 83225, Note_on_c, 0, 57, 53
1, 83226, Note_on_c, 0, 56, 0
1, 83226, Note_on_c, 0, 69, 48
1, 83235, Note_on_c, 0, 69, 0
1, 83236, Note_on_c, 0, 64, 0
1, 83239, Note_on_c, 0, 67, 0
1, 83245, Note_on_c, 0, 72, 0
1, 83253, Control_c, 0, 64, 127
1, 83280, Note_on_c, 0, 57, 0
1, 83289, Control_c, 0, 64, 0
1, 83297, Note_on_c, 0, 68, 60
1, 83297, Note_on_c, 0, 74, 58
1, 83299, Note_on_c, 0, 65, 61
1, 83299, Note_on_c, 0, 59, 57
1, 83300, Note_on_c, 0, 71, 53
1, 83306, Note_on_c, 0, 65, 0
1, 83308, Note_on_c, 0, 59, 0
1, 83312, Note_on_c, 0, 71, 0
1, 83312, Note_on_c, 0, 68, 0
1, 83317, Note_on_c, 0, 74, 0
1, 83407, Note_on_c, 0, 76, 68
1, 83408, Note_on_c, 0, 67, 80
1, 83410, Note_on_c, 0, 60, 68
1, 83411, Note_on_c, 0, 72, 57
1, 83419, Note_on_c, 0, 72, 0
1, 83420, Note_on_c, 0, 67, 0
1, 83421, Note_on_c, 0, 60, 0
1, 83425, Note_on_c, 0, 76, 0
1, 83519, Note_on_c, 0, 59, 52
1, 83520, Note_on_c, 0, 74, 53
1, 83520, Note_on_c, 0, 68, 57
1, 83520, Note_on_c, 0, 65, 66
1, 83522, Note_on_c, 0, 71, 45
1, 83528, Note_on_c, 0, 65, 0
1, 83530, Note_on_c, 0, 59, 0
1, 83530, Note_on_c, 0, 71, 0
1, 83533, Note_on_c, 0, 68, 0
1, 83536, Note_on_c, 0, 74, 0
1, 83575, Control_c, 0, 64, 127
1, 83627, Note_on_c, 0, 57, 42
1, 83628, Note_on_c, 0, 72, 60
1, 83630, Note_on_c, 0, 67, 55
1, 83632, Note_on_c, 0, 64, 38
1, 83687, Note_on_c, 0, 57, 0
1, 83699, Note_on_c, 0, 67, 0
1, 83702, Note_on_c, 0, 64, 0
1, 83744, Note_on_c, 0, 72, 0
1, 83775, Control_c, 0, 64, 0
1, 83779, Note_on_c, 0, 64, 51
1, 83780, Note_on_c, 0, 54, 42
1, 83780, Note_on_c, 0, 60, 42
1, 83784, Note_on_c, 0, 44, 29
1, 83803, Control_c, 0, 64, 127
1, 83805, Note_on_c, 0, 60, 0
1, 83810, Note_on_c, 0, 64, 0
1, 83858, Note_on_c, 0, 76, 53
1, 83863, Note_on_c, 0, 44, 0
1, 83870, Note_on_c, 0, 54, 0
1, 83883, Note_on_c, 0, 76, 0
1, 83918, Note_on_c, 0, 88, 60
1, 83927, Note_on_c, 0, 88, 0
1, 83980, Note_on_c, 0, 88, 64
1, 83983, Note_on_c, 0, 76, 41
1, 84000, Note_on_c, 0, 76, 0
1, 84001, Note_on_c, 0, 88, 0
1, 84022, Note_on_c, 0, 54, 32
1, 84028, Note_on_c, 0, 65, 29
1, 84029, Note_on_c, 0, 60, 36
1, 84031, Note_on_c, 0, 88, 61
1, 84036, Note_on_c, 0, 76, 37
1, 84056, Note_on_c, 0, 76, 0
1, 84056, Note_on_c, 0, 88, 0
1, 84097, Note_on_c, 0, 88, 44
1, 84099, Note_on_c, 0, 76, 34
1, 84113, Note_on_c, 0, 76, 0
1, 84113, Note_on_c, 0, 88, 0
1, 84143, Note_on_c, 0, 88, 53
1, 84147, Note_on_c, 0, 76, 34
1, 84157, Note_on_c, 0, 76, 0
1, 84158, Note_on_c, 0, 88, 0
1, 84196, Note_on_c, 0, 65, 0
1, 84204, Note_on_c, 0, 60, 0
1, 84213, Note_on_c, 0, 88, 60
1, 84215, Note_on_c, 0, 76, 37
1, 84224, Note_on_c, 0, 76, 0
1, 84227, Note_on_c, 0, 88, 0
1, 84248, Note_on_c, 0, 54, 0
1, 84262, Note_on_c, 0, 90, 78
1, 84262, Note_on_c, 0, 78, 84
1, 84264, Note_on_c, 0, 64, 64
1, 84265, Note_on_c, 0, 59, 54
1, 84268, Note_on_c, 0, 53, 45
1, 84279, Control_c, 0, 64, 0
1, 84292, Note_on_c, 0, 90, 0
1, 84294, Note_on_c, 0, 78, 0
1, 84296, Note_on_c, 0, 91, 53
1, 84297, Note_on_c, 0, 79, 49
1, 84303, Note_on_c, 0, 89, 37
1, 84337, Control_c, 0, 64, 127
1, 84363, Note_on_c, 0, 79, 0
1, 84364, Note_on_c, 0, 91, 0
1, 84370, Note_on_c, 0, 89, 0
1, 84384, Note_on_c, 0, 91, 49
1, 84387, Note_on_c, 0, 79, 60
1, 84393, Note_on_c, 0, 89, 22
1, 84409, Note_on_c, 0, 64, 0
1, 84414, Note_on_c, 0, 59, 0
1, 84425, Note_on_c, 0, 53, 0
1, 84504, Control_c, 0, 64, 0
1, 84505, Note_on_c, 0, 43, 66
1, 84520, Control_c, 0, 64, 127
1, 84550, Note_on_c, 0, 91, 0
1, 84552, Note_on_c, 0, 89, 0
1, 84582, Note_on_c, 0, 79, 0
1, 84586, Note_on_c, 0, 43, 0
1, 84618, Note_on_c, 0, 43, 63
1, 84637, Note_on_c, 0, 43, 0
1, 84813, Note_on_c, 0, 72, 71
1, 84815, Note_on_c, 0, 63, 87
1, 84815, Note_on_c, 0, 67, 88
1, 84816, Note_on_c, 0, 57, 94
1, 84820, Control_c, 0, 64, 0
1, 84846, Control_c, 0, 64, 127
1, 84897, Note_on_c, 0, 72, 0
1, 84910, Note_on_c, 0, 67, 0
1, 84912, Note_on_c, 0, 63, 0
1, 84972, Note_on_c, 0, 74, 67
1, 84973, Note_on_c, 0, 68, 73
1, 84974, Note_on_c, 0, 71, 71
1, 84974, Note_on_c, 0, 65, 81
1, 84977, Note_on_c, 0, 59, 79
1, 84979, Control_c, 0, 64, 0
1, 85001, Control_c, 0, 64, 127
1, 85021, Note_on_c, 0, 57, 0
1, 85026, Note_on_c, 0, 59, 0
1, 85029, Note_on_c, 0, 74, 0
1, 85031, Note_on_c, 0, 65, 0
1, 85038, Note_on_c, 0, 68, 0
1, 85042, Note_on_c, 0, 71, 0
1, 85049, Note_on_c, 0, 74, 39
1, 85050, Note_on_c, 0, 68, 37
1, 85053, Note_on_c, 0, 59, 58
1, 85054, Note_on_c, 0, 65, 59
1, 85066, Note_on_c, 0, 74, 0
1, 85067, Note_on_c, 0, 65, 0
1, 85073, Note_on_c, 0, 68, 0
1, 85076, Note_on_c, 0, 59, 0
1, 85096, Note_on_c, 0, 58, 33
1, 85101, Control_c, 0, 64, 0
1, 85101, Note_on_c, 0, 59, 71
1, 85103, Note_on_c, 0, 58, 0
1, 85104, Note_on_c, 0, 75, 67
1, 85105, Note_on_c, 0, 67, 62
1, 85107, Note_on_c, 0, 72, 49
1, 85107, Note_on_c, 0, 60, 78
1, 85108, Note_on_c, 0, 59, 0
1, 85109, Note_on_c, 0, 69, 43
1, 85134, Note_on_c, 0, 75, 0
1, 85135, Note_on_c, 0, 69, 0
1, 85140, Note_on_c, 0, 72, 0
1, 85143, Note_on_c, 0, 67, 0
1, 85146, Note_on_c, 0, 60, 0
1, 85168, Note_on_c, 0, 75, 61
1, 85169, Note_on_c, 0, 58, 29
1, 85171, Note_on_c, 0, 67, 67
1, 85172, Note_on_c, 0, 60, 66
1, 85173, Control_c, 0, 64, 127
1, 85174, Note_on_c, 0, 69, 41
1, 85182, Note_on_c, 0, 69, 0
1, 85185, Note_on_c, 0, 58, 0
1, 85190, Note_on_c, 0, 67, 0
1, 85196, Note_on_c, 0, 75, 0
1, 85198, Note_on_c, 0, 60, 0
1, 85220, Note_on_c, 0, 77, 53
1, 85222, Control_c, 0, 64, 0
1, 85222, Note_on_c, 0, 68, 57
1, 85223, Note_on_c, 0, 62, 68
1, 85224, Note_on_c, 0, 71, 53
1, 85226, Note_on_c, 0, 74, 51
1, 85246, Control_c, 0, 64, 127
1, 85257, Note_on_c, 0, 77, 0
1, 85258, Note_on_c, 0, 68, 0
1, 85260, Note_on_c, 0, 74, 0
1, 85264, Note_on_c, 0, 62, 0
1, 85274, Note_on_c, 0, 71, 0
1, 85289, Note_on_c, 0, 77, 46
1, 85290, Note_on_c, 0, 68, 57
1, 85292, Note_on_c, 0, 62, 58
1, 85294, Note_on_c, 0, 71, 29
1, 85303, Note_on_c, 0, 77, 0
1, 85304, Note_on_c, 0, 68, 0
1, 85304, Note_on_c, 0, 71, 0
1, 85304, Note_on_c, 0, 69, 38
1, 85314, Note_on_c, 0, 69, 0
1, 85317, Note_on_c, 0, 62, 0
1, 85329, Control_c, 0, 64, 0
1, 85332, Note_on_c, 0, 69, 45
1, 85332, Note_on_c, 0, 79, 50
1, 85332, Note_on_c, 0, 63, 61
1, 85335, Note_on_c, 0, 72, 43
1, 85337, Note_on_c, 0, 75, 21
1, 85343, Note_on_c, 0, 69, 0
1, 85344, Note_on_c, 0, 72, 0
1, 85345, Note_on_c, 0, 75, 0
1, 85347, Note_on_c, 0, 79, 0
1, 85351, Note_on_c, 0, 63, 0
1, 85386, Control_c, 0, 64, 127
1, 85402, Note_on_c, 0, 79, 57
1, 85404, Note_on_c, 0, 75, 49
1, 85405, Note_on_c, 0, 69, 55
1, 85406, Note_on_c, 0, 72, 53
1, 85406, Note_on_c, 0, 63, 52
1, 85417, Note_on_c, 0, 69, 0
1, 85417, Note_on_c, 0, 79, 0
1, 85421, Note_on_c, 0, 72, 0
1, 85426, Note_on_c, 0, 75, 0
1, 85434, Control_c, 0, 64, 0
1, 85441, Note_on_c, 0, 63, 0
1, 85441, Note_on_c, 0, 78, 40
1, 85447, Note_on_c, 0, 62, 65
1, 85448, Note_on_c, 0, 78, 0
1, 85451, Note_on_c, 0, 77, 40
1, 85452, Note_on_c, 0, 71, 25
1, 85452, Note_on_c, 0, 68, 26
1, 85454, Note_on_c, 0, 74, 31
1, 85462, Control_c, 0, 64, 127
1, 85473, Note_on_c, 0, 62, 0
1, 85477, Note_on_c, 0, 68, 0
1, 85480, Note_on_c, 0, 77, 0
1, 85482, Note_on_c, 0, 71, 0
1, 85486, Note_on_c, 0, 74, 0
1, 85498, Control_c, 0, 64, 0
1, 85506, Control_c, 0, 64, 127
1, 85513, Note_on_c, 0, 77, 58
1, 85517, Note_on_c, 0, 62, 58
1, 85518, Note_on_c, 0, 68, 57
1, 85520, Note_on_c, 0, 71, 48
1, 85528, Note_on_c, 0, 71, 0
1, 85536, Note_on_c, 0, 62, 0
1, 85540, Note_on_c, 0, 77, 0
1, 85541, Note_on_c, 0, 68, 0
1, 85552, Control_c, 0, 64, 0
1, 85560, Note_on_c, 0, 75, 52
1, 85561, Note_on_c, 0, 60, 53
1, 85566, Note_on_c, 0, 67, 27
1, 85570, Control_c, 0, 64, 127
1, 85572, Note_on_c, 0, 60, 0
1, 85581, Note_on_c, 0, 67, 0
1, 85593, Note_on_c, 0, 75, 0
1, 85625, Note_on_c, 0, 75, 53
1, 85629, Note_on_c, 0, 67, 72
1, 85642, Note_on_c, 0, 75, 0
1, 85646, Note_on_c, 0, 67, 0
1, 85670, Note_on_c, 0, 72, 68
1, 85673, Note_on_c, 0, 65, 62
1, 85675, Control_c, 0, 64, 0
1, 85676, Note_on_c, 0, 44, 35
1, 85687, Note_on_c, 0, 44, 0
1, 85721, Control_c, 0, 64, 127
1, 85737, Note_on_c, 0, 54, 62
1, 85755, Note_on_c, 0, 54, 0
1, 85759, Note_on_c, 0, 65, 0
1, 85773, Note_on_c, 0, 72, 0
1, 85792, Note_on_c, 0, 60, 51
1, 85855, Note_on_c, 0, 77, 67
1, 85856, Note_on_c, 0, 84, 68
1, 85856, Note_on_c, 0, 65, 44
1, 85880, Note_on_c, 0, 65, 0
1, 85881, Note_on_c, 0, 84, 0
1, 85884, Note_on_c, 0, 77, 0
1, 85911, Note_on_c, 0, 84, 49
1, 85912, Note_on_c, 0, 77, 37
1, 85914, Note_on_c, 0, 72, 28
1, 85915, Note_on_c, 0, 65, 44
1, 85937, Note_on_c, 0, 60, 0
1, 85952, Note_on_c, 0, 72, 0
1, 85955, Note_on_c, 0, 77, 0
1, 85984, Note_on_c, 0, 60, 38
1, 85994, Note_on_c, 0, 65, 0
1, 86003, Note_on_c, 0, 60, 0
1, 86068, Note_on_c, 0, 50, 55
1, 86083, Note_on_c, 0, 84, 0
1, 86099, Note_on_c, 0, 50, 0
1, 86109, Note_on_c, 0, 44, 50
1, 86125, Note_on_c, 0, 44, 0
1, 86146, Control_c, 0, 64, 0
1, 86150, Note_on_c, 0, 43, 62
1, 86153, Note_on_c, 0, 87, 62
1, 86154, Note_on_c, 0, 75, 60
1, 86167, Note_on_c, 0, 43, 0
1, 86172, Control_c, 0, 64, 127
1, 86213, Note_on_c, 0, 87, 0
1, 86222, Note_on_c, 0, 75, 0
1, 86269, Note_on_c, 0, 86, 56
1, 86272, Note_on_c, 0, 74, 38
1, 86273, Note_on_c, 0, 64, 28
1, 86274, Note_on_c, 0, 59, 31
1, 86275, Note_on_c, 0, 53, 36
1, 86333, Note_on_c, 0, 53, 0
1, 86334, Note_on_c, 0, 59, 0
1, 86339, Note_on_c, 0, 64, 0
1, 86393, Note_on_c, 0, 64, 35
1, 86396, Note_on_c, 0, 59, 35
1, 86397, Note_on_c, 0, 53, 27
1, 86444, Note_on_c, 0, 59, 0
1, 86445, Note_on_c, 0, 53, 0
1, 86447, Note_on_c, 0, 64, 0
1, 86485, Note_on_c, 0, 86, 0
1, 86505, Note_on_c, 0, 74, 0
1, 86518, Note_on_c, 0, 64, 31
1, 86524, Note_on_c, 0, 59, 30
1, 86552, Note_on_c, 0, 59, 0
1, 86560, Note_on_c, 0, 64, 0
1, 86643, Note_on_c, 0, 76, 44
1, 86643, Note_on_c, 0, 72, 48
1, 86643, Note_on_c, 0, 67, 46
1, 86646, Note_on_c, 0, 62, 34
1, 86652, Control_c, 0, 64, 0
1, 86707, Note_on_c, 0, 56, 38
1, 86715, Note_on_c, 0, 62, 0
1, 86727, Note_on_c, 0, 56, 0
1, 86760, Control_c, 0, 64, 127
1, 86834, Note_on_c, 0, 36, 32
1, 86871, Note_on_c, 0, 36, 0
1, 86903, Note_on_c, 0, 36, 49
1, 86918, Note_on_c, 0, 36, 0
1, 86986, Note_on_c, 0, 67, 0
1, 87006, Note_on_c, 0, 72, 0
1, 87028, Note_on_c, 0, 76, 0
1, 87036, Note_on_c, 0, 67, 40
1, 87049, Note_on_c, 0, 67, 0
1, 87072, Note_on_c, 0, 72, 55
1, 87090, Note_on_c, 0, 72, 0
1, 87107, Note_on_c, 0, 76, 74
1, 87131, Note_on_c, 0, 76, 0
1, 87141, Note_on_c, 0, 77, 81
1, 87168, Note_on_c, 0, 77, 0
1, 87179, Note_on_c, 0, 77, 80
1, 87180, Note_on_c, 0, 61, 60
1, 87181, Note_on_c, 0, 66, 60
1, 87183, Note_on_c, 0, 55, 56
1, 87194, Control_c, 0, 64, 0
1, 87226, Control_c, 0, 64, 127
1, 87246, Note_on_c, 0, 66, 0
1, 87254, Note_on_c, 0, 55, 0
1, 87255, Note_on_c, 0, 65, 55
1, 87262, Note_on_c, 0, 61, 0
1, 87273, Note_on_c, 0, 65, 0
1, 87376, Note_on_c, 0, 36, 50
1, 87398, Note_on_c, 0, 36, 0
1, 87443, Note_on_c, 0, 36, 49
1, 87451, Note_on_c, 0, 36, 0
1, 87577, Note_on_c, 0, 66, 71
1, 87579, Note_on_c, 0, 61, 55
1, 87582, Note_on_c, 0, 55, 55
1, 87648, Note_on_c, 0, 55, 0
1, 87653, Note_on_c, 0, 66, 0
1, 87654, Note_on_c, 0, 77, 0
1, 87674, Note_on_c, 0, 61, 0
1, 87704, Note_on_c, 0, 60, 60
1, 87706, Note_on_c, 0, 54, 47
1, 87713, Control_c, 0, 64, 0
1, 87737, Control_c, 0, 64, 127
1, 87778, Note_on_c, 0, 74, 67
1, 87812, Note_on_c, 0, 74, 0
1, 87832, Note_on_c, 0, 60, 0
1, 87843, Note_on_c, 0, 74, 68
1, 87875, Note_on_c, 0, 74, 0
1, 87892, Note_on_c, 0, 74, 52
1, 87899, Note_on_c, 0, 70, 65
1, 87900, Note_on_c, 0, 73, 35
1, 87901, Note_on_c, 0, 65, 62
1, 87921, Note_on_c, 0, 73, 0
1, 87940, Note_on_c, 0, 74, 0
1, 87945, Note_on_c, 0, 65, 0
1, 87948, Note_on_c, 0, 70, 0
1, 87958, Note_on_c, 0, 74, 50
1, 87960, Note_on_c, 0, 70, 59
1, 87960, Note_on_c, 0, 65, 60
1, 87966, Note_on_c, 0, 60, 46
1, 87982, Note_on_c, 0, 60, 0
1, 88001, Note_on_c, 0, 54, 0
1, 88142, Note_on_c, 0, 74, 0
1, 88150, Note_on_c, 0, 65, 0
1, 88156, Note_on_c, 0, 70, 0
1, 88207, Note_on_c, 0, 75, 46
1, 88208, Note_on_c, 0, 67, 55
1, 88209, Note_on_c, 0, 63, 35
1, 88209, Note_on_c, 0, 53, 37
1, 88211, Note_on_c, 0, 59, 36
1, 88211, Note_on_c, 0, 71, 42
1, 88219, Note_on_c, 0, 73, 19
1, 88226, Control_c, 0, 64, 0
1, 88250, Control_c, 0, 64, 127
1, 88296, Note_on_c, 0, 59, 0
1, 88300, Note_on_c, 0, 75, 0
1, 88316, Note_on_c, 0, 53, 0
1, 88325, Note_on_c, 0, 75, 53
1, 88438, Note_on_c, 0, 36, 40
1, 88448, Note_on_c, 0, 36, 0
1, 88503, Note_on_c, 0, 63, 0
1, 88522, Note_on_c, 0, 63, 36
1, 88527, Note_on_c, 0, 75, 0
1, 88582, Note_on_c, 0, 73, 0
1, 88589, Note_on_c, 0, 71, 0
1, 88598, Note_on_c, 0, 75, 39
1, 88601, Note_on_c, 0, 67, 0
1, 88616, Note_on_c, 0, 75, 0
1, 88617, Note_on_c, 0, 63, 0
1, 88676, Note_on_c, 0, 62, 35
1, 88676, Note_on_c, 0, 72, 33
1, 88678, Note_on_c, 0, 65, 45
1, 88679, Note_on_c, 0, 48, 34
1, 88680, Note_on_c, 0, 58, 23
1, 88690, Control_c, 0, 64, 0
1, 88728, Control_c, 0, 64, 127
1, 88762, Note_on_c, 0, 58, 0
1, 88769, Note_on_c, 0, 55, 33
1, 88781, Note_on_c, 0, 62, 0
1, 88782, Note_on_c, 0, 65, 0
1, 88800, Marker_t, "Pause here before final  8 bars on C7 chord"
1, 88840, Note_on_c, 0, 58, 36
1, 88870, Note_on_c, 0, 72, 0
1, 88876, Marker_t, "Run begins on arpeggio - slowly and quietly  -  sustain pedal down"
1, 88904, Note_on_c, 0, 62, 40
1, 88963, Note_on_c, 0, 62, 0
1, 88971, Note_on_c, 0, 65, 40
1, 89026, Note_on_c, 0, 65, 0
1, 89027, Note_on_c, 0, 67, 58
1, 89065, Note_on_c, 0, 67, 0
1, 89072, Note_on_c, 0, 69, 59
1, 89076, Marker_t, "Run continues as F scale - with crescendo and accelerando"
1, 89077, Note_on_c, 0, 48, 0
1, 89080, Note_on_c, 0, 55, 0
1, 89096, Note_on_c, 0, 58, 0
1, 89097, Note_on_c, 0, 69, 0
1, 89114, Note_on_c, 0, 70, 59
1, 89139, Note_on_c, 0, 70, 0
1, 89156, Note_on_c, 0, 72, 47
1, 89183, Note_on_c, 0, 72, 0
1, 89196, Note_on_c, 0, 74, 51
1, 89221, Note_on_c, 0, 74, 0
1, 89239, Note_on_c, 0, 76, 43
1, 89257, Note_on_c, 0, 76, 0
1, 89273, Note_on_c, 0, 77, 54
1, 89305, Note_on_c, 0, 77, 0
1, 89313, Note_on_c, 0, 79, 52
1, 89342, Note_on_c, 0, 79, 0
1, 89350, Note_on_c, 0, 81, 65
1, 89375, Note_on_c, 0, 81, 0
1, 89384, Note_on_c, 0, 82, 63
1, 89400, Note_on_c, 0, 82, 0
1, 89414, Note_on_c, 0, 84, 76
1, 89435, Note_on_c, 0, 84, 0
1, 89445, Note_on_c, 0, 86, 71
1, 89474, Note_on_c, 0, 88, 78
1, 89475, Note_on_c, 0, 86, 0
1, 89489, Note_on_c, 0, 88, 0
1, 89504, Note_on_c, 0, 89, 80
1, 89523, Note_on_c, 0, 89, 0
1, 89532, Note_on_c, 0, 91, 71
1, 89565, Note_on_c, 0, 93, 77
1, 89567, Note_on_c, 0, 91, 0
1, 89585, Note_on_c, 0, 93, 0
1, 89598, Note_on_c, 0, 94, 62
1, 89611, Note_on_c, 0, 94, 0
1, 89628, Note_on_c, 0, 96, 63
1, 89655, Note_on_c, 0, 96, 0
1, 89664, Note_on_c, 0, 98, 56
1, 89696, Note_on_c, 0, 98, 0
1, 89699, Note_on_c, 0, 100, 59
1, 89730, Note_on_c, 0, 100, 0
1, 89736, Note_on_c, 0, 101, 57
1, 89760, Marker_t, "Then it slows - and finishes on target - top C  on piano"
1, 89767, Note_on_c, 0, 101, 0
1, 89776, Note_on_c, 0, 103, 57
1, 89809, Note_on_c, 0, 103, 0
1, 89817, Note_on_c, 0, 105, 58
1, 89845, Note_on_c, 0, 105, 0
1, 89859, Note_on_c, 0, 106, 39
1, 89886, Note_on_c, 0, 106, 0
1, 89900, Note_on_c, 0, 107, 51
1, 89932, Note_on_c, 0, 107, 0
1, 89946, Note_on_c, 0, 108, 51
1, 89969, Note_on_c, 0, 108, 0
1, 90000, Note_on_c, 0, 108, 44
1, 90032, Note_on_c, 0, 108, 0
1, 90060, Note_on_c, 0, 108, 35
1, 90092, Note_on_c, 0, 108, 0
1, 90119, Note_on_c, 0, 108, 36
1, 90123, Note_on_c, 0, 24, 30
1, 90124, Note_on_c, 0, 36, 32
1, 90274, Note_on_c, 0, 108, 0
1, 90374, Note_on_c, 0, 24, 0
1, 90396, Note_on_c, 0, 36, 0
1, 90764, Note_on_c, 0, 77, 45
1, 90771, Note_on_c, 0, 53, 20
1, 90815, Note_on_c, 0, 53, 0
1, 90816, Note_on_c, 0, 57, 48
1, 90817, Note_on_c, 0, 81, 64
1, 90826, Note_on_c, 0, 77, 0
1, 90860, Note_on_c, 0, 81, 0
1, 90863, Note_on_c, 0, 57, 0
1, 90869, Note_on_c, 0, 84, 64
1, 90869, Note_on_c, 0, 60, 57
1, 90909, Note_on_c, 0, 84, 0
1, 90917, Note_on_c, 0, 60, 0
1, 90924, Note_on_c, 0, 64, 49
1, 90926, Note_on_c, 0, 88, 67
1, 90951, Note_on_c, 0, 88, 0
1, 90973, Note_on_c, 0, 64, 0
1, 90996, Note_on_c, 0, 67, 47
1, 90997, Note_on_c, 0, 91, 62
1, 91006, Control_c, 0, 64, 0
1, 91022, Control_c, 0, 64, 127
1, 91074, Note_on_c, 0, 91, 0
1, 91079, Note_on_c, 0, 67, 0
1, 91267, Note_on_c, 0, 67, 30
1, 91269, Note_on_c, 0, 62, 32
1, 91270, Note_on_c, 0, 57, 27
1, 91270, Note_on_c, 0, 41, 34
1, 91270, Note_on_c, 0, 48, 26
1, 91277, Control_c, 0, 64, 0
1, 91305, Control_c, 0, 64, 127
1, 91317, Note_on_c, 0, 57, 0
1, 91340, Note_on_c, 0, 67, 0
1, 91346, Note_on_c, 0, 62, 0
1, 91378, Note_on_c, 0, 48, 0
1, 91385, Note_on_c, 0, 63, 42
1, 91387, Note_on_c, 0, 58, 27
1, 91389, Note_on_c, 0, 67, 33
1, 91391, Note_on_c, 0, 53, 33
1, 91398, Control_c, 0, 64, 0
1, 91460, Control_c, 0, 64, 127
1, 91545, Note_on_c, 0, 58, 0
1, 91554, Note_on_c, 0, 63, 0
1, 91555, Note_on_c, 0, 67, 0
1, 91599, Note_on_c, 0, 41, 0
1, 91621, Note_on_c, 0, 53, 0
1, 91634, Note_on_c, 0, 77, 78
1, 91721, Note_on_c, 0, 77, 0
1, 91971, Note_on_c, 0, 72, 43
1, 91977, Note_on_c, 0, 66, 23
1, 91977, Note_on_c, 0, 62, 28
1, 91978, Note_on_c, 0, 69, 40
1, 91983, Note_on_c, 0, 57, 30
1, 91995, Control_c, 0, 64, 0
1, 92031, Control_c, 0, 64, 127
1, 92102, Note_on_c, 0, 72, 0
1, 92237, Note_on_c, 0, 69, 0
1, 92240, Note_on_c, 0, 72, 69
1, 92254, Note_on_c, 0, 66, 0
1, 92304, Note_on_c, 0, 72, 0
1, 92305, Note_on_c, 0, 62, 0
1, 92310, Note_on_c, 0, 69, 64
1, 92346, Note_on_c, 0, 57, 0
1, 92375, Note_on_c, 0, 69, 0
1, 92382, Note_on_c, 0, 62, 42
1, 92444, Note_on_c, 0, 62, 0
1, 92468, Note_on_c, 0, 61, 44
1, 92472, Note_on_c, 0, 69, 43
1, 92476, Note_on_c, 0, 46, 32
1, 92496, Control_c, 0, 64, 0
1, 92539, Control_c, 0, 64, 127
1, 92558, Note_on_c, 0, 53, 32
1, 92596, Note_on_c, 0, 61, 0
1, 92609, Note_on_c, 0, 69, 0
1, 92655, Note_on_c, 0, 72, 57
1, 92656, Note_on_c, 0, 54, 63
1, 92662, Note_on_c, 0, 53, 0
1, 92748, Note_on_c, 0, 54, 0
1, 92762, Note_on_c, 0, 55, 56
1, 92765, Control_c, 0, 64, 0
1, 92816, Control_c, 0, 64, 127
1, 92854, Note_on_c, 0, 62, 37
1, 92865, Note_on_c, 0, 72, 0
1, 92945, Note_on_c, 0, 65, 52
1, 92964, Note_on_c, 0, 65, 0
1, 92975, Note_on_c, 0, 62, 0
1, 92977, Note_on_c, 0, 55, 0
1, 93008, Note_on_c, 0, 46, 0
1, 93041, Note_on_c, 0, 45, 43
1, 93043, Note_on_c, 0, 58, 36
1, 93045, Note_on_c, 0, 55, 37
1, 93046, Note_on_c, 0, 62, 38
1, 93056, Control_c, 0, 64, 0
1, 93100, Control_c, 0, 64, 127
1, 93141, Note_on_c, 0, 62, 0
1, 93142, Note_on_c, 0, 58, 0
1, 93278, Note_on_c, 0, 62, 64
1, 93319, Note_on_c, 0, 62, 0
1, 93327, Note_on_c, 0, 65, 67
1, 93360, Note_on_c, 0, 65, 0
1, 93373, Note_on_c, 0, 69, 76
1, 93376, Note_on_c, 0, 55, 0
1, 93379, Note_on_c, 0, 45, 0
1, 93398, Note_on_c, 0, 69, 0
1, 93430, Note_on_c, 0, 72, 65
1, 93432, Note_on_c, 0, 43, 46
1, 93437, Control_c, 0, 64, 0
1, 93475, Control_c, 0, 64, 127
1, 93482, Note_on_c, 0, 72, 0
1, 93492, Note_on_c, 0, 50, 37
1, 93539, Note_on_c, 0, 43, 0
1, 93540, Note_on_c, 0, 50, 0
1, 93549, Note_on_c, 0, 55, 46
1, 93600, Note_on_c, 0, 55, 0
1, 93602, Note_on_c, 0, 58, 39
1, 93666, Note_on_c, 0, 69, 38
1, 93667, Note_on_c, 0, 70, 34
1, 93667, Note_on_c, 0, 62, 34
1, 93668, Note_on_c, 0, 76, 40
1, 93682, Note_on_c, 0, 58, 0
1, 93701, Note_on_c, 0, 62, 0
1, 93719, Note_on_c, 0, 76, 0
1, 93733, Note_on_c, 0, 70, 0
1, 93736, Note_on_c, 0, 69, 0
1, 93742, Note_on_c, 0, 77, 62
1, 93743, Note_on_c, 0, 64, 47
1, 93754, Note_on_c, 0, 64, 0
1, 93772, Note_on_c, 0, 77, 0
1, 93827, Note_on_c, 0, 68, 35
1, 93828, Note_on_c, 0, 76, 39
1, 93832, Note_on_c, 0, 64, 40
1, 93833, Note_on_c, 0, 72, 43
1, 93834, Note_on_c, 0, 48, 44
1, 93842, Control_c, 0, 64, 0
1, 93842, Note_on_c, 0, 58, 14
1, 93883, Control_c, 0, 64, 127
1, 93921, Note_on_c, 0, 72, 0
1, 93922, Note_on_c, 0, 58, 0
1, 93924, Note_on_c, 0, 76, 0
1, 93927, Note_on_c, 0, 55, 31
1, 93943, Note_on_c, 0, 68, 0
1, 93947, Note_on_c, 0, 64, 0
1, 94014, Note_on_c, 0, 68, 30
1, 94016, Note_on_c, 0, 64, 34
1, 94016, Note_on_c, 0, 72, 30
1, 94019, Note_on_c, 0, 58, 18
1, 94027, Note_on_c, 0, 55, 0
1, 94030, Note_on_c, 0, 48, 0
1, 94040, Note_on_c, 0, 64, 0
1, 94058, Note_on_c, 0, 72, 0
1, 94063, Note_on_c, 0, 58, 0
1, 94063, Note_on_c, 0, 68, 0
1, 94268, Note_on_c, 0, 75, 38
1, 94269, Note_on_c, 0, 70, 32
1, 94269, Note_on_c, 0, 84, 49
1, 94274, Note_on_c, 0, 80, 35
1, 94314, Note_on_c, 0, 84, 0
1, 94324, Note_on_c, 0, 70, 0
1, 94330, Note_on_c, 0, 75, 0
1, 94336, Note_on_c, 0, 80, 0
1, 94386, Note_on_c, 0, 81, 52
1, 94387, Note_on_c, 0, 72, 35
1, 94387, Note_on_c, 0, 66, 37
1, 94393, Note_on_c, 0, 77, 34
1, 94434, Note_on_c, 0, 81, 0
1, 94437, Note_on_c, 0, 77, 0
1, 94451, Note_on_c, 0, 72, 0
1, 94465, Note_on_c, 0, 66, 0
1, 94604, Note_on_c, 0, 68, 36
1, 94605, Note_on_c, 0, 73, 32
1, 94605, Note_on_c, 0, 77, 44
1, 94606, Note_on_c, 0, 63, 29
1, 94624, Note_on_c, 0, 63, 0
1, 94636, Note_on_c, 0, 77, 0
1, 94640, Note_on_c, 0, 68, 0
1, 94655, Note_on_c, 0, 73, 0
1, 94682, Note_on_c, 0, 81, 52
1, 94685, Note_on_c, 0, 74, 42
1, 94686, Note_on_c, 0, 69, 36
1, 94687, Note_on_c, 0, 76, 45
1, 94691, Note_on_c, 0, 53, 29
1, 94694, Note_on_c, 0, 64, 19
1, 94696, Control_c, 0, 64, 0
1, 94726, Control_c, 0, 64, 127
1, 94743, Note_on_c, 0, 64, 0
1, 94763, Note_on_c, 0, 63, 36
1, 94772, Control_c, 0, 64, 0
1, 94777, Note_on_c, 0, 81, 0
1, 94778, Control_c, 0, 64, 127
1, 94785, Note_on_c, 0, 74, 0
1, 94805, Note_on_c, 0, 63, 0
1, 94807, Note_on_c, 0, 69, 0
1, 94835, Note_on_c, 0, 76, 0
1, 94846, Note_on_c, 0, 69, 55
1, 94848, Note_on_c, 0, 62, 22
1, 94856, Control_c, 0, 64, 0
1, 94868, Control_c, 0, 64, 127
1, 94881, Note_on_c, 0, 53, 0
1, 94885, Note_on_c, 0, 62, 0
1, 94911, Note_on_c, 0, 69, 0
1, 94924, Note_on_c, 0, 46, 43
1, 95004, Note_on_c, 0, 46, 0
1, 95025, Note_on_c, 0, 55, 37
1, 95025, Note_on_c, 0, 61, 20
1, 95025, Note_on_c, 0, 45, 31
1, 95026, Note_on_c, 0, 64, 30
1, 95035, Control_c, 0, 64, 0
1, 95069, Control_c, 0, 64, 127
1, 95122, Note_on_c, 0, 64, 0
1, 95126, Note_on_c, 0, 61, 0
1, 95197, Note_on_c, 0, 60, 48
1, 95214, Note_on_c, 0, 60, 0
1, 95225, Note_on_c, 0, 61, 50
1, 95237, Control_c, 0, 64, 0
1, 95244, Note_on_c, 0, 61, 0
1, 95262, Note_on_c, 0, 65, 58
1, 95284, Note_on_c, 0, 65, 0
1, 95284, Note_on_c, 0, 45, 0
1, 95299, Note_on_c, 0, 66, 57
1, 95302, Note_on_c, 0, 55, 0
1, 95315, Note_on_c, 0, 66, 0
1, 95344, Note_on_c, 0, 72, 57
1, 95376, Note_on_c, 0, 72, 0
1, 95385, Note_on_c, 0, 73, 39
1, 95402, Note_on_c, 0, 73, 0
1, 95434, Note_on_c, 0, 77, 46
1, 95475, Note_on_c, 0, 77, 0
1, 95476, Note_on_c, 0, 78, 29
1, 95497, Note_on_c, 0, 78, 0
1, 95517, Note_on_c, 0, 66, 31
1, 95520, Note_on_c, 0, 84, 52
1, 95521, Note_on_c, 0, 61, 30
1, 95527, Note_on_c, 0, 55, 31
1, 95543, Note_on_c, 0, 84, 0
1, 95579, Note_on_c, 0, 82, 45
1, 95601, Note_on_c, 0, 82, 0
1, 95635, Note_on_c, 0, 81, 43
1, 95657, Note_on_c, 0, 81, 0
1, 95674, Note_on_c, 0, 78, 49
1, 95700, Control_c, 0, 64, 127
1, 95702, Note_on_c, 0, 78, 0
1, 95705, Note_on_c, 0, 77, 55
1, 95727, Note_on_c, 0, 77, 0
1, 95745, Note_on_c, 0, 75, 50
1, 95756, Note_on_c, 0, 66, 0
1, 95766, Note_on_c, 0, 75, 0
1, 95787, Note_on_c, 0, 74, 51
1, 95813, Note_on_c, 0, 74, 0
1, 95827, Note_on_c, 0, 73, 40
1, 95856, Note_on_c, 0, 73, 0
1, 95858, Note_on_c, 0, 55, 0
1, 95873, Note_on_c, 0, 72, 45
1, 95874, Note_on_c, 0, 61, 0
1, 95905, Note_on_c, 0, 72, 0
1, 95922, Note_on_c, 0, 76, 39
1, 95961, Note_on_c, 0, 76, 0
1, 95974, Note_on_c, 0, 50, 33
1, 95974, Note_on_c, 0, 72, 34
1, 95987, Control_c, 0, 64, 0
1, 96027, Control_c, 0, 64, 127
1, 96037, Note_on_c, 0, 72, 0
1, 96039, Note_on_c, 0, 57, 29
1, 96107, Note_on_c, 0, 60, 37
1, 96108, Note_on_c, 0, 76, 36
1, 96115, Note_on_c, 0, 69, 31
1, 96170, Note_on_c, 0, 76, 0
1, 96177, Note_on_c, 0, 69, 0
1, 96180, Note_on_c, 0, 60, 0
1, 96217, Note_on_c, 0, 57, 0
1, 96218, Note_on_c, 0, 50, 0
1, 96265, Marker_t, "Single note glissando on the white notes on Dm7 - resolves to C (3rd of Ab7)"
1, 96274, Note_on_c, 0, 52, 37
1, 96281, Note_on_c, 0, 52, 0
1, 96289, Note_on_c, 0, 53, 50
1, 96296, Note_on_c, 0, 53, 0
1, 96303, Note_on_c, 0, 55, 49
1, 96310, Note_on_c, 0, 55, 0
1, 96319, Note_on_c, 0, 57, 51
1, 96322, Control_c, 0, 64, 0
1, 96326, Note_on_c, 0, 57, 0
1, 96334, Note_on_c, 0, 59, 46
1, 96341, Note_on_c, 0, 59, 0
1, 96349, Note_on_c, 0, 60, 44
1, 96356, Note_on_c, 0, 60, 0
1, 96359, Note_on_c, 0, 62, 48
1, 96368, Note_on_c, 0, 62, 0
1, 96373, Note_on_c, 0, 64, 43
1, 96381, Note_on_c, 0, 64, 0
1, 96388, Note_on_c, 0, 65, 49
1, 96395, Note_on_c, 0, 65, 0
1, 96399, Note_on_c, 0, 67, 45
1, 96406, Note_on_c, 0, 67, 0
1, 96413, Note_on_c, 0, 69, 37
1, 96420, Note_on_c, 0, 69, 0
1, 96424, Note_on_c, 0, 71, 39
1, 96432, Note_on_c, 0, 71, 0
1, 96440, Note_on_c, 0, 72, 42
1, 96447, Note_on_c, 0, 72, 0
1, 96453, Note_on_c, 0, 74, 24
1, 96462, Note_on_c, 0, 74, 0
1, 96465, Note_on_c, 0, 76, 36
1, 96474, Note_on_c, 0, 76, 0
1, 96480, Note_on_c, 0, 77, 33
1, 96488, Note_on_c, 0, 77, 0
1, 96493, Control_c, 0, 64, 127
1, 96494, Note_on_c, 0, 79, 31
1, 96502, Note_on_c, 0, 79, 0
1, 96512, Note_on_c, 0, 81, 45
1, 96519, Note_on_c, 0, 81, 0
1, 96527, Note_on_c, 0, 83, 30
1, 96535, Note_on_c, 0, 83, 0
1, 96543, Control_c, 0, 64, 0
1, 96543, Note_on_c, 0, 84, 55
1, 96546, Note_on_c, 0, 44, 36
1, 96546, Note_on_c, 0, 54, 39
1, 96558, Note_on_c, 0, 86, 22
1, 96569, Control_c, 0, 64, 127
1, 96590, Note_on_c, 0, 44, 0
1, 96594, Note_on_c, 0, 86, 0
1, 96598, Note_on_c, 0, 54, 0
1, 96631, Note_on_c, 0, 84, 0
1, 96637, Note_on_c, 0, 54, 42
1, 96720, Note_on_c, 0, 96, 61
1, 96722, Note_on_c, 0, 60, 33
1, 96723, Note_on_c, 0, 84, 40
1, 96822, Note_on_c, 0, 96, 0
1, 96877, Note_on_c, 0, 65, 36
1, 96937, Note_on_c, 0, 84, 0
1, 96944, Note_on_c, 0, 93, 69
1, 96993, Note_on_c, 0, 93, 0
1, 97020, Note_on_c, 0, 90, 62
1, 97073, Note_on_c, 0, 90, 0
1, 97116, Note_on_c, 0, 65, 0
1, 97120, Note_on_c, 0, 60, 0
1, 97130, Note_on_c, 0, 89, 78
1, 97171, Note_on_c, 0, 89, 0
1, 97175, Note_on_c, 0, 54, 0
1, 97194, Note_on_c, 0, 89, 67
1, 97195, Note_on_c, 0, 53, 32
1, 97196, Note_on_c, 0, 64, 32
1, 97200, Note_on_c, 0, 59, 39
1, 97201, Control_c, 0, 64, 0
1, 97225, Control_c, 0, 64, 127
1, 97246, Note_on_c, 0, 89, 0
1, 97247, Note_on_c, 0, 64, 0
1, 97250, Note_on_c, 0, 59, 0
1, 97262, Note_on_c, 0, 93, 81
1, 97263, Note_on_c, 0, 53, 0
1, 97263, Note_on_c, 0, 81, 69
1, 97298, Note_on_c, 0, 93, 0
1, 97315, Note_on_c, 0, 81, 0
1, 97337, Note_on_c, 0, 43, 56
1, 97467, Note_on_c, 0, 50, 43
1, 97581, Note_on_c, 0, 62, 34
1, 97584, Note_on_c, 0, 59, 40
1, 97584, Note_on_c, 0, 53, 34
1, 97585, Note_on_c, 0, 57, 30
1, 97730, Note_on_c, 0, 57, 0
1, 97741, Note_on_c, 0, 59, 0
1, 97750, Note_on_c, 0, 62, 0
1, 97756, Note_on_c, 0, 53, 0
1, 97764, Note_on_c, 0, 50, 0
1, 97764, Note_on_c, 0, 43, 0
1, 97784, Note_on_c, 0, 58, 90
1, 97785, Note_on_c, 0, 46, 73
1, 97858, Note_on_c, 0, 58, 0
1, 97866, Note_on_c, 0, 62, 70
1, 97866, Note_on_c, 0, 50, 81
1, 97877, Control_c, 0, 64, 0
1, 97891, Control_c, 0, 64, 127
1, 97932, Note_on_c, 0, 62, 0
1, 97945, Note_on_c, 0, 65, 77
1, 97950, Note_on_c, 0, 50, 0
1, 97951, Note_on_c, 0, 53, 53
1, 97957, Note_on_c, 0, 46, 0
1, 97968, Note_on_c, 0, 53, 0
1, 98017, Note_on_c, 0, 65, 0
1, 98200, Note_on_c, 0, 69, 77
1, 98202, Note_on_c, 0, 62, 80
1, 98203, Note_on_c, 0, 43, 81
1, 98203, Note_on_c, 0, 65, 69
1, 98204, Note_on_c, 0, 31, 84
1, 98204, Note_on_c, 0, 57, 77
1, 98210, Control_c, 0, 64, 0
1, 98240, Control_c, 0, 64, 127
1, 98247, Note_on_c, 0, 57, 0
1, 98253, Note_on_c, 0, 62, 0
1, 98254, Note_on_c, 0, 65, 0
1, 98257, Note_on_c, 0, 69, 0
1, 98319, Note_on_c, 0, 72, 82
1, 98390, Note_on_c, 0, 72, 0
1, 98416, Note_on_c, 0, 31, 0
1, 98433, Note_on_c, 0, 43, 0
1, 98515, Note_on_c, 0, 45, 38
1, 98516, Note_on_c, 0, 62, 58
1, 98518, Note_on_c, 0, 33, 34
1, 98518, Note_on_c, 0, 58, 21
1, 98527, Control_c, 0, 64, 0
1, 98547, Control_c, 0, 64, 127
1, 98566, Note_on_c, 0, 33, 0
1, 98576, Note_on_c, 0, 45, 0
1, 98576, Note_on_c, 0, 62, 0
1, 98577, Note_on_c, 0, 58, 0
1, 98607, Note_on_c, 0, 58, 49
1, 98610, Note_on_c, 0, 62, 45
1, 98610, Note_on_c, 0, 53, 42
1, 98611, Note_on_c, 0, 65, 43
1, 98612, Note_on_c, 0, 46, 37
1, 98613, Note_on_c, 0, 34, 38
1, 98615, Control_c, 0, 64, 0
1, 98643, Control_c, 0, 64, 127
1, 98663, Note_on_c, 0, 53, 0
1, 98679, Note_on_c, 0, 46, 0
1, 98682, Note_on_c, 0, 34, 0
1, 98683, Note_on_c, 0, 62, 0
1, 98687, Note_on_c, 0, 65, 0
1, 98689, Note_on_c, 0, 58, 0
1, 98730, Control_c, 0, 64, 0
1, 98730, Note_on_c, 0, 56, 35
1, 98730, Note_on_c, 0, 65, 32
1, 98731, Note_on_c, 0, 62, 39
1, 98732, Note_on_c, 0, 59, 44
1, 98732, Note_on_c, 0, 35, 43
1, 98733, Note_on_c, 0, 47, 28
1, 98762, Control_c, 0, 64, 127
1, 98781, Note_on_c, 0, 35, 0
1, 98787, Note_on_c, 0, 59, 0
1, 98790, Note_on_c, 0, 56, 0
1, 98797, Note_on_c, 0, 65, 0
1, 98799, Note_on_c, 0, 62, 0
1, 98800, Note_on_c, 0, 47, 0
1, 98877, Note_on_c, 0, 65, 36
1, 98880, Note_on_c, 0, 58, 36
1, 98881, Note_on_c, 0, 62, 36
1, 98883, Note_on_c, 0, 48, 35
1, 98884, Note_on_c, 0, 53, 25
1, 98886, Note_on_c, 0, 36, 31
1, 98888, Control_c, 0, 64, 0
1, 98944, Control_c, 0, 64, 127
1, 99026, Note_on_c, 0, 53, 0
1, 99066, Note_on_c, 0, 65, 0
1, 99069, Note_on_c, 0, 62, 0
1, 99081, Note_on_c, 0, 58, 0
1, 99126, Note_on_c, 0, 65, 48
1, 99240, Note_on_c, 0, 65, 0
1, 99322, Note_on_c, 0, 65, 40
1, 99411, Note_on_c, 0, 48, 0
1, 99431, Note_on_c, 0, 36, 0
1, 99748, Note_on_c, 0, 24, 34
1, 99749, Note_on_c, 0, 65, 0
1, 99750, Note_on_c, 0, 62, 41
1, 99796, Note_on_c, 0, 24, 0
1, 99995, Note_on_c, 0, 62, 0
1, 100230, Note_on_c, 0, 65, 47
1, 100234, Note_on_c, 0, 41, 34
1, 100236, Note_on_c, 0, 29, 30
1, 100251, Control_c, 0, 64, 0
1, 100286, Control_c, 0, 64, 127
1, 100334, Note_on_c, 0, 29, 0
1, 100344, Note_on_c, 0, 65, 0
1, 100356, Note_on_c, 0, 41, 0
1, 100580, Marker_t, "Tag ending - takes the opening phrase - an arpeggio on Fmaj9 - "
1, 100620, Note_on_c, 0, 53, 40
1, 100624, Note_on_c, 0, 77, 39
1, 100687, Note_on_c, 0, 53, 0
1, 100688, Note_on_c, 0, 77, 0
1, 100701, Note_on_c, 0, 81, 54
1, 100702, Note_on_c, 0, 57, 37
1, 100758, Note_on_c, 0, 57, 0
1, 100759, Note_on_c, 0, 81, 0
1, 100772, Note_on_c, 0, 60, 43
1, 100772, Note_on_c, 0, 84, 51
1, 100827, Note_on_c, 0, 84, 0
1, 100835, Note_on_c, 0, 60, 0
1, 100843, Note_on_c, 0, 64, 37
1, 100844, Note_on_c, 0, 88, 57
1, 100862, Note_on_c, 0, 88, 0
1, 100864, Note_on_c, 0, 64, 0
1, 100932, Note_on_c, 0, 67, 39
1, 100936, Note_on_c, 0, 91, 62
1, 100970, Note_on_c, 0, 67, 0
1, 101014, Note_on_c, 0, 91, 0
1, 101049, Note_on_c, 0, 48, 49
1, 101132, Note_on_c, 0, 48, 0
1, 101160, Note_on_c, 0, 48, 41
1, 101237, Note_on_c, 0, 48, 0
1, 101275, Note_on_c, 0, 48, 52
1, 101310, Marker_t, "- alternates with chord arpeggios on the dominant - C7sus"
1, 101357, Note_on_c, 0, 70, 59
1, 101359, Note_on_c, 0, 62, 50
1, 101359, Note_on_c, 0, 65, 50
1, 101363, Note_on_c, 0, 58, 33
1, 101365, Control_c, 0, 64, 0
1, 101375, Control_c, 0, 64, 127
1, 101381, Note_on_c, 0, 65, 0
1, 101381, Note_on_c, 0, 62, 0
1, 101399, Note_on_c, 0, 70, 0
1, 101402, Note_on_c, 0, 48, 0
1, 101404, Note_on_c, 0, 58, 0
1, 101438, Note_on_c, 0, 74, 69
1, 101439, Note_on_c, 0, 65, 66
1, 101441, Note_on_c, 0, 70, 61
1, 101443, Note_on_c, 0, 58, 34
1, 101455, Note_on_c, 0, 65, 0
1, 101460, Note_on_c, 0, 70, 0
1, 101463, Note_on_c, 0, 74, 0
1, 101508, Note_on_c, 0, 77, 66
1, 101509, Note_on_c, 0, 58, 0
1, 101509, Note_on_c, 0, 62, 37
1, 101531, Note_on_c, 0, 77, 0
1, 101557, Note_on_c, 0, 62, 0
1, 101575, Note_on_c, 0, 81, 60
1, 101575, Note_on_c, 0, 70, 61
1, 101576, Note_on_c, 0, 74, 62
1, 101578, Note_on_c, 0, 80, 23
1, 101585, Note_on_c, 0, 65, 34
1, 101587, Note_on_c, 0, 64, 24
1, 101588, Note_on_c, 0, 70, 0
1, 101590, Note_on_c, 0, 74, 0
1, 101591, Note_on_c, 0, 80, 0
1, 101595, Note_on_c, 0, 64, 0
1, 101598, Note_on_c, 0, 81, 0
1, 101651, Note_on_c, 0, 69, 49
1, 101657, Note_on_c, 0, 84, 66
1, 101659, Note_on_c, 0, 77, 50
1, 101659, Note_on_c, 0, 74, 53
1, 101660, Note_on_c, 0, 69, 0
1, 101661, Note_on_c, 0, 81, 44
1, 101664, Note_on_c, 0, 65, 0
1, 101741, Note_on_c, 0, 48, 57
1, 101748, Control_c, 0, 64, 0
1, 101752, Control_c, 0, 64, 127
1, 101806, Note_on_c, 0, 48, 0
1, 101808, Note_on_c, 0, 84, 0
1, 101824, Note_on_c, 0, 81, 0
1, 101831, Note_on_c, 0, 77, 0
1, 101833, Note_on_c, 0, 48, 68
1, 101837, Note_on_c, 0, 74, 0
1, 101895, Note_on_c, 0, 48, 0
1, 101925, Note_on_c, 0, 48, 53
1, 102006, Note_on_c, 0, 64, 57
1, 102007, Note_on_c, 0, 76, 49
1, 102008, Note_on_c, 0, 57, 54
1, 102010, Note_on_c, 0, 69, 48
1, 102012, Note_on_c, 0, 72, 36
1, 102013, Control_c, 0, 64, 0
1, 102023, Control_c, 0, 64, 127
1, 102024, Note_on_c, 0, 64, 0
1, 102030, Note_on_c, 0, 69, 0
1, 102030, Note_on_c, 0, 72, 0
1, 102037, Note_on_c, 0, 76, 0
1, 102089, Note_on_c, 0, 79, 62
1, 102090, Note_on_c, 0, 67, 59
1, 102091, Note_on_c, 0, 72, 57
1, 102091, Note_on_c, 0, 76, 49
1, 102092, Note_on_c, 0, 57, 0
1, 102092, Note_on_c, 0, 60, 58
1, 102095, Note_on_c, 0, 48, 0
1, 102104, Note_on_c, 0, 77, 20
1, 102109, Note_on_c, 0, 67, 0
1, 102116, Note_on_c, 0, 72, 0
1, 102119, Note_on_c, 0, 79, 0
1, 102119, Note_on_c, 0, 77, 0
1, 102122, Note_on_c, 0, 76, 0
1, 102161, Note_on_c, 0, 60, 0
1, 102167, Note_on_c, 0, 81, 67
1, 102168, Note_on_c, 0, 69, 55
1, 102169, Note_on_c, 0, 77, 52
1, 102169, Note_on_c, 0, 64, 55
1, 102170, Note_on_c, 0, 74, 55
1, 102182, Note_on_c, 0, 69, 0
1, 102187, Note_on_c, 0, 74, 0
1, 102192, Note_on_c, 0, 77, 0
1, 102194, Note_on_c, 0, 81, 0
1, 102248, Note_on_c, 0, 84, 60
1, 102250, Note_on_c, 0, 72, 46
1, 102253, Note_on_c, 0, 78, 25
1, 102256, Note_on_c, 0, 64, 0
1, 102256, Note_on_c, 0, 67, 44
1, 102262, Note_on_c, 0, 78, 0
1, 102266, Note_on_c, 0, 72, 0
1, 102276, Note_on_c, 0, 84, 0
1, 102323, Note_on_c, 0, 67, 0
1, 102337, Note_on_c, 0, 88, 59
1, 102339, Note_on_c, 0, 76, 42
1, 102339, Note_on_c, 0, 81, 49
1, 102342, Note_on_c, 0, 84, 45
1, 102427, Note_on_c, 0, 48, 44
1, 102445, Note_on_c, 0, 88, 0
1, 102453, Note_on_c, 0, 84, 0
1, 102467, Note_on_c, 0, 81, 0
1, 102485, Note_on_c, 0, 48, 0
1, 102493, Note_on_c, 0, 76, 0
1, 102516, Note_on_c, 0, 48, 62
1, 102598, Control_c, 0, 64, 0
1, 102599, Note_on_c, 0, 77, 62
1, 102602, Note_on_c, 0, 74, 62
1, 102602, Note_on_c, 0, 70, 68
1, 102603, Note_on_c, 0, 58, 50
1, 102606, Note_on_c, 0, 65, 61
1, 102621, Control_c, 0, 64, 127
1, 102631, Note_on_c, 0, 65, 0
1, 102640, Note_on_c, 0, 74, 0
1, 102641, Note_on_c, 0, 70, 0
1, 102649, Note_on_c, 0, 77, 0
1, 102695, Note_on_c, 0, 62, 57
1, 102731, Marker_t, "All over a low C pedal tone"
1, 102772, Note_on_c, 0, 62, 0
1, 102786, Note_on_c, 0, 81, 49
1, 102790, Note_on_c, 0, 77, 51
1, 102793, Note_on_c, 0, 62, 37
1, 102794, Note_on_c, 0, 74, 45
1, 102797, Note_on_c, 0, 69, 49
1, 102808, Note_on_c, 0, 58, 0
1, 102827, Note_on_c, 0, 69, 0
1, 102835, Note_on_c, 0, 74, 0
1, 102842, Note_on_c, 0, 77, 0
1, 102844, Note_on_c, 0, 81, 0
1, 102892, Note_on_c, 0, 86, 67
1, 102894, Note_on_c, 0, 74, 40
1, 102897, Note_on_c, 0, 62, 0
1, 102898, Note_on_c, 0, 58, 25
1, 102922, Note_on_c, 0, 74, 0
1, 102929, Note_on_c, 0, 86, 0
1, 102991, Note_on_c, 0, 89, 36
1, 102991, Note_on_c, 0, 62, 38
1, 102996, Note_on_c, 0, 77, 32
1, 102998, Note_on_c, 0, 84, 32
1, 103017, Note_on_c, 0, 58, 0
1, 103022, Note_on_c, 0, 77, 0
1, 103025, Note_on_c, 0, 84, 0
1, 103028, Note_on_c, 0, 89, 0
1, 103093, Note_on_c, 0, 93, 56
1, 103098, Note_on_c, 0, 81, 30
1, 103102, Note_on_c, 0, 58, 18
1, 103120, Note_on_c, 0, 58, 0
1, 103132, Note_on_c, 0, 93, 0
1, 103137, Note_on_c, 0, 48, 0
1, 103159, Note_on_c, 0, 81, 0
1, 103168, Note_on_c, 0, 62, 0
1, 103188, Note_on_c, 0, 48, 44
1, 103263, Note_on_c, 0, 48, 0
1, 103291, Note_on_c, 0, 48, 39
1, 103392, Note_on_c, 0, 76, 46
1, 103399, Note_on_c, 0, 69, 38
1, 103400, Note_on_c, 0, 60, 25
1, 103401, Note_on_c, 0, 72, 28
1, 103403, Note_on_c, 0, 57, 25
1, 103405, Control_c, 0, 64, 0
1, 103406, Note_on_c, 0, 64, 32
1, 103433, Control_c, 0, 64, 127
1, 103460, Note_on_c, 0, 48, 0
1, 103483, Note_on_c, 0, 64, 0
1, 103497, Note_on_c, 0, 48, 30
1, 103500, Note_on_c, 0, 69, 0
1, 103504, Note_on_c, 0, 72, 0
1, 103510, Note_on_c, 0, 76, 0
1, 103531, Note_on_c, 0, 60, 0
1, 103539, Note_on_c, 0, 57, 0
1, 103596, Note_on_c, 0, 81, 49
1, 103598, Note_on_c, 0, 57, 34
1, 103601, Note_on_c, 0, 76, 34
1, 103602, Note_on_c, 0, 72, 28
1, 103604, Note_on_c, 0, 69, 33
1, 103606, Note_on_c, 0, 60, 26
1, 103646, Note_on_c, 0, 48, 0
1, 103689, Note_on_c, 0, 69, 0
1, 103694, Note_on_c, 0, 48, 27
1, 103702, Note_on_c, 0, 72, 0
1, 103711, Note_on_c, 0, 76, 0
1, 103713, Note_on_c, 0, 81, 0
1, 103713, Note_on_c, 0, 60, 0
1, 103729, Note_on_c, 0, 57, 0
1, 103800, Note_on_c, 0, 84, 46
1, 103801, Note_on_c, 0, 57, 32
1, 103805, Note_on_c, 0, 79, 28
1, 103805, Note_on_c, 0, 72, 32
1, 103813, Note_on_c, 0, 60, 18
1, 103843, Note_on_c, 0, 72, 0
1, 103854, Note_on_c, 0, 79, 0
1, 103860, Note_on_c, 0, 48, 0
1, 103873, Note_on_c, 0, 84, 0
1, 103909, Note_on_c, 0, 48, 24
1, 103912, Note_on_c, 0, 60, 0
1, 103939, Note_on_c, 0, 57, 0
1, 104010, Note_on_c, 0, 91, 41
1, 104019, Note_on_c, 0, 86, 52
1, 104024, Note_on_c, 0, 79, 36
1, 104025, Note_on_c, 0, 57, 24
1, 104027, Note_on_c, 0, 60, 20
1, 104075, Note_on_c, 0, 91, 0
1, 104084, Note_on_c, 0, 48, 0
1, 104092, Note_on_c, 0, 86, 0
1, 104121, Note_on_c, 0, 79, 0
1, 104130, Note_on_c, 0, 48, 31
1, 104146, Note_on_c, 0, 57, 0
1, 104153, Note_on_c, 0, 60, 0
1, 104241, Note_on_c, 0, 81, 54
1, 104245, Note_on_c, 0, 58, 28
1, 104248, Note_on_c, 0, 77, 52
1, 104251, Note_on_c, 0, 62, 49
1, 104252, Note_on_c, 0, 74, 57
1, 104260, Note_on_c, 0, 69, 40
1, 104265, Control_c, 0, 64, 0
1, 104299, Control_c, 0, 64, 127
1, 104323, Note_on_c, 0, 58, 0
1, 104337, Note_on_c, 0, 48, 0
1, 104351, Note_on_c, 0, 62, 0
1, 104368, Note_on_c, 0, 48, 36
1, 104379, Note_on_c, 0, 69, 0
1, 104404, Note_on_c, 0, 74, 0
1, 104413, Note_on_c, 0, 77, 0
1, 104420, Note_on_c, 0, 81, 0
1, 104489, Note_on_c, 0, 86, 38
1, 104495, Note_on_c, 0, 62, 41
1, 104496, Note_on_c, 0, 79, 42
1, 104498, Note_on_c, 0, 58, 20
1, 104499, Note_on_c, 0, 74, 39
1, 104553, Note_on_c, 0, 58, 0
1, 104567, Note_on_c, 0, 48, 0
1, 104584, Note_on_c, 0, 62, 0
1, 104607, Note_on_c, 0, 48, 33
1, 104612, Note_on_c, 0, 74, 0
1, 104633, Note_on_c, 0, 79, 0
1, 104640, Note_on_c, 0, 86, 0
1, 104733, Note_on_c, 0, 89, 37
1, 104739, Note_on_c, 0, 86, 40
1, 104740, Note_on_c, 0, 82, 37
1, 104743, Note_on_c, 0, 77, 47
1, 104743, Note_on_c, 0, 62, 30
1, 104744, Note_on_c, 0, 58, 18
1, 104779, Note_on_c, 0, 58, 0
1, 104799, Note_on_c, 0, 48, 0
1, 104869, Note_on_c, 0, 48, 44
1, 104870, Note_on_c, 0, 82, 0
1, 104872, Note_on_c, 0, 77, 0
1, 104885, Note_on_c, 0, 86, 0
1, 104895, Note_on_c, 0, 89, 0
1, 104901, Note_on_c, 0, 62, 0
1, 105021, Note_on_c, 0, 93, 44
1, 105024, Note_on_c, 0, 86, 44
1, 105025, Note_on_c, 0, 81, 36
1, 105028, Note_on_c, 0, 58, 18
1, 105028, Note_on_c, 0, 62, 24
1, 105067, Note_on_c, 0, 58, 0
1, 105084, Note_on_c, 0, 48, 0
1, 105170, Note_on_c, 0, 62, 0
1, 105183, Note_on_c, 0, 48, 31
1, 105196, Note_on_c, 0, 81, 0
1, 105200, Note_on_c, 0, 86, 0
1, 105252, Note_on_c, 0, 93, 0
1, 105286, Note_on_c, 0, 48, 0
1, 105914, Note_on_c, 0, 98, 36
1, 105917, Note_on_c, 0, 41, 29
1, 105918, Note_on_c, 0, 86, 33
1, 105919, Note_on_c, 0, 29, 28
1, 105919, Note_on_c, 0, 93, 49
1, 105940, Control_c, 0, 64, 0
1, 105978, Control_c, 0, 64, 127
1, 106324, Note_on_c, 0, 93, 0
1, 106329, Note_on_c, 0, 86, 0
1, 106330, Note_on_c, 0, 98, 0
1, 106349, Note_on_c, 0, 29, 0
1, 106355, Note_on_c, 0, 41, 0
1, 106626, Control_c, 0, 64, 0
1, 106626, End_track
0, 0, End_of_file
