0, 0, Header, 1, 4, 384
1, 0, Start_track
1, 0, Title_t, "I Love You Porgy"
1, 0, Text_t, "Unedited solo piano\012"
1, 0, Text_t, "dougmck@pipeline.com.au              \012"
1, 0, System_exclusive, 5, 126, 127, 9, 1, 247
1, 0, System_exclusive, 8, 67, 115, 1, 17, 15, 89, 0, 247
1, 0, Time_signature, 4, 2, 24, 8
1, 0, Key_signature, -1, "major"
1, 0, Tempo, 500000
1, 0, Marker_t, "Unedited solo piano"
1, 4368, Marker_t, "Deliberate minor 2nd dissonance on the anacrucis"
1, 10892, Marker_t, "Diatonic 4thy voicings follow melody"
1, 28846, Marker_t, "Play glissando with RH  Index and 5th finger  curled over  on notes about a 4th apart  - "
1, 29290, Marker_t, "so that fingernails play keys. Hand needs to lie over and  to the right, so that fingers trail"
1, 29696, Marker_t, "both decrease in volume and in speed as you ascend"
1, 30512, Marker_t, "Have strong target to finish on - here a D - the root of the D7 chord"
1, 92160, Marker_t, "Change briefly to 'music-box' style for contrast"
1, 93128, Marker_t, "Pedal a C through all of this - even if it is quite dissonant"
1, 127244, Marker_t, "Dissonant voicing  - LH doubles melody below - RH plays all the rest"
1, 127804, Marker_t, "Same voicing follows the melody down"
1, 136818, Marker_t, "On G7(#11) an A triad is outlined with repeated notes"
1, 140236, Marker_t, "Final phrase of melody is played 'gospel style'"
1, 150528, Marker_t, "In tempo"
1, 156144, Marker_t, "A common idiom - top note of a phrase is briefly 'tremolo-ed' as octaves"
1, 163420, Marker_t, "Again that A triad over a G7(#11)"
1, 177554, Marker_t, "Poorly executed ascending C altered scale on C7 !!"
1, 211494, Marker_t, "Again a C pedal tone under altered dominant chords moving around 5th cycle"
1, 268032, Marker_t, "The final tag - same as first phrase - pedal held down  to hold final bass notes"
1, 268032, End_track
2, 0, Start_track
2, 0, Title_t, "Track 1"
2, 0, Control_c, 0, 7, 101
2, 0, Control_c, 0, 10, 64
2, 0, End_track
3, 0, Start_track
3, 0, Title_t, "dougmck@pipeline.com.au"
3, 0, Control_c, 0, 64, 127
3, 0, Note_on_c, 0, 48, 32
3, 136, Note_on_c, 0, 58, 28
3, 152, Note_on_c, 0, 62, 33
3, 228, Note_on_c, 0, 65, 40
3, 340, Note_on_c, 0, 72, 36
3, 396, Control_c, 0, 64, 0
3, 480, Control_c, 0, 64, 127
3, 2372, Note_on_c, 0, 62, 0
3, 2404, Note_on_c, 0, 65, 0
3, 2528, Note_on_c, 0, 72, 0
3, 2584, Note_on_c, 0, 48, 0
3, 2616, Note_on_c, 0, 58, 0
3, 4468, Note_on_c, 0, 77, 54
3, 4472, Note_on_c, 0, 66, 33
3, 4708, Note_on_c, 0, 77, 0
3, 4736, Note_on_c, 0, 66, 0
3, 4744, Note_on_c, 0, 81, 67
3, 4752, Note_on_c, 0, 70, 38
3, 5044, Note_on_c, 0, 81, 0
3, 5048, Note_on_c, 0, 70, 0
3, 5080, Note_on_c, 0, 84, 74
3, 5088, Note_on_c, 0, 73, 35
3, 5416, Note_on_c, 0, 84, 0
3, 5680, Note_on_c, 0, 73, 0
3, 5716, Note_on_c, 0, 88, 61
3, 5728, Note_on_c, 0, 77, 36
3, 6604, Note_on_c, 0, 88, 0
3, 6604, Note_on_c, 0, 91, 58
3, 6612, Note_on_c, 0, 80, 37
3, 6636, Note_on_c, 0, 77, 0
3, 7252, Note_on_c, 0, 80, 0
3, 7356, Note_on_c, 0, 91, 0
3, 8680, Note_on_c, 0, 41, 45
3, 8772, Note_on_c, 0, 41, 0
3, 9064, Note_on_c, 0, 51, 29
3, 9164, Note_on_c, 0, 57, 47
3, 9180, Note_on_c, 0, 62, 49
3, 9232, Note_on_c, 0, 66, 37
3, 9284, Note_on_c, 0, 69, 46
3, 9340, Note_on_c, 0, 74, 35
3, 10024, Note_on_c, 0, 62, 0
3, 10072, Note_on_c, 0, 69, 0
3, 10104, Note_on_c, 0, 66, 0
3, 10200, Note_on_c, 0, 74, 0
3, 10208, Note_on_c, 0, 57, 0
3, 10244, Note_on_c, 0, 51, 0
3, 11004, Note_on_c, 0, 89, 82
3, 11004, Note_on_c, 0, 79, 77
3, 11008, Note_on_c, 0, 84, 72
3, 11012, Note_on_c, 0, 74, 44
3, 11164, Note_on_c, 0, 89, 0
3, 11180, Note_on_c, 0, 84, 0
3, 11220, Note_on_c, 0, 79, 0
3, 11304, Note_on_c, 0, 74, 0
3, 11388, Note_on_c, 0, 84, 50
3, 11400, Note_on_c, 0, 79, 57
3, 11404, Note_on_c, 0, 74, 27
3, 11416, Note_on_c, 0, 69, 47
3, 11500, Note_on_c, 0, 84, 0
3, 11504, Note_on_c, 0, 79, 0
3, 11560, Note_on_c, 0, 74, 0
3, 11600, Note_on_c, 0, 69, 0
3, 11764, Note_on_c, 0, 72, 38
3, 11768, Note_on_c, 0, 77, 39
3, 11768, Note_on_c, 0, 81, 43
3, 11800, Note_on_c, 0, 65, 25
3, 11852, Note_on_c, 0, 65, 0
3, 11936, Note_on_c, 0, 72, 0
3, 11996, Note_on_c, 0, 77, 0
3, 12012, Note_on_c, 0, 81, 0
3, 12168, Control_c, 0, 64, 0
3, 12172, Note_on_c, 0, 81, 39
3, 12176, Note_on_c, 0, 74, 29
3, 12176, Note_on_c, 0, 69, 35
3, 12188, Note_on_c, 0, 46, 33
3, 12200, Note_on_c, 0, 77, 25
3, 12284, Control_c, 0, 64, 127
3, 12312, Note_on_c, 0, 69, 0
3, 12344, Note_on_c, 0, 74, 0
3, 12360, Note_on_c, 0, 77, 0
3, 12376, Note_on_c, 0, 81, 0
3, 12504, Note_on_c, 0, 84, 64
3, 12508, Note_on_c, 0, 53, 32
3, 12524, Note_on_c, 0, 46, 0
3, 12540, Note_on_c, 0, 53, 0
3, 12756, Note_on_c, 0, 84, 0
3, 12868, Note_on_c, 0, 81, 45
3, 12884, Note_on_c, 0, 77, 37
3, 12888, Note_on_c, 0, 65, 43
3, 12900, Note_on_c, 0, 72, 19
3, 12920, Note_on_c, 0, 62, 25
3, 12956, Note_on_c, 0, 60, 24
3, 13124, Note_on_c, 0, 81, 0
3, 13156, Note_on_c, 0, 77, 0
3, 13220, Note_on_c, 0, 72, 0
3, 13412, Note_on_c, 0, 57, 42
3, 13764, Note_on_c, 0, 65, 0
3, 13816, Note_on_c, 0, 60, 0
3, 13928, Note_on_c, 0, 62, 0
3, 14004, Note_on_c, 0, 57, 0
3, 14292, Note_on_c, 0, 57, 57
3, 14788, Note_on_c, 0, 62, 27
3, 14792, Note_on_c, 0, 70, 33
3, 14796, Note_on_c, 0, 65, 39
3, 14968, Note_on_c, 0, 60, 1
3, 15028, Note_on_c, 0, 70, 0
3, 15044, Note_on_c, 0, 65, 0
3, 15044, Note_on_c, 0, 57, 0
3, 15092, Note_on_c, 0, 62, 0
3, 15144, Note_on_c, 0, 60, 0
3, 15236, Note_on_c, 0, 62, 74
3, 15240, Note_on_c, 0, 57, 53
3, 15536, Note_on_c, 0, 57, 0
3, 15552, Note_on_c, 0, 62, 0
3, 15620, Note_on_c, 0, 62, 65
3, 15632, Note_on_c, 0, 65, 71
3, 15888, Note_on_c, 0, 62, 0
3, 15924, Note_on_c, 0, 65, 0
3, 15932, Note_on_c, 0, 62, 40
3, 15948, Note_on_c, 0, 69, 71
3, 15952, Note_on_c, 0, 57, 62
3, 15952, Note_on_c, 0, 65, 28
3, 16016, Note_on_c, 0, 57, 0
3, 16120, Note_on_c, 0, 69, 0
3, 16188, Note_on_c, 0, 65, 0
3, 16260, Note_on_c, 0, 62, 0
3, 16356, Note_on_c, 0, 62, 53
3, 16356, Note_on_c, 0, 72, 60
3, 16364, Control_c, 0, 64, 0
3, 16364, Note_on_c, 0, 65, 58
3, 16368, Note_on_c, 0, 43, 55
3, 16376, Note_on_c, 0, 69, 51
3, 16444, Note_on_c, 0, 43, 0
3, 16464, Control_c, 0, 64, 127
3, 16544, Note_on_c, 0, 62, 0
3, 16596, Note_on_c, 0, 65, 0
3, 16620, Note_on_c, 0, 69, 0
3, 16636, Note_on_c, 0, 72, 0
3, 17800, Note_on_c, 0, 76, 36
3, 18016, Note_on_c, 0, 76, 0
3, 18196, Note_on_c, 0, 76, 30
3, 18208, Note_on_c, 0, 70, 39
3, 18212, Control_c, 0, 64, 0
3, 18216, Note_on_c, 0, 65, 32
3, 18220, Note_on_c, 0, 62, 24
3, 18252, Note_on_c, 0, 58, 27
3, 18288, Control_c, 0, 64, 127
3, 18500, Note_on_c, 0, 76, 0
3, 18652, Note_on_c, 0, 62, 0
3, 18708, Note_on_c, 0, 58, 0
3, 18720, Note_on_c, 0, 76, 29
3, 18900, Note_on_c, 0, 65, 0
3, 18932, Note_on_c, 0, 76, 0
3, 18944, Note_on_c, 0, 70, 0
3, 19404, Note_on_c, 0, 62, 35
3, 19412, Note_on_c, 0, 65, 40
3, 19420, Control_c, 0, 64, 0
3, 19428, Note_on_c, 0, 48, 34
3, 19432, Note_on_c, 0, 58, 32
3, 19536, Control_c, 0, 64, 127
3, 19672, Note_on_c, 0, 62, 0
3, 19744, Note_on_c, 0, 65, 0
3, 19752, Note_on_c, 0, 48, 0
3, 19840, Note_on_c, 0, 58, 0
3, 20488, Note_on_c, 0, 96, 83
3, 20496, Note_on_c, 0, 69, 62
3, 20500, Control_c, 0, 64, 0
3, 20560, Control_c, 0, 64, 127
3, 20688, Note_on_c, 0, 69, 0
3, 20704, Note_on_c, 0, 68, 37
3, 20724, Note_on_c, 0, 95, 45
3, 20732, Note_on_c, 0, 96, 0
3, 20788, Note_on_c, 0, 94, 52
3, 20792, Note_on_c, 0, 68, 0
3, 20808, Note_on_c, 0, 95, 0
3, 20900, Note_on_c, 0, 94, 0
3, 20908, Note_on_c, 0, 66, 33
3, 20916, Note_on_c, 0, 93, 41
3, 20936, Note_on_c, 0, 66, 0
3, 20944, Control_c, 0, 64, 0
3, 20948, Note_on_c, 0, 65, 62
3, 21060, Control_c, 0, 64, 127
3, 21220, Note_on_c, 0, 93, 0
3, 21280, Note_on_c, 0, 65, 0
3, 21292, Note_on_c, 0, 93, 24
3, 21388, Note_on_c, 0, 92, 40
3, 21408, Note_on_c, 0, 93, 0
3, 21456, Note_on_c, 0, 92, 0
3, 21484, Note_on_c, 0, 91, 35
3, 21492, Note_on_c, 0, 62, 22
3, 21516, Note_on_c, 0, 91, 0
3, 21516, Note_on_c, 0, 90, 59
3, 21568, Control_c, 0, 64, 0
3, 21600, Note_on_c, 0, 90, 0
3, 21616, Note_on_c, 0, 89, 45
3, 21700, Control_c, 0, 64, 127
3, 22200, Note_on_c, 0, 89, 0
3, 22368, Note_on_c, 0, 62, 0
3, 22416, Control_c, 0, 64, 0
3, 22416, Note_on_c, 0, 93, 45
3, 22424, Note_on_c, 0, 53, 34
3, 22508, Control_c, 0, 64, 127
3, 22604, Note_on_c, 0, 93, 0
3, 22704, Note_on_c, 0, 60, 42
3, 22748, Note_on_c, 0, 53, 0
3, 23000, Note_on_c, 0, 69, 49
3, 23016, Note_on_c, 0, 67, 30
3, 23252, Note_on_c, 0, 74, 60
3, 23260, Note_on_c, 0, 67, 0
3, 23352, Note_on_c, 0, 69, 0
3, 23372, Note_on_c, 0, 60, 0
3, 23476, Note_on_c, 0, 81, 76
3, 23524, Note_on_c, 0, 74, 0
3, 23592, Note_on_c, 0, 81, 0
3, 23704, Note_on_c, 0, 84, 91
3, 23912, Note_on_c, 0, 84, 0
3, 23948, Control_c, 0, 64, 0
3, 23952, Note_on_c, 0, 82, 72
3, 23956, Note_on_c, 0, 45, 60
3, 24064, Control_c, 0, 64, 127
3, 24180, Note_on_c, 0, 45, 0
3, 24200, Note_on_c, 0, 73, 59
3, 24404, Note_on_c, 0, 73, 0
3, 24444, Note_on_c, 0, 82, 0
3, 24488, Note_on_c, 0, 72, 52
3, 24752, Note_on_c, 0, 72, 0
3, 24772, Note_on_c, 0, 70, 56
3, 24808, Note_on_c, 0, 61, 33
3, 24812, Note_on_c, 0, 65, 43
3, 24820, Note_on_c, 0, 55, 36
3, 24940, Control_c, 0, 64, 0
3, 25032, Control_c, 0, 64, 127
3, 25180, Note_on_c, 0, 69, 43
3, 25912, Note_on_c, 0, 65, 0
3, 26264, Note_on_c, 0, 69, 0
3, 26496, Note_on_c, 0, 70, 0
3, 26768, Note_on_c, 0, 62, 36
3, 26936, Note_on_c, 0, 62, 0
3, 27032, Note_on_c, 0, 65, 83
3, 27272, Note_on_c, 0, 65, 0
3, 27304, Note_on_c, 0, 69, 85
3, 27352, Note_on_c, 0, 61, 0
3, 27392, Note_on_c, 0, 55, 0
3, 27484, Note_on_c, 0, 69, 0
3, 27672, Note_on_c, 0, 72, 70
3, 27676, Control_c, 0, 64, 0
3, 27680, Note_on_c, 0, 65, 75
3, 27680, Note_on_c, 0, 69, 71
3, 27684, Note_on_c, 0, 50, 56
3, 27776, Control_c, 0, 64, 127
3, 27888, Note_on_c, 0, 65, 0
3, 27904, Note_on_c, 0, 69, 0
3, 27912, Note_on_c, 0, 72, 0
3, 28156, Note_on_c, 0, 76, 62
3, 28160, Note_on_c, 0, 61, 54
3, 28168, Control_c, 0, 64, 0
3, 28168, Note_on_c, 0, 69, 77
3, 28168, Note_on_c, 0, 65, 76
3, 28212, Control_c, 0, 64, 127
3, 28288, Note_on_c, 0, 61, 0
3, 28312, Note_on_c, 0, 50, 0
3, 28372, Note_on_c, 0, 65, 0
3, 28372, Note_on_c, 0, 76, 0
3, 28408, Note_on_c, 0, 69, 0
3, 28888, Note_on_c, 0, 38, 55
3, 28896, Note_on_c, 0, 35, 65
3, 28908, Note_on_c, 0, 40, 49
3, 28912, Note_on_c, 0, 38, 0
3, 28920, Note_on_c, 0, 35, 0
3, 28940, Note_on_c, 0, 40, 0
3, 28960, Note_on_c, 0, 36, 47
3, 28988, Note_on_c, 0, 36, 0
3, 28988, Note_on_c, 0, 41, 49
3, 28996, Note_on_c, 0, 38, 62
3, 29020, Note_on_c, 0, 41, 0
3, 29020, Note_on_c, 0, 43, 48
3, 29024, Note_on_c, 0, 38, 0
3, 29056, Note_on_c, 0, 40, 64
3, 29072, Note_on_c, 0, 45, 53
3, 29080, Note_on_c, 0, 40, 0
3, 29092, Note_on_c, 0, 43, 0
3, 29116, Note_on_c, 0, 41, 58
3, 29124, Note_on_c, 0, 47, 48
3, 29140, Note_on_c, 0, 41, 0
3, 29140, Note_on_c, 0, 45, 0
3, 29160, Note_on_c, 0, 43, 62
3, 29184, Note_on_c, 0, 43, 0
3, 29184, Note_on_c, 0, 48, 47
3, 29192, Note_on_c, 0, 47, 0
3, 29192, Control_c, 0, 64, 0
3, 29208, Note_on_c, 0, 45, 71
3, 29216, Note_on_c, 0, 48, 0
3, 29232, Note_on_c, 0, 50, 50
3, 29236, Note_on_c, 0, 45, 0
3, 29256, Note_on_c, 0, 47, 74
3, 29276, Note_on_c, 0, 52, 60
3, 29284, Note_on_c, 0, 47, 0
3, 29288, Note_on_c, 0, 50, 0
3, 29304, Note_on_c, 0, 52, 0
3, 29304, Note_on_c, 0, 48, 69
3, 29332, Note_on_c, 0, 48, 0
3, 29332, Note_on_c, 0, 53, 64
3, 29344, Note_on_c, 0, 50, 72
3, 29356, Note_on_c, 0, 53, 0
3, 29372, Note_on_c, 0, 50, 0
3, 29372, Note_on_c, 0, 55, 66
3, 29392, Note_on_c, 0, 52, 79
3, 29396, Note_on_c, 0, 55, 0
3, 29416, Note_on_c, 0, 52, 0
3, 29416, Note_on_c, 0, 57, 72
3, 29444, Note_on_c, 0, 57, 0
3, 29444, Note_on_c, 0, 53, 75
3, 29464, Note_on_c, 0, 59, 65
3, 29468, Note_on_c, 0, 53, 0
3, 29488, Note_on_c, 0, 55, 79
3, 29492, Note_on_c, 0, 59, 0
3, 29512, Note_on_c, 0, 55, 0
3, 29512, Note_on_c, 0, 60, 70
3, 29536, Note_on_c, 0, 60, 0
3, 29536, Note_on_c, 0, 57, 81
3, 29556, Note_on_c, 0, 62, 66
3, 29560, Note_on_c, 0, 57, 0
3, 29584, Note_on_c, 0, 59, 66
3, 29600, Note_on_c, 0, 62, 0
3, 29604, Note_on_c, 0, 64, 62
3, 29612, Note_on_c, 0, 59, 0
3, 29636, Note_on_c, 0, 60, 70
3, 29652, Note_on_c, 0, 65, 66
3, 29660, Note_on_c, 0, 60, 0
3, 29660, Note_on_c, 0, 64, 0
3, 29688, Note_on_c, 0, 62, 66
3, 29708, Note_on_c, 0, 67, 62
3, 29712, Note_on_c, 0, 65, 0
3, 29732, Note_on_c, 0, 62, 0
3, 29752, Note_on_c, 0, 64, 58
3, 29768, Note_on_c, 0, 67, 0
3, 29768, Note_on_c, 0, 69, 50
3, 29792, Note_on_c, 0, 64, 0
3, 29808, Note_on_c, 0, 65, 62
3, 29824, Note_on_c, 0, 71, 47
3, 29828, Note_on_c, 0, 69, 0
3, 29844, Note_on_c, 0, 65, 0
3, 29852, Note_on_c, 0, 67, 35
3, 29880, Note_on_c, 0, 72, 54
3, 29884, Note_on_c, 0, 71, 0
3, 29888, Note_on_c, 0, 67, 0
3, 29912, Note_on_c, 0, 69, 54
3, 29924, Note_on_c, 0, 72, 0
3, 29928, Control_c, 0, 64, 127
3, 29932, Note_on_c, 0, 74, 47
3, 29944, Note_on_c, 0, 69, 0
3, 29972, Note_on_c, 0, 71, 51
3, 29992, Note_on_c, 0, 74, 0
3, 29992, Note_on_c, 0, 76, 47
3, 30008, Note_on_c, 0, 71, 0
3, 30040, Note_on_c, 0, 72, 36
3, 30052, Note_on_c, 0, 76, 0
3, 30064, Note_on_c, 0, 77, 42
3, 30072, Note_on_c, 0, 72, 0
3, 30088, Note_on_c, 0, 74, 24
3, 30128, Note_on_c, 0, 77, 0
3, 30128, Note_on_c, 0, 79, 33
3, 30140, Note_on_c, 0, 74, 0
3, 30152, Note_on_c, 0, 76, 37
3, 30164, Note_on_c, 0, 79, 0
3, 30200, Note_on_c, 0, 76, 0
3, 30204, Note_on_c, 0, 81, 32
3, 30232, Note_on_c, 0, 81, 0
3, 30232, Note_on_c, 0, 77, 47
3, 30272, Note_on_c, 0, 77, 0
3, 30284, Note_on_c, 0, 83, 29
3, 30308, Note_on_c, 0, 79, 50
3, 30316, Note_on_c, 0, 83, 0
3, 30344, Note_on_c, 0, 79, 0
3, 30376, Note_on_c, 0, 81, 46
3, 30404, Note_on_c, 0, 81, 0
3, 30448, Note_on_c, 0, 83, 38
3, 30456, Note_on_c, 0, 26, 37
3, 30468, Note_on_c, 0, 38, 36
3, 30476, Note_on_c, 0, 83, 0
3, 30476, Control_c, 0, 64, 0
3, 30504, Note_on_c, 0, 84, 32
3, 30532, Note_on_c, 0, 84, 0
3, 30596, Note_on_c, 0, 86, 62
3, 30600, Control_c, 0, 64, 127
3, 30652, Note_on_c, 0, 26, 0
3, 30692, Note_on_c, 0, 38, 0
3, 31260, Note_on_c, 0, 54, 40
3, 32060, Note_on_c, 0, 86, 0
3, 32060, Note_on_c, 0, 60, 30
3, 32064, Note_on_c, 0, 93, 49
3, 32256, Note_on_c, 0, 93, 0
3, 32432, Note_on_c, 0, 96, 79
3, 32460, Note_on_c, 0, 65, 39
3, 32760, Note_on_c, 0, 96, 0
3, 32796, Note_on_c, 0, 93, 81
3, 33004, Note_on_c, 0, 65, 0
3, 33024, Note_on_c, 0, 60, 0
3, 33064, Note_on_c, 0, 54, 0
3, 33076, Note_on_c, 0, 90, 70
3, 33136, Note_on_c, 0, 93, 0
3, 33348, Control_c, 0, 64, 0
3, 33352, Note_on_c, 0, 89, 61
3, 33352, Note_on_c, 0, 43, 43
3, 33396, Note_on_c, 0, 90, 0
3, 33420, Note_on_c, 0, 43, 0
3, 33424, Control_c, 0, 64, 127
3, 33608, Note_on_c, 0, 89, 0
3, 33652, Note_on_c, 0, 93, 66
3, 33664, Note_on_c, 0, 59, 32
3, 33912, Note_on_c, 0, 93, 0
3, 33924, Note_on_c, 0, 59, 0
3, 33968, Note_on_c, 0, 64, 36
3, 33968, Note_on_c, 0, 88, 24
3, 33980, Note_on_c, 0, 85, 25
3, 34024, Note_on_c, 0, 83, 6
3, 34176, Note_on_c, 0, 64, 0
3, 34292, Note_on_c, 0, 67, 51
3, 34392, Note_on_c, 0, 67, 0
3, 34612, Note_on_c, 0, 71, 31
3, 34696, Note_on_c, 0, 85, 0
3, 34720, Note_on_c, 0, 83, 0
3, 34732, Note_on_c, 0, 88, 0
3, 34880, Note_on_c, 0, 71, 0
3, 34900, Note_on_c, 0, 93, 51
3, 34904, Note_on_c, 0, 73, 35
3, 34904, Note_on_c, 0, 85, 45
3, 35008, Note_on_c, 0, 73, 0
3, 35088, Note_on_c, 0, 85, 0
3, 35204, Note_on_c, 0, 93, 0
3, 35268, Note_on_c, 0, 88, 30
3, 35268, Note_on_c, 0, 83, 26
3, 35276, Note_on_c, 0, 77, 24
3, 35284, Note_on_c, 0, 85, 20
3, 35504, Note_on_c, 0, 77, 0
3, 35596, Note_on_c, 0, 88, 0
3, 35664, Note_on_c, 0, 85, 0
3, 35692, Note_on_c, 0, 83, 0
3, 36268, Control_c, 0, 64, 0
3, 36704, Control_c, 0, 64, 127
3, 36880, Note_on_c, 0, 70, 39
3, 36908, Note_on_c, 0, 58, 38
3, 37144, Note_on_c, 0, 70, 0
3, 37172, Note_on_c, 0, 74, 45
3, 37180, Note_on_c, 0, 62, 36
3, 37460, Note_on_c, 0, 62, 0
3, 37476, Note_on_c, 0, 77, 47
3, 37492, Note_on_c, 0, 65, 37
3, 37544, Note_on_c, 0, 58, 0
3, 37576, Note_on_c, 0, 65, 0
3, 37648, Note_on_c, 0, 74, 0
3, 37672, Note_on_c, 0, 77, 0
3, 38004, Note_on_c, 0, 81, 46
3, 38016, Note_on_c, 0, 57, 36
3, 38028, Note_on_c, 0, 77, 40
3, 38032, Note_on_c, 0, 62, 27
3, 38032, Note_on_c, 0, 74, 31
3, 38048, Note_on_c, 0, 58, 32
3, 38048, Note_on_c, 0, 69, 36
3, 38068, Control_c, 0, 64, 0
3, 38136, Control_c, 0, 64, 127
3, 38340, Note_on_c, 0, 69, 0
3, 38356, Note_on_c, 0, 81, 0
3, 38384, Note_on_c, 0, 74, 0
3, 38392, Note_on_c, 0, 77, 0
3, 38512, Note_on_c, 0, 62, 0
3, 38544, Note_on_c, 0, 57, 0
3, 38556, Note_on_c, 0, 58, 0
3, 38580, Note_on_c, 0, 84, 58
3, 38672, Note_on_c, 0, 84, 0
3, 39080, Note_on_c, 0, 64, 42
3, 39092, Note_on_c, 0, 52, 35
3, 39100, Note_on_c, 0, 55, 31
3, 39100, Note_on_c, 0, 60, 24
3, 39104, Note_on_c, 0, 45, 40
3, 39144, Control_c, 0, 64, 0
3, 39232, Control_c, 0, 64, 127
3, 39300, Note_on_c, 0, 60, 0
3, 39356, Note_on_c, 0, 64, 0
3, 39400, Note_on_c, 0, 72, 64
3, 39484, Note_on_c, 0, 45, 0
3, 39492, Note_on_c, 0, 55, 0
3, 39496, Note_on_c, 0, 52, 0
3, 39608, Note_on_c, 0, 72, 0
3, 39740, Note_on_c, 0, 65, 49
3, 39744, Note_on_c, 0, 62, 27
3, 39744, Note_on_c, 0, 46, 33
3, 39748, Note_on_c, 0, 57, 38
3, 39776, Note_on_c, 0, 53, 31
3, 39776, Control_c, 0, 64, 0
3, 39956, Control_c, 0, 64, 127
3, 40560, Note_on_c, 0, 65, 0
3, 40684, Note_on_c, 0, 69, 59
3, 40812, Note_on_c, 0, 62, 0
3, 40872, Note_on_c, 0, 57, 0
3, 40896, Note_on_c, 0, 53, 0
3, 40936, Note_on_c, 0, 46, 0
3, 41000, Note_on_c, 0, 69, 0
3, 41724, Note_on_c, 0, 61, 44
3, 41728, Note_on_c, 0, 58, 51
3, 41748, Note_on_c, 0, 36, 33
3, 41748, Note_on_c, 0, 65, 39
3, 41772, Note_on_c, 0, 53, 13
3, 41776, Note_on_c, 0, 24, 37
3, 41780, Note_on_c, 0, 62, 50
3, 41784, Note_on_c, 0, 61, 0
3, 41816, Control_c, 0, 64, 0
3, 42272, Control_c, 0, 64, 127
3, 42448, Note_on_c, 0, 62, 0
3, 42708, Note_on_c, 0, 65, 0
3, 42708, Note_on_c, 0, 24, 0
3, 42732, Note_on_c, 0, 62, 37
3, 42740, Note_on_c, 0, 36, 0
3, 42904, Note_on_c, 0, 53, 0
3, 43036, Note_on_c, 0, 62, 0
3, 43092, Note_on_c, 0, 58, 0
3, 44480, Note_on_c, 0, 65, 39
3, 44488, Note_on_c, 0, 58, 33
3, 44488, Note_on_c, 0, 29, 32
3, 44488, Note_on_c, 0, 62, 39
3, 44512, Note_on_c, 0, 41, 24
3, 44520, Control_c, 0, 64, 0
3, 44664, Note_on_c, 0, 65, 0
3, 44664, Control_c, 0, 64, 127
3, 44792, Note_on_c, 0, 65, 50
3, 44904, Note_on_c, 0, 65, 0
3, 44936, Note_on_c, 0, 29, 0
3, 44988, Note_on_c, 0, 41, 0
3, 45004, Note_on_c, 0, 58, 0
3, 45072, Note_on_c, 0, 62, 0
3, 45156, Note_on_c, 0, 65, 38
3, 45168, Note_on_c, 0, 56, 33
3, 45192, Note_on_c, 0, 29, 29
3, 45212, Note_on_c, 0, 41, 22
3, 45220, Control_c, 0, 64, 0
3, 45252, Note_on_c, 0, 56, 0
3, 45288, Note_on_c, 0, 57, 45
3, 45504, Control_c, 0, 64, 127
3, 45652, Note_on_c, 0, 65, 0
3, 45744, Note_on_c, 0, 41, 0
3, 45756, Note_on_c, 0, 65, 36
3, 45780, Note_on_c, 0, 29, 0
3, 45908, Note_on_c, 0, 57, 0
3, 45964, Note_on_c, 0, 65, 0
3, 46416, Note_on_c, 0, 65, 29
3, 46420, Note_on_c, 0, 58, 37
3, 46428, Note_on_c, 0, 62, 36
3, 46432, Note_on_c, 0, 24, 31
3, 46436, Control_c, 0, 64, 0
3, 46444, Note_on_c, 0, 53, 24
3, 46444, Note_on_c, 0, 36, 30
3, 46652, Control_c, 0, 64, 127
3, 46784, Note_on_c, 0, 53, 0
3, 46892, Note_on_c, 0, 62, 0
3, 46912, Note_on_c, 0, 58, 0
3, 46932, Note_on_c, 0, 24, 0
3, 46960, Note_on_c, 0, 36, 0
3, 46968, Note_on_c, 0, 65, 0
3, 47664, Note_on_c, 0, 77, 34
3, 47696, Note_on_c, 0, 53, 18
3, 47736, Note_on_c, 0, 77, 0
3, 47776, Note_on_c, 0, 53, 0
3, 47824, Note_on_c, 0, 81, 64
3, 47832, Note_on_c, 0, 57, 59
3, 47924, Note_on_c, 0, 81, 0
3, 47952, Note_on_c, 0, 57, 0
3, 47984, Note_on_c, 0, 84, 74
3, 48092, Note_on_c, 0, 84, 0
3, 48132, Control_c, 0, 64, 0
3, 48156, Note_on_c, 0, 64, 51
3, 48160, Note_on_c, 0, 76, 65
3, 48160, Note_on_c, 0, 88, 85
3, 48168, Control_c, 0, 64, 127
3, 48276, Note_on_c, 0, 76, 0
3, 48288, Note_on_c, 0, 88, 0
3, 48424, Note_on_c, 0, 64, 0
3, 48432, Note_on_c, 0, 67, 72
3, 48436, Note_on_c, 0, 91, 87
3, 48436, Note_on_c, 0, 79, 77
3, 48460, Note_on_c, 0, 67, 0
3, 48476, Control_c, 0, 64, 0
3, 48560, Control_c, 0, 64, 127
3, 48744, Note_on_c, 0, 91, 0
3, 48792, Note_on_c, 0, 79, 0
3, 49172, Note_on_c, 0, 77, 33
3, 49184, Note_on_c, 0, 75, 36
3, 49188, Note_on_c, 0, 67, 22
3, 49192, Note_on_c, 0, 70, 31
3, 49196, Note_on_c, 0, 53, 34
3, 49220, Note_on_c, 0, 58, 50
3, 49224, Note_on_c, 0, 60, 24
3, 49224, Control_c, 0, 64, 0
3, 49256, Note_on_c, 0, 63, 2
3, 49448, Control_c, 0, 64, 127
3, 49748, Note_on_c, 0, 67, 0
3, 49800, Note_on_c, 0, 70, 0
3, 49840, Note_on_c, 0, 63, 0
3, 49856, Note_on_c, 0, 77, 0
3, 49872, Note_on_c, 0, 75, 0
3, 50028, Note_on_c, 0, 60, 0
3, 50216, Note_on_c, 0, 58, 0
3, 50244, Note_on_c, 0, 89, 77
3, 50244, Note_on_c, 0, 65, 62
3, 50560, Note_on_c, 0, 89, 0
3, 50628, Note_on_c, 0, 84, 58
3, 50636, Note_on_c, 0, 60, 32
3, 50732, Note_on_c, 0, 65, 0
3, 50936, Note_on_c, 0, 53, 0
3, 50948, Note_on_c, 0, 84, 0
3, 50972, Note_on_c, 0, 81, 47
3, 50984, Note_on_c, 0, 57, 39
3, 51032, Note_on_c, 0, 60, 0
3, 51052, Note_on_c, 0, 81, 0
3, 51068, Note_on_c, 0, 57, 0
3, 51312, Note_on_c, 0, 81, 53
3, 51316, Note_on_c, 0, 46, 48
3, 51324, Control_c, 0, 64, 0
3, 51328, Note_on_c, 0, 74, 26
3, 51432, Control_c, 0, 64, 127
3, 51520, Note_on_c, 0, 74, 0
3, 51544, Note_on_c, 0, 81, 0
3, 51544, Note_on_c, 0, 53, 42
3, 51552, Note_on_c, 0, 84, 64
3, 51576, Note_on_c, 0, 53, 0
3, 51576, Note_on_c, 0, 46, 0
3, 51712, Note_on_c, 0, 84, 0
3, 51804, Note_on_c, 0, 84, 48
3, 51808, Note_on_c, 0, 60, 47
3, 52080, Note_on_c, 0, 62, 24
3, 52364, Note_on_c, 0, 74, 28
3, 52372, Note_on_c, 0, 65, 38
3, 52376, Note_on_c, 0, 77, 26
3, 52636, Note_on_c, 0, 60, 0
3, 52656, Note_on_c, 0, 57, 47
3, 52780, Note_on_c, 0, 57, 0
3, 52932, Note_on_c, 0, 77, 0
3, 52948, Note_on_c, 0, 57, 56
3, 52964, Note_on_c, 0, 74, 0
3, 53000, Note_on_c, 0, 62, 0
3, 53048, Note_on_c, 0, 65, 0
3, 53224, Note_on_c, 0, 62, 20
3, 53228, Note_on_c, 0, 65, 28
3, 53344, Note_on_c, 0, 57, 0
3, 53460, Note_on_c, 0, 65, 0
3, 53540, Note_on_c, 0, 55, 45
3, 53552, Note_on_c, 0, 62, 0
3, 53580, Control_c, 0, 64, 0
3, 53660, Control_c, 0, 64, 127
3, 53860, Note_on_c, 0, 74, 35
3, 53880, Note_on_c, 0, 65, 32
3, 53892, Note_on_c, 0, 62, 27
3, 53896, Note_on_c, 0, 58, 30
3, 53976, Note_on_c, 0, 84, 0
3, 54012, Note_on_c, 0, 74, 0
3, 54112, Note_on_c, 0, 77, 75
3, 54236, Note_on_c, 0, 55, 0
3, 54256, Note_on_c, 0, 77, 0
3, 54292, Note_on_c, 0, 65, 0
3, 54312, Note_on_c, 0, 62, 0
3, 54316, Note_on_c, 0, 55, 49
3, 54320, Note_on_c, 0, 81, 84
3, 54348, Note_on_c, 0, 58, 0
3, 54364, Note_on_c, 0, 55, 0
3, 54476, Note_on_c, 0, 81, 0
3, 54536, Control_c, 0, 64, 0
3, 54544, Note_on_c, 0, 84, 76
3, 54548, Note_on_c, 0, 72, 72
3, 54552, Note_on_c, 0, 62, 35
3, 54556, Note_on_c, 0, 58, 51
3, 54564, Note_on_c, 0, 57, 39
3, 54628, Control_c, 0, 64, 127
3, 54648, Note_on_c, 0, 72, 0
3, 54692, Note_on_c, 0, 84, 0
3, 54800, Note_on_c, 0, 57, 0
3, 54800, Note_on_c, 0, 88, 79
3, 54804, Note_on_c, 0, 76, 58
3, 54808, Note_on_c, 0, 55, 53
3, 54816, Note_on_c, 0, 62, 0
3, 54832, Note_on_c, 0, 58, 0
3, 54836, Note_on_c, 0, 55, 0
3, 55084, Note_on_c, 0, 43, 46
3, 55092, Control_c, 0, 64, 0
3, 55128, Control_c, 0, 64, 127
3, 55132, Note_on_c, 0, 43, 0
3, 55352, Control_c, 0, 64, 0
3, 55356, Note_on_c, 0, 36, 38
3, 55368, Control_c, 0, 64, 127
3, 55388, Note_on_c, 0, 36, 0
3, 55700, Note_on_c, 0, 62, 29
3, 55700, Note_on_c, 0, 58, 44
3, 56108, Note_on_c, 0, 88, 0
3, 56160, Note_on_c, 0, 76, 0
3, 56176, Note_on_c, 0, 58, 0
3, 56272, Note_on_c, 0, 62, 0
3, 56904, Note_on_c, 0, 84, 50
3, 56912, Note_on_c, 0, 78, 35
3, 56916, Note_on_c, 0, 81, 42
3, 56916, Note_on_c, 0, 69, 48
3, 56916, Note_on_c, 0, 76, 27
3, 57020, Note_on_c, 0, 81, 0
3, 57028, Note_on_c, 0, 84, 0
3, 57044, Note_on_c, 0, 78, 0
3, 57076, Note_on_c, 0, 76, 0
3, 57196, Note_on_c, 0, 69, 0
3, 57264, Note_on_c, 0, 81, 43
3, 57268, Note_on_c, 0, 70, 47
3, 57284, Note_on_c, 0, 76, 29
3, 57284, Note_on_c, 0, 66, 35
3, 57288, Note_on_c, 0, 73, 30
3, 57376, Note_on_c, 0, 81, 0
3, 57388, Note_on_c, 0, 66, 0
3, 57424, Note_on_c, 0, 76, 0
3, 57444, Note_on_c, 0, 73, 0
3, 57448, Note_on_c, 0, 70, 0
3, 58160, Note_on_c, 0, 77, 37
3, 58236, Note_on_c, 0, 77, 0
3, 58356, Note_on_c, 0, 81, 45
3, 58376, Note_on_c, 0, 41, 42
3, 58404, Control_c, 0, 64, 0
3, 58520, Control_c, 0, 64, 127
3, 58580, Note_on_c, 0, 48, 38
3, 58644, Note_on_c, 0, 41, 0
3, 58768, Note_on_c, 0, 48, 0
3, 58828, Note_on_c, 0, 57, 60
3, 58932, Note_on_c, 0, 57, 0
3, 59060, Control_c, 0, 64, 0
3, 59068, Note_on_c, 0, 45, 60
3, 59096, Note_on_c, 0, 45, 0
3, 59136, Control_c, 0, 64, 127
3, 59340, Note_on_c, 0, 81, 0
3, 59352, Note_on_c, 0, 55, 45
3, 59368, Note_on_c, 0, 65, 42
3, 59380, Note_on_c, 0, 61, 28
3, 59672, Note_on_c, 0, 65, 0
3, 59716, Note_on_c, 0, 84, 76
3, 59832, Note_on_c, 0, 84, 0
3, 60408, Note_on_c, 0, 76, 49
3, 60436, Note_on_c, 0, 64, 34
3, 60772, Note_on_c, 0, 81, 70
3, 60800, Note_on_c, 0, 64, 0
3, 60840, Note_on_c, 0, 61, 0
3, 60844, Note_on_c, 0, 55, 0
3, 60920, Note_on_c, 0, 76, 0
3, 61100, Note_on_c, 0, 81, 0
3, 61156, Note_on_c, 0, 72, 36
3, 61156, Note_on_c, 0, 50, 35
3, 61184, Control_c, 0, 64, 0
3, 61276, Control_c, 0, 64, 127
3, 61424, Note_on_c, 0, 72, 0
3, 61460, Note_on_c, 0, 76, 53
3, 61496, Note_on_c, 0, 57, 36
3, 61812, Note_on_c, 0, 65, 39
3, 61820, Note_on_c, 0, 61, 26
3, 61820, Note_on_c, 0, 69, 42
3, 62100, Note_on_c, 0, 61, 0
3, 62132, Note_on_c, 0, 76, 0
3, 62180, Note_on_c, 0, 72, 60
3, 62196, Note_on_c, 0, 60, 33
3, 62260, Note_on_c, 0, 57, 0
3, 62280, Note_on_c, 0, 60, 0
3, 62332, Note_on_c, 0, 50, 0
3, 62332, Note_on_c, 0, 72, 0
3, 62368, Note_on_c, 0, 69, 0
3, 62400, Note_on_c, 0, 65, 0
3, 62616, Note_on_c, 0, 72, 43
3, 62636, Note_on_c, 0, 65, 50
3, 62636, Note_on_c, 0, 60, 50
3, 62648, Note_on_c, 0, 44, 42
3, 62676, Control_c, 0, 64, 0
3, 62824, Control_c, 0, 64, 127
3, 62920, Note_on_c, 0, 72, 0
3, 62944, Note_on_c, 0, 60, 0
3, 63004, Note_on_c, 0, 65, 0
3, 63008, Note_on_c, 0, 72, 53
3, 63012, Note_on_c, 0, 54, 40
3, 63060, Note_on_c, 0, 44, 0
3, 63092, Note_on_c, 0, 54, 0
3, 63304, Note_on_c, 0, 72, 0
3, 63368, Note_on_c, 0, 72, 34
3, 63368, Note_on_c, 0, 60, 54
3, 63372, Note_on_c, 0, 69, 54
3, 63384, Note_on_c, 0, 54, 43
3, 63552, Note_on_c, 0, 72, 0
3, 63580, Note_on_c, 0, 60, 0
3, 63624, Note_on_c, 0, 69, 0
3, 63640, Note_on_c, 0, 54, 0
3, 63656, Note_on_c, 0, 66, 68
3, 63844, Note_on_c, 0, 66, 0
3, 64128, Note_on_c, 0, 65, 60
3, 64144, Note_on_c, 0, 59, 34
3, 64148, Note_on_c, 0, 63, 37
3, 64168, Note_on_c, 0, 43, 35
3, 64172, Note_on_c, 0, 53, 35
3, 64204, Control_c, 0, 64, 0
3, 64388, Control_c, 0, 64, 127
3, 64644, Note_on_c, 0, 69, 51
3, 64664, Note_on_c, 0, 59, 0
3, 64688, Note_on_c, 0, 65, 0
3, 64728, Note_on_c, 0, 63, 0
3, 64756, Note_on_c, 0, 69, 0
3, 64868, Note_on_c, 0, 43, 0
3, 64892, Note_on_c, 0, 53, 0
3, 65036, Note_on_c, 0, 79, 50
3, 65424, Note_on_c, 0, 71, 32
3, 65428, Note_on_c, 0, 73, 36
3, 65444, Note_on_c, 0, 65, 35
3, 65448, Note_on_c, 0, 61, 25
3, 65512, Note_on_c, 0, 79, 0
3, 65764, Note_on_c, 0, 61, 0
3, 65768, Note_on_c, 0, 65, 0
3, 65808, Note_on_c, 0, 77, 47
3, 65824, Note_on_c, 0, 71, 0
3, 65876, Note_on_c, 0, 73, 0
3, 66256, Note_on_c, 0, 62, 24
3, 66256, Note_on_c, 0, 67, 20
3, 66264, Note_on_c, 0, 55, 34
3, 66268, Note_on_c, 0, 71, 17
3, 67044, Note_on_c, 0, 67, 0
3, 67884, Note_on_c, 0, 62, 0
3, 67920, Note_on_c, 0, 71, 0
3, 67968, Note_on_c, 0, 55, 0
3, 67976, Note_on_c, 0, 77, 0
3, 68152, Note_on_c, 0, 70, 43
3, 68172, Note_on_c, 0, 58, 36
3, 68204, Control_c, 0, 64, 0
3, 68268, Control_c, 0, 64, 127
3, 68296, Note_on_c, 0, 74, 44
3, 68304, Note_on_c, 0, 62, 36
3, 68328, Note_on_c, 0, 70, 0
3, 68408, Note_on_c, 0, 74, 0
3, 68424, Note_on_c, 0, 62, 0
3, 68452, Note_on_c, 0, 58, 0
3, 68464, Note_on_c, 0, 77, 39
3, 68472, Note_on_c, 0, 65, 31
3, 68492, Note_on_c, 0, 77, 0
3, 68508, Note_on_c, 0, 65, 0
3, 68636, Note_on_c, 0, 81, 68
3, 68636, Note_on_c, 0, 70, 69
3, 68644, Note_on_c, 0, 74, 61
3, 68644, Control_c, 0, 64, 0
3, 68648, Note_on_c, 0, 69, 65
3, 68672, Note_on_c, 0, 77, 27
3, 68684, Control_c, 0, 64, 127
3, 68736, Note_on_c, 0, 70, 0
3, 68740, Note_on_c, 0, 74, 0
3, 68756, Note_on_c, 0, 77, 0
3, 68776, Note_on_c, 0, 81, 0
3, 68856, Note_on_c, 0, 69, 0
3, 68948, Note_on_c, 0, 84, 64
3, 68956, Note_on_c, 0, 74, 64
3, 68956, Note_on_c, 0, 77, 63
3, 68964, Note_on_c, 0, 72, 69
3, 68964, Note_on_c, 0, 81, 57
3, 69004, Control_c, 0, 64, 0
3, 69008, Note_on_c, 0, 74, 0
3, 69020, Note_on_c, 0, 72, 0
3, 69020, Note_on_c, 0, 77, 0
3, 69036, Note_on_c, 0, 81, 0
3, 69048, Note_on_c, 0, 84, 0
3, 69244, Control_c, 0, 64, 127
3, 69912, Note_on_c, 0, 31, 24
3, 69912, Note_on_c, 0, 55, 39
3, 69916, Note_on_c, 0, 43, 30
3, 69924, Note_on_c, 0, 60, 31
3, 69948, Note_on_c, 0, 55, 0
3, 69948, Note_on_c, 0, 31, 0
3, 69960, Note_on_c, 0, 60, 0
3, 69968, Control_c, 0, 64, 0
3, 69972, Note_on_c, 0, 43, 0
3, 70192, Note_on_c, 0, 45, 38
3, 70244, Control_c, 0, 64, 127
3, 70272, Note_on_c, 0, 45, 0
3, 70476, Control_c, 0, 64, 0
3, 70504, Note_on_c, 0, 65, 34
3, 70512, Note_on_c, 0, 58, 51
3, 70512, Note_on_c, 0, 34, 36
3, 70516, Note_on_c, 0, 62, 38
3, 70520, Note_on_c, 0, 53, 24
3, 70524, Note_on_c, 0, 46, 28
3, 70624, Control_c, 0, 64, 127
3, 70832, Note_on_c, 0, 62, 0
3, 70840, Note_on_c, 0, 53, 0
3, 70884, Note_on_c, 0, 58, 0
3, 70908, Note_on_c, 0, 65, 0
3, 70920, Note_on_c, 0, 62, 44
3, 71044, Note_on_c, 0, 34, 0
3, 71068, Note_on_c, 0, 46, 0
3, 71148, Note_on_c, 0, 62, 0
3, 71372, Note_on_c, 0, 61, 45
3, 71380, Note_on_c, 0, 58, 49
3, 71408, Note_on_c, 0, 65, 33
3, 71408, Note_on_c, 0, 48, 33
3, 71416, Note_on_c, 0, 36, 35
3, 71424, Note_on_c, 0, 61, 0
3, 71424, Note_on_c, 0, 62, 50
3, 71448, Control_c, 0, 64, 0
3, 71608, Note_on_c, 0, 53, 5
3, 71800, Control_c, 0, 64, 127
3, 71972, Note_on_c, 0, 65, 0
3, 72084, Note_on_c, 0, 65, 45
3, 72168, Note_on_c, 0, 48, 0
3, 72364, Note_on_c, 0, 36, 0
3, 72644, Note_on_c, 0, 53, 0
3, 72708, Note_on_c, 0, 58, 0
3, 72768, Note_on_c, 0, 65, 0
3, 72816, Note_on_c, 0, 62, 0
3, 72900, Note_on_c, 0, 65, 39
3, 72908, Control_c, 0, 64, 0
3, 72920, Note_on_c, 0, 39, 25
3, 72924, Note_on_c, 0, 60, 38
3, 72924, Note_on_c, 0, 27, 31
3, 72932, Note_on_c, 0, 55, 24
3, 72996, Control_c, 0, 64, 127
3, 73044, Note_on_c, 0, 55, 0
3, 73056, Note_on_c, 0, 39, 0
3, 73088, Note_on_c, 0, 27, 0
3, 73156, Note_on_c, 0, 60, 0
3, 73180, Control_c, 0, 64, 0
3, 73204, Note_on_c, 0, 61, 34
3, 73204, Note_on_c, 0, 28, 33
3, 73232, Note_on_c, 0, 56, 9
3, 73248, Control_c, 0, 64, 127
3, 73296, Note_on_c, 0, 28, 0
3, 73396, Note_on_c, 0, 65, 0
3, 73424, Note_on_c, 0, 56, 0
3, 73480, Note_on_c, 0, 61, 0
3, 73576, Note_on_c, 0, 55, 39
3, 73576, Note_on_c, 0, 65, 25
3, 73584, Note_on_c, 0, 29, 24
3, 73584, Note_on_c, 0, 41, 32
3, 73592, Note_on_c, 0, 60, 36
3, 73596, Control_c, 0, 64, 0
3, 73804, Control_c, 0, 64, 127
3, 74020, Note_on_c, 0, 65, 0
3, 74056, Note_on_c, 0, 55, 0
3, 74060, Note_on_c, 0, 29, 0
3, 74080, Note_on_c, 0, 65, 66
3, 74116, Note_on_c, 0, 41, 0
3, 74132, Note_on_c, 0, 60, 0
3, 74184, Note_on_c, 0, 65, 0
3, 74500, Note_on_c, 0, 77, 76
3, 74504, Note_on_c, 0, 47, 57
3, 74520, Control_c, 0, 64, 0
3, 74596, Control_c, 0, 64, 127
3, 74736, Note_on_c, 0, 57, 71
3, 74960, Note_on_c, 0, 69, 74
3, 74996, Note_on_c, 0, 47, 0
3, 75048, Note_on_c, 0, 57, 0
3, 75068, Note_on_c, 0, 69, 0
3, 75132, Note_on_c, 0, 77, 0
3, 75188, Note_on_c, 0, 74, 71
3, 75376, Note_on_c, 0, 74, 0
3, 75448, Note_on_c, 0, 62, 35
3, 75456, Note_on_c, 0, 72, 63
3, 75456, Note_on_c, 0, 76, 42
3, 75460, Control_c, 0, 64, 0
3, 75460, Note_on_c, 0, 67, 41
3, 75476, Note_on_c, 0, 56, 31
3, 75636, Control_c, 0, 64, 127
3, 75788, Note_on_c, 0, 67, 0
3, 76108, Note_on_c, 0, 72, 0
3, 76164, Note_on_c, 0, 74, 31
3, 76172, Note_on_c, 0, 65, 27
3, 76172, Note_on_c, 0, 71, 20
3, 76204, Note_on_c, 0, 76, 0
3, 76448, Note_on_c, 0, 56, 0
3, 76548, Note_on_c, 0, 56, 26
3, 76724, Note_on_c, 0, 56, 0
3, 76756, Note_on_c, 0, 65, 0
3, 76760, Note_on_c, 0, 62, 0
3, 77492, Note_on_c, 0, 71, 0
3, 77540, Note_on_c, 0, 74, 0
3, 77548, Note_on_c, 0, 45, 36
3, 77552, Control_c, 0, 64, 0
3, 77556, Note_on_c, 0, 72, 43
3, 77560, Note_on_c, 0, 52, 31
3, 77668, Control_c, 0, 64, 127
3, 78172, Note_on_c, 0, 72, 0
3, 78172, Note_on_c, 0, 69, 64
3, 78344, Note_on_c, 0, 45, 0
3, 78352, Note_on_c, 0, 69, 0
3, 78472, Note_on_c, 0, 45, 61
3, 78472, Note_on_c, 0, 71, 90
3, 78476, Note_on_c, 0, 52, 0
3, 78476, Note_on_c, 0, 53, 60
3, 78516, Control_c, 0, 64, 0
3, 78628, Control_c, 0, 64, 127
3, 78668, Note_on_c, 0, 71, 0
3, 78700, Note_on_c, 0, 72, 88
3, 78708, Note_on_c, 0, 71, 62
3, 78736, Note_on_c, 0, 71, 0
3, 78824, Note_on_c, 0, 45, 0
3, 78836, Note_on_c, 0, 53, 0
3, 78872, Note_on_c, 0, 72, 0
3, 78932, Note_on_c, 0, 45, 68
3, 78936, Note_on_c, 0, 54, 78
3, 78936, Note_on_c, 0, 74, 88
3, 78944, Control_c, 0, 64, 0
3, 79092, Control_c, 0, 64, 127
3, 79164, Note_on_c, 0, 74, 0
3, 79188, Note_on_c, 0, 76, 69
3, 79368, Note_on_c, 0, 54, 0
3, 79388, Note_on_c, 0, 45, 0
3, 79396, Note_on_c, 0, 76, 0
3, 79440, Note_on_c, 0, 45, 30
3, 79452, Note_on_c, 0, 74, 68
3, 79464, Note_on_c, 0, 53, 62
3, 79476, Control_c, 0, 64, 0
3, 79600, Control_c, 0, 64, 127
3, 79704, Note_on_c, 0, 53, 0
3, 79804, Note_on_c, 0, 74, 0
3, 79816, Note_on_c, 0, 72, 67
3, 79860, Note_on_c, 0, 52, 24
3, 79980, Note_on_c, 0, 52, 0
3, 79988, Note_on_c, 0, 72, 0
3, 80000, Note_on_c, 0, 45, 0
3, 80264, Note_on_c, 0, 61, 67
3, 80272, Note_on_c, 0, 65, 74
3, 80272, Note_on_c, 0, 69, 69
3, 80288, Note_on_c, 0, 39, 62
3, 80292, Control_c, 0, 64, 0
3, 80448, Control_c, 0, 64, 127
3, 80548, Note_on_c, 0, 39, 0
3, 80548, Note_on_c, 0, 46, 68
3, 80728, Note_on_c, 0, 61, 0
3, 80732, Note_on_c, 0, 65, 0
3, 80736, Note_on_c, 0, 69, 0
3, 80844, Note_on_c, 0, 46, 0
3, 80848, Note_on_c, 0, 55, 66
3, 80848, Note_on_c, 0, 61, 64
3, 80856, Note_on_c, 0, 69, 62
3, 80860, Note_on_c, 0, 65, 73
3, 80932, Note_on_c, 0, 55, 0
3, 81056, Note_on_c, 0, 61, 0
3, 81084, Note_on_c, 0, 65, 0
3, 81092, Note_on_c, 0, 69, 0
3, 81172, Note_on_c, 0, 61, 60
3, 81176, Note_on_c, 0, 69, 61
3, 81184, Note_on_c, 0, 58, 50
3, 81184, Note_on_c, 0, 65, 61
3, 81216, Note_on_c, 0, 65, 0
3, 81252, Note_on_c, 0, 58, 0
3, 81280, Note_on_c, 0, 61, 0
3, 81424, Note_on_c, 0, 69, 0
3, 81544, Note_on_c, 0, 72, 88
3, 81548, Note_on_c, 0, 67, 94
3, 81552, Note_on_c, 0, 64, 89
3, 81552, Note_on_c, 0, 62, 71
3, 81556, Note_on_c, 0, 56, 63
3, 81580, Control_c, 0, 64, 0
3, 81772, Control_c, 0, 64, 127
3, 81908, Note_on_c, 0, 52, 69
3, 81912, Note_on_c, 0, 62, 0
3, 81948, Note_on_c, 0, 56, 0
3, 81980, Note_on_c, 0, 52, 0
3, 82324, Note_on_c, 0, 28, 62
3, 82352, Note_on_c, 0, 28, 0
3, 82568, Note_on_c, 0, 72, 0
3, 82616, Note_on_c, 0, 67, 0
3, 82632, Note_on_c, 0, 64, 0
3, 82972, Control_c, 0, 64, 0
3, 83340, Control_c, 0, 64, 127
3, 83464, Note_on_c, 0, 71, 31
3, 83472, Note_on_c, 0, 62, 26
3, 83480, Note_on_c, 0, 68, 30
3, 83488, Note_on_c, 0, 65, 38
3, 83504, Note_on_c, 0, 56, 21
3, 83732, Note_on_c, 0, 56, 0
3, 83796, Note_on_c, 0, 62, 0
3, 83816, Note_on_c, 0, 65, 0
3, 83840, Note_on_c, 0, 68, 0
3, 83912, Note_on_c, 0, 71, 0
3, 84112, Note_on_c, 0, 45, 36
3, 84116, Note_on_c, 0, 69, 40
3, 84116, Note_on_c, 0, 60, 33
3, 84120, Note_on_c, 0, 64, 43
3, 84124, Note_on_c, 0, 52, 32
3, 84128, Control_c, 0, 64, 0
3, 84228, Control_c, 0, 64, 127
3, 84356, Note_on_c, 0, 60, 0
3, 84600, Note_on_c, 0, 52, 0
3, 84612, Note_on_c, 0, 64, 0
3, 84640, Note_on_c, 0, 69, 0
3, 84684, Note_on_c, 0, 52, 54
3, 85160, Note_on_c, 0, 71, 66
3, 85168, Note_on_c, 0, 62, 75
3, 85312, Note_on_c, 0, 62, 0
3, 85344, Note_on_c, 0, 71, 0
3, 85348, Note_on_c, 0, 52, 0
3, 85456, Note_on_c, 0, 72, 87
3, 85464, Note_on_c, 0, 64, 91
3, 85472, Note_on_c, 0, 52, 59
3, 85584, Note_on_c, 0, 64, 0
3, 85592, Note_on_c, 0, 45, 0
3, 85600, Note_on_c, 0, 72, 0
3, 85780, Note_on_c, 0, 52, 0
3, 85780, Note_on_c, 0, 74, 49
3, 85796, Note_on_c, 0, 45, 71
3, 85812, Control_c, 0, 64, 0
3, 85820, Note_on_c, 0, 73, 29
3, 85844, Note_on_c, 0, 73, 0
3, 85920, Control_c, 0, 64, 127
3, 85948, Note_on_c, 0, 74, 0
3, 86104, Note_on_c, 0, 76, 47
3, 86116, Note_on_c, 0, 53, 59
3, 86120, Note_on_c, 0, 69, 66
3, 86124, Note_on_c, 0, 64, 62
3, 86128, Control_c, 0, 64, 0
3, 86212, Control_c, 0, 64, 127
3, 86388, Note_on_c, 0, 76, 0
3, 86392, Note_on_c, 0, 64, 0
3, 86424, Note_on_c, 0, 69, 0
3, 86492, Note_on_c, 0, 74, 34
3, 86508, Note_on_c, 0, 64, 50
3, 86512, Note_on_c, 0, 69, 43
3, 86608, Note_on_c, 0, 69, 0
3, 86656, Note_on_c, 0, 74, 0
3, 86660, Note_on_c, 0, 64, 0
3, 86708, Note_on_c, 0, 45, 0
3, 86896, Note_on_c, 0, 72, 49
3, 86912, Note_on_c, 0, 45, 35
3, 86920, Note_on_c, 0, 67, 40
3, 86924, Note_on_c, 0, 62, 22
3, 87032, Note_on_c, 0, 62, 0
3, 87060, Note_on_c, 0, 67, 0
3, 87064, Note_on_c, 0, 45, 0
3, 87080, Note_on_c, 0, 72, 0
3, 87080, Note_on_c, 0, 53, 0
3, 87336, Note_on_c, 0, 76, 54
3, 87352, Control_c, 0, 64, 0
3, 87356, Note_on_c, 0, 64, 64
3, 87356, Note_on_c, 0, 44, 37
3, 87356, Note_on_c, 0, 68, 49
3, 87360, Note_on_c, 0, 72, 47
3, 87372, Note_on_c, 0, 54, 29
3, 87444, Control_c, 0, 64, 127
3, 87460, Note_on_c, 0, 44, 0
3, 87488, Note_on_c, 0, 64, 0
3, 87488, Note_on_c, 0, 54, 0
3, 87512, Note_on_c, 0, 68, 0
3, 87528, Note_on_c, 0, 72, 0
3, 87572, Note_on_c, 0, 76, 0
3, 87776, Note_on_c, 0, 80, 58
3, 87780, Note_on_c, 0, 76, 51
3, 87788, Note_on_c, 0, 88, 70
3, 87792, Note_on_c, 0, 54, 48
3, 87796, Note_on_c, 0, 84, 34
3, 88052, Note_on_c, 0, 80, 0
3, 88060, Note_on_c, 0, 76, 0
3, 88080, Note_on_c, 0, 84, 0
3, 88108, Note_on_c, 0, 88, 0
3, 88216, Note_on_c, 0, 88, 40
3, 88220, Note_on_c, 0, 76, 38
3, 88220, Note_on_c, 0, 65, 44
3, 88228, Note_on_c, 0, 80, 43
3, 88232, Note_on_c, 0, 60, 33
3, 88236, Note_on_c, 0, 84, 36
3, 88488, Note_on_c, 0, 54, 0
3, 88504, Note_on_c, 0, 80, 0
3, 88504, Note_on_c, 0, 84, 0
3, 88516, Note_on_c, 0, 76, 0
3, 88544, Note_on_c, 0, 88, 0
3, 88712, Note_on_c, 0, 54, 45
3, 88728, Note_on_c, 0, 88, 35
3, 88736, Note_on_c, 0, 76, 26
3, 88736, Note_on_c, 0, 80, 31
3, 88752, Note_on_c, 0, 84, 29
3, 88788, Note_on_c, 0, 65, 0
3, 88796, Note_on_c, 0, 60, 0
3, 88844, Note_on_c, 0, 76, 0
3, 88860, Note_on_c, 0, 84, 0
3, 88876, Note_on_c, 0, 54, 0
3, 88876, Note_on_c, 0, 80, 0
3, 88920, Note_on_c, 0, 88, 0
3, 89412, Note_on_c, 0, 91, 46
3, 89416, Note_on_c, 0, 79, 35
3, 89420, Note_on_c, 0, 31, 36
3, 89432, Control_c, 0, 64, 0
3, 89432, Note_on_c, 0, 43, 26
3, 89516, Control_c, 0, 64, 127
3, 89580, Note_on_c, 0, 79, 0
3, 89616, Note_on_c, 0, 31, 0
3, 89652, Note_on_c, 0, 91, 0
3, 89656, Note_on_c, 0, 43, 0
3, 90032, Note_on_c, 0, 67, 45
3, 90040, Note_on_c, 0, 103, 40
3, 90052, Note_on_c, 0, 91, 22
3, 90108, Note_on_c, 0, 67, 0
3, 90116, Note_on_c, 0, 91, 0
3, 90172, Note_on_c, 0, 103, 0
3, 90688, Note_on_c, 0, 103, 50
3, 90700, Note_on_c, 0, 79, 28
3, 90708, Note_on_c, 0, 91, 30
3, 90824, Note_on_c, 0, 103, 0
3, 90832, Note_on_c, 0, 79, 0
3, 90884, Note_on_c, 0, 91, 0
3, 91892, Note_on_c, 0, 84, 44
3, 91912, Note_on_c, 0, 60, 28
3, 91932, Control_c, 0, 64, 0
3, 91996, Control_c, 0, 64, 127
3, 92232, Note_on_c, 0, 67, 7
3, 92452, Note_on_c, 0, 84, 0
3, 92468, Note_on_c, 0, 79, 35
3, 92468, Note_on_c, 0, 72, 26
3, 92472, Note_on_c, 0, 75, 32
3, 92696, Note_on_c, 0, 67, 0
3, 92760, Note_on_c, 0, 86, 69
3, 92856, Note_on_c, 0, 86, 0
3, 92944, Note_on_c, 0, 72, 0
3, 92944, Note_on_c, 0, 87, 75
3, 93032, Note_on_c, 0, 67, 5
3, 93068, Note_on_c, 0, 79, 0
3, 93072, Note_on_c, 0, 60, 0
3, 93112, Note_on_c, 0, 87, 0
3, 93144, Note_on_c, 0, 75, 0
3, 93220, Note_on_c, 0, 89, 81
3, 93224, Note_on_c, 0, 60, 58
3, 93236, Control_c, 0, 64, 0
3, 93256, Note_on_c, 0, 67, 0
3, 93296, Control_c, 0, 64, 127
3, 93380, Note_on_c, 0, 89, 0
3, 93488, Note_on_c, 0, 67, 43
3, 93520, Note_on_c, 0, 91, 84
3, 93644, Note_on_c, 0, 91, 0
3, 93824, Note_on_c, 0, 89, 54
3, 93836, Note_on_c, 0, 70, 31
3, 93840, Note_on_c, 0, 84, 48
3, 93860, Control_c, 0, 64, 0
3, 93880, Control_c, 0, 64, 127
3, 94032, Note_on_c, 0, 60, 0
3, 94124, Note_on_c, 0, 89, 0
3, 94148, Note_on_c, 0, 84, 0
3, 94168, Note_on_c, 0, 70, 0
3, 94180, Note_on_c, 0, 87, 56
3, 94184, Note_on_c, 0, 60, 44
3, 94256, Note_on_c, 0, 67, 0
3, 94268, Note_on_c, 0, 87, 0
3, 94364, Note_on_c, 0, 60, 0
3, 94520, Note_on_c, 0, 84, 45
3, 94524, Note_on_c, 0, 60, 39
3, 94536, Note_on_c, 0, 77, 36
3, 94536, Note_on_c, 0, 72, 24
3, 94548, Note_on_c, 0, 80, 28
3, 94560, Control_c, 0, 64, 0
3, 94668, Control_c, 0, 64, 127
3, 94744, Note_on_c, 0, 72, 0
3, 94836, Note_on_c, 0, 77, 0
3, 94868, Note_on_c, 0, 68, 43
3, 94868, Note_on_c, 0, 72, 34
3, 94944, Note_on_c, 0, 80, 0
3, 95112, Note_on_c, 0, 72, 0
3, 95164, Note_on_c, 0, 68, 0
3, 95220, Note_on_c, 0, 84, 0
3, 95260, Note_on_c, 0, 77, 38
3, 95260, Note_on_c, 0, 72, 34
3, 95260, Note_on_c, 0, 80, 23
3, 95276, Note_on_c, 0, 68, 34
3, 95428, Note_on_c, 0, 60, 0
3, 95584, Note_on_c, 0, 72, 0
3, 95628, Note_on_c, 0, 60, 33
3, 95628, Note_on_c, 0, 84, 48
3, 95760, Note_on_c, 0, 77, 0
3, 95800, Note_on_c, 0, 60, 0
3, 95808, Note_on_c, 0, 80, 0
3, 95836, Note_on_c, 0, 84, 0
3, 95884, Note_on_c, 0, 68, 0
3, 96124, Note_on_c, 0, 87, 67
3, 96140, Note_on_c, 0, 60, 40
3, 96168, Control_c, 0, 64, 0
3, 96228, Control_c, 0, 64, 127
3, 96568, Note_on_c, 0, 75, 28
3, 96568, Note_on_c, 0, 65, 22
3, 96580, Note_on_c, 0, 71, 20
3, 96580, Note_on_c, 0, 79, 36
3, 97000, Note_on_c, 0, 87, 0
3, 97148, Note_on_c, 0, 87, 56
3, 97320, Note_on_c, 0, 60, 0
3, 97452, Note_on_c, 0, 87, 0
3, 97488, Note_on_c, 0, 79, 0
3, 97508, Note_on_c, 0, 75, 0
3, 97800, Note_on_c, 0, 86, 40
3, 97804, Note_on_c, 0, 74, 26
3, 97828, Note_on_c, 0, 60, 24
3, 98084, Note_on_c, 0, 71, 0
3, 98124, Note_on_c, 0, 65, 0
3, 98184, Note_on_c, 0, 86, 0
3, 98312, Note_on_c, 0, 60, 0
3, 98336, Note_on_c, 0, 74, 0
3, 101108, Note_on_c, 0, 60, 52
3, 101208, Note_on_c, 0, 79, 40
3, 101212, Note_on_c, 0, 68, 25
3, 101272, Note_on_c, 0, 84, 59
3, 101280, Note_on_c, 0, 76, 24
3, 101320, Note_on_c, 0, 88, 46
3, 101636, Note_on_c, 0, 88, 0
3, 101688, Note_on_c, 0, 76, 0
3, 101768, Note_on_c, 0, 88, 57
3, 101928, Note_on_c, 0, 79, 0
3, 101940, Note_on_c, 0, 68, 0
3, 101952, Note_on_c, 0, 84, 0
3, 101996, Note_on_c, 0, 88, 0
3, 102060, Note_on_c, 0, 79, 48
3, 102084, Note_on_c, 0, 68, 38
3, 102100, Note_on_c, 0, 84, 62
3, 102108, Note_on_c, 0, 74, 24
3, 102120, Note_on_c, 0, 88, 61
3, 102252, Note_on_c, 0, 88, 0
3, 102288, Note_on_c, 0, 60, 0
3, 102296, Note_on_c, 0, 74, 0
3, 102376, Note_on_c, 0, 88, 59
3, 102428, Note_on_c, 0, 84, 0
3, 102444, Note_on_c, 0, 79, 0
3, 102468, Note_on_c, 0, 88, 0
3, 102628, Note_on_c, 0, 89, 74
3, 102636, Note_on_c, 0, 60, 55
3, 102644, Note_on_c, 0, 68, 0
3, 102652, Control_c, 0, 64, 0
3, 102760, Control_c, 0, 64, 127
3, 102836, Note_on_c, 0, 89, 0
3, 102912, Note_on_c, 0, 89, 54
3, 103092, Note_on_c, 0, 89, 0
3, 103156, Note_on_c, 0, 77, 26
3, 103168, Note_on_c, 0, 81, 48
3, 103184, Note_on_c, 0, 67, 39
3, 103192, Note_on_c, 0, 73, 28
3, 103196, Note_on_c, 0, 84, 49
3, 103200, Note_on_c, 0, 89, 56
3, 103368, Note_on_c, 0, 89, 0
3, 103540, Note_on_c, 0, 89, 63
3, 103596, Note_on_c, 0, 73, 0
3, 103672, Note_on_c, 0, 60, 0
3, 103688, Note_on_c, 0, 84, 0
3, 103696, Note_on_c, 0, 89, 0
3, 103700, Note_on_c, 0, 81, 0
3, 103856, Note_on_c, 0, 77, 0
3, 103908, Note_on_c, 0, 86, 61
3, 103920, Note_on_c, 0, 60, 51
3, 103928, Note_on_c, 0, 67, 0
3, 103952, Control_c, 0, 64, 0
3, 104036, Control_c, 0, 64, 127
3, 104124, Note_on_c, 0, 86, 0
3, 104188, Note_on_c, 0, 86, 51
3, 104344, Note_on_c, 0, 86, 0
3, 104428, Note_on_c, 0, 86, 57
3, 104452, Note_on_c, 0, 82, 57
3, 104456, Note_on_c, 0, 66, 38
3, 104476, Note_on_c, 0, 77, 44
3, 104480, Note_on_c, 0, 72, 25
3, 104660, Note_on_c, 0, 86, 0
3, 104688, Note_on_c, 0, 60, 0
3, 104756, Note_on_c, 0, 86, 57
3, 104864, Note_on_c, 0, 86, 0
3, 104968, Note_on_c, 0, 82, 0
3, 104980, Note_on_c, 0, 77, 0
3, 105004, Note_on_c, 0, 60, 40
3, 105008, Note_on_c, 0, 72, 0
3, 105008, Note_on_c, 0, 87, 70
3, 105052, Control_c, 0, 64, 0
3, 105104, Note_on_c, 0, 66, 0
3, 105168, Control_c, 0, 64, 127
3, 105236, Note_on_c, 0, 87, 0
3, 105320, Note_on_c, 0, 87, 56
3, 105528, Note_on_c, 0, 87, 0
3, 105616, Note_on_c, 0, 87, 46
3, 105628, Note_on_c, 0, 71, 25
3, 105632, Note_on_c, 0, 65, 27
3, 105644, Note_on_c, 0, 79, 30
3, 105652, Note_on_c, 0, 83, 39
3, 105820, Note_on_c, 0, 75, 1
3, 105940, Note_on_c, 0, 87, 0
3, 106092, Note_on_c, 0, 87, 40
3, 106360, Note_on_c, 0, 60, 0
3, 106416, Note_on_c, 0, 83, 0
3, 106480, Note_on_c, 0, 87, 0
3, 106496, Note_on_c, 0, 79, 0
3, 106636, Note_on_c, 0, 71, 0
3, 106664, Note_on_c, 0, 75, 0
3, 106676, Note_on_c, 0, 65, 0
3, 107392, Note_on_c, 0, 84, 50
3, 107404, Note_on_c, 0, 77, 35
3, 107412, Note_on_c, 0, 74, 30
3, 107420, Note_on_c, 0, 70, 26
3, 107424, Note_on_c, 0, 67, 32
3, 107424, Note_on_c, 0, 60, 34
3, 107448, Control_c, 0, 64, 0
3, 107624, Control_c, 0, 64, 127
3, 107700, Note_on_c, 0, 84, 0
3, 107784, Note_on_c, 0, 84, 39
3, 107884, Note_on_c, 0, 67, 0
3, 107976, Note_on_c, 0, 84, 0
3, 108016, Note_on_c, 0, 74, 0
3, 108024, Note_on_c, 0, 77, 0
3, 108156, Note_on_c, 0, 84, 40
3, 108164, Note_on_c, 0, 67, 26
3, 108164, Note_on_c, 0, 74, 22
3, 108168, Note_on_c, 0, 77, 35
3, 108264, Note_on_c, 0, 70, 0
3, 108340, Note_on_c, 0, 84, 0
3, 108364, Note_on_c, 0, 67, 0
3, 108492, Note_on_c, 0, 60, 0
3, 108588, Note_on_c, 0, 84, 37
3, 108672, Note_on_c, 0, 77, 0
3, 108752, Note_on_c, 0, 84, 0
3, 108804, Note_on_c, 0, 74, 0
3, 109468, Note_on_c, 0, 86, 37
3, 109484, Note_on_c, 0, 24, 44
3, 109484, Note_on_c, 0, 74, 24
3, 109484, Note_on_c, 0, 78, 25
3, 109500, Note_on_c, 0, 81, 34
3, 109504, Control_c, 0, 64, 0
3, 109524, Note_on_c, 0, 36, 19
3, 109696, Control_c, 0, 64, 127
3, 109764, Note_on_c, 0, 24, 0
3, 109800, Note_on_c, 0, 36, 0
3, 109844, Note_on_c, 0, 86, 0
3, 109988, Note_on_c, 0, 81, 0
3, 110024, Note_on_c, 0, 86, 40
3, 110360, Note_on_c, 0, 74, 0
3, 110384, Note_on_c, 0, 86, 0
3, 110384, Note_on_c, 0, 78, 0
3, 110680, Note_on_c, 0, 86, 33
3, 110696, Note_on_c, 0, 74, 22
3, 110708, Note_on_c, 0, 60, 33
3, 111332, Note_on_c, 0, 86, 0
3, 111472, Note_on_c, 0, 86, 38
3, 111508, Note_on_c, 0, 60, 0
3, 111816, Note_on_c, 0, 74, 0
3, 111876, Note_on_c, 0, 86, 0
3, 112208, Note_on_c, 0, 86, 34
3, 112212, Note_on_c, 0, 72, 28
3, 112332, Note_on_c, 0, 72, 0
3, 112440, Note_on_c, 0, 86, 0
3, 113616, Note_on_c, 0, 77, 37
3, 113628, Note_on_c, 0, 65, 36
3, 113792, Note_on_c, 0, 65, 0
3, 113800, Note_on_c, 0, 77, 0
3, 113840, Note_on_c, 0, 81, 69
3, 113848, Note_on_c, 0, 69, 48
3, 113996, Note_on_c, 0, 81, 0
3, 114020, Note_on_c, 0, 69, 0
3, 114040, Note_on_c, 0, 84, 76
3, 114060, Note_on_c, 0, 72, 50
3, 114152, Note_on_c, 0, 84, 0
3, 114220, Note_on_c, 0, 72, 0
3, 114264, Note_on_c, 0, 88, 96
3, 114272, Note_on_c, 0, 76, 53
3, 114456, Note_on_c, 0, 88, 0
3, 114504, Note_on_c, 0, 76, 0
3, 114540, Note_on_c, 0, 79, 78
3, 114548, Note_on_c, 0, 91, 105
3, 114884, Note_on_c, 0, 79, 0
3, 114972, Note_on_c, 0, 91, 0
3, 116072, Note_on_c, 0, 65, 22
3, 116080, Note_on_c, 0, 63, 17
3, 116096, Note_on_c, 0, 58, 38
3, 116104, Note_on_c, 0, 41, 29
3, 116108, Note_on_c, 0, 55, 22
3, 116116, Note_on_c, 0, 53, 19
3, 116120, Note_on_c, 0, 29, 24
3, 116164, Control_c, 0, 64, 0
3, 116380, Control_c, 0, 64, 127
3, 116516, Note_on_c, 0, 53, 0
3, 116548, Note_on_c, 0, 55, 0
3, 116564, Note_on_c, 0, 29, 0
3, 116600, Note_on_c, 0, 58, 0
3, 116624, Note_on_c, 0, 65, 0
3, 116636, Note_on_c, 0, 41, 0
3, 116664, Note_on_c, 0, 63, 0
3, 117220, Note_on_c, 0, 89, 70
3, 117224, Note_on_c, 0, 77, 48
3, 117232, Note_on_c, 0, 65, 49
3, 117556, Note_on_c, 0, 89, 0
3, 117640, Note_on_c, 0, 77, 0
3, 117800, Note_on_c, 0, 65, 0
3, 117876, Note_on_c, 0, 84, 36
3, 117892, Note_on_c, 0, 60, 32
3, 117900, Note_on_c, 0, 72, 32
3, 117972, Note_on_c, 0, 84, 0
3, 118040, Note_on_c, 0, 72, 0
3, 118276, Note_on_c, 0, 60, 0
3, 118296, Note_on_c, 0, 81, 34
3, 118308, Note_on_c, 0, 69, 28
3, 118324, Note_on_c, 0, 57, 43
3, 118724, Note_on_c, 0, 57, 0
3, 118756, Note_on_c, 0, 69, 0
3, 118784, Note_on_c, 0, 81, 0
3, 119204, Control_c, 0, 64, 0
3, 119224, Note_on_c, 0, 81, 67
3, 119232, Note_on_c, 0, 46, 42
3, 119288, Control_c, 0, 64, 127
3, 119344, Note_on_c, 0, 46, 0
3, 120016, Note_on_c, 0, 62, 24
3, 120024, Note_on_c, 0, 65, 15
3, 120252, Note_on_c, 0, 60, 1
3, 120492, Note_on_c, 0, 81, 0
3, 120532, Note_on_c, 0, 80, 21
3, 120564, Note_on_c, 0, 80, 0
3, 120680, Note_on_c, 0, 78, 13
3, 120712, Note_on_c, 0, 78, 0
3, 120728, Note_on_c, 0, 77, 54
3, 120788, Note_on_c, 0, 77, 0
3, 120844, Note_on_c, 0, 84, 77
3, 120860, Note_on_c, 0, 65, 0
3, 121976, Note_on_c, 0, 57, 51
3, 121984, Control_c, 0, 64, 0
3, 122008, Note_on_c, 0, 60, 0
3, 122056, Note_on_c, 0, 62, 0
3, 122092, Control_c, 0, 64, 127
3, 122440, Note_on_c, 0, 74, 51
3, 122460, Note_on_c, 0, 62, 24
3, 122472, Note_on_c, 0, 65, 28
3, 122764, Note_on_c, 0, 84, 0
3, 122772, Note_on_c, 0, 77, 71
3, 122836, Note_on_c, 0, 57, 0
3, 123036, Note_on_c, 0, 57, 62
3, 123044, Note_on_c, 0, 81, 78
3, 123224, Note_on_c, 0, 57, 0
3, 123316, Note_on_c, 0, 65, 0
3, 123336, Note_on_c, 0, 62, 0
3, 123532, Note_on_c, 0, 74, 0
3, 123688, Note_on_c, 0, 77, 0
3, 123732, Note_on_c, 0, 81, 0
3, 124476, Note_on_c, 0, 55, 54
3, 124532, Note_on_c, 0, 58, 35
3, 124552, Note_on_c, 0, 72, 44
3, 124588, Note_on_c, 0, 77, 42
3, 124596, Note_on_c, 0, 60, 26
3, 124600, Note_on_c, 0, 65, 43
3, 124636, Note_on_c, 0, 81, 49
3, 124648, Control_c, 0, 64, 0
3, 124656, Note_on_c, 0, 84, 64
3, 124816, Control_c, 0, 64, 127
3, 124920, Note_on_c, 0, 72, 0
3, 124976, Note_on_c, 0, 77, 0
3, 124996, Note_on_c, 0, 84, 0
3, 124996, Note_on_c, 0, 81, 0
3, 125040, Note_on_c, 0, 60, 0
3, 125072, Note_on_c, 0, 65, 0
3, 125176, Note_on_c, 0, 58, 0
3, 125224, Note_on_c, 0, 76, 35
3, 125280, Note_on_c, 0, 58, 15
3, 125280, Note_on_c, 0, 84, 60
3, 125284, Note_on_c, 0, 65, 44
3, 125292, Note_on_c, 0, 60, 24
3, 125296, Note_on_c, 0, 88, 52
3, 125664, Note_on_c, 0, 88, 0
3, 125772, Note_on_c, 0, 88, 60
3, 125992, Note_on_c, 0, 88, 0
3, 126056, Note_on_c, 0, 60, 0
3, 126056, Note_on_c, 0, 65, 0
3, 126080, Note_on_c, 0, 55, 0
3, 126108, Note_on_c, 0, 58, 0
3, 126116, Note_on_c, 0, 88, 48
3, 126348, Note_on_c, 0, 88, 0
3, 126588, Note_on_c, 0, 24, 40
3, 126604, Control_c, 0, 64, 0
3, 126604, Note_on_c, 0, 88, 44
3, 126696, Control_c, 0, 64, 127
3, 126700, Note_on_c, 0, 24, 0
3, 126924, Note_on_c, 0, 88, 0
3, 126960, Note_on_c, 0, 84, 0
3, 127000, Note_on_c, 0, 76, 0
3, 127304, Note_on_c, 0, 84, 77
3, 127308, Note_on_c, 0, 73, 87
3, 127308, Note_on_c, 0, 76, 72
3, 127316, Note_on_c, 0, 72, 88
3, 127320, Note_on_c, 0, 79, 66
3, 127324, Note_on_c, 0, 82, 52
3, 127332, Control_c, 0, 64, 0
3, 127404, Control_c, 0, 64, 127
3, 127608, Note_on_c, 0, 84, 0
3, 127612, Note_on_c, 0, 72, 0
3, 127628, Note_on_c, 0, 82, 0
3, 127632, Note_on_c, 0, 79, 0
3, 127636, Note_on_c, 0, 76, 0
3, 127708, Note_on_c, 0, 73, 0
3, 127892, Note_on_c, 0, 73, 58
3, 127892, Note_on_c, 0, 70, 65
3, 127892, Note_on_c, 0, 81, 55
3, 127900, Note_on_c, 0, 76, 38
3, 127904, Note_on_c, 0, 69, 53
3, 127940, Control_c, 0, 64, 0
3, 127964, Control_c, 0, 64, 127
3, 128096, Note_on_c, 0, 81, 0
3, 128124, Note_on_c, 0, 69, 0
3, 128136, Note_on_c, 0, 76, 0
3, 128160, Note_on_c, 0, 73, 0
3, 128196, Note_on_c, 0, 70, 0
3, 128508, Note_on_c, 0, 66, 30
3, 128508, Note_on_c, 0, 77, 35
3, 128512, Note_on_c, 0, 69, 50
3, 128524, Note_on_c, 0, 65, 34
3, 128524, Note_on_c, 0, 72, 38
3, 128564, Control_c, 0, 64, 0
3, 128620, Control_c, 0, 64, 127
3, 128744, Note_on_c, 0, 69, 0
3, 128768, Note_on_c, 0, 72, 0
3, 128780, Note_on_c, 0, 65, 0
3, 128812, Note_on_c, 0, 66, 0
3, 128816, Note_on_c, 0, 77, 0
3, 129196, Note_on_c, 0, 81, 39
3, 129212, Note_on_c, 0, 76, 24
3, 129212, Note_on_c, 0, 69, 26
3, 129216, Note_on_c, 0, 64, 34
3, 129220, Note_on_c, 0, 74, 24
3, 129228, Control_c, 0, 64, 0
3, 129372, Control_c, 0, 64, 127
3, 129572, Note_on_c, 0, 76, 0
3, 129572, Note_on_c, 0, 81, 0
3, 129576, Note_on_c, 0, 74, 0
3, 129584, Note_on_c, 0, 53, 27
3, 129628, Note_on_c, 0, 69, 0
3, 129628, Note_on_c, 0, 64, 0
3, 129892, Note_on_c, 0, 67, 46
3, 129896, Note_on_c, 0, 69, 52
3, 129904, Note_on_c, 0, 60, 24
3, 130092, Note_on_c, 0, 60, 0
3, 130140, Note_on_c, 0, 53, 0
3, 130184, Note_on_c, 0, 67, 0
3, 130204, Note_on_c, 0, 72, 78
3, 130276, Note_on_c, 0, 69, 0
3, 130484, Note_on_c, 0, 72, 0
3, 130500, Control_c, 0, 64, 0
3, 130508, Note_on_c, 0, 45, 66
3, 130528, Note_on_c, 0, 73, 59
3, 130572, Note_on_c, 0, 45, 0
3, 130584, Control_c, 0, 64, 127
3, 130652, Note_on_c, 0, 73, 0
3, 130772, Note_on_c, 0, 77, 74
3, 130948, Note_on_c, 0, 77, 0
3, 130972, Note_on_c, 0, 82, 82
3, 131120, Note_on_c, 0, 82, 0
3, 131192, Note_on_c, 0, 84, 71
3, 131428, Note_on_c, 0, 89, 66
3, 131444, Note_on_c, 0, 66, 44
3, 131448, Note_on_c, 0, 55, 57
3, 131456, Note_on_c, 0, 61, 39
3, 131500, Control_c, 0, 64, 0
3, 131632, Control_c, 0, 64, 127
3, 131720, Note_on_c, 0, 94, 82
3, 132000, Note_on_c, 0, 94, 0
3, 132012, Note_on_c, 0, 89, 0
3, 132028, Note_on_c, 0, 66, 0
3, 132036, Note_on_c, 0, 96, 72
3, 132080, Note_on_c, 0, 84, 0
3, 132104, Note_on_c, 0, 55, 0
3, 132132, Note_on_c, 0, 61, 0
3, 132204, Note_on_c, 0, 96, 0
3, 132372, Note_on_c, 0, 103, 77
3, 132380, Note_on_c, 0, 101, 71
3, 132404, Note_on_c, 0, 101, 0
3, 132644, Note_on_c, 0, 103, 0
3, 132696, Note_on_c, 0, 101, 76
3, 132712, Note_on_c, 0, 50, 45
3, 132716, Note_on_c, 0, 57, 51
3, 132724, Control_c, 0, 64, 0
3, 132844, Control_c, 0, 64, 127
3, 132912, Note_on_c, 0, 97, 73
3, 132936, Note_on_c, 0, 101, 0
3, 133092, Note_on_c, 0, 97, 0
3, 133092, Note_on_c, 0, 100, 77
3, 133228, Note_on_c, 0, 98, 72
3, 133304, Note_on_c, 0, 100, 0
3, 133344, Note_on_c, 0, 98, 0
3, 133360, Note_on_c, 0, 93, 71
3, 133448, Note_on_c, 0, 93, 0
3, 133492, Note_on_c, 0, 91, 71
3, 133628, Note_on_c, 0, 91, 0
3, 133656, Note_on_c, 0, 89, 58
3, 133676, Control_c, 0, 64, 0
3, 133684, Note_on_c, 0, 62, 37
3, 133724, Control_c, 0, 64, 127
3, 134164, Note_on_c, 0, 62, 0
3, 134168, Note_on_c, 0, 89, 0
3, 134196, Note_on_c, 0, 88, 63
3, 134236, Note_on_c, 0, 57, 0
3, 134260, Note_on_c, 0, 50, 0
3, 134332, Note_on_c, 0, 88, 0
3, 134352, Note_on_c, 0, 89, 73
3, 134528, Note_on_c, 0, 89, 0
3, 134544, Note_on_c, 0, 44, 57
3, 134556, Control_c, 0, 64, 0
3, 134556, Note_on_c, 0, 91, 75
3, 134656, Control_c, 0, 64, 127
3, 134672, Note_on_c, 0, 44, 0
3, 134736, Note_on_c, 0, 89, 62
3, 134792, Note_on_c, 0, 91, 0
3, 134876, Note_on_c, 0, 89, 0
3, 134928, Note_on_c, 0, 86, 61
3, 135044, Note_on_c, 0, 86, 0
3, 135096, Note_on_c, 0, 82, 58
3, 135172, Note_on_c, 0, 82, 0
3, 135336, Note_on_c, 0, 77, 44
3, 135368, Note_on_c, 0, 65, 27
3, 135372, Note_on_c, 0, 54, 33
3, 135376, Note_on_c, 0, 60, 24
3, 135440, Note_on_c, 0, 77, 0
3, 135584, Note_on_c, 0, 73, 33
3, 135612, Note_on_c, 0, 74, 53
3, 135616, Note_on_c, 0, 73, 0
3, 135648, Note_on_c, 0, 65, 0
3, 135804, Note_on_c, 0, 74, 0
3, 135864, Note_on_c, 0, 70, 44
3, 135972, Note_on_c, 0, 60, 0
3, 136016, Note_on_c, 0, 54, 0
3, 136120, Note_on_c, 0, 65, 28
3, 136276, Note_on_c, 0, 70, 0
3, 136316, Note_on_c, 0, 65, 0
3, 136388, Control_c, 0, 64, 0
3, 136392, Note_on_c, 0, 43, 36
3, 136408, Note_on_c, 0, 65, 48
3, 136416, Note_on_c, 0, 53, 28
3, 136496, Control_c, 0, 64, 127
3, 136640, Note_on_c, 0, 43, 0
3, 136680, Note_on_c, 0, 69, 64
3, 136684, Note_on_c, 0, 53, 0
3, 136796, Note_on_c, 0, 65, 0
3, 136840, Note_on_c, 0, 69, 0
3, 136912, Note_on_c, 0, 69, 63
3, 136932, Note_on_c, 0, 64, 24
3, 136936, Note_on_c, 0, 59, 31
3, 137064, Note_on_c, 0, 69, 0
3, 137088, Note_on_c, 0, 73, 70
3, 137184, Note_on_c, 0, 73, 0
3, 137244, Note_on_c, 0, 73, 56
3, 137284, Note_on_c, 0, 64, 0
3, 137320, Note_on_c, 0, 73, 0
3, 137388, Note_on_c, 0, 76, 58
3, 137476, Note_on_c, 0, 76, 0
3, 137536, Note_on_c, 0, 76, 71
3, 137640, Note_on_c, 0, 76, 0
3, 137680, Note_on_c, 0, 88, 63
3, 137688, Note_on_c, 0, 81, 68
3, 137716, Note_on_c, 0, 64, 44
3, 137784, Note_on_c, 0, 88, 0
3, 137792, Note_on_c, 0, 81, 0
3, 137868, Note_on_c, 0, 88, 58
3, 137872, Note_on_c, 0, 81, 54
3, 137984, Note_on_c, 0, 88, 0
3, 137988, Note_on_c, 0, 64, 0
3, 138004, Note_on_c, 0, 81, 0
3, 138028, Note_on_c, 0, 85, 46
3, 138040, Note_on_c, 0, 76, 25
3, 138136, Note_on_c, 0, 85, 0
3, 138148, Note_on_c, 0, 76, 0
3, 138216, Note_on_c, 0, 85, 32
3, 138220, Note_on_c, 0, 76, 33
3, 138324, Note_on_c, 0, 76, 0
3, 138336, Note_on_c, 0, 85, 0
3, 138400, Note_on_c, 0, 88, 39
3, 138404, Note_on_c, 0, 81, 42
3, 138436, Note_on_c, 0, 64, 24
3, 138504, Note_on_c, 0, 81, 0
3, 138504, Note_on_c, 0, 88, 0
3, 138596, Note_on_c, 0, 88, 30
3, 138600, Note_on_c, 0, 81, 39
3, 138628, Note_on_c, 0, 64, 0
3, 138728, Note_on_c, 0, 88, 0
3, 138736, Note_on_c, 0, 81, 0
3, 138780, Note_on_c, 0, 85, 33
3, 138784, Note_on_c, 0, 76, 24
3, 138888, Note_on_c, 0, 85, 0
3, 138896, Note_on_c, 0, 76, 0
3, 139060, Note_on_c, 0, 76, 24
3, 139064, Note_on_c, 0, 85, 34
3, 139072, Note_on_c, 0, 81, 33
3, 139092, Note_on_c, 0, 64, 20
3, 139480, Note_on_c, 0, 85, 0
3, 139500, Note_on_c, 0, 81, 0
3, 139600, Note_on_c, 0, 76, 0
3, 139692, Note_on_c, 0, 64, 0
3, 139736, Note_on_c, 0, 59, 0
3, 140256, Note_on_c, 0, 58, 50
3, 140256, Note_on_c, 0, 46, 42
3, 140456, Note_on_c, 0, 46, 0
3, 140460, Note_on_c, 0, 58, 0
3, 140460, Note_on_c, 0, 62, 69
3, 140476, Note_on_c, 0, 50, 48
3, 140648, Note_on_c, 0, 50, 0
3, 140672, Note_on_c, 0, 53, 60
3, 140676, Note_on_c, 0, 65, 76
3, 140696, Note_on_c, 0, 53, 0
3, 140800, Note_on_c, 0, 62, 0
3, 140816, Note_on_c, 0, 65, 0
3, 140932, Control_c, 0, 64, 0
3, 140940, Note_on_c, 0, 58, 80
3, 140944, Note_on_c, 0, 69, 68
3, 140944, Note_on_c, 0, 31, 62
3, 140948, Note_on_c, 0, 62, 69
3, 140948, Note_on_c, 0, 43, 43
3, 140952, Note_on_c, 0, 65, 68
3, 141036, Control_c, 0, 64, 127
3, 141084, Note_on_c, 0, 62, 0
3, 141088, Note_on_c, 0, 58, 0
3, 141088, Note_on_c, 0, 65, 0
3, 141104, Note_on_c, 0, 69, 0
3, 141228, Note_on_c, 0, 31, 0
3, 141296, Note_on_c, 0, 43, 0
3, 141368, Note_on_c, 0, 33, 68
3, 141368, Note_on_c, 0, 72, 74
3, 141372, Note_on_c, 0, 45, 80
3, 141376, Note_on_c, 0, 65, 80
3, 141380, Note_on_c, 0, 60, 78
3, 141384, Note_on_c, 0, 69, 64
3, 141408, Control_c, 0, 64, 0
3, 141540, Control_c, 0, 64, 127
3, 141612, Note_on_c, 0, 69, 0
3, 141624, Note_on_c, 0, 72, 0
3, 141660, Note_on_c, 0, 65, 0
3, 141708, Note_on_c, 0, 60, 0
3, 141776, Note_on_c, 0, 33, 0
3, 141856, Note_on_c, 0, 45, 0
3, 141944, Note_on_c, 0, 61, 71
3, 141952, Note_on_c, 0, 59, 54
3, 141956, Note_on_c, 0, 34, 64
3, 141964, Note_on_c, 0, 46, 74
3, 141984, Control_c, 0, 64, 0
3, 141988, Note_on_c, 0, 59, 0
3, 142048, Note_on_c, 0, 62, 64
3, 142052, Note_on_c, 0, 61, 0
3, 142176, Control_c, 0, 64, 127
3, 142444, Note_on_c, 0, 62, 0
3, 142460, Note_on_c, 0, 65, 47
3, 142488, Note_on_c, 0, 62, 17
3, 142524, Note_on_c, 0, 58, 20
3, 142752, Note_on_c, 0, 46, 0
3, 142756, Note_on_c, 0, 34, 0
3, 142772, Note_on_c, 0, 58, 0
3, 142820, Note_on_c, 0, 62, 0
3, 142876, Note_on_c, 0, 65, 0
3, 143316, Note_on_c, 0, 65, 34
3, 143324, Note_on_c, 0, 58, 37
3, 143328, Note_on_c, 0, 62, 34
3, 143332, Control_c, 0, 64, 0
3, 143336, Note_on_c, 0, 36, 35
3, 143336, Note_on_c, 0, 53, 24
3, 143344, Note_on_c, 0, 48, 26
3, 143540, Control_c, 0, 64, 127
3, 143944, Note_on_c, 0, 53, 0
3, 144012, Note_on_c, 0, 58, 0
3, 144032, Note_on_c, 0, 62, 0
3, 144072, Note_on_c, 0, 65, 0
3, 144184, Note_on_c, 0, 48, 0
3, 144320, Note_on_c, 0, 65, 30
3, 144324, Note_on_c, 0, 62, 32
3, 144336, Note_on_c, 0, 58, 26
3, 144456, Note_on_c, 0, 36, 0
3, 145208, Note_on_c, 0, 62, 0
3, 145280, Note_on_c, 0, 58, 0
3, 145288, Note_on_c, 0, 65, 0
3, 145636, Note_on_c, 0, 58, 45
3, 145644, Note_on_c, 0, 65, 36
3, 145644, Note_on_c, 0, 62, 38
3, 145648, Control_c, 0, 64, 0
3, 145652, Note_on_c, 0, 29, 31
3, 145656, Note_on_c, 0, 41, 31
3, 145764, Control_c, 0, 64, 127
3, 146332, Note_on_c, 0, 58, 0
3, 146532, Note_on_c, 0, 65, 0
3, 146548, Note_on_c, 0, 58, 33
3, 146652, Note_on_c, 0, 29, 0
3, 146740, Note_on_c, 0, 41, 0
3, 146840, Note_on_c, 0, 58, 0
3, 147196, Note_on_c, 0, 62, 0
3, 147276, Note_on_c, 0, 56, 25
3, 147296, Note_on_c, 0, 65, 33
3, 147332, Note_on_c, 0, 41, 27
3, 147340, Note_on_c, 0, 29, 27
3, 147368, Control_c, 0, 64, 0
3, 147432, Note_on_c, 0, 57, 42
3, 147444, Note_on_c, 0, 56, 0
3, 147784, Control_c, 0, 64, 127
3, 148684, Note_on_c, 0, 57, 0
3, 148940, Note_on_c, 0, 29, 0
3, 149048, Note_on_c, 0, 41, 0
3, 149144, Note_on_c, 0, 65, 0
3, 149692, Note_on_c, 0, 65, 36
3, 149704, Note_on_c, 0, 62, 40
3, 149704, Note_on_c, 0, 58, 30
3, 149716, Control_c, 0, 64, 0
3, 149724, Note_on_c, 0, 48, 25
3, 149724, Note_on_c, 0, 55, 30
3, 149808, Control_c, 0, 64, 127
3, 150084, Note_on_c, 0, 62, 0
3, 150112, Note_on_c, 0, 58, 0
3, 150256, Note_on_c, 0, 65, 0
3, 150268, Note_on_c, 0, 48, 0
3, 150296, Note_on_c, 0, 55, 0
3, 150576, Note_on_c, 0, 65, 62
3, 150612, Note_on_c, 0, 65, 0
3, 150668, Control_c, 0, 64, 0
3, 150748, Note_on_c, 0, 69, 44
3, 150864, Note_on_c, 0, 69, 0
3, 151016, Control_c, 0, 64, 127
3, 151116, Note_on_c, 0, 72, 49
3, 151188, Note_on_c, 0, 72, 0
3, 151288, Note_on_c, 0, 41, 35
3, 151292, Control_c, 0, 64, 0
3, 151300, Note_on_c, 0, 76, 34
3, 151312, Note_on_c, 0, 57, 32
3, 151352, Note_on_c, 0, 41, 0
3, 151384, Control_c, 0, 64, 127
3, 151428, Note_on_c, 0, 57, 0
3, 151612, Note_on_c, 0, 76, 0
3, 151684, Note_on_c, 0, 79, 37
3, 151688, Note_on_c, 0, 67, 51
3, 151696, Note_on_c, 0, 74, 38
3, 151732, Note_on_c, 0, 67, 0
3, 151748, Note_on_c, 0, 74, 0
3, 151776, Note_on_c, 0, 79, 0
3, 151824, Control_c, 0, 64, 0
3, 151852, Note_on_c, 0, 53, 30
3, 151860, Note_on_c, 0, 57, 28
3, 151872, Note_on_c, 0, 60, 24
3, 151908, Note_on_c, 0, 62, 2
3, 151916, Control_c, 0, 64, 127
3, 152004, Note_on_c, 0, 60, 0
3, 152020, Note_on_c, 0, 62, 0
3, 152020, Note_on_c, 0, 57, 0
3, 152088, Note_on_c, 0, 53, 0
3, 152424, Note_on_c, 0, 41, 55
3, 152424, Control_c, 0, 64, 0
3, 152460, Note_on_c, 0, 41, 0
3, 152472, Control_c, 0, 64, 127
3, 152972, Control_c, 0, 64, 0
3, 153000, Note_on_c, 0, 51, 61
3, 153004, Note_on_c, 0, 77, 91
3, 153012, Note_on_c, 0, 57, 53
3, 153056, Control_c, 0, 64, 127
3, 153224, Note_on_c, 0, 77, 0
3, 153232, Note_on_c, 0, 51, 0
3, 153260, Note_on_c, 0, 57, 0
3, 153444, Note_on_c, 0, 74, 39
3, 153444, Note_on_c, 0, 72, 35
3, 153516, Note_on_c, 0, 74, 0
3, 153580, Note_on_c, 0, 72, 0
3, 153600, Note_on_c, 0, 69, 62
3, 153616, Note_on_c, 0, 62, 37
3, 153620, Note_on_c, 0, 65, 34
3, 153632, Control_c, 0, 64, 0
3, 153636, Note_on_c, 0, 60, 33
3, 153676, Note_on_c, 0, 69, 0
3, 153772, Note_on_c, 0, 69, 43
3, 153788, Control_c, 0, 64, 127
3, 153924, Note_on_c, 0, 69, 0
3, 153936, Note_on_c, 0, 72, 62
3, 154048, Note_on_c, 0, 65, 0
3, 154084, Note_on_c, 0, 60, 0
3, 154128, Note_on_c, 0, 62, 0
3, 154224, Note_on_c, 0, 58, 76
3, 154228, Note_on_c, 0, 65, 52
3, 154244, Note_on_c, 0, 62, 30
3, 154256, Control_c, 0, 64, 0
3, 154340, Control_c, 0, 64, 127
3, 154624, Note_on_c, 0, 62, 0
3, 154640, Note_on_c, 0, 65, 0
3, 154640, Note_on_c, 0, 58, 0
3, 154832, Note_on_c, 0, 65, 46
3, 154836, Note_on_c, 0, 72, 0
3, 154836, Control_c, 0, 64, 0
3, 154836, Note_on_c, 0, 62, 32
3, 154852, Note_on_c, 0, 57, 40
3, 154948, Control_c, 0, 64, 127
3, 155176, Note_on_c, 0, 62, 0
3, 155184, Note_on_c, 0, 65, 0
3, 155240, Note_on_c, 0, 74, 74
3, 155404, Note_on_c, 0, 65, 51
3, 155420, Note_on_c, 0, 62, 31
3, 155428, Note_on_c, 0, 65, 0
3, 155452, Note_on_c, 0, 62, 0
3, 155488, Note_on_c, 0, 57, 0
3, 155608, Note_on_c, 0, 74, 0
3, 155608, Note_on_c, 0, 77, 53
3, 155684, Note_on_c, 0, 77, 0
3, 155772, Note_on_c, 0, 81, 75
3, 155784, Note_on_c, 0, 50, 53
3, 155860, Note_on_c, 0, 81, 0
3, 155868, Note_on_c, 0, 50, 0
3, 155920, Control_c, 0, 64, 0
3, 155960, Note_on_c, 0, 43, 47
3, 155964, Note_on_c, 0, 84, 67
3, 155972, Note_on_c, 0, 72, 50
3, 155992, Note_on_c, 0, 43, 0
3, 156000, Note_on_c, 0, 72, 0
3, 156040, Note_on_c, 0, 84, 0
3, 156172, Note_on_c, 0, 87, 60
3, 156184, Note_on_c, 0, 75, 63
3, 156280, Note_on_c, 0, 87, 0
3, 156300, Note_on_c, 0, 75, 0
3, 156316, Note_on_c, 0, 76, 34
3, 156320, Control_c, 0, 64, 127
3, 156412, Note_on_c, 0, 88, 43
3, 156496, Note_on_c, 0, 88, 0
3, 156520, Control_c, 0, 64, 0
3, 156528, Note_on_c, 0, 76, 0
3, 156528, Note_on_c, 0, 62, 45
3, 156536, Note_on_c, 0, 58, 57
3, 156560, Note_on_c, 0, 57, 22
3, 156584, Note_on_c, 0, 57, 0
3, 156596, Note_on_c, 0, 62, 0
3, 156620, Control_c, 0, 64, 127
3, 156632, Note_on_c, 0, 58, 0
3, 156896, Note_on_c, 0, 48, 47
3, 157048, Note_on_c, 0, 48, 0
3, 157108, Note_on_c, 0, 58, 51
3, 157112, Control_c, 0, 64, 0
3, 157120, Note_on_c, 0, 72, 60
3, 157128, Note_on_c, 0, 62, 50
3, 157132, Note_on_c, 0, 69, 45
3, 157136, Note_on_c, 0, 65, 52
3, 157140, Note_on_c, 0, 48, 22
3, 157184, Note_on_c, 0, 69, 0
3, 157188, Note_on_c, 0, 65, 0
3, 157192, Control_c, 0, 64, 127
3, 157196, Note_on_c, 0, 62, 0
3, 157200, Note_on_c, 0, 72, 0
3, 157244, Note_on_c, 0, 58, 0
3, 157496, Note_on_c, 0, 69, 51
3, 157500, Note_on_c, 0, 58, 51
3, 157504, Note_on_c, 0, 61, 43
3, 157512, Note_on_c, 0, 57, 40
3, 157520, Note_on_c, 0, 64, 40
3, 157552, Control_c, 0, 64, 0
3, 157620, Note_on_c, 0, 64, 0
3, 157668, Control_c, 0, 64, 127
3, 157704, Note_on_c, 0, 69, 0
3, 157704, Note_on_c, 0, 57, 0
3, 157728, Note_on_c, 0, 64, 34
3, 157756, Note_on_c, 0, 48, 0
3, 157916, Note_on_c, 0, 61, 0
3, 157968, Note_on_c, 0, 58, 0
3, 157992, Note_on_c, 0, 64, 0
3, 158100, Note_on_c, 0, 57, 39
3, 158100, Note_on_c, 0, 64, 51
3, 158104, Note_on_c, 0, 69, 54
3, 158108, Note_on_c, 0, 62, 38
3, 158160, Note_on_c, 0, 57, 0
3, 158176, Note_on_c, 0, 48, 4
3, 158192, Control_c, 0, 64, 0
3, 158232, Note_on_c, 0, 62, 0
3, 158272, Note_on_c, 0, 64, 0
3, 158296, Note_on_c, 0, 48, 0
3, 158304, Note_on_c, 0, 69, 0
3, 158316, Control_c, 0, 64, 127
3, 158320, Note_on_c, 0, 41, 25
3, 158364, Note_on_c, 0, 41, 0
3, 158908, Note_on_c, 0, 62, 44
3, 158924, Note_on_c, 0, 57, 53
3, 158928, Note_on_c, 0, 60, 35
3, 158932, Note_on_c, 0, 53, 24
3, 158940, Note_on_c, 0, 62, 0
3, 158944, Control_c, 0, 64, 0
3, 158960, Note_on_c, 0, 60, 0
3, 158972, Note_on_c, 0, 57, 0
3, 158992, Note_on_c, 0, 53, 0
3, 159060, Note_on_c, 0, 72, 58
3, 159144, Note_on_c, 0, 72, 0
3, 159164, Note_on_c, 0, 73, 56
3, 159216, Note_on_c, 0, 73, 0
3, 159288, Note_on_c, 0, 77, 50
3, 159356, Note_on_c, 0, 77, 0
3, 159360, Control_c, 0, 64, 127
3, 159376, Note_on_c, 0, 82, 71
3, 159456, Note_on_c, 0, 82, 0
3, 159468, Control_c, 0, 64, 0
3, 159488, Note_on_c, 0, 84, 80
3, 159504, Note_on_c, 0, 45, 61
3, 159536, Note_on_c, 0, 45, 0
3, 159576, Note_on_c, 0, 84, 0
3, 159620, Note_on_c, 0, 82, 57
3, 159660, Note_on_c, 0, 82, 0
3, 159772, Note_on_c, 0, 77, 30
3, 159800, Note_on_c, 0, 77, 0
3, 159940, Control_c, 0, 64, 127
3, 160100, Control_c, 0, 64, 0
3, 160108, Note_on_c, 0, 61, 34
3, 160112, Note_on_c, 0, 65, 32
3, 160120, Note_on_c, 0, 55, 29
3, 160144, Note_on_c, 0, 65, 0
3, 160168, Note_on_c, 0, 55, 0
3, 160172, Note_on_c, 0, 61, 0
3, 160240, Note_on_c, 0, 73, 56
3, 160304, Note_on_c, 0, 73, 0
3, 160360, Note_on_c, 0, 75, 65
3, 160412, Note_on_c, 0, 75, 0
3, 160468, Note_on_c, 0, 76, 70
3, 160532, Note_on_c, 0, 76, 0
3, 160584, Note_on_c, 0, 79, 83
3, 160592, Control_c, 0, 64, 127
3, 160660, Note_on_c, 0, 79, 0
3, 160684, Control_c, 0, 64, 0
3, 160696, Note_on_c, 0, 77, 64
3, 160736, Note_on_c, 0, 50, 29
3, 160744, Note_on_c, 0, 57, 31
3, 160780, Note_on_c, 0, 77, 0
3, 160808, Note_on_c, 0, 73, 42
3, 160840, Note_on_c, 0, 73, 0
3, 160920, Note_on_c, 0, 76, 48
3, 161012, Note_on_c, 0, 74, 42
3, 161016, Note_on_c, 0, 76, 0
3, 161080, Note_on_c, 0, 74, 0
3, 161116, Note_on_c, 0, 69, 54
3, 161132, Note_on_c, 0, 57, 0
3, 161160, Note_on_c, 0, 69, 0
3, 161220, Note_on_c, 0, 74, 27
3, 161240, Note_on_c, 0, 67, 53
3, 161300, Note_on_c, 0, 74, 0
3, 161324, Note_on_c, 0, 67, 0
3, 161364, Note_on_c, 0, 65, 56
3, 161392, Note_on_c, 0, 57, 28
3, 161416, Note_on_c, 0, 65, 0
3, 161512, Note_on_c, 0, 67, 68
3, 161640, Note_on_c, 0, 67, 0
3, 161696, Note_on_c, 0, 50, 0
3, 161740, Control_c, 0, 64, 127
3, 161752, Note_on_c, 0, 67, 65
3, 161772, Note_on_c, 0, 57, 0
3, 161868, Note_on_c, 0, 67, 0
3, 161892, Note_on_c, 0, 65, 58
3, 161952, Note_on_c, 0, 65, 0
3, 162004, Control_c, 0, 64, 0
3, 162040, Note_on_c, 0, 67, 56
3, 162040, Note_on_c, 0, 54, 42
3, 162048, Note_on_c, 0, 60, 27
3, 162124, Control_c, 0, 64, 127
3, 162180, Note_on_c, 0, 67, 0
3, 162208, Note_on_c, 0, 70, 53
3, 162264, Note_on_c, 0, 54, 0
3, 162280, Note_on_c, 0, 70, 0
3, 162308, Note_on_c, 0, 60, 0
3, 162372, Note_on_c, 0, 74, 67
3, 162456, Note_on_c, 0, 74, 0
3, 162528, Note_on_c, 0, 77, 71
3, 162648, Control_c, 0, 64, 0
3, 162652, Note_on_c, 0, 77, 0
3, 162664, Note_on_c, 0, 65, 50
3, 162672, Note_on_c, 0, 54, 33
3, 162676, Note_on_c, 0, 60, 42
3, 162680, Note_on_c, 0, 82, 67
3, 162688, Note_on_c, 0, 58, 50
3, 162740, Control_c, 0, 64, 127
3, 162748, Note_on_c, 0, 82, 0
3, 162840, Note_on_c, 0, 86, 62
3, 162916, Note_on_c, 0, 86, 0
3, 162984, Note_on_c, 0, 60, 0
3, 162984, Note_on_c, 0, 65, 0
3, 162984, Note_on_c, 0, 89, 65
3, 163056, Note_on_c, 0, 58, 0
3, 163084, Note_on_c, 0, 89, 0
3, 163128, Note_on_c, 0, 54, 0
3, 163148, Note_on_c, 0, 93, 75
3, 163208, Note_on_c, 0, 93, 0
3, 163272, Control_c, 0, 64, 0
3, 163288, Note_on_c, 0, 64, 36
3, 163296, Note_on_c, 0, 53, 41
3, 163296, Note_on_c, 0, 59, 44
3, 163308, Note_on_c, 0, 100, 74
3, 163312, Note_on_c, 0, 93, 72
3, 163412, Control_c, 0, 64, 127
3, 163424, Note_on_c, 0, 64, 0
3, 163444, Note_on_c, 0, 93, 0
3, 163448, Note_on_c, 0, 59, 0
3, 163468, Note_on_c, 0, 100, 0
3, 163476, Note_on_c, 0, 97, 45
3, 163476, Note_on_c, 0, 88, 43
3, 163492, Note_on_c, 0, 53, 0
3, 163572, Note_on_c, 0, 88, 0
3, 163584, Note_on_c, 0, 97, 0
3, 163632, Note_on_c, 0, 100, 64
3, 163644, Note_on_c, 0, 93, 62
3, 163724, Note_on_c, 0, 93, 0
3, 163736, Note_on_c, 0, 100, 0
3, 163796, Note_on_c, 0, 88, 41
3, 163796, Note_on_c, 0, 97, 44
3, 163872, Note_on_c, 0, 88, 0
3, 163892, Note_on_c, 0, 97, 0
3, 163912, Control_c, 0, 64, 0
3, 163924, Note_on_c, 0, 50, 33
3, 163940, Note_on_c, 0, 43, 35
3, 163940, Note_on_c, 0, 100, 44
3, 163944, Note_on_c, 0, 93, 46
3, 163964, Control_c, 0, 64, 127
3, 164016, Note_on_c, 0, 43, 0
3, 164056, Note_on_c, 0, 50, 0
3, 164060, Note_on_c, 0, 93, 0
3, 164092, Note_on_c, 0, 100, 0
3, 164120, Note_on_c, 0, 97, 39
3, 164120, Note_on_c, 0, 88, 46
3, 164192, Note_on_c, 0, 88, 0
3, 164204, Note_on_c, 0, 97, 0
3, 164256, Note_on_c, 0, 100, 44
3, 164260, Note_on_c, 0, 93, 49
3, 164344, Note_on_c, 0, 93, 0
3, 164372, Note_on_c, 0, 100, 0
3, 164416, Note_on_c, 0, 88, 39
3, 164440, Note_on_c, 0, 97, 37
3, 164492, Note_on_c, 0, 88, 0
3, 164504, Note_on_c, 0, 97, 0
3, 164572, Note_on_c, 0, 59, 35
3, 164572, Note_on_c, 0, 64, 36
3, 164580, Control_c, 0, 64, 0
3, 164584, Note_on_c, 0, 53, 28
3, 164584, Note_on_c, 0, 100, 44
3, 164584, Note_on_c, 0, 93, 37
3, 164596, Control_c, 0, 64, 127
3, 164652, Note_on_c, 0, 93, 0
3, 164656, Note_on_c, 0, 100, 0
3, 164680, Note_on_c, 0, 88, 1
3, 164732, Note_on_c, 0, 88, 0
3, 164732, Note_on_c, 0, 64, 0
3, 164748, Note_on_c, 0, 59, 0
3, 164800, Note_on_c, 0, 53, 0
3, 165172, Note_on_c, 0, 64, 46
3, 165172, Note_on_c, 0, 61, 39
3, 165180, Note_on_c, 0, 43, 35
3, 165192, Note_on_c, 0, 59, 30
3, 165196, Control_c, 0, 64, 0
3, 165200, Note_on_c, 0, 53, 24
3, 165200, Note_on_c, 0, 50, 24
3, 165296, Control_c, 0, 64, 127
3, 165540, Note_on_c, 0, 59, 0
3, 165544, Note_on_c, 0, 53, 0
3, 165568, Note_on_c, 0, 64, 0
3, 165584, Note_on_c, 0, 43, 0
3, 165628, Note_on_c, 0, 50, 0
3, 165632, Note_on_c, 0, 61, 0
3, 165796, Note_on_c, 0, 43, 34
3, 165800, Note_on_c, 0, 62, 47
3, 165812, Control_c, 0, 64, 0
3, 165812, Note_on_c, 0, 53, 30
3, 165816, Note_on_c, 0, 58, 34
3, 165896, Control_c, 0, 64, 127
3, 165988, Note_on_c, 0, 53, 0
3, 166072, Note_on_c, 0, 43, 0
3, 166088, Note_on_c, 0, 62, 0
3, 166152, Note_on_c, 0, 58, 0
3, 166420, Note_on_c, 0, 33, 37
3, 166424, Note_on_c, 0, 55, 33
3, 166424, Note_on_c, 0, 60, 43
3, 166428, Note_on_c, 0, 45, 31
3, 166436, Note_on_c, 0, 64, 32
3, 166436, Control_c, 0, 64, 0
3, 166536, Control_c, 0, 64, 127
3, 166652, Note_on_c, 0, 55, 0
3, 166712, Note_on_c, 0, 60, 0
3, 166768, Note_on_c, 0, 64, 0
3, 166840, Note_on_c, 0, 60, 82
3, 166880, Note_on_c, 0, 33, 0
3, 166920, Note_on_c, 0, 45, 0
3, 166956, Note_on_c, 0, 60, 0
3, 167028, Note_on_c, 0, 61, 54
3, 167044, Note_on_c, 0, 46, 48
3, 167048, Note_on_c, 0, 34, 46
3, 167076, Control_c, 0, 64, 0
3, 167080, Note_on_c, 0, 61, 0
3, 167084, Note_on_c, 0, 62, 64
3, 167192, Note_on_c, 0, 62, 0
3, 167232, Note_on_c, 0, 62, 42
3, 167240, Note_on_c, 0, 65, 61
3, 167240, Note_on_c, 0, 58, 62
3, 167244, Note_on_c, 0, 53, 57
3, 167328, Control_c, 0, 64, 127
3, 167428, Note_on_c, 0, 46, 0
3, 167436, Note_on_c, 0, 34, 0
3, 167452, Note_on_c, 0, 47, 48
3, 167460, Note_on_c, 0, 35, 40
3, 167464, Note_on_c, 0, 53, 0
3, 167504, Note_on_c, 0, 58, 0
3, 167512, Note_on_c, 0, 62, 0
3, 167552, Note_on_c, 0, 65, 0
3, 167552, Note_on_c, 0, 35, 0
3, 167580, Note_on_c, 0, 47, 0
3, 167680, Note_on_c, 0, 65, 50
3, 167680, Note_on_c, 0, 62, 51
3, 167684, Control_c, 0, 64, 0
3, 167684, Note_on_c, 0, 58, 56
3, 167688, Note_on_c, 0, 48, 46
3, 167692, Note_on_c, 0, 53, 36
3, 167692, Note_on_c, 0, 36, 43
3, 167844, Control_c, 0, 64, 127
3, 167968, Note_on_c, 0, 62, 0
3, 168020, Note_on_c, 0, 36, 0
3, 168032, Note_on_c, 0, 53, 0
3, 168092, Note_on_c, 0, 48, 0
3, 168100, Note_on_c, 0, 65, 0
3, 168100, Note_on_c, 0, 62, 44
3, 168160, Note_on_c, 0, 58, 0
3, 168216, Note_on_c, 0, 62, 0
3, 168328, Note_on_c, 0, 58, 59
3, 168332, Control_c, 0, 64, 0
3, 168336, Note_on_c, 0, 65, 44
3, 168336, Note_on_c, 0, 48, 42
3, 168344, Note_on_c, 0, 62, 38
3, 168352, Note_on_c, 0, 41, 37
3, 168524, Control_c, 0, 64, 127
3, 168740, Note_on_c, 0, 58, 0
3, 168780, Note_on_c, 0, 65, 0
3, 168812, Note_on_c, 0, 62, 0
3, 168932, Note_on_c, 0, 65, 40
3, 168932, Note_on_c, 0, 56, 35
3, 168968, Note_on_c, 0, 53, 42
3, 168976, Note_on_c, 0, 56, 0
3, 168984, Control_c, 0, 64, 0
3, 169008, Note_on_c, 0, 57, 51
3, 169124, Control_c, 0, 64, 127
3, 169200, Note_on_c, 0, 53, 0
3, 169232, Note_on_c, 0, 48, 0
3, 169344, Note_on_c, 0, 57, 0
3, 169416, Note_on_c, 0, 65, 0
3, 169572, Note_on_c, 0, 41, 0
3, 169572, Control_c, 0, 64, 0
3, 169588, Note_on_c, 0, 62, 48
3, 169592, Note_on_c, 0, 65, 49
3, 169596, Note_on_c, 0, 58, 53
3, 169600, Note_on_c, 0, 48, 36
3, 169684, Control_c, 0, 64, 127
3, 169772, Note_on_c, 0, 58, 0
3, 169812, Note_on_c, 0, 62, 0
3, 169856, Note_on_c, 0, 65, 0
3, 169956, Note_on_c, 0, 48, 0
3, 169980, Note_on_c, 0, 36, 54
3, 170008, Note_on_c, 0, 36, 0
3, 170228, Note_on_c, 0, 68, 84
3, 170232, Note_on_c, 0, 72, 85
3, 170232, Note_on_c, 0, 58, 77
3, 170232, Note_on_c, 0, 64, 101
3, 170248, Control_c, 0, 64, 0
3, 170372, Control_c, 0, 64, 127
3, 170540, Note_on_c, 0, 64, 0
3, 170552, Note_on_c, 0, 72, 0
3, 170556, Note_on_c, 0, 58, 0
3, 170564, Note_on_c, 0, 68, 0
3, 170660, Note_on_c, 0, 72, 60
3, 170660, Note_on_c, 0, 64, 63
3, 170660, Note_on_c, 0, 68, 59
3, 170664, Note_on_c, 0, 58, 61
3, 170768, Note_on_c, 0, 64, 0
3, 170780, Note_on_c, 0, 72, 0
3, 170844, Note_on_c, 0, 68, 0
3, 170880, Note_on_c, 0, 58, 0
3, 170904, Control_c, 0, 64, 0
3, 170916, Note_on_c, 0, 72, 62
3, 170920, Note_on_c, 0, 67, 57
3, 170924, Note_on_c, 0, 62, 50
3, 170932, Note_on_c, 0, 57, 44
3, 171012, Control_c, 0, 64, 127
3, 171072, Note_on_c, 0, 62, 0
3, 171108, Note_on_c, 0, 67, 0
3, 171116, Note_on_c, 0, 72, 0
3, 171128, Note_on_c, 0, 57, 0
3, 171328, Note_on_c, 0, 60, 51
3, 171508, Note_on_c, 0, 60, 0
3, 171576, Note_on_c, 0, 79, 77
3, 171584, Note_on_c, 0, 76, 58
3, 171588, Note_on_c, 0, 67, 77
3, 171588, Note_on_c, 0, 64, 71
3, 171588, Note_on_c, 0, 72, 78
3, 171596, Control_c, 0, 64, 0
3, 171736, Control_c, 0, 64, 127
3, 171740, Note_on_c, 0, 79, 0
3, 171748, Note_on_c, 0, 72, 0
3, 171752, Note_on_c, 0, 67, 0
3, 171756, Note_on_c, 0, 64, 0
3, 171780, Note_on_c, 0, 76, 0
3, 171804, Note_on_c, 0, 79, 55
3, 171820, Note_on_c, 0, 67, 59
3, 171824, Note_on_c, 0, 72, 59
3, 171828, Note_on_c, 0, 64, 44
3, 172000, Note_on_c, 0, 79, 0
3, 172016, Note_on_c, 0, 72, 0
3, 172040, Note_on_c, 0, 67, 0
3, 172068, Note_on_c, 0, 64, 0
3, 172576, Note_on_c, 0, 74, 55
3, 172588, Note_on_c, 0, 63, 53
3, 172588, Note_on_c, 0, 62, 53
3, 172596, Note_on_c, 0, 67, 60
3, 172596, Note_on_c, 0, 70, 45
3, 172612, Control_c, 0, 64, 0
3, 172648, Note_on_c, 0, 62, 0
3, 172704, Control_c, 0, 64, 127
3, 172716, Note_on_c, 0, 67, 0
3, 172720, Note_on_c, 0, 74, 0
3, 172752, Note_on_c, 0, 63, 0
3, 172756, Note_on_c, 0, 70, 0
3, 172920, Note_on_c, 0, 72, 55
3, 172920, Note_on_c, 0, 57, 65
3, 172928, Note_on_c, 0, 66, 53
3, 172932, Control_c, 0, 64, 0
3, 172940, Note_on_c, 0, 62, 47
3, 172948, Note_on_c, 0, 51, 28
3, 172948, Note_on_c, 0, 69, 42
3, 173012, Control_c, 0, 64, 127
3, 173196, Note_on_c, 0, 66, 0
3, 173216, Note_on_c, 0, 62, 0
3, 173276, Note_on_c, 0, 69, 0
3, 173276, Note_on_c, 0, 66, 49
3, 173280, Note_on_c, 0, 72, 0
3, 173292, Note_on_c, 0, 57, 0
3, 173344, Note_on_c, 0, 51, 0
3, 173504, Note_on_c, 0, 66, 0
3, 173616, Note_on_c, 0, 62, 41
3, 173624, Note_on_c, 0, 65, 53
3, 173628, Note_on_c, 0, 46, 38
3, 173628, Control_c, 0, 64, 0
3, 173648, Note_on_c, 0, 53, 25
3, 173700, Note_on_c, 0, 62, 0
3, 173716, Control_c, 0, 64, 127
3, 173752, Note_on_c, 0, 65, 0
3, 173784, Note_on_c, 0, 53, 0
3, 173792, Note_on_c, 0, 46, 0
3, 174012, Note_on_c, 0, 69, 45
3, 174044, Note_on_c, 0, 69, 0
3, 174080, Note_on_c, 0, 70, 51
3, 174108, Note_on_c, 0, 70, 0
3, 174160, Note_on_c, 0, 72, 57
3, 174212, Note_on_c, 0, 72, 0
3, 174232, Note_on_c, 0, 73, 40
3, 174260, Control_c, 0, 64, 0
3, 174272, Note_on_c, 0, 73, 0
3, 174276, Note_on_c, 0, 62, 20
3, 174284, Note_on_c, 0, 65, 15
3, 174288, Note_on_c, 0, 75, 56
3, 174316, Note_on_c, 0, 75, 0
3, 174364, Note_on_c, 0, 76, 33
3, 174416, Note_on_c, 0, 76, 0
3, 174428, Note_on_c, 0, 60, 1
3, 174444, Note_on_c, 0, 78, 45
3, 174472, Note_on_c, 0, 78, 0
3, 174512, Note_on_c, 0, 79, 42
3, 174568, Note_on_c, 0, 79, 0
3, 174584, Note_on_c, 0, 81, 49
3, 174596, Note_on_c, 0, 65, 0
3, 174612, Note_on_c, 0, 60, 0
3, 174632, Note_on_c, 0, 62, 0
3, 174648, Note_on_c, 0, 81, 0
3, 174656, Note_on_c, 0, 82, 52
3, 174680, Note_on_c, 0, 82, 0
3, 174816, Control_c, 0, 64, 127
3, 174824, Note_on_c, 0, 86, 53
3, 174904, Note_on_c, 0, 86, 0
3, 174916, Note_on_c, 0, 87, 74
3, 174940, Control_c, 0, 64, 0
3, 174984, Note_on_c, 0, 62, 24
3, 174984, Note_on_c, 0, 65, 24
3, 174988, Note_on_c, 0, 87, 0
3, 175000, Note_on_c, 0, 60, 35
3, 175004, Note_on_c, 0, 88, 51
3, 175052, Note_on_c, 0, 88, 0
3, 175052, Note_on_c, 0, 65, 0
3, 175076, Note_on_c, 0, 89, 62
3, 175148, Note_on_c, 0, 89, 0
3, 175228, Note_on_c, 0, 86, 64
3, 175236, Note_on_c, 0, 53, 38
3, 175288, Note_on_c, 0, 86, 0
3, 175388, Note_on_c, 0, 81, 51
3, 175460, Note_on_c, 0, 81, 0
3, 175492, Note_on_c, 0, 60, 0
3, 175492, Control_c, 0, 64, 127
3, 175532, Note_on_c, 0, 62, 0
3, 175536, Note_on_c, 0, 77, 35
3, 175612, Note_on_c, 0, 77, 0
3, 175672, Note_on_c, 0, 62, 42
3, 175672, Note_on_c, 0, 84, 66
3, 175684, Control_c, 0, 64, 0
3, 175688, Note_on_c, 0, 60, 16
3, 175700, Note_on_c, 0, 65, 28
3, 175760, Note_on_c, 0, 84, 0
3, 175772, Control_c, 0, 64, 127
3, 175832, Note_on_c, 0, 82, 65
3, 175864, Note_on_c, 0, 65, 0
3, 175888, Note_on_c, 0, 53, 0
3, 175908, Note_on_c, 0, 82, 0
3, 175976, Note_on_c, 0, 81, 53
3, 176044, Note_on_c, 0, 81, 0
3, 176052, Note_on_c, 0, 60, 0
3, 176060, Note_on_c, 0, 62, 0
3, 176124, Note_on_c, 0, 79, 56
3, 176224, Note_on_c, 0, 79, 0
3, 176284, Control_c, 0, 64, 0
3, 176288, Note_on_c, 0, 77, 47
3, 176304, Note_on_c, 0, 62, 25
3, 176308, Note_on_c, 0, 58, 35
3, 176316, Note_on_c, 0, 57, 20
3, 176416, Note_on_c, 0, 77, 0
3, 176444, Note_on_c, 0, 74, 40
3, 176528, Note_on_c, 0, 74, 0
3, 176664, Control_c, 0, 64, 127
3, 176708, Note_on_c, 0, 58, 0
3, 176716, Note_on_c, 0, 62, 0
3, 176756, Note_on_c, 0, 57, 0
3, 176756, Note_on_c, 0, 69, 43
3, 176800, Note_on_c, 0, 69, 0
3, 176888, Control_c, 0, 64, 0
3, 176896, Note_on_c, 0, 74, 37
3, 176900, Note_on_c, 0, 62, 26
3, 176908, Note_on_c, 0, 58, 42
3, 176912, Note_on_c, 0, 55, 39
3, 176984, Note_on_c, 0, 74, 0
3, 176996, Control_c, 0, 64, 127
3, 177068, Note_on_c, 0, 62, 0
3, 177084, Note_on_c, 0, 70, 52
3, 177116, Note_on_c, 0, 58, 0
3, 177132, Note_on_c, 0, 55, 0
3, 177168, Note_on_c, 0, 70, 0
3, 177172, Control_c, 0, 64, 0
3, 177240, Control_c, 0, 64, 127
3, 177264, Note_on_c, 0, 65, 57
3, 177380, Note_on_c, 0, 65, 0
3, 177428, Note_on_c, 0, 62, 47
3, 177508, Note_on_c, 0, 62, 0
3, 177572, Control_c, 0, 64, 0
3, 177576, Note_on_c, 0, 58, 35
3, 177588, Note_on_c, 0, 48, 32
3, 177596, Note_on_c, 0, 63, 48
3, 177652, Note_on_c, 0, 58, 0
3, 177676, Note_on_c, 0, 48, 0
3, 177716, Note_on_c, 0, 63, 0
3, 177772, Note_on_c, 0, 64, 54
3, 177856, Note_on_c, 0, 64, 0
3, 177916, Note_on_c, 0, 66, 56
3, 177980, Control_c, 0, 64, 127
3, 177996, Note_on_c, 0, 66, 0
3, 178036, Note_on_c, 0, 68, 59
3, 178120, Note_on_c, 0, 68, 0
3, 178124, Note_on_c, 0, 70, 58
3, 178160, Note_on_c, 0, 70, 0
3, 178180, Note_on_c, 0, 24, 40
3, 178188, Control_c, 0, 64, 0
3, 178196, Note_on_c, 0, 36, 22
3, 178216, Note_on_c, 0, 72, 68
3, 178220, Note_on_c, 0, 24, 0
3, 178236, Note_on_c, 0, 36, 0
3, 178260, Note_on_c, 0, 72, 0
3, 178316, Note_on_c, 0, 73, 47
3, 178348, Control_c, 0, 64, 127
3, 178384, Note_on_c, 0, 73, 0
3, 178408, Note_on_c, 0, 75, 34
3, 178436, Note_on_c, 0, 75, 0
3, 178456, Note_on_c, 0, 76, 40
3, 178528, Note_on_c, 0, 76, 0
3, 178548, Note_on_c, 0, 78, 44
3, 178604, Note_on_c, 0, 80, 49
3, 178620, Note_on_c, 0, 78, 0
3, 178676, Note_on_c, 0, 80, 0
3, 178904, Note_on_c, 0, 41, 43
3, 178936, Control_c, 0, 64, 0
3, 178944, Note_on_c, 0, 88, 49
3, 178952, Note_on_c, 0, 48, 26
3, 178956, Note_on_c, 0, 57, 28
3, 179072, Note_on_c, 0, 88, 0
3, 179100, Note_on_c, 0, 91, 80
3, 179112, Control_c, 0, 64, 127
3, 179116, Note_on_c, 0, 41, 0
3, 179140, Note_on_c, 0, 48, 0
3, 179200, Note_on_c, 0, 57, 0
3, 179216, Note_on_c, 0, 91, 0
3, 179252, Note_on_c, 0, 88, 74
3, 179292, Note_on_c, 0, 89, 28
3, 179332, Note_on_c, 0, 89, 0
3, 179580, Note_on_c, 0, 64, 32
3, 179596, Note_on_c, 0, 60, 35
3, 179604, Note_on_c, 0, 57, 36
3, 179616, Note_on_c, 0, 53, 22
3, 179680, Note_on_c, 0, 60, 0
3, 179704, Note_on_c, 0, 64, 0
3, 179716, Note_on_c, 0, 57, 0
3, 179772, Note_on_c, 0, 53, 0
3, 179984, Note_on_c, 0, 88, 0
3, 180248, Note_on_c, 0, 45, 71
3, 180252, Control_c, 0, 64, 0
3, 180304, Control_c, 0, 64, 127
3, 180308, Note_on_c, 0, 45, 0
3, 180476, Note_on_c, 0, 96, 99
3, 180604, Note_on_c, 0, 94, 75
3, 180632, Note_on_c, 0, 96, 0
3, 180716, Note_on_c, 0, 90, 71
3, 180756, Note_on_c, 0, 94, 0
3, 180816, Note_on_c, 0, 90, 0
3, 180824, Note_on_c, 0, 88, 57
3, 180896, Note_on_c, 0, 88, 0
3, 180916, Note_on_c, 0, 66, 40
3, 180920, Note_on_c, 0, 61, 36
3, 180924, Note_on_c, 0, 87, 68
3, 180932, Note_on_c, 0, 55, 36
3, 180944, Control_c, 0, 64, 0
3, 181024, Note_on_c, 0, 87, 0
3, 181036, Note_on_c, 0, 85, 59
3, 181108, Note_on_c, 0, 85, 0
3, 181136, Note_on_c, 0, 84, 53
3, 181188, Note_on_c, 0, 84, 0
3, 181244, Control_c, 0, 64, 127
3, 181244, Note_on_c, 0, 82, 58
3, 181248, Note_on_c, 0, 66, 0
3, 181280, Note_on_c, 0, 55, 0
3, 181296, Note_on_c, 0, 61, 0
3, 181312, Control_c, 0, 64, 0
3, 181332, Note_on_c, 0, 82, 0
3, 181356, Note_on_c, 0, 81, 44
3, 181376, Control_c, 0, 64, 127
3, 181432, Note_on_c, 0, 81, 0
3, 181456, Note_on_c, 0, 80, 47
3, 181544, Note_on_c, 0, 80, 0
3, 181568, Note_on_c, 0, 79, 38
3, 181600, Note_on_c, 0, 79, 0
3, 181632, Note_on_c, 0, 50, 34
3, 181644, Note_on_c, 0, 57, 32
3, 181652, Control_c, 0, 64, 0
3, 181676, Note_on_c, 0, 78, 38
3, 181788, Note_on_c, 0, 78, 0
3, 181900, Note_on_c, 0, 76, 44
3, 181968, Note_on_c, 0, 76, 0
3, 182004, Note_on_c, 0, 79, 70
3, 182096, Note_on_c, 0, 79, 0
3, 182208, Note_on_c, 0, 77, 58
3, 182236, Control_c, 0, 64, 127
3, 182292, Note_on_c, 0, 77, 0
3, 182336, Note_on_c, 0, 73, 35
3, 182348, Note_on_c, 0, 57, 0
3, 182360, Note_on_c, 0, 73, 0
3, 182400, Control_c, 0, 64, 0
3, 182408, Note_on_c, 0, 57, 18
3, 182416, Note_on_c, 0, 76, 50
3, 182424, Note_on_c, 0, 60, 33
3, 182536, Note_on_c, 0, 76, 0
3, 182560, Note_on_c, 0, 69, 36
3, 182592, Note_on_c, 0, 69, 0
3, 182640, Note_on_c, 0, 74, 63
3, 182676, Note_on_c, 0, 50, 0
3, 182700, Note_on_c, 0, 57, 0
3, 182732, Note_on_c, 0, 74, 0
3, 182744, Note_on_c, 0, 60, 0
3, 182788, Note_on_c, 0, 69, 30
3, 182816, Control_c, 0, 64, 127
3, 182820, Note_on_c, 0, 69, 0
3, 182868, Note_on_c, 0, 72, 63
3, 182968, Note_on_c, 0, 72, 0
3, 183008, Note_on_c, 0, 69, 31
3, 183040, Note_on_c, 0, 69, 0
3, 183100, Control_c, 0, 64, 0
3, 183108, Note_on_c, 0, 72, 58
3, 183108, Note_on_c, 0, 64, 36
3, 183112, Note_on_c, 0, 60, 38
3, 183120, Note_on_c, 0, 57, 52
3, 183192, Control_c, 0, 64, 127
3, 183196, Note_on_c, 0, 64, 0
3, 183208, Note_on_c, 0, 60, 0
3, 183224, Note_on_c, 0, 57, 0
3, 183388, Note_on_c, 0, 72, 0
3, 183440, Control_c, 0, 64, 0
3, 183448, Note_on_c, 0, 74, 69
3, 183456, Note_on_c, 0, 70, 78
3, 183456, Note_on_c, 0, 65, 87
3, 183460, Note_on_c, 0, 54, 73
3, 183468, Note_on_c, 0, 44, 53
3, 183552, Control_c, 0, 64, 127
3, 183632, Note_on_c, 0, 70, 0
3, 183640, Note_on_c, 0, 74, 0
3, 183652, Note_on_c, 0, 65, 0
3, 183700, Note_on_c, 0, 54, 0
3, 183800, Note_on_c, 0, 70, 48
3, 183816, Note_on_c, 0, 54, 52
3, 183820, Note_on_c, 0, 65, 71
3, 183820, Note_on_c, 0, 62, 63
3, 183884, Note_on_c, 0, 70, 0
3, 183892, Note_on_c, 0, 65, 0
3, 183944, Note_on_c, 0, 62, 0
3, 183968, Note_on_c, 0, 54, 0
3, 184040, Note_on_c, 0, 44, 0
3, 184152, Note_on_c, 0, 62, 38
3, 184164, Note_on_c, 0, 44, 40
3, 184168, Control_c, 0, 64, 0
3, 184172, Note_on_c, 0, 58, 44
3, 184176, Note_on_c, 0, 50, 27
3, 184184, Note_on_c, 0, 53, 24
3, 184240, Control_c, 0, 64, 127
3, 184292, Note_on_c, 0, 62, 0
3, 184348, Note_on_c, 0, 53, 0
3, 184380, Note_on_c, 0, 50, 0
3, 184408, Note_on_c, 0, 58, 0
3, 184424, Note_on_c, 0, 44, 0
3, 184516, Note_on_c, 0, 64, 40
3, 184524, Control_c, 0, 64, 0
3, 184532, Note_on_c, 0, 61, 35
3, 184540, Note_on_c, 0, 43, 36
3, 184544, Note_on_c, 0, 57, 54
3, 184552, Note_on_c, 0, 50, 26
3, 184616, Control_c, 0, 64, 127
3, 184640, Note_on_c, 0, 57, 0
3, 184676, Note_on_c, 0, 43, 0
3, 184688, Note_on_c, 0, 64, 0
3, 184688, Note_on_c, 0, 61, 0
3, 184704, Note_on_c, 0, 50, 0
3, 184916, Note_on_c, 0, 73, 43
3, 184920, Note_on_c, 0, 76, 51
3, 184928, Note_on_c, 0, 65, 52
3, 184936, Note_on_c, 0, 69, 49
3, 184952, Note_on_c, 0, 60, 38
3, 185032, Note_on_c, 0, 69, 0
3, 185032, Note_on_c, 0, 65, 0
3, 185056, Note_on_c, 0, 60, 0
3, 185076, Note_on_c, 0, 76, 0
3, 185076, Note_on_c, 0, 73, 0
3, 185252, Note_on_c, 0, 79, 48
3, 185256, Note_on_c, 0, 64, 38
3, 185260, Note_on_c, 0, 73, 50
3, 185264, Note_on_c, 0, 76, 36
3, 185268, Note_on_c, 0, 71, 59
3, 185368, Note_on_c, 0, 76, 0
3, 185384, Note_on_c, 0, 79, 0
3, 185396, Note_on_c, 0, 73, 0
3, 185404, Note_on_c, 0, 71, 0
3, 185408, Note_on_c, 0, 64, 0
3, 185588, Note_on_c, 0, 76, 35
3, 185592, Note_on_c, 0, 62, 49
3, 185596, Note_on_c, 0, 69, 58
3, 185604, Note_on_c, 0, 65, 48
3, 185612, Note_on_c, 0, 71, 35
3, 185748, Note_on_c, 0, 62, 0
3, 185808, Note_on_c, 0, 65, 0
3, 185820, Note_on_c, 0, 69, 0
3, 185852, Note_on_c, 0, 71, 0
3, 185880, Note_on_c, 0, 76, 0
3, 186280, Control_c, 0, 64, 0
3, 186288, Note_on_c, 0, 64, 73
3, 186288, Note_on_c, 0, 69, 71
3, 186292, Note_on_c, 0, 43, 49
3, 186296, Note_on_c, 0, 59, 71
3, 186300, Note_on_c, 0, 53, 50
3, 186364, Control_c, 0, 64, 127
3, 186484, Note_on_c, 0, 53, 0
3, 186524, Note_on_c, 0, 64, 0
3, 186552, Note_on_c, 0, 59, 0
3, 186616, Control_c, 0, 64, 0
3, 186632, Note_on_c, 0, 63, 64
3, 186636, Note_on_c, 0, 54, 52
3, 186640, Note_on_c, 0, 59, 54
3, 186696, Control_c, 0, 64, 127
3, 186820, Note_on_c, 0, 54, 0
3, 186868, Note_on_c, 0, 59, 0
3, 186932, Note_on_c, 0, 63, 0
3, 186976, Note_on_c, 0, 62, 65
3, 186980, Note_on_c, 0, 59, 45
3, 186988, Control_c, 0, 64, 0
3, 186992, Note_on_c, 0, 53, 41
3, 187056, Control_c, 0, 64, 127
3, 187108, Note_on_c, 0, 69, 0
3, 187124, Note_on_c, 0, 59, 0
3, 187180, Note_on_c, 0, 62, 0
3, 187188, Note_on_c, 0, 43, 0
3, 187216, Note_on_c, 0, 53, 0
3, 187320, Note_on_c, 0, 61, 73
3, 187332, Note_on_c, 0, 58, 74
3, 187340, Note_on_c, 0, 53, 66
3, 187340, Note_on_c, 0, 43, 53
3, 187356, Control_c, 0, 64, 0
3, 187376, Note_on_c, 0, 61, 0
3, 187388, Note_on_c, 0, 62, 68
3, 187472, Note_on_c, 0, 58, 0
3, 187548, Note_on_c, 0, 65, 71
3, 187564, Control_c, 0, 64, 127
3, 187840, Note_on_c, 0, 53, 0
3, 187872, Note_on_c, 0, 62, 0
3, 187896, Note_on_c, 0, 65, 0
3, 188064, Note_on_c, 0, 62, 40
3, 188068, Note_on_c, 0, 58, 37
3, 188072, Note_on_c, 0, 65, 56
3, 188072, Note_on_c, 0, 53, 38
3, 188172, Note_on_c, 0, 53, 0
3, 188248, Note_on_c, 0, 43, 0
3, 188272, Note_on_c, 0, 62, 0
3, 188408, Note_on_c, 0, 58, 0
3, 188452, Note_on_c, 0, 65, 0
3, 188456, Note_on_c, 0, 62, 68
3, 188460, Note_on_c, 0, 58, 43
3, 188620, Note_on_c, 0, 62, 0
3, 188652, Note_on_c, 0, 62, 61
3, 188672, Note_on_c, 0, 31, 47
3, 188712, Note_on_c, 0, 62, 0
3, 188728, Note_on_c, 0, 58, 0
3, 188808, Note_on_c, 0, 31, 0
3, 188828, Note_on_c, 0, 61, 59
3, 188836, Note_on_c, 0, 36, 65
3, 188840, Note_on_c, 0, 24, 60
3, 188848, Note_on_c, 0, 58, 56
3, 188868, Note_on_c, 0, 63, 32
3, 188880, Note_on_c, 0, 65, 15
3, 188888, Control_c, 0, 64, 0
3, 188908, Note_on_c, 0, 63, 0
3, 188920, Note_on_c, 0, 61, 0
3, 188920, Note_on_c, 0, 62, 79
3, 188972, Note_on_c, 0, 65, 0
3, 189000, Note_on_c, 0, 58, 0
3, 189064, Note_on_c, 0, 65, 62
3, 189076, Note_on_c, 0, 58, 67
3, 189092, Note_on_c, 0, 53, 41
3, 189188, Control_c, 0, 64, 127
3, 189396, Note_on_c, 0, 53, 0
3, 189412, Note_on_c, 0, 62, 0
3, 189424, Note_on_c, 0, 36, 0
3, 189432, Note_on_c, 0, 58, 0
3, 189460, Note_on_c, 0, 65, 0
3, 189568, Control_c, 0, 64, 0
3, 189568, Note_on_c, 0, 58, 56
3, 189568, Note_on_c, 0, 65, 54
3, 189572, Note_on_c, 0, 62, 54
3, 189576, Note_on_c, 0, 36, 46
3, 189588, Note_on_c, 0, 53, 31
3, 189628, Control_c, 0, 64, 127
3, 189748, Note_on_c, 0, 62, 0
3, 189756, Note_on_c, 0, 24, 0
3, 189848, Note_on_c, 0, 36, 0
3, 189892, Note_on_c, 0, 53, 0
3, 189924, Note_on_c, 0, 65, 0
3, 189952, Note_on_c, 0, 62, 61
3, 189996, Note_on_c, 0, 58, 0
3, 190224, Note_on_c, 0, 62, 0
3, 190692, Note_on_c, 0, 62, 49
3, 190696, Note_on_c, 0, 65, 43
3, 190704, Note_on_c, 0, 58, 53
3, 190712, Note_on_c, 0, 53, 35
3, 190712, Control_c, 0, 64, 0
3, 190828, Control_c, 0, 64, 127
3, 190968, Note_on_c, 0, 58, 0
3, 190972, Note_on_c, 0, 65, 0
3, 190976, Note_on_c, 0, 53, 0
3, 191028, Note_on_c, 0, 62, 0
3, 191040, Note_on_c, 0, 65, 50
3, 191072, Note_on_c, 0, 57, 53
3, 191080, Note_on_c, 0, 53, 32
3, 191108, Control_c, 0, 64, 0
3, 191228, Control_c, 0, 64, 127
3, 191388, Note_on_c, 0, 57, 0
3, 191416, Note_on_c, 0, 41, 46
3, 191452, Note_on_c, 0, 41, 0
3, 191456, Note_on_c, 0, 65, 0
3, 191496, Note_on_c, 0, 53, 0
3, 191776, Note_on_c, 0, 74, 31
3, 191784, Control_c, 0, 64, 0
3, 191788, Note_on_c, 0, 69, 47
3, 191792, Note_on_c, 0, 62, 28
3, 191796, Note_on_c, 0, 57, 44
3, 191800, Note_on_c, 0, 47, 32
3, 191860, Control_c, 0, 64, 127
3, 191912, Note_on_c, 0, 62, 0
3, 191928, Note_on_c, 0, 74, 0
3, 191952, Note_on_c, 0, 69, 0
3, 192016, Note_on_c, 0, 47, 0
3, 192056, Note_on_c, 0, 57, 0
3, 192184, Note_on_c, 0, 77, 84
3, 192468, Note_on_c, 0, 77, 0
3, 192524, Note_on_c, 0, 67, 38
3, 192540, Note_on_c, 0, 56, 26
3, 192544, Note_on_c, 0, 76, 38
3, 192544, Note_on_c, 0, 62, 32
3, 192548, Control_c, 0, 64, 0
3, 192644, Control_c, 0, 64, 127
3, 192756, Note_on_c, 0, 67, 0
3, 192764, Note_on_c, 0, 62, 0
3, 192832, Note_on_c, 0, 56, 0
3, 193028, Note_on_c, 0, 74, 41
3, 193044, Note_on_c, 0, 76, 0
3, 193104, Note_on_c, 0, 72, 49
3, 193120, Note_on_c, 0, 74, 0
3, 193188, Note_on_c, 0, 72, 0
3, 193204, Note_on_c, 0, 71, 45
3, 193264, Note_on_c, 0, 71, 0
3, 193316, Control_c, 0, 64, 0
3, 193320, Note_on_c, 0, 69, 37
3, 193320, Note_on_c, 0, 45, 34
3, 193336, Note_on_c, 0, 52, 27
3, 193352, Note_on_c, 0, 55, 10
3, 193440, Control_c, 0, 64, 127
3, 193468, Note_on_c, 0, 45, 0
3, 193496, Note_on_c, 0, 52, 0
3, 193516, Note_on_c, 0, 55, 0
3, 193940, Note_on_c, 0, 69, 0
3, 194048, Note_on_c, 0, 64, 30
3, 194056, Note_on_c, 0, 57, 45
3, 194064, Note_on_c, 0, 60, 34
3, 194592, Note_on_c, 0, 57, 0
3, 194732, Control_c, 0, 64, 0
3, 194736, Note_on_c, 0, 54, 56
3, 194856, Control_c, 0, 64, 127
3, 194896, Note_on_c, 0, 64, 0
3, 194916, Note_on_c, 0, 60, 0
3, 195096, Note_on_c, 0, 76, 99
3, 195384, Note_on_c, 0, 76, 0
3, 195444, Note_on_c, 0, 74, 95
3, 195460, Note_on_c, 0, 64, 49
3, 195464, Control_c, 0, 64, 0
3, 195468, Note_on_c, 0, 60, 44
3, 195548, Control_c, 0, 64, 127
3, 195632, Note_on_c, 0, 74, 0
3, 195684, Note_on_c, 0, 74, 80
3, 195712, Note_on_c, 0, 64, 0
3, 195736, Note_on_c, 0, 60, 0
3, 195800, Note_on_c, 0, 54, 0
3, 195824, Note_on_c, 0, 74, 0
3, 195868, Note_on_c, 0, 72, 70
3, 196012, Note_on_c, 0, 72, 0
3, 196044, Note_on_c, 0, 71, 64
3, 196156, Control_c, 0, 64, 0
3, 196180, Note_on_c, 0, 71, 0
3, 196208, Note_on_c, 0, 47, 44
3, 196216, Note_on_c, 0, 57, 35
3, 196220, Note_on_c, 0, 69, 57
3, 196256, Control_c, 0, 64, 127
3, 196384, Note_on_c, 0, 47, 0
3, 196420, Note_on_c, 0, 69, 0
3, 196444, Note_on_c, 0, 57, 0
3, 196484, Note_on_c, 0, 69, 55
3, 196868, Note_on_c, 0, 69, 0
3, 196908, Note_on_c, 0, 57, 52
3, 196912, Note_on_c, 0, 65, 42
3, 196916, Note_on_c, 0, 62, 36
3, 197284, Note_on_c, 0, 84, 87
3, 197292, Note_on_c, 0, 72, 96
3, 197400, Note_on_c, 0, 57, 0
3, 197424, Note_on_c, 0, 65, 0
3, 197468, Note_on_c, 0, 62, 0
3, 197504, Note_on_c, 0, 72, 0
3, 197528, Note_on_c, 0, 84, 0
3, 197632, Note_on_c, 0, 62, 68
3, 197632, Note_on_c, 0, 56, 72
3, 197636, Note_on_c, 0, 67, 74
3, 197660, Control_c, 0, 64, 0
3, 197752, Control_c, 0, 64, 127
3, 198020, Note_on_c, 0, 84, 90
3, 198024, Note_on_c, 0, 72, 99
3, 198112, Note_on_c, 0, 67, 0
3, 198184, Note_on_c, 0, 62, 0
3, 198248, Note_on_c, 0, 56, 0
3, 198368, Control_c, 0, 64, 0
3, 198368, Note_on_c, 0, 65, 61
3, 198376, Note_on_c, 0, 62, 42
3, 198380, Note_on_c, 0, 56, 39
3, 198468, Control_c, 0, 64, 127
3, 198552, Note_on_c, 0, 84, 0
3, 198568, Note_on_c, 0, 72, 0
3, 198580, Note_on_c, 0, 65, 0
3, 198596, Note_on_c, 0, 62, 0
3, 198660, Note_on_c, 0, 56, 0
3, 198760, Note_on_c, 0, 83, 80
3, 198768, Note_on_c, 0, 71, 80
3, 199052, Control_c, 0, 64, 0
3, 199064, Note_on_c, 0, 52, 90
3, 199068, Note_on_c, 0, 45, 91
3, 199176, Control_c, 0, 64, 127
3, 199248, Note_on_c, 0, 83, 0
3, 199264, Note_on_c, 0, 71, 0
3, 199356, Note_on_c, 0, 45, 0
3, 199396, Note_on_c, 0, 52, 0
3, 199456, Note_on_c, 0, 81, 80
3, 199456, Note_on_c, 0, 76, 72
3, 199464, Note_on_c, 0, 69, 83
3, 199612, Note_on_c, 0, 69, 0
3, 199632, Note_on_c, 0, 81, 0
3, 199644, Note_on_c, 0, 76, 0
3, 199800, Note_on_c, 0, 83, 77
3, 199804, Note_on_c, 0, 57, 71
3, 199804, Note_on_c, 0, 76, 68
3, 199804, Note_on_c, 0, 64, 65
3, 199808, Note_on_c, 0, 60, 52
3, 199812, Note_on_c, 0, 71, 69
3, 199816, Control_c, 0, 64, 0
3, 199928, Control_c, 0, 64, 127
3, 199960, Note_on_c, 0, 71, 0
3, 199968, Note_on_c, 0, 76, 0
3, 200012, Note_on_c, 0, 83, 0
3, 200156, Note_on_c, 0, 84, 79
3, 200164, Note_on_c, 0, 72, 83
3, 200272, Note_on_c, 0, 64, 0
3, 200280, Note_on_c, 0, 72, 0
3, 200288, Note_on_c, 0, 57, 0
3, 200308, Note_on_c, 0, 84, 0
3, 200336, Note_on_c, 0, 60, 0
3, 200520, Note_on_c, 0, 54, 74
3, 200524, Note_on_c, 0, 86, 82
3, 200528, Note_on_c, 0, 74, 82
3, 200528, Note_on_c, 0, 60, 47
3, 200532, Control_c, 0, 64, 0
3, 200536, Note_on_c, 0, 81, 75
3, 200548, Note_on_c, 0, 64, 31
3, 200684, Control_c, 0, 64, 127
3, 200768, Note_on_c, 0, 86, 0
3, 200772, Note_on_c, 0, 74, 0
3, 200784, Note_on_c, 0, 81, 0
3, 200844, Note_on_c, 0, 64, 0
3, 200852, Note_on_c, 0, 60, 0
3, 200900, Note_on_c, 0, 88, 74
3, 200908, Note_on_c, 0, 76, 48
3, 200912, Note_on_c, 0, 81, 57
3, 201048, Note_on_c, 0, 88, 0
3, 201056, Note_on_c, 0, 81, 0
3, 201088, Note_on_c, 0, 76, 0
3, 201248, Note_on_c, 0, 64, 32
3, 201252, Note_on_c, 0, 86, 51
3, 201256, Note_on_c, 0, 81, 58
3, 201260, Note_on_c, 0, 60, 33
3, 201264, Note_on_c, 0, 74, 33
3, 201348, Note_on_c, 0, 81, 0
3, 201376, Note_on_c, 0, 86, 0
3, 201392, Note_on_c, 0, 74, 0
3, 201440, Note_on_c, 0, 54, 0
3, 201600, Note_on_c, 0, 54, 49
3, 201608, Note_on_c, 0, 84, 60
3, 201616, Note_on_c, 0, 72, 53
3, 201616, Note_on_c, 0, 79, 53
3, 201624, Note_on_c, 0, 64, 0
3, 201640, Note_on_c, 0, 60, 0
3, 201660, Note_on_c, 0, 72, 0
3, 201692, Note_on_c, 0, 54, 0
3, 201692, Note_on_c, 0, 79, 0
3, 201716, Note_on_c, 0, 84, 0
3, 201952, Control_c, 0, 64, 0
3, 201968, Note_on_c, 0, 32, 67
3, 202032, Control_c, 0, 64, 127
3, 202036, Note_on_c, 0, 32, 0
3, 202352, Note_on_c, 0, 54, 80
3, 202356, Note_on_c, 0, 88, 88
3, 202360, Note_on_c, 0, 65, 92
3, 202360, Note_on_c, 0, 84, 77
3, 202360, Note_on_c, 0, 76, 80
3, 202360, Note_on_c, 0, 58, 84
3, 202364, Note_on_c, 0, 60, 84
3, 202376, Note_on_c, 0, 82, 51
3, 202392, Note_on_c, 0, 86, 34
3, 202404, Note_on_c, 0, 82, 0
3, 202416, Note_on_c, 0, 86, 0
3, 202628, Note_on_c, 0, 76, 0
3, 202632, Note_on_c, 0, 88, 0
3, 202636, Note_on_c, 0, 84, 0
3, 202640, Note_on_c, 0, 54, 0
3, 202640, Note_on_c, 0, 65, 0
3, 202656, Note_on_c, 0, 60, 0
3, 202668, Note_on_c, 0, 58, 0
3, 202740, Note_on_c, 0, 65, 81
3, 202740, Note_on_c, 0, 58, 73
3, 202740, Note_on_c, 0, 54, 77
3, 202744, Note_on_c, 0, 60, 68
3, 202744, Note_on_c, 0, 88, 77
3, 202752, Note_on_c, 0, 84, 78
3, 202752, Note_on_c, 0, 76, 69
3, 202852, Note_on_c, 0, 65, 0
3, 202872, Note_on_c, 0, 60, 0
3, 202888, Note_on_c, 0, 58, 0
3, 202912, Note_on_c, 0, 54, 0
3, 203140, Note_on_c, 0, 43, 80
3, 203148, Note_on_c, 0, 31, 84
3, 203156, Control_c, 0, 64, 0
3, 203232, Control_c, 0, 64, 127
3, 203412, Note_on_c, 0, 31, 0
3, 203412, Note_on_c, 0, 43, 0
3, 203452, Note_on_c, 0, 76, 0
3, 203480, Note_on_c, 0, 84, 0
3, 203496, Note_on_c, 0, 31, 65
3, 203504, Note_on_c, 0, 88, 0
3, 203508, Note_on_c, 0, 43, 80
3, 203560, Note_on_c, 0, 31, 0
3, 203584, Note_on_c, 0, 43, 0
3, 203892, Note_on_c, 0, 53, 91
3, 203892, Note_on_c, 0, 59, 83
3, 203892, Note_on_c, 0, 64, 95
3, 203896, Note_on_c, 0, 91, 92
3, 203896, Note_on_c, 0, 88, 89
3, 203896, Note_on_c, 0, 79, 90
3, 203924, Note_on_c, 0, 89, 39
3, 203928, Control_c, 0, 64, 0
3, 203948, Note_on_c, 0, 89, 0
3, 203972, Control_c, 0, 64, 127
3, 204152, Note_on_c, 0, 79, 0
3, 204168, Note_on_c, 0, 88, 0
3, 204176, Note_on_c, 0, 91, 0
3, 204180, Note_on_c, 0, 64, 0
3, 204180, Note_on_c, 0, 53, 0
3, 204200, Note_on_c, 0, 59, 0
3, 204280, Note_on_c, 0, 53, 71
3, 204284, Note_on_c, 0, 91, 89
3, 204284, Note_on_c, 0, 64, 83
3, 204284, Note_on_c, 0, 59, 73
3, 204288, Note_on_c, 0, 88, 89
3, 204292, Note_on_c, 0, 79, 81
3, 204316, Note_on_c, 0, 89, 41
3, 204348, Note_on_c, 0, 89, 0
3, 204664, Note_on_c, 0, 91, 0
3, 204688, Note_on_c, 0, 88, 0
3, 204716, Note_on_c, 0, 79, 0
3, 204720, Note_on_c, 0, 53, 0
3, 204724, Note_on_c, 0, 59, 0
3, 204756, Note_on_c, 0, 64, 0
3, 205144, Note_on_c, 0, 72, 40
3, 205156, Note_on_c, 0, 63, 26
3, 205160, Note_on_c, 0, 67, 39
3, 205200, Note_on_c, 0, 60, 24
3, 205208, Control_c, 0, 64, 0
3, 205336, Control_c, 0, 64, 127
3, 205372, Note_on_c, 0, 63, 0
3, 205388, Note_on_c, 0, 67, 0
3, 205408, Note_on_c, 0, 72, 0
3, 205596, Note_on_c, 0, 60, 0
3, 205612, Note_on_c, 0, 84, 47
3, 205972, Note_on_c, 0, 79, 37
3, 205976, Note_on_c, 0, 72, 34
3, 205976, Note_on_c, 0, 75, 32
3, 206052, Note_on_c, 0, 84, 0
3, 206176, Note_on_c, 0, 75, 0
3, 206212, Note_on_c, 0, 86, 65
3, 206292, Note_on_c, 0, 72, 0
3, 206308, Note_on_c, 0, 86, 0
3, 206400, Note_on_c, 0, 79, 0
3, 206432, Note_on_c, 0, 87, 71
3, 206528, Note_on_c, 0, 87, 0
3, 206728, Note_on_c, 0, 89, 62
3, 206740, Note_on_c, 0, 69, 52
3, 206748, Note_on_c, 0, 79, 45
3, 206752, Note_on_c, 0, 84, 52
3, 206760, Control_c, 0, 64, 0
3, 206832, Control_c, 0, 64, 127
3, 206920, Note_on_c, 0, 89, 0
3, 207116, Note_on_c, 0, 91, 58
3, 207216, Note_on_c, 0, 79, 0
3, 207224, Note_on_c, 0, 91, 0
3, 207244, Note_on_c, 0, 84, 0
3, 207480, Note_on_c, 0, 89, 34
3, 207484, Note_on_c, 0, 75, 40
3, 207492, Note_on_c, 0, 79, 24
3, 207500, Note_on_c, 0, 84, 35
3, 207668, Note_on_c, 0, 75, 0
3, 207744, Note_on_c, 0, 89, 0
3, 207828, Note_on_c, 0, 79, 0
3, 207844, Note_on_c, 0, 84, 0
3, 207848, Note_on_c, 0, 69, 0
3, 207864, Note_on_c, 0, 87, 53
3, 207948, Note_on_c, 0, 87, 0
3, 208260, Note_on_c, 0, 84, 45
3, 208264, Note_on_c, 0, 77, 31
3, 208272, Note_on_c, 0, 54, 45
3, 208280, Note_on_c, 0, 72, 24
3, 208296, Control_c, 0, 64, 0
3, 208408, Control_c, 0, 64, 127
3, 208636, Note_on_c, 0, 72, 0
3, 208660, Note_on_c, 0, 60, 38
3, 208664, Note_on_c, 0, 77, 0
3, 208976, Note_on_c, 0, 84, 0
3, 209020, Note_on_c, 0, 77, 35
3, 209032, Note_on_c, 0, 72, 30
3, 209048, Note_on_c, 0, 65, 32
3, 209192, Note_on_c, 0, 65, 0
3, 209232, Note_on_c, 0, 60, 0
3, 209276, Note_on_c, 0, 54, 0
3, 209376, Note_on_c, 0, 72, 0
3, 209400, Note_on_c, 0, 77, 0
3, 209676, Note_on_c, 0, 43, 59
3, 209704, Note_on_c, 0, 43, 0
3, 209900, Note_on_c, 0, 75, 68
3, 209904, Note_on_c, 0, 63, 77
3, 209904, Note_on_c, 0, 68, 67
3, 209908, Note_on_c, 0, 71, 58
3, 209912, Note_on_c, 0, 65, 68
3, 209960, Control_c, 0, 64, 0
3, 210068, Control_c, 0, 64, 127
3, 210288, Note_on_c, 0, 63, 0
3, 210332, Note_on_c, 0, 65, 0
3, 210352, Note_on_c, 0, 75, 0
3, 210356, Note_on_c, 0, 71, 0
3, 210456, Note_on_c, 0, 68, 0
3, 210720, Note_on_c, 0, 74, 32
3, 210728, Note_on_c, 0, 65, 36
3, 210732, Note_on_c, 0, 68, 35
3, 210736, Note_on_c, 0, 62, 35
3, 210744, Note_on_c, 0, 71, 25
3, 211176, Note_on_c, 0, 62, 0
3, 211316, Note_on_c, 0, 65, 0
3, 211492, Note_on_c, 0, 71, 0
3, 211516, Note_on_c, 0, 48, 41
3, 211520, Control_c, 0, 64, 0
3, 211524, Note_on_c, 0, 68, 0
3, 211536, Note_on_c, 0, 74, 0
3, 211616, Control_c, 0, 64, 127
3, 211768, Control_c, 0, 64, 0
3, 211776, Note_on_c, 0, 56, 39
3, 211780, Note_on_c, 0, 67, 62
3, 211780, Note_on_c, 0, 76, 38
3, 211788, Note_on_c, 0, 62, 26
3, 211800, Note_on_c, 0, 72, 35
3, 211812, Note_on_c, 0, 67, 0
3, 211824, Note_on_c, 0, 72, 0
3, 211828, Note_on_c, 0, 62, 0
3, 211848, Note_on_c, 0, 76, 0
3, 211864, Note_on_c, 0, 56, 0
3, 212108, Note_on_c, 0, 76, 42
3, 212116, Note_on_c, 0, 62, 46
3, 212120, Note_on_c, 0, 67, 36
3, 212128, Note_on_c, 0, 56, 26
3, 212140, Note_on_c, 0, 72, 31
3, 212156, Note_on_c, 0, 67, 0
3, 212164, Note_on_c, 0, 72, 0
3, 212188, Note_on_c, 0, 62, 0
3, 212192, Note_on_c, 0, 76, 0
3, 212232, Note_on_c, 0, 56, 0
3, 212360, Note_on_c, 0, 76, 38
3, 212364, Note_on_c, 0, 67, 46
3, 212372, Note_on_c, 0, 62, 28
3, 212380, Note_on_c, 0, 72, 38
3, 212380, Note_on_c, 0, 56, 21
3, 212416, Control_c, 0, 64, 127
3, 212440, Note_on_c, 0, 72, 0
3, 212460, Note_on_c, 0, 67, 0
3, 212476, Note_on_c, 0, 76, 0
3, 212488, Note_on_c, 0, 62, 0
3, 212544, Note_on_c, 0, 56, 0
3, 212620, Note_on_c, 0, 76, 37
3, 212620, Note_on_c, 0, 62, 34
3, 212628, Note_on_c, 0, 56, 23
3, 212628, Note_on_c, 0, 67, 46
3, 212640, Note_on_c, 0, 72, 40
3, 212736, Note_on_c, 0, 48, 0
3, 212820, Note_on_c, 0, 67, 0
3, 212820, Note_on_c, 0, 72, 0
3, 212828, Note_on_c, 0, 76, 0
3, 212840, Note_on_c, 0, 62, 0
3, 213100, Note_on_c, 0, 48, 62
3, 213136, Note_on_c, 0, 56, 0
3, 213336, Note_on_c, 0, 61, 63
3, 213340, Note_on_c, 0, 55, 47
3, 213352, Note_on_c, 0, 65, 50
3, 213352, Note_on_c, 0, 69, 66
3, 213356, Control_c, 0, 64, 0
3, 213360, Note_on_c, 0, 77, 61
3, 213368, Note_on_c, 0, 72, 58
3, 213500, Control_c, 0, 64, 127
3, 213532, Note_on_c, 0, 55, 0
3, 213536, Note_on_c, 0, 65, 0
3, 213540, Note_on_c, 0, 61, 0
3, 213552, Note_on_c, 0, 69, 0
3, 213584, Note_on_c, 0, 72, 0
3, 213584, Note_on_c, 0, 77, 0
3, 213616, Note_on_c, 0, 65, 54
3, 213632, Note_on_c, 0, 69, 66
3, 213640, Note_on_c, 0, 61, 45
3, 213648, Note_on_c, 0, 72, 65
3, 213652, Note_on_c, 0, 55, 47
3, 213652, Note_on_c, 0, 77, 64
3, 213780, Note_on_c, 0, 55, 0
3, 213780, Note_on_c, 0, 69, 0
3, 213792, Note_on_c, 0, 61, 0
3, 213792, Note_on_c, 0, 65, 0
3, 213828, Note_on_c, 0, 72, 0
3, 213852, Note_on_c, 0, 77, 0
3, 213880, Note_on_c, 0, 65, 44
3, 213920, Note_on_c, 0, 69, 55
3, 213944, Note_on_c, 0, 61, 43
3, 213948, Note_on_c, 0, 72, 44
3, 213968, Note_on_c, 0, 77, 56
3, 213968, Note_on_c, 0, 55, 38
3, 214064, Note_on_c, 0, 55, 0
3, 214072, Note_on_c, 0, 65, 0
3, 214084, Note_on_c, 0, 69, 0
3, 214104, Note_on_c, 0, 61, 0
3, 214120, Note_on_c, 0, 72, 0
3, 214160, Note_on_c, 0, 77, 0
3, 214188, Note_on_c, 0, 65, 44
3, 214216, Note_on_c, 0, 69, 58
3, 214228, Note_on_c, 0, 61, 31
3, 214232, Note_on_c, 0, 72, 54
3, 214240, Note_on_c, 0, 77, 51
3, 214248, Note_on_c, 0, 55, 34
3, 214388, Note_on_c, 0, 61, 0
3, 214396, Note_on_c, 0, 48, 0
3, 214460, Note_on_c, 0, 48, 62
3, 214620, Note_on_c, 0, 48, 0
3, 214668, Note_on_c, 0, 55, 0
3, 214688, Control_c, 0, 64, 0
3, 214692, Note_on_c, 0, 69, 0
3, 214696, Note_on_c, 0, 48, 67
3, 214700, Note_on_c, 0, 72, 0
3, 214740, Control_c, 0, 64, 127
3, 214748, Note_on_c, 0, 65, 0
3, 214944, Note_on_c, 0, 77, 0
3, 214948, Note_on_c, 0, 74, 60
3, 214956, Note_on_c, 0, 54, 63
3, 214960, Note_on_c, 0, 65, 80
3, 214960, Note_on_c, 0, 70, 71
3, 214968, Note_on_c, 0, 60, 68
3, 214980, Control_c, 0, 64, 0
3, 215124, Control_c, 0, 64, 127
3, 215188, Note_on_c, 0, 60, 0
3, 215188, Note_on_c, 0, 65, 0
3, 215192, Note_on_c, 0, 70, 0
3, 215204, Note_on_c, 0, 74, 0
3, 215208, Note_on_c, 0, 54, 0
3, 215248, Note_on_c, 0, 70, 60
3, 215248, Note_on_c, 0, 54, 39
3, 215252, Note_on_c, 0, 74, 70
3, 215252, Note_on_c, 0, 65, 71
3, 215256, Note_on_c, 0, 60, 70
3, 215280, Note_on_c, 0, 76, 12
3, 215440, Note_on_c, 0, 60, 0
3, 215440, Note_on_c, 0, 70, 0
3, 215440, Note_on_c, 0, 65, 0
3, 215448, Note_on_c, 0, 54, 0
3, 215460, Note_on_c, 0, 74, 0
3, 215512, Note_on_c, 0, 76, 0
3, 215544, Note_on_c, 0, 74, 32
3, 215548, Note_on_c, 0, 60, 56
3, 215556, Note_on_c, 0, 54, 47
3, 215556, Note_on_c, 0, 70, 58
3, 215560, Note_on_c, 0, 65, 65
3, 215692, Note_on_c, 0, 60, 0
3, 215720, Note_on_c, 0, 65, 0
3, 215732, Note_on_c, 0, 54, 0
3, 215732, Note_on_c, 0, 70, 0
3, 215756, Note_on_c, 0, 74, 0
3, 215840, Note_on_c, 0, 54, 47
3, 215840, Note_on_c, 0, 74, 37
3, 215848, Note_on_c, 0, 60, 40
3, 215848, Note_on_c, 0, 65, 55
3, 215848, Note_on_c, 0, 70, 46
3, 215908, Note_on_c, 0, 48, 0
3, 216024, Note_on_c, 0, 74, 0
3, 216060, Note_on_c, 0, 60, 0
3, 216076, Note_on_c, 0, 48, 74
3, 216200, Note_on_c, 0, 70, 0
3, 216228, Note_on_c, 0, 48, 0
3, 216312, Note_on_c, 0, 65, 0
3, 216316, Note_on_c, 0, 48, 68
3, 216344, Note_on_c, 0, 54, 0
3, 216544, Note_on_c, 0, 63, 36
3, 216568, Note_on_c, 0, 67, 71
3, 216572, Note_on_c, 0, 53, 64
3, 216580, Note_on_c, 0, 59, 64
3, 216584, Note_on_c, 0, 70, 42
3, 216588, Control_c, 0, 64, 0
3, 216592, Note_on_c, 0, 71, 81
3, 216608, Note_on_c, 0, 75, 72
3, 216612, Note_on_c, 0, 70, 0
3, 216648, Note_on_c, 0, 73, 27
3, 216764, Control_c, 0, 64, 127
3, 216788, Note_on_c, 0, 75, 0
3, 216824, Note_on_c, 0, 73, 0
3, 216832, Note_on_c, 0, 59, 0
3, 216896, Note_on_c, 0, 75, 71
3, 216904, Note_on_c, 0, 59, 57
3, 216924, Note_on_c, 0, 73, 26
3, 217072, Note_on_c, 0, 59, 0
3, 217088, Note_on_c, 0, 75, 0
3, 217140, Note_on_c, 0, 73, 0
3, 217168, Note_on_c, 0, 63, 0
3, 217208, Note_on_c, 0, 75, 47
3, 217220, Note_on_c, 0, 59, 46
3, 217232, Note_on_c, 0, 63, 36
3, 217376, Note_on_c, 0, 59, 0
3, 217380, Note_on_c, 0, 75, 0
3, 217460, Note_on_c, 0, 63, 0
3, 217496, Note_on_c, 0, 67, 0
3, 217528, Note_on_c, 0, 75, 48
3, 217540, Note_on_c, 0, 59, 41
3, 217540, Note_on_c, 0, 67, 22
3, 217552, Note_on_c, 0, 63, 25
3, 217668, Note_on_c, 0, 48, 0
3, 217724, Note_on_c, 0, 71, 0
3, 217764, Note_on_c, 0, 75, 0
3, 217772, Note_on_c, 0, 67, 0
3, 217796, Note_on_c, 0, 63, 0
3, 217808, Note_on_c, 0, 53, 0
3, 217816, Note_on_c, 0, 48, 46
3, 217840, Note_on_c, 0, 59, 0
3, 217904, Note_on_c, 0, 48, 0
3, 218132, Note_on_c, 0, 65, 53
3, 218132, Note_on_c, 0, 72, 44
3, 218136, Note_on_c, 0, 62, 36
3, 218160, Note_on_c, 0, 48, 55
3, 218172, Control_c, 0, 64, 0
3, 218336, Control_c, 0, 64, 127
3, 218440, Note_on_c, 0, 72, 0
3, 218520, Note_on_c, 0, 72, 39
3, 218524, Note_on_c, 0, 58, 42
3, 218732, Note_on_c, 0, 58, 0
3, 218740, Note_on_c, 0, 65, 0
3, 218752, Note_on_c, 0, 62, 0
3, 218772, Note_on_c, 0, 72, 0
3, 218948, Note_on_c, 0, 72, 39
3, 218952, Note_on_c, 0, 62, 33
3, 218956, Note_on_c, 0, 58, 40
3, 218956, Note_on_c, 0, 65, 42
3, 219068, Note_on_c, 0, 48, 0
3, 219144, Note_on_c, 0, 72, 0
3, 219228, Note_on_c, 0, 65, 0
3, 219228, Note_on_c, 0, 62, 0
3, 219244, Note_on_c, 0, 58, 0
3, 219384, Note_on_c, 0, 48, 40
3, 219396, Note_on_c, 0, 72, 39
3, 219428, Note_on_c, 0, 62, 24
3, 219428, Note_on_c, 0, 65, 34
3, 219492, Note_on_c, 0, 48, 0
3, 219504, Note_on_c, 0, 65, 0
3, 219532, Note_on_c, 0, 72, 0
3, 219600, Note_on_c, 0, 62, 0
3, 220220, Note_on_c, 0, 74, 28
3, 220224, Note_on_c, 0, 62, 32
3, 220228, Note_on_c, 0, 70, 37
3, 220232, Note_on_c, 0, 65, 50
3, 220236, Note_on_c, 0, 24, 36
3, 220256, Note_on_c, 0, 36, 22
3, 220300, Control_c, 0, 64, 0
3, 220516, Control_c, 0, 64, 127
3, 220688, Note_on_c, 0, 65, 0
3, 220708, Note_on_c, 0, 36, 0
3, 220712, Note_on_c, 0, 62, 0
3, 220728, Note_on_c, 0, 74, 0
3, 220772, Note_on_c, 0, 70, 0
3, 221360, Note_on_c, 0, 74, 18
3, 221364, Note_on_c, 0, 70, 20
3, 221380, Note_on_c, 0, 65, 40
3, 221380, Note_on_c, 0, 62, 30
3, 221416, Note_on_c, 0, 36, 31
3, 221932, Note_on_c, 0, 62, 0
3, 221972, Note_on_c, 0, 24, 0
3, 222004, Note_on_c, 0, 36, 0
3, 222008, Note_on_c, 0, 65, 0
3, 222104, Note_on_c, 0, 70, 0
3, 222312, Note_on_c, 0, 74, 0
3, 224168, Note_on_c, 0, 89, 38
3, 224244, Note_on_c, 0, 66, 32
3, 224252, Note_on_c, 0, 77, 30
3, 224436, Note_on_c, 0, 77, 0
3, 224488, Note_on_c, 0, 89, 0
3, 224892, Note_on_c, 0, 93, 46
3, 224924, Note_on_c, 0, 70, 35
3, 224940, Note_on_c, 0, 66, 0
3, 224944, Note_on_c, 0, 81, 34
3, 225144, Note_on_c, 0, 81, 0
3, 225184, Note_on_c, 0, 93, 0
3, 225436, Note_on_c, 0, 96, 53
3, 225468, Note_on_c, 0, 70, 0
3, 225472, Note_on_c, 0, 84, 55
3, 225476, Note_on_c, 0, 73, 25
3, 225676, Note_on_c, 0, 84, 0
3, 225728, Note_on_c, 0, 96, 0
3, 226876, Note_on_c, 0, 73, 0
3, 226912, Note_on_c, 0, 100, 48
3, 226944, Note_on_c, 0, 88, 49
3, 226960, Note_on_c, 0, 77, 19
3, 227028, Note_on_c, 0, 88, 0
3, 227068, Note_on_c, 0, 100, 0
3, 227292, Note_on_c, 0, 103, 47
3, 227300, Note_on_c, 0, 80, 34
3, 227304, Note_on_c, 0, 91, 45
3, 227320, Note_on_c, 0, 77, 0
3, 227800, Note_on_c, 0, 103, 0
3, 227876, Note_on_c, 0, 80, 0
3, 227896, Note_on_c, 0, 91, 0
3, 228380, Note_on_c, 0, 77, 44
3, 228688, Note_on_c, 0, 70, 70
3, 228988, Note_on_c, 0, 77, 0
3, 228992, Note_on_c, 0, 67, 51
3, 229000, Note_on_c, 0, 63, 34
3, 229036, Note_on_c, 0, 53, 28
3, 229052, Control_c, 0, 64, 0
3, 229060, Note_on_c, 0, 58, 28
3, 229064, Note_on_c, 0, 70, 0
3, 229112, Control_c, 0, 64, 127
3, 229204, Note_on_c, 0, 67, 0
3, 229388, Note_on_c, 0, 89, 69
3, 229480, Note_on_c, 0, 53, 0
3, 229536, Note_on_c, 0, 58, 0
3, 229568, Note_on_c, 0, 63, 0
3, 230664, Note_on_c, 0, 89, 0
3, 230684, Note_on_c, 0, 84, 45
3, 230708, Note_on_c, 0, 63, 37
3, 230716, Note_on_c, 0, 67, 31
3, 231120, Note_on_c, 0, 67, 0
3, 231188, Note_on_c, 0, 63, 0
3, 231484, Note_on_c, 0, 84, 0
3, 231684, Note_on_c, 0, 62, 33
3, 231692, Note_on_c, 0, 57, 51
3, 231696, Note_on_c, 0, 84, 40
3, 231700, Note_on_c, 0, 67, 30
3, 231740, Control_c, 0, 64, 0
3, 231856, Control_c, 0, 64, 127
3, 231948, Note_on_c, 0, 63, 1
3, 232032, Note_on_c, 0, 67, 0
3, 232148, Note_on_c, 0, 84, 0
3, 232172, Note_on_c, 0, 81, 49
3, 232188, Note_on_c, 0, 65, 32
3, 232356, Note_on_c, 0, 65, 0
3, 232376, Note_on_c, 0, 62, 0
3, 232380, Note_on_c, 0, 81, 0
3, 232404, Note_on_c, 0, 63, 0
3, 232444, Note_on_c, 0, 57, 0
3, 232700, Note_on_c, 0, 81, 47
3, 232724, Control_c, 0, 64, 0
3, 232732, Note_on_c, 0, 46, 42
3, 232736, Note_on_c, 0, 69, 46
3, 232808, Control_c, 0, 64, 127
3, 232832, Note_on_c, 0, 69, 0
3, 232912, Note_on_c, 0, 81, 0
3, 233056, Note_on_c, 0, 84, 55
3, 233064, Note_on_c, 0, 53, 49
3, 233108, Note_on_c, 0, 53, 0
3, 233112, Note_on_c, 0, 46, 0
3, 233440, Note_on_c, 0, 60, 40
3, 233548, Note_on_c, 0, 84, 0
3, 233744, Note_on_c, 0, 62, 44
3, 233776, Note_on_c, 0, 96, 68
3, 234128, Note_on_c, 0, 96, 0
3, 234208, Note_on_c, 0, 65, 42
3, 234504, Note_on_c, 0, 85, 51
3, 234648, Note_on_c, 0, 85, 0
3, 234712, Note_on_c, 0, 84, 54
3, 234840, Note_on_c, 0, 84, 0
3, 234916, Note_on_c, 0, 82, 61
3, 235060, Note_on_c, 0, 82, 0
3, 235088, Note_on_c, 0, 81, 57
3, 235232, Note_on_c, 0, 81, 0
3, 235256, Note_on_c, 0, 60, 0
3, 235260, Note_on_c, 0, 84, 59
3, 235400, Note_on_c, 0, 84, 0
3, 235440, Note_on_c, 0, 81, 53
3, 235604, Note_on_c, 0, 81, 0
3, 235640, Note_on_c, 0, 74, 32
3, 235660, Note_on_c, 0, 62, 0
3, 235664, Note_on_c, 0, 57, 43
3, 235712, Control_c, 0, 64, 0
3, 235880, Control_c, 0, 64, 127
3, 235928, Note_on_c, 0, 79, 48
3, 235964, Note_on_c, 0, 62, 28
3, 235976, Note_on_c, 0, 74, 0
3, 236052, Note_on_c, 0, 65, 0
3, 236204, Note_on_c, 0, 77, 46
3, 236384, Note_on_c, 0, 79, 0
3, 236472, Note_on_c, 0, 70, 53
3, 236524, Note_on_c, 0, 65, 16
3, 236540, Note_on_c, 0, 77, 0
3, 236716, Note_on_c, 0, 70, 0
3, 236740, Note_on_c, 0, 65, 0
3, 236768, Note_on_c, 0, 69, 48
3, 236904, Note_on_c, 0, 69, 0
3, 236956, Note_on_c, 0, 74, 47
3, 236960, Note_on_c, 0, 72, 48
3, 237028, Note_on_c, 0, 74, 0
3, 237084, Note_on_c, 0, 62, 0
3, 237108, Note_on_c, 0, 72, 0
3, 237152, Note_on_c, 0, 69, 50
3, 237176, Note_on_c, 0, 57, 0
3, 237268, Note_on_c, 0, 69, 0
3, 237312, Note_on_c, 0, 62, 57
3, 237440, Note_on_c, 0, 62, 0
3, 237500, Note_on_c, 0, 60, 44
3, 237644, Note_on_c, 0, 60, 0
3, 237696, Note_on_c, 0, 57, 51
3, 237900, Note_on_c, 0, 57, 0
3, 237940, Note_on_c, 0, 43, 38
3, 237940, Note_on_c, 0, 58, 44
3, 237968, Control_c, 0, 64, 0
3, 238120, Control_c, 0, 64, 127
3, 238244, Note_on_c, 0, 58, 0
3, 238280, Note_on_c, 0, 50, 31
3, 238424, Note_on_c, 0, 45, 12
3, 238452, Note_on_c, 0, 43, 0
3, 238572, Note_on_c, 0, 50, 0
3, 238584, Note_on_c, 0, 45, 0
3, 238596, Note_on_c, 0, 57, 44
3, 238644, Note_on_c, 0, 57, 0
3, 238964, Note_on_c, 0, 72, 90
3, 238980, Note_on_c, 0, 69, 87
3, 238992, Note_on_c, 0, 58, 46
3, 238996, Note_on_c, 0, 65, 82
3, 238996, Note_on_c, 0, 62, 59
3, 239000, Note_on_c, 0, 60, 49
3, 239016, Control_c, 0, 64, 0
3, 239108, Control_c, 0, 64, 127
3, 239192, Note_on_c, 0, 65, 0
3, 239216, Note_on_c, 0, 72, 0
3, 239220, Note_on_c, 0, 69, 0
3, 239244, Note_on_c, 0, 60, 0
3, 239260, Note_on_c, 0, 62, 0
3, 239292, Note_on_c, 0, 58, 0
3, 239388, Note_on_c, 0, 76, 55
3, 239412, Note_on_c, 0, 72, 71
3, 239424, Note_on_c, 0, 67, 75
3, 239432, Note_on_c, 0, 58, 39
3, 239440, Note_on_c, 0, 62, 43
3, 239452, Note_on_c, 0, 60, 36
3, 239468, Control_c, 0, 64, 0
3, 239484, Control_c, 0, 64, 127
3, 239560, Note_on_c, 0, 60, 0
3, 239604, Note_on_c, 0, 62, 0
3, 239624, Note_on_c, 0, 58, 0
3, 239660, Note_on_c, 0, 67, 0
3, 239672, Note_on_c, 0, 72, 0
3, 239704, Note_on_c, 0, 76, 0
3, 239828, Note_on_c, 0, 76, 36
3, 239840, Note_on_c, 0, 62, 34
3, 239844, Note_on_c, 0, 72, 49
3, 239856, Note_on_c, 0, 67, 32
3, 239860, Note_on_c, 0, 58, 34
3, 239908, Note_on_c, 0, 62, 0
3, 239928, Note_on_c, 0, 67, 0
3, 239936, Note_on_c, 0, 58, 0
3, 240028, Note_on_c, 0, 72, 0
3, 240080, Note_on_c, 0, 76, 0
3, 240240, Note_on_c, 0, 76, 30
3, 240248, Control_c, 0, 64, 0
3, 240252, Note_on_c, 0, 70, 37
3, 240256, Note_on_c, 0, 48, 41
3, 240260, Note_on_c, 0, 58, 45
3, 240264, Note_on_c, 0, 65, 39
3, 240344, Note_on_c, 0, 58, 0
3, 240356, Control_c, 0, 64, 127
3, 240372, Note_on_c, 0, 48, 0
3, 240820, Note_on_c, 0, 65, 0
3, 240824, Note_on_c, 0, 24, 42
3, 240900, Note_on_c, 0, 24, 0
3, 240900, Note_on_c, 0, 70, 0
3, 241012, Note_on_c, 0, 76, 0
3, 242984, Note_on_c, 0, 68, 37
3, 242984, Note_on_c, 0, 84, 51
3, 242984, Note_on_c, 0, 75, 47
3, 242992, Note_on_c, 0, 80, 40
3, 243164, Note_on_c, 0, 84, 0
3, 243252, Note_on_c, 0, 75, 0
3, 243256, Note_on_c, 0, 80, 0
3, 243428, Note_on_c, 0, 68, 0
3, 243452, Note_on_c, 0, 72, 37
3, 243456, Note_on_c, 0, 81, 48
3, 243456, Note_on_c, 0, 67, 42
3, 243468, Note_on_c, 0, 77, 31
3, 243648, Note_on_c, 0, 81, 0
3, 243668, Note_on_c, 0, 77, 0
3, 243712, Note_on_c, 0, 67, 0
3, 243724, Note_on_c, 0, 72, 0
3, 243868, Note_on_c, 0, 77, 44
3, 243880, Note_on_c, 0, 72, 43
3, 243884, Note_on_c, 0, 74, 32
3, 243888, Note_on_c, 0, 69, 37
3, 243888, Note_on_c, 0, 65, 37
3, 244040, Note_on_c, 0, 69, 0
3, 244060, Note_on_c, 0, 72, 0
3, 244064, Note_on_c, 0, 74, 0
3, 244072, Note_on_c, 0, 65, 0
3, 244080, Note_on_c, 0, 77, 0
3, 244260, Note_on_c, 0, 81, 45
3, 244272, Note_on_c, 0, 74, 34
3, 244280, Note_on_c, 0, 76, 28
3, 244280, Control_c, 0, 64, 0
3, 244284, Note_on_c, 0, 69, 40
3, 244292, Note_on_c, 0, 53, 32
3, 244420, Control_c, 0, 64, 127
3, 244564, Note_on_c, 0, 60, 38
3, 244588, Note_on_c, 0, 74, 0
3, 244624, Note_on_c, 0, 69, 0
3, 244660, Note_on_c, 0, 53, 0
3, 244764, Note_on_c, 0, 81, 0
3, 244828, Note_on_c, 0, 76, 0
3, 244864, Note_on_c, 0, 74, 38
3, 244868, Note_on_c, 0, 67, 37
3, 244876, Note_on_c, 0, 69, 36
3, 244924, Note_on_c, 0, 67, 0
3, 244984, Note_on_c, 0, 60, 0
3, 245040, Note_on_c, 0, 69, 0
3, 245116, Note_on_c, 0, 74, 0
3, 245248, Note_on_c, 0, 45, 66
3, 245316, Note_on_c, 0, 45, 0
3, 245692, Note_on_c, 0, 84, 45
3, 245708, Note_on_c, 0, 66, 39
3, 245708, Note_on_c, 0, 55, 51
3, 245712, Note_on_c, 0, 73, 37
3, 245712, Note_on_c, 0, 61, 31
3, 245712, Note_on_c, 0, 77, 36
3, 245776, Control_c, 0, 64, 0
3, 245860, Control_c, 0, 64, 127
3, 246560, Note_on_c, 0, 84, 0
3, 246564, Note_on_c, 0, 81, 70
3, 246576, Note_on_c, 0, 73, 0
3, 246596, Note_on_c, 0, 77, 0
3, 246768, Note_on_c, 0, 73, 71
3, 246856, Note_on_c, 0, 81, 0
3, 246964, Note_on_c, 0, 72, 77
3, 246976, Note_on_c, 0, 73, 0
3, 247068, Note_on_c, 0, 66, 0
3, 247128, Note_on_c, 0, 72, 0
3, 247180, Note_on_c, 0, 76, 57
3, 247208, Note_on_c, 0, 65, 32
3, 247380, Note_on_c, 0, 76, 0
3, 247392, Note_on_c, 0, 70, 56
3, 247592, Note_on_c, 0, 70, 0
3, 247608, Note_on_c, 0, 65, 0
3, 247664, Note_on_c, 0, 69, 51
3, 247684, Note_on_c, 0, 61, 0
3, 247700, Note_on_c, 0, 55, 0
3, 247916, Note_on_c, 0, 69, 0
3, 247924, Note_on_c, 0, 67, 55
3, 248112, Note_on_c, 0, 67, 0
3, 248168, Note_on_c, 0, 65, 57
3, 248456, Note_on_c, 0, 65, 0
3, 248472, Note_on_c, 0, 64, 60
3, 248592, Note_on_c, 0, 64, 0
3, 248616, Note_on_c, 0, 63, 44
3, 248708, Note_on_c, 0, 63, 0
3, 248732, Note_on_c, 0, 62, 49
3, 248824, Note_on_c, 0, 62, 0
3, 248844, Note_on_c, 0, 61, 59
3, 248960, Note_on_c, 0, 61, 0
3, 248968, Note_on_c, 0, 60, 71
3, 248984, Note_on_c, 0, 50, 33
3, 248988, Control_c, 0, 64, 0
3, 249164, Control_c, 0, 64, 127
3, 249324, Note_on_c, 0, 57, 42
3, 249500, Note_on_c, 0, 60, 0
3, 249628, Note_on_c, 0, 64, 45
3, 249632, Note_on_c, 0, 60, 28
3, 249692, Note_on_c, 0, 64, 0
3, 249736, Note_on_c, 0, 57, 0
3, 249928, Note_on_c, 0, 60, 0
3, 249928, Note_on_c, 0, 76, 41
3, 249960, Note_on_c, 0, 57, 46
3, 250040, Note_on_c, 0, 50, 0
3, 250344, Note_on_c, 0, 65, 37
3, 250344, Note_on_c, 0, 69, 44
3, 250348, Note_on_c, 0, 64, 26
3, 250608, Note_on_c, 0, 76, 0
3, 250696, Note_on_c, 0, 76, 36
3, 250716, Note_on_c, 0, 64, 0
3, 250768, Note_on_c, 0, 57, 0
3, 250772, Note_on_c, 0, 65, 0
3, 250808, Note_on_c, 0, 69, 0
3, 251024, Note_on_c, 0, 76, 0
3, 251128, Note_on_c, 0, 76, 20
3, 251152, Control_c, 0, 64, 0
3, 251152, Note_on_c, 0, 70, 44
3, 251152, Note_on_c, 0, 65, 37
3, 251156, Note_on_c, 0, 44, 33
3, 251160, Note_on_c, 0, 54, 27
3, 251220, Note_on_c, 0, 65, 0
3, 251220, Control_c, 0, 64, 127
3, 251248, Note_on_c, 0, 44, 0
3, 251272, Note_on_c, 0, 54, 0
3, 251292, Note_on_c, 0, 70, 0
3, 251324, Note_on_c, 0, 76, 0
3, 251552, Note_on_c, 0, 84, 74
3, 251568, Note_on_c, 0, 77, 64
3, 251572, Note_on_c, 0, 72, 68
3, 251576, Note_on_c, 0, 54, 50
3, 251728, Note_on_c, 0, 84, 0
3, 251736, Note_on_c, 0, 77, 0
3, 251764, Note_on_c, 0, 72, 0
3, 251948, Note_on_c, 0, 81, 49
3, 251952, Note_on_c, 0, 69, 50
3, 251960, Note_on_c, 0, 77, 35
3, 251964, Note_on_c, 0, 60, 39
3, 252076, Note_on_c, 0, 81, 0
3, 252092, Note_on_c, 0, 77, 0
3, 252160, Note_on_c, 0, 69, 0
3, 252220, Note_on_c, 0, 60, 0
3, 252352, Note_on_c, 0, 78, 49
3, 252364, Note_on_c, 0, 66, 42
3, 252388, Note_on_c, 0, 60, 29
3, 252564, Note_on_c, 0, 60, 0
3, 252656, Note_on_c, 0, 66, 0
3, 252656, Note_on_c, 0, 54, 0
3, 252672, Note_on_c, 0, 78, 0
3, 253168, Note_on_c, 0, 77, 46
3, 253176, Note_on_c, 0, 43, 47
3, 253180, Note_on_c, 0, 70, 40
3, 253180, Note_on_c, 0, 74, 31
3, 253184, Control_c, 0, 64, 0
3, 253188, Note_on_c, 0, 65, 41
3, 253244, Control_c, 0, 64, 127
3, 253268, Note_on_c, 0, 43, 0
3, 253504, Note_on_c, 0, 77, 0
3, 253568, Note_on_c, 0, 65, 0
3, 253608, Note_on_c, 0, 70, 0
3, 253624, Note_on_c, 0, 74, 0
3, 253656, Note_on_c, 0, 57, 36
3, 253664, Note_on_c, 0, 58, 26
3, 253672, Note_on_c, 0, 62, 24
3, 253892, Note_on_c, 0, 62, 0
3, 253944, Note_on_c, 0, 58, 0
3, 254012, Note_on_c, 0, 57, 0
3, 254152, Note_on_c, 0, 81, 55
3, 254156, Note_on_c, 0, 59, 35
3, 254164, Note_on_c, 0, 69, 45
3, 254168, Note_on_c, 0, 64, 45
3, 254168, Note_on_c, 0, 76, 30
3, 254176, Note_on_c, 0, 73, 25
3, 254188, Note_on_c, 0, 79, 25
3, 254252, Control_c, 0, 64, 0
3, 254400, Control_c, 0, 64, 127
3, 254600, Note_on_c, 0, 81, 0
3, 254612, Note_on_c, 0, 79, 0
3, 254616, Note_on_c, 0, 53, 35
3, 254632, Note_on_c, 0, 76, 0
3, 254636, Note_on_c, 0, 64, 0
3, 254656, Note_on_c, 0, 59, 0
3, 254656, Note_on_c, 0, 73, 0
3, 254672, Note_on_c, 0, 53, 0
3, 254672, Note_on_c, 0, 69, 0
3, 255224, Note_on_c, 0, 69, 36
3, 255240, Note_on_c, 0, 61, 30
3, 255248, Note_on_c, 0, 64, 37
3, 255256, Note_on_c, 0, 59, 20
3, 255264, Note_on_c, 0, 43, 33
3, 255272, Note_on_c, 0, 53, 20
3, 255276, Note_on_c, 0, 50, 18
3, 255300, Control_c, 0, 64, 0
3, 255440, Control_c, 0, 64, 127
3, 256716, Note_on_c, 0, 43, 0
3, 256740, Note_on_c, 0, 69, 0
3, 256752, Note_on_c, 0, 50, 0
3, 256760, Note_on_c, 0, 59, 0
3, 256780, Note_on_c, 0, 53, 0
3, 256808, Note_on_c, 0, 64, 0
3, 256880, Note_on_c, 0, 61, 0
3, 257252, Note_on_c, 0, 58, 99
3, 257264, Note_on_c, 0, 43, 72
3, 257272, Control_c, 0, 64, 0
3, 257316, Control_c, 0, 64, 127
3, 257512, Note_on_c, 0, 46, 77
3, 257528, Note_on_c, 0, 62, 80
3, 257532, Control_c, 0, 64, 0
3, 257536, Note_on_c, 0, 43, 0
3, 257588, Note_on_c, 0, 58, 0
3, 257604, Control_c, 0, 64, 127
3, 257784, Note_on_c, 0, 50, 79
3, 257788, Control_c, 0, 64, 0
3, 257788, Note_on_c, 0, 65, 85
3, 257832, Note_on_c, 0, 62, 0
3, 257856, Control_c, 0, 64, 127
3, 258020, Note_on_c, 0, 65, 0
3, 258056, Control_c, 0, 64, 0
3, 258068, Note_on_c, 0, 69, 78
3, 258076, Note_on_c, 0, 62, 73
3, 258080, Note_on_c, 0, 58, 77
3, 258096, Note_on_c, 0, 50, 0
3, 258096, Note_on_c, 0, 46, 0
3, 258096, Note_on_c, 0, 53, 62
3, 258104, Note_on_c, 0, 65, 49
3, 258140, Control_c, 0, 64, 127
3, 258184, Note_on_c, 0, 65, 0
3, 258184, Note_on_c, 0, 58, 0
3, 258188, Note_on_c, 0, 62, 0
3, 258216, Note_on_c, 0, 69, 0
3, 258328, Note_on_c, 0, 53, 0
3, 259664, Note_on_c, 0, 72, 49
3, 259672, Note_on_c, 0, 67, 51
3, 259680, Note_on_c, 0, 45, 51
3, 259680, Note_on_c, 0, 60, 33
3, 259684, Note_on_c, 0, 33, 38
3, 259704, Control_c, 0, 64, 0
3, 259852, Control_c, 0, 64, 127
3, 259984, Note_on_c, 0, 72, 0
3, 260016, Note_on_c, 0, 67, 0
3, 260160, Note_on_c, 0, 60, 0
3, 260160, Note_on_c, 0, 45, 0
3, 260164, Note_on_c, 0, 33, 0
3, 260592, Note_on_c, 0, 58, 53
3, 260596, Note_on_c, 0, 61, 36
3, 260604, Note_on_c, 0, 34, 47
3, 260612, Note_on_c, 0, 53, 22
3, 260624, Note_on_c, 0, 46, 31
3, 260628, Note_on_c, 0, 62, 49
3, 260656, Note_on_c, 0, 61, 0
3, 260668, Control_c, 0, 64, 0
3, 260868, Control_c, 0, 64, 127
3, 261096, Note_on_c, 0, 46, 0
3, 261188, Note_on_c, 0, 34, 0
3, 261200, Note_on_c, 0, 65, 40
3, 261464, Note_on_c, 0, 53, 0
3, 261528, Note_on_c, 0, 62, 0
3, 261620, Note_on_c, 0, 58, 0
3, 261644, Note_on_c, 0, 65, 0
3, 262184, Note_on_c, 0, 65, 38
3, 262200, Note_on_c, 0, 61, 33
3, 262208, Note_on_c, 0, 24, 37
3, 262208, Note_on_c, 0, 58, 38
3, 262216, Note_on_c, 0, 53, 16
3, 262228, Note_on_c, 0, 36, 25
3, 262228, Control_c, 0, 64, 0
3, 262500, Control_c, 0, 64, 127
3, 263136, Note_on_c, 0, 65, 0
3, 263988, Note_on_c, 0, 65, 44
3, 264048, Note_on_c, 0, 24, 0
3, 264068, Note_on_c, 0, 36, 0
3, 264176, Note_on_c, 0, 53, 0
3, 264892, Note_on_c, 0, 65, 0
3, 264896, Note_on_c, 0, 58, 0
3, 265108, Note_on_c, 0, 61, 0
3, 266276, Note_on_c, 0, 65, 37
3, 266296, Note_on_c, 0, 57, 35
3, 266300, Note_on_c, 0, 41, 33
3, 266340, Control_c, 0, 64, 0
3, 266356, Note_on_c, 0, 48, 8
3, 266456, Control_c, 0, 64, 127
3, 266568, Note_on_c, 0, 57, 0
3, 266652, Note_on_c, 0, 41, 0
3, 266672, Note_on_c, 0, 48, 0
3, 266680, Note_on_c, 0, 65, 0
3, 268036, Note_on_c, 0, 89, 43
3, 268052, Note_on_c, 0, 66, 25
3, 268060, Note_on_c, 0, 77, 24
3, 268212, Note_on_c, 0, 77, 0
3, 268216, Note_on_c, 0, 89, 0
3, 268592, Note_on_c, 0, 70, 32
3, 268596, Note_on_c, 0, 66, 0
3, 268596, Note_on_c, 0, 93, 36
3, 268612, Note_on_c, 0, 81, 31
3, 268772, Note_on_c, 0, 81, 0
3, 268800, Note_on_c, 0, 93, 0
3, 269200, Note_on_c, 0, 96, 54
3, 269200, Note_on_c, 0, 73, 34
3, 269208, Note_on_c, 0, 70, 0
3, 269208, Note_on_c, 0, 84, 29
3, 269444, Note_on_c, 0, 84, 0
3, 269492, Note_on_c, 0, 96, 0
3, 269972, Note_on_c, 0, 100, 47
3, 269984, Note_on_c, 0, 88, 40
3, 269992, Note_on_c, 0, 77, 25
3, 270036, Note_on_c, 0, 73, 0
3, 270372, Note_on_c, 0, 88, 0
3, 270420, Note_on_c, 0, 100, 0
3, 270904, Note_on_c, 0, 103, 42
3, 270912, Note_on_c, 0, 80, 32
3, 270916, Note_on_c, 0, 91, 35
3, 270964, Note_on_c, 0, 77, 0
3, 271404, Note_on_c, 0, 80, 0
3, 271884, Note_on_c, 0, 91, 0
3, 271976, Note_on_c, 0, 103, 0
3, 273164, Note_on_c, 0, 29, 31
3, 275672, Control_c, 0, 64, 0
3, 276980, Note_on_c, 0, 29, 0
3, 276980, End_track
4, 0, Start_track
4, 0, Title_t, "Unedited solo piano"
4, 0, End_track
0, 0, End_of_file
