0, 0, Header, 1, 4, 960
1, 0, Start_track
1, 0, Title_t, "Prelude to a Kiss"
1, 0, Text_t, "Duke Ellington dougmck@pipeline.com.au . Piano played in live with minimal editing.  Brush drum kit will need a fairly long 'swirl' sample.\012"
1, 0, Time_signature, 4, 2, 24, 8
1, 0, Key_signature, 0, "major"
1, 0, Tempo, 1090909
1, 0, End_track
2, 0, Start_track
2, 0, Title_t, "Piano"
2, 0, Program_c, 0, 0
2, 0, Control_c, 0, 7, 106
2, 0, Control_c, 0, 64, 127
2, 0, Control_c, 0, 64, 0
2, 0, Control_c, 0, 64, 127
2, 0, Control_c, 0, 64, 0
2, 0, Control_c, 0, 64, 127
2, 0, Note_on_c, 0, 83, 53
2, 8, Note_on_c, 0, 80, 30
2, 15, Note_on_c, 0, 54, 35
2, 15, Note_on_c, 0, 76, 44
2, 21, Control_c, 0, 64, 0
2, 23, Note_on_c, 0, 71, 43
2, 41, Note_on_c, 0, 64, 18
2, 53, Note_on_c, 0, 60, 27
2, 297, Control_c, 0, 64, 127
2, 633, Note_on_c, 0, 64, 0
2, 650, Note_on_c, 0, 60, 0
2, 1080, Note_on_c, 0, 64, 20
2, 1090, Note_on_c, 0, 60, 25
2, 1190, Note_on_c, 0, 71, 0
2, 1277, Note_on_c, 0, 76, 0
2, 1395, Note_on_c, 0, 80, 0
2, 1405, Note_on_c, 0, 83, 0
2, 1711, Note_on_c, 0, 60, 0
2, 1742, Note_on_c, 0, 82, 80
2, 1855, Note_on_c, 0, 64, 0
2, 1937, Note_on_c, 0, 82, 0
2, 1939, Note_on_c, 0, 54, 0
2, 1970, Note_on_c, 0, 80, 56
2, 2002, Note_on_c, 0, 64, 44
2, 2003, Note_on_c, 0, 53, 44
2, 2013, Note_on_c, 0, 81, 63
2, 2020, Note_on_c, 0, 59, 44
2, 2022, Control_c, 0, 64, 0
2, 2060, Note_on_c, 0, 80, 0
2, 2604, Control_c, 0, 64, 127
2, 2778, Note_on_c, 0, 64, 0
2, 2781, Note_on_c, 0, 53, 0
2, 2844, Note_on_c, 0, 59, 0
2, 2997, Note_on_c, 0, 63, 46
2, 3019, Note_on_c, 0, 59, 31
2, 3028, Note_on_c, 0, 53, 27
2, 3073, Control_c, 0, 64, 0
2, 3170, Control_c, 0, 64, 127
2, 3276, Control_c, 0, 64, 0
2, 3408, Control_c, 0, 64, 127
2, 3522, Note_on_c, 0, 53, 0
2, 3528, Note_on_c, 0, 59, 0
2, 3534, Note_on_c, 0, 63, 0
2, 3696, Note_on_c, 0, 81, 0
2, 3723, Note_on_c, 0, 80, 43
2, 3813, Control_c, 0, 64, 0
2, 3870, Note_on_c, 0, 80, 0
2, 3936, Note_on_c, 0, 58, 27
2, 3937, Note_on_c, 0, 52, 28
2, 3942, Note_on_c, 0, 79, 44
2, 3952, Note_on_c, 0, 57, 24
2, 3956, Note_on_c, 0, 62, 32
2, 4214, Note_on_c, 0, 79, 0
2, 4228, Note_on_c, 0, 81, 45
2, 4322, Note_on_c, 0, 81, 0
2, 4344, Note_on_c, 0, 52, 0
2, 4362, Note_on_c, 0, 62, 0
2, 4369, Note_on_c, 0, 57, 0
2, 4380, Note_on_c, 0, 58, 0
2, 4448, Note_on_c, 0, 76, 37
2, 4588, Note_on_c, 0, 76, 0
2, 4730, Note_on_c, 0, 76, 52
2, 4831, Note_on_c, 0, 76, 0
2, 5048, Note_on_c, 0, 76, 57
2, 5226, Note_on_c, 0, 76, 0
2, 5246, Note_on_c, 0, 78, 37
2, 5326, Note_on_c, 0, 76, 24
2, 5362, Note_on_c, 0, 78, 0
2, 5417, Note_on_c, 0, 76, 0
2, 5427, Note_on_c, 0, 75, 38
2, 5514, Note_on_c, 0, 75, 0
2, 5564, Note_on_c, 0, 76, 43
2, 5845, Note_on_c, 0, 64, 34
2, 5879, Note_on_c, 0, 60, 32
2, 5882, Note_on_c, 0, 53, 24
2, 5906, Note_on_c, 0, 57, 20
2, 6266, Control_c, 0, 64, 127
2, 6382, Note_on_c, 0, 53, 0
2, 6391, Note_on_c, 0, 57, 0
2, 6392, Note_on_c, 0, 60, 0
2, 6431, Note_on_c, 0, 64, 0
2, 6757, Note_on_c, 0, 67, 52
2, 6759, Note_on_c, 0, 56, 47
2, 6784, Note_on_c, 0, 62, 47
2, 6811, Control_c, 0, 64, 0
2, 7244, Control_c, 0, 64, 127
2, 7419, Note_on_c, 0, 62, 0
2, 7424, Note_on_c, 0, 77, 62
2, 7427, Note_on_c, 0, 67, 0
2, 7479, Note_on_c, 0, 76, 0
2, 7491, Note_on_c, 0, 56, 0
2, 7599, Note_on_c, 0, 79, 67
2, 7615, Note_on_c, 0, 77, 0
2, 7774, Control_c, 0, 64, 0
2, 7778, Note_on_c, 0, 79, 0
2, 7800, Note_on_c, 0, 63, 55
2, 7807, Note_on_c, 0, 68, 43
2, 7810, Note_on_c, 0, 57, 55
2, 7812, Note_on_c, 0, 80, 59
2, 8207, Control_c, 0, 64, 127
2, 8596, Note_on_c, 0, 57, 0
2, 8607, Note_on_c, 0, 80, 0
2, 8625, Note_on_c, 0, 68, 0
2, 8683, Note_on_c, 0, 63, 0
2, 9166, Control_c, 0, 64, 0
2, 9177, Note_on_c, 0, 79, 80
2, 9195, Note_on_c, 0, 63, 53
2, 9196, Note_on_c, 0, 62, 39
2, 9198, Note_on_c, 0, 67, 68
2, 9201, Note_on_c, 0, 74, 80
2, 9207, Note_on_c, 0, 57, 55
2, 9217, Note_on_c, 0, 78, 30
2, 9251, Note_on_c, 0, 78, 0
2, 9308, Control_c, 0, 64, 127
2, 9434, Note_on_c, 0, 57, 0
2, 9435, Note_on_c, 0, 62, 0
2, 9436, Note_on_c, 0, 67, 0
2, 9477, Note_on_c, 0, 74, 0
2, 9483, Note_on_c, 0, 63, 0
2, 9499, Note_on_c, 0, 79, 0
2, 9659, Note_on_c, 0, 78, 74
2, 9681, Note_on_c, 0, 62, 62
2, 9682, Note_on_c, 0, 74, 73
2, 9683, Note_on_c, 0, 66, 71
2, 9687, Control_c, 0, 64, 0
2, 9688, Note_on_c, 0, 56, 65
2, 9694, Note_on_c, 0, 69, 56
2, 10006, Control_c, 0, 64, 127
2, 10280, Note_on_c, 0, 62, 0
2, 10282, Note_on_c, 0, 66, 0
2, 10307, Note_on_c, 0, 69, 0
2, 10361, Note_on_c, 0, 78, 0
2, 10368, Note_on_c, 0, 74, 0
2, 10391, Note_on_c, 0, 56, 0
2, 10588, Control_c, 0, 64, 0
2, 10590, Note_on_c, 0, 77, 51
2, 10596, Note_on_c, 0, 68, 40
2, 10597, Note_on_c, 0, 74, 51
2, 10610, Note_on_c, 0, 65, 41
2, 10610, Note_on_c, 0, 56, 44
2, 10611, Note_on_c, 0, 62, 38
2, 10843, Control_c, 0, 64, 127
2, 11015, Note_on_c, 0, 62, 0
2, 11066, Note_on_c, 0, 74, 0
2, 11090, Note_on_c, 0, 65, 0
2, 11110, Note_on_c, 0, 77, 0
2, 11121, Note_on_c, 0, 68, 0
2, 11182, Note_on_c, 0, 56, 0
2, 11503, Control_c, 0, 64, 0
2, 11518, Note_on_c, 0, 76, 34
2, 11525, Note_on_c, 0, 73, 28
2, 11535, Note_on_c, 0, 64, 29
2, 11540, Note_on_c, 0, 67, 24
2, 11541, Note_on_c, 0, 61, 31
2, 11544, Note_on_c, 0, 55, 33
2, 11787, Control_c, 0, 64, 127
2, 11917, Note_on_c, 0, 67, 0
2, 11991, Note_on_c, 0, 55, 0
2, 11992, Note_on_c, 0, 73, 0
2, 12033, Note_on_c, 0, 76, 0
2, 12066, Note_on_c, 0, 61, 0
2, 12071, Note_on_c, 0, 64, 0
2, 12472, Note_on_c, 0, 89, 70
2, 12501, Control_c, 0, 64, 0
2, 12502, Note_on_c, 0, 55, 46
2, 12503, Note_on_c, 0, 84, 64
2, 12513, Note_on_c, 0, 61, 42
2, 12521, Note_on_c, 0, 60, 30
2, 12524, Note_on_c, 0, 81, 51
2, 12526, Note_on_c, 0, 65, 53
2, 12577, Note_on_c, 0, 77, 31
2, 12642, Control_c, 0, 64, 127
2, 13084, Note_on_c, 0, 60, 0
2, 13152, Note_on_c, 0, 89, 0
2, 13154, Note_on_c, 0, 65, 0
2, 13155, Note_on_c, 0, 55, 0
2, 13159, Note_on_c, 0, 77, 0
2, 13198, Note_on_c, 0, 84, 0
2, 13213, Note_on_c, 0, 81, 0
2, 13218, Note_on_c, 0, 61, 0
2, 13481, Control_c, 0, 64, 0
2, 13519, Note_on_c, 0, 86, 44
2, 13524, Note_on_c, 0, 74, 34
2, 13534, Note_on_c, 0, 81, 37
2, 13543, Note_on_c, 0, 64, 26
2, 13559, Note_on_c, 0, 57, 32
2, 13567, Note_on_c, 0, 60, 30
2, 13570, Note_on_c, 0, 53, 20
2, 14045, Control_c, 0, 64, 127
2, 14121, Note_on_c, 0, 86, 0
2, 14186, Note_on_c, 0, 81, 0
2, 14268, Note_on_c, 0, 60, 0
2, 14275, Note_on_c, 0, 74, 0
2, 14308, Note_on_c, 0, 64, 0
2, 14517, Note_on_c, 0, 60, 27
2, 14518, Note_on_c, 0, 64, 20
2, 14701, Note_on_c, 0, 72, 51
2, 14789, Note_on_c, 0, 72, 0
2, 14818, Note_on_c, 0, 73, 40
2, 14877, Note_on_c, 0, 73, 0
2, 14901, Note_on_c, 0, 74, 60
2, 14952, Control_c, 0, 64, 0
2, 14973, Note_on_c, 0, 74, 0
2, 14981, Note_on_c, 0, 64, 0
2, 14993, Note_on_c, 0, 75, 65
2, 15006, Note_on_c, 0, 60, 0
2, 15022, Note_on_c, 0, 57, 0
2, 15060, Note_on_c, 0, 75, 0
2, 15078, Note_on_c, 0, 53, 0
2, 15087, Note_on_c, 0, 76, 58
2, 15172, Note_on_c, 0, 76, 0
2, 15175, Note_on_c, 0, 77, 38
2, 15234, Note_on_c, 0, 78, 56
2, 15271, Note_on_c, 0, 77, 0
2, 15344, Note_on_c, 0, 79, 73
2, 15376, Note_on_c, 0, 60, 32
2, 15377, Note_on_c, 0, 57, 35
2, 15379, Note_on_c, 0, 78, 0
2, 15380, Note_on_c, 0, 50, 42
2, 15382, Note_on_c, 0, 53, 35
2, 15452, Note_on_c, 0, 79, 0
2, 15628, Note_on_c, 0, 79, 68
2, 15689, Note_on_c, 0, 79, 0
2, 15880, Note_on_c, 0, 79, 61
2, 15955, Note_on_c, 0, 79, 0
2, 16104, Note_on_c, 0, 69, 34
2, 16209, Note_on_c, 0, 69, 0
2, 16361, Note_on_c, 0, 69, 33
2, 16505, Note_on_c, 0, 69, 0
2, 16598, Note_on_c, 0, 69, 41
2, 16745, Note_on_c, 0, 69, 0
2, 16751, Note_on_c, 0, 57, 0
2, 16753, Note_on_c, 0, 53, 0
2, 16760, Note_on_c, 0, 50, 0
2, 16789, Control_c, 0, 64, 127
2, 16809, Note_on_c, 0, 68, 31
2, 16843, Note_on_c, 0, 60, 0
2, 16935, Note_on_c, 0, 68, 0
2, 17045, Note_on_c, 0, 68, 37
2, 17206, Note_on_c, 0, 68, 0
2, 17219, Control_c, 0, 64, 0
2, 17270, Note_on_c, 0, 64, 31
2, 17280, Note_on_c, 0, 67, 36
2, 17294, Note_on_c, 0, 53, 25
2, 17296, Note_on_c, 0, 59, 38
2, 17864, Control_c, 0, 64, 127
2, 17956, Note_on_c, 0, 59, 0
2, 17962, Note_on_c, 0, 64, 0
2, 18198, Note_on_c, 0, 53, 0
2, 18227, Control_c, 0, 64, 0
2, 18255, Note_on_c, 0, 56, 29
2, 18263, Note_on_c, 0, 62, 32
2, 18288, Note_on_c, 0, 59, 20
2, 18453, Note_on_c, 0, 68, 51
2, 18465, Note_on_c, 0, 67, 0
2, 18595, Note_on_c, 0, 70, 74
2, 18632, Note_on_c, 0, 68, 0
2, 18700, Note_on_c, 0, 70, 0
2, 18728, Note_on_c, 0, 71, 71
2, 18841, Note_on_c, 0, 71, 0
2, 18854, Note_on_c, 0, 59, 0
2, 18862, Note_on_c, 0, 56, 0
2, 18883, Note_on_c, 0, 74, 72
2, 18999, Note_on_c, 0, 62, 0
2, 19014, Note_on_c, 0, 74, 0
2, 19036, Note_on_c, 0, 71, 66
2, 19174, Note_on_c, 0, 72, 67
2, 19181, Note_on_c, 0, 71, 0
2, 19206, Note_on_c, 0, 64, 34
2, 19224, Note_on_c, 0, 57, 30
2, 19231, Note_on_c, 0, 60, 34
2, 19321, Note_on_c, 0, 72, 0
2, 19328, Note_on_c, 0, 76, 44
2, 19439, Note_on_c, 0, 76, 0
2, 19455, Note_on_c, 0, 79, 58
2, 19532, Note_on_c, 0, 79, 0
2, 19618, Note_on_c, 0, 83, 57
2, 19734, Note_on_c, 0, 83, 0
2, 19768, Note_on_c, 0, 74, 55
2, 19783, Note_on_c, 0, 86, 69
2, 19904, Note_on_c, 0, 86, 0
2, 19939, Note_on_c, 0, 74, 0
2, 19986, Note_on_c, 0, 86, 55
2, 19991, Note_on_c, 0, 74, 41
2, 20095, Note_on_c, 0, 86, 0
2, 20125, Note_on_c, 0, 74, 0
2, 20199, Note_on_c, 0, 74, 49
2, 20200, Note_on_c, 0, 86, 66
2, 20317, Control_c, 0, 64, 127
2, 20353, Note_on_c, 0, 74, 0
2, 20378, Note_on_c, 0, 86, 0
2, 20451, Note_on_c, 0, 84, 32
2, 20524, Note_on_c, 0, 84, 0
2, 20627, Note_on_c, 0, 86, 56
2, 20644, Note_on_c, 0, 74, 30
2, 20716, Note_on_c, 0, 60, 0
2, 20731, Note_on_c, 0, 57, 0
2, 20740, Note_on_c, 0, 64, 0
2, 20751, Note_on_c, 0, 74, 0
2, 20760, Note_on_c, 0, 86, 0
2, 20849, Note_on_c, 0, 84, 42
2, 20956, Note_on_c, 0, 84, 0
2, 21039, Control_c, 0, 64, 0
2, 21078, Note_on_c, 0, 86, 45
2, 21082, Note_on_c, 0, 54, 35
2, 21086, Note_on_c, 0, 74, 27
2, 21096, Note_on_c, 0, 83, 40
2, 21097, Note_on_c, 0, 80, 31
2, 21107, Note_on_c, 0, 64, 19
2, 21118, Note_on_c, 0, 60, 29
2, 21371, Note_on_c, 0, 84, 48
2, 21389, Note_on_c, 0, 86, 0
2, 21469, Note_on_c, 0, 83, 0
2, 21490, Note_on_c, 0, 74, 0
2, 21524, Note_on_c, 0, 84, 0
2, 21527, Note_on_c, 0, 80, 0
2, 21560, Control_c, 0, 64, 127
2, 21607, Note_on_c, 0, 86, 27
2, 21618, Note_on_c, 0, 80, 19
2, 21625, Note_on_c, 0, 74, 24
2, 21755, Note_on_c, 0, 74, 0
2, 21759, Note_on_c, 0, 64, 0
2, 21785, Note_on_c, 0, 60, 0
2, 21786, Note_on_c, 0, 80, 0
2, 21793, Note_on_c, 0, 86, 0
2, 21832, Note_on_c, 0, 84, 53
2, 21993, Note_on_c, 0, 84, 0
2, 22083, Note_on_c, 0, 64, 32
2, 22087, Note_on_c, 0, 86, 51
2, 22091, Note_on_c, 0, 74, 43
2, 22092, Note_on_c, 0, 80, 32
2, 22107, Note_on_c, 0, 60, 31
2, 22107, Note_on_c, 0, 83, 39
2, 22250, Note_on_c, 0, 74, 0
2, 22273, Note_on_c, 0, 86, 0
2, 22278, Note_on_c, 0, 83, 0
2, 22289, Note_on_c, 0, 64, 0
2, 22316, Note_on_c, 0, 54, 0
2, 22320, Note_on_c, 0, 60, 0
2, 22328, Note_on_c, 0, 80, 0
2, 22388, Note_on_c, 0, 54, 51
2, 22390, Note_on_c, 0, 64, 42
2, 22391, Note_on_c, 0, 88, 71
2, 22393, Note_on_c, 0, 76, 62
2, 22401, Note_on_c, 0, 60, 37
2, 22408, Note_on_c, 0, 81, 45
2, 22546, Note_on_c, 0, 88, 0
2, 22548, Note_on_c, 0, 64, 0
2, 22560, Note_on_c, 0, 81, 0
2, 22566, Note_on_c, 0, 54, 0
2, 22567, Note_on_c, 0, 76, 0
2, 22590, Note_on_c, 0, 60, 0
2, 22636, Control_c, 0, 64, 0
2, 22654, Note_on_c, 0, 54, 55
2, 22657, Note_on_c, 0, 86, 68
2, 22664, Note_on_c, 0, 64, 48
2, 22667, Note_on_c, 0, 60, 50
2, 22669, Note_on_c, 0, 81, 62
2, 22670, Note_on_c, 0, 74, 60
2, 22780, Note_on_c, 0, 86, 0
2, 22798, Note_on_c, 0, 74, 0
2, 22806, Note_on_c, 0, 64, 0
2, 22826, Note_on_c, 0, 81, 0
2, 22831, Control_c, 0, 64, 127
2, 22832, Note_on_c, 0, 54, 0
2, 22851, Note_on_c, 0, 60, 0
2, 22884, Note_on_c, 0, 54, 23
2, 22899, Note_on_c, 0, 85, 59
2, 22903, Note_on_c, 0, 73, 46
2, 22924, Note_on_c, 0, 81, 24
2, 22925, Note_on_c, 0, 60, 29
2, 22926, Note_on_c, 0, 64, 34
2, 22981, Note_on_c, 0, 81, 0
2, 22982, Note_on_c, 0, 64, 0
2, 23015, Note_on_c, 0, 85, 0
2, 23023, Note_on_c, 0, 54, 0
2, 23030, Note_on_c, 0, 73, 0
2, 23051, Note_on_c, 0, 60, 0
2, 23068, Control_c, 0, 64, 0
2, 23106, Note_on_c, 0, 60, 24
2, 23113, Note_on_c, 0, 64, 50
2, 23116, Note_on_c, 0, 81, 50
2, 23117, Note_on_c, 0, 74, 58
2, 23119, Note_on_c, 0, 57, 47
2, 23124, Note_on_c, 0, 86, 60
2, 23134, Note_on_c, 0, 53, 30
2, 23332, Control_c, 0, 64, 127
2, 23714, Note_on_c, 0, 57, 0
2, 23730, Note_on_c, 0, 64, 0
2, 23753, Note_on_c, 0, 60, 0
2, 23787, Note_on_c, 0, 74, 0
2, 23844, Note_on_c, 0, 86, 0
2, 23847, Note_on_c, 0, 81, 0
2, 24024, Note_on_c, 0, 64, 34
2, 24038, Note_on_c, 0, 57, 32
2, 24042, Note_on_c, 0, 60, 32
2, 24333, Note_on_c, 0, 76, 57
2, 24484, Note_on_c, 0, 76, 0
2, 24577, Note_on_c, 0, 57, 0
2, 24578, Note_on_c, 0, 60, 0
2, 24595, Note_on_c, 0, 77, 66
2, 24597, Note_on_c, 0, 53, 0
2, 24613, Note_on_c, 0, 76, 50
2, 24623, Note_on_c, 0, 64, 0
2, 24645, Note_on_c, 0, 76, 0
2, 24736, Note_on_c, 0, 77, 0
2, 24782, Note_on_c, 0, 79, 79
2, 24912, Control_c, 0, 64, 0
2, 24931, Note_on_c, 0, 79, 0
2, 24966, Note_on_c, 0, 64, 48
2, 24981, Note_on_c, 0, 80, 69
2, 24982, Note_on_c, 0, 53, 25
2, 24995, Note_on_c, 0, 59, 28
2, 25521, Control_c, 0, 64, 127
2, 25651, Note_on_c, 0, 59, 0
2, 25707, Note_on_c, 0, 64, 0
2, 25985, Note_on_c, 0, 64, 30
2, 25995, Note_on_c, 0, 59, 30
2, 26017, Note_on_c, 0, 80, 0
2, 26290, Note_on_c, 0, 83, 89
2, 26516, Note_on_c, 0, 64, 0
2, 26601, Note_on_c, 0, 53, 0
2, 26629, Note_on_c, 0, 84, 72
2, 26711, Note_on_c, 0, 83, 0
2, 26735, Note_on_c, 0, 84, 0
2, 26772, Note_on_c, 0, 86, 83
2, 26799, Note_on_c, 0, 59, 0
2, 26869, Control_c, 0, 64, 0
2, 26896, Note_on_c, 0, 86, 0
2, 26955, Note_on_c, 0, 55, 34
2, 26956, Note_on_c, 0, 83, 71
2, 26960, Note_on_c, 0, 59, 16
2, 26961, Note_on_c, 0, 62, 24
2, 26972, Note_on_c, 0, 52, 27
2, 27048, Note_on_c, 0, 83, 0
2, 27130, Note_on_c, 0, 79, 51
2, 27203, Note_on_c, 0, 79, 0
2, 27262, Note_on_c, 0, 76, 39
2, 27334, Note_on_c, 0, 76, 0
2, 27431, Note_on_c, 0, 71, 51
2, 27537, Note_on_c, 0, 71, 0
2, 27614, Note_on_c, 0, 67, 40
2, 27717, Control_c, 0, 64, 127
2, 28157, Note_on_c, 0, 67, 0
2, 28338, Note_on_c, 0, 55, 0
2, 28348, Note_on_c, 0, 52, 0
2, 28362, Note_on_c, 0, 59, 0
2, 28368, Note_on_c, 0, 62, 0
2, 28776, Control_c, 0, 64, 0
2, 28777, Note_on_c, 0, 61, 60
2, 28779, Note_on_c, 0, 66, 60
2, 28780, Note_on_c, 0, 55, 64
2, 29055, Note_on_c, 0, 93, 92
2, 29214, Note_on_c, 0, 93, 0
2, 29215, Note_on_c, 0, 94, 72
2, 29326, Note_on_c, 0, 94, 0
2, 29373, Note_on_c, 0, 96, 74
2, 29417, Note_on_c, 0, 66, 0
2, 29494, Note_on_c, 0, 96, 0
2, 29507, Note_on_c, 0, 93, 69
2, 29595, Note_on_c, 0, 93, 0
2, 29664, Note_on_c, 0, 89, 48
2, 29687, Note_on_c, 0, 61, 0
2, 29757, Note_on_c, 0, 85, 39
2, 29782, Note_on_c, 0, 89, 0
2, 29877, Note_on_c, 0, 61, 31
2, 29896, Note_on_c, 0, 65, 33
2, 29899, Note_on_c, 0, 85, 0
2, 29916, Note_on_c, 0, 84, 48
2, 30052, Note_on_c, 0, 84, 0
2, 30083, Note_on_c, 0, 82, 53
2, 30211, Note_on_c, 0, 82, 0
2, 30253, Note_on_c, 0, 81, 35
2, 30365, Note_on_c, 0, 81, 0
2, 30403, Note_on_c, 0, 65, 0
2, 30426, Note_on_c, 0, 79, 24
2, 30503, Note_on_c, 0, 55, 0
2, 30539, Note_on_c, 0, 79, 0
2, 30549, Note_on_c, 0, 80, 55
2, 30656, Note_on_c, 0, 80, 0
2, 30680, Note_on_c, 0, 81, 63
2, 30701, Note_on_c, 0, 61, 0
2, 30777, Note_on_c, 0, 81, 0
2, 30787, Note_on_c, 0, 54, 37
2, 30797, Note_on_c, 0, 64, 29
2, 30814, Note_on_c, 0, 82, 67
2, 30816, Note_on_c, 0, 60, 34
2, 30913, Note_on_c, 0, 82, 0
2, 30939, Note_on_c, 0, 83, 62
2, 31041, Note_on_c, 0, 83, 0
2, 31063, Note_on_c, 0, 84, 30
2, 31123, Note_on_c, 0, 85, 68
2, 31154, Note_on_c, 0, 84, 0
2, 31208, Note_on_c, 0, 85, 0
2, 31266, Note_on_c, 0, 86, 73
2, 31405, Note_on_c, 0, 86, 0
2, 31494, Note_on_c, 0, 83, 68
2, 31600, Note_on_c, 0, 83, 0
2, 31757, Note_on_c, 0, 80, 56
2, 31933, Control_c, 0, 64, 127
2, 31958, Note_on_c, 0, 80, 0
2, 31986, Note_on_c, 0, 64, 0
2, 32002, Note_on_c, 0, 60, 0
2, 32163, Note_on_c, 0, 74, 36
2, 32175, Note_on_c, 0, 64, 27
2, 32215, Note_on_c, 0, 60, 22
2, 32351, Note_on_c, 0, 74, 0
2, 32414, Note_on_c, 0, 60, 0
2, 32421, Note_on_c, 0, 64, 0
2, 32512, Note_on_c, 0, 54, 0
2, 32615, Note_on_c, 0, 67, 42
2, 32617, Note_on_c, 0, 79, 43
2, 32620, Control_c, 0, 64, 0
2, 32625, Note_on_c, 0, 64, 27
2, 32652, Note_on_c, 0, 53, 22
2, 32669, Note_on_c, 0, 59, 18
2, 32983, Control_c, 0, 64, 127
2, 33227, Note_on_c, 0, 64, 0
2, 33412, Note_on_c, 0, 59, 0
2, 33491, Note_on_c, 0, 79, 0
2, 33502, Note_on_c, 0, 67, 0
2, 33635, Control_c, 0, 64, 0
2, 33658, Note_on_c, 0, 67, 42
2, 33660, Note_on_c, 0, 79, 41
2, 33663, Note_on_c, 0, 62, 35
2, 33693, Note_on_c, 0, 59, 24
2, 33708, Note_on_c, 0, 74, 20
2, 33793, Control_c, 0, 64, 127
2, 34035, Note_on_c, 0, 67, 0
2, 34100, Note_on_c, 0, 79, 0
2, 34140, Note_on_c, 0, 74, 0
2, 34143, Note_on_c, 0, 59, 0
2, 34210, Note_on_c, 0, 53, 0
2, 34275, Note_on_c, 0, 62, 0
2, 34278, Note_on_c, 0, 77, 99
2, 34561, Control_c, 0, 64, 0
2, 34577, Note_on_c, 0, 77, 0
2, 34602, Note_on_c, 0, 58, 39
2, 34607, Note_on_c, 0, 76, 75
2, 34609, Note_on_c, 0, 62, 40
2, 34611, Note_on_c, 0, 57, 37
2, 34620, Note_on_c, 0, 52, 32
2, 34870, Note_on_c, 0, 76, 0
2, 34883, Note_on_c, 0, 79, 57
2, 35026, Note_on_c, 0, 79, 0
2, 35090, Note_on_c, 0, 67, 47
2, 35213, Control_c, 0, 64, 127
2, 35407, Note_on_c, 0, 62, 0
2, 35414, Note_on_c, 0, 58, 0
2, 35442, Note_on_c, 0, 57, 0
2, 35588, Note_on_c, 0, 58, 33
2, 35608, Note_on_c, 0, 62, 24
2, 35612, Note_on_c, 0, 57, 24
2, 36128, Note_on_c, 0, 52, 0
2, 36169, Note_on_c, 0, 58, 0
2, 36170, Note_on_c, 0, 62, 0
2, 36201, Note_on_c, 0, 57, 0
2, 36249, Note_on_c, 0, 67, 0
2, 36529, Control_c, 0, 64, 0
2, 36548, Note_on_c, 0, 64, 42
2, 36559, Note_on_c, 0, 60, 34
2, 36561, Note_on_c, 0, 69, 40
2, 36578, Note_on_c, 0, 53, 30
2, 36579, Note_on_c, 0, 57, 32
2, 36587, Note_on_c, 0, 72, 30
2, 36855, Control_c, 0, 64, 127
2, 36929, Note_on_c, 0, 64, 0
2, 37022, Note_on_c, 0, 60, 0
2, 37034, Note_on_c, 0, 53, 0
2, 37046, Note_on_c, 0, 57, 0
2, 37051, Note_on_c, 0, 69, 0
2, 37089, Note_on_c, 0, 72, 0
2, 37448, Note_on_c, 0, 76, 58
2, 37453, Note_on_c, 0, 72, 48
2, 37457, Note_on_c, 0, 67, 51
2, 37461, Note_on_c, 0, 56, 47
2, 37469, Note_on_c, 0, 62, 47
2, 37490, Control_c, 0, 64, 0
2, 37869, Control_c, 0, 64, 127
2, 37951, Note_on_c, 0, 62, 0
2, 37958, Note_on_c, 0, 72, 0
2, 37974, Note_on_c, 0, 67, 0
2, 38005, Note_on_c, 0, 56, 0
2, 38042, Note_on_c, 0, 76, 0
2, 38441, Control_c, 0, 64, 0
2, 38460, Note_on_c, 0, 82, 77
2, 38462, Note_on_c, 0, 94, 74
2, 38465, Note_on_c, 0, 63, 58
2, 38467, Note_on_c, 0, 68, 50
2, 38469, Note_on_c, 0, 57, 59
2, 38795, Control_c, 0, 64, 127
2, 39103, Note_on_c, 0, 68, 0
2, 39113, Note_on_c, 0, 94, 0
2, 39113, Note_on_c, 0, 57, 0
2, 39149, Note_on_c, 0, 82, 0
2, 39221, Note_on_c, 0, 63, 0
2, 39421, Control_c, 0, 64, 0
2, 39459, Note_on_c, 0, 68, 77
2, 39462, Note_on_c, 0, 63, 72
2, 39465, Note_on_c, 0, 57, 80
2, 39473, Note_on_c, 0, 80, 85
2, 39473, Note_on_c, 0, 92, 85
2, 39475, Note_on_c, 0, 87, 76
2, 39693, Note_on_c, 0, 68, 0
2, 39695, Note_on_c, 0, 57, 0
2, 39699, Note_on_c, 0, 92, 0
2, 39713, Note_on_c, 0, 80, 0
2, 39716, Note_on_c, 0, 87, 0
2, 39717, Note_on_c, 0, 63, 0
2, 39932, Note_on_c, 0, 91, 72
2, 39934, Note_on_c, 0, 79, 68
2, 39935, Note_on_c, 0, 68, 74
2, 39935, Note_on_c, 0, 86, 70
2, 39938, Note_on_c, 0, 63, 64
2, 39939, Note_on_c, 0, 57, 74
2, 40137, Note_on_c, 0, 91, 0
2, 40145, Note_on_c, 0, 86, 0
2, 40164, Note_on_c, 0, 57, 0
2, 40170, Note_on_c, 0, 79, 0
2, 40206, Note_on_c, 0, 68, 0
2, 40257, Note_on_c, 0, 63, 0
2, 40382, Note_on_c, 0, 67, 63
2, 40387, Note_on_c, 0, 56, 59
2, 40389, Note_on_c, 0, 62, 52
2, 40400, Note_on_c, 0, 90, 62
2, 40401, Note_on_c, 0, 78, 65
2, 40408, Note_on_c, 0, 86, 62
2, 40574, Note_on_c, 0, 78, 0
2, 40582, Note_on_c, 0, 90, 0
2, 40589, Note_on_c, 0, 67, 0
2, 40596, Note_on_c, 0, 56, 0
2, 40597, Note_on_c, 0, 86, 0
2, 40609, Note_on_c, 0, 62, 0
2, 40837, Note_on_c, 0, 67, 51
2, 40838, Note_on_c, 0, 56, 44
2, 40840, Note_on_c, 0, 90, 58
2, 40842, Note_on_c, 0, 78, 53
2, 40845, Note_on_c, 0, 62, 47
2, 40851, Note_on_c, 0, 86, 54
2, 41066, Note_on_c, 0, 86, 0
2, 41085, Note_on_c, 0, 67, 0
2, 41093, Note_on_c, 0, 62, 0
2, 41097, Note_on_c, 0, 56, 0
2, 41100, Note_on_c, 0, 90, 0
2, 41130, Note_on_c, 0, 78, 0
2, 41258, Note_on_c, 0, 67, 46
2, 41260, Note_on_c, 0, 56, 39
2, 41275, Note_on_c, 0, 77, 34
2, 41276, Note_on_c, 0, 89, 40
2, 41279, Note_on_c, 0, 62, 50
2, 41283, Note_on_c, 0, 86, 45
2, 41470, Note_on_c, 0, 86, 0
2, 41486, Note_on_c, 0, 62, 0
2, 41491, Note_on_c, 0, 89, 0
2, 41499, Note_on_c, 0, 77, 0
2, 41510, Note_on_c, 0, 67, 0
2, 41525, Note_on_c, 0, 56, 0
2, 41738, Note_on_c, 0, 67, 44
2, 41747, Note_on_c, 0, 56, 34
2, 41748, Note_on_c, 0, 77, 49
2, 41750, Note_on_c, 0, 62, 45
2, 41753, Note_on_c, 0, 89, 41
2, 41758, Note_on_c, 0, 86, 40
2, 41796, Control_c, 0, 64, 127
2, 41933, Note_on_c, 0, 62, 0
2, 41943, Note_on_c, 0, 89, 0
2, 41948, Note_on_c, 0, 67, 0
2, 41960, Note_on_c, 0, 86, 0
2, 42005, Note_on_c, 0, 77, 0
2, 42068, Note_on_c, 0, 56, 0
2, 42096, Control_c, 0, 64, 0
2, 42197, Note_on_c, 0, 76, 33
2, 42198, Note_on_c, 0, 65, 34
2, 42201, Note_on_c, 0, 88, 35
2, 42205, Note_on_c, 0, 55, 37
2, 42207, Note_on_c, 0, 61, 37
2, 42216, Note_on_c, 0, 85, 35
2, 42343, Control_c, 0, 64, 127
2, 42886, Note_on_c, 0, 65, 0
2, 42912, Note_on_c, 0, 61, 0
2, 42969, Note_on_c, 0, 88, 0
2, 42999, Note_on_c, 0, 85, 0
2, 43115, Note_on_c, 0, 76, 0
2, 43214, Note_on_c, 0, 65, 29
2, 43215, Note_on_c, 0, 61, 32
2, 43854, Note_on_c, 0, 65, 0
2, 43875, Note_on_c, 0, 55, 0
2, 43949, Note_on_c, 0, 76, 73
2, 44016, Note_on_c, 0, 77, 55
2, 44037, Note_on_c, 0, 76, 0
2, 44069, Note_on_c, 0, 61, 0
2, 44135, Control_c, 0, 64, 0
2, 44180, Note_on_c, 0, 77, 0
2, 44190, Note_on_c, 0, 57, 24
2, 44193, Note_on_c, 0, 53, 17
2, 44197, Note_on_c, 0, 64, 22
2, 44202, Note_on_c, 0, 60, 22
2, 44227, Note_on_c, 0, 74, 49
2, 44504, Note_on_c, 0, 76, 45
2, 44525, Note_on_c, 0, 74, 0
2, 44583, Note_on_c, 0, 74, 35
2, 44599, Note_on_c, 0, 76, 0
2, 44684, Note_on_c, 0, 73, 34
2, 44690, Note_on_c, 0, 74, 0
2, 44760, Note_on_c, 0, 73, 0
2, 44836, Note_on_c, 0, 74, 52
2, 44944, Note_on_c, 0, 74, 0
2, 45024, Note_on_c, 0, 76, 60
2, 45103, Note_on_c, 0, 76, 0
2, 45189, Note_on_c, 0, 69, 46
2, 45338, Note_on_c, 0, 69, 0
2, 45420, Note_on_c, 0, 69, 49
2, 45447, Control_c, 0, 64, 127
2, 45538, Note_on_c, 0, 69, 0
2, 45648, Note_on_c, 0, 69, 49
2, 45782, Note_on_c, 0, 69, 0
2, 45824, Note_on_c, 0, 64, 0
2, 45834, Note_on_c, 0, 60, 0
2, 45849, Note_on_c, 0, 68, 48
2, 45860, Note_on_c, 0, 57, 0
2, 46006, Note_on_c, 0, 68, 0
2, 46040, Control_c, 0, 64, 0
2, 46096, Note_on_c, 0, 67, 56
2, 46286, Control_c, 0, 64, 127
2, 46411, Note_on_c, 0, 53, 0
2, 46857, Note_on_c, 0, 67, 0
2, 46938, Control_c, 0, 64, 0
2, 46960, Note_on_c, 0, 67, 65
2, 46966, Note_on_c, 0, 64, 72
2, 46973, Note_on_c, 0, 60, 68
2, 46975, Note_on_c, 0, 55, 54
2, 47134, Control_c, 0, 64, 127
2, 47289, Note_on_c, 0, 67, 0
2, 47348, Note_on_c, 0, 67, 72
2, 47523, Note_on_c, 0, 67, 0
2, 47576, Note_on_c, 0, 60, 0
2, 47594, Note_on_c, 0, 64, 0
2, 47602, Note_on_c, 0, 67, 44
2, 47624, Note_on_c, 0, 55, 0
2, 47749, Note_on_c, 0, 67, 0
2, 47822, Control_c, 0, 64, 0
2, 47880, Note_on_c, 0, 67, 53
2, 47889, Note_on_c, 0, 59, 47
2, 47891, Note_on_c, 0, 43, 36
2, 47892, Note_on_c, 0, 63, 45
2, 47895, Note_on_c, 0, 53, 34
2, 48209, Control_c, 0, 64, 127
2, 48582, Note_on_c, 0, 53, 0
2, 48609, Note_on_c, 0, 59, 0
2, 48735, Note_on_c, 0, 63, 0
2, 48826, Note_on_c, 0, 67, 0
2, 48856, Note_on_c, 0, 43, 0
2, 49285, Control_c, 0, 64, 0
2, 49297, Note_on_c, 0, 62, 40
2, 49305, Note_on_c, 0, 56, 33
2, 49342, Note_on_c, 0, 59, 25
2, 49593, Note_on_c, 0, 59, 0
2, 49605, Note_on_c, 0, 56, 0
2, 49615, Note_on_c, 0, 71, 70
2, 49732, Note_on_c, 0, 71, 0
2, 49737, Note_on_c, 0, 62, 0
2, 49780, Note_on_c, 0, 74, 80
2, 49907, Note_on_c, 0, 74, 0
2, 49936, Note_on_c, 0, 64, 26
2, 49949, Note_on_c, 0, 71, 45
2, 49950, Note_on_c, 0, 57, 33
2, 49958, Note_on_c, 0, 60, 31
2, 50085, Note_on_c, 0, 71, 0
2, 50109, Note_on_c, 0, 72, 52
2, 50132, Note_on_c, 0, 71, 41
2, 50175, Note_on_c, 0, 71, 0
2, 50187, Note_on_c, 0, 72, 0
2, 50263, Note_on_c, 0, 76, 60
2, 50344, Note_on_c, 0, 76, 0
2, 50622, Note_on_c, 0, 83, 63
2, 50730, Note_on_c, 0, 83, 0
2, 50745, Note_on_c, 0, 86, 80
2, 50750, Note_on_c, 0, 74, 73
2, 50847, Note_on_c, 0, 74, 0
2, 50847, Note_on_c, 0, 86, 0
2, 50921, Note_on_c, 0, 85, 76
2, 51072, Note_on_c, 0, 85, 0
2, 51208, Note_on_c, 0, 84, 75
2, 51310, Note_on_c, 0, 84, 0
2, 51488, Note_on_c, 0, 82, 60
2, 51552, Note_on_c, 0, 64, 0
2, 51563, Note_on_c, 0, 82, 0
2, 51592, Note_on_c, 0, 57, 0
2, 51610, Note_on_c, 0, 60, 0
2, 51694, Note_on_c, 0, 83, 65
2, 51804, Note_on_c, 0, 83, 0
2, 51880, Note_on_c, 0, 60, 28
2, 51881, Note_on_c, 0, 64, 26
2, 51883, Note_on_c, 0, 54, 31
2, 51906, Note_on_c, 0, 80, 48
2, 52025, Note_on_c, 0, 80, 0
2, 52151, Note_on_c, 0, 80, 49
2, 52262, Note_on_c, 0, 80, 0
2, 52328, Note_on_c, 0, 76, 46
2, 52434, Note_on_c, 0, 76, 0
2, 52571, Note_on_c, 0, 76, 46
2, 52689, Note_on_c, 0, 76, 0
2, 52761, Note_on_c, 0, 72, 47
2, 52852, Note_on_c, 0, 72, 0
2, 53029, Note_on_c, 0, 72, 39
2, 53100, Note_on_c, 0, 72, 0
2, 53208, Note_on_c, 0, 71, 38
2, 53376, Note_on_c, 0, 71, 0
2, 53392, Note_on_c, 0, 64, 0
2, 53468, Note_on_c, 0, 54, 0
2, 53476, Note_on_c, 0, 68, 51
2, 53633, Note_on_c, 0, 68, 0
2, 53666, Note_on_c, 0, 64, 31
2, 53674, Note_on_c, 0, 57, 36
2, 53692, Note_on_c, 0, 53, 20
2, 53696, Note_on_c, 0, 69, 46
2, 53992, Note_on_c, 0, 64, 0
2, 54022, Note_on_c, 0, 69, 0
2, 54034, Note_on_c, 0, 65, 49
2, 54183, Note_on_c, 0, 65, 0
2, 54223, Note_on_c, 0, 62, 33
2, 54386, Note_on_c, 0, 60, 0
2, 54519, Note_on_c, 0, 62, 0
2, 54681, Note_on_c, 0, 60, 26
2, 54686, Note_on_c, 0, 62, 37
2, 54937, Note_on_c, 0, 62, 0
2, 55005, Note_on_c, 0, 65, 53
2, 55095, Note_on_c, 0, 65, 0
2, 55142, Control_c, 0, 64, 127
2, 55180, Note_on_c, 0, 69, 84
2, 55286, Note_on_c, 0, 60, 0
2, 55291, Note_on_c, 0, 57, 0
2, 55338, Note_on_c, 0, 69, 0
2, 55436, Note_on_c, 0, 72, 75
2, 55523, Note_on_c, 0, 72, 0
2, 55556, Control_c, 0, 64, 0
2, 55617, Note_on_c, 0, 53, 0
2, 55647, Note_on_c, 0, 62, 47
2, 55650, Note_on_c, 0, 68, 40
2, 55653, Note_on_c, 0, 71, 44
2, 55659, Note_on_c, 0, 65, 36
2, 55669, Note_on_c, 0, 56, 37
2, 55785, Note_on_c, 0, 62, 0
2, 55796, Note_on_c, 0, 65, 0
2, 55804, Note_on_c, 0, 71, 0
2, 55844, Note_on_c, 0, 68, 0
2, 56109, Note_on_c, 0, 56, 0
2, 56116, Note_on_c, 0, 65, 60
2, 56119, Note_on_c, 0, 74, 58
2, 56128, Note_on_c, 0, 71, 58
2, 56138, Note_on_c, 0, 59, 28
2, 56209, Note_on_c, 0, 65, 0
2, 56237, Note_on_c, 0, 71, 0
2, 56260, Note_on_c, 0, 74, 0
2, 56432, Note_on_c, 0, 59, 0
2, 56435, Note_on_c, 0, 77, 61
2, 56437, Note_on_c, 0, 69, 64
2, 56439, Note_on_c, 0, 74, 60
2, 56454, Note_on_c, 0, 62, 57
2, 56479, Note_on_c, 0, 69, 0
2, 56484, Note_on_c, 0, 74, 0
2, 56524, Note_on_c, 0, 77, 0
2, 56540, Note_on_c, 0, 62, 0
2, 56718, Note_on_c, 0, 71, 59
2, 56720, Note_on_c, 0, 80, 50
2, 56735, Note_on_c, 0, 65, 57
2, 56749, Note_on_c, 0, 71, 0
2, 56812, Note_on_c, 0, 80, 0
2, 57021, Note_on_c, 0, 68, 40
2, 57024, Note_on_c, 0, 86, 60
2, 57043, Note_on_c, 0, 83, 41
2, 57044, Note_on_c, 0, 80, 31
2, 57045, Note_on_c, 0, 77, 31
2, 57071, Note_on_c, 0, 65, 0
2, 57108, Note_on_c, 0, 77, 0
2, 57122, Note_on_c, 0, 80, 0
2, 57126, Note_on_c, 0, 83, 0
2, 57128, Note_on_c, 0, 86, 0
2, 57150, Note_on_c, 0, 68, 0
2, 57315, Note_on_c, 0, 71, 52
2, 57319, Note_on_c, 0, 80, 39
2, 57327, Note_on_c, 0, 83, 39
2, 57328, Note_on_c, 0, 77, 37
2, 57379, Note_on_c, 0, 83, 0
2, 57420, Note_on_c, 0, 77, 0
2, 57421, Note_on_c, 0, 80, 0
2, 57430, Note_on_c, 0, 71, 0
2, 57596, Note_on_c, 0, 84, 49
2, 57601, Note_on_c, 0, 74, 38
2, 57605, Note_on_c, 0, 79, 49
2, 57616, Note_on_c, 0, 69, 47
2, 57687, Note_on_c, 0, 84, 0
2, 57688, Note_on_c, 0, 79, 0
2, 57702, Note_on_c, 0, 74, 0
2, 57725, Note_on_c, 0, 69, 0
2, 57916, Note_on_c, 0, 71, 43
2, 57920, Note_on_c, 0, 76, 50
2, 57924, Note_on_c, 0, 79, 40
2, 57934, Note_on_c, 0, 67, 34
2, 57979, Note_on_c, 0, 67, 0
2, 57989, Note_on_c, 0, 71, 0
2, 57996, Note_on_c, 0, 76, 0
2, 58006, Note_on_c, 0, 79, 0
2, 58235, Note_on_c, 0, 76, 38
2, 58248, Note_on_c, 0, 72, 40
2, 58249, Note_on_c, 0, 69, 32
2, 58253, Note_on_c, 0, 67, 24
2, 58272, Note_on_c, 0, 64, 22
2, 58304, Note_on_c, 0, 69, 0
2, 58309, Note_on_c, 0, 72, 0
2, 58311, Note_on_c, 0, 67, 0
2, 58331, Note_on_c, 0, 76, 0
2, 58366, Note_on_c, 0, 64, 0
2, 58554, Note_on_c, 0, 64, 35
2, 58562, Note_on_c, 0, 72, 28
2, 58563, Note_on_c, 0, 67, 32
2, 58564, Note_on_c, 0, 69, 38
2, 58656, Note_on_c, 0, 60, 5
2, 58682, Control_c, 0, 64, 127
2, 58898, Note_on_c, 0, 60, 0
2, 58902, Note_on_c, 0, 57, 50
2, 59090, Note_on_c, 0, 57, 0
2, 59276, Note_on_c, 0, 64, 0
2, 59285, Note_on_c, 0, 69, 0
2, 59323, Note_on_c, 0, 67, 0
2, 59419, Note_on_c, 0, 72, 0
2, 59458, Control_c, 0, 64, 0
2, 59503, Note_on_c, 0, 64, 40
2, 59506, Note_on_c, 0, 69, 48
2, 59516, Note_on_c, 0, 54, 36
2, 59542, Note_on_c, 0, 60, 28
2, 59731, Control_c, 0, 64, 127
2, 59807, Note_on_c, 0, 60, 0
2, 59897, Note_on_c, 0, 54, 0
2, 60039, Note_on_c, 0, 64, 0
2, 60430, Control_c, 0, 64, 0
2, 60438, Note_on_c, 0, 69, 0
2, 60490, Note_on_c, 0, 47, 26
2, 60492, Note_on_c, 0, 63, 30
2, 60502, Note_on_c, 0, 57, 29
2, 60518, Note_on_c, 0, 66, 36
2, 60835, Note_on_c, 0, 62, 44
2, 60837, Note_on_c, 0, 51, 38
2, 60839, Note_on_c, 0, 57, 53
2, 60846, Note_on_c, 0, 74, 73
2, 60849, Note_on_c, 0, 79, 70
2, 60858, Note_on_c, 0, 83, 60
2, 60875, Note_on_c, 0, 63, 0
2, 60881, Note_on_c, 0, 66, 0
2, 60884, Note_on_c, 0, 74, 0
2, 60891, Note_on_c, 0, 62, 0
2, 60894, Note_on_c, 0, 83, 0
2, 60902, Note_on_c, 0, 57, 0
2, 60910, Note_on_c, 0, 79, 0
2, 60912, Note_on_c, 0, 51, 0
2, 61004, Note_on_c, 0, 47, 0
2, 61014, Note_on_c, 0, 57, 0
2, 61190, Note_on_c, 0, 57, 47
2, 61191, Note_on_c, 0, 81, 60
2, 61195, Note_on_c, 0, 62, 40
2, 61197, Note_on_c, 0, 77, 50
2, 61199, Note_on_c, 0, 72, 53
2, 61229, Note_on_c, 0, 57, 0
2, 61240, Note_on_c, 0, 62, 0
2, 61259, Note_on_c, 0, 77, 0
2, 61260, Note_on_c, 0, 72, 0
2, 61268, Note_on_c, 0, 81, 0
2, 61514, Note_on_c, 0, 63, 37
2, 61517, Note_on_c, 0, 71, 39
2, 61518, Note_on_c, 0, 80, 37
2, 61532, Note_on_c, 0, 52, 29
2, 61533, Note_on_c, 0, 76, 42
2, 61548, Note_on_c, 0, 59, 27
2, 61557, Note_on_c, 0, 56, 33
2, 61871, Control_c, 0, 64, 127
2, 62131, Note_on_c, 0, 76, 0
2, 62148, Note_on_c, 0, 71, 0
2, 62399, Note_on_c, 0, 76, 35
2, 62406, Note_on_c, 0, 71, 34
2, 62590, Note_on_c, 0, 52, 0
2, 62611, Note_on_c, 0, 59, 0
2, 62642, Note_on_c, 0, 56, 0
2, 62696, Note_on_c, 0, 63, 0
2, 63311, Note_on_c, 0, 68, 31
2, 63352, Control_c, 0, 64, 0
2, 63360, Note_on_c, 0, 59, 24
2, 63364, Note_on_c, 0, 63, 32
2, 63374, Note_on_c, 0, 64, 26
2, 63580, Note_on_c, 0, 76, 0
2, 63639, Note_on_c, 0, 71, 0
2, 63703, Note_on_c, 0, 71, 24
2, 63713, Note_on_c, 0, 80, 0
2, 63816, Note_on_c, 0, 71, 0
2, 63836, Note_on_c, 0, 73, 40
2, 63906, Note_on_c, 0, 73, 0
2, 63979, Note_on_c, 0, 75, 71
2, 64045, Note_on_c, 0, 75, 0
2, 64099, Note_on_c, 0, 76, 76
2, 64187, Note_on_c, 0, 76, 0
2, 64231, Note_on_c, 0, 78, 69
2, 64326, Note_on_c, 0, 78, 0
2, 64405, Note_on_c, 0, 80, 69
2, 64493, Note_on_c, 0, 80, 0
2, 64598, Note_on_c, 0, 81, 67
2, 64692, Note_on_c, 0, 81, 0
2, 64772, Note_on_c, 0, 82, 62
2, 64837, Note_on_c, 0, 64, 0
2, 64841, Note_on_c, 0, 59, 0
2, 64843, Note_on_c, 0, 68, 0
2, 64855, Note_on_c, 0, 63, 0
2, 64865, Note_on_c, 0, 82, 0
2, 64928, Note_on_c, 0, 83, 54
2, 65016, Note_on_c, 0, 83, 0
2, 65066, Note_on_c, 0, 84, 66
2, 65144, Note_on_c, 0, 84, 0
2, 65216, Note_on_c, 0, 85, 57
2, 65290, Note_on_c, 0, 85, 0
2, 65368, Note_on_c, 0, 86, 65
2, 65372, Note_on_c, 0, 54, 37
2, 65389, Note_on_c, 0, 57, 34
2, 65402, Note_on_c, 0, 64, 28
2, 65466, Note_on_c, 0, 86, 0
2, 65536, Note_on_c, 0, 87, 52
2, 65624, Note_on_c, 0, 87, 0
2, 65712, Note_on_c, 0, 88, 50
2, 65804, Note_on_c, 0, 88, 0
2, 66128, Note_on_c, 0, 81, 49
2, 66227, Note_on_c, 0, 81, 0
2, 66325, Note_on_c, 0, 88, 54
2, 66417, Note_on_c, 0, 88, 0
2, 66525, Note_on_c, 0, 76, 27
2, 66632, Control_c, 0, 64, 127
2, 66634, Note_on_c, 0, 60, 1
2, 66757, Note_on_c, 0, 76, 0
2, 66772, Note_on_c, 0, 60, 0
2, 66813, Note_on_c, 0, 64, 0
2, 66828, Note_on_c, 0, 57, 0
2, 66903, Note_on_c, 0, 54, 0
2, 66924, Note_on_c, 0, 83, 55
2, 67043, Note_on_c, 0, 83, 0
2, 67082, Note_on_c, 0, 86, 78
2, 67199, Control_c, 0, 64, 0
2, 67205, Note_on_c, 0, 86, 0
2, 67242, Note_on_c, 0, 62, 31
2, 67250, Note_on_c, 0, 51, 30
2, 67251, Note_on_c, 0, 57, 35
2, 67259, Note_on_c, 0, 79, 36
2, 67560, Note_on_c, 0, 79, 0
2, 67670, Note_on_c, 0, 78, 38
2, 67841, Note_on_c, 0, 78, 0
2, 67846, Note_on_c, 0, 83, 56
2, 67894, Control_c, 0, 64, 127
2, 67991, Control_c, 0, 64, 0
2, 68030, Note_on_c, 0, 76, 49
2, 68037, Note_on_c, 0, 83, 0
2, 68125, Control_c, 0, 64, 127
2, 68307, Note_on_c, 0, 76, 0
2, 68559, Note_on_c, 0, 75, 37
2, 68647, Note_on_c, 0, 57, 0
2, 68715, Note_on_c, 0, 51, 0
2, 68737, Note_on_c, 0, 62, 0
2, 68738, Note_on_c, 0, 75, 0
2, 68774, Note_on_c, 0, 76, 50
2, 69034, Control_c, 0, 64, 0
2, 69048, Note_on_c, 0, 76, 0
2, 69080, Note_on_c, 0, 78, 33
2, 69192, Note_on_c, 0, 78, 0
2, 69452, Note_on_c, 0, 78, 40
2, 69550, Note_on_c, 0, 78, 0
2, 69731, Note_on_c, 0, 78, 55
2, 69765, Control_c, 0, 64, 127
2, 69884, Note_on_c, 0, 78, 0
2, 69951, Note_on_c, 0, 76, 47
2, 70039, Control_c, 0, 64, 0
2, 70056, Note_on_c, 0, 76, 0
2, 70157, Note_on_c, 0, 78, 59
2, 70275, Note_on_c, 0, 78, 0
2, 70406, Note_on_c, 0, 78, 60
2, 70460, Control_c, 0, 64, 127
2, 70508, Note_on_c, 0, 78, 0
2, 70624, Note_on_c, 0, 78, 56
2, 70756, Note_on_c, 0, 78, 0
2, 70775, Note_on_c, 0, 76, 54
2, 70927, Note_on_c, 0, 76, 0
2, 70930, Control_c, 0, 64, 0
2, 70968, Note_on_c, 0, 78, 73
2, 70971, Note_on_c, 0, 68, 60
2, 70982, Note_on_c, 0, 64, 64
2, 70983, Note_on_c, 0, 63, 55
2, 70985, Note_on_c, 0, 59, 54
2, 71239, Control_c, 0, 64, 127
2, 71765, Note_on_c, 0, 63, 0
2, 71767, Note_on_c, 0, 68, 0
2, 71808, Note_on_c, 0, 64, 0
2, 71841, Note_on_c, 0, 59, 0
2, 72014, Note_on_c, 0, 68, 37
2, 72057, Note_on_c, 0, 63, 28
2, 72058, Note_on_c, 0, 64, 34
2, 72070, Note_on_c, 0, 59, 22
2, 72352, Note_on_c, 0, 68, 0
2, 72447, Note_on_c, 0, 59, 0
2, 72450, Note_on_c, 0, 64, 0
2, 72535, Note_on_c, 0, 76, 62
2, 72605, Note_on_c, 0, 63, 0
2, 72637, Note_on_c, 0, 78, 0
2, 72645, Note_on_c, 0, 76, 0
2, 73024, Note_on_c, 0, 68, 49
2, 73028, Note_on_c, 0, 61, 55
2, 73036, Note_on_c, 0, 64, 54
2, 73046, Control_c, 0, 64, 0
2, 73054, Note_on_c, 0, 57, 29
2, 73507, Note_on_c, 0, 56, 62
2, 73663, Control_c, 0, 64, 127
2, 73805, Note_on_c, 0, 57, 0
2, 73894, Note_on_c, 0, 64, 0
2, 73896, Note_on_c, 0, 61, 0
2, 73917, Note_on_c, 0, 68, 0
2, 73948, Note_on_c, 0, 56, 0
2, 73981, Control_c, 0, 64, 0
2, 73983, Note_on_c, 0, 61, 52
2, 73992, Note_on_c, 0, 69, 57
2, 74001, Note_on_c, 0, 57, 50
2, 74002, Note_on_c, 0, 64, 40
2, 74176, Control_c, 0, 64, 127
2, 74178, Note_on_c, 0, 69, 0
2, 74216, Note_on_c, 0, 64, 0
2, 74245, Note_on_c, 0, 61, 0
2, 74358, Note_on_c, 0, 57, 0
2, 74418, Note_on_c, 0, 58, 50
2, 74431, Control_c, 0, 64, 0
2, 74432, Note_on_c, 0, 70, 65
2, 74492, Control_c, 0, 64, 127
2, 74503, Note_on_c, 0, 58, 0
2, 74647, Note_on_c, 0, 70, 0
2, 74881, Control_c, 0, 64, 0
2, 74882, Note_on_c, 0, 47, 39
2, 74887, Note_on_c, 0, 71, 60
2, 74894, Note_on_c, 0, 57, 41
2, 74902, Note_on_c, 0, 67, 54
2, 74916, Note_on_c, 0, 62, 56
2, 75154, Control_c, 0, 64, 127
2, 75395, Note_on_c, 0, 51, 35
2, 75468, Note_on_c, 0, 62, 0
2, 75510, Note_on_c, 0, 57, 0
2, 75562, Note_on_c, 0, 67, 0
2, 75861, Control_c, 0, 64, 0
2, 75865, Note_on_c, 0, 66, 50
2, 75869, Note_on_c, 0, 61, 39
2, 75871, Note_on_c, 0, 71, 0
2, 75888, Note_on_c, 0, 57, 36
2, 76053, Control_c, 0, 64, 127
2, 76378, Note_on_c, 0, 57, 0
2, 76413, Note_on_c, 0, 51, 0
2, 76424, Note_on_c, 0, 66, 0
2, 76435, Note_on_c, 0, 61, 0
2, 76444, Note_on_c, 0, 47, 0
2, 76822, Control_c, 0, 64, 0
2, 76831, Note_on_c, 0, 68, 30
2, 76847, Note_on_c, 0, 40, 27
2, 76853, Note_on_c, 0, 63, 33
2, 76855, Note_on_c, 0, 59, 22
2, 76856, Note_on_c, 0, 47, 27
2, 76872, Note_on_c, 0, 52, 17
2, 77115, Control_c, 0, 64, 127
2, 77191, Note_on_c, 0, 40, 0
2, 77202, Note_on_c, 0, 47, 0
2, 77254, Note_on_c, 0, 52, 0
2, 77296, Note_on_c, 0, 59, 0
2, 77420, Note_on_c, 0, 68, 0
2, 77499, Note_on_c, 0, 63, 0
2, 78708, Note_on_c, 0, 75, 77
2, 78714, Note_on_c, 0, 68, 46
2, 78720, Control_c, 0, 64, 0
2, 78744, Note_on_c, 0, 64, 34
2, 78753, Note_on_c, 0, 63, 35
2, 78834, Note_on_c, 0, 59, 13
2, 78912, Note_on_c, 0, 75, 0
2, 78931, Note_on_c, 0, 76, 60
2, 79049, Note_on_c, 0, 76, 0
2, 79137, Note_on_c, 0, 75, 48
2, 79326, Note_on_c, 0, 75, 0
2, 79373, Note_on_c, 0, 76, 47
2, 79548, Note_on_c, 0, 76, 0
2, 79612, Note_on_c, 0, 71, 35
2, 79760, Control_c, 0, 64, 127
2, 80051, Note_on_c, 0, 59, 0
2, 80052, Note_on_c, 0, 68, 0
2, 80062, Note_on_c, 0, 64, 0
2, 80095, Note_on_c, 0, 63, 0
2, 80452, Note_on_c, 0, 71, 0
2, 80649, Note_on_c, 0, 76, 55
2, 80686, Note_on_c, 0, 69, 62
2, 80688, Control_c, 0, 64, 0
2, 80689, Note_on_c, 0, 64, 30
2, 80702, Note_on_c, 0, 54, 29
2, 80711, Note_on_c, 0, 60, 29
2, 80721, Note_on_c, 0, 57, 39
2, 80951, Control_c, 0, 64, 127
2, 81038, Note_on_c, 0, 64, 0
2, 81051, Note_on_c, 0, 69, 0
2, 81110, Note_on_c, 0, 76, 0
2, 81120, Note_on_c, 0, 60, 0
2, 81153, Note_on_c, 0, 72, 52
2, 81178, Note_on_c, 0, 64, 32
2, 81455, Note_on_c, 0, 64, 0
2, 81635, Note_on_c, 0, 60, 26
2, 81643, Note_on_c, 0, 64, 37
2, 81648, Note_on_c, 0, 69, 44
2, 81730, Note_on_c, 0, 64, 0
2, 81759, Note_on_c, 0, 72, 0
2, 81776, Note_on_c, 0, 69, 0
2, 81903, Note_on_c, 0, 57, 0
2, 81907, Note_on_c, 0, 60, 0
2, 81958, Note_on_c, 0, 54, 0
2, 82096, Note_on_c, 0, 83, 89
2, 82130, Note_on_c, 0, 54, 37
2, 82133, Note_on_c, 0, 74, 77
2, 82281, Note_on_c, 0, 54, 0
2, 82339, Note_on_c, 0, 83, 0
2, 82379, Note_on_c, 0, 74, 0
2, 82574, Control_c, 0, 64, 0
2, 82575, Note_on_c, 0, 81, 67
2, 82584, Note_on_c, 0, 51, 38
2, 82587, Note_on_c, 0, 57, 39
2, 82598, Note_on_c, 0, 62, 33
2, 82604, Note_on_c, 0, 72, 62
2, 82849, Control_c, 0, 64, 127
2, 82974, Note_on_c, 0, 72, 0
2, 83137, Note_on_c, 0, 81, 0
2, 83159, Note_on_c, 0, 62, 0
2, 83351, Note_on_c, 0, 57, 0
2, 83564, Note_on_c, 0, 57, 30
2, 83581, Note_on_c, 0, 62, 34
2, 83980, Note_on_c, 0, 57, 0
2, 84002, Note_on_c, 0, 51, 0
2, 84093, Note_on_c, 0, 62, 0
2, 84262, Note_on_c, 0, 72, 66
2, 84368, Note_on_c, 0, 73, 39
2, 84403, Note_on_c, 0, 72, 0
2, 84430, Note_on_c, 0, 74, 66
2, 84524, Note_on_c, 0, 75, 73
2, 84530, Note_on_c, 0, 73, 0
2, 84545, Note_on_c, 0, 74, 0
2, 84559, Control_c, 0, 64, 0
2, 84566, Note_on_c, 0, 56, 34
2, 84582, Note_on_c, 0, 67, 26
2, 84586, Note_on_c, 0, 62, 43
2, 84602, Note_on_c, 0, 75, 0
2, 84610, Note_on_c, 0, 76, 48
2, 84735, Note_on_c, 0, 76, 0
2, 84744, Note_on_c, 0, 62, 0
2, 84751, Note_on_c, 0, 67, 0
2, 84762, Note_on_c, 0, 56, 0
2, 84873, Note_on_c, 0, 76, 57
2, 84911, Note_on_c, 0, 67, 35
2, 84914, Note_on_c, 0, 56, 31
2, 84927, Note_on_c, 0, 62, 37
2, 84941, Note_on_c, 0, 76, 0
2, 84969, Note_on_c, 0, 62, 0
2, 84982, Note_on_c, 0, 67, 0
2, 84992, Note_on_c, 0, 56, 0
2, 85137, Note_on_c, 0, 76, 61
2, 85150, Note_on_c, 0, 67, 34
2, 85159, Note_on_c, 0, 56, 30
2, 85172, Note_on_c, 0, 62, 36
2, 85219, Note_on_c, 0, 76, 0
2, 85220, Note_on_c, 0, 62, 0
2, 85236, Note_on_c, 0, 67, 0
2, 85256, Note_on_c, 0, 56, 0
2, 85397, Note_on_c, 0, 76, 61
2, 85402, Note_on_c, 0, 67, 31
2, 85403, Note_on_c, 0, 56, 31
2, 85413, Note_on_c, 0, 62, 45
2, 85489, Note_on_c, 0, 76, 0
2, 85491, Note_on_c, 0, 67, 0
2, 85504, Note_on_c, 0, 62, 0
2, 85518, Note_on_c, 0, 56, 0
2, 85656, Note_on_c, 0, 76, 55
2, 85672, Note_on_c, 0, 56, 34
2, 85681, Note_on_c, 0, 62, 44
2, 85684, Note_on_c, 0, 67, 27
2, 85829, Control_c, 0, 64, 127
2, 86007, Note_on_c, 0, 76, 0
2, 86009, Note_on_c, 0, 75, 46
2, 86110, Note_on_c, 0, 67, 0
2, 86152, Note_on_c, 0, 62, 0
2, 86164, Note_on_c, 0, 75, 0
2, 86197, Note_on_c, 0, 76, 53
2, 86307, Note_on_c, 0, 56, 0
2, 86349, Note_on_c, 0, 76, 0
2, 86403, Control_c, 0, 64, 0
2, 86438, Note_on_c, 0, 76, 45
2, 86439, Note_on_c, 0, 66, 35
2, 86444, Note_on_c, 0, 61, 40
2, 86463, Note_on_c, 0, 55, 32
2, 86765, Control_c, 0, 64, 127
2, 86993, Note_on_c, 0, 66, 0
2, 87032, Note_on_c, 0, 55, 0
2, 87035, Note_on_c, 0, 61, 0
2, 87326, Note_on_c, 0, 66, 42
2, 87339, Note_on_c, 0, 61, 37
2, 87364, Note_on_c, 0, 55, 24
2, 87424, Note_on_c, 0, 66, 0
2, 87429, Note_on_c, 0, 55, 0
2, 87466, Note_on_c, 0, 61, 0
2, 87515, Note_on_c, 0, 76, 0
2, 88122, Note_on_c, 0, 50, 49
2, 88241, Note_on_c, 0, 57, 32
2, 88271, Note_on_c, 0, 65, 55
2, 88305, Note_on_c, 0, 72, 54
2, 88321, Note_on_c, 0, 64, 60
2, 88343, Control_c, 0, 64, 0
2, 88380, Note_on_c, 0, 79, 69
2, 88564, Control_c, 0, 64, 127
2, 88727, Note_on_c, 0, 50, 0
2, 88733, Note_on_c, 0, 64, 0
2, 88746, Note_on_c, 0, 57, 0
2, 88811, Note_on_c, 0, 79, 0
2, 88861, Note_on_c, 0, 65, 0
2, 88870, Note_on_c, 0, 72, 0
2, 89107, Note_on_c, 0, 51, 46
2, 89214, Note_on_c, 0, 58, 42
2, 89274, Note_on_c, 0, 66, 45
2, 89312, Note_on_c, 0, 63, 51
2, 89316, Note_on_c, 0, 73, 39
2, 89349, Control_c, 0, 64, 0
2, 89406, Note_on_c, 0, 80, 63
2, 89597, Control_c, 0, 64, 127
2, 89812, Note_on_c, 0, 66, 0
2, 89814, Note_on_c, 0, 63, 0
2, 89826, Note_on_c, 0, 58, 0
2, 89873, Note_on_c, 0, 51, 0
2, 89890, Note_on_c, 0, 73, 0
2, 89891, Note_on_c, 0, 80, 0
2, 90214, Note_on_c, 0, 52, 46
2, 90249, Control_c, 0, 64, 0
2, 90261, Note_on_c, 0, 67, 27
2, 90262, Note_on_c, 0, 69, 30
2, 90279, Note_on_c, 0, 59, 30
2, 90289, Note_on_c, 0, 74, 48
2, 90310, Note_on_c, 0, 67, 0
2, 90319, Note_on_c, 0, 64, 40
2, 90360, Note_on_c, 0, 81, 41
2, 90531, Control_c, 0, 64, 127
2, 90735, Note_on_c, 0, 52, 0
2, 90751, Note_on_c, 0, 59, 0
2, 90786, Note_on_c, 0, 69, 0
2, 90795, Note_on_c, 0, 74, 0
2, 90830, Note_on_c, 0, 81, 0
2, 90841, Note_on_c, 0, 64, 0
2, 91194, Note_on_c, 0, 70, 34
2, 91219, Control_c, 0, 64, 0
2, 91220, Note_on_c, 0, 55, 32
2, 91225, Note_on_c, 0, 61, 28
2, 91243, Note_on_c, 0, 77, 39
2, 91253, Note_on_c, 0, 60, 30
2, 91254, Note_on_c, 0, 65, 35
2, 91287, Note_on_c, 0, 82, 42
2, 91509, Control_c, 0, 64, 127
2, 91643, Note_on_c, 0, 55, 0
2, 91651, Note_on_c, 0, 77, 0
2, 91683, Note_on_c, 0, 60, 0
2, 91700, Note_on_c, 0, 65, 0
2, 91703, Note_on_c, 0, 70, 0
2, 91738, Note_on_c, 0, 82, 0
2, 91903, Note_on_c, 0, 61, 0
2, 92153, Control_c, 0, 64, 0
2, 92173, Note_on_c, 0, 64, 26
2, 92173, Note_on_c, 0, 54, 26
2, 92175, Note_on_c, 0, 76, 43
2, 92176, Note_on_c, 0, 83, 30
2, 92181, Note_on_c, 0, 71, 24
2, 92186, Note_on_c, 0, 80, 31
2, 92189, Note_on_c, 0, 60, 32
2, 92195, Note_on_c, 0, 59, 39
2, 92289, Note_on_c, 0, 76, 0
2, 92293, Note_on_c, 0, 71, 0
2, 92313, Note_on_c, 0, 80, 0
2, 92314, Note_on_c, 0, 64, 0
2, 92328, Note_on_c, 0, 83, 0
2, 92336, Note_on_c, 0, 59, 0
2, 92340, Note_on_c, 0, 60, 0
2, 92352, Note_on_c, 0, 54, 0
2, 92542, Note_on_c, 0, 83, 33
2, 92555, Note_on_c, 0, 71, 27
2, 92562, Note_on_c, 0, 80, 23
2, 92566, Note_on_c, 0, 76, 35
2, 92567, Note_on_c, 0, 54, 25
2, 92589, Note_on_c, 0, 64, 14
2, 92655, Note_on_c, 0, 71, 0
2, 92658, Note_on_c, 0, 76, 0
2, 92667, Note_on_c, 0, 64, 0
2, 92683, Note_on_c, 0, 80, 0
2, 92707, Note_on_c, 0, 83, 0
2, 92708, Note_on_c, 0, 54, 0
2, 92882, Note_on_c, 0, 83, 35
2, 92887, Note_on_c, 0, 76, 42
2, 92890, Note_on_c, 0, 80, 27
2, 92895, Note_on_c, 0, 71, 27
2, 92898, Note_on_c, 0, 54, 23
2, 92905, Note_on_c, 0, 64, 16
2, 92920, Note_on_c, 0, 59, 27
2, 92924, Note_on_c, 0, 60, 25
2, 93000, Note_on_c, 0, 71, 0
2, 93002, Note_on_c, 0, 64, 0
2, 93010, Note_on_c, 0, 76, 0
2, 93021, Note_on_c, 0, 60, 0
2, 93025, Note_on_c, 0, 59, 0
2, 93033, Note_on_c, 0, 80, 0
2, 93039, Note_on_c, 0, 83, 0
2, 93043, Note_on_c, 0, 54, 0
2, 93215, Note_on_c, 0, 83, 32
2, 93225, Note_on_c, 0, 76, 43
2, 93227, Note_on_c, 0, 80, 25
2, 93228, Note_on_c, 0, 71, 26
2, 93233, Note_on_c, 0, 54, 21
2, 93243, Note_on_c, 0, 64, 15
2, 93247, Control_c, 0, 64, 127
2, 93262, Note_on_c, 0, 60, 25
2, 93268, Note_on_c, 0, 59, 24
2, 93659, Note_on_c, 0, 59, 0
2, 93687, Note_on_c, 0, 60, 0
2, 93720, Note_on_c, 0, 80, 0
2, 93771, Note_on_c, 0, 83, 0
2, 93773, Note_on_c, 0, 64, 0
2, 93792, Note_on_c, 0, 54, 0
2, 93860, Note_on_c, 0, 82, 51
2, 93867, Note_on_c, 0, 76, 0
2, 94016, Note_on_c, 0, 82, 0
2, 94017, Note_on_c, 0, 71, 0
2, 94059, Control_c, 0, 64, 0
2, 94096, Note_on_c, 0, 64, 25
2, 94100, Note_on_c, 0, 81, 36
2, 94109, Note_on_c, 0, 59, 30
2, 94120, Note_on_c, 0, 53, 24
2, 94554, Control_c, 0, 64, 127
2, 95308, Note_on_c, 0, 59, 0
2, 95334, Note_on_c, 0, 53, 0
2, 95420, Note_on_c, 0, 81, 0
2, 95420, Note_on_c, 0, 64, 0
2, 95840, Note_on_c, 0, 80, 37
2, 95956, Note_on_c, 0, 80, 0
2, 96016, Control_c, 0, 64, 0
2, 96050, Note_on_c, 0, 79, 41
2, 96052, Note_on_c, 0, 62, 30
2, 96054, Note_on_c, 0, 64, 24
2, 96062, Note_on_c, 0, 67, 19
2, 96309, Note_on_c, 0, 79, 0
2, 96388, Note_on_c, 0, 81, 29
2, 96453, Note_on_c, 0, 79, 33
2, 96467, Note_on_c, 0, 81, 0
2, 96531, Note_on_c, 0, 79, 0
2, 96533, Note_on_c, 0, 76, 38
2, 96612, Note_on_c, 0, 76, 0
2, 96696, Note_on_c, 0, 79, 41
2, 96733, Note_on_c, 0, 79, 0
2, 97330, Note_on_c, 0, 67, 0
2, 97561, Note_on_c, 0, 64, 0
2, 97587, Note_on_c, 0, 62, 0
2, 97595, Note_on_c, 0, 76, 56
2, 97700, Note_on_c, 0, 76, 0
2, 97718, Note_on_c, 0, 72, 44
2, 97806, Note_on_c, 0, 72, 0
2, 97823, Note_on_c, 0, 69, 42
2, 97879, Note_on_c, 0, 69, 0
2, 97990, Note_on_c, 0, 64, 24
2, 98091, Note_on_c, 0, 64, 0
2, 98639, Note_on_c, 0, 60, 33
2, 98749, Note_on_c, 0, 60, 0
2, 98888, Note_on_c, 0, 60, 32
2, 99131, Note_on_c, 0, 60, 0
2, 99135, Note_on_c, 0, 57, 31
2, 99290, Control_c, 0, 64, 127
2, 99484, Note_on_c, 0, 57, 0
2, 99712, Control_c, 0, 64, 0
2, 99745, Note_on_c, 0, 47, 44
2, 99924, Control_c, 0, 64, 127
2, 100014, Note_on_c, 0, 47, 0
2, 100773, Note_on_c, 0, 57, 66
2, 100778, Note_on_c, 0, 68, 60
2, 100779, Note_on_c, 0, 63, 56
2, 100780, Note_on_c, 0, 80, 76
2, 100782, Note_on_c, 0, 73, 72
2, 100782, Note_on_c, 0, 77, 77
2, 101232, Note_on_c, 0, 57, 0
2, 101281, Note_on_c, 0, 68, 0
2, 101383, Note_on_c, 0, 63, 0
2, 101446, Note_on_c, 0, 77, 0
2, 101453, Note_on_c, 0, 73, 0
2, 101456, Note_on_c, 0, 80, 0
2, 101590, Note_on_c, 0, 79, 72
2, 101603, Note_on_c, 0, 68, 47
2, 101605, Note_on_c, 0, 57, 57
2, 101611, Note_on_c, 0, 63, 45
2, 101738, Note_on_c, 0, 57, 0
2, 101742, Note_on_c, 0, 79, 0
2, 101773, Note_on_c, 0, 68, 0
2, 101859, Note_on_c, 0, 63, 0
2, 101886, Note_on_c, 0, 78, 56
2, 101897, Control_c, 0, 64, 0
2, 101898, Note_on_c, 0, 62, 54
2, 101902, Note_on_c, 0, 74, 49
2, 101904, Note_on_c, 0, 69, 49
2, 101910, Note_on_c, 0, 56, 54
2, 102169, Control_c, 0, 64, 127
2, 102518, Note_on_c, 0, 62, 0
2, 102537, Note_on_c, 0, 74, 0
2, 102557, Note_on_c, 0, 69, 0
2, 102585, Note_on_c, 0, 56, 0
2, 102593, Note_on_c, 0, 78, 0
2, 102808, Note_on_c, 0, 77, 42
2, 102809, Note_on_c, 0, 73, 34
2, 102812, Note_on_c, 0, 56, 33
2, 102818, Note_on_c, 0, 68, 30
2, 102829, Note_on_c, 0, 67, 22
2, 102834, Note_on_c, 0, 62, 35
2, 103151, Note_on_c, 0, 67, 0
2, 103161, Note_on_c, 0, 62, 0
2, 103317, Note_on_c, 0, 56, 0
2, 103354, Note_on_c, 0, 68, 0
2, 103372, Note_on_c, 0, 77, 0
2, 103509, Note_on_c, 0, 73, 0
2, 103715, Note_on_c, 0, 76, 37
2, 103722, Control_c, 0, 64, 0
2, 103723, Note_on_c, 0, 61, 27
2, 103734, Note_on_c, 0, 67, 30
2, 103734, Note_on_c, 0, 65, 31
2, 103737, Note_on_c, 0, 73, 26
2, 103751, Note_on_c, 0, 55, 32
2, 103874, Note_on_c, 0, 60, 1
2, 104075, Control_c, 0, 64, 127
2, 104276, Note_on_c, 0, 65, 0
2, 104293, Note_on_c, 0, 60, 0
2, 104346, Note_on_c, 0, 61, 0
2, 104615, Note_on_c, 0, 61, 34
2, 104631, Note_on_c, 0, 65, 30
2, 104644, Note_on_c, 0, 60, 40
2, 104645, Note_on_c, 0, 67, 0
2, 104666, Note_on_c, 0, 73, 0
2, 104801, Note_on_c, 0, 76, 0
2, 105176, Note_on_c, 0, 65, 0
2, 105181, Note_on_c, 0, 60, 0
2, 105265, Note_on_c, 0, 55, 0
2, 105349, Note_on_c, 0, 61, 0
2, 105442, Note_on_c, 0, 77, 62
2, 105584, Note_on_c, 0, 77, 0
2, 105637, Note_on_c, 0, 53, 20
2, 105649, Note_on_c, 0, 57, 33
2, 105650, Note_on_c, 0, 60, 25
2, 105653, Control_c, 0, 64, 0
2, 105658, Note_on_c, 0, 64, 28
2, 105658, Note_on_c, 0, 74, 36
2, 106012, Note_on_c, 0, 74, 0
2, 106031, Note_on_c, 0, 69, 22
2, 106105, Note_on_c, 0, 69, 0
2, 106535, Control_c, 0, 64, 127
2, 106651, Note_on_c, 0, 69, 32
2, 106945, Note_on_c, 0, 69, 0
2, 107124, Note_on_c, 0, 74, 35
2, 107189, Control_c, 0, 64, 0
2, 107199, Note_on_c, 0, 57, 0
2, 107203, Note_on_c, 0, 64, 0
2, 107210, Note_on_c, 0, 60, 0
2, 107216, Note_on_c, 0, 75, 44
2, 107252, Note_on_c, 0, 53, 0
2, 107258, Note_on_c, 0, 74, 0
2, 107275, Note_on_c, 0, 75, 0
2, 107282, Note_on_c, 0, 76, 46
2, 107388, Note_on_c, 0, 76, 0
2, 107448, Note_on_c, 0, 79, 59
2, 107516, Note_on_c, 0, 79, 0
2, 107625, Note_on_c, 0, 79, 62
2, 107706, Note_on_c, 0, 79, 0
2, 107733, Note_on_c, 0, 53, 19
2, 107735, Note_on_c, 0, 64, 15
2, 107737, Note_on_c, 0, 57, 18
2, 107755, Note_on_c, 0, 60, 19
2, 107873, Note_on_c, 0, 74, 36
2, 107895, Note_on_c, 0, 60, 0
2, 107896, Note_on_c, 0, 64, 0
2, 107901, Note_on_c, 0, 79, 25
2, 107916, Note_on_c, 0, 57, 0
2, 107917, Note_on_c, 0, 75, 46
2, 107974, Note_on_c, 0, 53, 0
2, 107978, Note_on_c, 0, 75, 0
2, 107991, Note_on_c, 0, 76, 39
2, 107995, Note_on_c, 0, 74, 0
2, 108071, Note_on_c, 0, 79, 0
2, 108074, Note_on_c, 0, 76, 0
2, 108213, Note_on_c, 0, 69, 47
2, 108280, Note_on_c, 0, 69, 0
2, 108602, Note_on_c, 0, 69, 43
2, 108909, Note_on_c, 0, 69, 0
2, 108953, Control_c, 0, 64, 127
2, 108958, Note_on_c, 0, 68, 36
2, 109006, Control_c, 0, 64, 0
2, 109094, Control_c, 0, 64, 127
2, 109310, Note_on_c, 0, 68, 0
2, 109367, Control_c, 0, 64, 0
2, 109441, Note_on_c, 0, 67, 37
2, 109464, Note_on_c, 0, 64, 19
2, 109469, Note_on_c, 0, 53, 19
2, 109485, Note_on_c, 0, 59, 34
2, 109693, Control_c, 0, 64, 127
2, 110003, Note_on_c, 0, 64, 0
2, 110009, Note_on_c, 0, 59, 0
2, 110153, Note_on_c, 0, 67, 0
2, 110197, Note_on_c, 0, 53, 0
2, 110388, Control_c, 0, 64, 0
2, 110415, Note_on_c, 0, 71, 67
2, 110423, Note_on_c, 0, 56, 64
2, 110425, Note_on_c, 0, 62, 71
2, 110426, Note_on_c, 0, 67, 70
2, 110555, Note_on_c, 0, 71, 0
2, 110588, Note_on_c, 0, 62, 0
2, 110669, Note_on_c, 0, 74, 74
2, 110677, Note_on_c, 0, 59, 63
2, 110705, Note_on_c, 0, 67, 0
2, 110751, Control_c, 0, 64, 127
2, 110752, Note_on_c, 0, 74, 0
2, 110871, Note_on_c, 0, 59, 0
2, 110879, Note_on_c, 0, 62, 63
2, 110881, Note_on_c, 0, 56, 0
2, 110885, Note_on_c, 0, 68, 61
2, 110892, Note_on_c, 0, 74, 51
2, 110898, Note_on_c, 0, 75, 29
2, 110960, Note_on_c, 0, 75, 0
2, 110983, Note_on_c, 0, 62, 0
2, 111018, Note_on_c, 0, 68, 0
2, 111028, Note_on_c, 0, 74, 0
2, 111092, Note_on_c, 0, 77, 62
2, 111115, Note_on_c, 0, 64, 67
2, 111147, Note_on_c, 0, 64, 0
2, 111150, Note_on_c, 0, 77, 0
2, 111247, Control_c, 0, 64, 0
2, 111353, Note_on_c, 0, 83, 63
2, 111382, Note_on_c, 0, 80, 26
2, 111384, Note_on_c, 0, 76, 34
2, 111387, Note_on_c, 0, 77, 37
2, 111518, Note_on_c, 0, 77, 0
2, 111519, Note_on_c, 0, 76, 0
2, 111598, Note_on_c, 0, 83, 0
2, 111598, Control_c, 0, 64, 127
2, 111599, Note_on_c, 0, 86, 70
2, 111613, Note_on_c, 0, 64, 40
2, 111620, Note_on_c, 0, 60, 34
2, 111707, Note_on_c, 0, 86, 0
2, 111715, Note_on_c, 0, 64, 0
2, 111745, Note_on_c, 0, 60, 0
2, 111749, Control_c, 0, 64, 0
2, 111759, Note_on_c, 0, 80, 0
2, 111814, Note_on_c, 0, 84, 64
2, 111825, Note_on_c, 0, 72, 38
2, 111834, Note_on_c, 0, 60, 24
2, 111838, Note_on_c, 0, 64, 24
2, 111854, Note_on_c, 0, 55, 27
2, 111860, Note_on_c, 0, 59, 29
2, 111952, Control_c, 0, 64, 127
2, 112045, Note_on_c, 0, 84, 0
2, 112095, Note_on_c, 0, 55, 0
2, 112103, Note_on_c, 0, 64, 0
2, 112117, Note_on_c, 0, 59, 0
2, 112128, Note_on_c, 0, 60, 0
2, 112134, Note_on_c, 0, 72, 0
2, 112182, Control_c, 0, 64, 0
2, 112255, Note_on_c, 0, 83, 49
2, 112263, Note_on_c, 0, 71, 43
2, 112279, Note_on_c, 0, 64, 24
2, 112283, Note_on_c, 0, 60, 25
2, 112286, Note_on_c, 0, 55, 27
2, 112290, Note_on_c, 0, 59, 36
2, 112312, Control_c, 0, 64, 127
2, 112391, Note_on_c, 0, 55, 0
2, 112408, Note_on_c, 0, 71, 0
2, 112414, Note_on_c, 0, 83, 0
2, 112439, Note_on_c, 0, 59, 0
2, 112442, Note_on_c, 0, 64, 0
2, 112457, Note_on_c, 0, 60, 0
2, 112508, Control_c, 0, 64, 0
2, 112579, Note_on_c, 0, 84, 44
2, 112580, Note_on_c, 0, 72, 41
2, 112600, Note_on_c, 0, 55, 29
2, 112604, Note_on_c, 0, 60, 24
2, 112605, Note_on_c, 0, 59, 30
2, 112611, Note_on_c, 0, 64, 22
2, 112675, Control_c, 0, 64, 127
2, 112723, Note_on_c, 0, 84, 0
2, 112764, Note_on_c, 0, 72, 0
2, 112776, Note_on_c, 0, 64, 0
2, 112791, Note_on_c, 0, 55, 0
2, 112800, Note_on_c, 0, 59, 0
2, 112804, Note_on_c, 0, 60, 0
2, 113189, Note_on_c, 0, 83, 45
2, 113204, Note_on_c, 0, 64, 32
2, 113206, Note_on_c, 0, 80, 23
2, 113208, Note_on_c, 0, 54, 34
2, 113212, Note_on_c, 0, 76, 35
2, 113214, Control_c, 0, 64, 0
2, 113218, Note_on_c, 0, 60, 25
2, 113221, Note_on_c, 0, 71, 20
2, 113529, Control_c, 0, 64, 127
2, 113890, Note_on_c, 0, 60, 0
2, 113906, Note_on_c, 0, 64, 0
2, 113991, Note_on_c, 0, 76, 0
2, 114008, Note_on_c, 0, 80, 0
2, 114016, Note_on_c, 0, 71, 0
2, 114154, Note_on_c, 0, 83, 0
2, 114244, Note_on_c, 0, 71, 36
2, 114252, Note_on_c, 0, 76, 35
2, 114254, Note_on_c, 0, 81, 33
2, 114255, Note_on_c, 0, 60, 29
2, 114256, Note_on_c, 0, 64, 27
2, 114652, Note_on_c, 0, 81, 0
2, 114706, Note_on_c, 0, 76, 0
2, 114758, Note_on_c, 0, 71, 0
2, 114760, Note_on_c, 0, 64, 0
2, 114798, Note_on_c, 0, 60, 0
2, 114877, Note_on_c, 0, 54, 0
2, 115207, Note_on_c, 0, 74, 76
2, 115213, Note_on_c, 0, 64, 71
2, 115215, Control_c, 0, 64, 0
2, 115217, Note_on_c, 0, 69, 75
2, 115218, Note_on_c, 0, 65, 70
2, 115490, Note_on_c, 0, 63, 64
2, 115519, Note_on_c, 0, 64, 0
2, 115565, Note_on_c, 0, 74, 0
2, 115617, Note_on_c, 0, 65, 0
2, 115665, Note_on_c, 0, 69, 0
2, 115674, Control_c, 0, 64, 127
2, 115683, Control_c, 0, 64, 0
2, 115737, Note_on_c, 0, 69, 54
2, 115738, Note_on_c, 0, 76, 58
2, 115739, Note_on_c, 0, 62, 57
2, 115740, Note_on_c, 0, 63, 0
2, 115749, Note_on_c, 0, 65, 51
2, 115993, Note_on_c, 0, 61, 53
2, 115998, Note_on_c, 0, 76, 0
2, 116007, Note_on_c, 0, 62, 0
2, 116058, Note_on_c, 0, 69, 0
2, 116061, Note_on_c, 0, 65, 0
2, 116098, Control_c, 0, 64, 127
2, 116168, Control_c, 0, 64, 0
2, 116225, Note_on_c, 0, 69, 49
2, 116231, Note_on_c, 0, 77, 44
2, 116234, Note_on_c, 0, 65, 50
2, 116240, Note_on_c, 0, 72, 34
2, 116243, Note_on_c, 0, 61, 0
2, 116246, Note_on_c, 0, 76, 53
2, 116248, Note_on_c, 0, 60, 49
2, 116416, Control_c, 0, 64, 127
2, 116624, Note_on_c, 0, 77, 0
2, 116630, Note_on_c, 0, 76, 0
2, 116643, Note_on_c, 0, 72, 0
2, 116658, Note_on_c, 0, 69, 0
2, 116685, Note_on_c, 0, 57, 43
2, 116687, Note_on_c, 0, 60, 0
2, 116698, Note_on_c, 0, 65, 0
2, 116739, Note_on_c, 0, 57, 0
2, 117172, Control_c, 0, 64, 0
2, 117208, Note_on_c, 0, 68, 33
2, 117213, Note_on_c, 0, 64, 36
2, 117222, Note_on_c, 0, 43, 33
2, 117224, Note_on_c, 0, 59, 29
2, 117247, Note_on_c, 0, 53, 24
2, 117561, Control_c, 0, 64, 127
2, 117703, Note_on_c, 0, 64, 0
2, 117735, Note_on_c, 0, 53, 0
2, 117798, Note_on_c, 0, 59, 0
2, 118198, Note_on_c, 0, 64, 24
2, 118207, Note_on_c, 0, 59, 24
2, 118221, Note_on_c, 0, 53, 19
2, 118310, Note_on_c, 0, 59, 0
2, 118342, Note_on_c, 0, 64, 0
2, 118369, Note_on_c, 0, 68, 0
2, 118420, Note_on_c, 0, 43, 0
2, 118504, Note_on_c, 0, 53, 0
2, 118543, Note_on_c, 0, 74, 46
2, 118695, Note_on_c, 0, 74, 0
2, 118837, Note_on_c, 0, 74, 51
2, 118917, Note_on_c, 0, 74, 0
2, 119162, Note_on_c, 0, 71, 36
2, 119166, Control_c, 0, 64, 0
2, 119175, Note_on_c, 0, 43, 19
2, 119182, Note_on_c, 0, 36, 30
2, 119190, Note_on_c, 0, 67, 44
2, 119208, Note_on_c, 0, 64, 22
2, 119231, Note_on_c, 0, 62, 16
2, 119493, Control_c, 0, 64, 127
2, 119717, Note_on_c, 0, 62, 0
2, 119769, Note_on_c, 0, 64, 0
2, 119776, Note_on_c, 0, 67, 0
2, 119916, Note_on_c, 0, 71, 0
2, 120117, Note_on_c, 0, 52, 24
2, 120239, Note_on_c, 0, 36, 0
2, 120307, Note_on_c, 0, 43, 0
2, 120400, Note_on_c, 0, 52, 0
2, 120448, Note_on_c, 0, 67, 37
2, 120503, Note_on_c, 0, 67, 0
2, 120559, Control_c, 0, 64, 0
2, 120608, Note_on_c, 0, 74, 40
2, 120692, Note_on_c, 0, 74, 0
2, 120748, Note_on_c, 0, 79, 54
2, 120812, Note_on_c, 0, 79, 0
2, 120883, Note_on_c, 0, 83, 75
2, 120997, Note_on_c, 0, 83, 0
2, 121055, Note_on_c, 0, 86, 88
2, 121059, Note_on_c, 0, 55, 46
2, 121060, Note_on_c, 0, 52, 30
2, 121061, Note_on_c, 0, 62, 35
2, 121071, Note_on_c, 0, 59, 30
2, 121213, Note_on_c, 0, 59, 0
2, 121222, Note_on_c, 0, 86, 0
2, 121234, Note_on_c, 0, 55, 0
2, 121237, Note_on_c, 0, 62, 0
2, 121238, Note_on_c, 0, 52, 0
2, 121356, Note_on_c, 0, 85, 72
2, 121481, Note_on_c, 0, 85, 0
2, 121555, Note_on_c, 0, 83, 47
2, 121737, Note_on_c, 0, 83, 0
2, 121818, Note_on_c, 0, 81, 46
2, 121858, Note_on_c, 0, 61, 32
2, 121875, Note_on_c, 0, 64, 26
2, 121883, Note_on_c, 0, 55, 22
2, 121982, Note_on_c, 0, 81, 0
2, 122039, Note_on_c, 0, 79, 30
2, 122280, Note_on_c, 0, 79, 0
2, 122331, Note_on_c, 0, 64, 0
2, 122379, Note_on_c, 0, 61, 0
2, 122393, Note_on_c, 0, 77, 44
2, 122399, Note_on_c, 0, 55, 0
2, 122493, Note_on_c, 0, 82, 59
2, 122519, Note_on_c, 0, 77, 0
2, 122627, Note_on_c, 0, 82, 0
2, 122646, Note_on_c, 0, 83, 44
2, 122745, Note_on_c, 0, 83, 0
2, 122790, Note_on_c, 0, 86, 87
2, 122925, Note_on_c, 0, 86, 0
2, 122955, Note_on_c, 0, 82, 37
2, 123082, Note_on_c, 0, 82, 0
2, 123126, Note_on_c, 0, 83, 36
2, 123233, Note_on_c, 0, 83, 0
2, 123287, Note_on_c, 0, 86, 83
2, 123400, Note_on_c, 0, 60, 24
2, 123418, Note_on_c, 0, 64, 14
2, 123419, Note_on_c, 0, 54, 30
2, 123426, Note_on_c, 0, 59, 30
2, 123428, Note_on_c, 0, 86, 0
2, 123453, Note_on_c, 0, 82, 34
2, 123606, Note_on_c, 0, 82, 0
2, 123632, Note_on_c, 0, 83, 31
2, 123733, Note_on_c, 0, 83, 0
2, 123754, Note_on_c, 0, 86, 80
2, 123939, Note_on_c, 0, 82, 49
2, 124102, Note_on_c, 0, 59, 0
2, 124107, Note_on_c, 0, 86, 0
2, 124109, Note_on_c, 0, 64, 0
2, 124112, Note_on_c, 0, 60, 0
2, 124183, Note_on_c, 0, 82, 0
2, 124359, Note_on_c, 0, 79, 62
2, 124547, Note_on_c, 0, 54, 0
2, 124749, Note_on_c, 0, 79, 0
2, 124831, Note_on_c, 0, 63, 31
2, 124836, Note_on_c, 0, 80, 46
2, 124870, Note_on_c, 0, 59, 19
2, 124886, Note_on_c, 0, 53, 17
2, 125067, Note_on_c, 0, 80, 0
2, 125150, Note_on_c, 0, 77, 24
2, 125214, Note_on_c, 0, 77, 0
2, 125283, Note_on_c, 0, 79, 83
2, 125530, Note_on_c, 0, 79, 0
2, 125589, Note_on_c, 0, 78, 37
2, 125687, Note_on_c, 0, 78, 0
2, 125746, Note_on_c, 0, 79, 43
2, 125771, Note_on_c, 0, 63, 0
2, 125845, Note_on_c, 0, 53, 0
2, 125853, Note_on_c, 0, 59, 0
2, 126030, Note_on_c, 0, 79, 0
2, 126055, Note_on_c, 0, 59, 16
2, 126056, Note_on_c, 0, 71, 48
2, 126159, Note_on_c, 0, 59, 0
2, 126167, Note_on_c, 0, 71, 0
2, 126665, Note_on_c, 0, 57, 28
2, 126677, Note_on_c, 0, 58, 34
2, 126680, Note_on_c, 0, 62, 35
2, 126703, Note_on_c, 0, 52, 34
2, 126784, Note_on_c, 0, 62, 0
2, 126805, Note_on_c, 0, 57, 0
2, 126816, Note_on_c, 0, 52, 0
2, 126828, Note_on_c, 0, 58, 0
2, 127172, Note_on_c, 0, 67, 113
2, 127463, Note_on_c, 0, 67, 0
2, 127485, Note_on_c, 0, 66, 43
2, 127552, Note_on_c, 0, 66, 0
2, 127647, Note_on_c, 0, 67, 48
2, 127959, Note_on_c, 0, 63, 50
2, 127963, Note_on_c, 0, 52, 36
2, 127979, Note_on_c, 0, 58, 46
2, 128399, Note_on_c, 0, 52, 0
2, 128529, Note_on_c, 0, 63, 0
2, 128547, Note_on_c, 0, 58, 0
2, 128608, Note_on_c, 0, 62, 62
2, 128615, Note_on_c, 0, 57, 58
2, 128623, Note_on_c, 0, 51, 48
2, 128679, Note_on_c, 0, 67, 0
2, 129557, Control_c, 0, 64, 127
2, 129606, Note_on_c, 0, 57, 0
2, 129619, Control_c, 0, 64, 0
2, 129643, Note_on_c, 0, 51, 0
2, 129717, Note_on_c, 0, 62, 0
2, 129723, Control_c, 0, 64, 127
2, 129864, Control_c, 0, 64, 0
2, 129887, Note_on_c, 0, 67, 63
2, 129888, Note_on_c, 0, 62, 56
2, 129910, Note_on_c, 0, 56, 34
2, 130202, Note_on_c, 0, 67, 0
2, 130204, Note_on_c, 0, 62, 0
2, 130250, Note_on_c, 0, 74, 50
2, 130261, Note_on_c, 0, 56, 0
2, 130333, Note_on_c, 0, 74, 0
2, 130394, Note_on_c, 0, 77, 89
2, 130532, Note_on_c, 0, 77, 0
2, 130555, Note_on_c, 0, 67, 49
2, 130569, Note_on_c, 0, 62, 39
2, 130582, Note_on_c, 0, 56, 38
2, 130583, Note_on_c, 0, 76, 60
2, 131045, Note_on_c, 0, 72, 37
2, 131152, Note_on_c, 0, 62, 0
2, 131221, Note_on_c, 0, 56, 0
2, 131296, Note_on_c, 0, 76, 0
2, 131330, Note_on_c, 0, 67, 0
2, 131427, Note_on_c, 0, 72, 0
2, 131508, Note_on_c, 0, 67, 48
2, 131513, Note_on_c, 0, 63, 43
2, 131515, Note_on_c, 0, 62, 37
2, 131516, Note_on_c, 0, 75, 60
2, 131530, Note_on_c, 0, 57, 39
2, 132093, Note_on_c, 0, 62, 0
2, 132108, Note_on_c, 0, 67, 0
2, 132151, Note_on_c, 0, 63, 0
2, 132161, Note_on_c, 0, 57, 0
2, 132314, Note_on_c, 0, 72, 36
2, 132330, Note_on_c, 0, 75, 0
2, 132398, Note_on_c, 0, 72, 0
2, 132451, Note_on_c, 0, 56, 34
2, 132462, Note_on_c, 0, 67, 22
2, 132473, Note_on_c, 0, 74, 46
2, 132474, Note_on_c, 0, 62, 26
2, 133045, Note_on_c, 0, 74, 0
2, 133102, Note_on_c, 0, 62, 0
2, 133333, Note_on_c, 0, 67, 0
2, 133381, Note_on_c, 0, 85, 58
2, 133607, Note_on_c, 0, 56, 0
2, 133644, Note_on_c, 0, 85, 0
2, 133697, Note_on_c, 0, 86, 87
2, 133702, Note_on_c, 0, 67, 62
2, 133706, Note_on_c, 0, 62, 65
2, 133714, Note_on_c, 0, 56, 53
2, 133750, Note_on_c, 0, 67, 0
2, 133793, Note_on_c, 0, 62, 0
2, 133805, Note_on_c, 0, 56, 0
2, 133831, Note_on_c, 0, 86, 0
2, 133891, Note_on_c, 0, 89, 95
2, 134113, Note_on_c, 0, 89, 0
2, 134168, Note_on_c, 0, 88, 74
2, 134180, Note_on_c, 0, 61, 48
2, 134181, Note_on_c, 0, 66, 49
2, 134200, Note_on_c, 0, 55, 38
2, 134299, Note_on_c, 0, 88, 0
2, 134404, Note_on_c, 0, 85, 56
2, 134768, Note_on_c, 0, 55, 0
2, 134802, Note_on_c, 0, 66, 0
2, 134819, Note_on_c, 0, 79, 36
2, 134981, Note_on_c, 0, 85, 0
2, 135048, Note_on_c, 0, 61, 0
2, 135100, Note_on_c, 0, 61, 13
2, 135116, Note_on_c, 0, 79, 0
2, 135119, Note_on_c, 0, 65, 32
2, 135123, Note_on_c, 0, 85, 67
2, 135132, Note_on_c, 0, 55, 30
2, 135206, Note_on_c, 0, 60, 5
2, 135365, Note_on_c, 0, 85, 0
2, 135378, Note_on_c, 0, 61, 0
2, 135386, Note_on_c, 0, 65, 0
2, 135402, Note_on_c, 0, 73, 34
2, 135466, Note_on_c, 0, 60, 0
2, 135620, Note_on_c, 0, 73, 0
2, 135754, Note_on_c, 0, 61, 27
2, 135768, Note_on_c, 0, 65, 24
2, 135780, Note_on_c, 0, 73, 36
2, 135892, Note_on_c, 0, 55, 0
2, 135920, Note_on_c, 0, 65, 0
2, 136022, Note_on_c, 0, 61, 0
2, 136095, Note_on_c, 0, 73, 0
2, 136138, Note_on_c, 0, 72, 46
2, 136163, Note_on_c, 0, 64, 24
2, 136176, Note_on_c, 0, 57, 36
2, 136177, Note_on_c, 0, 53, 31
2, 136189, Note_on_c, 0, 60, 37
2, 136777, Note_on_c, 0, 84, 48
2, 136790, Control_c, 0, 64, 127
2, 136824, Note_on_c, 0, 60, 0
2, 136853, Note_on_c, 0, 64, 0
2, 136985, Note_on_c, 0, 84, 0
2, 137052, Note_on_c, 0, 72, 0
2, 137247, Control_c, 0, 64, 0
2, 137251, Note_on_c, 0, 64, 24
2, 137286, Note_on_c, 0, 69, 28
2, 137336, Note_on_c, 0, 69, 0
2, 137356, Note_on_c, 0, 64, 0
2, 137418, Note_on_c, 0, 72, 68
2, 137453, Note_on_c, 0, 57, 0
2, 137481, Note_on_c, 0, 53, 0
2, 137505, Note_on_c, 0, 72, 0
2, 137565, Note_on_c, 0, 60, 60
2, 137577, Note_on_c, 0, 76, 83
2, 137683, Note_on_c, 0, 76, 0
2, 137709, Note_on_c, 0, 60, 0
2, 137729, Note_on_c, 0, 64, 60
2, 137737, Note_on_c, 0, 79, 72
2, 137745, Note_on_c, 0, 72, 62
2, 137746, Note_on_c, 0, 69, 74
2, 137749, Note_on_c, 0, 77, 70
2, 137752, Note_on_c, 0, 75, 35
2, 137783, Note_on_c, 0, 75, 0
2, 137785, Note_on_c, 0, 77, 0
2, 137789, Note_on_c, 0, 72, 0
2, 137814, Note_on_c, 0, 79, 0
2, 137825, Note_on_c, 0, 69, 0
2, 137908, Note_on_c, 0, 63, 65
2, 137929, Note_on_c, 0, 64, 0
2, 138024, Note_on_c, 0, 63, 0
2, 138063, Note_on_c, 0, 62, 60
2, 138064, Note_on_c, 0, 72, 68
2, 138070, Note_on_c, 0, 77, 66
2, 138073, Note_on_c, 0, 69, 67
2, 138190, Note_on_c, 0, 77, 0
2, 138191, Note_on_c, 0, 72, 0
2, 138209, Note_on_c, 0, 69, 0
2, 138239, Note_on_c, 0, 62, 0
2, 138253, Note_on_c, 0, 61, 56
2, 138360, Note_on_c, 0, 76, 55
2, 138374, Note_on_c, 0, 69, 53
2, 138383, Note_on_c, 0, 65, 38
2, 138395, Note_on_c, 0, 61, 0
2, 138420, Note_on_c, 0, 60, 44
2, 138496, Note_on_c, 0, 76, 0
2, 138518, Note_on_c, 0, 69, 0
2, 138563, Note_on_c, 0, 65, 0
2, 138647, Note_on_c, 0, 60, 0
2, 138661, Note_on_c, 0, 65, 44
2, 138671, Note_on_c, 0, 72, 42
2, 138675, Note_on_c, 0, 57, 44
2, 138899, Note_on_c, 0, 65, 0
2, 138903, Note_on_c, 0, 72, 0
2, 138949, Note_on_c, 0, 57, 0
2, 138964, Note_on_c, 0, 65, 16
2, 138967, Note_on_c, 0, 69, 46
2, 138980, Note_on_c, 0, 62, 22
2, 139042, Note_on_c, 0, 53, 13
2, 139558, Note_on_c, 0, 53, 0
2, 139792, Note_on_c, 0, 69, 0
2, 139873, Note_on_c, 0, 65, 0
2, 139919, Note_on_c, 0, 50, 24
2, 139972, Note_on_c, 0, 62, 0
2, 140052, Note_on_c, 0, 50, 0
2, 140060, Note_on_c, 0, 43, 36
2, 140098, Note_on_c, 0, 53, 15
2, 140553, Note_on_c, 0, 43, 0
2, 140799, Note_on_c, 0, 53, 0
2, 140861, Note_on_c, 0, 44, 46
2, 140862, Note_on_c, 0, 53, 49
2, 140958, Note_on_c, 0, 53, 0
2, 140997, Note_on_c, 0, 44, 0
2, 141021, Note_on_c, 0, 55, 47
2, 141102, Note_on_c, 0, 55, 0
2, 141113, Note_on_c, 0, 56, 51
2, 141195, Note_on_c, 0, 58, 59
2, 141216, Note_on_c, 0, 56, 0
2, 141240, Note_on_c, 0, 58, 0
2, 141259, Note_on_c, 0, 59, 67
2, 141337, Note_on_c, 0, 59, 0
2, 141357, Note_on_c, 0, 61, 78
2, 141435, Note_on_c, 0, 61, 0
2, 141474, Note_on_c, 0, 62, 64
2, 141560, Note_on_c, 0, 63, 52
2, 141565, Note_on_c, 0, 62, 0
2, 141657, Note_on_c, 0, 63, 0
2, 141665, Note_on_c, 0, 64, 56
2, 141741, Note_on_c, 0, 64, 0
2, 141781, Note_on_c, 0, 65, 74
2, 141889, Note_on_c, 0, 65, 0
2, 141942, Note_on_c, 0, 63, 79
2, 141999, Note_on_c, 0, 45, 31
2, 142025, Note_on_c, 0, 63, 0
2, 142094, Note_on_c, 0, 64, 69
2, 142227, Note_on_c, 0, 64, 0
2, 142286, Note_on_c, 0, 60, 65
2, 142389, Note_on_c, 0, 60, 0
2, 142485, Note_on_c, 0, 53, 35
2, 142574, Note_on_c, 0, 53, 0
2, 142713, Note_on_c, 0, 55, 42
2, 142859, Note_on_c, 0, 55, 0
2, 142925, Note_on_c, 0, 55, 65
2, 143031, Note_on_c, 0, 55, 0
2, 143132, Note_on_c, 0, 55, 38
2, 143238, Note_on_c, 0, 45, 0
2, 143459, Note_on_c, 0, 52, 24
2, 143489, Note_on_c, 0, 52, 0
2, 143536, Note_on_c, 0, 56, 64
2, 143581, Note_on_c, 0, 55, 0
2, 143849, Note_on_c, 0, 56, 0
2, 143872, Note_on_c, 0, 57, 62
2, 143893, Note_on_c, 0, 38, 36
2, 144281, Note_on_c, 0, 38, 0
2, 144282, Note_on_c, 0, 57, 0
2, 144286, Note_on_c, 0, 61, 61
2, 144309, Note_on_c, 0, 26, 43
2, 144345, Note_on_c, 0, 26, 0
2, 144362, Note_on_c, 0, 61, 0
2, 144492, Note_on_c, 0, 64, 55
2, 144756, Note_on_c, 0, 64, 0
2, 144783, Note_on_c, 0, 66, 62
2, 144803, Note_on_c, 0, 54, 40
2, 144815, Note_on_c, 0, 64, 32
2, 144822, Note_on_c, 0, 60, 36
2, 144876, Note_on_c, 0, 66, 0
2, 145130, Note_on_c, 0, 64, 0
2, 145148, Note_on_c, 0, 60, 0
2, 145242, Note_on_c, 0, 69, 53
2, 145254, Note_on_c, 0, 60, 35
2, 145258, Note_on_c, 0, 64, 36
2, 145327, Note_on_c, 0, 69, 0
2, 145362, Note_on_c, 0, 60, 0
2, 145406, Note_on_c, 0, 64, 0
2, 145410, Note_on_c, 0, 54, 0
2, 145564, Note_on_c, 0, 76, 64
2, 145650, Note_on_c, 0, 76, 0
2, 145705, Note_on_c, 0, 79, 89
2, 145811, Note_on_c, 0, 64, 32
2, 145819, Note_on_c, 0, 60, 28
2, 145820, Note_on_c, 0, 57, 41
2, 145829, Note_on_c, 0, 53, 29
2, 145873, Note_on_c, 0, 77, 66
2, 145897, Note_on_c, 0, 79, 0
2, 146010, Note_on_c, 0, 77, 0
2, 146045, Note_on_c, 0, 73, 42
2, 146125, Note_on_c, 0, 73, 0
2, 146157, Note_on_c, 0, 64, 0
2, 146188, Note_on_c, 0, 76, 79
2, 146305, Note_on_c, 0, 76, 0
2, 146358, Note_on_c, 0, 72, 60
2, 146544, Note_on_c, 0, 60, 0
2, 146646, Note_on_c, 0, 72, 0
2, 146669, Note_on_c, 0, 74, 56
2, 146722, Note_on_c, 0, 72, 50
2, 146768, Note_on_c, 0, 74, 0
2, 146841, Note_on_c, 0, 72, 0
2, 146864, Note_on_c, 0, 69, 35
2, 146915, Note_on_c, 0, 57, 0
2, 147121, Note_on_c, 0, 69, 0
2, 147151, Note_on_c, 0, 64, 36
2, 147154, Note_on_c, 0, 72, 58
2, 147169, Note_on_c, 0, 60, 34
2, 147176, Note_on_c, 0, 57, 38
2, 147190, Note_on_c, 0, 64, 0
2, 147232, Note_on_c, 0, 72, 0
2, 147255, Note_on_c, 0, 53, 0
2, 147296, Note_on_c, 0, 60, 0
2, 147303, Note_on_c, 0, 57, 0
2, 147588, Note_on_c, 0, 74, 76
2, 147615, Note_on_c, 0, 60, 40
2, 147619, Note_on_c, 0, 57, 41
2, 147622, Note_on_c, 0, 64, 44
2, 147659, Note_on_c, 0, 64, 0
2, 147684, Note_on_c, 0, 74, 0
2, 147725, Note_on_c, 0, 60, 0
2, 147744, Note_on_c, 0, 75, 62
2, 147814, Note_on_c, 0, 75, 0
2, 147816, Note_on_c, 0, 57, 0
2, 147930, Note_on_c, 0, 64, 43
2, 147932, Note_on_c, 0, 76, 63
2, 147955, Note_on_c, 0, 53, 19
2, 147961, Note_on_c, 0, 59, 46
2, 148259, Note_on_c, 0, 76, 0
2, 148290, Note_on_c, 0, 77, 60
2, 148453, Note_on_c, 0, 64, 0
2, 148454, Note_on_c, 0, 53, 0
2, 148488, Note_on_c, 0, 59, 0
2, 148583, Note_on_c, 0, 78, 49
2, 148585, Note_on_c, 0, 59, 47
2, 148588, Note_on_c, 0, 66, 55
2, 148589, Note_on_c, 0, 64, 51
2, 148594, Note_on_c, 0, 53, 36
2, 148663, Note_on_c, 0, 64, 0
2, 148673, Note_on_c, 0, 77, 0
2, 148683, Note_on_c, 0, 78, 0
2, 148703, Note_on_c, 0, 66, 0
2, 148761, Note_on_c, 0, 64, 45
2, 148769, Note_on_c, 0, 79, 54
2, 148781, Note_on_c, 0, 67, 32
2, 148854, Control_c, 0, 64, 127
2, 148938, Note_on_c, 0, 64, 0
2, 148947, Note_on_c, 0, 79, 0
2, 148981, Note_on_c, 0, 53, 0
2, 149018, Note_on_c, 0, 67, 0
2, 149027, Note_on_c, 0, 59, 0
2, 149085, Note_on_c, 0, 71, 63
2, 149105, Note_on_c, 0, 59, 31
2, 149118, Note_on_c, 0, 53, 27
2, 149121, Note_on_c, 0, 64, 38
2, 149165, Control_c, 0, 64, 0
2, 149217, Control_c, 0, 64, 127
2, 149389, Note_on_c, 0, 64, 0
2, 149399, Note_on_c, 0, 53, 0
2, 149422, Note_on_c, 0, 59, 0
2, 149657, Control_c, 0, 64, 0
2, 149670, Note_on_c, 0, 71, 0
2, 149710, Note_on_c, 0, 52, 36
2, 149715, Note_on_c, 0, 62, 36
2, 149715, Note_on_c, 0, 74, 66
2, 149718, Note_on_c, 0, 55, 34
2, 149725, Note_on_c, 0, 59, 24
2, 150011, Note_on_c, 0, 74, 0
2, 150080, Note_on_c, 0, 62, 0
2, 150081, Note_on_c, 0, 72, 26
2, 150118, Note_on_c, 0, 59, 0
2, 150162, Note_on_c, 0, 72, 0
2, 150188, Note_on_c, 0, 62, 40
2, 150192, Note_on_c, 0, 59, 16
2, 150206, Control_c, 0, 64, 127
2, 150219, Note_on_c, 0, 74, 63
2, 150232, Control_c, 0, 64, 0
2, 150422, Note_on_c, 0, 59, 0
2, 150427, Note_on_c, 0, 62, 0
2, 150467, Note_on_c, 0, 55, 0
2, 150554, Note_on_c, 0, 67, 55
2, 150568, Note_on_c, 0, 62, 38
2, 150574, Note_on_c, 0, 55, 22
2, 150581, Note_on_c, 0, 59, 27
2, 150799, Note_on_c, 0, 74, 0
2, 150901, Note_on_c, 0, 69, 55
2, 150916, Note_on_c, 0, 67, 0
2, 151054, Note_on_c, 0, 70, 72
2, 151096, Note_on_c, 0, 69, 0
2, 151146, Note_on_c, 0, 70, 0
2, 151169, Note_on_c, 0, 52, 0
2, 151191, Note_on_c, 0, 55, 0
2, 151193, Note_on_c, 0, 72, 58
2, 151197, Note_on_c, 0, 59, 0
2, 151282, Note_on_c, 0, 62, 0
2, 151301, Note_on_c, 0, 72, 0
2, 151345, Note_on_c, 0, 77, 66
2, 151453, Note_on_c, 0, 77, 0
2, 151500, Note_on_c, 0, 82, 83
2, 151526, Note_on_c, 0, 78, 31
2, 151559, Note_on_c, 0, 78, 0
2, 151619, Note_on_c, 0, 82, 0
2, 151633, Note_on_c, 0, 61, 37
2, 151643, Note_on_c, 0, 65, 34
2, 151656, Note_on_c, 0, 84, 87
2, 151657, Note_on_c, 0, 55, 30
2, 151658, Note_on_c, 0, 72, 74
2, 151774, Note_on_c, 0, 84, 0
2, 151798, Note_on_c, 0, 55, 0
2, 151819, Note_on_c, 0, 72, 0
2, 151824, Note_on_c, 0, 82, 55
2, 151852, Note_on_c, 0, 65, 0
2, 151855, Note_on_c, 0, 61, 0
2, 151917, Note_on_c, 0, 82, 0
2, 151960, Note_on_c, 0, 84, 85
2, 151967, Note_on_c, 0, 61, 58
2, 151967, Note_on_c, 0, 72, 72
2, 151968, Note_on_c, 0, 65, 57
2, 151969, Note_on_c, 0, 55, 62
2, 152526, Note_on_c, 0, 65, 0
2, 152530, Note_on_c, 0, 84, 0
2, 152565, Note_on_c, 0, 72, 0
2, 152612, Note_on_c, 0, 65, 35
2, 152638, Note_on_c, 0, 82, 51
2, 152642, Note_on_c, 0, 72, 50
2, 152659, Control_c, 0, 64, 127
2, 152741, Note_on_c, 0, 55, 0
2, 152836, Note_on_c, 0, 72, 0
2, 152868, Note_on_c, 0, 61, 0
2, 152910, Note_on_c, 0, 55, 49
2, 152938, Note_on_c, 0, 65, 0
2, 152951, Note_on_c, 0, 82, 0
2, 152955, Note_on_c, 0, 55, 0
2, 153002, Control_c, 0, 64, 0
2, 153100, Control_c, 0, 64, 127
2, 153382, Note_on_c, 0, 55, 80
2, 153383, Note_on_c, 0, 61, 78
2, 153387, Note_on_c, 0, 65, 78
2, 153394, Note_on_c, 0, 96, 87
2, 153400, Note_on_c, 0, 84, 96
2, 153452, Note_on_c, 0, 65, 0
2, 153499, Note_on_c, 0, 55, 0
2, 153509, Note_on_c, 0, 96, 0
2, 153523, Note_on_c, 0, 84, 0
2, 153566, Note_on_c, 0, 61, 0
2, 153594, Control_c, 0, 64, 0
2, 153616, Note_on_c, 0, 95, 63
2, 153629, Note_on_c, 0, 83, 48
2, 153631, Note_on_c, 0, 60, 65
2, 153632, Note_on_c, 0, 88, 46
2, 153634, Note_on_c, 0, 64, 65
2, 153635, Note_on_c, 0, 54, 63
2, 153800, Note_on_c, 0, 88, 0
2, 153809, Note_on_c, 0, 95, 0
2, 153825, Note_on_c, 0, 64, 0
2, 153828, Note_on_c, 0, 83, 0
2, 153835, Note_on_c, 0, 54, 0
2, 153841, Note_on_c, 0, 60, 0
2, 153903, Note_on_c, 0, 54, 53
2, 153905, Note_on_c, 0, 64, 50
2, 153907, Note_on_c, 0, 88, 62
2, 153911, Note_on_c, 0, 95, 68
2, 153913, Note_on_c, 0, 60, 58
2, 153916, Note_on_c, 0, 83, 53
2, 153949, Note_on_c, 0, 95, 0
2, 153955, Note_on_c, 0, 94, 33
2, 153980, Note_on_c, 0, 83, 0
2, 153987, Note_on_c, 0, 94, 0
2, 153989, Note_on_c, 0, 64, 0
2, 154006, Note_on_c, 0, 60, 0
2, 154013, Note_on_c, 0, 54, 0
2, 154040, Note_on_c, 0, 88, 0
2, 154086, Note_on_c, 0, 94, 52
2, 154086, Note_on_c, 0, 54, 46
2, 154093, Note_on_c, 0, 64, 36
2, 154098, Note_on_c, 0, 82, 30
2, 154107, Note_on_c, 0, 88, 35
2, 154108, Note_on_c, 0, 60, 44
2, 154244, Note_on_c, 0, 88, 0
2, 154244, Note_on_c, 0, 94, 0
2, 154255, Note_on_c, 0, 64, 0
2, 154256, Note_on_c, 0, 82, 0
2, 154263, Note_on_c, 0, 60, 0
2, 154276, Note_on_c, 0, 54, 0
2, 154384, Note_on_c, 0, 82, 63
2, 154388, Note_on_c, 0, 94, 56
2, 154392, Note_on_c, 0, 54, 45
2, 154393, Note_on_c, 0, 64, 47
2, 154402, Note_on_c, 0, 60, 48
2, 154416, Note_on_c, 0, 88, 37
2, 154479, Note_on_c, 0, 64, 0
2, 154484, Note_on_c, 0, 88, 0
2, 154503, Note_on_c, 0, 94, 0
2, 154506, Note_on_c, 0, 82, 0
2, 154546, Note_on_c, 0, 64, 31
2, 154579, Note_on_c, 0, 88, 36
2, 154583, Note_on_c, 0, 93, 46
2, 154606, Note_on_c, 0, 81, 32
2, 154739, Note_on_c, 0, 93, 0
2, 154752, Note_on_c, 0, 81, 0
2, 154755, Note_on_c, 0, 88, 0
2, 154789, Note_on_c, 0, 60, 0
2, 154792, Note_on_c, 0, 64, 0
2, 154801, Note_on_c, 0, 54, 0
2, 155306, Note_on_c, 0, 64, 57
2, 155311, Note_on_c, 0, 58, 48
2, 155313, Note_on_c, 0, 54, 55
2, 155317, Note_on_c, 0, 92, 75
2, 155317, Note_on_c, 0, 60, 53
2, 155319, Note_on_c, 0, 80, 80
2, 155325, Note_on_c, 0, 87, 71
2, 155413, Note_on_c, 0, 60, 0
2, 155414, Note_on_c, 0, 64, 0
2, 155442, Note_on_c, 0, 80, 0
2, 155445, Note_on_c, 0, 87, 0
2, 155446, Note_on_c, 0, 54, 0
2, 155447, Note_on_c, 0, 92, 0
2, 155458, Note_on_c, 0, 58, 0
2, 155495, Note_on_c, 0, 64, 44
2, 155507, Note_on_c, 0, 53, 56
2, 155509, Note_on_c, 0, 87, 67
2, 155516, Note_on_c, 0, 93, 75
2, 155518, Note_on_c, 0, 81, 68
2, 155519, Note_on_c, 0, 59, 64
2, 155675, Note_on_c, 0, 93, 0
2, 155695, Note_on_c, 0, 53, 0
2, 155700, Note_on_c, 0, 64, 0
2, 155703, Note_on_c, 0, 81, 0
2, 155710, Note_on_c, 0, 87, 0
2, 155711, Note_on_c, 0, 59, 0
2, 155782, Note_on_c, 0, 81, 66
2, 155786, Note_on_c, 0, 59, 53
2, 155787, Note_on_c, 0, 93, 67
2, 155788, Note_on_c, 0, 87, 64
2, 155791, Note_on_c, 0, 53, 63
2, 155794, Note_on_c, 0, 64, 58
2, 155853, Note_on_c, 0, 93, 0
2, 155855, Note_on_c, 0, 81, 0
2, 155866, Note_on_c, 0, 64, 0
2, 155876, Note_on_c, 0, 53, 0
2, 155896, Note_on_c, 0, 59, 0
2, 155899, Note_on_c, 0, 87, 0
2, 155963, Note_on_c, 0, 53, 30
2, 155963, Note_on_c, 0, 64, 44
2, 155969, Note_on_c, 0, 59, 35
2, 155984, Note_on_c, 0, 92, 53
2, 155986, Note_on_c, 0, 80, 47
2, 155996, Note_on_c, 0, 87, 46
2, 156101, Note_on_c, 0, 92, 0
2, 156132, Note_on_c, 0, 80, 0
2, 156133, Note_on_c, 0, 53, 0
2, 156139, Note_on_c, 0, 87, 0
2, 156151, Note_on_c, 0, 64, 0
2, 156160, Note_on_c, 0, 59, 0
2, 156252, Note_on_c, 0, 80, 51
2, 156256, Note_on_c, 0, 92, 53
2, 156259, Note_on_c, 0, 87, 51
2, 156358, Note_on_c, 0, 92, 0
2, 156363, Note_on_c, 0, 80, 0
2, 156374, Note_on_c, 0, 87, 0
2, 156446, Note_on_c, 0, 59, 34
2, 156450, Note_on_c, 0, 64, 46
2, 156455, Note_on_c, 0, 53, 32
2, 156460, Note_on_c, 0, 91, 38
2, 156461, Note_on_c, 0, 86, 46
2, 156466, Note_on_c, 0, 79, 27
2, 156894, Control_c, 0, 64, 127
2, 156939, Note_on_c, 0, 59, 0
2, 156975, Note_on_c, 0, 64, 0
2, 157005, Note_on_c, 0, 53, 0
2, 157009, Control_c, 0, 64, 0
2, 157054, Control_c, 0, 64, 127
2, 157070, Note_on_c, 0, 91, 0
2, 157099, Note_on_c, 0, 79, 0
2, 157110, Note_on_c, 0, 86, 0
2, 157199, Note_on_c, 0, 90, 37
2, 157324, Note_on_c, 0, 90, 0
2, 157337, Control_c, 0, 64, 0
2, 157361, Note_on_c, 0, 57, 22
2, 157363, Note_on_c, 0, 58, 32
2, 157371, Note_on_c, 0, 79, 48
2, 157372, Note_on_c, 0, 91, 60
2, 157373, Note_on_c, 0, 62, 35
2, 157382, Note_on_c, 0, 52, 26
2, 157549, Note_on_c, 0, 91, 0
2, 157615, Note_on_c, 0, 79, 0
2, 157682, Note_on_c, 0, 93, 64
2, 158189, Note_on_c, 0, 62, 0
2, 158207, Note_on_c, 0, 93, 0
2, 158302, Note_on_c, 0, 87, 55
2, 158342, Note_on_c, 0, 62, 28
2, 158407, Note_on_c, 0, 88, 55
2, 158435, Note_on_c, 0, 87, 0
2, 158552, Note_on_c, 0, 88, 0
2, 158553, Note_on_c, 0, 87, 37
2, 158639, Note_on_c, 0, 84, 43
2, 158646, Note_on_c, 0, 87, 0
2, 158698, Note_on_c, 0, 84, 0
2, 158735, Note_on_c, 0, 86, 64
2, 158852, Note_on_c, 0, 86, 0
2, 158883, Note_on_c, 0, 81, 24
2, 158917, Note_on_c, 0, 81, 0
2, 158941, Note_on_c, 0, 52, 0
2, 158960, Note_on_c, 0, 57, 0
2, 158991, Note_on_c, 0, 84, 62
2, 158993, Note_on_c, 0, 58, 0
2, 159040, Note_on_c, 0, 62, 0
2, 159191, Note_on_c, 0, 84, 0
2, 159657, Note_on_c, 0, 64, 63
2, 159668, Note_on_c, 0, 57, 49
2, 159680, Note_on_c, 0, 60, 31
2, 159689, Note_on_c, 0, 53, 22
2, 159718, Note_on_c, 0, 60, 0
2, 159725, Note_on_c, 0, 64, 0
2, 159744, Note_on_c, 0, 53, 0
2, 159752, Note_on_c, 0, 57, 0
2, 160326, Note_on_c, 0, 67, 57
2, 160337, Note_on_c, 0, 62, 48
2, 160338, Note_on_c, 0, 56, 52
2, 161158, Note_on_c, 0, 62, 0
2, 161173, Note_on_c, 0, 67, 0
2, 161208, Note_on_c, 0, 56, 0
2, 161285, Note_on_c, 0, 68, 52
2, 161293, Note_on_c, 0, 57, 53
2, 161296, Note_on_c, 0, 63, 52
2, 162252, Note_on_c, 0, 80, 82
2, 162593, Note_on_c, 0, 77, 50
2, 162611, Note_on_c, 0, 80, 0
2, 162669, Note_on_c, 0, 77, 0
2, 162733, Note_on_c, 0, 79, 68
2, 162924, Note_on_c, 0, 57, 0
2, 162955, Note_on_c, 0, 68, 0
2, 163030, Note_on_c, 0, 76, 40
2, 163032, Note_on_c, 0, 79, 0
2, 163125, Note_on_c, 0, 63, 0
2, 163127, Note_on_c, 0, 76, 0
2, 163176, Note_on_c, 0, 78, 51
2, 163200, Note_on_c, 0, 62, 40
2, 163202, Note_on_c, 0, 67, 42
2, 163209, Note_on_c, 0, 56, 35
2, 163495, Note_on_c, 0, 74, 34
2, 163533, Note_on_c, 0, 78, 0
2, 163574, Note_on_c, 0, 74, 0
2, 163642, Note_on_c, 0, 77, 57
2, 163904, Note_on_c, 0, 77, 0
2, 163952, Note_on_c, 0, 74, 26
2, 164028, Note_on_c, 0, 74, 0
2, 164068, Note_on_c, 0, 76, 45
2, 164222, Note_on_c, 0, 76, 0
2, 164585, Note_on_c, 0, 67, 0
2, 164633, Note_on_c, 0, 62, 0
2, 164943, Note_on_c, 0, 56, 0
2, 165047, Note_on_c, 0, 87, 74
2, 165051, Note_on_c, 0, 75, 83
2, 165057, Note_on_c, 0, 66, 68
2, 165058, Note_on_c, 0, 61, 55
2, 165066, Note_on_c, 0, 55, 57
2, 165077, Note_on_c, 0, 85, 46
2, 165189, Note_on_c, 0, 75, 0
2, 165201, Note_on_c, 0, 87, 0
2, 165210, Note_on_c, 0, 88, 58
2, 165217, Note_on_c, 0, 76, 47
2, 165230, Note_on_c, 0, 66, 0
2, 165249, Note_on_c, 0, 86, 29
2, 165296, Note_on_c, 0, 55, 0
2, 165305, Note_on_c, 0, 85, 0
2, 165350, Note_on_c, 0, 88, 0
2, 165375, Note_on_c, 0, 76, 0
2, 165385, Note_on_c, 0, 86, 0
2, 165511, Note_on_c, 0, 87, 62
2, 165513, Note_on_c, 0, 75, 67
2, 165640, Note_on_c, 0, 75, 0
2, 165642, Note_on_c, 0, 87, 0
2, 165677, Note_on_c, 0, 88, 44
2, 165678, Note_on_c, 0, 76, 31
2, 165696, Note_on_c, 0, 81, 27
2, 165799, Note_on_c, 0, 76, 0
2, 165812, Note_on_c, 0, 88, 0
2, 165818, Note_on_c, 0, 61, 0
2, 165843, Note_on_c, 0, 81, 0
2, 166019, Note_on_c, 0, 61, 43
2, 166024, Note_on_c, 0, 66, 45
2, 166037, Note_on_c, 0, 55, 37
2, 166538, Control_c, 0, 64, 127
2, 166676, Note_on_c, 0, 66, 0
2, 166681, Note_on_c, 0, 61, 0
2, 166808, Note_on_c, 0, 61, 39
2, 166812, Note_on_c, 0, 55, 0
2, 166867, Note_on_c, 0, 61, 0
2, 166874, Control_c, 0, 64, 0
2, 166892, Note_on_c, 0, 62, 40
2, 166938, Note_on_c, 0, 62, 0
2, 166951, Note_on_c, 0, 76, 59
2, 166955, Note_on_c, 0, 65, 60
2, 166956, Note_on_c, 0, 69, 59
2, 166963, Note_on_c, 0, 72, 46
2, 166983, Note_on_c, 0, 64, 36
2, 167035, Note_on_c, 0, 72, 0
2, 167043, Note_on_c, 0, 76, 0
2, 167046, Note_on_c, 0, 69, 0
2, 167073, Note_on_c, 0, 65, 0
2, 167081, Note_on_c, 0, 64, 0
2, 167093, Note_on_c, 0, 63, 57
2, 167185, Note_on_c, 0, 63, 0
2, 167210, Note_on_c, 0, 64, 41
2, 167248, Note_on_c, 0, 64, 0
2, 167250, Note_on_c, 0, 61, 60
2, 167344, Note_on_c, 0, 61, 0
2, 167349, Note_on_c, 0, 72, 43
2, 167354, Note_on_c, 0, 65, 37
2, 167359, Note_on_c, 0, 69, 53
2, 167359, Note_on_c, 0, 62, 40
2, 167380, Note_on_c, 0, 60, 53
2, 167724, Note_on_c, 0, 69, 0
2, 167742, Note_on_c, 0, 72, 0
2, 167759, Note_on_c, 0, 65, 0
2, 167785, Note_on_c, 0, 62, 0
2, 167828, Note_on_c, 0, 60, 0
2, 167859, Note_on_c, 0, 69, 54
2, 167868, Note_on_c, 0, 57, 46
2, 167871, Control_c, 0, 64, 127
2, 167872, Note_on_c, 0, 62, 33
2, 167879, Note_on_c, 0, 65, 36
2, 167891, Note_on_c, 0, 60, 29
2, 168024, Note_on_c, 0, 65, 0
2, 168036, Note_on_c, 0, 69, 0
2, 168069, Note_on_c, 0, 62, 0
2, 168096, Note_on_c, 0, 60, 0
2, 168251, Note_on_c, 0, 57, 0
2, 168369, Note_on_c, 0, 57, 20
2, 168370, Note_on_c, 0, 60, 43
2, 168371, Note_on_c, 0, 62, 43
2, 168377, Note_on_c, 0, 53, 32
2, 168382, Control_c, 0, 64, 0
2, 168386, Note_on_c, 0, 65, 30
2, 168469, Control_c, 0, 64, 127
2, 168570, Note_on_c, 0, 53, 0
2, 168596, Note_on_c, 0, 57, 0
2, 168626, Note_on_c, 0, 62, 0
2, 168644, Note_on_c, 0, 60, 0
2, 168657, Note_on_c, 0, 65, 0
2, 168849, Control_c, 0, 64, 0
2, 168876, Note_on_c, 0, 60, 31
2, 168877, Note_on_c, 0, 67, 37
2, 168878, Note_on_c, 0, 64, 44
2, 168881, Note_on_c, 0, 57, 29
2, 168889, Note_on_c, 0, 53, 31
2, 168893, Note_on_c, 0, 55, 37
2, 169035, Note_on_c, 0, 64, 0
2, 169052, Note_on_c, 0, 67, 0
2, 169060, Note_on_c, 0, 60, 0
2, 169068, Note_on_c, 0, 55, 0
2, 169072, Note_on_c, 0, 57, 0
2, 169085, Note_on_c, 0, 53, 0
2, 169381, Note_on_c, 0, 67, 38
2, 169383, Note_on_c, 0, 60, 31
2, 169394, Note_on_c, 0, 64, 48
2, 169405, Note_on_c, 0, 57, 18
2, 169413, Note_on_c, 0, 55, 32
2, 169415, Note_on_c, 0, 53, 24
2, 169578, Note_on_c, 0, 64, 0
2, 169594, Note_on_c, 0, 55, 0
2, 169597, Note_on_c, 0, 53, 0
2, 169607, Note_on_c, 0, 67, 0
2, 169611, Note_on_c, 0, 57, 0
2, 169617, Note_on_c, 0, 60, 0
2, 169858, Note_on_c, 0, 67, 37
2, 169867, Note_on_c, 0, 60, 28
2, 169870, Note_on_c, 0, 64, 49
2, 169877, Note_on_c, 0, 57, 26
2, 169893, Note_on_c, 0, 53, 26
2, 169894, Note_on_c, 0, 55, 33
2, 169951, Control_c, 0, 64, 127
2, 170363, Note_on_c, 0, 55, 0
2, 170373, Note_on_c, 0, 57, 0
2, 170399, Note_on_c, 0, 53, 0
2, 170474, Note_on_c, 0, 64, 0
2, 170479, Note_on_c, 0, 60, 0
2, 170608, Note_on_c, 0, 67, 0
2, 170673, Note_on_c, 0, 50, 34
2, 170782, Note_on_c, 0, 50, 0
2, 170789, Control_c, 0, 64, 0
2, 170828, Note_on_c, 0, 63, 37
2, 170830, Note_on_c, 0, 67, 38
2, 170832, Note_on_c, 0, 59, 31
2, 170842, Note_on_c, 0, 53, 26
2, 170851, Note_on_c, 0, 43, 22
2, 171027, Control_c, 0, 64, 127
2, 171066, Note_on_c, 0, 43, 0
2, 171141, Note_on_c, 0, 53, 0
2, 171173, Note_on_c, 0, 59, 0
2, 171277, Note_on_c, 0, 63, 0
2, 171293, Note_on_c, 0, 67, 0
2, 171551, Note_on_c, 0, 67, 64
2, 171630, Note_on_c, 0, 67, 0
2, 171679, Control_c, 0, 64, 0
2, 171691, Note_on_c, 0, 68, 69
2, 171803, Note_on_c, 0, 68, 0
2, 171821, Note_on_c, 0, 56, 21
2, 171832, Note_on_c, 0, 62, 17
2, 171844, Note_on_c, 0, 70, 54
2, 171862, Note_on_c, 0, 59, 20
2, 171867, Note_on_c, 0, 53, 20
2, 171929, Note_on_c, 0, 70, 0
2, 171979, Note_on_c, 0, 71, 51
2, 172102, Note_on_c, 0, 71, 0
2, 172104, Note_on_c, 0, 72, 71
2, 172194, Note_on_c, 0, 62, 0
2, 172205, Note_on_c, 0, 72, 0
2, 172270, Note_on_c, 0, 73, 43
2, 172274, Note_on_c, 0, 62, 32
2, 172356, Note_on_c, 0, 73, 0
2, 172382, Note_on_c, 0, 53, 0
2, 172394, Note_on_c, 0, 59, 0
2, 172404, Note_on_c, 0, 56, 0
2, 172420, Note_on_c, 0, 74, 61
2, 172480, Note_on_c, 0, 62, 0
2, 172492, Note_on_c, 0, 74, 0
2, 172580, Note_on_c, 0, 75, 63
2, 172662, Note_on_c, 0, 75, 0
2, 172740, Note_on_c, 0, 76, 63
2, 172772, Note_on_c, 0, 64, 22
2, 172774, Note_on_c, 0, 55, 35
2, 172784, Note_on_c, 0, 60, 36
2, 172786, Note_on_c, 0, 59, 29
2, 172834, Note_on_c, 0, 76, 0
2, 172888, Note_on_c, 0, 77, 57
2, 173000, Note_on_c, 0, 77, 0
2, 173054, Note_on_c, 0, 76, 62
2, 173211, Note_on_c, 0, 76, 0
2, 173217, Note_on_c, 0, 72, 57
2, 173285, Note_on_c, 0, 64, 0
2, 173400, Note_on_c, 0, 72, 0
2, 173445, Note_on_c, 0, 60, 0
2, 173586, Note_on_c, 0, 67, 18
2, 173655, Note_on_c, 0, 67, 0
2, 173667, Note_on_c, 0, 60, 24
2, 173714, Note_on_c, 0, 60, 0
2, 173731, Note_on_c, 0, 65, 28
2, 173747, Note_on_c, 0, 64, 24
2, 173773, Note_on_c, 0, 59, 0
2, 173793, Note_on_c, 0, 64, 0
2, 174051, Note_on_c, 0, 65, 0
2, 174080, Note_on_c, 0, 60, 36
2, 174329, Note_on_c, 0, 55, 0
2, 174442, Note_on_c, 0, 60, 0
2, 174459, Note_on_c, 0, 64, 60
2, 174541, Note_on_c, 0, 64, 0
2, 174601, Note_on_c, 0, 68, 59
2, 174707, Note_on_c, 0, 68, 0
2, 174757, Note_on_c, 0, 64, 48
2, 174759, Note_on_c, 0, 71, 65
2, 174765, Note_on_c, 0, 54, 40
2, 174969, Note_on_c, 0, 64, 0
2, 174993, Note_on_c, 0, 71, 0
2, 175015, Note_on_c, 0, 54, 0
2, 175046, Note_on_c, 0, 60, 27
2, 175061, Note_on_c, 0, 68, 31
2, 175118, Note_on_c, 0, 60, 0
2, 175127, Note_on_c, 0, 68, 0
2, 175202, Note_on_c, 0, 54, 37
2, 175209, Note_on_c, 0, 64, 34
2, 175211, Note_on_c, 0, 71, 35
2, 175376, Note_on_c, 0, 54, 0
2, 175377, Note_on_c, 0, 64, 0
2, 175485, Note_on_c, 0, 71, 0
2, 175522, Note_on_c, 0, 64, 38
2, 175527, Note_on_c, 0, 60, 36
2, 175538, Note_on_c, 0, 68, 28
2, 175551, Note_on_c, 0, 54, 39
2, 176175, Note_on_c, 0, 64, 0
2, 176244, Note_on_c, 0, 68, 0
2, 176536, Note_on_c, 0, 54, 0
2, 176615, Note_on_c, 0, 57, 33
2, 176624, Note_on_c, 0, 53, 24
2, 176632, Note_on_c, 0, 64, 42
2, 176638, Note_on_c, 0, 74, 71
2, 176711, Note_on_c, 0, 76, 57
2, 176712, Note_on_c, 0, 74, 0
2, 176799, Note_on_c, 0, 74, 37
2, 176831, Note_on_c, 0, 76, 0
2, 176959, Note_on_c, 0, 73, 32
2, 176961, Note_on_c, 0, 74, 0
2, 177056, Note_on_c, 0, 73, 0
2, 177133, Note_on_c, 0, 74, 58
2, 177387, Note_on_c, 0, 74, 0
2, 177429, Note_on_c, 0, 75, 52
2, 177564, Note_on_c, 0, 75, 0
2, 177605, Note_on_c, 0, 76, 36
2, 177821, Note_on_c, 0, 76, 0
2, 177879, Note_on_c, 0, 77, 60
2, 177973, Note_on_c, 0, 77, 0
2, 178057, Note_on_c, 0, 81, 94
2, 178110, Note_on_c, 0, 64, 0
2, 178120, Note_on_c, 0, 60, 0
2, 178133, Note_on_c, 0, 57, 0
2, 178134, Note_on_c, 0, 53, 0
2, 178243, Note_on_c, 0, 81, 0
2, 178340, Note_on_c, 0, 84, 94
2, 178440, Note_on_c, 0, 84, 0
2, 178531, Note_on_c, 0, 83, 62
2, 178544, Note_on_c, 0, 71, 44
2, 178559, Note_on_c, 0, 53, 20
2, 178562, Note_on_c, 0, 64, 11
2, 178573, Note_on_c, 0, 59, 20
2, 178729, Note_on_c, 0, 83, 0
2, 178741, Note_on_c, 0, 53, 0
2, 178742, Note_on_c, 0, 59, 0
2, 178765, Note_on_c, 0, 71, 0
2, 178767, Note_on_c, 0, 64, 0
2, 178971, Note_on_c, 0, 64, 32
2, 178976, Note_on_c, 0, 82, 51
2, 178983, Note_on_c, 0, 70, 43
2, 178995, Note_on_c, 0, 59, 28
2, 178998, Note_on_c, 0, 53, 20
2, 179258, Note_on_c, 0, 64, 0
2, 179268, Note_on_c, 0, 59, 0
2, 179320, Note_on_c, 0, 53, 0
2, 179563, Note_on_c, 0, 82, 0
2, 179627, Note_on_c, 0, 70, 0
2, 179734, Note_on_c, 0, 80, 48
2, 179751, Note_on_c, 0, 68, 34
2, 179767, Note_on_c, 0, 64, 22
2, 179768, Note_on_c, 0, 59, 31
2, 179769, Note_on_c, 0, 53, 22
2, 179946, Control_c, 0, 64, 127
2, 180119, Note_on_c, 0, 64, 0
2, 180140, Note_on_c, 0, 59, 0
2, 180148, Note_on_c, 0, 53, 0
2, 180200, Note_on_c, 0, 68, 0
2, 180207, Note_on_c, 0, 80, 0
2, 180386, Control_c, 0, 64, 0
2, 180404, Note_on_c, 0, 67, 40
2, 180421, Note_on_c, 0, 79, 32
2, 180427, Note_on_c, 0, 52, 29
2, 180429, Note_on_c, 0, 55, 28
2, 180442, Note_on_c, 0, 59, 18
2, 180460, Note_on_c, 0, 62, 11
2, 180924, Control_c, 0, 64, 127
2, 181071, Note_on_c, 0, 55, 0
2, 181085, Note_on_c, 0, 62, 0
2, 181119, Note_on_c, 0, 59, 0
2, 181229, Note_on_c, 0, 67, 0
2, 181422, Note_on_c, 0, 67, 37
2, 181434, Note_on_c, 0, 55, 24
2, 181448, Note_on_c, 0, 62, 17
2, 181472, Note_on_c, 0, 59, 15
2, 181701, Note_on_c, 0, 79, 0
2, 181888, Note_on_c, 0, 55, 0
2, 181945, Note_on_c, 0, 59, 0
2, 181954, Note_on_c, 0, 62, 0
2, 181955, Note_on_c, 0, 52, 0
2, 181993, Note_on_c, 0, 67, 0
2, 182382, Note_on_c, 0, 71, 68
2, 182384, Note_on_c, 0, 68, 63
2, 182389, Note_on_c, 0, 64, 68
2, 182397, Control_c, 0, 64, 0
2, 182399, Note_on_c, 0, 60, 51
2, 182415, Note_on_c, 0, 57, 30
2, 182420, Note_on_c, 0, 59, 37
2, 182831, Note_on_c, 0, 71, 0
2, 182900, Control_c, 0, 64, 127
2, 182901, Note_on_c, 0, 71, 61
2, 182907, Note_on_c, 0, 59, 0
2, 182928, Note_on_c, 0, 57, 0
2, 182939, Note_on_c, 0, 60, 0
2, 183126, Note_on_c, 0, 64, 0
2, 183198, Note_on_c, 0, 71, 0
2, 183261, Note_on_c, 0, 68, 0
2, 183349, Control_c, 0, 64, 0
2, 183373, Note_on_c, 0, 71, 37
2, 183378, Note_on_c, 0, 67, 36
2, 183381, Note_on_c, 0, 62, 34
2, 183385, Note_on_c, 0, 57, 27
2, 183388, Note_on_c, 0, 51, 28
2, 183774, Control_c, 0, 64, 127
2, 183852, Note_on_c, 0, 57, 0
2, 183901, Note_on_c, 0, 51, 0
2, 184034, Note_on_c, 0, 71, 0
2, 184075, Note_on_c, 0, 62, 0
2, 184083, Note_on_c, 0, 67, 0
2, 184131, Note_on_c, 0, 69, 47
2, 184239, Control_c, 0, 64, 0
2, 184286, Note_on_c, 0, 69, 0
2, 184305, Note_on_c, 0, 68, 36
2, 184320, Note_on_c, 0, 56, 20
2, 184326, Note_on_c, 0, 52, 24
2, 184328, Note_on_c, 0, 63, 14
2, 184350, Note_on_c, 0, 59, 22
2, 184666, Note_on_c, 0, 63, 0
2, 184982, Note_on_c, 0, 59, 0
2, 185233, Note_on_c, 0, 59, 60
2, 185300, Note_on_c, 0, 68, 0
2, 185496, Note_on_c, 0, 59, 0
2, 185549, Note_on_c, 0, 61, 79
2, 185693, Note_on_c, 0, 61, 0
2, 185786, Note_on_c, 0, 63, 47
2, 185976, Note_on_c, 0, 52, 0
2, 186009, Note_on_c, 0, 63, 0
2, 186023, Note_on_c, 0, 56, 0
2, 186036, Note_on_c, 0, 64, 74
2, 186179, Note_on_c, 0, 64, 0
2, 186243, Note_on_c, 0, 66, 57
2, 186267, Note_on_c, 0, 49, 23
2, 186424, Note_on_c, 0, 49, 0
2, 186468, Note_on_c, 0, 66, 0
2, 186522, Note_on_c, 0, 68, 51
2, 186619, Note_on_c, 0, 68, 0
2, 186712, Note_on_c, 0, 64, 55
2, 187129, Note_on_c, 0, 64, 0
2, 187170, Note_on_c, 0, 66, 51
2, 187173, Note_on_c, 0, 49, 30
2, 187196, Note_on_c, 0, 59, 20
2, 187506, Note_on_c, 0, 61, 44
2, 187512, Note_on_c, 0, 66, 0
2, 187548, Note_on_c, 0, 59, 0
2, 187656, Note_on_c, 0, 49, 0
2, 187674, Note_on_c, 0, 64, 50
2, 187767, Note_on_c, 0, 61, 0
2, 187970, Note_on_c, 0, 64, 0
2, 188090, Note_on_c, 0, 42, 32
2, 188108, Note_on_c, 0, 52, 24
2, 188231, Note_on_c, 0, 60, 57
2, 188476, Note_on_c, 0, 60, 0
2, 188626, Note_on_c, 0, 60, 58
2, 188948, Note_on_c, 0, 52, 0
2, 189089, Note_on_c, 0, 52, 33
2, 189237, Note_on_c, 0, 60, 0
2, 189257, Note_on_c, 0, 57, 60
2, 189326, Note_on_c, 0, 57, 0
2, 189396, Note_on_c, 0, 60, 64
2, 189455, Note_on_c, 0, 42, 0
2, 189506, Note_on_c, 0, 52, 0
2, 189521, Note_on_c, 0, 60, 0
2, 189554, Note_on_c, 0, 63, 56
2, 189631, Note_on_c, 0, 63, 0
2, 189711, Note_on_c, 0, 67, 47
2, 189813, Note_on_c, 0, 67, 0
2, 189860, Note_on_c, 0, 71, 76
2, 189987, Note_on_c, 0, 71, 0
2, 190019, Note_on_c, 0, 74, 79
2, 190026, Note_on_c, 0, 62, 57
2, 190028, Note_on_c, 0, 51, 57
2, 190035, Note_on_c, 0, 67, 66
2, 190037, Note_on_c, 0, 69, 71
2, 190038, Note_on_c, 0, 57, 54
2, 190076, Note_on_c, 0, 69, 0
2, 190181, Note_on_c, 0, 74, 0
2, 190210, Note_on_c, 0, 71, 50
2, 190226, Note_on_c, 0, 62, 0
2, 190261, Note_on_c, 0, 67, 0
2, 190276, Note_on_c, 0, 57, 0
2, 190293, Note_on_c, 0, 51, 0
2, 190308, Note_on_c, 0, 71, 0
2, 190340, Note_on_c, 0, 67, 68
2, 190341, Note_on_c, 0, 74, 73
2, 190363, Note_on_c, 0, 62, 50
2, 190371, Note_on_c, 0, 51, 44
2, 190374, Note_on_c, 0, 57, 44
2, 190768, Note_on_c, 0, 62, 0
2, 190849, Note_on_c, 0, 57, 0
2, 190897, Note_on_c, 0, 67, 0
2, 190900, Note_on_c, 0, 74, 0
2, 190911, Note_on_c, 0, 51, 0
2, 190989, Note_on_c, 0, 67, 31
2, 190994, Note_on_c, 0, 62, 40
2, 190996, Note_on_c, 0, 71, 37
2, 191002, Note_on_c, 0, 51, 27
2, 191014, Note_on_c, 0, 57, 38
2, 191561, Control_c, 0, 64, 127
2, 191631, Note_on_c, 0, 57, 0
2, 191647, Note_on_c, 0, 51, 0
2, 191683, Note_on_c, 0, 67, 0
2, 191725, Note_on_c, 0, 62, 0
2, 191808, Note_on_c, 0, 67, 48
2, 191809, Note_on_c, 0, 71, 0
2, 191919, Note_on_c, 0, 67, 0
2, 191949, Control_c, 0, 64, 0
2, 191991, Note_on_c, 0, 63, 33
2, 191993, Note_on_c, 0, 68, 40
2, 192047, Note_on_c, 0, 58, 23
2, 192075, Note_on_c, 0, 59, 20
2, 192240, Note_on_c, 0, 59, 0
2, 192264, Note_on_c, 0, 58, 0
2, 192281, Note_on_c, 0, 63, 0
2, 192471, Note_on_c, 0, 63, 25
2, 192487, Note_on_c, 0, 54, 25
2, 192499, Note_on_c, 0, 58, 36
2, 192507, Note_on_c, 0, 59, 37
2, 192835, Note_on_c, 0, 68, 0
2, 193258, Note_on_c, 0, 68, 74
2, 193417, Note_on_c, 0, 68, 0
2, 193444, Note_on_c, 0, 69, 45
2, 193456, Note_on_c, 0, 59, 0
2, 193535, Note_on_c, 0, 69, 0
2, 193565, Note_on_c, 0, 54, 0
2, 193581, Note_on_c, 0, 70, 69
2, 193587, Note_on_c, 0, 63, 0
2, 193703, Note_on_c, 0, 70, 0
2, 193742, Note_on_c, 0, 72, 78
2, 193780, Note_on_c, 0, 61, 45
2, 193794, Note_on_c, 0, 64, 45
2, 193799, Note_on_c, 0, 55, 48
2, 194119, Note_on_c, 0, 73, 51
2, 194156, Note_on_c, 0, 72, 0
2, 194251, Note_on_c, 0, 73, 0
2, 194272, Note_on_c, 0, 75, 59
2, 194384, Note_on_c, 0, 75, 0
2, 194411, Note_on_c, 0, 76, 53
2, 194451, Note_on_c, 0, 64, 0
2, 194477, Note_on_c, 0, 61, 0
2, 194489, Note_on_c, 0, 58, 0
2, 194529, Note_on_c, 0, 76, 0
2, 194573, Note_on_c, 0, 78, 55
2, 194668, Note_on_c, 0, 78, 0
2, 194714, Note_on_c, 0, 55, 0
2, 195172, Note_on_c, 0, 61, 55
2, 195180, Note_on_c, 0, 64, 55
2, 195182, Note_on_c, 0, 58, 46
2, 195218, Note_on_c, 0, 64, 0
2, 195283, Note_on_c, 0, 61, 0
2, 195315, Note_on_c, 0, 58, 0
2, 195358, Note_on_c, 0, 79, 33
2, 195411, Note_on_c, 0, 79, 0
2, 195497, Note_on_c, 0, 81, 64
2, 195583, Note_on_c, 0, 81, 0
2, 195649, Note_on_c, 0, 82, 75
2, 195756, Note_on_c, 0, 82, 0
2, 195817, Note_on_c, 0, 64, 49
2, 195819, Note_on_c, 0, 84, 69
2, 195834, Note_on_c, 0, 57, 36
2, 195836, Note_on_c, 0, 54, 31
2, 195844, Note_on_c, 0, 60, 37
2, 196029, Note_on_c, 0, 60, 0
2, 196041, Note_on_c, 0, 64, 0
2, 196067, Note_on_c, 0, 57, 0
2, 196071, Note_on_c, 0, 54, 0
2, 196077, Note_on_c, 0, 84, 0
2, 196124, Note_on_c, 0, 85, 60
2, 196127, Note_on_c, 0, 73, 52
2, 196137, Note_on_c, 0, 64, 44
2, 196148, Note_on_c, 0, 54, 34
2, 196149, Note_on_c, 0, 60, 45
2, 196156, Note_on_c, 0, 57, 40
2, 196215, Note_on_c, 0, 73, 0
2, 196216, Note_on_c, 0, 60, 0
2, 196230, Note_on_c, 0, 64, 0
2, 196240, Note_on_c, 0, 85, 0
2, 196261, Note_on_c, 0, 54, 0
2, 196272, Note_on_c, 0, 57, 0
2, 196830, Note_on_c, 0, 61, 61
2, 196833, Note_on_c, 0, 54, 53
2, 196838, Note_on_c, 0, 75, 77
2, 196839, Note_on_c, 0, 57, 55
2, 196840, Note_on_c, 0, 64, 70
2, 196841, Note_on_c, 0, 87, 81
2, 196889, Control_c, 0, 64, 127
2, 197047, Note_on_c, 0, 64, 0
2, 197059, Note_on_c, 0, 54, 0
2, 197065, Note_on_c, 0, 57, 0
2, 197073, Note_on_c, 0, 61, 0
2, 197083, Note_on_c, 0, 87, 0
2, 197090, Note_on_c, 0, 75, 0
2, 197130, Note_on_c, 0, 88, 71
2, 197131, Note_on_c, 0, 54, 47
2, 197133, Note_on_c, 0, 61, 62
2, 197133, Note_on_c, 0, 64, 62
2, 197135, Note_on_c, 0, 76, 66
2, 197136, Note_on_c, 0, 57, 55
2, 197154, Note_on_c, 0, 77, 57
2, 197184, Note_on_c, 0, 77, 0
2, 197225, Note_on_c, 0, 76, 0
2, 197231, Note_on_c, 0, 88, 0
2, 197232, Note_on_c, 0, 64, 0
2, 197243, Note_on_c, 0, 54, 0
2, 197268, Note_on_c, 0, 57, 0
2, 197271, Control_c, 0, 64, 0
2, 197273, Note_on_c, 0, 61, 0
2, 197327, Note_on_c, 0, 75, 67
2, 197334, Note_on_c, 0, 64, 55
2, 197337, Note_on_c, 0, 61, 46
2, 197338, Note_on_c, 0, 54, 42
2, 197338, Note_on_c, 0, 87, 62
2, 197340, Note_on_c, 0, 57, 42
2, 197343, Control_c, 0, 64, 127
2, 197431, Note_on_c, 0, 57, 0
2, 197488, Note_on_c, 0, 54, 0
2, 197489, Note_on_c, 0, 61, 0
2, 197529, Note_on_c, 0, 64, 0
2, 197562, Note_on_c, 0, 75, 0
2, 197590, Note_on_c, 0, 87, 0
2, 197704, Control_c, 0, 64, 0
2, 197778, Note_on_c, 0, 57, 51
2, 197783, Note_on_c, 0, 63, 49
2, 197786, Note_on_c, 0, 67, 45
2, 197788, Note_on_c, 0, 86, 62
2, 197793, Note_on_c, 0, 74, 58
2, 197888, Control_c, 0, 64, 127
2, 197946, Note_on_c, 0, 86, 0
2, 197964, Note_on_c, 0, 74, 0
2, 197978, Note_on_c, 0, 57, 0
2, 198011, Note_on_c, 0, 67, 0
2, 198031, Note_on_c, 0, 63, 0
2, 198103, Note_on_c, 0, 75, 58
2, 198106, Note_on_c, 0, 67, 40
2, 198107, Note_on_c, 0, 87, 68
2, 198108, Note_on_c, 0, 57, 51
2, 198111, Note_on_c, 0, 63, 46
2, 198196, Note_on_c, 0, 67, 0
2, 198199, Note_on_c, 0, 57, 0
2, 198225, Control_c, 0, 64, 0
2, 198230, Note_on_c, 0, 63, 0
2, 198234, Note_on_c, 0, 75, 0
2, 198239, Note_on_c, 0, 87, 0
2, 198292, Note_on_c, 0, 67, 37
2, 198297, Note_on_c, 0, 57, 36
2, 198301, Note_on_c, 0, 63, 42
2, 198313, Note_on_c, 0, 74, 48
2, 198313, Note_on_c, 0, 86, 51
2, 198374, Control_c, 0, 64, 127
2, 198426, Note_on_c, 0, 86, 0
2, 198449, Note_on_c, 0, 57, 0
2, 198458, Note_on_c, 0, 74, 0
2, 198486, Note_on_c, 0, 67, 0
2, 198516, Note_on_c, 0, 63, 0
2, 198604, Control_c, 0, 64, 0
2, 198611, Note_on_c, 0, 84, 64
2, 198622, Note_on_c, 0, 62, 55
2, 198628, Note_on_c, 0, 63, 36
2, 198628, Note_on_c, 0, 67, 49
2, 198629, Note_on_c, 0, 72, 46
2, 198648, Note_on_c, 0, 57, 37
2, 198788, Control_c, 0, 64, 127
2, 198798, Note_on_c, 0, 72, 0
2, 198819, Note_on_c, 0, 84, 0
2, 198819, Note_on_c, 0, 57, 0
2, 198824, Note_on_c, 0, 67, 0
2, 198838, Note_on_c, 0, 62, 0
2, 198844, Note_on_c, 0, 63, 0
2, 198911, Note_on_c, 0, 83, 64
2, 198933, Note_on_c, 0, 67, 32
2, 198934, Note_on_c, 0, 63, 36
2, 198935, Note_on_c, 0, 62, 48
2, 198942, Note_on_c, 0, 57, 41
2, 199117, Note_on_c, 0, 57, 0
2, 199131, Note_on_c, 0, 67, 0
2, 199147, Note_on_c, 0, 62, 0
2, 199158, Note_on_c, 0, 63, 0
2, 199168, Control_c, 0, 64, 0
2, 199198, Note_on_c, 0, 83, 0
2, 199246, Note_on_c, 0, 63, 47
2, 199255, Note_on_c, 0, 67, 49
2, 199257, Note_on_c, 0, 86, 76
2, 199268, Note_on_c, 0, 62, 37
2, 199272, Note_on_c, 0, 57, 32
2, 199291, Control_c, 0, 64, 127
2, 199307, Note_on_c, 0, 62, 0
2, 199315, Note_on_c, 0, 67, 0
2, 199347, Note_on_c, 0, 63, 0
2, 199358, Note_on_c, 0, 57, 0
2, 199497, Note_on_c, 0, 86, 0
2, 199581, Control_c, 0, 64, 0
2, 199583, Note_on_c, 0, 85, 69
2, 199592, Note_on_c, 0, 59, 47
2, 199596, Note_on_c, 0, 63, 40
2, 199599, Note_on_c, 0, 56, 49
2, 199619, Note_on_c, 0, 52, 24
2, 199787, Note_on_c, 0, 85, 0
2, 199858, Note_on_c, 0, 83, 57
2, 200009, Note_on_c, 0, 59, 0
2, 200133, Note_on_c, 0, 83, 0
2, 200154, Note_on_c, 0, 59, 18
2, 200181, Note_on_c, 0, 80, 49
2, 200294, Note_on_c, 0, 59, 0
2, 200382, Note_on_c, 0, 63, 0
2, 200470, Note_on_c, 0, 76, 45
2, 200509, Note_on_c, 0, 63, 18
2, 200535, Note_on_c, 0, 59, 22
2, 200537, Note_on_c, 0, 80, 0
2, 200749, Note_on_c, 0, 59, 0
2, 201006, Note_on_c, 0, 63, 0
2, 201053, Note_on_c, 0, 76, 0
2, 201064, Note_on_c, 0, 52, 0
2, 201106, Note_on_c, 0, 75, 60
2, 201144, Note_on_c, 0, 56, 0
2, 201349, Note_on_c, 0, 75, 0
2, 201403, Note_on_c, 0, 76, 63
2, 201492, Note_on_c, 0, 49, 35
2, 201529, Note_on_c, 0, 76, 0
2, 201550, Note_on_c, 0, 59, 13
2, 201609, Note_on_c, 0, 73, 44
2, 201861, Note_on_c, 0, 56, 25
2, 202002, Note_on_c, 0, 56, 0
2, 202046, Note_on_c, 0, 73, 0
2, 202060, Note_on_c, 0, 64, 40
2, 202325, Note_on_c, 0, 56, 23
2, 202331, Note_on_c, 0, 64, 0
2, 202397, Note_on_c, 0, 64, 46
2, 202464, Note_on_c, 0, 56, 0
2, 202675, Note_on_c, 0, 49, 0
2, 202704, Note_on_c, 0, 59, 0
2, 202878, Note_on_c, 0, 49, 35
2, 202890, Note_on_c, 0, 59, 31
2, 202920, Note_on_c, 0, 49, 0
2, 202948, Note_on_c, 0, 59, 0
2, 203046, Note_on_c, 0, 66, 40
2, 203256, Note_on_c, 0, 64, 0
2, 203336, Note_on_c, 0, 66, 0
2, 203355, Note_on_c, 0, 69, 62
2, 203459, Note_on_c, 0, 54, 30
2, 203474, Note_on_c, 0, 69, 0
2, 203476, Note_on_c, 0, 57, 33
2, 203478, Note_on_c, 0, 64, 13
2, 203480, Note_on_c, 0, 60, 39
2, 203544, Note_on_c, 0, 72, 80
2, 203745, Note_on_c, 0, 60, 0
2, 203774, Note_on_c, 0, 72, 0
2, 203852, Note_on_c, 0, 64, 0
2, 203865, Note_on_c, 0, 60, 30
2, 203951, Note_on_c, 0, 54, 0
2, 203997, Note_on_c, 0, 64, 49
2, 204003, Note_on_c, 0, 54, 15
2, 204005, Note_on_c, 0, 72, 84
2, 204217, Note_on_c, 0, 60, 0
2, 204222, Note_on_c, 0, 64, 0
2, 204290, Note_on_c, 0, 72, 0
2, 204320, Note_on_c, 0, 69, 46
2, 204437, Note_on_c, 0, 69, 0
2, 204477, Control_c, 0, 64, 127
2, 204479, Note_on_c, 0, 64, 41
2, 204520, Note_on_c, 0, 57, 0
2, 204604, Note_on_c, 0, 54, 0
2, 204606, Note_on_c, 0, 64, 0
2, 204779, Note_on_c, 0, 54, 44
2, 204795, Note_on_c, 0, 60, 38
2, 204839, Control_c, 0, 64, 0
2, 204841, Note_on_c, 0, 60, 0
2, 204846, Note_on_c, 0, 54, 0
2, 204922, Note_on_c, 0, 79, 75
2, 204923, Note_on_c, 0, 86, 83
2, 205039, Note_on_c, 0, 86, 0
2, 205095, Note_on_c, 0, 83, 50
2, 205102, Note_on_c, 0, 79, 0
2, 205181, Note_on_c, 0, 83, 0
2, 205237, Note_on_c, 0, 79, 74
2, 205240, Note_on_c, 0, 86, 83
2, 205243, Note_on_c, 0, 63, 46
2, 205245, Note_on_c, 0, 67, 54
2, 205249, Note_on_c, 0, 62, 43
2, 205250, Note_on_c, 0, 57, 50
2, 205368, Control_c, 0, 64, 127
2, 205692, Note_on_c, 0, 57, 0
2, 205703, Note_on_c, 0, 62, 0
2, 205707, Note_on_c, 0, 67, 0
2, 205738, Note_on_c, 0, 63, 0
2, 205754, Note_on_c, 0, 79, 0
2, 205791, Note_on_c, 0, 86, 0
2, 205819, Control_c, 0, 64, 0
2, 205849, Note_on_c, 0, 83, 47
2, 205852, Note_on_c, 0, 63, 26
2, 205860, Note_on_c, 0, 67, 25
2, 205868, Note_on_c, 0, 74, 30
2, 205873, Note_on_c, 0, 62, 33
2, 205915, Control_c, 0, 64, 127
2, 206038, Note_on_c, 0, 67, 0
2, 206059, Note_on_c, 0, 62, 0
2, 206073, Note_on_c, 0, 74, 0
2, 206090, Note_on_c, 0, 63, 0
2, 206169, Note_on_c, 0, 79, 43
2, 206174, Note_on_c, 0, 74, 34
2, 206180, Control_c, 0, 64, 0
2, 206183, Note_on_c, 0, 63, 23
2, 206193, Note_on_c, 0, 67, 30
2, 206200, Note_on_c, 0, 62, 27
2, 206320, Control_c, 0, 64, 127
2, 206453, Note_on_c, 0, 67, 0
2, 206475, Note_on_c, 0, 62, 0
2, 206490, Note_on_c, 0, 63, 0
2, 206642, Note_on_c, 0, 74, 0
2, 206688, Note_on_c, 0, 63, 30
2, 206692, Note_on_c, 0, 67, 28
2, 206860, Note_on_c, 0, 83, 0
2, 206865, Note_on_c, 0, 74, 48
2, 206867, Note_on_c, 0, 67, 0
2, 206908, Note_on_c, 0, 79, 0
2, 206935, Note_on_c, 0, 63, 0
2, 206947, Note_on_c, 0, 74, 0
2, 207273, Control_c, 0, 64, 0
2, 207312, Note_on_c, 0, 76, 63
2, 207315, Note_on_c, 0, 72, 64
2, 207317, Note_on_c, 0, 67, 64
2, 207319, Note_on_c, 0, 56, 62
2, 207332, Note_on_c, 0, 62, 58
2, 207383, Note_on_c, 0, 72, 0
2, 207384, Note_on_c, 0, 67, 0
2, 207399, Note_on_c, 0, 62, 0
2, 207412, Note_on_c, 0, 76, 0
2, 207422, Note_on_c, 0, 56, 0
2, 207626, Note_on_c, 0, 76, 66
2, 207628, Note_on_c, 0, 72, 73
2, 207633, Note_on_c, 0, 67, 68
2, 207649, Note_on_c, 0, 62, 66
2, 207649, Note_on_c, 0, 56, 57
2, 207694, Note_on_c, 0, 67, 0
2, 207697, Note_on_c, 0, 72, 0
2, 207715, Note_on_c, 0, 62, 0
2, 207718, Note_on_c, 0, 76, 0
2, 207723, Note_on_c, 0, 56, 0
2, 207821, Note_on_c, 0, 72, 74
2, 207823, Note_on_c, 0, 76, 56
2, 207826, Note_on_c, 0, 56, 58
2, 207827, Note_on_c, 0, 67, 65
2, 207829, Note_on_c, 0, 62, 66
2, 207864, Note_on_c, 0, 67, 0
2, 207885, Note_on_c, 0, 72, 0
2, 207896, Note_on_c, 0, 62, 0
2, 207900, Note_on_c, 0, 76, 0
2, 207905, Note_on_c, 0, 56, 0
2, 208080, Note_on_c, 0, 62, 71
2, 208085, Note_on_c, 0, 76, 70
2, 208086, Note_on_c, 0, 72, 78
2, 208094, Note_on_c, 0, 67, 70
2, 208095, Note_on_c, 0, 56, 59
2, 208135, Note_on_c, 0, 67, 0
2, 208154, Note_on_c, 0, 72, 0
2, 208172, Note_on_c, 0, 62, 0
2, 208175, Note_on_c, 0, 56, 0
2, 208190, Note_on_c, 0, 76, 0
2, 208270, Note_on_c, 0, 76, 44
2, 208278, Note_on_c, 0, 72, 72
2, 208279, Note_on_c, 0, 62, 54
2, 208279, Note_on_c, 0, 56, 67
2, 208301, Note_on_c, 0, 67, 58
2, 208331, Note_on_c, 0, 67, 0
2, 208342, Control_c, 0, 64, 127
2, 208353, Note_on_c, 0, 62, 0
2, 208376, Note_on_c, 0, 72, 0
2, 208406, Note_on_c, 0, 56, 0
2, 208411, Note_on_c, 0, 76, 0
2, 208483, Control_c, 0, 64, 0
2, 208570, Note_on_c, 0, 73, 57
2, 208578, Note_on_c, 0, 68, 67
2, 208579, Note_on_c, 0, 63, 59
2, 208580, Note_on_c, 0, 77, 57
2, 208587, Note_on_c, 0, 55, 41
2, 208676, Note_on_c, 0, 63, 0
2, 208684, Note_on_c, 0, 73, 0
2, 208687, Note_on_c, 0, 55, 0
2, 208688, Note_on_c, 0, 77, 0
2, 208703, Note_on_c, 0, 68, 0
2, 208775, Note_on_c, 0, 76, 55
2, 208778, Note_on_c, 0, 55, 58
2, 208791, Note_on_c, 0, 67, 57
2, 208793, Note_on_c, 0, 72, 53
2, 208808, Note_on_c, 0, 62, 47
2, 208886, Note_on_c, 0, 62, 0
2, 208924, Control_c, 0, 64, 127
2, 208944, Note_on_c, 0, 55, 0
2, 208988, Note_on_c, 0, 76, 0
2, 208990, Note_on_c, 0, 72, 0
2, 209032, Note_on_c, 0, 67, 0
2, 209233, Control_c, 0, 64, 0
2, 209269, Note_on_c, 0, 76, 48
2, 209276, Note_on_c, 0, 64, 45
2, 209279, Note_on_c, 0, 69, 42
2, 209282, Note_on_c, 0, 72, 43
2, 209282, Note_on_c, 0, 54, 46
2, 209298, Note_on_c, 0, 60, 31
2, 209763, Control_c, 0, 64, 127
2, 209818, Note_on_c, 0, 72, 0
2, 209873, Note_on_c, 0, 69, 0
2, 209877, Note_on_c, 0, 64, 0
2, 209888, Note_on_c, 0, 76, 0
2, 209998, Note_on_c, 0, 60, 0
2, 210102, Note_on_c, 0, 54, 0
2, 210247, Control_c, 0, 64, 0
2, 210248, Note_on_c, 0, 77, 50
2, 210257, Note_on_c, 0, 69, 48
2, 210265, Note_on_c, 0, 72, 35
2, 210268, Note_on_c, 0, 65, 37
2, 210272, Note_on_c, 0, 54, 37
2, 210277, Note_on_c, 0, 60, 34
2, 210477, Control_c, 0, 64, 127
2, 210712, Note_on_c, 0, 60, 0
2, 210722, Note_on_c, 0, 77, 0
2, 210785, Note_on_c, 0, 54, 0
2, 210814, Note_on_c, 0, 65, 0
2, 210824, Note_on_c, 0, 72, 0
2, 210844, Note_on_c, 0, 69, 0
2, 211183, Note_on_c, 0, 67, 70
2, 211194, Note_on_c, 0, 64, 66
2, 211195, Note_on_c, 0, 55, 32
2, 211199, Control_c, 0, 64, 0
2, 211205, Note_on_c, 0, 60, 63
2, 211210, Note_on_c, 0, 57, 45
2, 211227, Note_on_c, 0, 53, 35
2, 211407, Note_on_c, 0, 64, 0
2, 211498, Note_on_c, 0, 60, 0
2, 211513, Note_on_c, 0, 64, 62
2, 211535, Control_c, 0, 64, 127
2, 211649, Note_on_c, 0, 64, 0
2, 211705, Note_on_c, 0, 60, 36
2, 211804, Note_on_c, 0, 55, 0
2, 211826, Note_on_c, 0, 57, 0
2, 211835, Note_on_c, 0, 53, 0
2, 211855, Note_on_c, 0, 60, 0
2, 211932, Note_on_c, 0, 67, 0
2, 211976, Note_on_c, 0, 60, 62
2, 212077, Note_on_c, 0, 60, 0
2, 212158, Note_on_c, 0, 61, 64
2, 212159, Note_on_c, 0, 58, 57
2, 212162, Control_c, 0, 64, 0
2, 212167, Note_on_c, 0, 68, 67
2, 212168, Note_on_c, 0, 65, 71
2, 212169, Note_on_c, 0, 54, 53
2, 212175, Note_on_c, 0, 56, 62
2, 212445, Control_c, 0, 64, 127
2, 212503, Note_on_c, 0, 65, 0
2, 212574, Note_on_c, 0, 61, 0
2, 212690, Note_on_c, 0, 61, 50
2, 212692, Note_on_c, 0, 68, 0
2, 212699, Note_on_c, 0, 65, 48
2, 212826, Note_on_c, 0, 56, 0
2, 212832, Note_on_c, 0, 65, 0
2, 212838, Note_on_c, 0, 61, 0
2, 212849, Note_on_c, 0, 54, 0
2, 212869, Note_on_c, 0, 58, 0
2, 212924, Note_on_c, 0, 58, 34
2, 212940, Note_on_c, 0, 54, 25
2, 212958, Note_on_c, 0, 56, 37
2, 213063, Note_on_c, 0, 58, 0
2, 213081, Note_on_c, 0, 56, 0
2, 213083, Note_on_c, 0, 54, 0
2, 213115, Control_c, 0, 64, 0
2, 213123, Note_on_c, 0, 66, 74
2, 213127, Note_on_c, 0, 69, 71
2, 213127, Note_on_c, 0, 62, 72
2, 213128, Note_on_c, 0, 59, 63
2, 213147, Note_on_c, 0, 57, 55
2, 213166, Note_on_c, 0, 55, 36
2, 213414, Control_c, 0, 64, 127
2, 213653, Note_on_c, 0, 57, 0
2, 213668, Note_on_c, 0, 55, 0
2, 213705, Note_on_c, 0, 59, 0
2, 213736, Note_on_c, 0, 69, 0
2, 213755, Note_on_c, 0, 62, 0
2, 213830, Note_on_c, 0, 66, 0
2, 214049, Control_c, 0, 64, 0
2, 214078, Note_on_c, 0, 61, 67
2, 214078, Note_on_c, 0, 70, 64
2, 214085, Note_on_c, 0, 58, 47
2, 214087, Note_on_c, 0, 65, 61
2, 214094, Note_on_c, 0, 56, 42
2, 214106, Note_on_c, 0, 60, 49
2, 214243, Control_c, 0, 64, 127
2, 214280, Note_on_c, 0, 61, 0
2, 214349, Note_on_c, 0, 65, 0
2, 214455, Note_on_c, 0, 70, 0
2, 214512, Note_on_c, 0, 60, 0
2, 214529, Note_on_c, 0, 58, 0
2, 214530, Note_on_c, 0, 56, 0
2, 215019, Control_c, 0, 64, 0
2, 215033, Note_on_c, 0, 54, 38
2, 215034, Note_on_c, 0, 64, 37
2, 215038, Note_on_c, 0, 95, 40
2, 215046, Note_on_c, 0, 60, 37
2, 215048, Note_on_c, 0, 88, 48
2, 215049, Note_on_c, 0, 83, 27
2, 215052, Note_on_c, 0, 92, 33
2, 215153, Note_on_c, 0, 88, 0
2, 215156, Note_on_c, 0, 83, 0
2, 215166, Note_on_c, 0, 92, 0
2, 215177, Note_on_c, 0, 95, 0
2, 215183, Note_on_c, 0, 64, 0
2, 215198, Note_on_c, 0, 60, 0
2, 215199, Note_on_c, 0, 54, 0
2, 215524, Note_on_c, 0, 54, 32
2, 215532, Note_on_c, 0, 95, 22
2, 215536, Note_on_c, 0, 88, 32
2, 215549, Note_on_c, 0, 92, 25
2, 215551, Note_on_c, 0, 83, 18
2, 215556, Note_on_c, 0, 60, 30
2, 215560, Note_on_c, 0, 64, 13
2, 215698, Note_on_c, 0, 88, 0
2, 215703, Note_on_c, 0, 60, 0
2, 215707, Note_on_c, 0, 83, 0
2, 215720, Note_on_c, 0, 92, 0
2, 215729, Note_on_c, 0, 54, 0
2, 215735, Note_on_c, 0, 95, 0
2, 215740, Note_on_c, 0, 64, 0
2, 216024, Note_on_c, 0, 64, 26
2, 216029, Note_on_c, 0, 54, 23
2, 216031, Note_on_c, 0, 95, 33
2, 216039, Note_on_c, 0, 88, 27
2, 216046, Note_on_c, 0, 60, 35
2, 216056, Note_on_c, 0, 83, 20
2, 216057, Note_on_c, 0, 92, 28
2, 216097, Control_c, 0, 64, 127
2, 216459, Note_on_c, 0, 88, 0
2, 216462, Note_on_c, 0, 95, 0
2, 216469, Note_on_c, 0, 54, 0
2, 216473, Note_on_c, 0, 92, 0
2, 216481, Note_on_c, 0, 64, 0
2, 216534, Note_on_c, 0, 83, 0
2, 216608, Note_on_c, 0, 60, 0
2, 216746, Note_on_c, 0, 94, 63
2, 216751, Note_on_c, 0, 54, 50
2, 216752, Note_on_c, 0, 87, 59
2, 216759, Note_on_c, 0, 82, 42
2, 216762, Note_on_c, 0, 60, 35
2, 216767, Note_on_c, 0, 64, 34
2, 216772, Note_on_c, 0, 58, 38
2, 216900, Note_on_c, 0, 60, 0
2, 216913, Note_on_c, 0, 94, 0
2, 216923, Note_on_c, 0, 82, 0
2, 216934, Note_on_c, 0, 64, 0
2, 216967, Note_on_c, 0, 58, 0
2, 216969, Note_on_c, 0, 54, 0
2, 216996, Control_c, 0, 64, 0
2, 217028, Note_on_c, 0, 81, 43
2, 217029, Note_on_c, 0, 64, 31
2, 217030, Note_on_c, 0, 87, 0
2, 217035, Note_on_c, 0, 88, 50
2, 217038, Note_on_c, 0, 93, 36
2, 217042, Note_on_c, 0, 53, 41
2, 217054, Note_on_c, 0, 59, 47
2, 217533, Control_c, 0, 64, 127
2, 217731, Note_on_c, 0, 93, 0
2, 217737, Note_on_c, 0, 53, 0
2, 217749, Note_on_c, 0, 88, 0
2, 217750, Note_on_c, 0, 81, 0
2, 217760, Note_on_c, 0, 64, 0
2, 217774, Note_on_c, 0, 59, 0
2, 217977, Note_on_c, 0, 92, 51
2, 217982, Note_on_c, 0, 64, 47
2, 217986, Note_on_c, 0, 80, 33
2, 217994, Note_on_c, 0, 87, 48
2, 217999, Note_on_c, 0, 59, 40
2, 218000, Note_on_c, 0, 53, 32
2, 218009, Control_c, 0, 64, 0
2, 218319, Control_c, 0, 64, 127
2, 218480, Note_on_c, 0, 59, 0
2, 218494, Note_on_c, 0, 92, 0
2, 218500, Note_on_c, 0, 64, 0
2, 218544, Note_on_c, 0, 80, 0
2, 218576, Note_on_c, 0, 53, 0
2, 218737, Note_on_c, 0, 87, 0
2, 218900, Control_c, 0, 64, 0
2, 218901, Note_on_c, 0, 86, 41
2, 218903, Note_on_c, 0, 91, 29
2, 218905, Note_on_c, 0, 52, 35
2, 218906, Note_on_c, 0, 79, 33
2, 218913, Note_on_c, 0, 57, 25
2, 218913, Note_on_c, 0, 62, 28
2, 219271, Control_c, 0, 64, 127
2, 219338, Note_on_c, 0, 91, 0
2, 219386, Note_on_c, 0, 86, 0
2, 219479, Note_on_c, 0, 79, 0
2, 219561, Note_on_c, 0, 62, 0
2, 219563, Note_on_c, 0, 57, 0
2, 219816, Note_on_c, 0, 62, 31
2, 219822, Note_on_c, 0, 57, 34
2, 220287, Note_on_c, 0, 57, 0
2, 220319, Note_on_c, 0, 52, 0
2, 220442, Note_on_c, 0, 62, 0
2, 220619, Note_on_c, 0, 81, 67
2, 220735, Control_c, 0, 64, 0
2, 220737, Note_on_c, 0, 81, 0
2, 220771, Note_on_c, 0, 57, 27
2, 220776, Note_on_c, 0, 60, 30
2, 220777, Note_on_c, 0, 64, 24
2, 220781, Note_on_c, 0, 76, 42
2, 220784, Note_on_c, 0, 53, 19
2, 221256, Control_c, 0, 64, 127
2, 221413, Note_on_c, 0, 57, 0
2, 221428, Note_on_c, 0, 60, 0
2, 221465, Note_on_c, 0, 64, 0
2, 221550, Note_on_c, 0, 53, 0
2, 221780, Note_on_c, 0, 76, 0
2, 222082, Note_on_c, 0, 62, 49
2, 222082, Note_on_c, 0, 56, 53
2, 222085, Note_on_c, 0, 67, 50
2, 222092, Control_c, 0, 64, 0
2, 222269, Control_c, 0, 64, 127
2, 222439, Note_on_c, 0, 77, 67
2, 222483, Note_on_c, 0, 62, 0
2, 222513, Note_on_c, 0, 56, 0
2, 222518, Note_on_c, 0, 67, 0
2, 222565, Note_on_c, 0, 77, 0
2, 222602, Note_on_c, 0, 79, 64
2, 222743, Note_on_c, 0, 79, 0
2, 222747, Control_c, 0, 64, 0
2, 222781, Note_on_c, 0, 57, 57
2, 222789, Note_on_c, 0, 63, 58
2, 222799, Note_on_c, 0, 68, 35
2, 222847, Note_on_c, 0, 80, 61
2, 223232, Control_c, 0, 64, 127
2, 223605, Note_on_c, 0, 57, 0
2, 223608, Note_on_c, 0, 68, 0
2, 223626, Note_on_c, 0, 63, 0
2, 223969, Note_on_c, 0, 80, 0
2, 224044, Control_c, 0, 64, 0
2, 224070, Note_on_c, 0, 68, 30
2, 224072, Note_on_c, 0, 79, 50
2, 224086, Note_on_c, 0, 57, 34
2, 224090, Note_on_c, 0, 63, 38
2, 224255, Control_c, 0, 64, 127
2, 224346, Note_on_c, 0, 68, 0
2, 224347, Note_on_c, 0, 57, 0
2, 224451, Note_on_c, 0, 79, 0
2, 224496, Note_on_c, 0, 63, 0
2, 224686, Control_c, 0, 64, 0
2, 224706, Note_on_c, 0, 78, 36
2, 224721, Note_on_c, 0, 69, 32
2, 224723, Note_on_c, 0, 74, 36
2, 224725, Note_on_c, 0, 56, 34
2, 224726, Note_on_c, 0, 62, 34
2, 224969, Control_c, 0, 64, 127
2, 225291, Note_on_c, 0, 62, 0
2, 225346, Note_on_c, 0, 69, 0
2, 225355, Note_on_c, 0, 56, 0
2, 225364, Note_on_c, 0, 74, 0
2, 225393, Note_on_c, 0, 78, 0
2, 225622, Control_c, 0, 64, 0
2, 225624, Note_on_c, 0, 67, 48
2, 225630, Note_on_c, 0, 77, 46
2, 225645, Note_on_c, 0, 62, 45
2, 225651, Note_on_c, 0, 56, 39
2, 225859, Control_c, 0, 64, 127
2, 226053, Note_on_c, 0, 62, 0
2, 226124, Note_on_c, 0, 77, 0
2, 226173, Note_on_c, 0, 67, 0
2, 226265, Note_on_c, 0, 56, 0
2, 226527, Note_on_c, 0, 76, 45
2, 226536, Note_on_c, 0, 64, 43
2, 226540, Control_c, 0, 64, 0
2, 226540, Note_on_c, 0, 70, 39
2, 226542, Note_on_c, 0, 61, 35
2, 226557, Note_on_c, 0, 55, 44
2, 226874, Control_c, 0, 64, 127
2, 227109, Note_on_c, 0, 64, 0
2, 227191, Note_on_c, 0, 76, 0
2, 227228, Note_on_c, 0, 70, 0
2, 227256, Note_on_c, 0, 61, 0
2, 227540, Note_on_c, 0, 61, 33
2, 227549, Note_on_c, 0, 77, 59
2, 227554, Note_on_c, 0, 70, 56
2, 227561, Note_on_c, 0, 64, 33
2, 227947, Note_on_c, 0, 55, 0
2, 227949, Note_on_c, 0, 77, 0
2, 228018, Note_on_c, 0, 61, 0
2, 228087, Note_on_c, 0, 70, 0
2, 228140, Note_on_c, 0, 64, 0
2, 228362, Note_on_c, 0, 63, 44
2, 228435, Note_on_c, 0, 74, 51
2, 228438, Note_on_c, 0, 65, 49
2, 228447, Note_on_c, 0, 69, 42
2, 228452, Control_c, 0, 64, 0
2, 228456, Note_on_c, 0, 72, 35
2, 228457, Note_on_c, 0, 64, 57
2, 228458, Note_on_c, 0, 63, 0
2, 228582, Note_on_c, 0, 72, 0
2, 228598, Note_on_c, 0, 69, 0
2, 228620, Note_on_c, 0, 65, 0
2, 228629, Note_on_c, 0, 74, 0
2, 228648, Note_on_c, 0, 64, 0
2, 228996, Note_on_c, 0, 72, 31
2, 228997, Note_on_c, 0, 65, 32
2, 229003, Note_on_c, 0, 62, 30
2, 229015, Note_on_c, 0, 69, 46
2, 229032, Note_on_c, 0, 60, 24
2, 229070, Control_c, 0, 64, 127
2, 229134, Note_on_c, 0, 69, 0
2, 229157, Note_on_c, 0, 72, 0
2, 229167, Note_on_c, 0, 65, 0
2, 229191, Note_on_c, 0, 60, 0
2, 229202, Note_on_c, 0, 62, 0
2, 229265, Control_c, 0, 64, 0
2, 229453, Note_on_c, 0, 69, 36
2, 229465, Note_on_c, 0, 65, 36
2, 229469, Note_on_c, 0, 62, 32
2, 229475, Note_on_c, 0, 57, 31
2, 229486, Note_on_c, 0, 60, 24
2, 229580, Note_on_c, 0, 69, 0
2, 229581, Note_on_c, 0, 65, 0
2, 229599, Note_on_c, 0, 62, 0
2, 229604, Note_on_c, 0, 57, 0
2, 229618, Control_c, 0, 64, 127
2, 229621, Note_on_c, 0, 60, 0
2, 229856, Control_c, 0, 64, 0
2, 229934, Note_on_c, 0, 64, 41
2, 229943, Note_on_c, 0, 57, 34
2, 229944, Note_on_c, 0, 60, 37
2, 229946, Note_on_c, 0, 53, 26
2, 230033, Control_c, 0, 64, 127
2, 230084, Note_on_c, 0, 57, 0
2, 230177, Note_on_c, 0, 60, 0
2, 230221, Note_on_c, 0, 64, 0
2, 230353, Note_on_c, 0, 55, 30
2, 230367, Note_on_c, 0, 53, 0
2, 230404, Control_c, 0, 64, 0
2, 230409, Note_on_c, 0, 55, 0
2, 230412, Note_on_c, 0, 64, 78
2, 230419, Note_on_c, 0, 60, 76
2, 230419, Note_on_c, 0, 67, 66
2, 230430, Note_on_c, 0, 57, 47
2, 230607, Control_c, 0, 64, 127
2, 230720, Note_on_c, 0, 60, 0
2, 230806, Note_on_c, 0, 67, 0
2, 230807, Note_on_c, 0, 64, 0
2, 230835, Control_c, 0, 64, 0
2, 230844, Note_on_c, 0, 57, 0
2, 230869, Note_on_c, 0, 65, 58
2, 230873, Note_on_c, 0, 62, 56
2, 230874, Note_on_c, 0, 55, 49
2, 230883, Note_on_c, 0, 60, 52
2, 230969, Control_c, 0, 64, 127
2, 231101, Note_on_c, 0, 62, 0
2, 231111, Note_on_c, 0, 60, 0
2, 231290, Note_on_c, 0, 65, 0
2, 231293, Note_on_c, 0, 55, 0
2, 231365, Control_c, 0, 64, 0
2, 231398, Note_on_c, 0, 63, 53
2, 231412, Note_on_c, 0, 54, 36
2, 231416, Note_on_c, 0, 60, 48
2, 231610, Control_c, 0, 64, 127
2, 231675, Note_on_c, 0, 60, 0
2, 231716, Note_on_c, 0, 63, 0
2, 231725, Control_c, 0, 64, 0
2, 231761, Note_on_c, 0, 54, 0
2, 231784, Note_on_c, 0, 60, 34
2, 231792, Note_on_c, 0, 64, 50
2, 231796, Note_on_c, 0, 55, 41
2, 231840, Control_c, 0, 64, 127
2, 232025, Note_on_c, 0, 55, 0
2, 232083, Note_on_c, 0, 60, 0
2, 232161, Note_on_c, 0, 64, 0
2, 232264, Control_c, 0, 64, 0
2, 232266, Note_on_c, 0, 67, 42
2, 232269, Note_on_c, 0, 63, 36
2, 232279, Note_on_c, 0, 59, 24
2, 232284, Note_on_c, 0, 53, 33
2, 232289, Note_on_c, 0, 43, 31
2, 232466, Control_c, 0, 64, 127
2, 232827, Note_on_c, 0, 43, 0
2, 232873, Note_on_c, 0, 53, 0
2, 232986, Note_on_c, 0, 67, 0
2, 233019, Note_on_c, 0, 59, 0
2, 233028, Note_on_c, 0, 63, 0
2, 233217, Control_c, 0, 64, 0
2, 233260, Note_on_c, 0, 65, 36
2, 233261, Note_on_c, 0, 59, 32
2, 233262, Note_on_c, 0, 44, 32
2, 233264, Note_on_c, 0, 62, 46
2, 233271, Note_on_c, 0, 53, 27
2, 233317, Note_on_c, 0, 59, 0
2, 233353, Control_c, 0, 64, 127
2, 233361, Note_on_c, 0, 62, 0
2, 233405, Note_on_c, 0, 65, 0
2, 233550, Note_on_c, 0, 70, 78
2, 233699, Note_on_c, 0, 70, 0
2, 233734, Note_on_c, 0, 44, 0
2, 233764, Note_on_c, 0, 71, 82
2, 233825, Note_on_c, 0, 53, 0
2, 233938, Note_on_c, 0, 71, 0
2, 233998, Note_on_c, 0, 74, 94
2, 234129, Control_c, 0, 64, 0
2, 234154, Note_on_c, 0, 74, 0
2, 234200, Note_on_c, 0, 45, 35
2, 234215, Note_on_c, 0, 72, 64
2, 234222, Note_on_c, 0, 52, 30
2, 234314, Control_c, 0, 64, 127
2, 234378, Note_on_c, 0, 45, 0
2, 234426, Note_on_c, 0, 52, 0
2, 234545, Note_on_c, 0, 64, 55
2, 234625, Note_on_c, 0, 64, 0
2, 234632, Note_on_c, 0, 72, 0
2, 235135, Control_c, 0, 64, 0
2, 235152, Note_on_c, 0, 64, 25
2, 235171, Note_on_c, 0, 59, 28
2, 235173, Note_on_c, 0, 60, 37
2, 235182, Note_on_c, 0, 55, 29
2, 235436, Note_on_c, 0, 82, 78
2, 235583, Note_on_c, 0, 82, 0
2, 235638, Control_c, 0, 64, 127
2, 235665, Note_on_c, 0, 83, 88
2, 235777, Note_on_c, 0, 83, 0
2, 235920, Note_on_c, 0, 86, 88
2, 235923, Note_on_c, 0, 59, 0
2, 235931, Note_on_c, 0, 64, 0
2, 235937, Note_on_c, 0, 60, 0
2, 235954, Note_on_c, 0, 55, 0
2, 236026, Note_on_c, 0, 86, 0
2, 236159, Control_c, 0, 64, 0
2, 236177, Note_on_c, 0, 88, 63
2, 236186, Note_on_c, 0, 81, 44
2, 236186, Note_on_c, 0, 54, 37
2, 236188, Note_on_c, 0, 60, 38
2, 236189, Note_on_c, 0, 76, 47
2, 236190, Note_on_c, 0, 64, 38
2, 236263, Note_on_c, 0, 81, 0
2, 236266, Note_on_c, 0, 76, 0
2, 236273, Note_on_c, 0, 64, 0
2, 236274, Note_on_c, 0, 88, 0
2, 236293, Note_on_c, 0, 60, 0
2, 236312, Note_on_c, 0, 54, 0
2, 236465, Note_on_c, 0, 88, 64
2, 236476, Note_on_c, 0, 54, 45
2, 236477, Note_on_c, 0, 81, 53
2, 236478, Note_on_c, 0, 76, 48
2, 236491, Note_on_c, 0, 64, 33
2, 236497, Note_on_c, 0, 60, 36
2, 236558, Note_on_c, 0, 64, 0
2, 236559, Note_on_c, 0, 76, 0
2, 236564, Note_on_c, 0, 88, 0
2, 236568, Note_on_c, 0, 60, 0
2, 236583, Note_on_c, 0, 54, 0
2, 236598, Note_on_c, 0, 81, 0
2, 236689, Note_on_c, 0, 86, 62
2, 236700, Note_on_c, 0, 81, 47
2, 236710, Note_on_c, 0, 64, 30
2, 236711, Note_on_c, 0, 74, 35
2, 236713, Note_on_c, 0, 54, 32
2, 236717, Note_on_c, 0, 60, 32
2, 236757, Note_on_c, 0, 74, 0
2, 236772, Note_on_c, 0, 60, 0
2, 236774, Note_on_c, 0, 64, 0
2, 236775, Note_on_c, 0, 86, 0
2, 236781, Note_on_c, 0, 81, 0
2, 236807, Note_on_c, 0, 54, 0
2, 236865, Control_c, 0, 64, 127
2, 236945, Note_on_c, 0, 86, 62
2, 236953, Note_on_c, 0, 74, 55
2, 236956, Note_on_c, 0, 54, 39
2, 236960, Note_on_c, 0, 64, 35
2, 236974, Note_on_c, 0, 60, 33
2, 237018, Note_on_c, 0, 86, 0
2, 237041, Note_on_c, 0, 60, 0
2, 237045, Note_on_c, 0, 64, 0
2, 237047, Note_on_c, 0, 74, 0
2, 237062, Note_on_c, 0, 54, 0
2, 237105, Control_c, 0, 64, 0
2, 237189, Note_on_c, 0, 54, 36
2, 237190, Note_on_c, 0, 84, 43
2, 237192, Note_on_c, 0, 83, 39
2, 237193, Note_on_c, 0, 64, 31
2, 237206, Note_on_c, 0, 60, 34
2, 237239, Note_on_c, 0, 84, 0
2, 237265, Note_on_c, 0, 71, 10
2, 237300, Control_c, 0, 64, 127
2, 237452, Note_on_c, 0, 64, 0
2, 237476, Note_on_c, 0, 60, 0
2, 237501, Note_on_c, 0, 83, 0
2, 237510, Note_on_c, 0, 54, 0
2, 237510, Note_on_c, 0, 71, 0
2, 237628, Note_on_c, 0, 54, 38
2, 237628, Note_on_c, 0, 83, 31
2, 237635, Note_on_c, 0, 76, 46
2, 237640, Note_on_c, 0, 64, 30
2, 237649, Note_on_c, 0, 60, 36
2, 237652, Note_on_c, 0, 71, 50
2, 237705, Note_on_c, 0, 83, 0
2, 237734, Note_on_c, 0, 64, 0
2, 237737, Note_on_c, 0, 76, 0
2, 237773, Note_on_c, 0, 60, 0
2, 237781, Note_on_c, 0, 71, 0
2, 237912, Note_on_c, 0, 54, 0
2, 238120, Note_on_c, 0, 74, 71
2, 238122, Control_c, 0, 64, 0
2, 238125, Note_on_c, 0, 62, 68
2, 238127, Note_on_c, 0, 65, 66
2, 238128, Note_on_c, 0, 69, 66
2, 238289, Control_c, 0, 64, 127
2, 238476, Note_on_c, 0, 65, 0
2, 238513, Note_on_c, 0, 74, 0
2, 238516, Control_c, 0, 64, 0
2, 238522, Note_on_c, 0, 69, 0
2, 238561, Note_on_c, 0, 76, 59
2, 238564, Note_on_c, 0, 65, 56
2, 238565, Note_on_c, 0, 61, 67
2, 238571, Note_on_c, 0, 69, 49
2, 238579, Note_on_c, 0, 62, 0
2, 238580, Note_on_c, 0, 74, 56
2, 238658, Control_c, 0, 64, 127
2, 238707, Note_on_c, 0, 74, 0
2, 238710, Note_on_c, 0, 76, 0
2, 238775, Note_on_c, 0, 69, 0
2, 238808, Note_on_c, 0, 65, 0
2, 238984, Control_c, 0, 64, 0
2, 239028, Note_on_c, 0, 69, 65
2, 239029, Note_on_c, 0, 77, 55
2, 239035, Note_on_c, 0, 61, 0
2, 239040, Note_on_c, 0, 65, 61
2, 239045, Note_on_c, 0, 60, 50
2, 239049, Note_on_c, 0, 72, 49
2, 239128, Note_on_c, 0, 65, 0
2, 239134, Control_c, 0, 64, 127
2, 239154, Note_on_c, 0, 69, 0
2, 239168, Note_on_c, 0, 72, 0
2, 239196, Note_on_c, 0, 77, 0
2, 239437, Note_on_c, 0, 60, 0
2, 239504, Control_c, 0, 64, 0
2, 239534, Note_on_c, 0, 80, 70
2, 239541, Note_on_c, 0, 74, 63
2, 239541, Note_on_c, 0, 71, 63
2, 239548, Note_on_c, 0, 57, 53
2, 239551, Note_on_c, 0, 77, 49
2, 239637, Control_c, 0, 64, 127
2, 239647, Note_on_c, 0, 57, 0
2, 239999, Control_c, 0, 64, 0
2, 240030, Note_on_c, 0, 43, 79
2, 240069, Note_on_c, 0, 77, 0
2, 240080, Note_on_c, 0, 74, 0
2, 240094, Note_on_c, 0, 80, 0
2, 240171, Note_on_c, 0, 71, 0
2, 240175, Control_c, 0, 64, 127
2, 240543, Note_on_c, 0, 69, 65
2, 240547, Note_on_c, 0, 63, 58
2, 240552, Note_on_c, 0, 59, 62
2, 240553, Note_on_c, 0, 65, 51
2, 240556, Control_c, 0, 64, 0
2, 240563, Note_on_c, 0, 53, 48
2, 240741, Control_c, 0, 64, 127
2, 240852, Note_on_c, 0, 53, 0
2, 240853, Note_on_c, 0, 65, 0
2, 240861, Note_on_c, 0, 59, 0
2, 240870, Note_on_c, 0, 69, 0
2, 240882, Note_on_c, 0, 63, 0
2, 241045, Note_on_c, 0, 63, 62
2, 241049, Note_on_c, 0, 69, 59
2, 241053, Note_on_c, 0, 59, 59
2, 241066, Note_on_c, 0, 53, 44
2, 241089, Note_on_c, 0, 59, 0
2, 241150, Note_on_c, 0, 63, 0
2, 241156, Note_on_c, 0, 69, 0
2, 241161, Note_on_c, 0, 43, 0
2, 241238, Note_on_c, 0, 53, 0
2, 241510, Note_on_c, 0, 74, 94
2, 241669, Note_on_c, 0, 74, 0
2, 241968, Control_c, 0, 64, 0
2, 241986, Note_on_c, 0, 36, 41
2, 242002, Note_on_c, 0, 72, 66
2, 242005, Note_on_c, 0, 67, 71
2, 242012, Note_on_c, 0, 52, 51
2, 242013, Note_on_c, 0, 62, 66
2, 242098, Note_on_c, 0, 62, 0
2, 242117, Control_c, 0, 64, 127
2, 242122, Note_on_c, 0, 36, 0
2, 242151, Note_on_c, 0, 67, 0
2, 242170, Note_on_c, 0, 72, 0
2, 242181, Note_on_c, 0, 52, 0
2, 242497, Note_on_c, 0, 62, 43
2, 242499, Note_on_c, 0, 74, 53
2, 242500, Note_on_c, 0, 84, 64
2, 242507, Note_on_c, 0, 79, 52
2, 242512, Note_on_c, 0, 52, 29
2, 242523, Note_on_c, 0, 57, 48
2, 242575, Note_on_c, 0, 74, 0
2, 242604, Note_on_c, 0, 79, 0
2, 242626, Note_on_c, 0, 84, 0
2, 242638, Note_on_c, 0, 62, 0
2, 242654, Note_on_c, 0, 57, 0
2, 242662, Note_on_c, 0, 52, 0
2, 243012, Note_on_c, 0, 96, 49
2, 243014, Note_on_c, 0, 86, 40
2, 243024, Note_on_c, 0, 62, 32
2, 243024, Note_on_c, 0, 91, 47
2, 243028, Note_on_c, 0, 52, 30
2, 243035, Note_on_c, 0, 57, 39
2, 243129, Note_on_c, 0, 86, 0
2, 243151, Note_on_c, 0, 91, 0
2, 243183, Note_on_c, 0, 96, 0
2, 243207, Note_on_c, 0, 57, 0
2, 243220, Note_on_c, 0, 52, 0
2, 243231, Note_on_c, 0, 62, 0
2, 243494, Note_on_c, 0, 103, 64
2, 243505, Note_on_c, 0, 62, 38
2, 243515, Note_on_c, 0, 52, 26
2, 243522, Note_on_c, 0, 57, 32
2, 243566, Note_on_c, 0, 52, 0
2, 243570, Note_on_c, 0, 57, 0
2, 243626, Note_on_c, 0, 62, 0
2, 243944, Note_on_c, 0, 103, 0
2, 243989, Note_on_c, 0, 67, 37
2, 243998, Note_on_c, 0, 62, 33
2, 244003, Note_on_c, 0, 98, 47
2, 244004, Note_on_c, 0, 95, 32
2, 244012, Note_on_c, 0, 64, 39
2, 244020, Control_c, 0, 64, 0
2, 244099, Control_c, 0, 64, 127
2, 244212, Note_on_c, 0, 95, 0
2, 244235, Note_on_c, 0, 98, 0
2, 244320, Note_on_c, 0, 64, 0
2, 244326, Note_on_c, 0, 62, 0
2, 244351, Note_on_c, 0, 67, 0
2, 244496, Note_on_c, 0, 67, 41
2, 244515, Note_on_c, 0, 107, 48
2, 244517, Note_on_c, 0, 98, 32
2, 244541, Note_on_c, 0, 64, 24
2, 244544, Note_on_c, 0, 62, 22
2, 244660, Note_on_c, 0, 107, 0
2, 244668, Note_on_c, 0, 64, 0
2, 244709, Note_on_c, 0, 62, 0
2, 244713, Note_on_c, 0, 98, 0
2, 244724, Note_on_c, 0, 67, 0
2, 245013, Note_on_c, 0, 95, 37
2, 245015, Note_on_c, 0, 67, 38
2, 245016, Note_on_c, 0, 103, 40
2, 245041, Note_on_c, 0, 64, 27
2, 245051, Note_on_c, 0, 62, 25
2, 245101, Note_on_c, 0, 64, 0
2, 245105, Note_on_c, 0, 67, 0
2, 245115, Note_on_c, 0, 62, 0
2, 245562, Note_on_c, 0, 43, 30
2, 245635, Note_on_c, 0, 43, 0
2, 246112, Note_on_c, 0, 24, 34
2, 246397, Note_on_c, 0, 95, 0
2, 246414, Note_on_c, 0, 103, 0
2, 247355, Control_c, 0, 64, 0
2, 249155, Note_on_c, 0, 24, 0
2, 249155, End_track
3, 0, Start_track
3, 0, Title_t, "Bass"
3, 0, Program_c, 1, 32
3, 0, Control_c, 1, 7, 100
3, 101, Note_on_c, 1, 38, 41
3, 1013, Note_on_c, 1, 32, 57
3, 1034, Note_on_c, 1, 38, 0
3, 1955, Note_on_c, 1, 31, 44
3, 1961, Note_on_c, 1, 32, 0
3, 2912, Note_on_c, 1, 37, 56
3, 2932, Note_on_c, 1, 31, 0
3, 3782, Note_on_c, 1, 34, 18
3, 3889, Note_on_c, 1, 37, 0
3, 3892, Note_on_c, 1, 34, 0
3, 3900, Note_on_c, 1, 36, 49
3, 5327, Note_on_c, 1, 42, 57
3, 5418, Note_on_c, 1, 36, 0
3, 5795, Note_on_c, 1, 42, 0
3, 5830, Note_on_c, 1, 41, 44
3, 7123, Note_on_c, 1, 33, 45
3, 7159, Note_on_c, 1, 41, 0
3, 7364, Note_on_c, 1, 33, 0
3, 7395, Note_on_c, 1, 34, 54
3, 7703, Note_on_c, 1, 35, 53
3, 7711, Note_on_c, 1, 34, 0
3, 8666, Note_on_c, 1, 41, 66
3, 8693, Note_on_c, 1, 35, 0
3, 9452, Note_on_c, 1, 34, 30
3, 9488, Note_on_c, 1, 34, 0
3, 9570, Note_on_c, 1, 41, 0
3, 9623, Note_on_c, 1, 40, 37
3, 10528, Note_on_c, 1, 34, 59
3, 10546, Note_on_c, 1, 40, 0
3, 11414, Note_on_c, 1, 32, 22
3, 11502, Note_on_c, 1, 32, 0
3, 11506, Note_on_c, 1, 34, 0
3, 11521, Note_on_c, 1, 33, 50
3, 12556, Note_on_c, 1, 39, 64
3, 12562, Note_on_c, 1, 33, 0
3, 13374, Note_on_c, 1, 26, 42
3, 13446, Note_on_c, 1, 26, 0
3, 13528, Note_on_c, 1, 39, 0
3, 13545, Note_on_c, 1, 38, 46
3, 15248, Note_on_c, 1, 38, 0
3, 15380, Note_on_c, 1, 38, 56
3, 16767, Note_on_c, 1, 32, 59
3, 16778, Note_on_c, 1, 38, 0
3, 17251, Note_on_c, 1, 32, 0
3, 17271, Note_on_c, 1, 31, 49
3, 18262, Note_on_c, 1, 32, 73
3, 18292, Note_on_c, 1, 31, 0
3, 19217, Note_on_c, 1, 32, 0
3, 19222, Note_on_c, 1, 33, 64
3, 21085, Note_on_c, 1, 38, 42
3, 21123, Note_on_c, 1, 33, 0
3, 22821, Note_on_c, 1, 37, 36
3, 22859, Note_on_c, 1, 38, 0
3, 23004, Note_on_c, 1, 37, 0
3, 23007, Note_on_c, 1, 38, 46
3, 24461, Note_on_c, 1, 50, 60
3, 24494, Note_on_c, 1, 38, 0
3, 24956, Note_on_c, 1, 50, 0
3, 24984, Note_on_c, 1, 43, 32
3, 25394, Note_on_c, 1, 43, 0
3, 25508, Note_on_c, 1, 43, 61
3, 26423, Note_on_c, 1, 43, 0
3, 26843, Note_on_c, 1, 36, 55
3, 27780, Note_on_c, 1, 36, 0
3, 27832, Note_on_c, 1, 36, 55
3, 28824, Note_on_c, 1, 40, 61
3, 28841, Note_on_c, 1, 36, 0
3, 29741, Note_on_c, 1, 33, 61
3, 29758, Note_on_c, 1, 40, 0
3, 30658, Note_on_c, 1, 33, 0
3, 30697, Note_on_c, 1, 38, 47
3, 31971, Note_on_c, 1, 33, 47
3, 32006, Note_on_c, 1, 38, 0
3, 32235, Note_on_c, 1, 33, 0
3, 32273, Note_on_c, 1, 32, 43
3, 32549, Note_on_c, 1, 32, 0
3, 32699, Note_on_c, 1, 31, 37
3, 34531, Note_on_c, 1, 36, 47
3, 34649, Note_on_c, 1, 31, 0
3, 35946, Note_on_c, 1, 28, 54
3, 35963, Note_on_c, 1, 36, 0
3, 36469, Note_on_c, 1, 28, 0
3, 36472, Note_on_c, 1, 29, 44
3, 37400, Note_on_c, 1, 34, 50
3, 37416, Note_on_c, 1, 29, 0
3, 38413, Note_on_c, 1, 35, 44
3, 38427, Note_on_c, 1, 34, 0
3, 40300, Note_on_c, 1, 35, 0
3, 40320, Note_on_c, 1, 28, 55
3, 42204, Note_on_c, 1, 33, 52
3, 42309, Note_on_c, 1, 28, 0
3, 43684, Note_on_c, 1, 39, 42
3, 43685, Note_on_c, 1, 33, 0
3, 43953, Note_on_c, 1, 37, 35
3, 43961, Note_on_c, 1, 39, 0
3, 44161, Note_on_c, 1, 38, 48
3, 44162, Note_on_c, 1, 37, 0
3, 45433, Note_on_c, 1, 45, 35
3, 45640, Note_on_c, 1, 45, 0
3, 45710, Note_on_c, 1, 45, 36
3, 45851, Note_on_c, 1, 38, 0
3, 45957, Note_on_c, 1, 45, 0
3, 45994, Note_on_c, 1, 50, 47
3, 46506, Note_on_c, 1, 50, 0
3, 46554, Note_on_c, 1, 44, 27
3, 46860, Note_on_c, 1, 44, 0
3, 46899, Note_on_c, 1, 43, 33
3, 47519, Note_on_c, 1, 32, 42
3, 47522, Note_on_c, 1, 43, 0
3, 47919, Note_on_c, 1, 31, 38
3, 47924, Note_on_c, 1, 32, 0
3, 49512, Note_on_c, 1, 32, 56
3, 49537, Note_on_c, 1, 31, 0
3, 49942, Note_on_c, 1, 32, 0
3, 49946, Note_on_c, 1, 33, 44
3, 51784, Note_on_c, 1, 38, 45
3, 51810, Note_on_c, 1, 33, 0
3, 53490, Note_on_c, 1, 38, 0
3, 53723, Note_on_c, 1, 38, 40
3, 54695, Note_on_c, 1, 45, 42
3, 54762, Note_on_c, 1, 38, 0
3, 54983, Note_on_c, 1, 38, 35
3, 55111, Note_on_c, 1, 45, 0
3, 55113, Note_on_c, 1, 38, 0
3, 55185, Note_on_c, 1, 44, 38
3, 55649, Note_on_c, 1, 44, 0
3, 55682, Note_on_c, 1, 43, 27
3, 56597, Note_on_c, 1, 31, 34
3, 56610, Note_on_c, 1, 43, 0
3, 57597, Note_on_c, 1, 31, 0
3, 57613, Note_on_c, 1, 36, 43
3, 59488, Note_on_c, 1, 30, 43
3, 59506, Note_on_c, 1, 36, 0
3, 60440, Note_on_c, 1, 30, 0
3, 60452, Note_on_c, 1, 35, 51
3, 61398, Note_on_c, 1, 28, 55
3, 61412, Note_on_c, 1, 35, 0
3, 62862, Note_on_c, 1, 28, 0
3, 62872, Note_on_c, 1, 64, 37
3, 63349, Note_on_c, 1, 37, 55
3, 63364, Note_on_c, 1, 64, 0
3, 65278, Note_on_c, 1, 37, 0
3, 65292, Note_on_c, 1, 30, 40
3, 66236, Note_on_c, 1, 36, 55
3, 66245, Note_on_c, 1, 30, 0
3, 67157, Note_on_c, 1, 36, 0
3, 67192, Note_on_c, 1, 35, 40
3, 68083, Note_on_c, 1, 41, 40
3, 68136, Note_on_c, 1, 35, 0
3, 68898, Note_on_c, 1, 35, 36
3, 68996, Note_on_c, 1, 35, 0
3, 69033, Note_on_c, 1, 41, 0
3, 69099, Note_on_c, 1, 40, 33
3, 70034, Note_on_c, 1, 32, 59
3, 70036, Note_on_c, 1, 40, 0
3, 71028, Note_on_c, 1, 32, 0
3, 71065, Note_on_c, 1, 31, 45
3, 72981, Note_on_c, 1, 31, 0
3, 72985, Note_on_c, 1, 30, 54
3, 73900, Note_on_c, 1, 42, 54
3, 73936, Note_on_c, 1, 30, 0
3, 74887, Note_on_c, 1, 71, 49
3, 74900, Note_on_c, 1, 42, 0
3, 75837, Note_on_c, 1, 41, 52
3, 75847, Note_on_c, 1, 71, 0
3, 76531, Note_on_c, 1, 35, 31
3, 76585, Note_on_c, 1, 41, 0
3, 76642, Note_on_c, 1, 35, 0
3, 76690, Note_on_c, 1, 35, 27
3, 76764, Note_on_c, 1, 35, 0
3, 76874, Note_on_c, 1, 28, 53
3, 78663, Note_on_c, 1, 37, 43
3, 78673, Note_on_c, 1, 28, 0
3, 80614, Note_on_c, 1, 30, 46
3, 80636, Note_on_c, 1, 37, 0
3, 81858, Note_on_c, 1, 30, 0
3, 81869, Note_on_c, 1, 33, 39
3, 82166, Note_on_c, 1, 34, 49
3, 82177, Note_on_c, 1, 33, 0
3, 82511, Note_on_c, 1, 34, 0
3, 82518, Note_on_c, 1, 35, 47
3, 84398, Note_on_c, 1, 40, 45
3, 84408, Note_on_c, 1, 35, 0
3, 85874, Note_on_c, 1, 34, 54
3, 85899, Note_on_c, 1, 40, 0
3, 86348, Note_on_c, 1, 34, 0
3, 86374, Note_on_c, 1, 33, 42
3, 88299, Note_on_c, 1, 38, 45
3, 88306, Note_on_c, 1, 33, 0
3, 89264, Note_on_c, 1, 39, 59
3, 89292, Note_on_c, 1, 38, 0
3, 90251, Note_on_c, 1, 39, 0
3, 90254, Note_on_c, 1, 40, 45
3, 91177, Note_on_c, 1, 39, 49
3, 91195, Note_on_c, 1, 40, 0
3, 92121, Note_on_c, 1, 38, 53
3, 92129, Note_on_c, 1, 39, 0
3, 93109, Note_on_c, 1, 32, 42
3, 93134, Note_on_c, 1, 38, 0
3, 94069, Note_on_c, 1, 32, 0
3, 94104, Note_on_c, 1, 31, 39
3, 95961, Note_on_c, 1, 31, 0
3, 95969, Note_on_c, 1, 36, 47
3, 97718, Note_on_c, 1, 42, 46
3, 97800, Note_on_c, 1, 36, 0
3, 97935, Note_on_c, 1, 42, 0
3, 97963, Note_on_c, 1, 41, 41
3, 98355, Note_on_c, 1, 36, 29
3, 98829, Note_on_c, 1, 41, 0
3, 98879, Note_on_c, 1, 36, 0
3, 98897, Note_on_c, 1, 34, 36
3, 99558, Note_on_c, 1, 34, 0
3, 99643, Note_on_c, 1, 34, 40
3, 99827, Note_on_c, 1, 34, 0
3, 99839, Note_on_c, 1, 35, 47
3, 101729, Note_on_c, 1, 28, 41
3, 101753, Note_on_c, 1, 35, 0
3, 102973, Note_on_c, 1, 35, 38
3, 103008, Note_on_c, 1, 28, 0
3, 103057, Note_on_c, 1, 35, 0
3, 103291, Note_on_c, 1, 34, 36
3, 103557, Note_on_c, 1, 34, 0
3, 103680, Note_on_c, 1, 33, 42
3, 105587, Note_on_c, 1, 38, 36
3, 105698, Note_on_c, 1, 33, 0
3, 107207, Note_on_c, 1, 38, 0
3, 107269, Note_on_c, 1, 51, 29
3, 107443, Note_on_c, 1, 51, 0
3, 107502, Note_on_c, 1, 50, 29
3, 108504, Note_on_c, 1, 44, 33
3, 108516, Note_on_c, 1, 50, 0
3, 109454, Note_on_c, 1, 44, 0
3, 109473, Note_on_c, 1, 43, 38
3, 110856, Note_on_c, 1, 32, 48
3, 110883, Note_on_c, 1, 43, 0
3, 111285, Note_on_c, 1, 32, 0
3, 111317, Note_on_c, 1, 33, 50
3, 112227, Note_on_c, 1, 33, 0
3, 112299, Note_on_c, 1, 33, 41
3, 113238, Note_on_c, 1, 33, 0
3, 113248, Note_on_c, 1, 38, 42
3, 114722, Note_on_c, 1, 49, 51
3, 114853, Note_on_c, 1, 38, 0
3, 115159, Note_on_c, 1, 49, 0
3, 115192, Note_on_c, 1, 50, 47
3, 116141, Note_on_c, 1, 38, 49
3, 116177, Note_on_c, 1, 50, 0
3, 117189, Note_on_c, 1, 43, 32
3, 117197, Note_on_c, 1, 38, 0
3, 118172, Note_on_c, 1, 31, 29
3, 118202, Note_on_c, 1, 43, 0
3, 119092, Note_on_c, 1, 36, 42
3, 119101, Note_on_c, 1, 31, 0
3, 120954, Note_on_c, 1, 40, 35
3, 120972, Note_on_c, 1, 36, 0
3, 121865, Note_on_c, 1, 40, 0
3, 121898, Note_on_c, 1, 33, 31
3, 122500, Note_on_c, 1, 33, 0
3, 122773, Note_on_c, 1, 39, 51
3, 122881, Note_on_c, 1, 39, 0
3, 122932, Note_on_c, 1, 38, 37
3, 123716, Note_on_c, 1, 32, 52
3, 123728, Note_on_c, 1, 38, 0
3, 124648, Note_on_c, 1, 30, 43
3, 124670, Note_on_c, 1, 32, 0
3, 124780, Note_on_c, 1, 30, 0
3, 124804, Note_on_c, 1, 31, 36
3, 125578, Note_on_c, 1, 45, 67
3, 125595, Note_on_c, 1, 38, 15
3, 125632, Note_on_c, 1, 38, 0
3, 125640, Note_on_c, 1, 31, 0
3, 125686, Note_on_c, 1, 45, 0
3, 125739, Note_on_c, 1, 43, 53
3, 125807, Note_on_c, 1, 43, 0
3, 126034, Note_on_c, 1, 38, 51
3, 126148, Note_on_c, 1, 38, 0
3, 126196, Note_on_c, 1, 35, 38
3, 126670, Note_on_c, 1, 35, 0
3, 126693, Note_on_c, 1, 36, 36
3, 127508, Note_on_c, 1, 34, 21
3, 127584, Note_on_c, 1, 36, 0
3, 127642, Note_on_c, 1, 34, 0
3, 127672, Note_on_c, 1, 42, 40
3, 128286, Note_on_c, 1, 36, 46
3, 128347, Note_on_c, 1, 42, 0
3, 128366, Note_on_c, 1, 36, 0
3, 128430, Note_on_c, 1, 30, 37
3, 128532, Note_on_c, 1, 30, 0
3, 128603, Note_on_c, 1, 29, 39
3, 129393, Note_on_c, 1, 36, 19
3, 129528, Note_on_c, 1, 36, 0
3, 129561, Note_on_c, 1, 46, 63
3, 129570, Note_on_c, 1, 29, 0
3, 130397, Note_on_c, 1, 40, 30
3, 130444, Note_on_c, 1, 40, 0
3, 130560, Note_on_c, 1, 46, 0
3, 130577, Note_on_c, 1, 47, 47
3, 131834, Note_on_c, 1, 40, 40
3, 131925, Note_on_c, 1, 47, 0
3, 131944, Note_on_c, 1, 40, 0
3, 131991, Note_on_c, 1, 41, 36
3, 132265, Note_on_c, 1, 41, 0
3, 132310, Note_on_c, 1, 39, 46
3, 132434, Note_on_c, 1, 39, 0
3, 132489, Note_on_c, 1, 40, 19
3, 132687, Note_on_c, 1, 40, 0
3, 132763, Note_on_c, 1, 35, 37
3, 132880, Note_on_c, 1, 35, 0
3, 132921, Note_on_c, 1, 32, 44
3, 133378, Note_on_c, 1, 32, 0
3, 133404, Note_on_c, 1, 34, 54
3, 134194, Note_on_c, 1, 32, 44
3, 134245, Note_on_c, 1, 34, 0
3, 134327, Note_on_c, 1, 32, 0
3, 134355, Note_on_c, 1, 33, 51
3, 135321, Note_on_c, 1, 33, 0
3, 135344, Note_on_c, 1, 39, 63
3, 135661, Note_on_c, 1, 39, 0
3, 135679, Note_on_c, 1, 36, 45
3, 135778, Note_on_c, 1, 36, 0
3, 135811, Note_on_c, 1, 37, 43
3, 136229, Note_on_c, 1, 37, 0
3, 136287, Note_on_c, 1, 38, 37
3, 136663, Note_on_c, 1, 37, 16
3, 136773, Note_on_c, 1, 37, 0
3, 137106, Note_on_c, 1, 53, 55
3, 137433, Note_on_c, 1, 38, 0
3, 137577, Note_on_c, 1, 41, 25
3, 137685, Note_on_c, 1, 41, 0
3, 137700, Note_on_c, 1, 53, 0
3, 137716, Note_on_c, 1, 50, 37
3, 138022, Note_on_c, 1, 50, 0
3, 138040, Note_on_c, 1, 49, 30
3, 138135, Note_on_c, 1, 49, 0
3, 138197, Note_on_c, 1, 50, 41
3, 138494, Note_on_c, 1, 50, 0
3, 138512, Note_on_c, 1, 45, 24
3, 138672, Note_on_c, 1, 45, 0
3, 138681, Note_on_c, 1, 41, 38
3, 139126, Note_on_c, 1, 41, 0
3, 139153, Note_on_c, 1, 38, 42
3, 139929, Note_on_c, 1, 38, 0
3, 139937, Note_on_c, 1, 42, 42
3, 140081, Note_on_c, 1, 42, 0
3, 140112, Note_on_c, 1, 43, 42
3, 141048, Note_on_c, 1, 43, 0
3, 141081, Note_on_c, 1, 44, 49
3, 141767, Note_on_c, 1, 44, 0
3, 141796, Note_on_c, 1, 43, 41
3, 141879, Note_on_c, 1, 43, 0
3, 141940, Note_on_c, 1, 44, 47
3, 142036, Note_on_c, 1, 44, 0
3, 142099, Note_on_c, 1, 45, 55
3, 143042, Note_on_c, 1, 45, 0
3, 143061, Note_on_c, 1, 40, 31
3, 143837, Note_on_c, 1, 37, 39
3, 143851, Note_on_c, 1, 40, 0
3, 143958, Note_on_c, 1, 37, 0
3, 144000, Note_on_c, 1, 38, 48
3, 144170, Note_on_c, 1, 52, 19
3, 144300, Note_on_c, 1, 52, 0
3, 144324, Note_on_c, 1, 53, 31
3, 144433, Note_on_c, 1, 53, 0
3, 144484, Note_on_c, 1, 54, 45
3, 144938, Note_on_c, 1, 38, 0
3, 145703, Note_on_c, 1, 45, 39
3, 145830, Note_on_c, 1, 54, 0
3, 145833, Note_on_c, 1, 45, 0
3, 145866, Note_on_c, 1, 38, 40
3, 146845, Note_on_c, 1, 38, 0
3, 146854, Note_on_c, 1, 44, 39
3, 147825, Note_on_c, 1, 44, 0
3, 147839, Note_on_c, 1, 43, 43
3, 148804, Note_on_c, 1, 41, 45
3, 148817, Note_on_c, 1, 43, 0
3, 149616, Note_on_c, 1, 39, 41
3, 149632, Note_on_c, 1, 41, 0
3, 149736, Note_on_c, 1, 39, 0
3, 149771, Note_on_c, 1, 40, 22
3, 150229, Note_on_c, 1, 40, 0
3, 150243, Note_on_c, 1, 36, 38
3, 151207, Note_on_c, 1, 46, 61
3, 151232, Note_on_c, 1, 36, 0
3, 151656, Note_on_c, 1, 46, 0
3, 151684, Note_on_c, 1, 45, 44
3, 152152, Note_on_c, 1, 34, 34
3, 152176, Note_on_c, 1, 45, 0
3, 152645, Note_on_c, 1, 34, 0
3, 152651, Note_on_c, 1, 33, 35
3, 153105, Note_on_c, 1, 39, 40
3, 153116, Note_on_c, 1, 33, 0
3, 153450, Note_on_c, 1, 37, 24
3, 153494, Note_on_c, 1, 39, 0
3, 153564, Note_on_c, 1, 37, 0
3, 153583, Note_on_c, 1, 38, 34
3, 153965, Note_on_c, 1, 37, 5
3, 154040, Note_on_c, 1, 51, 50
3, 154047, Note_on_c, 1, 38, 0
3, 154113, Note_on_c, 1, 37, 0
3, 154482, Note_on_c, 1, 51, 0
3, 154530, Note_on_c, 1, 50, 37
3, 155279, Note_on_c, 1, 44, 33
3, 155321, Note_on_c, 1, 50, 0
3, 155403, Note_on_c, 1, 44, 0
3, 155442, Note_on_c, 1, 43, 20
3, 155713, Note_on_c, 1, 43, 0
3, 155724, Note_on_c, 1, 38, 47
3, 155843, Note_on_c, 1, 38, 0
3, 155907, Note_on_c, 1, 31, 42
3, 157348, Note_on_c, 1, 36, 44
3, 157350, Note_on_c, 1, 31, 0
3, 159316, Note_on_c, 1, 29, 42
3, 159318, Note_on_c, 1, 36, 0
3, 160641, Note_on_c, 1, 36, 32
3, 160719, Note_on_c, 1, 36, 0
3, 160802, Note_on_c, 1, 29, 0
3, 160809, Note_on_c, 1, 46, 56
3, 161266, Note_on_c, 1, 46, 0
3, 161295, Note_on_c, 1, 47, 49
3, 161744, Note_on_c, 1, 35, 40
3, 161751, Note_on_c, 1, 47, 0
3, 162993, Note_on_c, 1, 39, 57
3, 163121, Note_on_c, 1, 39, 0
3, 163124, Note_on_c, 1, 35, 0
3, 163161, Note_on_c, 1, 40, 36
3, 163462, Note_on_c, 1, 40, 0
3, 163464, Note_on_c, 1, 39, 31
3, 163609, Note_on_c, 1, 39, 0
3, 163631, Note_on_c, 1, 40, 36
3, 164080, Note_on_c, 1, 40, 0
3, 164097, Note_on_c, 1, 34, 43
3, 164882, Note_on_c, 1, 32, 42
3, 164954, Note_on_c, 1, 34, 0
3, 165034, Note_on_c, 1, 32, 0
3, 165059, Note_on_c, 1, 33, 40
3, 165363, Note_on_c, 1, 47, 41
3, 165456, Note_on_c, 1, 47, 0
3, 165560, Note_on_c, 1, 48, 11
3, 165843, Note_on_c, 1, 48, 0
3, 165874, Note_on_c, 1, 49, 42
3, 165982, Note_on_c, 1, 33, 0
3, 166361, Note_on_c, 1, 36, 23
3, 166418, Note_on_c, 1, 49, 0
3, 166465, Note_on_c, 1, 36, 0
3, 166509, Note_on_c, 1, 37, 25
3, 166978, Note_on_c, 1, 37, 0
3, 166985, Note_on_c, 1, 38, 34
3, 167827, Note_on_c, 1, 37, 19
3, 167907, Note_on_c, 1, 38, 0
3, 167963, Note_on_c, 1, 45, 42
3, 167969, Note_on_c, 1, 37, 0
3, 168283, Note_on_c, 1, 45, 0
3, 168303, Note_on_c, 1, 40, 45
3, 168415, Note_on_c, 1, 40, 0
3, 168449, Note_on_c, 1, 39, 37
3, 168792, Note_on_c, 1, 37, 22
3, 168876, Note_on_c, 1, 39, 0
3, 168908, Note_on_c, 1, 37, 0
3, 168930, Note_on_c, 1, 38, 27
3, 169283, Note_on_c, 1, 37, 20
3, 169337, Note_on_c, 1, 38, 0
3, 169400, Note_on_c, 1, 45, 64
3, 169410, Note_on_c, 1, 37, 0
3, 170188, Note_on_c, 1, 41, 42
3, 170192, Note_on_c, 1, 45, 0
3, 170362, Note_on_c, 1, 32, 43
3, 170379, Note_on_c, 1, 41, 0
3, 170824, Note_on_c, 1, 32, 0
3, 170832, Note_on_c, 1, 31, 38
3, 171354, Note_on_c, 1, 43, 37
3, 171850, Note_on_c, 1, 44, 49
3, 171851, Note_on_c, 1, 43, 0
3, 171863, Note_on_c, 1, 31, 0
3, 172314, Note_on_c, 1, 32, 49
3, 172330, Note_on_c, 1, 44, 0
3, 172787, Note_on_c, 1, 32, 0
3, 172823, Note_on_c, 1, 33, 31
3, 173759, Note_on_c, 1, 45, 34
3, 173786, Note_on_c, 1, 33, 0
3, 174072, Note_on_c, 1, 36, 40
3, 174083, Note_on_c, 1, 45, 0
3, 174202, Note_on_c, 1, 36, 0
3, 174230, Note_on_c, 1, 37, 33
3, 174572, Note_on_c, 1, 34, 21
3, 174676, Note_on_c, 1, 37, 0
3, 174683, Note_on_c, 1, 34, 0
3, 174695, Note_on_c, 1, 38, 39
3, 175067, Note_on_c, 1, 54, 48
3, 175980, Note_on_c, 1, 50, 42
3, 176235, Note_on_c, 1, 54, 0
3, 176311, Note_on_c, 1, 50, 0
3, 176314, Note_on_c, 1, 49, 38
3, 176559, Note_on_c, 1, 38, 0
3, 176624, Note_on_c, 1, 49, 0
3, 176641, Note_on_c, 1, 50, 54
3, 177379, Note_on_c, 1, 41, 23
3, 177520, Note_on_c, 1, 50, 0
3, 177525, Note_on_c, 1, 41, 0
3, 177558, Note_on_c, 1, 45, 42
3, 178320, Note_on_c, 1, 44, 35
3, 178322, Note_on_c, 1, 45, 0
3, 178448, Note_on_c, 1, 44, 0
3, 178496, Note_on_c, 1, 43, 28
3, 178714, Note_on_c, 1, 43, 0
3, 178807, Note_on_c, 1, 38, 18
3, 178932, Note_on_c, 1, 38, 0
3, 178960, Note_on_c, 1, 31, 40
3, 179923, Note_on_c, 1, 35, 40
3, 179930, Note_on_c, 1, 31, 0
3, 180402, Note_on_c, 1, 35, 0
3, 180408, Note_on_c, 1, 36, 44
3, 181316, Note_on_c, 1, 34, 21
3, 181421, Note_on_c, 1, 43, 67
3, 181435, Note_on_c, 1, 36, 0
3, 181459, Note_on_c, 1, 34, 0
3, 182295, Note_on_c, 1, 36, 14
3, 182340, Note_on_c, 1, 36, 0
3, 182396, Note_on_c, 1, 43, 0
3, 182407, Note_on_c, 1, 42, 43
3, 183341, Note_on_c, 1, 42, 0
3, 183356, Note_on_c, 1, 35, 38
3, 184143, Note_on_c, 1, 39, 44
3, 184257, Note_on_c, 1, 35, 0
3, 184265, Note_on_c, 1, 39, 0
3, 184318, Note_on_c, 1, 40, 35
3, 185251, Note_on_c, 1, 40, 0
3, 185257, Note_on_c, 1, 35, 42
3, 186038, Note_on_c, 1, 36, 58
3, 186061, Note_on_c, 1, 35, 0
3, 186173, Note_on_c, 1, 36, 0
3, 186214, Note_on_c, 1, 37, 32
3, 187055, Note_on_c, 1, 35, 17
3, 187086, Note_on_c, 1, 37, 0
3, 187113, Note_on_c, 1, 35, 0
3, 187190, Note_on_c, 1, 37, 46
3, 187495, Note_on_c, 1, 31, 53
3, 187538, Note_on_c, 1, 37, 0
3, 188092, Note_on_c, 1, 31, 0
3, 188127, Note_on_c, 1, 30, 44
3, 189079, Note_on_c, 1, 42, 64
3, 189151, Note_on_c, 1, 30, 0
3, 189880, Note_on_c, 1, 34, 60
3, 189965, Note_on_c, 1, 42, 0
3, 190013, Note_on_c, 1, 34, 0
3, 190051, Note_on_c, 1, 35, 66
3, 190336, Note_on_c, 1, 35, 0
3, 190533, Note_on_c, 1, 35, 70
3, 191793, Note_on_c, 1, 29, 43
3, 191806, Note_on_c, 1, 35, 0
3, 191927, Note_on_c, 1, 29, 0
3, 192000, Note_on_c, 1, 76, 58
3, 192930, Note_on_c, 1, 32, 68
3, 192971, Note_on_c, 1, 76, 0
3, 193868, Note_on_c, 1, 32, 0
3, 193911, Note_on_c, 1, 31, 55
3, 194717, Note_on_c, 1, 43, 20
3, 194812, Note_on_c, 1, 43, 0
3, 194866, Note_on_c, 1, 46, 64
3, 194929, Note_on_c, 1, 31, 0
3, 195200, Note_on_c, 1, 31, 30
3, 195305, Note_on_c, 1, 31, 0
3, 195312, Note_on_c, 1, 46, 0
3, 195349, Note_on_c, 1, 43, 53
3, 195694, Note_on_c, 1, 31, 9
3, 195740, Note_on_c, 1, 31, 0
3, 195773, Note_on_c, 1, 43, 0
3, 195812, Note_on_c, 1, 42, 47
3, 196750, Note_on_c, 1, 30, 58
3, 196767, Note_on_c, 1, 42, 0
3, 197706, Note_on_c, 1, 30, 0
3, 197751, Note_on_c, 1, 29, 55
3, 198738, Note_on_c, 1, 35, 67
3, 198748, Note_on_c, 1, 29, 0
3, 199418, Control_c, 1, 64, 127
3, 199525, Note_on_c, 1, 29, 59
3, 199544, Note_on_c, 1, 35, 0
3, 199615, Control_c, 1, 64, 0
3, 199707, Note_on_c, 1, 29, 0
3, 199719, Note_on_c, 1, 28, 64
3, 200936, Note_on_c, 1, 35, 53
3, 200965, Note_on_c, 1, 28, 0
3, 201285, Note_on_c, 1, 36, 59
3, 201306, Note_on_c, 1, 35, 0
3, 201579, Note_on_c, 1, 37, 55
3, 201582, Note_on_c, 1, 36, 0
3, 202412, Note_on_c, 1, 34, 24
3, 202538, Note_on_c, 1, 34, 0
3, 202559, Note_on_c, 1, 49, 58
3, 202609, Note_on_c, 1, 37, 0
3, 203351, Note_on_c, 1, 39, 24
3, 203468, Note_on_c, 1, 39, 0
3, 203499, Note_on_c, 1, 49, 0
3, 203512, Note_on_c, 1, 42, 39
3, 204355, Note_on_c, 1, 39, 16
3, 204441, Note_on_c, 1, 39, 0
3, 204453, Note_on_c, 1, 48, 62
3, 204465, Note_on_c, 1, 42, 0
3, 204885, Note_on_c, 1, 48, 0
3, 204930, Note_on_c, 1, 36, 42
3, 205362, Note_on_c, 1, 36, 0
3, 205389, Note_on_c, 1, 71, 40
3, 205869, Note_on_c, 1, 47, 53
3, 206364, Note_on_c, 1, 71, 0
3, 206982, Note_on_c, 1, 38, 42
3, 207056, Note_on_c, 1, 47, 0
3, 207112, Note_on_c, 1, 38, 0
3, 207139, Note_on_c, 1, 39, 44
3, 207264, Note_on_c, 1, 39, 0
3, 207289, Note_on_c, 1, 40, 50
3, 209087, Note_on_c, 1, 34, 43
3, 209120, Note_on_c, 1, 40, 0
3, 209294, Note_on_c, 1, 33, 58
3, 209313, Note_on_c, 1, 34, 0
3, 210529, Note_on_c, 1, 40, 40
3, 210537, Note_on_c, 1, 33, 0
3, 210668, Note_on_c, 1, 40, 0
3, 210709, Note_on_c, 1, 39, 49
3, 211156, Note_on_c, 1, 39, 0
3, 211177, Note_on_c, 1, 38, 59
3, 212128, Note_on_c, 1, 39, 72
3, 212175, Note_on_c, 1, 38, 0
3, 213125, Note_on_c, 1, 40, 68
3, 213152, Note_on_c, 1, 39, 0
3, 214082, Note_on_c, 1, 39, 67
3, 214121, Note_on_c, 1, 40, 0
3, 214879, Note_on_c, 1, 37, 40
3, 214905, Note_on_c, 1, 39, 0
3, 215026, Note_on_c, 1, 37, 0
3, 215039, Note_on_c, 1, 38, 58
3, 216297, Note_on_c, 1, 45, 64
3, 216454, Note_on_c, 1, 38, 0
3, 216572, Note_on_c, 1, 45, 0
3, 216589, Note_on_c, 1, 33, 49
3, 216686, Note_on_c, 1, 33, 0
3, 216748, Note_on_c, 1, 32, 61
3, 216873, Note_on_c, 1, 32, 0
3, 216917, Note_on_c, 1, 31, 53
3, 218217, Note_on_c, 1, 43, 49
3, 218253, Note_on_c, 1, 43, 0
3, 218283, Note_on_c, 1, 31, 0
3, 218369, Note_on_c, 1, 35, 50
3, 218852, Note_on_c, 1, 35, 0
3, 218853, Note_on_c, 1, 36, 45
3, 219743, Note_on_c, 1, 42, 50
3, 219891, Note_on_c, 1, 36, 0
3, 220581, Note_on_c, 1, 36, 44
3, 220649, Note_on_c, 1, 36, 0
3, 220709, Note_on_c, 1, 42, 0
3, 220743, Note_on_c, 1, 41, 46
3, 222189, Note_on_c, 1, 34, 50
3, 222235, Note_on_c, 1, 41, 0
3, 222687, Note_on_c, 1, 35, 52
3, 222706, Note_on_c, 1, 34, 0
3, 224098, Note_on_c, 1, 35, 0
3, 224102, Note_on_c, 1, 28, 54
3, 225072, Note_on_c, 1, 28, 0
3, 225086, Note_on_c, 1, 40, 71
3, 226038, Note_on_c, 1, 35, 43
3, 226061, Note_on_c, 1, 40, 0
3, 226342, Note_on_c, 1, 34, 47
3, 226396, Note_on_c, 1, 34, 0
3, 226396, Note_on_c, 1, 35, 0
3, 226545, Note_on_c, 1, 33, 50
3, 227454, Note_on_c, 1, 33, 0
3, 227494, Note_on_c, 1, 37, 56
3, 228333, Note_on_c, 1, 34, 16
3, 228450, Note_on_c, 1, 34, 0
3, 228462, Note_on_c, 1, 37, 0
3, 228466, Note_on_c, 1, 38, 62
3, 229442, Note_on_c, 1, 45, 67
3, 229485, Note_on_c, 1, 38, 0
3, 229836, Note_on_c, 1, 38, 9
3, 229905, Note_on_c, 1, 45, 0
3, 229925, Note_on_c, 1, 38, 0
3, 229947, Note_on_c, 1, 52, 49
3, 230282, Note_on_c, 1, 38, 18
3, 230348, Note_on_c, 1, 38, 0
3, 230384, Note_on_c, 1, 52, 0
3, 230417, Note_on_c, 1, 50, 56
3, 230824, Note_on_c, 1, 50, 0
3, 230863, Note_on_c, 1, 45, 43
3, 231304, Note_on_c, 1, 45, 0
3, 231335, Note_on_c, 1, 41, 34
3, 232136, Note_on_c, 1, 38, 36
3, 232171, Note_on_c, 1, 38, 0
3, 232250, Note_on_c, 1, 41, 0
3, 232298, Note_on_c, 1, 43, 52
3, 233217, Note_on_c, 1, 43, 0
3, 233236, Note_on_c, 1, 32, 66
3, 234193, Note_on_c, 1, 32, 0
3, 234236, Note_on_c, 1, 33, 69
3, 235198, Note_on_c, 1, 33, 0
3, 235210, Note_on_c, 1, 39, 77
3, 236031, Note_on_c, 1, 37, 44
3, 236064, Note_on_c, 1, 39, 0
3, 236189, Note_on_c, 1, 37, 0
3, 236192, Note_on_c, 1, 38, 70
3, 237078, Note_on_c, 1, 37, 16
3, 237127, Note_on_c, 1, 37, 0
3, 237177, Note_on_c, 1, 54, 63
3, 237923, Note_on_c, 1, 37, 40
3, 237933, Note_on_c, 1, 38, 0
3, 238079, Note_on_c, 1, 54, 0
3, 238107, Note_on_c, 1, 37, 0
3, 238111, Note_on_c, 1, 38, 66
3, 239100, Note_on_c, 1, 32, 54
3, 239111, Note_on_c, 1, 38, 0
3, 240054, Note_on_c, 1, 32, 0
3, 240079, Note_on_c, 1, 31, 47
3, 240998, Note_on_c, 1, 35, 55
3, 241022, Note_on_c, 1, 31, 0
3, 241971, Note_on_c, 1, 35, 0
3, 241973, Note_on_c, 1, 36, 54
3, 245333, Note_on_c, 1, 36, 0
3, 245333, End_track
4, 0, Start_track
4, 0, Title_t, "Brush Drums"
4, 0, Program_c, 9, 40
4, 0, Control_c, 9, 7, 63
4, 25, Note_on_c, 9, 59, 39
4, 29, Note_on_c, 9, 36, 43
4, 73, Note_on_c, 9, 40, 32
4, 79, Note_on_c, 9, 59, 0
4, 86, Note_on_c, 9, 38, 36
4, 105, Note_on_c, 9, 36, 0
4, 467, Note_on_c, 9, 38, 0
4, 596, Note_on_c, 9, 44, 37
4, 610, Note_on_c, 9, 38, 32
4, 953, Note_on_c, 9, 38, 0
4, 1013, Note_on_c, 9, 44, 0
4, 1069, Note_on_c, 9, 38, 24
4, 1720, Note_on_c, 9, 40, 0
4, 1721, Note_on_c, 9, 38, 0
4, 1795, Note_on_c, 9, 40, 43
4, 1905, Note_on_c, 9, 40, 0
4, 1979, Note_on_c, 9, 38, 38
4, 1991, Note_on_c, 9, 40, 40
4, 2389, Note_on_c, 9, 40, 0
4, 2442, Note_on_c, 9, 44, 23
4, 2490, Note_on_c, 9, 40, 26
4, 2602, Note_on_c, 9, 44, 0
4, 2850, Note_on_c, 9, 38, 0
4, 2878, Note_on_c, 9, 40, 0
4, 2939, Note_on_c, 9, 46, 35
4, 2957, Note_on_c, 9, 40, 27
4, 2962, Note_on_c, 9, 38, 38
4, 3632, Note_on_c, 9, 40, 0
4, 3702, Note_on_c, 9, 38, 0
4, 3729, Note_on_c, 9, 40, 24
4, 3786, Note_on_c, 9, 46, 0
4, 3813, Note_on_c, 9, 40, 0
4, 3875, Note_on_c, 9, 38, 35
4, 3884, Note_on_c, 9, 40, 29
4, 4391, Note_on_c, 9, 44, 28
4, 4574, Note_on_c, 9, 44, 0
4, 4599, Note_on_c, 9, 40, 0
4, 4637, Note_on_c, 9, 38, 0
4, 4672, Note_on_c, 9, 40, 24
4, 4758, Note_on_c, 9, 40, 0
4, 4828, Note_on_c, 9, 38, 37
4, 4839, Note_on_c, 9, 40, 29
4, 5328, Note_on_c, 9, 44, 34
4, 5482, Note_on_c, 9, 40, 0
4, 5542, Note_on_c, 9, 38, 0
4, 5583, Note_on_c, 9, 40, 24
4, 5664, Note_on_c, 9, 40, 0
4, 5709, Note_on_c, 9, 38, 33
4, 5730, Note_on_c, 9, 40, 27
4, 5815, Note_on_c, 9, 44, 0
4, 6594, Note_on_c, 9, 40, 0
4, 6699, Note_on_c, 9, 40, 32
4, 6705, Note_on_c, 9, 44, 40
4, 6974, Note_on_c, 9, 44, 0
4, 7094, Note_on_c, 9, 38, 0
4, 7177, Note_on_c, 9, 38, 46
4, 7514, Note_on_c, 9, 40, 0
4, 7520, Note_on_c, 9, 39, 53
4, 7552, Note_on_c, 9, 38, 0
4, 7574, Note_on_c, 9, 39, 0
4, 7615, Note_on_c, 9, 40, 29
4, 7638, Note_on_c, 9, 38, 35
4, 7690, Note_on_c, 9, 36, 35
4, 7910, Note_on_c, 9, 36, 0
4, 8191, Note_on_c, 9, 36, 36
4, 8465, Note_on_c, 9, 40, 0
4, 8594, Note_on_c, 9, 40, 31
4, 8628, Note_on_c, 9, 36, 0
4, 8652, Note_on_c, 9, 44, 35
4, 8832, Note_on_c, 9, 44, 0
4, 8984, Note_on_c, 9, 38, 0
4, 9122, Note_on_c, 9, 38, 40
4, 9313, Note_on_c, 9, 38, 0
4, 9387, Note_on_c, 9, 40, 0
4, 9447, Note_on_c, 9, 38, 42
4, 9463, Note_on_c, 9, 40, 29
4, 9573, Note_on_c, 9, 38, 0
4, 9575, Note_on_c, 9, 40, 0
4, 9637, Note_on_c, 9, 40, 24
4, 9670, Note_on_c, 9, 38, 34
4, 10270, Note_on_c, 9, 38, 0
4, 10410, Note_on_c, 9, 38, 59
4, 10442, Note_on_c, 9, 40, 0
4, 10516, Note_on_c, 9, 38, 0
4, 10564, Note_on_c, 9, 44, 34
4, 10565, Note_on_c, 9, 40, 33
4, 10603, Note_on_c, 9, 38, 41
4, 10679, Note_on_c, 9, 44, 0
4, 11029, Note_on_c, 9, 44, 32
4, 11169, Note_on_c, 9, 38, 0
4, 11276, Note_on_c, 9, 44, 0
4, 11288, Note_on_c, 9, 38, 51
4, 11330, Note_on_c, 9, 40, 0
4, 11388, Note_on_c, 9, 38, 0
4, 11427, Note_on_c, 9, 40, 27
4, 11461, Note_on_c, 9, 38, 32
4, 11714, Note_on_c, 9, 38, 0
4, 11938, Note_on_c, 9, 38, 44
4, 12289, Note_on_c, 9, 40, 0
4, 12340, Note_on_c, 9, 38, 0
4, 12409, Note_on_c, 9, 40, 24
4, 12436, Note_on_c, 9, 38, 32
4, 12440, Note_on_c, 9, 44, 32
4, 12576, Note_on_c, 9, 44, 0
4, 12771, Note_on_c, 9, 36, 24
4, 12820, Note_on_c, 9, 36, 0
4, 13183, Note_on_c, 9, 38, 0
4, 13269, Note_on_c, 9, 40, 0
4, 13310, Note_on_c, 9, 38, 38
4, 13408, Note_on_c, 9, 38, 0
4, 13491, Note_on_c, 9, 40, 34
4, 13513, Note_on_c, 9, 38, 34
4, 13975, Note_on_c, 9, 44, 34
4, 14179, Note_on_c, 9, 44, 0
4, 14357, Note_on_c, 9, 38, 0
4, 14359, Note_on_c, 9, 40, 0
4, 14453, Note_on_c, 9, 40, 29
4, 14458, Note_on_c, 9, 38, 33
4, 14738, Note_on_c, 9, 38, 0
4, 14759, Note_on_c, 9, 39, 46
4, 14807, Note_on_c, 9, 40, 0
4, 14928, Note_on_c, 9, 39, 0
4, 14943, Note_on_c, 9, 38, 40
4, 14945, Note_on_c, 9, 44, 34
4, 14972, Note_on_c, 9, 40, 18
4, 15132, Note_on_c, 9, 44, 0
4, 15155, Note_on_c, 9, 38, 0
4, 15254, Note_on_c, 9, 38, 34
4, 15281, Note_on_c, 9, 36, 35
4, 15363, Note_on_c, 9, 38, 0
4, 15371, Note_on_c, 9, 40, 0
4, 15376, Note_on_c, 9, 36, 0
4, 15428, Note_on_c, 9, 40, 18
4, 15440, Note_on_c, 9, 38, 43
4, 15451, Note_on_c, 9, 36, 38
4, 15818, Note_on_c, 9, 44, 34
4, 15956, Note_on_c, 9, 44, 0
4, 16233, Note_on_c, 9, 40, 0
4, 16244, Note_on_c, 9, 36, 0
4, 16255, Note_on_c, 9, 38, 0
4, 16306, Note_on_c, 9, 40, 30
4, 16339, Note_on_c, 9, 38, 37
4, 17055, Note_on_c, 9, 40, 0
4, 17060, Note_on_c, 9, 39, 53
4, 17071, Note_on_c, 9, 38, 0
4, 17228, Note_on_c, 9, 40, 34
4, 17248, Note_on_c, 9, 39, 0
4, 17253, Note_on_c, 9, 38, 53
4, 17474, Note_on_c, 9, 38, 0
4, 17568, Note_on_c, 9, 38, 46
4, 17640, Note_on_c, 9, 38, 0
4, 17726, Note_on_c, 9, 38, 39
4, 18059, Note_on_c, 9, 40, 0
4, 18061, Note_on_c, 9, 39, 53
4, 18070, Note_on_c, 9, 38, 0
4, 18176, Note_on_c, 9, 44, 52
4, 18182, Note_on_c, 9, 40, 33
4, 18207, Note_on_c, 9, 39, 0
4, 18222, Note_on_c, 9, 38, 49
4, 18453, Note_on_c, 9, 44, 0
4, 18965, Note_on_c, 9, 36, 53
4, 19001, Note_on_c, 9, 36, 0
4, 19038, Note_on_c, 9, 40, 0
4, 19041, Note_on_c, 9, 39, 51
4, 19046, Note_on_c, 9, 38, 0
4, 19149, Note_on_c, 9, 59, 63
4, 19151, Note_on_c, 9, 40, 29
4, 19178, Note_on_c, 9, 39, 0
4, 19190, Note_on_c, 9, 38, 45
4, 19467, Note_on_c, 9, 59, 0
4, 19971, Note_on_c, 9, 40, 0
4, 20018, Note_on_c, 9, 38, 0
4, 20073, Note_on_c, 9, 40, 19
4, 20108, Note_on_c, 9, 38, 40
4, 20121, Note_on_c, 9, 46, 38
4, 20577, Note_on_c, 9, 46, 0
4, 20930, Note_on_c, 9, 40, 0
4, 20942, Note_on_c, 9, 38, 0
4, 20946, Note_on_c, 9, 39, 48
4, 21059, Note_on_c, 9, 40, 25
4, 21085, Note_on_c, 9, 39, 0
4, 21096, Note_on_c, 9, 38, 53
4, 21980, Note_on_c, 9, 38, 0
4, 21997, Note_on_c, 9, 40, 0
4, 22042, Note_on_c, 9, 44, 35
4, 22063, Note_on_c, 9, 38, 44
4, 22072, Note_on_c, 9, 40, 29
4, 22202, Note_on_c, 9, 44, 0
4, 22863, Note_on_c, 9, 40, 0
4, 22872, Note_on_c, 9, 59, 38
4, 22873, Note_on_c, 9, 39, 34
4, 22882, Note_on_c, 9, 38, 0
4, 22915, Note_on_c, 9, 59, 0
4, 23023, Note_on_c, 9, 40, 32
4, 23049, Note_on_c, 9, 39, 0
4, 23065, Note_on_c, 9, 38, 37
4, 23080, Note_on_c, 9, 36, 25
4, 23143, Note_on_c, 9, 36, 0
4, 23413, Note_on_c, 9, 40, 0
4, 23436, Note_on_c, 9, 38, 0
4, 23501, Note_on_c, 9, 36, 37
4, 23540, Note_on_c, 9, 40, 28
4, 23541, Note_on_c, 9, 38, 40
4, 23652, Note_on_c, 9, 36, 0
4, 24037, Note_on_c, 9, 39, 48
4, 24049, Note_on_c, 9, 44, 42
4, 24052, Note_on_c, 9, 38, 0
4, 24249, Note_on_c, 9, 40, 0
4, 24329, Note_on_c, 9, 40, 31
4, 24346, Note_on_c, 9, 38, 50
4, 24347, Note_on_c, 9, 39, 0
4, 24376, Note_on_c, 9, 44, 0
4, 24485, Note_on_c, 9, 38, 0
4, 24486, Note_on_c, 9, 40, 0
4, 24528, Note_on_c, 9, 40, 13
4, 24542, Note_on_c, 9, 38, 28
4, 24806, Note_on_c, 9, 36, 24
4, 24852, Note_on_c, 9, 38, 0
4, 24862, Note_on_c, 9, 40, 0
4, 24873, Note_on_c, 9, 36, 0
4, 24956, Note_on_c, 9, 40, 22
4, 24981, Note_on_c, 9, 38, 36
4, 25001, Note_on_c, 9, 36, 22
4, 25303, Note_on_c, 9, 36, 0
4, 25620, Note_on_c, 9, 38, 0
4, 25797, Note_on_c, 9, 38, 47
4, 25878, Note_on_c, 9, 38, 0
4, 25927, Note_on_c, 9, 46, 38
4, 25957, Note_on_c, 9, 38, 40
4, 26225, Note_on_c, 9, 40, 0
4, 26253, Note_on_c, 9, 38, 0
4, 26283, Note_on_c, 9, 39, 35
4, 26418, Note_on_c, 9, 40, 28
4, 26433, Note_on_c, 9, 39, 0
4, 26452, Note_on_c, 9, 38, 43
4, 26488, Note_on_c, 9, 46, 0
4, 26799, Note_on_c, 9, 38, 0
4, 26803, Note_on_c, 9, 40, 0
4, 26892, Note_on_c, 9, 40, 24
4, 26906, Note_on_c, 9, 44, 38
4, 26925, Note_on_c, 9, 38, 37
4, 27303, Note_on_c, 9, 44, 0
4, 27684, Note_on_c, 9, 38, 0
4, 27692, Note_on_c, 9, 40, 0
4, 27703, Note_on_c, 9, 39, 33
4, 27811, Note_on_c, 9, 40, 26
4, 27826, Note_on_c, 9, 39, 0
4, 27839, Note_on_c, 9, 38, 35
4, 28632, Note_on_c, 9, 40, 0
4, 28678, Note_on_c, 9, 38, 0
4, 28738, Note_on_c, 9, 40, 32
4, 28768, Note_on_c, 9, 38, 34
4, 29247, Note_on_c, 9, 44, 36
4, 29494, Note_on_c, 9, 44, 0
4, 29512, Note_on_c, 9, 59, 55
4, 29572, Note_on_c, 9, 59, 0
4, 29618, Note_on_c, 9, 40, 0
4, 29630, Note_on_c, 9, 38, 0
4, 29695, Note_on_c, 9, 40, 28
4, 29700, Note_on_c, 9, 59, 57
4, 29712, Note_on_c, 9, 38, 33
4, 29800, Note_on_c, 9, 59, 0
4, 29844, Note_on_c, 9, 38, 0
4, 30003, Note_on_c, 9, 36, 49
4, 30004, Note_on_c, 9, 38, 40
4, 30081, Note_on_c, 9, 36, 0
4, 30096, Note_on_c, 9, 38, 0
4, 30165, Note_on_c, 9, 44, 38
4, 30181, Note_on_c, 9, 38, 42
4, 30316, Note_on_c, 9, 44, 0
4, 30627, Note_on_c, 9, 40, 0
4, 30645, Note_on_c, 9, 38, 0
4, 30673, Note_on_c, 9, 36, 46
4, 30718, Note_on_c, 9, 40, 22
4, 30727, Note_on_c, 9, 38, 42
4, 30812, Note_on_c, 9, 36, 0
4, 31024, Note_on_c, 9, 38, 0
4, 31131, Note_on_c, 9, 38, 55
4, 31184, Note_on_c, 9, 44, 38
4, 31225, Note_on_c, 9, 38, 0
4, 31298, Note_on_c, 9, 44, 0
4, 31530, Note_on_c, 9, 38, 49
4, 31621, Note_on_c, 9, 40, 0
4, 31632, Note_on_c, 9, 38, 0
4, 31697, Note_on_c, 9, 40, 24
4, 31727, Note_on_c, 9, 38, 42
4, 32068, Note_on_c, 9, 38, 0
4, 32192, Note_on_c, 9, 38, 42
4, 32278, Note_on_c, 9, 38, 0
4, 32440, Note_on_c, 9, 38, 51
4, 32501, Note_on_c, 9, 40, 0
4, 32548, Note_on_c, 9, 38, 0
4, 32623, Note_on_c, 9, 40, 29
4, 32651, Note_on_c, 9, 38, 40
4, 32933, Note_on_c, 9, 38, 0
4, 33136, Note_on_c, 9, 38, 49
4, 33459, Note_on_c, 9, 40, 0
4, 33460, Note_on_c, 9, 38, 0
4, 33584, Note_on_c, 9, 40, 33
4, 33601, Note_on_c, 9, 38, 36
4, 33637, Note_on_c, 9, 36, 27
4, 33841, Note_on_c, 9, 36, 0
4, 34240, Note_on_c, 9, 38, 0
4, 34371, Note_on_c, 9, 38, 51
4, 34448, Note_on_c, 9, 38, 0
4, 34537, Note_on_c, 9, 38, 44
4, 35007, Note_on_c, 9, 38, 0
4, 35023, Note_on_c, 9, 40, 0
4, 35034, Note_on_c, 9, 44, 30
4, 35072, Note_on_c, 9, 38, 64
4, 35101, Note_on_c, 9, 40, 24
4, 35193, Note_on_c, 9, 44, 0
4, 35418, Note_on_c, 9, 40, 0
4, 35438, Note_on_c, 9, 38, 0
4, 35532, Note_on_c, 9, 40, 26
4, 35553, Note_on_c, 9, 38, 38
4, 35893, Note_on_c, 9, 38, 0
4, 36041, Note_on_c, 9, 38, 32
4, 36187, Note_on_c, 9, 38, 0
4, 36278, Note_on_c, 9, 40, 0
4, 36288, Note_on_c, 9, 38, 39
4, 36388, Note_on_c, 9, 38, 0
4, 36459, Note_on_c, 9, 40, 28
4, 36478, Note_on_c, 9, 38, 40
4, 36941, Note_on_c, 9, 44, 34
4, 37070, Note_on_c, 9, 44, 0
4, 37103, Note_on_c, 9, 38, 0
4, 37186, Note_on_c, 9, 38, 55
4, 37265, Note_on_c, 9, 38, 0
4, 37396, Note_on_c, 9, 38, 58
4, 37580, Note_on_c, 9, 40, 0
4, 37615, Note_on_c, 9, 38, 0
4, 37699, Note_on_c, 9, 40, 36
4, 37719, Note_on_c, 9, 38, 53
4, 37861, Note_on_c, 9, 46, 42
4, 37869, Note_on_c, 9, 39, 28
4, 37959, Note_on_c, 9, 39, 0
4, 37992, Note_on_c, 9, 40, 0
4, 37996, Note_on_c, 9, 38, 0
4, 38028, Note_on_c, 9, 46, 0
4, 38053, Note_on_c, 9, 40, 16
4, 38160, Note_on_c, 9, 39, 50
4, 38164, Note_on_c, 9, 40, 0
4, 38234, Note_on_c, 9, 39, 0
4, 38284, Note_on_c, 9, 38, 42
4, 38300, Note_on_c, 9, 40, 33
4, 38355, Note_on_c, 9, 36, 28
4, 38458, Note_on_c, 9, 36, 0
4, 38828, Note_on_c, 9, 36, 30
4, 39099, Note_on_c, 9, 36, 0
4, 39256, Note_on_c, 9, 40, 0
4, 39271, Note_on_c, 9, 38, 0
4, 39337, Note_on_c, 9, 40, 27
4, 39351, Note_on_c, 9, 38, 45
4, 40132, Note_on_c, 9, 38, 0
4, 40237, Note_on_c, 9, 38, 44
4, 40299, Note_on_c, 9, 40, 0
4, 40324, Note_on_c, 9, 38, 0
4, 40422, Note_on_c, 9, 40, 35
4, 40445, Note_on_c, 9, 38, 31
4, 41213, Note_on_c, 9, 38, 0
4, 41217, Note_on_c, 9, 40, 0
4, 41246, Note_on_c, 9, 44, 35
4, 41294, Note_on_c, 9, 40, 29
4, 41301, Note_on_c, 9, 38, 33
4, 41385, Note_on_c, 9, 44, 0
4, 41685, Note_on_c, 9, 38, 0
4, 41756, Note_on_c, 9, 38, 56
4, 41997, Note_on_c, 9, 39, 46
4, 42088, Note_on_c, 9, 39, 0
4, 42088, Note_on_c, 9, 40, 0
4, 42123, Note_on_c, 9, 38, 0
4, 42199, Note_on_c, 9, 57, 13
4, 42205, Note_on_c, 9, 40, 30
4, 42225, Note_on_c, 9, 36, 25
4, 42227, Note_on_c, 9, 38, 38
4, 42461, Note_on_c, 9, 57, 0
4, 42811, Note_on_c, 9, 36, 0
4, 43062, Note_on_c, 9, 40, 0
4, 43064, Note_on_c, 9, 38, 0
4, 43139, Note_on_c, 9, 44, 39
4, 43140, Note_on_c, 9, 40, 25
4, 43147, Note_on_c, 9, 38, 39
4, 43311, Note_on_c, 9, 44, 0
4, 43347, Note_on_c, 9, 38, 0
4, 43457, Note_on_c, 9, 38, 54
4, 43531, Note_on_c, 9, 38, 0
4, 43582, Note_on_c, 9, 40, 0
4, 43606, Note_on_c, 9, 38, 51
4, 43978, Note_on_c, 9, 38, 0
4, 44068, Note_on_c, 9, 40, 30
4, 44089, Note_on_c, 9, 38, 42
4, 44917, Note_on_c, 9, 40, 0
4, 44964, Note_on_c, 9, 38, 0
4, 45012, Note_on_c, 9, 40, 32
4, 45038, Note_on_c, 9, 38, 51
4, 45056, Note_on_c, 9, 46, 37
4, 45275, Note_on_c, 9, 46, 0
4, 45288, Note_on_c, 9, 38, 0
4, 45379, Note_on_c, 9, 38, 45
4, 45696, Note_on_c, 9, 38, 0
4, 45762, Note_on_c, 9, 40, 0
4, 45829, Note_on_c, 9, 38, 44
4, 45900, Note_on_c, 9, 38, 0
4, 45986, Note_on_c, 9, 40, 32
4, 46007, Note_on_c, 9, 38, 40
4, 46839, Note_on_c, 9, 40, 0
4, 46875, Note_on_c, 9, 38, 0
4, 46931, Note_on_c, 9, 39, 37
4, 46955, Note_on_c, 9, 40, 24
4, 46961, Note_on_c, 9, 38, 40
4, 46961, Note_on_c, 9, 44, 35
4, 46999, Note_on_c, 9, 39, 0
4, 47176, Note_on_c, 9, 44, 0
4, 47230, Note_on_c, 9, 39, 42
4, 47317, Note_on_c, 9, 39, 0
4, 47457, Note_on_c, 9, 36, 46
4, 47605, Note_on_c, 9, 38, 0
4, 47721, Note_on_c, 9, 38, 46
4, 47724, Note_on_c, 9, 40, 0
4, 47808, Note_on_c, 9, 38, 0
4, 47880, Note_on_c, 9, 40, 30
4, 47901, Note_on_c, 9, 38, 39
4, 48539, Note_on_c, 9, 36, 0
4, 48788, Note_on_c, 9, 40, 0
4, 48815, Note_on_c, 9, 38, 0
4, 48863, Note_on_c, 9, 46, 35
4, 48891, Note_on_c, 9, 40, 28
4, 48905, Note_on_c, 9, 38, 36
4, 49089, Note_on_c, 9, 46, 0
4, 49622, Note_on_c, 9, 38, 0
4, 49671, Note_on_c, 9, 40, 0
4, 49747, Note_on_c, 9, 38, 45
4, 49849, Note_on_c, 9, 38, 0
4, 49926, Note_on_c, 9, 40, 30
4, 49946, Note_on_c, 9, 38, 38
4, 50558, Note_on_c, 9, 38, 0
4, 50722, Note_on_c, 9, 40, 0
4, 50723, Note_on_c, 9, 38, 51
4, 50804, Note_on_c, 9, 38, 0
4, 50844, Note_on_c, 9, 44, 45
4, 50857, Note_on_c, 9, 40, 28
4, 50883, Note_on_c, 9, 38, 40
4, 51072, Note_on_c, 9, 44, 0
4, 51184, Note_on_c, 9, 39, 53
4, 51186, Note_on_c, 9, 40, 0
4, 51210, Note_on_c, 9, 38, 0
4, 51339, Note_on_c, 9, 39, 0
4, 51350, Note_on_c, 9, 40, 29
4, 51366, Note_on_c, 9, 38, 24
4, 51551, Note_on_c, 9, 38, 0
4, 51576, Note_on_c, 9, 40, 0
4, 51639, Note_on_c, 9, 38, 42
4, 51738, Note_on_c, 9, 38, 0
4, 51816, Note_on_c, 9, 40, 32
4, 51822, Note_on_c, 9, 39, 49
4, 51822, Note_on_c, 9, 38, 30
4, 51930, Note_on_c, 9, 39, 0
4, 51985, Note_on_c, 9, 39, 49
4, 52016, Note_on_c, 9, 39, 0
4, 52134, Note_on_c, 9, 36, 49
4, 52237, Note_on_c, 9, 36, 0
4, 52628, Note_on_c, 9, 40, 0
4, 52664, Note_on_c, 9, 38, 0
4, 52761, Note_on_c, 9, 38, 32
4, 52763, Note_on_c, 9, 40, 31
4, 52769, Note_on_c, 9, 46, 46
4, 52819, Note_on_c, 9, 36, 33
4, 52951, Note_on_c, 9, 36, 0
4, 52970, Note_on_c, 9, 46, 0
4, 53054, Note_on_c, 9, 38, 0
4, 53066, Note_on_c, 9, 39, 71
4, 53147, Note_on_c, 9, 39, 0
4, 53458, Note_on_c, 9, 40, 0
4, 53517, Note_on_c, 9, 39, 60
4, 53667, Note_on_c, 9, 39, 0
4, 53692, Note_on_c, 9, 38, 46
4, 53692, Note_on_c, 9, 40, 30
4, 54044, Note_on_c, 9, 38, 0
4, 54111, Note_on_c, 9, 40, 0
4, 54165, Note_on_c, 9, 40, 33
4, 54183, Note_on_c, 9, 38, 53
4, 54638, Note_on_c, 9, 44, 38
4, 54837, Note_on_c, 9, 44, 0
4, 54952, Note_on_c, 9, 39, 37
4, 54964, Note_on_c, 9, 40, 0
4, 54975, Note_on_c, 9, 39, 40
4, 54988, Note_on_c, 9, 38, 0
4, 54998, Note_on_c, 9, 39, 0
4, 55123, Note_on_c, 9, 40, 36
4, 55127, Note_on_c, 9, 39, 0
4, 55143, Note_on_c, 9, 38, 48
4, 55492, Note_on_c, 9, 40, 0
4, 55516, Note_on_c, 9, 38, 0
4, 55616, Note_on_c, 9, 40, 31
4, 55638, Note_on_c, 9, 38, 31
4, 55663, Note_on_c, 9, 36, 41
4, 55754, Note_on_c, 9, 36, 0
4, 56496, Note_on_c, 9, 38, 0
4, 56501, Note_on_c, 9, 40, 0
4, 56566, Note_on_c, 9, 40, 20
4, 56588, Note_on_c, 9, 38, 45
4, 56594, Note_on_c, 9, 44, 34
4, 56774, Note_on_c, 9, 44, 0
4, 56866, Note_on_c, 9, 38, 0
4, 56886, Note_on_c, 9, 39, 49
4, 56948, Note_on_c, 9, 40, 0
4, 57019, Note_on_c, 9, 39, 0
4, 57061, Note_on_c, 9, 38, 34
4, 57101, Note_on_c, 9, 40, 13
4, 57209, Note_on_c, 9, 38, 0
4, 57263, Note_on_c, 9, 40, 0
4, 57349, Note_on_c, 9, 40, 24
4, 57367, Note_on_c, 9, 38, 36
4, 57368, Note_on_c, 9, 39, 31
4, 57419, Note_on_c, 9, 39, 0
4, 57457, Note_on_c, 9, 38, 0
4, 57472, Note_on_c, 9, 40, 0
4, 57539, Note_on_c, 9, 40, 24
4, 57552, Note_on_c, 9, 38, 31
4, 57554, Note_on_c, 9, 36, 22
4, 57694, Note_on_c, 9, 36, 0
4, 58061, Note_on_c, 9, 44, 42
4, 58241, Note_on_c, 9, 44, 0
4, 58367, Note_on_c, 9, 40, 0
4, 58392, Note_on_c, 9, 38, 0
4, 58489, Note_on_c, 9, 40, 29
4, 58497, Note_on_c, 9, 38, 33
4, 58512, Note_on_c, 9, 59, 41
4, 58708, Note_on_c, 9, 59, 0
4, 58963, Note_on_c, 9, 59, 46
4, 58991, Note_on_c, 9, 44, 36
4, 59142, Note_on_c, 9, 59, 0
4, 59150, Note_on_c, 9, 44, 0
4, 59309, Note_on_c, 9, 39, 59
4, 59337, Note_on_c, 9, 40, 0
4, 59340, Note_on_c, 9, 38, 0
4, 59449, Note_on_c, 9, 39, 0
4, 59485, Note_on_c, 9, 40, 26
4, 59492, Note_on_c, 9, 38, 35
4, 60298, Note_on_c, 9, 40, 0
4, 60300, Note_on_c, 9, 39, 50
4, 60330, Note_on_c, 9, 38, 0
4, 60450, Note_on_c, 9, 39, 0
4, 60468, Note_on_c, 9, 40, 29
4, 60471, Note_on_c, 9, 38, 48
4, 60480, Note_on_c, 9, 59, 34
4, 60671, Note_on_c, 9, 59, 0
4, 60784, Note_on_c, 9, 36, 27
4, 60829, Note_on_c, 9, 36, 0
4, 60832, Note_on_c, 9, 40, 0
4, 60877, Note_on_c, 9, 38, 0
4, 60949, Note_on_c, 9, 46, 36
4, 60961, Note_on_c, 9, 40, 36
4, 60970, Note_on_c, 9, 38, 37
4, 61028, Note_on_c, 9, 46, 0
4, 61170, Note_on_c, 9, 40, 0
4, 61231, Note_on_c, 9, 38, 0
4, 61265, Note_on_c, 9, 40, 43
4, 61331, Note_on_c, 9, 40, 0
4, 61388, Note_on_c, 9, 52, 19
4, 61416, Note_on_c, 9, 40, 31
4, 61596, Note_on_c, 9, 52, 0
4, 61978, Note_on_c, 9, 44, 58
4, 62138, Note_on_c, 9, 40, 0
4, 62158, Note_on_c, 9, 44, 0
4, 62191, Note_on_c, 9, 40, 25
4, 62276, Note_on_c, 9, 40, 0
4, 62348, Note_on_c, 9, 40, 29
4, 62694, Note_on_c, 9, 38, 45
4, 62695, Note_on_c, 9, 40, 0
4, 62798, Note_on_c, 9, 38, 0
4, 62922, Note_on_c, 9, 40, 8
4, 63094, Note_on_c, 9, 40, 0
4, 63174, Note_on_c, 9, 40, 40
4, 63305, Note_on_c, 9, 40, 0
4, 63341, Note_on_c, 9, 40, 19
4, 63816, Note_on_c, 9, 44, 35
4, 63957, Note_on_c, 9, 44, 0
4, 64220, Note_on_c, 9, 40, 0
4, 64263, Note_on_c, 9, 40, 28
4, 64591, Note_on_c, 9, 38, 41
4, 64691, Note_on_c, 9, 38, 0
4, 64711, Note_on_c, 9, 46, 36
4, 65045, Note_on_c, 9, 38, 51
4, 65096, Note_on_c, 9, 40, 0
4, 65101, Note_on_c, 9, 38, 0
4, 65229, Note_on_c, 9, 40, 36
4, 65282, Note_on_c, 9, 46, 0
4, 65665, Note_on_c, 9, 40, 0
4, 65728, Note_on_c, 9, 44, 36
4, 65851, Note_on_c, 9, 40, 37
4, 65923, Note_on_c, 9, 44, 0
4, 66194, Note_on_c, 9, 40, 0
4, 66288, Note_on_c, 9, 40, 32
4, 67051, Note_on_c, 9, 40, 0
4, 67053, Note_on_c, 9, 38, 45
4, 67157, Note_on_c, 9, 38, 0
4, 67202, Note_on_c, 9, 40, 30
4, 67632, Note_on_c, 9, 40, 0
4, 67681, Note_on_c, 9, 40, 38
4, 68120, Note_on_c, 9, 40, 0
4, 68176, Note_on_c, 9, 40, 35
4, 68177, Note_on_c, 9, 39, 23
4, 68237, Note_on_c, 9, 39, 0
4, 68440, Note_on_c, 9, 39, 45
4, 68500, Note_on_c, 9, 39, 0
4, 68735, Note_on_c, 9, 44, 37
4, 68765, Note_on_c, 9, 44, 0
4, 68909, Note_on_c, 9, 36, 36
4, 68954, Note_on_c, 9, 38, 55
4, 68965, Note_on_c, 9, 40, 0
4, 68967, Note_on_c, 9, 36, 0
4, 69042, Note_on_c, 9, 38, 0
4, 69103, Note_on_c, 9, 40, 24
4, 69125, Note_on_c, 9, 36, 16
4, 69307, Note_on_c, 9, 36, 0
4, 69505, Note_on_c, 9, 40, 0
4, 69554, Note_on_c, 9, 36, 37
4, 69584, Note_on_c, 9, 40, 30
4, 69911, Note_on_c, 9, 36, 0
4, 70059, Note_on_c, 9, 44, 31
4, 70208, Note_on_c, 9, 44, 0
4, 70360, Note_on_c, 9, 38, 44
4, 70442, Note_on_c, 9, 40, 0
4, 70443, Note_on_c, 9, 38, 0
4, 70509, Note_on_c, 9, 40, 32
4, 70913, Note_on_c, 9, 40, 0
4, 71012, Note_on_c, 9, 40, 30
4, 71780, Note_on_c, 9, 40, 0
4, 71975, Note_on_c, 9, 44, 34
4, 71987, Note_on_c, 9, 40, 35
4, 72108, Note_on_c, 9, 44, 0
4, 72301, Note_on_c, 9, 40, 0
4, 72305, Note_on_c, 9, 39, 69
4, 72408, Note_on_c, 9, 39, 0
4, 72504, Note_on_c, 9, 40, 22
4, 72775, Note_on_c, 9, 40, 0
4, 72793, Note_on_c, 9, 38, 50
4, 72876, Note_on_c, 9, 38, 0
4, 72973, Note_on_c, 9, 38, 40
4, 73271, Note_on_c, 9, 38, 0
4, 73300, Note_on_c, 9, 40, 44
4, 73408, Note_on_c, 9, 40, 0
4, 73486, Note_on_c, 9, 40, 27
4, 73856, Note_on_c, 9, 40, 0
4, 73978, Note_on_c, 9, 40, 25
4, 73993, Note_on_c, 9, 44, 39
4, 74142, Note_on_c, 9, 44, 0
4, 74748, Note_on_c, 9, 40, 0
4, 74850, Note_on_c, 9, 40, 44
4, 75214, Note_on_c, 9, 37, 51
4, 75284, Note_on_c, 9, 37, 0
4, 75381, Note_on_c, 9, 46, 37
4, 75584, Note_on_c, 9, 37, 47
4, 75719, Note_on_c, 9, 37, 0
4, 75798, Note_on_c, 9, 40, 0
4, 75870, Note_on_c, 9, 40, 44
4, 75930, Note_on_c, 9, 37, 44
4, 76124, Note_on_c, 9, 37, 0
4, 76176, Note_on_c, 9, 38, 54
4, 76205, Note_on_c, 9, 40, 0
4, 76265, Note_on_c, 9, 37, 34
4, 76282, Note_on_c, 9, 38, 0
4, 76313, Note_on_c, 9, 46, 0
4, 76371, Note_on_c, 9, 40, 33
4, 76375, Note_on_c, 9, 37, 0
4, 76576, Note_on_c, 9, 37, 45
4, 76590, Note_on_c, 9, 40, 0
4, 76634, Note_on_c, 9, 37, 0
4, 76643, Note_on_c, 9, 38, 31
4, 76692, Note_on_c, 9, 57, 27
4, 76698, Note_on_c, 9, 38, 0
4, 76765, Note_on_c, 9, 57, 0
4, 76770, Note_on_c, 9, 36, 53
4, 76777, Note_on_c, 9, 40, 26
4, 76859, Note_on_c, 9, 36, 0
4, 77205, Note_on_c, 9, 40, 0
4, 77291, Note_on_c, 9, 40, 20
4, 77729, Note_on_c, 9, 40, 0
4, 77781, Note_on_c, 9, 40, 35
4, 77800, Note_on_c, 9, 44, 38
4, 77938, Note_on_c, 9, 44, 0
4, 78073, Note_on_c, 9, 40, 0
4, 78099, Note_on_c, 9, 38, 37
4, 78201, Note_on_c, 9, 38, 0
4, 78277, Note_on_c, 9, 40, 24
4, 78631, Note_on_c, 9, 40, 0
4, 78757, Note_on_c, 9, 40, 33
4, 79454, Note_on_c, 9, 40, 0
4, 79497, Note_on_c, 9, 40, 45
4, 79601, Note_on_c, 9, 40, 0
4, 79642, Note_on_c, 9, 44, 36
4, 79668, Note_on_c, 9, 40, 34
4, 79766, Note_on_c, 9, 44, 0
4, 80401, Note_on_c, 9, 40, 0
4, 80465, Note_on_c, 9, 40, 47
4, 80580, Note_on_c, 9, 40, 0
4, 80630, Note_on_c, 9, 40, 35
4, 80939, Note_on_c, 9, 39, 67
4, 80972, Note_on_c, 9, 40, 0
4, 81054, Note_on_c, 9, 39, 0
4, 81131, Note_on_c, 9, 40, 28
4, 81385, Note_on_c, 9, 40, 0
4, 81431, Note_on_c, 9, 38, 44
4, 81522, Note_on_c, 9, 38, 0
4, 81571, Note_on_c, 9, 40, 36
4, 81592, Note_on_c, 9, 44, 37
4, 81743, Note_on_c, 9, 44, 0
4, 81960, Note_on_c, 9, 40, 0
4, 82059, Note_on_c, 9, 40, 27
4, 82377, Note_on_c, 9, 39, 56
4, 82440, Note_on_c, 9, 39, 0
4, 82832, Note_on_c, 9, 40, 0
4, 82857, Note_on_c, 9, 36, 46
4, 82871, Note_on_c, 9, 40, 22
4, 82954, Note_on_c, 9, 36, 0
4, 83066, Note_on_c, 9, 36, 22
4, 83200, Note_on_c, 9, 36, 0
4, 83310, Note_on_c, 9, 40, 0
4, 83546, Note_on_c, 9, 40, 50
4, 83855, Note_on_c, 9, 40, 0
4, 83861, Note_on_c, 9, 38, 49
4, 83957, Note_on_c, 9, 38, 0
4, 84054, Note_on_c, 9, 40, 24
4, 84303, Note_on_c, 9, 40, 0
4, 84326, Note_on_c, 9, 38, 29
4, 84424, Note_on_c, 9, 38, 0
4, 84498, Note_on_c, 9, 40, 30
4, 84899, Note_on_c, 9, 40, 0
4, 84988, Note_on_c, 9, 40, 30
4, 84994, Note_on_c, 9, 44, 33
4, 85163, Note_on_c, 9, 44, 0
4, 85183, Note_on_c, 9, 40, 0
4, 85295, Note_on_c, 9, 40, 30
4, 85386, Note_on_c, 9, 40, 0
4, 85435, Note_on_c, 9, 40, 32
4, 85880, Note_on_c, 9, 44, 34
4, 86053, Note_on_c, 9, 44, 0
4, 86197, Note_on_c, 9, 38, 46
4, 86205, Note_on_c, 9, 40, 0
4, 86283, Note_on_c, 9, 38, 0
4, 86338, Note_on_c, 9, 40, 34
4, 86690, Note_on_c, 9, 40, 0
4, 86826, Note_on_c, 9, 40, 32
4, 87188, Note_on_c, 9, 40, 0
4, 87311, Note_on_c, 9, 40, 30
4, 87639, Note_on_c, 9, 38, 34
4, 87649, Note_on_c, 9, 39, 33
4, 87697, Note_on_c, 9, 39, 0
4, 87713, Note_on_c, 9, 40, 0
4, 87728, Note_on_c, 9, 38, 0
4, 87775, Note_on_c, 9, 44, 51
4, 87824, Note_on_c, 9, 40, 26
4, 87923, Note_on_c, 9, 44, 0
4, 88124, Note_on_c, 9, 36, 39
4, 88207, Note_on_c, 9, 40, 0
4, 88216, Note_on_c, 9, 36, 0
4, 88300, Note_on_c, 9, 40, 31
4, 88315, Note_on_c, 9, 36, 33
4, 88424, Note_on_c, 9, 36, 0
4, 88744, Note_on_c, 9, 44, 50
4, 88874, Note_on_c, 9, 44, 0
4, 89101, Note_on_c, 9, 38, 52
4, 89156, Note_on_c, 9, 40, 0
4, 89175, Note_on_c, 9, 38, 0
4, 89290, Note_on_c, 9, 40, 34
4, 89744, Note_on_c, 9, 44, 35
4, 89880, Note_on_c, 9, 44, 0
4, 90029, Note_on_c, 9, 39, 28
4, 90076, Note_on_c, 9, 39, 0
4, 90076, Note_on_c, 9, 40, 0
4, 90082, Note_on_c, 9, 39, 53
4, 90173, Note_on_c, 9, 39, 0
4, 90255, Note_on_c, 9, 59, 77
4, 90273, Note_on_c, 9, 40, 30
4, 90520, Note_on_c, 9, 59, 0
4, 90702, Note_on_c, 9, 44, 44
4, 90842, Note_on_c, 9, 44, 0
4, 91046, Note_on_c, 9, 39, 57
4, 91046, Note_on_c, 9, 39, 57
4, 91098, Note_on_c, 9, 40, 0
4, 91113, Note_on_c, 9, 39, 0
4, 91115, Note_on_c, 9, 39, 0
4, 91214, Note_on_c, 9, 59, 61
4, 91232, Note_on_c, 9, 40, 22
4, 91529, Note_on_c, 9, 38, 57
4, 91534, Note_on_c, 9, 40, 0
4, 91609, Note_on_c, 9, 38, 0
4, 91619, Note_on_c, 9, 59, 0
4, 91665, Note_on_c, 9, 46, 33
4, 91717, Note_on_c, 9, 40, 26
4, 91794, Note_on_c, 9, 46, 0
4, 91959, Note_on_c, 9, 40, 0
4, 91965, Note_on_c, 9, 34, 40
4, 91981, Note_on_c, 9, 38, 55
4, 92053, Note_on_c, 9, 34, 0
4, 92054, Note_on_c, 9, 38, 0
4, 92157, Note_on_c, 9, 52, 25
4, 92168, Note_on_c, 9, 36, 46
4, 92182, Note_on_c, 9, 40, 47
4, 92190, Note_on_c, 9, 38, 20
4, 92298, Note_on_c, 9, 38, 0
4, 92419, Note_on_c, 9, 52, 0
4, 92473, Note_on_c, 9, 40, 0
4, 92677, Note_on_c, 9, 40, 32
4, 92871, Note_on_c, 9, 36, 0
4, 93050, Note_on_c, 9, 40, 0
4, 93164, Note_on_c, 9, 44, 29
4, 93178, Note_on_c, 9, 40, 24
4, 93285, Note_on_c, 9, 44, 0
4, 93947, Note_on_c, 9, 38, 40
4, 93994, Note_on_c, 9, 40, 0
4, 94035, Note_on_c, 9, 38, 0
4, 94141, Note_on_c, 9, 40, 25
4, 94487, Note_on_c, 9, 40, 0
4, 94579, Note_on_c, 9, 40, 30
4, 95088, Note_on_c, 9, 44, 40
4, 95301, Note_on_c, 9, 44, 0
4, 95346, Note_on_c, 9, 40, 0
4, 95348, Note_on_c, 9, 38, 57
4, 95462, Note_on_c, 9, 38, 0
4, 95535, Note_on_c, 9, 40, 33
4, 95828, Note_on_c, 9, 38, 54
4, 95864, Note_on_c, 9, 40, 0
4, 95941, Note_on_c, 9, 38, 0
4, 96015, Note_on_c, 9, 40, 32
4, 96393, Note_on_c, 9, 40, 0
4, 96491, Note_on_c, 9, 40, 33
4, 96872, Note_on_c, 9, 40, 0
4, 96955, Note_on_c, 9, 40, 36
4, 96973, Note_on_c, 9, 44, 37
4, 97122, Note_on_c, 9, 44, 0
4, 97275, Note_on_c, 9, 38, 46
4, 97364, Note_on_c, 9, 40, 0
4, 97381, Note_on_c, 9, 38, 0
4, 97449, Note_on_c, 9, 40, 22
4, 97734, Note_on_c, 9, 38, 39
4, 97778, Note_on_c, 9, 40, 0
4, 97818, Note_on_c, 9, 38, 0
4, 97916, Note_on_c, 9, 40, 35
4, 98294, Note_on_c, 9, 40, 0
4, 98397, Note_on_c, 9, 40, 19
4, 98814, Note_on_c, 9, 40, 0
4, 98873, Note_on_c, 9, 44, 48
4, 98883, Note_on_c, 9, 40, 37
4, 99136, Note_on_c, 9, 44, 0
4, 99619, Note_on_c, 9, 40, 0
4, 99641, Note_on_c, 9, 38, 43
4, 99743, Note_on_c, 9, 38, 0
4, 99790, Note_on_c, 9, 36, 25
4, 99791, Note_on_c, 9, 40, 35
4, 99920, Note_on_c, 9, 36, 0
4, 100128, Note_on_c, 9, 38, 26
4, 100176, Note_on_c, 9, 38, 0
4, 100266, Note_on_c, 9, 38, 47
4, 100273, Note_on_c, 9, 36, 26
4, 100465, Note_on_c, 9, 36, 0
4, 100599, Note_on_c, 9, 38, 0
4, 100651, Note_on_c, 9, 40, 0
4, 100742, Note_on_c, 9, 40, 30
4, 100749, Note_on_c, 9, 44, 36
4, 100901, Note_on_c, 9, 44, 0
4, 101511, Note_on_c, 9, 38, 44
4, 101535, Note_on_c, 9, 40, 0
4, 101608, Note_on_c, 9, 38, 0
4, 101791, Note_on_c, 9, 40, 1
4, 102030, Note_on_c, 9, 38, 34
4, 102035, Note_on_c, 9, 40, 0
4, 102114, Note_on_c, 9, 38, 0
4, 102193, Note_on_c, 9, 40, 36
4, 102584, Note_on_c, 9, 40, 0
4, 102654, Note_on_c, 9, 46, 34
4, 102677, Note_on_c, 9, 40, 44
4, 102840, Note_on_c, 9, 46, 0
4, 103463, Note_on_c, 9, 40, 0
4, 103472, Note_on_c, 9, 39, 64
4, 103584, Note_on_c, 9, 39, 0
4, 103618, Note_on_c, 9, 40, 35
4, 103945, Note_on_c, 9, 40, 0
4, 103950, Note_on_c, 9, 38, 36
4, 104056, Note_on_c, 9, 38, 0
4, 104119, Note_on_c, 9, 40, 36
4, 104576, Note_on_c, 9, 44, 34
4, 104715, Note_on_c, 9, 44, 0
4, 104905, Note_on_c, 9, 40, 0
4, 104921, Note_on_c, 9, 38, 27
4, 105049, Note_on_c, 9, 38, 0
4, 105069, Note_on_c, 9, 40, 29
4, 105863, Note_on_c, 9, 38, 37
4, 105911, Note_on_c, 9, 40, 0
4, 105966, Note_on_c, 9, 38, 0
4, 106037, Note_on_c, 9, 40, 38
4, 106416, Note_on_c, 9, 40, 0
4, 106513, Note_on_c, 9, 44, 36
4, 106519, Note_on_c, 9, 40, 34
4, 106662, Note_on_c, 9, 44, 0
4, 106882, Note_on_c, 9, 39, 74
4, 106912, Note_on_c, 9, 40, 0
4, 106964, Note_on_c, 9, 39, 0
4, 107025, Note_on_c, 9, 38, 45
4, 107228, Note_on_c, 9, 38, 0
4, 107324, Note_on_c, 9, 38, 45
4, 107325, Note_on_c, 9, 36, 43
4, 107364, Note_on_c, 9, 36, 0
4, 107419, Note_on_c, 9, 38, 0
4, 107498, Note_on_c, 9, 40, 52
4, 107504, Note_on_c, 9, 36, 28
4, 107511, Note_on_c, 9, 38, 34
4, 107659, Note_on_c, 9, 36, 0
4, 107857, Note_on_c, 9, 40, 0
4, 107958, Note_on_c, 9, 40, 33
4, 108362, Note_on_c, 9, 40, 0
4, 108421, Note_on_c, 9, 44, 40
4, 108448, Note_on_c, 9, 40, 34
4, 108584, Note_on_c, 9, 44, 0
4, 109104, Note_on_c, 9, 38, 0
4, 109257, Note_on_c, 9, 38, 30
4, 109267, Note_on_c, 9, 40, 0
4, 109397, Note_on_c, 9, 38, 0
4, 109412, Note_on_c, 9, 40, 47
4, 110131, Note_on_c, 9, 40, 0
4, 110228, Note_on_c, 9, 36, 28
4, 110229, Note_on_c, 9, 40, 49
4, 110276, Note_on_c, 9, 36, 0
4, 110358, Note_on_c, 9, 40, 0
4, 110406, Note_on_c, 9, 40, 36
4, 110426, Note_on_c, 9, 44, 38
4, 110522, Note_on_c, 9, 44, 0
4, 110710, Note_on_c, 9, 36, 49
4, 110730, Note_on_c, 9, 38, 45
4, 110774, Note_on_c, 9, 40, 0
4, 110800, Note_on_c, 9, 36, 0
4, 110831, Note_on_c, 9, 38, 0
4, 110879, Note_on_c, 9, 40, 30
4, 111156, Note_on_c, 9, 38, 50
4, 111167, Note_on_c, 9, 36, 38
4, 111201, Note_on_c, 9, 40, 0
4, 111214, Note_on_c, 9, 36, 0
4, 111267, Note_on_c, 9, 38, 0
4, 111318, Note_on_c, 9, 40, 24
4, 111345, Note_on_c, 9, 36, 38
4, 111456, Note_on_c, 9, 36, 0
4, 111765, Note_on_c, 9, 44, 34
4, 111889, Note_on_c, 9, 44, 0
4, 112038, Note_on_c, 9, 40, 0
4, 112086, Note_on_c, 9, 40, 31
4, 112193, Note_on_c, 9, 40, 0
4, 112256, Note_on_c, 9, 40, 33
4, 112924, Note_on_c, 9, 40, 0
4, 113031, Note_on_c, 9, 40, 38
4, 113161, Note_on_c, 9, 40, 0
4, 113203, Note_on_c, 9, 40, 30
4, 113492, Note_on_c, 9, 38, 55
4, 113504, Note_on_c, 9, 40, 0
4, 113625, Note_on_c, 9, 38, 0
4, 113663, Note_on_c, 9, 44, 39
4, 113673, Note_on_c, 9, 40, 25
4, 113725, Note_on_c, 9, 44, 0
4, 113946, Note_on_c, 9, 40, 0
4, 113956, Note_on_c, 9, 38, 41
4, 113968, Note_on_c, 9, 36, 28
4, 114020, Note_on_c, 9, 36, 0
4, 114047, Note_on_c, 9, 38, 0
4, 114126, Note_on_c, 9, 40, 32
4, 114151, Note_on_c, 9, 51, 39
4, 114383, Note_on_c, 9, 40, 0
4, 114391, Note_on_c, 9, 51, 0
4, 114429, Note_on_c, 9, 40, 26
4, 114524, Note_on_c, 9, 40, 0
4, 114595, Note_on_c, 9, 51, 46
4, 114600, Note_on_c, 9, 40, 32
4, 114615, Note_on_c, 9, 46, 38
4, 114848, Note_on_c, 9, 51, 0
4, 114898, Note_on_c, 9, 38, 25
4, 114920, Note_on_c, 9, 40, 0
4, 115034, Note_on_c, 9, 38, 0
4, 115054, Note_on_c, 9, 46, 0
4, 115054, Note_on_c, 9, 40, 44
4, 115084, Note_on_c, 9, 36, 28
4, 115239, Note_on_c, 9, 36, 0
4, 115529, Note_on_c, 9, 40, 0
4, 115596, Note_on_c, 9, 36, 46
4, 115602, Note_on_c, 9, 44, 34
4, 115622, Note_on_c, 9, 40, 33
4, 115718, Note_on_c, 9, 44, 0
4, 115745, Note_on_c, 9, 36, 0
4, 116454, Note_on_c, 9, 38, 50
4, 116494, Note_on_c, 9, 40, 0
4, 116511, Note_on_c, 9, 38, 0
4, 116641, Note_on_c, 9, 40, 30
4, 116932, Note_on_c, 9, 38, 39
4, 116956, Note_on_c, 9, 40, 0
4, 117079, Note_on_c, 9, 38, 0
4, 117135, Note_on_c, 9, 40, 34
4, 117542, Note_on_c, 9, 40, 0
4, 117652, Note_on_c, 9, 40, 32
4, 117930, Note_on_c, 9, 36, 31
4, 118001, Note_on_c, 9, 36, 0
4, 118026, Note_on_c, 9, 40, 0
4, 118129, Note_on_c, 9, 44, 36
4, 118135, Note_on_c, 9, 40, 33
4, 118142, Note_on_c, 9, 51, 46
4, 118254, Note_on_c, 9, 44, 0
4, 118432, Note_on_c, 9, 51, 0
4, 118440, Note_on_c, 9, 38, 33
4, 118486, Note_on_c, 9, 40, 0
4, 118596, Note_on_c, 9, 38, 0
4, 118606, Note_on_c, 9, 51, 37
4, 118654, Note_on_c, 9, 40, 16
4, 118838, Note_on_c, 9, 51, 0
4, 118879, Note_on_c, 9, 40, 0
4, 118916, Note_on_c, 9, 40, 42
4, 119040, Note_on_c, 9, 40, 0
4, 119116, Note_on_c, 9, 40, 35
4, 119426, Note_on_c, 9, 38, 38
4, 119450, Note_on_c, 9, 40, 0
4, 119540, Note_on_c, 9, 38, 0
4, 119596, Note_on_c, 9, 44, 42
4, 119599, Note_on_c, 9, 40, 31
4, 119751, Note_on_c, 9, 44, 0
4, 119927, Note_on_c, 9, 36, 24
4, 119972, Note_on_c, 9, 36, 0
4, 120017, Note_on_c, 9, 40, 0
4, 120100, Note_on_c, 9, 40, 35
4, 120560, Note_on_c, 9, 44, 44
4, 120747, Note_on_c, 9, 44, 0
4, 120873, Note_on_c, 9, 38, 46
4, 120901, Note_on_c, 9, 40, 0
4, 120922, Note_on_c, 9, 38, 0
4, 121046, Note_on_c, 9, 40, 37
4, 121488, Note_on_c, 9, 44, 52
4, 121625, Note_on_c, 9, 44, 0
4, 121820, Note_on_c, 9, 39, 49
4, 121844, Note_on_c, 9, 40, 0
4, 121951, Note_on_c, 9, 39, 0
4, 122004, Note_on_c, 9, 59, 80
4, 122011, Note_on_c, 9, 40, 44
4, 122316, Note_on_c, 9, 37, 51
4, 122382, Note_on_c, 9, 37, 0
4, 122472, Note_on_c, 9, 44, 35
4, 122540, Note_on_c, 9, 44, 0
4, 122762, Note_on_c, 9, 37, 32
4, 122786, Note_on_c, 9, 39, 67
4, 122791, Note_on_c, 9, 59, 0
4, 122834, Note_on_c, 9, 40, 0
4, 122852, Note_on_c, 9, 37, 0
4, 122880, Program_c, 9, 0
4, 122880, Note_on_c, 9, 59, 45
4, 122880, Note_on_c, 9, 59, 0
4, 122880, Note_on_c, 9, 59, 87
4, 122933, Note_on_c, 9, 36, 33
4, 122936, Note_on_c, 9, 39, 0
4, 122951, Note_on_c, 9, 40, 58
4, 122958, Note_on_c, 9, 36, 30
4, 122983, Note_on_c, 9, 59, 91
4, 123007, Note_on_c, 9, 40, 0
4, 123008, Note_on_c, 9, 36, 0
4, 123090, Note_on_c, 9, 36, 0
4, 123113, Note_on_c, 9, 59, 0
4, 123193, Note_on_c, 9, 59, 0
4, 123381, Note_on_c, 9, 59, 81
4, 123668, Note_on_c, 9, 59, 0
4, 123743, Note_on_c, 9, 59, 38
4, 123819, Note_on_c, 9, 59, 0
4, 123876, Note_on_c, 9, 44, 50
4, 123879, Note_on_c, 9, 59, 77
4, 124028, Note_on_c, 9, 44, 0
4, 124518, Note_on_c, 9, 59, 0
4, 124586, Note_on_c, 9, 59, 47
4, 124654, Note_on_c, 9, 59, 0
4, 124721, Note_on_c, 9, 59, 72
4, 124921, Note_on_c, 9, 59, 0
4, 125207, Note_on_c, 9, 59, 87
4, 125219, Note_on_c, 9, 44, 48
4, 125428, Note_on_c, 9, 44, 0
4, 125479, Note_on_c, 9, 59, 0
4, 126010, Note_on_c, 9, 38, 39
4, 126046, Note_on_c, 9, 59, 54
4, 126076, Note_on_c, 9, 38, 0
4, 126109, Note_on_c, 9, 59, 0
4, 126170, Note_on_c, 9, 44, 46
4, 126183, Note_on_c, 9, 36, 33
4, 126188, Note_on_c, 9, 59, 70
4, 126289, Note_on_c, 9, 36, 0
4, 126396, Note_on_c, 9, 59, 0
4, 126396, Note_on_c, 9, 44, 0
4, 126471, Note_on_c, 9, 36, 50
4, 126498, Note_on_c, 9, 59, 56
4, 126531, Note_on_c, 9, 59, 0
4, 126566, Note_on_c, 9, 36, 0
4, 126631, Note_on_c, 9, 59, 78
4, 126659, Note_on_c, 9, 36, 39
4, 126884, Note_on_c, 9, 59, 0
4, 126897, Note_on_c, 9, 36, 0
4, 127136, Note_on_c, 9, 59, 70
4, 127390, Note_on_c, 9, 59, 0
4, 127642, Note_on_c, 9, 59, 73
4, 127897, Note_on_c, 9, 59, 0
4, 128107, Note_on_c, 9, 44, 45
4, 128131, Note_on_c, 9, 59, 46
4, 128249, Note_on_c, 9, 44, 0
4, 128463, Note_on_c, 9, 59, 0
4, 128594, Note_on_c, 9, 59, 74
4, 129081, Note_on_c, 9, 44, 38
4, 129090, Note_on_c, 9, 37, 64
4, 129237, Note_on_c, 9, 44, 0
4, 129274, Note_on_c, 9, 37, 0
4, 129399, Note_on_c, 9, 59, 0
4, 129526, Note_on_c, 9, 59, 66
4, 129826, Note_on_c, 9, 59, 0
4, 129850, Note_on_c, 9, 53, 70
4, 129958, Note_on_c, 9, 53, 0
4, 130029, Note_on_c, 9, 37, 58
4, 130030, Note_on_c, 9, 46, 39
4, 130043, Note_on_c, 9, 59, 34
4, 130114, Note_on_c, 9, 37, 0
4, 130285, Note_on_c, 9, 59, 0
4, 130352, Note_on_c, 9, 36, 58
4, 130361, Note_on_c, 9, 59, 62
4, 130449, Note_on_c, 9, 36, 0
4, 130463, Note_on_c, 9, 59, 0
4, 130521, Note_on_c, 9, 59, 71
4, 130527, Note_on_c, 9, 46, 0
4, 130538, Note_on_c, 9, 36, 41
4, 130698, Note_on_c, 9, 36, 0
4, 131008, Note_on_c, 9, 44, 40
4, 131199, Note_on_c, 9, 59, 0
4, 131210, Note_on_c, 9, 44, 0
4, 131315, Note_on_c, 9, 59, 63
4, 131390, Note_on_c, 9, 59, 0
4, 131476, Note_on_c, 9, 59, 47
4, 131683, Note_on_c, 9, 59, 0
4, 131794, Note_on_c, 9, 51, 69
4, 131889, Note_on_c, 9, 51, 0
4, 131966, Note_on_c, 9, 59, 46
4, 132267, Note_on_c, 9, 59, 0
4, 132439, Note_on_c, 9, 59, 68
4, 132914, Note_on_c, 9, 44, 43
4, 133054, Note_on_c, 9, 44, 0
4, 133095, Note_on_c, 9, 59, 0
4, 133201, Note_on_c, 9, 59, 55
4, 133270, Note_on_c, 9, 59, 0
4, 133339, Note_on_c, 9, 59, 61
4, 133584, Note_on_c, 9, 59, 0
4, 133674, Note_on_c, 9, 38, 38
4, 133760, Note_on_c, 9, 38, 0
4, 133835, Note_on_c, 9, 59, 76
4, 133843, Note_on_c, 9, 38, 38
4, 133863, Note_on_c, 9, 44, 33
4, 134019, Note_on_c, 9, 59, 0
4, 134038, Note_on_c, 9, 44, 0
4, 134120, Note_on_c, 9, 38, 0
4, 134156, Note_on_c, 9, 36, 38
4, 134195, Note_on_c, 9, 59, 36
4, 134226, Note_on_c, 9, 36, 0
4, 134240, Note_on_c, 9, 59, 0
4, 134309, Note_on_c, 9, 59, 70
4, 134641, Note_on_c, 9, 38, 31
4, 134703, Note_on_c, 9, 38, 0
4, 135007, Note_on_c, 9, 59, 0
4, 135120, Note_on_c, 9, 36, 45
4, 135165, Note_on_c, 9, 59, 42
4, 135201, Note_on_c, 9, 36, 0
4, 135208, Note_on_c, 9, 59, 0
4, 135295, Note_on_c, 9, 59, 77
4, 135326, Note_on_c, 9, 36, 28
4, 135395, Note_on_c, 9, 36, 0
4, 135463, Note_on_c, 9, 59, 0
4, 135778, Note_on_c, 9, 44, 43
4, 135794, Note_on_c, 9, 59, 88
4, 135962, Note_on_c, 9, 44, 0
4, 136208, Note_on_c, 9, 59, 0
4, 136613, Note_on_c, 9, 59, 42
4, 136654, Note_on_c, 9, 59, 0
4, 136755, Note_on_c, 9, 59, 77
4, 136783, Note_on_c, 9, 44, 34
4, 136923, Note_on_c, 9, 44, 0
4, 137044, Note_on_c, 9, 59, 0
4, 137238, Note_on_c, 9, 38, 32
4, 137247, Note_on_c, 9, 59, 71
4, 137319, Note_on_c, 9, 38, 0
4, 137399, Note_on_c, 9, 38, 29
4, 137457, Note_on_c, 9, 38, 0
4, 137479, Note_on_c, 9, 59, 0
4, 137563, Note_on_c, 9, 53, 79
4, 137693, Note_on_c, 9, 53, 0
4, 137745, Note_on_c, 9, 59, 38
4, 137841, Note_on_c, 9, 38, 32
4, 137922, Note_on_c, 9, 38, 0
4, 137999, Note_on_c, 9, 59, 0
4, 138002, Note_on_c, 9, 38, 50
4, 138013, Note_on_c, 9, 53, 75
4, 138036, Note_on_c, 9, 38, 0
4, 138104, Note_on_c, 9, 53, 0
4, 138155, Note_on_c, 9, 36, 47
4, 138179, Note_on_c, 9, 59, 63
4, 138197, Note_on_c, 9, 36, 0
4, 138441, Note_on_c, 9, 59, 0
4, 138655, Note_on_c, 9, 59, 76
4, 138677, Note_on_c, 9, 44, 39
4, 138866, Note_on_c, 9, 44, 0
4, 139347, Note_on_c, 9, 59, 0
4, 139463, Note_on_c, 9, 59, 43
4, 139515, Note_on_c, 9, 59, 0
4, 139607, Note_on_c, 9, 38, 24
4, 139620, Note_on_c, 9, 59, 67
4, 139639, Note_on_c, 9, 44, 29
4, 139671, Note_on_c, 9, 38, 0
4, 139765, Note_on_c, 9, 38, 28
4, 139801, Note_on_c, 9, 44, 0
4, 139814, Note_on_c, 9, 38, 0
4, 139875, Note_on_c, 9, 59, 0
4, 140119, Note_on_c, 9, 59, 81
4, 140379, Note_on_c, 9, 36, 50
4, 140428, Note_on_c, 9, 36, 0
4, 140584, Note_on_c, 9, 46, 35
4, 140783, Note_on_c, 9, 59, 0
4, 140861, Note_on_c, 9, 36, 38
4, 140902, Note_on_c, 9, 59, 26
4, 140933, Note_on_c, 9, 36, 0
4, 140952, Note_on_c, 9, 59, 0
4, 141032, Note_on_c, 9, 59, 66
4, 141049, Note_on_c, 9, 36, 63
4, 141122, Note_on_c, 9, 46, 0
4, 141147, Note_on_c, 9, 36, 0
4, 141338, Note_on_c, 9, 59, 0
4, 141381, Note_on_c, 9, 53, 56
4, 141469, Note_on_c, 9, 53, 0
4, 141541, Note_on_c, 9, 59, 50
4, 141545, Note_on_c, 9, 44, 36
4, 141771, Note_on_c, 9, 44, 0
4, 141779, Note_on_c, 9, 59, 0
4, 141868, Note_on_c, 9, 53, 33
4, 141914, Note_on_c, 9, 53, 0
4, 142002, Note_on_c, 9, 59, 55
4, 142376, Note_on_c, 9, 59, 0
4, 142512, Note_on_c, 9, 59, 55
4, 142774, Note_on_c, 9, 59, 0
4, 143029, Note_on_c, 9, 59, 77
4, 143245, Note_on_c, 9, 59, 0
4, 143829, Note_on_c, 9, 59, 41
4, 143889, Note_on_c, 9, 59, 0
4, 143964, Note_on_c, 9, 59, 64
4, 144111, Note_on_c, 9, 59, 0
4, 144462, Note_on_c, 9, 44, 37
4, 144718, Note_on_c, 9, 44, 0
4, 144758, Note_on_c, 9, 59, 46
4, 144764, Note_on_c, 9, 38, 33
4, 144778, Note_on_c, 9, 40, 35
4, 144805, Note_on_c, 9, 59, 0
4, 144820, Note_on_c, 9, 40, 0
4, 144843, Note_on_c, 9, 38, 0
4, 144900, Note_on_c, 9, 59, 63
4, 144952, Note_on_c, 9, 38, 34
4, 145071, Note_on_c, 9, 59, 0
4, 145129, Note_on_c, 9, 38, 0
4, 145233, Note_on_c, 9, 36, 55
4, 145365, Note_on_c, 9, 36, 0
4, 145397, Note_on_c, 9, 59, 82
4, 145411, Note_on_c, 9, 36, 40
4, 145604, Note_on_c, 9, 59, 0
4, 145659, Note_on_c, 9, 36, 0
4, 145734, Note_on_c, 9, 59, 64
4, 145773, Note_on_c, 9, 59, 0
4, 145855, Note_on_c, 9, 36, 33
4, 145868, Note_on_c, 9, 59, 85
4, 145993, Note_on_c, 9, 36, 0
4, 146096, Note_on_c, 9, 59, 0
4, 146328, Note_on_c, 9, 59, 71
4, 146337, Note_on_c, 9, 44, 47
4, 146497, Note_on_c, 9, 44, 0
4, 146543, Note_on_c, 9, 59, 0
4, 147141, Note_on_c, 9, 59, 47
4, 147224, Note_on_c, 9, 59, 0
4, 147284, Note_on_c, 9, 46, 43
4, 147287, Note_on_c, 9, 59, 71
4, 147489, Note_on_c, 9, 59, 0
4, 147629, Note_on_c, 9, 59, 90
4, 147785, Note_on_c, 9, 46, 0
4, 147946, Note_on_c, 9, 59, 0
4, 148114, Note_on_c, 9, 59, 32
4, 148151, Note_on_c, 9, 59, 0
4, 148256, Note_on_c, 9, 44, 39
4, 148257, Note_on_c, 9, 59, 85
4, 148436, Note_on_c, 9, 44, 0
4, 148924, Note_on_c, 9, 59, 0
4, 149101, Note_on_c, 9, 38, 57
4, 149114, Note_on_c, 9, 59, 52
4, 149149, Note_on_c, 9, 38, 0
4, 149151, Note_on_c, 9, 59, 0
4, 149251, Note_on_c, 9, 44, 37
4, 149273, Note_on_c, 9, 59, 76
4, 149291, Note_on_c, 9, 36, 38
4, 149403, Note_on_c, 9, 36, 0
4, 149459, Note_on_c, 9, 44, 0
4, 149499, Note_on_c, 9, 59, 0
4, 149569, Note_on_c, 9, 53, 84
4, 149591, Note_on_c, 9, 36, 40
4, 149664, Note_on_c, 9, 53, 0
4, 149683, Note_on_c, 9, 36, 0
4, 149753, Note_on_c, 9, 59, 46
4, 149768, Note_on_c, 9, 36, 42
4, 149961, Note_on_c, 9, 36, 0
4, 149983, Note_on_c, 9, 59, 0
4, 150063, Note_on_c, 9, 53, 74
4, 150155, Note_on_c, 9, 53, 0
4, 150237, Note_on_c, 9, 59, 63
4, 150497, Note_on_c, 9, 59, 0
4, 150709, Note_on_c, 9, 59, 84
4, 151405, Note_on_c, 9, 59, 0
4, 151510, Note_on_c, 9, 59, 51
4, 151586, Note_on_c, 9, 59, 0
4, 151661, Note_on_c, 9, 59, 79
4, 152101, Note_on_c, 9, 44, 38
4, 152273, Note_on_c, 9, 44, 0
4, 152332, Note_on_c, 9, 59, 0
4, 152462, Note_on_c, 9, 59, 65
4, 152600, Note_on_c, 9, 38, 62
4, 152720, Note_on_c, 9, 59, 0
4, 152845, Note_on_c, 9, 38, 0
4, 152928, Note_on_c, 9, 38, 48
4, 152961, Note_on_c, 9, 59, 83
4, 152976, Note_on_c, 9, 38, 0
4, 153057, Note_on_c, 9, 59, 0
4, 153110, Note_on_c, 9, 44, 36
4, 153114, Note_on_c, 9, 59, 62
4, 153263, Note_on_c, 9, 44, 0
4, 153282, Note_on_c, 9, 59, 0
4, 153389, Note_on_c, 9, 36, 58
4, 153414, Note_on_c, 9, 51, 74
4, 153426, Note_on_c, 9, 53, 66
4, 153467, Note_on_c, 9, 36, 0
4, 153469, Note_on_c, 9, 53, 0
4, 153505, Note_on_c, 9, 51, 0
4, 153555, Note_on_c, 9, 36, 38
4, 153560, Note_on_c, 9, 57, 48
4, 153584, Note_on_c, 9, 59, 39
4, 153865, Note_on_c, 9, 59, 0
4, 154068, Note_on_c, 9, 59, 64
4, 154300, Note_on_c, 9, 59, 0
4, 154536, Note_on_c, 9, 57, 0
4, 154540, Note_on_c, 9, 59, 74
4, 155007, Note_on_c, 9, 44, 48
4, 155066, Note_on_c, 9, 36, 0
4, 155172, Note_on_c, 9, 44, 0
4, 155245, Note_on_c, 9, 59, 0
4, 155274, Note_on_c, 9, 51, 53
4, 155313, Note_on_c, 9, 38, 66
4, 155356, Note_on_c, 9, 51, 0
4, 155383, Note_on_c, 9, 38, 0
4, 155432, Note_on_c, 9, 59, 44
4, 155477, Note_on_c, 9, 36, 35
4, 155609, Note_on_c, 9, 36, 0
4, 155655, Note_on_c, 9, 59, 0
4, 155733, Note_on_c, 9, 59, 56
4, 155803, Note_on_c, 9, 36, 44
4, 155827, Note_on_c, 9, 59, 0
4, 155870, Note_on_c, 9, 36, 0
4, 155891, Note_on_c, 9, 59, 62
4, 155944, Note_on_c, 9, 44, 45
4, 155980, Note_on_c, 9, 36, 33
4, 156108, Note_on_c, 9, 44, 0
4, 156183, Note_on_c, 9, 59, 0
4, 156307, Note_on_c, 9, 36, 0
4, 156340, Note_on_c, 9, 59, 70
4, 156554, Note_on_c, 9, 59, 0
4, 156917, Note_on_c, 9, 44, 44
4, 157119, Note_on_c, 9, 44, 0
4, 157226, Note_on_c, 9, 59, 51
4, 157322, Note_on_c, 9, 59, 0
4, 157399, Note_on_c, 9, 59, 59
4, 157654, Note_on_c, 9, 59, 0
4, 157851, Note_on_c, 9, 46, 40
4, 158155, Note_on_c, 9, 59, 43
4, 158217, Note_on_c, 9, 59, 0
4, 158316, Note_on_c, 9, 59, 61
4, 158413, Note_on_c, 9, 46, 0
4, 158524, Note_on_c, 9, 59, 0
4, 158826, Note_on_c, 9, 59, 67
4, 159074, Note_on_c, 9, 59, 0
4, 159344, Note_on_c, 9, 59, 74
4, 159591, Note_on_c, 9, 59, 0
4, 159639, Note_on_c, 9, 37, 32
4, 159735, Note_on_c, 9, 37, 0
4, 159984, Note_on_c, 9, 37, 47
4, 160187, Note_on_c, 9, 37, 0
4, 160311, Note_on_c, 9, 59, 80
4, 160318, Note_on_c, 9, 37, 53
4, 160492, Note_on_c, 9, 59, 0
4, 160552, Note_on_c, 9, 37, 0
4, 160671, Note_on_c, 9, 59, 36
4, 160672, Note_on_c, 9, 37, 51
4, 160716, Note_on_c, 9, 59, 0
4, 160780, Note_on_c, 9, 59, 62
4, 160799, Note_on_c, 9, 44, 34
4, 160851, Note_on_c, 9, 37, 0
4, 160909, Note_on_c, 9, 44, 0
4, 161013, Note_on_c, 9, 38, 50
4, 161067, Note_on_c, 9, 38, 0
4, 161077, Note_on_c, 9, 59, 0
4, 161095, Note_on_c, 9, 53, 54
4, 161152, Note_on_c, 9, 38, 36
4, 161184, Note_on_c, 9, 53, 0
4, 161250, Note_on_c, 9, 59, 53
4, 161262, Note_on_c, 9, 38, 0
4, 161316, Note_on_c, 9, 36, 49
4, 161340, Note_on_c, 9, 57, 28
4, 161501, Note_on_c, 9, 59, 0
4, 161714, Note_on_c, 9, 44, 34
4, 161728, Note_on_c, 9, 59, 64
4, 161898, Note_on_c, 9, 44, 0
4, 161957, Note_on_c, 9, 59, 0
4, 162211, Note_on_c, 9, 59, 71
4, 162250, Note_on_c, 9, 57, 0
4, 162358, Note_on_c, 9, 59, 0
4, 162757, Note_on_c, 9, 36, 0
4, 163021, Note_on_c, 9, 59, 60
4, 163118, Note_on_c, 9, 59, 0
4, 163168, Note_on_c, 9, 59, 53
4, 163397, Note_on_c, 9, 59, 0
4, 163606, Note_on_c, 9, 59, 66
4, 163651, Note_on_c, 9, 44, 27
4, 163823, Note_on_c, 9, 44, 0
4, 164034, Note_on_c, 9, 59, 0
4, 164075, Note_on_c, 9, 38, 37
4, 164309, Note_on_c, 9, 38, 0
4, 164396, Note_on_c, 9, 36, 33
4, 164403, Note_on_c, 9, 59, 59
4, 164478, Note_on_c, 9, 59, 0
4, 164488, Note_on_c, 9, 36, 0
4, 164544, Note_on_c, 9, 59, 62
4, 164546, Note_on_c, 9, 38, 24
4, 164554, Note_on_c, 9, 44, 45
4, 164723, Note_on_c, 9, 44, 0
4, 164840, Note_on_c, 9, 38, 0
4, 164852, Note_on_c, 9, 59, 0
4, 164855, Note_on_c, 9, 36, 30
4, 164959, Note_on_c, 9, 36, 0
4, 165009, Note_on_c, 9, 59, 77
4, 165027, Note_on_c, 9, 38, 16
4, 165209, Note_on_c, 9, 59, 0
4, 165290, Note_on_c, 9, 38, 0
4, 165338, Note_on_c, 9, 36, 34
4, 165399, Note_on_c, 9, 36, 0
4, 165464, Note_on_c, 9, 59, 80
4, 165523, Note_on_c, 9, 38, 19
4, 165741, Note_on_c, 9, 59, 0
4, 165822, Note_on_c, 9, 38, 0
4, 165967, Note_on_c, 9, 59, 75
4, 166622, Note_on_c, 9, 59, 0
4, 166933, Note_on_c, 9, 59, 74
4, 167405, Note_on_c, 9, 44, 30
4, 167563, Note_on_c, 9, 44, 0
4, 167586, Note_on_c, 9, 59, 0
4, 167946, Note_on_c, 9, 59, 78
4, 168378, Note_on_c, 9, 44, 36
4, 168575, Note_on_c, 9, 59, 0
4, 168605, Note_on_c, 9, 44, 0
4, 168720, Note_on_c, 9, 36, 40
4, 168752, Note_on_c, 9, 59, 41
4, 168768, Note_on_c, 9, 36, 0
4, 168835, Note_on_c, 9, 59, 0
4, 168898, Note_on_c, 9, 59, 66
4, 168905, Note_on_c, 9, 36, 24
4, 169098, Note_on_c, 9, 36, 0
4, 169534, Note_on_c, 9, 59, 0
4, 169690, Note_on_c, 9, 38, 37
4, 169777, Note_on_c, 9, 38, 0
4, 169894, Note_on_c, 9, 36, 30
4, 169969, Note_on_c, 9, 36, 0
4, 170177, Note_on_c, 9, 59, 54
4, 170209, Note_on_c, 9, 36, 32
4, 170267, Note_on_c, 9, 59, 0
4, 170275, Note_on_c, 9, 36, 0
4, 170338, Note_on_c, 9, 59, 62
4, 170563, Note_on_c, 9, 59, 0
4, 170823, Note_on_c, 9, 36, 29
4, 170824, Note_on_c, 9, 59, 70
4, 171052, Note_on_c, 9, 36, 0
4, 171296, Note_on_c, 9, 46, 44
4, 171333, Note_on_c, 9, 53, 49
4, 171513, Note_on_c, 9, 53, 0
4, 171825, Note_on_c, 9, 53, 53
4, 171903, Note_on_c, 9, 46, 0
4, 171904, Note_on_c, 9, 59, 0
4, 172132, Note_on_c, 9, 53, 0
4, 172282, Note_on_c, 9, 44, 32
4, 172306, Note_on_c, 9, 59, 67
4, 172516, Note_on_c, 9, 44, 0
4, 172714, Note_on_c, 9, 59, 0
4, 172759, Note_on_c, 9, 53, 39
4, 173065, Note_on_c, 9, 53, 0
4, 173556, Note_on_c, 9, 53, 37
4, 173626, Note_on_c, 9, 53, 0
4, 173741, Note_on_c, 9, 59, 28
4, 173978, Note_on_c, 9, 59, 0
4, 174054, Note_on_c, 9, 59, 46
4, 174134, Note_on_c, 9, 59, 0
4, 174239, Note_on_c, 9, 59, 39
4, 174443, Note_on_c, 9, 59, 0
4, 174487, Note_on_c, 9, 51, 69
4, 174668, Note_on_c, 9, 51, 0
4, 174712, Note_on_c, 9, 59, 43
4, 174793, Note_on_c, 9, 59, 0
4, 174964, Note_on_c, 9, 51, 61
4, 175100, Note_on_c, 9, 51, 0
4, 175147, Note_on_c, 9, 59, 57
4, 175371, Note_on_c, 9, 59, 0
4, 175429, Note_on_c, 9, 51, 49
4, 175586, Note_on_c, 9, 51, 0
4, 175631, Note_on_c, 9, 59, 46
4, 175653, Note_on_c, 9, 38, 35
4, 175877, Note_on_c, 9, 59, 0
4, 175910, Note_on_c, 9, 38, 0
4, 176001, Note_on_c, 9, 36, 24
4, 176051, Note_on_c, 9, 36, 0
4, 176124, Note_on_c, 9, 38, 29
4, 176132, Note_on_c, 9, 44, 43
4, 176277, Note_on_c, 9, 38, 0
4, 176347, Note_on_c, 9, 44, 0
4, 176397, Note_on_c, 9, 51, 59
4, 176443, Note_on_c, 9, 36, 29
4, 176499, Note_on_c, 9, 36, 0
4, 176506, Note_on_c, 9, 51, 0
4, 176578, Note_on_c, 9, 59, 60
4, 176604, Note_on_c, 9, 36, 34
4, 176816, Note_on_c, 9, 59, 0
4, 177058, Note_on_c, 9, 36, 0
4, 177085, Note_on_c, 9, 59, 72
4, 177097, Note_on_c, 9, 44, 37
4, 177319, Note_on_c, 9, 59, 0
4, 177346, Note_on_c, 9, 44, 0
4, 177462, Note_on_c, 9, 59, 44
4, 177508, Note_on_c, 9, 59, 0
4, 177585, Note_on_c, 9, 59, 68
4, 177876, Note_on_c, 9, 59, 0
4, 178348, Note_on_c, 9, 59, 41
4, 178395, Note_on_c, 9, 59, 0
4, 178497, Note_on_c, 9, 59, 67
4, 178673, Note_on_c, 9, 59, 0
4, 178958, Note_on_c, 9, 59, 89
4, 178989, Note_on_c, 9, 44, 37
4, 179208, Note_on_c, 9, 59, 0
4, 179268, Note_on_c, 9, 44, 0
4, 179282, Note_on_c, 9, 59, 42
4, 179343, Note_on_c, 9, 59, 0
4, 179407, Note_on_c, 9, 59, 74
4, 179725, Note_on_c, 9, 38, 42
4, 179794, Note_on_c, 9, 38, 0
4, 179911, Note_on_c, 9, 36, 28
4, 179938, Note_on_c, 9, 46, 39
4, 180110, Note_on_c, 9, 36, 0
4, 180176, Note_on_c, 9, 59, 0
4, 180245, Note_on_c, 9, 59, 47
4, 180250, Note_on_c, 9, 36, 29
4, 180319, Note_on_c, 9, 59, 0
4, 180321, Note_on_c, 9, 46, 0
4, 180330, Note_on_c, 9, 36, 0
4, 180382, Note_on_c, 9, 59, 65
4, 180421, Note_on_c, 9, 36, 44
4, 180782, Note_on_c, 9, 36, 0
4, 180794, Note_on_c, 9, 59, 0
4, 180885, Note_on_c, 9, 59, 55
4, 180896, Note_on_c, 9, 44, 34
4, 181073, Note_on_c, 9, 44, 0
4, 181164, Note_on_c, 9, 59, 0
4, 181275, Note_on_c, 9, 59, 55
4, 181329, Note_on_c, 9, 59, 0
4, 181408, Note_on_c, 9, 59, 64
4, 181762, Note_on_c, 9, 59, 0
4, 181901, Note_on_c, 9, 59, 53
4, 182154, Note_on_c, 9, 59, 0
4, 182714, Note_on_c, 9, 59, 47
4, 182795, Note_on_c, 9, 59, 0
4, 182866, Note_on_c, 9, 59, 68
4, 183095, Note_on_c, 9, 59, 0
4, 183335, Note_on_c, 9, 59, 77
4, 183573, Note_on_c, 9, 59, 0
4, 183646, Note_on_c, 9, 53, 83
4, 183673, Note_on_c, 9, 38, 64
4, 183751, Note_on_c, 9, 38, 0
4, 183814, Note_on_c, 9, 44, 44
4, 183831, Note_on_c, 9, 38, 37
4, 183958, Note_on_c, 9, 38, 0
4, 183977, Note_on_c, 9, 44, 0
4, 184135, Note_on_c, 9, 36, 51
4, 184189, Note_on_c, 9, 36, 0
4, 184234, Note_on_c, 9, 53, 0
4, 184278, Note_on_c, 9, 51, 69
4, 184292, Note_on_c, 9, 59, 80
4, 184320, Note_on_c, 9, 36, 44
4, 184332, Note_on_c, 9, 57, 24
4, 184743, Note_on_c, 9, 59, 0
4, 184752, Note_on_c, 9, 44, 34
4, 184917, Note_on_c, 9, 44, 0
4, 185123, Note_on_c, 9, 51, 0
4, 185176, Note_on_c, 9, 57, 0
4, 185217, Note_on_c, 9, 51, 87
4, 185325, Note_on_c, 9, 36, 0
4, 185703, Note_on_c, 9, 44, 35
4, 185821, Note_on_c, 9, 44, 0
4, 185947, Note_on_c, 9, 51, 0
4, 186063, Note_on_c, 9, 51, 60
4, 186135, Note_on_c, 9, 51, 0
4, 186197, Note_on_c, 9, 51, 77
4, 186441, Note_on_c, 9, 51, 0
4, 186516, Note_on_c, 9, 38, 46
4, 186555, Note_on_c, 9, 38, 0
4, 186665, Note_on_c, 9, 46, 43
4, 186666, Note_on_c, 9, 51, 79
4, 186691, Note_on_c, 9, 38, 28
4, 186840, Note_on_c, 9, 46, 0
4, 186907, Note_on_c, 9, 51, 0
4, 186941, Note_on_c, 9, 38, 0
4, 186995, Note_on_c, 9, 36, 38
4, 187008, Note_on_c, 9, 51, 64
4, 187084, Note_on_c, 9, 51, 0
4, 187095, Note_on_c, 9, 36, 0
4, 187141, Note_on_c, 9, 51, 68
4, 187190, Note_on_c, 9, 38, 49
4, 187364, Note_on_c, 9, 51, 0
4, 187459, Note_on_c, 9, 38, 0
4, 187479, Note_on_c, 9, 36, 37
4, 187566, Note_on_c, 9, 36, 0
4, 187632, Note_on_c, 9, 44, 37
4, 187638, Note_on_c, 9, 51, 74
4, 187799, Note_on_c, 9, 51, 0
4, 187801, Note_on_c, 9, 44, 0
4, 187958, Note_on_c, 9, 51, 62
4, 187960, Note_on_c, 9, 38, 33
4, 188019, Note_on_c, 9, 51, 0
4, 188054, Note_on_c, 9, 38, 0
4, 188117, Note_on_c, 9, 53, 68
4, 188332, Note_on_c, 9, 53, 0
4, 188423, Note_on_c, 9, 36, 38
4, 188437, Note_on_c, 9, 51, 48
4, 188483, Note_on_c, 9, 36, 0
4, 188504, Note_on_c, 9, 51, 0
4, 188586, Note_on_c, 9, 38, 29
4, 188599, Note_on_c, 9, 53, 74
4, 188603, Note_on_c, 9, 44, 43
4, 188833, Note_on_c, 9, 44, 0
4, 188850, Note_on_c, 9, 38, 0
4, 188896, Note_on_c, 9, 53, 0
4, 188929, Note_on_c, 9, 36, 25
4, 188984, Note_on_c, 9, 36, 0
4, 189088, Note_on_c, 9, 51, 63
4, 189092, Note_on_c, 9, 36, 29
4, 189273, Note_on_c, 9, 51, 0
4, 189333, Note_on_c, 9, 36, 0
4, 189545, Note_on_c, 9, 44, 39
4, 189713, Note_on_c, 9, 44, 0
4, 189886, Note_on_c, 9, 51, 56
4, 189936, Note_on_c, 9, 51, 0
4, 190026, Note_on_c, 9, 51, 62
4, 190264, Note_on_c, 9, 51, 0
4, 190350, Note_on_c, 9, 51, 43
4, 190425, Note_on_c, 9, 51, 0
4, 190465, Note_on_c, 9, 44, 54
4, 190500, Note_on_c, 9, 51, 67
4, 190508, Note_on_c, 9, 38, 38
4, 190590, Note_on_c, 9, 38, 0
4, 190664, Note_on_c, 9, 38, 33
4, 190666, Note_on_c, 9, 44, 0
4, 190746, Note_on_c, 9, 38, 0
4, 190782, Note_on_c, 9, 51, 0
4, 190809, Note_on_c, 9, 36, 34
4, 190916, Note_on_c, 9, 36, 0
4, 190991, Note_on_c, 9, 51, 80
4, 191091, Note_on_c, 9, 38, 45
4, 191165, Note_on_c, 9, 38, 0
4, 191191, Note_on_c, 9, 51, 0
4, 191249, Note_on_c, 9, 38, 33
4, 191330, Note_on_c, 9, 38, 0
4, 191479, Note_on_c, 9, 51, 81
4, 191503, Note_on_c, 9, 44, 36
4, 191683, Note_on_c, 9, 44, 0
4, 191704, Note_on_c, 9, 51, 0
4, 191779, Note_on_c, 9, 38, 38
4, 191821, Note_on_c, 9, 38, 0
4, 191948, Note_on_c, 9, 36, 33
4, 191962, Note_on_c, 9, 51, 83
4, 192042, Note_on_c, 9, 36, 0
4, 192170, Note_on_c, 9, 51, 0
4, 192270, Note_on_c, 9, 36, 34
4, 192327, Note_on_c, 9, 36, 0
4, 192430, Note_on_c, 9, 51, 56
4, 192434, Note_on_c, 9, 44, 36
4, 192598, Note_on_c, 9, 44, 0
4, 192654, Note_on_c, 9, 51, 0
4, 192766, Note_on_c, 9, 51, 62
4, 192836, Note_on_c, 9, 51, 0
4, 192905, Note_on_c, 9, 51, 67
4, 192955, Note_on_c, 9, 36, 22
4, 193090, Note_on_c, 9, 51, 0
4, 193109, Note_on_c, 9, 36, 0
4, 193375, Note_on_c, 9, 44, 53
4, 193528, Note_on_c, 9, 44, 0
4, 193702, Note_on_c, 9, 51, 53
4, 193774, Note_on_c, 9, 51, 0
4, 193843, Note_on_c, 9, 51, 64
4, 193877, Note_on_c, 9, 36, 34
4, 193995, Note_on_c, 9, 36, 0
4, 194045, Note_on_c, 9, 38, 47
4, 194054, Note_on_c, 9, 51, 0
4, 194109, Note_on_c, 9, 38, 0
4, 194192, Note_on_c, 9, 38, 40
4, 194281, Note_on_c, 9, 38, 0
4, 194353, Note_on_c, 9, 38, 47
4, 194363, Note_on_c, 9, 51, 82
4, 194414, Note_on_c, 9, 38, 0
4, 194612, Note_on_c, 9, 51, 0
4, 194661, Note_on_c, 9, 36, 36
4, 194733, Note_on_c, 9, 51, 49
4, 194738, Note_on_c, 9, 36, 0
4, 194797, Note_on_c, 9, 51, 0
4, 194834, Note_on_c, 9, 36, 30
4, 194866, Note_on_c, 9, 51, 63
4, 195075, Note_on_c, 9, 36, 0
4, 195083, Note_on_c, 9, 51, 0
4, 195139, Note_on_c, 9, 51, 60
4, 195231, Note_on_c, 9, 51, 0
4, 195304, Note_on_c, 9, 51, 67
4, 195333, Note_on_c, 9, 44, 37
4, 195345, Note_on_c, 9, 53, 22
4, 195501, Note_on_c, 9, 44, 0
4, 195611, Note_on_c, 9, 53, 0
4, 195633, Note_on_c, 9, 51, 0
4, 195637, Control_c, 9, 2, 96
4, 195807, Note_on_c, 9, 51, 51
4, 195980, Note_on_c, 9, 51, 0
4, 196086, Note_on_c, 9, 38, 36
4, 196137, Note_on_c, 9, 51, 76
4, 196147, Note_on_c, 9, 53, 71
4, 196188, Note_on_c, 9, 38, 0
4, 196472, Control_c, 9, 2, 95
4, 196491, Note_on_c, 9, 51, 0
4, 196554, Note_on_c, 9, 53, 0
4, 196574, Note_on_c, 9, 36, 30
4, 196613, Note_on_c, 9, 51, 43
4, 196682, Note_on_c, 9, 36, 0
4, 196683, Note_on_c, 9, 51, 0
4, 196815, Note_on_c, 9, 51, 79
4, 196823, Note_on_c, 9, 53, 71
4, 197050, Note_on_c, 9, 36, 36
4, 197122, Note_on_c, 9, 36, 0
4, 197132, Note_on_c, 9, 51, 0
4, 197187, Note_on_c, 9, 53, 0
4, 197248, Note_on_c, 9, 36, 28
4, 197261, Note_on_c, 9, 44, 35
4, 197270, Note_on_c, 9, 51, 39
4, 197341, Note_on_c, 9, 51, 0
4, 197387, Note_on_c, 9, 36, 0
4, 197443, Note_on_c, 9, 44, 0
4, 197550, Note_on_c, 9, 51, 78
4, 197555, Note_on_c, 9, 53, 74
4, 197887, Note_on_c, 9, 51, 0
4, 197892, Note_on_c, 9, 53, 0
4, 198061, Note_on_c, 9, 51, 25
4, 198097, Note_on_c, 9, 51, 0
4, 198228, Note_on_c, 9, 51, 70
4, 198234, Note_on_c, 9, 53, 68
4, 198265, Control_c, 9, 2, 94
4, 198552, Note_on_c, 9, 38, 36
4, 198563, Note_on_c, 9, 53, 0
4, 198579, Note_on_c, 9, 51, 0
4, 198633, Note_on_c, 9, 38, 0
4, 198709, Note_on_c, 9, 51, 70
4, 198732, Note_on_c, 9, 38, 30
4, 198967, Note_on_c, 9, 51, 0
4, 199015, Note_on_c, 9, 38, 0
4, 199032, Note_on_c, 9, 36, 46
4, 199056, Note_on_c, 9, 51, 51
4, 199117, Note_on_c, 9, 51, 0
4, 199145, Note_on_c, 9, 36, 0
4, 199193, Note_on_c, 9, 44, 60
4, 199195, Note_on_c, 9, 51, 76
4, 199229, Note_on_c, 9, 38, 30
4, 199321, Note_on_c, 9, 44, 0
4, 199429, Note_on_c, 9, 38, 0
4, 199508, Note_on_c, 9, 51, 0
4, 199521, Note_on_c, 9, 36, 48
4, 199643, Note_on_c, 9, 36, 0
4, 199675, Note_on_c, 9, 51, 87
4, 199930, Note_on_c, 9, 51, 0
4, 200005, Note_on_c, 9, 51, 38
4, 200078, Note_on_c, 9, 51, 0
4, 200142, Note_on_c, 9, 51, 67
4, 200178, Control_c, 9, 2, 93
4, 200331, Control_c, 9, 2, 92
4, 200434, Note_on_c, 9, 51, 0
4, 200632, Note_on_c, 9, 51, 77
4, 200864, Note_on_c, 9, 51, 0
4, 200951, Note_on_c, 9, 51, 74
4, 200961, Note_on_c, 9, 53, 70
4, 201054, Control_c, 9, 2, 91
4, 201096, Note_on_c, 9, 44, 43
4, 201204, Note_on_c, 9, 44, 0
4, 201267, Note_on_c, 9, 51, 0
4, 201276, Note_on_c, 9, 53, 0
4, 201392, Note_on_c, 9, 51, 68
4, 201394, Note_on_c, 9, 59, 76
4, 201642, Note_on_c, 9, 59, 0
4, 201682, Note_on_c, 9, 51, 0
4, 201807, Control_c, 9, 2, 90
4, 201856, Note_on_c, 9, 51, 39
4, 201875, Note_on_c, 9, 38, 50
4, 201918, Note_on_c, 9, 51, 0
4, 201954, Note_on_c, 9, 38, 0
4, 202011, Note_on_c, 9, 46, 44
4, 202025, Note_on_c, 9, 51, 56
4, 202036, Note_on_c, 9, 53, 62
4, 202074, Note_on_c, 9, 36, 32
4, 202134, Note_on_c, 9, 46, 0
4, 202148, Note_on_c, 9, 36, 0
4, 202229, Control_c, 9, 2, 89
4, 202350, Note_on_c, 9, 51, 0
4, 202370, Note_on_c, 9, 53, 0
4, 202382, Note_on_c, 9, 36, 35
4, 202487, Note_on_c, 9, 36, 0
4, 202534, Note_on_c, 9, 51, 46
4, 202599, Note_on_c, 9, 51, 0
4, 202848, Note_on_c, 9, 51, 74
4, 202933, Note_on_c, 9, 51, 0
4, 202993, Note_on_c, 9, 44, 42
4, 202995, Note_on_c, 9, 51, 54
4, 203153, Note_on_c, 9, 44, 0
4, 203257, Note_on_c, 9, 51, 0
4, 203495, Note_on_c, 9, 51, 79
4, 204106, Note_on_c, 9, 51, 0
4, 204290, Note_on_c, 9, 51, 38
4, 204356, Note_on_c, 9, 51, 0
4, 204453, Note_on_c, 9, 51, 57
4, 204610, Note_on_c, 9, 51, 0
4, 204909, Note_on_c, 9, 44, 53
4, 204916, Note_on_c, 9, 51, 74
4, 204926, Note_on_c, 9, 53, 65
4, 205026, Control_c, 9, 2, 88
4, 205117, Note_on_c, 9, 44, 0
4, 205159, Note_on_c, 9, 51, 0
4, 205203, Note_on_c, 9, 53, 0
4, 205401, Note_on_c, 9, 51, 42
4, 205494, Note_on_c, 9, 51, 0
4, 205693, Note_on_c, 9, 38, 24
4, 205715, Note_on_c, 9, 51, 33
4, 205731, Note_on_c, 9, 38, 0
4, 205767, Note_on_c, 9, 51, 0
4, 205864, Note_on_c, 9, 44, 43
4, 205865, Note_on_c, 9, 51, 62
4, 205876, Note_on_c, 9, 53, 55
4, 206081, Note_on_c, 9, 38, 24
4, 206099, Note_on_c, 9, 44, 0
4, 206136, Note_on_c, 9, 38, 0
4, 206209, Note_on_c, 9, 51, 0
4, 206243, Note_on_c, 9, 53, 0
4, 206359, Note_on_c, 9, 51, 56
4, 206376, Note_on_c, 9, 53, 36
4, 206377, Note_on_c, 9, 38, 24
4, 206483, Note_on_c, 9, 51, 0
4, 206508, Note_on_c, 9, 38, 0
4, 206520, Note_on_c, 9, 53, 0
4, 206735, Note_on_c, 9, 38, 28
4, 206807, Note_on_c, 9, 38, 0
4, 206851, Note_on_c, 9, 44, 37
4, 206856, Note_on_c, 9, 51, 75
4, 206996, Note_on_c, 9, 38, 27
4, 207033, Note_on_c, 9, 44, 0
4, 207040, Note_on_c, 9, 38, 0
4, 207090, Note_on_c, 9, 51, 0
4, 207116, Note_on_c, 9, 38, 38
4, 207159, Note_on_c, 9, 38, 0
4, 207281, Note_on_c, 9, 36, 40
4, 207323, Note_on_c, 9, 51, 77
4, 207410, Note_on_c, 9, 36, 0
4, 207531, Note_on_c, 9, 51, 0
4, 207762, Note_on_c, 9, 36, 43
4, 207780, Note_on_c, 9, 44, 38
4, 207880, Note_on_c, 9, 36, 0
4, 207895, Note_on_c, 9, 44, 0
4, 208044, Note_on_c, 9, 51, 56
4, 208115, Note_on_c, 9, 51, 0
4, 208209, Note_on_c, 9, 51, 71
4, 208256, Note_on_c, 9, 36, 33
4, 208384, Note_on_c, 9, 36, 0
4, 208617, Note_on_c, 9, 37, 28
4, 208705, Note_on_c, 9, 37, 0
4, 208721, Note_on_c, 9, 46, 51
4, 208829, Note_on_c, 9, 51, 0
4, 208922, Note_on_c, 9, 37, 56
4, 208941, Note_on_c, 9, 46, 0
4, 209056, Note_on_c, 9, 51, 65
4, 209080, Note_on_c, 9, 37, 0
4, 209146, Note_on_c, 9, 51, 0
4, 209224, Note_on_c, 9, 51, 62
4, 209250, Note_on_c, 9, 37, 67
4, 209440, Note_on_c, 9, 51, 0
4, 209479, Note_on_c, 9, 37, 0
4, 209594, Note_on_c, 9, 37, 48
4, 209727, Note_on_c, 9, 44, 36
4, 209731, Note_on_c, 9, 37, 0
4, 209731, Note_on_c, 9, 51, 64
4, 209848, Note_on_c, 9, 44, 0
4, 209923, Note_on_c, 9, 37, 37
4, 210064, Note_on_c, 9, 37, 0
4, 210220, Note_on_c, 9, 59, 85
4, 210224, Note_on_c, 9, 51, 0
4, 210274, Note_on_c, 9, 36, 19
4, 210342, Note_on_c, 9, 36, 0
4, 210522, Note_on_c, 9, 51, 30
4, 210550, Note_on_c, 9, 59, 0
4, 210600, Note_on_c, 9, 36, 36
4, 210632, Note_on_c, 9, 51, 0
4, 210693, Note_on_c, 9, 51, 56
4, 210709, Note_on_c, 9, 46, 46
4, 210752, Note_on_c, 9, 36, 0
4, 210791, Note_on_c, 9, 51, 0
4, 210899, Note_on_c, 9, 46, 0
4, 210914, Note_on_c, 9, 36, 51
4, 210963, Note_on_c, 9, 51, 59
4, 211038, Note_on_c, 9, 51, 0
4, 211126, Note_on_c, 9, 36, 0
4, 211217, Note_on_c, 9, 36, 38
4, 211433, Note_on_c, 9, 36, 0
4, 211437, Note_on_c, 9, 51, 54
4, 211456, Note_on_c, 9, 59, 54
4, 211461, Note_on_c, 9, 53, 34
4, 211500, Note_on_c, 9, 53, 0
4, 211501, Note_on_c, 9, 59, 0
4, 211517, Note_on_c, 9, 51, 0
4, 211643, Note_on_c, 9, 44, 51
4, 211653, Note_on_c, 9, 51, 53
4, 211665, Note_on_c, 9, 53, 50
4, 211667, Note_on_c, 9, 59, 53
4, 211809, Note_on_c, 9, 44, 0
4, 211904, Note_on_c, 9, 59, 0
4, 211920, Note_on_c, 9, 53, 0
4, 211935, Note_on_c, 9, 51, 0
4, 212420, Note_on_c, 9, 51, 55
4, 212421, Note_on_c, 9, 59, 70
4, 212425, Note_on_c, 9, 53, 57
4, 212446, Note_on_c, 9, 38, 38
4, 212497, Note_on_c, 9, 38, 0
4, 212604, Note_on_c, 9, 38, 34
4, 212740, Note_on_c, 9, 51, 0
4, 212769, Note_on_c, 9, 38, 0
4, 212798, Note_on_c, 9, 59, 0
4, 212811, Note_on_c, 9, 53, 0
4, 212879, Note_on_c, 9, 51, 52
4, 212904, Note_on_c, 9, 36, 51
4, 212947, Note_on_c, 9, 51, 0
4, 212976, Note_on_c, 9, 36, 0
4, 213082, Note_on_c, 9, 59, 81
4, 213092, Note_on_c, 9, 51, 69
4, 213103, Note_on_c, 9, 53, 68
4, 213382, Note_on_c, 9, 59, 0
4, 213394, Note_on_c, 9, 51, 0
4, 213409, Note_on_c, 9, 38, 51
4, 213411, Note_on_c, 9, 53, 0
4, 213496, Note_on_c, 9, 38, 0
4, 213573, Note_on_c, 9, 51, 46
4, 213580, Note_on_c, 9, 38, 44
4, 213590, Note_on_c, 9, 44, 55
4, 213647, Note_on_c, 9, 51, 0
4, 213742, Note_on_c, 9, 44, 0
4, 213773, Note_on_c, 9, 38, 0
4, 213863, Note_on_c, 9, 59, 81
4, 213882, Note_on_c, 9, 51, 60
4, 213882, Note_on_c, 9, 36, 57
4, 213893, Note_on_c, 9, 53, 62
4, 213959, Note_on_c, 9, 36, 0
4, 214107, Note_on_c, 9, 53, 0
4, 214134, Note_on_c, 9, 51, 0
4, 214208, Note_on_c, 9, 59, 0
4, 214367, Note_on_c, 9, 38, 74
4, 214371, Note_on_c, 9, 51, 47
4, 214446, Note_on_c, 9, 38, 0
4, 214464, Note_on_c, 9, 51, 0
4, 214547, Note_on_c, 9, 59, 80
4, 214554, Note_on_c, 9, 38, 52
4, 214566, Note_on_c, 9, 51, 47
4, 214571, Note_on_c, 9, 53, 64
4, 214571, Note_on_c, 9, 44, 23
4, 214610, Note_on_c, 9, 44, 0
4, 214651, Note_on_c, 9, 38, 0
4, 214821, Note_on_c, 9, 36, 67
4, 214826, Note_on_c, 9, 51, 0
4, 214855, Note_on_c, 9, 59, 0
4, 214862, Note_on_c, 9, 36, 0
4, 214862, Note_on_c, 9, 44, 37
4, 214897, Note_on_c, 9, 53, 0
4, 214948, Note_on_c, 9, 44, 0
4, 214981, Note_on_c, 9, 57, 57
4, 214999, Note_on_c, 9, 36, 60
4, 215038, Note_on_c, 9, 44, 53
4, 215042, Note_on_c, 9, 51, 74
4, 215056, Note_on_c, 9, 57, 52
4, 215240, Note_on_c, 9, 51, 0
4, 215446, Note_on_c, 9, 57, 0
4, 215726, Note_on_c, 9, 44, 0
4, 215814, Note_on_c, 9, 57, 0
4, 215863, Note_on_c, 9, 51, 59
4, 215908, Note_on_c, 9, 51, 0
4, 216011, Note_on_c, 9, 51, 69
4, 216094, Note_on_c, 9, 36, 0
4, 216271, Note_on_c, 9, 51, 0
4, 216465, Note_on_c, 9, 51, 62
4, 216588, Note_on_c, 9, 51, 0
4, 216766, Note_on_c, 9, 38, 39
4, 216792, Note_on_c, 9, 51, 46
4, 216846, Note_on_c, 9, 51, 0
4, 216853, Note_on_c, 9, 38, 0
4, 216908, Note_on_c, 9, 51, 67
4, 216965, Note_on_c, 9, 36, 39
4, 217021, Note_on_c, 9, 36, 0
4, 217455, Note_on_c, 9, 44, 50
4, 217589, Note_on_c, 9, 51, 0
4, 217613, Note_on_c, 9, 44, 0
4, 217854, Note_on_c, 9, 51, 71
4, 218577, Note_on_c, 9, 51, 0
4, 218677, Note_on_c, 9, 51, 57
4, 218760, Note_on_c, 9, 51, 0
4, 218817, Note_on_c, 9, 51, 61
4, 219326, Note_on_c, 9, 44, 40
4, 219459, Note_on_c, 9, 44, 0
4, 219512, Note_on_c, 9, 51, 0
4, 219661, Note_on_c, 9, 38, 25
4, 219717, Note_on_c, 9, 38, 0
4, 219815, Note_on_c, 9, 51, 65
4, 219839, Note_on_c, 9, 38, 33
4, 219843, Note_on_c, 9, 46, 37
4, 219916, Note_on_c, 9, 38, 0
4, 219952, Note_on_c, 9, 38, 30
4, 219994, Note_on_c, 9, 38, 0
4, 220136, Note_on_c, 9, 36, 43
4, 220266, Note_on_c, 9, 36, 0
4, 220398, Note_on_c, 9, 46, 0
4, 220514, Note_on_c, 9, 51, 0
4, 220656, Note_on_c, 9, 51, 42
4, 220716, Note_on_c, 9, 51, 0
4, 220785, Note_on_c, 9, 51, 56
4, 221381, Note_on_c, 9, 51, 0
4, 221556, Note_on_c, 9, 51, 44
4, 221633, Note_on_c, 9, 51, 0
4, 221714, Note_on_c, 9, 51, 54
4, 222039, Note_on_c, 9, 51, 0
4, 222045, Note_on_c, 9, 38, 36
4, 222093, Note_on_c, 9, 38, 0
4, 222215, Note_on_c, 9, 36, 38
4, 222219, Note_on_c, 9, 51, 63
4, 222222, Note_on_c, 9, 44, 35
4, 222345, Note_on_c, 9, 36, 0
4, 222397, Note_on_c, 9, 44, 0
4, 222455, Note_on_c, 9, 51, 0
4, 222555, Note_on_c, 9, 36, 34
4, 222559, Note_on_c, 9, 51, 54
4, 222625, Note_on_c, 9, 51, 0
4, 222627, Note_on_c, 9, 36, 0
4, 222679, Note_on_c, 9, 51, 73
4, 222753, Note_on_c, 9, 36, 25
4, 222855, Note_on_c, 9, 36, 0
4, 223364, Note_on_c, 9, 51, 0
4, 223660, Note_on_c, 9, 51, 65
4, 224183, Note_on_c, 9, 44, 35
4, 224313, Note_on_c, 9, 51, 0
4, 224326, Note_on_c, 9, 44, 0
4, 224499, Note_on_c, 9, 51, 52
4, 224571, Note_on_c, 9, 51, 0
4, 224627, Note_on_c, 9, 51, 67
4, 224867, Note_on_c, 9, 51, 0
4, 225132, Note_on_c, 9, 44, 33
4, 225263, Note_on_c, 9, 44, 0
4, 225396, Note_on_c, 9, 51, 46
4, 225447, Note_on_c, 9, 51, 0
4, 225530, Note_on_c, 9, 51, 55
4, 225641, Note_on_c, 9, 46, 25
4, 225733, Note_on_c, 9, 51, 0
4, 225852, Note_on_c, 9, 53, 83
4, 226115, Note_on_c, 9, 36, 28
4, 226155, Note_on_c, 9, 36, 0
4, 226292, Note_on_c, 9, 46, 0
4, 226301, Note_on_c, 9, 51, 56
4, 226323, Note_on_c, 9, 53, 0
4, 226365, Note_on_c, 9, 51, 0
4, 226389, Note_on_c, 9, 36, 28
4, 226441, Note_on_c, 9, 36, 0
4, 226483, Note_on_c, 9, 51, 62
4, 226550, Note_on_c, 9, 36, 30
4, 226726, Note_on_c, 9, 36, 0
4, 226884, Note_on_c, 9, 51, 0
4, 227019, Note_on_c, 9, 44, 31
4, 227023, Note_on_c, 9, 51, 58
4, 227045, Note_on_c, 9, 38, 22
4, 227204, Note_on_c, 9, 44, 0
4, 227293, Note_on_c, 9, 38, 0
4, 227334, Note_on_c, 9, 51, 0
4, 227352, Note_on_c, 9, 36, 30
4, 227415, Note_on_c, 9, 36, 0
4, 227511, Note_on_c, 9, 53, 65
4, 227676, Note_on_c, 9, 53, 0
4, 227833, Note_on_c, 9, 51, 36
4, 227902, Note_on_c, 9, 51, 0
4, 227979, Note_on_c, 9, 51, 38
4, 228262, Note_on_c, 9, 51, 0
4, 228768, Note_on_c, 9, 53, 72
4, 228886, Note_on_c, 9, 53, 0
4, 228941, Note_on_c, 9, 44, 44
4, 228969, Note_on_c, 9, 51, 27
4, 229076, Note_on_c, 9, 44, 0
4, 229248, Note_on_c, 9, 51, 0
4, 229418, Note_on_c, 9, 51, 65
4, 229667, Note_on_c, 9, 51, 0
4, 229770, Note_on_c, 9, 51, 46
4, 229809, Note_on_c, 9, 51, 0
4, 229907, Note_on_c, 9, 51, 40
4, 229921, Note_on_c, 9, 44, 40
4, 229942, Note_on_c, 9, 51, 0
4, 230041, Note_on_c, 9, 44, 0
4, 230219, Note_on_c, 9, 38, 39
4, 230259, Note_on_c, 9, 38, 0
4, 230379, Note_on_c, 9, 51, 67
4, 230417, Note_on_c, 9, 36, 17
4, 230507, Note_on_c, 9, 51, 0
4, 230562, Note_on_c, 9, 36, 0
4, 230852, Note_on_c, 9, 51, 69
4, 230884, Note_on_c, 9, 36, 24
4, 230897, Note_on_c, 9, 46, 27
4, 231029, Note_on_c, 9, 46, 0
4, 231033, Note_on_c, 9, 51, 0
4, 231153, Note_on_c, 9, 36, 0
4, 231317, Note_on_c, 9, 53, 80
4, 231371, Note_on_c, 9, 36, 38
4, 231576, Note_on_c, 9, 53, 0
4, 231619, Note_on_c, 9, 51, 50
4, 231685, Note_on_c, 9, 36, 0
4, 232075, Note_on_c, 9, 51, 0
4, 232273, Note_on_c, 9, 51, 67
4, 232770, Note_on_c, 9, 44, 31
4, 232842, Note_on_c, 9, 51, 0
4, 232927, Note_on_c, 9, 44, 0
4, 233540, Note_on_c, 9, 38, 51
4, 233579, Note_on_c, 9, 51, 52
4, 233673, Note_on_c, 9, 38, 0
4, 233689, Note_on_c, 9, 51, 0
4, 233752, Note_on_c, 9, 51, 47
4, 233791, Note_on_c, 9, 36, 24
4, 233868, Note_on_c, 9, 36, 0
4, 233994, Note_on_c, 9, 51, 0
4, 234028, Note_on_c, 9, 36, 53
4, 234136, Note_on_c, 9, 36, 0
4, 234239, Note_on_c, 9, 51, 60
4, 234242, Note_on_c, 9, 36, 50
4, 234693, Note_on_c, 9, 44, 32
4, 234800, Note_on_c, 9, 51, 0
4, 234810, Note_on_c, 9, 36, 0
4, 234841, Note_on_c, 9, 44, 0
4, 235045, Note_on_c, 9, 51, 46
4, 235120, Note_on_c, 9, 51, 0
4, 235214, Note_on_c, 9, 51, 49
4, 235303, Note_on_c, 9, 51, 0
4, 235486, Note_on_c, 9, 38, 39
4, 235526, Note_on_c, 9, 53, 59
4, 235561, Note_on_c, 9, 38, 0
4, 235661, Note_on_c, 9, 53, 0
4, 235850, Note_on_c, 9, 38, 45
4, 235890, Note_on_c, 9, 38, 0
4, 235956, Note_on_c, 9, 51, 38
4, 235966, Note_on_c, 9, 38, 43
4, 236023, Note_on_c, 9, 38, 0
4, 236052, Note_on_c, 9, 51, 0
4, 236101, Note_on_c, 9, 36, 45
4, 236459, Note_on_c, 9, 51, 51
4, 236550, Note_on_c, 9, 51, 0
4, 236611, Note_on_c, 9, 44, 32
4, 236645, Note_on_c, 9, 51, 60
4, 236689, Note_on_c, 9, 44, 0
4, 236718, Note_on_c, 9, 51, 0
4, 236939, Note_on_c, 9, 51, 49
4, 237026, Note_on_c, 9, 51, 0
4, 237125, Note_on_c, 9, 51, 42
4, 237131, Note_on_c, 9, 59, 60
4, 237143, Note_on_c, 9, 53, 38
4, 237377, Note_on_c, 9, 51, 0
4, 237384, Note_on_c, 9, 53, 0
4, 237397, Note_on_c, 9, 59, 0
4, 237609, Note_on_c, 9, 51, 46
4, 237622, Note_on_c, 9, 53, 42
4, 237625, Note_on_c, 9, 59, 60
4, 237635, Note_on_c, 9, 52, 30
4, 237720, Note_on_c, 9, 36, 0
4, 237751, Note_on_c, 9, 52, 0
4, 237946, Note_on_c, 9, 53, 0
4, 237950, Note_on_c, 9, 59, 0
4, 237957, Note_on_c, 9, 51, 0
4, 238113, Note_on_c, 9, 51, 63
4, 238118, Note_on_c, 9, 59, 73
4, 238122, Note_on_c, 9, 36, 44
4, 238126, Note_on_c, 9, 53, 61
4, 238256, Note_on_c, 9, 53, 0
4, 238257, Note_on_c, 9, 51, 0
4, 238361, Note_on_c, 9, 59, 0
4, 238880, Note_on_c, 9, 51, 37
4, 238954, Note_on_c, 9, 51, 0
4, 239049, Note_on_c, 9, 51, 56
4, 239063, Note_on_c, 9, 44, 39
4, 239118, Note_on_c, 9, 36, 0
4, 239188, Note_on_c, 9, 51, 0
4, 239193, Note_on_c, 9, 44, 0
4, 239324, Note_on_c, 9, 38, 34
4, 239415, Note_on_c, 9, 38, 0
4, 239544, Note_on_c, 9, 53, 55
4, 239587, Note_on_c, 9, 53, 0
4, 239825, Note_on_c, 9, 36, 32
4, 239831, Note_on_c, 9, 51, 37
4, 239897, Note_on_c, 9, 36, 0
4, 239904, Note_on_c, 9, 51, 0
4, 240018, Note_on_c, 9, 36, 45
4, 240025, Note_on_c, 9, 57, 71
4, 240035, Note_on_c, 9, 51, 53
4, 240049, Note_on_c, 9, 53, 49
4, 240212, Note_on_c, 9, 57, 0
4, 240249, Note_on_c, 9, 53, 0
4, 240272, Note_on_c, 9, 51, 0
4, 240825, Note_on_c, 9, 51, 50
4, 240909, Note_on_c, 9, 51, 0
4, 241017, Note_on_c, 9, 51, 50
4, 241043, Note_on_c, 9, 44, 55
4, 241108, Note_on_c, 9, 51, 0
4, 241204, Note_on_c, 9, 44, 0
4, 241219, Note_on_c, 9, 36, 0
4, 241285, Note_on_c, 9, 51, 59
4, 241295, Note_on_c, 9, 38, 35
4, 241359, Note_on_c, 9, 38, 0
4, 241384, Note_on_c, 9, 51, 0
4, 241483, Note_on_c, 9, 59, 64
4, 241491, Note_on_c, 9, 53, 58
4, 241520, Note_on_c, 9, 38, 39
4, 241618, Note_on_c, 9, 38, 0
4, 241651, Note_on_c, 9, 59, 0
4, 241662, Note_on_c, 9, 53, 0
4, 241771, Note_on_c, 9, 36, 49
4, 241850, Note_on_c, 9, 36, 0
4, 241964, Note_on_c, 9, 51, 54
4, 241977, Note_on_c, 9, 57, 81
4, 241988, Note_on_c, 9, 53, 42
4, 242006, Note_on_c, 9, 36, 47
4, 242181, Note_on_c, 9, 57, 0
4, 242239, Note_on_c, 9, 53, 0
4, 242283, Note_on_c, 9, 51, 0
4, 244354, Note_on_c, 9, 36, 0
4, 248967, Note_on_c, 9, 38, 53
4, 249018, Note_on_c, 9, 38, 0
4, 249139, Note_on_c, 9, 38, 54
4, 249220, Note_on_c, 9, 38, 0
4, 249346, Note_on_c, 9, 36, 55
4, 249364, Note_on_c, 9, 57, 37
4, 249590, Note_on_c, 9, 57, 0
4, 249656, Note_on_c, 9, 36, 0
4, 249656, End_track
0, 0, End_of_file
