0, 0, Header, 0, 1, 384
1, 0, Start_track
1, 0, Sequencer_specific, 21, 67, 115, 10, 0, 5, 75, 79, 79, 79, 79, 79, 79, 79, 79, 79, 79, 79, 79, 79, 79, 79
1, 0, SMPTE_offset, 96, 0, 0, 0, 0
1, 0, Time_signature, 4, 2, 24, 8
1, 0, Tempo, 500000
1, 0, Sequencer_specific, 6, 67, 115, 10, 0, 4, 1
1, 0, Sequencer_specific, 9, 67, 123, 0, 88, 70, 48, 50, 0, 0
1, 0, System_exclusive, 5, 126, 127, 9, 1, 247
1, 384, System_exclusive, 8, 67, 16, 76, 0, 0, 126, 0, 247
1, 384, System_exclusive, 8, 67, 16, 76, 8, 15, 0, 1, 247
1, 384, System_exclusive, 8, 67, 16, 76, 8, 14, 0, 1, 247
1, 384, System_exclusive, 8, 67, 16, 76, 8, 13, 0, 1, 247
1, 384, System_exclusive, 8, 67, 16, 76, 8, 12, 0, 1, 247
1, 384, System_exclusive, 8, 67, 16, 76, 8, 11, 0, 1, 247
1, 384, System_exclusive, 8, 67, 16, 76, 8, 10, 0, 1, 247
1, 384, System_exclusive, 8, 67, 16, 76, 8, 9, 0, 0, 247
1, 384, System_exclusive, 8, 67, 16, 76, 8, 8, 0, 1, 247
1, 384, System_exclusive, 8, 67, 16, 76, 8, 7, 0, 1, 247
1, 384, System_exclusive, 8, 67, 16, 76, 8, 6, 0, 1, 247
1, 384, System_exclusive, 8, 67, 16, 76, 8, 5, 0, 1, 247
1, 384, System_exclusive, 8, 67, 16, 76, 8, 4, 0, 2, 247
1, 384, System_exclusive, 8, 67, 16, 76, 8, 3, 0, 2, 247
1, 384, System_exclusive, 8, 67, 16, 76, 8, 2, 0, 4, 247
1, 384, System_exclusive, 8, 67, 16, 76, 8, 1, 0, 4, 247
1, 384, System_exclusive, 8, 67, 16, 76, 8, 0, 0, 8, 247
1, 384, System_exclusive, 8, 67, 16, 76, 8, 0, 7, 1, 247
1, 384, System_exclusive, 8, 67, 16, 76, 8, 1, 7, 0, 247
1, 384, System_exclusive, 8, 67, 16, 76, 8, 2, 7, 0, 247
1, 384, System_exclusive, 8, 67, 16, 76, 8, 3, 7, 0, 247
1, 384, System_exclusive, 8, 67, 16, 76, 8, 4, 7, 0, 247
1, 384, System_exclusive, 8, 67, 16, 76, 8, 5, 7, 0, 247
1, 384, System_exclusive, 8, 67, 16, 76, 8, 6, 7, 0, 247
1, 384, System_exclusive, 8, 67, 16, 76, 8, 7, 7, 0, 247
1, 384, System_exclusive, 8, 67, 16, 76, 8, 8, 7, 0, 247
1, 384, System_exclusive, 8, 67, 16, 76, 8, 9, 7, 2, 247
1, 384, System_exclusive, 8, 67, 16, 76, 8, 10, 7, 0, 247
1, 384, System_exclusive, 8, 67, 16, 76, 8, 11, 7, 0, 247
1, 384, System_exclusive, 8, 67, 16, 76, 8, 12, 7, 0, 247
1, 384, System_exclusive, 8, 67, 16, 76, 8, 13, 7, 0, 247
1, 384, System_exclusive, 8, 67, 16, 76, 8, 14, 7, 0, 247
1, 384, System_exclusive, 8, 67, 16, 76, 8, 15, 7, 0, 247
1, 384, System_exclusive, 9, 67, 16, 76, 2, 1, 0, 3, 17, 247
1, 384, System_exclusive, 9, 67, 16, 76, 2, 1, 32, 67, 1, 247
1, 384, System_exclusive, 9, 67, 16, 76, 2, 1, 64, 5, 0, 247
1, 384, System_exclusive, 9, 67, 16, 76, 3, 0, 0, 3, 18, 247
1, 384, System_exclusive, 8, 67, 16, 76, 3, 0, 11, 5, 247
1, 384, System_exclusive, 8, 67, 16, 76, 3, 0, 12, 127, 247
1, 384, System_exclusive, 8, 67, 16, 76, 8, 0, 114, 64, 247
1, 384, System_exclusive, 8, 67, 16, 76, 8, 0, 115, 64, 247
1, 384, System_exclusive, 8, 67, 16, 76, 8, 0, 119, 46, 247
1, 768, Control_c, 0, 7, 102
1, 768, Control_c, 0, 0, 0
1, 768, Control_c, 0, 32, 0
1, 768, Program_c, 0, 0
1, 768, Control_c, 0, 10, 64
1, 768, Control_c, 0, 11, 127
1, 768, Control_c, 0, 91, 0
1, 768, Control_c, 0, 93, 0
1, 768, Control_c, 0, 94, 0
1, 768, Control_c, 0, 101, 0
1, 768, Control_c, 0, 100, 1
1, 768, Control_c, 0, 6, 64
1, 768, Control_c, 0, 38, 0
1, 768, Pitch_bend_c, 0, 8192
1, 768, Control_c, 0, 71, 64
1, 768, Control_c, 0, 74, 64
1, 768, Control_c, 0, 64, 0
1, 1536, Note_on_c, 0, 38, 56
1, 1536, Note_on_c, 0, 83, 81
1, 1700, Control_c, 0, 64, 127
1, 1796, Note_on_c, 0, 38, 0
1, 2292, Note_on_c, 0, 60, 31
1, 2300, Note_on_c, 0, 64, 32
1, 2304, Note_on_c, 0, 54, 37
1, 2812, Note_on_c, 0, 83, 0
1, 2880, Note_on_c, 0, 60, 0
1, 2912, Note_on_c, 0, 64, 0
1, 2952, Note_on_c, 0, 82, 72
1, 3060, Note_on_c, 0, 82, 0
1, 3152, Note_on_c, 0, 54, 0
1, 3368, Note_on_c, 0, 75, 75
1, 3368, Note_on_c, 0, 81, 75
1, 3380, Note_on_c, 0, 71, 57
1, 3388, Control_c, 0, 64, 0
1, 3392, Note_on_c, 0, 53, 55
1, 3400, Note_on_c, 0, 59, 53
1, 3404, Note_on_c, 0, 64, 49
1, 3476, Note_on_c, 0, 76, 63
1, 3484, Note_on_c, 0, 75, 0
1, 3612, Control_c, 0, 64, 127
1, 3844, Note_on_c, 0, 53, 0
1, 3856, Note_on_c, 0, 64, 0
1, 3928, Note_on_c, 0, 59, 0
1, 3940, Note_on_c, 0, 76, 0
1, 3952, Note_on_c, 0, 71, 0
1, 4008, Note_on_c, 0, 81, 0
1, 4128, Note_on_c, 0, 80, 70
1, 4140, Note_on_c, 0, 59, 56
1, 4144, Note_on_c, 0, 75, 63
1, 4144, Note_on_c, 0, 71, 54
1, 4148, Note_on_c, 0, 63, 54
1, 4152, Control_c, 0, 64, 0
1, 4156, Note_on_c, 0, 53, 50
1, 4304, Control_c, 0, 64, 127
1, 4360, Note_on_c, 0, 59, 0
1, 4384, Note_on_c, 0, 71, 0
1, 4408, Note_on_c, 0, 53, 0
1, 4416, Note_on_c, 0, 63, 0
1, 4480, Note_on_c, 0, 80, 0
1, 4524, Note_on_c, 0, 75, 0
1, 4632, Control_c, 0, 64, 0
1, 4636, Note_on_c, 0, 79, 74
1, 4648, Note_on_c, 0, 62, 52
1, 4648, Note_on_c, 0, 52, 52
1, 4648, Note_on_c, 0, 58, 53
1, 4648, Note_on_c, 0, 74, 66
1, 4648, Note_on_c, 0, 69, 55
1, 4744, Control_c, 0, 64, 127
1, 4984, Note_on_c, 0, 52, 0
1, 4992, Note_on_c, 0, 74, 0
1, 4996, Note_on_c, 0, 69, 0
1, 5020, Note_on_c, 0, 58, 0
1, 5028, Note_on_c, 0, 62, 0
1, 5184, Note_on_c, 0, 79, 0
1, 5328, Control_c, 0, 64, 0
1, 5328, Note_on_c, 0, 81, 66
1, 5336, Note_on_c, 0, 76, 61
1, 5336, Note_on_c, 0, 73, 49
1, 5340, Note_on_c, 0, 80, 24
1, 5344, Note_on_c, 0, 70, 41
1, 5348, Note_on_c, 0, 64, 47
1, 5348, Note_on_c, 0, 58, 46
1, 5456, Control_c, 0, 64, 127
1, 5640, Note_on_c, 0, 81, 0
1, 5688, Note_on_c, 0, 80, 0
1, 5752, Note_on_c, 0, 76, 0
1, 5772, Note_on_c, 0, 70, 0
1, 5872, Note_on_c, 0, 73, 0
1, 6068, Note_on_c, 0, 64, 0
1, 6172, Note_on_c, 0, 58, 0
1, 6792, Control_c, 0, 64, 0
1, 6800, Note_on_c, 0, 76, 57
1, 6804, Note_on_c, 0, 72, 50
1, 6808, Note_on_c, 0, 69, 46
1, 6816, Note_on_c, 0, 60, 39
1, 6828, Note_on_c, 0, 64, 33
1, 6912, Control_c, 0, 64, 127
1, 7228, Note_on_c, 0, 60, 0
1, 8072, Note_on_c, 0, 29, 43
1, 8228, Note_on_c, 0, 29, 0
1, 8616, Note_on_c, 0, 64, 0
1, 8648, Note_on_c, 0, 69, 0
1, 8664, Note_on_c, 0, 72, 0
1, 8720, Note_on_c, 0, 76, 0
1, 9440, Note_on_c, 0, 77, 61
1, 9448, Note_on_c, 0, 69, 56
1, 9724, Note_on_c, 0, 69, 0
1, 9740, Note_on_c, 0, 77, 0
1, 10132, Note_on_c, 0, 79, 68
1, 10140, Note_on_c, 0, 71, 53
1, 10288, Note_on_c, 0, 71, 0
1, 10316, Note_on_c, 0, 79, 0
1, 10708, Control_c, 0, 64, 0
1, 10716, Note_on_c, 0, 80, 51
1, 10728, Note_on_c, 0, 69, 43
1, 10728, Note_on_c, 0, 47, 43
1, 10876, Control_c, 0, 64, 127
1, 10964, Note_on_c, 0, 80, 0
1, 11024, Note_on_c, 0, 69, 0
1, 11108, Note_on_c, 0, 54, 42
1, 11504, Note_on_c, 0, 56, 37
1, 11508, Note_on_c, 0, 57, 43
1, 11516, Note_on_c, 0, 61, 45
1, 11912, Note_on_c, 0, 56, 0
1, 11944, Note_on_c, 0, 47, 0
1, 11960, Note_on_c, 0, 54, 0
1, 12008, Note_on_c, 0, 57, 0
1, 12060, Note_on_c, 0, 61, 0
1, 12428, Control_c, 0, 64, 0
1, 12440, Note_on_c, 0, 67, 83
1, 12440, Note_on_c, 0, 61, 84
1, 12444, Note_on_c, 0, 57, 80
1, 12460, Note_on_c, 0, 51, 60
1, 12468, Note_on_c, 0, 41, 57
1, 12544, Note_on_c, 0, 61, 0
1, 12548, Note_on_c, 0, 62, 66
1, 12604, Control_c, 0, 64, 127
1, 12688, Note_on_c, 0, 57, 0
1, 12708, Note_on_c, 0, 67, 0
1, 12708, Note_on_c, 0, 41, 0
1, 12760, Note_on_c, 0, 62, 0
1, 12768, Note_on_c, 0, 51, 0
1, 12960, Note_on_c, 0, 66, 80
1, 12960, Control_c, 0, 64, 0
1, 12964, Note_on_c, 0, 62, 77
1, 12968, Note_on_c, 0, 56, 75
1, 12972, Note_on_c, 0, 40, 68
1, 12980, Note_on_c, 0, 52, 60
1, 13196, Control_c, 0, 64, 127
1, 13368, Note_on_c, 0, 47, 81
1, 13400, Note_on_c, 0, 40, 0
1, 13408, Note_on_c, 0, 52, 0
1, 14536, Note_on_c, 0, 62, 0
1, 14824, Note_on_c, 0, 66, 0
1, 14832, Note_on_c, 0, 56, 0
1, 15656, Control_c, 0, 64, 0
1, 15664, Note_on_c, 0, 56, 48
1, 15676, Note_on_c, 0, 61, 60
1, 15688, Note_on_c, 0, 65, 46
1, 15704, Note_on_c, 0, 47, 0
1, 15704, Note_on_c, 0, 46, 48
1, 15736, Note_on_c, 0, 61, 0
1, 15744, Note_on_c, 0, 62, 59
1, 15884, Control_c, 0, 64, 127
1, 15948, Note_on_c, 0, 62, 0
1, 15964, Note_on_c, 0, 56, 0
1, 16056, Note_on_c, 0, 65, 0
1, 16212, Note_on_c, 0, 46, 0
1, 16336, Note_on_c, 0, 64, 61
1, 16340, Control_c, 0, 64, 0
1, 16344, Note_on_c, 0, 55, 46
1, 16348, Note_on_c, 0, 61, 51
1, 16360, Note_on_c, 0, 45, 41
1, 16496, Control_c, 0, 64, 127
1, 16624, Note_on_c, 0, 45, 0
1, 16640, Note_on_c, 0, 55, 0
1, 16708, Note_on_c, 0, 61, 0
1, 16728, Note_on_c, 0, 64, 0
1, 16876, Control_c, 0, 64, 0
1, 16896, Note_on_c, 0, 55, 52
1, 16896, Note_on_c, 0, 65, 51
1, 16904, Note_on_c, 0, 39, 42
1, 16904, Note_on_c, 0, 60, 56
1, 16936, Note_on_c, 0, 46, 32
1, 17048, Control_c, 0, 64, 127
1, 17088, Note_on_c, 0, 39, 0
1, 17112, Note_on_c, 0, 60, 0
1, 17120, Note_on_c, 0, 65, 0
1, 17144, Note_on_c, 0, 46, 0
1, 17188, Note_on_c, 0, 55, 0
1, 17612, Note_on_c, 0, 38, 44
1, 17616, Note_on_c, 0, 45, 24
1, 17620, Note_on_c, 0, 62, 52
1, 17628, Note_on_c, 0, 57, 45
1, 17632, Note_on_c, 0, 52, 42
1, 17632, Note_on_c, 0, 53, 35
1, 17632, Control_c, 0, 64, 0
1, 17908, Control_c, 0, 64, 127
1, 18136, Note_on_c, 0, 52, 0
1, 18240, Note_on_c, 0, 50, 57
1, 18508, Note_on_c, 0, 57, 0
1, 18596, Note_on_c, 0, 53, 0
1, 18784, Note_on_c, 0, 57, 49
1, 18828, Note_on_c, 0, 62, 0
1, 19248, Note_on_c, 0, 58, 60
1, 19264, Note_on_c, 0, 57, 0
1, 19356, Note_on_c, 0, 58, 0
1, 19380, Note_on_c, 0, 59, 59
1, 19544, Note_on_c, 0, 59, 0
1, 19628, Note_on_c, 0, 60, 78
1, 19672, Note_on_c, 0, 38, 0
1, 19712, Note_on_c, 0, 45, 0
1, 19804, Note_on_c, 0, 60, 0
1, 19816, Note_on_c, 0, 61, 77
1, 19844, Note_on_c, 0, 50, 0
1, 19904, Note_on_c, 0, 61, 0
1, 19924, Note_on_c, 0, 62, 74
1, 19984, Note_on_c, 0, 62, 0
1, 20020, Note_on_c, 0, 63, 67
1, 20096, Note_on_c, 0, 63, 0
1, 20112, Note_on_c, 0, 64, 68
1, 20192, Note_on_c, 0, 65, 61
1, 20208, Note_on_c, 0, 64, 0
1, 20264, Note_on_c, 0, 65, 0
1, 20304, Note_on_c, 0, 66, 74
1, 20396, Note_on_c, 0, 66, 0
1, 20420, Note_on_c, 0, 60, 74
1, 20420, Control_c, 0, 64, 0
1, 20424, Note_on_c, 0, 50, 34
1, 20424, Note_on_c, 0, 67, 68
1, 20424, Note_on_c, 0, 64, 68
1, 20428, Note_on_c, 0, 55, 52
1, 20432, Note_on_c, 0, 57, 54
1, 20436, Note_on_c, 0, 53, 47
1, 20632, Control_c, 0, 64, 127
1, 20728, Note_on_c, 0, 60, 0
1, 20740, Note_on_c, 0, 67, 0
1, 20748, Note_on_c, 0, 57, 0
1, 20756, Note_on_c, 0, 64, 0
1, 20760, Note_on_c, 0, 53, 0
1, 20768, Note_on_c, 0, 55, 0
1, 20844, Note_on_c, 0, 67, 64
1, 20848, Note_on_c, 0, 64, 62
1, 20848, Note_on_c, 0, 55, 50
1, 20852, Note_on_c, 0, 60, 68
1, 20852, Note_on_c, 0, 57, 57
1, 20860, Note_on_c, 0, 53, 45
1, 21060, Note_on_c, 0, 60, 0
1, 21072, Note_on_c, 0, 57, 0
1, 21080, Note_on_c, 0, 53, 0
1, 21092, Note_on_c, 0, 50, 0
1, 21096, Note_on_c, 0, 64, 0
1, 21104, Note_on_c, 0, 67, 0
1, 21104, Note_on_c, 0, 55, 0
1, 21284, Note_on_c, 0, 67, 57
1, 21296, Note_on_c, 0, 64, 48
1, 21300, Note_on_c, 0, 57, 42
1, 21300, Note_on_c, 0, 60, 42
1, 21308, Note_on_c, 0, 55, 44
1, 21308, Note_on_c, 0, 50, 40
1, 21316, Note_on_c, 0, 53, 50
1, 21484, Note_on_c, 0, 50, 0
1, 21492, Note_on_c, 0, 57, 0
1, 21496, Note_on_c, 0, 64, 0
1, 21496, Note_on_c, 0, 53, 0
1, 21500, Note_on_c, 0, 60, 0
1, 21520, Note_on_c, 0, 55, 0
1, 21536, Note_on_c, 0, 67, 0
1, 21724, Note_on_c, 0, 55, 47
1, 21724, Note_on_c, 0, 57, 42
1, 21728, Note_on_c, 0, 64, 50
1, 21728, Note_on_c, 0, 67, 51
1, 21728, Note_on_c, 0, 60, 49
1, 21732, Note_on_c, 0, 53, 53
1, 21732, Note_on_c, 0, 50, 38
1, 21924, Note_on_c, 0, 57, 0
1, 21924, Note_on_c, 0, 53, 0
1, 21928, Note_on_c, 0, 55, 0
1, 21940, Note_on_c, 0, 60, 0
1, 21940, Note_on_c, 0, 50, 0
1, 21952, Note_on_c, 0, 64, 0
1, 21952, Note_on_c, 0, 67, 0
1, 22096, Note_on_c, 0, 50, 54
1, 22100, Note_on_c, 0, 55, 57
1, 22108, Note_on_c, 0, 64, 66
1, 22108, Note_on_c, 0, 67, 62
1, 22108, Note_on_c, 0, 57, 56
1, 22108, Note_on_c, 0, 60, 67
1, 22108, Note_on_c, 0, 53, 45
1, 22168, Note_on_c, 0, 53, 0
1, 22196, Note_on_c, 0, 55, 0
1, 22204, Note_on_c, 0, 57, 0
1, 22216, Note_on_c, 0, 67, 0
1, 22220, Note_on_c, 0, 60, 0
1, 22228, Note_on_c, 0, 50, 0
1, 22244, Note_on_c, 0, 64, 0
1, 22504, Note_on_c, 0, 58, 79
1, 22512, Control_c, 0, 64, 0
1, 22512, Note_on_c, 0, 68, 87
1, 22512, Note_on_c, 0, 61, 87
1, 22512, Note_on_c, 0, 65, 83
1, 22512, Note_on_c, 0, 54, 60
1, 22512, Note_on_c, 0, 56, 65
1, 22636, Control_c, 0, 64, 127
1, 22784, Note_on_c, 0, 65, 0
1, 22788, Note_on_c, 0, 61, 0
1, 22796, Note_on_c, 0, 58, 0
1, 22812, Note_on_c, 0, 56, 0
1, 22824, Note_on_c, 0, 68, 0
1, 22824, Note_on_c, 0, 54, 0
1, 22932, Note_on_c, 0, 58, 69
1, 22932, Note_on_c, 0, 56, 65
1, 22940, Note_on_c, 0, 68, 77
1, 22940, Note_on_c, 0, 54, 55
1, 22940, Note_on_c, 0, 65, 77
1, 22948, Note_on_c, 0, 61, 68
1, 23140, Note_on_c, 0, 65, 0
1, 23152, Note_on_c, 0, 58, 0
1, 23156, Note_on_c, 0, 61, 0
1, 23164, Note_on_c, 0, 54, 0
1, 23180, Note_on_c, 0, 56, 0
1, 23300, Note_on_c, 0, 68, 0
1, 23408, Control_c, 0, 64, 0
1, 23420, Note_on_c, 0, 66, 70
1, 23420, Note_on_c, 0, 69, 75
1, 23428, Note_on_c, 0, 57, 60
1, 23428, Note_on_c, 0, 59, 69
1, 23428, Note_on_c, 0, 55, 57
1, 23428, Note_on_c, 0, 62, 69
1, 23520, Control_c, 0, 64, 127
1, 23548, Note_on_c, 0, 59, 0
1, 23556, Note_on_c, 0, 57, 0
1, 23576, Note_on_c, 0, 55, 0
1, 23660, Note_on_c, 0, 62, 0
1, 23684, Note_on_c, 0, 66, 0
1, 23876, Note_on_c, 0, 60, 84
1, 23880, Note_on_c, 0, 55, 71
1, 23884, Control_c, 0, 64, 0
1, 23884, Note_on_c, 0, 45, 65
1, 23936, Note_on_c, 0, 69, 0
1, 24036, Control_c, 0, 64, 127
1, 24196, Note_on_c, 0, 55, 0
1, 24200, Note_on_c, 0, 60, 0
1, 24220, Note_on_c, 0, 45, 0
1, 24240, Note_on_c, 0, 52, 75
1, 24632, Note_on_c, 0, 76, 82
1, 24640, Note_on_c, 0, 56, 82
1, 24640, Note_on_c, 0, 68, 75
1, 24640, Note_on_c, 0, 71, 76
1, 24640, Note_on_c, 0, 64, 75
1, 24656, Note_on_c, 0, 74, 51
1, 24684, Note_on_c, 0, 74, 0
1, 24944, Note_on_c, 0, 56, 0
1, 25028, Note_on_c, 0, 76, 0
1, 25056, Note_on_c, 0, 71, 0
1, 25064, Note_on_c, 0, 64, 0
1, 25088, Note_on_c, 0, 64, 39
1, 25100, Note_on_c, 0, 74, 74
1, 25108, Note_on_c, 0, 71, 47
1, 25116, Note_on_c, 0, 55, 66
1, 25180, Note_on_c, 0, 55, 0
1, 25216, Note_on_c, 0, 52, 0
1, 25368, Note_on_c, 0, 71, 0
1, 25372, Note_on_c, 0, 64, 0
1, 25412, Note_on_c, 0, 68, 0
1, 25432, Note_on_c, 0, 74, 0
1, 25628, Control_c, 0, 64, 0
1, 25636, Note_on_c, 0, 71, 68
1, 25644, Note_on_c, 0, 60, 52
1, 25644, Note_on_c, 0, 26, 57
1, 25652, Note_on_c, 0, 38, 48
1, 25660, Note_on_c, 0, 64, 59
1, 25772, Note_on_c, 0, 26, 0
1, 25772, Control_c, 0, 64, 127
1, 25784, Note_on_c, 0, 60, 0
1, 25816, Note_on_c, 0, 64, 0
1, 25820, Note_on_c, 0, 38, 0
1, 25852, Note_on_c, 0, 71, 0
1, 26120, Note_on_c, 0, 83, 68
1, 26128, Note_on_c, 0, 80, 58
1, 26128, Note_on_c, 0, 71, 45
1, 26132, Note_on_c, 0, 76, 60
1, 26140, Note_on_c, 0, 54, 48
1, 26208, Note_on_c, 0, 71, 0
1, 26244, Note_on_c, 0, 76, 0
1, 26268, Note_on_c, 0, 80, 0
1, 26280, Note_on_c, 0, 83, 0
1, 26668, Note_on_c, 0, 95, 67
1, 26676, Note_on_c, 0, 92, 55
1, 26676, Note_on_c, 0, 83, 55
1, 26676, Note_on_c, 0, 88, 63
1, 26692, Note_on_c, 0, 64, 54
1, 26700, Note_on_c, 0, 60, 51
1, 27104, Note_on_c, 0, 64, 0
1, 27124, Note_on_c, 0, 60, 0
1, 27132, Note_on_c, 0, 88, 0
1, 27140, Note_on_c, 0, 92, 0
1, 27148, Note_on_c, 0, 83, 0
1, 27240, Note_on_c, 0, 95, 0
1, 27484, Note_on_c, 0, 60, 39
1, 27484, Note_on_c, 0, 83, 44
1, 27488, Note_on_c, 0, 64, 38
1, 27488, Note_on_c, 0, 93, 51
1, 27496, Note_on_c, 0, 88, 51
1, 27616, Note_on_c, 0, 64, 0
1, 27656, Note_on_c, 0, 60, 0
1, 27664, Note_on_c, 0, 93, 0
1, 27696, Note_on_c, 0, 88, 0
1, 27720, Note_on_c, 0, 54, 0
1, 27736, Note_on_c, 0, 83, 0
1, 28340, Note_on_c, 0, 62, 72
1, 28340, Control_c, 0, 64, 0
1, 28348, Note_on_c, 0, 53, 67
1, 28348, Note_on_c, 0, 57, 67
1, 28348, Note_on_c, 0, 48, 62
1, 28432, Control_c, 0, 64, 127
1, 28488, Note_on_c, 0, 62, 0
1, 28504, Note_on_c, 0, 57, 0
1, 28524, Note_on_c, 0, 53, 0
1, 28648, Control_c, 0, 64, 0
1, 28648, Note_on_c, 0, 64, 81
1, 28648, Note_on_c, 0, 58, 81
1, 28652, Note_on_c, 0, 55, 75
1, 28656, Note_on_c, 0, 49, 71
1, 28672, Note_on_c, 0, 48, 0
1, 28780, Control_c, 0, 64, 127
1, 28860, Note_on_c, 0, 64, 0
1, 28868, Note_on_c, 0, 55, 0
1, 28924, Note_on_c, 0, 58, 0
1, 29012, Control_c, 0, 64, 0
1, 29012, Note_on_c, 0, 65, 81
1, 29016, Note_on_c, 0, 60, 79
1, 29016, Note_on_c, 0, 57, 78
1, 29032, Note_on_c, 0, 50, 68
1, 29044, Note_on_c, 0, 49, 0
1, 29144, Control_c, 0, 64, 127
1, 29412, Note_on_c, 0, 57, 0
1, 29412, Note_on_c, 0, 50, 0
1, 29432, Note_on_c, 0, 60, 0
1, 29436, Note_on_c, 0, 51, 41
1, 29456, Note_on_c, 0, 65, 0
1, 29540, Note_on_c, 0, 51, 0
1, 29556, Note_on_c, 0, 52, 50
1, 29596, Note_on_c, 0, 52, 0
1, 29636, Note_on_c, 0, 53, 44
1, 29704, Note_on_c, 0, 53, 0
1, 29752, Note_on_c, 0, 55, 41
1, 29824, Control_c, 0, 64, 0
1, 29848, Note_on_c, 0, 55, 0
1, 29872, Note_on_c, 0, 68, 59
1, 29876, Note_on_c, 0, 56, 68
1, 29876, Note_on_c, 0, 59, 52
1, 29880, Note_on_c, 0, 62, 58
1, 29884, Note_on_c, 0, 65, 56
1, 30048, Control_c, 0, 64, 127
1, 30212, Note_on_c, 0, 56, 0
1, 30256, Note_on_c, 0, 55, 50
1, 30540, Note_on_c, 0, 55, 0
1, 30660, Note_on_c, 0, 53, 49
1, 31608, Note_on_c, 0, 65, 0
1, 31712, Note_on_c, 0, 43, 50
1, 32432, Note_on_c, 0, 62, 0
1, 32500, Note_on_c, 0, 59, 0
1, 32504, Note_on_c, 0, 68, 0
1, 32532, Note_on_c, 0, 43, 0
1, 32548, Note_on_c, 0, 53, 0
1, 32900, Note_on_c, 0, 68, 55
1, 33096, Note_on_c, 0, 68, 0
1, 34052, Control_c, 0, 64, 0
1, 34068, Note_on_c, 0, 69, 55
1, 34076, Note_on_c, 0, 66, 47
1, 34076, Note_on_c, 0, 57, 45
1, 34076, Note_on_c, 0, 62, 53
1, 34092, Note_on_c, 0, 40, 44
1, 34176, Control_c, 0, 64, 127
1, 34188, Note_on_c, 0, 57, 0
1, 34224, Note_on_c, 0, 62, 0
1, 34256, Note_on_c, 0, 66, 0
1, 34268, Note_on_c, 0, 69, 0
1, 34424, Note_on_c, 0, 40, 0
1, 34444, Note_on_c, 0, 55, 49
1, 34444, Note_on_c, 0, 74, 66
1, 34448, Note_on_c, 0, 81, 68
1, 34648, Note_on_c, 0, 55, 0
1, 34664, Note_on_c, 0, 74, 0
1, 34720, Note_on_c, 0, 81, 0
1, 34772, Note_on_c, 0, 58, 63
1, 34784, Note_on_c, 0, 78, 63
1, 34788, Note_on_c, 0, 69, 55
1, 34788, Note_on_c, 0, 74, 57
1, 34888, Note_on_c, 0, 74, 0
1, 34904, Note_on_c, 0, 78, 0
1, 34956, Note_on_c, 0, 69, 0
1, 35120, Note_on_c, 0, 62, 52
1, 35148, Note_on_c, 0, 62, 0
1, 35180, Note_on_c, 0, 58, 0
1, 35492, Note_on_c, 0, 70, 54
1, 35492, Note_on_c, 0, 55, 54
1, 35496, Note_on_c, 0, 61, 43
1, 35496, Control_c, 0, 64, 0
1, 35500, Note_on_c, 0, 65, 52
1, 35512, Note_on_c, 0, 45, 41
1, 35640, Control_c, 0, 64, 127
1, 35740, Note_on_c, 0, 70, 0
1, 35744, Note_on_c, 0, 61, 0
1, 35752, Note_on_c, 0, 65, 0
1, 35808, Note_on_c, 0, 55, 0
1, 35820, Note_on_c, 0, 45, 0
1, 35848, Note_on_c, 0, 72, 60
1, 35872, Note_on_c, 0, 52, 31
1, 35908, Note_on_c, 0, 52, 0
1, 35932, Note_on_c, 0, 72, 0
1, 36304, Note_on_c, 0, 55, 39
1, 36312, Note_on_c, 0, 61, 41
1, 36332, Note_on_c, 0, 77, 42
1, 36332, Note_on_c, 0, 84, 52
1, 36332, Note_on_c, 0, 73, 43
1, 36340, Note_on_c, 0, 65, 37
1, 36628, Note_on_c, 0, 65, 0
1, 36980, Note_on_c, 0, 84, 0
1, 37064, Note_on_c, 0, 82, 54
1, 37072, Note_on_c, 0, 64, 33
1, 37204, Note_on_c, 0, 77, 0
1, 37220, Note_on_c, 0, 64, 0
1, 37264, Note_on_c, 0, 82, 0
1, 37276, Note_on_c, 0, 73, 0
1, 37348, Note_on_c, 0, 61, 0
1, 37472, Note_on_c, 0, 55, 0
1, 38240, Note_on_c, 0, 71, 82
1, 38244, Note_on_c, 0, 64, 77
1, 38248, Note_on_c, 0, 60, 71
1, 38252, Note_on_c, 0, 59, 75
1, 38268, Control_c, 0, 64, 0
1, 38388, Control_c, 0, 64, 127
1, 38580, Note_on_c, 0, 58, 77
1, 38600, Note_on_c, 0, 59, 0
1, 38788, Note_on_c, 0, 60, 0
1, 38812, Note_on_c, 0, 64, 0
1, 38824, Note_on_c, 0, 71, 0
1, 38844, Control_c, 0, 64, 0
1, 38864, Note_on_c, 0, 70, 78
1, 38868, Note_on_c, 0, 60, 57
1, 38872, Note_on_c, 0, 57, 70
1, 38872, Note_on_c, 0, 64, 73
1, 38880, Note_on_c, 0, 58, 0
1, 38964, Control_c, 0, 64, 127
1, 39108, Note_on_c, 0, 56, 81
1, 39128, Note_on_c, 0, 57, 0
1, 39148, Note_on_c, 0, 60, 0
1, 39164, Note_on_c, 0, 70, 0
1, 39216, Note_on_c, 0, 64, 0
1, 39320, Control_c, 0, 64, 0
1, 39344, Note_on_c, 0, 64, 76
1, 39348, Note_on_c, 0, 69, 76
1, 39352, Note_on_c, 0, 59, 66
1, 39356, Note_on_c, 0, 55, 74
1, 39372, Note_on_c, 0, 56, 0
1, 39444, Control_c, 0, 64, 127
1, 39600, Note_on_c, 0, 54, 68
1, 39616, Note_on_c, 0, 55, 0
1, 39656, Note_on_c, 0, 64, 0
1, 39676, Note_on_c, 0, 59, 0
1, 39736, Note_on_c, 0, 69, 0
1, 39844, Control_c, 0, 64, 0
1, 39860, Note_on_c, 0, 68, 58
1, 39864, Note_on_c, 0, 54, 0
1, 39864, Note_on_c, 0, 63, 60
1, 39872, Note_on_c, 0, 59, 49
1, 39872, Note_on_c, 0, 53, 60
1, 39964, Control_c, 0, 64, 127
1, 40116, Note_on_c, 0, 53, 0
1, 40220, Note_on_c, 0, 53, 48
1, 40328, Note_on_c, 0, 59, 0
1, 40384, Note_on_c, 0, 53, 0
1, 40400, Note_on_c, 0, 68, 0
1, 40428, Note_on_c, 0, 63, 0
1, 40552, Note_on_c, 0, 67, 54
1, 40556, Note_on_c, 0, 57, 39
1, 40560, Note_on_c, 0, 52, 49
1, 40560, Note_on_c, 0, 62, 55
1, 40560, Control_c, 0, 64, 0
1, 40676, Note_on_c, 0, 52, 0
1, 40700, Control_c, 0, 64, 127
1, 40908, Note_on_c, 0, 36, 52
1, 40996, Note_on_c, 0, 57, 0
1, 41088, Note_on_c, 0, 62, 0
1, 41228, Note_on_c, 0, 43, 49
1, 41360, Note_on_c, 0, 67, 0
1, 41560, Note_on_c, 0, 36, 0
1, 41568, Note_on_c, 0, 69, 59
1, 41572, Note_on_c, 0, 52, 49
1, 41588, Note_on_c, 0, 57, 35
1, 41596, Note_on_c, 0, 62, 44
1, 41668, Note_on_c, 0, 69, 0
1, 41672, Note_on_c, 0, 43, 0
1, 41684, Note_on_c, 0, 62, 0
1, 41704, Note_on_c, 0, 52, 0
1, 41708, Note_on_c, 0, 57, 0
1, 42008, Note_on_c, 0, 55, 50
1, 42008, Note_on_c, 0, 41, 55
1, 42016, Note_on_c, 0, 57, 50
1, 42016, Note_on_c, 0, 60, 56
1, 42044, Control_c, 0, 64, 0
1, 42056, Note_on_c, 0, 48, 39
1, 42296, Control_c, 0, 64, 127
1, 42352, Note_on_c, 0, 49, 56
1, 42460, Note_on_c, 0, 48, 0
1, 42488, Note_on_c, 0, 49, 0
1, 42524, Note_on_c, 0, 50, 54
1, 42596, Note_on_c, 0, 57, 0
1, 42616, Note_on_c, 0, 60, 0
1, 42624, Note_on_c, 0, 55, 0
1, 42684, Note_on_c, 0, 50, 0
1, 42688, Note_on_c, 0, 51, 60
1, 42716, Note_on_c, 0, 41, 0
1, 42888, Control_c, 0, 64, 0
1, 42904, Note_on_c, 0, 52, 62
1, 42904, Note_on_c, 0, 55, 46
1, 42904, Note_on_c, 0, 60, 55
1, 42904, Note_on_c, 0, 57, 52
1, 42972, Note_on_c, 0, 51, 0
1, 43040, Control_c, 0, 64, 127
1, 43372, Note_on_c, 0, 55, 0
1, 43380, Note_on_c, 0, 57, 0
1, 43396, Note_on_c, 0, 60, 0
1, 43548, Note_on_c, 0, 65, 65
1, 43556, Note_on_c, 0, 57, 75
1, 43696, Note_on_c, 0, 65, 0
1, 43708, Note_on_c, 0, 57, 0
1, 43836, Note_on_c, 0, 67, 84
1, 43840, Note_on_c, 0, 59, 84
1, 43860, Note_on_c, 0, 52, 0
1, 43980, Note_on_c, 0, 67, 0
1, 43996, Note_on_c, 0, 59, 0
1, 44436, Note_on_c, 0, 68, 86
1, 44444, Note_on_c, 0, 61, 75
1, 44444, Note_on_c, 0, 57, 78
1, 44448, Note_on_c, 0, 63, 68
1, 44452, Control_c, 0, 64, 0
1, 44452, Note_on_c, 0, 56, 75
1, 44460, Note_on_c, 0, 47, 63
1, 44684, Control_c, 0, 64, 127
1, 44984, Note_on_c, 0, 56, 0
1, 45192, Note_on_c, 0, 68, 0
1, 45232, Note_on_c, 0, 47, 0
1, 45236, Note_on_c, 0, 63, 0
1, 45264, Note_on_c, 0, 67, 72
1, 45324, Note_on_c, 0, 57, 0
1, 45376, Note_on_c, 0, 67, 0
1, 45460, Note_on_c, 0, 61, 0
1, 45616, Control_c, 0, 64, 0
1, 45636, Note_on_c, 0, 66, 63
1, 45640, Note_on_c, 0, 56, 62
1, 45640, Note_on_c, 0, 62, 70
1, 45644, Note_on_c, 0, 40, 56
1, 45748, Control_c, 0, 64, 127
1, 45852, Note_on_c, 0, 40, 0
1, 45908, Note_on_c, 0, 56, 0
1, 45920, Note_on_c, 0, 66, 0
1, 45920, Note_on_c, 0, 62, 0
1, 46072, Control_c, 0, 64, 0
1, 46080, Note_on_c, 0, 65, 61
1, 46084, Note_on_c, 0, 56, 55
1, 46096, Note_on_c, 0, 34, 47
1, 46100, Note_on_c, 0, 60, 58
1, 46100, Note_on_c, 0, 46, 31
1, 46200, Control_c, 0, 64, 127
1, 46288, Note_on_c, 0, 60, 0
1, 46312, Note_on_c, 0, 56, 0
1, 46332, Note_on_c, 0, 46, 0
1, 46356, Note_on_c, 0, 34, 0
1, 46388, Note_on_c, 0, 65, 0
1, 46516, Control_c, 0, 64, 0
1, 46544, Note_on_c, 0, 64, 56
1, 46544, Note_on_c, 0, 55, 46
1, 46552, Note_on_c, 0, 58, 42
1, 46556, Note_on_c, 0, 33, 48
1, 46560, Note_on_c, 0, 61, 42
1, 46564, Note_on_c, 0, 45, 40
1, 46684, Note_on_c, 0, 33, 0
1, 46704, Control_c, 0, 64, 127
1, 46764, Note_on_c, 0, 45, 0
1, 46828, Note_on_c, 0, 64, 0
1, 46844, Note_on_c, 0, 55, 0
1, 46880, Note_on_c, 0, 61, 0
1, 46888, Note_on_c, 0, 58, 0
1, 47092, Control_c, 0, 64, 0
1, 47128, Note_on_c, 0, 61, 57
1, 47132, Note_on_c, 0, 39, 43
1, 47136, Note_on_c, 0, 65, 49
1, 47136, Note_on_c, 0, 55, 54
1, 47140, Note_on_c, 0, 46, 36
1, 47240, Control_c, 0, 64, 127
1, 47300, Note_on_c, 0, 65, 0
1, 47348, Note_on_c, 0, 39, 0
1, 47356, Note_on_c, 0, 46, 0
1, 47360, Note_on_c, 0, 61, 0
1, 47364, Note_on_c, 0, 55, 0
1, 47540, Control_c, 0, 64, 0
1, 47580, Note_on_c, 0, 62, 54
1, 47588, Note_on_c, 0, 38, 49
1, 47592, Note_on_c, 0, 53, 48
1, 47604, Note_on_c, 0, 57, 43
1, 47604, Note_on_c, 0, 45, 43
1, 47612, Note_on_c, 0, 60, 31
1, 47656, Note_on_c, 0, 53, 0
1, 47660, Control_c, 0, 64, 127
1, 47672, Note_on_c, 0, 38, 0
1, 47688, Note_on_c, 0, 60, 0
1, 47692, Note_on_c, 0, 57, 0
1, 47696, Note_on_c, 0, 45, 0
1, 47732, Note_on_c, 0, 62, 0
1, 47972, Note_on_c, 0, 65, 56
1, 47972, Note_on_c, 0, 76, 62
1, 47976, Note_on_c, 0, 64, 39
1, 47984, Note_on_c, 0, 69, 55
1, 47992, Note_on_c, 0, 72, 48
1, 48084, Note_on_c, 0, 65, 0
1, 48100, Note_on_c, 0, 69, 0
1, 48100, Note_on_c, 0, 72, 0
1, 48136, Note_on_c, 0, 76, 0
1, 48148, Note_on_c, 0, 64, 0
1, 48320, Note_on_c, 0, 79, 68
1, 48328, Note_on_c, 0, 72, 57
1, 48336, Note_on_c, 0, 69, 48
1, 48344, Note_on_c, 0, 64, 41
1, 48444, Note_on_c, 0, 79, 0
1, 48448, Note_on_c, 0, 72, 0
1, 48464, Note_on_c, 0, 64, 0
1, 48492, Note_on_c, 0, 69, 0
1, 48668, Note_on_c, 0, 76, 65
1, 48848, Note_on_c, 0, 76, 0
1, 49064, Note_on_c, 0, 67, 56
1, 49080, Note_on_c, 0, 55, 45
1, 49080, Note_on_c, 0, 57, 42
1, 49080, Note_on_c, 0, 64, 48
1, 49080, Note_on_c, 0, 50, 34
1, 49092, Note_on_c, 0, 60, 32
1, 49104, Control_c, 0, 64, 0
1, 49120, Note_on_c, 0, 53, 30
1, 49328, Control_c, 0, 64, 127
1, 49356, Note_on_c, 0, 67, 0
1, 49412, Note_on_c, 0, 67, 73
1, 49560, Note_on_c, 0, 67, 0
1, 49568, Note_on_c, 0, 57, 0
1, 49648, Note_on_c, 0, 60, 0
1, 49696, Note_on_c, 0, 64, 0
1, 49728, Note_on_c, 0, 55, 0
1, 49728, Note_on_c, 0, 53, 0
1, 49756, Note_on_c, 0, 67, 64
1, 49768, Note_on_c, 0, 50, 0
1, 50080, Note_on_c, 0, 67, 0
1, 50088, Control_c, 0, 64, 0
1, 50088, Note_on_c, 0, 43, 87
1, 50204, Control_c, 0, 64, 127
1, 50492, Note_on_c, 0, 63, 85
1, 50492, Note_on_c, 0, 67, 84
1, 50496, Control_c, 0, 64, 0
1, 50496, Note_on_c, 0, 59, 87
1, 50504, Note_on_c, 0, 53, 81
1, 50560, Note_on_c, 0, 64, 76
1, 50564, Note_on_c, 0, 63, 0
1, 50620, Note_on_c, 0, 65, 1
1, 50676, Control_c, 0, 64, 127
1, 50804, Note_on_c, 0, 67, 0
1, 50860, Note_on_c, 0, 65, 0
1, 50880, Note_on_c, 0, 59, 0
1, 50892, Note_on_c, 0, 64, 0
1, 50916, Note_on_c, 0, 67, 82
1, 50972, Note_on_c, 0, 43, 0
1, 50996, Note_on_c, 0, 53, 0
1, 51232, Note_on_c, 0, 67, 0
1, 51312, Note_on_c, 0, 59, 76
1, 51312, Note_on_c, 0, 56, 72
1, 51312, Note_on_c, 0, 44, 62
1, 51320, Control_c, 0, 64, 0
1, 51336, Note_on_c, 0, 53, 46
1, 51440, Note_on_c, 0, 56, 0
1, 51460, Control_c, 0, 64, 127
1, 51480, Note_on_c, 0, 59, 0
1, 51736, Note_on_c, 0, 74, 111
1, 51748, Note_on_c, 0, 44, 0
1, 51760, Note_on_c, 0, 53, 0
1, 51776, Note_on_c, 0, 73, 43
1, 51812, Note_on_c, 0, 73, 0
1, 52020, Note_on_c, 0, 74, 0
1, 52136, Control_c, 0, 64, 0
1, 52148, Note_on_c, 0, 74, 99
1, 52152, Note_on_c, 0, 45, 65
1, 52292, Control_c, 0, 64, 127
1, 52396, Note_on_c, 0, 74, 0
1, 52468, Note_on_c, 0, 52, 63
1, 52468, Note_on_c, 0, 67, 69
1, 52480, Note_on_c, 0, 60, 57
1, 52560, Note_on_c, 0, 45, 0
1, 52676, Note_on_c, 0, 60, 0
1, 52732, Note_on_c, 0, 52, 0
1, 52736, Note_on_c, 0, 72, 77
1, 52744, Note_on_c, 0, 57, 65
1, 52772, Note_on_c, 0, 67, 0
1, 52804, Note_on_c, 0, 57, 0
1, 52812, Note_on_c, 0, 72, 0
1, 53020, Note_on_c, 0, 76, 84
1, 53036, Note_on_c, 0, 60, 61
1, 53072, Note_on_c, 0, 60, 0
1, 53092, Note_on_c, 0, 76, 0
1, 53344, Note_on_c, 0, 76, 57
1, 53344, Control_c, 0, 64, 0
1, 53348, Note_on_c, 0, 83, 63
1, 53352, Note_on_c, 0, 72, 57
1, 53356, Note_on_c, 0, 50, 56
1, 53368, Note_on_c, 0, 60, 56
1, 53524, Control_c, 0, 64, 127
1, 53624, Note_on_c, 0, 83, 0
1, 53640, Note_on_c, 0, 72, 0
1, 53648, Note_on_c, 0, 50, 0
1, 53676, Note_on_c, 0, 81, 71
1, 53676, Note_on_c, 0, 54, 51
1, 53696, Note_on_c, 0, 76, 0
1, 53700, Note_on_c, 0, 60, 0
1, 53768, Note_on_c, 0, 81, 0
1, 54080, Note_on_c, 0, 88, 79
1, 54092, Note_on_c, 0, 60, 51
1, 54096, Note_on_c, 0, 76, 57
1, 54672, Note_on_c, 0, 88, 0
1, 54692, Note_on_c, 0, 86, 75
1, 54740, Note_on_c, 0, 76, 0
1, 54844, Note_on_c, 0, 60, 0
1, 54912, Note_on_c, 0, 86, 0
1, 54964, Note_on_c, 0, 84, 73
1, 54992, Note_on_c, 0, 86, 50
1, 55032, Note_on_c, 0, 86, 0
1, 55040, Note_on_c, 0, 54, 0
1, 55148, Note_on_c, 0, 84, 0
1, 55188, Note_on_c, 0, 81, 76
1, 55396, Note_on_c, 0, 81, 0
1, 55424, Control_c, 0, 64, 0
1, 55432, Note_on_c, 0, 79, 63
1, 55432, Note_on_c, 0, 60, 43
1, 55436, Note_on_c, 0, 50, 50
1, 55568, Control_c, 0, 64, 127
1, 55688, Note_on_c, 0, 79, 0
1, 55700, Note_on_c, 0, 77, 68
1, 55732, Note_on_c, 0, 57, 45
1, 55768, Note_on_c, 0, 60, 0
1, 56004, Note_on_c, 0, 77, 0
1, 56016, Note_on_c, 0, 76, 63
1, 56028, Note_on_c, 0, 60, 48
1, 56204, Note_on_c, 0, 50, 0
1, 56300, Note_on_c, 0, 76, 0
1, 56356, Note_on_c, 0, 50, 46
1, 56360, Note_on_c, 0, 79, 63
1, 56472, Note_on_c, 0, 57, 0
1, 56476, Note_on_c, 0, 60, 0
1, 56528, Note_on_c, 0, 50, 0
1, 56656, Note_on_c, 0, 79, 0
1, 56740, Note_on_c, 0, 77, 51
1, 56744, Control_c, 0, 64, 0
1, 56748, Note_on_c, 0, 43, 48
1, 56848, Control_c, 0, 64, 127
1, 57124, Note_on_c, 0, 68, 56
1, 57136, Note_on_c, 0, 50, 37
1, 57184, Note_on_c, 0, 50, 0
1, 57216, Note_on_c, 0, 77, 0
1, 57256, Note_on_c, 0, 68, 0
1, 57304, Note_on_c, 0, 43, 0
1, 57636, Note_on_c, 0, 68, 57
1, 57656, Note_on_c, 0, 59, 52
1, 57668, Note_on_c, 0, 56, 46
1, 57672, Note_on_c, 0, 62, 55
1, 57876, Note_on_c, 0, 62, 0
1, 57888, Note_on_c, 0, 59, 0
1, 57932, Note_on_c, 0, 68, 0
1, 58172, Note_on_c, 0, 71, 61
1, 58176, Note_on_c, 0, 59, 48
1, 58180, Note_on_c, 0, 62, 53
1, 58196, Note_on_c, 0, 65, 48
1, 58200, Note_on_c, 0, 68, 39
1, 58224, Note_on_c, 0, 56, 0
1, 58236, Note_on_c, 0, 59, 0
1, 58280, Note_on_c, 0, 62, 0
1, 58324, Note_on_c, 0, 65, 0
1, 58328, Note_on_c, 0, 71, 0
1, 58344, Note_on_c, 0, 68, 0
1, 59200, Control_c, 0, 64, 0
1, 59212, Note_on_c, 0, 42, 49
1, 59220, Note_on_c, 0, 64, 54
1, 59224, Note_on_c, 0, 72, 52
1, 59224, Note_on_c, 0, 69, 48
1, 59332, Control_c, 0, 64, 127
1, 59432, Note_on_c, 0, 64, 0
1, 59484, Note_on_c, 0, 42, 0
1, 59488, Note_on_c, 0, 52, 57
1, 59512, Note_on_c, 0, 69, 0
1, 59528, Note_on_c, 0, 52, 0
1, 59744, Note_on_c, 0, 60, 68
1, 59788, Note_on_c, 0, 72, 0
1, 59972, Note_on_c, 0, 64, 71
1, 60000, Note_on_c, 0, 64, 0
1, 60036, Note_on_c, 0, 60, 0
1, 60276, Note_on_c, 0, 71, 63
1, 60276, Note_on_c, 0, 60, 55
1, 60280, Note_on_c, 0, 66, 54
1, 60284, Note_on_c, 0, 47, 54
1, 60284, Note_on_c, 0, 64, 58
1, 60292, Note_on_c, 0, 57, 56
1, 60296, Control_c, 0, 64, 0
1, 60484, Control_c, 0, 64, 127
1, 60604, Note_on_c, 0, 54, 57
1, 60628, Note_on_c, 0, 57, 0
1, 60664, Note_on_c, 0, 64, 0
1, 60692, Note_on_c, 0, 60, 0
1, 60744, Note_on_c, 0, 66, 0
1, 60964, Note_on_c, 0, 63, 56
1, 60964, Note_on_c, 0, 66, 52
1, 60968, Note_on_c, 0, 59, 48
1, 60976, Note_on_c, 0, 57, 54
1, 61152, Note_on_c, 0, 47, 0
1, 61416, Note_on_c, 0, 47, 52
1, 61440, Note_on_c, 0, 57, 0
1, 61484, Note_on_c, 0, 54, 0
1, 61552, Note_on_c, 0, 47, 0
1, 61700, Note_on_c, 0, 71, 0
1, 61716, Note_on_c, 0, 59, 0
1, 61792, Note_on_c, 0, 66, 0
1, 61804, Note_on_c, 0, 63, 0
1, 61916, Control_c, 0, 64, 0
1, 61944, Note_on_c, 0, 40, 72
1, 62064, Control_c, 0, 64, 127
1, 62288, Note_on_c, 0, 47, 62
1, 62292, Note_on_c, 0, 70, 85
1, 62296, Note_on_c, 0, 58, 82
1, 62296, Note_on_c, 0, 63, 81
1, 62480, Note_on_c, 0, 63, 0
1, 62508, Note_on_c, 0, 58, 0
1, 62528, Note_on_c, 0, 70, 0
1, 62684, Note_on_c, 0, 70, 83
1, 62692, Note_on_c, 0, 58, 79
1, 62696, Note_on_c, 0, 63, 68
1, 62704, Note_on_c, 0, 52, 75
1, 62844, Note_on_c, 0, 63, 0
1, 62888, Note_on_c, 0, 40, 0
1, 62920, Note_on_c, 0, 70, 0
1, 62920, Note_on_c, 0, 58, 0
1, 62924, Note_on_c, 0, 47, 0
1, 62968, Note_on_c, 0, 52, 0
1, 62996, Note_on_c, 0, 71, 84
1, 63004, Note_on_c, 0, 59, 83
1, 63108, Note_on_c, 0, 71, 0
1, 63160, Note_on_c, 0, 59, 0
1, 63296, Note_on_c, 0, 63, 90
1, 63304, Note_on_c, 0, 59, 83
1, 63304, Control_c, 0, 64, 0
1, 63304, Note_on_c, 0, 49, 69
1, 63496, Control_c, 0, 64, 127
1, 63572, Note_on_c, 0, 59, 0
1, 63584, Note_on_c, 0, 63, 0
1, 63620, Note_on_c, 0, 55, 66
1, 63624, Note_on_c, 0, 64, 85
1, 63624, Note_on_c, 0, 59, 77
1, 63756, Note_on_c, 0, 59, 0
1, 63840, Note_on_c, 0, 64, 0
1, 63896, Note_on_c, 0, 55, 0
1, 63912, Note_on_c, 0, 49, 0
1, 64128, Note_on_c, 0, 75, 86
1, 64144, Note_on_c, 0, 67, 54
1, 64144, Note_on_c, 0, 64, 61
1, 64156, Note_on_c, 0, 70, 42
1, 64160, Note_on_c, 0, 63, 61
1, 64188, Note_on_c, 0, 70, 0
1, 64544, Note_on_c, 0, 63, 0
1, 64644, Note_on_c, 0, 75, 0
1, 64840, Note_on_c, 0, 73, 66
1, 64952, Note_on_c, 0, 64, 0
1, 64992, Note_on_c, 0, 67, 0
1, 65028, Note_on_c, 0, 73, 0
1, 65400, Note_on_c, 0, 59, 54
1, 65400, Note_on_c, 0, 64, 56
1, 65404, Note_on_c, 0, 68, 54
1, 65408, Note_on_c, 0, 71, 60
1, 65408, Note_on_c, 0, 60, 55
1, 65416, Note_on_c, 0, 57, 56
1, 65420, Control_c, 0, 64, 0
1, 65596, Control_c, 0, 64, 127
1, 65664, Note_on_c, 0, 71, 0
1, 65684, Note_on_c, 0, 64, 0
1, 65712, Note_on_c, 0, 68, 0
1, 65724, Note_on_c, 0, 60, 0
1, 65740, Note_on_c, 0, 57, 0
1, 65740, Note_on_c, 0, 71, 61
1, 65760, Note_on_c, 0, 64, 51
1, 65768, Note_on_c, 0, 68, 57
1, 65828, Note_on_c, 0, 59, 0
1, 65876, Note_on_c, 0, 71, 0
1, 65892, Note_on_c, 0, 64, 0
1, 65892, Note_on_c, 0, 68, 0
1, 66072, Note_on_c, 0, 68, 57
1, 66076, Note_on_c, 0, 71, 57
1, 66080, Note_on_c, 0, 60, 49
1, 66084, Note_on_c, 0, 59, 44
1, 66088, Note_on_c, 0, 64, 52
1, 66092, Note_on_c, 0, 57, 37
1, 66168, Note_on_c, 0, 60, 0
1, 66184, Note_on_c, 0, 59, 0
1, 66232, Note_on_c, 0, 57, 0
1, 66380, Note_on_c, 0, 71, 0
1, 66384, Note_on_c, 0, 64, 0
1, 66396, Note_on_c, 0, 68, 0
1, 66424, Note_on_c, 0, 69, 55
1, 66492, Note_on_c, 0, 69, 0
1, 67132, Note_on_c, 0, 35, 31
1, 67168, Note_on_c, 0, 35, 0
1, 67580, Note_on_c, 0, 60, 63
1, 67588, Note_on_c, 0, 53, 49
1, 67588, Note_on_c, 0, 57, 51
1, 67600, Note_on_c, 0, 47, 52
1, 67732, Note_on_c, 0, 53, 0
1, 67748, Note_on_c, 0, 47, 0
1, 67760, Note_on_c, 0, 57, 0
1, 67788, Note_on_c, 0, 60, 0
1, 68044, Note_on_c, 0, 65, 68
1, 68048, Note_on_c, 0, 72, 66
1, 68308, Note_on_c, 0, 65, 0
1, 68424, Note_on_c, 0, 72, 0
1, 68636, Note_on_c, 0, 60, 45
1, 68636, Note_on_c, 0, 69, 52
1, 68640, Note_on_c, 0, 65, 49
1, 68648, Note_on_c, 0, 57, 43
1, 68672, Note_on_c, 0, 51, 37
1, 69300, Note_on_c, 0, 69, 0
1, 69356, Note_on_c, 0, 57, 0
1, 69364, Note_on_c, 0, 65, 0
1, 69388, Note_on_c, 0, 60, 0
1, 69456, Note_on_c, 0, 51, 0
1, 69904, Note_on_c, 0, 66, 75
1, 69908, Note_on_c, 0, 59, 73
1, 69908, Note_on_c, 0, 64, 68
1, 69916, Note_on_c, 0, 44, 58
1, 69928, Note_on_c, 0, 53, 55
1, 69936, Control_c, 0, 64, 0
1, 70108, Control_c, 0, 64, 127
1, 70112, Note_on_c, 0, 66, 0
1, 70168, Note_on_c, 0, 66, 75
1, 70340, Note_on_c, 0, 66, 0
1, 70440, Note_on_c, 0, 66, 78
1, 70604, Note_on_c, 0, 53, 0
1, 70636, Note_on_c, 0, 66, 0
1, 70692, Note_on_c, 0, 64, 0
1, 70720, Note_on_c, 0, 59, 0
1, 70720, Note_on_c, 0, 66, 61
1, 70776, Note_on_c, 0, 44, 0
1, 70876, Note_on_c, 0, 66, 0
1, 71060, Note_on_c, 0, 66, 66
1, 71072, Note_on_c, 0, 58, 62
1, 71080, Note_on_c, 0, 61, 63
1, 71084, Note_on_c, 0, 52, 47
1, 71096, Control_c, 0, 64, 0
1, 71104, Note_on_c, 0, 43, 42
1, 71308, Control_c, 0, 64, 127
1, 71344, Note_on_c, 0, 52, 0
1, 71412, Control_c, 0, 64, 0
1, 71424, Note_on_c, 0, 48, 72
1, 71540, Control_c, 0, 64, 127
1, 71752, Note_on_c, 0, 48, 0
1, 71768, Note_on_c, 0, 49, 68
1, 71768, Control_c, 0, 64, 0
1, 71900, Control_c, 0, 64, 127
1, 72192, Note_on_c, 0, 64, 68
1, 72224, Note_on_c, 0, 66, 0
1, 72456, Note_on_c, 0, 43, 0
1, 72464, Note_on_c, 0, 64, 0
1, 72536, Note_on_c, 0, 58, 0
1, 72580, Note_on_c, 0, 61, 0
1, 72808, Note_on_c, 0, 49, 0
1, 72824, Note_on_c, 0, 69, 74
1, 72832, Note_on_c, 0, 61, 62
1, 72840, Note_on_c, 0, 57, 63
1, 72840, Note_on_c, 0, 42, 54
1, 72840, Note_on_c, 0, 64, 61
1, 72844, Control_c, 0, 64, 0
1, 73020, Control_c, 0, 64, 127
1, 73036, Note_on_c, 0, 69, 0
1, 73108, Note_on_c, 0, 69, 76
1, 73252, Note_on_c, 0, 57, 0
1, 73272, Note_on_c, 0, 61, 0
1, 73284, Note_on_c, 0, 64, 0
1, 73292, Note_on_c, 0, 69, 0
1, 73396, Note_on_c, 0, 69, 71
1, 73404, Note_on_c, 0, 61, 63
1, 73412, Note_on_c, 0, 64, 64
1, 73412, Note_on_c, 0, 57, 56
1, 73412, Note_on_c, 0, 52, 52
1, 73460, Note_on_c, 0, 42, 0
1, 73536, Note_on_c, 0, 69, 0
1, 73548, Note_on_c, 0, 52, 0
1, 73616, Note_on_c, 0, 57, 0
1, 73660, Note_on_c, 0, 64, 0
1, 73700, Note_on_c, 0, 69, 81
1, 73808, Note_on_c, 0, 61, 0
1, 73852, Note_on_c, 0, 69, 0
1, 74028, Note_on_c, 0, 69, 81
1, 74036, Control_c, 0, 64, 0
1, 74048, Note_on_c, 0, 65, 71
1, 74052, Note_on_c, 0, 47, 57
1, 74056, Note_on_c, 0, 60, 74
1, 74060, Note_on_c, 0, 57, 56
1, 74188, Control_c, 0, 64, 127
1, 74200, Note_on_c, 0, 60, 0
1, 74244, Note_on_c, 0, 65, 0
1, 74264, Note_on_c, 0, 69, 0
1, 74420, Note_on_c, 0, 81, 99
1, 74424, Note_on_c, 0, 57, 0
1, 74424, Note_on_c, 0, 51, 61
1, 74432, Note_on_c, 0, 77, 85
1, 74436, Note_on_c, 0, 72, 75
1, 74628, Note_on_c, 0, 77, 0
1, 74636, Note_on_c, 0, 81, 0
1, 74664, Note_on_c, 0, 72, 0
1, 74824, Note_on_c, 0, 77, 81
1, 74840, Note_on_c, 0, 72, 76
1, 74848, Note_on_c, 0, 69, 66
1, 74848, Note_on_c, 0, 57, 58
1, 74940, Note_on_c, 0, 77, 0
1, 74944, Note_on_c, 0, 72, 0
1, 74976, Note_on_c, 0, 69, 0
1, 74996, Note_on_c, 0, 57, 0
1, 75104, Note_on_c, 0, 51, 0
1, 75240, Note_on_c, 0, 65, 58
1, 75244, Note_on_c, 0, 72, 61
1, 75256, Note_on_c, 0, 69, 57
1, 75264, Note_on_c, 0, 57, 52
1, 75268, Note_on_c, 0, 51, 47
1, 75300, Note_on_c, 0, 57, 0
1, 75356, Note_on_c, 0, 69, 0
1, 75372, Note_on_c, 0, 65, 0
1, 75372, Note_on_c, 0, 72, 0
1, 75396, Note_on_c, 0, 47, 0
1, 75396, Note_on_c, 0, 51, 0
1, 75720, Note_on_c, 0, 63, 57
1, 75720, Note_on_c, 0, 40, 57
1, 75728, Note_on_c, 0, 71, 50
1, 75728, Note_on_c, 0, 68, 49
1, 75732, Control_c, 0, 64, 0
1, 75732, Note_on_c, 0, 59, 53
1, 75888, Control_c, 0, 64, 127
1, 76120, Note_on_c, 0, 47, 57
1, 76128, Note_on_c, 0, 71, 0
1, 76140, Note_on_c, 0, 59, 0
1, 76244, Note_on_c, 0, 63, 0
1, 76256, Note_on_c, 0, 68, 0
1, 76420, Note_on_c, 0, 40, 0
1, 76492, Note_on_c, 0, 47, 0
1, 77016, Note_on_c, 0, 58, 75
1, 77024, Note_on_c, 0, 70, 90
1, 77240, Note_on_c, 0, 58, 0
1, 77240, Note_on_c, 0, 70, 0
1, 77292, Note_on_c, 0, 71, 94
1, 77296, Note_on_c, 0, 59, 70
1, 77312, Note_on_c, 0, 70, 22
1, 77364, Note_on_c, 0, 70, 0
1, 77408, Note_on_c, 0, 59, 0
1, 77424, Note_on_c, 0, 71, 0
1, 77584, Note_on_c, 0, 63, 85
1, 77584, Note_on_c, 0, 49, 63
1, 77616, Control_c, 0, 64, 0
1, 77760, Control_c, 0, 64, 127
1, 77792, Note_on_c, 0, 63, 0
1, 77828, Note_on_c, 0, 55, 57
1, 77832, Note_on_c, 0, 64, 73
1, 77896, Note_on_c, 0, 55, 0
1, 77916, Note_on_c, 0, 49, 0
1, 78008, Note_on_c, 0, 64, 0
1, 78152, Note_on_c, 0, 75, 94
1, 78160, Note_on_c, 0, 64, 80
1, 78164, Note_on_c, 0, 68, 80
1, 78168, Note_on_c, 0, 63, 65
1, 78340, Note_on_c, 0, 63, 0
1, 78508, Note_on_c, 0, 75, 0
1, 78544, Note_on_c, 0, 68, 0
1, 78560, Note_on_c, 0, 73, 82
1, 78588, Note_on_c, 0, 68, 36
1, 78632, Note_on_c, 0, 68, 0
1, 78676, Note_on_c, 0, 64, 0
1, 78708, Note_on_c, 0, 73, 0
1, 79020, Note_on_c, 0, 71, 66
1, 79028, Note_on_c, 0, 64, 57
1, 79032, Note_on_c, 0, 42, 56
1, 79048, Control_c, 0, 64, 0
1, 79060, Note_on_c, 0, 57, 28
1, 79292, Control_c, 0, 64, 127
1, 79316, Note_on_c, 0, 52, 66
1, 79424, Note_on_c, 0, 57, 0
1, 79476, Note_on_c, 0, 71, 0
1, 79568, Note_on_c, 0, 57, 75
1, 79608, Note_on_c, 0, 42, 0
1, 79768, Note_on_c, 0, 64, 0
1, 79804, Note_on_c, 0, 57, 0
1, 79824, Note_on_c, 0, 52, 0
1, 79836, Note_on_c, 0, 69, 76
1, 79920, Note_on_c, 0, 69, 0
1, 80200, Note_on_c, 0, 47, 57
1, 80208, Note_on_c, 0, 57, 57
1, 80216, Note_on_c, 0, 60, 60
1, 80240, Control_c, 0, 64, 0
1, 80444, Control_c, 0, 64, 127
1, 80548, Note_on_c, 0, 51, 56
1, 80916, Note_on_c, 0, 53, 57
1, 81116, Note_on_c, 0, 60, 0
1, 81428, Note_on_c, 0, 61, 56
1, 81720, Note_on_c, 0, 47, 0
1, 81736, Note_on_c, 0, 51, 0
1, 81920, Note_on_c, 0, 53, 0
1, 81944, Note_on_c, 0, 57, 0
1, 82156, Note_on_c, 0, 61, 0
1, 83212, Note_on_c, 0, 56, 62
1, 83216, Control_c, 0, 64, 0
1, 83216, Note_on_c, 0, 64, 66
1, 83228, Note_on_c, 0, 40, 48
1, 83228, Note_on_c, 0, 52, 48
1, 83420, Control_c, 0, 64, 127
1, 83444, Note_on_c, 0, 64, 0
1, 83512, Note_on_c, 0, 64, 68
1, 83592, Note_on_c, 0, 40, 0
1, 83644, Note_on_c, 0, 64, 0
1, 83680, Note_on_c, 0, 52, 0
1, 83724, Note_on_c, 0, 64, 65
1, 83820, Note_on_c, 0, 64, 0
1, 83916, Note_on_c, 0, 64, 63
1, 83984, Note_on_c, 0, 56, 0
1, 84016, Note_on_c, 0, 64, 0
1, 84152, Control_c, 0, 64, 0
1, 84184, Note_on_c, 0, 64, 59
1, 84192, Note_on_c, 0, 55, 56
1, 84200, Note_on_c, 0, 45, 43
1, 84204, Note_on_c, 0, 61, 48
1, 84268, Note_on_c, 0, 55, 0
1, 84280, Control_c, 0, 64, 127
1, 84324, Note_on_c, 0, 64, 0
1, 84324, Note_on_c, 0, 61, 0
1, 84476, Note_on_c, 0, 45, 0
1, 84496, Note_on_c, 0, 52, 54
1, 84852, Note_on_c, 0, 61, 46
1, 84864, Note_on_c, 0, 64, 48
1, 84872, Note_on_c, 0, 55, 43
1, 85168, Note_on_c, 0, 61, 0
1, 85200, Note_on_c, 0, 64, 0
1, 85428, Note_on_c, 0, 64, 57
1, 85704, Note_on_c, 0, 64, 0
1, 85704, Note_on_c, 0, 65, 78
1, 85744, Note_on_c, 0, 52, 0
1, 85816, Note_on_c, 0, 55, 0
1, 85840, Note_on_c, 0, 65, 0
1, 85924, Note_on_c, 0, 66, 77
1, 86140, Note_on_c, 0, 66, 0
1, 86208, Note_on_c, 0, 60, 63
1, 86212, Note_on_c, 0, 67, 61
1, 86216, Note_on_c, 0, 64, 60
1, 86224, Note_on_c, 0, 57, 49
1, 86228, Control_c, 0, 64, 0
1, 86228, Note_on_c, 0, 55, 42
1, 86236, Note_on_c, 0, 53, 41
1, 86356, Control_c, 0, 64, 127
1, 86460, Note_on_c, 0, 67, 0
1, 86528, Note_on_c, 0, 67, 70
1, 86576, Note_on_c, 0, 55, 0
1, 86584, Note_on_c, 0, 53, 0
1, 86588, Note_on_c, 0, 60, 0
1, 86592, Note_on_c, 0, 64, 0
1, 86600, Note_on_c, 0, 57, 0
1, 86648, Note_on_c, 0, 67, 0
1, 86972, Note_on_c, 0, 68, 68
1, 86988, Note_on_c, 0, 61, 56
1, 86992, Note_on_c, 0, 65, 58
1, 86996, Note_on_c, 0, 58, 44
1, 87012, Control_c, 0, 64, 0
1, 87020, Note_on_c, 0, 56, 43
1, 87020, Note_on_c, 0, 54, 37
1, 87188, Note_on_c, 0, 68, 0
1, 87196, Control_c, 0, 64, 127
1, 87244, Note_on_c, 0, 68, 75
1, 87288, Note_on_c, 0, 65, 0
1, 87308, Note_on_c, 0, 56, 0
1, 87324, Note_on_c, 0, 54, 0
1, 87336, Note_on_c, 0, 58, 0
1, 87372, Note_on_c, 0, 61, 0
1, 87428, Note_on_c, 0, 68, 0
1, 87572, Note_on_c, 0, 69, 60
1, 87584, Note_on_c, 0, 66, 55
1, 87588, Note_on_c, 0, 62, 54
1, 87588, Control_c, 0, 64, 0
1, 87592, Note_on_c, 0, 59, 43
1, 87600, Note_on_c, 0, 57, 41
1, 87608, Note_on_c, 0, 55, 40
1, 87712, Control_c, 0, 64, 127
1, 87776, Note_on_c, 0, 69, 0
1, 87948, Note_on_c, 0, 69, 57
1, 87968, Note_on_c, 0, 57, 0
1, 87988, Note_on_c, 0, 59, 0
1, 88004, Note_on_c, 0, 55, 0
1, 88036, Note_on_c, 0, 62, 0
1, 88244, Note_on_c, 0, 66, 0
1, 88316, Note_on_c, 0, 69, 0
1, 88380, Control_c, 0, 64, 0
1, 88384, Note_on_c, 0, 70, 60
1, 88384, Note_on_c, 0, 51, 48
1, 88384, Note_on_c, 0, 61, 54
1, 88400, Note_on_c, 0, 65, 60
1, 88428, Note_on_c, 0, 55, 30
1, 88492, Control_c, 0, 64, 127
1, 88656, Note_on_c, 0, 70, 0
1, 88668, Note_on_c, 0, 55, 0
1, 88704, Note_on_c, 0, 51, 0
1, 88764, Note_on_c, 0, 70, 70
1, 88872, Note_on_c, 0, 65, 0
1, 88888, Note_on_c, 0, 61, 0
1, 88924, Note_on_c, 0, 70, 0
1, 89156, Control_c, 0, 64, 0
1, 89176, Note_on_c, 0, 71, 61
1, 89184, Note_on_c, 0, 64, 63
1, 89184, Note_on_c, 0, 68, 52
1, 89184, Note_on_c, 0, 59, 54
1, 89200, Note_on_c, 0, 38, 56
1, 89260, Note_on_c, 0, 59, 0
1, 89268, Control_c, 0, 64, 127
1, 89312, Note_on_c, 0, 64, 0
1, 89352, Note_on_c, 0, 68, 0
1, 89372, Note_on_c, 0, 71, 0
1, 89524, Note_on_c, 0, 45, 56
1, 89532, Note_on_c, 0, 38, 0
1, 89592, Note_on_c, 0, 45, 0
1, 89932, Note_on_c, 0, 83, 79
1, 89940, Note_on_c, 0, 80, 63
1, 89940, Note_on_c, 0, 76, 69
1, 89944, Note_on_c, 0, 60, 57
1, 89944, Note_on_c, 0, 71, 58
1, 89948, Note_on_c, 0, 54, 56
1, 89952, Note_on_c, 0, 64, 50
1, 90084, Note_on_c, 0, 60, 0
1, 90112, Note_on_c, 0, 54, 0
1, 90120, Note_on_c, 0, 64, 0
1, 90136, Note_on_c, 0, 83, 0
1, 90140, Note_on_c, 0, 71, 0
1, 90152, Note_on_c, 0, 76, 0
1, 90196, Note_on_c, 0, 80, 0
1, 90384, Note_on_c, 0, 82, 89
1, 90388, Note_on_c, 0, 70, 89
1, 90388, Note_on_c, 0, 60, 76
1, 90388, Note_on_c, 0, 61, 69
1, 90392, Control_c, 0, 64, 0
1, 90396, Note_on_c, 0, 77, 85
1, 90396, Note_on_c, 0, 65, 82
1, 90396, Note_on_c, 0, 55, 70
1, 90420, Note_on_c, 0, 58, 45
1, 90464, Note_on_c, 0, 58, 0
1, 90488, Control_c, 0, 64, 127
1, 90512, Note_on_c, 0, 58, 16
1, 90568, Note_on_c, 0, 60, 0
1, 90572, Note_on_c, 0, 65, 0
1, 90596, Note_on_c, 0, 58, 0
1, 90604, Note_on_c, 0, 55, 0
1, 90608, Note_on_c, 0, 77, 0
1, 90612, Note_on_c, 0, 61, 0
1, 90632, Note_on_c, 0, 82, 0
1, 90648, Note_on_c, 0, 70, 0
1, 90760, Control_c, 0, 64, 0
1, 90796, Note_on_c, 0, 76, 82
1, 90796, Note_on_c, 0, 53, 75
1, 90800, Note_on_c, 0, 69, 76
1, 90800, Note_on_c, 0, 81, 81
1, 90800, Note_on_c, 0, 64, 76
1, 90800, Note_on_c, 0, 59, 68
1, 90880, Control_c, 0, 64, 127
1, 90912, Note_on_c, 0, 64, 0
1, 90948, Note_on_c, 0, 59, 0
1, 90964, Note_on_c, 0, 53, 0
1, 91304, Note_on_c, 0, 37, 85
1, 91324, Note_on_c, 0, 81, 0
1, 91332, Note_on_c, 0, 76, 0
1, 91336, Control_c, 0, 64, 0
1, 91352, Note_on_c, 0, 69, 0
1, 91416, Control_c, 0, 64, 127
1, 91680, Note_on_c, 0, 37, 0
1, 91680, Note_on_c, 0, 44, 64
1, 92076, Note_on_c, 0, 68, 68
1, 92080, Note_on_c, 0, 59, 71
1, 92080, Note_on_c, 0, 63, 66
1, 92084, Note_on_c, 0, 53, 64
1, 92092, Note_on_c, 0, 65, 61
1, 92136, Note_on_c, 0, 44, 0
1, 92148, Note_on_c, 0, 53, 0
1, 92236, Note_on_c, 0, 44, 38
1, 92288, Note_on_c, 0, 59, 0
1, 92316, Note_on_c, 0, 65, 0
1, 92356, Note_on_c, 0, 44, 0
1, 92376, Note_on_c, 0, 68, 0
1, 92420, Note_on_c, 0, 63, 0
1, 92524, Note_on_c, 0, 36, 57
1, 92544, Control_c, 0, 64, 0
1, 92548, Note_on_c, 0, 58, 75
1, 92560, Note_on_c, 0, 67, 70
1, 92564, Note_on_c, 0, 62, 63
1, 92568, Note_on_c, 0, 64, 60
1, 92568, Note_on_c, 0, 52, 58
1, 92724, Control_c, 0, 64, 127
1, 92852, Note_on_c, 0, 36, 0
1, 92944, Note_on_c, 0, 52, 0
1, 93020, Note_on_c, 0, 62, 0
1, 93112, Note_on_c, 0, 58, 0
1, 93140, Note_on_c, 0, 64, 0
1, 93548, Note_on_c, 0, 67, 0
1, 93776, Control_c, 0, 64, 0
1, 93796, Note_on_c, 0, 61, 53
1, 93796, Note_on_c, 0, 69, 55
1, 93800, Note_on_c, 0, 42, 54
1, 93808, Note_on_c, 0, 57, 54
1, 93812, Note_on_c, 0, 64, 49
1, 93812, Note_on_c, 0, 52, 45
1, 93884, Note_on_c, 0, 64, 0
1, 93888, Note_on_c, 0, 69, 0
1, 93896, Control_c, 0, 64, 127
1, 93900, Note_on_c, 0, 52, 0
1, 93920, Note_on_c, 0, 61, 0
1, 93928, Note_on_c, 0, 57, 0
1, 93992, Note_on_c, 0, 42, 0
1, 94176, Note_on_c, 0, 55, 55
1, 94180, Note_on_c, 0, 64, 51
1, 94184, Note_on_c, 0, 60, 51
1, 94188, Note_on_c, 0, 57, 50
1, 94188, Note_on_c, 0, 41, 49
1, 94192, Control_c, 0, 64, 0
1, 94196, Note_on_c, 0, 52, 49
1, 94424, Control_c, 0, 64, 127
1, 95040, Note_on_c, 0, 57, 0
1, 95052, Note_on_c, 0, 60, 0
1, 95060, Note_on_c, 0, 64, 0
1, 95092, Note_on_c, 0, 55, 0
1, 95304, Note_on_c, 0, 65, 62
1, 95324, Note_on_c, 0, 41, 0
1, 95380, Note_on_c, 0, 52, 0
1, 95396, Note_on_c, 0, 65, 0
1, 95516, Note_on_c, 0, 67, 44
1, 95592, Note_on_c, 0, 67, 0
1, 95880, Control_c, 0, 64, 0
1, 95888, Note_on_c, 0, 68, 66
1, 95900, Note_on_c, 0, 57, 49
1, 95904, Note_on_c, 0, 61, 52
1, 95904, Note_on_c, 0, 63, 53
1, 95912, Note_on_c, 0, 56, 47
1, 95924, Note_on_c, 0, 47, 39
1, 96008, Control_c, 0, 64, 127
1, 96068, Note_on_c, 0, 47, 0
1, 96096, Note_on_c, 0, 56, 0
1, 96196, Note_on_c, 0, 57, 0
1, 96236, Note_on_c, 0, 68, 0
1, 96288, Note_on_c, 0, 61, 0
1, 96332, Note_on_c, 0, 63, 0
1, 96416, Control_c, 0, 64, 0
1, 96428, Note_on_c, 0, 61, 66
1, 96432, Note_on_c, 0, 67, 68
1, 96440, Note_on_c, 0, 57, 60
1, 96440, Note_on_c, 0, 41, 54
1, 96444, Note_on_c, 0, 51, 50
1, 96552, Control_c, 0, 64, 127
1, 96560, Note_on_c, 0, 61, 0
1, 96572, Note_on_c, 0, 62, 43
1, 96648, Note_on_c, 0, 57, 0
1, 96648, Note_on_c, 0, 41, 0
1, 96672, Note_on_c, 0, 67, 0
1, 96684, Note_on_c, 0, 51, 0
1, 96756, Note_on_c, 0, 62, 0
1, 96864, Control_c, 0, 64, 0
1, 96908, Note_on_c, 0, 40, 56
1, 96916, Note_on_c, 0, 66, 57
1, 96916, Note_on_c, 0, 56, 56
1, 96920, Note_on_c, 0, 52, 55
1, 96920, Note_on_c, 0, 62, 58
1, 97012, Control_c, 0, 64, 127
1, 97156, Note_on_c, 0, 40, 0
1, 97212, Note_on_c, 0, 62, 0
1, 97244, Note_on_c, 0, 66, 0
1, 97252, Note_on_c, 0, 56, 0
1, 97360, Note_on_c, 0, 52, 0
1, 97436, Control_c, 0, 64, 0
1, 97444, Note_on_c, 0, 61, 63
1, 97448, Note_on_c, 0, 56, 60
1, 97460, Note_on_c, 0, 65, 55
1, 97476, Note_on_c, 0, 46, 56
1, 97504, Note_on_c, 0, 61, 0
1, 97536, Note_on_c, 0, 62, 54
1, 97644, Control_c, 0, 64, 127
1, 97732, Note_on_c, 0, 62, 0
1, 97764, Note_on_c, 0, 65, 0
1, 97768, Note_on_c, 0, 56, 0
1, 97952, Note_on_c, 0, 46, 0
1, 98000, Note_on_c, 0, 64, 60
1, 98004, Control_c, 0, 64, 0
1, 98008, Note_on_c, 0, 55, 51
1, 98012, Note_on_c, 0, 61, 49
1, 98016, Note_on_c, 0, 58, 52
1, 98028, Note_on_c, 0, 45, 48
1, 98216, Control_c, 0, 64, 127
1, 98368, Note_on_c, 0, 64, 0
1, 98392, Note_on_c, 0, 45, 0
1, 98408, Note_on_c, 0, 61, 0
1, 98416, Note_on_c, 0, 55, 0
1, 98456, Note_on_c, 0, 58, 0
1, 98724, Control_c, 0, 64, 0
1, 98736, Note_on_c, 0, 65, 57
1, 98748, Note_on_c, 0, 55, 46
1, 98748, Note_on_c, 0, 39, 44
1, 98748, Note_on_c, 0, 61, 52
1, 98772, Note_on_c, 0, 46, 41
1, 98848, Control_c, 0, 64, 127
1, 98884, Note_on_c, 0, 65, 0
1, 98904, Note_on_c, 0, 39, 0
1, 98924, Note_on_c, 0, 46, 0
1, 98964, Note_on_c, 0, 55, 0
1, 98996, Note_on_c, 0, 61, 0
1, 99136, Note_on_c, 0, 63, 56
1, 99164, Control_c, 0, 64, 0
1, 99168, Note_on_c, 0, 53, 49
1, 99172, Note_on_c, 0, 38, 49
1, 99180, Note_on_c, 0, 60, 39
1, 99196, Note_on_c, 0, 57, 34
1, 99288, Note_on_c, 0, 63, 0
1, 99400, Control_c, 0, 64, 127
1, 99472, Note_on_c, 0, 45, 54
1, 99484, Note_on_c, 0, 62, 63
1, 99604, Note_on_c, 0, 53, 0
1, 99628, Note_on_c, 0, 57, 0
1, 99668, Note_on_c, 0, 60, 0
1, 99740, Note_on_c, 0, 38, 0
1, 99744, Note_on_c, 0, 62, 0
1, 99752, Note_on_c, 0, 45, 0
1, 99760, Note_on_c, 0, 52, 66
1, 99832, Note_on_c, 0, 52, 0
1, 100112, Note_on_c, 0, 76, 68
1, 100116, Note_on_c, 0, 69, 62
1, 100116, Note_on_c, 0, 65, 54
1, 100140, Note_on_c, 0, 64, 59
1, 100376, Note_on_c, 0, 64, 0
1, 100388, Note_on_c, 0, 65, 0
1, 100404, Note_on_c, 0, 69, 0
1, 100444, Note_on_c, 0, 76, 0
1, 100504, Note_on_c, 0, 62, 56
1, 100504, Note_on_c, 0, 74, 75
1, 100512, Note_on_c, 0, 69, 66
1, 100512, Note_on_c, 0, 65, 56
1, 100632, Note_on_c, 0, 62, 0
1, 100640, Note_on_c, 0, 74, 0
1, 100640, Note_on_c, 0, 69, 0
1, 100664, Note_on_c, 0, 65, 0
1, 100856, Control_c, 0, 64, 0
1, 100864, Note_on_c, 0, 67, 82
1, 100872, Note_on_c, 0, 60, 85
1, 100884, Note_on_c, 0, 50, 63
1, 100888, Note_on_c, 0, 57, 57
1, 100984, Control_c, 0, 64, 127
1, 101088, Note_on_c, 0, 67, 0
1, 101128, Note_on_c, 0, 60, 0
1, 101220, Note_on_c, 0, 67, 94
1, 101252, Note_on_c, 0, 57, 0
1, 101260, Note_on_c, 0, 66, 42
1, 101288, Note_on_c, 0, 66, 0
1, 101464, Note_on_c, 0, 50, 0
1, 101560, Note_on_c, 0, 57, 82
1, 101696, Note_on_c, 0, 57, 0
1, 101980, Note_on_c, 0, 59, 80
1, 102000, Note_on_c, 0, 53, 66
1, 102004, Note_on_c, 0, 43, 60
1, 102008, Control_c, 0, 64, 0
1, 102180, Control_c, 0, 64, 127
1, 102336, Note_on_c, 0, 59, 0
1, 102368, Note_on_c, 0, 62, 90
1, 102392, Note_on_c, 0, 67, 0
1, 102392, Note_on_c, 0, 59, 41
1, 102408, Note_on_c, 0, 43, 0
1, 102428, Note_on_c, 0, 59, 0
1, 102508, Note_on_c, 0, 53, 0
1, 102560, Note_on_c, 0, 62, 0
1, 102788, Control_c, 0, 64, 0
1, 102792, Note_on_c, 0, 65, 78
1, 102796, Note_on_c, 0, 62, 81
1, 102800, Note_on_c, 0, 59, 75
1, 102808, Note_on_c, 0, 44, 59
1, 102820, Note_on_c, 0, 53, 57
1, 102924, Note_on_c, 0, 44, 0
1, 102940, Control_c, 0, 64, 127
1, 102960, Note_on_c, 0, 62, 0
1, 102960, Note_on_c, 0, 59, 0
1, 102980, Note_on_c, 0, 65, 0
1, 103196, Note_on_c, 0, 53, 0
1, 103228, Note_on_c, 0, 68, 81
1, 103236, Note_on_c, 0, 71, 75
1, 103236, Note_on_c, 0, 64, 73
1, 103248, Note_on_c, 0, 56, 57
1, 103344, Note_on_c, 0, 56, 0
1, 103364, Note_on_c, 0, 64, 0
1, 103372, Note_on_c, 0, 71, 0
1, 103412, Note_on_c, 0, 68, 0
1, 103604, Control_c, 0, 64, 0
1, 103636, Note_on_c, 0, 72, 71
1, 103636, Note_on_c, 0, 67, 78
1, 103640, Note_on_c, 0, 60, 74
1, 103640, Note_on_c, 0, 45, 58
1, 103640, Note_on_c, 0, 55, 63
1, 103736, Control_c, 0, 64, 127
1, 103740, Note_on_c, 0, 60, 0
1, 103784, Note_on_c, 0, 72, 0
1, 103784, Note_on_c, 0, 67, 0
1, 103944, Note_on_c, 0, 55, 0
1, 103964, Note_on_c, 0, 76, 82
1, 103972, Note_on_c, 0, 72, 72
1, 103972, Note_on_c, 0, 52, 60
1, 103972, Note_on_c, 0, 69, 76
1, 103972, Note_on_c, 0, 64, 73
1, 103992, Note_on_c, 0, 45, 0
1, 104008, Note_on_c, 0, 64, 0
1, 104044, Note_on_c, 0, 52, 0
1, 104048, Note_on_c, 0, 69, 0
1, 104060, Note_on_c, 0, 72, 0
1, 104072, Note_on_c, 0, 76, 0
1, 104336, Note_on_c, 0, 83, 102
1, 104340, Note_on_c, 0, 76, 99
1, 104344, Note_on_c, 0, 79, 89
1, 104344, Note_on_c, 0, 71, 85
1, 104352, Note_on_c, 0, 60, 72
1, 104352, Note_on_c, 0, 64, 78
1, 104360, Note_on_c, 0, 59, 70
1, 104552, Note_on_c, 0, 83, 0
1, 104576, Note_on_c, 0, 59, 0
1, 104584, Note_on_c, 0, 79, 0
1, 104588, Note_on_c, 0, 71, 0
1, 104588, Note_on_c, 0, 64, 0
1, 104604, Note_on_c, 0, 60, 0
1, 104628, Note_on_c, 0, 76, 0
1, 104708, Note_on_c, 0, 76, 83
1, 104720, Note_on_c, 0, 69, 82
1, 104720, Note_on_c, 0, 81, 70
1, 104728, Note_on_c, 0, 64, 68
1, 104728, Note_on_c, 0, 60, 69
1, 104732, Note_on_c, 0, 78, 48
1, 104736, Note_on_c, 0, 59, 57
1, 104752, Note_on_c, 0, 64, 0
1, 104764, Note_on_c, 0, 78, 0
1, 104764, Note_on_c, 0, 59, 0
1, 104784, Note_on_c, 0, 69, 0
1, 104804, Note_on_c, 0, 60, 0
1, 104824, Note_on_c, 0, 81, 0
1, 104828, Note_on_c, 0, 76, 0
1, 105140, Note_on_c, 0, 26, 89
1, 105152, Control_c, 0, 64, 0
1, 105280, Control_c, 0, 64, 127
1, 105332, Note_on_c, 0, 26, 0
1, 105664, Note_on_c, 0, 86, 88
1, 105668, Note_on_c, 0, 80, 82
1, 105668, Note_on_c, 0, 83, 81
1, 105668, Note_on_c, 0, 74, 82
1, 105676, Note_on_c, 0, 54, 76
1, 105684, Note_on_c, 0, 64, 78
1, 105684, Note_on_c, 0, 60, 69
1, 105976, Note_on_c, 0, 74, 0
1, 105988, Note_on_c, 0, 64, 0
1, 105992, Note_on_c, 0, 60, 0
1, 105996, Note_on_c, 0, 86, 0
1, 105996, Note_on_c, 0, 54, 0
1, 106000, Note_on_c, 0, 80, 0
1, 106008, Note_on_c, 0, 83, 0
1, 106216, Note_on_c, 0, 86, 75
1, 106220, Note_on_c, 0, 80, 66
1, 106220, Note_on_c, 0, 83, 63
1, 106220, Note_on_c, 0, 74, 63
1, 106232, Note_on_c, 0, 64, 59
1, 106236, Note_on_c, 0, 54, 52
1, 106244, Note_on_c, 0, 60, 48
1, 106344, Note_on_c, 0, 64, 0
1, 106360, Note_on_c, 0, 86, 0
1, 106372, Note_on_c, 0, 83, 0
1, 106408, Note_on_c, 0, 74, 0
1, 106412, Note_on_c, 0, 80, 0
1, 106412, Note_on_c, 0, 54, 0
1, 106412, Note_on_c, 0, 60, 0
1, 106800, Note_on_c, 0, 78, 62
1, 106808, Note_on_c, 0, 83, 66
1, 106808, Note_on_c, 0, 71, 57
1, 106816, Note_on_c, 0, 64, 51
1, 106816, Note_on_c, 0, 54, 49
1, 106816, Note_on_c, 0, 76, 63
1, 106816, Note_on_c, 0, 60, 46
1, 107080, Note_on_c, 0, 83, 0
1, 107116, Note_on_c, 0, 76, 0
1, 107136, Note_on_c, 0, 71, 0
1, 107136, Note_on_c, 0, 64, 0
1, 107136, Note_on_c, 0, 60, 0
1, 107140, Note_on_c, 0, 78, 0
1, 107212, Note_on_c, 0, 54, 0
1, 107412, Control_c, 0, 64, 0
1, 107412, Note_on_c, 0, 79, 111
1, 107420, Note_on_c, 0, 72, 90
1, 107420, Note_on_c, 0, 69, 92
1, 107428, Note_on_c, 0, 64, 83
1, 107544, Control_c, 0, 64, 127
1, 107712, Control_c, 0, 64, 0
1, 107728, Note_on_c, 0, 62, 86
1, 107744, Note_on_c, 0, 64, 0
1, 107792, Note_on_c, 0, 79, 0
1, 107792, Control_c, 0, 64, 127
1, 107832, Note_on_c, 0, 72, 0
1, 107848, Note_on_c, 0, 69, 0
1, 108016, Control_c, 0, 64, 0
1, 108036, Note_on_c, 0, 61, 73
1, 108040, Note_on_c, 0, 77, 84
1, 108044, Note_on_c, 0, 72, 77
1, 108044, Note_on_c, 0, 69, 66
1, 108076, Note_on_c, 0, 62, 0
1, 108156, Control_c, 0, 64, 127
1, 108392, Note_on_c, 0, 60, 77
1, 108436, Note_on_c, 0, 77, 0
1, 108444, Note_on_c, 0, 61, 0
1, 108456, Note_on_c, 0, 72, 0
1, 108520, Note_on_c, 0, 69, 0
1, 108764, Note_on_c, 0, 76, 70
1, 108768, Note_on_c, 0, 65, 61
1, 108768, Note_on_c, 0, 69, 66
1, 108776, Note_on_c, 0, 57, 64
1, 108780, Note_on_c, 0, 60, 0
1, 109064, Note_on_c, 0, 76, 0
1, 109104, Note_on_c, 0, 69, 0
1, 109116, Note_on_c, 0, 57, 0
1, 109124, Note_on_c, 0, 53, 58
1, 109136, Note_on_c, 0, 65, 0
1, 109780, Note_on_c, 0, 53, 0
1, 110004, Note_on_c, 0, 72, 52
1, 110008, Note_on_c, 0, 53, 45
1, 110012, Note_on_c, 0, 69, 49
1, 110020, Note_on_c, 0, 65, 41
1, 110024, Note_on_c, 0, 62, 39
1, 110032, Note_on_c, 0, 60, 30
1, 110108, Note_on_c, 0, 53, 0
1, 110116, Note_on_c, 0, 60, 0
1, 110160, Note_on_c, 0, 72, 0
1, 110164, Note_on_c, 0, 69, 0
1, 110200, Note_on_c, 0, 62, 0
1, 110216, Note_on_c, 0, 65, 0
1, 110640, Note_on_c, 0, 63, 57
1, 110640, Note_on_c, 0, 59, 57
1, 110664, Note_on_c, 0, 67, 45
1, 110664, Control_c, 0, 64, 0
1, 110676, Note_on_c, 0, 53, 52
1, 110680, Note_on_c, 0, 43, 52
1, 110712, Note_on_c, 0, 63, 0
1, 110716, Note_on_c, 0, 64, 49
1, 110948, Control_c, 0, 64, 127
1, 111028, Note_on_c, 0, 63, 62
1, 111064, Note_on_c, 0, 64, 0
1, 111236, Note_on_c, 0, 53, 0
1, 111392, Note_on_c, 0, 59, 0
1, 111412, Note_on_c, 0, 63, 0
1, 111472, Note_on_c, 0, 59, 39
1, 111484, Note_on_c, 0, 62, 56
1, 111492, Control_c, 0, 64, 0
1, 111496, Note_on_c, 0, 53, 41
1, 111604, Control_c, 0, 64, 127
1, 112496, Note_on_c, 0, 62, 0
1, 112540, Note_on_c, 0, 59, 0
1, 112560, Note_on_c, 0, 67, 0
1, 112856, Note_on_c, 0, 64, 50
1, 112944, Note_on_c, 0, 53, 0
1, 113080, Note_on_c, 0, 43, 0
1, 113160, Note_on_c, 0, 64, 0
1, 113184, Note_on_c, 0, 65, 49
1, 113392, Note_on_c, 0, 65, 0
1, 113448, Note_on_c, 0, 67, 65
1, 113568, Note_on_c, 0, 67, 0
1, 113804, Control_c, 0, 64, 0
1, 113820, Note_on_c, 0, 71, 60
1, 113824, Note_on_c, 0, 64, 56
1, 113832, Note_on_c, 0, 36, 48
1, 113864, Note_on_c, 0, 52, 26
1, 113944, Control_c, 0, 64, 127
1, 114012, Note_on_c, 0, 64, 0
1, 114036, Note_on_c, 0, 71, 0
1, 114104, Note_on_c, 0, 52, 0
1, 114128, Note_on_c, 0, 43, 48
1, 114136, Note_on_c, 0, 74, 75
1, 114352, Note_on_c, 0, 74, 0
1, 114492, Note_on_c, 0, 67, 56
1, 114496, Note_on_c, 0, 52, 48
1, 114500, Note_on_c, 0, 62, 49
1, 114776, Note_on_c, 0, 36, 0
1, 114824, Note_on_c, 0, 43, 0
1, 114836, Note_on_c, 0, 52, 0
1, 114984, Note_on_c, 0, 62, 0
1, 115032, Note_on_c, 0, 67, 0
1, 115140, Note_on_c, 0, 67, 66
1, 115236, Note_on_c, 0, 67, 0
1, 115320, Note_on_c, 0, 69, 81
1, 115440, Note_on_c, 0, 69, 0
1, 115488, Note_on_c, 0, 67, 71
1, 115596, Note_on_c, 0, 67, 0
1, 115688, Control_c, 0, 64, 0
1, 115704, Note_on_c, 0, 70, 67
1, 115708, Note_on_c, 0, 66, 65
1, 115708, Note_on_c, 0, 61, 63
1, 115728, Note_on_c, 0, 55, 55
1, 115828, Control_c, 0, 64, 127
1, 115904, Note_on_c, 0, 70, 0
1, 115912, Note_on_c, 0, 61, 0
1, 115924, Note_on_c, 0, 72, 65
1, 115944, Note_on_c, 0, 66, 0
1, 115984, Note_on_c, 0, 55, 0
1, 116008, Note_on_c, 0, 72, 0
1, 116252, Note_on_c, 0, 69, 54
1, 116268, Note_on_c, 0, 61, 46
1, 116268, Control_c, 0, 64, 0
1, 116280, Note_on_c, 0, 55, 48
1, 116288, Note_on_c, 0, 58, 43
1, 116288, Note_on_c, 0, 64, 51
1, 116304, Note_on_c, 0, 45, 41
1, 116400, Control_c, 0, 64, 127
1, 116648, Note_on_c, 0, 69, 0
1, 116660, Note_on_c, 0, 58, 0
1, 116688, Note_on_c, 0, 64, 0
1, 116696, Note_on_c, 0, 61, 0
1, 116876, Note_on_c, 0, 55, 0
1, 116960, Note_on_c, 0, 45, 0
1, 117168, Note_on_c, 0, 76, 50
1, 117200, Note_on_c, 0, 76, 0
1, 117244, Control_c, 0, 64, 0
1, 117312, Note_on_c, 0, 38, 49
1, 117320, Note_on_c, 0, 76, 45
1, 117328, Note_on_c, 0, 83, 49
1, 117352, Note_on_c, 0, 38, 0
1, 117372, Control_c, 0, 64, 127
1, 117456, Note_on_c, 0, 76, 0
1, 117484, Note_on_c, 0, 83, 0
1, 117804, Control_c, 0, 64, 0
1, 117860, Note_on_c, 0, 54, 44
1, 117868, Note_on_c, 0, 64, 35
1, 117884, Note_on_c, 0, 60, 41
1, 117964, Control_c, 0, 64, 127
1, 118140, Note_on_c, 0, 64, 0
1, 118160, Note_on_c, 0, 60, 0
1, 118212, Note_on_c, 0, 54, 0
1, 118220, Note_on_c, 0, 82, 75
1, 118244, Note_on_c, 0, 76, 49
1, 118260, Note_on_c, 0, 71, 26
1, 118288, Note_on_c, 0, 71, 0
1, 118328, Note_on_c, 0, 82, 0
1, 118328, Note_on_c, 0, 76, 0
1, 118328, Control_c, 0, 64, 0
1, 118424, Note_on_c, 0, 63, 44
1, 118428, Note_on_c, 0, 59, 44
1, 118428, Note_on_c, 0, 81, 54
1, 118428, Note_on_c, 0, 76, 41
1, 118428, Note_on_c, 0, 71, 49
1, 118432, Control_c, 0, 64, 127
1, 118444, Note_on_c, 0, 53, 36
1, 118492, Note_on_c, 0, 63, 0
1, 118496, Note_on_c, 0, 81, 0
1, 118500, Note_on_c, 0, 59, 0
1, 118516, Note_on_c, 0, 76, 0
1, 118524, Note_on_c, 0, 53, 0
1, 118544, Note_on_c, 0, 71, 0
1, 118800, Note_on_c, 0, 43, 50
1, 118916, Control_c, 0, 64, 0
1, 118948, Note_on_c, 0, 43, 0
1, 118976, Note_on_c, 0, 68, 54
1, 118984, Note_on_c, 0, 59, 48
1, 118984, Note_on_c, 0, 53, 41
1, 118996, Note_on_c, 0, 63, 48
1, 119004, Note_on_c, 0, 65, 48
1, 119020, Note_on_c, 0, 53, 0
1, 119032, Control_c, 0, 64, 127
1, 119168, Note_on_c, 0, 59, 0
1, 119176, Note_on_c, 0, 65, 0
1, 119240, Note_on_c, 0, 63, 0
1, 119244, Note_on_c, 0, 68, 0
1, 119364, Note_on_c, 0, 67, 54
1, 119372, Note_on_c, 0, 62, 45
1, 119372, Note_on_c, 0, 57, 31
1, 119404, Note_on_c, 0, 62, 0
1, 119408, Note_on_c, 0, 57, 0
1, 119416, Note_on_c, 0, 67, 0
1, 119416, Control_c, 0, 64, 0
1, 119512, Note_on_c, 0, 36, 48
1, 119536, Control_c, 0, 64, 127
1, 119572, Note_on_c, 0, 52, 18
1, 119632, Note_on_c, 0, 36, 0
1, 119720, Note_on_c, 0, 52, 0
1, 120064, Note_on_c, 0, 58, 57
1, 120068, Note_on_c, 0, 57, 49
1, 120076, Note_on_c, 0, 69, 55
1, 120080, Note_on_c, 0, 61, 50
1, 120084, Note_on_c, 0, 64, 57
1, 120104, Note_on_c, 0, 57, 0
1, 120180, Note_on_c, 0, 69, 0
1, 120240, Note_on_c, 0, 64, 0
1, 120276, Note_on_c, 0, 58, 0
1, 120280, Note_on_c, 0, 61, 0
1, 120628, Note_on_c, 0, 55, 49
1, 120636, Note_on_c, 0, 64, 46
1, 120640, Note_on_c, 0, 57, 45
1, 120640, Note_on_c, 0, 60, 49
1, 120648, Control_c, 0, 64, 0
1, 120820, Note_on_c, 0, 52, 57
1, 120912, Note_on_c, 0, 52, 0
1, 120992, Note_on_c, 0, 51, 55
1, 121124, Note_on_c, 0, 51, 0
1, 121188, Note_on_c, 0, 50, 50
1, 121288, Note_on_c, 0, 50, 0
1, 121352, Note_on_c, 0, 49, 49
1, 121460, Note_on_c, 0, 49, 0
1, 121536, Note_on_c, 0, 48, 56
1, 121580, Note_on_c, 0, 57, 0
1, 121584, Note_on_c, 0, 60, 0
1, 121608, Note_on_c, 0, 55, 0
1, 121608, Control_c, 0, 64, 127
1, 121616, Note_on_c, 0, 64, 0
1, 121748, Note_on_c, 0, 48, 0
1, 121752, Control_c, 0, 64, 0
1, 121772, Note_on_c, 0, 47, 57
1, 121880, Control_c, 0, 64, 127
1, 121960, Note_on_c, 0, 47, 0
1, 122148, Note_on_c, 0, 68, 69
1, 122148, Note_on_c, 0, 57, 68
1, 122156, Note_on_c, 0, 61, 63
1, 122156, Note_on_c, 0, 63, 60
1, 122156, Note_on_c, 0, 54, 48
1, 122168, Control_c, 0, 64, 0
1, 122216, Note_on_c, 0, 47, 31
1, 122308, Control_c, 0, 64, 127
1, 122464, Note_on_c, 0, 68, 0
1, 122524, Note_on_c, 0, 67, 73
1, 122548, Note_on_c, 0, 54, 0
1, 122580, Note_on_c, 0, 47, 0
1, 122676, Note_on_c, 0, 67, 0
1, 122724, Note_on_c, 0, 57, 0
1, 122764, Note_on_c, 0, 63, 0
1, 122820, Note_on_c, 0, 61, 0
1, 122876, Control_c, 0, 64, 0
1, 122896, Note_on_c, 0, 40, 55
1, 123064, Control_c, 0, 64, 127
1, 123252, Control_c, 0, 64, 0
1, 123276, Note_on_c, 0, 66, 66
1, 123276, Note_on_c, 0, 52, 62
1, 123280, Note_on_c, 0, 56, 66
1, 123296, Note_on_c, 0, 62, 52
1, 123384, Control_c, 0, 64, 40
1, 123388, Control_c, 0, 64, 127
1, 123516, Note_on_c, 0, 62, 0
1, 123520, Note_on_c, 0, 56, 0
1, 123524, Note_on_c, 0, 66, 0
1, 123572, Note_on_c, 0, 52, 0
1, 123608, Note_on_c, 0, 40, 0
1, 123620, Control_c, 0, 64, 0
1, 123656, Note_on_c, 0, 65, 60
1, 123656, Note_on_c, 0, 56, 69
1, 123664, Note_on_c, 0, 46, 58
1, 123672, Note_on_c, 0, 62, 60
1, 123736, Control_c, 0, 64, 127
1, 123812, Note_on_c, 0, 62, 0
1, 123860, Note_on_c, 0, 56, 0
1, 123928, Note_on_c, 0, 65, 0
1, 123988, Note_on_c, 0, 46, 0
1, 124004, Control_c, 0, 64, 0
1, 124064, Note_on_c, 0, 45, 54
1, 124068, Note_on_c, 0, 64, 57
1, 124068, Note_on_c, 0, 61, 51
1, 124068, Note_on_c, 0, 55, 51
1, 124076, Note_on_c, 0, 58, 43
1, 124136, Control_c, 0, 64, 127
1, 124260, Note_on_c, 0, 45, 0
1, 124332, Note_on_c, 0, 64, 0
1, 124348, Note_on_c, 0, 55, 0
1, 124348, Note_on_c, 0, 58, 0
1, 124428, Note_on_c, 0, 61, 0
1, 124608, Control_c, 0, 64, 0
1, 124640, Note_on_c, 0, 61, 48
1, 124648, Note_on_c, 0, 39, 43
1, 124652, Note_on_c, 0, 65, 43
1, 124652, Note_on_c, 0, 55, 51
1, 124656, Note_on_c, 0, 46, 41
1, 124748, Note_on_c, 0, 65, 0
1, 124756, Control_c, 0, 64, 127
1, 124784, Note_on_c, 0, 61, 0
1, 124840, Note_on_c, 0, 39, 0
1, 124840, Note_on_c, 0, 55, 0
1, 124860, Note_on_c, 0, 46, 0
1, 125032, Control_c, 0, 64, 0
1, 125064, Note_on_c, 0, 62, 51
1, 125064, Note_on_c, 0, 53, 54
1, 125076, Note_on_c, 0, 57, 47
1, 125084, Note_on_c, 0, 60, 42
1, 125108, Note_on_c, 0, 53, 0
1, 125128, Note_on_c, 0, 60, 0
1, 125164, Note_on_c, 0, 57, 0
1, 125208, Note_on_c, 0, 62, 0
1, 125208, Control_c, 0, 64, 127
1, 125244, Note_on_c, 0, 38, 46
1, 125248, Note_on_c, 0, 50, 49
1, 125276, Note_on_c, 0, 38, 0
1, 125308, Note_on_c, 0, 50, 0
1, 125640, Note_on_c, 0, 76, 68
1, 125640, Note_on_c, 0, 64, 56
1, 125644, Note_on_c, 0, 65, 67
1, 125648, Note_on_c, 0, 69, 57
1, 125648, Note_on_c, 0, 72, 51
1, 125684, Note_on_c, 0, 72, 0
1, 125688, Note_on_c, 0, 64, 0
1, 125688, Note_on_c, 0, 69, 0
1, 125692, Note_on_c, 0, 65, 0
1, 125708, Note_on_c, 0, 76, 0
1, 125744, Control_c, 0, 64, 0
1, 125828, Note_on_c, 0, 62, 48
1, 125840, Note_on_c, 0, 74, 58
1, 125848, Note_on_c, 0, 65, 40
1, 125868, Note_on_c, 0, 62, 0
1, 125884, Note_on_c, 0, 65, 0
1, 125920, Note_on_c, 0, 74, 0
1, 125976, Control_c, 0, 64, 127
1, 126208, Note_on_c, 0, 79, 65
1, 126216, Note_on_c, 0, 69, 58
1, 126216, Note_on_c, 0, 72, 53
1, 126216, Note_on_c, 0, 64, 50
1, 126244, Note_on_c, 0, 72, 0
1, 126244, Note_on_c, 0, 77, 27
1, 126256, Note_on_c, 0, 79, 0
1, 126256, Note_on_c, 0, 69, 0
1, 126256, Note_on_c, 0, 64, 0
1, 126272, Note_on_c, 0, 77, 0
1, 126320, Control_c, 0, 64, 56
1, 126324, Control_c, 0, 64, 0
1, 126428, Note_on_c, 0, 76, 50
1, 126432, Note_on_c, 0, 69, 43
1, 126432, Note_on_c, 0, 72, 45
1, 126436, Note_on_c, 0, 65, 39
1, 126444, Note_on_c, 0, 60, 42
1, 126480, Note_on_c, 0, 65, 0
1, 126504, Note_on_c, 0, 69, 0
1, 126508, Note_on_c, 0, 72, 0
1, 126512, Note_on_c, 0, 76, 0
1, 126536, Note_on_c, 0, 60, 0
1, 126536, Control_c, 0, 64, 127
1, 126604, Control_c, 0, 64, 0
1, 126664, Control_c, 0, 64, 127
1, 126768, Note_on_c, 0, 76, 60
1, 126776, Note_on_c, 0, 69, 66
1, 126780, Note_on_c, 0, 60, 58
1, 126796, Note_on_c, 0, 65, 52
1, 126820, Note_on_c, 0, 69, 0
1, 126828, Note_on_c, 0, 76, 0
1, 126832, Note_on_c, 0, 65, 0
1, 126936, Control_c, 0, 64, 0
1, 126964, Note_on_c, 0, 60, 0
1, 127004, Note_on_c, 0, 72, 48
1, 127008, Note_on_c, 0, 62, 44
1, 127016, Note_on_c, 0, 65, 45
1, 127020, Note_on_c, 0, 57, 39
1, 127020, Note_on_c, 0, 69, 54
1, 127056, Note_on_c, 0, 65, 0
1, 127064, Note_on_c, 0, 69, 0
1, 127068, Note_on_c, 0, 62, 0
1, 127068, Control_c, 0, 64, 127
1, 127080, Note_on_c, 0, 72, 0
1, 127080, Note_on_c, 0, 57, 0
1, 127360, Note_on_c, 0, 72, 57
1, 127364, Note_on_c, 0, 57, 48
1, 127380, Note_on_c, 0, 65, 47
1, 127384, Note_on_c, 0, 62, 49
1, 127396, Note_on_c, 0, 57, 0
1, 127416, Note_on_c, 0, 65, 0
1, 127420, Note_on_c, 0, 72, 0
1, 127432, Note_on_c, 0, 62, 0
1, 127576, Control_c, 0, 64, 0
1, 127600, Note_on_c, 0, 63, 57
1, 127604, Note_on_c, 0, 68, 43
1, 127620, Note_on_c, 0, 43, 46
1, 127632, Note_on_c, 0, 53, 42
1, 127632, Note_on_c, 0, 69, 57
1, 127652, Note_on_c, 0, 68, 0
1, 127660, Note_on_c, 0, 59, 10
1, 127692, Note_on_c, 0, 63, 0
1, 127704, Note_on_c, 0, 64, 42
1, 127748, Control_c, 0, 64, 127
1, 127940, Note_on_c, 0, 69, 0
1, 128000, Note_on_c, 0, 43, 0
1, 128024, Note_on_c, 0, 53, 0
1, 128028, Note_on_c, 0, 59, 0
1, 128048, Note_on_c, 0, 64, 0
1, 128196, Note_on_c, 0, 44, 52
1, 128200, Note_on_c, 0, 68, 68
1, 128200, Control_c, 0, 64, 0
1, 128208, Note_on_c, 0, 59, 54
1, 128224, Note_on_c, 0, 63, 43
1, 128232, Note_on_c, 0, 53, 45
1, 128332, Control_c, 0, 64, 127
1, 128464, Note_on_c, 0, 44, 0
1, 128480, Note_on_c, 0, 53, 0
1, 128492, Note_on_c, 0, 59, 0
1, 128616, Note_on_c, 0, 68, 0
1, 128644, Note_on_c, 0, 63, 0
1, 128700, Control_c, 0, 64, 0
1, 128768, Note_on_c, 0, 45, 50
1, 128772, Note_on_c, 0, 55, 49
1, 128776, Note_on_c, 0, 60, 48
1, 128780, Note_on_c, 0, 64, 51
1, 128780, Note_on_c, 0, 67, 49
1, 128784, Note_on_c, 0, 52, 38
1, 128820, Control_c, 0, 64, 127
1, 128824, Note_on_c, 0, 60, 0
1, 128872, Note_on_c, 0, 45, 0
1, 128872, Note_on_c, 0, 64, 0
1, 128884, Note_on_c, 0, 67, 0
1, 128892, Note_on_c, 0, 52, 0
1, 128952, Note_on_c, 0, 55, 0
1, 129148, Note_on_c, 0, 74, 86
1, 129180, Note_on_c, 0, 76, 35
1, 129216, Note_on_c, 0, 76, 0
1, 129284, Note_on_c, 0, 74, 0
1, 129292, Control_c, 0, 64, 0
1, 129332, Note_on_c, 0, 64, 50
1, 129336, Note_on_c, 0, 60, 48
1, 129348, Note_on_c, 0, 71, 73
1, 129352, Note_on_c, 0, 55, 32
1, 129360, Note_on_c, 0, 64, 0
1, 129400, Note_on_c, 0, 60, 0
1, 129412, Control_c, 0, 64, 127
1, 129432, Note_on_c, 0, 55, 0
1, 129436, Note_on_c, 0, 71, 0
1, 129480, Note_on_c, 0, 72, 59
1, 129556, Note_on_c, 0, 72, 0
1, 129604, Note_on_c, 0, 76, 68
1, 129616, Note_on_c, 0, 50, 26
1, 129664, Note_on_c, 0, 50, 0
1, 129696, Note_on_c, 0, 76, 0
1, 129720, Note_on_c, 0, 79, 74
1, 129796, Note_on_c, 0, 79, 0
1, 129828, Control_c, 0, 64, 0
1, 129880, Note_on_c, 0, 38, 57
1, 129884, Note_on_c, 0, 50, 56
1, 129888, Note_on_c, 0, 83, 80
1, 129928, Control_c, 0, 64, 127
1, 129952, Note_on_c, 0, 38, 0
1, 129964, Note_on_c, 0, 50, 0
1, 129996, Note_on_c, 0, 83, 0
1, 130028, Note_on_c, 0, 86, 83
1, 130136, Note_on_c, 0, 86, 0
1, 130192, Note_on_c, 0, 84, 81
1, 130376, Note_on_c, 0, 84, 0
1, 130408, Note_on_c, 0, 80, 73
1, 130412, Note_on_c, 0, 64, 54
1, 130420, Note_on_c, 0, 54, 43
1, 130420, Note_on_c, 0, 60, 48
1, 130600, Note_on_c, 0, 80, 0
1, 130612, Note_on_c, 0, 81, 72
1, 130668, Note_on_c, 0, 64, 0
1, 130696, Note_on_c, 0, 60, 0
1, 130764, Note_on_c, 0, 54, 0
1, 130848, Note_on_c, 0, 81, 0
1, 130944, Control_c, 0, 64, 0
1, 130964, Note_on_c, 0, 84, 115
1, 130976, Note_on_c, 0, 60, 57
1, 130976, Note_on_c, 0, 53, 55
1, 130980, Note_on_c, 0, 64, 59
1, 130988, Note_on_c, 0, 57, 60
1, 131064, Control_c, 0, 64, 127
1, 131232, Note_on_c, 0, 84, 0
1, 131316, Note_on_c, 0, 64, 0
1, 131336, Note_on_c, 0, 57, 0
1, 131344, Note_on_c, 0, 60, 0
1, 131348, Note_on_c, 0, 81, 90
1, 131524, Note_on_c, 0, 81, 0
1, 131548, Note_on_c, 0, 64, 48
1, 131564, Note_on_c, 0, 57, 48
1, 131572, Note_on_c, 0, 77, 65
1, 131584, Note_on_c, 0, 60, 33
1, 131636, Note_on_c, 0, 64, 0
1, 131656, Note_on_c, 0, 60, 0
1, 131660, Note_on_c, 0, 57, 0
1, 131688, Note_on_c, 0, 53, 0
1, 131720, Note_on_c, 0, 77, 0
1, 131760, Note_on_c, 0, 72, 50
1, 131804, Note_on_c, 0, 72, 0
1, 131956, Note_on_c, 0, 69, 73
1, 132016, Note_on_c, 0, 69, 0
1, 132136, Control_c, 0, 64, 0
1, 132156, Note_on_c, 0, 79, 86
1, 132156, Note_on_c, 0, 72, 75
1, 132160, Note_on_c, 0, 69, 75
1, 132168, Note_on_c, 0, 64, 62
1, 132292, Control_c, 0, 64, 127
1, 132372, Note_on_c, 0, 79, 0
1, 132428, Note_on_c, 0, 64, 0
1, 132432, Note_on_c, 0, 72, 0
1, 132436, Note_on_c, 0, 69, 0
1, 132704, Control_c, 0, 64, 0
1, 132752, Note_on_c, 0, 76, 68
1, 132752, Note_on_c, 0, 71, 61
1, 132756, Note_on_c, 0, 68, 55
1, 132760, Note_on_c, 0, 65, 53
1, 132768, Note_on_c, 0, 62, 49
1, 132820, Control_c, 0, 64, 127
1, 132940, Note_on_c, 0, 76, 0
1, 132948, Note_on_c, 0, 62, 0
1, 132992, Note_on_c, 0, 65, 0
1, 133040, Note_on_c, 0, 71, 0
1, 133088, Note_on_c, 0, 68, 0
1, 133232, Control_c, 0, 64, 0
1, 133316, Note_on_c, 0, 71, 54
1, 133320, Note_on_c, 0, 74, 61
1, 133320, Note_on_c, 0, 59, 53
1, 133324, Note_on_c, 0, 67, 56
1, 133328, Note_on_c, 0, 64, 56
1, 133340, Control_c, 0, 64, 127
1, 133572, Note_on_c, 0, 71, 0
1, 133572, Note_on_c, 0, 74, 0
1, 133580, Note_on_c, 0, 64, 0
1, 133636, Note_on_c, 0, 67, 0
1, 133656, Note_on_c, 0, 59, 0
1, 133888, Note_on_c, 0, 72, 65
1, 133888, Note_on_c, 0, 57, 52
1, 133892, Note_on_c, 0, 67, 61
1, 133896, Note_on_c, 0, 62, 57
1, 134020, Note_on_c, 0, 57, 0
1, 134068, Note_on_c, 0, 72, 0
1, 134104, Note_on_c, 0, 67, 0
1, 134128, Note_on_c, 0, 62, 0
1, 134420, Control_c, 0, 64, 0
1, 134464, Note_on_c, 0, 46, 52
1, 134464, Note_on_c, 0, 69, 58
1, 134472, Note_on_c, 0, 66, 49
1, 134476, Note_on_c, 0, 56, 39
1, 134492, Note_on_c, 0, 60, 35
1, 134508, Note_on_c, 0, 62, 27
1, 134544, Control_c, 0, 64, 127
1, 134552, Note_on_c, 0, 62, 0
1, 134632, Note_on_c, 0, 56, 0
1, 134644, Note_on_c, 0, 60, 0
1, 134664, Note_on_c, 0, 69, 0
1, 134712, Note_on_c, 0, 46, 0
1, 134828, Note_on_c, 0, 66, 0
1, 135008, Control_c, 0, 64, 0
1, 135060, Note_on_c, 0, 70, 50
1, 135060, Note_on_c, 0, 55, 48
1, 135060, Note_on_c, 0, 61, 46
1, 135068, Note_on_c, 0, 45, 46
1, 135072, Note_on_c, 0, 65, 54
1, 135092, Note_on_c, 0, 55, 0
1, 135124, Control_c, 0, 64, 127
1, 135160, Note_on_c, 0, 45, 0
1, 135220, Note_on_c, 0, 65, 0
1, 135264, Note_on_c, 0, 61, 0
1, 135320, Note_on_c, 0, 70, 0
1, 135456, Note_on_c, 0, 71, 57
1, 135456, Note_on_c, 0, 60, 58
1, 135460, Note_on_c, 0, 68, 52
1, 135460, Note_on_c, 0, 64, 58
1, 135480, Note_on_c, 0, 60, 0
1, 135488, Note_on_c, 0, 64, 0
1, 135520, Note_on_c, 0, 68, 0
1, 135540, Note_on_c, 0, 71, 0
1, 135576, Control_c, 0, 64, 0
1, 135648, Note_on_c, 0, 38, 48
1, 135688, Control_c, 0, 64, 127
1, 135704, Note_on_c, 0, 76, 60
1, 135712, Note_on_c, 0, 84, 57
1, 135712, Note_on_c, 0, 83, 65
1, 135724, Note_on_c, 0, 38, 0
1, 135740, Note_on_c, 0, 84, 0
1, 135756, Note_on_c, 0, 76, 0
1, 135796, Note_on_c, 0, 76, 37
1, 135960, Note_on_c, 0, 76, 0
1, 136024, Note_on_c, 0, 83, 0
1, 136072, Note_on_c, 0, 80, 56
1, 136084, Note_on_c, 0, 71, 36
1, 136084, Note_on_c, 0, 76, 52
1, 136196, Control_c, 0, 64, 0
1, 136248, Note_on_c, 0, 54, 48
1, 136252, Note_on_c, 0, 64, 40
1, 136264, Note_on_c, 0, 60, 41
1, 136292, Control_c, 0, 64, 127
1, 136296, Note_on_c, 0, 64, 0
1, 136300, Note_on_c, 0, 60, 0
1, 136352, Note_on_c, 0, 54, 0
1, 136536, Note_on_c, 0, 71, 0
1, 136560, Note_on_c, 0, 76, 0
1, 136604, Note_on_c, 0, 80, 0
1, 136656, Note_on_c, 0, 50, 68
1, 136820, Control_c, 0, 64, 0
1, 136844, Note_on_c, 0, 50, 0
1, 136860, Note_on_c, 0, 82, 82
1, 136864, Note_on_c, 0, 43, 77
1, 136872, Note_on_c, 0, 88, 82
1, 136888, Note_on_c, 0, 82, 0
1, 136888, Note_on_c, 0, 76, 75
1, 136896, Note_on_c, 0, 81, 65
1, 136904, Note_on_c, 0, 85, 39
1, 136940, Note_on_c, 0, 85, 0
1, 136948, Control_c, 0, 64, 127
1, 136952, Note_on_c, 0, 43, 0
1, 137080, Note_on_c, 0, 81, 0
1, 137136, Note_on_c, 0, 76, 0
1, 137192, Note_on_c, 0, 88, 0
1, 137252, Note_on_c, 0, 64, 81
1, 137256, Note_on_c, 0, 53, 75
1, 137260, Note_on_c, 0, 81, 81
1, 137260, Note_on_c, 0, 76, 68
1, 137260, Note_on_c, 0, 85, 81
1, 137260, Note_on_c, 0, 59, 79
1, 137644, Note_on_c, 0, 53, 0
1, 137788, Note_on_c, 0, 64, 0
1, 137824, Note_on_c, 0, 81, 0
1, 137848, Note_on_c, 0, 85, 0
1, 137856, Note_on_c, 0, 76, 0
1, 137884, Note_on_c, 0, 59, 0
1, 137884, Note_on_c, 0, 53, 66
1, 137992, Note_on_c, 0, 53, 0
1, 138124, Control_c, 0, 64, 0
1, 138144, Note_on_c, 0, 58, 79
1, 138144, Note_on_c, 0, 86, 115
1, 138144, Note_on_c, 0, 74, 99
1, 138144, Note_on_c, 0, 62, 79
1, 138144, Note_on_c, 0, 79, 96
1, 138144, Note_on_c, 0, 82, 83
1, 138156, Note_on_c, 0, 52, 75
1, 138264, Control_c, 0, 64, 127
1, 138380, Note_on_c, 0, 86, 0
1, 138404, Note_on_c, 0, 74, 0
1, 138444, Note_on_c, 0, 62, 0
1, 138444, Note_on_c, 0, 79, 0
1, 138448, Note_on_c, 0, 52, 0
1, 138460, Note_on_c, 0, 58, 0
1, 138464, Note_on_c, 0, 82, 0
1, 138528, Note_on_c, 0, 85, 85
1, 138532, Note_on_c, 0, 73, 85
1, 138540, Note_on_c, 0, 52, 66
1, 138540, Note_on_c, 0, 79, 79
1, 138544, Note_on_c, 0, 62, 69
1, 138544, Note_on_c, 0, 82, 57
1, 138544, Note_on_c, 0, 58, 62
1, 138672, Note_on_c, 0, 79, 0
1, 138672, Note_on_c, 0, 62, 0
1, 138688, Note_on_c, 0, 73, 0
1, 138700, Note_on_c, 0, 85, 0
1, 138704, Note_on_c, 0, 52, 0
1, 138704, Note_on_c, 0, 82, 0
1, 138724, Note_on_c, 0, 58, 0
1, 138776, Note_on_c, 0, 84, 67
1, 138780, Note_on_c, 0, 52, 64
1, 138784, Note_on_c, 0, 58, 67
1, 138784, Note_on_c, 0, 72, 63
1, 138788, Note_on_c, 0, 79, 57
1, 138792, Note_on_c, 0, 62, 54
1, 138800, Note_on_c, 0, 78, 50
1, 138852, Note_on_c, 0, 84, 0
1, 138860, Note_on_c, 0, 79, 0
1, 138860, Note_on_c, 0, 78, 0
1, 138896, Note_on_c, 0, 72, 0
1, 138968, Note_on_c, 0, 62, 0
1, 138972, Note_on_c, 0, 58, 0
1, 138996, Note_on_c, 0, 52, 0
1, 139148, Note_on_c, 0, 70, 67
1, 139152, Note_on_c, 0, 82, 62
1, 139160, Note_on_c, 0, 58, 52
1, 139168, Note_on_c, 0, 62, 47
1, 139236, Note_on_c, 0, 58, 0
1, 139240, Note_on_c, 0, 62, 0
1, 139268, Note_on_c, 0, 82, 0
1, 139296, Note_on_c, 0, 70, 0
1, 139328, Control_c, 0, 64, 0
1, 139408, Note_on_c, 0, 81, 60
1, 139408, Note_on_c, 0, 64, 53
1, 139412, Note_on_c, 0, 76, 63
1, 139420, Note_on_c, 0, 60, 52
1, 139420, Note_on_c, 0, 69, 52
1, 139428, Note_on_c, 0, 57, 52
1, 139444, Control_c, 0, 64, 127
1, 139456, Note_on_c, 0, 78, 23
1, 139492, Note_on_c, 0, 53, 4
1, 139496, Note_on_c, 0, 64, 0
1, 139508, Note_on_c, 0, 81, 0
1, 139508, Note_on_c, 0, 78, 0
1, 139516, Note_on_c, 0, 76, 0
1, 139520, Note_on_c, 0, 60, 0
1, 139524, Note_on_c, 0, 57, 0
1, 139572, Note_on_c, 0, 69, 0
1, 139584, Note_on_c, 0, 53, 0
1, 139768, Note_on_c, 0, 41, 57
1, 139800, Control_c, 0, 64, 0
1, 139804, Note_on_c, 0, 41, 0
1, 139816, Control_c, 0, 64, 127
1, 140016, Note_on_c, 0, 56, 61
1, 140020, Note_on_c, 0, 46, 57
1, 140028, Control_c, 0, 64, 0
1, 140040, Note_on_c, 0, 60, 55
1, 140048, Note_on_c, 0, 64, 45
1, 140064, Note_on_c, 0, 62, 45
1, 140156, Control_c, 0, 64, 127
1, 140324, Note_on_c, 0, 46, 0
1, 140372, Note_on_c, 0, 62, 0
1, 140400, Note_on_c, 0, 46, 48
1, 140432, Note_on_c, 0, 60, 0
1, 140440, Note_on_c, 0, 56, 0
1, 140448, Note_on_c, 0, 64, 0
1, 140492, Note_on_c, 0, 46, 0
1, 140612, Control_c, 0, 64, 72
1, 140616, Control_c, 0, 64, 0
1, 140628, Note_on_c, 0, 47, 68
1, 140808, Control_c, 0, 64, 127
1, 140884, Control_c, 0, 64, 24
1, 140884, Note_on_c, 0, 68, 81
1, 140888, Control_c, 0, 64, 0
1, 140892, Note_on_c, 0, 57, 75
1, 140900, Note_on_c, 0, 61, 52
1, 140904, Note_on_c, 0, 56, 66
1, 140908, Note_on_c, 0, 63, 41
1, 140928, Note_on_c, 0, 61, 0
1, 140932, Note_on_c, 0, 57, 0
1, 140940, Note_on_c, 0, 63, 0
1, 140956, Note_on_c, 0, 68, 0
1, 140976, Note_on_c, 0, 56, 0
1, 141076, Note_on_c, 0, 54, 49
1, 141204, Note_on_c, 0, 54, 0
1, 141248, Note_on_c, 0, 68, 85
1, 141252, Note_on_c, 0, 56, 58
1, 141260, Control_c, 0, 64, 127
1, 141260, Note_on_c, 0, 61, 62
1, 141264, Note_on_c, 0, 57, 63
1, 141264, Note_on_c, 0, 63, 57
1, 141280, Note_on_c, 0, 55, 34
1, 141288, Note_on_c, 0, 47, 0
1, 141360, Note_on_c, 0, 56, 0
1, 141504, Note_on_c, 0, 55, 0
1, 141532, Note_on_c, 0, 61, 0
1, 141540, Note_on_c, 0, 57, 0
1, 141548, Note_on_c, 0, 63, 0
1, 141564, Note_on_c, 0, 68, 0
1, 141592, Control_c, 0, 64, 0
1, 141612, Note_on_c, 0, 66, 65
1, 141616, Note_on_c, 0, 57, 68
1, 141624, Note_on_c, 0, 61, 49
1, 141628, Note_on_c, 0, 63, 45
1, 141644, Control_c, 0, 64, 127
1, 141808, Control_c, 0, 64, 0
1, 141812, Note_on_c, 0, 61, 0
1, 141824, Note_on_c, 0, 57, 0
1, 141836, Note_on_c, 0, 63, 0
1, 141844, Note_on_c, 0, 66, 0
1, 141856, Note_on_c, 0, 40, 52
1, 142040, Note_on_c, 0, 67, 61
1, 142044, Note_on_c, 0, 56, 54
1, 142056, Note_on_c, 0, 52, 49
1, 142056, Note_on_c, 0, 62, 57
1, 142184, Note_on_c, 0, 56, 0
1, 142188, Note_on_c, 0, 67, 0
1, 142196, Note_on_c, 0, 52, 0
1, 142200, Note_on_c, 0, 62, 0
1, 142236, Control_c, 0, 64, 127
1, 142276, Control_c, 0, 64, 0
1, 142280, Note_on_c, 0, 47, 25
1, 142332, Note_on_c, 0, 47, 0
1, 142428, Note_on_c, 0, 52, 56
1, 142432, Note_on_c, 0, 56, 58
1, 142436, Note_on_c, 0, 67, 53
1, 142440, Note_on_c, 0, 62, 55
1, 142512, Control_c, 0, 64, 127
1, 142616, Note_on_c, 0, 52, 0
1, 142704, Note_on_c, 0, 56, 0
1, 142732, Note_on_c, 0, 62, 0
1, 142736, Note_on_c, 0, 40, 0
1, 142752, Note_on_c, 0, 67, 0
1, 142820, Note_on_c, 0, 56, 57
1, 142828, Note_on_c, 0, 65, 58
1, 142980, Note_on_c, 0, 65, 0
1, 142984, Note_on_c, 0, 56, 0
1, 143040, Note_on_c, 0, 44, 51
1, 143048, Control_c, 0, 64, 0
1, 143068, Note_on_c, 0, 66, 60
1, 143076, Note_on_c, 0, 55, 57
1, 143076, Note_on_c, 0, 61, 56
1, 143092, Note_on_c, 0, 45, 46
1, 143104, Note_on_c, 0, 44, 0
1, 143224, Control_c, 0, 64, 127
1, 143464, Note_on_c, 0, 33, 49
1, 143556, Note_on_c, 0, 55, 0
1, 143580, Note_on_c, 0, 66, 0
1, 143620, Note_on_c, 0, 33, 0
1, 143632, Note_on_c, 0, 45, 0
1, 143648, Note_on_c, 0, 61, 0
1, 143704, Note_on_c, 0, 45, 56
1, 143704, Note_on_c, 0, 55, 55
1, 143704, Control_c, 0, 64, 0
1, 143708, Note_on_c, 0, 65, 49
1, 143712, Note_on_c, 0, 61, 60
1, 143864, Control_c, 0, 64, 127
1, 144000, Note_on_c, 0, 65, 0
1, 144032, Note_on_c, 0, 45, 0
1, 144096, Note_on_c, 0, 55, 0
1, 144112, Note_on_c, 0, 39, 49
1, 144120, Note_on_c, 0, 61, 0
1, 144292, Note_on_c, 0, 39, 0
1, 144316, Control_c, 0, 64, 0
1, 144344, Note_on_c, 0, 53, 43
1, 144344, Note_on_c, 0, 64, 48
1, 144352, Note_on_c, 0, 60, 49
1, 144356, Note_on_c, 0, 38, 49
1, 144360, Note_on_c, 0, 57, 47
1, 144640, Control_c, 0, 64, 127
1, 144740, Note_on_c, 0, 26, 52
1, 144784, Note_on_c, 0, 26, 0
1, 144800, Note_on_c, 0, 53, 0
1, 144804, Note_on_c, 0, 57, 0
1, 144812, Note_on_c, 0, 60, 0
1, 144828, Note_on_c, 0, 38, 0
1, 144884, Note_on_c, 0, 64, 0
1, 144976, Note_on_c, 0, 53, 55
1, 144984, Note_on_c, 0, 62, 50
1, 144996, Note_on_c, 0, 57, 39
1, 145012, Note_on_c, 0, 53, 0
1, 145084, Note_on_c, 0, 57, 0
1, 145152, Note_on_c, 0, 62, 0
1, 145380, Note_on_c, 0, 79, 74
1, 145496, Note_on_c, 0, 79, 0
1, 145564, Control_c, 0, 64, 0
1, 145608, Note_on_c, 0, 50, 48
1, 145616, Note_on_c, 0, 57, 42
1, 145616, Note_on_c, 0, 79, 68
1, 145620, Note_on_c, 0, 60, 33
1, 145724, Control_c, 0, 64, 127
1, 145736, Note_on_c, 0, 79, 0
1, 145788, Note_on_c, 0, 57, 0
1, 145792, Note_on_c, 0, 50, 0
1, 145808, Note_on_c, 0, 67, 51
1, 145864, Note_on_c, 0, 60, 0
1, 145868, Note_on_c, 0, 67, 0
1, 146032, Note_on_c, 0, 67, 56
1, 146228, Note_on_c, 0, 64, 48
1, 146228, Note_on_c, 0, 57, 43
1, 146244, Note_on_c, 0, 60, 47
1, 146480, Note_on_c, 0, 67, 0
1, 146484, Note_on_c, 0, 64, 0
1, 146500, Note_on_c, 0, 79, 90
1, 146532, Note_on_c, 0, 60, 0
1, 146588, Note_on_c, 0, 57, 0
1, 146616, Note_on_c, 0, 79, 0
1, 146684, Note_on_c, 0, 79, 84
1, 146796, Note_on_c, 0, 79, 0
1, 146840, Control_c, 0, 64, 0
1, 146876, Note_on_c, 0, 64, 55
1, 146888, Note_on_c, 0, 53, 48
1, 146892, Note_on_c, 0, 79, 80
1, 146892, Note_on_c, 0, 59, 48
1, 146952, Note_on_c, 0, 64, 0
1, 146952, Control_c, 0, 64, 127
1, 146996, Note_on_c, 0, 59, 0
1, 147028, Note_on_c, 0, 79, 0
1, 147056, Note_on_c, 0, 53, 0
1, 147076, Note_on_c, 0, 68, 77
1, 147088, Note_on_c, 0, 79, 55
1, 147248, Note_on_c, 0, 79, 0
1, 147256, Note_on_c, 0, 68, 0
1, 147320, Note_on_c, 0, 68, 87
1, 147516, Note_on_c, 0, 44, 58
1, 147528, Note_on_c, 0, 53, 48
1, 147716, Note_on_c, 0, 79, 82
1, 147812, Note_on_c, 0, 44, 0
1, 147836, Note_on_c, 0, 79, 0
1, 147856, Note_on_c, 0, 68, 0
1, 147868, Note_on_c, 0, 53, 0
1, 147924, Note_on_c, 0, 79, 65
1, 147928, Note_on_c, 0, 68, 58
1, 148044, Note_on_c, 0, 79, 0
1, 148080, Note_on_c, 0, 68, 0
1, 148100, Control_c, 0, 64, 0
1, 148144, Note_on_c, 0, 55, 54
1, 148148, Note_on_c, 0, 45, 50
1, 148160, Note_on_c, 0, 79, 63
1, 148228, Control_c, 0, 64, 127
1, 148316, Note_on_c, 0, 45, 0
1, 148324, Note_on_c, 0, 79, 0
1, 148380, Note_on_c, 0, 69, 51
1, 148388, Note_on_c, 0, 55, 0
1, 148420, Note_on_c, 0, 69, 0
1, 148612, Note_on_c, 0, 84, 83
1, 148780, Note_on_c, 0, 55, 54
1, 148784, Note_on_c, 0, 64, 54
1, 148796, Note_on_c, 0, 60, 50
1, 148804, Note_on_c, 0, 57, 40
1, 148856, Note_on_c, 0, 64, 0
1, 148872, Note_on_c, 0, 57, 0
1, 148876, Note_on_c, 0, 60, 0
1, 148896, Note_on_c, 0, 55, 0
1, 149016, Note_on_c, 0, 79, 59
1, 149060, Note_on_c, 0, 84, 0
1, 149144, Note_on_c, 0, 79, 0
1, 149232, Note_on_c, 0, 82, 81
1, 149400, Control_c, 0, 64, 0
1, 149416, Note_on_c, 0, 82, 0
1, 149436, Note_on_c, 0, 38, 57
1, 149460, Note_on_c, 0, 83, 68
1, 149520, Control_c, 0, 64, 127
1, 149560, Note_on_c, 0, 38, 0
1, 149628, Note_on_c, 0, 83, 0
1, 149668, Note_on_c, 0, 76, 58
1, 149772, Note_on_c, 0, 76, 0
1, 149896, Note_on_c, 0, 88, 111
1, 150100, Note_on_c, 0, 64, 57
1, 150104, Note_on_c, 0, 60, 56
1, 150108, Note_on_c, 0, 54, 50
1, 150168, Note_on_c, 0, 88, 0
1, 150344, Note_on_c, 0, 64, 0
1, 150452, Note_on_c, 0, 60, 0
1, 150792, Note_on_c, 0, 65, 57
1, 150792, Note_on_c, 0, 74, 67
1, 150796, Note_on_c, 0, 69, 60
1, 150800, Note_on_c, 0, 64, 62
1, 150808, Note_on_c, 0, 54, 0
1, 150824, Control_c, 0, 64, 72
1, 150828, Control_c, 0, 64, 0
1, 150852, Note_on_c, 0, 65, 0
1, 150876, Note_on_c, 0, 69, 0
1, 150884, Note_on_c, 0, 74, 0
1, 150956, Note_on_c, 0, 64, 0
1, 150988, Note_on_c, 0, 63, 49
1, 151128, Note_on_c, 0, 63, 0
1, 151184, Note_on_c, 0, 76, 74
1, 151188, Note_on_c, 0, 69, 66
1, 151192, Note_on_c, 0, 65, 59
1, 151196, Note_on_c, 0, 62, 49
1, 151304, Control_c, 0, 64, 127
1, 151368, Note_on_c, 0, 62, 0
1, 151400, Note_on_c, 0, 65, 0
1, 151404, Note_on_c, 0, 69, 0
1, 151412, Note_on_c, 0, 76, 0
1, 151412, Note_on_c, 0, 61, 49
1, 151516, Control_c, 0, 64, 0
1, 151596, Note_on_c, 0, 77, 76
1, 151600, Note_on_c, 0, 69, 66
1, 151604, Note_on_c, 0, 72, 54
1, 151608, Control_c, 0, 64, 127
1, 151612, Note_on_c, 0, 65, 57
1, 151620, Note_on_c, 0, 61, 0
1, 151712, Note_on_c, 0, 65, 0
1, 151716, Note_on_c, 0, 69, 0
1, 151744, Note_on_c, 0, 77, 0
1, 151748, Note_on_c, 0, 72, 0
1, 151820, Note_on_c, 0, 79, 67
1, 151892, Note_on_c, 0, 79, 0
1, 152008, Control_c, 0, 64, 0
1, 152052, Note_on_c, 0, 59, 56
1, 152060, Note_on_c, 0, 80, 57
1, 152064, Note_on_c, 0, 74, 46
1, 152108, Note_on_c, 0, 59, 0
1, 152116, Control_c, 0, 64, 127
1, 152160, Note_on_c, 0, 74, 0
1, 152164, Note_on_c, 0, 80, 0
1, 152292, Note_on_c, 0, 43, 55
1, 152696, Note_on_c, 0, 68, 60
1, 152704, Note_on_c, 0, 59, 57
1, 152716, Note_on_c, 0, 63, 52
1, 152724, Note_on_c, 0, 53, 49
1, 152724, Note_on_c, 0, 65, 47
1, 152804, Note_on_c, 0, 43, 0
1, 152812, Note_on_c, 0, 53, 0
1, 153092, Note_on_c, 0, 59, 0
1, 153112, Note_on_c, 0, 65, 0
1, 153140, Note_on_c, 0, 43, 35
1, 153148, Note_on_c, 0, 68, 0
1, 153240, Note_on_c, 0, 63, 0
1, 153360, Control_c, 0, 64, 0
1, 153368, Note_on_c, 0, 36, 40
1, 153392, Note_on_c, 0, 57, 57
1, 153392, Note_on_c, 0, 62, 55
1, 153396, Note_on_c, 0, 67, 56
1, 153400, Note_on_c, 0, 64, 47
1, 153404, Note_on_c, 0, 52, 39
1, 153408, Note_on_c, 0, 66, 34
1, 153520, Control_c, 0, 64, 127
1, 153612, Note_on_c, 0, 52, 0
1, 153672, Note_on_c, 0, 57, 0
1, 153680, Note_on_c, 0, 36, 0
1, 153724, Note_on_c, 0, 43, 0
1, 153736, Note_on_c, 0, 66, 0
1, 153760, Note_on_c, 0, 62, 0
1, 153760, Note_on_c, 0, 67, 0
1, 153776, Note_on_c, 0, 64, 0
1, 154080, Note_on_c, 0, 72, 75
1, 154080, Note_on_c, 0, 60, 66
1, 154080, Note_on_c, 0, 65, 77
1, 154080, Note_on_c, 0, 69, 74
1, 154084, Control_c, 0, 64, 0
1, 154100, Note_on_c, 0, 57, 63
1, 154168, Control_c, 0, 64, 127
1, 154280, Note_on_c, 0, 60, 0
1, 154304, Note_on_c, 0, 57, 0
1, 154348, Note_on_c, 0, 72, 0
1, 154356, Note_on_c, 0, 69, 0
1, 154368, Note_on_c, 0, 65, 0
1, 154744, Note_on_c, 0, 66, 56
1, 154748, Control_c, 0, 64, 0
1, 154752, Note_on_c, 0, 71, 61
1, 154756, Note_on_c, 0, 60, 57
1, 154768, Note_on_c, 0, 57, 44
1, 154772, Note_on_c, 0, 64, 49
1, 154776, Note_on_c, 0, 47, 52
1, 154948, Control_c, 0, 64, 127
1, 155096, Note_on_c, 0, 57, 0
1, 155144, Note_on_c, 0, 60, 0
1, 155164, Note_on_c, 0, 64, 0
1, 155220, Note_on_c, 0, 66, 0
1, 155392, Note_on_c, 0, 71, 0
1, 155448, Note_on_c, 0, 66, 51
1, 155452, Note_on_c, 0, 59, 48
1, 155452, Note_on_c, 0, 63, 48
1, 155456, Note_on_c, 0, 57, 40
1, 155464, Note_on_c, 0, 71, 6
1, 155468, Note_on_c, 0, 54, 34
1, 155704, Note_on_c, 0, 71, 0
1, 155808, Note_on_c, 0, 59, 0
1, 155888, Note_on_c, 0, 66, 0
1, 155936, Note_on_c, 0, 63, 0
1, 156124, Note_on_c, 0, 57, 0
1, 156124, Note_on_c, 0, 68, 63
1, 156136, Note_on_c, 0, 63, 57
1, 156140, Note_on_c, 0, 59, 45
1, 156144, Control_c, 0, 64, 0
1, 156164, Note_on_c, 0, 47, 0
1, 156200, Note_on_c, 0, 54, 0
1, 156200, Control_c, 0, 64, 127
1, 156400, Note_on_c, 0, 59, 0
1, 156540, Note_on_c, 0, 58, 83
1, 156592, Note_on_c, 0, 68, 0
1, 156648, Note_on_c, 0, 63, 0
1, 156788, Control_c, 0, 64, 0
1, 156796, Note_on_c, 0, 68, 81
1, 156804, Note_on_c, 0, 58, 0
1, 156804, Note_on_c, 0, 63, 85
1, 156812, Note_on_c, 0, 59, 72
1, 156904, Control_c, 0, 64, 127
1, 157156, Note_on_c, 0, 59, 0
1, 157232, Note_on_c, 0, 51, 67
1, 157396, Note_on_c, 0, 63, 0
1, 157432, Note_on_c, 0, 51, 0
1, 157476, Control_c, 0, 64, 0
1, 157480, Note_on_c, 0, 59, 62
1, 157488, Note_on_c, 0, 64, 65
1, 157496, Note_on_c, 0, 52, 46
1, 157500, Note_on_c, 0, 63, 39
1, 157552, Note_on_c, 0, 63, 0
1, 157612, Control_c, 0, 64, 127
1, 157840, Note_on_c, 0, 52, 0
1, 157912, Note_on_c, 0, 64, 0
1, 157928, Note_on_c, 0, 59, 0
1, 158148, Note_on_c, 0, 68, 0
1, 158172, Note_on_c, 0, 64, 58
1, 158176, Note_on_c, 0, 59, 60
1, 158280, Note_on_c, 0, 68, 4
1, 158480, Note_on_c, 0, 68, 0
1, 158484, Note_on_c, 0, 59, 0
1, 158540, Note_on_c, 0, 64, 0
1, 158588, Note_on_c, 0, 52, 46
1, 158688, Note_on_c, 0, 52, 0
1, 158800, Control_c, 0, 64, 0
1, 158848, Note_on_c, 0, 64, 56
1, 158856, Note_on_c, 0, 71, 38
1, 158860, Note_on_c, 0, 42, 45
1, 158864, Note_on_c, 0, 57, 46
1, 158864, Note_on_c, 0, 52, 43
1, 158940, Control_c, 0, 64, 127
1, 158956, Note_on_c, 0, 57, 0
1, 159008, Note_on_c, 0, 64, 0
1, 159024, Note_on_c, 0, 42, 0
1, 159044, Note_on_c, 0, 71, 0
1, 159052, Note_on_c, 0, 52, 0
1, 159264, Note_on_c, 0, 83, 69
1, 159280, Note_on_c, 0, 76, 63
1, 159348, Note_on_c, 0, 76, 0
1, 159376, Note_on_c, 0, 83, 0
1, 159520, Note_on_c, 0, 64, 47
1, 159528, Note_on_c, 0, 54, 41
1, 159528, Note_on_c, 0, 83, 68
1, 159536, Note_on_c, 0, 60, 41
1, 159536, Note_on_c, 0, 76, 54
1, 159588, Note_on_c, 0, 64, 0
1, 159620, Note_on_c, 0, 60, 0
1, 159664, Note_on_c, 0, 76, 0
1, 159672, Note_on_c, 0, 54, 0
1, 159672, Note_on_c, 0, 83, 0
1, 159732, Note_on_c, 0, 81, 59
1, 159868, Note_on_c, 0, 81, 0
1, 160220, Note_on_c, 0, 83, 77
1, 160220, Control_c, 0, 64, 0
1, 160224, Note_on_c, 0, 74, 68
1, 160228, Note_on_c, 0, 57, 52
1, 160232, Note_on_c, 0, 79, 62
1, 160232, Note_on_c, 0, 47, 52
1, 160352, Note_on_c, 0, 74, 0
1, 160372, Note_on_c, 0, 83, 0
1, 160384, Note_on_c, 0, 79, 0
1, 160400, Control_c, 0, 64, 127
1, 160436, Note_on_c, 0, 83, 63
1, 160444, Note_on_c, 0, 74, 34
1, 160444, Note_on_c, 0, 79, 64
1, 160532, Note_on_c, 0, 74, 0
1, 160576, Note_on_c, 0, 83, 0
1, 160580, Note_on_c, 0, 79, 0
1, 160644, Note_on_c, 0, 81, 63
1, 160648, Note_on_c, 0, 72, 53
1, 160652, Note_on_c, 0, 77, 60
1, 160720, Note_on_c, 0, 57, 0
1, 160760, Note_on_c, 0, 72, 0
1, 160808, Note_on_c, 0, 77, 0
1, 160812, Note_on_c, 0, 81, 0
1, 160868, Note_on_c, 0, 57, 68
1, 160872, Note_on_c, 0, 83, 85
1, 160876, Note_on_c, 0, 74, 88
1, 160880, Note_on_c, 0, 79, 81
1, 161012, Note_on_c, 0, 83, 0
1, 161016, Note_on_c, 0, 74, 0
1, 161044, Note_on_c, 0, 79, 0
1, 161084, Note_on_c, 0, 83, 68
1, 161104, Note_on_c, 0, 74, 56
1, 161104, Note_on_c, 0, 79, 78
1, 161176, Note_on_c, 0, 74, 0
1, 161188, Note_on_c, 0, 47, 0
1, 161240, Note_on_c, 0, 79, 0
1, 161260, Note_on_c, 0, 83, 0
1, 161304, Note_on_c, 0, 47, 72
1, 161308, Note_on_c, 0, 81, 83
1, 161316, Note_on_c, 0, 77, 86
1, 161316, Note_on_c, 0, 72, 78
1, 161352, Control_c, 0, 64, 0
1, 161480, Control_c, 0, 64, 127
1, 161524, Note_on_c, 0, 81, 0
1, 161528, Note_on_c, 0, 77, 0
1, 161548, Note_on_c, 0, 57, 0
1, 161552, Note_on_c, 0, 72, 0
1, 161580, Note_on_c, 0, 47, 0
1, 161920, Note_on_c, 0, 61, 74
1, 161928, Note_on_c, 0, 54, 83
1, 161932, Note_on_c, 0, 59, 72
1, 161932, Note_on_c, 0, 44, 76
1, 161940, Control_c, 0, 64, 0
1, 162076, Control_c, 0, 64, 127
1, 162248, Note_on_c, 0, 54, 0
1, 162248, Note_on_c, 0, 44, 0
1, 162252, Note_on_c, 0, 61, 0
1, 162272, Note_on_c, 0, 59, 0
1, 162436, Note_on_c, 0, 44, 72
1, 162436, Note_on_c, 0, 61, 66
1, 162440, Note_on_c, 0, 54, 73
1, 162448, Note_on_c, 0, 59, 63
1, 162516, Note_on_c, 0, 44, 0
1, 162528, Note_on_c, 0, 54, 0
1, 162552, Note_on_c, 0, 61, 0
1, 162572, Note_on_c, 0, 59, 0
1, 162576, Control_c, 0, 64, 0
1, 162628, Control_c, 0, 64, 127
1, 162644, Note_on_c, 0, 61, 61
1, 162648, Note_on_c, 0, 44, 68
1, 162648, Note_on_c, 0, 54, 67
1, 162724, Note_on_c, 0, 54, 0
1, 162764, Note_on_c, 0, 61, 0
1, 162768, Note_on_c, 0, 44, 0
1, 162840, Control_c, 0, 64, 0
1, 162868, Note_on_c, 0, 64, 68
1, 162876, Note_on_c, 0, 58, 66
1, 162876, Note_on_c, 0, 61, 58
1, 162880, Note_on_c, 0, 43, 66
1, 162884, Note_on_c, 0, 52, 56
1, 162980, Note_on_c, 0, 52, 0
1, 163000, Control_c, 0, 64, 127
1, 163060, Note_on_c, 0, 58, 0
1, 163076, Note_on_c, 0, 61, 0
1, 163092, Note_on_c, 0, 64, 0
1, 163092, Note_on_c, 0, 31, 68
1, 163120, Note_on_c, 0, 31, 0
1, 163148, Note_on_c, 0, 43, 0
1, 163348, Note_on_c, 0, 75, 94
1, 163352, Note_on_c, 0, 70, 88
1, 163352, Note_on_c, 0, 67, 85
1, 163352, Note_on_c, 0, 63, 87
1, 163364, Note_on_c, 0, 64, 78
1, 163368, Note_on_c, 0, 62, 63
1, 163376, Control_c, 0, 64, 0
1, 163392, Note_on_c, 0, 62, 0
1, 163460, Control_c, 0, 64, 127
1, 163696, Note_on_c, 0, 63, 0
1, 163708, Note_on_c, 0, 67, 0
1, 163716, Note_on_c, 0, 64, 0
1, 163720, Note_on_c, 0, 70, 0
1, 163768, Note_on_c, 0, 75, 0
1, 163812, Note_on_c, 0, 73, 74
1, 163812, Note_on_c, 0, 61, 73
1, 163812, Note_on_c, 0, 70, 75
1, 163816, Note_on_c, 0, 64, 72
1, 163824, Note_on_c, 0, 67, 72
1, 163836, Note_on_c, 0, 75, 38
1, 163876, Note_on_c, 0, 75, 0
1, 163912, Note_on_c, 0, 61, 0
1, 163952, Note_on_c, 0, 67, 0
1, 163964, Note_on_c, 0, 73, 0
1, 163976, Note_on_c, 0, 70, 0
1, 163984, Note_on_c, 0, 64, 0
1, 164208, Control_c, 0, 64, 0
1, 164236, Note_on_c, 0, 69, 66
1, 164244, Note_on_c, 0, 64, 72
1, 164244, Note_on_c, 0, 42, 56
1, 164252, Note_on_c, 0, 52, 60
1, 164256, Note_on_c, 0, 57, 57
1, 164260, Note_on_c, 0, 67, 49
1, 164264, Note_on_c, 0, 66, 31
1, 164312, Note_on_c, 0, 67, 0
1, 164324, Control_c, 0, 64, 127
1, 164340, Note_on_c, 0, 42, 0
1, 164368, Note_on_c, 0, 66, 0
1, 164372, Note_on_c, 0, 57, 0
1, 164392, Note_on_c, 0, 52, 0
1, 164416, Note_on_c, 0, 64, 0
1, 164448, Note_on_c, 0, 69, 0
1, 164900, Note_on_c, 0, 81, 82
1, 164904, Note_on_c, 0, 73, 81
1, 164908, Note_on_c, 0, 76, 80
1, 164912, Note_on_c, 0, 61, 60
1, 164912, Note_on_c, 0, 69, 76
1, 164916, Note_on_c, 0, 54, 57
1, 164920, Note_on_c, 0, 64, 66
1, 164932, Note_on_c, 0, 57, 55
1, 164940, Note_on_c, 0, 79, 39
1, 165012, Note_on_c, 0, 64, 0
1, 165048, Note_on_c, 0, 57, 0
1, 165068, Note_on_c, 0, 61, 0
1, 165096, Note_on_c, 0, 81, 0
1, 165120, Note_on_c, 0, 54, 0
1, 165120, Note_on_c, 0, 79, 0
1, 165124, Note_on_c, 0, 76, 0
1, 165144, Note_on_c, 0, 69, 0
1, 165160, Note_on_c, 0, 73, 0
1, 165484, Note_on_c, 0, 47, 65
1, 165528, Note_on_c, 0, 51, 52
1, 165568, Note_on_c, 0, 71, 111
1, 165576, Control_c, 0, 64, 0
1, 165588, Note_on_c, 0, 67, 85
1, 165592, Note_on_c, 0, 57, 81
1, 165592, Note_on_c, 0, 70, 54
1, 165604, Note_on_c, 0, 62, 75
1, 165620, Note_on_c, 0, 70, 0
1, 165780, Control_c, 0, 64, 127
1, 165808, Note_on_c, 0, 51, 0
1, 165872, Note_on_c, 0, 62, 0
1, 165904, Note_on_c, 0, 67, 0
1, 165912, Note_on_c, 0, 57, 0
1, 165920, Note_on_c, 0, 71, 0
1, 165932, Note_on_c, 0, 51, 61
1, 165940, Note_on_c, 0, 69, 60
1, 165948, Note_on_c, 0, 65, 76
1, 165952, Note_on_c, 0, 60, 74
1, 166088, Note_on_c, 0, 65, 0
1, 166096, Note_on_c, 0, 69, 0
1, 166124, Note_on_c, 0, 60, 0
1, 166300, Note_on_c, 0, 64, 43
1, 166304, Note_on_c, 0, 59, 60
1, 166312, Note_on_c, 0, 57, 62
1, 166392, Note_on_c, 0, 47, 0
1, 166456, Note_on_c, 0, 57, 0
1, 166468, Note_on_c, 0, 66, 11
1, 166496, Note_on_c, 0, 59, 0
1, 166540, Note_on_c, 0, 64, 0
1, 166608, Note_on_c, 0, 66, 0
1, 166656, Note_on_c, 0, 47, 59
1, 166728, Note_on_c, 0, 51, 0
1, 166764, Note_on_c, 0, 47, 0
1, 166992, Control_c, 0, 64, 24
1, 166996, Control_c, 0, 64, 0
1, 167024, Note_on_c, 0, 56, 66
1, 167028, Note_on_c, 0, 40, 53
1, 167036, Note_on_c, 0, 52, 49
1, 167232, Control_c, 0, 64, 127
1, 167340, Note_on_c, 0, 56, 0
1, 167344, Note_on_c, 0, 52, 0
1, 167364, Note_on_c, 0, 40, 0
1, 167372, Note_on_c, 0, 47, 54
1, 167736, Note_on_c, 0, 56, 54
1, 167740, Note_on_c, 0, 68, 61
1, 167740, Note_on_c, 0, 59, 66
1, 167748, Note_on_c, 0, 64, 57
1, 167848, Note_on_c, 0, 47, 0
1, 167888, Note_on_c, 0, 68, 0
1, 167912, Note_on_c, 0, 64, 0
1, 167940, Note_on_c, 0, 56, 0
1, 167996, Note_on_c, 0, 59, 0
1, 168080, Note_on_c, 0, 70, 80
1, 168252, Note_on_c, 0, 70, 0
1, 168428, Control_c, 0, 64, 0
1, 168432, Note_on_c, 0, 71, 61
1, 168436, Note_on_c, 0, 64, 60
1, 168436, Note_on_c, 0, 49, 56
1, 168440, Note_on_c, 0, 59, 49
1, 168452, Note_on_c, 0, 68, 43
1, 168620, Control_c, 0, 64, 127
1, 168780, Note_on_c, 0, 59, 0
1, 168784, Note_on_c, 0, 55, 50
1, 168808, Note_on_c, 0, 64, 0
1, 168940, Note_on_c, 0, 68, 0
1, 169116, Note_on_c, 0, 59, 54
1, 169116, Note_on_c, 0, 64, 56
1, 169236, Note_on_c, 0, 55, 0
1, 169416, Note_on_c, 0, 49, 0
1, 169452, Note_on_c, 0, 59, 0
1, 169460, Note_on_c, 0, 71, 0
1, 169476, Note_on_c, 0, 49, 38
1, 169484, Note_on_c, 0, 55, 51
1, 169488, Note_on_c, 0, 64, 0
1, 169512, Note_on_c, 0, 55, 0
1, 169568, Note_on_c, 0, 49, 0
1, 169836, Note_on_c, 0, 71, 57
1, 169840, Note_on_c, 0, 57, 55
1, 169840, Control_c, 0, 64, 0
1, 169844, Note_on_c, 0, 64, 54
1, 169852, Note_on_c, 0, 42, 46
1, 169856, Note_on_c, 0, 52, 46
1, 170000, Note_on_c, 0, 71, 0
1, 170004, Note_on_c, 0, 57, 0
1, 170008, Note_on_c, 0, 64, 0
1, 170012, Note_on_c, 0, 52, 0
1, 170028, Note_on_c, 0, 42, 0
1, 170204, Note_on_c, 0, 71, 58
1, 170204, Note_on_c, 0, 64, 52
1, 170212, Note_on_c, 0, 42, 47
1, 170216, Note_on_c, 0, 57, 42
1, 170228, Note_on_c, 0, 52, 40
1, 170448, Note_on_c, 0, 57, 0
1, 170456, Note_on_c, 0, 71, 0
1, 170468, Note_on_c, 0, 64, 0
1, 170468, Note_on_c, 0, 52, 0
1, 170480, Note_on_c, 0, 42, 0
1, 170580, Control_c, 0, 64, 127
1, 170700, Control_c, 0, 64, 0
1, 170856, Control_c, 0, 64, 127
1, 170872, Note_on_c, 0, 71, 48
1, 170876, Note_on_c, 0, 64, 56
1, 170876, Note_on_c, 0, 42, 47
1, 170880, Note_on_c, 0, 57, 47
1, 170908, Note_on_c, 0, 52, 39
1, 171012, Control_c, 0, 64, 0
1, 171048, Note_on_c, 0, 52, 0
1, 171052, Note_on_c, 0, 57, 0
1, 171060, Note_on_c, 0, 64, 0
1, 171072, Note_on_c, 0, 71, 0
1, 171104, Note_on_c, 0, 42, 0
1, 171236, Note_on_c, 0, 71, 54
1, 171240, Note_on_c, 0, 64, 56
1, 171244, Note_on_c, 0, 42, 45
1, 171248, Note_on_c, 0, 57, 45
1, 171264, Note_on_c, 0, 52, 42
1, 171376, Note_on_c, 0, 42, 0
1, 171380, Note_on_c, 0, 57, 0
1, 171424, Note_on_c, 0, 71, 0
1, 171424, Note_on_c, 0, 52, 0
1, 171496, Note_on_c, 0, 64, 0
1, 171500, Control_c, 0, 64, 127
1, 171568, Control_c, 0, 64, 0
1, 171576, Control_c, 0, 64, 127
1, 171664, Control_c, 0, 64, 0
1, 171932, Note_on_c, 0, 71, 54
1, 171936, Note_on_c, 0, 47, 49
1, 171940, Note_on_c, 0, 62, 51
1, 171940, Note_on_c, 0, 67, 49
1, 171940, Note_on_c, 0, 57, 45
1, 172116, Note_on_c, 0, 47, 0
1, 172124, Note_on_c, 0, 57, 0
1, 172128, Note_on_c, 0, 71, 0
1, 172128, Note_on_c, 0, 62, 0
1, 172140, Note_on_c, 0, 67, 0
1, 172280, Note_on_c, 0, 71, 59
1, 172284, Note_on_c, 0, 67, 57
1, 172284, Note_on_c, 0, 62, 57
1, 172288, Note_on_c, 0, 57, 56
1, 172300, Note_on_c, 0, 47, 44
1, 172340, Note_on_c, 0, 47, 0
1, 172356, Note_on_c, 0, 62, 0
1, 172372, Note_on_c, 0, 57, 0
1, 172384, Control_c, 0, 64, 127
1, 172392, Note_on_c, 0, 67, 0
1, 172408, Note_on_c, 0, 71, 0
1, 172564, Control_c, 0, 64, 0
1, 172632, Note_on_c, 0, 76, 79
1, 172632, Note_on_c, 0, 72, 77
1, 172632, Note_on_c, 0, 67, 75
1, 172636, Note_on_c, 0, 56, 62
1, 172648, Note_on_c, 0, 62, 60
1, 172716, Control_c, 0, 64, 127
1, 172836, Note_on_c, 0, 56, 0
1, 172848, Note_on_c, 0, 67, 0
1, 172868, Note_on_c, 0, 76, 0
1, 172868, Note_on_c, 0, 72, 0
1, 172892, Note_on_c, 0, 62, 0
1, 172980, Note_on_c, 0, 56, 61
1, 172992, Note_on_c, 0, 76, 74
1, 173000, Note_on_c, 0, 72, 63
1, 173000, Note_on_c, 0, 67, 66
1, 173032, Note_on_c, 0, 72, 0
1, 173052, Note_on_c, 0, 76, 0
1, 173052, Note_on_c, 0, 67, 0
1, 173080, Note_on_c, 0, 56, 0
1, 173724, Control_c, 0, 64, 0
1, 173724, Note_on_c, 0, 56, 64
1, 173736, Note_on_c, 0, 28, 43
1, 173736, Note_on_c, 0, 60, 58
1, 173740, Note_on_c, 0, 64, 49
1, 173764, Control_c, 0, 64, 127
1, 173768, Note_on_c, 0, 28, 0
1, 173852, Note_on_c, 0, 60, 0
1, 173900, Note_on_c, 0, 56, 0
1, 173924, Note_on_c, 0, 64, 0
1, 174056, Control_c, 0, 64, 0
1, 174104, Note_on_c, 0, 61, 58
1, 174104, Note_on_c, 0, 55, 61
1, 174108, Note_on_c, 0, 64, 52
1, 174108, Note_on_c, 0, 33, 46
1, 174108, Note_on_c, 0, 45, 48
1, 174172, Control_c, 0, 64, 127
1, 174196, Note_on_c, 0, 33, 0
1, 174204, Note_on_c, 0, 55, 0
1, 174264, Note_on_c, 0, 45, 0
1, 174288, Note_on_c, 0, 61, 0
1, 174316, Note_on_c, 0, 64, 0
1, 174820, Note_on_c, 0, 64, 54
1, 174824, Note_on_c, 0, 55, 54
1, 174824, Note_on_c, 0, 61, 54
1, 175020, Note_on_c, 0, 64, 0
1, 175060, Note_on_c, 0, 61, 0
1, 175092, Note_on_c, 0, 55, 0
1, 175900, Control_c, 0, 64, 0
1, 175904, Note_on_c, 0, 79, 84
1, 175904, Note_on_c, 0, 59, 70
1, 175908, Note_on_c, 0, 64, 78
1, 175908, Note_on_c, 0, 74, 81
1, 175908, Note_on_c, 0, 67, 75
1, 175908, Note_on_c, 0, 53, 72
1, 175928, Note_on_c, 0, 75, 45
1, 175960, Note_on_c, 0, 75, 0
1, 176096, Control_c, 0, 64, 127
1, 176256, Note_on_c, 0, 67, 0
1, 176276, Note_on_c, 0, 53, 0
1, 176284, Note_on_c, 0, 79, 0
1, 176288, Note_on_c, 0, 59, 0
1, 176288, Note_on_c, 0, 74, 0
1, 176320, Note_on_c, 0, 64, 0
1, 176432, Control_c, 0, 64, 0
1, 176460, Note_on_c, 0, 54, 80
1, 176460, Note_on_c, 0, 80, 90
1, 176460, Note_on_c, 0, 65, 86
1, 176460, Note_on_c, 0, 68, 88
1, 176460, Note_on_c, 0, 75, 90
1, 176468, Note_on_c, 0, 60, 72
1, 176560, Control_c, 0, 64, 127
1, 176704, Note_on_c, 0, 65, 0
1, 176712, Note_on_c, 0, 54, 0
1, 176716, Note_on_c, 0, 60, 0
1, 176752, Note_on_c, 0, 68, 0
1, 176756, Note_on_c, 0, 80, 0
1, 176760, Note_on_c, 0, 75, 0
1, 176932, Control_c, 0, 64, 0
1, 176960, Note_on_c, 0, 76, 96
1, 176968, Note_on_c, 0, 81, 88
1, 176968, Note_on_c, 0, 69, 87
1, 176968, Note_on_c, 0, 61, 70
1, 176968, Note_on_c, 0, 55, 78
1, 176976, Note_on_c, 0, 66, 87
1, 177068, Control_c, 0, 64, 127
1, 177304, Note_on_c, 0, 55, 0
1, 177336, Note_on_c, 0, 61, 0
1, 177340, Note_on_c, 0, 66, 0
1, 177364, Note_on_c, 0, 69, 0
1, 177392, Note_on_c, 0, 81, 0
1, 177408, Note_on_c, 0, 76, 0
1, 177992, Control_c, 0, 64, 0
1, 178036, Note_on_c, 0, 61, 57
1, 178036, Note_on_c, 0, 82, 75
1, 178044, Note_on_c, 0, 65, 68
1, 178048, Control_c, 0, 64, 127
1, 178052, Note_on_c, 0, 70, 63
1, 178052, Note_on_c, 0, 77, 67
1, 178056, Note_on_c, 0, 60, 50
1, 178076, Note_on_c, 0, 65, 0
1, 178088, Note_on_c, 0, 60, 0
1, 178128, Note_on_c, 0, 61, 0
1, 178152, Note_on_c, 0, 77, 0
1, 178184, Note_on_c, 0, 70, 0
1, 178208, Note_on_c, 0, 82, 0
1, 178360, Control_c, 0, 64, 0
1, 178400, Note_on_c, 0, 83, 62
1, 178404, Note_on_c, 0, 71, 50
1, 178412, Note_on_c, 0, 76, 63
1, 178412, Note_on_c, 0, 38, 58
1, 178412, Note_on_c, 0, 80, 47
1, 178428, Note_on_c, 0, 50, 26
1, 178480, Control_c, 0, 64, 127
1, 178500, Note_on_c, 0, 38, 0
1, 178560, Note_on_c, 0, 50, 0
1, 179008, Note_on_c, 0, 83, 0
1, 179052, Note_on_c, 0, 71, 0
1, 179076, Note_on_c, 0, 80, 0
1, 179076, Note_on_c, 0, 54, 42
1, 179084, Note_on_c, 0, 64, 36
1, 179088, Note_on_c, 0, 60, 45
1, 179120, Note_on_c, 0, 76, 0
1, 179124, Note_on_c, 0, 64, 0
1, 179124, Note_on_c, 0, 60, 0
1, 179176, Note_on_c, 0, 54, 0
1, 179544, Note_on_c, 0, 82, 67
1, 179548, Note_on_c, 0, 70, 52
1, 179644, Note_on_c, 0, 70, 0
1, 179648, Note_on_c, 0, 82, 0
1, 179760, Note_on_c, 0, 43, 52
1, 179768, Note_on_c, 0, 80, 49
1, 179776, Note_on_c, 0, 50, 44
1, 179776, Note_on_c, 0, 68, 57
1, 179784, Control_c, 0, 64, 0
1, 179812, Note_on_c, 0, 59, 32
1, 179856, Note_on_c, 0, 80, 0
1, 179884, Note_on_c, 0, 68, 0
1, 179896, Note_on_c, 0, 69, 49
1, 180000, Control_c, 0, 64, 127
1, 180004, Note_on_c, 0, 69, 0
1, 180016, Note_on_c, 0, 43, 0
1, 180020, Note_on_c, 0, 81, 50
1, 180044, Note_on_c, 0, 50, 0
1, 180052, Note_on_c, 0, 59, 0
1, 180084, Note_on_c, 0, 81, 0
1, 180096, Note_on_c, 0, 69, 42
1, 180184, Note_on_c, 0, 69, 0
1, 180196, Note_on_c, 0, 81, 52
1, 180268, Note_on_c, 0, 69, 45
1, 180272, Note_on_c, 0, 81, 0
1, 180352, Note_on_c, 0, 69, 0
1, 180372, Note_on_c, 0, 81, 46
1, 180432, Note_on_c, 0, 64, 45
1, 180440, Note_on_c, 0, 59, 56
1, 180448, Note_on_c, 0, 81, 0
1, 180456, Note_on_c, 0, 69, 36
1, 180464, Note_on_c, 0, 64, 0
1, 180472, Note_on_c, 0, 53, 33
1, 180492, Note_on_c, 0, 59, 0
1, 180520, Note_on_c, 0, 53, 0
1, 180572, Note_on_c, 0, 69, 0
1, 180576, Note_on_c, 0, 81, 44
1, 180700, Note_on_c, 0, 81, 0
1, 180720, Note_on_c, 0, 69, 40
1, 180792, Note_on_c, 0, 69, 0
1, 180860, Note_on_c, 0, 80, 65
1, 180876, Note_on_c, 0, 68, 61
1, 181028, Note_on_c, 0, 80, 0
1, 181052, Note_on_c, 0, 68, 0
1, 181068, Note_on_c, 0, 36, 40
1, 181072, Control_c, 0, 64, 0
1, 181088, Note_on_c, 0, 43, 39
1, 181096, Note_on_c, 0, 52, 48
1, 181116, Note_on_c, 0, 67, 57
1, 181120, Note_on_c, 0, 79, 58
1, 181208, Control_c, 0, 64, 127
1, 181244, Note_on_c, 0, 36, 0
1, 181252, Note_on_c, 0, 43, 0
1, 181312, Note_on_c, 0, 52, 0
1, 181332, Note_on_c, 0, 79, 0
1, 181404, Note_on_c, 0, 67, 0
1, 182240, Note_on_c, 0, 69, 72
1, 182332, Note_on_c, 0, 69, 0
1, 182564, Control_c, 0, 64, 0
1, 182656, Note_on_c, 0, 60, 60
1, 182660, Note_on_c, 0, 55, 50
1, 182664, Note_on_c, 0, 64, 52
1, 182672, Note_on_c, 0, 57, 51
1, 182888, Note_on_c, 0, 51, 62
1, 182976, Note_on_c, 0, 51, 0
1, 183112, Note_on_c, 0, 50, 60
1, 183256, Note_on_c, 0, 50, 0
1, 183332, Note_on_c, 0, 49, 57
1, 183500, Note_on_c, 0, 49, 0
1, 183552, Note_on_c, 0, 48, 52
1, 183572, Control_c, 0, 64, 127
1, 183656, Note_on_c, 0, 55, 0
1, 183676, Note_on_c, 0, 57, 0
1, 183692, Control_c, 0, 64, 0
1, 183716, Note_on_c, 0, 60, 0
1, 183720, Note_on_c, 0, 48, 0
1, 183740, Note_on_c, 0, 64, 0
1, 183768, Note_on_c, 0, 36, 57
1, 183796, Note_on_c, 0, 36, 0
1, 183804, Control_c, 0, 64, 127
1, 184012, Control_c, 0, 64, 0
1, 184020, Note_on_c, 0, 68, 63
1, 184024, Note_on_c, 0, 63, 58
1, 184028, Note_on_c, 0, 47, 63
1, 184028, Note_on_c, 0, 57, 56
1, 184028, Note_on_c, 0, 61, 56
1, 184180, Control_c, 0, 64, 127
1, 184528, Note_on_c, 0, 57, 0
1, 184564, Note_on_c, 0, 61, 0
1, 184568, Note_on_c, 0, 63, 0
1, 184708, Note_on_c, 0, 68, 0
1, 184728, Note_on_c, 0, 54, 48
1, 184732, Note_on_c, 0, 61, 48
1, 184736, Note_on_c, 0, 63, 43
1, 184740, Note_on_c, 0, 57, 49
1, 184828, Note_on_c, 0, 54, 0
1, 184880, Note_on_c, 0, 47, 0
1, 184984, Note_on_c, 0, 67, 77
1, 185208, Note_on_c, 0, 67, 0
1, 185232, Note_on_c, 0, 57, 0
1, 185288, Note_on_c, 0, 63, 0
1, 185336, Note_on_c, 0, 61, 0
1, 185432, Note_on_c, 0, 66, 62
1, 185440, Control_c, 0, 64, 0
1, 185448, Note_on_c, 0, 56, 50
1, 185452, Note_on_c, 0, 40, 50
1, 185452, Note_on_c, 0, 62, 57
1, 185464, Note_on_c, 0, 52, 46
1, 185700, Control_c, 0, 64, 127
1, 185732, Note_on_c, 0, 52, 0
1, 185744, Note_on_c, 0, 40, 0
1, 185776, Control_c, 0, 64, 0
1, 185800, Note_on_c, 0, 47, 84
1, 185880, Control_c, 0, 64, 127
1, 186012, Note_on_c, 0, 62, 0
1, 186020, Note_on_c, 0, 56, 0
1, 186056, Note_on_c, 0, 66, 0
1, 186144, Note_on_c, 0, 65, 66
1, 186148, Control_c, 0, 64, 0
1, 186156, Note_on_c, 0, 56, 60
1, 186164, Note_on_c, 0, 62, 62
1, 186444, Note_on_c, 0, 47, 0
1, 186476, Note_on_c, 0, 46, 84
1, 186532, Control_c, 0, 64, 127
1, 186612, Note_on_c, 0, 62, 0
1, 186652, Note_on_c, 0, 56, 0
1, 186736, Note_on_c, 0, 65, 0
1, 186804, Control_c, 0, 64, 0
1, 186808, Note_on_c, 0, 46, 0
1, 186832, Note_on_c, 0, 64, 75
1, 186832, Note_on_c, 0, 55, 75
1, 186832, Note_on_c, 0, 61, 65
1, 186832, Note_on_c, 0, 58, 63
1, 186848, Note_on_c, 0, 45, 71
1, 186948, Control_c, 0, 64, 56
1, 186952, Control_c, 0, 64, 127
1, 187216, Note_on_c, 0, 64, 0
1, 187252, Note_on_c, 0, 55, 0
1, 187324, Note_on_c, 0, 61, 0
1, 187328, Note_on_c, 0, 58, 0
1, 187368, Note_on_c, 0, 45, 0
1, 187556, Control_c, 0, 64, 0
1, 187564, Note_on_c, 0, 65, 68
1, 187568, Note_on_c, 0, 39, 55
1, 187572, Note_on_c, 0, 58, 57
1, 187572, Note_on_c, 0, 55, 59
1, 187572, Note_on_c, 0, 61, 54
1, 187716, Control_c, 0, 64, 127
1, 187784, Note_on_c, 0, 65, 0
1, 187864, Note_on_c, 0, 39, 0
1, 187892, Note_on_c, 0, 55, 0
1, 187920, Note_on_c, 0, 61, 0
1, 187988, Note_on_c, 0, 58, 0
1, 188028, Note_on_c, 0, 45, 34
1, 188084, Note_on_c, 0, 45, 0
1, 188196, Control_c, 0, 64, 0
1, 188264, Note_on_c, 0, 53, 54
1, 188268, Note_on_c, 0, 38, 54
1, 188276, Note_on_c, 0, 62, 46
1, 188276, Note_on_c, 0, 57, 45
1, 188280, Note_on_c, 0, 50, 38
1, 188280, Note_on_c, 0, 60, 46
1, 188320, Control_c, 0, 64, 127
1, 188352, Note_on_c, 0, 38, 0
1, 188368, Note_on_c, 0, 53, 0
1, 188396, Note_on_c, 0, 50, 0
1, 188400, Note_on_c, 0, 57, 0
1, 188420, Note_on_c, 0, 60, 0
1, 188448, Note_on_c, 0, 62, 0
1, 188724, Control_c, 0, 64, 0
1, 188780, Note_on_c, 0, 72, 49
1, 188784, Note_on_c, 0, 65, 47
1, 188784, Note_on_c, 0, 74, 54
1, 188788, Note_on_c, 0, 62, 49
1, 188796, Note_on_c, 0, 69, 47
1, 188816, Control_c, 0, 64, 127
1, 188952, Note_on_c, 0, 74, 0
1, 188956, Note_on_c, 0, 69, 0
1, 188960, Note_on_c, 0, 65, 0
1, 188960, Note_on_c, 0, 62, 0
1, 188996, Control_c, 0, 64, 0
1, 189004, Note_on_c, 0, 72, 0
1, 189040, Note_on_c, 0, 74, 56
1, 189048, Note_on_c, 0, 62, 48
1, 189048, Note_on_c, 0, 65, 49
1, 189056, Note_on_c, 0, 69, 47
1, 189064, Control_c, 0, 64, 127
1, 189260, Note_on_c, 0, 65, 0
1, 189260, Note_on_c, 0, 69, 0
1, 189272, Note_on_c, 0, 74, 0
1, 189284, Note_on_c, 0, 62, 0
1, 189300, Note_on_c, 0, 60, 43
1, 189456, Note_on_c, 0, 60, 0
1, 189516, Note_on_c, 0, 74, 54
1, 189516, Note_on_c, 0, 69, 51
1, 189532, Note_on_c, 0, 65, 34
1, 189544, Note_on_c, 0, 74, 0
1, 189544, Note_on_c, 0, 69, 0
1, 189568, Note_on_c, 0, 65, 0
1, 189764, Control_c, 0, 64, 0
1, 189780, Note_on_c, 0, 79, 60
1, 189784, Note_on_c, 0, 50, 42
1, 189788, Note_on_c, 0, 65, 39
1, 189788, Note_on_c, 0, 72, 49
1, 189796, Note_on_c, 0, 62, 38
1, 189800, Note_on_c, 0, 57, 36
1, 189912, Note_on_c, 0, 65, 0
1, 189916, Note_on_c, 0, 79, 0
1, 189924, Note_on_c, 0, 72, 0
1, 189928, Note_on_c, 0, 50, 0
1, 189932, Note_on_c, 0, 62, 0
1, 189940, Note_on_c, 0, 57, 0
1, 190032, Note_on_c, 0, 79, 41
1, 190040, Note_on_c, 0, 62, 29
1, 190040, Note_on_c, 0, 65, 37
1, 190040, Note_on_c, 0, 72, 38
1, 190056, Note_on_c, 0, 57, 38
1, 190056, Note_on_c, 0, 50, 22
1, 190112, Note_on_c, 0, 62, 0
1, 190112, Note_on_c, 0, 65, 0
1, 190112, Note_on_c, 0, 50, 0
1, 190124, Note_on_c, 0, 72, 0
1, 190124, Note_on_c, 0, 57, 0
1, 190128, Note_on_c, 0, 79, 0
1, 190252, Control_c, 0, 64, 127
1, 190412, Control_c, 0, 64, 0
1, 190524, Control_c, 0, 64, 127
1, 190552, Note_on_c, 0, 62, 41
1, 190560, Note_on_c, 0, 57, 45
1, 190560, Note_on_c, 0, 50, 52
1, 190792, Note_on_c, 0, 79, 72
1, 190796, Note_on_c, 0, 72, 63
1, 190800, Note_on_c, 0, 65, 56
1, 190932, Note_on_c, 0, 50, 0
1, 190932, Note_on_c, 0, 79, 0
1, 190952, Note_on_c, 0, 57, 0
1, 190960, Note_on_c, 0, 65, 0
1, 190980, Note_on_c, 0, 72, 0
1, 191020, Note_on_c, 0, 62, 0
1, 191040, Note_on_c, 0, 79, 72
1, 191160, Note_on_c, 0, 79, 0
1, 191264, Control_c, 0, 64, 0
1, 191284, Note_on_c, 0, 79, 74
1, 191288, Note_on_c, 0, 71, 67
1, 191292, Note_on_c, 0, 67, 63
1, 191296, Note_on_c, 0, 62, 46
1, 191296, Note_on_c, 0, 56, 48
1, 191392, Control_c, 0, 64, 127
1, 191488, Note_on_c, 0, 74, 22
1, 191500, Note_on_c, 0, 79, 0
1, 191540, Note_on_c, 0, 74, 0
1, 191560, Note_on_c, 0, 71, 0
1, 191592, Note_on_c, 0, 67, 0
1, 191616, Note_on_c, 0, 62, 0
1, 192036, Note_on_c, 0, 59, 53
1, 192044, Note_on_c, 0, 65, 57
1, 192044, Note_on_c, 0, 62, 52
1, 192204, Note_on_c, 0, 62, 0
1, 192268, Note_on_c, 0, 65, 0
1, 192300, Note_on_c, 0, 59, 0
1, 192320, Note_on_c, 0, 71, 81
1, 192364, Note_on_c, 0, 56, 0
1, 192476, Note_on_c, 0, 71, 0
1, 192536, Note_on_c, 0, 74, 117
1, 192564, Note_on_c, 0, 73, 42
1, 192600, Note_on_c, 0, 73, 0
1, 192692, Note_on_c, 0, 74, 0
1, 192772, Control_c, 0, 64, 0
1, 192788, Note_on_c, 0, 72, 76
1, 192796, Note_on_c, 0, 45, 55
1, 192952, Control_c, 0, 64, 127
1, 192988, Note_on_c, 0, 72, 0
1, 193044, Note_on_c, 0, 45, 0
1, 193048, Note_on_c, 0, 60, 46
1, 193056, Note_on_c, 0, 52, 50
1, 193072, Note_on_c, 0, 64, 31
1, 193276, Note_on_c, 0, 59, 57
1, 193276, Note_on_c, 0, 71, 69
1, 193440, Note_on_c, 0, 59, 0
1, 193476, Note_on_c, 0, 60, 0
1, 193496, Note_on_c, 0, 71, 0
1, 193544, Note_on_c, 0, 69, 57
1, 193552, Note_on_c, 0, 60, 40
1, 193568, Note_on_c, 0, 57, 49
1, 193724, Note_on_c, 0, 57, 0
1, 193832, Note_on_c, 0, 52, 0
1, 193836, Note_on_c, 0, 64, 0
1, 193848, Note_on_c, 0, 45, 30
1, 193876, Note_on_c, 0, 69, 0
1, 193880, Note_on_c, 0, 60, 0
1, 193892, Note_on_c, 0, 45, 0
1, 194336, Note_on_c, 0, 52, 57
1, 194340, Note_on_c, 0, 26, 55
1, 194348, Control_c, 0, 64, 0
1, 194368, Note_on_c, 0, 56, 47
1, 194388, Note_on_c, 0, 38, 15
1, 194428, Note_on_c, 0, 52, 0
1, 194484, Control_c, 0, 64, 127
1, 194556, Note_on_c, 0, 26, 0
1, 194560, Note_on_c, 0, 56, 0
1, 194628, Note_on_c, 0, 38, 0
1, 195076, Note_on_c, 0, 60, 48
1, 195080, Note_on_c, 0, 64, 56
1, 195084, Note_on_c, 0, 68, 46
1, 195096, Note_on_c, 0, 54, 47
1, 195232, Note_on_c, 0, 54, 0
1, 195292, Note_on_c, 0, 71, 61
1, 195376, Note_on_c, 0, 68, 0
1, 195380, Note_on_c, 0, 60, 0
1, 195380, Note_on_c, 0, 71, 0
1, 195392, Note_on_c, 0, 64, 0
1, 195788, Note_on_c, 0, 62, 58
1, 195796, Note_on_c, 0, 57, 54
1, 195796, Control_c, 0, 64, 0
1, 195808, Note_on_c, 0, 50, 48
1, 195812, Note_on_c, 0, 53, 40
1, 195960, Control_c, 0, 64, 127
1, 196032, Note_on_c, 0, 57, 0
1, 196100, Note_on_c, 0, 53, 0
1, 196164, Note_on_c, 0, 62, 0
1, 196204, Control_c, 0, 64, 0
1, 196256, Note_on_c, 0, 49, 53
1, 196260, Note_on_c, 0, 50, 0
1, 196260, Note_on_c, 0, 53, 54
1, 196272, Note_on_c, 0, 61, 49
1, 196272, Note_on_c, 0, 64, 42
1, 196272, Control_c, 0, 64, 127
1, 196280, Note_on_c, 0, 57, 36
1, 196328, Note_on_c, 0, 57, 0
1, 196340, Note_on_c, 0, 53, 0
1, 196388, Note_on_c, 0, 64, 0
1, 196412, Note_on_c, 0, 61, 0
1, 196484, Control_c, 0, 64, 0
1, 196548, Note_on_c, 0, 57, 49
1, 196548, Note_on_c, 0, 50, 56
1, 196552, Note_on_c, 0, 49, 0
1, 196552, Note_on_c, 0, 60, 50
1, 196556, Note_on_c, 0, 65, 43
1, 196592, Control_c, 0, 64, 127
1, 196620, Note_on_c, 0, 57, 0
1, 196644, Note_on_c, 0, 60, 0
1, 196660, Note_on_c, 0, 65, 0
1, 196912, Note_on_c, 0, 50, 0
1, 197004, Note_on_c, 0, 67, 58
1, 197076, Note_on_c, 0, 67, 0
1, 197256, Control_c, 0, 64, 0
1, 197292, Note_on_c, 0, 68, 57
1, 197300, Note_on_c, 0, 59, 56
1, 197308, Note_on_c, 0, 43, 45
1, 197308, Note_on_c, 0, 53, 39
1, 197312, Note_on_c, 0, 65, 48
1, 197312, Note_on_c, 0, 63, 50
1, 197376, Control_c, 0, 64, 127
1, 197524, Note_on_c, 0, 43, 0
1, 197532, Note_on_c, 0, 53, 0
1, 197716, Note_on_c, 0, 59, 0
1, 197740, Note_on_c, 0, 65, 0
1, 197776, Note_on_c, 0, 68, 0
1, 197784, Note_on_c, 0, 63, 0
1, 198024, Note_on_c, 0, 41, 61
1, 198036, Control_c, 0, 64, 0
1, 198056, Note_on_c, 0, 57, 41
1, 198140, Control_c, 0, 64, 127
1, 198260, Note_on_c, 0, 41, 0
1, 198264, Note_on_c, 0, 62, 66
1, 198268, Note_on_c, 0, 67, 70
1, 198276, Note_on_c, 0, 57, 0
1, 198388, Note_on_c, 0, 62, 0
1, 198428, Note_on_c, 0, 67, 0
1, 198496, Note_on_c, 0, 71, 99
1, 198532, Note_on_c, 0, 70, 42
1, 198564, Note_on_c, 0, 70, 0
1, 198680, Note_on_c, 0, 71, 0
1, 198736, Control_c, 0, 64, 0
1, 198740, Note_on_c, 0, 40, 63
1, 198752, Note_on_c, 0, 55, 48
1, 198768, Note_on_c, 0, 62, 50
1, 198768, Note_on_c, 0, 67, 57
1, 198808, Note_on_c, 0, 67, 0
1, 198816, Note_on_c, 0, 62, 0
1, 198832, Control_c, 0, 64, 127
1, 198868, Note_on_c, 0, 55, 0
1, 198880, Note_on_c, 0, 40, 0
1, 199024, Note_on_c, 0, 64, 77
1, 199036, Note_on_c, 0, 55, 75
1, 199044, Note_on_c, 0, 59, 75
1, 199052, Control_c, 0, 64, 0
1, 199056, Note_on_c, 0, 52, 68
1, 199124, Control_c, 0, 64, 127
1, 199176, Note_on_c, 0, 64, 0
1, 199236, Note_on_c, 0, 59, 0
1, 199260, Note_on_c, 0, 55, 0
1, 199280, Note_on_c, 0, 66, 83
1, 199284, Note_on_c, 0, 54, 63
1, 199288, Note_on_c, 0, 59, 61
1, 199292, Note_on_c, 0, 55, 40
1, 199324, Note_on_c, 0, 52, 0
1, 199336, Control_c, 0, 64, 0
1, 199404, Note_on_c, 0, 55, 0
1, 199404, Control_c, 0, 64, 127
1, 199420, Note_on_c, 0, 59, 0
1, 199456, Note_on_c, 0, 66, 0
1, 199500, Control_c, 0, 64, 0
1, 199516, Note_on_c, 0, 67, 75
1, 199528, Note_on_c, 0, 54, 0
1, 199528, Note_on_c, 0, 55, 68
1, 199580, Control_c, 0, 64, 127
1, 199628, Note_on_c, 0, 67, 0
1, 199648, Note_on_c, 0, 55, 0
1, 199720, Control_c, 0, 64, 0
1, 199768, Note_on_c, 0, 69, 81
1, 199772, Note_on_c, 0, 57, 66
1, 199776, Control_c, 0, 64, 127
1, 199828, Note_on_c, 0, 57, 0
1, 199848, Note_on_c, 0, 69, 0
1, 199984, Control_c, 0, 64, 0
1, 200008, Note_on_c, 0, 72, 82
1, 200008, Note_on_c, 0, 65, 77
1, 200016, Note_on_c, 0, 60, 75
1, 200016, Note_on_c, 0, 69, 66
1, 200020, Note_on_c, 0, 61, 75
1, 200132, Control_c, 0, 64, 127
1, 200172, Note_on_c, 0, 69, 0
1, 200180, Note_on_c, 0, 72, 0
1, 200208, Note_on_c, 0, 65, 0
1, 200212, Note_on_c, 0, 61, 0
1, 200240, Note_on_c, 0, 70, 38
1, 200260, Note_on_c, 0, 71, 52
1, 200284, Note_on_c, 0, 60, 0
1, 200284, Note_on_c, 0, 70, 0
1, 200288, Note_on_c, 0, 71, 0
1, 200396, Note_on_c, 0, 73, 36
1, 200432, Note_on_c, 0, 73, 0
1, 200448, Control_c, 0, 64, 0
1, 200472, Note_on_c, 0, 76, 79
1, 200472, Note_on_c, 0, 70, 68
1, 200476, Note_on_c, 0, 67, 72
1, 200496, Note_on_c, 0, 64, 58
1, 200512, Note_on_c, 0, 73, 31
1, 200544, Note_on_c, 0, 67, 0
1, 200544, Note_on_c, 0, 73, 0
1, 200544, Control_c, 0, 64, 127
1, 200568, Note_on_c, 0, 70, 0
1, 200572, Note_on_c, 0, 76, 0
1, 200600, Note_on_c, 0, 64, 0
1, 200700, Note_on_c, 0, 79, 81
1, 200708, Note_on_c, 0, 73, 76
1, 200716, Control_c, 0, 64, 0
1, 200716, Note_on_c, 0, 70, 68
1, 200752, Control_c, 0, 64, 127
1, 200752, Note_on_c, 0, 77, 38
1, 200792, Note_on_c, 0, 70, 0
1, 200796, Note_on_c, 0, 77, 0
1, 200808, Note_on_c, 0, 73, 0
1, 200828, Note_on_c, 0, 79, 0
1, 201148, Note_on_c, 0, 84, 94
1, 201368, Note_on_c, 0, 84, 0
1, 201428, Note_on_c, 0, 81, 66
1, 201680, Note_on_c, 0, 81, 0
1, 201684, Note_on_c, 0, 38, 63
1, 201696, Control_c, 0, 64, 0
1, 201792, Control_c, 0, 64, 127
1, 201968, Note_on_c, 0, 38, 0
1, 202176, Note_on_c, 0, 62, 56
1, 202188, Note_on_c, 0, 53, 58
1, 202188, Note_on_c, 0, 50, 47
1, 202192, Note_on_c, 0, 57, 56
1, 202272, Note_on_c, 0, 53, 0
1, 202276, Note_on_c, 0, 62, 0
1, 202284, Note_on_c, 0, 57, 0
1, 202344, Note_on_c, 0, 50, 0
1, 202416, Control_c, 0, 64, 0
1, 202448, Note_on_c, 0, 64, 58
1, 202452, Note_on_c, 0, 49, 46
1, 202452, Note_on_c, 0, 58, 59
1, 202460, Note_on_c, 0, 55, 52
1, 202560, Note_on_c, 0, 64, 0
1, 202572, Control_c, 0, 64, 127
1, 202628, Note_on_c, 0, 58, 0
1, 202628, Note_on_c, 0, 55, 0
1, 202668, Note_on_c, 0, 49, 0
1, 202680, Note_on_c, 0, 65, 63
1, 202684, Note_on_c, 0, 50, 57
1, 202764, Note_on_c, 0, 65, 0
1, 202880, Control_c, 0, 64, 0
1, 202920, Note_on_c, 0, 50, 0
1, 202924, Control_c, 0, 64, 127
1, 202936, Note_on_c, 0, 67, 59
1, 202948, Note_on_c, 0, 53, 36
1, 202980, Note_on_c, 0, 67, 0
1, 202992, Note_on_c, 0, 53, 0
1, 203224, Note_on_c, 0, 59, 52
1, 203224, Control_c, 0, 64, 0
1, 203232, Note_on_c, 0, 43, 47
1, 203272, Note_on_c, 0, 63, 48
1, 203284, Note_on_c, 0, 53, 51
1, 203284, Note_on_c, 0, 65, 57
1, 203304, Note_on_c, 0, 68, 61
1, 203440, Control_c, 0, 64, 127
1, 203608, Note_on_c, 0, 53, 0
1, 203640, Note_on_c, 0, 68, 0
1, 203764, Note_on_c, 0, 68, 62
1, 203976, Note_on_c, 0, 68, 0
1, 204044, Note_on_c, 0, 59, 0
1, 204068, Note_on_c, 0, 65, 0
1, 204076, Note_on_c, 0, 63, 0
1, 204184, Note_on_c, 0, 59, 57
1, 204216, Note_on_c, 0, 63, 45
1, 204248, Note_on_c, 0, 53, 32
1, 204260, Note_on_c, 0, 65, 46
1, 204276, Note_on_c, 0, 68, 59
1, 204448, Note_on_c, 0, 43, 0
1, 204476, Note_on_c, 0, 53, 0
1, 204504, Note_on_c, 0, 68, 0
1, 204780, Note_on_c, 0, 68, 52
1, 204900, Note_on_c, 0, 59, 0
1, 204940, Note_on_c, 0, 65, 0
1, 204972, Note_on_c, 0, 68, 0
1, 205064, Note_on_c, 0, 63, 0
1, 205384, Control_c, 0, 64, 0
1, 205420, Note_on_c, 0, 67, 48
1, 205424, Note_on_c, 0, 57, 43
1, 205424, Note_on_c, 0, 36, 41
1, 205432, Note_on_c, 0, 52, 46
1, 205436, Note_on_c, 0, 62, 48
1, 205512, Control_c, 0, 64, 127
1, 205520, Note_on_c, 0, 57, 0
1, 205568, Note_on_c, 0, 36, 0
1, 205572, Note_on_c, 0, 62, 0
1, 205604, Note_on_c, 0, 67, 0
1, 205636, Note_on_c, 0, 52, 0
1, 206132, Note_on_c, 0, 83, 67
1, 206136, Note_on_c, 0, 59, 54
1, 206332, Note_on_c, 0, 83, 0
1, 206392, Note_on_c, 0, 59, 0
1, 206412, Note_on_c, 0, 86, 79
1, 206432, Note_on_c, 0, 62, 45
1, 206520, Note_on_c, 0, 86, 0
1, 206588, Note_on_c, 0, 62, 0
1, 206680, Note_on_c, 0, 79, 65
1, 206716, Note_on_c, 0, 55, 41
1, 206904, Note_on_c, 0, 79, 0
1, 206940, Note_on_c, 0, 55, 0
1, 206976, Note_on_c, 0, 83, 58
1, 206988, Note_on_c, 0, 59, 43
1, 207040, Note_on_c, 0, 83, 0
1, 207116, Note_on_c, 0, 59, 0
1, 207272, Note_on_c, 0, 74, 50
1, 207304, Note_on_c, 0, 50, 37
1, 207524, Note_on_c, 0, 74, 0
1, 207544, Note_on_c, 0, 50, 0
1, 207572, Note_on_c, 0, 79, 56
1, 207600, Note_on_c, 0, 79, 0
1, 207608, Note_on_c, 0, 55, 26
1, 207660, Note_on_c, 0, 55, 0
1, 207868, Note_on_c, 0, 71, 44
1, 208036, Note_on_c, 0, 71, 0
1, 208244, Note_on_c, 0, 74, 55
1, 208248, Note_on_c, 0, 36, 45
1, 208524, Note_on_c, 0, 74, 0
1, 208584, Note_on_c, 0, 43, 42
1, 208604, Note_on_c, 0, 62, 38
1, 208864, Note_on_c, 0, 62, 0
1, 208916, Note_on_c, 0, 67, 54
1, 208948, Note_on_c, 0, 52, 36
1, 209252, Note_on_c, 0, 67, 0
1, 209260, Note_on_c, 0, 59, 45
1, 209420, Note_on_c, 0, 43, 0
1, 209556, Note_on_c, 0, 59, 0
1, 209620, Note_on_c, 0, 62, 39
1, 209752, Note_on_c, 0, 62, 0
1, 209780, Note_on_c, 0, 52, 0
1, 209948, Note_on_c, 0, 52, 45
1, 210180, Note_on_c, 0, 36, 0
1, 210208, Note_on_c, 0, 52, 0
1, 210312, Note_on_c, 0, 57, 42
1, 210420, Note_on_c, 0, 57, 0
1, 210688, Note_on_c, 0, 47, 38
1, 211652, Note_on_c, 0, 47, 0
1, 212640, Note_on_c, 0, 24, 44
1, 212640, Note_on_c, 0, 43, 38
1, 212692, Control_c, 0, 64, 0
1, 212908, Control_c, 0, 64, 127
1, 213096, Note_on_c, 0, 43, 0
1, 213168, Note_on_c, 0, 24, 0
1, 214804, Note_on_c, 0, 62, 36
1, 214896, Note_on_c, 0, 79, 49
1, 214928, Note_on_c, 0, 64, 36
1, 214948, Note_on_c, 0, 67, 35
1, 214984, Note_on_c, 0, 86, 39
1, 215040, Note_on_c, 0, 91, 57
1, 215052, Note_on_c, 0, 86, 0
1, 215932, Note_on_c, 0, 91, 0
1, 216008, Note_on_c, 0, 79, 0
1, 216112, Note_on_c, 0, 67, 0
1, 216232, Note_on_c, 0, 64, 0
1, 216264, Note_on_c, 0, 62, 0
1, 216708, Control_c, 0, 64, 0
1, 217348, System_exclusive, 9, 67, 16, 76, 3, 0, 0, 64, 0, 247
1, 217348, System_exclusive, 8, 67, 16, 76, 3, 0, 12, 127, 247
1, 217348, End_track
0, 0, End_of_file
