0, 0, Header, 1, 8, 960
1, 0, Start_track
1, 0, Title_t, "Pure Imagination (from Willie Wonka)"
1, 0, Text_t, "dougmck@pipeline.com.au  Solo piano played in real time - \012"
1, 0, Time_signature, 4, 2, 24, 8
1, 0, Key_signature, -5, "major"
1, 0, Tempo, 521739
1, 368640, Key_signature, 2, "major"
1, 368640, End_track
2, 0, Start_track
2, 0, Title_t, "Played in real time"
2, 0, Note_on_c, 0, 82, 57
2, 41, Note_on_c, 0, 58, 49
2, 109, Control_c, 0, 64, 0
2, 1184, Control_c, 0, 64, 127
2, 1641, Note_on_c, 0, 85, 67
2, 1670, Note_on_c, 0, 61, 57
2, 1682, Control_c, 0, 64, 0
2, 1746, Note_on_c, 0, 82, 0
2, 1890, Control_c, 0, 64, 127
2, 1891, Note_on_c, 0, 58, 0
2, 2020, Note_on_c, 0, 61, 0
2, 4943, Note_on_c, 0, 85, 0
2, 5002, Control_c, 0, 64, 0
2, 5021, Note_on_c, 0, 92, 61
2, 5031, Note_on_c, 0, 51, 51
2, 5354, Control_c, 0, 64, 127
2, 5680, Note_on_c, 0, 92, 0
2, 6460, Note_on_c, 0, 56, 28
2, 6962, Note_on_c, 0, 61, 38
2, 7315, Note_on_c, 0, 65, 60
2, 7316, Note_on_c, 0, 61, 0
2, 7651, Note_on_c, 0, 65, 0
2, 7655, Note_on_c, 0, 68, 53
2, 7736, Note_on_c, 0, 56, 0
2, 7781, Note_on_c, 0, 68, 0
2, 7839, Note_on_c, 0, 51, 0
2, 8007, Note_on_c, 0, 73, 29
2, 8360, Note_on_c, 0, 77, 54
2, 8442, Note_on_c, 0, 73, 0
2, 8786, Note_on_c, 0, 80, 47
2, 8848, Note_on_c, 0, 77, 0
2, 9306, Note_on_c, 0, 73, 20
2, 9307, Note_on_c, 0, 77, 33
2, 9366, Note_on_c, 0, 68, 31
2, 10328, Note_on_c, 0, 73, 0
2, 10475, Note_on_c, 0, 77, 0
2, 10545, Note_on_c, 0, 68, 0
2, 10566, Note_on_c, 0, 80, 0
2, 11036, Note_on_c, 0, 70, 38
2, 11497, Note_on_c, 0, 73, 40
2, 11573, Note_on_c, 0, 70, 0
2, 12243, Note_on_c, 0, 73, 0
2, 12890, Note_on_c, 0, 80, 40
2, 12910, Control_c, 0, 64, 0
2, 12921, Note_on_c, 0, 54, 25
2, 12944, Note_on_c, 0, 74, 40
2, 12948, Note_on_c, 0, 60, 29
2, 12966, Note_on_c, 0, 69, 29
2, 12968, Note_on_c, 0, 65, 28
2, 13568, Control_c, 0, 64, 127
2, 13984, Note_on_c, 0, 65, 0
2, 14002, Note_on_c, 0, 60, 0
2, 14183, Note_on_c, 0, 54, 0
2, 15261, Note_on_c, 0, 32, 52
2, 15408, Note_on_c, 0, 32, 0
2, 16498, Note_on_c, 0, 69, 0
2, 16939, Note_on_c, 0, 74, 0
2, 17868, Note_on_c, 0, 70, 86
2, 17884, Note_on_c, 0, 80, 0
2, 18595, Note_on_c, 0, 70, 0
2, 18696, Note_on_c, 0, 73, 71
2, 19413, Note_on_c, 0, 73, 0
2, 19980, Note_on_c, 0, 72, 78
2, 19983, Note_on_c, 0, 65, 92
2, 19995, Note_on_c, 0, 49, 69
2, 19997, Note_on_c, 0, 56, 63
2, 20032, Control_c, 0, 64, 0
2, 20285, Note_on_c, 0, 72, 0
2, 20385, Control_c, 0, 64, 127
2, 20590, Note_on_c, 0, 73, 74
2, 20650, Note_on_c, 0, 65, 0
2, 20942, Note_on_c, 0, 73, 0
2, 21006, Note_on_c, 0, 49, 0
2, 21103, Note_on_c, 0, 56, 0
2, 21176, Note_on_c, 0, 72, 62
2, 21194, Note_on_c, 0, 63, 53
2, 21200, Note_on_c, 0, 51, 63
2, 21202, Note_on_c, 0, 66, 61
2, 21216, Note_on_c, 0, 58, 49
2, 21235, Control_c, 0, 64, 0
2, 21472, Note_on_c, 0, 72, 0
2, 21637, Control_c, 0, 64, 127
2, 21723, Note_on_c, 0, 73, 48
2, 22035, Note_on_c, 0, 73, 0
2, 22088, Note_on_c, 0, 51, 0
2, 22207, Note_on_c, 0, 66, 0
2, 22224, Note_on_c, 0, 72, 55
2, 22230, Control_c, 0, 64, 0
2, 22236, Note_on_c, 0, 52, 59
2, 22280, Note_on_c, 0, 67, 55
2, 22441, Note_on_c, 0, 72, 0
2, 22567, Control_c, 0, 64, 127
2, 22692, Note_on_c, 0, 73, 47
2, 22876, Note_on_c, 0, 67, 0
2, 22897, Note_on_c, 0, 73, 0
2, 22903, Note_on_c, 0, 58, 0
2, 23037, Note_on_c, 0, 63, 0
2, 23135, Note_on_c, 0, 52, 0
2, 23216, Note_on_c, 0, 72, 44
2, 23229, Note_on_c, 0, 63, 30
2, 23240, Control_c, 0, 64, 0
2, 23245, Note_on_c, 0, 68, 45
2, 23251, Note_on_c, 0, 53, 38
2, 23594, Note_on_c, 0, 68, 0
2, 23621, Note_on_c, 0, 63, 0
2, 23641, Control_c, 0, 64, 127
2, 23678, Note_on_c, 0, 72, 0
2, 23932, Note_on_c, 0, 68, 53
2, 23973, Note_on_c, 0, 60, 35
2, 24017, Note_on_c, 0, 63, 25
2, 24069, Note_on_c, 0, 53, 0
2, 25167, Note_on_c, 0, 60, 0
2, 25183, Note_on_c, 0, 34, 82
2, 25229, Control_c, 0, 64, 0
2, 25454, Control_c, 0, 64, 127
2, 25486, Note_on_c, 0, 68, 0
2, 25535, Note_on_c, 0, 63, 0
2, 25556, Note_on_c, 0, 34, 0
2, 26179, Note_on_c, 0, 67, 45
2, 26183, Note_on_c, 0, 59, 51
2, 26184, Note_on_c, 0, 62, 58
2, 26198, Note_on_c, 0, 56, 36
2, 26200, Note_on_c, 0, 64, 48
2, 26214, Note_on_c, 0, 58, 42
2, 26554, Note_on_c, 0, 59, 0
2, 26621, Note_on_c, 0, 56, 0
2, 26669, Note_on_c, 0, 58, 0
2, 26730, Note_on_c, 0, 62, 0
2, 26745, Note_on_c, 0, 67, 0
2, 26758, Note_on_c, 0, 64, 0
2, 30084, Note_on_c, 0, 82, 52
2, 30099, Note_on_c, 0, 66, 37
2, 30102, Note_on_c, 0, 70, 36
2, 30122, Note_on_c, 0, 62, 40
2, 30142, Note_on_c, 0, 75, 35
2, 30169, Note_on_c, 0, 56, 25
2, 30230, Note_on_c, 0, 75, 0
2, 30957, Note_on_c, 0, 70, 0
2, 31038, Note_on_c, 0, 82, 0
2, 31932, Note_on_c, 0, 85, 56
2, 31945, Note_on_c, 0, 73, 33
2, 32202, Note_on_c, 0, 66, 0
2, 32368, Note_on_c, 0, 56, 0
2, 32399, Note_on_c, 0, 62, 0
2, 32895, Note_on_c, 0, 73, 0
2, 32940, Note_on_c, 0, 85, 0
2, 34710, Note_on_c, 0, 77, 66
2, 34729, Note_on_c, 0, 51, 46
2, 34849, Control_c, 0, 64, 0
2, 35374, Note_on_c, 0, 59, 36
2, 35475, Control_c, 0, 64, 127
2, 36113, Note_on_c, 0, 59, 0
2, 36117, Note_on_c, 0, 72, 38
2, 36128, Note_on_c, 0, 67, 32
2, 36134, Control_c, 0, 64, 0
2, 36185, Note_on_c, 0, 60, 29
2, 36694, Control_c, 0, 64, 127
2, 37021, Note_on_c, 0, 60, 0
2, 37028, Note_on_c, 0, 61, 33
2, 37374, Note_on_c, 0, 72, 0
2, 37466, Note_on_c, 0, 67, 0
2, 37974, Note_on_c, 0, 67, 51
2, 38475, Note_on_c, 0, 61, 0
2, 38778, Note_on_c, 0, 61, 32
2, 38803, Note_on_c, 0, 77, 0
2, 38924, Note_on_c, 0, 67, 0
2, 40038, Note_on_c, 0, 78, 59
2, 40046, Note_on_c, 0, 66, 69
2, 40489, Note_on_c, 0, 66, 0
2, 40529, Note_on_c, 0, 78, 0
2, 40758, Note_on_c, 0, 51, 0
2, 40760, Note_on_c, 0, 61, 0
2, 40761, Note_on_c, 0, 80, 73
2, 40765, Note_on_c, 0, 68, 67
2, 40979, Note_on_c, 0, 80, 0
2, 41075, Note_on_c, 0, 68, 0
2, 41619, Control_c, 0, 64, 0
2, 41638, Note_on_c, 0, 77, 63
2, 41639, Note_on_c, 0, 73, 47
2, 41655, Note_on_c, 0, 70, 60
2, 41657, Note_on_c, 0, 66, 57
2, 41664, Note_on_c, 0, 44, 64
2, 41892, Control_c, 0, 64, 127
2, 41906, Note_on_c, 0, 77, 0
2, 41994, Note_on_c, 0, 73, 0
2, 41997, Note_on_c, 0, 70, 0
2, 42057, Note_on_c, 0, 66, 0
2, 42422, Note_on_c, 0, 54, 68
2, 43135, Note_on_c, 0, 61, 77
2, 43138, Note_on_c, 0, 65, 85
2, 43149, Note_on_c, 0, 58, 74
2, 43857, Note_on_c, 0, 44, 0
2, 44046, Note_on_c, 0, 44, 75
2, 44881, Note_on_c, 0, 44, 0
2, 44998, Note_on_c, 0, 44, 71
2, 45090, Note_on_c, 0, 58, 0
2, 45152, Note_on_c, 0, 61, 0
2, 45176, Note_on_c, 0, 65, 0
2, 45774, Note_on_c, 0, 44, 0
2, 45877, Note_on_c, 0, 54, 0
2, 45878, Note_on_c, 0, 44, 71
2, 46867, Note_on_c, 0, 75, 63
2, 46889, Note_on_c, 0, 68, 69
2, 46917, Note_on_c, 0, 54, 57
2, 46924, Note_on_c, 0, 65, 40
2, 46929, Control_c, 0, 64, 0
2, 47265, Control_c, 0, 64, 127
2, 47635, Note_on_c, 0, 44, 0
2, 47694, Note_on_c, 0, 54, 0
2, 47939, Note_on_c, 0, 75, 0
2, 48115, Note_on_c, 0, 68, 0
2, 48177, Note_on_c, 0, 65, 0
2, 48827, Note_on_c, 0, 73, 48
2, 48830, Note_on_c, 0, 60, 45
2, 48832, Note_on_c, 0, 66, 65
2, 48841, Note_on_c, 0, 50, 46
2, 48843, Note_on_c, 0, 54, 25
2, 48870, Control_c, 0, 64, 0
2, 49206, Control_c, 0, 64, 127
2, 49304, Note_on_c, 0, 50, 0
2, 49339, Note_on_c, 0, 60, 0
2, 49422, Note_on_c, 0, 54, 0
2, 49633, Note_on_c, 0, 66, 0
2, 49742, Note_on_c, 0, 73, 0
2, 50214, Note_on_c, 0, 72, 70
2, 50222, Note_on_c, 0, 68, 64
2, 50229, Note_on_c, 0, 63, 67
2, 50237, Note_on_c, 0, 53, 68
2, 50255, Note_on_c, 0, 58, 55
2, 50297, Control_c, 0, 64, 0
2, 50650, Control_c, 0, 64, 127
2, 51255, Note_on_c, 0, 53, 0
2, 51427, Note_on_c, 0, 63, 0
2, 51469, Note_on_c, 0, 68, 0
2, 51483, Note_on_c, 0, 58, 0
2, 51486, Note_on_c, 0, 72, 0
2, 51582, Note_on_c, 0, 54, 46
2, 51600, Note_on_c, 0, 73, 36
2, 51601, Note_on_c, 0, 64, 46
2, 51606, Note_on_c, 0, 69, 64
2, 51617, Note_on_c, 0, 59, 53
2, 51629, Control_c, 0, 64, 0
2, 51966, Control_c, 0, 64, 127
2, 52064, Note_on_c, 0, 64, 0
2, 52113, Note_on_c, 0, 59, 0
2, 52231, Note_on_c, 0, 54, 0
2, 52258, Note_on_c, 0, 69, 0
2, 52286, Note_on_c, 0, 73, 0
2, 52334, Control_c, 0, 64, 0
2, 52359, Note_on_c, 0, 68, 49
2, 52361, Note_on_c, 0, 72, 57
2, 52367, Note_on_c, 0, 53, 58
2, 52381, Note_on_c, 0, 63, 50
2, 52445, Note_on_c, 0, 58, 29
2, 52575, Control_c, 0, 64, 127
2, 52648, Note_on_c, 0, 53, 0
2, 52817, Note_on_c, 0, 58, 0
2, 52822, Note_on_c, 0, 63, 0
2, 52825, Note_on_c, 0, 68, 0
2, 52855, Note_on_c, 0, 72, 0
2, 52864, Control_c, 0, 64, 0
2, 52949, Note_on_c, 0, 64, 54
2, 52961, Note_on_c, 0, 73, 37
2, 52963, Note_on_c, 0, 69, 64
2, 52966, Note_on_c, 0, 54, 32
2, 52977, Note_on_c, 0, 59, 47
2, 53105, Control_c, 0, 64, 127
2, 53186, Note_on_c, 0, 64, 0
2, 53197, Note_on_c, 0, 59, 0
2, 53305, Note_on_c, 0, 69, 0
2, 53355, Note_on_c, 0, 54, 0
2, 53448, Note_on_c, 0, 73, 0
2, 53553, Control_c, 0, 64, 0
2, 53595, Note_on_c, 0, 68, 38
2, 53617, Note_on_c, 0, 53, 38
2, 53619, Note_on_c, 0, 63, 30
2, 53632, Note_on_c, 0, 72, 47
2, 53677, Note_on_c, 0, 58, 30
2, 53842, Control_c, 0, 64, 127
2, 53899, Note_on_c, 0, 53, 0
2, 53930, Note_on_c, 0, 63, 0
2, 53954, Note_on_c, 0, 68, 0
2, 53960, Note_on_c, 0, 58, 0
2, 54376, Note_on_c, 0, 72, 0
2, 54531, Note_on_c, 0, 65, 48
2, 54540, Note_on_c, 0, 68, 39
2, 54598, Note_on_c, 0, 49, 39
2, 54644, Control_c, 0, 64, 0
2, 55030, Control_c, 0, 64, 127
2, 55373, Note_on_c, 0, 65, 0
2, 55393, Note_on_c, 0, 56, 28
2, 56092, Note_on_c, 0, 49, 0
2, 56118, Note_on_c, 0, 56, 0
2, 56280, Note_on_c, 0, 65, 41
2, 56979, Note_on_c, 0, 65, 0
2, 57224, Note_on_c, 0, 68, 0
2, 57275, Control_c, 0, 64, 0
2, 57277, Note_on_c, 0, 28, 53
2, 57482, Note_on_c, 0, 28, 0
2, 57516, Control_c, 0, 64, 127
2, 58444, Note_on_c, 0, 56, 44
2, 59394, Note_on_c, 0, 82, 51
2, 59412, Note_on_c, 0, 62, 44
2, 59448, Note_on_c, 0, 75, 52
2, 59454, Note_on_c, 0, 78, 42
2, 59497, Note_on_c, 0, 66, 30
2, 59529, Note_on_c, 0, 70, 25
2, 60990, Note_on_c, 0, 70, 0
2, 61115, Note_on_c, 0, 75, 0
2, 61209, Note_on_c, 0, 78, 0
2, 61214, Note_on_c, 0, 82, 0
2, 61264, Note_on_c, 0, 66, 0
2, 61278, Note_on_c, 0, 62, 0
2, 61391, Note_on_c, 0, 56, 0
2, 62646, Note_on_c, 0, 58, 80
2, 62657, Note_on_c, 0, 94, 84
2, 62661, Note_on_c, 0, 82, 83
2, 63916, Note_on_c, 0, 82, 0
2, 63966, Note_on_c, 0, 94, 0
2, 65071, Note_on_c, 0, 61, 60
2, 65078, Note_on_c, 0, 85, 56
2, 65085, Note_on_c, 0, 97, 80
2, 65094, Note_on_c, 0, 58, 0
2, 65313, Note_on_c, 0, 85, 0
2, 65391, Note_on_c, 0, 97, 0
2, 66131, Note_on_c, 0, 68, 71
2, 66134, Note_on_c, 0, 104, 76
2, 66153, Note_on_c, 0, 92, 76
2, 66207, Note_on_c, 0, 61, 0
2, 66688, Note_on_c, 0, 104, 0
2, 66765, Note_on_c, 0, 68, 0
2, 66809, Note_on_c, 0, 92, 0
2, 68505, Note_on_c, 0, 54, 36
2, 68530, Note_on_c, 0, 39, 43
2, 68537, Note_on_c, 0, 65, 46
2, 68555, Note_on_c, 0, 61, 38
2, 68560, Note_on_c, 0, 58, 37
2, 68574, Note_on_c, 0, 46, 37
2, 68600, Control_c, 0, 64, 0
2, 69225, Control_c, 0, 64, 127
2, 69757, Note_on_c, 0, 54, 0
2, 69967, Note_on_c, 0, 39, 0
2, 69982, Note_on_c, 0, 58, 0
2, 70022, Note_on_c, 0, 65, 0
2, 70041, Note_on_c, 0, 46, 0
2, 70045, Note_on_c, 0, 61, 0
2, 71813, Note_on_c, 0, 70, 48
2, 72130, Note_on_c, 0, 70, 0
2, 72210, Note_on_c, 0, 73, 52
2, 72384, Note_on_c, 0, 73, 0
2, 72838, Note_on_c, 0, 69, 46
2, 72841, Note_on_c, 0, 54, 44
2, 72843, Note_on_c, 0, 81, 51
2, 72846, Note_on_c, 0, 74, 41
2, 72851, Control_c, 0, 64, 0
2, 72863, Note_on_c, 0, 78, 32
2, 73669, Control_c, 0, 64, 127
2, 74310, Note_on_c, 0, 54, 0
2, 74376, Note_on_c, 0, 56, 36
2, 75406, Note_on_c, 0, 62, 37
2, 75838, Note_on_c, 0, 66, 48
2, 75877, Note_on_c, 0, 69, 0
2, 76166, Note_on_c, 0, 74, 0
2, 76241, Note_on_c, 0, 69, 49
2, 76377, Note_on_c, 0, 81, 0
2, 76496, Note_on_c, 0, 78, 0
2, 76542, Note_on_c, 0, 69, 0
2, 76651, Note_on_c, 0, 74, 55
2, 76766, Note_on_c, 0, 62, 0
2, 76793, Note_on_c, 0, 74, 0
2, 77115, Note_on_c, 0, 90, 57
2, 77260, Note_on_c, 0, 62, 16
2, 77466, Note_on_c, 0, 62, 0
2, 77596, Note_on_c, 0, 90, 0
2, 77846, Note_on_c, 0, 90, 52
2, 77895, Note_on_c, 0, 91, 43
2, 78373, Note_on_c, 0, 91, 0
2, 78473, Note_on_c, 0, 90, 0
2, 78598, Note_on_c, 0, 93, 53
2, 78658, Note_on_c, 0, 62, 34
2, 79162, Note_on_c, 0, 93, 0
2, 79497, Note_on_c, 0, 82, 49
2, 79821, Note_on_c, 0, 62, 0
2, 80048, Note_on_c, 0, 82, 0
2, 80217, Note_on_c, 0, 82, 45
2, 80255, Note_on_c, 0, 62, 34
2, 80455, Note_on_c, 0, 66, 0
2, 80557, Note_on_c, 0, 56, 0
2, 80684, Note_on_c, 0, 62, 0
2, 80774, Note_on_c, 0, 85, 60
2, 80808, Note_on_c, 0, 82, 0
2, 80998, Note_on_c, 0, 85, 0
2, 82083, Note_on_c, 0, 72, 56
2, 82131, Note_on_c, 0, 49, 46
2, 82171, Control_c, 0, 64, 0
2, 82652, Control_c, 0, 64, 127
2, 82716, Note_on_c, 0, 56, 29
2, 83297, Note_on_c, 0, 72, 0
2, 83329, Note_on_c, 0, 60, 36
2, 83369, Note_on_c, 0, 65, 39
2, 83687, Note_on_c, 0, 60, 0
2, 83990, Note_on_c, 0, 73, 57
2, 84037, Note_on_c, 0, 49, 0
2, 84070, Note_on_c, 0, 65, 0
2, 84128, Note_on_c, 0, 56, 0
2, 84464, Note_on_c, 0, 73, 0
2, 84994, Control_c, 0, 64, 0
2, 85000, Note_on_c, 0, 72, 61
2, 85011, Note_on_c, 0, 54, 40
2, 85025, Note_on_c, 0, 68, 57
2, 85030, Note_on_c, 0, 58, 55
2, 85033, Note_on_c, 0, 64, 66
2, 85532, Note_on_c, 0, 64, 0
2, 85540, Control_c, 0, 64, 127
2, 85607, Note_on_c, 0, 72, 0
2, 85761, Note_on_c, 0, 64, 49
2, 85777, Note_on_c, 0, 73, 61
2, 86168, Note_on_c, 0, 73, 0
2, 86326, Note_on_c, 0, 72, 66
2, 86409, Note_on_c, 0, 64, 0
2, 86515, Note_on_c, 0, 71, 16
2, 86533, Note_on_c, 0, 72, 0
2, 86598, Note_on_c, 0, 71, 0
2, 86696, Note_on_c, 0, 68, 0
2, 86768, Note_on_c, 0, 73, 56
2, 86809, Note_on_c, 0, 64, 40
2, 87081, Note_on_c, 0, 64, 0
2, 87086, Note_on_c, 0, 73, 0
2, 87265, Note_on_c, 0, 54, 0
2, 87306, Note_on_c, 0, 58, 0
2, 87326, Note_on_c, 0, 72, 56
2, 87363, Note_on_c, 0, 68, 54
2, 87365, Note_on_c, 0, 67, 60
2, 87384, Control_c, 0, 64, 0
2, 87397, Note_on_c, 0, 53, 51
2, 88033, Note_on_c, 0, 60, 35
2, 88122, Control_c, 0, 64, 127
2, 88638, Note_on_c, 0, 67, 0
2, 88757, Note_on_c, 0, 65, 37
2, 89231, Note_on_c, 0, 68, 0
2, 89483, Note_on_c, 0, 72, 0
2, 89549, Note_on_c, 0, 68, 39
2, 89640, Note_on_c, 0, 60, 0
2, 89753, Note_on_c, 0, 53, 0
2, 89773, Note_on_c, 0, 65, 0
2, 90001, Note_on_c, 0, 68, 0
2, 90689, Control_c, 0, 64, 0
2, 90715, Note_on_c, 0, 46, 57
2, 90881, Control_c, 0, 64, 127
2, 91057, Note_on_c, 0, 46, 0
2, 91562, Note_on_c, 0, 85, 72
2, 91615, Note_on_c, 0, 62, 60
2, 91629, Note_on_c, 0, 82, 64
2, 91658, Note_on_c, 0, 56, 37
2, 91661, Note_on_c, 0, 78, 64
2, 91681, Note_on_c, 0, 73, 42
2, 91684, Note_on_c, 0, 66, 43
2, 91699, Control_c, 0, 64, 0
2, 91860, Control_c, 0, 64, 127
2, 92055, Note_on_c, 0, 62, 0
2, 92064, Note_on_c, 0, 85, 0
2, 92076, Note_on_c, 0, 78, 0
2, 92083, Note_on_c, 0, 82, 0
2, 92140, Note_on_c, 0, 66, 0
2, 92150, Note_on_c, 0, 73, 0
2, 92214, Note_on_c, 0, 56, 0
2, 92589, Note_on_c, 0, 62, 24
2, 92593, Note_on_c, 0, 78, 32
2, 92598, Note_on_c, 0, 56, 34
2, 92611, Note_on_c, 0, 66, 44
2, 92725, Note_on_c, 0, 66, 0
2, 92871, Note_on_c, 0, 78, 0
2, 93072, Note_on_c, 0, 56, 0
2, 93129, Note_on_c, 0, 62, 0
2, 93702, Note_on_c, 0, 90, 50
2, 93766, Note_on_c, 0, 85, 52
2, 93769, Note_on_c, 0, 78, 44
2, 93782, Note_on_c, 0, 66, 38
2, 93803, Note_on_c, 0, 62, 24
2, 93823, Note_on_c, 0, 56, 20
2, 94240, Note_on_c, 0, 66, 0
2, 94266, Note_on_c, 0, 62, 0
2, 94312, Note_on_c, 0, 56, 0
2, 94667, Note_on_c, 0, 90, 0
2, 94699, Note_on_c, 0, 78, 0
2, 94701, Note_on_c, 0, 85, 0
2, 94982, Control_c, 0, 64, 0
2, 95006, Note_on_c, 0, 77, 40
2, 95009, Note_on_c, 0, 39, 52
2, 95011, Note_on_c, 0, 89, 51
2, 95142, Control_c, 0, 64, 127
2, 95217, Note_on_c, 0, 39, 0
2, 95326, Note_on_c, 0, 89, 0
2, 95523, Note_on_c, 0, 77, 0
2, 95878, Note_on_c, 0, 51, 38
2, 96382, Note_on_c, 0, 57, 40
2, 96758, Note_on_c, 0, 57, 0
2, 96768, Note_on_c, 0, 69, 51
2, 96777, Note_on_c, 0, 65, 40
2, 96836, Note_on_c, 0, 60, 29
2, 96841, Note_on_c, 0, 51, 0
2, 96898, Note_on_c, 0, 65, 0
2, 96988, Note_on_c, 0, 69, 0
2, 97097, Note_on_c, 0, 60, 0
2, 97267, Note_on_c, 0, 77, 68
2, 97280, Note_on_c, 0, 84, 72
2, 97297, Note_on_c, 0, 65, 38
2, 97720, Note_on_c, 0, 84, 0
2, 97810, Note_on_c, 0, 81, 58
2, 97823, Note_on_c, 0, 72, 50
2, 98134, Note_on_c, 0, 72, 0
2, 98350, Note_on_c, 0, 77, 0
2, 98368, Note_on_c, 0, 81, 0
2, 98482, Note_on_c, 0, 82, 47
2, 98489, Note_on_c, 0, 77, 25
2, 98495, Note_on_c, 0, 73, 30
2, 98501, Note_on_c, 0, 67, 30
2, 98558, Control_c, 0, 64, 0
2, 98565, Note_on_c, 0, 65, 0
2, 98735, Control_c, 0, 64, 127
2, 99765, Note_on_c, 0, 67, 0
2, 99951, Note_on_c, 0, 84, 51
2, 100143, Note_on_c, 0, 84, 0
2, 100198, Note_on_c, 0, 77, 0
2, 100223, Note_on_c, 0, 82, 0
2, 100342, Note_on_c, 0, 73, 0
2, 100835, Note_on_c, 0, 77, 44
2, 100844, Note_on_c, 0, 70, 34
2, 100855, Note_on_c, 0, 73, 27
2, 100860, Note_on_c, 0, 66, 19
2, 100865, Note_on_c, 0, 44, 33
2, 100901, Control_c, 0, 64, 0
2, 101270, Control_c, 0, 64, 127
2, 101288, Note_on_c, 0, 77, 0
2, 101409, Note_on_c, 0, 73, 0
2, 101419, Note_on_c, 0, 70, 0
2, 101450, Note_on_c, 0, 54, 38
2, 101479, Note_on_c, 0, 66, 0
2, 102030, Note_on_c, 0, 61, 57
2, 102071, Note_on_c, 0, 58, 43
2, 102645, Note_on_c, 0, 65, 67
2, 103225, Note_on_c, 0, 58, 0
2, 103288, Note_on_c, 0, 61, 0
2, 103319, Note_on_c, 0, 65, 0
2, 103802, Note_on_c, 0, 44, 0
2, 104250, Note_on_c, 0, 44, 59
2, 105159, Note_on_c, 0, 75, 76
2, 105179, Note_on_c, 0, 66, 74
2, 105497, Note_on_c, 0, 44, 0
2, 105559, Note_on_c, 0, 54, 0
2, 105721, Note_on_c, 0, 75, 0
2, 105741, Note_on_c, 0, 66, 0
2, 106864, Note_on_c, 0, 73, 50
2, 106868, Control_c, 0, 64, 0
2, 106881, Note_on_c, 0, 48, 50
2, 106886, Note_on_c, 0, 58, 39
2, 106889, Note_on_c, 0, 68, 58
2, 106891, Note_on_c, 0, 64, 46
2, 107189, Control_c, 0, 64, 127
2, 107383, Note_on_c, 0, 58, 0
2, 107555, Note_on_c, 0, 64, 0
2, 107563, Note_on_c, 0, 73, 0
2, 107605, Note_on_c, 0, 48, 0
2, 107665, Note_on_c, 0, 68, 0
2, 108633, Note_on_c, 0, 72, 48
2, 108649, Control_c, 0, 64, 0
2, 108651, Note_on_c, 0, 67, 60
2, 108662, Note_on_c, 0, 62, 37
2, 108668, Note_on_c, 0, 57, 33
2, 108686, Note_on_c, 0, 53, 31
2, 108937, Control_c, 0, 64, 127
2, 109055, Note_on_c, 0, 53, 0
2, 109085, Note_on_c, 0, 57, 0
2, 109497, Note_on_c, 0, 67, 0
2, 109501, Note_on_c, 0, 72, 0
2, 109582, Note_on_c, 0, 41, 53
2, 109614, Note_on_c, 0, 62, 0
2, 110952, Note_on_c, 0, 41, 0
2, 111078, Note_on_c, 0, 41, 66
2, 111773, Note_on_c, 0, 48, 58
2, 111835, Note_on_c, 0, 62, 81
2, 111838, Note_on_c, 0, 57, 83
2, 111841, Note_on_c, 0, 67, 76
2, 111901, Note_on_c, 0, 50, 51
2, 111905, Control_c, 0, 64, 0
2, 111977, Note_on_c, 0, 48, 0
2, 112546, Control_c, 0, 64, 127
2, 112910, Note_on_c, 0, 62, 0
2, 113359, Note_on_c, 0, 57, 0
2, 113497, Note_on_c, 0, 67, 0
2, 113622, Note_on_c, 0, 57, 43
2, 113624, Note_on_c, 0, 64, 45
2, 113625, Note_on_c, 0, 60, 42
2, 113646, Note_on_c, 0, 48, 43
2, 113663, Note_on_c, 0, 50, 0
2, 113702, Control_c, 0, 64, 0
2, 114246, Control_c, 0, 64, 127
2, 114278, Note_on_c, 0, 41, 0
2, 114360, Note_on_c, 0, 57, 0
2, 114397, Note_on_c, 0, 41, 67
2, 114449, Note_on_c, 0, 60, 0
2, 114486, Note_on_c, 0, 48, 0
2, 114495, Note_on_c, 0, 64, 0
2, 115104, Note_on_c, 0, 48, 62
2, 115108, Note_on_c, 0, 79, 78
2, 115113, Control_c, 0, 64, 0
2, 115118, Note_on_c, 0, 74, 81
2, 115120, Note_on_c, 0, 69, 80
2, 115165, Note_on_c, 0, 41, 0
2, 115243, Note_on_c, 0, 48, 0
2, 115257, Control_c, 0, 64, 127
2, 115638, Note_on_c, 0, 60, 47
2, 115675, Note_on_c, 0, 79, 0
2, 115681, Note_on_c, 0, 74, 0
2, 115781, Note_on_c, 0, 69, 0
2, 116173, Note_on_c, 0, 76, 73
2, 116177, Note_on_c, 0, 72, 70
2, 116189, Note_on_c, 0, 69, 71
2, 116204, Control_c, 0, 64, 0
2, 116209, Note_on_c, 0, 64, 58
2, 116429, Control_c, 0, 64, 127
2, 116636, Note_on_c, 0, 60, 0
2, 116781, Note_on_c, 0, 60, 44
2, 116816, Note_on_c, 0, 64, 0
2, 116950, Note_on_c, 0, 69, 0
2, 117021, Note_on_c, 0, 72, 0
2, 117505, Note_on_c, 0, 64, 52
2, 117509, Note_on_c, 0, 69, 54
2, 117513, Note_on_c, 0, 72, 42
2, 117519, Control_c, 0, 64, 0
2, 117572, Note_on_c, 0, 62, 40
2, 117654, Note_on_c, 0, 60, 0
2, 117824, Control_c, 0, 64, 127
2, 118316, Note_on_c, 0, 60, 38
2, 118453, Note_on_c, 0, 64, 0
2, 118469, Note_on_c, 0, 62, 0
2, 118640, Note_on_c, 0, 69, 0
2, 118678, Note_on_c, 0, 72, 0
2, 119117, Note_on_c, 0, 64, 40
2, 119126, Note_on_c, 0, 69, 50
2, 119718, Note_on_c, 0, 64, 0
2, 119937, Note_on_c, 0, 53, 44
2, 120169, Note_on_c, 0, 60, 0
2, 120203, Note_on_c, 0, 69, 0
2, 120270, Note_on_c, 0, 53, 0
2, 120746, Note_on_c, 0, 76, 0
2, 121340, Note_on_c, 0, 73, 52
2, 121350, Note_on_c, 0, 70, 63
2, 121354, Control_c, 0, 64, 0
2, 121356, Note_on_c, 0, 42, 49
2, 121657, Control_c, 0, 64, 127
2, 121764, Note_on_c, 0, 73, 0
2, 121822, Note_on_c, 0, 75, 71
2, 121841, Note_on_c, 0, 53, 51
2, 121849, Note_on_c, 0, 42, 0
2, 121949, Note_on_c, 0, 53, 0
2, 122116, Note_on_c, 0, 75, 0
2, 122118, Note_on_c, 0, 70, 0
2, 122261, Note_on_c, 0, 73, 57
2, 122275, Note_on_c, 0, 70, 62
2, 122294, Note_on_c, 0, 58, 34
2, 122553, Note_on_c, 0, 70, 0
2, 122638, Note_on_c, 0, 73, 0
2, 122720, Note_on_c, 0, 75, 72
2, 123117, Note_on_c, 0, 75, 0
2, 123233, Note_on_c, 0, 73, 36
2, 123290, Note_on_c, 0, 65, 44
2, 123322, Note_on_c, 0, 70, 13
2, 123358, Control_c, 0, 64, 0
2, 123855, Control_c, 0, 64, 127
2, 123863, Note_on_c, 0, 70, 0
2, 124265, Note_on_c, 0, 65, 0
2, 124447, Note_on_c, 0, 70, 59
2, 124552, Note_on_c, 0, 73, 0
2, 124897, Note_on_c, 0, 73, 50
2, 125182, Note_on_c, 0, 58, 0
2, 125201, Note_on_c, 0, 70, 0
2, 125239, Note_on_c, 0, 73, 0
2, 125355, Note_on_c, 0, 68, 48
2, 125364, Note_on_c, 0, 72, 51
2, 125411, Note_on_c, 0, 53, 43
2, 125459, Control_c, 0, 64, 0
2, 125902, Note_on_c, 0, 60, 47
2, 125989, Control_c, 0, 64, 127
2, 126375, Note_on_c, 0, 72, 0
2, 126414, Note_on_c, 0, 68, 0
2, 126440, Note_on_c, 0, 65, 49
2, 126612, Note_on_c, 0, 60, 0
2, 126830, Note_on_c, 0, 53, 0
2, 126950, Note_on_c, 0, 65, 0
2, 127034, Note_on_c, 0, 68, 54
2, 127745, Note_on_c, 0, 65, 44
2, 127747, Note_on_c, 0, 62, 41
2, 127753, Control_c, 0, 64, 0
2, 127755, Note_on_c, 0, 46, 38
2, 127830, Note_on_c, 0, 56, 13
2, 127930, Note_on_c, 0, 62, 0
2, 127949, Note_on_c, 0, 68, 0
2, 127974, Note_on_c, 0, 65, 0
2, 128042, Control_c, 0, 64, 127
2, 128224, Note_on_c, 0, 46, 0
2, 128289, Note_on_c, 0, 56, 0
2, 128448, Note_on_c, 0, 77, 53
2, 128669, Note_on_c, 0, 77, 0
2, 129155, Note_on_c, 0, 86, 56
2, 129208, Note_on_c, 0, 74, 55
2, 129211, Note_on_c, 0, 67, 31
2, 129243, Note_on_c, 0, 62, 26
2, 130211, Note_on_c, 0, 67, 0
2, 130281, Note_on_c, 0, 62, 0
2, 130358, Note_on_c, 0, 86, 0
2, 130533, Note_on_c, 0, 74, 0
2, 130774, Note_on_c, 0, 77, 48
2, 130785, Note_on_c, 0, 66, 36
2, 130818, Note_on_c, 0, 70, 42
2, 130832, Note_on_c, 0, 51, 39
2, 130891, Control_c, 0, 64, 0
2, 131417, Note_on_c, 0, 58, 68
2, 131422, Control_c, 0, 64, 127
2, 131473, Note_on_c, 0, 51, 0
2, 131820, Note_on_c, 0, 66, 0
2, 131933, Note_on_c, 0, 65, 79
2, 132007, Note_on_c, 0, 70, 0
2, 132014, Note_on_c, 0, 58, 0
2, 132343, Note_on_c, 0, 65, 0
2, 132365, Note_on_c, 0, 66, 67
2, 132425, Note_on_c, 0, 70, 76
2, 132510, Note_on_c, 0, 66, 0
2, 132700, Note_on_c, 0, 77, 0
2, 132869, Note_on_c, 0, 70, 0
2, 132961, Note_on_c, 0, 72, 63
2, 132975, Note_on_c, 0, 54, 39
2, 133073, Control_c, 0, 64, 0
2, 133489, Note_on_c, 0, 44, 56
2, 133634, Control_c, 0, 64, 127
2, 133663, Note_on_c, 0, 44, 0
2, 133690, Note_on_c, 0, 54, 0
2, 134202, Note_on_c, 0, 54, 27
2, 134778, Note_on_c, 0, 72, 0
2, 135101, Note_on_c, 0, 73, 37
2, 135147, Note_on_c, 0, 65, 27
2, 135157, Note_on_c, 0, 60, 27
2, 135257, Note_on_c, 0, 65, 0
2, 135357, Note_on_c, 0, 60, 0
2, 135465, Note_on_c, 0, 54, 0
2, 135689, Note_on_c, 0, 73, 0
2, 135873, Note_on_c, 0, 77, 44
2, 135886, Note_on_c, 0, 65, 44
2, 135901, Note_on_c, 0, 49, 53
2, 135928, Control_c, 0, 64, 0
2, 136206, Note_on_c, 0, 65, 0
2, 136265, Control_c, 0, 64, 127
2, 136266, Note_on_c, 0, 77, 0
2, 136491, Note_on_c, 0, 68, 63
2, 136494, Note_on_c, 0, 80, 64
2, 136520, Note_on_c, 0, 56, 26
2, 137142, Note_on_c, 0, 56, 0
2, 137150, Note_on_c, 0, 49, 0
2, 137264, Note_on_c, 0, 61, 63
2, 137340, Control_c, 0, 64, 0
2, 137520, Note_on_c, 0, 56, 1
2, 137533, Control_c, 0, 64, 127
2, 137728, Note_on_c, 0, 61, 0
2, 137889, Note_on_c, 0, 63, 70
2, 137918, Control_c, 0, 64, 0
2, 138062, Control_c, 0, 64, 127
2, 138147, Note_on_c, 0, 68, 0
2, 138160, Note_on_c, 0, 56, 0
2, 138304, Note_on_c, 0, 63, 0
2, 138522, Note_on_c, 0, 80, 0
2, 138605, Note_on_c, 0, 65, 51
2, 139155, Note_on_c, 0, 65, 0
2, 139299, Note_on_c, 0, 65, 56
2, 139826, Note_on_c, 0, 65, 0
2, 139944, Note_on_c, 0, 68, 51
2, 139975, Note_on_c, 0, 60, 38
2, 139977, Note_on_c, 0, 65, 48
2, 140435, Note_on_c, 0, 65, 0
2, 140497, Note_on_c, 0, 60, 0
2, 140554, Note_on_c, 0, 72, 71
2, 140577, Note_on_c, 0, 65, 40
2, 140622, Note_on_c, 0, 58, 31
2, 140765, Note_on_c, 0, 58, 0
2, 140874, Note_on_c, 0, 68, 0
2, 140912, Note_on_c, 0, 72, 0
2, 140958, Note_on_c, 0, 65, 0
2, 141279, Note_on_c, 0, 72, 70
2, 141297, Note_on_c, 0, 69, 80
2, 141299, Note_on_c, 0, 65, 82
2, 141308, Note_on_c, 0, 60, 52
2, 141317, Note_on_c, 0, 58, 46
2, 141326, Note_on_c, 0, 62, 68
2, 141350, Control_c, 0, 64, 0
2, 141783, Control_c, 0, 64, 127
2, 141947, Note_on_c, 0, 72, 0
2, 142001, Note_on_c, 0, 73, 61
2, 142550, Note_on_c, 0, 73, 0
2, 142604, Note_on_c, 0, 72, 65
2, 142672, Note_on_c, 0, 62, 0
2, 142681, Note_on_c, 0, 60, 0
2, 142864, Note_on_c, 0, 58, 0
2, 143110, Note_on_c, 0, 72, 0
2, 143209, Note_on_c, 0, 73, 48
2, 143310, Note_on_c, 0, 65, 0
2, 143486, Note_on_c, 0, 69, 0
2, 143787, Note_on_c, 0, 73, 0
2, 143969, Note_on_c, 0, 64, 53
2, 143971, Note_on_c, 0, 68, 46
2, 143974, Note_on_c, 0, 72, 44
2, 143996, Note_on_c, 0, 48, 40
2, 144014, Note_on_c, 0, 58, 21
2, 144045, Control_c, 0, 64, 0
2, 144510, Control_c, 0, 64, 127
2, 144713, Note_on_c, 0, 68, 0
2, 145341, Note_on_c, 0, 67, 62
2, 146095, Note_on_c, 0, 64, 0
2, 146318, Note_on_c, 0, 64, 42
2, 146559, Note_on_c, 0, 67, 0
2, 146706, Note_on_c, 0, 72, 0
2, 146914, Note_on_c, 0, 58, 0
2, 147007, Note_on_c, 0, 64, 0
2, 147191, Note_on_c, 0, 60, 50
2, 147291, Note_on_c, 0, 48, 0
2, 147532, Note_on_c, 0, 60, 0
2, 148137, Note_on_c, 0, 70, 36
2, 148169, Note_on_c, 0, 63, 42
2, 148182, Note_on_c, 0, 67, 47
2, 148194, Note_on_c, 0, 41, 42
2, 148203, Note_on_c, 0, 58, 31
2, 148228, Note_on_c, 0, 53, 25
2, 148264, Control_c, 0, 64, 0
2, 148697, Control_c, 0, 64, 127
2, 148927, Note_on_c, 0, 48, 47
2, 149033, Note_on_c, 0, 53, 0
2, 149209, Note_on_c, 0, 58, 0
2, 149329, Note_on_c, 0, 70, 0
2, 149353, Note_on_c, 0, 48, 0
2, 149502, Note_on_c, 0, 58, 57
2, 149589, Note_on_c, 0, 67, 0
2, 149744, Note_on_c, 0, 63, 0
2, 149787, Note_on_c, 0, 41, 0
2, 149979, Note_on_c, 0, 58, 0
2, 150035, Note_on_c, 0, 70, 70
2, 150055, Note_on_c, 0, 63, 20
2, 150341, Note_on_c, 0, 63, 0
2, 150719, Note_on_c, 0, 46, 42
2, 150727, Note_on_c, 0, 65, 56
2, 150737, Note_on_c, 0, 56, 25
2, 150739, Note_on_c, 0, 62, 39
2, 150782, Control_c, 0, 64, 0
2, 151344, Control_c, 0, 64, 127
2, 151520, Note_on_c, 0, 53, 35
2, 151769, Note_on_c, 0, 56, 0
2, 151900, Note_on_c, 0, 65, 0
2, 151915, Note_on_c, 0, 62, 0
2, 152310, Note_on_c, 0, 63, 37
2, 152323, Note_on_c, 0, 60, 37
2, 152408, Note_on_c, 0, 56, 14
2, 152546, Control_c, 0, 64, 0
2, 152867, Control_c, 0, 64, 127
2, 152913, Note_on_c, 0, 46, 0
2, 153309, Note_on_c, 0, 60, 0
2, 153566, Note_on_c, 0, 63, 0
2, 154094, Note_on_c, 0, 62, 34
2, 154779, Note_on_c, 0, 62, 0
2, 154933, Note_on_c, 0, 56, 0
2, 154937, Note_on_c, 0, 53, 0
2, 155203, Note_on_c, 0, 70, 0
2, 155347, Note_on_c, 0, 46, 44
2, 155353, Note_on_c, 0, 70, 64
2, 155355, Note_on_c, 0, 61, 64
2, 155377, Control_c, 0, 64, 0
2, 155378, Note_on_c, 0, 56, 37
2, 155380, Note_on_c, 0, 65, 72
2, 155713, Control_c, 0, 64, 127
2, 155808, Note_on_c, 0, 70, 0
2, 155914, Note_on_c, 0, 72, 70
2, 156194, Note_on_c, 0, 72, 0
2, 156244, Note_on_c, 0, 61, 0
2, 156361, Note_on_c, 0, 70, 71
2, 156390, Note_on_c, 0, 61, 38
2, 156657, Note_on_c, 0, 56, 0
2, 156665, Note_on_c, 0, 61, 0
2, 156763, Note_on_c, 0, 72, 71
2, 156870, Note_on_c, 0, 65, 0
2, 157117, Note_on_c, 0, 72, 0
2, 157359, Note_on_c, 0, 61, 55
2, 157368, Note_on_c, 0, 64, 66
2, 157379, Note_on_c, 0, 55, 44
2, 157414, Control_c, 0, 64, 0
2, 157734, Control_c, 0, 64, 127
2, 157872, Note_on_c, 0, 46, 0
2, 159228, Note_on_c, 0, 61, 0
2, 159261, Note_on_c, 0, 64, 0
2, 159478, Note_on_c, 0, 70, 0
2, 159713, Note_on_c, 0, 70, 49
2, 159881, Note_on_c, 0, 55, 0
2, 161310, Note_on_c, 0, 70, 0
2, 161686, Note_on_c, 0, 72, 45
2, 161697, Note_on_c, 0, 60, 40
2, 161712, Note_on_c, 0, 67, 47
2, 161731, Note_on_c, 0, 44, 37
2, 161736, Note_on_c, 0, 51, 48
2, 161825, Control_c, 0, 64, 0
2, 162322, Control_c, 0, 64, 127
2, 163033, Note_on_c, 0, 60, 0
2, 163102, Note_on_c, 0, 72, 0
2, 163131, Note_on_c, 0, 67, 0
2, 163282, Note_on_c, 0, 51, 0
2, 163288, Note_on_c, 0, 44, 0
2, 163773, Note_on_c, 0, 73, 36
2, 163779, Note_on_c, 0, 61, 39
2, 163798, Note_on_c, 0, 45, 46
2, 163815, Note_on_c, 0, 68, 45
2, 163842, Note_on_c, 0, 55, 30
2, 163862, Control_c, 0, 64, 0
2, 164343, Control_c, 0, 64, 127
2, 165462, Note_on_c, 0, 55, 0
2, 165636, Note_on_c, 0, 45, 0
2, 165681, Note_on_c, 0, 61, 0
2, 166187, Note_on_c, 0, 68, 0
2, 166286, Note_on_c, 0, 73, 0
2, 166502, Note_on_c, 0, 74, 51
2, 166548, Note_on_c, 0, 62, 37
2, 167430, Note_on_c, 0, 74, 0
2, 167489, Note_on_c, 0, 62, 0
2, 168011, Note_on_c, 0, 75, 50
2, 168055, Note_on_c, 0, 63, 44
2, 168090, Note_on_c, 0, 56, 27
2, 168131, Control_c, 0, 64, 0
2, 168549, Control_c, 0, 64, 127
2, 168987, Note_on_c, 0, 56, 0
2, 169831, Note_on_c, 0, 75, 0
2, 170007, Note_on_c, 0, 63, 0
2, 171055, Note_on_c, 0, 61, 39
2, 171085, Note_on_c, 0, 66, 34
2, 171088, Note_on_c, 0, 70, 39
2, 171093, Note_on_c, 0, 52, 37
2, 171118, Note_on_c, 0, 56, 25
2, 171130, Note_on_c, 0, 62, 27
2, 171147, Control_c, 0, 64, 0
2, 171692, Control_c, 0, 64, 127
2, 171946, Note_on_c, 0, 61, 0
2, 172214, Note_on_c, 0, 66, 0
2, 172336, Note_on_c, 0, 70, 0
2, 173126, Note_on_c, 0, 73, 43
2, 173242, Note_on_c, 0, 62, 0
2, 173269, Note_on_c, 0, 52, 0
2, 173310, Note_on_c, 0, 56, 0
2, 173923, Note_on_c, 0, 73, 0
2, 174367, Note_on_c, 0, 80, 44
2, 174439, Note_on_c, 0, 56, 23
2, 174535, Control_c, 0, 64, 0
2, 174872, Control_c, 0, 64, 127
2, 175166, Note_on_c, 0, 75, 42
2, 175169, Note_on_c, 0, 70, 36
2, 175180, Note_on_c, 0, 66, 30
2, 175220, Note_on_c, 0, 61, 27
2, 175536, Note_on_c, 0, 80, 0
2, 175570, Note_on_c, 0, 56, 0
2, 175852, Note_on_c, 0, 80, 50
2, 175854, Note_on_c, 0, 56, 27
2, 175929, Note_on_c, 0, 61, 0
2, 176106, Note_on_c, 0, 66, 0
2, 176163, Note_on_c, 0, 75, 0
2, 176194, Note_on_c, 0, 70, 0
2, 176473, Note_on_c, 0, 75, 49
2, 176484, Note_on_c, 0, 66, 30
2, 176487, Note_on_c, 0, 70, 35
2, 176491, Note_on_c, 0, 61, 43
2, 176557, Note_on_c, 0, 80, 0
2, 176794, Note_on_c, 0, 56, 0
2, 177084, Note_on_c, 0, 80, 63
2, 177094, Note_on_c, 0, 56, 37
2, 177144, Note_on_c, 0, 61, 0
2, 177274, Note_on_c, 0, 66, 0
2, 177329, Note_on_c, 0, 75, 0
2, 177355, Note_on_c, 0, 70, 0
2, 177635, Note_on_c, 0, 61, 45
2, 177655, Note_on_c, 0, 75, 52
2, 177657, Note_on_c, 0, 66, 31
2, 177660, Note_on_c, 0, 70, 36
2, 177702, Note_on_c, 0, 80, 0
2, 177865, Note_on_c, 0, 56, 0
2, 178224, Note_on_c, 0, 80, 67
2, 178256, Note_on_c, 0, 56, 38
2, 178402, Note_on_c, 0, 75, 0
2, 178676, Note_on_c, 0, 66, 0
2, 178780, Note_on_c, 0, 70, 0
2, 178881, Note_on_c, 0, 80, 0
2, 178890, Note_on_c, 0, 66, 49
2, 178894, Note_on_c, 0, 75, 57
2, 178898, Note_on_c, 0, 70, 39
2, 178971, Note_on_c, 0, 56, 0
2, 179538, Note_on_c, 0, 70, 0
2, 179549, Note_on_c, 0, 80, 72
2, 179553, Note_on_c, 0, 56, 47
2, 179587, Note_on_c, 0, 61, 0
2, 179673, Note_on_c, 0, 75, 0
2, 179684, Control_c, 0, 64, 0
2, 179844, Control_c, 0, 64, 127
2, 179854, Note_on_c, 0, 66, 0
2, 180123, Note_on_c, 0, 66, 44
2, 180161, Note_on_c, 0, 69, 64
2, 180163, Note_on_c, 0, 74, 64
2, 180177, Note_on_c, 0, 62, 54
2, 180181, Control_c, 0, 64, 0
2, 180534, Control_c, 0, 64, 127
2, 180564, Note_on_c, 0, 56, 0
2, 180669, Note_on_c, 0, 80, 0
2, 180831, Note_on_c, 0, 56, 50
2, 180849, Note_on_c, 0, 80, 75
2, 180871, Note_on_c, 0, 69, 0
2, 180904, Note_on_c, 0, 78, 28
2, 180941, Note_on_c, 0, 62, 0
2, 181000, Note_on_c, 0, 74, 0
2, 181050, Note_on_c, 0, 66, 0
2, 181544, Note_on_c, 0, 69, 42
2, 181547, Note_on_c, 0, 66, 32
2, 181549, Note_on_c, 0, 74, 53
2, 181582, Note_on_c, 0, 62, 44
2, 182071, Note_on_c, 0, 56, 0
2, 182109, Note_on_c, 0, 80, 0
2, 182241, Note_on_c, 0, 78, 0
2, 182294, Note_on_c, 0, 56, 32
2, 182320, Note_on_c, 0, 80, 45
2, 182328, Note_on_c, 0, 69, 0
2, 182475, Note_on_c, 0, 66, 0
2, 182488, Note_on_c, 0, 62, 0
2, 182537, Note_on_c, 0, 74, 0
2, 183049, Note_on_c, 0, 66, 27
2, 183065, Note_on_c, 0, 74, 40
2, 183086, Note_on_c, 0, 69, 30
2, 183129, Note_on_c, 0, 62, 25
2, 183534, Note_on_c, 0, 56, 0
2, 183699, Note_on_c, 0, 80, 0
2, 183866, Note_on_c, 0, 69, 0
2, 183872, Note_on_c, 0, 56, 27
2, 184006, Note_on_c, 0, 62, 0
2, 184081, Note_on_c, 0, 66, 0
2, 184233, Note_on_c, 0, 74, 0
2, 184607, Note_on_c, 0, 74, 48
2, 184625, Note_on_c, 0, 66, 29
2, 184627, Note_on_c, 0, 69, 39
2, 184668, Note_on_c, 0, 62, 30
2, 184670, Note_on_c, 0, 56, 0
2, 184827, Note_on_c, 0, 69, 0
2, 184862, Note_on_c, 0, 74, 0
2, 185384, Note_on_c, 0, 62, 0
2, 185396, Note_on_c, 0, 84, 84
2, 185404, Note_on_c, 0, 56, 34
2, 185420, Note_on_c, 0, 66, 0
2, 185475, Control_c, 0, 64, 0
2, 185732, Control_c, 0, 64, 127
2, 185880, Note_on_c, 0, 56, 0
2, 186143, Note_on_c, 0, 72, 39
2, 186149, Note_on_c, 0, 84, 0
2, 186156, Note_on_c, 0, 77, 51
2, 186172, Note_on_c, 0, 68, 32
2, 186189, Note_on_c, 0, 80, 27
2, 186191, Note_on_c, 0, 65, 33
2, 186238, Note_on_c, 0, 63, 27
2, 186493, Note_on_c, 0, 68, 0
2, 186940, Note_on_c, 0, 56, 36
2, 187006, Note_on_c, 0, 72, 0
2, 187245, Note_on_c, 0, 65, 0
2, 187411, Note_on_c, 0, 77, 0
2, 187473, Note_on_c, 0, 80, 0
2, 187500, Note_on_c, 0, 56, 0
2, 187691, Note_on_c, 0, 63, 0
2, 187794, Note_on_c, 0, 85, 76
2, 187872, Note_on_c, 0, 77, 26
2, 188402, Note_on_c, 0, 77, 0
2, 188495, Note_on_c, 0, 85, 0
2, 189399, Note_on_c, 0, 84, 66
2, 189412, Note_on_c, 0, 77, 63
2, 189425, Note_on_c, 0, 66, 37
2, 189428, Note_on_c, 0, 72, 55
2, 189436, Control_c, 0, 64, 0
2, 189443, Note_on_c, 0, 61, 42
2, 189449, Note_on_c, 0, 63, 34
2, 189726, Control_c, 0, 64, 127
2, 189756, Note_on_c, 0, 84, 0
2, 189985, Note_on_c, 0, 72, 0
2, 190107, Note_on_c, 0, 56, 47
2, 190121, Note_on_c, 0, 85, 74
2, 190126, Control_c, 0, 64, 0
2, 190137, Note_on_c, 0, 61, 0
2, 190249, Note_on_c, 0, 66, 0
2, 190289, Note_on_c, 0, 63, 0
2, 190335, Control_c, 0, 64, 127
2, 190721, Note_on_c, 0, 77, 0
2, 190972, Note_on_c, 0, 85, 0
2, 191534, Note_on_c, 0, 84, 69
2, 191558, Note_on_c, 0, 73, 33
2, 191569, Note_on_c, 0, 76, 55
2, 191575, Note_on_c, 0, 64, 52
2, 191610, Note_on_c, 0, 80, 23
2, 191634, Control_c, 0, 64, 0
2, 191672, Note_on_c, 0, 80, 0
2, 191900, Note_on_c, 0, 84, 0
2, 191940, Control_c, 0, 64, 127
2, 191990, Note_on_c, 0, 56, 0
2, 192188, Note_on_c, 0, 85, 75
2, 192222, Note_on_c, 0, 56, 37
2, 192246, Note_on_c, 0, 76, 0
2, 192351, Note_on_c, 0, 64, 0
2, 192481, Note_on_c, 0, 85, 0
2, 192524, Note_on_c, 0, 73, 0
2, 192830, Note_on_c, 0, 75, 52
2, 192851, Note_on_c, 0, 65, 47
2, 192853, Note_on_c, 0, 72, 57
2, 192855, Note_on_c, 0, 84, 45
2, 192859, Control_c, 0, 64, 0
2, 192905, Note_on_c, 0, 83, 24
2, 192968, Note_on_c, 0, 83, 0
2, 193145, Note_on_c, 0, 84, 0
2, 193210, Control_c, 0, 64, 127
2, 193254, Note_on_c, 0, 56, 0
2, 193391, Note_on_c, 0, 75, 0
2, 193403, Note_on_c, 0, 72, 0
2, 193504, Note_on_c, 0, 85, 64
2, 193543, Note_on_c, 0, 56, 35
2, 193631, Note_on_c, 0, 65, 0
2, 193666, Note_on_c, 0, 85, 0
2, 194177, Note_on_c, 0, 80, 52
2, 194197, Note_on_c, 0, 75, 48
2, 194204, Note_on_c, 0, 72, 37
2, 194230, Note_on_c, 0, 65, 32
2, 194606, Note_on_c, 0, 56, 0
2, 194948, Note_on_c, 0, 56, 28
2, 194989, Note_on_c, 0, 65, 0
2, 195192, Note_on_c, 0, 80, 0
2, 195248, Note_on_c, 0, 72, 0
2, 195405, Note_on_c, 0, 75, 0
2, 196006, Note_on_c, 0, 79, 44
2, 196014, Note_on_c, 0, 66, 35
2, 196017, Note_on_c, 0, 76, 47
2, 196028, Note_on_c, 0, 74, 40
2, 196043, Note_on_c, 0, 71, 41
2, 196098, Control_c, 0, 64, 0
2, 196511, Note_on_c, 0, 56, 0
2, 196547, Control_c, 0, 64, 127
2, 196821, Note_on_c, 0, 79, 0
2, 196862, Note_on_c, 0, 77, 13
2, 196864, Note_on_c, 0, 56, 33
2, 196881, Note_on_c, 0, 76, 0
2, 196943, Note_on_c, 0, 74, 0
2, 196969, Note_on_c, 0, 71, 0
2, 197039, Note_on_c, 0, 66, 0
2, 197215, Note_on_c, 0, 77, 0
2, 197753, Note_on_c, 0, 78, 40
2, 197809, Note_on_c, 0, 73, 30
2, 197814, Note_on_c, 0, 70, 39
2, 197817, Note_on_c, 0, 66, 28
2, 197833, Note_on_c, 0, 62, 28
2, 197879, Control_c, 0, 64, 0
2, 198376, Control_c, 0, 64, 127
2, 198404, Note_on_c, 0, 56, 0
2, 198771, Note_on_c, 0, 56, 27
2, 198964, Note_on_c, 0, 62, 0
2, 199209, Note_on_c, 0, 66, 0
2, 199308, Note_on_c, 0, 78, 0
2, 199385, Note_on_c, 0, 70, 0
2, 199740, Note_on_c, 0, 73, 0
2, 199978, Note_on_c, 0, 77, 67
2, 200004, Note_on_c, 0, 73, 53
2, 200015, Note_on_c, 0, 72, 74
2, 200036, Note_on_c, 0, 67, 72
2, 200059, Note_on_c, 0, 65, 49
2, 200092, Control_c, 0, 64, 0
2, 200566, Note_on_c, 0, 56, 0
2, 200718, Control_c, 0, 64, 127
2, 200753, Note_on_c, 0, 56, 56
2, 201046, Note_on_c, 0, 72, 0
2, 201069, Note_on_c, 0, 67, 0
2, 201161, Note_on_c, 0, 73, 0
2, 201396, Note_on_c, 0, 65, 0
2, 201465, Note_on_c, 0, 73, 36
2, 201469, Note_on_c, 0, 72, 64
2, 201476, Note_on_c, 0, 67, 64
2, 201593, Note_on_c, 0, 56, 0
2, 202287, Note_on_c, 0, 39, 57
2, 202354, Control_c, 0, 64, 0
2, 202360, Note_on_c, 0, 72, 0
2, 202364, Note_on_c, 0, 77, 0
2, 202384, Note_on_c, 0, 73, 0
2, 202437, Note_on_c, 0, 67, 0
2, 202579, Control_c, 0, 64, 127
2, 203105, Note_on_c, 0, 58, 45
2, 203118, Note_on_c, 0, 63, 36
2, 203145, Note_on_c, 0, 61, 46
2, 203164, Note_on_c, 0, 55, 16
2, 203169, Note_on_c, 0, 46, 35
2, 203204, Control_c, 0, 64, 0
2, 203429, Control_c, 0, 64, 127
2, 203822, Note_on_c, 0, 55, 0
2, 204010, Note_on_c, 0, 51, 43
2, 204073, Note_on_c, 0, 58, 0
2, 204360, Note_on_c, 0, 61, 0
2, 204364, Note_on_c, 0, 39, 0
2, 204490, Note_on_c, 0, 46, 0
2, 204530, Note_on_c, 0, 63, 0
2, 204602, Note_on_c, 0, 51, 0
2, 205076, Note_on_c, 0, 54, 50
2, 205078, Note_on_c, 0, 66, 51
2, 205087, Note_on_c, 0, 61, 64
2, 205100, Note_on_c, 0, 63, 59
2, 205145, Control_c, 0, 64, 0
2, 205369, Control_c, 0, 64, 127
2, 205507, Note_on_c, 0, 66, 0
2, 205668, Note_on_c, 0, 61, 0
2, 205712, Note_on_c, 0, 63, 0
2, 205765, Note_on_c, 0, 54, 0
2, 205814, Note_on_c, 0, 56, 35
2, 205819, Note_on_c, 0, 68, 71
2, 205832, Note_on_c, 0, 61, 64
2, 205894, Note_on_c, 0, 63, 27
2, 205927, Note_on_c, 0, 56, 0
2, 206070, Note_on_c, 0, 68, 0
2, 206107, Note_on_c, 0, 61, 0
2, 206162, Note_on_c, 0, 63, 0
2, 206950, Note_on_c, 0, 65, 77
2, 206969, Note_on_c, 0, 44, 47
2, 206971, Note_on_c, 0, 54, 60
2, 206975, Control_c, 0, 64, 0
2, 206977, Note_on_c, 0, 58, 56
2, 206978, Note_on_c, 0, 61, 49
2, 207012, Note_on_c, 0, 51, 34
2, 207519, Control_c, 0, 64, 127
2, 208275, Note_on_c, 0, 61, 0
2, 208376, Note_on_c, 0, 58, 0
2, 208450, Note_on_c, 0, 54, 0
2, 208883, Note_on_c, 0, 54, 38
2, 208916, Note_on_c, 0, 61, 43
2, 208922, Note_on_c, 0, 58, 42
2, 209349, Note_on_c, 0, 51, 0
2, 209428, Note_on_c, 0, 44, 0
2, 209928, Note_on_c, 0, 32, 69
2, 210005, Control_c, 0, 64, 0
2, 210134, Control_c, 0, 64, 127
2, 210286, Note_on_c, 0, 32, 0
2, 210321, Note_on_c, 0, 61, 0
2, 210459, Note_on_c, 0, 54, 0
2, 210611, Note_on_c, 0, 65, 0
2, 210692, Note_on_c, 0, 58, 0
2, 211112, Note_on_c, 0, 44, 70
2, 211116, Note_on_c, 0, 62, 74
2, 211119, Note_on_c, 0, 65, 78
2, 211131, Note_on_c, 0, 57, 80
2, 211140, Note_on_c, 0, 54, 77
2, 211161, Control_c, 0, 64, 0
2, 211866, Control_c, 0, 64, 127
2, 212564, Note_on_c, 0, 44, 0
2, 212622, Note_on_c, 0, 44, 34
2, 213268, Note_on_c, 0, 62, 0
2, 213277, Note_on_c, 0, 57, 0
2, 213315, Note_on_c, 0, 65, 0
2, 213401, Note_on_c, 0, 54, 0
2, 213588, Note_on_c, 0, 54, 53
2, 213601, Note_on_c, 0, 63, 34
2, 213613, Note_on_c, 0, 57, 60
2, 213620, Note_on_c, 0, 51, 44
2, 213663, Control_c, 0, 64, 0
2, 213904, Control_c, 0, 64, 127
2, 214576, Note_on_c, 0, 61, 71
2, 214586, Note_on_c, 0, 51, 0
2, 214649, Note_on_c, 0, 44, 0
2, 215254, Note_on_c, 0, 57, 0
2, 215414, Note_on_c, 0, 54, 0
2, 216244, Note_on_c, 0, 61, 0
2, 216408, Note_on_c, 0, 63, 0
2, 217215, Note_on_c, 0, 72, 68
2, 217229, Note_on_c, 0, 67, 81
2, 217242, Note_on_c, 0, 48, 57
2, 217247, Note_on_c, 0, 62, 84
2, 217275, Note_on_c, 0, 57, 61
2, 217301, Control_c, 0, 64, 0
2, 217766, Control_c, 0, 64, 127
2, 219796, Note_on_c, 0, 67, 0
2, 220035, Note_on_c, 0, 62, 0
2, 220229, Note_on_c, 0, 72, 0
2, 220626, Note_on_c, 0, 48, 0
2, 220776, Note_on_c, 0, 71, 62
2, 220778, Note_on_c, 0, 57, 0
2, 220800, Note_on_c, 0, 61, 49
2, 220805, Note_on_c, 0, 48, 44
2, 220807, Note_on_c, 0, 66, 49
2, 220813, Control_c, 0, 64, 0
2, 220827, Note_on_c, 0, 56, 34
2, 221343, Control_c, 0, 64, 127
2, 222217, Note_on_c, 0, 61, 0
2, 222604, Note_on_c, 0, 66, 0
2, 222605, Note_on_c, 0, 71, 0
2, 222821, Note_on_c, 0, 72, 51
2, 222827, Note_on_c, 0, 56, 0
2, 222842, Note_on_c, 0, 67, 43
2, 222850, Control_c, 0, 64, 0
2, 222853, Note_on_c, 0, 62, 40
2, 222875, Note_on_c, 0, 57, 41
2, 223172, Control_c, 0, 64, 127
2, 223671, Note_on_c, 0, 48, 0
2, 223963, Note_on_c, 0, 62, 0
2, 224192, Note_on_c, 0, 72, 0
2, 224200, Note_on_c, 0, 67, 0
2, 224871, Note_on_c, 0, 57, 0
2, 224978, Note_on_c, 0, 73, 35
2, 225012, Note_on_c, 0, 65, 36
2, 225027, Note_on_c, 0, 68, 35
2, 225065, Control_c, 0, 64, 0
2, 225082, Note_on_c, 0, 49, 31
2, 225818, Control_c, 0, 64, 127
2, 226210, Note_on_c, 0, 65, 0
2, 226317, Note_on_c, 0, 68, 0
2, 226493, Note_on_c, 0, 73, 0
2, 226896, Note_on_c, 0, 49, 0
2, 231800, Note_on_c, 0, 70, 77
2, 231864, Note_on_c, 0, 58, 37
2, 232219, Note_on_c, 0, 70, 0
2, 232309, Note_on_c, 0, 61, 57
2, 232311, Note_on_c, 0, 58, 0
2, 232328, Note_on_c, 0, 73, 38
2, 232560, Control_c, 0, 64, 127
2, 232975, Note_on_c, 0, 61, 0
2, 233049, Note_on_c, 0, 73, 0
2, 233100, Note_on_c, 0, 68, 59
2, 233121, Note_on_c, 0, 80, 69
2, 233150, Control_c, 0, 64, 0
2, 233334, Control_c, 0, 64, 127
2, 233527, Note_on_c, 0, 68, 0
2, 233671, Note_on_c, 0, 80, 0
2, 234847, Control_c, 0, 64, 0
2, 234935, Note_on_c, 0, 65, 40
2, 234961, Note_on_c, 0, 39, 30
2, 234970, Note_on_c, 0, 61, 31
2, 234994, Note_on_c, 0, 54, 14
2, 235003, Note_on_c, 0, 27, 35
2, 235106, Control_c, 0, 64, 127
2, 235498, Note_on_c, 0, 54, 0
2, 235538, Note_on_c, 0, 61, 0
2, 235583, Note_on_c, 0, 65, 0
2, 235608, Note_on_c, 0, 27, 0
2, 235649, Note_on_c, 0, 39, 0
2, 235811, Note_on_c, 0, 54, 47
2, 235820, Note_on_c, 0, 65, 45
2, 235824, Note_on_c, 0, 27, 49
2, 235833, Note_on_c, 0, 39, 43
2, 235842, Note_on_c, 0, 61, 37
2, 235851, Note_on_c, 0, 58, 43
2, 235899, Control_c, 0, 64, 0
2, 236024, Note_on_c, 0, 54, 0
2, 236059, Note_on_c, 0, 58, 0
2, 236103, Note_on_c, 0, 27, 0
2, 236114, Note_on_c, 0, 65, 0
2, 236127, Note_on_c, 0, 61, 0
2, 236149, Note_on_c, 0, 39, 0
2, 237138, Note_on_c, 0, 46, 42
2, 237159, Note_on_c, 0, 58, 34
2, 237246, Control_c, 0, 64, 127
2, 237478, Note_on_c, 0, 58, 0
2, 237506, Control_c, 0, 64, 0
2, 237583, Note_on_c, 0, 46, 0
2, 237625, Note_on_c, 0, 61, 54
2, 237682, Note_on_c, 0, 49, 35
2, 237765, Control_c, 0, 64, 127
2, 237982, Note_on_c, 0, 61, 0
2, 238438, Note_on_c, 0, 49, 0
2, 238473, Note_on_c, 0, 68, 59
2, 238576, Control_c, 0, 64, 0
2, 238705, Control_c, 0, 64, 127
2, 239425, Control_c, 0, 64, 0
2, 239750, Note_on_c, 0, 60, 31
2, 239754, Note_on_c, 0, 54, 26
2, 239761, Note_on_c, 0, 44, 35
2, 239772, Note_on_c, 0, 64, 34
2, 239905, Note_on_c, 0, 64, 0
2, 239945, Note_on_c, 0, 54, 0
2, 239986, Note_on_c, 0, 60, 0
2, 240048, Note_on_c, 0, 44, 0
2, 240413, Note_on_c, 0, 60, 34
2, 240451, Note_on_c, 0, 64, 30
2, 240453, Note_on_c, 0, 54, 25
2, 240459, Note_on_c, 0, 44, 32
2, 240582, Note_on_c, 0, 64, 0
2, 240635, Note_on_c, 0, 54, 0
2, 240637, Note_on_c, 0, 60, 0
2, 240701, Note_on_c, 0, 44, 0
2, 241250, Note_on_c, 0, 44, 35
2, 241259, Note_on_c, 0, 54, 25
2, 241263, Note_on_c, 0, 60, 30
2, 241274, Note_on_c, 0, 64, 32
2, 241620, Note_on_c, 0, 64, 0
2, 241633, Note_on_c, 0, 54, 0
2, 241638, Control_c, 0, 64, 127
2, 241725, Note_on_c, 0, 60, 0
2, 242414, Note_on_c, 0, 68, 0
2, 242450, Control_c, 0, 64, 0
2, 242516, Note_on_c, 0, 44, 0
2, 242571, Note_on_c, 0, 58, 81
2, 242577, Note_on_c, 0, 46, 71
2, 242689, Control_c, 0, 64, 127
2, 243022, Note_on_c, 0, 58, 0
2, 243040, Control_c, 0, 64, 0
2, 243143, Note_on_c, 0, 61, 82
2, 243150, Note_on_c, 0, 49, 71
2, 243266, Note_on_c, 0, 46, 0
2, 243279, Control_c, 0, 64, 127
2, 243386, Note_on_c, 0, 49, 0
2, 243430, Note_on_c, 0, 61, 0
2, 244442, Control_c, 0, 64, 0
2, 244501, Note_on_c, 0, 37, 55
2, 244514, Note_on_c, 0, 72, 71
2, 244519, Note_on_c, 0, 44, 67
2, 244527, Note_on_c, 0, 68, 62
2, 244529, Note_on_c, 0, 60, 74
2, 244530, Note_on_c, 0, 65, 83
2, 244773, Control_c, 0, 64, 127
2, 245340, Note_on_c, 0, 72, 0
2, 245373, Note_on_c, 0, 60, 0
2, 245603, Note_on_c, 0, 65, 0
2, 245609, Note_on_c, 0, 68, 0
2, 245673, Note_on_c, 0, 44, 0
2, 245841, Note_on_c, 0, 73, 49
2, 245846, Control_c, 0, 64, 0
2, 245861, Note_on_c, 0, 61, 62
2, 245872, Note_on_c, 0, 44, 37
2, 245878, Note_on_c, 0, 65, 66
2, 245879, Note_on_c, 0, 68, 44
2, 246047, Control_c, 0, 64, 127
2, 246288, Note_on_c, 0, 73, 0
2, 246297, Note_on_c, 0, 37, 0
2, 246369, Note_on_c, 0, 65, 0
2, 246415, Note_on_c, 0, 68, 0
2, 246422, Note_on_c, 0, 61, 0
2, 246468, Note_on_c, 0, 44, 0
2, 247191, Note_on_c, 0, 39, 47
2, 247202, Note_on_c, 0, 54, 56
2, 247210, Control_c, 0, 64, 0
2, 247217, Note_on_c, 0, 61, 55
2, 247219, Note_on_c, 0, 66, 49
2, 247559, Control_c, 0, 64, 127
2, 247914, Note_on_c, 0, 39, 0
2, 247933, Note_on_c, 0, 54, 0
2, 248109, Note_on_c, 0, 61, 0
2, 248496, Note_on_c, 0, 40, 39
2, 248501, Control_c, 0, 64, 0
2, 248512, Note_on_c, 0, 55, 33
2, 248522, Note_on_c, 0, 60, 34
2, 248538, Note_on_c, 0, 51, 23
2, 248943, Control_c, 0, 64, 127
2, 248987, Note_on_c, 0, 60, 0
2, 249053, Note_on_c, 0, 66, 0
2, 249092, Note_on_c, 0, 40, 0
2, 249222, Note_on_c, 0, 55, 0
2, 249282, Note_on_c, 0, 51, 0
2, 249589, Control_c, 0, 64, 0
2, 249758, Note_on_c, 0, 60, 31
2, 249769, Note_on_c, 0, 53, 35
2, 249791, Note_on_c, 0, 56, 25
2, 249800, Note_on_c, 0, 41, 37
2, 249826, Note_on_c, 0, 51, 25
2, 249901, Control_c, 0, 64, 127
2, 249948, Note_on_c, 0, 53, 0
2, 250025, Note_on_c, 0, 41, 0
2, 250052, Note_on_c, 0, 56, 0
2, 250056, Note_on_c, 0, 60, 0
2, 250194, Note_on_c, 0, 51, 0
2, 250709, Note_on_c, 0, 72, 79
2, 250713, Note_on_c, 0, 65, 80
2, 250720, Note_on_c, 0, 63, 73
2, 250726, Note_on_c, 0, 68, 54
2, 250862, Control_c, 0, 64, 0
2, 251066, Note_on_c, 0, 60, 39
2, 251193, Control_c, 0, 64, 127
2, 251272, Note_on_c, 0, 68, 0
2, 251370, Note_on_c, 0, 65, 0
2, 251416, Note_on_c, 0, 60, 0
2, 251456, Note_on_c, 0, 63, 0
2, 251486, Note_on_c, 0, 72, 0
2, 251572, Note_on_c, 0, 68, 62
2, 252244, Control_c, 0, 64, 0
2, 252356, Note_on_c, 0, 46, 52
2, 252413, Note_on_c, 0, 68, 0
2, 252485, Control_c, 0, 64, 127
2, 252511, Note_on_c, 0, 46, 0
2, 253278, Note_on_c, 0, 66, 36
2, 253284, Note_on_c, 0, 82, 58
2, 253293, Note_on_c, 0, 75, 62
2, 253298, Control_c, 0, 64, 0
2, 253313, Note_on_c, 0, 56, 23
2, 253326, Note_on_c, 0, 62, 38
2, 253335, Note_on_c, 0, 70, 34
2, 253556, Control_c, 0, 64, 127
2, 253867, Note_on_c, 0, 75, 0
2, 253893, Note_on_c, 0, 70, 0
2, 253984, Note_on_c, 0, 82, 0
2, 254452, Note_on_c, 0, 85, 63
2, 254457, Note_on_c, 0, 73, 46
2, 254479, Note_on_c, 0, 66, 0
2, 254512, Note_on_c, 0, 56, 0
2, 254533, Note_on_c, 0, 62, 0
2, 254595, Note_on_c, 0, 73, 0
2, 254687, Note_on_c, 0, 85, 0
2, 255760, Note_on_c, 0, 39, 59
2, 255845, Note_on_c, 0, 39, 0
2, 256444, Note_on_c, 0, 60, 57
2, 256461, Note_on_c, 0, 65, 76
2, 256481, Note_on_c, 0, 61, 46
2, 256485, Note_on_c, 0, 56, 42
2, 256505, Control_c, 0, 64, 0
2, 256783, Control_c, 0, 64, 127
2, 257037, Note_on_c, 0, 60, 0
2, 257107, Note_on_c, 0, 65, 0
2, 257171, Note_on_c, 0, 56, 0
2, 257203, Note_on_c, 0, 61, 0
2, 257319, Control_c, 0, 64, 0
2, 257324, Note_on_c, 0, 55, 58
2, 257330, Note_on_c, 0, 89, 67
2, 257331, Note_on_c, 0, 77, 65
2, 257333, Note_on_c, 0, 65, 58
2, 257346, Note_on_c, 0, 61, 46
2, 257686, Control_c, 0, 64, 127
2, 258273, Note_on_c, 0, 89, 0
2, 258325, Note_on_c, 0, 77, 0
2, 258642, Note_on_c, 0, 90, 80
2, 258645, Note_on_c, 0, 78, 82
2, 258951, Note_on_c, 0, 78, 0
2, 258967, Note_on_c, 0, 90, 0
2, 259192, Note_on_c, 0, 92, 88
2, 259193, Note_on_c, 0, 80, 81
2, 259227, Note_on_c, 0, 65, 0
2, 259240, Note_on_c, 0, 55, 0
2, 259366, Note_on_c, 0, 61, 0
2, 259464, Note_on_c, 0, 92, 0
2, 259528, Note_on_c, 0, 80, 0
2, 260060, Note_on_c, 0, 78, 82
2, 260064, Note_on_c, 0, 89, 87
2, 260066, Note_on_c, 0, 82, 75
2, 260067, Note_on_c, 0, 85, 75
2, 260073, Control_c, 0, 64, 0
2, 260084, Note_on_c, 0, 65, 83
2, 260086, Note_on_c, 0, 61, 67
2, 260090, Note_on_c, 0, 54, 60
2, 260091, Note_on_c, 0, 58, 59
2, 260390, Control_c, 0, 64, 127
2, 260415, Note_on_c, 0, 89, 0
2, 260452, Note_on_c, 0, 82, 0
2, 260472, Note_on_c, 0, 85, 0
2, 260498, Note_on_c, 0, 65, 0
2, 260535, Note_on_c, 0, 78, 0
2, 260553, Note_on_c, 0, 58, 0
2, 260568, Note_on_c, 0, 61, 0
2, 260618, Note_on_c, 0, 54, 0
2, 261435, Note_on_c, 0, 65, 60
2, 261455, Note_on_c, 0, 44, 48
2, 261458, Control_c, 0, 64, 0
2, 261470, Note_on_c, 0, 58, 38
2, 261494, Note_on_c, 0, 61, 35
2, 261516, Note_on_c, 0, 54, 15
2, 261808, Note_on_c, 0, 58, 0
2, 261812, Note_on_c, 0, 65, 0
2, 261828, Control_c, 0, 64, 127
2, 261865, Note_on_c, 0, 54, 0
2, 261867, Note_on_c, 0, 61, 0
2, 261911, Note_on_c, 0, 44, 0
2, 261976, Control_c, 0, 64, 0
2, 262027, Note_on_c, 0, 54, 44
2, 262034, Note_on_c, 0, 65, 54
2, 262047, Note_on_c, 0, 44, 48
2, 262049, Note_on_c, 0, 58, 47
2, 262062, Note_on_c, 0, 61, 34
2, 262180, Control_c, 0, 64, 127
2, 262559, Note_on_c, 0, 58, 0
2, 262570, Note_on_c, 0, 61, 0
2, 262605, Note_on_c, 0, 54, 0
2, 262633, Note_on_c, 0, 65, 0
2, 262669, Note_on_c, 0, 44, 0
2, 262838, Note_on_c, 0, 44, 59
2, 262853, Note_on_c, 0, 54, 65
2, 262859, Note_on_c, 0, 65, 69
2, 262866, Note_on_c, 0, 58, 64
2, 262872, Note_on_c, 0, 61, 59
2, 263164, Note_on_c, 0, 61, 0
2, 263234, Note_on_c, 0, 54, 0
2, 263245, Note_on_c, 0, 65, 0
2, 263269, Note_on_c, 0, 44, 0
2, 263280, Note_on_c, 0, 58, 0
2, 263414, Control_c, 0, 64, 0
2, 263444, Note_on_c, 0, 65, 55
2, 263444, Note_on_c, 0, 54, 69
2, 263451, Note_on_c, 0, 44, 53
2, 263466, Note_on_c, 0, 57, 79
2, 263492, Note_on_c, 0, 60, 48
2, 263876, Control_c, 0, 64, 127
2, 264114, Note_on_c, 0, 65, 0
2, 264209, Note_on_c, 0, 60, 0
2, 264230, Note_on_c, 0, 54, 0
2, 264312, Note_on_c, 0, 54, 29
2, 264322, Note_on_c, 0, 63, 31
2, 264785, Note_on_c, 0, 57, 0
2, 264828, Note_on_c, 0, 63, 0
2, 264896, Note_on_c, 0, 44, 0
2, 264960, Note_on_c, 0, 54, 0
2, 265530, Note_on_c, 0, 61, 65
2, 265536, Control_c, 0, 64, 0
2, 265560, Note_on_c, 0, 53, 51
2, 265576, Note_on_c, 0, 56, 38
2, 265814, Control_c, 0, 64, 127
2, 265974, Note_on_c, 0, 56, 0
2, 265976, Note_on_c, 0, 53, 0
2, 266001, Note_on_c, 0, 61, 0
2, 266182, Control_c, 0, 64, 0
2, 266266, Note_on_c, 0, 60, 41
2, 266276, Note_on_c, 0, 25, 34
2, 266292, Note_on_c, 0, 53, 43
2, 266296, Note_on_c, 0, 56, 29
2, 266515, Control_c, 0, 64, 127
2, 266517, Note_on_c, 0, 53, 0
2, 266587, Note_on_c, 0, 56, 0
2, 266590, Note_on_c, 0, 60, 0
2, 266660, Note_on_c, 0, 25, 0
2, 267181, Note_on_c, 0, 75, 57
2, 267188, Note_on_c, 0, 65, 60
2, 267198, Note_on_c, 0, 68, 46
2, 267210, Note_on_c, 0, 72, 48
2, 267297, Note_on_c, 0, 63, 51
2, 267475, Note_on_c, 0, 72, 0
2, 267521, Note_on_c, 0, 65, 0
2, 267532, Note_on_c, 0, 75, 0
2, 267532, Note_on_c, 0, 68, 0
2, 267584, Control_c, 0, 64, 0
2, 267601, Note_on_c, 0, 61, 42
2, 267623, Note_on_c, 0, 63, 0
2, 267634, Note_on_c, 0, 73, 26
2, 267816, Note_on_c, 0, 73, 0
2, 268020, Note_on_c, 0, 75, 56
2, 268024, Note_on_c, 0, 65, 62
2, 268027, Note_on_c, 0, 68, 45
2, 268035, Note_on_c, 0, 63, 55
2, 268042, Note_on_c, 0, 72, 47
2, 268059, Note_on_c, 0, 61, 0
2, 268193, Control_c, 0, 64, 127
2, 268423, Note_on_c, 0, 72, 0
2, 268427, Note_on_c, 0, 68, 0
2, 268438, Note_on_c, 0, 65, 0
2, 268592, Note_on_c, 0, 75, 0
2, 268611, Note_on_c, 0, 63, 0
2, 268710, Control_c, 0, 64, 0
2, 268736, Note_on_c, 0, 61, 49
2, 268763, Note_on_c, 0, 73, 38
2, 268773, Note_on_c, 0, 65, 48
2, 268780, Note_on_c, 0, 68, 53
2, 268876, Control_c, 0, 64, 127
2, 269111, Note_on_c, 0, 65, 0
2, 269128, Note_on_c, 0, 68, 0
2, 269221, Note_on_c, 0, 73, 0
2, 269255, Note_on_c, 0, 61, 0
2, 269280, Control_c, 0, 64, 0
2, 269336, Note_on_c, 0, 60, 31
2, 269341, Note_on_c, 0, 72, 39
2, 269343, Note_on_c, 0, 65, 41
2, 269345, Note_on_c, 0, 68, 36
2, 269614, Control_c, 0, 64, 127
2, 269913, Note_on_c, 0, 65, 0
2, 269939, Note_on_c, 0, 68, 0
2, 269983, Note_on_c, 0, 72, 0
2, 270026, Note_on_c, 0, 60, 0
2, 270118, Note_on_c, 0, 73, 36
2, 270134, Note_on_c, 0, 61, 36
2, 270158, Note_on_c, 0, 68, 44
2, 270162, Note_on_c, 0, 65, 39
2, 270443, Control_c, 0, 64, 0
2, 270462, Note_on_c, 0, 65, 0
2, 270526, Note_on_c, 0, 73, 0
2, 270622, Note_on_c, 0, 61, 0
2, 270638, Note_on_c, 0, 72, 38
2, 270651, Note_on_c, 0, 60, 31
2, 270686, Note_on_c, 0, 65, 29
2, 270795, Control_c, 0, 64, 127
2, 270942, Note_on_c, 0, 68, 0
2, 271120, Note_on_c, 0, 65, 0
2, 271435, Note_on_c, 0, 60, 0
2, 271459, Control_c, 0, 64, 0
2, 271461, Note_on_c, 0, 65, 53
2, 271463, Note_on_c, 0, 68, 46
2, 271474, Note_on_c, 0, 56, 31
2, 271718, Note_on_c, 0, 56, 0
2, 271779, Note_on_c, 0, 65, 0
2, 271790, Control_c, 0, 64, 127
2, 271915, Note_on_c, 0, 68, 0
2, 272414, Note_on_c, 0, 72, 0
2, 272657, Control_c, 0, 64, 0
2, 272664, Note_on_c, 0, 70, 45
2, 272670, Note_on_c, 0, 61, 39
2, 272686, Note_on_c, 0, 52, 40
2, 272688, Note_on_c, 0, 66, 45
2, 272716, Note_on_c, 0, 56, 25
2, 272719, Note_on_c, 0, 62, 30
2, 272933, Note_on_c, 0, 61, 0
2, 272988, Control_c, 0, 64, 127
2, 273027, Note_on_c, 0, 66, 0
2, 273073, Note_on_c, 0, 70, 0
2, 273796, Note_on_c, 0, 82, 49
2, 273832, Note_on_c, 0, 70, 40
2, 273926, Note_on_c, 0, 70, 0
2, 274022, Note_on_c, 0, 82, 0
2, 274626, Note_on_c, 0, 90, 52
2, 274653, Note_on_c, 0, 78, 33
2, 275259, Note_on_c, 0, 78, 0
2, 275273, Note_on_c, 0, 90, 0
2, 275501, Note_on_c, 0, 90, 35
2, 275540, Note_on_c, 0, 78, 25
2, 275974, Note_on_c, 0, 62, 0
2, 276076, Note_on_c, 0, 56, 0
2, 276109, Note_on_c, 0, 52, 0
2, 276592, Note_on_c, 0, 78, 0
2, 276729, Note_on_c, 0, 90, 0
2, 277233, Control_c, 0, 64, 0
2, 277290, Note_on_c, 0, 39, 43
2, 277332, Note_on_c, 0, 54, 25
2, 277454, Control_c, 0, 64, 127
2, 277478, Note_on_c, 0, 39, 0
2, 277654, Note_on_c, 0, 54, 0
2, 278177, Note_on_c, 0, 58, 68
2, 278179, Note_on_c, 0, 61, 82
2, 278182, Note_on_c, 0, 68, 77
2, 278184, Note_on_c, 0, 54, 50
2, 278193, Note_on_c, 0, 65, 80
2, 278203, Note_on_c, 0, 56, 58
2, 278247, Control_c, 0, 64, 0
2, 278375, Control_c, 0, 64, 127
2, 278545, Note_on_c, 0, 58, 0
2, 278598, Note_on_c, 0, 61, 0
2, 278602, Note_on_c, 0, 56, 0
2, 278622, Note_on_c, 0, 65, 0
2, 278663, Note_on_c, 0, 54, 0
2, 278681, Note_on_c, 0, 68, 0
2, 278745, Control_c, 0, 64, 0
2, 278788, Note_on_c, 0, 68, 72
2, 278791, Note_on_c, 0, 61, 71
2, 278793, Note_on_c, 0, 58, 75
2, 278795, Note_on_c, 0, 54, 43
2, 278806, Note_on_c, 0, 65, 67
2, 278808, Note_on_c, 0, 56, 64
2, 279040, Control_c, 0, 64, 127
2, 279189, Note_on_c, 0, 65, 0
2, 279205, Note_on_c, 0, 58, 0
2, 279227, Note_on_c, 0, 56, 0
2, 279261, Note_on_c, 0, 54, 0
2, 279283, Note_on_c, 0, 61, 0
2, 279331, Note_on_c, 0, 68, 0
2, 279465, Control_c, 0, 64, 0
2, 279588, Note_on_c, 0, 59, 66
2, 279606, Note_on_c, 0, 66, 71
2, 279608, Note_on_c, 0, 69, 71
2, 279612, Note_on_c, 0, 62, 80
2, 279640, Note_on_c, 0, 55, 49
2, 279724, Note_on_c, 0, 55, 0
2, 279857, Control_c, 0, 64, 127
2, 279892, Note_on_c, 0, 59, 0
2, 279897, Note_on_c, 0, 69, 0
2, 279910, Note_on_c, 0, 62, 0
2, 280067, Note_on_c, 0, 66, 0
2, 280077, Control_c, 0, 64, 0
2, 280184, Note_on_c, 0, 58, 52
2, 280186, Note_on_c, 0, 54, 40
2, 280190, Note_on_c, 0, 61, 57
2, 280194, Note_on_c, 0, 68, 52
2, 280210, Note_on_c, 0, 65, 61
2, 280236, Note_on_c, 0, 56, 35
2, 280267, Note_on_c, 0, 61, 0
2, 280276, Note_on_c, 0, 65, 0
2, 280297, Note_on_c, 0, 58, 0
2, 280368, Note_on_c, 0, 68, 0
2, 280407, Note_on_c, 0, 56, 0
2, 280451, Note_on_c, 0, 54, 0
2, 280672, Control_c, 0, 64, 127
2, 281005, Control_c, 0, 64, 0
2, 281075, Note_on_c, 0, 58, 38
2, 281080, Note_on_c, 0, 61, 32
2, 281095, Note_on_c, 0, 65, 49
2, 281097, Note_on_c, 0, 54, 30
2, 281102, Note_on_c, 0, 68, 37
2, 281373, Control_c, 0, 64, 127
2, 281472, Note_on_c, 0, 58, 0
2, 281568, Note_on_c, 0, 54, 0
2, 281597, Note_on_c, 0, 65, 0
2, 281641, Note_on_c, 0, 61, 0
2, 281875, Note_on_c, 0, 68, 0
2, 282379, Note_on_c, 0, 64, 43
2, 282396, Note_on_c, 0, 60, 28
2, 282403, Note_on_c, 0, 68, 30
2, 282412, Note_on_c, 0, 44, 37
2, 282414, Note_on_c, 0, 54, 28
2, 282425, Control_c, 0, 64, 0
2, 282940, Control_c, 0, 64, 127
2, 283309, Note_on_c, 0, 64, 0
2, 283402, Note_on_c, 0, 54, 0
2, 283550, Note_on_c, 0, 60, 0
2, 283772, Note_on_c, 0, 63, 39
2, 283802, Note_on_c, 0, 54, 25
2, 284306, Control_c, 0, 64, 0
2, 284309, Note_on_c, 0, 63, 0
2, 284366, Note_on_c, 0, 60, 24
2, 284402, Note_on_c, 0, 62, 34
2, 284849, Note_on_c, 0, 44, 0
2, 285117, Control_c, 0, 64, 127
2, 285230, Note_on_c, 0, 44, 48
2, 286230, Note_on_c, 0, 44, 0
2, 286562, Note_on_c, 0, 44, 53
2, 286749, Note_on_c, 0, 60, 0
2, 286852, Control_c, 0, 64, 0
2, 287110, Control_c, 0, 64, 127
2, 287336, Note_on_c, 0, 54, 0
2, 287346, Note_on_c, 0, 68, 0
2, 287434, Note_on_c, 0, 62, 0
2, 287568, Note_on_c, 0, 58, 35
2, 287598, Note_on_c, 0, 44, 0
2, 287736, Note_on_c, 0, 58, 0
2, 287896, Note_on_c, 0, 61, 62
2, 288021, Note_on_c, 0, 61, 0
2, 288420, Control_c, 0, 64, 0
2, 288437, Note_on_c, 0, 72, 70
2, 288439, Note_on_c, 0, 60, 67
2, 288444, Note_on_c, 0, 65, 74
2, 288449, Note_on_c, 0, 37, 47
2, 288462, Note_on_c, 0, 44, 56
2, 288466, Note_on_c, 0, 68, 54
2, 288827, Control_c, 0, 64, 127
2, 289072, Note_on_c, 0, 37, 0
2, 289222, Note_on_c, 0, 65, 0
2, 289248, Note_on_c, 0, 46, 31
2, 289250, Note_on_c, 0, 68, 0
2, 289287, Note_on_c, 0, 60, 0
2, 289417, Note_on_c, 0, 46, 0
2, 289664, Note_on_c, 0, 72, 0
2, 289861, Note_on_c, 0, 60, 35
2, 289890, Note_on_c, 0, 68, 33
2, 289899, Note_on_c, 0, 65, 49
2, 289931, Note_on_c, 0, 44, 0
2, 290172, Note_on_c, 0, 60, 0
2, 290461, Note_on_c, 0, 65, 0
2, 290632, Note_on_c, 0, 68, 0
2, 290742, Note_on_c, 0, 73, 65
2, 291107, Note_on_c, 0, 73, 0
2, 291279, Control_c, 0, 64, 0
2, 291283, Note_on_c, 0, 72, 64
2, 291290, Note_on_c, 0, 64, 70
2, 291300, Note_on_c, 0, 58, 56
2, 291305, Note_on_c, 0, 68, 57
2, 291778, Control_c, 0, 64, 127
2, 292133, Note_on_c, 0, 72, 0
2, 292187, Note_on_c, 0, 73, 57
2, 292641, Note_on_c, 0, 73, 0
2, 292707, Note_on_c, 0, 72, 49
2, 293336, Note_on_c, 0, 72, 0
2, 293491, Note_on_c, 0, 73, 39
2, 293511, Note_on_c, 0, 64, 0
2, 293681, Note_on_c, 0, 68, 0
2, 293765, Note_on_c, 0, 73, 0
2, 294003, Note_on_c, 0, 58, 0
2, 294028, Control_c, 0, 64, 0
2, 294032, Note_on_c, 0, 63, 50
2, 294038, Note_on_c, 0, 72, 55
2, 294052, Note_on_c, 0, 68, 42
2, 294069, Note_on_c, 0, 56, 26
2, 294396, Control_c, 0, 64, 127
2, 294514, Note_on_c, 0, 72, 0
2, 294544, Note_on_c, 0, 68, 0
2, 294630, Note_on_c, 0, 56, 0
2, 294667, Note_on_c, 0, 63, 0
2, 295320, Control_c, 0, 64, 0
2, 295355, Note_on_c, 0, 60, 36
2, 295357, Note_on_c, 0, 68, 44
2, 295377, Note_on_c, 0, 63, 40
2, 295429, Note_on_c, 0, 53, 34
2, 295725, Control_c, 0, 64, 127
2, 296039, Note_on_c, 0, 60, 0
2, 296155, Note_on_c, 0, 68, 0
2, 296301, Note_on_c, 0, 63, 0
2, 296580, Note_on_c, 0, 53, 0
2, 296649, Control_c, 0, 64, 0
2, 296735, Note_on_c, 0, 62, 47
2, 296744, Note_on_c, 0, 59, 38
2, 296748, Note_on_c, 0, 64, 43
2, 296754, Note_on_c, 0, 46, 30
2, 296764, Note_on_c, 0, 56, 23
2, 297016, Control_c, 0, 64, 127
2, 297066, Note_on_c, 0, 59, 0
2, 297153, Note_on_c, 0, 46, 0
2, 297182, Note_on_c, 0, 62, 0
2, 297195, Note_on_c, 0, 64, 0
2, 297204, Note_on_c, 0, 56, 0
2, 298089, Note_on_c, 0, 66, 37
2, 298124, Note_on_c, 0, 62, 37
2, 298126, Note_on_c, 0, 56, 21
2, 298341, Note_on_c, 0, 56, 0
2, 298352, Note_on_c, 0, 66, 0
2, 298413, Note_on_c, 0, 62, 0
2, 298540, Note_on_c, 0, 70, 40
2, 298744, Note_on_c, 0, 70, 0
2, 298952, Note_on_c, 0, 73, 53
2, 299247, Note_on_c, 0, 73, 0
2, 299398, Control_c, 0, 64, 0
2, 299434, Note_on_c, 0, 65, 41
2, 299451, Note_on_c, 0, 61, 33
2, 299453, Note_on_c, 0, 55, 41
2, 299454, Note_on_c, 0, 77, 60
2, 299460, Note_on_c, 0, 72, 62
2, 299462, Note_on_c, 0, 60, 19
2, 299821, Control_c, 0, 64, 127
2, 300277, Note_on_c, 0, 60, 0
2, 300340, Note_on_c, 0, 72, 0
2, 300382, Note_on_c, 0, 65, 0
2, 300485, Note_on_c, 0, 61, 0
2, 300805, Note_on_c, 0, 72, 43
2, 300820, Note_on_c, 0, 67, 45
2, 300840, Note_on_c, 0, 65, 46
2, 300857, Note_on_c, 0, 61, 37
2, 301070, Note_on_c, 0, 65, 0
2, 301107, Note_on_c, 0, 77, 0
2, 301147, Note_on_c, 0, 61, 0
2, 301175, Note_on_c, 0, 72, 0
2, 301223, Note_on_c, 0, 55, 0
2, 301344, Note_on_c, 0, 67, 0
2, 302244, Note_on_c, 0, 55, 41
2, 302246, Note_on_c, 0, 59, 57
2, 302273, Control_c, 0, 64, 0
2, 302277, Note_on_c, 0, 61, 25
2, 303109, Note_on_c, 0, 45, 80
2, 303389, Note_on_c, 0, 55, 0
2, 303712, Control_c, 0, 64, 127
2, 304273, Note_on_c, 0, 59, 0
2, 304756, Note_on_c, 0, 61, 0
2, 305004, Control_c, 0, 64, 0
2, 305035, Note_on_c, 0, 61, 34
2, 305052, Note_on_c, 0, 54, 30
2, 305065, Note_on_c, 0, 65, 38
2, 305066, Note_on_c, 0, 58, 40
2, 305080, Note_on_c, 0, 45, 0
2, 305087, Note_on_c, 0, 44, 44
2, 305214, Note_on_c, 0, 58, 0
2, 305216, Note_on_c, 0, 54, 0
2, 305251, Note_on_c, 0, 65, 0
2, 305289, Note_on_c, 0, 61, 0
2, 305306, Note_on_c, 0, 44, 0
2, 306016, Note_on_c, 0, 65, 35
2, 306036, Note_on_c, 0, 32, 48
2, 306038, Note_on_c, 0, 44, 28
2, 306042, Note_on_c, 0, 54, 23
2, 306044, Note_on_c, 0, 61, 33
2, 306047, Note_on_c, 0, 58, 31
2, 306112, Control_c, 0, 64, 127
2, 306257, Note_on_c, 0, 58, 0
2, 306268, Note_on_c, 0, 54, 0
2, 306274, Note_on_c, 0, 65, 0
2, 306316, Note_on_c, 0, 61, 0
2, 306345, Note_on_c, 0, 32, 0
2, 306364, Note_on_c, 0, 44, 0
2, 306498, Control_c, 0, 64, 0
2, 306557, Note_on_c, 0, 32, 25
2, 306563, Note_on_c, 0, 54, 28
2, 306577, Note_on_c, 0, 44, 30
2, 306579, Note_on_c, 0, 65, 34
2, 306585, Note_on_c, 0, 61, 33
2, 306609, Note_on_c, 0, 58, 32
2, 306682, Control_c, 0, 64, 127
2, 306899, Note_on_c, 0, 58, 0
2, 306943, Note_on_c, 0, 54, 0
2, 306980, Note_on_c, 0, 61, 0
2, 306989, Note_on_c, 0, 65, 0
2, 307004, Note_on_c, 0, 32, 0
2, 307061, Note_on_c, 0, 44, 0
2, 307407, Note_on_c, 0, 65, 45
2, 307424, Note_on_c, 0, 58, 47
2, 307425, Note_on_c, 0, 61, 40
2, 307435, Note_on_c, 0, 54, 27
2, 307437, Note_on_c, 0, 44, 48
2, 307451, Note_on_c, 0, 32, 47
2, 307543, Note_on_c, 0, 54, 0
2, 307643, Note_on_c, 0, 58, 0
2, 307716, Note_on_c, 0, 65, 0
2, 307720, Note_on_c, 0, 61, 0
2, 307722, Note_on_c, 0, 32, 0
2, 307834, Note_on_c, 0, 44, 0
2, 308509, Note_on_c, 0, 75, 65
2, 309111, Note_on_c, 0, 75, 0
2, 309413, Control_c, 0, 64, 0
2, 309457, Note_on_c, 0, 73, 38
2, 309482, Note_on_c, 0, 70, 52
2, 309492, Note_on_c, 0, 64, 37
2, 309497, Note_on_c, 0, 58, 37
2, 309727, Control_c, 0, 64, 127
2, 310140, Note_on_c, 0, 58, 0
2, 310366, Note_on_c, 0, 70, 0
2, 310421, Note_on_c, 0, 64, 0
2, 310452, Note_on_c, 0, 73, 0
2, 311332, Note_on_c, 0, 72, 40
2, 311350, Control_c, 0, 64, 0
2, 311352, Note_on_c, 0, 67, 40
2, 311367, Note_on_c, 0, 62, 27
2, 311369, Note_on_c, 0, 41, 37
2, 311724, Control_c, 0, 64, 127
2, 311828, Note_on_c, 0, 62, 0
2, 311937, Note_on_c, 0, 67, 0
2, 312003, Note_on_c, 0, 72, 0
2, 312046, Note_on_c, 0, 48, 49
2, 312162, Note_on_c, 0, 41, 0
2, 312493, Note_on_c, 0, 48, 0
2, 312666, Note_on_c, 0, 57, 44
2, 312682, Note_on_c, 0, 79, 47
2, 312712, Note_on_c, 0, 74, 46
2, 312715, Note_on_c, 0, 69, 40
2, 312938, Note_on_c, 0, 69, 0
2, 313004, Note_on_c, 0, 57, 0
2, 313094, Note_on_c, 0, 74, 0
2, 313139, Note_on_c, 0, 79, 0
2, 313310, Note_on_c, 0, 60, 36
2, 313983, Note_on_c, 0, 60, 0
2, 313987, Note_on_c, 0, 91, 43
2, 314018, Note_on_c, 0, 86, 46
2, 314020, Note_on_c, 0, 64, 34
2, 314037, Note_on_c, 0, 81, 29
2, 314211, Note_on_c, 0, 91, 0
2, 314292, Note_on_c, 0, 86, 0
2, 314443, Note_on_c, 0, 64, 0
2, 314454, Note_on_c, 0, 81, 0
2, 314890, Note_on_c, 0, 67, 27
2, 315678, Note_on_c, 0, 67, 0
2, 315691, Note_on_c, 0, 74, 37
2, 315704, Note_on_c, 0, 79, 33
2, 315746, Note_on_c, 0, 69, 32
2, 315860, Note_on_c, 0, 74, 0
2, 315906, Note_on_c, 0, 79, 0
2, 316298, Note_on_c, 0, 69, 0
2, 319488, Note_on_c, 0, 85, 59
2, 319538, Note_on_c, 0, 78, 38
2, 319543, Control_c, 0, 64, 0
2, 319545, Note_on_c, 0, 73, 32
2, 319556, Note_on_c, 0, 82, 35
2, 319560, Note_on_c, 0, 54, 42
2, 319570, Note_on_c, 0, 65, 43
2, 319961, Control_c, 0, 64, 127
2, 320054, Note_on_c, 0, 85, 0
2, 320058, Note_on_c, 0, 73, 0
2, 320059, Control_c, 0, 64, 0
2, 320126, Note_on_c, 0, 78, 0
2, 320136, Note_on_c, 0, 82, 0
2, 320215, Note_on_c, 0, 61, 38
2, 320217, Note_on_c, 0, 87, 69
2, 320218, Note_on_c, 0, 65, 0
2, 320427, Note_on_c, 0, 87, 0
2, 320819, Note_on_c, 0, 61, 0
2, 320902, Note_on_c, 0, 85, 58
2, 320910, Note_on_c, 0, 63, 52
2, 320942, Note_on_c, 0, 80, 51
2, 320959, Note_on_c, 0, 73, 27
2, 321341, Note_on_c, 0, 73, 0
2, 321399, Note_on_c, 0, 85, 0
2, 321434, Note_on_c, 0, 63, 0
2, 321450, Note_on_c, 0, 80, 0
2, 321541, Note_on_c, 0, 87, 71
2, 321545, Note_on_c, 0, 75, 53
2, 321558, Note_on_c, 0, 80, 42
2, 321594, Note_on_c, 0, 65, 64
2, 321616, Control_c, 0, 64, 0
2, 321648, Note_on_c, 0, 54, 0
2, 321760, Control_c, 0, 64, 127
2, 321911, Note_on_c, 0, 87, 0
2, 321998, Note_on_c, 0, 75, 0
2, 322017, Note_on_c, 0, 80, 0
2, 322114, Control_c, 0, 64, 0
2, 322140, Note_on_c, 0, 85, 62
2, 322150, Note_on_c, 0, 66, 63
2, 322157, Note_on_c, 0, 73, 37
2, 322159, Note_on_c, 0, 65, 0
2, 322161, Note_on_c, 0, 80, 40
2, 322274, Control_c, 0, 64, 127
2, 322667, Note_on_c, 0, 73, 0
2, 322721, Note_on_c, 0, 70, 50
2, 322754, Note_on_c, 0, 66, 0
2, 322939, Note_on_c, 0, 80, 0
2, 323010, Note_on_c, 0, 70, 0
2, 323242, Note_on_c, 0, 78, 50
2, 323266, Note_on_c, 0, 73, 32
2, 323394, Note_on_c, 0, 85, 0
2, 323568, Note_on_c, 0, 73, 0
2, 323735, Note_on_c, 0, 54, 27
2, 323898, Note_on_c, 0, 78, 0
2, 323907, Note_on_c, 0, 54, 0
2, 324245, Note_on_c, 0, 75, 55
2, 324256, Note_on_c, 0, 84, 58
2, 324261, Note_on_c, 0, 53, 40
2, 324295, Control_c, 0, 64, 0
2, 324680, Control_c, 0, 64, 127
2, 324718, Note_on_c, 0, 84, 0
2, 324755, Note_on_c, 0, 75, 0
2, 324801, Note_on_c, 0, 60, 29
2, 325324, Note_on_c, 0, 68, 51
2, 325343, Note_on_c, 0, 65, 32
2, 325374, Note_on_c, 0, 75, 28
2, 325581, Note_on_c, 0, 68, 0
2, 325643, Note_on_c, 0, 75, 0
2, 325808, Note_on_c, 0, 53, 0
2, 325833, Note_on_c, 0, 60, 0
2, 325877, Note_on_c, 0, 65, 0
2, 325884, Note_on_c, 0, 80, 57
2, 326072, Note_on_c, 0, 80, 0
2, 326735, Note_on_c, 0, 77, 59
2, 326746, Note_on_c, 0, 72, 61
2, 326754, Note_on_c, 0, 69, 51
2, 326781, Control_c, 0, 64, 0
2, 326797, Note_on_c, 0, 68, 42
2, 327287, Note_on_c, 0, 68, 0
2, 327434, Note_on_c, 0, 56, 35
2, 327456, Control_c, 0, 64, 127
2, 327582, Note_on_c, 0, 77, 0
2, 327585, Note_on_c, 0, 72, 0
2, 327617, Note_on_c, 0, 56, 0
2, 327643, Note_on_c, 0, 69, 0
2, 328156, Note_on_c, 0, 65, 33
2, 328157, Note_on_c, 0, 62, 53
2, 328210, Note_on_c, 0, 46, 34
2, 328343, Note_on_c, 0, 56, 6
2, 328354, Control_c, 0, 64, 0
2, 328764, Note_on_c, 0, 65, 0
2, 328770, Control_c, 0, 64, 127
2, 328804, Note_on_c, 0, 62, 0
2, 328985, Note_on_c, 0, 63, 32
2, 329001, Note_on_c, 0, 60, 32
2, 329066, Note_on_c, 0, 53, 24
2, 329093, Note_on_c, 0, 56, 0
2, 329181, Note_on_c, 0, 53, 0
2, 329288, Note_on_c, 0, 46, 0
2, 329506, Note_on_c, 0, 60, 0
2, 329551, Note_on_c, 0, 63, 0
2, 329925, Note_on_c, 0, 65, 44
2, 329929, Note_on_c, 0, 54, 34
2, 329943, Note_on_c, 0, 39, 44
2, 329955, Note_on_c, 0, 58, 42
2, 330037, Control_c, 0, 64, 0
2, 330604, Note_on_c, 0, 46, 36
2, 330808, Control_c, 0, 64, 127
2, 330877, Note_on_c, 0, 39, 0
2, 330944, Note_on_c, 0, 54, 0
2, 330992, Note_on_c, 0, 58, 0
2, 331123, Note_on_c, 0, 46, 0
2, 331137, Note_on_c, 0, 65, 0
2, 331205, Note_on_c, 0, 54, 48
2, 331228, Note_on_c, 0, 58, 49
2, 331243, Note_on_c, 0, 61, 37
2, 331250, Note_on_c, 0, 53, 36
2, 331459, Note_on_c, 0, 54, 0
2, 331691, Note_on_c, 0, 58, 0
2, 331693, Note_on_c, 0, 53, 0
2, 331740, Note_on_c, 0, 61, 0
2, 331800, Note_on_c, 0, 54, 29
2, 331853, Note_on_c, 0, 66, 77
2, 331873, Note_on_c, 0, 58, 79
2, 331874, Note_on_c, 0, 61, 59
2, 331965, Note_on_c, 0, 54, 0
2, 332247, Note_on_c, 0, 66, 0
2, 332271, Note_on_c, 0, 61, 0
2, 332353, Note_on_c, 0, 58, 0
2, 332664, Note_on_c, 0, 65, 60
2, 332678, Note_on_c, 0, 57, 78
2, 332682, Note_on_c, 0, 62, 71
2, 332687, Note_on_c, 0, 44, 40
2, 332707, Note_on_c, 0, 54, 52
2, 332733, Control_c, 0, 64, 0
2, 333521, Note_on_c, 0, 44, 46
2, 333791, Control_c, 0, 64, 127
2, 333888, Note_on_c, 0, 57, 0
2, 334118, Note_on_c, 0, 54, 0
2, 334165, Note_on_c, 0, 62, 0
2, 334179, Note_on_c, 0, 65, 0
2, 334245, Note_on_c, 0, 44, 0
2, 334375, Note_on_c, 0, 63, 42
2, 334379, Note_on_c, 0, 54, 57
2, 334402, Note_on_c, 0, 58, 50
2, 334433, Control_c, 0, 64, 0
2, 335058, Control_c, 0, 64, 127
2, 335067, Note_on_c, 0, 44, 47
2, 335173, Note_on_c, 0, 44, 0
2, 335304, Note_on_c, 0, 44, 0
2, 335549, Note_on_c, 0, 54, 0
2, 335573, Note_on_c, 0, 58, 0
2, 335730, Note_on_c, 0, 65, 43
2, 335734, Note_on_c, 0, 53, 41
2, 335746, Note_on_c, 0, 60, 40
2, 335758, Note_on_c, 0, 37, 39
2, 335781, Control_c, 0, 64, 0
2, 336097, Note_on_c, 0, 53, 0
2, 336196, Note_on_c, 0, 44, 60
2, 336213, Control_c, 0, 64, 127
2, 336225, Note_on_c, 0, 37, 0
2, 336229, Note_on_c, 0, 65, 0
2, 336245, Note_on_c, 0, 60, 0
2, 336286, Note_on_c, 0, 63, 0
2, 336581, Note_on_c, 0, 44, 0
2, 336645, Note_on_c, 0, 60, 48
2, 336646, Note_on_c, 0, 68, 57
2, 336652, Note_on_c, 0, 53, 50
2, 336658, Note_on_c, 0, 65, 62
2, 336920, Note_on_c, 0, 60, 0
2, 337059, Note_on_c, 0, 65, 0
2, 337074, Note_on_c, 0, 53, 0
2, 337104, Note_on_c, 0, 56, 50
2, 337106, Note_on_c, 0, 68, 0
2, 337614, Note_on_c, 0, 75, 62
2, 337626, Note_on_c, 0, 68, 51
2, 337630, Note_on_c, 0, 72, 53
2, 337634, Note_on_c, 0, 65, 59
2, 337657, Note_on_c, 0, 63, 62
2, 337693, Control_c, 0, 64, 0
2, 338162, Note_on_c, 0, 63, 0
2, 338188, Note_on_c, 0, 61, 59
2, 338192, Control_c, 0, 64, 127
2, 338326, Note_on_c, 0, 65, 0
2, 338461, Note_on_c, 0, 68, 0
2, 338502, Note_on_c, 0, 72, 0
2, 338618, Note_on_c, 0, 75, 0
2, 338711, Note_on_c, 0, 73, 43
2, 338713, Note_on_c, 0, 61, 0
2, 338725, Note_on_c, 0, 68, 51
2, 338732, Note_on_c, 0, 56, 0
2, 338741, Note_on_c, 0, 65, 51
2, 338763, Note_on_c, 0, 60, 24
2, 339230, Note_on_c, 0, 60, 0
2, 339357, Note_on_c, 0, 58, 59
2, 339441, Note_on_c, 0, 73, 0
2, 339461, Note_on_c, 0, 68, 0
2, 339513, Note_on_c, 0, 65, 0
2, 339850, Note_on_c, 0, 58, 0
2, 340004, Note_on_c, 0, 72, 56
2, 340029, Note_on_c, 0, 65, 66
2, 340035, Note_on_c, 0, 61, 47
2, 340050, Note_on_c, 0, 55, 51
2, 340099, Control_c, 0, 64, 0
2, 340625, Note_on_c, 0, 55, 0
2, 340655, Note_on_c, 0, 43, 54
2, 340693, Control_c, 0, 64, 127
2, 340740, Note_on_c, 0, 61, 0
2, 340857, Note_on_c, 0, 65, 0
2, 341062, Note_on_c, 0, 72, 0
2, 341300, Note_on_c, 0, 58, 58
2, 341311, Note_on_c, 0, 53, 51
2, 341317, Note_on_c, 0, 65, 63
2, 341319, Note_on_c, 0, 43, 0
2, 341413, Note_on_c, 0, 58, 0
2, 341474, Note_on_c, 0, 53, 0
2, 341799, Note_on_c, 0, 65, 0
2, 341895, Note_on_c, 0, 58, 68
2, 341897, Note_on_c, 0, 73, 75
2, 342378, Note_on_c, 0, 73, 0
2, 342500, Note_on_c, 0, 58, 0
2, 342592, Note_on_c, 0, 48, 54
2, 342594, Note_on_c, 0, 58, 33
2, 342596, Note_on_c, 0, 72, 73
2, 342597, Note_on_c, 0, 62, 80
2, 342603, Note_on_c, 0, 65, 74
2, 342650, Control_c, 0, 64, 0
2, 343179, Control_c, 0, 64, 127
2, 343282, Note_on_c, 0, 55, 53
2, 343293, Note_on_c, 0, 58, 0
2, 343655, Note_on_c, 0, 65, 0
2, 343723, Note_on_c, 0, 55, 0
2, 343806, Note_on_c, 0, 62, 0
2, 344010, Note_on_c, 0, 64, 60
2, 344023, Note_on_c, 0, 60, 46
2, 344061, Control_c, 0, 64, 0
2, 344064, Note_on_c, 0, 58, 28
2, 344366, Control_c, 0, 64, 127
2, 344502, Note_on_c, 0, 60, 0
2, 344526, Note_on_c, 0, 72, 0
2, 344576, Note_on_c, 0, 64, 0
2, 344650, Note_on_c, 0, 48, 0
2, 344661, Note_on_c, 0, 72, 70
2, 344769, Note_on_c, 0, 58, 0
2, 345127, Note_on_c, 0, 72, 0
2, 345307, Note_on_c, 0, 72, 54
2, 345325, Note_on_c, 0, 63, 48
2, 345347, Note_on_c, 0, 67, 55
2, 345353, Note_on_c, 0, 53, 47
2, 345377, Control_c, 0, 64, 0
2, 345906, Control_c, 0, 64, 127
2, 345914, Note_on_c, 0, 60, 51
2, 346036, Note_on_c, 0, 63, 0
2, 346066, Note_on_c, 0, 67, 0
2, 346442, Note_on_c, 0, 63, 60
2, 346445, Note_on_c, 0, 67, 68
2, 346462, Note_on_c, 0, 72, 0
2, 346946, Note_on_c, 0, 63, 0
2, 346978, Note_on_c, 0, 72, 70
2, 346979, Note_on_c, 0, 60, 0
2, 347070, Note_on_c, 0, 53, 0
2, 347317, Note_on_c, 0, 67, 0
2, 347620, Note_on_c, 0, 67, 61
2, 347637, Note_on_c, 0, 62, 57
2, 347691, Note_on_c, 0, 56, 30
2, 347735, Control_c, 0, 64, 0
2, 348254, Note_on_c, 0, 67, 0
2, 348267, Note_on_c, 0, 62, 0
2, 348311, Note_on_c, 0, 46, 45
2, 348317, Note_on_c, 0, 62, 20
2, 348373, Note_on_c, 0, 66, 56
2, 348592, Note_on_c, 0, 56, 0
2, 348602, Control_c, 0, 64, 127
2, 348910, Note_on_c, 0, 66, 0
2, 348988, Note_on_c, 0, 62, 0
2, 349204, Note_on_c, 0, 65, 44
2, 349228, Note_on_c, 0, 62, 36
2, 349242, Control_c, 0, 64, 0
2, 349287, Note_on_c, 0, 56, 17
2, 349467, Control_c, 0, 64, 127
2, 349515, Note_on_c, 0, 46, 0
2, 349960, Note_on_c, 0, 46, 44
2, 350178, Note_on_c, 0, 56, 0
2, 350225, Note_on_c, 0, 62, 0
2, 350581, Note_on_c, 0, 46, 0
2, 350626, Note_on_c, 0, 65, 0
2, 350679, Note_on_c, 0, 72, 0
2, 350770, Note_on_c, 0, 70, 62
2, 350779, Note_on_c, 0, 61, 67
2, 350785, Note_on_c, 0, 65, 68
2, 350863, Control_c, 0, 64, 0
2, 351296, Control_c, 0, 64, 127
2, 351405, Note_on_c, 0, 72, 66
2, 351409, Control_c, 0, 64, 0
2, 351420, Note_on_c, 0, 60, 71
2, 351743, Note_on_c, 0, 70, 0
2, 351873, Note_on_c, 0, 61, 0
2, 351957, Note_on_c, 0, 65, 0
2, 351970, Note_on_c, 0, 72, 0
2, 351986, Note_on_c, 0, 70, 38
2, 351991, Note_on_c, 0, 51, 52
2, 352005, Note_on_c, 0, 61, 53
2, 352020, Note_on_c, 0, 65, 24
2, 352100, Note_on_c, 0, 60, 0
2, 352307, Control_c, 0, 64, 127
2, 352553, Note_on_c, 0, 61, 0
2, 352581, Note_on_c, 0, 70, 0
2, 352605, Note_on_c, 0, 72, 71
2, 352642, Note_on_c, 0, 61, 18
2, 352786, Note_on_c, 0, 65, 0
2, 353057, Note_on_c, 0, 61, 0
2, 353108, Note_on_c, 0, 72, 0
2, 353227, Note_on_c, 0, 70, 1
2, 353250, Note_on_c, 0, 61, 49
2, 353284, Note_on_c, 0, 64, 57
2, 353317, Control_c, 0, 64, 0
2, 353365, Note_on_c, 0, 58, 20
2, 353526, Note_on_c, 0, 51, 0
2, 353814, Control_c, 0, 64, 127
2, 353914, Note_on_c, 0, 51, 55
2, 354356, Note_on_c, 0, 61, 0
2, 354357, Note_on_c, 0, 58, 0
2, 354530, Note_on_c, 0, 51, 0
2, 354658, Note_on_c, 0, 64, 0
2, 354674, Note_on_c, 0, 51, 39
2, 354761, Note_on_c, 0, 70, 0
2, 355228, Note_on_c, 0, 51, 0
2, 355445, Note_on_c, 0, 58, 51
2, 355919, Note_on_c, 0, 58, 0
2, 356500, Note_on_c, 0, 55, 52
2, 356508, Note_on_c, 0, 60, 36
2, 356525, Control_c, 0, 64, 0
2, 356535, Note_on_c, 0, 44, 38
2, 356541, Note_on_c, 0, 58, 29
2, 357071, Control_c, 0, 64, 127
2, 357851, Note_on_c, 0, 44, 0
2, 357939, Note_on_c, 0, 55, 0
2, 358143, Note_on_c, 0, 60, 0
2, 358557, Note_on_c, 0, 58, 0
2, 359045, Note_on_c, 0, 61, 36
2, 359067, Note_on_c, 0, 55, 34
2, 359069, Note_on_c, 0, 58, 34
2, 359100, Note_on_c, 0, 45, 35
2, 359108, Control_c, 0, 64, 0
2, 359653, Control_c, 0, 64, 127
2, 361735, Note_on_c, 0, 55, 0
2, 362031, Note_on_c, 0, 58, 0
2, 362539, Note_on_c, 0, 45, 0
2, 362818, Note_on_c, 0, 61, 0
2, 363217, Note_on_c, 0, 63, 35
2, 363239, Note_on_c, 0, 60, 31
2, 363243, Note_on_c, 0, 55, 33
2, 363255, Note_on_c, 0, 58, 30
2, 363262, Control_c, 0, 64, 0
2, 363277, Note_on_c, 0, 44, 31
2, 363680, Control_c, 0, 64, 127
2, 364312, Note_on_c, 0, 44, 0
2, 367985, Note_on_c, 0, 55, 0
2, 368051, Note_on_c, 0, 60, 0
2, 368360, Note_on_c, 0, 58, 0
2, 368603, Note_on_c, 0, 63, 0
2, 369069, Control_c, 0, 64, 0
2, 369826, Note_on_c, 0, 71, 81
2, 370385, Control_c, 0, 64, 127
2, 370933, Note_on_c, 0, 74, 64
2, 371031, Note_on_c, 0, 71, 0
2, 371325, Note_on_c, 0, 74, 0
2, 372650, Note_on_c, 0, 81, 65
2, 372668, Note_on_c, 0, 40, 43
2, 372679, Control_c, 0, 64, 0
2, 372689, Note_on_c, 0, 74, 53
2, 372691, Note_on_c, 0, 55, 25
2, 372904, Control_c, 0, 64, 127
2, 372925, Note_on_c, 0, 40, 0
2, 373135, Note_on_c, 0, 55, 0
2, 373261, Note_on_c, 0, 74, 0
2, 373268, Note_on_c, 0, 81, 0
2, 373570, Note_on_c, 0, 55, 34
2, 374191, Note_on_c, 0, 57, 36
2, 374201, Note_on_c, 0, 62, 47
2, 374203, Note_on_c, 0, 69, 50
2, 374222, Note_on_c, 0, 66, 57
2, 374845, Note_on_c, 0, 59, 73
2, 374942, Note_on_c, 0, 62, 0
2, 375079, Note_on_c, 0, 66, 0
2, 375202, Note_on_c, 0, 69, 0
2, 375397, Note_on_c, 0, 59, 0
2, 375497, Note_on_c, 0, 57, 0
2, 375539, Note_on_c, 0, 62, 63
2, 375546, Note_on_c, 0, 66, 72
2, 375548, Note_on_c, 0, 69, 57
2, 375554, Note_on_c, 0, 61, 67
2, 376417, Note_on_c, 0, 61, 0
2, 376525, Note_on_c, 0, 60, 32
2, 376618, Note_on_c, 0, 60, 0
2, 377010, Note_on_c, 0, 62, 0
2, 377144, Note_on_c, 0, 66, 0
2, 377284, Note_on_c, 0, 69, 0
2, 377375, Note_on_c, 0, 62, 61
2, 377397, Note_on_c, 0, 71, 51
2, 377407, Note_on_c, 0, 59, 45
2, 377570, Note_on_c, 0, 62, 0
2, 377658, Note_on_c, 0, 71, 0
2, 377784, Note_on_c, 0, 55, 0
2, 378742, Note_on_c, 0, 52, 30
2, 378761, Note_on_c, 0, 74, 47
2, 378887, Note_on_c, 0, 59, 0
2, 379020, Note_on_c, 0, 52, 0
2, 379085, Note_on_c, 0, 74, 0
2, 380246, Note_on_c, 0, 81, 53
2, 380272, Note_on_c, 0, 33, 45
2, 380283, Note_on_c, 0, 75, 55
2, 380314, Control_c, 0, 64, 0
2, 380319, Note_on_c, 0, 45, 25
2, 380325, Note_on_c, 0, 70, 28
2, 380608, Note_on_c, 0, 33, 0
2, 380716, Control_c, 0, 64, 127
2, 380719, Note_on_c, 0, 45, 0
2, 381155, Note_on_c, 0, 55, 52
2, 381527, Note_on_c, 0, 70, 0
2, 381625, Note_on_c, 0, 75, 0
2, 381693, Note_on_c, 0, 61, 47
2, 382152, Note_on_c, 0, 61, 0
2, 382241, Note_on_c, 0, 81, 0
2, 382279, Note_on_c, 0, 75, 55
2, 382292, Note_on_c, 0, 61, 60
2, 382322, Note_on_c, 0, 67, 37
2, 383005, Note_on_c, 0, 61, 0
2, 383026, Control_c, 0, 64, 0
2, 383028, Note_on_c, 0, 76, 46
2, 383170, Control_c, 0, 64, 127
2, 383418, Note_on_c, 0, 67, 0
2, 383749, Note_on_c, 0, 75, 0
2, 383813, Note_on_c, 0, 69, 52
2, 383966, Note_on_c, 0, 76, 0
2, 384342, Note_on_c, 0, 69, 0
2, 384466, Note_on_c, 0, 71, 60
2, 384959, Note_on_c, 0, 55, 0
2, 385119, Note_on_c, 0, 74, 49
2, 385121, Note_on_c, 0, 55, 42
2, 385327, Note_on_c, 0, 55, 0
2, 385465, Note_on_c, 0, 71, 0
2, 385481, Note_on_c, 0, 74, 0
2, 386091, Note_on_c, 0, 73, 54
2, 386105, Note_on_c, 0, 66, 57
2, 386106, Note_on_c, 0, 61, 55
2, 386120, Note_on_c, 0, 50, 46
2, 386186, Control_c, 0, 64, 0
2, 386650, Control_c, 0, 64, 127
2, 386729, Note_on_c, 0, 57, 53
2, 386767, Note_on_c, 0, 61, 0
2, 386869, Note_on_c, 0, 66, 0
2, 387143, Note_on_c, 0, 73, 0
2, 387243, Note_on_c, 0, 61, 65
2, 387456, Note_on_c, 0, 61, 0
2, 387584, Note_on_c, 0, 50, 0
2, 387707, Note_on_c, 0, 74, 71
2, 387779, Note_on_c, 0, 57, 0
2, 388069, Note_on_c, 0, 74, 0
2, 388261, Note_on_c, 0, 73, 66
2, 388262, Note_on_c, 0, 52, 60
2, 388290, Note_on_c, 0, 67, 68
2, 388303, Control_c, 0, 64, 0
2, 388307, Note_on_c, 0, 62, 47
2, 388565, Note_on_c, 0, 73, 0
2, 388688, Control_c, 0, 64, 127
2, 388887, Note_on_c, 0, 74, 60
2, 388995, Note_on_c, 0, 52, 0
2, 389139, Note_on_c, 0, 62, 0
2, 389221, Note_on_c, 0, 67, 0
2, 389273, Note_on_c, 0, 74, 0
2, 389510, Note_on_c, 0, 73, 50
2, 389523, Note_on_c, 0, 53, 54
2, 389549, Note_on_c, 0, 65, 49
2, 389560, Note_on_c, 0, 68, 49
2, 389562, Note_on_c, 0, 62, 29
2, 389586, Control_c, 0, 64, 0
2, 389821, Note_on_c, 0, 73, 0
2, 390019, Control_c, 0, 64, 127
2, 390119, Note_on_c, 0, 65, 0
2, 390230, Note_on_c, 0, 74, 48
2, 390290, Note_on_c, 0, 53, 0
2, 390373, Note_on_c, 0, 68, 0
2, 390477, Note_on_c, 0, 62, 0
2, 390617, Note_on_c, 0, 74, 0
2, 390916, Note_on_c, 0, 73, 49
2, 390957, Note_on_c, 0, 66, 25
2, 390962, Note_on_c, 0, 69, 33
2, 390966, Note_on_c, 0, 64, 45
2, 390977, Note_on_c, 0, 54, 36
2, 390982, Control_c, 0, 64, 0
2, 391447, Control_c, 0, 64, 127
2, 391690, Note_on_c, 0, 61, 33
2, 391719, Note_on_c, 0, 66, 0
2, 391722, Note_on_c, 0, 69, 0
2, 391733, Note_on_c, 0, 64, 0
2, 392452, Note_on_c, 0, 73, 0
2, 392467, Note_on_c, 0, 69, 36
2, 392469, Note_on_c, 0, 64, 23
2, 392482, Note_on_c, 0, 66, 35
2, 392634, Note_on_c, 0, 66, 0
2, 392758, Note_on_c, 0, 69, 0
2, 393362, Note_on_c, 0, 54, 0
2, 393385, Note_on_c, 0, 83, 79
2, 393411, Note_on_c, 0, 61, 0
2, 393422, Note_on_c, 0, 74, 65
2, 393564, Note_on_c, 0, 64, 0
2, 393727, Note_on_c, 0, 83, 0
2, 393795, Note_on_c, 0, 74, 0
2, 394179, Note_on_c, 0, 79, 46
2, 394273, Note_on_c, 0, 74, 48
2, 394286, Control_c, 0, 64, 0
2, 394300, Note_on_c, 0, 67, 31
2, 394325, Note_on_c, 0, 63, 29
2, 394348, Note_on_c, 0, 71, 23
2, 394381, Note_on_c, 0, 57, 15
2, 394607, Control_c, 0, 64, 127
2, 394658, Note_on_c, 0, 79, 0
2, 394659, Note_on_c, 0, 71, 0
2, 394661, Note_on_c, 0, 74, 0
2, 394763, Note_on_c, 0, 67, 0
2, 395037, Note_on_c, 0, 63, 0
2, 395084, Note_on_c, 0, 74, 35
2, 395114, Note_on_c, 0, 71, 48
2, 395136, Note_on_c, 0, 67, 32
2, 395141, Note_on_c, 0, 57, 0
2, 395429, Note_on_c, 0, 71, 0
2, 395443, Note_on_c, 0, 67, 0
2, 395449, Note_on_c, 0, 74, 0
2, 396068, Note_on_c, 0, 71, 46
2, 396101, Note_on_c, 0, 67, 43
2, 396122, Note_on_c, 0, 62, 37
2, 396169, Note_on_c, 0, 63, 31
2, 396178, Control_c, 0, 64, 0
2, 396181, Note_on_c, 0, 57, 21
2, 396548, Control_c, 0, 64, 127
2, 396968, Note_on_c, 0, 63, 0
2, 397002, Note_on_c, 0, 57, 0
2, 397004, Note_on_c, 0, 67, 0
2, 397007, Note_on_c, 0, 62, 0
2, 397381, Note_on_c, 0, 62, 46
2, 397383, Note_on_c, 0, 67, 36
2, 397869, Note_on_c, 0, 71, 0
2, 397988, Note_on_c, 0, 67, 0
2, 398061, Note_on_c, 0, 62, 0
2, 398828, Note_on_c, 0, 66, 47
2, 398851, Note_on_c, 0, 62, 31
2, 398854, Note_on_c, 0, 61, 39
2, 398863, Note_on_c, 0, 56, 37
2, 398874, Control_c, 0, 64, 0
2, 398876, Note_on_c, 0, 40, 37
2, 399211, Control_c, 0, 64, 127
2, 399553, Note_on_c, 0, 56, 0
2, 399593, Note_on_c, 0, 47, 51
2, 399741, Note_on_c, 0, 40, 0
2, 399880, Note_on_c, 0, 61, 0
2, 399942, Note_on_c, 0, 66, 0
2, 400000, Note_on_c, 0, 62, 0
2, 400370, Note_on_c, 0, 62, 56
2, 400376, Note_on_c, 0, 66, 59
2, 400378, Note_on_c, 0, 61, 58
2, 401497, Note_on_c, 0, 55, 56
2, 402061, Note_on_c, 0, 66, 0
2, 402068, Note_on_c, 0, 61, 0
2, 402142, Note_on_c, 0, 62, 0
2, 402246, Note_on_c, 0, 55, 0
2, 402476, Note_on_c, 0, 62, 34
2, 402492, Note_on_c, 0, 66, 46
2, 402493, Note_on_c, 0, 61, 47
2, 402511, Note_on_c, 0, 56, 49
2, 402563, Control_c, 0, 64, 0
2, 403061, Control_c, 0, 64, 127
2, 403447, Note_on_c, 0, 47, 0
2, 403734, Note_on_c, 0, 56, 0
2, 404139, Note_on_c, 0, 61, 0
2, 404211, Note_on_c, 0, 56, 30
2, 404524, Note_on_c, 0, 56, 0
2, 404762, Note_on_c, 0, 66, 0
2, 404813, Note_on_c, 0, 62, 0
2, 405754, Note_on_c, 0, 55, 71
2, 405758, Note_on_c, 0, 67, 94
2, 406370, Note_on_c, 0, 67, 0
2, 406411, Note_on_c, 0, 69, 85
2, 406426, Note_on_c, 0, 57, 57
2, 406506, Note_on_c, 0, 55, 0
2, 406578, Note_on_c, 0, 57, 0
2, 406677, Note_on_c, 0, 69, 0
2, 407250, Note_on_c, 0, 66, 80
2, 407251, Note_on_c, 0, 45, 74
2, 407257, Note_on_c, 0, 55, 82
2, 407266, Note_on_c, 0, 62, 69
2, 407267, Note_on_c, 0, 59, 74
2, 407295, Control_c, 0, 64, 0
2, 407664, Control_c, 0, 64, 127
2, 407925, Note_on_c, 0, 66, 0
2, 407936, Note_on_c, 0, 45, 0
2, 407967, Note_on_c, 0, 55, 0
2, 408013, Note_on_c, 0, 59, 0
2, 408024, Note_on_c, 0, 62, 0
2, 408226, Note_on_c, 0, 55, 69
2, 408231, Note_on_c, 0, 66, 70
2, 408242, Note_on_c, 0, 62, 57
2, 408245, Note_on_c, 0, 59, 61
2, 408247, Note_on_c, 0, 45, 71
2, 408769, Note_on_c, 0, 66, 0
2, 408790, Note_on_c, 0, 45, 0
2, 408818, Note_on_c, 0, 62, 0
2, 408820, Note_on_c, 0, 55, 0
2, 408837, Note_on_c, 0, 59, 0
2, 409188, Note_on_c, 0, 45, 47
2, 409195, Note_on_c, 0, 55, 45
2, 409205, Note_on_c, 0, 62, 45
2, 409207, Note_on_c, 0, 66, 48
2, 409221, Note_on_c, 0, 59, 43
2, 409401, Note_on_c, 0, 45, 0
2, 410228, Note_on_c, 0, 33, 71
2, 410375, Control_c, 0, 64, 0
2, 410632, Control_c, 0, 64, 127
2, 410861, Note_on_c, 0, 62, 0
2, 411033, Note_on_c, 0, 55, 0
2, 411140, Note_on_c, 0, 66, 0
2, 411361, Note_on_c, 0, 59, 0
2, 411410, Note_on_c, 0, 33, 0
2, 411642, Note_on_c, 0, 55, 47
2, 411645, Note_on_c, 0, 58, 64
2, 411647, Note_on_c, 0, 33, 49
2, 411664, Note_on_c, 0, 66, 43
2, 411683, Note_on_c, 0, 45, 36
2, 411690, Control_c, 0, 64, 0
2, 411692, Note_on_c, 0, 63, 51
2, 412493, Control_c, 0, 64, 127
2, 413262, Note_on_c, 0, 58, 0
2, 413309, Note_on_c, 0, 55, 0
2, 413414, Note_on_c, 0, 63, 0
2, 413492, Note_on_c, 0, 66, 0
2, 413570, Note_on_c, 0, 33, 0
2, 413681, Note_on_c, 0, 45, 0
2, 414938, Note_on_c, 0, 76, 69
2, 414949, Note_on_c, 0, 69, 78
2, 414957, Note_on_c, 0, 73, 71
2, 414972, Note_on_c, 0, 66, 74
2, 414975, Note_on_c, 0, 64, 82
2, 415011, Control_c, 0, 64, 0
2, 415268, Control_c, 0, 64, 127
2, 415785, Note_on_c, 0, 66, 0
2, 415819, Note_on_c, 0, 73, 0
2, 415839, Note_on_c, 0, 69, 0
2, 415896, Note_on_c, 0, 76, 0
2, 415933, Note_on_c, 0, 64, 0
2, 416003, Note_on_c, 0, 74, 60
2, 416016, Note_on_c, 0, 69, 70
2, 416019, Note_on_c, 0, 62, 57
2, 416022, Note_on_c, 0, 66, 61
2, 416263, Note_on_c, 0, 62, 0
2, 416525, Note_on_c, 0, 74, 0
2, 416532, Note_on_c, 0, 66, 0
2, 416666, Note_on_c, 0, 69, 0
2, 418173, Note_on_c, 0, 73, 74
2, 418179, Note_on_c, 0, 68, 81
2, 418189, Note_on_c, 0, 63, 88
2, 418202, Note_on_c, 0, 49, 64
2, 418213, Note_on_c, 0, 58, 69
2, 418236, Control_c, 0, 64, 0
2, 418636, Control_c, 0, 64, 127
2, 419381, Note_on_c, 0, 73, 0
2, 419524, Note_on_c, 0, 73, 57
2, 420178, Note_on_c, 0, 73, 0
2, 420421, Note_on_c, 0, 73, 58
2, 421225, Note_on_c, 0, 73, 0
2, 421469, Note_on_c, 0, 73, 44
2, 422411, Note_on_c, 0, 68, 0
2, 422445, Note_on_c, 0, 63, 0
2, 422506, Note_on_c, 0, 58, 0
2, 422586, Note_on_c, 0, 73, 0
2, 422589, Note_on_c, 0, 49, 0
2, 423175, Note_on_c, 0, 72, 77
2, 423199, Note_on_c, 0, 49, 61
2, 423201, Note_on_c, 0, 67, 71
2, 423215, Note_on_c, 0, 57, 59
2, 423217, Note_on_c, 0, 62, 64
2, 423224, Control_c, 0, 64, 0
2, 423610, Control_c, 0, 64, 127
2, 423730, Note_on_c, 0, 72, 0
2, 423880, Note_on_c, 0, 72, 70
2, 424215, Note_on_c, 0, 57, 0
2, 424264, Note_on_c, 0, 62, 0
2, 424462, Note_on_c, 0, 67, 0
2, 424597, Note_on_c, 0, 72, 0
2, 424664, Note_on_c, 0, 73, 57
2, 424701, Note_on_c, 0, 68, 62
2, 424723, Note_on_c, 0, 63, 47
2, 424725, Note_on_c, 0, 58, 48
2, 424796, Control_c, 0, 64, 0
2, 425133, Control_c, 0, 64, 127
2, 425251, Note_on_c, 0, 73, 0
2, 425603, Note_on_c, 0, 73, 56
2, 425984, Note_on_c, 0, 63, 0
2, 425994, Note_on_c, 0, 49, 0
2, 426132, Note_on_c, 0, 72, 1
2, 426189, Note_on_c, 0, 73, 0
2, 426315, Note_on_c, 0, 68, 0
2, 426512, Note_on_c, 0, 58, 0
2, 426917, Note_on_c, 0, 72, 0
2, 428068, Note_on_c, 0, 74, 33
2, 428098, Note_on_c, 0, 66, 40
2, 428119, Note_on_c, 0, 69, 39
2, 428142, Note_on_c, 0, 50, 34
2, 428197, Control_c, 0, 64, 0
2, 428678, Control_c, 0, 64, 127
2, 428829, Note_on_c, 0, 66, 0
2, 428909, Note_on_c, 0, 69, 0
2, 428994, Note_on_c, 0, 74, 0
2, 429090, Note_on_c, 0, 57, 20
2, 429655, Note_on_c, 0, 50, 0
2, 429660, Note_on_c, 0, 57, 0
2, 429685, Note_on_c, 0, 73, 38
2, 429726, Note_on_c, 0, 61, 28
2, 430325, Note_on_c, 0, 85, 51
2, 430372, Note_on_c, 0, 62, 38
2, 430390, Note_on_c, 0, 61, 0
2, 430862, Note_on_c, 0, 73, 0
2, 430996, Note_on_c, 0, 66, 34
2, 431010, Note_on_c, 0, 78, 31
2, 431012, Note_on_c, 0, 85, 0
2, 431189, Note_on_c, 0, 62, 0
2, 431555, Note_on_c, 0, 78, 0
2, 431645, Note_on_c, 0, 69, 25
2, 431664, Note_on_c, 0, 66, 0
2, 432061, Note_on_c, 0, 69, 0
2, 432305, Note_on_c, 0, 73, 34
2, 432333, Note_on_c, 0, 85, 36
2, 432866, Note_on_c, 0, 85, 0
2, 432958, Note_on_c, 0, 97, 40
2, 432976, Note_on_c, 0, 76, 39
2, 432986, Note_on_c, 0, 73, 0
2, 433406, Note_on_c, 0, 76, 0
2, 433562, Note_on_c, 0, 97, 0
2, 433654, Note_on_c, 0, 93, 38
2, 433692, Note_on_c, 0, 78, 39
2, 433945, Note_on_c, 0, 93, 0
2, 434353, Note_on_c, 0, 93, 48
2, 434354, Note_on_c, 0, 100, 50
2, 434397, Note_on_c, 0, 81, 29
2, 434434, Note_on_c, 0, 78, 0
2, 434677, Note_on_c, 0, 81, 0
2, 434865, Note_on_c, 0, 93, 0
2, 434972, Note_on_c, 0, 100, 0
2, 435094, Note_on_c, 0, 90, 33
2, 435097, Note_on_c, 0, 97, 35
2, 435133, Note_on_c, 0, 93, 15
2, 435208, Note_on_c, 0, 93, 0
2, 435215, Note_on_c, 0, 90, 0
2, 435252, Note_on_c, 0, 97, 0
2, 435348, Note_on_c, 0, 85, 1
2, 435834, Note_on_c, 0, 85, 0
2, 435877, Note_on_c, 0, 105, 49
2, 435906, Note_on_c, 0, 88, 14
2, 435909, Note_on_c, 0, 97, 24
2, 436374, Note_on_c, 0, 97, 0
2, 436802, Note_on_c, 0, 105, 0
2, 436853, Note_on_c, 0, 90, 35
2, 436868, Note_on_c, 0, 97, 24
2, 436876, Note_on_c, 0, 102, 36
2, 437189, Note_on_c, 0, 102, 0
2, 437197, Note_on_c, 0, 90, 0
2, 437201, Note_on_c, 0, 88, 0
2, 437218, Note_on_c, 0, 97, 0
2, 439505, Note_on_c, 0, 26, 36
2, 439733, Note_on_c, 0, 26, 0
2, 444992, Control_c, 0, 64, 0
2, 444992, End_track
3, 0, Start_track
3, 0, Title_t, "MIDI 1"
3, 0, Control_c, 0, 10, 63
3, 0, End_track
4, 0, Start_track
4, 0, Title_t, "MIDI 1"
4, 0, End_track
5, 0, Start_track
5, 0, Title_t, "MIDI 1"
5, 0, End_track
6, 0, Start_track
6, 0, Title_t, "MIDI 1"
6, 0, End_track
7, 0, Start_track
7, 0, Title_t, "MIDI 2"
7, 0, End_track
8, 0, Start_track
8, 0, Title_t, "MIDI 2"
8, 0, End_track
0, 0, End_of_file
