0, 0, Header, 1, 4, 960
1, 0, Start_track
1, 0, Title_t, "Rachid (Michel  Petrucciani)"
1, 0, Text_t, "dougmck@pipeline.com.au . Another midi of a nice Michel Petrucciani original. I like the nice way that many of these songs of his lend themselves to a 'bluesy/gospelly' interpretation. Just a couple of choruses.\012"
1, 0, Time_signature, 3, 2, 24, 8
1, 0, Key_signature, 0, "major"
1, 0, Tempo, 363636
1, 0, End_track
2, 0, Start_track
2, 0, Title_t, "MIDI 1"
2, 0, Program_c, 0, 0
2, 0, Control_c, 0, 64, 127
2, 0, Control_c, 0, 64, 0
2, 83, Note_on_c, 0, 81, 51
2, 100, Note_on_c, 0, 69, 47
2, 107, Note_on_c, 0, 64, 48
2, 119, Note_on_c, 0, 76, 38
2, 148, Note_on_c, 0, 60, 35
2, 165, Note_on_c, 0, 57, 50
2, 175, Note_on_c, 0, 53, 26
2, 307, Control_c, 0, 64, 127
2, 1051, Note_on_c, 0, 69, 0
2, 1086, Note_on_c, 0, 64, 0
2, 1200, Note_on_c, 0, 60, 0
2, 1202, Note_on_c, 0, 53, 0
2, 1245, Note_on_c, 0, 57, 0
2, 1363, Note_on_c, 0, 76, 0
2, 1419, Note_on_c, 0, 81, 0
2, 2884, Control_c, 0, 64, 0
2, 2899, Note_on_c, 0, 61, 64
2, 2911, Note_on_c, 0, 84, 89
2, 2913, Note_on_c, 0, 66, 87
2, 2915, Note_on_c, 0, 81, 82
2, 2920, Note_on_c, 0, 55, 80
2, 2923, Note_on_c, 0, 77, 88
2, 2925, Note_on_c, 0, 72, 89
2, 3317, Control_c, 0, 64, 127
2, 3373, Note_on_c, 0, 66, 0
2, 3380, Note_on_c, 0, 55, 0
2, 3450, Note_on_c, 0, 61, 0
2, 4074, Note_on_c, 0, 84, 0
2, 4163, Note_on_c, 0, 72, 0
2, 4192, Note_on_c, 0, 81, 0
2, 4272, Note_on_c, 0, 77, 0
2, 5761, Note_on_c, 0, 77, 80
2, 5764, Note_on_c, 0, 72, 81
2, 5768, Note_on_c, 0, 62, 82
2, 5768, Note_on_c, 0, 69, 84
2, 5843, Control_c, 0, 64, 0
2, 6493, Control_c, 0, 64, 127
2, 7017, Note_on_c, 0, 62, 0
2, 7571, Note_on_c, 0, 69, 0
2, 7636, Note_on_c, 0, 72, 0
2, 7658, Note_on_c, 0, 77, 0
2, 8037, Note_on_c, 0, 76, 71
2, 8325, Note_on_c, 0, 74, 68
2, 8450, Note_on_c, 0, 76, 0
2, 8649, Note_on_c, 0, 74, 0
2, 8678, Control_c, 0, 64, 0
2, 8726, Note_on_c, 0, 72, 85
2, 8774, Note_on_c, 0, 67, 58
2, 8795, Note_on_c, 0, 63, 53
2, 8800, Note_on_c, 0, 62, 59
2, 8812, Note_on_c, 0, 58, 52
2, 9616, Control_c, 0, 64, 127
2, 9669, Note_on_c, 0, 62, 0
2, 9743, Note_on_c, 0, 67, 0
2, 9895, Note_on_c, 0, 74, 15
2, 10082, Note_on_c, 0, 63, 0
2, 10137, Note_on_c, 0, 58, 0
2, 10221, Note_on_c, 0, 74, 0
2, 11018, Note_on_c, 0, 72, 0
2, 11119, Note_on_c, 0, 70, 60
2, 11126, Note_on_c, 0, 66, 47
2, 11169, Note_on_c, 0, 57, 32
2, 11171, Note_on_c, 0, 63, 35
2, 11198, Note_on_c, 0, 61, 28
2, 11294, Note_on_c, 0, 57, 0
2, 11332, Note_on_c, 0, 66, 0
2, 11373, Control_c, 0, 64, 0
2, 11496, Note_on_c, 0, 70, 0
2, 11548, Note_on_c, 0, 61, 0
2, 11563, Note_on_c, 0, 63, 0
2, 11613, Note_on_c, 0, 62, 58
2, 11615, Note_on_c, 0, 69, 59
2, 11632, Note_on_c, 0, 65, 43
2, 11635, Note_on_c, 0, 60, 44
2, 11726, Note_on_c, 0, 55, 44
2, 12367, Control_c, 0, 64, 127
2, 13099, Note_on_c, 0, 65, 0
2, 13111, Note_on_c, 0, 62, 0
2, 13159, Note_on_c, 0, 60, 0
2, 13375, Note_on_c, 0, 55, 0
2, 14224, Note_on_c, 0, 69, 0
2, 14363, Control_c, 0, 64, 0
2, 14414, Note_on_c, 0, 65, 34
2, 14423, Note_on_c, 0, 57, 33
2, 14426, Note_on_c, 0, 60, 37
2, 15275, Control_c, 0, 64, 127
2, 15645, Note_on_c, 0, 60, 0
2, 16065, Note_on_c, 0, 60, 36
2, 16118, Note_on_c, 0, 65, 0
2, 16228, Note_on_c, 0, 72, 49
2, 16270, Note_on_c, 0, 60, 0
2, 16310, Control_c, 0, 64, 0
2, 16356, Note_on_c, 0, 73, 48
2, 16409, Note_on_c, 0, 57, 0
2, 16526, Note_on_c, 0, 74, 66
2, 16542, Note_on_c, 0, 73, 0
2, 16663, Note_on_c, 0, 72, 0
2, 16845, Note_on_c, 0, 74, 0
2, 16994, Note_on_c, 0, 77, 90
2, 17094, Note_on_c, 0, 57, 41
2, 17099, Note_on_c, 0, 58, 55
2, 17112, Note_on_c, 0, 62, 51
2, 17123, Note_on_c, 0, 53, 48
2, 17394, Note_on_c, 0, 77, 0
2, 17685, Note_on_c, 0, 77, 96
2, 18263, Note_on_c, 0, 77, 0
2, 18426, Note_on_c, 0, 74, 58
2, 18770, Note_on_c, 0, 74, 0
2, 19043, Note_on_c, 0, 77, 73
2, 19173, Control_c, 0, 64, 127
2, 19504, Note_on_c, 0, 57, 0
2, 19540, Note_on_c, 0, 77, 0
2, 19612, Note_on_c, 0, 58, 0
2, 19614, Note_on_c, 0, 62, 0
2, 19622, Note_on_c, 0, 53, 0
2, 19701, Note_on_c, 0, 74, 60
2, 19871, Note_on_c, 0, 74, 0
2, 20236, Note_on_c, 0, 79, 44
2, 20275, Note_on_c, 0, 67, 36
2, 20282, Control_c, 0, 64, 0
2, 20308, Note_on_c, 0, 73, 32
2, 20318, Note_on_c, 0, 76, 26
2, 20323, Note_on_c, 0, 58, 45
2, 20342, Note_on_c, 0, 64, 36
2, 21002, Control_c, 0, 64, 127
2, 21302, Note_on_c, 0, 64, 0
2, 21383, Note_on_c, 0, 67, 0
2, 21386, Note_on_c, 0, 76, 0
2, 21390, Note_on_c, 0, 79, 0
2, 21431, Note_on_c, 0, 58, 0
2, 21465, Note_on_c, 0, 73, 0
2, 21856, Note_on_c, 0, 58, 36
2, 22038, Note_on_c, 0, 58, 0
2, 22613, Control_c, 0, 64, 0
2, 22615, Note_on_c, 0, 73, 53
2, 22660, Note_on_c, 0, 63, 60
2, 22665, Note_on_c, 0, 58, 65
2, 22670, Note_on_c, 0, 68, 59
2, 22883, Note_on_c, 0, 58, 0
2, 22888, Note_on_c, 0, 73, 0
2, 22893, Note_on_c, 0, 63, 0
2, 22915, Note_on_c, 0, 68, 0
2, 23202, Note_on_c, 0, 57, 54
2, 23277, Note_on_c, 0, 68, 49
2, 23406, Note_on_c, 0, 65, 30
2, 23409, Note_on_c, 0, 69, 26
2, 23505, Note_on_c, 0, 60, 11
2, 24290, Note_on_c, 0, 60, 0
2, 24297, Control_c, 0, 64, 127
2, 24299, Note_on_c, 0, 57, 0
2, 24306, Note_on_c, 0, 65, 0
2, 24354, Note_on_c, 0, 68, 0
2, 24407, Note_on_c, 0, 69, 0
2, 24674, Note_on_c, 0, 69, 49
2, 24695, Note_on_c, 0, 65, 54
2, 24698, Note_on_c, 0, 57, 50
2, 24714, Note_on_c, 0, 60, 48
2, 24856, Note_on_c, 0, 60, 0
2, 24880, Note_on_c, 0, 57, 0
2, 24962, Note_on_c, 0, 65, 0
2, 25106, Note_on_c, 0, 69, 0
2, 25982, Note_on_c, 0, 55, 79
2, 25991, Note_on_c, 0, 84, 85
2, 25997, Note_on_c, 0, 61, 79
2, 26006, Control_c, 0, 64, 0
2, 26008, Note_on_c, 0, 81, 77
2, 26013, Note_on_c, 0, 77, 85
2, 26013, Note_on_c, 0, 65, 81
2, 26017, Note_on_c, 0, 72, 85
2, 26613, Control_c, 0, 64, 127
2, 27009, Note_on_c, 0, 65, 0
2, 27012, Note_on_c, 0, 55, 0
2, 27026, Note_on_c, 0, 72, 0
2, 27055, Note_on_c, 0, 77, 0
2, 27114, Note_on_c, 0, 84, 0
2, 27122, Note_on_c, 0, 61, 0
2, 27131, Note_on_c, 0, 81, 0
2, 27532, Note_on_c, 0, 61, 50
2, 27549, Note_on_c, 0, 84, 60
2, 27566, Note_on_c, 0, 65, 48
2, 27568, Note_on_c, 0, 72, 55
2, 27578, Note_on_c, 0, 81, 44
2, 27587, Note_on_c, 0, 77, 51
2, 27592, Note_on_c, 0, 55, 48
2, 27714, Note_on_c, 0, 65, 0
2, 27806, Note_on_c, 0, 72, 0
2, 27861, Note_on_c, 0, 55, 0
2, 27878, Note_on_c, 0, 77, 0
2, 27885, Note_on_c, 0, 61, 0
2, 27952, Note_on_c, 0, 81, 0
2, 28017, Note_on_c, 0, 84, 0
2, 28732, Control_c, 0, 64, 0
2, 28874, Note_on_c, 0, 89, 64
2, 28893, Note_on_c, 0, 77, 46
2, 28898, Note_on_c, 0, 57, 40
2, 28905, Note_on_c, 0, 60, 37
2, 28907, Note_on_c, 0, 84, 57
2, 28932, Note_on_c, 0, 53, 44
2, 28943, Note_on_c, 0, 50, 33
2, 29380, Control_c, 0, 64, 127
2, 29918, Note_on_c, 0, 50, 0
2, 29982, Note_on_c, 0, 53, 0
2, 30042, Note_on_c, 0, 57, 0
2, 30139, Note_on_c, 0, 60, 0
2, 30520, Note_on_c, 0, 77, 0
2, 30640, Note_on_c, 0, 84, 0
2, 30672, Note_on_c, 0, 89, 0
2, 31041, Note_on_c, 0, 88, 66
2, 31372, Note_on_c, 0, 88, 0
2, 31374, Note_on_c, 0, 86, 58
2, 31446, Control_c, 0, 64, 0
2, 31629, Note_on_c, 0, 86, 0
2, 31756, Note_on_c, 0, 84, 61
2, 31812, Note_on_c, 0, 67, 45
2, 31859, Note_on_c, 0, 63, 35
2, 31869, Note_on_c, 0, 62, 38
2, 31888, Note_on_c, 0, 58, 33
2, 32577, Control_c, 0, 64, 127
2, 32579, Note_on_c, 0, 62, 0
2, 32596, Note_on_c, 0, 67, 0
2, 32925, Note_on_c, 0, 58, 0
2, 33054, Note_on_c, 0, 63, 0
2, 33204, Control_c, 0, 64, 0
2, 33270, Note_on_c, 0, 66, 62
2, 33321, Note_on_c, 0, 63, 33
2, 33338, Note_on_c, 0, 57, 34
2, 33451, Note_on_c, 0, 66, 0
2, 33453, Note_on_c, 0, 63, 0
2, 33467, Note_on_c, 0, 57, 0
2, 34154, Note_on_c, 0, 77, 41
2, 34338, Note_on_c, 0, 84, 0
2, 34384, Note_on_c, 0, 77, 0
2, 34463, Note_on_c, 0, 67, 46
2, 34502, Note_on_c, 0, 80, 52
2, 34506, Note_on_c, 0, 56, 39
2, 34528, Note_on_c, 0, 62, 44
2, 35392, Control_c, 0, 64, 127
2, 35466, Note_on_c, 0, 80, 0
2, 35495, Note_on_c, 0, 77, 38
2, 35512, Control_c, 0, 64, 0
2, 35661, Note_on_c, 0, 77, 0
2, 36153, Note_on_c, 0, 77, 37
2, 36290, Note_on_c, 0, 67, 0
2, 36318, Note_on_c, 0, 77, 0
2, 36371, Note_on_c, 0, 62, 0
2, 36494, Note_on_c, 0, 82, 90
2, 36551, Note_on_c, 0, 56, 0
2, 37439, Note_on_c, 0, 63, 67
2, 37473, Note_on_c, 0, 58, 59
2, 37511, Note_on_c, 0, 52, 35
2, 37605, Note_on_c, 0, 63, 0
2, 37612, Note_on_c, 0, 52, 0
2, 37643, Note_on_c, 0, 58, 0
2, 38435, Note_on_c, 0, 63, 79
2, 38442, Note_on_c, 0, 58, 70
2, 38469, Note_on_c, 0, 52, 63
2, 39263, Control_c, 0, 64, 127
2, 39513, Note_on_c, 0, 52, 0
2, 39554, Note_on_c, 0, 58, 0
2, 39794, Note_on_c, 0, 63, 0
2, 40134, Note_on_c, 0, 82, 0
2, 40178, Control_c, 0, 64, 0
2, 40247, Note_on_c, 0, 63, 50
2, 40329, Note_on_c, 0, 60, 39
2, 40332, Note_on_c, 0, 56, 50
2, 40350, Note_on_c, 0, 53, 37
2, 41308, Note_on_c, 0, 77, 105
2, 41788, Note_on_c, 0, 77, 0
2, 41970, Note_on_c, 0, 80, 82
2, 42009, Control_c, 0, 64, 127
2, 42329, Note_on_c, 0, 53, 0
2, 42410, Note_on_c, 0, 60, 0
2, 42420, Note_on_c, 0, 56, 0
2, 42431, Note_on_c, 0, 80, 0
2, 42614, Note_on_c, 0, 77, 71
2, 42662, Note_on_c, 0, 53, 29
2, 42705, Note_on_c, 0, 56, 25
2, 42822, Note_on_c, 0, 53, 0
2, 42837, Note_on_c, 0, 77, 0
2, 42938, Note_on_c, 0, 56, 0
2, 42945, Note_on_c, 0, 63, 0
2, 43113, Control_c, 0, 64, 0
2, 43223, Note_on_c, 0, 82, 85
2, 43228, Note_on_c, 0, 77, 80
2, 43250, Note_on_c, 0, 54, 78
2, 43254, Note_on_c, 0, 65, 82
2, 43260, Note_on_c, 0, 71, 67
2, 43265, Note_on_c, 0, 60, 73
2, 43269, Note_on_c, 0, 72, 76
2, 43675, Note_on_c, 0, 71, 0
2, 43989, Control_c, 0, 64, 127
2, 44378, Note_on_c, 0, 65, 0
2, 44433, Note_on_c, 0, 54, 0
2, 44447, Note_on_c, 0, 60, 0
2, 44745, Note_on_c, 0, 65, 70
2, 44750, Note_on_c, 0, 54, 71
2, 44776, Note_on_c, 0, 60, 64
2, 45386, Note_on_c, 0, 77, 0
2, 45395, Note_on_c, 0, 65, 0
2, 45434, Note_on_c, 0, 82, 0
2, 45465, Note_on_c, 0, 72, 0
2, 45678, Note_on_c, 0, 54, 0
2, 45823, Note_on_c, 0, 60, 0
2, 46010, Control_c, 0, 64, 0
2, 46048, Note_on_c, 0, 60, 59
2, 46051, Note_on_c, 0, 63, 77
2, 46077, Note_on_c, 0, 53, 60
2, 46087, Note_on_c, 0, 56, 67
2, 46994, Control_c, 0, 64, 127
2, 47292, Note_on_c, 0, 53, 0
2, 47339, Note_on_c, 0, 63, 0
2, 47383, Note_on_c, 0, 56, 0
2, 47385, Note_on_c, 0, 60, 0
2, 47428, Control_c, 0, 64, 0
2, 47515, Note_on_c, 0, 77, 67
2, 47522, Note_on_c, 0, 63, 63
2, 47546, Note_on_c, 0, 60, 49
2, 47563, Note_on_c, 0, 53, 53
2, 47565, Note_on_c, 0, 56, 49
2, 47584, Note_on_c, 0, 68, 53
2, 47728, Note_on_c, 0, 68, 0
2, 47851, Note_on_c, 0, 77, 0
2, 47954, Note_on_c, 0, 80, 72
2, 47966, Note_on_c, 0, 68, 59
2, 47983, Control_c, 0, 64, 127
2, 48038, Note_on_c, 0, 73, 21
2, 48120, Note_on_c, 0, 73, 0
2, 48242, Note_on_c, 0, 53, 0
2, 48268, Note_on_c, 0, 68, 0
2, 48297, Note_on_c, 0, 60, 0
2, 48302, Note_on_c, 0, 56, 0
2, 48369, Note_on_c, 0, 80, 0
2, 48371, Note_on_c, 0, 63, 0
2, 48523, Note_on_c, 0, 56, 46
2, 48571, Note_on_c, 0, 77, 48
2, 48703, Note_on_c, 0, 77, 0
2, 48775, Control_c, 0, 64, 0
2, 48778, Note_on_c, 0, 56, 0
2, 48940, Note_on_c, 0, 63, 83
2, 48943, Note_on_c, 0, 82, 77
2, 48967, Note_on_c, 0, 58, 73
2, 48972, Note_on_c, 0, 52, 75
2, 48974, Note_on_c, 0, 78, 67
2, 48998, Note_on_c, 0, 73, 37
2, 49079, Note_on_c, 0, 73, 0
2, 49444, Note_on_c, 0, 78, 0
2, 49488, Note_on_c, 0, 52, 0
2, 49533, Note_on_c, 0, 82, 0
2, 49547, Note_on_c, 0, 63, 0
2, 49668, Note_on_c, 0, 58, 0
2, 49718, Note_on_c, 0, 63, 69
2, 49735, Note_on_c, 0, 84, 77
2, 49742, Note_on_c, 0, 58, 25
2, 49749, Note_on_c, 0, 52, 55
2, 49879, Control_c, 0, 64, 127
2, 50037, Note_on_c, 0, 84, 0
2, 50100, Note_on_c, 0, 52, 0
2, 50140, Note_on_c, 0, 63, 0
2, 50253, Note_on_c, 0, 58, 0
2, 50440, Note_on_c, 0, 82, 68
2, 50457, Note_on_c, 0, 63, 71
2, 50469, Note_on_c, 0, 58, 60
2, 50481, Note_on_c, 0, 70, 62
2, 50486, Note_on_c, 0, 52, 63
2, 50824, Note_on_c, 0, 52, 0
2, 50834, Note_on_c, 0, 63, 0
2, 50836, Note_on_c, 0, 82, 0
2, 50868, Note_on_c, 0, 70, 0
2, 50983, Note_on_c, 0, 58, 0
2, 51035, Control_c, 0, 64, 0
2, 51139, Note_on_c, 0, 80, 52
2, 51184, Note_on_c, 0, 63, 57
2, 51199, Note_on_c, 0, 68, 46
2, 51211, Note_on_c, 0, 52, 50
2, 51213, Note_on_c, 0, 58, 59
2, 51299, Control_c, 0, 64, 127
2, 51592, Note_on_c, 0, 52, 0
2, 51626, Note_on_c, 0, 80, 0
2, 51712, Note_on_c, 0, 58, 0
2, 51727, Note_on_c, 0, 68, 0
2, 51778, Note_on_c, 0, 63, 0
2, 51854, Control_c, 0, 64, 0
2, 52065, Note_on_c, 0, 77, 53
2, 52115, Note_on_c, 0, 56, 39
2, 52123, Note_on_c, 0, 60, 43
2, 52130, Note_on_c, 0, 65, 22
2, 52147, Note_on_c, 0, 53, 34
2, 52742, Control_c, 0, 64, 127
2, 52783, Note_on_c, 0, 77, 0
2, 53092, Note_on_c, 0, 65, 0
2, 53344, Control_c, 0, 64, 0
2, 53423, Note_on_c, 0, 63, 38
2, 53447, Note_on_c, 0, 65, 34
2, 53453, Note_on_c, 0, 68, 42
2, 53633, Control_c, 0, 64, 127
2, 53908, Note_on_c, 0, 68, 0
2, 53951, Note_on_c, 0, 53, 0
2, 53966, Note_on_c, 0, 60, 0
2, 53983, Note_on_c, 0, 56, 0
2, 54021, Note_on_c, 0, 65, 0
2, 54079, Note_on_c, 0, 63, 0
2, 54249, Note_on_c, 0, 68, 73
2, 54403, Control_c, 0, 64, 0
2, 54539, Note_on_c, 0, 65, 63
2, 54581, Note_on_c, 0, 68, 0
2, 54748, Note_on_c, 0, 65, 0
2, 54890, Note_on_c, 0, 54, 56
2, 54895, Note_on_c, 0, 70, 77
2, 54912, Note_on_c, 0, 60, 53
2, 55632, Control_c, 0, 64, 127
2, 55800, Note_on_c, 0, 60, 0
2, 55884, Note_on_c, 0, 54, 0
2, 56291, Note_on_c, 0, 54, 54
2, 56303, Control_c, 0, 64, 0
2, 56320, Note_on_c, 0, 64, 48
2, 56341, Note_on_c, 0, 60, 48
2, 56546, Control_c, 0, 64, 127
2, 56867, Note_on_c, 0, 64, 0
2, 57100, Note_on_c, 0, 54, 0
2, 57314, Note_on_c, 0, 60, 0
2, 57460, Control_c, 0, 64, 0
2, 57561, Note_on_c, 0, 63, 52
2, 57592, Note_on_c, 0, 60, 34
2, 57625, Note_on_c, 0, 53, 35
2, 57640, Note_on_c, 0, 56, 56
2, 57784, Note_on_c, 0, 70, 0
2, 58516, Note_on_c, 0, 65, 91
2, 58773, Note_on_c, 0, 63, 0
2, 58854, Note_on_c, 0, 60, 0
2, 58932, Note_on_c, 0, 65, 0
2, 58948, Note_on_c, 0, 56, 0
2, 59109, Note_on_c, 0, 68, 68
2, 59154, Note_on_c, 0, 60, 37
2, 59202, Note_on_c, 0, 56, 34
2, 59380, Note_on_c, 0, 60, 0
2, 59452, Note_on_c, 0, 65, 54
2, 59553, Note_on_c, 0, 56, 0
2, 59620, Note_on_c, 0, 53, 0
2, 59814, Control_c, 0, 64, 127
2, 59891, Note_on_c, 0, 65, 0
2, 59901, Note_on_c, 0, 68, 0
2, 60129, Control_c, 0, 64, 0
2, 60388, Note_on_c, 0, 70, 60
2, 60393, Note_on_c, 0, 61, 68
2, 60400, Note_on_c, 0, 66, 60
2, 60439, Note_on_c, 0, 58, 50
2, 60582, Control_c, 0, 64, 127
2, 60739, Note_on_c, 0, 61, 0
2, 60777, Note_on_c, 0, 66, 0
2, 60892, Note_on_c, 0, 70, 0
2, 60969, Control_c, 0, 64, 0
2, 61118, Note_on_c, 0, 72, 60
2, 61142, Note_on_c, 0, 60, 46
2, 61147, Note_on_c, 0, 63, 57
2, 61211, Note_on_c, 0, 68, 34
2, 61252, Note_on_c, 0, 58, 0
2, 61341, Note_on_c, 0, 68, 0
2, 61387, Note_on_c, 0, 60, 0
2, 61403, Note_on_c, 0, 72, 0
2, 61430, Note_on_c, 0, 63, 0
2, 61821, Note_on_c, 0, 70, 59
2, 61826, Note_on_c, 0, 63, 59
2, 61852, Note_on_c, 0, 58, 51
2, 61859, Control_c, 0, 64, 127
2, 62004, Control_c, 0, 64, 0
2, 62085, Note_on_c, 0, 63, 0
2, 62176, Note_on_c, 0, 58, 0
2, 62190, Note_on_c, 0, 70, 0
2, 62483, Control_c, 0, 64, 127
2, 62529, Note_on_c, 0, 57, 45
2, 62545, Note_on_c, 0, 69, 50
2, 62569, Note_on_c, 0, 60, 41
2, 62581, Note_on_c, 0, 65, 40
2, 62668, Note_on_c, 0, 57, 0
2, 62692, Note_on_c, 0, 65, 0
2, 62730, Note_on_c, 0, 69, 0
2, 62858, Note_on_c, 0, 60, 0
2, 63304, Control_c, 0, 64, 0
2, 63371, Note_on_c, 0, 65, 46
2, 63379, Note_on_c, 0, 57, 48
2, 63417, Note_on_c, 0, 41, 38
2, 63420, Note_on_c, 0, 60, 44
2, 63489, Note_on_c, 0, 48, 39
2, 64074, Control_c, 0, 64, 127
2, 65186, Note_on_c, 0, 48, 0
2, 65327, Note_on_c, 0, 41, 0
2, 65639, Note_on_c, 0, 57, 0
2, 65793, Note_on_c, 0, 65, 0
2, 65796, Note_on_c, 0, 60, 0
2, 65934, Note_on_c, 0, 44, 37
2, 66189, Control_c, 0, 64, 0
2, 66201, Note_on_c, 0, 44, 0
2, 66232, Note_on_c, 0, 46, 71
2, 66263, Note_on_c, 0, 60, 72
2, 66266, Note_on_c, 0, 61, 72
2, 66302, Note_on_c, 0, 65, 59
2, 66412, Note_on_c, 0, 60, 0
2, 66587, Note_on_c, 0, 62, 57
2, 66618, Note_on_c, 0, 61, 0
2, 66945, Note_on_c, 0, 46, 0
2, 66948, Note_on_c, 0, 65, 0
2, 66981, Note_on_c, 0, 44, 25
2, 66990, Note_on_c, 0, 42, 19
2, 67094, Note_on_c, 0, 44, 0
2, 67149, Note_on_c, 0, 45, 47
2, 67200, Note_on_c, 0, 62, 0
2, 67266, Note_on_c, 0, 42, 0
2, 67295, Note_on_c, 0, 65, 50
2, 67305, Note_on_c, 0, 60, 54
2, 67672, Note_on_c, 0, 65, 0
2, 67970, Note_on_c, 0, 45, 0
2, 68063, Note_on_c, 0, 60, 0
2, 68219, Note_on_c, 0, 43, 36
2, 68236, Note_on_c, 0, 58, 51
2, 68239, Note_on_c, 0, 65, 43
2, 68366, Note_on_c, 0, 43, 0
2, 68387, Note_on_c, 0, 42, 33
2, 68752, Note_on_c, 0, 65, 0
2, 68848, Note_on_c, 0, 58, 0
2, 68853, Note_on_c, 0, 42, 0
2, 69045, Note_on_c, 0, 41, 35
2, 69143, Note_on_c, 0, 65, 37
2, 69168, Note_on_c, 0, 57, 35
2, 69580, Control_c, 0, 64, 127
2, 69616, Note_on_c, 0, 57, 0
2, 69774, Note_on_c, 0, 29, 39
2, 69888, Note_on_c, 0, 65, 0
2, 69928, Note_on_c, 0, 41, 0
2, 70074, Note_on_c, 0, 29, 0
2, 71556, Note_on_c, 0, 69, 34
2, 71802, Note_on_c, 0, 70, 62
2, 71946, Note_on_c, 0, 69, 0
2, 71964, Note_on_c, 0, 71, 69
2, 71995, Note_on_c, 0, 70, 0
2, 72086, Control_c, 0, 64, 0
2, 72194, Note_on_c, 0, 61, 55
2, 72196, Note_on_c, 0, 55, 58
2, 72201, Note_on_c, 0, 72, 74
2, 72225, Note_on_c, 0, 66, 49
2, 72352, Note_on_c, 0, 71, 0
2, 72902, Control_c, 0, 64, 127
2, 73725, Note_on_c, 0, 66, 0
2, 73792, Note_on_c, 0, 55, 0
2, 73831, Note_on_c, 0, 72, 0
2, 73883, Note_on_c, 0, 61, 0
2, 74874, Control_c, 0, 64, 0
2, 74966, Note_on_c, 0, 77, 96
2, 74994, Note_on_c, 0, 60, 44
2, 75002, Note_on_c, 0, 57, 46
2, 75045, Note_on_c, 0, 50, 37
2, 75050, Note_on_c, 0, 53, 39
2, 75717, Control_c, 0, 64, 127
2, 75940, Note_on_c, 0, 50, 0
2, 75969, Note_on_c, 0, 65, 36
2, 75971, Note_on_c, 0, 53, 0
2, 76022, Note_on_c, 0, 57, 0
2, 76156, Note_on_c, 0, 60, 0
2, 76188, Note_on_c, 0, 77, 0
2, 76198, Note_on_c, 0, 65, 0
2, 76533, Control_c, 0, 64, 0
2, 76540, Note_on_c, 0, 76, 74
2, 76756, Note_on_c, 0, 76, 0
2, 77356, Note_on_c, 0, 74, 67
2, 77645, Note_on_c, 0, 74, 0
2, 77803, Note_on_c, 0, 67, 36
2, 77827, Note_on_c, 0, 63, 33
2, 77829, Note_on_c, 0, 72, 59
2, 77877, Note_on_c, 0, 58, 36
2, 77891, Note_on_c, 0, 62, 41
2, 78554, Control_c, 0, 64, 127
2, 78616, Note_on_c, 0, 62, 0
2, 78650, Note_on_c, 0, 67, 0
2, 78983, Note_on_c, 0, 58, 0
2, 79087, Control_c, 0, 64, 0
2, 79094, Note_on_c, 0, 63, 0
2, 79269, Note_on_c, 0, 66, 60
2, 79315, Note_on_c, 0, 63, 33
2, 79339, Note_on_c, 0, 57, 36
2, 79341, Note_on_c, 0, 61, 34
2, 79442, Note_on_c, 0, 66, 0
2, 79483, Note_on_c, 0, 57, 0
2, 79528, Note_on_c, 0, 63, 0
2, 79540, Control_c, 0, 64, 127
2, 79550, Note_on_c, 0, 61, 0
2, 79711, Note_on_c, 0, 72, 0
2, 79949, Note_on_c, 0, 70, 60
2, 80351, Note_on_c, 0, 69, 57
2, 80551, Control_c, 0, 64, 0
2, 80553, Note_on_c, 0, 70, 0
2, 80577, Note_on_c, 0, 69, 0
2, 80776, Note_on_c, 0, 69, 74
2, 81537, Note_on_c, 0, 62, 60
2, 81568, Note_on_c, 0, 59, 44
2, 81590, Note_on_c, 0, 55, 50
2, 81619, Note_on_c, 0, 62, 0
2, 81679, Note_on_c, 0, 59, 0
2, 81731, Note_on_c, 0, 55, 0
2, 82622, Control_c, 0, 64, 127
2, 83462, Control_c, 0, 64, 0
2, 83503, Note_on_c, 0, 61, 47
2, 83507, Note_on_c, 0, 65, 56
2, 83513, Note_on_c, 0, 55, 59
2, 84216, Control_c, 0, 64, 127
2, 84441, Note_on_c, 0, 65, 0
2, 84453, Note_on_c, 0, 69, 0
2, 84516, Note_on_c, 0, 55, 0
2, 84568, Note_on_c, 0, 61, 0
2, 85106, Note_on_c, 0, 61, 53
2, 85115, Note_on_c, 0, 65, 49
2, 85125, Note_on_c, 0, 55, 50
2, 85214, Note_on_c, 0, 65, 0
2, 85334, Note_on_c, 0, 55, 0
2, 85336, Note_on_c, 0, 61, 0
2, 86085, Note_on_c, 0, 67, 108
2, 86356, Control_c, 0, 64, 0
2, 86443, Note_on_c, 0, 67, 0
2, 86534, Note_on_c, 0, 57, 55
2, 86536, Note_on_c, 0, 60, 57
2, 86538, Note_on_c, 0, 65, 91
2, 86556, Note_on_c, 0, 50, 49
2, 86562, Note_on_c, 0, 53, 48
2, 87270, Control_c, 0, 64, 127
2, 87494, Note_on_c, 0, 60, 0
2, 87568, Note_on_c, 0, 57, 0
2, 87688, Note_on_c, 0, 53, 0
2, 87707, Note_on_c, 0, 50, 0
2, 87995, Note_on_c, 0, 60, 30
2, 88017, Note_on_c, 0, 57, 36
2, 88060, Note_on_c, 0, 53, 28
2, 88092, Note_on_c, 0, 60, 0
2, 88098, Note_on_c, 0, 65, 0
2, 88134, Note_on_c, 0, 57, 0
2, 88317, Note_on_c, 0, 53, 0
2, 88357, Note_on_c, 0, 67, 60
2, 88722, Note_on_c, 0, 67, 0
2, 88912, Note_on_c, 0, 69, 69
2, 89164, Note_on_c, 0, 69, 0
2, 89262, Control_c, 0, 64, 0
2, 89416, Note_on_c, 0, 67, 73
2, 89433, Note_on_c, 0, 57, 73
2, 89440, Note_on_c, 0, 60, 65
2, 89445, Note_on_c, 0, 63, 50
2, 89476, Note_on_c, 0, 41, 54
2, 89481, Note_on_c, 0, 51, 51
2, 89548, Note_on_c, 0, 60, 0
2, 89942, Note_on_c, 0, 60, 2
2, 90328, Note_on_c, 0, 51, 0
2, 90398, Control_c, 0, 64, 127
2, 90417, Note_on_c, 0, 60, 0
2, 90460, Note_on_c, 0, 57, 0
2, 90587, Note_on_c, 0, 67, 0
2, 90654, Note_on_c, 0, 63, 0
2, 90709, Control_c, 0, 64, 0
2, 90914, Note_on_c, 0, 65, 64
2, 90930, Note_on_c, 0, 63, 60
2, 90933, Note_on_c, 0, 50, 60
2, 90954, Note_on_c, 0, 60, 67
2, 90957, Note_on_c, 0, 57, 63
2, 91055, Note_on_c, 0, 50, 0
2, 91178, Note_on_c, 0, 41, 0
2, 91321, Note_on_c, 0, 65, 0
2, 91343, Note_on_c, 0, 60, 0
2, 91379, Note_on_c, 0, 57, 0
2, 91398, Note_on_c, 0, 63, 0
2, 91598, Control_c, 0, 64, 127
2, 91982, Note_on_c, 0, 63, 33
2, 92080, Control_c, 0, 64, 0
2, 92106, Note_on_c, 0, 63, 0
2, 92260, Note_on_c, 0, 46, 69
2, 92265, Note_on_c, 0, 65, 55
2, 92272, Note_on_c, 0, 58, 69
2, 92284, Note_on_c, 0, 34, 62
2, 92296, Note_on_c, 0, 62, 76
2, 92682, Control_c, 0, 64, 127
2, 93150, Note_on_c, 0, 58, 0
2, 93232, Note_on_c, 0, 46, 0
2, 93237, Note_on_c, 0, 65, 0
2, 93304, Note_on_c, 0, 62, 0
2, 93367, Note_on_c, 0, 34, 0
2, 93755, Note_on_c, 0, 65, 81
2, 93762, Control_c, 0, 64, 0
2, 93765, Note_on_c, 0, 58, 80
2, 93786, Note_on_c, 0, 60, 74
2, 93791, Note_on_c, 0, 45, 71
2, 93820, Note_on_c, 0, 33, 61
2, 94293, Control_c, 0, 64, 127
2, 94626, Note_on_c, 0, 60, 0
2, 94703, Note_on_c, 0, 58, 0
2, 94756, Note_on_c, 0, 45, 0
2, 94816, Note_on_c, 0, 33, 0
2, 94953, Note_on_c, 0, 65, 0
2, 94993, Control_c, 0, 64, 0
2, 95147, Note_on_c, 0, 65, 56
2, 95176, Note_on_c, 0, 58, 68
2, 95184, Note_on_c, 0, 43, 60
2, 95198, Note_on_c, 0, 62, 65
2, 95210, Note_on_c, 0, 31, 53
2, 95219, Note_on_c, 0, 53, 60
2, 95717, Control_c, 0, 64, 127
2, 95954, Note_on_c, 0, 53, 0
2, 96100, Note_on_c, 0, 58, 0
2, 96148, Note_on_c, 0, 43, 0
2, 96194, Note_on_c, 0, 31, 0
2, 96225, Note_on_c, 0, 65, 0
2, 96376, Note_on_c, 0, 62, 0
2, 96460, Control_c, 0, 64, 0
2, 96621, Note_on_c, 0, 65, 53
2, 96647, Note_on_c, 0, 58, 53
2, 96674, Note_on_c, 0, 60, 51
2, 96681, Note_on_c, 0, 42, 44
2, 96691, Note_on_c, 0, 30, 51
2, 96967, Control_c, 0, 64, 127
2, 97367, Note_on_c, 0, 42, 0
2, 97401, Note_on_c, 0, 30, 0
2, 97432, Note_on_c, 0, 60, 0
2, 97485, Note_on_c, 0, 58, 0
2, 97492, Note_on_c, 0, 65, 0
2, 97759, Control_c, 0, 64, 0
2, 97989, Note_on_c, 0, 65, 47
2, 98001, Note_on_c, 0, 41, 36
2, 98018, Note_on_c, 0, 29, 32
2, 98044, Note_on_c, 0, 57, 37
2, 98167, Control_c, 0, 64, 127
2, 98877, Note_on_c, 0, 29, 0
2, 99033, Note_on_c, 0, 41, 0
2, 99299, Control_c, 0, 64, 0
2, 100550, Note_on_c, 0, 44, 48
2, 100607, Note_on_c, 0, 57, 0
2, 100653, Note_on_c, 0, 65, 0
2, 100823, Note_on_c, 0, 44, 0
2, 100838, Note_on_c, 0, 46, 63
2, 100867, Note_on_c, 0, 62, 65
2, 100871, Note_on_c, 0, 65, 31
2, 101011, Note_on_c, 0, 65, 0
2, 101222, Note_on_c, 0, 62, 0
2, 101429, Note_on_c, 0, 46, 0
2, 101517, Note_on_c, 0, 42, 32
2, 101776, Note_on_c, 0, 45, 50
2, 101793, Note_on_c, 0, 60, 51
2, 101817, Note_on_c, 0, 42, 0
2, 101861, Note_on_c, 0, 57, 39
2, 102117, Note_on_c, 0, 60, 0
2, 102160, Note_on_c, 0, 57, 0
2, 102439, Note_on_c, 0, 45, 0
2, 102705, Note_on_c, 0, 58, 51
2, 102712, Control_c, 0, 64, 127
2, 103435, Note_on_c, 0, 58, 0
2, 103682, Note_on_c, 0, 57, 44
2, 103749, Note_on_c, 0, 41, 42
2, 103951, Note_on_c, 0, 57, 0
2, 104400, Control_c, 0, 64, 0
2, 104735, Note_on_c, 0, 60, 43
2, 104798, Note_on_c, 0, 41, 0
2, 105122, Note_on_c, 0, 60, 0
2, 105263, Note_on_c, 0, 61, 59
2, 105458, Control_c, 0, 64, 127
2, 105479, Note_on_c, 0, 61, 0
2, 105726, Note_on_c, 0, 65, 56
2, 106039, Note_on_c, 0, 65, 0
2, 106207, Note_on_c, 0, 70, 69
2, 106457, Note_on_c, 0, 70, 0
2, 106627, Note_on_c, 0, 72, 50
2, 106636, Control_c, 0, 64, 0
2, 106895, Note_on_c, 0, 72, 0
2, 107133, Note_on_c, 0, 77, 64
2, 107440, Note_on_c, 0, 77, 0
2, 107567, Note_on_c, 0, 81, 85
2, 107625, Note_on_c, 0, 78, 37
2, 107642, Note_on_c, 0, 61, 60
2, 107656, Note_on_c, 0, 66, 70
2, 107670, Note_on_c, 0, 55, 62
2, 107709, Note_on_c, 0, 78, 0
2, 107834, Note_on_c, 0, 66, 0
2, 107908, Note_on_c, 0, 81, 0
2, 107937, Control_c, 0, 64, 127
2, 107966, Note_on_c, 0, 55, 0
2, 108012, Note_on_c, 0, 61, 0
2, 108057, Note_on_c, 0, 82, 82
2, 108378, Note_on_c, 0, 82, 0
2, 108503, Note_on_c, 0, 84, 90
2, 108676, Control_c, 0, 64, 0
2, 108823, Note_on_c, 0, 84, 0
2, 109022, Note_on_c, 0, 81, 79
2, 109048, Note_on_c, 0, 84, 63
2, 109170, Note_on_c, 0, 84, 0
2, 109309, Note_on_c, 0, 81, 0
2, 109440, Note_on_c, 0, 81, 73
2, 109475, Note_on_c, 0, 84, 66
2, 109509, Note_on_c, 0, 60, 34
2, 109526, Note_on_c, 0, 57, 37
2, 109545, Note_on_c, 0, 53, 40
2, 109567, Note_on_c, 0, 50, 28
2, 109624, Note_on_c, 0, 79, 34
2, 109629, Note_on_c, 0, 81, 0
2, 109713, Note_on_c, 0, 84, 0
2, 110114, Note_on_c, 0, 79, 0
2, 110135, Note_on_c, 0, 77, 56
2, 110435, Note_on_c, 0, 77, 0
2, 110584, Note_on_c, 0, 57, 0
2, 110620, Note_on_c, 0, 60, 0
2, 110798, Note_on_c, 0, 53, 0
2, 111023, Note_on_c, 0, 57, 51
2, 111026, Note_on_c, 0, 60, 34
2, 111124, Note_on_c, 0, 60, 0
2, 111136, Note_on_c, 0, 50, 0
2, 111266, Note_on_c, 0, 57, 0
2, 111395, Control_c, 0, 64, 127
2, 111708, Note_on_c, 0, 76, 56
2, 111921, Note_on_c, 0, 76, 0
2, 112007, Note_on_c, 0, 79, 75
2, 112262, Control_c, 0, 64, 0
2, 112382, Note_on_c, 0, 77, 80
2, 112408, Note_on_c, 0, 58, 39
2, 112410, Note_on_c, 0, 67, 54
2, 112435, Note_on_c, 0, 63, 46
2, 112451, Note_on_c, 0, 62, 57
2, 112502, Note_on_c, 0, 79, 0
2, 113226, Note_on_c, 0, 77, 0
2, 113250, Control_c, 0, 64, 127
2, 113342, Note_on_c, 0, 67, 0
2, 113351, Note_on_c, 0, 62, 0
2, 113474, Note_on_c, 0, 74, 59
2, 113678, Note_on_c, 0, 58, 0
2, 113709, Note_on_c, 0, 74, 0
2, 113820, Note_on_c, 0, 63, 0
2, 113831, Note_on_c, 0, 75, 73
2, 113853, Control_c, 0, 64, 0
2, 114168, Note_on_c, 0, 66, 50
2, 114191, Note_on_c, 0, 63, 38
2, 114213, Note_on_c, 0, 57, 43
2, 114215, Note_on_c, 0, 61, 38
2, 114244, Note_on_c, 0, 75, 0
2, 114364, Note_on_c, 0, 74, 24
2, 114446, Note_on_c, 0, 74, 0
2, 114834, Note_on_c, 0, 71, 62
2, 114945, Note_on_c, 0, 66, 0
2, 114965, Note_on_c, 0, 57, 0
2, 115031, Note_on_c, 0, 71, 0
2, 115125, Note_on_c, 0, 61, 0
2, 115139, Note_on_c, 0, 74, 71
2, 115182, Note_on_c, 0, 63, 0
2, 115434, Note_on_c, 0, 72, 60
2, 115459, Note_on_c, 0, 65, 41
2, 115468, Note_on_c, 0, 62, 54
2, 115516, Note_on_c, 0, 60, 35
2, 115581, Note_on_c, 0, 74, 0
2, 115766, Note_on_c, 0, 74, 17
2, 115891, Note_on_c, 0, 74, 0
2, 115975, Note_on_c, 0, 65, 0
2, 116063, Note_on_c, 0, 72, 0
2, 116159, Control_c, 0, 64, 127
2, 116188, Note_on_c, 0, 69, 57
2, 116375, Note_on_c, 0, 62, 0
2, 116452, Note_on_c, 0, 60, 0
2, 116541, Note_on_c, 0, 69, 0
2, 116714, Control_c, 0, 64, 0
2, 116766, Note_on_c, 0, 65, 55
2, 116980, Note_on_c, 0, 65, 0
2, 117122, Control_c, 0, 64, 127
2, 117208, Note_on_c, 0, 65, 44
2, 117779, Note_on_c, 0, 65, 0
2, 118254, Control_c, 0, 64, 0
2, 119068, Control_c, 0, 64, 127
2, 119526, Control_c, 0, 64, 0
2, 119604, Note_on_c, 0, 65, 36
2, 119635, Note_on_c, 0, 57, 38
2, 119647, Note_on_c, 0, 60, 35
2, 119721, Note_on_c, 0, 65, 0
2, 119769, Note_on_c, 0, 60, 0
2, 119944, Note_on_c, 0, 57, 0
2, 120086, Note_on_c, 0, 69, 24
2, 120210, Note_on_c, 0, 69, 0
2, 120297, Control_c, 0, 64, 127
2, 120664, Note_on_c, 0, 72, 75
2, 120899, Control_c, 0, 64, 0
2, 120902, Note_on_c, 0, 72, 0
2, 121051, Note_on_c, 0, 58, 39
2, 121070, Note_on_c, 0, 62, 31
2, 121077, Note_on_c, 0, 72, 36
2, 121166, Note_on_c, 0, 73, 39
2, 121211, Note_on_c, 0, 53, 32
2, 121293, Note_on_c, 0, 72, 0
2, 121422, Note_on_c, 0, 62, 0
2, 121445, Note_on_c, 0, 73, 0
2, 121449, Note_on_c, 0, 58, 0
2, 121466, Note_on_c, 0, 74, 54
2, 121473, Note_on_c, 0, 53, 0
2, 121670, Note_on_c, 0, 74, 0
2, 121713, Note_on_c, 0, 77, 73
2, 121759, Note_on_c, 0, 65, 75
2, 121938, Note_on_c, 0, 77, 0
2, 121941, Note_on_c, 0, 65, 0
2, 122090, Note_on_c, 0, 77, 60
2, 122097, Note_on_c, 0, 65, 60
2, 122166, Note_on_c, 0, 76, 32
2, 122267, Note_on_c, 0, 76, 0
2, 122358, Note_on_c, 0, 77, 0
2, 122368, Note_on_c, 0, 65, 0
2, 122606, Note_on_c, 0, 77, 67
2, 122639, Note_on_c, 0, 65, 71
2, 122690, Note_on_c, 0, 62, 37
2, 122783, Note_on_c, 0, 62, 0
2, 122838, Note_on_c, 0, 65, 0
2, 122894, Note_on_c, 0, 77, 0
2, 123050, Note_on_c, 0, 72, 36
2, 123182, Note_on_c, 0, 73, 25
2, 123297, Note_on_c, 0, 72, 0
2, 123414, Note_on_c, 0, 74, 58
2, 123462, Note_on_c, 0, 73, 0
2, 123606, Note_on_c, 0, 77, 68
2, 123633, Note_on_c, 0, 74, 0
2, 123657, Note_on_c, 0, 65, 60
2, 123755, Note_on_c, 0, 65, 0
2, 123841, Note_on_c, 0, 77, 0
2, 123935, Note_on_c, 0, 77, 51
2, 123957, Note_on_c, 0, 65, 57
2, 124250, Note_on_c, 0, 77, 0
2, 124360, Note_on_c, 0, 65, 0
2, 124571, Note_on_c, 0, 62, 49
2, 124576, Note_on_c, 0, 77, 70
2, 124626, Note_on_c, 0, 65, 31
2, 124655, Note_on_c, 0, 62, 0
2, 124739, Note_on_c, 0, 65, 0
2, 124852, Note_on_c, 0, 65, 36
2, 125022, Note_on_c, 0, 73, 34
2, 125051, Note_on_c, 0, 77, 0
2, 125231, Note_on_c, 0, 65, 0
2, 125282, Note_on_c, 0, 74, 44
2, 125292, Note_on_c, 0, 73, 0
2, 125483, Note_on_c, 0, 74, 0
2, 125546, Note_on_c, 0, 77, 73
2, 125562, Note_on_c, 0, 62, 48
2, 125579, Note_on_c, 0, 65, 71
2, 125627, Note_on_c, 0, 58, 30
2, 125647, Note_on_c, 0, 62, 0
2, 125754, Note_on_c, 0, 65, 0
2, 125776, Note_on_c, 0, 58, 0
2, 125921, Note_on_c, 0, 65, 54
2, 126146, Note_on_c, 0, 77, 0
2, 126268, Note_on_c, 0, 65, 0
2, 126451, Note_on_c, 0, 77, 72
2, 126455, Note_on_c, 0, 65, 59
2, 126549, Note_on_c, 0, 64, 63
2, 126597, Note_on_c, 0, 60, 41
2, 126630, Note_on_c, 0, 64, 0
2, 126647, Note_on_c, 0, 65, 0
2, 126666, Note_on_c, 0, 57, 32
2, 126722, Note_on_c, 0, 77, 0
2, 126868, Note_on_c, 0, 77, 54
2, 126901, Note_on_c, 0, 60, 0
2, 126926, Note_on_c, 0, 65, 53
2, 127084, Note_on_c, 0, 57, 0
2, 127238, Note_on_c, 0, 65, 0
2, 127365, Note_on_c, 0, 77, 0
2, 127535, Note_on_c, 0, 57, 22
2, 127638, Control_c, 0, 64, 127
2, 127672, Note_on_c, 0, 81, 75
2, 127691, Note_on_c, 0, 57, 0
2, 127693, Note_on_c, 0, 69, 64
2, 128222, Note_on_c, 0, 64, 24
2, 128224, Note_on_c, 0, 69, 0
2, 128291, Note_on_c, 0, 60, 33
2, 128311, Note_on_c, 0, 64, 0
2, 128320, Note_on_c, 0, 81, 0
2, 128354, Note_on_c, 0, 57, 27
2, 128359, Control_c, 0, 64, 0
2, 128399, Note_on_c, 0, 60, 0
2, 128493, Note_on_c, 0, 57, 0
2, 128582, Note_on_c, 0, 84, 85
2, 128594, Note_on_c, 0, 72, 80
2, 128603, Note_on_c, 0, 53, 62
2, 128625, Note_on_c, 0, 64, 77
2, 128627, Note_on_c, 0, 57, 41
2, 128646, Control_c, 0, 64, 127
2, 128649, Note_on_c, 0, 60, 58
2, 129078, Note_on_c, 0, 53, 0
2, 129124, Note_on_c, 0, 72, 0
2, 129160, Note_on_c, 0, 64, 0
2, 129162, Note_on_c, 0, 84, 0
2, 129186, Note_on_c, 0, 60, 0
2, 129198, Note_on_c, 0, 57, 0
2, 129489, Control_c, 0, 64, 0
2, 129575, Note_on_c, 0, 55, 76
2, 129580, Note_on_c, 0, 85, 65
2, 129595, Note_on_c, 0, 61, 70
2, 129597, Note_on_c, 0, 65, 72
2, 129609, Note_on_c, 0, 73, 51
2, 129825, Control_c, 0, 64, 127
2, 129973, Note_on_c, 0, 73, 0
2, 130096, Note_on_c, 0, 85, 0
2, 130176, Note_on_c, 0, 65, 0
2, 130233, Note_on_c, 0, 55, 0
2, 130341, Note_on_c, 0, 61, 0
2, 130516, Note_on_c, 0, 89, 74
2, 130523, Note_on_c, 0, 77, 74
2, 130531, Note_on_c, 0, 61, 64
2, 130535, Note_on_c, 0, 55, 70
2, 130540, Note_on_c, 0, 65, 70
2, 130758, Note_on_c, 0, 77, 0
2, 130862, Note_on_c, 0, 89, 0
2, 130888, Note_on_c, 0, 65, 0
2, 130917, Note_on_c, 0, 55, 0
2, 131013, Note_on_c, 0, 61, 0
2, 131100, Control_c, 0, 64, 0
2, 131245, Note_on_c, 0, 93, 74
2, 131260, Note_on_c, 0, 81, 70
2, 131268, Note_on_c, 0, 65, 70
2, 131269, Note_on_c, 0, 61, 63
2, 131272, Note_on_c, 0, 55, 70
2, 131411, Note_on_c, 0, 81, 0
2, 131440, Note_on_c, 0, 65, 0
2, 131447, Note_on_c, 0, 93, 0
2, 131457, Control_c, 0, 64, 127
2, 131505, Note_on_c, 0, 55, 0
2, 131538, Note_on_c, 0, 61, 0
2, 131834, Note_on_c, 0, 61, 59
2, 131879, Note_on_c, 0, 65, 31
2, 131898, Note_on_c, 0, 96, 70
2, 131927, Note_on_c, 0, 84, 71
2, 131985, Note_on_c, 0, 65, 0
2, 132019, Note_on_c, 0, 61, 0
2, 132062, Note_on_c, 0, 84, 0
2, 132090, Note_on_c, 0, 96, 0
2, 132527, Note_on_c, 0, 57, 29
2, 132532, Note_on_c, 0, 93, 70
2, 132537, Note_on_c, 0, 81, 70
2, 132541, Control_c, 0, 64, 0
2, 132547, Note_on_c, 0, 60, 56
2, 132548, Note_on_c, 0, 50, 53
2, 132553, Note_on_c, 0, 53, 39
2, 132604, Note_on_c, 0, 92, 50
2, 132882, Note_on_c, 0, 92, 0
2, 133005, Note_on_c, 0, 93, 0
2, 133096, Note_on_c, 0, 81, 0
2, 133144, Control_c, 0, 64, 127
2, 133165, Note_on_c, 0, 60, 0
2, 133233, Note_on_c, 0, 57, 0
2, 133278, Note_on_c, 0, 53, 0
2, 133353, Note_on_c, 0, 91, 54
2, 133365, Note_on_c, 0, 60, 51
2, 133384, Note_on_c, 0, 57, 29
2, 133410, Note_on_c, 0, 79, 52
2, 133413, Note_on_c, 0, 53, 14
2, 133662, Note_on_c, 0, 91, 0
2, 133679, Note_on_c, 0, 60, 0
2, 133686, Note_on_c, 0, 79, 0
2, 133753, Note_on_c, 0, 57, 0
2, 133761, Note_on_c, 0, 50, 0
2, 133797, Note_on_c, 0, 53, 0
2, 133866, Control_c, 0, 64, 0
2, 134008, Note_on_c, 0, 89, 60
2, 134039, Note_on_c, 0, 50, 45
2, 134063, Note_on_c, 0, 60, 40
2, 134070, Note_on_c, 0, 77, 54
2, 134073, Note_on_c, 0, 53, 39
2, 134075, Note_on_c, 0, 57, 46
2, 134294, Note_on_c, 0, 60, 0
2, 134325, Control_c, 0, 64, 127
2, 134375, Note_on_c, 0, 77, 0
2, 134406, Note_on_c, 0, 89, 0
2, 134449, Note_on_c, 0, 57, 0
2, 134548, Note_on_c, 0, 53, 0
2, 134642, Note_on_c, 0, 60, 58
2, 134673, Note_on_c, 0, 89, 54
2, 134702, Note_on_c, 0, 50, 0
2, 134716, Note_on_c, 0, 77, 62
2, 134856, Note_on_c, 0, 60, 0
2, 134988, Note_on_c, 0, 77, 0
2, 135083, Note_on_c, 0, 89, 0
2, 135381, Control_c, 0, 64, 0
2, 135395, Note_on_c, 0, 58, 71
2, 135405, Note_on_c, 0, 62, 66
2, 135407, Note_on_c, 0, 67, 71
2, 135410, Note_on_c, 0, 89, 74
2, 135434, Note_on_c, 0, 63, 68
2, 135436, Note_on_c, 0, 79, 75
2, 136128, Control_c, 0, 64, 127
2, 136199, Note_on_c, 0, 62, 0
2, 136336, Note_on_c, 0, 67, 0
2, 136646, Note_on_c, 0, 63, 0
2, 136653, Note_on_c, 0, 58, 0
2, 136898, Control_c, 0, 64, 0
2, 136979, Note_on_c, 0, 66, 74
2, 136999, Note_on_c, 0, 57, 64
2, 137008, Note_on_c, 0, 63, 55
2, 137022, Note_on_c, 0, 79, 0
2, 137030, Note_on_c, 0, 61, 44
2, 137356, Control_c, 0, 64, 127
2, 137411, Note_on_c, 0, 89, 0
2, 137790, Note_on_c, 0, 57, 0
2, 138035, Note_on_c, 0, 66, 0
2, 138054, Note_on_c, 0, 63, 0
2, 138112, Note_on_c, 0, 61, 0
2, 138242, Note_on_c, 0, 67, 48
2, 138285, Note_on_c, 0, 62, 51
2, 138300, Note_on_c, 0, 56, 34
2, 138340, Control_c, 0, 64, 0
2, 139230, Control_c, 0, 64, 127
2, 139300, Note_on_c, 0, 77, 52
2, 139497, Note_on_c, 0, 77, 0
2, 139881, Control_c, 0, 64, 0
2, 139932, Note_on_c, 0, 80, 71
2, 140123, Note_on_c, 0, 80, 0
2, 140243, Note_on_c, 0, 67, 0
2, 140272, Note_on_c, 0, 82, 87
2, 140438, Note_on_c, 0, 62, 0
2, 140711, Note_on_c, 0, 56, 0
2, 140805, Note_on_c, 0, 82, 0
2, 140906, Note_on_c, 0, 80, 44
2, 141114, Note_on_c, 0, 80, 0
2, 141249, Note_on_c, 0, 82, 65
2, 141741, Note_on_c, 0, 82, 0
2, 141808, Note_on_c, 0, 84, 45
2, 142080, Note_on_c, 0, 84, 0
2, 142084, Note_on_c, 0, 82, 33
2, 142254, Note_on_c, 0, 80, 45
2, 142260, Note_on_c, 0, 82, 0
2, 142497, Note_on_c, 0, 80, 0
2, 143028, Note_on_c, 0, 63, 36
2, 143080, Note_on_c, 0, 58, 42
2, 143104, Note_on_c, 0, 52, 26
2, 143495, Note_on_c, 0, 52, 0
2, 143630, Note_on_c, 0, 58, 0
2, 143676, Note_on_c, 0, 63, 0
2, 144103, Note_on_c, 0, 56, 47
2, 144107, Note_on_c, 0, 60, 40
2, 144148, Note_on_c, 0, 53, 25
2, 144381, Note_on_c, 0, 53, 0
2, 144417, Note_on_c, 0, 60, 0
2, 144549, Note_on_c, 0, 56, 0
2, 145063, Note_on_c, 0, 89, 57
2, 145329, Note_on_c, 0, 89, 0
2, 145668, Note_on_c, 0, 56, 57
2, 145670, Note_on_c, 0, 92, 75
2, 145859, Note_on_c, 0, 92, 0
2, 145881, Note_on_c, 0, 56, 0
2, 145967, Control_c, 0, 64, 127
2, 146025, Note_on_c, 0, 94, 83
2, 146474, Note_on_c, 0, 94, 0
2, 146618, Note_on_c, 0, 96, 64
2, 146642, Control_c, 0, 64, 0
2, 146647, Note_on_c, 0, 54, 81
2, 146649, Note_on_c, 0, 60, 74
2, 146652, Note_on_c, 0, 65, 83
2, 147818, Note_on_c, 0, 96, 0
2, 147868, Control_c, 0, 64, 127
2, 147919, Note_on_c, 0, 94, 71
2, 148199, Note_on_c, 0, 65, 0
2, 148224, Note_on_c, 0, 54, 0
2, 148281, Note_on_c, 0, 60, 0
2, 148325, Note_on_c, 0, 94, 0
2, 148418, Control_c, 0, 64, 0
2, 148475, Note_on_c, 0, 92, 77
2, 148490, Note_on_c, 0, 54, 69
2, 148497, Note_on_c, 0, 65, 73
2, 148499, Note_on_c, 0, 60, 68
2, 148857, Note_on_c, 0, 92, 0
2, 148922, Control_c, 0, 64, 127
2, 148987, Note_on_c, 0, 89, 52
2, 149251, Note_on_c, 0, 65, 0
2, 149299, Note_on_c, 0, 89, 0
2, 149344, Note_on_c, 0, 60, 0
2, 149541, Note_on_c, 0, 54, 0
2, 149560, Note_on_c, 0, 87, 35
2, 149601, Note_on_c, 0, 88, 56
2, 149695, Note_on_c, 0, 88, 0
2, 149791, Note_on_c, 0, 87, 0
2, 149911, Control_c, 0, 64, 0
2, 149913, Note_on_c, 0, 63, 55
2, 149930, Note_on_c, 0, 60, 48
2, 150007, Note_on_c, 0, 56, 43
2, 150023, Note_on_c, 0, 53, 32
2, 150088, Note_on_c, 0, 89, 66
2, 150705, Note_on_c, 0, 89, 0
2, 150729, Control_c, 0, 64, 127
2, 150751, Note_on_c, 0, 63, 0
2, 150813, Note_on_c, 0, 85, 57
2, 151041, Note_on_c, 0, 53, 0
2, 151046, Note_on_c, 0, 56, 0
2, 151063, Note_on_c, 0, 60, 0
2, 151209, Note_on_c, 0, 85, 0
2, 151231, Control_c, 0, 64, 0
2, 151394, Note_on_c, 0, 77, 53
2, 151418, Note_on_c, 0, 60, 38
2, 151420, Note_on_c, 0, 63, 56
2, 151480, Note_on_c, 0, 56, 46
2, 151543, Note_on_c, 0, 53, 22
2, 151763, Control_c, 0, 64, 127
2, 152056, Note_on_c, 0, 60, 0
2, 152198, Note_on_c, 0, 77, 0
2, 152303, Note_on_c, 0, 53, 0
2, 152371, Note_on_c, 0, 58, 65
2, 152452, Note_on_c, 0, 63, 0
2, 152462, Note_on_c, 0, 56, 0
2, 152663, Note_on_c, 0, 58, 0
2, 152723, Control_c, 0, 64, 0
2, 152729, Note_on_c, 0, 85, 62
2, 152743, Note_on_c, 0, 73, 50
2, 152745, Note_on_c, 0, 63, 68
2, 152762, Note_on_c, 0, 58, 30
2, 152798, Note_on_c, 0, 52, 48
2, 152803, Note_on_c, 0, 75, 39
2, 152891, Note_on_c, 0, 75, 0
2, 153324, Note_on_c, 0, 73, 0
2, 153335, Note_on_c, 0, 52, 0
2, 153352, Note_on_c, 0, 85, 0
2, 153395, Note_on_c, 0, 63, 0
2, 153470, Note_on_c, 0, 58, 0
2, 153559, Note_on_c, 0, 63, 64
2, 153561, Note_on_c, 0, 87, 73
2, 153568, Note_on_c, 0, 75, 65
2, 153574, Note_on_c, 0, 52, 55
2, 153580, Note_on_c, 0, 58, 37
2, 153592, Control_c, 0, 64, 127
2, 153902, Note_on_c, 0, 52, 0
2, 153926, Note_on_c, 0, 87, 0
2, 153964, Note_on_c, 0, 63, 0
2, 153974, Note_on_c, 0, 75, 0
2, 154048, Control_c, 0, 64, 0
2, 154070, Note_on_c, 0, 58, 0
2, 154194, Note_on_c, 0, 85, 51
2, 154205, Note_on_c, 0, 63, 61
2, 154206, Note_on_c, 0, 73, 48
2, 154241, Note_on_c, 0, 52, 53
2, 154254, Note_on_c, 0, 58, 56
2, 154480, Control_c, 0, 64, 127
2, 154499, Note_on_c, 0, 63, 0
2, 154543, Note_on_c, 0, 52, 0
2, 154567, Note_on_c, 0, 73, 0
2, 154581, Note_on_c, 0, 85, 0
2, 154653, Note_on_c, 0, 58, 0
2, 154744, Note_on_c, 0, 52, 29
2, 154766, Note_on_c, 0, 58, 25
2, 154768, Note_on_c, 0, 63, 57
2, 154794, Note_on_c, 0, 84, 58
2, 154842, Note_on_c, 0, 72, 60
2, 155001, Note_on_c, 0, 84, 0
2, 155051, Note_on_c, 0, 72, 0
2, 155085, Note_on_c, 0, 52, 0
2, 155186, Note_on_c, 0, 63, 0
2, 155207, Note_on_c, 0, 58, 0
2, 155397, Control_c, 0, 64, 0
2, 155426, Note_on_c, 0, 82, 52
2, 155459, Note_on_c, 0, 60, 40
2, 155462, Note_on_c, 0, 70, 59
2, 155467, Note_on_c, 0, 56, 43
2, 155481, Note_on_c, 0, 53, 47
2, 155716, Note_on_c, 0, 82, 0
2, 155766, Note_on_c, 0, 60, 0
2, 155774, Note_on_c, 0, 70, 0
2, 155828, Note_on_c, 0, 56, 0
2, 155833, Note_on_c, 0, 53, 0
2, 156050, Note_on_c, 0, 80, 49
2, 156107, Note_on_c, 0, 68, 47
2, 156114, Note_on_c, 0, 53, 31
2, 156131, Note_on_c, 0, 56, 34
2, 156143, Control_c, 0, 64, 127
2, 156161, Note_on_c, 0, 60, 36
2, 156319, Note_on_c, 0, 60, 0
2, 156405, Note_on_c, 0, 68, 0
2, 156450, Note_on_c, 0, 80, 0
2, 156489, Note_on_c, 0, 56, 0
2, 156516, Note_on_c, 0, 53, 0
2, 156734, Note_on_c, 0, 80, 51
2, 156770, Note_on_c, 0, 68, 53
2, 156784, Note_on_c, 0, 53, 40
2, 156791, Note_on_c, 0, 56, 46
2, 156823, Note_on_c, 0, 60, 44
2, 157050, Note_on_c, 0, 60, 0
2, 157086, Note_on_c, 0, 80, 0
2, 157091, Note_on_c, 0, 53, 0
2, 157117, Note_on_c, 0, 68, 0
2, 157163, Note_on_c, 0, 56, 0
2, 157365, Note_on_c, 0, 80, 56
2, 157394, Note_on_c, 0, 53, 48
2, 157406, Note_on_c, 0, 56, 47
2, 157408, Note_on_c, 0, 68, 54
2, 157456, Note_on_c, 0, 60, 42
2, 157660, Note_on_c, 0, 60, 0
2, 157696, Note_on_c, 0, 68, 0
2, 157717, Note_on_c, 0, 80, 0
2, 157729, Note_on_c, 0, 53, 0
2, 157768, Note_on_c, 0, 56, 0
2, 158051, Note_on_c, 0, 53, 51
2, 158066, Note_on_c, 0, 80, 61
2, 158068, Note_on_c, 0, 56, 51
2, 158087, Note_on_c, 0, 68, 62
2, 158128, Note_on_c, 0, 60, 40
2, 158245, Note_on_c, 0, 60, 0
2, 158287, Note_on_c, 0, 68, 0
2, 158306, Note_on_c, 0, 80, 0
2, 158315, Note_on_c, 0, 53, 0
2, 158435, Note_on_c, 0, 56, 0
2, 158642, Note_on_c, 0, 77, 66
2, 158656, Note_on_c, 0, 65, 74
2, 158661, Note_on_c, 0, 60, 58
2, 158668, Control_c, 0, 64, 0
2, 158682, Note_on_c, 0, 76, 59
2, 158687, Note_on_c, 0, 70, 56
2, 158718, Note_on_c, 0, 54, 53
2, 159338, Control_c, 0, 64, 127
2, 159746, Note_on_c, 0, 60, 0
2, 159758, Note_on_c, 0, 65, 0
2, 159801, Note_on_c, 0, 54, 0
2, 159809, Note_on_c, 0, 70, 0
2, 159964, Control_c, 0, 64, 0
2, 159972, Note_on_c, 0, 76, 0
2, 160070, Note_on_c, 0, 65, 60
2, 160074, Note_on_c, 0, 74, 53
2, 160081, Note_on_c, 0, 54, 50
2, 160086, Note_on_c, 0, 70, 38
2, 160098, Note_on_c, 0, 60, 57
2, 160398, Control_c, 0, 64, 127
2, 160591, Note_on_c, 0, 77, 0
2, 160674, Note_on_c, 0, 74, 0
2, 160956, Note_on_c, 0, 54, 0
2, 161052, Note_on_c, 0, 65, 0
2, 161114, Note_on_c, 0, 70, 0
2, 161121, Note_on_c, 0, 60, 0
2, 161385, Control_c, 0, 64, 0
2, 161387, Note_on_c, 0, 68, 49
2, 161392, Note_on_c, 0, 63, 40
2, 161411, Note_on_c, 0, 65, 47
2, 161413, Note_on_c, 0, 60, 42
2, 161456, Note_on_c, 0, 53, 27
2, 161459, Note_on_c, 0, 56, 42
2, 161961, Control_c, 0, 64, 127
2, 162218, Note_on_c, 0, 53, 0
2, 162271, Note_on_c, 0, 63, 0
2, 162326, Note_on_c, 0, 56, 0
2, 162378, Note_on_c, 0, 60, 0
2, 162390, Note_on_c, 0, 65, 0
2, 162830, Note_on_c, 0, 65, 53
2, 162842, Note_on_c, 0, 60, 33
2, 162846, Note_on_c, 0, 56, 47
2, 162983, Note_on_c, 0, 60, 0
2, 163123, Note_on_c, 0, 65, 0
2, 163353, Note_on_c, 0, 56, 0
2, 163382, Note_on_c, 0, 68, 0
2, 164153, Control_c, 0, 64, 0
2, 164190, Note_on_c, 0, 56, 60
2, 164205, Note_on_c, 0, 61, 47
2, 164219, Note_on_c, 0, 70, 50
2, 164251, Note_on_c, 0, 66, 51
2, 164608, Note_on_c, 0, 61, 0
2, 164747, Note_on_c, 0, 70, 0
2, 164774, Note_on_c, 0, 66, 0
2, 164846, Note_on_c, 0, 72, 51
2, 164855, Note_on_c, 0, 63, 57
2, 164896, Note_on_c, 0, 58, 59
2, 164901, Note_on_c, 0, 68, 49
2, 164913, Note_on_c, 0, 56, 0
2, 165201, Note_on_c, 0, 72, 0
2, 165235, Note_on_c, 0, 63, 0
2, 165357, Note_on_c, 0, 68, 0
2, 165465, Note_on_c, 0, 61, 52
2, 165485, Note_on_c, 0, 70, 54
2, 165487, Note_on_c, 0, 58, 0
2, 165498, Control_c, 0, 64, 127
2, 165501, Note_on_c, 0, 56, 53
2, 165580, Note_on_c, 0, 66, 33
2, 165642, Control_c, 0, 64, 0
2, 165717, Note_on_c, 0, 61, 0
2, 165787, Note_on_c, 0, 66, 0
2, 165870, Note_on_c, 0, 70, 0
2, 165957, Note_on_c, 0, 56, 0
2, 166050, Control_c, 0, 64, 127
2, 166062, Note_on_c, 0, 72, 48
2, 166068, Note_on_c, 0, 58, 58
2, 166073, Note_on_c, 0, 61, 56
2, 166115, Note_on_c, 0, 68, 43
2, 166139, Note_on_c, 0, 66, 43
2, 166367, Note_on_c, 0, 72, 0
2, 166428, Note_on_c, 0, 66, 0
2, 166466, Note_on_c, 0, 68, 0
2, 166473, Note_on_c, 0, 61, 0
2, 166583, Control_c, 0, 64, 0
2, 166632, Note_on_c, 0, 58, 0
2, 166780, Note_on_c, 0, 57, 51
2, 166802, Note_on_c, 0, 69, 57
2, 166854, Note_on_c, 0, 60, 24
2, 166861, Note_on_c, 0, 65, 31
2, 167006, Note_on_c, 0, 65, 0
2, 167008, Note_on_c, 0, 60, 0
2, 167106, Note_on_c, 0, 57, 0
2, 167145, Note_on_c, 0, 69, 0
2, 167351, Note_on_c, 0, 65, 57
2, 167358, Note_on_c, 0, 60, 44
2, 167387, Note_on_c, 0, 53, 44
2, 168170, Control_c, 0, 64, 127
2, 168501, Note_on_c, 0, 60, 0
2, 168532, Note_on_c, 0, 53, 0
2, 168609, Note_on_c, 0, 65, 0
2, 168799, Note_on_c, 0, 65, 44
2, 168823, Note_on_c, 0, 60, 39
2, 168868, Note_on_c, 0, 53, 40
2, 168906, Note_on_c, 0, 65, 0
2, 168981, Note_on_c, 0, 53, 0
2, 169103, Note_on_c, 0, 60, 0
2, 169590, Note_on_c, 0, 46, 23
2, 169636, Note_on_c, 0, 44, 37
2, 169807, Control_c, 0, 64, 0
2, 169853, Note_on_c, 0, 46, 0
2, 169871, Note_on_c, 0, 44, 0
2, 169905, Note_on_c, 0, 46, 37
2, 169922, Note_on_c, 0, 61, 63
2, 169963, Note_on_c, 0, 65, 51
2, 170116, Note_on_c, 0, 61, 0
2, 170136, Note_on_c, 0, 62, 46
2, 170625, Note_on_c, 0, 46, 0
2, 170742, Note_on_c, 0, 65, 0
2, 170786, Note_on_c, 0, 44, 19
2, 170858, Note_on_c, 0, 62, 0
2, 170874, Note_on_c, 0, 65, 26
2, 170894, Note_on_c, 0, 45, 34
2, 170898, Note_on_c, 0, 44, 0
2, 170958, Note_on_c, 0, 60, 33
2, 171314, Note_on_c, 0, 65, 0
2, 171614, Note_on_c, 0, 45, 0
2, 171750, Note_on_c, 0, 60, 0
2, 171818, Note_on_c, 0, 65, 46
2, 171839, Note_on_c, 0, 42, 25
2, 171841, Note_on_c, 0, 58, 52
2, 172449, Note_on_c, 0, 65, 0
2, 172526, Note_on_c, 0, 42, 0
2, 172590, Note_on_c, 0, 58, 0
2, 172708, Note_on_c, 0, 41, 24
2, 172727, Note_on_c, 0, 65, 44
2, 172804, Note_on_c, 0, 57, 44
2, 172814, Control_c, 0, 64, 127
2, 173196, Note_on_c, 0, 57, 0
2, 173397, Note_on_c, 0, 29, 40
2, 173512, Note_on_c, 0, 65, 0
2, 173625, Note_on_c, 0, 41, 0
2, 173673, Note_on_c, 0, 29, 0
2, 174376, Note_on_c, 0, 60, 60
2, 174595, Control_c, 0, 64, 0
2, 174623, Note_on_c, 0, 60, 0
2, 174791, Note_on_c, 0, 61, 52
2, 175214, Note_on_c, 0, 61, 0
2, 175334, Note_on_c, 0, 63, 71
2, 175696, Note_on_c, 0, 63, 0
2, 175835, Note_on_c, 0, 64, 57
2, 176198, Note_on_c, 0, 64, 0
2, 176335, Note_on_c, 0, 65, 64
2, 176370, Note_on_c, 0, 61, 52
2, 176392, Note_on_c, 0, 55, 54
2, 176562, Note_on_c, 0, 65, 0
2, 176584, Note_on_c, 0, 61, 0
2, 176613, Note_on_c, 0, 55, 0
2, 176793, Note_on_c, 0, 66, 61
2, 177144, Note_on_c, 0, 66, 0
2, 177266, Note_on_c, 0, 67, 75
2, 177323, Note_on_c, 0, 61, 63
2, 177342, Note_on_c, 0, 55, 58
2, 177520, Note_on_c, 0, 67, 0
2, 177525, Note_on_c, 0, 61, 0
2, 177559, Note_on_c, 0, 55, 0
2, 177681, Note_on_c, 0, 68, 53
2, 177744, Control_c, 0, 64, 127
2, 178053, Note_on_c, 0, 68, 0
2, 178223, Note_on_c, 0, 69, 78
2, 178367, Control_c, 0, 64, 0
2, 178554, Note_on_c, 0, 69, 0
2, 178598, Note_on_c, 0, 60, 36
2, 178600, Note_on_c, 0, 57, 45
2, 178638, Note_on_c, 0, 50, 27
2, 178660, Note_on_c, 0, 65, 70
2, 178665, Note_on_c, 0, 53, 29
2, 179445, Note_on_c, 0, 65, 0
2, 179556, Note_on_c, 0, 64, 56
2, 179753, Note_on_c, 0, 60, 0
2, 179812, Note_on_c, 0, 57, 0
2, 179987, Note_on_c, 0, 64, 0
2, 180184, Note_on_c, 0, 67, 90
2, 180210, Note_on_c, 0, 60, 44
2, 180280, Note_on_c, 0, 57, 38
2, 180314, Note_on_c, 0, 60, 0
2, 180398, Note_on_c, 0, 57, 0
2, 180532, Control_c, 0, 64, 127
2, 180592, Note_on_c, 0, 53, 0
2, 180604, Note_on_c, 0, 50, 0
2, 180844, Note_on_c, 0, 67, 0
2, 180890, Note_on_c, 0, 64, 84
2, 181377, Note_on_c, 0, 64, 0
2, 181449, Control_c, 0, 64, 0
2, 181531, Note_on_c, 0, 58, 59
2, 181538, Note_on_c, 0, 65, 85
2, 181578, Note_on_c, 0, 55, 49
2, 181598, Note_on_c, 0, 48, 43
2, 182212, Note_on_c, 0, 58, 0
2, 182313, Control_c, 0, 64, 127
2, 182325, Note_on_c, 0, 55, 0
2, 182354, Note_on_c, 0, 65, 0
2, 182366, Note_on_c, 0, 62, 73
2, 182502, Note_on_c, 0, 48, 0
2, 182834, Note_on_c, 0, 62, 0
2, 182843, Control_c, 0, 64, 0
2, 182985, Note_on_c, 0, 63, 64
2, 183018, Note_on_c, 0, 47, 44
2, 183028, Note_on_c, 0, 57, 43
2, 183373, Control_c, 0, 64, 127
2, 183494, Note_on_c, 0, 57, 0
2, 183614, Note_on_c, 0, 47, 0
2, 183631, Note_on_c, 0, 63, 0
2, 183695, Note_on_c, 0, 61, 65
2, 184169, Control_c, 0, 64, 0
2, 184209, Note_on_c, 0, 61, 0
2, 184370, Note_on_c, 0, 62, 57
2, 184380, Note_on_c, 0, 40, 51
2, 184600, Control_c, 0, 64, 127
2, 184901, Note_on_c, 0, 62, 0
2, 185061, Note_on_c, 0, 47, 43
2, 185224, Note_on_c, 0, 40, 0
2, 185855, Note_on_c, 0, 47, 0
2, 185867, Note_on_c, 0, 55, 59
2, 185995, Note_on_c, 0, 81, 74
2, 186009, Note_on_c, 0, 74, 71
2, 186014, Note_on_c, 0, 69, 78
2, 186034, Note_on_c, 0, 77, 61
2, 186050, Note_on_c, 0, 55, 0
2, 186304, Note_on_c, 0, 69, 0
2, 186359, Note_on_c, 0, 74, 0
2, 186427, Note_on_c, 0, 77, 0
2, 186460, Note_on_c, 0, 81, 0
2, 186770, Note_on_c, 0, 84, 92
2, 186782, Note_on_c, 0, 72, 89
2, 186784, Note_on_c, 0, 77, 80
2, 186804, Note_on_c, 0, 81, 70
2, 187135, Note_on_c, 0, 72, 0
2, 187214, Note_on_c, 0, 84, 0
2, 187219, Note_on_c, 0, 77, 0
2, 187255, Note_on_c, 0, 81, 0
2, 187365, Control_c, 0, 64, 0
2, 187432, Note_on_c, 0, 61, 64
2, 187435, Note_on_c, 0, 55, 72
2, 187437, Note_on_c, 0, 84, 78
2, 187442, Note_on_c, 0, 66, 75
2, 187459, Note_on_c, 0, 77, 74
2, 187461, Note_on_c, 0, 81, 64
2, 187466, Note_on_c, 0, 72, 84
2, 188095, Control_c, 0, 64, 127
2, 188232, Note_on_c, 0, 81, 0
2, 188251, Note_on_c, 0, 77, 0
2, 188263, Note_on_c, 0, 84, 0
2, 188378, Note_on_c, 0, 72, 0
2, 188387, Note_on_c, 0, 55, 0
2, 188414, Note_on_c, 0, 66, 0
2, 188543, Note_on_c, 0, 61, 0
2, 188812, Control_c, 0, 64, 0
2, 188897, Note_on_c, 0, 81, 62
2, 188935, Note_on_c, 0, 61, 55
2, 188945, Note_on_c, 0, 69, 50
2, 188947, Note_on_c, 0, 74, 52
2, 188954, Note_on_c, 0, 55, 54
2, 188961, Note_on_c, 0, 77, 43
2, 188968, Note_on_c, 0, 66, 53
2, 189105, Note_on_c, 0, 66, 0
2, 189177, Control_c, 0, 64, 127
2, 189254, Note_on_c, 0, 55, 0
2, 189288, Note_on_c, 0, 61, 0
2, 189429, Note_on_c, 0, 81, 0
2, 189441, Note_on_c, 0, 74, 0
2, 189492, Note_on_c, 0, 77, 0
2, 189551, Note_on_c, 0, 69, 0
2, 190139, Control_c, 0, 64, 0
2, 190223, Note_on_c, 0, 57, 46
2, 190228, Note_on_c, 0, 62, 53
2, 190231, Note_on_c, 0, 76, 48
2, 190245, Note_on_c, 0, 79, 54
2, 190257, Note_on_c, 0, 50, 33
2, 190262, Note_on_c, 0, 67, 40
2, 190271, Note_on_c, 0, 72, 46
2, 190301, Note_on_c, 0, 53, 31
2, 190838, Control_c, 0, 64, 127
2, 190984, Note_on_c, 0, 62, 0
2, 191025, Note_on_c, 0, 76, 0
2, 191095, Note_on_c, 0, 79, 0
2, 191131, Note_on_c, 0, 67, 0
2, 191155, Note_on_c, 0, 57, 0
2, 191157, Note_on_c, 0, 72, 0
2, 191242, Note_on_c, 0, 53, 0
2, 191309, Note_on_c, 0, 50, 0
2, 191675, Note_on_c, 0, 57, 54
2, 191695, Note_on_c, 0, 77, 47
2, 191716, Note_on_c, 0, 53, 47
2, 191723, Note_on_c, 0, 50, 26
2, 191740, Note_on_c, 0, 67, 36
2, 191747, Note_on_c, 0, 72, 41
2, 191759, Note_on_c, 0, 73, 25
2, 191846, Note_on_c, 0, 50, 0
2, 191863, Note_on_c, 0, 53, 0
2, 191987, Note_on_c, 0, 57, 0
2, 192009, Note_on_c, 0, 67, 0
2, 192023, Note_on_c, 0, 73, 0
2, 192125, Note_on_c, 0, 72, 0
2, 192201, Note_on_c, 0, 77, 0
2, 193027, Control_c, 0, 64, 0
2, 193058, Note_on_c, 0, 75, 88
2, 193063, Note_on_c, 0, 79, 81
2, 193075, Note_on_c, 0, 63, 74
2, 193084, Note_on_c, 0, 67, 78
2, 193087, Note_on_c, 0, 57, 79
2, 193677, Control_c, 0, 64, 127
2, 194020, Note_on_c, 0, 67, 0
2, 194087, Note_on_c, 0, 57, 0
2, 194198, Note_on_c, 0, 75, 0
2, 194210, Note_on_c, 0, 79, 0
2, 194219, Note_on_c, 0, 63, 0
2, 194548, Note_on_c, 0, 77, 79
2, 194579, Note_on_c, 0, 74, 84
2, 194584, Note_on_c, 0, 57, 74
2, 194586, Note_on_c, 0, 63, 71
2, 194589, Note_on_c, 0, 67, 66
2, 194774, Note_on_c, 0, 67, 0
2, 194925, Note_on_c, 0, 63, 0
2, 194995, Note_on_c, 0, 57, 0
2, 195038, Note_on_c, 0, 74, 0
2, 195132, Note_on_c, 0, 77, 0
2, 195916, Control_c, 0, 64, 0
2, 195969, Note_on_c, 0, 77, 79
2, 195976, Note_on_c, 0, 46, 90
2, 195981, Note_on_c, 0, 70, 86
2, 195989, Note_on_c, 0, 74, 80
2, 195990, Note_on_c, 0, 65, 92
2, 196000, Note_on_c, 0, 34, 86
2, 196022, Note_on_c, 0, 76, 63
2, 196494, Control_c, 0, 64, 127
2, 197080, Note_on_c, 0, 65, 0
2, 197138, Note_on_c, 0, 34, 0
2, 197140, Note_on_c, 0, 74, 0
2, 197152, Note_on_c, 0, 46, 0
2, 197190, Note_on_c, 0, 76, 0
2, 197201, Note_on_c, 0, 70, 0
2, 197253, Note_on_c, 0, 77, 0
2, 197430, Control_c, 0, 64, 0
2, 197471, Note_on_c, 0, 72, 71
2, 197477, Note_on_c, 0, 45, 82
2, 197486, Note_on_c, 0, 77, 55
2, 197498, Note_on_c, 0, 33, 80
2, 197546, Note_on_c, 0, 65, 62
2, 197987, Control_c, 0, 64, 127
2, 198165, Note_on_c, 0, 72, 0
2, 198364, Note_on_c, 0, 65, 0
2, 198482, Note_on_c, 0, 77, 0
2, 198515, Note_on_c, 0, 45, 0
2, 198534, Note_on_c, 0, 33, 0
2, 198827, Control_c, 0, 64, 0
2, 198878, Note_on_c, 0, 77, 66
2, 198892, Note_on_c, 0, 70, 63
2, 198894, Note_on_c, 0, 74, 55
2, 198900, Note_on_c, 0, 43, 63
2, 198902, Note_on_c, 0, 65, 68
2, 198918, Note_on_c, 0, 31, 69
2, 198981, Note_on_c, 0, 76, 33
2, 199410, Control_c, 0, 64, 127
2, 199612, Note_on_c, 0, 65, 0
2, 199686, Note_on_c, 0, 70, 0
2, 199818, Note_on_c, 0, 31, 0
2, 199828, Note_on_c, 0, 43, 0
2, 199842, Note_on_c, 0, 76, 0
2, 199883, Note_on_c, 0, 74, 0
2, 199917, Note_on_c, 0, 77, 0
2, 200160, Control_c, 0, 64, 0
2, 200301, Note_on_c, 0, 77, 51
2, 200339, Note_on_c, 0, 70, 53
2, 200347, Note_on_c, 0, 72, 47
2, 200361, Note_on_c, 0, 42, 43
2, 200387, Note_on_c, 0, 30, 45
2, 200637, Control_c, 0, 64, 127
2, 201093, Note_on_c, 0, 30, 0
2, 201148, Note_on_c, 0, 42, 0
2, 201186, Note_on_c, 0, 77, 0
2, 201194, Note_on_c, 0, 72, 0
2, 201254, Note_on_c, 0, 70, 0
2, 201626, Control_c, 0, 64, 0
2, 201762, Note_on_c, 0, 77, 41
2, 201782, Note_on_c, 0, 41, 36
2, 201794, Note_on_c, 0, 29, 31
2, 201820, Note_on_c, 0, 69, 30
2, 201830, Note_on_c, 0, 72, 34
2, 202420, Control_c, 0, 64, 127
2, 202704, Note_on_c, 0, 77, 0
2, 202749, Note_on_c, 0, 72, 0
2, 202867, Note_on_c, 0, 69, 0
2, 202982, Note_on_c, 0, 29, 0
2, 203157, Note_on_c, 0, 41, 0
2, 204330, Note_on_c, 0, 48, 47
2, 204417, Control_c, 0, 64, 0
2, 204515, Note_on_c, 0, 65, 45
2, 204525, Note_on_c, 0, 58, 38
2, 204528, Note_on_c, 0, 50, 41
2, 204566, Note_on_c, 0, 48, 0
2, 205295, Note_on_c, 0, 65, 0
2, 205454, Note_on_c, 0, 50, 0
2, 205457, Note_on_c, 0, 58, 0
2, 205482, Note_on_c, 0, 65, 24
2, 205492, Note_on_c, 0, 57, 47
2, 205809, Note_on_c, 0, 57, 0
2, 206214, Note_on_c, 0, 65, 0
2, 206429, Note_on_c, 0, 46, 37
2, 206450, Note_on_c, 0, 55, 40
2, 206827, Note_on_c, 0, 55, 0
2, 207126, Note_on_c, 0, 46, 0
2, 207314, Note_on_c, 0, 65, 42
2, 207321, Note_on_c, 0, 41, 36
2, 207333, Note_on_c, 0, 57, 36
2, 207388, Note_on_c, 0, 48, 32
2, 207875, Note_on_c, 0, 57, 0
2, 207962, Note_on_c, 0, 65, 0
2, 208043, Note_on_c, 0, 48, 0
2, 208074, Note_on_c, 0, 41, 0
2, 208074, End_track
3, 0, Start_track
3, 0, Title_t, "MIDI 2"
3, 0, Program_c, 1, 32
3, 18, Note_on_c, 1, 29, 65
3, 2257, Note_on_c, 1, 29, 0
3, 2301, Note_on_c, 1, 31, 60
3, 2541, Note_on_c, 1, 32, 67
3, 2597, Note_on_c, 1, 31, 0
3, 2703, Note_on_c, 1, 32, 0
3, 2885, Note_on_c, 1, 33, 80
3, 4805, Note_on_c, 1, 37, 72
3, 4843, Note_on_c, 1, 33, 0
3, 5575, Note_on_c, 1, 34, 44
3, 5799, Note_on_c, 1, 37, 0
3, 5803, Note_on_c, 1, 34, 0
3, 5807, Note_on_c, 1, 38, 75
3, 8347, Note_on_c, 1, 34, 47
3, 8375, Note_on_c, 1, 38, 0
3, 8601, Note_on_c, 1, 34, 0
3, 8643, Note_on_c, 1, 36, 63
3, 11005, Note_on_c, 1, 29, 55
3, 11011, Note_on_c, 1, 36, 0
3, 11237, Note_on_c, 1, 29, 0
3, 11351, Note_on_c, 1, 34, 62
3, 13387, Note_on_c, 1, 46, 87
3, 13605, Note_on_c, 1, 34, 0
3, 14121, Note_on_c, 1, 46, 0
3, 14125, Note_on_c, 1, 39, 56
3, 14413, Note_on_c, 1, 39, 0
3, 14419, Note_on_c, 1, 45, 74
3, 16933, Note_on_c, 1, 45, 0
3, 16965, Note_on_c, 1, 38, 58
3, 17269, Note_on_c, 1, 38, 0
3, 17297, Note_on_c, 1, 31, 66
3, 18849, Note_on_c, 1, 38, 69
3, 18971, Note_on_c, 1, 31, 0
3, 19023, Note_on_c, 1, 38, 0
3, 19205, Note_on_c, 1, 37, 51
3, 19545, Note_on_c, 1, 37, 0
3, 19807, Note_on_c, 1, 34, 48
3, 19907, Note_on_c, 1, 34, 0
3, 20115, Note_on_c, 1, 35, 52
3, 21027, Note_on_c, 1, 35, 0
3, 21057, Note_on_c, 1, 36, 74
3, 21723, Note_on_c, 1, 37, 66
3, 21805, Note_on_c, 1, 36, 0
3, 21915, Note_on_c, 1, 37, 0
3, 22111, Note_on_c, 1, 44, 69
3, 22647, Note_on_c, 1, 44, 0
3, 22809, Note_on_c, 1, 38, 40
3, 22911, Note_on_c, 1, 38, 0
3, 22967, Note_on_c, 1, 41, 62
3, 24665, Note_on_c, 1, 36, 41
3, 24689, Note_on_c, 1, 41, 0
3, 24777, Note_on_c, 1, 36, 0
3, 24943, Note_on_c, 1, 34, 65
3, 25821, Note_on_c, 1, 34, 0
3, 25881, Note_on_c, 1, 33, 62
3, 27415, Note_on_c, 1, 40, 83
3, 27431, Note_on_c, 1, 33, 0
3, 28223, Note_on_c, 1, 39, 76
3, 28281, Note_on_c, 1, 40, 0
3, 28489, Note_on_c, 1, 39, 0
3, 28663, Note_on_c, 1, 38, 67
3, 30553, Note_on_c, 1, 45, 76
3, 30581, Note_on_c, 1, 38, 0
3, 31303, Note_on_c, 1, 50, 70
3, 31309, Note_on_c, 1, 45, 0
3, 31603, Note_on_c, 1, 50, 0
3, 31635, Note_on_c, 1, 48, 71
3, 32531, Note_on_c, 1, 42, 65
3, 32549, Note_on_c, 1, 48, 0
3, 33439, Note_on_c, 1, 42, 0
3, 33499, Note_on_c, 1, 41, 62
3, 34401, Note_on_c, 1, 41, 0
3, 34477, Note_on_c, 1, 46, 65
3, 37103, Note_on_c, 1, 46, 0
3, 38015, Note_on_c, 1, 34, 41
3, 38199, Note_on_c, 1, 34, 0
3, 38285, Note_on_c, 1, 36, 54
3, 38303, Note_on_c, 1, 52, 71
3, 38893, Note_on_c, 1, 36, 0
3, 38961, Note_on_c, 1, 52, 0
3, 38969, Note_on_c, 1, 34, 34
3, 39001, Note_on_c, 1, 51, 46
3, 39197, Note_on_c, 1, 34, 0
3, 39279, Note_on_c, 1, 36, 38
3, 39339, Note_on_c, 1, 52, 59
3, 39347, Note_on_c, 1, 51, 0
3, 40155, Note_on_c, 1, 36, 0
3, 40277, Note_on_c, 1, 52, 0
3, 40937, Note_on_c, 1, 41, 52
3, 40939, Note_on_c, 1, 56, 58
3, 42837, Note_on_c, 1, 39, 61
3, 42839, Note_on_c, 1, 41, 0
3, 43049, Note_on_c, 1, 39, 0
3, 43095, Note_on_c, 1, 56, 0
3, 43147, Note_on_c, 1, 54, 68
3, 43161, Note_on_c, 1, 38, 53
3, 45689, Note_on_c, 1, 34, 41
3, 45797, Note_on_c, 1, 38, 0
3, 45933, Note_on_c, 1, 54, 0
3, 45937, Note_on_c, 1, 34, 0
3, 45965, Note_on_c, 1, 53, 63
3, 45979, Note_on_c, 1, 37, 57
3, 48629, Note_on_c, 1, 34, 54
3, 48731, Note_on_c, 1, 37, 0
3, 48785, Note_on_c, 1, 53, 0
3, 48887, Note_on_c, 1, 52, 54
3, 48903, Note_on_c, 1, 34, 0
3, 48943, Note_on_c, 1, 36, 45
3, 50473, Note_on_c, 1, 39, 51
3, 50553, Note_on_c, 1, 36, 0
3, 50723, Note_on_c, 1, 52, 0
3, 50735, Note_on_c, 1, 39, 0
3, 50807, Note_on_c, 1, 40, 52
3, 51449, Note_on_c, 1, 39, 53
3, 51667, Note_on_c, 1, 40, 0
3, 51697, Note_on_c, 1, 39, 0
3, 51725, Note_on_c, 1, 41, 57
3, 52549, Note_on_c, 1, 56, 92
3, 54445, Note_on_c, 1, 39, 53
3, 54591, Note_on_c, 1, 41, 0
3, 54637, Note_on_c, 1, 56, 0
3, 54669, Note_on_c, 1, 39, 0
3, 54831, Note_on_c, 1, 38, 64
3, 55639, Note_on_c, 1, 54, 79
3, 56813, Note_on_c, 1, 38, 0
3, 57267, Note_on_c, 1, 38, 68
3, 57395, Note_on_c, 1, 54, 0
3, 57461, Note_on_c, 1, 38, 0
3, 57541, Note_on_c, 1, 53, 45
3, 57573, Note_on_c, 1, 37, 61
3, 58041, Note_on_c, 1, 37, 0
3, 58053, Note_on_c, 1, 53, 0
3, 58201, Note_on_c, 1, 37, 51
3, 58207, Note_on_c, 1, 53, 55
3, 58349, Note_on_c, 1, 53, 0
3, 58413, Note_on_c, 1, 37, 0
3, 59539, Note_on_c, 1, 53, 57
3, 59591, Note_on_c, 1, 37, 46
3, 60011, Note_on_c, 1, 53, 0
3, 60019, Note_on_c, 1, 37, 0
3, 60123, Note_on_c, 1, 37, 38
3, 60153, Note_on_c, 1, 53, 57
3, 60327, Note_on_c, 1, 53, 0
3, 60431, Note_on_c, 1, 37, 0
3, 61381, Note_on_c, 1, 52, 62
3, 61447, Note_on_c, 1, 36, 41
3, 61807, Note_on_c, 1, 52, 0
3, 61809, Note_on_c, 1, 36, 0
3, 62039, Note_on_c, 1, 52, 59
3, 62129, Note_on_c, 1, 36, 46
3, 62221, Note_on_c, 1, 52, 0
3, 62265, Note_on_c, 1, 36, 0
3, 63027, Note_on_c, 1, 36, 45
3, 63165, Note_on_c, 1, 36, 0
3, 63367, Note_on_c, 1, 29, 55
3, 64961, Note_on_c, 1, 36, 80
3, 66881, Note_on_c, 1, 29, 0
3, 67087, Note_on_c, 1, 36, 0
3, 67087, Note_on_c, 1, 46, 87
3, 67253, Note_on_c, 1, 44, 36
3, 67323, Note_on_c, 1, 44, 0
3, 68821, Note_on_c, 1, 46, 0
3, 68837, Note_on_c, 1, 40, 48
3, 69085, Note_on_c, 1, 40, 0
3, 69121, Note_on_c, 1, 41, 64
3, 71453, Note_on_c, 1, 41, 0
3, 71665, Note_on_c, 1, 32, 64
3, 71815, Note_on_c, 1, 32, 0
3, 72009, Note_on_c, 1, 33, 72
3, 73941, Note_on_c, 1, 37, 54
3, 73961, Note_on_c, 1, 33, 0
3, 74627, Note_on_c, 1, 34, 51
3, 74755, Note_on_c, 1, 37, 0
3, 74881, Note_on_c, 1, 34, 0
3, 74897, Note_on_c, 1, 38, 65
3, 77407, Note_on_c, 1, 50, 99
3, 77513, Note_on_c, 1, 38, 0
3, 77691, Note_on_c, 1, 50, 0
3, 77811, Note_on_c, 1, 48, 83
3, 78591, Note_on_c, 1, 48, 0
3, 78705, Note_on_c, 1, 43, 50
3, 79315, Note_on_c, 1, 43, 0
3, 79347, Note_on_c, 1, 40, 45
3, 79559, Note_on_c, 1, 40, 0
3, 79617, Note_on_c, 1, 41, 48
3, 80407, Note_on_c, 1, 41, 0
3, 80605, Note_on_c, 1, 40, 58
3, 82423, Note_on_c, 1, 40, 0
3, 82519, Note_on_c, 1, 34, 60
3, 83483, Note_on_c, 1, 34, 0
3, 83521, Note_on_c, 1, 33, 63
3, 85079, Note_on_c, 1, 40, 67
3, 85175, Note_on_c, 1, 33, 0
3, 85573, Note_on_c, 1, 40, 0
3, 85707, Note_on_c, 1, 36, 64
3, 85917, Note_on_c, 1, 36, 0
3, 86053, Note_on_c, 1, 37, 65
3, 86289, Note_on_c, 1, 37, 0
3, 86369, Note_on_c, 1, 38, 69
3, 88643, Note_on_c, 1, 39, 61
3, 88701, Note_on_c, 1, 38, 0
3, 88867, Note_on_c, 1, 39, 0
3, 88995, Note_on_c, 1, 40, 46
3, 89209, Note_on_c, 1, 40, 0
3, 89251, Note_on_c, 1, 41, 67
3, 90591, Note_on_c, 1, 41, 0
3, 90791, Note_on_c, 1, 41, 49
3, 91773, Note_on_c, 1, 39, 41
3, 91905, Note_on_c, 1, 41, 0
3, 92035, Note_on_c, 1, 39, 0
3, 92131, Note_on_c, 1, 46, 82
3, 93627, Note_on_c, 1, 46, 0
3, 93723, Note_on_c, 1, 45, 63
3, 93735, Note_on_c, 1, 33, 59
3, 94545, Note_on_c, 1, 45, 0
3, 95067, Note_on_c, 1, 33, 0
3, 95117, Note_on_c, 1, 31, 63
3, 96571, Note_on_c, 1, 31, 0
3, 96623, Note_on_c, 1, 30, 73
3, 97903, Note_on_c, 1, 30, 0
3, 97935, Note_on_c, 1, 29, 77
3, 100457, Note_on_c, 1, 34, 94
3, 100463, Note_on_c, 1, 29, 0
3, 101407, Note_on_c, 1, 32, 64
3, 101611, Note_on_c, 1, 32, 0
3, 101625, Note_on_c, 1, 34, 0
3, 101671, Note_on_c, 1, 33, 55
3, 102599, Note_on_c, 1, 33, 0
3, 102623, Note_on_c, 1, 31, 53
3, 103583, Note_on_c, 1, 31, 0
3, 103601, Note_on_c, 1, 29, 47
3, 105805, Note_on_c, 1, 31, 61
3, 105837, Note_on_c, 1, 29, 0
3, 106059, Note_on_c, 1, 31, 0
3, 106107, Note_on_c, 1, 32, 69
3, 106311, Note_on_c, 1, 32, 0
3, 106473, Note_on_c, 1, 33, 69
3, 108747, Note_on_c, 1, 33, 0
3, 108767, Note_on_c, 1, 36, 60
3, 109011, Note_on_c, 1, 36, 0
3, 109117, Note_on_c, 1, 37, 61
3, 109357, Note_on_c, 1, 37, 0
3, 109433, Note_on_c, 1, 38, 67
3, 112011, Note_on_c, 1, 39, 36
3, 112017, Note_on_c, 1, 50, 98
3, 112025, Note_on_c, 1, 38, 0
3, 112205, Note_on_c, 1, 39, 0
3, 112421, Note_on_c, 1, 50, 0
3, 112551, Note_on_c, 1, 48, 77
3, 113419, Note_on_c, 1, 43, 49
3, 113525, Note_on_c, 1, 43, 0
3, 114023, Note_on_c, 1, 41, 62
3, 114131, Note_on_c, 1, 48, 0
3, 114951, Note_on_c, 1, 36, 56
3, 115089, Note_on_c, 1, 41, 0
3, 115123, Note_on_c, 1, 36, 0
3, 115277, Note_on_c, 1, 46, 66
3, 116821, Note_on_c, 1, 38, 54
3, 117017, Note_on_c, 1, 38, 0
3, 117071, Note_on_c, 1, 46, 0
3, 117169, Note_on_c, 1, 46, 79
3, 118027, Note_on_c, 1, 46, 0
3, 118077, Note_on_c, 1, 45, 73
3, 120691, Note_on_c, 1, 33, 66
3, 120849, Note_on_c, 1, 45, 0
3, 120895, Note_on_c, 1, 33, 0
3, 121025, Note_on_c, 1, 31, 64
3, 121923, Note_on_c, 1, 31, 0
3, 121963, Note_on_c, 1, 33, 56
3, 122303, Note_on_c, 1, 33, 0
3, 122591, Note_on_c, 1, 34, 64
3, 122789, Note_on_c, 1, 34, 0
3, 122893, Note_on_c, 1, 35, 60
3, 123729, Note_on_c, 1, 35, 0
3, 123771, Note_on_c, 1, 36, 63
3, 125261, Note_on_c, 1, 36, 0
3, 125285, Note_on_c, 1, 38, 73
3, 125773, Note_on_c, 1, 38, 0
3, 125925, Note_on_c, 1, 39, 71
3, 126077, Note_on_c, 1, 39, 0
3, 126255, Note_on_c, 1, 40, 78
3, 126489, Note_on_c, 1, 40, 0
3, 126615, Note_on_c, 1, 41, 72
3, 129019, Note_on_c, 1, 35, 64
3, 129081, Note_on_c, 1, 41, 0
3, 129273, Note_on_c, 1, 35, 0
3, 129351, Note_on_c, 1, 34, 74
3, 129541, Note_on_c, 1, 34, 0
3, 129711, Note_on_c, 1, 33, 67
3, 131519, Note_on_c, 1, 33, 0
3, 131583, Note_on_c, 1, 37, 77
3, 132451, Note_on_c, 1, 37, 0
3, 132531, Note_on_c, 1, 38, 73
3, 134431, Note_on_c, 1, 45, 89
3, 134437, Note_on_c, 1, 38, 0
3, 135121, Note_on_c, 1, 44, 55
3, 135127, Note_on_c, 1, 42, 54
3, 135137, Note_on_c, 1, 45, 0
3, 135319, Note_on_c, 1, 44, 0
3, 135357, Note_on_c, 1, 42, 0
3, 135383, Note_on_c, 1, 48, 86
3, 136279, Note_on_c, 1, 48, 0
3, 136351, Note_on_c, 1, 42, 59
3, 137191, Note_on_c, 1, 42, 0
3, 137261, Note_on_c, 1, 41, 63
3, 137899, Note_on_c, 1, 33, 71
3, 137913, Note_on_c, 1, 41, 0
3, 138097, Note_on_c, 1, 33, 0
3, 138253, Note_on_c, 1, 34, 58
3, 139921, Note_on_c, 1, 34, 0
3, 140103, Note_on_c, 1, 34, 51
3, 140797, Note_on_c, 1, 32, 36
3, 140969, Note_on_c, 1, 32, 0
3, 140987, Note_on_c, 1, 34, 0
3, 141037, Note_on_c, 1, 36, 56
3, 143515, Note_on_c, 1, 36, 0
3, 143605, Note_on_c, 1, 30, 60
3, 143809, Note_on_c, 1, 30, 0
3, 143937, Note_on_c, 1, 29, 57
3, 146235, Note_on_c, 1, 29, 0
3, 146467, Note_on_c, 1, 37, 70
3, 146667, Note_on_c, 1, 37, 0
3, 146759, Note_on_c, 1, 38, 59
3, 147423, Note_on_c, 1, 37, 52
3, 147645, Note_on_c, 1, 38, 0
3, 147709, Note_on_c, 1, 54, 77
3, 147713, Note_on_c, 1, 37, 0
3, 150569, Note_on_c, 1, 54, 0
3, 150623, Note_on_c, 1, 53, 77
3, 151663, Note_on_c, 1, 37, 66
3, 151665, Note_on_c, 1, 53, 0
3, 152535, Note_on_c, 1, 37, 0
3, 152565, Note_on_c, 1, 36, 66
3, 154131, Note_on_c, 1, 34, 43
3, 154261, Note_on_c, 1, 48, 75
3, 154321, Note_on_c, 1, 36, 0
3, 154341, Note_on_c, 1, 34, 0
3, 154493, Note_on_c, 1, 48, 0
3, 154843, Note_on_c, 1, 39, 68
3, 155027, Note_on_c, 1, 39, 0
3, 155171, Note_on_c, 1, 40, 59
3, 155425, Note_on_c, 1, 40, 0
3, 155529, Note_on_c, 1, 41, 58
3, 156369, Note_on_c, 1, 41, 0
3, 156453, Note_on_c, 1, 36, 59
3, 157979, Note_on_c, 1, 36, 0
3, 158053, Note_on_c, 1, 37, 61
3, 158313, Note_on_c, 1, 37, 0
3, 158387, Note_on_c, 1, 38, 64
3, 160995, Note_on_c, 1, 32, 48
3, 161021, Note_on_c, 1, 38, 0
3, 161219, Note_on_c, 1, 32, 0
3, 161307, Note_on_c, 1, 37, 74
3, 163455, Note_on_c, 1, 37, 0
3, 163493, Note_on_c, 1, 34, 56
3, 163583, Note_on_c, 1, 34, 0
3, 163841, Note_on_c, 1, 35, 64
3, 164035, Note_on_c, 1, 35, 0
3, 164189, Note_on_c, 1, 36, 63
3, 165057, Note_on_c, 1, 36, 0
3, 165061, Note_on_c, 1, 30, 73
3, 166849, Note_on_c, 1, 30, 0
3, 166935, Note_on_c, 1, 29, 57
3, 169535, Note_on_c, 1, 34, 44
3, 169729, Note_on_c, 1, 34, 0
3, 169847, Note_on_c, 1, 46, 65
3, 169903, Note_on_c, 1, 29, 0
3, 170727, Note_on_c, 1, 46, 0
3, 170797, Note_on_c, 1, 45, 66
3, 171513, Note_on_c, 1, 33, 50
3, 171637, Note_on_c, 1, 33, 0
3, 171695, Note_on_c, 1, 45, 0
3, 171773, Note_on_c, 1, 43, 58
3, 172645, Note_on_c, 1, 43, 0
3, 172777, Note_on_c, 1, 41, 51
3, 173197, Note_on_c, 1, 41, 0
3, 173445, Note_on_c, 1, 36, 50
3, 173565, Note_on_c, 1, 36, 0
3, 173755, Note_on_c, 1, 29, 53
3, 175327, Note_on_c, 1, 29, 0
3, 175395, Note_on_c, 1, 32, 67
3, 175555, Note_on_c, 1, 32, 0
3, 175695, Note_on_c, 1, 33, 74
3, 177559, Note_on_c, 1, 33, 0
3, 177623, Note_on_c, 1, 37, 90
3, 178467, Note_on_c, 1, 37, 0
3, 178585, Note_on_c, 1, 38, 80
3, 180173, Note_on_c, 1, 50, 104
3, 180307, Note_on_c, 1, 38, 0
3, 181159, Note_on_c, 1, 38, 59
3, 181331, Note_on_c, 1, 38, 0
3, 181391, Note_on_c, 1, 50, 0
3, 181471, Note_on_c, 1, 48, 84
3, 183051, Note_on_c, 1, 41, 72
3, 183253, Note_on_c, 1, 48, 0
3, 184217, Note_on_c, 1, 41, 0
3, 184361, Note_on_c, 1, 40, 76
3, 186169, Note_on_c, 1, 39, 42
3, 186319, Note_on_c, 1, 40, 0
3, 186341, Note_on_c, 1, 46, 83
3, 186399, Note_on_c, 1, 39, 0
3, 187001, Note_on_c, 1, 40, 62
3, 187131, Note_on_c, 1, 46, 0
3, 187139, Note_on_c, 1, 40, 0
3, 187275, Note_on_c, 1, 45, 76
3, 187931, Note_on_c, 1, 45, 0
3, 187959, Note_on_c, 1, 40, 58
3, 188131, Note_on_c, 1, 40, 0
3, 188281, Note_on_c, 1, 33, 67
3, 189131, Note_on_c, 1, 33, 0
3, 189189, Note_on_c, 1, 37, 74
3, 190035, Note_on_c, 1, 37, 0
3, 190127, Note_on_c, 1, 38, 79
3, 192685, Note_on_c, 1, 38, 0
3, 192707, Note_on_c, 1, 42, 63
3, 192913, Note_on_c, 1, 42, 0
3, 193031, Note_on_c, 1, 41, 72
3, 195687, Note_on_c, 1, 41, 0
3, 195803, Note_on_c, 1, 50, 73
3, 195811, Note_on_c, 1, 34, 60
3, 197277, Note_on_c, 1, 50, 0
3, 197283, Note_on_c, 1, 34, 0
3, 197317, Note_on_c, 1, 48, 68
3, 197345, Note_on_c, 1, 33, 60
3, 198731, Note_on_c, 1, 48, 0
3, 198757, Note_on_c, 1, 46, 64
3, 198761, Note_on_c, 1, 31, 59
3, 198763, Note_on_c, 1, 33, 0
3, 200129, Note_on_c, 1, 46, 0
3, 200347, Note_on_c, 1, 46, 65
3, 200361, Note_on_c, 1, 30, 59
3, 200363, Note_on_c, 1, 31, 0
3, 201585, Note_on_c, 1, 46, 0
3, 201673, Note_on_c, 1, 45, 66
3, 201681, Note_on_c, 1, 29, 53
3, 201699, Note_on_c, 1, 30, 0
3, 204215, Note_on_c, 1, 32, 46
3, 204217, Note_on_c, 1, 45, 0
3, 204377, Note_on_c, 1, 29, 0
3, 204421, Note_on_c, 1, 32, 0
3, 204491, Note_on_c, 1, 34, 78
3, 205347, Note_on_c, 1, 34, 0
3, 205441, Note_on_c, 1, 33, 63
3, 206277, Note_on_c, 1, 33, 0
3, 206359, Note_on_c, 1, 31, 57
3, 207277, Note_on_c, 1, 31, 0
3, 207343, Note_on_c, 1, 29, 56
3, 212370, Note_on_c, 1, 29, 0
3, 212370, End_track
4, 0, Start_track
4, 0, Program_c, 9, 0
4, 60, Note_on_c, 9, 76, 41
4, 98, Note_on_c, 9, 53, 66
4, 342, Note_on_c, 9, 76, 0
4, 745, Note_on_c, 9, 53, 0
4, 863, Note_on_c, 9, 51, 52
4, 1035, Note_on_c, 9, 51, 0
4, 1477, Note_on_c, 9, 51, 69
4, 1528, Note_on_c, 9, 77, 51
4, 1977, Note_on_c, 9, 51, 0
4, 2052, Note_on_c, 9, 77, 0
4, 2421, Note_on_c, 9, 51, 58
4, 2635, Note_on_c, 9, 51, 0
4, 2856, Note_on_c, 9, 76, 45
4, 2889, Note_on_c, 9, 51, 71
4, 3232, Note_on_c, 9, 76, 0
4, 3505, Note_on_c, 9, 51, 0
4, 3667, Note_on_c, 9, 51, 50
4, 3843, Note_on_c, 9, 51, 0
4, 4300, Note_on_c, 9, 77, 47
4, 4333, Note_on_c, 9, 51, 71
4, 4676, Note_on_c, 9, 77, 0
4, 5265, Note_on_c, 9, 51, 0
4, 5347, Note_on_c, 9, 53, 69
4, 5519, Note_on_c, 9, 53, 0
4, 5738, Note_on_c, 9, 76, 44
4, 5779, Note_on_c, 9, 51, 55
4, 6152, Note_on_c, 9, 76, 0
4, 6393, Note_on_c, 9, 51, 0
4, 6655, Note_on_c, 9, 51, 53
4, 6863, Note_on_c, 9, 51, 0
4, 7227, Note_on_c, 9, 51, 60
4, 7302, Note_on_c, 9, 77, 51
4, 7513, Note_on_c, 9, 51, 0
4, 7900, Note_on_c, 9, 77, 0
4, 8105, Note_on_c, 9, 51, 50
4, 8283, Note_on_c, 9, 51, 0
4, 8565, Note_on_c, 9, 51, 63
4, 8632, Note_on_c, 9, 76, 38
4, 8990, Note_on_c, 9, 76, 0
4, 9047, Note_on_c, 9, 51, 0
4, 9481, Note_on_c, 9, 51, 55
4, 9923, Note_on_c, 9, 51, 0
4, 10027, Note_on_c, 9, 77, 44
4, 10057, Note_on_c, 9, 59, 94
4, 10289, Note_on_c, 9, 59, 0
4, 10461, Note_on_c, 9, 51, 42
4, 10483, Note_on_c, 9, 77, 0
4, 10669, Note_on_c, 9, 51, 0
4, 11045, Note_on_c, 9, 51, 46
4, 11243, Note_on_c, 9, 51, 0
4, 11463, Note_on_c, 9, 51, 62
4, 11477, Note_on_c, 9, 76, 35
4, 11873, Note_on_c, 9, 76, 0
4, 12241, Note_on_c, 9, 51, 0
4, 12377, Note_on_c, 9, 53, 40
4, 12725, Note_on_c, 9, 53, 0
4, 12933, Note_on_c, 9, 77, 42
4, 12969, Note_on_c, 9, 51, 60
4, 13337, Note_on_c, 9, 51, 0
4, 13379, Note_on_c, 9, 77, 0
4, 13955, Note_on_c, 9, 51, 62
4, 14187, Note_on_c, 9, 51, 0
4, 14327, Note_on_c, 9, 76, 38
4, 14401, Note_on_c, 9, 51, 71
4, 14955, Note_on_c, 9, 76, 0
4, 15063, Note_on_c, 9, 51, 0
4, 15239, Note_on_c, 9, 53, 40
4, 15411, Note_on_c, 9, 53, 0
4, 15845, Note_on_c, 9, 77, 46
4, 15871, Note_on_c, 9, 51, 70
4, 16349, Note_on_c, 9, 51, 0
4, 16485, Note_on_c, 9, 77, 0
4, 16767, Note_on_c, 9, 51, 67
4, 17131, Note_on_c, 9, 51, 0
4, 17251, Note_on_c, 9, 76, 42
4, 17341, Note_on_c, 9, 51, 73
4, 17925, Note_on_c, 9, 76, 0
4, 17943, Note_on_c, 9, 51, 0
4, 18233, Note_on_c, 9, 51, 42
4, 18315, Note_on_c, 9, 51, 0
4, 18769, Note_on_c, 9, 51, 72
4, 18779, Note_on_c, 9, 77, 39
4, 19279, Note_on_c, 9, 51, 0
4, 19417, Note_on_c, 9, 77, 0
4, 19741, Note_on_c, 9, 51, 51
4, 19887, Note_on_c, 9, 51, 0
4, 20197, Note_on_c, 9, 51, 73
4, 20221, Note_on_c, 9, 76, 38
4, 20637, Note_on_c, 9, 51, 0
4, 20819, Note_on_c, 9, 76, 0
4, 21119, Note_on_c, 9, 53, 24
4, 21269, Note_on_c, 9, 53, 0
4, 21659, Note_on_c, 9, 77, 46
4, 21675, Note_on_c, 9, 51, 76
4, 22029, Note_on_c, 9, 51, 0
4, 22299, Note_on_c, 9, 77, 0
4, 22655, Note_on_c, 9, 53, 54
4, 22929, Note_on_c, 9, 53, 0
4, 23039, Note_on_c, 9, 76, 42
4, 23109, Note_on_c, 9, 51, 73
4, 23601, Note_on_c, 9, 51, 0
4, 23799, Note_on_c, 9, 76, 0
4, 23949, Note_on_c, 9, 51, 62
4, 24143, Note_on_c, 9, 51, 0
4, 24521, Note_on_c, 9, 77, 47
4, 24567, Note_on_c, 9, 51, 76
4, 24941, Note_on_c, 9, 51, 0
4, 25239, Note_on_c, 9, 77, 0
4, 25483, Note_on_c, 9, 51, 47
4, 25559, Note_on_c, 9, 51, 0
4, 25884, Note_on_c, 9, 76, 42
4, 25929, Note_on_c, 9, 51, 77
4, 26420, Note_on_c, 9, 76, 0
4, 26463, Note_on_c, 9, 51, 0
4, 26729, Note_on_c, 9, 51, 60
4, 26891, Note_on_c, 9, 51, 0
4, 27381, Note_on_c, 9, 51, 78
4, 27428, Note_on_c, 9, 77, 42
4, 27722, Note_on_c, 9, 77, 0
4, 27793, Note_on_c, 9, 51, 0
4, 27852, Note_on_c, 9, 77, 38
4, 28256, Note_on_c, 9, 77, 0
4, 28379, Note_on_c, 9, 51, 58
4, 28547, Note_on_c, 9, 51, 0
4, 28752, Note_on_c, 9, 76, 40
4, 28817, Note_on_c, 9, 51, 78
4, 29234, Note_on_c, 9, 76, 0
4, 29255, Note_on_c, 9, 51, 0
4, 29667, Note_on_c, 9, 53, 64
4, 29861, Note_on_c, 9, 53, 0
4, 30285, Note_on_c, 9, 51, 77
4, 30304, Note_on_c, 9, 77, 43
4, 30625, Note_on_c, 9, 51, 0
4, 30785, Note_on_c, 9, 51, 71
4, 30812, Note_on_c, 9, 77, 0
4, 31243, Note_on_c, 9, 51, 0
4, 31413, Note_on_c, 9, 53, 58
4, 31687, Note_on_c, 9, 53, 0
4, 31694, Note_on_c, 9, 76, 44
4, 32138, Note_on_c, 9, 76, 0
4, 32279, Note_on_c, 9, 51, 80
4, 32669, Note_on_c, 9, 51, 0
4, 33205, Note_on_c, 9, 51, 62
4, 33208, Note_on_c, 9, 77, 44
4, 33431, Note_on_c, 9, 51, 0
4, 33665, Note_on_c, 9, 51, 76
4, 33820, Note_on_c, 9, 77, 0
4, 34091, Note_on_c, 9, 51, 0
4, 34179, Note_on_c, 9, 76, 40
4, 34245, Note_on_c, 9, 59, 71
4, 34479, Note_on_c, 9, 76, 0
4, 34615, Note_on_c, 9, 76, 44
4, 34873, Note_on_c, 9, 59, 0
4, 35129, Note_on_c, 9, 76, 0
4, 35207, Note_on_c, 9, 51, 72
4, 35421, Note_on_c, 9, 51, 0
4, 35623, Note_on_c, 9, 51, 76
4, 35925, Note_on_c, 9, 51, 0
4, 36061, Note_on_c, 9, 77, 44
4, 36153, Note_on_c, 9, 59, 85
4, 36461, Note_on_c, 9, 59, 0
4, 36527, Note_on_c, 9, 51, 33
4, 36637, Note_on_c, 9, 51, 0
4, 36749, Note_on_c, 9, 77, 0
4, 37095, Note_on_c, 9, 51, 55
4, 37253, Note_on_c, 9, 51, 0
4, 37457, Note_on_c, 9, 76, 43
4, 37477, Note_on_c, 9, 51, 62
4, 37773, Note_on_c, 9, 51, 0
4, 37967, Note_on_c, 9, 76, 0
4, 38057, Note_on_c, 9, 59, 51
4, 38143, Note_on_c, 9, 59, 0
4, 38871, Note_on_c, 9, 77, 46
4, 39019, Note_on_c, 9, 51, 67
4, 39173, Note_on_c, 9, 51, 0
4, 39423, Note_on_c, 9, 51, 48
4, 39515, Note_on_c, 9, 51, 0
4, 39545, Note_on_c, 9, 77, 0
4, 39935, Note_on_c, 9, 53, 68
4, 40147, Note_on_c, 9, 53, 0
4, 40265, Note_on_c, 9, 76, 43
4, 40373, Note_on_c, 9, 51, 33
4, 40573, Note_on_c, 9, 51, 0
4, 40755, Note_on_c, 9, 76, 0
4, 40885, Note_on_c, 9, 51, 55
4, 41059, Note_on_c, 9, 51, 0
4, 41287, Note_on_c, 9, 51, 46
4, 41475, Note_on_c, 9, 51, 0
4, 41901, Note_on_c, 9, 77, 44
4, 42390, Note_on_c, 9, 77, 0
4, 42867, Note_on_c, 9, 59, 76
4, 43019, Note_on_c, 9, 59, 0
4, 43157, Note_on_c, 9, 51, 53
4, 43254, Note_on_c, 9, 76, 39
4, 43379, Note_on_c, 9, 51, 0
4, 43654, Note_on_c, 9, 76, 0
4, 43765, Note_on_c, 9, 51, 46
4, 44067, Note_on_c, 9, 51, 0
4, 44137, Note_on_c, 9, 59, 37
4, 44413, Note_on_c, 9, 59, 0
4, 44640, Note_on_c, 9, 77, 47
4, 44691, Note_on_c, 9, 51, 48
4, 44857, Note_on_c, 9, 51, 0
4, 45065, Note_on_c, 9, 51, 43
4, 45168, Note_on_c, 9, 77, 0
4, 45329, Note_on_c, 9, 51, 0
4, 45735, Note_on_c, 9, 59, 59
4, 45829, Note_on_c, 9, 59, 0
4, 45964, Note_on_c, 9, 76, 44
4, 46448, Note_on_c, 9, 76, 0
4, 46591, Note_on_c, 9, 51, 52
4, 46787, Note_on_c, 9, 51, 0
4, 46999, Note_on_c, 9, 51, 52
4, 47263, Note_on_c, 9, 51, 0
4, 47514, Note_on_c, 9, 77, 46
4, 47631, Note_on_c, 9, 53, 57
4, 47981, Note_on_c, 9, 53, 0
4, 48132, Note_on_c, 9, 77, 0
4, 48589, Note_on_c, 9, 51, 50
4, 48771, Note_on_c, 9, 51, 0
4, 48998, Note_on_c, 9, 76, 43
4, 49013, Note_on_c, 9, 51, 40
4, 49317, Note_on_c, 9, 51, 0
4, 49562, Note_on_c, 9, 76, 0
4, 49925, Note_on_c, 9, 59, 53
4, 50007, Note_on_c, 9, 59, 0
4, 50427, Note_on_c, 9, 77, 44
4, 50559, Note_on_c, 9, 59, 71
4, 50691, Note_on_c, 9, 59, 0
4, 51059, Note_on_c, 9, 77, 0
4, 51219, Note_on_c, 9, 51, 57
4, 51385, Note_on_c, 9, 51, 0
4, 51599, Note_on_c, 9, 51, 57
4, 51777, Note_on_c, 9, 51, 0
4, 51815, Note_on_c, 9, 76, 43
4, 51957, Note_on_c, 9, 51, 53
4, 52265, Note_on_c, 9, 51, 0
4, 52419, Note_on_c, 9, 76, 0
4, 52807, Note_on_c, 9, 59, 60
4, 52895, Note_on_c, 9, 59, 0
4, 53351, Note_on_c, 9, 77, 49
4, 53471, Note_on_c, 9, 53, 60
4, 53659, Note_on_c, 9, 53, 0
4, 53869, Note_on_c, 9, 53, 46
4, 54171, Note_on_c, 9, 53, 0
4, 54185, Note_on_c, 9, 77, 0
4, 54465, Note_on_c, 9, 51, 46
4, 54639, Note_on_c, 9, 51, 0
4, 54741, Note_on_c, 9, 76, 43
4, 55373, Note_on_c, 9, 53, 51
4, 55485, Note_on_c, 9, 53, 0
4, 55485, Note_on_c, 9, 76, 0
4, 55727, Note_on_c, 9, 53, 52
4, 56033, Note_on_c, 9, 53, 0
4, 56175, Note_on_c, 9, 77, 49
4, 56465, Note_on_c, 9, 51, 35
4, 56537, Note_on_c, 9, 51, 0
4, 57171, Note_on_c, 9, 77, 0
4, 57185, Note_on_c, 9, 53, 69
4, 57369, Note_on_c, 9, 53, 0
4, 57613, Note_on_c, 9, 76, 49
4, 57633, Note_on_c, 9, 53, 60
4, 57989, Note_on_c, 9, 53, 0
4, 58245, Note_on_c, 9, 51, 46
4, 58407, Note_on_c, 9, 76, 0
4, 58443, Note_on_c, 9, 51, 0
4, 59096, Note_on_c, 9, 77, 53
4, 59111, Note_on_c, 9, 53, 70
4, 59355, Note_on_c, 9, 53, 0
4, 59501, Note_on_c, 9, 53, 57
4, 59821, Note_on_c, 9, 53, 0
4, 60212, Note_on_c, 9, 77, 0
4, 60496, Note_on_c, 9, 76, 46
4, 60820, Note_on_c, 9, 76, 0
4, 60999, Note_on_c, 9, 53, 63
4, 61237, Note_on_c, 9, 53, 0
4, 61407, Note_on_c, 9, 53, 55
4, 61699, Note_on_c, 9, 53, 0
4, 62020, Note_on_c, 9, 77, 50
4, 62051, Note_on_c, 9, 51, 48
4, 62143, Note_on_c, 9, 51, 0
4, 62686, Note_on_c, 9, 77, 0
4, 63011, Note_on_c, 9, 53, 67
4, 63173, Note_on_c, 9, 53, 0
4, 63339, Note_on_c, 9, 53, 52
4, 63376, Note_on_c, 9, 76, 47
4, 63755, Note_on_c, 9, 53, 0
4, 63766, Note_on_c, 9, 76, 0
4, 64005, Note_on_c, 9, 51, 33
4, 64121, Note_on_c, 9, 51, 0
4, 64944, Note_on_c, 9, 77, 51
4, 64995, Note_on_c, 9, 53, 63
4, 65135, Note_on_c, 9, 53, 0
4, 65345, Note_on_c, 9, 53, 62
4, 65518, Note_on_c, 9, 77, 0
4, 65519, Note_on_c, 9, 53, 0
4, 65945, Note_on_c, 9, 51, 57
4, 66087, Note_on_c, 9, 51, 0
4, 66230, Note_on_c, 9, 76, 47
4, 66249, Note_on_c, 9, 51, 69
4, 66345, Note_on_c, 9, 53, 48
4, 66427, Note_on_c, 9, 51, 0
4, 66729, Note_on_c, 9, 53, 0
4, 66755, Note_on_c, 9, 76, 0
4, 66971, Note_on_c, 9, 53, 64
4, 67533, Note_on_c, 9, 53, 0
4, 67763, Note_on_c, 9, 77, 49
4, 67825, Note_on_c, 9, 53, 71
4, 68517, Note_on_c, 9, 53, 0
4, 68691, Note_on_c, 9, 77, 0
4, 68767, Note_on_c, 9, 51, 52
4, 68894, Note_on_c, 9, 59, 35
4, 69023, Note_on_c, 9, 51, 0
4, 69067, Note_on_c, 9, 53, 65
4, 69118, Note_on_c, 9, 59, 0
4, 69125, Note_on_c, 9, 76, 40
4, 69292, Note_on_c, 9, 59, 49
4, 69455, Note_on_c, 9, 53, 0
4, 69483, Note_on_c, 9, 76, 0
4, 70407, Note_on_c, 9, 59, 0
4, 70408, Note_on_c, 9, 38, 7
4, 70601, Note_on_c, 9, 38, 0
4, 70669, Note_on_c, 9, 59, 47
4, 70725, Note_on_c, 9, 38, 7
4, 70818, Note_on_c, 9, 59, 0
4, 70887, Note_on_c, 9, 38, 0
4, 71008, Note_on_c, 9, 38, 9
4, 71040, Note_on_c, 9, 59, 57
4, 71092, Note_on_c, 9, 38, 0
4, 71302, Note_on_c, 9, 36, 24
4, 71485, Note_on_c, 9, 36, 0
4, 71604, Note_on_c, 9, 59, 0
4, 72024, Note_on_c, 9, 59, 73
4, 73260, Note_on_c, 9, 59, 0
4, 73616, Note_on_c, 9, 59, 69
4, 74106, Note_on_c, 9, 59, 0
4, 75024, Note_on_c, 9, 59, 92
4, 75256, Note_on_c, 9, 59, 0
4, 76156, Note_on_c, 9, 38, 14
4, 76255, Note_on_c, 9, 38, 0
4, 76460, Note_on_c, 9, 59, 84
4, 76461, Note_on_c, 9, 38, 7
4, 76561, Note_on_c, 9, 38, 0
4, 76773, Note_on_c, 9, 36, 14
4, 76871, Note_on_c, 9, 36, 0
4, 77056, Note_on_c, 9, 59, 0
4, 77092, Note_on_c, 9, 38, 9
4, 77235, Note_on_c, 9, 38, 0
4, 77379, Note_on_c, 9, 38, 16
4, 77542, Note_on_c, 9, 38, 0
4, 77855, Note_on_c, 9, 59, 80
4, 78369, Note_on_c, 9, 59, 0
4, 78562, Note_on_c, 9, 59, 55
4, 78722, Note_on_c, 9, 59, 0
4, 79062, Note_on_c, 9, 38, 14
4, 79135, Note_on_c, 9, 38, 0
4, 79416, Note_on_c, 9, 59, 68
4, 79561, Note_on_c, 9, 59, 0
4, 79671, Note_on_c, 9, 38, 10
4, 79813, Note_on_c, 9, 38, 0
4, 80339, Note_on_c, 9, 59, 49
4, 80457, Note_on_c, 9, 59, 0
4, 80671, Note_on_c, 9, 59, 64
4, 81222, Note_on_c, 9, 59, 0
4, 81607, Note_on_c, 9, 59, 66
4, 81902, Note_on_c, 9, 38, 6
4, 81999, Note_on_c, 9, 38, 0
4, 82055, Note_on_c, 9, 59, 0
4, 82252, Note_on_c, 9, 40, 12
4, 82306, Note_on_c, 9, 59, 38
4, 82396, Note_on_c, 9, 40, 0
4, 82435, Note_on_c, 9, 59, 0
4, 82609, Note_on_c, 9, 59, 70
4, 83170, Note_on_c, 9, 38, 11
4, 83250, Note_on_c, 9, 59, 0
4, 83327, Note_on_c, 9, 38, 0
4, 83542, Note_on_c, 9, 59, 78
4, 84296, Note_on_c, 9, 59, 0
4, 84425, Note_on_c, 9, 40, 18
4, 84578, Note_on_c, 9, 59, 43
4, 84617, Note_on_c, 9, 40, 0
4, 84697, Note_on_c, 9, 59, 0
4, 84726, Note_on_c, 9, 38, 9
4, 84828, Note_on_c, 9, 38, 0
4, 85009, Note_on_c, 9, 37, 17
4, 85138, Note_on_c, 9, 37, 0
4, 85146, Note_on_c, 9, 59, 81
4, 85782, Note_on_c, 9, 36, 12
4, 85839, Note_on_c, 9, 36, 0
4, 85926, Note_on_c, 9, 59, 0
4, 86060, Note_on_c, 9, 38, 14
4, 86147, Note_on_c, 9, 59, 39
4, 86287, Note_on_c, 9, 59, 0
4, 86513, Note_on_c, 9, 38, 0
4, 86556, Note_on_c, 9, 59, 71
4, 87179, Note_on_c, 9, 59, 0
4, 87340, Note_on_c, 9, 38, 12
4, 87492, Note_on_c, 9, 38, 0
4, 87529, Note_on_c, 9, 59, 49
4, 87632, Note_on_c, 9, 59, 0
4, 88032, Note_on_c, 9, 59, 83
4, 88523, Note_on_c, 9, 59, 0
4, 88964, Note_on_c, 9, 38, 11
4, 89013, Note_on_c, 9, 59, 37
4, 89083, Note_on_c, 9, 38, 0
4, 89135, Note_on_c, 9, 59, 0
4, 89292, Note_on_c, 9, 38, 16
4, 89380, Note_on_c, 9, 38, 0
4, 89385, Note_on_c, 9, 59, 72
4, 89600, Note_on_c, 9, 36, 16
4, 89677, Note_on_c, 9, 36, 0
4, 89849, Note_on_c, 9, 59, 0
4, 89877, Note_on_c, 9, 38, 11
4, 90177, Note_on_c, 9, 38, 0
4, 90287, Note_on_c, 9, 59, 41
4, 90406, Note_on_c, 9, 59, 0
4, 90951, Note_on_c, 9, 59, 51
4, 91049, Note_on_c, 9, 59, 0
4, 91312, Note_on_c, 9, 59, 69
4, 91737, Note_on_c, 9, 59, 0
4, 92217, Note_on_c, 9, 59, 67
4, 92704, Note_on_c, 9, 59, 0
4, 92929, Note_on_c, 9, 38, 13
4, 92991, Note_on_c, 9, 38, 0
4, 93150, Note_on_c, 9, 59, 67
4, 93317, Note_on_c, 9, 38, 9
4, 93423, Note_on_c, 9, 38, 0
4, 93424, Note_on_c, 9, 59, 0
4, 93809, Note_on_c, 9, 59, 38
4, 93851, Note_on_c, 9, 36, 15
4, 93925, Note_on_c, 9, 36, 0
4, 93935, Note_on_c, 9, 59, 0
4, 94107, Note_on_c, 9, 59, 60
4, 94500, Note_on_c, 9, 59, 0
4, 95088, Note_on_c, 9, 59, 65
4, 95433, Note_on_c, 9, 59, 0
4, 96010, Note_on_c, 9, 59, 38
4, 96095, Note_on_c, 9, 38, 9
4, 96129, Note_on_c, 9, 59, 0
4, 96209, Note_on_c, 9, 38, 0
4, 96624, Note_on_c, 9, 36, 21
4, 96627, Note_on_c, 9, 59, 79
4, 96702, Note_on_c, 9, 36, 0
4, 97286, Note_on_c, 9, 38, 14
4, 97328, Note_on_c, 9, 59, 0
4, 97428, Note_on_c, 9, 38, 0
4, 97593, Note_on_c, 9, 38, 12
4, 97650, Note_on_c, 9, 59, 42
4, 97696, Note_on_c, 9, 38, 0
4, 97774, Note_on_c, 9, 59, 0
4, 98006, Note_on_c, 9, 59, 71
4, 98269, Note_on_c, 9, 38, 9
4, 98398, Note_on_c, 9, 38, 0
4, 98550, Note_on_c, 9, 38, 12
4, 98744, Note_on_c, 9, 59, 0
4, 98787, Note_on_c, 9, 38, 0
4, 98955, Note_on_c, 9, 59, 42
4, 99090, Note_on_c, 9, 59, 0
4, 99506, Note_on_c, 9, 59, 78
4, 100065, Note_on_c, 9, 59, 0
4, 100545, Note_on_c, 9, 59, 25
4, 100637, Note_on_c, 9, 59, 0
4, 100830, Note_on_c, 9, 59, 69
4, 101166, Note_on_c, 9, 38, 11
4, 101225, Note_on_c, 9, 38, 0
4, 101362, Note_on_c, 9, 59, 0
4, 101465, Note_on_c, 9, 38, 16
4, 101605, Note_on_c, 9, 38, 0
4, 102430, Note_on_c, 9, 59, 54
4, 102530, Note_on_c, 9, 59, 0
4, 102696, Note_on_c, 9, 59, 66
4, 102829, Note_on_c, 9, 38, 8
4, 102876, Note_on_c, 9, 38, 0
4, 103127, Note_on_c, 9, 38, 18
4, 103191, Note_on_c, 9, 38, 0
4, 103231, Note_on_c, 9, 59, 0
4, 103422, Note_on_c, 9, 36, 28
4, 103480, Note_on_c, 9, 36, 0
4, 103627, Note_on_c, 9, 59, 67
4, 103720, Note_on_c, 9, 36, 27
4, 103735, Note_on_c, 9, 57, 33
4, 103877, Note_on_c, 9, 57, 0
4, 103956, Note_on_c, 9, 36, 0
4, 104115, Note_on_c, 9, 59, 0
4, 105285, Note_on_c, 9, 59, 45
4, 105399, Note_on_c, 9, 59, 0
4, 105526, Note_on_c, 9, 38, 14
4, 105578, Note_on_c, 9, 59, 57
4, 105947, Note_on_c, 9, 38, 0
4, 106194, Note_on_c, 9, 36, 19
4, 106198, Note_on_c, 9, 59, 0
4, 106304, Note_on_c, 9, 36, 0
4, 107234, Note_on_c, 9, 59, 40
4, 107350, Note_on_c, 9, 59, 0
4, 107545, Note_on_c, 9, 59, 55
4, 108460, Note_on_c, 9, 59, 0
4, 108493, Note_on_c, 9, 38, 14
4, 108593, Note_on_c, 9, 38, 0
4, 108771, Note_on_c, 9, 38, 14
4, 108908, Note_on_c, 9, 38, 0
4, 109104, Note_on_c, 9, 36, 22
4, 109166, Note_on_c, 9, 59, 56
4, 109260, Note_on_c, 9, 36, 0
4, 109272, Note_on_c, 9, 59, 0
4, 109472, Note_on_c, 9, 59, 60
4, 109717, Note_on_c, 9, 38, 17
4, 109867, Note_on_c, 9, 38, 0
4, 110020, Note_on_c, 9, 38, 14
4, 110084, Note_on_c, 9, 59, 0
4, 110171, Note_on_c, 9, 38, 0
4, 110360, Note_on_c, 9, 36, 19
4, 110531, Note_on_c, 9, 36, 0
4, 111060, Note_on_c, 9, 59, 55
4, 111175, Note_on_c, 9, 59, 0
4, 111429, Note_on_c, 9, 59, 56
4, 111803, Note_on_c, 9, 59, 0
4, 112035, Note_on_c, 9, 53, 64
4, 112225, Note_on_c, 9, 53, 0
4, 112446, Note_on_c, 9, 59, 47
4, 112673, Note_on_c, 9, 40, 20
4, 112764, Note_on_c, 9, 40, 0
4, 112818, Note_on_c, 9, 59, 0
4, 112990, Note_on_c, 9, 36, 14
4, 113011, Note_on_c, 9, 59, 55
4, 113094, Note_on_c, 9, 36, 0
4, 113110, Note_on_c, 9, 59, 0
4, 113322, Note_on_c, 9, 40, 18
4, 113398, Note_on_c, 9, 59, 48
4, 113463, Note_on_c, 9, 40, 0
4, 113788, Note_on_c, 9, 59, 0
4, 113904, Note_on_c, 9, 53, 62
4, 113943, Note_on_c, 9, 38, 12
4, 114081, Note_on_c, 9, 53, 0
4, 114194, Note_on_c, 9, 38, 0
4, 114398, Note_on_c, 9, 59, 33
4, 114589, Note_on_c, 9, 38, 13
4, 114650, Note_on_c, 9, 59, 0
4, 114711, Note_on_c, 9, 38, 0
4, 114878, Note_on_c, 9, 36, 18
4, 114880, Note_on_c, 9, 59, 59
4, 114966, Note_on_c, 9, 36, 0
4, 115122, Note_on_c, 9, 59, 0
4, 115223, Note_on_c, 9, 36, 25
4, 115238, Note_on_c, 9, 59, 51
4, 115355, Note_on_c, 9, 36, 0
4, 115613, Note_on_c, 9, 59, 0
4, 116164, Note_on_c, 9, 59, 68
4, 116615, Note_on_c, 9, 59, 0
4, 117171, Note_on_c, 9, 59, 69
4, 117421, Note_on_c, 9, 38, 9
4, 117519, Note_on_c, 9, 38, 0
4, 117628, Note_on_c, 9, 59, 0
4, 117698, Note_on_c, 9, 38, 12
4, 117819, Note_on_c, 9, 59, 51
4, 117831, Note_on_c, 9, 38, 0
4, 117938, Note_on_c, 9, 59, 0
4, 118144, Note_on_c, 9, 59, 65
4, 118838, Note_on_c, 9, 59, 0
4, 119124, Note_on_c, 9, 59, 66
4, 119631, Note_on_c, 9, 59, 0
4, 120111, Note_on_c, 9, 59, 68
4, 120884, Note_on_c, 9, 59, 0
4, 121574, Note_on_c, 9, 38, 12
4, 121617, Note_on_c, 9, 59, 55
4, 121686, Note_on_c, 9, 38, 0
4, 121729, Note_on_c, 9, 59, 0
4, 121926, Note_on_c, 9, 38, 11
4, 121943, Note_on_c, 9, 59, 55
4, 122047, Note_on_c, 9, 38, 0
4, 122623, Note_on_c, 9, 59, 0
4, 122866, Note_on_c, 9, 38, 15
4, 122975, Note_on_c, 9, 38, 0
4, 122975, Note_on_c, 9, 59, 71
4, 123488, Note_on_c, 9, 36, 15
4, 123603, Note_on_c, 9, 36, 0
4, 123804, Note_on_c, 9, 59, 0
4, 124084, Note_on_c, 9, 38, 12
4, 124228, Note_on_c, 9, 38, 0
4, 124355, Note_on_c, 9, 38, 12
4, 124432, Note_on_c, 9, 59, 70
4, 124495, Note_on_c, 9, 38, 0
4, 125204, Note_on_c, 9, 59, 0
4, 125371, Note_on_c, 9, 53, 64
4, 125400, Note_on_c, 9, 51, 45
4, 125402, Note_on_c, 9, 36, 16
4, 125489, Note_on_c, 9, 36, 0
4, 125566, Note_on_c, 9, 53, 0
4, 125660, Note_on_c, 9, 51, 0
4, 125734, Note_on_c, 9, 59, 55
4, 125750, Note_on_c, 9, 40, 20
4, 125921, Note_on_c, 9, 40, 0
4, 126047, Note_on_c, 9, 38, 10
4, 126150, Note_on_c, 9, 38, 0
4, 126319, Note_on_c, 9, 59, 0
4, 126351, Note_on_c, 9, 36, 27
4, 126385, Note_on_c, 9, 53, 42
4, 126393, Note_on_c, 9, 51, 47
4, 126506, Note_on_c, 9, 36, 0
4, 126509, Note_on_c, 9, 53, 0
4, 126575, Note_on_c, 9, 51, 0
4, 126776, Note_on_c, 9, 59, 54
4, 127408, Note_on_c, 9, 59, 0
4, 127722, Note_on_c, 9, 59, 60
4, 128273, Note_on_c, 9, 38, 13
4, 128318, Note_on_c, 9, 59, 0
4, 128343, Note_on_c, 9, 38, 0
4, 128609, Note_on_c, 9, 38, 14
4, 128698, Note_on_c, 9, 59, 63
4, 128896, Note_on_c, 9, 38, 0
4, 129230, Note_on_c, 9, 59, 0
4, 129237, Note_on_c, 9, 36, 28
4, 129399, Note_on_c, 9, 36, 0
4, 129628, Note_on_c, 9, 59, 53
4, 130050, Note_on_c, 9, 59, 0
4, 130324, Note_on_c, 9, 59, 61
4, 130509, Note_on_c, 9, 59, 0
4, 130953, Note_on_c, 9, 40, 12
4, 131080, Note_on_c, 9, 40, 0
4, 131237, Note_on_c, 9, 59, 75
4, 131253, Note_on_c, 9, 36, 11
4, 131348, Note_on_c, 9, 36, 0
4, 131450, Note_on_c, 9, 59, 0
4, 131534, Note_on_c, 9, 38, 16
4, 131724, Note_on_c, 9, 38, 0
4, 131852, Note_on_c, 9, 36, 15
4, 131966, Note_on_c, 9, 36, 0
4, 132152, Note_on_c, 9, 59, 44
4, 132167, Note_on_c, 9, 38, 13
4, 132291, Note_on_c, 9, 59, 0
4, 132401, Note_on_c, 9, 38, 0
4, 132497, Note_on_c, 9, 59, 58
4, 133116, Note_on_c, 9, 59, 0
4, 133449, Note_on_c, 9, 59, 68
4, 133765, Note_on_c, 9, 59, 0
4, 134163, Note_on_c, 9, 59, 26
4, 134271, Note_on_c, 9, 59, 0
4, 134453, Note_on_c, 9, 59, 67
4, 134972, Note_on_c, 9, 59, 0
4, 135074, Note_on_c, 9, 38, 13
4, 135171, Note_on_c, 9, 38, 0
4, 135453, Note_on_c, 9, 59, 75
4, 135708, Note_on_c, 9, 38, 14
4, 135892, Note_on_c, 9, 38, 0
4, 136077, Note_on_c, 9, 59, 0
4, 136365, Note_on_c, 9, 38, 12
4, 136451, Note_on_c, 9, 59, 37
4, 136471, Note_on_c, 9, 38, 0
4, 136581, Note_on_c, 9, 59, 0
4, 136947, Note_on_c, 9, 59, 85
4, 136965, Note_on_c, 9, 36, 17
4, 137051, Note_on_c, 9, 36, 0
4, 137504, Note_on_c, 9, 59, 0
4, 137878, Note_on_c, 9, 38, 9
4, 137941, Note_on_c, 9, 59, 40
4, 138047, Note_on_c, 9, 38, 0
4, 138055, Note_on_c, 9, 59, 0
4, 138305, Note_on_c, 9, 59, 79
4, 138875, Note_on_c, 9, 59, 0
4, 139249, Note_on_c, 9, 59, 40
4, 139373, Note_on_c, 9, 59, 0
4, 139457, Note_on_c, 9, 38, 11
4, 139545, Note_on_c, 9, 38, 0
4, 139792, Note_on_c, 9, 59, 82
4, 139834, Note_on_c, 9, 36, 14
4, 139957, Note_on_c, 9, 36, 0
4, 140364, Note_on_c, 9, 59, 0
4, 141841, Note_on_c, 9, 59, 80
4, 142057, Note_on_c, 9, 59, 0
4, 142623, Note_on_c, 9, 38, 14
4, 142690, Note_on_c, 9, 38, 0
4, 142730, Note_on_c, 9, 59, 58
4, 142919, Note_on_c, 9, 59, 0
4, 142990, Note_on_c, 9, 45, 36
4, 143053, Note_on_c, 9, 45, 0
4, 143106, Note_on_c, 9, 59, 75
4, 143299, Note_on_c, 9, 45, 66
4, 143350, Note_on_c, 9, 45, 0
4, 143602, Note_on_c, 9, 59, 0
4, 143619, Note_on_c, 9, 38, 25
4, 143741, Note_on_c, 9, 38, 0
4, 143989, Note_on_c, 9, 36, 12
4, 144046, Note_on_c, 9, 36, 0
4, 144108, Note_on_c, 9, 59, 39
4, 144300, Note_on_c, 9, 59, 0
4, 144609, Note_on_c, 9, 59, 83
4, 145078, Note_on_c, 9, 59, 0
4, 145526, Note_on_c, 9, 59, 39
4, 145642, Note_on_c, 9, 59, 0
4, 145864, Note_on_c, 9, 59, 70
4, 146502, Note_on_c, 9, 59, 0
4, 146881, Note_on_c, 9, 59, 69
4, 147420, Note_on_c, 9, 59, 0
4, 147849, Note_on_c, 9, 59, 68
4, 148221, Note_on_c, 9, 59, 0
4, 148458, Note_on_c, 9, 59, 37
4, 148572, Note_on_c, 9, 59, 0
4, 148728, Note_on_c, 9, 59, 67
4, 149292, Note_on_c, 9, 59, 0
4, 149650, Note_on_c, 9, 59, 73
4, 150214, Note_on_c, 9, 59, 0
4, 150509, Note_on_c, 9, 40, 18
4, 150644, Note_on_c, 9, 40, 0
4, 150686, Note_on_c, 9, 59, 73
4, 150842, Note_on_c, 9, 40, 21
4, 150958, Note_on_c, 9, 40, 0
4, 151165, Note_on_c, 9, 36, 18
4, 151284, Note_on_c, 9, 36, 0
4, 151455, Note_on_c, 9, 40, 20
4, 151599, Note_on_c, 9, 40, 0
4, 151786, Note_on_c, 9, 40, 14
4, 151919, Note_on_c, 9, 40, 0
4, 151997, Note_on_c, 9, 59, 0
4, 152092, Note_on_c, 9, 36, 14
4, 152178, Note_on_c, 9, 36, 0
4, 152344, Note_on_c, 9, 40, 25
4, 152352, Note_on_c, 9, 59, 52
4, 152461, Note_on_c, 9, 59, 0
4, 152487, Note_on_c, 9, 40, 0
4, 152664, Note_on_c, 9, 59, 65
4, 153924, Note_on_c, 9, 59, 0
4, 154218, Note_on_c, 9, 40, 18
4, 154264, Note_on_c, 9, 59, 33
4, 154297, Note_on_c, 9, 40, 0
4, 154380, Note_on_c, 9, 59, 0
4, 154520, Note_on_c, 9, 40, 18
4, 154536, Note_on_c, 9, 59, 75
4, 154612, Note_on_c, 9, 40, 0
4, 155116, Note_on_c, 9, 40, 34
4, 155242, Note_on_c, 9, 40, 0
4, 155500, Note_on_c, 9, 59, 0
4, 155802, Note_on_c, 9, 40, 25
4, 155899, Note_on_c, 9, 40, 0
4, 156060, Note_on_c, 9, 59, 44
4, 156088, Note_on_c, 9, 36, 19
4, 156098, Note_on_c, 9, 60, 43
4, 156179, Note_on_c, 9, 36, 0
4, 156201, Note_on_c, 9, 60, 0
4, 156241, Note_on_c, 9, 59, 0
4, 156405, Note_on_c, 9, 40, 21
4, 156586, Note_on_c, 9, 40, 0
4, 156705, Note_on_c, 9, 36, 16
4, 156832, Note_on_c, 9, 36, 0
4, 157024, Note_on_c, 9, 59, 53
4, 157140, Note_on_c, 9, 59, 0
4, 157360, Note_on_c, 9, 59, 67
4, 157394, Note_on_c, 9, 36, 27
4, 157735, Note_on_c, 9, 36, 0
4, 157916, Note_on_c, 9, 59, 0
4, 158046, Note_on_c, 9, 36, 31
4, 158223, Note_on_c, 9, 36, 0
4, 158387, Note_on_c, 9, 59, 75
4, 158822, Note_on_c, 9, 59, 0
4, 159374, Note_on_c, 9, 59, 80
4, 159830, Note_on_c, 9, 59, 0
4, 160007, Note_on_c, 9, 40, 11
4, 160067, Note_on_c, 9, 40, 0
4, 160375, Note_on_c, 9, 59, 79
4, 160863, Note_on_c, 9, 59, 0
4, 160947, Note_on_c, 9, 36, 20
4, 161025, Note_on_c, 9, 36, 0
4, 161047, Note_on_c, 9, 59, 51
4, 161195, Note_on_c, 9, 59, 0
4, 161321, Note_on_c, 9, 40, 16
4, 161383, Note_on_c, 9, 59, 68
4, 161566, Note_on_c, 9, 40, 0
4, 161956, Note_on_c, 9, 36, 15
4, 162032, Note_on_c, 9, 36, 0
4, 162358, Note_on_c, 9, 59, 0
4, 162892, Note_on_c, 9, 40, 12
4, 162961, Note_on_c, 9, 40, 0
4, 163004, Note_on_c, 9, 59, 38
4, 163120, Note_on_c, 9, 59, 0
4, 163265, Note_on_c, 9, 59, 71
4, 163716, Note_on_c, 9, 59, 0
4, 164230, Note_on_c, 9, 59, 74
4, 164699, Note_on_c, 9, 59, 0
4, 164709, Note_on_c, 9, 40, 28
4, 164771, Note_on_c, 9, 40, 0
4, 164825, Note_on_c, 9, 53, 64
4, 166012, Note_on_c, 9, 53, 0
4, 166191, Note_on_c, 9, 59, 61
4, 166660, Note_on_c, 9, 38, 20
4, 166714, Note_on_c, 9, 38, 0
4, 166731, Note_on_c, 9, 59, 0
4, 166829, Note_on_c, 9, 53, 66
4, 167924, Note_on_c, 9, 53, 0
4, 168050, Note_on_c, 9, 59, 54
4, 168517, Note_on_c, 9, 59, 0
4, 168556, Note_on_c, 9, 38, 11
4, 168593, Note_on_c, 9, 53, 64
4, 168611, Note_on_c, 9, 38, 0
4, 169250, Note_on_c, 9, 38, 16
4, 169318, Note_on_c, 9, 38, 0
4, 169479, Note_on_c, 9, 53, 0
4, 169524, Note_on_c, 9, 38, 11
4, 169582, Note_on_c, 9, 38, 0
4, 169627, Note_on_c, 9, 59, 40
4, 169740, Note_on_c, 9, 59, 0
4, 169925, Note_on_c, 9, 59, 65
4, 170229, Note_on_c, 9, 38, 8
4, 170289, Note_on_c, 9, 38, 0
4, 170483, Note_on_c, 9, 38, 15
4, 170544, Note_on_c, 9, 38, 0
4, 170640, Note_on_c, 9, 59, 0
4, 170863, Note_on_c, 9, 59, 53
4, 171164, Note_on_c, 9, 38, 14
4, 171230, Note_on_c, 9, 38, 0
4, 171280, Note_on_c, 9, 59, 0
4, 171450, Note_on_c, 9, 38, 18
4, 171498, Note_on_c, 9, 59, 43
4, 171510, Note_on_c, 9, 38, 0
4, 171617, Note_on_c, 9, 59, 0
4, 171789, Note_on_c, 9, 59, 67
4, 171849, Note_on_c, 9, 38, 14
4, 171912, Note_on_c, 9, 38, 0
4, 172178, Note_on_c, 9, 38, 21
4, 172231, Note_on_c, 9, 38, 0
4, 172430, Note_on_c, 9, 59, 0
4, 172732, Note_on_c, 9, 59, 73
4, 172810, Note_on_c, 9, 36, 34
4, 172899, Note_on_c, 9, 36, 0
4, 174064, Note_on_c, 9, 59, 0
4, 174341, Note_on_c, 9, 38, 18
4, 174394, Note_on_c, 9, 59, 45
4, 174401, Note_on_c, 9, 38, 0
4, 174513, Note_on_c, 9, 59, 0
4, 174653, Note_on_c, 9, 38, 21
4, 174702, Note_on_c, 9, 59, 60
4, 174707, Note_on_c, 9, 38, 0
4, 175280, Note_on_c, 9, 57, 60
4, 175297, Note_on_c, 9, 36, 30
4, 175398, Note_on_c, 9, 57, 0
4, 175540, Note_on_c, 9, 36, 0
4, 175551, Note_on_c, 9, 59, 0
4, 176244, Note_on_c, 9, 59, 53
4, 176416, Note_on_c, 9, 59, 0
4, 176626, Note_on_c, 9, 59, 64
4, 177288, Note_on_c, 9, 59, 0
4, 177684, Note_on_c, 9, 59, 76
4, 178714, Note_on_c, 9, 59, 0
4, 179113, Note_on_c, 9, 59, 54
4, 179315, Note_on_c, 9, 59, 0
4, 179503, Note_on_c, 9, 59, 70
4, 180094, Note_on_c, 9, 38, 17
4, 180120, Note_on_c, 9, 59, 0
4, 180182, Note_on_c, 9, 38, 0
4, 180451, Note_on_c, 9, 38, 9
4, 180495, Note_on_c, 9, 59, 71
4, 180546, Note_on_c, 9, 38, 0
4, 180759, Note_on_c, 9, 38, 9
4, 180816, Note_on_c, 9, 38, 0
4, 180977, Note_on_c, 9, 59, 0
4, 181059, Note_on_c, 9, 36, 21
4, 181160, Note_on_c, 9, 36, 0
4, 181372, Note_on_c, 9, 38, 13
4, 181467, Note_on_c, 9, 38, 0
4, 181472, Note_on_c, 9, 59, 66
4, 181826, Note_on_c, 9, 59, 0
4, 182050, Note_on_c, 9, 59, 50
4, 182108, Note_on_c, 9, 40, 21
4, 182241, Note_on_c, 9, 40, 0
4, 182353, Note_on_c, 9, 59, 0
4, 182711, Note_on_c, 9, 38, 17
4, 182814, Note_on_c, 9, 38, 0
4, 183044, Note_on_c, 9, 59, 89
4, 183727, Note_on_c, 9, 59, 0
4, 183987, Note_on_c, 9, 59, 34
4, 184135, Note_on_c, 9, 59, 0
4, 184336, Note_on_c, 9, 59, 66
4, 184710, Note_on_c, 9, 59, 0
4, 185028, Note_on_c, 9, 37, 17
4, 185074, Note_on_c, 9, 37, 0
4, 185324, Note_on_c, 9, 59, 70
4, 185342, Note_on_c, 9, 37, 33
4, 185499, Note_on_c, 9, 37, 0
4, 185625, Note_on_c, 9, 59, 0
4, 185855, Note_on_c, 9, 59, 58
4, 185959, Note_on_c, 9, 38, 25
4, 186084, Note_on_c, 9, 59, 0
4, 186223, Note_on_c, 9, 38, 0
4, 186566, Note_on_c, 9, 37, 21
4, 186670, Note_on_c, 9, 37, 0
4, 186777, Note_on_c, 9, 53, 66
4, 186892, Note_on_c, 9, 36, 22
4, 186975, Note_on_c, 9, 53, 0
4, 186992, Note_on_c, 9, 36, 0
4, 187201, Note_on_c, 9, 59, 63
4, 187737, Note_on_c, 9, 59, 0
4, 187876, Note_on_c, 9, 53, 70
4, 188077, Note_on_c, 9, 53, 0
4, 188275, Note_on_c, 9, 59, 67
4, 188768, Note_on_c, 9, 59, 0
4, 189210, Note_on_c, 9, 59, 67
4, 189683, Note_on_c, 9, 59, 0
4, 189817, Note_on_c, 9, 38, 12
4, 189900, Note_on_c, 9, 38, 0
4, 190165, Note_on_c, 9, 38, 15
4, 190207, Note_on_c, 9, 59, 68
4, 190227, Note_on_c, 9, 38, 0
4, 190774, Note_on_c, 9, 53, 58
4, 190906, Note_on_c, 9, 53, 0
4, 191724, Note_on_c, 9, 38, 15
4, 191794, Note_on_c, 9, 38, 0
4, 191844, Note_on_c, 9, 53, 58
4, 191947, Note_on_c, 9, 53, 0
4, 192067, Note_on_c, 9, 38, 16
4, 192134, Note_on_c, 9, 38, 0
4, 192609, Note_on_c, 9, 36, 19
4, 192676, Note_on_c, 9, 36, 0
4, 193028, Note_on_c, 9, 53, 66
4, 193231, Note_on_c, 9, 53, 0
4, 194481, Note_on_c, 9, 38, 13
4, 194496, Note_on_c, 9, 53, 67
4, 194560, Note_on_c, 9, 38, 0
4, 194700, Note_on_c, 9, 59, 0
4, 194726, Note_on_c, 9, 53, 0
4, 195167, Note_on_c, 9, 38, 16
4, 195236, Note_on_c, 9, 38, 0
4, 195452, Note_on_c, 9, 38, 25
4, 195563, Note_on_c, 9, 38, 0
4, 195586, Note_on_c, 9, 53, 62
4, 195675, Note_on_c, 9, 53, 0
4, 195784, Note_on_c, 9, 57, 61
4, 195821, Note_on_c, 9, 36, 32
4, 195896, Note_on_c, 9, 57, 0
4, 195978, Note_on_c, 9, 59, 74
4, 196090, Note_on_c, 9, 36, 0
4, 196466, Note_on_c, 9, 59, 0
4, 196883, Note_on_c, 9, 59, 54
4, 197164, Note_on_c, 9, 59, 0
4, 197430, Note_on_c, 9, 38, 14
4, 197476, Note_on_c, 9, 59, 60
4, 197502, Note_on_c, 9, 38, 0
4, 197692, Note_on_c, 9, 59, 0
4, 197775, Note_on_c, 9, 38, 15
4, 197848, Note_on_c, 9, 38, 0
4, 197900, Note_on_c, 9, 59, 53
4, 198074, Note_on_c, 9, 59, 0
4, 198110, Note_on_c, 9, 36, 24
4, 198193, Note_on_c, 9, 36, 0
4, 198359, Note_on_c, 9, 53, 44
4, 198424, Note_on_c, 9, 38, 23
4, 198470, Note_on_c, 9, 53, 0
4, 198736, Note_on_c, 9, 59, 69
4, 198919, Note_on_c, 9, 38, 0
4, 199098, Note_on_c, 9, 38, 17
4, 199210, Note_on_c, 9, 59, 0
4, 199251, Note_on_c, 9, 38, 0
4, 199402, Note_on_c, 9, 36, 28
4, 199578, Note_on_c, 9, 36, 0
4, 199688, Note_on_c, 9, 59, 49
4, 199755, Note_on_c, 9, 38, 20
4, 199854, Note_on_c, 9, 59, 0
4, 200162, Note_on_c, 9, 38, 0
4, 200260, Note_on_c, 9, 59, 67
4, 200534, Note_on_c, 9, 59, 0
4, 200710, Note_on_c, 9, 38, 16
4, 200794, Note_on_c, 9, 38, 0
4, 201230, Note_on_c, 9, 59, 35
4, 201274, Note_on_c, 9, 38, 20
4, 201368, Note_on_c, 9, 59, 0
4, 201401, Note_on_c, 9, 38, 0
4, 201624, Note_on_c, 9, 59, 60
4, 201852, Note_on_c, 9, 36, 21
4, 202002, Note_on_c, 9, 36, 0
4, 202109, Note_on_c, 9, 59, 0
4, 202601, Note_on_c, 9, 59, 54
4, 202606, Note_on_c, 9, 36, 21
4, 202784, Note_on_c, 9, 36, 0
4, 202831, Note_on_c, 9, 59, 0
4, 203110, Note_on_c, 9, 59, 64
4, 203216, Note_on_c, 9, 36, 22
4, 203321, Note_on_c, 9, 59, 0
4, 203366, Note_on_c, 9, 36, 0
4, 204083, Note_on_c, 9, 59, 58
4, 204297, Note_on_c, 9, 59, 0
4, 204505, Note_on_c, 9, 59, 57
4, 205041, Note_on_c, 9, 59, 0
4, 205478, Note_on_c, 9, 59, 57
4, 206090, Note_on_c, 9, 59, 0
4, 206424, Note_on_c, 9, 59, 58
4, 207112, Note_on_c, 9, 59, 0
4, 207352, Note_on_c, 9, 59, 55
4, 207661, Note_on_c, 9, 59, 0
4, 207661, End_track
0, 0, End_of_file
