0, 0, Header, 1, 6, 384
1, 0, Start_track
1, 0, Title_t, "Rain Waltz"
1, 0, Text_t, "Fred Hersch\012"
1, 0, Text_t, "Song written by the great pianist Fred Hersch - the lead sheet is in the New Real Book Volume 3 (Sher Music) page 303 but in a different key.\012"
1, 0, Text_t, "You may want to re-balance the instruments, and depending on the sounds in your sound card, change to an acoustic bass sound for Channel 2 and an Acoustic piano sound for Channel 1\012"
1, 0, System_exclusive, 8, 67, 115, 1, 17, 15, 89, 0, 247
1, 0, System_exclusive, 5, 126, 127, 9, 1, 247
1, 0, System_exclusive, 8, 67, 115, 1, 17, 15, 89, 0, 247
1, 0, System_exclusive, 5, 126, 127, 9, 1, 247
1, 0, System_exclusive, 10, 65, 16, 66, 18, 64, 0, 127, 0, 65, 247
1, 0, Time_signature, 3, 2, 24, 8
1, 0, Key_signature, 0, "major"
1, 0, Tempo, 560748
1, 0, End_track
2, 0, Start_track
2, 0, Title_t, "dougmck@pipeline.com.au"
2, 0, Program_c, 1, 35
2, 0, Control_c, 1, 7, 106
2, 0, Control_c, 1, 11, 127
2, 0, Control_c, 1, 64, 0
2, 0, Control_c, 1, 67, 0
2, 0, Pitch_bend_c, 1, 8192
2, 0, Note_on_c, 1, 33, 87
2, 384, Note_on_c, 1, 40, 87
2, 408, Note_on_c, 1, 33, 0
2, 576, Note_on_c, 1, 40, 0
2, 640, Note_on_c, 1, 33, 60
2, 704, Note_on_c, 1, 33, 0
2, 768, Note_on_c, 1, 47, 91
2, 1120, Note_on_c, 1, 47, 0
2, 1152, Note_on_c, 1, 45, 84
2, 1744, Note_on_c, 1, 45, 0
2, 1792, Note_on_c, 1, 40, 88
2, 1800, Note_on_c, 1, 40, 0
2, 1920, Note_on_c, 1, 33, 88
2, 1952, Note_on_c, 1, 33, 0
2, 2176, Note_on_c, 1, 32, 76
2, 2232, Note_on_c, 1, 32, 0
2, 2304, Note_on_c, 1, 33, 72
2, 2560, Note_on_c, 1, 40, 67
2, 2608, Note_on_c, 1, 40, 0
2, 2688, Note_on_c, 1, 47, 94
2, 3056, Note_on_c, 1, 47, 0
2, 3072, Note_on_c, 1, 44, 81
2, 3120, Note_on_c, 1, 33, 0
2, 4096, Note_on_c, 1, 39, 89
2, 4192, Note_on_c, 1, 39, 0
2, 4192, Note_on_c, 1, 44, 0
2, 4352, Note_on_c, 1, 35, 84
2, 4384, Note_on_c, 1, 35, 0
2, 4608, Note_on_c, 1, 33, 93
2, 5248, Note_on_c, 1, 40, 43
2, 5264, Note_on_c, 1, 40, 0
2, 5376, Note_on_c, 1, 47, 88
2, 5680, Note_on_c, 1, 47, 0
2, 5712, Note_on_c, 1, 33, 0
2, 5760, Note_on_c, 1, 45, 68
2, 6128, Note_on_c, 1, 45, 0
2, 6144, Note_on_c, 1, 40, 72
2, 6152, Note_on_c, 1, 40, 0
2, 6400, Note_on_c, 1, 34, 79
2, 6440, Note_on_c, 1, 34, 0
2, 6528, Note_on_c, 1, 33, 72
2, 6872, Note_on_c, 1, 33, 0
2, 6912, Note_on_c, 1, 32, 84
2, 7296, Note_on_c, 1, 39, 69
2, 7680, Note_on_c, 1, 39, 0
2, 7680, Note_on_c, 1, 48, 101
2, 8176, Note_on_c, 1, 32, 0
2, 8704, Note_on_c, 1, 32, 76
2, 8712, Note_on_c, 1, 32, 0
2, 8832, Note_on_c, 1, 32, 84
2, 8832, Note_on_c, 1, 32, 0
2, 9040, Note_on_c, 1, 48, 0
2, 9088, Note_on_c, 1, 30, 79
2, 9144, Note_on_c, 1, 30, 0
2, 9216, Note_on_c, 1, 31, 91
2, 9984, Note_on_c, 1, 43, 65
2, 10000, Note_on_c, 1, 43, 0
2, 10008, Note_on_c, 1, 31, 0
2, 10112, Note_on_c, 1, 45, 84
2, 10144, Note_on_c, 1, 45, 0
2, 10240, Note_on_c, 1, 43, 101
2, 10344, Pitch_bend_c, 1, 8192
2, 10344, Pitch_bend_c, 1, 8192
2, 10344, Pitch_bend_c, 1, 8192
2, 10352, Pitch_bend_c, 1, 8972
2, 10360, Pitch_bend_c, 1, 9232
2, 10360, Pitch_bend_c, 1, 9362
2, 10368, Pitch_bend_c, 1, 9752
2, 10368, Pitch_bend_c, 1, 9882
2, 10368, Pitch_bend_c, 1, 10142
2, 10368, Pitch_bend_c, 1, 10402
2, 10368, Pitch_bend_c, 1, 10532
2, 10368, Pitch_bend_c, 1, 10792
2, 10368, Pitch_bend_c, 1, 10922
2, 10368, Pitch_bend_c, 1, 11052
2, 10432, Pitch_bend_c, 1, 10792
2, 10432, Pitch_bend_c, 1, 10662
2, 10440, Pitch_bend_c, 1, 10532
2, 10448, Pitch_bend_c, 1, 10272
2, 10448, Pitch_bend_c, 1, 10012
2, 10456, Pitch_bend_c, 1, 9752
2, 10456, Pitch_bend_c, 1, 9362
2, 10464, Pitch_bend_c, 1, 9102
2, 10464, Pitch_bend_c, 1, 8712
2, 10472, Pitch_bend_c, 1, 8192
2, 10472, Pitch_bend_c, 1, 8192
2, 10568, Pitch_bend_c, 1, 8192
2, 10576, Pitch_bend_c, 1, 8712
2, 10576, Pitch_bend_c, 1, 9102
2, 10584, Pitch_bend_c, 1, 9492
2, 10584, Pitch_bend_c, 1, 10012
2, 10592, Pitch_bend_c, 1, 10402
2, 10600, Pitch_bend_c, 1, 10792
2, 10600, Pitch_bend_c, 1, 11312
2, 10608, Pitch_bend_c, 1, 11572
2, 10608, Pitch_bend_c, 1, 11832
2, 10616, Pitch_bend_c, 1, 12092
2, 10624, Pitch_bend_c, 1, 11832
2, 10624, Pitch_bend_c, 1, 11572
2, 10624, Pitch_bend_c, 1, 11442
2, 10624, Pitch_bend_c, 1, 11052
2, 10624, Pitch_bend_c, 1, 10662
2, 10624, Pitch_bend_c, 1, 10272
2, 10688, Pitch_bend_c, 1, 9882
2, 10696, Pitch_bend_c, 1, 9362
2, 10696, Pitch_bend_c, 1, 8842
2, 10704, Pitch_bend_c, 1, 8192
2, 10704, Pitch_bend_c, 1, 8192
2, 11392, Note_on_c, 1, 38, 60
2, 11456, Note_on_c, 1, 38, 0
2, 11520, Note_on_c, 1, 31, 79
2, 12896, Note_on_c, 1, 43, 0
2, 12928, Note_on_c, 1, 37, 92
2, 12976, Note_on_c, 1, 37, 0
2, 13056, Note_on_c, 1, 43, 82
2, 13184, Note_on_c, 1, 31, 0
2, 13440, Note_on_c, 1, 37, 57
2, 13456, Note_on_c, 1, 37, 0
2, 13696, Note_on_c, 1, 39, 86
2, 13728, Note_on_c, 1, 43, 0
2, 13808, Note_on_c, 1, 39, 0
2, 13824, Note_on_c, 1, 40, 60
2, 14208, Note_on_c, 1, 28, 75
2, 14592, Note_on_c, 1, 52, 101
2, 15976, Note_on_c, 1, 28, 0
2, 16000, Note_on_c, 1, 35, 67
2, 16016, Note_on_c, 1, 35, 0
2, 16128, Note_on_c, 1, 28, 88
2, 16240, Note_on_c, 1, 52, 0
2, 16664, Note_on_c, 1, 40, 0
2, 16768, Note_on_c, 1, 40, 101
2, 16824, Note_on_c, 1, 28, 0
2, 16832, Note_on_c, 1, 40, 0
2, 16896, Note_on_c, 1, 34, 89
2, 17632, Note_on_c, 1, 34, 0
2, 17664, Note_on_c, 1, 40, 87
2, 17672, Note_on_c, 1, 40, 0
2, 18048, Note_on_c, 1, 32, 76
2, 18376, Note_on_c, 1, 32, 0
2, 18432, Note_on_c, 1, 33, 68
2, 19072, Note_on_c, 1, 40, 70
2, 19080, Note_on_c, 1, 40, 0
2, 19200, Note_on_c, 1, 47, 72
2, 19400, Note_on_c, 1, 47, 0
2, 19456, Note_on_c, 1, 48, 74
2, 19512, Note_on_c, 1, 48, 0
2, 19584, Note_on_c, 1, 47, 82
2, 19936, Note_on_c, 1, 47, 0
2, 19968, Note_on_c, 1, 45, 80
2, 19984, Note_on_c, 1, 33, 0
2, 20184, Note_on_c, 1, 45, 0
2, 20224, Note_on_c, 1, 40, 79
2, 20224, Note_on_c, 1, 40, 0
2, 20352, Note_on_c, 1, 31, 72
2, 20712, Note_on_c, 1, 31, 0
2, 20736, Note_on_c, 1, 30, 88
2, 21120, Note_on_c, 1, 30, 0
2, 21120, Note_on_c, 1, 43, 96
2, 21488, Note_on_c, 1, 43, 0
2, 21504, Note_on_c, 1, 41, 81
2, 21888, Note_on_c, 1, 29, 58
2, 21920, Note_on_c, 1, 41, 0
2, 22272, Note_on_c, 1, 45, 72
2, 22336, Note_on_c, 1, 29, 0
2, 22624, Note_on_c, 1, 45, 0
2, 22656, Note_on_c, 1, 41, 77
2, 22728, Note_on_c, 1, 41, 0
2, 22784, Note_on_c, 1, 40, 69
2, 22800, Note_on_c, 1, 40, 0
2, 22912, Note_on_c, 1, 39, 69
2, 22984, Note_on_c, 1, 39, 0
2, 23040, Note_on_c, 1, 38, 74
2, 23424, Note_on_c, 1, 50, 100
2, 24096, Note_on_c, 1, 38, 0
2, 24192, Note_on_c, 1, 50, 0
2, 24192, Note_on_c, 1, 38, 75
2, 24576, Note_on_c, 1, 50, 101
2, 24960, Note_on_c, 1, 38, 0
2, 25336, Note_on_c, 1, 50, 0
2, 25344, Note_on_c, 1, 38, 84
2, 25728, Note_on_c, 1, 38, 0
2, 25728, Note_on_c, 1, 50, 101
2, 26488, Note_on_c, 1, 50, 0
2, 26496, Note_on_c, 1, 38, 69
2, 26840, Note_on_c, 1, 38, 0
2, 26880, Note_on_c, 1, 32, 87
2, 27624, Note_on_c, 1, 32, 0
2, 27648, Note_on_c, 1, 31, 72
2, 28416, Note_on_c, 1, 43, 101
2, 28896, Note_on_c, 1, 31, 0
2, 29184, Note_on_c, 1, 31, 80
2, 29256, Note_on_c, 1, 31, 0
2, 29440, Note_on_c, 1, 30, 79
2, 29504, Note_on_c, 1, 30, 0
2, 29568, Note_on_c, 1, 31, 74
2, 29800, Note_on_c, 1, 31, 0
2, 29824, Note_on_c, 1, 30, 65
2, 29920, Note_on_c, 1, 30, 0
2, 29920, Note_on_c, 1, 43, 0
2, 29952, Note_on_c, 1, 31, 79
2, 30336, Note_on_c, 1, 43, 100
2, 30976, Note_on_c, 1, 30, 56
2, 31040, Note_on_c, 1, 31, 0
2, 31048, Note_on_c, 1, 30, 0
2, 31104, Note_on_c, 1, 37, 91
2, 31136, Note_on_c, 1, 43, 0
2, 32000, Note_on_c, 1, 34, 60
2, 32048, Note_on_c, 1, 34, 0
2, 32064, Note_on_c, 1, 37, 0
2, 32128, Note_on_c, 1, 35, 82
2, 32224, Note_on_c, 1, 35, 0
2, 32256, Note_on_c, 1, 36, 81
2, 33024, Note_on_c, 1, 50, 101
2, 33232, Note_on_c, 1, 50, 0
2, 33280, Note_on_c, 1, 34, 48
2, 33328, Note_on_c, 1, 34, 0
2, 33392, Note_on_c, 1, 36, 0
2, 33408, Note_on_c, 1, 48, 94
2, 33784, Note_on_c, 1, 48, 0
2, 33792, Note_on_c, 1, 43, 75
2, 34176, Note_on_c, 1, 35, 75
2, 34208, Note_on_c, 1, 43, 0
2, 34544, Note_on_c, 1, 35, 0
2, 34560, Note_on_c, 1, 36, 87
2, 34944, Note_on_c, 1, 43, 101
2, 35024, Note_on_c, 1, 36, 0
2, 35200, Note_on_c, 1, 35, 55
2, 35272, Note_on_c, 1, 35, 0
2, 35328, Note_on_c, 1, 42, 86
2, 35336, Note_on_c, 1, 43, 0
2, 35712, Note_on_c, 1, 41, 88
2, 35744, Note_on_c, 1, 42, 0
2, 36048, Note_on_c, 1, 41, 0
2, 36096, Note_on_c, 1, 41, 98
2, 36352, Note_on_c, 1, 40, 91
2, 36400, Note_on_c, 1, 41, 0
2, 36456, Note_on_c, 1, 40, 0
2, 36480, Note_on_c, 1, 39, 74
2, 36832, Note_on_c, 1, 39, 0
2, 36864, Note_on_c, 1, 38, 84
2, 37248, Note_on_c, 1, 50, 92
2, 39040, Note_on_c, 1, 33, 98
2, 39056, Note_on_c, 1, 38, 0
2, 39128, Note_on_c, 1, 33, 0
2, 39168, Note_on_c, 1, 38, 62
2, 39432, Note_on_c, 1, 50, 0
2, 40176, Note_on_c, 1, 38, 0
2, 40192, Note_on_c, 1, 37, 82
2, 40288, Note_on_c, 1, 37, 0
2, 40320, Note_on_c, 1, 38, 94
2, 41344, Note_on_c, 1, 38, 0
2, 41344, Note_on_c, 1, 37, 77
2, 41432, Note_on_c, 1, 37, 0
2, 41472, Note_on_c, 1, 38, 86
2, 41856, Note_on_c, 1, 50, 92
2, 42904, Note_on_c, 1, 38, 0
2, 43008, Note_on_c, 1, 38, 77
2, 43192, Note_on_c, 1, 50, 0
2, 43648, Note_on_c, 1, 38, 0
2, 43648, Note_on_c, 1, 39, 80
2, 43744, Note_on_c, 1, 39, 0
2, 43776, Note_on_c, 1, 40, 63
2, 44800, Note_on_c, 1, 35, 70
2, 44800, Note_on_c, 1, 35, 0
2, 44928, Note_on_c, 1, 28, 77
2, 45696, Note_on_c, 1, 35, 63
2, 45752, Note_on_c, 1, 40, 0
2, 45952, Note_on_c, 1, 40, 101
2, 46016, Note_on_c, 1, 40, 0
2, 46016, Note_on_c, 1, 35, 0
2, 46032, Note_on_c, 1, 28, 0
2, 46080, Note_on_c, 1, 39, 81
2, 46720, Note_on_c, 1, 34, 70
2, 46744, Note_on_c, 1, 34, 0
2, 46848, Note_on_c, 1, 27, 79
2, 46888, Note_on_c, 1, 39, 0
2, 47160, Note_on_c, 1, 27, 0
2, 47232, Note_on_c, 1, 39, 96
2, 48368, Note_on_c, 1, 39, 0
2, 48384, Note_on_c, 1, 38, 94
2, 48768, Note_on_c, 1, 50, 101
2, 49888, Note_on_c, 1, 38, 0
2, 49920, Note_on_c, 1, 44, 91
2, 50432, Note_on_c, 1, 33, 80
2, 50496, Note_on_c, 1, 33, 0
2, 50544, Note_on_c, 1, 50, 0
2, 50552, Note_on_c, 1, 44, 0
2, 50560, Note_on_c, 1, 32, 86
2, 50640, Note_on_c, 1, 32, 0
2, 50688, Note_on_c, 1, 31, 91
2, 51072, Note_on_c, 1, 38, 96
2, 51280, Note_on_c, 1, 38, 0
2, 51328, Note_on_c, 1, 37, 53
2, 51376, Note_on_c, 1, 37, 0
2, 51456, Note_on_c, 1, 38, 74
2, 51640, Note_on_c, 1, 38, 0
2, 51816, Note_on_c, 1, 31, 0
2, 51840, Note_on_c, 1, 38, 69
2, 52160, Note_on_c, 1, 38, 0
2, 52224, Note_on_c, 1, 31, 82
2, 52856, Note_on_c, 1, 31, 0
2, 52864, Note_on_c, 1, 30, 64
2, 52960, Note_on_c, 1, 30, 0
2, 52992, Note_on_c, 1, 31, 87
2, 53376, Note_on_c, 1, 44, 99
2, 54184, Note_on_c, 1, 31, 0
2, 54528, Note_on_c, 1, 31, 84
2, 54736, Note_on_c, 1, 31, 0
2, 54784, Note_on_c, 1, 30, 60
2, 54856, Note_on_c, 1, 30, 0
2, 54912, Note_on_c, 1, 31, 72
2, 55128, Note_on_c, 1, 31, 0
2, 55168, Note_on_c, 1, 30, 69
2, 55240, Note_on_c, 1, 30, 0
2, 55280, Note_on_c, 1, 44, 0
2, 55296, Note_on_c, 1, 31, 84
2, 55680, Note_on_c, 1, 43, 100
2, 56832, Note_on_c, 1, 31, 0
2, 56832, Note_on_c, 1, 38, 75
2, 57208, Note_on_c, 1, 38, 0
2, 57216, Note_on_c, 1, 31, 84
2, 57240, Note_on_c, 1, 43, 0
2, 57600, Note_on_c, 1, 32, 101
2, 57608, Note_on_c, 1, 31, 0
2, 58368, Note_on_c, 1, 48, 94
2, 59136, Note_on_c, 1, 39, 69
2, 59144, Note_on_c, 1, 32, 0
2, 59200, Note_on_c, 1, 39, 0
2, 59392, Note_on_c, 1, 32, 87
2, 59400, Note_on_c, 1, 32, 0
2, 59496, Note_on_c, 1, 48, 0
2, 59520, Note_on_c, 1, 32, 77
2, 59864, Note_on_c, 1, 32, 0
2, 59904, Note_on_c, 1, 33, 82
2, 60544, Note_on_c, 1, 47, 101
2, 60632, Note_on_c, 1, 47, 0
2, 60672, Note_on_c, 1, 45, 74
2, 61032, Note_on_c, 1, 45, 0
2, 61032, Note_on_c, 1, 33, 0
2, 61056, Note_on_c, 1, 40, 82
2, 61440, Note_on_c, 1, 33, 77
2, 62072, Note_on_c, 1, 33, 0
2, 62080, Note_on_c, 1, 32, 84
2, 62160, Note_on_c, 1, 32, 0
2, 62168, Note_on_c, 1, 40, 0
2, 62208, Note_on_c, 1, 33, 79
2, 62592, Note_on_c, 1, 47, 101
2, 63184, Note_on_c, 1, 47, 0
2, 63232, Note_on_c, 1, 44, 101
2, 63424, Note_on_c, 1, 33, 0
2, 63872, Note_on_c, 1, 33, 70
2, 63952, Note_on_c, 1, 33, 0
2, 64000, Note_on_c, 1, 32, 63
2, 64056, Note_on_c, 1, 32, 0
2, 64128, Note_on_c, 1, 33, 96
2, 64264, Note_on_c, 1, 33, 0
2, 64384, Note_on_c, 1, 32, 84
2, 64424, Note_on_c, 1, 44, 0
2, 64456, Note_on_c, 1, 32, 0
2, 64512, Note_on_c, 1, 33, 82
2, 64896, Note_on_c, 1, 47, 101
2, 65504, Note_on_c, 1, 47, 0
2, 65536, Note_on_c, 1, 43, 87
2, 65592, Note_on_c, 1, 43, 0
2, 65880, Note_on_c, 1, 33, 0
2, 65920, Note_on_c, 1, 40, 92
2, 65992, Note_on_c, 1, 40, 0
2, 66048, Note_on_c, 1, 36, 79
2, 66432, Note_on_c, 1, 33, 91
2, 66488, Note_on_c, 1, 33, 0
2, 66680, Note_on_c, 1, 36, 0
2, 66688, Note_on_c, 1, 33, 93
2, 66784, Note_on_c, 1, 33, 0
2, 66816, Note_on_c, 1, 32, 86
2, 67200, Note_on_c, 1, 39, 82
2, 67264, Note_on_c, 1, 39, 0
2, 67584, Note_on_c, 1, 48, 101
2, 68296, Note_on_c, 1, 48, 0
2, 68352, Note_on_c, 1, 45, 79
2, 68376, Note_on_c, 1, 45, 0
2, 68608, Note_on_c, 1, 41, 92
2, 68632, Note_on_c, 1, 41, 0
2, 68640, Note_on_c, 1, 32, 0
2, 68736, Note_on_c, 1, 38, 55
2, 68760, Note_on_c, 1, 38, 0
2, 68992, Note_on_c, 1, 30, 79
2, 69064, Note_on_c, 1, 30, 0
2, 69120, Note_on_c, 1, 31, 60
2, 69376, Note_on_c, 1, 30, 58
2, 69376, Note_on_c, 1, 30, 0
2, 69376, Note_on_c, 1, 38, 68
2, 69456, Note_on_c, 1, 38, 0
2, 69456, Note_on_c, 1, 31, 0
2, 69504, Note_on_c, 1, 43, 62
2, 69712, Note_on_c, 1, 43, 0
2, 69760, Note_on_c, 1, 45, 72
2, 69816, Note_on_c, 1, 45, 0
2, 69888, Note_on_c, 1, 43, 57
2, 70144, Note_on_c, 1, 43, 0
2, 70144, Note_on_c, 1, 38, 63
2, 70160, Note_on_c, 1, 38, 0
2, 70272, Note_on_c, 1, 43, 84
2, 70496, Note_on_c, 1, 43, 0
2, 70528, Note_on_c, 1, 38, 75
2, 70560, Note_on_c, 1, 38, 0
2, 70656, Note_on_c, 1, 35, 67
2, 70672, Note_on_c, 1, 35, 0
2, 71040, Note_on_c, 1, 32, 84
2, 71232, Note_on_c, 1, 32, 0
2, 71296, Note_on_c, 1, 30, 74
2, 71392, Note_on_c, 1, 30, 0
2, 71424, Note_on_c, 1, 31, 92
2, 71808, Note_on_c, 1, 43, 93
2, 71880, Note_on_c, 1, 31, 0
2, 72136, Note_on_c, 1, 43, 0
2, 72192, Note_on_c, 1, 37, 80
2, 72800, Note_on_c, 1, 37, 0
2, 72960, Note_on_c, 1, 43, 96
2, 73344, Note_on_c, 1, 37, 51
2, 73360, Note_on_c, 1, 43, 0
2, 73480, Note_on_c, 1, 37, 0
2, 73600, Note_on_c, 1, 35, 74
2, 73600, Note_on_c, 1, 35, 0
2, 73728, Note_on_c, 1, 40, 84
2, 74096, Note_on_c, 1, 40, 0
2, 74112, Note_on_c, 1, 28, 77
2, 74752, Note_on_c, 1, 35, 62
2, 74760, Note_on_c, 1, 35, 0
2, 74880, Note_on_c, 1, 40, 74
2, 74920, Note_on_c, 1, 40, 0
2, 75136, Note_on_c, 1, 41, 101
2, 75216, Note_on_c, 1, 41, 0
2, 75264, Note_on_c, 1, 40, 70
2, 75328, Note_on_c, 1, 28, 0
2, 75648, Note_on_c, 1, 35, 65
2, 75656, Note_on_c, 1, 35, 0
2, 75904, Note_on_c, 1, 35, 65
2, 76000, Note_on_c, 1, 35, 0
2, 76008, Note_on_c, 1, 40, 0
2, 76032, Note_on_c, 1, 28, 63
2, 76416, Note_on_c, 1, 40, 68
2, 76424, Note_on_c, 1, 40, 0
2, 76672, Note_on_c, 1, 41, 81
2, 76704, Note_on_c, 1, 28, 0
2, 76728, Note_on_c, 1, 41, 0
2, 76800, Note_on_c, 1, 40, 96
2, 77048, Note_on_c, 1, 40, 0
2, 77056, Note_on_c, 1, 34, 101
2, 77568, Note_on_c, 1, 40, 101
2, 77640, Note_on_c, 1, 34, 0
2, 77824, Note_on_c, 1, 41, 84
2, 77840, Note_on_c, 1, 40, 0
2, 77912, Note_on_c, 1, 41, 0
2, 77952, Note_on_c, 1, 40, 84
2, 77976, Note_on_c, 1, 40, 0
2, 78080, Note_on_c, 1, 35, 82
2, 78128, Note_on_c, 1, 35, 0
2, 78208, Note_on_c, 1, 34, 81
2, 78296, Note_on_c, 1, 34, 0
2, 78336, Note_on_c, 1, 33, 84
2, 78720, Note_on_c, 1, 40, 76
2, 79104, Note_on_c, 1, 52, 91
2, 79200, Note_on_c, 1, 33, 0
2, 79448, Note_on_c, 1, 52, 0
2, 79488, Note_on_c, 1, 52, 39
2, 79744, Note_on_c, 1, 48, 101
2, 79760, Note_on_c, 1, 52, 0
2, 79768, Note_on_c, 1, 40, 0
2, 80128, Note_on_c, 1, 33, 63
2, 80136, Note_on_c, 1, 33, 0
2, 80240, Note_on_c, 1, 48, 0
2, 80256, Note_on_c, 1, 40, 72
2, 80496, Note_on_c, 1, 40, 0
2, 80512, Note_on_c, 1, 42, 89
2, 80552, Note_on_c, 1, 42, 0
2, 80640, Note_on_c, 1, 41, 69
2, 80896, Note_on_c, 1, 36, 88
2, 80928, Note_on_c, 1, 36, 0
2, 80936, Note_on_c, 1, 41, 0
2, 81024, Note_on_c, 1, 29, 72
2, 81280, Note_on_c, 1, 36, 62
2, 81280, Note_on_c, 1, 36, 0
2, 81408, Note_on_c, 1, 41, 80
2, 81624, Note_on_c, 1, 41, 0
2, 81664, Note_on_c, 1, 43, 64
2, 81736, Note_on_c, 1, 43, 0
2, 81792, Note_on_c, 1, 41, 75
2, 81896, Note_on_c, 1, 29, 0
2, 82152, Note_on_c, 1, 41, 0
2, 82176, Note_on_c, 1, 36, 81
2, 82432, Note_on_c, 1, 32, 65
2, 82448, Note_on_c, 1, 32, 0
2, 82480, Note_on_c, 1, 36, 0
2, 82560, Note_on_c, 1, 37, 75
2, 82920, Note_on_c, 1, 37, 0
2, 82944, Note_on_c, 1, 38, 94
2, 83288, Note_on_c, 1, 38, 0
2, 83328, Note_on_c, 1, 52, 101
2, 83584, Note_on_c, 1, 37, 40
2, 83616, Note_on_c, 1, 37, 0
2, 83640, Note_on_c, 1, 52, 0
2, 83712, Note_on_c, 1, 50, 91
2, 84096, Note_on_c, 1, 38, 79
2, 84736, Note_on_c, 1, 33, 88
2, 84808, Note_on_c, 1, 33, 0
2, 85120, Note_on_c, 1, 32, 89
2, 85176, Note_on_c, 1, 32, 0
2, 85248, Note_on_c, 1, 33, 94
2, 85272, Note_on_c, 1, 33, 0
2, 85280, Note_on_c, 1, 38, 0
2, 85504, Note_on_c, 1, 38, 101
2, 85560, Note_on_c, 1, 38, 0
2, 85632, Note_on_c, 1, 32, 82
2, 85848, Note_on_c, 1, 50, 0
2, 86272, Note_on_c, 1, 50, 101
2, 86592, Note_on_c, 1, 32, 0
2, 86656, Note_on_c, 1, 38, 67
2, 86656, Note_on_c, 1, 38, 0
2, 86696, Note_on_c, 1, 50, 0
2, 86784, Note_on_c, 1, 44, 81
2, 87040, Note_on_c, 1, 44, 0
2, 87040, Note_on_c, 1, 38, 79
2, 87040, Note_on_c, 1, 38, 0
2, 87168, Note_on_c, 1, 32, 87
2, 87400, Note_on_c, 1, 32, 0
2, 87424, Note_on_c, 1, 30, 70
2, 87488, Note_on_c, 1, 30, 0
2, 87552, Note_on_c, 1, 31, 72
2, 87936, Note_on_c, 1, 38, 58
2, 87960, Note_on_c, 1, 38, 0
2, 88320, Note_on_c, 1, 43, 96
2, 88376, Note_on_c, 1, 43, 0
2, 88576, Note_on_c, 1, 45, 96
2, 88616, Note_on_c, 1, 45, 0
2, 88704, Note_on_c, 1, 43, 60
2, 89000, Note_on_c, 1, 31, 0
2, 89088, Note_on_c, 1, 38, 65
2, 89344, Note_on_c, 1, 29, 77
2, 89400, Note_on_c, 1, 29, 0
2, 89400, Note_on_c, 1, 43, 0
2, 89408, Note_on_c, 1, 38, 0
2, 89472, Note_on_c, 1, 30, 92
2, 89800, Note_on_c, 1, 30, 0
2, 89856, Note_on_c, 1, 31, 87
2, 90192, Note_on_c, 1, 31, 0
2, 90240, Note_on_c, 1, 43, 101
2, 90472, Pitch_bend_c, 1, 8192
2, 90472, Pitch_bend_c, 1, 8192
2, 90472, Pitch_bend_c, 1, 8192
2, 90480, Pitch_bend_c, 1, 8712
2, 90480, Pitch_bend_c, 1, 8972
2, 90488, Pitch_bend_c, 1, 9362
2, 90488, Pitch_bend_c, 1, 9622
2, 90496, Pitch_bend_c, 1, 10012
2, 90496, Pitch_bend_c, 1, 10142
2, 90496, Pitch_bend_c, 1, 10532
2, 90496, Pitch_bend_c, 1, 10792
2, 90496, Pitch_bend_c, 1, 10922
2, 90496, Pitch_bend_c, 1, 11312
2, 90496, Pitch_bend_c, 1, 11442
2, 90496, Pitch_bend_c, 1, 11572
2, 90496, Pitch_bend_c, 1, 11702
2, 90568, Pitch_bend_c, 1, 11442
2, 90584, Pitch_bend_c, 1, 11052
2, 90584, Pitch_bend_c, 1, 10922
2, 90592, Pitch_bend_c, 1, 10792
2, 90592, Pitch_bend_c, 1, 10532
2, 90600, Pitch_bend_c, 1, 10272
2, 90600, Pitch_bend_c, 1, 10012
2, 90608, Pitch_bend_c, 1, 9882
2, 90616, Pitch_bend_c, 1, 9622
2, 90616, Pitch_bend_c, 1, 9362
2, 90624, Pitch_bend_c, 1, 9102
2, 90624, Pitch_bend_c, 1, 8712
2, 90624, Pitch_bend_c, 1, 8192
2, 90624, Pitch_bend_c, 1, 8192
2, 90624, Pitch_bend_c, 1, 8192
2, 90624, Pitch_bend_c, 1, 8192
2, 90864, Pitch_bend_c, 1, 8192
2, 90864, Pitch_bend_c, 1, 8192
2, 90864, Pitch_bend_c, 1, 8192
2, 90872, Pitch_bend_c, 1, 8712
2, 90880, Pitch_bend_c, 1, 9102
2, 90880, Pitch_bend_c, 1, 9362
2, 90880, Pitch_bend_c, 1, 9752
2, 90880, Pitch_bend_c, 1, 10142
2, 90880, Pitch_bend_c, 1, 10402
2, 90880, Pitch_bend_c, 1, 10662
2, 90880, Pitch_bend_c, 1, 10922
2, 90880, Pitch_bend_c, 1, 11052
2, 90880, Pitch_bend_c, 1, 11442
2, 90880, Pitch_bend_c, 1, 11572
2, 90960, Pitch_bend_c, 1, 11312
2, 90968, Pitch_bend_c, 1, 11052
2, 90968, Pitch_bend_c, 1, 10792
2, 90976, Pitch_bend_c, 1, 10532
2, 90976, Pitch_bend_c, 1, 10272
2, 90984, Pitch_bend_c, 1, 9882
2, 90984, Pitch_bend_c, 1, 9622
2, 90992, Pitch_bend_c, 1, 9102
2, 91000, Pitch_bend_c, 1, 8712
2, 91000, Pitch_bend_c, 1, 8192
2, 91000, Pitch_bend_c, 1, 8192
2, 91392, Note_on_c, 1, 37, 75
2, 91432, Note_on_c, 1, 43, 0
2, 91776, Note_on_c, 1, 34, 72
2, 91840, Note_on_c, 1, 34, 0
2, 92032, Note_on_c, 1, 35, 87
2, 92064, Note_on_c, 1, 37, 0
2, 92144, Note_on_c, 1, 35, 0
2, 92160, Note_on_c, 1, 36, 84
2, 92544, Note_on_c, 1, 45, 91
2, 92808, Note_on_c, 1, 36, 0
2, 92912, Note_on_c, 1, 45, 0
2, 92928, Note_on_c, 1, 43, 80
2, 93568, Note_on_c, 1, 34, 87
2, 93640, Note_on_c, 1, 34, 0
2, 93952, Note_on_c, 1, 34, 99
2, 94008, Note_on_c, 1, 34, 0
2, 94336, Note_on_c, 1, 35, 98
2, 94392, Note_on_c, 1, 43, 0
2, 94432, Note_on_c, 1, 35, 0
2, 94464, Note_on_c, 1, 36, 81
2, 94848, Note_on_c, 1, 45, 87
2, 95120, Note_on_c, 1, 36, 0
2, 95216, Note_on_c, 1, 45, 0
2, 95232, Note_on_c, 1, 43, 77
2, 95488, Note_on_c, 1, 36, 82
2, 95496, Note_on_c, 1, 36, 0
2, 95584, Note_on_c, 1, 43, 0
2, 95616, Note_on_c, 1, 41, 72
2, 96256, Note_on_c, 1, 36, 96
2, 96280, Note_on_c, 1, 36, 0
2, 96384, Note_on_c, 1, 37, 50
2, 96400, Note_on_c, 1, 37, 0
2, 96632, Note_on_c, 1, 41, 0
2, 96640, Note_on_c, 1, 37, 86
2, 96704, Note_on_c, 1, 37, 0
2, 96768, Note_on_c, 1, 38, 72
2, 97024, Note_on_c, 1, 37, 43
2, 97064, Note_on_c, 1, 37, 0
2, 97152, Note_on_c, 1, 50, 86
2, 97648, Note_on_c, 1, 50, 0
2, 97664, Note_on_c, 1, 52, 91
2, 97752, Note_on_c, 1, 52, 0
2, 97792, Note_on_c, 1, 53, 96
2, 97824, Note_on_c, 1, 53, 0
2, 97920, Note_on_c, 1, 54, 101
2, 97968, Note_on_c, 1, 38, 0
2, 98176, Note_on_c, 1, 50, 69
2, 98200, Note_on_c, 1, 50, 0
2, 98224, Note_on_c, 1, 54, 0
2, 98304, Note_on_c, 1, 45, 55
2, 98616, Note_on_c, 1, 45, 0
2, 98688, Note_on_c, 1, 43, 62
2, 98944, Note_on_c, 1, 37, 65
2, 98944, Note_on_c, 1, 37, 0
2, 98992, Note_on_c, 1, 43, 0
2, 99328, Note_on_c, 1, 38, 101
2, 99376, Note_on_c, 1, 38, 0
2, 99456, Note_on_c, 1, 37, 62
2, 99808, Note_on_c, 1, 37, 0
2, 99840, Note_on_c, 1, 38, 72
2, 100184, Note_on_c, 1, 38, 0
2, 100224, Note_on_c, 1, 45, 75
2, 100600, Note_on_c, 1, 45, 0
2, 100608, Note_on_c, 1, 38, 82
2, 100936, Note_on_c, 1, 38, 0
2, 100992, Note_on_c, 1, 38, 82
2, 101232, Note_on_c, 1, 38, 0
2, 101248, Note_on_c, 1, 37, 62
2, 101320, Note_on_c, 1, 37, 0
2, 101376, Note_on_c, 1, 38, 76
2, 101688, Note_on_c, 1, 38, 0
2, 101760, Note_on_c, 1, 43, 60
2, 102096, Note_on_c, 1, 43, 0
2, 102144, Note_on_c, 1, 38, 80
2, 102768, Note_on_c, 1, 38, 0
2, 102784, Note_on_c, 1, 37, 50
2, 102864, Note_on_c, 1, 37, 0
2, 102912, Note_on_c, 1, 38, 92
2, 103552, Note_on_c, 1, 39, 70
2, 103592, Note_on_c, 1, 39, 0
2, 103600, Note_on_c, 1, 38, 0
2, 103680, Note_on_c, 1, 40, 98
2, 104320, Note_on_c, 1, 35, 72
2, 104352, Note_on_c, 1, 35, 0
2, 104384, Note_on_c, 1, 40, 0
2, 104448, Note_on_c, 1, 28, 82
2, 105088, Note_on_c, 1, 35, 56
2, 105088, Note_on_c, 1, 35, 0
2, 105216, Note_on_c, 1, 40, 75
2, 105240, Note_on_c, 1, 40, 0
2, 105472, Note_on_c, 1, 41, 101
2, 105544, Note_on_c, 1, 41, 0
2, 105600, Note_on_c, 1, 40, 75
2, 105704, Note_on_c, 1, 28, 0
2, 105856, Note_on_c, 1, 35, 56
2, 105856, Note_on_c, 1, 35, 0
2, 105936, Note_on_c, 1, 40, 0
2, 105984, Note_on_c, 1, 39, 91
2, 106344, Note_on_c, 1, 39, 0
2, 106368, Note_on_c, 1, 51, 101
2, 107008, Note_on_c, 1, 39, 101
2, 107024, Note_on_c, 1, 51, 0
2, 107480, Note_on_c, 1, 39, 0
2, 107520, Note_on_c, 1, 51, 101
2, 108160, Note_on_c, 1, 39, 96
2, 108232, Note_on_c, 1, 51, 0
2, 108264, Note_on_c, 1, 39, 0
2, 108288, Note_on_c, 1, 38, 80
2, 108544, Note_on_c, 1, 50, 96
2, 109280, Note_on_c, 1, 38, 0
2, 109408, Note_on_c, 1, 50, 0
2, 109440, Note_on_c, 1, 38, 86
2, 109816, Note_on_c, 1, 38, 0
2, 109824, Note_on_c, 1, 50, 84
2, 109856, Note_on_c, 1, 50, 0
2, 110080, Note_on_c, 1, 33, 81
2, 110120, Note_on_c, 1, 33, 0
2, 110208, Note_on_c, 1, 32, 81
2, 110528, Note_on_c, 1, 32, 0
2, 110592, Note_on_c, 1, 31, 76
2, 111232, Note_on_c, 1, 43, 101
2, 111664, Note_on_c, 1, 31, 0
2, 111744, Note_on_c, 1, 31, 98
2, 111784, Note_on_c, 1, 43, 0
2, 112384, Note_on_c, 1, 43, 101
2, 112664, Note_on_c, 1, 31, 0
2, 112896, Note_on_c, 1, 31, 88
2, 112904, Note_on_c, 1, 43, 0
2, 113536, Note_on_c, 1, 44, 101
2, 113800, Note_on_c, 1, 31, 0
2, 114048, Note_on_c, 1, 31, 101
2, 114088, Note_on_c, 1, 44, 0
2, 114688, Note_on_c, 1, 44, 101
2, 114952, Note_on_c, 1, 31, 0
2, 115200, Note_on_c, 1, 31, 98
2, 115216, Note_on_c, 1, 44, 0
2, 115840, Note_on_c, 1, 43, 101
2, 115984, Note_on_c, 1, 31, 0
2, 116352, Note_on_c, 1, 31, 86
2, 116368, Note_on_c, 1, 43, 0
2, 116992, Note_on_c, 1, 43, 99
2, 117096, Note_on_c, 1, 31, 0
2, 117248, Note_on_c, 1, 30, 86
2, 117280, Note_on_c, 1, 30, 0
2, 117280, Note_on_c, 1, 43, 0
2, 117376, Note_on_c, 1, 31, 84
2, 117472, Note_on_c, 1, 31, 0
2, 117504, Note_on_c, 1, 32, 101
2, 118144, Note_on_c, 1, 48, 96
2, 119240, Note_on_c, 1, 32, 0
2, 119296, Note_on_c, 1, 31, 65
2, 119344, Note_on_c, 1, 31, 0
2, 119376, Note_on_c, 1, 48, 0
2, 119424, Note_on_c, 1, 32, 93
2, 119776, Note_on_c, 1, 32, 0
2, 119808, Note_on_c, 1, 33, 63
2, 120192, Note_on_c, 1, 47, 89
2, 120256, Note_on_c, 1, 33, 0
2, 120520, Note_on_c, 1, 47, 0
2, 120576, Note_on_c, 1, 45, 76
2, 120928, Note_on_c, 1, 45, 0
2, 120960, Note_on_c, 1, 40, 67
2, 121216, Note_on_c, 1, 35, 72
2, 121256, Note_on_c, 1, 35, 0
2, 121344, Note_on_c, 1, 34, 64
2, 121696, Note_on_c, 1, 40, 0
2, 121704, Note_on_c, 1, 34, 0
2, 121728, Note_on_c, 1, 32, 84
2, 122080, Note_on_c, 1, 32, 0
2, 122112, Note_on_c, 1, 33, 79
2, 122752, Note_on_c, 1, 40, 67
2, 122752, Note_on_c, 1, 40, 0
2, 122880, Note_on_c, 1, 47, 101
2, 123200, Note_on_c, 1, 47, 0
2, 123264, Note_on_c, 1, 44, 100
2, 123320, Note_on_c, 1, 33, 0
2, 123904, Note_on_c, 1, 33, 93
2, 123904, Note_on_c, 1, 33, 0
2, 124160, Note_on_c, 1, 33, 96
2, 124192, Note_on_c, 1, 33, 0
2, 124248, Note_on_c, 1, 44, 0
2, 124288, Note_on_c, 1, 32, 84
2, 124360, Note_on_c, 1, 32, 0
2, 124416, Note_on_c, 1, 33, 86
2, 125056, Note_on_c, 1, 40, 53
2, 125104, Note_on_c, 1, 40, 0
2, 125184, Note_on_c, 1, 47, 101
2, 125768, Note_on_c, 1, 47, 0
2, 125824, Note_on_c, 1, 43, 84
2, 125872, Note_on_c, 1, 43, 0
2, 125952, Note_on_c, 1, 33, 0
2, 125952, Note_on_c, 1, 40, 75
2, 126320, Note_on_c, 1, 40, 0
2, 126336, Note_on_c, 1, 36, 52
2, 126568, Note_on_c, 1, 36, 0
2, 126592, Note_on_c, 1, 33, 101
2, 126664, Note_on_c, 1, 33, 0
2, 126720, Note_on_c, 1, 32, 84
2, 127104, Note_on_c, 1, 39, 70
2, 127120, Note_on_c, 1, 39, 0
2, 127488, Note_on_c, 1, 48, 101
2, 127904, Note_on_c, 1, 32, 0
2, 128128, Note_on_c, 1, 32, 52
2, 128136, Note_on_c, 1, 32, 0
2, 128256, Note_on_c, 1, 33, 63
2, 128304, Note_on_c, 1, 33, 0
2, 128512, Note_on_c, 1, 33, 101
2, 128576, Note_on_c, 1, 33, 0
2, 128616, Note_on_c, 1, 48, 0
2, 128640, Note_on_c, 1, 32, 86
2, 128872, Note_on_c, 1, 32, 0
2, 128896, Note_on_c, 1, 30, 69
2, 128968, Note_on_c, 1, 30, 0
2, 129024, Note_on_c, 1, 31, 68
2, 129408, Note_on_c, 1, 38, 84
2, 129440, Note_on_c, 1, 38, 0
2, 129664, Note_on_c, 1, 38, 63
2, 129672, Note_on_c, 1, 38, 0
2, 129792, Note_on_c, 1, 43, 87
2, 129992, Note_on_c, 1, 43, 0
2, 130048, Note_on_c, 1, 45, 70
2, 130096, Note_on_c, 1, 45, 0
2, 130176, Note_on_c, 1, 43, 77
2, 130512, Note_on_c, 1, 43, 0
2, 130528, Note_on_c, 1, 31, 0
2, 130560, Note_on_c, 1, 38, 63
2, 130816, Note_on_c, 1, 31, 91
2, 130848, Note_on_c, 1, 31, 0
2, 130888, Note_on_c, 1, 38, 0
2, 130944, Note_on_c, 1, 30, 75
2, 131288, Note_on_c, 1, 30, 0
2, 131328, Note_on_c, 1, 31, 72
2, 131584, Note_on_c, 1, 38, 58
2, 131608, Note_on_c, 1, 38, 0
2, 131616, Note_on_c, 1, 31, 0
2, 131712, Note_on_c, 1, 43, 64
2, 131760, Note_on_c, 1, 43, 0
2, 131840, Note_on_c, 1, 44, 72
2, 131888, Note_on_c, 1, 44, 0
2, 131968, Note_on_c, 1, 43, 60
2, 132008, Note_on_c, 1, 43, 0
2, 132096, Note_on_c, 1, 44, 75
2, 132096, Note_on_c, 1, 43, 74
2, 132104, Note_on_c, 1, 44, 0
2, 132848, Note_on_c, 1, 43, 0
2, 132864, Note_on_c, 1, 37, 80
2, 133624, Note_on_c, 1, 37, 0
2, 133632, Note_on_c, 1, 40, 79
2, 134016, Note_on_c, 1, 28, 96
2, 134096, Note_on_c, 1, 40, 0
2, 134656, Note_on_c, 1, 35, 63
2, 134672, Note_on_c, 1, 35, 0
2, 134784, Note_on_c, 1, 40, 89
2, 134792, Note_on_c, 1, 28, 0
2, 135152, Note_on_c, 1, 40, 0
2, 135168, Note_on_c, 1, 28, 98
2, 135808, Note_on_c, 1, 35, 100
2, 135816, Note_on_c, 1, 28, 0
2, 135832, Note_on_c, 1, 35, 0
2, 135936, Note_on_c, 1, 40, 57
2, 136320, Note_on_c, 1, 28, 101
2, 136320, Note_on_c, 1, 30, 72
2, 136360, Note_on_c, 1, 30, 0
2, 136960, Note_on_c, 1, 34, 101
2, 136968, Note_on_c, 1, 28, 0
2, 136968, Note_on_c, 1, 40, 0
2, 137040, Note_on_c, 1, 34, 0
2, 137088, Note_on_c, 1, 40, 75
2, 137448, Note_on_c, 1, 40, 0
2, 137472, Note_on_c, 1, 34, 94
2, 137960, Note_on_c, 1, 34, 0
2, 137984, Note_on_c, 1, 31, 84
2, 138048, Note_on_c, 1, 31, 0
2, 138112, Note_on_c, 1, 32, 101
2, 138184, Note_on_c, 1, 32, 0
2, 138240, Note_on_c, 1, 33, 96
2, 138624, Note_on_c, 1, 47, 96
2, 138960, Note_on_c, 1, 47, 0
2, 139008, Note_on_c, 1, 45, 79
2, 139360, Note_on_c, 1, 45, 0
2, 139384, Note_on_c, 1, 33, 0
2, 139392, Note_on_c, 1, 40, 74
2, 139776, Note_on_c, 1, 33, 79
2, 140128, Note_on_c, 1, 33, 0
2, 140160, Note_on_c, 1, 31, 65
2, 140232, Note_on_c, 1, 31, 0
2, 140416, Note_on_c, 1, 40, 0
2, 140416, Note_on_c, 1, 30, 82
2, 140504, Note_on_c, 1, 30, 0
2, 140544, Note_on_c, 1, 29, 70
2, 140928, Note_on_c, 1, 41, 76
2, 141312, Note_on_c, 1, 53, 98
2, 142024, Note_on_c, 1, 53, 0
2, 142080, Note_on_c, 1, 29, 0
2, 142080, Note_on_c, 1, 50, 87
2, 142592, Note_on_c, 1, 40, 69
2, 142592, Note_on_c, 1, 40, 0
2, 142640, Note_on_c, 1, 50, 0
2, 142648, Note_on_c, 1, 41, 0
2, 142720, Note_on_c, 1, 39, 62
2, 142808, Note_on_c, 1, 39, 0
2, 142848, Note_on_c, 1, 38, 82
2, 143232, Note_on_c, 1, 50, 101
2, 143688, Note_on_c, 1, 38, 0
2, 143872, Note_on_c, 1, 38, 93
2, 143872, Note_on_c, 1, 38, 0
2, 143872, Note_on_c, 1, 37, 64
2, 144000, Note_on_c, 1, 38, 101
2, 144008, Note_on_c, 1, 37, 0
2, 144104, Note_on_c, 1, 50, 0
2, 144384, Note_on_c, 1, 50, 101
2, 145000, Note_on_c, 1, 38, 0
2, 145024, Note_on_c, 1, 37, 80
2, 145080, Note_on_c, 1, 37, 0
2, 145152, Note_on_c, 1, 38, 80
2, 145216, Note_on_c, 1, 50, 0
2, 145536, Note_on_c, 1, 50, 101
2, 145896, Note_on_c, 1, 38, 0
2, 145912, Note_on_c, 1, 50, 0
2, 145920, Note_on_c, 1, 44, 82
2, 146304, Note_on_c, 1, 32, 86
2, 146368, Note_on_c, 1, 44, 0
2, 146560, Note_on_c, 1, 44, 20
2, 146632, Note_on_c, 1, 44, 0
2, 146688, Note_on_c, 1, 38, 75
2, 146720, Note_on_c, 1, 32, 0
2, 147072, Note_on_c, 1, 30, 88
2, 147080, Note_on_c, 1, 38, 0
2, 147432, Note_on_c, 1, 30, 0
2, 147456, Note_on_c, 1, 31, 94
2, 148224, Note_on_c, 1, 43, 86
2, 148280, Note_on_c, 1, 43, 0
2, 148480, Note_on_c, 1, 42, 69
2, 148512, Note_on_c, 1, 42, 0
2, 148608, Note_on_c, 1, 43, 72
2, 148616, Note_on_c, 1, 31, 0
2, 148992, Note_on_c, 1, 31, 72
2, 149016, Note_on_c, 1, 31, 0
2, 149376, Note_on_c, 1, 31, 79
2, 149464, Note_on_c, 1, 31, 0
2, 149632, Note_on_c, 1, 30, 74
2, 149680, Note_on_c, 1, 43, 0
2, 149688, Note_on_c, 1, 30, 0
2, 149760, Note_on_c, 1, 31, 75
2, 150144, Note_on_c, 1, 43, 101
2, 150328, Note_on_c, 1, 43, 0
2, 150400, Note_on_c, 1, 44, 80
2, 150464, Note_on_c, 1, 44, 0
2, 150528, Note_on_c, 1, 43, 63
2, 150536, Note_on_c, 1, 31, 0
2, 150784, Note_on_c, 1, 37, 101
2, 151288, Note_on_c, 1, 43, 0
2, 151296, Note_on_c, 1, 31, 76
2, 151328, Note_on_c, 1, 37, 0
2, 151592, Note_on_c, 1, 31, 0
2, 151680, Note_on_c, 1, 37, 72
2, 151936, Note_on_c, 1, 31, 75
2, 151952, Note_on_c, 1, 31, 0
2, 152024, Note_on_c, 1, 37, 0
2, 152064, Note_on_c, 1, 36, 88
2, 152632, Note_on_c, 1, 36, 0
2, 152704, Note_on_c, 1, 42, 96
2, 153088, Note_on_c, 1, 36, 62
2, 153120, Note_on_c, 1, 36, 0
2, 153184, Note_on_c, 1, 42, 0
2, 153216, Note_on_c, 1, 47, 77
2, 153600, Note_on_c, 1, 36, 62
2, 153600, Note_on_c, 1, 36, 0
2, 153632, Note_on_c, 1, 47, 0
2, 153984, Note_on_c, 1, 35, 74
2, 154336, Note_on_c, 1, 35, 0
2, 154368, Note_on_c, 1, 36, 84
2, 154624, Note_on_c, 1, 43, 48
2, 154656, Note_on_c, 1, 43, 0
2, 154752, Note_on_c, 1, 48, 101
2, 155096, Note_on_c, 1, 48, 0
2, 155112, Note_on_c, 1, 36, 0
2, 155136, Note_on_c, 1, 42, 88
2, 155896, Note_on_c, 1, 42, 0
2, 155904, Note_on_c, 1, 40, 82
2, 156160, Note_on_c, 1, 36, 87
2, 156160, Note_on_c, 1, 36, 0
2, 156224, Note_on_c, 1, 40, 0
2, 156288, Note_on_c, 1, 41, 84
2, 156544, Note_on_c, 1, 36, 70
2, 156544, Note_on_c, 1, 36, 0
2, 156616, Note_on_c, 1, 41, 0
2, 156672, Note_on_c, 1, 38, 96
2, 157056, Note_on_c, 1, 50, 101
2, 157864, Note_on_c, 1, 38, 0
2, 158080, Note_on_c, 1, 38, 99
2, 158080, Note_on_c, 1, 38, 0
2, 158208, Note_on_c, 1, 38, 99
2, 158224, Note_on_c, 1, 38, 0
2, 158464, Note_on_c, 1, 38, 96
2, 158464, Note_on_c, 1, 38, 0
2, 158592, Note_on_c, 1, 38, 96
2, 158592, Note_on_c, 1, 38, 0
2, 158624, Note_on_c, 1, 50, 0
2, 158848, Note_on_c, 1, 37, 74
2, 158896, Note_on_c, 1, 37, 0
2, 158976, Note_on_c, 1, 38, 79
2, 159360, Note_on_c, 1, 50, 101
2, 159824, Note_on_c, 1, 38, 0
2, 160128, Note_on_c, 1, 38, 84
2, 160512, Note_on_c, 1, 42, 101
2, 160520, Note_on_c, 1, 50, 0
2, 160824, Note_on_c, 1, 38, 0
2, 160896, Note_on_c, 1, 38, 72
2, 161232, Note_on_c, 1, 38, 0
2, 161280, Note_on_c, 1, 38, 77
2, 161336, Note_on_c, 1, 42, 0
2, 161664, Note_on_c, 1, 43, 94
2, 162120, Note_on_c, 1, 38, 0
2, 162304, Note_on_c, 1, 38, 82
2, 162304, Note_on_c, 1, 38, 0
2, 162432, Note_on_c, 1, 38, 74
2, 162440, Note_on_c, 1, 38, 0
2, 162688, Note_on_c, 1, 37, 81
2, 162712, Note_on_c, 1, 37, 0
2, 162728, Note_on_c, 1, 43, 0
2, 162816, Note_on_c, 1, 38, 79
2, 163192, Note_on_c, 1, 38, 0
2, 163200, Note_on_c, 1, 43, 93
2, 163456, Note_on_c, 1, 39, 72
2, 163464, Note_on_c, 1, 39, 0
2, 163464, Note_on_c, 1, 43, 0
2, 163584, Note_on_c, 1, 40, 91
2, 163968, Note_on_c, 1, 52, 101
2, 164896, Note_on_c, 1, 52, 0
2, 164992, Note_on_c, 1, 47, 100
2, 165032, Note_on_c, 1, 47, 0
2, 165056, Note_on_c, 1, 40, 0
2, 165120, Note_on_c, 1, 45, 68
2, 165376, Note_on_c, 1, 40, 50
2, 165384, Note_on_c, 1, 40, 0
2, 165456, Note_on_c, 1, 45, 0
2, 165504, Note_on_c, 1, 44, 63
2, 165760, Note_on_c, 1, 39, 75
2, 165768, Note_on_c, 1, 44, 0
2, 165824, Note_on_c, 1, 39, 0
2, 165888, Note_on_c, 1, 40, 88
2, 166272, Note_on_c, 1, 40, 0
2, 166272, Note_on_c, 1, 39, 86
2, 166656, Note_on_c, 1, 51, 93
2, 166944, Note_on_c, 1, 51, 0
2, 167040, Note_on_c, 1, 51, 91
2, 167056, Note_on_c, 1, 39, 0
2, 167680, Note_on_c, 1, 39, 76
2, 167720, Note_on_c, 1, 39, 0
2, 167936, Note_on_c, 1, 36, 77
2, 167992, Note_on_c, 1, 36, 0
2, 168064, Note_on_c, 1, 37, 74
2, 168136, Note_on_c, 1, 37, 0
2, 168192, Note_on_c, 1, 38, 91
2, 168208, Note_on_c, 1, 51, 0
2, 168576, Note_on_c, 1, 50, 88
2, 169056, Note_on_c, 1, 38, 0
2, 169216, Note_on_c, 1, 37, 79
2, 169280, Note_on_c, 1, 37, 0
2, 169344, Note_on_c, 1, 38, 87
2, 169456, Note_on_c, 1, 50, 0
2, 169728, Note_on_c, 1, 50, 87
2, 169888, Note_on_c, 1, 38, 0
2, 169976, Note_on_c, 1, 50, 0
2, 169984, Note_on_c, 1, 33, 74
2, 170008, Note_on_c, 1, 33, 0
2, 170112, Note_on_c, 1, 32, 84
2, 170464, Note_on_c, 1, 32, 0
2, 170496, Note_on_c, 1, 31, 79
2, 171136, Note_on_c, 1, 38, 80
2, 171200, Note_on_c, 1, 31, 0
2, 171520, Note_on_c, 1, 32, 48
2, 171560, Note_on_c, 1, 32, 0
2, 171632, Note_on_c, 1, 38, 0
2, 171648, Note_on_c, 1, 43, 76
2, 172288, Note_on_c, 1, 38, 87
2, 172296, Note_on_c, 1, 38, 0
2, 172416, Note_on_c, 1, 31, 88
2, 172760, Note_on_c, 1, 31, 0
2, 172800, Note_on_c, 1, 32, 101
2, 173248, Note_on_c, 1, 43, 0
2, 173440, Note_on_c, 1, 38, 101
2, 173952, Note_on_c, 1, 44, 99
2, 174240, Note_on_c, 1, 32, 0
2, 174280, Note_on_c, 1, 38, 0
2, 174336, Note_on_c, 1, 32, 72
2, 174376, Note_on_c, 1, 32, 0
2, 174720, Note_on_c, 1, 30, 96
2, 175048, Note_on_c, 1, 30, 0
2, 175104, Note_on_c, 1, 31, 91
2, 175112, Note_on_c, 1, 44, 0
2, 175744, Note_on_c, 1, 38, 101
2, 176256, Note_on_c, 1, 43, 101
2, 176648, Note_on_c, 1, 31, 0
2, 176696, Note_on_c, 1, 38, 0
2, 176896, Note_on_c, 1, 38, 81
2, 176904, Note_on_c, 1, 38, 0
2, 177024, Note_on_c, 1, 31, 84
2, 177344, Note_on_c, 1, 31, 0
2, 177344, Note_on_c, 1, 43, 0
2, 177408, Note_on_c, 1, 32, 99
2, 178048, Note_on_c, 1, 39, 101
2, 178816, Note_on_c, 1, 48, 101
2, 178992, Note_on_c, 1, 39, 0
2, 179176, Note_on_c, 1, 32, 0
2, 179200, Note_on_c, 1, 44, 93
2, 179216, Note_on_c, 1, 48, 0
2, 179224, Note_on_c, 1, 44, 0
2, 179328, Note_on_c, 1, 35, 81
2, 179424, Note_on_c, 1, 35, 0
2, 179584, Note_on_c, 1, 34, 86
2, 179672, Note_on_c, 1, 34, 0
2, 179712, Note_on_c, 1, 33, 70
2, 180352, Note_on_c, 1, 40, 77
2, 180400, Note_on_c, 1, 40, 0
2, 180480, Note_on_c, 1, 47, 76
2, 180496, Note_on_c, 1, 33, 0
2, 180520, Note_on_c, 1, 47, 0
2, 180736, Note_on_c, 1, 46, 79
2, 180800, Note_on_c, 1, 46, 0
2, 180864, Note_on_c, 1, 45, 72
2, 181200, Note_on_c, 1, 45, 0
2, 181248, Note_on_c, 1, 40, 63
2, 181632, Note_on_c, 1, 33, 72
2, 181680, Note_on_c, 1, 33, 0
2, 181888, Note_on_c, 1, 32, 75
2, 181952, Note_on_c, 1, 32, 0
2, 181984, Note_on_c, 1, 40, 0
2, 182016, Note_on_c, 1, 33, 87
2, 182656, Note_on_c, 1, 44, 81
2, 182664, Note_on_c, 1, 44, 0
2, 182784, Note_on_c, 1, 47, 101
2, 182784, Note_on_c, 1, 47, 0
2, 183040, Note_on_c, 1, 44, 94
2, 183280, Note_on_c, 1, 33, 0
2, 183680, Note_on_c, 1, 44, 0
2, 183680, Note_on_c, 1, 39, 72
2, 183688, Note_on_c, 1, 39, 0
2, 183808, Note_on_c, 1, 33, 87
2, 183840, Note_on_c, 1, 33, 0
2, 183936, Note_on_c, 1, 32, 84
2, 184296, Note_on_c, 1, 32, 0
2, 184320, Note_on_c, 1, 33, 79
2, 184960, Note_on_c, 1, 40, 55
2, 184976, Note_on_c, 1, 40, 0
2, 185088, Note_on_c, 1, 47, 92
2, 185096, Note_on_c, 1, 47, 0
2, 185344, Note_on_c, 1, 43, 101
2, 185424, Note_on_c, 1, 43, 0
2, 185472, Note_on_c, 1, 40, 82
2, 185856, Note_on_c, 1, 36, 79
2, 185888, Note_on_c, 1, 33, 0
2, 186240, Note_on_c, 1, 32, 93
2, 186344, Note_on_c, 1, 32, 0
2, 186496, Note_on_c, 1, 33, 84
2, 186544, Note_on_c, 1, 33, 0
2, 186568, Note_on_c, 1, 36, 0
2, 186576, Note_on_c, 1, 40, 0
2, 186624, Note_on_c, 1, 32, 87
2, 187264, Note_on_c, 1, 39, 101
2, 188032, Note_on_c, 1, 47, 101
2, 188272, Note_on_c, 1, 32, 0
2, 188416, Note_on_c, 1, 32, 63
2, 188496, Note_on_c, 1, 32, 0
2, 188504, Note_on_c, 1, 47, 0
2, 188512, Note_on_c, 1, 39, 0
2, 188544, Note_on_c, 1, 46, 75
2, 188576, Note_on_c, 1, 46, 0
2, 188800, Note_on_c, 1, 44, 99
2, 188856, Note_on_c, 1, 44, 0
2, 188928, Note_on_c, 1, 43, 57
2, 189184, Note_on_c, 1, 38, 84
2, 189216, Note_on_c, 1, 38, 0
2, 189216, Note_on_c, 1, 43, 0
2, 189312, Note_on_c, 1, 31, 87
2, 189952, Note_on_c, 1, 38, 60
2, 189960, Note_on_c, 1, 38, 0
2, 190080, Note_on_c, 1, 43, 84
2, 190328, Note_on_c, 1, 43, 0
2, 190464, Note_on_c, 1, 43, 72
2, 190472, Note_on_c, 1, 31, 0
2, 190848, Note_on_c, 1, 30, 74
2, 190912, Note_on_c, 1, 43, 0
2, 191208, Note_on_c, 1, 30, 0
2, 191232, Note_on_c, 1, 31, 99
2, 192120, Note_on_c, 1, 31, 0
2, 192384, Note_on_c, 1, 31, 84
2, 192384, Note_on_c, 1, 29, 76
2, 192424, Note_on_c, 1, 29, 0
2, 192608, Pitch_bend_c, 1, 8192
2, 192608, Pitch_bend_c, 1, 8192
2, 192616, Pitch_bend_c, 1, 8842
2, 192616, Pitch_bend_c, 1, 9232
2, 192624, Pitch_bend_c, 1, 9752
2, 192632, Pitch_bend_c, 1, 10142
2, 192632, Pitch_bend_c, 1, 10532
2, 192640, Pitch_bend_c, 1, 10922
2, 192640, Pitch_bend_c, 1, 11442
2, 192640, Pitch_bend_c, 1, 11832
2, 192640, Pitch_bend_c, 1, 12092
2, 192640, Pitch_bend_c, 1, 12352
2, 192640, Pitch_bend_c, 1, 12612
2, 192640, Pitch_bend_c, 1, 12742
2, 192640, Pitch_bend_c, 1, 12872
2, 192640, Pitch_bend_c, 1, 12612
2, 192704, Pitch_bend_c, 1, 12352
2, 192704, Pitch_bend_c, 1, 12092
2, 192712, Pitch_bend_c, 1, 11832
2, 192712, Pitch_bend_c, 1, 11442
2, 192720, Pitch_bend_c, 1, 11052
2, 192728, Pitch_bend_c, 1, 10662
2, 192728, Pitch_bend_c, 1, 10142
2, 192736, Pitch_bend_c, 1, 9752
2, 192736, Pitch_bend_c, 1, 9102
2, 192744, Pitch_bend_c, 1, 8192
2, 192744, Pitch_bend_c, 1, 8192
2, 192768, Pitch_bend_c, 1, 8192
2, 192768, Pitch_bend_c, 1, 7680
2, 192768, Pitch_bend_c, 1, 7552
2, 192768, Pitch_bend_c, 1, 7424
2, 192832, Pitch_bend_c, 1, 7552
2, 192840, Pitch_bend_c, 1, 8192
2, 192848, Pitch_bend_c, 1, 8192
2, 192848, Pitch_bend_c, 1, 8192
2, 192848, Pitch_bend_c, 1, 8192
2, 193144, Note_on_c, 1, 31, 0
2, 193152, Note_on_c, 1, 37, 86
2, 193408, Note_on_c, 1, 33, 72
2, 193424, Note_on_c, 1, 33, 0
2, 193496, Note_on_c, 1, 37, 0
2, 193536, Note_on_c, 1, 40, 91
2, 193920, Note_on_c, 1, 28, 67
2, 194024, Note_on_c, 1, 40, 0
2, 194176, Note_on_c, 1, 35, 55
2, 194232, Note_on_c, 1, 35, 0
2, 194304, Note_on_c, 1, 52, 101
2, 195072, Note_on_c, 1, 40, 65
2, 195416, Note_on_c, 1, 28, 0
2, 195456, Note_on_c, 1, 35, 75
2, 195496, Note_on_c, 1, 35, 0
2, 195712, Note_on_c, 1, 35, 88
2, 195808, Note_on_c, 1, 35, 0
2, 195808, Note_on_c, 1, 40, 0
2, 195840, Note_on_c, 1, 52, 0
2, 195840, Note_on_c, 1, 28, 88
2, 196224, Note_on_c, 1, 40, 101
2, 196600, Note_on_c, 1, 28, 0
2, 196608, Note_on_c, 1, 52, 101
2, 197248, Note_on_c, 1, 46, 101
2, 197256, Note_on_c, 1, 52, 0
2, 197632, Note_on_c, 1, 40, 0
2, 197632, Note_on_c, 1, 34, 65
2, 197664, Note_on_c, 1, 34, 0
2, 197760, Note_on_c, 1, 32, 84
2, 198048, Note_on_c, 1, 46, 0
2, 198104, Note_on_c, 1, 32, 0
2, 198144, Note_on_c, 1, 33, 79
2, 198760, Note_on_c, 1, 33, 0
2, 198784, Note_on_c, 1, 40, 65
2, 198784, Note_on_c, 1, 40, 0
2, 198912, Note_on_c, 1, 45, 101
2, 198992, Note_on_c, 1, 45, 0
2, 199040, Note_on_c, 1, 47, 79
2, 199128, Note_on_c, 1, 47, 0
2, 199168, Note_on_c, 1, 45, 79
2, 199232, Note_on_c, 1, 45, 0
2, 199296, Note_on_c, 1, 47, 81
2, 199320, Note_on_c, 1, 47, 0
2, 199424, Note_on_c, 1, 45, 60
2, 199656, Note_on_c, 1, 45, 0
2, 199680, Note_on_c, 1, 40, 86
2, 200144, Note_on_c, 1, 40, 0
2, 200320, Note_on_c, 1, 31, 98
2, 200320, Note_on_c, 1, 30, 96
2, 200352, Note_on_c, 1, 31, 0
2, 200432, Note_on_c, 1, 30, 0
2, 200448, Note_on_c, 1, 29, 91
2, 200832, Note_on_c, 1, 41, 93
2, 201168, Note_on_c, 1, 41, 0
2, 201216, Note_on_c, 1, 50, 99
2, 201472, Note_on_c, 1, 30, 53
2, 201520, Note_on_c, 1, 50, 0
2, 201536, Note_on_c, 1, 30, 0
2, 201552, Note_on_c, 1, 29, 0
2, 201600, Note_on_c, 1, 48, 94
2, 201976, Note_on_c, 1, 48, 0
2, 201984, Note_on_c, 1, 41, 77
2, 202240, Note_on_c, 1, 40, 76
2, 202240, Note_on_c, 1, 38, 79
2, 202264, Note_on_c, 1, 38, 0
2, 202272, Note_on_c, 1, 40, 0
2, 202296, Note_on_c, 1, 41, 0
2, 202368, Note_on_c, 1, 39, 82
2, 202712, Note_on_c, 1, 39, 0
2, 202752, Note_on_c, 1, 38, 76
2, 203136, Note_on_c, 1, 50, 101
2, 203632, Note_on_c, 1, 38, 0
2, 203776, Note_on_c, 1, 38, 100
2, 203800, Note_on_c, 1, 38, 0
2, 203904, Note_on_c, 1, 37, 82
2, 203904, Note_on_c, 1, 37, 0
2, 203904, Note_on_c, 1, 38, 101
2, 203952, Note_on_c, 1, 50, 0
2, 204288, Note_on_c, 1, 50, 101
2, 204920, Note_on_c, 1, 38, 0
2, 204928, Note_on_c, 1, 37, 84
2, 204976, Note_on_c, 1, 50, 0
2, 205008, Note_on_c, 1, 37, 0
2, 205056, Note_on_c, 1, 38, 82
2, 205440, Note_on_c, 1, 50, 101
2, 206056, Note_on_c, 1, 38, 0
2, 206080, Note_on_c, 1, 37, 80
2, 206136, Note_on_c, 1, 37, 0
2, 206208, Note_on_c, 1, 38, 88
2, 206352, Note_on_c, 1, 50, 0
2, 206464, Note_on_c, 1, 49, 56
2, 206496, Note_on_c, 1, 49, 0
2, 206592, Note_on_c, 1, 50, 101
2, 207016, Note_on_c, 1, 38, 0
2, 207104, Note_on_c, 1, 44, 89
2, 207112, Note_on_c, 1, 50, 0
2, 207128, Note_on_c, 1, 44, 0
2, 207232, Note_on_c, 1, 32, 79
2, 207296, Note_on_c, 1, 32, 0
2, 207360, Note_on_c, 1, 31, 96
2, 208112, Note_on_c, 1, 31, 0
2, 208128, Note_on_c, 1, 43, 100
2, 208896, Note_on_c, 1, 31, 84
2, 208944, Note_on_c, 1, 31, 0
2, 209152, Note_on_c, 1, 30, 80
2, 209208, Note_on_c, 1, 30, 0
2, 209280, Note_on_c, 1, 31, 80
2, 209488, Note_on_c, 1, 31, 0
2, 209536, Note_on_c, 1, 30, 80
2, 209576, Note_on_c, 1, 43, 0
2, 209592, Note_on_c, 1, 30, 0
2, 209664, Note_on_c, 1, 31, 82
2, 209984, Note_on_c, 1, 31, 0
2, 210048, Note_on_c, 1, 43, 101
2, 210176, Pitch_bend_c, 1, 8192
2, 210176, Pitch_bend_c, 1, 8192
2, 210248, Pitch_bend_c, 1, 8192
2, 210272, Pitch_bend_c, 1, 8192
2, 210280, Pitch_bend_c, 1, 8192
2, 210288, Pitch_bend_c, 1, 8192
2, 210304, Pitch_bend_c, 1, 8192
2, 210304, Pitch_bend_c, 1, 8192
2, 210304, Pitch_bend_c, 1, 8712
2, 210304, Pitch_bend_c, 1, 9102
2, 210304, Pitch_bend_c, 1, 9362
2, 210304, Pitch_bend_c, 1, 9752
2, 210368, Pitch_bend_c, 1, 10012
2, 210376, Pitch_bend_c, 1, 10402
2, 210376, Pitch_bend_c, 1, 10662
2, 210384, Pitch_bend_c, 1, 10922
2, 210384, Pitch_bend_c, 1, 11312
2, 210392, Pitch_bend_c, 1, 11572
2, 210392, Pitch_bend_c, 1, 11702
2, 210408, Pitch_bend_c, 1, 11962
2, 210416, Pitch_bend_c, 1, 12092
2, 210432, Pitch_bend_c, 1, 11962
2, 210432, Pitch_bend_c, 1, 11832
2, 210432, Pitch_bend_c, 1, 11702
2, 210432, Pitch_bend_c, 1, 11442
2, 210432, Pitch_bend_c, 1, 11312
2, 210432, Pitch_bend_c, 1, 10922
2, 210432, Pitch_bend_c, 1, 10662
2, 210432, Pitch_bend_c, 1, 10402
2, 210432, Pitch_bend_c, 1, 10142
2, 210496, Pitch_bend_c, 1, 9882
2, 210496, Pitch_bend_c, 1, 9622
2, 210504, Pitch_bend_c, 1, 9362
2, 210504, Pitch_bend_c, 1, 9102
2, 210512, Pitch_bend_c, 1, 8842
2, 210512, Pitch_bend_c, 1, 8192
2, 210520, Pitch_bend_c, 1, 8192
2, 210528, Pitch_bend_c, 1, 8192
2, 210560, Pitch_bend_c, 1, 8192
2, 210560, Pitch_bend_c, 1, 8192
2, 210560, Pitch_bend_c, 1, 8192
2, 210560, Pitch_bend_c, 1, 8712
2, 210560, Pitch_bend_c, 1, 9102
2, 210560, Pitch_bend_c, 1, 9362
2, 210624, Pitch_bend_c, 1, 9752
2, 210632, Pitch_bend_c, 1, 10012
2, 210632, Pitch_bend_c, 1, 10272
2, 210640, Pitch_bend_c, 1, 10402
2, 210640, Pitch_bend_c, 1, 10662
2, 210648, Pitch_bend_c, 1, 10792
2, 210656, Pitch_bend_c, 1, 10922
2, 210688, Pitch_bend_c, 1, 10792
2, 210688, Pitch_bend_c, 1, 10532
2, 210688, Pitch_bend_c, 1, 10272
2, 210688, Pitch_bend_c, 1, 10012
2, 210688, Pitch_bend_c, 1, 9752
2, 210688, Pitch_bend_c, 1, 9362
2, 210688, Pitch_bend_c, 1, 9102
2, 210688, Pitch_bend_c, 1, 8712
2, 210688, Pitch_bend_c, 1, 8192
2, 210688, Pitch_bend_c, 1, 8192
2, 211456, Note_on_c, 1, 38, 64
2, 211472, Note_on_c, 1, 38, 0
2, 211584, Note_on_c, 1, 35, 77
2, 211912, Note_on_c, 1, 35, 0
2, 211952, Note_on_c, 1, 43, 0
2, 211968, Note_on_c, 1, 36, 81
2, 212352, Note_on_c, 1, 52, 94
2, 213048, Note_on_c, 1, 52, 0
2, 213120, Note_on_c, 1, 47, 84
2, 213128, Note_on_c, 1, 47, 0
2, 213376, Note_on_c, 1, 43, 55
2, 213432, Note_on_c, 1, 43, 0
2, 213464, Note_on_c, 1, 36, 0
2, 213504, Note_on_c, 1, 40, 75
2, 214656, Note_on_c, 1, 31, 100
2, 215040, Note_on_c, 1, 31, 0
2, 215040, Note_on_c, 1, 30, 96
2, 215056, Note_on_c, 1, 40, 0
2, 215416, Note_on_c, 1, 30, 0
2, 215424, Note_on_c, 1, 29, 84
2, 215808, Note_on_c, 1, 40, 91
2, 215848, Note_on_c, 1, 29, 0
2, 216064, Note_on_c, 1, 31, 62
2, 216144, Note_on_c, 1, 31, 0
2, 216184, Note_on_c, 1, 40, 0
2, 216192, Note_on_c, 1, 39, 88
2, 216560, Note_on_c, 1, 39, 0
2, 216576, Note_on_c, 1, 38, 84
2, 216960, Note_on_c, 1, 50, 101
2, 217592, Note_on_c, 1, 38, 0
2, 218112, Note_on_c, 1, 38, 74
2, 218144, Note_on_c, 1, 38, 0
2, 218496, Note_on_c, 1, 38, 74
2, 218552, Note_on_c, 1, 38, 0
2, 218752, Note_on_c, 1, 37, 69
2, 218800, Note_on_c, 1, 50, 0
2, 218824, Note_on_c, 1, 37, 0
2, 218880, Note_on_c, 1, 38, 79
2, 219264, Note_on_c, 1, 50, 101
2, 219928, Note_on_c, 1, 38, 0
2, 220032, Note_on_c, 1, 38, 87
2, 220104, Note_on_c, 1, 50, 0
2, 220416, Note_on_c, 1, 49, 101
2, 220928, Note_on_c, 1, 46, 84
2, 220960, Note_on_c, 1, 38, 0
2, 221008, Note_on_c, 1, 49, 0
2, 221056, Note_on_c, 1, 46, 0
2, 221056, Note_on_c, 1, 42, 77
2, 221096, Note_on_c, 1, 42, 0
2, 221184, Note_on_c, 1, 38, 96
2, 221568, Note_on_c, 1, 43, 101
2, 222208, Note_on_c, 1, 50, 101
2, 222224, Note_on_c, 1, 43, 0
2, 222336, Note_on_c, 1, 43, 40
2, 222648, Note_on_c, 1, 50, 0
2, 222680, Note_on_c, 1, 43, 0
2, 222720, Note_on_c, 1, 47, 79
2, 223088, Note_on_c, 1, 47, 0
2, 223104, Note_on_c, 1, 38, 0
2, 223104, Note_on_c, 1, 43, 72
2, 223360, Note_on_c, 1, 39, 80
2, 223424, Note_on_c, 1, 39, 0
2, 223440, Note_on_c, 1, 43, 0
2, 223488, Note_on_c, 1, 40, 82
2, 224128, Note_on_c, 1, 53, 101
2, 224568, Note_on_c, 1, 53, 0
2, 224608, Note_on_c, 1, 40, 0
2, 224640, Note_on_c, 1, 52, 98
2, 225024, Note_on_c, 1, 44, 65
2, 225408, Note_on_c, 1, 40, 82
2, 225784, Note_on_c, 1, 40, 0
2, 225792, Note_on_c, 1, 52, 0
2, 225792, Note_on_c, 1, 39, 96
2, 225808, Note_on_c, 1, 44, 0
2, 226432, Note_on_c, 1, 51, 101
2, 226824, Note_on_c, 1, 39, 0
2, 226944, Note_on_c, 1, 39, 99
2, 226952, Note_on_c, 1, 51, 0
2, 227584, Note_on_c, 1, 51, 101
2, 227744, Note_on_c, 1, 39, 0
2, 227968, Note_on_c, 1, 39, 60
2, 228032, Note_on_c, 1, 51, 0
2, 228064, Note_on_c, 1, 39, 0
2, 228096, Note_on_c, 1, 38, 96
2, 228736, Note_on_c, 1, 50, 101
2, 229192, Note_on_c, 1, 50, 0
2, 229248, Note_on_c, 1, 44, 101
2, 229864, Note_on_c, 1, 38, 0
2, 229888, Note_on_c, 1, 32, 101
2, 230352, Note_on_c, 1, 44, 0
2, 230368, Note_on_c, 1, 32, 0
2, 230400, Note_on_c, 1, 31, 69
2, 231040, Note_on_c, 1, 38, 69
2, 231048, Note_on_c, 1, 38, 0
2, 231168, Note_on_c, 1, 43, 52
2, 231376, Note_on_c, 1, 43, 0
2, 231424, Note_on_c, 1, 42, 60
2, 231464, Note_on_c, 1, 42, 0
2, 231536, Note_on_c, 1, 31, 0
2, 231552, Note_on_c, 1, 43, 69
2, 231936, Note_on_c, 1, 31, 72
2, 231968, Note_on_c, 1, 31, 0
2, 232320, Note_on_c, 1, 31, 77
2, 232504, Note_on_c, 1, 31, 0
2, 232576, Note_on_c, 1, 30, 63
2, 232624, Note_on_c, 1, 30, 0
2, 232704, Note_on_c, 1, 31, 89
2, 233184, Note_on_c, 1, 43, 0
2, 233344, Note_on_c, 1, 38, 99
2, 233472, Note_on_c, 1, 44, 93
2, 233560, Note_on_c, 1, 31, 0
2, 233728, Note_on_c, 1, 46, 87
2, 233760, Note_on_c, 1, 44, 0
2, 233848, Note_on_c, 1, 46, 0
2, 233856, Note_on_c, 1, 44, 76
2, 233936, Note_on_c, 1, 38, 0
2, 234112, Note_on_c, 1, 38, 93
2, 234152, Note_on_c, 1, 38, 0
2, 234496, Note_on_c, 1, 38, 101
2, 234880, Note_on_c, 1, 31, 88
2, 234928, Note_on_c, 1, 31, 0
2, 234984, Note_on_c, 1, 44, 0
2, 235008, Note_on_c, 1, 31, 84
2, 235016, Note_on_c, 1, 38, 0
2, 235648, Note_on_c, 1, 38, 87
2, 235648, Note_on_c, 1, 38, 0
2, 235776, Note_on_c, 1, 43, 64
2, 236016, Note_on_c, 1, 43, 0
2, 236032, Note_on_c, 1, 45, 72
2, 236104, Note_on_c, 1, 45, 0
2, 236160, Note_on_c, 1, 43, 65
2, 236416, Note_on_c, 1, 38, 86
2, 236448, Note_on_c, 1, 38, 0
2, 236448, Note_on_c, 1, 31, 0
2, 236544, Note_on_c, 1, 31, 58
2, 236864, Note_on_c, 1, 31, 0
2, 236928, Note_on_c, 1, 31, 79
2, 237496, Note_on_c, 1, 43, 0
2, 237696, Note_on_c, 1, 44, 101
2, 237920, Note_on_c, 1, 44, 0
2, 237952, Note_on_c, 1, 46, 75
2, 238008, Note_on_c, 1, 46, 0
2, 238080, Note_on_c, 1, 44, 64
2, 238288, Note_on_c, 1, 31, 0
2, 238464, Note_on_c, 1, 31, 82
2, 238864, Note_on_c, 1, 44, 0
2, 239104, Note_on_c, 1, 46, 101
2, 239176, Note_on_c, 1, 46, 0
2, 239224, Note_on_c, 1, 31, 0
2, 239232, Note_on_c, 1, 44, 76
2, 239488, Note_on_c, 1, 30, 76
2, 239552, Note_on_c, 1, 30, 0
2, 239560, Note_on_c, 1, 44, 0
2, 239616, Note_on_c, 1, 31, 87
2, 240000, Note_on_c, 1, 43, 84
2, 240208, Note_on_c, 1, 43, 0
2, 240256, Note_on_c, 1, 42, 53
2, 240272, Note_on_c, 1, 42, 0
2, 240384, Note_on_c, 1, 43, 75
2, 240616, Note_on_c, 1, 31, 0
2, 240720, Note_on_c, 1, 43, 0
2, 240768, Note_on_c, 1, 31, 82
2, 241408, Note_on_c, 1, 50, 101
2, 241536, Note_on_c, 1, 43, 76
2, 241560, Note_on_c, 1, 50, 0
2, 241584, Note_on_c, 1, 31, 0
2, 241912, Note_on_c, 1, 43, 0
2, 241920, Note_on_c, 1, 31, 93
2, 242304, Note_on_c, 1, 44, 101
2, 242528, Note_on_c, 1, 44, 0
2, 242560, Note_on_c, 1, 46, 67
2, 242656, Note_on_c, 1, 46, 0
2, 242688, Note_on_c, 1, 44, 74
2, 242760, Note_on_c, 1, 31, 0
2, 242944, Note_on_c, 1, 31, 99
2, 243000, Note_on_c, 1, 31, 0
2, 243072, Note_on_c, 1, 31, 88
2, 243312, Note_on_c, 1, 44, 0
2, 243584, Note_on_c, 1, 44, 101
2, 243672, Note_on_c, 1, 44, 0
2, 243712, Note_on_c, 1, 46, 87
2, 243792, Note_on_c, 1, 46, 0
2, 243840, Note_on_c, 1, 44, 101
2, 243952, Note_on_c, 1, 31, 0
2, 244096, Note_on_c, 1, 31, 101
2, 244176, Note_on_c, 1, 31, 0
2, 244200, Note_on_c, 1, 44, 0
2, 244224, Note_on_c, 1, 31, 101
2, 244608, Note_on_c, 1, 43, 82
2, 244856, Note_on_c, 1, 43, 0
2, 244864, Note_on_c, 1, 50, 91
2, 244976, Note_on_c, 1, 50, 0
2, 244992, Note_on_c, 1, 43, 67
2, 245288, Note_on_c, 1, 31, 0
2, 245376, Note_on_c, 1, 31, 81
2, 245712, Note_on_c, 1, 43, 0
2, 245888, Note_on_c, 1, 43, 74
2, 245920, Note_on_c, 1, 43, 0
2, 246016, Note_on_c, 1, 50, 101
2, 246080, Note_on_c, 1, 50, 0
2, 246144, Note_on_c, 1, 43, 96
2, 246208, Note_on_c, 1, 31, 0
2, 246400, Note_on_c, 1, 31, 101
2, 246472, Note_on_c, 1, 31, 0
2, 246528, Note_on_c, 1, 31, 101
2, 246568, Note_on_c, 1, 43, 0
2, 246912, Note_on_c, 1, 44, 101
2, 247120, Note_on_c, 1, 44, 0
2, 247168, Note_on_c, 1, 50, 101
2, 247296, Note_on_c, 1, 46, 72
2, 247360, Note_on_c, 1, 31, 0
2, 247552, Note_on_c, 1, 31, 101
2, 247968, Note_on_c, 1, 50, 0
2, 248048, Note_on_c, 1, 46, 0
2, 248064, Note_on_c, 1, 44, 77
2, 248144, Note_on_c, 1, 31, 0
2, 248320, Note_on_c, 1, 31, 82
2, 248352, Note_on_c, 1, 44, 0
2, 248448, Note_on_c, 1, 41, 77
2, 248512, Note_on_c, 1, 31, 0
2, 248704, Note_on_c, 1, 31, 101
2, 248736, Note_on_c, 1, 41, 0
2, 248832, Note_on_c, 1, 43, 58
2, 248968, Note_on_c, 1, 31, 0
2, 249168, Note_on_c, 1, 43, 0
2, 249216, Note_on_c, 1, 43, 72
2, 249440, Note_on_c, 1, 43, 0
2, 249472, Note_on_c, 1, 31, 93
2, 249984, Note_on_c, 1, 43, 69
2, 250032, Note_on_c, 1, 31, 0
2, 250240, Note_on_c, 1, 31, 94
2, 250320, Note_on_c, 1, 43, 0
2, 250752, Note_on_c, 1, 43, 67
2, 250792, Note_on_c, 1, 31, 0
2, 250984, Note_on_c, 1, 43, 0
2, 251008, Note_on_c, 1, 31, 91
2, 251136, Note_on_c, 1, 44, 75
2, 251176, Note_on_c, 1, 31, 0
2, 251392, Note_on_c, 1, 31, 93
2, 251416, Note_on_c, 1, 44, 0
2, 251904, Note_on_c, 1, 44, 69
2, 251936, Note_on_c, 1, 31, 0
2, 252160, Note_on_c, 1, 44, 0
2, 252160, Note_on_c, 1, 31, 82
2, 252288, Note_on_c, 1, 31, 0
2, 252288, Note_on_c, 1, 46, 81
2, 252544, Note_on_c, 1, 31, 69
2, 252568, Note_on_c, 1, 31, 0
2, 252584, Note_on_c, 1, 46, 0
2, 252672, Note_on_c, 1, 44, 70
2, 253056, Note_on_c, 1, 31, 68
2, 253176, Note_on_c, 1, 31, 0
2, 253312, Note_on_c, 1, 30, 60
2, 253360, Note_on_c, 1, 44, 0
2, 253376, Note_on_c, 1, 30, 0
2, 253440, Note_on_c, 1, 31, 72
2, 253824, Note_on_c, 1, 43, 55
2, 254264, Note_on_c, 1, 31, 0
2, 254584, Note_on_c, 1, 43, 0
2, 254592, Note_on_c, 1, 31, 55
2, 254976, Note_on_c, 1, 43, 40
2, 255640, Note_on_c, 1, 31, 0
2, 255744, Note_on_c, 1, 31, 39
2, 255752, Note_on_c, 1, 43, 0
2, 256128, Note_on_c, 1, 44, 36
2, 256728, Note_on_c, 1, 31, 0
2, 256896, Note_on_c, 1, 31, 38
2, 256920, Note_on_c, 1, 44, 0
2, 257280, Note_on_c, 1, 44, 32
2, 257800, Note_on_c, 1, 31, 0
2, 258048, Note_on_c, 1, 31, 27
2, 258056, Note_on_c, 1, 44, 0
2, 258432, Note_on_c, 1, 43, 26
2, 259048, Note_on_c, 1, 31, 0
2, 259200, Note_on_c, 1, 31, 21
2, 259272, Note_on_c, 1, 43, 0
2, 259584, Note_on_c, 1, 43, 17
2, 260080, Note_on_c, 1, 31, 0
2, 260352, Note_on_c, 1, 31, 21
2, 260360, Note_on_c, 1, 43, 0
2, 260736, Note_on_c, 1, 44, 29
2, 261368, Note_on_c, 1, 31, 0
2, 261504, Note_on_c, 1, 31, 20
2, 261720, Note_on_c, 1, 44, 0
2, 261888, Note_on_c, 1, 46, 19
2, 262344, Note_on_c, 1, 31, 0
2, 262632, Note_on_c, 1, 46, 0
2, 262656, Note_on_c, 1, 31, 14
2, 264288, Note_on_c, 1, 31, 0
2, 264320, System_exclusive, 8, 67, 115, 1, 17, 1, 87, 127, 247
2, 264320, End_track
3, 0, Start_track
3, 0, Title_t, ""
3, 0, Program_c, 9, 0
3, 0, Control_c, 9, 7, 80
3, 0, Control_c, 9, 11, 127
3, 0, Control_c, 9, 64, 0
3, 0, Control_c, 9, 67, 0
3, 0, Pitch_bend_c, 9, 8192
3, 0, Control_c, 9, 11, 127
3, 0, Control_c, 9, 64, 0
3, 0, Control_c, 9, 67, 0
3, 0, Pitch_bend_c, 9, 8192
3, 0, Note_on_c, 9, 35, 23
3, 23, Note_on_c, 9, 51, 62
3, 88, Note_on_c, 9, 35, 0
3, 90, Note_on_c, 9, 51, 0
3, 312, Note_on_c, 9, 40, 27
3, 384, Note_on_c, 9, 40, 0
3, 407, Note_on_c, 9, 51, 59
3, 468, Note_on_c, 9, 51, 0
3, 668, Note_on_c, 9, 51, 50
3, 704, Note_on_c, 9, 40, 25
3, 722, Note_on_c, 9, 51, 0
3, 736, Note_on_c, 9, 40, 0
3, 777, Note_on_c, 9, 51, 57
3, 880, Note_on_c, 9, 75, 44
3, 897, Note_on_c, 9, 51, 0
3, 904, Note_on_c, 9, 75, 0
3, 984, Note_on_c, 9, 35, 27
3, 1040, Note_on_c, 9, 35, 0
3, 1072, Note_on_c, 9, 75, 60
3, 1104, Note_on_c, 9, 75, 0
3, 1112, Note_on_c, 9, 35, 28
3, 1149, Note_on_c, 9, 51, 65
3, 1212, Note_on_c, 9, 51, 0
3, 1312, Note_on_c, 9, 75, 56
3, 1336, Note_on_c, 9, 75, 0
3, 1472, Note_on_c, 9, 35, 0
3, 1472, Note_on_c, 9, 40, 27
3, 1536, Note_on_c, 9, 75, 60
3, 1568, Note_on_c, 9, 75, 0
3, 1763, Note_on_c, 9, 51, 55
3, 1776, Note_on_c, 9, 75, 56
3, 1808, Note_on_c, 9, 75, 0
3, 1815, Note_on_c, 9, 51, 0
3, 1889, Note_on_c, 9, 51, 51
3, 1992, Note_on_c, 9, 75, 42
3, 2016, Note_on_c, 9, 75, 0
3, 2032, Note_on_c, 9, 40, 0
3, 2049, Note_on_c, 9, 51, 0
3, 2152, Note_on_c, 9, 35, 36
3, 2208, Note_on_c, 9, 35, 0
3, 2288, Note_on_c, 9, 35, 25
3, 2293, Note_on_c, 9, 51, 57
3, 2447, Note_on_c, 9, 51, 0
3, 2550, Note_on_c, 9, 53, 43
3, 2609, Note_on_c, 9, 53, 0
3, 2624, Note_on_c, 9, 35, 0
3, 2624, Note_on_c, 9, 40, 38
3, 2679, Note_on_c, 9, 51, 38
3, 2829, Note_on_c, 9, 51, 0
3, 3056, Note_on_c, 9, 51, 50
3, 3240, Note_on_c, 9, 40, 0
3, 3295, Note_on_c, 9, 51, 0
3, 3312, Note_on_c, 9, 35, 35
3, 3368, Note_on_c, 9, 35, 0
3, 3440, Note_on_c, 9, 35, 27
3, 3672, Note_on_c, 9, 35, 0
3, 3674, Note_on_c, 9, 51, 42
3, 3743, Note_on_c, 9, 51, 0
3, 3776, Note_on_c, 9, 40, 40
3, 3813, Note_on_c, 9, 51, 55
3, 3936, Note_on_c, 9, 75, 87
3, 3992, Note_on_c, 9, 75, 0
3, 4001, Note_on_c, 9, 51, 0
3, 4008, Note_on_c, 9, 40, 0
3, 4024, Note_on_c, 9, 75, 83
3, 4048, Note_on_c, 9, 75, 0
3, 4144, Note_on_c, 9, 75, 77
3, 4168, Note_on_c, 9, 75, 0
3, 4197, Note_on_c, 9, 51, 54
3, 4280, Note_on_c, 9, 75, 69
3, 4312, Note_on_c, 9, 75, 0
3, 4432, Note_on_c, 9, 51, 0
3, 4432, Note_on_c, 9, 75, 60
3, 4464, Note_on_c, 9, 75, 0
3, 4520, Note_on_c, 9, 75, 56
3, 4552, Note_on_c, 9, 75, 0
3, 4584, Note_on_c, 9, 35, 18
3, 4587, Note_on_c, 9, 51, 79
3, 4648, Note_on_c, 9, 75, 49
3, 4688, Note_on_c, 9, 75, 0
3, 4876, Note_on_c, 9, 51, 0
3, 4896, Note_on_c, 9, 75, 36
3, 4928, Note_on_c, 9, 35, 0
3, 4928, Note_on_c, 9, 40, 33
3, 4936, Note_on_c, 9, 75, 0
3, 4975, Note_on_c, 9, 51, 56
3, 5104, Note_on_c, 9, 75, 1
3, 5120, Note_on_c, 9, 40, 0
3, 5152, Note_on_c, 9, 75, 0
3, 5212, Note_on_c, 9, 51, 0
3, 5304, Note_on_c, 9, 40, 36
3, 5366, Note_on_c, 9, 51, 62
3, 5376, Note_on_c, 9, 40, 0
3, 5592, Note_on_c, 9, 35, 34
3, 5640, Note_on_c, 9, 35, 0
3, 5728, Note_on_c, 9, 35, 25
3, 5838, Note_on_c, 9, 51, 0
3, 5986, Note_on_c, 9, 51, 44
3, 6056, Note_on_c, 9, 51, 0
3, 6080, Note_on_c, 9, 35, 0
3, 6096, Note_on_c, 9, 40, 22
3, 6111, Note_on_c, 9, 51, 56
3, 6367, Note_on_c, 9, 51, 0
3, 6440, Note_on_c, 9, 40, 0
3, 6464, Note_on_c, 9, 40, 27
3, 6517, Note_on_c, 9, 51, 64
3, 6520, Note_on_c, 9, 40, 0
3, 6751, Note_on_c, 9, 51, 0
3, 6773, Note_on_c, 9, 53, 50
3, 6857, Note_on_c, 9, 53, 0
3, 6888, Note_on_c, 9, 35, 28
3, 6898, Note_on_c, 9, 51, 42
3, 7151, Note_on_c, 9, 51, 0
3, 7224, Note_on_c, 9, 35, 0
3, 7240, Note_on_c, 9, 40, 25
3, 7296, Note_on_c, 9, 51, 55
3, 7360, Note_on_c, 9, 40, 0
3, 7536, Note_on_c, 9, 51, 0
3, 7690, Note_on_c, 9, 51, 38
3, 7743, Note_on_c, 9, 51, 0
3, 7802, Note_on_c, 9, 51, 52
3, 7845, Note_on_c, 9, 51, 0
3, 8040, Note_on_c, 9, 35, 28
3, 8088, Note_on_c, 9, 51, 71
3, 8216, Note_on_c, 9, 37, 39
3, 8240, Note_on_c, 9, 37, 0
3, 8278, Note_on_c, 9, 51, 0
3, 8424, Note_on_c, 9, 35, 0
3, 8446, Note_on_c, 9, 51, 54
3, 8464, Note_on_c, 9, 37, 30
3, 8496, Note_on_c, 9, 37, 0
3, 8504, Note_on_c, 9, 51, 0
3, 8711, Note_on_c, 9, 51, 53
3, 8712, Note_on_c, 9, 37, 25
3, 8736, Note_on_c, 9, 37, 0
3, 8761, Note_on_c, 9, 51, 0
3, 8839, Note_on_c, 9, 51, 46
3, 8918, Note_on_c, 9, 51, 0
3, 8968, Note_on_c, 9, 37, 23
3, 9008, Note_on_c, 9, 37, 0
3, 9048, Note_on_c, 9, 37, 19
3, 9071, Note_on_c, 9, 53, 64
3, 9072, Note_on_c, 9, 37, 0
3, 9088, Note_on_c, 9, 35, 34
3, 9144, Note_on_c, 9, 35, 0
3, 9144, Note_on_c, 9, 37, 25
3, 9154, Note_on_c, 9, 53, 0
3, 9184, Note_on_c, 9, 37, 0
3, 9202, Note_on_c, 9, 51, 38
3, 9216, Note_on_c, 9, 35, 45
3, 9264, Note_on_c, 9, 35, 0
3, 9445, Note_on_c, 9, 51, 0
3, 9568, Note_on_c, 9, 40, 27
3, 9595, Note_on_c, 9, 51, 38
3, 9632, Note_on_c, 9, 40, 0
3, 9785, Note_on_c, 9, 51, 0
3, 9944, Note_on_c, 9, 40, 30
3, 9989, Note_on_c, 9, 51, 54
3, 9992, Note_on_c, 9, 40, 0
3, 10105, Note_on_c, 9, 51, 0
3, 10248, Note_on_c, 9, 35, 26
3, 10266, Note_on_c, 9, 51, 42
3, 10296, Note_on_c, 9, 35, 0
3, 10320, Note_on_c, 9, 51, 0
3, 10384, Note_on_c, 9, 51, 61
3, 10384, Note_on_c, 9, 35, 32
3, 10573, Note_on_c, 9, 51, 0
3, 10672, Note_on_c, 9, 35, 0
3, 10704, Note_on_c, 9, 40, 34
3, 10751, Note_on_c, 9, 51, 61
3, 10792, Note_on_c, 9, 40, 0
3, 10915, Note_on_c, 9, 51, 0
3, 11142, Note_on_c, 9, 51, 75
3, 11248, Note_on_c, 9, 37, 31
3, 11259, Note_on_c, 9, 51, 0
3, 11272, Note_on_c, 9, 37, 0
3, 11360, Note_on_c, 9, 37, 25
3, 11360, Note_on_c, 9, 35, 33
3, 11392, Note_on_c, 9, 37, 0
3, 11424, Note_on_c, 9, 35, 0
3, 11464, Note_on_c, 9, 37, 27
3, 11488, Note_on_c, 9, 37, 0
3, 11488, Note_on_c, 9, 35, 38
3, 11576, Note_on_c, 9, 35, 0
3, 11758, Note_on_c, 9, 51, 51
3, 11815, Note_on_c, 9, 51, 0
3, 11872, Note_on_c, 9, 40, 20
3, 11883, Note_on_c, 9, 51, 58
3, 11944, Note_on_c, 9, 40, 0
3, 12088, Note_on_c, 9, 51, 0
3, 12271, Note_on_c, 9, 51, 56
3, 12454, Note_on_c, 9, 51, 0
3, 12528, Note_on_c, 9, 35, 30
3, 12584, Note_on_c, 9, 35, 0
3, 12659, Note_on_c, 9, 51, 58
3, 12664, Note_on_c, 9, 35, 22
3, 12680, Note_on_c, 9, 75, 51
3, 12696, Note_on_c, 9, 35, 0
3, 12704, Note_on_c, 9, 75, 0
3, 12818, Note_on_c, 9, 51, 0
3, 12968, Note_on_c, 9, 75, 56
3, 13008, Note_on_c, 9, 75, 0
3, 13008, Note_on_c, 9, 40, 39
3, 13032, Note_on_c, 9, 40, 0
3, 13046, Note_on_c, 9, 51, 64
3, 13219, Note_on_c, 9, 51, 0
3, 13240, Note_on_c, 9, 75, 53
3, 13280, Note_on_c, 9, 75, 0
3, 13296, Note_on_c, 9, 35, 27
3, 13344, Note_on_c, 9, 35, 0
3, 13504, Note_on_c, 9, 75, 50
3, 13568, Note_on_c, 9, 75, 0
3, 13680, Note_on_c, 9, 35, 35
3, 13682, Note_on_c, 9, 51, 61
3, 13728, Note_on_c, 9, 35, 0
3, 13739, Note_on_c, 9, 51, 0
3, 13768, Note_on_c, 9, 75, 51
3, 13816, Note_on_c, 9, 35, 24
3, 13823, Note_on_c, 9, 51, 47
3, 13840, Note_on_c, 9, 75, 0
3, 13888, Note_on_c, 9, 35, 0
3, 13987, Note_on_c, 9, 51, 0
3, 14048, Note_on_c, 9, 75, 48
3, 14068, Note_on_c, 9, 53, 36
3, 14088, Note_on_c, 9, 75, 0
3, 14150, Note_on_c, 9, 53, 0
3, 14184, Note_on_c, 9, 40, 18
3, 14201, Note_on_c, 9, 51, 44
3, 14240, Note_on_c, 9, 40, 0
3, 14251, Note_on_c, 9, 51, 0
3, 14320, Note_on_c, 9, 75, 46
3, 14376, Note_on_c, 9, 75, 0
3, 14596, Note_on_c, 9, 51, 40
3, 14616, Note_on_c, 9, 75, 38
3, 14664, Note_on_c, 9, 75, 0
3, 14777, Note_on_c, 9, 51, 0
3, 14832, Note_on_c, 9, 35, 30
3, 14840, Note_on_c, 9, 53, 65
3, 14872, Note_on_c, 9, 75, 42
3, 14904, Note_on_c, 9, 35, 0
3, 14958, Note_on_c, 9, 53, 0
3, 14960, Note_on_c, 9, 75, 0
3, 14968, Note_on_c, 9, 35, 34
3, 14969, Note_on_c, 9, 51, 39
3, 15008, Note_on_c, 9, 51, 0
3, 15024, Note_on_c, 9, 35, 0
3, 15105, Note_on_c, 9, 51, 35
3, 15112, Note_on_c, 9, 75, 38
3, 15144, Note_on_c, 9, 51, 0
3, 15168, Note_on_c, 9, 75, 0
3, 15255, Note_on_c, 9, 53, 74
3, 15336, Note_on_c, 9, 40, 31
3, 15360, Note_on_c, 9, 75, 44
3, 15378, Note_on_c, 9, 53, 0
3, 15388, Note_on_c, 9, 51, 42
3, 15392, Note_on_c, 9, 40, 0
3, 15416, Note_on_c, 9, 75, 0
3, 15422, Note_on_c, 9, 51, 0
3, 15530, Note_on_c, 9, 51, 54
3, 15594, Note_on_c, 9, 51, 0
3, 15654, Note_on_c, 9, 53, 76
3, 15765, Note_on_c, 9, 53, 0
3, 15782, Note_on_c, 9, 51, 37
3, 15842, Note_on_c, 9, 51, 0
3, 15920, Note_on_c, 9, 51, 46
3, 15983, Note_on_c, 9, 51, 0
3, 16051, Note_on_c, 9, 51, 62
3, 16117, Note_on_c, 9, 51, 0
3, 16120, Note_on_c, 9, 35, 42
3, 16184, Note_on_c, 9, 35, 0
3, 16193, Note_on_c, 9, 51, 64
3, 16387, Note_on_c, 9, 51, 0
3, 16472, Note_on_c, 9, 40, 27
3, 16512, Note_on_c, 9, 40, 0
3, 16522, Note_on_c, 9, 51, 59
3, 16667, Note_on_c, 9, 51, 0
3, 16840, Note_on_c, 9, 40, 33
3, 16896, Note_on_c, 9, 40, 0
3, 17136, Note_on_c, 9, 51, 55
3, 17200, Note_on_c, 9, 51, 0
3, 17273, Note_on_c, 9, 51, 43
3, 17304, Note_on_c, 9, 38, 21
3, 17336, Note_on_c, 9, 38, 0
3, 17400, Note_on_c, 9, 38, 25
3, 17430, Note_on_c, 9, 51, 0
3, 17440, Note_on_c, 9, 38, 0
3, 17542, Note_on_c, 9, 51, 70
3, 17544, Note_on_c, 9, 64, 22
3, 17576, Note_on_c, 9, 64, 0
3, 17594, Note_on_c, 9, 51, 0
3, 17648, Note_on_c, 9, 38, 24
3, 17660, Note_on_c, 9, 51, 69
3, 17688, Note_on_c, 9, 38, 0
3, 17760, Note_on_c, 9, 38, 23
3, 17804, Note_on_c, 9, 51, 0
3, 17808, Note_on_c, 9, 38, 0
3, 17920, Note_on_c, 9, 64, 21
3, 17960, Note_on_c, 9, 64, 0
3, 18000, Note_on_c, 9, 40, 41
3, 18024, Note_on_c, 9, 38, 30
3, 18038, Note_on_c, 9, 51, 75
3, 18064, Note_on_c, 9, 38, 0
3, 18072, Note_on_c, 9, 40, 0
3, 18144, Note_on_c, 9, 38, 22
3, 18162, Note_on_c, 9, 51, 0
3, 18184, Note_on_c, 9, 38, 0
3, 18256, Note_on_c, 9, 40, 40
3, 18298, Note_on_c, 9, 51, 52
3, 18328, Note_on_c, 9, 40, 0
3, 18357, Note_on_c, 9, 51, 0
3, 18408, Note_on_c, 9, 51, 71
3, 18432, Note_on_c, 9, 35, 24
3, 18612, Note_on_c, 9, 51, 0
3, 18752, Note_on_c, 9, 35, 0
3, 18776, Note_on_c, 9, 40, 26
3, 18807, Note_on_c, 9, 51, 58
3, 18872, Note_on_c, 9, 40, 0
3, 18978, Note_on_c, 9, 51, 0
3, 19176, Note_on_c, 9, 40, 18
3, 19199, Note_on_c, 9, 51, 57
3, 19208, Note_on_c, 9, 40, 0
3, 19266, Note_on_c, 9, 51, 0
3, 19440, Note_on_c, 9, 35, 30
3, 19466, Note_on_c, 9, 51, 43
3, 19504, Note_on_c, 9, 35, 0
3, 19518, Note_on_c, 9, 51, 0
3, 19568, Note_on_c, 9, 35, 27
3, 19581, Note_on_c, 9, 51, 42
3, 19624, Note_on_c, 9, 35, 0
3, 19744, Note_on_c, 9, 51, 0
3, 19936, Note_on_c, 9, 40, 18
3, 19956, Note_on_c, 9, 51, 70
3, 19992, Note_on_c, 9, 40, 0
3, 20468, Note_on_c, 9, 51, 0
3, 20496, Note_on_c, 9, 37, 51
3, 20544, Note_on_c, 9, 37, 0
3, 20568, Note_on_c, 9, 35, 39
3, 20600, Note_on_c, 9, 37, 42
3, 20610, Note_on_c, 9, 51, 50
3, 20648, Note_on_c, 9, 35, 0
3, 20664, Note_on_c, 9, 37, 0
3, 20666, Note_on_c, 9, 51, 0
3, 20720, Note_on_c, 9, 35, 33
3, 20721, Note_on_c, 9, 51, 48
3, 20907, Note_on_c, 9, 51, 0
3, 21040, Note_on_c, 9, 35, 0
3, 21072, Note_on_c, 9, 40, 22
3, 21100, Note_on_c, 9, 51, 52
3, 21232, Note_on_c, 9, 40, 0
3, 21257, Note_on_c, 9, 51, 0
3, 21360, Note_on_c, 9, 53, 63
3, 21450, Note_on_c, 9, 53, 0
3, 21456, Note_on_c, 9, 40, 27
3, 21504, Note_on_c, 9, 40, 0
3, 21508, Note_on_c, 9, 51, 23
3, 21556, Note_on_c, 9, 51, 0
3, 21896, Note_on_c, 9, 51, 35
3, 21963, Note_on_c, 9, 51, 0
3, 22152, Note_on_c, 9, 53, 50
3, 22163, Note_on_c, 9, 51, 56
3, 22209, Note_on_c, 9, 51, 0
3, 22232, Note_on_c, 9, 40, 30
3, 22255, Note_on_c, 9, 53, 0
3, 22264, Note_on_c, 9, 40, 0
3, 22508, Note_on_c, 9, 51, 55
3, 22536, Note_on_c, 9, 40, 25
3, 22545, Note_on_c, 9, 51, 0
3, 22568, Note_on_c, 9, 40, 0
3, 22632, Note_on_c, 9, 40, 19
3, 22656, Note_on_c, 9, 40, 0
3, 22694, Note_on_c, 9, 53, 62
3, 22714, Note_on_c, 9, 51, 69
3, 22800, Note_on_c, 9, 40, 24
3, 22840, Note_on_c, 9, 40, 0
3, 22856, Note_on_c, 9, 53, 0
3, 22864, Note_on_c, 9, 51, 0
3, 22904, Note_on_c, 9, 37, 32
3, 22912, Note_on_c, 9, 35, 20
3, 22936, Note_on_c, 9, 37, 0
3, 22992, Note_on_c, 9, 35, 0
3, 23011, Note_on_c, 9, 51, 46
3, 23032, Note_on_c, 9, 35, 43
3, 23032, Note_on_c, 9, 35, 36
3, 23066, Note_on_c, 9, 51, 0
3, 23080, Note_on_c, 9, 35, 0
3, 23184, Note_on_c, 9, 35, 0
3, 23271, Note_on_c, 9, 53, 67
3, 23273, Note_on_c, 9, 51, 69
3, 23376, Note_on_c, 9, 40, 24
3, 23383, Note_on_c, 9, 51, 0
3, 23424, Note_on_c, 9, 40, 0
3, 23444, Note_on_c, 9, 53, 0
3, 23660, Note_on_c, 9, 51, 49
3, 23706, Note_on_c, 9, 51, 0
3, 23826, Note_on_c, 9, 53, 61
3, 23849, Note_on_c, 9, 51, 62
3, 23912, Note_on_c, 9, 40, 30
3, 23928, Note_on_c, 9, 35, 38
3, 23944, Note_on_c, 9, 40, 0
3, 23958, Note_on_c, 9, 53, 0
3, 23976, Note_on_c, 9, 35, 0
3, 24000, Note_on_c, 9, 51, 0
3, 24032, Note_on_c, 9, 37, 46
3, 24032, Note_on_c, 9, 35, 27
3, 24056, Note_on_c, 9, 37, 0
3, 24120, Note_on_c, 9, 35, 0
3, 24176, Note_on_c, 9, 35, 36
3, 24188, Note_on_c, 9, 51, 49
3, 24260, Note_on_c, 9, 51, 0
3, 24448, Note_on_c, 9, 35, 0
3, 24536, Note_on_c, 9, 40, 26
3, 24567, Note_on_c, 9, 51, 49
3, 24624, Note_on_c, 9, 40, 0
3, 24740, Note_on_c, 9, 51, 0
3, 24970, Note_on_c, 9, 51, 33
3, 25028, Note_on_c, 9, 51, 0
3, 25208, Note_on_c, 9, 35, 45
3, 25225, Note_on_c, 9, 51, 55
3, 25279, Note_on_c, 9, 51, 0
3, 25280, Note_on_c, 9, 35, 0
3, 25349, Note_on_c, 9, 51, 37
3, 25352, Note_on_c, 9, 35, 39
3, 25424, Note_on_c, 9, 35, 0
3, 25447, Note_on_c, 9, 51, 0
3, 25696, Note_on_c, 9, 40, 27
3, 25784, Note_on_c, 9, 40, 0
3, 25964, Note_on_c, 9, 51, 59
3, 26018, Note_on_c, 9, 51, 0
3, 26097, Note_on_c, 9, 51, 49
3, 26263, Note_on_c, 9, 51, 0
3, 26296, Note_on_c, 9, 40, 21
3, 26320, Note_on_c, 9, 40, 0
3, 26330, Note_on_c, 9, 53, 57
3, 26344, Note_on_c, 9, 35, 43
3, 26368, Note_on_c, 9, 35, 0
3, 26433, Note_on_c, 9, 53, 0
3, 26552, Note_on_c, 9, 40, 26
3, 26592, Note_on_c, 9, 40, 0
3, 26719, Note_on_c, 9, 53, 59
3, 26814, Note_on_c, 9, 53, 0
3, 26816, Note_on_c, 9, 40, 26
3, 26847, Note_on_c, 9, 51, 46
3, 26848, Note_on_c, 9, 40, 0
3, 27025, Note_on_c, 9, 51, 0
3, 27072, Note_on_c, 9, 40, 28
3, 27078, Note_on_c, 9, 53, 60
3, 27120, Note_on_c, 9, 40, 0
3, 27169, Note_on_c, 9, 53, 0
3, 27226, Note_on_c, 9, 51, 30
3, 27328, Note_on_c, 9, 40, 33
3, 27330, Note_on_c, 9, 51, 0
3, 27368, Note_on_c, 9, 40, 0
3, 27408, Note_on_c, 9, 35, 39
3, 27432, Note_on_c, 9, 35, 0
3, 27461, Note_on_c, 9, 51, 62
3, 27504, Note_on_c, 9, 35, 39
3, 27529, Note_on_c, 9, 51, 0
3, 27536, Note_on_c, 9, 37, 46
3, 27560, Note_on_c, 9, 37, 0
3, 27576, Note_on_c, 9, 35, 0
3, 27587, Note_on_c, 9, 51, 68
3, 27640, Note_on_c, 9, 35, 32
3, 27720, Note_on_c, 9, 35, 0
3, 27815, Note_on_c, 9, 51, 0
3, 27936, Note_on_c, 9, 35, 22
3, 27968, Note_on_c, 9, 35, 0
3, 27992, Note_on_c, 9, 40, 25
3, 28007, Note_on_c, 9, 51, 56
3, 28032, Note_on_c, 9, 40, 0
3, 28194, Note_on_c, 9, 51, 0
3, 28360, Note_on_c, 9, 40, 33
3, 28418, Note_on_c, 9, 51, 55
3, 28448, Note_on_c, 9, 40, 0
3, 28519, Note_on_c, 9, 51, 0
3, 28672, Note_on_c, 9, 35, 28
3, 28712, Note_on_c, 9, 35, 0
3, 28808, Note_on_c, 9, 35, 23
3, 28920, Note_on_c, 9, 35, 0
3, 29062, Note_on_c, 9, 51, 48
3, 29122, Note_on_c, 9, 51, 0
3, 29144, Note_on_c, 9, 40, 36
3, 29191, Note_on_c, 9, 51, 50
3, 29224, Note_on_c, 9, 40, 0
3, 29268, Note_on_c, 9, 51, 0
3, 29450, Note_on_c, 9, 51, 65
3, 29499, Note_on_c, 9, 51, 0
3, 29585, Note_on_c, 9, 51, 49
3, 29663, Note_on_c, 9, 51, 0
3, 29808, Note_on_c, 9, 35, 33
3, 29841, Note_on_c, 9, 51, 77
3, 29880, Note_on_c, 9, 35, 0
3, 29895, Note_on_c, 9, 51, 0
3, 29936, Note_on_c, 9, 35, 36
3, 29973, Note_on_c, 9, 51, 61
3, 30139, Note_on_c, 9, 51, 0
3, 30264, Note_on_c, 9, 35, 0
3, 30288, Note_on_c, 9, 40, 27
3, 30496, Note_on_c, 9, 40, 0
3, 30588, Note_on_c, 9, 51, 56
3, 30618, Note_on_c, 9, 51, 0
3, 30715, Note_on_c, 9, 51, 62
3, 30772, Note_on_c, 9, 51, 0
3, 30944, Note_on_c, 9, 35, 24
3, 30946, Note_on_c, 9, 53, 57
3, 31000, Note_on_c, 9, 35, 0
3, 31015, Note_on_c, 9, 53, 0
3, 31072, Note_on_c, 9, 35, 25
3, 31079, Note_on_c, 9, 51, 37
3, 31136, Note_on_c, 9, 35, 0
3, 31181, Note_on_c, 9, 51, 0
3, 31341, Note_on_c, 9, 51, 52
3, 31403, Note_on_c, 9, 51, 0
3, 31432, Note_on_c, 9, 40, 27
3, 31472, Note_on_c, 9, 75, 51
3, 31474, Note_on_c, 9, 51, 46
3, 31496, Note_on_c, 9, 75, 0
3, 31501, Note_on_c, 9, 51, 0
3, 31520, Note_on_c, 9, 40, 0
3, 31704, Note_on_c, 9, 75, 59
3, 31715, Note_on_c, 9, 51, 90
3, 31728, Note_on_c, 9, 75, 0
3, 31834, Note_on_c, 9, 51, 0
3, 31920, Note_on_c, 9, 75, 63
3, 31944, Note_on_c, 9, 75, 0
3, 32088, Note_on_c, 9, 35, 25
3, 32124, Note_on_c, 9, 51, 52
3, 32144, Note_on_c, 9, 35, 0
3, 32159, Note_on_c, 9, 51, 0
3, 32168, Note_on_c, 9, 75, 53
3, 32200, Note_on_c, 9, 75, 0
3, 32200, Note_on_c, 9, 35, 42
3, 32260, Note_on_c, 9, 51, 77
3, 32264, Note_on_c, 9, 35, 0
3, 32416, Note_on_c, 9, 75, 46
3, 32463, Note_on_c, 9, 51, 0
3, 32464, Note_on_c, 9, 75, 0
3, 32576, Note_on_c, 9, 40, 29
3, 32610, Note_on_c, 9, 51, 39
3, 32651, Note_on_c, 9, 51, 0
3, 32664, Note_on_c, 9, 75, 50
3, 32688, Note_on_c, 9, 40, 0
3, 32720, Note_on_c, 9, 75, 0
3, 32871, Note_on_c, 9, 51, 48
3, 32906, Note_on_c, 9, 51, 0
3, 32920, Note_on_c, 9, 75, 38
3, 32992, Note_on_c, 9, 75, 0
3, 33000, Note_on_c, 9, 51, 52
3, 33112, Note_on_c, 9, 51, 0
3, 33184, Note_on_c, 9, 75, 48
3, 33232, Note_on_c, 9, 75, 0
3, 33384, Note_on_c, 9, 35, 28
3, 33395, Note_on_c, 9, 51, 67
3, 33440, Note_on_c, 9, 75, 46
3, 33470, Note_on_c, 9, 51, 0
3, 33512, Note_on_c, 9, 75, 0
3, 33680, Note_on_c, 9, 35, 0
3, 33704, Note_on_c, 9, 75, 44
3, 33744, Note_on_c, 9, 40, 29
3, 33776, Note_on_c, 9, 75, 0
3, 33785, Note_on_c, 9, 51, 55
3, 33859, Note_on_c, 9, 51, 0
3, 33912, Note_on_c, 9, 40, 0
3, 34112, Note_on_c, 9, 40, 32
3, 34168, Note_on_c, 9, 40, 0
3, 34426, Note_on_c, 9, 51, 53
3, 34500, Note_on_c, 9, 51, 0
3, 34544, Note_on_c, 9, 35, 30
3, 34550, Note_on_c, 9, 51, 46
3, 34616, Note_on_c, 9, 35, 0
3, 34715, Note_on_c, 9, 51, 0
3, 34896, Note_on_c, 9, 40, 25
3, 34921, Note_on_c, 9, 51, 55
3, 34944, Note_on_c, 9, 40, 0
3, 35073, Note_on_c, 9, 51, 0
3, 35325, Note_on_c, 9, 51, 55
3, 35404, Note_on_c, 9, 51, 0
3, 35560, Note_on_c, 9, 35, 38
3, 35580, Note_on_c, 9, 53, 45
3, 35632, Note_on_c, 9, 35, 0
3, 35644, Note_on_c, 9, 53, 0
3, 35719, Note_on_c, 9, 51, 37
3, 35720, Note_on_c, 9, 35, 25
3, 35760, Note_on_c, 9, 35, 0
3, 35799, Note_on_c, 9, 51, 0
3, 36056, Note_on_c, 9, 64, 30
3, 36056, Note_on_c, 9, 40, 26
3, 36086, Note_on_c, 9, 51, 56
3, 36088, Note_on_c, 9, 64, 0
3, 36143, Note_on_c, 9, 51, 0
3, 36344, Note_on_c, 9, 64, 41
3, 36352, Note_on_c, 9, 51, 49
3, 36368, Note_on_c, 9, 64, 0
3, 36402, Note_on_c, 9, 51, 0
3, 36476, Note_on_c, 9, 51, 50
3, 36513, Note_on_c, 9, 51, 0
3, 36632, Note_on_c, 9, 40, 0
3, 36704, Note_on_c, 9, 35, 39
3, 36732, Note_on_c, 9, 51, 57
3, 36756, Note_on_c, 9, 51, 0
3, 36784, Note_on_c, 9, 35, 0
3, 36840, Note_on_c, 9, 35, 26
3, 36860, Note_on_c, 9, 51, 60
3, 36912, Note_on_c, 9, 35, 0
3, 36915, Note_on_c, 9, 51, 0
3, 37184, Note_on_c, 9, 40, 35
3, 37216, Note_on_c, 9, 63, 34
3, 37230, Note_on_c, 9, 51, 68
3, 37240, Note_on_c, 9, 63, 0
3, 37280, Note_on_c, 9, 51, 0
3, 37440, Note_on_c, 9, 40, 0
3, 37472, Note_on_c, 9, 63, 41
3, 37503, Note_on_c, 9, 51, 44
3, 37520, Note_on_c, 9, 63, 0
3, 37544, Note_on_c, 9, 51, 0
3, 37625, Note_on_c, 9, 51, 49
3, 37683, Note_on_c, 9, 51, 0
3, 37848, Note_on_c, 9, 35, 38
3, 37896, Note_on_c, 9, 35, 0
3, 37984, Note_on_c, 9, 35, 30
3, 37989, Note_on_c, 9, 51, 60
3, 38014, Note_on_c, 9, 51, 0
3, 38032, Note_on_c, 9, 35, 0
3, 38080, Note_on_c, 9, 51, 64
3, 38119, Note_on_c, 9, 51, 0
3, 38336, Note_on_c, 9, 40, 34
3, 38352, Note_on_c, 9, 64, 25
3, 38371, Note_on_c, 9, 51, 64
3, 38392, Note_on_c, 9, 64, 0
3, 38413, Note_on_c, 9, 51, 0
3, 38608, Note_on_c, 9, 64, 37
3, 38632, Note_on_c, 9, 64, 0
3, 38729, Note_on_c, 9, 51, 69
3, 38784, Note_on_c, 9, 51, 0
3, 38888, Note_on_c, 9, 40, 0
3, 38984, Note_on_c, 9, 64, 17
3, 39032, Note_on_c, 9, 64, 0
3, 39108, Note_on_c, 9, 51, 62
3, 39128, Note_on_c, 9, 63, 20
3, 39128, Note_on_c, 9, 35, 28
3, 39173, Note_on_c, 9, 51, 0
3, 39216, Note_on_c, 9, 35, 0
3, 39296, Note_on_c, 9, 63, 0
3, 39352, Note_on_c, 9, 63, 25
3, 39392, Note_on_c, 9, 63, 0
3, 39496, Note_on_c, 9, 40, 35
3, 39509, Note_on_c, 9, 51, 56
3, 39562, Note_on_c, 9, 51, 0
3, 39640, Note_on_c, 9, 40, 0
3, 39785, Note_on_c, 9, 51, 39
3, 39852, Note_on_c, 9, 51, 0
3, 39892, Note_on_c, 9, 51, 28
3, 39953, Note_on_c, 9, 51, 0
3, 40141, Note_on_c, 9, 51, 71
3, 40168, Note_on_c, 9, 35, 39
3, 40190, Note_on_c, 9, 51, 0
3, 40232, Note_on_c, 9, 35, 0
3, 40263, Note_on_c, 9, 51, 62
3, 40296, Note_on_c, 9, 35, 33
3, 40351, Note_on_c, 9, 51, 0
3, 40368, Note_on_c, 9, 35, 0
3, 40656, Note_on_c, 9, 40, 33
3, 40662, Note_on_c, 9, 51, 56
3, 40715, Note_on_c, 9, 51, 0
3, 40752, Note_on_c, 9, 40, 0
3, 40896, Note_on_c, 9, 64, 31
3, 40936, Note_on_c, 9, 64, 0
3, 41040, Note_on_c, 9, 40, 34
3, 41216, Note_on_c, 9, 40, 0
3, 41324, Note_on_c, 9, 51, 61
3, 41352, Note_on_c, 9, 35, 37
3, 41393, Note_on_c, 9, 51, 0
3, 41416, Note_on_c, 9, 35, 0
3, 41453, Note_on_c, 9, 51, 45
3, 41472, Note_on_c, 9, 35, 38
3, 41536, Note_on_c, 9, 35, 0
3, 41583, Note_on_c, 9, 51, 0
3, 41824, Note_on_c, 9, 40, 30
3, 41843, Note_on_c, 9, 51, 80
3, 41888, Note_on_c, 9, 40, 0
3, 41910, Note_on_c, 9, 51, 0
3, 42088, Note_on_c, 9, 64, 21
3, 42109, Note_on_c, 9, 51, 37
3, 42112, Note_on_c, 9, 64, 0
3, 42168, Note_on_c, 9, 51, 0
3, 42231, Note_on_c, 9, 51, 52
3, 42266, Note_on_c, 9, 51, 0
3, 42360, Note_on_c, 9, 35, 48
3, 42392, Note_on_c, 9, 35, 0
3, 42472, Note_on_c, 9, 35, 29
3, 42480, Note_on_c, 9, 51, 83
3, 42552, Note_on_c, 9, 35, 0
3, 42572, Note_on_c, 9, 51, 0
3, 42608, Note_on_c, 9, 35, 42
3, 42704, Note_on_c, 9, 35, 0
3, 42855, Note_on_c, 9, 51, 46
3, 42900, Note_on_c, 9, 51, 0
3, 42944, Note_on_c, 9, 40, 34
3, 42999, Note_on_c, 9, 51, 84
3, 43016, Note_on_c, 9, 40, 0
3, 43169, Note_on_c, 9, 51, 0
3, 43367, Note_on_c, 9, 51, 47
3, 43398, Note_on_c, 9, 51, 0
3, 43496, Note_on_c, 9, 35, 27
3, 43528, Note_on_c, 9, 35, 0
3, 43608, Note_on_c, 9, 35, 30
3, 43616, Note_on_c, 9, 51, 77
3, 43671, Note_on_c, 9, 51, 0
3, 43696, Note_on_c, 9, 35, 0
3, 43744, Note_on_c, 9, 35, 48
3, 43784, Note_on_c, 9, 35, 0
3, 43976, Note_on_c, 9, 75, 35
3, 43996, Note_on_c, 9, 51, 57
3, 44016, Note_on_c, 9, 75, 0
3, 44053, Note_on_c, 9, 51, 0
3, 44104, Note_on_c, 9, 40, 31
3, 44127, Note_on_c, 9, 51, 62
3, 44176, Note_on_c, 9, 40, 0
3, 44216, Note_on_c, 9, 51, 0
3, 44224, Note_on_c, 9, 75, 46
3, 44280, Note_on_c, 9, 75, 0
3, 44336, Note_on_c, 9, 75, 51
3, 44360, Note_on_c, 9, 75, 0
3, 44362, Note_on_c, 9, 51, 37
3, 44447, Note_on_c, 9, 51, 0
3, 44498, Note_on_c, 9, 51, 50
3, 44504, Note_on_c, 9, 75, 67
3, 44520, Note_on_c, 9, 35, 33
3, 44560, Note_on_c, 9, 75, 0
3, 44568, Note_on_c, 9, 35, 0
3, 44592, Note_on_c, 9, 51, 0
3, 44750, Note_on_c, 9, 51, 64
3, 44768, Note_on_c, 9, 75, 76
3, 44808, Note_on_c, 9, 75, 0
3, 44844, Note_on_c, 9, 51, 0
3, 44894, Note_on_c, 9, 51, 59
3, 44904, Note_on_c, 9, 35, 42
3, 44984, Note_on_c, 9, 35, 0
3, 45016, Note_on_c, 9, 75, 75
3, 45080, Note_on_c, 9, 75, 0
3, 45128, Note_on_c, 9, 75, 59
3, 45160, Note_on_c, 9, 75, 0
3, 45250, Note_on_c, 9, 51, 0
3, 45256, Note_on_c, 9, 40, 42
3, 45264, Note_on_c, 9, 75, 73
3, 45304, Note_on_c, 9, 51, 42
3, 45312, Note_on_c, 9, 40, 0
3, 45336, Note_on_c, 9, 75, 0
3, 45384, Note_on_c, 9, 75, 50
3, 45408, Note_on_c, 9, 75, 0
3, 45528, Note_on_c, 9, 75, 75
3, 45547, Note_on_c, 9, 51, 0
3, 45576, Note_on_c, 9, 75, 0
3, 45672, Note_on_c, 9, 35, 36
3, 45706, Note_on_c, 9, 51, 56
3, 45712, Note_on_c, 9, 35, 0
3, 45764, Note_on_c, 9, 51, 0
3, 45784, Note_on_c, 9, 75, 65
3, 45856, Note_on_c, 9, 75, 0
3, 45904, Note_on_c, 9, 75, 56
3, 45928, Note_on_c, 9, 75, 0
3, 45980, Note_on_c, 9, 51, 57
3, 46006, Note_on_c, 9, 51, 0
3, 46048, Note_on_c, 9, 75, 57
3, 46080, Note_on_c, 9, 75, 0
3, 46117, Note_on_c, 9, 51, 63
3, 46143, Note_on_c, 9, 51, 0
3, 46424, Note_on_c, 9, 40, 33
3, 46512, Note_on_c, 9, 40, 0
3, 46699, Note_on_c, 9, 51, 44
3, 46781, Note_on_c, 9, 51, 0
3, 46800, Note_on_c, 9, 40, 27
3, 46835, Note_on_c, 9, 51, 78
3, 46872, Note_on_c, 9, 40, 0
3, 47053, Note_on_c, 9, 51, 0
3, 47080, Note_on_c, 9, 35, 34
3, 47152, Note_on_c, 9, 35, 0
3, 47213, Note_on_c, 9, 51, 28
3, 47224, Note_on_c, 9, 35, 24
3, 47287, Note_on_c, 9, 51, 0
3, 47288, Note_on_c, 9, 35, 0
3, 47463, Note_on_c, 9, 51, 76
3, 47531, Note_on_c, 9, 51, 0
3, 47576, Note_on_c, 9, 40, 21
3, 47704, Note_on_c, 9, 40, 0
3, 47836, Note_on_c, 9, 51, 45
3, 47876, Note_on_c, 9, 51, 0
3, 47978, Note_on_c, 9, 51, 52
3, 48052, Note_on_c, 9, 51, 0
3, 48128, Note_on_c, 9, 37, 40
3, 48152, Note_on_c, 9, 37, 0
3, 48219, Note_on_c, 9, 53, 60
3, 48224, Note_on_c, 9, 37, 43
3, 48232, Note_on_c, 9, 35, 37
3, 48272, Note_on_c, 9, 37, 0
3, 48288, Note_on_c, 9, 35, 0
3, 48290, Note_on_c, 9, 53, 0
3, 48353, Note_on_c, 9, 51, 35
3, 48368, Note_on_c, 9, 35, 28
3, 48500, Note_on_c, 9, 51, 0
3, 48607, Note_on_c, 9, 51, 59
3, 48608, Note_on_c, 9, 35, 0
3, 48658, Note_on_c, 9, 51, 0
3, 48728, Note_on_c, 9, 40, 20
3, 48752, Note_on_c, 9, 40, 0
3, 48762, Note_on_c, 9, 53, 37
3, 48766, Note_on_c, 9, 51, 63
3, 48844, Note_on_c, 9, 51, 0
3, 48945, Note_on_c, 9, 53, 0
3, 48984, Note_on_c, 9, 40, 27
3, 49008, Note_on_c, 9, 40, 0
3, 49097, Note_on_c, 9, 51, 39
3, 49160, Note_on_c, 9, 51, 0
3, 49375, Note_on_c, 9, 53, 59
3, 49388, Note_on_c, 9, 51, 67
3, 49392, Note_on_c, 9, 35, 30
3, 49432, Note_on_c, 9, 35, 0
3, 49536, Note_on_c, 9, 35, 28
3, 49630, Note_on_c, 9, 53, 0
3, 49633, Note_on_c, 9, 51, 0
3, 49672, Note_on_c, 9, 35, 0
3, 49784, Note_on_c, 9, 51, 33
3, 49812, Note_on_c, 9, 51, 0
3, 49888, Note_on_c, 9, 40, 24
3, 49936, Note_on_c, 9, 53, 65
3, 49947, Note_on_c, 9, 51, 71
3, 49984, Note_on_c, 9, 40, 0
3, 50072, Note_on_c, 9, 37, 38
3, 50096, Note_on_c, 9, 37, 0
3, 50141, Note_on_c, 9, 53, 0
3, 50152, Note_on_c, 9, 51, 0
3, 50306, Note_on_c, 9, 51, 48
3, 50331, Note_on_c, 9, 51, 0
3, 50416, Note_on_c, 9, 37, 24
3, 50480, Note_on_c, 9, 37, 0
3, 50536, Note_on_c, 9, 37, 49
3, 50536, Note_on_c, 9, 35, 36
3, 50557, Note_on_c, 9, 53, 60
3, 50559, Note_on_c, 9, 51, 71
3, 50584, Note_on_c, 9, 37, 0
3, 50600, Note_on_c, 9, 35, 0
3, 50629, Note_on_c, 9, 51, 0
3, 50653, Note_on_c, 9, 53, 0
3, 50664, Note_on_c, 9, 37, 46
3, 50672, Note_on_c, 9, 35, 29
3, 50704, Note_on_c, 9, 37, 0
3, 50712, Note_on_c, 9, 35, 0
3, 50953, Note_on_c, 9, 51, 33
3, 50985, Note_on_c, 9, 51, 0
3, 51016, Note_on_c, 9, 40, 27
3, 51091, Note_on_c, 9, 51, 38
3, 51104, Note_on_c, 9, 40, 0
3, 51150, Note_on_c, 9, 51, 0
3, 51694, Note_on_c, 9, 51, 54
3, 51696, Note_on_c, 9, 35, 45
3, 51766, Note_on_c, 9, 51, 0
3, 51784, Note_on_c, 9, 35, 0
3, 51822, Note_on_c, 9, 51, 50
3, 51996, Note_on_c, 9, 51, 0
3, 52208, Note_on_c, 9, 40, 23
3, 52280, Note_on_c, 9, 40, 0
3, 52472, Note_on_c, 9, 35, 29
3, 52490, Note_on_c, 9, 51, 55
3, 52512, Note_on_c, 9, 35, 0
3, 52565, Note_on_c, 9, 51, 0
3, 52615, Note_on_c, 9, 51, 49
3, 52624, Note_on_c, 9, 35, 22
3, 52672, Note_on_c, 9, 35, 0
3, 52731, Note_on_c, 9, 51, 0
3, 52848, Note_on_c, 9, 35, 41
3, 52858, Note_on_c, 9, 51, 72
3, 52912, Note_on_c, 9, 35, 0
3, 52928, Note_on_c, 9, 51, 0
3, 52984, Note_on_c, 9, 35, 34
3, 52996, Note_on_c, 9, 51, 67
3, 53080, Note_on_c, 9, 35, 0
3, 53121, Note_on_c, 9, 51, 0
3, 53328, Note_on_c, 9, 40, 30
3, 53360, Note_on_c, 9, 40, 0
3, 53603, Note_on_c, 9, 51, 48
3, 53657, Note_on_c, 9, 51, 0
3, 53704, Note_on_c, 9, 40, 36
3, 53745, Note_on_c, 9, 51, 59
3, 53793, Note_on_c, 9, 51, 0
3, 53960, Note_on_c, 9, 40, 0
3, 54016, Note_on_c, 9, 35, 38
3, 54056, Note_on_c, 9, 35, 0
3, 54144, Note_on_c, 9, 35, 40
3, 54147, Note_on_c, 9, 51, 60
3, 54176, Note_on_c, 9, 35, 0
3, 54196, Note_on_c, 9, 51, 0
3, 54248, Note_on_c, 9, 75, 65
3, 54252, Note_on_c, 9, 53, 50
3, 54272, Note_on_c, 9, 75, 0
3, 54345, Note_on_c, 9, 53, 0
3, 54375, Note_on_c, 9, 51, 69
3, 54472, Note_on_c, 9, 40, 33
3, 54479, Note_on_c, 9, 51, 0
3, 54496, Note_on_c, 9, 75, 69
3, 54536, Note_on_c, 9, 75, 0
3, 54576, Note_on_c, 9, 40, 0
3, 54697, Note_on_c, 9, 51, 67
3, 54728, Note_on_c, 9, 75, 69
3, 54750, Note_on_c, 9, 51, 0
3, 54768, Note_on_c, 9, 75, 0
3, 54790, Note_on_c, 9, 53, 53
3, 54880, Note_on_c, 9, 53, 0
3, 54921, Note_on_c, 9, 51, 75
3, 54952, Note_on_c, 9, 75, 63
3, 54984, Note_on_c, 9, 75, 0
3, 55013, Note_on_c, 9, 51, 0
3, 55040, Note_on_c, 9, 35, 27
3, 55080, Note_on_c, 9, 35, 0
3, 55160, Note_on_c, 9, 35, 26
3, 55167, Note_on_c, 9, 53, 49
3, 55176, Note_on_c, 9, 75, 65
3, 55208, Note_on_c, 9, 35, 0
3, 55216, Note_on_c, 9, 75, 0
3, 55258, Note_on_c, 9, 53, 0
3, 55304, Note_on_c, 9, 51, 67
3, 55312, Note_on_c, 9, 35, 33
3, 55368, Note_on_c, 9, 35, 0
3, 55408, Note_on_c, 9, 51, 0
3, 55416, Note_on_c, 9, 75, 54
3, 55456, Note_on_c, 9, 75, 0
3, 55555, Note_on_c, 9, 51, 34
3, 55585, Note_on_c, 9, 51, 0
3, 55640, Note_on_c, 9, 40, 27
3, 55648, Note_on_c, 9, 75, 56
3, 55680, Note_on_c, 9, 40, 0
3, 55688, Note_on_c, 9, 75, 0
3, 55696, Note_on_c, 9, 51, 55
3, 55729, Note_on_c, 9, 51, 0
3, 55888, Note_on_c, 9, 75, 51
3, 55904, Note_on_c, 9, 51, 46
3, 55912, Note_on_c, 9, 75, 0
3, 55925, Note_on_c, 9, 51, 55
3, 55944, Note_on_c, 9, 51, 0
3, 55963, Note_on_c, 9, 51, 0
3, 56032, Note_on_c, 9, 51, 39
3, 56075, Note_on_c, 9, 51, 38
3, 56088, Note_on_c, 9, 51, 0
3, 56098, Note_on_c, 9, 51, 0
3, 56112, Note_on_c, 9, 75, 57
3, 56152, Note_on_c, 9, 75, 0
3, 56280, Note_on_c, 9, 53, 67
3, 56288, Note_on_c, 9, 35, 29
3, 56295, Note_on_c, 9, 53, 55
3, 56312, Note_on_c, 9, 53, 0
3, 56336, Note_on_c, 9, 35, 0
3, 56352, Note_on_c, 9, 75, 59
3, 56377, Note_on_c, 9, 53, 0
3, 56392, Note_on_c, 9, 75, 0
3, 56440, Note_on_c, 9, 35, 18
3, 56442, Note_on_c, 9, 51, 33
3, 56456, Note_on_c, 9, 51, 33
3, 56480, Note_on_c, 9, 35, 0
3, 56488, Note_on_c, 9, 51, 0
3, 56492, Note_on_c, 9, 51, 0
3, 56592, Note_on_c, 9, 51, 29
3, 56600, Note_on_c, 9, 75, 59
3, 56632, Note_on_c, 9, 51, 0
3, 56640, Note_on_c, 9, 75, 0
3, 56657, Note_on_c, 9, 53, 56
3, 56767, Note_on_c, 9, 53, 0
3, 56789, Note_on_c, 9, 51, 43
3, 56792, Note_on_c, 9, 40, 35
3, 56840, Note_on_c, 9, 40, 0
3, 56848, Note_on_c, 9, 51, 31
3, 56867, Note_on_c, 9, 51, 0
3, 56880, Note_on_c, 9, 51, 0
3, 57096, Note_on_c, 9, 51, 32
3, 57120, Note_on_c, 9, 51, 0
3, 57176, Note_on_c, 9, 40, 24
3, 57208, Note_on_c, 9, 40, 0
3, 57209, Note_on_c, 9, 51, 51
3, 57241, Note_on_c, 9, 51, 0
3, 57344, Note_on_c, 9, 51, 47
3, 57368, Note_on_c, 9, 51, 0
3, 57456, Note_on_c, 9, 35, 36
3, 57465, Note_on_c, 9, 53, 49
3, 57472, Note_on_c, 9, 51, 38
3, 57496, Note_on_c, 9, 35, 0
3, 57528, Note_on_c, 9, 51, 0
3, 57548, Note_on_c, 9, 53, 0
3, 57584, Note_on_c, 9, 35, 27
3, 57592, Note_on_c, 9, 51, 47
3, 57616, Note_on_c, 9, 51, 35
3, 57624, Note_on_c, 9, 35, 0
3, 57632, Note_on_c, 9, 51, 0
3, 57659, Note_on_c, 9, 51, 0
3, 57728, Note_on_c, 9, 51, 36
3, 57752, Note_on_c, 9, 51, 0
3, 57838, Note_on_c, 9, 51, 64
3, 57888, Note_on_c, 9, 51, 0
3, 57952, Note_on_c, 9, 40, 27
3, 57984, Note_on_c, 9, 51, 64
3, 57985, Note_on_c, 9, 51, 49
3, 57992, Note_on_c, 9, 40, 0
3, 58030, Note_on_c, 9, 51, 0
3, 58032, Note_on_c, 9, 51, 0
3, 58104, Note_on_c, 9, 51, 55
3, 58128, Note_on_c, 9, 51, 0
3, 58226, Note_on_c, 9, 53, 64
3, 58296, Note_on_c, 9, 53, 0
3, 58384, Note_on_c, 9, 51, 52
3, 58424, Note_on_c, 9, 51, 0
3, 58472, Note_on_c, 9, 51, 53
3, 58512, Note_on_c, 9, 51, 0
3, 58594, Note_on_c, 9, 53, 69
3, 58608, Note_on_c, 9, 35, 30
3, 58648, Note_on_c, 9, 35, 0
3, 58674, Note_on_c, 9, 53, 0
3, 58747, Note_on_c, 9, 51, 59
3, 58822, Note_on_c, 9, 51, 0
3, 58856, Note_on_c, 9, 51, 56
3, 58904, Note_on_c, 9, 51, 0
3, 58973, Note_on_c, 9, 53, 52
3, 59040, Note_on_c, 9, 40, 44
3, 59046, Note_on_c, 9, 53, 0
3, 59064, Note_on_c, 9, 40, 0
3, 59088, Note_on_c, 9, 40, 26
3, 59104, Note_on_c, 9, 51, 45
3, 59152, Note_on_c, 9, 51, 64
3, 59168, Note_on_c, 9, 51, 0
3, 59168, Note_on_c, 9, 40, 0
3, 59200, Note_on_c, 9, 51, 0
3, 59367, Note_on_c, 9, 53, 46
3, 59392, Note_on_c, 9, 51, 57
3, 59416, Note_on_c, 9, 51, 0
3, 59416, Note_on_c, 9, 40, 48
3, 59440, Note_on_c, 9, 40, 0
3, 59463, Note_on_c, 9, 53, 0
3, 59521, Note_on_c, 9, 51, 42
3, 59579, Note_on_c, 9, 51, 0
3, 59640, Note_on_c, 9, 51, 67
3, 59672, Note_on_c, 9, 40, 53
3, 59680, Note_on_c, 9, 51, 0
3, 59728, Note_on_c, 9, 40, 0
3, 59744, Note_on_c, 9, 53, 29
3, 59752, Note_on_c, 9, 35, 40
3, 59765, Note_on_c, 9, 53, 55
3, 59768, Note_on_c, 9, 53, 0
3, 59768, Note_on_c, 9, 37, 58
3, 59800, Note_on_c, 9, 37, 0
3, 59816, Note_on_c, 9, 35, 0
3, 59831, Note_on_c, 9, 53, 0
3, 59853, Note_on_c, 9, 57, 39
3, 59856, Note_on_c, 9, 38, 69
3, 59896, Note_on_c, 9, 38, 0
3, 59899, Note_on_c, 9, 51, 62
3, 59902, Note_on_c, 9, 57, 0
3, 59904, Note_on_c, 9, 35, 18
3, 59928, Note_on_c, 9, 35, 0
3, 59948, Note_on_c, 9, 51, 0
3, 60256, Note_on_c, 9, 51, 25
3, 60256, Note_on_c, 9, 40, 36
3, 60280, Note_on_c, 9, 51, 0
3, 60320, Note_on_c, 9, 40, 0
3, 60528, Note_on_c, 9, 51, 39
3, 60568, Note_on_c, 9, 51, 0
3, 60640, Note_on_c, 9, 51, 31
3, 60712, Note_on_c, 9, 51, 0
3, 60912, Note_on_c, 9, 51, 39
3, 60912, Note_on_c, 9, 35, 40
3, 60968, Note_on_c, 9, 35, 0
3, 60968, Note_on_c, 9, 51, 0
3, 61040, Note_on_c, 9, 51, 36
3, 61048, Note_on_c, 9, 35, 29
3, 61080, Note_on_c, 9, 35, 0
3, 61080, Note_on_c, 9, 51, 0
3, 61400, Note_on_c, 9, 40, 29
3, 61464, Note_on_c, 9, 40, 0
3, 61512, Note_on_c, 9, 35, 28
3, 61544, Note_on_c, 9, 35, 0
3, 61672, Note_on_c, 9, 51, 57
3, 61720, Note_on_c, 9, 51, 0
3, 61768, Note_on_c, 9, 40, 24
3, 61816, Note_on_c, 9, 51, 32
3, 61832, Note_on_c, 9, 35, 36
3, 61856, Note_on_c, 9, 35, 0
3, 61864, Note_on_c, 9, 51, 0
3, 61880, Note_on_c, 9, 40, 0
3, 62040, Note_on_c, 9, 35, 35
3, 62056, Note_on_c, 9, 51, 52
3, 62088, Note_on_c, 9, 51, 0
3, 62088, Note_on_c, 9, 35, 0
3, 62184, Note_on_c, 9, 51, 38
3, 62184, Note_on_c, 9, 35, 29
3, 62216, Note_on_c, 9, 35, 0
3, 62232, Note_on_c, 9, 51, 0
3, 62544, Note_on_c, 9, 40, 37
3, 62552, Note_on_c, 9, 51, 47
3, 62600, Note_on_c, 9, 51, 0
3, 62600, Note_on_c, 9, 40, 0
3, 62952, Note_on_c, 9, 51, 38
3, 62984, Note_on_c, 9, 51, 0
3, 63192, Note_on_c, 9, 35, 33
3, 63200, Note_on_c, 9, 51, 55
3, 63240, Note_on_c, 9, 51, 0
3, 63248, Note_on_c, 9, 35, 0
3, 63336, Note_on_c, 9, 51, 38
3, 63344, Note_on_c, 9, 35, 26
3, 63384, Note_on_c, 9, 35, 0
3, 63464, Note_on_c, 9, 51, 0
3, 63680, Note_on_c, 9, 40, 34
3, 63704, Note_on_c, 9, 51, 36
3, 63752, Note_on_c, 9, 40, 0
3, 63760, Note_on_c, 9, 51, 0
3, 63952, Note_on_c, 9, 51, 51
3, 63984, Note_on_c, 9, 51, 0
3, 64080, Note_on_c, 9, 51, 42
3, 64144, Note_on_c, 9, 51, 0
3, 64336, Note_on_c, 9, 51, 56
3, 64344, Note_on_c, 9, 35, 37
3, 64408, Note_on_c, 9, 35, 0
3, 64408, Note_on_c, 9, 51, 0
3, 64464, Note_on_c, 9, 51, 46
3, 64488, Note_on_c, 9, 35, 33
3, 64512, Note_on_c, 9, 51, 0
3, 64536, Note_on_c, 9, 35, 0
3, 64856, Note_on_c, 9, 51, 47
3, 64856, Note_on_c, 9, 40, 34
3, 64920, Note_on_c, 9, 40, 0
3, 64928, Note_on_c, 9, 51, 0
3, 65248, Note_on_c, 9, 51, 36
3, 65312, Note_on_c, 9, 51, 0
3, 65488, Note_on_c, 9, 35, 40
3, 65560, Note_on_c, 9, 35, 0
3, 65624, Note_on_c, 9, 35, 28
3, 65648, Note_on_c, 9, 51, 40
3, 65672, Note_on_c, 9, 35, 0
3, 65712, Note_on_c, 9, 51, 0
3, 65992, Note_on_c, 9, 40, 33
3, 66024, Note_on_c, 9, 51, 42
3, 66080, Note_on_c, 9, 51, 0
3, 66096, Note_on_c, 9, 40, 0
3, 66288, Note_on_c, 9, 51, 47
3, 66328, Note_on_c, 9, 51, 0
3, 66424, Note_on_c, 9, 51, 32
3, 66488, Note_on_c, 9, 51, 0
3, 66656, Note_on_c, 9, 35, 27
3, 66712, Note_on_c, 9, 35, 0
3, 66792, Note_on_c, 9, 51, 38
3, 66792, Note_on_c, 9, 35, 30
3, 66856, Note_on_c, 9, 51, 0
3, 66872, Note_on_c, 9, 35, 0
3, 67136, Note_on_c, 9, 40, 27
3, 67176, Note_on_c, 9, 51, 38
3, 67208, Note_on_c, 9, 40, 0
3, 67232, Note_on_c, 9, 51, 0
3, 67456, Note_on_c, 9, 51, 44
3, 67480, Note_on_c, 9, 51, 0
3, 67568, Note_on_c, 9, 51, 36
3, 67640, Note_on_c, 9, 51, 0
3, 67832, Note_on_c, 9, 35, 25
3, 67840, Note_on_c, 9, 51, 39
3, 67880, Note_on_c, 9, 35, 0
3, 67888, Note_on_c, 9, 51, 0
3, 67944, Note_on_c, 9, 51, 33
3, 67952, Note_on_c, 9, 35, 39
3, 68008, Note_on_c, 9, 35, 0
3, 68016, Note_on_c, 9, 51, 0
3, 68304, Note_on_c, 9, 40, 27
3, 68320, Note_on_c, 9, 51, 37
3, 68368, Note_on_c, 9, 51, 0
3, 68376, Note_on_c, 9, 40, 0
3, 68664, Note_on_c, 9, 40, 27
3, 68704, Note_on_c, 9, 51, 30
3, 68736, Note_on_c, 9, 51, 0
3, 68896, Note_on_c, 9, 40, 0
3, 68936, Note_on_c, 9, 51, 46
3, 68968, Note_on_c, 9, 35, 29
3, 69000, Note_on_c, 9, 51, 0
3, 69016, Note_on_c, 9, 35, 0
3, 69064, Note_on_c, 9, 51, 38
3, 69112, Note_on_c, 9, 35, 23
3, 69136, Note_on_c, 9, 51, 0
3, 69168, Note_on_c, 9, 35, 0
3, 69448, Note_on_c, 9, 40, 28
3, 69464, Note_on_c, 9, 51, 57
3, 69512, Note_on_c, 9, 40, 0
3, 69544, Note_on_c, 9, 51, 0
3, 69744, Note_on_c, 9, 51, 36
3, 69800, Note_on_c, 9, 51, 0
3, 69864, Note_on_c, 9, 51, 37
3, 69864, Note_on_c, 9, 40, 29
3, 69936, Note_on_c, 9, 51, 0
3, 69952, Note_on_c, 9, 40, 0
3, 70152, Note_on_c, 9, 35, 18
3, 70192, Note_on_c, 9, 35, 0
3, 70256, Note_on_c, 9, 51, 67
3, 70272, Note_on_c, 9, 35, 32
3, 70312, Note_on_c, 9, 35, 0
3, 70336, Note_on_c, 9, 51, 0
3, 70616, Note_on_c, 9, 40, 34
3, 70648, Note_on_c, 9, 51, 42
3, 70680, Note_on_c, 9, 51, 0
3, 70696, Note_on_c, 9, 40, 0
3, 71000, Note_on_c, 9, 51, 47
3, 71024, Note_on_c, 9, 51, 0
3, 71256, Note_on_c, 9, 35, 33
3, 71288, Note_on_c, 9, 51, 35
3, 71328, Note_on_c, 9, 35, 0
3, 71344, Note_on_c, 9, 51, 0
3, 71400, Note_on_c, 9, 51, 47
3, 71400, Note_on_c, 9, 35, 33
3, 71456, Note_on_c, 9, 51, 0
3, 71472, Note_on_c, 9, 35, 0
3, 71776, Note_on_c, 9, 51, 60
3, 71824, Note_on_c, 9, 51, 0
3, 72152, Note_on_c, 9, 51, 56
3, 72152, Note_on_c, 9, 40, 38
3, 72200, Note_on_c, 9, 51, 0
3, 72216, Note_on_c, 9, 40, 0
3, 72424, Note_on_c, 9, 35, 30
3, 72488, Note_on_c, 9, 35, 0
3, 72536, Note_on_c, 9, 51, 58
3, 72568, Note_on_c, 9, 35, 24
3, 72600, Note_on_c, 9, 51, 0
3, 72624, Note_on_c, 9, 35, 0
3, 72896, Note_on_c, 9, 40, 29
3, 72936, Note_on_c, 9, 51, 52
3, 72976, Note_on_c, 9, 40, 0
3, 73000, Note_on_c, 9, 51, 0
3, 73168, Note_on_c, 9, 51, 44
3, 73200, Note_on_c, 9, 51, 0
3, 73216, Note_on_c, 9, 35, 20
3, 73248, Note_on_c, 9, 35, 0
3, 73280, Note_on_c, 9, 40, 26
3, 73288, Note_on_c, 9, 51, 49
3, 73312, Note_on_c, 9, 40, 0
3, 73416, Note_on_c, 9, 51, 0
3, 73568, Note_on_c, 9, 51, 38
3, 73584, Note_on_c, 9, 35, 28
3, 73624, Note_on_c, 9, 51, 0
3, 73632, Note_on_c, 9, 35, 0
3, 73680, Note_on_c, 9, 51, 47
3, 73712, Note_on_c, 9, 35, 32
3, 73752, Note_on_c, 9, 35, 0
3, 73768, Note_on_c, 9, 51, 0
3, 74056, Note_on_c, 9, 40, 33
3, 74072, Note_on_c, 9, 51, 44
3, 74128, Note_on_c, 9, 51, 0
3, 74136, Note_on_c, 9, 40, 0
3, 74352, Note_on_c, 9, 51, 46
3, 74400, Note_on_c, 9, 51, 0
3, 74632, Note_on_c, 9, 37, 29
3, 74656, Note_on_c, 9, 51, 51
3, 74664, Note_on_c, 9, 37, 0
3, 74680, Note_on_c, 9, 51, 0
3, 74728, Note_on_c, 9, 35, 35
3, 74784, Note_on_c, 9, 35, 0
3, 74872, Note_on_c, 9, 35, 26
3, 74912, Note_on_c, 9, 35, 0
3, 74928, Note_on_c, 9, 51, 48
3, 74984, Note_on_c, 9, 51, 0
3, 75056, Note_on_c, 9, 51, 53
3, 75096, Note_on_c, 9, 51, 0
3, 75192, Note_on_c, 9, 51, 38
3, 75224, Note_on_c, 9, 51, 0
3, 75448, Note_on_c, 9, 37, 26
3, 75480, Note_on_c, 9, 37, 0
3, 75480, Note_on_c, 9, 51, 57
3, 75504, Note_on_c, 9, 51, 0
3, 75608, Note_on_c, 9, 40, 29
3, 75696, Note_on_c, 9, 40, 0
3, 75776, Note_on_c, 9, 51, 53
3, 75808, Note_on_c, 9, 51, 0
3, 75888, Note_on_c, 9, 51, 51
3, 75896, Note_on_c, 9, 35, 24
3, 75944, Note_on_c, 9, 35, 0
3, 75952, Note_on_c, 9, 51, 0
3, 76008, Note_on_c, 9, 51, 51
3, 76024, Note_on_c, 9, 35, 29
3, 76040, Note_on_c, 9, 51, 0
3, 76064, Note_on_c, 9, 35, 0
3, 76128, Note_on_c, 9, 37, 26
3, 76152, Note_on_c, 9, 51, 34
3, 76168, Note_on_c, 9, 51, 0
3, 76184, Note_on_c, 9, 37, 0
3, 76368, Note_on_c, 9, 40, 34
3, 76416, Note_on_c, 9, 51, 59
3, 76440, Note_on_c, 9, 51, 0
3, 76448, Note_on_c, 9, 40, 0
3, 76552, Note_on_c, 9, 37, 38
3, 76576, Note_on_c, 9, 37, 0
3, 76672, Note_on_c, 9, 51, 51
3, 76696, Note_on_c, 9, 51, 0
3, 76904, Note_on_c, 9, 37, 25
3, 76904, Note_on_c, 9, 51, 59
3, 76944, Note_on_c, 9, 51, 0
3, 76992, Note_on_c, 9, 37, 0
3, 77024, Note_on_c, 9, 37, 22
3, 77024, Note_on_c, 9, 53, 60
3, 77048, Note_on_c, 9, 35, 38
3, 77064, Note_on_c, 9, 37, 0
3, 77088, Note_on_c, 9, 53, 0
3, 77096, Note_on_c, 9, 35, 0
3, 77168, Note_on_c, 9, 51, 37
3, 77184, Note_on_c, 9, 35, 33
3, 77192, Note_on_c, 9, 51, 0
3, 77288, Note_on_c, 9, 53, 63
3, 77336, Note_on_c, 9, 53, 0
3, 77336, Note_on_c, 9, 37, 26
3, 77400, Note_on_c, 9, 37, 0
3, 77424, Note_on_c, 9, 51, 37
3, 77448, Note_on_c, 9, 51, 0
3, 77448, Note_on_c, 9, 37, 21
3, 77488, Note_on_c, 9, 37, 0
3, 77504, Note_on_c, 9, 35, 0
3, 77512, Note_on_c, 9, 40, 26
3, 77552, Note_on_c, 9, 53, 60
3, 77600, Note_on_c, 9, 40, 0
3, 77608, Note_on_c, 9, 53, 0
3, 77688, Note_on_c, 9, 51, 46
3, 77720, Note_on_c, 9, 51, 0
3, 77720, Note_on_c, 9, 37, 28
3, 77752, Note_on_c, 9, 37, 0
3, 77800, Note_on_c, 9, 35, 24
3, 77824, Note_on_c, 9, 37, 31
3, 77824, Note_on_c, 9, 53, 59
3, 77840, Note_on_c, 9, 35, 0
3, 77864, Note_on_c, 9, 37, 0
3, 77880, Note_on_c, 9, 53, 0
3, 77952, Note_on_c, 9, 51, 38
3, 77992, Note_on_c, 9, 51, 0
3, 78064, Note_on_c, 9, 53, 71
3, 78104, Note_on_c, 9, 37, 31
3, 78120, Note_on_c, 9, 53, 0
3, 78136, Note_on_c, 9, 37, 0
3, 78176, Note_on_c, 9, 35, 49
3, 78184, Note_on_c, 9, 51, 46
3, 78200, Note_on_c, 9, 37, 31
3, 78240, Note_on_c, 9, 37, 0
3, 78248, Note_on_c, 9, 35, 0
3, 78256, Note_on_c, 9, 51, 0
3, 78304, Note_on_c, 9, 51, 52
3, 78320, Note_on_c, 9, 35, 35
3, 78352, Note_on_c, 9, 51, 0
3, 78648, Note_on_c, 9, 35, 0
3, 78656, Note_on_c, 9, 40, 25
3, 78696, Note_on_c, 9, 51, 33
3, 78720, Note_on_c, 9, 51, 0
3, 78752, Note_on_c, 9, 40, 0
3, 78944, Note_on_c, 9, 51, 45
3, 78968, Note_on_c, 9, 51, 0
3, 79080, Note_on_c, 9, 51, 28
3, 79104, Note_on_c, 9, 51, 0
3, 79344, Note_on_c, 9, 35, 32
3, 79392, Note_on_c, 9, 35, 0
3, 79480, Note_on_c, 9, 35, 30
3, 79680, Note_on_c, 9, 51, 62
3, 79688, Note_on_c, 9, 35, 0
3, 79728, Note_on_c, 9, 51, 0
3, 79824, Note_on_c, 9, 51, 37
3, 79824, Note_on_c, 9, 40, 26
3, 79888, Note_on_c, 9, 51, 0
3, 79896, Note_on_c, 9, 40, 0
3, 80096, Note_on_c, 9, 51, 36
3, 80104, Note_on_c, 9, 35, 30
3, 80120, Note_on_c, 9, 51, 0
3, 80144, Note_on_c, 9, 35, 0
3, 80352, Note_on_c, 9, 51, 60
3, 80384, Note_on_c, 9, 51, 0
3, 80384, Note_on_c, 9, 40, 28
3, 80424, Note_on_c, 9, 40, 0
3, 80480, Note_on_c, 9, 51, 51
3, 80488, Note_on_c, 9, 35, 54
3, 80496, Note_on_c, 9, 37, 30
3, 80520, Note_on_c, 9, 51, 0
3, 80552, Note_on_c, 9, 37, 0
3, 80616, Note_on_c, 9, 51, 44
3, 80624, Note_on_c, 9, 35, 0
3, 80632, Note_on_c, 9, 51, 0
3, 80792, Note_on_c, 9, 40, 38
3, 80832, Note_on_c, 9, 40, 0
3, 80872, Note_on_c, 9, 51, 64
3, 80912, Note_on_c, 9, 51, 0
3, 80920, Note_on_c, 9, 37, 20
3, 80960, Note_on_c, 9, 37, 0
3, 80992, Note_on_c, 9, 40, 30
3, 81016, Note_on_c, 9, 51, 36
3, 81072, Note_on_c, 9, 40, 0
3, 81088, Note_on_c, 9, 51, 0
3, 81408, Note_on_c, 9, 51, 37
3, 81440, Note_on_c, 9, 51, 0
3, 81536, Note_on_c, 9, 35, 31
3, 81576, Note_on_c, 9, 35, 0
3, 81664, Note_on_c, 9, 51, 48
3, 81664, Note_on_c, 9, 35, 38
3, 81704, Note_on_c, 9, 35, 0
3, 81720, Note_on_c, 9, 51, 0
3, 81800, Note_on_c, 9, 35, 25
3, 81808, Note_on_c, 9, 51, 32
3, 81848, Note_on_c, 9, 35, 0
3, 81872, Note_on_c, 9, 51, 0
3, 82120, Note_on_c, 9, 40, 27
3, 82144, Note_on_c, 9, 40, 0
3, 82168, Note_on_c, 9, 51, 40
3, 82216, Note_on_c, 9, 51, 0
3, 82504, Note_on_c, 9, 40, 27
3, 82536, Note_on_c, 9, 51, 46
3, 82600, Note_on_c, 9, 51, 0
3, 82616, Note_on_c, 9, 75, 29
3, 82680, Note_on_c, 9, 75, 0
3, 82688, Note_on_c, 9, 40, 0
3, 82736, Note_on_c, 9, 75, 46
3, 82776, Note_on_c, 9, 75, 0
3, 82792, Note_on_c, 9, 35, 30
3, 82808, Note_on_c, 9, 51, 50
3, 82832, Note_on_c, 9, 35, 0
3, 82848, Note_on_c, 9, 51, 0
3, 82928, Note_on_c, 9, 51, 35
3, 83000, Note_on_c, 9, 51, 0
3, 83304, Note_on_c, 9, 51, 38
3, 83312, Note_on_c, 9, 40, 24
3, 83376, Note_on_c, 9, 40, 0
3, 83376, Note_on_c, 9, 51, 0
3, 83704, Note_on_c, 9, 51, 43
3, 83768, Note_on_c, 9, 51, 0
3, 83936, Note_on_c, 9, 35, 30
3, 83976, Note_on_c, 9, 51, 50
3, 83992, Note_on_c, 9, 35, 0
3, 84032, Note_on_c, 9, 51, 0
3, 84072, Note_on_c, 9, 35, 26
3, 84112, Note_on_c, 9, 35, 0
3, 84112, Note_on_c, 9, 51, 25
3, 84176, Note_on_c, 9, 51, 0
3, 84440, Note_on_c, 9, 40, 28
3, 84464, Note_on_c, 9, 64, 35
3, 84472, Note_on_c, 9, 51, 52
3, 84496, Note_on_c, 9, 64, 0
3, 84496, Note_on_c, 9, 40, 0
3, 84528, Note_on_c, 9, 51, 0
3, 84712, Note_on_c, 9, 51, 56
3, 84728, Note_on_c, 9, 64, 33
3, 84752, Note_on_c, 9, 64, 0
3, 84760, Note_on_c, 9, 51, 0
3, 84848, Note_on_c, 9, 51, 31
3, 84904, Note_on_c, 9, 51, 0
3, 85080, Note_on_c, 9, 51, 67
3, 85088, Note_on_c, 9, 35, 36
3, 85128, Note_on_c, 9, 35, 0
3, 85136, Note_on_c, 9, 51, 0
3, 85224, Note_on_c, 9, 63, 21
3, 85224, Note_on_c, 9, 51, 56
3, 85232, Note_on_c, 9, 35, 27
3, 85256, Note_on_c, 9, 51, 0
3, 85272, Note_on_c, 9, 35, 0
3, 85384, Note_on_c, 9, 63, 0
3, 85472, Note_on_c, 9, 51, 64
3, 85512, Note_on_c, 9, 51, 0
3, 85576, Note_on_c, 9, 40, 26
3, 85616, Note_on_c, 9, 51, 43
3, 85640, Note_on_c, 9, 51, 0
3, 85656, Note_on_c, 9, 40, 0
3, 85856, Note_on_c, 9, 63, 42
3, 85936, Note_on_c, 9, 63, 0
3, 86104, Note_on_c, 9, 51, 60
3, 86128, Note_on_c, 9, 51, 0
3, 86216, Note_on_c, 9, 51, 51
3, 86240, Note_on_c, 9, 51, 0
3, 86248, Note_on_c, 9, 35, 36
3, 86312, Note_on_c, 9, 35, 0
3, 86352, Note_on_c, 9, 51, 61
3, 86376, Note_on_c, 9, 51, 0
3, 86384, Note_on_c, 9, 35, 28
3, 86424, Note_on_c, 9, 35, 0
3, 86424, Note_on_c, 9, 64, 4
3, 86472, Note_on_c, 9, 64, 0
3, 86488, Note_on_c, 9, 51, 62
3, 86520, Note_on_c, 9, 51, 0
3, 86600, Note_on_c, 9, 64, 35
3, 86632, Note_on_c, 9, 64, 0
3, 86760, Note_on_c, 9, 51, 56
3, 86768, Note_on_c, 9, 40, 19
3, 86800, Note_on_c, 9, 51, 0
3, 86840, Note_on_c, 9, 40, 0
3, 86864, Note_on_c, 9, 51, 56
3, 86920, Note_on_c, 9, 51, 0
3, 87144, Note_on_c, 9, 51, 63
3, 87192, Note_on_c, 9, 51, 0
3, 87248, Note_on_c, 9, 51, 56
3, 87288, Note_on_c, 9, 51, 0
3, 87392, Note_on_c, 9, 35, 51
3, 87456, Note_on_c, 9, 35, 0
3, 87512, Note_on_c, 9, 51, 67
3, 87536, Note_on_c, 9, 35, 34
3, 87552, Note_on_c, 9, 51, 0
3, 87592, Note_on_c, 9, 35, 0
3, 87888, Note_on_c, 9, 40, 24
3, 87896, Note_on_c, 9, 51, 52
3, 87944, Note_on_c, 9, 51, 0
3, 87976, Note_on_c, 9, 40, 0
3, 88168, Note_on_c, 9, 51, 53
3, 88208, Note_on_c, 9, 51, 0
3, 88552, Note_on_c, 9, 51, 40
3, 88552, Note_on_c, 9, 35, 27
3, 88576, Note_on_c, 9, 35, 0
3, 88584, Note_on_c, 9, 51, 0
3, 88672, Note_on_c, 9, 51, 36
3, 88736, Note_on_c, 9, 51, 0
3, 89048, Note_on_c, 9, 51, 63
3, 89056, Note_on_c, 9, 40, 26
3, 89112, Note_on_c, 9, 51, 0
3, 89208, Note_on_c, 9, 40, 0
3, 89424, Note_on_c, 9, 40, 27
3, 89456, Note_on_c, 9, 51, 47
3, 89480, Note_on_c, 9, 40, 0
3, 89552, Note_on_c, 9, 51, 0
3, 89688, Note_on_c, 9, 35, 42
3, 89712, Note_on_c, 9, 51, 53
3, 89768, Note_on_c, 9, 51, 0
3, 89768, Note_on_c, 9, 35, 0
3, 89848, Note_on_c, 9, 35, 22
3, 89880, Note_on_c, 9, 35, 0
3, 90096, Note_on_c, 9, 51, 48
3, 90136, Note_on_c, 9, 51, 0
3, 90216, Note_on_c, 9, 40, 21
3, 90224, Note_on_c, 9, 51, 55
3, 90248, Note_on_c, 9, 40, 0
3, 90256, Note_on_c, 9, 51, 0
3, 90616, Note_on_c, 9, 51, 34
3, 90680, Note_on_c, 9, 51, 0
3, 90848, Note_on_c, 9, 35, 52
3, 90872, Note_on_c, 9, 51, 37
3, 90904, Note_on_c, 9, 51, 0
3, 90904, Note_on_c, 9, 35, 0
3, 91000, Note_on_c, 9, 51, 34
3, 91072, Note_on_c, 9, 51, 0
3, 91352, Note_on_c, 9, 40, 24
3, 91384, Note_on_c, 9, 51, 39
3, 91456, Note_on_c, 9, 51, 0
3, 91536, Note_on_c, 9, 40, 0
3, 91656, Note_on_c, 9, 51, 37
3, 91688, Note_on_c, 9, 51, 0
3, 91736, Note_on_c, 9, 40, 26
3, 91800, Note_on_c, 9, 51, 30
3, 91840, Note_on_c, 9, 40, 0
3, 91880, Note_on_c, 9, 51, 0
3, 92024, Note_on_c, 9, 35, 24
3, 92040, Note_on_c, 9, 51, 46
3, 92096, Note_on_c, 9, 35, 0
3, 92104, Note_on_c, 9, 51, 0
3, 92160, Note_on_c, 9, 35, 31
3, 92168, Note_on_c, 9, 51, 40
3, 92216, Note_on_c, 9, 35, 0
3, 92224, Note_on_c, 9, 51, 0
3, 92272, Note_on_c, 9, 75, 73
3, 92296, Note_on_c, 9, 75, 0
3, 92488, Note_on_c, 9, 40, 27
3, 92496, Note_on_c, 9, 75, 69
3, 92528, Note_on_c, 9, 75, 0
3, 92536, Note_on_c, 9, 51, 32
3, 92576, Note_on_c, 9, 40, 0
3, 92592, Note_on_c, 9, 51, 0
3, 92728, Note_on_c, 9, 75, 70
3, 92760, Note_on_c, 9, 75, 0
3, 92760, Note_on_c, 9, 40, 41
3, 92776, Note_on_c, 9, 51, 32
3, 92800, Note_on_c, 9, 51, 0
3, 92808, Note_on_c, 9, 40, 0
3, 92888, Note_on_c, 9, 51, 38
3, 92944, Note_on_c, 9, 51, 0
3, 92960, Note_on_c, 9, 75, 72
3, 93032, Note_on_c, 9, 75, 0
3, 93176, Note_on_c, 9, 35, 33
3, 93216, Note_on_c, 9, 35, 0
3, 93216, Note_on_c, 9, 75, 63
3, 93272, Note_on_c, 9, 51, 38
3, 93280, Note_on_c, 9, 75, 0
3, 93328, Note_on_c, 9, 35, 32
3, 93344, Note_on_c, 9, 51, 0
3, 93352, Note_on_c, 9, 35, 0
3, 93488, Note_on_c, 9, 75, 54
3, 93536, Note_on_c, 9, 75, 0
3, 93664, Note_on_c, 9, 40, 29
3, 93672, Note_on_c, 9, 51, 36
3, 93720, Note_on_c, 9, 51, 0
3, 93728, Note_on_c, 9, 40, 0
3, 94064, Note_on_c, 9, 51, 42
3, 94096, Note_on_c, 9, 51, 0
3, 94304, Note_on_c, 9, 35, 27
3, 94320, Note_on_c, 9, 51, 55
3, 94336, Note_on_c, 9, 35, 0
3, 94376, Note_on_c, 9, 51, 0
3, 94448, Note_on_c, 9, 51, 37
3, 94512, Note_on_c, 9, 51, 0
3, 94816, Note_on_c, 9, 40, 25
3, 94824, Note_on_c, 9, 51, 35
3, 94864, Note_on_c, 9, 40, 0
3, 94872, Note_on_c, 9, 51, 0
3, 95080, Note_on_c, 9, 51, 65
3, 95104, Note_on_c, 9, 51, 0
3, 95184, Note_on_c, 9, 40, 36
3, 95240, Note_on_c, 9, 40, 0
3, 95424, Note_on_c, 9, 51, 57
3, 95448, Note_on_c, 9, 51, 0
3, 95512, Note_on_c, 9, 51, 37
3, 95560, Note_on_c, 9, 51, 0
3, 95608, Note_on_c, 9, 51, 51
3, 95640, Note_on_c, 9, 35, 22
3, 95664, Note_on_c, 9, 35, 0
3, 95664, Note_on_c, 9, 51, 0
3, 95712, Note_on_c, 9, 40, 37
3, 95768, Note_on_c, 9, 40, 0
3, 95840, Note_on_c, 9, 40, 20
3, 95912, Note_on_c, 9, 40, 0
3, 96000, Note_on_c, 9, 51, 47
3, 96056, Note_on_c, 9, 51, 0
3, 96112, Note_on_c, 9, 51, 40
3, 96152, Note_on_c, 9, 51, 0
3, 96440, Note_on_c, 9, 51, 40
3, 96480, Note_on_c, 9, 51, 0
3, 96520, Note_on_c, 9, 51, 62
3, 96552, Note_on_c, 9, 51, 0
3, 96584, Note_on_c, 9, 37, 51
3, 96608, Note_on_c, 9, 35, 36
3, 96632, Note_on_c, 9, 37, 0
3, 96664, Note_on_c, 9, 35, 0
3, 96720, Note_on_c, 9, 37, 44
3, 96752, Note_on_c, 9, 35, 30
3, 96768, Note_on_c, 9, 37, 0
3, 96824, Note_on_c, 9, 35, 0
3, 96928, Note_on_c, 9, 51, 57
3, 96968, Note_on_c, 9, 51, 0
3, 97016, Note_on_c, 9, 51, 51
3, 97056, Note_on_c, 9, 51, 0
3, 97096, Note_on_c, 9, 40, 33
3, 97120, Note_on_c, 9, 40, 0
3, 97136, Note_on_c, 9, 51, 56
3, 97176, Note_on_c, 9, 51, 0
3, 97368, Note_on_c, 9, 51, 55
3, 97424, Note_on_c, 9, 51, 0
3, 97504, Note_on_c, 9, 51, 38
3, 97568, Note_on_c, 9, 51, 0
3, 97752, Note_on_c, 9, 51, 59
3, 97752, Note_on_c, 9, 35, 40
3, 97800, Note_on_c, 9, 35, 0
3, 97816, Note_on_c, 9, 51, 0
3, 97880, Note_on_c, 9, 51, 32
3, 97888, Note_on_c, 9, 35, 33
3, 97936, Note_on_c, 9, 35, 0
3, 97968, Note_on_c, 9, 51, 0
3, 98272, Note_on_c, 9, 51, 40
3, 98328, Note_on_c, 9, 51, 0
3, 98688, Note_on_c, 9, 51, 32
3, 98744, Note_on_c, 9, 51, 0
3, 98800, Note_on_c, 9, 53, 43
3, 98856, Note_on_c, 9, 53, 0
3, 98880, Note_on_c, 9, 37, 44
3, 98912, Note_on_c, 9, 37, 0
3, 98928, Note_on_c, 9, 51, 52
3, 98976, Note_on_c, 9, 51, 0
3, 98976, Note_on_c, 9, 35, 37
3, 99016, Note_on_c, 9, 35, 0
3, 99040, Note_on_c, 9, 53, 59
3, 99096, Note_on_c, 9, 53, 0
3, 99096, Note_on_c, 9, 35, 32
3, 99136, Note_on_c, 9, 35, 0
3, 99168, Note_on_c, 9, 51, 35
3, 99224, Note_on_c, 9, 51, 0
3, 99288, Note_on_c, 9, 53, 58
3, 99336, Note_on_c, 9, 53, 0
3, 99424, Note_on_c, 9, 51, 43
3, 99424, Note_on_c, 9, 40, 36
3, 99464, Note_on_c, 9, 40, 0
3, 99536, Note_on_c, 9, 51, 0
3, 99832, Note_on_c, 9, 51, 42
3, 99928, Note_on_c, 9, 51, 0
3, 99952, Note_on_c, 9, 40, 22
3, 99992, Note_on_c, 9, 40, 0
3, 100056, Note_on_c, 9, 37, 31
3, 100088, Note_on_c, 9, 37, 0
3, 100096, Note_on_c, 9, 35, 48
3, 100152, Note_on_c, 9, 35, 0
3, 100200, Note_on_c, 9, 35, 32
3, 100216, Note_on_c, 9, 51, 46
3, 100240, Note_on_c, 9, 35, 27
3, 100256, Note_on_c, 9, 51, 0
3, 100256, Note_on_c, 9, 35, 0
3, 100280, Note_on_c, 9, 35, 0
3, 100328, Note_on_c, 9, 53, 69
3, 100376, Note_on_c, 9, 53, 0
3, 100624, Note_on_c, 9, 53, 53
3, 100672, Note_on_c, 9, 53, 0
3, 100744, Note_on_c, 9, 37, 40
3, 100768, Note_on_c, 9, 37, 0
3, 100832, Note_on_c, 9, 35, 24
3, 100856, Note_on_c, 9, 35, 35
3, 100864, Note_on_c, 9, 35, 0
3, 100872, Note_on_c, 9, 53, 60
3, 100904, Note_on_c, 9, 35, 0
3, 100920, Note_on_c, 9, 53, 0
3, 101112, Note_on_c, 9, 51, 52
3, 101152, Note_on_c, 9, 51, 0
3, 101224, Note_on_c, 9, 35, 21
3, 101232, Note_on_c, 9, 51, 28
3, 101248, Note_on_c, 9, 35, 0
3, 101256, Note_on_c, 9, 37, 40
3, 101296, Note_on_c, 9, 37, 0
3, 101312, Note_on_c, 9, 51, 0
3, 101368, Note_on_c, 9, 51, 56
3, 101392, Note_on_c, 9, 35, 35
3, 101408, Note_on_c, 9, 51, 0
3, 101456, Note_on_c, 9, 35, 0
3, 101760, Note_on_c, 9, 51, 37
3, 101792, Note_on_c, 9, 51, 0
3, 101864, Note_on_c, 9, 37, 43
3, 101888, Note_on_c, 9, 37, 0
3, 101992, Note_on_c, 9, 35, 37
3, 101992, Note_on_c, 9, 51, 57
3, 102032, Note_on_c, 9, 51, 0
3, 102048, Note_on_c, 9, 35, 0
3, 102128, Note_on_c, 9, 51, 37
3, 102152, Note_on_c, 9, 51, 0
3, 102232, Note_on_c, 9, 51, 45
3, 102248, Note_on_c, 9, 51, 0
3, 102392, Note_on_c, 9, 37, 45
3, 102424, Note_on_c, 9, 37, 0
3, 102488, Note_on_c, 9, 51, 51
3, 102512, Note_on_c, 9, 51, 0
3, 102528, Note_on_c, 9, 35, 28
3, 102576, Note_on_c, 9, 35, 0
3, 102744, Note_on_c, 9, 51, 57
3, 102768, Note_on_c, 9, 51, 0
3, 102856, Note_on_c, 9, 40, 27
3, 103000, Note_on_c, 9, 40, 0
3, 103000, Note_on_c, 9, 51, 53
3, 103056, Note_on_c, 9, 51, 0
3, 103096, Note_on_c, 9, 51, 60
3, 103128, Note_on_c, 9, 51, 0
3, 103224, Note_on_c, 9, 40, 39
3, 103240, Note_on_c, 9, 51, 52
3, 103296, Note_on_c, 9, 51, 0
3, 103296, Note_on_c, 9, 40, 0
3, 103344, Note_on_c, 9, 51, 50
3, 103392, Note_on_c, 9, 51, 0
3, 103496, Note_on_c, 9, 35, 33
3, 103544, Note_on_c, 9, 35, 0
3, 103632, Note_on_c, 9, 51, 57
3, 103640, Note_on_c, 9, 35, 27
3, 103656, Note_on_c, 9, 51, 0
3, 103672, Note_on_c, 9, 35, 0
3, 103752, Note_on_c, 9, 51, 55
3, 103776, Note_on_c, 9, 51, 0
3, 104008, Note_on_c, 9, 40, 32
3, 104048, Note_on_c, 9, 51, 47
3, 104064, Note_on_c, 9, 51, 0
3, 104080, Note_on_c, 9, 40, 0
3, 104424, Note_on_c, 9, 51, 46
3, 104448, Note_on_c, 9, 51, 0
3, 104688, Note_on_c, 9, 51, 55
3, 104704, Note_on_c, 9, 35, 21
3, 104728, Note_on_c, 9, 51, 0
3, 104744, Note_on_c, 9, 35, 0
3, 104816, Note_on_c, 9, 51, 50
3, 104832, Note_on_c, 9, 35, 38
3, 104888, Note_on_c, 9, 51, 0
3, 104904, Note_on_c, 9, 35, 0
3, 105176, Note_on_c, 9, 40, 31
3, 105208, Note_on_c, 9, 51, 35
3, 105224, Note_on_c, 9, 40, 0
3, 105256, Note_on_c, 9, 51, 0
3, 105448, Note_on_c, 9, 35, 25
3, 105480, Note_on_c, 9, 35, 0
3, 105584, Note_on_c, 9, 51, 32
3, 105616, Note_on_c, 9, 51, 0
3, 105832, Note_on_c, 9, 35, 42
3, 105840, Note_on_c, 9, 51, 46
3, 105896, Note_on_c, 9, 51, 0
3, 105896, Note_on_c, 9, 35, 0
3, 105976, Note_on_c, 9, 35, 25
3, 105984, Note_on_c, 9, 51, 38
3, 106024, Note_on_c, 9, 51, 0
3, 106040, Note_on_c, 9, 35, 0
3, 106224, Note_on_c, 9, 51, 35
3, 106240, Note_on_c, 9, 51, 0
3, 106480, Note_on_c, 9, 51, 54
3, 106536, Note_on_c, 9, 51, 0
3, 106584, Note_on_c, 9, 51, 45
3, 106624, Note_on_c, 9, 51, 0
3, 106672, Note_on_c, 9, 37, 39
3, 106688, Note_on_c, 9, 37, 0
3, 106728, Note_on_c, 9, 51, 42
3, 106752, Note_on_c, 9, 51, 0
3, 106872, Note_on_c, 9, 35, 36
3, 106912, Note_on_c, 9, 35, 0
3, 107000, Note_on_c, 9, 35, 33
3, 107032, Note_on_c, 9, 35, 0
3, 107128, Note_on_c, 9, 35, 36
3, 107168, Note_on_c, 9, 35, 0
3, 107256, Note_on_c, 9, 51, 43
3, 107288, Note_on_c, 9, 51, 0
3, 107360, Note_on_c, 9, 51, 45
3, 107432, Note_on_c, 9, 51, 0
3, 107480, Note_on_c, 9, 40, 39
3, 107488, Note_on_c, 9, 51, 47
3, 107512, Note_on_c, 9, 51, 0
3, 107568, Note_on_c, 9, 40, 0
3, 107872, Note_on_c, 9, 51, 46
3, 107936, Note_on_c, 9, 51, 0
3, 108008, Note_on_c, 9, 40, 39
3, 108008, Note_on_c, 9, 51, 39
3, 108032, Note_on_c, 9, 51, 0
3, 108032, Note_on_c, 9, 40, 0
3, 108064, Note_on_c, 9, 40, 17
3, 108088, Note_on_c, 9, 40, 0
3, 108120, Note_on_c, 9, 35, 42
3, 108184, Note_on_c, 9, 35, 43
3, 108192, Note_on_c, 9, 35, 0
3, 108216, Note_on_c, 9, 35, 0
3, 108288, Note_on_c, 9, 51, 57
3, 108336, Note_on_c, 9, 51, 0
3, 108376, Note_on_c, 9, 51, 56
3, 108416, Note_on_c, 9, 51, 0
3, 108624, Note_on_c, 9, 40, 33
3, 108648, Note_on_c, 9, 51, 61
3, 108664, Note_on_c, 9, 40, 0
3, 108688, Note_on_c, 9, 51, 0
3, 108768, Note_on_c, 9, 51, 44
3, 108792, Note_on_c, 9, 51, 0
3, 109056, Note_on_c, 9, 51, 53
3, 109080, Note_on_c, 9, 51, 0
3, 109144, Note_on_c, 9, 35, 29
3, 109184, Note_on_c, 9, 35, 0
3, 109216, Note_on_c, 9, 53, 37
3, 109240, Note_on_c, 9, 53, 0
3, 109256, Note_on_c, 9, 35, 30
3, 109328, Note_on_c, 9, 35, 0
3, 109456, Note_on_c, 9, 51, 56
3, 109480, Note_on_c, 9, 51, 0
3, 109672, Note_on_c, 9, 51, 62
3, 109688, Note_on_c, 9, 51, 0
3, 109800, Note_on_c, 9, 40, 23
3, 109928, Note_on_c, 9, 51, 55
3, 109944, Note_on_c, 9, 40, 0
3, 109968, Note_on_c, 9, 51, 0
3, 110040, Note_on_c, 9, 53, 65
3, 110088, Note_on_c, 9, 53, 0
3, 110152, Note_on_c, 9, 40, 35
3, 110176, Note_on_c, 9, 51, 38
3, 110208, Note_on_c, 9, 40, 0
3, 110232, Note_on_c, 9, 51, 0
3, 110288, Note_on_c, 9, 51, 51
3, 110328, Note_on_c, 9, 51, 0
3, 110336, Note_on_c, 9, 35, 44
3, 110360, Note_on_c, 9, 35, 0
3, 110424, Note_on_c, 9, 51, 39
3, 110432, Note_on_c, 9, 37, 55
3, 110432, Note_on_c, 9, 35, 37
3, 110448, Note_on_c, 9, 51, 0
3, 110464, Note_on_c, 9, 37, 0
3, 110472, Note_on_c, 9, 35, 0
3, 110536, Note_on_c, 9, 38, 61
3, 110576, Note_on_c, 9, 38, 0
3, 110576, Note_on_c, 9, 35, 22
3, 110608, Note_on_c, 9, 35, 0
3, 110920, Note_on_c, 9, 51, 46
3, 110936, Note_on_c, 9, 40, 25
3, 110960, Note_on_c, 9, 51, 0
3, 111000, Note_on_c, 9, 40, 0
3, 111192, Note_on_c, 9, 51, 37
3, 111248, Note_on_c, 9, 51, 0
3, 111312, Note_on_c, 9, 51, 37
3, 111376, Note_on_c, 9, 51, 0
3, 111576, Note_on_c, 9, 51, 42
3, 111576, Note_on_c, 9, 35, 33
3, 111632, Note_on_c, 9, 51, 0
3, 111656, Note_on_c, 9, 35, 0
3, 111696, Note_on_c, 9, 51, 35
3, 111720, Note_on_c, 9, 35, 34
3, 111760, Note_on_c, 9, 51, 0
3, 111776, Note_on_c, 9, 35, 0
3, 111848, Note_on_c, 9, 75, 51
3, 111872, Note_on_c, 9, 75, 0
3, 112072, Note_on_c, 9, 75, 63
3, 112096, Note_on_c, 9, 51, 33
3, 112096, Note_on_c, 9, 40, 29
3, 112104, Note_on_c, 9, 75, 0
3, 112160, Note_on_c, 9, 40, 0
3, 112168, Note_on_c, 9, 51, 0
3, 112312, Note_on_c, 9, 75, 59
3, 112352, Note_on_c, 9, 51, 38
3, 112360, Note_on_c, 9, 75, 0
3, 112400, Note_on_c, 9, 51, 0
3, 112488, Note_on_c, 9, 51, 27
3, 112552, Note_on_c, 9, 51, 0
3, 112552, Note_on_c, 9, 75, 63
3, 112584, Note_on_c, 9, 75, 0
3, 112736, Note_on_c, 9, 51, 62
3, 112736, Note_on_c, 9, 35, 39
3, 112792, Note_on_c, 9, 51, 0
3, 112800, Note_on_c, 9, 35, 0
3, 112808, Note_on_c, 9, 75, 56
3, 112872, Note_on_c, 9, 75, 0
3, 112880, Note_on_c, 9, 51, 27
3, 112896, Note_on_c, 9, 35, 21
3, 112936, Note_on_c, 9, 35, 0
3, 112960, Note_on_c, 9, 51, 0
3, 113056, Note_on_c, 9, 75, 57
3, 113104, Note_on_c, 9, 75, 0
3, 113232, Note_on_c, 9, 40, 36
3, 113264, Note_on_c, 9, 51, 31
3, 113296, Note_on_c, 9, 75, 60
3, 113312, Note_on_c, 9, 40, 0
3, 113320, Note_on_c, 9, 51, 0
3, 113336, Note_on_c, 9, 75, 0
3, 113488, Note_on_c, 9, 51, 48
3, 113520, Note_on_c, 9, 51, 0
3, 113560, Note_on_c, 9, 75, 48
3, 113624, Note_on_c, 9, 75, 0
3, 113624, Note_on_c, 9, 51, 34
3, 113656, Note_on_c, 9, 51, 0
3, 113808, Note_on_c, 9, 75, 51
3, 113856, Note_on_c, 9, 75, 0
3, 113880, Note_on_c, 9, 51, 50
3, 113880, Note_on_c, 9, 35, 41
3, 113904, Note_on_c, 9, 51, 0
3, 113944, Note_on_c, 9, 35, 0
3, 114032, Note_on_c, 9, 35, 18
3, 114072, Note_on_c, 9, 35, 0
3, 114112, Note_on_c, 9, 51, 55
3, 114144, Note_on_c, 9, 51, 0
3, 114224, Note_on_c, 9, 53, 50
3, 114256, Note_on_c, 9, 53, 0
3, 114344, Note_on_c, 9, 51, 48
3, 114384, Note_on_c, 9, 40, 26
3, 114400, Note_on_c, 9, 51, 0
3, 114496, Note_on_c, 9, 40, 0
3, 114784, Note_on_c, 9, 51, 39
3, 114856, Note_on_c, 9, 51, 0
3, 115016, Note_on_c, 9, 35, 38
3, 115048, Note_on_c, 9, 51, 54
3, 115080, Note_on_c, 9, 51, 0
3, 115088, Note_on_c, 9, 35, 0
3, 115168, Note_on_c, 9, 51, 47
3, 115176, Note_on_c, 9, 35, 21
3, 115232, Note_on_c, 9, 35, 0
3, 115328, Note_on_c, 9, 51, 0
3, 115528, Note_on_c, 9, 40, 28
3, 115560, Note_on_c, 9, 51, 42
3, 115608, Note_on_c, 9, 40, 0
3, 115624, Note_on_c, 9, 51, 0
3, 115808, Note_on_c, 9, 51, 50
3, 115848, Note_on_c, 9, 51, 0
3, 115936, Note_on_c, 9, 51, 31
3, 115992, Note_on_c, 9, 51, 0
3, 116032, Note_on_c, 9, 75, 38
3, 116064, Note_on_c, 9, 75, 0
3, 116176, Note_on_c, 9, 51, 52
3, 116184, Note_on_c, 9, 35, 41
3, 116200, Note_on_c, 9, 51, 0
3, 116248, Note_on_c, 9, 35, 0
3, 116328, Note_on_c, 9, 35, 31
3, 116368, Note_on_c, 9, 35, 0
3, 116568, Note_on_c, 9, 51, 54
3, 116608, Note_on_c, 9, 51, 0
3, 116640, Note_on_c, 9, 75, 51
3, 116672, Note_on_c, 9, 40, 26
3, 116680, Note_on_c, 9, 75, 0
3, 116704, Note_on_c, 9, 51, 33
3, 116728, Note_on_c, 9, 40, 0
3, 116736, Note_on_c, 9, 51, 0
3, 116768, Note_on_c, 9, 75, 48
3, 116808, Note_on_c, 9, 75, 0
3, 116896, Note_on_c, 9, 75, 54
3, 116920, Note_on_c, 9, 75, 0
3, 116952, Note_on_c, 9, 51, 45
3, 116960, Note_on_c, 9, 35, 21
3, 116984, Note_on_c, 9, 51, 0
3, 116992, Note_on_c, 9, 35, 0
3, 117056, Note_on_c, 9, 40, 24
3, 117080, Note_on_c, 9, 51, 48
3, 117112, Note_on_c, 9, 51, 0
3, 117136, Note_on_c, 9, 40, 0
3, 117160, Note_on_c, 9, 75, 50
3, 117216, Note_on_c, 9, 75, 0
3, 117272, Note_on_c, 9, 75, 51
3, 117320, Note_on_c, 9, 75, 0
3, 117328, Note_on_c, 9, 51, 36
3, 117352, Note_on_c, 9, 35, 33
3, 117376, Note_on_c, 9, 51, 0
3, 117392, Note_on_c, 9, 35, 0
3, 117464, Note_on_c, 9, 51, 55
3, 117480, Note_on_c, 9, 35, 24
3, 117520, Note_on_c, 9, 35, 0
3, 117520, Note_on_c, 9, 51, 0
3, 117832, Note_on_c, 9, 40, 25
3, 117872, Note_on_c, 9, 51, 20
3, 117896, Note_on_c, 9, 51, 0
3, 117912, Note_on_c, 9, 40, 0
3, 117992, Note_on_c, 9, 38, 40
3, 118064, Note_on_c, 9, 38, 0
3, 118136, Note_on_c, 9, 64, 30
3, 118176, Note_on_c, 9, 64, 0
3, 118256, Note_on_c, 9, 51, 42
3, 118296, Note_on_c, 9, 51, 0
3, 118416, Note_on_c, 9, 38, 40
3, 118496, Note_on_c, 9, 38, 0
3, 118496, Note_on_c, 9, 35, 38
3, 118560, Note_on_c, 9, 35, 0
3, 118568, Note_on_c, 9, 64, 29
3, 118608, Note_on_c, 9, 64, 0
3, 118632, Note_on_c, 9, 51, 40
3, 118640, Note_on_c, 9, 35, 27
3, 118672, Note_on_c, 9, 35, 0
3, 118696, Note_on_c, 9, 51, 0
3, 119024, Note_on_c, 9, 51, 31
3, 119176, Note_on_c, 9, 51, 0
3, 119256, Note_on_c, 9, 35, 42
3, 119296, Note_on_c, 9, 35, 0
3, 119408, Note_on_c, 9, 51, 32
3, 119536, Note_on_c, 9, 51, 0
3, 119544, Note_on_c, 9, 35, 28
3, 119576, Note_on_c, 9, 35, 0
3, 119656, Note_on_c, 9, 35, 30
3, 119664, Note_on_c, 9, 37, 76
3, 119704, Note_on_c, 9, 37, 0
3, 119728, Note_on_c, 9, 35, 0
3, 119792, Note_on_c, 9, 35, 39
3, 119800, Note_on_c, 9, 51, 35
3, 119848, Note_on_c, 9, 35, 0
3, 120040, Note_on_c, 9, 51, 0
3, 120152, Note_on_c, 9, 40, 23
3, 120176, Note_on_c, 9, 40, 0
3, 120184, Note_on_c, 9, 51, 29
3, 120264, Note_on_c, 9, 51, 0
3, 120520, Note_on_c, 9, 40, 35
3, 120576, Note_on_c, 9, 51, 36
3, 120616, Note_on_c, 9, 51, 0
3, 120752, Note_on_c, 9, 40, 0
3, 120840, Note_on_c, 9, 51, 38
3, 120840, Note_on_c, 9, 35, 26
3, 120872, Note_on_c, 9, 51, 0
3, 120888, Note_on_c, 9, 35, 0
3, 120944, Note_on_c, 9, 51, 30
3, 120960, Note_on_c, 9, 35, 38
3, 121024, Note_on_c, 9, 35, 0
3, 121072, Note_on_c, 9, 51, 0
3, 121320, Note_on_c, 9, 40, 26
3, 121336, Note_on_c, 9, 51, 36
3, 121400, Note_on_c, 9, 51, 0
3, 121400, Note_on_c, 9, 40, 0
3, 121584, Note_on_c, 9, 37, 36
3, 121616, Note_on_c, 9, 37, 0
3, 121728, Note_on_c, 9, 51, 43
3, 121792, Note_on_c, 9, 51, 0
3, 121960, Note_on_c, 9, 35, 33
3, 121976, Note_on_c, 9, 37, 44
3, 122000, Note_on_c, 9, 37, 0
3, 122016, Note_on_c, 9, 51, 46
3, 122024, Note_on_c, 9, 35, 0
3, 122064, Note_on_c, 9, 51, 0
3, 122104, Note_on_c, 9, 35, 24
3, 122128, Note_on_c, 9, 51, 30
3, 122152, Note_on_c, 9, 35, 0
3, 122216, Note_on_c, 9, 51, 0
3, 122448, Note_on_c, 9, 40, 26
3, 122472, Note_on_c, 9, 51, 48
3, 122560, Note_on_c, 9, 51, 0
3, 122696, Note_on_c, 9, 40, 0
3, 122824, Note_on_c, 9, 40, 29
3, 122872, Note_on_c, 9, 51, 45
3, 122960, Note_on_c, 9, 51, 0
3, 123080, Note_on_c, 9, 40, 0
3, 123120, Note_on_c, 9, 35, 28
3, 123176, Note_on_c, 9, 35, 0
3, 123240, Note_on_c, 9, 51, 47
3, 123256, Note_on_c, 9, 35, 28
3, 123288, Note_on_c, 9, 35, 0
3, 123320, Note_on_c, 9, 51, 0
3, 123616, Note_on_c, 9, 40, 32
3, 123632, Note_on_c, 9, 51, 47
3, 123680, Note_on_c, 9, 40, 0
3, 123704, Note_on_c, 9, 40, 30
3, 123720, Note_on_c, 9, 51, 0
3, 123744, Note_on_c, 9, 40, 0
3, 124016, Note_on_c, 9, 40, 42
3, 124024, Note_on_c, 9, 35, 24
3, 124032, Note_on_c, 9, 51, 43
3, 124056, Note_on_c, 9, 40, 0
3, 124072, Note_on_c, 9, 35, 0
3, 124112, Note_on_c, 9, 51, 0
3, 124256, Note_on_c, 9, 35, 25
3, 124288, Note_on_c, 9, 40, 39
3, 124296, Note_on_c, 9, 51, 51
3, 124304, Note_on_c, 9, 35, 0
3, 124328, Note_on_c, 9, 40, 0
3, 124344, Note_on_c, 9, 51, 0
3, 124376, Note_on_c, 9, 35, 28
3, 124424, Note_on_c, 9, 35, 0
3, 124424, Note_on_c, 9, 51, 29
3, 124536, Note_on_c, 9, 51, 0
3, 124560, Note_on_c, 9, 40, 26
3, 124600, Note_on_c, 9, 40, 0
3, 124680, Note_on_c, 9, 37, 29
3, 124712, Note_on_c, 9, 37, 0
3, 124744, Note_on_c, 9, 40, 35
3, 124800, Note_on_c, 9, 51, 34
3, 124808, Note_on_c, 9, 40, 0
3, 124888, Note_on_c, 9, 51, 0
3, 125184, Note_on_c, 9, 51, 33
3, 125352, Note_on_c, 9, 51, 0
3, 125416, Note_on_c, 9, 35, 42
3, 125464, Note_on_c, 9, 35, 0
3, 125544, Note_on_c, 9, 51, 42
3, 125544, Note_on_c, 9, 35, 26
3, 125552, Note_on_c, 9, 53, 33
3, 125584, Note_on_c, 9, 35, 0
3, 125592, Note_on_c, 9, 53, 0
3, 125608, Note_on_c, 9, 51, 0
3, 125912, Note_on_c, 9, 51, 32
3, 125912, Note_on_c, 9, 40, 24
3, 125920, Note_on_c, 9, 53, 27
3, 125944, Note_on_c, 9, 40, 0
3, 125984, Note_on_c, 9, 53, 0
3, 125984, Note_on_c, 9, 51, 0
3, 126168, Note_on_c, 9, 35, 39
3, 126192, Note_on_c, 9, 35, 0
3, 126312, Note_on_c, 9, 75, 50
3, 126312, Note_on_c, 9, 53, 46
3, 126312, Note_on_c, 9, 51, 35
3, 126336, Note_on_c, 9, 53, 0
3, 126344, Note_on_c, 9, 75, 0
3, 126400, Note_on_c, 9, 51, 0
3, 126552, Note_on_c, 9, 51, 49
3, 126600, Note_on_c, 9, 51, 0
3, 126696, Note_on_c, 9, 51, 32
3, 126872, Note_on_c, 9, 51, 0
3, 127072, Note_on_c, 9, 51, 34
3, 127096, Note_on_c, 9, 35, 21
3, 127128, Note_on_c, 9, 35, 0
3, 127264, Note_on_c, 9, 51, 0
3, 127440, Note_on_c, 9, 40, 29
3, 127472, Note_on_c, 9, 51, 42
3, 127488, Note_on_c, 9, 40, 0
3, 127600, Note_on_c, 9, 51, 0
3, 127640, Note_on_c, 9, 75, 65
3, 127664, Note_on_c, 9, 75, 0
3, 127728, Note_on_c, 9, 35, 25
3, 127736, Note_on_c, 9, 51, 36
3, 127768, Note_on_c, 9, 35, 0
3, 127784, Note_on_c, 9, 51, 0
3, 127856, Note_on_c, 9, 51, 28
3, 127912, Note_on_c, 9, 75, 67
3, 127936, Note_on_c, 9, 75, 0
3, 127936, Note_on_c, 9, 51, 0
3, 128216, Note_on_c, 9, 51, 39
3, 128216, Note_on_c, 9, 27, 37
3, 128256, Note_on_c, 9, 27, 0
3, 128288, Note_on_c, 9, 51, 0
3, 128376, Note_on_c, 9, 75, 51
3, 128408, Note_on_c, 9, 75, 0
3, 128456, Note_on_c, 9, 40, 42
3, 128504, Note_on_c, 9, 40, 0
3, 128504, Note_on_c, 9, 51, 37
3, 128544, Note_on_c, 9, 51, 0
3, 128584, Note_on_c, 9, 40, 30
3, 128600, Note_on_c, 9, 75, 65
3, 128624, Note_on_c, 9, 75, 0
3, 128632, Note_on_c, 9, 51, 48
3, 128656, Note_on_c, 9, 40, 0
3, 128696, Note_on_c, 9, 51, 0
3, 128840, Note_on_c, 9, 75, 54
3, 128872, Note_on_c, 9, 75, 0
3, 128872, Note_on_c, 9, 35, 26
3, 128920, Note_on_c, 9, 35, 0
3, 129000, Note_on_c, 9, 51, 29
3, 129016, Note_on_c, 9, 35, 20
3, 129072, Note_on_c, 9, 35, 0
3, 129096, Note_on_c, 9, 75, 57
3, 129120, Note_on_c, 9, 75, 0
3, 129120, Note_on_c, 9, 51, 0
3, 129352, Note_on_c, 9, 75, 75
3, 129352, Note_on_c, 9, 40, 32
3, 129384, Note_on_c, 9, 75, 0
3, 129392, Note_on_c, 9, 51, 35
3, 129416, Note_on_c, 9, 40, 0
3, 129528, Note_on_c, 9, 51, 0
3, 129656, Note_on_c, 9, 51, 46
3, 129704, Note_on_c, 9, 51, 0
3, 129768, Note_on_c, 9, 51, 38
3, 129856, Note_on_c, 9, 75, 69
3, 129880, Note_on_c, 9, 75, 0
3, 130000, Note_on_c, 9, 51, 0
3, 130016, Note_on_c, 9, 35, 40
3, 130048, Note_on_c, 9, 35, 0
3, 130136, Note_on_c, 9, 51, 38
3, 130160, Note_on_c, 9, 35, 20
3, 130192, Note_on_c, 9, 35, 0
3, 130200, Note_on_c, 9, 51, 0
3, 130392, Note_on_c, 9, 51, 55
3, 130432, Note_on_c, 9, 51, 0
3, 130512, Note_on_c, 9, 40, 24
3, 130536, Note_on_c, 9, 75, 60
3, 130536, Note_on_c, 9, 51, 31
3, 130560, Note_on_c, 9, 75, 0
3, 130584, Note_on_c, 9, 40, 0
3, 130656, Note_on_c, 9, 75, 42
3, 130664, Note_on_c, 9, 51, 0
3, 130712, Note_on_c, 9, 75, 0
3, 130912, Note_on_c, 9, 51, 27
3, 130960, Note_on_c, 9, 51, 0
3, 131000, Note_on_c, 9, 75, 70
3, 131056, Note_on_c, 9, 75, 0
3, 131112, Note_on_c, 9, 75, 75
3, 131144, Note_on_c, 9, 75, 0
3, 131160, Note_on_c, 9, 51, 68
3, 131192, Note_on_c, 9, 35, 39
3, 131216, Note_on_c, 9, 51, 0
3, 131224, Note_on_c, 9, 35, 0
3, 131328, Note_on_c, 9, 51, 12
3, 131432, Note_on_c, 9, 51, 0
3, 131656, Note_on_c, 9, 40, 29
3, 131680, Note_on_c, 9, 51, 29
3, 131712, Note_on_c, 9, 40, 0
3, 131720, Note_on_c, 9, 51, 0
3, 131760, Note_on_c, 9, 75, 57
3, 131800, Note_on_c, 9, 75, 0
3, 131896, Note_on_c, 9, 75, 46
3, 131920, Note_on_c, 9, 75, 0
3, 131928, Note_on_c, 9, 51, 78
3, 131992, Note_on_c, 9, 51, 0
3, 132048, Note_on_c, 9, 51, 34
3, 132168, Note_on_c, 9, 75, 69
3, 132200, Note_on_c, 9, 75, 0
3, 132216, Note_on_c, 9, 51, 0
3, 132328, Note_on_c, 9, 35, 27
3, 132376, Note_on_c, 9, 35, 0
3, 132424, Note_on_c, 9, 75, 63
3, 132448, Note_on_c, 9, 75, 0
3, 132448, Note_on_c, 9, 51, 31
3, 132456, Note_on_c, 9, 35, 27
3, 132488, Note_on_c, 9, 35, 0
3, 132488, Note_on_c, 9, 51, 0
3, 132552, Note_on_c, 9, 51, 58
3, 132632, Note_on_c, 9, 75, 75
3, 132656, Note_on_c, 9, 75, 0
3, 132672, Note_on_c, 9, 40, 33
3, 132688, Note_on_c, 9, 51, 0
3, 132736, Note_on_c, 9, 40, 0
3, 132840, Note_on_c, 9, 51, 60
3, 132888, Note_on_c, 9, 51, 0
3, 132968, Note_on_c, 9, 51, 38
3, 133032, Note_on_c, 9, 51, 0
3, 133080, Note_on_c, 9, 35, 27
3, 133136, Note_on_c, 9, 35, 0
3, 133208, Note_on_c, 9, 51, 62
3, 133256, Note_on_c, 9, 51, 0
3, 133256, Note_on_c, 9, 75, 54
3, 133288, Note_on_c, 9, 75, 0
3, 133336, Note_on_c, 9, 51, 39
3, 133376, Note_on_c, 9, 75, 53
3, 133440, Note_on_c, 9, 75, 0
3, 133448, Note_on_c, 9, 51, 0
3, 133480, Note_on_c, 9, 35, 39
3, 133528, Note_on_c, 9, 35, 0
3, 133592, Note_on_c, 9, 51, 60
3, 133608, Note_on_c, 9, 35, 33
3, 133664, Note_on_c, 9, 35, 0
3, 133728, Note_on_c, 9, 51, 0
3, 133968, Note_on_c, 9, 51, 46
3, 133976, Note_on_c, 9, 40, 27
3, 134024, Note_on_c, 9, 40, 0
3, 134040, Note_on_c, 9, 51, 0
3, 134240, Note_on_c, 9, 51, 55
3, 134280, Note_on_c, 9, 51, 0
3, 134344, Note_on_c, 9, 40, 27
3, 134368, Note_on_c, 9, 51, 36
3, 134400, Note_on_c, 9, 40, 0
3, 134528, Note_on_c, 9, 51, 0
3, 134624, Note_on_c, 9, 35, 30
3, 134656, Note_on_c, 9, 35, 0
3, 134760, Note_on_c, 9, 35, 23
3, 134768, Note_on_c, 9, 51, 51
3, 134800, Note_on_c, 9, 35, 0
3, 134944, Note_on_c, 9, 51, 0
3, 135136, Note_on_c, 9, 40, 24
3, 135152, Note_on_c, 9, 64, 32
3, 135168, Note_on_c, 9, 51, 53
3, 135176, Note_on_c, 9, 64, 0
3, 135184, Note_on_c, 9, 40, 0
3, 135304, Note_on_c, 9, 51, 0
3, 135424, Note_on_c, 9, 64, 40
3, 135424, Note_on_c, 9, 40, 32
3, 135440, Note_on_c, 9, 51, 46
3, 135448, Note_on_c, 9, 40, 0
3, 135448, Note_on_c, 9, 64, 0
3, 135472, Note_on_c, 9, 51, 0
3, 135560, Note_on_c, 9, 51, 39
3, 135616, Note_on_c, 9, 51, 0
3, 135792, Note_on_c, 9, 51, 73
3, 135808, Note_on_c, 9, 35, 33
3, 135840, Note_on_c, 9, 35, 0
3, 135864, Note_on_c, 9, 51, 0
3, 135936, Note_on_c, 9, 63, 39
3, 135944, Note_on_c, 9, 51, 36
3, 135944, Note_on_c, 9, 35, 26
3, 135976, Note_on_c, 9, 35, 0
3, 136040, Note_on_c, 9, 51, 0
3, 136072, Note_on_c, 9, 63, 0
3, 136272, Note_on_c, 9, 40, 36
3, 136296, Note_on_c, 9, 51, 52
3, 136352, Note_on_c, 9, 40, 0
3, 136456, Note_on_c, 9, 51, 0
3, 136576, Note_on_c, 9, 51, 46
3, 136616, Note_on_c, 9, 51, 0
3, 136656, Note_on_c, 9, 40, 34
3, 136688, Note_on_c, 9, 64, 34
3, 136696, Note_on_c, 9, 51, 28
3, 136760, Note_on_c, 9, 64, 0
3, 136824, Note_on_c, 9, 51, 0
3, 136856, Note_on_c, 9, 40, 0
3, 136920, Note_on_c, 9, 51, 67
3, 136928, Note_on_c, 9, 64, 43
3, 136944, Note_on_c, 9, 35, 30
3, 136960, Note_on_c, 9, 64, 0
3, 136976, Note_on_c, 9, 35, 0
3, 137000, Note_on_c, 9, 51, 0
3, 137056, Note_on_c, 9, 51, 38
3, 137136, Note_on_c, 9, 51, 0
3, 137312, Note_on_c, 9, 51, 58
3, 137320, Note_on_c, 9, 35, 24
3, 137368, Note_on_c, 9, 35, 0
3, 137368, Note_on_c, 9, 51, 0
3, 137456, Note_on_c, 9, 63, 39
3, 137456, Note_on_c, 9, 51, 36
3, 137464, Note_on_c, 9, 35, 28
3, 137480, Note_on_c, 9, 51, 0
3, 137488, Note_on_c, 9, 35, 0
3, 137576, Note_on_c, 9, 51, 55
3, 137632, Note_on_c, 9, 63, 0
3, 137704, Note_on_c, 9, 63, 46
3, 137736, Note_on_c, 9, 51, 0
3, 137768, Note_on_c, 9, 63, 0
3, 137840, Note_on_c, 9, 51, 74
3, 138008, Note_on_c, 9, 51, 0
3, 138032, Note_on_c, 9, 63, 51
3, 138080, Note_on_c, 9, 35, 34
3, 138096, Note_on_c, 9, 63, 0
3, 138104, Note_on_c, 9, 51, 54
3, 138144, Note_on_c, 9, 51, 0
3, 138144, Note_on_c, 9, 35, 0
3, 138160, Note_on_c, 9, 63, 25
3, 138192, Note_on_c, 9, 63, 0
3, 138208, Note_on_c, 9, 35, 36
3, 138216, Note_on_c, 9, 51, 38
3, 138248, Note_on_c, 9, 35, 0
3, 138432, Note_on_c, 9, 51, 0
3, 138576, Note_on_c, 9, 40, 24
3, 138600, Note_on_c, 9, 51, 40
3, 138640, Note_on_c, 9, 40, 0
3, 138688, Note_on_c, 9, 51, 0
3, 138872, Note_on_c, 9, 51, 44
3, 138896, Note_on_c, 9, 51, 0
3, 138984, Note_on_c, 9, 51, 39
3, 139144, Note_on_c, 9, 35, 28
3, 139168, Note_on_c, 9, 51, 0
3, 139176, Note_on_c, 9, 35, 0
3, 139256, Note_on_c, 9, 35, 21
3, 139344, Note_on_c, 9, 35, 0
3, 139368, Note_on_c, 9, 51, 37
3, 139384, Note_on_c, 9, 35, 37
3, 139456, Note_on_c, 9, 35, 0
3, 139600, Note_on_c, 9, 64, 30
3, 139632, Note_on_c, 9, 51, 0
3, 139640, Note_on_c, 9, 64, 0
3, 139704, Note_on_c, 9, 64, 25
3, 139728, Note_on_c, 9, 64, 0
3, 139728, Note_on_c, 9, 40, 26
3, 139752, Note_on_c, 9, 51, 43
3, 139768, Note_on_c, 9, 64, 35
3, 139784, Note_on_c, 9, 40, 0
3, 139792, Note_on_c, 9, 64, 0
3, 139976, Note_on_c, 9, 51, 0
3, 140136, Note_on_c, 9, 51, 47
3, 140256, Note_on_c, 9, 64, 25
3, 140288, Note_on_c, 9, 64, 0
3, 140304, Note_on_c, 9, 51, 0
3, 140336, Note_on_c, 9, 64, 39
3, 140360, Note_on_c, 9, 64, 0
3, 140376, Note_on_c, 9, 51, 38
3, 140392, Note_on_c, 9, 35, 29
3, 140424, Note_on_c, 9, 35, 0
3, 140424, Note_on_c, 9, 51, 0
3, 140472, Note_on_c, 9, 63, 51
3, 140512, Note_on_c, 9, 51, 56
3, 140520, Note_on_c, 9, 63, 0
3, 140528, Note_on_c, 9, 35, 27
3, 140568, Note_on_c, 9, 35, 0
3, 140760, Note_on_c, 9, 51, 0
3, 140872, Note_on_c, 9, 40, 18
3, 140904, Note_on_c, 9, 51, 47
3, 140928, Note_on_c, 9, 40, 0
3, 141128, Note_on_c, 9, 51, 0
3, 141296, Note_on_c, 9, 51, 42
3, 141464, Note_on_c, 9, 51, 0
3, 141544, Note_on_c, 9, 35, 40
3, 141576, Note_on_c, 9, 51, 49
3, 141584, Note_on_c, 9, 35, 0
3, 141624, Note_on_c, 9, 51, 0
3, 141672, Note_on_c, 9, 51, 39
3, 141672, Note_on_c, 9, 35, 24
3, 141704, Note_on_c, 9, 35, 0
3, 141816, Note_on_c, 9, 64, 42
3, 141840, Note_on_c, 9, 64, 0
3, 141880, Note_on_c, 9, 64, 49
3, 141936, Note_on_c, 9, 64, 0
3, 141936, Note_on_c, 9, 51, 0
3, 141968, Note_on_c, 9, 64, 39
3, 141992, Note_on_c, 9, 64, 0
3, 142032, Note_on_c, 9, 40, 25
3, 142072, Note_on_c, 9, 51, 56
3, 142096, Note_on_c, 9, 40, 0
3, 142200, Note_on_c, 9, 63, 55
3, 142240, Note_on_c, 9, 63, 0
3, 142240, Note_on_c, 9, 51, 0
3, 142336, Note_on_c, 9, 51, 50
3, 142376, Note_on_c, 9, 51, 0
3, 142392, Note_on_c, 9, 63, 56
3, 142440, Note_on_c, 9, 63, 0
3, 142448, Note_on_c, 9, 51, 42
3, 142648, Note_on_c, 9, 63, 41
3, 142656, Note_on_c, 9, 51, 0
3, 142680, Note_on_c, 9, 63, 0
3, 142680, Note_on_c, 9, 35, 37
3, 142704, Note_on_c, 9, 51, 53
3, 142744, Note_on_c, 9, 35, 0
3, 142752, Note_on_c, 9, 51, 0
3, 142752, Note_on_c, 9, 64, 44
3, 142776, Note_on_c, 9, 64, 0
3, 142816, Note_on_c, 9, 35, 32
3, 142824, Note_on_c, 9, 51, 47
3, 142832, Note_on_c, 9, 63, 44
3, 142848, Note_on_c, 9, 35, 0
3, 142888, Note_on_c, 9, 63, 0
3, 143048, Note_on_c, 9, 51, 0
3, 143168, Note_on_c, 9, 40, 28
3, 143184, Note_on_c, 9, 51, 57
3, 143232, Note_on_c, 9, 40, 0
3, 143344, Note_on_c, 9, 51, 0
3, 143464, Note_on_c, 9, 51, 55
3, 143496, Note_on_c, 9, 51, 0
3, 143584, Note_on_c, 9, 51, 46
3, 143792, Note_on_c, 9, 51, 0
3, 143840, Note_on_c, 9, 35, 36
3, 143880, Note_on_c, 9, 35, 0
3, 143960, Note_on_c, 9, 51, 50
3, 144184, Note_on_c, 9, 51, 0
3, 144248, Note_on_c, 9, 51, 28
3, 144272, Note_on_c, 9, 51, 0
3, 144360, Note_on_c, 9, 51, 49
3, 144624, Note_on_c, 9, 51, 0
3, 144736, Note_on_c, 9, 51, 57
3, 144920, Note_on_c, 9, 51, 0
3, 145000, Note_on_c, 9, 35, 36
3, 145008, Note_on_c, 9, 37, 47
3, 145016, Note_on_c, 9, 51, 49
3, 145024, Note_on_c, 9, 37, 0
3, 145056, Note_on_c, 9, 51, 0
3, 145056, Note_on_c, 9, 35, 0
3, 145136, Note_on_c, 9, 51, 53
3, 145136, Note_on_c, 9, 35, 25
3, 145176, Note_on_c, 9, 35, 0
3, 145352, Note_on_c, 9, 51, 0
3, 145488, Note_on_c, 9, 40, 22
3, 145512, Note_on_c, 9, 51, 50
3, 145552, Note_on_c, 9, 40, 0
3, 145688, Note_on_c, 9, 51, 0
3, 145768, Note_on_c, 9, 51, 59
3, 145792, Note_on_c, 9, 37, 38
3, 145808, Note_on_c, 9, 51, 0
3, 145816, Note_on_c, 9, 37, 0
3, 145888, Note_on_c, 9, 51, 54
3, 146040, Note_on_c, 9, 51, 0
3, 146144, Note_on_c, 9, 37, 45
3, 146152, Note_on_c, 9, 51, 69
3, 146168, Note_on_c, 9, 37, 0
3, 146168, Note_on_c, 9, 35, 33
3, 146200, Note_on_c, 9, 35, 0
3, 146432, Note_on_c, 9, 51, 0
3, 146520, Note_on_c, 9, 51, 56
3, 146536, Note_on_c, 9, 37, 50
3, 146560, Note_on_c, 9, 37, 0
3, 146560, Note_on_c, 9, 51, 0
3, 146664, Note_on_c, 9, 51, 52
3, 146728, Note_on_c, 9, 51, 0
3, 146776, Note_on_c, 9, 53, 73
3, 146856, Note_on_c, 9, 53, 0
3, 146920, Note_on_c, 9, 37, 46
3, 146944, Note_on_c, 9, 37, 0
3, 147056, Note_on_c, 9, 53, 64
3, 147120, Note_on_c, 9, 53, 0
3, 147240, Note_on_c, 9, 37, 53
3, 147272, Note_on_c, 9, 37, 0
3, 147304, Note_on_c, 9, 53, 76
3, 147352, Note_on_c, 9, 53, 0
3, 147360, Note_on_c, 9, 37, 58
3, 147408, Note_on_c, 9, 37, 0
3, 147440, Note_on_c, 9, 51, 40
3, 147576, Note_on_c, 9, 51, 0
3, 147800, Note_on_c, 9, 40, 27
3, 147824, Note_on_c, 9, 51, 31
3, 147848, Note_on_c, 9, 40, 0
3, 147984, Note_on_c, 9, 51, 0
3, 148080, Note_on_c, 9, 51, 45
3, 148128, Note_on_c, 9, 51, 0
3, 148168, Note_on_c, 9, 40, 35
3, 148208, Note_on_c, 9, 51, 37
3, 148216, Note_on_c, 9, 40, 0
3, 148320, Note_on_c, 9, 51, 0
3, 148568, Note_on_c, 9, 51, 52
3, 148624, Note_on_c, 9, 51, 0
3, 148944, Note_on_c, 9, 40, 23
3, 148952, Note_on_c, 9, 51, 58
3, 148992, Note_on_c, 9, 40, 0
3, 149064, Note_on_c, 9, 51, 0
3, 149344, Note_on_c, 9, 51, 53
3, 149440, Note_on_c, 9, 51, 0
3, 149600, Note_on_c, 9, 35, 31
3, 149608, Note_on_c, 9, 51, 53
3, 149632, Note_on_c, 9, 51, 0
3, 149632, Note_on_c, 9, 35, 0
3, 149720, Note_on_c, 9, 51, 46
3, 149736, Note_on_c, 9, 35, 30
3, 149768, Note_on_c, 9, 35, 0
3, 149920, Note_on_c, 9, 51, 0
3, 150088, Note_on_c, 9, 40, 23
3, 150112, Note_on_c, 9, 51, 57
3, 150120, Note_on_c, 9, 40, 0
3, 150272, Note_on_c, 9, 51, 0
3, 150504, Note_on_c, 9, 51, 69
3, 150560, Note_on_c, 9, 51, 0
3, 150768, Note_on_c, 9, 35, 24
3, 150784, Note_on_c, 9, 51, 47
3, 150808, Note_on_c, 9, 35, 0
3, 150816, Note_on_c, 9, 51, 0
3, 150896, Note_on_c, 9, 35, 22
3, 150904, Note_on_c, 9, 51, 32
3, 150936, Note_on_c, 9, 35, 0
3, 151032, Note_on_c, 9, 38, 24
3, 151064, Note_on_c, 9, 38, 0
3, 151120, Note_on_c, 9, 51, 0
3, 151240, Note_on_c, 9, 40, 27
3, 151304, Note_on_c, 9, 40, 0
3, 151400, Note_on_c, 9, 51, 67
3, 151448, Note_on_c, 9, 51, 0
3, 151664, Note_on_c, 9, 51, 64
3, 151816, Note_on_c, 9, 51, 0
3, 151912, Note_on_c, 9, 35, 39
3, 151920, Note_on_c, 9, 51, 52
3, 151960, Note_on_c, 9, 51, 0
3, 151968, Note_on_c, 9, 35, 0
3, 152040, Note_on_c, 9, 51, 34
3, 152040, Note_on_c, 9, 35, 30
3, 152072, Note_on_c, 9, 35, 0
3, 152224, Note_on_c, 9, 51, 0
3, 152392, Note_on_c, 9, 40, 26
3, 152416, Note_on_c, 9, 51, 51
3, 152456, Note_on_c, 9, 40, 0
3, 152480, Note_on_c, 9, 51, 0
3, 152600, Note_on_c, 9, 38, 21
3, 152632, Note_on_c, 9, 38, 0
3, 152800, Note_on_c, 9, 51, 55
3, 152808, Note_on_c, 9, 38, 32
3, 152840, Note_on_c, 9, 38, 0
3, 152872, Note_on_c, 9, 51, 0
3, 153032, Note_on_c, 9, 38, 38
3, 153056, Note_on_c, 9, 35, 30
3, 153072, Note_on_c, 9, 38, 0
3, 153080, Note_on_c, 9, 51, 56
3, 153104, Note_on_c, 9, 51, 0
3, 153120, Note_on_c, 9, 35, 0
3, 153184, Note_on_c, 9, 51, 53
3, 153216, Note_on_c, 9, 35, 23
3, 153256, Note_on_c, 9, 35, 0
3, 153256, Note_on_c, 9, 38, 33
3, 153280, Note_on_c, 9, 51, 0
3, 153296, Note_on_c, 9, 38, 0
3, 153496, Note_on_c, 9, 38, 31
3, 153544, Note_on_c, 9, 38, 0
3, 153544, Note_on_c, 9, 40, 25
3, 153568, Note_on_c, 9, 51, 50
3, 153616, Note_on_c, 9, 40, 0
3, 153656, Note_on_c, 9, 51, 0
3, 153736, Note_on_c, 9, 38, 26
3, 153776, Note_on_c, 9, 38, 0
3, 153960, Note_on_c, 9, 51, 51
3, 154112, Note_on_c, 9, 51, 0
3, 154208, Note_on_c, 9, 35, 37
3, 154224, Note_on_c, 9, 51, 42
3, 154248, Note_on_c, 9, 35, 0
3, 154256, Note_on_c, 9, 51, 0
3, 154336, Note_on_c, 9, 51, 46
3, 154336, Note_on_c, 9, 35, 26
3, 154376, Note_on_c, 9, 35, 0
3, 154560, Note_on_c, 9, 51, 0
3, 154688, Note_on_c, 9, 40, 27
3, 154736, Note_on_c, 9, 51, 49
3, 154752, Note_on_c, 9, 40, 0
3, 154888, Note_on_c, 9, 51, 0
3, 154992, Note_on_c, 9, 51, 44
3, 155024, Note_on_c, 9, 51, 0
3, 155120, Note_on_c, 9, 51, 46
3, 155288, Note_on_c, 9, 51, 0
3, 155360, Note_on_c, 9, 35, 38
3, 155376, Note_on_c, 9, 51, 42
3, 155392, Note_on_c, 9, 35, 0
3, 155432, Note_on_c, 9, 51, 0
3, 155488, Note_on_c, 9, 35, 33
3, 155496, Note_on_c, 9, 51, 52
3, 155520, Note_on_c, 9, 35, 0
3, 155664, Note_on_c, 9, 51, 0
3, 155824, Note_on_c, 9, 40, 32
3, 155872, Note_on_c, 9, 51, 64
3, 155904, Note_on_c, 9, 40, 0
3, 155984, Note_on_c, 9, 51, 0
3, 156128, Note_on_c, 9, 51, 38
3, 156160, Note_on_c, 9, 51, 0
3, 156248, Note_on_c, 9, 51, 52
3, 156320, Note_on_c, 9, 75, 63
3, 156352, Note_on_c, 9, 75, 0
3, 156416, Note_on_c, 9, 51, 0
3, 156440, Note_on_c, 9, 75, 53
3, 156480, Note_on_c, 9, 53, 72
3, 156480, Note_on_c, 9, 38, 63
3, 156496, Note_on_c, 9, 75, 0
3, 156520, Note_on_c, 9, 53, 0
3, 156528, Note_on_c, 9, 38, 0
3, 156528, Note_on_c, 9, 35, 33
3, 156576, Note_on_c, 9, 35, 0
3, 156624, Note_on_c, 9, 51, 42
3, 156672, Note_on_c, 9, 35, 26
3, 156712, Note_on_c, 9, 35, 0
3, 156744, Note_on_c, 9, 75, 54
3, 156768, Note_on_c, 9, 75, 0
3, 156864, Note_on_c, 9, 75, 53
3, 156872, Note_on_c, 9, 51, 0
3, 156888, Note_on_c, 9, 75, 0
3, 157000, Note_on_c, 9, 40, 32
3, 157008, Note_on_c, 9, 51, 43
3, 157096, Note_on_c, 9, 40, 0
3, 157128, Note_on_c, 9, 75, 32
3, 157152, Note_on_c, 9, 51, 0
3, 157184, Note_on_c, 9, 75, 0
3, 157240, Note_on_c, 9, 75, 70
3, 157272, Note_on_c, 9, 75, 0
3, 157296, Note_on_c, 9, 51, 32
3, 157328, Note_on_c, 9, 51, 0
3, 157424, Note_on_c, 9, 51, 35
3, 157496, Note_on_c, 9, 51, 0
3, 157520, Note_on_c, 9, 75, 53
3, 157552, Note_on_c, 9, 75, 0
3, 157616, Note_on_c, 9, 75, 59
3, 157664, Note_on_c, 9, 51, 60
3, 157664, Note_on_c, 9, 35, 32
3, 157680, Note_on_c, 9, 75, 0
3, 157704, Note_on_c, 9, 35, 0
3, 157712, Note_on_c, 9, 51, 0
3, 157792, Note_on_c, 9, 35, 27
3, 157824, Note_on_c, 9, 35, 0
3, 157912, Note_on_c, 9, 75, 56
3, 157936, Note_on_c, 9, 51, 53
3, 157944, Note_on_c, 9, 75, 0
3, 157968, Note_on_c, 9, 51, 0
3, 158000, Note_on_c, 9, 75, 57
3, 158040, Note_on_c, 9, 75, 0
3, 158056, Note_on_c, 9, 51, 59
3, 158104, Note_on_c, 9, 51, 0
3, 158136, Note_on_c, 9, 40, 27
3, 158176, Note_on_c, 9, 51, 51
3, 158224, Note_on_c, 9, 51, 0
3, 158248, Note_on_c, 9, 40, 0
3, 158272, Note_on_c, 9, 75, 59
3, 158304, Note_on_c, 9, 75, 0
3, 158376, Note_on_c, 9, 75, 51
3, 158408, Note_on_c, 9, 51, 73
3, 158424, Note_on_c, 9, 75, 0
3, 158464, Note_on_c, 9, 51, 0
3, 158656, Note_on_c, 9, 75, 81
3, 158704, Note_on_c, 9, 75, 0
3, 158704, Note_on_c, 9, 51, 54
3, 158728, Note_on_c, 9, 51, 0
3, 158768, Note_on_c, 9, 75, 70
3, 158808, Note_on_c, 9, 75, 0
3, 158808, Note_on_c, 9, 51, 56
3, 158816, Note_on_c, 9, 35, 32
3, 158864, Note_on_c, 9, 35, 0
3, 158864, Note_on_c, 9, 51, 0
3, 158936, Note_on_c, 9, 51, 62
3, 158944, Note_on_c, 9, 35, 29
3, 159000, Note_on_c, 9, 35, 0
3, 159000, Note_on_c, 9, 51, 0
3, 159288, Note_on_c, 9, 40, 29
3, 159320, Note_on_c, 9, 51, 51
3, 159392, Note_on_c, 9, 51, 0
3, 159416, Note_on_c, 9, 40, 0
3, 159648, Note_on_c, 9, 40, 40
3, 159728, Note_on_c, 9, 40, 0
3, 159968, Note_on_c, 9, 51, 45
3, 160000, Note_on_c, 9, 51, 0
3, 160080, Note_on_c, 9, 51, 37
3, 160096, Note_on_c, 9, 35, 21
3, 160128, Note_on_c, 9, 35, 0
3, 160280, Note_on_c, 9, 51, 0
3, 160440, Note_on_c, 9, 40, 27
3, 160464, Note_on_c, 9, 51, 60
3, 160512, Note_on_c, 9, 40, 0
3, 160624, Note_on_c, 9, 51, 0
3, 160752, Note_on_c, 9, 51, 42
3, 160784, Note_on_c, 9, 51, 0
3, 160872, Note_on_c, 9, 51, 39
3, 160992, Note_on_c, 9, 35, 27
3, 161024, Note_on_c, 9, 35, 0
3, 161056, Note_on_c, 9, 51, 0
3, 161104, Note_on_c, 9, 35, 18
3, 161144, Note_on_c, 9, 37, 30
3, 161168, Note_on_c, 9, 37, 0
3, 161184, Note_on_c, 9, 35, 0
3, 161232, Note_on_c, 9, 35, 40
3, 161256, Note_on_c, 9, 51, 46
3, 161296, Note_on_c, 9, 35, 0
3, 161416, Note_on_c, 9, 51, 0
3, 161488, Note_on_c, 9, 35, 29
3, 161560, Note_on_c, 9, 35, 0
3, 161616, Note_on_c, 9, 35, 36
3, 161640, Note_on_c, 9, 51, 44
3, 161712, Note_on_c, 9, 35, 0
3, 161816, Note_on_c, 9, 51, 0
3, 161984, Note_on_c, 9, 40, 29
3, 162024, Note_on_c, 9, 51, 43
3, 162056, Note_on_c, 9, 40, 0
3, 162112, Note_on_c, 9, 51, 0
3, 162280, Note_on_c, 9, 51, 46
3, 162320, Note_on_c, 9, 51, 0
3, 162400, Note_on_c, 9, 51, 33
3, 162576, Note_on_c, 9, 51, 0
3, 162664, Note_on_c, 9, 35, 26
3, 162704, Note_on_c, 9, 35, 0
3, 162768, Note_on_c, 9, 51, 40
3, 162792, Note_on_c, 9, 35, 23
3, 162864, Note_on_c, 9, 35, 0
3, 162880, Note_on_c, 9, 51, 0
3, 163136, Note_on_c, 9, 40, 27
3, 163136, Note_on_c, 9, 40, 27
3, 163152, Note_on_c, 9, 51, 42
3, 163168, Note_on_c, 9, 40, 0
3, 163168, Note_on_c, 9, 40, 0
3, 163200, Note_on_c, 9, 40, 35
3, 163224, Note_on_c, 9, 40, 0
3, 163232, Note_on_c, 9, 51, 0
3, 163272, Note_on_c, 9, 40, 46
3, 163272, Note_on_c, 9, 53, 55
3, 163296, Note_on_c, 9, 40, 0
3, 163312, Note_on_c, 9, 53, 0
3, 163336, Note_on_c, 9, 40, 37
3, 163368, Note_on_c, 9, 40, 0
3, 163408, Note_on_c, 9, 51, 34
3, 163416, Note_on_c, 9, 40, 27
3, 163448, Note_on_c, 9, 40, 0
3, 163464, Note_on_c, 9, 51, 0
3, 163504, Note_on_c, 9, 37, 53
3, 163528, Note_on_c, 9, 37, 0
3, 163552, Note_on_c, 9, 51, 50
3, 163704, Note_on_c, 9, 51, 0
3, 163936, Note_on_c, 9, 51, 43
3, 163984, Note_on_c, 9, 35, 30
3, 164024, Note_on_c, 9, 51, 0
3, 164056, Note_on_c, 9, 35, 0
3, 164328, Note_on_c, 9, 51, 34
3, 164400, Note_on_c, 9, 51, 0
3, 164560, Note_on_c, 9, 40, 28
3, 164592, Note_on_c, 9, 40, 0
3, 164688, Note_on_c, 9, 40, 24
3, 164712, Note_on_c, 9, 51, 49
3, 164752, Note_on_c, 9, 40, 0
3, 164792, Note_on_c, 9, 51, 0
3, 164952, Note_on_c, 9, 35, 37
3, 165016, Note_on_c, 9, 35, 0
3, 165096, Note_on_c, 9, 51, 39
3, 165096, Note_on_c, 9, 35, 27
3, 165160, Note_on_c, 9, 51, 0
3, 165352, Note_on_c, 9, 51, 57
3, 165384, Note_on_c, 9, 35, 0
3, 165392, Note_on_c, 9, 51, 0
3, 165456, Note_on_c, 9, 40, 27
3, 165480, Note_on_c, 9, 51, 46
3, 165512, Note_on_c, 9, 40, 0
3, 165544, Note_on_c, 9, 51, 0
3, 165632, Note_on_c, 9, 40, 41
3, 165664, Note_on_c, 9, 40, 0
3, 165736, Note_on_c, 9, 51, 67
3, 165744, Note_on_c, 9, 37, 39
3, 165768, Note_on_c, 9, 37, 0
3, 165808, Note_on_c, 9, 51, 0
3, 165880, Note_on_c, 9, 51, 40
3, 165912, Note_on_c, 9, 35, 16
3, 165928, Note_on_c, 9, 51, 0
3, 165936, Note_on_c, 9, 35, 0
3, 166120, Note_on_c, 9, 35, 24
3, 166168, Note_on_c, 9, 35, 0
3, 166248, Note_on_c, 9, 51, 49
3, 166264, Note_on_c, 9, 35, 27
3, 166320, Note_on_c, 9, 51, 0
3, 166600, Note_on_c, 9, 35, 0
3, 166608, Note_on_c, 9, 40, 27
3, 166640, Note_on_c, 9, 51, 37
3, 166688, Note_on_c, 9, 40, 0
3, 166712, Note_on_c, 9, 51, 0
3, 166768, Note_on_c, 9, 40, 38
3, 166800, Note_on_c, 9, 40, 0
3, 166888, Note_on_c, 9, 37, 52
3, 166896, Note_on_c, 9, 51, 44
3, 166912, Note_on_c, 9, 37, 0
3, 166936, Note_on_c, 9, 51, 0
3, 167024, Note_on_c, 9, 51, 46
3, 167168, Note_on_c, 9, 51, 0
3, 167280, Note_on_c, 9, 35, 22
3, 167328, Note_on_c, 9, 35, 0
3, 167384, Note_on_c, 9, 40, 32
3, 167408, Note_on_c, 9, 51, 32
3, 167408, Note_on_c, 9, 35, 34
3, 167448, Note_on_c, 9, 40, 0
3, 167472, Note_on_c, 9, 51, 0
3, 167488, Note_on_c, 9, 35, 0
3, 167512, Note_on_c, 9, 37, 47
3, 167536, Note_on_c, 9, 37, 0
3, 167632, Note_on_c, 9, 35, 37
3, 167680, Note_on_c, 9, 51, 49
3, 167688, Note_on_c, 9, 35, 0
3, 167720, Note_on_c, 9, 51, 0
3, 167752, Note_on_c, 9, 40, 24
3, 167776, Note_on_c, 9, 40, 0
3, 167800, Note_on_c, 9, 51, 40
3, 167832, Note_on_c, 9, 51, 0
3, 167888, Note_on_c, 9, 40, 33
3, 167944, Note_on_c, 9, 40, 0
3, 168000, Note_on_c, 9, 40, 36
3, 168016, Note_on_c, 9, 37, 49
3, 168024, Note_on_c, 9, 40, 0
3, 168032, Note_on_c, 9, 51, 58
3, 168040, Note_on_c, 9, 37, 0
3, 168080, Note_on_c, 9, 51, 0
3, 168152, Note_on_c, 9, 35, 32
3, 168168, Note_on_c, 9, 51, 54
3, 168200, Note_on_c, 9, 35, 0
3, 168264, Note_on_c, 9, 51, 0
3, 168304, Note_on_c, 9, 35, 27
3, 168360, Note_on_c, 9, 35, 0
3, 168400, Note_on_c, 9, 53, 61
3, 168416, Note_on_c, 9, 35, 35
3, 168448, Note_on_c, 9, 53, 0
3, 168472, Note_on_c, 9, 35, 0
3, 168504, Note_on_c, 9, 40, 43
3, 168544, Note_on_c, 9, 35, 35
3, 168552, Note_on_c, 9, 51, 25
3, 168568, Note_on_c, 9, 40, 0
3, 168624, Note_on_c, 9, 51, 0
3, 168624, Note_on_c, 9, 35, 0
3, 168648, Note_on_c, 9, 37, 47
3, 168672, Note_on_c, 9, 37, 0
3, 168752, Note_on_c, 9, 35, 42
3, 168784, Note_on_c, 9, 51, 51
3, 168808, Note_on_c, 9, 35, 0
3, 168832, Note_on_c, 9, 51, 0
3, 168896, Note_on_c, 9, 40, 31
3, 168928, Note_on_c, 9, 51, 36
3, 168960, Note_on_c, 9, 40, 0
3, 168984, Note_on_c, 9, 51, 0
3, 169080, Note_on_c, 9, 40, 37
3, 169112, Note_on_c, 9, 40, 0
3, 169160, Note_on_c, 9, 51, 49
3, 169176, Note_on_c, 9, 37, 46
3, 169200, Note_on_c, 9, 51, 0
3, 169208, Note_on_c, 9, 37, 0
3, 169280, Note_on_c, 9, 40, 29
3, 169304, Note_on_c, 9, 51, 34
3, 169320, Note_on_c, 9, 35, 44
3, 169344, Note_on_c, 9, 40, 0
3, 169376, Note_on_c, 9, 51, 0
3, 169384, Note_on_c, 9, 35, 0
3, 169672, Note_on_c, 9, 40, 40
3, 169672, Note_on_c, 9, 51, 64
3, 169712, Note_on_c, 9, 35, 32
3, 169720, Note_on_c, 9, 40, 0
3, 169808, Note_on_c, 9, 51, 0
3, 169808, Note_on_c, 9, 37, 49
3, 169832, Note_on_c, 9, 37, 0
3, 169936, Note_on_c, 9, 35, 40
3, 169960, Note_on_c, 9, 35, 0
3, 170048, Note_on_c, 9, 35, 0
3, 170072, Note_on_c, 9, 51, 45
3, 170176, Note_on_c, 9, 51, 0
3, 170200, Note_on_c, 9, 40, 50
3, 170256, Note_on_c, 9, 40, 0
3, 170296, Note_on_c, 9, 37, 49
3, 170320, Note_on_c, 9, 38, 74
3, 170344, Note_on_c, 9, 51, 46
3, 170352, Note_on_c, 9, 37, 0
3, 170376, Note_on_c, 9, 38, 0
3, 170408, Note_on_c, 9, 51, 0
3, 170464, Note_on_c, 9, 33, 18
3, 170472, Note_on_c, 9, 51, 45
3, 170488, Note_on_c, 9, 33, 0
3, 170504, Note_on_c, 9, 35, 18
3, 170712, Note_on_c, 9, 51, 0
3, 170776, Note_on_c, 9, 35, 0
3, 170824, Note_on_c, 9, 40, 29
3, 170856, Note_on_c, 9, 40, 0
3, 170856, Note_on_c, 9, 51, 31
3, 170896, Note_on_c, 9, 51, 0
3, 171104, Note_on_c, 9, 51, 36
3, 171168, Note_on_c, 9, 51, 0
3, 171184, Note_on_c, 9, 40, 31
3, 171232, Note_on_c, 9, 51, 25
3, 171248, Note_on_c, 9, 40, 0
3, 171304, Note_on_c, 9, 51, 0
3, 171480, Note_on_c, 9, 51, 45
3, 171480, Note_on_c, 9, 35, 28
3, 171528, Note_on_c, 9, 35, 0
3, 171528, Note_on_c, 9, 51, 0
3, 171616, Note_on_c, 9, 51, 31
3, 171624, Note_on_c, 9, 35, 21
3, 171664, Note_on_c, 9, 35, 0
3, 171688, Note_on_c, 9, 51, 0
3, 171976, Note_on_c, 9, 40, 22
3, 171984, Note_on_c, 9, 51, 34
3, 172024, Note_on_c, 9, 40, 0
3, 172048, Note_on_c, 9, 51, 0
3, 172504, Note_on_c, 9, 75, 53
3, 172528, Note_on_c, 9, 75, 0
3, 172592, Note_on_c, 9, 53, 53
3, 172616, Note_on_c, 9, 53, 0
3, 172656, Note_on_c, 9, 35, 30
3, 172712, Note_on_c, 9, 35, 0
3, 172728, Note_on_c, 9, 51, 35
3, 172760, Note_on_c, 9, 75, 65
3, 172784, Note_on_c, 9, 75, 0
3, 172784, Note_on_c, 9, 35, 34
3, 172824, Note_on_c, 9, 35, 0
3, 172856, Note_on_c, 9, 51, 0
3, 173016, Note_on_c, 9, 75, 54
3, 173040, Note_on_c, 9, 75, 0
3, 173128, Note_on_c, 9, 40, 29
3, 173168, Note_on_c, 9, 51, 35
3, 173192, Note_on_c, 9, 40, 0
3, 173224, Note_on_c, 9, 51, 0
3, 173256, Note_on_c, 9, 75, 59
3, 173272, Note_on_c, 9, 51, 55
3, 173312, Note_on_c, 9, 51, 0
3, 173320, Note_on_c, 9, 75, 0
3, 173520, Note_on_c, 9, 40, 27
3, 173544, Note_on_c, 9, 75, 56
3, 173576, Note_on_c, 9, 51, 36
3, 173600, Note_on_c, 9, 75, 0
3, 173616, Note_on_c, 9, 51, 0
3, 173664, Note_on_c, 9, 51, 50
3, 173712, Note_on_c, 9, 51, 0
3, 173736, Note_on_c, 9, 40, 0
3, 173800, Note_on_c, 9, 75, 54
3, 173864, Note_on_c, 9, 75, 0
3, 173912, Note_on_c, 9, 35, 25
3, 173944, Note_on_c, 9, 51, 45
3, 173952, Note_on_c, 9, 35, 0
3, 174000, Note_on_c, 9, 51, 0
3, 174048, Note_on_c, 9, 75, 67
3, 174056, Note_on_c, 9, 53, 55
3, 174088, Note_on_c, 9, 75, 0
3, 174096, Note_on_c, 9, 53, 0
3, 174288, Note_on_c, 9, 40, 25
3, 174296, Note_on_c, 9, 75, 75
3, 174312, Note_on_c, 9, 53, 48
3, 174328, Note_on_c, 9, 75, 0
3, 174344, Note_on_c, 9, 40, 0
3, 174376, Note_on_c, 9, 53, 0
3, 174544, Note_on_c, 9, 75, 88
3, 174576, Note_on_c, 9, 75, 0
3, 174576, Note_on_c, 9, 53, 52
3, 174624, Note_on_c, 9, 53, 0
3, 174672, Note_on_c, 9, 40, 37
3, 174736, Note_on_c, 9, 40, 0
3, 174776, Note_on_c, 9, 75, 88
3, 174824, Note_on_c, 9, 75, 0
3, 174832, Note_on_c, 9, 53, 52
3, 174880, Note_on_c, 9, 53, 0
3, 174952, Note_on_c, 9, 51, 50
3, 174968, Note_on_c, 9, 35, 26
3, 174992, Note_on_c, 9, 51, 0
3, 175008, Note_on_c, 9, 35, 0
3, 175032, Note_on_c, 9, 75, 88
3, 175080, Note_on_c, 9, 75, 0
3, 175088, Note_on_c, 9, 51, 39
3, 175104, Note_on_c, 9, 35, 24
3, 175152, Note_on_c, 9, 35, 0
3, 175248, Note_on_c, 9, 51, 0
3, 175304, Note_on_c, 9, 75, 67
3, 175344, Note_on_c, 9, 75, 0
3, 175448, Note_on_c, 9, 40, 18
3, 175480, Note_on_c, 9, 51, 36
3, 175488, Note_on_c, 9, 40, 0
3, 175552, Note_on_c, 9, 51, 0
3, 175584, Note_on_c, 9, 75, 56
3, 175656, Note_on_c, 9, 75, 0
3, 175712, Note_on_c, 9, 35, 18
3, 175720, Note_on_c, 9, 51, 40
3, 175736, Note_on_c, 9, 35, 0
3, 175760, Note_on_c, 9, 51, 0
3, 175832, Note_on_c, 9, 40, 26
3, 175848, Note_on_c, 9, 51, 28
3, 175864, Note_on_c, 9, 75, 53
3, 175880, Note_on_c, 9, 40, 0
3, 175888, Note_on_c, 9, 51, 0
3, 175928, Note_on_c, 9, 75, 0
3, 176096, Note_on_c, 9, 51, 46
3, 176128, Note_on_c, 9, 51, 0
3, 176128, Note_on_c, 9, 35, 18
3, 176160, Note_on_c, 9, 35, 0
3, 176224, Note_on_c, 9, 51, 55
3, 176256, Note_on_c, 9, 35, 20
3, 176288, Note_on_c, 9, 35, 0
3, 176304, Note_on_c, 9, 51, 0
3, 176592, Note_on_c, 9, 40, 22
3, 176608, Note_on_c, 9, 51, 37
3, 176632, Note_on_c, 9, 51, 0
3, 176632, Note_on_c, 9, 40, 0
3, 176736, Note_on_c, 9, 51, 60
3, 176768, Note_on_c, 9, 51, 0
3, 176872, Note_on_c, 9, 35, 23
3, 176896, Note_on_c, 9, 35, 0
3, 176976, Note_on_c, 9, 40, 33
3, 176992, Note_on_c, 9, 51, 59
3, 177008, Note_on_c, 9, 40, 0
3, 177040, Note_on_c, 9, 51, 0
3, 177184, Note_on_c, 9, 75, 56
3, 177208, Note_on_c, 9, 75, 0
3, 177248, Note_on_c, 9, 51, 48
3, 177264, Note_on_c, 9, 35, 34
3, 177304, Note_on_c, 9, 35, 0
3, 177304, Note_on_c, 9, 51, 0
3, 177416, Note_on_c, 9, 35, 24
3, 177448, Note_on_c, 9, 35, 0
3, 177496, Note_on_c, 9, 51, 51
3, 177544, Note_on_c, 9, 51, 0
3, 177616, Note_on_c, 9, 51, 33
3, 177664, Note_on_c, 9, 51, 0
3, 177744, Note_on_c, 9, 51, 49
3, 177744, Note_on_c, 9, 40, 22
3, 177768, Note_on_c, 9, 51, 0
3, 177776, Note_on_c, 9, 40, 0
3, 177984, Note_on_c, 9, 51, 52
3, 178008, Note_on_c, 9, 51, 0
3, 178016, Note_on_c, 9, 35, 21
3, 178048, Note_on_c, 9, 35, 0
3, 178112, Note_on_c, 9, 40, 31
3, 178280, Note_on_c, 9, 51, 37
3, 178304, Note_on_c, 9, 51, 0
3, 178320, Note_on_c, 9, 40, 0
3, 178384, Note_on_c, 9, 51, 33
3, 178408, Note_on_c, 9, 35, 28
3, 178440, Note_on_c, 9, 35, 0
3, 178448, Note_on_c, 9, 51, 0
3, 178512, Note_on_c, 9, 51, 40
3, 178552, Note_on_c, 9, 35, 21
3, 178568, Note_on_c, 9, 51, 0
3, 178592, Note_on_c, 9, 35, 0
3, 178864, Note_on_c, 9, 40, 28
3, 178904, Note_on_c, 9, 51, 57
3, 178944, Note_on_c, 9, 40, 0
3, 178952, Note_on_c, 9, 40, 29
3, 178968, Note_on_c, 9, 51, 0
3, 178984, Note_on_c, 9, 40, 0
3, 179168, Note_on_c, 9, 51, 50
3, 179192, Note_on_c, 9, 51, 0
3, 179200, Note_on_c, 9, 40, 43
3, 179216, Note_on_c, 9, 40, 0
3, 179272, Note_on_c, 9, 40, 24
3, 179296, Note_on_c, 9, 51, 36
3, 179320, Note_on_c, 9, 51, 0
3, 179376, Note_on_c, 9, 40, 0
3, 179464, Note_on_c, 9, 37, 53
3, 179504, Note_on_c, 9, 37, 0
3, 179544, Note_on_c, 9, 51, 54
3, 179560, Note_on_c, 9, 35, 28
3, 179568, Note_on_c, 9, 51, 0
3, 179568, Note_on_c, 9, 37, 56
3, 179600, Note_on_c, 9, 35, 0
3, 179648, Note_on_c, 9, 37, 0
3, 179680, Note_on_c, 9, 51, 49
3, 179696, Note_on_c, 9, 35, 30
3, 179712, Note_on_c, 9, 51, 0
3, 179712, Note_on_c, 9, 35, 27
3, 179728, Note_on_c, 9, 35, 0
3, 179968, Note_on_c, 9, 35, 0
3, 180048, Note_on_c, 9, 40, 26
3, 180088, Note_on_c, 9, 40, 0
3, 180304, Note_on_c, 9, 51, 47
3, 180352, Note_on_c, 9, 51, 0
3, 180424, Note_on_c, 9, 40, 29
3, 180440, Note_on_c, 9, 51, 33
3, 180480, Note_on_c, 9, 40, 0
3, 180512, Note_on_c, 9, 51, 0
3, 180704, Note_on_c, 9, 37, 25
3, 180712, Note_on_c, 9, 35, 26
3, 180728, Note_on_c, 9, 37, 0
3, 180752, Note_on_c, 9, 35, 0
3, 180824, Note_on_c, 9, 37, 25
3, 180848, Note_on_c, 9, 35, 24
3, 180880, Note_on_c, 9, 35, 0
3, 180936, Note_on_c, 9, 37, 0
3, 181072, Note_on_c, 9, 51, 47
3, 181096, Note_on_c, 9, 37, 25
3, 181112, Note_on_c, 9, 51, 0
3, 181136, Note_on_c, 9, 37, 0
3, 181200, Note_on_c, 9, 40, 18
3, 181216, Note_on_c, 9, 51, 32
3, 181232, Note_on_c, 9, 40, 0
3, 181312, Note_on_c, 9, 51, 0
3, 181432, Note_on_c, 9, 53, 50
3, 181464, Note_on_c, 9, 53, 0
3, 181584, Note_on_c, 9, 40, 36
3, 181600, Note_on_c, 9, 51, 27
3, 181648, Note_on_c, 9, 40, 0
3, 181680, Note_on_c, 9, 51, 0
3, 181840, Note_on_c, 9, 51, 40
3, 181872, Note_on_c, 9, 35, 38
3, 181888, Note_on_c, 9, 51, 0
3, 181920, Note_on_c, 9, 35, 0
3, 181968, Note_on_c, 9, 51, 32
3, 181992, Note_on_c, 9, 35, 34
3, 182032, Note_on_c, 9, 35, 0
3, 182136, Note_on_c, 9, 51, 0
3, 182344, Note_on_c, 9, 40, 28
3, 182376, Note_on_c, 9, 51, 35
3, 182384, Note_on_c, 9, 40, 0
3, 182448, Note_on_c, 9, 51, 0
3, 182632, Note_on_c, 9, 51, 38
3, 182664, Note_on_c, 9, 51, 0
3, 182720, Note_on_c, 9, 40, 29
3, 182752, Note_on_c, 9, 40, 0
3, 182760, Note_on_c, 9, 51, 32
3, 182832, Note_on_c, 9, 51, 0
3, 183008, Note_on_c, 9, 51, 33
3, 183008, Note_on_c, 9, 35, 33
3, 183040, Note_on_c, 9, 35, 0
3, 183072, Note_on_c, 9, 51, 0
3, 183136, Note_on_c, 9, 35, 27
3, 183144, Note_on_c, 9, 51, 33
3, 183168, Note_on_c, 9, 35, 0
3, 183224, Note_on_c, 9, 51, 0
3, 183496, Note_on_c, 9, 40, 26
3, 183504, Note_on_c, 9, 51, 32
3, 183544, Note_on_c, 9, 40, 0
3, 183568, Note_on_c, 9, 51, 0
3, 183912, Note_on_c, 9, 51, 31
3, 183968, Note_on_c, 9, 51, 0
3, 184072, Note_on_c, 9, 37, 42
3, 184096, Note_on_c, 9, 37, 0
3, 184168, Note_on_c, 9, 35, 37
3, 184184, Note_on_c, 9, 35, 32
3, 184216, Note_on_c, 9, 35, 0
3, 184216, Note_on_c, 9, 35, 0
3, 184288, Note_on_c, 9, 35, 35
3, 184304, Note_on_c, 9, 51, 34
3, 184328, Note_on_c, 9, 37, 40
3, 184344, Note_on_c, 9, 35, 0
3, 184352, Note_on_c, 9, 37, 0
3, 184368, Note_on_c, 9, 51, 0
3, 184440, Note_on_c, 9, 35, 37
3, 184472, Note_on_c, 9, 35, 0
3, 184552, Note_on_c, 9, 37, 42
3, 184568, Note_on_c, 9, 51, 27
3, 184576, Note_on_c, 9, 37, 0
3, 184624, Note_on_c, 9, 51, 0
3, 184648, Note_on_c, 9, 40, 27
3, 184680, Note_on_c, 9, 51, 30
3, 184688, Note_on_c, 9, 35, 33
3, 184704, Note_on_c, 9, 40, 0
3, 184728, Note_on_c, 9, 35, 0
3, 184760, Note_on_c, 9, 51, 0
3, 185032, Note_on_c, 9, 40, 32
3, 185096, Note_on_c, 9, 40, 0
3, 185312, Note_on_c, 9, 51, 59
3, 185320, Note_on_c, 9, 35, 27
3, 185352, Note_on_c, 9, 51, 0
3, 185360, Note_on_c, 9, 35, 0
3, 185448, Note_on_c, 9, 51, 35
3, 185456, Note_on_c, 9, 35, 24
3, 185488, Note_on_c, 9, 35, 0
3, 185512, Note_on_c, 9, 51, 0
3, 185800, Note_on_c, 9, 40, 24
3, 185848, Note_on_c, 9, 51, 42
3, 185856, Note_on_c, 9, 40, 0
3, 185872, Note_on_c, 9, 51, 0
3, 186088, Note_on_c, 9, 51, 54
3, 186112, Note_on_c, 9, 51, 0
3, 186472, Note_on_c, 9, 51, 37
3, 186472, Note_on_c, 9, 35, 42
3, 186496, Note_on_c, 9, 51, 0
3, 186512, Note_on_c, 9, 35, 0
3, 186592, Note_on_c, 9, 35, 33
3, 186616, Note_on_c, 9, 51, 49
3, 186632, Note_on_c, 9, 35, 0
3, 186696, Note_on_c, 9, 51, 0
3, 186936, Note_on_c, 9, 40, 27
3, 186960, Note_on_c, 9, 51, 46
3, 186992, Note_on_c, 9, 40, 0
3, 187000, Note_on_c, 9, 51, 0
3, 187184, Note_on_c, 9, 51, 62
3, 187208, Note_on_c, 9, 51, 0
3, 187240, Note_on_c, 9, 37, 39
3, 187264, Note_on_c, 9, 37, 0
3, 187336, Note_on_c, 9, 40, 25
3, 187360, Note_on_c, 9, 40, 0
3, 187504, Note_on_c, 9, 37, 53
3, 187544, Note_on_c, 9, 37, 0
3, 187600, Note_on_c, 9, 51, 51
3, 187648, Note_on_c, 9, 51, 0
3, 187768, Note_on_c, 9, 37, 53
3, 187768, Note_on_c, 9, 51, 43
3, 187768, Note_on_c, 9, 35, 29
3, 187800, Note_on_c, 9, 35, 0
3, 187816, Note_on_c, 9, 37, 0
3, 187864, Note_on_c, 9, 51, 0
3, 188032, Note_on_c, 9, 37, 51
3, 188080, Note_on_c, 9, 37, 0
3, 188104, Note_on_c, 9, 40, 23
3, 188112, Note_on_c, 9, 51, 43
3, 188136, Note_on_c, 9, 40, 0
3, 188160, Note_on_c, 9, 51, 0
3, 188288, Note_on_c, 9, 37, 46
3, 188336, Note_on_c, 9, 51, 65
3, 188344, Note_on_c, 9, 37, 0
3, 188384, Note_on_c, 9, 51, 0
3, 188536, Note_on_c, 9, 37, 37
3, 188600, Note_on_c, 9, 37, 0
3, 188760, Note_on_c, 9, 51, 44
3, 188784, Note_on_c, 9, 51, 0
3, 188784, Note_on_c, 9, 35, 27
3, 188792, Note_on_c, 9, 37, 34
3, 188816, Note_on_c, 9, 35, 0
3, 188840, Note_on_c, 9, 37, 0
3, 188904, Note_on_c, 9, 51, 30
3, 189072, Note_on_c, 9, 51, 0
3, 189248, Note_on_c, 9, 40, 21
3, 189288, Note_on_c, 9, 51, 35
3, 189312, Note_on_c, 9, 51, 0
3, 189312, Note_on_c, 9, 40, 0
3, 189560, Note_on_c, 9, 51, 39
3, 189616, Note_on_c, 9, 51, 0
3, 189672, Note_on_c, 9, 51, 34
3, 189760, Note_on_c, 9, 51, 0
3, 189936, Note_on_c, 9, 51, 49
3, 189936, Note_on_c, 9, 35, 33
3, 189976, Note_on_c, 9, 35, 0
3, 190000, Note_on_c, 9, 51, 0
3, 190072, Note_on_c, 9, 35, 26
3, 190088, Note_on_c, 9, 51, 33
3, 190136, Note_on_c, 9, 35, 0
3, 190144, Note_on_c, 9, 51, 0
3, 190408, Note_on_c, 9, 40, 35
3, 190472, Note_on_c, 9, 40, 0
3, 190696, Note_on_c, 9, 51, 56
3, 190704, Note_on_c, 9, 64, 25
3, 190736, Note_on_c, 9, 64, 0
3, 190736, Note_on_c, 9, 51, 0
3, 190784, Note_on_c, 9, 40, 36
3, 190832, Note_on_c, 9, 51, 23
3, 190856, Note_on_c, 9, 40, 0
3, 190896, Note_on_c, 9, 51, 0
3, 191048, Note_on_c, 9, 35, 40
3, 191064, Note_on_c, 9, 51, 48
3, 191096, Note_on_c, 9, 35, 0
3, 191120, Note_on_c, 9, 51, 0
3, 191184, Note_on_c, 9, 35, 28
3, 191200, Note_on_c, 9, 51, 50
3, 191224, Note_on_c, 9, 35, 0
3, 191256, Note_on_c, 9, 51, 0
3, 191552, Note_on_c, 9, 40, 39
3, 191584, Note_on_c, 9, 64, 30
3, 191608, Note_on_c, 9, 64, 0
3, 191632, Note_on_c, 9, 40, 0
3, 191720, Note_on_c, 9, 51, 43
3, 191744, Note_on_c, 9, 51, 0
3, 191832, Note_on_c, 9, 51, 43
3, 191856, Note_on_c, 9, 64, 35
3, 191872, Note_on_c, 9, 51, 0
3, 191880, Note_on_c, 9, 64, 0
3, 192120, Note_on_c, 9, 51, 36
3, 192144, Note_on_c, 9, 51, 0
3, 192224, Note_on_c, 9, 35, 30
3, 192240, Note_on_c, 9, 51, 28
3, 192264, Note_on_c, 9, 51, 0
3, 192288, Note_on_c, 9, 35, 0
3, 192368, Note_on_c, 9, 35, 38
3, 192416, Note_on_c, 9, 35, 0
3, 192496, Note_on_c, 9, 51, 42
3, 192520, Note_on_c, 9, 51, 0
3, 192616, Note_on_c, 9, 51, 26
3, 192640, Note_on_c, 9, 51, 0
3, 192712, Note_on_c, 9, 64, 38
3, 192728, Note_on_c, 9, 51, 49
3, 192728, Note_on_c, 9, 40, 30
3, 192736, Note_on_c, 9, 64, 0
3, 192752, Note_on_c, 9, 51, 0
3, 192784, Note_on_c, 9, 40, 0
3, 192960, Note_on_c, 9, 64, 56
3, 193008, Note_on_c, 9, 64, 0
3, 193096, Note_on_c, 9, 40, 27
3, 193104, Note_on_c, 9, 51, 51
3, 193128, Note_on_c, 9, 51, 0
3, 193176, Note_on_c, 9, 40, 0
3, 193232, Note_on_c, 9, 51, 62
3, 193256, Note_on_c, 9, 51, 0
3, 193376, Note_on_c, 9, 35, 29
3, 193432, Note_on_c, 9, 35, 0
3, 193520, Note_on_c, 9, 51, 60
3, 193520, Note_on_c, 9, 35, 19
3, 193536, Note_on_c, 9, 51, 0
3, 193576, Note_on_c, 9, 35, 0
3, 193872, Note_on_c, 9, 40, 21
3, 193896, Note_on_c, 9, 40, 0
3, 193896, Note_on_c, 9, 64, 40
3, 193912, Note_on_c, 9, 51, 39
3, 193920, Note_on_c, 9, 64, 0
3, 193936, Note_on_c, 9, 51, 0
3, 194032, Note_on_c, 9, 53, 44
3, 194056, Note_on_c, 9, 53, 0
3, 194136, Note_on_c, 9, 64, 52
3, 194184, Note_on_c, 9, 64, 0
3, 194312, Note_on_c, 9, 53, 61
3, 194360, Note_on_c, 9, 53, 0
3, 194512, Note_on_c, 9, 35, 37
3, 194552, Note_on_c, 9, 53, 72
3, 194560, Note_on_c, 9, 35, 0
3, 194616, Note_on_c, 9, 53, 0
3, 194664, Note_on_c, 9, 35, 30
3, 194720, Note_on_c, 9, 35, 0
3, 194816, Note_on_c, 9, 53, 65
3, 194872, Note_on_c, 9, 53, 0
3, 194936, Note_on_c, 9, 53, 78
3, 195000, Note_on_c, 9, 53, 0
3, 195056, Note_on_c, 9, 63, 32
3, 195080, Note_on_c, 9, 51, 55
3, 195136, Note_on_c, 9, 51, 0
3, 195240, Note_on_c, 9, 63, 0
3, 195288, Note_on_c, 9, 63, 37
3, 195320, Note_on_c, 9, 63, 0
3, 195336, Note_on_c, 9, 51, 52
3, 195376, Note_on_c, 9, 51, 0
3, 195576, Note_on_c, 9, 51, 47
3, 195608, Note_on_c, 9, 51, 0
3, 195680, Note_on_c, 9, 35, 35
3, 195704, Note_on_c, 9, 51, 33
3, 195720, Note_on_c, 9, 35, 0
3, 195776, Note_on_c, 9, 51, 0
3, 195824, Note_on_c, 9, 35, 24
3, 195832, Note_on_c, 9, 51, 38
3, 195864, Note_on_c, 9, 51, 0
3, 195888, Note_on_c, 9, 35, 0
3, 196080, Note_on_c, 9, 53, 63
3, 196128, Note_on_c, 9, 53, 0
3, 196320, Note_on_c, 9, 64, 21
3, 196376, Note_on_c, 9, 64, 0
3, 196448, Note_on_c, 9, 51, 57
3, 196456, Note_on_c, 9, 64, 34
3, 196456, Note_on_c, 9, 35, 28
3, 196488, Note_on_c, 9, 35, 0
3, 196504, Note_on_c, 9, 51, 0
3, 196528, Note_on_c, 9, 64, 0
3, 196592, Note_on_c, 9, 51, 42
3, 196592, Note_on_c, 9, 35, 30
3, 196632, Note_on_c, 9, 35, 0
3, 196640, Note_on_c, 9, 51, 0
3, 196744, Note_on_c, 9, 64, 36
3, 196824, Note_on_c, 9, 51, 55
3, 196864, Note_on_c, 9, 51, 0
3, 196904, Note_on_c, 9, 64, 0
3, 196984, Note_on_c, 9, 63, 51
3, 197032, Note_on_c, 9, 63, 0
3, 197208, Note_on_c, 9, 51, 50
3, 197208, Note_on_c, 9, 35, 32
3, 197248, Note_on_c, 9, 35, 0
3, 197248, Note_on_c, 9, 51, 0
3, 197248, Note_on_c, 9, 63, 56
3, 197328, Note_on_c, 9, 63, 0
3, 197360, Note_on_c, 9, 35, 22
3, 197400, Note_on_c, 9, 35, 0
3, 197440, Note_on_c, 9, 51, 63
3, 197488, Note_on_c, 9, 51, 0
3, 197504, Note_on_c, 9, 64, 19
3, 197520, Note_on_c, 9, 64, 0
3, 197576, Note_on_c, 9, 53, 46
3, 197616, Note_on_c, 9, 53, 0
3, 197616, Note_on_c, 9, 63, 54
3, 197688, Note_on_c, 9, 63, 0
3, 197720, Note_on_c, 9, 51, 39
3, 197744, Note_on_c, 9, 51, 0
3, 197824, Note_on_c, 9, 53, 47
3, 197848, Note_on_c, 9, 53, 0
3, 197944, Note_on_c, 9, 51, 53
3, 197968, Note_on_c, 9, 51, 0
3, 197984, Note_on_c, 9, 63, 58
3, 198000, Note_on_c, 9, 35, 43
3, 198040, Note_on_c, 9, 53, 69
3, 198056, Note_on_c, 9, 35, 0
3, 198072, Note_on_c, 9, 63, 0
3, 198088, Note_on_c, 9, 53, 0
3, 198136, Note_on_c, 9, 35, 28
3, 198144, Note_on_c, 9, 38, 52
3, 198184, Note_on_c, 9, 38, 0
3, 198256, Note_on_c, 9, 64, 30
3, 198272, Note_on_c, 9, 35, 0
3, 198280, Note_on_c, 9, 64, 0
3, 198376, Note_on_c, 9, 63, 55
3, 198440, Note_on_c, 9, 63, 0
3, 198512, Note_on_c, 9, 51, 42
3, 198536, Note_on_c, 9, 51, 0
3, 198656, Note_on_c, 9, 64, 36
3, 198704, Note_on_c, 9, 64, 0
3, 198736, Note_on_c, 9, 40, 48
3, 198768, Note_on_c, 9, 63, 49
3, 198768, Note_on_c, 9, 51, 48
3, 198776, Note_on_c, 9, 40, 0
3, 198792, Note_on_c, 9, 51, 0
3, 198848, Note_on_c, 9, 63, 0
3, 198904, Note_on_c, 9, 51, 28
3, 198944, Note_on_c, 9, 51, 0
3, 199128, Note_on_c, 9, 35, 36
3, 199136, Note_on_c, 9, 51, 46
3, 199176, Note_on_c, 9, 51, 0
3, 199176, Note_on_c, 9, 35, 0
3, 199272, Note_on_c, 9, 51, 33
3, 199280, Note_on_c, 9, 35, 26
3, 199368, Note_on_c, 9, 35, 0
3, 199368, Note_on_c, 9, 51, 0
3, 199616, Note_on_c, 9, 40, 29
3, 199640, Note_on_c, 9, 40, 0
3, 199648, Note_on_c, 9, 51, 39
3, 199672, Note_on_c, 9, 51, 0
3, 199928, Note_on_c, 9, 51, 33
3, 199928, Note_on_c, 9, 35, 23
3, 199952, Note_on_c, 9, 51, 0
3, 199960, Note_on_c, 9, 35, 0
3, 200144, Note_on_c, 9, 40, 42
3, 200168, Note_on_c, 9, 51, 55
3, 200192, Note_on_c, 9, 40, 0
3, 200208, Note_on_c, 9, 51, 0
3, 200264, Note_on_c, 9, 40, 39
3, 200288, Note_on_c, 9, 51, 45
3, 200304, Note_on_c, 9, 40, 0
3, 200360, Note_on_c, 9, 51, 0
3, 200424, Note_on_c, 9, 51, 30
3, 200432, Note_on_c, 9, 35, 37
3, 200464, Note_on_c, 9, 51, 0
3, 200472, Note_on_c, 9, 35, 0
3, 200816, Note_on_c, 9, 51, 35
3, 200856, Note_on_c, 9, 51, 0
3, 201160, Note_on_c, 9, 40, 34
3, 201200, Note_on_c, 9, 51, 37
3, 201224, Note_on_c, 9, 40, 0
3, 201256, Note_on_c, 9, 51, 0
3, 201432, Note_on_c, 9, 35, 39
3, 201472, Note_on_c, 9, 51, 31
3, 201480, Note_on_c, 9, 35, 0
3, 201520, Note_on_c, 9, 51, 0
3, 201568, Note_on_c, 9, 51, 37
3, 201568, Note_on_c, 9, 35, 25
3, 201640, Note_on_c, 9, 51, 0
3, 201656, Note_on_c, 9, 35, 0
3, 201680, Note_on_c, 9, 75, 70
3, 201704, Note_on_c, 9, 75, 0
3, 201928, Note_on_c, 9, 75, 88
3, 201928, Note_on_c, 9, 40, 27
3, 201944, Note_on_c, 9, 51, 38
3, 201960, Note_on_c, 9, 40, 0
3, 201968, Note_on_c, 9, 75, 0
3, 202016, Note_on_c, 9, 51, 0
3, 202160, Note_on_c, 9, 75, 88
3, 202208, Note_on_c, 9, 75, 0
3, 202208, Note_on_c, 9, 51, 49
3, 202256, Note_on_c, 9, 51, 0
3, 202336, Note_on_c, 9, 35, 35
3, 202344, Note_on_c, 9, 51, 33
3, 202400, Note_on_c, 9, 51, 0
3, 202408, Note_on_c, 9, 35, 0
3, 202408, Note_on_c, 9, 75, 88
3, 202472, Note_on_c, 9, 75, 0
3, 202576, Note_on_c, 9, 51, 60
3, 202624, Note_on_c, 9, 51, 0
3, 202712, Note_on_c, 9, 51, 44
3, 202744, Note_on_c, 9, 35, 33
3, 202760, Note_on_c, 9, 51, 0
3, 202800, Note_on_c, 9, 35, 0
3, 203104, Note_on_c, 9, 51, 34
3, 203104, Note_on_c, 9, 40, 22
3, 203128, Note_on_c, 9, 40, 0
3, 203160, Note_on_c, 9, 51, 0
3, 203256, Note_on_c, 9, 64, 38
3, 203280, Note_on_c, 9, 64, 0
3, 203368, Note_on_c, 9, 63, 49
3, 203432, Note_on_c, 9, 63, 0
3, 203496, Note_on_c, 9, 51, 42
3, 203520, Note_on_c, 9, 51, 0
3, 203648, Note_on_c, 9, 64, 28
3, 203680, Note_on_c, 9, 64, 0
3, 203736, Note_on_c, 9, 64, 38
3, 203760, Note_on_c, 9, 64, 0
3, 203760, Note_on_c, 9, 35, 24
3, 203784, Note_on_c, 9, 51, 44
3, 203824, Note_on_c, 9, 35, 0
3, 203832, Note_on_c, 9, 51, 0
3, 203856, Note_on_c, 9, 63, 40
3, 203880, Note_on_c, 9, 63, 0
3, 203880, Note_on_c, 9, 35, 33
3, 203896, Note_on_c, 9, 51, 33
3, 203944, Note_on_c, 9, 35, 0
3, 203976, Note_on_c, 9, 51, 0
3, 204024, Note_on_c, 9, 35, 14
3, 204064, Note_on_c, 9, 35, 0
3, 204216, Note_on_c, 9, 40, 33
3, 204280, Note_on_c, 9, 40, 0
3, 204512, Note_on_c, 9, 63, 57
3, 204520, Note_on_c, 9, 51, 38
3, 204544, Note_on_c, 9, 51, 0
3, 204592, Note_on_c, 9, 63, 0
3, 204792, Note_on_c, 9, 64, 28
3, 204800, Note_on_c, 9, 51, 28
3, 204824, Note_on_c, 9, 51, 0
3, 204824, Note_on_c, 9, 64, 0
3, 204888, Note_on_c, 9, 64, 39
3, 204896, Note_on_c, 9, 35, 37
3, 204904, Note_on_c, 9, 51, 31
3, 204936, Note_on_c, 9, 51, 0
3, 204944, Note_on_c, 9, 35, 0
3, 204944, Note_on_c, 9, 64, 0
3, 205040, Note_on_c, 9, 35, 33
3, 205048, Note_on_c, 9, 63, 47
3, 205096, Note_on_c, 9, 35, 0
3, 205120, Note_on_c, 9, 63, 0
3, 205296, Note_on_c, 9, 51, 56
3, 205320, Note_on_c, 9, 51, 0
3, 205392, Note_on_c, 9, 40, 36
3, 205448, Note_on_c, 9, 40, 0
3, 205536, Note_on_c, 9, 64, 46
3, 205552, Note_on_c, 9, 51, 49
3, 205560, Note_on_c, 9, 64, 0
3, 205592, Note_on_c, 9, 51, 0
3, 205672, Note_on_c, 9, 51, 31
3, 205688, Note_on_c, 9, 63, 51
3, 205704, Note_on_c, 9, 51, 0
3, 205768, Note_on_c, 9, 63, 0
3, 205792, Note_on_c, 9, 35, 42
3, 205824, Note_on_c, 9, 35, 0
3, 205920, Note_on_c, 9, 35, 32
3, 205960, Note_on_c, 9, 64, 35
3, 205968, Note_on_c, 9, 35, 0
3, 205968, Note_on_c, 9, 51, 28
3, 205984, Note_on_c, 9, 64, 0
3, 205992, Note_on_c, 9, 51, 0
3, 206080, Note_on_c, 9, 51, 28
3, 206088, Note_on_c, 9, 64, 39
3, 206096, Note_on_c, 9, 51, 0
3, 206112, Note_on_c, 9, 64, 0
3, 206208, Note_on_c, 9, 35, 46
3, 206216, Note_on_c, 9, 63, 53
3, 206256, Note_on_c, 9, 35, 0
3, 206312, Note_on_c, 9, 63, 0
3, 206336, Note_on_c, 9, 51, 56
3, 206376, Note_on_c, 9, 51, 0
3, 206424, Note_on_c, 9, 51, 37
3, 206472, Note_on_c, 9, 51, 0
3, 206536, Note_on_c, 9, 40, 38
3, 206552, Note_on_c, 9, 64, 37
3, 206576, Note_on_c, 9, 64, 0
3, 206576, Note_on_c, 9, 51, 43
3, 206584, Note_on_c, 9, 40, 0
3, 206600, Note_on_c, 9, 51, 0
3, 206672, Note_on_c, 9, 64, 35
3, 206696, Note_on_c, 9, 64, 0
3, 206824, Note_on_c, 9, 63, 51
3, 206824, Note_on_c, 9, 51, 52
3, 206872, Note_on_c, 9, 51, 0
3, 206880, Note_on_c, 9, 63, 0
3, 206952, Note_on_c, 9, 51, 34
3, 206984, Note_on_c, 9, 51, 0
3, 207056, Note_on_c, 9, 75, 84
3, 207088, Note_on_c, 9, 75, 0
3, 207168, Note_on_c, 9, 75, 88
3, 207192, Note_on_c, 9, 35, 49
3, 207208, Note_on_c, 9, 51, 48
3, 207224, Note_on_c, 9, 75, 0
3, 207240, Note_on_c, 9, 35, 0
3, 207264, Note_on_c, 9, 51, 0
3, 207304, Note_on_c, 9, 35, 33
3, 207336, Note_on_c, 9, 51, 34
3, 207392, Note_on_c, 9, 35, 0
3, 207400, Note_on_c, 9, 51, 0
3, 207688, Note_on_c, 9, 40, 36
3, 207736, Note_on_c, 9, 51, 20
3, 207752, Note_on_c, 9, 40, 0
3, 207768, Note_on_c, 9, 51, 0
3, 208096, Note_on_c, 9, 51, 37
3, 208160, Note_on_c, 9, 51, 0
3, 208368, Note_on_c, 9, 51, 38
3, 208376, Note_on_c, 9, 35, 25
3, 208392, Note_on_c, 9, 51, 0
3, 208448, Note_on_c, 9, 35, 0
3, 208504, Note_on_c, 9, 51, 30
3, 208520, Note_on_c, 9, 35, 21
3, 208576, Note_on_c, 9, 35, 0
3, 208640, Note_on_c, 9, 51, 0
3, 208832, Note_on_c, 9, 40, 37
3, 208872, Note_on_c, 9, 51, 33
3, 208888, Note_on_c, 9, 40, 0
3, 208912, Note_on_c, 9, 51, 0
3, 209112, Note_on_c, 9, 35, 40
3, 209136, Note_on_c, 9, 35, 0
3, 209256, Note_on_c, 9, 35, 25
3, 209272, Note_on_c, 9, 51, 29
3, 209288, Note_on_c, 9, 35, 0
3, 209304, Note_on_c, 9, 51, 0
3, 209504, Note_on_c, 9, 35, 43
3, 209512, Note_on_c, 9, 51, 46
3, 209528, Note_on_c, 9, 35, 0
3, 209544, Note_on_c, 9, 51, 0
3, 209640, Note_on_c, 9, 35, 24
3, 209648, Note_on_c, 9, 51, 35
3, 209712, Note_on_c, 9, 35, 0
3, 209720, Note_on_c, 9, 51, 0
3, 209992, Note_on_c, 9, 40, 23
3, 210024, Note_on_c, 9, 40, 0
3, 210272, Note_on_c, 9, 51, 46
3, 210312, Note_on_c, 9, 51, 0
3, 210416, Note_on_c, 9, 51, 49
3, 210432, Note_on_c, 9, 51, 0
3, 210656, Note_on_c, 9, 51, 53
3, 210664, Note_on_c, 9, 35, 39
3, 210672, Note_on_c, 9, 51, 0
3, 210720, Note_on_c, 9, 35, 0
3, 210808, Note_on_c, 9, 35, 19
3, 210872, Note_on_c, 9, 35, 0
3, 211024, Note_on_c, 9, 51, 53
3, 211056, Note_on_c, 9, 51, 0
3, 211144, Note_on_c, 9, 40, 24
3, 211168, Note_on_c, 9, 40, 0
3, 211176, Note_on_c, 9, 51, 29
3, 211216, Note_on_c, 9, 51, 0
3, 211408, Note_on_c, 9, 51, 47
3, 211432, Note_on_c, 9, 51, 0
3, 211688, Note_on_c, 9, 51, 62
3, 211704, Note_on_c, 9, 69, 21
3, 211728, Note_on_c, 9, 69, 0
3, 211728, Note_on_c, 9, 51, 0
3, 211792, Note_on_c, 9, 51, 46
3, 211808, Note_on_c, 9, 69, 21
3, 211808, Note_on_c, 9, 35, 40
3, 211848, Note_on_c, 9, 51, 0
3, 211856, Note_on_c, 9, 69, 0
3, 211864, Note_on_c, 9, 35, 0
3, 211936, Note_on_c, 9, 51, 48
3, 211944, Note_on_c, 9, 35, 23
3, 211960, Note_on_c, 9, 51, 0
3, 212080, Note_on_c, 9, 69, 29
3, 212088, Note_on_c, 9, 35, 0
3, 212112, Note_on_c, 9, 69, 0
3, 212192, Note_on_c, 9, 69, 23
3, 212224, Note_on_c, 9, 69, 0
3, 212280, Note_on_c, 9, 40, 41
3, 212312, Note_on_c, 9, 69, 23
3, 212336, Note_on_c, 9, 69, 0
3, 212336, Note_on_c, 9, 40, 0
3, 212440, Note_on_c, 9, 69, 27
3, 212464, Note_on_c, 9, 69, 0
3, 212560, Note_on_c, 9, 69, 36
3, 212568, Note_on_c, 9, 51, 55
3, 212592, Note_on_c, 9, 51, 0
3, 212592, Note_on_c, 9, 69, 0
3, 212688, Note_on_c, 9, 51, 36
3, 212696, Note_on_c, 9, 69, 19
3, 212720, Note_on_c, 9, 69, 0
3, 212760, Note_on_c, 9, 51, 0
3, 212808, Note_on_c, 9, 69, 33
3, 212832, Note_on_c, 9, 69, 0
3, 212920, Note_on_c, 9, 69, 44
3, 212928, Note_on_c, 9, 51, 46
3, 212960, Note_on_c, 9, 69, 0
3, 212968, Note_on_c, 9, 51, 0
3, 212968, Note_on_c, 9, 35, 42
3, 213000, Note_on_c, 9, 35, 0
3, 213008, Note_on_c, 9, 75, 88
3, 213056, Note_on_c, 9, 75, 0
3, 213064, Note_on_c, 9, 51, 34
3, 213096, Note_on_c, 9, 51, 0
3, 213200, Note_on_c, 9, 69, 24
3, 213224, Note_on_c, 9, 69, 0
3, 213272, Note_on_c, 9, 75, 84
3, 213336, Note_on_c, 9, 75, 0
3, 213456, Note_on_c, 9, 40, 27
3, 213464, Note_on_c, 9, 69, 21
3, 213464, Note_on_c, 9, 51, 23
3, 213488, Note_on_c, 9, 69, 0
3, 213496, Note_on_c, 9, 51, 0
3, 213496, Note_on_c, 9, 40, 0
3, 213592, Note_on_c, 9, 69, 27
3, 213616, Note_on_c, 9, 69, 0
3, 213728, Note_on_c, 9, 69, 36
3, 213744, Note_on_c, 9, 51, 34
3, 213768, Note_on_c, 9, 69, 0
3, 213792, Note_on_c, 9, 51, 0
3, 213856, Note_on_c, 9, 51, 32
3, 213928, Note_on_c, 9, 51, 0
3, 214112, Note_on_c, 9, 35, 26
3, 214136, Note_on_c, 9, 51, 52
3, 214160, Note_on_c, 9, 35, 0
3, 214208, Note_on_c, 9, 51, 0
3, 214256, Note_on_c, 9, 35, 24
3, 214264, Note_on_c, 9, 51, 32
3, 214320, Note_on_c, 9, 51, 0
3, 214384, Note_on_c, 9, 53, 54
3, 214424, Note_on_c, 9, 53, 0
3, 214448, Note_on_c, 9, 35, 0
3, 214592, Note_on_c, 9, 40, 28
3, 214648, Note_on_c, 9, 51, 44
3, 214664, Note_on_c, 9, 40, 0
3, 214752, Note_on_c, 9, 51, 0
3, 214904, Note_on_c, 9, 51, 59
3, 214944, Note_on_c, 9, 51, 0
3, 215128, Note_on_c, 9, 51, 56
3, 215184, Note_on_c, 9, 51, 0
3, 215248, Note_on_c, 9, 51, 25
3, 215272, Note_on_c, 9, 51, 0
3, 215280, Note_on_c, 9, 53, 70
3, 215280, Note_on_c, 9, 35, 40
3, 215320, Note_on_c, 9, 53, 0
3, 215336, Note_on_c, 9, 35, 0
3, 215408, Note_on_c, 9, 35, 30
3, 215424, Note_on_c, 9, 51, 57
3, 215496, Note_on_c, 9, 51, 0
3, 215560, Note_on_c, 9, 37, 26
3, 215584, Note_on_c, 9, 37, 0
3, 215672, Note_on_c, 9, 51, 55
3, 215696, Note_on_c, 9, 35, 0
3, 215752, Note_on_c, 9, 51, 0
3, 215768, Note_on_c, 9, 40, 40
3, 215824, Note_on_c, 9, 40, 0
3, 215824, Note_on_c, 9, 37, 38
3, 215848, Note_on_c, 9, 37, 0
3, 215936, Note_on_c, 9, 51, 61
3, 215976, Note_on_c, 9, 51, 0
3, 216048, Note_on_c, 9, 51, 42
3, 216064, Note_on_c, 9, 37, 47
3, 216080, Note_on_c, 9, 51, 0
3, 216088, Note_on_c, 9, 37, 0
3, 216120, Note_on_c, 9, 53, 63
3, 216168, Note_on_c, 9, 53, 0
3, 216256, Note_on_c, 9, 51, 56
3, 216280, Note_on_c, 9, 51, 0
3, 216288, Note_on_c, 9, 37, 46
3, 216328, Note_on_c, 9, 37, 0
3, 216392, Note_on_c, 9, 53, 77
3, 216408, Note_on_c, 9, 37, 53
3, 216424, Note_on_c, 9, 35, 37
3, 216448, Note_on_c, 9, 53, 0
3, 216464, Note_on_c, 9, 35, 0
3, 216464, Note_on_c, 9, 37, 0
3, 216528, Note_on_c, 9, 51, 54
3, 216560, Note_on_c, 9, 35, 28
3, 216560, Note_on_c, 9, 35, 24
3, 216600, Note_on_c, 9, 35, 0
3, 216608, Note_on_c, 9, 51, 0
3, 216704, Note_on_c, 9, 35, 0
3, 216776, Note_on_c, 9, 51, 46
3, 216824, Note_on_c, 9, 51, 0
3, 216912, Note_on_c, 9, 40, 32
3, 216936, Note_on_c, 9, 51, 21
3, 216952, Note_on_c, 9, 40, 0
3, 216960, Note_on_c, 9, 51, 0
3, 217168, Note_on_c, 9, 51, 59
3, 217216, Note_on_c, 9, 51, 0
3, 217232, Note_on_c, 9, 37, 16
3, 217256, Note_on_c, 9, 37, 0
3, 217312, Note_on_c, 9, 51, 36
3, 217384, Note_on_c, 9, 51, 0
3, 217424, Note_on_c, 9, 35, 27
3, 217456, Note_on_c, 9, 37, 39
3, 217488, Note_on_c, 9, 37, 0
3, 217496, Note_on_c, 9, 35, 0
3, 217552, Note_on_c, 9, 51, 59
3, 217560, Note_on_c, 9, 37, 34
3, 217560, Note_on_c, 9, 35, 26
3, 217584, Note_on_c, 9, 51, 0
3, 217592, Note_on_c, 9, 35, 0
3, 217624, Note_on_c, 9, 37, 0
3, 217680, Note_on_c, 9, 35, 30
3, 217696, Note_on_c, 9, 51, 43
3, 217720, Note_on_c, 9, 51, 0
3, 217736, Note_on_c, 9, 35, 0
3, 217792, Note_on_c, 9, 51, 67
3, 217824, Note_on_c, 9, 51, 0
3, 217968, Note_on_c, 9, 40, 42
3, 218000, Note_on_c, 9, 40, 0
3, 218064, Note_on_c, 9, 51, 58
3, 218096, Note_on_c, 9, 51, 0
3, 218352, Note_on_c, 9, 35, 36
3, 218376, Note_on_c, 9, 35, 0
3, 218488, Note_on_c, 9, 35, 37
3, 218496, Note_on_c, 9, 51, 43
3, 218520, Note_on_c, 9, 51, 0
3, 218528, Note_on_c, 9, 35, 0
3, 218648, Note_on_c, 9, 43, 42
3, 218672, Note_on_c, 9, 43, 0
3, 218712, Note_on_c, 9, 35, 49
3, 218752, Note_on_c, 9, 51, 40
3, 218760, Note_on_c, 9, 37, 28
3, 218768, Note_on_c, 9, 35, 0
3, 218784, Note_on_c, 9, 51, 0
3, 218792, Note_on_c, 9, 37, 0
3, 218840, Note_on_c, 9, 35, 33
3, 218864, Note_on_c, 9, 51, 38
3, 218912, Note_on_c, 9, 35, 0
3, 218936, Note_on_c, 9, 51, 0
3, 219224, Note_on_c, 9, 40, 26
3, 219232, Note_on_c, 9, 51, 56
3, 219256, Note_on_c, 9, 40, 0
3, 219280, Note_on_c, 9, 51, 0
3, 219760, Note_on_c, 9, 51, 48
3, 219808, Note_on_c, 9, 51, 0
3, 219808, Note_on_c, 9, 43, 43
3, 219832, Note_on_c, 9, 43, 0
3, 219872, Note_on_c, 9, 35, 39
3, 219888, Note_on_c, 9, 51, 31
3, 219920, Note_on_c, 9, 35, 0
3, 219920, Note_on_c, 9, 37, 32
3, 219936, Note_on_c, 9, 51, 0
3, 219944, Note_on_c, 9, 37, 0
3, 220000, Note_on_c, 9, 35, 20
3, 220048, Note_on_c, 9, 35, 32
3, 220080, Note_on_c, 9, 35, 0
3, 220104, Note_on_c, 9, 35, 0
3, 220168, Note_on_c, 9, 51, 63
3, 220200, Note_on_c, 9, 51, 0
3, 220256, Note_on_c, 9, 51, 36
3, 220288, Note_on_c, 9, 51, 0
3, 220368, Note_on_c, 9, 40, 36
3, 220392, Note_on_c, 9, 43, 34
3, 220424, Note_on_c, 9, 40, 0
3, 220432, Note_on_c, 9, 43, 0
3, 220520, Note_on_c, 9, 37, 35
3, 220536, Note_on_c, 9, 51, 63
3, 220544, Note_on_c, 9, 37, 0
3, 220576, Note_on_c, 9, 51, 0
3, 220640, Note_on_c, 9, 51, 31
3, 220648, Note_on_c, 9, 35, 37
3, 220672, Note_on_c, 9, 51, 0
3, 220680, Note_on_c, 9, 35, 0
3, 220784, Note_on_c, 9, 51, 61
3, 220816, Note_on_c, 9, 51, 0
3, 220904, Note_on_c, 9, 51, 39
3, 220928, Note_on_c, 9, 43, 32
3, 220944, Note_on_c, 9, 51, 0
3, 220960, Note_on_c, 9, 43, 0
3, 221024, Note_on_c, 9, 51, 69
3, 221024, Note_on_c, 9, 35, 37
3, 221040, Note_on_c, 9, 37, 44
3, 221072, Note_on_c, 9, 35, 0
3, 221072, Note_on_c, 9, 51, 0
3, 221080, Note_on_c, 9, 37, 0
3, 221160, Note_on_c, 9, 35, 23
3, 221168, Note_on_c, 9, 51, 40
3, 221184, Note_on_c, 9, 35, 38
3, 221208, Note_on_c, 9, 51, 0
3, 221256, Note_on_c, 9, 35, 0
3, 221264, Note_on_c, 9, 35, 0
3, 221504, Note_on_c, 9, 40, 41
3, 221520, Note_on_c, 9, 43, 35
3, 221528, Note_on_c, 9, 51, 45
3, 221560, Note_on_c, 9, 51, 0
3, 221560, Note_on_c, 9, 43, 0
3, 221568, Note_on_c, 9, 40, 0
3, 221648, Note_on_c, 9, 37, 38
3, 221680, Note_on_c, 9, 37, 0
3, 221776, Note_on_c, 9, 35, 40
3, 221808, Note_on_c, 9, 35, 0
3, 221912, Note_on_c, 9, 51, 50
3, 221944, Note_on_c, 9, 51, 0
3, 222040, Note_on_c, 9, 51, 39
3, 222048, Note_on_c, 9, 43, 34
3, 222064, Note_on_c, 9, 51, 0
3, 222080, Note_on_c, 9, 43, 0
3, 222160, Note_on_c, 9, 37, 37
3, 222160, Note_on_c, 9, 35, 28
3, 222192, Note_on_c, 9, 37, 0
3, 222208, Note_on_c, 9, 35, 0
3, 222296, Note_on_c, 9, 35, 35
3, 222296, Note_on_c, 9, 51, 59
3, 222304, Note_on_c, 9, 35, 16
3, 222336, Note_on_c, 9, 35, 0
3, 222344, Note_on_c, 9, 35, 0
3, 222352, Note_on_c, 9, 51, 0
3, 222680, Note_on_c, 9, 51, 39
3, 222712, Note_on_c, 9, 51, 0
3, 223088, Note_on_c, 9, 51, 34
3, 223112, Note_on_c, 9, 51, 0
3, 223336, Note_on_c, 9, 51, 55
3, 223336, Note_on_c, 9, 35, 42
3, 223384, Note_on_c, 9, 35, 0
3, 223392, Note_on_c, 9, 51, 0
3, 223472, Note_on_c, 9, 35, 20
3, 223480, Note_on_c, 9, 51, 51
3, 223552, Note_on_c, 9, 51, 0
3, 223560, Note_on_c, 9, 35, 0
3, 223816, Note_on_c, 9, 40, 38
3, 223856, Note_on_c, 9, 51, 35
3, 223880, Note_on_c, 9, 40, 0
3, 223976, Note_on_c, 9, 51, 0
3, 224120, Note_on_c, 9, 51, 30
3, 224144, Note_on_c, 9, 51, 0
3, 224232, Note_on_c, 9, 51, 45
3, 224368, Note_on_c, 9, 51, 0
3, 224472, Note_on_c, 9, 35, 32
3, 224528, Note_on_c, 9, 35, 0
3, 224600, Note_on_c, 9, 35, 24
3, 224608, Note_on_c, 9, 51, 51
3, 224648, Note_on_c, 9, 35, 0
3, 224672, Note_on_c, 9, 51, 0
3, 224952, Note_on_c, 9, 40, 30
3, 224976, Note_on_c, 9, 40, 0
3, 224984, Note_on_c, 9, 51, 45
3, 225000, Note_on_c, 9, 75, 67
3, 225024, Note_on_c, 9, 75, 0
3, 225048, Note_on_c, 9, 51, 0
3, 225192, Note_on_c, 9, 75, 76
3, 225216, Note_on_c, 9, 75, 0
3, 225384, Note_on_c, 9, 51, 40
3, 225400, Note_on_c, 9, 75, 78
3, 225440, Note_on_c, 9, 75, 0
3, 225440, Note_on_c, 9, 51, 0
3, 225488, Note_on_c, 9, 75, 63
3, 225512, Note_on_c, 9, 75, 0
3, 225584, Note_on_c, 9, 35, 36
3, 225608, Note_on_c, 9, 35, 0
3, 225640, Note_on_c, 9, 51, 44
3, 225664, Note_on_c, 9, 35, 36
3, 225672, Note_on_c, 9, 51, 0
3, 225720, Note_on_c, 9, 35, 0
3, 225768, Note_on_c, 9, 51, 51
3, 225768, Note_on_c, 9, 35, 43
3, 225832, Note_on_c, 9, 35, 0
3, 225856, Note_on_c, 9, 51, 0
3, 225896, Note_on_c, 9, 51, 14
3, 225968, Note_on_c, 9, 51, 0
3, 226096, Note_on_c, 9, 40, 33
3, 226120, Note_on_c, 9, 40, 0
3, 226144, Note_on_c, 9, 51, 43
3, 226200, Note_on_c, 9, 51, 0
3, 226640, Note_on_c, 9, 51, 51
3, 226664, Note_on_c, 9, 51, 0
3, 226760, Note_on_c, 9, 51, 38
3, 226784, Note_on_c, 9, 35, 28
3, 226816, Note_on_c, 9, 51, 0
3, 226824, Note_on_c, 9, 75, 53
3, 226856, Note_on_c, 9, 35, 0
3, 226864, Note_on_c, 9, 75, 0
3, 226936, Note_on_c, 9, 35, 24
3, 226992, Note_on_c, 9, 35, 0
3, 227048, Note_on_c, 9, 51, 47
3, 227072, Note_on_c, 9, 51, 0
3, 227144, Note_on_c, 9, 40, 39
3, 227152, Note_on_c, 9, 51, 39
3, 227160, Note_on_c, 9, 40, 0
3, 227200, Note_on_c, 9, 51, 0
3, 227248, Note_on_c, 9, 75, 73
3, 227280, Note_on_c, 9, 51, 52
3, 227304, Note_on_c, 9, 51, 0
3, 227320, Note_on_c, 9, 75, 0
3, 227544, Note_on_c, 9, 35, 38
3, 227584, Note_on_c, 9, 35, 0
3, 227632, Note_on_c, 9, 75, 88
3, 227656, Note_on_c, 9, 51, 57
3, 227696, Note_on_c, 9, 35, 27
3, 227704, Note_on_c, 9, 51, 0
3, 227704, Note_on_c, 9, 75, 0
3, 227736, Note_on_c, 9, 35, 0
3, 227752, Note_on_c, 9, 75, 51
3, 227776, Note_on_c, 9, 75, 0
3, 227912, Note_on_c, 9, 51, 60
3, 227928, Note_on_c, 9, 35, 31
3, 227952, Note_on_c, 9, 51, 0
3, 227984, Note_on_c, 9, 35, 0
3, 228008, Note_on_c, 9, 75, 88
3, 228032, Note_on_c, 9, 51, 46
3, 228072, Note_on_c, 9, 75, 0
3, 228080, Note_on_c, 9, 35, 24
3, 228112, Note_on_c, 9, 75, 88
3, 228120, Note_on_c, 9, 51, 0
3, 228144, Note_on_c, 9, 75, 0
3, 228144, Note_on_c, 9, 35, 0
3, 228288, Note_on_c, 9, 40, 36
3, 228336, Note_on_c, 9, 40, 0
3, 228408, Note_on_c, 9, 75, 79
3, 228424, Note_on_c, 9, 51, 52
3, 228448, Note_on_c, 9, 75, 0
3, 228488, Note_on_c, 9, 51, 0
3, 228520, Note_on_c, 9, 75, 56
3, 228544, Note_on_c, 9, 75, 0
3, 228696, Note_on_c, 9, 35, 40
3, 228744, Note_on_c, 9, 35, 0
3, 228792, Note_on_c, 9, 75, 88
3, 228824, Note_on_c, 9, 51, 47
3, 228848, Note_on_c, 9, 35, 27
3, 228856, Note_on_c, 9, 75, 0
3, 228864, Note_on_c, 9, 51, 0
3, 228888, Note_on_c, 9, 35, 0
3, 228896, Note_on_c, 9, 75, 76
3, 228936, Note_on_c, 9, 75, 0
3, 229112, Note_on_c, 9, 51, 44
3, 229152, Note_on_c, 9, 51, 0
3, 229168, Note_on_c, 9, 75, 88
3, 229216, Note_on_c, 9, 75, 0
3, 229232, Note_on_c, 9, 51, 46
3, 229280, Note_on_c, 9, 75, 44
3, 229312, Note_on_c, 9, 75, 0
3, 229328, Note_on_c, 9, 51, 0
3, 229576, Note_on_c, 9, 75, 86
3, 229584, Note_on_c, 9, 40, 47
3, 229592, Note_on_c, 9, 51, 60
3, 229608, Note_on_c, 9, 75, 0
3, 229640, Note_on_c, 9, 40, 0
3, 229664, Note_on_c, 9, 51, 0
3, 229680, Note_on_c, 9, 75, 79
3, 229704, Note_on_c, 9, 75, 0
3, 229976, Note_on_c, 9, 51, 47
3, 229992, Note_on_c, 9, 35, 41
3, 230000, Note_on_c, 9, 37, 51
3, 230024, Note_on_c, 9, 37, 0
3, 230024, Note_on_c, 9, 35, 0
3, 230032, Note_on_c, 9, 51, 0
3, 230200, Note_on_c, 9, 53, 74
3, 230208, Note_on_c, 9, 38, 65
3, 230216, Note_on_c, 9, 35, 54
3, 230248, Note_on_c, 9, 37, 67
3, 230272, Note_on_c, 9, 38, 0
3, 230280, Note_on_c, 9, 53, 0
3, 230280, Note_on_c, 9, 35, 0
3, 230296, Note_on_c, 9, 37, 0
3, 230344, Note_on_c, 9, 35, 30
3, 230360, Note_on_c, 9, 51, 34
3, 230416, Note_on_c, 9, 35, 0
3, 230600, Note_on_c, 9, 51, 0
3, 230736, Note_on_c, 9, 40, 39
3, 230760, Note_on_c, 9, 51, 32
3, 230800, Note_on_c, 9, 40, 0
3, 230824, Note_on_c, 9, 51, 0
3, 231128, Note_on_c, 9, 51, 35
3, 231200, Note_on_c, 9, 51, 0
3, 231408, Note_on_c, 9, 35, 38
3, 231480, Note_on_c, 9, 35, 0
3, 231512, Note_on_c, 9, 51, 25
3, 231544, Note_on_c, 9, 51, 0
3, 231544, Note_on_c, 9, 35, 38
3, 231712, Note_on_c, 9, 35, 0
3, 231872, Note_on_c, 9, 40, 27
3, 231896, Note_on_c, 9, 40, 0
3, 231896, Note_on_c, 9, 51, 36
3, 231968, Note_on_c, 9, 51, 0
3, 232144, Note_on_c, 9, 53, 50
3, 232192, Note_on_c, 9, 53, 0
3, 232288, Note_on_c, 9, 51, 30
3, 232336, Note_on_c, 9, 51, 0
3, 232336, Note_on_c, 9, 75, 34
3, 232368, Note_on_c, 9, 75, 0
3, 232456, Note_on_c, 9, 35, 23
3, 232480, Note_on_c, 9, 35, 0
3, 232536, Note_on_c, 9, 53, 53
3, 232544, Note_on_c, 9, 35, 30
3, 232576, Note_on_c, 9, 53, 0
3, 232624, Note_on_c, 9, 35, 0
3, 232648, Note_on_c, 9, 75, 34
3, 232680, Note_on_c, 9, 51, 28
3, 232688, Note_on_c, 9, 75, 0
3, 232696, Note_on_c, 9, 35, 25
3, 232728, Note_on_c, 9, 35, 0
3, 232776, Note_on_c, 9, 51, 0
3, 232912, Note_on_c, 9, 40, 48
3, 232936, Note_on_c, 9, 75, 30
3, 232952, Note_on_c, 9, 40, 0
3, 232984, Note_on_c, 9, 75, 0
3, 233080, Note_on_c, 9, 51, 27
3, 233152, Note_on_c, 9, 51, 0
3, 233200, Note_on_c, 9, 75, 32
3, 233272, Note_on_c, 9, 75, 0
3, 233448, Note_on_c, 9, 51, 35
3, 233456, Note_on_c, 9, 75, 34
3, 233488, Note_on_c, 9, 75, 0
3, 233504, Note_on_c, 9, 51, 0
3, 233704, Note_on_c, 9, 75, 34
3, 233712, Note_on_c, 9, 35, 37
3, 233736, Note_on_c, 9, 75, 0
3, 233752, Note_on_c, 9, 35, 0
3, 233856, Note_on_c, 9, 35, 29
3, 233896, Note_on_c, 9, 35, 0
3, 233960, Note_on_c, 9, 51, 35
3, 233984, Note_on_c, 9, 75, 30
3, 234016, Note_on_c, 9, 51, 0
3, 234032, Note_on_c, 9, 75, 0
3, 234040, Note_on_c, 9, 40, 36
3, 234064, Note_on_c, 9, 40, 0
3, 234088, Note_on_c, 9, 51, 25
3, 234120, Note_on_c, 9, 51, 0
3, 234152, Note_on_c, 9, 75, 48
3, 234176, Note_on_c, 9, 75, 0
3, 234232, Note_on_c, 9, 75, 28
3, 234256, Note_on_c, 9, 75, 0
3, 234296, Note_on_c, 9, 75, 48
3, 234320, Note_on_c, 9, 75, 0
3, 234352, Note_on_c, 9, 51, 39
3, 234360, Note_on_c, 9, 75, 52
3, 234384, Note_on_c, 9, 75, 0
3, 234392, Note_on_c, 9, 51, 0
3, 234432, Note_on_c, 9, 75, 50
3, 234456, Note_on_c, 9, 75, 0
3, 234480, Note_on_c, 9, 51, 35
3, 234480, Note_on_c, 9, 35, 37
3, 234504, Note_on_c, 9, 75, 45
3, 234528, Note_on_c, 9, 75, 0
3, 234528, Note_on_c, 9, 51, 0
3, 234536, Note_on_c, 9, 35, 0
3, 234560, Note_on_c, 9, 75, 52
3, 234600, Note_on_c, 9, 75, 0
3, 234608, Note_on_c, 9, 51, 49
3, 234616, Note_on_c, 9, 35, 30
3, 234632, Note_on_c, 9, 51, 0
3, 234656, Note_on_c, 9, 35, 0
3, 234696, Note_on_c, 9, 75, 30
3, 234712, Note_on_c, 9, 75, 0
3, 234720, Note_on_c, 9, 53, 65
3, 234760, Note_on_c, 9, 53, 0
3, 234760, Note_on_c, 9, 75, 33
3, 234784, Note_on_c, 9, 75, 0
3, 234832, Note_on_c, 9, 35, 49
3, 234832, Note_on_c, 9, 75, 42
3, 234848, Note_on_c, 9, 51, 38
3, 234856, Note_on_c, 9, 75, 0
3, 234880, Note_on_c, 9, 75, 52
3, 234888, Note_on_c, 9, 51, 0
3, 234888, Note_on_c, 9, 35, 0
3, 234904, Note_on_c, 9, 75, 0
3, 234944, Note_on_c, 9, 75, 52
3, 234976, Note_on_c, 9, 35, 26
3, 234992, Note_on_c, 9, 75, 0
3, 234992, Note_on_c, 9, 51, 27
3, 235024, Note_on_c, 9, 51, 0
3, 235048, Note_on_c, 9, 35, 0
3, 235168, Note_on_c, 9, 75, 52
3, 235184, Note_on_c, 9, 75, 0
3, 235208, Note_on_c, 9, 40, 27
3, 235232, Note_on_c, 9, 40, 0
3, 235328, Note_on_c, 9, 75, 46
3, 235352, Note_on_c, 9, 75, 0
3, 235464, Note_on_c, 9, 51, 35
3, 235488, Note_on_c, 9, 75, 43
3, 235512, Note_on_c, 9, 75, 0
3, 235520, Note_on_c, 9, 51, 0
3, 235576, Note_on_c, 9, 51, 30
3, 235608, Note_on_c, 9, 35, 25
3, 235640, Note_on_c, 9, 75, 27
3, 235648, Note_on_c, 9, 51, 0
3, 235664, Note_on_c, 9, 75, 0
3, 235680, Note_on_c, 9, 35, 0
3, 235704, Note_on_c, 9, 51, 40
3, 235720, Note_on_c, 9, 51, 0
3, 235752, Note_on_c, 9, 35, 23
3, 235768, Note_on_c, 9, 75, 31
3, 235800, Note_on_c, 9, 75, 0
3, 235832, Note_on_c, 9, 35, 0
3, 235984, Note_on_c, 9, 75, 30
3, 236000, Note_on_c, 9, 35, 30
3, 236048, Note_on_c, 9, 35, 0
3, 236064, Note_on_c, 9, 75, 0
3, 236128, Note_on_c, 9, 51, 48
3, 236128, Note_on_c, 9, 75, 28
3, 236144, Note_on_c, 9, 35, 33
3, 236152, Note_on_c, 9, 51, 0
3, 236200, Note_on_c, 9, 75, 0
3, 236256, Note_on_c, 9, 51, 39
3, 236320, Note_on_c, 9, 51, 0
3, 236336, Note_on_c, 9, 35, 0
3, 236344, Note_on_c, 9, 75, 31
3, 236368, Note_on_c, 9, 51, 46
3, 236384, Note_on_c, 9, 51, 0
3, 236384, Note_on_c, 9, 75, 0
3, 236480, Note_on_c, 9, 40, 27
3, 236512, Note_on_c, 9, 40, 0
3, 236664, Note_on_c, 9, 51, 53
3, 236704, Note_on_c, 9, 51, 0
3, 236808, Note_on_c, 9, 51, 42
3, 236872, Note_on_c, 9, 51, 0
3, 236928, Note_on_c, 9, 51, 46
3, 236960, Note_on_c, 9, 51, 0
3, 237160, Note_on_c, 9, 35, 39
3, 237216, Note_on_c, 9, 35, 0
3, 237264, Note_on_c, 9, 51, 56
3, 237296, Note_on_c, 9, 51, 0
3, 237296, Note_on_c, 9, 35, 23
3, 237360, Note_on_c, 9, 35, 0
3, 237392, Note_on_c, 9, 53, 44
3, 237440, Note_on_c, 9, 53, 0
3, 237512, Note_on_c, 9, 51, 38
3, 237584, Note_on_c, 9, 51, 0
3, 237784, Note_on_c, 9, 51, 34
3, 237824, Note_on_c, 9, 51, 0
3, 237920, Note_on_c, 9, 53, 51
3, 237920, Note_on_c, 9, 35, 36
3, 237960, Note_on_c, 9, 35, 0
3, 237968, Note_on_c, 9, 53, 0
3, 238048, Note_on_c, 9, 51, 42
3, 238120, Note_on_c, 9, 51, 0
3, 238296, Note_on_c, 9, 64, 46
3, 238312, Note_on_c, 9, 35, 37
3, 238320, Note_on_c, 9, 64, 0
3, 238352, Note_on_c, 9, 35, 0
3, 238440, Note_on_c, 9, 35, 18
3, 238456, Note_on_c, 9, 51, 38
3, 238504, Note_on_c, 9, 51, 0
3, 238544, Note_on_c, 9, 35, 0
3, 238592, Note_on_c, 9, 53, 45
3, 238624, Note_on_c, 9, 53, 0
3, 238704, Note_on_c, 9, 51, 38
3, 238776, Note_on_c, 9, 51, 0
3, 238824, Note_on_c, 9, 53, 47
3, 238848, Note_on_c, 9, 63, 16
3, 238872, Note_on_c, 9, 53, 0
3, 238960, Note_on_c, 9, 51, 35
3, 239008, Note_on_c, 9, 51, 0
3, 239024, Note_on_c, 9, 63, 0
3, 239064, Note_on_c, 9, 63, 35
3, 239080, Note_on_c, 9, 35, 45
3, 239088, Note_on_c, 9, 63, 0
3, 239088, Note_on_c, 9, 53, 39
3, 239128, Note_on_c, 9, 53, 0
3, 239136, Note_on_c, 9, 35, 0
3, 239208, Note_on_c, 9, 51, 36
3, 239224, Note_on_c, 9, 35, 23
3, 239264, Note_on_c, 9, 35, 0
3, 239264, Note_on_c, 9, 51, 0
3, 239328, Note_on_c, 9, 53, 46
3, 239376, Note_on_c, 9, 53, 0
3, 239424, Note_on_c, 9, 40, 45
3, 239448, Note_on_c, 9, 51, 37
3, 239488, Note_on_c, 9, 40, 0
3, 239512, Note_on_c, 9, 51, 0
3, 239584, Note_on_c, 9, 51, 33
3, 239600, Note_on_c, 9, 35, 30
3, 239624, Note_on_c, 9, 51, 0
3, 239680, Note_on_c, 9, 35, 0
3, 239944, Note_on_c, 9, 40, 27
3, 239968, Note_on_c, 9, 51, 38
3, 239976, Note_on_c, 9, 40, 0
3, 240016, Note_on_c, 9, 51, 0
3, 240024, Note_on_c, 9, 64, 28
3, 240096, Note_on_c, 9, 64, 0
3, 240168, Note_on_c, 9, 64, 32
3, 240216, Note_on_c, 9, 64, 0
3, 240232, Note_on_c, 9, 51, 29
3, 240304, Note_on_c, 9, 51, 0
3, 240304, Note_on_c, 9, 63, 21
3, 240304, Note_on_c, 9, 40, 34
3, 240336, Note_on_c, 9, 63, 0
3, 240360, Note_on_c, 9, 40, 0
3, 240360, Note_on_c, 9, 53, 38
3, 240400, Note_on_c, 9, 53, 0
3, 240496, Note_on_c, 9, 51, 37
3, 240560, Note_on_c, 9, 51, 0
3, 240592, Note_on_c, 9, 35, 30
3, 240624, Note_on_c, 9, 35, 0
3, 240752, Note_on_c, 9, 51, 34
3, 240824, Note_on_c, 9, 51, 0
3, 240896, Note_on_c, 9, 53, 36
3, 240920, Note_on_c, 9, 53, 0
3, 240952, Note_on_c, 9, 40, 39
3, 241000, Note_on_c, 9, 40, 0
3, 241000, Note_on_c, 9, 51, 62
3, 241080, Note_on_c, 9, 51, 0
3, 241128, Note_on_c, 9, 53, 40
3, 241176, Note_on_c, 9, 53, 0
3, 241256, Note_on_c, 9, 51, 37
3, 241328, Note_on_c, 9, 51, 0
3, 241384, Note_on_c, 9, 53, 37
3, 241384, Note_on_c, 9, 35, 39
3, 241416, Note_on_c, 9, 53, 0
3, 241424, Note_on_c, 9, 35, 0
3, 241504, Note_on_c, 9, 51, 44
3, 241536, Note_on_c, 9, 35, 24
3, 241576, Note_on_c, 9, 35, 0
3, 241584, Note_on_c, 9, 51, 0
3, 241632, Note_on_c, 9, 53, 34
3, 241664, Note_on_c, 9, 53, 0
3, 241752, Note_on_c, 9, 51, 44
3, 241768, Note_on_c, 9, 35, 39
3, 241824, Note_on_c, 9, 35, 0
3, 241824, Note_on_c, 9, 51, 0
3, 241880, Note_on_c, 9, 53, 42
3, 241912, Note_on_c, 9, 53, 0
3, 241920, Note_on_c, 9, 35, 26
3, 242000, Note_on_c, 9, 51, 32
3, 242016, Note_on_c, 9, 35, 0
3, 242064, Note_on_c, 9, 51, 0
3, 242136, Note_on_c, 9, 53, 43
3, 242184, Note_on_c, 9, 53, 0
3, 242264, Note_on_c, 9, 51, 34
3, 242264, Note_on_c, 9, 40, 33
3, 242320, Note_on_c, 9, 40, 0
3, 242328, Note_on_c, 9, 51, 0
3, 242392, Note_on_c, 9, 53, 30
3, 242440, Note_on_c, 9, 53, 0
3, 242520, Note_on_c, 9, 51, 34
3, 242592, Note_on_c, 9, 51, 0
3, 242664, Note_on_c, 9, 53, 37
3, 242704, Note_on_c, 9, 53, 0
3, 242800, Note_on_c, 9, 51, 28
3, 242824, Note_on_c, 9, 35, 36
3, 242856, Note_on_c, 9, 51, 0
3, 242872, Note_on_c, 9, 35, 0
3, 242920, Note_on_c, 9, 53, 49
3, 242936, Note_on_c, 9, 35, 33
3, 242984, Note_on_c, 9, 53, 0
3, 243024, Note_on_c, 9, 35, 0
3, 243040, Note_on_c, 9, 51, 37
3, 243088, Note_on_c, 9, 35, 36
3, 243112, Note_on_c, 9, 51, 0
3, 243176, Note_on_c, 9, 35, 0
3, 243176, Note_on_c, 9, 53, 34
3, 243216, Note_on_c, 9, 53, 0
3, 243264, Note_on_c, 9, 40, 44
3, 243296, Note_on_c, 9, 51, 34
3, 243312, Note_on_c, 9, 40, 0
3, 243368, Note_on_c, 9, 51, 0
3, 243440, Note_on_c, 9, 53, 44
3, 243488, Note_on_c, 9, 53, 0
3, 243560, Note_on_c, 9, 51, 29
3, 243608, Note_on_c, 9, 51, 0
3, 243680, Note_on_c, 9, 53, 46
3, 243680, Note_on_c, 9, 35, 40
3, 243720, Note_on_c, 9, 35, 0
3, 243736, Note_on_c, 9, 53, 0
3, 243800, Note_on_c, 9, 51, 33
3, 243808, Note_on_c, 9, 38, 28
3, 243816, Note_on_c, 9, 35, 34
3, 243840, Note_on_c, 9, 38, 0
3, 243856, Note_on_c, 9, 51, 0
3, 243896, Note_on_c, 9, 35, 0
3, 243920, Note_on_c, 9, 53, 52
3, 243952, Note_on_c, 9, 64, 26
3, 243960, Note_on_c, 9, 53, 0
3, 243992, Note_on_c, 9, 64, 0
3, 244040, Note_on_c, 9, 51, 48
3, 244056, Note_on_c, 9, 38, 24
3, 244056, Note_on_c, 9, 35, 43
3, 244088, Note_on_c, 9, 51, 0
3, 244104, Note_on_c, 9, 35, 0
3, 244104, Note_on_c, 9, 38, 0
3, 244176, Note_on_c, 9, 51, 48
3, 244192, Note_on_c, 9, 35, 25
3, 244280, Note_on_c, 9, 38, 30
3, 244288, Note_on_c, 9, 51, 0
3, 244336, Note_on_c, 9, 38, 0
3, 244376, Note_on_c, 9, 35, 0
3, 244552, Note_on_c, 9, 38, 28
3, 244552, Note_on_c, 9, 40, 34
3, 244608, Note_on_c, 9, 38, 0
3, 244624, Note_on_c, 9, 40, 0
3, 244704, Note_on_c, 9, 64, 25
3, 244736, Note_on_c, 9, 64, 0
3, 244816, Note_on_c, 9, 38, 28
3, 244824, Note_on_c, 9, 51, 28
3, 244864, Note_on_c, 9, 38, 0
3, 244896, Note_on_c, 9, 51, 0
3, 244968, Note_on_c, 9, 51, 19
3, 245008, Note_on_c, 9, 51, 0
3, 245120, Note_on_c, 9, 35, 27
3, 245152, Note_on_c, 9, 35, 0
3, 245216, Note_on_c, 9, 35, 38
3, 245224, Note_on_c, 9, 51, 25
3, 245288, Note_on_c, 9, 51, 0
3, 245304, Note_on_c, 9, 35, 0
3, 245352, Note_on_c, 9, 51, 20
3, 245368, Note_on_c, 9, 35, 39
3, 245400, Note_on_c, 9, 35, 0
3, 245416, Note_on_c, 9, 51, 0
3, 245576, Note_on_c, 9, 40, 32
3, 245600, Note_on_c, 9, 40, 0
3, 245968, Note_on_c, 9, 51, 25
3, 245992, Note_on_c, 9, 35, 36
3, 246008, Note_on_c, 9, 51, 0
3, 246040, Note_on_c, 9, 35, 0
3, 246088, Note_on_c, 9, 75, 60
3, 246096, Note_on_c, 9, 51, 34
3, 246104, Note_on_c, 9, 75, 0
3, 246136, Note_on_c, 9, 35, 22
3, 246168, Note_on_c, 9, 51, 0
3, 246256, Note_on_c, 9, 35, 0
3, 246336, Note_on_c, 9, 40, 45
3, 246384, Note_on_c, 9, 51, 26
3, 246392, Note_on_c, 9, 40, 0
3, 246432, Note_on_c, 9, 51, 0
3, 246472, Note_on_c, 9, 75, 48
3, 246504, Note_on_c, 9, 51, 30
3, 246512, Note_on_c, 9, 75, 0
3, 246592, Note_on_c, 9, 51, 0
3, 246592, Note_on_c, 9, 75, 72
3, 246616, Note_on_c, 9, 75, 0
3, 246832, Note_on_c, 9, 75, 73
3, 246888, Note_on_c, 9, 75, 0
3, 246904, Note_on_c, 9, 40, 39
3, 246936, Note_on_c, 9, 40, 0
3, 246936, Note_on_c, 9, 75, 73
3, 246960, Note_on_c, 9, 75, 0
3, 247104, Note_on_c, 9, 51, 31
3, 247152, Note_on_c, 9, 51, 0
3, 247208, Note_on_c, 9, 75, 59
3, 247248, Note_on_c, 9, 75, 0
3, 247312, Note_on_c, 9, 75, 53
3, 247328, Note_on_c, 9, 75, 0
3, 247400, Note_on_c, 9, 51, 27
3, 247432, Note_on_c, 9, 51, 0
3, 247512, Note_on_c, 9, 53, 37
3, 247536, Note_on_c, 9, 35, 36
3, 247560, Note_on_c, 9, 53, 0
3, 247576, Note_on_c, 9, 35, 0
3, 247664, Note_on_c, 9, 51, 34
3, 247688, Note_on_c, 9, 35, 31
3, 247720, Note_on_c, 9, 51, 0
3, 247784, Note_on_c, 9, 53, 32
3, 247816, Note_on_c, 9, 53, 0
3, 247832, Note_on_c, 9, 75, 59
3, 247864, Note_on_c, 9, 75, 0
3, 247912, Note_on_c, 9, 51, 33
3, 247928, Note_on_c, 9, 75, 67
3, 247944, Note_on_c, 9, 35, 0
3, 247968, Note_on_c, 9, 51, 0
3, 247984, Note_on_c, 9, 75, 0
3, 248024, Note_on_c, 9, 40, 27
3, 248048, Note_on_c, 9, 53, 32
3, 248080, Note_on_c, 9, 40, 0
3, 248088, Note_on_c, 9, 53, 0
3, 248184, Note_on_c, 9, 75, 82
3, 248248, Note_on_c, 9, 75, 0
3, 248304, Note_on_c, 9, 75, 73
3, 248344, Note_on_c, 9, 75, 0
3, 248456, Note_on_c, 9, 51, 31
3, 248520, Note_on_c, 9, 51, 0
3, 248552, Note_on_c, 9, 75, 88
3, 248616, Note_on_c, 9, 75, 0
3, 248656, Note_on_c, 9, 75, 75
3, 248664, Note_on_c, 9, 35, 33
3, 248688, Note_on_c, 9, 75, 0
3, 248696, Note_on_c, 9, 35, 0
3, 248696, Note_on_c, 9, 51, 40
3, 248736, Note_on_c, 9, 51, 0
3, 248784, Note_on_c, 9, 75, 78
3, 248808, Note_on_c, 9, 75, 0
3, 248808, Note_on_c, 9, 35, 21
3, 248824, Note_on_c, 9, 51, 27
3, 248912, Note_on_c, 9, 51, 0
3, 248936, Note_on_c, 9, 35, 0
3, 249144, Note_on_c, 9, 75, 79
3, 249152, Note_on_c, 9, 40, 32
3, 249208, Note_on_c, 9, 40, 0
3, 249208, Note_on_c, 9, 75, 0
3, 249256, Note_on_c, 9, 75, 78
3, 249288, Note_on_c, 9, 75, 0
3, 249408, Note_on_c, 9, 51, 38
3, 249424, Note_on_c, 9, 75, 79
3, 249464, Note_on_c, 9, 75, 0
3, 249464, Note_on_c, 9, 51, 0
3, 249544, Note_on_c, 9, 51, 23
3, 249632, Note_on_c, 9, 51, 0
3, 249704, Note_on_c, 9, 75, 78
3, 249760, Note_on_c, 9, 75, 0
3, 249816, Note_on_c, 9, 35, 38
3, 249856, Note_on_c, 9, 35, 0
3, 249928, Note_on_c, 9, 75, 82
3, 249968, Note_on_c, 9, 35, 30
3, 249976, Note_on_c, 9, 75, 0
3, 250088, Note_on_c, 9, 35, 0
3, 250088, End_track
4, 0, Start_track
4, 0, Title_t, ""
4, 0, Control_c, 9, 7, 90
4, 250192, Note_on_c, 9, 51, 37
4, 250224, Note_on_c, 9, 51, 0
4, 250352, Note_on_c, 9, 51, 24
4, 250432, Note_on_c, 9, 51, 0
4, 250560, Note_on_c, 9, 53, 45
4, 250584, Note_on_c, 9, 53, 0
4, 250712, Note_on_c, 9, 53, 57
4, 250768, Note_on_c, 9, 53, 0
4, 250936, Note_on_c, 9, 53, 59
4, 250984, Note_on_c, 9, 53, 0
4, 251728, Note_on_c, 9, 51, 35
4, 251752, Note_on_c, 9, 51, 0
4, 252104, Note_on_c, 9, 51, 32
4, 252144, Note_on_c, 9, 51, 0
4, 252256, Note_on_c, 9, 51, 21
4, 252336, Note_on_c, 9, 51, 0
4, 252904, Note_on_c, 9, 51, 30
4, 252944, Note_on_c, 9, 51, 0
4, 253040, Note_on_c, 9, 51, 22
4, 253112, Note_on_c, 9, 51, 0
4, 253288, Note_on_c, 9, 51, 28
4, 253312, Note_on_c, 9, 51, 0
4, 253408, Note_on_c, 9, 51, 28
4, 253504, Note_on_c, 9, 51, 0
4, 254016, Note_on_c, 9, 51, 21
4, 254072, Note_on_c, 9, 51, 0
4, 254304, Note_on_c, 9, 51, 23
4, 254320, Note_on_c, 9, 51, 0
4, 254416, Note_on_c, 9, 51, 10
4, 254464, Note_on_c, 9, 51, 0
4, 254552, Note_on_c, 9, 51, 20
4, 254576, Note_on_c, 9, 51, 0
4, 255072, Note_on_c, 9, 51, 18
4, 255120, Note_on_c, 9, 51, 0
4, 255176, Note_on_c, 9, 51, 21
4, 255208, Note_on_c, 9, 51, 0
4, 255320, Note_on_c, 9, 51, 13
4, 255352, Note_on_c, 9, 51, 0
4, 255680, Note_on_c, 9, 51, 17
4, 255712, Note_on_c, 9, 51, 0
4, 255816, Note_on_c, 9, 51, 18
4, 255872, Note_on_c, 9, 51, 0
4, 256200, Note_on_c, 9, 51, 15
4, 256216, Note_on_c, 9, 51, 0
4, 256304, Note_on_c, 9, 51, 15
4, 256360, Note_on_c, 9, 51, 0
4, 256432, Note_on_c, 9, 51, 20
4, 256456, Note_on_c, 9, 51, 0
4, 257000, Note_on_c, 9, 51, 16
4, 257048, Note_on_c, 9, 51, 0
4, 257264, Note_on_c, 9, 51, 18
4, 257296, Note_on_c, 9, 51, 0
4, 257520, Note_on_c, 9, 51, 12
4, 257544, Note_on_c, 9, 51, 0
4, 257752, Note_on_c, 9, 51, 19
4, 257784, Note_on_c, 9, 51, 0
4, 257880, Note_on_c, 9, 51, 15
4, 257936, Note_on_c, 9, 51, 0
4, 258024, Note_on_c, 9, 51, 13
4, 258048, Note_on_c, 9, 51, 0
4, 258504, Note_on_c, 9, 51, 17
4, 258560, Note_on_c, 9, 51, 0
4, 258648, Note_on_c, 9, 51, 13
4, 258696, Note_on_c, 9, 51, 0
4, 258784, Note_on_c, 9, 51, 12
4, 258816, Note_on_c, 9, 51, 0
4, 259176, Note_on_c, 9, 51, 12
4, 259200, Note_on_c, 9, 51, 0
4, 259304, Note_on_c, 9, 51, 12
4, 259360, Note_on_c, 9, 51, 0
4, 259704, Note_on_c, 9, 51, 12
4, 259728, Note_on_c, 9, 51, 0
4, 259824, Note_on_c, 9, 51, 8
4, 259896, Note_on_c, 9, 51, 0
4, 259944, Note_on_c, 9, 51, 11
4, 259992, Note_on_c, 9, 51, 0
4, 260208, Note_on_c, 9, 51, 11
4, 260248, Note_on_c, 9, 51, 0
4, 260352, Note_on_c, 9, 51, 10
4, 260512, Note_on_c, 9, 51, 0
4, 260928, Note_on_c, 9, 51, 7
4, 260952, Note_on_c, 9, 51, 0
4, 261064, Note_on_c, 9, 51, 7
4, 261096, Note_on_c, 9, 51, 0
4, 261312, Note_on_c, 9, 51, 10
4, 261344, Note_on_c, 9, 51, 0
4, 261576, Note_on_c, 9, 51, 9
4, 261608, Note_on_c, 9, 51, 0
4, 261896, Note_on_c, 9, 51, 5
4, 261936, Note_on_c, 9, 51, 0
4, 262128, Note_on_c, 9, 51, 8
4, 262168, Note_on_c, 9, 51, 0
4, 262408, Note_on_c, 9, 51, 4
4, 262448, Note_on_c, 9, 51, 0
4, 262520, Note_on_c, 9, 51, 4
4, 262560, Note_on_c, 9, 51, 0
4, 262672, Note_on_c, 9, 38, 8
4, 263696, Note_on_c, 9, 38, 0
4, 264440, System_exclusive, 8, 67, 115, 1, 17, 9, 87, 127, 247
4, 264440, End_track
5, 0, Start_track
5, 0, Title_t, ""
5, 0, Control_c, 9, 7, 90
5, 250296, Note_on_c, 9, 40, 37
5, 250368, Note_on_c, 9, 40, 0
5, 250984, Note_on_c, 9, 35, 25
5, 251016, Note_on_c, 9, 35, 0
5, 251128, Note_on_c, 9, 35, 25
5, 251272, Note_on_c, 9, 35, 0
5, 251472, Note_on_c, 9, 40, 28
5, 251544, Note_on_c, 9, 40, 0
5, 252136, Note_on_c, 9, 35, 25
5, 252176, Note_on_c, 9, 35, 0
5, 252280, Note_on_c, 9, 35, 18
5, 252384, Note_on_c, 9, 35, 0
5, 252616, Note_on_c, 9, 40, 27
5, 252672, Note_on_c, 9, 40, 0
5, 253152, Note_on_c, 9, 35, 26
5, 253184, Note_on_c, 9, 35, 0
5, 253280, Note_on_c, 9, 35, 24
5, 253352, Note_on_c, 9, 35, 0
5, 253408, Note_on_c, 9, 35, 27
5, 253464, Note_on_c, 9, 35, 0
5, 253752, Note_on_c, 9, 40, 22
5, 253824, Note_on_c, 9, 40, 0
5, 254432, Note_on_c, 9, 35, 21
5, 254488, Note_on_c, 9, 35, 0
5, 254584, Note_on_c, 9, 35, 18
5, 254632, Note_on_c, 9, 35, 0
5, 255600, Note_on_c, 9, 35, 9
5, 255632, Note_on_c, 9, 35, 0
5, 255728, Note_on_c, 9, 35, 24
5, 255768, Note_on_c, 9, 35, 0
5, 256496, Note_on_c, 9, 35, 15
5, 256536, Note_on_c, 9, 35, 0
5, 256872, Note_on_c, 9, 35, 15
5, 256920, Note_on_c, 9, 35, 0
5, 257216, Note_on_c, 9, 40, 12
5, 257248, Note_on_c, 9, 40, 0
5, 257896, Note_on_c, 9, 35, 16
5, 257944, Note_on_c, 9, 35, 0
5, 258032, Note_on_c, 9, 35, 13
5, 258064, Note_on_c, 9, 35, 0
5, 258376, Note_on_c, 9, 40, 8
5, 258448, Note_on_c, 9, 40, 0
5, 258760, Note_on_c, 9, 40, 12
5, 258808, Note_on_c, 9, 40, 0
5, 259040, Note_on_c, 9, 35, 12
5, 259080, Note_on_c, 9, 35, 0
5, 259168, Note_on_c, 9, 35, 8
5, 259208, Note_on_c, 9, 35, 0
5, 259512, Note_on_c, 9, 40, 9
5, 259592, Note_on_c, 9, 40, 0
5, 260184, Note_on_c, 9, 35, 11
5, 260240, Note_on_c, 9, 35, 0
5, 260328, Note_on_c, 9, 35, 6
5, 260360, Note_on_c, 9, 35, 0
5, 260680, Note_on_c, 9, 40, 5
5, 260712, Note_on_c, 9, 40, 0
5, 261360, Note_on_c, 9, 35, 7
5, 261416, Note_on_c, 9, 35, 0
5, 261832, Note_on_c, 9, 40, 5
5, 261864, Note_on_c, 9, 40, 0
5, 262424, Note_on_c, 9, 35, 3
5, 262456, Note_on_c, 9, 35, 0
5, 262528, Note_on_c, 9, 35, 3
5, 262584, Note_on_c, 9, 35, 0
5, 262672, Note_on_c, 9, 35, 4
5, 262704, Note_on_c, 9, 35, 0
5, 263008, Note_on_c, 9, 40, 3
5, 263056, Note_on_c, 9, 40, 0
5, 263984, System_exclusive, 8, 67, 115, 1, 17, 14, 87, 127, 247
5, 263984, End_track
6, 0, Start_track
6, 0, Title_t, "Rhodes piano is selected - particularly if you have a less than convincing acoustic piano sound!"
6, 0, Program_c, 0, 4
6, 0, Control_c, 0, 7, 127
6, 0, Control_c, 0, 64, 127
6, 22, Note_on_c, 0, 83, 66
6, 31, Note_on_c, 0, 71, 41
6, 31, Note_on_c, 0, 60, 42
6, 38, Note_on_c, 0, 64, 19
6, 39, Note_on_c, 0, 59, 32
6, 39, Note_on_c, 0, 55, 35
6, 175, Note_on_c, 0, 76, 1
6, 456, Note_on_c, 0, 64, 0
6, 460, Note_on_c, 0, 59, 0
6, 469, Note_on_c, 0, 55, 0
6, 478, Note_on_c, 0, 60, 0
6, 1047, Note_on_c, 0, 71, 0
6, 1070, Note_on_c, 0, 76, 0
6, 1157, Note_on_c, 0, 64, 26
6, 1173, Note_on_c, 0, 60, 34
6, 1177, Note_on_c, 0, 59, 31
6, 1184, Note_on_c, 0, 83, 0
6, 1551, Note_on_c, 0, 60, 0
6, 1568, Note_on_c, 0, 59, 0
6, 1574, Note_on_c, 0, 64, 0
6, 1816, Note_on_c, 0, 64, 33
6, 1818, Note_on_c, 0, 60, 43
6, 1830, Note_on_c, 0, 59, 33
6, 1887, Note_on_c, 0, 59, 0
6, 1894, Note_on_c, 0, 64, 0
6, 1897, Note_on_c, 0, 60, 0
6, 2083, Note_on_c, 0, 79, 53
6, 2135, Note_on_c, 0, 79, 0
6, 2207, Note_on_c, 0, 81, 101
6, 2306, Note_on_c, 0, 81, 0
6, 2320, Control_c, 0, 64, 0
6, 2340, Note_on_c, 0, 56, 55
6, 2347, Note_on_c, 0, 60, 59
6, 2349, Note_on_c, 0, 64, 51
6, 2351, Note_on_c, 0, 83, 94
6, 2423, Control_c, 0, 64, 127
6, 2621, Note_on_c, 0, 83, 0
6, 2972, Note_on_c, 0, 86, 110
6, 3146, Note_on_c, 0, 56, 0
6, 3148, Note_on_c, 0, 64, 0
6, 3157, Note_on_c, 0, 60, 0
6, 3299, Note_on_c, 0, 85, 46
6, 3315, Note_on_c, 0, 86, 0
6, 3354, Note_on_c, 0, 85, 0
6, 3361, Note_on_c, 0, 84, 61
6, 3445, Note_on_c, 0, 84, 0
6, 3460, Control_c, 0, 64, 0
6, 3464, Note_on_c, 0, 60, 41
6, 3467, Note_on_c, 0, 64, 25
6, 3468, Note_on_c, 0, 83, 49
6, 3472, Note_on_c, 0, 56, 32
6, 3749, Control_c, 0, 64, 127
6, 3803, Note_on_c, 0, 60, 0
6, 3820, Note_on_c, 0, 56, 0
6, 3829, Note_on_c, 0, 64, 0
6, 3957, Note_on_c, 0, 83, 0
6, 4063, Note_on_c, 0, 56, 33
6, 4074, Note_on_c, 0, 64, 24
6, 4277, Note_on_c, 0, 56, 0
6, 4293, Note_on_c, 0, 64, 0
6, 4566, Note_on_c, 0, 55, 33
6, 4586, Control_c, 0, 64, 0
6, 4587, Note_on_c, 0, 60, 38
6, 4597, Note_on_c, 0, 64, 25
6, 4937, Control_c, 0, 64, 127
6, 5027, Note_on_c, 0, 60, 0
6, 5051, Note_on_c, 0, 64, 0
6, 5068, Note_on_c, 0, 55, 0
6, 5224, Note_on_c, 0, 55, 43
6, 5229, Note_on_c, 0, 60, 39
6, 5234, Note_on_c, 0, 64, 25
6, 5496, Note_on_c, 0, 55, 0
6, 5505, Note_on_c, 0, 71, 94
6, 5523, Note_on_c, 0, 60, 0
6, 5542, Note_on_c, 0, 64, 0
6, 5607, Note_on_c, 0, 69, 90
6, 5623, Note_on_c, 0, 71, 0
6, 5683, Note_on_c, 0, 69, 0
6, 5737, Note_on_c, 0, 71, 94
6, 5747, Note_on_c, 0, 60, 60
6, 5748, Note_on_c, 0, 55, 65
6, 5749, Note_on_c, 0, 64, 54
6, 5760, Control_c, 0, 64, 0
6, 6049, Control_c, 0, 64, 127
6, 6188, Note_on_c, 0, 64, 0
6, 6193, Note_on_c, 0, 55, 0
6, 6194, Note_on_c, 0, 60, 0
6, 6402, Note_on_c, 0, 55, 24
6, 6409, Note_on_c, 0, 60, 31
6, 6415, Note_on_c, 0, 64, 18
6, 6574, Note_on_c, 0, 64, 0
6, 6632, Note_on_c, 0, 60, 0
6, 6666, Note_on_c, 0, 67, 47
6, 6667, Note_on_c, 0, 55, 0
6, 6737, Note_on_c, 0, 67, 0
6, 6747, Note_on_c, 0, 71, 0
6, 6797, Note_on_c, 0, 69, 46
6, 6861, Note_on_c, 0, 69, 0
6, 6941, Note_on_c, 0, 54, 46
6, 6942, Control_c, 0, 64, 0
6, 6948, Note_on_c, 0, 71, 42
6, 6949, Note_on_c, 0, 64, 60
6, 6951, Note_on_c, 0, 60, 32
6, 6954, Note_on_c, 0, 68, 47
6, 7085, Control_c, 0, 64, 127
6, 7422, Note_on_c, 0, 60, 0
6, 7451, Note_on_c, 0, 54, 0
6, 7472, Note_on_c, 0, 64, 0
6, 7869, Note_on_c, 0, 71, 0
6, 7875, Note_on_c, 0, 68, 0
6, 7920, Note_on_c, 0, 76, 40
6, 8094, Note_on_c, 0, 71, 52
6, 8109, Control_c, 0, 64, 0
6, 8111, Note_on_c, 0, 68, 25
6, 8120, Note_on_c, 0, 54, 27
6, 8121, Note_on_c, 0, 60, 27
6, 8123, Note_on_c, 0, 64, 30
6, 8133, Note_on_c, 0, 76, 0
6, 8316, Control_c, 0, 64, 127
6, 8520, Note_on_c, 0, 64, 0
6, 8709, Note_on_c, 0, 71, 0
6, 8712, Note_on_c, 0, 68, 0
6, 8896, Note_on_c, 0, 60, 0
6, 8947, Note_on_c, 0, 54, 0
6, 9073, Note_on_c, 0, 77, 79
6, 9146, Note_on_c, 0, 77, 0
6, 9263, Control_c, 0, 64, 0
6, 9264, Note_on_c, 0, 76, 58
6, 9264, Note_on_c, 0, 65, 53
6, 9272, Note_on_c, 0, 69, 60
6, 9272, Note_on_c, 0, 72, 50
6, 9284, Note_on_c, 0, 64, 44
6, 9331, Note_on_c, 0, 65, 0
6, 9393, Control_c, 0, 64, 127
6, 9397, Note_on_c, 0, 69, 0
6, 9404, Note_on_c, 0, 65, 41
6, 9418, Note_on_c, 0, 76, 0
6, 9423, Note_on_c, 0, 72, 0
6, 9460, Note_on_c, 0, 65, 0
6, 9539, Note_on_c, 0, 65, 37
6, 9598, Note_on_c, 0, 65, 0
6, 9627, Note_on_c, 0, 69, 36
6, 9642, Note_on_c, 0, 72, 20
6, 9643, Note_on_c, 0, 64, 0
6, 9675, Note_on_c, 0, 69, 0
6, 9683, Note_on_c, 0, 65, 37
6, 9687, Note_on_c, 0, 72, 0
6, 9743, Note_on_c, 0, 65, 0
6, 9772, Note_on_c, 0, 69, 38
6, 9788, Note_on_c, 0, 72, 19
6, 9815, Note_on_c, 0, 69, 0
6, 9825, Note_on_c, 0, 65, 39
6, 9829, Note_on_c, 0, 72, 0
6, 9889, Note_on_c, 0, 65, 0
6, 9910, Note_on_c, 0, 69, 44
6, 9911, Note_on_c, 0, 76, 20
6, 9919, Note_on_c, 0, 72, 27
6, 9959, Note_on_c, 0, 69, 0
6, 9964, Note_on_c, 0, 65, 46
6, 9965, Note_on_c, 0, 76, 0
6, 9972, Note_on_c, 0, 72, 0
6, 10029, Note_on_c, 0, 65, 0
6, 10043, Note_on_c, 0, 69, 47
6, 10060, Note_on_c, 0, 72, 24
6, 10098, Note_on_c, 0, 69, 0
6, 10098, Note_on_c, 0, 65, 46
6, 10101, Note_on_c, 0, 72, 0
6, 10135, Control_c, 0, 64, 0
6, 10161, Note_on_c, 0, 65, 0
6, 10167, Note_on_c, 0, 69, 49
6, 10171, Note_on_c, 0, 76, 30
6, 10182, Note_on_c, 0, 72, 32
6, 10222, Note_on_c, 0, 65, 49
6, 10223, Note_on_c, 0, 76, 0
6, 10234, Note_on_c, 0, 69, 0
6, 10235, Note_on_c, 0, 72, 0
6, 10286, Note_on_c, 0, 69, 60
6, 10287, Note_on_c, 0, 65, 0
6, 10289, Note_on_c, 0, 76, 19
6, 10297, Note_on_c, 0, 72, 43
6, 10342, Note_on_c, 0, 65, 46
6, 10352, Note_on_c, 0, 76, 0
6, 10360, Note_on_c, 0, 72, 0
6, 10361, Note_on_c, 0, 69, 0
6, 10394, Note_on_c, 0, 76, 14
6, 10406, Note_on_c, 0, 65, 0
6, 10407, Note_on_c, 0, 69, 68
6, 10410, Control_c, 0, 64, 127
6, 10413, Note_on_c, 0, 64, 84
6, 10418, Note_on_c, 0, 72, 57
6, 10466, Note_on_c, 0, 65, 57
6, 10475, Note_on_c, 0, 76, 0
6, 10486, Note_on_c, 0, 72, 0
6, 10489, Note_on_c, 0, 69, 0
6, 10529, Note_on_c, 0, 65, 0
6, 10537, Note_on_c, 0, 76, 19
6, 10538, Note_on_c, 0, 69, 66
6, 10545, Note_on_c, 0, 72, 44
6, 10593, Note_on_c, 0, 65, 57
6, 10602, Note_on_c, 0, 69, 0
6, 10609, Note_on_c, 0, 72, 0
6, 10656, Note_on_c, 0, 65, 0
6, 10665, Note_on_c, 0, 69, 44
6, 10670, Note_on_c, 0, 72, 38
6, 10722, Note_on_c, 0, 65, 51
6, 10738, Note_on_c, 0, 72, 0
6, 10738, Note_on_c, 0, 69, 0
6, 10767, Note_on_c, 0, 76, 0
6, 10797, Note_on_c, 0, 65, 0
6, 10803, Note_on_c, 0, 76, 24
6, 10822, Note_on_c, 0, 69, 31
6, 10829, Note_on_c, 0, 72, 19
6, 10888, Note_on_c, 0, 72, 0
6, 10899, Note_on_c, 0, 69, 0
6, 10912, Note_on_c, 0, 65, 18
6, 10941, Note_on_c, 0, 65, 0
6, 10952, Note_on_c, 0, 76, 0
6, 10992, Note_on_c, 0, 62, 79
6, 10995, Note_on_c, 0, 74, 73
6, 10996, Note_on_c, 0, 64, 0
6, 10998, Note_on_c, 0, 65, 72
6, 10998, Note_on_c, 0, 69, 74
6, 11011, Note_on_c, 0, 72, 54
6, 11037, Note_on_c, 0, 72, 0
6, 11218, Note_on_c, 0, 69, 0
6, 11236, Note_on_c, 0, 65, 0
6, 11258, Note_on_c, 0, 74, 0
6, 11309, Note_on_c, 0, 62, 0
6, 11329, Note_on_c, 0, 76, 74
6, 11330, Note_on_c, 0, 69, 78
6, 11332, Note_on_c, 0, 65, 79
6, 11335, Note_on_c, 0, 72, 65
6, 11340, Note_on_c, 0, 64, 66
6, 11350, Note_on_c, 0, 74, 43
6, 11410, Note_on_c, 0, 69, 0
6, 11416, Note_on_c, 0, 72, 0
6, 11418, Note_on_c, 0, 74, 0
6, 11427, Note_on_c, 0, 65, 0
6, 11428, Note_on_c, 0, 64, 0
6, 11440, Note_on_c, 0, 76, 0
6, 11584, Control_c, 0, 64, 0
6, 11593, Note_on_c, 0, 77, 71
6, 11596, Note_on_c, 0, 73, 60
6, 11599, Note_on_c, 0, 55, 70
6, 11600, Note_on_c, 0, 71, 79
6, 11601, Note_on_c, 0, 65, 82
6, 11749, Control_c, 0, 64, 127
6, 11922, Note_on_c, 0, 65, 0
6, 11928, Note_on_c, 0, 55, 0
6, 11933, Note_on_c, 0, 71, 0
6, 11951, Note_on_c, 0, 73, 0
6, 11953, Note_on_c, 0, 77, 0
6, 12150, Note_on_c, 0, 53, 36
6, 12151, Note_on_c, 0, 79, 58
6, 12154, Note_on_c, 0, 67, 55
6, 12159, Note_on_c, 0, 64, 29
6, 12161, Note_on_c, 0, 59, 38
6, 12162, Note_on_c, 0, 74, 50
6, 12361, Note_on_c, 0, 59, 0
6, 12364, Note_on_c, 0, 67, 0
6, 12369, Note_on_c, 0, 79, 0
6, 12372, Note_on_c, 0, 64, 0
6, 12384, Note_on_c, 0, 74, 0
6, 12419, Note_on_c, 0, 53, 0
6, 12642, Control_c, 0, 64, 0
6, 12654, Note_on_c, 0, 59, 38
6, 12655, Note_on_c, 0, 80, 37
6, 12656, Note_on_c, 0, 53, 44
6, 12657, Note_on_c, 0, 68, 34
6, 12658, Note_on_c, 0, 75, 43
6, 12662, Note_on_c, 0, 63, 34
6, 12841, Control_c, 0, 64, 127
6, 13266, Note_on_c, 0, 80, 0
6, 13314, Note_on_c, 0, 59, 0
6, 13317, Note_on_c, 0, 75, 0
6, 13321, Note_on_c, 0, 68, 0
6, 13335, Note_on_c, 0, 63, 0
6, 13344, Note_on_c, 0, 53, 0
6, 13669, Note_on_c, 0, 79, 57
6, 13725, Note_on_c, 0, 79, 0
6, 13852, Note_on_c, 0, 76, 54
6, 13863, Note_on_c, 0, 64, 35
6, 13865, Control_c, 0, 64, 0
6, 14097, Control_c, 0, 64, 127
6, 14157, Note_on_c, 0, 52, 30
6, 14215, Note_on_c, 0, 64, 0
6, 14441, Note_on_c, 0, 71, 34
6, 14457, Note_on_c, 0, 76, 0
6, 14460, Note_on_c, 0, 65, 42
6, 14460, Note_on_c, 0, 69, 49
6, 14486, Note_on_c, 0, 64, 25
6, 14530, Note_on_c, 0, 65, 0
6, 14548, Note_on_c, 0, 69, 0
6, 14573, Note_on_c, 0, 71, 0
6, 14718, Note_on_c, 0, 88, 59
6, 14877, Note_on_c, 0, 64, 0
6, 14941, Note_on_c, 0, 88, 0
6, 14984, Note_on_c, 0, 77, 38
6, 14995, Note_on_c, 0, 83, 36
6, 14999, Note_on_c, 0, 81, 36
6, 15032, Note_on_c, 0, 77, 0
6, 15037, Note_on_c, 0, 81, 0
6, 15050, Note_on_c, 0, 83, 0
6, 15241, Note_on_c, 0, 100, 54
6, 15287, Note_on_c, 0, 100, 0
6, 15763, Note_on_c, 0, 64, 17
6, 15863, Note_on_c, 0, 64, 0
6, 16020, Note_on_c, 0, 76, 53
6, 16029, Note_on_c, 0, 70, 36
6, 16040, Note_on_c, 0, 68, 34
6, 16041, Note_on_c, 0, 65, 40
6, 16043, Note_on_c, 0, 64, 31
6, 16050, Control_c, 0, 64, 0
6, 16111, Control_c, 0, 64, 127
6, 16112, Note_on_c, 0, 65, 0
6, 16123, Note_on_c, 0, 68, 0
6, 16133, Note_on_c, 0, 70, 0
6, 16161, Note_on_c, 0, 76, 0
6, 16213, Note_on_c, 0, 52, 0
6, 16276, Note_on_c, 0, 88, 61
6, 16317, Note_on_c, 0, 88, 0
6, 16381, Note_on_c, 0, 64, 0
6, 16583, Note_on_c, 0, 64, 24
6, 16628, Note_on_c, 0, 64, 0
6, 16865, Note_on_c, 0, 70, 25
6, 16870, Note_on_c, 0, 65, 24
6, 16875, Note_on_c, 0, 68, 23
6, 16892, Note_on_c, 0, 64, 19
6, 17052, Note_on_c, 0, 65, 0
6, 17071, Note_on_c, 0, 64, 0
6, 17081, Note_on_c, 0, 68, 0
6, 17086, Note_on_c, 0, 70, 0
6, 17550, Note_on_c, 0, 73, 81
6, 17552, Note_on_c, 0, 49, 71
6, 17581, Control_c, 0, 64, 0
6, 17615, Control_c, 0, 64, 127
6, 17746, Note_on_c, 0, 73, 0
6, 17811, Note_on_c, 0, 49, 0
6, 17825, Note_on_c, 0, 53, 66
6, 17831, Note_on_c, 0, 77, 87
6, 18038, Note_on_c, 0, 53, 0
6, 18051, Note_on_c, 0, 77, 0
6, 18089, Note_on_c, 0, 72, 80
6, 18091, Note_on_c, 0, 48, 35
6, 18119, Note_on_c, 0, 48, 0
6, 18305, Note_on_c, 0, 72, 0
6, 18405, Control_c, 0, 64, 0
6, 18415, Note_on_c, 0, 71, 55
6, 18425, Note_on_c, 0, 64, 28
6, 18435, Note_on_c, 0, 60, 40
6, 18441, Note_on_c, 0, 55, 30
6, 18444, Note_on_c, 0, 59, 37
6, 18803, Control_c, 0, 64, 127
6, 18871, Note_on_c, 0, 55, 0
6, 18872, Note_on_c, 0, 59, 0
6, 18910, Note_on_c, 0, 60, 0
6, 18913, Note_on_c, 0, 64, 0
6, 19031, Note_on_c, 0, 71, 0
6, 19060, Note_on_c, 0, 69, 45
6, 19067, Note_on_c, 0, 60, 32
6, 19091, Control_c, 0, 64, 0
6, 19109, Note_on_c, 0, 69, 0
6, 19110, Note_on_c, 0, 60, 0
6, 19244, Note_on_c, 0, 64, 37
6, 19245, Note_on_c, 0, 71, 66
6, 19252, Note_on_c, 0, 56, 43
6, 19253, Note_on_c, 0, 60, 30
6, 19291, Note_on_c, 0, 71, 0
6, 19305, Note_on_c, 0, 60, 0
6, 19309, Note_on_c, 0, 64, 0
6, 19316, Note_on_c, 0, 56, 0
6, 19493, Note_on_c, 0, 56, 35
6, 19494, Note_on_c, 0, 71, 54
6, 19500, Note_on_c, 0, 64, 24
6, 19508, Note_on_c, 0, 60, 33
6, 19601, Control_c, 0, 64, 127
6, 20185, Note_on_c, 0, 60, 0
6, 20202, Note_on_c, 0, 64, 0
6, 20205, Note_on_c, 0, 56, 0
6, 20477, Note_on_c, 0, 67, 48
6, 20478, Note_on_c, 0, 71, 0
6, 20539, Note_on_c, 0, 67, 0
6, 20610, Note_on_c, 0, 69, 80
6, 20684, Note_on_c, 0, 69, 0
6, 20740, Control_c, 0, 64, 0
6, 20742, Note_on_c, 0, 63, 51
6, 20742, Note_on_c, 0, 71, 99
6, 20745, Note_on_c, 0, 62, 48
6, 20746, Note_on_c, 0, 67, 62
6, 20751, Note_on_c, 0, 57, 56
6, 21091, Control_c, 0, 64, 127
6, 21433, Note_on_c, 0, 67, 0
6, 21439, Note_on_c, 0, 62, 0
6, 21487, Note_on_c, 0, 57, 0
6, 21507, Note_on_c, 0, 63, 0
6, 21741, Note_on_c, 0, 71, 0
6, 21759, Note_on_c, 0, 74, 69
6, 22221, Note_on_c, 0, 74, 0
6, 22498, Note_on_c, 0, 71, 35
6, 22513, Note_on_c, 0, 51, 33
6, 22514, Note_on_c, 0, 62, 31
6, 22519, Note_on_c, 0, 67, 46
6, 22534, Note_on_c, 0, 57, 33
6, 22539, Control_c, 0, 64, 0
6, 22656, Control_c, 0, 64, 127
6, 22783, Note_on_c, 0, 51, 0
6, 22813, Note_on_c, 0, 57, 0
6, 22865, Note_on_c, 0, 67, 0
6, 22894, Note_on_c, 0, 71, 0
6, 22926, Note_on_c, 0, 62, 0
6, 23082, Control_c, 0, 64, 0
6, 23283, Note_on_c, 0, 71, 58
6, 23284, Note_on_c, 0, 64, 55
6, 23286, Note_on_c, 0, 60, 60
6, 23291, Note_on_c, 0, 50, 44
6, 23292, Note_on_c, 0, 59, 53
6, 23295, Note_on_c, 0, 67, 47
6, 23312, Note_on_c, 0, 60, 0
6, 23320, Note_on_c, 0, 64, 0
6, 23321, Note_on_c, 0, 67, 0
6, 23322, Note_on_c, 0, 59, 0
6, 23341, Note_on_c, 0, 71, 0
6, 23418, Note_on_c, 0, 57, 35
6, 23492, Note_on_c, 0, 57, 0
6, 23523, Note_on_c, 0, 71, 60
6, 23529, Note_on_c, 0, 60, 54
6, 23537, Note_on_c, 0, 64, 41
6, 23547, Note_on_c, 0, 67, 40
6, 23550, Note_on_c, 0, 59, 37
6, 23582, Note_on_c, 0, 60, 0
6, 23588, Note_on_c, 0, 64, 0
6, 23592, Note_on_c, 0, 67, 0
6, 23619, Note_on_c, 0, 59, 0
6, 23622, Note_on_c, 0, 71, 0
6, 23700, Note_on_c, 0, 57, 24
6, 23740, Note_on_c, 0, 57, 0
6, 23775, Note_on_c, 0, 71, 32
6, 23789, Note_on_c, 0, 67, 43
6, 23791, Note_on_c, 0, 64, 44
6, 23792, Note_on_c, 0, 60, 31
6, 23801, Note_on_c, 0, 59, 34
6, 24057, Control_c, 0, 64, 127
6, 24170, Note_on_c, 0, 59, 0
6, 24472, Note_on_c, 0, 59, 36
6, 24584, Note_on_c, 0, 60, 0
6, 24626, Note_on_c, 0, 64, 0
6, 24643, Note_on_c, 0, 67, 0
6, 24682, Note_on_c, 0, 71, 0
6, 24818, Note_on_c, 0, 71, 91
6, 24920, Note_on_c, 0, 59, 0
6, 24928, Note_on_c, 0, 50, 0
6, 25026, Note_on_c, 0, 71, 0
6, 25102, Note_on_c, 0, 67, 69
6, 25166, Note_on_c, 0, 67, 0
6, 25208, Note_on_c, 0, 69, 64
6, 25268, Note_on_c, 0, 69, 0
6, 25561, Control_c, 0, 64, 0
6, 25562, Note_on_c, 0, 71, 1
6, 25572, Note_on_c, 0, 68, 56
6, 25580, Note_on_c, 0, 64, 62
6, 25584, Note_on_c, 0, 50, 44
6, 25585, Note_on_c, 0, 60, 58
6, 25592, Note_on_c, 0, 56, 46
6, 25719, Control_c, 0, 64, 127
6, 25746, Note_on_c, 0, 64, 0
6, 25747, Note_on_c, 0, 60, 0
6, 25775, Note_on_c, 0, 68, 0
6, 25788, Note_on_c, 0, 71, 0
6, 25936, Note_on_c, 0, 76, 68
6, 26051, Note_on_c, 0, 56, 0
6, 26058, Note_on_c, 0, 76, 0
6, 26124, Note_on_c, 0, 50, 0
6, 26517, Note_on_c, 0, 71, 48
6, 26518, Note_on_c, 0, 68, 33
6, 26520, Note_on_c, 0, 64, 35
6, 26529, Control_c, 0, 64, 0
6, 26530, Note_on_c, 0, 50, 33
6, 26546, Note_on_c, 0, 56, 25
6, 26554, Note_on_c, 0, 60, 26
6, 26707, Control_c, 0, 64, 127
6, 26892, Note_on_c, 0, 64, 0
6, 26926, Note_on_c, 0, 60, 0
6, 26937, Note_on_c, 0, 56, 0
6, 26945, Note_on_c, 0, 50, 0
6, 26973, Note_on_c, 0, 68, 0
6, 26990, Note_on_c, 0, 71, 0
6, 27140, Note_on_c, 0, 56, 33
6, 27140, Note_on_c, 0, 50, 31
6, 27152, Note_on_c, 0, 60, 29
6, 27177, Note_on_c, 0, 50, 0
6, 27197, Note_on_c, 0, 60, 0
6, 27204, Note_on_c, 0, 56, 0
6, 27485, Note_on_c, 0, 89, 63
6, 27509, Note_on_c, 0, 77, 40
6, 27563, Note_on_c, 0, 89, 0
6, 27583, Note_on_c, 0, 77, 0
6, 27675, Control_c, 0, 64, 0
6, 27683, Note_on_c, 0, 88, 53
6, 27698, Note_on_c, 0, 76, 33
6, 27699, Note_on_c, 0, 65, 29
6, 27700, Note_on_c, 0, 55, 19
6, 27701, Note_on_c, 0, 60, 36
6, 27704, Note_on_c, 0, 57, 33
6, 27813, Control_c, 0, 64, 127
6, 28009, Note_on_c, 0, 76, 0
6, 28019, Note_on_c, 0, 60, 0
6, 28022, Note_on_c, 0, 65, 0
6, 28029, Note_on_c, 0, 55, 0
6, 28030, Note_on_c, 0, 57, 0
6, 28080, Note_on_c, 0, 88, 0
6, 28266, Note_on_c, 0, 88, 53
6, 28281, Note_on_c, 0, 55, 28
6, 28287, Note_on_c, 0, 60, 42
6, 28291, Note_on_c, 0, 65, 20
6, 28291, Note_on_c, 0, 76, 25
6, 28293, Note_on_c, 0, 57, 33
6, 28630, Note_on_c, 0, 60, 0
6, 28636, Note_on_c, 0, 65, 0
6, 28637, Note_on_c, 0, 57, 0
6, 28650, Note_on_c, 0, 55, 0
6, 28838, Note_on_c, 0, 76, 0
6, 28841, Note_on_c, 0, 88, 0
6, 29162, Note_on_c, 0, 55, 75
6, 29163, Note_on_c, 0, 86, 89
6, 29164, Note_on_c, 0, 81, 81
6, 29165, Note_on_c, 0, 74, 82
6, 29167, Note_on_c, 0, 57, 65
6, 29168, Note_on_c, 0, 65, 71
6, 29169, Note_on_c, 0, 60, 65
6, 29434, Note_on_c, 0, 74, 0
6, 29459, Note_on_c, 0, 86, 0
6, 29460, Note_on_c, 0, 81, 0
6, 29481, Note_on_c, 0, 60, 0
6, 29495, Note_on_c, 0, 65, 0
6, 29504, Note_on_c, 0, 57, 0
6, 29538, Note_on_c, 0, 55, 0
6, 29715, Note_on_c, 0, 65, 51
6, 29716, Note_on_c, 0, 55, 60
6, 29716, Note_on_c, 0, 60, 58
6, 29718, Note_on_c, 0, 88, 80
6, 29722, Note_on_c, 0, 76, 68
6, 29751, Note_on_c, 0, 65, 0
6, 29778, Note_on_c, 0, 60, 0
6, 29784, Note_on_c, 0, 76, 0
6, 29791, Note_on_c, 0, 55, 0
6, 29817, Note_on_c, 0, 88, 0
6, 30032, Note_on_c, 0, 89, 72
6, 30033, Note_on_c, 0, 77, 66
6, 30035, Note_on_c, 0, 63, 59
6, 30038, Control_c, 0, 64, 0
6, 30039, Note_on_c, 0, 83, 66
6, 30042, Note_on_c, 0, 53, 54
6, 30042, Note_on_c, 0, 59, 62
6, 30176, Control_c, 0, 64, 127
6, 30337, Note_on_c, 0, 59, 0
6, 30340, Note_on_c, 0, 63, 0
6, 30346, Note_on_c, 0, 77, 0
6, 30348, Note_on_c, 0, 83, 0
6, 30349, Note_on_c, 0, 53, 0
6, 30372, Note_on_c, 0, 89, 0
6, 30596, Note_on_c, 0, 91, 68
6, 30602, Note_on_c, 0, 63, 45
6, 30602, Note_on_c, 0, 59, 50
6, 30604, Note_on_c, 0, 53, 45
6, 30605, Note_on_c, 0, 79, 49
6, 30763, Note_on_c, 0, 63, 0
6, 30766, Note_on_c, 0, 53, 0
6, 30768, Note_on_c, 0, 91, 0
6, 30769, Note_on_c, 0, 59, 0
6, 30795, Note_on_c, 0, 79, 0
6, 31096, Control_c, 0, 64, 0
6, 31109, Note_on_c, 0, 59, 35
6, 31111, Note_on_c, 0, 63, 30
6, 31112, Note_on_c, 0, 53, 45
6, 31117, Note_on_c, 0, 92, 62
6, 31123, Note_on_c, 0, 80, 38
6, 31134, Note_on_c, 0, 87, 35
6, 31172, Control_c, 0, 64, 127
6, 31362, Note_on_c, 0, 63, 0
6, 31403, Note_on_c, 0, 59, 0
6, 31418, Note_on_c, 0, 92, 0
6, 31436, Note_on_c, 0, 80, 0
6, 31436, Note_on_c, 0, 87, 0
6, 31448, Note_on_c, 0, 53, 0
6, 31707, Note_on_c, 0, 91, 36
6, 31711, Note_on_c, 0, 79, 29
6, 31720, Note_on_c, 0, 53, 30
6, 31720, Note_on_c, 0, 86, 48
6, 31722, Note_on_c, 0, 59, 31
6, 31723, Note_on_c, 0, 63, 25
6, 31765, Note_on_c, 0, 59, 0
6, 31779, Note_on_c, 0, 91, 0
6, 31786, Note_on_c, 0, 86, 0
6, 31787, Note_on_c, 0, 63, 0
6, 31824, Note_on_c, 0, 53, 0
6, 31839, Note_on_c, 0, 79, 0
6, 32176, Control_c, 0, 64, 0
6, 32223, Note_on_c, 0, 48, 34
6, 32228, Note_on_c, 0, 64, 37
6, 32232, Note_on_c, 0, 59, 28
6, 32241, Note_on_c, 0, 55, 37
6, 32299, Control_c, 0, 64, 127
6, 32344, Note_on_c, 0, 59, 0
6, 32376, Note_on_c, 0, 64, 0
6, 32604, Note_on_c, 0, 55, 0
6, 32607, Note_on_c, 0, 48, 0
6, 32639, Note_on_c, 0, 71, 37
6, 32706, Note_on_c, 0, 71, 0
6, 32765, Note_on_c, 0, 76, 66
6, 32833, Note_on_c, 0, 76, 0
6, 32882, Note_on_c, 0, 78, 76
6, 32983, Note_on_c, 0, 78, 0
6, 33008, Note_on_c, 0, 81, 68
6, 33140, Note_on_c, 0, 81, 0
6, 33142, Note_on_c, 0, 78, 31
6, 33228, Note_on_c, 0, 78, 0
6, 33284, Note_on_c, 0, 76, 35
6, 33358, Note_on_c, 0, 76, 0
6, 33409, Note_on_c, 0, 71, 40
6, 33485, Note_on_c, 0, 71, 0
6, 34036, Note_on_c, 0, 66, 27
6, 34045, Note_on_c, 0, 59, 25
6, 34046, Note_on_c, 0, 64, 35
6, 34057, Control_c, 0, 64, 0
6, 34060, Note_on_c, 0, 55, 20
6, 34112, Control_c, 0, 64, 127
6, 34294, Note_on_c, 0, 59, 0
6, 34362, Note_on_c, 0, 64, 0
6, 34388, Note_on_c, 0, 66, 0
6, 34450, Note_on_c, 0, 55, 0
6, 34523, Note_on_c, 0, 48, 30
6, 34550, Note_on_c, 0, 48, 0
6, 34966, Note_on_c, 0, 72, 75
6, 34970, Note_on_c, 0, 69, 79
6, 34972, Note_on_c, 0, 62, 57
6, 34974, Note_on_c, 0, 65, 78
6, 34975, Note_on_c, 0, 60, 51
6, 34978, Note_on_c, 0, 58, 39
6, 35104, Note_on_c, 0, 62, 0
6, 35108, Note_on_c, 0, 60, 0
6, 35124, Note_on_c, 0, 72, 0
6, 35136, Note_on_c, 0, 65, 0
6, 35155, Note_on_c, 0, 69, 0
6, 35162, Note_on_c, 0, 58, 0
6, 35356, Note_on_c, 0, 61, 69
6, 35356, Note_on_c, 0, 73, 67
6, 35362, Note_on_c, 0, 66, 78
6, 35363, Note_on_c, 0, 69, 74
6, 35370, Note_on_c, 0, 59, 55
6, 35376, Note_on_c, 0, 57, 46
6, 35444, Note_on_c, 0, 59, 0
6, 35469, Note_on_c, 0, 61, 0
6, 35472, Note_on_c, 0, 66, 0
6, 35476, Note_on_c, 0, 57, 0
6, 35486, Note_on_c, 0, 69, 0
6, 35581, Note_on_c, 0, 73, 0
6, 35678, Control_c, 0, 64, 0
6, 35727, Note_on_c, 0, 76, 71
6, 35729, Note_on_c, 0, 69, 65
6, 35733, Note_on_c, 0, 72, 45
6, 35734, Note_on_c, 0, 53, 60
6, 35734, Note_on_c, 0, 64, 66
6, 35741, Note_on_c, 0, 60, 58
6, 35781, Control_c, 0, 64, 127
6, 35834, Note_on_c, 0, 60, 0
6, 35858, Note_on_c, 0, 64, 0
6, 35867, Note_on_c, 0, 53, 0
6, 35869, Note_on_c, 0, 69, 0
6, 35886, Note_on_c, 0, 72, 0
6, 35900, Note_on_c, 0, 76, 0
6, 36021, Control_c, 0, 64, 0
6, 36100, Note_on_c, 0, 62, 55
6, 36101, Note_on_c, 0, 52, 51
6, 36107, Note_on_c, 0, 56, 38
6, 36109, Note_on_c, 0, 79, 71
6, 36110, Note_on_c, 0, 74, 68
6, 36112, Note_on_c, 0, 67, 72
6, 36152, Control_c, 0, 64, 127
6, 36180, Note_on_c, 0, 52, 0
6, 36193, Note_on_c, 0, 67, 0
6, 36215, Note_on_c, 0, 56, 0
6, 36220, Note_on_c, 0, 74, 0
6, 36224, Note_on_c, 0, 79, 0
6, 36246, Note_on_c, 0, 62, 0
6, 36454, Control_c, 0, 64, 0
6, 36477, Note_on_c, 0, 84, 81
6, 36478, Note_on_c, 0, 61, 71
6, 36479, Note_on_c, 0, 77, 68
6, 36480, Note_on_c, 0, 72, 74
6, 36483, Note_on_c, 0, 65, 70
6, 36483, Note_on_c, 0, 81, 63
6, 36484, Note_on_c, 0, 55, 73
6, 36551, Control_c, 0, 64, 127
6, 36651, Note_on_c, 0, 65, 0
6, 36652, Note_on_c, 0, 55, 0
6, 36653, Note_on_c, 0, 84, 0
6, 36657, Note_on_c, 0, 81, 0
6, 36681, Note_on_c, 0, 77, 0
6, 36682, Note_on_c, 0, 72, 0
6, 36693, Note_on_c, 0, 61, 0
6, 36832, Control_c, 0, 64, 0
6, 36868, Note_on_c, 0, 64, 53
6, 36870, Note_on_c, 0, 55, 52
6, 36870, Note_on_c, 0, 83, 71
6, 36874, Note_on_c, 0, 57, 53
6, 36875, Note_on_c, 0, 60, 54
6, 36876, Note_on_c, 0, 71, 71
6, 36878, Note_on_c, 0, 76, 62
6, 36878, Note_on_c, 0, 79, 48
6, 36996, Control_c, 0, 64, 127
6, 37268, Note_on_c, 0, 60, 0
6, 37302, Note_on_c, 0, 55, 0
6, 37320, Note_on_c, 0, 64, 0
6, 37331, Note_on_c, 0, 71, 0
6, 37334, Note_on_c, 0, 83, 0
6, 37338, Note_on_c, 0, 57, 0
6, 37350, Note_on_c, 0, 79, 0
6, 37373, Note_on_c, 0, 76, 0
6, 37453, Note_on_c, 0, 81, 51
6, 37468, Note_on_c, 0, 69, 35
6, 37474, Note_on_c, 0, 76, 37
6, 37477, Note_on_c, 0, 55, 27
6, 37487, Note_on_c, 0, 60, 30
6, 37490, Note_on_c, 0, 57, 30
6, 37492, Note_on_c, 0, 64, 17
6, 37555, Note_on_c, 0, 69, 0
6, 37564, Note_on_c, 0, 76, 0
6, 37572, Note_on_c, 0, 60, 0
6, 37575, Note_on_c, 0, 55, 0
6, 37580, Note_on_c, 0, 81, 0
6, 37580, Note_on_c, 0, 57, 0
6, 37581, Note_on_c, 0, 64, 0
6, 37697, Control_c, 0, 64, 0
6, 37720, Note_on_c, 0, 83, 44
6, 37723, Note_on_c, 0, 71, 35
6, 37726, Note_on_c, 0, 79, 30
6, 37731, Note_on_c, 0, 55, 30
6, 37735, Note_on_c, 0, 76, 40
6, 37742, Note_on_c, 0, 57, 32
6, 37743, Note_on_c, 0, 60, 34
6, 37746, Note_on_c, 0, 64, 20
6, 37875, Control_c, 0, 64, 127
6, 38021, Note_on_c, 0, 60, 0
6, 38033, Note_on_c, 0, 64, 0
6, 38039, Note_on_c, 0, 55, 0
6, 38049, Note_on_c, 0, 57, 0
6, 38315, Control_c, 0, 64, 0
6, 38338, Note_on_c, 0, 60, 42
6, 38347, Note_on_c, 0, 64, 29
6, 38350, Note_on_c, 0, 59, 32
6, 38387, Note_on_c, 0, 59, 0
6, 38390, Note_on_c, 0, 64, 0
6, 38397, Note_on_c, 0, 60, 0
6, 38487, Control_c, 0, 64, 127
6, 38718, Note_on_c, 0, 60, 36
6, 38721, Note_on_c, 0, 64, 25
6, 38732, Note_on_c, 0, 59, 24
6, 38794, Note_on_c, 0, 64, 0
6, 38830, Note_on_c, 0, 60, 0
6, 38839, Note_on_c, 0, 59, 0
6, 39125, Control_c, 0, 64, 0
6, 39132, Note_on_c, 0, 60, 29
6, 39136, Note_on_c, 0, 64, 18
6, 39139, Control_c, 0, 64, 127
6, 39143, Note_on_c, 0, 59, 27
6, 39148, Note_on_c, 0, 55, 32
6, 39449, Note_on_c, 0, 55, 0
6, 39451, Note_on_c, 0, 64, 0
6, 39458, Note_on_c, 0, 60, 0
6, 39459, Note_on_c, 0, 59, 0
6, 39484, Note_on_c, 0, 79, 0
6, 39486, Note_on_c, 0, 83, 0
6, 39487, Note_on_c, 0, 71, 0
6, 39520, Note_on_c, 0, 76, 0
6, 39729, Note_on_c, 0, 81, 72
6, 39734, Note_on_c, 0, 76, 66
6, 39736, Note_on_c, 0, 69, 66
6, 39745, Note_on_c, 0, 64, 37
6, 39756, Note_on_c, 0, 60, 34
6, 39780, Note_on_c, 0, 55, 24
6, 39803, Note_on_c, 0, 64, 0
6, 39822, Note_on_c, 0, 76, 0
6, 39824, Note_on_c, 0, 60, 0
6, 39828, Note_on_c, 0, 55, 0
6, 39838, Note_on_c, 0, 81, 0
6, 39854, Note_on_c, 0, 69, 0
6, 39986, Note_on_c, 0, 79, 66
6, 39994, Note_on_c, 0, 74, 70
6, 39995, Note_on_c, 0, 67, 68
6, 40045, Note_on_c, 0, 74, 0
6, 40060, Note_on_c, 0, 79, 0
6, 40077, Note_on_c, 0, 67, 0
6, 40241, Note_on_c, 0, 70, 75
6, 40243, Note_on_c, 0, 66, 71
6, 40244, Note_on_c, 0, 78, 65
6, 40246, Note_on_c, 0, 73, 51
6, 40248, Note_on_c, 0, 50, 66
6, 40259, Control_c, 0, 64, 0
6, 40390, Control_c, 0, 64, 127
6, 40494, Note_on_c, 0, 70, 0
6, 40517, Note_on_c, 0, 73, 0
6, 40537, Note_on_c, 0, 66, 0
6, 40567, Note_on_c, 0, 78, 0
6, 40611, Note_on_c, 0, 79, 57
6, 40616, Note_on_c, 0, 67, 62
6, 40637, Note_on_c, 0, 77, 28
6, 40684, Note_on_c, 0, 77, 0
6, 40700, Note_on_c, 0, 67, 0
6, 40713, Note_on_c, 0, 79, 0
6, 40867, Note_on_c, 0, 50, 0
6, 40905, Note_on_c, 0, 81, 64
6, 40919, Note_on_c, 0, 69, 57
6, 41073, Note_on_c, 0, 69, 0
6, 41137, Note_on_c, 0, 81, 0
6, 41162, Note_on_c, 0, 78, 30
6, 41251, Note_on_c, 0, 78, 0
6, 41371, Control_c, 0, 64, 0
6, 41405, Note_on_c, 0, 50, 36
6, 41405, Note_on_c, 0, 69, 45
6, 41410, Note_on_c, 0, 81, 43
6, 41414, Note_on_c, 0, 78, 31
6, 41417, Note_on_c, 0, 74, 44
6, 41425, Note_on_c, 0, 59, 28
6, 41488, Control_c, 0, 64, 127
6, 41596, Note_on_c, 0, 81, 0
6, 41605, Note_on_c, 0, 74, 0
6, 41610, Note_on_c, 0, 78, 0
6, 41672, Note_on_c, 0, 69, 0
6, 41747, Note_on_c, 0, 59, 0
6, 41923, Note_on_c, 0, 50, 0
6, 42076, Note_on_c, 0, 69, 42
6, 42079, Note_on_c, 0, 66, 34
6, 42080, Note_on_c, 0, 62, 34
6, 42082, Note_on_c, 0, 50, 30
6, 42099, Control_c, 0, 64, 0
6, 42104, Note_on_c, 0, 57, 30
6, 42154, Control_c, 0, 64, 127
6, 42353, Note_on_c, 0, 57, 0
6, 42530, Note_on_c, 0, 50, 0
6, 42580, Note_on_c, 0, 50, 27
6, 42596, Note_on_c, 0, 69, 0
6, 42608, Note_on_c, 0, 57, 24
6, 42609, Note_on_c, 0, 66, 0
6, 42635, Note_on_c, 0, 57, 0
6, 42651, Note_on_c, 0, 62, 0
6, 42865, Note_on_c, 0, 67, 64
6, 42871, Note_on_c, 0, 62, 57
6, 42873, Note_on_c, 0, 57, 53
6, 42878, Note_on_c, 0, 55, 48
6, 42910, Control_c, 0, 64, 0
6, 43040, Control_c, 0, 64, 127
6, 43311, Note_on_c, 0, 55, 0
6, 43374, Note_on_c, 0, 50, 0
6, 43464, Note_on_c, 0, 67, 0
6, 43494, Note_on_c, 0, 57, 0
6, 43539, Note_on_c, 0, 62, 0
6, 43583, Note_on_c, 0, 66, 50
6, 43676, Note_on_c, 0, 66, 0
6, 43781, Control_c, 0, 64, 0
6, 43818, Note_on_c, 0, 52, 31
6, 43820, Note_on_c, 0, 62, 46
6, 43823, Note_on_c, 0, 57, 36
6, 43823, Note_on_c, 0, 66, 39
6, 43926, Control_c, 0, 64, 127
6, 44093, Note_on_c, 0, 57, 0
6, 44137, Note_on_c, 0, 62, 0
6, 44149, Note_on_c, 0, 66, 0
6, 44158, Note_on_c, 0, 52, 0
6, 44162, Note_on_c, 0, 65, 38
6, 44222, Note_on_c, 0, 65, 0
6, 44431, Note_on_c, 0, 73, 57
6, 44460, Note_on_c, 0, 52, 36
6, 44475, Control_c, 0, 64, 0
6, 44537, Control_c, 0, 64, 127
6, 44711, Note_on_c, 0, 66, 44
6, 44721, Note_on_c, 0, 62, 26
6, 44766, Note_on_c, 0, 62, 0
6, 44813, Note_on_c, 0, 66, 0
6, 44970, Note_on_c, 0, 66, 31
6, 44978, Note_on_c, 0, 62, 22
6, 45067, Note_on_c, 0, 62, 0
6, 45072, Note_on_c, 0, 66, 0
6, 45250, Note_on_c, 0, 66, 34
6, 45260, Note_on_c, 0, 62, 36
6, 45389, Note_on_c, 0, 66, 0
6, 45405, Note_on_c, 0, 62, 0
6, 45455, Note_on_c, 0, 52, 0
6, 45554, Note_on_c, 0, 66, 42
6, 45564, Note_on_c, 0, 52, 33
6, 45565, Note_on_c, 0, 62, 39
6, 45612, Note_on_c, 0, 73, 0
6, 45645, Note_on_c, 0, 66, 0
6, 45658, Note_on_c, 0, 52, 0
6, 45745, Note_on_c, 0, 62, 0
6, 45830, Note_on_c, 0, 66, 69
6, 45932, Note_on_c, 0, 66, 0
6, 46067, Note_on_c, 0, 65, 66
6, 46069, Control_c, 0, 64, 0
6, 46072, Note_on_c, 0, 61, 62
6, 46081, Note_on_c, 0, 51, 38
6, 46192, Control_c, 0, 64, 127
6, 46204, Note_on_c, 0, 65, 0
6, 46230, Note_on_c, 0, 61, 0
6, 46383, Note_on_c, 0, 72, 80
6, 46387, Note_on_c, 0, 61, 83
6, 46390, Note_on_c, 0, 65, 81
6, 46391, Note_on_c, 0, 60, 64
6, 46397, Note_on_c, 0, 68, 61
6, 46418, Control_c, 0, 64, 0
6, 46536, Control_c, 0, 64, 127
6, 47009, Note_on_c, 0, 65, 0
6, 47034, Note_on_c, 0, 68, 0
6, 47046, Note_on_c, 0, 61, 0
6, 47235, Note_on_c, 0, 61, 35
6, 47248, Note_on_c, 0, 68, 30
6, 47251, Note_on_c, 0, 58, 23
6, 47251, Note_on_c, 0, 65, 48
6, 47256, Control_c, 0, 64, 0
6, 47481, Note_on_c, 0, 61, 0
6, 47484, Control_c, 0, 64, 127
6, 47556, Note_on_c, 0, 61, 28
6, 47569, Note_on_c, 0, 65, 0
6, 47594, Note_on_c, 0, 72, 0
6, 47602, Note_on_c, 0, 68, 0
6, 47642, Note_on_c, 0, 60, 0
6, 47678, Note_on_c, 0, 61, 0
6, 47712, Note_on_c, 0, 58, 0
6, 47862, Note_on_c, 0, 65, 58
6, 47868, Note_on_c, 0, 60, 38
6, 47902, Control_c, 0, 64, 0
6, 47971, Control_c, 0, 64, 127
6, 48110, Note_on_c, 0, 65, 0
6, 48166, Note_on_c, 0, 60, 0
6, 48191, Note_on_c, 0, 64, 46
6, 48260, Note_on_c, 0, 64, 0
6, 48281, Note_on_c, 0, 51, 0
6, 48403, Control_c, 0, 64, 0
6, 48410, Note_on_c, 0, 64, 47
6, 48415, Note_on_c, 0, 50, 35
6, 48506, Control_c, 0, 64, 127
6, 48720, Note_on_c, 0, 64, 0
6, 48749, Note_on_c, 0, 63, 32
6, 48808, Note_on_c, 0, 63, 0
6, 49021, Note_on_c, 0, 70, 30
6, 49028, Control_c, 0, 64, 0
6, 49033, Note_on_c, 0, 58, 23
6, 49035, Note_on_c, 0, 60, 22
6, 49041, Note_on_c, 0, 66, 31
6, 49042, Note_on_c, 0, 64, 34
6, 49180, Control_c, 0, 64, 127
6, 49465, Note_on_c, 0, 58, 0
6, 49500, Note_on_c, 0, 60, 0
6, 49577, Note_on_c, 0, 64, 0
6, 49760, Note_on_c, 0, 50, 0
6, 49865, Note_on_c, 0, 70, 0
6, 49875, Note_on_c, 0, 66, 0
6, 49896, Note_on_c, 0, 62, 38
6, 49897, Note_on_c, 0, 50, 37
6, 50128, Note_on_c, 0, 50, 0
6, 50258, Note_on_c, 0, 62, 0
6, 50286, Note_on_c, 0, 67, 74
6, 50563, Note_on_c, 0, 50, 24
6, 50585, Note_on_c, 0, 67, 0
6, 50646, Note_on_c, 0, 50, 0
6, 50697, Control_c, 0, 64, 0
6, 50704, Note_on_c, 0, 43, 34
6, 50706, Note_on_c, 0, 67, 46
6, 50721, Note_on_c, 0, 58, 25
6, 50724, Note_on_c, 0, 62, 34
6, 50726, Note_on_c, 0, 57, 28
6, 50740, Note_on_c, 0, 50, 17
6, 50786, Control_c, 0, 64, 127
6, 50851, Note_on_c, 0, 57, 0
6, 50852, Note_on_c, 0, 43, 0
6, 50871, Note_on_c, 0, 62, 0
6, 50886, Note_on_c, 0, 50, 0
6, 50887, Note_on_c, 0, 58, 0
6, 50951, Note_on_c, 0, 67, 0
6, 51292, Note_on_c, 0, 81, 55
6, 51301, Note_on_c, 0, 69, 36
6, 51305, Note_on_c, 0, 62, 33
6, 51307, Note_on_c, 0, 58, 39
6, 51314, Note_on_c, 0, 57, 26
6, 51367, Note_on_c, 0, 69, 0
6, 51377, Note_on_c, 0, 62, 0
6, 51394, Note_on_c, 0, 57, 0
6, 51399, Note_on_c, 0, 58, 0
6, 51400, Note_on_c, 0, 81, 0
6, 51499, Note_on_c, 0, 86, 84
6, 51505, Note_on_c, 0, 74, 58
6, 51521, Note_on_c, 0, 58, 56
6, 51524, Note_on_c, 0, 62, 54
6, 51529, Note_on_c, 0, 57, 48
6, 51589, Note_on_c, 0, 74, 0
6, 51612, Note_on_c, 0, 62, 0
6, 51617, Note_on_c, 0, 86, 0
6, 51639, Note_on_c, 0, 58, 0
6, 51641, Note_on_c, 0, 57, 0
6, 51784, Note_on_c, 0, 81, 57
6, 51784, Note_on_c, 0, 93, 66
6, 51793, Note_on_c, 0, 57, 50
6, 51799, Note_on_c, 0, 58, 45
6, 51802, Note_on_c, 0, 62, 46
6, 51839, Note_on_c, 0, 62, 0
6, 51841, Note_on_c, 0, 81, 0
6, 51854, Note_on_c, 0, 93, 0
6, 51860, Note_on_c, 0, 57, 0
6, 51876, Note_on_c, 0, 58, 0
6, 52074, Note_on_c, 0, 98, 58
6, 52081, Note_on_c, 0, 62, 36
6, 52082, Note_on_c, 0, 58, 44
6, 52083, Note_on_c, 0, 86, 55
6, 52089, Note_on_c, 0, 57, 29
6, 52164, Note_on_c, 0, 98, 0
6, 52201, Note_on_c, 0, 86, 0
6, 52230, Note_on_c, 0, 62, 0
6, 52241, Note_on_c, 0, 58, 0
6, 52263, Note_on_c, 0, 57, 0
6, 52611, Note_on_c, 0, 60, 32
6, 52656, Note_on_c, 0, 60, 0
6, 52862, Note_on_c, 0, 67, 52
6, 52884, Note_on_c, 0, 56, 37
6, 52885, Note_on_c, 0, 62, 44
6, 52892, Note_on_c, 0, 60, 38
6, 52902, Note_on_c, 0, 55, 30
6, 52915, Control_c, 0, 64, 0
6, 53067, Control_c, 0, 64, 127
6, 53118, Note_on_c, 0, 43, 41
6, 53203, Note_on_c, 0, 56, 0
6, 53223, Note_on_c, 0, 60, 0
6, 53226, Note_on_c, 0, 67, 0
6, 53231, Note_on_c, 0, 55, 0
6, 53243, Note_on_c, 0, 62, 0
6, 53402, Note_on_c, 0, 43, 0
6, 53411, Note_on_c, 0, 55, 58
6, 53445, Note_on_c, 0, 55, 0
6, 53665, Note_on_c, 0, 55, 44
6, 53667, Note_on_c, 0, 67, 69
6, 53682, Note_on_c, 0, 56, 42
6, 53689, Note_on_c, 0, 60, 33
6, 53843, Note_on_c, 0, 67, 0
6, 53858, Note_on_c, 0, 68, 68
6, 53910, Note_on_c, 0, 68, 0
6, 54018, Note_on_c, 0, 72, 76
6, 54156, Note_on_c, 0, 74, 73
6, 54165, Note_on_c, 0, 72, 0
6, 54205, Note_on_c, 0, 65, 50
6, 54276, Note_on_c, 0, 74, 0
6, 54276, Note_on_c, 0, 75, 77
6, 54334, Note_on_c, 0, 75, 0
6, 54367, Note_on_c, 0, 77, 80
6, 54456, Note_on_c, 0, 79, 73
6, 54472, Note_on_c, 0, 77, 0
6, 54475, Note_on_c, 0, 65, 0
6, 54522, Note_on_c, 0, 56, 0
6, 54534, Note_on_c, 0, 80, 68
6, 54555, Note_on_c, 0, 79, 0
6, 54580, Note_on_c, 0, 60, 0
6, 54605, Note_on_c, 0, 80, 0
6, 54613, Note_on_c, 0, 82, 59
6, 54643, Note_on_c, 0, 82, 0
6, 54681, Note_on_c, 0, 84, 74
6, 54748, Note_on_c, 0, 86, 85
6, 54755, Note_on_c, 0, 84, 0
6, 54824, Note_on_c, 0, 86, 0
6, 54824, Note_on_c, 0, 87, 81
6, 54870, Note_on_c, 0, 87, 0
6, 54894, Note_on_c, 0, 89, 68
6, 54957, Note_on_c, 0, 65, 42
6, 54974, Note_on_c, 0, 60, 42
6, 54977, Note_on_c, 0, 91, 74
6, 54985, Note_on_c, 0, 56, 25
6, 55002, Note_on_c, 0, 89, 0
6, 55023, Note_on_c, 0, 92, 51
6, 55037, Note_on_c, 0, 65, 0
6, 55058, Note_on_c, 0, 60, 0
6, 55065, Note_on_c, 0, 91, 0
6, 55082, Note_on_c, 0, 55, 0
6, 55087, Note_on_c, 0, 56, 0
6, 55100, Note_on_c, 0, 92, 0
6, 55104, Note_on_c, 0, 94, 58
6, 55127, Note_on_c, 0, 94, 0
6, 55177, Note_on_c, 0, 96, 62
6, 55226, Note_on_c, 0, 96, 0
6, 55233, Note_on_c, 0, 97, 50
6, 55296, Note_on_c, 0, 97, 0
6, 55327, Note_on_c, 0, 99, 47
6, 55371, Note_on_c, 0, 100, 68
6, 55374, Note_on_c, 0, 99, 0
6, 55435, Note_on_c, 0, 62, 40
6, 55436, Control_c, 0, 64, 0
6, 55437, Note_on_c, 0, 57, 35
6, 55442, Note_on_c, 0, 100, 0
6, 55445, Note_on_c, 0, 58, 54
6, 55447, Note_on_c, 0, 101, 69
6, 55546, Control_c, 0, 64, 127
6, 55623, Note_on_c, 0, 98, 64
6, 55637, Note_on_c, 0, 101, 0
6, 55734, Note_on_c, 0, 98, 0
6, 55760, Note_on_c, 0, 93, 62
6, 55950, Note_on_c, 0, 62, 0
6, 55966, Note_on_c, 0, 58, 0
6, 55999, Note_on_c, 0, 57, 0
6, 56250, Note_on_c, 0, 93, 0
6, 56459, Note_on_c, 0, 62, 24
6, 56466, Note_on_c, 0, 58, 31
6, 56468, Note_on_c, 0, 57, 36
6, 56472, Note_on_c, 0, 55, 41
6, 56507, Control_c, 0, 64, 0
6, 56534, Control_c, 0, 64, 127
6, 56809, Note_on_c, 0, 57, 0
6, 56826, Note_on_c, 0, 62, 0
6, 56832, Note_on_c, 0, 55, 0
6, 56865, Note_on_c, 0, 58, 0
6, 57073, Note_on_c, 0, 62, 47
6, 57083, Note_on_c, 0, 58, 33
6, 57087, Note_on_c, 0, 55, 34
6, 57145, Note_on_c, 0, 62, 0
6, 57157, Note_on_c, 0, 58, 0
6, 57172, Note_on_c, 0, 55, 0
6, 57639, Control_c, 0, 64, 0
6, 57859, Note_on_c, 0, 54, 67
6, 57869, Note_on_c, 0, 65, 50
6, 57870, Note_on_c, 0, 58, 60
6, 57880, Note_on_c, 0, 62, 55
6, 57889, Note_on_c, 0, 44, 42
6, 57897, Note_on_c, 0, 65, 0
6, 57898, Note_on_c, 0, 58, 0
6, 57902, Note_on_c, 0, 54, 0
6, 57904, Note_on_c, 0, 62, 0
6, 57917, Note_on_c, 0, 44, 0
6, 58123, Note_on_c, 0, 54, 53
6, 58124, Note_on_c, 0, 65, 58
6, 58128, Note_on_c, 0, 58, 55
6, 58133, Note_on_c, 0, 62, 51
6, 58137, Note_on_c, 0, 44, 47
6, 58160, Note_on_c, 0, 62, 0
6, 58165, Note_on_c, 0, 54, 0
6, 58168, Note_on_c, 0, 65, 0
6, 58172, Note_on_c, 0, 58, 0
6, 58191, Note_on_c, 0, 44, 0
6, 58404, Note_on_c, 0, 54, 44
6, 58406, Note_on_c, 0, 44, 49
6, 58407, Note_on_c, 0, 65, 43
6, 58410, Note_on_c, 0, 58, 51
6, 58414, Note_on_c, 0, 62, 52
6, 58445, Note_on_c, 0, 65, 0
6, 58455, Note_on_c, 0, 54, 0
6, 58464, Note_on_c, 0, 58, 0
6, 58472, Note_on_c, 0, 44, 0
6, 58481, Note_on_c, 0, 62, 0
6, 58678, Note_on_c, 0, 54, 33
6, 58680, Note_on_c, 0, 44, 38
6, 58681, Note_on_c, 0, 65, 34
6, 58682, Note_on_c, 0, 58, 45
6, 58688, Note_on_c, 0, 62, 49
6, 58718, Control_c, 0, 64, 127
6, 58958, Note_on_c, 0, 54, 0
6, 58985, Note_on_c, 0, 62, 0
6, 58989, Note_on_c, 0, 58, 0
6, 59018, Note_on_c, 0, 65, 0
6, 59136, Note_on_c, 0, 44, 0
6, 59159, Note_on_c, 0, 71, 66
6, 59199, Control_c, 0, 64, 0
6, 59220, Note_on_c, 0, 71, 0
6, 59274, Note_on_c, 0, 72, 70
6, 59334, Note_on_c, 0, 72, 0
6, 59392, Note_on_c, 0, 76, 65
6, 59473, Note_on_c, 0, 76, 0
6, 59501, Note_on_c, 0, 79, 56
6, 59548, Note_on_c, 0, 79, 0
6, 59635, Note_on_c, 0, 83, 54
6, 59709, Note_on_c, 0, 83, 0
6, 59752, Note_on_c, 0, 86, 73
6, 59831, Note_on_c, 0, 86, 0
6, 59887, Note_on_c, 0, 82, 52
6, 59902, Note_on_c, 0, 60, 30
6, 59913, Note_on_c, 0, 55, 30
6, 59915, Note_on_c, 0, 64, 14
6, 59920, Note_on_c, 0, 59, 30
6, 59969, Note_on_c, 0, 82, 0
6, 59982, Note_on_c, 0, 83, 40
6, 60280, Note_on_c, 0, 83, 0
6, 60291, Note_on_c, 0, 79, 48
6, 60518, Note_on_c, 0, 79, 0
6, 60553, Note_on_c, 0, 81, 58
6, 60636, Note_on_c, 0, 81, 0
6, 60696, Note_on_c, 0, 76, 32
6, 60793, Note_on_c, 0, 55, 0
6, 60816, Note_on_c, 0, 59, 0
6, 60822, Note_on_c, 0, 60, 0
6, 60828, Note_on_c, 0, 64, 0
6, 60992, Note_on_c, 0, 76, 0
6, 61050, Note_on_c, 0, 79, 44
6, 61066, Note_on_c, 0, 60, 24
6, 61076, Note_on_c, 0, 64, 17
6, 61080, Note_on_c, 0, 55, 22
6, 61081, Note_on_c, 0, 59, 25
6, 61087, Control_c, 0, 64, 127
6, 61129, Control_c, 0, 64, 0
6, 61163, Control_c, 0, 64, 127
6, 61286, Control_c, 0, 64, 0
6, 61334, Note_on_c, 0, 71, 41
6, 61368, Note_on_c, 0, 79, 0
6, 61426, Note_on_c, 0, 55, 0
6, 61435, Note_on_c, 0, 60, 0
6, 61440, Note_on_c, 0, 59, 0
6, 61451, Note_on_c, 0, 71, 0
6, 61462, Note_on_c, 0, 64, 0
6, 61702, Note_on_c, 0, 64, 36
6, 61716, Note_on_c, 0, 60, 43
6, 61720, Note_on_c, 0, 59, 27
6, 61750, Note_on_c, 0, 64, 0
6, 61751, Note_on_c, 0, 60, 0
6, 61756, Note_on_c, 0, 59, 0
6, 61870, Control_c, 0, 64, 127
6, 61961, Note_on_c, 0, 67, 50
6, 62006, Note_on_c, 0, 67, 0
6, 62081, Note_on_c, 0, 69, 66
6, 62172, Note_on_c, 0, 69, 0
6, 62185, Control_c, 0, 64, 0
6, 62219, Note_on_c, 0, 56, 33
6, 62223, Note_on_c, 0, 71, 69
6, 62232, Note_on_c, 0, 60, 35
6, 62241, Note_on_c, 0, 64, 28
6, 62323, Note_on_c, 0, 71, 0
6, 62363, Note_on_c, 0, 68, 30
6, 62405, Note_on_c, 0, 68, 0
6, 62472, Note_on_c, 0, 71, 66
6, 62585, Note_on_c, 0, 71, 0
6, 62614, Note_on_c, 0, 68, 30
6, 62728, Control_c, 0, 64, 127
6, 62894, Note_on_c, 0, 68, 0
6, 62900, Note_on_c, 0, 60, 0
6, 62904, Note_on_c, 0, 64, 0
6, 62921, Note_on_c, 0, 56, 0
6, 63209, Note_on_c, 0, 60, 36
6, 63214, Note_on_c, 0, 64, 20
6, 63217, Control_c, 0, 64, 0
6, 63217, Note_on_c, 0, 56, 27
6, 63479, Note_on_c, 0, 69, 55
6, 63570, Note_on_c, 0, 69, 0
6, 63600, Note_on_c, 0, 70, 50
6, 63654, Note_on_c, 0, 70, 0
6, 63676, Control_c, 0, 64, 127
6, 63698, Note_on_c, 0, 64, 0
6, 63704, Note_on_c, 0, 56, 0
6, 63732, Note_on_c, 0, 71, 55
6, 63733, Note_on_c, 0, 60, 0
6, 63800, Note_on_c, 0, 71, 0
6, 63863, Note_on_c, 0, 76, 53
6, 63914, Note_on_c, 0, 76, 0
6, 63964, Note_on_c, 0, 79, 76
6, 64020, Control_c, 0, 64, 0
6, 64074, Note_on_c, 0, 79, 0
6, 64088, Note_on_c, 0, 83, 80
6, 64093, Note_on_c, 0, 64, 50
6, 64096, Note_on_c, 0, 60, 53
6, 64100, Note_on_c, 0, 56, 46
6, 64152, Note_on_c, 0, 83, 0
6, 64235, Note_on_c, 0, 86, 105
6, 64338, Note_on_c, 0, 56, 0
6, 64339, Note_on_c, 0, 60, 0
6, 64367, Note_on_c, 0, 64, 0
6, 64515, Note_on_c, 0, 64, 33
6, 64535, Note_on_c, 0, 55, 38
6, 64542, Note_on_c, 0, 60, 33
6, 64617, Note_on_c, 0, 55, 0
6, 64628, Note_on_c, 0, 60, 0
6, 64670, Note_on_c, 0, 64, 0
6, 64781, Note_on_c, 0, 64, 38
6, 64791, Note_on_c, 0, 60, 32
6, 64812, Note_on_c, 0, 64, 0
6, 64816, Note_on_c, 0, 60, 0
6, 64860, Note_on_c, 0, 86, 0
6, 64918, Note_on_c, 0, 83, 50
6, 65000, Note_on_c, 0, 83, 0
6, 65530, Note_on_c, 0, 60, 62
6, 65531, Note_on_c, 0, 64, 60
6, 65531, Note_on_c, 0, 55, 68
6, 65581, Note_on_c, 0, 55, 0
6, 65582, Note_on_c, 0, 64, 0
6, 65585, Note_on_c, 0, 60, 0
6, 65913, Note_on_c, 0, 60, 62
6, 65914, Note_on_c, 0, 64, 55
6, 65916, Note_on_c, 0, 55, 64
6, 65936, Note_on_c, 0, 60, 0
6, 65939, Note_on_c, 0, 64, 0
6, 65940, Note_on_c, 0, 55, 0
6, 66282, Note_on_c, 0, 64, 62
6, 66284, Note_on_c, 0, 55, 68
6, 66288, Note_on_c, 0, 60, 51
6, 66369, Control_c, 0, 64, 127
6, 66570, Note_on_c, 0, 64, 0
6, 66585, Note_on_c, 0, 55, 0
6, 66715, Note_on_c, 0, 60, 0
6, 66754, Control_c, 0, 64, 0
6, 66785, Note_on_c, 0, 60, 19
6, 66788, Note_on_c, 0, 54, 36
6, 66800, Note_on_c, 0, 65, 36
6, 66810, Note_on_c, 0, 74, 44
6, 66816, Note_on_c, 0, 70, 32
6, 66940, Control_c, 0, 64, 127
6, 67056, Note_on_c, 0, 65, 0
6, 67085, Note_on_c, 0, 70, 0
6, 67122, Note_on_c, 0, 74, 0
6, 67129, Note_on_c, 0, 60, 0
6, 67143, Note_on_c, 0, 54, 0
6, 67411, Note_on_c, 0, 54, 45
6, 67414, Note_on_c, 0, 86, 68
6, 67424, Note_on_c, 0, 60, 52
6, 67425, Note_on_c, 0, 64, 44
6, 67427, Control_c, 0, 64, 0
6, 67428, Note_on_c, 0, 77, 38
6, 67429, Note_on_c, 0, 82, 40
6, 67496, Control_c, 0, 64, 127
6, 67635, Note_on_c, 0, 64, 0
6, 67653, Note_on_c, 0, 54, 0
6, 67685, Note_on_c, 0, 86, 0
6, 67686, Note_on_c, 0, 60, 0
6, 67705, Note_on_c, 0, 82, 0
6, 67709, Note_on_c, 0, 77, 0
6, 67977, Control_c, 0, 64, 0
6, 67977, Note_on_c, 0, 54, 63
6, 67982, Note_on_c, 0, 60, 65
6, 67982, Note_on_c, 0, 82, 78
6, 67982, Note_on_c, 0, 89, 81
6, 67984, Note_on_c, 0, 65, 65
6, 68150, Control_c, 0, 64, 127
6, 68227, Note_on_c, 0, 89, 0
6, 68249, Note_on_c, 0, 86, 60
6, 68267, Note_on_c, 0, 77, 37
6, 68333, Note_on_c, 0, 82, 0
6, 68417, Note_on_c, 0, 60, 0
6, 68443, Note_on_c, 0, 65, 0
6, 68448, Note_on_c, 0, 77, 0
6, 68470, Note_on_c, 0, 54, 0
6, 68478, Note_on_c, 0, 86, 0
6, 68584, Note_on_c, 0, 54, 37
6, 68586, Note_on_c, 0, 65, 47
6, 68590, Note_on_c, 0, 82, 56
6, 68596, Note_on_c, 0, 89, 64
6, 68602, Note_on_c, 0, 60, 44
6, 68791, Note_on_c, 0, 82, 0
6, 68796, Note_on_c, 0, 60, 0
6, 68807, Note_on_c, 0, 89, 0
6, 68826, Note_on_c, 0, 54, 0
6, 68843, Note_on_c, 0, 65, 0
6, 68859, Note_on_c, 0, 86, 54
6, 68867, Note_on_c, 0, 77, 36
6, 68873, Note_on_c, 0, 82, 25
6, 68951, Note_on_c, 0, 86, 0
6, 68976, Note_on_c, 0, 77, 0
6, 69025, Note_on_c, 0, 82, 0
6, 69105, Control_c, 0, 64, 0
6, 69126, Note_on_c, 0, 88, 39
6, 69129, Note_on_c, 0, 55, 31
6, 69139, Note_on_c, 0, 65, 34
6, 69144, Note_on_c, 0, 77, 22
6, 69145, Note_on_c, 0, 81, 32
6, 69147, Note_on_c, 0, 57, 34
6, 69150, Note_on_c, 0, 60, 44
6, 69283, Control_c, 0, 64, 127
6, 69375, Note_on_c, 0, 88, 0
6, 69440, Note_on_c, 0, 81, 0
6, 69475, Note_on_c, 0, 77, 0
6, 69524, Note_on_c, 0, 65, 0
6, 69532, Note_on_c, 0, 60, 0
6, 69589, Note_on_c, 0, 57, 0
6, 69685, Note_on_c, 0, 65, 59
6, 69688, Note_on_c, 0, 76, 55
6, 69693, Note_on_c, 0, 69, 58
6, 69697, Note_on_c, 0, 64, 55
6, 69699, Note_on_c, 0, 55, 0
6, 69730, Control_c, 0, 64, 0
6, 69744, Note_on_c, 0, 65, 0
6, 69759, Note_on_c, 0, 69, 0
6, 69787, Note_on_c, 0, 76, 0
6, 69817, Note_on_c, 0, 64, 0
6, 69828, Note_on_c, 0, 62, 51
6, 69925, Note_on_c, 0, 62, 0
6, 69931, Note_on_c, 0, 76, 64
6, 69941, Note_on_c, 0, 69, 60
6, 69942, Note_on_c, 0, 65, 57
6, 69950, Note_on_c, 0, 64, 60
6, 69964, Note_on_c, 0, 72, 45
6, 70056, Note_on_c, 0, 65, 0
6, 70062, Note_on_c, 0, 69, 0
6, 70088, Note_on_c, 0, 72, 0
6, 70090, Note_on_c, 0, 76, 0
6, 70098, Note_on_c, 0, 64, 0
6, 70161, Note_on_c, 0, 79, 74
6, 70164, Note_on_c, 0, 72, 70
6, 70166, Note_on_c, 0, 67, 69
6, 70167, Note_on_c, 0, 69, 74
6, 70175, Note_on_c, 0, 76, 53
6, 70198, Note_on_c, 0, 67, 0
6, 70199, Note_on_c, 0, 76, 0
6, 70209, Note_on_c, 0, 69, 0
6, 70213, Note_on_c, 0, 72, 0
6, 70221, Note_on_c, 0, 79, 0
6, 70308, Note_on_c, 0, 76, 60
6, 70310, Note_on_c, 0, 64, 56
6, 70318, Note_on_c, 0, 69, 50
6, 70320, Note_on_c, 0, 65, 40
6, 70331, Note_on_c, 0, 72, 27
6, 70343, Note_on_c, 0, 64, 0
6, 70347, Note_on_c, 0, 69, 0
6, 70349, Note_on_c, 0, 65, 0
6, 70359, Note_on_c, 0, 72, 0
6, 70381, Note_on_c, 0, 76, 0
6, 70536, Note_on_c, 0, 76, 66
6, 70545, Note_on_c, 0, 65, 49
6, 70547, Note_on_c, 0, 69, 57
6, 70548, Note_on_c, 0, 72, 50
6, 70551, Note_on_c, 0, 64, 62
6, 70624, Note_on_c, 0, 65, 0
6, 70632, Note_on_c, 0, 69, 0
6, 70637, Note_on_c, 0, 72, 0
6, 70662, Note_on_c, 0, 64, 0
6, 70662, Note_on_c, 0, 76, 0
6, 70708, Note_on_c, 0, 62, 48
6, 70710, Note_on_c, 0, 65, 38
6, 70712, Note_on_c, 0, 74, 51
6, 70720, Note_on_c, 0, 69, 31
6, 70753, Control_c, 0, 64, 127
6, 70943, Note_on_c, 0, 69, 0
6, 70947, Note_on_c, 0, 65, 0
6, 71009, Note_on_c, 0, 62, 0
6, 71050, Note_on_c, 0, 65, 36
6, 71057, Note_on_c, 0, 72, 32
6, 71058, Note_on_c, 0, 69, 32
6, 71156, Note_on_c, 0, 69, 0
6, 71159, Note_on_c, 0, 72, 0
6, 71232, Note_on_c, 0, 65, 0
6, 71271, Note_on_c, 0, 74, 0
6, 71342, Note_on_c, 0, 65, 89
6, 71344, Note_on_c, 0, 68, 73
6, 71344, Note_on_c, 0, 71, 79
6, 71344, Note_on_c, 0, 76, 80
6, 71357, Note_on_c, 0, 64, 89
6, 71358, Note_on_c, 0, 74, 50
6, 71372, Control_c, 0, 64, 0
6, 71593, Note_on_c, 0, 76, 0
6, 71605, Note_on_c, 0, 74, 0
6, 71620, Note_on_c, 0, 68, 0
6, 71620, Note_on_c, 0, 65, 0
6, 71644, Note_on_c, 0, 71, 0
6, 71685, Note_on_c, 0, 68, 51
6, 71686, Note_on_c, 0, 75, 68
6, 71686, Note_on_c, 0, 63, 74
6, 71688, Note_on_c, 0, 71, 64
6, 71692, Note_on_c, 0, 65, 61
6, 71696, Note_on_c, 0, 73, 29
6, 71698, Note_on_c, 0, 64, 0
6, 71773, Note_on_c, 0, 75, 0
6, 71808, Note_on_c, 0, 65, 0
6, 71815, Note_on_c, 0, 71, 0
6, 71823, Note_on_c, 0, 63, 0
6, 71836, Note_on_c, 0, 62, 51
6, 71851, Note_on_c, 0, 65, 33
6, 71856, Note_on_c, 0, 73, 0
6, 71857, Note_on_c, 0, 71, 26
6, 71864, Note_on_c, 0, 74, 53
6, 71942, Control_c, 0, 64, 127
6, 72174, Note_on_c, 0, 71, 0
6, 72189, Note_on_c, 0, 74, 0
6, 72191, Note_on_c, 0, 68, 0
6, 72206, Note_on_c, 0, 62, 0
6, 72210, Note_on_c, 0, 65, 0
6, 72423, Note_on_c, 0, 71, 65
6, 72427, Note_on_c, 0, 59, 62
6, 72438, Note_on_c, 0, 62, 55
6, 72442, Note_on_c, 0, 68, 33
6, 72446, Note_on_c, 0, 65, 39
6, 72474, Note_on_c, 0, 65, 0
6, 72476, Note_on_c, 0, 68, 0
6, 72498, Note_on_c, 0, 71, 0
6, 72520, Control_c, 0, 64, 0
6, 72523, Note_on_c, 0, 62, 0
6, 72540, Note_on_c, 0, 59, 0
6, 72611, Note_on_c, 0, 56, 42
6, 72636, Note_on_c, 0, 59, 51
6, 72649, Note_on_c, 0, 62, 41
6, 72651, Note_on_c, 0, 68, 25
6, 72652, Note_on_c, 0, 65, 40
6, 72725, Control_c, 0, 64, 127
6, 72869, Note_on_c, 0, 56, 0
6, 72888, Note_on_c, 0, 68, 0
6, 72892, Note_on_c, 0, 65, 0
6, 72892, Note_on_c, 0, 62, 0
6, 72988, Note_on_c, 0, 59, 0
6, 73209, Note_on_c, 0, 65, 50
6, 73213, Control_c, 0, 64, 0
6, 73215, Note_on_c, 0, 56, 33
6, 73221, Note_on_c, 0, 53, 40
6, 73225, Note_on_c, 0, 62, 40
6, 73225, Note_on_c, 0, 59, 45
6, 73316, Control_c, 0, 64, 127
6, 73346, Note_on_c, 0, 62, 0
6, 73396, Note_on_c, 0, 53, 0
6, 73535, Note_on_c, 0, 56, 0
6, 73535, Note_on_c, 0, 62, 57
6, 73541, Note_on_c, 0, 59, 0
6, 73559, Note_on_c, 0, 65, 0
6, 73632, Note_on_c, 0, 56, 32
6, 73634, Note_on_c, 0, 62, 0
6, 73699, Note_on_c, 0, 56, 0
6, 73741, Note_on_c, 0, 40, 38
6, 73756, Control_c, 0, 64, 0
6, 73762, Note_on_c, 0, 66, 34
6, 73763, Note_on_c, 0, 57, 46
6, 73766, Note_on_c, 0, 52, 30
6, 73771, Note_on_c, 0, 47, 32
6, 73773, Note_on_c, 0, 62, 53
6, 73941, Control_c, 0, 64, 127
6, 73999, Note_on_c, 0, 40, 0
6, 74005, Note_on_c, 0, 47, 0
6, 74007, Note_on_c, 0, 57, 0
6, 74030, Note_on_c, 0, 62, 0
6, 74046, Note_on_c, 0, 52, 0
6, 74070, Note_on_c, 0, 66, 0
6, 74288, Note_on_c, 0, 78, 56
6, 74414, Note_on_c, 0, 78, 0
6, 74414, Note_on_c, 0, 69, 40
6, 74448, Note_on_c, 0, 69, 0
6, 74546, Note_on_c, 0, 74, 37
6, 74570, Note_on_c, 0, 64, 26
6, 74623, Note_on_c, 0, 74, 0
6, 74662, Note_on_c, 0, 78, 52
6, 74737, Note_on_c, 0, 78, 0
6, 74786, Note_on_c, 0, 79, 75
6, 74803, Note_on_c, 0, 52, 50
6, 74813, Control_c, 0, 64, 0
6, 74893, Note_on_c, 0, 79, 0
6, 74912, Note_on_c, 0, 78, 42
6, 74994, Note_on_c, 0, 78, 0
6, 75068, Note_on_c, 0, 74, 33
6, 75104, Note_on_c, 0, 74, 0
6, 75172, Note_on_c, 0, 69, 38
6, 75215, Note_on_c, 0, 69, 0
6, 75472, Control_c, 0, 64, 127
6, 75487, Note_on_c, 0, 52, 0
6, 75670, Note_on_c, 0, 52, 43
6, 75925, Note_on_c, 0, 64, 0
6, 76281, Note_on_c, 0, 62, 36
6, 76289, Control_c, 0, 64, 0
6, 76290, Note_on_c, 0, 74, 40
6, 76298, Note_on_c, 0, 68, 27
6, 76299, Note_on_c, 0, 65, 28
6, 76300, Note_on_c, 0, 70, 31
6, 76301, Note_on_c, 0, 56, 23
6, 76407, Control_c, 0, 64, 127
6, 76481, Note_on_c, 0, 74, 0
6, 76495, Note_on_c, 0, 70, 0
6, 76499, Note_on_c, 0, 68, 0
6, 76501, Note_on_c, 0, 65, 0
6, 76527, Note_on_c, 0, 62, 0
6, 76767, Note_on_c, 0, 65, 47
6, 76777, Control_c, 0, 64, 0
6, 76798, Note_on_c, 0, 65, 0
6, 76873, Note_on_c, 0, 67, 77
6, 76932, Note_on_c, 0, 67, 0
6, 76972, Note_on_c, 0, 68, 67
6, 77051, Note_on_c, 0, 68, 0
6, 77091, Note_on_c, 0, 70, 62
6, 77115, Note_on_c, 0, 71, 49
6, 77142, Note_on_c, 0, 71, 0
6, 77150, Note_on_c, 0, 70, 0
6, 77217, Note_on_c, 0, 71, 48
6, 77293, Note_on_c, 0, 71, 0
6, 77310, Note_on_c, 0, 56, 0
6, 77334, Note_on_c, 0, 73, 57
6, 77403, Note_on_c, 0, 73, 0
6, 77439, Note_on_c, 0, 74, 78
6, 77512, Note_on_c, 0, 74, 0
6, 77724, Note_on_c, 0, 75, 67
6, 77753, Note_on_c, 0, 62, 44
6, 77761, Note_on_c, 0, 56, 32
6, 77803, Note_on_c, 0, 75, 0
6, 77830, Note_on_c, 0, 76, 54
6, 77869, Control_c, 0, 64, 127
6, 77899, Note_on_c, 0, 76, 0
6, 77911, Note_on_c, 0, 52, 0
6, 77922, Note_on_c, 0, 56, 0
6, 77960, Note_on_c, 0, 77, 73
6, 77973, Note_on_c, 0, 62, 0
6, 77999, Control_c, 0, 64, 0
6, 78017, Note_on_c, 0, 77, 0
6, 78084, Note_on_c, 0, 82, 67
6, 78131, Note_on_c, 0, 82, 0
6, 78202, Note_on_c, 0, 83, 95
6, 78291, Note_on_c, 0, 83, 0
6, 78333, Note_on_c, 0, 86, 103
6, 78350, Note_on_c, 0, 59, 51
6, 78351, Note_on_c, 0, 64, 39
6, 78351, Note_on_c, 0, 60, 53
6, 78365, Note_on_c, 0, 55, 35
6, 78429, Note_on_c, 0, 86, 0
6, 78476, Note_on_c, 0, 84, 75
6, 78558, Note_on_c, 0, 84, 0
6, 78593, Note_on_c, 0, 80, 58
6, 78684, Note_on_c, 0, 80, 0
6, 78717, Note_on_c, 0, 83, 68
6, 78820, Note_on_c, 0, 83, 0
6, 78841, Note_on_c, 0, 81, 62
6, 78930, Note_on_c, 0, 81, 0
6, 78932, Note_on_c, 0, 55, 0
6, 78934, Note_on_c, 0, 59, 0
6, 78957, Note_on_c, 0, 60, 0
6, 78968, Note_on_c, 0, 76, 49
6, 78991, Note_on_c, 0, 64, 0
6, 79035, Note_on_c, 0, 76, 0
6, 79088, Note_on_c, 0, 74, 49
6, 79193, Note_on_c, 0, 74, 0
6, 79225, Note_on_c, 0, 72, 41
6, 79300, Note_on_c, 0, 72, 0
6, 79363, Note_on_c, 0, 71, 36
6, 79379, Note_on_c, 0, 60, 44
6, 79382, Note_on_c, 0, 57, 37
6, 79383, Note_on_c, 0, 59, 29
6, 79385, Note_on_c, 0, 64, 24
6, 79458, Note_on_c, 0, 71, 0
6, 79480, Note_on_c, 0, 74, 54
6, 79583, Note_on_c, 0, 74, 0
6, 79625, Note_on_c, 0, 71, 36
6, 79698, Note_on_c, 0, 71, 0
6, 79734, Note_on_c, 0, 72, 54
6, 79820, Note_on_c, 0, 72, 0
6, 79868, Control_c, 0, 64, 127
6, 79888, Note_on_c, 0, 67, 38
6, 80081, Note_on_c, 0, 67, 0
6, 80185, Note_on_c, 0, 64, 0
6, 80187, Note_on_c, 0, 57, 0
6, 80189, Note_on_c, 0, 59, 0
6, 80191, Note_on_c, 0, 60, 0
6, 80284, Note_on_c, 0, 67, 19
6, 80334, Note_on_c, 0, 67, 0
6, 80502, Note_on_c, 0, 63, 34
6, 80510, Note_on_c, 0, 67, 31
6, 80518, Note_on_c, 0, 62, 32
6, 80520, Note_on_c, 0, 57, 31
6, 80554, Control_c, 0, 64, 0
6, 80734, Note_on_c, 0, 70, 31
6, 80766, Note_on_c, 0, 70, 0
6, 80778, Note_on_c, 0, 71, 57
6, 80860, Note_on_c, 0, 71, 0
6, 80898, Note_on_c, 0, 74, 76
6, 80961, Note_on_c, 0, 74, 0
6, 81084, Note_on_c, 0, 74, 88
6, 81141, Note_on_c, 0, 74, 0
6, 81273, Note_on_c, 0, 74, 80
6, 81324, Note_on_c, 0, 74, 0
6, 81442, Note_on_c, 0, 74, 76
6, 81524, Note_on_c, 0, 73, 40
6, 81568, Note_on_c, 0, 74, 0
6, 81597, Note_on_c, 0, 72, 38
6, 81604, Note_on_c, 0, 73, 0
6, 81656, Note_on_c, 0, 57, 0
6, 81667, Note_on_c, 0, 72, 0
6, 81673, Note_on_c, 0, 71, 51
6, 81742, Note_on_c, 0, 62, 0
6, 81745, Note_on_c, 0, 67, 0
6, 81752, Note_on_c, 0, 63, 0
6, 81765, Note_on_c, 0, 71, 0
6, 82097, Note_on_c, 0, 62, 44
6, 82099, Note_on_c, 0, 63, 35
6, 82099, Note_on_c, 0, 57, 41
6, 82101, Note_on_c, 0, 67, 35
6, 82190, Control_c, 0, 64, 127
6, 82591, Note_on_c, 0, 76, 48
6, 82658, Note_on_c, 0, 76, 0
6, 82694, Note_on_c, 0, 67, 0
6, 82767, Note_on_c, 0, 62, 0
6, 82797, Note_on_c, 0, 63, 0
6, 82821, Note_on_c, 0, 57, 0
6, 82827, Note_on_c, 0, 83, 99
6, 82965, Note_on_c, 0, 83, 0
6, 83014, Control_c, 0, 64, 0
6, 83016, Note_on_c, 0, 83, 60
6, 83026, Note_on_c, 0, 64, 30
6, 83026, Note_on_c, 0, 55, 18
6, 83028, Note_on_c, 0, 59, 37
6, 83032, Note_on_c, 0, 60, 35
6, 83037, Note_on_c, 0, 71, 45
6, 83046, Note_on_c, 0, 76, 36
6, 83131, Control_c, 0, 64, 127
6, 83280, Note_on_c, 0, 71, 0
6, 83285, Note_on_c, 0, 83, 0
6, 83293, Note_on_c, 0, 55, 0
6, 83306, Note_on_c, 0, 64, 0
6, 83319, Note_on_c, 0, 76, 0
6, 83322, Note_on_c, 0, 59, 0
6, 83358, Control_c, 0, 64, 0
6, 83369, Note_on_c, 0, 81, 51
6, 83374, Note_on_c, 0, 64, 40
6, 83378, Note_on_c, 0, 55, 24
6, 83383, Note_on_c, 0, 69, 28
6, 83384, Note_on_c, 0, 59, 28
6, 83401, Note_on_c, 0, 76, 24
6, 83467, Control_c, 0, 64, 127
6, 83492, Note_on_c, 0, 69, 0
6, 83499, Note_on_c, 0, 81, 0
6, 83501, Note_on_c, 0, 55, 0
6, 83519, Note_on_c, 0, 64, 0
6, 83536, Note_on_c, 0, 59, 0
6, 83541, Note_on_c, 0, 76, 0
6, 83547, Note_on_c, 0, 60, 0
6, 83592, Control_c, 0, 64, 0
6, 83602, Note_on_c, 0, 83, 65
6, 83609, Note_on_c, 0, 71, 53
6, 83610, Note_on_c, 0, 64, 36
6, 83610, Note_on_c, 0, 60, 55
6, 83622, Note_on_c, 0, 59, 29
6, 83635, Note_on_c, 0, 71, 0
6, 83647, Note_on_c, 0, 60, 0
6, 83649, Note_on_c, 0, 59, 0
6, 83649, Note_on_c, 0, 64, 0
6, 83658, Note_on_c, 0, 83, 0
6, 83838, Note_on_c, 0, 60, 71
6, 83841, Note_on_c, 0, 59, 61
6, 83845, Note_on_c, 0, 86, 66
6, 83846, Note_on_c, 0, 64, 57
6, 83849, Note_on_c, 0, 74, 46
6, 83851, Note_on_c, 0, 84, 65
6, 83865, Note_on_c, 0, 59, 0
6, 83869, Note_on_c, 0, 86, 0
6, 83870, Note_on_c, 0, 64, 0
6, 83871, Note_on_c, 0, 60, 0
6, 83874, Note_on_c, 0, 84, 0
6, 83878, Note_on_c, 0, 74, 0
6, 84111, Note_on_c, 0, 78, 43
6, 84114, Note_on_c, 0, 71, 48
6, 84114, Note_on_c, 0, 75, 23
6, 84115, Note_on_c, 0, 83, 40
6, 84120, Note_on_c, 0, 55, 35
6, 84122, Note_on_c, 0, 60, 44
6, 84122, Note_on_c, 0, 64, 30
6, 84125, Note_on_c, 0, 59, 36
6, 84143, Note_on_c, 0, 75, 0
6, 84191, Note_on_c, 0, 78, 0
6, 84209, Control_c, 0, 64, 127
6, 84246, Note_on_c, 0, 79, 17
6, 84500, Note_on_c, 0, 64, 0
6, 84539, Note_on_c, 0, 55, 0
6, 84545, Note_on_c, 0, 59, 0
6, 84565, Note_on_c, 0, 60, 0
6, 84571, Note_on_c, 0, 71, 0
6, 84574, Note_on_c, 0, 79, 0
6, 84631, Note_on_c, 0, 83, 0
6, 84717, Note_on_c, 0, 81, 50
6, 84724, Control_c, 0, 64, 0
6, 84730, Note_on_c, 0, 60, 32
6, 84731, Note_on_c, 0, 71, 34
6, 84738, Note_on_c, 0, 55, 32
6, 84738, Note_on_c, 0, 59, 29
6, 84745, Note_on_c, 0, 64, 20
6, 84746, Note_on_c, 0, 76, 40
6, 84776, Control_c, 0, 64, 127
6, 84896, Note_on_c, 0, 81, 0
6, 84932, Note_on_c, 0, 76, 0
6, 84967, Note_on_c, 0, 71, 0
6, 84973, Note_on_c, 0, 64, 0
6, 84982, Note_on_c, 0, 59, 0
6, 84989, Note_on_c, 0, 60, 0
6, 85003, Note_on_c, 0, 55, 0
6, 85256, Control_c, 0, 64, 0
6, 85259, Note_on_c, 0, 71, 36
6, 85264, Note_on_c, 0, 68, 31
6, 85270, Note_on_c, 0, 60, 36
6, 85271, Note_on_c, 0, 54, 34
6, 85273, Note_on_c, 0, 64, 31
6, 85491, Control_c, 0, 64, 127
6, 85537, Note_on_c, 0, 76, 69
6, 85557, Note_on_c, 0, 71, 0
6, 85567, Note_on_c, 0, 74, 29
6, 85601, Note_on_c, 0, 74, 0
6, 85636, Note_on_c, 0, 60, 0
6, 85709, Note_on_c, 0, 54, 0
6, 85814, Note_on_c, 0, 64, 0
6, 85874, Note_on_c, 0, 76, 0
6, 85902, Note_on_c, 0, 68, 0
6, 86034, Note_on_c, 0, 65, 38
6, 86035, Note_on_c, 0, 74, 38
6, 86043, Note_on_c, 0, 70, 36
6, 86047, Control_c, 0, 64, 0
6, 86048, Note_on_c, 0, 60, 34
6, 86050, Note_on_c, 0, 50, 33
6, 86052, Note_on_c, 0, 54, 18
6, 86225, Control_c, 0, 64, 127
6, 86376, Note_on_c, 0, 74, 0
6, 86380, Note_on_c, 0, 60, 0
6, 86387, Note_on_c, 0, 50, 0
6, 86388, Note_on_c, 0, 70, 0
6, 86397, Note_on_c, 0, 65, 0
6, 86429, Note_on_c, 0, 54, 0
6, 86657, Note_on_c, 0, 70, 42
6, 86666, Note_on_c, 0, 62, 31
6, 86674, Note_on_c, 0, 65, 44
6, 86681, Note_on_c, 0, 54, 27
6, 86684, Control_c, 0, 64, 0
6, 86691, Note_on_c, 0, 50, 37
6, 86836, Control_c, 0, 64, 127
6, 87009, Note_on_c, 0, 65, 0
6, 87019, Note_on_c, 0, 70, 0
6, 87059, Note_on_c, 0, 62, 0
6, 87196, Note_on_c, 0, 54, 0
6, 87211, Note_on_c, 0, 50, 0
6, 87334, Note_on_c, 0, 57, 41
6, 87372, Note_on_c, 0, 57, 0
6, 87446, Note_on_c, 0, 60, 43
6, 87488, Note_on_c, 0, 60, 0
6, 87579, Note_on_c, 0, 53, 40
6, 87584, Control_c, 0, 64, 0
6, 87588, Note_on_c, 0, 64, 32
6, 87592, Note_on_c, 0, 57, 28
6, 87597, Note_on_c, 0, 60, 29
6, 87606, Note_on_c, 0, 52, 38
6, 87627, Note_on_c, 0, 57, 0
6, 87633, Note_on_c, 0, 60, 0
6, 87634, Note_on_c, 0, 53, 0
6, 87656, Note_on_c, 0, 64, 0
6, 87698, Note_on_c, 0, 52, 0
6, 87749, Note_on_c, 0, 50, 29
6, 87800, Note_on_c, 0, 50, 0
6, 87822, Note_on_c, 0, 53, 34
6, 87824, Note_on_c, 0, 64, 33
6, 87832, Note_on_c, 0, 57, 46
6, 87837, Note_on_c, 0, 60, 44
6, 87849, Note_on_c, 0, 52, 32
6, 87990, Control_c, 0, 64, 127
6, 88024, Note_on_c, 0, 53, 0
6, 88054, Note_on_c, 0, 60, 0
6, 88056, Note_on_c, 0, 57, 0
6, 88094, Note_on_c, 0, 64, 0
6, 88113, Note_on_c, 0, 52, 0
6, 88318, Note_on_c, 0, 76, 66
6, 88326, Control_c, 0, 64, 0
6, 88327, Note_on_c, 0, 64, 55
6, 88328, Note_on_c, 0, 65, 47
6, 88334, Note_on_c, 0, 69, 47
6, 88346, Note_on_c, 0, 72, 30
6, 88363, Note_on_c, 0, 65, 0
6, 88364, Note_on_c, 0, 69, 0
6, 88375, Note_on_c, 0, 72, 0
6, 88395, Note_on_c, 0, 64, 0
6, 88398, Note_on_c, 0, 76, 0
6, 88464, Note_on_c, 0, 62, 36
6, 88534, Note_on_c, 0, 62, 0
6, 88552, Note_on_c, 0, 76, 55
6, 88560, Note_on_c, 0, 69, 58
6, 88562, Note_on_c, 0, 72, 44
6, 88563, Note_on_c, 0, 65, 45
6, 88574, Note_on_c, 0, 64, 45
6, 88725, Control_c, 0, 64, 127
6, 88916, Note_on_c, 0, 69, 0
6, 88932, Note_on_c, 0, 65, 0
6, 88953, Note_on_c, 0, 64, 0
6, 89065, Note_on_c, 0, 72, 0
6, 89110, Control_c, 0, 64, 0
6, 89116, Note_on_c, 0, 65, 30
6, 89131, Note_on_c, 0, 69, 32
6, 89136, Note_on_c, 0, 64, 30
6, 89206, Control_c, 0, 64, 127
6, 89430, Note_on_c, 0, 65, 0
6, 89463, Note_on_c, 0, 76, 0
6, 89493, Note_on_c, 0, 69, 0
6, 89757, Note_on_c, 0, 64, 0
6, 89858, Control_c, 0, 64, 0
6, 90026, Note_on_c, 0, 74, 64
6, 90082, Note_on_c, 0, 74, 0
6, 90259, Note_on_c, 0, 76, 76
6, 90324, Note_on_c, 0, 76, 0
6, 90503, Note_on_c, 0, 77, 68
6, 90510, Note_on_c, 0, 65, 64
6, 90518, Note_on_c, 0, 53, 38
6, 90519, Note_on_c, 0, 59, 49
6, 90520, Note_on_c, 0, 64, 34
6, 90568, Note_on_c, 0, 65, 0
6, 90581, Note_on_c, 0, 64, 0
6, 90589, Note_on_c, 0, 59, 0
6, 90596, Note_on_c, 0, 77, 0
6, 90602, Note_on_c, 0, 53, 0
6, 90766, Note_on_c, 0, 79, 63
6, 90770, Note_on_c, 0, 67, 66
6, 90775, Note_on_c, 0, 53, 44
6, 90780, Note_on_c, 0, 64, 41
6, 90781, Note_on_c, 0, 59, 49
6, 90867, Control_c, 0, 64, 127
6, 90872, Note_on_c, 0, 79, 0
6, 90902, Note_on_c, 0, 67, 0
6, 90925, Note_on_c, 0, 53, 0
6, 90926, Note_on_c, 0, 59, 0
6, 90938, Note_on_c, 0, 64, 0
6, 91038, Control_c, 0, 64, 0
6, 91070, Note_on_c, 0, 53, 32
6, 91072, Note_on_c, 0, 59, 47
6, 91072, Note_on_c, 0, 68, 51
6, 91073, Note_on_c, 0, 80, 53
6, 91075, Note_on_c, 0, 64, 33
6, 91171, Control_c, 0, 64, 127
6, 91415, Note_on_c, 0, 68, 0
6, 91432, Note_on_c, 0, 53, 0
6, 91439, Note_on_c, 0, 80, 0
6, 91450, Note_on_c, 0, 64, 0
6, 91480, Note_on_c, 0, 59, 0
6, 91668, Note_on_c, 0, 59, 44
6, 91669, Note_on_c, 0, 82, 48
6, 91670, Note_on_c, 0, 53, 39
6, 91674, Note_on_c, 0, 70, 36
6, 91676, Note_on_c, 0, 64, 36
6, 91684, Note_on_c, 0, 75, 30
6, 91686, Control_c, 0, 64, 0
6, 91816, Control_c, 0, 64, 127
6, 91992, Note_on_c, 0, 64, 0
6, 92018, Note_on_c, 0, 53, 0
6, 92034, Note_on_c, 0, 59, 0
6, 92150, Note_on_c, 0, 75, 0
6, 92165, Note_on_c, 0, 70, 0
6, 92181, Note_on_c, 0, 82, 0
6, 92557, Note_on_c, 0, 83, 68
6, 92559, Control_c, 0, 64, 0
6, 92563, Note_on_c, 0, 71, 60
6, 92571, Note_on_c, 0, 78, 43
6, 92574, Note_on_c, 0, 76, 58
6, 92730, Control_c, 0, 64, 127
6, 92789, Note_on_c, 0, 83, 0
6, 92797, Note_on_c, 0, 76, 0
6, 92803, Note_on_c, 0, 52, 38
6, 92805, Note_on_c, 0, 78, 0
6, 92837, Note_on_c, 0, 71, 0
6, 93053, Note_on_c, 0, 71, 48
6, 93059, Control_c, 0, 64, 0
6, 93061, Note_on_c, 0, 64, 47
6, 93065, Note_on_c, 0, 66, 37
6, 93081, Note_on_c, 0, 59, 24
6, 93128, Control_c, 0, 64, 127
6, 93203, Note_on_c, 0, 59, 0
6, 93216, Note_on_c, 0, 64, 0
6, 93238, Note_on_c, 0, 52, 0
6, 93256, Note_on_c, 0, 66, 0
6, 93352, Note_on_c, 0, 48, 58
6, 93353, Note_on_c, 0, 66, 32
6, 93366, Note_on_c, 0, 59, 43
6, 93378, Note_on_c, 0, 64, 40
6, 93382, Control_c, 0, 64, 0
6, 93588, Control_c, 0, 64, 127
6, 93718, Note_on_c, 0, 64, 0
6, 93787, Note_on_c, 0, 59, 0
6, 93824, Note_on_c, 0, 66, 0
6, 93951, Note_on_c, 0, 59, 38
6, 93965, Note_on_c, 0, 64, 33
6, 93969, Note_on_c, 0, 55, 35
6, 93973, Control_c, 0, 64, 0
6, 94089, Control_c, 0, 64, 127
6, 94256, Note_on_c, 0, 64, 0
6, 94261, Note_on_c, 0, 59, 0
6, 94269, Note_on_c, 0, 48, 0
6, 94343, Note_on_c, 0, 55, 0
6, 94468, Control_c, 0, 64, 0
6, 94471, Note_on_c, 0, 48, 33
6, 94479, Note_on_c, 0, 59, 30
6, 94484, Note_on_c, 0, 55, 36
6, 94490, Note_on_c, 0, 64, 27
6, 94689, Note_on_c, 0, 71, 0
6, 94700, Note_on_c, 0, 59, 0
6, 94839, Note_on_c, 0, 64, 0
6, 94866, Note_on_c, 0, 59, 41
6, 94926, Note_on_c, 0, 59, 0
6, 95001, Note_on_c, 0, 64, 33
6, 95105, Note_on_c, 0, 64, 0
6, 95116, Note_on_c, 0, 66, 49
6, 95177, Note_on_c, 0, 66, 0
6, 95216, Control_c, 0, 64, 127
6, 95233, Note_on_c, 0, 48, 0
6, 95248, Note_on_c, 0, 55, 0
6, 95249, Note_on_c, 0, 71, 65
6, 95334, Note_on_c, 0, 71, 0
6, 95364, Note_on_c, 0, 76, 73
6, 95490, Note_on_c, 0, 78, 64
6, 95518, Note_on_c, 0, 76, 0
6, 95557, Note_on_c, 0, 78, 0
6, 95630, Note_on_c, 0, 79, 55
6, 95632, Note_on_c, 0, 63, 36
6, 95632, Note_on_c, 0, 67, 47
6, 95635, Control_c, 0, 64, 0
6, 95645, Note_on_c, 0, 62, 41
6, 95655, Note_on_c, 0, 57, 24
6, 95695, Note_on_c, 0, 79, 0
6, 95750, Note_on_c, 0, 82, 35
6, 95812, Note_on_c, 0, 82, 0
6, 95869, Note_on_c, 0, 83, 80
6, 95983, Note_on_c, 0, 83, 0
6, 96007, Note_on_c, 0, 86, 95
6, 96120, Note_on_c, 0, 86, 0
6, 96150, Control_c, 0, 64, 127
6, 96155, Note_on_c, 0, 83, 39
6, 96220, Note_on_c, 0, 83, 0
6, 96253, Note_on_c, 0, 84, 87
6, 96266, Note_on_c, 0, 67, 0
6, 96307, Note_on_c, 0, 62, 0
6, 96316, Note_on_c, 0, 57, 0
6, 96329, Note_on_c, 0, 63, 0
6, 96518, Note_on_c, 0, 84, 0
6, 96547, Note_on_c, 0, 83, 53
6, 96740, Note_on_c, 0, 83, 0
6, 96747, Control_c, 0, 64, 0
6, 96785, Note_on_c, 0, 55, 28
6, 96793, Note_on_c, 0, 83, 58
6, 96794, Note_on_c, 0, 57, 28
6, 96802, Note_on_c, 0, 60, 39
6, 96810, Note_on_c, 0, 64, 20
6, 97077, Control_c, 0, 64, 127
6, 97136, Note_on_c, 0, 83, 0
6, 97139, Note_on_c, 0, 81, 36
6, 97172, Note_on_c, 0, 60, 0
6, 97192, Note_on_c, 0, 55, 0
6, 97192, Note_on_c, 0, 57, 0
6, 97193, Note_on_c, 0, 64, 0
6, 97213, Note_on_c, 0, 81, 0
6, 97345, Control_c, 0, 64, 0
6, 97380, Note_on_c, 0, 83, 37
6, 97395, Note_on_c, 0, 71, 39
6, 97402, Note_on_c, 0, 76, 39
6, 97407, Note_on_c, 0, 79, 32
6, 97412, Note_on_c, 0, 55, 24
6, 97413, Note_on_c, 0, 64, 20
6, 97419, Note_on_c, 0, 60, 28
6, 97426, Note_on_c, 0, 57, 22
6, 97438, Note_on_c, 0, 79, 0
6, 97442, Note_on_c, 0, 76, 0
6, 97443, Note_on_c, 0, 71, 0
6, 97451, Note_on_c, 0, 83, 0
6, 97451, Note_on_c, 0, 60, 0
6, 97452, Note_on_c, 0, 64, 0
6, 97453, Note_on_c, 0, 55, 0
6, 97459, Note_on_c, 0, 57, 0
6, 97667, Note_on_c, 0, 83, 53
6, 97671, Note_on_c, 0, 71, 49
6, 97681, Note_on_c, 0, 60, 34
6, 97683, Note_on_c, 0, 57, 31
6, 97694, Note_on_c, 0, 76, 24
6, 97715, Note_on_c, 0, 60, 0
6, 97716, Note_on_c, 0, 83, 0
6, 97717, Note_on_c, 0, 71, 0
6, 97720, Note_on_c, 0, 57, 0
6, 97731, Note_on_c, 0, 76, 0
6, 97798, Note_on_c, 0, 81, 57
6, 97858, Note_on_c, 0, 81, 0
6, 97946, Note_on_c, 0, 71, 41
6, 97948, Note_on_c, 0, 83, 54
6, 97950, Note_on_c, 0, 55, 37
6, 97952, Note_on_c, 0, 57, 32
6, 97953, Note_on_c, 0, 76, 33
6, 97956, Note_on_c, 0, 64, 28
6, 97962, Note_on_c, 0, 60, 35
6, 97965, Note_on_c, 0, 79, 18
6, 98080, Control_c, 0, 64, 127
6, 98182, Control_c, 0, 64, 0
6, 98776, Note_on_c, 0, 64, 0
6, 98781, Note_on_c, 0, 57, 0
6, 98793, Note_on_c, 0, 55, 0
6, 98801, Note_on_c, 0, 60, 0
6, 98946, Note_on_c, 0, 60, 58
6, 98950, Note_on_c, 0, 59, 51
6, 98961, Note_on_c, 0, 64, 29
6, 98977, Note_on_c, 0, 59, 0
6, 98987, Note_on_c, 0, 60, 0
6, 98989, Note_on_c, 0, 64, 0
6, 99166, Note_on_c, 0, 60, 42
6, 99167, Note_on_c, 0, 59, 34
6, 99168, Note_on_c, 0, 64, 32
6, 99202, Note_on_c, 0, 59, 0
6, 99203, Note_on_c, 0, 64, 0
6, 99205, Note_on_c, 0, 60, 0
6, 99479, Note_on_c, 0, 60, 41
6, 99480, Note_on_c, 0, 64, 32
6, 99480, Note_on_c, 0, 59, 34
6, 99523, Note_on_c, 0, 71, 0
6, 99543, Note_on_c, 0, 76, 0
6, 99562, Note_on_c, 0, 79, 0
6, 99611, Note_on_c, 0, 83, 0
6, 99716, Control_c, 0, 64, 127
6, 99841, Note_on_c, 0, 81, 74
6, 99884, Note_on_c, 0, 64, 0
6, 99897, Note_on_c, 0, 59, 0
6, 99899, Note_on_c, 0, 60, 0
6, 99957, Note_on_c, 0, 81, 0
6, 100069, Note_on_c, 0, 79, 70
6, 100144, Note_on_c, 0, 79, 0
6, 100244, Control_c, 0, 64, 0
6, 100258, Note_on_c, 0, 73, 43
6, 100258, Note_on_c, 0, 78, 56
6, 100295, Note_on_c, 0, 62, 32
6, 100410, Control_c, 0, 64, 127
6, 100490, Note_on_c, 0, 82, 57
6, 100502, Note_on_c, 0, 62, 0
6, 100546, Note_on_c, 0, 78, 0
6, 100560, Note_on_c, 0, 73, 0
6, 100576, Note_on_c, 0, 82, 0
6, 100786, Note_on_c, 0, 78, 49
6, 100807, Note_on_c, 0, 70, 47
6, 100824, Note_on_c, 0, 62, 30
6, 100829, Note_on_c, 0, 73, 18
6, 100863, Note_on_c, 0, 70, 0
6, 100872, Note_on_c, 0, 73, 0
6, 100943, Note_on_c, 0, 78, 0
6, 100948, Note_on_c, 0, 62, 0
6, 101053, Note_on_c, 0, 66, 31
6, 101062, Note_on_c, 0, 73, 23
6, 101072, Note_on_c, 0, 70, 33
6, 101180, Note_on_c, 0, 70, 0
6, 101184, Note_on_c, 0, 66, 0
6, 101257, Note_on_c, 0, 73, 0
6, 101350, Control_c, 0, 64, 0
6, 101354, Note_on_c, 0, 66, 26
6, 101375, Note_on_c, 0, 62, 30
6, 101380, Note_on_c, 0, 71, 35
6, 101383, Note_on_c, 0, 74, 40
6, 101384, Note_on_c, 0, 69, 32
6, 101609, Note_on_c, 0, 50, 33
6, 101611, Control_c, 0, 64, 127
6, 101681, Note_on_c, 0, 74, 0
6, 101697, Note_on_c, 0, 69, 0
6, 101732, Note_on_c, 0, 71, 0
6, 101752, Note_on_c, 0, 66, 0
6, 101761, Note_on_c, 0, 62, 0
6, 102145, Note_on_c, 0, 71, 39
6, 102148, Control_c, 0, 64, 0
6, 102154, Note_on_c, 0, 57, 29
6, 102154, Note_on_c, 0, 66, 33
6, 102156, Note_on_c, 0, 62, 32
6, 102243, Control_c, 0, 64, 127
6, 102308, Note_on_c, 0, 57, 0
6, 102374, Note_on_c, 0, 71, 0
6, 102375, Note_on_c, 0, 66, 0
6, 102441, Note_on_c, 0, 62, 0
6, 102544, Note_on_c, 0, 50, 0
6, 102757, Note_on_c, 0, 66, 35
6, 102773, Note_on_c, 0, 50, 33
6, 102776, Note_on_c, 0, 62, 26
6, 102785, Control_c, 0, 64, 0
6, 102787, Note_on_c, 0, 59, 33
6, 102787, Note_on_c, 0, 57, 32
6, 102861, Control_c, 0, 64, 127
6, 103233, Note_on_c, 0, 57, 0
6, 103355, Note_on_c, 0, 50, 0
6, 103374, Note_on_c, 0, 59, 0
6, 103394, Note_on_c, 0, 62, 0
6, 103446, Note_on_c, 0, 66, 0
6, 103691, Note_on_c, 0, 66, 32
6, 103692, Control_c, 0, 64, 0
6, 103705, Note_on_c, 0, 57, 25
6, 103708, Note_on_c, 0, 52, 34
6, 103726, Note_on_c, 0, 62, 24
6, 103870, Control_c, 0, 64, 127
6, 104059, Note_on_c, 0, 62, 0
6, 104064, Note_on_c, 0, 57, 0
6, 104313, Note_on_c, 0, 40, 44
6, 104395, Note_on_c, 0, 40, 0
6, 104544, Note_on_c, 0, 52, 0
6, 104650, Note_on_c, 0, 66, 0
6, 104687, Note_on_c, 0, 57, 42
6, 104736, Note_on_c, 0, 57, 0
6, 104866, Control_c, 0, 64, 0
6, 104867, Note_on_c, 0, 66, 61
6, 104868, Note_on_c, 0, 52, 35
6, 104868, Note_on_c, 0, 57, 63
6, 104876, Note_on_c, 0, 62, 59
6, 104957, Note_on_c, 0, 57, 0
6, 104976, Control_c, 0, 64, 127
6, 104991, Note_on_c, 0, 62, 0
6, 105004, Note_on_c, 0, 66, 0
6, 105106, Note_on_c, 0, 73, 56
6, 105135, Note_on_c, 0, 52, 0
6, 105201, Note_on_c, 0, 73, 0
6, 105244, Control_c, 0, 64, 0
6, 105413, Note_on_c, 0, 66, 44
6, 105417, Note_on_c, 0, 62, 38
6, 105437, Note_on_c, 0, 52, 29
6, 105505, Control_c, 0, 64, 127
6, 105554, Note_on_c, 0, 66, 0
6, 105583, Note_on_c, 0, 62, 0
6, 105689, Note_on_c, 0, 62, 37
6, 105690, Note_on_c, 0, 57, 24
6, 105740, Note_on_c, 0, 57, 0
6, 105780, Note_on_c, 0, 62, 0
6, 105862, Note_on_c, 0, 40, 36
6, 105884, Note_on_c, 0, 52, 0
6, 105899, Note_on_c, 0, 40, 0
6, 106020, Control_c, 0, 64, 0
6, 106024, Note_on_c, 0, 39, 49
6, 106026, Note_on_c, 0, 61, 47
6, 106033, Note_on_c, 0, 65, 55
6, 106045, Note_on_c, 0, 51, 23
6, 106165, Control_c, 0, 64, 127
6, 106230, Note_on_c, 0, 39, 0
6, 106274, Note_on_c, 0, 72, 57
6, 106275, Note_on_c, 0, 51, 0
6, 106285, Note_on_c, 0, 61, 0
6, 106316, Note_on_c, 0, 65, 0
6, 107382, Note_on_c, 0, 65, 44
6, 107385, Note_on_c, 0, 61, 32
6, 107390, Note_on_c, 0, 60, 52
6, 107413, Control_c, 0, 64, 0
6, 107510, Control_c, 0, 64, 127
6, 107614, Note_on_c, 0, 72, 0
6, 108012, Note_on_c, 0, 65, 0
6, 108031, Note_on_c, 0, 60, 0
6, 108245, Note_on_c, 0, 61, 0
6, 108306, Note_on_c, 0, 64, 43
6, 108311, Note_on_c, 0, 60, 50
6, 108320, Control_c, 0, 64, 0
6, 108321, Note_on_c, 0, 59, 39
6, 108520, Control_c, 0, 64, 127
6, 108738, Note_on_c, 0, 59, 0
6, 108749, Note_on_c, 0, 64, 0
6, 108781, Note_on_c, 0, 60, 0
6, 108939, Note_on_c, 0, 60, 40
6, 108939, Note_on_c, 0, 64, 31
6, 108948, Note_on_c, 0, 54, 20
6, 108950, Note_on_c, 0, 59, 35
6, 108980, Control_c, 0, 64, 0
6, 109075, Control_c, 0, 64, 127
6, 109172, Note_on_c, 0, 76, 64
6, 109247, Note_on_c, 0, 59, 0
6, 109256, Note_on_c, 0, 76, 0
6, 109277, Note_on_c, 0, 75, 50
6, 109287, Note_on_c, 0, 64, 0
6, 109292, Note_on_c, 0, 60, 0
6, 109330, Note_on_c, 0, 54, 0
6, 109331, Note_on_c, 0, 75, 0
6, 109440, Control_c, 0, 64, 0
6, 109440, Note_on_c, 0, 64, 43
6, 109441, Note_on_c, 0, 70, 59
6, 109443, Note_on_c, 0, 54, 29
6, 109447, Note_on_c, 0, 60, 47
6, 109457, Note_on_c, 0, 59, 44
6, 109632, Control_c, 0, 64, 127
6, 109853, Note_on_c, 0, 59, 0
6, 109883, Note_on_c, 0, 60, 0
6, 109896, Note_on_c, 0, 64, 0
6, 109926, Note_on_c, 0, 54, 0
6, 110078, Note_on_c, 0, 70, 0
6, 110079, Note_on_c, 0, 54, 33
6, 110088, Note_on_c, 0, 64, 35
6, 110103, Note_on_c, 0, 59, 31
6, 110197, Note_on_c, 0, 64, 0
6, 110206, Note_on_c, 0, 59, 0
6, 110299, Note_on_c, 0, 54, 0
6, 110462, Note_on_c, 0, 69, 68
6, 110466, Note_on_c, 0, 81, 54
6, 110480, Note_on_c, 0, 79, 33
6, 110488, Note_on_c, 0, 69, 0
6, 110506, Note_on_c, 0, 79, 0
6, 110531, Note_on_c, 0, 81, 0
6, 110621, Control_c, 0, 64, 0
6, 110634, Note_on_c, 0, 53, 46
6, 110637, Note_on_c, 0, 58, 50
6, 110638, Note_on_c, 0, 62, 56
6, 110640, Note_on_c, 0, 57, 48
6, 110661, Note_on_c, 0, 73, 40
6, 110661, Note_on_c, 0, 86, 80
6, 110675, Note_on_c, 0, 85, 43
6, 110711, Note_on_c, 0, 74, 57
6, 110727, Note_on_c, 0, 73, 0
6, 110840, Note_on_c, 0, 85, 0
6, 110951, Control_c, 0, 64, 127
6, 111097, Note_on_c, 0, 62, 0
6, 111112, Note_on_c, 0, 53, 0
6, 111114, Note_on_c, 0, 86, 0
6, 111126, Note_on_c, 0, 57, 0
6, 111142, Note_on_c, 0, 58, 0
6, 111143, Note_on_c, 0, 74, 0
6, 111228, Note_on_c, 0, 84, 51
6, 111234, Note_on_c, 0, 58, 34
6, 111236, Note_on_c, 0, 53, 35
6, 111238, Note_on_c, 0, 62, 34
6, 111242, Note_on_c, 0, 57, 34
6, 111248, Note_on_c, 0, 72, 34
6, 111296, Note_on_c, 0, 84, 0
6, 111372, Note_on_c, 0, 72, 0
6, 111383, Note_on_c, 0, 62, 0
6, 111396, Note_on_c, 0, 58, 0
6, 111431, Control_c, 0, 64, 0
6, 111450, Note_on_c, 0, 81, 31
6, 111451, Note_on_c, 0, 62, 49
6, 111457, Note_on_c, 0, 58, 31
6, 111500, Note_on_c, 0, 57, 0
6, 111504, Note_on_c, 0, 62, 0
6, 111506, Note_on_c, 0, 81, 0
6, 111514, Note_on_c, 0, 58, 0
6, 111520, Note_on_c, 0, 53, 0
6, 111700, Note_on_c, 0, 81, 46
6, 111715, Note_on_c, 0, 69, 37
6, 111717, Note_on_c, 0, 62, 33
6, 111722, Note_on_c, 0, 53, 22
6, 111725, Note_on_c, 0, 57, 24
6, 111728, Note_on_c, 0, 58, 30
6, 111759, Note_on_c, 0, 69, 0
6, 111767, Note_on_c, 0, 57, 0
6, 111768, Note_on_c, 0, 62, 0
6, 111770, Note_on_c, 0, 58, 0
6, 111774, Note_on_c, 0, 81, 0
6, 111785, Note_on_c, 0, 53, 0
6, 111924, Note_on_c, 0, 62, 27
6, 111927, Note_on_c, 0, 81, 33
6, 111932, Note_on_c, 0, 69, 33
6, 111938, Note_on_c, 0, 53, 17
6, 111940, Note_on_c, 0, 58, 29
6, 111948, Note_on_c, 0, 57, 17
6, 111980, Control_c, 0, 64, 127
6, 112367, Note_on_c, 0, 57, 0
6, 112402, Note_on_c, 0, 62, 0
6, 112409, Note_on_c, 0, 58, 0
6, 112417, Note_on_c, 0, 53, 0
6, 112695, Note_on_c, 0, 69, 0
6, 112718, Note_on_c, 0, 81, 0
6, 112745, Note_on_c, 0, 79, 34
6, 112856, Note_on_c, 0, 79, 0
6, 112906, Note_on_c, 0, 56, 35
6, 112910, Note_on_c, 0, 55, 29
6, 112915, Control_c, 0, 64, 0
6, 112916, Note_on_c, 0, 81, 51
6, 112930, Note_on_c, 0, 65, 17
6, 112936, Note_on_c, 0, 60, 36
6, 113190, Control_c, 0, 64, 127
6, 113384, Note_on_c, 0, 65, 0
6, 113386, Note_on_c, 0, 60, 0
6, 113394, Note_on_c, 0, 56, 0
6, 113407, Note_on_c, 0, 55, 0
6, 113461, Note_on_c, 0, 81, 0
6, 113509, Note_on_c, 0, 79, 44
6, 113521, Note_on_c, 0, 56, 32
6, 113524, Note_on_c, 0, 65, 17
6, 113525, Note_on_c, 0, 60, 36
6, 113529, Note_on_c, 0, 55, 19
6, 113595, Control_c, 0, 64, 0
6, 113677, Note_on_c, 0, 79, 0
6, 113741, Note_on_c, 0, 80, 60
6, 113919, Note_on_c, 0, 80, 0
6, 113933, Note_on_c, 0, 82, 67
6, 114050, Note_on_c, 0, 82, 0
6, 114088, Note_on_c, 0, 79, 46
6, 114213, Note_on_c, 0, 79, 0
6, 114256, Note_on_c, 0, 80, 36
6, 114294, Note_on_c, 0, 79, 50
6, 114346, Note_on_c, 0, 80, 0
6, 114393, Note_on_c, 0, 79, 0
6, 114398, Note_on_c, 0, 77, 35
6, 114408, Note_on_c, 0, 56, 0
6, 114461, Note_on_c, 0, 65, 0
6, 114462, Note_on_c, 0, 60, 0
6, 114530, Note_on_c, 0, 77, 0
6, 114565, Note_on_c, 0, 55, 0
6, 114625, Note_on_c, 0, 75, 53
6, 114641, Note_on_c, 0, 55, 17
6, 114664, Note_on_c, 0, 65, 30
6, 114665, Note_on_c, 0, 60, 39
6, 114670, Note_on_c, 0, 56, 23
6, 114716, Note_on_c, 0, 75, 0
6, 114766, Note_on_c, 0, 74, 50
6, 114840, Note_on_c, 0, 74, 0
6, 114889, Note_on_c, 0, 75, 47
6, 114919, Control_c, 0, 64, 127
6, 114920, Note_on_c, 0, 65, 0
6, 114937, Note_on_c, 0, 74, 55
6, 114949, Note_on_c, 0, 60, 0
6, 114954, Note_on_c, 0, 56, 0
6, 114962, Note_on_c, 0, 55, 0
6, 114980, Note_on_c, 0, 75, 0
6, 115027, Note_on_c, 0, 74, 0
6, 115042, Note_on_c, 0, 72, 33
6, 115104, Note_on_c, 0, 72, 0
6, 115154, Note_on_c, 0, 70, 39
6, 115243, Control_c, 0, 64, 0
6, 115247, Note_on_c, 0, 70, 0
6, 115287, Note_on_c, 0, 69, 41
6, 115380, Note_on_c, 0, 69, 0
6, 115412, Note_on_c, 0, 72, 60
6, 115466, Note_on_c, 0, 62, 15
6, 115467, Note_on_c, 0, 55, 31
6, 115484, Note_on_c, 0, 53, 11
6, 115493, Note_on_c, 0, 72, 0
6, 115497, Note_on_c, 0, 58, 18
6, 115529, Note_on_c, 0, 70, 56
6, 115607, Note_on_c, 0, 70, 0
6, 115668, Note_on_c, 0, 66, 32
6, 115713, Note_on_c, 0, 66, 0
6, 115773, Note_on_c, 0, 69, 44
6, 115853, Note_on_c, 0, 69, 0
6, 115862, Note_on_c, 0, 66, 48
6, 115895, Note_on_c, 0, 62, 0
6, 115933, Note_on_c, 0, 66, 0
6, 115986, Note_on_c, 0, 67, 55
6, 116063, Note_on_c, 0, 67, 0
6, 116082, Note_on_c, 0, 62, 49
6, 116116, Note_on_c, 0, 62, 0
6, 116180, Note_on_c, 0, 58, 0
6, 116193, Note_on_c, 0, 65, 53
6, 116289, Note_on_c, 0, 65, 0
6, 116376, Note_on_c, 0, 55, 0
6, 116400, Note_on_c, 0, 53, 0
6, 116627, Note_on_c, 0, 53, 34
6, 116636, Note_on_c, 0, 58, 30
6, 116641, Note_on_c, 0, 62, 24
6, 116642, Note_on_c, 0, 55, 34
6, 116695, Note_on_c, 0, 62, 0
6, 116729, Note_on_c, 0, 55, 0
6, 116729, Note_on_c, 0, 58, 0
6, 116740, Note_on_c, 0, 53, 0
6, 116754, Note_on_c, 0, 62, 38
6, 116790, Note_on_c, 0, 62, 0
6, 116891, Note_on_c, 0, 65, 57
6, 116945, Note_on_c, 0, 65, 0
6, 117008, Note_on_c, 0, 67, 84
6, 117025, Note_on_c, 0, 62, 44
6, 117035, Note_on_c, 0, 53, 33
6, 117043, Note_on_c, 0, 58, 36
6, 117046, Note_on_c, 0, 55, 42
6, 117077, Control_c, 0, 64, 127
6, 117090, Note_on_c, 0, 62, 0
6, 117119, Note_on_c, 0, 58, 0
6, 117123, Note_on_c, 0, 55, 0
6, 117130, Note_on_c, 0, 53, 0
6, 117132, Note_on_c, 0, 67, 0
6, 117171, Note_on_c, 0, 62, 47
6, 117279, Note_on_c, 0, 62, 0
6, 117619, Control_c, 0, 64, 0
6, 117814, Note_on_c, 0, 65, 51
6, 117820, Note_on_c, 0, 54, 59
6, 117845, Note_on_c, 0, 44, 23
6, 117846, Note_on_c, 0, 62, 31
6, 117860, Note_on_c, 0, 65, 0
6, 117869, Note_on_c, 0, 54, 0
6, 117880, Note_on_c, 0, 62, 0
6, 117884, Note_on_c, 0, 44, 0
6, 118102, Note_on_c, 0, 54, 56
6, 118103, Note_on_c, 0, 44, 43
6, 118104, Note_on_c, 0, 65, 52
6, 118115, Note_on_c, 0, 62, 30
6, 118117, Note_on_c, 0, 57, 58
6, 118153, Note_on_c, 0, 57, 0
6, 118154, Note_on_c, 0, 54, 0
6, 118161, Note_on_c, 0, 44, 0
6, 118162, Note_on_c, 0, 62, 0
6, 118177, Note_on_c, 0, 65, 0
6, 118359, Note_on_c, 0, 58, 63
6, 118362, Note_on_c, 0, 65, 42
6, 118363, Note_on_c, 0, 44, 49
6, 118365, Note_on_c, 0, 54, 44
6, 118368, Note_on_c, 0, 62, 53
6, 118408, Note_on_c, 0, 54, 0
6, 118409, Note_on_c, 0, 65, 0
6, 118427, Note_on_c, 0, 58, 0
6, 118430, Note_on_c, 0, 44, 0
6, 118442, Note_on_c, 0, 62, 0
6, 118626, Note_on_c, 0, 54, 36
6, 118630, Note_on_c, 0, 58, 46
6, 118631, Note_on_c, 0, 44, 35
6, 118636, Note_on_c, 0, 65, 33
6, 118637, Note_on_c, 0, 62, 45
6, 118683, Note_on_c, 0, 65, 0
6, 118694, Note_on_c, 0, 54, 0
6, 118695, Note_on_c, 0, 44, 0
6, 118697, Note_on_c, 0, 58, 0
6, 118709, Note_on_c, 0, 62, 0
6, 118869, Note_on_c, 0, 65, 37
6, 118872, Note_on_c, 0, 54, 36
6, 118874, Note_on_c, 0, 44, 36
6, 118876, Note_on_c, 0, 58, 49
6, 118885, Note_on_c, 0, 62, 49
6, 118939, Note_on_c, 0, 65, 0
6, 118946, Note_on_c, 0, 54, 0
6, 118954, Note_on_c, 0, 58, 0
6, 118960, Note_on_c, 0, 44, 0
6, 118960, Note_on_c, 0, 62, 0
6, 119102, Control_c, 0, 64, 127
6, 119143, Note_on_c, 0, 44, 37
6, 119144, Note_on_c, 0, 65, 38
6, 119149, Note_on_c, 0, 54, 34
6, 119150, Note_on_c, 0, 58, 45
6, 119155, Note_on_c, 0, 62, 46
6, 119397, Note_on_c, 0, 44, 0
6, 119464, Note_on_c, 0, 44, 35
6, 119487, Note_on_c, 0, 54, 0
6, 119508, Note_on_c, 0, 62, 0
6, 119517, Note_on_c, 0, 58, 0
6, 119600, Note_on_c, 0, 65, 0
6, 119740, Note_on_c, 0, 44, 0
6, 119748, Control_c, 0, 64, 0
6, 119815, Note_on_c, 0, 59, 31
6, 119816, Note_on_c, 0, 64, 37
6, 119817, Note_on_c, 0, 45, 31
6, 119826, Note_on_c, 0, 60, 42
6, 119844, Control_c, 0, 64, 127
6, 119879, Note_on_c, 0, 59, 0
6, 119887, Note_on_c, 0, 45, 0
6, 119898, Note_on_c, 0, 60, 0
6, 119930, Note_on_c, 0, 64, 0
6, 120185, Note_on_c, 0, 71, 57
6, 120186, Note_on_c, 0, 83, 36
6, 120246, Note_on_c, 0, 71, 0
6, 120250, Note_on_c, 0, 83, 0
6, 120432, Note_on_c, 0, 72, 67
6, 120433, Note_on_c, 0, 84, 64
6, 120442, Note_on_c, 0, 60, 59
6, 120448, Note_on_c, 0, 59, 40
6, 120449, Note_on_c, 0, 64, 44
6, 120457, Note_on_c, 0, 72, 0
6, 120475, Note_on_c, 0, 59, 0
6, 120478, Note_on_c, 0, 64, 0
6, 120478, Note_on_c, 0, 60, 0
6, 120482, Note_on_c, 0, 84, 0
6, 120564, Note_on_c, 0, 55, 82
6, 120566, Note_on_c, 0, 64, 75
6, 120567, Note_on_c, 0, 60, 74
6, 120570, Note_on_c, 0, 76, 83
6, 120572, Note_on_c, 0, 59, 68
6, 120572, Note_on_c, 0, 88, 89
6, 120683, Note_on_c, 0, 76, 0
6, 120703, Note_on_c, 0, 55, 0
6, 120711, Note_on_c, 0, 88, 0
6, 120726, Note_on_c, 0, 64, 0
6, 120733, Note_on_c, 0, 59, 0
6, 120743, Note_on_c, 0, 60, 0
6, 120810, Note_on_c, 0, 79, 83
6, 120812, Note_on_c, 0, 91, 82
6, 120816, Note_on_c, 0, 60, 76
6, 120817, Note_on_c, 0, 64, 80
6, 120820, Note_on_c, 0, 59, 71
6, 120821, Note_on_c, 0, 55, 80
6, 120865, Note_on_c, 0, 79, 0
6, 120890, Note_on_c, 0, 91, 0
6, 120899, Note_on_c, 0, 55, 0
6, 120910, Note_on_c, 0, 64, 0
6, 120919, Note_on_c, 0, 59, 0
6, 120924, Control_c, 0, 64, 0
6, 120928, Note_on_c, 0, 60, 0
6, 120960, Note_on_c, 0, 64, 69
6, 120962, Note_on_c, 0, 95, 85
6, 120963, Note_on_c, 0, 60, 64
6, 120963, Note_on_c, 0, 55, 69
6, 120965, Note_on_c, 0, 83, 81
6, 120969, Note_on_c, 0, 59, 74
6, 121110, Note_on_c, 0, 83, 0
6, 121114, Note_on_c, 0, 95, 0
6, 121132, Note_on_c, 0, 55, 0
6, 121147, Note_on_c, 0, 64, 0
6, 121161, Note_on_c, 0, 59, 0
6, 121168, Note_on_c, 0, 60, 0
6, 121198, Note_on_c, 0, 98, 76
6, 121200, Note_on_c, 0, 64, 60
6, 121201, Note_on_c, 0, 60, 42
6, 121204, Note_on_c, 0, 86, 76
6, 121208, Note_on_c, 0, 55, 49
6, 121209, Note_on_c, 0, 59, 50
6, 121234, Note_on_c, 0, 59, 0
6, 121240, Note_on_c, 0, 55, 0
6, 121243, Note_on_c, 0, 86, 0
6, 121252, Note_on_c, 0, 98, 0
6, 121255, Note_on_c, 0, 64, 0
6, 121261, Note_on_c, 0, 60, 0
6, 121342, Note_on_c, 0, 60, 64
6, 121348, Note_on_c, 0, 95, 55
6, 121351, Note_on_c, 0, 64, 49
6, 121351, Note_on_c, 0, 59, 46
6, 121355, Note_on_c, 0, 83, 49
6, 121355, Note_on_c, 0, 55, 44
6, 121378, Note_on_c, 0, 59, 0
6, 121378, Note_on_c, 0, 64, 0
6, 121386, Note_on_c, 0, 83, 0
6, 121387, Note_on_c, 0, 55, 0
6, 121398, Note_on_c, 0, 60, 0
6, 121400, Note_on_c, 0, 95, 0
6, 121586, Note_on_c, 0, 60, 54
6, 121589, Note_on_c, 0, 98, 61
6, 121590, Note_on_c, 0, 64, 48
6, 121596, Note_on_c, 0, 59, 48
6, 121599, Note_on_c, 0, 55, 37
6, 121601, Note_on_c, 0, 86, 50
6, 121627, Note_on_c, 0, 59, 0
6, 121630, Note_on_c, 0, 98, 0
6, 121631, Note_on_c, 0, 86, 0
6, 121638, Control_c, 0, 64, 127
6, 121639, Note_on_c, 0, 64, 0
6, 121640, Note_on_c, 0, 55, 0
6, 121652, Note_on_c, 0, 60, 0
6, 121744, Note_on_c, 0, 95, 33
6, 121746, Note_on_c, 0, 64, 35
6, 121746, Note_on_c, 0, 83, 30
6, 121755, Note_on_c, 0, 60, 34
6, 121781, Note_on_c, 0, 83, 0
6, 121792, Note_on_c, 0, 64, 0
6, 121798, Note_on_c, 0, 60, 0
6, 121804, Note_on_c, 0, 95, 0
6, 121823, Control_c, 0, 64, 0
6, 121927, Control_c, 0, 64, 127
6, 121967, Note_on_c, 0, 55, 42
6, 121977, Note_on_c, 0, 98, 64
6, 121992, Note_on_c, 0, 60, 33
6, 122005, Note_on_c, 0, 86, 35
6, 122027, Note_on_c, 0, 60, 0
6, 122035, Note_on_c, 0, 86, 0
6, 122040, Note_on_c, 0, 55, 0
6, 122076, Note_on_c, 0, 98, 0
6, 122098, Control_c, 0, 64, 0
6, 122126, Note_on_c, 0, 96, 55
6, 122129, Note_on_c, 0, 56, 37
6, 122138, Note_on_c, 0, 64, 25
6, 122147, Note_on_c, 0, 60, 22
6, 122212, Note_on_c, 0, 96, 0
6, 122280, Note_on_c, 0, 95, 49
6, 122329, Note_on_c, 0, 95, 0
6, 122413, Note_on_c, 0, 93, 67
6, 122470, Note_on_c, 0, 93, 0
6, 122557, Note_on_c, 0, 92, 54
6, 122636, Note_on_c, 0, 92, 0
6, 122682, Note_on_c, 0, 95, 58
6, 122751, Note_on_c, 0, 95, 0
6, 122802, Note_on_c, 0, 88, 57
6, 122875, Note_on_c, 0, 88, 0
6, 122929, Note_on_c, 0, 86, 61
6, 123006, Note_on_c, 0, 60, 0
6, 123008, Note_on_c, 0, 56, 0
6, 123014, Note_on_c, 0, 64, 0
6, 123034, Note_on_c, 0, 86, 0
6, 123052, Note_on_c, 0, 84, 57
6, 123115, Note_on_c, 0, 84, 0
6, 123170, Note_on_c, 0, 83, 56
6, 123175, Note_on_c, 0, 64, 39
6, 123182, Note_on_c, 0, 60, 41
6, 123189, Note_on_c, 0, 56, 34
6, 123272, Note_on_c, 0, 83, 0
6, 123307, Note_on_c, 0, 86, 70
6, 123403, Note_on_c, 0, 86, 0
6, 123440, Note_on_c, 0, 84, 58
6, 123485, Note_on_c, 0, 84, 0
6, 123566, Note_on_c, 0, 83, 63
6, 123633, Note_on_c, 0, 64, 0
6, 123653, Note_on_c, 0, 83, 0
6, 123659, Note_on_c, 0, 60, 0
6, 123665, Note_on_c, 0, 56, 0
6, 123711, Note_on_c, 0, 80, 42
6, 123783, Note_on_c, 0, 80, 0
6, 123818, Note_on_c, 0, 76, 52
6, 123820, Note_on_c, 0, 64, 37
6, 123833, Note_on_c, 0, 60, 36
6, 123842, Note_on_c, 0, 56, 21
6, 123886, Note_on_c, 0, 76, 0
6, 123943, Note_on_c, 0, 74, 61
6, 124052, Note_on_c, 0, 74, 0
6, 124068, Note_on_c, 0, 72, 47
6, 124104, Control_c, 0, 64, 127
6, 124134, Note_on_c, 0, 64, 0
6, 124138, Note_on_c, 0, 60, 0
6, 124146, Note_on_c, 0, 72, 0
6, 124170, Note_on_c, 0, 56, 0
6, 124189, Note_on_c, 0, 71, 45
6, 124276, Note_on_c, 0, 71, 0
6, 124309, Note_on_c, 0, 74, 51
6, 124323, Control_c, 0, 64, 0
6, 124410, Note_on_c, 0, 74, 0
6, 124412, Note_on_c, 0, 60, 22
6, 124413, Note_on_c, 0, 64, 24
6, 124417, Note_on_c, 0, 55, 40
6, 124431, Note_on_c, 0, 71, 48
6, 124544, Note_on_c, 0, 71, 0
6, 124582, Note_on_c, 0, 72, 44
6, 124653, Note_on_c, 0, 72, 0
6, 124748, Note_on_c, 0, 70, 50
6, 124808, Note_on_c, 0, 71, 58
6, 124820, Note_on_c, 0, 70, 0
6, 124883, Note_on_c, 0, 71, 0
6, 124989, Note_on_c, 0, 69, 33
6, 125154, Control_c, 0, 64, 127
6, 125161, Note_on_c, 0, 64, 0
6, 125212, Note_on_c, 0, 69, 0
6, 125213, Note_on_c, 0, 64, 40
6, 125270, Note_on_c, 0, 64, 0
6, 125388, Note_on_c, 0, 64, 27
6, 125394, Control_c, 0, 64, 0
6, 125456, Note_on_c, 0, 64, 0
6, 125552, Note_on_c, 0, 64, 44
6, 125628, Note_on_c, 0, 64, 0
6, 125727, Note_on_c, 0, 64, 30
6, 125841, Note_on_c, 0, 64, 0
6, 125976, Note_on_c, 0, 64, 38
6, 126047, Control_c, 0, 64, 127
6, 126160, Note_on_c, 0, 60, 0
6, 126168, Note_on_c, 0, 55, 0
6, 126235, Note_on_c, 0, 55, 40
6, 126270, Note_on_c, 0, 55, 0
6, 126539, Note_on_c, 0, 64, 0
6, 126557, Note_on_c, 0, 62, 40
6, 126609, Note_on_c, 0, 62, 0
6, 126729, Note_on_c, 0, 74, 41
6, 126732, Note_on_c, 0, 65, 36
6, 126734, Control_c, 0, 64, 0
6, 126737, Note_on_c, 0, 70, 34
6, 126741, Note_on_c, 0, 54, 31
6, 126762, Note_on_c, 0, 60, 18
6, 126905, Control_c, 0, 64, 127
6, 127113, Note_on_c, 0, 65, 0
6, 127116, Note_on_c, 0, 74, 0
6, 127117, Note_on_c, 0, 70, 0
6, 127179, Note_on_c, 0, 60, 0
6, 127223, Note_on_c, 0, 54, 0
6, 127291, Note_on_c, 0, 77, 60
6, 127376, Note_on_c, 0, 77, 0
6, 127432, Note_on_c, 0, 74, 30
6, 127472, Note_on_c, 0, 74, 0
6, 127551, Control_c, 0, 64, 0
6, 127562, Note_on_c, 0, 54, 33
6, 127569, Note_on_c, 0, 77, 55
6, 127570, Note_on_c, 0, 60, 40
6, 127596, Note_on_c, 0, 70, 30
6, 127660, Control_c, 0, 64, 127
6, 127720, Note_on_c, 0, 77, 0
6, 127765, Note_on_c, 0, 70, 0
6, 127791, Note_on_c, 0, 60, 0
6, 127809, Note_on_c, 0, 54, 0
6, 127860, Control_c, 0, 64, 0
6, 127886, Note_on_c, 0, 74, 50
6, 127892, Note_on_c, 0, 54, 30
6, 127911, Note_on_c, 0, 60, 30
6, 127912, Note_on_c, 0, 65, 33
6, 127961, Note_on_c, 0, 65, 0
6, 127961, Note_on_c, 0, 60, 0
6, 127977, Note_on_c, 0, 74, 0
6, 127995, Note_on_c, 0, 54, 0
6, 128149, Note_on_c, 0, 54, 36
6, 128149, Note_on_c, 0, 74, 45
6, 128154, Note_on_c, 0, 70, 43
6, 128158, Note_on_c, 0, 65, 34
6, 128170, Note_on_c, 0, 60, 36
6, 128258, Control_c, 0, 64, 127
6, 128467, Note_on_c, 0, 60, 0
6, 128531, Note_on_c, 0, 54, 0
6, 128625, Note_on_c, 0, 70, 0
6, 128638, Note_on_c, 0, 54, 33
6, 128643, Note_on_c, 0, 60, 36
6, 128687, Note_on_c, 0, 60, 0
6, 128720, Note_on_c, 0, 65, 0
6, 128738, Note_on_c, 0, 54, 0
6, 128857, Note_on_c, 0, 70, 39
6, 128865, Note_on_c, 0, 74, 0
6, 128942, Note_on_c, 0, 70, 0
6, 129013, Control_c, 0, 64, 0
6, 129022, Note_on_c, 0, 69, 66
6, 129023, Note_on_c, 0, 65, 58
6, 129045, Note_on_c, 0, 69, 0
6, 129047, Note_on_c, 0, 65, 0
6, 129272, Note_on_c, 0, 43, 49
6, 129308, Note_on_c, 0, 43, 0
6, 129422, Note_on_c, 0, 53, 38
6, 129431, Note_on_c, 0, 57, 39
6, 129431, Note_on_c, 0, 60, 46
6, 129474, Control_c, 0, 64, 127
6, 129536, Note_on_c, 0, 60, 0
6, 129560, Note_on_c, 0, 57, 0
6, 129590, Note_on_c, 0, 53, 0
6, 129647, Note_on_c, 0, 43, 26
6, 129650, Note_on_c, 0, 53, 32
6, 129661, Note_on_c, 0, 50, 16
6, 129722, Note_on_c, 0, 53, 0
6, 129741, Control_c, 0, 64, 0
6, 129756, Note_on_c, 0, 55, 33
6, 129786, Note_on_c, 0, 55, 0
6, 129815, Note_on_c, 0, 55, 58
6, 129891, Note_on_c, 0, 57, 70
6, 129892, Note_on_c, 0, 55, 0
6, 129947, Note_on_c, 0, 57, 0
6, 129974, Note_on_c, 0, 57, 60
6, 130040, Note_on_c, 0, 57, 0
6, 130041, Note_on_c, 0, 59, 73
6, 130086, Note_on_c, 0, 59, 0
6, 130117, Note_on_c, 0, 59, 66
6, 130176, Note_on_c, 0, 59, 0
6, 130183, Note_on_c, 0, 60, 71
6, 130210, Note_on_c, 0, 60, 0
6, 130216, Note_on_c, 0, 50, 0
6, 130271, Note_on_c, 0, 60, 49
6, 130297, Note_on_c, 0, 60, 0
6, 130524, Control_c, 0, 64, 127
6, 130644, Note_on_c, 0, 43, 0
6, 130759, Note_on_c, 0, 43, 47
6, 130815, Note_on_c, 0, 43, 0
6, 130923, Control_c, 0, 64, 0
6, 130946, Note_on_c, 0, 43, 45
6, 131018, Control_c, 0, 64, 127
6, 131231, Note_on_c, 0, 55, 62
6, 131247, Note_on_c, 0, 53, 38
6, 131272, Control_c, 0, 64, 0
6, 131343, Note_on_c, 0, 55, 0
6, 131367, Note_on_c, 0, 56, 45
6, 131444, Note_on_c, 0, 56, 0
6, 131469, Note_on_c, 0, 58, 50
6, 131526, Note_on_c, 0, 58, 0
6, 131547, Note_on_c, 0, 59, 54
6, 131579, Note_on_c, 0, 43, 0
6, 131614, Note_on_c, 0, 59, 0
6, 131633, Note_on_c, 0, 61, 60
6, 131641, Note_on_c, 0, 53, 0
6, 131677, Note_on_c, 0, 61, 0
6, 131724, Note_on_c, 0, 62, 56
6, 131784, Note_on_c, 0, 62, 0
6, 131796, Note_on_c, 0, 64, 53
6, 131845, Note_on_c, 0, 64, 0
6, 131884, Note_on_c, 0, 65, 40
6, 131910, Note_on_c, 0, 65, 0
6, 131957, Note_on_c, 0, 67, 60
6, 132002, Note_on_c, 0, 67, 0
6, 132023, Note_on_c, 0, 68, 55
6, 132038, Note_on_c, 0, 59, 26
6, 132044, Note_on_c, 0, 53, 27
6, 132059, Note_on_c, 0, 64, 15
6, 132085, Note_on_c, 0, 68, 0
6, 132181, Note_on_c, 0, 64, 0
6, 132235, Note_on_c, 0, 73, 33
6, 132260, Note_on_c, 0, 73, 0
6, 132320, Note_on_c, 0, 72, 39
6, 132351, Note_on_c, 0, 72, 0
6, 132399, Note_on_c, 0, 76, 43
6, 132460, Note_on_c, 0, 76, 0
6, 132474, Note_on_c, 0, 77, 38
6, 132495, Control_c, 0, 64, 127
6, 132499, Note_on_c, 0, 53, 0
6, 132522, Note_on_c, 0, 77, 0
6, 132541, Note_on_c, 0, 59, 0
6, 132568, Note_on_c, 0, 79, 63
6, 132623, Note_on_c, 0, 79, 0
6, 132657, Note_on_c, 0, 80, 60
6, 132745, Note_on_c, 0, 80, 0
6, 132782, Note_on_c, 0, 81, 26
6, 132795, Note_on_c, 0, 59, 36
6, 132824, Note_on_c, 0, 64, 17
6, 132832, Control_c, 0, 64, 0
6, 132840, Note_on_c, 0, 53, 24
6, 132862, Note_on_c, 0, 81, 0
6, 132897, Note_on_c, 0, 82, 50
6, 132948, Control_c, 0, 64, 127
6, 132970, Note_on_c, 0, 82, 0
6, 132987, Note_on_c, 0, 83, 44
6, 133027, Note_on_c, 0, 64, 0
6, 133029, Note_on_c, 0, 59, 0
6, 133034, Note_on_c, 0, 53, 0
6, 133071, Note_on_c, 0, 83, 0
6, 133108, Note_on_c, 0, 84, 37
6, 133180, Note_on_c, 0, 86, 49
6, 133206, Note_on_c, 0, 86, 0
6, 133216, Note_on_c, 0, 84, 0
6, 133251, Control_c, 0, 64, 0
6, 133278, Note_on_c, 0, 88, 65
6, 133288, Note_on_c, 0, 52, 46
6, 133335, Note_on_c, 0, 88, 0
6, 133354, Control_c, 0, 64, 127
6, 133554, Note_on_c, 0, 52, 0
6, 133561, Note_on_c, 0, 76, 54
6, 133571, Note_on_c, 0, 65, 44
6, 133573, Note_on_c, 0, 69, 45
6, 133578, Note_on_c, 0, 71, 40
6, 133586, Note_on_c, 0, 64, 47
6, 133588, Control_c, 0, 64, 0
6, 133602, Note_on_c, 0, 65, 0
6, 133603, Note_on_c, 0, 69, 0
6, 133614, Note_on_c, 0, 71, 0
6, 133629, Note_on_c, 0, 64, 0
6, 133630, Note_on_c, 0, 76, 0
6, 133823, Note_on_c, 0, 76, 52
6, 133840, Note_on_c, 0, 69, 46
6, 133841, Note_on_c, 0, 64, 42
6, 133844, Note_on_c, 0, 71, 41
6, 133851, Note_on_c, 0, 65, 22
6, 133871, Note_on_c, 0, 69, 0
6, 133874, Note_on_c, 0, 65, 0
6, 133878, Note_on_c, 0, 71, 0
6, 133898, Note_on_c, 0, 64, 0
6, 133899, Note_on_c, 0, 76, 0
6, 133956, Note_on_c, 0, 62, 34
6, 134023, Note_on_c, 0, 62, 0
6, 134051, Note_on_c, 0, 76, 43
6, 134061, Note_on_c, 0, 65, 28
6, 134064, Note_on_c, 0, 69, 47
6, 134071, Note_on_c, 0, 71, 40
6, 134073, Note_on_c, 0, 64, 30
6, 134164, Control_c, 0, 64, 127
6, 134427, Note_on_c, 0, 52, 34
6, 134534, Note_on_c, 0, 65, 0
6, 134573, Note_on_c, 0, 69, 0
6, 134584, Note_on_c, 0, 52, 0
6, 134602, Note_on_c, 0, 64, 0
6, 134639, Note_on_c, 0, 71, 0
6, 134659, Note_on_c, 0, 76, 0
6, 135042, Note_on_c, 0, 88, 90
6, 135212, Note_on_c, 0, 77, 26
6, 135395, Note_on_c, 0, 88, 0
6, 135398, Note_on_c, 0, 77, 0
6, 135425, Note_on_c, 0, 81, 48
6, 135553, Note_on_c, 0, 81, 0
6, 135634, Control_c, 0, 64, 0
6, 135808, Note_on_c, 0, 76, 67
6, 135826, Note_on_c, 0, 64, 29
6, 135868, Note_on_c, 0, 64, 0
6, 136010, Note_on_c, 0, 65, 12
6, 136073, Control_c, 0, 64, 127
6, 136210, Note_on_c, 0, 69, 40
6, 136307, Note_on_c, 0, 76, 0
6, 136450, Note_on_c, 0, 65, 0
6, 136489, Note_on_c, 0, 69, 0
6, 136495, Note_on_c, 0, 76, 55
6, 136661, Note_on_c, 0, 76, 0
6, 136698, Note_on_c, 0, 65, 51
6, 136705, Control_c, 0, 64, 0
6, 136885, Note_on_c, 0, 65, 0
6, 136923, Note_on_c, 0, 68, 39
6, 136950, Note_on_c, 0, 62, 30
6, 136952, Note_on_c, 0, 58, 34
6, 136956, Note_on_c, 0, 52, 29
6, 137173, Note_on_c, 0, 76, 50
6, 137174, Note_on_c, 0, 68, 0
6, 137228, Note_on_c, 0, 62, 0
6, 137263, Note_on_c, 0, 58, 0
6, 137275, Control_c, 0, 64, 127
6, 137385, Control_c, 0, 64, 0
6, 137403, Note_on_c, 0, 76, 0
6, 137437, Note_on_c, 0, 62, 42
6, 137456, Note_on_c, 0, 65, 51
6, 137461, Control_c, 0, 64, 127
6, 137591, Note_on_c, 0, 52, 0
6, 137687, Note_on_c, 0, 68, 62
6, 137690, Note_on_c, 0, 65, 0
6, 137703, Note_on_c, 0, 62, 0
6, 137852, Note_on_c, 0, 68, 0
6, 137941, Control_c, 0, 64, 0
6, 137945, Note_on_c, 0, 60, 31
6, 137947, Note_on_c, 0, 64, 19
6, 137953, Note_on_c, 0, 55, 25
6, 137953, Note_on_c, 0, 76, 71
6, 137960, Note_on_c, 0, 59, 28
6, 138229, Note_on_c, 0, 67, 51
6, 138280, Note_on_c, 0, 59, 0
6, 138304, Note_on_c, 0, 64, 0
6, 138305, Note_on_c, 0, 60, 0
6, 138319, Note_on_c, 0, 76, 0
6, 138401, Control_c, 0, 64, 127
6, 138435, Note_on_c, 0, 67, 0
6, 138456, Control_c, 0, 64, 0
6, 138486, Note_on_c, 0, 60, 32
6, 138487, Note_on_c, 0, 69, 37
6, 138489, Note_on_c, 0, 64, 29
6, 138504, Note_on_c, 0, 59, 17
6, 138635, Control_c, 0, 64, 127
6, 138807, Note_on_c, 0, 55, 0
6, 138808, Note_on_c, 0, 59, 0
6, 138809, Note_on_c, 0, 64, 0
6, 138811, Note_on_c, 0, 60, 0
6, 138971, Control_c, 0, 64, 0
6, 139017, Note_on_c, 0, 60, 37
6, 139019, Note_on_c, 0, 64, 30
6, 139058, Note_on_c, 0, 64, 0
6, 139060, Note_on_c, 0, 60, 0
6, 139408, Note_on_c, 0, 64, 24
6, 139409, Note_on_c, 0, 60, 33
6, 139426, Note_on_c, 0, 59, 24
6, 139610, Control_c, 0, 64, 127
6, 139828, Note_on_c, 0, 59, 0
6, 139830, Note_on_c, 0, 64, 0
6, 139850, Note_on_c, 0, 60, 0
6, 140166, Note_on_c, 0, 64, 24
6, 140180, Note_on_c, 0, 60, 24
6, 140209, Note_on_c, 0, 60, 0
6, 140218, Note_on_c, 0, 64, 0
6, 140273, Note_on_c, 0, 69, 0
6, 140530, Control_c, 0, 64, 0
6, 140541, Note_on_c, 0, 71, 51
6, 140559, Note_on_c, 0, 64, 29
6, 140565, Note_on_c, 0, 68, 34
6, 140567, Note_on_c, 0, 63, 30
6, 140568, Note_on_c, 0, 57, 35
6, 140770, Control_c, 0, 64, 127
6, 140845, Note_on_c, 0, 64, 0
6, 140914, Note_on_c, 0, 71, 0
6, 140922, Note_on_c, 0, 63, 0
6, 140933, Note_on_c, 0, 68, 0
6, 140934, Note_on_c, 0, 57, 0
6, 141167, Note_on_c, 0, 74, 82
6, 141176, Note_on_c, 0, 63, 36
6, 141182, Note_on_c, 0, 67, 39
6, 141183, Note_on_c, 0, 57, 39
6, 141229, Note_on_c, 0, 67, 0
6, 141250, Note_on_c, 0, 57, 0
6, 141253, Note_on_c, 0, 74, 0
6, 141271, Note_on_c, 0, 63, 0
6, 141296, Note_on_c, 0, 72, 29
6, 141343, Note_on_c, 0, 72, 0
6, 141375, Control_c, 0, 64, 0
6, 141405, Note_on_c, 0, 63, 25
6, 141408, Note_on_c, 0, 74, 65
6, 141414, Note_on_c, 0, 67, 39
6, 141416, Note_on_c, 0, 62, 34
6, 141420, Note_on_c, 0, 57, 32
6, 141594, Note_on_c, 0, 67, 0
6, 141615, Note_on_c, 0, 63, 0
6, 141629, Note_on_c, 0, 57, 0
6, 141631, Note_on_c, 0, 62, 0
6, 141692, Note_on_c, 0, 74, 0
6, 141718, Note_on_c, 0, 71, 42
6, 141721, Note_on_c, 0, 63, 32
6, 141722, Note_on_c, 0, 62, 27
6, 141725, Note_on_c, 0, 57, 32
6, 141732, Note_on_c, 0, 67, 24
6, 141903, Control_c, 0, 64, 127
6, 142073, Note_on_c, 0, 67, 0
6, 142120, Note_on_c, 0, 62, 0
6, 142130, Note_on_c, 0, 57, 0
6, 142168, Note_on_c, 0, 63, 0
6, 142349, Note_on_c, 0, 63, 29
6, 142356, Note_on_c, 0, 67, 29
6, 142360, Note_on_c, 0, 62, 24
6, 142376, Note_on_c, 0, 57, 24
6, 142424, Note_on_c, 0, 71, 0
6, 142457, Note_on_c, 0, 67, 0
6, 142492, Note_on_c, 0, 62, 0
6, 142499, Note_on_c, 0, 63, 0
6, 142516, Note_on_c, 0, 57, 0
6, 142831, Control_c, 0, 64, 0
6, 143100, Note_on_c, 0, 95, 64
6, 143104, Note_on_c, 0, 83, 50
6, 143107, Note_on_c, 0, 91, 48
6, 143108, Note_on_c, 0, 88, 51
6, 143112, Note_on_c, 0, 64, 54
6, 143116, Note_on_c, 0, 60, 53
6, 143121, Note_on_c, 0, 59, 36
6, 143131, Note_on_c, 0, 95, 0
6, 143132, Note_on_c, 0, 88, 0
6, 143133, Note_on_c, 0, 83, 0
6, 143133, Note_on_c, 0, 91, 0
6, 143138, Note_on_c, 0, 64, 0
6, 143145, Note_on_c, 0, 60, 0
6, 143147, Note_on_c, 0, 59, 0
6, 143632, Note_on_c, 0, 64, 51
6, 143634, Control_c, 0, 64, 127
6, 143635, Note_on_c, 0, 55, 58
6, 143636, Note_on_c, 0, 95, 69
6, 143638, Note_on_c, 0, 83, 57
6, 143638, Note_on_c, 0, 60, 51
6, 143639, Note_on_c, 0, 91, 59
6, 143640, Note_on_c, 0, 88, 60
6, 143646, Note_on_c, 0, 59, 35
6, 143764, Note_on_c, 0, 95, 0
6, 143770, Note_on_c, 0, 83, 0
6, 143779, Note_on_c, 0, 55, 0
6, 143789, Note_on_c, 0, 91, 0
6, 143790, Note_on_c, 0, 64, 0
6, 143792, Note_on_c, 0, 59, 0
6, 143800, Note_on_c, 0, 60, 0
6, 143809, Note_on_c, 0, 88, 0
6, 143885, Note_on_c, 0, 93, 56
6, 143895, Note_on_c, 0, 81, 36
6, 143907, Note_on_c, 0, 64, 38
6, 143907, Note_on_c, 0, 60, 50
6, 143910, Note_on_c, 0, 88, 29
6, 143916, Note_on_c, 0, 59, 29
6, 143922, Note_on_c, 0, 55, 25
6, 143944, Note_on_c, 0, 55, 0
6, 143946, Note_on_c, 0, 64, 0
6, 143947, Note_on_c, 0, 59, 0
6, 143948, Note_on_c, 0, 93, 0
6, 143952, Note_on_c, 0, 81, 0
6, 143954, Note_on_c, 0, 88, 0
6, 143963, Note_on_c, 0, 60, 0
6, 144005, Control_c, 0, 64, 0
6, 144013, Note_on_c, 0, 88, 55
6, 144019, Note_on_c, 0, 83, 56
6, 144020, Note_on_c, 0, 91, 57
6, 144021, Note_on_c, 0, 95, 66
6, 144025, Note_on_c, 0, 55, 60
6, 144026, Note_on_c, 0, 60, 59
6, 144027, Note_on_c, 0, 64, 58
6, 144035, Note_on_c, 0, 59, 55
6, 144142, Control_c, 0, 64, 127
6, 144279, Note_on_c, 0, 83, 0
6, 144281, Note_on_c, 0, 88, 0
6, 144289, Note_on_c, 0, 55, 0
6, 144297, Note_on_c, 0, 64, 0
6, 144301, Note_on_c, 0, 95, 0
6, 144305, Note_on_c, 0, 91, 0
6, 144318, Note_on_c, 0, 59, 0
6, 144320, Note_on_c, 0, 60, 0
6, 144629, Control_c, 0, 64, 0
6, 144648, Note_on_c, 0, 60, 49
6, 144650, Note_on_c, 0, 98, 65
6, 144651, Note_on_c, 0, 55, 39
6, 144654, Note_on_c, 0, 64, 28
6, 144657, Note_on_c, 0, 59, 31
6, 144658, Note_on_c, 0, 86, 49
6, 144720, Control_c, 0, 64, 127
6, 144844, Note_on_c, 0, 98, 0
6, 144891, Note_on_c, 0, 64, 0
6, 144898, Note_on_c, 0, 86, 0
6, 144903, Note_on_c, 0, 59, 0
6, 144910, Note_on_c, 0, 60, 0
6, 144918, Note_on_c, 0, 55, 0
6, 145152, Control_c, 0, 64, 0
6, 145158, Note_on_c, 0, 94, 51
6, 145159, Note_on_c, 0, 82, 37
6, 145162, Note_on_c, 0, 60, 36
6, 145169, Note_on_c, 0, 54, 37
6, 145171, Note_on_c, 0, 64, 34
6, 145337, Control_c, 0, 64, 127
6, 145516, Note_on_c, 0, 64, 0
6, 145567, Note_on_c, 0, 60, 0
6, 145577, Note_on_c, 0, 54, 0
6, 145618, Note_on_c, 0, 94, 0
6, 145633, Note_on_c, 0, 82, 0
6, 145764, Note_on_c, 0, 54, 35
6, 145767, Note_on_c, 0, 93, 43
6, 145770, Control_c, 0, 64, 0
6, 145777, Note_on_c, 0, 64, 30
6, 145780, Note_on_c, 0, 60, 39
6, 145787, Note_on_c, 0, 81, 29
6, 145879, Control_c, 0, 64, 127
6, 146098, Note_on_c, 0, 64, 0
6, 146108, Note_on_c, 0, 60, 0
6, 146117, Note_on_c, 0, 93, 0
6, 146120, Note_on_c, 0, 54, 0
6, 146150, Note_on_c, 0, 81, 0
6, 146299, Control_c, 0, 64, 0
6, 146308, Note_on_c, 0, 91, 45
6, 146309, Note_on_c, 0, 79, 37
6, 146317, Note_on_c, 0, 64, 30
6, 146318, Note_on_c, 0, 54, 30
6, 146323, Note_on_c, 0, 60, 34
6, 146443, Control_c, 0, 64, 127
6, 146639, Note_on_c, 0, 91, 0
6, 146662, Note_on_c, 0, 60, 0
6, 146668, Note_on_c, 0, 64, 0
6, 146683, Note_on_c, 0, 79, 0
6, 146714, Note_on_c, 0, 54, 0
6, 146942, Note_on_c, 0, 54, 37
6, 146942, Note_on_c, 0, 87, 53
6, 146944, Control_c, 0, 64, 0
6, 146948, Note_on_c, 0, 75, 36
6, 146958, Note_on_c, 0, 64, 25
6, 146964, Note_on_c, 0, 60, 35
6, 147033, Control_c, 0, 64, 127
6, 147224, Note_on_c, 0, 87, 0
6, 147232, Note_on_c, 0, 60, 0
6, 147248, Note_on_c, 0, 54, 0
6, 147258, Note_on_c, 0, 75, 0
6, 147264, Note_on_c, 0, 64, 0
6, 147459, Control_c, 0, 64, 0
6, 147467, Note_on_c, 0, 55, 28
6, 147471, Note_on_c, 0, 86, 48
6, 147482, Note_on_c, 0, 74, 30
6, 147484, Note_on_c, 0, 60, 30
6, 147485, Note_on_c, 0, 57, 31
6, 147486, Note_on_c, 0, 65, 22
6, 147597, Control_c, 0, 64, 127
6, 147610, Note_on_c, 0, 86, 0
6, 147665, Note_on_c, 0, 60, 0
6, 147665, Note_on_c, 0, 65, 0
6, 147697, Note_on_c, 0, 74, 0
6, 147732, Note_on_c, 0, 57, 0
6, 147752, Note_on_c, 0, 55, 0
6, 148201, Control_c, 0, 64, 0
6, 148215, Note_on_c, 0, 53, 58
6, 148218, Note_on_c, 0, 64, 54
6, 148226, Note_on_c, 0, 57, 53
6, 148229, Note_on_c, 0, 52, 51
6, 148235, Note_on_c, 0, 60, 51
6, 148529, Note_on_c, 0, 53, 0
6, 148536, Note_on_c, 0, 57, 0
6, 148556, Note_on_c, 0, 52, 0
6, 148564, Note_on_c, 0, 64, 0
6, 148566, Note_on_c, 0, 60, 0
6, 148602, Note_on_c, 0, 62, 35
6, 148623, Note_on_c, 0, 53, 30
6, 148627, Note_on_c, 0, 50, 43
6, 148628, Note_on_c, 0, 57, 42
6, 148835, Note_on_c, 0, 53, 0
6, 148922, Control_c, 0, 64, 127
6, 149043, Note_on_c, 0, 57, 0
6, 149165, Note_on_c, 0, 62, 0
6, 149238, Note_on_c, 0, 57, 40
6, 149238, Note_on_c, 0, 60, 45
6, 149245, Note_on_c, 0, 64, 35
6, 149253, Note_on_c, 0, 55, 28
6, 149254, Note_on_c, 0, 50, 0
6, 149541, Note_on_c, 0, 55, 0
6, 149675, Note_on_c, 0, 60, 0
6, 149680, Note_on_c, 0, 57, 0
6, 149711, Note_on_c, 0, 64, 0
6, 149731, Note_on_c, 0, 43, 40
6, 149753, Control_c, 0, 64, 0
6, 149883, Note_on_c, 0, 55, 46
6, 149930, Note_on_c, 0, 55, 0
6, 149962, Note_on_c, 0, 56, 39
6, 150012, Note_on_c, 0, 56, 0
6, 150019, Note_on_c, 0, 58, 51
6, 150071, Note_on_c, 0, 58, 0
6, 150090, Note_on_c, 0, 59, 60
6, 150140, Note_on_c, 0, 59, 0
6, 150159, Note_on_c, 0, 61, 61
6, 150192, Note_on_c, 0, 53, 1
6, 150200, Note_on_c, 0, 61, 0
6, 150219, Note_on_c, 0, 43, 0
6, 150255, Note_on_c, 0, 62, 44
6, 150311, Note_on_c, 0, 53, 0
6, 150317, Note_on_c, 0, 62, 0
6, 150325, Note_on_c, 0, 64, 60
6, 150401, Note_on_c, 0, 64, 0
6, 150424, Note_on_c, 0, 65, 60
6, 150456, Note_on_c, 0, 65, 0
6, 150509, Note_on_c, 0, 67, 62
6, 150574, Note_on_c, 0, 67, 0
6, 150606, Note_on_c, 0, 68, 40
6, 150669, Note_on_c, 0, 68, 0
6, 150717, Note_on_c, 0, 70, 35
6, 150755, Note_on_c, 0, 70, 0
6, 150816, Note_on_c, 0, 71, 34
6, 150865, Note_on_c, 0, 71, 0
6, 151147, Note_on_c, 0, 73, 45
6, 151188, Control_c, 0, 64, 127
6, 151209, Note_on_c, 0, 59, 24
6, 151210, Note_on_c, 0, 73, 0
6, 151215, Note_on_c, 0, 64, 20
6, 151227, Note_on_c, 0, 74, 57
6, 151230, Note_on_c, 0, 53, 24
6, 151304, Note_on_c, 0, 74, 0
6, 151347, Note_on_c, 0, 75, 58
6, 151408, Control_c, 0, 64, 0
6, 151412, Note_on_c, 0, 75, 0
6, 151454, Note_on_c, 0, 76, 39
6, 151489, Note_on_c, 0, 64, 0
6, 151515, Note_on_c, 0, 59, 0
6, 151518, Control_c, 0, 64, 127
6, 151538, Note_on_c, 0, 76, 0
6, 151546, Note_on_c, 0, 77, 50
6, 151572, Note_on_c, 0, 53, 0
6, 151614, Note_on_c, 0, 77, 0
6, 151662, Note_on_c, 0, 78, 57
6, 151697, Control_c, 0, 64, 0
6, 151755, Note_on_c, 0, 78, 0
6, 151775, Note_on_c, 0, 79, 49
6, 151840, Note_on_c, 0, 79, 0
6, 151854, Control_c, 0, 64, 127
6, 151899, Note_on_c, 0, 81, 77
6, 151972, Note_on_c, 0, 81, 0
6, 151999, Control_c, 0, 64, 0
6, 152029, Note_on_c, 0, 79, 64
6, 152066, Note_on_c, 0, 48, 35
6, 152075, Note_on_c, 0, 55, 30
6, 152120, Note_on_c, 0, 79, 0
6, 152197, Note_on_c, 0, 60, 1
6, 152204, Note_on_c, 0, 78, 54
6, 152279, Note_on_c, 0, 78, 0
6, 152320, Note_on_c, 0, 79, 54
6, 152411, Note_on_c, 0, 79, 0
6, 152420, Note_on_c, 0, 78, 50
6, 152488, Note_on_c, 0, 78, 0
6, 152524, Note_on_c, 0, 74, 51
6, 152589, Note_on_c, 0, 74, 0
6, 152634, Note_on_c, 0, 69, 45
6, 152684, Note_on_c, 0, 69, 0
6, 152708, Note_on_c, 0, 60, 0
6, 152736, Note_on_c, 0, 66, 46
6, 152825, Note_on_c, 0, 55, 0
6, 152826, Note_on_c, 0, 48, 0
6, 152827, Note_on_c, 0, 66, 0
6, 152849, Note_on_c, 0, 62, 39
6, 152897, Note_on_c, 0, 62, 0
6, 152898, Control_c, 0, 64, 127
6, 152940, Control_c, 0, 64, 0
6, 152965, Note_on_c, 0, 64, 32
6, 152992, Note_on_c, 0, 48, 38
6, 153001, Note_on_c, 0, 55, 24
6, 153221, Control_c, 0, 64, 127
6, 153287, Note_on_c, 0, 55, 0
6, 153430, Note_on_c, 0, 64, 0
6, 153613, Control_c, 0, 64, 0
6, 153614, Note_on_c, 0, 55, 30
6, 153616, Note_on_c, 0, 59, 34
6, 153621, Note_on_c, 0, 64, 33
6, 153811, Control_c, 0, 64, 127
6, 153999, Note_on_c, 0, 48, 0
6, 154167, Note_on_c, 0, 59, 0
6, 154220, Note_on_c, 0, 64, 0
6, 154263, Note_on_c, 0, 55, 0
6, 154403, Control_c, 0, 64, 0
6, 154418, Note_on_c, 0, 48, 28
6, 154419, Note_on_c, 0, 59, 28
6, 154428, Note_on_c, 0, 64, 24
6, 154435, Note_on_c, 0, 55, 25
6, 154532, Control_c, 0, 64, 127
6, 154685, Note_on_c, 0, 59, 0
6, 154739, Note_on_c, 0, 48, 0
6, 154741, Note_on_c, 0, 55, 0
6, 154774, Note_on_c, 0, 64, 0
6, 155316, Note_on_c, 0, 78, 68
6, 155330, Note_on_c, 0, 74, 62
6, 155330, Note_on_c, 0, 69, 64
6, 155366, Note_on_c, 0, 69, 0
6, 155396, Note_on_c, 0, 74, 0
6, 155415, Note_on_c, 0, 78, 0
6, 155439, Note_on_c, 0, 79, 70
6, 155522, Note_on_c, 0, 79, 0
6, 155535, Control_c, 0, 64, 0
6, 155572, Note_on_c, 0, 78, 63
6, 155579, Note_on_c, 0, 74, 68
6, 155586, Note_on_c, 0, 69, 68
6, 155666, Control_c, 0, 64, 127
6, 155680, Note_on_c, 0, 74, 0
6, 155693, Note_on_c, 0, 78, 0
6, 155719, Note_on_c, 0, 69, 0
6, 155771, Note_on_c, 0, 73, 27
6, 155840, Note_on_c, 0, 73, 0
6, 155899, Control_c, 0, 64, 0
6, 155904, Note_on_c, 0, 71, 58
6, 155912, Note_on_c, 0, 63, 52
6, 155917, Note_on_c, 0, 67, 60
6, 155936, Note_on_c, 0, 62, 41
6, 155983, Note_on_c, 0, 62, 0
6, 156000, Note_on_c, 0, 63, 0
6, 156017, Note_on_c, 0, 67, 0
6, 156035, Note_on_c, 0, 71, 0
6, 156050, Note_on_c, 0, 74, 64
6, 156060, Note_on_c, 0, 63, 30
6, 156064, Control_c, 0, 64, 127
6, 156083, Note_on_c, 0, 67, 20
6, 156113, Control_c, 0, 64, 0
6, 156121, Note_on_c, 0, 67, 0
6, 156130, Note_on_c, 0, 63, 0
6, 156143, Note_on_c, 0, 74, 0
6, 156183, Note_on_c, 0, 63, 48
6, 156186, Note_on_c, 0, 71, 56
6, 156200, Note_on_c, 0, 67, 57
6, 156206, Note_on_c, 0, 62, 36
6, 156249, Control_c, 0, 64, 127
6, 156252, Note_on_c, 0, 62, 0
6, 156355, Note_on_c, 0, 67, 0
6, 156391, Note_on_c, 0, 63, 0
6, 156442, Note_on_c, 0, 67, 49
6, 156481, Note_on_c, 0, 71, 0
6, 156524, Note_on_c, 0, 67, 0
6, 156545, Note_on_c, 0, 63, 45
6, 156595, Note_on_c, 0, 63, 0
6, 156698, Note_on_c, 0, 67, 35
6, 156707, Note_on_c, 0, 60, 38
6, 156710, Control_c, 0, 64, 0
6, 156711, Note_on_c, 0, 59, 34
6, 156721, Note_on_c, 0, 64, 32
6, 156726, Note_on_c, 0, 50, 24
6, 157135, Control_c, 0, 64, 127
6, 157209, Note_on_c, 0, 60, 0
6, 157240, Note_on_c, 0, 64, 0
6, 157268, Note_on_c, 0, 67, 0
6, 157318, Note_on_c, 0, 59, 0
6, 157336, Note_on_c, 0, 69, 42
6, 157347, Note_on_c, 0, 57, 33
6, 157390, Note_on_c, 0, 69, 0
6, 157444, Control_c, 0, 64, 0
6, 157447, Note_on_c, 0, 57, 0
6, 157475, Note_on_c, 0, 69, 57
6, 157506, Note_on_c, 0, 59, 31
6, 157548, Note_on_c, 0, 59, 0
6, 157553, Note_on_c, 0, 69, 0
6, 157713, Note_on_c, 0, 62, 51
6, 157716, Note_on_c, 0, 74, 74
6, 157738, Note_on_c, 0, 62, 0
6, 157773, Note_on_c, 0, 74, 0
6, 157867, Note_on_c, 0, 71, 52
6, 157869, Note_on_c, 0, 67, 48
6, 157871, Note_on_c, 0, 64, 39
6, 157879, Note_on_c, 0, 59, 46
6, 157882, Note_on_c, 0, 60, 33
6, 157919, Note_on_c, 0, 60, 0
6, 157938, Note_on_c, 0, 59, 0
6, 157967, Note_on_c, 0, 64, 0
6, 157973, Note_on_c, 0, 67, 0
6, 158001, Note_on_c, 0, 71, 0
6, 158089, Note_on_c, 0, 69, 50
6, 158130, Note_on_c, 0, 57, 30
6, 158143, Note_on_c, 0, 69, 0
6, 158179, Note_on_c, 0, 57, 0
6, 158224, Note_on_c, 0, 71, 58
6, 158247, Note_on_c, 0, 67, 30
6, 158253, Note_on_c, 0, 64, 25
6, 158284, Note_on_c, 0, 64, 0
6, 158289, Note_on_c, 0, 67, 0
6, 158309, Note_on_c, 0, 71, 0
6, 158460, Note_on_c, 0, 71, 56
6, 158469, Note_on_c, 0, 59, 40
6, 158470, Note_on_c, 0, 67, 46
6, 158482, Note_on_c, 0, 64, 35
6, 158504, Note_on_c, 0, 59, 0
6, 158513, Note_on_c, 0, 64, 0
6, 158532, Note_on_c, 0, 71, 0
6, 158535, Note_on_c, 0, 67, 0
6, 158609, Note_on_c, 0, 71, 54
6, 158618, Note_on_c, 0, 59, 37
6, 158622, Note_on_c, 0, 67, 34
6, 158635, Note_on_c, 0, 60, 24
6, 158635, Note_on_c, 0, 64, 33
6, 158668, Note_on_c, 0, 60, 0
6, 158672, Note_on_c, 0, 64, 0
6, 158673, Note_on_c, 0, 59, 0
6, 158676, Note_on_c, 0, 67, 0
6, 158687, Note_on_c, 0, 71, 0
6, 158748, Note_on_c, 0, 69, 38
6, 158772, Note_on_c, 0, 57, 22
6, 158804, Note_on_c, 0, 69, 0
6, 158828, Note_on_c, 0, 57, 0
6, 158856, Note_on_c, 0, 71, 60
6, 158869, Note_on_c, 0, 67, 49
6, 158873, Note_on_c, 0, 59, 43
6, 158876, Note_on_c, 0, 64, 43
6, 158876, Note_on_c, 0, 60, 32
6, 159003, Control_c, 0, 64, 127
6, 159085, Note_on_c, 0, 50, 0
6, 159226, Note_on_c, 0, 60, 0
6, 159239, Note_on_c, 0, 64, 0
6, 159284, Note_on_c, 0, 67, 0
6, 159360, Note_on_c, 0, 71, 0
6, 159367, Control_c, 0, 64, 0
6, 159370, Note_on_c, 0, 59, 0
6, 159386, Note_on_c, 0, 69, 48
6, 159400, Note_on_c, 0, 50, 45
6, 159400, Note_on_c, 0, 60, 29
6, 159415, Note_on_c, 0, 64, 25
6, 159423, Note_on_c, 0, 67, 17
6, 159457, Control_c, 0, 64, 127
6, 159516, Note_on_c, 0, 60, 0
6, 159533, Note_on_c, 0, 64, 0
6, 159546, Note_on_c, 0, 67, 0
6, 159569, Note_on_c, 0, 69, 0
6, 159766, Note_on_c, 0, 73, 59
6, 159776, Note_on_c, 0, 66, 74
6, 159793, Control_c, 0, 64, 0
6, 159861, Control_c, 0, 64, 127
6, 159984, Note_on_c, 0, 66, 0
6, 160020, Note_on_c, 0, 73, 0
6, 160037, Note_on_c, 0, 70, 48
6, 160038, Note_on_c, 0, 61, 51
6, 160041, Note_on_c, 0, 66, 36
6, 160047, Control_c, 0, 64, 0
6, 160055, Note_on_c, 0, 62, 46
6, 160205, Control_c, 0, 64, 127
6, 160272, Note_on_c, 0, 50, 0
6, 160499, Note_on_c, 0, 62, 0
6, 160514, Note_on_c, 0, 61, 0
6, 160530, Note_on_c, 0, 50, 43
6, 160606, Note_on_c, 0, 66, 0
6, 160634, Note_on_c, 0, 70, 0
6, 160794, Note_on_c, 0, 74, 80
6, 160816, Control_c, 0, 64, 0
6, 160837, Control_c, 0, 64, 127
6, 160952, Note_on_c, 0, 74, 0
6, 160974, Control_c, 0, 64, 0
6, 160988, Note_on_c, 0, 66, 59
6, 161000, Note_on_c, 0, 71, 55
6, 161013, Note_on_c, 0, 62, 36
6, 161027, Note_on_c, 0, 59, 39
6, 161111, Control_c, 0, 64, 127
6, 161211, Note_on_c, 0, 62, 0
6, 161213, Note_on_c, 0, 50, 0
6, 161277, Note_on_c, 0, 66, 0
6, 161303, Note_on_c, 0, 50, 42
6, 161307, Note_on_c, 0, 71, 0
6, 161444, Note_on_c, 0, 59, 0
6, 161534, Note_on_c, 0, 78, 68
6, 161538, Note_on_c, 0, 71, 75
6, 161551, Control_c, 0, 64, 0
6, 161555, Note_on_c, 0, 62, 51
6, 161568, Note_on_c, 0, 59, 36
6, 161668, Control_c, 0, 64, 127
6, 161691, Note_on_c, 0, 78, 0
6, 161697, Note_on_c, 0, 71, 0
6, 161725, Note_on_c, 0, 74, 50
6, 161740, Note_on_c, 0, 69, 44
6, 161788, Note_on_c, 0, 62, 0
6, 161863, Note_on_c, 0, 50, 0
6, 161910, Note_on_c, 0, 74, 0
6, 162019, Note_on_c, 0, 69, 0
6, 162039, Note_on_c, 0, 50, 45
6, 162193, Note_on_c, 0, 59, 0
6, 162302, Note_on_c, 0, 74, 62
6, 162309, Note_on_c, 0, 66, 46
6, 162313, Note_on_c, 0, 62, 48
6, 162314, Control_c, 0, 64, 0
6, 162327, Note_on_c, 0, 59, 35
6, 162394, Note_on_c, 0, 62, 0
6, 162429, Control_c, 0, 64, 127
6, 162441, Note_on_c, 0, 66, 0
6, 162451, Note_on_c, 0, 74, 0
6, 162495, Note_on_c, 0, 71, 25
6, 162520, Note_on_c, 0, 66, 33
6, 162521, Note_on_c, 0, 62, 40
6, 162678, Note_on_c, 0, 50, 0
6, 162826, Note_on_c, 0, 50, 39
6, 162893, Note_on_c, 0, 66, 0
6, 162917, Note_on_c, 0, 62, 0
6, 162945, Note_on_c, 0, 50, 0
6, 163120, Note_on_c, 0, 59, 0
6, 163244, Note_on_c, 0, 68, 42
6, 163246, Note_on_c, 0, 52, 45
6, 163247, Note_on_c, 0, 62, 48
6, 163259, Note_on_c, 0, 71, 0
6, 163268, Control_c, 0, 64, 0
6, 163272, Note_on_c, 0, 65, 37
6, 163446, Control_c, 0, 64, 127
6, 163992, Note_on_c, 0, 62, 0
6, 164012, Note_on_c, 0, 65, 0
6, 164044, Note_on_c, 0, 68, 0
6, 164379, Note_on_c, 0, 71, 36
6, 164386, Note_on_c, 0, 68, 29
6, 164392, Note_on_c, 0, 65, 39
6, 164394, Note_on_c, 0, 62, 36
6, 164459, Note_on_c, 0, 65, 0
6, 164461, Note_on_c, 0, 62, 0
6, 164475, Note_on_c, 0, 52, 0
6, 164492, Note_on_c, 0, 68, 0
6, 164504, Note_on_c, 0, 71, 0
6, 164984, Control_c, 0, 64, 0
6, 164997, Note_on_c, 0, 56, 52
6, 165004, Note_on_c, 0, 67, 60
6, 165011, Note_on_c, 0, 83, 69
6, 165015, Note_on_c, 0, 71, 71
6, 165016, Note_on_c, 0, 62, 39
6, 165043, Note_on_c, 0, 67, 0
6, 165055, Note_on_c, 0, 62, 0
6, 165064, Note_on_c, 0, 71, 0
6, 165081, Control_c, 0, 64, 127
6, 165082, Note_on_c, 0, 56, 0
6, 165095, Note_on_c, 0, 83, 0
6, 165268, Note_on_c, 0, 56, 47
6, 165274, Note_on_c, 0, 88, 71
6, 165281, Note_on_c, 0, 76, 59
6, 165286, Note_on_c, 0, 67, 54
6, 165289, Note_on_c, 0, 62, 49
6, 165323, Note_on_c, 0, 67, 0
6, 165349, Note_on_c, 0, 76, 0
6, 165382, Note_on_c, 0, 88, 0
6, 165384, Note_on_c, 0, 62, 0
6, 165398, Note_on_c, 0, 56, 0
6, 165533, Note_on_c, 0, 79, 57
6, 165538, Note_on_c, 0, 56, 56
6, 165538, Note_on_c, 0, 91, 51
6, 165541, Note_on_c, 0, 93, 55
6, 165546, Note_on_c, 0, 62, 52
6, 165549, Note_on_c, 0, 67, 40
6, 165587, Note_on_c, 0, 67, 0
6, 165588, Note_on_c, 0, 79, 0
6, 165596, Note_on_c, 0, 93, 0
6, 165607, Note_on_c, 0, 91, 0
6, 165619, Note_on_c, 0, 56, 0
6, 165645, Note_on_c, 0, 62, 0
6, 165758, Note_on_c, 0, 56, 49
6, 165775, Note_on_c, 0, 62, 31
6, 165779, Note_on_c, 0, 93, 33
6, 165782, Note_on_c, 0, 81, 24
6, 165783, Note_on_c, 0, 95, 33
6, 165807, Note_on_c, 0, 81, 0
6, 165807, Note_on_c, 0, 62, 0
6, 165814, Note_on_c, 0, 93, 0
6, 165822, Note_on_c, 0, 95, 0
6, 165854, Note_on_c, 0, 56, 0
6, 165943, Note_on_c, 0, 89, 55
6, 165944, Note_on_c, 0, 96, 68
6, 165949, Note_on_c, 0, 61, 40
6, 165950, Note_on_c, 0, 55, 46
6, 165950, Note_on_c, 0, 84, 57
6, 165953, Control_c, 0, 64, 0
6, 165957, Note_on_c, 0, 60, 30
6, 165967, Note_on_c, 0, 65, 17
6, 166104, Control_c, 0, 64, 127
6, 166276, Note_on_c, 0, 60, 0
6, 166277, Note_on_c, 0, 65, 0
6, 166282, Note_on_c, 0, 55, 0
6, 166296, Note_on_c, 0, 96, 0
6, 166325, Note_on_c, 0, 89, 0
6, 166341, Note_on_c, 0, 84, 0
6, 166358, Note_on_c, 0, 61, 0
6, 167004, Control_c, 0, 64, 0
6, 167045, Note_on_c, 0, 61, 49
6, 167046, Note_on_c, 0, 51, 44
6, 167047, Note_on_c, 0, 72, 49
6, 167053, Note_on_c, 0, 60, 49
6, 167055, Note_on_c, 0, 65, 47
6, 167086, Note_on_c, 0, 65, 0
6, 167088, Note_on_c, 0, 60, 0
6, 167092, Note_on_c, 0, 61, 0
6, 167123, Note_on_c, 0, 72, 0
6, 167124, Note_on_c, 0, 51, 0
6, 167453, Note_on_c, 0, 51, 42
6, 167455, Note_on_c, 0, 61, 37
6, 167456, Note_on_c, 0, 72, 43
6, 167459, Note_on_c, 0, 65, 45
6, 167470, Note_on_c, 0, 68, 33
6, 167479, Note_on_c, 0, 60, 34
6, 167542, Note_on_c, 0, 60, 0
6, 167787, Control_c, 0, 64, 127
6, 167982, Note_on_c, 0, 61, 0
6, 167987, Note_on_c, 0, 51, 0
6, 168030, Note_on_c, 0, 65, 0
6, 168043, Note_on_c, 0, 72, 0
6, 168069, Note_on_c, 0, 68, 0
6, 168232, Control_c, 0, 64, 0
6, 168239, Note_on_c, 0, 71, 35
6, 168284, Note_on_c, 0, 71, 0
6, 168590, Note_on_c, 0, 71, 41
6, 168601, Note_on_c, 0, 50, 36
6, 168603, Note_on_c, 0, 64, 37
6, 168607, Note_on_c, 0, 67, 34
6, 168613, Note_on_c, 0, 59, 29
6, 169146, Note_on_c, 0, 59, 0
6, 169195, Note_on_c, 0, 57, 24
6, 169199, Note_on_c, 0, 69, 33
6, 169212, Note_on_c, 0, 71, 0
6, 169217, Note_on_c, 0, 67, 0
6, 169231, Note_on_c, 0, 64, 0
6, 169251, Note_on_c, 0, 69, 0
6, 169262, Note_on_c, 0, 57, 0
6, 169325, Note_on_c, 0, 71, 35
6, 169328, Note_on_c, 0, 60, 41
6, 169337, Note_on_c, 0, 64, 31
6, 169340, Note_on_c, 0, 67, 32
6, 169347, Note_on_c, 0, 59, 25
6, 169378, Note_on_c, 0, 64, 0
6, 169384, Note_on_c, 0, 59, 0
6, 169386, Note_on_c, 0, 67, 0
6, 169387, Note_on_c, 0, 60, 0
6, 169431, Note_on_c, 0, 71, 0
6, 169696, Note_on_c, 0, 71, 33
6, 169703, Note_on_c, 0, 67, 36
6, 169708, Note_on_c, 0, 64, 38
6, 169711, Note_on_c, 0, 60, 30
6, 169717, Note_on_c, 0, 59, 26
6, 170012, Control_c, 0, 64, 127
6, 170150, Note_on_c, 0, 59, 0
6, 170195, Note_on_c, 0, 50, 0
6, 170313, Note_on_c, 0, 64, 0
6, 170314, Note_on_c, 0, 67, 0
6, 170327, Note_on_c, 0, 71, 0
6, 170355, Note_on_c, 0, 60, 0
6, 170492, Note_on_c, 0, 43, 47
6, 170519, Control_c, 0, 64, 0
6, 170749, Note_on_c, 0, 58, 38
6, 170750, Note_on_c, 0, 62, 53
6, 170751, Note_on_c, 0, 57, 42
6, 170778, Note_on_c, 0, 57, 0
6, 170784, Note_on_c, 0, 50, 25
6, 170787, Note_on_c, 0, 58, 0
6, 170799, Note_on_c, 0, 62, 0
6, 170822, Note_on_c, 0, 50, 0
6, 171045, Note_on_c, 0, 43, 0
6, 171918, Note_on_c, 0, 62, 66
6, 171921, Note_on_c, 0, 58, 62
6, 171927, Note_on_c, 0, 57, 58
6, 172451, Control_c, 0, 64, 127
6, 172481, Note_on_c, 0, 57, 0
6, 172522, Note_on_c, 0, 62, 0
6, 172527, Note_on_c, 0, 58, 0
6, 172794, Control_c, 0, 64, 0
6, 172820, Note_on_c, 0, 56, 34
6, 172826, Note_on_c, 0, 65, 25
6, 172826, Note_on_c, 0, 55, 36
6, 172841, Note_on_c, 0, 60, 48
6, 173076, Note_on_c, 0, 67, 48
6, 173140, Note_on_c, 0, 67, 0
6, 173146, Note_on_c, 0, 68, 39
6, 173208, Note_on_c, 0, 68, 0
6, 173216, Note_on_c, 0, 70, 52
6, 173262, Note_on_c, 0, 70, 0
6, 173297, Note_on_c, 0, 72, 55
6, 173349, Note_on_c, 0, 72, 0
6, 173372, Note_on_c, 0, 74, 62
6, 173412, Note_on_c, 0, 74, 0
6, 173470, Note_on_c, 0, 75, 67
6, 173518, Note_on_c, 0, 75, 0
6, 173559, Note_on_c, 0, 77, 65
6, 173640, Note_on_c, 0, 77, 0
6, 173660, Note_on_c, 0, 74, 53
6, 173712, Note_on_c, 0, 74, 0
6, 174074, Note_on_c, 0, 74, 81
6, 174135, Note_on_c, 0, 74, 0
6, 174175, Note_on_c, 0, 75, 54
6, 174224, Note_on_c, 0, 74, 42
6, 174255, Note_on_c, 0, 75, 0
6, 174307, Note_on_c, 0, 74, 0
6, 174315, Note_on_c, 0, 72, 34
6, 174358, Note_on_c, 0, 72, 0
6, 174363, Note_on_c, 0, 65, 0
6, 174412, Note_on_c, 0, 60, 0
6, 174444, Note_on_c, 0, 70, 67
6, 174504, Note_on_c, 0, 70, 0
6, 174566, Note_on_c, 0, 68, 62
6, 174576, Note_on_c, 0, 65, 31
6, 174582, Note_on_c, 0, 60, 31
6, 174615, Note_on_c, 0, 68, 0
6, 174616, Note_on_c, 0, 65, 0
6, 174685, Note_on_c, 0, 70, 48
6, 174720, Note_on_c, 0, 68, 49
6, 174751, Note_on_c, 0, 70, 0
6, 174794, Note_on_c, 0, 67, 49
6, 174796, Note_on_c, 0, 68, 0
6, 174839, Note_on_c, 0, 56, 0
6, 174848, Note_on_c, 0, 67, 0
6, 174854, Note_on_c, 0, 55, 0
6, 174856, Note_on_c, 0, 60, 0
6, 174914, Note_on_c, 0, 65, 64
6, 174997, Note_on_c, 0, 65, 0
6, 175031, Note_on_c, 0, 62, 33
6, 175163, Note_on_c, 0, 62, 0
6, 175177, Note_on_c, 0, 60, 30
6, 175207, Note_on_c, 0, 60, 0
6, 175275, Note_on_c, 0, 67, 58
6, 175438, Note_on_c, 0, 65, 53
6, 175584, Note_on_c, 0, 67, 0
6, 175604, Note_on_c, 0, 65, 0
6, 175615, Note_on_c, 0, 62, 41
6, 175787, Note_on_c, 0, 62, 0
6, 175796, Note_on_c, 0, 58, 35
6, 175809, Control_c, 0, 64, 127
6, 175823, Note_on_c, 0, 57, 24
6, 175869, Note_on_c, 0, 57, 0
6, 175941, Note_on_c, 0, 58, 0
6, 176043, Control_c, 0, 64, 0
6, 176062, Note_on_c, 0, 57, 24
6, 176068, Note_on_c, 0, 60, 44
6, 176083, Note_on_c, 0, 43, 33
6, 176097, Note_on_c, 0, 53, 20
6, 176351, Control_c, 0, 64, 127
6, 176627, Note_on_c, 0, 53, 0
6, 176734, Note_on_c, 0, 57, 0
6, 176887, Control_c, 0, 64, 0
6, 176890, Note_on_c, 0, 60, 0
6, 176911, Note_on_c, 0, 57, 40
6, 176915, Note_on_c, 0, 58, 37
6, 176976, Control_c, 0, 64, 127
6, 176982, Note_on_c, 0, 57, 0
6, 176998, Note_on_c, 0, 43, 0
6, 177080, Note_on_c, 0, 58, 0
6, 177402, Control_c, 0, 64, 0
6, 177428, Note_on_c, 0, 65, 53
6, 177439, Note_on_c, 0, 58, 48
6, 177441, Note_on_c, 0, 44, 42
6, 177441, Note_on_c, 0, 54, 36
6, 177448, Note_on_c, 0, 62, 46
6, 177594, Control_c, 0, 64, 127
6, 177774, Note_on_c, 0, 54, 0
6, 177801, Note_on_c, 0, 65, 0
6, 177809, Note_on_c, 0, 58, 0
6, 177811, Note_on_c, 0, 62, 0
6, 177857, Note_on_c, 0, 44, 0
6, 178798, Note_on_c, 0, 77, 66
6, 178818, Note_on_c, 0, 70, 69
6, 178825, Note_on_c, 0, 66, 56
6, 178871, Note_on_c, 0, 66, 0
6, 178933, Note_on_c, 0, 66, 21
6, 179113, Note_on_c, 0, 70, 0
6, 179150, Note_on_c, 0, 66, 0
6, 179303, Note_on_c, 0, 77, 0
6, 179503, Note_on_c, 0, 74, 57
6, 179581, Note_on_c, 0, 74, 0
6, 179613, Note_on_c, 0, 72, 42
6, 179695, Note_on_c, 0, 72, 0
6, 179703, Control_c, 0, 64, 0
6, 179722, Note_on_c, 0, 60, 31
6, 179723, Note_on_c, 0, 71, 47
6, 179729, Note_on_c, 0, 64, 24
6, 179736, Note_on_c, 0, 59, 17
6, 179973, Note_on_c, 0, 83, 54
6, 179978, Control_c, 0, 64, 127
6, 180194, Note_on_c, 0, 59, 0
6, 180217, Note_on_c, 0, 60, 0
6, 180228, Note_on_c, 0, 64, 0
6, 180411, Note_on_c, 0, 71, 0
6, 180422, Note_on_c, 0, 83, 0
6, 180868, Note_on_c, 0, 83, 39
6, 180870, Control_c, 0, 64, 0
6, 180871, Note_on_c, 0, 60, 34
6, 180875, Note_on_c, 0, 64, 22
6, 180876, Note_on_c, 0, 71, 29
6, 180879, Note_on_c, 0, 79, 29
6, 180881, Note_on_c, 0, 55, 29
6, 180890, Note_on_c, 0, 59, 32
6, 180892, Note_on_c, 0, 76, 38
6, 181062, Control_c, 0, 64, 127
6, 181337, Note_on_c, 0, 64, 0
6, 181356, Note_on_c, 0, 71, 0
6, 181361, Note_on_c, 0, 55, 0
6, 181362, Note_on_c, 0, 79, 0
6, 181369, Note_on_c, 0, 83, 0
6, 181369, Note_on_c, 0, 59, 0
6, 181386, Note_on_c, 0, 60, 0
6, 181391, Note_on_c, 0, 76, 0
6, 181619, Control_c, 0, 64, 0
6, 181629, Note_on_c, 0, 64, 44
6, 181630, Note_on_c, 0, 60, 54
6, 181637, Note_on_c, 0, 79, 52
6, 181641, Note_on_c, 0, 67, 56
6, 181643, Note_on_c, 0, 59, 33
6, 181658, Note_on_c, 0, 64, 0
6, 181665, Note_on_c, 0, 67, 0
6, 181670, Note_on_c, 0, 60, 0
6, 181670, Note_on_c, 0, 59, 0
6, 181671, Note_on_c, 0, 79, 0
6, 181838, Control_c, 0, 64, 127
6, 181879, Note_on_c, 0, 81, 66
6, 181880, Note_on_c, 0, 69, 64
6, 181889, Note_on_c, 0, 60, 39
6, 181918, Note_on_c, 0, 69, 0
6, 181927, Note_on_c, 0, 60, 0
6, 181953, Note_on_c, 0, 81, 0
6, 182030, Control_c, 0, 64, 0
6, 182043, Note_on_c, 0, 83, 64
6, 182044, Note_on_c, 0, 71, 66
6, 182046, Note_on_c, 0, 56, 46
6, 182047, Note_on_c, 0, 64, 41
6, 182049, Note_on_c, 0, 80, 36
6, 182051, Note_on_c, 0, 60, 47
6, 182054, Note_on_c, 0, 76, 51
6, 182127, Control_c, 0, 64, 127
6, 182166, Note_on_c, 0, 76, 0
6, 182167, Note_on_c, 0, 71, 0
6, 182190, Note_on_c, 0, 83, 0
6, 182198, Note_on_c, 0, 80, 0
6, 182221, Note_on_c, 0, 60, 0
6, 182226, Note_on_c, 0, 64, 0
6, 182237, Note_on_c, 0, 56, 0
6, 182319, Control_c, 0, 64, 0
6, 182367, Note_on_c, 0, 86, 72
6, 182372, Note_on_c, 0, 60, 51
6, 182373, Note_on_c, 0, 74, 52
6, 182374, Note_on_c, 0, 64, 44
6, 182379, Note_on_c, 0, 56, 32
6, 182390, Note_on_c, 0, 86, 0
6, 182404, Note_on_c, 0, 64, 0
6, 182405, Note_on_c, 0, 74, 0
6, 182412, Note_on_c, 0, 60, 0
6, 182418, Note_on_c, 0, 56, 0
6, 182607, Note_on_c, 0, 83, 44
6, 182609, Note_on_c, 0, 71, 38
6, 182616, Note_on_c, 0, 56, 34
6, 182617, Note_on_c, 0, 80, 26
6, 182618, Note_on_c, 0, 64, 33
6, 182623, Note_on_c, 0, 60, 36
6, 182624, Note_on_c, 0, 76, 38
6, 182658, Note_on_c, 0, 76, 0
6, 182669, Note_on_c, 0, 71, 0
6, 182676, Note_on_c, 0, 80, 0
6, 182678, Note_on_c, 0, 64, 0
6, 182681, Note_on_c, 0, 60, 0
6, 182685, Note_on_c, 0, 56, 0
6, 182690, Note_on_c, 0, 83, 0
6, 182822, Note_on_c, 0, 83, 44
6, 182833, Note_on_c, 0, 64, 36
6, 182839, Note_on_c, 0, 71, 29
6, 182855, Note_on_c, 0, 56, 29
6, 182865, Note_on_c, 0, 60, 25
6, 182931, Note_on_c, 0, 60, 0
6, 182932, Note_on_c, 0, 64, 0
6, 182942, Note_on_c, 0, 56, 0
6, 182949, Note_on_c, 0, 71, 0
6, 182976, Note_on_c, 0, 83, 0
6, 182987, Control_c, 0, 64, 127
6, 183097, Control_c, 0, 64, 0
6, 183112, Note_on_c, 0, 83, 30
6, 183126, Note_on_c, 0, 64, 29
6, 183127, Note_on_c, 0, 60, 41
6, 183132, Note_on_c, 0, 71, 24
6, 183134, Note_on_c, 0, 80, 21
6, 183139, Note_on_c, 0, 76, 39
6, 183141, Note_on_c, 0, 56, 30
6, 183426, Control_c, 0, 64, 127
6, 184047, Note_on_c, 0, 64, 0
6, 184076, Note_on_c, 0, 60, 0
6, 184093, Note_on_c, 0, 56, 0
6, 184305, Control_c, 0, 64, 0
6, 184317, Note_on_c, 0, 55, 34
6, 184328, Note_on_c, 0, 60, 31
6, 184338, Note_on_c, 0, 64, 18
6, 184505, Control_c, 0, 64, 127
6, 184593, Note_on_c, 0, 76, 0
6, 184594, Note_on_c, 0, 71, 0
6, 184610, Note_on_c, 0, 80, 0
6, 184670, Note_on_c, 0, 83, 0
6, 184857, Note_on_c, 0, 55, 0
6, 184902, Note_on_c, 0, 60, 0
6, 184908, Note_on_c, 0, 64, 0
6, 185061, Note_on_c, 0, 83, 88
6, 185076, Note_on_c, 0, 64, 35
6, 185077, Note_on_c, 0, 60, 40
6, 185083, Note_on_c, 0, 55, 47
6, 185102, Control_c, 0, 64, 0
6, 185163, Note_on_c, 0, 83, 0
6, 185177, Note_on_c, 0, 81, 48
6, 185268, Note_on_c, 0, 81, 0
6, 185309, Note_on_c, 0, 83, 58
6, 185388, Note_on_c, 0, 83, 0
6, 185430, Note_on_c, 0, 88, 66
6, 185503, Note_on_c, 0, 88, 0
6, 185551, Note_on_c, 0, 83, 44
6, 185602, Note_on_c, 0, 83, 0
6, 185695, Note_on_c, 0, 55, 0
6, 185703, Note_on_c, 0, 64, 0
6, 185710, Note_on_c, 0, 60, 0
6, 185831, Note_on_c, 0, 83, 54
6, 185904, Note_on_c, 0, 83, 0
6, 185957, Note_on_c, 0, 81, 35
6, 186013, Note_on_c, 0, 81, 0
6, 186036, Control_c, 0, 64, 127
6, 186056, Control_c, 0, 64, 0
6, 186062, Note_on_c, 0, 83, 62
6, 186086, Note_on_c, 0, 60, 42
6, 186087, Note_on_c, 0, 64, 31
6, 186095, Note_on_c, 0, 55, 40
6, 186150, Note_on_c, 0, 83, 0
6, 186197, Note_on_c, 0, 81, 38
6, 186229, Control_c, 0, 64, 127
6, 186250, Note_on_c, 0, 55, 0
6, 186281, Note_on_c, 0, 81, 0
6, 186292, Note_on_c, 0, 64, 0
6, 186317, Note_on_c, 0, 83, 50
6, 186333, Note_on_c, 0, 60, 0
6, 186386, Note_on_c, 0, 83, 0
6, 186432, Note_on_c, 0, 88, 78
6, 186469, Note_on_c, 0, 55, 24
6, 186498, Note_on_c, 0, 55, 0
6, 186524, Note_on_c, 0, 88, 0
6, 186571, Note_on_c, 0, 83, 55
6, 186600, Control_c, 0, 64, 0
6, 186610, Note_on_c, 0, 60, 32
6, 186610, Note_on_c, 0, 54, 39
6, 186636, Note_on_c, 0, 65, 38
6, 186943, Control_c, 0, 64, 127
6, 187306, Note_on_c, 0, 65, 0
6, 187409, Note_on_c, 0, 54, 0
6, 187422, Note_on_c, 0, 60, 0
6, 187572, Note_on_c, 0, 83, 0
6, 187590, Note_on_c, 0, 81, 37
6, 187665, Note_on_c, 0, 81, 0
6, 187726, Control_c, 0, 64, 0
6, 187735, Note_on_c, 0, 83, 47
6, 187813, Note_on_c, 0, 83, 0
6, 187854, Note_on_c, 0, 88, 57
6, 187924, Note_on_c, 0, 88, 0
6, 187975, Note_on_c, 0, 83, 58
6, 188063, Note_on_c, 0, 83, 0
6, 188383, Note_on_c, 0, 54, 32
6, 188391, Note_on_c, 0, 60, 40
6, 188393, Note_on_c, 0, 65, 29
6, 188481, Control_c, 0, 64, 127
6, 188605, Note_on_c, 0, 54, 0
6, 188611, Note_on_c, 0, 65, 0
6, 188647, Note_on_c, 0, 60, 0
6, 188742, Note_on_c, 0, 54, 27
6, 188843, Note_on_c, 0, 54, 0
6, 188941, Control_c, 0, 64, 0
6, 188943, Note_on_c, 0, 53, 31
6, 188948, Note_on_c, 0, 88, 39
6, 188950, Note_on_c, 0, 59, 32
6, 188954, Note_on_c, 0, 76, 35
6, 188957, Note_on_c, 0, 64, 25
6, 189079, Control_c, 0, 64, 127
6, 189189, Note_on_c, 0, 88, 0
6, 189228, Note_on_c, 0, 64, 0
6, 189261, Note_on_c, 0, 59, 0
6, 189268, Note_on_c, 0, 76, 0
6, 189366, Note_on_c, 0, 53, 0
6, 189710, Control_c, 0, 64, 0
6, 189711, Note_on_c, 0, 64, 50
6, 189715, Note_on_c, 0, 53, 40
6, 189718, Note_on_c, 0, 57, 51
6, 189727, Note_on_c, 0, 59, 40
6, 189729, Note_on_c, 0, 52, 37
6, 190013, Control_c, 0, 64, 127
6, 190343, Note_on_c, 0, 43, 53
6, 190370, Note_on_c, 0, 52, 0
6, 190714, Note_on_c, 0, 57, 0
6, 190732, Note_on_c, 0, 59, 0
6, 190742, Note_on_c, 0, 64, 0
6, 190749, Note_on_c, 0, 53, 0
6, 190830, Control_c, 0, 64, 0
6, 190848, Note_on_c, 0, 62, 55
6, 190852, Note_on_c, 0, 43, 0
6, 190861, Note_on_c, 0, 53, 57
6, 190867, Note_on_c, 0, 50, 40
6, 190868, Note_on_c, 0, 57, 49
6, 190893, Note_on_c, 0, 57, 0
6, 190893, Note_on_c, 0, 53, 0
6, 190905, Note_on_c, 0, 50, 0
6, 190931, Note_on_c, 0, 62, 0
6, 191097, Note_on_c, 0, 64, 70
6, 191122, Note_on_c, 0, 52, 47
6, 191154, Note_on_c, 0, 64, 0
6, 191168, Note_on_c, 0, 52, 0
6, 191200, Control_c, 0, 64, 127
6, 191256, Control_c, 0, 64, 0
6, 191298, Note_on_c, 0, 65, 54
6, 191309, Note_on_c, 0, 56, 46
6, 191316, Note_on_c, 0, 62, 51
6, 191321, Note_on_c, 0, 53, 55
6, 191322, Note_on_c, 0, 59, 45
6, 191434, Control_c, 0, 64, 127
6, 191463, Note_on_c, 0, 65, 0
6, 191532, Note_on_c, 0, 59, 0
6, 191533, Note_on_c, 0, 56, 0
6, 191542, Note_on_c, 0, 53, 0
6, 191560, Note_on_c, 0, 62, 0
6, 191565, Control_c, 0, 64, 0
6, 191618, Note_on_c, 0, 56, 48
6, 191622, Note_on_c, 0, 67, 59
6, 191628, Note_on_c, 0, 55, 54
6, 191634, Note_on_c, 0, 59, 17
6, 191675, Note_on_c, 0, 59, 0
6, 191718, Note_on_c, 0, 67, 0
6, 191722, Note_on_c, 0, 56, 0
6, 191877, Note_on_c, 0, 59, 53
6, 191877, Note_on_c, 0, 56, 53
6, 191878, Note_on_c, 0, 68, 44
6, 191880, Note_on_c, 0, 55, 0
6, 191884, Note_on_c, 0, 62, 53
6, 191888, Note_on_c, 0, 65, 42
6, 192814, Control_c, 0, 64, 127
6, 192922, Note_on_c, 0, 59, 0
6, 192972, Note_on_c, 0, 62, 0
6, 192975, Note_on_c, 0, 65, 0
6, 193030, Note_on_c, 0, 68, 0
6, 193390, Note_on_c, 0, 76, 27
6, 193478, Note_on_c, 0, 76, 0
6, 193546, Note_on_c, 0, 76, 52
6, 193549, Control_c, 0, 64, 0
6, 193552, Note_on_c, 0, 66, 48
6, 193584, Note_on_c, 0, 64, 20
6, 193599, Note_on_c, 0, 56, 0
6, 193631, Note_on_c, 0, 66, 0
6, 193688, Note_on_c, 0, 66, 13
6, 193769, Control_c, 0, 64, 127
6, 193817, Note_on_c, 0, 52, 42
6, 193967, Note_on_c, 0, 64, 0
6, 194028, Note_on_c, 0, 66, 0
6, 194182, Note_on_c, 0, 76, 0
6, 194292, Note_on_c, 0, 76, 61
6, 194308, Note_on_c, 0, 65, 38
6, 194310, Note_on_c, 0, 71, 47
6, 194311, Control_c, 0, 64, 0
6, 194316, Note_on_c, 0, 69, 44
6, 194319, Note_on_c, 0, 64, 42
6, 194516, Note_on_c, 0, 52, 0
6, 194597, Note_on_c, 0, 52, 33
6, 194673, Note_on_c, 0, 69, 0
6, 194710, Control_c, 0, 64, 127
6, 194724, Note_on_c, 0, 65, 0
6, 194738, Note_on_c, 0, 64, 0
6, 194975, Note_on_c, 0, 71, 0
6, 195073, Control_c, 0, 64, 0
6, 195074, Note_on_c, 0, 71, 11
6, 195084, Note_on_c, 0, 65, 35
6, 195100, Note_on_c, 0, 69, 33
6, 195101, Note_on_c, 0, 64, 27
6, 195211, Control_c, 0, 64, 127
6, 195443, Note_on_c, 0, 52, 0
6, 195656, Note_on_c, 0, 69, 0
6, 195660, Note_on_c, 0, 71, 0
6, 195680, Note_on_c, 0, 52, 41
6, 195681, Note_on_c, 0, 64, 0
6, 195703, Note_on_c, 0, 65, 0
6, 195900, Note_on_c, 0, 70, 27
6, 195902, Note_on_c, 0, 68, 26
6, 195905, Note_on_c, 0, 65, 33
6, 195918, Control_c, 0, 64, 0
6, 195921, Note_on_c, 0, 52, 0
6, 195925, Note_on_c, 0, 64, 24
6, 196200, Control_c, 0, 64, 127
6, 196499, Note_on_c, 0, 52, 41
6, 196522, Control_c, 0, 64, 0
6, 196582, Note_on_c, 0, 64, 0
6, 196625, Control_c, 0, 64, 127
6, 196708, Note_on_c, 0, 65, 0
6, 196743, Note_on_c, 0, 68, 0
6, 196748, Note_on_c, 0, 70, 0
6, 196780, Note_on_c, 0, 76, 0
6, 196806, Note_on_c, 0, 52, 0
6, 197238, Note_on_c, 0, 73, 83
6, 197243, Note_on_c, 0, 49, 73
6, 197264, Control_c, 0, 64, 0
6, 197388, Control_c, 0, 64, 127
6, 197463, Note_on_c, 0, 73, 0
6, 197506, Note_on_c, 0, 49, 0
6, 197512, Control_c, 0, 64, 0
6, 197517, Note_on_c, 0, 77, 91
6, 197519, Note_on_c, 0, 53, 82
6, 197754, Note_on_c, 0, 77, 0
6, 197768, Note_on_c, 0, 53, 0
6, 197780, Note_on_c, 0, 72, 66
6, 197780, Note_on_c, 0, 48, 68
6, 197793, Control_c, 0, 64, 127
6, 197806, Note_on_c, 0, 48, 0
6, 198065, Note_on_c, 0, 72, 0
6, 198116, Control_c, 0, 64, 0
6, 198168, Note_on_c, 0, 71, 68
6, 198176, Note_on_c, 0, 60, 31
6, 198178, Note_on_c, 0, 64, 34
6, 198265, Note_on_c, 0, 71, 0
6, 198284, Note_on_c, 0, 55, 1
6, 198290, Note_on_c, 0, 72, 36
6, 198364, Note_on_c, 0, 71, 47
6, 198365, Note_on_c, 0, 72, 0
6, 198382, Note_on_c, 0, 59, 1
6, 198467, Note_on_c, 0, 71, 0
6, 198473, Note_on_c, 0, 69, 49
6, 198558, Note_on_c, 0, 69, 0
6, 198595, Note_on_c, 0, 68, 34
6, 198697, Note_on_c, 0, 68, 0
6, 198720, Note_on_c, 0, 71, 55
6, 198819, Note_on_c, 0, 71, 0
6, 198823, Note_on_c, 0, 64, 0
6, 198846, Note_on_c, 0, 69, 61
6, 198944, Note_on_c, 0, 69, 0
6, 198954, Note_on_c, 0, 60, 0
6, 198979, Note_on_c, 0, 64, 49
6, 198994, Note_on_c, 0, 59, 0
6, 199114, Note_on_c, 0, 55, 0
6, 199174, Note_on_c, 0, 62, 57
6, 199175, Note_on_c, 0, 64, 0
6, 199272, Note_on_c, 0, 62, 0
6, 199335, Note_on_c, 0, 60, 24
6, 199518, Note_on_c, 0, 60, 0
6, 199542, Note_on_c, 0, 59, 34
6, 199600, Note_on_c, 0, 59, 0
6, 199644, Note_on_c, 0, 62, 58
6, 199900, Note_on_c, 0, 62, 0
6, 199923, Note_on_c, 0, 59, 32
6, 199984, Note_on_c, 0, 59, 0
6, 200052, Control_c, 0, 64, 127
6, 200067, Note_on_c, 0, 60, 43
6, 200230, Note_on_c, 0, 60, 0
6, 200273, Note_on_c, 0, 62, 60
6, 200299, Note_on_c, 0, 62, 0
6, 200416, Control_c, 0, 64, 0
6, 200431, Note_on_c, 0, 67, 53
6, 200539, Note_on_c, 0, 67, 0
6, 200690, Note_on_c, 0, 71, 39
6, 200770, Note_on_c, 0, 71, 0
6, 200832, Note_on_c, 0, 67, 35
6, 200835, Note_on_c, 0, 63, 23
6, 200835, Note_on_c, 0, 74, 43
6, 200911, Note_on_c, 0, 63, 0
6, 200916, Note_on_c, 0, 67, 0
6, 200931, Note_on_c, 0, 74, 0
6, 201056, Note_on_c, 0, 41, 39
6, 201059, Note_on_c, 0, 48, 34
6, 201064, Note_on_c, 0, 74, 53
6, 201072, Note_on_c, 0, 63, 34
6, 201076, Note_on_c, 0, 67, 47
6, 201086, Note_on_c, 0, 71, 35
6, 201121, Note_on_c, 0, 63, 0
6, 201133, Note_on_c, 0, 67, 0
6, 201143, Note_on_c, 0, 41, 0
6, 201148, Note_on_c, 0, 74, 0
6, 201150, Note_on_c, 0, 71, 0
6, 201160, Note_on_c, 0, 48, 0
6, 201243, Note_on_c, 0, 74, 49
6, 201263, Note_on_c, 0, 67, 31
6, 201306, Note_on_c, 0, 67, 0
6, 201328, Note_on_c, 0, 74, 0
6, 201475, Note_on_c, 0, 72, 39
6, 201554, Note_on_c, 0, 72, 0
6, 201624, Note_on_c, 0, 63, 34
6, 201626, Note_on_c, 0, 74, 44
6, 201631, Note_on_c, 0, 67, 36
6, 201641, Note_on_c, 0, 71, 30
6, 201648, Note_on_c, 0, 41, 28
6, 201652, Note_on_c, 0, 63, 0
6, 201665, Note_on_c, 0, 67, 0
6, 201680, Note_on_c, 0, 41, 0
6, 201683, Note_on_c, 0, 74, 0
6, 201684, Note_on_c, 0, 71, 0
6, 201841, Note_on_c, 0, 41, 24
6, 201851, Note_on_c, 0, 74, 47
6, 201852, Note_on_c, 0, 48, 32
6, 201856, Note_on_c, 0, 63, 34
6, 201856, Note_on_c, 0, 67, 45
6, 201871, Note_on_c, 0, 71, 32
6, 201902, Note_on_c, 0, 63, 0
6, 201905, Note_on_c, 0, 67, 0
6, 201917, Note_on_c, 0, 74, 0
6, 201920, Note_on_c, 0, 71, 0
6, 201937, Note_on_c, 0, 48, 0
6, 202016, Note_on_c, 0, 48, 35
6, 202018, Note_on_c, 0, 63, 36
6, 202021, Note_on_c, 0, 74, 46
6, 202029, Note_on_c, 0, 67, 42
6, 202031, Control_c, 0, 64, 127
6, 202103, Note_on_c, 0, 48, 0
6, 202191, Note_on_c, 0, 74, 0
6, 202201, Note_on_c, 0, 63, 0
6, 202221, Note_on_c, 0, 67, 0
6, 202266, Note_on_c, 0, 72, 28
6, 202298, Control_c, 0, 64, 0
6, 202309, Note_on_c, 0, 41, 0
6, 202320, Note_on_c, 0, 72, 0
6, 202373, Control_c, 0, 64, 127
6, 202387, Note_on_c, 0, 74, 51
6, 202403, Note_on_c, 0, 63, 30
6, 202414, Note_on_c, 0, 67, 36
6, 202529, Note_on_c, 0, 74, 0
6, 202556, Note_on_c, 0, 67, 0
6, 202564, Note_on_c, 0, 63, 0
6, 202627, Note_on_c, 0, 72, 51
6, 202664, Note_on_c, 0, 72, 0
6, 202772, Control_c, 0, 64, 0
6, 202774, Note_on_c, 0, 67, 34
6, 202779, Note_on_c, 0, 50, 36
6, 202779, Note_on_c, 0, 64, 29
6, 202781, Note_on_c, 0, 60, 32
6, 202782, Note_on_c, 0, 71, 47
6, 202788, Note_on_c, 0, 59, 28
6, 203170, Note_on_c, 0, 71, 0
6, 203176, Note_on_c, 0, 59, 0
6, 203182, Note_on_c, 0, 69, 42
6, 203203, Note_on_c, 0, 57, 25
6, 203214, Note_on_c, 0, 67, 0
6, 203229, Note_on_c, 0, 64, 0
6, 203239, Note_on_c, 0, 60, 0
6, 203312, Note_on_c, 0, 69, 0
6, 203404, Note_on_c, 0, 57, 0
6, 203418, Note_on_c, 0, 71, 37
6, 203419, Note_on_c, 0, 60, 32
6, 203421, Note_on_c, 0, 67, 35
6, 203425, Note_on_c, 0, 64, 36
6, 203437, Note_on_c, 0, 59, 34
6, 203694, Control_c, 0, 64, 127
6, 203852, Control_c, 0, 64, 0
6, 203942, Control_c, 0, 64, 127
6, 204159, Note_on_c, 0, 60, 0
6, 204221, Note_on_c, 0, 64, 0
6, 204239, Note_on_c, 0, 67, 0
6, 204287, Note_on_c, 0, 71, 0
6, 204365, Note_on_c, 0, 59, 0
6, 204554, Note_on_c, 0, 59, 28
6, 204584, Note_on_c, 0, 50, 0
6, 204607, Note_on_c, 0, 59, 0
6, 204811, Note_on_c, 0, 67, 41
6, 204849, Note_on_c, 0, 67, 0
6, 204956, Note_on_c, 0, 69, 66
6, 205013, Note_on_c, 0, 69, 0
6, 205118, Note_on_c, 0, 68, 59
6, 205120, Note_on_c, 0, 71, 62
6, 205126, Note_on_c, 0, 54, 37
6, 205128, Note_on_c, 0, 64, 58
6, 205136, Control_c, 0, 64, 0
6, 205138, Note_on_c, 0, 60, 43
6, 205376, Control_c, 0, 64, 127
6, 205470, Note_on_c, 0, 64, 0
6, 205649, Note_on_c, 0, 60, 0
6, 205682, Note_on_c, 0, 54, 0
6, 205689, Note_on_c, 0, 68, 0
6, 205691, Note_on_c, 0, 71, 0
6, 205731, Note_on_c, 0, 76, 64
6, 205861, Note_on_c, 0, 76, 0
6, 206852, Control_c, 0, 64, 0
6, 206854, Note_on_c, 0, 68, 34
6, 206854, Note_on_c, 0, 71, 49
6, 206859, Note_on_c, 0, 54, 40
6, 206869, Note_on_c, 0, 64, 42
6, 206874, Note_on_c, 0, 60, 24
6, 206976, Control_c, 0, 64, 127
6, 207093, Note_on_c, 0, 60, 0
6, 207117, Note_on_c, 0, 54, 0
6, 207118, Note_on_c, 0, 64, 0
6, 207138, Note_on_c, 0, 68, 0
6, 207168, Note_on_c, 0, 71, 0
6, 207369, Note_on_c, 0, 76, 46
6, 207374, Control_c, 0, 64, 0
6, 207383, Note_on_c, 0, 69, 45
6, 207394, Note_on_c, 0, 65, 36
6, 207403, Note_on_c, 0, 55, 22
6, 207417, Note_on_c, 0, 60, 35
6, 207422, Note_on_c, 0, 57, 22
6, 207560, Control_c, 0, 64, 127
6, 207691, Note_on_c, 0, 60, 0
6, 207714, Note_on_c, 0, 65, 0
6, 207790, Note_on_c, 0, 69, 0
6, 207798, Note_on_c, 0, 55, 0
6, 207806, Note_on_c, 0, 57, 0
6, 208005, Note_on_c, 0, 65, 30
6, 208006, Note_on_c, 0, 69, 39
6, 208010, Note_on_c, 0, 55, 28
6, 208022, Note_on_c, 0, 60, 27
6, 208024, Note_on_c, 0, 57, 31
6, 208074, Note_on_c, 0, 65, 0
6, 208084, Note_on_c, 0, 55, 0
6, 208093, Note_on_c, 0, 60, 0
6, 208115, Note_on_c, 0, 57, 0
6, 208117, Note_on_c, 0, 69, 0
6, 208174, Note_on_c, 0, 76, 0
6, 208352, Note_on_c, 0, 88, 65
6, 208359, Note_on_c, 0, 76, 56
6, 208360, Note_on_c, 0, 55, 47
6, 208361, Note_on_c, 0, 65, 52
6, 208370, Note_on_c, 0, 60, 48
6, 208373, Note_on_c, 0, 57, 37
6, 208417, Note_on_c, 0, 76, 0
6, 208425, Note_on_c, 0, 55, 0
6, 208428, Note_on_c, 0, 65, 0
6, 208448, Note_on_c, 0, 57, 0
6, 208451, Note_on_c, 0, 60, 0
6, 208453, Note_on_c, 0, 88, 0
6, 208543, Control_c, 0, 64, 0
6, 208556, Note_on_c, 0, 93, 80
6, 208561, Note_on_c, 0, 81, 64
6, 208563, Note_on_c, 0, 55, 58
6, 208571, Note_on_c, 0, 65, 45
6, 208572, Note_on_c, 0, 57, 52
6, 208573, Note_on_c, 0, 60, 54
6, 208577, Control_c, 0, 64, 127
6, 208673, Note_on_c, 0, 81, 0
6, 208680, Note_on_c, 0, 93, 0
6, 208703, Note_on_c, 0, 55, 0
6, 208714, Note_on_c, 0, 65, 0
6, 208724, Note_on_c, 0, 57, 0
6, 208727, Note_on_c, 0, 60, 0
6, 208792, Note_on_c, 0, 84, 62
6, 208795, Note_on_c, 0, 96, 53
6, 208811, Note_on_c, 0, 55, 42
6, 208816, Note_on_c, 0, 65, 36
6, 208818, Note_on_c, 0, 60, 36
6, 208826, Note_on_c, 0, 57, 33
6, 208846, Note_on_c, 0, 84, 0
6, 208856, Note_on_c, 0, 65, 0
6, 208859, Note_on_c, 0, 96, 0
6, 208867, Note_on_c, 0, 57, 0
6, 208874, Note_on_c, 0, 55, 0
6, 208891, Note_on_c, 0, 60, 0
6, 209123, Note_on_c, 0, 55, 44
6, 209130, Note_on_c, 0, 65, 42
6, 209132, Note_on_c, 0, 100, 66
6, 209136, Note_on_c, 0, 60, 47
6, 209141, Note_on_c, 0, 88, 47
6, 209141, Note_on_c, 0, 57, 38
6, 209166, Control_c, 0, 64, 0
6, 209208, Control_c, 0, 64, 127
6, 209242, Note_on_c, 0, 88, 0
6, 209308, Note_on_c, 0, 100, 0
6, 209412, Note_on_c, 0, 98, 58
6, 209413, Note_on_c, 0, 65, 0
6, 209416, Note_on_c, 0, 60, 0
6, 209456, Note_on_c, 0, 57, 0
6, 209475, Note_on_c, 0, 55, 0
6, 209483, Note_on_c, 0, 98, 0
6, 209540, Note_on_c, 0, 100, 57
6, 209542, Note_on_c, 0, 101, 60
6, 209616, Note_on_c, 0, 101, 0
6, 209640, Note_on_c, 0, 100, 0
6, 209661, Control_c, 0, 64, 0
6, 209666, Note_on_c, 0, 59, 44
6, 209669, Note_on_c, 0, 53, 48
6, 209672, Note_on_c, 0, 64, 43
6, 209675, Note_on_c, 0, 101, 57
6, 209813, Control_c, 0, 64, 127
6, 209959, Note_on_c, 0, 64, 0
6, 209967, Note_on_c, 0, 59, 0
6, 209978, Note_on_c, 0, 53, 0
6, 209990, Note_on_c, 0, 101, 0
6, 210042, Note_on_c, 0, 103, 61
6, 210241, Note_on_c, 0, 103, 0
6, 210285, Note_on_c, 0, 63, 42
6, 210295, Note_on_c, 0, 59, 38
6, 210296, Note_on_c, 0, 53, 38
6, 210297, Note_on_c, 0, 104, 60
6, 210314, Control_c, 0, 64, 0
6, 210410, Control_c, 0, 64, 127
6, 210603, Note_on_c, 0, 104, 0
6, 210659, Note_on_c, 0, 53, 0
6, 210664, Note_on_c, 0, 59, 0
6, 210694, Note_on_c, 0, 63, 0
6, 210843, Note_on_c, 0, 63, 39
6, 210850, Control_c, 0, 64, 0
6, 210852, Note_on_c, 0, 53, 32
6, 210856, Note_on_c, 0, 59, 42
6, 211014, Control_c, 0, 64, 127
6, 211166, Note_on_c, 0, 59, 0
6, 211187, Note_on_c, 0, 63, 0
6, 211274, Note_on_c, 0, 53, 0
6, 211412, Control_c, 0, 64, 0
6, 211428, Note_on_c, 0, 63, 35
6, 211441, Note_on_c, 0, 59, 32
6, 211501, Control_c, 0, 64, 127
6, 211523, Note_on_c, 0, 63, 0
6, 211526, Note_on_c, 0, 59, 0
6, 211737, Note_on_c, 0, 79, 44
6, 211765, Note_on_c, 0, 67, 32
6, 211798, Note_on_c, 0, 79, 0
6, 211820, Note_on_c, 0, 67, 0
6, 211967, Note_on_c, 0, 76, 63
6, 211982, Control_c, 0, 64, 0
6, 211990, Note_on_c, 0, 48, 38
6, 212010, Note_on_c, 0, 55, 29
6, 212012, Note_on_c, 0, 60, 24
6, 212366, Note_on_c, 0, 78, 62
6, 212435, Note_on_c, 0, 78, 0
6, 212490, Note_on_c, 0, 79, 61
6, 212515, Note_on_c, 0, 60, 0
6, 212524, Note_on_c, 0, 55, 0
6, 212525, Note_on_c, 0, 76, 0
6, 212530, Note_on_c, 0, 48, 0
6, 212551, Note_on_c, 0, 79, 0
6, 212619, Note_on_c, 0, 78, 56
6, 212679, Note_on_c, 0, 78, 0
6, 212754, Note_on_c, 0, 74, 45
6, 212831, Note_on_c, 0, 74, 0
6, 212867, Note_on_c, 0, 71, 54
6, 212930, Note_on_c, 0, 71, 0
6, 212998, Note_on_c, 0, 66, 58
6, 213064, Note_on_c, 0, 66, 0
6, 213123, Note_on_c, 0, 64, 47
6, 213241, Note_on_c, 0, 64, 0
6, 213385, Note_on_c, 0, 59, 42
6, 213388, Note_on_c, 0, 66, 33
6, 213406, Note_on_c, 0, 64, 41
6, 213410, Note_on_c, 0, 48, 34
6, 213419, Note_on_c, 0, 55, 24
6, 214026, Note_on_c, 0, 48, 0
6, 214214, Note_on_c, 0, 59, 0
6, 214257, Note_on_c, 0, 64, 0
6, 214276, Note_on_c, 0, 66, 0
6, 214278, Control_c, 0, 64, 127
6, 214286, Note_on_c, 0, 48, 47
6, 214327, Note_on_c, 0, 48, 0
6, 214330, Note_on_c, 0, 55, 0
6, 214662, Control_c, 0, 64, 0
6, 214678, Note_on_c, 0, 72, 74
6, 214681, Note_on_c, 0, 69, 80
6, 214683, Note_on_c, 0, 65, 78
6, 214686, Note_on_c, 0, 62, 64
6, 214687, Note_on_c, 0, 60, 64
6, 214693, Note_on_c, 0, 58, 53
6, 214787, Control_c, 0, 64, 127
6, 214850, Note_on_c, 0, 72, 0
6, 214858, Note_on_c, 0, 60, 0
6, 214859, Note_on_c, 0, 62, 0
6, 214872, Note_on_c, 0, 65, 0
6, 214898, Note_on_c, 0, 69, 0
6, 214916, Note_on_c, 0, 58, 0
6, 215006, Control_c, 0, 64, 0
6, 215057, Note_on_c, 0, 61, 69
6, 215067, Note_on_c, 0, 73, 61
6, 215067, Note_on_c, 0, 66, 81
6, 215071, Note_on_c, 0, 69, 77
6, 215073, Note_on_c, 0, 59, 63
6, 215087, Note_on_c, 0, 57, 38
6, 215150, Control_c, 0, 64, 127
6, 215188, Note_on_c, 0, 59, 0
6, 215201, Note_on_c, 0, 57, 0
6, 215217, Note_on_c, 0, 61, 0
6, 215225, Note_on_c, 0, 66, 0
6, 215237, Note_on_c, 0, 69, 0
6, 215303, Note_on_c, 0, 73, 0
6, 215404, Control_c, 0, 64, 0
6, 215448, Note_on_c, 0, 53, 61
6, 215449, Note_on_c, 0, 72, 66
6, 215456, Note_on_c, 0, 76, 71
6, 215456, Note_on_c, 0, 60, 58
6, 215457, Note_on_c, 0, 69, 63
6, 215460, Note_on_c, 0, 64, 64
6, 215521, Control_c, 0, 64, 127
6, 215598, Note_on_c, 0, 64, 0
6, 215600, Note_on_c, 0, 60, 0
6, 215604, Note_on_c, 0, 69, 0
6, 215625, Note_on_c, 0, 72, 0
6, 215634, Note_on_c, 0, 53, 0
6, 215635, Note_on_c, 0, 76, 0
6, 215782, Control_c, 0, 64, 0
6, 215837, Note_on_c, 0, 52, 55
6, 215838, Note_on_c, 0, 62, 55
6, 215840, Note_on_c, 0, 59, 50
6, 215842, Note_on_c, 0, 79, 70
6, 215845, Note_on_c, 0, 74, 71
6, 215850, Note_on_c, 0, 67, 66
6, 215898, Control_c, 0, 64, 127
6, 215916, Note_on_c, 0, 52, 0
6, 215934, Note_on_c, 0, 59, 0
6, 215934, Note_on_c, 0, 67, 0
6, 215966, Note_on_c, 0, 74, 0
6, 215967, Note_on_c, 0, 62, 0
6, 215976, Note_on_c, 0, 79, 0
6, 216188, Control_c, 0, 64, 0
6, 216217, Note_on_c, 0, 61, 59
6, 216220, Note_on_c, 0, 65, 68
6, 216221, Note_on_c, 0, 84, 78
6, 216223, Note_on_c, 0, 60, 58
6, 216226, Note_on_c, 0, 77, 69
6, 216228, Note_on_c, 0, 81, 63
6, 216229, Note_on_c, 0, 55, 63
6, 216230, Note_on_c, 0, 72, 66
6, 216313, Control_c, 0, 64, 127
6, 216406, Note_on_c, 0, 65, 0
6, 216407, Note_on_c, 0, 60, 0
6, 216410, Note_on_c, 0, 81, 0
6, 216416, Note_on_c, 0, 84, 0
6, 216422, Note_on_c, 0, 55, 0
6, 216428, Note_on_c, 0, 77, 0
6, 216447, Note_on_c, 0, 72, 0
6, 216458, Note_on_c, 0, 61, 0
6, 216588, Control_c, 0, 64, 0
6, 216611, Note_on_c, 0, 64, 50
6, 216615, Note_on_c, 0, 60, 42
6, 216616, Note_on_c, 0, 83, 66
6, 216621, Note_on_c, 0, 76, 59
6, 216624, Note_on_c, 0, 71, 54
6, 216627, Note_on_c, 0, 54, 39
6, 216633, Note_on_c, 0, 59, 41
6, 216794, Control_c, 0, 64, 127
6, 216897, Note_on_c, 0, 83, 0
6, 216909, Note_on_c, 0, 59, 0
6, 216910, Note_on_c, 0, 71, 0
6, 216919, Note_on_c, 0, 64, 0
6, 216943, Note_on_c, 0, 76, 0
6, 216945, Note_on_c, 0, 60, 0
6, 216993, Note_on_c, 0, 81, 45
6, 216997, Note_on_c, 0, 64, 24
6, 216999, Note_on_c, 0, 69, 36
6, 217000, Note_on_c, 0, 60, 22
6, 217045, Note_on_c, 0, 69, 0
6, 217059, Note_on_c, 0, 64, 0
6, 217065, Note_on_c, 0, 81, 0
6, 217075, Note_on_c, 0, 60, 0
6, 217076, Note_on_c, 0, 54, 0
6, 217206, Control_c, 0, 64, 0
6, 217213, Note_on_c, 0, 83, 59
6, 217214, Note_on_c, 0, 71, 55
6, 217225, Note_on_c, 0, 79, 42
6, 217228, Note_on_c, 0, 76, 52
6, 217229, Note_on_c, 0, 64, 34
6, 217237, Note_on_c, 0, 60, 33
6, 217238, Note_on_c, 0, 54, 29
6, 217240, Note_on_c, 0, 59, 29
6, 217282, Note_on_c, 0, 71, 0
6, 217291, Note_on_c, 0, 59, 0
6, 217299, Note_on_c, 0, 64, 0
6, 217312, Note_on_c, 0, 60, 0
6, 217339, Note_on_c, 0, 79, 0
6, 217347, Note_on_c, 0, 76, 0
6, 217354, Note_on_c, 0, 71, 38
6, 217355, Note_on_c, 0, 83, 0
6, 217363, Control_c, 0, 64, 127
6, 217428, Note_on_c, 0, 71, 0
6, 217449, Note_on_c, 0, 83, 19
6, 217506, Note_on_c, 0, 71, 36
6, 217528, Control_c, 0, 64, 0
6, 217573, Note_on_c, 0, 60, 32
6, 217591, Note_on_c, 0, 71, 0
6, 217594, Note_on_c, 0, 64, 32
6, 217608, Note_on_c, 0, 76, 32
6, 217609, Note_on_c, 0, 79, 27
6, 217640, Note_on_c, 0, 79, 0
6, 217641, Note_on_c, 0, 76, 0
6, 217644, Note_on_c, 0, 64, 0
6, 217652, Note_on_c, 0, 60, 0
6, 217653, Note_on_c, 0, 83, 0
6, 217671, Note_on_c, 0, 54, 0
6, 218027, Note_on_c, 0, 71, 53
6, 218030, Note_on_c, 0, 60, 58
6, 218045, Note_on_c, 0, 64, 35
6, 218071, Note_on_c, 0, 60, 0
6, 218074, Note_on_c, 0, 64, 0
6, 218096, Note_on_c, 0, 71, 0
6, 218266, Note_on_c, 0, 71, 48
6, 218278, Note_on_c, 0, 60, 44
6, 218293, Note_on_c, 0, 64, 36
6, 218329, Note_on_c, 0, 64, 0
6, 218340, Note_on_c, 0, 60, 0
6, 218340, Note_on_c, 0, 71, 0
6, 218393, Note_on_c, 0, 69, 34
6, 218457, Note_on_c, 0, 69, 0
6, 218510, Note_on_c, 0, 71, 48
6, 218512, Note_on_c, 0, 60, 39
6, 218520, Note_on_c, 0, 54, 31
6, 218528, Note_on_c, 0, 64, 38
6, 218541, Note_on_c, 0, 59, 31
6, 218754, Note_on_c, 0, 54, 0
6, 218758, Control_c, 0, 64, 127
6, 218794, Note_on_c, 0, 59, 0
6, 218882, Note_on_c, 0, 54, 43
6, 218975, Note_on_c, 0, 71, 0
6, 218989, Note_on_c, 0, 60, 0
6, 218996, Note_on_c, 0, 64, 0
6, 219153, Note_on_c, 0, 69, 75
6, 219156, Control_c, 0, 64, 0
6, 219163, Note_on_c, 0, 60, 66
6, 219165, Note_on_c, 0, 64, 62
6, 219252, Control_c, 0, 64, 127
6, 219257, Note_on_c, 0, 54, 0
6, 219382, Note_on_c, 0, 60, 0
6, 219388, Note_on_c, 0, 64, 0
6, 219389, Note_on_c, 0, 69, 0
6, 219434, Note_on_c, 0, 67, 79
6, 219445, Note_on_c, 0, 64, 56
6, 219470, Note_on_c, 0, 64, 0
6, 219511, Note_on_c, 0, 67, 0
6, 219913, Note_on_c, 0, 38, 44
6, 219941, Note_on_c, 0, 38, 0
6, 220064, Note_on_c, 0, 66, 80
6, 220068, Note_on_c, 0, 58, 82
6, 220072, Note_on_c, 0, 61, 77
6, 220073, Note_on_c, 0, 50, 68
6, 220082, Control_c, 0, 64, 0
6, 220295, Control_c, 0, 64, 127
6, 220486, Note_on_c, 0, 66, 0
6, 220511, Note_on_c, 0, 50, 0
6, 220553, Note_on_c, 0, 61, 0
6, 220556, Note_on_c, 0, 58, 0
6, 220652, Note_on_c, 0, 67, 68
6, 220660, Control_c, 0, 64, 0
6, 220660, Note_on_c, 0, 58, 59
6, 220661, Note_on_c, 0, 61, 61
6, 220672, Note_on_c, 0, 50, 54
6, 220732, Note_on_c, 0, 67, 0
6, 220770, Control_c, 0, 64, 127
6, 220845, Note_on_c, 0, 58, 0
6, 220846, Note_on_c, 0, 50, 0
6, 220884, Note_on_c, 0, 61, 0
6, 220926, Note_on_c, 0, 69, 69
6, 221069, Note_on_c, 0, 69, 0
6, 221154, Control_c, 0, 64, 0
6, 221187, Note_on_c, 0, 69, 57
6, 221190, Note_on_c, 0, 66, 46
6, 221198, Note_on_c, 0, 59, 40
6, 221200, Note_on_c, 0, 62, 51
6, 221211, Note_on_c, 0, 50, 44
6, 221600, Control_c, 0, 64, 127
6, 221609, Note_on_c, 0, 50, 0
6, 221812, Note_on_c, 0, 50, 29
6, 222019, Note_on_c, 0, 62, 0
6, 222083, Note_on_c, 0, 59, 0
6, 222117, Note_on_c, 0, 50, 0
6, 222119, Note_on_c, 0, 66, 0
6, 222294, Control_c, 0, 64, 0
6, 222311, Note_on_c, 0, 59, 35
6, 222317, Note_on_c, 0, 66, 19
6, 222321, Note_on_c, 0, 62, 42
6, 222325, Note_on_c, 0, 50, 31
6, 222438, Control_c, 0, 64, 127
6, 222631, Note_on_c, 0, 50, 0
6, 222668, Note_on_c, 0, 50, 24
6, 222737, Note_on_c, 0, 69, 0
6, 222744, Note_on_c, 0, 59, 0
6, 222755, Note_on_c, 0, 66, 0
6, 222763, Note_on_c, 0, 62, 0
6, 222924, Note_on_c, 0, 67, 65
6, 222924, Note_on_c, 0, 62, 68
6, 222933, Control_c, 0, 64, 0
6, 222934, Note_on_c, 0, 59, 68
6, 222936, Note_on_c, 0, 55, 50
6, 223090, Control_c, 0, 64, 127
6, 223152, Note_on_c, 0, 50, 0
6, 223165, Note_on_c, 0, 59, 0
6, 223180, Note_on_c, 0, 67, 0
6, 223184, Note_on_c, 0, 55, 0
6, 223198, Note_on_c, 0, 62, 0
6, 223246, Note_on_c, 0, 66, 69
6, 223249, Note_on_c, 0, 54, 31
6, 223281, Note_on_c, 0, 54, 0
6, 223465, Note_on_c, 0, 66, 0
6, 223544, Control_c, 0, 64, 0
6, 223548, Note_on_c, 0, 52, 44
6, 223550, Note_on_c, 0, 40, 35
6, 223551, Note_on_c, 0, 62, 49
6, 223558, Note_on_c, 0, 57, 40
6, 223560, Note_on_c, 0, 66, 34
6, 223840, Control_c, 0, 64, 127
6, 223883, Note_on_c, 0, 57, 0
6, 223892, Note_on_c, 0, 62, 0
6, 223893, Note_on_c, 0, 40, 0
6, 223915, Note_on_c, 0, 64, 34
6, 223950, Note_on_c, 0, 64, 0
6, 223952, Note_on_c, 0, 52, 0
6, 223976, Note_on_c, 0, 66, 0
6, 224526, Note_on_c, 0, 73, 43
6, 224528, Note_on_c, 0, 66, 49
6, 224536, Note_on_c, 0, 62, 47
6, 224546, Note_on_c, 0, 69, 49
6, 224553, Control_c, 0, 64, 0
6, 224965, Control_c, 0, 64, 127
6, 225041, Note_on_c, 0, 52, 35
6, 225116, Control_c, 0, 64, 0
6, 225185, Control_c, 0, 64, 127
6, 225287, Note_on_c, 0, 69, 0
6, 225341, Note_on_c, 0, 73, 0
6, 225349, Note_on_c, 0, 66, 0
6, 225481, Note_on_c, 0, 52, 0
6, 225533, Note_on_c, 0, 62, 0
6, 225613, Note_on_c, 0, 66, 53
6, 225767, Note_on_c, 0, 66, 0
6, 225817, Control_c, 0, 64, 0
6, 225823, Note_on_c, 0, 61, 39
6, 225824, Note_on_c, 0, 51, 36
6, 225825, Note_on_c, 0, 65, 47
6, 225990, Note_on_c, 0, 65, 0
6, 226087, Note_on_c, 0, 72, 58
6, 226098, Note_on_c, 0, 61, 0
6, 226299, Note_on_c, 0, 61, 23
6, 226305, Note_on_c, 0, 65, 49
6, 226341, Note_on_c, 0, 65, 0
6, 226350, Note_on_c, 0, 61, 0
6, 226352, Note_on_c, 0, 60, 20
6, 226377, Note_on_c, 0, 60, 0
6, 226547, Note_on_c, 0, 61, 45
6, 226571, Note_on_c, 0, 65, 36
6, 226575, Note_on_c, 0, 60, 32
6, 226605, Note_on_c, 0, 65, 0
6, 226608, Note_on_c, 0, 61, 0
6, 226610, Note_on_c, 0, 60, 0
6, 226807, Note_on_c, 0, 61, 37
6, 226813, Note_on_c, 0, 65, 46
6, 226824, Note_on_c, 0, 60, 31
6, 226858, Note_on_c, 0, 65, 0
6, 226859, Note_on_c, 0, 61, 0
6, 226865, Note_on_c, 0, 60, 0
6, 227008, Note_on_c, 0, 61, 32
6, 227016, Note_on_c, 0, 65, 44
6, 227019, Note_on_c, 0, 60, 33
6, 227065, Note_on_c, 0, 61, 0
6, 227066, Note_on_c, 0, 60, 0
6, 227074, Note_on_c, 0, 65, 0
6, 227284, Note_on_c, 0, 61, 36
6, 227293, Note_on_c, 0, 65, 47
6, 227302, Note_on_c, 0, 60, 34
6, 227314, Control_c, 0, 64, 127
6, 227540, Note_on_c, 0, 72, 0
6, 227553, Note_on_c, 0, 65, 0
6, 227589, Note_on_c, 0, 61, 0
6, 227784, Note_on_c, 0, 60, 0
6, 227826, Note_on_c, 0, 65, 60
6, 227845, Note_on_c, 0, 51, 0
6, 227905, Note_on_c, 0, 65, 0
6, 227938, Note_on_c, 0, 64, 51
6, 228009, Note_on_c, 0, 64, 0
6, 228056, Control_c, 0, 64, 0
6, 228084, Note_on_c, 0, 64, 48
6, 228094, Note_on_c, 0, 50, 35
6, 228099, Note_on_c, 0, 60, 32
6, 228469, Note_on_c, 0, 63, 33
6, 228470, Note_on_c, 0, 64, 0
6, 228555, Note_on_c, 0, 60, 0
6, 228719, Note_on_c, 0, 70, 42
6, 228740, Note_on_c, 0, 60, 25
6, 229052, Control_c, 0, 64, 127
6, 229146, Note_on_c, 0, 50, 0
6, 229225, Note_on_c, 0, 50, 39
6, 229312, Control_c, 0, 64, 0
6, 229491, Control_c, 0, 64, 127
6, 229605, Note_on_c, 0, 63, 0
6, 229619, Note_on_c, 0, 70, 0
6, 229620, Note_on_c, 0, 60, 0
6, 229945, Note_on_c, 0, 50, 0
6, 230282, Note_on_c, 0, 62, 26
6, 230374, Note_on_c, 0, 62, 0
6, 230405, Control_c, 0, 64, 0
6, 230418, Note_on_c, 0, 67, 58
6, 230429, Note_on_c, 0, 43, 31
6, 230434, Note_on_c, 0, 50, 28
6, 230451, Note_on_c, 0, 53, 16
6, 230674, Note_on_c, 0, 62, 37
6, 230734, Note_on_c, 0, 62, 0
6, 230887, Note_on_c, 0, 53, 0
6, 231136, Note_on_c, 0, 62, 40
6, 231143, Note_on_c, 0, 53, 26
6, 231148, Note_on_c, 0, 57, 25
6, 231175, Note_on_c, 0, 57, 0
6, 231193, Note_on_c, 0, 53, 0
6, 231216, Note_on_c, 0, 62, 0
6, 231525, Note_on_c, 0, 62, 27
6, 231533, Note_on_c, 0, 53, 26
6, 231543, Note_on_c, 0, 58, 26
6, 231544, Note_on_c, 0, 57, 26
6, 231648, Control_c, 0, 64, 127
6, 231968, Note_on_c, 0, 53, 0
6, 232012, Note_on_c, 0, 50, 0
6, 232036, Note_on_c, 0, 43, 0
6, 232204, Note_on_c, 0, 57, 0
6, 232227, Note_on_c, 0, 62, 0
6, 232319, Note_on_c, 0, 58, 0
6, 232345, Note_on_c, 0, 67, 0
6, 232708, Note_on_c, 0, 44, 34
6, 232716, Note_on_c, 0, 51, 28
6, 232732, Control_c, 0, 64, 0
6, 232850, Note_on_c, 0, 58, 43
6, 232859, Note_on_c, 0, 55, 35
6, 232888, Note_on_c, 0, 55, 0
6, 232979, Note_on_c, 0, 56, 52
6, 232987, Note_on_c, 0, 60, 64
6, 233005, Note_on_c, 0, 58, 0
6, 233084, Note_on_c, 0, 56, 0
6, 233091, Note_on_c, 0, 60, 0
6, 233116, Note_on_c, 0, 58, 60
6, 233118, Note_on_c, 0, 62, 66
6, 233211, Note_on_c, 0, 62, 0
6, 233245, Note_on_c, 0, 63, 59
6, 233274, Note_on_c, 0, 58, 0
6, 233276, Note_on_c, 0, 60, 31
6, 233283, Note_on_c, 0, 44, 0
6, 233304, Note_on_c, 0, 51, 0
6, 233326, Note_on_c, 0, 60, 0
6, 233343, Note_on_c, 0, 63, 0
6, 233391, Note_on_c, 0, 58, 49
6, 233396, Note_on_c, 0, 62, 55
6, 233398, Note_on_c, 0, 44, 34
6, 233469, Note_on_c, 0, 62, 0
6, 233470, Note_on_c, 0, 58, 0
6, 233471, Note_on_c, 0, 44, 0
6, 233880, Note_on_c, 0, 44, 30
6, 234080, Note_on_c, 0, 44, 0
6, 234254, Note_on_c, 0, 67, 62
6, 234259, Note_on_c, 0, 56, 48
6, 234264, Note_on_c, 0, 60, 45
6, 234278, Note_on_c, 0, 62, 34
6, 234310, Note_on_c, 0, 62, 0
6, 234311, Note_on_c, 0, 56, 0
6, 234315, Note_on_c, 0, 60, 0
6, 234330, Note_on_c, 0, 67, 0
6, 234394, Note_on_c, 0, 65, 40
6, 234432, Note_on_c, 0, 65, 0
6, 234510, Note_on_c, 0, 56, 47
6, 234511, Note_on_c, 0, 67, 64
6, 234526, Note_on_c, 0, 60, 46
6, 234527, Note_on_c, 0, 62, 35
6, 234543, Note_on_c, 0, 55, 35
6, 234676, Control_c, 0, 64, 127
6, 234717, Note_on_c, 0, 67, 0
6, 234757, Note_on_c, 0, 62, 0
6, 234771, Note_on_c, 0, 55, 0
6, 234773, Note_on_c, 0, 65, 55
6, 234774, Note_on_c, 0, 60, 0
6, 234818, Note_on_c, 0, 56, 0
6, 234856, Note_on_c, 0, 65, 0
6, 234895, Note_on_c, 0, 44, 35
6, 234896, Note_on_c, 0, 60, 41
6, 234939, Note_on_c, 0, 60, 0
6, 234976, Note_on_c, 0, 44, 0
6, 234978, Control_c, 0, 64, 0
6, 235039, Note_on_c, 0, 57, 24
6, 235049, Note_on_c, 0, 43, 44
6, 235115, Control_c, 0, 64, 127
6, 235170, Note_on_c, 0, 43, 0
6, 235175, Note_on_c, 0, 57, 0
6, 235580, Note_on_c, 0, 81, 62
6, 235609, Note_on_c, 0, 57, 36
6, 235609, Note_on_c, 0, 69, 71
6, 235617, Note_on_c, 0, 62, 41
6, 235619, Note_on_c, 0, 58, 37
6, 235646, Note_on_c, 0, 57, 0
6, 235647, Note_on_c, 0, 62, 0
6, 235659, Note_on_c, 0, 69, 0
6, 235683, Note_on_c, 0, 58, 0
6, 235697, Note_on_c, 0, 81, 0
6, 235816, Note_on_c, 0, 84, 77
6, 235825, Note_on_c, 0, 72, 65
6, 235828, Note_on_c, 0, 57, 57
6, 235832, Note_on_c, 0, 58, 48
6, 235834, Note_on_c, 0, 62, 53
6, 235857, Note_on_c, 0, 57, 0
6, 235859, Note_on_c, 0, 72, 0
6, 235862, Note_on_c, 0, 62, 0
6, 235892, Note_on_c, 0, 58, 0
6, 235894, Note_on_c, 0, 84, 0
6, 236055, Note_on_c, 0, 89, 66
6, 236060, Note_on_c, 0, 77, 67
6, 236060, Note_on_c, 0, 57, 69
6, 236067, Note_on_c, 0, 58, 51
6, 236069, Note_on_c, 0, 62, 59
6, 236089, Note_on_c, 0, 57, 0
6, 236093, Note_on_c, 0, 62, 0
6, 236097, Note_on_c, 0, 77, 0
6, 236104, Control_c, 0, 64, 0
6, 236112, Note_on_c, 0, 89, 0
6, 236121, Note_on_c, 0, 58, 0
6, 236257, Note_on_c, 0, 93, 72
6, 236258, Note_on_c, 0, 81, 62
6, 236263, Control_c, 0, 64, 127
6, 236265, Note_on_c, 0, 57, 55
6, 236276, Note_on_c, 0, 58, 37
6, 236279, Note_on_c, 0, 62, 34
6, 236305, Note_on_c, 0, 81, 0
6, 236307, Note_on_c, 0, 57, 0
6, 236310, Note_on_c, 0, 62, 0
6, 236316, Note_on_c, 0, 93, 0
6, 236344, Note_on_c, 0, 58, 0
6, 236482, Note_on_c, 0, 96, 48
6, 236482, Note_on_c, 0, 57, 36
6, 236487, Note_on_c, 0, 62, 40
6, 236491, Note_on_c, 0, 84, 27
6, 236492, Note_on_c, 0, 58, 37
6, 236551, Note_on_c, 0, 62, 0
6, 236557, Note_on_c, 0, 57, 0
6, 236563, Note_on_c, 0, 58, 0
6, 236591, Note_on_c, 0, 84, 0
6, 236599, Note_on_c, 0, 96, 0
6, 236661, Note_on_c, 0, 93, 45
6, 236662, Note_on_c, 0, 62, 39
6, 236670, Note_on_c, 0, 58, 33
6, 236679, Note_on_c, 0, 57, 17
6, 236779, Note_on_c, 0, 84, 1
6, 236951, Note_on_c, 0, 93, 0
6, 237003, Note_on_c, 0, 84, 0
6, 237052, Note_on_c, 0, 57, 0
6, 237077, Note_on_c, 0, 58, 0
6, 237089, Note_on_c, 0, 62, 0
6, 237591, Note_on_c, 0, 65, 44
6, 237594, Control_c, 0, 64, 0
6, 237595, Note_on_c, 0, 55, 42
6, 237600, Note_on_c, 0, 56, 32
6, 237614, Note_on_c, 0, 60, 49
6, 238085, Note_on_c, 0, 67, 48
6, 238166, Note_on_c, 0, 67, 0
6, 238199, Note_on_c, 0, 68, 52
6, 238245, Note_on_c, 0, 68, 0
6, 238320, Note_on_c, 0, 72, 61
6, 238388, Note_on_c, 0, 72, 0
6, 238411, Note_on_c, 0, 75, 60
6, 238474, Note_on_c, 0, 75, 0
6, 238519, Note_on_c, 0, 79, 65
6, 238585, Note_on_c, 0, 79, 0
6, 238621, Note_on_c, 0, 80, 73
6, 238724, Note_on_c, 0, 79, 69
6, 238743, Note_on_c, 0, 80, 0
6, 238793, Note_on_c, 0, 79, 0
6, 238885, Note_on_c, 0, 75, 60
6, 238969, Note_on_c, 0, 75, 0
6, 239001, Note_on_c, 0, 72, 46
6, 239048, Note_on_c, 0, 65, 0
6, 239049, Note_on_c, 0, 72, 0
6, 239124, Note_on_c, 0, 68, 49
6, 239162, Note_on_c, 0, 65, 31
6, 239207, Note_on_c, 0, 65, 0
6, 239213, Note_on_c, 0, 68, 0
6, 239243, Note_on_c, 0, 67, 54
6, 239272, Note_on_c, 0, 60, 0
6, 239280, Note_on_c, 0, 67, 0
6, 239319, Note_on_c, 0, 56, 0
6, 239328, Note_on_c, 0, 55, 0
6, 239348, Note_on_c, 0, 70, 65
6, 239449, Note_on_c, 0, 70, 0
6, 239474, Note_on_c, 0, 68, 60
6, 239504, Control_c, 0, 64, 127
6, 239558, Note_on_c, 0, 68, 0
6, 239586, Control_c, 0, 64, 0
6, 239609, Note_on_c, 0, 67, 44
6, 239624, Note_on_c, 0, 62, 31
6, 239625, Note_on_c, 0, 58, 34
6, 239627, Note_on_c, 0, 57, 24
6, 239717, Note_on_c, 0, 67, 0
6, 239758, Note_on_c, 0, 69, 50
6, 239838, Note_on_c, 0, 69, 0
6, 239870, Note_on_c, 0, 65, 45
6, 240187, Note_on_c, 0, 67, 54
6, 240189, Note_on_c, 0, 62, 0
6, 240199, Note_on_c, 0, 65, 0
6, 240224, Note_on_c, 0, 58, 0
6, 240240, Note_on_c, 0, 57, 0
6, 240272, Control_c, 0, 64, 127
6, 240383, Control_c, 0, 64, 0
6, 240405, Note_on_c, 0, 62, 36
6, 240581, Note_on_c, 0, 67, 0
6, 240606, Note_on_c, 0, 62, 0
6, 240647, Note_on_c, 0, 60, 44
6, 240742, Note_on_c, 0, 60, 0
6, 240785, Note_on_c, 0, 58, 34
6, 240800, Note_on_c, 0, 43, 32
6, 240812, Note_on_c, 0, 53, 22
6, 240874, Note_on_c, 0, 58, 0
6, 240936, Note_on_c, 0, 60, 34
6, 240970, Note_on_c, 0, 58, 36
6, 241006, Note_on_c, 0, 60, 0
6, 241046, Note_on_c, 0, 57, 38
6, 241047, Note_on_c, 0, 58, 0
6, 241167, Note_on_c, 0, 57, 0
6, 241223, Note_on_c, 0, 58, 31
6, 241309, Note_on_c, 0, 53, 0
6, 241433, Note_on_c, 0, 58, 0
6, 241447, Control_c, 0, 64, 127
6, 241452, Note_on_c, 0, 55, 37
6, 241502, Control_c, 0, 64, 0
6, 241515, Note_on_c, 0, 53, 17
6, 241536, Note_on_c, 0, 55, 0
6, 241608, Note_on_c, 0, 57, 40
6, 241687, Note_on_c, 0, 43, 0
6, 241805, Note_on_c, 0, 57, 0
6, 241805, Control_c, 0, 64, 127
6, 241807, Note_on_c, 0, 53, 0
6, 241820, Note_on_c, 0, 58, 56
6, 241830, Note_on_c, 0, 43, 40
6, 241888, Note_on_c, 0, 58, 0
6, 242004, Control_c, 0, 64, 0
6, 242141, Note_on_c, 0, 67, 49
6, 242152, Note_on_c, 0, 60, 45
6, 242159, Note_on_c, 0, 56, 25
6, 242178, Note_on_c, 0, 55, 24
6, 242345, Note_on_c, 0, 67, 0
6, 242364, Note_on_c, 0, 60, 0
6, 242366, Note_on_c, 0, 56, 0
6, 242378, Note_on_c, 0, 55, 0
6, 242396, Note_on_c, 0, 65, 48
6, 242410, Note_on_c, 0, 43, 0
6, 242512, Control_c, 0, 64, 127
6, 242550, Note_on_c, 0, 65, 0
6, 242617, Note_on_c, 0, 56, 36
6, 242642, Control_c, 0, 64, 0
6, 242646, Note_on_c, 0, 60, 37
6, 242659, Note_on_c, 0, 55, 22
6, 242714, Note_on_c, 0, 55, 0
6, 242812, Note_on_c, 0, 56, 0
6, 242831, Note_on_c, 0, 60, 0
6, 242869, Note_on_c, 0, 67, 58
6, 242878, Note_on_c, 0, 60, 16
6, 242909, Note_on_c, 0, 55, 28
6, 242916, Control_c, 0, 64, 127
6, 242932, Note_on_c, 0, 60, 0
6, 242972, Note_on_c, 0, 55, 0
6, 243066, Note_on_c, 0, 67, 0
6, 243109, Control_c, 0, 64, 0
6, 243112, Note_on_c, 0, 56, 34
6, 243114, Note_on_c, 0, 62, 50
6, 243133, Note_on_c, 0, 55, 38
6, 243135, Note_on_c, 0, 60, 46
6, 243262, Note_on_c, 0, 55, 0
6, 243365, Note_on_c, 0, 55, 46
6, 243406, Note_on_c, 0, 55, 0
6, 243621, Note_on_c, 0, 55, 38
6, 243668, Note_on_c, 0, 55, 0
6, 243862, Note_on_c, 0, 55, 33
6, 243871, Control_c, 0, 64, 127
6, 243960, Note_on_c, 0, 55, 0
6, 244030, Note_on_c, 0, 60, 0
6, 244047, Note_on_c, 0, 62, 0
6, 244057, Note_on_c, 0, 50, 33
6, 244066, Note_on_c, 0, 56, 0
6, 244118, Note_on_c, 0, 50, 0
6, 244174, Control_c, 0, 64, 0
6, 244183, Note_on_c, 0, 43, 32
6, 244187, Note_on_c, 0, 58, 39
6, 244195, Note_on_c, 0, 55, 29
6, 244204, Note_on_c, 0, 50, 17
6, 244633, Control_c, 0, 64, 127
6, 244708, Note_on_c, 0, 50, 0
6, 244812, Note_on_c, 0, 43, 0
6, 244898, Note_on_c, 0, 43, 35
6, 244969, Note_on_c, 0, 43, 0
6, 244998, Control_c, 0, 64, 0
6, 245054, Note_on_c, 0, 55, 0
6, 245236, Note_on_c, 0, 50, 43
6, 245326, Note_on_c, 0, 50, 0
6, 245392, Note_on_c, 0, 43, 33
6, 245890, Note_on_c, 0, 58, 0
6, 245924, Control_c, 0, 64, 127
6, 245996, Note_on_c, 0, 50, 26
6, 245997, Note_on_c, 0, 58, 31
6, 246022, Note_on_c, 0, 53, 29
6, 246069, Control_c, 0, 64, 0
6, 246123, Control_c, 0, 64, 127
6, 246140, Note_on_c, 0, 43, 0
6, 246176, Note_on_c, 0, 53, 0
6, 246364, Note_on_c, 0, 43, 36
6, 246365, Note_on_c, 0, 50, 0
6, 246394, Note_on_c, 0, 58, 0
6, 246515, Control_c, 0, 64, 0
6, 246528, Note_on_c, 0, 56, 28
6, 246536, Note_on_c, 0, 60, 49
6, 246543, Note_on_c, 0, 55, 25
6, 246708, Control_c, 0, 64, 127
6, 246828, Note_on_c, 0, 55, 0
6, 246844, Note_on_c, 0, 60, 0
6, 246856, Note_on_c, 0, 56, 0
6, 247149, Note_on_c, 0, 67, 72
6, 247168, Control_c, 0, 64, 0
6, 247174, Note_on_c, 0, 62, 54
6, 247185, Note_on_c, 0, 60, 58
6, 247195, Note_on_c, 0, 55, 43
6, 247199, Note_on_c, 0, 56, 30
6, 247241, Note_on_c, 0, 43, 0
6, 247269, Note_on_c, 0, 56, 0
6, 247280, Note_on_c, 0, 60, 0
6, 247288, Note_on_c, 0, 62, 0
6, 247291, Control_c, 0, 64, 127
6, 247296, Note_on_c, 0, 55, 0
6, 247321, Note_on_c, 0, 67, 0
6, 247549, Note_on_c, 0, 79, 63
6, 247577, Note_on_c, 0, 67, 78
6, 247605, Note_on_c, 0, 55, 32
6, 247670, Note_on_c, 0, 67, 0
6, 247681, Note_on_c, 0, 79, 0
6, 247759, Note_on_c, 0, 55, 0
6, 247800, Note_on_c, 0, 80, 68
6, 247804, Note_on_c, 0, 68, 67
6, 247815, Note_on_c, 0, 56, 56
6, 247883, Note_on_c, 0, 68, 0
6, 247902, Note_on_c, 0, 80, 0
6, 248044, Note_on_c, 0, 56, 0
6, 248065, Note_on_c, 0, 60, 58
6, 248074, Note_on_c, 0, 84, 63
6, 248078, Note_on_c, 0, 72, 59
6, 248125, Note_on_c, 0, 72, 0
6, 248139, Note_on_c, 0, 60, 0
6, 248145, Note_on_c, 0, 84, 0
6, 248315, Control_c, 0, 64, 0
6, 248337, Note_on_c, 0, 67, 50
6, 248338, Note_on_c, 0, 91, 53
6, 248339, Note_on_c, 0, 79, 55
6, 248342, Control_c, 0, 64, 127
6, 248420, Note_on_c, 0, 79, 0
6, 248422, Note_on_c, 0, 67, 0
6, 248423, Note_on_c, 0, 91, 0
6, 248575, Note_on_c, 0, 80, 42
6, 248575, Note_on_c, 0, 92, 57
6, 248576, Note_on_c, 0, 68, 38
6, 248598, Note_on_c, 0, 68, 0
6, 248607, Note_on_c, 0, 80, 0
6, 248612, Note_on_c, 0, 92, 0
6, 248855, Note_on_c, 0, 96, 50
6, 248856, Note_on_c, 0, 84, 45
6, 248879, Control_c, 0, 64, 0
6, 249082, Note_on_c, 0, 62, 49
6, 249111, Note_on_c, 0, 62, 0
6, 249370, Note_on_c, 0, 62, 57
6, 249381, Note_on_c, 0, 58, 35
6, 249388, Note_on_c, 0, 60, 46
6, 249412, Note_on_c, 0, 62, 0
6, 249413, Note_on_c, 0, 60, 0
6, 249436, Note_on_c, 0, 58, 0
6, 249623, Note_on_c, 0, 62, 50
6, 249641, Note_on_c, 0, 58, 32
6, 249651, Note_on_c, 0, 60, 34
6, 249682, Note_on_c, 0, 60, 0
6, 249693, Note_on_c, 0, 62, 0
6, 249713, Note_on_c, 0, 58, 0
6, 249896, Note_on_c, 0, 62, 35
6, 249916, Note_on_c, 0, 58, 26
6, 249924, Note_on_c, 0, 60, 33
6, 249950, Control_c, 0, 64, 127
6, 250250, Note_on_c, 0, 60, 0
6, 250260, Note_on_c, 0, 62, 0
6, 250277, Note_on_c, 0, 58, 0
6, 250410, Note_on_c, 0, 62, 35
6, 250665, Note_on_c, 0, 62, 0
6, 250832, Note_on_c, 0, 96, 0
6, 250903, Note_on_c, 0, 84, 0
6, 250906, Note_on_c, 0, 94, 53
6, 251002, Note_on_c, 0, 94, 0
6, 251030, Note_on_c, 0, 93, 45
6, 251103, Note_on_c, 0, 93, 0
6, 251165, Control_c, 0, 64, 0
6, 251167, Note_on_c, 0, 94, 46
6, 251176, Note_on_c, 0, 56, 25
6, 251177, Note_on_c, 0, 55, 31
6, 251193, Note_on_c, 0, 60, 34
6, 251203, Note_on_c, 0, 65, 16
6, 251489, Control_c, 0, 64, 127
6, 251542, Note_on_c, 0, 96, 41
6, 251612, Note_on_c, 0, 60, 0
6, 251633, Note_on_c, 0, 65, 0
6, 251656, Note_on_c, 0, 56, 0
6, 251697, Note_on_c, 0, 55, 0
6, 251757, Note_on_c, 0, 94, 0
6, 251769, Note_on_c, 0, 96, 0
6, 251799, Note_on_c, 0, 91, 31
6, 251859, Control_c, 0, 64, 0
6, 252045, Control_c, 0, 64, 127
6, 252231, Control_c, 0, 64, 0
6, 252499, Note_on_c, 0, 56, 28
6, 252500, Note_on_c, 0, 62, 34
6, 252505, Note_on_c, 0, 67, 27
6, 252520, Note_on_c, 0, 55, 24
6, 252545, Note_on_c, 0, 67, 0
6, 252553, Note_on_c, 0, 91, 0
6, 252553, Note_on_c, 0, 55, 0
6, 252559, Note_on_c, 0, 62, 0
6, 252578, Note_on_c, 0, 56, 0
6, 252761, Note_on_c, 0, 62, 29
6, 252762, Note_on_c, 0, 56, 27
6, 252768, Note_on_c, 0, 67, 29
6, 252770, Note_on_c, 0, 55, 33
6, 252824, Note_on_c, 0, 67, 0
6, 252828, Note_on_c, 0, 62, 0
6, 252830, Note_on_c, 0, 55, 0
6, 252840, Note_on_c, 0, 56, 0
6, 253035, Note_on_c, 0, 62, 23
6, 253039, Note_on_c, 0, 56, 30
6, 253044, Note_on_c, 0, 55, 25
6, 253044, Note_on_c, 0, 67, 21
6, 253068, Control_c, 0, 64, 127
6, 253295, Note_on_c, 0, 62, 0
6, 253310, Note_on_c, 0, 67, 0
6, 253362, Note_on_c, 0, 56, 0
6, 253376, Note_on_c, 0, 55, 0
6, 253479, Note_on_c, 0, 64, 33
6, 253501, Note_on_c, 0, 60, 22
6, 253509, Note_on_c, 0, 64, 0
6, 253514, Control_c, 0, 64, 0
6, 253528, Note_on_c, 0, 60, 0
6, 254069, Note_on_c, 0, 55, 18
6, 254101, Note_on_c, 0, 55, 0
6, 254302, Note_on_c, 0, 62, 23
6, 254311, Note_on_c, 0, 58, 25
6, 254324, Note_on_c, 0, 57, 24
6, 254360, Note_on_c, 0, 57, 0
6, 254376, Note_on_c, 0, 62, 0
6, 254403, Note_on_c, 0, 58, 0
6, 254614, Note_on_c, 0, 62, 25
6, 254623, Note_on_c, 0, 58, 25
6, 254630, Note_on_c, 0, 57, 24
6, 254765, Note_on_c, 0, 58, 0
6, 254766, Note_on_c, 0, 57, 0
6, 254768, Note_on_c, 0, 62, 0
6, 254785, Control_c, 0, 64, 127
6, 254902, Control_c, 0, 64, 0
6, 254902, Note_on_c, 0, 62, 21
6, 254912, Note_on_c, 0, 58, 22
6, 254923, Note_on_c, 0, 57, 18
6, 255004, Control_c, 0, 64, 127
6, 255172, Note_on_c, 0, 62, 0
6, 255203, Note_on_c, 0, 58, 0
6, 255218, Note_on_c, 0, 57, 0
6, 255877, Control_c, 0, 64, 0
6, 256147, Note_on_c, 0, 60, 20
6, 256149, Note_on_c, 0, 55, 18
6, 256157, Note_on_c, 0, 56, 17
6, 256708, Control_c, 0, 64, 127
6, 256873, Control_c, 0, 64, 0
6, 257045, Control_c, 0, 64, 127
6, 257290, Note_on_c, 0, 43, 12
6, 257753, Note_on_c, 0, 56, 0
6, 257793, Note_on_c, 0, 55, 0
6, 257812, Note_on_c, 0, 60, 0
6, 257994, Note_on_c, 0, 43, 0
6, 258088, Control_c, 0, 64, 0
6, 258089, Note_on_c, 0, 62, 14
6, 258094, Note_on_c, 0, 58, 13
6, 258100, Note_on_c, 0, 43, 10
6, 258102, Note_on_c, 0, 53, 7
6, 258126, Note_on_c, 0, 31, 11
6, 258212, Control_c, 0, 64, 127
6, 258263, Note_on_c, 0, 31, 0
6, 258263, Note_on_c, 0, 53, 0
6, 258318, Note_on_c, 0, 43, 0
6, 258321, Note_on_c, 0, 58, 0
6, 258337, Note_on_c, 0, 62, 0
6, 258734, Note_on_c, 0, 72, 21
6, 258761, Note_on_c, 0, 69, 20
6, 258779, Note_on_c, 0, 65, 14
6, 258789, Note_on_c, 0, 62, 12
6, 258793, Note_on_c, 0, 58, 8
6, 258796, Control_c, 0, 64, 0
6, 258812, Note_on_c, 0, 60, 10
6, 258919, Control_c, 0, 64, 127
6, 259052, Note_on_c, 0, 65, 0
6, 259094, Note_on_c, 0, 72, 0
6, 259094, Note_on_c, 0, 69, 0
6, 259131, Note_on_c, 0, 62, 0
6, 259213, Note_on_c, 0, 60, 0
6, 259255, Note_on_c, 0, 83, 15
6, 259284, Note_on_c, 0, 58, 0
6, 259302, Note_on_c, 0, 72, 11
6, 259387, Note_on_c, 0, 83, 0
6, 259423, Note_on_c, 0, 72, 0
6, 259837, Note_on_c, 0, 77, 15
6, 259850, Note_on_c, 0, 62, 10
6, 259870, Note_on_c, 0, 72, 8
6, 259916, Note_on_c, 0, 62, 0
6, 259969, Note_on_c, 0, 77, 0
6, 259987, Note_on_c, 0, 72, 0
6, 261151, Note_on_c, 0, 67, 12
6, 261172, Control_c, 0, 64, 0
6, 261175, Note_on_c, 0, 56, 5
6, 261176, Note_on_c, 0, 55, 8
6, 261177, Note_on_c, 0, 62, 6
6, 261183, Note_on_c, 0, 60, 7
6, 261537, Note_on_c, 0, 43, 5
6, 261719, Note_on_c, 0, 55, 0
6, 261721, Control_c, 0, 64, 127
6, 261829, Note_on_c, 0, 60, 0
6, 261956, Note_on_c, 0, 43, 0
6, 262182, Note_on_c, 0, 56, 0
6, 262232, Note_on_c, 0, 62, 0
6, 262317, Note_on_c, 0, 67, 0
6, 262688, Note_on_c, 0, 62, 3
6, 262689, Control_c, 0, 64, 0
6, 262690, Note_on_c, 0, 58, 4
6, 262696, Note_on_c, 0, 53, 3
6, 262702, Note_on_c, 0, 31, 3
6, 262708, Note_on_c, 0, 55, 2
6, 262709, Note_on_c, 0, 43, 2
6, 262875, Control_c, 0, 64, 127
6, 263060, Note_on_c, 0, 55, 0
6, 263065, Note_on_c, 0, 53, 0
6, 263089, Note_on_c, 0, 58, 0
6, 263111, Note_on_c, 0, 62, 0
6, 263150, Note_on_c, 0, 31, 0
6, 263160, Note_on_c, 0, 43, 0
6, 264063, Control_c, 0, 64, 0
6, 264063, End_track
0, 0, End_of_file
