0, 0, Header, 1, 11, 120
1, 0, Start_track
1, 0, Title_t, "Recardo Bossa Nova"
1, 0, Text_t, "Sequence by DougMck\012"
1, 0, Text_t, "dougmck@pipeline.com.au\012"
1, 0, Time_signature, 2, 2, 24, 8
1, 0, Key_signature, -2, "major"
1, 0, Tempo, 545455
1, 0, Marker_t, "dougmck@pipeline.com.au"
1, 13440, Marker_t, "Surround tones on Gm triad"
1, 45710, Marker_t, "Surround tones on Cm triad"
1, 45710, End_track
2, 0, Start_track
2, 0, Program_c, 0, 0
2, 0, Note_on_c, 0, 67, 64
2, 0, Note_on_c, 0, 67, 0
2, 6, Note_on_c, 0, 67, 63
2, 89, Note_on_c, 0, 67, 0
2, 121, Note_on_c, 0, 75, 77
2, 201, Note_on_c, 0, 75, 0
2, 211, Note_on_c, 0, 74, 55
2, 233, Note_on_c, 0, 74, 0
2, 267, Note_on_c, 0, 54, 79
2, 344, Note_on_c, 0, 54, 0
2, 354, Note_on_c, 0, 53, 43
2, 361, Note_on_c, 0, 58, 37
2, 361, Note_on_c, 0, 62, 38
2, 376, Note_on_c, 0, 62, 0
2, 383, Note_on_c, 0, 58, 0
2, 386, Note_on_c, 0, 53, 0
2, 417, Note_on_c, 0, 53, 55
2, 419, Note_on_c, 0, 58, 52
2, 421, Note_on_c, 0, 62, 41
2, 435, Note_on_c, 0, 53, 0
2, 443, Note_on_c, 0, 62, 0
2, 453, Note_on_c, 0, 58, 0
2, 479, Note_on_c, 0, 60, 49
2, 481, Note_on_c, 0, 54, 46
2, 583, Note_on_c, 0, 60, 0
2, 596, Note_on_c, 0, 62, 47
2, 598, Note_on_c, 0, 60, 20
2, 621, Note_on_c, 0, 62, 0
2, 642, Note_on_c, 0, 54, 0
2, 655, Note_on_c, 0, 60, 0
2, 656, Note_on_c, 0, 66, 79
2, 682, Note_on_c, 0, 66, 0
2, 695, Note_on_c, 0, 75, 83
2, 699, Note_on_c, 0, 62, 56
2, 701, Note_on_c, 0, 54, 48
2, 702, Note_on_c, 0, 60, 43
2, 705, Note_on_c, 0, 62, 0
2, 708, Note_on_c, 0, 60, 0
2, 715, Note_on_c, 0, 54, 0
2, 723, Note_on_c, 0, 75, 0
2, 756, Note_on_c, 0, 74, 79
2, 783, Note_on_c, 0, 74, 0
2, 816, Note_on_c, 0, 73, 71
2, 832, Note_on_c, 0, 73, 0
2, 843, Note_on_c, 0, 74, 69
2, 843, Note_on_c, 0, 60, 34
2, 844, Note_on_c, 0, 62, 36
2, 846, Note_on_c, 0, 54, 34
2, 864, Note_on_c, 0, 62, 0
2, 864, Note_on_c, 0, 60, 0
2, 887, Note_on_c, 0, 54, 0
2, 963, Note_on_c, 0, 53, 44
2, 965, Note_on_c, 0, 74, 0
2, 966, Note_on_c, 0, 59, 31
2, 968, Note_on_c, 0, 62, 24
2, 979, Note_on_c, 0, 62, 0
2, 981, Note_on_c, 0, 59, 0
2, 981, Note_on_c, 0, 53, 0
2, 1057, Note_on_c, 0, 62, 52
2, 1059, Note_on_c, 0, 53, 32
2, 1060, Note_on_c, 0, 59, 47
2, 1060, Note_on_c, 0, 56, 35
2, 1064, Note_on_c, 0, 62, 0
2, 1066, Note_on_c, 0, 59, 0
2, 1067, Note_on_c, 0, 53, 0
2, 1077, Note_on_c, 0, 56, 0
2, 1115, Note_on_c, 0, 65, 66
2, 1127, Note_on_c, 0, 65, 0
2, 1141, Note_on_c, 0, 67, 66
2, 1160, Note_on_c, 0, 67, 0
2, 1198, Note_on_c, 0, 62, 54
2, 1199, Note_on_c, 0, 71, 89
2, 1200, Note_on_c, 0, 56, 33
2, 1200, Note_on_c, 0, 53, 46
2, 1201, Note_on_c, 0, 59, 50
2, 1214, Note_on_c, 0, 62, 0
2, 1216, Note_on_c, 0, 71, 0
2, 1218, Note_on_c, 0, 53, 0
2, 1226, Note_on_c, 0, 59, 0
2, 1241, Note_on_c, 0, 56, 0
2, 1262, Note_on_c, 0, 74, 110
2, 1266, Note_on_c, 0, 73, 54
2, 1272, Note_on_c, 0, 73, 0
2, 1299, Note_on_c, 0, 74, 0
2, 1323, Note_on_c, 0, 62, 46
2, 1323, Note_on_c, 0, 53, 46
2, 1325, Note_on_c, 0, 71, 77
2, 1325, Note_on_c, 0, 56, 33
2, 1327, Note_on_c, 0, 59, 40
2, 1336, Note_on_c, 0, 62, 0
2, 1348, Note_on_c, 0, 71, 0
2, 1355, Note_on_c, 0, 59, 0
2, 1358, Note_on_c, 0, 68, 56
2, 1359, Note_on_c, 0, 53, 0
2, 1370, Note_on_c, 0, 56, 0
2, 1378, Note_on_c, 0, 68, 0
2, 1391, Note_on_c, 0, 65, 40
2, 1405, Note_on_c, 0, 65, 0
2, 1426, Note_on_c, 0, 64, 67
2, 1432, Note_on_c, 0, 64, 0
2, 1446, Note_on_c, 0, 51, 31
2, 1452, Note_on_c, 0, 57, 32
2, 1452, Note_on_c, 0, 55, 36
2, 1457, Note_on_c, 0, 63, 54
2, 1464, Note_on_c, 0, 51, 0
2, 1472, Note_on_c, 0, 55, 0
2, 1477, Note_on_c, 0, 57, 0
2, 1493, Note_on_c, 0, 63, 0
2, 1589, Note_on_c, 0, 53, 64
2, 1589, Note_on_c, 0, 63, 56
2, 1591, Note_on_c, 0, 58, 46
2, 1594, Note_on_c, 0, 53, 0
2, 1595, Note_on_c, 0, 63, 0
2, 1602, Note_on_c, 0, 58, 0
2, 1647, Note_on_c, 0, 74, 83
2, 1666, Note_on_c, 0, 74, 0
2, 1678, Note_on_c, 0, 72, 79
2, 1737, Note_on_c, 0, 63, 49
2, 1737, Note_on_c, 0, 67, 55
2, 1744, Note_on_c, 0, 67, 0
2, 1751, Note_on_c, 0, 63, 0
2, 1772, Note_on_c, 0, 63, 50
2, 1773, Note_on_c, 0, 58, 60
2, 1773, Note_on_c, 0, 67, 58
2, 1781, Note_on_c, 0, 67, 0
2, 1785, Note_on_c, 0, 58, 0
2, 1785, Note_on_c, 0, 63, 0
2, 1832, Note_on_c, 0, 58, 64
2, 1832, Note_on_c, 0, 63, 61
2, 1833, Note_on_c, 0, 67, 57
2, 1839, Note_on_c, 0, 67, 0
2, 1844, Note_on_c, 0, 58, 0
2, 1845, Note_on_c, 0, 63, 0
2, 1858, Note_on_c, 0, 63, 46
2, 1860, Note_on_c, 0, 58, 57
2, 1861, Note_on_c, 0, 67, 34
2, 1868, Note_on_c, 0, 67, 0
2, 1874, Note_on_c, 0, 58, 0
2, 1876, Note_on_c, 0, 63, 0
2, 1916, Note_on_c, 0, 59, 68
2, 1984, Note_on_c, 0, 67, 38
2, 1984, Note_on_c, 0, 63, 37
2, 1993, Note_on_c, 0, 59, 0
2, 1998, Note_on_c, 0, 72, 0
2, 2017, Note_on_c, 0, 58, 68
2, 2033, Note_on_c, 0, 67, 0
2, 2034, Note_on_c, 0, 63, 0
2, 2075, Note_on_c, 0, 63, 55
2, 2078, Note_on_c, 0, 67, 44
2, 2094, Note_on_c, 0, 58, 0
2, 2129, Note_on_c, 0, 57, 58
2, 2138, Note_on_c, 0, 67, 0
2, 2147, Note_on_c, 0, 63, 0
2, 2186, Note_on_c, 0, 84, 79
2, 2186, Note_on_c, 0, 63, 55
2, 2189, Note_on_c, 0, 67, 32
2, 2195, Note_on_c, 0, 67, 0
2, 2200, Note_on_c, 0, 84, 0
2, 2204, Note_on_c, 0, 63, 0
2, 2207, Note_on_c, 0, 57, 0
2, 2213, Note_on_c, 0, 86, 73
2, 2226, Note_on_c, 0, 86, 0
2, 2244, Note_on_c, 0, 87, 95
2, 2262, Note_on_c, 0, 87, 0
2, 2274, Note_on_c, 0, 65, 62
2, 2275, Note_on_c, 0, 60, 53
2, 2276, Note_on_c, 0, 86, 85
2, 2277, Note_on_c, 0, 54, 52
2, 2277, Note_on_c, 0, 58, 42
2, 2299, Note_on_c, 0, 86, 0
2, 2312, Note_on_c, 0, 87, 53
2, 2313, Note_on_c, 0, 65, 0
2, 2318, Note_on_c, 0, 86, 64
2, 2325, Note_on_c, 0, 60, 0
2, 2325, Note_on_c, 0, 87, 0
2, 2342, Note_on_c, 0, 86, 0
2, 2342, Note_on_c, 0, 84, 49
2, 2351, Note_on_c, 0, 58, 0
2, 2357, Note_on_c, 0, 54, 0
2, 2360, Note_on_c, 0, 84, 0
2, 2371, Note_on_c, 0, 82, 61
2, 2390, Note_on_c, 0, 62, 39
2, 2392, Note_on_c, 0, 57, 29
2, 2393, Note_on_c, 0, 58, 25
2, 2393, Note_on_c, 0, 55, 38
2, 2394, Note_on_c, 0, 82, 0
2, 2405, Note_on_c, 0, 81, 22
2, 2426, Note_on_c, 0, 81, 0
2, 2437, Note_on_c, 0, 86, 60
2, 2438, Note_on_c, 0, 84, 62
2, 2448, Note_on_c, 0, 86, 0
2, 2449, Note_on_c, 0, 84, 0
2, 2459, Note_on_c, 0, 57, 0
2, 2461, Note_on_c, 0, 62, 0
2, 2467, Note_on_c, 0, 82, 53
2, 2479, Note_on_c, 0, 55, 0
2, 2483, Note_on_c, 0, 58, 0
2, 2496, Note_on_c, 0, 82, 0
2, 2518, Note_on_c, 0, 62, 58
2, 2520, Note_on_c, 0, 58, 36
2, 2521, Note_on_c, 0, 57, 48
2, 2525, Note_on_c, 0, 55, 25
2, 2528, Note_on_c, 0, 57, 0
2, 2533, Note_on_c, 0, 55, 0
2, 2533, Note_on_c, 0, 62, 0
2, 2541, Note_on_c, 0, 58, 0
2, 2555, Note_on_c, 0, 82, 75
2, 2556, Note_on_c, 0, 70, 74
2, 2569, Note_on_c, 0, 70, 0
2, 2575, Note_on_c, 0, 82, 0
2, 2584, Note_on_c, 0, 69, 57
2, 2585, Note_on_c, 0, 81, 32
2, 2594, Note_on_c, 0, 81, 0
2, 2594, Note_on_c, 0, 69, 0
2, 2614, Note_on_c, 0, 70, 73
2, 2614, Note_on_c, 0, 82, 82
2, 2617, Note_on_c, 0, 58, 64
2, 2619, Note_on_c, 0, 62, 64
2, 2626, Note_on_c, 0, 70, 0
2, 2629, Note_on_c, 0, 62, 0
2, 2633, Note_on_c, 0, 58, 0
2, 2639, Note_on_c, 0, 82, 0
2, 2644, Note_on_c, 0, 70, 48
2, 2660, Note_on_c, 0, 70, 0
2, 2660, Note_on_c, 0, 82, 42
2, 2676, Note_on_c, 0, 70, 30
2, 2679, Note_on_c, 0, 82, 0
2, 2698, Note_on_c, 0, 82, 21
2, 2702, Note_on_c, 0, 70, 0
2, 2706, Note_on_c, 0, 82, 0
2, 2722, Note_on_c, 0, 58, 53
2, 2724, Note_on_c, 0, 62, 56
2, 2724, Note_on_c, 0, 53, 56
2, 2777, Note_on_c, 0, 58, 0
2, 2791, Note_on_c, 0, 81, 64
2, 2792, Note_on_c, 0, 58, 43
2, 2793, Note_on_c, 0, 69, 59
2, 2797, Note_on_c, 0, 81, 0
2, 2799, Note_on_c, 0, 69, 0
2, 2800, Note_on_c, 0, 62, 0
2, 2807, Note_on_c, 0, 58, 0
2, 2819, Note_on_c, 0, 70, 56
2, 2820, Note_on_c, 0, 82, 60
2, 2833, Note_on_c, 0, 70, 0
2, 2834, Note_on_c, 0, 82, 0
2, 2837, Note_on_c, 0, 53, 0
2, 2856, Note_on_c, 0, 84, 47
2, 2859, Note_on_c, 0, 72, 41
2, 2861, Note_on_c, 0, 84, 0
2, 2864, Note_on_c, 0, 72, 0
2, 2881, Note_on_c, 0, 55, 42
2, 2881, Note_on_c, 0, 60, 54
2, 2882, Note_on_c, 0, 81, 65
2, 2882, Note_on_c, 0, 69, 69
2, 2884, Note_on_c, 0, 63, 42
2, 2889, Note_on_c, 0, 57, 30
2, 2953, Note_on_c, 0, 55, 0
2, 2955, Note_on_c, 0, 63, 0
2, 2955, Note_on_c, 0, 57, 0
2, 2959, Note_on_c, 0, 60, 0
2, 2961, Note_on_c, 0, 69, 0
2, 2973, Note_on_c, 0, 76, 58
2, 2976, Note_on_c, 0, 63, 45
2, 2977, Note_on_c, 0, 69, 30
2, 2979, Note_on_c, 0, 60, 61
2, 2979, Note_on_c, 0, 55, 41
2, 3000, Note_on_c, 0, 57, 25
2, 3010, Note_on_c, 0, 60, 0
2, 3014, Note_on_c, 0, 57, 0
2, 3016, Note_on_c, 0, 55, 0
2, 3018, Note_on_c, 0, 63, 0
2, 3022, Note_on_c, 0, 69, 0
2, 3029, Note_on_c, 0, 76, 0
2, 3030, Note_on_c, 0, 81, 0
2, 3063, Note_on_c, 0, 61, 74
2, 3064, Note_on_c, 0, 60, 82
2, 3064, Note_on_c, 0, 81, 94
2, 3064, Note_on_c, 0, 55, 77
2, 3064, Note_on_c, 0, 69, 99
2, 3064, Note_on_c, 0, 65, 89
2, 3067, Note_on_c, 0, 76, 62
2, 3067, Note_on_c, 0, 58, 51
2, 3072, Note_on_c, 0, 76, 0
2, 3127, Control_c, 0, 64, 127
2, 3137, Note_on_c, 0, 69, 0
2, 3141, Note_on_c, 0, 55, 0
2, 3142, Note_on_c, 0, 65, 0
2, 3145, Note_on_c, 0, 60, 0
2, 3146, Note_on_c, 0, 58, 0
2, 3146, Note_on_c, 0, 61, 0
2, 3159, Note_on_c, 0, 65, 75
2, 3160, Note_on_c, 0, 61, 56
2, 3160, Note_on_c, 0, 77, 72
2, 3160, Note_on_c, 0, 72, 78
2, 3160, Note_on_c, 0, 60, 78
2, 3160, Note_on_c, 0, 55, 64
2, 3165, Note_on_c, 0, 58, 44
2, 3179, Control_c, 0, 64, 0
2, 3199, Note_on_c, 0, 81, 0
2, 3200, Note_on_c, 0, 77, 0
2, 3204, Note_on_c, 0, 72, 0
2, 3205, Note_on_c, 0, 55, 0
2, 3207, Note_on_c, 0, 65, 0
2, 3210, Note_on_c, 0, 60, 0
2, 3212, Note_on_c, 0, 58, 0
2, 3213, Note_on_c, 0, 61, 0
2, 3243, Note_on_c, 0, 61, 68
2, 3244, Note_on_c, 0, 69, 68
2, 3244, Note_on_c, 0, 60, 72
2, 3244, Note_on_c, 0, 72, 70
2, 3245, Note_on_c, 0, 65, 81
2, 3246, Note_on_c, 0, 55, 76
2, 3249, Note_on_c, 0, 58, 37
2, 3262, Control_c, 0, 64, 127
2, 3277, Note_on_c, 0, 72, 0
2, 3284, Note_on_c, 0, 69, 0
2, 3289, Note_on_c, 0, 65, 0
2, 3296, Note_on_c, 0, 60, 0
2, 3300, Note_on_c, 0, 61, 0
2, 3303, Note_on_c, 0, 58, 0
2, 3304, Note_on_c, 0, 55, 0
2, 3336, Note_on_c, 0, 70, 59
2, 3336, Note_on_c, 0, 65, 66
2, 3338, Note_on_c, 0, 54, 72
2, 3339, Note_on_c, 0, 60, 64
2, 3341, Control_c, 0, 64, 0
2, 3358, Control_c, 0, 64, 127
2, 3371, Note_on_c, 0, 65, 0
2, 3372, Note_on_c, 0, 70, 0
2, 3380, Note_on_c, 0, 60, 0
2, 3382, Note_on_c, 0, 54, 0
2, 3425, Note_on_c, 0, 54, 80
2, 3425, Note_on_c, 0, 74, 80
2, 3426, Note_on_c, 0, 81, 82
2, 3426, Control_c, 0, 64, 0
2, 3426, Note_on_c, 0, 60, 76
2, 3427, Note_on_c, 0, 65, 83
2, 3427, Note_on_c, 0, 77, 66
2, 3431, Note_on_c, 0, 58, 45
2, 3452, Note_on_c, 0, 77, 0
2, 3455, Note_on_c, 0, 81, 0
2, 3456, Note_on_c, 0, 74, 0
2, 3458, Control_c, 0, 64, 127
2, 3471, Note_on_c, 0, 65, 0
2, 3482, Note_on_c, 0, 54, 0
2, 3486, Note_on_c, 0, 58, 0
2, 3486, Note_on_c, 0, 60, 0
2, 3513, Note_on_c, 0, 69, 67
2, 3513, Note_on_c, 0, 66, 50
2, 3514, Note_on_c, 0, 54, 77
2, 3515, Note_on_c, 0, 72, 58
2, 3515, Note_on_c, 0, 60, 64
2, 3516, Control_c, 0, 64, 0
2, 3530, Note_on_c, 0, 60, 0
2, 3532, Control_c, 0, 64, 127
2, 3536, Note_on_c, 0, 72, 0
2, 3537, Note_on_c, 0, 69, 0
2, 3541, Note_on_c, 0, 54, 0
2, 3544, Note_on_c, 0, 66, 0
2, 3597, Control_c, 0, 64, 0
2, 3601, Note_on_c, 0, 69, 73
2, 3601, Note_on_c, 0, 60, 74
2, 3602, Note_on_c, 0, 65, 64
2, 3610, Note_on_c, 0, 60, 0
2, 3612, Note_on_c, 0, 65, 0
2, 3616, Note_on_c, 0, 69, 0
2, 3637, Note_on_c, 0, 50, 75
2, 3748, Note_on_c, 0, 65, 68
2, 3749, Note_on_c, 0, 60, 71
2, 3763, Note_on_c, 0, 65, 0
2, 3772, Note_on_c, 0, 60, 0
2, 3778, Note_on_c, 0, 58, 42
2, 3791, Note_on_c, 0, 50, 0
2, 3813, Note_on_c, 0, 50, 38
2, 3827, Note_on_c, 0, 50, 0
2, 3829, Note_on_c, 0, 58, 0
2, 3839, Note_on_c, 0, 43, 47
2, 3846, Note_on_c, 0, 50, 10
2, 3847, Note_on_c, 0, 57, 41
2, 3862, Note_on_c, 0, 57, 0
2, 3903, Note_on_c, 0, 56, 71
2, 3905, Note_on_c, 0, 62, 64
2, 3907, Note_on_c, 0, 50, 0
2, 3931, Note_on_c, 0, 62, 0
2, 3932, Note_on_c, 0, 43, 0
2, 3941, Note_on_c, 0, 56, 0
2, 3968, Note_on_c, 0, 55, 44
2, 3983, Note_on_c, 0, 55, 0
2, 3999, Note_on_c, 0, 43, 42
2, 4006, Note_on_c, 0, 43, 0
2, 4050, Note_on_c, 0, 63, 73
2, 4072, Note_on_c, 0, 63, 0
2, 4084, Note_on_c, 0, 62, 59
2, 4103, Note_on_c, 0, 62, 0
2, 4172, Note_on_c, 0, 57, 37
2, 4172, Note_on_c, 0, 58, 46
2, 4174, Note_on_c, 0, 62, 29
2, 4180, Note_on_c, 0, 62, 0
2, 4181, Note_on_c, 0, 57, 0
2, 4187, Note_on_c, 0, 58, 0
2, 4232, Note_on_c, 0, 75, 79
2, 4251, Note_on_c, 0, 75, 0
2, 4263, Note_on_c, 0, 74, 44
2, 4282, Note_on_c, 0, 74, 0
2, 4365, Note_on_c, 0, 62, 57
2, 4366, Note_on_c, 0, 60, 44
2, 4367, Note_on_c, 0, 54, 36
2, 4370, Note_on_c, 0, 62, 0
2, 4372, Note_on_c, 0, 60, 0
2, 4380, Note_on_c, 0, 54, 0
2, 4438, Note_on_c, 0, 78, 69
2, 4439, Note_on_c, 0, 66, 60
2, 4448, Note_on_c, 0, 66, 0
2, 4456, Note_on_c, 0, 78, 0
2, 4477, Note_on_c, 0, 60, 32
2, 4483, Note_on_c, 0, 60, 0
2, 4497, Note_on_c, 0, 87, 90
2, 4497, Note_on_c, 0, 75, 84
2, 4523, Note_on_c, 0, 87, 0
2, 4524, Note_on_c, 0, 75, 0
2, 4556, Note_on_c, 0, 86, 62
2, 4556, Note_on_c, 0, 73, 59
2, 4585, Note_on_c, 0, 73, 0
2, 4586, Note_on_c, 0, 86, 0
2, 4649, Note_on_c, 0, 62, 53
2, 4650, Note_on_c, 0, 58, 38
2, 4653, Note_on_c, 0, 60, 29
2, 4655, Note_on_c, 0, 62, 0
2, 4658, Note_on_c, 0, 60, 0
2, 4665, Note_on_c, 0, 58, 0
2, 4711, Note_on_c, 0, 58, 40
2, 4712, Note_on_c, 0, 62, 49
2, 4714, Note_on_c, 0, 54, 36
2, 4719, Note_on_c, 0, 60, 24
2, 4760, Note_on_c, 0, 60, 0
2, 4785, Note_on_c, 0, 54, 0
2, 4791, Note_on_c, 0, 58, 0
2, 4803, Note_on_c, 0, 62, 0
2, 4804, Note_on_c, 0, 53, 47
2, 4886, Note_on_c, 0, 77, 78
2, 4888, Note_on_c, 0, 65, 80
2, 4888, Note_on_c, 0, 71, 69
2, 4900, Note_on_c, 0, 65, 0
2, 4903, Note_on_c, 0, 71, 0
2, 4904, Note_on_c, 0, 77, 0
2, 4917, Note_on_c, 0, 77, 74
2, 4919, Note_on_c, 0, 65, 79
2, 4919, Note_on_c, 0, 71, 60
2, 4920, Note_on_c, 0, 62, 42
2, 4962, Note_on_c, 0, 71, 0
2, 4963, Note_on_c, 0, 65, 0
2, 4964, Note_on_c, 0, 62, 0
2, 4967, Note_on_c, 0, 77, 0
2, 4974, Note_on_c, 0, 74, 35
2, 4998, Note_on_c, 0, 74, 0
2, 5008, Note_on_c, 0, 77, 72
2, 5010, Note_on_c, 0, 65, 66
2, 5011, Note_on_c, 0, 71, 58
2, 5015, Note_on_c, 0, 62, 36
2, 5015, Note_on_c, 0, 59, 41
2, 5022, Note_on_c, 0, 65, 0
2, 5024, Note_on_c, 0, 62, 0
2, 5025, Note_on_c, 0, 77, 0
2, 5030, Note_on_c, 0, 71, 0
2, 5039, Note_on_c, 0, 77, 57
2, 5042, Note_on_c, 0, 65, 57
2, 5043, Note_on_c, 0, 71, 58
2, 5044, Note_on_c, 0, 59, 0
2, 5053, Note_on_c, 0, 53, 0
2, 5072, Note_on_c, 0, 71, 0
2, 5077, Note_on_c, 0, 65, 0
2, 5084, Note_on_c, 0, 77, 0
2, 5095, Note_on_c, 0, 74, 32
2, 5122, Note_on_c, 0, 74, 0
2, 5131, Note_on_c, 0, 68, 57
2, 5135, Note_on_c, 0, 62, 44
2, 5137, Note_on_c, 0, 56, 34
2, 5153, Note_on_c, 0, 68, 0
2, 5186, Note_on_c, 0, 62, 0
2, 5190, Note_on_c, 0, 65, 61
2, 5196, Note_on_c, 0, 59, 38
2, 5203, Note_on_c, 0, 59, 0
2, 5208, Note_on_c, 0, 65, 0
2, 5211, Note_on_c, 0, 56, 0
2, 5227, Note_on_c, 0, 68, 21
2, 5235, Note_on_c, 0, 68, 0
2, 5253, Note_on_c, 0, 77, 74
2, 5254, Note_on_c, 0, 76, 55
2, 5260, Note_on_c, 0, 76, 0
2, 5275, Note_on_c, 0, 77, 0
2, 5284, Note_on_c, 0, 58, 44
2, 5284, Note_on_c, 0, 48, 42
2, 5285, Note_on_c, 0, 75, 74
2, 5303, Note_on_c, 0, 48, 0
2, 5311, Note_on_c, 0, 58, 0
2, 5343, Note_on_c, 0, 67, 49
2, 5356, Note_on_c, 0, 67, 0
2, 5358, Note_on_c, 0, 75, 0
2, 5376, Note_on_c, 0, 67, 36
2, 5382, Note_on_c, 0, 67, 0
2, 5384, Note_on_c, 0, 58, 25
2, 5396, Note_on_c, 0, 58, 0
2, 5434, Note_on_c, 0, 63, 50
2, 5435, Note_on_c, 0, 67, 48
2, 5435, Note_on_c, 0, 62, 52
2, 5436, Note_on_c, 0, 73, 77
2, 5436, Note_on_c, 0, 85, 65
2, 5437, Note_on_c, 0, 58, 29
2, 5440, Note_on_c, 0, 67, 0
2, 5442, Note_on_c, 0, 62, 0
2, 5442, Note_on_c, 0, 86, 57
2, 5444, Note_on_c, 0, 58, 0
2, 5446, Note_on_c, 0, 63, 0
2, 5454, Note_on_c, 0, 85, 0
2, 5457, Note_on_c, 0, 73, 0
2, 5457, Note_on_c, 0, 74, 53
2, 5498, Note_on_c, 0, 86, 0
2, 5503, Note_on_c, 0, 74, 0
2, 5522, Note_on_c, 0, 84, 57
2, 5525, Note_on_c, 0, 67, 33
2, 5526, Note_on_c, 0, 72, 57
2, 5527, Note_on_c, 0, 62, 32
2, 5533, Note_on_c, 0, 67, 0
2, 5533, Note_on_c, 0, 63, 29
2, 5535, Note_on_c, 0, 63, 0
2, 5535, Note_on_c, 0, 62, 0
2, 5540, Note_on_c, 0, 72, 0
2, 5544, Note_on_c, 0, 84, 0
2, 5614, Note_on_c, 0, 67, 51
2, 5615, Note_on_c, 0, 58, 38
2, 5616, Note_on_c, 0, 62, 40
2, 5616, Note_on_c, 0, 63, 33
2, 5622, Note_on_c, 0, 62, 0
2, 5624, Note_on_c, 0, 67, 0
2, 5630, Note_on_c, 0, 63, 0
2, 5636, Note_on_c, 0, 58, 0
2, 5704, Note_on_c, 0, 62, 57
2, 5707, Note_on_c, 0, 51, 33
2, 5707, Note_on_c, 0, 55, 49
2, 5716, Note_on_c, 0, 57, 22
2, 5718, Note_on_c, 0, 51, 0
2, 5719, Note_on_c, 0, 62, 0
2, 5721, Note_on_c, 0, 57, 0
2, 5723, Note_on_c, 0, 55, 0
2, 5795, Note_on_c, 0, 63, 60
2, 5796, Note_on_c, 0, 58, 56
2, 5797, Note_on_c, 0, 53, 47
2, 5881, Note_on_c, 0, 84, 87
2, 5883, Note_on_c, 0, 72, 87
2, 5893, Note_on_c, 0, 72, 0
2, 5900, Note_on_c, 0, 84, 0
2, 5923, Note_on_c, 0, 86, 80
2, 5924, Note_on_c, 0, 74, 76
2, 5935, Note_on_c, 0, 74, 0
2, 5938, Note_on_c, 0, 86, 0
2, 5941, Note_on_c, 0, 53, 0
2, 5953, Note_on_c, 0, 58, 0
2, 5954, Note_on_c, 0, 63, 0
2, 5966, Note_on_c, 0, 87, 84
2, 5966, Note_on_c, 0, 75, 83
2, 5979, Note_on_c, 0, 75, 0
2, 5986, Note_on_c, 0, 87, 0
2, 6005, Note_on_c, 0, 60, 58
2, 6005, Note_on_c, 0, 55, 46
2, 6006, Note_on_c, 0, 63, 59
2, 6008, Note_on_c, 0, 89, 89
2, 6008, Note_on_c, 0, 57, 51
2, 6008, Note_on_c, 0, 77, 83
2, 6033, Note_on_c, 0, 89, 0
2, 6035, Note_on_c, 0, 77, 0
2, 6055, Note_on_c, 0, 87, 59
2, 6055, Note_on_c, 0, 75, 57
2, 6068, Note_on_c, 0, 75, 0
2, 6068, Note_on_c, 0, 55, 0
2, 6070, Note_on_c, 0, 57, 0
2, 6072, Note_on_c, 0, 60, 0
2, 6072, Note_on_c, 0, 63, 0
2, 6073, Note_on_c, 0, 87, 0
2, 6101, Note_on_c, 0, 89, 89
2, 6101, Note_on_c, 0, 77, 79
2, 6106, Note_on_c, 0, 54, 53
2, 6107, Note_on_c, 0, 65, 55
2, 6107, Note_on_c, 0, 60, 55
2, 6109, Note_on_c, 0, 58, 39
2, 6115, Note_on_c, 0, 89, 0
2, 6116, Note_on_c, 0, 77, 0
2, 6140, Note_on_c, 0, 87, 64
2, 6145, Note_on_c, 0, 75, 64
2, 6160, Note_on_c, 0, 87, 0
2, 6161, Note_on_c, 0, 75, 0
2, 6178, Note_on_c, 0, 65, 0
2, 6182, Note_on_c, 0, 86, 62
2, 6182, Note_on_c, 0, 74, 60
2, 6186, Note_on_c, 0, 84, 36
2, 6192, Note_on_c, 0, 84, 0
2, 6194, Note_on_c, 0, 60, 0
2, 6196, Note_on_c, 0, 86, 0
2, 6196, Note_on_c, 0, 74, 0
2, 6203, Note_on_c, 0, 58, 0
2, 6215, Note_on_c, 0, 54, 0
2, 6216, Note_on_c, 0, 84, 60
2, 6220, Note_on_c, 0, 72, 62
2, 6231, Note_on_c, 0, 72, 0
2, 6231, Note_on_c, 0, 84, 0
2, 6247, Note_on_c, 0, 53, 32
2, 6248, Note_on_c, 0, 58, 34
2, 6249, Note_on_c, 0, 57, 32
2, 6249, Note_on_c, 0, 62, 43
2, 6253, Note_on_c, 0, 55, 36
2, 6259, Note_on_c, 0, 69, 60
2, 6263, Note_on_c, 0, 81, 38
2, 6275, Note_on_c, 0, 53, 0
2, 6289, Note_on_c, 0, 81, 0
2, 6290, Note_on_c, 0, 69, 0
2, 6307, Note_on_c, 0, 81, 38
2, 6308, Note_on_c, 0, 69, 48
2, 6313, Note_on_c, 0, 57, 0
2, 6320, Note_on_c, 0, 62, 0
2, 6322, Note_on_c, 0, 55, 0
2, 6325, Note_on_c, 0, 69, 0
2, 6327, Note_on_c, 0, 58, 0
2, 6334, Note_on_c, 0, 81, 0
2, 6349, Note_on_c, 0, 62, 40
2, 6350, Note_on_c, 0, 58, 33
2, 6354, Note_on_c, 0, 55, 34
2, 6355, Note_on_c, 0, 57, 35
2, 6398, Note_on_c, 0, 82, 75
2, 6408, Note_on_c, 0, 62, 0
2, 6414, Note_on_c, 0, 57, 0
2, 6417, Note_on_c, 0, 82, 0
2, 6424, Note_on_c, 0, 58, 0
2, 6427, Note_on_c, 0, 81, 62
2, 6440, Note_on_c, 0, 55, 0
2, 6456, Note_on_c, 0, 81, 0
2, 6480, Note_on_c, 0, 79, 53
2, 6481, Note_on_c, 0, 62, 60
2, 6481, Note_on_c, 0, 54, 54
2, 6483, Note_on_c, 0, 58, 47
2, 6555, Note_on_c, 0, 62, 0
2, 6560, Note_on_c, 0, 58, 0
2, 6561, Note_on_c, 0, 54, 0
2, 6575, Note_on_c, 0, 58, 49
2, 6576, Note_on_c, 0, 53, 60
2, 6577, Note_on_c, 0, 62, 33
2, 6615, Note_on_c, 0, 79, 0
2, 6622, Note_on_c, 0, 58, 0
2, 6629, Note_on_c, 0, 58, 20
2, 6630, Note_on_c, 0, 82, 83
2, 6647, Note_on_c, 0, 62, 0
2, 6649, Note_on_c, 0, 53, 0
2, 6655, Note_on_c, 0, 82, 0
2, 6662, Note_on_c, 0, 58, 0
2, 6663, Note_on_c, 0, 81, 55
2, 6682, Note_on_c, 0, 81, 0
2, 6690, Note_on_c, 0, 79, 54
2, 6708, Note_on_c, 0, 79, 0
2, 6729, Note_on_c, 0, 80, 33
2, 6741, Note_on_c, 0, 80, 0
2, 6784, Note_on_c, 0, 87, 87
2, 6784, Note_on_c, 0, 75, 83
2, 6789, Note_on_c, 0, 55, 38
2, 6795, Note_on_c, 0, 55, 0
2, 6807, Note_on_c, 0, 87, 0
2, 6808, Note_on_c, 0, 75, 0
2, 6843, Note_on_c, 0, 84, 60
2, 6847, Note_on_c, 0, 72, 53
2, 6858, Note_on_c, 0, 84, 0
2, 6860, Note_on_c, 0, 72, 0
2, 6880, Note_on_c, 0, 68, 48
2, 6886, Note_on_c, 0, 68, 0
2, 6929, Note_on_c, 0, 81, 62
2, 6931, Note_on_c, 0, 69, 55
2, 6939, Note_on_c, 0, 69, 0
2, 6941, Note_on_c, 0, 81, 0
2, 6965, Note_on_c, 0, 78, 40
2, 6966, Note_on_c, 0, 66, 40
2, 6969, Note_on_c, 0, 54, 33
2, 6972, Note_on_c, 0, 60, 29
2, 6995, Note_on_c, 0, 66, 0
2, 6998, Note_on_c, 0, 60, 0
2, 6999, Note_on_c, 0, 78, 0
2, 7022, Note_on_c, 0, 54, 0
2, 7046, Note_on_c, 0, 54, 50
2, 7047, Note_on_c, 0, 60, 38
2, 7049, Note_on_c, 0, 64, 29
2, 7055, Note_on_c, 0, 60, 0
2, 7056, Note_on_c, 0, 64, 0
2, 7065, Note_on_c, 0, 54, 0
2, 7106, Note_on_c, 0, 79, 62
2, 7108, Note_on_c, 0, 64, 54
2, 7109, Note_on_c, 0, 54, 43
2, 7111, Note_on_c, 0, 60, 44
2, 7112, Note_on_c, 0, 58, 33
2, 7115, Note_on_c, 0, 64, 0
2, 7117, Note_on_c, 0, 60, 0
2, 7121, Note_on_c, 0, 79, 0
2, 7136, Note_on_c, 0, 81, 50
2, 7143, Note_on_c, 0, 58, 0
2, 7147, Note_on_c, 0, 54, 0
2, 7153, Note_on_c, 0, 81, 0
2, 7166, Note_on_c, 0, 82, 60
2, 7179, Note_on_c, 0, 82, 0
2, 7192, Note_on_c, 0, 62, 35
2, 7196, Note_on_c, 0, 58, 26
2, 7197, Note_on_c, 0, 55, 27
2, 7197, Note_on_c, 0, 57, 31
2, 7197, Note_on_c, 0, 81, 54
2, 7258, Note_on_c, 0, 62, 0
2, 7259, Note_on_c, 0, 57, 0
2, 7262, Note_on_c, 0, 58, 0
2, 7262, Note_on_c, 0, 55, 0
2, 7277, Note_on_c, 0, 81, 0
2, 7285, Note_on_c, 0, 79, 51
2, 7288, Note_on_c, 0, 58, 34
2, 7289, Note_on_c, 0, 62, 25
2, 7297, Note_on_c, 0, 62, 0
2, 7303, Note_on_c, 0, 79, 0
2, 7307, Note_on_c, 0, 58, 0
2, 7377, Note_on_c, 0, 62, 61
2, 7379, Note_on_c, 0, 58, 42
2, 7380, Note_on_c, 0, 57, 50
2, 7382, Note_on_c, 0, 55, 34
2, 7387, Note_on_c, 0, 57, 0
2, 7390, Note_on_c, 0, 55, 0
2, 7390, Note_on_c, 0, 62, 0
2, 7396, Note_on_c, 0, 58, 0
2, 7465, Note_on_c, 0, 62, 52
2, 7470, Note_on_c, 0, 58, 31
2, 7470, Note_on_c, 0, 57, 37
2, 7477, Note_on_c, 0, 57, 0
2, 7480, Note_on_c, 0, 62, 0
2, 7485, Note_on_c, 0, 58, 0
2, 7498, Control_c, 0, 64, 127
2, 7511, Control_c, 0, 64, 0
2, 7524, Control_c, 0, 64, 127
2, 7534, Control_c, 0, 64, 0
2, 7542, Control_c, 0, 64, 127
2, 7556, Note_on_c, 0, 62, 44
2, 7559, Note_on_c, 0, 58, 33
2, 7559, Note_on_c, 0, 55, 38
2, 7560, Note_on_c, 0, 57, 40
2, 7560, Control_c, 0, 64, 0
2, 7618, Note_on_c, 0, 67, 80
2, 7618, Note_on_c, 0, 74, 62
2, 7622, Note_on_c, 0, 57, 0
2, 7628, Note_on_c, 0, 74, 0
2, 7634, Note_on_c, 0, 62, 0
2, 7635, Note_on_c, 0, 58, 0
2, 7635, Note_on_c, 0, 55, 0
2, 7636, Note_on_c, 0, 67, 0
2, 7678, Note_on_c, 0, 68, 102
2, 7680, Note_on_c, 0, 74, 77
2, 7680, Note_on_c, 0, 59, 50
2, 7680, Note_on_c, 0, 62, 56
2, 7683, Note_on_c, 0, 56, 36
2, 7683, Note_on_c, 0, 53, 51
2, 7684, Note_on_c, 0, 75, 32
2, 7689, Note_on_c, 0, 75, 0
2, 7704, Note_on_c, 0, 74, 0
2, 7708, Note_on_c, 0, 68, 0
2, 7743, Note_on_c, 0, 67, 74
2, 7744, Note_on_c, 0, 62, 0
2, 7744, Note_on_c, 0, 74, 57
2, 7764, Note_on_c, 0, 74, 0
2, 7772, Note_on_c, 0, 67, 0
2, 7782, Note_on_c, 0, 53, 0
2, 7802, Note_on_c, 0, 59, 0
2, 7807, Note_on_c, 0, 66, 39
2, 7811, Note_on_c, 0, 56, 0
2, 7834, Note_on_c, 0, 66, 0
2, 7844, Note_on_c, 0, 67, 35
2, 7856, Note_on_c, 0, 67, 0
2, 7902, Note_on_c, 0, 56, 23
2, 7903, Note_on_c, 0, 59, 30
2, 7911, Note_on_c, 0, 59, 0
2, 7921, Note_on_c, 0, 56, 0
2, 7960, Note_on_c, 0, 72, 66
2, 7984, Note_on_c, 0, 72, 0
2, 8016, Note_on_c, 0, 71, 83
2, 8028, Note_on_c, 0, 59, 27
2, 8030, Note_on_c, 0, 56, 18
2, 8041, Note_on_c, 0, 71, 0
2, 8042, Note_on_c, 0, 59, 0
2, 8051, Note_on_c, 0, 56, 0
2, 8051, Note_on_c, 0, 70, 56
2, 8072, Note_on_c, 0, 70, 0
2, 8086, Note_on_c, 0, 71, 61
2, 8088, Note_on_c, 0, 56, 27
2, 8099, Note_on_c, 0, 71, 0
2, 8106, Note_on_c, 0, 56, 0
2, 8135, Note_on_c, 0, 74, 65
2, 8136, Note_on_c, 0, 67, 65
2, 8137, Note_on_c, 0, 63, 54
2, 8140, Note_on_c, 0, 70, 43
2, 8140, Note_on_c, 0, 62, 54
2, 8193, Note_on_c, 0, 62, 0
2, 8194, Note_on_c, 0, 61, 65
2, 8211, Note_on_c, 0, 61, 0
2, 8246, Note_on_c, 0, 70, 0
2, 8247, Note_on_c, 0, 67, 0
2, 8248, Note_on_c, 0, 63, 0
2, 8255, Note_on_c, 0, 74, 0
2, 8258, Note_on_c, 0, 59, 50
2, 8275, Note_on_c, 0, 59, 0
2, 8283, Note_on_c, 0, 63, 62
2, 8284, Note_on_c, 0, 74, 62
2, 8284, Note_on_c, 0, 62, 59
2, 8286, Note_on_c, 0, 67, 52
2, 8334, Note_on_c, 0, 62, 0
2, 8335, Note_on_c, 0, 63, 0
2, 8337, Note_on_c, 0, 67, 0
2, 8343, Note_on_c, 0, 59, 37
2, 8352, Note_on_c, 0, 74, 0
2, 8362, Note_on_c, 0, 59, 0
2, 8379, Note_on_c, 0, 67, 49
2, 8379, Note_on_c, 0, 60, 50
2, 8380, Note_on_c, 0, 72, 53
2, 8380, Note_on_c, 0, 63, 27
2, 8396, Note_on_c, 0, 67, 0
2, 8399, Note_on_c, 0, 72, 0
2, 8402, Note_on_c, 0, 63, 0
2, 8436, Note_on_c, 0, 72, 57
2, 8439, Note_on_c, 0, 55, 38
2, 8448, Note_on_c, 0, 55, 0
2, 8452, Note_on_c, 0, 72, 0
2, 8456, Note_on_c, 0, 60, 0
2, 8492, Note_on_c, 0, 72, 74
2, 8496, Note_on_c, 0, 60, 51
2, 8504, Note_on_c, 0, 60, 0
2, 8505, Note_on_c, 0, 72, 0
2, 8528, Note_on_c, 0, 72, 80
2, 8565, Note_on_c, 0, 72, 0
2, 8584, Note_on_c, 0, 69, 31
2, 8596, Note_on_c, 0, 69, 0
2, 8611, Note_on_c, 0, 69, 62
2, 8628, Note_on_c, 0, 69, 0
2, 8640, Note_on_c, 0, 55, 65
2, 8640, Note_on_c, 0, 66, 57
2, 8642, Note_on_c, 0, 61, 53
2, 8643, Note_on_c, 0, 70, 87
2, 8689, Note_on_c, 0, 70, 0
2, 8701, Note_on_c, 0, 69, 76
2, 8702, Note_on_c, 0, 66, 0
2, 8712, Note_on_c, 0, 55, 0
2, 8721, Note_on_c, 0, 61, 0
2, 8725, Note_on_c, 0, 69, 0
2, 8759, Note_on_c, 0, 66, 46
2, 8760, Note_on_c, 0, 55, 56
2, 8762, Note_on_c, 0, 68, 56
2, 8763, Note_on_c, 0, 61, 40
2, 8778, Note_on_c, 0, 55, 0
2, 8784, Note_on_c, 0, 66, 0
2, 8784, Note_on_c, 0, 61, 0
2, 8785, Note_on_c, 0, 68, 0
2, 8799, Note_on_c, 0, 66, 36
2, 8800, Note_on_c, 0, 69, 48
2, 8800, Note_on_c, 0, 61, 34
2, 8805, Note_on_c, 0, 69, 0
2, 8805, Note_on_c, 0, 66, 0
2, 8809, Note_on_c, 0, 61, 0
2, 8910, Note_on_c, 0, 66, 65
2, 8911, Note_on_c, 0, 55, 64
2, 8912, Note_on_c, 0, 61, 56
2, 8913, Note_on_c, 0, 82, 72
2, 8913, Note_on_c, 0, 74, 74
2, 8914, Note_on_c, 0, 86, 74
2, 8917, Note_on_c, 0, 55, 0
2, 8918, Note_on_c, 0, 74, 0
2, 8919, Note_on_c, 0, 86, 0
2, 8920, Note_on_c, 0, 66, 0
2, 8922, Note_on_c, 0, 82, 0
2, 8923, Note_on_c, 0, 61, 0
2, 8961, Note_on_c, 0, 66, 79
2, 8962, Note_on_c, 0, 55, 72
2, 8962, Note_on_c, 0, 61, 61
2, 8963, Note_on_c, 0, 86, 80
2, 8963, Note_on_c, 0, 74, 84
2, 8964, Note_on_c, 0, 82, 77
2, 8973, Note_on_c, 0, 74, 0
2, 8980, Note_on_c, 0, 86, 0
2, 8983, Note_on_c, 0, 55, 0
2, 8984, Note_on_c, 0, 66, 0
2, 8984, Note_on_c, 0, 82, 0
2, 8989, Note_on_c, 0, 61, 0
2, 9007, Note_on_c, 0, 85, 78
2, 9009, Note_on_c, 0, 66, 69
2, 9009, Note_on_c, 0, 73, 71
2, 9009, Note_on_c, 0, 55, 64
2, 9010, Note_on_c, 0, 61, 57
2, 9012, Note_on_c, 0, 82, 49
2, 9031, Note_on_c, 0, 55, 0
2, 9032, Note_on_c, 0, 66, 0
2, 9034, Note_on_c, 0, 82, 0
2, 9038, Note_on_c, 0, 73, 0
2, 9040, Note_on_c, 0, 85, 0
2, 9043, Note_on_c, 0, 61, 0
2, 9048, Note_on_c, 0, 66, 50
2, 9048, Note_on_c, 0, 74, 56
2, 9048, Note_on_c, 0, 86, 60
2, 9048, Note_on_c, 0, 82, 45
2, 9050, Note_on_c, 0, 61, 20
2, 9050, Note_on_c, 0, 55, 41
2, 9058, Note_on_c, 0, 74, 0
2, 9061, Note_on_c, 0, 66, 0
2, 9062, Note_on_c, 0, 86, 0
2, 9065, Note_on_c, 0, 55, 0
2, 9067, Note_on_c, 0, 82, 0
2, 9068, Note_on_c, 0, 61, 0
2, 9093, Note_on_c, 0, 61, 58
2, 9093, Note_on_c, 0, 66, 44
2, 9095, Note_on_c, 0, 55, 53
2, 9096, Note_on_c, 0, 75, 70
2, 9098, Note_on_c, 0, 87, 62
2, 9100, Note_on_c, 0, 66, 0
2, 9101, Note_on_c, 0, 55, 0
2, 9105, Note_on_c, 0, 75, 0
2, 9107, Note_on_c, 0, 87, 0
2, 9109, Note_on_c, 0, 61, 0
2, 9129, Note_on_c, 0, 55, 55
2, 9131, Note_on_c, 0, 60, 66
2, 9132, Note_on_c, 0, 76, 66
2, 9132, Note_on_c, 0, 88, 65
2, 9133, Note_on_c, 0, 84, 62
2, 9134, Note_on_c, 0, 57, 47
2, 9141, Note_on_c, 0, 86, 24
2, 9185, Note_on_c, 0, 84, 0
2, 9187, Note_on_c, 0, 88, 0
2, 9192, Note_on_c, 0, 86, 0
2, 9198, Note_on_c, 0, 76, 0
2, 9205, Note_on_c, 0, 60, 0
2, 9206, Note_on_c, 0, 57, 0
2, 9209, Note_on_c, 0, 55, 0
2, 9275, Note_on_c, 0, 55, 55
2, 9276, Note_on_c, 0, 64, 57
2, 9278, Note_on_c, 0, 86, 61
2, 9279, Note_on_c, 0, 74, 62
2, 9279, Note_on_c, 0, 60, 48
2, 9280, Note_on_c, 0, 82, 45
2, 9280, Note_on_c, 0, 57, 29
2, 9282, Note_on_c, 0, 64, 0
2, 9282, Note_on_c, 0, 55, 0
2, 9284, Note_on_c, 0, 74, 0
2, 9284, Note_on_c, 0, 60, 0
2, 9286, Note_on_c, 0, 86, 0
2, 9287, Note_on_c, 0, 57, 0
2, 9287, Note_on_c, 0, 82, 0
2, 9318, Note_on_c, 0, 55, 43
2, 9321, Note_on_c, 0, 74, 77
2, 9321, Note_on_c, 0, 64, 49
2, 9321, Note_on_c, 0, 86, 74
2, 9322, Note_on_c, 0, 82, 74
2, 9323, Note_on_c, 0, 60, 54
2, 9325, Note_on_c, 0, 55, 0
2, 9328, Note_on_c, 0, 64, 0
2, 9329, Note_on_c, 0, 60, 0
2, 9332, Note_on_c, 0, 74, 0
2, 9337, Note_on_c, 0, 86, 0
2, 9339, Note_on_c, 0, 82, 0
2, 9360, Note_on_c, 0, 82, 87
2, 9360, Note_on_c, 0, 58, 71
2, 9361, Note_on_c, 0, 54, 83
2, 9361, Note_on_c, 0, 86, 81
2, 9362, Note_on_c, 0, 77, 85
2, 9362, Note_on_c, 0, 60, 76
2, 9362, Note_on_c, 0, 65, 85
2, 9370, Control_c, 0, 64, 127
2, 9412, Note_on_c, 0, 86, 0
2, 9414, Note_on_c, 0, 82, 0
2, 9420, Note_on_c, 0, 77, 0
2, 9430, Note_on_c, 0, 65, 0
2, 9432, Note_on_c, 0, 54, 0
2, 9434, Note_on_c, 0, 60, 0
2, 9437, Note_on_c, 0, 58, 0
2, 9454, Note_on_c, 0, 76, 64
2, 9454, Note_on_c, 0, 79, 67
2, 9455, Note_on_c, 0, 72, 66
2, 9456, Note_on_c, 0, 58, 52
2, 9456, Note_on_c, 0, 65, 77
2, 9456, Note_on_c, 0, 60, 63
2, 9457, Note_on_c, 0, 54, 67
2, 9464, Control_c, 0, 64, 0
2, 9473, Control_c, 0, 64, 127
2, 9488, Note_on_c, 0, 79, 0
2, 9491, Note_on_c, 0, 76, 0
2, 9500, Note_on_c, 0, 72, 0
2, 9507, Note_on_c, 0, 54, 0
2, 9509, Note_on_c, 0, 65, 0
2, 9515, Note_on_c, 0, 60, 0
2, 9517, Note_on_c, 0, 58, 0
2, 9539, Note_on_c, 0, 69, 57
2, 9541, Note_on_c, 0, 70, 59
2, 9542, Note_on_c, 0, 54, 59
2, 9542, Note_on_c, 0, 58, 37
2, 9543, Note_on_c, 0, 65, 30
2, 9544, Note_on_c, 0, 60, 38
2, 9546, Note_on_c, 0, 75, 25
2, 9551, Note_on_c, 0, 65, 0
2, 9552, Note_on_c, 0, 60, 0
2, 9554, Note_on_c, 0, 75, 0
2, 9563, Note_on_c, 0, 69, 0
2, 9570, Note_on_c, 0, 70, 0
2, 9582, Note_on_c, 0, 54, 0
2, 9582, Note_on_c, 0, 58, 0
2, 9597, Control_c, 0, 64, 0
2, 9602, Note_on_c, 0, 67, 49
2, 9602, Note_on_c, 0, 62, 47
2, 9603, Note_on_c, 0, 58, 33
2, 9604, Note_on_c, 0, 57, 45
2, 9606, Note_on_c, 0, 55, 42
2, 9701, Note_on_c, 0, 62, 0
2, 9773, Note_on_c, 0, 57, 0
2, 9773, Note_on_c, 0, 58, 0
2, 9778, Note_on_c, 0, 55, 0
2, 9783, Note_on_c, 0, 75, 76
2, 9818, Note_on_c, 0, 75, 0
2, 9820, Note_on_c, 0, 74, 62
2, 9820, Note_on_c, 0, 54, 56
2, 9823, Note_on_c, 0, 58, 45
2, 9823, Note_on_c, 0, 62, 41
2, 9882, Note_on_c, 0, 62, 0
2, 9886, Note_on_c, 0, 58, 0
2, 9887, Note_on_c, 0, 54, 0
2, 9910, Note_on_c, 0, 58, 37
2, 9910, Note_on_c, 0, 53, 45
2, 9912, Note_on_c, 0, 62, 35
2, 9972, Note_on_c, 0, 62, 0
2, 9989, Note_on_c, 0, 58, 0
2, 10000, Note_on_c, 0, 62, 41
2, 10000, Note_on_c, 0, 58, 37
2, 10006, Note_on_c, 0, 62, 0
2, 10016, Note_on_c, 0, 53, 0
2, 10024, Note_on_c, 0, 58, 0
2, 10043, Note_on_c, 0, 67, 0
2, 10064, Note_on_c, 0, 74, 0
2, 10086, Note_on_c, 0, 60, 45
2, 10087, Note_on_c, 0, 66, 55
2, 10091, Note_on_c, 0, 54, 31
2, 10100, Note_on_c, 0, 60, 0
2, 10102, Note_on_c, 0, 54, 0
2, 10106, Note_on_c, 0, 66, 0
2, 10182, Note_on_c, 0, 54, 29
2, 10182, Note_on_c, 0, 60, 39
2, 10188, Note_on_c, 0, 60, 0
2, 10194, Note_on_c, 0, 54, 0
2, 10240, Note_on_c, 0, 60, 35
2, 10246, Note_on_c, 0, 60, 0
2, 10262, Note_on_c, 0, 87, 77
2, 10263, Note_on_c, 0, 75, 71
2, 10285, Note_on_c, 0, 75, 0
2, 10285, Note_on_c, 0, 87, 0
2, 10319, Note_on_c, 0, 85, 53
2, 10348, Note_on_c, 0, 85, 0
2, 10348, Note_on_c, 0, 73, 52
2, 10349, Note_on_c, 0, 73, 0
2, 10352, Note_on_c, 0, 74, 49
2, 10363, Note_on_c, 0, 74, 0
2, 10418, Note_on_c, 0, 60, 57
2, 10419, Note_on_c, 0, 62, 45
2, 10425, Note_on_c, 0, 62, 0
2, 10427, Note_on_c, 0, 60, 0
2, 10478, Note_on_c, 0, 60, 39
2, 10478, Note_on_c, 0, 58, 36
2, 10479, Note_on_c, 0, 62, 31
2, 10485, Note_on_c, 0, 62, 0
2, 10488, Note_on_c, 0, 60, 0
2, 10494, Note_on_c, 0, 58, 0
2, 10536, Note_on_c, 0, 54, 45
2, 10549, Note_on_c, 0, 54, 0
2, 10563, Note_on_c, 0, 53, 65
2, 10563, Note_on_c, 0, 62, 47
2, 10573, Note_on_c, 0, 62, 0
2, 10580, Note_on_c, 0, 53, 0
2, 10623, Note_on_c, 0, 56, 31
2, 10624, Note_on_c, 0, 59, 35
2, 10625, Note_on_c, 0, 53, 34
2, 10625, Note_on_c, 0, 62, 22
2, 10634, Note_on_c, 0, 62, 0
2, 10635, Note_on_c, 0, 53, 0
2, 10641, Note_on_c, 0, 59, 0
2, 10647, Note_on_c, 0, 56, 0
2, 10711, Note_on_c, 0, 62, 55
2, 10713, Note_on_c, 0, 56, 33
2, 10716, Note_on_c, 0, 59, 32
2, 10717, Note_on_c, 0, 53, 25
2, 10718, Note_on_c, 0, 62, 0
2, 10723, Note_on_c, 0, 53, 0
2, 10723, Note_on_c, 0, 59, 0
2, 10732, Note_on_c, 0, 56, 0
2, 10773, Note_on_c, 0, 56, 35
2, 10774, Note_on_c, 0, 62, 41
2, 10775, Note_on_c, 0, 59, 42
2, 10780, Note_on_c, 0, 62, 0
2, 10782, Note_on_c, 0, 59, 0
2, 10799, Note_on_c, 0, 56, 0
2, 10835, Note_on_c, 0, 65, 70
2, 10839, Note_on_c, 0, 59, 38
2, 10839, Note_on_c, 0, 56, 26
2, 10841, Note_on_c, 0, 65, 0
2, 10846, Note_on_c, 0, 59, 0
2, 10853, Note_on_c, 0, 56, 0
2, 10863, Note_on_c, 0, 68, 55
2, 10876, Note_on_c, 0, 68, 0
2, 10891, Note_on_c, 0, 71, 84
2, 10907, Note_on_c, 0, 71, 0
2, 10921, Note_on_c, 0, 62, 57
2, 10922, Note_on_c, 0, 74, 95
2, 10923, Note_on_c, 0, 56, 37
2, 10924, Note_on_c, 0, 59, 49
2, 10926, Note_on_c, 0, 53, 41
2, 10937, Note_on_c, 0, 62, 0
2, 10948, Note_on_c, 0, 74, 0
2, 10957, Note_on_c, 0, 71, 58
2, 10966, Note_on_c, 0, 59, 0
2, 10972, Note_on_c, 0, 53, 0
2, 10977, Note_on_c, 0, 56, 0
2, 10977, Note_on_c, 0, 71, 0
2, 10988, Note_on_c, 0, 68, 33
2, 11015, Note_on_c, 0, 68, 0
2, 11018, Note_on_c, 0, 65, 58
2, 11035, Note_on_c, 0, 65, 0
2, 11045, Note_on_c, 0, 58, 25
2, 11045, Note_on_c, 0, 55, 25
2, 11048, Note_on_c, 0, 63, 39
2, 11049, Note_on_c, 0, 48, 26
2, 11053, Note_on_c, 0, 55, 0
2, 11067, Note_on_c, 0, 58, 0
2, 11078, Note_on_c, 0, 48, 0
2, 11088, Note_on_c, 0, 63, 0
2, 11105, Note_on_c, 0, 60, 26
2, 11116, Note_on_c, 0, 60, 0
2, 11136, Note_on_c, 0, 62, 58
2, 11139, Note_on_c, 0, 55, 26
2, 11149, Note_on_c, 0, 55, 0
2, 11152, Note_on_c, 0, 62, 0
2, 11194, Note_on_c, 0, 63, 55
2, 11195, Note_on_c, 0, 58, 38
2, 11199, Note_on_c, 0, 55, 29
2, 11201, Note_on_c, 0, 48, 18
2, 11205, Note_on_c, 0, 58, 0
2, 11206, Note_on_c, 0, 63, 0
2, 11206, Note_on_c, 0, 55, 0
2, 11208, Note_on_c, 0, 48, 0
2, 11251, Note_on_c, 0, 74, 71
2, 11252, Note_on_c, 0, 68, 71
2, 11256, Note_on_c, 0, 62, 68
2, 11258, Note_on_c, 0, 68, 0
2, 11292, Note_on_c, 0, 74, 0
2, 11301, Note_on_c, 0, 62, 0
2, 11315, Note_on_c, 0, 61, 68
2, 11335, Note_on_c, 0, 61, 0
2, 11344, Note_on_c, 0, 72, 61
2, 11344, Note_on_c, 0, 63, 52
2, 11347, Note_on_c, 0, 60, 70
2, 11348, Note_on_c, 0, 67, 53
2, 11376, Note_on_c, 0, 67, 0
2, 11377, Note_on_c, 0, 60, 0
2, 11377, Note_on_c, 0, 63, 0
2, 11380, Note_on_c, 0, 72, 0
2, 11432, Note_on_c, 0, 63, 53
2, 11433, Note_on_c, 0, 67, 62
2, 11442, Note_on_c, 0, 55, 36
2, 11448, Note_on_c, 0, 63, 0
2, 11453, Note_on_c, 0, 55, 0
2, 11454, Note_on_c, 0, 67, 0
2, 11525, Note_on_c, 0, 53, 48
2, 11526, Note_on_c, 0, 62, 40
2, 11528, Note_on_c, 0, 60, 45
2, 11533, Note_on_c, 0, 60, 0
2, 11534, Note_on_c, 0, 62, 0
2, 11539, Note_on_c, 0, 53, 0
2, 11581, Note_on_c, 0, 53, 43
2, 11583, Note_on_c, 0, 60, 58
2, 11584, Note_on_c, 0, 58, 44
2, 11611, Note_on_c, 0, 60, 0
2, 11612, Note_on_c, 0, 58, 0
2, 11616, Note_on_c, 0, 53, 0
2, 11644, Note_on_c, 0, 72, 68
2, 11657, Note_on_c, 0, 72, 0
2, 11673, Note_on_c, 0, 74, 71
2, 11680, Note_on_c, 0, 58, 36
2, 11686, Note_on_c, 0, 74, 0
2, 11693, Note_on_c, 0, 58, 0
2, 11702, Note_on_c, 0, 75, 77
2, 11721, Note_on_c, 0, 75, 0
2, 11736, Note_on_c, 0, 60, 48
2, 11736, Note_on_c, 0, 63, 55
2, 11737, Note_on_c, 0, 55, 57
2, 11737, Note_on_c, 0, 77, 91
2, 11739, Note_on_c, 0, 57, 51
2, 11768, Note_on_c, 0, 63, 0
2, 11769, Note_on_c, 0, 57, 0
2, 11769, Note_on_c, 0, 55, 0
2, 11771, Note_on_c, 0, 77, 0
2, 11776, Note_on_c, 0, 60, 0
2, 11798, Note_on_c, 0, 75, 77
2, 11800, Note_on_c, 0, 63, 51
2, 11800, Note_on_c, 0, 55, 47
2, 11802, Note_on_c, 0, 60, 35
2, 11809, Note_on_c, 0, 57, 24
2, 11811, Note_on_c, 0, 60, 0
2, 11818, Note_on_c, 0, 55, 0
2, 11818, Note_on_c, 0, 57, 0
2, 11818, Note_on_c, 0, 63, 0
2, 11821, Note_on_c, 0, 75, 0
2, 11854, Note_on_c, 0, 74, 96
2, 11858, Note_on_c, 0, 60, 58
2, 11860, Note_on_c, 0, 62, 53
2, 11860, Note_on_c, 0, 54, 53
2, 11878, Note_on_c, 0, 62, 0
2, 11893, Note_on_c, 0, 60, 0
2, 11899, Note_on_c, 0, 54, 0
2, 11902, Note_on_c, 0, 74, 0
2, 11910, Note_on_c, 0, 75, 59
2, 11919, Note_on_c, 0, 74, 36
2, 11928, Note_on_c, 0, 54, 34
2, 11928, Note_on_c, 0, 62, 24
2, 11930, Note_on_c, 0, 75, 0
2, 11939, Note_on_c, 0, 62, 0
2, 11943, Note_on_c, 0, 74, 0
2, 11944, Note_on_c, 0, 72, 36
2, 11962, Note_on_c, 0, 54, 0
2, 11965, Note_on_c, 0, 72, 0
2, 11973, Note_on_c, 0, 70, 69
2, 11982, Note_on_c, 0, 58, 37
2, 11983, Note_on_c, 0, 62, 47
2, 11990, Note_on_c, 0, 57, 22
2, 11995, Note_on_c, 0, 70, 0
2, 12003, Note_on_c, 0, 69, 39
2, 12006, Note_on_c, 0, 55, 4
2, 12036, Note_on_c, 0, 69, 0
2, 12045, Note_on_c, 0, 62, 0
2, 12051, Note_on_c, 0, 57, 0
2, 12052, Note_on_c, 0, 72, 60
2, 12060, Note_on_c, 0, 55, 0
2, 12066, Note_on_c, 0, 58, 0
2, 12076, Note_on_c, 0, 72, 0
2, 12087, Note_on_c, 0, 70, 57
2, 12089, Note_on_c, 0, 58, 30
2, 12089, Note_on_c, 0, 62, 33
2, 12096, Note_on_c, 0, 57, 24
2, 12097, Note_on_c, 0, 55, 16
2, 12140, Note_on_c, 0, 70, 0
2, 12149, Note_on_c, 0, 69, 51
2, 12156, Note_on_c, 0, 62, 0
2, 12184, Note_on_c, 0, 55, 0
2, 12184, Note_on_c, 0, 58, 0
2, 12184, Note_on_c, 0, 57, 0
2, 12210, Note_on_c, 0, 70, 71
2, 12211, Note_on_c, 0, 54, 70
2, 12215, Note_on_c, 0, 69, 0
2, 12277, Note_on_c, 0, 58, 40
2, 12279, Note_on_c, 0, 62, 32
2, 12315, Note_on_c, 0, 54, 0
2, 12329, Note_on_c, 0, 62, 0
2, 12333, Note_on_c, 0, 53, 61
2, 12352, Note_on_c, 0, 58, 0
2, 12393, Note_on_c, 0, 67, 44
2, 12394, Note_on_c, 0, 70, 0
2, 12394, Note_on_c, 0, 58, 51
2, 12405, Note_on_c, 0, 53, 0
2, 12406, Note_on_c, 0, 67, 0
2, 12420, Note_on_c, 0, 58, 0
2, 12425, Note_on_c, 0, 70, 53
2, 12460, Note_on_c, 0, 70, 0
2, 12460, Note_on_c, 0, 67, 24
2, 12468, Note_on_c, 0, 67, 0
2, 12479, Note_on_c, 0, 54, 53
2, 12481, Note_on_c, 0, 65, 47
2, 12481, Note_on_c, 0, 68, 73
2, 12482, Note_on_c, 0, 60, 53
2, 12482, Note_on_c, 0, 58, 40
2, 12495, Note_on_c, 0, 65, 0
2, 12500, Note_on_c, 0, 60, 0
2, 12503, Note_on_c, 0, 54, 0
2, 12504, Note_on_c, 0, 58, 0
2, 12506, Note_on_c, 0, 68, 0
2, 12540, Note_on_c, 0, 75, 93
2, 12541, Note_on_c, 0, 54, 77
2, 12542, Note_on_c, 0, 65, 80
2, 12543, Note_on_c, 0, 58, 57
2, 12543, Note_on_c, 0, 60, 67
2, 12548, Note_on_c, 0, 76, 44
2, 12568, Note_on_c, 0, 76, 0
2, 12576, Note_on_c, 0, 54, 0
2, 12577, Note_on_c, 0, 65, 0
2, 12578, Note_on_c, 0, 60, 0
2, 12579, Note_on_c, 0, 58, 0
2, 12584, Note_on_c, 0, 75, 0
2, 12602, Note_on_c, 0, 54, 38
2, 12603, Note_on_c, 0, 65, 54
2, 12607, Note_on_c, 0, 72, 50
2, 12608, Note_on_c, 0, 58, 27
2, 12614, Note_on_c, 0, 65, 0
2, 12621, Note_on_c, 0, 54, 0
2, 12623, Note_on_c, 0, 58, 0
2, 12628, Note_on_c, 0, 72, 0
2, 12640, Note_on_c, 0, 68, 47
2, 12647, Note_on_c, 0, 58, 25
2, 12648, Note_on_c, 0, 54, 19
2, 12654, Note_on_c, 0, 60, 20
2, 12660, Note_on_c, 0, 60, 0
2, 12662, Note_on_c, 0, 68, 0
2, 12666, Note_on_c, 0, 54, 0
2, 12669, Note_on_c, 0, 58, 0
2, 12696, Note_on_c, 0, 66, 51
2, 12701, Note_on_c, 0, 60, 31
2, 12701, Note_on_c, 0, 54, 34
2, 12704, Note_on_c, 0, 62, 22
2, 12712, Note_on_c, 0, 62, 0
2, 12740, Note_on_c, 0, 60, 0
2, 12756, Note_on_c, 0, 66, 0
2, 12758, Note_on_c, 0, 67, 67
2, 12802, Note_on_c, 0, 54, 0
2, 12805, Note_on_c, 0, 67, 0
2, 12815, Note_on_c, 0, 69, 78
2, 12863, Note_on_c, 0, 69, 0
2, 12874, Note_on_c, 0, 70, 74
2, 12875, Note_on_c, 0, 59, 43
2, 12878, Note_on_c, 0, 53, 42
2, 12880, Note_on_c, 0, 59, 0
2, 12891, Note_on_c, 0, 53, 0
2, 12927, Note_on_c, 0, 70, 0
2, 12936, Note_on_c, 0, 66, 25
2, 12944, Note_on_c, 0, 66, 0
2, 12963, Note_on_c, 0, 69, 66
2, 12964, Note_on_c, 0, 45, 30
2, 12966, Note_on_c, 0, 57, 36
2, 12981, Note_on_c, 0, 57, 0
2, 12989, Note_on_c, 0, 45, 0
2, 12998, Note_on_c, 0, 69, 0
2, 13016, Note_on_c, 0, 67, 45
2, 13047, Note_on_c, 0, 67, 0
2, 13075, Note_on_c, 0, 62, 33
2, 13093, Note_on_c, 0, 62, 0
2, 13108, Note_on_c, 0, 60, 55
2, 13111, Note_on_c, 0, 49, 30
2, 13111, Note_on_c, 0, 50, 33
2, 13124, Note_on_c, 0, 49, 0
2, 13125, Note_on_c, 0, 60, 0
2, 13160, Note_on_c, 0, 58, 53
2, 13165, Note_on_c, 0, 50, 0
2, 13177, Note_on_c, 0, 58, 0
2, 13197, Note_on_c, 0, 55, 66
2, 13200, Note_on_c, 0, 50, 45
2, 13253, Note_on_c, 0, 63, 46
2, 13262, Note_on_c, 0, 50, 0
2, 13267, Note_on_c, 0, 55, 0
2, 13276, Note_on_c, 0, 63, 0
2, 13290, Note_on_c, 0, 54, 85
2, 13398, Note_on_c, 0, 54, 0
2, 13447, Note_on_c, 0, 86, 91
2, 13448, Note_on_c, 0, 58, 25
2, 13454, Note_on_c, 0, 58, 0
2, 13469, Note_on_c, 0, 86, 0
2, 13503, Note_on_c, 0, 81, 82
2, 13516, Note_on_c, 0, 81, 0
2, 13537, Note_on_c, 0, 84, 89
2, 13555, Note_on_c, 0, 84, 0
2, 13568, Note_on_c, 0, 82, 75
2, 13591, Note_on_c, 0, 82, 0
2, 13603, Note_on_c, 0, 78, 48
2, 13615, Note_on_c, 0, 78, 0
2, 13649, Note_on_c, 0, 81, 92
2, 13655, Note_on_c, 0, 62, 40
2, 13655, Note_on_c, 0, 57, 50
2, 13655, Note_on_c, 0, 58, 44
2, 13662, Note_on_c, 0, 62, 0
2, 13665, Note_on_c, 0, 57, 0
2, 13669, Note_on_c, 0, 58, 0
2, 13670, Note_on_c, 0, 81, 0
2, 13710, Note_on_c, 0, 79, 89
2, 13727, Note_on_c, 0, 79, 0
2, 13739, Note_on_c, 0, 74, 64
2, 13760, Note_on_c, 0, 74, 0
2, 13771, Note_on_c, 0, 74, 68
2, 13783, Note_on_c, 0, 74, 0
2, 13798, Note_on_c, 0, 74, 64
2, 13802, Note_on_c, 0, 57, 43
2, 13804, Note_on_c, 0, 58, 44
2, 13804, Note_on_c, 0, 62, 38
2, 13839, Note_on_c, 0, 74, 0
2, 13860, Note_on_c, 0, 72, 79
2, 13865, Note_on_c, 0, 57, 0
2, 13875, Note_on_c, 0, 58, 0
2, 13879, Note_on_c, 0, 62, 0
2, 13893, Note_on_c, 0, 72, 0
2, 13922, Note_on_c, 0, 62, 50
2, 13923, Note_on_c, 0, 60, 57
2, 13923, Note_on_c, 0, 72, 72
2, 13925, Note_on_c, 0, 54, 43
2, 13939, Note_on_c, 0, 62, 0
2, 13943, Note_on_c, 0, 60, 0
2, 13946, Note_on_c, 0, 54, 0
2, 13949, Note_on_c, 0, 72, 0
2, 13983, Note_on_c, 0, 70, 68
2, 14005, Note_on_c, 0, 70, 0
2, 14021, Note_on_c, 0, 62, 37
2, 14022, Note_on_c, 0, 60, 43
2, 14023, Note_on_c, 0, 69, 66
2, 14031, Note_on_c, 0, 60, 0
2, 14034, Note_on_c, 0, 62, 0
2, 14040, Note_on_c, 0, 69, 0
2, 14073, Note_on_c, 0, 70, 67
2, 14092, Note_on_c, 0, 70, 0
2, 14108, Note_on_c, 0, 67, 57
2, 14108, Note_on_c, 0, 60, 43
2, 14109, Note_on_c, 0, 62, 48
2, 14113, Note_on_c, 0, 54, 33
2, 14159, Note_on_c, 0, 62, 0
2, 14160, Note_on_c, 0, 66, 71
2, 14161, Note_on_c, 0, 60, 0
2, 14163, Note_on_c, 0, 54, 0
2, 14170, Note_on_c, 0, 67, 0
2, 14187, Note_on_c, 0, 66, 0
2, 14196, Note_on_c, 0, 72, 72
2, 14204, Note_on_c, 0, 62, 32
2, 14204, Note_on_c, 0, 60, 36
2, 14212, Note_on_c, 0, 60, 0
2, 14212, Note_on_c, 0, 62, 0
2, 14216, Note_on_c, 0, 72, 0
2, 14251, Note_on_c, 0, 65, 74
2, 14266, Note_on_c, 0, 65, 0
2, 14277, Note_on_c, 0, 62, 33
2, 14278, Note_on_c, 0, 60, 35
2, 14283, Note_on_c, 0, 54, 36
2, 14283, Note_on_c, 0, 63, 58
2, 14304, Note_on_c, 0, 60, 0
2, 14311, Note_on_c, 0, 62, 0
2, 14319, Note_on_c, 0, 63, 0
2, 14336, Note_on_c, 0, 62, 50
2, 14361, Note_on_c, 0, 54, 0
2, 14393, Note_on_c, 0, 62, 0
2, 14395, Note_on_c, 0, 61, 57
2, 14399, Note_on_c, 0, 53, 34
2, 14411, Note_on_c, 0, 53, 0
2, 14421, Note_on_c, 0, 61, 0
2, 14434, Note_on_c, 0, 62, 48
2, 14452, Note_on_c, 0, 62, 0
2, 14463, Note_on_c, 0, 61, 49
2, 14491, Note_on_c, 0, 61, 0
2, 14495, Note_on_c, 0, 59, 49
2, 14515, Note_on_c, 0, 59, 0
2, 14522, Note_on_c, 0, 58, 60
2, 14551, Note_on_c, 0, 56, 64
2, 14563, Note_on_c, 0, 58, 0
2, 14573, Note_on_c, 0, 56, 0
2, 14585, Note_on_c, 0, 55, 35
2, 14615, Note_on_c, 0, 55, 0
2, 14647, Note_on_c, 0, 53, 38
2, 14649, Note_on_c, 0, 43, 38
2, 14667, Note_on_c, 0, 53, 0
2, 14668, Note_on_c, 0, 43, 0
2, 14734, Note_on_c, 0, 53, 47
2, 14734, Note_on_c, 0, 43, 39
2, 14746, Note_on_c, 0, 53, 0
2, 14753, Note_on_c, 0, 43, 0
2, 14793, Note_on_c, 0, 50, 58
2, 14801, Note_on_c, 0, 50, 0
2, 14820, Note_on_c, 0, 62, 99
2, 14847, Note_on_c, 0, 62, 0
2, 14855, Note_on_c, 0, 59, 53
2, 14871, Note_on_c, 0, 59, 0
2, 14883, Note_on_c, 0, 60, 71
2, 14901, Note_on_c, 0, 60, 0
2, 14911, Note_on_c, 0, 62, 79
2, 14930, Note_on_c, 0, 62, 0
2, 14941, Note_on_c, 0, 63, 70
2, 14941, Note_on_c, 0, 58, 46
2, 14945, Note_on_c, 0, 48, 38
2, 14946, Note_on_c, 0, 55, 35
2, 14954, Note_on_c, 0, 55, 0
2, 14960, Note_on_c, 0, 58, 0
2, 14972, Note_on_c, 0, 63, 0
2, 14976, Note_on_c, 0, 60, 54
2, 14979, Note_on_c, 0, 48, 0
2, 14993, Note_on_c, 0, 60, 0
2, 15000, Note_on_c, 0, 62, 57
2, 15015, Note_on_c, 0, 62, 0
2, 15034, Note_on_c, 0, 63, 72
2, 15049, Note_on_c, 0, 63, 0
2, 15062, Note_on_c, 0, 65, 80
2, 15085, Note_on_c, 0, 65, 0
2, 15097, Note_on_c, 0, 62, 62
2, 15116, Note_on_c, 0, 62, 0
2, 15125, Note_on_c, 0, 63, 50
2, 15139, Note_on_c, 0, 63, 0
2, 15157, Note_on_c, 0, 67, 66
2, 15158, Note_on_c, 0, 55, 34
2, 15175, Note_on_c, 0, 55, 0
2, 15175, Note_on_c, 0, 67, 0
2, 15185, Note_on_c, 0, 71, 47
2, 15207, Note_on_c, 0, 71, 0
2, 15219, Note_on_c, 0, 74, 89
2, 15223, Note_on_c, 0, 73, 52
2, 15223, Note_on_c, 0, 58, 48
2, 15224, Note_on_c, 0, 55, 44
2, 15229, Note_on_c, 0, 58, 0
2, 15229, Note_on_c, 0, 73, 0
2, 15233, Note_on_c, 0, 55, 0
2, 15243, Note_on_c, 0, 74, 0
2, 15250, Note_on_c, 0, 71, 58
2, 15268, Note_on_c, 0, 71, 0
2, 15283, Note_on_c, 0, 72, 53
2, 15313, Note_on_c, 0, 72, 0
2, 15313, Note_on_c, 0, 74, 50
2, 15338, Note_on_c, 0, 74, 0
2, 15345, Note_on_c, 0, 75, 67
2, 15349, Note_on_c, 0, 58, 50
2, 15356, Note_on_c, 0, 75, 0
2, 15368, Note_on_c, 0, 58, 0
2, 15370, Note_on_c, 0, 77, 53
2, 15396, Note_on_c, 0, 77, 0
2, 15400, Note_on_c, 0, 79, 62
2, 15422, Note_on_c, 0, 79, 0
2, 15425, Note_on_c, 0, 82, 59
2, 15442, Note_on_c, 0, 82, 0
2, 15453, Note_on_c, 0, 84, 77
2, 15465, Note_on_c, 0, 62, 54
2, 15466, Note_on_c, 0, 58, 47
2, 15472, Note_on_c, 0, 62, 0
2, 15472, Note_on_c, 0, 55, 30
2, 15474, Note_on_c, 0, 84, 0
2, 15480, Note_on_c, 0, 55, 0
2, 15481, Note_on_c, 0, 86, 69
2, 15484, Note_on_c, 0, 58, 0
2, 15507, Note_on_c, 0, 86, 0
2, 15518, Note_on_c, 0, 89, 80
2, 15536, Note_on_c, 0, 89, 0
2, 15551, Note_on_c, 0, 91, 64
2, 15563, Note_on_c, 0, 91, 0
2, 15578, Note_on_c, 0, 94, 85
2, 15595, Note_on_c, 0, 94, 0
2, 15605, Note_on_c, 0, 64, 64
2, 15606, Note_on_c, 0, 95, 83
2, 15607, Note_on_c, 0, 54, 60
2, 15609, Note_on_c, 0, 59, 41
2, 15634, Note_on_c, 0, 95, 0
2, 15642, Note_on_c, 0, 92, 74
2, 15667, Note_on_c, 0, 92, 0
2, 15669, Note_on_c, 0, 59, 0
2, 15672, Note_on_c, 0, 64, 0
2, 15673, Note_on_c, 0, 54, 0
2, 15675, Note_on_c, 0, 88, 46
2, 15689, Note_on_c, 0, 88, 0
2, 15717, Note_on_c, 0, 65, 46
2, 15723, Note_on_c, 0, 65, 0
2, 15768, Note_on_c, 0, 60, 77
2, 15769, Note_on_c, 0, 58, 56
2, 15771, Note_on_c, 0, 54, 70
2, 15771, Note_on_c, 0, 63, 42
2, 15821, Note_on_c, 0, 60, 0
2, 15829, Note_on_c, 0, 63, 0
2, 15833, Note_on_c, 0, 58, 0
2, 15840, Note_on_c, 0, 54, 0
2, 15847, Note_on_c, 0, 62, 62
2, 15848, Note_on_c, 0, 58, 45
2, 15851, Note_on_c, 0, 57, 49
2, 15854, Note_on_c, 0, 53, 42
2, 15894, Note_on_c, 0, 57, 0
2, 15897, Note_on_c, 0, 62, 0
2, 15901, Note_on_c, 0, 58, 0
2, 15904, Note_on_c, 0, 53, 0
2, 15931, Note_on_c, 0, 62, 71
2, 15931, Note_on_c, 0, 58, 57
2, 15933, Note_on_c, 0, 57, 47
2, 15934, Note_on_c, 0, 53, 43
2, 15945, Note_on_c, 0, 57, 0
2, 15946, Note_on_c, 0, 62, 0
2, 15949, Note_on_c, 0, 53, 0
2, 15953, Note_on_c, 0, 58, 0
2, 15963, Note_on_c, 0, 93, 71
2, 15977, Note_on_c, 0, 93, 0
2, 15994, Note_on_c, 0, 96, 87
2, 15994, Note_on_c, 0, 84, 85
2, 16006, Note_on_c, 0, 96, 0
2, 16007, Note_on_c, 0, 84, 0
2, 16020, Note_on_c, 0, 96, 76
2, 16021, Note_on_c, 0, 84, 73
2, 16047, Note_on_c, 0, 84, 0
2, 16049, Note_on_c, 0, 96, 0
2, 16052, Note_on_c, 0, 62, 66
2, 16054, Note_on_c, 0, 58, 56
2, 16058, Note_on_c, 0, 62, 0
2, 16059, Note_on_c, 0, 57, 32
2, 16067, Note_on_c, 0, 58, 0
2, 16069, Note_on_c, 0, 57, 0
2, 16081, Note_on_c, 0, 93, 79
2, 16101, Note_on_c, 0, 93, 0
2, 16114, Note_on_c, 0, 96, 82
2, 16114, Note_on_c, 0, 84, 80
2, 16125, Note_on_c, 0, 96, 0
2, 16128, Note_on_c, 0, 84, 0
2, 16140, Note_on_c, 0, 96, 74
2, 16141, Note_on_c, 0, 84, 79
2, 16170, Note_on_c, 0, 84, 0
2, 16172, Note_on_c, 0, 96, 0
2, 16175, Note_on_c, 0, 62, 62
2, 16178, Note_on_c, 0, 58, 53
2, 16178, Note_on_c, 0, 55, 60
2, 16188, Note_on_c, 0, 62, 0
2, 16197, Note_on_c, 0, 55, 0
2, 16204, Note_on_c, 0, 93, 73
2, 16205, Note_on_c, 0, 58, 0
2, 16224, Note_on_c, 0, 93, 0
2, 16235, Note_on_c, 0, 96, 87
2, 16235, Note_on_c, 0, 62, 77
2, 16236, Note_on_c, 0, 84, 74
2, 16236, Note_on_c, 0, 54, 84
2, 16237, Note_on_c, 0, 58, 64
2, 16249, Note_on_c, 0, 84, 0
2, 16258, Note_on_c, 0, 96, 0
2, 16266, Note_on_c, 0, 96, 40
2, 16269, Note_on_c, 0, 93, 62
2, 16279, Note_on_c, 0, 62, 0
2, 16282, Note_on_c, 0, 54, 0
2, 16286, Note_on_c, 0, 96, 0
2, 16286, Note_on_c, 0, 58, 0
2, 16287, Note_on_c, 0, 93, 0
2, 16379, Note_on_c, 0, 55, 38
2, 16381, Note_on_c, 0, 66, 60
2, 16381, Note_on_c, 0, 61, 45
2, 16383, Note_on_c, 0, 58, 38
2, 16442, Note_on_c, 0, 66, 0
2, 16444, Note_on_c, 0, 87, 97
2, 16462, Note_on_c, 0, 87, 0
2, 16475, Note_on_c, 0, 88, 82
2, 16480, Note_on_c, 0, 55, 0
2, 16499, Note_on_c, 0, 61, 0
2, 16501, Note_on_c, 0, 58, 0
2, 16501, Note_on_c, 0, 87, 69
2, 16505, Note_on_c, 0, 88, 0
2, 16524, Note_on_c, 0, 87, 0
2, 16531, Note_on_c, 0, 85, 83
2, 16536, Note_on_c, 0, 61, 62
2, 16536, Note_on_c, 0, 66, 70
2, 16550, Note_on_c, 0, 66, 0
2, 16558, Note_on_c, 0, 85, 0
2, 16563, Note_on_c, 0, 84, 57
2, 16564, Note_on_c, 0, 61, 0
2, 16580, Note_on_c, 0, 84, 0
2, 16586, Note_on_c, 0, 61, 35
2, 16602, Note_on_c, 0, 61, 0
2, 16621, Note_on_c, 0, 82, 82
2, 16638, Note_on_c, 0, 82, 0
2, 16660, Note_on_c, 0, 84, 37
2, 16663, Note_on_c, 0, 61, 53
2, 16666, Note_on_c, 0, 82, 58
2, 16669, Note_on_c, 0, 84, 0
2, 16672, Note_on_c, 0, 55, 24
2, 16680, Note_on_c, 0, 55, 0
2, 16684, Note_on_c, 0, 81, 64
2, 16688, Note_on_c, 0, 82, 0
2, 16692, Note_on_c, 0, 61, 0
2, 16705, Note_on_c, 0, 81, 0
2, 16716, Note_on_c, 0, 80, 64
2, 16719, Note_on_c, 0, 55, 58
2, 16719, Note_on_c, 0, 61, 52
2, 16731, Note_on_c, 0, 80, 0
2, 16740, Note_on_c, 0, 79, 28
2, 16758, Note_on_c, 0, 55, 0
2, 16768, Note_on_c, 0, 79, 0
2, 16777, Note_on_c, 0, 77, 53
2, 16784, Note_on_c, 0, 61, 0
2, 16789, Note_on_c, 0, 77, 0
2, 16802, Note_on_c, 0, 60, 37
2, 16802, Note_on_c, 0, 54, 36
2, 16802, Note_on_c, 0, 64, 27
2, 16804, Note_on_c, 0, 78, 67
2, 16828, Note_on_c, 0, 78, 0
2, 16834, Note_on_c, 0, 64, 0
2, 16838, Note_on_c, 0, 81, 66
2, 16862, Note_on_c, 0, 60, 0
2, 16866, Note_on_c, 0, 81, 0
2, 16869, Note_on_c, 0, 54, 0
2, 16869, Note_on_c, 0, 77, 36
2, 16888, Note_on_c, 0, 77, 0
2, 16895, Note_on_c, 0, 72, 54
2, 16905, Note_on_c, 0, 60, 28
2, 16907, Note_on_c, 0, 72, 0
2, 16921, Note_on_c, 0, 60, 0
2, 16921, Note_on_c, 0, 75, 73
2, 16942, Note_on_c, 0, 75, 0
2, 16956, Note_on_c, 0, 77, 68
2, 16966, Note_on_c, 0, 60, 25
2, 16975, Note_on_c, 0, 60, 0
2, 16977, Note_on_c, 0, 77, 0
2, 16985, Note_on_c, 0, 72, 49
2, 17002, Note_on_c, 0, 72, 0
2, 17015, Note_on_c, 0, 70, 63
2, 17019, Note_on_c, 0, 60, 36
2, 17032, Note_on_c, 0, 60, 0
2, 17038, Note_on_c, 0, 70, 0
2, 17052, Note_on_c, 0, 68, 33
2, 17080, Note_on_c, 0, 65, 50
2, 17081, Note_on_c, 0, 68, 0
2, 17088, Note_on_c, 0, 65, 0
2, 17104, Note_on_c, 0, 69, 70
2, 17124, Note_on_c, 0, 69, 0
2, 17134, Note_on_c, 0, 71, 71
2, 17161, Note_on_c, 0, 71, 0
2, 17163, Note_on_c, 0, 66, 59
2, 17184, Note_on_c, 0, 66, 0
2, 17192, Note_on_c, 0, 64, 54
2, 17208, Note_on_c, 0, 64, 0
2, 17254, Note_on_c, 0, 59, 33
2, 17264, Note_on_c, 0, 59, 0
2, 17267, Note_on_c, 0, 50, 36
2, 17274, Note_on_c, 0, 50, 0
2, 17282, Note_on_c, 0, 62, 72
2, 17305, Note_on_c, 0, 62, 0
2, 17313, Note_on_c, 0, 65, 79
2, 17325, Note_on_c, 0, 50, 34
2, 17336, Note_on_c, 0, 50, 0
2, 17336, Note_on_c, 0, 65, 0
2, 17341, Note_on_c, 0, 62, 62
2, 17363, Note_on_c, 0, 62, 0
2, 17375, Note_on_c, 0, 58, 64
2, 17380, Note_on_c, 0, 50, 31
2, 17392, Note_on_c, 0, 50, 0
2, 17395, Note_on_c, 0, 58, 0
2, 17406, Note_on_c, 0, 57, 24
2, 17435, Note_on_c, 0, 50, 44
2, 17437, Note_on_c, 0, 57, 0
2, 17450, Note_on_c, 0, 50, 0
2, 17463, Note_on_c, 0, 58, 81
2, 17495, Note_on_c, 0, 53, 59
2, 17497, Note_on_c, 0, 58, 0
2, 17499, Note_on_c, 0, 50, 24
2, 17507, Note_on_c, 0, 50, 0
2, 17511, Note_on_c, 0, 53, 0
2, 17521, Note_on_c, 0, 55, 45
2, 17554, Note_on_c, 0, 55, 0
2, 17554, Note_on_c, 0, 56, 64
2, 17560, Note_on_c, 0, 50, 33
2, 17571, Note_on_c, 0, 50, 0
2, 17577, Note_on_c, 0, 56, 0
2, 17586, Note_on_c, 0, 58, 52
2, 17606, Note_on_c, 0, 58, 0
2, 17614, Note_on_c, 0, 59, 64
2, 17635, Note_on_c, 0, 59, 0
2, 17645, Note_on_c, 0, 61, 39
2, 17666, Note_on_c, 0, 61, 0
2, 17673, Note_on_c, 0, 64, 66
2, 17678, Note_on_c, 0, 53, 45
2, 17683, Note_on_c, 0, 53, 0
2, 17696, Note_on_c, 0, 64, 0
2, 17701, Note_on_c, 0, 66, 55
2, 17730, Note_on_c, 0, 68, 60
2, 17737, Note_on_c, 0, 66, 0
2, 17752, Note_on_c, 0, 68, 0
2, 17764, Note_on_c, 0, 65, 32
2, 17773, Note_on_c, 0, 65, 0
2, 17782, Note_on_c, 0, 65, 24
2, 17793, Note_on_c, 0, 65, 0
2, 17795, Note_on_c, 0, 60, 44
2, 17801, Note_on_c, 0, 60, 0
2, 17829, Note_on_c, 0, 68, 62
2, 17855, Note_on_c, 0, 70, 68
2, 17858, Note_on_c, 0, 68, 0
2, 17867, Note_on_c, 0, 70, 0
2, 17881, Note_on_c, 0, 72, 60
2, 17903, Note_on_c, 0, 72, 0
2, 17912, Note_on_c, 0, 75, 64
2, 17918, Note_on_c, 0, 65, 59
2, 17922, Note_on_c, 0, 60, 47
2, 17923, Note_on_c, 0, 58, 31
2, 17926, Note_on_c, 0, 54, 32
2, 17928, Note_on_c, 0, 75, 0
2, 17941, Note_on_c, 0, 77, 34
2, 17954, Note_on_c, 0, 65, 0
2, 17964, Note_on_c, 0, 77, 0
2, 17964, Note_on_c, 0, 60, 0
2, 17972, Note_on_c, 0, 80, 68
2, 17973, Note_on_c, 0, 54, 0
2, 17992, Note_on_c, 0, 80, 0
2, 17992, Note_on_c, 0, 58, 0
2, 17997, Note_on_c, 0, 82, 62
2, 18020, Note_on_c, 0, 82, 0
2, 18030, Note_on_c, 0, 84, 66
2, 18054, Note_on_c, 0, 84, 0
2, 18059, Note_on_c, 0, 85, 71
2, 18060, Note_on_c, 0, 73, 71
2, 18072, Note_on_c, 0, 84, 26
2, 18080, Note_on_c, 0, 86, 34
2, 18087, Note_on_c, 0, 73, 0
2, 18087, Note_on_c, 0, 85, 0
2, 18089, Note_on_c, 0, 74, 65
2, 18099, Note_on_c, 0, 86, 0
2, 18104, Note_on_c, 0, 74, 0
2, 18105, Note_on_c, 0, 84, 0
2, 18123, Note_on_c, 0, 55, 74
2, 18125, Note_on_c, 0, 54, 37
2, 18143, Note_on_c, 0, 54, 0
2, 18171, Note_on_c, 0, 55, 0
2, 18220, Note_on_c, 0, 59, 53
2, 18221, Note_on_c, 0, 64, 58
2, 18222, Note_on_c, 0, 53, 42
2, 18260, Note_on_c, 0, 64, 0
2, 18264, Note_on_c, 0, 59, 0
2, 18268, Note_on_c, 0, 53, 0
2, 18322, Note_on_c, 0, 63, 57
2, 18323, Note_on_c, 0, 53, 43
2, 18324, Note_on_c, 0, 59, 50
2, 18334, Note_on_c, 0, 59, 0
2, 18335, Note_on_c, 0, 63, 0
2, 18344, Note_on_c, 0, 53, 0
2, 18385, Note_on_c, 0, 80, 55
2, 18389, Note_on_c, 0, 50, 44
2, 18397, Note_on_c, 0, 50, 0
2, 18400, Note_on_c, 0, 80, 0
2, 18416, Note_on_c, 0, 83, 89
2, 18416, Note_on_c, 0, 71, 90
2, 18425, Note_on_c, 0, 81, 24
2, 18432, Note_on_c, 0, 81, 0
2, 18433, Note_on_c, 0, 71, 0
2, 18439, Note_on_c, 0, 83, 0
2, 18450, Note_on_c, 0, 83, 62
2, 18451, Note_on_c, 0, 71, 60
2, 18457, Note_on_c, 0, 81, 41
2, 18462, Note_on_c, 0, 83, 0
2, 18465, Note_on_c, 0, 81, 0
2, 18467, Note_on_c, 0, 71, 0
2, 18483, Note_on_c, 0, 82, 61
2, 18485, Note_on_c, 0, 70, 62
2, 18504, Note_on_c, 0, 70, 0
2, 18506, Note_on_c, 0, 82, 0
2, 18520, Note_on_c, 0, 82, 63
2, 18520, Note_on_c, 0, 70, 71
2, 18526, Note_on_c, 0, 59, 46
2, 18526, Note_on_c, 0, 62, 36
2, 18527, Note_on_c, 0, 56, 33
2, 18528, Note_on_c, 0, 53, 35
2, 18535, Note_on_c, 0, 70, 0
2, 18540, Note_on_c, 0, 82, 0
2, 18545, Note_on_c, 0, 62, 0
2, 18547, Note_on_c, 0, 80, 30
2, 18549, Note_on_c, 0, 68, 54
2, 18579, Note_on_c, 0, 68, 0
2, 18581, Note_on_c, 0, 53, 0
2, 18583, Note_on_c, 0, 80, 0
2, 18585, Note_on_c, 0, 59, 0
2, 18589, Note_on_c, 0, 56, 0
2, 18601, Note_on_c, 0, 79, 58
2, 18603, Note_on_c, 0, 67, 53
2, 18605, Note_on_c, 0, 78, 20
2, 18626, Note_on_c, 0, 79, 0
2, 18630, Note_on_c, 0, 78, 0
2, 18634, Note_on_c, 0, 67, 0
2, 18635, Note_on_c, 0, 56, 30
2, 18641, Note_on_c, 0, 53, 25
2, 18649, Note_on_c, 0, 53, 0
2, 18655, Note_on_c, 0, 56, 0
2, 18663, Note_on_c, 0, 77, 64
2, 18665, Note_on_c, 0, 65, 74
2, 18698, Note_on_c, 0, 65, 0
2, 18702, Note_on_c, 0, 77, 0
2, 18725, Note_on_c, 0, 58, 42
2, 18725, Note_on_c, 0, 48, 45
2, 18726, Note_on_c, 0, 77, 66
2, 18727, Note_on_c, 0, 65, 78
2, 18730, Note_on_c, 0, 76, 48
2, 18736, Note_on_c, 0, 76, 0
2, 18749, Note_on_c, 0, 48, 0
2, 18751, Note_on_c, 0, 58, 0
2, 18766, Note_on_c, 0, 65, 0
2, 18770, Note_on_c, 0, 77, 0
2, 18783, Note_on_c, 0, 74, 44
2, 18803, Note_on_c, 0, 74, 0
2, 18817, Note_on_c, 0, 75, 77
2, 18821, Note_on_c, 0, 51, 35
2, 18823, Note_on_c, 0, 62, 32
2, 18830, Note_on_c, 0, 62, 0
2, 18842, Note_on_c, 0, 51, 0
2, 18855, Note_on_c, 0, 75, 0
2, 18875, Note_on_c, 0, 71, 32
2, 18888, Note_on_c, 0, 71, 0
2, 18899, Note_on_c, 0, 48, 50
2, 18900, Note_on_c, 0, 74, 83
2, 18914, Note_on_c, 0, 48, 0
2, 18944, Note_on_c, 0, 74, 0
2, 18959, Note_on_c, 0, 72, 66
2, 18985, Note_on_c, 0, 72, 0
2, 18997, Note_on_c, 0, 67, 53
2, 19018, Note_on_c, 0, 67, 0
2, 19044, Note_on_c, 0, 65, 41
2, 19046, Note_on_c, 0, 67, 36
2, 19052, Note_on_c, 0, 67, 0
2, 19058, Note_on_c, 0, 65, 0
2, 19060, Note_on_c, 0, 48, 18
2, 19075, Note_on_c, 0, 63, 62
2, 19085, Note_on_c, 0, 48, 0
2, 19102, Note_on_c, 0, 63, 0
2, 19111, Note_on_c, 0, 65, 58
2, 19117, Note_on_c, 0, 63, 43
2, 19126, Note_on_c, 0, 65, 0
2, 19139, Note_on_c, 0, 62, 48
2, 19146, Note_on_c, 0, 63, 0
2, 19160, Note_on_c, 0, 62, 0
2, 19175, Note_on_c, 0, 60, 62
2, 19196, Note_on_c, 0, 60, 0
2, 19205, Note_on_c, 0, 59, 16
2, 19235, Note_on_c, 0, 59, 0
2, 19241, Note_on_c, 0, 62, 85
2, 19265, Note_on_c, 0, 62, 0
2, 19266, Note_on_c, 0, 59, 53
2, 19310, Note_on_c, 0, 59, 0
2, 19325, Note_on_c, 0, 60, 82
2, 19362, Note_on_c, 0, 60, 0
2, 19362, Note_on_c, 0, 55, 70
2, 19413, Note_on_c, 0, 45, 52
2, 19422, Note_on_c, 0, 45, 0
2, 19466, Note_on_c, 0, 55, 0
2, 19469, Note_on_c, 0, 60, 65
2, 19501, Note_on_c, 0, 60, 0
2, 19503, Note_on_c, 0, 63, 56
2, 19522, Note_on_c, 0, 63, 0
2, 19534, Note_on_c, 0, 65, 76
2, 19542, Note_on_c, 0, 60, 60
2, 19549, Note_on_c, 0, 60, 0
2, 19559, Note_on_c, 0, 65, 0
2, 19567, Note_on_c, 0, 66, 47
2, 19598, Note_on_c, 0, 68, 65
2, 19602, Note_on_c, 0, 66, 0
2, 19617, Note_on_c, 0, 68, 0
2, 19625, Note_on_c, 0, 69, 57
2, 19658, Note_on_c, 0, 70, 68
2, 19665, Note_on_c, 0, 69, 0
2, 19669, Note_on_c, 0, 62, 36
2, 19671, Note_on_c, 0, 58, 39
2, 19675, Note_on_c, 0, 57, 32
2, 19677, Note_on_c, 0, 62, 0
2, 19677, Note_on_c, 0, 70, 0
2, 19684, Note_on_c, 0, 57, 0
2, 19687, Note_on_c, 0, 72, 74
2, 19691, Note_on_c, 0, 58, 0
2, 19719, Note_on_c, 0, 72, 0
2, 19721, Note_on_c, 0, 69, 58
2, 19736, Note_on_c, 0, 69, 0
2, 19745, Note_on_c, 0, 70, 81
2, 19772, Note_on_c, 0, 70, 0
2, 19781, Note_on_c, 0, 66, 48
2, 19796, Note_on_c, 0, 66, 0
2, 19806, Note_on_c, 0, 69, 78
2, 19838, Note_on_c, 0, 66, 67
2, 19839, Note_on_c, 0, 69, 0
2, 19851, Note_on_c, 0, 66, 0
2, 19863, Note_on_c, 0, 67, 74
2, 19887, Note_on_c, 0, 67, 0
2, 19962, Note_on_c, 0, 63, 67
2, 19963, Note_on_c, 0, 58, 31
2, 19964, Note_on_c, 0, 60, 52
2, 19970, Note_on_c, 0, 60, 0
2, 19974, Note_on_c, 0, 63, 0
2, 19980, Note_on_c, 0, 58, 0
2, 20012, Note_on_c, 0, 63, 65
2, 20014, Note_on_c, 0, 60, 53
2, 20015, Note_on_c, 0, 58, 45
2, 20026, Note_on_c, 0, 63, 0
2, 20027, Note_on_c, 0, 60, 0
2, 20032, Note_on_c, 0, 58, 0
2, 20053, Note_on_c, 0, 57, 49
2, 20056, Note_on_c, 0, 62, 60
2, 20058, Note_on_c, 0, 60, 53
2, 20062, Note_on_c, 0, 62, 0
2, 20080, Note_on_c, 0, 60, 0
2, 20084, Note_on_c, 0, 57, 0
2, 20108, Note_on_c, 0, 60, 57
2, 20109, Note_on_c, 0, 57, 35
2, 20120, Note_on_c, 0, 57, 0
2, 20125, Note_on_c, 0, 60, 0
2, 20158, Note_on_c, 0, 63, 52
2, 20160, Note_on_c, 0, 54, 35
2, 20161, Note_on_c, 0, 60, 52
2, 20162, Note_on_c, 0, 58, 36
2, 20184, Note_on_c, 0, 60, 0
2, 20184, Note_on_c, 0, 63, 0
2, 20184, Note_on_c, 0, 54, 0
2, 20188, Note_on_c, 0, 58, 0
2, 20247, Note_on_c, 0, 63, 71
2, 20249, Note_on_c, 0, 58, 42
2, 20249, Note_on_c, 0, 60, 64
2, 20255, Note_on_c, 0, 60, 0
2, 20274, Note_on_c, 0, 63, 0
2, 20275, Note_on_c, 0, 58, 0
2, 20338, Note_on_c, 0, 65, 58
2, 20338, Note_on_c, 0, 60, 57
2, 20339, Note_on_c, 0, 54, 52
2, 20340, Note_on_c, 0, 58, 54
2, 20379, Note_on_c, 0, 65, 0
2, 20390, Note_on_c, 0, 54, 0
2, 20402, Note_on_c, 0, 77, 91
2, 20406, Note_on_c, 0, 60, 0
2, 20414, Note_on_c, 0, 58, 0
2, 20435, Note_on_c, 0, 74, 67
2, 20439, Note_on_c, 0, 77, 0
2, 20439, Note_on_c, 0, 58, 37
2, 20439, Note_on_c, 0, 65, 64
2, 20441, Note_on_c, 0, 60, 51
2, 20442, Note_on_c, 0, 54, 36
2, 20453, Note_on_c, 0, 74, 0
2, 20457, Note_on_c, 0, 65, 0
2, 20467, Note_on_c, 0, 60, 0
2, 20485, Note_on_c, 0, 54, 0
2, 20485, Note_on_c, 0, 58, 0
2, 20491, Note_on_c, 0, 72, 85
2, 20494, Note_on_c, 0, 58, 40
2, 20497, Note_on_c, 0, 64, 51
2, 20499, Note_on_c, 0, 53, 41
2, 20506, Note_on_c, 0, 64, 0
2, 20506, Note_on_c, 0, 57, 20
2, 20512, Note_on_c, 0, 57, 0
2, 20519, Note_on_c, 0, 58, 0
2, 20522, Note_on_c, 0, 72, 0
2, 20528, Note_on_c, 0, 53, 0
2, 20551, Note_on_c, 0, 70, 83
2, 20570, Note_on_c, 0, 70, 0
2, 20575, Note_on_c, 0, 69, 61
2, 20601, Note_on_c, 0, 69, 0
2, 20634, Note_on_c, 0, 50, 66
2, 20636, Note_on_c, 0, 43, 61
2, 20664, Note_on_c, 0, 43, 0
2, 20673, Note_on_c, 0, 50, 0
2, 20693, Note_on_c, 0, 77, 95
2, 20716, Note_on_c, 0, 77, 0
2, 20731, Note_on_c, 0, 74, 64
2, 20731, Note_on_c, 0, 72, 61
2, 20735, Note_on_c, 0, 60, 34
2, 20737, Note_on_c, 0, 65, 38
2, 20737, Note_on_c, 0, 54, 28
2, 20737, Note_on_c, 0, 58, 31
2, 20742, Note_on_c, 0, 65, 0
2, 20742, Note_on_c, 0, 74, 0
2, 20744, Note_on_c, 0, 72, 0
2, 20750, Note_on_c, 0, 60, 0
2, 20757, Note_on_c, 0, 54, 0
2, 20759, Note_on_c, 0, 58, 0
2, 20786, Note_on_c, 0, 72, 82
2, 20806, Note_on_c, 0, 72, 0
2, 20843, Note_on_c, 0, 70, 92
2, 20843, Note_on_c, 0, 49, 62
2, 20845, Note_on_c, 0, 50, 75
2, 20861, Note_on_c, 0, 49, 0
2, 20867, Note_on_c, 0, 70, 0
2, 20900, Note_on_c, 0, 72, 51
2, 20903, Note_on_c, 0, 70, 74
2, 20906, Note_on_c, 0, 72, 0
2, 20906, Note_on_c, 0, 50, 0
2, 20929, Note_on_c, 0, 69, 60
2, 20930, Note_on_c, 0, 70, 0
2, 20952, Note_on_c, 0, 69, 0
2, 20965, Note_on_c, 0, 68, 59
2, 20972, Note_on_c, 0, 50, 51
2, 20975, Note_on_c, 0, 49, 20
2, 20981, Note_on_c, 0, 49, 0
2, 20987, Note_on_c, 0, 68, 0
2, 20998, Note_on_c, 0, 67, 48
2, 21019, Note_on_c, 0, 67, 0
2, 21028, Note_on_c, 0, 66, 64
2, 21050, Note_on_c, 0, 66, 0
2, 21055, Note_on_c, 0, 65, 47
2, 21087, Note_on_c, 0, 63, 53
2, 21088, Note_on_c, 0, 65, 0
2, 21101, Note_on_c, 0, 50, 0
2, 21109, Note_on_c, 0, 43, 27
2, 21109, Note_on_c, 0, 53, 34
2, 21116, Note_on_c, 0, 63, 0
2, 21127, Note_on_c, 0, 62, 52
2, 21161, Note_on_c, 0, 62, 0
2, 21174, Note_on_c, 0, 50, 34
2, 21178, Note_on_c, 0, 53, 0
2, 21179, Note_on_c, 0, 60, 65
2, 21187, Note_on_c, 0, 50, 0
2, 21205, Note_on_c, 0, 60, 0
2, 21215, Note_on_c, 0, 59, 64
2, 21222, Note_on_c, 0, 53, 35
2, 21243, Note_on_c, 0, 53, 0
2, 21272, Note_on_c, 0, 56, 70
2, 21276, Note_on_c, 0, 50, 29
2, 21281, Note_on_c, 0, 59, 0
2, 21286, Note_on_c, 0, 50, 0
2, 21291, Note_on_c, 0, 56, 0
2, 21305, Note_on_c, 0, 55, 74
2, 21345, Note_on_c, 0, 55, 0
2, 21345, Note_on_c, 0, 43, 0
2, 21397, Note_on_c, 0, 43, 48
2, 21398, Note_on_c, 0, 53, 51
2, 21423, Note_on_c, 0, 53, 0
2, 21440, Note_on_c, 0, 43, 0
2, 21449, Note_on_c, 0, 50, 57
2, 21457, Note_on_c, 0, 50, 0
2, 21483, Note_on_c, 0, 56, 53
2, 21503, Note_on_c, 0, 56, 0
2, 21514, Note_on_c, 0, 59, 71
2, 21530, Note_on_c, 0, 59, 0
2, 21541, Note_on_c, 0, 62, 75
2, 21564, Note_on_c, 0, 62, 0
2, 21574, Note_on_c, 0, 65, 90
2, 21586, Note_on_c, 0, 58, 51
2, 21590, Note_on_c, 0, 48, 35
2, 21594, Note_on_c, 0, 65, 0
2, 21600, Note_on_c, 0, 58, 0
2, 21606, Note_on_c, 0, 63, 73
2, 21636, Note_on_c, 0, 55, 43
2, 21647, Note_on_c, 0, 63, 0
2, 21653, Note_on_c, 0, 48, 0
2, 21657, Note_on_c, 0, 55, 0
2, 21662, Note_on_c, 0, 59, 55
2, 21682, Note_on_c, 0, 59, 0
2, 21692, Note_on_c, 0, 62, 85
2, 21712, Note_on_c, 0, 48, 18
2, 21719, Note_on_c, 0, 48, 0
2, 21736, Note_on_c, 0, 62, 0
2, 21750, Note_on_c, 0, 55, 40
2, 21753, Note_on_c, 0, 59, 30
2, 21768, Note_on_c, 0, 59, 0
2, 21772, Note_on_c, 0, 55, 0
2, 21779, Note_on_c, 0, 60, 67
2, 21805, Note_on_c, 0, 60, 0
2, 21811, Note_on_c, 0, 62, 74
2, 21821, Note_on_c, 0, 55, 29
2, 21829, Note_on_c, 0, 62, 0
2, 21837, Note_on_c, 0, 55, 0
2, 21842, Note_on_c, 0, 63, 67
2, 21846, Note_on_c, 0, 64, 79
2, 21852, Note_on_c, 0, 65, 33
2, 21859, Note_on_c, 0, 65, 0
2, 21863, Note_on_c, 0, 63, 0
2, 21866, Note_on_c, 0, 64, 0
2, 21871, Note_on_c, 0, 55, 37
2, 21875, Note_on_c, 0, 60, 54
2, 21891, Note_on_c, 0, 55, 0
2, 21894, Note_on_c, 0, 60, 0
2, 21901, Note_on_c, 0, 62, 53
2, 21929, Note_on_c, 0, 62, 0
2, 21936, Note_on_c, 0, 63, 60
2, 21942, Note_on_c, 0, 63, 0
2, 21952, Note_on_c, 0, 58, 30
2, 21964, Note_on_c, 0, 65, 42
2, 21987, Note_on_c, 0, 65, 0
2, 21992, Note_on_c, 0, 58, 0
2, 21994, Note_on_c, 0, 67, 60
2, 22015, Note_on_c, 0, 67, 0
2, 22016, Note_on_c, 0, 69, 58
2, 22034, Note_on_c, 0, 70, 63
2, 22035, Note_on_c, 0, 69, 0
2, 22045, Note_on_c, 0, 70, 0
2, 22056, Note_on_c, 0, 72, 64
2, 22073, Note_on_c, 0, 72, 0
2, 22075, Note_on_c, 0, 73, 53
2, 22091, Note_on_c, 0, 73, 0
2, 22092, Note_on_c, 0, 75, 60
2, 22104, Note_on_c, 0, 75, 0
2, 22111, Note_on_c, 0, 76, 54
2, 22127, Note_on_c, 0, 76, 0
2, 22133, Note_on_c, 0, 78, 32
2, 22142, Note_on_c, 0, 78, 0
2, 22154, Note_on_c, 0, 79, 46
2, 22175, Note_on_c, 0, 79, 0
2, 22176, Note_on_c, 0, 81, 53
2, 22194, Note_on_c, 0, 82, 71
2, 22196, Note_on_c, 0, 81, 0
2, 22212, Note_on_c, 0, 82, 0
2, 22222, Note_on_c, 0, 84, 85
2, 22229, Note_on_c, 0, 66, 71
2, 22230, Note_on_c, 0, 61, 62
2, 22232, Note_on_c, 0, 55, 69
2, 22252, Note_on_c, 0, 81, 78
2, 22254, Note_on_c, 0, 84, 0
2, 22272, Note_on_c, 0, 81, 0
2, 22290, Note_on_c, 0, 55, 0
2, 22297, Note_on_c, 0, 61, 0
2, 22297, Note_on_c, 0, 66, 0
2, 22376, Note_on_c, 0, 61, 67
2, 22376, Note_on_c, 0, 66, 69
2, 22380, Note_on_c, 0, 55, 55
2, 22386, Note_on_c, 0, 55, 0
2, 22391, Note_on_c, 0, 66, 0
2, 22400, Note_on_c, 0, 61, 0
2, 22469, Note_on_c, 0, 61, 60
2, 22472, Note_on_c, 0, 66, 69
2, 22473, Note_on_c, 0, 55, 63
2, 22498, Note_on_c, 0, 66, 0
2, 22502, Note_on_c, 0, 55, 0
2, 22511, Note_on_c, 0, 61, 0
2, 22560, Note_on_c, 0, 63, 55
2, 22561, Note_on_c, 0, 60, 55
2, 22562, Note_on_c, 0, 55, 47
2, 22566, Note_on_c, 0, 57, 39
2, 22589, Note_on_c, 0, 63, 0
2, 22622, Note_on_c, 0, 55, 0
2, 22623, Note_on_c, 0, 87, 90
2, 22623, Note_on_c, 0, 75, 98
2, 22633, Note_on_c, 0, 57, 0
2, 22636, Note_on_c, 0, 75, 0
2, 22640, Note_on_c, 0, 60, 0
2, 22643, Note_on_c, 0, 87, 0
2, 22654, Note_on_c, 0, 87, 67
2, 22655, Note_on_c, 0, 75, 77
2, 22673, Note_on_c, 0, 63, 44
2, 22676, Note_on_c, 0, 60, 27
2, 22677, Note_on_c, 0, 55, 33
2, 22678, Note_on_c, 0, 75, 0
2, 22679, Note_on_c, 0, 87, 0
2, 22680, Note_on_c, 0, 74, 65
2, 22680, Note_on_c, 0, 86, 73
2, 22684, Note_on_c, 0, 85, 51
2, 22684, Note_on_c, 0, 57, 26
2, 22686, Note_on_c, 0, 84, 45
2, 22692, Note_on_c, 0, 85, 0
2, 22696, Note_on_c, 0, 84, 0
2, 22703, Note_on_c, 0, 63, 0
2, 22708, Note_on_c, 0, 86, 0
2, 22710, Note_on_c, 0, 74, 0
2, 22730, Note_on_c, 0, 57, 0
2, 22731, Note_on_c, 0, 55, 0
2, 22747, Note_on_c, 0, 60, 0
2, 22774, Note_on_c, 0, 54, 60
2, 22774, Note_on_c, 0, 60, 52
2, 22776, Note_on_c, 0, 64, 56
2, 22792, Note_on_c, 0, 64, 0
2, 22797, Note_on_c, 0, 60, 0
2, 22805, Note_on_c, 0, 54, 0
2, 22863, Note_on_c, 0, 54, 69
2, 22864, Note_on_c, 0, 87, 87
2, 22864, Note_on_c, 0, 75, 95
2, 22864, Note_on_c, 0, 60, 67
2, 22865, Note_on_c, 0, 64, 69
2, 22869, Note_on_c, 0, 58, 43
2, 22909, Note_on_c, 0, 64, 0
2, 22915, Note_on_c, 0, 87, 0
2, 22917, Note_on_c, 0, 75, 0
2, 22919, Note_on_c, 0, 54, 0
2, 22921, Note_on_c, 0, 58, 0
2, 22921, Note_on_c, 0, 60, 0
2, 22951, Note_on_c, 0, 54, 72
2, 22951, Note_on_c, 0, 58, 57
2, 22951, Note_on_c, 0, 62, 70
2, 22952, Note_on_c, 0, 60, 58
2, 22954, Note_on_c, 0, 86, 77
2, 22954, Note_on_c, 0, 74, 80
2, 22958, Note_on_c, 0, 84, 54
2, 22964, Note_on_c, 0, 84, 0
2, 22992, Note_on_c, 0, 60, 0
2, 22997, Note_on_c, 0, 86, 0
2, 23001, Note_on_c, 0, 74, 0
2, 23004, Note_on_c, 0, 62, 0
2, 23016, Note_on_c, 0, 58, 0
2, 23019, Note_on_c, 0, 54, 0
2, 23025, Note_on_c, 0, 84, 88
2, 23025, Note_on_c, 0, 72, 84
2, 23042, Note_on_c, 0, 72, 0
2, 23047, Note_on_c, 0, 84, 0
2, 23057, Note_on_c, 0, 84, 63
2, 23058, Note_on_c, 0, 72, 67
2, 23059, Note_on_c, 0, 62, 41
2, 23060, Note_on_c, 0, 58, 47
2, 23062, Note_on_c, 0, 53, 39
2, 23064, Note_on_c, 0, 57, 39
2, 23080, Note_on_c, 0, 72, 0
2, 23080, Note_on_c, 0, 84, 0
2, 23083, Note_on_c, 0, 62, 0
2, 23097, Note_on_c, 0, 58, 0
2, 23098, Note_on_c, 0, 57, 0
2, 23100, Note_on_c, 0, 53, 0
2, 23104, Note_on_c, 0, 81, 53
2, 23106, Note_on_c, 0, 69, 47
2, 23113, Note_on_c, 0, 69, 0
2, 23120, Note_on_c, 0, 81, 0
2, 23140, Note_on_c, 0, 84, 75
2, 23142, Note_on_c, 0, 83, 67
2, 23143, Note_on_c, 0, 58, 56
2, 23143, Note_on_c, 0, 62, 65
2, 23143, Note_on_c, 0, 72, 54
2, 23144, Note_on_c, 0, 71, 40
2, 23147, Note_on_c, 0, 57, 44
2, 23147, Note_on_c, 0, 53, 44
2, 23148, Note_on_c, 0, 83, 0
2, 23154, Note_on_c, 0, 57, 0
2, 23155, Note_on_c, 0, 53, 0
2, 23156, Note_on_c, 0, 71, 0
2, 23157, Note_on_c, 0, 72, 0
2, 23158, Note_on_c, 0, 62, 0
2, 23161, Note_on_c, 0, 84, 0
2, 23165, Note_on_c, 0, 58, 0
2, 23248, Note_on_c, 0, 58, 70
2, 23250, Note_on_c, 0, 62, 69
2, 23250, Note_on_c, 0, 54, 72
2, 23262, Note_on_c, 0, 54, 0
2, 23262, Note_on_c, 0, 62, 0
2, 23265, Note_on_c, 0, 58, 0
2, 23283, Note_on_c, 0, 62, 55
2, 23285, Note_on_c, 0, 54, 69
2, 23286, Note_on_c, 0, 58, 43
2, 23302, Note_on_c, 0, 62, 0
2, 23304, Note_on_c, 0, 54, 0
2, 23309, Note_on_c, 0, 58, 0
2, 23345, Note_on_c, 0, 54, 73
2, 23345, Note_on_c, 0, 62, 59
2, 23347, Note_on_c, 0, 58, 51
2, 23364, Note_on_c, 0, 62, 0
2, 23377, Note_on_c, 0, 58, 0
2, 23377, Note_on_c, 0, 54, 0
2, 23440, Note_on_c, 0, 53, 60
2, 23440, Note_on_c, 0, 62, 64
2, 23441, Note_on_c, 0, 58, 50
2, 23462, Note_on_c, 0, 62, 0
2, 23462, Note_on_c, 0, 53, 0
2, 23482, Note_on_c, 0, 58, 0
2, 23523, Note_on_c, 0, 62, 68
2, 23524, Note_on_c, 0, 54, 70
2, 23525, Note_on_c, 0, 60, 57
2, 23531, Note_on_c, 0, 60, 0
2, 23536, Note_on_c, 0, 62, 0
2, 23546, Note_on_c, 0, 54, 0
2, 23609, Note_on_c, 0, 63, 56
2, 23611, Note_on_c, 0, 60, 49
2, 23612, Note_on_c, 0, 54, 39
2, 23646, Note_on_c, 0, 60, 0
2, 23673, Note_on_c, 0, 63, 0
2, 23675, Note_on_c, 0, 60, 31
2, 23698, Note_on_c, 0, 60, 0
2, 23702, Note_on_c, 0, 86, 84
2, 23704, Note_on_c, 0, 84, 77
2, 23707, Note_on_c, 0, 54, 0
2, 23710, Note_on_c, 0, 84, 0
2, 23727, Note_on_c, 0, 86, 0
2, 23729, Note_on_c, 0, 60, 32
2, 23735, Note_on_c, 0, 87, 59
2, 23750, Note_on_c, 0, 86, 53
2, 23756, Note_on_c, 0, 87, 0
2, 23763, Note_on_c, 0, 84, 52
2, 23772, Note_on_c, 0, 86, 0
2, 23789, Note_on_c, 0, 84, 0
2, 23789, Note_on_c, 0, 60, 0
2, 23800, Note_on_c, 0, 82, 71
2, 23804, Note_on_c, 0, 60, 40
2, 23806, Note_on_c, 0, 63, 47
2, 23815, Note_on_c, 0, 63, 0
2, 23819, Note_on_c, 0, 82, 0
2, 23829, Note_on_c, 0, 81, 43
2, 23840, Note_on_c, 0, 60, 0
2, 23851, Note_on_c, 0, 81, 0
2, 23857, Note_on_c, 0, 79, 51
2, 23866, Note_on_c, 0, 60, 12
2, 23866, Note_on_c, 0, 63, 32
2, 23873, Note_on_c, 0, 63, 0
2, 23873, Note_on_c, 0, 79, 0
2, 23886, Note_on_c, 0, 84, 81
2, 23900, Note_on_c, 0, 60, 0
2, 23913, Note_on_c, 0, 84, 0
2, 23918, Note_on_c, 0, 60, 24
2, 23923, Note_on_c, 0, 81, 44
2, 23925, Note_on_c, 0, 54, 25
2, 23931, Note_on_c, 0, 81, 0
2, 23940, Note_on_c, 0, 60, 0
2, 23945, Note_on_c, 0, 82, 72
2, 23975, Note_on_c, 0, 82, 0
2, 23975, Note_on_c, 0, 54, 0
2, 23982, Note_on_c, 0, 78, 38
2, 23992, Note_on_c, 0, 78, 0
2, 24002, Note_on_c, 0, 59, 32
2, 24003, Note_on_c, 0, 53, 35
2, 24006, Note_on_c, 0, 81, 70
2, 24039, Note_on_c, 0, 80, 64
2, 24041, Note_on_c, 0, 81, 0
2, 24058, Note_on_c, 0, 80, 0
2, 24059, Note_on_c, 0, 53, 0
2, 24071, Note_on_c, 0, 79, 47
2, 24075, Note_on_c, 0, 59, 0
2, 24088, Note_on_c, 0, 79, 0
2, 24100, Note_on_c, 0, 59, 28
2, 24103, Note_on_c, 0, 77, 51
2, 24123, Note_on_c, 0, 59, 0
2, 24129, Note_on_c, 0, 77, 0
2, 24140, Note_on_c, 0, 74, 27
2, 24140, Note_on_c, 0, 76, 20
2, 24150, Note_on_c, 0, 76, 0
2, 24157, Note_on_c, 0, 59, 40
2, 24162, Note_on_c, 0, 74, 0
2, 24175, Note_on_c, 0, 59, 0
2, 24183, Note_on_c, 0, 74, 53
2, 24211, Note_on_c, 0, 74, 0
2, 24223, Note_on_c, 0, 59, 41
2, 24224, Note_on_c, 0, 71, 60
2, 24241, Note_on_c, 0, 59, 0
2, 24247, Note_on_c, 0, 71, 0
2, 24274, Note_on_c, 0, 71, 43
2, 24278, Note_on_c, 0, 59, 42
2, 24288, Note_on_c, 0, 71, 0
2, 24294, Note_on_c, 0, 59, 0
2, 24302, Note_on_c, 0, 68, 78
2, 24330, Note_on_c, 0, 68, 0
2, 24337, Note_on_c, 0, 59, 53
2, 24355, Note_on_c, 0, 59, 0
2, 24362, Note_on_c, 0, 68, 75
2, 24378, Note_on_c, 0, 68, 0
2, 24398, Note_on_c, 0, 65, 71
2, 24419, Note_on_c, 0, 65, 0
2, 24447, Note_on_c, 0, 65, 79
2, 24450, Note_on_c, 0, 58, 59
2, 24451, Note_on_c, 0, 48, 55
2, 24455, Note_on_c, 0, 58, 0
2, 24463, Note_on_c, 0, 65, 0
2, 24472, Note_on_c, 0, 48, 0
2, 24482, Note_on_c, 0, 63, 53
2, 24507, Note_on_c, 0, 63, 0
2, 24511, Note_on_c, 0, 55, 28
2, 24519, Note_on_c, 0, 63, 70
2, 24522, Note_on_c, 0, 55, 0
2, 24544, Note_on_c, 0, 63, 0
2, 24564, Note_on_c, 0, 62, 83
2, 24571, Note_on_c, 0, 58, 43
2, 24571, Note_on_c, 0, 48, 48
2, 24577, Note_on_c, 0, 58, 0
2, 24579, Note_on_c, 0, 48, 0
2, 24585, Note_on_c, 0, 62, 0
2, 24599, Note_on_c, 0, 62, 68
2, 24612, Note_on_c, 0, 55, 27
2, 24623, Note_on_c, 0, 55, 0
2, 24632, Note_on_c, 0, 62, 0
2, 24650, Note_on_c, 0, 63, 69
2, 24674, Note_on_c, 0, 63, 0
2, 24689, Note_on_c, 0, 63, 60
2, 24697, Note_on_c, 0, 55, 25
2, 24702, Note_on_c, 0, 48, 24
2, 24711, Note_on_c, 0, 48, 0
2, 24713, Note_on_c, 0, 55, 0
2, 24722, Note_on_c, 0, 63, 0
2, 24745, Note_on_c, 0, 65, 85
2, 24762, Note_on_c, 0, 65, 0
2, 24778, Note_on_c, 0, 65, 79
2, 24816, Note_on_c, 0, 65, 0
2, 24834, Note_on_c, 0, 62, 80
2, 24860, Note_on_c, 0, 62, 0
2, 24873, Note_on_c, 0, 63, 59
2, 24875, Note_on_c, 0, 48, 30
2, 24886, Note_on_c, 0, 48, 0
2, 24900, Note_on_c, 0, 59, 43
2, 24929, Note_on_c, 0, 63, 0
2, 24938, Note_on_c, 0, 59, 0
2, 24955, Note_on_c, 0, 62, 79
2, 24996, Note_on_c, 0, 62, 0
2, 25020, Note_on_c, 0, 60, 71
2, 25046, Note_on_c, 0, 60, 0
2, 25056, Note_on_c, 0, 55, 69
2, 25110, Note_on_c, 0, 55, 0
2, 25111, Note_on_c, 0, 57, 71
2, 25130, Note_on_c, 0, 57, 0
2, 25145, Note_on_c, 0, 58, 69
2, 25187, Note_on_c, 0, 58, 0
2, 25280, Note_on_c, 0, 54, 31
2, 25286, Note_on_c, 0, 54, 0
2, 25320, Note_on_c, 0, 57, 68
2, 25341, Note_on_c, 0, 57, 0
2, 25351, Note_on_c, 0, 58, 64
2, 25372, Note_on_c, 0, 58, 0
2, 25383, Note_on_c, 0, 60, 55
2, 25402, Note_on_c, 0, 60, 0
2, 25414, Note_on_c, 0, 62, 67
2, 25419, Note_on_c, 0, 50, 68
2, 25424, Note_on_c, 0, 49, 29
2, 25425, Note_on_c, 0, 50, 0
2, 25429, Note_on_c, 0, 49, 0
2, 25433, Note_on_c, 0, 62, 0
2, 25451, Note_on_c, 0, 60, 37
2, 25467, Note_on_c, 0, 60, 0
2, 25479, Note_on_c, 0, 62, 65
2, 25498, Note_on_c, 0, 62, 0
2, 25505, Note_on_c, 0, 63, 58
2, 25528, Note_on_c, 0, 63, 0
2, 25540, Note_on_c, 0, 65, 57
2, 25556, Note_on_c, 0, 65, 0
2, 25568, Note_on_c, 0, 62, 36
2, 25592, Note_on_c, 0, 62, 0
2, 25601, Note_on_c, 0, 63, 53
2, 25607, Note_on_c, 0, 57, 38
2, 25613, Note_on_c, 0, 63, 0
2, 25617, Note_on_c, 0, 57, 0
2, 25629, Note_on_c, 0, 65, 54
2, 25652, Note_on_c, 0, 65, 0
2, 25655, Note_on_c, 0, 67, 66
2, 25672, Note_on_c, 0, 58, 23
2, 25676, Note_on_c, 0, 67, 0
2, 25685, Note_on_c, 0, 69, 65
2, 25693, Note_on_c, 0, 58, 0
2, 25709, Note_on_c, 0, 69, 0
2, 25759, Note_on_c, 0, 65, 72
2, 25767, Note_on_c, 0, 65, 0
2, 25787, Note_on_c, 0, 67, 68
2, 25809, Note_on_c, 0, 67, 0
2, 25814, Note_on_c, 0, 69, 74
2, 25838, Note_on_c, 0, 69, 0
2, 25843, Note_on_c, 0, 70, 56
2, 25845, Note_on_c, 0, 58, 35
2, 25854, Note_on_c, 0, 70, 0
2, 25867, Note_on_c, 0, 58, 0
2, 25880, Note_on_c, 0, 72, 20
2, 25893, Note_on_c, 0, 72, 0
2, 25904, Note_on_c, 0, 75, 57
2, 25919, Note_on_c, 0, 75, 0
2, 25922, Note_on_c, 0, 60, 37
2, 25922, Note_on_c, 0, 65, 34
2, 25923, Note_on_c, 0, 54, 31
2, 25924, Note_on_c, 0, 58, 29
2, 25939, Note_on_c, 0, 77, 36
2, 25952, Note_on_c, 0, 65, 0
2, 25958, Note_on_c, 0, 77, 0
2, 25968, Note_on_c, 0, 82, 67
2, 25969, Note_on_c, 0, 54, 0
2, 25976, Note_on_c, 0, 60, 0
2, 25979, Note_on_c, 0, 58, 0
2, 25982, Note_on_c, 0, 82, 0
2, 25993, Note_on_c, 0, 84, 74
2, 26011, Note_on_c, 0, 84, 0
2, 26027, Note_on_c, 0, 89, 63
2, 26029, Note_on_c, 0, 88, 65
2, 26034, Note_on_c, 0, 65, 40
2, 26034, Note_on_c, 0, 60, 51
2, 26035, Note_on_c, 0, 88, 0
2, 26036, Note_on_c, 0, 58, 34
2, 26040, Note_on_c, 0, 54, 35
2, 26043, Note_on_c, 0, 89, 0
2, 26054, Note_on_c, 0, 65, 0
2, 26058, Note_on_c, 0, 94, 76
2, 26073, Note_on_c, 0, 54, 0
2, 26076, Note_on_c, 0, 60, 0
2, 26079, Note_on_c, 0, 94, 0
2, 26083, Note_on_c, 0, 58, 0
2, 26091, Note_on_c, 0, 65, 52
2, 26092, Note_on_c, 0, 84, 83
2, 26093, Note_on_c, 0, 96, 87
2, 26093, Note_on_c, 0, 58, 15
2, 26094, Note_on_c, 0, 60, 34
2, 26095, Note_on_c, 0, 54, 32
2, 26106, Note_on_c, 0, 65, 0
2, 26110, Note_on_c, 0, 84, 0
2, 26115, Note_on_c, 0, 96, 0
2, 26115, Note_on_c, 0, 54, 0
2, 26117, Note_on_c, 0, 60, 0
2, 26128, Note_on_c, 0, 58, 0
2, 26140, Note_on_c, 0, 96, 72
2, 26141, Note_on_c, 0, 84, 72
2, 26141, Note_on_c, 0, 58, 34
2, 26143, Note_on_c, 0, 60, 55
2, 26147, Note_on_c, 0, 54, 26
2, 26148, Note_on_c, 0, 95, 30
2, 26151, Note_on_c, 0, 96, 0
2, 26154, Note_on_c, 0, 95, 0
2, 26156, Note_on_c, 0, 84, 0
2, 26159, Note_on_c, 0, 54, 0
2, 26161, Note_on_c, 0, 60, 0
2, 26168, Note_on_c, 0, 58, 0
2, 26180, Note_on_c, 0, 80, 79
2, 26181, Note_on_c, 0, 92, 83
2, 26181, Note_on_c, 0, 60, 51
2, 26182, Note_on_c, 0, 54, 59
2, 26185, Note_on_c, 0, 64, 48
2, 26194, Note_on_c, 0, 93, 66
2, 26201, Note_on_c, 0, 80, 0
2, 26203, Note_on_c, 0, 81, 45
2, 26218, Note_on_c, 0, 93, 0
2, 26219, Note_on_c, 0, 81, 0
2, 26226, Note_on_c, 0, 92, 0
2, 26226, Note_on_c, 0, 64, 0
2, 26235, Note_on_c, 0, 54, 0
2, 26237, Note_on_c, 0, 60, 0
2, 26266, Note_on_c, 0, 78, 80
2, 26266, Note_on_c, 0, 90, 73
2, 26268, Note_on_c, 0, 60, 68
2, 26269, Note_on_c, 0, 64, 70
2, 26270, Note_on_c, 0, 58, 51
2, 26271, Note_on_c, 0, 54, 52
2, 26338, Note_on_c, 0, 78, 0
2, 26339, Note_on_c, 0, 90, 0
2, 26370, Note_on_c, 0, 60, 0
2, 26373, Note_on_c, 0, 64, 0
2, 26397, Note_on_c, 0, 54, 0
2, 26402, Note_on_c, 0, 58, 0
2, 26410, Note_on_c, 0, 58, 46
2, 26412, Note_on_c, 0, 62, 74
2, 26412, Note_on_c, 0, 85, 94
2, 26413, Note_on_c, 0, 57, 64
2, 26413, Note_on_c, 0, 77, 85
2, 26413, Note_on_c, 0, 89, 85
2, 26414, Note_on_c, 0, 76, 89
2, 26414, Note_on_c, 0, 53, 55
2, 26415, Note_on_c, 0, 88, 88
2, 26419, Note_on_c, 0, 76, 0
2, 26446, Note_on_c, 0, 86, 52
2, 26449, Note_on_c, 0, 85, 0
2, 26493, Note_on_c, 0, 86, 0
2, 26493, Note_on_c, 0, 89, 0
2, 26494, Note_on_c, 0, 88, 0
2, 26498, Note_on_c, 0, 77, 0
2, 26502, Note_on_c, 0, 53, 0
2, 26502, Note_on_c, 0, 62, 0
2, 26508, Note_on_c, 0, 57, 0
2, 26509, Note_on_c, 0, 58, 0
2, 26520, Note_on_c, 0, 62, 60
2, 26520, Note_on_c, 0, 86, 64
2, 26521, Note_on_c, 0, 58, 40
2, 26522, Note_on_c, 0, 53, 41
2, 26523, Note_on_c, 0, 74, 64
2, 26524, Note_on_c, 0, 57, 56
2, 26590, Note_on_c, 0, 53, 0
2, 26592, Note_on_c, 0, 74, 0
2, 26594, Note_on_c, 0, 57, 0
2, 26600, Note_on_c, 0, 62, 0
2, 26602, Note_on_c, 0, 86, 0
2, 26611, Note_on_c, 0, 58, 0
2, 26635, Note_on_c, 0, 63, 69
2, 26636, Note_on_c, 0, 60, 62
2, 26638, Note_on_c, 0, 55, 60
2, 26638, Note_on_c, 0, 89, 82
2, 26638, Note_on_c, 0, 77, 80
2, 26640, Note_on_c, 0, 58, 25
2, 26640, Note_on_c, 0, 57, 51
2, 26643, Note_on_c, 0, 85, 31
2, 26648, Note_on_c, 0, 57, 0
2, 26649, Note_on_c, 0, 58, 0
2, 26650, Note_on_c, 0, 85, 0
2, 26651, Note_on_c, 0, 77, 0
2, 26656, Note_on_c, 0, 89, 0
2, 26676, Note_on_c, 0, 91, 77
2, 26676, Note_on_c, 0, 79, 64
2, 26686, Note_on_c, 0, 79, 0
2, 26690, Note_on_c, 0, 91, 0
2, 26692, Note_on_c, 0, 55, 0
2, 26696, Note_on_c, 0, 60, 0
2, 26696, Note_on_c, 0, 63, 0
2, 26731, Note_on_c, 0, 60, 60
2, 26731, Note_on_c, 0, 62, 64
2, 26732, Note_on_c, 0, 58, 46
2, 26734, Note_on_c, 0, 78, 74
2, 26735, Note_on_c, 0, 90, 57
2, 26739, Note_on_c, 0, 62, 0
2, 26739, Note_on_c, 0, 60, 0
2, 26739, Note_on_c, 0, 54, 25
2, 26746, Note_on_c, 0, 78, 0
2, 26747, Note_on_c, 0, 90, 0
2, 26750, Note_on_c, 0, 58, 0
2, 26751, Note_on_c, 0, 54, 0
2, 26790, Note_on_c, 0, 75, 85
2, 26791, Note_on_c, 0, 85, 61
2, 26791, Note_on_c, 0, 58, 64
2, 26791, Note_on_c, 0, 62, 76
2, 26793, Note_on_c, 0, 86, 76
2, 26793, Note_on_c, 0, 54, 64
2, 26793, Note_on_c, 0, 60, 64
2, 26799, Note_on_c, 0, 60, 0
2, 26799, Note_on_c, 0, 86, 0
2, 26804, Note_on_c, 0, 62, 0
2, 26804, Note_on_c, 0, 85, 0
2, 26804, Note_on_c, 0, 75, 0
2, 26820, Note_on_c, 0, 62, 61
2, 26821, Note_on_c, 0, 60, 15
2, 26824, Note_on_c, 0, 84, 74
2, 26824, Note_on_c, 0, 72, 76
2, 26837, Note_on_c, 0, 60, 0
2, 26851, Note_on_c, 0, 62, 0
2, 26856, Note_on_c, 0, 72, 0
2, 26859, Note_on_c, 0, 84, 0
2, 26863, Note_on_c, 0, 58, 0
2, 26866, Note_on_c, 0, 54, 0
2, 26880, Note_on_c, 0, 62, 36
2, 26881, Note_on_c, 0, 62, 50
2, 26882, Note_on_c, 0, 58, 38
2, 26884, Note_on_c, 0, 55, 53
2, 26884, Note_on_c, 0, 58, 23
2, 26886, Note_on_c, 0, 53, 33
2, 26887, Note_on_c, 0, 55, 36
2, 26891, Note_on_c, 0, 55, 0
2, 26893, Note_on_c, 0, 58, 0
2, 26893, Note_on_c, 0, 62, 0
2, 26893, Note_on_c, 0, 53, 0
2, 26897, Note_on_c, 0, 62, 0
2, 26897, Note_on_c, 0, 58, 0
2, 26900, Note_on_c, 0, 55, 0
2, 26943, Note_on_c, 0, 70, 83
2, 26965, Note_on_c, 0, 70, 0
2, 27001, Note_on_c, 0, 69, 89
2, 27025, Note_on_c, 0, 69, 0
2, 27035, Note_on_c, 0, 70, 46
2, 27047, Note_on_c, 0, 69, 59
2, 27049, Note_on_c, 0, 70, 0
2, 27063, Note_on_c, 0, 67, 50
2, 27066, Note_on_c, 0, 69, 0
2, 27081, Note_on_c, 0, 67, 0
2, 27098, Note_on_c, 0, 66, 59
2, 27109, Note_on_c, 0, 66, 0
2, 27121, Note_on_c, 0, 69, 78
2, 27143, Note_on_c, 0, 69, 0
2, 27155, Note_on_c, 0, 66, 56
2, 27168, Note_on_c, 0, 66, 0
2, 27181, Note_on_c, 0, 67, 59
2, 27204, Note_on_c, 0, 67, 0
2, 27215, Note_on_c, 0, 62, 59
2, 27231, Note_on_c, 0, 62, 0
2, 27242, Note_on_c, 0, 62, 59
2, 27260, Note_on_c, 0, 62, 0
2, 27273, Note_on_c, 0, 62, 64
2, 27288, Note_on_c, 0, 62, 0
2, 27303, Note_on_c, 0, 60, 48
2, 27319, Note_on_c, 0, 60, 0
2, 27332, Note_on_c, 0, 60, 65
2, 27344, Note_on_c, 0, 60, 0
2, 27359, Note_on_c, 0, 58, 55
2, 27376, Note_on_c, 0, 58, 0
2, 27389, Note_on_c, 0, 58, 49
2, 27409, Note_on_c, 0, 58, 0
2, 27415, Note_on_c, 0, 57, 47
2, 27435, Note_on_c, 0, 57, 0
2, 27456, Note_on_c, 0, 55, 68
2, 27477, Note_on_c, 0, 55, 0
2, 27485, Note_on_c, 0, 54, 74
2, 27534, Note_on_c, 0, 54, 0
2, 27539, Note_on_c, 0, 51, 54
2, 27570, Note_on_c, 0, 51, 0
2, 27577, Note_on_c, 0, 50, 55
2, 27589, Note_on_c, 0, 50, 0
2, 27635, Note_on_c, 0, 26, 38
2, 27642, Note_on_c, 0, 26, 0
2, 27698, Note_on_c, 0, 65, 57
2, 27699, Note_on_c, 0, 54, 39
2, 27700, Note_on_c, 0, 58, 53
2, 27701, Note_on_c, 0, 60, 38
2, 27710, Note_on_c, 0, 65, 0
2, 27712, Note_on_c, 0, 54, 0
2, 27716, Note_on_c, 0, 60, 0
2, 27717, Note_on_c, 0, 58, 0
2, 27733, Note_on_c, 0, 65, 49
2, 27736, Note_on_c, 0, 54, 33
2, 27736, Note_on_c, 0, 58, 31
2, 27736, Note_on_c, 0, 60, 44
2, 27750, Note_on_c, 0, 65, 0
2, 27751, Note_on_c, 0, 60, 0
2, 27753, Note_on_c, 0, 58, 0
2, 27758, Note_on_c, 0, 54, 0
2, 27787, Note_on_c, 0, 54, 44
2, 27787, Note_on_c, 0, 65, 46
2, 27791, Note_on_c, 0, 58, 35
2, 27792, Note_on_c, 0, 60, 40
2, 27798, Note_on_c, 0, 60, 0
2, 27798, Note_on_c, 0, 65, 0
2, 27810, Note_on_c, 0, 58, 0
2, 27824, Note_on_c, 0, 54, 0
2, 27848, Note_on_c, 0, 62, 48
2, 27848, Note_on_c, 0, 59, 56
2, 27850, Note_on_c, 0, 53, 49
2, 27969, Note_on_c, 0, 68, 42
2, 27969, Note_on_c, 0, 67, 77
2, 27977, Note_on_c, 0, 62, 0
2, 27985, Note_on_c, 0, 67, 0
2, 27987, Note_on_c, 0, 68, 0
2, 27995, Note_on_c, 0, 70, 62
2, 28017, Note_on_c, 0, 70, 0
2, 28023, Note_on_c, 0, 71, 43
2, 28036, Note_on_c, 0, 53, 0
2, 28042, Note_on_c, 0, 59, 0
2, 28045, Note_on_c, 0, 71, 0
2, 28052, Note_on_c, 0, 73, 74
2, 28054, Note_on_c, 0, 59, 43
2, 28055, Note_on_c, 0, 62, 50
2, 28061, Note_on_c, 0, 56, 31
2, 28072, Note_on_c, 0, 73, 0
2, 28078, Note_on_c, 0, 59, 0
2, 28083, Note_on_c, 0, 74, 40
2, 28101, Note_on_c, 0, 74, 0
2, 28111, Note_on_c, 0, 76, 64
2, 28124, Note_on_c, 0, 76, 0
2, 28127, Note_on_c, 0, 62, 0
2, 28137, Note_on_c, 0, 56, 0
2, 28141, Note_on_c, 0, 77, 39
2, 28158, Note_on_c, 0, 77, 0
2, 28169, Note_on_c, 0, 79, 62
2, 28173, Note_on_c, 0, 62, 55
2, 28174, Note_on_c, 0, 59, 52
2, 28177, Note_on_c, 0, 56, 27
2, 28178, Note_on_c, 0, 62, 0
2, 28183, Note_on_c, 0, 79, 0
2, 28183, Note_on_c, 0, 59, 0
2, 28191, Note_on_c, 0, 56, 0
2, 28202, Note_on_c, 0, 80, 25
2, 28221, Note_on_c, 0, 80, 0
2, 28229, Note_on_c, 0, 82, 61
2, 28241, Note_on_c, 0, 82, 0
2, 28254, Note_on_c, 0, 83, 73
2, 28275, Note_on_c, 0, 83, 0
2, 28291, Note_on_c, 0, 86, 92
2, 28291, Note_on_c, 0, 74, 92
2, 28292, Note_on_c, 0, 62, 73
2, 28295, Note_on_c, 0, 57, 60
2, 28295, Note_on_c, 0, 55, 58
2, 28299, Note_on_c, 0, 51, 26
2, 28305, Note_on_c, 0, 62, 0
2, 28308, Note_on_c, 0, 51, 0
2, 28310, Note_on_c, 0, 57, 0
2, 28313, Note_on_c, 0, 55, 0
2, 28355, Note_on_c, 0, 85, 72
2, 28357, Note_on_c, 0, 86, 0
2, 28368, Note_on_c, 0, 74, 0
2, 28372, Note_on_c, 0, 85, 0
2, 28383, Note_on_c, 0, 84, 52
2, 28405, Note_on_c, 0, 84, 0
2, 28416, Note_on_c, 0, 79, 33
2, 28430, Note_on_c, 0, 79, 0
2, 28441, Note_on_c, 0, 83, 71
2, 28468, Note_on_c, 0, 83, 0
2, 28500, Note_on_c, 0, 82, 79
2, 28532, Note_on_c, 0, 82, 0
2, 28534, Note_on_c, 0, 78, 29
2, 28557, Note_on_c, 0, 78, 0
2, 28564, Note_on_c, 0, 81, 68
2, 28589, Note_on_c, 0, 81, 0
2, 28597, Note_on_c, 0, 79, 53
2, 28598, Note_on_c, 0, 58, 47
2, 28603, Note_on_c, 0, 55, 24
2, 28608, Note_on_c, 0, 55, 0
2, 28609, Note_on_c, 0, 58, 0
2, 28613, Note_on_c, 0, 79, 0
2, 28626, Note_on_c, 0, 78, 32
2, 28651, Note_on_c, 0, 78, 0
2, 28658, Note_on_c, 0, 75, 44
2, 28672, Note_on_c, 0, 75, 0
2, 28688, Note_on_c, 0, 74, 26
2, 28716, Note_on_c, 0, 74, 0
2, 28718, Note_on_c, 0, 72, 54
2, 28719, Note_on_c, 0, 58, 32
2, 28721, Note_on_c, 0, 55, 25
2, 28726, Note_on_c, 0, 58, 0
2, 28728, Note_on_c, 0, 55, 0
2, 28731, Note_on_c, 0, 72, 0
2, 28746, Note_on_c, 0, 70, 25
2, 28776, Note_on_c, 0, 70, 0
2, 28780, Note_on_c, 0, 67, 27
2, 28789, Note_on_c, 0, 67, 0
2, 28896, Note_on_c, 0, 67, 34
2, 28899, Note_on_c, 0, 63, 28
2, 28902, Note_on_c, 0, 67, 0
2, 28905, Note_on_c, 0, 63, 0
2, 28920, Note_on_c, 0, 71, 72
2, 28946, Note_on_c, 0, 71, 0
2, 28950, Note_on_c, 0, 72, 66
2, 28974, Note_on_c, 0, 72, 0
2, 28978, Note_on_c, 0, 74, 50
2, 29006, Note_on_c, 0, 74, 0
2, 29011, Note_on_c, 0, 75, 57
2, 29031, Note_on_c, 0, 75, 0
2, 29038, Note_on_c, 0, 71, 31
2, 29067, Note_on_c, 0, 71, 0
2, 29071, Note_on_c, 0, 73, 58
2, 29078, Note_on_c, 0, 62, 24
2, 29083, Note_on_c, 0, 62, 0
2, 29092, Note_on_c, 0, 73, 0
2, 29100, Note_on_c, 0, 76, 48
2, 29127, Note_on_c, 0, 76, 0
2, 29130, Note_on_c, 0, 78, 67
2, 29164, Note_on_c, 0, 80, 38
2, 29168, Note_on_c, 0, 78, 0
2, 29186, Note_on_c, 0, 80, 0
2, 29192, Note_on_c, 0, 55, 35
2, 29193, Note_on_c, 0, 60, 31
2, 29194, Note_on_c, 0, 83, 53
2, 29196, Note_on_c, 0, 63, 25
2, 29209, Note_on_c, 0, 83, 0
2, 29223, Note_on_c, 0, 55, 0
2, 29224, Note_on_c, 0, 84, 32
2, 29236, Note_on_c, 0, 60, 0
2, 29236, Note_on_c, 0, 63, 0
2, 29245, Note_on_c, 0, 84, 0
2, 29252, Note_on_c, 0, 62, 70
2, 29252, Note_on_c, 0, 86, 69
2, 29254, Note_on_c, 0, 58, 53
2, 29255, Note_on_c, 0, 60, 55
2, 29256, Note_on_c, 0, 54, 57
2, 29275, Note_on_c, 0, 86, 0
2, 29283, Note_on_c, 0, 60, 0
2, 29287, Note_on_c, 0, 87, 34
2, 29300, Note_on_c, 0, 62, 0
2, 29304, Note_on_c, 0, 87, 0
2, 29317, Note_on_c, 0, 88, 64
2, 29331, Note_on_c, 0, 54, 0
2, 29332, Note_on_c, 0, 58, 0
2, 29334, Note_on_c, 0, 88, 0
2, 29345, Note_on_c, 0, 77, 72
2, 29345, Note_on_c, 0, 89, 82
2, 29346, Note_on_c, 0, 62, 55
2, 29346, Note_on_c, 0, 57, 59
2, 29346, Note_on_c, 0, 58, 29
2, 29350, Note_on_c, 0, 53, 43
2, 29437, Note_on_c, 0, 89, 0
2, 29437, Note_on_c, 0, 86, 73
2, 29444, Note_on_c, 0, 77, 0
2, 29458, Note_on_c, 0, 77, 24
2, 29476, Note_on_c, 0, 77, 0
2, 29486, Note_on_c, 0, 57, 0
2, 29487, Note_on_c, 0, 86, 0
2, 29490, Note_on_c, 0, 58, 0
2, 29491, Note_on_c, 0, 62, 0
2, 29495, Note_on_c, 0, 53, 0
2, 29495, Note_on_c, 0, 77, 44
2, 29502, Note_on_c, 0, 77, 0
2, 29526, Note_on_c, 0, 62, 47
2, 29526, Note_on_c, 0, 58, 45
2, 29526, Note_on_c, 0, 77, 85
2, 29528, Note_on_c, 0, 85, 83
2, 29528, Note_on_c, 0, 89, 85
2, 29532, Note_on_c, 0, 62, 0
2, 29539, Note_on_c, 0, 58, 0
2, 29563, Note_on_c, 0, 85, 0
2, 29567, Note_on_c, 0, 77, 0
2, 29567, Note_on_c, 0, 86, 32
2, 29572, Note_on_c, 0, 86, 0
2, 29575, Note_on_c, 0, 89, 0
2, 29611, Note_on_c, 0, 74, 48
2, 29613, Note_on_c, 0, 86, 32
2, 29614, Note_on_c, 0, 58, 37
2, 29614, Note_on_c, 0, 62, 44
2, 29628, Note_on_c, 0, 62, 0
2, 29632, Note_on_c, 0, 58, 0
2, 29634, Note_on_c, 0, 74, 0
2, 29643, Note_on_c, 0, 86, 0
2, 29758, Note_on_c, 0, 65, 34
2, 29758, Note_on_c, 0, 60, 41
2, 29759, Note_on_c, 0, 61, 38
2, 29760, Note_on_c, 0, 55, 35
2, 29824, Note_on_c, 0, 65, 0
2, 29824, Note_on_c, 0, 93, 113
2, 29828, Note_on_c, 0, 55, 0
2, 29833, Note_on_c, 0, 60, 0
2, 29833, Note_on_c, 0, 61, 0
2, 29847, Note_on_c, 0, 93, 0
2, 29856, Note_on_c, 0, 94, 53
2, 29866, Note_on_c, 0, 93, 59
2, 29872, Note_on_c, 0, 94, 0
2, 29886, Note_on_c, 0, 91, 41
2, 29889, Note_on_c, 0, 93, 0
2, 29903, Note_on_c, 0, 91, 0
2, 29916, Note_on_c, 0, 90, 64
2, 29918, Note_on_c, 0, 66, 57
2, 29920, Note_on_c, 0, 61, 40
2, 29922, Note_on_c, 0, 55, 28
2, 29924, Note_on_c, 0, 66, 0
2, 29925, Note_on_c, 0, 61, 0
2, 29928, Note_on_c, 0, 55, 0
2, 29937, Note_on_c, 0, 90, 0
2, 29947, Note_on_c, 0, 88, 47
2, 29964, Note_on_c, 0, 88, 0
2, 29978, Note_on_c, 0, 87, 68
2, 29997, Note_on_c, 0, 87, 0
2, 30008, Note_on_c, 0, 85, 49
2, 30038, Note_on_c, 0, 85, 0
2, 30038, Note_on_c, 0, 61, 44
2, 30039, Note_on_c, 0, 84, 60
2, 30039, Note_on_c, 0, 55, 54
2, 30039, Note_on_c, 0, 65, 48
2, 30056, Note_on_c, 0, 84, 0
2, 30070, Note_on_c, 0, 82, 36
2, 30098, Note_on_c, 0, 82, 0
2, 30104, Note_on_c, 0, 65, 0
2, 30106, Note_on_c, 0, 79, 30
2, 30113, Note_on_c, 0, 79, 0
2, 30126, Note_on_c, 0, 81, 82
2, 30133, Note_on_c, 0, 55, 0
2, 30137, Note_on_c, 0, 61, 0
2, 30148, Note_on_c, 0, 81, 0
2, 30158, Note_on_c, 0, 82, 47
2, 30168, Note_on_c, 0, 61, 29
2, 30168, Note_on_c, 0, 81, 57
2, 30170, Note_on_c, 0, 55, 31
2, 30175, Note_on_c, 0, 82, 0
2, 30185, Note_on_c, 0, 81, 0
2, 30188, Note_on_c, 0, 79, 33
2, 30192, Note_on_c, 0, 55, 0
2, 30209, Note_on_c, 0, 79, 0
2, 30218, Note_on_c, 0, 61, 0
2, 30222, Note_on_c, 0, 78, 62
2, 30230, Note_on_c, 0, 60, 33
2, 30232, Note_on_c, 0, 64, 25
2, 30239, Note_on_c, 0, 54, 25
2, 30245, Note_on_c, 0, 78, 0
2, 30254, Note_on_c, 0, 77, 30
2, 30257, Note_on_c, 0, 60, 0
2, 30284, Note_on_c, 0, 75, 57
2, 30288, Note_on_c, 0, 77, 0
2, 30293, Note_on_c, 0, 64, 0
2, 30302, Note_on_c, 0, 75, 0
2, 30314, Note_on_c, 0, 72, 36
2, 30364, Note_on_c, 0, 54, 0
2, 30391, Note_on_c, 0, 72, 0
2, 30397, Note_on_c, 0, 77, 80
2, 30404, Note_on_c, 0, 60, 44
2, 30410, Note_on_c, 0, 60, 0
2, 30432, Note_on_c, 0, 72, 54
2, 30435, Note_on_c, 0, 77, 0
2, 30460, Note_on_c, 0, 66, 62
2, 30462, Note_on_c, 0, 72, 0
2, 30480, Note_on_c, 0, 66, 0
2, 30491, Note_on_c, 0, 65, 38
2, 30514, Note_on_c, 0, 65, 0
2, 30515, Note_on_c, 0, 63, 52
2, 30519, Note_on_c, 0, 60, 22
2, 30522, Note_on_c, 0, 54, 32
2, 30524, Note_on_c, 0, 60, 0
2, 30532, Note_on_c, 0, 54, 0
2, 30535, Note_on_c, 0, 63, 0
2, 30547, Note_on_c, 0, 60, 31
2, 30575, Note_on_c, 0, 48, 45
2, 30580, Note_on_c, 0, 60, 0
2, 30590, Note_on_c, 0, 48, 0
2, 30602, Note_on_c, 0, 65, 76
2, 30606, Note_on_c, 0, 50, 35
2, 30627, Note_on_c, 0, 65, 0
2, 30636, Note_on_c, 0, 63, 46
2, 30656, Note_on_c, 0, 63, 0
2, 30660, Note_on_c, 0, 50, 0
2, 30667, Note_on_c, 0, 60, 31
2, 30685, Note_on_c, 0, 60, 0
2, 30694, Note_on_c, 0, 58, 55
2, 30703, Note_on_c, 0, 43, 34
2, 30716, Note_on_c, 0, 58, 0
2, 30753, Note_on_c, 0, 52, 60
2, 30757, Note_on_c, 0, 50, 29
2, 30767, Note_on_c, 0, 52, 0
2, 30770, Note_on_c, 0, 50, 0
2, 30780, Note_on_c, 0, 57, 71
2, 30807, Note_on_c, 0, 57, 0
2, 30814, Note_on_c, 0, 54, 31
2, 30827, Note_on_c, 0, 54, 0
2, 30843, Note_on_c, 0, 55, 22
2, 30869, Note_on_c, 0, 55, 0
2, 30873, Note_on_c, 0, 57, 56
2, 30893, Note_on_c, 0, 57, 0
2, 30902, Note_on_c, 0, 58, 45
2, 30927, Note_on_c, 0, 58, 0
2, 30935, Note_on_c, 0, 60, 74
2, 30953, Note_on_c, 0, 60, 0
2, 30968, Note_on_c, 0, 57, 32
2, 30993, Note_on_c, 0, 57, 0
2, 30996, Note_on_c, 0, 58, 57
2, 31015, Note_on_c, 0, 58, 0
2, 31023, Note_on_c, 0, 43, 0
2, 31027, Note_on_c, 0, 59, 41
2, 31050, Note_on_c, 0, 59, 0
2, 31055, Note_on_c, 0, 61, 55
2, 31070, Note_on_c, 0, 61, 0
2, 31082, Note_on_c, 0, 64, 44
2, 31108, Note_on_c, 0, 64, 0
2, 31111, Note_on_c, 0, 66, 64
2, 31117, Note_on_c, 0, 56, 33
2, 31133, Note_on_c, 0, 56, 0
2, 31141, Note_on_c, 0, 66, 0
2, 31144, Note_on_c, 0, 68, 44
2, 31167, Note_on_c, 0, 68, 0
2, 31174, Note_on_c, 0, 69, 58
2, 31195, Note_on_c, 0, 69, 0
2, 31201, Note_on_c, 0, 70, 55
2, 31222, Note_on_c, 0, 70, 0
2, 31234, Note_on_c, 0, 71, 34
2, 31241, Note_on_c, 0, 60, 32
2, 31246, Note_on_c, 0, 60, 0
2, 31250, Note_on_c, 0, 71, 0
2, 31296, Note_on_c, 0, 74, 44
2, 31317, Note_on_c, 0, 74, 0
2, 31325, Note_on_c, 0, 76, 41
2, 31344, Note_on_c, 0, 76, 0
2, 31360, Note_on_c, 0, 65, 64
2, 31361, Note_on_c, 0, 77, 36
2, 31367, Note_on_c, 0, 77, 0
2, 31371, Note_on_c, 0, 65, 0
2, 31385, Note_on_c, 0, 78, 71
2, 31386, Note_on_c, 0, 66, 72
2, 31426, Note_on_c, 0, 78, 0
2, 31429, Note_on_c, 0, 66, 0
2, 31448, Note_on_c, 0, 78, 49
2, 31449, Note_on_c, 0, 66, 49
2, 31474, Note_on_c, 0, 78, 0
2, 31475, Note_on_c, 0, 66, 0
2, 31485, Note_on_c, 0, 78, 47
2, 31485, Note_on_c, 0, 66, 37
2, 31494, Note_on_c, 0, 66, 0
2, 31499, Note_on_c, 0, 78, 0
2, 31538, Note_on_c, 0, 63, 40
2, 31540, Note_on_c, 0, 60, 36
2, 31546, Note_on_c, 0, 60, 0
2, 31550, Note_on_c, 0, 63, 0
2, 31575, Note_on_c, 0, 63, 39
2, 31578, Note_on_c, 0, 54, 42
2, 31594, Note_on_c, 0, 54, 0
2, 31594, Note_on_c, 0, 60, 45
2, 31595, Note_on_c, 0, 60, 0
2, 31597, Note_on_c, 0, 63, 0
2, 31622, Note_on_c, 0, 63, 37
2, 31625, Note_on_c, 0, 54, 42
2, 31650, Note_on_c, 0, 63, 0
2, 31660, Note_on_c, 0, 54, 0
2, 31686, Note_on_c, 0, 59, 38
2, 31687, Note_on_c, 0, 53, 35
2, 31704, Note_on_c, 0, 59, 0
2, 31706, Note_on_c, 0, 53, 0
2, 31775, Note_on_c, 0, 61, 50
2, 31776, Note_on_c, 0, 59, 44
2, 31777, Note_on_c, 0, 53, 37
2, 31785, Note_on_c, 0, 53, 0
2, 31787, Note_on_c, 0, 59, 0
2, 31788, Note_on_c, 0, 61, 0
2, 31834, Note_on_c, 0, 82, 83
2, 31835, Note_on_c, 0, 70, 87
2, 31863, Note_on_c, 0, 70, 0
2, 31866, Note_on_c, 0, 82, 0
2, 31870, Note_on_c, 0, 71, 65
2, 31872, Note_on_c, 0, 83, 62
2, 31877, Note_on_c, 0, 81, 34
2, 31883, Note_on_c, 0, 81, 0
2, 31892, Note_on_c, 0, 83, 0
2, 31894, Note_on_c, 0, 71, 0
2, 31909, Note_on_c, 0, 59, 24
2, 31918, Note_on_c, 0, 80, 38
2, 31919, Note_on_c, 0, 59, 0
2, 31919, Note_on_c, 0, 68, 46
2, 31921, Note_on_c, 0, 78, 32
2, 31942, Note_on_c, 0, 80, 0
2, 31947, Note_on_c, 0, 78, 0
2, 31947, Note_on_c, 0, 68, 0
2, 31956, Note_on_c, 0, 67, 39
2, 31959, Note_on_c, 0, 79, 36
2, 31971, Note_on_c, 0, 79, 0
2, 31973, Note_on_c, 0, 67, 0
2, 32011, Note_on_c, 0, 59, 38
2, 32015, Note_on_c, 0, 53, 32
2, 32024, Note_on_c, 0, 53, 0
2, 32025, Note_on_c, 0, 59, 0
2, 32070, Note_on_c, 0, 74, 45
2, 32082, Note_on_c, 0, 74, 0
2, 32101, Note_on_c, 0, 77, 89
2, 32125, Note_on_c, 0, 77, 0
2, 32136, Note_on_c, 0, 75, 68
2, 32157, Note_on_c, 0, 75, 0
2, 32168, Note_on_c, 0, 72, 34
2, 32186, Note_on_c, 0, 72, 0
2, 32199, Note_on_c, 0, 72, 54
2, 32213, Note_on_c, 0, 72, 0
2, 32227, Note_on_c, 0, 70, 55
2, 32261, Note_on_c, 0, 70, 0
2, 32279, Note_on_c, 0, 72, 50
2, 32372, Note_on_c, 0, 63, 60
2, 32374, Note_on_c, 0, 58, 52
2, 32375, Note_on_c, 0, 53, 36
2, 32381, Note_on_c, 0, 53, 0
2, 32383, Note_on_c, 0, 63, 0
2, 32387, Note_on_c, 0, 58, 0
2, 32413, Note_on_c, 0, 63, 61
2, 32415, Note_on_c, 0, 58, 51
2, 32416, Note_on_c, 0, 53, 53
2, 32434, Note_on_c, 0, 53, 0
2, 32453, Note_on_c, 0, 58, 0
2, 32454, Note_on_c, 0, 63, 0
2, 32463, Note_on_c, 0, 65, 75
2, 32464, Note_on_c, 0, 60, 67
2, 32467, Note_on_c, 0, 55, 68
2, 32526, Note_on_c, 0, 55, 0
2, 32531, Note_on_c, 0, 65, 0
2, 32533, Note_on_c, 0, 60, 0
2, 32556, Note_on_c, 0, 63, 62
2, 32558, Note_on_c, 0, 53, 59
2, 32559, Note_on_c, 0, 58, 53
2, 32614, Note_on_c, 0, 53, 0
2, 32630, Note_on_c, 0, 63, 0
2, 32631, Note_on_c, 0, 58, 0
2, 32642, Note_on_c, 0, 62, 53
2, 32644, Note_on_c, 0, 51, 38
2, 32644, Note_on_c, 0, 57, 46
2, 32645, Note_on_c, 0, 72, 0
2, 32729, Note_on_c, 0, 72, 57
2, 32738, Note_on_c, 0, 72, 0
2, 32768, Note_on_c, 0, 79, 94
2, 32798, Note_on_c, 0, 79, 0
2, 32812, Note_on_c, 0, 57, 0
2, 32812, Note_on_c, 0, 75, 69
2, 32816, Note_on_c, 0, 51, 0
2, 32834, Note_on_c, 0, 62, 0
2, 32837, Note_on_c, 0, 75, 0
2, 32856, Note_on_c, 0, 74, 89
2, 32860, Note_on_c, 0, 60, 41
2, 32860, Note_on_c, 0, 63, 38
2, 32864, Note_on_c, 0, 55, 29
2, 32867, Note_on_c, 0, 57, 19
2, 32893, Note_on_c, 0, 74, 0
2, 32901, Note_on_c, 0, 75, 45
2, 32913, Note_on_c, 0, 74, 33
2, 32918, Note_on_c, 0, 55, 0
2, 32922, Note_on_c, 0, 75, 0
2, 32924, Note_on_c, 0, 63, 0
2, 32929, Note_on_c, 0, 57, 0
2, 32931, Note_on_c, 0, 74, 0
2, 32933, Note_on_c, 0, 72, 42
2, 32951, Note_on_c, 0, 60, 0
2, 32954, Note_on_c, 0, 72, 0
2, 32968, Note_on_c, 0, 70, 74
2, 32971, Note_on_c, 0, 60, 50
2, 32974, Note_on_c, 0, 62, 48
2, 32976, Note_on_c, 0, 54, 42
2, 32990, Note_on_c, 0, 70, 0
2, 33004, Note_on_c, 0, 69, 49
2, 33036, Note_on_c, 0, 60, 0
2, 33041, Note_on_c, 0, 62, 0
2, 33076, Note_on_c, 0, 54, 0
2, 33094, Note_on_c, 0, 62, 45
2, 33095, Note_on_c, 0, 57, 40
2, 33096, Note_on_c, 0, 58, 31
2, 33102, Note_on_c, 0, 55, 19
2, 33139, Note_on_c, 0, 69, 0
2, 33179, Note_on_c, 0, 72, 90
2, 33215, Note_on_c, 0, 62, 0
2, 33220, Note_on_c, 0, 71, 35
2, 33225, Note_on_c, 0, 72, 0
2, 33230, Note_on_c, 0, 70, 53
2, 33231, Note_on_c, 0, 71, 0
2, 33233, Note_on_c, 0, 57, 0
2, 33234, Note_on_c, 0, 58, 0
2, 33237, Note_on_c, 0, 55, 0
2, 33245, Note_on_c, 0, 69, 44
2, 33248, Note_on_c, 0, 70, 0
2, 33319, Note_on_c, 0, 69, 0
2, 33333, Note_on_c, 0, 69, 80
2, 33337, Note_on_c, 0, 62, 58
2, 33339, Note_on_c, 0, 58, 37
2, 33344, Note_on_c, 0, 62, 0
2, 33352, Note_on_c, 0, 58, 0
2, 33375, Note_on_c, 0, 68, 25
2, 33379, Note_on_c, 0, 69, 0
2, 33387, Note_on_c, 0, 67, 17
2, 33392, Note_on_c, 0, 68, 0
2, 33403, Note_on_c, 0, 67, 0
2, 33405, Note_on_c, 0, 66, 39
2, 33414, Note_on_c, 0, 66, 0
2, 33426, Note_on_c, 0, 69, 79
2, 33458, Note_on_c, 0, 69, 0
2, 33462, Note_on_c, 0, 66, 36
2, 33475, Note_on_c, 0, 66, 0
2, 33488, Note_on_c, 0, 67, 43
2, 33515, Note_on_c, 0, 67, 0
2, 33525, Note_on_c, 0, 62, 42
2, 33540, Note_on_c, 0, 62, 0
2, 33594, Note_on_c, 0, 55, 22
2, 33599, Note_on_c, 0, 55, 0
2, 33648, Note_on_c, 0, 44, 57
2, 33658, Note_on_c, 0, 44, 0
2, 33703, Note_on_c, 0, 80, 79
2, 33704, Note_on_c, 0, 66, 73
2, 33704, Note_on_c, 0, 65, 49
2, 33707, Note_on_c, 0, 58, 33
2, 33707, Note_on_c, 0, 60, 41
2, 33709, Note_on_c, 0, 65, 0
2, 33719, Note_on_c, 0, 60, 0
2, 33729, Note_on_c, 0, 58, 0
2, 33730, Note_on_c, 0, 66, 0
2, 33730, Note_on_c, 0, 80, 0
2, 33744, Note_on_c, 0, 78, 52
2, 33765, Note_on_c, 0, 78, 0
2, 33782, Note_on_c, 0, 80, 72
2, 33782, Note_on_c, 0, 66, 64
2, 33787, Note_on_c, 0, 54, 31
2, 33788, Note_on_c, 0, 58, 30
2, 33791, Note_on_c, 0, 60, 29
2, 33798, Note_on_c, 0, 60, 0
2, 33800, Note_on_c, 0, 66, 0
2, 33803, Note_on_c, 0, 80, 0
2, 33812, Note_on_c, 0, 58, 0
2, 33814, Note_on_c, 0, 54, 0
2, 33936, Note_on_c, 0, 65, 69
2, 33936, Note_on_c, 0, 60, 60
2, 33937, Note_on_c, 0, 58, 48
2, 33938, Note_on_c, 0, 54, 42
2, 33947, Note_on_c, 0, 65, 0
2, 33951, Note_on_c, 0, 60, 0
2, 33956, Note_on_c, 0, 54, 0
2, 33961, Note_on_c, 0, 58, 0
2, 33997, Note_on_c, 0, 65, 69
2, 33997, Note_on_c, 0, 58, 47
2, 33998, Note_on_c, 0, 60, 55
2, 33999, Note_on_c, 0, 54, 40
2, 34000, Note_on_c, 0, 86, 77
2, 34002, Note_on_c, 0, 74, 70
2, 34007, Note_on_c, 0, 65, 0
2, 34016, Note_on_c, 0, 86, 0
2, 34016, Note_on_c, 0, 74, 0
2, 34017, Note_on_c, 0, 60, 0
2, 34033, Note_on_c, 0, 54, 0
2, 34036, Note_on_c, 0, 58, 0
2, 34045, Note_on_c, 0, 84, 73
2, 34046, Note_on_c, 0, 72, 67
2, 34056, Note_on_c, 0, 84, 0
2, 34059, Note_on_c, 0, 72, 0
2, 34081, Note_on_c, 0, 62, 42
2, 34081, Note_on_c, 0, 58, 37
2, 34082, Note_on_c, 0, 80, 67
2, 34082, Note_on_c, 0, 53, 32
2, 34083, Note_on_c, 0, 68, 63
2, 34083, Note_on_c, 0, 57, 36
2, 34096, Note_on_c, 0, 68, 0
2, 34098, Note_on_c, 0, 81, 42
2, 34100, Note_on_c, 0, 69, 38
2, 34105, Note_on_c, 0, 81, 0
2, 34115, Note_on_c, 0, 80, 0
2, 34115, Note_on_c, 0, 69, 0
2, 34131, Note_on_c, 0, 77, 56
2, 34135, Note_on_c, 0, 65, 51
2, 34143, Note_on_c, 0, 65, 0
2, 34149, Note_on_c, 0, 77, 0
2, 34150, Note_on_c, 0, 62, 0
2, 34154, Note_on_c, 0, 58, 0
2, 34154, Note_on_c, 0, 53, 0
2, 34155, Note_on_c, 0, 57, 0
2, 34168, Note_on_c, 0, 68, 65
2, 34168, Note_on_c, 0, 80, 68
2, 34171, Note_on_c, 0, 62, 30
2, 34172, Note_on_c, 0, 58, 36
2, 34172, Note_on_c, 0, 53, 33
2, 34174, Note_on_c, 0, 57, 39
2, 34179, Note_on_c, 0, 68, 0
2, 34182, Note_on_c, 0, 81, 45
2, 34184, Note_on_c, 0, 80, 0
2, 34184, Note_on_c, 0, 69, 42
2, 34197, Note_on_c, 0, 81, 0
2, 34199, Note_on_c, 0, 69, 0
2, 34207, Note_on_c, 0, 53, 0
2, 34208, Note_on_c, 0, 62, 0
2, 34209, Note_on_c, 0, 57, 0
2, 34211, Note_on_c, 0, 58, 0
2, 34227, Note_on_c, 0, 82, 68
2, 34227, Note_on_c, 0, 58, 40
2, 34227, Note_on_c, 0, 70, 65
2, 34228, Note_on_c, 0, 53, 34
2, 34228, Note_on_c, 0, 62, 26
2, 34231, Note_on_c, 0, 57, 31
2, 34243, Note_on_c, 0, 62, 0
2, 34244, Note_on_c, 0, 57, 0
2, 34245, Note_on_c, 0, 53, 0
2, 34247, Note_on_c, 0, 70, 0
2, 34250, Note_on_c, 0, 58, 0
2, 34251, Note_on_c, 0, 82, 0
2, 34286, Note_on_c, 0, 58, 52
2, 34287, Note_on_c, 0, 84, 66
2, 34287, Note_on_c, 0, 62, 49
2, 34288, Note_on_c, 0, 72, 68
2, 34289, Note_on_c, 0, 53, 40
2, 34290, Note_on_c, 0, 57, 34
2, 34297, Note_on_c, 0, 57, 0
2, 34297, Note_on_c, 0, 84, 0
2, 34297, Note_on_c, 0, 53, 0
2, 34299, Note_on_c, 0, 62, 0
2, 34302, Note_on_c, 0, 72, 0
2, 34307, Note_on_c, 0, 58, 0
2, 34348, Note_on_c, 0, 58, 45
2, 34349, Note_on_c, 0, 81, 71
2, 34350, Note_on_c, 0, 62, 37
2, 34350, Note_on_c, 0, 57, 41
2, 34350, Note_on_c, 0, 53, 38
2, 34351, Note_on_c, 0, 69, 66
2, 34356, Note_on_c, 0, 62, 0
2, 34357, Note_on_c, 0, 57, 0
2, 34358, Note_on_c, 0, 53, 0
2, 34362, Note_on_c, 0, 69, 0
2, 34363, Note_on_c, 0, 81, 0
2, 34364, Note_on_c, 0, 58, 0
2, 34382, Note_on_c, 0, 53, 33
2, 34382, Note_on_c, 0, 58, 37
2, 34382, Note_on_c, 0, 62, 36
2, 34383, Note_on_c, 0, 77, 44
2, 34385, Note_on_c, 0, 57, 30
2, 34385, Note_on_c, 0, 65, 57
2, 34490, Note_on_c, 0, 65, 0
2, 34497, Note_on_c, 0, 57, 0
2, 34503, Note_on_c, 0, 53, 0
2, 34509, Note_on_c, 0, 77, 0
2, 34513, Note_on_c, 0, 62, 0
2, 34529, Note_on_c, 0, 58, 0
2, 34560, Note_on_c, 0, 63, 51
2, 34560, Note_on_c, 0, 80, 88
2, 34561, Note_on_c, 0, 59, 44
2, 34563, Note_on_c, 0, 56, 34
2, 34564, Note_on_c, 0, 53, 34
2, 34588, Note_on_c, 0, 80, 0
2, 34591, Note_on_c, 0, 63, 0
2, 34596, Note_on_c, 0, 82, 54
2, 34604, Note_on_c, 0, 53, 0
2, 34616, Note_on_c, 0, 82, 0
2, 34625, Note_on_c, 0, 80, 46
2, 34634, Note_on_c, 0, 56, 0
2, 34642, Note_on_c, 0, 59, 0
2, 34652, Note_on_c, 0, 80, 0
2, 34653, Note_on_c, 0, 79, 57
2, 34662, Note_on_c, 0, 59, 29
2, 34666, Note_on_c, 0, 79, 0
2, 34682, Note_on_c, 0, 77, 45
2, 34722, Note_on_c, 0, 77, 0
2, 34727, Note_on_c, 0, 59, 0
2, 34739, Note_on_c, 0, 74, 41
2, 34767, Note_on_c, 0, 74, 0
2, 34777, Note_on_c, 0, 59, 32
2, 34781, Note_on_c, 0, 56, 20
2, 34787, Note_on_c, 0, 59, 0
2, 34795, Note_on_c, 0, 56, 0
2, 34797, Note_on_c, 0, 70, 59
2, 34829, Note_on_c, 0, 70, 0
2, 34837, Note_on_c, 0, 71, 51
2, 34870, Note_on_c, 0, 71, 0
2, 34891, Note_on_c, 0, 68, 79
2, 34896, Note_on_c, 0, 59, 35
2, 34899, Note_on_c, 0, 56, 20
2, 34908, Note_on_c, 0, 59, 0
2, 34917, Note_on_c, 0, 68, 0
2, 34919, Note_on_c, 0, 56, 0
2, 34927, Note_on_c, 0, 67, 47
2, 34957, Note_on_c, 0, 56, 18
2, 34962, Note_on_c, 0, 67, 0
2, 34968, Note_on_c, 0, 56, 0
2, 34980, Note_on_c, 0, 65, 60
2, 35010, Note_on_c, 0, 65, 0
2, 35015, Note_on_c, 0, 63, 54
2, 35021, Note_on_c, 0, 58, 36
2, 35021, Note_on_c, 0, 55, 40
2, 35025, Note_on_c, 0, 48, 37
2, 35035, Note_on_c, 0, 55, 0
2, 35036, Note_on_c, 0, 58, 0
2, 35039, Note_on_c, 0, 63, 0
2, 35046, Note_on_c, 0, 62, 41
2, 35076, Note_on_c, 0, 62, 0
2, 35082, Note_on_c, 0, 55, 15
2, 35084, Note_on_c, 0, 59, 22
2, 35093, Note_on_c, 0, 59, 0
2, 35097, Note_on_c, 0, 55, 0
2, 35104, Note_on_c, 0, 62, 68
2, 35134, Note_on_c, 0, 62, 0
2, 35135, Note_on_c, 0, 48, 0
2, 35140, Note_on_c, 0, 59, 33
2, 35152, Note_on_c, 0, 59, 0
2, 35162, Note_on_c, 0, 60, 39
2, 35200, Note_on_c, 0, 55, 64
2, 35202, Note_on_c, 0, 60, 0
2, 35218, Note_on_c, 0, 55, 0
2, 35240, Note_on_c, 0, 55, 53
2, 35265, Note_on_c, 0, 55, 0
2, 35280, Note_on_c, 0, 55, 53
2, 35294, Note_on_c, 0, 55, 0
2, 35338, Note_on_c, 0, 63, 49
2, 35342, Note_on_c, 0, 58, 46
2, 35343, Note_on_c, 0, 53, 28
2, 35361, Note_on_c, 0, 53, 0
2, 35364, Note_on_c, 0, 63, 0
2, 35367, Note_on_c, 0, 58, 0
2, 35433, Note_on_c, 0, 62, 47
2, 35433, Note_on_c, 0, 51, 40
2, 35434, Note_on_c, 0, 57, 51
2, 35447, Note_on_c, 0, 62, 0
2, 35449, Note_on_c, 0, 57, 0
2, 35450, Note_on_c, 0, 51, 0
2, 35517, Note_on_c, 0, 60, 45
2, 35518, Note_on_c, 0, 61, 28
2, 35519, Note_on_c, 0, 65, 44
2, 35522, Note_on_c, 0, 55, 46
2, 35591, Note_on_c, 0, 61, 0
2, 35611, Note_on_c, 0, 61, 37
2, 35636, Note_on_c, 0, 91, 101
2, 35664, Note_on_c, 0, 91, 0
2, 35666, Note_on_c, 0, 65, 0
2, 35669, Note_on_c, 0, 96, 82
2, 35677, Note_on_c, 0, 60, 0
2, 35686, Note_on_c, 0, 96, 0
2, 35687, Note_on_c, 0, 55, 0
2, 35698, Note_on_c, 0, 85, 57
2, 35709, Note_on_c, 0, 61, 0
2, 35731, Note_on_c, 0, 85, 0
2, 35733, Note_on_c, 0, 84, 54
2, 35740, Note_on_c, 0, 84, 0
2, 35762, Note_on_c, 0, 89, 63
2, 35763, Note_on_c, 0, 88, 69
2, 35781, Note_on_c, 0, 89, 0
2, 35788, Note_on_c, 0, 88, 0
2, 35792, Note_on_c, 0, 93, 80
2, 35799, Note_on_c, 0, 61, 35
2, 35808, Note_on_c, 0, 93, 0
2, 35823, Note_on_c, 0, 80, 30
2, 35825, Note_on_c, 0, 82, 21
2, 35826, Note_on_c, 0, 61, 0
2, 35838, Note_on_c, 0, 82, 0
2, 35843, Note_on_c, 0, 80, 0
2, 35853, Note_on_c, 0, 79, 54
2, 35870, Note_on_c, 0, 79, 0
2, 35914, Note_on_c, 0, 66, 43
2, 35915, Note_on_c, 0, 55, 54
2, 35916, Note_on_c, 0, 61, 40
2, 35977, Note_on_c, 0, 66, 0
2, 35980, Note_on_c, 0, 55, 0
2, 35988, Note_on_c, 0, 61, 0
2, 36002, Note_on_c, 0, 63, 45
2, 36005, Note_on_c, 0, 60, 50
2, 36006, Note_on_c, 0, 57, 35
2, 36009, Note_on_c, 0, 55, 25
2, 36041, Note_on_c, 0, 60, 0
2, 36052, Note_on_c, 0, 60, 20
2, 36066, Note_on_c, 0, 89, 94
2, 36096, Note_on_c, 0, 89, 0
2, 36098, Note_on_c, 0, 63, 0
2, 36100, Note_on_c, 0, 84, 68
2, 36103, Note_on_c, 0, 57, 0
2, 36118, Note_on_c, 0, 55, 0
2, 36123, Note_on_c, 0, 84, 0
2, 36128, Note_on_c, 0, 78, 60
2, 36129, Note_on_c, 0, 60, 0
2, 36147, Note_on_c, 0, 78, 0
2, 36159, Note_on_c, 0, 77, 37
2, 36165, Note_on_c, 0, 60, 33
2, 36165, Note_on_c, 0, 63, 25
2, 36172, Note_on_c, 0, 63, 0
2, 36175, Note_on_c, 0, 77, 0
2, 36178, Note_on_c, 0, 60, 0
2, 36186, Note_on_c, 0, 87, 75
2, 36207, Note_on_c, 0, 87, 0
2, 36222, Note_on_c, 0, 65, 46
2, 36223, Note_on_c, 0, 54, 38
2, 36224, Note_on_c, 0, 60, 47
2, 36224, Note_on_c, 0, 58, 37
2, 36282, Note_on_c, 0, 86, 79
2, 36288, Note_on_c, 0, 65, 0
2, 36305, Note_on_c, 0, 86, 0
2, 36312, Note_on_c, 0, 60, 0
2, 36314, Note_on_c, 0, 54, 0
2, 36318, Note_on_c, 0, 58, 0
2, 36328, Note_on_c, 0, 84, 80
2, 36332, Note_on_c, 0, 54, 32
2, 36333, Note_on_c, 0, 64, 32
2, 36334, Note_on_c, 0, 60, 34
2, 36334, Note_on_c, 0, 58, 31
2, 36348, Note_on_c, 0, 84, 0
2, 36365, Note_on_c, 0, 82, 67
2, 36390, Note_on_c, 0, 82, 0
2, 36399, Note_on_c, 0, 60, 0
2, 36405, Note_on_c, 0, 64, 0
2, 36416, Note_on_c, 0, 81, 85
2, 36436, Note_on_c, 0, 54, 0
2, 36437, Note_on_c, 0, 58, 0
2, 36441, Note_on_c, 0, 81, 0
2, 36455, Note_on_c, 0, 84, 84
2, 36457, Note_on_c, 0, 62, 54
2, 36460, Note_on_c, 0, 57, 38
2, 36461, Note_on_c, 0, 58, 30
2, 36467, Note_on_c, 0, 55, 18
2, 36478, Note_on_c, 0, 84, 0
2, 36497, Note_on_c, 0, 82, 73
2, 36530, Note_on_c, 0, 82, 0
2, 36541, Note_on_c, 0, 81, 62
2, 36549, Note_on_c, 0, 62, 0
2, 36551, Note_on_c, 0, 55, 0
2, 36552, Note_on_c, 0, 57, 0
2, 36554, Note_on_c, 0, 81, 0
2, 36559, Note_on_c, 0, 58, 0
2, 36579, Note_on_c, 0, 84, 85
2, 36601, Note_on_c, 0, 84, 0
2, 36618, Note_on_c, 0, 82, 77
2, 36625, Note_on_c, 0, 50, 44
2, 36631, Note_on_c, 0, 50, 0
2, 36656, Note_on_c, 0, 82, 0
2, 36665, Note_on_c, 0, 81, 62
2, 36685, Note_on_c, 0, 81, 0
2, 36704, Note_on_c, 0, 64, 44
2, 36705, Note_on_c, 0, 78, 67
2, 36709, Note_on_c, 0, 59, 17
2, 36715, Note_on_c, 0, 57, 17
2, 36721, Note_on_c, 0, 59, 0
2, 36726, Note_on_c, 0, 57, 0
2, 36727, Note_on_c, 0, 64, 0
2, 36734, Note_on_c, 0, 78, 0
2, 36744, Note_on_c, 0, 81, 74
2, 36777, Note_on_c, 0, 81, 0
2, 36786, Note_on_c, 0, 78, 48
2, 36812, Note_on_c, 0, 78, 0
2, 36822, Note_on_c, 0, 79, 71
2, 36824, Note_on_c, 0, 62, 40
2, 36827, Note_on_c, 0, 58, 25
2, 36829, Note_on_c, 0, 57, 24
2, 36843, Note_on_c, 0, 79, 0
2, 36852, Note_on_c, 0, 55, 1
2, 36854, Note_on_c, 0, 74, 45
2, 36876, Note_on_c, 0, 74, 0
2, 36881, Note_on_c, 0, 62, 0
2, 36884, Note_on_c, 0, 57, 0
2, 36891, Note_on_c, 0, 55, 0
2, 36891, Note_on_c, 0, 74, 40
2, 36902, Note_on_c, 0, 58, 0
2, 36912, Note_on_c, 0, 74, 0
2, 36931, Note_on_c, 0, 74, 38
2, 36954, Note_on_c, 0, 74, 0
2, 36969, Note_on_c, 0, 75, 73
2, 36969, Note_on_c, 0, 63, 31
2, 36970, Note_on_c, 0, 60, 33
2, 36974, Note_on_c, 0, 57, 27
2, 36976, Note_on_c, 0, 54, 25
2, 37050, Note_on_c, 0, 60, 0
2, 37052, Note_on_c, 0, 74, 53
2, 37057, Note_on_c, 0, 63, 0
2, 37064, Note_on_c, 0, 73, 53
2, 37070, Note_on_c, 0, 74, 0
2, 37078, Note_on_c, 0, 75, 0
2, 37084, Note_on_c, 0, 72, 24
2, 37085, Note_on_c, 0, 73, 0
2, 37093, Note_on_c, 0, 57, 0
2, 37096, Note_on_c, 0, 72, 0
2, 37097, Note_on_c, 0, 54, 0
2, 37116, Note_on_c, 0, 72, 80
2, 37123, Note_on_c, 0, 60, 22
2, 37144, Note_on_c, 0, 60, 0
2, 37148, Note_on_c, 0, 71, 37
2, 37151, Note_on_c, 0, 72, 0
2, 37162, Note_on_c, 0, 71, 0
2, 37162, Note_on_c, 0, 70, 49
2, 37180, Note_on_c, 0, 69, 54
2, 37181, Note_on_c, 0, 70, 0
2, 37193, Note_on_c, 0, 69, 0
2, 37204, Note_on_c, 0, 66, 49
2, 37236, Note_on_c, 0, 66, 0
2, 37260, Note_on_c, 0, 63, 46
2, 37290, Note_on_c, 0, 63, 0
2, 37300, Note_on_c, 0, 62, 62
2, 37308, Note_on_c, 0, 54, 23
2, 37325, Note_on_c, 0, 54, 0
2, 37326, Note_on_c, 0, 62, 0
2, 37335, Note_on_c, 0, 63, 32
2, 37349, Note_on_c, 0, 62, 39
2, 37363, Note_on_c, 0, 63, 0
2, 37367, Note_on_c, 0, 62, 0
2, 37370, Note_on_c, 0, 60, 60
2, 37381, Note_on_c, 0, 60, 0
2, 37392, Note_on_c, 0, 59, 37
2, 37450, Note_on_c, 0, 59, 0
2, 37489, Note_on_c, 0, 53, 38
2, 37490, Note_on_c, 0, 43, 31
2, 37496, Note_on_c, 0, 53, 0
2, 37499, Note_on_c, 0, 43, 0
2, 37600, Note_on_c, 0, 43, 26
2, 37609, Note_on_c, 0, 43, 0
2, 37622, Note_on_c, 0, 56, 74
2, 37652, Note_on_c, 0, 56, 0
2, 37659, Note_on_c, 0, 55, 58
2, 37688, Note_on_c, 0, 55, 0
2, 37720, Note_on_c, 0, 53, 38
2, 37721, Note_on_c, 0, 43, 30
2, 37725, Note_on_c, 0, 53, 0
2, 37731, Note_on_c, 0, 43, 0
2, 37743, Note_on_c, 0, 56, 83
2, 37766, Note_on_c, 0, 56, 0
2, 37775, Note_on_c, 0, 55, 51
2, 37784, Note_on_c, 0, 55, 0
2, 37802, Note_on_c, 0, 58, 53
2, 37827, Note_on_c, 0, 58, 0
2, 37841, Note_on_c, 0, 43, 33
2, 37848, Note_on_c, 0, 43, 0
2, 37864, Note_on_c, 0, 59, 77
2, 37890, Note_on_c, 0, 59, 0
2, 37933, Note_on_c, 0, 62, 85
2, 37957, Note_on_c, 0, 62, 0
2, 37968, Note_on_c, 0, 59, 43
2, 37988, Note_on_c, 0, 59, 0
2, 37993, Note_on_c, 0, 60, 60
2, 38009, Note_on_c, 0, 60, 0
2, 38020, Note_on_c, 0, 62, 70
2, 38040, Note_on_c, 0, 62, 0
2, 38051, Note_on_c, 0, 63, 55
2, 38064, Note_on_c, 0, 63, 0
2, 38079, Note_on_c, 0, 67, 68
2, 38100, Note_on_c, 0, 67, 0
2, 38105, Note_on_c, 0, 71, 58
2, 38129, Note_on_c, 0, 71, 0
2, 38136, Note_on_c, 0, 74, 77
2, 38136, Note_on_c, 0, 63, 50
2, 38139, Note_on_c, 0, 58, 44
2, 38140, Note_on_c, 0, 53, 29
2, 38153, Note_on_c, 0, 74, 0
2, 38167, Note_on_c, 0, 71, 35
2, 38183, Note_on_c, 0, 71, 0
2, 38196, Note_on_c, 0, 72, 44
2, 38215, Note_on_c, 0, 72, 0
2, 38221, Note_on_c, 0, 75, 40
2, 38243, Note_on_c, 0, 75, 0
2, 38257, Note_on_c, 0, 77, 34
2, 38273, Note_on_c, 0, 77, 0
2, 38281, Note_on_c, 0, 63, 0
2, 38284, Note_on_c, 0, 82, 51
2, 38285, Note_on_c, 0, 58, 0
2, 38305, Note_on_c, 0, 82, 0
2, 38310, Note_on_c, 0, 63, 27
2, 38313, Note_on_c, 0, 58, 35
2, 38314, Note_on_c, 0, 87, 85
2, 38318, Note_on_c, 0, 82, 34
2, 38323, Note_on_c, 0, 82, 0
2, 38335, Note_on_c, 0, 87, 0
2, 38342, Note_on_c, 0, 63, 0
2, 38342, Note_on_c, 0, 89, 87
2, 38345, Note_on_c, 0, 53, 0
2, 38367, Note_on_c, 0, 89, 0
2, 38373, Note_on_c, 0, 87, 68
2, 38374, Note_on_c, 0, 58, 0
2, 38388, Note_on_c, 0, 87, 0
2, 38404, Note_on_c, 0, 86, 28
2, 38425, Note_on_c, 0, 86, 0
2, 38436, Note_on_c, 0, 83, 18
2, 38444, Note_on_c, 0, 83, 0
2, 38457, Note_on_c, 0, 84, 76
2, 38488, Note_on_c, 0, 84, 0
2, 38493, Note_on_c, 0, 79, 44
2, 38495, Note_on_c, 0, 63, 28
2, 38496, Note_on_c, 0, 67, 27
2, 38502, Note_on_c, 0, 67, 0
2, 38509, Note_on_c, 0, 79, 0
2, 38512, Note_on_c, 0, 63, 0
2, 38524, Note_on_c, 0, 79, 48
2, 38542, Note_on_c, 0, 79, 0
2, 38561, Note_on_c, 0, 79, 42
2, 38577, Note_on_c, 0, 79, 0
2, 38610, Note_on_c, 0, 60, 39
2, 38611, Note_on_c, 0, 63, 37
2, 38613, Note_on_c, 0, 55, 28
2, 38614, Note_on_c, 0, 57, 38
2, 38676, Note_on_c, 0, 87, 94
2, 38692, Note_on_c, 0, 87, 0
2, 38695, Note_on_c, 0, 55, 0
2, 38700, Note_on_c, 0, 63, 0
2, 38702, Note_on_c, 0, 86, 83
2, 38703, Note_on_c, 0, 57, 0
2, 38718, Note_on_c, 0, 86, 0
2, 38718, Note_on_c, 0, 60, 0
2, 38730, Note_on_c, 0, 87, 52
2, 38737, Note_on_c, 0, 86, 69
2, 38744, Note_on_c, 0, 60, 24
2, 38746, Note_on_c, 0, 62, 30
2, 38747, Note_on_c, 0, 54, 32
2, 38748, Note_on_c, 0, 87, 0
2, 38757, Note_on_c, 0, 84, 53
2, 38760, Note_on_c, 0, 86, 0
2, 38765, Note_on_c, 0, 54, 0
2, 38769, Note_on_c, 0, 62, 0
2, 38778, Note_on_c, 0, 60, 0
2, 38780, Note_on_c, 0, 84, 0
2, 38790, Note_on_c, 0, 82, 67
2, 38799, Note_on_c, 0, 54, 31
2, 38799, Note_on_c, 0, 62, 32
2, 38810, Note_on_c, 0, 82, 0
2, 38821, Note_on_c, 0, 81, 42
2, 38829, Note_on_c, 0, 62, 0
2, 38843, Note_on_c, 0, 81, 0
2, 38845, Note_on_c, 0, 54, 0
2, 38852, Note_on_c, 0, 84, 68
2, 38862, Note_on_c, 0, 62, 28
2, 38865, Note_on_c, 0, 84, 0
2, 38866, Note_on_c, 0, 58, 14
2, 38867, Note_on_c, 0, 57, 25
2, 38885, Note_on_c, 0, 81, 79
2, 38896, Note_on_c, 0, 81, 0
2, 38896, Note_on_c, 0, 57, 0
2, 38901, Note_on_c, 0, 62, 0
2, 38935, Note_on_c, 0, 58, 0
2, 38978, Note_on_c, 0, 82, 93
2, 38983, Note_on_c, 0, 58, 39
2, 38988, Note_on_c, 0, 55, 24
2, 38997, Note_on_c, 0, 55, 0
2, 39003, Note_on_c, 0, 58, 0
2, 39010, Note_on_c, 0, 82, 0
2, 39026, Note_on_c, 0, 84, 53
2, 39032, Note_on_c, 0, 82, 57
2, 39038, Note_on_c, 0, 84, 0
2, 39043, Note_on_c, 0, 58, 17
2, 39052, Note_on_c, 0, 82, 0
2, 39053, Note_on_c, 0, 58, 0
2, 39054, Note_on_c, 0, 81, 60
2, 39068, Note_on_c, 0, 81, 0
2, 39078, Note_on_c, 0, 79, 64
2, 39092, Note_on_c, 0, 79, 0
2, 39112, Note_on_c, 0, 78, 75
2, 39130, Note_on_c, 0, 78, 0
2, 39144, Note_on_c, 0, 81, 80
2, 39164, Note_on_c, 0, 81, 0
2, 39171, Note_on_c, 0, 78, 58
2, 39182, Note_on_c, 0, 78, 0
2, 39193, Note_on_c, 0, 79, 68
2, 39216, Note_on_c, 0, 79, 0
2, 39225, Note_on_c, 0, 74, 56
2, 39241, Note_on_c, 0, 74, 0
2, 39251, Note_on_c, 0, 72, 56
2, 39264, Note_on_c, 0, 72, 0
2, 39279, Note_on_c, 0, 70, 57
2, 39282, Note_on_c, 0, 58, 42
2, 39301, Note_on_c, 0, 70, 0
2, 39314, Note_on_c, 0, 69, 19
2, 39321, Note_on_c, 0, 58, 0
2, 39335, Note_on_c, 0, 69, 0
2, 39339, Note_on_c, 0, 67, 30
2, 39345, Note_on_c, 0, 67, 0
2, 39360, Note_on_c, 0, 72, 69
2, 39363, Note_on_c, 0, 58, 35
2, 39364, Note_on_c, 0, 60, 27
2, 39374, Note_on_c, 0, 60, 0
2, 39374, Note_on_c, 0, 54, 26
2, 39383, Note_on_c, 0, 58, 0
2, 39384, Note_on_c, 0, 72, 0
2, 39393, Note_on_c, 0, 60, 50
2, 39394, Note_on_c, 0, 54, 0
2, 39408, Note_on_c, 0, 60, 0
2, 39421, Note_on_c, 0, 60, 46
2, 39438, Note_on_c, 0, 60, 0
2, 39452, Note_on_c, 0, 60, 58
2, 39465, Note_on_c, 0, 60, 0
2, 39480, Note_on_c, 0, 60, 47
2, 39503, Note_on_c, 0, 60, 0
2, 39512, Note_on_c, 0, 72, 57
2, 39518, Note_on_c, 0, 54, 25
2, 39518, Note_on_c, 0, 44, 28
2, 39535, Note_on_c, 0, 72, 0
2, 39547, Note_on_c, 0, 54, 0
2, 39572, Note_on_c, 0, 60, 44
2, 39579, Note_on_c, 0, 60, 0
2, 39587, Note_on_c, 0, 44, 0
2, 39597, Note_on_c, 0, 63, 53
2, 39598, Note_on_c, 0, 69, 47
2, 39599, Note_on_c, 0, 66, 43
2, 39599, Note_on_c, 0, 60, 59
2, 39601, Note_on_c, 0, 49, 28
2, 39605, Note_on_c, 0, 50, 55
2, 39607, Note_on_c, 0, 49, 0
2, 39615, Note_on_c, 0, 69, 0
2, 39620, Note_on_c, 0, 66, 0
2, 39625, Note_on_c, 0, 63, 0
2, 39627, Note_on_c, 0, 60, 0
2, 39632, Note_on_c, 0, 50, 0
2, 39637, Note_on_c, 0, 38, 59
2, 39650, Note_on_c, 0, 38, 0
2, 39666, Note_on_c, 0, 38, 11
2, 39681, Note_on_c, 0, 38, 0
2, 39690, Note_on_c, 0, 65, 66
2, 39690, Note_on_c, 0, 58, 68
2, 39691, Note_on_c, 0, 54, 70
2, 39693, Note_on_c, 0, 60, 60
2, 39694, Note_on_c, 0, 50, 54
2, 39727, Note_on_c, 0, 50, 0
2, 39747, Note_on_c, 0, 39, 48
2, 39750, Note_on_c, 0, 58, 0
2, 39751, Note_on_c, 0, 54, 0
2, 39753, Note_on_c, 0, 65, 0
2, 39757, Note_on_c, 0, 60, 0
2, 39769, Note_on_c, 0, 39, 0
2, 39769, Note_on_c, 0, 42, 45
2, 39778, Note_on_c, 0, 54, 47
2, 39779, Note_on_c, 0, 63, 35
2, 39782, Note_on_c, 0, 58, 42
2, 39782, Note_on_c, 0, 60, 32
2, 39807, Note_on_c, 0, 58, 0
2, 39808, Note_on_c, 0, 63, 0
2, 39810, Note_on_c, 0, 54, 0
2, 39811, Note_on_c, 0, 60, 0
2, 39816, Note_on_c, 0, 39, 31
2, 39836, Note_on_c, 0, 42, 0
2, 39838, Note_on_c, 0, 39, 0
2, 39840, Note_on_c, 0, 43, 37
2, 39845, Note_on_c, 0, 57, 48
2, 39845, Note_on_c, 0, 53, 36
2, 39845, Note_on_c, 0, 60, 34
2, 39861, Note_on_c, 0, 57, 0
2, 39863, Note_on_c, 0, 53, 0
2, 39864, Note_on_c, 0, 60, 0
2, 39889, Note_on_c, 0, 43, 0
2, 39894, Note_on_c, 0, 42, 27
2, 39901, Note_on_c, 0, 42, 0
2, 39904, Note_on_c, 0, 60, 57
2, 39905, Note_on_c, 0, 43, 34
2, 39905, Note_on_c, 0, 53, 39
2, 39906, Note_on_c, 0, 57, 46
2, 39964, Note_on_c, 0, 60, 0
2, 39977, Note_on_c, 0, 53, 0
2, 39982, Note_on_c, 0, 57, 0
2, 39996, Note_on_c, 0, 53, 53
2, 39997, Note_on_c, 0, 58, 51
2, 40001, Note_on_c, 0, 53, 0
2, 40004, Note_on_c, 0, 43, 0
2, 40009, Note_on_c, 0, 58, 0
2, 40025, Control_c, 0, 64, 127
2, 40036, Control_c, 0, 64, 0
2, 40055, Note_on_c, 0, 55, 55
2, 40057, Note_on_c, 0, 63, 48
2, 40057, Note_on_c, 0, 57, 43
2, 40058, Note_on_c, 0, 72, 40
2, 40058, Note_on_c, 0, 84, 53
2, 40063, Note_on_c, 0, 72, 0
2, 40063, Note_on_c, 0, 63, 0
2, 40065, Note_on_c, 0, 84, 0
2, 40069, Note_on_c, 0, 55, 0
2, 40073, Note_on_c, 0, 57, 0
2, 40114, Note_on_c, 0, 55, 51
2, 40114, Note_on_c, 0, 86, 72
2, 40114, Note_on_c, 0, 63, 52
2, 40115, Note_on_c, 0, 74, 57
2, 40120, Note_on_c, 0, 60, 24
2, 40122, Note_on_c, 0, 74, 0
2, 40122, Note_on_c, 0, 63, 0
2, 40125, Note_on_c, 0, 60, 0
2, 40126, Note_on_c, 0, 86, 0
2, 40126, Note_on_c, 0, 55, 0
2, 40168, Note_on_c, 0, 58, 56
2, 40168, Note_on_c, 0, 62, 72
2, 40168, Note_on_c, 0, 60, 63
2, 40169, Note_on_c, 0, 54, 63
2, 40170, Note_on_c, 0, 87, 77
2, 40171, Note_on_c, 0, 75, 72
2, 40182, Note_on_c, 0, 75, 0
2, 40188, Note_on_c, 0, 87, 0
2, 40191, Note_on_c, 0, 62, 0
2, 40198, Note_on_c, 0, 60, 0
2, 40203, Note_on_c, 0, 89, 72
2, 40203, Note_on_c, 0, 62, 48
2, 40205, Note_on_c, 0, 77, 63
2, 40205, Note_on_c, 0, 60, 20
2, 40220, Note_on_c, 0, 89, 0
2, 40227, Note_on_c, 0, 62, 0
2, 40232, Note_on_c, 0, 77, 0
2, 40236, Note_on_c, 0, 54, 0
2, 40241, Note_on_c, 0, 60, 0
2, 40256, Note_on_c, 0, 54, 51
2, 40258, Note_on_c, 0, 87, 64
2, 40259, Note_on_c, 0, 62, 37
2, 40259, Note_on_c, 0, 75, 64
2, 40277, Note_on_c, 0, 62, 0
2, 40293, Note_on_c, 0, 75, 0
2, 40295, Note_on_c, 0, 87, 0
2, 40300, Note_on_c, 0, 54, 0
2, 40301, Note_on_c, 0, 58, 0
2, 40317, Note_on_c, 0, 62, 47
2, 40317, Note_on_c, 0, 57, 36
2, 40319, Note_on_c, 0, 58, 28
2, 40320, Note_on_c, 0, 86, 50
2, 40321, Note_on_c, 0, 74, 36
2, 40322, Note_on_c, 0, 55, 35
2, 40325, Control_c, 0, 64, 127
2, 40350, Note_on_c, 0, 74, 0
2, 40357, Note_on_c, 0, 86, 0
2, 40362, Note_on_c, 0, 55, 0
2, 40364, Note_on_c, 0, 57, 0
2, 40367, Note_on_c, 0, 62, 0
2, 40381, Note_on_c, 0, 58, 0
2, 40412, Note_on_c, 0, 62, 60
2, 40413, Note_on_c, 0, 58, 49
2, 40413, Note_on_c, 0, 57, 62
2, 40413, Note_on_c, 0, 91, 76
2, 40414, Note_on_c, 0, 79, 69
2, 40415, Note_on_c, 0, 55, 53
2, 40427, Control_c, 0, 64, 0
2, 40430, Note_on_c, 0, 62, 0
2, 40431, Note_on_c, 0, 55, 0
2, 40432, Note_on_c, 0, 79, 0
2, 40432, Note_on_c, 0, 57, 0
2, 40433, Note_on_c, 0, 91, 0
2, 40436, Note_on_c, 0, 58, 0
2, 40445, Note_on_c, 0, 62, 53
2, 40446, Note_on_c, 0, 58, 48
2, 40447, Note_on_c, 0, 57, 54
2, 40448, Note_on_c, 0, 55, 50
2, 40448, Note_on_c, 0, 91, 66
2, 40450, Note_on_c, 0, 79, 53
2, 40468, Note_on_c, 0, 79, 0
2, 40469, Note_on_c, 0, 91, 0
2, 40470, Note_on_c, 0, 62, 0
2, 40471, Note_on_c, 0, 57, 0
2, 40473, Note_on_c, 0, 55, 0
2, 40475, Note_on_c, 0, 58, 0
2, 40483, Note_on_c, 0, 62, 57
2, 40485, Note_on_c, 0, 58, 46
2, 40487, Note_on_c, 0, 91, 48
2, 40487, Note_on_c, 0, 79, 46
2, 40488, Note_on_c, 0, 55, 51
2, 40489, Note_on_c, 0, 57, 34
2, 40493, Note_on_c, 0, 79, 0
2, 40494, Note_on_c, 0, 55, 0
2, 40494, Note_on_c, 0, 91, 0
2, 40494, Note_on_c, 0, 57, 0
2, 40496, Note_on_c, 0, 62, 0
2, 40499, Note_on_c, 0, 58, 0
2, 40536, Note_on_c, 0, 62, 57
2, 40536, Note_on_c, 0, 91, 67
2, 40537, Note_on_c, 0, 58, 42
2, 40537, Note_on_c, 0, 79, 63
2, 40538, Note_on_c, 0, 57, 50
2, 40538, Note_on_c, 0, 55, 54
2, 40554, Control_c, 0, 64, 127
2, 40591, Note_on_c, 0, 91, 0
2, 40601, Note_on_c, 0, 79, 0
2, 40605, Note_on_c, 0, 62, 0
2, 40610, Note_on_c, 0, 55, 0
2, 40615, Note_on_c, 0, 58, 0
2, 40622, Note_on_c, 0, 57, 0
2, 40651, Note_on_c, 0, 58, 59
2, 40651, Note_on_c, 0, 87, 80
2, 40652, Note_on_c, 0, 62, 59
2, 40652, Note_on_c, 0, 57, 65
2, 40653, Note_on_c, 0, 55, 49
2, 40653, Note_on_c, 0, 75, 78
2, 40658, Control_c, 0, 64, 0
2, 40674, Note_on_c, 0, 57, 0
2, 40674, Note_on_c, 0, 62, 0
2, 40675, Note_on_c, 0, 75, 0
2, 40676, Note_on_c, 0, 87, 0
2, 40685, Note_on_c, 0, 62, 69
2, 40687, Note_on_c, 0, 86, 68
2, 40688, Note_on_c, 0, 74, 59
2, 40694, Note_on_c, 0, 84, 24
2, 40699, Note_on_c, 0, 84, 0
2, 40709, Note_on_c, 0, 62, 0
2, 40717, Note_on_c, 0, 86, 0
2, 40717, Note_on_c, 0, 55, 0
2, 40719, Note_on_c, 0, 74, 0
2, 40723, Note_on_c, 0, 58, 0
2, 40741, Note_on_c, 0, 58, 57
2, 40742, Note_on_c, 0, 84, 64
2, 40743, Note_on_c, 0, 62, 55
2, 40744, Note_on_c, 0, 72, 58
2, 40745, Note_on_c, 0, 55, 45
2, 40755, Note_on_c, 0, 55, 0
2, 40756, Note_on_c, 0, 84, 0
2, 40765, Note_on_c, 0, 72, 0
2, 40769, Note_on_c, 0, 58, 0
2, 40774, Note_on_c, 0, 62, 0
2, 40805, Note_on_c, 0, 81, 54
2, 40805, Note_on_c, 0, 63, 48
2, 40807, Note_on_c, 0, 60, 55
2, 40807, Note_on_c, 0, 54, 39
2, 40807, Note_on_c, 0, 69, 51
2, 40810, Note_on_c, 0, 57, 47
2, 40847, Note_on_c, 0, 81, 0
2, 40851, Control_c, 0, 64, 127
2, 40861, Note_on_c, 0, 69, 0
2, 40871, Note_on_c, 0, 63, 0
2, 40872, Note_on_c, 0, 54, 0
2, 40881, Note_on_c, 0, 57, 0
2, 40881, Note_on_c, 0, 60, 0
2, 40896, Control_c, 0, 64, 0
2, 40896, Note_on_c, 0, 78, 42
2, 40898, Note_on_c, 0, 66, 42
2, 40899, Note_on_c, 0, 63, 35
2, 40899, Note_on_c, 0, 60, 48
2, 40902, Note_on_c, 0, 57, 34
2, 40906, Note_on_c, 0, 54, 23
2, 40923, Control_c, 0, 64, 127
2, 40933, Note_on_c, 0, 57, 0
2, 40935, Note_on_c, 0, 60, 0
2, 40940, Note_on_c, 0, 63, 0
2, 40962, Note_on_c, 0, 54, 0
2, 40980, Control_c, 0, 64, 0
2, 40981, Note_on_c, 0, 54, 53
2, 40982, Note_on_c, 0, 63, 64
2, 41030, Control_c, 0, 64, 127
2, 41049, Note_on_c, 0, 63, 0
2, 41050, Note_on_c, 0, 66, 0
2, 41063, Note_on_c, 0, 78, 0
2, 41073, Control_c, 0, 64, 0
2, 41074, Note_on_c, 0, 66, 32
2, 41074, Note_on_c, 0, 69, 43
2, 41074, Note_on_c, 0, 62, 44
2, 41087, Control_c, 0, 64, 127
2, 41105, Note_on_c, 0, 66, 0
2, 41112, Note_on_c, 0, 69, 0
2, 41116, Note_on_c, 0, 54, 0
2, 41156, Note_on_c, 0, 54, 55
2, 41190, Control_c, 0, 64, 0
2, 41218, Note_on_c, 0, 82, 95
2, 41240, Note_on_c, 0, 82, 0
2, 41252, Note_on_c, 0, 83, 75
2, 41271, Note_on_c, 0, 54, 0
2, 41272, Note_on_c, 0, 83, 0
2, 41280, Note_on_c, 0, 59, 19
2, 41281, Note_on_c, 0, 82, 48
2, 41281, Note_on_c, 0, 53, 41
2, 41306, Note_on_c, 0, 82, 0
2, 41315, Note_on_c, 0, 80, 65
2, 41332, Note_on_c, 0, 80, 0
2, 41332, Note_on_c, 0, 62, 0
2, 41344, Note_on_c, 0, 79, 55
2, 41371, Note_on_c, 0, 79, 0
2, 41378, Note_on_c, 0, 77, 47
2, 41397, Note_on_c, 0, 77, 0
2, 41418, Note_on_c, 0, 59, 0
2, 41434, Note_on_c, 0, 82, 74
2, 41439, Note_on_c, 0, 59, 32
2, 41452, Note_on_c, 0, 53, 0
2, 41456, Note_on_c, 0, 82, 0
2, 41463, Note_on_c, 0, 59, 0
2, 41464, Note_on_c, 0, 80, 59
2, 41485, Note_on_c, 0, 80, 0
2, 41488, Note_on_c, 0, 75, 69
2, 41497, Note_on_c, 0, 59, 24
2, 41504, Note_on_c, 0, 75, 0
2, 41512, Note_on_c, 0, 71, 38
2, 41528, Note_on_c, 0, 59, 0
2, 41529, Note_on_c, 0, 71, 0
2, 41535, Note_on_c, 0, 70, 59
2, 41553, Note_on_c, 0, 70, 0
2, 41559, Note_on_c, 0, 59, 16
2, 41560, Note_on_c, 0, 68, 51
2, 41574, Note_on_c, 0, 68, 0
2, 41579, Note_on_c, 0, 59, 0
2, 41587, Note_on_c, 0, 67, 24
2, 41601, Note_on_c, 0, 67, 0
2, 41622, Note_on_c, 0, 59, 41
2, 41624, Note_on_c, 0, 62, 29
2, 41629, Note_on_c, 0, 62, 0
2, 41636, Note_on_c, 0, 59, 0
2, 41673, Note_on_c, 0, 59, 60
2, 41678, Note_on_c, 0, 59, 0
2, 41681, Note_on_c, 0, 53, 27
2, 41686, Note_on_c, 0, 53, 0
2, 41710, Note_on_c, 0, 65, 46
2, 41716, Note_on_c, 0, 65, 0
2, 41727, Note_on_c, 0, 65, 40
2, 41745, Note_on_c, 0, 63, 59
2, 41746, Note_on_c, 0, 65, 0
2, 41760, Note_on_c, 0, 63, 0
2, 41770, Note_on_c, 0, 62, 30
2, 41781, Note_on_c, 0, 62, 0
2, 41790, Note_on_c, 0, 59, 35
2, 41796, Note_on_c, 0, 59, 0
2, 41807, Note_on_c, 0, 62, 77
2, 41821, Note_on_c, 0, 62, 0
2, 41827, Note_on_c, 0, 59, 42
2, 41834, Note_on_c, 0, 59, 0
2, 41847, Note_on_c, 0, 60, 53
2, 41862, Note_on_c, 0, 62, 53
2, 41865, Note_on_c, 0, 60, 0
2, 41869, Note_on_c, 0, 55, 29
2, 41875, Note_on_c, 0, 62, 0
2, 41876, Note_on_c, 0, 55, 0
2, 41878, Note_on_c, 0, 63, 53
2, 41883, Note_on_c, 0, 63, 0
2, 41899, Note_on_c, 0, 67, 55
2, 41917, Note_on_c, 0, 67, 0
2, 41917, Note_on_c, 0, 71, 50
2, 41931, Note_on_c, 0, 71, 0
2, 41934, Note_on_c, 0, 74, 77
2, 41951, Note_on_c, 0, 74, 0
2, 41951, Note_on_c, 0, 71, 47
2, 41964, Note_on_c, 0, 71, 0
2, 41970, Note_on_c, 0, 72, 37
2, 41975, Note_on_c, 0, 72, 0
2, 42043, Note_on_c, 0, 67, 35
2, 42044, Note_on_c, 0, 63, 34
2, 42045, Note_on_c, 0, 62, 35
2, 42048, Note_on_c, 0, 67, 0
2, 42050, Note_on_c, 0, 62, 0
2, 42052, Note_on_c, 0, 63, 0
2, 42092, Note_on_c, 0, 82, 62
2, 42110, Note_on_c, 0, 82, 0
2, 42120, Note_on_c, 0, 85, 65
2, 42122, Note_on_c, 0, 73, 61
2, 42142, Note_on_c, 0, 85, 0
2, 42145, Note_on_c, 0, 73, 0
2, 42147, Note_on_c, 0, 74, 49
2, 42148, Note_on_c, 0, 86, 19
2, 42157, Note_on_c, 0, 86, 0
2, 42160, Note_on_c, 0, 74, 0
2, 42161, Note_on_c, 0, 67, 27
2, 42162, Note_on_c, 0, 63, 27
2, 42165, Note_on_c, 0, 67, 0
2, 42168, Note_on_c, 0, 63, 0
2, 42181, Note_on_c, 0, 85, 50
2, 42182, Note_on_c, 0, 73, 50
2, 42191, Note_on_c, 0, 86, 25
2, 42199, Note_on_c, 0, 73, 0
2, 42200, Note_on_c, 0, 74, 50
2, 42201, Note_on_c, 0, 85, 0
2, 42212, Note_on_c, 0, 86, 0
2, 42214, Note_on_c, 0, 74, 0
2, 42274, Note_on_c, 0, 62, 50
2, 42279, Note_on_c, 0, 55, 42
2, 42280, Note_on_c, 0, 57, 29
2, 42284, Note_on_c, 0, 62, 0
2, 42286, Note_on_c, 0, 55, 0
2, 42287, Note_on_c, 0, 57, 0
2, 42331, Note_on_c, 0, 85, 82
2, 42333, Note_on_c, 0, 73, 82
2, 42346, Note_on_c, 0, 73, 0
2, 42352, Note_on_c, 0, 85, 0
2, 42366, Note_on_c, 0, 85, 57
2, 42366, Note_on_c, 0, 73, 57
2, 42376, Note_on_c, 0, 86, 53
2, 42377, Note_on_c, 0, 85, 0
2, 42378, Note_on_c, 0, 73, 0
2, 42380, Note_on_c, 0, 74, 58
2, 42394, Note_on_c, 0, 74, 0
2, 42398, Note_on_c, 0, 86, 0
2, 42400, Note_on_c, 0, 62, 43
2, 42405, Note_on_c, 0, 62, 0
2, 42418, Note_on_c, 0, 86, 66
2, 42421, Note_on_c, 0, 74, 70
2, 42424, Note_on_c, 0, 84, 32
2, 42430, Note_on_c, 0, 84, 0
2, 42441, Note_on_c, 0, 74, 0
2, 42442, Note_on_c, 0, 86, 0
2, 42457, Note_on_c, 0, 60, 51
2, 42458, Note_on_c, 0, 55, 48
2, 42458, Note_on_c, 0, 57, 54
2, 42459, Note_on_c, 0, 63, 45
2, 42529, Note_on_c, 0, 63, 0
2, 42539, Note_on_c, 0, 86, 92
2, 42552, Note_on_c, 0, 86, 0
2, 42555, Note_on_c, 0, 55, 0
2, 42558, Note_on_c, 0, 87, 56
2, 42562, Note_on_c, 0, 57, 0
2, 42562, Note_on_c, 0, 60, 0
2, 42575, Note_on_c, 0, 86, 58
2, 42582, Note_on_c, 0, 87, 0
2, 42585, Note_on_c, 0, 60, 32
2, 42589, Note_on_c, 0, 86, 0
2, 42590, Note_on_c, 0, 84, 73
2, 42600, Note_on_c, 0, 84, 0
2, 42602, Note_on_c, 0, 60, 0
2, 42609, Note_on_c, 0, 82, 65
2, 42621, Note_on_c, 0, 82, 0
2, 42641, Note_on_c, 0, 81, 70
2, 42646, Note_on_c, 0, 62, 41
2, 42646, Note_on_c, 0, 60, 36
2, 42649, Note_on_c, 0, 58, 29
2, 42655, Note_on_c, 0, 60, 0
2, 42655, Note_on_c, 0, 81, 0
2, 42655, Note_on_c, 0, 62, 0
2, 42671, Note_on_c, 0, 79, 32
2, 42685, Note_on_c, 0, 79, 0
2, 42688, Note_on_c, 0, 58, 0
2, 42700, Note_on_c, 0, 78, 61
2, 42713, Note_on_c, 0, 58, 19
2, 42716, Note_on_c, 0, 78, 0
2, 42725, Note_on_c, 0, 58, 0
2, 42727, Note_on_c, 0, 81, 81
2, 42755, Note_on_c, 0, 81, 0
2, 42758, Note_on_c, 0, 78, 48
2, 42770, Note_on_c, 0, 58, 19
2, 42773, Note_on_c, 0, 78, 0
2, 42777, Note_on_c, 0, 55, 14
2, 42785, Note_on_c, 0, 79, 66
2, 42790, Note_on_c, 0, 58, 0
2, 42804, Note_on_c, 0, 55, 0
2, 42813, Note_on_c, 0, 79, 0
2, 42818, Note_on_c, 0, 74, 53
2, 42833, Note_on_c, 0, 55, 14
2, 42834, Note_on_c, 0, 74, 0
2, 42841, Note_on_c, 0, 55, 0
2, 42849, Note_on_c, 0, 72, 39
2, 42868, Note_on_c, 0, 72, 0
2, 42881, Note_on_c, 0, 70, 56
2, 42882, Note_on_c, 0, 62, 33
2, 42888, Note_on_c, 0, 62, 0
2, 42925, Note_on_c, 0, 70, 0
2, 42931, Note_on_c, 0, 69, 73
2, 42939, Note_on_c, 0, 58, 36
2, 42951, Note_on_c, 0, 58, 0
2, 42960, Note_on_c, 0, 69, 0
2, 42970, Note_on_c, 0, 72, 71
2, 43002, Note_on_c, 0, 72, 0
2, 43011, Note_on_c, 0, 70, 67
2, 43035, Note_on_c, 0, 70, 0
2, 43059, Note_on_c, 0, 69, 78
2, 43063, Note_on_c, 0, 43, 25
2, 43069, Note_on_c, 0, 43, 0
2, 43104, Note_on_c, 0, 69, 0
2, 43111, Note_on_c, 0, 70, 44
2, 43124, Note_on_c, 0, 69, 53
2, 43131, Note_on_c, 0, 70, 0
2, 43138, Note_on_c, 0, 69, 0
2, 43140, Note_on_c, 0, 67, 44
2, 43149, Note_on_c, 0, 67, 0
2, 43153, Note_on_c, 0, 55, 19
2, 43159, Note_on_c, 0, 55, 0
2, 43167, Note_on_c, 0, 65, 16
2, 43182, Note_on_c, 0, 65, 0
2, 43198, Note_on_c, 0, 64, 33
2, 43215, Note_on_c, 0, 64, 0
2, 43226, Note_on_c, 0, 62, 50
2, 43253, Note_on_c, 0, 62, 0
2, 43271, Note_on_c, 0, 61, 60
2, 43303, Note_on_c, 0, 61, 0
2, 43309, Note_on_c, 0, 60, 66
2, 43347, Note_on_c, 0, 60, 0
2, 43358, Note_on_c, 0, 58, 67
2, 43380, Note_on_c, 0, 58, 0
2, 43392, Note_on_c, 0, 57, 54
2, 43416, Note_on_c, 0, 57, 0
2, 43435, Note_on_c, 0, 45, 42
2, 43441, Note_on_c, 0, 45, 0
2, 43476, Note_on_c, 0, 69, 101
2, 43495, Note_on_c, 0, 69, 0
2, 43506, Note_on_c, 0, 72, 87
2, 43522, Note_on_c, 0, 72, 0
2, 43535, Note_on_c, 0, 70, 77
2, 43539, Note_on_c, 0, 61, 38
2, 43545, Note_on_c, 0, 55, 27
2, 43552, Note_on_c, 0, 55, 0
2, 43556, Note_on_c, 0, 61, 0
2, 43556, Note_on_c, 0, 70, 0
2, 43564, Note_on_c, 0, 66, 48
2, 43591, Note_on_c, 0, 66, 0
2, 43596, Note_on_c, 0, 64, 41
2, 43602, Note_on_c, 0, 64, 0
2, 43602, Note_on_c, 0, 55, 40
2, 43611, Note_on_c, 0, 55, 0
2, 43655, Note_on_c, 0, 74, 88
2, 43656, Note_on_c, 0, 73, 55
2, 43658, Note_on_c, 0, 64, 45
2, 43659, Note_on_c, 0, 60, 51
2, 43661, Note_on_c, 0, 73, 0
2, 43663, Note_on_c, 0, 64, 0
2, 43664, Note_on_c, 0, 60, 0
2, 43677, Note_on_c, 0, 74, 0
2, 43686, Note_on_c, 0, 77, 84
2, 43709, Note_on_c, 0, 77, 0
2, 43716, Note_on_c, 0, 75, 65
2, 43734, Note_on_c, 0, 75, 0
2, 43744, Note_on_c, 0, 71, 32
2, 43772, Note_on_c, 0, 71, 0
2, 43772, Note_on_c, 0, 69, 47
2, 43780, Note_on_c, 0, 69, 0
2, 43798, Note_on_c, 0, 74, 78
2, 43820, Note_on_c, 0, 74, 0
2, 43829, Note_on_c, 0, 72, 63
2, 43835, Note_on_c, 0, 50, 43
2, 43839, Note_on_c, 0, 49, 35
2, 43847, Note_on_c, 0, 49, 0
2, 43850, Note_on_c, 0, 72, 0
2, 43889, Note_on_c, 0, 66, 60
2, 43892, Note_on_c, 0, 38, 44
2, 43897, Note_on_c, 0, 38, 0
2, 43903, Note_on_c, 0, 66, 0
2, 43909, Note_on_c, 0, 50, 0
2, 43918, Note_on_c, 0, 69, 85
2, 43950, Note_on_c, 0, 69, 0
2, 43952, Note_on_c, 0, 68, 59
2, 43954, Note_on_c, 0, 62, 51
2, 43959, Note_on_c, 0, 62, 0
2, 43962, Note_on_c, 0, 54, 18
2, 43966, Note_on_c, 0, 68, 0
2, 43974, Note_on_c, 0, 54, 0
2, 43983, Note_on_c, 0, 66, 37
2, 44012, Note_on_c, 0, 66, 0
2, 44013, Note_on_c, 0, 65, 66
2, 44025, Note_on_c, 0, 50, 27
2, 44027, Note_on_c, 0, 65, 0
2, 44043, Note_on_c, 0, 63, 26
2, 44053, Note_on_c, 0, 50, 0
2, 44064, Note_on_c, 0, 63, 0
2, 44073, Note_on_c, 0, 62, 55
2, 44090, Note_on_c, 0, 62, 0
2, 44104, Note_on_c, 0, 60, 20
2, 44131, Note_on_c, 0, 60, 0
2, 44136, Note_on_c, 0, 57, 43
2, 44146, Note_on_c, 0, 57, 0
2, 44159, Note_on_c, 0, 58, 73
2, 44192, Note_on_c, 0, 58, 0
2, 44200, Note_on_c, 0, 54, 43
2, 44211, Note_on_c, 0, 54, 0
2, 44221, Note_on_c, 0, 57, 73
2, 44253, Note_on_c, 0, 57, 0
2, 44282, Note_on_c, 0, 55, 66
2, 44310, Note_on_c, 0, 55, 0
2, 44318, Note_on_c, 0, 50, 58
2, 44342, Note_on_c, 0, 50, 0
2, 44351, Note_on_c, 0, 50, 66
2, 44386, Note_on_c, 0, 50, 0
2, 44395, Note_on_c, 0, 50, 82
2, 44429, Note_on_c, 0, 50, 0
2, 44554, Note_on_c, 0, 60, 57
2, 44555, Note_on_c, 0, 58, 47
2, 44556, Note_on_c, 0, 53, 41
2, 44563, Note_on_c, 0, 53, 0
2, 44564, Note_on_c, 0, 60, 0
2, 44568, Note_on_c, 0, 58, 0
2, 44599, Note_on_c, 0, 53, 39
2, 44599, Note_on_c, 0, 60, 45
2, 44600, Note_on_c, 0, 58, 38
2, 44606, Note_on_c, 0, 53, 0
2, 44612, Note_on_c, 0, 60, 0
2, 44618, Note_on_c, 0, 58, 0
2, 44642, Note_on_c, 0, 62, 56
2, 44643, Note_on_c, 0, 60, 48
2, 44647, Note_on_c, 0, 54, 37
2, 44670, Note_on_c, 0, 54, 0
2, 44670, Note_on_c, 0, 62, 0
2, 44671, Note_on_c, 0, 60, 0
2, 44728, Note_on_c, 0, 62, 38
2, 44729, Note_on_c, 0, 60, 39
2, 44730, Note_on_c, 0, 54, 36
2, 44746, Note_on_c, 0, 54, 0
2, 44748, Note_on_c, 0, 60, 0
2, 44752, Note_on_c, 0, 62, 0
2, 44820, Note_on_c, 0, 62, 37
2, 44821, Note_on_c, 0, 60, 37
2, 44825, Note_on_c, 0, 54, 25
2, 44856, Note_on_c, 0, 62, 0
2, 44857, Note_on_c, 0, 60, 0
2, 44858, Note_on_c, 0, 54, 0
2, 44913, Note_on_c, 0, 60, 51
2, 44913, Note_on_c, 0, 62, 41
2, 44916, Note_on_c, 0, 54, 34
2, 44957, Note_on_c, 0, 60, 0
2, 44963, Note_on_c, 0, 62, 0
2, 44967, Note_on_c, 0, 54, 0
2, 44973, Note_on_c, 0, 87, 94
2, 44981, Note_on_c, 0, 60, 28
2, 44995, Note_on_c, 0, 87, 0
2, 45006, Note_on_c, 0, 84, 46
2, 45027, Note_on_c, 0, 60, 0
2, 45028, Note_on_c, 0, 84, 0
2, 45035, Note_on_c, 0, 86, 80
2, 45039, Note_on_c, 0, 60, 16
2, 45039, Note_on_c, 0, 62, 52
2, 45044, Note_on_c, 0, 54, 30
2, 45057, Note_on_c, 0, 86, 0
2, 45063, Note_on_c, 0, 60, 0
2, 45071, Note_on_c, 0, 62, 0
2, 45077, Note_on_c, 0, 84, 53
2, 45096, Note_on_c, 0, 84, 0
2, 45102, Note_on_c, 0, 54, 0
2, 45154, Note_on_c, 0, 59, 44
2, 45155, Note_on_c, 0, 53, 41
2, 45155, Note_on_c, 0, 62, 32
2, 45164, Note_on_c, 0, 62, 0
2, 45167, Note_on_c, 0, 53, 0
2, 45168, Note_on_c, 0, 59, 0
2, 45215, Note_on_c, 0, 87, 83
2, 45221, Note_on_c, 0, 88, 43
2, 45225, Note_on_c, 0, 59, 37
2, 45226, Note_on_c, 0, 88, 0
2, 45238, Note_on_c, 0, 59, 0
2, 45238, Note_on_c, 0, 87, 0
2, 45246, Note_on_c, 0, 85, 50
2, 45272, Note_on_c, 0, 85, 0
2, 45278, Note_on_c, 0, 86, 70
2, 45281, Note_on_c, 0, 59, 36
2, 45282, Note_on_c, 0, 62, 47
2, 45289, Note_on_c, 0, 62, 0
2, 45296, Note_on_c, 0, 86, 0
2, 45307, Note_on_c, 0, 59, 0
2, 45312, Note_on_c, 0, 83, 38
2, 45331, Note_on_c, 0, 83, 0
2, 45338, Note_on_c, 0, 80, 56
2, 45343, Note_on_c, 0, 59, 28
2, 45368, Note_on_c, 0, 79, 41
2, 45377, Note_on_c, 0, 80, 0
2, 45381, Note_on_c, 0, 59, 0
2, 45393, Note_on_c, 0, 79, 0
2, 45399, Note_on_c, 0, 82, 73
2, 45403, Note_on_c, 0, 59, 36
2, 45407, Note_on_c, 0, 62, 22
2, 45411, Note_on_c, 0, 62, 0
2, 45418, Note_on_c, 0, 82, 0
2, 45426, Note_on_c, 0, 59, 0
2, 45431, Note_on_c, 0, 80, 42
2, 45451, Note_on_c, 0, 80, 0
2, 45461, Note_on_c, 0, 75, 34
2, 45467, Note_on_c, 0, 59, 17
2, 45476, Note_on_c, 0, 75, 0
2, 45479, Note_on_c, 0, 59, 0
2, 45487, Note_on_c, 0, 79, 68
2, 45518, Note_on_c, 0, 77, 62
2, 45521, Note_on_c, 0, 59, 38
2, 45521, Note_on_c, 0, 63, 39
2, 45525, Note_on_c, 0, 53, 29
2, 45532, Note_on_c, 0, 59, 0
2, 45532, Note_on_c, 0, 79, 0
2, 45535, Note_on_c, 0, 63, 0
2, 45536, Note_on_c, 0, 77, 0
2, 45538, Note_on_c, 0, 53, 0
2, 45556, Note_on_c, 0, 71, 19
2, 45577, Note_on_c, 0, 71, 0
2, 45583, Note_on_c, 0, 74, 69
2, 45600, Note_on_c, 0, 74, 0
2, 45697, Note_on_c, 0, 62, 43
2, 45698, Note_on_c, 0, 57, 47
2, 45698, Note_on_c, 0, 51, 33
2, 45702, Note_on_c, 0, 62, 0
2, 45704, Note_on_c, 0, 51, 0
2, 45707, Note_on_c, 0, 57, 0
2, 45725, Note_on_c, 0, 71, 58
2, 45737, Note_on_c, 0, 71, 0
2, 45741, Note_on_c, 0, 74, 69
2, 45766, Note_on_c, 0, 72, 55
2, 45767, Note_on_c, 0, 74, 0
2, 45769, Note_on_c, 0, 57, 17
2, 45782, Note_on_c, 0, 57, 0
2, 45783, Note_on_c, 0, 72, 0
2, 45881, Note_on_c, 0, 57, 31
2, 45887, Note_on_c, 0, 57, 0
2, 45915, Note_on_c, 0, 66, 70
2, 45929, Note_on_c, 0, 66, 0
2, 45935, Note_on_c, 0, 69, 80
2, 45941, Note_on_c, 0, 57, 24
2, 45955, Note_on_c, 0, 69, 0
2, 45957, Note_on_c, 0, 67, 56
2, 45959, Note_on_c, 0, 57, 0
2, 45966, Note_on_c, 0, 67, 0
2, 45991, Note_on_c, 0, 57, 40
2, 45995, Note_on_c, 0, 62, 53
2, 45999, Note_on_c, 0, 57, 0
2, 46005, Note_on_c, 0, 62, 0
2, 46013, Note_on_c, 0, 65, 75
2, 46029, Note_on_c, 0, 65, 0
2, 46034, Note_on_c, 0, 63, 48
2, 46056, Note_on_c, 0, 63, 0
2, 46072, Note_on_c, 0, 59, 38
2, 46077, Note_on_c, 0, 59, 0
2, 46088, Note_on_c, 0, 62, 73
2, 46104, Note_on_c, 0, 62, 0
2, 46113, Note_on_c, 0, 60, 44
2, 46132, Note_on_c, 0, 60, 0
2, 46143, Note_on_c, 0, 55, 55
2, 46159, Note_on_c, 0, 55, 0
2, 46173, Note_on_c, 0, 55, 55
2, 46192, Note_on_c, 0, 55, 0
2, 46204, Note_on_c, 0, 55, 68
2, 46227, Note_on_c, 0, 55, 0
2, 46303, Note_on_c, 0, 63, 29
2, 46306, Note_on_c, 0, 57, 30
2, 46309, Note_on_c, 0, 55, 15
2, 46309, Note_on_c, 0, 60, 13
2, 46341, Note_on_c, 0, 60, 0
2, 46353, Note_on_c, 0, 71, 54
2, 46360, Note_on_c, 0, 60, 19
2, 46362, Note_on_c, 0, 71, 0
2, 46364, Note_on_c, 0, 63, 0
2, 46371, Note_on_c, 0, 74, 79
2, 46381, Note_on_c, 0, 57, 0
2, 46391, Note_on_c, 0, 60, 0
2, 46392, Note_on_c, 0, 55, 0
2, 46393, Note_on_c, 0, 72, 74
2, 46398, Note_on_c, 0, 74, 0
2, 46409, Note_on_c, 0, 72, 0
2, 46479, Note_on_c, 0, 60, 41
2, 46479, Note_on_c, 0, 62, 39
2, 46485, Note_on_c, 0, 60, 0
2, 46485, Note_on_c, 0, 58, 25
2, 46486, Note_on_c, 0, 62, 0
2, 46496, Note_on_c, 0, 58, 0
2, 46521, Note_on_c, 0, 68, 71
2, 46534, Note_on_c, 0, 68, 0
2, 46542, Note_on_c, 0, 69, 74
2, 46558, Note_on_c, 0, 69, 0
2, 46566, Note_on_c, 0, 66, 69
2, 46578, Note_on_c, 0, 66, 0
2, 46594, Note_on_c, 0, 67, 77
2, 46604, Note_on_c, 0, 62, 29
2, 46608, Note_on_c, 0, 62, 0
2, 46609, Note_on_c, 0, 67, 0
2, 46627, Note_on_c, 0, 62, 43
2, 46644, Note_on_c, 0, 62, 0
2, 46660, Note_on_c, 0, 60, 71
2, 46673, Note_on_c, 0, 60, 0
2, 46690, Note_on_c, 0, 58, 35
2, 46704, Note_on_c, 0, 58, 0
2, 46723, Note_on_c, 0, 57, 55
2, 46729, Note_on_c, 0, 57, 0
2, 46746, Note_on_c, 0, 60, 80
2, 46771, Note_on_c, 0, 60, 0
2, 46782, Note_on_c, 0, 57, 31
2, 46794, Note_on_c, 0, 57, 0
2, 46806, Note_on_c, 0, 58, 62
2, 46842, Note_on_c, 0, 58, 0
2, 46843, Note_on_c, 0, 55, 30
2, 46858, Note_on_c, 0, 55, 0
2, 46865, Note_on_c, 0, 56, 46
2, 46874, Control_c, 0, 64, 127
2, 46898, Note_on_c, 0, 58, 64
2, 46903, Note_on_c, 0, 56, 0
2, 46904, Note_on_c, 0, 43, 33
2, 46905, Note_on_c, 0, 53, 24
2, 46912, Note_on_c, 0, 43, 0
2, 46913, Note_on_c, 0, 53, 0
2, 46917, Note_on_c, 0, 58, 0
2, 46927, Note_on_c, 0, 60, 57
2, 46950, Note_on_c, 0, 60, 0
2, 46954, Note_on_c, 0, 63, 59
2, 46955, Control_c, 0, 64, 0
2, 46965, Note_on_c, 0, 63, 0
2, 46975, Note_on_c, 0, 65, 48
2, 46989, Note_on_c, 0, 65, 0
2, 46994, Note_on_c, 0, 68, 69
2, 47009, Note_on_c, 0, 68, 0
2, 47014, Note_on_c, 0, 70, 67
2, 47021, Note_on_c, 0, 65, 24
2, 47021, Note_on_c, 0, 58, 33
2, 47021, Note_on_c, 0, 60, 39
2, 47023, Note_on_c, 0, 70, 0
2, 47024, Note_on_c, 0, 54, 26
2, 47035, Note_on_c, 0, 72, 53
2, 47045, Note_on_c, 0, 72, 0
2, 47053, Note_on_c, 0, 75, 49
2, 47061, Note_on_c, 0, 75, 0
2, 47071, Note_on_c, 0, 77, 54
2, 47084, Note_on_c, 0, 77, 0
2, 47089, Note_on_c, 0, 80, 56
2, 47105, Note_on_c, 0, 80, 0
2, 47109, Note_on_c, 0, 82, 56
2, 47116, Note_on_c, 0, 82, 0
2, 47124, Note_on_c, 0, 84, 63
2, 47137, Note_on_c, 0, 84, 0
2, 47144, Note_on_c, 0, 87, 63
2, 47155, Note_on_c, 0, 87, 0
2, 47166, Note_on_c, 0, 89, 56
2, 47172, Note_on_c, 0, 89, 0
2, 47196, Note_on_c, 0, 65, 0
2, 47199, Note_on_c, 0, 60, 0
2, 47205, Note_on_c, 0, 54, 0
2, 47208, Note_on_c, 0, 58, 0
2, 47324, Note_on_c, 0, 65, 55
2, 47324, Note_on_c, 0, 60, 53
2, 47326, Note_on_c, 0, 54, 30
2, 47388, Note_on_c, 0, 65, 0
2, 47393, Note_on_c, 0, 99, 84
2, 47405, Note_on_c, 0, 54, 0
2, 47420, Note_on_c, 0, 60, 0
2, 47426, Note_on_c, 0, 99, 0
2, 47427, Note_on_c, 0, 98, 64
2, 47434, Note_on_c, 0, 60, 13
2, 47439, Note_on_c, 0, 97, 57
2, 47440, Note_on_c, 0, 54, 34
2, 47444, Note_on_c, 0, 98, 0
2, 47448, Note_on_c, 0, 58, 15
2, 47454, Note_on_c, 0, 60, 0
2, 47455, Note_on_c, 0, 96, 61
2, 47465, Note_on_c, 0, 97, 0
2, 47474, Note_on_c, 0, 96, 0
2, 47478, Note_on_c, 0, 58, 0
2, 47479, Note_on_c, 0, 54, 0
2, 47487, Note_on_c, 0, 94, 77
2, 47493, Note_on_c, 0, 62, 43
2, 47494, Note_on_c, 0, 58, 27
2, 47495, Note_on_c, 0, 57, 35
2, 47509, Note_on_c, 0, 94, 0
2, 47512, Note_on_c, 0, 55, 7
2, 47521, Note_on_c, 0, 93, 43
2, 47546, Note_on_c, 0, 93, 0
2, 47552, Note_on_c, 0, 96, 71
2, 47560, Note_on_c, 0, 62, 0
2, 47569, Note_on_c, 0, 96, 0
2, 47569, Note_on_c, 0, 58, 0
2, 47578, Note_on_c, 0, 94, 53
2, 47579, Note_on_c, 0, 57, 0
2, 47587, Note_on_c, 0, 55, 0
2, 47609, Note_on_c, 0, 94, 0
2, 47616, Note_on_c, 0, 90, 32
2, 47629, Note_on_c, 0, 90, 0
2, 47640, Note_on_c, 0, 58, 36
2, 47640, Note_on_c, 0, 62, 44
2, 47641, Note_on_c, 0, 93, 71
2, 47641, Note_on_c, 0, 57, 34
2, 47643, Note_on_c, 0, 55, 36
2, 47676, Note_on_c, 0, 93, 0
2, 47677, Note_on_c, 0, 86, 49
2, 47684, Note_on_c, 0, 62, 0
2, 47694, Note_on_c, 0, 57, 0
2, 47697, Note_on_c, 0, 58, 0
2, 47701, Note_on_c, 0, 86, 0
2, 47703, Note_on_c, 0, 55, 0
2, 47731, Note_on_c, 0, 86, 57
2, 47734, Note_on_c, 0, 62, 44
2, 47734, Note_on_c, 0, 58, 38
2, 47735, Note_on_c, 0, 57, 44
2, 47735, Note_on_c, 0, 55, 39
2, 47774, Note_on_c, 0, 57, 0
2, 47775, Note_on_c, 0, 62, 0
2, 47778, Note_on_c, 0, 55, 0
2, 47779, Note_on_c, 0, 58, 0
2, 47793, Note_on_c, 0, 58, 54
2, 47793, Note_on_c, 0, 62, 32
2, 47794, Note_on_c, 0, 55, 53
2, 47797, Control_c, 0, 64, 127
2, 47800, Note_on_c, 0, 86, 0
2, 47839, Note_on_c, 0, 62, 0
2, 47857, Note_on_c, 0, 58, 0
2, 47877, Note_on_c, 0, 55, 0
2, 47910, Control_c, 0, 64, 0
2, 47910, Note_on_c, 0, 58, 58
2, 47911, Note_on_c, 0, 55, 41
2, 47912, Note_on_c, 0, 62, 58
2, 47914, Note_on_c, 0, 79, 81
2, 47914, Note_on_c, 0, 67, 77
2, 47935, Control_c, 0, 64, 127
2, 47948, Note_on_c, 0, 62, 0
2, 47949, Note_on_c, 0, 55, 0
2, 47956, Note_on_c, 0, 58, 0
2, 47958, Note_on_c, 0, 79, 0
2, 47963, Note_on_c, 0, 67, 0
2, 47998, Control_c, 0, 64, 0
2, 48002, Note_on_c, 0, 56, 38
2, 48002, Note_on_c, 0, 59, 54
2, 48003, Note_on_c, 0, 53, 48
2, 48003, Note_on_c, 0, 80, 74
2, 48003, Note_on_c, 0, 68, 81
2, 48011, Note_on_c, 0, 68, 0
2, 48014, Note_on_c, 0, 59, 0
2, 48014, Note_on_c, 0, 80, 0
2, 48019, Note_on_c, 0, 53, 0
2, 48021, Note_on_c, 0, 56, 0
2, 48061, Note_on_c, 0, 59, 44
2, 48061, Note_on_c, 0, 56, 32
2, 48062, Note_on_c, 0, 53, 37
2, 48064, Note_on_c, 0, 79, 54
2, 48065, Note_on_c, 0, 67, 59
2, 48069, Note_on_c, 0, 53, 0
2, 48073, Note_on_c, 0, 67, 0
2, 48073, Note_on_c, 0, 59, 0
2, 48075, Note_on_c, 0, 79, 0
2, 48081, Note_on_c, 0, 56, 0
2, 48123, Note_on_c, 0, 78, 54
2, 48124, Note_on_c, 0, 66, 56
2, 48124, Note_on_c, 0, 56, 25
2, 48127, Note_on_c, 0, 53, 39
2, 48128, Note_on_c, 0, 59, 18
2, 48134, Note_on_c, 0, 53, 0
2, 48138, Note_on_c, 0, 59, 0
2, 48139, Note_on_c, 0, 66, 0
2, 48142, Note_on_c, 0, 56, 0
2, 48144, Note_on_c, 0, 78, 0
2, 48164, Note_on_c, 0, 67, 38
2, 48164, Note_on_c, 0, 56, 25
2, 48169, Note_on_c, 0, 67, 0
2, 48179, Note_on_c, 0, 56, 0
2, 48218, Note_on_c, 0, 59, 55
2, 48220, Note_on_c, 0, 53, 36
2, 48221, Note_on_c, 0, 84, 46
2, 48222, Note_on_c, 0, 72, 26
2, 48223, Note_on_c, 0, 56, 31
2, 48226, Note_on_c, 0, 59, 0
2, 48227, Note_on_c, 0, 72, 0
2, 48227, Note_on_c, 0, 53, 0
2, 48227, Note_on_c, 0, 84, 0
2, 48231, Note_on_c, 0, 56, 0
2, 48282, Note_on_c, 0, 84, 87
2, 48282, Note_on_c, 0, 72, 80
2, 48284, Note_on_c, 0, 59, 68
2, 48284, Note_on_c, 0, 56, 52
2, 48285, Note_on_c, 0, 53, 49
2, 48304, Control_c, 0, 64, 127
2, 48335, Note_on_c, 0, 84, 0
2, 48337, Note_on_c, 0, 53, 0
2, 48338, Note_on_c, 0, 72, 0
2, 48340, Note_on_c, 0, 59, 0
2, 48341, Note_on_c, 0, 56, 0
2, 48347, Note_on_c, 0, 61, 64
2, 48348, Note_on_c, 0, 59, 47
2, 48348, Note_on_c, 0, 83, 60
2, 48349, Note_on_c, 0, 56, 25
2, 48350, Note_on_c, 0, 53, 59
2, 48351, Note_on_c, 0, 71, 65
2, 48352, Control_c, 0, 64, 0
2, 48355, Note_on_c, 0, 82, 29
2, 48360, Note_on_c, 0, 82, 0
2, 48364, Note_on_c, 0, 83, 0
2, 48365, Note_on_c, 0, 71, 0
2, 48366, Note_on_c, 0, 61, 0
2, 48369, Note_on_c, 0, 53, 0
2, 48374, Note_on_c, 0, 59, 0
2, 48376, Note_on_c, 0, 56, 0
2, 48384, Note_on_c, 0, 82, 65
2, 48386, Note_on_c, 0, 70, 46
2, 48386, Note_on_c, 0, 53, 43
2, 48387, Note_on_c, 0, 59, 36
2, 48388, Note_on_c, 0, 56, 30
2, 48389, Note_on_c, 0, 61, 26
2, 48395, Note_on_c, 0, 61, 0
2, 48402, Note_on_c, 0, 70, 0
2, 48402, Note_on_c, 0, 53, 0
2, 48404, Note_on_c, 0, 59, 0
2, 48405, Note_on_c, 0, 82, 0
2, 48410, Note_on_c, 0, 56, 0
2, 48415, Note_on_c, 0, 61, 46
2, 48416, Note_on_c, 0, 71, 46
2, 48417, Note_on_c, 0, 83, 60
2, 48417, Note_on_c, 0, 56, 18
2, 48421, Note_on_c, 0, 71, 0
2, 48422, Note_on_c, 0, 53, 20
2, 48423, Note_on_c, 0, 83, 0
2, 48424, Control_c, 0, 64, 127
2, 48426, Note_on_c, 0, 61, 0
2, 48427, Note_on_c, 0, 53, 0
2, 48430, Note_on_c, 0, 56, 0
2, 48442, Note_on_c, 0, 80, 29
2, 48446, Note_on_c, 0, 85, 29
2, 48450, Note_on_c, 0, 80, 0
2, 48451, Note_on_c, 0, 85, 0
2, 48457, Control_c, 0, 64, 0
2, 48459, Note_on_c, 0, 80, 60
2, 48463, Note_on_c, 0, 62, 53
2, 48463, Note_on_c, 0, 51, 51
2, 48463, Note_on_c, 0, 57, 57
2, 48464, Note_on_c, 0, 86, 56
2, 48464, Note_on_c, 0, 88, 66
2, 48465, Note_on_c, 0, 74, 45
2, 48465, Note_on_c, 0, 55, 53
2, 48466, Note_on_c, 0, 76, 40
2, 48466, Note_on_c, 0, 79, 57
2, 48469, Note_on_c, 0, 88, 0
2, 48471, Note_on_c, 0, 76, 0
2, 48472, Note_on_c, 0, 80, 0
2, 48533, Control_c, 0, 64, 127
2, 48571, Note_on_c, 0, 62, 0
2, 48573, Note_on_c, 0, 57, 0
2, 48575, Note_on_c, 0, 86, 0
2, 48577, Note_on_c, 0, 55, 0
2, 48577, Note_on_c, 0, 74, 0
2, 48580, Note_on_c, 0, 79, 0
2, 48581, Note_on_c, 0, 51, 0
2, 48586, Control_c, 0, 64, 0
2, 48599, Note_on_c, 0, 84, 56
2, 48600, Note_on_c, 0, 62, 46
2, 48602, Note_on_c, 0, 72, 35
2, 48603, Note_on_c, 0, 51, 25
2, 48603, Note_on_c, 0, 55, 45
2, 48603, Note_on_c, 0, 79, 36
2, 48604, Note_on_c, 0, 57, 38
2, 48666, Note_on_c, 0, 55, 0
2, 48666, Note_on_c, 0, 62, 0
2, 48670, Note_on_c, 0, 51, 0
2, 48670, Note_on_c, 0, 57, 0
2, 48672, Note_on_c, 0, 72, 0
2, 48675, Note_on_c, 0, 84, 0
2, 48676, Note_on_c, 0, 79, 0
2, 48690, Note_on_c, 0, 84, 57
2, 48691, Note_on_c, 0, 72, 59
2, 48692, Note_on_c, 0, 79, 51
2, 48692, Note_on_c, 0, 63, 71
2, 48693, Note_on_c, 0, 53, 51
2, 48693, Note_on_c, 0, 58, 61
2, 48767, Control_c, 0, 64, 127
2, 48775, Note_on_c, 0, 53, 0
2, 48791, Note_on_c, 0, 58, 0
2, 48793, Note_on_c, 0, 63, 0
2, 48810, Control_c, 0, 64, 0
2, 48813, Note_on_c, 0, 65, 52
2, 48815, Note_on_c, 0, 60, 50
2, 48816, Note_on_c, 0, 55, 41
2, 48846, Control_c, 0, 64, 127
2, 48871, Control_c, 0, 64, 0
2, 48889, Control_c, 0, 64, 127
2, 48901, Note_on_c, 0, 65, 0
2, 48904, Note_on_c, 0, 60, 0
2, 48904, Note_on_c, 0, 55, 0
2, 48918, Note_on_c, 0, 72, 0
2, 48920, Note_on_c, 0, 79, 0
2, 48924, Note_on_c, 0, 84, 0
2, 48931, Note_on_c, 0, 81, 58
2, 48941, Note_on_c, 0, 81, 0
2, 48948, Control_c, 0, 64, 0
2, 48957, Note_on_c, 0, 61, 63
2, 48957, Note_on_c, 0, 82, 77
2, 48957, Note_on_c, 0, 66, 64
2, 48958, Note_on_c, 0, 70, 72
2, 48959, Note_on_c, 0, 55, 57
2, 48963, Note_on_c, 0, 66, 0
2, 48964, Note_on_c, 0, 55, 0
2, 48966, Note_on_c, 0, 70, 0
2, 48968, Note_on_c, 0, 61, 0
2, 48970, Note_on_c, 0, 82, 0
2, 49020, Note_on_c, 0, 81, 66
2, 49020, Note_on_c, 0, 66, 51
2, 49020, Note_on_c, 0, 61, 46
2, 49021, Note_on_c, 0, 69, 65
2, 49021, Note_on_c, 0, 55, 41
2, 49027, Note_on_c, 0, 55, 0
2, 49028, Note_on_c, 0, 66, 0
2, 49029, Note_on_c, 0, 81, 0
2, 49029, Note_on_c, 0, 69, 0
2, 49034, Note_on_c, 0, 61, 0
2, 49079, Note_on_c, 0, 80, 55
2, 49082, Note_on_c, 0, 68, 46
2, 49082, Note_on_c, 0, 66, 36
2, 49083, Note_on_c, 0, 61, 33
2, 49084, Note_on_c, 0, 55, 38
2, 49092, Note_on_c, 0, 55, 0
2, 49094, Note_on_c, 0, 66, 0
2, 49094, Note_on_c, 0, 68, 0
2, 49099, Note_on_c, 0, 80, 0
2, 49101, Note_on_c, 0, 61, 0
2, 49114, Note_on_c, 0, 66, 46
2, 49114, Note_on_c, 0, 61, 35
2, 49116, Note_on_c, 0, 69, 61
2, 49116, Note_on_c, 0, 81, 53
2, 49120, Note_on_c, 0, 69, 0
2, 49120, Note_on_c, 0, 55, 32
2, 49124, Note_on_c, 0, 66, 0
2, 49125, Note_on_c, 0, 81, 0
2, 49125, Note_on_c, 0, 55, 0
2, 49135, Note_on_c, 0, 61, 0
2, 49169, Note_on_c, 0, 73, 80
2, 49170, Note_on_c, 0, 61, 69
2, 49171, Note_on_c, 0, 55, 70
2, 49171, Note_on_c, 0, 66, 64
2, 49172, Note_on_c, 0, 85, 33
2, 49173, Note_on_c, 0, 86, 68
2, 49187, Note_on_c, 0, 85, 0
2, 49190, Note_on_c, 0, 73, 0
2, 49192, Note_on_c, 0, 74, 36
2, 49195, Note_on_c, 0, 66, 0
2, 49200, Note_on_c, 0, 55, 0
2, 49201, Note_on_c, 0, 61, 0
2, 49205, Note_on_c, 0, 74, 0
2, 49205, Note_on_c, 0, 86, 0
2, 49232, Note_on_c, 0, 85, 80
2, 49232, Note_on_c, 0, 73, 77
2, 49233, Note_on_c, 0, 61, 67
2, 49234, Note_on_c, 0, 55, 70
2, 49234, Note_on_c, 0, 66, 67
2, 49254, Control_c, 0, 64, 127
2, 49294, Note_on_c, 0, 55, 0
2, 49296, Note_on_c, 0, 66, 0
2, 49301, Note_on_c, 0, 61, 0
2, 49303, Note_on_c, 0, 73, 0
2, 49303, Note_on_c, 0, 85, 0
2, 49306, Control_c, 0, 64, 0
2, 49313, Note_on_c, 0, 61, 42
2, 49314, Note_on_c, 0, 84, 61
2, 49314, Note_on_c, 0, 66, 53
2, 49314, Note_on_c, 0, 72, 60
2, 49315, Note_on_c, 0, 55, 52
2, 49324, Note_on_c, 0, 55, 0
2, 49324, Note_on_c, 0, 66, 0
2, 49326, Note_on_c, 0, 84, 0
2, 49328, Note_on_c, 0, 72, 0
2, 49331, Note_on_c, 0, 61, 0
2, 49374, Note_on_c, 0, 61, 57
2, 49375, Note_on_c, 0, 85, 71
2, 49376, Note_on_c, 0, 55, 56
2, 49376, Note_on_c, 0, 73, 61
2, 49377, Note_on_c, 0, 66, 40
2, 49383, Note_on_c, 0, 66, 0
2, 49384, Note_on_c, 0, 73, 0
2, 49386, Note_on_c, 0, 85, 0
2, 49389, Note_on_c, 0, 55, 0
2, 49401, Note_on_c, 0, 61, 0
2, 49442, Note_on_c, 0, 60, 53
2, 49443, Note_on_c, 0, 87, 76
2, 49443, Note_on_c, 0, 63, 53
2, 49444, Note_on_c, 0, 75, 77
2, 49445, Note_on_c, 0, 55, 49
2, 49447, Note_on_c, 0, 57, 41
2, 49448, Note_on_c, 0, 81, 45
2, 49454, Note_on_c, 0, 81, 0
2, 49466, Note_on_c, 0, 63, 0
2, 49469, Note_on_c, 0, 55, 0
2, 49469, Note_on_c, 0, 75, 0
2, 49470, Note_on_c, 0, 87, 0
2, 49470, Note_on_c, 0, 57, 0
2, 49477, Note_on_c, 0, 88, 67
2, 49478, Note_on_c, 0, 76, 51
2, 49478, Note_on_c, 0, 63, 45
2, 49480, Note_on_c, 0, 81, 48
2, 49480, Note_on_c, 0, 55, 44
2, 49481, Note_on_c, 0, 84, 42
2, 49483, Note_on_c, 0, 86, 34
2, 49484, Note_on_c, 0, 57, 46
2, 49488, Note_on_c, 0, 84, 0
2, 49489, Note_on_c, 0, 86, 0
2, 49491, Note_on_c, 0, 76, 0
2, 49492, Note_on_c, 0, 81, 0
2, 49492, Note_on_c, 0, 57, 0
2, 49493, Note_on_c, 0, 88, 0
2, 49494, Note_on_c, 0, 63, 0
2, 49499, Note_on_c, 0, 55, 0
2, 49506, Note_on_c, 0, 76, 46
2, 49507, Note_on_c, 0, 88, 50
2, 49509, Note_on_c, 0, 81, 39
2, 49510, Note_on_c, 0, 55, 30
2, 49510, Note_on_c, 0, 63, 30
2, 49511, Note_on_c, 0, 84, 34
2, 49513, Note_on_c, 0, 57, 34
2, 49518, Note_on_c, 0, 84, 0
2, 49519, Note_on_c, 0, 81, 0
2, 49520, Note_on_c, 0, 76, 0
2, 49521, Note_on_c, 0, 63, 0
2, 49521, Note_on_c, 0, 88, 0
2, 49522, Note_on_c, 0, 57, 0
2, 49525, Note_on_c, 0, 55, 0
2, 49529, Note_on_c, 0, 60, 0
2, 49538, Note_on_c, 0, 88, 60
2, 49538, Note_on_c, 0, 76, 43
2, 49539, Note_on_c, 0, 63, 39
2, 49539, Note_on_c, 0, 60, 25
2, 49540, Note_on_c, 0, 55, 46
2, 49541, Note_on_c, 0, 81, 53
2, 49542, Note_on_c, 0, 57, 36
2, 49543, Note_on_c, 0, 84, 40
2, 49548, Note_on_c, 0, 84, 0
2, 49550, Note_on_c, 0, 57, 0
2, 49551, Note_on_c, 0, 63, 0
2, 49552, Note_on_c, 0, 55, 0
2, 49552, Note_on_c, 0, 81, 0
2, 49553, Note_on_c, 0, 88, 0
2, 49554, Note_on_c, 0, 76, 0
2, 49559, Note_on_c, 0, 60, 0
2, 49568, Note_on_c, 0, 63, 33
2, 49568, Note_on_c, 0, 88, 55
2, 49569, Note_on_c, 0, 76, 38
2, 49569, Note_on_c, 0, 60, 25
2, 49571, Note_on_c, 0, 55, 35
2, 49572, Note_on_c, 0, 81, 41
2, 49574, Note_on_c, 0, 88, 0
2, 49576, Note_on_c, 0, 84, 24
2, 49580, Note_on_c, 0, 63, 0
2, 49581, Note_on_c, 0, 76, 0
2, 49582, Note_on_c, 0, 55, 0
2, 49583, Note_on_c, 0, 84, 0
2, 49584, Note_on_c, 0, 81, 0
2, 49590, Note_on_c, 0, 60, 0
2, 49602, Note_on_c, 0, 87, 60
2, 49604, Note_on_c, 0, 75, 55
2, 49604, Note_on_c, 0, 63, 46
2, 49605, Note_on_c, 0, 55, 38
2, 49607, Note_on_c, 0, 60, 35
2, 49609, Note_on_c, 0, 81, 30
2, 49613, Note_on_c, 0, 75, 0
2, 49615, Note_on_c, 0, 60, 0
2, 49615, Note_on_c, 0, 81, 0
2, 49617, Note_on_c, 0, 87, 0
2, 49619, Note_on_c, 0, 55, 0
2, 49621, Note_on_c, 0, 63, 0
2, 49655, Note_on_c, 0, 74, 49
2, 49655, Note_on_c, 0, 86, 54
2, 49655, Note_on_c, 0, 64, 50
2, 49656, Note_on_c, 0, 60, 47
2, 49657, Note_on_c, 0, 81, 48
2, 49659, Note_on_c, 0, 54, 36
2, 49669, Control_c, 0, 64, 127
2, 49725, Note_on_c, 0, 81, 0
2, 49725, Note_on_c, 0, 74, 0
2, 49732, Note_on_c, 0, 86, 0
2, 49761, Note_on_c, 0, 64, 0
2, 49763, Note_on_c, 0, 60, 0
2, 49771, Note_on_c, 0, 79, 105
2, 49777, Note_on_c, 0, 64, 36
2, 49778, Note_on_c, 0, 60, 34
2, 49792, Note_on_c, 0, 79, 0
2, 49792, Control_c, 0, 64, 0
2, 49804, Note_on_c, 0, 79, 52
2, 49825, Note_on_c, 0, 79, 0
2, 49859, Note_on_c, 0, 60, 0
2, 49860, Note_on_c, 0, 79, 95
2, 49865, Note_on_c, 0, 64, 0
2, 49891, Note_on_c, 0, 54, 0
2, 49893, Note_on_c, 0, 79, 0
2, 49894, Note_on_c, 0, 78, 44
2, 49909, Note_on_c, 0, 78, 0
2, 49919, Note_on_c, 0, 62, 34
2, 49921, Note_on_c, 0, 58, 27
2, 49921, Note_on_c, 0, 79, 44
2, 49921, Note_on_c, 0, 57, 34
2, 49925, Note_on_c, 0, 55, 24
2, 49945, Note_on_c, 0, 79, 0
2, 49957, Note_on_c, 0, 57, 0
2, 49960, Note_on_c, 0, 55, 0
2, 49961, Note_on_c, 0, 62, 0
2, 49963, Note_on_c, 0, 58, 0
2, 50014, Note_on_c, 0, 75, 79
2, 50014, Note_on_c, 0, 87, 80
2, 50015, Note_on_c, 0, 62, 50
2, 50016, Note_on_c, 0, 58, 37
2, 50020, Note_on_c, 0, 62, 0
2, 50020, Note_on_c, 0, 55, 25
2, 50025, Note_on_c, 0, 58, 0
2, 50029, Note_on_c, 0, 55, 0
2, 50066, Note_on_c, 0, 87, 0
2, 50071, Note_on_c, 0, 75, 0
2, 50101, Note_on_c, 0, 85, 62
2, 50102, Note_on_c, 0, 62, 56
2, 50102, Note_on_c, 0, 73, 67
2, 50103, Note_on_c, 0, 58, 42
2, 50106, Note_on_c, 0, 57, 42
2, 50107, Note_on_c, 0, 55, 36
2, 50111, Note_on_c, 0, 57, 0
2, 50112, Note_on_c, 0, 62, 0
2, 50114, Note_on_c, 0, 55, 0
2, 50115, Note_on_c, 0, 58, 0
2, 50125, Note_on_c, 0, 85, 0
2, 50136, Note_on_c, 0, 73, 0
2, 50139, Note_on_c, 0, 74, 37
2, 50152, Note_on_c, 0, 74, 0
2, 50152, Note_on_c, 0, 86, 34
2, 50169, Note_on_c, 0, 86, 0
2, 50171, Note_on_c, 0, 74, 31
2, 50189, Note_on_c, 0, 74, 0
2, 50253, Note_on_c, 0, 58, 46
2, 50254, Note_on_c, 0, 62, 48
2, 50255, Note_on_c, 0, 57, 47
2, 50259, Note_on_c, 0, 62, 0
2, 50260, Note_on_c, 0, 57, 0
2, 50265, Note_on_c, 0, 58, 0
2, 50310, Note_on_c, 0, 62, 62
2, 50310, Note_on_c, 0, 58, 47
2, 50312, Note_on_c, 0, 57, 45
2, 50315, Note_on_c, 0, 62, 0
2, 50315, Note_on_c, 0, 55, 36
2, 50318, Note_on_c, 0, 57, 0
2, 50321, Note_on_c, 0, 58, 0
2, 50322, Note_on_c, 0, 55, 0
2, 50338, Note_on_c, 0, 82, 77
2, 50364, Note_on_c, 0, 82, 0
2, 50371, Note_on_c, 0, 79, 68
2, 50389, Note_on_c, 0, 79, 0
2, 50400, Note_on_c, 0, 62, 45
2, 50400, Note_on_c, 0, 54, 43
2, 50400, Note_on_c, 0, 78, 64
2, 50400, Note_on_c, 0, 60, 35
2, 50413, Note_on_c, 0, 62, 0
2, 50415, Note_on_c, 0, 60, 0
2, 50420, Note_on_c, 0, 54, 0
2, 50424, Note_on_c, 0, 78, 0
2, 50462, Note_on_c, 0, 87, 81
2, 50463, Note_on_c, 0, 75, 76
2, 50490, Note_on_c, 0, 75, 0
2, 50492, Note_on_c, 0, 87, 0
2, 50523, Note_on_c, 0, 60, 46
2, 50523, Note_on_c, 0, 62, 46
2, 50525, Note_on_c, 0, 87, 78
2, 50526, Note_on_c, 0, 75, 69
2, 50527, Note_on_c, 0, 54, 29
2, 50534, Note_on_c, 0, 62, 0
2, 50538, Note_on_c, 0, 75, 0
2, 50538, Note_on_c, 0, 54, 0
2, 50540, Note_on_c, 0, 87, 0
2, 50540, Note_on_c, 0, 60, 0
2, 50560, Note_on_c, 0, 85, 35
2, 50561, Note_on_c, 0, 73, 36
2, 50588, Note_on_c, 0, 85, 0
2, 50589, Note_on_c, 0, 73, 0
2, 50592, Note_on_c, 0, 74, 52
2, 50595, Note_on_c, 0, 86, 42
2, 50607, Note_on_c, 0, 74, 0
2, 50609, Note_on_c, 0, 86, 0
2, 50682, Note_on_c, 0, 65, 40
2, 50684, Note_on_c, 0, 60, 46
2, 50691, Note_on_c, 0, 60, 0
2, 50691, Note_on_c, 0, 65, 0
2, 50727, Note_on_c, 0, 65, 37
2, 50728, Note_on_c, 0, 60, 49
2, 50728, Note_on_c, 0, 54, 29
2, 50739, Note_on_c, 0, 65, 0
2, 50743, Note_on_c, 0, 54, 0
2, 50751, Note_on_c, 0, 60, 0
2, 50770, Note_on_c, 0, 63, 50
2, 50771, Note_on_c, 0, 60, 45
2, 50773, Note_on_c, 0, 54, 37
2, 50804, Note_on_c, 0, 54, 0
2, 50826, Note_on_c, 0, 54, 18
2, 50834, Note_on_c, 0, 60, 0
2, 50837, Note_on_c, 0, 63, 0
2, 50853, Note_on_c, 0, 54, 0
2, 50879, Note_on_c, 0, 62, 35
2, 50880, Note_on_c, 0, 56, 33
2, 50882, Note_on_c, 0, 59, 38
2, 50884, Note_on_c, 0, 53, 32
2, 50960, Note_on_c, 0, 59, 0
2, 50974, Note_on_c, 0, 59, 24
2, 50994, Note_on_c, 0, 62, 0
2, 51014, Note_on_c, 0, 59, 0
2, 51014, Note_on_c, 0, 65, 77
2, 51028, Note_on_c, 0, 65, 0
2, 51041, Note_on_c, 0, 67, 71
2, 51045, Note_on_c, 0, 59, 24
2, 51064, Note_on_c, 0, 67, 0
2, 51087, Note_on_c, 0, 59, 0
2, 51098, Note_on_c, 0, 71, 68
2, 51118, Note_on_c, 0, 71, 0
2, 51147, Note_on_c, 0, 74, 88
2, 51202, Note_on_c, 0, 53, 0
2, 51209, Note_on_c, 0, 74, 0
2, 51210, Note_on_c, 0, 56, 0
2, 51222, Note_on_c, 0, 71, 66
2, 51225, Note_on_c, 0, 56, 21
2, 51226, Note_on_c, 0, 62, 34
2, 51227, Note_on_c, 0, 59, 37
2, 51233, Note_on_c, 0, 62, 0
2, 51246, Note_on_c, 0, 71, 0
2, 51251, Note_on_c, 0, 59, 0
2, 51264, Note_on_c, 0, 67, 60
2, 51267, Note_on_c, 0, 56, 0
2, 51290, Note_on_c, 0, 67, 0
2, 51291, Note_on_c, 0, 59, 30
2, 51298, Note_on_c, 0, 59, 0
2, 51307, Note_on_c, 0, 65, 58
2, 51330, Note_on_c, 0, 65, 0
2, 51342, Note_on_c, 0, 55, 45
2, 51342, Note_on_c, 0, 63, 60
2, 51345, Note_on_c, 0, 58, 39
2, 51350, Note_on_c, 0, 48, 35
2, 51372, Note_on_c, 0, 55, 0
2, 51380, Note_on_c, 0, 63, 0
2, 51384, Note_on_c, 0, 58, 0
2, 51391, Note_on_c, 0, 65, 33
2, 51398, Note_on_c, 0, 48, 0
2, 51398, Note_on_c, 0, 63, 42
2, 51403, Note_on_c, 0, 55, 24
2, 51404, Note_on_c, 0, 65, 0
2, 51414, Note_on_c, 0, 55, 0
2, 51415, Note_on_c, 0, 48, 6
2, 51417, Note_on_c, 0, 63, 0
2, 51417, Note_on_c, 0, 62, 54
2, 51427, Note_on_c, 0, 62, 0
2, 51438, Note_on_c, 0, 63, 60
2, 51469, Note_on_c, 0, 63, 0
2, 51469, Note_on_c, 0, 59, 47
2, 51479, Note_on_c, 0, 59, 0
2, 51496, Note_on_c, 0, 62, 36
2, 51521, Note_on_c, 0, 62, 0
2, 51522, Note_on_c, 0, 63, 73
2, 51528, Note_on_c, 0, 48, 0
2, 51533, Note_on_c, 0, 63, 0
2, 51550, Note_on_c, 0, 67, 27
2, 51552, Note_on_c, 0, 69, 24
2, 51557, Note_on_c, 0, 69, 0
2, 51562, Note_on_c, 0, 67, 0
2, 51575, Note_on_c, 0, 74, 87
2, 51606, Note_on_c, 0, 72, 70
2, 51613, Note_on_c, 0, 74, 0
2, 51651, Note_on_c, 0, 67, 37
2, 51652, Note_on_c, 0, 63, 34
2, 51691, Note_on_c, 0, 62, 52
2, 51709, Note_on_c, 0, 62, 0
2, 51727, Note_on_c, 0, 60, 42
2, 51753, Note_on_c, 0, 63, 0
2, 51764, Note_on_c, 0, 67, 0
2, 51765, Note_on_c, 0, 60, 0
2, 51774, Note_on_c, 0, 72, 0
2, 51927, Note_on_c, 0, 84, 71
2, 51927, Note_on_c, 0, 63, 43
2, 51928, Note_on_c, 0, 55, 35
2, 51928, Note_on_c, 0, 60, 37
2, 51929, Note_on_c, 0, 72, 64
2, 51931, Note_on_c, 0, 79, 40
2, 51932, Note_on_c, 0, 57, 38
2, 51940, Control_c, 0, 64, 127
2, 51942, Note_on_c, 0, 72, 0
2, 51945, Note_on_c, 0, 63, 0
2, 51945, Note_on_c, 0, 84, 0
2, 51948, Note_on_c, 0, 55, 0
2, 51948, Note_on_c, 0, 57, 0
2, 51950, Note_on_c, 0, 60, 0
2, 51952, Note_on_c, 0, 79, 0
2, 51965, Note_on_c, 0, 86, 79
2, 51966, Note_on_c, 0, 79, 63
2, 51966, Note_on_c, 0, 63, 57
2, 51967, Note_on_c, 0, 55, 53
2, 51967, Note_on_c, 0, 74, 62
2, 51968, Note_on_c, 0, 60, 46
2, 51970, Note_on_c, 0, 57, 50
2, 51982, Note_on_c, 0, 74, 0
2, 51984, Note_on_c, 0, 86, 0
2, 51986, Note_on_c, 0, 55, 0
2, 51988, Note_on_c, 0, 63, 0
2, 51988, Note_on_c, 0, 79, 0
2, 51988, Note_on_c, 0, 57, 0
2, 51994, Note_on_c, 0, 60, 0
2, 52004, Note_on_c, 0, 63, 52
2, 52006, Note_on_c, 0, 87, 69
2, 52006, Note_on_c, 0, 75, 61
2, 52007, Control_c, 0, 64, 0
2, 52012, Note_on_c, 0, 60, 24
2, 52013, Note_on_c, 0, 75, 0
2, 52017, Note_on_c, 0, 63, 0
2, 52018, Note_on_c, 0, 60, 0
2, 52021, Note_on_c, 0, 87, 0
2, 52058, Note_on_c, 0, 89, 83
2, 52058, Note_on_c, 0, 63, 63
2, 52058, Note_on_c, 0, 60, 59
2, 52059, Note_on_c, 0, 84, 74
2, 52059, Note_on_c, 0, 55, 47
2, 52059, Note_on_c, 0, 57, 55
2, 52059, Note_on_c, 0, 77, 64
2, 52073, Control_c, 0, 64, 127
2, 52123, Note_on_c, 0, 89, 0
2, 52130, Note_on_c, 0, 84, 0
2, 52131, Note_on_c, 0, 55, 0
2, 52134, Note_on_c, 0, 60, 0
2, 52134, Note_on_c, 0, 77, 0
2, 52137, Note_on_c, 0, 63, 0
2, 52139, Note_on_c, 0, 57, 0
2, 52169, Control_c, 0, 64, 0
2, 52171, Note_on_c, 0, 87, 76
2, 52172, Note_on_c, 0, 60, 54
2, 52172, Note_on_c, 0, 75, 71
2, 52173, Note_on_c, 0, 82, 67
2, 52173, Note_on_c, 0, 54, 53
2, 52173, Note_on_c, 0, 62, 57
2, 52187, Note_on_c, 0, 62, 0
2, 52192, Note_on_c, 0, 82, 0
2, 52194, Note_on_c, 0, 75, 0
2, 52194, Note_on_c, 0, 60, 0
2, 52196, Note_on_c, 0, 87, 0
2, 52196, Note_on_c, 0, 54, 0
2, 52206, Note_on_c, 0, 86, 60
2, 52207, Note_on_c, 0, 60, 38
2, 52207, Note_on_c, 0, 62, 35
2, 52208, Note_on_c, 0, 54, 29
2, 52209, Note_on_c, 0, 81, 56
2, 52210, Note_on_c, 0, 74, 34
2, 52216, Note_on_c, 0, 85, 23
2, 52218, Note_on_c, 0, 62, 0
2, 52221, Note_on_c, 0, 86, 0
2, 52221, Note_on_c, 0, 85, 0
2, 52222, Note_on_c, 0, 81, 0
2, 52223, Note_on_c, 0, 54, 0
2, 52224, Note_on_c, 0, 74, 0
2, 52225, Note_on_c, 0, 60, 0
2, 52260, Note_on_c, 0, 82, 37
2, 52261, Note_on_c, 0, 70, 36
2, 52263, Note_on_c, 0, 54, 42
2, 52266, Note_on_c, 0, 70, 0
2, 52270, Control_c, 0, 64, 127
2, 52272, Note_on_c, 0, 82, 0
2, 52279, Note_on_c, 0, 54, 0
2, 52326, Control_c, 0, 64, 0
2, 52355, Note_on_c, 0, 58, 46
2, 52356, Note_on_c, 0, 53, 48
2, 52356, Note_on_c, 0, 84, 61
2, 52356, Note_on_c, 0, 72, 57
2, 52358, Note_on_c, 0, 60, 50
2, 52363, Note_on_c, 0, 60, 0
2, 52366, Note_on_c, 0, 72, 0
2, 52367, Note_on_c, 0, 53, 0
2, 52369, Note_on_c, 0, 84, 0
2, 52371, Note_on_c, 0, 58, 0
2, 52402, Note_on_c, 0, 53, 37
2, 52402, Note_on_c, 0, 84, 65
2, 52403, Note_on_c, 0, 60, 43
2, 52404, Note_on_c, 0, 58, 43
2, 52404, Note_on_c, 0, 72, 57
2, 52416, Note_on_c, 0, 60, 0
2, 52419, Note_on_c, 0, 72, 0
2, 52419, Note_on_c, 0, 53, 0
2, 52422, Note_on_c, 0, 84, 0
2, 52424, Note_on_c, 0, 58, 0
2, 52444, Control_c, 0, 64, 127
2, 52448, Note_on_c, 0, 84, 68
2, 52449, Note_on_c, 0, 60, 50
2, 52449, Note_on_c, 0, 58, 45
2, 52449, Note_on_c, 0, 53, 47
2, 52449, Note_on_c, 0, 72, 60
2, 52488, Note_on_c, 0, 84, 0
2, 52500, Note_on_c, 0, 72, 0
2, 52509, Note_on_c, 0, 82, 48
2, 52512, Note_on_c, 0, 53, 0
2, 52514, Note_on_c, 0, 60, 0
2, 52516, Note_on_c, 0, 58, 0
2, 52527, Note_on_c, 0, 82, 0
2, 52534, Control_c, 0, 64, 0
2, 52602, Note_on_c, 0, 58, 40
2, 52604, Note_on_c, 0, 60, 47
2, 52605, Note_on_c, 0, 53, 33
2, 52609, Note_on_c, 0, 60, 0
2, 52612, Note_on_c, 0, 53, 0
2, 52616, Note_on_c, 0, 58, 0
2, 52687, Note_on_c, 0, 60, 49
2, 52687, Note_on_c, 0, 58, 36
2, 52688, Note_on_c, 0, 53, 43
2, 52721, Note_on_c, 0, 79, 64
2, 52734, Note_on_c, 0, 79, 0
2, 52747, Note_on_c, 0, 53, 0
2, 52752, Note_on_c, 0, 82, 80
2, 52754, Note_on_c, 0, 60, 0
2, 52757, Note_on_c, 0, 58, 0
2, 52772, Control_c, 0, 64, 127
2, 52777, Note_on_c, 0, 82, 0
2, 52783, Note_on_c, 0, 81, 60
2, 52795, Control_c, 0, 64, 0
2, 52803, Note_on_c, 0, 81, 0
2, 52812, Note_on_c, 0, 80, 67
2, 52814, Note_on_c, 0, 65, 59
2, 52814, Note_on_c, 0, 58, 45
2, 52814, Note_on_c, 0, 60, 58
2, 52814, Note_on_c, 0, 54, 57
2, 52866, Note_on_c, 0, 80, 0
2, 52868, Control_c, 0, 64, 127
2, 52870, Note_on_c, 0, 87, 88
2, 52898, Note_on_c, 0, 87, 0
2, 52922, Note_on_c, 0, 65, 0
2, 52924, Note_on_c, 0, 84, 71
2, 52939, Note_on_c, 0, 54, 0
2, 52944, Note_on_c, 0, 84, 0
2, 52944, Note_on_c, 0, 58, 0
2, 52946, Note_on_c, 0, 60, 0
2, 52950, Control_c, 0, 64, 0
2, 52962, Note_on_c, 0, 80, 53
2, 52967, Note_on_c, 0, 65, 22
2, 52968, Note_on_c, 0, 58, 27
2, 52968, Note_on_c, 0, 60, 35
2, 52971, Note_on_c, 0, 65, 0
2, 52975, Note_on_c, 0, 60, 0
2, 52976, Note_on_c, 0, 80, 0
2, 52989, Note_on_c, 0, 58, 0
2, 53047, Note_on_c, 0, 78, 62
2, 53048, Note_on_c, 0, 54, 33
2, 53048, Note_on_c, 0, 63, 27
2, 53078, Note_on_c, 0, 78, 0
2, 53083, Note_on_c, 0, 63, 0
2, 53088, Note_on_c, 0, 79, 46
2, 53095, Note_on_c, 0, 54, 0
2, 53119, Control_c, 0, 64, 127
2, 53151, Note_on_c, 0, 79, 0
2, 53154, Control_c, 0, 64, 0
2, 53169, Note_on_c, 0, 49, 36
2, 53173, Note_on_c, 0, 80, 33
2, 53173, Note_on_c, 0, 50, 33
2, 53184, Note_on_c, 0, 80, 0
2, 53188, Note_on_c, 0, 49, 0
2, 53208, Note_on_c, 0, 82, 60
2, 53213, Control_c, 0, 64, 127
2, 53221, Note_on_c, 0, 82, 0
2, 53283, Note_on_c, 0, 50, 0
2, 53283, Control_c, 0, 64, 0
2, 53286, Note_on_c, 0, 43, 38
2, 53290, Note_on_c, 0, 79, 54
2, 53297, Control_c, 0, 64, 127
2, 53316, Note_on_c, 0, 79, 0
2, 53404, Note_on_c, 0, 62, 38
2, 53405, Note_on_c, 0, 57, 32
2, 53405, Note_on_c, 0, 58, 39
2, 53413, Control_c, 0, 64, 0
2, 53419, Note_on_c, 0, 57, 0
2, 53421, Note_on_c, 0, 58, 0
2, 53424, Note_on_c, 0, 62, 0
2, 53439, Note_on_c, 0, 57, 42
2, 53440, Note_on_c, 0, 62, 36
2, 53441, Note_on_c, 0, 58, 26
2, 53446, Note_on_c, 0, 57, 0
2, 53447, Note_on_c, 0, 58, 0
2, 53450, Note_on_c, 0, 62, 0
2, 53496, Note_on_c, 0, 58, 33
2, 53496, Note_on_c, 0, 62, 38
2, 53498, Note_on_c, 0, 57, 31
2, 53504, Note_on_c, 0, 57, 0
2, 53506, Note_on_c, 0, 58, 0
2, 53510, Note_on_c, 0, 62, 0
2, 53556, Note_on_c, 0, 62, 36
2, 53557, Note_on_c, 0, 58, 25
2, 53557, Note_on_c, 0, 57, 32
2, 53558, Note_on_c, 0, 50, 26
2, 53564, Note_on_c, 0, 50, 0
2, 53565, Note_on_c, 0, 57, 0
2, 53566, Note_on_c, 0, 58, 0
2, 53569, Note_on_c, 0, 62, 0
2, 53613, Note_on_c, 0, 49, 47
2, 53627, Note_on_c, 0, 49, 0
2, 53638, Note_on_c, 0, 43, 0
2, 53643, Note_on_c, 0, 50, 39
2, 53644, Note_on_c, 0, 62, 47
2, 53646, Note_on_c, 0, 55, 36
2, 53649, Note_on_c, 0, 60, 35
2, 53656, Note_on_c, 0, 60, 0
2, 53656, Note_on_c, 0, 55, 0
2, 53663, Note_on_c, 0, 62, 0
2, 53677, Note_on_c, 0, 50, 0
2, 53701, Note_on_c, 0, 54, 52
2, 53704, Note_on_c, 0, 42, 40
2, 53722, Note_on_c, 0, 54, 0
2, 53749, Note_on_c, 0, 39, 26
2, 53757, Note_on_c, 0, 39, 0
2, 53757, Note_on_c, 0, 42, 0
2, 53763, Note_on_c, 0, 62, 38
2, 53764, Note_on_c, 0, 57, 33
2, 53764, Note_on_c, 0, 58, 35
2, 53765, Note_on_c, 0, 43, 41
2, 53779, Note_on_c, 0, 57, 0
2, 53795, Note_on_c, 0, 58, 0
2, 53796, Note_on_c, 0, 62, 0
2, 53799, Note_on_c, 0, 43, 0
2, 53800, Note_on_c, 0, 31, 49
2, 53806, Note_on_c, 0, 31, 0
2, 53823, Note_on_c, 0, 72, 68
2, 53847, Note_on_c, 0, 72, 0
2, 53855, Note_on_c, 0, 69, 44
2, 53868, Note_on_c, 0, 69, 0
2, 53883, Note_on_c, 0, 70, 57
2, 53886, Note_on_c, 0, 58, 31
2, 53887, Note_on_c, 0, 62, 17
2, 53890, Note_on_c, 0, 55, 18
2, 53899, Note_on_c, 0, 62, 0
2, 53900, Note_on_c, 0, 55, 0
2, 53900, Note_on_c, 0, 70, 0
2, 53901, Note_on_c, 0, 58, 0
2, 53917, Note_on_c, 0, 66, 35
2, 53927, Note_on_c, 0, 66, 0
2, 53946, Note_on_c, 0, 69, 62
2, 53960, Note_on_c, 0, 69, 0
2, 53976, Note_on_c, 0, 67, 58
2, 53989, Note_on_c, 0, 67, 0
2, 54002, Note_on_c, 0, 62, 41
2, 54012, Note_on_c, 0, 62, 0
2, 54032, Note_on_c, 0, 60, 53
2, 54038, Note_on_c, 0, 60, 0
2, 54059, Note_on_c, 0, 58, 33
2, 54064, Note_on_c, 0, 58, 0
2, 54089, Note_on_c, 0, 57, 54
2, 54095, Note_on_c, 0, 57, 0
2, 54115, Note_on_c, 0, 60, 82
2, 54137, Note_on_c, 0, 60, 0
2, 54150, Note_on_c, 0, 57, 29
2, 54160, Note_on_c, 0, 57, 0
2, 54173, Note_on_c, 0, 58, 55
2, 54193, Note_on_c, 0, 58, 0
2, 54210, Note_on_c, 0, 54, 33
2, 54222, Note_on_c, 0, 54, 0
2, 54236, Note_on_c, 0, 57, 54
2, 54255, Note_on_c, 0, 57, 0
2, 54275, Note_on_c, 0, 50, 47
2, 54283, Note_on_c, 0, 50, 0
2, 54300, Note_on_c, 0, 50, 47
2, 54319, Note_on_c, 0, 50, 0
2, 54337, Note_on_c, 0, 50, 52
2, 54352, Note_on_c, 0, 50, 0
2, 54396, Note_on_c, 0, 50, 49
2, 54409, Note_on_c, 0, 50, 0
2, 54455, Note_on_c, 0, 48, 39
2, 54469, Note_on_c, 0, 48, 0
2, 54486, Note_on_c, 0, 50, 43
2, 54563, Note_on_c, 0, 50, 0
2, 54576, Note_on_c, 0, 48, 58
2, 54587, Note_on_c, 0, 48, 0
2, 54609, Note_on_c, 0, 46, 45
2, 54663, Note_on_c, 0, 46, 0
2, 54667, Note_on_c, 0, 43, 43
2, 54723, Note_on_c, 0, 43, 0
2, 54727, Note_on_c, 0, 31, 56
2, 54802, Control_c, 0, 64, 127
2, 54859, Note_on_c, 0, 31, 0
2, 55086, Note_on_c, 0, 58, 30
2, 55087, Note_on_c, 0, 65, 34
2, 55094, Note_on_c, 0, 60, 35
2, 55096, Note_on_c, 0, 69, 59
2, 55100, Note_on_c, 0, 62, 36
2, 55109, Note_on_c, 0, 72, 55
2, 55159, Note_on_c, 0, 65, 0
2, 55167, Note_on_c, 0, 69, 0
2, 55172, Note_on_c, 0, 72, 0
2, 55198, Note_on_c, 0, 81, 58
2, 55201, Note_on_c, 0, 69, 36
2, 55211, Note_on_c, 0, 69, 0
2, 55217, Note_on_c, 0, 81, 0
2, 55249, Note_on_c, 0, 86, 59
2, 55249, Note_on_c, 0, 74, 44
2, 55258, Note_on_c, 0, 74, 0
2, 55261, Note_on_c, 0, 86, 0
2, 55299, Note_on_c, 0, 93, 60
2, 55299, Note_on_c, 0, 81, 51
2, 55314, Note_on_c, 0, 81, 0
2, 55317, Note_on_c, 0, 93, 0
2, 55351, Note_on_c, 0, 98, 63
2, 55354, Note_on_c, 0, 86, 39
2, 55367, Note_on_c, 0, 86, 0
2, 55367, Note_on_c, 0, 98, 0
2, 55412, Note_on_c, 0, 105, 58
2, 55413, Note_on_c, 0, 93, 44
2, 55452, Note_on_c, 0, 105, 0
2, 55472, Note_on_c, 0, 60, 0
2, 55472, Note_on_c, 0, 62, 0
2, 55476, Note_on_c, 0, 58, 0
2, 55893, Note_on_c, 0, 93, 0
2, 55920, Control_c, 0, 64, 0
2, 55920, End_track
3, 0, Start_track
3, 0, Program_c, 1, 35
3, 0, Control_c, 1, 7, 92
3, 0, Control_c, 1, 10, 64
3, 0, Control_c, 1, 11, 127
3, 0, Pitch_bend_c, 1, 6784
3, 0, Note_on_c, 1, 31, 103
3, 2, Pitch_bend_c, 1, 6976
3, 4, Pitch_bend_c, 1, 7104
3, 6, Pitch_bend_c, 1, 7424
3, 8, Pitch_bend_c, 1, 7680
3, 10, Pitch_bend_c, 1, 8000
3, 12, Pitch_bend_c, 1, 8192
3, 14, Pitch_bend_c, 1, 8640
3, 16, Pitch_bend_c, 1, 8736
3, 18, Pitch_bend_c, 1, 8800
3, 24, Pitch_bend_c, 1, 8736
3, 26, Pitch_bend_c, 1, 8672
3, 30, Pitch_bend_c, 1, 8544
3, 34, Pitch_bend_c, 1, 8480
3, 36, Pitch_bend_c, 1, 8416
3, 40, Pitch_bend_c, 1, 8352
3, 46, Pitch_bend_c, 1, 8288
3, 64, Pitch_bend_c, 1, 8192
3, 103, Note_on_c, 1, 31, 0
3, 112, Pitch_bend_c, 1, 6944
3, 112, Note_on_c, 1, 38, 100
3, 114, Pitch_bend_c, 1, 7104
3, 116, Pitch_bend_c, 1, 7232
3, 118, Pitch_bend_c, 1, 7520
3, 120, Pitch_bend_c, 1, 7744
3, 122, Pitch_bend_c, 1, 7904
3, 124, Pitch_bend_c, 1, 8192
3, 126, Pitch_bend_c, 1, 8448
3, 128, Pitch_bend_c, 1, 8672
3, 130, Pitch_bend_c, 1, 8736
3, 138, Pitch_bend_c, 1, 8640
3, 140, Pitch_bend_c, 1, 8576
3, 144, Pitch_bend_c, 1, 8512
3, 148, Pitch_bend_c, 1, 8448
3, 154, Pitch_bend_c, 1, 8320
3, 178, Pitch_bend_c, 1, 8192
3, 219, Note_on_c, 1, 38, 0
3, 232, Pitch_bend_c, 1, 7136
3, 232, Note_on_c, 1, 43, 99
3, 234, Pitch_bend_c, 1, 7296
3, 236, Pitch_bend_c, 1, 7392
3, 238, Pitch_bend_c, 1, 7616
3, 240, Pitch_bend_c, 1, 7808
3, 242, Pitch_bend_c, 1, 7968
3, 244, Pitch_bend_c, 1, 8192
3, 246, Pitch_bend_c, 1, 8416
3, 248, Pitch_bend_c, 1, 8544
3, 250, Pitch_bend_c, 1, 8640
3, 260, Pitch_bend_c, 1, 8544
3, 264, Pitch_bend_c, 1, 8448
3, 270, Pitch_bend_c, 1, 8352
3, 274, Pitch_bend_c, 1, 8288
3, 300, Pitch_bend_c, 1, 8192
3, 341, Note_on_c, 1, 43, 0
3, 353, Pitch_bend_c, 1, 4288
3, 353, Note_on_c, 1, 38, 100
3, 361, Pitch_bend_c, 1, 4384
3, 363, Pitch_bend_c, 1, 4544
3, 365, Pitch_bend_c, 1, 4960
3, 367, Pitch_bend_c, 1, 5760
3, 369, Pitch_bend_c, 1, 6592
3, 371, Pitch_bend_c, 1, 7296
3, 373, Pitch_bend_c, 1, 7552
3, 375, Pitch_bend_c, 1, 7904
3, 377, Pitch_bend_c, 1, 8064
3, 379, Pitch_bend_c, 1, 8128
3, 391, Pitch_bend_c, 1, 8192
3, 452, Note_on_c, 1, 38, 0
3, 452, Note_on_c, 1, 31, 109
3, 460, Note_on_c, 1, 31, 0
3, 487, Pitch_bend_c, 1, 6688
3, 487, Note_on_c, 1, 30, 103
3, 489, Pitch_bend_c, 1, 6880
3, 491, Pitch_bend_c, 1, 7040
3, 493, Pitch_bend_c, 1, 7360
3, 495, Pitch_bend_c, 1, 7648
3, 497, Pitch_bend_c, 1, 8000
3, 499, Pitch_bend_c, 1, 8192
3, 501, Pitch_bend_c, 1, 8672
3, 503, Pitch_bend_c, 1, 8768
3, 505, Pitch_bend_c, 1, 8832
3, 511, Pitch_bend_c, 1, 8768
3, 513, Pitch_bend_c, 1, 8704
3, 517, Pitch_bend_c, 1, 8576
3, 521, Pitch_bend_c, 1, 8512
3, 523, Pitch_bend_c, 1, 8448
3, 527, Pitch_bend_c, 1, 8352
3, 533, Pitch_bend_c, 1, 8288
3, 551, Pitch_bend_c, 1, 8192
3, 590, Note_on_c, 1, 30, 0
3, 600, Pitch_bend_c, 1, 6848
3, 600, Note_on_c, 1, 42, 100
3, 602, Pitch_bend_c, 1, 7040
3, 604, Pitch_bend_c, 1, 7168
3, 606, Pitch_bend_c, 1, 7456
3, 608, Pitch_bend_c, 1, 7712
3, 610, Pitch_bend_c, 1, 8032
3, 612, Pitch_bend_c, 1, 8192
3, 614, Pitch_bend_c, 1, 8480
3, 616, Pitch_bend_c, 1, 8704
3, 618, Pitch_bend_c, 1, 8768
3, 626, Pitch_bend_c, 1, 8672
3, 628, Pitch_bend_c, 1, 8608
3, 630, Pitch_bend_c, 1, 8512
3, 638, Pitch_bend_c, 1, 8416
3, 642, Pitch_bend_c, 1, 8352
3, 648, Pitch_bend_c, 1, 8288
3, 666, Pitch_bend_c, 1, 8192
3, 706, Note_on_c, 1, 42, 0
3, 718, Pitch_bend_c, 1, 4032
3, 718, Note_on_c, 1, 38, 99
3, 726, Pitch_bend_c, 1, 4160
3, 728, Pitch_bend_c, 1, 4448
3, 730, Pitch_bend_c, 1, 4736
3, 732, Pitch_bend_c, 1, 5600
3, 734, Pitch_bend_c, 1, 6464
3, 736, Pitch_bend_c, 1, 7232
3, 738, Pitch_bend_c, 1, 7680
3, 740, Pitch_bend_c, 1, 7872
3, 742, Pitch_bend_c, 1, 8032
3, 744, Pitch_bend_c, 1, 8096
3, 756, Pitch_bend_c, 1, 8192
3, 816, Note_on_c, 1, 38, 0
3, 816, Note_on_c, 1, 36, 105
3, 826, Note_on_c, 1, 36, 0
3, 835, Pitch_bend_c, 1, 7136
3, 835, Note_on_c, 1, 30, 100
3, 837, Pitch_bend_c, 1, 7296
3, 839, Pitch_bend_c, 1, 7488
3, 841, Pitch_bend_c, 1, 7616
3, 843, Pitch_bend_c, 1, 7872
3, 845, Pitch_bend_c, 1, 8192
3, 847, Pitch_bend_c, 1, 8288
3, 849, Pitch_bend_c, 1, 8544
3, 851, Pitch_bend_c, 1, 8640
3, 859, Pitch_bend_c, 1, 8544
3, 863, Pitch_bend_c, 1, 8448
3, 869, Pitch_bend_c, 1, 8352
3, 873, Pitch_bend_c, 1, 8288
3, 895, Pitch_bend_c, 1, 8192
3, 932, Note_on_c, 1, 30, 0
3, 944, Note_on_c, 1, 36, 109
3, 957, Note_on_c, 1, 36, 0
3, 961, Pitch_bend_c, 1, 6688
3, 961, Note_on_c, 1, 29, 102
3, 963, Pitch_bend_c, 1, 6880
3, 965, Pitch_bend_c, 1, 7168
3, 967, Pitch_bend_c, 1, 7360
3, 969, Pitch_bend_c, 1, 7712
3, 971, Pitch_bend_c, 1, 8000
3, 973, Pitch_bend_c, 1, 8352
3, 975, Pitch_bend_c, 1, 8672
3, 977, Pitch_bend_c, 1, 8768
3, 979, Pitch_bend_c, 1, 8832
3, 985, Pitch_bend_c, 1, 8768
3, 987, Pitch_bend_c, 1, 8672
3, 991, Pitch_bend_c, 1, 8576
3, 995, Pitch_bend_c, 1, 8512
3, 997, Pitch_bend_c, 1, 8448
3, 1001, Pitch_bend_c, 1, 8352
3, 1005, Pitch_bend_c, 1, 8288
3, 1023, Pitch_bend_c, 1, 8192
3, 1061, Note_on_c, 1, 29, 0
3, 1072, Pitch_bend_c, 1, 6720
3, 1072, Note_on_c, 1, 41, 103
3, 1074, Pitch_bend_c, 1, 6912
3, 1076, Pitch_bend_c, 1, 7072
3, 1078, Pitch_bend_c, 1, 7264
3, 1080, Pitch_bend_c, 1, 7648
3, 1082, Pitch_bend_c, 1, 7840
3, 1084, Pitch_bend_c, 1, 8128
3, 1086, Pitch_bend_c, 1, 8512
3, 1088, Pitch_bend_c, 1, 8704
3, 1090, Pitch_bend_c, 1, 8768
3, 1092, Pitch_bend_c, 1, 8832
3, 1098, Pitch_bend_c, 1, 8768
3, 1100, Pitch_bend_c, 1, 8704
3, 1102, Pitch_bend_c, 1, 8640
3, 1104, Pitch_bend_c, 1, 8544
3, 1112, Pitch_bend_c, 1, 8448
3, 1116, Pitch_bend_c, 1, 8352
3, 1122, Pitch_bend_c, 1, 8288
3, 1140, Pitch_bend_c, 1, 8192
3, 1183, Note_on_c, 1, 41, 0
3, 1196, Pitch_bend_c, 1, 4032
3, 1196, Note_on_c, 1, 38, 103
3, 1204, Pitch_bend_c, 1, 4160
3, 1208, Pitch_bend_c, 1, 4320
3, 1210, Pitch_bend_c, 1, 4544
3, 1212, Pitch_bend_c, 1, 4992
3, 1214, Pitch_bend_c, 1, 5600
3, 1216, Pitch_bend_c, 1, 6464
3, 1218, Pitch_bend_c, 1, 7232
3, 1220, Pitch_bend_c, 1, 7520
3, 1222, Pitch_bend_c, 1, 7808
3, 1224, Pitch_bend_c, 1, 7968
3, 1226, Pitch_bend_c, 1, 8032
3, 1228, Pitch_bend_c, 1, 8096
3, 1244, Pitch_bend_c, 1, 8192
3, 1318, Note_on_c, 1, 38, 0
3, 1318, Pitch_bend_c, 1, 4192
3, 1318, Note_on_c, 1, 35, 103
3, 1326, Pitch_bend_c, 1, 4320
3, 1328, Pitch_bend_c, 1, 4384
3, 1330, Pitch_bend_c, 1, 4704
3, 1332, Pitch_bend_c, 1, 5088
3, 1334, Pitch_bend_c, 1, 6208
3, 1336, Pitch_bend_c, 1, 6816
3, 1338, Pitch_bend_c, 1, 7264
3, 1340, Pitch_bend_c, 1, 7712
3, 1342, Pitch_bend_c, 1, 7904
3, 1344, Pitch_bend_c, 1, 8064
3, 1346, Pitch_bend_c, 1, 8128
3, 1360, Pitch_bend_c, 1, 8192
3, 1425, Note_on_c, 1, 35, 0
3, 1425, Note_on_c, 1, 34, 105
3, 1437, Note_on_c, 1, 34, 0
3, 1439, Pitch_bend_c, 1, 7040
3, 1439, Note_on_c, 1, 36, 102
3, 1441, Pitch_bend_c, 1, 7200
3, 1443, Pitch_bend_c, 1, 7424
3, 1445, Pitch_bend_c, 1, 7680
3, 1447, Pitch_bend_c, 1, 7936
3, 1449, Pitch_bend_c, 1, 8192
3, 1451, Pitch_bend_c, 1, 8416
3, 1453, Pitch_bend_c, 1, 8640
3, 1463, Pitch_bend_c, 1, 8544
3, 1465, Pitch_bend_c, 1, 8480
3, 1469, Pitch_bend_c, 1, 8416
3, 1475, Pitch_bend_c, 1, 8320
3, 1479, Pitch_bend_c, 1, 8256
3, 1495, Pitch_bend_c, 1, 8192
3, 1530, Note_on_c, 1, 36, 0
3, 1539, Note_on_c, 1, 34, 107
3, 1557, Note_on_c, 1, 34, 0
3, 1558, Pitch_bend_c, 1, 7072
3, 1558, Note_on_c, 1, 50, 103
3, 1560, Pitch_bend_c, 1, 7232
3, 1562, Pitch_bend_c, 1, 7424
3, 1564, Pitch_bend_c, 1, 7584
3, 1566, Pitch_bend_c, 1, 7840
3, 1568, Pitch_bend_c, 1, 8064
3, 1570, Pitch_bend_c, 1, 8320
3, 1572, Pitch_bend_c, 1, 8544
3, 1574, Pitch_bend_c, 1, 8608
3, 1576, Pitch_bend_c, 1, 8672
3, 1582, Pitch_bend_c, 1, 8608
3, 1586, Pitch_bend_c, 1, 8544
3, 1588, Pitch_bend_c, 1, 8448
3, 1594, Pitch_bend_c, 1, 8384
3, 1598, Pitch_bend_c, 1, 8320
3, 1604, Pitch_bend_c, 1, 8256
3, 1622, Pitch_bend_c, 1, 8192
3, 1660, Note_on_c, 1, 50, 0
3, 1672, Pitch_bend_c, 1, 4096
3, 1672, Note_on_c, 1, 48, 100
3, 1680, Pitch_bend_c, 1, 4224
3, 1684, Pitch_bend_c, 1, 4384
3, 1686, Pitch_bend_c, 1, 4608
3, 1688, Pitch_bend_c, 1, 5024
3, 1690, Pitch_bend_c, 1, 5632
3, 1692, Pitch_bend_c, 1, 6496
3, 1694, Pitch_bend_c, 1, 7008
3, 1696, Pitch_bend_c, 1, 7360
3, 1698, Pitch_bend_c, 1, 7808
3, 1700, Pitch_bend_c, 1, 7968
3, 1702, Pitch_bend_c, 1, 8032
3, 1704, Pitch_bend_c, 1, 8096
3, 1720, Pitch_bend_c, 1, 8192
3, 1795, Note_on_c, 1, 48, 0
3, 1795, Pitch_bend_c, 1, 7008
3, 1795, Note_on_c, 1, 43, 99
3, 1797, Pitch_bend_c, 1, 7296
3, 1799, Pitch_bend_c, 1, 7776
3, 1801, Pitch_bend_c, 1, 8128
3, 1803, Pitch_bend_c, 1, 8608
3, 1805, Pitch_bend_c, 1, 8704
3, 1809, Pitch_bend_c, 1, 8608
3, 1811, Pitch_bend_c, 1, 8480
3, 1815, Pitch_bend_c, 1, 8384
3, 1817, Pitch_bend_c, 1, 8320
3, 1821, Pitch_bend_c, 1, 8256
3, 1831, Pitch_bend_c, 1, 8192
3, 1851, Note_on_c, 1, 43, 0
3, 1856, Note_on_c, 1, 35, 102
3, 1913, Note_on_c, 1, 35, 0
3, 1913, Pitch_bend_c, 1, 7104
3, 1913, Note_on_c, 1, 36, 100
3, 1915, Pitch_bend_c, 1, 7264
3, 1917, Pitch_bend_c, 1, 7360
3, 1919, Pitch_bend_c, 1, 7520
3, 1921, Pitch_bend_c, 1, 7808
3, 1923, Pitch_bend_c, 1, 7936
3, 1925, Pitch_bend_c, 1, 8128
3, 1927, Pitch_bend_c, 1, 8320
3, 1929, Pitch_bend_c, 1, 8576
3, 1933, Pitch_bend_c, 1, 8640
3, 1941, Pitch_bend_c, 1, 8576
3, 1943, Pitch_bend_c, 1, 8512
3, 1945, Pitch_bend_c, 1, 8448
3, 1953, Pitch_bend_c, 1, 8384
3, 1957, Pitch_bend_c, 1, 8320
3, 1963, Pitch_bend_c, 1, 8256
3, 1983, Pitch_bend_c, 1, 8192
3, 2026, Note_on_c, 1, 36, 0
3, 2037, Pitch_bend_c, 1, 7136
3, 2037, Note_on_c, 1, 48, 102
3, 2039, Pitch_bend_c, 1, 7264
3, 2041, Pitch_bend_c, 1, 7456
3, 2043, Pitch_bend_c, 1, 7712
3, 2045, Pitch_bend_c, 1, 7968
3, 2047, Pitch_bend_c, 1, 8192
3, 2049, Pitch_bend_c, 1, 8512
3, 2051, Pitch_bend_c, 1, 8608
3, 2059, Pitch_bend_c, 1, 8544
3, 2063, Pitch_bend_c, 1, 8448
3, 2067, Pitch_bend_c, 1, 8352
3, 2071, Pitch_bend_c, 1, 8288
3, 2091, Pitch_bend_c, 1, 8192
3, 2124, Note_on_c, 1, 48, 0
3, 2135, Note_on_c, 1, 38, 108
3, 2142, Note_on_c, 1, 38, 0
3, 2159, Pitch_bend_c, 1, 7040
3, 2159, Note_on_c, 1, 45, 100
3, 2161, Pitch_bend_c, 1, 7200
3, 2163, Pitch_bend_c, 1, 7392
3, 2165, Pitch_bend_c, 1, 7680
3, 2167, Pitch_bend_c, 1, 7936
3, 2169, Pitch_bend_c, 1, 8192
3, 2171, Pitch_bend_c, 1, 8416
3, 2173, Pitch_bend_c, 1, 8640
3, 2183, Pitch_bend_c, 1, 8544
3, 2185, Pitch_bend_c, 1, 8480
3, 2189, Pitch_bend_c, 1, 8416
3, 2195, Pitch_bend_c, 1, 8320
3, 2199, Pitch_bend_c, 1, 8256
3, 2215, Pitch_bend_c, 1, 8192
3, 2250, Note_on_c, 1, 45, 0
3, 2260, Note_on_c, 1, 37, 108
3, 2276, Note_on_c, 1, 37, 0
3, 2277, Pitch_bend_c, 1, 6816
3, 2277, Note_on_c, 1, 38, 101
3, 2279, Pitch_bend_c, 1, 7008
3, 2281, Pitch_bend_c, 1, 7232
3, 2283, Pitch_bend_c, 1, 7584
3, 2285, Pitch_bend_c, 1, 7872
3, 2287, Pitch_bend_c, 1, 8192
3, 2289, Pitch_bend_c, 1, 8608
3, 2291, Pitch_bend_c, 1, 8736
3, 2299, Pitch_bend_c, 1, 8672
3, 2301, Pitch_bend_c, 1, 8608
3, 2303, Pitch_bend_c, 1, 8544
3, 2307, Pitch_bend_c, 1, 8480
3, 2309, Pitch_bend_c, 1, 8416
3, 2311, Pitch_bend_c, 1, 8352
3, 2317, Pitch_bend_c, 1, 8288
3, 2331, Pitch_bend_c, 1, 8192
3, 2365, Note_on_c, 1, 38, 0
3, 2375, Note_on_c, 1, 44, 108
3, 2388, Note_on_c, 1, 44, 0
3, 2397, Pitch_bend_c, 1, 6688
3, 2397, Note_on_c, 1, 43, 102
3, 2399, Pitch_bend_c, 1, 6880
3, 2401, Pitch_bend_c, 1, 7040
3, 2403, Pitch_bend_c, 1, 7360
3, 2405, Pitch_bend_c, 1, 7648
3, 2407, Pitch_bend_c, 1, 7840
3, 2409, Pitch_bend_c, 1, 8192
3, 2411, Pitch_bend_c, 1, 8512
3, 2413, Pitch_bend_c, 1, 8704
3, 2415, Pitch_bend_c, 1, 8832
3, 2423, Pitch_bend_c, 1, 8768
3, 2425, Pitch_bend_c, 1, 8672
3, 2429, Pitch_bend_c, 1, 8576
3, 2433, Pitch_bend_c, 1, 8512
3, 2435, Pitch_bend_c, 1, 8448
3, 2439, Pitch_bend_c, 1, 8352
3, 2445, Pitch_bend_c, 1, 8288
3, 2463, Pitch_bend_c, 1, 8192
3, 2505, Note_on_c, 1, 43, 0
3, 2515, Pitch_bend_c, 1, 4352
3, 2515, Note_on_c, 1, 38, 100
3, 2521, Pitch_bend_c, 1, 4480
3, 2525, Pitch_bend_c, 1, 4736
3, 2527, Pitch_bend_c, 1, 5216
3, 2529, Pitch_bend_c, 1, 5792
3, 2531, Pitch_bend_c, 1, 6880
3, 2533, Pitch_bend_c, 1, 7424
3, 2535, Pitch_bend_c, 1, 7712
3, 2537, Pitch_bend_c, 1, 8000
3, 2539, Pitch_bend_c, 1, 8128
3, 2553, Pitch_bend_c, 1, 8192
3, 2610, Note_on_c, 1, 38, 0
3, 2610, Note_on_c, 1, 32, 107
3, 2628, Note_on_c, 1, 32, 0
3, 2637, Pitch_bend_c, 1, 7104
3, 2637, Note_on_c, 1, 31, 103
3, 2639, Pitch_bend_c, 1, 7264
3, 2641, Pitch_bend_c, 1, 7456
3, 2643, Pitch_bend_c, 1, 7712
3, 2645, Pitch_bend_c, 1, 7936
3, 2647, Pitch_bend_c, 1, 8192
3, 2649, Pitch_bend_c, 1, 8512
3, 2651, Pitch_bend_c, 1, 8608
3, 2661, Pitch_bend_c, 1, 8512
3, 2663, Pitch_bend_c, 1, 8448
3, 2669, Pitch_bend_c, 1, 8384
3, 2671, Pitch_bend_c, 1, 8320
3, 2677, Pitch_bend_c, 1, 8256
3, 2691, Pitch_bend_c, 1, 8192
3, 2725, Note_on_c, 1, 31, 0
3, 2735, Note_on_c, 1, 38, 104
3, 2741, Note_on_c, 1, 38, 0
3, 2758, Note_on_c, 1, 43, 108
3, 2777, Note_on_c, 1, 43, 0
3, 2816, Note_on_c, 1, 46, 105
3, 2844, Note_on_c, 1, 46, 0
3, 2885, Note_on_c, 1, 45, 103
3, 2917, Pitch_bend_c, 1, 8256
3, 2919, Pitch_bend_c, 1, 8320
3, 2925, Pitch_bend_c, 1, 8384
3, 2929, Pitch_bend_c, 1, 8512
3, 2931, Pitch_bend_c, 1, 8640
3, 2933, Pitch_bend_c, 1, 8800
3, 2935, Pitch_bend_c, 1, 9024
3, 2937, Pitch_bend_c, 1, 9248
3, 2939, Pitch_bend_c, 1, 9408
3, 2941, Pitch_bend_c, 1, 9472
3, 2943, Pitch_bend_c, 1, 9568
3, 2947, Pitch_bend_c, 1, 9472
3, 2949, Pitch_bend_c, 1, 9312
3, 2951, Pitch_bend_c, 1, 9088
3, 2953, Pitch_bend_c, 1, 8832
3, 2955, Pitch_bend_c, 1, 8576
3, 2957, Pitch_bend_c, 1, 8352
3, 2959, Pitch_bend_c, 1, 8256
3, 2961, Pitch_bend_c, 1, 8192
3, 2963, Pitch_bend_c, 1, 8096
3, 2973, Pitch_bend_c, 1, 8192
3, 2975, Pitch_bend_c, 1, 8288
3, 2977, Pitch_bend_c, 1, 8448
3, 2979, Pitch_bend_c, 1, 8736
3, 2981, Pitch_bend_c, 1, 8992
3, 2983, Pitch_bend_c, 1, 9152
3, 2985, Pitch_bend_c, 1, 9312
3, 2987, Pitch_bend_c, 1, 9472
3, 2989, Pitch_bend_c, 1, 9600
3, 2991, Pitch_bend_c, 1, 9696
3, 2999, Pitch_bend_c, 1, 9600
3, 3001, Pitch_bend_c, 1, 9472
3, 3003, Pitch_bend_c, 1, 9248
3, 3005, Pitch_bend_c, 1, 8896
3, 3007, Pitch_bend_c, 1, 8480
3, 3009, Pitch_bend_c, 1, 8192
3, 3011, Pitch_bend_c, 1, 8096
3, 3013, Pitch_bend_c, 1, 8000
3, 3023, Pitch_bend_c, 1, 8064
3, 3025, Pitch_bend_c, 1, 8192
3, 3029, Pitch_bend_c, 1, 8416
3, 3031, Pitch_bend_c, 1, 8672
3, 3033, Pitch_bend_c, 1, 8736
3, 3035, Pitch_bend_c, 1, 8896
3, 3037, Pitch_bend_c, 1, 9056
3, 3039, Pitch_bend_c, 1, 9152
3, 3041, Pitch_bend_c, 1, 9280
3, 3043, Pitch_bend_c, 1, 9344
3, 3051, Pitch_bend_c, 1, 9280
3, 3053, Pitch_bend_c, 1, 9088
3, 3055, Pitch_bend_c, 1, 8864
3, 3057, Pitch_bend_c, 1, 8608
3, 3059, Pitch_bend_c, 1, 8384
3, 3061, Pitch_bend_c, 1, 8256
3, 3063, Pitch_bend_c, 1, 8192
3, 3065, Pitch_bend_c, 1, 8064
3, 3075, Pitch_bend_c, 1, 8192
3, 3077, Pitch_bend_c, 1, 8288
3, 3079, Pitch_bend_c, 1, 8512
3, 3081, Pitch_bend_c, 1, 8672
3, 3083, Pitch_bend_c, 1, 8832
3, 3085, Pitch_bend_c, 1, 8896
3, 3089, Pitch_bend_c, 1, 8960
3, 3091, Pitch_bend_c, 1, 8896
3, 3093, Pitch_bend_c, 1, 8768
3, 3095, Pitch_bend_c, 1, 8608
3, 3097, Pitch_bend_c, 1, 8448
3, 3099, Pitch_bend_c, 1, 8320
3, 3101, Pitch_bend_c, 1, 8192
3, 3113, Note_on_c, 1, 45, 0
3, 3122, Pitch_bend_c, 1, 4192
3, 3122, Note_on_c, 1, 33, 103
3, 3130, Pitch_bend_c, 1, 4320
3, 3132, Pitch_bend_c, 1, 4384
3, 3134, Pitch_bend_c, 1, 4608
3, 3136, Pitch_bend_c, 1, 4896
3, 3138, Pitch_bend_c, 1, 5376
3, 3140, Pitch_bend_c, 1, 6560
3, 3142, Pitch_bend_c, 1, 7040
3, 3144, Pitch_bend_c, 1, 7392
3, 3146, Pitch_bend_c, 1, 7712
3, 3148, Pitch_bend_c, 1, 8000
3, 3150, Pitch_bend_c, 1, 8064
3, 3152, Pitch_bend_c, 1, 8128
3, 3166, Pitch_bend_c, 1, 8192
3, 3236, Note_on_c, 1, 33, 0
3, 3236, Pitch_bend_c, 1, 6656
3, 3236, Note_on_c, 1, 37, 100
3, 3238, Pitch_bend_c, 1, 6880
3, 3240, Pitch_bend_c, 1, 7136
3, 3242, Pitch_bend_c, 1, 7520
3, 3244, Pitch_bend_c, 1, 7840
3, 3246, Pitch_bend_c, 1, 8192
3, 3248, Pitch_bend_c, 1, 8512
3, 3250, Pitch_bend_c, 1, 8800
3, 3260, Pitch_bend_c, 1, 8672
3, 3262, Pitch_bend_c, 1, 8576
3, 3266, Pitch_bend_c, 1, 8512
3, 3268, Pitch_bend_c, 1, 8448
3, 3272, Pitch_bend_c, 1, 8352
3, 3276, Pitch_bend_c, 1, 8288
3, 3292, Pitch_bend_c, 1, 8192
3, 3327, Note_on_c, 1, 37, 0
3, 3335, Note_on_c, 1, 34, 108
3, 3356, Note_on_c, 1, 34, 0
3, 3357, Pitch_bend_c, 1, 6848
3, 3357, Note_on_c, 1, 38, 99
3, 3359, Pitch_bend_c, 1, 7040
3, 3361, Pitch_bend_c, 1, 7264
3, 3363, Pitch_bend_c, 1, 7584
3, 3365, Pitch_bend_c, 1, 7872
3, 3367, Pitch_bend_c, 1, 8192
3, 3369, Pitch_bend_c, 1, 8608
3, 3371, Pitch_bend_c, 1, 8704
3, 3373, Pitch_bend_c, 1, 8768
3, 3379, Pitch_bend_c, 1, 8672
3, 3381, Pitch_bend_c, 1, 8608
3, 3383, Pitch_bend_c, 1, 8512
3, 3389, Pitch_bend_c, 1, 8416
3, 3393, Pitch_bend_c, 1, 8352
3, 3397, Pitch_bend_c, 1, 8288
3, 3413, Pitch_bend_c, 1, 8192
3, 3447, Note_on_c, 1, 38, 0
3, 3457, Note_on_c, 1, 37, 108
3, 3474, Note_on_c, 1, 37, 0
3, 3475, Pitch_bend_c, 1, 6688
3, 3475, Note_on_c, 1, 40, 100
3, 3477, Pitch_bend_c, 1, 6880
3, 3479, Pitch_bend_c, 1, 7168
3, 3481, Pitch_bend_c, 1, 7520
3, 3483, Pitch_bend_c, 1, 7712
3, 3485, Pitch_bend_c, 1, 8128
3, 3487, Pitch_bend_c, 1, 8512
3, 3489, Pitch_bend_c, 1, 8704
3, 3491, Pitch_bend_c, 1, 8832
3, 3497, Pitch_bend_c, 1, 8768
3, 3499, Pitch_bend_c, 1, 8704
3, 3503, Pitch_bend_c, 1, 8576
3, 3507, Pitch_bend_c, 1, 8512
3, 3509, Pitch_bend_c, 1, 8448
3, 3513, Pitch_bend_c, 1, 8352
3, 3517, Pitch_bend_c, 1, 8288
3, 3535, Pitch_bend_c, 1, 8192
3, 3571, Note_on_c, 1, 40, 0
3, 3582, Note_on_c, 1, 38, 109
3, 3592, Note_on_c, 1, 38, 0
3, 3598, Pitch_bend_c, 1, 6656
3, 3598, Note_on_c, 1, 41, 102
3, 3600, Pitch_bend_c, 1, 6880
3, 3602, Pitch_bend_c, 1, 7136
3, 3604, Pitch_bend_c, 1, 7520
3, 3606, Pitch_bend_c, 1, 7840
3, 3608, Pitch_bend_c, 1, 8128
3, 3610, Pitch_bend_c, 1, 8512
3, 3612, Pitch_bend_c, 1, 8800
3, 3622, Pitch_bend_c, 1, 8672
3, 3624, Pitch_bend_c, 1, 8576
3, 3628, Pitch_bend_c, 1, 8512
3, 3630, Pitch_bend_c, 1, 8448
3, 3634, Pitch_bend_c, 1, 8352
3, 3640, Pitch_bend_c, 1, 8288
3, 3656, Pitch_bend_c, 1, 8192
3, 3690, Note_on_c, 1, 41, 0
3, 3700, Note_on_c, 1, 38, 108
3, 3708, Note_on_c, 1, 38, 0
3, 3717, Pitch_bend_c, 1, 6880
3, 3717, Note_on_c, 1, 42, 100
3, 3719, Pitch_bend_c, 1, 7040
3, 3721, Pitch_bend_c, 1, 7200
3, 3723, Pitch_bend_c, 1, 7488
3, 3725, Pitch_bend_c, 1, 7712
3, 3727, Pitch_bend_c, 1, 7904
3, 3729, Pitch_bend_c, 1, 8192
3, 3731, Pitch_bend_c, 1, 8480
3, 3733, Pitch_bend_c, 1, 8704
3, 3735, Pitch_bend_c, 1, 8768
3, 3743, Pitch_bend_c, 1, 8640
3, 3749, Pitch_bend_c, 1, 8512
3, 3755, Pitch_bend_c, 1, 8416
3, 3759, Pitch_bend_c, 1, 8320
3, 3783, Pitch_bend_c, 1, 8192
3, 3824, Note_on_c, 1, 42, 0
3, 3838, Pitch_bend_c, 1, 6688
3, 3838, Note_on_c, 1, 43, 101
3, 3840, Pitch_bend_c, 1, 6912
3, 3842, Pitch_bend_c, 1, 7040
3, 3844, Pitch_bend_c, 1, 7360
3, 3846, Pitch_bend_c, 1, 7648
3, 3848, Pitch_bend_c, 1, 7840
3, 3850, Pitch_bend_c, 1, 8192
3, 3852, Pitch_bend_c, 1, 8512
3, 3854, Pitch_bend_c, 1, 8704
3, 3856, Pitch_bend_c, 1, 8832
3, 3864, Pitch_bend_c, 1, 8768
3, 3866, Pitch_bend_c, 1, 8640
3, 3870, Pitch_bend_c, 1, 8576
3, 3874, Pitch_bend_c, 1, 8512
3, 3876, Pitch_bend_c, 1, 8448
3, 3880, Pitch_bend_c, 1, 8352
3, 3886, Pitch_bend_c, 1, 8288
3, 3904, Pitch_bend_c, 1, 8192
3, 3946, Note_on_c, 1, 43, 0
3, 3959, Pitch_bend_c, 1, 3936
3, 3959, Note_on_c, 1, 38, 102
3, 3967, Pitch_bend_c, 1, 4096
3, 3971, Pitch_bend_c, 1, 4256
3, 3973, Pitch_bend_c, 1, 4480
3, 3975, Pitch_bend_c, 1, 4928
3, 3977, Pitch_bend_c, 1, 6080
3, 3979, Pitch_bend_c, 1, 6752
3, 3981, Pitch_bend_c, 1, 7200
3, 3983, Pitch_bend_c, 1, 7520
3, 3985, Pitch_bend_c, 1, 7808
3, 3987, Pitch_bend_c, 1, 7968
3, 3989, Pitch_bend_c, 1, 8032
3, 3991, Pitch_bend_c, 1, 8096
3, 4007, Pitch_bend_c, 1, 8192
3, 4080, Note_on_c, 1, 38, 0
3, 4080, Pitch_bend_c, 1, 4096
3, 4080, Note_on_c, 1, 31, 100
3, 4088, Pitch_bend_c, 1, 4224
3, 4090, Pitch_bend_c, 1, 4512
3, 4092, Pitch_bend_c, 1, 4800
3, 4094, Pitch_bend_c, 1, 5632
3, 4096, Pitch_bend_c, 1, 6496
3, 4098, Pitch_bend_c, 1, 7232
3, 4100, Pitch_bend_c, 1, 7680
3, 4102, Pitch_bend_c, 1, 7872
3, 4104, Pitch_bend_c, 1, 8032
3, 4106, Pitch_bend_c, 1, 8096
3, 4118, Pitch_bend_c, 1, 8192
3, 4178, Note_on_c, 1, 31, 0
3, 4178, Note_on_c, 1, 37, 107
3, 4188, Note_on_c, 1, 37, 0
3, 4202, Pitch_bend_c, 1, 6848
3, 4202, Note_on_c, 1, 38, 103
3, 4204, Pitch_bend_c, 1, 7168
3, 4206, Pitch_bend_c, 1, 7584
3, 4208, Pitch_bend_c, 1, 8128
3, 4210, Pitch_bend_c, 1, 8608
3, 4212, Pitch_bend_c, 1, 8768
3, 4216, Pitch_bend_c, 1, 8704
3, 4218, Pitch_bend_c, 1, 8608
3, 4220, Pitch_bend_c, 1, 8512
3, 4224, Pitch_bend_c, 1, 8416
3, 4226, Pitch_bend_c, 1, 8320
3, 4238, Pitch_bend_c, 1, 8192
3, 4261, Note_on_c, 1, 38, 0
3, 4265, Note_on_c, 1, 43, 100
3, 4320, Note_on_c, 1, 43, 0
3, 4320, Pitch_bend_c, 1, 6912
3, 4320, Note_on_c, 1, 42, 100
3, 4322, Pitch_bend_c, 1, 7104
3, 4324, Pitch_bend_c, 1, 7232
3, 4326, Pitch_bend_c, 1, 7488
3, 4328, Pitch_bend_c, 1, 7712
3, 4330, Pitch_bend_c, 1, 8032
3, 4332, Pitch_bend_c, 1, 8192
3, 4334, Pitch_bend_c, 1, 8576
3, 4336, Pitch_bend_c, 1, 8672
3, 4338, Pitch_bend_c, 1, 8736
3, 4344, Pitch_bend_c, 1, 8672
3, 4348, Pitch_bend_c, 1, 8576
3, 4350, Pitch_bend_c, 1, 8512
3, 4354, Pitch_bend_c, 1, 8448
3, 4362, Pitch_bend_c, 1, 8320
3, 4384, Pitch_bend_c, 1, 8192
3, 4425, Note_on_c, 1, 42, 0
3, 4438, Pitch_bend_c, 1, 4096
3, 4438, Note_on_c, 1, 38, 99
3, 4446, Pitch_bend_c, 1, 4224
3, 4448, Pitch_bend_c, 1, 4288
3, 4450, Pitch_bend_c, 1, 4512
3, 4452, Pitch_bend_c, 1, 4800
3, 4454, Pitch_bend_c, 1, 5312
3, 4456, Pitch_bend_c, 1, 6144
3, 4458, Pitch_bend_c, 1, 7008
3, 4460, Pitch_bend_c, 1, 7360
3, 4462, Pitch_bend_c, 1, 7680
3, 4464, Pitch_bend_c, 1, 7872
3, 4466, Pitch_bend_c, 1, 7968
3, 4468, Pitch_bend_c, 1, 8096
3, 4484, Pitch_bend_c, 1, 8192
3, 4554, Note_on_c, 1, 38, 0
3, 4554, Pitch_bend_c, 1, 4000
3, 4554, Note_on_c, 1, 30, 100
3, 4562, Pitch_bend_c, 1, 4128
3, 4564, Pitch_bend_c, 1, 4192
3, 4566, Pitch_bend_c, 1, 4512
3, 4568, Pitch_bend_c, 1, 4960
3, 4570, Pitch_bend_c, 1, 6112
3, 4572, Pitch_bend_c, 1, 6752
3, 4574, Pitch_bend_c, 1, 7232
3, 4576, Pitch_bend_c, 1, 7680
3, 4578, Pitch_bend_c, 1, 7872
3, 4580, Pitch_bend_c, 1, 8032
3, 4582, Pitch_bend_c, 1, 8096
3, 4596, Pitch_bend_c, 1, 8192
3, 4661, Note_on_c, 1, 30, 0
3, 4661, Note_on_c, 1, 38, 109
3, 4668, Note_on_c, 1, 38, 0
3, 4682, Note_on_c, 1, 42, 103
3, 4740, Note_on_c, 1, 42, 0
3, 4740, Pitch_bend_c, 1, 7040
3, 4740, Note_on_c, 1, 37, 100
3, 4742, Pitch_bend_c, 1, 7296
3, 4744, Pitch_bend_c, 1, 7680
3, 4746, Pitch_bend_c, 1, 8128
3, 4748, Pitch_bend_c, 1, 8544
3, 4750, Pitch_bend_c, 1, 8672
3, 4756, Pitch_bend_c, 1, 8544
3, 4758, Pitch_bend_c, 1, 8480
3, 4760, Pitch_bend_c, 1, 8384
3, 4764, Pitch_bend_c, 1, 8320
3, 4766, Pitch_bend_c, 1, 8256
3, 4776, Pitch_bend_c, 1, 8192
3, 4798, Note_on_c, 1, 37, 0
3, 4805, Pitch_bend_c, 1, 7040
3, 4805, Note_on_c, 1, 41, 103
3, 4807, Pitch_bend_c, 1, 7200
3, 4809, Pitch_bend_c, 1, 7328
3, 4811, Pitch_bend_c, 1, 7584
3, 4813, Pitch_bend_c, 1, 7776
3, 4815, Pitch_bend_c, 1, 8064
3, 4817, Pitch_bend_c, 1, 8192
3, 4819, Pitch_bend_c, 1, 8544
3, 4821, Pitch_bend_c, 1, 8640
3, 4831, Pitch_bend_c, 1, 8576
3, 4835, Pitch_bend_c, 1, 8480
3, 4839, Pitch_bend_c, 1, 8416
3, 4847, Pitch_bend_c, 1, 8320
3, 4851, Pitch_bend_c, 1, 8256
3, 4869, Pitch_bend_c, 1, 8192
3, 4910, Note_on_c, 1, 41, 0
3, 4919, Pitch_bend_c, 1, 4352
3, 4919, Note_on_c, 1, 35, 99
3, 4927, Pitch_bend_c, 1, 4480
3, 4929, Pitch_bend_c, 1, 4544
3, 4931, Pitch_bend_c, 1, 4736
3, 4933, Pitch_bend_c, 1, 5024
3, 4935, Pitch_bend_c, 1, 5504
3, 4937, Pitch_bend_c, 1, 6272
3, 4939, Pitch_bend_c, 1, 7104
3, 4941, Pitch_bend_c, 1, 7424
3, 4943, Pitch_bend_c, 1, 7712
3, 4945, Pitch_bend_c, 1, 7904
3, 4947, Pitch_bend_c, 1, 8000
3, 4949, Pitch_bend_c, 1, 8128
3, 4965, Pitch_bend_c, 1, 8192
3, 5035, Note_on_c, 1, 35, 0
3, 5035, Pitch_bend_c, 1, 6976
3, 5035, Note_on_c, 1, 38, 100
3, 5037, Pitch_bend_c, 1, 7136
3, 5039, Pitch_bend_c, 1, 7360
3, 5041, Pitch_bend_c, 1, 7648
3, 5043, Pitch_bend_c, 1, 7904
3, 5045, Pitch_bend_c, 1, 8192
3, 5047, Pitch_bend_c, 1, 8448
3, 5049, Pitch_bend_c, 1, 8672
3, 5059, Pitch_bend_c, 1, 8576
3, 5061, Pitch_bend_c, 1, 8480
3, 5067, Pitch_bend_c, 1, 8384
3, 5071, Pitch_bend_c, 1, 8320
3, 5091, Pitch_bend_c, 1, 8192
3, 5126, Note_on_c, 1, 38, 0
3, 5136, Note_on_c, 1, 31, 109
3, 5155, Note_on_c, 1, 31, 0
3, 5159, Pitch_bend_c, 1, 7040
3, 5159, Note_on_c, 1, 47, 102
3, 5161, Pitch_bend_c, 1, 7200
3, 5163, Pitch_bend_c, 1, 7392
3, 5165, Pitch_bend_c, 1, 7680
3, 5167, Pitch_bend_c, 1, 7936
3, 5169, Pitch_bend_c, 1, 8192
3, 5171, Pitch_bend_c, 1, 8544
3, 5173, Pitch_bend_c, 1, 8640
3, 5181, Pitch_bend_c, 1, 8576
3, 5185, Pitch_bend_c, 1, 8480
3, 5187, Pitch_bend_c, 1, 8416
3, 5193, Pitch_bend_c, 1, 8320
3, 5199, Pitch_bend_c, 1, 8256
3, 5213, Pitch_bend_c, 1, 8192
3, 5246, Note_on_c, 1, 47, 0
3, 5256, Note_on_c, 1, 35, 108
3, 5263, Note_on_c, 1, 35, 0
3, 5280, Pitch_bend_c, 1, 6848
3, 5280, Note_on_c, 1, 48, 100
3, 5282, Pitch_bend_c, 1, 7040
3, 5284, Pitch_bend_c, 1, 7168
3, 5286, Pitch_bend_c, 1, 7456
3, 5288, Pitch_bend_c, 1, 7712
3, 5290, Pitch_bend_c, 1, 8032
3, 5292, Pitch_bend_c, 1, 8192
3, 5294, Pitch_bend_c, 1, 8608
3, 5296, Pitch_bend_c, 1, 8704
3, 5298, Pitch_bend_c, 1, 8768
3, 5304, Pitch_bend_c, 1, 8704
3, 5308, Pitch_bend_c, 1, 8608
3, 5310, Pitch_bend_c, 1, 8512
3, 5316, Pitch_bend_c, 1, 8416
3, 5320, Pitch_bend_c, 1, 8352
3, 5326, Pitch_bend_c, 1, 8288
3, 5344, Pitch_bend_c, 1, 8192
3, 5384, Note_on_c, 1, 48, 0
3, 5396, Pitch_bend_c, 1, 4096
3, 5396, Note_on_c, 1, 43, 101
3, 5404, Pitch_bend_c, 1, 4224
3, 5408, Pitch_bend_c, 1, 4384
3, 5410, Pitch_bend_c, 1, 4800
3, 5412, Pitch_bend_c, 1, 5312
3, 5414, Pitch_bend_c, 1, 6144
3, 5416, Pitch_bend_c, 1, 6784
3, 5418, Pitch_bend_c, 1, 7232
3, 5420, Pitch_bend_c, 1, 7520
3, 5422, Pitch_bend_c, 1, 7808
3, 5424, Pitch_bend_c, 1, 7968
3, 5426, Pitch_bend_c, 1, 8096
3, 5442, Pitch_bend_c, 1, 8192
3, 5515, Note_on_c, 1, 43, 0
3, 5515, Pitch_bend_c, 1, 3936
3, 5515, Note_on_c, 1, 39, 102
3, 5521, Pitch_bend_c, 1, 4096
3, 5525, Pitch_bend_c, 1, 4384
3, 5527, Pitch_bend_c, 1, 4928
3, 5529, Pitch_bend_c, 1, 6080
3, 5531, Pitch_bend_c, 1, 6752
3, 5533, Pitch_bend_c, 1, 7328
3, 5535, Pitch_bend_c, 1, 7808
3, 5537, Pitch_bend_c, 1, 7968
3, 5539, Pitch_bend_c, 1, 8096
3, 5551, Pitch_bend_c, 1, 8192
3, 5609, Note_on_c, 1, 39, 0
3, 5609, Note_on_c, 1, 38, 105
3, 5621, Note_on_c, 1, 38, 0
3, 5633, Note_on_c, 1, 36, 100
3, 5690, Note_on_c, 1, 36, 0
3, 5690, Pitch_bend_c, 1, 6784
3, 5690, Note_on_c, 1, 35, 102
3, 5692, Pitch_bend_c, 1, 7136
3, 5694, Pitch_bend_c, 1, 7552
3, 5696, Pitch_bend_c, 1, 8128
3, 5698, Pitch_bend_c, 1, 8608
3, 5700, Pitch_bend_c, 1, 8800
3, 5704, Pitch_bend_c, 1, 8672
3, 5706, Pitch_bend_c, 1, 8608
3, 5708, Pitch_bend_c, 1, 8544
3, 5710, Pitch_bend_c, 1, 8416
3, 5712, Pitch_bend_c, 1, 8352
3, 5716, Pitch_bend_c, 1, 8288
3, 5726, Pitch_bend_c, 1, 8192
3, 5747, Note_on_c, 1, 35, 0
3, 5753, Pitch_bend_c, 1, 6848
3, 5753, Note_on_c, 1, 36, 103
3, 5755, Pitch_bend_c, 1, 7040
3, 5757, Pitch_bend_c, 1, 7264
3, 5759, Pitch_bend_c, 1, 7584
3, 5761, Pitch_bend_c, 1, 7872
3, 5763, Pitch_bend_c, 1, 8192
3, 5765, Pitch_bend_c, 1, 8608
3, 5767, Pitch_bend_c, 1, 8704
3, 5769, Pitch_bend_c, 1, 8768
3, 5773, Pitch_bend_c, 1, 8704
3, 5777, Pitch_bend_c, 1, 8608
3, 5779, Pitch_bend_c, 1, 8512
3, 5783, Pitch_bend_c, 1, 8416
3, 5787, Pitch_bend_c, 1, 8352
3, 5793, Pitch_bend_c, 1, 8288
3, 5807, Pitch_bend_c, 1, 8192
3, 5840, Note_on_c, 1, 36, 0
3, 5851, Note_on_c, 1, 35, 104
3, 5863, Note_on_c, 1, 35, 0
3, 5870, Pitch_bend_c, 1, 6944
3, 5870, Note_on_c, 1, 43, 100
3, 5872, Pitch_bend_c, 1, 7232
3, 5874, Pitch_bend_c, 1, 7744
3, 5876, Pitch_bend_c, 1, 8128
3, 5878, Pitch_bend_c, 1, 8608
3, 5880, Pitch_bend_c, 1, 8704
3, 5884, Pitch_bend_c, 1, 8608
3, 5886, Pitch_bend_c, 1, 8512
3, 5888, Pitch_bend_c, 1, 8448
3, 5890, Pitch_bend_c, 1, 8384
3, 5892, Pitch_bend_c, 1, 8320
3, 5904, Pitch_bend_c, 1, 8192
3, 5925, Note_on_c, 1, 43, 0
3, 5931, Pitch_bend_c, 1, 6912
3, 5931, Note_on_c, 1, 39, 100
3, 5933, Pitch_bend_c, 1, 7200
3, 5935, Pitch_bend_c, 1, 7712
3, 5937, Pitch_bend_c, 1, 8128
3, 5939, Pitch_bend_c, 1, 8640
3, 5941, Pitch_bend_c, 1, 8736
3, 5945, Pitch_bend_c, 1, 8640
3, 5947, Pitch_bend_c, 1, 8512
3, 5949, Pitch_bend_c, 1, 8448
3, 5953, Pitch_bend_c, 1, 8320
3, 5967, Pitch_bend_c, 1, 8192
3, 5987, Note_on_c, 1, 39, 0
3, 5992, Pitch_bend_c, 1, 6688
3, 5992, Note_on_c, 1, 45, 99
3, 5994, Pitch_bend_c, 1, 6880
3, 5996, Pitch_bend_c, 1, 7040
3, 5998, Pitch_bend_c, 1, 7232
3, 6000, Pitch_bend_c, 1, 7648
3, 6002, Pitch_bend_c, 1, 7840
3, 6004, Pitch_bend_c, 1, 8128
3, 6006, Pitch_bend_c, 1, 8512
3, 6008, Pitch_bend_c, 1, 8704
3, 6010, Pitch_bend_c, 1, 8768
3, 6012, Pitch_bend_c, 1, 8832
3, 6018, Pitch_bend_c, 1, 8768
3, 6020, Pitch_bend_c, 1, 8704
3, 6024, Pitch_bend_c, 1, 8576
3, 6028, Pitch_bend_c, 1, 8512
3, 6030, Pitch_bend_c, 1, 8448
3, 6036, Pitch_bend_c, 1, 8352
3, 6042, Pitch_bend_c, 1, 8288
3, 6060, Pitch_bend_c, 1, 8192
3, 6102, Note_on_c, 1, 45, 0
3, 6114, Pitch_bend_c, 1, 4032
3, 6114, Note_on_c, 1, 38, 102
3, 6122, Pitch_bend_c, 1, 4160
3, 6124, Pitch_bend_c, 1, 4448
3, 6126, Pitch_bend_c, 1, 4736
3, 6128, Pitch_bend_c, 1, 5600
3, 6130, Pitch_bend_c, 1, 6784
3, 6132, Pitch_bend_c, 1, 7232
3, 6134, Pitch_bend_c, 1, 7680
3, 6136, Pitch_bend_c, 1, 7968
3, 6138, Pitch_bend_c, 1, 8032
3, 6140, Pitch_bend_c, 1, 8096
3, 6152, Pitch_bend_c, 1, 8192
3, 6211, Note_on_c, 1, 38, 0
3, 6211, Note_on_c, 1, 45, 109
3, 6226, Note_on_c, 1, 45, 0
3, 6236, Pitch_bend_c, 1, 7040
3, 6236, Note_on_c, 1, 43, 103
3, 6238, Pitch_bend_c, 1, 7200
3, 6240, Pitch_bend_c, 1, 7328
3, 6242, Pitch_bend_c, 1, 7584
3, 6244, Pitch_bend_c, 1, 7776
3, 6246, Pitch_bend_c, 1, 7936
3, 6248, Pitch_bend_c, 1, 8192
3, 6250, Pitch_bend_c, 1, 8416
3, 6252, Pitch_bend_c, 1, 8640
3, 6262, Pitch_bend_c, 1, 8576
3, 6268, Pitch_bend_c, 1, 8480
3, 6272, Pitch_bend_c, 1, 8416
3, 6278, Pitch_bend_c, 1, 8320
3, 6284, Pitch_bend_c, 1, 8256
3, 6302, Pitch_bend_c, 1, 8192
3, 6343, Note_on_c, 1, 43, 0
3, 6356, Pitch_bend_c, 1, 4000
3, 6356, Note_on_c, 1, 38, 103
3, 6364, Pitch_bend_c, 1, 4128
3, 6368, Pitch_bend_c, 1, 4288
3, 6370, Pitch_bend_c, 1, 4512
3, 6372, Pitch_bend_c, 1, 4960
3, 6374, Pitch_bend_c, 1, 5568
3, 6376, Pitch_bend_c, 1, 6464
3, 6378, Pitch_bend_c, 1, 7232
3, 6380, Pitch_bend_c, 1, 7520
3, 6382, Pitch_bend_c, 1, 7808
3, 6384, Pitch_bend_c, 1, 7968
3, 6386, Pitch_bend_c, 1, 8032
3, 6388, Pitch_bend_c, 1, 8096
3, 6404, Pitch_bend_c, 1, 8192
3, 6478, Note_on_c, 1, 38, 0
3, 6478, Pitch_bend_c, 1, 6880
3, 6478, Note_on_c, 1, 33, 103
3, 6480, Pitch_bend_c, 1, 7200
3, 6482, Pitch_bend_c, 1, 7616
3, 6484, Pitch_bend_c, 1, 8128
3, 6486, Pitch_bend_c, 1, 8576
3, 6488, Pitch_bend_c, 1, 8736
3, 6494, Pitch_bend_c, 1, 8576
3, 6496, Pitch_bend_c, 1, 8512
3, 6498, Pitch_bend_c, 1, 8416
3, 6502, Pitch_bend_c, 1, 8320
3, 6514, Pitch_bend_c, 1, 8192
3, 6536, Note_on_c, 1, 33, 0
3, 6542, Pitch_bend_c, 1, 6880
3, 6542, Note_on_c, 1, 32, 99
3, 6544, Pitch_bend_c, 1, 7200
3, 6546, Pitch_bend_c, 1, 7712
3, 6548, Pitch_bend_c, 1, 8192
3, 6550, Pitch_bend_c, 1, 8640
3, 6552, Pitch_bend_c, 1, 8768
3, 6556, Pitch_bend_c, 1, 8608
3, 6558, Pitch_bend_c, 1, 8512
3, 6562, Pitch_bend_c, 1, 8416
3, 6564, Pitch_bend_c, 1, 8320
3, 6576, Pitch_bend_c, 1, 8192
3, 6596, Note_on_c, 1, 32, 0
3, 6602, Pitch_bend_c, 1, 6816
3, 6602, Note_on_c, 1, 31, 102
3, 6604, Pitch_bend_c, 1, 7136
3, 6606, Pitch_bend_c, 1, 7584
3, 6608, Pitch_bend_c, 1, 8128
3, 6610, Pitch_bend_c, 1, 8608
3, 6612, Pitch_bend_c, 1, 8768
3, 6616, Pitch_bend_c, 1, 8672
3, 6618, Pitch_bend_c, 1, 8608
3, 6620, Pitch_bend_c, 1, 8544
3, 6622, Pitch_bend_c, 1, 8416
3, 6624, Pitch_bend_c, 1, 8352
3, 6628, Pitch_bend_c, 1, 8288
3, 6638, Pitch_bend_c, 1, 8192
3, 6659, Note_on_c, 1, 31, 0
3, 6664, Note_on_c, 1, 43, 110
3, 6703, Note_on_c, 1, 43, 0
3, 6723, Pitch_bend_c, 1, 6944
3, 6723, Note_on_c, 1, 44, 103
3, 6725, Pitch_bend_c, 1, 7136
3, 6727, Pitch_bend_c, 1, 7232
3, 6729, Pitch_bend_c, 1, 7520
3, 6731, Pitch_bend_c, 1, 7744
3, 6733, Pitch_bend_c, 1, 8032
3, 6735, Pitch_bend_c, 1, 8192
3, 6737, Pitch_bend_c, 1, 8448
3, 6739, Pitch_bend_c, 1, 8672
3, 6749, Pitch_bend_c, 1, 8608
3, 6753, Pitch_bend_c, 1, 8512
3, 6757, Pitch_bend_c, 1, 8448
3, 6761, Pitch_bend_c, 1, 8384
3, 6765, Pitch_bend_c, 1, 8320
3, 6789, Pitch_bend_c, 1, 8192
3, 6829, Note_on_c, 1, 44, 0
3, 6840, Pitch_bend_c, 1, 4224
3, 6840, Note_on_c, 1, 32, 100
3, 6848, Pitch_bend_c, 1, 4352
3, 6850, Pitch_bend_c, 1, 4416
3, 6852, Pitch_bend_c, 1, 4640
3, 6854, Pitch_bend_c, 1, 4928
3, 6856, Pitch_bend_c, 1, 5408
3, 6858, Pitch_bend_c, 1, 6560
3, 6860, Pitch_bend_c, 1, 7072
3, 6862, Pitch_bend_c, 1, 7392
3, 6864, Pitch_bend_c, 1, 7712
3, 6866, Pitch_bend_c, 1, 7904
3, 6868, Pitch_bend_c, 1, 8064
3, 6870, Pitch_bend_c, 1, 8128
3, 6886, Pitch_bend_c, 1, 8192
3, 6955, Note_on_c, 1, 32, 0
3, 6955, Pitch_bend_c, 1, 6848
3, 6955, Note_on_c, 1, 42, 99
3, 6957, Pitch_bend_c, 1, 7104
3, 6959, Pitch_bend_c, 1, 7360
3, 6961, Pitch_bend_c, 1, 7712
3, 6963, Pitch_bend_c, 1, 8032
3, 6965, Pitch_bend_c, 1, 8320
3, 6967, Pitch_bend_c, 1, 8640
3, 6969, Pitch_bend_c, 1, 8768
3, 6975, Pitch_bend_c, 1, 8640
3, 6979, Pitch_bend_c, 1, 8512
3, 6983, Pitch_bend_c, 1, 8416
3, 6987, Pitch_bend_c, 1, 8320
3, 7005, Pitch_bend_c, 1, 8192
3, 7036, Note_on_c, 1, 42, 0
3, 7046, Note_on_c, 1, 34, 104
3, 7066, Note_on_c, 1, 34, 0
3, 7071, Pitch_bend_c, 1, 7008
3, 7071, Note_on_c, 1, 38, 100
3, 7073, Pitch_bend_c, 1, 7296
3, 7075, Pitch_bend_c, 1, 7744
3, 7077, Pitch_bend_c, 1, 8128
3, 7079, Pitch_bend_c, 1, 8608
3, 7081, Pitch_bend_c, 1, 8704
3, 7085, Pitch_bend_c, 1, 8608
3, 7087, Pitch_bend_c, 1, 8480
3, 7091, Pitch_bend_c, 1, 8384
3, 7093, Pitch_bend_c, 1, 8320
3, 7097, Pitch_bend_c, 1, 8256
3, 7105, Pitch_bend_c, 1, 8192
3, 7126, Note_on_c, 1, 38, 0
3, 7131, Note_on_c, 1, 45, 105
3, 7155, Note_on_c, 1, 45, 0
3, 7191, Pitch_bend_c, 1, 7136
3, 7191, Note_on_c, 1, 43, 102
3, 7193, Pitch_bend_c, 1, 7296
3, 7195, Pitch_bend_c, 1, 7488
3, 7197, Pitch_bend_c, 1, 7744
3, 7199, Pitch_bend_c, 1, 7968
3, 7201, Pitch_bend_c, 1, 8192
3, 7203, Pitch_bend_c, 1, 8512
3, 7205, Pitch_bend_c, 1, 8608
3, 7213, Pitch_bend_c, 1, 8544
3, 7217, Pitch_bend_c, 1, 8448
3, 7221, Pitch_bend_c, 1, 8352
3, 7225, Pitch_bend_c, 1, 8288
3, 7245, Pitch_bend_c, 1, 8192
3, 7278, Note_on_c, 1, 43, 0
3, 7287, Note_on_c, 1, 34, 108
3, 7307, Note_on_c, 1, 34, 0
3, 7313, Pitch_bend_c, 1, 6912
3, 7313, Note_on_c, 1, 38, 100
3, 7315, Pitch_bend_c, 1, 7072
3, 7317, Pitch_bend_c, 1, 7200
3, 7319, Pitch_bend_c, 1, 7488
3, 7321, Pitch_bend_c, 1, 7712
3, 7323, Pitch_bend_c, 1, 7904
3, 7325, Pitch_bend_c, 1, 8192
3, 7327, Pitch_bend_c, 1, 8448
3, 7329, Pitch_bend_c, 1, 8640
3, 7331, Pitch_bend_c, 1, 8736
3, 7341, Pitch_bend_c, 1, 8576
3, 7345, Pitch_bend_c, 1, 8512
3, 7349, Pitch_bend_c, 1, 8448
3, 7355, Pitch_bend_c, 1, 8320
3, 7379, Pitch_bend_c, 1, 8192
3, 7421, Note_on_c, 1, 38, 0
3, 7435, Pitch_bend_c, 1, 4288
3, 7435, Note_on_c, 1, 31, 101
3, 7443, Pitch_bend_c, 1, 4384
3, 7445, Pitch_bend_c, 1, 4544
3, 7447, Pitch_bend_c, 1, 4960
3, 7449, Pitch_bend_c, 1, 5440
3, 7451, Pitch_bend_c, 1, 6592
3, 7453, Pitch_bend_c, 1, 7072
3, 7455, Pitch_bend_c, 1, 7552
3, 7457, Pitch_bend_c, 1, 7840
3, 7459, Pitch_bend_c, 1, 8000
3, 7461, Pitch_bend_c, 1, 8128
3, 7475, Pitch_bend_c, 1, 8192
3, 7536, Note_on_c, 1, 31, 0
3, 7536, Note_on_c, 1, 34, 107
3, 7550, Note_on_c, 1, 34, 0
3, 7558, Note_on_c, 1, 38, 102
3, 7617, Note_on_c, 1, 38, 0
3, 7617, Pitch_bend_c, 1, 7136
3, 7617, Note_on_c, 1, 44, 103
3, 7619, Pitch_bend_c, 1, 7392
3, 7621, Pitch_bend_c, 1, 7808
3, 7623, Pitch_bend_c, 1, 8192
3, 7625, Pitch_bend_c, 1, 8544
3, 7627, Pitch_bend_c, 1, 8640
3, 7631, Pitch_bend_c, 1, 8544
3, 7633, Pitch_bend_c, 1, 8448
3, 7637, Pitch_bend_c, 1, 8352
3, 7639, Pitch_bend_c, 1, 8288
3, 7651, Pitch_bend_c, 1, 8192
3, 7672, Note_on_c, 1, 44, 0
3, 7677, Pitch_bend_c, 1, 6688
3, 7677, Note_on_c, 1, 43, 100
3, 7679, Pitch_bend_c, 1, 6912
3, 7681, Pitch_bend_c, 1, 7040
3, 7683, Pitch_bend_c, 1, 7264
3, 7685, Pitch_bend_c, 1, 7648
3, 7687, Pitch_bend_c, 1, 7840
3, 7689, Pitch_bend_c, 1, 8128
3, 7691, Pitch_bend_c, 1, 8352
3, 7693, Pitch_bend_c, 1, 8704
3, 7695, Pitch_bend_c, 1, 8768
3, 7697, Pitch_bend_c, 1, 8832
3, 7703, Pitch_bend_c, 1, 8768
3, 7705, Pitch_bend_c, 1, 8704
3, 7707, Pitch_bend_c, 1, 8640
3, 7709, Pitch_bend_c, 1, 8576
3, 7715, Pitch_bend_c, 1, 8512
3, 7717, Pitch_bend_c, 1, 8448
3, 7721, Pitch_bend_c, 1, 8352
3, 7727, Pitch_bend_c, 1, 8288
3, 7747, Pitch_bend_c, 1, 8192
3, 7790, Note_on_c, 1, 43, 0
3, 7801, Pitch_bend_c, 1, 4064
3, 7801, Note_on_c, 1, 38, 103
3, 7809, Pitch_bend_c, 1, 4192
3, 7811, Pitch_bend_c, 1, 4256
3, 7813, Pitch_bend_c, 1, 4480
3, 7815, Pitch_bend_c, 1, 4768
3, 7817, Pitch_bend_c, 1, 5312
3, 7819, Pitch_bend_c, 1, 6496
3, 7821, Pitch_bend_c, 1, 7008
3, 7823, Pitch_bend_c, 1, 7360
3, 7825, Pitch_bend_c, 1, 7680
3, 7827, Pitch_bend_c, 1, 7872
3, 7829, Pitch_bend_c, 1, 8032
3, 7831, Pitch_bend_c, 1, 8096
3, 7847, Pitch_bend_c, 1, 8192
3, 7916, Note_on_c, 1, 38, 0
3, 7916, Pitch_bend_c, 1, 4320
3, 7916, Note_on_c, 1, 32, 100
3, 7924, Pitch_bend_c, 1, 4448
3, 7928, Pitch_bend_c, 1, 4576
3, 7930, Pitch_bend_c, 1, 4800
3, 7932, Pitch_bend_c, 1, 5184
3, 7934, Pitch_bend_c, 1, 5760
3, 7936, Pitch_bend_c, 1, 6592
3, 7938, Pitch_bend_c, 1, 7072
3, 7940, Pitch_bend_c, 1, 7424
3, 7942, Pitch_bend_c, 1, 7840
3, 7944, Pitch_bend_c, 1, 8000
3, 7946, Pitch_bend_c, 1, 8064
3, 7948, Pitch_bend_c, 1, 8128
3, 7964, Pitch_bend_c, 1, 8192
3, 8039, Note_on_c, 1, 32, 0
3, 8039, Note_on_c, 1, 31, 99
3, 8098, Note_on_c, 1, 31, 0
3, 8098, Note_on_c, 1, 35, 102
3, 8157, Note_on_c, 1, 35, 0
3, 8157, Pitch_bend_c, 1, 6880
3, 8157, Note_on_c, 1, 36, 100
3, 8159, Pitch_bend_c, 1, 7072
3, 8161, Pitch_bend_c, 1, 7296
3, 8163, Pitch_bend_c, 1, 7616
3, 8165, Pitch_bend_c, 1, 7904
3, 8167, Pitch_bend_c, 1, 8192
3, 8169, Pitch_bend_c, 1, 8576
3, 8171, Pitch_bend_c, 1, 8704
3, 8179, Pitch_bend_c, 1, 8640
3, 8181, Pitch_bend_c, 1, 8576
3, 8183, Pitch_bend_c, 1, 8512
3, 8187, Pitch_bend_c, 1, 8448
3, 8191, Pitch_bend_c, 1, 8320
3, 8211, Pitch_bend_c, 1, 8192
3, 8245, Note_on_c, 1, 36, 0
3, 8254, Note_on_c, 1, 34, 109
3, 8273, Note_on_c, 1, 34, 0
3, 8274, Pitch_bend_c, 1, 6944
3, 8274, Note_on_c, 1, 38, 102
3, 8276, Pitch_bend_c, 1, 7136
3, 8278, Pitch_bend_c, 1, 7232
3, 8280, Pitch_bend_c, 1, 7520
3, 8282, Pitch_bend_c, 1, 7744
3, 8284, Pitch_bend_c, 1, 7904
3, 8286, Pitch_bend_c, 1, 8192
3, 8288, Pitch_bend_c, 1, 8448
3, 8290, Pitch_bend_c, 1, 8608
3, 8292, Pitch_bend_c, 1, 8704
3, 8302, Pitch_bend_c, 1, 8576
3, 8306, Pitch_bend_c, 1, 8512
3, 8310, Pitch_bend_c, 1, 8448
3, 8312, Pitch_bend_c, 1, 8384
3, 8316, Pitch_bend_c, 1, 8320
3, 8340, Pitch_bend_c, 1, 8192
3, 8382, Note_on_c, 1, 38, 0
3, 8393, Pitch_bend_c, 1, 7136
3, 8393, Note_on_c, 1, 39, 103
3, 8395, Pitch_bend_c, 1, 7264
3, 8397, Pitch_bend_c, 1, 7392
3, 8399, Pitch_bend_c, 1, 7616
3, 8401, Pitch_bend_c, 1, 7808
3, 8403, Pitch_bend_c, 1, 7968
3, 8405, Pitch_bend_c, 1, 8192
3, 8407, Pitch_bend_c, 1, 8416
3, 8409, Pitch_bend_c, 1, 8544
3, 8411, Pitch_bend_c, 1, 8640
3, 8421, Pitch_bend_c, 1, 8544
3, 8425, Pitch_bend_c, 1, 8448
3, 8431, Pitch_bend_c, 1, 8352
3, 8435, Pitch_bend_c, 1, 8288
3, 8461, Pitch_bend_c, 1, 8192
3, 8502, Note_on_c, 1, 39, 0
3, 8515, Note_on_c, 1, 43, 103
3, 8572, Note_on_c, 1, 43, 0
3, 8572, Note_on_c, 1, 39, 105
3, 8605, Note_on_c, 1, 39, 0
3, 8633, Pitch_bend_c, 1, 6816
3, 8633, Note_on_c, 1, 45, 103
3, 8635, Pitch_bend_c, 1, 7008
3, 8637, Pitch_bend_c, 1, 7136
3, 8639, Pitch_bend_c, 1, 7328
3, 8641, Pitch_bend_c, 1, 7680
3, 8643, Pitch_bend_c, 1, 7872
3, 8645, Pitch_bend_c, 1, 8128
3, 8647, Pitch_bend_c, 1, 8480
3, 8649, Pitch_bend_c, 1, 8672
3, 8651, Pitch_bend_c, 1, 8736
3, 8661, Pitch_bend_c, 1, 8672
3, 8663, Pitch_bend_c, 1, 8608
3, 8665, Pitch_bend_c, 1, 8544
3, 8669, Pitch_bend_c, 1, 8480
3, 8671, Pitch_bend_c, 1, 8416
3, 8677, Pitch_bend_c, 1, 8352
3, 8683, Pitch_bend_c, 1, 8288
3, 8701, Pitch_bend_c, 1, 8192
3, 8743, Note_on_c, 1, 45, 0
3, 8754, Pitch_bend_c, 1, 4288
3, 8754, Note_on_c, 1, 40, 102
3, 8762, Pitch_bend_c, 1, 4384
3, 8766, Pitch_bend_c, 1, 4544
3, 8768, Pitch_bend_c, 1, 4768
3, 8770, Pitch_bend_c, 1, 5152
3, 8772, Pitch_bend_c, 1, 6240
3, 8774, Pitch_bend_c, 1, 6848
3, 8776, Pitch_bend_c, 1, 7296
3, 8778, Pitch_bend_c, 1, 7552
3, 8780, Pitch_bend_c, 1, 7840
3, 8782, Pitch_bend_c, 1, 8000
3, 8784, Pitch_bend_c, 1, 8064
3, 8786, Pitch_bend_c, 1, 8128
3, 8802, Pitch_bend_c, 1, 8192
3, 8875, Note_on_c, 1, 40, 0
3, 8875, Pitch_bend_c, 1, 4224
3, 8875, Note_on_c, 1, 34, 103
3, 8883, Pitch_bend_c, 1, 4352
3, 8887, Pitch_bend_c, 1, 4512
3, 8889, Pitch_bend_c, 1, 4736
3, 8891, Pitch_bend_c, 1, 5408
3, 8893, Pitch_bend_c, 1, 6208
3, 8895, Pitch_bend_c, 1, 6848
3, 8897, Pitch_bend_c, 1, 7264
3, 8899, Pitch_bend_c, 1, 7552
3, 8901, Pitch_bend_c, 1, 7840
3, 8903, Pitch_bend_c, 1, 8000
3, 8905, Pitch_bend_c, 1, 8128
3, 8921, Pitch_bend_c, 1, 8192
3, 8995, Note_on_c, 1, 34, 0
3, 8995, Note_on_c, 1, 33, 103
3, 9053, Note_on_c, 1, 33, 0
3, 9053, Note_on_c, 1, 37, 105
3, 9073, Note_on_c, 1, 37, 0
3, 9120, Note_on_c, 1, 40, 108
3, 9122, Note_on_c, 1, 40, 0
3, 9122, Note_on_c, 1, 38, 109
3, 9128, Note_on_c, 1, 38, 0
3, 9237, Pitch_bend_c, 1, 6880
3, 9237, Note_on_c, 1, 45, 102
3, 9239, Pitch_bend_c, 1, 7104
3, 9241, Pitch_bend_c, 1, 7360
3, 9243, Pitch_bend_c, 1, 7712
3, 9245, Pitch_bend_c, 1, 8032
3, 9247, Pitch_bend_c, 1, 8320
3, 9249, Pitch_bend_c, 1, 8640
3, 9251, Pitch_bend_c, 1, 8768
3, 9257, Pitch_bend_c, 1, 8704
3, 9259, Pitch_bend_c, 1, 8608
3, 9261, Pitch_bend_c, 1, 8512
3, 9267, Pitch_bend_c, 1, 8416
3, 9271, Pitch_bend_c, 1, 8320
3, 9289, Pitch_bend_c, 1, 8192
3, 9321, Note_on_c, 1, 45, 0
3, 9329, Note_on_c, 1, 38, 109
3, 9334, Note_on_c, 1, 38, 0
3, 9354, Pitch_bend_c, 1, 6944
3, 9354, Note_on_c, 1, 50, 102
3, 9356, Pitch_bend_c, 1, 7104
3, 9358, Pitch_bend_c, 1, 7232
3, 9360, Pitch_bend_c, 1, 7424
3, 9362, Pitch_bend_c, 1, 7648
3, 9364, Pitch_bend_c, 1, 7904
3, 9366, Pitch_bend_c, 1, 8128
3, 9368, Pitch_bend_c, 1, 8320
3, 9370, Pitch_bend_c, 1, 8576
3, 9372, Pitch_bend_c, 1, 8672
3, 9374, Pitch_bend_c, 1, 8736
3, 9382, Pitch_bend_c, 1, 8640
3, 9384, Pitch_bend_c, 1, 8576
3, 9388, Pitch_bend_c, 1, 8512
3, 9392, Pitch_bend_c, 1, 8448
3, 9400, Pitch_bend_c, 1, 8320
3, 9426, Pitch_bend_c, 1, 8192
3, 9469, Note_on_c, 1, 50, 0
3, 9482, Note_on_c, 1, 38, 103
3, 9538, Note_on_c, 1, 38, 0
3, 9538, Note_on_c, 1, 45, 104
3, 9554, Note_on_c, 1, 45, 0
3, 9597, Pitch_bend_c, 1, 6688
3, 9597, Note_on_c, 1, 43, 100
3, 9599, Pitch_bend_c, 1, 6880
3, 9601, Pitch_bend_c, 1, 7040
3, 9603, Pitch_bend_c, 1, 7232
3, 9605, Pitch_bend_c, 1, 7648
3, 9607, Pitch_bend_c, 1, 7840
3, 9609, Pitch_bend_c, 1, 8128
3, 9611, Pitch_bend_c, 1, 8512
3, 9613, Pitch_bend_c, 1, 8704
3, 9615, Pitch_bend_c, 1, 8768
3, 9617, Pitch_bend_c, 1, 8832
3, 9623, Pitch_bend_c, 1, 8768
3, 9625, Pitch_bend_c, 1, 8704
3, 9629, Pitch_bend_c, 1, 8576
3, 9633, Pitch_bend_c, 1, 8512
3, 9637, Pitch_bend_c, 1, 8448
3, 9641, Pitch_bend_c, 1, 8352
3, 9647, Pitch_bend_c, 1, 8288
3, 9665, Pitch_bend_c, 1, 8192
3, 9708, Note_on_c, 1, 43, 0
3, 9717, Pitch_bend_c, 1, 4192
3, 9717, Note_on_c, 1, 38, 99
3, 9725, Pitch_bend_c, 1, 4320
3, 9729, Pitch_bend_c, 1, 4480
3, 9731, Pitch_bend_c, 1, 4704
3, 9733, Pitch_bend_c, 1, 5088
3, 9735, Pitch_bend_c, 1, 5696
3, 9737, Pitch_bend_c, 1, 6560
3, 9739, Pitch_bend_c, 1, 7264
3, 9741, Pitch_bend_c, 1, 7552
3, 9743, Pitch_bend_c, 1, 7840
3, 9745, Pitch_bend_c, 1, 8000
3, 9747, Pitch_bend_c, 1, 8064
3, 9749, Pitch_bend_c, 1, 8128
3, 9765, Pitch_bend_c, 1, 8192
3, 9839, Note_on_c, 1, 38, 0
3, 9839, Pitch_bend_c, 1, 4320
3, 9839, Note_on_c, 1, 31, 100
3, 9847, Pitch_bend_c, 1, 4448
3, 9851, Pitch_bend_c, 1, 4576
3, 9853, Pitch_bend_c, 1, 4800
3, 9855, Pitch_bend_c, 1, 5184
3, 9857, Pitch_bend_c, 1, 5760
3, 9859, Pitch_bend_c, 1, 6592
3, 9861, Pitch_bend_c, 1, 7072
3, 9863, Pitch_bend_c, 1, 7424
3, 9865, Pitch_bend_c, 1, 7712
3, 9867, Pitch_bend_c, 1, 7904
3, 9869, Pitch_bend_c, 1, 8000
3, 9871, Pitch_bend_c, 1, 8128
3, 9887, Pitch_bend_c, 1, 8192
3, 9964, Note_on_c, 1, 31, 0
3, 9964, Pitch_bend_c, 1, 6656
3, 9964, Note_on_c, 1, 38, 103
3, 9966, Pitch_bend_c, 1, 6880
3, 9968, Pitch_bend_c, 1, 7136
3, 9970, Pitch_bend_c, 1, 7360
3, 9972, Pitch_bend_c, 1, 7712
3, 9974, Pitch_bend_c, 1, 8128
3, 9976, Pitch_bend_c, 1, 8352
3, 9978, Pitch_bend_c, 1, 8736
3, 9980, Pitch_bend_c, 1, 8832
3, 9988, Pitch_bend_c, 1, 8736
3, 9990, Pitch_bend_c, 1, 8672
3, 9992, Pitch_bend_c, 1, 8576
3, 9996, Pitch_bend_c, 1, 8512
3, 9998, Pitch_bend_c, 1, 8448
3, 10002, Pitch_bend_c, 1, 8352
3, 10008, Pitch_bend_c, 1, 8288
3, 10024, Pitch_bend_c, 1, 8192
3, 10061, Note_on_c, 1, 38, 0
3, 10070, Note_on_c, 1, 38, 105
3, 10082, Note_on_c, 1, 38, 0
3, 10086, Pitch_bend_c, 1, 6784
3, 10086, Note_on_c, 1, 42, 103
3, 10088, Pitch_bend_c, 1, 6976
3, 10090, Pitch_bend_c, 1, 7136
3, 10092, Pitch_bend_c, 1, 7424
3, 10094, Pitch_bend_c, 1, 7680
3, 10096, Pitch_bend_c, 1, 8000
3, 10098, Pitch_bend_c, 1, 8192
3, 10100, Pitch_bend_c, 1, 8608
3, 10102, Pitch_bend_c, 1, 8736
3, 10104, Pitch_bend_c, 1, 8800
3, 10110, Pitch_bend_c, 1, 8736
3, 10112, Pitch_bend_c, 1, 8672
3, 10114, Pitch_bend_c, 1, 8608
3, 10116, Pitch_bend_c, 1, 8544
3, 10120, Pitch_bend_c, 1, 8480
3, 10122, Pitch_bend_c, 1, 8416
3, 10126, Pitch_bend_c, 1, 8352
3, 10132, Pitch_bend_c, 1, 8288
3, 10150, Pitch_bend_c, 1, 8192
3, 10189, Note_on_c, 1, 42, 0
3, 10198, Pitch_bend_c, 1, 4000
3, 10198, Note_on_c, 1, 38, 99
3, 10206, Pitch_bend_c, 1, 4128
3, 10208, Pitch_bend_c, 1, 4288
3, 10210, Pitch_bend_c, 1, 4704
3, 10212, Pitch_bend_c, 1, 5248
3, 10214, Pitch_bend_c, 1, 6464
3, 10216, Pitch_bend_c, 1, 6976
3, 10218, Pitch_bend_c, 1, 7520
3, 10220, Pitch_bend_c, 1, 7808
3, 10222, Pitch_bend_c, 1, 7968
3, 10224, Pitch_bend_c, 1, 8096
3, 10238, Pitch_bend_c, 1, 8192
3, 10299, Note_on_c, 1, 38, 0
3, 10299, Note_on_c, 1, 36, 108
3, 10309, Note_on_c, 1, 36, 0
3, 10320, Pitch_bend_c, 1, 6688
3, 10320, Note_on_c, 1, 30, 100
3, 10322, Pitch_bend_c, 1, 6912
3, 10324, Pitch_bend_c, 1, 7168
3, 10326, Pitch_bend_c, 1, 7520
3, 10328, Pitch_bend_c, 1, 7840
3, 10330, Pitch_bend_c, 1, 8192
3, 10332, Pitch_bend_c, 1, 8640
3, 10334, Pitch_bend_c, 1, 8768
3, 10336, Pitch_bend_c, 1, 8832
3, 10342, Pitch_bend_c, 1, 8704
3, 10344, Pitch_bend_c, 1, 8640
3, 10346, Pitch_bend_c, 1, 8576
3, 10350, Pitch_bend_c, 1, 8512
3, 10352, Pitch_bend_c, 1, 8448
3, 10356, Pitch_bend_c, 1, 8352
3, 10360, Pitch_bend_c, 1, 8288
3, 10376, Pitch_bend_c, 1, 8192
3, 10410, Note_on_c, 1, 30, 0
3, 10421, Note_on_c, 1, 36, 109
3, 10427, Note_on_c, 1, 36, 0
3, 10437, Pitch_bend_c, 1, 6816
3, 10437, Note_on_c, 1, 42, 102
3, 10439, Pitch_bend_c, 1, 7136
3, 10441, Pitch_bend_c, 1, 7680
3, 10443, Pitch_bend_c, 1, 8128
3, 10445, Pitch_bend_c, 1, 8672
3, 10447, Pitch_bend_c, 1, 8768
3, 10451, Pitch_bend_c, 1, 8672
3, 10453, Pitch_bend_c, 1, 8544
3, 10455, Pitch_bend_c, 1, 8480
3, 10457, Pitch_bend_c, 1, 8416
3, 10459, Pitch_bend_c, 1, 8352
3, 10463, Pitch_bend_c, 1, 8288
3, 10473, Pitch_bend_c, 1, 8192
3, 10493, Note_on_c, 1, 42, 0
3, 10498, Note_on_c, 1, 39, 108
3, 10520, Note_on_c, 1, 39, 0
3, 10555, Pitch_bend_c, 1, 6720
3, 10555, Note_on_c, 1, 31, 100
3, 10557, Pitch_bend_c, 1, 6912
3, 10559, Pitch_bend_c, 1, 7072
3, 10561, Pitch_bend_c, 1, 7392
3, 10563, Pitch_bend_c, 1, 7648
3, 10565, Pitch_bend_c, 1, 7840
3, 10567, Pitch_bend_c, 1, 8192
3, 10569, Pitch_bend_c, 1, 8512
3, 10571, Pitch_bend_c, 1, 8704
3, 10573, Pitch_bend_c, 1, 8832
3, 10581, Pitch_bend_c, 1, 8768
3, 10583, Pitch_bend_c, 1, 8704
3, 10585, Pitch_bend_c, 1, 8640
3, 10587, Pitch_bend_c, 1, 8544
3, 10593, Pitch_bend_c, 1, 8448
3, 10597, Pitch_bend_c, 1, 8352
3, 10603, Pitch_bend_c, 1, 8288
3, 10623, Pitch_bend_c, 1, 8192
3, 10664, Note_on_c, 1, 31, 0
3, 10674, Pitch_bend_c, 1, 7008
3, 10674, Note_on_c, 1, 35, 100
3, 10676, Pitch_bend_c, 1, 7168
3, 10678, Pitch_bend_c, 1, 7296
3, 10680, Pitch_bend_c, 1, 7456
3, 10682, Pitch_bend_c, 1, 7744
3, 10684, Pitch_bend_c, 1, 7936
3, 10686, Pitch_bend_c, 1, 8128
3, 10688, Pitch_bend_c, 1, 8448
3, 10690, Pitch_bend_c, 1, 8608
3, 10694, Pitch_bend_c, 1, 8704
3, 10700, Pitch_bend_c, 1, 8640
3, 10704, Pitch_bend_c, 1, 8544
3, 10706, Pitch_bend_c, 1, 8480
3, 10714, Pitch_bend_c, 1, 8384
3, 10718, Pitch_bend_c, 1, 8320
3, 10724, Pitch_bend_c, 1, 8256
3, 10742, Pitch_bend_c, 1, 8192
3, 10785, Note_on_c, 1, 35, 0
3, 10797, Pitch_bend_c, 1, 6944
3, 10797, Note_on_c, 1, 41, 102
3, 10799, Pitch_bend_c, 1, 7136
3, 10801, Pitch_bend_c, 1, 7360
3, 10803, Pitch_bend_c, 1, 7648
3, 10805, Pitch_bend_c, 1, 7904
3, 10807, Pitch_bend_c, 1, 8128
3, 10809, Pitch_bend_c, 1, 8448
3, 10811, Pitch_bend_c, 1, 8672
3, 10821, Pitch_bend_c, 1, 8576
3, 10823, Pitch_bend_c, 1, 8512
3, 10827, Pitch_bend_c, 1, 8448
3, 10829, Pitch_bend_c, 1, 8384
3, 10833, Pitch_bend_c, 1, 8320
3, 10855, Pitch_bend_c, 1, 8192
3, 10889, Note_on_c, 1, 41, 0
3, 10896, Note_on_c, 1, 38, 104
3, 10907, Note_on_c, 1, 38, 0
3, 10920, Note_on_c, 1, 35, 102
3, 10976, Note_on_c, 1, 35, 0
3, 10976, Note_on_c, 1, 35, 102
3, 11035, Note_on_c, 1, 35, 0
3, 11035, Pitch_bend_c, 1, 7008
3, 11035, Note_on_c, 1, 36, 103
3, 11037, Pitch_bend_c, 1, 7168
3, 11039, Pitch_bend_c, 1, 7296
3, 11041, Pitch_bend_c, 1, 7552
3, 11043, Pitch_bend_c, 1, 7744
3, 11045, Pitch_bend_c, 1, 8032
3, 11047, Pitch_bend_c, 1, 8192
3, 11049, Pitch_bend_c, 1, 8448
3, 11051, Pitch_bend_c, 1, 8640
3, 11053, Pitch_bend_c, 1, 8704
3, 11061, Pitch_bend_c, 1, 8608
3, 11063, Pitch_bend_c, 1, 8544
3, 11065, Pitch_bend_c, 1, 8480
3, 11073, Pitch_bend_c, 1, 8384
3, 11077, Pitch_bend_c, 1, 8320
3, 11083, Pitch_bend_c, 1, 8256
3, 11101, Pitch_bend_c, 1, 8192
3, 11141, Note_on_c, 1, 36, 0
3, 11151, Pitch_bend_c, 1, 6848
3, 11151, Note_on_c, 1, 38, 100
3, 11153, Pitch_bend_c, 1, 7040
3, 11155, Pitch_bend_c, 1, 7264
3, 11157, Pitch_bend_c, 1, 7584
3, 11159, Pitch_bend_c, 1, 7904
3, 11161, Pitch_bend_c, 1, 8128
3, 11163, Pitch_bend_c, 1, 8480
3, 11165, Pitch_bend_c, 1, 8704
3, 11167, Pitch_bend_c, 1, 8768
3, 11173, Pitch_bend_c, 1, 8704
3, 11175, Pitch_bend_c, 1, 8608
3, 11177, Pitch_bend_c, 1, 8512
3, 11183, Pitch_bend_c, 1, 8416
3, 11187, Pitch_bend_c, 1, 8320
3, 11209, Pitch_bend_c, 1, 8192
3, 11243, Note_on_c, 1, 38, 0
3, 11250, Note_on_c, 1, 36, 108
3, 11257, Note_on_c, 1, 36, 0
3, 11272, Pitch_bend_c, 1, 7104
3, 11272, Note_on_c, 1, 39, 99
3, 11274, Pitch_bend_c, 1, 7264
3, 11276, Pitch_bend_c, 1, 7360
3, 11278, Pitch_bend_c, 1, 7616
3, 11280, Pitch_bend_c, 1, 7808
3, 11282, Pitch_bend_c, 1, 7936
3, 11284, Pitch_bend_c, 1, 8192
3, 11286, Pitch_bend_c, 1, 8416
3, 11288, Pitch_bend_c, 1, 8576
3, 11290, Pitch_bend_c, 1, 8640
3, 11300, Pitch_bend_c, 1, 8512
3, 11304, Pitch_bend_c, 1, 8448
3, 11310, Pitch_bend_c, 1, 8384
3, 11314, Pitch_bend_c, 1, 8320
3, 11320, Pitch_bend_c, 1, 8256
3, 11338, Pitch_bend_c, 1, 8192
3, 11380, Note_on_c, 1, 39, 0
3, 11393, Pitch_bend_c, 1, 6880
3, 11393, Note_on_c, 1, 43, 100
3, 11395, Pitch_bend_c, 1, 7200
3, 11397, Pitch_bend_c, 1, 7616
3, 11399, Pitch_bend_c, 1, 8032
3, 11401, Pitch_bend_c, 1, 8608
3, 11403, Pitch_bend_c, 1, 8768
3, 11407, Pitch_bend_c, 1, 8704
3, 11409, Pitch_bend_c, 1, 8608
3, 11411, Pitch_bend_c, 1, 8512
3, 11415, Pitch_bend_c, 1, 8416
3, 11417, Pitch_bend_c, 1, 8320
3, 11431, Pitch_bend_c, 1, 8192
3, 11453, Note_on_c, 1, 43, 0
3, 11458, Note_on_c, 1, 41, 107
3, 11465, Note_on_c, 1, 41, 0
3, 11519, Pitch_bend_c, 1, 6688
3, 11519, Note_on_c, 1, 48, 103
3, 11521, Pitch_bend_c, 1, 6912
3, 11523, Pitch_bend_c, 1, 7040
3, 11525, Pitch_bend_c, 1, 7360
3, 11527, Pitch_bend_c, 1, 7648
3, 11529, Pitch_bend_c, 1, 7840
3, 11531, Pitch_bend_c, 1, 8192
3, 11533, Pitch_bend_c, 1, 8512
3, 11535, Pitch_bend_c, 1, 8704
3, 11537, Pitch_bend_c, 1, 8832
3, 11545, Pitch_bend_c, 1, 8768
3, 11547, Pitch_bend_c, 1, 8640
3, 11551, Pitch_bend_c, 1, 8576
3, 11555, Pitch_bend_c, 1, 8512
3, 11557, Pitch_bend_c, 1, 8448
3, 11561, Pitch_bend_c, 1, 8352
3, 11567, Pitch_bend_c, 1, 8288
3, 11585, Pitch_bend_c, 1, 8192
3, 11627, Note_on_c, 1, 48, 0
3, 11637, Pitch_bend_c, 1, 4352
3, 11637, Note_on_c, 1, 43, 100
3, 11645, Pitch_bend_c, 1, 4480
3, 11649, Pitch_bend_c, 1, 4736
3, 11651, Pitch_bend_c, 1, 5024
3, 11653, Pitch_bend_c, 1, 5504
3, 11655, Pitch_bend_c, 1, 6272
3, 11657, Pitch_bend_c, 1, 6880
3, 11659, Pitch_bend_c, 1, 7424
3, 11661, Pitch_bend_c, 1, 7712
3, 11663, Pitch_bend_c, 1, 7904
3, 11665, Pitch_bend_c, 1, 8000
3, 11667, Pitch_bend_c, 1, 8128
3, 11683, Pitch_bend_c, 1, 8192
3, 11754, Note_on_c, 1, 43, 0
3, 11754, Pitch_bend_c, 1, 6656
3, 11754, Note_on_c, 1, 45, 99
3, 11756, Pitch_bend_c, 1, 6880
3, 11758, Pitch_bend_c, 1, 7008
3, 11760, Pitch_bend_c, 1, 7232
3, 11762, Pitch_bend_c, 1, 7616
3, 11764, Pitch_bend_c, 1, 7840
3, 11766, Pitch_bend_c, 1, 8128
3, 11768, Pitch_bend_c, 1, 8512
3, 11770, Pitch_bend_c, 1, 8736
3, 11772, Pitch_bend_c, 1, 8800
3, 11782, Pitch_bend_c, 1, 8736
3, 11784, Pitch_bend_c, 1, 8672
3, 11786, Pitch_bend_c, 1, 8576
3, 11790, Pitch_bend_c, 1, 8512
3, 11794, Pitch_bend_c, 1, 8448
3, 11798, Pitch_bend_c, 1, 8352
3, 11804, Pitch_bend_c, 1, 8288
3, 11822, Pitch_bend_c, 1, 8192
3, 11865, Note_on_c, 1, 45, 0
3, 11874, Note_on_c, 1, 38, 100
3, 11929, Note_on_c, 1, 38, 0
3, 11929, Pitch_bend_c, 1, 7104
3, 11929, Note_on_c, 1, 45, 100
3, 11931, Pitch_bend_c, 1, 7360
3, 11933, Pitch_bend_c, 1, 7712
3, 11935, Pitch_bend_c, 1, 8128
3, 11937, Pitch_bend_c, 1, 8512
3, 11939, Pitch_bend_c, 1, 8640
3, 11945, Pitch_bend_c, 1, 8512
3, 11947, Pitch_bend_c, 1, 8448
3, 11949, Pitch_bend_c, 1, 8384
3, 11953, Pitch_bend_c, 1, 8320
3, 11955, Pitch_bend_c, 1, 8256
3, 11965, Pitch_bend_c, 1, 8192
3, 11987, Note_on_c, 1, 45, 0
3, 11991, Pitch_bend_c, 1, 6912
3, 11991, Note_on_c, 1, 43, 102
3, 11993, Pitch_bend_c, 1, 7072
3, 11995, Pitch_bend_c, 1, 7200
3, 11997, Pitch_bend_c, 1, 7392
3, 11999, Pitch_bend_c, 1, 7712
3, 12001, Pitch_bend_c, 1, 7904
3, 12003, Pitch_bend_c, 1, 8128
3, 12005, Pitch_bend_c, 1, 8448
3, 12007, Pitch_bend_c, 1, 8640
3, 12009, Pitch_bend_c, 1, 8704
3, 12019, Pitch_bend_c, 1, 8640
3, 12021, Pitch_bend_c, 1, 8576
3, 12023, Pitch_bend_c, 1, 8512
3, 12027, Pitch_bend_c, 1, 8448
3, 12035, Pitch_bend_c, 1, 8320
3, 12061, Pitch_bend_c, 1, 8192
3, 12103, Note_on_c, 1, 43, 0
3, 12115, Pitch_bend_c, 1, 4064
3, 12115, Note_on_c, 1, 38, 103
3, 12123, Pitch_bend_c, 1, 4192
3, 12127, Pitch_bend_c, 1, 4352
3, 12129, Pitch_bend_c, 1, 4576
3, 12131, Pitch_bend_c, 1, 5312
3, 12133, Pitch_bend_c, 1, 6144
3, 12135, Pitch_bend_c, 1, 6784
3, 12137, Pitch_bend_c, 1, 7232
3, 12139, Pitch_bend_c, 1, 7520
3, 12141, Pitch_bend_c, 1, 7808
3, 12143, Pitch_bend_c, 1, 7968
3, 12145, Pitch_bend_c, 1, 8096
3, 12161, Pitch_bend_c, 1, 8192
3, 12235, Note_on_c, 1, 38, 0
3, 12235, Pitch_bend_c, 1, 4288
3, 12235, Note_on_c, 1, 34, 103
3, 12243, Pitch_bend_c, 1, 4384
3, 12247, Pitch_bend_c, 1, 4672
3, 12249, Pitch_bend_c, 1, 4960
3, 12251, Pitch_bend_c, 1, 5440
3, 12253, Pitch_bend_c, 1, 6240
3, 12255, Pitch_bend_c, 1, 6848
3, 12257, Pitch_bend_c, 1, 7296
3, 12259, Pitch_bend_c, 1, 7712
3, 12261, Pitch_bend_c, 1, 7904
3, 12263, Pitch_bend_c, 1, 8000
3, 12265, Pitch_bend_c, 1, 8128
3, 12281, Pitch_bend_c, 1, 8192
3, 12353, Note_on_c, 1, 34, 0
3, 12353, Pitch_bend_c, 1, 6976
3, 12353, Note_on_c, 1, 31, 99
3, 12355, Pitch_bend_c, 1, 7264
3, 12357, Pitch_bend_c, 1, 7744
3, 12359, Pitch_bend_c, 1, 8128
3, 12361, Pitch_bend_c, 1, 8608
3, 12363, Pitch_bend_c, 1, 8704
3, 12367, Pitch_bend_c, 1, 8608
3, 12369, Pitch_bend_c, 1, 8480
3, 12373, Pitch_bend_c, 1, 8384
3, 12375, Pitch_bend_c, 1, 8320
3, 12389, Pitch_bend_c, 1, 8192
3, 12409, Note_on_c, 1, 31, 0
3, 12413, Note_on_c, 1, 46, 107
3, 12445, Note_on_c, 1, 46, 0
3, 12450, Note_on_c, 1, 34, 108
3, 12465, Note_on_c, 1, 34, 0
3, 12474, Pitch_bend_c, 1, 6848
3, 12474, Note_on_c, 1, 44, 100
3, 12476, Pitch_bend_c, 1, 7040
3, 12478, Pitch_bend_c, 1, 7168
3, 12480, Pitch_bend_c, 1, 7456
3, 12482, Pitch_bend_c, 1, 7712
3, 12484, Pitch_bend_c, 1, 8032
3, 12486, Pitch_bend_c, 1, 8192
3, 12488, Pitch_bend_c, 1, 8608
3, 12490, Pitch_bend_c, 1, 8704
3, 12492, Pitch_bend_c, 1, 8768
3, 12498, Pitch_bend_c, 1, 8704
3, 12500, Pitch_bend_c, 1, 8640
3, 12504, Pitch_bend_c, 1, 8512
3, 12512, Pitch_bend_c, 1, 8416
3, 12516, Pitch_bend_c, 1, 8320
3, 12538, Pitch_bend_c, 1, 8192
3, 12579, Note_on_c, 1, 44, 0
3, 12591, Pitch_bend_c, 1, 4000
3, 12591, Note_on_c, 1, 32, 102
3, 12599, Pitch_bend_c, 1, 4128
3, 12603, Pitch_bend_c, 1, 4288
3, 12605, Pitch_bend_c, 1, 4512
3, 12607, Pitch_bend_c, 1, 4960
3, 12609, Pitch_bend_c, 1, 5568
3, 12611, Pitch_bend_c, 1, 6464
3, 12613, Pitch_bend_c, 1, 7232
3, 12615, Pitch_bend_c, 1, 7520
3, 12617, Pitch_bend_c, 1, 7808
3, 12619, Pitch_bend_c, 1, 7968
3, 12621, Pitch_bend_c, 1, 8032
3, 12623, Pitch_bend_c, 1, 8096
3, 12639, Pitch_bend_c, 1, 8192
3, 12713, Note_on_c, 1, 32, 0
3, 12713, Pitch_bend_c, 1, 6912
3, 12713, Note_on_c, 1, 38, 103
3, 12715, Pitch_bend_c, 1, 7072
3, 12717, Pitch_bend_c, 1, 7200
3, 12719, Pitch_bend_c, 1, 7392
3, 12721, Pitch_bend_c, 1, 7712
3, 12723, Pitch_bend_c, 1, 7904
3, 12725, Pitch_bend_c, 1, 8128
3, 12727, Pitch_bend_c, 1, 8448
3, 12729, Pitch_bend_c, 1, 8640
3, 12731, Pitch_bend_c, 1, 8704
3, 12741, Pitch_bend_c, 1, 8640
3, 12743, Pitch_bend_c, 1, 8576
3, 12745, Pitch_bend_c, 1, 8512
3, 12749, Pitch_bend_c, 1, 8448
3, 12757, Pitch_bend_c, 1, 8320
3, 12781, Pitch_bend_c, 1, 8192
3, 12823, Note_on_c, 1, 38, 0
3, 12835, Pitch_bend_c, 1, 4064
3, 12835, Note_on_c, 1, 30, 103
3, 12843, Pitch_bend_c, 1, 4192
3, 12847, Pitch_bend_c, 1, 4352
3, 12849, Pitch_bend_c, 1, 4576
3, 12851, Pitch_bend_c, 1, 5024
3, 12853, Pitch_bend_c, 1, 5632
3, 12855, Pitch_bend_c, 1, 6496
3, 12857, Pitch_bend_c, 1, 7232
3, 12859, Pitch_bend_c, 1, 7520
3, 12861, Pitch_bend_c, 1, 7808
3, 12863, Pitch_bend_c, 1, 7968
3, 12865, Pitch_bend_c, 1, 8032
3, 12867, Pitch_bend_c, 1, 8096
3, 12883, Pitch_bend_c, 1, 8192
3, 12957, Note_on_c, 1, 30, 0
3, 12957, Pitch_bend_c, 1, 7136
3, 12957, Note_on_c, 1, 31, 103
3, 12959, Pitch_bend_c, 1, 7328
3, 12961, Pitch_bend_c, 1, 7520
3, 12963, Pitch_bend_c, 1, 7808
3, 12965, Pitch_bend_c, 1, 8064
3, 12967, Pitch_bend_c, 1, 8288
3, 12969, Pitch_bend_c, 1, 8544
3, 12971, Pitch_bend_c, 1, 8640
3, 12977, Pitch_bend_c, 1, 8544
3, 12981, Pitch_bend_c, 1, 8448
3, 12987, Pitch_bend_c, 1, 8352
3, 12989, Pitch_bend_c, 1, 8288
3, 13007, Pitch_bend_c, 1, 8192
3, 13039, Note_on_c, 1, 31, 0
3, 13045, Note_on_c, 1, 38, 109
3, 13056, Note_on_c, 1, 38, 0
3, 13071, Note_on_c, 1, 38, 104
3, 13095, Note_on_c, 1, 38, 0
3, 13133, Pitch_bend_c, 1, 6976
3, 13133, Note_on_c, 1, 31, 102
3, 13135, Pitch_bend_c, 1, 7264
3, 13137, Pitch_bend_c, 1, 7744
3, 13139, Pitch_bend_c, 1, 8128
3, 13141, Pitch_bend_c, 1, 8608
3, 13143, Pitch_bend_c, 1, 8704
3, 13147, Pitch_bend_c, 1, 8608
3, 13149, Pitch_bend_c, 1, 8480
3, 13153, Pitch_bend_c, 1, 8384
3, 13155, Pitch_bend_c, 1, 8320
3, 13169, Pitch_bend_c, 1, 8192
3, 13189, Note_on_c, 1, 31, 0
3, 13195, Pitch_bend_c, 1, 6944
3, 13195, Note_on_c, 1, 45, 103
3, 13197, Pitch_bend_c, 1, 7168
3, 13199, Pitch_bend_c, 1, 7424
3, 13201, Pitch_bend_c, 1, 7744
3, 13203, Pitch_bend_c, 1, 8032
3, 13205, Pitch_bend_c, 1, 8320
3, 13207, Pitch_bend_c, 1, 8608
3, 13209, Pitch_bend_c, 1, 8704
3, 13217, Pitch_bend_c, 1, 8576
3, 13219, Pitch_bend_c, 1, 8512
3, 13223, Pitch_bend_c, 1, 8448
3, 13225, Pitch_bend_c, 1, 8384
3, 13229, Pitch_bend_c, 1, 8320
3, 13247, Pitch_bend_c, 1, 8192
3, 13279, Note_on_c, 1, 45, 0
3, 13289, Pitch_bend_c, 1, 4288
3, 13289, Note_on_c, 1, 38, 99
3, 13295, Pitch_bend_c, 1, 4384
3, 13297, Pitch_bend_c, 1, 4448
3, 13299, Pitch_bend_c, 1, 4768
3, 13301, Pitch_bend_c, 1, 5440
3, 13303, Pitch_bend_c, 1, 6592
3, 13305, Pitch_bend_c, 1, 7296
3, 13307, Pitch_bend_c, 1, 7712
3, 13309, Pitch_bend_c, 1, 8000
3, 13311, Pitch_bend_c, 1, 8128
3, 13323, Pitch_bend_c, 1, 8192
3, 13376, Note_on_c, 1, 38, 0
3, 13376, Note_on_c, 1, 38, 100
3, 13435, Note_on_c, 1, 38, 0
3, 13435, Pitch_bend_c, 1, 6816
3, 13435, Note_on_c, 1, 31, 103
3, 13437, Pitch_bend_c, 1, 7008
3, 13439, Pitch_bend_c, 1, 7264
3, 13441, Pitch_bend_c, 1, 7584
3, 13443, Pitch_bend_c, 1, 7872
3, 13445, Pitch_bend_c, 1, 8192
3, 13447, Pitch_bend_c, 1, 8608
3, 13449, Pitch_bend_c, 1, 8736
3, 13457, Pitch_bend_c, 1, 8672
3, 13459, Pitch_bend_c, 1, 8608
3, 13461, Pitch_bend_c, 1, 8544
3, 13465, Pitch_bend_c, 1, 8480
3, 13467, Pitch_bend_c, 1, 8416
3, 13469, Pitch_bend_c, 1, 8352
3, 13475, Pitch_bend_c, 1, 8288
3, 13489, Pitch_bend_c, 1, 8192
3, 13523, Note_on_c, 1, 31, 0
3, 13530, Note_on_c, 1, 38, 108
3, 13536, Note_on_c, 1, 38, 0
3, 13559, Pitch_bend_c, 1, 7072
3, 13559, Note_on_c, 1, 38, 102
3, 13561, Pitch_bend_c, 1, 7264
3, 13563, Pitch_bend_c, 1, 7488
3, 13565, Pitch_bend_c, 1, 7776
3, 13567, Pitch_bend_c, 1, 8064
3, 13569, Pitch_bend_c, 1, 8320
3, 13571, Pitch_bend_c, 1, 8576
3, 13573, Pitch_bend_c, 1, 8672
3, 13581, Pitch_bend_c, 1, 8544
3, 13583, Pitch_bend_c, 1, 8480
3, 13587, Pitch_bend_c, 1, 8416
3, 13593, Pitch_bend_c, 1, 8320
3, 13597, Pitch_bend_c, 1, 8256
3, 13611, Pitch_bend_c, 1, 8192
3, 13644, Note_on_c, 1, 38, 0
3, 13651, Note_on_c, 1, 43, 104
3, 13802, Note_on_c, 1, 43, 0
3, 13802, Pitch_bend_c, 1, 3936
3, 13802, Note_on_c, 1, 38, 103
3, 13810, Pitch_bend_c, 1, 4096
3, 13812, Pitch_bend_c, 1, 4160
3, 13814, Pitch_bend_c, 1, 4384
3, 13816, Pitch_bend_c, 1, 4672
3, 13818, Pitch_bend_c, 1, 5216
3, 13820, Pitch_bend_c, 1, 6432
3, 13822, Pitch_bend_c, 1, 6976
3, 13824, Pitch_bend_c, 1, 7328
3, 13826, Pitch_bend_c, 1, 7680
3, 13828, Pitch_bend_c, 1, 7872
3, 13830, Pitch_bend_c, 1, 8032
3, 13832, Pitch_bend_c, 1, 8096
3, 13848, Pitch_bend_c, 1, 8192
3, 13917, Note_on_c, 1, 38, 0
3, 13917, Pitch_bend_c, 1, 4064
3, 13917, Note_on_c, 1, 30, 100
3, 13925, Pitch_bend_c, 1, 4192
3, 13929, Pitch_bend_c, 1, 4352
3, 13931, Pitch_bend_c, 1, 4576
3, 13933, Pitch_bend_c, 1, 5024
3, 13935, Pitch_bend_c, 1, 6144
3, 13937, Pitch_bend_c, 1, 6784
3, 13939, Pitch_bend_c, 1, 7232
3, 13941, Pitch_bend_c, 1, 7520
3, 13943, Pitch_bend_c, 1, 7808
3, 13945, Pitch_bend_c, 1, 7968
3, 13947, Pitch_bend_c, 1, 8032
3, 13949, Pitch_bend_c, 1, 8096
3, 13965, Pitch_bend_c, 1, 8192
3, 14038, Note_on_c, 1, 30, 0
3, 14038, Pitch_bend_c, 1, 6944
3, 14038, Note_on_c, 1, 38, 99
3, 14040, Pitch_bend_c, 1, 7104
3, 14042, Pitch_bend_c, 1, 7328
3, 14044, Pitch_bend_c, 1, 7648
3, 14046, Pitch_bend_c, 1, 7904
3, 14048, Pitch_bend_c, 1, 8128
3, 14050, Pitch_bend_c, 1, 8448
3, 14052, Pitch_bend_c, 1, 8672
3, 14054, Pitch_bend_c, 1, 8736
3, 14060, Pitch_bend_c, 1, 8672
3, 14062, Pitch_bend_c, 1, 8576
3, 14064, Pitch_bend_c, 1, 8512
3, 14068, Pitch_bend_c, 1, 8448
3, 14074, Pitch_bend_c, 1, 8320
3, 14096, Pitch_bend_c, 1, 8192
3, 14130, Note_on_c, 1, 38, 0
3, 14140, Note_on_c, 1, 34, 108
3, 14156, Note_on_c, 1, 34, 0
3, 14157, Pitch_bend_c, 1, 6784
3, 14157, Note_on_c, 1, 45, 100
3, 14159, Pitch_bend_c, 1, 6976
3, 14161, Pitch_bend_c, 1, 7232
3, 14163, Pitch_bend_c, 1, 7552
3, 14165, Pitch_bend_c, 1, 7872
3, 14167, Pitch_bend_c, 1, 8192
3, 14169, Pitch_bend_c, 1, 8608
3, 14171, Pitch_bend_c, 1, 8736
3, 14173, Pitch_bend_c, 1, 8800
3, 14179, Pitch_bend_c, 1, 8672
3, 14181, Pitch_bend_c, 1, 8608
3, 14183, Pitch_bend_c, 1, 8544
3, 14187, Pitch_bend_c, 1, 8480
3, 14189, Pitch_bend_c, 1, 8416
3, 14193, Pitch_bend_c, 1, 8352
3, 14197, Pitch_bend_c, 1, 8288
3, 14213, Pitch_bend_c, 1, 8192
3, 14246, Note_on_c, 1, 45, 0
3, 14257, Note_on_c, 1, 38, 109
3, 14265, Note_on_c, 1, 38, 0
3, 14277, Pitch_bend_c, 1, 6944
3, 14277, Note_on_c, 1, 42, 102
3, 14279, Pitch_bend_c, 1, 7232
3, 14281, Pitch_bend_c, 1, 7744
3, 14283, Pitch_bend_c, 1, 8128
3, 14285, Pitch_bend_c, 1, 8608
3, 14287, Pitch_bend_c, 1, 8704
3, 14291, Pitch_bend_c, 1, 8608
3, 14293, Pitch_bend_c, 1, 8512
3, 14295, Pitch_bend_c, 1, 8448
3, 14297, Pitch_bend_c, 1, 8384
3, 14299, Pitch_bend_c, 1, 8320
3, 14311, Pitch_bend_c, 1, 8192
3, 14332, Note_on_c, 1, 42, 0
3, 14337, Note_on_c, 1, 39, 103
3, 14395, Note_on_c, 1, 39, 0
3, 14395, Pitch_bend_c, 1, 6816
3, 14395, Note_on_c, 1, 41, 100
3, 14397, Pitch_bend_c, 1, 7008
3, 14399, Pitch_bend_c, 1, 7136
3, 14401, Pitch_bend_c, 1, 7328
3, 14403, Pitch_bend_c, 1, 7680
3, 14405, Pitch_bend_c, 1, 7872
3, 14407, Pitch_bend_c, 1, 8128
3, 14409, Pitch_bend_c, 1, 8480
3, 14411, Pitch_bend_c, 1, 8672
3, 14413, Pitch_bend_c, 1, 8736
3, 14423, Pitch_bend_c, 1, 8672
3, 14425, Pitch_bend_c, 1, 8608
3, 14427, Pitch_bend_c, 1, 8544
3, 14431, Pitch_bend_c, 1, 8480
3, 14435, Pitch_bend_c, 1, 8416
3, 14439, Pitch_bend_c, 1, 8352
3, 14445, Pitch_bend_c, 1, 8288
3, 14463, Pitch_bend_c, 1, 8192
3, 14506, Note_on_c, 1, 41, 0
3, 14516, Pitch_bend_c, 1, 4320
3, 14516, Note_on_c, 1, 38, 100
3, 14524, Pitch_bend_c, 1, 4448
3, 14528, Pitch_bend_c, 1, 4704
3, 14530, Pitch_bend_c, 1, 4992
3, 14532, Pitch_bend_c, 1, 5472
3, 14534, Pitch_bend_c, 1, 6272
3, 14536, Pitch_bend_c, 1, 6880
3, 14538, Pitch_bend_c, 1, 7296
3, 14540, Pitch_bend_c, 1, 7712
3, 14542, Pitch_bend_c, 1, 7904
3, 14544, Pitch_bend_c, 1, 8000
3, 14546, Pitch_bend_c, 1, 8128
3, 14562, Pitch_bend_c, 1, 8192
3, 14634, Note_on_c, 1, 38, 0
3, 14634, Pitch_bend_c, 1, 4288
3, 14634, Note_on_c, 1, 31, 102
3, 14642, Pitch_bend_c, 1, 4384
3, 14646, Pitch_bend_c, 1, 4544
3, 14648, Pitch_bend_c, 1, 4768
3, 14650, Pitch_bend_c, 1, 5152
3, 14652, Pitch_bend_c, 1, 6240
3, 14654, Pitch_bend_c, 1, 6848
3, 14656, Pitch_bend_c, 1, 7296
3, 14658, Pitch_bend_c, 1, 7552
3, 14660, Pitch_bend_c, 1, 7840
3, 14662, Pitch_bend_c, 1, 8000
3, 14664, Pitch_bend_c, 1, 8064
3, 14666, Pitch_bend_c, 1, 8128
3, 14682, Pitch_bend_c, 1, 8192
3, 14755, Note_on_c, 1, 31, 0
3, 14755, Pitch_bend_c, 1, 6976
3, 14755, Note_on_c, 1, 35, 100
3, 14757, Pitch_bend_c, 1, 7136
3, 14759, Pitch_bend_c, 1, 7264
3, 14761, Pitch_bend_c, 1, 7424
3, 14763, Pitch_bend_c, 1, 7648
3, 14765, Pitch_bend_c, 1, 7904
3, 14767, Pitch_bend_c, 1, 8128
3, 14769, Pitch_bend_c, 1, 8320
3, 14771, Pitch_bend_c, 1, 8576
3, 14773, Pitch_bend_c, 1, 8672
3, 14783, Pitch_bend_c, 1, 8608
3, 14789, Pitch_bend_c, 1, 8480
3, 14795, Pitch_bend_c, 1, 8384
3, 14799, Pitch_bend_c, 1, 8320
3, 14825, Pitch_bend_c, 1, 8192
3, 14869, Note_on_c, 1, 35, 0
3, 14882, Pitch_bend_c, 1, 6848
3, 14882, Note_on_c, 1, 36, 103
3, 14884, Pitch_bend_c, 1, 7072
3, 14886, Pitch_bend_c, 1, 7360
3, 14888, Pitch_bend_c, 1, 7712
3, 14890, Pitch_bend_c, 1, 8128
3, 14892, Pitch_bend_c, 1, 8480
3, 14894, Pitch_bend_c, 1, 8704
3, 14896, Pitch_bend_c, 1, 8768
3, 14900, Pitch_bend_c, 1, 8704
3, 14904, Pitch_bend_c, 1, 8512
3, 14910, Pitch_bend_c, 1, 8416
3, 14912, Pitch_bend_c, 1, 8352
3, 14918, Pitch_bend_c, 1, 8288
3, 14930, Pitch_bend_c, 1, 8192
3, 14960, Note_on_c, 1, 36, 0
3, 14969, Note_on_c, 1, 34, 104
3, 14974, Note_on_c, 1, 34, 0
3, 14974, Note_on_c, 1, 50, 101
3, 14979, Note_on_c, 1, 50, 0
3, 14999, Note_on_c, 1, 48, 111
3, 15038, Note_on_c, 1, 48, 0
3, 15061, Note_on_c, 1, 43, 100
3, 15103, Note_on_c, 1, 43, 0
3, 15123, Pitch_bend_c, 1, 7072
3, 15123, Note_on_c, 1, 39, 94
3, 15125, Pitch_bend_c, 1, 7296
3, 15127, Pitch_bend_c, 1, 7488
3, 15129, Pitch_bend_c, 1, 7776
3, 15131, Pitch_bend_c, 1, 8064
3, 15133, Pitch_bend_c, 1, 8320
3, 15135, Pitch_bend_c, 1, 8576
3, 15137, Pitch_bend_c, 1, 8672
3, 15143, Pitch_bend_c, 1, 8576
3, 15147, Pitch_bend_c, 1, 8448
3, 15153, Pitch_bend_c, 1, 8384
3, 15155, Pitch_bend_c, 1, 8320
3, 15159, Pitch_bend_c, 1, 8256
3, 15173, Pitch_bend_c, 1, 8192
3, 15205, Note_on_c, 1, 39, 0
3, 15240, Pitch_bend_c, 1, 3936
3, 15240, Note_on_c, 1, 38, 100
3, 15248, Pitch_bend_c, 1, 4096
3, 15250, Pitch_bend_c, 1, 4384
3, 15252, Pitch_bend_c, 1, 4672
3, 15254, Pitch_bend_c, 1, 5536
3, 15256, Pitch_bend_c, 1, 6432
3, 15258, Pitch_bend_c, 1, 7200
3, 15260, Pitch_bend_c, 1, 7680
3, 15262, Pitch_bend_c, 1, 7872
3, 15264, Pitch_bend_c, 1, 8032
3, 15266, Pitch_bend_c, 1, 8096
3, 15278, Pitch_bend_c, 1, 8192
3, 15338, Note_on_c, 1, 38, 0
3, 15338, Note_on_c, 1, 35, 109
3, 15350, Note_on_c, 1, 35, 0
3, 15359, Pitch_bend_c, 1, 6784
3, 15359, Note_on_c, 1, 36, 102
3, 15361, Pitch_bend_c, 1, 6976
3, 15363, Pitch_bend_c, 1, 7232
3, 15365, Pitch_bend_c, 1, 7552
3, 15367, Pitch_bend_c, 1, 7872
3, 15369, Pitch_bend_c, 1, 8192
3, 15371, Pitch_bend_c, 1, 8480
3, 15373, Pitch_bend_c, 1, 8736
3, 15375, Pitch_bend_c, 1, 8800
3, 15381, Pitch_bend_c, 1, 8736
3, 15383, Pitch_bend_c, 1, 8608
3, 15385, Pitch_bend_c, 1, 8544
3, 15389, Pitch_bend_c, 1, 8480
3, 15391, Pitch_bend_c, 1, 8416
3, 15395, Pitch_bend_c, 1, 8352
3, 15399, Pitch_bend_c, 1, 8288
3, 15415, Pitch_bend_c, 1, 8192
3, 15450, Note_on_c, 1, 36, 0
3, 15460, Note_on_c, 1, 34, 108
3, 15479, Note_on_c, 1, 34, 0
3, 15480, Pitch_bend_c, 1, 6944
3, 15480, Note_on_c, 1, 43, 100
3, 15482, Pitch_bend_c, 1, 7104
3, 15484, Pitch_bend_c, 1, 7328
3, 15486, Pitch_bend_c, 1, 7648
3, 15488, Pitch_bend_c, 1, 7904
3, 15490, Pitch_bend_c, 1, 8192
3, 15492, Pitch_bend_c, 1, 8576
3, 15494, Pitch_bend_c, 1, 8672
3, 15496, Pitch_bend_c, 1, 8736
3, 15502, Pitch_bend_c, 1, 8640
3, 15504, Pitch_bend_c, 1, 8576
3, 15506, Pitch_bend_c, 1, 8512
3, 15510, Pitch_bend_c, 1, 8448
3, 15516, Pitch_bend_c, 1, 8320
3, 15536, Pitch_bend_c, 1, 8192
3, 15570, Note_on_c, 1, 43, 0
3, 15578, Note_on_c, 1, 38, 105
3, 15584, Note_on_c, 1, 38, 0
3, 15603, Pitch_bend_c, 1, 6656
3, 15603, Note_on_c, 1, 45, 101
3, 15605, Pitch_bend_c, 1, 6880
3, 15607, Pitch_bend_c, 1, 7008
3, 15609, Pitch_bend_c, 1, 7360
3, 15611, Pitch_bend_c, 1, 7616
3, 15613, Pitch_bend_c, 1, 8000
3, 15615, Pitch_bend_c, 1, 8192
3, 15617, Pitch_bend_c, 1, 8512
3, 15619, Pitch_bend_c, 1, 8800
3, 15629, Pitch_bend_c, 1, 8736
3, 15631, Pitch_bend_c, 1, 8672
3, 15633, Pitch_bend_c, 1, 8576
3, 15637, Pitch_bend_c, 1, 8512
3, 15641, Pitch_bend_c, 1, 8448
3, 15645, Pitch_bend_c, 1, 8352
3, 15651, Pitch_bend_c, 1, 8288
3, 15669, Pitch_bend_c, 1, 8192
3, 15709, Note_on_c, 1, 45, 0
3, 15720, Pitch_bend_c, 1, 4032
3, 15720, Note_on_c, 1, 38, 102
3, 15728, Pitch_bend_c, 1, 4160
3, 15732, Pitch_bend_c, 1, 4320
3, 15734, Pitch_bend_c, 1, 4544
3, 15736, Pitch_bend_c, 1, 4992
3, 15738, Pitch_bend_c, 1, 5600
3, 15740, Pitch_bend_c, 1, 6464
3, 15742, Pitch_bend_c, 1, 7008
3, 15744, Pitch_bend_c, 1, 7360
3, 15746, Pitch_bend_c, 1, 7680
3, 15748, Pitch_bend_c, 1, 7872
3, 15750, Pitch_bend_c, 1, 7968
3, 15752, Pitch_bend_c, 1, 8096
3, 15768, Pitch_bend_c, 1, 8192
3, 15844, Note_on_c, 1, 38, 0
3, 15844, Pitch_bend_c, 1, 6880
3, 15844, Note_on_c, 1, 43, 100
3, 15846, Pitch_bend_c, 1, 7072
3, 15848, Pitch_bend_c, 1, 7200
3, 15850, Pitch_bend_c, 1, 7488
3, 15852, Pitch_bend_c, 1, 7712
3, 15854, Pitch_bend_c, 1, 8032
3, 15856, Pitch_bend_c, 1, 8192
3, 15858, Pitch_bend_c, 1, 8576
3, 15860, Pitch_bend_c, 1, 8704
3, 15870, Pitch_bend_c, 1, 8640
3, 15872, Pitch_bend_c, 1, 8576
3, 15874, Pitch_bend_c, 1, 8512
3, 15878, Pitch_bend_c, 1, 8448
3, 15884, Pitch_bend_c, 1, 8320
3, 15908, Pitch_bend_c, 1, 8192
3, 15948, Note_on_c, 1, 43, 0
3, 15961, Pitch_bend_c, 1, 4096
3, 15961, Note_on_c, 1, 31, 103
3, 15969, Pitch_bend_c, 1, 4224
3, 15971, Pitch_bend_c, 1, 4288
3, 15973, Pitch_bend_c, 1, 4608
3, 15975, Pitch_bend_c, 1, 5024
3, 15977, Pitch_bend_c, 1, 6144
3, 15979, Pitch_bend_c, 1, 6784
3, 15981, Pitch_bend_c, 1, 7232
3, 15983, Pitch_bend_c, 1, 7680
3, 15985, Pitch_bend_c, 1, 7872
3, 15987, Pitch_bend_c, 1, 8032
3, 15989, Pitch_bend_c, 1, 8096
3, 16003, Pitch_bend_c, 1, 8192
3, 16068, Note_on_c, 1, 31, 0
3, 16068, Note_on_c, 1, 38, 104
3, 16074, Note_on_c, 1, 38, 0
3, 16089, Note_on_c, 1, 46, 108
3, 16124, Note_on_c, 1, 46, 0
3, 16149, Note_on_c, 1, 45, 109
3, 16185, Note_on_c, 1, 45, 0
3, 16206, Note_on_c, 1, 43, 104
3, 16245, Note_on_c, 1, 43, 0
3, 16264, Note_on_c, 1, 38, 91
3, 16309, Note_on_c, 1, 38, 0
3, 16324, Pitch_bend_c, 1, 6656
3, 16324, Note_on_c, 1, 33, 88
3, 16326, Pitch_bend_c, 1, 6880
3, 16328, Pitch_bend_c, 1, 7136
3, 16330, Pitch_bend_c, 1, 7520
3, 16332, Pitch_bend_c, 1, 7840
3, 16334, Pitch_bend_c, 1, 8192
3, 16336, Pitch_bend_c, 1, 8672
3, 16338, Pitch_bend_c, 1, 8800
3, 16346, Pitch_bend_c, 1, 8736
3, 16348, Pitch_bend_c, 1, 8672
3, 16350, Pitch_bend_c, 1, 8576
3, 16352, Pitch_bend_c, 1, 8512
3, 16354, Pitch_bend_c, 1, 8448
3, 16358, Pitch_bend_c, 1, 8352
3, 16362, Pitch_bend_c, 1, 8288
3, 16378, Pitch_bend_c, 1, 8192
3, 16410, Note_on_c, 1, 33, 0
3, 16442, Pitch_bend_c, 1, 6752
3, 16442, Note_on_c, 1, 46, 103
3, 16444, Pitch_bend_c, 1, 6944
3, 16446, Pitch_bend_c, 1, 7072
3, 16448, Pitch_bend_c, 1, 7392
3, 16450, Pitch_bend_c, 1, 7648
3, 16452, Pitch_bend_c, 1, 8000
3, 16454, Pitch_bend_c, 1, 8192
3, 16456, Pitch_bend_c, 1, 8480
3, 16458, Pitch_bend_c, 1, 8768
3, 16468, Pitch_bend_c, 1, 8704
3, 16470, Pitch_bend_c, 1, 8640
3, 16472, Pitch_bend_c, 1, 8544
3, 16476, Pitch_bend_c, 1, 8480
3, 16484, Pitch_bend_c, 1, 8352
3, 16490, Pitch_bend_c, 1, 8288
3, 16508, Pitch_bend_c, 1, 8192
3, 16548, Note_on_c, 1, 46, 0
3, 16559, Pitch_bend_c, 1, 4096
3, 16559, Note_on_c, 1, 45, 100
3, 16565, Pitch_bend_c, 1, 4224
3, 16569, Pitch_bend_c, 1, 4512
3, 16571, Pitch_bend_c, 1, 5024
3, 16573, Pitch_bend_c, 1, 5632
3, 16575, Pitch_bend_c, 1, 6784
3, 16577, Pitch_bend_c, 1, 7360
3, 16579, Pitch_bend_c, 1, 7680
3, 16581, Pitch_bend_c, 1, 7968
3, 16583, Pitch_bend_c, 1, 8096
3, 16597, Pitch_bend_c, 1, 8192
3, 16654, Note_on_c, 1, 45, 0
3, 16654, Note_on_c, 1, 40, 108
3, 16660, Note_on_c, 1, 40, 0
3, 16677, Pitch_bend_c, 1, 6720
3, 16677, Note_on_c, 1, 37, 99
3, 16679, Pitch_bend_c, 1, 6912
3, 16681, Pitch_bend_c, 1, 7168
3, 16683, Pitch_bend_c, 1, 7520
3, 16685, Pitch_bend_c, 1, 7840
3, 16687, Pitch_bend_c, 1, 8192
3, 16689, Pitch_bend_c, 1, 8640
3, 16691, Pitch_bend_c, 1, 8768
3, 16693, Pitch_bend_c, 1, 8832
3, 16699, Pitch_bend_c, 1, 8704
3, 16701, Pitch_bend_c, 1, 8640
3, 16703, Pitch_bend_c, 1, 8544
3, 16709, Pitch_bend_c, 1, 8448
3, 16713, Pitch_bend_c, 1, 8352
3, 16717, Pitch_bend_c, 1, 8288
3, 16733, Pitch_bend_c, 1, 8192
3, 16767, Note_on_c, 1, 37, 0
3, 16776, Note_on_c, 1, 34, 108
3, 16788, Note_on_c, 1, 34, 0
3, 16793, Pitch_bend_c, 1, 6752
3, 16793, Note_on_c, 1, 38, 100
3, 16795, Pitch_bend_c, 1, 6944
3, 16797, Pitch_bend_c, 1, 7200
3, 16799, Pitch_bend_c, 1, 7424
3, 16801, Pitch_bend_c, 1, 7744
3, 16803, Pitch_bend_c, 1, 8128
3, 16805, Pitch_bend_c, 1, 8352
3, 16807, Pitch_bend_c, 1, 8704
3, 16809, Pitch_bend_c, 1, 8800
3, 16815, Pitch_bend_c, 1, 8736
3, 16819, Pitch_bend_c, 1, 8640
3, 16821, Pitch_bend_c, 1, 8544
3, 16825, Pitch_bend_c, 1, 8480
3, 16831, Pitch_bend_c, 1, 8352
3, 16837, Pitch_bend_c, 1, 8288
3, 16853, Pitch_bend_c, 1, 8192
3, 16890, Note_on_c, 1, 38, 0
3, 16900, Note_on_c, 1, 37, 109
3, 16915, Note_on_c, 1, 37, 0
3, 16916, Pitch_bend_c, 1, 7072
3, 16916, Note_on_c, 1, 40, 102
3, 16918, Pitch_bend_c, 1, 7232
3, 16920, Pitch_bend_c, 1, 7424
3, 16922, Pitch_bend_c, 1, 7680
3, 16924, Pitch_bend_c, 1, 7936
3, 16926, Pitch_bend_c, 1, 8192
3, 16928, Pitch_bend_c, 1, 8544
3, 16930, Pitch_bend_c, 1, 8640
3, 16938, Pitch_bend_c, 1, 8576
3, 16942, Pitch_bend_c, 1, 8480
3, 16946, Pitch_bend_c, 1, 8416
3, 16952, Pitch_bend_c, 1, 8320
3, 16956, Pitch_bend_c, 1, 8256
3, 16972, Pitch_bend_c, 1, 8192
3, 17006, Note_on_c, 1, 40, 0
3, 17016, Note_on_c, 1, 41, 108
3, 17027, Note_on_c, 1, 41, 0
3, 17041, Pitch_bend_c, 1, 6944
3, 17041, Note_on_c, 1, 42, 100
3, 17043, Pitch_bend_c, 1, 7136
3, 17045, Pitch_bend_c, 1, 7360
3, 17047, Pitch_bend_c, 1, 7648
3, 17049, Pitch_bend_c, 1, 7904
3, 17051, Pitch_bend_c, 1, 8192
3, 17053, Pitch_bend_c, 1, 8576
3, 17055, Pitch_bend_c, 1, 8672
3, 17063, Pitch_bend_c, 1, 8608
3, 17067, Pitch_bend_c, 1, 8512
3, 17069, Pitch_bend_c, 1, 8448
3, 17071, Pitch_bend_c, 1, 8384
3, 17075, Pitch_bend_c, 1, 8320
3, 17095, Pitch_bend_c, 1, 8192
3, 17127, Note_on_c, 1, 42, 0
3, 17136, Note_on_c, 1, 37, 108
3, 17149, Note_on_c, 1, 37, 0
3, 17157, Note_on_c, 1, 38, 101
3, 17216, Note_on_c, 1, 38, 0
3, 17216, Note_on_c, 1, 45, 105
3, 17237, Note_on_c, 1, 45, 0
3, 17273, Pitch_bend_c, 1, 6976
3, 17273, Note_on_c, 1, 43, 102
3, 17275, Pitch_bend_c, 1, 7200
3, 17277, Pitch_bend_c, 1, 7424
3, 17279, Pitch_bend_c, 1, 7744
3, 17281, Pitch_bend_c, 1, 8032
3, 17283, Pitch_bend_c, 1, 8320
3, 17285, Pitch_bend_c, 1, 8608
3, 17287, Pitch_bend_c, 1, 8704
3, 17295, Pitch_bend_c, 1, 8576
3, 17297, Pitch_bend_c, 1, 8480
3, 17303, Pitch_bend_c, 1, 8384
3, 17307, Pitch_bend_c, 1, 8320
3, 17325, Pitch_bend_c, 1, 8192
3, 17358, Note_on_c, 1, 43, 0
3, 17365, Note_on_c, 1, 38, 104
3, 17382, Note_on_c, 1, 38, 0
3, 17390, Note_on_c, 1, 32, 107
3, 17414, Note_on_c, 1, 32, 0
3, 17450, Pitch_bend_c, 1, 6912
3, 17450, Note_on_c, 1, 30, 102
3, 17452, Pitch_bend_c, 1, 7200
3, 17454, Pitch_bend_c, 1, 7616
3, 17456, Pitch_bend_c, 1, 8128
3, 17458, Pitch_bend_c, 1, 8576
3, 17460, Pitch_bend_c, 1, 8736
3, 17464, Pitch_bend_c, 1, 8640
3, 17466, Pitch_bend_c, 1, 8576
3, 17468, Pitch_bend_c, 1, 8512
3, 17470, Pitch_bend_c, 1, 8416
3, 17472, Pitch_bend_c, 1, 8320
3, 17486, Pitch_bend_c, 1, 8192
3, 17507, Note_on_c, 1, 30, 0
3, 17512, Pitch_bend_c, 1, 6912
3, 17512, Note_on_c, 1, 31, 103
3, 17514, Pitch_bend_c, 1, 7072
3, 17516, Pitch_bend_c, 1, 7296
3, 17518, Pitch_bend_c, 1, 7616
3, 17520, Pitch_bend_c, 1, 7904
3, 17522, Pitch_bend_c, 1, 8192
3, 17524, Pitch_bend_c, 1, 8576
3, 17526, Pitch_bend_c, 1, 8704
3, 17534, Pitch_bend_c, 1, 8640
3, 17536, Pitch_bend_c, 1, 8576
3, 17538, Pitch_bend_c, 1, 8512
3, 17542, Pitch_bend_c, 1, 8448
3, 17548, Pitch_bend_c, 1, 8320
3, 17568, Pitch_bend_c, 1, 8192
3, 17601, Note_on_c, 1, 31, 0
3, 17611, Note_on_c, 1, 38, 103
3, 17623, Note_on_c, 1, 38, 0
3, 17632, Pitch_bend_c, 1, 6944
3, 17632, Note_on_c, 1, 43, 103
3, 17634, Pitch_bend_c, 1, 7232
3, 17636, Pitch_bend_c, 1, 7744
3, 17638, Pitch_bend_c, 1, 8128
3, 17640, Pitch_bend_c, 1, 8640
3, 17642, Pitch_bend_c, 1, 8736
3, 17646, Pitch_bend_c, 1, 8640
3, 17648, Pitch_bend_c, 1, 8512
3, 17650, Pitch_bend_c, 1, 8448
3, 17654, Pitch_bend_c, 1, 8320
3, 17668, Pitch_bend_c, 1, 8192
3, 17688, Note_on_c, 1, 43, 0
3, 17695, Pitch_bend_c, 1, 6816
3, 17695, Note_on_c, 1, 31, 100
3, 17697, Pitch_bend_c, 1, 7136
3, 17699, Pitch_bend_c, 1, 7584
3, 17701, Pitch_bend_c, 1, 8128
3, 17703, Pitch_bend_c, 1, 8608
3, 17705, Pitch_bend_c, 1, 8768
3, 17709, Pitch_bend_c, 1, 8672
3, 17711, Pitch_bend_c, 1, 8608
3, 17713, Pitch_bend_c, 1, 8544
3, 17715, Pitch_bend_c, 1, 8416
3, 17717, Pitch_bend_c, 1, 8352
3, 17721, Pitch_bend_c, 1, 8288
3, 17731, Pitch_bend_c, 1, 8192
3, 17752, Note_on_c, 1, 31, 0
3, 17757, Pitch_bend_c, 1, 6944
3, 17757, Note_on_c, 1, 42, 103
3, 17759, Pitch_bend_c, 1, 7168
3, 17761, Pitch_bend_c, 1, 7424
3, 17763, Pitch_bend_c, 1, 7744
3, 17765, Pitch_bend_c, 1, 8032
3, 17767, Pitch_bend_c, 1, 8320
3, 17769, Pitch_bend_c, 1, 8640
3, 17771, Pitch_bend_c, 1, 8736
3, 17777, Pitch_bend_c, 1, 8672
3, 17779, Pitch_bend_c, 1, 8576
3, 17781, Pitch_bend_c, 1, 8512
3, 17785, Pitch_bend_c, 1, 8448
3, 17791, Pitch_bend_c, 1, 8320
3, 17809, Pitch_bend_c, 1, 8192
3, 17841, Note_on_c, 1, 42, 0
3, 17850, Note_on_c, 1, 38, 108
3, 17862, Note_on_c, 1, 38, 0
3, 17873, Note_on_c, 1, 30, 106
3, 17892, Note_on_c, 1, 30, 0
3, 17933, Pitch_bend_c, 1, 6848
3, 17933, Note_on_c, 1, 36, 102
3, 17935, Pitch_bend_c, 1, 7168
3, 17937, Pitch_bend_c, 1, 7712
3, 17939, Pitch_bend_c, 1, 8128
3, 17941, Pitch_bend_c, 1, 8672
3, 17943, Pitch_bend_c, 1, 8768
3, 17947, Pitch_bend_c, 1, 8672
3, 17949, Pitch_bend_c, 1, 8512
3, 17953, Pitch_bend_c, 1, 8416
3, 17955, Pitch_bend_c, 1, 8352
3, 17959, Pitch_bend_c, 1, 8288
3, 17969, Pitch_bend_c, 1, 8192
3, 17989, Note_on_c, 1, 36, 0
3, 17994, Pitch_bend_c, 1, 6976
3, 17994, Note_on_c, 1, 38, 103
3, 17996, Pitch_bend_c, 1, 7136
3, 17998, Pitch_bend_c, 1, 7264
3, 18000, Pitch_bend_c, 1, 7520
3, 18002, Pitch_bend_c, 1, 7744
3, 18004, Pitch_bend_c, 1, 7904
3, 18006, Pitch_bend_c, 1, 8192
3, 18008, Pitch_bend_c, 1, 8448
3, 18010, Pitch_bend_c, 1, 8608
3, 18012, Pitch_bend_c, 1, 8704
3, 18022, Pitch_bend_c, 1, 8608
3, 18026, Pitch_bend_c, 1, 8480
3, 18032, Pitch_bend_c, 1, 8384
3, 18036, Pitch_bend_c, 1, 8320
3, 18062, Pitch_bend_c, 1, 8192
3, 18103, Note_on_c, 1, 38, 0
3, 18114, Pitch_bend_c, 1, 3936
3, 18114, Note_on_c, 1, 30, 103
3, 18122, Pitch_bend_c, 1, 4096
3, 18124, Pitch_bend_c, 1, 4256
3, 18126, Pitch_bend_c, 1, 4672
3, 18128, Pitch_bend_c, 1, 5216
3, 18130, Pitch_bend_c, 1, 6432
3, 18132, Pitch_bend_c, 1, 6976
3, 18134, Pitch_bend_c, 1, 7520
3, 18136, Pitch_bend_c, 1, 7808
3, 18138, Pitch_bend_c, 1, 7968
3, 18140, Pitch_bend_c, 1, 8096
3, 18154, Pitch_bend_c, 1, 8192
3, 18215, Note_on_c, 1, 30, 0
3, 18215, Note_on_c, 1, 38, 108
3, 18226, Note_on_c, 1, 38, 0
3, 18238, Pitch_bend_c, 1, 6944
3, 18238, Note_on_c, 1, 29, 103
3, 18240, Pitch_bend_c, 1, 7232
3, 18242, Pitch_bend_c, 1, 7648
3, 18244, Pitch_bend_c, 1, 8032
3, 18246, Pitch_bend_c, 1, 8576
3, 18248, Pitch_bend_c, 1, 8736
3, 18252, Pitch_bend_c, 1, 8672
3, 18254, Pitch_bend_c, 1, 8576
3, 18256, Pitch_bend_c, 1, 8512
3, 18258, Pitch_bend_c, 1, 8448
3, 18262, Pitch_bend_c, 1, 8320
3, 18276, Pitch_bend_c, 1, 8192
3, 18298, Note_on_c, 1, 29, 0
3, 18304, Note_on_c, 1, 43, 102
3, 18339, Note_on_c, 1, 43, 0
3, 18358, Note_on_c, 1, 41, 112
3, 18403, Note_on_c, 1, 41, 0
3, 18422, Note_on_c, 1, 38, 98
3, 18428, Note_on_c, 1, 38, 0
3, 18480, Pitch_bend_c, 1, 6944
3, 18480, Note_on_c, 1, 35, 89
3, 18482, Pitch_bend_c, 1, 7136
3, 18484, Pitch_bend_c, 1, 7360
3, 18486, Pitch_bend_c, 1, 7648
3, 18488, Pitch_bend_c, 1, 7904
3, 18490, Pitch_bend_c, 1, 8192
3, 18492, Pitch_bend_c, 1, 8576
3, 18494, Pitch_bend_c, 1, 8672
3, 18502, Pitch_bend_c, 1, 8608
3, 18506, Pitch_bend_c, 1, 8512
3, 18508, Pitch_bend_c, 1, 8448
3, 18510, Pitch_bend_c, 1, 8384
3, 18514, Pitch_bend_c, 1, 8320
3, 18534, Pitch_bend_c, 1, 8192
3, 18567, Note_on_c, 1, 35, 0
3, 18602, Pitch_bend_c, 1, 7072
3, 18602, Note_on_c, 1, 38, 103
3, 18604, Pitch_bend_c, 1, 7232
3, 18606, Pitch_bend_c, 1, 7424
3, 18608, Pitch_bend_c, 1, 7680
3, 18610, Pitch_bend_c, 1, 7936
3, 18612, Pitch_bend_c, 1, 8192
3, 18614, Pitch_bend_c, 1, 8544
3, 18616, Pitch_bend_c, 1, 8640
3, 18624, Pitch_bend_c, 1, 8576
3, 18628, Pitch_bend_c, 1, 8480
3, 18630, Pitch_bend_c, 1, 8416
3, 18636, Pitch_bend_c, 1, 8320
3, 18640, Pitch_bend_c, 1, 8256
3, 18656, Pitch_bend_c, 1, 8192
3, 18688, Note_on_c, 1, 38, 0
3, 18696, Note_on_c, 1, 35, 107
3, 18712, Note_on_c, 1, 35, 0
3, 18719, Pitch_bend_c, 1, 6784
3, 18719, Note_on_c, 1, 36, 99
3, 18721, Pitch_bend_c, 1, 6976
3, 18723, Pitch_bend_c, 1, 7104
3, 18725, Pitch_bend_c, 1, 7424
3, 18727, Pitch_bend_c, 1, 7680
3, 18729, Pitch_bend_c, 1, 7872
3, 18731, Pitch_bend_c, 1, 8192
3, 18733, Pitch_bend_c, 1, 8480
3, 18735, Pitch_bend_c, 1, 8736
3, 18737, Pitch_bend_c, 1, 8800
3, 18745, Pitch_bend_c, 1, 8672
3, 18751, Pitch_bend_c, 1, 8544
3, 18755, Pitch_bend_c, 1, 8480
3, 18757, Pitch_bend_c, 1, 8416
3, 18761, Pitch_bend_c, 1, 8352
3, 18767, Pitch_bend_c, 1, 8288
3, 18785, Pitch_bend_c, 1, 8192
3, 18826, Note_on_c, 1, 36, 0
3, 18836, Pitch_bend_c, 1, 6976
3, 18836, Note_on_c, 1, 38, 100
3, 18838, Pitch_bend_c, 1, 7136
3, 18840, Pitch_bend_c, 1, 7360
3, 18842, Pitch_bend_c, 1, 7648
3, 18844, Pitch_bend_c, 1, 7904
3, 18846, Pitch_bend_c, 1, 8192
3, 18848, Pitch_bend_c, 1, 8576
3, 18850, Pitch_bend_c, 1, 8672
3, 18858, Pitch_bend_c, 1, 8608
3, 18862, Pitch_bend_c, 1, 8480
3, 18868, Pitch_bend_c, 1, 8384
3, 18870, Pitch_bend_c, 1, 8320
3, 18890, Pitch_bend_c, 1, 8192
3, 18924, Note_on_c, 1, 38, 0
3, 18934, Note_on_c, 1, 36, 108
3, 18940, Note_on_c, 1, 36, 0
3, 18952, Pitch_bend_c, 1, 6976
3, 18952, Note_on_c, 1, 39, 102
3, 18954, Pitch_bend_c, 1, 7136
3, 18956, Pitch_bend_c, 1, 7360
3, 18958, Pitch_bend_c, 1, 7648
3, 18960, Pitch_bend_c, 1, 7808
3, 18962, Pitch_bend_c, 1, 8128
3, 18964, Pitch_bend_c, 1, 8448
3, 18966, Pitch_bend_c, 1, 8608
3, 18968, Pitch_bend_c, 1, 8704
3, 18976, Pitch_bend_c, 1, 8608
3, 18980, Pitch_bend_c, 1, 8480
3, 18986, Pitch_bend_c, 1, 8384
3, 18990, Pitch_bend_c, 1, 8320
3, 19010, Pitch_bend_c, 1, 8192
3, 19047, Note_on_c, 1, 39, 0
3, 19056, Note_on_c, 1, 43, 108
3, 19062, Note_on_c, 1, 43, 0
3, 19085, Note_on_c, 1, 50, 100
3, 19139, Note_on_c, 1, 50, 0
3, 19139, Pitch_bend_c, 1, 7104
3, 19139, Note_on_c, 1, 49, 99
3, 19141, Pitch_bend_c, 1, 7360
3, 19143, Pitch_bend_c, 1, 7808
3, 19145, Pitch_bend_c, 1, 8192
3, 19147, Pitch_bend_c, 1, 8576
3, 19149, Pitch_bend_c, 1, 8640
3, 19153, Pitch_bend_c, 1, 8512
3, 19155, Pitch_bend_c, 1, 8448
3, 19159, Pitch_bend_c, 1, 8384
3, 19161, Pitch_bend_c, 1, 8320
3, 19163, Pitch_bend_c, 1, 8256
3, 19173, Pitch_bend_c, 1, 8192
3, 19193, Note_on_c, 1, 49, 0
3, 19199, Pitch_bend_c, 1, 6816
3, 19199, Note_on_c, 1, 48, 101
3, 19201, Pitch_bend_c, 1, 7008
3, 19203, Pitch_bend_c, 1, 7264
3, 19205, Pitch_bend_c, 1, 7584
3, 19207, Pitch_bend_c, 1, 7872
3, 19209, Pitch_bend_c, 1, 8192
3, 19211, Pitch_bend_c, 1, 8608
3, 19213, Pitch_bend_c, 1, 8736
3, 19221, Pitch_bend_c, 1, 8672
3, 19223, Pitch_bend_c, 1, 8608
3, 19225, Pitch_bend_c, 1, 8544
3, 19227, Pitch_bend_c, 1, 8480
3, 19229, Pitch_bend_c, 1, 8416
3, 19233, Pitch_bend_c, 1, 8352
3, 19239, Pitch_bend_c, 1, 8288
3, 19253, Pitch_bend_c, 1, 8192
3, 19286, Note_on_c, 1, 48, 0
3, 19293, Note_on_c, 1, 39, 103
3, 19300, Note_on_c, 1, 39, 0
3, 19316, Pitch_bend_c, 1, 7104
3, 19316, Note_on_c, 1, 43, 102
3, 19318, Pitch_bend_c, 1, 7264
3, 19320, Pitch_bend_c, 1, 7360
3, 19322, Pitch_bend_c, 1, 7520
3, 19324, Pitch_bend_c, 1, 7808
3, 19326, Pitch_bend_c, 1, 7936
3, 19328, Pitch_bend_c, 1, 8128
3, 19330, Pitch_bend_c, 1, 8320
3, 19332, Pitch_bend_c, 1, 8576
3, 19336, Pitch_bend_c, 1, 8640
3, 19344, Pitch_bend_c, 1, 8576
3, 19346, Pitch_bend_c, 1, 8512
3, 19348, Pitch_bend_c, 1, 8448
3, 19356, Pitch_bend_c, 1, 8384
3, 19360, Pitch_bend_c, 1, 8320
3, 19366, Pitch_bend_c, 1, 8256
3, 19386, Pitch_bend_c, 1, 8192
3, 19429, Note_on_c, 1, 43, 0
3, 19442, Pitch_bend_c, 1, 6912
3, 19442, Note_on_c, 1, 45, 100
3, 19444, Pitch_bend_c, 1, 7104
3, 19446, Pitch_bend_c, 1, 7328
3, 19448, Pitch_bend_c, 1, 7616
3, 19450, Pitch_bend_c, 1, 7904
3, 19452, Pitch_bend_c, 1, 8192
3, 19454, Pitch_bend_c, 1, 8576
3, 19456, Pitch_bend_c, 1, 8672
3, 19458, Pitch_bend_c, 1, 8736
3, 19464, Pitch_bend_c, 1, 8640
3, 19466, Pitch_bend_c, 1, 8576
3, 19468, Pitch_bend_c, 1, 8512
3, 19472, Pitch_bend_c, 1, 8448
3, 19478, Pitch_bend_c, 1, 8320
3, 19498, Pitch_bend_c, 1, 8192
3, 19532, Note_on_c, 1, 45, 0
3, 19543, Note_on_c, 1, 37, 108
3, 19558, Note_on_c, 1, 37, 0
3, 19563, Pitch_bend_c, 1, 7072
3, 19563, Note_on_c, 1, 38, 100
3, 19565, Pitch_bend_c, 1, 7328
3, 19567, Pitch_bend_c, 1, 7776
3, 19569, Pitch_bend_c, 1, 8192
3, 19571, Pitch_bend_c, 1, 8576
3, 19573, Pitch_bend_c, 1, 8672
3, 19577, Pitch_bend_c, 1, 8544
3, 19579, Pitch_bend_c, 1, 8480
3, 19581, Pitch_bend_c, 1, 8416
3, 19585, Pitch_bend_c, 1, 8320
3, 19587, Pitch_bend_c, 1, 8256
3, 19597, Pitch_bend_c, 1, 8192
3, 19617, Note_on_c, 1, 38, 0
3, 19623, Note_on_c, 1, 45, 104
3, 19635, Note_on_c, 1, 45, 0
3, 19680, Pitch_bend_c, 1, 6880
3, 19680, Note_on_c, 1, 43, 101
3, 19682, Pitch_bend_c, 1, 7072
3, 19684, Pitch_bend_c, 1, 7200
3, 19686, Pitch_bend_c, 1, 7488
3, 19688, Pitch_bend_c, 1, 7712
3, 19690, Pitch_bend_c, 1, 8032
3, 19692, Pitch_bend_c, 1, 8192
3, 19694, Pitch_bend_c, 1, 8576
3, 19696, Pitch_bend_c, 1, 8704
3, 19706, Pitch_bend_c, 1, 8640
3, 19708, Pitch_bend_c, 1, 8576
3, 19710, Pitch_bend_c, 1, 8512
3, 19714, Pitch_bend_c, 1, 8448
3, 19722, Pitch_bend_c, 1, 8320
3, 19744, Pitch_bend_c, 1, 8192
3, 19785, Note_on_c, 1, 43, 0
3, 19797, Pitch_bend_c, 1, 4096
3, 19797, Note_on_c, 1, 38, 103
3, 19805, Pitch_bend_c, 1, 4224
3, 19809, Pitch_bend_c, 1, 4384
3, 19811, Pitch_bend_c, 1, 4608
3, 19813, Pitch_bend_c, 1, 5024
3, 19815, Pitch_bend_c, 1, 5632
3, 19817, Pitch_bend_c, 1, 6496
3, 19819, Pitch_bend_c, 1, 7232
3, 19821, Pitch_bend_c, 1, 7520
3, 19823, Pitch_bend_c, 1, 7808
3, 19825, Pitch_bend_c, 1, 7968
3, 19827, Pitch_bend_c, 1, 8032
3, 19829, Pitch_bend_c, 1, 8096
3, 19845, Pitch_bend_c, 1, 8192
3, 19919, Note_on_c, 1, 38, 0
3, 19919, Pitch_bend_c, 1, 3936
3, 19919, Note_on_c, 1, 31, 100
3, 19927, Pitch_bend_c, 1, 4096
3, 19929, Pitch_bend_c, 1, 4160
3, 19931, Pitch_bend_c, 1, 4384
3, 19933, Pitch_bend_c, 1, 4928
3, 19935, Pitch_bend_c, 1, 5536
3, 19937, Pitch_bend_c, 1, 6432
3, 19939, Pitch_bend_c, 1, 7200
3, 19941, Pitch_bend_c, 1, 7520
3, 19943, Pitch_bend_c, 1, 7808
3, 19945, Pitch_bend_c, 1, 7968
3, 19947, Pitch_bend_c, 1, 8096
3, 19963, Pitch_bend_c, 1, 8192
3, 20029, Note_on_c, 1, 31, 0
3, 20029, Note_on_c, 1, 38, 107
3, 20037, Note_on_c, 1, 38, 0
3, 20041, Pitch_bend_c, 1, 6720
3, 20041, Note_on_c, 1, 43, 103
3, 20043, Pitch_bend_c, 1, 6912
3, 20045, Pitch_bend_c, 1, 7200
3, 20047, Pitch_bend_c, 1, 7552
3, 20049, Pitch_bend_c, 1, 7872
3, 20051, Pitch_bend_c, 1, 8192
3, 20053, Pitch_bend_c, 1, 8640
3, 20055, Pitch_bend_c, 1, 8768
3, 20057, Pitch_bend_c, 1, 8832
3, 20061, Pitch_bend_c, 1, 8768
3, 20063, Pitch_bend_c, 1, 8704
3, 20065, Pitch_bend_c, 1, 8640
3, 20067, Pitch_bend_c, 1, 8544
3, 20071, Pitch_bend_c, 1, 8448
3, 20075, Pitch_bend_c, 1, 8352
3, 20081, Pitch_bend_c, 1, 8288
3, 20095, Pitch_bend_c, 1, 8192
3, 20128, Note_on_c, 1, 43, 0
3, 20139, Note_on_c, 1, 39, 105
3, 20155, Note_on_c, 1, 39, 0
3, 20158, Pitch_bend_c, 1, 6848
3, 20158, Note_on_c, 1, 32, 103
3, 20160, Pitch_bend_c, 1, 7168
3, 20162, Pitch_bend_c, 1, 7712
3, 20164, Pitch_bend_c, 1, 8128
3, 20166, Pitch_bend_c, 1, 8672
3, 20168, Pitch_bend_c, 1, 8768
3, 20172, Pitch_bend_c, 1, 8672
3, 20174, Pitch_bend_c, 1, 8512
3, 20178, Pitch_bend_c, 1, 8416
3, 20180, Pitch_bend_c, 1, 8352
3, 20184, Pitch_bend_c, 1, 8288
3, 20192, Pitch_bend_c, 1, 8192
3, 20213, Note_on_c, 1, 32, 0
3, 20219, Pitch_bend_c, 1, 6656
3, 20219, Note_on_c, 1, 48, 100
3, 20221, Pitch_bend_c, 1, 6944
3, 20223, Pitch_bend_c, 1, 7232
3, 20225, Pitch_bend_c, 1, 7616
3, 20227, Pitch_bend_c, 1, 8000
3, 20229, Pitch_bend_c, 1, 8352
3, 20231, Pitch_bend_c, 1, 8736
3, 20233, Pitch_bend_c, 1, 8832
3, 20241, Pitch_bend_c, 1, 8672
3, 20243, Pitch_bend_c, 1, 8576
3, 20247, Pitch_bend_c, 1, 8512
3, 20249, Pitch_bend_c, 1, 8448
3, 20251, Pitch_bend_c, 1, 8352
3, 20257, Pitch_bend_c, 1, 8288
3, 20271, Pitch_bend_c, 1, 8192
3, 20302, Note_on_c, 1, 48, 0
3, 20312, Note_on_c, 1, 39, 107
3, 20326, Note_on_c, 1, 39, 0
3, 20335, Pitch_bend_c, 1, 6720
3, 20335, Note_on_c, 1, 32, 99
3, 20337, Pitch_bend_c, 1, 7072
3, 20339, Pitch_bend_c, 1, 7648
3, 20341, Pitch_bend_c, 1, 8128
3, 20343, Pitch_bend_c, 1, 8704
3, 20345, Pitch_bend_c, 1, 8832
3, 20349, Pitch_bend_c, 1, 8704
3, 20351, Pitch_bend_c, 1, 8544
3, 20355, Pitch_bend_c, 1, 8448
3, 20357, Pitch_bend_c, 1, 8352
3, 20361, Pitch_bend_c, 1, 8288
3, 20371, Pitch_bend_c, 1, 8192
3, 20391, Note_on_c, 1, 32, 0
3, 20396, Pitch_bend_c, 1, 7104
3, 20396, Note_on_c, 1, 38, 102
3, 20398, Pitch_bend_c, 1, 7296
3, 20400, Pitch_bend_c, 1, 7520
3, 20402, Pitch_bend_c, 1, 7808
3, 20404, Pitch_bend_c, 1, 8064
3, 20406, Pitch_bend_c, 1, 8320
3, 20408, Pitch_bend_c, 1, 8576
3, 20410, Pitch_bend_c, 1, 8640
3, 20416, Pitch_bend_c, 1, 8576
3, 20418, Pitch_bend_c, 1, 8512
3, 20420, Pitch_bend_c, 1, 8448
3, 20424, Pitch_bend_c, 1, 8384
3, 20428, Pitch_bend_c, 1, 8320
3, 20432, Pitch_bend_c, 1, 8256
3, 20446, Pitch_bend_c, 1, 8192
3, 20477, Note_on_c, 1, 38, 0
3, 20485, Note_on_c, 1, 38, 108
3, 20509, Note_on_c, 1, 38, 0
3, 20511, Pitch_bend_c, 1, 6816
3, 20511, Note_on_c, 1, 42, 103
3, 20513, Pitch_bend_c, 1, 7136
3, 20515, Pitch_bend_c, 1, 7584
3, 20517, Pitch_bend_c, 1, 8128
3, 20519, Pitch_bend_c, 1, 8608
3, 20521, Pitch_bend_c, 1, 8768
3, 20527, Pitch_bend_c, 1, 8608
3, 20529, Pitch_bend_c, 1, 8544
3, 20531, Pitch_bend_c, 1, 8416
3, 20535, Pitch_bend_c, 1, 8352
3, 20537, Pitch_bend_c, 1, 8288
3, 20547, Pitch_bend_c, 1, 8192
3, 20569, Note_on_c, 1, 42, 0
3, 20574, Note_on_c, 1, 45, 104
3, 20606, Note_on_c, 1, 45, 0
3, 20633, Pitch_bend_c, 1, 6944
3, 20633, Note_on_c, 1, 43, 103
3, 20635, Pitch_bend_c, 1, 7136
3, 20637, Pitch_bend_c, 1, 7232
3, 20639, Pitch_bend_c, 1, 7520
3, 20641, Pitch_bend_c, 1, 7744
3, 20643, Pitch_bend_c, 1, 7904
3, 20645, Pitch_bend_c, 1, 8192
3, 20647, Pitch_bend_c, 1, 8448
3, 20649, Pitch_bend_c, 1, 8608
3, 20651, Pitch_bend_c, 1, 8704
3, 20661, Pitch_bend_c, 1, 8576
3, 20665, Pitch_bend_c, 1, 8512
3, 20669, Pitch_bend_c, 1, 8448
3, 20671, Pitch_bend_c, 1, 8384
3, 20675, Pitch_bend_c, 1, 8320
3, 20699, Pitch_bend_c, 1, 8192
3, 20741, Note_on_c, 1, 43, 0
3, 20753, Pitch_bend_c, 1, 3936
3, 20753, Note_on_c, 1, 38, 103
3, 20761, Pitch_bend_c, 1, 4096
3, 20765, Pitch_bend_c, 1, 4256
3, 20767, Pitch_bend_c, 1, 4480
3, 20769, Pitch_bend_c, 1, 4928
3, 20771, Pitch_bend_c, 1, 5536
3, 20773, Pitch_bend_c, 1, 6432
3, 20775, Pitch_bend_c, 1, 7200
3, 20777, Pitch_bend_c, 1, 7520
3, 20779, Pitch_bend_c, 1, 7808
3, 20781, Pitch_bend_c, 1, 7968
3, 20783, Pitch_bend_c, 1, 8032
3, 20785, Pitch_bend_c, 1, 8096
3, 20801, Pitch_bend_c, 1, 8192
3, 20875, Note_on_c, 1, 38, 0
3, 20875, Pitch_bend_c, 1, 4096
3, 20875, Note_on_c, 1, 31, 102
3, 20883, Pitch_bend_c, 1, 4224
3, 20885, Pitch_bend_c, 1, 4384
3, 20887, Pitch_bend_c, 1, 4608
3, 20889, Pitch_bend_c, 1, 5312
3, 20891, Pitch_bend_c, 1, 6144
3, 20893, Pitch_bend_c, 1, 7008
3, 20895, Pitch_bend_c, 1, 7360
3, 20897, Pitch_bend_c, 1, 7808
3, 20899, Pitch_bend_c, 1, 7968
3, 20901, Pitch_bend_c, 1, 8096
3, 20915, Pitch_bend_c, 1, 8192
3, 20978, Note_on_c, 1, 31, 0
3, 20978, Note_on_c, 1, 38, 107
3, 20984, Note_on_c, 1, 38, 0
3, 21001, Pitch_bend_c, 1, 6912
3, 21001, Note_on_c, 1, 38, 103
3, 21003, Pitch_bend_c, 1, 7232
3, 21005, Pitch_bend_c, 1, 7712
3, 21007, Pitch_bend_c, 1, 8192
3, 21009, Pitch_bend_c, 1, 8640
3, 21011, Pitch_bend_c, 1, 8736
3, 21015, Pitch_bend_c, 1, 8576
3, 21017, Pitch_bend_c, 1, 8512
3, 21019, Pitch_bend_c, 1, 8448
3, 21023, Pitch_bend_c, 1, 8320
3, 21035, Pitch_bend_c, 1, 8192
3, 21055, Note_on_c, 1, 38, 0
3, 21062, Pitch_bend_c, 1, 6976
3, 21062, Note_on_c, 1, 42, 100
3, 21064, Pitch_bend_c, 1, 7264
3, 21066, Pitch_bend_c, 1, 7744
3, 21068, Pitch_bend_c, 1, 8192
3, 21070, Pitch_bend_c, 1, 8672
3, 21076, Pitch_bend_c, 1, 8576
3, 21078, Pitch_bend_c, 1, 8480
3, 21082, Pitch_bend_c, 1, 8384
3, 21084, Pitch_bend_c, 1, 8320
3, 21096, Pitch_bend_c, 1, 8192
3, 21115, Note_on_c, 1, 42, 0
3, 21122, Pitch_bend_c, 1, 7136
3, 21122, Note_on_c, 1, 43, 103
3, 21124, Pitch_bend_c, 1, 7296
3, 21126, Pitch_bend_c, 1, 7488
3, 21128, Pitch_bend_c, 1, 7744
3, 21130, Pitch_bend_c, 1, 7968
3, 21132, Pitch_bend_c, 1, 8192
3, 21134, Pitch_bend_c, 1, 8416
3, 21136, Pitch_bend_c, 1, 8608
3, 21146, Pitch_bend_c, 1, 8512
3, 21148, Pitch_bend_c, 1, 8448
3, 21154, Pitch_bend_c, 1, 8352
3, 21158, Pitch_bend_c, 1, 8288
3, 21180, Pitch_bend_c, 1, 8192
3, 21214, Note_on_c, 1, 43, 0
3, 21222, Note_on_c, 1, 38, 108
3, 21232, Note_on_c, 1, 38, 0
3, 21240, Pitch_bend_c, 1, 6752
3, 21240, Note_on_c, 1, 44, 99
3, 21242, Pitch_bend_c, 1, 6944
3, 21244, Pitch_bend_c, 1, 7200
3, 21246, Pitch_bend_c, 1, 7552
3, 21248, Pitch_bend_c, 1, 7872
3, 21250, Pitch_bend_c, 1, 8128
3, 21252, Pitch_bend_c, 1, 8480
3, 21254, Pitch_bend_c, 1, 8768
3, 21264, Pitch_bend_c, 1, 8640
3, 21268, Pitch_bend_c, 1, 8544
3, 21270, Pitch_bend_c, 1, 8480
3, 21276, Pitch_bend_c, 1, 8352
3, 21282, Pitch_bend_c, 1, 8288
3, 21298, Pitch_bend_c, 1, 8192
3, 21333, Note_on_c, 1, 44, 0
3, 21341, Note_on_c, 1, 38, 108
3, 21347, Note_on_c, 1, 38, 0
3, 21360, Pitch_bend_c, 1, 7040
3, 21360, Note_on_c, 1, 43, 100
3, 21362, Pitch_bend_c, 1, 7264
3, 21364, Pitch_bend_c, 1, 7488
3, 21366, Pitch_bend_c, 1, 7776
3, 21368, Pitch_bend_c, 1, 8064
3, 21370, Pitch_bend_c, 1, 8320
3, 21372, Pitch_bend_c, 1, 8576
3, 21374, Pitch_bend_c, 1, 8672
3, 21382, Pitch_bend_c, 1, 8544
3, 21384, Pitch_bend_c, 1, 8480
3, 21388, Pitch_bend_c, 1, 8416
3, 21392, Pitch_bend_c, 1, 8320
3, 21398, Pitch_bend_c, 1, 8256
3, 21412, Pitch_bend_c, 1, 8192
3, 21443, Note_on_c, 1, 43, 0
3, 21454, Note_on_c, 1, 38, 109
3, 21460, Note_on_c, 1, 38, 0
3, 21476, Pitch_bend_c, 1, 6848
3, 21476, Note_on_c, 1, 41, 102
3, 21478, Pitch_bend_c, 1, 7168
3, 21480, Pitch_bend_c, 1, 7712
3, 21482, Pitch_bend_c, 1, 8192
3, 21484, Pitch_bend_c, 1, 8704
3, 21486, Pitch_bend_c, 1, 8768
3, 21490, Pitch_bend_c, 1, 8608
3, 21492, Pitch_bend_c, 1, 8512
3, 21496, Pitch_bend_c, 1, 8416
3, 21498, Pitch_bend_c, 1, 8320
3, 21510, Pitch_bend_c, 1, 8192
3, 21529, Note_on_c, 1, 41, 0
3, 21536, Note_on_c, 1, 35, 103
3, 21595, Note_on_c, 1, 35, 0
3, 21595, Pitch_bend_c, 1, 6976
3, 21595, Note_on_c, 1, 36, 100
3, 21597, Pitch_bend_c, 1, 7264
3, 21599, Pitch_bend_c, 1, 7648
3, 21601, Pitch_bend_c, 1, 8128
3, 21603, Pitch_bend_c, 1, 8576
3, 21605, Pitch_bend_c, 1, 8704
3, 21611, Pitch_bend_c, 1, 8576
3, 21613, Pitch_bend_c, 1, 8480
3, 21615, Pitch_bend_c, 1, 8384
3, 21619, Pitch_bend_c, 1, 8320
3, 21631, Pitch_bend_c, 1, 8192
3, 21653, Note_on_c, 1, 36, 0
3, 21660, Note_on_c, 1, 42, 108
3, 21685, Note_on_c, 1, 42, 0
3, 21694, Note_on_c, 1, 34, 106
3, 21708, Note_on_c, 1, 34, 0
3, 21716, Pitch_bend_c, 1, 7072
3, 21716, Note_on_c, 1, 38, 100
3, 21718, Pitch_bend_c, 1, 7232
3, 21720, Pitch_bend_c, 1, 7360
3, 21722, Pitch_bend_c, 1, 7584
3, 21724, Pitch_bend_c, 1, 7776
3, 21726, Pitch_bend_c, 1, 7936
3, 21728, Pitch_bend_c, 1, 8192
3, 21730, Pitch_bend_c, 1, 8416
3, 21732, Pitch_bend_c, 1, 8576
3, 21734, Pitch_bend_c, 1, 8672
3, 21742, Pitch_bend_c, 1, 8608
3, 21744, Pitch_bend_c, 1, 8544
3, 21748, Pitch_bend_c, 1, 8448
3, 21754, Pitch_bend_c, 1, 8384
3, 21758, Pitch_bend_c, 1, 8320
3, 21764, Pitch_bend_c, 1, 8256
3, 21782, Pitch_bend_c, 1, 8192
3, 21824, Note_on_c, 1, 38, 0
3, 21836, Pitch_bend_c, 1, 6784
3, 21836, Note_on_c, 1, 39, 99
3, 21838, Pitch_bend_c, 1, 6976
3, 21840, Pitch_bend_c, 1, 7136
3, 21842, Pitch_bend_c, 1, 7328
3, 21844, Pitch_bend_c, 1, 7680
3, 21846, Pitch_bend_c, 1, 7872
3, 21848, Pitch_bend_c, 1, 8128
3, 21850, Pitch_bend_c, 1, 8352
3, 21852, Pitch_bend_c, 1, 8672
3, 21854, Pitch_bend_c, 1, 8736
3, 21856, Pitch_bend_c, 1, 8800
3, 21862, Pitch_bend_c, 1, 8736
3, 21864, Pitch_bend_c, 1, 8672
3, 21866, Pitch_bend_c, 1, 8608
3, 21868, Pitch_bend_c, 1, 8544
3, 21874, Pitch_bend_c, 1, 8480
3, 21876, Pitch_bend_c, 1, 8416
3, 21880, Pitch_bend_c, 1, 8352
3, 21886, Pitch_bend_c, 1, 8288
3, 21906, Pitch_bend_c, 1, 8192
3, 21949, Note_on_c, 1, 39, 0
3, 21961, Note_on_c, 1, 43, 106
3, 21967, Note_on_c, 1, 43, 0
3, 22019, Note_on_c, 1, 44, 108
3, 22034, Note_on_c, 1, 44, 0
3, 22078, Pitch_bend_c, 1, 6752
3, 22078, Note_on_c, 1, 45, 100
3, 22080, Pitch_bend_c, 1, 7008
3, 22082, Pitch_bend_c, 1, 7296
3, 22084, Pitch_bend_c, 1, 7680
3, 22086, Pitch_bend_c, 1, 8000
3, 22088, Pitch_bend_c, 1, 8352
3, 22090, Pitch_bend_c, 1, 8704
3, 22092, Pitch_bend_c, 1, 8800
3, 22098, Pitch_bend_c, 1, 8736
3, 22100, Pitch_bend_c, 1, 8640
3, 22102, Pitch_bend_c, 1, 8544
3, 22106, Pitch_bend_c, 1, 8480
3, 22112, Pitch_bend_c, 1, 8352
3, 22116, Pitch_bend_c, 1, 8288
3, 22130, Pitch_bend_c, 1, 8192
3, 22162, Note_on_c, 1, 45, 0
3, 22169, Note_on_c, 1, 39, 105
3, 22175, Note_on_c, 1, 39, 0
3, 22194, Pitch_bend_c, 1, 6912
3, 22194, Note_on_c, 1, 46, 100
3, 22196, Pitch_bend_c, 1, 7104
3, 22198, Pitch_bend_c, 1, 7328
3, 22200, Pitch_bend_c, 1, 7488
3, 22202, Pitch_bend_c, 1, 7808
3, 22204, Pitch_bend_c, 1, 8032
3, 22206, Pitch_bend_c, 1, 8320
3, 22208, Pitch_bend_c, 1, 8576
3, 22210, Pitch_bend_c, 1, 8672
3, 22212, Pitch_bend_c, 1, 8736
3, 22218, Pitch_bend_c, 1, 8672
3, 22222, Pitch_bend_c, 1, 8576
3, 22224, Pitch_bend_c, 1, 8512
3, 22228, Pitch_bend_c, 1, 8448
3, 22234, Pitch_bend_c, 1, 8320
3, 22256, Pitch_bend_c, 1, 8192
3, 22295, Note_on_c, 1, 46, 0
3, 22306, Note_on_c, 1, 37, 107
3, 22312, Note_on_c, 1, 37, 0
3, 22314, Pitch_bend_c, 1, 6720
3, 22314, Note_on_c, 1, 45, 102
3, 22316, Pitch_bend_c, 1, 6912
3, 22318, Pitch_bend_c, 1, 7168
3, 22320, Pitch_bend_c, 1, 7520
3, 22322, Pitch_bend_c, 1, 7840
3, 22324, Pitch_bend_c, 1, 8192
3, 22326, Pitch_bend_c, 1, 8640
3, 22328, Pitch_bend_c, 1, 8768
3, 22330, Pitch_bend_c, 1, 8832
3, 22334, Pitch_bend_c, 1, 8768
3, 22336, Pitch_bend_c, 1, 8704
3, 22338, Pitch_bend_c, 1, 8640
3, 22340, Pitch_bend_c, 1, 8544
3, 22344, Pitch_bend_c, 1, 8448
3, 22348, Pitch_bend_c, 1, 8352
3, 22354, Pitch_bend_c, 1, 8288
3, 22368, Pitch_bend_c, 1, 8192
3, 22401, Note_on_c, 1, 45, 0
3, 22408, Note_on_c, 1, 40, 102
3, 22415, Note_on_c, 1, 40, 0
3, 22435, Note_on_c, 1, 37, 114
3, 22478, Note_on_c, 1, 37, 0
3, 22493, Note_on_c, 1, 34, 102
3, 22540, Note_on_c, 1, 34, 0
3, 22554, Pitch_bend_c, 1, 7040
3, 22554, Note_on_c, 1, 33, 92
3, 22556, Pitch_bend_c, 1, 7200
3, 22558, Pitch_bend_c, 1, 7392
3, 22560, Pitch_bend_c, 1, 7680
3, 22562, Pitch_bend_c, 1, 7936
3, 22564, Pitch_bend_c, 1, 8192
3, 22566, Pitch_bend_c, 1, 8544
3, 22568, Pitch_bend_c, 1, 8640
3, 22576, Pitch_bend_c, 1, 8576
3, 22580, Pitch_bend_c, 1, 8480
3, 22584, Pitch_bend_c, 1, 8416
3, 22590, Pitch_bend_c, 1, 8320
3, 22594, Pitch_bend_c, 1, 8256
3, 22610, Pitch_bend_c, 1, 8192
3, 22643, Note_on_c, 1, 33, 0
3, 22672, Note_on_c, 1, 37, 105
3, 22677, Note_on_c, 1, 37, 0
3, 22677, Pitch_bend_c, 1, 6720
3, 22677, Note_on_c, 1, 39, 103
3, 22679, Pitch_bend_c, 1, 6976
3, 22681, Pitch_bend_c, 1, 7264
3, 22683, Pitch_bend_c, 1, 7648
3, 22685, Pitch_bend_c, 1, 8000
3, 22687, Pitch_bend_c, 1, 8352
3, 22689, Pitch_bend_c, 1, 8704
3, 22691, Pitch_bend_c, 1, 8832
3, 22697, Pitch_bend_c, 1, 8768
3, 22699, Pitch_bend_c, 1, 8640
3, 22701, Pitch_bend_c, 1, 8544
3, 22707, Pitch_bend_c, 1, 8448
3, 22711, Pitch_bend_c, 1, 8352
3, 22715, Pitch_bend_c, 1, 8288
3, 22729, Pitch_bend_c, 1, 8192
3, 22762, Note_on_c, 1, 39, 0
3, 22772, Note_on_c, 1, 37, 108
3, 22793, Note_on_c, 1, 37, 0
3, 22795, Pitch_bend_c, 1, 6688
3, 22795, Note_on_c, 1, 38, 103
3, 22797, Pitch_bend_c, 1, 6880
3, 22799, Pitch_bend_c, 1, 7168
3, 22801, Pitch_bend_c, 1, 7520
3, 22803, Pitch_bend_c, 1, 7712
3, 22805, Pitch_bend_c, 1, 8128
3, 22807, Pitch_bend_c, 1, 8512
3, 22809, Pitch_bend_c, 1, 8768
3, 22811, Pitch_bend_c, 1, 8832
3, 22817, Pitch_bend_c, 1, 8768
3, 22819, Pitch_bend_c, 1, 8704
3, 22823, Pitch_bend_c, 1, 8576
3, 22827, Pitch_bend_c, 1, 8512
3, 22829, Pitch_bend_c, 1, 8448
3, 22831, Pitch_bend_c, 1, 8352
3, 22837, Pitch_bend_c, 1, 8288
3, 22853, Pitch_bend_c, 1, 8192
3, 22889, Note_on_c, 1, 38, 0
3, 22900, Note_on_c, 1, 37, 105
3, 22918, Note_on_c, 1, 37, 0
3, 22919, Note_on_c, 1, 52, 102
3, 22976, Note_on_c, 1, 52, 0
3, 22976, Pitch_bend_c, 1, 6816
3, 22976, Note_on_c, 1, 50, 102
3, 22978, Pitch_bend_c, 1, 7136
3, 22980, Pitch_bend_c, 1, 7680
3, 22982, Pitch_bend_c, 1, 8128
3, 22984, Pitch_bend_c, 1, 8672
3, 22986, Pitch_bend_c, 1, 8768
3, 22990, Pitch_bend_c, 1, 8672
3, 22992, Pitch_bend_c, 1, 8544
3, 22994, Pitch_bend_c, 1, 8480
3, 22996, Pitch_bend_c, 1, 8416
3, 22998, Pitch_bend_c, 1, 8352
3, 23002, Pitch_bend_c, 1, 8288
3, 23010, Pitch_bend_c, 1, 8192
3, 23031, Note_on_c, 1, 50, 0
3, 23038, Pitch_bend_c, 1, 6816
3, 23038, Note_on_c, 1, 43, 103
3, 23040, Pitch_bend_c, 1, 7008
3, 23042, Pitch_bend_c, 1, 7136
3, 23044, Pitch_bend_c, 1, 7456
3, 23046, Pitch_bend_c, 1, 7680
3, 23048, Pitch_bend_c, 1, 8032
3, 23050, Pitch_bend_c, 1, 8192
3, 23052, Pitch_bend_c, 1, 8608
3, 23054, Pitch_bend_c, 1, 8736
3, 23064, Pitch_bend_c, 1, 8672
3, 23066, Pitch_bend_c, 1, 8608
3, 23068, Pitch_bend_c, 1, 8544
3, 23072, Pitch_bend_c, 1, 8480
3, 23076, Pitch_bend_c, 1, 8416
3, 23080, Pitch_bend_c, 1, 8352
3, 23084, Pitch_bend_c, 1, 8288
3, 23102, Pitch_bend_c, 1, 8192
3, 23143, Note_on_c, 1, 43, 0
3, 23155, Pitch_bend_c, 1, 4032
3, 23155, Note_on_c, 1, 38, 100
3, 23163, Pitch_bend_c, 1, 4160
3, 23167, Pitch_bend_c, 1, 4448
3, 23169, Pitch_bend_c, 1, 4736
3, 23171, Pitch_bend_c, 1, 5280
3, 23173, Pitch_bend_c, 1, 6112
3, 23175, Pitch_bend_c, 1, 6784
3, 23177, Pitch_bend_c, 1, 7232
3, 23179, Pitch_bend_c, 1, 7680
3, 23181, Pitch_bend_c, 1, 7872
3, 23183, Pitch_bend_c, 1, 7968
3, 23185, Pitch_bend_c, 1, 8096
3, 23201, Pitch_bend_c, 1, 8192
3, 23273, Note_on_c, 1, 38, 0
3, 23273, Pitch_bend_c, 1, 3936
3, 23273, Note_on_c, 1, 31, 99
3, 23281, Pitch_bend_c, 1, 4064
3, 23285, Pitch_bend_c, 1, 4224
3, 23287, Pitch_bend_c, 1, 4448
3, 23289, Pitch_bend_c, 1, 4864
3, 23291, Pitch_bend_c, 1, 5440
3, 23293, Pitch_bend_c, 1, 6336
3, 23295, Pitch_bend_c, 1, 6912
3, 23297, Pitch_bend_c, 1, 7296
3, 23299, Pitch_bend_c, 1, 7616
3, 23301, Pitch_bend_c, 1, 7840
3, 23303, Pitch_bend_c, 1, 7968
3, 23305, Pitch_bend_c, 1, 8064
3, 23323, Pitch_bend_c, 1, 8192
3, 23403, Note_on_c, 1, 31, 0
3, 23403, Pitch_bend_c, 1, 6272
3, 23403, Note_on_c, 1, 38, 101
3, 23405, Pitch_bend_c, 1, 6528
3, 23407, Pitch_bend_c, 1, 6784
3, 23409, Pitch_bend_c, 1, 7136
3, 23411, Pitch_bend_c, 1, 7456
3, 23413, Pitch_bend_c, 1, 7872
3, 23415, Pitch_bend_c, 1, 8192
3, 23417, Pitch_bend_c, 1, 8416
3, 23419, Pitch_bend_c, 1, 8704
3, 23421, Pitch_bend_c, 1, 8896
3, 23431, Pitch_bend_c, 1, 8832
3, 23433, Pitch_bend_c, 1, 8768
3, 23437, Pitch_bend_c, 1, 8704
3, 23441, Pitch_bend_c, 1, 8640
3, 23445, Pitch_bend_c, 1, 8576
3, 23447, Pitch_bend_c, 1, 8480
3, 23453, Pitch_bend_c, 1, 8416
3, 23459, Pitch_bend_c, 1, 8352
3, 23471, Pitch_bend_c, 1, 8288
3, 23473, Pitch_bend_c, 1, 8192
3, 23507, Pitch_bend_c, 1, 8128
3, 23513, Pitch_bend_c, 1, 8032
3, 23517, Note_on_c, 1, 38, 0
3, 23517, Pitch_bend_c, 1, 7968
3, 23517, Pitch_bend_c, 1, 7904
3, 23519, Pitch_bend_c, 1, 7776
3, 23521, Pitch_bend_c, 1, 7584
3, 23523, Pitch_bend_c, 1, 7136
3, 23527, Pitch_bend_c, 1, 6176
3, 23527, Note_on_c, 1, 38, 105
3, 23529, Pitch_bend_c, 1, 6464
3, 23531, Pitch_bend_c, 1, 6688
3, 23533, Pitch_bend_c, 1, 7104
3, 23535, Pitch_bend_c, 1, 7456
3, 23537, Pitch_bend_c, 1, 7712
3, 23539, Pitch_bend_c, 1, 8096
3, 23541, Pitch_bend_c, 1, 8416
3, 23543, Pitch_bend_c, 1, 8608
3, 23545, Pitch_bend_c, 1, 8736
3, 23553, Pitch_bend_c, 1, 8672
3, 23557, Pitch_bend_c, 1, 8608
3, 23559, Pitch_bend_c, 1, 8512
3, 23565, Pitch_bend_c, 1, 8416
3, 23569, Pitch_bend_c, 1, 8352
3, 23575, Pitch_bend_c, 1, 8288
3, 23595, Pitch_bend_c, 1, 8192
3, 23631, Pitch_bend_c, 1, 8128
3, 23635, Pitch_bend_c, 1, 8032
3, 23636, Note_on_c, 1, 38, 0
3, 23637, Pitch_bend_c, 1, 7968
3, 23639, Pitch_bend_c, 1, 7904
3, 23641, Pitch_bend_c, 1, 7744
3, 23643, Pitch_bend_c, 1, 7456
3, 23645, Pitch_bend_c, 1, 7680
3, 23646, Pitch_bend_c, 1, 6432
3, 23646, Note_on_c, 1, 42, 104
3, 23648, Pitch_bend_c, 1, 6752
3, 23650, Pitch_bend_c, 1, 6976
3, 23652, Pitch_bend_c, 1, 7360
3, 23654, Pitch_bend_c, 1, 7648
3, 23656, Pitch_bend_c, 1, 8000
3, 23658, Pitch_bend_c, 1, 8192
3, 23660, Pitch_bend_c, 1, 8608
3, 23662, Pitch_bend_c, 1, 8736
3, 23672, Pitch_bend_c, 1, 8672
3, 23674, Pitch_bend_c, 1, 8608
3, 23676, Pitch_bend_c, 1, 8544
3, 23680, Pitch_bend_c, 1, 8480
3, 23682, Pitch_bend_c, 1, 8416
3, 23686, Pitch_bend_c, 1, 8352
3, 23692, Pitch_bend_c, 1, 8288
3, 23710, Pitch_bend_c, 1, 8192
3, 23750, Note_on_c, 1, 42, 0
3, 23760, Pitch_bend_c, 1, 4352
3, 23760, Note_on_c, 1, 30, 99
3, 23768, Pitch_bend_c, 1, 4480
3, 23770, Pitch_bend_c, 1, 4640
3, 23772, Pitch_bend_c, 1, 4832
3, 23774, Pitch_bend_c, 1, 5504
3, 23776, Pitch_bend_c, 1, 6272
3, 23778, Pitch_bend_c, 1, 7104
3, 23780, Pitch_bend_c, 1, 7424
3, 23782, Pitch_bend_c, 1, 7840
3, 23784, Pitch_bend_c, 1, 8000
3, 23786, Pitch_bend_c, 1, 8128
3, 23800, Pitch_bend_c, 1, 8192
3, 23864, Note_on_c, 1, 30, 0
3, 23864, Note_on_c, 1, 34, 108
3, 23877, Note_on_c, 1, 34, 0
3, 23881, Pitch_bend_c, 1, 6880
3, 23881, Note_on_c, 1, 42, 100
3, 23883, Pitch_bend_c, 1, 7200
3, 23885, Pitch_bend_c, 1, 7712
3, 23887, Pitch_bend_c, 1, 8128
3, 23889, Pitch_bend_c, 1, 8640
3, 23891, Pitch_bend_c, 1, 8768
3, 23895, Pitch_bend_c, 1, 8640
3, 23897, Pitch_bend_c, 1, 8512
3, 23901, Pitch_bend_c, 1, 8416
3, 23903, Pitch_bend_c, 1, 8320
3, 23915, Pitch_bend_c, 1, 8192
3, 23936, Note_on_c, 1, 42, 0
3, 23942, Note_on_c, 1, 38, 100
3, 24001, Note_on_c, 1, 38, 0
3, 24001, Pitch_bend_c, 1, 7136
3, 24001, Note_on_c, 1, 41, 102
3, 24003, Pitch_bend_c, 1, 7264
3, 24005, Pitch_bend_c, 1, 7392
3, 24007, Pitch_bend_c, 1, 7616
3, 24009, Pitch_bend_c, 1, 7808
3, 24011, Pitch_bend_c, 1, 7968
3, 24013, Pitch_bend_c, 1, 8192
3, 24015, Pitch_bend_c, 1, 8416
3, 24017, Pitch_bend_c, 1, 8544
3, 24019, Pitch_bend_c, 1, 8640
3, 24029, Pitch_bend_c, 1, 8544
3, 24033, Pitch_bend_c, 1, 8448
3, 24039, Pitch_bend_c, 1, 8352
3, 24043, Pitch_bend_c, 1, 8288
3, 24069, Pitch_bend_c, 1, 8192
3, 24110, Note_on_c, 1, 41, 0
3, 24122, Pitch_bend_c, 1, 4096
3, 24122, Note_on_c, 1, 38, 103
3, 24130, Pitch_bend_c, 1, 4224
3, 24134, Pitch_bend_c, 1, 4384
3, 24136, Pitch_bend_c, 1, 4608
3, 24138, Pitch_bend_c, 1, 5312
3, 24140, Pitch_bend_c, 1, 6144
3, 24142, Pitch_bend_c, 1, 6784
3, 24144, Pitch_bend_c, 1, 7232
3, 24146, Pitch_bend_c, 1, 7520
3, 24148, Pitch_bend_c, 1, 7808
3, 24150, Pitch_bend_c, 1, 7968
3, 24152, Pitch_bend_c, 1, 8096
3, 24168, Pitch_bend_c, 1, 8192
3, 24242, Note_on_c, 1, 38, 0
3, 24242, Pitch_bend_c, 1, 4000
3, 24242, Note_on_c, 1, 35, 103
3, 24250, Pitch_bend_c, 1, 4128
3, 24254, Pitch_bend_c, 1, 4416
3, 24256, Pitch_bend_c, 1, 4704
3, 24258, Pitch_bend_c, 1, 5248
3, 24260, Pitch_bend_c, 1, 6112
3, 24262, Pitch_bend_c, 1, 6752
3, 24264, Pitch_bend_c, 1, 7232
3, 24266, Pitch_bend_c, 1, 7680
3, 24268, Pitch_bend_c, 1, 7872
3, 24270, Pitch_bend_c, 1, 7968
3, 24272, Pitch_bend_c, 1, 8096
3, 24288, Pitch_bend_c, 1, 8192
3, 24360, Note_on_c, 1, 35, 0
3, 24360, Note_on_c, 1, 31, 108
3, 24405, Note_on_c, 1, 31, 0
3, 24405, Note_on_c, 1, 35, 95
3, 24416, Note_on_c, 1, 35, 0
3, 24416, Pitch_bend_c, 1, 6976
3, 24416, Note_on_c, 1, 44, 90
3, 24418, Pitch_bend_c, 1, 7264
3, 24420, Pitch_bend_c, 1, 7744
3, 24422, Pitch_bend_c, 1, 8128
3, 24424, Pitch_bend_c, 1, 8608
3, 24426, Pitch_bend_c, 1, 8704
3, 24430, Pitch_bend_c, 1, 8608
3, 24432, Pitch_bend_c, 1, 8480
3, 24436, Pitch_bend_c, 1, 8384
3, 24438, Pitch_bend_c, 1, 8320
3, 24452, Pitch_bend_c, 1, 8192
3, 24472, Note_on_c, 1, 44, 0
3, 24478, Pitch_bend_c, 1, 7136
3, 24478, Note_on_c, 1, 43, 78
3, 24480, Pitch_bend_c, 1, 7392
3, 24482, Pitch_bend_c, 1, 7808
3, 24484, Pitch_bend_c, 1, 8192
3, 24486, Pitch_bend_c, 1, 8544
3, 24488, Pitch_bend_c, 1, 8640
3, 24492, Pitch_bend_c, 1, 8544
3, 24494, Pitch_bend_c, 1, 8448
3, 24498, Pitch_bend_c, 1, 8352
3, 24500, Pitch_bend_c, 1, 8288
3, 24512, Pitch_bend_c, 1, 8192
3, 24533, Note_on_c, 1, 43, 0
3, 24539, Pitch_bend_c, 1, 6912
3, 24539, Note_on_c, 1, 50, 100
3, 24541, Pitch_bend_c, 1, 7232
3, 24543, Pitch_bend_c, 1, 7712
3, 24545, Pitch_bend_c, 1, 8128
3, 24547, Pitch_bend_c, 1, 8640
3, 24549, Pitch_bend_c, 1, 8736
3, 24553, Pitch_bend_c, 1, 8640
3, 24555, Pitch_bend_c, 1, 8512
3, 24557, Pitch_bend_c, 1, 8448
3, 24561, Pitch_bend_c, 1, 8320
3, 24573, Pitch_bend_c, 1, 8192
3, 24594, Note_on_c, 1, 50, 0
3, 24599, Pitch_bend_c, 1, 6720
3, 24599, Note_on_c, 1, 48, 102
3, 24601, Pitch_bend_c, 1, 6912
3, 24603, Pitch_bend_c, 1, 7072
3, 24605, Pitch_bend_c, 1, 7392
3, 24607, Pitch_bend_c, 1, 7648
3, 24609, Pitch_bend_c, 1, 8000
3, 24611, Pitch_bend_c, 1, 8192
3, 24613, Pitch_bend_c, 1, 8512
3, 24615, Pitch_bend_c, 1, 8768
3, 24617, Pitch_bend_c, 1, 8832
3, 24625, Pitch_bend_c, 1, 8704
3, 24627, Pitch_bend_c, 1, 8640
3, 24629, Pitch_bend_c, 1, 8544
3, 24637, Pitch_bend_c, 1, 8448
3, 24641, Pitch_bend_c, 1, 8352
3, 24647, Pitch_bend_c, 1, 8288
3, 24665, Pitch_bend_c, 1, 8192
3, 24705, Note_on_c, 1, 48, 0
3, 24717, Pitch_bend_c, 1, 4160
3, 24717, Note_on_c, 1, 43, 103
3, 24725, Pitch_bend_c, 1, 4288
3, 24727, Pitch_bend_c, 1, 4576
3, 24729, Pitch_bend_c, 1, 4864
3, 24731, Pitch_bend_c, 1, 5664
3, 24733, Pitch_bend_c, 1, 6528
3, 24735, Pitch_bend_c, 1, 7264
3, 24737, Pitch_bend_c, 1, 7712
3, 24739, Pitch_bend_c, 1, 7904
3, 24741, Pitch_bend_c, 1, 8064
3, 24743, Pitch_bend_c, 1, 8128
3, 24755, Pitch_bend_c, 1, 8192
3, 24815, Note_on_c, 1, 43, 0
3, 24815, Note_on_c, 1, 39, 104
3, 24825, Note_on_c, 1, 39, 0
3, 24837, Note_on_c, 1, 39, 108
3, 24870, Note_on_c, 1, 39, 0
3, 24896, Note_on_c, 1, 35, 100
3, 24955, Note_on_c, 1, 35, 0
3, 24955, Pitch_bend_c, 1, 6816
3, 24955, Note_on_c, 1, 36, 99
3, 24957, Pitch_bend_c, 1, 7008
3, 24959, Pitch_bend_c, 1, 7136
3, 24961, Pitch_bend_c, 1, 7328
3, 24963, Pitch_bend_c, 1, 7680
3, 24965, Pitch_bend_c, 1, 7872
3, 24967, Pitch_bend_c, 1, 8128
3, 24969, Pitch_bend_c, 1, 8480
3, 24971, Pitch_bend_c, 1, 8672
3, 24973, Pitch_bend_c, 1, 8736
3, 24983, Pitch_bend_c, 1, 8672
3, 24985, Pitch_bend_c, 1, 8608
3, 24987, Pitch_bend_c, 1, 8544
3, 24991, Pitch_bend_c, 1, 8480
3, 24993, Pitch_bend_c, 1, 8416
3, 24999, Pitch_bend_c, 1, 8352
3, 25005, Pitch_bend_c, 1, 8288
3, 25023, Pitch_bend_c, 1, 8192
3, 25065, Note_on_c, 1, 36, 0
3, 25077, Pitch_bend_c, 1, 6816
3, 25077, Note_on_c, 1, 43, 102
3, 25079, Pitch_bend_c, 1, 7008
3, 25081, Pitch_bend_c, 1, 7136
3, 25083, Pitch_bend_c, 1, 7424
3, 25085, Pitch_bend_c, 1, 7680
3, 25087, Pitch_bend_c, 1, 7872
3, 25089, Pitch_bend_c, 1, 8192
3, 25091, Pitch_bend_c, 1, 8480
3, 25093, Pitch_bend_c, 1, 8736
3, 25103, Pitch_bend_c, 1, 8672
3, 25105, Pitch_bend_c, 1, 8608
3, 25109, Pitch_bend_c, 1, 8544
3, 25113, Pitch_bend_c, 1, 8480
3, 25115, Pitch_bend_c, 1, 8416
3, 25119, Pitch_bend_c, 1, 8352
3, 25125, Pitch_bend_c, 1, 8288
3, 25143, Pitch_bend_c, 1, 8192
3, 25184, Note_on_c, 1, 43, 0
3, 25198, Pitch_bend_c, 1, 7008
3, 25198, Note_on_c, 1, 45, 103
3, 25200, Pitch_bend_c, 1, 7168
3, 25202, Pitch_bend_c, 1, 7392
3, 25204, Pitch_bend_c, 1, 7648
3, 25206, Pitch_bend_c, 1, 7936
3, 25208, Pitch_bend_c, 1, 8192
3, 25210, Pitch_bend_c, 1, 8544
3, 25212, Pitch_bend_c, 1, 8640
3, 25214, Pitch_bend_c, 1, 8704
3, 25218, Pitch_bend_c, 1, 8640
3, 25222, Pitch_bend_c, 1, 8544
3, 25224, Pitch_bend_c, 1, 8480
3, 25228, Pitch_bend_c, 1, 8384
3, 25232, Pitch_bend_c, 1, 8320
3, 25236, Pitch_bend_c, 1, 8256
3, 25252, Pitch_bend_c, 1, 8192
3, 25284, Note_on_c, 1, 45, 0
3, 25295, Note_on_c, 1, 37, 104
3, 25308, Note_on_c, 1, 37, 0
3, 25315, Pitch_bend_c, 1, 6912
3, 25315, Note_on_c, 1, 38, 100
3, 25317, Pitch_bend_c, 1, 7104
3, 25319, Pitch_bend_c, 1, 7328
3, 25321, Pitch_bend_c, 1, 7616
3, 25323, Pitch_bend_c, 1, 7808
3, 25325, Pitch_bend_c, 1, 8128
3, 25327, Pitch_bend_c, 1, 8448
3, 25329, Pitch_bend_c, 1, 8640
3, 25331, Pitch_bend_c, 1, 8736
3, 25337, Pitch_bend_c, 1, 8672
3, 25341, Pitch_bend_c, 1, 8576
3, 25343, Pitch_bend_c, 1, 8512
3, 25347, Pitch_bend_c, 1, 8448
3, 25353, Pitch_bend_c, 1, 8320
3, 25375, Pitch_bend_c, 1, 8192
3, 25411, Note_on_c, 1, 38, 0
3, 25421, Note_on_c, 1, 37, 107
3, 25438, Note_on_c, 1, 37, 0
3, 25441, Pitch_bend_c, 1, 6720
3, 25441, Note_on_c, 1, 43, 103
3, 25443, Pitch_bend_c, 1, 6912
3, 25445, Pitch_bend_c, 1, 7072
3, 25447, Pitch_bend_c, 1, 7392
3, 25449, Pitch_bend_c, 1, 7648
3, 25451, Pitch_bend_c, 1, 7840
3, 25453, Pitch_bend_c, 1, 8192
3, 25455, Pitch_bend_c, 1, 8512
3, 25457, Pitch_bend_c, 1, 8768
3, 25459, Pitch_bend_c, 1, 8832
3, 25467, Pitch_bend_c, 1, 8704
3, 25469, Pitch_bend_c, 1, 8640
3, 25473, Pitch_bend_c, 1, 8544
3, 25479, Pitch_bend_c, 1, 8448
3, 25483, Pitch_bend_c, 1, 8352
3, 25489, Pitch_bend_c, 1, 8288
3, 25507, Pitch_bend_c, 1, 8192
3, 25548, Note_on_c, 1, 43, 0
3, 25561, Pitch_bend_c, 1, 4000
3, 25561, Note_on_c, 1, 38, 102
3, 25569, Pitch_bend_c, 1, 4128
3, 25573, Pitch_bend_c, 1, 4288
3, 25575, Pitch_bend_c, 1, 4512
3, 25577, Pitch_bend_c, 1, 4960
3, 25579, Pitch_bend_c, 1, 6112
3, 25581, Pitch_bend_c, 1, 6752
3, 25583, Pitch_bend_c, 1, 7232
3, 25585, Pitch_bend_c, 1, 7520
3, 25587, Pitch_bend_c, 1, 7808
3, 25589, Pitch_bend_c, 1, 7968
3, 25591, Pitch_bend_c, 1, 8032
3, 25593, Pitch_bend_c, 1, 8096
3, 25609, Pitch_bend_c, 1, 8192
3, 25682, Note_on_c, 1, 38, 0
3, 25682, Pitch_bend_c, 1, 4288
3, 25682, Note_on_c, 1, 31, 103
3, 25690, Pitch_bend_c, 1, 4384
3, 25692, Pitch_bend_c, 1, 4448
3, 25694, Pitch_bend_c, 1, 4672
3, 25696, Pitch_bend_c, 1, 4960
3, 25698, Pitch_bend_c, 1, 5440
3, 25700, Pitch_bend_c, 1, 6240
3, 25702, Pitch_bend_c, 1, 7072
3, 25704, Pitch_bend_c, 1, 7424
3, 25706, Pitch_bend_c, 1, 7712
3, 25708, Pitch_bend_c, 1, 7904
3, 25710, Pitch_bend_c, 1, 8000
3, 25712, Pitch_bend_c, 1, 8128
3, 25728, Pitch_bend_c, 1, 8192
3, 25798, Note_on_c, 1, 31, 0
3, 25798, Pitch_bend_c, 1, 6976
3, 25798, Note_on_c, 1, 38, 100
3, 25800, Pitch_bend_c, 1, 7136
3, 25802, Pitch_bend_c, 1, 7264
3, 25804, Pitch_bend_c, 1, 7424
3, 25806, Pitch_bend_c, 1, 7744
3, 25808, Pitch_bend_c, 1, 7904
3, 25810, Pitch_bend_c, 1, 8128
3, 25812, Pitch_bend_c, 1, 8448
3, 25814, Pitch_bend_c, 1, 8608
3, 25816, Pitch_bend_c, 1, 8672
3, 25826, Pitch_bend_c, 1, 8608
3, 25830, Pitch_bend_c, 1, 8480
3, 25838, Pitch_bend_c, 1, 8384
3, 25842, Pitch_bend_c, 1, 8320
3, 25866, Pitch_bend_c, 1, 8192
3, 25909, Note_on_c, 1, 38, 0
3, 25920, Pitch_bend_c, 1, 6816
3, 25920, Note_on_c, 1, 32, 99
3, 25922, Pitch_bend_c, 1, 7136
3, 25924, Pitch_bend_c, 1, 7584
3, 25926, Pitch_bend_c, 1, 8000
3, 25928, Pitch_bend_c, 1, 8608
3, 25930, Pitch_bend_c, 1, 8768
3, 25936, Pitch_bend_c, 1, 8608
3, 25938, Pitch_bend_c, 1, 8544
3, 25940, Pitch_bend_c, 1, 8480
3, 25942, Pitch_bend_c, 1, 8416
3, 25944, Pitch_bend_c, 1, 8352
3, 25948, Pitch_bend_c, 1, 8288
3, 25958, Pitch_bend_c, 1, 8192
3, 25980, Note_on_c, 1, 32, 0
3, 25986, Note_on_c, 1, 48, 99
3, 26144, Note_on_c, 1, 48, 0
3, 26144, Note_on_c, 1, 34, 109
3, 26161, Note_on_c, 1, 34, 0
3, 26164, Pitch_bend_c, 1, 6656
3, 26164, Note_on_c, 1, 38, 103
3, 26166, Pitch_bend_c, 1, 7008
3, 26168, Pitch_bend_c, 1, 7520
3, 26170, Pitch_bend_c, 1, 8000
3, 26172, Pitch_bend_c, 1, 8512
3, 26174, Pitch_bend_c, 1, 8800
3, 26180, Pitch_bend_c, 1, 8672
3, 26182, Pitch_bend_c, 1, 8576
3, 26184, Pitch_bend_c, 1, 8512
3, 26186, Pitch_bend_c, 1, 8448
3, 26188, Pitch_bend_c, 1, 8352
3, 26192, Pitch_bend_c, 1, 8288
3, 26202, Pitch_bend_c, 1, 8192
3, 26226, Note_on_c, 1, 38, 0
3, 26232, Note_on_c, 1, 54, 100
3, 26374, Note_on_c, 1, 54, 0
3, 26374, Note_on_c, 1, 42, 108
3, 26396, Note_on_c, 1, 42, 0
3, 26399, Pitch_bend_c, 1, 6720
3, 26399, Note_on_c, 1, 43, 99
3, 26401, Pitch_bend_c, 1, 6912
3, 26403, Pitch_bend_c, 1, 7072
3, 26405, Pitch_bend_c, 1, 7392
3, 26407, Pitch_bend_c, 1, 7648
3, 26409, Pitch_bend_c, 1, 7840
3, 26411, Pitch_bend_c, 1, 8192
3, 26413, Pitch_bend_c, 1, 8512
3, 26415, Pitch_bend_c, 1, 8704
3, 26417, Pitch_bend_c, 1, 8832
3, 26425, Pitch_bend_c, 1, 8768
3, 26427, Pitch_bend_c, 1, 8640
3, 26431, Pitch_bend_c, 1, 8544
3, 26437, Pitch_bend_c, 1, 8448
3, 26441, Pitch_bend_c, 1, 8352
3, 26447, Pitch_bend_c, 1, 8288
3, 26465, Pitch_bend_c, 1, 8192
3, 26507, Note_on_c, 1, 43, 0
3, 26518, Pitch_bend_c, 1, 4320
3, 26518, Note_on_c, 1, 38, 100
3, 26526, Pitch_bend_c, 1, 4448
3, 26530, Pitch_bend_c, 1, 4576
3, 26532, Pitch_bend_c, 1, 4800
3, 26534, Pitch_bend_c, 1, 5184
3, 26536, Pitch_bend_c, 1, 5760
3, 26538, Pitch_bend_c, 1, 6592
3, 26540, Pitch_bend_c, 1, 7296
3, 26542, Pitch_bend_c, 1, 7584
3, 26544, Pitch_bend_c, 1, 7840
3, 26546, Pitch_bend_c, 1, 8000
3, 26548, Pitch_bend_c, 1, 8064
3, 26550, Pitch_bend_c, 1, 8128
3, 26566, Pitch_bend_c, 1, 8192
3, 26640, Note_on_c, 1, 38, 0
3, 26640, Pitch_bend_c, 1, 4288
3, 26640, Note_on_c, 1, 33, 102
3, 26648, Pitch_bend_c, 1, 4384
3, 26652, Pitch_bend_c, 1, 4672
3, 26654, Pitch_bend_c, 1, 4960
3, 26656, Pitch_bend_c, 1, 5440
3, 26658, Pitch_bend_c, 1, 6240
3, 26660, Pitch_bend_c, 1, 6848
3, 26662, Pitch_bend_c, 1, 7296
3, 26664, Pitch_bend_c, 1, 7712
3, 26666, Pitch_bend_c, 1, 7904
3, 26668, Pitch_bend_c, 1, 8000
3, 26670, Pitch_bend_c, 1, 8128
3, 26686, Pitch_bend_c, 1, 8192
3, 26758, Note_on_c, 1, 33, 0
3, 26758, Pitch_bend_c, 1, 7104
3, 26758, Note_on_c, 1, 38, 103
3, 26760, Pitch_bend_c, 1, 7360
3, 26762, Pitch_bend_c, 1, 7712
3, 26764, Pitch_bend_c, 1, 8064
3, 26766, Pitch_bend_c, 1, 8416
3, 26768, Pitch_bend_c, 1, 8608
3, 26776, Pitch_bend_c, 1, 8448
3, 26780, Pitch_bend_c, 1, 8384
3, 26784, Pitch_bend_c, 1, 8320
3, 26786, Pitch_bend_c, 1, 8256
3, 26798, Pitch_bend_c, 1, 8192
3, 26821, Note_on_c, 1, 38, 0
3, 26880, Control_c, 1, 11, 127
3, 26880, Pitch_bend_c, 1, 6784
3, 26880, Control_c, 1, 10, 64
3, 26880, Note_on_c, 1, 31, 103
3, 26882, Pitch_bend_c, 1, 6976
3, 26884, Pitch_bend_c, 1, 7104
3, 26886, Pitch_bend_c, 1, 7424
3, 26888, Pitch_bend_c, 1, 7680
3, 26890, Pitch_bend_c, 1, 8000
3, 26892, Pitch_bend_c, 1, 8192
3, 26894, Pitch_bend_c, 1, 8640
3, 26896, Pitch_bend_c, 1, 8736
3, 26898, Pitch_bend_c, 1, 8800
3, 26904, Pitch_bend_c, 1, 8736
3, 26906, Pitch_bend_c, 1, 8672
3, 26910, Pitch_bend_c, 1, 8544
3, 26914, Pitch_bend_c, 1, 8480
3, 26916, Pitch_bend_c, 1, 8416
3, 26920, Pitch_bend_c, 1, 8352
3, 26926, Pitch_bend_c, 1, 8288
3, 26944, Pitch_bend_c, 1, 8192
3, 26983, Note_on_c, 1, 31, 0
3, 26992, Pitch_bend_c, 1, 6944
3, 26992, Note_on_c, 1, 38, 100
3, 26994, Pitch_bend_c, 1, 7104
3, 26996, Pitch_bend_c, 1, 7232
3, 26998, Pitch_bend_c, 1, 7520
3, 27000, Pitch_bend_c, 1, 7744
3, 27002, Pitch_bend_c, 1, 7904
3, 27004, Pitch_bend_c, 1, 8192
3, 27006, Pitch_bend_c, 1, 8448
3, 27008, Pitch_bend_c, 1, 8672
3, 27010, Pitch_bend_c, 1, 8736
3, 27018, Pitch_bend_c, 1, 8640
3, 27020, Pitch_bend_c, 1, 8576
3, 27024, Pitch_bend_c, 1, 8512
3, 27028, Pitch_bend_c, 1, 8448
3, 27034, Pitch_bend_c, 1, 8320
3, 27058, Pitch_bend_c, 1, 8192
3, 27099, Note_on_c, 1, 38, 0
3, 27112, Pitch_bend_c, 1, 7136
3, 27112, Note_on_c, 1, 43, 99
3, 27114, Pitch_bend_c, 1, 7296
3, 27116, Pitch_bend_c, 1, 7392
3, 27118, Pitch_bend_c, 1, 7616
3, 27120, Pitch_bend_c, 1, 7808
3, 27122, Pitch_bend_c, 1, 7968
3, 27124, Pitch_bend_c, 1, 8192
3, 27126, Pitch_bend_c, 1, 8416
3, 27128, Pitch_bend_c, 1, 8544
3, 27130, Pitch_bend_c, 1, 8640
3, 27140, Pitch_bend_c, 1, 8544
3, 27144, Pitch_bend_c, 1, 8448
3, 27150, Pitch_bend_c, 1, 8352
3, 27154, Pitch_bend_c, 1, 8288
3, 27180, Pitch_bend_c, 1, 8192
3, 27221, Note_on_c, 1, 43, 0
3, 27233, Pitch_bend_c, 1, 4288
3, 27233, Note_on_c, 1, 38, 100
3, 27241, Pitch_bend_c, 1, 4384
3, 27243, Pitch_bend_c, 1, 4544
3, 27245, Pitch_bend_c, 1, 4960
3, 27247, Pitch_bend_c, 1, 5760
3, 27249, Pitch_bend_c, 1, 6592
3, 27251, Pitch_bend_c, 1, 7296
3, 27253, Pitch_bend_c, 1, 7552
3, 27255, Pitch_bend_c, 1, 7904
3, 27257, Pitch_bend_c, 1, 8064
3, 27259, Pitch_bend_c, 1, 8128
3, 27271, Pitch_bend_c, 1, 8192
3, 27332, Note_on_c, 1, 38, 0
3, 27332, Note_on_c, 1, 31, 109
3, 27340, Note_on_c, 1, 31, 0
3, 27367, Pitch_bend_c, 1, 6688
3, 27367, Note_on_c, 1, 30, 103
3, 27369, Pitch_bend_c, 1, 6880
3, 27371, Pitch_bend_c, 1, 7040
3, 27373, Pitch_bend_c, 1, 7360
3, 27375, Pitch_bend_c, 1, 7648
3, 27377, Pitch_bend_c, 1, 8000
3, 27379, Pitch_bend_c, 1, 8192
3, 27381, Pitch_bend_c, 1, 8672
3, 27383, Pitch_bend_c, 1, 8768
3, 27385, Pitch_bend_c, 1, 8832
3, 27391, Pitch_bend_c, 1, 8768
3, 27393, Pitch_bend_c, 1, 8704
3, 27397, Pitch_bend_c, 1, 8576
3, 27401, Pitch_bend_c, 1, 8512
3, 27403, Pitch_bend_c, 1, 8448
3, 27407, Pitch_bend_c, 1, 8352
3, 27413, Pitch_bend_c, 1, 8288
3, 27431, Pitch_bend_c, 1, 8192
3, 27470, Note_on_c, 1, 30, 0
3, 27480, Pitch_bend_c, 1, 6848
3, 27480, Note_on_c, 1, 42, 100
3, 27482, Pitch_bend_c, 1, 7040
3, 27484, Pitch_bend_c, 1, 7168
3, 27486, Pitch_bend_c, 1, 7456
3, 27488, Pitch_bend_c, 1, 7712
3, 27490, Pitch_bend_c, 1, 8032
3, 27492, Pitch_bend_c, 1, 8192
3, 27494, Pitch_bend_c, 1, 8480
3, 27496, Pitch_bend_c, 1, 8704
3, 27498, Pitch_bend_c, 1, 8768
3, 27506, Pitch_bend_c, 1, 8672
3, 27508, Pitch_bend_c, 1, 8608
3, 27510, Pitch_bend_c, 1, 8512
3, 27518, Pitch_bend_c, 1, 8416
3, 27522, Pitch_bend_c, 1, 8352
3, 27528, Pitch_bend_c, 1, 8288
3, 27546, Pitch_bend_c, 1, 8192
3, 27586, Note_on_c, 1, 42, 0
3, 27598, Pitch_bend_c, 1, 4032
3, 27598, Note_on_c, 1, 38, 99
3, 27606, Pitch_bend_c, 1, 4160
3, 27608, Pitch_bend_c, 1, 4448
3, 27610, Pitch_bend_c, 1, 4736
3, 27612, Pitch_bend_c, 1, 5600
3, 27614, Pitch_bend_c, 1, 6464
3, 27616, Pitch_bend_c, 1, 7232
3, 27618, Pitch_bend_c, 1, 7680
3, 27620, Pitch_bend_c, 1, 7872
3, 27622, Pitch_bend_c, 1, 8032
3, 27624, Pitch_bend_c, 1, 8096
3, 27636, Pitch_bend_c, 1, 8192
3, 27696, Note_on_c, 1, 38, 0
3, 27696, Note_on_c, 1, 36, 105
3, 27706, Note_on_c, 1, 36, 0
3, 27715, Pitch_bend_c, 1, 7136
3, 27715, Note_on_c, 1, 30, 100
3, 27717, Pitch_bend_c, 1, 7296
3, 27719, Pitch_bend_c, 1, 7488
3, 27721, Pitch_bend_c, 1, 7616
3, 27723, Pitch_bend_c, 1, 7872
3, 27725, Pitch_bend_c, 1, 8192
3, 27727, Pitch_bend_c, 1, 8288
3, 27729, Pitch_bend_c, 1, 8544
3, 27731, Pitch_bend_c, 1, 8640
3, 27739, Pitch_bend_c, 1, 8544
3, 27743, Pitch_bend_c, 1, 8448
3, 27749, Pitch_bend_c, 1, 8352
3, 27753, Pitch_bend_c, 1, 8288
3, 27775, Pitch_bend_c, 1, 8192
3, 27812, Note_on_c, 1, 30, 0
3, 27824, Note_on_c, 1, 36, 109
3, 27837, Note_on_c, 1, 36, 0
3, 27841, Pitch_bend_c, 1, 6688
3, 27841, Note_on_c, 1, 29, 102
3, 27843, Pitch_bend_c, 1, 6880
3, 27845, Pitch_bend_c, 1, 7168
3, 27847, Pitch_bend_c, 1, 7360
3, 27849, Pitch_bend_c, 1, 7712
3, 27851, Pitch_bend_c, 1, 8000
3, 27853, Pitch_bend_c, 1, 8352
3, 27855, Pitch_bend_c, 1, 8672
3, 27857, Pitch_bend_c, 1, 8768
3, 27859, Pitch_bend_c, 1, 8832
3, 27865, Pitch_bend_c, 1, 8768
3, 27867, Pitch_bend_c, 1, 8672
3, 27871, Pitch_bend_c, 1, 8576
3, 27875, Pitch_bend_c, 1, 8512
3, 27877, Pitch_bend_c, 1, 8448
3, 27881, Pitch_bend_c, 1, 8352
3, 27885, Pitch_bend_c, 1, 8288
3, 27903, Pitch_bend_c, 1, 8192
3, 27941, Note_on_c, 1, 29, 0
3, 27952, Pitch_bend_c, 1, 6720
3, 27952, Note_on_c, 1, 41, 103
3, 27954, Pitch_bend_c, 1, 6912
3, 27956, Pitch_bend_c, 1, 7072
3, 27958, Pitch_bend_c, 1, 7264
3, 27960, Pitch_bend_c, 1, 7648
3, 27962, Pitch_bend_c, 1, 7840
3, 27964, Pitch_bend_c, 1, 8128
3, 27966, Pitch_bend_c, 1, 8512
3, 27968, Pitch_bend_c, 1, 8704
3, 27970, Pitch_bend_c, 1, 8768
3, 27972, Pitch_bend_c, 1, 8832
3, 27978, Pitch_bend_c, 1, 8768
3, 27980, Pitch_bend_c, 1, 8704
3, 27982, Pitch_bend_c, 1, 8640
3, 27984, Pitch_bend_c, 1, 8544
3, 27992, Pitch_bend_c, 1, 8448
3, 27996, Pitch_bend_c, 1, 8352
3, 28002, Pitch_bend_c, 1, 8288
3, 28020, Pitch_bend_c, 1, 8192
3, 28063, Note_on_c, 1, 41, 0
3, 28076, Pitch_bend_c, 1, 4032
3, 28076, Note_on_c, 1, 38, 103
3, 28084, Pitch_bend_c, 1, 4160
3, 28088, Pitch_bend_c, 1, 4320
3, 28090, Pitch_bend_c, 1, 4544
3, 28092, Pitch_bend_c, 1, 4992
3, 28094, Pitch_bend_c, 1, 5600
3, 28096, Pitch_bend_c, 1, 6464
3, 28098, Pitch_bend_c, 1, 7232
3, 28100, Pitch_bend_c, 1, 7520
3, 28102, Pitch_bend_c, 1, 7808
3, 28104, Pitch_bend_c, 1, 7968
3, 28106, Pitch_bend_c, 1, 8032
3, 28108, Pitch_bend_c, 1, 8096
3, 28124, Pitch_bend_c, 1, 8192
3, 28198, Note_on_c, 1, 38, 0
3, 28198, Pitch_bend_c, 1, 4192
3, 28198, Note_on_c, 1, 35, 103
3, 28206, Pitch_bend_c, 1, 4320
3, 28208, Pitch_bend_c, 1, 4384
3, 28210, Pitch_bend_c, 1, 4704
3, 28212, Pitch_bend_c, 1, 5088
3, 28214, Pitch_bend_c, 1, 6208
3, 28216, Pitch_bend_c, 1, 6816
3, 28218, Pitch_bend_c, 1, 7264
3, 28220, Pitch_bend_c, 1, 7712
3, 28222, Pitch_bend_c, 1, 7904
3, 28224, Pitch_bend_c, 1, 8064
3, 28226, Pitch_bend_c, 1, 8128
3, 28240, Pitch_bend_c, 1, 8192
3, 28305, Note_on_c, 1, 35, 0
3, 28305, Note_on_c, 1, 34, 105
3, 28317, Note_on_c, 1, 34, 0
3, 28319, Pitch_bend_c, 1, 7040
3, 28319, Note_on_c, 1, 36, 102
3, 28321, Pitch_bend_c, 1, 7200
3, 28323, Pitch_bend_c, 1, 7424
3, 28325, Pitch_bend_c, 1, 7680
3, 28327, Pitch_bend_c, 1, 7936
3, 28329, Pitch_bend_c, 1, 8192
3, 28331, Pitch_bend_c, 1, 8416
3, 28333, Pitch_bend_c, 1, 8640
3, 28343, Pitch_bend_c, 1, 8544
3, 28345, Pitch_bend_c, 1, 8480
3, 28349, Pitch_bend_c, 1, 8416
3, 28355, Pitch_bend_c, 1, 8320
3, 28359, Pitch_bend_c, 1, 8256
3, 28375, Pitch_bend_c, 1, 8192
3, 28410, Note_on_c, 1, 36, 0
3, 28419, Note_on_c, 1, 34, 107
3, 28437, Note_on_c, 1, 34, 0
3, 28438, Pitch_bend_c, 1, 7072
3, 28438, Note_on_c, 1, 50, 103
3, 28440, Pitch_bend_c, 1, 7232
3, 28442, Pitch_bend_c, 1, 7424
3, 28444, Pitch_bend_c, 1, 7584
3, 28446, Pitch_bend_c, 1, 7840
3, 28448, Pitch_bend_c, 1, 8064
3, 28450, Pitch_bend_c, 1, 8320
3, 28452, Pitch_bend_c, 1, 8544
3, 28454, Pitch_bend_c, 1, 8608
3, 28456, Pitch_bend_c, 1, 8672
3, 28462, Pitch_bend_c, 1, 8608
3, 28466, Pitch_bend_c, 1, 8544
3, 28468, Pitch_bend_c, 1, 8448
3, 28474, Pitch_bend_c, 1, 8384
3, 28478, Pitch_bend_c, 1, 8320
3, 28484, Pitch_bend_c, 1, 8256
3, 28502, Pitch_bend_c, 1, 8192
3, 28540, Note_on_c, 1, 50, 0
3, 28552, Pitch_bend_c, 1, 4096
3, 28552, Note_on_c, 1, 48, 100
3, 28560, Pitch_bend_c, 1, 4224
3, 28564, Pitch_bend_c, 1, 4384
3, 28566, Pitch_bend_c, 1, 4608
3, 28568, Pitch_bend_c, 1, 5024
3, 28570, Pitch_bend_c, 1, 5632
3, 28572, Pitch_bend_c, 1, 6496
3, 28574, Pitch_bend_c, 1, 7008
3, 28576, Pitch_bend_c, 1, 7360
3, 28578, Pitch_bend_c, 1, 7808
3, 28580, Pitch_bend_c, 1, 7968
3, 28582, Pitch_bend_c, 1, 8032
3, 28584, Pitch_bend_c, 1, 8096
3, 28600, Pitch_bend_c, 1, 8192
3, 28675, Note_on_c, 1, 48, 0
3, 28675, Pitch_bend_c, 1, 7008
3, 28675, Note_on_c, 1, 43, 99
3, 28677, Pitch_bend_c, 1, 7296
3, 28679, Pitch_bend_c, 1, 7776
3, 28681, Pitch_bend_c, 1, 8128
3, 28683, Pitch_bend_c, 1, 8608
3, 28685, Pitch_bend_c, 1, 8704
3, 28689, Pitch_bend_c, 1, 8608
3, 28691, Pitch_bend_c, 1, 8480
3, 28695, Pitch_bend_c, 1, 8384
3, 28697, Pitch_bend_c, 1, 8320
3, 28701, Pitch_bend_c, 1, 8256
3, 28711, Pitch_bend_c, 1, 8192
3, 28731, Note_on_c, 1, 43, 0
3, 28736, Note_on_c, 1, 35, 102
3, 28793, Note_on_c, 1, 35, 0
3, 28793, Pitch_bend_c, 1, 7104
3, 28793, Note_on_c, 1, 36, 100
3, 28795, Pitch_bend_c, 1, 7264
3, 28797, Pitch_bend_c, 1, 7360
3, 28799, Pitch_bend_c, 1, 7520
3, 28801, Pitch_bend_c, 1, 7808
3, 28803, Pitch_bend_c, 1, 7936
3, 28805, Pitch_bend_c, 1, 8128
3, 28807, Pitch_bend_c, 1, 8320
3, 28809, Pitch_bend_c, 1, 8576
3, 28813, Pitch_bend_c, 1, 8640
3, 28821, Pitch_bend_c, 1, 8576
3, 28823, Pitch_bend_c, 1, 8512
3, 28825, Pitch_bend_c, 1, 8448
3, 28833, Pitch_bend_c, 1, 8384
3, 28837, Pitch_bend_c, 1, 8320
3, 28843, Pitch_bend_c, 1, 8256
3, 28863, Pitch_bend_c, 1, 8192
3, 28906, Note_on_c, 1, 36, 0
3, 28917, Pitch_bend_c, 1, 7136
3, 28917, Note_on_c, 1, 48, 102
3, 28919, Pitch_bend_c, 1, 7264
3, 28921, Pitch_bend_c, 1, 7456
3, 28923, Pitch_bend_c, 1, 7712
3, 28925, Pitch_bend_c, 1, 7968
3, 28927, Pitch_bend_c, 1, 8192
3, 28929, Pitch_bend_c, 1, 8512
3, 28931, Pitch_bend_c, 1, 8608
3, 28939, Pitch_bend_c, 1, 8544
3, 28943, Pitch_bend_c, 1, 8448
3, 28947, Pitch_bend_c, 1, 8352
3, 28951, Pitch_bend_c, 1, 8288
3, 28971, Pitch_bend_c, 1, 8192
3, 29004, Note_on_c, 1, 48, 0
3, 29015, Note_on_c, 1, 38, 108
3, 29022, Note_on_c, 1, 38, 0
3, 29039, Pitch_bend_c, 1, 7040
3, 29039, Note_on_c, 1, 45, 100
3, 29041, Pitch_bend_c, 1, 7200
3, 29043, Pitch_bend_c, 1, 7392
3, 29045, Pitch_bend_c, 1, 7680
3, 29047, Pitch_bend_c, 1, 7936
3, 29049, Pitch_bend_c, 1, 8192
3, 29051, Pitch_bend_c, 1, 8416
3, 29053, Pitch_bend_c, 1, 8640
3, 29063, Pitch_bend_c, 1, 8544
3, 29065, Pitch_bend_c, 1, 8480
3, 29069, Pitch_bend_c, 1, 8416
3, 29075, Pitch_bend_c, 1, 8320
3, 29079, Pitch_bend_c, 1, 8256
3, 29095, Pitch_bend_c, 1, 8192
3, 29130, Note_on_c, 1, 45, 0
3, 29140, Note_on_c, 1, 37, 108
3, 29156, Note_on_c, 1, 37, 0
3, 29157, Pitch_bend_c, 1, 6816
3, 29157, Note_on_c, 1, 38, 101
3, 29159, Pitch_bend_c, 1, 7008
3, 29161, Pitch_bend_c, 1, 7232
3, 29163, Pitch_bend_c, 1, 7584
3, 29165, Pitch_bend_c, 1, 7872
3, 29167, Pitch_bend_c, 1, 8192
3, 29169, Pitch_bend_c, 1, 8608
3, 29171, Pitch_bend_c, 1, 8736
3, 29179, Pitch_bend_c, 1, 8672
3, 29181, Pitch_bend_c, 1, 8608
3, 29183, Pitch_bend_c, 1, 8544
3, 29187, Pitch_bend_c, 1, 8480
3, 29189, Pitch_bend_c, 1, 8416
3, 29191, Pitch_bend_c, 1, 8352
3, 29197, Pitch_bend_c, 1, 8288
3, 29211, Pitch_bend_c, 1, 8192
3, 29245, Note_on_c, 1, 38, 0
3, 29255, Note_on_c, 1, 44, 108
3, 29268, Note_on_c, 1, 44, 0
3, 29277, Pitch_bend_c, 1, 6688
3, 29277, Note_on_c, 1, 43, 102
3, 29279, Pitch_bend_c, 1, 6880
3, 29281, Pitch_bend_c, 1, 7040
3, 29283, Pitch_bend_c, 1, 7360
3, 29285, Pitch_bend_c, 1, 7648
3, 29287, Pitch_bend_c, 1, 7840
3, 29289, Pitch_bend_c, 1, 8192
3, 29291, Pitch_bend_c, 1, 8512
3, 29293, Pitch_bend_c, 1, 8704
3, 29295, Pitch_bend_c, 1, 8832
3, 29303, Pitch_bend_c, 1, 8768
3, 29305, Pitch_bend_c, 1, 8672
3, 29309, Pitch_bend_c, 1, 8576
3, 29313, Pitch_bend_c, 1, 8512
3, 29315, Pitch_bend_c, 1, 8448
3, 29319, Pitch_bend_c, 1, 8352
3, 29325, Pitch_bend_c, 1, 8288
3, 29343, Pitch_bend_c, 1, 8192
3, 29385, Note_on_c, 1, 43, 0
3, 29395, Pitch_bend_c, 1, 4352
3, 29395, Note_on_c, 1, 38, 100
3, 29401, Pitch_bend_c, 1, 4480
3, 29405, Pitch_bend_c, 1, 4736
3, 29407, Pitch_bend_c, 1, 5216
3, 29409, Pitch_bend_c, 1, 5792
3, 29411, Pitch_bend_c, 1, 6880
3, 29413, Pitch_bend_c, 1, 7424
3, 29415, Pitch_bend_c, 1, 7712
3, 29417, Pitch_bend_c, 1, 8000
3, 29419, Pitch_bend_c, 1, 8128
3, 29433, Pitch_bend_c, 1, 8192
3, 29490, Note_on_c, 1, 38, 0
3, 29490, Note_on_c, 1, 32, 107
3, 29508, Note_on_c, 1, 32, 0
3, 29517, Pitch_bend_c, 1, 7104
3, 29517, Note_on_c, 1, 31, 103
3, 29519, Pitch_bend_c, 1, 7264
3, 29521, Pitch_bend_c, 1, 7456
3, 29523, Pitch_bend_c, 1, 7712
3, 29525, Pitch_bend_c, 1, 7936
3, 29527, Pitch_bend_c, 1, 8192
3, 29529, Pitch_bend_c, 1, 8512
3, 29531, Pitch_bend_c, 1, 8608
3, 29541, Pitch_bend_c, 1, 8512
3, 29543, Pitch_bend_c, 1, 8448
3, 29549, Pitch_bend_c, 1, 8384
3, 29551, Pitch_bend_c, 1, 8320
3, 29557, Pitch_bend_c, 1, 8256
3, 29571, Pitch_bend_c, 1, 8192
3, 29605, Note_on_c, 1, 31, 0
3, 29615, Note_on_c, 1, 38, 104
3, 29621, Note_on_c, 1, 38, 0
3, 29638, Note_on_c, 1, 43, 108
3, 29657, Note_on_c, 1, 43, 0
3, 29696, Note_on_c, 1, 46, 105
3, 29724, Note_on_c, 1, 46, 0
3, 29765, Note_on_c, 1, 45, 103
3, 29797, Pitch_bend_c, 1, 8256
3, 29799, Pitch_bend_c, 1, 8320
3, 29805, Pitch_bend_c, 1, 8384
3, 29809, Pitch_bend_c, 1, 8512
3, 29811, Pitch_bend_c, 1, 8640
3, 29813, Pitch_bend_c, 1, 8800
3, 29815, Pitch_bend_c, 1, 9024
3, 29817, Pitch_bend_c, 1, 9248
3, 29819, Pitch_bend_c, 1, 9408
3, 29821, Pitch_bend_c, 1, 9472
3, 29823, Pitch_bend_c, 1, 9568
3, 29827, Pitch_bend_c, 1, 9472
3, 29829, Pitch_bend_c, 1, 9312
3, 29831, Pitch_bend_c, 1, 9088
3, 29833, Pitch_bend_c, 1, 8832
3, 29835, Pitch_bend_c, 1, 8576
3, 29837, Pitch_bend_c, 1, 8352
3, 29839, Pitch_bend_c, 1, 8256
3, 29841, Pitch_bend_c, 1, 8192
3, 29843, Pitch_bend_c, 1, 8096
3, 29853, Pitch_bend_c, 1, 8192
3, 29855, Pitch_bend_c, 1, 8288
3, 29857, Pitch_bend_c, 1, 8448
3, 29859, Pitch_bend_c, 1, 8736
3, 29861, Pitch_bend_c, 1, 8992
3, 29863, Pitch_bend_c, 1, 9152
3, 29865, Pitch_bend_c, 1, 9312
3, 29867, Pitch_bend_c, 1, 9472
3, 29869, Pitch_bend_c, 1, 9600
3, 29871, Pitch_bend_c, 1, 9696
3, 29879, Pitch_bend_c, 1, 9600
3, 29881, Pitch_bend_c, 1, 9472
3, 29883, Pitch_bend_c, 1, 9248
3, 29885, Pitch_bend_c, 1, 8896
3, 29887, Pitch_bend_c, 1, 8480
3, 29889, Pitch_bend_c, 1, 8192
3, 29891, Pitch_bend_c, 1, 8096
3, 29893, Pitch_bend_c, 1, 8000
3, 29903, Pitch_bend_c, 1, 8064
3, 29905, Pitch_bend_c, 1, 8192
3, 29909, Pitch_bend_c, 1, 8416
3, 29911, Pitch_bend_c, 1, 8672
3, 29913, Pitch_bend_c, 1, 8736
3, 29915, Pitch_bend_c, 1, 8896
3, 29917, Pitch_bend_c, 1, 9056
3, 29919, Pitch_bend_c, 1, 9152
3, 29921, Pitch_bend_c, 1, 9280
3, 29923, Pitch_bend_c, 1, 9344
3, 29931, Pitch_bend_c, 1, 9280
3, 29933, Pitch_bend_c, 1, 9088
3, 29935, Pitch_bend_c, 1, 8864
3, 29937, Pitch_bend_c, 1, 8608
3, 29939, Pitch_bend_c, 1, 8384
3, 29941, Pitch_bend_c, 1, 8256
3, 29943, Pitch_bend_c, 1, 8192
3, 29945, Pitch_bend_c, 1, 8064
3, 29955, Pitch_bend_c, 1, 8192
3, 29957, Pitch_bend_c, 1, 8288
3, 29959, Pitch_bend_c, 1, 8512
3, 29961, Pitch_bend_c, 1, 8672
3, 29963, Pitch_bend_c, 1, 8832
3, 29965, Pitch_bend_c, 1, 8896
3, 29969, Pitch_bend_c, 1, 8960
3, 29971, Pitch_bend_c, 1, 8896
3, 29973, Pitch_bend_c, 1, 8768
3, 29975, Pitch_bend_c, 1, 8608
3, 29977, Pitch_bend_c, 1, 8448
3, 29979, Pitch_bend_c, 1, 8320
3, 29981, Pitch_bend_c, 1, 8192
3, 29993, Note_on_c, 1, 45, 0
3, 30002, Pitch_bend_c, 1, 4192
3, 30002, Note_on_c, 1, 33, 103
3, 30010, Pitch_bend_c, 1, 4320
3, 30012, Pitch_bend_c, 1, 4384
3, 30014, Pitch_bend_c, 1, 4608
3, 30016, Pitch_bend_c, 1, 4896
3, 30018, Pitch_bend_c, 1, 5376
3, 30020, Pitch_bend_c, 1, 6560
3, 30022, Pitch_bend_c, 1, 7040
3, 30024, Pitch_bend_c, 1, 7392
3, 30026, Pitch_bend_c, 1, 7712
3, 30028, Pitch_bend_c, 1, 8000
3, 30030, Pitch_bend_c, 1, 8064
3, 30032, Pitch_bend_c, 1, 8128
3, 30046, Pitch_bend_c, 1, 8192
3, 30116, Note_on_c, 1, 33, 0
3, 30116, Pitch_bend_c, 1, 6656
3, 30116, Note_on_c, 1, 37, 100
3, 30118, Pitch_bend_c, 1, 6880
3, 30120, Pitch_bend_c, 1, 7136
3, 30122, Pitch_bend_c, 1, 7520
3, 30124, Pitch_bend_c, 1, 7840
3, 30126, Pitch_bend_c, 1, 8192
3, 30128, Pitch_bend_c, 1, 8512
3, 30130, Pitch_bend_c, 1, 8800
3, 30140, Pitch_bend_c, 1, 8672
3, 30142, Pitch_bend_c, 1, 8576
3, 30146, Pitch_bend_c, 1, 8512
3, 30148, Pitch_bend_c, 1, 8448
3, 30152, Pitch_bend_c, 1, 8352
3, 30156, Pitch_bend_c, 1, 8288
3, 30172, Pitch_bend_c, 1, 8192
3, 30207, Note_on_c, 1, 37, 0
3, 30215, Note_on_c, 1, 34, 108
3, 30236, Note_on_c, 1, 34, 0
3, 30237, Pitch_bend_c, 1, 6848
3, 30237, Note_on_c, 1, 38, 99
3, 30239, Pitch_bend_c, 1, 7040
3, 30241, Pitch_bend_c, 1, 7264
3, 30243, Pitch_bend_c, 1, 7584
3, 30245, Pitch_bend_c, 1, 7872
3, 30247, Pitch_bend_c, 1, 8192
3, 30249, Pitch_bend_c, 1, 8608
3, 30251, Pitch_bend_c, 1, 8704
3, 30253, Pitch_bend_c, 1, 8768
3, 30259, Pitch_bend_c, 1, 8672
3, 30261, Pitch_bend_c, 1, 8608
3, 30263, Pitch_bend_c, 1, 8512
3, 30269, Pitch_bend_c, 1, 8416
3, 30273, Pitch_bend_c, 1, 8352
3, 30277, Pitch_bend_c, 1, 8288
3, 30293, Pitch_bend_c, 1, 8192
3, 30327, Note_on_c, 1, 38, 0
3, 30337, Note_on_c, 1, 37, 108
3, 30354, Note_on_c, 1, 37, 0
3, 30355, Pitch_bend_c, 1, 6688
3, 30355, Note_on_c, 1, 40, 100
3, 30357, Pitch_bend_c, 1, 6880
3, 30359, Pitch_bend_c, 1, 7168
3, 30361, Pitch_bend_c, 1, 7520
3, 30363, Pitch_bend_c, 1, 7712
3, 30365, Pitch_bend_c, 1, 8128
3, 30367, Pitch_bend_c, 1, 8512
3, 30369, Pitch_bend_c, 1, 8704
3, 30371, Pitch_bend_c, 1, 8832
3, 30377, Pitch_bend_c, 1, 8768
3, 30379, Pitch_bend_c, 1, 8704
3, 30383, Pitch_bend_c, 1, 8576
3, 30387, Pitch_bend_c, 1, 8512
3, 30389, Pitch_bend_c, 1, 8448
3, 30393, Pitch_bend_c, 1, 8352
3, 30397, Pitch_bend_c, 1, 8288
3, 30415, Pitch_bend_c, 1, 8192
3, 30451, Note_on_c, 1, 40, 0
3, 30462, Note_on_c, 1, 38, 109
3, 30472, Note_on_c, 1, 38, 0
3, 30478, Pitch_bend_c, 1, 6656
3, 30478, Note_on_c, 1, 41, 102
3, 30480, Pitch_bend_c, 1, 6880
3, 30482, Pitch_bend_c, 1, 7136
3, 30484, Pitch_bend_c, 1, 7520
3, 30486, Pitch_bend_c, 1, 7840
3, 30488, Pitch_bend_c, 1, 8128
3, 30490, Pitch_bend_c, 1, 8512
3, 30492, Pitch_bend_c, 1, 8800
3, 30502, Pitch_bend_c, 1, 8672
3, 30504, Pitch_bend_c, 1, 8576
3, 30508, Pitch_bend_c, 1, 8512
3, 30510, Pitch_bend_c, 1, 8448
3, 30514, Pitch_bend_c, 1, 8352
3, 30520, Pitch_bend_c, 1, 8288
3, 30536, Pitch_bend_c, 1, 8192
3, 30570, Note_on_c, 1, 41, 0
3, 30580, Note_on_c, 1, 38, 108
3, 30588, Note_on_c, 1, 38, 0
3, 30597, Pitch_bend_c, 1, 6880
3, 30597, Note_on_c, 1, 42, 100
3, 30599, Pitch_bend_c, 1, 7040
3, 30601, Pitch_bend_c, 1, 7200
3, 30603, Pitch_bend_c, 1, 7488
3, 30605, Pitch_bend_c, 1, 7712
3, 30607, Pitch_bend_c, 1, 7904
3, 30609, Pitch_bend_c, 1, 8192
3, 30611, Pitch_bend_c, 1, 8480
3, 30613, Pitch_bend_c, 1, 8704
3, 30615, Pitch_bend_c, 1, 8768
3, 30623, Pitch_bend_c, 1, 8640
3, 30629, Pitch_bend_c, 1, 8512
3, 30635, Pitch_bend_c, 1, 8416
3, 30639, Pitch_bend_c, 1, 8320
3, 30663, Pitch_bend_c, 1, 8192
3, 30704, Note_on_c, 1, 42, 0
3, 30718, Pitch_bend_c, 1, 6688
3, 30718, Note_on_c, 1, 43, 101
3, 30720, Pitch_bend_c, 1, 6912
3, 30722, Pitch_bend_c, 1, 7040
3, 30724, Pitch_bend_c, 1, 7360
3, 30726, Pitch_bend_c, 1, 7648
3, 30728, Pitch_bend_c, 1, 7840
3, 30730, Pitch_bend_c, 1, 8192
3, 30732, Pitch_bend_c, 1, 8512
3, 30734, Pitch_bend_c, 1, 8704
3, 30736, Pitch_bend_c, 1, 8832
3, 30744, Pitch_bend_c, 1, 8768
3, 30746, Pitch_bend_c, 1, 8640
3, 30750, Pitch_bend_c, 1, 8576
3, 30754, Pitch_bend_c, 1, 8512
3, 30756, Pitch_bend_c, 1, 8448
3, 30760, Pitch_bend_c, 1, 8352
3, 30766, Pitch_bend_c, 1, 8288
3, 30784, Pitch_bend_c, 1, 8192
3, 30826, Note_on_c, 1, 43, 0
3, 30839, Pitch_bend_c, 1, 3936
3, 30839, Note_on_c, 1, 38, 102
3, 30847, Pitch_bend_c, 1, 4096
3, 30851, Pitch_bend_c, 1, 4256
3, 30853, Pitch_bend_c, 1, 4480
3, 30855, Pitch_bend_c, 1, 4928
3, 30857, Pitch_bend_c, 1, 6080
3, 30859, Pitch_bend_c, 1, 6752
3, 30861, Pitch_bend_c, 1, 7200
3, 30863, Pitch_bend_c, 1, 7520
3, 30865, Pitch_bend_c, 1, 7808
3, 30867, Pitch_bend_c, 1, 7968
3, 30869, Pitch_bend_c, 1, 8032
3, 30871, Pitch_bend_c, 1, 8096
3, 30887, Pitch_bend_c, 1, 8192
3, 30960, Note_on_c, 1, 38, 0
3, 30960, Pitch_bend_c, 1, 4096
3, 30960, Note_on_c, 1, 31, 100
3, 30968, Pitch_bend_c, 1, 4224
3, 30970, Pitch_bend_c, 1, 4512
3, 30972, Pitch_bend_c, 1, 4800
3, 30974, Pitch_bend_c, 1, 5632
3, 30976, Pitch_bend_c, 1, 6496
3, 30978, Pitch_bend_c, 1, 7232
3, 30980, Pitch_bend_c, 1, 7680
3, 30982, Pitch_bend_c, 1, 7872
3, 30984, Pitch_bend_c, 1, 8032
3, 30986, Pitch_bend_c, 1, 8096
3, 30998, Pitch_bend_c, 1, 8192
3, 31058, Note_on_c, 1, 31, 0
3, 31058, Note_on_c, 1, 37, 107
3, 31068, Note_on_c, 1, 37, 0
3, 31082, Pitch_bend_c, 1, 6848
3, 31082, Note_on_c, 1, 38, 103
3, 31084, Pitch_bend_c, 1, 7168
3, 31086, Pitch_bend_c, 1, 7584
3, 31088, Pitch_bend_c, 1, 8128
3, 31090, Pitch_bend_c, 1, 8608
3, 31092, Pitch_bend_c, 1, 8768
3, 31096, Pitch_bend_c, 1, 8704
3, 31098, Pitch_bend_c, 1, 8608
3, 31100, Pitch_bend_c, 1, 8512
3, 31104, Pitch_bend_c, 1, 8416
3, 31106, Pitch_bend_c, 1, 8320
3, 31118, Pitch_bend_c, 1, 8192
3, 31141, Note_on_c, 1, 38, 0
3, 31145, Note_on_c, 1, 43, 100
3, 31200, Note_on_c, 1, 43, 0
3, 31200, Pitch_bend_c, 1, 6912
3, 31200, Note_on_c, 1, 42, 100
3, 31202, Pitch_bend_c, 1, 7104
3, 31204, Pitch_bend_c, 1, 7232
3, 31206, Pitch_bend_c, 1, 7488
3, 31208, Pitch_bend_c, 1, 7712
3, 31210, Pitch_bend_c, 1, 8032
3, 31212, Pitch_bend_c, 1, 8192
3, 31214, Pitch_bend_c, 1, 8576
3, 31216, Pitch_bend_c, 1, 8672
3, 31218, Pitch_bend_c, 1, 8736
3, 31224, Pitch_bend_c, 1, 8672
3, 31228, Pitch_bend_c, 1, 8576
3, 31230, Pitch_bend_c, 1, 8512
3, 31234, Pitch_bend_c, 1, 8448
3, 31242, Pitch_bend_c, 1, 8320
3, 31264, Pitch_bend_c, 1, 8192
3, 31305, Note_on_c, 1, 42, 0
3, 31318, Pitch_bend_c, 1, 4096
3, 31318, Note_on_c, 1, 38, 99
3, 31326, Pitch_bend_c, 1, 4224
3, 31328, Pitch_bend_c, 1, 4288
3, 31330, Pitch_bend_c, 1, 4512
3, 31332, Pitch_bend_c, 1, 4800
3, 31334, Pitch_bend_c, 1, 5312
3, 31336, Pitch_bend_c, 1, 6144
3, 31338, Pitch_bend_c, 1, 7008
3, 31340, Pitch_bend_c, 1, 7360
3, 31342, Pitch_bend_c, 1, 7680
3, 31344, Pitch_bend_c, 1, 7872
3, 31346, Pitch_bend_c, 1, 7968
3, 31348, Pitch_bend_c, 1, 8096
3, 31364, Pitch_bend_c, 1, 8192
3, 31434, Note_on_c, 1, 38, 0
3, 31434, Pitch_bend_c, 1, 4000
3, 31434, Note_on_c, 1, 30, 100
3, 31442, Pitch_bend_c, 1, 4128
3, 31444, Pitch_bend_c, 1, 4192
3, 31446, Pitch_bend_c, 1, 4512
3, 31448, Pitch_bend_c, 1, 4960
3, 31450, Pitch_bend_c, 1, 6112
3, 31452, Pitch_bend_c, 1, 6752
3, 31454, Pitch_bend_c, 1, 7232
3, 31456, Pitch_bend_c, 1, 7680
3, 31458, Pitch_bend_c, 1, 7872
3, 31460, Pitch_bend_c, 1, 8032
3, 31462, Pitch_bend_c, 1, 8096
3, 31476, Pitch_bend_c, 1, 8192
3, 31541, Note_on_c, 1, 30, 0
3, 31541, Note_on_c, 1, 38, 109
3, 31548, Note_on_c, 1, 38, 0
3, 31562, Note_on_c, 1, 42, 103
3, 31620, Note_on_c, 1, 42, 0
3, 31620, Pitch_bend_c, 1, 7040
3, 31620, Note_on_c, 1, 37, 100
3, 31622, Pitch_bend_c, 1, 7296
3, 31624, Pitch_bend_c, 1, 7680
3, 31626, Pitch_bend_c, 1, 8128
3, 31628, Pitch_bend_c, 1, 8544
3, 31630, Pitch_bend_c, 1, 8672
3, 31636, Pitch_bend_c, 1, 8544
3, 31638, Pitch_bend_c, 1, 8480
3, 31640, Pitch_bend_c, 1, 8384
3, 31644, Pitch_bend_c, 1, 8320
3, 31646, Pitch_bend_c, 1, 8256
3, 31656, Pitch_bend_c, 1, 8192
3, 31678, Note_on_c, 1, 37, 0
3, 31685, Pitch_bend_c, 1, 7040
3, 31685, Note_on_c, 1, 41, 103
3, 31687, Pitch_bend_c, 1, 7200
3, 31689, Pitch_bend_c, 1, 7328
3, 31691, Pitch_bend_c, 1, 7584
3, 31693, Pitch_bend_c, 1, 7776
3, 31695, Pitch_bend_c, 1, 8064
3, 31697, Pitch_bend_c, 1, 8192
3, 31699, Pitch_bend_c, 1, 8544
3, 31701, Pitch_bend_c, 1, 8640
3, 31711, Pitch_bend_c, 1, 8576
3, 31715, Pitch_bend_c, 1, 8480
3, 31719, Pitch_bend_c, 1, 8416
3, 31727, Pitch_bend_c, 1, 8320
3, 31731, Pitch_bend_c, 1, 8256
3, 31749, Pitch_bend_c, 1, 8192
3, 31790, Note_on_c, 1, 41, 0
3, 31799, Pitch_bend_c, 1, 4352
3, 31799, Note_on_c, 1, 35, 99
3, 31807, Pitch_bend_c, 1, 4480
3, 31809, Pitch_bend_c, 1, 4544
3, 31811, Pitch_bend_c, 1, 4736
3, 31813, Pitch_bend_c, 1, 5024
3, 31815, Pitch_bend_c, 1, 5504
3, 31817, Pitch_bend_c, 1, 6272
3, 31819, Pitch_bend_c, 1, 7104
3, 31821, Pitch_bend_c, 1, 7424
3, 31823, Pitch_bend_c, 1, 7712
3, 31825, Pitch_bend_c, 1, 7904
3, 31827, Pitch_bend_c, 1, 8000
3, 31829, Pitch_bend_c, 1, 8128
3, 31845, Pitch_bend_c, 1, 8192
3, 31915, Note_on_c, 1, 35, 0
3, 31915, Pitch_bend_c, 1, 6976
3, 31915, Note_on_c, 1, 38, 100
3, 31917, Pitch_bend_c, 1, 7136
3, 31919, Pitch_bend_c, 1, 7360
3, 31921, Pitch_bend_c, 1, 7648
3, 31923, Pitch_bend_c, 1, 7904
3, 31925, Pitch_bend_c, 1, 8192
3, 31927, Pitch_bend_c, 1, 8448
3, 31929, Pitch_bend_c, 1, 8672
3, 31939, Pitch_bend_c, 1, 8576
3, 31941, Pitch_bend_c, 1, 8480
3, 31947, Pitch_bend_c, 1, 8384
3, 31951, Pitch_bend_c, 1, 8320
3, 31971, Pitch_bend_c, 1, 8192
3, 32006, Note_on_c, 1, 38, 0
3, 32016, Note_on_c, 1, 31, 109
3, 32035, Note_on_c, 1, 31, 0
3, 32039, Pitch_bend_c, 1, 7040
3, 32039, Note_on_c, 1, 47, 102
3, 32041, Pitch_bend_c, 1, 7200
3, 32043, Pitch_bend_c, 1, 7392
3, 32045, Pitch_bend_c, 1, 7680
3, 32047, Pitch_bend_c, 1, 7936
3, 32049, Pitch_bend_c, 1, 8192
3, 32051, Pitch_bend_c, 1, 8544
3, 32053, Pitch_bend_c, 1, 8640
3, 32061, Pitch_bend_c, 1, 8576
3, 32065, Pitch_bend_c, 1, 8480
3, 32067, Pitch_bend_c, 1, 8416
3, 32073, Pitch_bend_c, 1, 8320
3, 32079, Pitch_bend_c, 1, 8256
3, 32093, Pitch_bend_c, 1, 8192
3, 32126, Note_on_c, 1, 47, 0
3, 32136, Note_on_c, 1, 35, 108
3, 32143, Note_on_c, 1, 35, 0
3, 32160, Pitch_bend_c, 1, 6848
3, 32160, Note_on_c, 1, 48, 100
3, 32162, Pitch_bend_c, 1, 7040
3, 32164, Pitch_bend_c, 1, 7168
3, 32166, Pitch_bend_c, 1, 7456
3, 32168, Pitch_bend_c, 1, 7712
3, 32170, Pitch_bend_c, 1, 8032
3, 32172, Pitch_bend_c, 1, 8192
3, 32174, Pitch_bend_c, 1, 8608
3, 32176, Pitch_bend_c, 1, 8704
3, 32178, Pitch_bend_c, 1, 8768
3, 32184, Pitch_bend_c, 1, 8704
3, 32188, Pitch_bend_c, 1, 8608
3, 32190, Pitch_bend_c, 1, 8512
3, 32196, Pitch_bend_c, 1, 8416
3, 32200, Pitch_bend_c, 1, 8352
3, 32206, Pitch_bend_c, 1, 8288
3, 32224, Pitch_bend_c, 1, 8192
3, 32264, Note_on_c, 1, 48, 0
3, 32276, Pitch_bend_c, 1, 4096
3, 32276, Note_on_c, 1, 43, 101
3, 32284, Pitch_bend_c, 1, 4224
3, 32288, Pitch_bend_c, 1, 4384
3, 32290, Pitch_bend_c, 1, 4800
3, 32292, Pitch_bend_c, 1, 5312
3, 32294, Pitch_bend_c, 1, 6144
3, 32296, Pitch_bend_c, 1, 6784
3, 32298, Pitch_bend_c, 1, 7232
3, 32300, Pitch_bend_c, 1, 7520
3, 32302, Pitch_bend_c, 1, 7808
3, 32304, Pitch_bend_c, 1, 7968
3, 32306, Pitch_bend_c, 1, 8096
3, 32322, Pitch_bend_c, 1, 8192
3, 32395, Note_on_c, 1, 43, 0
3, 32395, Pitch_bend_c, 1, 3936
3, 32395, Note_on_c, 1, 39, 102
3, 32401, Pitch_bend_c, 1, 4096
3, 32405, Pitch_bend_c, 1, 4384
3, 32407, Pitch_bend_c, 1, 4928
3, 32409, Pitch_bend_c, 1, 6080
3, 32411, Pitch_bend_c, 1, 6752
3, 32413, Pitch_bend_c, 1, 7328
3, 32415, Pitch_bend_c, 1, 7808
3, 32417, Pitch_bend_c, 1, 7968
3, 32419, Pitch_bend_c, 1, 8096
3, 32431, Pitch_bend_c, 1, 8192
3, 32489, Note_on_c, 1, 39, 0
3, 32489, Note_on_c, 1, 38, 105
3, 32501, Note_on_c, 1, 38, 0
3, 32513, Note_on_c, 1, 36, 100
3, 32570, Note_on_c, 1, 36, 0
3, 32570, Pitch_bend_c, 1, 6784
3, 32570, Note_on_c, 1, 35, 102
3, 32572, Pitch_bend_c, 1, 7136
3, 32574, Pitch_bend_c, 1, 7552
3, 32576, Pitch_bend_c, 1, 8128
3, 32578, Pitch_bend_c, 1, 8608
3, 32580, Pitch_bend_c, 1, 8800
3, 32584, Pitch_bend_c, 1, 8672
3, 32586, Pitch_bend_c, 1, 8608
3, 32588, Pitch_bend_c, 1, 8544
3, 32590, Pitch_bend_c, 1, 8416
3, 32592, Pitch_bend_c, 1, 8352
3, 32596, Pitch_bend_c, 1, 8288
3, 32606, Pitch_bend_c, 1, 8192
3, 32627, Note_on_c, 1, 35, 0
3, 32633, Pitch_bend_c, 1, 6848
3, 32633, Note_on_c, 1, 36, 103
3, 32635, Pitch_bend_c, 1, 7040
3, 32637, Pitch_bend_c, 1, 7264
3, 32639, Pitch_bend_c, 1, 7584
3, 32641, Pitch_bend_c, 1, 7872
3, 32643, Pitch_bend_c, 1, 8192
3, 32645, Pitch_bend_c, 1, 8608
3, 32647, Pitch_bend_c, 1, 8704
3, 32649, Pitch_bend_c, 1, 8768
3, 32653, Pitch_bend_c, 1, 8704
3, 32657, Pitch_bend_c, 1, 8608
3, 32659, Pitch_bend_c, 1, 8512
3, 32663, Pitch_bend_c, 1, 8416
3, 32667, Pitch_bend_c, 1, 8352
3, 32673, Pitch_bend_c, 1, 8288
3, 32687, Pitch_bend_c, 1, 8192
3, 32720, Note_on_c, 1, 36, 0
3, 32731, Note_on_c, 1, 35, 104
3, 32743, Note_on_c, 1, 35, 0
3, 32750, Pitch_bend_c, 1, 6944
3, 32750, Note_on_c, 1, 43, 100
3, 32752, Pitch_bend_c, 1, 7232
3, 32754, Pitch_bend_c, 1, 7744
3, 32756, Pitch_bend_c, 1, 8128
3, 32758, Pitch_bend_c, 1, 8608
3, 32760, Pitch_bend_c, 1, 8704
3, 32764, Pitch_bend_c, 1, 8608
3, 32766, Pitch_bend_c, 1, 8512
3, 32768, Pitch_bend_c, 1, 8448
3, 32770, Pitch_bend_c, 1, 8384
3, 32772, Pitch_bend_c, 1, 8320
3, 32784, Pitch_bend_c, 1, 8192
3, 32805, Note_on_c, 1, 43, 0
3, 32811, Pitch_bend_c, 1, 6912
3, 32811, Note_on_c, 1, 39, 100
3, 32813, Pitch_bend_c, 1, 7200
3, 32815, Pitch_bend_c, 1, 7712
3, 32817, Pitch_bend_c, 1, 8128
3, 32819, Pitch_bend_c, 1, 8640
3, 32821, Pitch_bend_c, 1, 8736
3, 32825, Pitch_bend_c, 1, 8640
3, 32827, Pitch_bend_c, 1, 8512
3, 32829, Pitch_bend_c, 1, 8448
3, 32833, Pitch_bend_c, 1, 8320
3, 32847, Pitch_bend_c, 1, 8192
3, 32867, Note_on_c, 1, 39, 0
3, 32872, Pitch_bend_c, 1, 6688
3, 32872, Note_on_c, 1, 45, 99
3, 32874, Pitch_bend_c, 1, 6880
3, 32876, Pitch_bend_c, 1, 7040
3, 32878, Pitch_bend_c, 1, 7232
3, 32880, Pitch_bend_c, 1, 7648
3, 32882, Pitch_bend_c, 1, 7840
3, 32884, Pitch_bend_c, 1, 8128
3, 32886, Pitch_bend_c, 1, 8512
3, 32888, Pitch_bend_c, 1, 8704
3, 32890, Pitch_bend_c, 1, 8768
3, 32892, Pitch_bend_c, 1, 8832
3, 32898, Pitch_bend_c, 1, 8768
3, 32900, Pitch_bend_c, 1, 8704
3, 32904, Pitch_bend_c, 1, 8576
3, 32908, Pitch_bend_c, 1, 8512
3, 32910, Pitch_bend_c, 1, 8448
3, 32916, Pitch_bend_c, 1, 8352
3, 32922, Pitch_bend_c, 1, 8288
3, 32940, Pitch_bend_c, 1, 8192
3, 32982, Note_on_c, 1, 45, 0
3, 32994, Pitch_bend_c, 1, 4032
3, 32994, Note_on_c, 1, 38, 102
3, 33002, Pitch_bend_c, 1, 4160
3, 33004, Pitch_bend_c, 1, 4448
3, 33006, Pitch_bend_c, 1, 4736
3, 33008, Pitch_bend_c, 1, 5600
3, 33010, Pitch_bend_c, 1, 6784
3, 33012, Pitch_bend_c, 1, 7232
3, 33014, Pitch_bend_c, 1, 7680
3, 33016, Pitch_bend_c, 1, 7968
3, 33018, Pitch_bend_c, 1, 8032
3, 33020, Pitch_bend_c, 1, 8096
3, 33032, Pitch_bend_c, 1, 8192
3, 33091, Note_on_c, 1, 38, 0
3, 33091, Note_on_c, 1, 45, 109
3, 33106, Note_on_c, 1, 45, 0
3, 33116, Pitch_bend_c, 1, 7040
3, 33116, Note_on_c, 1, 43, 103
3, 33118, Pitch_bend_c, 1, 7200
3, 33120, Pitch_bend_c, 1, 7328
3, 33122, Pitch_bend_c, 1, 7584
3, 33124, Pitch_bend_c, 1, 7776
3, 33126, Pitch_bend_c, 1, 7936
3, 33128, Pitch_bend_c, 1, 8192
3, 33130, Pitch_bend_c, 1, 8416
3, 33132, Pitch_bend_c, 1, 8640
3, 33142, Pitch_bend_c, 1, 8576
3, 33148, Pitch_bend_c, 1, 8480
3, 33152, Pitch_bend_c, 1, 8416
3, 33158, Pitch_bend_c, 1, 8320
3, 33164, Pitch_bend_c, 1, 8256
3, 33182, Pitch_bend_c, 1, 8192
3, 33223, Note_on_c, 1, 43, 0
3, 33236, Pitch_bend_c, 1, 4000
3, 33236, Note_on_c, 1, 38, 103
3, 33244, Pitch_bend_c, 1, 4128
3, 33248, Pitch_bend_c, 1, 4288
3, 33250, Pitch_bend_c, 1, 4512
3, 33252, Pitch_bend_c, 1, 4960
3, 33254, Pitch_bend_c, 1, 5568
3, 33256, Pitch_bend_c, 1, 6464
3, 33258, Pitch_bend_c, 1, 7232
3, 33260, Pitch_bend_c, 1, 7520
3, 33262, Pitch_bend_c, 1, 7808
3, 33264, Pitch_bend_c, 1, 7968
3, 33266, Pitch_bend_c, 1, 8032
3, 33268, Pitch_bend_c, 1, 8096
3, 33284, Pitch_bend_c, 1, 8192
3, 33358, Note_on_c, 1, 38, 0
3, 33358, Pitch_bend_c, 1, 6880
3, 33358, Note_on_c, 1, 33, 103
3, 33360, Pitch_bend_c, 1, 7200
3, 33362, Pitch_bend_c, 1, 7616
3, 33364, Pitch_bend_c, 1, 8128
3, 33366, Pitch_bend_c, 1, 8576
3, 33368, Pitch_bend_c, 1, 8736
3, 33374, Pitch_bend_c, 1, 8576
3, 33376, Pitch_bend_c, 1, 8512
3, 33378, Pitch_bend_c, 1, 8416
3, 33382, Pitch_bend_c, 1, 8320
3, 33394, Pitch_bend_c, 1, 8192
3, 33416, Note_on_c, 1, 33, 0
3, 33422, Pitch_bend_c, 1, 6880
3, 33422, Note_on_c, 1, 32, 99
3, 33424, Pitch_bend_c, 1, 7200
3, 33426, Pitch_bend_c, 1, 7712
3, 33428, Pitch_bend_c, 1, 8192
3, 33430, Pitch_bend_c, 1, 8640
3, 33432, Pitch_bend_c, 1, 8768
3, 33436, Pitch_bend_c, 1, 8608
3, 33438, Pitch_bend_c, 1, 8512
3, 33442, Pitch_bend_c, 1, 8416
3, 33444, Pitch_bend_c, 1, 8320
3, 33456, Pitch_bend_c, 1, 8192
3, 33476, Note_on_c, 1, 32, 0
3, 33482, Pitch_bend_c, 1, 6816
3, 33482, Note_on_c, 1, 31, 102
3, 33484, Pitch_bend_c, 1, 7136
3, 33486, Pitch_bend_c, 1, 7584
3, 33488, Pitch_bend_c, 1, 8128
3, 33490, Pitch_bend_c, 1, 8608
3, 33492, Pitch_bend_c, 1, 8768
3, 33496, Pitch_bend_c, 1, 8672
3, 33498, Pitch_bend_c, 1, 8608
3, 33500, Pitch_bend_c, 1, 8544
3, 33502, Pitch_bend_c, 1, 8416
3, 33504, Pitch_bend_c, 1, 8352
3, 33508, Pitch_bend_c, 1, 8288
3, 33518, Pitch_bend_c, 1, 8192
3, 33539, Note_on_c, 1, 31, 0
3, 33544, Note_on_c, 1, 43, 110
3, 33583, Note_on_c, 1, 43, 0
3, 33603, Pitch_bend_c, 1, 6944
3, 33603, Note_on_c, 1, 44, 103
3, 33605, Pitch_bend_c, 1, 7136
3, 33607, Pitch_bend_c, 1, 7232
3, 33609, Pitch_bend_c, 1, 7520
3, 33611, Pitch_bend_c, 1, 7744
3, 33613, Pitch_bend_c, 1, 8032
3, 33615, Pitch_bend_c, 1, 8192
3, 33617, Pitch_bend_c, 1, 8448
3, 33619, Pitch_bend_c, 1, 8672
3, 33629, Pitch_bend_c, 1, 8608
3, 33633, Pitch_bend_c, 1, 8512
3, 33637, Pitch_bend_c, 1, 8448
3, 33641, Pitch_bend_c, 1, 8384
3, 33645, Pitch_bend_c, 1, 8320
3, 33669, Pitch_bend_c, 1, 8192
3, 33709, Note_on_c, 1, 44, 0
3, 33720, Pitch_bend_c, 1, 4224
3, 33720, Note_on_c, 1, 32, 100
3, 33728, Pitch_bend_c, 1, 4352
3, 33730, Pitch_bend_c, 1, 4416
3, 33732, Pitch_bend_c, 1, 4640
3, 33734, Pitch_bend_c, 1, 4928
3, 33736, Pitch_bend_c, 1, 5408
3, 33738, Pitch_bend_c, 1, 6560
3, 33740, Pitch_bend_c, 1, 7072
3, 33742, Pitch_bend_c, 1, 7392
3, 33744, Pitch_bend_c, 1, 7712
3, 33746, Pitch_bend_c, 1, 7904
3, 33748, Pitch_bend_c, 1, 8064
3, 33750, Pitch_bend_c, 1, 8128
3, 33766, Pitch_bend_c, 1, 8192
3, 33835, Note_on_c, 1, 32, 0
3, 33835, Pitch_bend_c, 1, 6848
3, 33835, Note_on_c, 1, 42, 99
3, 33837, Pitch_bend_c, 1, 7104
3, 33839, Pitch_bend_c, 1, 7360
3, 33841, Pitch_bend_c, 1, 7712
3, 33843, Pitch_bend_c, 1, 8032
3, 33845, Pitch_bend_c, 1, 8320
3, 33847, Pitch_bend_c, 1, 8640
3, 33849, Pitch_bend_c, 1, 8768
3, 33855, Pitch_bend_c, 1, 8640
3, 33859, Pitch_bend_c, 1, 8512
3, 33863, Pitch_bend_c, 1, 8416
3, 33867, Pitch_bend_c, 1, 8320
3, 33885, Pitch_bend_c, 1, 8192
3, 33916, Note_on_c, 1, 42, 0
3, 33926, Note_on_c, 1, 34, 104
3, 33946, Note_on_c, 1, 34, 0
3, 33951, Pitch_bend_c, 1, 7008
3, 33951, Note_on_c, 1, 38, 100
3, 33953, Pitch_bend_c, 1, 7296
3, 33955, Pitch_bend_c, 1, 7744
3, 33957, Pitch_bend_c, 1, 8128
3, 33959, Pitch_bend_c, 1, 8608
3, 33961, Pitch_bend_c, 1, 8704
3, 33965, Pitch_bend_c, 1, 8608
3, 33967, Pitch_bend_c, 1, 8480
3, 33971, Pitch_bend_c, 1, 8384
3, 33973, Pitch_bend_c, 1, 8320
3, 33977, Pitch_bend_c, 1, 8256
3, 33985, Pitch_bend_c, 1, 8192
3, 34006, Note_on_c, 1, 38, 0
3, 34011, Note_on_c, 1, 45, 105
3, 34035, Note_on_c, 1, 45, 0
3, 34071, Pitch_bend_c, 1, 7136
3, 34071, Note_on_c, 1, 43, 102
3, 34073, Pitch_bend_c, 1, 7296
3, 34075, Pitch_bend_c, 1, 7488
3, 34077, Pitch_bend_c, 1, 7744
3, 34079, Pitch_bend_c, 1, 7968
3, 34081, Pitch_bend_c, 1, 8192
3, 34083, Pitch_bend_c, 1, 8512
3, 34085, Pitch_bend_c, 1, 8608
3, 34093, Pitch_bend_c, 1, 8544
3, 34097, Pitch_bend_c, 1, 8448
3, 34101, Pitch_bend_c, 1, 8352
3, 34105, Pitch_bend_c, 1, 8288
3, 34125, Pitch_bend_c, 1, 8192
3, 34158, Note_on_c, 1, 43, 0
3, 34167, Note_on_c, 1, 34, 108
3, 34187, Note_on_c, 1, 34, 0
3, 34193, Pitch_bend_c, 1, 6912
3, 34193, Note_on_c, 1, 38, 100
3, 34195, Pitch_bend_c, 1, 7072
3, 34197, Pitch_bend_c, 1, 7200
3, 34199, Pitch_bend_c, 1, 7488
3, 34201, Pitch_bend_c, 1, 7712
3, 34203, Pitch_bend_c, 1, 7904
3, 34205, Pitch_bend_c, 1, 8192
3, 34207, Pitch_bend_c, 1, 8448
3, 34209, Pitch_bend_c, 1, 8640
3, 34211, Pitch_bend_c, 1, 8736
3, 34221, Pitch_bend_c, 1, 8576
3, 34225, Pitch_bend_c, 1, 8512
3, 34229, Pitch_bend_c, 1, 8448
3, 34235, Pitch_bend_c, 1, 8320
3, 34259, Pitch_bend_c, 1, 8192
3, 34301, Note_on_c, 1, 38, 0
3, 34315, Pitch_bend_c, 1, 4288
3, 34315, Note_on_c, 1, 31, 101
3, 34323, Pitch_bend_c, 1, 4384
3, 34325, Pitch_bend_c, 1, 4544
3, 34327, Pitch_bend_c, 1, 4960
3, 34329, Pitch_bend_c, 1, 5440
3, 34331, Pitch_bend_c, 1, 6592
3, 34333, Pitch_bend_c, 1, 7072
3, 34335, Pitch_bend_c, 1, 7552
3, 34337, Pitch_bend_c, 1, 7840
3, 34339, Pitch_bend_c, 1, 8000
3, 34341, Pitch_bend_c, 1, 8128
3, 34355, Pitch_bend_c, 1, 8192
3, 34416, Note_on_c, 1, 31, 0
3, 34416, Note_on_c, 1, 34, 107
3, 34430, Note_on_c, 1, 34, 0
3, 34438, Note_on_c, 1, 38, 102
3, 34497, Note_on_c, 1, 38, 0
3, 34497, Pitch_bend_c, 1, 7136
3, 34497, Note_on_c, 1, 44, 103
3, 34499, Pitch_bend_c, 1, 7392
3, 34501, Pitch_bend_c, 1, 7808
3, 34503, Pitch_bend_c, 1, 8192
3, 34505, Pitch_bend_c, 1, 8544
3, 34507, Pitch_bend_c, 1, 8640
3, 34511, Pitch_bend_c, 1, 8544
3, 34513, Pitch_bend_c, 1, 8448
3, 34517, Pitch_bend_c, 1, 8352
3, 34519, Pitch_bend_c, 1, 8288
3, 34531, Pitch_bend_c, 1, 8192
3, 34552, Note_on_c, 1, 44, 0
3, 34557, Pitch_bend_c, 1, 6688
3, 34557, Note_on_c, 1, 43, 100
3, 34559, Pitch_bend_c, 1, 6912
3, 34561, Pitch_bend_c, 1, 7040
3, 34563, Pitch_bend_c, 1, 7264
3, 34565, Pitch_bend_c, 1, 7648
3, 34567, Pitch_bend_c, 1, 7840
3, 34569, Pitch_bend_c, 1, 8128
3, 34571, Pitch_bend_c, 1, 8352
3, 34573, Pitch_bend_c, 1, 8704
3, 34575, Pitch_bend_c, 1, 8768
3, 34577, Pitch_bend_c, 1, 8832
3, 34583, Pitch_bend_c, 1, 8768
3, 34585, Pitch_bend_c, 1, 8704
3, 34587, Pitch_bend_c, 1, 8640
3, 34589, Pitch_bend_c, 1, 8576
3, 34595, Pitch_bend_c, 1, 8512
3, 34597, Pitch_bend_c, 1, 8448
3, 34601, Pitch_bend_c, 1, 8352
3, 34607, Pitch_bend_c, 1, 8288
3, 34627, Pitch_bend_c, 1, 8192
3, 34670, Note_on_c, 1, 43, 0
3, 34681, Pitch_bend_c, 1, 4064
3, 34681, Note_on_c, 1, 38, 103
3, 34689, Pitch_bend_c, 1, 4192
3, 34691, Pitch_bend_c, 1, 4256
3, 34693, Pitch_bend_c, 1, 4480
3, 34695, Pitch_bend_c, 1, 4768
3, 34697, Pitch_bend_c, 1, 5312
3, 34699, Pitch_bend_c, 1, 6496
3, 34701, Pitch_bend_c, 1, 7008
3, 34703, Pitch_bend_c, 1, 7360
3, 34705, Pitch_bend_c, 1, 7680
3, 34707, Pitch_bend_c, 1, 7872
3, 34709, Pitch_bend_c, 1, 8032
3, 34711, Pitch_bend_c, 1, 8096
3, 34727, Pitch_bend_c, 1, 8192
3, 34796, Note_on_c, 1, 38, 0
3, 34796, Pitch_bend_c, 1, 4320
3, 34796, Note_on_c, 1, 32, 100
3, 34804, Pitch_bend_c, 1, 4448
3, 34808, Pitch_bend_c, 1, 4576
3, 34810, Pitch_bend_c, 1, 4800
3, 34812, Pitch_bend_c, 1, 5184
3, 34814, Pitch_bend_c, 1, 5760
3, 34816, Pitch_bend_c, 1, 6592
3, 34818, Pitch_bend_c, 1, 7072
3, 34820, Pitch_bend_c, 1, 7424
3, 34822, Pitch_bend_c, 1, 7840
3, 34824, Pitch_bend_c, 1, 8000
3, 34826, Pitch_bend_c, 1, 8064
3, 34828, Pitch_bend_c, 1, 8128
3, 34844, Pitch_bend_c, 1, 8192
3, 34919, Note_on_c, 1, 32, 0
3, 34919, Note_on_c, 1, 31, 99
3, 34978, Note_on_c, 1, 31, 0
3, 34978, Note_on_c, 1, 35, 102
3, 35037, Note_on_c, 1, 35, 0
3, 35037, Pitch_bend_c, 1, 6880
3, 35037, Note_on_c, 1, 36, 100
3, 35039, Pitch_bend_c, 1, 7072
3, 35041, Pitch_bend_c, 1, 7296
3, 35043, Pitch_bend_c, 1, 7616
3, 35045, Pitch_bend_c, 1, 7904
3, 35047, Pitch_bend_c, 1, 8192
3, 35049, Pitch_bend_c, 1, 8576
3, 35051, Pitch_bend_c, 1, 8704
3, 35059, Pitch_bend_c, 1, 8640
3, 35061, Pitch_bend_c, 1, 8576
3, 35063, Pitch_bend_c, 1, 8512
3, 35067, Pitch_bend_c, 1, 8448
3, 35071, Pitch_bend_c, 1, 8320
3, 35091, Pitch_bend_c, 1, 8192
3, 35125, Note_on_c, 1, 36, 0
3, 35134, Note_on_c, 1, 34, 109
3, 35153, Note_on_c, 1, 34, 0
3, 35154, Pitch_bend_c, 1, 6944
3, 35154, Note_on_c, 1, 38, 102
3, 35156, Pitch_bend_c, 1, 7136
3, 35158, Pitch_bend_c, 1, 7232
3, 35160, Pitch_bend_c, 1, 7520
3, 35162, Pitch_bend_c, 1, 7744
3, 35164, Pitch_bend_c, 1, 7904
3, 35166, Pitch_bend_c, 1, 8192
3, 35168, Pitch_bend_c, 1, 8448
3, 35170, Pitch_bend_c, 1, 8608
3, 35172, Pitch_bend_c, 1, 8704
3, 35182, Pitch_bend_c, 1, 8576
3, 35186, Pitch_bend_c, 1, 8512
3, 35190, Pitch_bend_c, 1, 8448
3, 35192, Pitch_bend_c, 1, 8384
3, 35196, Pitch_bend_c, 1, 8320
3, 35220, Pitch_bend_c, 1, 8192
3, 35262, Note_on_c, 1, 38, 0
3, 35273, Pitch_bend_c, 1, 7136
3, 35273, Note_on_c, 1, 39, 103
3, 35275, Pitch_bend_c, 1, 7264
3, 35277, Pitch_bend_c, 1, 7392
3, 35279, Pitch_bend_c, 1, 7616
3, 35281, Pitch_bend_c, 1, 7808
3, 35283, Pitch_bend_c, 1, 7968
3, 35285, Pitch_bend_c, 1, 8192
3, 35287, Pitch_bend_c, 1, 8416
3, 35289, Pitch_bend_c, 1, 8544
3, 35291, Pitch_bend_c, 1, 8640
3, 35301, Pitch_bend_c, 1, 8544
3, 35305, Pitch_bend_c, 1, 8448
3, 35311, Pitch_bend_c, 1, 8352
3, 35315, Pitch_bend_c, 1, 8288
3, 35341, Pitch_bend_c, 1, 8192
3, 35382, Note_on_c, 1, 39, 0
3, 35395, Note_on_c, 1, 43, 103
3, 35452, Note_on_c, 1, 43, 0
3, 35452, Note_on_c, 1, 39, 105
3, 35485, Note_on_c, 1, 39, 0
3, 35513, Pitch_bend_c, 1, 6816
3, 35513, Note_on_c, 1, 45, 103
3, 35515, Pitch_bend_c, 1, 7008
3, 35517, Pitch_bend_c, 1, 7136
3, 35519, Pitch_bend_c, 1, 7328
3, 35521, Pitch_bend_c, 1, 7680
3, 35523, Pitch_bend_c, 1, 7872
3, 35525, Pitch_bend_c, 1, 8128
3, 35527, Pitch_bend_c, 1, 8480
3, 35529, Pitch_bend_c, 1, 8672
3, 35531, Pitch_bend_c, 1, 8736
3, 35541, Pitch_bend_c, 1, 8672
3, 35543, Pitch_bend_c, 1, 8608
3, 35545, Pitch_bend_c, 1, 8544
3, 35549, Pitch_bend_c, 1, 8480
3, 35551, Pitch_bend_c, 1, 8416
3, 35557, Pitch_bend_c, 1, 8352
3, 35563, Pitch_bend_c, 1, 8288
3, 35581, Pitch_bend_c, 1, 8192
3, 35623, Note_on_c, 1, 45, 0
3, 35634, Pitch_bend_c, 1, 4288
3, 35634, Note_on_c, 1, 40, 102
3, 35642, Pitch_bend_c, 1, 4384
3, 35646, Pitch_bend_c, 1, 4544
3, 35648, Pitch_bend_c, 1, 4768
3, 35650, Pitch_bend_c, 1, 5152
3, 35652, Pitch_bend_c, 1, 6240
3, 35654, Pitch_bend_c, 1, 6848
3, 35656, Pitch_bend_c, 1, 7296
3, 35658, Pitch_bend_c, 1, 7552
3, 35660, Pitch_bend_c, 1, 7840
3, 35662, Pitch_bend_c, 1, 8000
3, 35664, Pitch_bend_c, 1, 8064
3, 35666, Pitch_bend_c, 1, 8128
3, 35682, Pitch_bend_c, 1, 8192
3, 35755, Note_on_c, 1, 40, 0
3, 35755, Pitch_bend_c, 1, 4224
3, 35755, Note_on_c, 1, 34, 103
3, 35763, Pitch_bend_c, 1, 4352
3, 35767, Pitch_bend_c, 1, 4512
3, 35769, Pitch_bend_c, 1, 4736
3, 35771, Pitch_bend_c, 1, 5408
3, 35773, Pitch_bend_c, 1, 6208
3, 35775, Pitch_bend_c, 1, 6848
3, 35777, Pitch_bend_c, 1, 7264
3, 35779, Pitch_bend_c, 1, 7552
3, 35781, Pitch_bend_c, 1, 7840
3, 35783, Pitch_bend_c, 1, 8000
3, 35785, Pitch_bend_c, 1, 8128
3, 35801, Pitch_bend_c, 1, 8192
3, 35875, Note_on_c, 1, 34, 0
3, 35875, Note_on_c, 1, 33, 103
3, 35933, Note_on_c, 1, 33, 0
3, 35933, Note_on_c, 1, 37, 105
3, 35953, Note_on_c, 1, 37, 0
3, 36000, Note_on_c, 1, 40, 108
3, 36002, Note_on_c, 1, 40, 0
3, 36002, Note_on_c, 1, 38, 109
3, 36008, Note_on_c, 1, 38, 0
3, 36117, Pitch_bend_c, 1, 6880
3, 36117, Note_on_c, 1, 45, 102
3, 36119, Pitch_bend_c, 1, 7104
3, 36121, Pitch_bend_c, 1, 7360
3, 36123, Pitch_bend_c, 1, 7712
3, 36125, Pitch_bend_c, 1, 8032
3, 36127, Pitch_bend_c, 1, 8320
3, 36129, Pitch_bend_c, 1, 8640
3, 36131, Pitch_bend_c, 1, 8768
3, 36137, Pitch_bend_c, 1, 8704
3, 36139, Pitch_bend_c, 1, 8608
3, 36141, Pitch_bend_c, 1, 8512
3, 36147, Pitch_bend_c, 1, 8416
3, 36151, Pitch_bend_c, 1, 8320
3, 36169, Pitch_bend_c, 1, 8192
3, 36201, Note_on_c, 1, 45, 0
3, 36209, Note_on_c, 1, 38, 109
3, 36214, Note_on_c, 1, 38, 0
3, 36234, Pitch_bend_c, 1, 6944
3, 36234, Note_on_c, 1, 50, 102
3, 36236, Pitch_bend_c, 1, 7104
3, 36238, Pitch_bend_c, 1, 7232
3, 36240, Pitch_bend_c, 1, 7424
3, 36242, Pitch_bend_c, 1, 7648
3, 36244, Pitch_bend_c, 1, 7904
3, 36246, Pitch_bend_c, 1, 8128
3, 36248, Pitch_bend_c, 1, 8320
3, 36250, Pitch_bend_c, 1, 8576
3, 36252, Pitch_bend_c, 1, 8672
3, 36254, Pitch_bend_c, 1, 8736
3, 36262, Pitch_bend_c, 1, 8640
3, 36264, Pitch_bend_c, 1, 8576
3, 36268, Pitch_bend_c, 1, 8512
3, 36272, Pitch_bend_c, 1, 8448
3, 36280, Pitch_bend_c, 1, 8320
3, 36306, Pitch_bend_c, 1, 8192
3, 36349, Note_on_c, 1, 50, 0
3, 36362, Note_on_c, 1, 38, 103
3, 36418, Note_on_c, 1, 38, 0
3, 36418, Note_on_c, 1, 45, 104
3, 36434, Note_on_c, 1, 45, 0
3, 36477, Pitch_bend_c, 1, 6688
3, 36477, Note_on_c, 1, 43, 100
3, 36479, Pitch_bend_c, 1, 6880
3, 36481, Pitch_bend_c, 1, 7040
3, 36483, Pitch_bend_c, 1, 7232
3, 36485, Pitch_bend_c, 1, 7648
3, 36487, Pitch_bend_c, 1, 7840
3, 36489, Pitch_bend_c, 1, 8128
3, 36491, Pitch_bend_c, 1, 8512
3, 36493, Pitch_bend_c, 1, 8704
3, 36495, Pitch_bend_c, 1, 8768
3, 36497, Pitch_bend_c, 1, 8832
3, 36503, Pitch_bend_c, 1, 8768
3, 36505, Pitch_bend_c, 1, 8704
3, 36509, Pitch_bend_c, 1, 8576
3, 36513, Pitch_bend_c, 1, 8512
3, 36517, Pitch_bend_c, 1, 8448
3, 36521, Pitch_bend_c, 1, 8352
3, 36527, Pitch_bend_c, 1, 8288
3, 36545, Pitch_bend_c, 1, 8192
3, 36588, Note_on_c, 1, 43, 0
3, 36597, Pitch_bend_c, 1, 4192
3, 36597, Note_on_c, 1, 38, 99
3, 36605, Pitch_bend_c, 1, 4320
3, 36609, Pitch_bend_c, 1, 4480
3, 36611, Pitch_bend_c, 1, 4704
3, 36613, Pitch_bend_c, 1, 5088
3, 36615, Pitch_bend_c, 1, 5696
3, 36617, Pitch_bend_c, 1, 6560
3, 36619, Pitch_bend_c, 1, 7264
3, 36621, Pitch_bend_c, 1, 7552
3, 36623, Pitch_bend_c, 1, 7840
3, 36625, Pitch_bend_c, 1, 8000
3, 36627, Pitch_bend_c, 1, 8064
3, 36629, Pitch_bend_c, 1, 8128
3, 36645, Pitch_bend_c, 1, 8192
3, 36719, Note_on_c, 1, 38, 0
3, 36719, Pitch_bend_c, 1, 4320
3, 36719, Note_on_c, 1, 31, 100
3, 36727, Pitch_bend_c, 1, 4448
3, 36731, Pitch_bend_c, 1, 4576
3, 36733, Pitch_bend_c, 1, 4800
3, 36735, Pitch_bend_c, 1, 5184
3, 36737, Pitch_bend_c, 1, 5760
3, 36739, Pitch_bend_c, 1, 6592
3, 36741, Pitch_bend_c, 1, 7072
3, 36743, Pitch_bend_c, 1, 7424
3, 36745, Pitch_bend_c, 1, 7712
3, 36747, Pitch_bend_c, 1, 7904
3, 36749, Pitch_bend_c, 1, 8000
3, 36751, Pitch_bend_c, 1, 8128
3, 36767, Pitch_bend_c, 1, 8192
3, 36844, Note_on_c, 1, 31, 0
3, 36844, Pitch_bend_c, 1, 6656
3, 36844, Note_on_c, 1, 38, 103
3, 36846, Pitch_bend_c, 1, 6880
3, 36848, Pitch_bend_c, 1, 7136
3, 36850, Pitch_bend_c, 1, 7360
3, 36852, Pitch_bend_c, 1, 7712
3, 36854, Pitch_bend_c, 1, 8128
3, 36856, Pitch_bend_c, 1, 8352
3, 36858, Pitch_bend_c, 1, 8736
3, 36860, Pitch_bend_c, 1, 8832
3, 36868, Pitch_bend_c, 1, 8736
3, 36870, Pitch_bend_c, 1, 8672
3, 36872, Pitch_bend_c, 1, 8576
3, 36876, Pitch_bend_c, 1, 8512
3, 36878, Pitch_bend_c, 1, 8448
3, 36882, Pitch_bend_c, 1, 8352
3, 36888, Pitch_bend_c, 1, 8288
3, 36904, Pitch_bend_c, 1, 8192
3, 36941, Note_on_c, 1, 38, 0
3, 36950, Note_on_c, 1, 38, 105
3, 36962, Note_on_c, 1, 38, 0
3, 36966, Pitch_bend_c, 1, 6784
3, 36966, Note_on_c, 1, 42, 103
3, 36968, Pitch_bend_c, 1, 6976
3, 36970, Pitch_bend_c, 1, 7136
3, 36972, Pitch_bend_c, 1, 7424
3, 36974, Pitch_bend_c, 1, 7680
3, 36976, Pitch_bend_c, 1, 8000
3, 36978, Pitch_bend_c, 1, 8192
3, 36980, Pitch_bend_c, 1, 8608
3, 36982, Pitch_bend_c, 1, 8736
3, 36984, Pitch_bend_c, 1, 8800
3, 36990, Pitch_bend_c, 1, 8736
3, 36992, Pitch_bend_c, 1, 8672
3, 36994, Pitch_bend_c, 1, 8608
3, 36996, Pitch_bend_c, 1, 8544
3, 37000, Pitch_bend_c, 1, 8480
3, 37002, Pitch_bend_c, 1, 8416
3, 37006, Pitch_bend_c, 1, 8352
3, 37012, Pitch_bend_c, 1, 8288
3, 37030, Pitch_bend_c, 1, 8192
3, 37069, Note_on_c, 1, 42, 0
3, 37078, Pitch_bend_c, 1, 4000
3, 37078, Note_on_c, 1, 38, 99
3, 37086, Pitch_bend_c, 1, 4128
3, 37088, Pitch_bend_c, 1, 4288
3, 37090, Pitch_bend_c, 1, 4704
3, 37092, Pitch_bend_c, 1, 5248
3, 37094, Pitch_bend_c, 1, 6464
3, 37096, Pitch_bend_c, 1, 6976
3, 37098, Pitch_bend_c, 1, 7520
3, 37100, Pitch_bend_c, 1, 7808
3, 37102, Pitch_bend_c, 1, 7968
3, 37104, Pitch_bend_c, 1, 8096
3, 37118, Pitch_bend_c, 1, 8192
3, 37179, Note_on_c, 1, 38, 0
3, 37179, Note_on_c, 1, 36, 108
3, 37189, Note_on_c, 1, 36, 0
3, 37200, Pitch_bend_c, 1, 6688
3, 37200, Note_on_c, 1, 30, 100
3, 37202, Pitch_bend_c, 1, 6912
3, 37204, Pitch_bend_c, 1, 7168
3, 37206, Pitch_bend_c, 1, 7520
3, 37208, Pitch_bend_c, 1, 7840
3, 37210, Pitch_bend_c, 1, 8192
3, 37212, Pitch_bend_c, 1, 8640
3, 37214, Pitch_bend_c, 1, 8768
3, 37216, Pitch_bend_c, 1, 8832
3, 37222, Pitch_bend_c, 1, 8704
3, 37224, Pitch_bend_c, 1, 8640
3, 37226, Pitch_bend_c, 1, 8576
3, 37230, Pitch_bend_c, 1, 8512
3, 37232, Pitch_bend_c, 1, 8448
3, 37236, Pitch_bend_c, 1, 8352
3, 37240, Pitch_bend_c, 1, 8288
3, 37256, Pitch_bend_c, 1, 8192
3, 37290, Note_on_c, 1, 30, 0
3, 37301, Note_on_c, 1, 36, 109
3, 37307, Note_on_c, 1, 36, 0
3, 37317, Pitch_bend_c, 1, 6816
3, 37317, Note_on_c, 1, 42, 102
3, 37319, Pitch_bend_c, 1, 7136
3, 37321, Pitch_bend_c, 1, 7680
3, 37323, Pitch_bend_c, 1, 8128
3, 37325, Pitch_bend_c, 1, 8672
3, 37327, Pitch_bend_c, 1, 8768
3, 37331, Pitch_bend_c, 1, 8672
3, 37333, Pitch_bend_c, 1, 8544
3, 37335, Pitch_bend_c, 1, 8480
3, 37337, Pitch_bend_c, 1, 8416
3, 37339, Pitch_bend_c, 1, 8352
3, 37343, Pitch_bend_c, 1, 8288
3, 37353, Pitch_bend_c, 1, 8192
3, 37373, Note_on_c, 1, 42, 0
3, 37378, Note_on_c, 1, 39, 108
3, 37400, Note_on_c, 1, 39, 0
3, 37435, Pitch_bend_c, 1, 6720
3, 37435, Note_on_c, 1, 31, 100
3, 37437, Pitch_bend_c, 1, 6912
3, 37439, Pitch_bend_c, 1, 7072
3, 37441, Pitch_bend_c, 1, 7392
3, 37443, Pitch_bend_c, 1, 7648
3, 37445, Pitch_bend_c, 1, 7840
3, 37447, Pitch_bend_c, 1, 8192
3, 37449, Pitch_bend_c, 1, 8512
3, 37451, Pitch_bend_c, 1, 8704
3, 37453, Pitch_bend_c, 1, 8832
3, 37461, Pitch_bend_c, 1, 8768
3, 37463, Pitch_bend_c, 1, 8704
3, 37465, Pitch_bend_c, 1, 8640
3, 37467, Pitch_bend_c, 1, 8544
3, 37473, Pitch_bend_c, 1, 8448
3, 37477, Pitch_bend_c, 1, 8352
3, 37483, Pitch_bend_c, 1, 8288
3, 37503, Pitch_bend_c, 1, 8192
3, 37544, Note_on_c, 1, 31, 0
3, 37554, Pitch_bend_c, 1, 7008
3, 37554, Note_on_c, 1, 35, 100
3, 37556, Pitch_bend_c, 1, 7168
3, 37558, Pitch_bend_c, 1, 7296
3, 37560, Pitch_bend_c, 1, 7456
3, 37562, Pitch_bend_c, 1, 7744
3, 37564, Pitch_bend_c, 1, 7936
3, 37566, Pitch_bend_c, 1, 8128
3, 37568, Pitch_bend_c, 1, 8448
3, 37570, Pitch_bend_c, 1, 8608
3, 37574, Pitch_bend_c, 1, 8704
3, 37580, Pitch_bend_c, 1, 8640
3, 37584, Pitch_bend_c, 1, 8544
3, 37586, Pitch_bend_c, 1, 8480
3, 37594, Pitch_bend_c, 1, 8384
3, 37598, Pitch_bend_c, 1, 8320
3, 37604, Pitch_bend_c, 1, 8256
3, 37622, Pitch_bend_c, 1, 8192
3, 37665, Note_on_c, 1, 35, 0
3, 37677, Pitch_bend_c, 1, 6944
3, 37677, Note_on_c, 1, 41, 102
3, 37679, Pitch_bend_c, 1, 7136
3, 37681, Pitch_bend_c, 1, 7360
3, 37683, Pitch_bend_c, 1, 7648
3, 37685, Pitch_bend_c, 1, 7904
3, 37687, Pitch_bend_c, 1, 8128
3, 37689, Pitch_bend_c, 1, 8448
3, 37691, Pitch_bend_c, 1, 8672
3, 37701, Pitch_bend_c, 1, 8576
3, 37703, Pitch_bend_c, 1, 8512
3, 37707, Pitch_bend_c, 1, 8448
3, 37709, Pitch_bend_c, 1, 8384
3, 37713, Pitch_bend_c, 1, 8320
3, 37735, Pitch_bend_c, 1, 8192
3, 37769, Note_on_c, 1, 41, 0
3, 37776, Note_on_c, 1, 38, 104
3, 37787, Note_on_c, 1, 38, 0
3, 37800, Note_on_c, 1, 35, 102
3, 37856, Note_on_c, 1, 35, 0
3, 37856, Note_on_c, 1, 35, 102
3, 37915, Note_on_c, 1, 35, 0
3, 37915, Pitch_bend_c, 1, 7008
3, 37915, Note_on_c, 1, 36, 103
3, 37917, Pitch_bend_c, 1, 7168
3, 37919, Pitch_bend_c, 1, 7296
3, 37921, Pitch_bend_c, 1, 7552
3, 37923, Pitch_bend_c, 1, 7744
3, 37925, Pitch_bend_c, 1, 8032
3, 37927, Pitch_bend_c, 1, 8192
3, 37929, Pitch_bend_c, 1, 8448
3, 37931, Pitch_bend_c, 1, 8640
3, 37933, Pitch_bend_c, 1, 8704
3, 37941, Pitch_bend_c, 1, 8608
3, 37943, Pitch_bend_c, 1, 8544
3, 37945, Pitch_bend_c, 1, 8480
3, 37953, Pitch_bend_c, 1, 8384
3, 37957, Pitch_bend_c, 1, 8320
3, 37963, Pitch_bend_c, 1, 8256
3, 37981, Pitch_bend_c, 1, 8192
3, 38021, Note_on_c, 1, 36, 0
3, 38031, Pitch_bend_c, 1, 6848
3, 38031, Note_on_c, 1, 38, 100
3, 38033, Pitch_bend_c, 1, 7040
3, 38035, Pitch_bend_c, 1, 7264
3, 38037, Pitch_bend_c, 1, 7584
3, 38039, Pitch_bend_c, 1, 7904
3, 38041, Pitch_bend_c, 1, 8128
3, 38043, Pitch_bend_c, 1, 8480
3, 38045, Pitch_bend_c, 1, 8704
3, 38047, Pitch_bend_c, 1, 8768
3, 38053, Pitch_bend_c, 1, 8704
3, 38055, Pitch_bend_c, 1, 8608
3, 38057, Pitch_bend_c, 1, 8512
3, 38063, Pitch_bend_c, 1, 8416
3, 38067, Pitch_bend_c, 1, 8320
3, 38089, Pitch_bend_c, 1, 8192
3, 38123, Note_on_c, 1, 38, 0
3, 38130, Note_on_c, 1, 36, 108
3, 38137, Note_on_c, 1, 36, 0
3, 38152, Pitch_bend_c, 1, 7104
3, 38152, Note_on_c, 1, 39, 99
3, 38154, Pitch_bend_c, 1, 7264
3, 38156, Pitch_bend_c, 1, 7360
3, 38158, Pitch_bend_c, 1, 7616
3, 38160, Pitch_bend_c, 1, 7808
3, 38162, Pitch_bend_c, 1, 7936
3, 38164, Pitch_bend_c, 1, 8192
3, 38166, Pitch_bend_c, 1, 8416
3, 38168, Pitch_bend_c, 1, 8576
3, 38170, Pitch_bend_c, 1, 8640
3, 38180, Pitch_bend_c, 1, 8512
3, 38184, Pitch_bend_c, 1, 8448
3, 38190, Pitch_bend_c, 1, 8384
3, 38194, Pitch_bend_c, 1, 8320
3, 38200, Pitch_bend_c, 1, 8256
3, 38218, Pitch_bend_c, 1, 8192
3, 38260, Note_on_c, 1, 39, 0
3, 38273, Pitch_bend_c, 1, 6880
3, 38273, Note_on_c, 1, 43, 100
3, 38275, Pitch_bend_c, 1, 7200
3, 38277, Pitch_bend_c, 1, 7616
3, 38279, Pitch_bend_c, 1, 8032
3, 38281, Pitch_bend_c, 1, 8608
3, 38283, Pitch_bend_c, 1, 8768
3, 38287, Pitch_bend_c, 1, 8704
3, 38289, Pitch_bend_c, 1, 8608
3, 38291, Pitch_bend_c, 1, 8512
3, 38295, Pitch_bend_c, 1, 8416
3, 38297, Pitch_bend_c, 1, 8320
3, 38311, Pitch_bend_c, 1, 8192
3, 38333, Note_on_c, 1, 43, 0
3, 38338, Note_on_c, 1, 41, 107
3, 38345, Note_on_c, 1, 41, 0
3, 38399, Pitch_bend_c, 1, 6688
3, 38399, Note_on_c, 1, 48, 103
3, 38401, Pitch_bend_c, 1, 6912
3, 38403, Pitch_bend_c, 1, 7040
3, 38405, Pitch_bend_c, 1, 7360
3, 38407, Pitch_bend_c, 1, 7648
3, 38409, Pitch_bend_c, 1, 7840
3, 38411, Pitch_bend_c, 1, 8192
3, 38413, Pitch_bend_c, 1, 8512
3, 38415, Pitch_bend_c, 1, 8704
3, 38417, Pitch_bend_c, 1, 8832
3, 38425, Pitch_bend_c, 1, 8768
3, 38427, Pitch_bend_c, 1, 8640
3, 38431, Pitch_bend_c, 1, 8576
3, 38435, Pitch_bend_c, 1, 8512
3, 38437, Pitch_bend_c, 1, 8448
3, 38441, Pitch_bend_c, 1, 8352
3, 38447, Pitch_bend_c, 1, 8288
3, 38465, Pitch_bend_c, 1, 8192
3, 38507, Note_on_c, 1, 48, 0
3, 38517, Pitch_bend_c, 1, 4352
3, 38517, Note_on_c, 1, 43, 100
3, 38525, Pitch_bend_c, 1, 4480
3, 38529, Pitch_bend_c, 1, 4736
3, 38531, Pitch_bend_c, 1, 5024
3, 38533, Pitch_bend_c, 1, 5504
3, 38535, Pitch_bend_c, 1, 6272
3, 38537, Pitch_bend_c, 1, 6880
3, 38539, Pitch_bend_c, 1, 7424
3, 38541, Pitch_bend_c, 1, 7712
3, 38543, Pitch_bend_c, 1, 7904
3, 38545, Pitch_bend_c, 1, 8000
3, 38547, Pitch_bend_c, 1, 8128
3, 38563, Pitch_bend_c, 1, 8192
3, 38634, Note_on_c, 1, 43, 0
3, 38634, Pitch_bend_c, 1, 6656
3, 38634, Note_on_c, 1, 45, 99
3, 38636, Pitch_bend_c, 1, 6880
3, 38638, Pitch_bend_c, 1, 7008
3, 38640, Pitch_bend_c, 1, 7232
3, 38642, Pitch_bend_c, 1, 7616
3, 38644, Pitch_bend_c, 1, 7840
3, 38646, Pitch_bend_c, 1, 8128
3, 38648, Pitch_bend_c, 1, 8512
3, 38650, Pitch_bend_c, 1, 8736
3, 38652, Pitch_bend_c, 1, 8800
3, 38662, Pitch_bend_c, 1, 8736
3, 38664, Pitch_bend_c, 1, 8672
3, 38666, Pitch_bend_c, 1, 8576
3, 38670, Pitch_bend_c, 1, 8512
3, 38674, Pitch_bend_c, 1, 8448
3, 38678, Pitch_bend_c, 1, 8352
3, 38684, Pitch_bend_c, 1, 8288
3, 38702, Pitch_bend_c, 1, 8192
3, 38745, Note_on_c, 1, 45, 0
3, 38754, Note_on_c, 1, 38, 100
3, 38809, Note_on_c, 1, 38, 0
3, 38809, Pitch_bend_c, 1, 7104
3, 38809, Note_on_c, 1, 45, 100
3, 38811, Pitch_bend_c, 1, 7360
3, 38813, Pitch_bend_c, 1, 7712
3, 38815, Pitch_bend_c, 1, 8128
3, 38817, Pitch_bend_c, 1, 8512
3, 38819, Pitch_bend_c, 1, 8640
3, 38825, Pitch_bend_c, 1, 8512
3, 38827, Pitch_bend_c, 1, 8448
3, 38829, Pitch_bend_c, 1, 8384
3, 38833, Pitch_bend_c, 1, 8320
3, 38835, Pitch_bend_c, 1, 8256
3, 38845, Pitch_bend_c, 1, 8192
3, 38867, Note_on_c, 1, 45, 0
3, 38871, Pitch_bend_c, 1, 6912
3, 38871, Note_on_c, 1, 43, 102
3, 38873, Pitch_bend_c, 1, 7072
3, 38875, Pitch_bend_c, 1, 7200
3, 38877, Pitch_bend_c, 1, 7392
3, 38879, Pitch_bend_c, 1, 7712
3, 38881, Pitch_bend_c, 1, 7904
3, 38883, Pitch_bend_c, 1, 8128
3, 38885, Pitch_bend_c, 1, 8448
3, 38887, Pitch_bend_c, 1, 8640
3, 38889, Pitch_bend_c, 1, 8704
3, 38899, Pitch_bend_c, 1, 8640
3, 38901, Pitch_bend_c, 1, 8576
3, 38903, Pitch_bend_c, 1, 8512
3, 38907, Pitch_bend_c, 1, 8448
3, 38915, Pitch_bend_c, 1, 8320
3, 38941, Pitch_bend_c, 1, 8192
3, 38983, Note_on_c, 1, 43, 0
3, 38995, Pitch_bend_c, 1, 4064
3, 38995, Note_on_c, 1, 38, 103
3, 39003, Pitch_bend_c, 1, 4192
3, 39007, Pitch_bend_c, 1, 4352
3, 39009, Pitch_bend_c, 1, 4576
3, 39011, Pitch_bend_c, 1, 5312
3, 39013, Pitch_bend_c, 1, 6144
3, 39015, Pitch_bend_c, 1, 6784
3, 39017, Pitch_bend_c, 1, 7232
3, 39019, Pitch_bend_c, 1, 7520
3, 39021, Pitch_bend_c, 1, 7808
3, 39023, Pitch_bend_c, 1, 7968
3, 39025, Pitch_bend_c, 1, 8096
3, 39041, Pitch_bend_c, 1, 8192
3, 39115, Note_on_c, 1, 38, 0
3, 39115, Pitch_bend_c, 1, 4288
3, 39115, Note_on_c, 1, 34, 103
3, 39123, Pitch_bend_c, 1, 4384
3, 39127, Pitch_bend_c, 1, 4672
3, 39129, Pitch_bend_c, 1, 4960
3, 39131, Pitch_bend_c, 1, 5440
3, 39133, Pitch_bend_c, 1, 6240
3, 39135, Pitch_bend_c, 1, 6848
3, 39137, Pitch_bend_c, 1, 7296
3, 39139, Pitch_bend_c, 1, 7712
3, 39141, Pitch_bend_c, 1, 7904
3, 39143, Pitch_bend_c, 1, 8000
3, 39145, Pitch_bend_c, 1, 8128
3, 39161, Pitch_bend_c, 1, 8192
3, 39233, Note_on_c, 1, 34, 0
3, 39233, Pitch_bend_c, 1, 6976
3, 39233, Note_on_c, 1, 31, 99
3, 39235, Pitch_bend_c, 1, 7264
3, 39237, Pitch_bend_c, 1, 7744
3, 39239, Pitch_bend_c, 1, 8128
3, 39241, Pitch_bend_c, 1, 8608
3, 39243, Pitch_bend_c, 1, 8704
3, 39247, Pitch_bend_c, 1, 8608
3, 39249, Pitch_bend_c, 1, 8480
3, 39253, Pitch_bend_c, 1, 8384
3, 39255, Pitch_bend_c, 1, 8320
3, 39269, Pitch_bend_c, 1, 8192
3, 39289, Note_on_c, 1, 31, 0
3, 39293, Note_on_c, 1, 46, 107
3, 39325, Note_on_c, 1, 46, 0
3, 39330, Note_on_c, 1, 34, 108
3, 39345, Note_on_c, 1, 34, 0
3, 39354, Pitch_bend_c, 1, 6848
3, 39354, Note_on_c, 1, 44, 100
3, 39356, Pitch_bend_c, 1, 7040
3, 39358, Pitch_bend_c, 1, 7168
3, 39360, Pitch_bend_c, 1, 7456
3, 39362, Pitch_bend_c, 1, 7712
3, 39364, Pitch_bend_c, 1, 8032
3, 39366, Pitch_bend_c, 1, 8192
3, 39368, Pitch_bend_c, 1, 8608
3, 39370, Pitch_bend_c, 1, 8704
3, 39372, Pitch_bend_c, 1, 8768
3, 39378, Pitch_bend_c, 1, 8704
3, 39380, Pitch_bend_c, 1, 8640
3, 39384, Pitch_bend_c, 1, 8512
3, 39392, Pitch_bend_c, 1, 8416
3, 39396, Pitch_bend_c, 1, 8320
3, 39418, Pitch_bend_c, 1, 8192
3, 39459, Note_on_c, 1, 44, 0
3, 39471, Pitch_bend_c, 1, 4000
3, 39471, Note_on_c, 1, 32, 102
3, 39479, Pitch_bend_c, 1, 4128
3, 39483, Pitch_bend_c, 1, 4288
3, 39485, Pitch_bend_c, 1, 4512
3, 39487, Pitch_bend_c, 1, 4960
3, 39489, Pitch_bend_c, 1, 5568
3, 39491, Pitch_bend_c, 1, 6464
3, 39493, Pitch_bend_c, 1, 7232
3, 39495, Pitch_bend_c, 1, 7520
3, 39497, Pitch_bend_c, 1, 7808
3, 39499, Pitch_bend_c, 1, 7968
3, 39501, Pitch_bend_c, 1, 8032
3, 39503, Pitch_bend_c, 1, 8096
3, 39519, Pitch_bend_c, 1, 8192
3, 39593, Note_on_c, 1, 32, 0
3, 39593, Pitch_bend_c, 1, 6912
3, 39593, Note_on_c, 1, 38, 103
3, 39595, Pitch_bend_c, 1, 7072
3, 39597, Pitch_bend_c, 1, 7200
3, 39599, Pitch_bend_c, 1, 7392
3, 39601, Pitch_bend_c, 1, 7712
3, 39603, Pitch_bend_c, 1, 7904
3, 39605, Pitch_bend_c, 1, 8128
3, 39607, Pitch_bend_c, 1, 8448
3, 39609, Pitch_bend_c, 1, 8640
3, 39611, Pitch_bend_c, 1, 8704
3, 39621, Pitch_bend_c, 1, 8640
3, 39623, Pitch_bend_c, 1, 8576
3, 39625, Pitch_bend_c, 1, 8512
3, 39629, Pitch_bend_c, 1, 8448
3, 39637, Pitch_bend_c, 1, 8320
3, 39661, Pitch_bend_c, 1, 8192
3, 39703, Note_on_c, 1, 38, 0
3, 39715, Pitch_bend_c, 1, 4064
3, 39715, Note_on_c, 1, 30, 103
3, 39723, Pitch_bend_c, 1, 4192
3, 39727, Pitch_bend_c, 1, 4352
3, 39729, Pitch_bend_c, 1, 4576
3, 39731, Pitch_bend_c, 1, 5024
3, 39733, Pitch_bend_c, 1, 5632
3, 39735, Pitch_bend_c, 1, 6496
3, 39737, Pitch_bend_c, 1, 7232
3, 39739, Pitch_bend_c, 1, 7520
3, 39741, Pitch_bend_c, 1, 7808
3, 39743, Pitch_bend_c, 1, 7968
3, 39745, Pitch_bend_c, 1, 8032
3, 39747, Pitch_bend_c, 1, 8096
3, 39763, Pitch_bend_c, 1, 8192
3, 39837, Note_on_c, 1, 30, 0
3, 39837, Pitch_bend_c, 1, 7136
3, 39837, Note_on_c, 1, 31, 103
3, 39839, Pitch_bend_c, 1, 7328
3, 39841, Pitch_bend_c, 1, 7520
3, 39843, Pitch_bend_c, 1, 7808
3, 39845, Pitch_bend_c, 1, 8064
3, 39847, Pitch_bend_c, 1, 8288
3, 39849, Pitch_bend_c, 1, 8544
3, 39851, Pitch_bend_c, 1, 8640
3, 39857, Pitch_bend_c, 1, 8544
3, 39861, Pitch_bend_c, 1, 8448
3, 39867, Pitch_bend_c, 1, 8352
3, 39869, Pitch_bend_c, 1, 8288
3, 39887, Pitch_bend_c, 1, 8192
3, 39919, Note_on_c, 1, 31, 0
3, 39925, Note_on_c, 1, 38, 109
3, 39936, Note_on_c, 1, 38, 0
3, 39951, Note_on_c, 1, 38, 104
3, 39975, Note_on_c, 1, 38, 0
3, 40013, Pitch_bend_c, 1, 6976
3, 40013, Note_on_c, 1, 31, 102
3, 40015, Pitch_bend_c, 1, 7264
3, 40017, Pitch_bend_c, 1, 7744
3, 40019, Pitch_bend_c, 1, 8128
3, 40021, Pitch_bend_c, 1, 8608
3, 40023, Pitch_bend_c, 1, 8704
3, 40027, Pitch_bend_c, 1, 8608
3, 40029, Pitch_bend_c, 1, 8480
3, 40033, Pitch_bend_c, 1, 8384
3, 40035, Pitch_bend_c, 1, 8320
3, 40049, Pitch_bend_c, 1, 8192
3, 40069, Note_on_c, 1, 31, 0
3, 40075, Pitch_bend_c, 1, 6944
3, 40075, Note_on_c, 1, 45, 103
3, 40077, Pitch_bend_c, 1, 7168
3, 40079, Pitch_bend_c, 1, 7424
3, 40081, Pitch_bend_c, 1, 7744
3, 40083, Pitch_bend_c, 1, 8032
3, 40085, Pitch_bend_c, 1, 8320
3, 40087, Pitch_bend_c, 1, 8608
3, 40089, Pitch_bend_c, 1, 8704
3, 40097, Pitch_bend_c, 1, 8576
3, 40099, Pitch_bend_c, 1, 8512
3, 40103, Pitch_bend_c, 1, 8448
3, 40105, Pitch_bend_c, 1, 8384
3, 40109, Pitch_bend_c, 1, 8320
3, 40127, Pitch_bend_c, 1, 8192
3, 40159, Note_on_c, 1, 45, 0
3, 40169, Pitch_bend_c, 1, 4288
3, 40169, Note_on_c, 1, 38, 99
3, 40175, Pitch_bend_c, 1, 4384
3, 40177, Pitch_bend_c, 1, 4448
3, 40179, Pitch_bend_c, 1, 4768
3, 40181, Pitch_bend_c, 1, 5440
3, 40183, Pitch_bend_c, 1, 6592
3, 40185, Pitch_bend_c, 1, 7296
3, 40187, Pitch_bend_c, 1, 7712
3, 40189, Pitch_bend_c, 1, 8000
3, 40191, Pitch_bend_c, 1, 8128
3, 40203, Pitch_bend_c, 1, 8192
3, 40256, Note_on_c, 1, 38, 0
3, 40256, Note_on_c, 1, 38, 100
3, 40315, Note_on_c, 1, 38, 0
3, 40315, Pitch_bend_c, 1, 6816
3, 40315, Note_on_c, 1, 31, 103
3, 40317, Pitch_bend_c, 1, 7008
3, 40319, Pitch_bend_c, 1, 7264
3, 40321, Pitch_bend_c, 1, 7584
3, 40323, Pitch_bend_c, 1, 7872
3, 40325, Pitch_bend_c, 1, 8192
3, 40327, Pitch_bend_c, 1, 8608
3, 40329, Pitch_bend_c, 1, 8736
3, 40337, Pitch_bend_c, 1, 8672
3, 40339, Pitch_bend_c, 1, 8608
3, 40341, Pitch_bend_c, 1, 8544
3, 40345, Pitch_bend_c, 1, 8480
3, 40347, Pitch_bend_c, 1, 8416
3, 40349, Pitch_bend_c, 1, 8352
3, 40355, Pitch_bend_c, 1, 8288
3, 40369, Pitch_bend_c, 1, 8192
3, 40403, Note_on_c, 1, 31, 0
3, 40410, Note_on_c, 1, 38, 108
3, 40416, Note_on_c, 1, 38, 0
3, 40439, Pitch_bend_c, 1, 7072
3, 40439, Note_on_c, 1, 38, 102
3, 40441, Pitch_bend_c, 1, 7264
3, 40443, Pitch_bend_c, 1, 7488
3, 40445, Pitch_bend_c, 1, 7776
3, 40447, Pitch_bend_c, 1, 8064
3, 40449, Pitch_bend_c, 1, 8320
3, 40451, Pitch_bend_c, 1, 8576
3, 40453, Pitch_bend_c, 1, 8672
3, 40461, Pitch_bend_c, 1, 8544
3, 40463, Pitch_bend_c, 1, 8480
3, 40467, Pitch_bend_c, 1, 8416
3, 40473, Pitch_bend_c, 1, 8320
3, 40477, Pitch_bend_c, 1, 8256
3, 40491, Pitch_bend_c, 1, 8192
3, 40524, Note_on_c, 1, 38, 0
3, 40531, Note_on_c, 1, 43, 104
3, 40682, Note_on_c, 1, 43, 0
3, 40682, Pitch_bend_c, 1, 3936
3, 40682, Note_on_c, 1, 38, 103
3, 40690, Pitch_bend_c, 1, 4096
3, 40692, Pitch_bend_c, 1, 4160
3, 40694, Pitch_bend_c, 1, 4384
3, 40696, Pitch_bend_c, 1, 4672
3, 40698, Pitch_bend_c, 1, 5216
3, 40700, Pitch_bend_c, 1, 6432
3, 40702, Pitch_bend_c, 1, 6976
3, 40704, Pitch_bend_c, 1, 7328
3, 40706, Pitch_bend_c, 1, 7680
3, 40708, Pitch_bend_c, 1, 7872
3, 40710, Pitch_bend_c, 1, 8032
3, 40712, Pitch_bend_c, 1, 8096
3, 40728, Pitch_bend_c, 1, 8192
3, 40797, Note_on_c, 1, 38, 0
3, 40797, Pitch_bend_c, 1, 4064
3, 40797, Note_on_c, 1, 30, 100
3, 40805, Pitch_bend_c, 1, 4192
3, 40809, Pitch_bend_c, 1, 4352
3, 40811, Pitch_bend_c, 1, 4576
3, 40813, Pitch_bend_c, 1, 5024
3, 40815, Pitch_bend_c, 1, 6144
3, 40817, Pitch_bend_c, 1, 6784
3, 40819, Pitch_bend_c, 1, 7232
3, 40821, Pitch_bend_c, 1, 7520
3, 40823, Pitch_bend_c, 1, 7808
3, 40825, Pitch_bend_c, 1, 7968
3, 40827, Pitch_bend_c, 1, 8032
3, 40829, Pitch_bend_c, 1, 8096
3, 40845, Pitch_bend_c, 1, 8192
3, 40918, Note_on_c, 1, 30, 0
3, 40918, Pitch_bend_c, 1, 6944
3, 40918, Note_on_c, 1, 38, 99
3, 40920, Pitch_bend_c, 1, 7104
3, 40922, Pitch_bend_c, 1, 7328
3, 40924, Pitch_bend_c, 1, 7648
3, 40926, Pitch_bend_c, 1, 7904
3, 40928, Pitch_bend_c, 1, 8128
3, 40930, Pitch_bend_c, 1, 8448
3, 40932, Pitch_bend_c, 1, 8672
3, 40934, Pitch_bend_c, 1, 8736
3, 40940, Pitch_bend_c, 1, 8672
3, 40942, Pitch_bend_c, 1, 8576
3, 40944, Pitch_bend_c, 1, 8512
3, 40948, Pitch_bend_c, 1, 8448
3, 40954, Pitch_bend_c, 1, 8320
3, 40976, Pitch_bend_c, 1, 8192
3, 41010, Note_on_c, 1, 38, 0
3, 41020, Note_on_c, 1, 34, 108
3, 41036, Note_on_c, 1, 34, 0
3, 41037, Pitch_bend_c, 1, 6784
3, 41037, Note_on_c, 1, 45, 100
3, 41039, Pitch_bend_c, 1, 6976
3, 41041, Pitch_bend_c, 1, 7232
3, 41043, Pitch_bend_c, 1, 7552
3, 41045, Pitch_bend_c, 1, 7872
3, 41047, Pitch_bend_c, 1, 8192
3, 41049, Pitch_bend_c, 1, 8608
3, 41051, Pitch_bend_c, 1, 8736
3, 41053, Pitch_bend_c, 1, 8800
3, 41059, Pitch_bend_c, 1, 8672
3, 41061, Pitch_bend_c, 1, 8608
3, 41063, Pitch_bend_c, 1, 8544
3, 41067, Pitch_bend_c, 1, 8480
3, 41069, Pitch_bend_c, 1, 8416
3, 41073, Pitch_bend_c, 1, 8352
3, 41077, Pitch_bend_c, 1, 8288
3, 41093, Pitch_bend_c, 1, 8192
3, 41126, Note_on_c, 1, 45, 0
3, 41137, Note_on_c, 1, 38, 109
3, 41145, Note_on_c, 1, 38, 0
3, 41157, Pitch_bend_c, 1, 6944
3, 41157, Note_on_c, 1, 42, 102
3, 41159, Pitch_bend_c, 1, 7232
3, 41161, Pitch_bend_c, 1, 7744
3, 41163, Pitch_bend_c, 1, 8128
3, 41165, Pitch_bend_c, 1, 8608
3, 41167, Pitch_bend_c, 1, 8704
3, 41171, Pitch_bend_c, 1, 8608
3, 41173, Pitch_bend_c, 1, 8512
3, 41175, Pitch_bend_c, 1, 8448
3, 41177, Pitch_bend_c, 1, 8384
3, 41179, Pitch_bend_c, 1, 8320
3, 41191, Pitch_bend_c, 1, 8192
3, 41212, Note_on_c, 1, 42, 0
3, 41217, Note_on_c, 1, 39, 103
3, 41275, Note_on_c, 1, 39, 0
3, 41275, Pitch_bend_c, 1, 6816
3, 41275, Note_on_c, 1, 41, 100
3, 41277, Pitch_bend_c, 1, 7008
3, 41279, Pitch_bend_c, 1, 7136
3, 41281, Pitch_bend_c, 1, 7328
3, 41283, Pitch_bend_c, 1, 7680
3, 41285, Pitch_bend_c, 1, 7872
3, 41287, Pitch_bend_c, 1, 8128
3, 41289, Pitch_bend_c, 1, 8480
3, 41291, Pitch_bend_c, 1, 8672
3, 41293, Pitch_bend_c, 1, 8736
3, 41303, Pitch_bend_c, 1, 8672
3, 41305, Pitch_bend_c, 1, 8608
3, 41307, Pitch_bend_c, 1, 8544
3, 41311, Pitch_bend_c, 1, 8480
3, 41315, Pitch_bend_c, 1, 8416
3, 41319, Pitch_bend_c, 1, 8352
3, 41325, Pitch_bend_c, 1, 8288
3, 41343, Pitch_bend_c, 1, 8192
3, 41386, Note_on_c, 1, 41, 0
3, 41396, Pitch_bend_c, 1, 4320
3, 41396, Note_on_c, 1, 38, 100
3, 41404, Pitch_bend_c, 1, 4448
3, 41408, Pitch_bend_c, 1, 4704
3, 41410, Pitch_bend_c, 1, 4992
3, 41412, Pitch_bend_c, 1, 5472
3, 41414, Pitch_bend_c, 1, 6272
3, 41416, Pitch_bend_c, 1, 6880
3, 41418, Pitch_bend_c, 1, 7296
3, 41420, Pitch_bend_c, 1, 7712
3, 41422, Pitch_bend_c, 1, 7904
3, 41424, Pitch_bend_c, 1, 8000
3, 41426, Pitch_bend_c, 1, 8128
3, 41442, Pitch_bend_c, 1, 8192
3, 41514, Note_on_c, 1, 38, 0
3, 41514, Pitch_bend_c, 1, 4288
3, 41514, Note_on_c, 1, 31, 102
3, 41522, Pitch_bend_c, 1, 4384
3, 41526, Pitch_bend_c, 1, 4544
3, 41528, Pitch_bend_c, 1, 4768
3, 41530, Pitch_bend_c, 1, 5152
3, 41532, Pitch_bend_c, 1, 6240
3, 41534, Pitch_bend_c, 1, 6848
3, 41536, Pitch_bend_c, 1, 7296
3, 41538, Pitch_bend_c, 1, 7552
3, 41540, Pitch_bend_c, 1, 7840
3, 41542, Pitch_bend_c, 1, 8000
3, 41544, Pitch_bend_c, 1, 8064
3, 41546, Pitch_bend_c, 1, 8128
3, 41562, Pitch_bend_c, 1, 8192
3, 41635, Note_on_c, 1, 31, 0
3, 41635, Pitch_bend_c, 1, 6976
3, 41635, Note_on_c, 1, 35, 100
3, 41637, Pitch_bend_c, 1, 7136
3, 41639, Pitch_bend_c, 1, 7264
3, 41641, Pitch_bend_c, 1, 7424
3, 41643, Pitch_bend_c, 1, 7648
3, 41645, Pitch_bend_c, 1, 7904
3, 41647, Pitch_bend_c, 1, 8128
3, 41649, Pitch_bend_c, 1, 8320
3, 41651, Pitch_bend_c, 1, 8576
3, 41653, Pitch_bend_c, 1, 8672
3, 41663, Pitch_bend_c, 1, 8608
3, 41669, Pitch_bend_c, 1, 8480
3, 41675, Pitch_bend_c, 1, 8384
3, 41679, Pitch_bend_c, 1, 8320
3, 41705, Pitch_bend_c, 1, 8192
3, 41749, Note_on_c, 1, 35, 0
3, 41762, Pitch_bend_c, 1, 6848
3, 41762, Note_on_c, 1, 36, 103
3, 41764, Pitch_bend_c, 1, 7072
3, 41766, Pitch_bend_c, 1, 7360
3, 41768, Pitch_bend_c, 1, 7712
3, 41770, Pitch_bend_c, 1, 8128
3, 41772, Pitch_bend_c, 1, 8480
3, 41774, Pitch_bend_c, 1, 8704
3, 41776, Pitch_bend_c, 1, 8768
3, 41780, Pitch_bend_c, 1, 8704
3, 41784, Pitch_bend_c, 1, 8512
3, 41790, Pitch_bend_c, 1, 8416
3, 41792, Pitch_bend_c, 1, 8352
3, 41798, Pitch_bend_c, 1, 8288
3, 41810, Pitch_bend_c, 1, 8192
3, 41840, Note_on_c, 1, 36, 0
3, 41849, Note_on_c, 1, 34, 104
3, 41854, Note_on_c, 1, 34, 0
3, 41854, Note_on_c, 1, 50, 101
3, 41859, Note_on_c, 1, 50, 0
3, 41879, Note_on_c, 1, 48, 111
3, 41918, Note_on_c, 1, 48, 0
3, 41941, Note_on_c, 1, 43, 100
3, 41983, Note_on_c, 1, 43, 0
3, 42003, Pitch_bend_c, 1, 7072
3, 42003, Note_on_c, 1, 39, 94
3, 42005, Pitch_bend_c, 1, 7296
3, 42007, Pitch_bend_c, 1, 7488
3, 42009, Pitch_bend_c, 1, 7776
3, 42011, Pitch_bend_c, 1, 8064
3, 42013, Pitch_bend_c, 1, 8320
3, 42015, Pitch_bend_c, 1, 8576
3, 42017, Pitch_bend_c, 1, 8672
3, 42023, Pitch_bend_c, 1, 8576
3, 42027, Pitch_bend_c, 1, 8448
3, 42033, Pitch_bend_c, 1, 8384
3, 42035, Pitch_bend_c, 1, 8320
3, 42039, Pitch_bend_c, 1, 8256
3, 42053, Pitch_bend_c, 1, 8192
3, 42085, Note_on_c, 1, 39, 0
3, 42120, Pitch_bend_c, 1, 3936
3, 42120, Note_on_c, 1, 38, 100
3, 42128, Pitch_bend_c, 1, 4096
3, 42130, Pitch_bend_c, 1, 4384
3, 42132, Pitch_bend_c, 1, 4672
3, 42134, Pitch_bend_c, 1, 5536
3, 42136, Pitch_bend_c, 1, 6432
3, 42138, Pitch_bend_c, 1, 7200
3, 42140, Pitch_bend_c, 1, 7680
3, 42142, Pitch_bend_c, 1, 7872
3, 42144, Pitch_bend_c, 1, 8032
3, 42146, Pitch_bend_c, 1, 8096
3, 42158, Pitch_bend_c, 1, 8192
3, 42218, Note_on_c, 1, 38, 0
3, 42218, Note_on_c, 1, 35, 109
3, 42230, Note_on_c, 1, 35, 0
3, 42239, Pitch_bend_c, 1, 6784
3, 42239, Note_on_c, 1, 36, 102
3, 42241, Pitch_bend_c, 1, 6976
3, 42243, Pitch_bend_c, 1, 7232
3, 42245, Pitch_bend_c, 1, 7552
3, 42247, Pitch_bend_c, 1, 7872
3, 42249, Pitch_bend_c, 1, 8192
3, 42251, Pitch_bend_c, 1, 8480
3, 42253, Pitch_bend_c, 1, 8736
3, 42255, Pitch_bend_c, 1, 8800
3, 42261, Pitch_bend_c, 1, 8736
3, 42263, Pitch_bend_c, 1, 8608
3, 42265, Pitch_bend_c, 1, 8544
3, 42269, Pitch_bend_c, 1, 8480
3, 42271, Pitch_bend_c, 1, 8416
3, 42275, Pitch_bend_c, 1, 8352
3, 42279, Pitch_bend_c, 1, 8288
3, 42295, Pitch_bend_c, 1, 8192
3, 42330, Note_on_c, 1, 36, 0
3, 42340, Note_on_c, 1, 34, 108
3, 42359, Note_on_c, 1, 34, 0
3, 42360, Pitch_bend_c, 1, 6944
3, 42360, Note_on_c, 1, 43, 100
3, 42362, Pitch_bend_c, 1, 7104
3, 42364, Pitch_bend_c, 1, 7328
3, 42366, Pitch_bend_c, 1, 7648
3, 42368, Pitch_bend_c, 1, 7904
3, 42370, Pitch_bend_c, 1, 8192
3, 42372, Pitch_bend_c, 1, 8576
3, 42374, Pitch_bend_c, 1, 8672
3, 42376, Pitch_bend_c, 1, 8736
3, 42382, Pitch_bend_c, 1, 8640
3, 42384, Pitch_bend_c, 1, 8576
3, 42386, Pitch_bend_c, 1, 8512
3, 42390, Pitch_bend_c, 1, 8448
3, 42396, Pitch_bend_c, 1, 8320
3, 42416, Pitch_bend_c, 1, 8192
3, 42450, Note_on_c, 1, 43, 0
3, 42458, Note_on_c, 1, 38, 105
3, 42464, Note_on_c, 1, 38, 0
3, 42483, Pitch_bend_c, 1, 6656
3, 42483, Note_on_c, 1, 45, 101
3, 42485, Pitch_bend_c, 1, 6880
3, 42487, Pitch_bend_c, 1, 7008
3, 42489, Pitch_bend_c, 1, 7360
3, 42491, Pitch_bend_c, 1, 7616
3, 42493, Pitch_bend_c, 1, 8000
3, 42495, Pitch_bend_c, 1, 8192
3, 42497, Pitch_bend_c, 1, 8512
3, 42499, Pitch_bend_c, 1, 8800
3, 42509, Pitch_bend_c, 1, 8736
3, 42511, Pitch_bend_c, 1, 8672
3, 42513, Pitch_bend_c, 1, 8576
3, 42517, Pitch_bend_c, 1, 8512
3, 42521, Pitch_bend_c, 1, 8448
3, 42525, Pitch_bend_c, 1, 8352
3, 42531, Pitch_bend_c, 1, 8288
3, 42549, Pitch_bend_c, 1, 8192
3, 42589, Note_on_c, 1, 45, 0
3, 42600, Pitch_bend_c, 1, 4032
3, 42600, Note_on_c, 1, 38, 102
3, 42608, Pitch_bend_c, 1, 4160
3, 42612, Pitch_bend_c, 1, 4320
3, 42614, Pitch_bend_c, 1, 4544
3, 42616, Pitch_bend_c, 1, 4992
3, 42618, Pitch_bend_c, 1, 5600
3, 42620, Pitch_bend_c, 1, 6464
3, 42622, Pitch_bend_c, 1, 7008
3, 42624, Pitch_bend_c, 1, 7360
3, 42626, Pitch_bend_c, 1, 7680
3, 42628, Pitch_bend_c, 1, 7872
3, 42630, Pitch_bend_c, 1, 7968
3, 42632, Pitch_bend_c, 1, 8096
3, 42648, Pitch_bend_c, 1, 8192
3, 42724, Note_on_c, 1, 38, 0
3, 42724, Pitch_bend_c, 1, 6880
3, 42724, Note_on_c, 1, 43, 100
3, 42726, Pitch_bend_c, 1, 7072
3, 42728, Pitch_bend_c, 1, 7200
3, 42730, Pitch_bend_c, 1, 7488
3, 42732, Pitch_bend_c, 1, 7712
3, 42734, Pitch_bend_c, 1, 8032
3, 42736, Pitch_bend_c, 1, 8192
3, 42738, Pitch_bend_c, 1, 8576
3, 42740, Pitch_bend_c, 1, 8704
3, 42750, Pitch_bend_c, 1, 8640
3, 42752, Pitch_bend_c, 1, 8576
3, 42754, Pitch_bend_c, 1, 8512
3, 42758, Pitch_bend_c, 1, 8448
3, 42764, Pitch_bend_c, 1, 8320
3, 42788, Pitch_bend_c, 1, 8192
3, 42828, Note_on_c, 1, 43, 0
3, 42841, Pitch_bend_c, 1, 4096
3, 42841, Note_on_c, 1, 31, 103
3, 42849, Pitch_bend_c, 1, 4224
3, 42851, Pitch_bend_c, 1, 4288
3, 42853, Pitch_bend_c, 1, 4608
3, 42855, Pitch_bend_c, 1, 5024
3, 42857, Pitch_bend_c, 1, 6144
3, 42859, Pitch_bend_c, 1, 6784
3, 42861, Pitch_bend_c, 1, 7232
3, 42863, Pitch_bend_c, 1, 7680
3, 42865, Pitch_bend_c, 1, 7872
3, 42867, Pitch_bend_c, 1, 8032
3, 42869, Pitch_bend_c, 1, 8096
3, 42883, Pitch_bend_c, 1, 8192
3, 42948, Note_on_c, 1, 31, 0
3, 42948, Note_on_c, 1, 38, 104
3, 42954, Note_on_c, 1, 38, 0
3, 42969, Note_on_c, 1, 46, 108
3, 43004, Note_on_c, 1, 46, 0
3, 43029, Note_on_c, 1, 45, 109
3, 43065, Note_on_c, 1, 45, 0
3, 43086, Note_on_c, 1, 43, 104
3, 43125, Note_on_c, 1, 43, 0
3, 43144, Note_on_c, 1, 38, 91
3, 43189, Note_on_c, 1, 38, 0
3, 43204, Pitch_bend_c, 1, 6656
3, 43204, Note_on_c, 1, 33, 88
3, 43206, Pitch_bend_c, 1, 6880
3, 43208, Pitch_bend_c, 1, 7136
3, 43210, Pitch_bend_c, 1, 7520
3, 43212, Pitch_bend_c, 1, 7840
3, 43214, Pitch_bend_c, 1, 8192
3, 43216, Pitch_bend_c, 1, 8672
3, 43218, Pitch_bend_c, 1, 8800
3, 43226, Pitch_bend_c, 1, 8736
3, 43228, Pitch_bend_c, 1, 8672
3, 43230, Pitch_bend_c, 1, 8576
3, 43232, Pitch_bend_c, 1, 8512
3, 43234, Pitch_bend_c, 1, 8448
3, 43238, Pitch_bend_c, 1, 8352
3, 43242, Pitch_bend_c, 1, 8288
3, 43258, Pitch_bend_c, 1, 8192
3, 43290, Note_on_c, 1, 33, 0
3, 43322, Pitch_bend_c, 1, 6752
3, 43322, Note_on_c, 1, 46, 103
3, 43324, Pitch_bend_c, 1, 6944
3, 43326, Pitch_bend_c, 1, 7072
3, 43328, Pitch_bend_c, 1, 7392
3, 43330, Pitch_bend_c, 1, 7648
3, 43332, Pitch_bend_c, 1, 8000
3, 43334, Pitch_bend_c, 1, 8192
3, 43336, Pitch_bend_c, 1, 8480
3, 43338, Pitch_bend_c, 1, 8768
3, 43348, Pitch_bend_c, 1, 8704
3, 43350, Pitch_bend_c, 1, 8640
3, 43352, Pitch_bend_c, 1, 8544
3, 43356, Pitch_bend_c, 1, 8480
3, 43364, Pitch_bend_c, 1, 8352
3, 43370, Pitch_bend_c, 1, 8288
3, 43388, Pitch_bend_c, 1, 8192
3, 43428, Note_on_c, 1, 46, 0
3, 43439, Pitch_bend_c, 1, 4096
3, 43439, Note_on_c, 1, 45, 100
3, 43445, Pitch_bend_c, 1, 4224
3, 43449, Pitch_bend_c, 1, 4512
3, 43451, Pitch_bend_c, 1, 5024
3, 43453, Pitch_bend_c, 1, 5632
3, 43455, Pitch_bend_c, 1, 6784
3, 43457, Pitch_bend_c, 1, 7360
3, 43459, Pitch_bend_c, 1, 7680
3, 43461, Pitch_bend_c, 1, 7968
3, 43463, Pitch_bend_c, 1, 8096
3, 43477, Pitch_bend_c, 1, 8192
3, 43534, Note_on_c, 1, 45, 0
3, 43534, Note_on_c, 1, 40, 108
3, 43540, Note_on_c, 1, 40, 0
3, 43557, Pitch_bend_c, 1, 6720
3, 43557, Note_on_c, 1, 37, 99
3, 43559, Pitch_bend_c, 1, 6912
3, 43561, Pitch_bend_c, 1, 7168
3, 43563, Pitch_bend_c, 1, 7520
3, 43565, Pitch_bend_c, 1, 7840
3, 43567, Pitch_bend_c, 1, 8192
3, 43569, Pitch_bend_c, 1, 8640
3, 43571, Pitch_bend_c, 1, 8768
3, 43573, Pitch_bend_c, 1, 8832
3, 43579, Pitch_bend_c, 1, 8704
3, 43581, Pitch_bend_c, 1, 8640
3, 43583, Pitch_bend_c, 1, 8544
3, 43589, Pitch_bend_c, 1, 8448
3, 43593, Pitch_bend_c, 1, 8352
3, 43597, Pitch_bend_c, 1, 8288
3, 43613, Pitch_bend_c, 1, 8192
3, 43647, Note_on_c, 1, 37, 0
3, 43656, Note_on_c, 1, 34, 108
3, 43668, Note_on_c, 1, 34, 0
3, 43673, Pitch_bend_c, 1, 6752
3, 43673, Note_on_c, 1, 38, 100
3, 43675, Pitch_bend_c, 1, 6944
3, 43677, Pitch_bend_c, 1, 7200
3, 43679, Pitch_bend_c, 1, 7424
3, 43681, Pitch_bend_c, 1, 7744
3, 43683, Pitch_bend_c, 1, 8128
3, 43685, Pitch_bend_c, 1, 8352
3, 43687, Pitch_bend_c, 1, 8704
3, 43689, Pitch_bend_c, 1, 8800
3, 43695, Pitch_bend_c, 1, 8736
3, 43699, Pitch_bend_c, 1, 8640
3, 43701, Pitch_bend_c, 1, 8544
3, 43705, Pitch_bend_c, 1, 8480
3, 43711, Pitch_bend_c, 1, 8352
3, 43717, Pitch_bend_c, 1, 8288
3, 43733, Pitch_bend_c, 1, 8192
3, 43770, Note_on_c, 1, 38, 0
3, 43780, Note_on_c, 1, 37, 109
3, 43795, Note_on_c, 1, 37, 0
3, 43796, Pitch_bend_c, 1, 7072
3, 43796, Note_on_c, 1, 40, 102
3, 43798, Pitch_bend_c, 1, 7232
3, 43800, Pitch_bend_c, 1, 7424
3, 43802, Pitch_bend_c, 1, 7680
3, 43804, Pitch_bend_c, 1, 7936
3, 43806, Pitch_bend_c, 1, 8192
3, 43808, Pitch_bend_c, 1, 8544
3, 43810, Pitch_bend_c, 1, 8640
3, 43818, Pitch_bend_c, 1, 8576
3, 43822, Pitch_bend_c, 1, 8480
3, 43826, Pitch_bend_c, 1, 8416
3, 43832, Pitch_bend_c, 1, 8320
3, 43836, Pitch_bend_c, 1, 8256
3, 43852, Pitch_bend_c, 1, 8192
3, 43886, Note_on_c, 1, 40, 0
3, 43896, Note_on_c, 1, 41, 108
3, 43907, Note_on_c, 1, 41, 0
3, 43921, Pitch_bend_c, 1, 6944
3, 43921, Note_on_c, 1, 42, 100
3, 43923, Pitch_bend_c, 1, 7136
3, 43925, Pitch_bend_c, 1, 7360
3, 43927, Pitch_bend_c, 1, 7648
3, 43929, Pitch_bend_c, 1, 7904
3, 43931, Pitch_bend_c, 1, 8192
3, 43933, Pitch_bend_c, 1, 8576
3, 43935, Pitch_bend_c, 1, 8672
3, 43943, Pitch_bend_c, 1, 8608
3, 43947, Pitch_bend_c, 1, 8512
3, 43949, Pitch_bend_c, 1, 8448
3, 43951, Pitch_bend_c, 1, 8384
3, 43955, Pitch_bend_c, 1, 8320
3, 43975, Pitch_bend_c, 1, 8192
3, 44007, Note_on_c, 1, 42, 0
3, 44016, Note_on_c, 1, 37, 108
3, 44029, Note_on_c, 1, 37, 0
3, 44037, Note_on_c, 1, 38, 101
3, 44096, Note_on_c, 1, 38, 0
3, 44096, Note_on_c, 1, 45, 105
3, 44117, Note_on_c, 1, 45, 0
3, 44153, Pitch_bend_c, 1, 6976
3, 44153, Note_on_c, 1, 43, 102
3, 44155, Pitch_bend_c, 1, 7200
3, 44157, Pitch_bend_c, 1, 7424
3, 44159, Pitch_bend_c, 1, 7744
3, 44161, Pitch_bend_c, 1, 8032
3, 44163, Pitch_bend_c, 1, 8320
3, 44165, Pitch_bend_c, 1, 8608
3, 44167, Pitch_bend_c, 1, 8704
3, 44175, Pitch_bend_c, 1, 8576
3, 44177, Pitch_bend_c, 1, 8480
3, 44183, Pitch_bend_c, 1, 8384
3, 44187, Pitch_bend_c, 1, 8320
3, 44205, Pitch_bend_c, 1, 8192
3, 44238, Note_on_c, 1, 43, 0
3, 44245, Note_on_c, 1, 38, 104
3, 44262, Note_on_c, 1, 38, 0
3, 44270, Note_on_c, 1, 32, 107
3, 44294, Note_on_c, 1, 32, 0
3, 44330, Pitch_bend_c, 1, 6912
3, 44330, Note_on_c, 1, 30, 102
3, 44332, Pitch_bend_c, 1, 7200
3, 44334, Pitch_bend_c, 1, 7616
3, 44336, Pitch_bend_c, 1, 8128
3, 44338, Pitch_bend_c, 1, 8576
3, 44340, Pitch_bend_c, 1, 8736
3, 44344, Pitch_bend_c, 1, 8640
3, 44346, Pitch_bend_c, 1, 8576
3, 44348, Pitch_bend_c, 1, 8512
3, 44350, Pitch_bend_c, 1, 8416
3, 44352, Pitch_bend_c, 1, 8320
3, 44366, Pitch_bend_c, 1, 8192
3, 44387, Note_on_c, 1, 30, 0
3, 44392, Pitch_bend_c, 1, 6912
3, 44392, Note_on_c, 1, 31, 103
3, 44394, Pitch_bend_c, 1, 7072
3, 44396, Pitch_bend_c, 1, 7296
3, 44398, Pitch_bend_c, 1, 7616
3, 44400, Pitch_bend_c, 1, 7904
3, 44402, Pitch_bend_c, 1, 8192
3, 44404, Pitch_bend_c, 1, 8576
3, 44406, Pitch_bend_c, 1, 8704
3, 44414, Pitch_bend_c, 1, 8640
3, 44416, Pitch_bend_c, 1, 8576
3, 44418, Pitch_bend_c, 1, 8512
3, 44422, Pitch_bend_c, 1, 8448
3, 44428, Pitch_bend_c, 1, 8320
3, 44448, Pitch_bend_c, 1, 8192
3, 44481, Note_on_c, 1, 31, 0
3, 44491, Note_on_c, 1, 38, 103
3, 44503, Note_on_c, 1, 38, 0
3, 44512, Pitch_bend_c, 1, 6944
3, 44512, Note_on_c, 1, 43, 103
3, 44514, Pitch_bend_c, 1, 7232
3, 44516, Pitch_bend_c, 1, 7744
3, 44518, Pitch_bend_c, 1, 8128
3, 44520, Pitch_bend_c, 1, 8640
3, 44522, Pitch_bend_c, 1, 8736
3, 44526, Pitch_bend_c, 1, 8640
3, 44528, Pitch_bend_c, 1, 8512
3, 44530, Pitch_bend_c, 1, 8448
3, 44534, Pitch_bend_c, 1, 8320
3, 44548, Pitch_bend_c, 1, 8192
3, 44568, Note_on_c, 1, 43, 0
3, 44575, Pitch_bend_c, 1, 6816
3, 44575, Note_on_c, 1, 31, 100
3, 44577, Pitch_bend_c, 1, 7136
3, 44579, Pitch_bend_c, 1, 7584
3, 44581, Pitch_bend_c, 1, 8128
3, 44583, Pitch_bend_c, 1, 8608
3, 44585, Pitch_bend_c, 1, 8768
3, 44589, Pitch_bend_c, 1, 8672
3, 44591, Pitch_bend_c, 1, 8608
3, 44593, Pitch_bend_c, 1, 8544
3, 44595, Pitch_bend_c, 1, 8416
3, 44597, Pitch_bend_c, 1, 8352
3, 44601, Pitch_bend_c, 1, 8288
3, 44611, Pitch_bend_c, 1, 8192
3, 44632, Note_on_c, 1, 31, 0
3, 44637, Pitch_bend_c, 1, 6944
3, 44637, Note_on_c, 1, 42, 103
3, 44639, Pitch_bend_c, 1, 7168
3, 44641, Pitch_bend_c, 1, 7424
3, 44643, Pitch_bend_c, 1, 7744
3, 44645, Pitch_bend_c, 1, 8032
3, 44647, Pitch_bend_c, 1, 8320
3, 44649, Pitch_bend_c, 1, 8640
3, 44651, Pitch_bend_c, 1, 8736
3, 44657, Pitch_bend_c, 1, 8672
3, 44659, Pitch_bend_c, 1, 8576
3, 44661, Pitch_bend_c, 1, 8512
3, 44665, Pitch_bend_c, 1, 8448
3, 44671, Pitch_bend_c, 1, 8320
3, 44689, Pitch_bend_c, 1, 8192
3, 44721, Note_on_c, 1, 42, 0
3, 44730, Note_on_c, 1, 38, 108
3, 44742, Note_on_c, 1, 38, 0
3, 44753, Note_on_c, 1, 30, 106
3, 44772, Note_on_c, 1, 30, 0
3, 44813, Pitch_bend_c, 1, 6848
3, 44813, Note_on_c, 1, 36, 102
3, 44815, Pitch_bend_c, 1, 7168
3, 44817, Pitch_bend_c, 1, 7712
3, 44819, Pitch_bend_c, 1, 8128
3, 44821, Pitch_bend_c, 1, 8672
3, 44823, Pitch_bend_c, 1, 8768
3, 44827, Pitch_bend_c, 1, 8672
3, 44829, Pitch_bend_c, 1, 8512
3, 44833, Pitch_bend_c, 1, 8416
3, 44835, Pitch_bend_c, 1, 8352
3, 44839, Pitch_bend_c, 1, 8288
3, 44849, Pitch_bend_c, 1, 8192
3, 44869, Note_on_c, 1, 36, 0
3, 44874, Pitch_bend_c, 1, 6976
3, 44874, Note_on_c, 1, 38, 103
3, 44876, Pitch_bend_c, 1, 7136
3, 44878, Pitch_bend_c, 1, 7264
3, 44880, Pitch_bend_c, 1, 7520
3, 44882, Pitch_bend_c, 1, 7744
3, 44884, Pitch_bend_c, 1, 7904
3, 44886, Pitch_bend_c, 1, 8192
3, 44888, Pitch_bend_c, 1, 8448
3, 44890, Pitch_bend_c, 1, 8608
3, 44892, Pitch_bend_c, 1, 8704
3, 44902, Pitch_bend_c, 1, 8608
3, 44906, Pitch_bend_c, 1, 8480
3, 44912, Pitch_bend_c, 1, 8384
3, 44916, Pitch_bend_c, 1, 8320
3, 44942, Pitch_bend_c, 1, 8192
3, 44983, Note_on_c, 1, 38, 0
3, 44994, Pitch_bend_c, 1, 3936
3, 44994, Note_on_c, 1, 30, 103
3, 45002, Pitch_bend_c, 1, 4096
3, 45004, Pitch_bend_c, 1, 4256
3, 45006, Pitch_bend_c, 1, 4672
3, 45008, Pitch_bend_c, 1, 5216
3, 45010, Pitch_bend_c, 1, 6432
3, 45012, Pitch_bend_c, 1, 6976
3, 45014, Pitch_bend_c, 1, 7520
3, 45016, Pitch_bend_c, 1, 7808
3, 45018, Pitch_bend_c, 1, 7968
3, 45020, Pitch_bend_c, 1, 8096
3, 45034, Pitch_bend_c, 1, 8192
3, 45095, Note_on_c, 1, 30, 0
3, 45095, Note_on_c, 1, 38, 108
3, 45106, Note_on_c, 1, 38, 0
3, 45118, Pitch_bend_c, 1, 6944
3, 45118, Note_on_c, 1, 29, 103
3, 45120, Pitch_bend_c, 1, 7232
3, 45122, Pitch_bend_c, 1, 7648
3, 45124, Pitch_bend_c, 1, 8032
3, 45126, Pitch_bend_c, 1, 8576
3, 45128, Pitch_bend_c, 1, 8736
3, 45132, Pitch_bend_c, 1, 8672
3, 45134, Pitch_bend_c, 1, 8576
3, 45136, Pitch_bend_c, 1, 8512
3, 45138, Pitch_bend_c, 1, 8448
3, 45142, Pitch_bend_c, 1, 8320
3, 45156, Pitch_bend_c, 1, 8192
3, 45178, Note_on_c, 1, 29, 0
3, 45184, Note_on_c, 1, 43, 102
3, 45219, Note_on_c, 1, 43, 0
3, 45238, Note_on_c, 1, 41, 112
3, 45283, Note_on_c, 1, 41, 0
3, 45302, Note_on_c, 1, 38, 98
3, 45308, Note_on_c, 1, 38, 0
3, 45360, Pitch_bend_c, 1, 6944
3, 45360, Note_on_c, 1, 35, 89
3, 45362, Pitch_bend_c, 1, 7136
3, 45364, Pitch_bend_c, 1, 7360
3, 45366, Pitch_bend_c, 1, 7648
3, 45368, Pitch_bend_c, 1, 7904
3, 45370, Pitch_bend_c, 1, 8192
3, 45372, Pitch_bend_c, 1, 8576
3, 45374, Pitch_bend_c, 1, 8672
3, 45382, Pitch_bend_c, 1, 8608
3, 45386, Pitch_bend_c, 1, 8512
3, 45388, Pitch_bend_c, 1, 8448
3, 45390, Pitch_bend_c, 1, 8384
3, 45394, Pitch_bend_c, 1, 8320
3, 45414, Pitch_bend_c, 1, 8192
3, 45447, Note_on_c, 1, 35, 0
3, 45482, Pitch_bend_c, 1, 7072
3, 45482, Note_on_c, 1, 38, 103
3, 45484, Pitch_bend_c, 1, 7232
3, 45486, Pitch_bend_c, 1, 7424
3, 45488, Pitch_bend_c, 1, 7680
3, 45490, Pitch_bend_c, 1, 7936
3, 45492, Pitch_bend_c, 1, 8192
3, 45494, Pitch_bend_c, 1, 8544
3, 45496, Pitch_bend_c, 1, 8640
3, 45504, Pitch_bend_c, 1, 8576
3, 45508, Pitch_bend_c, 1, 8480
3, 45510, Pitch_bend_c, 1, 8416
3, 45516, Pitch_bend_c, 1, 8320
3, 45520, Pitch_bend_c, 1, 8256
3, 45536, Pitch_bend_c, 1, 8192
3, 45568, Note_on_c, 1, 38, 0
3, 45576, Note_on_c, 1, 35, 107
3, 45592, Note_on_c, 1, 35, 0
3, 45599, Pitch_bend_c, 1, 6784
3, 45599, Note_on_c, 1, 36, 99
3, 45601, Pitch_bend_c, 1, 6976
3, 45603, Pitch_bend_c, 1, 7104
3, 45605, Pitch_bend_c, 1, 7424
3, 45607, Pitch_bend_c, 1, 7680
3, 45609, Pitch_bend_c, 1, 7872
3, 45611, Pitch_bend_c, 1, 8192
3, 45613, Pitch_bend_c, 1, 8480
3, 45615, Pitch_bend_c, 1, 8736
3, 45617, Pitch_bend_c, 1, 8800
3, 45625, Pitch_bend_c, 1, 8672
3, 45631, Pitch_bend_c, 1, 8544
3, 45635, Pitch_bend_c, 1, 8480
3, 45637, Pitch_bend_c, 1, 8416
3, 45641, Pitch_bend_c, 1, 8352
3, 45647, Pitch_bend_c, 1, 8288
3, 45665, Pitch_bend_c, 1, 8192
3, 45706, Note_on_c, 1, 36, 0
3, 45716, Pitch_bend_c, 1, 6976
3, 45716, Note_on_c, 1, 38, 100
3, 45718, Pitch_bend_c, 1, 7136
3, 45720, Pitch_bend_c, 1, 7360
3, 45722, Pitch_bend_c, 1, 7648
3, 45724, Pitch_bend_c, 1, 7904
3, 45726, Pitch_bend_c, 1, 8192
3, 45728, Pitch_bend_c, 1, 8576
3, 45730, Pitch_bend_c, 1, 8672
3, 45738, Pitch_bend_c, 1, 8608
3, 45742, Pitch_bend_c, 1, 8480
3, 45748, Pitch_bend_c, 1, 8384
3, 45750, Pitch_bend_c, 1, 8320
3, 45770, Pitch_bend_c, 1, 8192
3, 45804, Note_on_c, 1, 38, 0
3, 45814, Note_on_c, 1, 36, 108
3, 45820, Note_on_c, 1, 36, 0
3, 45832, Pitch_bend_c, 1, 6976
3, 45832, Note_on_c, 1, 39, 102
3, 45834, Pitch_bend_c, 1, 7136
3, 45836, Pitch_bend_c, 1, 7360
3, 45838, Pitch_bend_c, 1, 7648
3, 45840, Pitch_bend_c, 1, 7808
3, 45842, Pitch_bend_c, 1, 8128
3, 45844, Pitch_bend_c, 1, 8448
3, 45846, Pitch_bend_c, 1, 8608
3, 45848, Pitch_bend_c, 1, 8704
3, 45856, Pitch_bend_c, 1, 8608
3, 45860, Pitch_bend_c, 1, 8480
3, 45866, Pitch_bend_c, 1, 8384
3, 45870, Pitch_bend_c, 1, 8320
3, 45890, Pitch_bend_c, 1, 8192
3, 45927, Note_on_c, 1, 39, 0
3, 45936, Note_on_c, 1, 43, 108
3, 45942, Note_on_c, 1, 43, 0
3, 45965, Note_on_c, 1, 50, 100
3, 46019, Note_on_c, 1, 50, 0
3, 46019, Pitch_bend_c, 1, 7104
3, 46019, Note_on_c, 1, 49, 99
3, 46021, Pitch_bend_c, 1, 7360
3, 46023, Pitch_bend_c, 1, 7808
3, 46025, Pitch_bend_c, 1, 8192
3, 46027, Pitch_bend_c, 1, 8576
3, 46029, Pitch_bend_c, 1, 8640
3, 46033, Pitch_bend_c, 1, 8512
3, 46035, Pitch_bend_c, 1, 8448
3, 46039, Pitch_bend_c, 1, 8384
3, 46041, Pitch_bend_c, 1, 8320
3, 46043, Pitch_bend_c, 1, 8256
3, 46053, Pitch_bend_c, 1, 8192
3, 46073, Note_on_c, 1, 49, 0
3, 46079, Pitch_bend_c, 1, 6816
3, 46079, Note_on_c, 1, 48, 101
3, 46081, Pitch_bend_c, 1, 7008
3, 46083, Pitch_bend_c, 1, 7264
3, 46085, Pitch_bend_c, 1, 7584
3, 46087, Pitch_bend_c, 1, 7872
3, 46089, Pitch_bend_c, 1, 8192
3, 46091, Pitch_bend_c, 1, 8608
3, 46093, Pitch_bend_c, 1, 8736
3, 46101, Pitch_bend_c, 1, 8672
3, 46103, Pitch_bend_c, 1, 8608
3, 46105, Pitch_bend_c, 1, 8544
3, 46107, Pitch_bend_c, 1, 8480
3, 46109, Pitch_bend_c, 1, 8416
3, 46113, Pitch_bend_c, 1, 8352
3, 46119, Pitch_bend_c, 1, 8288
3, 46133, Pitch_bend_c, 1, 8192
3, 46166, Note_on_c, 1, 48, 0
3, 46173, Note_on_c, 1, 39, 103
3, 46180, Note_on_c, 1, 39, 0
3, 46196, Pitch_bend_c, 1, 7104
3, 46196, Note_on_c, 1, 43, 102
3, 46198, Pitch_bend_c, 1, 7264
3, 46200, Pitch_bend_c, 1, 7360
3, 46202, Pitch_bend_c, 1, 7520
3, 46204, Pitch_bend_c, 1, 7808
3, 46206, Pitch_bend_c, 1, 7936
3, 46208, Pitch_bend_c, 1, 8128
3, 46210, Pitch_bend_c, 1, 8320
3, 46212, Pitch_bend_c, 1, 8576
3, 46216, Pitch_bend_c, 1, 8640
3, 46224, Pitch_bend_c, 1, 8576
3, 46226, Pitch_bend_c, 1, 8512
3, 46228, Pitch_bend_c, 1, 8448
3, 46236, Pitch_bend_c, 1, 8384
3, 46240, Pitch_bend_c, 1, 8320
3, 46246, Pitch_bend_c, 1, 8256
3, 46266, Pitch_bend_c, 1, 8192
3, 46309, Note_on_c, 1, 43, 0
3, 46322, Pitch_bend_c, 1, 6912
3, 46322, Note_on_c, 1, 45, 100
3, 46324, Pitch_bend_c, 1, 7104
3, 46326, Pitch_bend_c, 1, 7328
3, 46328, Pitch_bend_c, 1, 7616
3, 46330, Pitch_bend_c, 1, 7904
3, 46332, Pitch_bend_c, 1, 8192
3, 46334, Pitch_bend_c, 1, 8576
3, 46336, Pitch_bend_c, 1, 8672
3, 46338, Pitch_bend_c, 1, 8736
3, 46344, Pitch_bend_c, 1, 8640
3, 46346, Pitch_bend_c, 1, 8576
3, 46348, Pitch_bend_c, 1, 8512
3, 46352, Pitch_bend_c, 1, 8448
3, 46358, Pitch_bend_c, 1, 8320
3, 46378, Pitch_bend_c, 1, 8192
3, 46412, Note_on_c, 1, 45, 0
3, 46423, Note_on_c, 1, 37, 108
3, 46438, Note_on_c, 1, 37, 0
3, 46443, Pitch_bend_c, 1, 7072
3, 46443, Note_on_c, 1, 38, 100
3, 46445, Pitch_bend_c, 1, 7328
3, 46447, Pitch_bend_c, 1, 7776
3, 46449, Pitch_bend_c, 1, 8192
3, 46451, Pitch_bend_c, 1, 8576
3, 46453, Pitch_bend_c, 1, 8672
3, 46457, Pitch_bend_c, 1, 8544
3, 46459, Pitch_bend_c, 1, 8480
3, 46461, Pitch_bend_c, 1, 8416
3, 46465, Pitch_bend_c, 1, 8320
3, 46467, Pitch_bend_c, 1, 8256
3, 46477, Pitch_bend_c, 1, 8192
3, 46497, Note_on_c, 1, 38, 0
3, 46503, Note_on_c, 1, 45, 104
3, 46515, Note_on_c, 1, 45, 0
3, 46560, Pitch_bend_c, 1, 6880
3, 46560, Note_on_c, 1, 43, 101
3, 46562, Pitch_bend_c, 1, 7072
3, 46564, Pitch_bend_c, 1, 7200
3, 46566, Pitch_bend_c, 1, 7488
3, 46568, Pitch_bend_c, 1, 7712
3, 46570, Pitch_bend_c, 1, 8032
3, 46572, Pitch_bend_c, 1, 8192
3, 46574, Pitch_bend_c, 1, 8576
3, 46576, Pitch_bend_c, 1, 8704
3, 46586, Pitch_bend_c, 1, 8640
3, 46588, Pitch_bend_c, 1, 8576
3, 46590, Pitch_bend_c, 1, 8512
3, 46594, Pitch_bend_c, 1, 8448
3, 46602, Pitch_bend_c, 1, 8320
3, 46624, Pitch_bend_c, 1, 8192
3, 46665, Note_on_c, 1, 43, 0
3, 46677, Pitch_bend_c, 1, 4096
3, 46677, Note_on_c, 1, 38, 103
3, 46685, Pitch_bend_c, 1, 4224
3, 46689, Pitch_bend_c, 1, 4384
3, 46691, Pitch_bend_c, 1, 4608
3, 46693, Pitch_bend_c, 1, 5024
3, 46695, Pitch_bend_c, 1, 5632
3, 46697, Pitch_bend_c, 1, 6496
3, 46699, Pitch_bend_c, 1, 7232
3, 46701, Pitch_bend_c, 1, 7520
3, 46703, Pitch_bend_c, 1, 7808
3, 46705, Pitch_bend_c, 1, 7968
3, 46707, Pitch_bend_c, 1, 8032
3, 46709, Pitch_bend_c, 1, 8096
3, 46725, Pitch_bend_c, 1, 8192
3, 46799, Note_on_c, 1, 38, 0
3, 46799, Pitch_bend_c, 1, 3936
3, 46799, Note_on_c, 1, 31, 100
3, 46807, Pitch_bend_c, 1, 4096
3, 46809, Pitch_bend_c, 1, 4160
3, 46811, Pitch_bend_c, 1, 4384
3, 46813, Pitch_bend_c, 1, 4928
3, 46815, Pitch_bend_c, 1, 5536
3, 46817, Pitch_bend_c, 1, 6432
3, 46819, Pitch_bend_c, 1, 7200
3, 46821, Pitch_bend_c, 1, 7520
3, 46823, Pitch_bend_c, 1, 7808
3, 46825, Pitch_bend_c, 1, 7968
3, 46827, Pitch_bend_c, 1, 8096
3, 46843, Pitch_bend_c, 1, 8192
3, 46909, Note_on_c, 1, 31, 0
3, 46909, Note_on_c, 1, 38, 107
3, 46917, Note_on_c, 1, 38, 0
3, 46921, Pitch_bend_c, 1, 6720
3, 46921, Note_on_c, 1, 43, 103
3, 46923, Pitch_bend_c, 1, 6912
3, 46925, Pitch_bend_c, 1, 7200
3, 46927, Pitch_bend_c, 1, 7552
3, 46929, Pitch_bend_c, 1, 7872
3, 46931, Pitch_bend_c, 1, 8192
3, 46933, Pitch_bend_c, 1, 8640
3, 46935, Pitch_bend_c, 1, 8768
3, 46937, Pitch_bend_c, 1, 8832
3, 46941, Pitch_bend_c, 1, 8768
3, 46943, Pitch_bend_c, 1, 8704
3, 46945, Pitch_bend_c, 1, 8640
3, 46947, Pitch_bend_c, 1, 8544
3, 46951, Pitch_bend_c, 1, 8448
3, 46955, Pitch_bend_c, 1, 8352
3, 46961, Pitch_bend_c, 1, 8288
3, 46975, Pitch_bend_c, 1, 8192
3, 47008, Note_on_c, 1, 43, 0
3, 47019, Note_on_c, 1, 39, 105
3, 47035, Note_on_c, 1, 39, 0
3, 47038, Pitch_bend_c, 1, 6848
3, 47038, Note_on_c, 1, 32, 103
3, 47040, Pitch_bend_c, 1, 7168
3, 47042, Pitch_bend_c, 1, 7712
3, 47044, Pitch_bend_c, 1, 8128
3, 47046, Pitch_bend_c, 1, 8672
3, 47048, Pitch_bend_c, 1, 8768
3, 47052, Pitch_bend_c, 1, 8672
3, 47054, Pitch_bend_c, 1, 8512
3, 47058, Pitch_bend_c, 1, 8416
3, 47060, Pitch_bend_c, 1, 8352
3, 47064, Pitch_bend_c, 1, 8288
3, 47072, Pitch_bend_c, 1, 8192
3, 47093, Note_on_c, 1, 32, 0
3, 47099, Pitch_bend_c, 1, 6656
3, 47099, Note_on_c, 1, 48, 100
3, 47101, Pitch_bend_c, 1, 6944
3, 47103, Pitch_bend_c, 1, 7232
3, 47105, Pitch_bend_c, 1, 7616
3, 47107, Pitch_bend_c, 1, 8000
3, 47109, Pitch_bend_c, 1, 8352
3, 47111, Pitch_bend_c, 1, 8736
3, 47113, Pitch_bend_c, 1, 8832
3, 47121, Pitch_bend_c, 1, 8672
3, 47123, Pitch_bend_c, 1, 8576
3, 47127, Pitch_bend_c, 1, 8512
3, 47129, Pitch_bend_c, 1, 8448
3, 47131, Pitch_bend_c, 1, 8352
3, 47137, Pitch_bend_c, 1, 8288
3, 47151, Pitch_bend_c, 1, 8192
3, 47182, Note_on_c, 1, 48, 0
3, 47192, Note_on_c, 1, 39, 107
3, 47206, Note_on_c, 1, 39, 0
3, 47215, Pitch_bend_c, 1, 6720
3, 47215, Note_on_c, 1, 32, 99
3, 47217, Pitch_bend_c, 1, 7072
3, 47219, Pitch_bend_c, 1, 7648
3, 47221, Pitch_bend_c, 1, 8128
3, 47223, Pitch_bend_c, 1, 8704
3, 47225, Pitch_bend_c, 1, 8832
3, 47229, Pitch_bend_c, 1, 8704
3, 47231, Pitch_bend_c, 1, 8544
3, 47235, Pitch_bend_c, 1, 8448
3, 47237, Pitch_bend_c, 1, 8352
3, 47241, Pitch_bend_c, 1, 8288
3, 47251, Pitch_bend_c, 1, 8192
3, 47271, Note_on_c, 1, 32, 0
3, 47276, Pitch_bend_c, 1, 7104
3, 47276, Note_on_c, 1, 38, 102
3, 47278, Pitch_bend_c, 1, 7296
3, 47280, Pitch_bend_c, 1, 7520
3, 47282, Pitch_bend_c, 1, 7808
3, 47284, Pitch_bend_c, 1, 8064
3, 47286, Pitch_bend_c, 1, 8320
3, 47288, Pitch_bend_c, 1, 8576
3, 47290, Pitch_bend_c, 1, 8640
3, 47296, Pitch_bend_c, 1, 8576
3, 47298, Pitch_bend_c, 1, 8512
3, 47300, Pitch_bend_c, 1, 8448
3, 47304, Pitch_bend_c, 1, 8384
3, 47308, Pitch_bend_c, 1, 8320
3, 47312, Pitch_bend_c, 1, 8256
3, 47326, Pitch_bend_c, 1, 8192
3, 47357, Note_on_c, 1, 38, 0
3, 47365, Note_on_c, 1, 38, 108
3, 47389, Note_on_c, 1, 38, 0
3, 47391, Pitch_bend_c, 1, 6816
3, 47391, Note_on_c, 1, 42, 103
3, 47393, Pitch_bend_c, 1, 7136
3, 47395, Pitch_bend_c, 1, 7584
3, 47397, Pitch_bend_c, 1, 8128
3, 47399, Pitch_bend_c, 1, 8608
3, 47401, Pitch_bend_c, 1, 8768
3, 47407, Pitch_bend_c, 1, 8608
3, 47409, Pitch_bend_c, 1, 8544
3, 47411, Pitch_bend_c, 1, 8416
3, 47415, Pitch_bend_c, 1, 8352
3, 47417, Pitch_bend_c, 1, 8288
3, 47427, Pitch_bend_c, 1, 8192
3, 47449, Note_on_c, 1, 42, 0
3, 47454, Note_on_c, 1, 45, 104
3, 47486, Note_on_c, 1, 45, 0
3, 47513, Pitch_bend_c, 1, 6944
3, 47513, Note_on_c, 1, 43, 103
3, 47515, Pitch_bend_c, 1, 7136
3, 47517, Pitch_bend_c, 1, 7232
3, 47519, Pitch_bend_c, 1, 7520
3, 47521, Pitch_bend_c, 1, 7744
3, 47523, Pitch_bend_c, 1, 7904
3, 47525, Pitch_bend_c, 1, 8192
3, 47527, Pitch_bend_c, 1, 8448
3, 47529, Pitch_bend_c, 1, 8608
3, 47531, Pitch_bend_c, 1, 8704
3, 47541, Pitch_bend_c, 1, 8576
3, 47545, Pitch_bend_c, 1, 8512
3, 47549, Pitch_bend_c, 1, 8448
3, 47551, Pitch_bend_c, 1, 8384
3, 47555, Pitch_bend_c, 1, 8320
3, 47579, Pitch_bend_c, 1, 8192
3, 47621, Note_on_c, 1, 43, 0
3, 47633, Pitch_bend_c, 1, 3936
3, 47633, Note_on_c, 1, 38, 103
3, 47641, Pitch_bend_c, 1, 4096
3, 47645, Pitch_bend_c, 1, 4256
3, 47647, Pitch_bend_c, 1, 4480
3, 47649, Pitch_bend_c, 1, 4928
3, 47651, Pitch_bend_c, 1, 5536
3, 47653, Pitch_bend_c, 1, 6432
3, 47655, Pitch_bend_c, 1, 7200
3, 47657, Pitch_bend_c, 1, 7520
3, 47659, Pitch_bend_c, 1, 7808
3, 47661, Pitch_bend_c, 1, 7968
3, 47663, Pitch_bend_c, 1, 8032
3, 47665, Pitch_bend_c, 1, 8096
3, 47681, Pitch_bend_c, 1, 8192
3, 47755, Note_on_c, 1, 38, 0
3, 47755, Pitch_bend_c, 1, 4096
3, 47755, Note_on_c, 1, 31, 102
3, 47763, Pitch_bend_c, 1, 4224
3, 47765, Pitch_bend_c, 1, 4384
3, 47767, Pitch_bend_c, 1, 4608
3, 47769, Pitch_bend_c, 1, 5312
3, 47771, Pitch_bend_c, 1, 6144
3, 47773, Pitch_bend_c, 1, 7008
3, 47775, Pitch_bend_c, 1, 7360
3, 47777, Pitch_bend_c, 1, 7808
3, 47779, Pitch_bend_c, 1, 7968
3, 47781, Pitch_bend_c, 1, 8096
3, 47795, Pitch_bend_c, 1, 8192
3, 47858, Note_on_c, 1, 31, 0
3, 47858, Note_on_c, 1, 38, 107
3, 47864, Note_on_c, 1, 38, 0
3, 47881, Pitch_bend_c, 1, 6912
3, 47881, Note_on_c, 1, 38, 103
3, 47883, Pitch_bend_c, 1, 7232
3, 47885, Pitch_bend_c, 1, 7712
3, 47887, Pitch_bend_c, 1, 8192
3, 47889, Pitch_bend_c, 1, 8640
3, 47891, Pitch_bend_c, 1, 8736
3, 47895, Pitch_bend_c, 1, 8576
3, 47897, Pitch_bend_c, 1, 8512
3, 47899, Pitch_bend_c, 1, 8448
3, 47903, Pitch_bend_c, 1, 8320
3, 47915, Pitch_bend_c, 1, 8192
3, 47935, Note_on_c, 1, 38, 0
3, 47942, Pitch_bend_c, 1, 6976
3, 47942, Note_on_c, 1, 42, 100
3, 47944, Pitch_bend_c, 1, 7264
3, 47946, Pitch_bend_c, 1, 7744
3, 47948, Pitch_bend_c, 1, 8192
3, 47950, Pitch_bend_c, 1, 8672
3, 47956, Pitch_bend_c, 1, 8576
3, 47958, Pitch_bend_c, 1, 8480
3, 47962, Pitch_bend_c, 1, 8384
3, 47964, Pitch_bend_c, 1, 8320
3, 47976, Pitch_bend_c, 1, 8192
3, 47995, Note_on_c, 1, 42, 0
3, 48002, Pitch_bend_c, 1, 7136
3, 48002, Note_on_c, 1, 43, 103
3, 48004, Pitch_bend_c, 1, 7296
3, 48006, Pitch_bend_c, 1, 7488
3, 48008, Pitch_bend_c, 1, 7744
3, 48010, Pitch_bend_c, 1, 7968
3, 48012, Pitch_bend_c, 1, 8192
3, 48014, Pitch_bend_c, 1, 8416
3, 48016, Pitch_bend_c, 1, 8608
3, 48026, Pitch_bend_c, 1, 8512
3, 48028, Pitch_bend_c, 1, 8448
3, 48034, Pitch_bend_c, 1, 8352
3, 48038, Pitch_bend_c, 1, 8288
3, 48060, Pitch_bend_c, 1, 8192
3, 48094, Note_on_c, 1, 43, 0
3, 48102, Note_on_c, 1, 38, 108
3, 48112, Note_on_c, 1, 38, 0
3, 48120, Pitch_bend_c, 1, 6752
3, 48120, Note_on_c, 1, 44, 99
3, 48122, Pitch_bend_c, 1, 6944
3, 48124, Pitch_bend_c, 1, 7200
3, 48126, Pitch_bend_c, 1, 7552
3, 48128, Pitch_bend_c, 1, 7872
3, 48130, Pitch_bend_c, 1, 8128
3, 48132, Pitch_bend_c, 1, 8480
3, 48134, Pitch_bend_c, 1, 8768
3, 48144, Pitch_bend_c, 1, 8640
3, 48148, Pitch_bend_c, 1, 8544
3, 48150, Pitch_bend_c, 1, 8480
3, 48156, Pitch_bend_c, 1, 8352
3, 48162, Pitch_bend_c, 1, 8288
3, 48178, Pitch_bend_c, 1, 8192
3, 48213, Note_on_c, 1, 44, 0
3, 48221, Note_on_c, 1, 38, 108
3, 48227, Note_on_c, 1, 38, 0
3, 48240, Pitch_bend_c, 1, 7040
3, 48240, Note_on_c, 1, 43, 100
3, 48242, Pitch_bend_c, 1, 7264
3, 48244, Pitch_bend_c, 1, 7488
3, 48246, Pitch_bend_c, 1, 7776
3, 48248, Pitch_bend_c, 1, 8064
3, 48250, Pitch_bend_c, 1, 8320
3, 48252, Pitch_bend_c, 1, 8576
3, 48254, Pitch_bend_c, 1, 8672
3, 48262, Pitch_bend_c, 1, 8544
3, 48264, Pitch_bend_c, 1, 8480
3, 48268, Pitch_bend_c, 1, 8416
3, 48272, Pitch_bend_c, 1, 8320
3, 48278, Pitch_bend_c, 1, 8256
3, 48292, Pitch_bend_c, 1, 8192
3, 48323, Note_on_c, 1, 43, 0
3, 48334, Note_on_c, 1, 38, 109
3, 48340, Note_on_c, 1, 38, 0
3, 48356, Pitch_bend_c, 1, 6848
3, 48356, Note_on_c, 1, 41, 102
3, 48358, Pitch_bend_c, 1, 7168
3, 48360, Pitch_bend_c, 1, 7712
3, 48362, Pitch_bend_c, 1, 8192
3, 48364, Pitch_bend_c, 1, 8704
3, 48366, Pitch_bend_c, 1, 8768
3, 48370, Pitch_bend_c, 1, 8608
3, 48372, Pitch_bend_c, 1, 8512
3, 48376, Pitch_bend_c, 1, 8416
3, 48378, Pitch_bend_c, 1, 8320
3, 48390, Pitch_bend_c, 1, 8192
3, 48409, Note_on_c, 1, 41, 0
3, 48416, Note_on_c, 1, 35, 103
3, 48475, Note_on_c, 1, 35, 0
3, 48475, Pitch_bend_c, 1, 6976
3, 48475, Note_on_c, 1, 36, 100
3, 48477, Pitch_bend_c, 1, 7264
3, 48479, Pitch_bend_c, 1, 7648
3, 48481, Pitch_bend_c, 1, 8128
3, 48483, Pitch_bend_c, 1, 8576
3, 48485, Pitch_bend_c, 1, 8704
3, 48491, Pitch_bend_c, 1, 8576
3, 48493, Pitch_bend_c, 1, 8480
3, 48495, Pitch_bend_c, 1, 8384
3, 48499, Pitch_bend_c, 1, 8320
3, 48511, Pitch_bend_c, 1, 8192
3, 48533, Note_on_c, 1, 36, 0
3, 48540, Note_on_c, 1, 42, 108
3, 48565, Note_on_c, 1, 42, 0
3, 48574, Note_on_c, 1, 34, 106
3, 48588, Note_on_c, 1, 34, 0
3, 48596, Pitch_bend_c, 1, 7072
3, 48596, Note_on_c, 1, 38, 100
3, 48598, Pitch_bend_c, 1, 7232
3, 48600, Pitch_bend_c, 1, 7360
3, 48602, Pitch_bend_c, 1, 7584
3, 48604, Pitch_bend_c, 1, 7776
3, 48606, Pitch_bend_c, 1, 7936
3, 48608, Pitch_bend_c, 1, 8192
3, 48610, Pitch_bend_c, 1, 8416
3, 48612, Pitch_bend_c, 1, 8576
3, 48614, Pitch_bend_c, 1, 8672
3, 48622, Pitch_bend_c, 1, 8608
3, 48624, Pitch_bend_c, 1, 8544
3, 48628, Pitch_bend_c, 1, 8448
3, 48634, Pitch_bend_c, 1, 8384
3, 48638, Pitch_bend_c, 1, 8320
3, 48644, Pitch_bend_c, 1, 8256
3, 48662, Pitch_bend_c, 1, 8192
3, 48704, Note_on_c, 1, 38, 0
3, 48716, Pitch_bend_c, 1, 6784
3, 48716, Note_on_c, 1, 39, 99
3, 48718, Pitch_bend_c, 1, 6976
3, 48720, Pitch_bend_c, 1, 7136
3, 48722, Pitch_bend_c, 1, 7328
3, 48724, Pitch_bend_c, 1, 7680
3, 48726, Pitch_bend_c, 1, 7872
3, 48728, Pitch_bend_c, 1, 8128
3, 48730, Pitch_bend_c, 1, 8352
3, 48732, Pitch_bend_c, 1, 8672
3, 48734, Pitch_bend_c, 1, 8736
3, 48736, Pitch_bend_c, 1, 8800
3, 48742, Pitch_bend_c, 1, 8736
3, 48744, Pitch_bend_c, 1, 8672
3, 48746, Pitch_bend_c, 1, 8608
3, 48748, Pitch_bend_c, 1, 8544
3, 48754, Pitch_bend_c, 1, 8480
3, 48756, Pitch_bend_c, 1, 8416
3, 48760, Pitch_bend_c, 1, 8352
3, 48766, Pitch_bend_c, 1, 8288
3, 48786, Pitch_bend_c, 1, 8192
3, 48829, Note_on_c, 1, 39, 0
3, 48841, Note_on_c, 1, 43, 106
3, 48847, Note_on_c, 1, 43, 0
3, 48899, Note_on_c, 1, 44, 108
3, 48914, Note_on_c, 1, 44, 0
3, 48958, Pitch_bend_c, 1, 6752
3, 48958, Note_on_c, 1, 45, 100
3, 48960, Pitch_bend_c, 1, 7008
3, 48962, Pitch_bend_c, 1, 7296
3, 48964, Pitch_bend_c, 1, 7680
3, 48966, Pitch_bend_c, 1, 8000
3, 48968, Pitch_bend_c, 1, 8352
3, 48970, Pitch_bend_c, 1, 8704
3, 48972, Pitch_bend_c, 1, 8800
3, 48978, Pitch_bend_c, 1, 8736
3, 48980, Pitch_bend_c, 1, 8640
3, 48982, Pitch_bend_c, 1, 8544
3, 48986, Pitch_bend_c, 1, 8480
3, 48992, Pitch_bend_c, 1, 8352
3, 48996, Pitch_bend_c, 1, 8288
3, 49010, Pitch_bend_c, 1, 8192
3, 49042, Note_on_c, 1, 45, 0
3, 49049, Note_on_c, 1, 39, 105
3, 49055, Note_on_c, 1, 39, 0
3, 49074, Pitch_bend_c, 1, 6912
3, 49074, Note_on_c, 1, 46, 100
3, 49076, Pitch_bend_c, 1, 7104
3, 49078, Pitch_bend_c, 1, 7328
3, 49080, Pitch_bend_c, 1, 7488
3, 49082, Pitch_bend_c, 1, 7808
3, 49084, Pitch_bend_c, 1, 8032
3, 49086, Pitch_bend_c, 1, 8320
3, 49088, Pitch_bend_c, 1, 8576
3, 49090, Pitch_bend_c, 1, 8672
3, 49092, Pitch_bend_c, 1, 8736
3, 49098, Pitch_bend_c, 1, 8672
3, 49102, Pitch_bend_c, 1, 8576
3, 49104, Pitch_bend_c, 1, 8512
3, 49108, Pitch_bend_c, 1, 8448
3, 49114, Pitch_bend_c, 1, 8320
3, 49136, Pitch_bend_c, 1, 8192
3, 49175, Note_on_c, 1, 46, 0
3, 49186, Note_on_c, 1, 37, 107
3, 49192, Note_on_c, 1, 37, 0
3, 49194, Pitch_bend_c, 1, 6720
3, 49194, Note_on_c, 1, 45, 102
3, 49196, Pitch_bend_c, 1, 6912
3, 49198, Pitch_bend_c, 1, 7168
3, 49200, Pitch_bend_c, 1, 7520
3, 49202, Pitch_bend_c, 1, 7840
3, 49204, Pitch_bend_c, 1, 8192
3, 49206, Pitch_bend_c, 1, 8640
3, 49208, Pitch_bend_c, 1, 8768
3, 49210, Pitch_bend_c, 1, 8832
3, 49214, Pitch_bend_c, 1, 8768
3, 49216, Pitch_bend_c, 1, 8704
3, 49218, Pitch_bend_c, 1, 8640
3, 49220, Pitch_bend_c, 1, 8544
3, 49224, Pitch_bend_c, 1, 8448
3, 49228, Pitch_bend_c, 1, 8352
3, 49234, Pitch_bend_c, 1, 8288
3, 49248, Pitch_bend_c, 1, 8192
3, 49281, Note_on_c, 1, 45, 0
3, 49288, Note_on_c, 1, 40, 102
3, 49295, Note_on_c, 1, 40, 0
3, 49315, Note_on_c, 1, 37, 114
3, 49358, Note_on_c, 1, 37, 0
3, 49373, Note_on_c, 1, 34, 102
3, 49420, Note_on_c, 1, 34, 0
3, 49434, Pitch_bend_c, 1, 7040
3, 49434, Note_on_c, 1, 33, 92
3, 49436, Pitch_bend_c, 1, 7200
3, 49438, Pitch_bend_c, 1, 7392
3, 49440, Pitch_bend_c, 1, 7680
3, 49442, Pitch_bend_c, 1, 7936
3, 49444, Pitch_bend_c, 1, 8192
3, 49446, Pitch_bend_c, 1, 8544
3, 49448, Pitch_bend_c, 1, 8640
3, 49456, Pitch_bend_c, 1, 8576
3, 49460, Pitch_bend_c, 1, 8480
3, 49464, Pitch_bend_c, 1, 8416
3, 49470, Pitch_bend_c, 1, 8320
3, 49474, Pitch_bend_c, 1, 8256
3, 49490, Pitch_bend_c, 1, 8192
3, 49523, Note_on_c, 1, 33, 0
3, 49552, Note_on_c, 1, 37, 105
3, 49557, Note_on_c, 1, 37, 0
3, 49557, Pitch_bend_c, 1, 6720
3, 49557, Note_on_c, 1, 39, 103
3, 49559, Pitch_bend_c, 1, 6976
3, 49561, Pitch_bend_c, 1, 7264
3, 49563, Pitch_bend_c, 1, 7648
3, 49565, Pitch_bend_c, 1, 8000
3, 49567, Pitch_bend_c, 1, 8352
3, 49569, Pitch_bend_c, 1, 8704
3, 49571, Pitch_bend_c, 1, 8832
3, 49577, Pitch_bend_c, 1, 8768
3, 49579, Pitch_bend_c, 1, 8640
3, 49581, Pitch_bend_c, 1, 8544
3, 49587, Pitch_bend_c, 1, 8448
3, 49591, Pitch_bend_c, 1, 8352
3, 49595, Pitch_bend_c, 1, 8288
3, 49609, Pitch_bend_c, 1, 8192
3, 49642, Note_on_c, 1, 39, 0
3, 49652, Note_on_c, 1, 37, 108
3, 49673, Note_on_c, 1, 37, 0
3, 49675, Pitch_bend_c, 1, 6688
3, 49675, Note_on_c, 1, 38, 103
3, 49677, Pitch_bend_c, 1, 6880
3, 49679, Pitch_bend_c, 1, 7168
3, 49681, Pitch_bend_c, 1, 7520
3, 49683, Pitch_bend_c, 1, 7712
3, 49685, Pitch_bend_c, 1, 8128
3, 49687, Pitch_bend_c, 1, 8512
3, 49689, Pitch_bend_c, 1, 8768
3, 49691, Pitch_bend_c, 1, 8832
3, 49697, Pitch_bend_c, 1, 8768
3, 49699, Pitch_bend_c, 1, 8704
3, 49703, Pitch_bend_c, 1, 8576
3, 49707, Pitch_bend_c, 1, 8512
3, 49709, Pitch_bend_c, 1, 8448
3, 49711, Pitch_bend_c, 1, 8352
3, 49717, Pitch_bend_c, 1, 8288
3, 49733, Pitch_bend_c, 1, 8192
3, 49769, Note_on_c, 1, 38, 0
3, 49780, Note_on_c, 1, 37, 105
3, 49798, Note_on_c, 1, 37, 0
3, 49799, Note_on_c, 1, 52, 102
3, 49856, Note_on_c, 1, 52, 0
3, 49856, Pitch_bend_c, 1, 6816
3, 49856, Note_on_c, 1, 50, 102
3, 49858, Pitch_bend_c, 1, 7136
3, 49860, Pitch_bend_c, 1, 7680
3, 49862, Pitch_bend_c, 1, 8128
3, 49864, Pitch_bend_c, 1, 8672
3, 49866, Pitch_bend_c, 1, 8768
3, 49870, Pitch_bend_c, 1, 8672
3, 49872, Pitch_bend_c, 1, 8544
3, 49874, Pitch_bend_c, 1, 8480
3, 49876, Pitch_bend_c, 1, 8416
3, 49878, Pitch_bend_c, 1, 8352
3, 49882, Pitch_bend_c, 1, 8288
3, 49890, Pitch_bend_c, 1, 8192
3, 49911, Note_on_c, 1, 50, 0
3, 49918, Pitch_bend_c, 1, 6816
3, 49918, Note_on_c, 1, 43, 103
3, 49920, Pitch_bend_c, 1, 7008
3, 49922, Pitch_bend_c, 1, 7136
3, 49924, Pitch_bend_c, 1, 7456
3, 49926, Pitch_bend_c, 1, 7680
3, 49928, Pitch_bend_c, 1, 8032
3, 49930, Pitch_bend_c, 1, 8192
3, 49932, Pitch_bend_c, 1, 8608
3, 49934, Pitch_bend_c, 1, 8736
3, 49944, Pitch_bend_c, 1, 8672
3, 49946, Pitch_bend_c, 1, 8608
3, 49948, Pitch_bend_c, 1, 8544
3, 49952, Pitch_bend_c, 1, 8480
3, 49956, Pitch_bend_c, 1, 8416
3, 49960, Pitch_bend_c, 1, 8352
3, 49964, Pitch_bend_c, 1, 8288
3, 49982, Pitch_bend_c, 1, 8192
3, 50023, Note_on_c, 1, 43, 0
3, 50035, Pitch_bend_c, 1, 4032
3, 50035, Note_on_c, 1, 38, 100
3, 50043, Pitch_bend_c, 1, 4160
3, 50047, Pitch_bend_c, 1, 4448
3, 50049, Pitch_bend_c, 1, 4736
3, 50051, Pitch_bend_c, 1, 5280
3, 50053, Pitch_bend_c, 1, 6112
3, 50055, Pitch_bend_c, 1, 6784
3, 50057, Pitch_bend_c, 1, 7232
3, 50059, Pitch_bend_c, 1, 7680
3, 50061, Pitch_bend_c, 1, 7872
3, 50063, Pitch_bend_c, 1, 7968
3, 50065, Pitch_bend_c, 1, 8096
3, 50081, Pitch_bend_c, 1, 8192
3, 50153, Note_on_c, 1, 38, 0
3, 50153, Pitch_bend_c, 1, 3936
3, 50153, Note_on_c, 1, 31, 99
3, 50161, Pitch_bend_c, 1, 4064
3, 50165, Pitch_bend_c, 1, 4224
3, 50167, Pitch_bend_c, 1, 4448
3, 50169, Pitch_bend_c, 1, 4864
3, 50171, Pitch_bend_c, 1, 5440
3, 50173, Pitch_bend_c, 1, 6336
3, 50175, Pitch_bend_c, 1, 6912
3, 50177, Pitch_bend_c, 1, 7296
3, 50179, Pitch_bend_c, 1, 7616
3, 50181, Pitch_bend_c, 1, 7840
3, 50183, Pitch_bend_c, 1, 7968
3, 50185, Pitch_bend_c, 1, 8064
3, 50203, Pitch_bend_c, 1, 8192
3, 50283, Note_on_c, 1, 31, 0
3, 50283, Pitch_bend_c, 1, 6272
3, 50283, Note_on_c, 1, 38, 101
3, 50285, Pitch_bend_c, 1, 6528
3, 50287, Pitch_bend_c, 1, 6784
3, 50289, Pitch_bend_c, 1, 7136
3, 50291, Pitch_bend_c, 1, 7456
3, 50293, Pitch_bend_c, 1, 7872
3, 50295, Pitch_bend_c, 1, 8192
3, 50297, Pitch_bend_c, 1, 8416
3, 50299, Pitch_bend_c, 1, 8704
3, 50301, Pitch_bend_c, 1, 8896
3, 50311, Pitch_bend_c, 1, 8832
3, 50313, Pitch_bend_c, 1, 8768
3, 50317, Pitch_bend_c, 1, 8704
3, 50321, Pitch_bend_c, 1, 8640
3, 50325, Pitch_bend_c, 1, 8576
3, 50327, Pitch_bend_c, 1, 8480
3, 50333, Pitch_bend_c, 1, 8416
3, 50339, Pitch_bend_c, 1, 8352
3, 50351, Pitch_bend_c, 1, 8288
3, 50353, Pitch_bend_c, 1, 8192
3, 50387, Pitch_bend_c, 1, 8128
3, 50393, Pitch_bend_c, 1, 8032
3, 50397, Note_on_c, 1, 38, 0
3, 50397, Pitch_bend_c, 1, 7968
3, 50397, Pitch_bend_c, 1, 7904
3, 50399, Pitch_bend_c, 1, 7776
3, 50401, Pitch_bend_c, 1, 7584
3, 50403, Pitch_bend_c, 1, 7136
3, 50407, Pitch_bend_c, 1, 6176
3, 50407, Note_on_c, 1, 38, 105
3, 50409, Pitch_bend_c, 1, 6464
3, 50411, Pitch_bend_c, 1, 6688
3, 50413, Pitch_bend_c, 1, 7104
3, 50415, Pitch_bend_c, 1, 7456
3, 50417, Pitch_bend_c, 1, 7712
3, 50419, Pitch_bend_c, 1, 8096
3, 50421, Pitch_bend_c, 1, 8416
3, 50423, Pitch_bend_c, 1, 8608
3, 50425, Pitch_bend_c, 1, 8736
3, 50433, Pitch_bend_c, 1, 8672
3, 50437, Pitch_bend_c, 1, 8608
3, 50439, Pitch_bend_c, 1, 8512
3, 50445, Pitch_bend_c, 1, 8416
3, 50449, Pitch_bend_c, 1, 8352
3, 50455, Pitch_bend_c, 1, 8288
3, 50475, Pitch_bend_c, 1, 8192
3, 50511, Pitch_bend_c, 1, 8128
3, 50515, Pitch_bend_c, 1, 8032
3, 50516, Note_on_c, 1, 38, 0
3, 50517, Pitch_bend_c, 1, 7968
3, 50519, Pitch_bend_c, 1, 7904
3, 50521, Pitch_bend_c, 1, 7744
3, 50523, Pitch_bend_c, 1, 7456
3, 50525, Pitch_bend_c, 1, 7680
3, 50526, Pitch_bend_c, 1, 6432
3, 50526, Note_on_c, 1, 42, 104
3, 50528, Pitch_bend_c, 1, 6752
3, 50530, Pitch_bend_c, 1, 6976
3, 50532, Pitch_bend_c, 1, 7360
3, 50534, Pitch_bend_c, 1, 7648
3, 50536, Pitch_bend_c, 1, 8000
3, 50538, Pitch_bend_c, 1, 8192
3, 50540, Pitch_bend_c, 1, 8608
3, 50542, Pitch_bend_c, 1, 8736
3, 50552, Pitch_bend_c, 1, 8672
3, 50554, Pitch_bend_c, 1, 8608
3, 50556, Pitch_bend_c, 1, 8544
3, 50560, Pitch_bend_c, 1, 8480
3, 50562, Pitch_bend_c, 1, 8416
3, 50566, Pitch_bend_c, 1, 8352
3, 50572, Pitch_bend_c, 1, 8288
3, 50590, Pitch_bend_c, 1, 8192
3, 50630, Note_on_c, 1, 42, 0
3, 50640, Pitch_bend_c, 1, 4352
3, 50640, Note_on_c, 1, 30, 99
3, 50648, Pitch_bend_c, 1, 4480
3, 50650, Pitch_bend_c, 1, 4640
3, 50652, Pitch_bend_c, 1, 4832
3, 50654, Pitch_bend_c, 1, 5504
3, 50656, Pitch_bend_c, 1, 6272
3, 50658, Pitch_bend_c, 1, 7104
3, 50660, Pitch_bend_c, 1, 7424
3, 50662, Pitch_bend_c, 1, 7840
3, 50664, Pitch_bend_c, 1, 8000
3, 50666, Pitch_bend_c, 1, 8128
3, 50680, Pitch_bend_c, 1, 8192
3, 50744, Note_on_c, 1, 30, 0
3, 50744, Note_on_c, 1, 34, 108
3, 50757, Note_on_c, 1, 34, 0
3, 50761, Pitch_bend_c, 1, 6880
3, 50761, Note_on_c, 1, 42, 100
3, 50763, Pitch_bend_c, 1, 7200
3, 50765, Pitch_bend_c, 1, 7712
3, 50767, Pitch_bend_c, 1, 8128
3, 50769, Pitch_bend_c, 1, 8640
3, 50771, Pitch_bend_c, 1, 8768
3, 50775, Pitch_bend_c, 1, 8640
3, 50777, Pitch_bend_c, 1, 8512
3, 50781, Pitch_bend_c, 1, 8416
3, 50783, Pitch_bend_c, 1, 8320
3, 50795, Pitch_bend_c, 1, 8192
3, 50816, Note_on_c, 1, 42, 0
3, 50822, Note_on_c, 1, 38, 100
3, 50881, Note_on_c, 1, 38, 0
3, 50881, Pitch_bend_c, 1, 7136
3, 50881, Note_on_c, 1, 41, 102
3, 50883, Pitch_bend_c, 1, 7264
3, 50885, Pitch_bend_c, 1, 7392
3, 50887, Pitch_bend_c, 1, 7616
3, 50889, Pitch_bend_c, 1, 7808
3, 50891, Pitch_bend_c, 1, 7968
3, 50893, Pitch_bend_c, 1, 8192
3, 50895, Pitch_bend_c, 1, 8416
3, 50897, Pitch_bend_c, 1, 8544
3, 50899, Pitch_bend_c, 1, 8640
3, 50909, Pitch_bend_c, 1, 8544
3, 50913, Pitch_bend_c, 1, 8448
3, 50919, Pitch_bend_c, 1, 8352
3, 50923, Pitch_bend_c, 1, 8288
3, 50949, Pitch_bend_c, 1, 8192
3, 50990, Note_on_c, 1, 41, 0
3, 51002, Pitch_bend_c, 1, 4096
3, 51002, Note_on_c, 1, 38, 103
3, 51010, Pitch_bend_c, 1, 4224
3, 51014, Pitch_bend_c, 1, 4384
3, 51016, Pitch_bend_c, 1, 4608
3, 51018, Pitch_bend_c, 1, 5312
3, 51020, Pitch_bend_c, 1, 6144
3, 51022, Pitch_bend_c, 1, 6784
3, 51024, Pitch_bend_c, 1, 7232
3, 51026, Pitch_bend_c, 1, 7520
3, 51028, Pitch_bend_c, 1, 7808
3, 51030, Pitch_bend_c, 1, 7968
3, 51032, Pitch_bend_c, 1, 8096
3, 51048, Pitch_bend_c, 1, 8192
3, 51122, Note_on_c, 1, 38, 0
3, 51122, Pitch_bend_c, 1, 4000
3, 51122, Note_on_c, 1, 35, 103
3, 51130, Pitch_bend_c, 1, 4128
3, 51134, Pitch_bend_c, 1, 4416
3, 51136, Pitch_bend_c, 1, 4704
3, 51138, Pitch_bend_c, 1, 5248
3, 51140, Pitch_bend_c, 1, 6112
3, 51142, Pitch_bend_c, 1, 6752
3, 51144, Pitch_bend_c, 1, 7232
3, 51146, Pitch_bend_c, 1, 7680
3, 51148, Pitch_bend_c, 1, 7872
3, 51150, Pitch_bend_c, 1, 7968
3, 51152, Pitch_bend_c, 1, 8096
3, 51168, Pitch_bend_c, 1, 8192
3, 51240, Note_on_c, 1, 35, 0
3, 51240, Note_on_c, 1, 31, 108
3, 51285, Note_on_c, 1, 31, 0
3, 51285, Note_on_c, 1, 35, 95
3, 51296, Note_on_c, 1, 35, 0
3, 51296, Pitch_bend_c, 1, 6976
3, 51296, Note_on_c, 1, 44, 90
3, 51298, Pitch_bend_c, 1, 7264
3, 51300, Pitch_bend_c, 1, 7744
3, 51302, Pitch_bend_c, 1, 8128
3, 51304, Pitch_bend_c, 1, 8608
3, 51306, Pitch_bend_c, 1, 8704
3, 51310, Pitch_bend_c, 1, 8608
3, 51312, Pitch_bend_c, 1, 8480
3, 51316, Pitch_bend_c, 1, 8384
3, 51318, Pitch_bend_c, 1, 8320
3, 51332, Pitch_bend_c, 1, 8192
3, 51352, Note_on_c, 1, 44, 0
3, 51358, Pitch_bend_c, 1, 7136
3, 51358, Note_on_c, 1, 43, 78
3, 51360, Pitch_bend_c, 1, 7392
3, 51362, Pitch_bend_c, 1, 7808
3, 51364, Pitch_bend_c, 1, 8192
3, 51366, Pitch_bend_c, 1, 8544
3, 51368, Pitch_bend_c, 1, 8640
3, 51372, Pitch_bend_c, 1, 8544
3, 51374, Pitch_bend_c, 1, 8448
3, 51378, Pitch_bend_c, 1, 8352
3, 51380, Pitch_bend_c, 1, 8288
3, 51392, Pitch_bend_c, 1, 8192
3, 51413, Note_on_c, 1, 43, 0
3, 51419, Pitch_bend_c, 1, 6912
3, 51419, Note_on_c, 1, 50, 100
3, 51421, Pitch_bend_c, 1, 7232
3, 51423, Pitch_bend_c, 1, 7712
3, 51425, Pitch_bend_c, 1, 8128
3, 51427, Pitch_bend_c, 1, 8640
3, 51429, Pitch_bend_c, 1, 8736
3, 51433, Pitch_bend_c, 1, 8640
3, 51435, Pitch_bend_c, 1, 8512
3, 51437, Pitch_bend_c, 1, 8448
3, 51441, Pitch_bend_c, 1, 8320
3, 51453, Pitch_bend_c, 1, 8192
3, 51474, Note_on_c, 1, 50, 0
3, 51479, Pitch_bend_c, 1, 6720
3, 51479, Note_on_c, 1, 48, 102
3, 51481, Pitch_bend_c, 1, 6912
3, 51483, Pitch_bend_c, 1, 7072
3, 51485, Pitch_bend_c, 1, 7392
3, 51487, Pitch_bend_c, 1, 7648
3, 51489, Pitch_bend_c, 1, 8000
3, 51491, Pitch_bend_c, 1, 8192
3, 51493, Pitch_bend_c, 1, 8512
3, 51495, Pitch_bend_c, 1, 8768
3, 51497, Pitch_bend_c, 1, 8832
3, 51505, Pitch_bend_c, 1, 8704
3, 51507, Pitch_bend_c, 1, 8640
3, 51509, Pitch_bend_c, 1, 8544
3, 51517, Pitch_bend_c, 1, 8448
3, 51521, Pitch_bend_c, 1, 8352
3, 51527, Pitch_bend_c, 1, 8288
3, 51545, Pitch_bend_c, 1, 8192
3, 51585, Note_on_c, 1, 48, 0
3, 51597, Pitch_bend_c, 1, 4160
3, 51597, Note_on_c, 1, 43, 103
3, 51605, Pitch_bend_c, 1, 4288
3, 51607, Pitch_bend_c, 1, 4576
3, 51609, Pitch_bend_c, 1, 4864
3, 51611, Pitch_bend_c, 1, 5664
3, 51613, Pitch_bend_c, 1, 6528
3, 51615, Pitch_bend_c, 1, 7264
3, 51617, Pitch_bend_c, 1, 7712
3, 51619, Pitch_bend_c, 1, 7904
3, 51621, Pitch_bend_c, 1, 8064
3, 51623, Pitch_bend_c, 1, 8128
3, 51635, Pitch_bend_c, 1, 8192
3, 51695, Note_on_c, 1, 43, 0
3, 51695, Note_on_c, 1, 39, 104
3, 51705, Note_on_c, 1, 39, 0
3, 51717, Note_on_c, 1, 39, 108
3, 51750, Note_on_c, 1, 39, 0
3, 51776, Note_on_c, 1, 35, 100
3, 51835, Note_on_c, 1, 35, 0
3, 51835, Pitch_bend_c, 1, 6816
3, 51835, Note_on_c, 1, 36, 99
3, 51837, Pitch_bend_c, 1, 7008
3, 51839, Pitch_bend_c, 1, 7136
3, 51841, Pitch_bend_c, 1, 7328
3, 51843, Pitch_bend_c, 1, 7680
3, 51845, Pitch_bend_c, 1, 7872
3, 51847, Pitch_bend_c, 1, 8128
3, 51849, Pitch_bend_c, 1, 8480
3, 51851, Pitch_bend_c, 1, 8672
3, 51853, Pitch_bend_c, 1, 8736
3, 51863, Pitch_bend_c, 1, 8672
3, 51865, Pitch_bend_c, 1, 8608
3, 51867, Pitch_bend_c, 1, 8544
3, 51871, Pitch_bend_c, 1, 8480
3, 51873, Pitch_bend_c, 1, 8416
3, 51879, Pitch_bend_c, 1, 8352
3, 51885, Pitch_bend_c, 1, 8288
3, 51903, Pitch_bend_c, 1, 8192
3, 51945, Note_on_c, 1, 36, 0
3, 51957, Pitch_bend_c, 1, 6816
3, 51957, Note_on_c, 1, 43, 102
3, 51959, Pitch_bend_c, 1, 7008
3, 51961, Pitch_bend_c, 1, 7136
3, 51963, Pitch_bend_c, 1, 7424
3, 51965, Pitch_bend_c, 1, 7680
3, 51967, Pitch_bend_c, 1, 7872
3, 51969, Pitch_bend_c, 1, 8192
3, 51971, Pitch_bend_c, 1, 8480
3, 51973, Pitch_bend_c, 1, 8736
3, 51983, Pitch_bend_c, 1, 8672
3, 51985, Pitch_bend_c, 1, 8608
3, 51989, Pitch_bend_c, 1, 8544
3, 51993, Pitch_bend_c, 1, 8480
3, 51995, Pitch_bend_c, 1, 8416
3, 51999, Pitch_bend_c, 1, 8352
3, 52005, Pitch_bend_c, 1, 8288
3, 52023, Pitch_bend_c, 1, 8192
3, 52064, Note_on_c, 1, 43, 0
3, 52078, Pitch_bend_c, 1, 7008
3, 52078, Note_on_c, 1, 45, 103
3, 52080, Pitch_bend_c, 1, 7168
3, 52082, Pitch_bend_c, 1, 7392
3, 52084, Pitch_bend_c, 1, 7648
3, 52086, Pitch_bend_c, 1, 7936
3, 52088, Pitch_bend_c, 1, 8192
3, 52090, Pitch_bend_c, 1, 8544
3, 52092, Pitch_bend_c, 1, 8640
3, 52094, Pitch_bend_c, 1, 8704
3, 52098, Pitch_bend_c, 1, 8640
3, 52102, Pitch_bend_c, 1, 8544
3, 52104, Pitch_bend_c, 1, 8480
3, 52108, Pitch_bend_c, 1, 8384
3, 52112, Pitch_bend_c, 1, 8320
3, 52116, Pitch_bend_c, 1, 8256
3, 52132, Pitch_bend_c, 1, 8192
3, 52164, Note_on_c, 1, 45, 0
3, 52175, Note_on_c, 1, 37, 104
3, 52188, Note_on_c, 1, 37, 0
3, 52195, Pitch_bend_c, 1, 6912
3, 52195, Note_on_c, 1, 38, 100
3, 52197, Pitch_bend_c, 1, 7104
3, 52199, Pitch_bend_c, 1, 7328
3, 52201, Pitch_bend_c, 1, 7616
3, 52203, Pitch_bend_c, 1, 7808
3, 52205, Pitch_bend_c, 1, 8128
3, 52207, Pitch_bend_c, 1, 8448
3, 52209, Pitch_bend_c, 1, 8640
3, 52211, Pitch_bend_c, 1, 8736
3, 52217, Pitch_bend_c, 1, 8672
3, 52221, Pitch_bend_c, 1, 8576
3, 52223, Pitch_bend_c, 1, 8512
3, 52227, Pitch_bend_c, 1, 8448
3, 52233, Pitch_bend_c, 1, 8320
3, 52255, Pitch_bend_c, 1, 8192
3, 52291, Note_on_c, 1, 38, 0
3, 52301, Note_on_c, 1, 37, 107
3, 52318, Note_on_c, 1, 37, 0
3, 52321, Pitch_bend_c, 1, 6720
3, 52321, Note_on_c, 1, 43, 103
3, 52323, Pitch_bend_c, 1, 6912
3, 52325, Pitch_bend_c, 1, 7072
3, 52327, Pitch_bend_c, 1, 7392
3, 52329, Pitch_bend_c, 1, 7648
3, 52331, Pitch_bend_c, 1, 7840
3, 52333, Pitch_bend_c, 1, 8192
3, 52335, Pitch_bend_c, 1, 8512
3, 52337, Pitch_bend_c, 1, 8768
3, 52339, Pitch_bend_c, 1, 8832
3, 52347, Pitch_bend_c, 1, 8704
3, 52349, Pitch_bend_c, 1, 8640
3, 52353, Pitch_bend_c, 1, 8544
3, 52359, Pitch_bend_c, 1, 8448
3, 52363, Pitch_bend_c, 1, 8352
3, 52369, Pitch_bend_c, 1, 8288
3, 52387, Pitch_bend_c, 1, 8192
3, 52428, Note_on_c, 1, 43, 0
3, 52441, Pitch_bend_c, 1, 4000
3, 52441, Note_on_c, 1, 38, 102
3, 52449, Pitch_bend_c, 1, 4128
3, 52453, Pitch_bend_c, 1, 4288
3, 52455, Pitch_bend_c, 1, 4512
3, 52457, Pitch_bend_c, 1, 4960
3, 52459, Pitch_bend_c, 1, 6112
3, 52461, Pitch_bend_c, 1, 6752
3, 52463, Pitch_bend_c, 1, 7232
3, 52465, Pitch_bend_c, 1, 7520
3, 52467, Pitch_bend_c, 1, 7808
3, 52469, Pitch_bend_c, 1, 7968
3, 52471, Pitch_bend_c, 1, 8032
3, 52473, Pitch_bend_c, 1, 8096
3, 52489, Pitch_bend_c, 1, 8192
3, 52562, Note_on_c, 1, 38, 0
3, 52562, Pitch_bend_c, 1, 4288
3, 52562, Note_on_c, 1, 31, 103
3, 52570, Pitch_bend_c, 1, 4384
3, 52572, Pitch_bend_c, 1, 4448
3, 52574, Pitch_bend_c, 1, 4672
3, 52576, Pitch_bend_c, 1, 4960
3, 52578, Pitch_bend_c, 1, 5440
3, 52580, Pitch_bend_c, 1, 6240
3, 52582, Pitch_bend_c, 1, 7072
3, 52584, Pitch_bend_c, 1, 7424
3, 52586, Pitch_bend_c, 1, 7712
3, 52588, Pitch_bend_c, 1, 7904
3, 52590, Pitch_bend_c, 1, 8000
3, 52592, Pitch_bend_c, 1, 8128
3, 52608, Pitch_bend_c, 1, 8192
3, 52678, Note_on_c, 1, 31, 0
3, 52678, Pitch_bend_c, 1, 6976
3, 52678, Note_on_c, 1, 38, 100
3, 52680, Pitch_bend_c, 1, 7136
3, 52682, Pitch_bend_c, 1, 7264
3, 52684, Pitch_bend_c, 1, 7424
3, 52686, Pitch_bend_c, 1, 7744
3, 52688, Pitch_bend_c, 1, 7904
3, 52690, Pitch_bend_c, 1, 8128
3, 52692, Pitch_bend_c, 1, 8448
3, 52694, Pitch_bend_c, 1, 8608
3, 52696, Pitch_bend_c, 1, 8672
3, 52706, Pitch_bend_c, 1, 8608
3, 52710, Pitch_bend_c, 1, 8480
3, 52718, Pitch_bend_c, 1, 8384
3, 52722, Pitch_bend_c, 1, 8320
3, 52746, Pitch_bend_c, 1, 8192
3, 52789, Note_on_c, 1, 38, 0
3, 52800, Pitch_bend_c, 1, 6816
3, 52800, Note_on_c, 1, 32, 99
3, 52802, Pitch_bend_c, 1, 7136
3, 52804, Pitch_bend_c, 1, 7584
3, 52806, Pitch_bend_c, 1, 8000
3, 52808, Pitch_bend_c, 1, 8608
3, 52810, Pitch_bend_c, 1, 8768
3, 52816, Pitch_bend_c, 1, 8608
3, 52818, Pitch_bend_c, 1, 8544
3, 52820, Pitch_bend_c, 1, 8480
3, 52822, Pitch_bend_c, 1, 8416
3, 52824, Pitch_bend_c, 1, 8352
3, 52828, Pitch_bend_c, 1, 8288
3, 52838, Pitch_bend_c, 1, 8192
3, 52860, Note_on_c, 1, 32, 0
3, 52866, Note_on_c, 1, 48, 99
3, 53024, Note_on_c, 1, 48, 0
3, 53024, Note_on_c, 1, 34, 109
3, 53041, Note_on_c, 1, 34, 0
3, 53044, Pitch_bend_c, 1, 6656
3, 53044, Note_on_c, 1, 38, 103
3, 53046, Pitch_bend_c, 1, 7008
3, 53048, Pitch_bend_c, 1, 7520
3, 53050, Pitch_bend_c, 1, 8000
3, 53052, Pitch_bend_c, 1, 8512
3, 53054, Pitch_bend_c, 1, 8800
3, 53060, Pitch_bend_c, 1, 8672
3, 53062, Pitch_bend_c, 1, 8576
3, 53064, Pitch_bend_c, 1, 8512
3, 53066, Pitch_bend_c, 1, 8448
3, 53068, Pitch_bend_c, 1, 8352
3, 53072, Pitch_bend_c, 1, 8288
3, 53082, Pitch_bend_c, 1, 8192
3, 53106, Note_on_c, 1, 38, 0
3, 53112, Note_on_c, 1, 54, 100
3, 53254, Note_on_c, 1, 54, 0
3, 53254, Note_on_c, 1, 42, 108
3, 53276, Note_on_c, 1, 42, 0
3, 53279, Pitch_bend_c, 1, 6720
3, 53279, Note_on_c, 1, 43, 99
3, 53281, Pitch_bend_c, 1, 6912
3, 53283, Pitch_bend_c, 1, 7072
3, 53285, Pitch_bend_c, 1, 7392
3, 53287, Pitch_bend_c, 1, 7648
3, 53289, Pitch_bend_c, 1, 7840
3, 53291, Pitch_bend_c, 1, 8192
3, 53293, Pitch_bend_c, 1, 8512
3, 53295, Pitch_bend_c, 1, 8704
3, 53297, Pitch_bend_c, 1, 8832
3, 53305, Pitch_bend_c, 1, 8768
3, 53307, Pitch_bend_c, 1, 8640
3, 53311, Pitch_bend_c, 1, 8544
3, 53317, Pitch_bend_c, 1, 8448
3, 53321, Pitch_bend_c, 1, 8352
3, 53327, Pitch_bend_c, 1, 8288
3, 53345, Pitch_bend_c, 1, 8192
3, 53387, Note_on_c, 1, 43, 0
3, 53398, Pitch_bend_c, 1, 4320
3, 53398, Note_on_c, 1, 38, 100
3, 53406, Pitch_bend_c, 1, 4448
3, 53410, Pitch_bend_c, 1, 4576
3, 53412, Pitch_bend_c, 1, 4800
3, 53414, Pitch_bend_c, 1, 5184
3, 53416, Pitch_bend_c, 1, 5760
3, 53418, Pitch_bend_c, 1, 6592
3, 53420, Pitch_bend_c, 1, 7296
3, 53422, Pitch_bend_c, 1, 7584
3, 53424, Pitch_bend_c, 1, 7840
3, 53426, Pitch_bend_c, 1, 8000
3, 53428, Pitch_bend_c, 1, 8064
3, 53430, Pitch_bend_c, 1, 8128
3, 53446, Pitch_bend_c, 1, 8192
3, 53520, Note_on_c, 1, 38, 0
3, 53520, Pitch_bend_c, 1, 4288
3, 53520, Note_on_c, 1, 33, 102
3, 53528, Pitch_bend_c, 1, 4384
3, 53532, Pitch_bend_c, 1, 4672
3, 53534, Pitch_bend_c, 1, 4960
3, 53536, Pitch_bend_c, 1, 5440
3, 53538, Pitch_bend_c, 1, 6240
3, 53540, Pitch_bend_c, 1, 6848
3, 53542, Pitch_bend_c, 1, 7296
3, 53544, Pitch_bend_c, 1, 7712
3, 53546, Pitch_bend_c, 1, 7904
3, 53548, Pitch_bend_c, 1, 8000
3, 53550, Pitch_bend_c, 1, 8128
3, 53566, Pitch_bend_c, 1, 8192
3, 53638, Note_on_c, 1, 33, 0
3, 53638, Pitch_bend_c, 1, 7104
3, 53638, Note_on_c, 1, 38, 103
3, 53640, Pitch_bend_c, 1, 7360
3, 53642, Pitch_bend_c, 1, 7712
3, 53644, Pitch_bend_c, 1, 8064
3, 53646, Pitch_bend_c, 1, 8416
3, 53648, Pitch_bend_c, 1, 8608
3, 53656, Pitch_bend_c, 1, 8448
3, 53660, Pitch_bend_c, 1, 8384
3, 53664, Pitch_bend_c, 1, 8320
3, 53666, Pitch_bend_c, 1, 8256
3, 53678, Pitch_bend_c, 1, 8192
3, 53701, Note_on_c, 1, 38, 0
3, 53760, Note_on_c, 1, 43, 74
3, 53879, Note_on_c, 1, 43, 0
3, 53883, Note_on_c, 1, 38, 68
3, 53980, Note_on_c, 1, 31, 58
3, 53986, Note_on_c, 1, 38, 0
3, 53993, Note_on_c, 1, 31, 0
3, 54001, Note_on_c, 1, 31, 79
3, 54115, Note_on_c, 1, 38, 76
3, 54122, Note_on_c, 1, 31, 0
3, 54179, Note_on_c, 1, 45, 76
3, 54191, Note_on_c, 1, 45, 0
3, 54235, Note_on_c, 1, 38, 0
3, 54239, Note_on_c, 1, 43, 92
3, 54361, Note_on_c, 1, 43, 0
3, 54363, Note_on_c, 1, 38, 64
3, 54480, Note_on_c, 1, 31, 64
3, 54481, Note_on_c, 1, 38, 0
3, 54572, Note_on_c, 1, 31, 0
3, 54574, Note_on_c, 1, 38, 79
3, 54659, Note_on_c, 1, 38, 0
3, 54669, Note_on_c, 1, 38, 61
3, 54734, Note_on_c, 1, 43, 84
3, 54740, Note_on_c, 1, 38, 0
3, 54917, Note_on_c, 1, 31, 66
3, 54921, Note_on_c, 1, 43, 0
3, 55158, Note_on_c, 1, 31, 0
3, 55158, End_track
4, 0, Start_track
4, 0, Note_on_c, 9, 59, 61
4, 0, Note_on_c, 9, 35, 61
4, 0, Note_on_c, 9, 35, 0
4, 9, Note_on_c, 9, 59, 0
4, 60, Note_on_c, 9, 59, 64
4, 67, Note_on_c, 9, 59, 0
4, 67, Note_on_c, 9, 64, 54
4, 77, Note_on_c, 9, 64, 0
4, 91, Note_on_c, 9, 35, 38
4, 98, Note_on_c, 9, 64, 76
4, 111, Note_on_c, 9, 35, 0
4, 112, Note_on_c, 9, 64, 0
4, 120, Note_on_c, 9, 59, 55
4, 128, Note_on_c, 9, 35, 33
4, 129, Note_on_c, 9, 59, 0
4, 142, Note_on_c, 9, 35, 0
4, 150, Note_on_c, 9, 59, 57
4, 159, Note_on_c, 9, 59, 0
4, 161, Note_on_c, 9, 62, 29
4, 166, Note_on_c, 9, 62, 0
4, 185, Note_on_c, 9, 63, 34
4, 193, Note_on_c, 9, 63, 0
4, 210, Note_on_c, 9, 59, 53
4, 211, Note_on_c, 9, 63, 94
4, 218, Note_on_c, 9, 59, 0
4, 221, Note_on_c, 9, 35, 47
4, 228, Note_on_c, 9, 63, 0
4, 230, Note_on_c, 9, 35, 0
4, 249, Note_on_c, 9, 35, 35
4, 259, Note_on_c, 9, 35, 0
4, 270, Note_on_c, 9, 59, 54
4, 279, Note_on_c, 9, 59, 0
4, 298, Note_on_c, 9, 40, 35
4, 300, Note_on_c, 9, 64, 42
4, 306, Note_on_c, 9, 40, 0
4, 316, Note_on_c, 9, 64, 0
4, 329, Note_on_c, 9, 35, 56
4, 330, Note_on_c, 9, 59, 58
4, 330, Note_on_c, 9, 64, 71
4, 332, Note_on_c, 9, 40, 64
4, 336, Note_on_c, 9, 59, 0
4, 338, Note_on_c, 9, 35, 0
4, 344, Note_on_c, 9, 64, 0
4, 344, Note_on_c, 9, 40, 0
4, 359, Note_on_c, 9, 35, 20
4, 370, Note_on_c, 9, 35, 0
4, 390, Note_on_c, 9, 59, 68
4, 406, Note_on_c, 9, 59, 0
4, 414, Note_on_c, 9, 35, 57
4, 416, Note_on_c, 9, 63, 35
4, 420, Note_on_c, 9, 59, 47
4, 424, Note_on_c, 9, 35, 0
4, 426, Note_on_c, 9, 63, 0
4, 427, Note_on_c, 9, 59, 0
4, 443, Note_on_c, 9, 63, 97
4, 461, Note_on_c, 9, 63, 0
4, 471, Note_on_c, 9, 63, 90
4, 478, Note_on_c, 9, 35, 55
4, 480, Note_on_c, 9, 59, 63
4, 488, Note_on_c, 9, 35, 0
4, 489, Note_on_c, 9, 59, 0
4, 492, Note_on_c, 9, 63, 0
4, 540, Note_on_c, 9, 59, 68
4, 540, Note_on_c, 9, 64, 28
4, 548, Note_on_c, 9, 59, 0
4, 560, Note_on_c, 9, 64, 0
4, 571, Note_on_c, 9, 35, 49
4, 573, Note_on_c, 9, 64, 64
4, 581, Note_on_c, 9, 35, 0
4, 594, Note_on_c, 9, 64, 0
4, 600, Note_on_c, 9, 59, 71
4, 601, Note_on_c, 9, 35, 41
4, 611, Note_on_c, 9, 35, 0
4, 611, Note_on_c, 9, 59, 0
4, 668, Note_on_c, 9, 63, 20
4, 678, Note_on_c, 9, 63, 0
4, 690, Note_on_c, 9, 59, 62
4, 695, Note_on_c, 9, 35, 43
4, 696, Note_on_c, 9, 63, 40
4, 699, Note_on_c, 9, 59, 0
4, 706, Note_on_c, 9, 35, 0
4, 710, Note_on_c, 9, 63, 0
4, 719, Note_on_c, 9, 35, 28
4, 720, Note_on_c, 9, 59, 57
4, 731, Note_on_c, 9, 35, 0
4, 737, Note_on_c, 9, 59, 0
4, 750, Note_on_c, 9, 59, 56
4, 760, Note_on_c, 9, 59, 0
4, 774, Note_on_c, 9, 40, 37
4, 781, Note_on_c, 9, 64, 60
4, 782, Note_on_c, 9, 40, 0
4, 787, Note_on_c, 9, 64, 0
4, 808, Note_on_c, 9, 35, 58
4, 810, Note_on_c, 9, 59, 66
4, 814, Note_on_c, 9, 40, 25
4, 815, Note_on_c, 9, 62, 64
4, 817, Note_on_c, 9, 35, 0
4, 819, Note_on_c, 9, 64, 90
4, 820, Note_on_c, 9, 40, 0
4, 822, Note_on_c, 9, 59, 0
4, 824, Note_on_c, 9, 62, 0
4, 837, Note_on_c, 9, 64, 0
4, 856, Note_on_c, 9, 62, 41
4, 860, Note_on_c, 9, 62, 0
4, 863, Note_on_c, 9, 64, 76
4, 870, Note_on_c, 9, 59, 58
4, 877, Note_on_c, 9, 59, 0
4, 878, Note_on_c, 9, 64, 0
4, 898, Note_on_c, 9, 62, 53
4, 900, Note_on_c, 9, 59, 63
4, 902, Note_on_c, 9, 62, 0
4, 907, Note_on_c, 9, 64, 74
4, 918, Note_on_c, 9, 59, 0
4, 920, Note_on_c, 9, 64, 0
4, 927, Note_on_c, 9, 35, 58
4, 932, Note_on_c, 9, 34, 67
4, 937, Note_on_c, 9, 35, 0
4, 947, Note_on_c, 9, 34, 0
4, 948, Note_on_c, 9, 64, 70
4, 956, Note_on_c, 9, 35, 45
4, 958, Note_on_c, 9, 64, 0
4, 960, Note_on_c, 9, 59, 61
4, 968, Note_on_c, 9, 59, 0
4, 968, Note_on_c, 9, 35, 0
4, 970, Note_on_c, 9, 40, 26
4, 985, Note_on_c, 9, 40, 0
4, 1020, Note_on_c, 9, 59, 61
4, 1022, Note_on_c, 9, 63, 42
4, 1027, Note_on_c, 9, 63, 0
4, 1031, Note_on_c, 9, 59, 0
4, 1052, Note_on_c, 9, 35, 56
4, 1052, Note_on_c, 9, 63, 90
4, 1067, Note_on_c, 9, 35, 0
4, 1070, Note_on_c, 9, 63, 0
4, 1080, Note_on_c, 9, 53, 36
4, 1081, Note_on_c, 9, 35, 26
4, 1088, Note_on_c, 9, 53, 0
4, 1093, Note_on_c, 9, 35, 0
4, 1110, Note_on_c, 9, 59, 61
4, 1120, Note_on_c, 9, 59, 0
4, 1137, Note_on_c, 9, 64, 33
4, 1149, Note_on_c, 9, 64, 0
4, 1170, Note_on_c, 9, 59, 64
4, 1170, Note_on_c, 9, 64, 48
4, 1175, Note_on_c, 9, 35, 60
4, 1179, Note_on_c, 9, 59, 0
4, 1181, Note_on_c, 9, 64, 0
4, 1184, Note_on_c, 9, 35, 0
4, 1198, Note_on_c, 9, 35, 31
4, 1210, Note_on_c, 9, 35, 0
4, 1229, Note_on_c, 9, 62, 48
4, 1230, Note_on_c, 9, 59, 60
4, 1236, Note_on_c, 9, 63, 31
4, 1240, Note_on_c, 9, 59, 0
4, 1246, Note_on_c, 9, 62, 0
4, 1252, Note_on_c, 9, 63, 0
4, 1279, Note_on_c, 9, 63, 65
4, 1284, Note_on_c, 9, 62, 54
4, 1289, Note_on_c, 9, 62, 0
4, 1290, Note_on_c, 9, 59, 56
4, 1290, Note_on_c, 9, 35, 57
4, 1291, Note_on_c, 9, 63, 0
4, 1295, Note_on_c, 9, 40, 35
4, 1299, Note_on_c, 9, 59, 0
4, 1301, Note_on_c, 9, 35, 0
4, 1303, Note_on_c, 9, 40, 0
4, 1320, Note_on_c, 9, 59, 57
4, 1320, Note_on_c, 9, 35, 26
4, 1323, Note_on_c, 9, 63, 59
4, 1328, Note_on_c, 9, 62, 37
4, 1331, Note_on_c, 9, 35, 0
4, 1332, Note_on_c, 9, 62, 0
4, 1339, Note_on_c, 9, 63, 0
4, 1340, Note_on_c, 9, 59, 0
4, 1357, Note_on_c, 9, 34, 28
4, 1363, Note_on_c, 9, 34, 0
4, 1380, Note_on_c, 9, 59, 66
4, 1383, Note_on_c, 9, 64, 43
4, 1388, Note_on_c, 9, 59, 0
4, 1390, Note_on_c, 9, 64, 0
4, 1410, Note_on_c, 9, 59, 66
4, 1411, Note_on_c, 9, 35, 58
4, 1412, Note_on_c, 9, 64, 79
4, 1414, Note_on_c, 9, 34, 76
4, 1426, Note_on_c, 9, 35, 0
4, 1430, Note_on_c, 9, 59, 0
4, 1431, Note_on_c, 9, 34, 0
4, 1435, Note_on_c, 9, 35, 20
4, 1439, Note_on_c, 9, 64, 0
4, 1455, Note_on_c, 9, 35, 0
4, 1457, Note_on_c, 9, 40, 25
4, 1468, Note_on_c, 9, 40, 0
4, 1470, Note_on_c, 9, 53, 68
4, 1478, Note_on_c, 9, 53, 0
4, 1499, Note_on_c, 9, 63, 40
4, 1500, Note_on_c, 9, 59, 37
4, 1501, Note_on_c, 9, 40, 39
4, 1513, Note_on_c, 9, 40, 0
4, 1513, Note_on_c, 9, 59, 0
4, 1513, Note_on_c, 9, 63, 0
4, 1528, Note_on_c, 9, 63, 88
4, 1533, Note_on_c, 9, 40, 41
4, 1536, Note_on_c, 9, 35, 58
4, 1543, Note_on_c, 9, 40, 0
4, 1556, Note_on_c, 9, 63, 0
4, 1560, Note_on_c, 9, 59, 68
4, 1576, Note_on_c, 9, 59, 0
4, 1576, Note_on_c, 9, 35, 0
4, 1597, Note_on_c, 9, 62, 30
4, 1601, Note_on_c, 9, 62, 0
4, 1620, Note_on_c, 9, 59, 61
4, 1626, Note_on_c, 9, 64, 18
4, 1629, Note_on_c, 9, 59, 0
4, 1632, Note_on_c, 9, 64, 0
4, 1651, Note_on_c, 9, 64, 76
4, 1654, Note_on_c, 9, 35, 59
4, 1680, Note_on_c, 9, 59, 67
4, 1693, Note_on_c, 9, 35, 0
4, 1699, Note_on_c, 9, 59, 0
4, 1700, Note_on_c, 9, 64, 0
4, 1710, Note_on_c, 9, 59, 52
4, 1717, Note_on_c, 9, 59, 0
4, 1738, Note_on_c, 9, 62, 24
4, 1740, Note_on_c, 9, 63, 45
4, 1753, Note_on_c, 9, 62, 0
4, 1754, Note_on_c, 9, 63, 0
4, 1769, Note_on_c, 9, 35, 66
4, 1770, Note_on_c, 9, 59, 74
4, 1775, Note_on_c, 9, 63, 77
4, 1778, Note_on_c, 9, 62, 65
4, 1788, Note_on_c, 9, 35, 0
4, 1789, Note_on_c, 9, 59, 0
4, 1793, Note_on_c, 9, 62, 0
4, 1805, Note_on_c, 9, 63, 0
4, 1805, Note_on_c, 9, 35, 40
4, 1826, Note_on_c, 9, 35, 0
4, 1828, Note_on_c, 9, 32, 48
4, 1830, Note_on_c, 9, 59, 74
4, 1832, Note_on_c, 9, 64, 57
4, 1844, Note_on_c, 9, 64, 0
4, 1846, Note_on_c, 9, 59, 0
4, 1856, Note_on_c, 9, 32, 0
4, 1860, Note_on_c, 9, 34, 42
4, 1861, Note_on_c, 9, 64, 52
4, 1862, Note_on_c, 9, 35, 57
4, 1869, Note_on_c, 9, 34, 0
4, 1875, Note_on_c, 9, 35, 0
4, 1877, Note_on_c, 9, 64, 0
4, 1887, Note_on_c, 9, 34, 59
4, 1890, Note_on_c, 9, 59, 75
4, 1904, Note_on_c, 9, 34, 0
4, 1908, Note_on_c, 9, 59, 0
4, 1917, Note_on_c, 9, 35, 66
4, 1919, Note_on_c, 9, 57, 59
4, 1920, Note_on_c, 9, 35, 0
4, 1920, Note_on_c, 9, 59, 62
4, 1920, Note_on_c, 9, 35, 61
4, 1928, Note_on_c, 9, 59, 0
4, 1929, Note_on_c, 9, 57, 0
4, 1931, Note_on_c, 9, 35, 0
4, 1950, Note_on_c, 9, 53, 64
4, 1959, Note_on_c, 9, 53, 0
4, 1980, Note_on_c, 9, 59, 63
4, 2005, Note_on_c, 9, 62, 66
4, 2006, Note_on_c, 9, 63, 73
4, 2007, Note_on_c, 9, 59, 0
4, 2011, Note_on_c, 9, 35, 38
4, 2013, Note_on_c, 9, 62, 0
4, 2019, Note_on_c, 9, 63, 0
4, 2031, Note_on_c, 9, 35, 0
4, 2037, Note_on_c, 9, 63, 56
4, 2040, Note_on_c, 9, 59, 71
4, 2048, Note_on_c, 9, 35, 33
4, 2055, Note_on_c, 9, 63, 0
4, 2056, Note_on_c, 9, 59, 0
4, 2062, Note_on_c, 9, 35, 0
4, 2098, Note_on_c, 9, 64, 38
4, 2100, Note_on_c, 9, 59, 72
4, 2111, Note_on_c, 9, 59, 0
4, 2118, Note_on_c, 9, 64, 0
4, 2129, Note_on_c, 9, 64, 68
4, 2141, Note_on_c, 9, 35, 47
4, 2150, Note_on_c, 9, 35, 0
4, 2153, Note_on_c, 9, 64, 0
4, 2160, Note_on_c, 9, 59, 68
4, 2169, Note_on_c, 9, 35, 35
4, 2171, Note_on_c, 9, 59, 0
4, 2179, Note_on_c, 9, 35, 0
4, 2190, Note_on_c, 9, 59, 67
4, 2199, Note_on_c, 9, 59, 0
4, 2249, Note_on_c, 9, 35, 56
4, 2252, Note_on_c, 9, 62, 34
4, 2257, Note_on_c, 9, 62, 0
4, 2258, Note_on_c, 9, 35, 0
4, 2279, Note_on_c, 9, 35, 20
4, 2280, Note_on_c, 9, 63, 45
4, 2289, Note_on_c, 9, 63, 0
4, 2290, Note_on_c, 9, 35, 0
4, 2309, Note_on_c, 9, 63, 67
4, 2310, Note_on_c, 9, 59, 67
4, 2322, Note_on_c, 9, 63, 0
4, 2327, Note_on_c, 9, 59, 0
4, 2334, Note_on_c, 9, 35, 57
4, 2340, Note_on_c, 9, 59, 66
4, 2344, Note_on_c, 9, 35, 0
4, 2356, Note_on_c, 9, 59, 0
4, 2398, Note_on_c, 9, 35, 55
4, 2400, Note_on_c, 9, 59, 77
4, 2408, Note_on_c, 9, 35, 0
4, 2409, Note_on_c, 9, 59, 0
4, 2461, Note_on_c, 9, 64, 51
4, 2472, Note_on_c, 9, 64, 0
4, 2490, Note_on_c, 9, 59, 64
4, 2491, Note_on_c, 9, 35, 49
4, 2491, Note_on_c, 9, 64, 72
4, 2500, Note_on_c, 9, 59, 0
4, 2501, Note_on_c, 9, 35, 0
4, 2502, Note_on_c, 9, 64, 0
4, 2520, Note_on_c, 9, 59, 57
4, 2521, Note_on_c, 9, 35, 41
4, 2527, Note_on_c, 9, 59, 0
4, 2531, Note_on_c, 9, 35, 0
4, 2550, Note_on_c, 9, 59, 62
4, 2562, Note_on_c, 9, 59, 0
4, 2580, Note_on_c, 9, 63, 52
4, 2581, Note_on_c, 9, 62, 26
4, 2595, Note_on_c, 9, 62, 0
4, 2596, Note_on_c, 9, 63, 0
4, 2610, Note_on_c, 9, 59, 72
4, 2615, Note_on_c, 9, 35, 43
4, 2615, Note_on_c, 9, 63, 64
4, 2616, Note_on_c, 9, 62, 54
4, 2618, Note_on_c, 9, 59, 0
4, 2624, Note_on_c, 9, 62, 0
4, 2626, Note_on_c, 9, 35, 0
4, 2633, Note_on_c, 9, 63, 0
4, 2637, Note_on_c, 9, 40, 24
4, 2639, Note_on_c, 9, 35, 28
4, 2651, Note_on_c, 9, 35, 0
4, 2657, Note_on_c, 9, 40, 0
4, 2670, Note_on_c, 9, 59, 75
4, 2681, Note_on_c, 9, 59, 0
4, 2697, Note_on_c, 9, 40, 45
4, 2700, Note_on_c, 9, 64, 31
4, 2704, Note_on_c, 9, 40, 0
4, 2716, Note_on_c, 9, 64, 0
4, 2728, Note_on_c, 9, 35, 58
4, 2730, Note_on_c, 9, 59, 57
4, 2730, Note_on_c, 9, 64, 68
4, 2737, Note_on_c, 9, 59, 0
4, 2737, Note_on_c, 9, 35, 0
4, 2760, Note_on_c, 9, 59, 63
4, 2765, Note_on_c, 9, 64, 0
4, 2780, Note_on_c, 9, 59, 0
4, 2793, Note_on_c, 9, 40, 55
4, 2800, Note_on_c, 9, 40, 0
4, 2820, Note_on_c, 9, 59, 50
4, 2826, Note_on_c, 9, 63, 25
4, 2829, Note_on_c, 9, 59, 0
4, 2831, Note_on_c, 9, 63, 0
4, 2847, Note_on_c, 9, 35, 58
4, 2850, Note_on_c, 9, 59, 60
4, 2853, Note_on_c, 9, 63, 78
4, 2854, Note_on_c, 9, 62, 48
4, 2857, Note_on_c, 9, 35, 0
4, 2864, Note_on_c, 9, 59, 0
4, 2865, Note_on_c, 9, 62, 0
4, 2870, Note_on_c, 9, 63, 0
4, 2876, Note_on_c, 9, 35, 45
4, 2879, Note_on_c, 9, 40, 39
4, 2888, Note_on_c, 9, 35, 0
4, 2896, Note_on_c, 9, 40, 0
4, 2910, Note_on_c, 9, 59, 67
4, 2913, Note_on_c, 9, 62, 28
4, 2918, Note_on_c, 9, 62, 0
4, 2923, Note_on_c, 9, 59, 0
4, 2936, Note_on_c, 9, 64, 41
4, 2958, Note_on_c, 9, 64, 0
4, 2969, Note_on_c, 9, 64, 83
4, 2970, Note_on_c, 9, 59, 58
4, 2972, Note_on_c, 9, 35, 56
4, 2973, Note_on_c, 9, 40, 54
4, 2978, Note_on_c, 9, 59, 0
4, 2979, Note_on_c, 9, 40, 0
4, 2987, Note_on_c, 9, 35, 0
4, 2988, Note_on_c, 9, 64, 0
4, 2999, Note_on_c, 9, 64, 87
4, 3000, Note_on_c, 9, 59, 60
4, 3001, Note_on_c, 9, 35, 26
4, 3013, Note_on_c, 9, 35, 0
4, 3020, Note_on_c, 9, 59, 0
4, 3025, Note_on_c, 9, 64, 0
4, 3035, Note_on_c, 9, 35, 28
4, 3041, Note_on_c, 9, 35, 0
4, 3057, Note_on_c, 9, 63, 42
4, 3059, Note_on_c, 9, 40, 44
4, 3060, Note_on_c, 9, 59, 52
4, 3062, Note_on_c, 9, 63, 0
4, 3068, Note_on_c, 9, 59, 0
4, 3068, Note_on_c, 9, 40, 0
4, 3089, Note_on_c, 9, 63, 88
4, 3090, Note_on_c, 9, 59, 65
4, 3095, Note_on_c, 9, 35, 60
4, 3095, Note_on_c, 9, 62, 47
4, 3099, Note_on_c, 9, 62, 0
4, 3104, Note_on_c, 9, 35, 0
4, 3109, Note_on_c, 9, 59, 0
4, 3110, Note_on_c, 9, 63, 0
4, 3118, Note_on_c, 9, 35, 31
4, 3130, Note_on_c, 9, 35, 0
4, 3150, Note_on_c, 9, 59, 62
4, 3151, Note_on_c, 9, 40, 34
4, 3158, Note_on_c, 9, 59, 0
4, 3161, Note_on_c, 9, 40, 0
4, 3180, Note_on_c, 9, 59, 64
4, 3183, Note_on_c, 9, 64, 34
4, 3197, Note_on_c, 9, 64, 0
4, 3198, Note_on_c, 9, 59, 0
4, 3210, Note_on_c, 9, 35, 57
4, 3215, Note_on_c, 9, 64, 57
4, 3221, Note_on_c, 9, 35, 0
4, 3240, Note_on_c, 9, 64, 0
4, 3240, Note_on_c, 9, 35, 26
4, 3243, Note_on_c, 9, 40, 54
4, 3251, Note_on_c, 9, 35, 0
4, 3256, Note_on_c, 9, 40, 0
4, 3270, Note_on_c, 9, 59, 42
4, 3278, Note_on_c, 9, 59, 0
4, 3300, Note_on_c, 9, 59, 58
4, 3300, Note_on_c, 9, 63, 45
4, 3301, Note_on_c, 9, 62, 36
4, 3307, Note_on_c, 9, 62, 0
4, 3310, Note_on_c, 9, 59, 0
4, 3312, Note_on_c, 9, 63, 0
4, 3331, Note_on_c, 9, 35, 58
4, 3335, Note_on_c, 9, 40, 37
4, 3336, Note_on_c, 9, 63, 74
4, 3337, Note_on_c, 9, 62, 64
4, 3343, Note_on_c, 9, 40, 0
4, 3346, Note_on_c, 9, 35, 0
4, 3353, Note_on_c, 9, 63, 0
4, 3353, Note_on_c, 9, 62, 0
4, 3355, Note_on_c, 9, 35, 20
4, 3360, Note_on_c, 9, 59, 74
4, 3375, Note_on_c, 9, 35, 0
4, 3376, Note_on_c, 9, 59, 0
4, 3380, Note_on_c, 9, 63, 69
4, 3388, Note_on_c, 9, 62, 53
4, 3390, Note_on_c, 9, 59, 68
4, 3393, Note_on_c, 9, 63, 0
4, 3395, Note_on_c, 9, 62, 0
4, 3397, Note_on_c, 9, 59, 0
4, 3422, Note_on_c, 9, 40, 52
4, 3431, Note_on_c, 9, 63, 62
4, 3432, Note_on_c, 9, 62, 65
4, 3441, Note_on_c, 9, 40, 0
4, 3443, Note_on_c, 9, 62, 0
4, 3444, Note_on_c, 9, 63, 0
4, 3450, Note_on_c, 9, 59, 65
4, 3456, Note_on_c, 9, 35, 58
4, 3457, Note_on_c, 9, 59, 0
4, 3477, Note_on_c, 9, 63, 48
4, 3480, Note_on_c, 9, 59, 64
4, 3480, Note_on_c, 9, 62, 50
4, 3489, Note_on_c, 9, 62, 0
4, 3492, Note_on_c, 9, 63, 0
4, 3496, Note_on_c, 9, 35, 0
4, 3499, Note_on_c, 9, 59, 0
4, 3520, Note_on_c, 9, 40, 40
4, 3524, Note_on_c, 9, 63, 55
4, 3528, Note_on_c, 9, 40, 0
4, 3528, Note_on_c, 9, 62, 50
4, 3533, Note_on_c, 9, 62, 0
4, 3535, Note_on_c, 9, 63, 0
4, 3540, Note_on_c, 9, 53, 57
4, 3548, Note_on_c, 9, 53, 0
4, 3567, Note_on_c, 9, 63, 53
4, 3570, Note_on_c, 9, 59, 70
4, 3573, Note_on_c, 9, 35, 38
4, 3574, Note_on_c, 9, 35, 59
4, 3581, Note_on_c, 9, 63, 0
4, 3582, Note_on_c, 9, 35, 0
4, 3586, Note_on_c, 9, 59, 0
4, 3606, Note_on_c, 9, 46, 69
4, 3609, Note_on_c, 9, 40, 60
4, 3613, Note_on_c, 9, 35, 0
4, 3628, Note_on_c, 9, 46, 0
4, 3630, Note_on_c, 9, 59, 77
4, 3631, Note_on_c, 9, 40, 0
4, 3647, Note_on_c, 9, 59, 0
4, 3658, Note_on_c, 9, 63, 43
4, 3666, Note_on_c, 9, 63, 0
4, 3688, Note_on_c, 9, 63, 69
4, 3689, Note_on_c, 9, 35, 66
4, 3690, Note_on_c, 9, 53, 66
4, 3690, Note_on_c, 9, 62, 48
4, 3695, Note_on_c, 9, 62, 0
4, 3697, Note_on_c, 9, 53, 0
4, 3697, Note_on_c, 9, 46, 70
4, 3701, Note_on_c, 9, 63, 0
4, 3701, Note_on_c, 9, 40, 53
4, 3708, Note_on_c, 9, 35, 0
4, 3714, Note_on_c, 9, 46, 0
4, 3715, Note_on_c, 9, 40, 0
4, 3720, Note_on_c, 9, 59, 63
4, 3725, Note_on_c, 9, 35, 40
4, 3743, Note_on_c, 9, 63, 52
4, 3745, Note_on_c, 9, 59, 0
4, 3745, Note_on_c, 9, 62, 47
4, 3746, Note_on_c, 9, 35, 0
4, 3750, Note_on_c, 9, 62, 0
4, 3750, Note_on_c, 9, 53, 70
4, 3752, Note_on_c, 9, 34, 52
4, 3757, Note_on_c, 9, 53, 0
4, 3758, Note_on_c, 9, 63, 0
4, 3765, Note_on_c, 9, 34, 0
4, 3775, Note_on_c, 9, 64, 32
4, 3780, Note_on_c, 9, 59, 67
4, 3782, Note_on_c, 9, 35, 57
4, 3782, Note_on_c, 9, 40, 63
4, 3786, Note_on_c, 9, 64, 0
4, 3795, Note_on_c, 9, 35, 0
4, 3803, Note_on_c, 9, 40, 0
4, 3807, Note_on_c, 9, 64, 71
4, 3811, Note_on_c, 9, 34, 77
4, 3817, Note_on_c, 9, 64, 0
4, 3820, Note_on_c, 9, 59, 0
4, 3826, Note_on_c, 9, 34, 0
4, 3838, Note_on_c, 9, 35, 80
4, 3840, Note_on_c, 9, 35, 0
4, 3840, Note_on_c, 9, 59, 66
4, 3840, Note_on_c, 9, 35, 61
4, 3840, Note_on_c, 9, 64, 89
4, 3848, Note_on_c, 9, 46, 33
4, 3848, Note_on_c, 9, 46, 0
4, 3857, Note_on_c, 9, 59, 0
4, 3868, Note_on_c, 9, 64, 0
4, 3868, Note_on_c, 9, 35, 0
4, 3900, Note_on_c, 9, 59, 68
4, 3911, Note_on_c, 9, 59, 0
4, 3931, Note_on_c, 9, 35, 38
4, 3933, Note_on_c, 9, 62, 62
4, 3941, Note_on_c, 9, 62, 0
4, 3951, Note_on_c, 9, 35, 0
4, 3960, Note_on_c, 9, 59, 71
4, 3968, Note_on_c, 9, 35, 33
4, 3982, Note_on_c, 9, 35, 0
4, 3994, Note_on_c, 9, 34, 55
4, 3996, Note_on_c, 9, 62, 32
4, 4001, Note_on_c, 9, 62, 0
4, 4002, Note_on_c, 9, 59, 0
4, 4008, Note_on_c, 9, 34, 0
4, 4022, Note_on_c, 9, 63, 50
4, 4025, Note_on_c, 9, 46, 64
4, 4025, Note_on_c, 9, 40, 80
4, 4027, Note_on_c, 9, 35, 82
4, 4031, Note_on_c, 9, 63, 0
4, 4038, Note_on_c, 9, 46, 0
4, 4050, Note_on_c, 9, 59, 60
4, 4053, Note_on_c, 9, 63, 92
4, 4054, Note_on_c, 9, 35, 0
4, 4057, Note_on_c, 9, 40, 0
4, 4058, Note_on_c, 9, 59, 0
4, 4061, Note_on_c, 9, 35, 47
4, 4070, Note_on_c, 9, 35, 0
4, 4081, Note_on_c, 9, 63, 0
4, 4089, Note_on_c, 9, 35, 35
4, 4099, Note_on_c, 9, 35, 0
4, 4110, Note_on_c, 9, 59, 63
4, 4118, Note_on_c, 9, 59, 0
4, 4139, Note_on_c, 9, 64, 31
4, 4151, Note_on_c, 9, 64, 0
4, 4169, Note_on_c, 9, 35, 56
4, 4170, Note_on_c, 9, 59, 64
4, 4173, Note_on_c, 9, 64, 87
4, 4178, Note_on_c, 9, 59, 0
4, 4178, Note_on_c, 9, 35, 0
4, 4195, Note_on_c, 9, 64, 0
4, 4199, Note_on_c, 9, 35, 20
4, 4210, Note_on_c, 9, 35, 0
4, 4230, Note_on_c, 9, 59, 54
4, 4237, Note_on_c, 9, 59, 0
4, 4254, Note_on_c, 9, 35, 57
4, 4259, Note_on_c, 9, 63, 29
4, 4260, Note_on_c, 9, 59, 66
4, 4264, Note_on_c, 9, 35, 0
4, 4267, Note_on_c, 9, 63, 0
4, 4277, Note_on_c, 9, 59, 0
4, 4289, Note_on_c, 9, 63, 93
4, 4310, Note_on_c, 9, 63, 0
4, 4318, Note_on_c, 9, 35, 55
4, 4320, Note_on_c, 9, 59, 66
4, 4328, Note_on_c, 9, 59, 0
4, 4328, Note_on_c, 9, 35, 0
4, 4393, Note_on_c, 9, 64, 43
4, 4398, Note_on_c, 9, 64, 0
4, 4410, Note_on_c, 9, 59, 57
4, 4411, Note_on_c, 9, 35, 49
4, 4418, Note_on_c, 9, 59, 0
4, 4421, Note_on_c, 9, 35, 0
4, 4422, Note_on_c, 9, 64, 76
4, 4440, Note_on_c, 9, 64, 0
4, 4440, Note_on_c, 9, 59, 66
4, 4441, Note_on_c, 9, 35, 41
4, 4451, Note_on_c, 9, 35, 0
4, 4458, Note_on_c, 9, 59, 0
4, 4506, Note_on_c, 9, 63, 35
4, 4517, Note_on_c, 9, 63, 0
4, 4530, Note_on_c, 9, 59, 64
4, 4535, Note_on_c, 9, 35, 43
4, 4537, Note_on_c, 9, 63, 92
4, 4538, Note_on_c, 9, 59, 0
4, 4546, Note_on_c, 9, 35, 0
4, 4559, Note_on_c, 9, 35, 28
4, 4560, Note_on_c, 9, 59, 63
4, 4561, Note_on_c, 9, 63, 0
4, 4571, Note_on_c, 9, 35, 0
4, 4580, Note_on_c, 9, 59, 0
4, 4623, Note_on_c, 9, 64, 29
4, 4629, Note_on_c, 9, 64, 0
4, 4648, Note_on_c, 9, 35, 58
4, 4648, Note_on_c, 9, 40, 51
4, 4650, Note_on_c, 9, 59, 65
4, 4654, Note_on_c, 9, 64, 82
4, 4657, Note_on_c, 9, 59, 0
4, 4657, Note_on_c, 9, 35, 0
4, 4657, Note_on_c, 9, 40, 0
4, 4665, Note_on_c, 9, 64, 0
4, 4679, Note_on_c, 9, 40, 28
4, 4680, Note_on_c, 9, 59, 58
4, 4681, Note_on_c, 9, 64, 88
4, 4689, Note_on_c, 9, 40, 0
4, 4695, Note_on_c, 9, 59, 0
4, 4698, Note_on_c, 9, 64, 0
4, 4710, Note_on_c, 9, 59, 63
4, 4714, Note_on_c, 9, 64, 60
4, 4719, Note_on_c, 9, 59, 0
4, 4722, Note_on_c, 9, 64, 0
4, 4767, Note_on_c, 9, 35, 58
4, 4769, Note_on_c, 9, 40, 45
4, 4770, Note_on_c, 9, 59, 71
4, 4773, Note_on_c, 9, 63, 42
4, 4777, Note_on_c, 9, 35, 0
4, 4778, Note_on_c, 9, 40, 0
4, 4778, Note_on_c, 9, 59, 0
4, 4778, Note_on_c, 9, 63, 0
4, 4795, Note_on_c, 9, 40, 38
4, 4796, Note_on_c, 9, 35, 45
4, 4798, Note_on_c, 9, 63, 82
4, 4803, Note_on_c, 9, 40, 0
4, 4808, Note_on_c, 9, 35, 0
4, 4823, Note_on_c, 9, 63, 0
4, 4830, Note_on_c, 9, 59, 68
4, 4839, Note_on_c, 9, 59, 0
4, 4889, Note_on_c, 9, 64, 54
4, 4890, Note_on_c, 9, 59, 60
4, 4892, Note_on_c, 9, 35, 56
4, 4894, Note_on_c, 9, 40, 30
4, 4897, Note_on_c, 9, 59, 0
4, 4902, Note_on_c, 9, 40, 0
4, 4904, Note_on_c, 9, 64, 0
4, 4907, Note_on_c, 9, 35, 0
4, 4916, Note_on_c, 9, 64, 56
4, 4920, Note_on_c, 9, 59, 58
4, 4921, Note_on_c, 9, 35, 26
4, 4930, Note_on_c, 9, 64, 0
4, 4933, Note_on_c, 9, 35, 0
4, 4944, Note_on_c, 9, 59, 0
4, 4980, Note_on_c, 9, 59, 74
4, 4988, Note_on_c, 9, 59, 0
4, 5010, Note_on_c, 9, 63, 50
4, 5015, Note_on_c, 9, 35, 60
4, 5024, Note_on_c, 9, 35, 0
4, 5024, Note_on_c, 9, 63, 0
4, 5038, Note_on_c, 9, 35, 31
4, 5038, Note_on_c, 9, 63, 53
4, 5040, Note_on_c, 9, 59, 72
4, 5050, Note_on_c, 9, 35, 0
4, 5054, Note_on_c, 9, 59, 0
4, 5058, Note_on_c, 9, 63, 0
4, 5100, Note_on_c, 9, 59, 71
4, 5113, Note_on_c, 9, 59, 0
4, 5130, Note_on_c, 9, 35, 57
4, 5135, Note_on_c, 9, 64, 62
4, 5141, Note_on_c, 9, 35, 0
4, 5147, Note_on_c, 9, 64, 0
4, 5160, Note_on_c, 9, 59, 66
4, 5160, Note_on_c, 9, 35, 26
4, 5169, Note_on_c, 9, 59, 0
4, 5171, Note_on_c, 9, 35, 0
4, 5190, Note_on_c, 9, 59, 59
4, 5207, Note_on_c, 9, 59, 0
4, 5220, Note_on_c, 9, 63, 34
4, 5235, Note_on_c, 9, 63, 0
4, 5250, Note_on_c, 9, 59, 71
4, 5251, Note_on_c, 9, 35, 58
4, 5253, Note_on_c, 9, 63, 71
4, 5265, Note_on_c, 9, 59, 0
4, 5266, Note_on_c, 9, 35, 0
4, 5274, Note_on_c, 9, 63, 0
4, 5275, Note_on_c, 9, 35, 20
4, 5295, Note_on_c, 9, 35, 0
4, 5310, Note_on_c, 9, 59, 69
4, 5322, Note_on_c, 9, 59, 0
4, 5339, Note_on_c, 9, 64, 49
4, 5350, Note_on_c, 9, 64, 0
4, 5370, Note_on_c, 9, 59, 68
4, 5372, Note_on_c, 9, 64, 62
4, 5376, Note_on_c, 9, 35, 58
4, 5378, Note_on_c, 9, 59, 0
4, 5383, Note_on_c, 9, 64, 0
4, 5400, Note_on_c, 9, 59, 57
4, 5415, Note_on_c, 9, 59, 0
4, 5416, Note_on_c, 9, 35, 0
4, 5459, Note_on_c, 9, 63, 29
4, 5460, Note_on_c, 9, 59, 66
4, 5473, Note_on_c, 9, 63, 0
4, 5476, Note_on_c, 9, 59, 0
4, 5494, Note_on_c, 9, 35, 59
4, 5498, Note_on_c, 9, 63, 48
4, 5500, Note_on_c, 9, 62, 44
4, 5504, Note_on_c, 9, 62, 0
4, 5516, Note_on_c, 9, 63, 0
4, 5520, Note_on_c, 9, 59, 57
4, 5529, Note_on_c, 9, 59, 0
4, 5533, Note_on_c, 9, 35, 0
4, 5546, Note_on_c, 9, 63, 33
4, 5553, Note_on_c, 9, 62, 45
4, 5558, Note_on_c, 9, 62, 0
4, 5564, Note_on_c, 9, 63, 0
4, 5580, Note_on_c, 9, 59, 68
4, 5596, Note_on_c, 9, 59, 0
4, 5605, Note_on_c, 9, 62, 40
4, 5606, Note_on_c, 9, 63, 35
4, 5609, Note_on_c, 9, 35, 66
4, 5610, Note_on_c, 9, 62, 0
4, 5618, Note_on_c, 9, 63, 0
4, 5628, Note_on_c, 9, 35, 0
4, 5640, Note_on_c, 9, 59, 62
4, 5645, Note_on_c, 9, 35, 40
4, 5650, Note_on_c, 9, 63, 46
4, 5650, Note_on_c, 9, 62, 44
4, 5654, Note_on_c, 9, 59, 0
4, 5659, Note_on_c, 9, 62, 0
4, 5666, Note_on_c, 9, 63, 0
4, 5666, Note_on_c, 9, 35, 0
4, 5692, Note_on_c, 9, 40, 38
4, 5697, Note_on_c, 9, 63, 35
4, 5700, Note_on_c, 9, 59, 63
4, 5701, Note_on_c, 9, 62, 24
4, 5702, Note_on_c, 9, 35, 57
4, 5703, Note_on_c, 9, 40, 0
4, 5706, Note_on_c, 9, 62, 0
4, 5710, Note_on_c, 9, 59, 0
4, 5711, Note_on_c, 9, 63, 0
4, 5715, Note_on_c, 9, 35, 0
4, 5720, Note_on_c, 9, 34, 57
4, 5732, Note_on_c, 9, 34, 0
4, 5736, Note_on_c, 9, 63, 52
4, 5739, Note_on_c, 9, 62, 32
4, 5743, Note_on_c, 9, 62, 0
4, 5750, Note_on_c, 9, 63, 0
4, 5752, Note_on_c, 9, 46, 60
4, 5754, Note_on_c, 9, 40, 64
4, 5760, Note_on_c, 9, 59, 65
4, 5760, Note_on_c, 9, 35, 61
4, 5760, Note_on_c, 9, 35, 0
4, 5765, Note_on_c, 9, 35, 54
4, 5766, Note_on_c, 9, 46, 0
4, 5767, Note_on_c, 9, 59, 0
4, 5769, Note_on_c, 9, 35, 0
4, 5776, Note_on_c, 9, 40, 0
4, 5790, Note_on_c, 9, 59, 60
4, 5806, Note_on_c, 9, 59, 0
4, 5819, Note_on_c, 9, 64, 35
4, 5824, Note_on_c, 9, 64, 0
4, 5850, Note_on_c, 9, 59, 69
4, 5850, Note_on_c, 9, 64, 101
4, 5851, Note_on_c, 9, 35, 38
4, 5862, Note_on_c, 9, 59, 0
4, 5871, Note_on_c, 9, 35, 0
4, 5874, Note_on_c, 9, 64, 0
4, 5888, Note_on_c, 9, 35, 33
4, 5902, Note_on_c, 9, 35, 0
4, 5910, Note_on_c, 9, 59, 64
4, 5914, Note_on_c, 9, 34, 34
4, 5920, Note_on_c, 9, 59, 0
4, 5927, Note_on_c, 9, 34, 0
4, 5943, Note_on_c, 9, 46, 60
4, 5945, Note_on_c, 9, 40, 63
4, 5945, Note_on_c, 9, 35, 66
4, 5957, Note_on_c, 9, 46, 0
4, 5958, Note_on_c, 9, 35, 0
4, 5965, Note_on_c, 9, 63, 90
4, 5970, Note_on_c, 9, 40, 0
4, 5970, Note_on_c, 9, 59, 64
4, 5981, Note_on_c, 9, 35, 47
4, 5983, Note_on_c, 9, 59, 0
4, 5984, Note_on_c, 9, 63, 0
4, 5990, Note_on_c, 9, 35, 0
4, 6000, Note_on_c, 9, 59, 72
4, 6009, Note_on_c, 9, 35, 35
4, 6015, Note_on_c, 9, 59, 0
4, 6019, Note_on_c, 9, 35, 0
4, 6030, Note_on_c, 9, 59, 68
4, 6046, Note_on_c, 9, 59, 0
4, 6063, Note_on_c, 9, 64, 27
4, 6074, Note_on_c, 9, 64, 0
4, 6089, Note_on_c, 9, 35, 56
4, 6090, Note_on_c, 9, 59, 75
4, 6092, Note_on_c, 9, 64, 71
4, 6098, Note_on_c, 9, 35, 0
4, 6103, Note_on_c, 9, 59, 0
4, 6105, Note_on_c, 9, 64, 0
4, 6119, Note_on_c, 9, 35, 20
4, 6130, Note_on_c, 9, 35, 0
4, 6147, Note_on_c, 9, 62, 60
4, 6150, Note_on_c, 9, 59, 73
4, 6152, Note_on_c, 9, 62, 0
4, 6166, Note_on_c, 9, 59, 0
4, 6174, Note_on_c, 9, 35, 57
4, 6179, Note_on_c, 9, 62, 99
4, 6184, Note_on_c, 9, 35, 0
4, 6188, Note_on_c, 9, 62, 0
4, 6209, Note_on_c, 9, 62, 108
4, 6210, Note_on_c, 9, 59, 58
4, 6218, Note_on_c, 9, 59, 0
4, 6219, Note_on_c, 9, 62, 0
4, 6238, Note_on_c, 9, 35, 55
4, 6240, Note_on_c, 9, 59, 55
4, 6248, Note_on_c, 9, 35, 0
4, 6255, Note_on_c, 9, 59, 0
4, 6264, Note_on_c, 9, 62, 24
4, 6269, Note_on_c, 9, 62, 0
4, 6270, Note_on_c, 9, 59, 66
4, 6287, Note_on_c, 9, 59, 0
4, 6297, Note_on_c, 9, 64, 32
4, 6306, Note_on_c, 9, 64, 0
4, 6329, Note_on_c, 9, 64, 92
4, 6330, Note_on_c, 9, 59, 77
4, 6331, Note_on_c, 9, 35, 49
4, 6341, Note_on_c, 9, 35, 0
4, 6346, Note_on_c, 9, 59, 0
4, 6353, Note_on_c, 9, 64, 0
4, 6361, Note_on_c, 9, 35, 41
4, 6371, Note_on_c, 9, 35, 0
4, 6390, Note_on_c, 9, 59, 73
4, 6401, Note_on_c, 9, 59, 0
4, 6420, Note_on_c, 9, 59, 64
4, 6421, Note_on_c, 9, 63, 32
4, 6437, Note_on_c, 9, 63, 0
4, 6439, Note_on_c, 9, 59, 0
4, 6454, Note_on_c, 9, 63, 62
4, 6455, Note_on_c, 9, 35, 43
4, 6466, Note_on_c, 9, 35, 0
4, 6467, Note_on_c, 9, 63, 0
4, 6479, Note_on_c, 9, 35, 28
4, 6480, Note_on_c, 9, 59, 69
4, 6489, Note_on_c, 9, 59, 0
4, 6491, Note_on_c, 9, 35, 0
4, 6510, Note_on_c, 9, 59, 65
4, 6515, Note_on_c, 9, 40, 24
4, 6521, Note_on_c, 9, 40, 0
4, 6526, Note_on_c, 9, 59, 0
4, 6538, Note_on_c, 9, 62, 40
4, 6540, Note_on_c, 9, 64, 74
4, 6546, Note_on_c, 9, 62, 0
4, 6551, Note_on_c, 9, 64, 0
4, 6568, Note_on_c, 9, 35, 58
4, 6570, Note_on_c, 9, 59, 74
4, 6577, Note_on_c, 9, 35, 0
4, 6580, Note_on_c, 9, 59, 0
4, 6580, Note_on_c, 9, 62, 56
4, 6580, Note_on_c, 9, 64, 79
4, 6589, Note_on_c, 9, 62, 0
4, 6596, Note_on_c, 9, 64, 0
4, 6629, Note_on_c, 9, 40, 39
4, 6630, Note_on_c, 9, 59, 55
4, 6635, Note_on_c, 9, 63, 80
4, 6636, Note_on_c, 9, 40, 0
4, 6637, Note_on_c, 9, 59, 0
4, 6638, Note_on_c, 9, 62, 46
4, 6649, Note_on_c, 9, 62, 0
4, 6649, Note_on_c, 9, 63, 0
4, 6660, Note_on_c, 9, 59, 55
4, 6669, Note_on_c, 9, 63, 73
4, 6671, Note_on_c, 9, 62, 60
4, 6678, Note_on_c, 9, 59, 0
4, 6681, Note_on_c, 9, 62, 0
4, 6687, Note_on_c, 9, 35, 58
4, 6688, Note_on_c, 9, 63, 0
4, 6697, Note_on_c, 9, 35, 0
4, 6716, Note_on_c, 9, 35, 45
4, 6720, Note_on_c, 9, 59, 76
4, 6728, Note_on_c, 9, 35, 0
4, 6730, Note_on_c, 9, 59, 0
4, 6780, Note_on_c, 9, 59, 76
4, 6780, Note_on_c, 9, 64, 69
4, 6793, Note_on_c, 9, 59, 0
4, 6797, Note_on_c, 9, 64, 0
4, 6812, Note_on_c, 9, 35, 56
4, 6812, Note_on_c, 9, 64, 84
4, 6821, Note_on_c, 9, 40, 46
4, 6827, Note_on_c, 9, 40, 0
4, 6827, Note_on_c, 9, 35, 0
4, 6835, Note_on_c, 9, 64, 0
4, 6841, Note_on_c, 9, 35, 26
4, 6853, Note_on_c, 9, 35, 0
4, 6870, Note_on_c, 9, 59, 62
4, 6879, Note_on_c, 9, 59, 0
4, 6898, Note_on_c, 9, 63, 62
4, 6900, Note_on_c, 9, 59, 60
4, 6909, Note_on_c, 9, 59, 0
4, 6916, Note_on_c, 9, 63, 0
4, 6930, Note_on_c, 9, 59, 62
4, 6930, Note_on_c, 9, 63, 88
4, 6935, Note_on_c, 9, 35, 60
4, 6940, Note_on_c, 9, 59, 0
4, 6944, Note_on_c, 9, 35, 0
4, 6957, Note_on_c, 9, 63, 0
4, 6958, Note_on_c, 9, 35, 31
4, 6961, Note_on_c, 9, 40, 26
4, 6969, Note_on_c, 9, 40, 0
4, 6970, Note_on_c, 9, 35, 0
4, 6993, Note_on_c, 9, 40, 46
4, 6999, Note_on_c, 9, 40, 0
4, 7016, Note_on_c, 9, 64, 55
4, 7020, Note_on_c, 9, 62, 28
4, 7031, Note_on_c, 9, 62, 0
4, 7031, Note_on_c, 9, 64, 0
4, 7050, Note_on_c, 9, 59, 62
4, 7050, Note_on_c, 9, 35, 57
4, 7058, Note_on_c, 9, 59, 0
4, 7061, Note_on_c, 9, 35, 0
4, 7080, Note_on_c, 9, 59, 62
4, 7080, Note_on_c, 9, 35, 26
4, 7080, Note_on_c, 9, 40, 38
4, 7089, Note_on_c, 9, 59, 0
4, 7091, Note_on_c, 9, 40, 0
4, 7091, Note_on_c, 9, 35, 0
4, 7110, Note_on_c, 9, 59, 60
4, 7115, Note_on_c, 9, 40, 44
4, 7116, Note_on_c, 9, 62, 32
4, 7120, Note_on_c, 9, 62, 0
4, 7121, Note_on_c, 9, 40, 0
4, 7122, Note_on_c, 9, 59, 0
4, 7170, Note_on_c, 9, 59, 76
4, 7171, Note_on_c, 9, 35, 58
4, 7171, Note_on_c, 9, 63, 102
4, 7181, Note_on_c, 9, 59, 0
4, 7186, Note_on_c, 9, 35, 0
4, 7190, Note_on_c, 9, 63, 0
4, 7193, Note_on_c, 9, 40, 42
4, 7195, Note_on_c, 9, 35, 20
4, 7208, Note_on_c, 9, 40, 0
4, 7215, Note_on_c, 9, 35, 0
4, 7227, Note_on_c, 9, 40, 37
4, 7230, Note_on_c, 9, 59, 75
4, 7233, Note_on_c, 9, 40, 0
4, 7238, Note_on_c, 9, 59, 0
4, 7258, Note_on_c, 9, 64, 39
4, 7269, Note_on_c, 9, 64, 0
4, 7281, Note_on_c, 9, 40, 45
4, 7287, Note_on_c, 9, 64, 89
4, 7288, Note_on_c, 9, 40, 0
4, 7290, Note_on_c, 9, 59, 60
4, 7296, Note_on_c, 9, 35, 58
4, 7299, Note_on_c, 9, 59, 0
4, 7309, Note_on_c, 9, 64, 0
4, 7320, Note_on_c, 9, 59, 64
4, 7325, Note_on_c, 9, 40, 31
4, 7326, Note_on_c, 9, 40, 0
4, 7336, Note_on_c, 9, 35, 0
4, 7339, Note_on_c, 9, 59, 0
4, 7342, Note_on_c, 9, 40, 51
4, 7349, Note_on_c, 9, 40, 0
4, 7350, Note_on_c, 9, 53, 65
4, 7358, Note_on_c, 9, 53, 0
4, 7377, Note_on_c, 9, 63, 29
4, 7380, Note_on_c, 9, 40, 53
4, 7387, Note_on_c, 9, 40, 0
4, 7387, Note_on_c, 9, 63, 0
4, 7404, Note_on_c, 9, 63, 90
4, 7410, Note_on_c, 9, 59, 73
4, 7414, Note_on_c, 9, 35, 59
4, 7426, Note_on_c, 9, 63, 0
4, 7428, Note_on_c, 9, 59, 0
4, 7438, Note_on_c, 9, 40, 40
4, 7448, Note_on_c, 9, 40, 0
4, 7453, Note_on_c, 9, 35, 0
4, 7470, Note_on_c, 9, 53, 70
4, 7485, Note_on_c, 9, 53, 0
4, 7497, Note_on_c, 9, 64, 38
4, 7500, Note_on_c, 9, 59, 71
4, 7505, Note_on_c, 9, 64, 0
4, 7524, Note_on_c, 9, 59, 0
4, 7528, Note_on_c, 9, 40, 51
4, 7529, Note_on_c, 9, 35, 66
4, 7529, Note_on_c, 9, 64, 80
4, 7537, Note_on_c, 9, 40, 0
4, 7542, Note_on_c, 9, 64, 0
4, 7548, Note_on_c, 9, 35, 0
4, 7558, Note_on_c, 9, 64, 92
4, 7560, Note_on_c, 9, 59, 74
4, 7565, Note_on_c, 9, 35, 40
4, 7578, Note_on_c, 9, 59, 0
4, 7581, Note_on_c, 9, 64, 0
4, 7586, Note_on_c, 9, 35, 0
4, 7586, Note_on_c, 9, 40, 68
4, 7587, Note_on_c, 9, 62, 42
4, 7591, Note_on_c, 9, 62, 0
4, 7602, Note_on_c, 9, 40, 0
4, 7616, Note_on_c, 9, 34, 48
4, 7620, Note_on_c, 9, 59, 68
4, 7622, Note_on_c, 9, 35, 57
4, 7625, Note_on_c, 9, 34, 0
4, 7633, Note_on_c, 9, 59, 0
4, 7635, Note_on_c, 9, 35, 0
4, 7650, Note_on_c, 9, 63, 86
4, 7650, Note_on_c, 9, 34, 62
4, 7664, Note_on_c, 9, 63, 0
4, 7672, Note_on_c, 9, 34, 0
4, 7680, Note_on_c, 9, 53, 66
4, 7680, Note_on_c, 9, 35, 61
4, 7680, Note_on_c, 9, 35, 0
4, 7684, Note_on_c, 9, 40, 50
4, 7688, Note_on_c, 9, 53, 0
4, 7701, Note_on_c, 9, 40, 0
4, 7710, Note_on_c, 9, 59, 72
4, 7729, Note_on_c, 9, 59, 0
4, 7746, Note_on_c, 9, 64, 12
4, 7754, Note_on_c, 9, 64, 0
4, 7770, Note_on_c, 9, 59, 74
4, 7771, Note_on_c, 9, 35, 38
4, 7775, Note_on_c, 9, 64, 48
4, 7780, Note_on_c, 9, 40, 37
4, 7786, Note_on_c, 9, 64, 0
4, 7787, Note_on_c, 9, 40, 0
4, 7789, Note_on_c, 9, 59, 0
4, 7791, Note_on_c, 9, 35, 0
4, 7808, Note_on_c, 9, 35, 33
4, 7822, Note_on_c, 9, 35, 0
4, 7830, Note_on_c, 9, 59, 61
4, 7832, Note_on_c, 9, 34, 57
4, 7838, Note_on_c, 9, 59, 0
4, 7851, Note_on_c, 9, 34, 0
4, 7860, Note_on_c, 9, 53, 50
4, 7861, Note_on_c, 9, 57, 57
4, 7863, Note_on_c, 9, 40, 64
4, 7868, Note_on_c, 9, 57, 0
4, 7877, Note_on_c, 9, 40, 0
4, 7878, Note_on_c, 9, 53, 0
4, 7896, Note_on_c, 9, 63, 61
4, 7901, Note_on_c, 9, 35, 47
4, 7910, Note_on_c, 9, 35, 0
4, 7914, Note_on_c, 9, 63, 0
4, 7920, Note_on_c, 9, 59, 63
4, 7928, Note_on_c, 9, 59, 0
4, 7929, Note_on_c, 9, 35, 35
4, 7939, Note_on_c, 9, 35, 0
4, 7980, Note_on_c, 9, 59, 74
4, 7988, Note_on_c, 9, 59, 0
4, 7992, Note_on_c, 9, 64, 25
4, 8006, Note_on_c, 9, 64, 0
4, 8009, Note_on_c, 9, 35, 56
4, 8018, Note_on_c, 9, 35, 0
4, 8019, Note_on_c, 9, 64, 46
4, 8034, Note_on_c, 9, 64, 0
4, 8039, Note_on_c, 9, 35, 20
4, 8040, Note_on_c, 9, 59, 68
4, 8050, Note_on_c, 9, 35, 0
4, 8061, Note_on_c, 9, 59, 0
4, 8071, Note_on_c, 9, 40, 37
4, 8078, Note_on_c, 9, 40, 0
4, 8094, Note_on_c, 9, 35, 57
4, 8100, Note_on_c, 9, 53, 68
4, 8104, Note_on_c, 9, 35, 0
4, 8108, Note_on_c, 9, 53, 0
4, 8108, Note_on_c, 9, 63, 20
4, 8125, Note_on_c, 9, 63, 0
4, 8130, Note_on_c, 9, 59, 71
4, 8135, Note_on_c, 9, 63, 39
4, 8137, Note_on_c, 9, 59, 0
4, 8149, Note_on_c, 9, 63, 0
4, 8158, Note_on_c, 9, 35, 55
4, 8168, Note_on_c, 9, 35, 0
4, 8190, Note_on_c, 9, 59, 67
4, 8200, Note_on_c, 9, 59, 0
4, 8222, Note_on_c, 9, 64, 30
4, 8240, Note_on_c, 9, 64, 0
4, 8250, Note_on_c, 9, 59, 57
4, 8251, Note_on_c, 9, 35, 49
4, 8258, Note_on_c, 9, 59, 0
4, 8261, Note_on_c, 9, 35, 0
4, 8264, Note_on_c, 9, 64, 48
4, 8265, Note_on_c, 9, 64, 0
4, 8280, Note_on_c, 9, 59, 60
4, 8281, Note_on_c, 9, 35, 41
4, 8291, Note_on_c, 9, 35, 0
4, 8297, Note_on_c, 9, 59, 0
4, 8310, Note_on_c, 9, 53, 50
4, 8317, Note_on_c, 9, 53, 0
4, 8339, Note_on_c, 9, 63, 28
4, 8340, Note_on_c, 9, 59, 60
4, 8351, Note_on_c, 9, 59, 0
4, 8363, Note_on_c, 9, 63, 0
4, 8370, Note_on_c, 9, 59, 70
4, 8375, Note_on_c, 9, 35, 43
4, 8386, Note_on_c, 9, 35, 0
4, 8388, Note_on_c, 9, 59, 0
4, 8399, Note_on_c, 9, 35, 28
4, 8411, Note_on_c, 9, 35, 0
4, 8430, Note_on_c, 9, 59, 71
4, 8444, Note_on_c, 9, 59, 0
4, 8469, Note_on_c, 9, 65, 23
4, 8476, Note_on_c, 9, 65, 0
4, 8486, Note_on_c, 9, 40, 52
4, 8488, Note_on_c, 9, 35, 58
4, 8490, Note_on_c, 9, 59, 63
4, 8494, Note_on_c, 9, 40, 0
4, 8497, Note_on_c, 9, 35, 0
4, 8498, Note_on_c, 9, 59, 0
4, 8520, Note_on_c, 9, 59, 74
4, 8538, Note_on_c, 9, 59, 0
4, 8555, Note_on_c, 9, 63, 36
4, 8560, Note_on_c, 9, 63, 0
4, 8580, Note_on_c, 9, 59, 78
4, 8582, Note_on_c, 9, 63, 38
4, 8597, Note_on_c, 9, 59, 0
4, 8605, Note_on_c, 9, 63, 0
4, 8607, Note_on_c, 9, 35, 58
4, 8609, Note_on_c, 9, 40, 56
4, 8614, Note_on_c, 9, 63, 49
4, 8616, Note_on_c, 9, 40, 0
4, 8617, Note_on_c, 9, 35, 0
4, 8628, Note_on_c, 9, 63, 0
4, 8636, Note_on_c, 9, 35, 45
4, 8640, Note_on_c, 9, 59, 77
4, 8648, Note_on_c, 9, 35, 0
4, 8653, Note_on_c, 9, 59, 0
4, 8700, Note_on_c, 9, 59, 69
4, 8703, Note_on_c, 9, 64, 23
4, 8713, Note_on_c, 9, 59, 0
4, 8718, Note_on_c, 9, 64, 0
4, 8730, Note_on_c, 9, 64, 38
4, 8732, Note_on_c, 9, 35, 56
4, 8742, Note_on_c, 9, 64, 0
4, 8747, Note_on_c, 9, 35, 0
4, 8760, Note_on_c, 9, 59, 74
4, 8761, Note_on_c, 9, 35, 26
4, 8773, Note_on_c, 9, 35, 0
4, 8777, Note_on_c, 9, 59, 0
4, 8820, Note_on_c, 9, 59, 61
4, 8820, Note_on_c, 9, 63, 25
4, 8829, Note_on_c, 9, 59, 0
4, 8832, Note_on_c, 9, 63, 0
4, 8850, Note_on_c, 9, 59, 72
4, 8854, Note_on_c, 9, 63, 24
4, 8855, Note_on_c, 9, 35, 60
4, 8862, Note_on_c, 9, 63, 0
4, 8864, Note_on_c, 9, 35, 0
4, 8866, Note_on_c, 9, 59, 0
4, 8878, Note_on_c, 9, 35, 31
4, 8890, Note_on_c, 9, 35, 0
4, 8910, Note_on_c, 9, 59, 69
4, 8922, Note_on_c, 9, 59, 0
4, 8970, Note_on_c, 9, 59, 71
4, 8970, Note_on_c, 9, 35, 57
4, 8975, Note_on_c, 9, 64, 39
4, 8981, Note_on_c, 9, 35, 0
4, 8985, Note_on_c, 9, 59, 0
4, 8988, Note_on_c, 9, 64, 0
4, 9000, Note_on_c, 9, 35, 26
4, 9011, Note_on_c, 9, 35, 0
4, 9030, Note_on_c, 9, 59, 73
4, 9039, Note_on_c, 9, 62, 30
4, 9044, Note_on_c, 9, 62, 0
4, 9048, Note_on_c, 9, 59, 0
4, 9048, Note_on_c, 9, 63, 54
4, 9056, Note_on_c, 9, 40, 32
4, 9060, Note_on_c, 9, 63, 0
4, 9060, Note_on_c, 9, 59, 66
4, 9064, Note_on_c, 9, 40, 0
4, 9077, Note_on_c, 9, 59, 0
4, 9089, Note_on_c, 9, 63, 56
4, 9091, Note_on_c, 9, 35, 58
4, 9102, Note_on_c, 9, 63, 0
4, 9106, Note_on_c, 9, 35, 0
4, 9115, Note_on_c, 9, 35, 20
4, 9120, Note_on_c, 9, 59, 75
4, 9125, Note_on_c, 9, 62, 49
4, 9135, Note_on_c, 9, 62, 0
4, 9135, Note_on_c, 9, 59, 0
4, 9135, Note_on_c, 9, 35, 0
4, 9135, Note_on_c, 9, 63, 58
4, 9153, Note_on_c, 9, 63, 0
4, 9174, Note_on_c, 9, 63, 54
4, 9180, Note_on_c, 9, 59, 79
4, 9183, Note_on_c, 9, 63, 0
4, 9195, Note_on_c, 9, 59, 0
4, 9209, Note_on_c, 9, 62, 49
4, 9213, Note_on_c, 9, 62, 0
4, 9215, Note_on_c, 9, 63, 63
4, 9216, Note_on_c, 9, 35, 58
4, 9230, Note_on_c, 9, 63, 0
4, 9240, Note_on_c, 9, 59, 79
4, 9250, Note_on_c, 9, 63, 58
4, 9256, Note_on_c, 9, 59, 0
4, 9256, Note_on_c, 9, 35, 0
4, 9262, Note_on_c, 9, 63, 0
4, 9286, Note_on_c, 9, 62, 47
4, 9291, Note_on_c, 9, 62, 0
4, 9296, Note_on_c, 9, 63, 58
4, 9300, Note_on_c, 9, 59, 77
4, 9313, Note_on_c, 9, 63, 0
4, 9318, Note_on_c, 9, 59, 0
4, 9333, Note_on_c, 9, 63, 56
4, 9334, Note_on_c, 9, 35, 59
4, 9347, Note_on_c, 9, 63, 0
4, 9360, Note_on_c, 9, 59, 80
4, 9373, Note_on_c, 9, 35, 0
4, 9376, Note_on_c, 9, 59, 0
4, 9382, Note_on_c, 9, 62, 44
4, 9385, Note_on_c, 9, 63, 67
4, 9387, Note_on_c, 9, 62, 0
4, 9390, Note_on_c, 9, 59, 68
4, 9404, Note_on_c, 9, 63, 0
4, 9409, Note_on_c, 9, 59, 0
4, 9419, Note_on_c, 9, 63, 56
4, 9420, Note_on_c, 9, 53, 66
4, 9429, Note_on_c, 9, 53, 0
4, 9434, Note_on_c, 9, 63, 0
4, 9449, Note_on_c, 9, 35, 66
4, 9450, Note_on_c, 9, 59, 82
4, 9457, Note_on_c, 9, 62, 41
4, 9461, Note_on_c, 9, 62, 0
4, 9467, Note_on_c, 9, 59, 0
4, 9468, Note_on_c, 9, 35, 0
4, 9470, Note_on_c, 9, 63, 58
4, 9485, Note_on_c, 9, 35, 40
4, 9487, Note_on_c, 9, 63, 0
4, 9505, Note_on_c, 9, 63, 50
4, 9506, Note_on_c, 9, 35, 0
4, 9510, Note_on_c, 9, 59, 75
4, 9520, Note_on_c, 9, 63, 0
4, 9526, Note_on_c, 9, 59, 0
4, 9542, Note_on_c, 9, 35, 57
4, 9555, Note_on_c, 9, 35, 0
4, 9570, Note_on_c, 9, 53, 61
4, 9570, Note_on_c, 9, 62, 54
4, 9571, Note_on_c, 9, 64, 53
4, 9577, Note_on_c, 9, 53, 0
4, 9580, Note_on_c, 9, 64, 0
4, 9586, Note_on_c, 9, 62, 0
4, 9600, Note_on_c, 9, 59, 64
4, 9600, Note_on_c, 9, 35, 61
4, 9600, Note_on_c, 9, 35, 0
4, 9601, Note_on_c, 9, 63, 35
4, 9602, Note_on_c, 9, 69, 45
4, 9606, Note_on_c, 9, 69, 0
4, 9608, Note_on_c, 9, 63, 0
4, 9609, Note_on_c, 9, 57, 42
4, 9610, Note_on_c, 9, 35, 63
4, 9616, Note_on_c, 9, 57, 0
4, 9618, Note_on_c, 9, 59, 0
4, 9623, Note_on_c, 9, 35, 0
4, 9660, Note_on_c, 9, 59, 71
4, 9670, Note_on_c, 9, 59, 0
4, 9691, Note_on_c, 9, 35, 38
4, 9695, Note_on_c, 9, 64, 30
4, 9700, Note_on_c, 9, 64, 0
4, 9711, Note_on_c, 9, 35, 0
4, 9720, Note_on_c, 9, 59, 78
4, 9728, Note_on_c, 9, 35, 33
4, 9738, Note_on_c, 9, 59, 0
4, 9742, Note_on_c, 9, 35, 0
4, 9750, Note_on_c, 9, 59, 66
4, 9758, Note_on_c, 9, 40, 46
4, 9761, Note_on_c, 9, 59, 0
4, 9765, Note_on_c, 9, 40, 0
4, 9776, Note_on_c, 9, 64, 38
4, 9784, Note_on_c, 9, 64, 0
4, 9794, Note_on_c, 9, 35, 60
4, 9794, Note_on_c, 9, 57, 48
4, 9800, Note_on_c, 9, 57, 0
4, 9806, Note_on_c, 9, 35, 0
4, 9807, Note_on_c, 9, 64, 43
4, 9810, Note_on_c, 9, 59, 77
4, 9815, Note_on_c, 9, 64, 0
4, 9821, Note_on_c, 9, 35, 47
4, 9826, Note_on_c, 9, 59, 0
4, 9830, Note_on_c, 9, 35, 0
4, 9849, Note_on_c, 9, 35, 35
4, 9859, Note_on_c, 9, 35, 0
4, 9870, Note_on_c, 9, 59, 72
4, 9884, Note_on_c, 9, 59, 0
4, 9900, Note_on_c, 9, 63, 22
4, 9912, Note_on_c, 9, 63, 0
4, 9929, Note_on_c, 9, 35, 56
4, 9930, Note_on_c, 9, 59, 76
4, 9930, Note_on_c, 9, 63, 44
4, 9938, Note_on_c, 9, 35, 0
4, 9941, Note_on_c, 9, 59, 0
4, 9943, Note_on_c, 9, 63, 0
4, 9959, Note_on_c, 9, 35, 20
4, 9960, Note_on_c, 9, 59, 70
4, 9970, Note_on_c, 9, 35, 0
4, 9977, Note_on_c, 9, 59, 0
4, 10014, Note_on_c, 9, 35, 57
4, 10020, Note_on_c, 9, 59, 80
4, 10020, Note_on_c, 9, 64, 23
4, 10024, Note_on_c, 9, 35, 0
4, 10031, Note_on_c, 9, 64, 0
4, 10033, Note_on_c, 9, 59, 0
4, 10049, Note_on_c, 9, 64, 50
4, 10058, Note_on_c, 9, 40, 46
4, 10061, Note_on_c, 9, 64, 0
4, 10065, Note_on_c, 9, 40, 0
4, 10078, Note_on_c, 9, 35, 55
4, 10080, Note_on_c, 9, 59, 82
4, 10088, Note_on_c, 9, 35, 0
4, 10096, Note_on_c, 9, 59, 0
4, 10170, Note_on_c, 9, 59, 62
4, 10171, Note_on_c, 9, 35, 49
4, 10177, Note_on_c, 9, 59, 0
4, 10181, Note_on_c, 9, 35, 0
4, 10183, Note_on_c, 9, 63, 29
4, 10189, Note_on_c, 9, 63, 0
4, 10200, Note_on_c, 9, 59, 67
4, 10201, Note_on_c, 9, 35, 41
4, 10207, Note_on_c, 9, 63, 23
4, 10211, Note_on_c, 9, 35, 0
4, 10216, Note_on_c, 9, 63, 0
4, 10217, Note_on_c, 9, 59, 0
4, 10290, Note_on_c, 9, 59, 71
4, 10293, Note_on_c, 9, 64, 19
4, 10295, Note_on_c, 9, 35, 43
4, 10299, Note_on_c, 9, 64, 0
4, 10299, Note_on_c, 9, 59, 0
4, 10306, Note_on_c, 9, 35, 0
4, 10319, Note_on_c, 9, 35, 28
4, 10320, Note_on_c, 9, 59, 71
4, 10331, Note_on_c, 9, 35, 0
4, 10336, Note_on_c, 9, 59, 0
4, 10408, Note_on_c, 9, 35, 58
4, 10410, Note_on_c, 9, 59, 70
4, 10417, Note_on_c, 9, 35, 0
4, 10419, Note_on_c, 9, 59, 0
4, 10440, Note_on_c, 9, 59, 74
4, 10445, Note_on_c, 9, 63, 36
4, 10455, Note_on_c, 9, 63, 0
4, 10456, Note_on_c, 9, 59, 0
4, 10467, Note_on_c, 9, 63, 20
4, 10470, Note_on_c, 9, 59, 68
4, 10472, Note_on_c, 9, 63, 0
4, 10481, Note_on_c, 9, 63, 22
4, 10486, Note_on_c, 9, 63, 0
4, 10486, Note_on_c, 9, 59, 0
4, 10500, Note_on_c, 9, 34, 20
4, 10506, Note_on_c, 9, 34, 0
4, 10527, Note_on_c, 9, 35, 58
4, 10529, Note_on_c, 9, 34, 57
4, 10530, Note_on_c, 9, 59, 74
4, 10537, Note_on_c, 9, 35, 0
4, 10541, Note_on_c, 9, 34, 0
4, 10542, Note_on_c, 9, 59, 0
4, 10543, Note_on_c, 9, 63, 44
4, 10555, Note_on_c, 9, 63, 0
4, 10556, Note_on_c, 9, 35, 45
4, 10568, Note_on_c, 9, 35, 0
4, 10568, Note_on_c, 9, 63, 34
4, 10580, Note_on_c, 9, 63, 0
4, 10590, Note_on_c, 9, 59, 58
4, 10597, Note_on_c, 9, 59, 0
4, 10602, Note_on_c, 9, 63, 20
4, 10607, Note_on_c, 9, 63, 0
4, 10620, Note_on_c, 9, 59, 57
4, 10629, Note_on_c, 9, 59, 0
4, 10651, Note_on_c, 9, 64, 49
4, 10652, Note_on_c, 9, 35, 56
4, 10655, Note_on_c, 9, 40, 42
4, 10662, Note_on_c, 9, 40, 0
4, 10665, Note_on_c, 9, 64, 0
4, 10667, Note_on_c, 9, 35, 0
4, 10676, Note_on_c, 9, 64, 43
4, 10680, Note_on_c, 9, 59, 63
4, 10681, Note_on_c, 9, 35, 26
4, 10689, Note_on_c, 9, 59, 0
4, 10690, Note_on_c, 9, 64, 0
4, 10693, Note_on_c, 9, 35, 0
4, 10740, Note_on_c, 9, 59, 56
4, 10747, Note_on_c, 9, 59, 0
4, 10770, Note_on_c, 9, 59, 68
4, 10775, Note_on_c, 9, 35, 60
4, 10781, Note_on_c, 9, 59, 0
4, 10784, Note_on_c, 9, 35, 0
4, 10798, Note_on_c, 9, 35, 31
4, 10810, Note_on_c, 9, 35, 0
4, 10830, Note_on_c, 9, 59, 69
4, 10837, Note_on_c, 9, 59, 0
4, 10889, Note_on_c, 9, 63, 51
4, 10890, Note_on_c, 9, 59, 66
4, 10890, Note_on_c, 9, 35, 57
4, 10899, Note_on_c, 9, 59, 0
4, 10901, Note_on_c, 9, 35, 0
4, 10909, Note_on_c, 9, 63, 0
4, 10920, Note_on_c, 9, 35, 26
4, 10931, Note_on_c, 9, 35, 0
4, 10950, Note_on_c, 9, 59, 72
4, 10965, Note_on_c, 9, 59, 0
4, 10977, Note_on_c, 9, 64, 25
4, 10980, Note_on_c, 9, 59, 73
4, 10983, Note_on_c, 9, 64, 0
4, 10993, Note_on_c, 9, 59, 0
4, 11008, Note_on_c, 9, 64, 65
4, 11011, Note_on_c, 9, 35, 58
4, 11018, Note_on_c, 9, 40, 33
4, 11023, Note_on_c, 9, 64, 0
4, 11026, Note_on_c, 9, 35, 0
4, 11028, Note_on_c, 9, 40, 0
4, 11035, Note_on_c, 9, 35, 20
4, 11036, Note_on_c, 9, 64, 56
4, 11040, Note_on_c, 9, 59, 76
4, 11055, Note_on_c, 9, 35, 0
4, 11056, Note_on_c, 9, 59, 0
4, 11059, Note_on_c, 9, 64, 0
4, 11074, Note_on_c, 9, 63, 24
4, 11078, Note_on_c, 9, 63, 0
4, 11100, Note_on_c, 9, 59, 79
4, 11101, Note_on_c, 9, 63, 16
4, 11112, Note_on_c, 9, 59, 0
4, 11115, Note_on_c, 9, 63, 0
4, 11131, Note_on_c, 9, 63, 56
4, 11132, Note_on_c, 9, 40, 48
4, 11136, Note_on_c, 9, 35, 58
4, 11149, Note_on_c, 9, 40, 0
4, 11160, Note_on_c, 9, 63, 0
4, 11160, Note_on_c, 9, 59, 77
4, 11165, Note_on_c, 9, 40, 36
4, 11172, Note_on_c, 9, 40, 0
4, 11175, Note_on_c, 9, 59, 0
4, 11176, Note_on_c, 9, 35, 0
4, 11220, Note_on_c, 9, 53, 54
4, 11224, Note_on_c, 9, 64, 21
4, 11227, Note_on_c, 9, 53, 0
4, 11236, Note_on_c, 9, 64, 0
4, 11250, Note_on_c, 9, 59, 80
4, 11254, Note_on_c, 9, 35, 59
4, 11257, Note_on_c, 9, 64, 35
4, 11263, Note_on_c, 9, 59, 0
4, 11280, Note_on_c, 9, 59, 74
4, 11293, Note_on_c, 9, 35, 0
4, 11296, Note_on_c, 9, 64, 0
4, 11301, Note_on_c, 9, 59, 0
4, 11316, Note_on_c, 9, 40, 32
4, 11323, Note_on_c, 9, 40, 0
4, 11339, Note_on_c, 9, 62, 21
4, 11339, Note_on_c, 9, 63, 26
4, 11353, Note_on_c, 9, 62, 0
4, 11358, Note_on_c, 9, 63, 0
4, 11369, Note_on_c, 9, 35, 66
4, 11376, Note_on_c, 9, 63, 49
4, 11379, Note_on_c, 9, 62, 49
4, 11388, Note_on_c, 9, 35, 0
4, 11393, Note_on_c, 9, 62, 0
4, 11400, Note_on_c, 9, 59, 81
4, 11401, Note_on_c, 9, 40, 33
4, 11405, Note_on_c, 9, 35, 40
4, 11409, Note_on_c, 9, 40, 0
4, 11409, Note_on_c, 9, 63, 0
4, 11417, Note_on_c, 9, 59, 0
4, 11426, Note_on_c, 9, 35, 0
4, 11435, Note_on_c, 9, 64, 27
4, 11444, Note_on_c, 9, 64, 0
4, 11458, Note_on_c, 9, 40, 31
4, 11460, Note_on_c, 9, 59, 80
4, 11462, Note_on_c, 9, 35, 57
4, 11467, Note_on_c, 9, 40, 0
4, 11469, Note_on_c, 9, 59, 0
4, 11475, Note_on_c, 9, 35, 0
4, 11482, Note_on_c, 9, 64, 25
4, 11490, Note_on_c, 9, 53, 67
4, 11496, Note_on_c, 9, 40, 27
4, 11499, Note_on_c, 9, 53, 0
4, 11502, Note_on_c, 9, 40, 0
4, 11502, Note_on_c, 9, 64, 0
4, 11519, Note_on_c, 9, 64, 47
4, 11520, Note_on_c, 9, 59, 74
4, 11520, Note_on_c, 9, 35, 61
4, 11520, Note_on_c, 9, 35, 0
4, 11531, Note_on_c, 9, 59, 0
4, 11551, Note_on_c, 9, 64, 0
4, 11553, Note_on_c, 9, 40, 38
4, 11562, Note_on_c, 9, 40, 0
4, 11580, Note_on_c, 9, 59, 63
4, 11585, Note_on_c, 9, 40, 20
4, 11588, Note_on_c, 9, 59, 0
4, 11591, Note_on_c, 9, 40, 0
4, 11610, Note_on_c, 9, 59, 73
4, 11611, Note_on_c, 9, 35, 38
4, 11617, Note_on_c, 9, 63, 35
4, 11629, Note_on_c, 9, 59, 0
4, 11631, Note_on_c, 9, 63, 0
4, 11631, Note_on_c, 9, 35, 0
4, 11648, Note_on_c, 9, 35, 33
4, 11648, Note_on_c, 9, 63, 48
4, 11651, Note_on_c, 9, 62, 33
4, 11662, Note_on_c, 9, 35, 0
4, 11666, Note_on_c, 9, 62, 0
4, 11668, Note_on_c, 9, 63, 0
4, 11670, Note_on_c, 9, 53, 57
4, 11677, Note_on_c, 9, 53, 0
4, 11700, Note_on_c, 9, 59, 69
4, 11700, Note_on_c, 9, 64, 19
4, 11709, Note_on_c, 9, 64, 0
4, 11718, Note_on_c, 9, 59, 0
4, 11727, Note_on_c, 9, 64, 49
4, 11741, Note_on_c, 9, 35, 47
4, 11748, Note_on_c, 9, 64, 0
4, 11750, Note_on_c, 9, 35, 0
4, 11760, Note_on_c, 9, 59, 69
4, 11769, Note_on_c, 9, 35, 35
4, 11771, Note_on_c, 9, 59, 0
4, 11779, Note_on_c, 9, 35, 0
4, 11790, Note_on_c, 9, 59, 63
4, 11790, Note_on_c, 9, 40, 39
4, 11806, Note_on_c, 9, 59, 0
4, 11807, Note_on_c, 9, 40, 0
4, 11816, Note_on_c, 9, 40, 22
4, 11826, Note_on_c, 9, 40, 0
4, 11847, Note_on_c, 9, 34, 65
4, 11849, Note_on_c, 9, 35, 56
4, 11850, Note_on_c, 9, 53, 50
4, 11857, Note_on_c, 9, 53, 0
4, 11858, Note_on_c, 9, 35, 0
4, 11862, Note_on_c, 9, 34, 0
4, 11875, Note_on_c, 9, 63, 44
4, 11876, Note_on_c, 9, 40, 38
4, 11879, Note_on_c, 9, 35, 20
4, 11880, Note_on_c, 9, 59, 69
4, 11890, Note_on_c, 9, 35, 0
4, 11899, Note_on_c, 9, 40, 0
4, 11902, Note_on_c, 9, 63, 0
4, 11906, Note_on_c, 9, 59, 0
4, 11934, Note_on_c, 9, 35, 57
4, 11940, Note_on_c, 9, 59, 65
4, 11944, Note_on_c, 9, 35, 0
4, 11953, Note_on_c, 9, 59, 0
4, 11962, Note_on_c, 9, 64, 58
4, 11969, Note_on_c, 9, 40, 74
4, 11989, Note_on_c, 9, 40, 0
4, 11991, Note_on_c, 9, 64, 0
4, 11998, Note_on_c, 9, 35, 55
4, 12000, Note_on_c, 9, 59, 75
4, 12008, Note_on_c, 9, 35, 0
4, 12009, Note_on_c, 9, 59, 0
4, 12023, Note_on_c, 9, 34, 56
4, 12030, Note_on_c, 9, 59, 60
4, 12037, Note_on_c, 9, 34, 0
4, 12048, Note_on_c, 9, 59, 0
4, 12051, Note_on_c, 9, 40, 40
4, 12058, Note_on_c, 9, 40, 0
4, 12090, Note_on_c, 9, 59, 73
4, 12091, Note_on_c, 9, 35, 49
4, 12101, Note_on_c, 9, 35, 0
4, 12105, Note_on_c, 9, 59, 0
4, 12110, Note_on_c, 9, 63, 49
4, 12121, Note_on_c, 9, 35, 41
4, 12131, Note_on_c, 9, 35, 0
4, 12136, Note_on_c, 9, 63, 0
4, 12150, Note_on_c, 9, 59, 76
4, 12165, Note_on_c, 9, 59, 0
4, 12210, Note_on_c, 9, 53, 62
4, 12215, Note_on_c, 9, 35, 43
4, 12219, Note_on_c, 9, 53, 0
4, 12226, Note_on_c, 9, 35, 0
4, 12237, Note_on_c, 9, 64, 30
4, 12239, Note_on_c, 9, 35, 28
4, 12240, Note_on_c, 9, 59, 64
4, 12251, Note_on_c, 9, 35, 0
4, 12255, Note_on_c, 9, 59, 0
4, 12259, Note_on_c, 9, 64, 0
4, 12266, Note_on_c, 9, 40, 30
4, 12272, Note_on_c, 9, 40, 0
4, 12300, Note_on_c, 9, 59, 75
4, 12310, Note_on_c, 9, 59, 0
4, 12328, Note_on_c, 9, 35, 58
4, 12328, Note_on_c, 9, 34, 34
4, 12331, Note_on_c, 9, 63, 52
4, 12337, Note_on_c, 9, 35, 0
4, 12341, Note_on_c, 9, 63, 0
4, 12350, Note_on_c, 9, 34, 0
4, 12360, Note_on_c, 9, 59, 77
4, 12361, Note_on_c, 9, 63, 67
4, 12362, Note_on_c, 9, 40, 50
4, 12367, Note_on_c, 9, 59, 0
4, 12369, Note_on_c, 9, 40, 0
4, 12382, Note_on_c, 9, 63, 0
4, 12390, Note_on_c, 9, 59, 61
4, 12405, Note_on_c, 9, 59, 0
4, 12447, Note_on_c, 9, 35, 58
4, 12450, Note_on_c, 9, 59, 79
4, 12451, Note_on_c, 9, 40, 57
4, 12453, Note_on_c, 9, 64, 56
4, 12457, Note_on_c, 9, 35, 0
4, 12459, Note_on_c, 9, 40, 0
4, 12466, Note_on_c, 9, 59, 0
4, 12471, Note_on_c, 9, 64, 0
4, 12476, Note_on_c, 9, 35, 45
4, 12482, Note_on_c, 9, 64, 49
4, 12488, Note_on_c, 9, 35, 0
4, 12498, Note_on_c, 9, 64, 0
4, 12506, Note_on_c, 9, 34, 37
4, 12510, Note_on_c, 9, 59, 68
4, 12520, Note_on_c, 9, 34, 0
4, 12522, Note_on_c, 9, 59, 0
4, 12540, Note_on_c, 9, 63, 28
4, 12542, Note_on_c, 9, 40, 47
4, 12550, Note_on_c, 9, 63, 0
4, 12558, Note_on_c, 9, 40, 0
4, 12570, Note_on_c, 9, 59, 68
4, 12571, Note_on_c, 9, 63, 64
4, 12572, Note_on_c, 9, 35, 56
4, 12582, Note_on_c, 9, 59, 0
4, 12587, Note_on_c, 9, 35, 0
4, 12593, Note_on_c, 9, 63, 0
4, 12600, Note_on_c, 9, 59, 66
4, 12601, Note_on_c, 9, 35, 26
4, 12609, Note_on_c, 9, 59, 0
4, 12613, Note_on_c, 9, 35, 0
4, 12660, Note_on_c, 9, 59, 64
4, 12666, Note_on_c, 9, 64, 15
4, 12668, Note_on_c, 9, 59, 0
4, 12674, Note_on_c, 9, 64, 0
4, 12690, Note_on_c, 9, 59, 65
4, 12692, Note_on_c, 9, 64, 51
4, 12695, Note_on_c, 9, 35, 60
4, 12704, Note_on_c, 9, 35, 0
4, 12706, Note_on_c, 9, 59, 0
4, 12718, Note_on_c, 9, 35, 31
4, 12719, Note_on_c, 9, 64, 0
4, 12730, Note_on_c, 9, 35, 0
4, 12749, Note_on_c, 9, 62, 36
4, 12750, Note_on_c, 9, 53, 46
4, 12750, Note_on_c, 9, 59, 83
4, 12750, Note_on_c, 9, 63, 51
4, 12755, Note_on_c, 9, 62, 0
4, 12757, Note_on_c, 9, 53, 0
4, 12765, Note_on_c, 9, 59, 0
4, 12769, Note_on_c, 9, 63, 0
4, 12780, Note_on_c, 9, 59, 73
4, 12795, Note_on_c, 9, 59, 0
4, 12802, Note_on_c, 9, 62, 23
4, 12804, Note_on_c, 9, 63, 56
4, 12808, Note_on_c, 9, 62, 0
4, 12810, Note_on_c, 9, 35, 57
4, 12821, Note_on_c, 9, 35, 0
4, 12827, Note_on_c, 9, 63, 0
4, 12840, Note_on_c, 9, 59, 80
4, 12840, Note_on_c, 9, 35, 26
4, 12851, Note_on_c, 9, 35, 0
4, 12852, Note_on_c, 9, 63, 48
4, 12854, Note_on_c, 9, 59, 0
4, 12873, Note_on_c, 9, 63, 0
4, 12892, Note_on_c, 9, 62, 42
4, 12896, Note_on_c, 9, 62, 0
4, 12898, Note_on_c, 9, 63, 46
4, 12900, Note_on_c, 9, 51, 68
4, 12914, Note_on_c, 9, 63, 0
4, 12916, Note_on_c, 9, 51, 0
4, 12928, Note_on_c, 9, 40, 72
4, 12931, Note_on_c, 9, 35, 58
4, 12939, Note_on_c, 9, 40, 0
4, 12939, Note_on_c, 9, 63, 49
4, 12940, Note_on_c, 9, 62, 39
4, 12944, Note_on_c, 9, 62, 0
4, 12946, Note_on_c, 9, 35, 0
4, 12955, Note_on_c, 9, 35, 20
4, 12957, Note_on_c, 9, 63, 0
4, 12958, Note_on_c, 9, 40, 25
4, 12960, Note_on_c, 9, 59, 74
4, 12973, Note_on_c, 9, 59, 0
4, 12974, Note_on_c, 9, 40, 0
4, 12975, Note_on_c, 9, 35, 0
4, 12987, Note_on_c, 9, 63, 44
4, 12989, Note_on_c, 9, 62, 42
4, 12990, Note_on_c, 9, 59, 44
4, 12995, Note_on_c, 9, 62, 0
4, 13007, Note_on_c, 9, 63, 0
4, 13009, Note_on_c, 9, 59, 0
4, 13038, Note_on_c, 9, 62, 46
4, 13041, Note_on_c, 9, 63, 54
4, 13044, Note_on_c, 9, 62, 0
4, 13050, Note_on_c, 9, 59, 78
4, 13056, Note_on_c, 9, 35, 58
4, 13059, Note_on_c, 9, 63, 0
4, 13066, Note_on_c, 9, 59, 0
4, 13087, Note_on_c, 9, 62, 47
4, 13088, Note_on_c, 9, 63, 51
4, 13092, Note_on_c, 9, 62, 0
4, 13096, Note_on_c, 9, 35, 0
4, 13104, Note_on_c, 9, 63, 0
4, 13110, Note_on_c, 9, 59, 75
4, 13128, Note_on_c, 9, 59, 0
4, 13141, Note_on_c, 9, 40, 27
4, 13147, Note_on_c, 9, 40, 0
4, 13170, Note_on_c, 9, 59, 80
4, 13173, Note_on_c, 9, 40, 60
4, 13174, Note_on_c, 9, 35, 59
4, 13178, Note_on_c, 9, 40, 0
4, 13187, Note_on_c, 9, 59, 0
4, 13213, Note_on_c, 9, 35, 0
4, 13230, Note_on_c, 9, 59, 76
4, 13230, Note_on_c, 9, 40, 68
4, 13239, Note_on_c, 9, 40, 0
4, 13246, Note_on_c, 9, 59, 0
4, 13260, Note_on_c, 9, 59, 76
4, 13277, Note_on_c, 9, 59, 0
4, 13288, Note_on_c, 9, 34, 76
4, 13289, Note_on_c, 9, 35, 66
4, 13304, Note_on_c, 9, 34, 0
4, 13308, Note_on_c, 9, 35, 0
4, 13320, Note_on_c, 9, 59, 76
4, 13325, Note_on_c, 9, 35, 40
4, 13337, Note_on_c, 9, 59, 0
4, 13346, Note_on_c, 9, 35, 0
4, 13349, Note_on_c, 9, 40, 74
4, 13368, Note_on_c, 9, 40, 0
4, 13380, Note_on_c, 9, 51, 79
4, 13382, Note_on_c, 9, 35, 57
4, 13395, Note_on_c, 9, 35, 0
4, 13396, Note_on_c, 9, 51, 0
4, 13410, Note_on_c, 9, 34, 68
4, 13425, Note_on_c, 9, 34, 0
4, 13438, Note_on_c, 9, 40, 75
4, 13439, Note_on_c, 9, 57, 74
4, 13440, Note_on_c, 9, 51, 72
4, 13440, Note_on_c, 9, 35, 61
4, 13440, Note_on_c, 9, 35, 0
4, 13457, Note_on_c, 9, 51, 0
4, 13458, Note_on_c, 9, 57, 0
4, 13475, Note_on_c, 9, 40, 0
4, 13500, Note_on_c, 9, 51, 67
4, 13515, Note_on_c, 9, 51, 0
4, 13531, Note_on_c, 9, 35, 38
4, 13551, Note_on_c, 9, 35, 0
4, 13560, Note_on_c, 9, 51, 71
4, 13568, Note_on_c, 9, 35, 33
4, 13573, Note_on_c, 9, 51, 0
4, 13582, Note_on_c, 9, 35, 0
4, 13590, Note_on_c, 9, 51, 58
4, 13606, Note_on_c, 9, 51, 0
4, 13620, Note_on_c, 9, 40, 36
4, 13622, Note_on_c, 9, 63, 27
4, 13632, Note_on_c, 9, 40, 0
4, 13640, Note_on_c, 9, 63, 0
4, 13650, Note_on_c, 9, 51, 74
4, 13656, Note_on_c, 9, 63, 60
4, 13657, Note_on_c, 9, 40, 66
4, 13661, Note_on_c, 9, 35, 47
4, 13666, Note_on_c, 9, 51, 0
4, 13669, Note_on_c, 9, 40, 0
4, 13670, Note_on_c, 9, 35, 0
4, 13681, Note_on_c, 9, 63, 0
4, 13689, Note_on_c, 9, 35, 35
4, 13699, Note_on_c, 9, 35, 0
4, 13710, Note_on_c, 9, 51, 76
4, 13724, Note_on_c, 9, 51, 0
4, 13740, Note_on_c, 9, 64, 37
4, 13748, Note_on_c, 9, 64, 0
4, 13769, Note_on_c, 9, 35, 56
4, 13770, Note_on_c, 9, 51, 69
4, 13772, Note_on_c, 9, 64, 64
4, 13778, Note_on_c, 9, 51, 0
4, 13778, Note_on_c, 9, 35, 0
4, 13794, Note_on_c, 9, 64, 0
4, 13799, Note_on_c, 9, 35, 20
4, 13800, Note_on_c, 9, 51, 60
4, 13810, Note_on_c, 9, 35, 0
4, 13820, Note_on_c, 9, 51, 0
4, 13833, Note_on_c, 9, 62, 23
4, 13838, Note_on_c, 9, 62, 0
4, 13854, Note_on_c, 9, 35, 57
4, 13856, Note_on_c, 9, 40, 27
4, 13858, Note_on_c, 9, 63, 24
4, 13860, Note_on_c, 9, 53, 81
4, 13864, Note_on_c, 9, 40, 0
4, 13864, Note_on_c, 9, 35, 0
4, 13874, Note_on_c, 9, 63, 0
4, 13881, Note_on_c, 9, 53, 0
4, 13890, Note_on_c, 9, 40, 39
4, 13892, Note_on_c, 9, 63, 61
4, 13897, Note_on_c, 9, 40, 0
4, 13910, Note_on_c, 9, 63, 0
4, 13918, Note_on_c, 9, 35, 55
4, 13920, Note_on_c, 9, 51, 54
4, 13922, Note_on_c, 9, 63, 60
4, 13928, Note_on_c, 9, 35, 0
4, 13939, Note_on_c, 9, 51, 0
4, 13946, Note_on_c, 9, 63, 0
4, 13950, Note_on_c, 9, 51, 52
4, 13967, Note_on_c, 9, 51, 0
4, 14010, Note_on_c, 9, 51, 72
4, 14011, Note_on_c, 9, 35, 49
4, 14012, Note_on_c, 9, 64, 49
4, 14021, Note_on_c, 9, 35, 0
4, 14026, Note_on_c, 9, 64, 0
4, 14028, Note_on_c, 9, 51, 0
4, 14041, Note_on_c, 9, 35, 41
4, 14051, Note_on_c, 9, 35, 0
4, 14070, Note_on_c, 9, 51, 72
4, 14074, Note_on_c, 9, 62, 26
4, 14079, Note_on_c, 9, 62, 0
4, 14082, Note_on_c, 9, 51, 0
4, 14100, Note_on_c, 9, 51, 52
4, 14101, Note_on_c, 9, 63, 58
4, 14117, Note_on_c, 9, 51, 0
4, 14128, Note_on_c, 9, 63, 0
4, 14135, Note_on_c, 9, 35, 43
4, 14146, Note_on_c, 9, 35, 0
4, 14159, Note_on_c, 9, 35, 28
4, 14160, Note_on_c, 9, 51, 76
4, 14171, Note_on_c, 9, 35, 0
4, 14174, Note_on_c, 9, 51, 0
4, 14220, Note_on_c, 9, 51, 65
4, 14227, Note_on_c, 9, 64, 23
4, 14233, Note_on_c, 9, 51, 0
4, 14243, Note_on_c, 9, 64, 0
4, 14248, Note_on_c, 9, 35, 58
4, 14257, Note_on_c, 9, 35, 0
4, 14258, Note_on_c, 9, 64, 40
4, 14272, Note_on_c, 9, 64, 0
4, 14280, Note_on_c, 9, 51, 45
4, 14287, Note_on_c, 9, 51, 0
4, 14310, Note_on_c, 9, 51, 50
4, 14315, Note_on_c, 9, 62, 63
4, 14317, Note_on_c, 9, 40, 34
4, 14324, Note_on_c, 9, 40, 0
4, 14324, Note_on_c, 9, 51, 0
4, 14342, Note_on_c, 9, 62, 0
4, 14367, Note_on_c, 9, 35, 58
4, 14367, Note_on_c, 9, 63, 45
4, 14370, Note_on_c, 9, 51, 75
4, 14377, Note_on_c, 9, 35, 0
4, 14384, Note_on_c, 9, 51, 0
4, 14384, Note_on_c, 9, 63, 0
4, 14396, Note_on_c, 9, 35, 45
4, 14397, Note_on_c, 9, 63, 42
4, 14397, Note_on_c, 9, 40, 29
4, 14403, Note_on_c, 9, 40, 0
4, 14408, Note_on_c, 9, 35, 0
4, 14420, Note_on_c, 9, 63, 0
4, 14430, Note_on_c, 9, 51, 31
4, 14437, Note_on_c, 9, 51, 0
4, 14460, Note_on_c, 9, 51, 65
4, 14476, Note_on_c, 9, 51, 0
4, 14488, Note_on_c, 9, 40, 39
4, 14492, Note_on_c, 9, 35, 56
4, 14492, Note_on_c, 9, 64, 28
4, 14495, Note_on_c, 9, 40, 0
4, 14502, Note_on_c, 9, 64, 0
4, 14507, Note_on_c, 9, 35, 0
4, 14520, Note_on_c, 9, 51, 37
4, 14521, Note_on_c, 9, 35, 26
4, 14528, Note_on_c, 9, 51, 0
4, 14533, Note_on_c, 9, 35, 0
4, 14550, Note_on_c, 9, 51, 71
4, 14566, Note_on_c, 9, 51, 0
4, 14577, Note_on_c, 9, 40, 32
4, 14587, Note_on_c, 9, 40, 0
4, 14587, Note_on_c, 9, 63, 16
4, 14597, Note_on_c, 9, 63, 0
4, 14607, Note_on_c, 9, 40, 31
4, 14610, Note_on_c, 9, 51, 57
4, 14613, Note_on_c, 9, 63, 39
4, 14615, Note_on_c, 9, 40, 0
4, 14615, Note_on_c, 9, 35, 60
4, 14617, Note_on_c, 9, 51, 0
4, 14624, Note_on_c, 9, 35, 0
4, 14629, Note_on_c, 9, 63, 0
4, 14638, Note_on_c, 9, 35, 31
4, 14640, Note_on_c, 9, 51, 55
4, 14650, Note_on_c, 9, 35, 0
4, 14657, Note_on_c, 9, 51, 0
4, 14667, Note_on_c, 9, 34, 44
4, 14675, Note_on_c, 9, 64, 32
4, 14676, Note_on_c, 9, 34, 0
4, 14688, Note_on_c, 9, 64, 0
4, 14700, Note_on_c, 9, 51, 45
4, 14703, Note_on_c, 9, 64, 32
4, 14707, Note_on_c, 9, 51, 0
4, 14717, Note_on_c, 9, 64, 0
4, 14730, Note_on_c, 9, 51, 57
4, 14730, Note_on_c, 9, 35, 57
4, 14730, Note_on_c, 9, 64, 58
4, 14741, Note_on_c, 9, 35, 0
4, 14744, Note_on_c, 9, 64, 0
4, 14746, Note_on_c, 9, 51, 0
4, 14760, Note_on_c, 9, 35, 26
4, 14760, Note_on_c, 9, 64, 65
4, 14763, Note_on_c, 9, 40, 10
4, 14771, Note_on_c, 9, 35, 0
4, 14773, Note_on_c, 9, 40, 0
4, 14781, Note_on_c, 9, 64, 0
4, 14790, Note_on_c, 9, 51, 67
4, 14793, Note_on_c, 9, 62, 25
4, 14794, Note_on_c, 9, 34, 49
4, 14798, Note_on_c, 9, 62, 0
4, 14806, Note_on_c, 9, 51, 0
4, 14807, Note_on_c, 9, 34, 0
4, 14820, Note_on_c, 9, 53, 77
4, 14821, Note_on_c, 9, 63, 24
4, 14826, Note_on_c, 9, 40, 41
4, 14828, Note_on_c, 9, 63, 0
4, 14844, Note_on_c, 9, 40, 0
4, 14844, Note_on_c, 9, 53, 0
4, 14851, Note_on_c, 9, 35, 58
4, 14851, Note_on_c, 9, 63, 65
4, 14859, Note_on_c, 9, 40, 37
4, 14866, Note_on_c, 9, 35, 0
4, 14872, Note_on_c, 9, 40, 0
4, 14875, Note_on_c, 9, 63, 0
4, 14875, Note_on_c, 9, 35, 20
4, 14880, Note_on_c, 9, 51, 38
4, 14888, Note_on_c, 9, 51, 0
4, 14895, Note_on_c, 9, 35, 0
4, 14910, Note_on_c, 9, 51, 50
4, 14919, Note_on_c, 9, 51, 0
4, 14945, Note_on_c, 9, 64, 25
4, 14955, Note_on_c, 9, 64, 0
4, 14970, Note_on_c, 9, 51, 63
4, 14974, Note_on_c, 9, 64, 45
4, 14976, Note_on_c, 9, 35, 58
4, 14977, Note_on_c, 9, 51, 0
4, 14987, Note_on_c, 9, 64, 0
4, 15000, Note_on_c, 9, 53, 66
4, 15016, Note_on_c, 9, 35, 0
4, 15029, Note_on_c, 9, 53, 0
4, 15047, Note_on_c, 9, 62, 32
4, 15054, Note_on_c, 9, 62, 0
4, 15059, Note_on_c, 9, 63, 39
4, 15060, Note_on_c, 9, 51, 52
4, 15067, Note_on_c, 9, 51, 0
4, 15073, Note_on_c, 9, 63, 0
4, 15090, Note_on_c, 9, 51, 60
4, 15094, Note_on_c, 9, 35, 59
4, 15094, Note_on_c, 9, 63, 55
4, 15096, Note_on_c, 9, 62, 49
4, 15101, Note_on_c, 9, 62, 0
4, 15105, Note_on_c, 9, 51, 0
4, 15115, Note_on_c, 9, 63, 0
4, 15133, Note_on_c, 9, 35, 0
4, 15150, Note_on_c, 9, 51, 59
4, 15160, Note_on_c, 9, 64, 35
4, 15161, Note_on_c, 9, 51, 0
4, 15169, Note_on_c, 9, 64, 0
4, 15180, Note_on_c, 9, 53, 82
4, 15190, Note_on_c, 9, 64, 51
4, 15209, Note_on_c, 9, 35, 66
4, 15212, Note_on_c, 9, 53, 0
4, 15215, Note_on_c, 9, 64, 0
4, 15219, Note_on_c, 9, 34, 54
4, 15228, Note_on_c, 9, 35, 0
4, 15232, Note_on_c, 9, 34, 0
4, 15240, Note_on_c, 9, 51, 45
4, 15245, Note_on_c, 9, 35, 40
4, 15247, Note_on_c, 9, 51, 0
4, 15254, Note_on_c, 9, 40, 32
4, 15261, Note_on_c, 9, 40, 0
4, 15266, Note_on_c, 9, 35, 0
4, 15270, Note_on_c, 9, 51, 47
4, 15278, Note_on_c, 9, 51, 0
4, 15302, Note_on_c, 9, 35, 57
4, 15303, Note_on_c, 9, 40, 32
4, 15311, Note_on_c, 9, 40, 0
4, 15315, Note_on_c, 9, 35, 0
4, 15330, Note_on_c, 9, 51, 65
4, 15335, Note_on_c, 9, 40, 55
4, 15341, Note_on_c, 9, 51, 0
4, 15343, Note_on_c, 9, 40, 0
4, 15360, Note_on_c, 9, 53, 79
4, 15360, Note_on_c, 9, 35, 61
4, 15360, Note_on_c, 9, 35, 0
4, 15388, Note_on_c, 9, 53, 0
4, 15396, Note_on_c, 9, 40, 37
4, 15405, Note_on_c, 9, 40, 0
4, 15420, Note_on_c, 9, 51, 52
4, 15424, Note_on_c, 9, 64, 20
4, 15427, Note_on_c, 9, 34, 26
4, 15428, Note_on_c, 9, 51, 0
4, 15432, Note_on_c, 9, 64, 0
4, 15439, Note_on_c, 9, 34, 0
4, 15450, Note_on_c, 9, 51, 69
4, 15451, Note_on_c, 9, 35, 38
4, 15453, Note_on_c, 9, 64, 52
4, 15465, Note_on_c, 9, 64, 0
4, 15465, Note_on_c, 9, 51, 0
4, 15471, Note_on_c, 9, 35, 0
4, 15488, Note_on_c, 9, 35, 33
4, 15502, Note_on_c, 9, 35, 0
4, 15510, Note_on_c, 9, 51, 57
4, 15517, Note_on_c, 9, 51, 0
4, 15535, Note_on_c, 9, 62, 52
4, 15539, Note_on_c, 9, 63, 48
4, 15540, Note_on_c, 9, 51, 43
4, 15546, Note_on_c, 9, 62, 0
4, 15559, Note_on_c, 9, 51, 0
4, 15562, Note_on_c, 9, 63, 0
4, 15581, Note_on_c, 9, 35, 47
4, 15590, Note_on_c, 9, 35, 0
4, 15600, Note_on_c, 9, 51, 71
4, 15609, Note_on_c, 9, 35, 35
4, 15615, Note_on_c, 9, 51, 0
4, 15619, Note_on_c, 9, 35, 0
4, 15660, Note_on_c, 9, 51, 64
4, 15662, Note_on_c, 9, 64, 24
4, 15678, Note_on_c, 9, 51, 0
4, 15679, Note_on_c, 9, 64, 0
4, 15689, Note_on_c, 9, 35, 56
4, 15696, Note_on_c, 9, 64, 32
4, 15698, Note_on_c, 9, 35, 0
4, 15705, Note_on_c, 9, 64, 0
4, 15719, Note_on_c, 9, 35, 20
4, 15720, Note_on_c, 9, 51, 64
4, 15730, Note_on_c, 9, 35, 0
4, 15737, Note_on_c, 9, 51, 0
4, 15750, Note_on_c, 9, 59, 66
4, 15755, Note_on_c, 9, 63, 37
4, 15768, Note_on_c, 9, 63, 0
4, 15772, Note_on_c, 9, 59, 0
4, 15774, Note_on_c, 9, 35, 57
4, 15783, Note_on_c, 9, 63, 46
4, 15784, Note_on_c, 9, 35, 0
4, 15806, Note_on_c, 9, 63, 0
4, 15810, Note_on_c, 9, 51, 68
4, 15821, Note_on_c, 9, 40, 35
4, 15825, Note_on_c, 9, 51, 0
4, 15828, Note_on_c, 9, 40, 0
4, 15838, Note_on_c, 9, 35, 55
4, 15848, Note_on_c, 9, 35, 0
4, 15870, Note_on_c, 9, 51, 71
4, 15881, Note_on_c, 9, 40, 36
4, 15888, Note_on_c, 9, 40, 0
4, 15889, Note_on_c, 9, 51, 0
4, 15904, Note_on_c, 9, 64, 23
4, 15917, Note_on_c, 9, 64, 0
4, 15930, Note_on_c, 9, 51, 59
4, 15931, Note_on_c, 9, 35, 49
4, 15932, Note_on_c, 9, 40, 49
4, 15933, Note_on_c, 9, 64, 40
4, 15939, Note_on_c, 9, 40, 0
4, 15940, Note_on_c, 9, 51, 0
4, 15941, Note_on_c, 9, 35, 0
4, 15950, Note_on_c, 9, 64, 0
4, 15960, Note_on_c, 9, 51, 61
4, 15961, Note_on_c, 9, 35, 41
4, 15968, Note_on_c, 9, 40, 31
4, 15971, Note_on_c, 9, 35, 0
4, 15980, Note_on_c, 9, 40, 0
4, 15982, Note_on_c, 9, 51, 0
4, 15987, Note_on_c, 9, 63, 32
4, 15998, Note_on_c, 9, 63, 0
4, 15999, Note_on_c, 9, 34, 38
4, 16011, Note_on_c, 9, 34, 0
4, 16019, Note_on_c, 9, 63, 24
4, 16020, Note_on_c, 9, 51, 57
4, 16025, Note_on_c, 9, 63, 0
4, 16027, Note_on_c, 9, 51, 0
4, 16050, Note_on_c, 9, 51, 72
4, 16051, Note_on_c, 9, 63, 69
4, 16055, Note_on_c, 9, 35, 43
4, 16066, Note_on_c, 9, 35, 0
4, 16068, Note_on_c, 9, 51, 0
4, 16077, Note_on_c, 9, 63, 0
4, 16079, Note_on_c, 9, 35, 28
4, 16091, Note_on_c, 9, 35, 0
4, 16110, Note_on_c, 9, 51, 67
4, 16116, Note_on_c, 9, 51, 0
4, 16116, Note_on_c, 9, 34, 48
4, 16119, Note_on_c, 9, 64, 28
4, 16124, Note_on_c, 9, 34, 0
4, 16125, Note_on_c, 9, 64, 0
4, 16140, Note_on_c, 9, 51, 62
4, 16149, Note_on_c, 9, 64, 23
4, 16157, Note_on_c, 9, 64, 0
4, 16159, Note_on_c, 9, 51, 0
4, 16168, Note_on_c, 9, 35, 58
4, 16176, Note_on_c, 9, 40, 67
4, 16177, Note_on_c, 9, 35, 0
4, 16188, Note_on_c, 9, 40, 0
4, 16200, Note_on_c, 9, 51, 75
4, 16214, Note_on_c, 9, 51, 0
4, 16231, Note_on_c, 9, 34, 36
4, 16239, Note_on_c, 9, 34, 0
4, 16258, Note_on_c, 9, 40, 30
4, 16260, Note_on_c, 9, 51, 74
4, 16269, Note_on_c, 9, 40, 0
4, 16274, Note_on_c, 9, 51, 0
4, 16287, Note_on_c, 9, 35, 58
4, 16295, Note_on_c, 9, 40, 54
4, 16297, Note_on_c, 9, 35, 0
4, 16300, Note_on_c, 9, 63, 31
4, 16302, Note_on_c, 9, 40, 0
4, 16304, Note_on_c, 9, 63, 0
4, 16316, Note_on_c, 9, 35, 45
4, 16320, Note_on_c, 9, 51, 76
4, 16321, Note_on_c, 9, 40, 35
4, 16328, Note_on_c, 9, 35, 0
4, 16333, Note_on_c, 9, 40, 0
4, 16334, Note_on_c, 9, 51, 0
4, 16352, Note_on_c, 9, 34, 36
4, 16371, Note_on_c, 9, 34, 0
4, 16380, Note_on_c, 9, 51, 71
4, 16385, Note_on_c, 9, 64, 23
4, 16393, Note_on_c, 9, 51, 0
4, 16394, Note_on_c, 9, 64, 0
4, 16412, Note_on_c, 9, 35, 56
4, 16415, Note_on_c, 9, 64, 31
4, 16421, Note_on_c, 9, 64, 0
4, 16427, Note_on_c, 9, 35, 0
4, 16440, Note_on_c, 9, 51, 67
4, 16441, Note_on_c, 9, 35, 26
4, 16448, Note_on_c, 9, 34, 39
4, 16452, Note_on_c, 9, 34, 0
4, 16452, Note_on_c, 9, 51, 0
4, 16453, Note_on_c, 9, 35, 0
4, 16470, Note_on_c, 9, 51, 59
4, 16472, Note_on_c, 9, 63, 49
4, 16482, Note_on_c, 9, 63, 0
4, 16488, Note_on_c, 9, 51, 0
4, 16522, Note_on_c, 9, 63, 53
4, 16530, Note_on_c, 9, 53, 85
4, 16534, Note_on_c, 9, 63, 0
4, 16535, Note_on_c, 9, 35, 60
4, 16544, Note_on_c, 9, 35, 0
4, 16548, Note_on_c, 9, 53, 0
4, 16558, Note_on_c, 9, 35, 31
4, 16567, Note_on_c, 9, 62, 44
4, 16570, Note_on_c, 9, 35, 0
4, 16572, Note_on_c, 9, 63, 61
4, 16573, Note_on_c, 9, 62, 0
4, 16590, Note_on_c, 9, 51, 67
4, 16592, Note_on_c, 9, 63, 0
4, 16604, Note_on_c, 9, 51, 0
4, 16618, Note_on_c, 9, 63, 53
4, 16628, Note_on_c, 9, 63, 0
4, 16650, Note_on_c, 9, 51, 52
4, 16650, Note_on_c, 9, 35, 57
4, 16655, Note_on_c, 9, 62, 44
4, 16657, Note_on_c, 9, 63, 58
4, 16658, Note_on_c, 9, 51, 0
4, 16660, Note_on_c, 9, 62, 0
4, 16661, Note_on_c, 9, 35, 0
4, 16677, Note_on_c, 9, 63, 0
4, 16680, Note_on_c, 9, 51, 48
4, 16680, Note_on_c, 9, 35, 26
4, 16691, Note_on_c, 9, 35, 0
4, 16695, Note_on_c, 9, 51, 0
4, 16699, Note_on_c, 9, 63, 56
4, 16715, Note_on_c, 9, 63, 0
4, 16733, Note_on_c, 9, 62, 43
4, 16738, Note_on_c, 9, 62, 0
4, 16743, Note_on_c, 9, 63, 51
4, 16760, Note_on_c, 9, 63, 0
4, 16771, Note_on_c, 9, 35, 58
4, 16782, Note_on_c, 9, 63, 56
4, 16786, Note_on_c, 9, 35, 0
4, 16795, Note_on_c, 9, 35, 20
4, 16798, Note_on_c, 9, 63, 0
4, 16800, Note_on_c, 9, 51, 78
4, 16815, Note_on_c, 9, 35, 0
4, 16819, Note_on_c, 9, 62, 43
4, 16826, Note_on_c, 9, 63, 56
4, 16829, Note_on_c, 9, 62, 0
4, 16840, Note_on_c, 9, 51, 0
4, 16842, Note_on_c, 9, 63, 0
4, 16866, Note_on_c, 9, 63, 56
4, 16885, Note_on_c, 9, 63, 0
4, 16890, Note_on_c, 9, 51, 74
4, 16896, Note_on_c, 9, 35, 58
4, 16902, Note_on_c, 9, 62, 45
4, 16904, Note_on_c, 9, 51, 0
4, 16909, Note_on_c, 9, 62, 0
4, 16914, Note_on_c, 9, 63, 54
4, 16920, Note_on_c, 9, 51, 61
4, 16931, Note_on_c, 9, 63, 0
4, 16936, Note_on_c, 9, 35, 0
4, 16937, Note_on_c, 9, 51, 0
4, 16959, Note_on_c, 9, 63, 54
4, 16972, Note_on_c, 9, 63, 0
4, 16980, Note_on_c, 9, 51, 61
4, 16991, Note_on_c, 9, 51, 0
4, 17010, Note_on_c, 9, 51, 79
4, 17014, Note_on_c, 9, 35, 59
4, 17023, Note_on_c, 9, 51, 0
4, 17053, Note_on_c, 9, 35, 0
4, 17070, Note_on_c, 9, 51, 77
4, 17074, Note_on_c, 9, 62, 39
4, 17077, Note_on_c, 9, 63, 63
4, 17080, Note_on_c, 9, 62, 0
4, 17084, Note_on_c, 9, 51, 0
4, 17096, Note_on_c, 9, 63, 0
4, 17126, Note_on_c, 9, 63, 58
4, 17129, Note_on_c, 9, 35, 66
4, 17130, Note_on_c, 9, 51, 82
4, 17142, Note_on_c, 9, 63, 0
4, 17147, Note_on_c, 9, 51, 0
4, 17148, Note_on_c, 9, 35, 0
4, 17162, Note_on_c, 9, 62, 40
4, 17165, Note_on_c, 9, 35, 40
4, 17173, Note_on_c, 9, 62, 0
4, 17173, Note_on_c, 9, 63, 44
4, 17186, Note_on_c, 9, 35, 0
4, 17190, Note_on_c, 9, 63, 0
4, 17190, Note_on_c, 9, 51, 69
4, 17199, Note_on_c, 9, 51, 0
4, 17211, Note_on_c, 9, 63, 51
4, 17220, Note_on_c, 9, 51, 45
4, 17222, Note_on_c, 9, 35, 57
4, 17224, Note_on_c, 9, 63, 0
4, 17233, Note_on_c, 9, 51, 0
4, 17235, Note_on_c, 9, 35, 0
4, 17250, Note_on_c, 9, 53, 65
4, 17252, Note_on_c, 9, 64, 51
4, 17264, Note_on_c, 9, 64, 0
4, 17267, Note_on_c, 9, 53, 0
4, 17280, Note_on_c, 9, 51, 81
4, 17280, Note_on_c, 9, 35, 61
4, 17280, Note_on_c, 9, 35, 0
4, 17284, Note_on_c, 9, 64, 56
4, 17296, Note_on_c, 9, 51, 0
4, 17311, Note_on_c, 9, 64, 0
4, 17340, Note_on_c, 9, 51, 77
4, 17356, Note_on_c, 9, 51, 0
4, 17371, Note_on_c, 9, 35, 38
4, 17372, Note_on_c, 9, 62, 23
4, 17377, Note_on_c, 9, 62, 0
4, 17391, Note_on_c, 9, 35, 0
4, 17400, Note_on_c, 9, 51, 77
4, 17402, Note_on_c, 9, 63, 25
4, 17407, Note_on_c, 9, 63, 0
4, 17408, Note_on_c, 9, 35, 33
4, 17419, Note_on_c, 9, 51, 0
4, 17422, Note_on_c, 9, 35, 0
4, 17435, Note_on_c, 9, 63, 63
4, 17451, Note_on_c, 9, 63, 0
4, 17460, Note_on_c, 9, 53, 71
4, 17479, Note_on_c, 9, 53, 0
4, 17490, Note_on_c, 9, 51, 71
4, 17501, Note_on_c, 9, 35, 47
4, 17501, Note_on_c, 9, 46, 71
4, 17505, Note_on_c, 9, 51, 0
4, 17510, Note_on_c, 9, 35, 0
4, 17513, Note_on_c, 9, 46, 0
4, 17529, Note_on_c, 9, 35, 35
4, 17539, Note_on_c, 9, 35, 0
4, 17550, Note_on_c, 9, 51, 67
4, 17561, Note_on_c, 9, 46, 28
4, 17567, Note_on_c, 9, 46, 0
4, 17567, Note_on_c, 9, 51, 0
4, 17609, Note_on_c, 9, 35, 56
4, 17610, Note_on_c, 9, 51, 72
4, 17617, Note_on_c, 9, 51, 0
4, 17618, Note_on_c, 9, 35, 0
4, 17639, Note_on_c, 9, 35, 20
4, 17640, Note_on_c, 9, 51, 67
4, 17645, Note_on_c, 9, 46, 78
4, 17650, Note_on_c, 9, 35, 0
4, 17660, Note_on_c, 9, 51, 0
4, 17670, Note_on_c, 9, 46, 0
4, 17677, Note_on_c, 9, 62, 16
4, 17682, Note_on_c, 9, 62, 0
4, 17694, Note_on_c, 9, 35, 57
4, 17695, Note_on_c, 9, 34, 42
4, 17700, Note_on_c, 9, 51, 76
4, 17704, Note_on_c, 9, 35, 0
4, 17704, Note_on_c, 9, 63, 46
4, 17712, Note_on_c, 9, 34, 0
4, 17714, Note_on_c, 9, 63, 0
4, 17715, Note_on_c, 9, 51, 0
4, 17733, Note_on_c, 9, 63, 59
4, 17738, Note_on_c, 9, 34, 71
4, 17750, Note_on_c, 9, 63, 0
4, 17752, Note_on_c, 9, 34, 0
4, 17758, Note_on_c, 9, 35, 55
4, 17760, Note_on_c, 9, 51, 74
4, 17768, Note_on_c, 9, 35, 0
4, 17775, Note_on_c, 9, 51, 0
4, 17794, Note_on_c, 9, 34, 64
4, 17812, Note_on_c, 9, 34, 0
4, 17820, Note_on_c, 9, 51, 71
4, 17823, Note_on_c, 9, 64, 30
4, 17825, Note_on_c, 9, 40, 49
4, 17834, Note_on_c, 9, 51, 0
4, 17836, Note_on_c, 9, 64, 0
4, 17850, Note_on_c, 9, 40, 0
4, 17851, Note_on_c, 9, 35, 49
4, 17855, Note_on_c, 9, 64, 56
4, 17861, Note_on_c, 9, 35, 0
4, 17877, Note_on_c, 9, 64, 0
4, 17880, Note_on_c, 9, 51, 74
4, 17881, Note_on_c, 9, 35, 41
4, 17889, Note_on_c, 9, 40, 54
4, 17891, Note_on_c, 9, 35, 0
4, 17895, Note_on_c, 9, 51, 0
4, 17899, Note_on_c, 9, 40, 0
4, 17910, Note_on_c, 9, 51, 54
4, 17915, Note_on_c, 9, 62, 32
4, 17920, Note_on_c, 9, 62, 0
4, 17928, Note_on_c, 9, 51, 0
4, 17970, Note_on_c, 9, 51, 74
4, 17974, Note_on_c, 9, 63, 55
4, 17975, Note_on_c, 9, 35, 43
4, 17986, Note_on_c, 9, 35, 0
4, 17986, Note_on_c, 9, 51, 0
4, 17997, Note_on_c, 9, 63, 0
4, 17999, Note_on_c, 9, 35, 28
4, 18011, Note_on_c, 9, 35, 0
4, 18030, Note_on_c, 9, 51, 65
4, 18038, Note_on_c, 9, 51, 0
4, 18088, Note_on_c, 9, 35, 58
4, 18090, Note_on_c, 9, 51, 70
4, 18097, Note_on_c, 9, 35, 0
4, 18105, Note_on_c, 9, 51, 0
4, 18147, Note_on_c, 9, 64, 37
4, 18150, Note_on_c, 9, 51, 70
4, 18156, Note_on_c, 9, 64, 0
4, 18166, Note_on_c, 9, 51, 0
4, 18207, Note_on_c, 9, 35, 58
4, 18210, Note_on_c, 9, 51, 60
4, 18212, Note_on_c, 9, 62, 27
4, 18217, Note_on_c, 9, 35, 0
4, 18218, Note_on_c, 9, 62, 0
4, 18221, Note_on_c, 9, 51, 0
4, 18236, Note_on_c, 9, 35, 45
4, 18240, Note_on_c, 9, 51, 67
4, 18248, Note_on_c, 9, 35, 0
4, 18257, Note_on_c, 9, 51, 0
4, 18300, Note_on_c, 9, 51, 73
4, 18316, Note_on_c, 9, 51, 0
4, 18332, Note_on_c, 9, 35, 56
4, 18335, Note_on_c, 9, 63, 31
4, 18347, Note_on_c, 9, 35, 0
4, 18349, Note_on_c, 9, 63, 0
4, 18361, Note_on_c, 9, 35, 26
4, 18372, Note_on_c, 9, 63, 33
4, 18373, Note_on_c, 9, 35, 0
4, 18390, Note_on_c, 9, 51, 71
4, 18392, Note_on_c, 9, 63, 0
4, 18404, Note_on_c, 9, 51, 0
4, 18416, Note_on_c, 9, 64, 29
4, 18420, Note_on_c, 9, 51, 71
4, 18431, Note_on_c, 9, 64, 0
4, 18437, Note_on_c, 9, 51, 0
4, 18449, Note_on_c, 9, 64, 42
4, 18450, Note_on_c, 9, 51, 60
4, 18455, Note_on_c, 9, 35, 60
4, 18464, Note_on_c, 9, 35, 0
4, 18465, Note_on_c, 9, 64, 0
4, 18466, Note_on_c, 9, 51, 0
4, 18478, Note_on_c, 9, 35, 31
4, 18490, Note_on_c, 9, 35, 0
4, 18510, Note_on_c, 9, 51, 68
4, 18526, Note_on_c, 9, 51, 0
4, 18539, Note_on_c, 9, 63, 30
4, 18552, Note_on_c, 9, 63, 0
4, 18570, Note_on_c, 9, 51, 53
4, 18570, Note_on_c, 9, 35, 57
4, 18573, Note_on_c, 9, 63, 55
4, 18578, Note_on_c, 9, 51, 0
4, 18581, Note_on_c, 9, 35, 0
4, 18600, Note_on_c, 9, 63, 0
4, 18600, Note_on_c, 9, 51, 54
4, 18600, Note_on_c, 9, 35, 26
4, 18611, Note_on_c, 9, 35, 0
4, 18620, Note_on_c, 9, 51, 0
4, 18660, Note_on_c, 9, 51, 60
4, 18663, Note_on_c, 9, 64, 29
4, 18667, Note_on_c, 9, 51, 0
4, 18685, Note_on_c, 9, 64, 0
4, 18690, Note_on_c, 9, 51, 67
4, 18691, Note_on_c, 9, 35, 58
4, 18696, Note_on_c, 9, 64, 56
4, 18706, Note_on_c, 9, 35, 0
4, 18706, Note_on_c, 9, 51, 0
4, 18715, Note_on_c, 9, 35, 20
4, 18723, Note_on_c, 9, 64, 0
4, 18735, Note_on_c, 9, 35, 0
4, 18750, Note_on_c, 9, 51, 71
4, 18754, Note_on_c, 9, 40, 27
4, 18761, Note_on_c, 9, 40, 0
4, 18765, Note_on_c, 9, 51, 0
4, 18810, Note_on_c, 9, 51, 60
4, 18816, Note_on_c, 9, 35, 58
4, 18820, Note_on_c, 9, 51, 0
4, 18840, Note_on_c, 9, 51, 56
4, 18856, Note_on_c, 9, 35, 0
4, 18860, Note_on_c, 9, 51, 0
4, 18870, Note_on_c, 9, 53, 64
4, 18879, Note_on_c, 9, 62, 22
4, 18880, Note_on_c, 9, 40, 42
4, 18885, Note_on_c, 9, 62, 0
4, 18886, Note_on_c, 9, 40, 0
4, 18891, Note_on_c, 9, 53, 0
4, 18904, Note_on_c, 9, 63, 58
4, 18921, Note_on_c, 9, 63, 0
4, 18930, Note_on_c, 9, 51, 73
4, 18934, Note_on_c, 9, 35, 59
4, 18934, Note_on_c, 9, 63, 54
4, 18945, Note_on_c, 9, 51, 0
4, 18955, Note_on_c, 9, 63, 0
4, 18959, Note_on_c, 9, 40, 48
4, 18967, Note_on_c, 9, 40, 0
4, 18973, Note_on_c, 9, 35, 0
4, 18990, Note_on_c, 9, 51, 77
4, 18993, Note_on_c, 9, 62, 23
4, 19000, Note_on_c, 9, 62, 0
4, 19005, Note_on_c, 9, 51, 0
4, 19019, Note_on_c, 9, 64, 28
4, 19035, Note_on_c, 9, 64, 0
4, 19049, Note_on_c, 9, 35, 66
4, 19050, Note_on_c, 9, 51, 67
4, 19050, Note_on_c, 9, 40, 50
4, 19054, Note_on_c, 9, 64, 56
4, 19056, Note_on_c, 9, 40, 0
4, 19064, Note_on_c, 9, 51, 0
4, 19068, Note_on_c, 9, 35, 0
4, 19080, Note_on_c, 9, 51, 64
4, 19081, Note_on_c, 9, 64, 0
4, 19085, Note_on_c, 9, 35, 40
4, 19096, Note_on_c, 9, 51, 0
4, 19106, Note_on_c, 9, 35, 0
4, 19110, Note_on_c, 9, 40, 24
4, 19115, Note_on_c, 9, 40, 0
4, 19136, Note_on_c, 9, 40, 40
4, 19140, Note_on_c, 9, 51, 72
4, 19140, Note_on_c, 9, 63, 21
4, 19142, Note_on_c, 9, 35, 57
4, 19149, Note_on_c, 9, 40, 0
4, 19154, Note_on_c, 9, 63, 0
4, 19155, Note_on_c, 9, 51, 0
4, 19155, Note_on_c, 9, 35, 0
4, 19172, Note_on_c, 9, 63, 41
4, 19185, Note_on_c, 9, 63, 0
4, 19200, Note_on_c, 9, 51, 50
4, 19200, Note_on_c, 9, 35, 61
4, 19200, Note_on_c, 9, 35, 0
4, 19207, Note_on_c, 9, 51, 0
4, 19224, Note_on_c, 9, 40, 36
4, 19230, Note_on_c, 9, 51, 43
4, 19231, Note_on_c, 9, 40, 0
4, 19243, Note_on_c, 9, 51, 0
4, 19258, Note_on_c, 9, 40, 36
4, 19266, Note_on_c, 9, 40, 0
4, 19290, Note_on_c, 9, 51, 78
4, 19291, Note_on_c, 9, 35, 38
4, 19291, Note_on_c, 9, 40, 46
4, 19296, Note_on_c, 9, 64, 38
4, 19299, Note_on_c, 9, 40, 0
4, 19305, Note_on_c, 9, 51, 0
4, 19306, Note_on_c, 9, 64, 0
4, 19311, Note_on_c, 9, 35, 0
4, 19328, Note_on_c, 9, 35, 33
4, 19342, Note_on_c, 9, 35, 0
4, 19356, Note_on_c, 9, 40, 33
4, 19363, Note_on_c, 9, 40, 0
4, 19380, Note_on_c, 9, 51, 48
4, 19383, Note_on_c, 9, 40, 42
4, 19387, Note_on_c, 9, 51, 0
4, 19391, Note_on_c, 9, 40, 0
4, 19410, Note_on_c, 9, 51, 67
4, 19421, Note_on_c, 9, 35, 47
4, 19423, Note_on_c, 9, 51, 0
4, 19430, Note_on_c, 9, 35, 0
4, 19449, Note_on_c, 9, 35, 35
4, 19459, Note_on_c, 9, 35, 0
4, 19470, Note_on_c, 9, 51, 70
4, 19479, Note_on_c, 9, 51, 0
4, 19479, Note_on_c, 9, 63, 30
4, 19497, Note_on_c, 9, 63, 0
4, 19500, Note_on_c, 9, 51, 67
4, 19524, Note_on_c, 9, 63, 39
4, 19525, Note_on_c, 9, 51, 0
4, 19525, Note_on_c, 9, 62, 28
4, 19529, Note_on_c, 9, 35, 56
4, 19531, Note_on_c, 9, 62, 0
4, 19538, Note_on_c, 9, 35, 0
4, 19546, Note_on_c, 9, 63, 0
4, 19559, Note_on_c, 9, 35, 20
4, 19560, Note_on_c, 9, 51, 54
4, 19569, Note_on_c, 9, 64, 27
4, 19570, Note_on_c, 9, 51, 0
4, 19570, Note_on_c, 9, 35, 0
4, 19582, Note_on_c, 9, 64, 0
4, 19592, Note_on_c, 9, 40, 34
4, 19600, Note_on_c, 9, 40, 0
4, 19603, Note_on_c, 9, 64, 42
4, 19614, Note_on_c, 9, 35, 57
4, 19615, Note_on_c, 9, 64, 0
4, 19620, Note_on_c, 9, 51, 36
4, 19623, Note_on_c, 9, 40, 29
4, 19624, Note_on_c, 9, 35, 0
4, 19629, Note_on_c, 9, 51, 0
4, 19632, Note_on_c, 9, 40, 0
4, 19650, Note_on_c, 9, 51, 64
4, 19654, Note_on_c, 9, 40, 66
4, 19660, Note_on_c, 9, 62, 25
4, 19664, Note_on_c, 9, 51, 0
4, 19665, Note_on_c, 9, 62, 0
4, 19666, Note_on_c, 9, 40, 0
4, 19678, Note_on_c, 9, 35, 55
4, 19688, Note_on_c, 9, 35, 0
4, 19710, Note_on_c, 9, 51, 53
4, 19718, Note_on_c, 9, 51, 0
4, 19740, Note_on_c, 9, 51, 55
4, 19762, Note_on_c, 9, 51, 0
4, 19771, Note_on_c, 9, 35, 49
4, 19775, Note_on_c, 9, 63, 23
4, 19781, Note_on_c, 9, 35, 0
4, 19782, Note_on_c, 9, 63, 0
4, 19800, Note_on_c, 9, 51, 63
4, 19801, Note_on_c, 9, 35, 41
4, 19811, Note_on_c, 9, 35, 0
4, 19817, Note_on_c, 9, 51, 0
4, 19856, Note_on_c, 9, 40, 32
4, 19860, Note_on_c, 9, 51, 60
4, 19864, Note_on_c, 9, 40, 0
4, 19865, Note_on_c, 9, 64, 21
4, 19872, Note_on_c, 9, 64, 0
4, 19875, Note_on_c, 9, 51, 0
4, 19890, Note_on_c, 9, 51, 57
4, 19890, Note_on_c, 9, 40, 71
4, 19895, Note_on_c, 9, 35, 43
4, 19895, Note_on_c, 9, 64, 67
4, 19903, Note_on_c, 9, 40, 0
4, 19906, Note_on_c, 9, 35, 0
4, 19910, Note_on_c, 9, 51, 0
4, 19919, Note_on_c, 9, 64, 0
4, 19919, Note_on_c, 9, 35, 28
4, 19931, Note_on_c, 9, 35, 0
4, 19950, Note_on_c, 9, 53, 67
4, 19950, Note_on_c, 9, 40, 24
4, 19951, Note_on_c, 9, 62, 19
4, 19956, Note_on_c, 9, 62, 0
4, 19956, Note_on_c, 9, 40, 0
4, 19959, Note_on_c, 9, 53, 0
4, 19974, Note_on_c, 9, 40, 24
4, 19979, Note_on_c, 9, 63, 35
4, 19983, Note_on_c, 9, 40, 0
4, 19988, Note_on_c, 9, 63, 0
4, 20008, Note_on_c, 9, 35, 58
4, 20009, Note_on_c, 9, 40, 41
4, 20010, Note_on_c, 9, 51, 64
4, 20013, Note_on_c, 9, 63, 68
4, 20016, Note_on_c, 9, 40, 0
4, 20017, Note_on_c, 9, 35, 0
4, 20018, Note_on_c, 9, 51, 0
4, 20033, Note_on_c, 9, 63, 0
4, 20040, Note_on_c, 9, 51, 64
4, 20044, Note_on_c, 9, 40, 38
4, 20051, Note_on_c, 9, 40, 0
4, 20054, Note_on_c, 9, 51, 0
4, 20070, Note_on_c, 9, 62, 25
4, 20078, Note_on_c, 9, 62, 0
4, 20096, Note_on_c, 9, 40, 74
4, 20102, Note_on_c, 9, 64, 37
4, 20116, Note_on_c, 9, 64, 0
4, 20120, Note_on_c, 9, 40, 0
4, 20127, Note_on_c, 9, 35, 58
4, 20130, Note_on_c, 9, 53, 50
4, 20130, Note_on_c, 9, 53, 73
4, 20136, Note_on_c, 9, 64, 61
4, 20137, Note_on_c, 9, 35, 0
4, 20139, Note_on_c, 9, 53, 0
4, 20150, Note_on_c, 9, 53, 0
4, 20156, Note_on_c, 9, 64, 0
4, 20156, Note_on_c, 9, 35, 45
4, 20168, Note_on_c, 9, 35, 0
4, 20190, Note_on_c, 9, 51, 56
4, 20194, Note_on_c, 9, 40, 36
4, 20198, Note_on_c, 9, 51, 0
4, 20201, Note_on_c, 9, 40, 0
4, 20220, Note_on_c, 9, 51, 46
4, 20221, Note_on_c, 9, 63, 43
4, 20233, Note_on_c, 9, 63, 0
4, 20235, Note_on_c, 9, 51, 0
4, 20252, Note_on_c, 9, 35, 56
4, 20255, Note_on_c, 9, 63, 63
4, 20267, Note_on_c, 9, 35, 0
4, 20280, Note_on_c, 9, 51, 73
4, 20281, Note_on_c, 9, 63, 0
4, 20281, Note_on_c, 9, 35, 26
4, 20293, Note_on_c, 9, 35, 0
4, 20295, Note_on_c, 9, 51, 0
4, 20311, Note_on_c, 9, 40, 34
4, 20318, Note_on_c, 9, 40, 0
4, 20339, Note_on_c, 9, 64, 46
4, 20340, Note_on_c, 9, 51, 62
4, 20343, Note_on_c, 9, 40, 24
4, 20351, Note_on_c, 9, 40, 0
4, 20351, Note_on_c, 9, 64, 0
4, 20356, Note_on_c, 9, 51, 0
4, 20373, Note_on_c, 9, 64, 54
4, 20375, Note_on_c, 9, 35, 60
4, 20376, Note_on_c, 9, 40, 26
4, 20382, Note_on_c, 9, 40, 0
4, 20384, Note_on_c, 9, 35, 0
4, 20389, Note_on_c, 9, 64, 0
4, 20398, Note_on_c, 9, 35, 31
4, 20400, Note_on_c, 9, 51, 62
4, 20410, Note_on_c, 9, 35, 0
4, 20414, Note_on_c, 9, 51, 0
4, 20430, Note_on_c, 9, 51, 64
4, 20437, Note_on_c, 9, 40, 33
4, 20445, Note_on_c, 9, 40, 0
4, 20447, Note_on_c, 9, 51, 0
4, 20463, Note_on_c, 9, 63, 27
4, 20470, Note_on_c, 9, 63, 0
4, 20490, Note_on_c, 9, 51, 67
4, 20490, Note_on_c, 9, 35, 57
4, 20492, Note_on_c, 9, 40, 41
4, 20497, Note_on_c, 9, 63, 69
4, 20499, Note_on_c, 9, 40, 0
4, 20501, Note_on_c, 9, 35, 0
4, 20506, Note_on_c, 9, 51, 0
4, 20511, Note_on_c, 9, 63, 0
4, 20520, Note_on_c, 9, 35, 26
4, 20527, Note_on_c, 9, 63, 65
4, 20531, Note_on_c, 9, 35, 0
4, 20549, Note_on_c, 9, 63, 0
4, 20550, Note_on_c, 9, 51, 36
4, 20551, Note_on_c, 9, 40, 30
4, 20557, Note_on_c, 9, 40, 0
4, 20558, Note_on_c, 9, 51, 0
4, 20580, Note_on_c, 9, 51, 36
4, 20580, Note_on_c, 9, 64, 33
4, 20589, Note_on_c, 9, 64, 0
4, 20598, Note_on_c, 9, 51, 0
4, 20611, Note_on_c, 9, 35, 58
4, 20613, Note_on_c, 9, 64, 62
4, 20626, Note_on_c, 9, 35, 0
4, 20634, Note_on_c, 9, 64, 0
4, 20635, Note_on_c, 9, 35, 20
4, 20638, Note_on_c, 9, 40, 46
4, 20645, Note_on_c, 9, 40, 0
4, 20655, Note_on_c, 9, 35, 0
4, 20671, Note_on_c, 9, 63, 23
4, 20676, Note_on_c, 9, 63, 0
4, 20700, Note_on_c, 9, 51, 62
4, 20702, Note_on_c, 9, 63, 69
4, 20710, Note_on_c, 9, 51, 0
4, 20729, Note_on_c, 9, 63, 0
4, 20736, Note_on_c, 9, 35, 58
4, 20759, Note_on_c, 9, 64, 21
4, 20760, Note_on_c, 9, 51, 64
4, 20767, Note_on_c, 9, 51, 0
4, 20768, Note_on_c, 9, 64, 0
4, 20776, Note_on_c, 9, 35, 0
4, 20790, Note_on_c, 9, 51, 48
4, 20793, Note_on_c, 9, 64, 51
4, 20793, Note_on_c, 9, 40, 37
4, 20800, Note_on_c, 9, 40, 0
4, 20805, Note_on_c, 9, 64, 0
4, 20806, Note_on_c, 9, 51, 0
4, 20848, Note_on_c, 9, 63, 43
4, 20850, Note_on_c, 9, 51, 71
4, 20850, Note_on_c, 9, 40, 44
4, 20854, Note_on_c, 9, 35, 59
4, 20856, Note_on_c, 9, 63, 0
4, 20861, Note_on_c, 9, 40, 0
4, 20867, Note_on_c, 9, 51, 0
4, 20893, Note_on_c, 9, 35, 0
4, 20908, Note_on_c, 9, 40, 43
4, 20910, Note_on_c, 9, 51, 65
4, 20910, Note_on_c, 9, 63, 58
4, 20917, Note_on_c, 9, 51, 0
4, 20918, Note_on_c, 9, 40, 0
4, 20920, Note_on_c, 9, 63, 0
4, 20941, Note_on_c, 9, 63, 25
4, 20946, Note_on_c, 9, 63, 0
4, 20966, Note_on_c, 9, 34, 56
4, 20969, Note_on_c, 9, 35, 66
4, 20970, Note_on_c, 9, 51, 61
4, 20970, Note_on_c, 9, 63, 49
4, 20975, Note_on_c, 9, 63, 0
4, 20978, Note_on_c, 9, 34, 0
4, 20985, Note_on_c, 9, 51, 0
4, 20988, Note_on_c, 9, 35, 0
4, 20993, Note_on_c, 9, 63, 61
4, 21000, Note_on_c, 9, 53, 74
4, 21005, Note_on_c, 9, 35, 40
4, 21012, Note_on_c, 9, 53, 0
4, 21025, Note_on_c, 9, 63, 0
4, 21026, Note_on_c, 9, 35, 0
4, 21026, Note_on_c, 9, 34, 67
4, 21042, Note_on_c, 9, 34, 0
4, 21058, Note_on_c, 9, 63, 20
4, 21060, Note_on_c, 9, 59, 84
4, 21062, Note_on_c, 9, 35, 57
4, 21063, Note_on_c, 9, 63, 0
4, 21073, Note_on_c, 9, 59, 0
4, 21075, Note_on_c, 9, 35, 0
4, 21086, Note_on_c, 9, 63, 56
4, 21090, Note_on_c, 9, 34, 57
4, 21100, Note_on_c, 9, 63, 0
4, 21105, Note_on_c, 9, 34, 0
4, 21120, Note_on_c, 9, 59, 84
4, 21120, Note_on_c, 9, 35, 61
4, 21120, Note_on_c, 9, 35, 0
4, 21120, Note_on_c, 9, 57, 60
4, 21120, Note_on_c, 9, 35, 66
4, 21120, Note_on_c, 9, 40, 57
4, 21135, Note_on_c, 9, 59, 0
4, 21137, Note_on_c, 9, 57, 0
4, 21142, Note_on_c, 9, 35, 0
4, 21143, Note_on_c, 9, 40, 0
4, 21210, Note_on_c, 9, 59, 64
4, 21211, Note_on_c, 9, 35, 38
4, 21215, Note_on_c, 9, 64, 63
4, 21216, Note_on_c, 9, 59, 0
4, 21229, Note_on_c, 9, 64, 0
4, 21231, Note_on_c, 9, 35, 0
4, 21240, Note_on_c, 9, 59, 65
4, 21248, Note_on_c, 9, 35, 33
4, 21257, Note_on_c, 9, 59, 0
4, 21262, Note_on_c, 9, 35, 0
4, 21270, Note_on_c, 9, 34, 60
4, 21282, Note_on_c, 9, 34, 0
4, 21301, Note_on_c, 9, 63, 58
4, 21301, Note_on_c, 9, 35, 64
4, 21304, Note_on_c, 9, 57, 57
4, 21304, Note_on_c, 9, 40, 47
4, 21313, Note_on_c, 9, 62, 28
4, 21313, Note_on_c, 9, 62, 0
4, 21321, Note_on_c, 9, 57, 0
4, 21321, Note_on_c, 9, 63, 0
4, 21326, Note_on_c, 9, 40, 0
4, 21327, Note_on_c, 9, 35, 0
4, 21330, Note_on_c, 9, 59, 53
4, 21338, Note_on_c, 9, 59, 0
4, 21341, Note_on_c, 9, 35, 47
4, 21346, Note_on_c, 9, 63, 52
4, 21350, Note_on_c, 9, 35, 0
4, 21350, Note_on_c, 9, 62, 37
4, 21354, Note_on_c, 9, 62, 0
4, 21360, Note_on_c, 9, 59, 59
4, 21366, Note_on_c, 9, 63, 0
4, 21369, Note_on_c, 9, 35, 35
4, 21379, Note_on_c, 9, 35, 0
4, 21379, Note_on_c, 9, 59, 0
4, 21395, Note_on_c, 9, 63, 43
4, 21406, Note_on_c, 9, 63, 0
4, 21433, Note_on_c, 9, 62, 40
4, 21436, Note_on_c, 9, 63, 57
4, 21449, Note_on_c, 9, 62, 0
4, 21449, Note_on_c, 9, 35, 56
4, 21450, Note_on_c, 9, 59, 44
4, 21458, Note_on_c, 9, 59, 0
4, 21458, Note_on_c, 9, 35, 0
4, 21459, Note_on_c, 9, 63, 0
4, 21479, Note_on_c, 9, 35, 20
4, 21480, Note_on_c, 9, 59, 68
4, 21485, Note_on_c, 9, 63, 43
4, 21490, Note_on_c, 9, 35, 0
4, 21496, Note_on_c, 9, 63, 0
4, 21497, Note_on_c, 9, 59, 0
4, 21523, Note_on_c, 9, 62, 40
4, 21525, Note_on_c, 9, 63, 56
4, 21531, Note_on_c, 9, 62, 0
4, 21534, Note_on_c, 9, 35, 57
4, 21540, Note_on_c, 9, 53, 81
4, 21544, Note_on_c, 9, 35, 0
4, 21546, Note_on_c, 9, 63, 0
4, 21555, Note_on_c, 9, 53, 0
4, 21571, Note_on_c, 9, 63, 51
4, 21588, Note_on_c, 9, 63, 0
4, 21598, Note_on_c, 9, 35, 55
4, 21600, Note_on_c, 9, 59, 53
4, 21607, Note_on_c, 9, 64, 44
4, 21608, Note_on_c, 9, 59, 0
4, 21608, Note_on_c, 9, 35, 0
4, 21630, Note_on_c, 9, 59, 63
4, 21639, Note_on_c, 9, 64, 0
4, 21648, Note_on_c, 9, 59, 0
4, 21661, Note_on_c, 9, 63, 32
4, 21669, Note_on_c, 9, 63, 0
4, 21690, Note_on_c, 9, 59, 69
4, 21691, Note_on_c, 9, 35, 49
4, 21697, Note_on_c, 9, 63, 60
4, 21701, Note_on_c, 9, 35, 0
4, 21701, Note_on_c, 9, 59, 0
4, 21718, Note_on_c, 9, 63, 0
4, 21721, Note_on_c, 9, 35, 41
4, 21731, Note_on_c, 9, 35, 0
4, 21750, Note_on_c, 9, 59, 68
4, 21763, Note_on_c, 9, 59, 0
4, 21778, Note_on_c, 9, 40, 33
4, 21779, Note_on_c, 9, 63, 40
4, 21790, Note_on_c, 9, 63, 0
4, 21790, Note_on_c, 9, 40, 0
4, 21810, Note_on_c, 9, 59, 54
4, 21812, Note_on_c, 9, 40, 50
4, 21814, Note_on_c, 9, 63, 58
4, 21815, Note_on_c, 9, 35, 43
4, 21818, Note_on_c, 9, 59, 0
4, 21821, Note_on_c, 9, 40, 0
4, 21826, Note_on_c, 9, 35, 0
4, 21829, Note_on_c, 9, 63, 0
4, 21839, Note_on_c, 9, 35, 28
4, 21840, Note_on_c, 9, 59, 69
4, 21847, Note_on_c, 9, 40, 42
4, 21851, Note_on_c, 9, 35, 0
4, 21856, Note_on_c, 9, 40, 0
4, 21856, Note_on_c, 9, 59, 0
4, 21873, Note_on_c, 9, 63, 31
4, 21880, Note_on_c, 9, 63, 0
4, 21900, Note_on_c, 9, 59, 76
4, 21903, Note_on_c, 9, 63, 21
4, 21907, Note_on_c, 9, 59, 0
4, 21912, Note_on_c, 9, 63, 0
4, 21926, Note_on_c, 9, 40, 51
4, 21928, Note_on_c, 9, 35, 58
4, 21932, Note_on_c, 9, 40, 0
4, 21933, Note_on_c, 9, 63, 50
4, 21937, Note_on_c, 9, 35, 0
4, 21942, Note_on_c, 9, 63, 0
4, 21960, Note_on_c, 9, 59, 54
4, 21961, Note_on_c, 9, 63, 51
4, 21968, Note_on_c, 9, 59, 0
4, 21975, Note_on_c, 9, 63, 0
4, 21990, Note_on_c, 9, 53, 71
4, 21991, Note_on_c, 9, 63, 64
4, 21991, Note_on_c, 9, 40, 41
4, 21999, Note_on_c, 9, 40, 0
4, 21999, Note_on_c, 9, 53, 0
4, 22008, Note_on_c, 9, 63, 0
4, 22018, Note_on_c, 9, 40, 44
4, 22019, Note_on_c, 9, 63, 51
4, 22020, Note_on_c, 9, 59, 76
4, 22038, Note_on_c, 9, 63, 0
4, 22039, Note_on_c, 9, 59, 0
4, 22040, Note_on_c, 9, 40, 0
4, 22047, Note_on_c, 9, 35, 58
4, 22057, Note_on_c, 9, 35, 0
4, 22076, Note_on_c, 9, 35, 45
4, 22080, Note_on_c, 9, 59, 70
4, 22088, Note_on_c, 9, 35, 0
4, 22097, Note_on_c, 9, 59, 0
4, 22115, Note_on_c, 9, 40, 41
4, 22122, Note_on_c, 9, 40, 0
4, 22136, Note_on_c, 9, 64, 30
4, 22140, Note_on_c, 9, 59, 76
4, 22143, Note_on_c, 9, 64, 0
4, 22156, Note_on_c, 9, 59, 0
4, 22164, Note_on_c, 9, 40, 53
4, 22171, Note_on_c, 9, 40, 0
4, 22172, Note_on_c, 9, 35, 56
4, 22172, Note_on_c, 9, 64, 51
4, 22187, Note_on_c, 9, 35, 0
4, 22197, Note_on_c, 9, 40, 60
4, 22200, Note_on_c, 9, 59, 63
4, 22201, Note_on_c, 9, 35, 26
4, 22207, Note_on_c, 9, 59, 0
4, 22208, Note_on_c, 9, 64, 0
4, 22213, Note_on_c, 9, 35, 0
4, 22215, Note_on_c, 9, 40, 0
4, 22230, Note_on_c, 9, 59, 65
4, 22247, Note_on_c, 9, 59, 0
4, 22254, Note_on_c, 9, 63, 39
4, 22270, Note_on_c, 9, 63, 0
4, 22290, Note_on_c, 9, 59, 77
4, 22292, Note_on_c, 9, 63, 48
4, 22295, Note_on_c, 9, 35, 60
4, 22303, Note_on_c, 9, 63, 0
4, 22304, Note_on_c, 9, 35, 0
4, 22304, Note_on_c, 9, 59, 0
4, 22318, Note_on_c, 9, 35, 31
4, 22330, Note_on_c, 9, 35, 0
4, 22339, Note_on_c, 9, 62, 37
4, 22341, Note_on_c, 9, 63, 52
4, 22345, Note_on_c, 9, 62, 0
4, 22350, Note_on_c, 9, 59, 62
4, 22352, Note_on_c, 9, 34, 34
4, 22357, Note_on_c, 9, 59, 0
4, 22360, Note_on_c, 9, 63, 0
4, 22363, Note_on_c, 9, 34, 0
4, 22390, Note_on_c, 9, 63, 51
4, 22396, Note_on_c, 9, 34, 53
4, 22404, Note_on_c, 9, 63, 0
4, 22410, Note_on_c, 9, 59, 68
4, 22410, Note_on_c, 9, 35, 57
4, 22420, Note_on_c, 9, 59, 0
4, 22420, Note_on_c, 9, 34, 0
4, 22421, Note_on_c, 9, 35, 0
4, 22430, Note_on_c, 9, 62, 47
4, 22440, Note_on_c, 9, 35, 26
4, 22440, Note_on_c, 9, 34, 53
4, 22442, Note_on_c, 9, 62, 0
4, 22445, Note_on_c, 9, 63, 54
4, 22451, Note_on_c, 9, 35, 0
4, 22462, Note_on_c, 9, 63, 0
4, 22466, Note_on_c, 9, 34, 0
4, 22470, Note_on_c, 9, 59, 75
4, 22477, Note_on_c, 9, 59, 0
4, 22486, Note_on_c, 9, 63, 53
4, 22496, Note_on_c, 9, 40, 29
4, 22499, Note_on_c, 9, 63, 0
4, 22500, Note_on_c, 9, 59, 71
4, 22505, Note_on_c, 9, 40, 0
4, 22515, Note_on_c, 9, 59, 0
4, 22526, Note_on_c, 9, 62, 47
4, 22531, Note_on_c, 9, 35, 58
4, 22531, Note_on_c, 9, 63, 64
4, 22531, Note_on_c, 9, 40, 74
4, 22538, Note_on_c, 9, 62, 0
4, 22546, Note_on_c, 9, 35, 0
4, 22551, Note_on_c, 9, 63, 0
4, 22555, Note_on_c, 9, 35, 20
4, 22560, Note_on_c, 9, 59, 81
4, 22565, Note_on_c, 9, 40, 0
4, 22566, Note_on_c, 9, 63, 53
4, 22567, Note_on_c, 9, 59, 0
4, 22575, Note_on_c, 9, 35, 0
4, 22587, Note_on_c, 9, 63, 0
4, 22614, Note_on_c, 9, 64, 48
4, 22628, Note_on_c, 9, 64, 0
4, 22650, Note_on_c, 9, 59, 74
4, 22650, Note_on_c, 9, 64, 51
4, 22656, Note_on_c, 9, 35, 58
4, 22658, Note_on_c, 9, 59, 0
4, 22662, Note_on_c, 9, 64, 0
4, 22680, Note_on_c, 9, 59, 72
4, 22694, Note_on_c, 9, 59, 0
4, 22696, Note_on_c, 9, 35, 0
4, 22710, Note_on_c, 9, 59, 66
4, 22726, Note_on_c, 9, 59, 0
4, 22770, Note_on_c, 9, 59, 83
4, 22774, Note_on_c, 9, 35, 59
4, 22783, Note_on_c, 9, 59, 0
4, 22813, Note_on_c, 9, 35, 0
4, 22827, Note_on_c, 9, 34, 38
4, 22830, Note_on_c, 9, 59, 85
4, 22837, Note_on_c, 9, 34, 0
4, 22843, Note_on_c, 9, 59, 0
4, 22860, Note_on_c, 9, 40, 67
4, 22885, Note_on_c, 9, 40, 0
4, 22889, Note_on_c, 9, 35, 66
4, 22890, Note_on_c, 9, 53, 79
4, 22907, Note_on_c, 9, 53, 0
4, 22908, Note_on_c, 9, 35, 0
4, 22920, Note_on_c, 9, 59, 75
4, 22921, Note_on_c, 9, 34, 53
4, 22925, Note_on_c, 9, 35, 40
4, 22929, Note_on_c, 9, 59, 0
4, 22936, Note_on_c, 9, 34, 0
4, 22946, Note_on_c, 9, 35, 0
4, 22953, Note_on_c, 9, 40, 51
4, 22971, Note_on_c, 9, 40, 0
4, 22980, Note_on_c, 9, 59, 79
4, 22980, Note_on_c, 9, 63, 49
4, 22982, Note_on_c, 9, 35, 57
4, 22989, Note_on_c, 9, 63, 0
4, 22989, Note_on_c, 9, 59, 0
4, 22995, Note_on_c, 9, 35, 0
4, 23013, Note_on_c, 9, 63, 63
4, 23029, Note_on_c, 9, 63, 0
4, 23040, Note_on_c, 9, 59, 82
4, 23040, Note_on_c, 9, 35, 61
4, 23040, Note_on_c, 9, 35, 0
4, 23052, Note_on_c, 9, 59, 0
4, 23100, Note_on_c, 9, 59, 74
4, 23102, Note_on_c, 9, 64, 36
4, 23107, Note_on_c, 9, 59, 0
4, 23114, Note_on_c, 9, 64, 0
4, 23131, Note_on_c, 9, 35, 38
4, 23137, Note_on_c, 9, 64, 46
4, 23150, Note_on_c, 9, 64, 0
4, 23151, Note_on_c, 9, 35, 0
4, 23160, Note_on_c, 9, 59, 60
4, 23168, Note_on_c, 9, 35, 33
4, 23169, Note_on_c, 9, 59, 0
4, 23182, Note_on_c, 9, 35, 0
4, 23190, Note_on_c, 9, 59, 47
4, 23198, Note_on_c, 9, 59, 0
4, 23225, Note_on_c, 9, 63, 55
4, 23248, Note_on_c, 9, 63, 0
4, 23250, Note_on_c, 9, 59, 67
4, 23259, Note_on_c, 9, 59, 0
4, 23260, Note_on_c, 9, 63, 44
4, 23261, Note_on_c, 9, 35, 47
4, 23270, Note_on_c, 9, 35, 0
4, 23280, Note_on_c, 9, 63, 0
4, 23289, Note_on_c, 9, 35, 35
4, 23299, Note_on_c, 9, 35, 0
4, 23310, Note_on_c, 9, 59, 68
4, 23328, Note_on_c, 9, 59, 0
4, 23369, Note_on_c, 9, 35, 56
4, 23370, Note_on_c, 9, 59, 58
4, 23375, Note_on_c, 9, 34, 33
4, 23378, Note_on_c, 9, 59, 0
4, 23378, Note_on_c, 9, 35, 0
4, 23387, Note_on_c, 9, 34, 0
4, 23399, Note_on_c, 9, 35, 20
4, 23400, Note_on_c, 9, 59, 60
4, 23410, Note_on_c, 9, 35, 0
4, 23411, Note_on_c, 9, 40, 27
4, 23420, Note_on_c, 9, 40, 0
4, 23422, Note_on_c, 9, 59, 0
4, 23440, Note_on_c, 9, 40, 68
4, 23445, Note_on_c, 9, 62, 21
4, 23450, Note_on_c, 9, 62, 0
4, 23454, Note_on_c, 9, 35, 57
4, 23458, Note_on_c, 9, 40, 0
4, 23460, Note_on_c, 9, 59, 71
4, 23464, Note_on_c, 9, 35, 0
4, 23469, Note_on_c, 9, 63, 35
4, 23475, Note_on_c, 9, 59, 0
4, 23475, Note_on_c, 9, 40, 48
4, 23480, Note_on_c, 9, 63, 0
4, 23490, Note_on_c, 9, 59, 68
4, 23491, Note_on_c, 9, 40, 0
4, 23506, Note_on_c, 9, 59, 0
4, 23506, Note_on_c, 9, 63, 49
4, 23518, Note_on_c, 9, 35, 55
4, 23521, Note_on_c, 9, 63, 0
4, 23528, Note_on_c, 9, 35, 0
4, 23529, Note_on_c, 9, 40, 55
4, 23542, Note_on_c, 9, 40, 0
4, 23550, Note_on_c, 9, 59, 71
4, 23551, Note_on_c, 9, 63, 48
4, 23565, Note_on_c, 9, 59, 0
4, 23567, Note_on_c, 9, 63, 0
4, 23580, Note_on_c, 9, 59, 62
4, 23597, Note_on_c, 9, 59, 0
4, 23611, Note_on_c, 9, 35, 49
4, 23621, Note_on_c, 9, 35, 0
4, 23640, Note_on_c, 9, 59, 64
4, 23641, Note_on_c, 9, 35, 41
4, 23648, Note_on_c, 9, 59, 0
4, 23651, Note_on_c, 9, 35, 0
4, 23700, Note_on_c, 9, 59, 81
4, 23706, Note_on_c, 9, 64, 40
4, 23713, Note_on_c, 9, 59, 0
4, 23718, Note_on_c, 9, 64, 0
4, 23735, Note_on_c, 9, 35, 43
4, 23737, Note_on_c, 9, 64, 45
4, 23746, Note_on_c, 9, 35, 0
4, 23748, Note_on_c, 9, 64, 0
4, 23759, Note_on_c, 9, 35, 28
4, 23760, Note_on_c, 9, 59, 87
4, 23771, Note_on_c, 9, 35, 0
4, 23773, Note_on_c, 9, 59, 0
4, 23790, Note_on_c, 9, 59, 68
4, 23804, Note_on_c, 9, 59, 0
4, 23826, Note_on_c, 9, 63, 31
4, 23838, Note_on_c, 9, 63, 0
4, 23848, Note_on_c, 9, 35, 58
4, 23850, Note_on_c, 9, 53, 76
4, 23857, Note_on_c, 9, 35, 0
4, 23858, Note_on_c, 9, 63, 51
4, 23859, Note_on_c, 9, 53, 0
4, 23874, Note_on_c, 9, 63, 0
4, 23880, Note_on_c, 9, 59, 81
4, 23895, Note_on_c, 9, 59, 0
4, 23940, Note_on_c, 9, 59, 73
4, 23946, Note_on_c, 9, 64, 31
4, 23948, Note_on_c, 9, 59, 0
4, 23964, Note_on_c, 9, 64, 0
4, 23967, Note_on_c, 9, 35, 58
4, 23977, Note_on_c, 9, 35, 0
4, 23979, Note_on_c, 9, 64, 38
4, 23992, Note_on_c, 9, 64, 0
4, 23996, Note_on_c, 9, 35, 45
4, 24000, Note_on_c, 9, 59, 71
4, 24008, Note_on_c, 9, 59, 0
4, 24008, Note_on_c, 9, 35, 0
4, 24060, Note_on_c, 9, 59, 62
4, 24067, Note_on_c, 9, 63, 46
4, 24071, Note_on_c, 9, 59, 0
4, 24089, Note_on_c, 9, 63, 0
4, 24092, Note_on_c, 9, 35, 56
4, 24107, Note_on_c, 9, 35, 0
4, 24120, Note_on_c, 9, 59, 72
4, 24121, Note_on_c, 9, 35, 26
4, 24129, Note_on_c, 9, 59, 0
4, 24133, Note_on_c, 9, 35, 0
4, 24150, Note_on_c, 9, 59, 55
4, 24158, Note_on_c, 9, 40, 36
4, 24163, Note_on_c, 9, 59, 0
4, 24166, Note_on_c, 9, 40, 0
4, 24190, Note_on_c, 9, 64, 28
4, 24205, Note_on_c, 9, 64, 0
4, 24210, Note_on_c, 9, 59, 76
4, 24215, Note_on_c, 9, 35, 60
4, 24217, Note_on_c, 9, 59, 0
4, 24220, Note_on_c, 9, 64, 46
4, 24224, Note_on_c, 9, 35, 0
4, 24235, Note_on_c, 9, 64, 0
4, 24238, Note_on_c, 9, 35, 31
4, 24250, Note_on_c, 9, 35, 0
4, 24270, Note_on_c, 9, 59, 50
4, 24278, Note_on_c, 9, 59, 0
4, 24305, Note_on_c, 9, 63, 37
4, 24315, Note_on_c, 9, 63, 0
4, 24330, Note_on_c, 9, 59, 71
4, 24330, Note_on_c, 9, 35, 57
4, 24336, Note_on_c, 9, 63, 53
4, 24337, Note_on_c, 9, 40, 43
4, 24341, Note_on_c, 9, 35, 0
4, 24344, Note_on_c, 9, 40, 0
4, 24345, Note_on_c, 9, 59, 0
4, 24356, Note_on_c, 9, 63, 0
4, 24360, Note_on_c, 9, 59, 66
4, 24360, Note_on_c, 9, 35, 26
4, 24368, Note_on_c, 9, 59, 0
4, 24371, Note_on_c, 9, 35, 0
4, 24421, Note_on_c, 9, 64, 47
4, 24435, Note_on_c, 9, 64, 0
4, 24450, Note_on_c, 9, 59, 69
4, 24451, Note_on_c, 9, 35, 58
4, 24456, Note_on_c, 9, 64, 51
4, 24459, Note_on_c, 9, 40, 46
4, 24461, Note_on_c, 9, 59, 0
4, 24465, Note_on_c, 9, 40, 0
4, 24466, Note_on_c, 9, 35, 0
4, 24471, Note_on_c, 9, 64, 0
4, 24475, Note_on_c, 9, 35, 20
4, 24480, Note_on_c, 9, 59, 71
4, 24493, Note_on_c, 9, 59, 0
4, 24495, Note_on_c, 9, 35, 0
4, 24540, Note_on_c, 9, 63, 45
4, 24540, Note_on_c, 9, 40, 31
4, 24549, Note_on_c, 9, 40, 0
4, 24557, Note_on_c, 9, 63, 0
4, 24570, Note_on_c, 9, 59, 68
4, 24574, Note_on_c, 9, 40, 36
4, 24576, Note_on_c, 9, 35, 58
4, 24578, Note_on_c, 9, 63, 49
4, 24581, Note_on_c, 9, 40, 0
4, 24588, Note_on_c, 9, 59, 0
4, 24597, Note_on_c, 9, 63, 0
4, 24600, Note_on_c, 9, 59, 66
4, 24616, Note_on_c, 9, 35, 0
4, 24617, Note_on_c, 9, 59, 0
4, 24628, Note_on_c, 9, 34, 42
4, 24642, Note_on_c, 9, 34, 0
4, 24657, Note_on_c, 9, 64, 44
4, 24678, Note_on_c, 9, 64, 0
4, 24690, Note_on_c, 9, 59, 71
4, 24693, Note_on_c, 9, 64, 35
4, 24694, Note_on_c, 9, 35, 59
4, 24708, Note_on_c, 9, 64, 0
4, 24708, Note_on_c, 9, 59, 0
4, 24720, Note_on_c, 9, 59, 68
4, 24731, Note_on_c, 9, 59, 0
4, 24733, Note_on_c, 9, 35, 0
4, 24750, Note_on_c, 9, 53, 63
4, 24759, Note_on_c, 9, 53, 0
4, 24790, Note_on_c, 9, 40, 26
4, 24798, Note_on_c, 9, 40, 0
4, 24809, Note_on_c, 9, 35, 66
4, 24810, Note_on_c, 9, 59, 74
4, 24811, Note_on_c, 9, 63, 42
4, 24817, Note_on_c, 9, 40, 44
4, 24825, Note_on_c, 9, 63, 0
4, 24826, Note_on_c, 9, 40, 0
4, 24828, Note_on_c, 9, 59, 0
4, 24828, Note_on_c, 9, 35, 0
4, 24843, Note_on_c, 9, 40, 33
4, 24845, Note_on_c, 9, 35, 40
4, 24851, Note_on_c, 9, 40, 0
4, 24866, Note_on_c, 9, 35, 0
4, 24870, Note_on_c, 9, 53, 62
4, 24879, Note_on_c, 9, 53, 0
4, 24896, Note_on_c, 9, 64, 44
4, 24900, Note_on_c, 9, 59, 74
4, 24902, Note_on_c, 9, 35, 57
4, 24915, Note_on_c, 9, 35, 0
4, 24920, Note_on_c, 9, 64, 0
4, 24923, Note_on_c, 9, 59, 0
4, 24940, Note_on_c, 9, 40, 60
4, 24947, Note_on_c, 9, 40, 0
4, 24960, Note_on_c, 9, 59, 63
4, 24960, Note_on_c, 9, 35, 61
4, 24960, Note_on_c, 9, 35, 0
4, 24968, Note_on_c, 9, 59, 0
4, 24968, Note_on_c, 9, 40, 24
4, 24974, Note_on_c, 9, 40, 0
4, 24990, Note_on_c, 9, 53, 71
4, 25005, Note_on_c, 9, 53, 0
4, 25025, Note_on_c, 9, 63, 30
4, 25042, Note_on_c, 9, 63, 0
4, 25050, Note_on_c, 9, 59, 65
4, 25051, Note_on_c, 9, 35, 38
4, 25057, Note_on_c, 9, 63, 44
4, 25059, Note_on_c, 9, 59, 0
4, 25071, Note_on_c, 9, 35, 0
4, 25077, Note_on_c, 9, 63, 0
4, 25080, Note_on_c, 9, 59, 76
4, 25088, Note_on_c, 9, 35, 33
4, 25095, Note_on_c, 9, 59, 0
4, 25102, Note_on_c, 9, 35, 0
4, 25140, Note_on_c, 9, 53, 58
4, 25142, Note_on_c, 9, 64, 49
4, 25148, Note_on_c, 9, 53, 0
4, 25166, Note_on_c, 9, 64, 0
4, 25170, Note_on_c, 9, 59, 75
4, 25177, Note_on_c, 9, 64, 46
4, 25181, Note_on_c, 9, 35, 47
4, 25187, Note_on_c, 9, 59, 0
4, 25190, Note_on_c, 9, 35, 0
4, 25195, Note_on_c, 9, 64, 0
4, 25209, Note_on_c, 9, 35, 35
4, 25219, Note_on_c, 9, 35, 0
4, 25230, Note_on_c, 9, 53, 57
4, 25238, Note_on_c, 9, 53, 0
4, 25260, Note_on_c, 9, 59, 80
4, 25276, Note_on_c, 9, 59, 0
4, 25287, Note_on_c, 9, 62, 24
4, 25289, Note_on_c, 9, 35, 56
4, 25292, Note_on_c, 9, 62, 0
4, 25295, Note_on_c, 9, 40, 41
4, 25298, Note_on_c, 9, 35, 0
4, 25298, Note_on_c, 9, 63, 56
4, 25302, Note_on_c, 9, 40, 0
4, 25319, Note_on_c, 9, 35, 20
4, 25320, Note_on_c, 9, 59, 70
4, 25323, Note_on_c, 9, 63, 0
4, 25330, Note_on_c, 9, 35, 0
4, 25331, Note_on_c, 9, 59, 0
4, 25352, Note_on_c, 9, 63, 52
4, 25370, Note_on_c, 9, 63, 0
4, 25374, Note_on_c, 9, 35, 57
4, 25380, Note_on_c, 9, 59, 74
4, 25384, Note_on_c, 9, 35, 0
4, 25392, Note_on_c, 9, 40, 36
4, 25396, Note_on_c, 9, 59, 0
4, 25399, Note_on_c, 9, 40, 0
4, 25403, Note_on_c, 9, 62, 47
4, 25409, Note_on_c, 9, 63, 52
4, 25418, Note_on_c, 9, 62, 0
4, 25434, Note_on_c, 9, 63, 0
4, 25438, Note_on_c, 9, 35, 55
4, 25440, Note_on_c, 9, 59, 78
4, 25448, Note_on_c, 9, 35, 0
4, 25449, Note_on_c, 9, 63, 45
4, 25456, Note_on_c, 9, 59, 0
4, 25470, Note_on_c, 9, 63, 0
4, 25470, Note_on_c, 9, 59, 67
4, 25485, Note_on_c, 9, 59, 0
4, 25501, Note_on_c, 9, 64, 27
4, 25520, Note_on_c, 9, 64, 0
4, 25530, Note_on_c, 9, 53, 71
4, 25531, Note_on_c, 9, 35, 49
4, 25536, Note_on_c, 9, 64, 44
4, 25541, Note_on_c, 9, 35, 0
4, 25541, Note_on_c, 9, 53, 0
4, 25556, Note_on_c, 9, 64, 0
4, 25561, Note_on_c, 9, 35, 41
4, 25571, Note_on_c, 9, 35, 0
4, 25590, Note_on_c, 9, 59, 70
4, 25609, Note_on_c, 9, 59, 0
4, 25620, Note_on_c, 9, 59, 74
4, 25635, Note_on_c, 9, 59, 0
4, 25655, Note_on_c, 9, 35, 43
4, 25664, Note_on_c, 9, 62, 31
4, 25666, Note_on_c, 9, 35, 0
4, 25668, Note_on_c, 9, 62, 0
4, 25679, Note_on_c, 9, 35, 28
4, 25680, Note_on_c, 9, 59, 80
4, 25691, Note_on_c, 9, 35, 0
4, 25696, Note_on_c, 9, 59, 0
4, 25710, Note_on_c, 9, 53, 64
4, 25722, Note_on_c, 9, 53, 0
4, 25768, Note_on_c, 9, 35, 58
4, 25770, Note_on_c, 9, 59, 75
4, 25777, Note_on_c, 9, 35, 0
4, 25786, Note_on_c, 9, 59, 0
4, 25830, Note_on_c, 9, 59, 72
4, 25848, Note_on_c, 9, 59, 0
4, 25860, Note_on_c, 9, 59, 69
4, 25866, Note_on_c, 9, 64, 35
4, 25874, Note_on_c, 9, 59, 0
4, 25876, Note_on_c, 9, 64, 0
4, 25887, Note_on_c, 9, 35, 58
4, 25897, Note_on_c, 9, 35, 0
4, 25900, Note_on_c, 9, 64, 55
4, 25916, Note_on_c, 9, 35, 45
4, 25919, Note_on_c, 9, 64, 0
4, 25920, Note_on_c, 9, 53, 62
4, 25928, Note_on_c, 9, 35, 0
4, 25942, Note_on_c, 9, 53, 0
4, 25980, Note_on_c, 9, 59, 67
4, 25987, Note_on_c, 9, 63, 23
4, 25988, Note_on_c, 9, 59, 0
4, 25999, Note_on_c, 9, 63, 0
4, 26012, Note_on_c, 9, 35, 56
4, 26013, Note_on_c, 9, 40, 47
4, 26018, Note_on_c, 9, 40, 0
4, 26023, Note_on_c, 9, 63, 65
4, 26027, Note_on_c, 9, 35, 0
4, 26040, Note_on_c, 9, 59, 81
4, 26041, Note_on_c, 9, 35, 26
4, 26046, Note_on_c, 9, 63, 0
4, 26053, Note_on_c, 9, 35, 0
4, 26054, Note_on_c, 9, 59, 0
4, 26070, Note_on_c, 9, 59, 78
4, 26085, Note_on_c, 9, 59, 0
4, 26115, Note_on_c, 9, 64, 28
4, 26127, Note_on_c, 9, 64, 0
4, 26130, Note_on_c, 9, 53, 71
4, 26135, Note_on_c, 9, 35, 60
4, 26143, Note_on_c, 9, 40, 29
4, 26144, Note_on_c, 9, 35, 0
4, 26145, Note_on_c, 9, 53, 0
4, 26149, Note_on_c, 9, 64, 51
4, 26150, Note_on_c, 9, 40, 0
4, 26158, Note_on_c, 9, 35, 31
4, 26170, Note_on_c, 9, 35, 0
4, 26180, Note_on_c, 9, 64, 0
4, 26190, Note_on_c, 9, 59, 83
4, 26205, Note_on_c, 9, 62, 22
4, 26206, Note_on_c, 9, 59, 0
4, 26210, Note_on_c, 9, 62, 0
4, 26232, Note_on_c, 9, 63, 31
4, 26250, Note_on_c, 9, 59, 84
4, 26250, Note_on_c, 9, 35, 57
4, 26251, Note_on_c, 9, 63, 0
4, 26259, Note_on_c, 9, 40, 40
4, 26261, Note_on_c, 9, 35, 0
4, 26265, Note_on_c, 9, 63, 49
4, 26266, Note_on_c, 9, 40, 0
4, 26266, Note_on_c, 9, 59, 0
4, 26280, Note_on_c, 9, 59, 74
4, 26280, Note_on_c, 9, 35, 26
4, 26287, Note_on_c, 9, 40, 47
4, 26291, Note_on_c, 9, 35, 0
4, 26294, Note_on_c, 9, 63, 0
4, 26297, Note_on_c, 9, 40, 0
4, 26298, Note_on_c, 9, 59, 0
4, 26325, Note_on_c, 9, 62, 22
4, 26331, Note_on_c, 9, 62, 0
4, 26340, Note_on_c, 9, 59, 79
4, 26352, Note_on_c, 9, 64, 35
4, 26356, Note_on_c, 9, 59, 0
4, 26366, Note_on_c, 9, 64, 0
4, 26371, Note_on_c, 9, 35, 58
4, 26385, Note_on_c, 9, 64, 56
4, 26386, Note_on_c, 9, 35, 0
4, 26395, Note_on_c, 9, 35, 20
4, 26415, Note_on_c, 9, 35, 0
4, 26418, Note_on_c, 9, 64, 0
4, 26430, Note_on_c, 9, 59, 84
4, 26445, Note_on_c, 9, 59, 0
4, 26460, Note_on_c, 9, 59, 71
4, 26467, Note_on_c, 9, 63, 30
4, 26469, Note_on_c, 9, 59, 0
4, 26483, Note_on_c, 9, 63, 0
4, 26496, Note_on_c, 9, 35, 58
4, 26501, Note_on_c, 9, 63, 58
4, 26501, Note_on_c, 9, 40, 53
4, 26510, Note_on_c, 9, 40, 0
4, 26520, Note_on_c, 9, 59, 75
4, 26532, Note_on_c, 9, 63, 0
4, 26536, Note_on_c, 9, 35, 0
4, 26537, Note_on_c, 9, 59, 0
4, 26550, Note_on_c, 9, 59, 80
4, 26559, Note_on_c, 9, 40, 55
4, 26566, Note_on_c, 9, 59, 0
4, 26568, Note_on_c, 9, 40, 0
4, 26586, Note_on_c, 9, 64, 46
4, 26599, Note_on_c, 9, 64, 0
4, 26610, Note_on_c, 9, 59, 77
4, 26614, Note_on_c, 9, 35, 59
4, 26614, Note_on_c, 9, 40, 52
4, 26619, Note_on_c, 9, 64, 61
4, 26622, Note_on_c, 9, 40, 0
4, 26627, Note_on_c, 9, 59, 0
4, 26653, Note_on_c, 9, 35, 0
4, 26655, Note_on_c, 9, 64, 0
4, 26670, Note_on_c, 9, 59, 75
4, 26674, Note_on_c, 9, 62, 32
4, 26675, Note_on_c, 9, 40, 49
4, 26679, Note_on_c, 9, 62, 0
4, 26683, Note_on_c, 9, 40, 0
4, 26688, Note_on_c, 9, 59, 0
4, 26704, Note_on_c, 9, 63, 20
4, 26711, Note_on_c, 9, 63, 0
4, 26729, Note_on_c, 9, 35, 66
4, 26730, Note_on_c, 9, 59, 66
4, 26730, Note_on_c, 9, 40, 63
4, 26735, Note_on_c, 9, 63, 58
4, 26738, Note_on_c, 9, 40, 0
4, 26738, Note_on_c, 9, 59, 0
4, 26748, Note_on_c, 9, 35, 0
4, 26751, Note_on_c, 9, 63, 0
4, 26760, Note_on_c, 9, 59, 72
4, 26764, Note_on_c, 9, 63, 50
4, 26765, Note_on_c, 9, 35, 40
4, 26765, Note_on_c, 9, 40, 37
4, 26773, Note_on_c, 9, 40, 0
4, 26775, Note_on_c, 9, 59, 0
4, 26786, Note_on_c, 9, 35, 0
4, 26786, Note_on_c, 9, 63, 0
4, 26816, Note_on_c, 9, 34, 61
4, 26820, Note_on_c, 9, 59, 78
4, 26822, Note_on_c, 9, 35, 57
4, 26824, Note_on_c, 9, 64, 37
4, 26835, Note_on_c, 9, 35, 0
4, 26835, Note_on_c, 9, 34, 0
4, 26835, Note_on_c, 9, 59, 0
4, 26838, Note_on_c, 9, 64, 0
4, 26856, Note_on_c, 9, 64, 50
4, 26871, Note_on_c, 9, 64, 0
4, 26876, Note_on_c, 9, 35, 63
4, 26877, Note_on_c, 9, 57, 55
4, 26880, Note_on_c, 9, 59, 82
4, 26880, Note_on_c, 9, 59, 61
4, 26883, Note_on_c, 9, 57, 0
4, 26883, Note_on_c, 9, 64, 44
4, 26888, Note_on_c, 9, 35, 0
4, 26889, Note_on_c, 9, 59, 0
4, 26889, Note_on_c, 9, 59, 0
4, 26894, Note_on_c, 9, 64, 0
4, 26940, Note_on_c, 9, 59, 64
4, 26947, Note_on_c, 9, 59, 0
4, 26947, Note_on_c, 9, 64, 54
4, 26957, Note_on_c, 9, 64, 0
4, 26969, Note_on_c, 9, 35, 39
4, 26975, Note_on_c, 9, 35, 0
4, 26978, Note_on_c, 9, 64, 76
4, 26992, Note_on_c, 9, 64, 0
4, 26999, Note_on_c, 9, 35, 41
4, 27000, Note_on_c, 9, 59, 55
4, 27009, Note_on_c, 9, 59, 0
4, 27013, Note_on_c, 9, 35, 0
4, 27030, Note_on_c, 9, 59, 57
4, 27039, Note_on_c, 9, 59, 0
4, 27041, Note_on_c, 9, 62, 29
4, 27046, Note_on_c, 9, 62, 0
4, 27065, Note_on_c, 9, 63, 34
4, 27073, Note_on_c, 9, 63, 0
4, 27090, Note_on_c, 9, 59, 53
4, 27091, Note_on_c, 9, 63, 94
4, 27093, Note_on_c, 9, 35, 49
4, 27098, Note_on_c, 9, 35, 0
4, 27098, Note_on_c, 9, 59, 0
4, 27108, Note_on_c, 9, 63, 0
4, 27150, Note_on_c, 9, 59, 54
4, 27159, Note_on_c, 9, 59, 0
4, 27180, Note_on_c, 9, 64, 42
4, 27196, Note_on_c, 9, 64, 0
4, 27210, Note_on_c, 9, 59, 58
4, 27210, Note_on_c, 9, 64, 71
4, 27211, Note_on_c, 9, 35, 49
4, 27216, Note_on_c, 9, 59, 0
4, 27217, Note_on_c, 9, 35, 0
4, 27224, Note_on_c, 9, 64, 0
4, 27237, Note_on_c, 9, 35, 48
4, 27262, Note_on_c, 9, 35, 0
4, 27270, Note_on_c, 9, 59, 68
4, 27286, Note_on_c, 9, 59, 0
4, 27296, Note_on_c, 9, 63, 35
4, 27299, Note_on_c, 9, 40, 51
4, 27300, Note_on_c, 9, 59, 47
4, 27306, Note_on_c, 9, 63, 0
4, 27307, Note_on_c, 9, 59, 0
4, 27309, Note_on_c, 9, 40, 0
4, 27323, Note_on_c, 9, 63, 97
4, 27331, Note_on_c, 9, 40, 69
4, 27336, Note_on_c, 9, 40, 0
4, 27341, Note_on_c, 9, 63, 0
4, 27351, Note_on_c, 9, 63, 90
4, 27360, Note_on_c, 9, 59, 63
4, 27369, Note_on_c, 9, 59, 0
4, 27372, Note_on_c, 9, 63, 0
4, 27420, Note_on_c, 9, 59, 68
4, 27420, Note_on_c, 9, 64, 28
4, 27428, Note_on_c, 9, 59, 0
4, 27440, Note_on_c, 9, 64, 0
4, 27450, Note_on_c, 9, 35, 43
4, 27453, Note_on_c, 9, 64, 64
4, 27457, Note_on_c, 9, 35, 0
4, 27474, Note_on_c, 9, 64, 0
4, 27480, Note_on_c, 9, 59, 71
4, 27491, Note_on_c, 9, 59, 0
4, 27548, Note_on_c, 9, 63, 20
4, 27558, Note_on_c, 9, 63, 0
4, 27570, Note_on_c, 9, 59, 62
4, 27576, Note_on_c, 9, 63, 40
4, 27579, Note_on_c, 9, 59, 0
4, 27579, Note_on_c, 9, 35, 18
4, 27586, Note_on_c, 9, 35, 0
4, 27590, Note_on_c, 9, 63, 0
4, 27600, Note_on_c, 9, 59, 57
4, 27604, Note_on_c, 9, 35, 32
4, 27617, Note_on_c, 9, 59, 0
4, 27618, Note_on_c, 9, 35, 0
4, 27630, Note_on_c, 9, 59, 56
4, 27640, Note_on_c, 9, 59, 0
4, 27661, Note_on_c, 9, 64, 60
4, 27667, Note_on_c, 9, 64, 0
4, 27690, Note_on_c, 9, 59, 66
4, 27695, Note_on_c, 9, 62, 64
4, 27695, Note_on_c, 9, 35, 47
4, 27699, Note_on_c, 9, 64, 90
4, 27701, Note_on_c, 9, 35, 0
4, 27702, Note_on_c, 9, 59, 0
4, 27704, Note_on_c, 9, 62, 0
4, 27717, Note_on_c, 9, 64, 0
4, 27736, Note_on_c, 9, 62, 41
4, 27740, Note_on_c, 9, 62, 0
4, 27743, Note_on_c, 9, 64, 76
4, 27750, Note_on_c, 9, 59, 58
4, 27757, Note_on_c, 9, 59, 0
4, 27758, Note_on_c, 9, 64, 0
4, 27778, Note_on_c, 9, 62, 53
4, 27780, Note_on_c, 9, 59, 63
4, 27782, Note_on_c, 9, 62, 0
4, 27787, Note_on_c, 9, 64, 74
4, 27798, Note_on_c, 9, 59, 0
4, 27800, Note_on_c, 9, 64, 0
4, 27812, Note_on_c, 9, 35, 42
4, 27825, Note_on_c, 9, 35, 0
4, 27828, Note_on_c, 9, 64, 70
4, 27838, Note_on_c, 9, 64, 0
4, 27840, Note_on_c, 9, 59, 61
4, 27841, Note_on_c, 9, 35, 48
4, 27848, Note_on_c, 9, 59, 0
4, 27857, Note_on_c, 9, 35, 0
4, 27900, Note_on_c, 9, 59, 61
4, 27902, Note_on_c, 9, 63, 42
4, 27907, Note_on_c, 9, 63, 0
4, 27911, Note_on_c, 9, 59, 0
4, 27932, Note_on_c, 9, 63, 90
4, 27944, Note_on_c, 9, 35, 36
4, 27950, Note_on_c, 9, 63, 0
4, 27951, Note_on_c, 9, 35, 0
4, 27960, Note_on_c, 9, 53, 36
4, 27968, Note_on_c, 9, 53, 0
4, 27990, Note_on_c, 9, 59, 61
4, 28000, Note_on_c, 9, 59, 0
4, 28017, Note_on_c, 9, 64, 33
4, 28029, Note_on_c, 9, 64, 0
4, 28050, Note_on_c, 9, 59, 64
4, 28050, Note_on_c, 9, 64, 48
4, 28056, Note_on_c, 9, 35, 36
4, 28059, Note_on_c, 9, 59, 0
4, 28061, Note_on_c, 9, 64, 0
4, 28065, Note_on_c, 9, 35, 0
4, 28109, Note_on_c, 9, 62, 48
4, 28110, Note_on_c, 9, 59, 60
4, 28116, Note_on_c, 9, 63, 31
4, 28120, Note_on_c, 9, 59, 0
4, 28126, Note_on_c, 9, 62, 0
4, 28132, Note_on_c, 9, 63, 0
4, 28159, Note_on_c, 9, 63, 65
4, 28164, Note_on_c, 9, 62, 54
4, 28169, Note_on_c, 9, 62, 0
4, 28170, Note_on_c, 9, 59, 56
4, 28170, Note_on_c, 9, 35, 35
4, 28171, Note_on_c, 9, 63, 0
4, 28177, Note_on_c, 9, 35, 0
4, 28179, Note_on_c, 9, 59, 0
4, 28200, Note_on_c, 9, 59, 57
4, 28203, Note_on_c, 9, 63, 59
4, 28208, Note_on_c, 9, 62, 37
4, 28212, Note_on_c, 9, 62, 0
4, 28219, Note_on_c, 9, 63, 0
4, 28220, Note_on_c, 9, 59, 0
4, 28234, Note_on_c, 9, 40, 48
4, 28240, Note_on_c, 9, 40, 0
4, 28260, Note_on_c, 9, 59, 66
4, 28260, Note_on_c, 9, 40, 38
4, 28263, Note_on_c, 9, 64, 43
4, 28266, Note_on_c, 9, 40, 0
4, 28268, Note_on_c, 9, 59, 0
4, 28270, Note_on_c, 9, 64, 0
4, 28290, Note_on_c, 9, 59, 66
4, 28292, Note_on_c, 9, 64, 79
4, 28292, Note_on_c, 9, 35, 38
4, 28302, Note_on_c, 9, 35, 0
4, 28310, Note_on_c, 9, 59, 0
4, 28319, Note_on_c, 9, 64, 0
4, 28321, Note_on_c, 9, 35, 35
4, 28333, Note_on_c, 9, 35, 0
4, 28350, Note_on_c, 9, 53, 68
4, 28358, Note_on_c, 9, 53, 0
4, 28379, Note_on_c, 9, 63, 40
4, 28380, Note_on_c, 9, 59, 37
4, 28393, Note_on_c, 9, 59, 0
4, 28393, Note_on_c, 9, 63, 0
4, 28408, Note_on_c, 9, 63, 88
4, 28415, Note_on_c, 9, 35, 22
4, 28420, Note_on_c, 9, 35, 0
4, 28436, Note_on_c, 9, 63, 0
4, 28440, Note_on_c, 9, 59, 68
4, 28456, Note_on_c, 9, 59, 0
4, 28477, Note_on_c, 9, 62, 30
4, 28481, Note_on_c, 9, 62, 0
4, 28481, Note_on_c, 9, 40, 30
4, 28486, Note_on_c, 9, 40, 0
4, 28500, Note_on_c, 9, 59, 61
4, 28506, Note_on_c, 9, 64, 18
4, 28509, Note_on_c, 9, 59, 0
4, 28512, Note_on_c, 9, 64, 0
4, 28531, Note_on_c, 9, 64, 76
4, 28535, Note_on_c, 9, 35, 29
4, 28540, Note_on_c, 9, 35, 0
4, 28560, Note_on_c, 9, 59, 67
4, 28561, Note_on_c, 9, 35, 39
4, 28567, Note_on_c, 9, 35, 0
4, 28579, Note_on_c, 9, 59, 0
4, 28580, Note_on_c, 9, 64, 0
4, 28590, Note_on_c, 9, 59, 52
4, 28597, Note_on_c, 9, 59, 0
4, 28618, Note_on_c, 9, 62, 24
4, 28620, Note_on_c, 9, 63, 45
4, 28633, Note_on_c, 9, 62, 0
4, 28634, Note_on_c, 9, 63, 0
4, 28650, Note_on_c, 9, 59, 74
4, 28653, Note_on_c, 9, 40, 33
4, 28655, Note_on_c, 9, 63, 77
4, 28658, Note_on_c, 9, 40, 0
4, 28658, Note_on_c, 9, 62, 65
4, 28669, Note_on_c, 9, 59, 0
4, 28673, Note_on_c, 9, 62, 0
4, 28685, Note_on_c, 9, 63, 0
4, 28710, Note_on_c, 9, 59, 74
4, 28712, Note_on_c, 9, 64, 57
4, 28714, Note_on_c, 9, 40, 71
4, 28722, Note_on_c, 9, 40, 0
4, 28724, Note_on_c, 9, 64, 0
4, 28726, Note_on_c, 9, 59, 0
4, 28741, Note_on_c, 9, 64, 52
4, 28757, Note_on_c, 9, 64, 0
4, 28770, Note_on_c, 9, 59, 75
4, 28774, Note_on_c, 9, 35, 64
4, 28788, Note_on_c, 9, 59, 0
4, 28789, Note_on_c, 9, 35, 0
4, 28800, Note_on_c, 9, 59, 62
4, 28803, Note_on_c, 9, 35, 39
4, 28808, Note_on_c, 9, 59, 0
4, 28812, Note_on_c, 9, 35, 0
4, 28830, Note_on_c, 9, 53, 64
4, 28839, Note_on_c, 9, 53, 0
4, 28860, Note_on_c, 9, 59, 63
4, 28885, Note_on_c, 9, 62, 66
4, 28886, Note_on_c, 9, 63, 73
4, 28887, Note_on_c, 9, 59, 0
4, 28893, Note_on_c, 9, 62, 0
4, 28899, Note_on_c, 9, 63, 0
4, 28917, Note_on_c, 9, 63, 56
4, 28920, Note_on_c, 9, 59, 71
4, 28935, Note_on_c, 9, 63, 0
4, 28936, Note_on_c, 9, 59, 0
4, 28978, Note_on_c, 9, 64, 38
4, 28980, Note_on_c, 9, 59, 72
4, 28991, Note_on_c, 9, 59, 0
4, 28998, Note_on_c, 9, 64, 0
4, 29006, Note_on_c, 9, 35, 42
4, 29009, Note_on_c, 9, 64, 68
4, 29013, Note_on_c, 9, 35, 0
4, 29033, Note_on_c, 9, 64, 0
4, 29037, Note_on_c, 9, 35, 39
4, 29040, Note_on_c, 9, 59, 68
4, 29046, Note_on_c, 9, 35, 0
4, 29051, Note_on_c, 9, 59, 0
4, 29070, Note_on_c, 9, 59, 67
4, 29079, Note_on_c, 9, 59, 0
4, 29131, Note_on_c, 9, 35, 31
4, 29132, Note_on_c, 9, 62, 34
4, 29137, Note_on_c, 9, 62, 0
4, 29139, Note_on_c, 9, 35, 0
4, 29160, Note_on_c, 9, 63, 45
4, 29169, Note_on_c, 9, 63, 0
4, 29189, Note_on_c, 9, 63, 67
4, 29190, Note_on_c, 9, 59, 67
4, 29202, Note_on_c, 9, 63, 0
4, 29207, Note_on_c, 9, 59, 0
4, 29220, Note_on_c, 9, 59, 66
4, 29222, Note_on_c, 9, 35, 35
4, 29232, Note_on_c, 9, 35, 0
4, 29236, Note_on_c, 9, 59, 0
4, 29254, Note_on_c, 9, 35, 71
4, 29266, Note_on_c, 9, 35, 0
4, 29280, Note_on_c, 9, 59, 77
4, 29289, Note_on_c, 9, 59, 0
4, 29341, Note_on_c, 9, 64, 51
4, 29352, Note_on_c, 9, 64, 0
4, 29370, Note_on_c, 9, 59, 64
4, 29371, Note_on_c, 9, 64, 72
4, 29374, Note_on_c, 9, 40, 50
4, 29380, Note_on_c, 9, 59, 0
4, 29381, Note_on_c, 9, 40, 0
4, 29382, Note_on_c, 9, 64, 0
4, 29400, Note_on_c, 9, 59, 57
4, 29407, Note_on_c, 9, 59, 0
4, 29422, Note_on_c, 9, 40, 25
4, 29422, Note_on_c, 9, 40, 0
4, 29430, Note_on_c, 9, 59, 62
4, 29433, Note_on_c, 9, 40, 53
4, 29442, Note_on_c, 9, 59, 0
4, 29445, Note_on_c, 9, 40, 0
4, 29460, Note_on_c, 9, 63, 52
4, 29461, Note_on_c, 9, 62, 26
4, 29475, Note_on_c, 9, 62, 0
4, 29476, Note_on_c, 9, 63, 0
4, 29490, Note_on_c, 9, 59, 72
4, 29492, Note_on_c, 9, 40, 61
4, 29495, Note_on_c, 9, 63, 64
4, 29496, Note_on_c, 9, 62, 54
4, 29498, Note_on_c, 9, 59, 0
4, 29499, Note_on_c, 9, 35, 34
4, 29502, Note_on_c, 9, 40, 0
4, 29504, Note_on_c, 9, 62, 0
4, 29513, Note_on_c, 9, 63, 0
4, 29514, Note_on_c, 9, 35, 0
4, 29523, Note_on_c, 9, 40, 39
4, 29538, Note_on_c, 9, 40, 0
4, 29550, Note_on_c, 9, 59, 75
4, 29552, Note_on_c, 9, 40, 48
4, 29561, Note_on_c, 9, 59, 0
4, 29563, Note_on_c, 9, 40, 0
4, 29580, Note_on_c, 9, 64, 31
4, 29581, Note_on_c, 9, 40, 24
4, 29596, Note_on_c, 9, 64, 0
4, 29597, Note_on_c, 9, 40, 0
4, 29610, Note_on_c, 9, 59, 57
4, 29610, Note_on_c, 9, 64, 68
4, 29613, Note_on_c, 9, 35, 62
4, 29615, Note_on_c, 9, 40, 44
4, 29617, Note_on_c, 9, 59, 0
4, 29624, Note_on_c, 9, 40, 0
4, 29626, Note_on_c, 9, 35, 0
4, 29640, Note_on_c, 9, 59, 63
4, 29645, Note_on_c, 9, 64, 0
4, 29660, Note_on_c, 9, 59, 0
4, 29673, Note_on_c, 9, 35, 83
4, 29698, Note_on_c, 9, 35, 0
4, 29700, Note_on_c, 9, 59, 50
4, 29703, Note_on_c, 9, 40, 30
4, 29706, Note_on_c, 9, 63, 25
4, 29709, Note_on_c, 9, 40, 0
4, 29709, Note_on_c, 9, 59, 0
4, 29711, Note_on_c, 9, 63, 0
4, 29730, Note_on_c, 9, 59, 60
4, 29730, Note_on_c, 9, 35, 78
4, 29733, Note_on_c, 9, 63, 78
4, 29734, Note_on_c, 9, 62, 48
4, 29744, Note_on_c, 9, 59, 0
4, 29745, Note_on_c, 9, 62, 0
4, 29750, Note_on_c, 9, 63, 0
4, 29752, Note_on_c, 9, 35, 0
4, 29761, Note_on_c, 9, 40, 41
4, 29775, Note_on_c, 9, 40, 0
4, 29790, Note_on_c, 9, 59, 67
4, 29793, Note_on_c, 9, 62, 28
4, 29796, Note_on_c, 9, 40, 22
4, 29798, Note_on_c, 9, 62, 0
4, 29803, Note_on_c, 9, 59, 0
4, 29813, Note_on_c, 9, 40, 0
4, 29816, Note_on_c, 9, 64, 41
4, 29838, Note_on_c, 9, 64, 0
4, 29849, Note_on_c, 9, 64, 83
4, 29850, Note_on_c, 9, 59, 58
4, 29854, Note_on_c, 9, 40, 57
4, 29858, Note_on_c, 9, 59, 0
4, 29862, Note_on_c, 9, 40, 0
4, 29868, Note_on_c, 9, 64, 0
4, 29879, Note_on_c, 9, 64, 87
4, 29880, Note_on_c, 9, 59, 60
4, 29900, Note_on_c, 9, 59, 0
4, 29905, Note_on_c, 9, 64, 0
4, 29937, Note_on_c, 9, 63, 42
4, 29940, Note_on_c, 9, 59, 52
4, 29942, Note_on_c, 9, 63, 0
4, 29948, Note_on_c, 9, 59, 0
4, 29969, Note_on_c, 9, 63, 88
4, 29970, Note_on_c, 9, 59, 65
4, 29974, Note_on_c, 9, 35, 46
4, 29975, Note_on_c, 9, 62, 47
4, 29979, Note_on_c, 9, 62, 0
4, 29986, Note_on_c, 9, 35, 0
4, 29989, Note_on_c, 9, 59, 0
4, 29990, Note_on_c, 9, 63, 0
4, 30030, Note_on_c, 9, 59, 62
4, 30038, Note_on_c, 9, 59, 0
4, 30060, Note_on_c, 9, 59, 64
4, 30063, Note_on_c, 9, 64, 34
4, 30077, Note_on_c, 9, 64, 0
4, 30078, Note_on_c, 9, 59, 0
4, 30095, Note_on_c, 9, 64, 57
4, 30098, Note_on_c, 9, 35, 47
4, 30106, Note_on_c, 9, 35, 0
4, 30120, Note_on_c, 9, 64, 0
4, 30123, Note_on_c, 9, 35, 45
4, 30141, Note_on_c, 9, 35, 0
4, 30150, Note_on_c, 9, 59, 42
4, 30158, Note_on_c, 9, 59, 0
4, 30180, Note_on_c, 9, 59, 58
4, 30180, Note_on_c, 9, 63, 45
4, 30181, Note_on_c, 9, 62, 36
4, 30187, Note_on_c, 9, 62, 0
4, 30190, Note_on_c, 9, 59, 0
4, 30192, Note_on_c, 9, 63, 0
4, 30216, Note_on_c, 9, 63, 74
4, 30217, Note_on_c, 9, 62, 64
4, 30220, Note_on_c, 9, 35, 35
4, 30227, Note_on_c, 9, 35, 0
4, 30233, Note_on_c, 9, 62, 0
4, 30233, Note_on_c, 9, 63, 0
4, 30240, Note_on_c, 9, 59, 74
4, 30256, Note_on_c, 9, 59, 0
4, 30260, Note_on_c, 9, 63, 69
4, 30268, Note_on_c, 9, 62, 53
4, 30270, Note_on_c, 9, 59, 68
4, 30273, Note_on_c, 9, 63, 0
4, 30275, Note_on_c, 9, 62, 0
4, 30277, Note_on_c, 9, 59, 0
4, 30311, Note_on_c, 9, 63, 62
4, 30312, Note_on_c, 9, 62, 65
4, 30323, Note_on_c, 9, 62, 0
4, 30324, Note_on_c, 9, 63, 0
4, 30330, Note_on_c, 9, 59, 65
4, 30336, Note_on_c, 9, 35, 43
4, 30337, Note_on_c, 9, 59, 0
4, 30345, Note_on_c, 9, 35, 0
4, 30357, Note_on_c, 9, 63, 48
4, 30360, Note_on_c, 9, 59, 64
4, 30360, Note_on_c, 9, 62, 50
4, 30365, Note_on_c, 9, 35, 40
4, 30369, Note_on_c, 9, 62, 0
4, 30372, Note_on_c, 9, 63, 0
4, 30379, Note_on_c, 9, 59, 0
4, 30382, Note_on_c, 9, 35, 0
4, 30404, Note_on_c, 9, 63, 55
4, 30408, Note_on_c, 9, 62, 50
4, 30413, Note_on_c, 9, 62, 0
4, 30415, Note_on_c, 9, 63, 0
4, 30420, Note_on_c, 9, 53, 57
4, 30428, Note_on_c, 9, 53, 0
4, 30447, Note_on_c, 9, 63, 53
4, 30450, Note_on_c, 9, 59, 70
4, 30456, Note_on_c, 9, 35, 39
4, 30461, Note_on_c, 9, 63, 0
4, 30463, Note_on_c, 9, 35, 0
4, 30466, Note_on_c, 9, 59, 0
4, 30484, Note_on_c, 9, 35, 46
4, 30495, Note_on_c, 9, 35, 0
4, 30510, Note_on_c, 9, 59, 77
4, 30525, Note_on_c, 9, 34, 36
4, 30526, Note_on_c, 9, 57, 30
4, 30527, Note_on_c, 9, 59, 0
4, 30528, Note_on_c, 9, 35, 47
4, 30530, Note_on_c, 9, 34, 0
4, 30531, Note_on_c, 9, 57, 0
4, 30534, Note_on_c, 9, 35, 0
4, 30538, Note_on_c, 9, 63, 43
4, 30546, Note_on_c, 9, 63, 0
4, 30570, Note_on_c, 9, 53, 66
4, 30570, Note_on_c, 9, 34, 52
4, 30572, Note_on_c, 9, 57, 36
4, 30577, Note_on_c, 9, 53, 0
4, 30578, Note_on_c, 9, 57, 0
4, 30588, Note_on_c, 9, 34, 0
4, 30600, Note_on_c, 9, 59, 63
4, 30615, Note_on_c, 9, 35, 54
4, 30625, Note_on_c, 9, 59, 0
4, 30627, Note_on_c, 9, 35, 0
4, 30630, Note_on_c, 9, 53, 70
4, 30637, Note_on_c, 9, 53, 0
4, 30653, Note_on_c, 9, 35, 64
4, 30660, Note_on_c, 9, 59, 67
4, 30664, Note_on_c, 9, 35, 0
4, 30698, Note_on_c, 9, 35, 72
4, 30700, Note_on_c, 9, 59, 0
4, 30709, Note_on_c, 9, 35, 0
4, 30720, Note_on_c, 9, 59, 66
4, 30724, Note_on_c, 9, 35, 66
4, 30737, Note_on_c, 9, 59, 0
4, 30740, Note_on_c, 9, 35, 0
4, 30780, Note_on_c, 9, 59, 68
4, 30791, Note_on_c, 9, 59, 0
4, 30811, Note_on_c, 9, 35, 46
4, 30817, Note_on_c, 9, 35, 0
4, 30840, Note_on_c, 9, 59, 71
4, 30840, Note_on_c, 9, 35, 24
4, 30848, Note_on_c, 9, 35, 0
4, 30873, Note_on_c, 9, 40, 62
4, 30880, Note_on_c, 9, 40, 0
4, 30882, Note_on_c, 9, 59, 0
4, 30904, Note_on_c, 9, 35, 32
4, 30911, Note_on_c, 9, 35, 0
4, 30930, Note_on_c, 9, 59, 60
4, 30933, Note_on_c, 9, 63, 92
4, 30934, Note_on_c, 9, 35, 45
4, 30938, Note_on_c, 9, 59, 0
4, 30941, Note_on_c, 9, 35, 0
4, 30961, Note_on_c, 9, 63, 0
4, 30965, Note_on_c, 9, 35, 42
4, 30971, Note_on_c, 9, 35, 0
4, 30990, Note_on_c, 9, 59, 63
4, 30998, Note_on_c, 9, 59, 0
4, 31019, Note_on_c, 9, 64, 31
4, 31031, Note_on_c, 9, 64, 0
4, 31050, Note_on_c, 9, 59, 64
4, 31053, Note_on_c, 9, 64, 87
4, 31056, Note_on_c, 9, 35, 25
4, 31058, Note_on_c, 9, 59, 0
4, 31061, Note_on_c, 9, 35, 0
4, 31075, Note_on_c, 9, 64, 0
4, 31110, Note_on_c, 9, 59, 54
4, 31117, Note_on_c, 9, 59, 0
4, 31139, Note_on_c, 9, 63, 29
4, 31140, Note_on_c, 9, 59, 66
4, 31147, Note_on_c, 9, 63, 0
4, 31157, Note_on_c, 9, 59, 0
4, 31169, Note_on_c, 9, 63, 93
4, 31173, Note_on_c, 9, 40, 63
4, 31178, Note_on_c, 9, 40, 0
4, 31190, Note_on_c, 9, 63, 0
4, 31197, Note_on_c, 9, 35, 28
4, 31200, Note_on_c, 9, 59, 66
4, 31204, Note_on_c, 9, 35, 0
4, 31208, Note_on_c, 9, 59, 0
4, 31235, Note_on_c, 9, 35, 31
4, 31242, Note_on_c, 9, 35, 0
4, 31273, Note_on_c, 9, 64, 43
4, 31278, Note_on_c, 9, 64, 0
4, 31290, Note_on_c, 9, 59, 57
4, 31298, Note_on_c, 9, 59, 0
4, 31302, Note_on_c, 9, 64, 76
4, 31320, Note_on_c, 9, 64, 0
4, 31320, Note_on_c, 9, 59, 66
4, 31338, Note_on_c, 9, 59, 0
4, 31386, Note_on_c, 9, 63, 35
4, 31397, Note_on_c, 9, 63, 0
4, 31410, Note_on_c, 9, 59, 64
4, 31417, Note_on_c, 9, 63, 92
4, 31418, Note_on_c, 9, 59, 0
4, 31440, Note_on_c, 9, 59, 63
4, 31441, Note_on_c, 9, 63, 0
4, 31460, Note_on_c, 9, 59, 0
4, 31503, Note_on_c, 9, 64, 29
4, 31509, Note_on_c, 9, 64, 0
4, 31530, Note_on_c, 9, 59, 65
4, 31534, Note_on_c, 9, 64, 82
4, 31537, Note_on_c, 9, 59, 0
4, 31537, Note_on_c, 9, 40, 50
4, 31541, Note_on_c, 9, 40, 0
4, 31545, Note_on_c, 9, 64, 0
4, 31560, Note_on_c, 9, 59, 58
4, 31561, Note_on_c, 9, 64, 88
4, 31575, Note_on_c, 9, 59, 0
4, 31578, Note_on_c, 9, 64, 0
4, 31590, Note_on_c, 9, 59, 63
4, 31594, Note_on_c, 9, 64, 60
4, 31598, Note_on_c, 9, 40, 51
4, 31599, Note_on_c, 9, 59, 0
4, 31602, Note_on_c, 9, 40, 0
4, 31602, Note_on_c, 9, 64, 0
4, 31650, Note_on_c, 9, 59, 71
4, 31653, Note_on_c, 9, 63, 42
4, 31658, Note_on_c, 9, 63, 0
4, 31658, Note_on_c, 9, 59, 0
4, 31659, Note_on_c, 9, 35, 53
4, 31665, Note_on_c, 9, 35, 0
4, 31678, Note_on_c, 9, 63, 82
4, 31684, Note_on_c, 9, 35, 56
4, 31702, Note_on_c, 9, 35, 0
4, 31703, Note_on_c, 9, 63, 0
4, 31710, Note_on_c, 9, 59, 68
4, 31719, Note_on_c, 9, 59, 0
4, 31769, Note_on_c, 9, 64, 54
4, 31770, Note_on_c, 9, 59, 60
4, 31776, Note_on_c, 9, 35, 50
4, 31777, Note_on_c, 9, 59, 0
4, 31782, Note_on_c, 9, 35, 0
4, 31784, Note_on_c, 9, 64, 0
4, 31796, Note_on_c, 9, 64, 56
4, 31800, Note_on_c, 9, 59, 58
4, 31810, Note_on_c, 9, 64, 0
4, 31824, Note_on_c, 9, 59, 0
4, 31860, Note_on_c, 9, 59, 74
4, 31868, Note_on_c, 9, 59, 0
4, 31890, Note_on_c, 9, 63, 50
4, 31890, Note_on_c, 9, 35, 45
4, 31897, Note_on_c, 9, 35, 0
4, 31904, Note_on_c, 9, 63, 0
4, 31917, Note_on_c, 9, 35, 44
4, 31918, Note_on_c, 9, 63, 53
4, 31920, Note_on_c, 9, 59, 72
4, 31934, Note_on_c, 9, 59, 0
4, 31936, Note_on_c, 9, 35, 0
4, 31938, Note_on_c, 9, 63, 0
4, 31980, Note_on_c, 9, 59, 71
4, 31993, Note_on_c, 9, 59, 0
4, 32014, Note_on_c, 9, 35, 40
4, 32015, Note_on_c, 9, 64, 62
4, 32020, Note_on_c, 9, 35, 0
4, 32027, Note_on_c, 9, 64, 0
4, 32040, Note_on_c, 9, 59, 66
4, 32049, Note_on_c, 9, 59, 0
4, 32070, Note_on_c, 9, 59, 59
4, 32087, Note_on_c, 9, 59, 0
4, 32100, Note_on_c, 9, 63, 34
4, 32115, Note_on_c, 9, 63, 0
4, 32130, Note_on_c, 9, 59, 71
4, 32133, Note_on_c, 9, 63, 71
4, 32136, Note_on_c, 9, 35, 38
4, 32142, Note_on_c, 9, 35, 0
4, 32145, Note_on_c, 9, 59, 0
4, 32154, Note_on_c, 9, 63, 0
4, 32190, Note_on_c, 9, 59, 69
4, 32202, Note_on_c, 9, 59, 0
4, 32219, Note_on_c, 9, 64, 49
4, 32230, Note_on_c, 9, 64, 0
4, 32250, Note_on_c, 9, 59, 68
4, 32252, Note_on_c, 9, 64, 62
4, 32258, Note_on_c, 9, 59, 0
4, 32258, Note_on_c, 9, 35, 27
4, 32263, Note_on_c, 9, 64, 0
4, 32264, Note_on_c, 9, 35, 0
4, 32280, Note_on_c, 9, 59, 57
4, 32286, Note_on_c, 9, 35, 20
4, 32295, Note_on_c, 9, 59, 0
4, 32301, Note_on_c, 9, 35, 0
4, 32316, Note_on_c, 9, 46, 38
4, 32323, Note_on_c, 9, 46, 0
4, 32339, Note_on_c, 9, 63, 29
4, 32340, Note_on_c, 9, 59, 66
4, 32353, Note_on_c, 9, 63, 0
4, 32356, Note_on_c, 9, 59, 0
4, 32359, Note_on_c, 9, 46, 47
4, 32376, Note_on_c, 9, 46, 0
4, 32378, Note_on_c, 9, 63, 48
4, 32380, Note_on_c, 9, 62, 44
4, 32384, Note_on_c, 9, 62, 0
4, 32396, Note_on_c, 9, 63, 0
4, 32400, Note_on_c, 9, 59, 57
4, 32403, Note_on_c, 9, 35, 36
4, 32409, Note_on_c, 9, 59, 0
4, 32411, Note_on_c, 9, 35, 0
4, 32426, Note_on_c, 9, 63, 33
4, 32433, Note_on_c, 9, 62, 45
4, 32438, Note_on_c, 9, 62, 0
4, 32441, Note_on_c, 9, 35, 34
4, 32444, Note_on_c, 9, 63, 0
4, 32447, Note_on_c, 9, 35, 0
4, 32460, Note_on_c, 9, 59, 68
4, 32476, Note_on_c, 9, 59, 0
4, 32483, Note_on_c, 9, 35, 66
4, 32485, Note_on_c, 9, 62, 40
4, 32486, Note_on_c, 9, 63, 35
4, 32490, Note_on_c, 9, 62, 0
4, 32498, Note_on_c, 9, 63, 0
4, 32502, Note_on_c, 9, 35, 0
4, 32520, Note_on_c, 9, 59, 62
4, 32525, Note_on_c, 9, 35, 44
4, 32530, Note_on_c, 9, 63, 46
4, 32530, Note_on_c, 9, 62, 44
4, 32531, Note_on_c, 9, 35, 0
4, 32534, Note_on_c, 9, 59, 0
4, 32539, Note_on_c, 9, 62, 0
4, 32546, Note_on_c, 9, 63, 0
4, 32577, Note_on_c, 9, 63, 35
4, 32580, Note_on_c, 9, 59, 63
4, 32581, Note_on_c, 9, 62, 24
4, 32586, Note_on_c, 9, 62, 0
4, 32590, Note_on_c, 9, 59, 0
4, 32591, Note_on_c, 9, 63, 0
4, 32611, Note_on_c, 9, 35, 58
4, 32616, Note_on_c, 9, 63, 52
4, 32619, Note_on_c, 9, 35, 0
4, 32619, Note_on_c, 9, 62, 32
4, 32623, Note_on_c, 9, 62, 0
4, 32630, Note_on_c, 9, 63, 0
4, 32640, Note_on_c, 9, 59, 65
4, 32643, Note_on_c, 9, 35, 56
4, 32647, Note_on_c, 9, 59, 0
4, 32657, Note_on_c, 9, 35, 0
4, 32670, Note_on_c, 9, 59, 60
4, 32686, Note_on_c, 9, 59, 0
4, 32699, Note_on_c, 9, 64, 35
4, 32704, Note_on_c, 9, 64, 0
4, 32730, Note_on_c, 9, 59, 69
4, 32730, Note_on_c, 9, 64, 101
4, 32732, Note_on_c, 9, 35, 45
4, 32738, Note_on_c, 9, 35, 0
4, 32742, Note_on_c, 9, 59, 0
4, 32754, Note_on_c, 9, 64, 0
4, 32790, Note_on_c, 9, 59, 64
4, 32800, Note_on_c, 9, 59, 0
4, 32845, Note_on_c, 9, 63, 90
4, 32850, Note_on_c, 9, 59, 64
4, 32850, Note_on_c, 9, 35, 25
4, 32855, Note_on_c, 9, 35, 0
4, 32863, Note_on_c, 9, 59, 0
4, 32864, Note_on_c, 9, 63, 0
4, 32880, Note_on_c, 9, 59, 72
4, 32895, Note_on_c, 9, 59, 0
4, 32910, Note_on_c, 9, 59, 68
4, 32926, Note_on_c, 9, 59, 0
4, 32943, Note_on_c, 9, 64, 27
4, 32954, Note_on_c, 9, 64, 0
4, 32970, Note_on_c, 9, 59, 75
4, 32970, Note_on_c, 9, 35, 24
4, 32972, Note_on_c, 9, 64, 71
4, 32976, Note_on_c, 9, 35, 0
4, 32983, Note_on_c, 9, 59, 0
4, 32985, Note_on_c, 9, 64, 0
4, 33027, Note_on_c, 9, 62, 60
4, 33030, Note_on_c, 9, 59, 73
4, 33032, Note_on_c, 9, 62, 0
4, 33034, Note_on_c, 9, 40, 24
4, 33038, Note_on_c, 9, 40, 0
4, 33046, Note_on_c, 9, 59, 0
4, 33059, Note_on_c, 9, 62, 99
4, 33068, Note_on_c, 9, 62, 0
4, 33089, Note_on_c, 9, 62, 108
4, 33090, Note_on_c, 9, 59, 58
4, 33092, Note_on_c, 9, 35, 46
4, 33098, Note_on_c, 9, 59, 0
4, 33099, Note_on_c, 9, 62, 0
4, 33104, Note_on_c, 9, 35, 0
4, 33119, Note_on_c, 9, 35, 44
4, 33120, Note_on_c, 9, 59, 55
4, 33133, Note_on_c, 9, 35, 0
4, 33135, Note_on_c, 9, 59, 0
4, 33144, Note_on_c, 9, 62, 24
4, 33149, Note_on_c, 9, 62, 0
4, 33150, Note_on_c, 9, 59, 66
4, 33167, Note_on_c, 9, 59, 0
4, 33177, Note_on_c, 9, 64, 32
4, 33186, Note_on_c, 9, 64, 0
4, 33209, Note_on_c, 9, 64, 92
4, 33210, Note_on_c, 9, 59, 77
4, 33211, Note_on_c, 9, 40, 40
4, 33217, Note_on_c, 9, 40, 0
4, 33226, Note_on_c, 9, 59, 0
4, 33233, Note_on_c, 9, 64, 0
4, 33270, Note_on_c, 9, 59, 73
4, 33271, Note_on_c, 9, 40, 70
4, 33280, Note_on_c, 9, 40, 0
4, 33281, Note_on_c, 9, 59, 0
4, 33300, Note_on_c, 9, 59, 64
4, 33301, Note_on_c, 9, 63, 32
4, 33317, Note_on_c, 9, 63, 0
4, 33319, Note_on_c, 9, 59, 0
4, 33334, Note_on_c, 9, 63, 62
4, 33335, Note_on_c, 9, 35, 44
4, 33343, Note_on_c, 9, 35, 0
4, 33347, Note_on_c, 9, 63, 0
4, 33360, Note_on_c, 9, 59, 69
4, 33364, Note_on_c, 9, 35, 33
4, 33369, Note_on_c, 9, 59, 0
4, 33372, Note_on_c, 9, 35, 0
4, 33390, Note_on_c, 9, 59, 65
4, 33399, Note_on_c, 9, 35, 33
4, 33406, Note_on_c, 9, 59, 0
4, 33408, Note_on_c, 9, 35, 0
4, 33418, Note_on_c, 9, 62, 40
4, 33420, Note_on_c, 9, 64, 74
4, 33426, Note_on_c, 9, 62, 0
4, 33431, Note_on_c, 9, 64, 0
4, 33450, Note_on_c, 9, 59, 74
4, 33458, Note_on_c, 9, 35, 30
4, 33460, Note_on_c, 9, 59, 0
4, 33460, Note_on_c, 9, 62, 56
4, 33460, Note_on_c, 9, 64, 79
4, 33465, Note_on_c, 9, 35, 0
4, 33469, Note_on_c, 9, 62, 0
4, 33476, Note_on_c, 9, 64, 0
4, 33510, Note_on_c, 9, 59, 55
4, 33515, Note_on_c, 9, 63, 80
4, 33517, Note_on_c, 9, 59, 0
4, 33518, Note_on_c, 9, 62, 46
4, 33529, Note_on_c, 9, 62, 0
4, 33529, Note_on_c, 9, 63, 0
4, 33540, Note_on_c, 9, 59, 55
4, 33549, Note_on_c, 9, 63, 73
4, 33551, Note_on_c, 9, 62, 60
4, 33558, Note_on_c, 9, 59, 0
4, 33561, Note_on_c, 9, 62, 0
4, 33568, Note_on_c, 9, 63, 0
4, 33576, Note_on_c, 9, 40, 68
4, 33584, Note_on_c, 9, 40, 0
4, 33600, Note_on_c, 9, 59, 76
4, 33602, Note_on_c, 9, 35, 30
4, 33610, Note_on_c, 9, 59, 0
4, 33619, Note_on_c, 9, 35, 0
4, 33637, Note_on_c, 9, 35, 44
4, 33648, Note_on_c, 9, 35, 0
4, 33660, Note_on_c, 9, 59, 76
4, 33660, Note_on_c, 9, 64, 69
4, 33673, Note_on_c, 9, 59, 0
4, 33677, Note_on_c, 9, 64, 0
4, 33692, Note_on_c, 9, 64, 84
4, 33698, Note_on_c, 9, 35, 50
4, 33704, Note_on_c, 9, 35, 0
4, 33715, Note_on_c, 9, 64, 0
4, 33750, Note_on_c, 9, 59, 62
4, 33759, Note_on_c, 9, 59, 0
4, 33778, Note_on_c, 9, 63, 62
4, 33780, Note_on_c, 9, 59, 60
4, 33789, Note_on_c, 9, 59, 0
4, 33796, Note_on_c, 9, 63, 0
4, 33810, Note_on_c, 9, 59, 62
4, 33810, Note_on_c, 9, 63, 88
4, 33820, Note_on_c, 9, 59, 0
4, 33837, Note_on_c, 9, 63, 0
4, 33896, Note_on_c, 9, 64, 55
4, 33900, Note_on_c, 9, 62, 28
4, 33911, Note_on_c, 9, 62, 0
4, 33911, Note_on_c, 9, 64, 0
4, 33930, Note_on_c, 9, 59, 62
4, 33932, Note_on_c, 9, 35, 34
4, 33938, Note_on_c, 9, 59, 0
4, 33939, Note_on_c, 9, 35, 0
4, 33960, Note_on_c, 9, 59, 62
4, 33969, Note_on_c, 9, 59, 0
4, 33987, Note_on_c, 9, 35, 43
4, 33990, Note_on_c, 9, 59, 60
4, 33994, Note_on_c, 9, 35, 0
4, 33996, Note_on_c, 9, 62, 32
4, 34000, Note_on_c, 9, 62, 0
4, 34002, Note_on_c, 9, 59, 0
4, 34046, Note_on_c, 9, 40, 73
4, 34050, Note_on_c, 9, 59, 76
4, 34051, Note_on_c, 9, 63, 102
4, 34061, Note_on_c, 9, 59, 0
4, 34061, Note_on_c, 9, 40, 0
4, 34070, Note_on_c, 9, 63, 0
4, 34075, Note_on_c, 9, 40, 51
4, 34088, Note_on_c, 9, 40, 0
4, 34108, Note_on_c, 9, 35, 32
4, 34110, Note_on_c, 9, 59, 75
4, 34116, Note_on_c, 9, 35, 0
4, 34118, Note_on_c, 9, 59, 0
4, 34138, Note_on_c, 9, 64, 39
4, 34140, Note_on_c, 9, 35, 24
4, 34149, Note_on_c, 9, 64, 0
4, 34150, Note_on_c, 9, 35, 0
4, 34167, Note_on_c, 9, 64, 89
4, 34170, Note_on_c, 9, 59, 60
4, 34170, Note_on_c, 9, 35, 72
4, 34179, Note_on_c, 9, 59, 0
4, 34189, Note_on_c, 9, 64, 0
4, 34198, Note_on_c, 9, 35, 0
4, 34200, Note_on_c, 9, 59, 64
4, 34219, Note_on_c, 9, 59, 0
4, 34230, Note_on_c, 9, 53, 65
4, 34238, Note_on_c, 9, 53, 0
4, 34257, Note_on_c, 9, 63, 29
4, 34267, Note_on_c, 9, 63, 0
4, 34284, Note_on_c, 9, 63, 90
4, 34289, Note_on_c, 9, 40, 36
4, 34290, Note_on_c, 9, 59, 73
4, 34297, Note_on_c, 9, 40, 0
4, 34306, Note_on_c, 9, 63, 0
4, 34308, Note_on_c, 9, 59, 0
4, 34349, Note_on_c, 9, 40, 40
4, 34350, Note_on_c, 9, 53, 70
4, 34359, Note_on_c, 9, 40, 0
4, 34365, Note_on_c, 9, 53, 0
4, 34377, Note_on_c, 9, 64, 38
4, 34378, Note_on_c, 9, 57, 62
4, 34380, Note_on_c, 9, 59, 71
4, 34380, Note_on_c, 9, 35, 51
4, 34385, Note_on_c, 9, 64, 0
4, 34388, Note_on_c, 9, 57, 0
4, 34391, Note_on_c, 9, 35, 0
4, 34404, Note_on_c, 9, 59, 0
4, 34409, Note_on_c, 9, 64, 80
4, 34422, Note_on_c, 9, 64, 0
4, 34438, Note_on_c, 9, 64, 92
4, 34440, Note_on_c, 9, 59, 74
4, 34458, Note_on_c, 9, 59, 0
4, 34461, Note_on_c, 9, 64, 0
4, 34467, Note_on_c, 9, 62, 42
4, 34471, Note_on_c, 9, 62, 0
4, 34474, Note_on_c, 9, 40, 53
4, 34480, Note_on_c, 9, 40, 0
4, 34500, Note_on_c, 9, 59, 68
4, 34505, Note_on_c, 9, 57, 63
4, 34506, Note_on_c, 9, 35, 64
4, 34510, Note_on_c, 9, 57, 0
4, 34513, Note_on_c, 9, 59, 0
4, 34522, Note_on_c, 9, 35, 0
4, 34530, Note_on_c, 9, 63, 86
4, 34544, Note_on_c, 9, 63, 0
4, 34559, Note_on_c, 9, 35, 76
4, 34560, Note_on_c, 9, 53, 66
4, 34568, Note_on_c, 9, 53, 0
4, 34581, Note_on_c, 9, 35, 0
4, 34590, Note_on_c, 9, 59, 72
4, 34609, Note_on_c, 9, 59, 0
4, 34626, Note_on_c, 9, 64, 12
4, 34634, Note_on_c, 9, 64, 0
4, 34650, Note_on_c, 9, 59, 74
4, 34653, Note_on_c, 9, 35, 32
4, 34655, Note_on_c, 9, 64, 48
4, 34661, Note_on_c, 9, 35, 0
4, 34666, Note_on_c, 9, 64, 0
4, 34669, Note_on_c, 9, 59, 0
4, 34680, Note_on_c, 9, 35, 35
4, 34686, Note_on_c, 9, 35, 0
4, 34710, Note_on_c, 9, 59, 61
4, 34718, Note_on_c, 9, 59, 0
4, 34740, Note_on_c, 9, 53, 50
4, 34758, Note_on_c, 9, 53, 0
4, 34776, Note_on_c, 9, 63, 61
4, 34794, Note_on_c, 9, 63, 0
4, 34800, Note_on_c, 9, 59, 63
4, 34808, Note_on_c, 9, 59, 0
4, 34831, Note_on_c, 9, 40, 58
4, 34836, Note_on_c, 9, 40, 0
4, 34856, Note_on_c, 9, 35, 33
4, 34860, Note_on_c, 9, 59, 74
4, 34868, Note_on_c, 9, 59, 0
4, 34869, Note_on_c, 9, 35, 0
4, 34872, Note_on_c, 9, 64, 25
4, 34886, Note_on_c, 9, 64, 0
4, 34892, Note_on_c, 9, 35, 30
4, 34898, Note_on_c, 9, 35, 0
4, 34899, Note_on_c, 9, 64, 46
4, 34914, Note_on_c, 9, 64, 0
4, 34918, Note_on_c, 9, 35, 47
4, 34920, Note_on_c, 9, 59, 68
4, 34925, Note_on_c, 9, 35, 0
4, 34941, Note_on_c, 9, 59, 0
4, 34980, Note_on_c, 9, 53, 68
4, 34988, Note_on_c, 9, 53, 0
4, 34988, Note_on_c, 9, 63, 20
4, 35005, Note_on_c, 9, 63, 0
4, 35010, Note_on_c, 9, 59, 71
4, 35015, Note_on_c, 9, 63, 39
4, 35015, Note_on_c, 9, 35, 58
4, 35017, Note_on_c, 9, 59, 0
4, 35024, Note_on_c, 9, 35, 0
4, 35029, Note_on_c, 9, 63, 0
4, 35070, Note_on_c, 9, 59, 67
4, 35080, Note_on_c, 9, 59, 0
4, 35102, Note_on_c, 9, 64, 30
4, 35120, Note_on_c, 9, 64, 0
4, 35130, Note_on_c, 9, 59, 57
4, 35138, Note_on_c, 9, 59, 0
4, 35144, Note_on_c, 9, 64, 48
4, 35145, Note_on_c, 9, 64, 0
4, 35160, Note_on_c, 9, 59, 60
4, 35177, Note_on_c, 9, 59, 0
4, 35190, Note_on_c, 9, 53, 50
4, 35197, Note_on_c, 9, 53, 0
4, 35219, Note_on_c, 9, 63, 28
4, 35220, Note_on_c, 9, 59, 60
4, 35231, Note_on_c, 9, 59, 0
4, 35243, Note_on_c, 9, 63, 0
4, 35250, Note_on_c, 9, 59, 70
4, 35268, Note_on_c, 9, 59, 0
4, 35310, Note_on_c, 9, 59, 71
4, 35324, Note_on_c, 9, 59, 0
4, 35349, Note_on_c, 9, 65, 23
4, 35356, Note_on_c, 9, 65, 0
4, 35361, Note_on_c, 9, 37, 57
4, 35367, Note_on_c, 9, 37, 0
4, 35370, Note_on_c, 9, 59, 63
4, 35378, Note_on_c, 9, 59, 0
4, 35400, Note_on_c, 9, 59, 74
4, 35407, Note_on_c, 9, 37, 68
4, 35416, Note_on_c, 9, 37, 0
4, 35418, Note_on_c, 9, 59, 0
4, 35435, Note_on_c, 9, 63, 36
4, 35440, Note_on_c, 9, 63, 0
4, 35452, Note_on_c, 9, 37, 62
4, 35460, Note_on_c, 9, 59, 78
4, 35462, Note_on_c, 9, 63, 38
4, 35464, Note_on_c, 9, 37, 0
4, 35477, Note_on_c, 9, 59, 0
4, 35485, Note_on_c, 9, 63, 0
4, 35492, Note_on_c, 9, 37, 67
4, 35494, Note_on_c, 9, 63, 49
4, 35501, Note_on_c, 9, 37, 0
4, 35508, Note_on_c, 9, 63, 0
4, 35512, Note_on_c, 9, 35, 49
4, 35517, Note_on_c, 9, 35, 0
4, 35520, Note_on_c, 9, 59, 77
4, 35533, Note_on_c, 9, 59, 0
4, 35580, Note_on_c, 9, 59, 69
4, 35583, Note_on_c, 9, 64, 23
4, 35593, Note_on_c, 9, 59, 0
4, 35598, Note_on_c, 9, 64, 0
4, 35610, Note_on_c, 9, 64, 38
4, 35617, Note_on_c, 9, 37, 47
4, 35622, Note_on_c, 9, 37, 0
4, 35622, Note_on_c, 9, 64, 0
4, 35640, Note_on_c, 9, 59, 74
4, 35644, Note_on_c, 9, 37, 53
4, 35653, Note_on_c, 9, 37, 0
4, 35657, Note_on_c, 9, 59, 0
4, 35700, Note_on_c, 9, 59, 61
4, 35700, Note_on_c, 9, 63, 25
4, 35709, Note_on_c, 9, 59, 0
4, 35712, Note_on_c, 9, 63, 0
4, 35730, Note_on_c, 9, 59, 72
4, 35731, Note_on_c, 9, 35, 48
4, 35734, Note_on_c, 9, 63, 24
4, 35737, Note_on_c, 9, 35, 0
4, 35742, Note_on_c, 9, 63, 0
4, 35746, Note_on_c, 9, 59, 0
4, 35760, Note_on_c, 9, 35, 44
4, 35767, Note_on_c, 9, 35, 0
4, 35790, Note_on_c, 9, 59, 69
4, 35802, Note_on_c, 9, 59, 0
4, 35850, Note_on_c, 9, 59, 71
4, 35855, Note_on_c, 9, 64, 39
4, 35865, Note_on_c, 9, 59, 0
4, 35868, Note_on_c, 9, 64, 0
4, 35910, Note_on_c, 9, 59, 73
4, 35919, Note_on_c, 9, 62, 30
4, 35924, Note_on_c, 9, 62, 0
4, 35928, Note_on_c, 9, 59, 0
4, 35928, Note_on_c, 9, 63, 54
4, 35940, Note_on_c, 9, 63, 0
4, 35940, Note_on_c, 9, 59, 66
4, 35957, Note_on_c, 9, 59, 0
4, 35969, Note_on_c, 9, 63, 56
4, 35982, Note_on_c, 9, 63, 0
4, 36000, Note_on_c, 9, 59, 75
4, 36005, Note_on_c, 9, 62, 49
4, 36015, Note_on_c, 9, 62, 0
4, 36015, Note_on_c, 9, 59, 0
4, 36015, Note_on_c, 9, 63, 58
4, 36033, Note_on_c, 9, 63, 0
4, 36054, Note_on_c, 9, 63, 54
4, 36060, Note_on_c, 9, 59, 79
4, 36063, Note_on_c, 9, 63, 0
4, 36075, Note_on_c, 9, 59, 0
4, 36089, Note_on_c, 9, 62, 49
4, 36093, Note_on_c, 9, 62, 0
4, 36095, Note_on_c, 9, 63, 63
4, 36110, Note_on_c, 9, 63, 0
4, 36120, Note_on_c, 9, 59, 79
4, 36130, Note_on_c, 9, 63, 58
4, 36136, Note_on_c, 9, 59, 0
4, 36142, Note_on_c, 9, 63, 0
4, 36166, Note_on_c, 9, 62, 47
4, 36171, Note_on_c, 9, 62, 0
4, 36176, Note_on_c, 9, 63, 58
4, 36180, Note_on_c, 9, 59, 77
4, 36193, Note_on_c, 9, 63, 0
4, 36198, Note_on_c, 9, 59, 0
4, 36213, Note_on_c, 9, 63, 56
4, 36227, Note_on_c, 9, 63, 0
4, 36240, Note_on_c, 9, 59, 80
4, 36256, Note_on_c, 9, 59, 0
4, 36262, Note_on_c, 9, 62, 44
4, 36265, Note_on_c, 9, 63, 67
4, 36267, Note_on_c, 9, 62, 0
4, 36270, Note_on_c, 9, 59, 68
4, 36284, Note_on_c, 9, 63, 0
4, 36289, Note_on_c, 9, 59, 0
4, 36299, Note_on_c, 9, 63, 56
4, 36300, Note_on_c, 9, 53, 66
4, 36309, Note_on_c, 9, 53, 0
4, 36314, Note_on_c, 9, 63, 0
4, 36330, Note_on_c, 9, 59, 82
4, 36337, Note_on_c, 9, 62, 41
4, 36341, Note_on_c, 9, 62, 0
4, 36347, Note_on_c, 9, 59, 0
4, 36350, Note_on_c, 9, 63, 58
4, 36367, Note_on_c, 9, 63, 0
4, 36385, Note_on_c, 9, 63, 50
4, 36390, Note_on_c, 9, 59, 75
4, 36400, Note_on_c, 9, 63, 0
4, 36406, Note_on_c, 9, 59, 0
4, 36450, Note_on_c, 9, 53, 61
4, 36450, Note_on_c, 9, 62, 54
4, 36451, Note_on_c, 9, 64, 53
4, 36451, Note_on_c, 9, 40, 72
4, 36457, Note_on_c, 9, 53, 0
4, 36460, Note_on_c, 9, 64, 0
4, 36461, Note_on_c, 9, 40, 0
4, 36466, Note_on_c, 9, 62, 0
4, 36479, Note_on_c, 9, 35, 37
4, 36480, Note_on_c, 9, 59, 64
4, 36481, Note_on_c, 9, 63, 35
4, 36482, Note_on_c, 9, 69, 45
4, 36486, Note_on_c, 9, 69, 0
4, 36488, Note_on_c, 9, 63, 0
4, 36489, Note_on_c, 9, 35, 0
4, 36498, Note_on_c, 9, 59, 0
4, 36516, Note_on_c, 9, 35, 38
4, 36524, Note_on_c, 9, 35, 0
4, 36540, Note_on_c, 9, 59, 71
4, 36550, Note_on_c, 9, 59, 0
4, 36575, Note_on_c, 9, 64, 30
4, 36580, Note_on_c, 9, 64, 0
4, 36600, Note_on_c, 9, 59, 78
4, 36604, Note_on_c, 9, 35, 38
4, 36611, Note_on_c, 9, 35, 0
4, 36618, Note_on_c, 9, 59, 0
4, 36630, Note_on_c, 9, 59, 66
4, 36641, Note_on_c, 9, 59, 0
4, 36656, Note_on_c, 9, 64, 38
4, 36664, Note_on_c, 9, 64, 0
4, 36687, Note_on_c, 9, 64, 43
4, 36690, Note_on_c, 9, 59, 77
4, 36695, Note_on_c, 9, 64, 0
4, 36696, Note_on_c, 9, 35, 35
4, 36703, Note_on_c, 9, 35, 0
4, 36706, Note_on_c, 9, 59, 0
4, 36750, Note_on_c, 9, 59, 72
4, 36764, Note_on_c, 9, 59, 0
4, 36780, Note_on_c, 9, 63, 22
4, 36792, Note_on_c, 9, 63, 0
4, 36810, Note_on_c, 9, 59, 76
4, 36810, Note_on_c, 9, 63, 44
4, 36821, Note_on_c, 9, 59, 0
4, 36823, Note_on_c, 9, 63, 0
4, 36840, Note_on_c, 9, 59, 70
4, 36857, Note_on_c, 9, 59, 0
4, 36877, Note_on_c, 9, 40, 60
4, 36882, Note_on_c, 9, 40, 0
4, 36900, Note_on_c, 9, 59, 80
4, 36900, Note_on_c, 9, 64, 23
4, 36904, Note_on_c, 9, 35, 22
4, 36911, Note_on_c, 9, 64, 0
4, 36912, Note_on_c, 9, 35, 0
4, 36913, Note_on_c, 9, 59, 0
4, 36929, Note_on_c, 9, 64, 50
4, 36940, Note_on_c, 9, 35, 36
4, 36941, Note_on_c, 9, 64, 0
4, 36948, Note_on_c, 9, 35, 0
4, 36960, Note_on_c, 9, 59, 82
4, 36970, Note_on_c, 9, 35, 42
4, 36976, Note_on_c, 9, 59, 0
4, 36977, Note_on_c, 9, 35, 0
4, 37050, Note_on_c, 9, 59, 62
4, 37057, Note_on_c, 9, 59, 0
4, 37063, Note_on_c, 9, 63, 29
4, 37069, Note_on_c, 9, 63, 0
4, 37080, Note_on_c, 9, 59, 67
4, 37087, Note_on_c, 9, 63, 23
4, 37096, Note_on_c, 9, 63, 0
4, 37097, Note_on_c, 9, 59, 0
4, 37170, Note_on_c, 9, 59, 71
4, 37173, Note_on_c, 9, 64, 19
4, 37176, Note_on_c, 9, 40, 55
4, 37179, Note_on_c, 9, 64, 0
4, 37179, Note_on_c, 9, 59, 0
4, 37180, Note_on_c, 9, 40, 0
4, 37200, Note_on_c, 9, 59, 71
4, 37216, Note_on_c, 9, 59, 0
4, 37235, Note_on_c, 9, 35, 50
4, 37241, Note_on_c, 9, 35, 0
4, 37290, Note_on_c, 9, 59, 70
4, 37299, Note_on_c, 9, 59, 0
4, 37320, Note_on_c, 9, 59, 74
4, 37325, Note_on_c, 9, 63, 36
4, 37335, Note_on_c, 9, 63, 0
4, 37336, Note_on_c, 9, 59, 0
4, 37347, Note_on_c, 9, 63, 20
4, 37350, Note_on_c, 9, 59, 68
4, 37352, Note_on_c, 9, 63, 0
4, 37361, Note_on_c, 9, 63, 22
4, 37366, Note_on_c, 9, 63, 0
4, 37366, Note_on_c, 9, 59, 0
4, 37410, Note_on_c, 9, 59, 74
4, 37416, Note_on_c, 9, 35, 34
4, 37422, Note_on_c, 9, 35, 0
4, 37422, Note_on_c, 9, 59, 0
4, 37423, Note_on_c, 9, 63, 44
4, 37435, Note_on_c, 9, 63, 0
4, 37446, Note_on_c, 9, 35, 25
4, 37448, Note_on_c, 9, 63, 34
4, 37453, Note_on_c, 9, 35, 0
4, 37460, Note_on_c, 9, 63, 0
4, 37470, Note_on_c, 9, 59, 58
4, 37477, Note_on_c, 9, 59, 0
4, 37482, Note_on_c, 9, 63, 20
4, 37482, Note_on_c, 9, 35, 38
4, 37487, Note_on_c, 9, 63, 0
4, 37489, Note_on_c, 9, 35, 0
4, 37500, Note_on_c, 9, 59, 57
4, 37509, Note_on_c, 9, 59, 0
4, 37531, Note_on_c, 9, 64, 49
4, 37545, Note_on_c, 9, 64, 0
4, 37556, Note_on_c, 9, 64, 43
4, 37560, Note_on_c, 9, 59, 63
4, 37569, Note_on_c, 9, 59, 0
4, 37570, Note_on_c, 9, 64, 0
4, 37620, Note_on_c, 9, 59, 56
4, 37627, Note_on_c, 9, 59, 0
4, 37650, Note_on_c, 9, 59, 68
4, 37661, Note_on_c, 9, 59, 0
4, 37710, Note_on_c, 9, 59, 69
4, 37717, Note_on_c, 9, 59, 0
4, 37717, Note_on_c, 9, 37, 38
4, 37724, Note_on_c, 9, 37, 0
4, 37769, Note_on_c, 9, 63, 51
4, 37770, Note_on_c, 9, 59, 66
4, 37776, Note_on_c, 9, 37, 44
4, 37779, Note_on_c, 9, 59, 0
4, 37784, Note_on_c, 9, 37, 0
4, 37789, Note_on_c, 9, 63, 0
4, 37830, Note_on_c, 9, 59, 72
4, 37839, Note_on_c, 9, 35, 33
4, 37845, Note_on_c, 9, 59, 0
4, 37847, Note_on_c, 9, 35, 0
4, 37857, Note_on_c, 9, 64, 25
4, 37860, Note_on_c, 9, 59, 73
4, 37863, Note_on_c, 9, 64, 0
4, 37873, Note_on_c, 9, 59, 0
4, 37888, Note_on_c, 9, 64, 65
4, 37898, Note_on_c, 9, 35, 42
4, 37903, Note_on_c, 9, 64, 0
4, 37904, Note_on_c, 9, 35, 0
4, 37916, Note_on_c, 9, 64, 56
4, 37920, Note_on_c, 9, 59, 76
4, 37924, Note_on_c, 9, 35, 49
4, 37936, Note_on_c, 9, 59, 0
4, 37939, Note_on_c, 9, 64, 0
4, 37942, Note_on_c, 9, 35, 0
4, 37954, Note_on_c, 9, 63, 24
4, 37958, Note_on_c, 9, 63, 0
4, 37980, Note_on_c, 9, 59, 79
4, 37981, Note_on_c, 9, 63, 16
4, 37992, Note_on_c, 9, 59, 0
4, 37995, Note_on_c, 9, 63, 0
4, 38011, Note_on_c, 9, 63, 56
4, 38021, Note_on_c, 9, 35, 32
4, 38028, Note_on_c, 9, 35, 0
4, 38040, Note_on_c, 9, 63, 0
4, 38040, Note_on_c, 9, 59, 77
4, 38055, Note_on_c, 9, 59, 0
4, 38100, Note_on_c, 9, 53, 54
4, 38104, Note_on_c, 9, 64, 21
4, 38107, Note_on_c, 9, 53, 0
4, 38116, Note_on_c, 9, 64, 0
4, 38130, Note_on_c, 9, 59, 80
4, 38136, Note_on_c, 9, 35, 51
4, 38137, Note_on_c, 9, 64, 35
4, 38143, Note_on_c, 9, 35, 0
4, 38143, Note_on_c, 9, 59, 0
4, 38160, Note_on_c, 9, 59, 74
4, 38176, Note_on_c, 9, 64, 0
4, 38181, Note_on_c, 9, 59, 0
4, 38193, Note_on_c, 9, 40, 57
4, 38203, Note_on_c, 9, 40, 0
4, 38219, Note_on_c, 9, 62, 21
4, 38219, Note_on_c, 9, 63, 26
4, 38225, Note_on_c, 9, 35, 24
4, 38232, Note_on_c, 9, 35, 0
4, 38233, Note_on_c, 9, 62, 0
4, 38238, Note_on_c, 9, 63, 0
4, 38256, Note_on_c, 9, 63, 49
4, 38257, Note_on_c, 9, 35, 53
4, 38259, Note_on_c, 9, 62, 49
4, 38263, Note_on_c, 9, 35, 0
4, 38273, Note_on_c, 9, 62, 0
4, 38280, Note_on_c, 9, 59, 81
4, 38289, Note_on_c, 9, 63, 0
4, 38297, Note_on_c, 9, 59, 0
4, 38313, Note_on_c, 9, 40, 66
4, 38315, Note_on_c, 9, 64, 27
4, 38324, Note_on_c, 9, 64, 0
4, 38326, Note_on_c, 9, 40, 0
4, 38340, Note_on_c, 9, 59, 80
4, 38346, Note_on_c, 9, 35, 34
4, 38349, Note_on_c, 9, 59, 0
4, 38353, Note_on_c, 9, 35, 0
4, 38362, Note_on_c, 9, 64, 25
4, 38370, Note_on_c, 9, 53, 67
4, 38376, Note_on_c, 9, 35, 52
4, 38379, Note_on_c, 9, 53, 0
4, 38382, Note_on_c, 9, 64, 0
4, 38386, Note_on_c, 9, 35, 0
4, 38399, Note_on_c, 9, 64, 47
4, 38400, Note_on_c, 9, 59, 74
4, 38405, Note_on_c, 9, 35, 49
4, 38411, Note_on_c, 9, 59, 0
4, 38416, Note_on_c, 9, 35, 0
4, 38431, Note_on_c, 9, 64, 0
4, 38460, Note_on_c, 9, 59, 63
4, 38468, Note_on_c, 9, 59, 0
4, 38490, Note_on_c, 9, 59, 73
4, 38497, Note_on_c, 9, 63, 35
4, 38497, Note_on_c, 9, 35, 38
4, 38503, Note_on_c, 9, 35, 0
4, 38509, Note_on_c, 9, 59, 0
4, 38511, Note_on_c, 9, 63, 0
4, 38528, Note_on_c, 9, 63, 48
4, 38531, Note_on_c, 9, 62, 33
4, 38546, Note_on_c, 9, 62, 0
4, 38548, Note_on_c, 9, 63, 0
4, 38550, Note_on_c, 9, 53, 57
4, 38557, Note_on_c, 9, 53, 0
4, 38580, Note_on_c, 9, 59, 69
4, 38580, Note_on_c, 9, 64, 19
4, 38589, Note_on_c, 9, 64, 0
4, 38598, Note_on_c, 9, 59, 0
4, 38607, Note_on_c, 9, 64, 49
4, 38628, Note_on_c, 9, 64, 0
4, 38640, Note_on_c, 9, 59, 69
4, 38651, Note_on_c, 9, 59, 0
4, 38670, Note_on_c, 9, 59, 63
4, 38686, Note_on_c, 9, 59, 0
4, 38730, Note_on_c, 9, 53, 50
4, 38737, Note_on_c, 9, 53, 0
4, 38755, Note_on_c, 9, 63, 44
4, 38760, Note_on_c, 9, 59, 69
4, 38782, Note_on_c, 9, 63, 0
4, 38786, Note_on_c, 9, 59, 0
4, 38820, Note_on_c, 9, 59, 65
4, 38833, Note_on_c, 9, 59, 0
4, 38842, Note_on_c, 9, 64, 58
4, 38848, Note_on_c, 9, 35, 65
4, 38863, Note_on_c, 9, 35, 0
4, 38871, Note_on_c, 9, 64, 0
4, 38877, Note_on_c, 9, 35, 57
4, 38880, Note_on_c, 9, 59, 75
4, 38889, Note_on_c, 9, 59, 0
4, 38896, Note_on_c, 9, 35, 0
4, 38910, Note_on_c, 9, 59, 60
4, 38928, Note_on_c, 9, 59, 0
4, 38970, Note_on_c, 9, 59, 73
4, 38970, Note_on_c, 9, 35, 44
4, 38975, Note_on_c, 9, 35, 0
4, 38985, Note_on_c, 9, 59, 0
4, 38990, Note_on_c, 9, 63, 49
4, 39016, Note_on_c, 9, 63, 0
4, 39030, Note_on_c, 9, 59, 76
4, 39045, Note_on_c, 9, 59, 0
4, 39084, Note_on_c, 9, 35, 40
4, 39090, Note_on_c, 9, 35, 0
4, 39090, Note_on_c, 9, 53, 62
4, 39099, Note_on_c, 9, 53, 0
4, 39117, Note_on_c, 9, 64, 30
4, 39120, Note_on_c, 9, 59, 64
4, 39135, Note_on_c, 9, 59, 0
4, 39139, Note_on_c, 9, 64, 0
4, 39180, Note_on_c, 9, 59, 75
4, 39190, Note_on_c, 9, 59, 0
4, 39211, Note_on_c, 9, 63, 52
4, 39221, Note_on_c, 9, 63, 0
4, 39240, Note_on_c, 9, 59, 77
4, 39241, Note_on_c, 9, 63, 67
4, 39247, Note_on_c, 9, 59, 0
4, 39262, Note_on_c, 9, 63, 0
4, 39270, Note_on_c, 9, 59, 61
4, 39285, Note_on_c, 9, 59, 0
4, 39330, Note_on_c, 9, 59, 79
4, 39333, Note_on_c, 9, 64, 56
4, 39339, Note_on_c, 9, 35, 43
4, 39344, Note_on_c, 9, 35, 0
4, 39346, Note_on_c, 9, 59, 0
4, 39351, Note_on_c, 9, 64, 0
4, 39362, Note_on_c, 9, 64, 49
4, 39364, Note_on_c, 9, 35, 55
4, 39377, Note_on_c, 9, 35, 0
4, 39378, Note_on_c, 9, 64, 0
4, 39390, Note_on_c, 9, 59, 68
4, 39402, Note_on_c, 9, 59, 0
4, 39420, Note_on_c, 9, 63, 28
4, 39420, Note_on_c, 9, 35, 58
4, 39430, Note_on_c, 9, 63, 0
4, 39435, Note_on_c, 9, 35, 0
4, 39450, Note_on_c, 9, 59, 68
4, 39451, Note_on_c, 9, 63, 64
4, 39462, Note_on_c, 9, 59, 0
4, 39473, Note_on_c, 9, 63, 0
4, 39480, Note_on_c, 9, 59, 66
4, 39489, Note_on_c, 9, 59, 0
4, 39511, Note_on_c, 9, 40, 46
4, 39516, Note_on_c, 9, 40, 0
4, 39539, Note_on_c, 9, 35, 32
4, 39540, Note_on_c, 9, 59, 64
4, 39545, Note_on_c, 9, 35, 0
4, 39546, Note_on_c, 9, 64, 15
4, 39548, Note_on_c, 9, 59, 0
4, 39554, Note_on_c, 9, 64, 0
4, 39569, Note_on_c, 9, 35, 41
4, 39570, Note_on_c, 9, 59, 65
4, 39572, Note_on_c, 9, 64, 51
4, 39584, Note_on_c, 9, 35, 0
4, 39586, Note_on_c, 9, 59, 0
4, 39599, Note_on_c, 9, 64, 0
4, 39603, Note_on_c, 9, 35, 54
4, 39616, Note_on_c, 9, 35, 0
4, 39629, Note_on_c, 9, 62, 36
4, 39630, Note_on_c, 9, 53, 46
4, 39630, Note_on_c, 9, 59, 83
4, 39630, Note_on_c, 9, 63, 51
4, 39635, Note_on_c, 9, 62, 0
4, 39637, Note_on_c, 9, 53, 0
4, 39645, Note_on_c, 9, 59, 0
4, 39649, Note_on_c, 9, 63, 0
4, 39660, Note_on_c, 9, 59, 73
4, 39675, Note_on_c, 9, 59, 0
4, 39682, Note_on_c, 9, 62, 23
4, 39684, Note_on_c, 9, 63, 56
4, 39688, Note_on_c, 9, 62, 0
4, 39691, Note_on_c, 9, 40, 33
4, 39697, Note_on_c, 9, 40, 0
4, 39707, Note_on_c, 9, 63, 0
4, 39715, Note_on_c, 9, 35, 26
4, 39720, Note_on_c, 9, 59, 80
4, 39731, Note_on_c, 9, 35, 0
4, 39732, Note_on_c, 9, 63, 48
4, 39734, Note_on_c, 9, 59, 0
4, 39753, Note_on_c, 9, 63, 0
4, 39754, Note_on_c, 9, 40, 54
4, 39758, Note_on_c, 9, 40, 0
4, 39772, Note_on_c, 9, 62, 42
4, 39776, Note_on_c, 9, 62, 0
4, 39778, Note_on_c, 9, 63, 46
4, 39780, Note_on_c, 9, 51, 68
4, 39780, Note_on_c, 9, 35, 27
4, 39788, Note_on_c, 9, 35, 0
4, 39794, Note_on_c, 9, 63, 0
4, 39796, Note_on_c, 9, 51, 0
4, 39811, Note_on_c, 9, 40, 47
4, 39819, Note_on_c, 9, 40, 0
4, 39819, Note_on_c, 9, 63, 49
4, 39820, Note_on_c, 9, 62, 39
4, 39824, Note_on_c, 9, 62, 0
4, 39837, Note_on_c, 9, 63, 0
4, 39840, Note_on_c, 9, 59, 74
4, 39853, Note_on_c, 9, 59, 0
4, 39867, Note_on_c, 9, 63, 44
4, 39869, Note_on_c, 9, 62, 42
4, 39869, Note_on_c, 9, 40, 58
4, 39870, Note_on_c, 9, 59, 44
4, 39874, Note_on_c, 9, 40, 0
4, 39875, Note_on_c, 9, 62, 0
4, 39887, Note_on_c, 9, 63, 0
4, 39889, Note_on_c, 9, 59, 0
4, 39897, Note_on_c, 9, 35, 32
4, 39905, Note_on_c, 9, 35, 0
4, 39918, Note_on_c, 9, 62, 46
4, 39921, Note_on_c, 9, 63, 54
4, 39924, Note_on_c, 9, 62, 0
4, 39930, Note_on_c, 9, 59, 78
4, 39939, Note_on_c, 9, 63, 0
4, 39946, Note_on_c, 9, 59, 0
4, 39990, Note_on_c, 9, 59, 75
4, 39993, Note_on_c, 9, 40, 60
4, 40000, Note_on_c, 9, 40, 0
4, 40008, Note_on_c, 9, 59, 0
4, 40024, Note_on_c, 9, 35, 31
4, 40032, Note_on_c, 9, 35, 0
4, 40050, Note_on_c, 9, 59, 80
4, 40057, Note_on_c, 9, 40, 41
4, 40063, Note_on_c, 9, 40, 0
4, 40067, Note_on_c, 9, 59, 0
4, 40110, Note_on_c, 9, 59, 76
4, 40115, Note_on_c, 9, 40, 68
4, 40126, Note_on_c, 9, 40, 0
4, 40126, Note_on_c, 9, 59, 0
4, 40140, Note_on_c, 9, 59, 76
4, 40143, Note_on_c, 9, 35, 39
4, 40149, Note_on_c, 9, 35, 0
4, 40157, Note_on_c, 9, 59, 0
4, 40174, Note_on_c, 9, 40, 59
4, 40188, Note_on_c, 9, 40, 0
4, 40200, Note_on_c, 9, 59, 76
4, 40217, Note_on_c, 9, 59, 0
4, 40234, Note_on_c, 9, 40, 71
4, 40244, Note_on_c, 9, 40, 0
4, 40260, Note_on_c, 9, 51, 79
4, 40263, Note_on_c, 9, 40, 46
4, 40269, Note_on_c, 9, 40, 0
4, 40276, Note_on_c, 9, 51, 0
4, 40290, Note_on_c, 9, 40, 73
4, 40300, Note_on_c, 9, 40, 0
4, 40319, Note_on_c, 9, 40, 74
4, 40319, Note_on_c, 9, 57, 70
4, 40320, Note_on_c, 9, 51, 72
4, 40321, Note_on_c, 9, 35, 52
4, 40324, Note_on_c, 9, 57, 0
4, 40326, Note_on_c, 9, 35, 0
4, 40328, Note_on_c, 9, 40, 0
4, 40337, Note_on_c, 9, 51, 0
4, 40375, Note_on_c, 9, 64, 42
4, 40380, Note_on_c, 9, 51, 67
4, 40381, Note_on_c, 9, 64, 0
4, 40395, Note_on_c, 9, 51, 0
4, 40407, Note_on_c, 9, 64, 56
4, 40433, Note_on_c, 9, 64, 0
4, 40440, Note_on_c, 9, 51, 71
4, 40453, Note_on_c, 9, 51, 0
4, 40470, Note_on_c, 9, 51, 58
4, 40471, Note_on_c, 9, 40, 40
4, 40474, Note_on_c, 9, 62, 25
4, 40478, Note_on_c, 9, 40, 0
4, 40479, Note_on_c, 9, 62, 0
4, 40486, Note_on_c, 9, 51, 0
4, 40502, Note_on_c, 9, 63, 27
4, 40504, Note_on_c, 9, 57, 69
4, 40506, Note_on_c, 9, 35, 52
4, 40513, Note_on_c, 9, 57, 0
4, 40516, Note_on_c, 9, 35, 0
4, 40520, Note_on_c, 9, 63, 0
4, 40530, Note_on_c, 9, 51, 74
4, 40536, Note_on_c, 9, 63, 60
4, 40546, Note_on_c, 9, 51, 0
4, 40561, Note_on_c, 9, 63, 0
4, 40590, Note_on_c, 9, 51, 76
4, 40604, Note_on_c, 9, 51, 0
4, 40620, Note_on_c, 9, 64, 37
4, 40628, Note_on_c, 9, 64, 0
4, 40650, Note_on_c, 9, 51, 69
4, 40652, Note_on_c, 9, 64, 64
4, 40654, Note_on_c, 9, 40, 52
4, 40658, Note_on_c, 9, 51, 0
4, 40659, Note_on_c, 9, 40, 0
4, 40674, Note_on_c, 9, 64, 0
4, 40680, Note_on_c, 9, 51, 60
4, 40700, Note_on_c, 9, 51, 0
4, 40713, Note_on_c, 9, 62, 23
4, 40718, Note_on_c, 9, 62, 0
4, 40718, Note_on_c, 9, 35, 36
4, 40724, Note_on_c, 9, 35, 0
4, 40738, Note_on_c, 9, 63, 24
4, 40740, Note_on_c, 9, 53, 81
4, 40754, Note_on_c, 9, 63, 0
4, 40761, Note_on_c, 9, 53, 0
4, 40772, Note_on_c, 9, 63, 61
4, 40785, Note_on_c, 9, 35, 48
4, 40790, Note_on_c, 9, 63, 0
4, 40792, Note_on_c, 9, 35, 0
4, 40800, Note_on_c, 9, 51, 54
4, 40802, Note_on_c, 9, 63, 60
4, 40812, Note_on_c, 9, 35, 58
4, 40819, Note_on_c, 9, 51, 0
4, 40825, Note_on_c, 9, 35, 0
4, 40826, Note_on_c, 9, 63, 0
4, 40830, Note_on_c, 9, 51, 52
4, 40847, Note_on_c, 9, 51, 0
4, 40890, Note_on_c, 9, 51, 72
4, 40892, Note_on_c, 9, 64, 49
4, 40901, Note_on_c, 9, 35, 36
4, 40906, Note_on_c, 9, 64, 0
4, 40907, Note_on_c, 9, 35, 0
4, 40908, Note_on_c, 9, 51, 0
4, 40929, Note_on_c, 9, 35, 38
4, 40936, Note_on_c, 9, 35, 0
4, 40950, Note_on_c, 9, 51, 72
4, 40954, Note_on_c, 9, 62, 26
4, 40959, Note_on_c, 9, 62, 0
4, 40962, Note_on_c, 9, 51, 0
4, 40980, Note_on_c, 9, 51, 52
4, 40981, Note_on_c, 9, 63, 58
4, 40997, Note_on_c, 9, 51, 0
4, 41008, Note_on_c, 9, 63, 0
4, 41040, Note_on_c, 9, 51, 76
4, 41054, Note_on_c, 9, 51, 0
4, 41100, Note_on_c, 9, 51, 65
4, 41107, Note_on_c, 9, 64, 23
4, 41113, Note_on_c, 9, 51, 0
4, 41123, Note_on_c, 9, 64, 0
4, 41131, Note_on_c, 9, 35, 45
4, 41138, Note_on_c, 9, 35, 0
4, 41138, Note_on_c, 9, 64, 40
4, 41152, Note_on_c, 9, 64, 0
4, 41160, Note_on_c, 9, 51, 45
4, 41160, Note_on_c, 9, 35, 38
4, 41167, Note_on_c, 9, 51, 0
4, 41172, Note_on_c, 9, 35, 0
4, 41190, Note_on_c, 9, 51, 50
4, 41190, Note_on_c, 9, 40, 62
4, 41195, Note_on_c, 9, 40, 0
4, 41195, Note_on_c, 9, 62, 63
4, 41204, Note_on_c, 9, 51, 0
4, 41219, Note_on_c, 9, 35, 31
4, 41222, Note_on_c, 9, 62, 0
4, 41226, Note_on_c, 9, 35, 0
4, 41247, Note_on_c, 9, 63, 45
4, 41249, Note_on_c, 9, 35, 45
4, 41250, Note_on_c, 9, 51, 75
4, 41255, Note_on_c, 9, 35, 0
4, 41264, Note_on_c, 9, 51, 0
4, 41264, Note_on_c, 9, 63, 0
4, 41277, Note_on_c, 9, 63, 42
4, 41280, Note_on_c, 9, 35, 55
4, 41286, Note_on_c, 9, 35, 0
4, 41300, Note_on_c, 9, 63, 0
4, 41310, Note_on_c, 9, 51, 31
4, 41317, Note_on_c, 9, 51, 0
4, 41340, Note_on_c, 9, 51, 65
4, 41356, Note_on_c, 9, 51, 0
4, 41370, Note_on_c, 9, 40, 39
4, 41372, Note_on_c, 9, 64, 28
4, 41375, Note_on_c, 9, 40, 0
4, 41382, Note_on_c, 9, 64, 0
4, 41400, Note_on_c, 9, 51, 37
4, 41408, Note_on_c, 9, 51, 0
4, 41430, Note_on_c, 9, 51, 71
4, 41446, Note_on_c, 9, 51, 0
4, 41467, Note_on_c, 9, 63, 16
4, 41477, Note_on_c, 9, 63, 0
4, 41490, Note_on_c, 9, 51, 57
4, 41493, Note_on_c, 9, 63, 39
4, 41497, Note_on_c, 9, 51, 0
4, 41509, Note_on_c, 9, 63, 0
4, 41520, Note_on_c, 9, 51, 55
4, 41537, Note_on_c, 9, 51, 0
4, 41555, Note_on_c, 9, 64, 32
4, 41568, Note_on_c, 9, 64, 0
4, 41580, Note_on_c, 9, 51, 45
4, 41583, Note_on_c, 9, 64, 32
4, 41587, Note_on_c, 9, 51, 0
4, 41597, Note_on_c, 9, 64, 0
4, 41610, Note_on_c, 9, 51, 57
4, 41610, Note_on_c, 9, 64, 58
4, 41624, Note_on_c, 9, 64, 0
4, 41626, Note_on_c, 9, 51, 0
4, 41640, Note_on_c, 9, 64, 65
4, 41661, Note_on_c, 9, 64, 0
4, 41670, Note_on_c, 9, 51, 67
4, 41673, Note_on_c, 9, 62, 25
4, 41677, Note_on_c, 9, 35, 64
4, 41678, Note_on_c, 9, 62, 0
4, 41683, Note_on_c, 9, 35, 0
4, 41686, Note_on_c, 9, 51, 0
4, 41700, Note_on_c, 9, 53, 77
4, 41701, Note_on_c, 9, 63, 24
4, 41708, Note_on_c, 9, 63, 0
4, 41724, Note_on_c, 9, 53, 0
4, 41731, Note_on_c, 9, 63, 65
4, 41733, Note_on_c, 9, 35, 52
4, 41739, Note_on_c, 9, 35, 0
4, 41755, Note_on_c, 9, 63, 0
4, 41760, Note_on_c, 9, 51, 38
4, 41761, Note_on_c, 9, 35, 51
4, 41768, Note_on_c, 9, 51, 0
4, 41777, Note_on_c, 9, 35, 0
4, 41790, Note_on_c, 9, 51, 50
4, 41799, Note_on_c, 9, 51, 0
4, 41825, Note_on_c, 9, 64, 25
4, 41835, Note_on_c, 9, 64, 0
4, 41850, Note_on_c, 9, 51, 63
4, 41854, Note_on_c, 9, 64, 45
4, 41857, Note_on_c, 9, 51, 0
4, 41867, Note_on_c, 9, 64, 0
4, 41880, Note_on_c, 9, 53, 66
4, 41909, Note_on_c, 9, 53, 0
4, 41913, Note_on_c, 9, 40, 49
4, 41918, Note_on_c, 9, 40, 0
4, 41927, Note_on_c, 9, 62, 32
4, 41934, Note_on_c, 9, 62, 0
4, 41936, Note_on_c, 9, 35, 24
4, 41939, Note_on_c, 9, 63, 39
4, 41940, Note_on_c, 9, 51, 52
4, 41947, Note_on_c, 9, 51, 0
4, 41952, Note_on_c, 9, 35, 0
4, 41953, Note_on_c, 9, 63, 0
4, 41970, Note_on_c, 9, 51, 60
4, 41973, Note_on_c, 9, 35, 49
4, 41974, Note_on_c, 9, 63, 55
4, 41976, Note_on_c, 9, 62, 49
4, 41981, Note_on_c, 9, 62, 0
4, 41985, Note_on_c, 9, 51, 0
4, 41991, Note_on_c, 9, 35, 0
4, 41995, Note_on_c, 9, 63, 0
4, 42030, Note_on_c, 9, 51, 59
4, 42040, Note_on_c, 9, 64, 35
4, 42041, Note_on_c, 9, 51, 0
4, 42049, Note_on_c, 9, 64, 0
4, 42060, Note_on_c, 9, 53, 82
4, 42070, Note_on_c, 9, 64, 51
4, 42092, Note_on_c, 9, 53, 0
4, 42095, Note_on_c, 9, 64, 0
4, 42120, Note_on_c, 9, 51, 45
4, 42127, Note_on_c, 9, 51, 0
4, 42150, Note_on_c, 9, 51, 47
4, 42154, Note_on_c, 9, 40, 46
4, 42158, Note_on_c, 9, 51, 0
4, 42159, Note_on_c, 9, 40, 0
4, 42180, Note_on_c, 9, 35, 30
4, 42191, Note_on_c, 9, 35, 0
4, 42210, Note_on_c, 9, 51, 65
4, 42215, Note_on_c, 9, 40, 47
4, 42220, Note_on_c, 9, 40, 0
4, 42221, Note_on_c, 9, 51, 0
4, 42240, Note_on_c, 9, 53, 79
4, 42268, Note_on_c, 9, 53, 0
4, 42300, Note_on_c, 9, 51, 52
4, 42304, Note_on_c, 9, 64, 20
4, 42308, Note_on_c, 9, 51, 0
4, 42312, Note_on_c, 9, 64, 0
4, 42330, Note_on_c, 9, 51, 69
4, 42331, Note_on_c, 9, 35, 30
4, 42333, Note_on_c, 9, 64, 52
4, 42338, Note_on_c, 9, 35, 0
4, 42345, Note_on_c, 9, 64, 0
4, 42345, Note_on_c, 9, 51, 0
4, 42390, Note_on_c, 9, 51, 57
4, 42397, Note_on_c, 9, 51, 0
4, 42415, Note_on_c, 9, 62, 52
4, 42419, Note_on_c, 9, 63, 48
4, 42420, Note_on_c, 9, 51, 43
4, 42426, Note_on_c, 9, 62, 0
4, 42439, Note_on_c, 9, 51, 0
4, 42442, Note_on_c, 9, 63, 0
4, 42455, Note_on_c, 9, 35, 44
4, 42462, Note_on_c, 9, 35, 0
4, 42480, Note_on_c, 9, 51, 71
4, 42495, Note_on_c, 9, 51, 0
4, 42540, Note_on_c, 9, 51, 64
4, 42542, Note_on_c, 9, 64, 24
4, 42558, Note_on_c, 9, 51, 0
4, 42559, Note_on_c, 9, 64, 0
4, 42576, Note_on_c, 9, 64, 32
4, 42580, Note_on_c, 9, 35, 24
4, 42585, Note_on_c, 9, 35, 0
4, 42585, Note_on_c, 9, 64, 0
4, 42600, Note_on_c, 9, 51, 64
4, 42605, Note_on_c, 9, 35, 36
4, 42612, Note_on_c, 9, 35, 0
4, 42617, Note_on_c, 9, 51, 0
4, 42630, Note_on_c, 9, 59, 66
4, 42635, Note_on_c, 9, 63, 37
4, 42641, Note_on_c, 9, 35, 51
4, 42648, Note_on_c, 9, 63, 0
4, 42652, Note_on_c, 9, 59, 0
4, 42654, Note_on_c, 9, 35, 0
4, 42663, Note_on_c, 9, 63, 46
4, 42686, Note_on_c, 9, 63, 0
4, 42690, Note_on_c, 9, 51, 68
4, 42705, Note_on_c, 9, 51, 0
4, 42750, Note_on_c, 9, 51, 71
4, 42761, Note_on_c, 9, 35, 24
4, 42767, Note_on_c, 9, 35, 0
4, 42769, Note_on_c, 9, 51, 0
4, 42784, Note_on_c, 9, 64, 23
4, 42797, Note_on_c, 9, 64, 0
4, 42810, Note_on_c, 9, 51, 59
4, 42813, Note_on_c, 9, 64, 40
4, 42820, Note_on_c, 9, 51, 0
4, 42830, Note_on_c, 9, 64, 0
4, 42840, Note_on_c, 9, 51, 61
4, 42862, Note_on_c, 9, 51, 0
4, 42867, Note_on_c, 9, 63, 32
4, 42877, Note_on_c, 9, 37, 29
4, 42878, Note_on_c, 9, 63, 0
4, 42882, Note_on_c, 9, 37, 0
4, 42899, Note_on_c, 9, 63, 24
4, 42900, Note_on_c, 9, 51, 57
4, 42905, Note_on_c, 9, 63, 0
4, 42907, Note_on_c, 9, 51, 0
4, 42923, Note_on_c, 9, 37, 42
4, 42930, Note_on_c, 9, 51, 72
4, 42931, Note_on_c, 9, 63, 69
4, 42934, Note_on_c, 9, 37, 0
4, 42948, Note_on_c, 9, 51, 0
4, 42957, Note_on_c, 9, 63, 0
4, 42990, Note_on_c, 9, 51, 67
4, 42996, Note_on_c, 9, 51, 0
4, 42999, Note_on_c, 9, 64, 28
4, 43005, Note_on_c, 9, 64, 0
4, 43020, Note_on_c, 9, 51, 62
4, 43029, Note_on_c, 9, 64, 23
4, 43037, Note_on_c, 9, 64, 0
4, 43039, Note_on_c, 9, 51, 0
4, 43080, Note_on_c, 9, 51, 75
4, 43094, Note_on_c, 9, 51, 0
4, 43140, Note_on_c, 9, 51, 74
4, 43150, Note_on_c, 9, 37, 25
4, 43154, Note_on_c, 9, 37, 0
4, 43154, Note_on_c, 9, 51, 0
4, 43178, Note_on_c, 9, 37, 46
4, 43180, Note_on_c, 9, 63, 31
4, 43183, Note_on_c, 9, 37, 0
4, 43184, Note_on_c, 9, 63, 0
4, 43200, Note_on_c, 9, 51, 76
4, 43214, Note_on_c, 9, 51, 0
4, 43260, Note_on_c, 9, 51, 71
4, 43264, Note_on_c, 9, 37, 47
4, 43265, Note_on_c, 9, 64, 23
4, 43271, Note_on_c, 9, 37, 0
4, 43273, Note_on_c, 9, 51, 0
4, 43274, Note_on_c, 9, 64, 0
4, 43295, Note_on_c, 9, 64, 31
4, 43295, Note_on_c, 9, 37, 55
4, 43300, Note_on_c, 9, 37, 0
4, 43301, Note_on_c, 9, 64, 0
4, 43320, Note_on_c, 9, 51, 67
4, 43332, Note_on_c, 9, 51, 0
4, 43350, Note_on_c, 9, 51, 59
4, 43352, Note_on_c, 9, 63, 49
4, 43357, Note_on_c, 9, 35, 29
4, 43362, Note_on_c, 9, 63, 0
4, 43363, Note_on_c, 9, 35, 0
4, 43368, Note_on_c, 9, 51, 0
4, 43383, Note_on_c, 9, 35, 57
4, 43390, Note_on_c, 9, 35, 0
4, 43402, Note_on_c, 9, 63, 53
4, 43410, Note_on_c, 9, 53, 85
4, 43414, Note_on_c, 9, 63, 0
4, 43416, Note_on_c, 9, 35, 80
4, 43428, Note_on_c, 9, 53, 0
4, 43433, Note_on_c, 9, 35, 0
4, 43447, Note_on_c, 9, 62, 44
4, 43449, Note_on_c, 9, 35, 62
4, 43452, Note_on_c, 9, 63, 61
4, 43453, Note_on_c, 9, 62, 0
4, 43466, Note_on_c, 9, 35, 0
4, 43470, Note_on_c, 9, 51, 67
4, 43472, Note_on_c, 9, 63, 0
4, 43484, Note_on_c, 9, 51, 0
4, 43498, Note_on_c, 9, 63, 53
4, 43508, Note_on_c, 9, 63, 0
4, 43530, Note_on_c, 9, 51, 52
4, 43534, Note_on_c, 9, 37, 38
4, 43535, Note_on_c, 9, 62, 44
4, 43537, Note_on_c, 9, 63, 58
4, 43538, Note_on_c, 9, 51, 0
4, 43539, Note_on_c, 9, 37, 0
4, 43540, Note_on_c, 9, 62, 0
4, 43557, Note_on_c, 9, 63, 0
4, 43560, Note_on_c, 9, 51, 48
4, 43575, Note_on_c, 9, 51, 0
4, 43579, Note_on_c, 9, 63, 56
4, 43594, Note_on_c, 9, 35, 42
4, 43595, Note_on_c, 9, 63, 0
4, 43600, Note_on_c, 9, 35, 0
4, 43613, Note_on_c, 9, 62, 43
4, 43618, Note_on_c, 9, 62, 0
4, 43623, Note_on_c, 9, 63, 51
4, 43640, Note_on_c, 9, 63, 0
4, 43662, Note_on_c, 9, 63, 56
4, 43678, Note_on_c, 9, 63, 0
4, 43680, Note_on_c, 9, 51, 78
4, 43699, Note_on_c, 9, 62, 43
4, 43706, Note_on_c, 9, 63, 56
4, 43709, Note_on_c, 9, 62, 0
4, 43720, Note_on_c, 9, 51, 0
4, 43722, Note_on_c, 9, 63, 0
4, 43746, Note_on_c, 9, 63, 56
4, 43765, Note_on_c, 9, 63, 0
4, 43770, Note_on_c, 9, 51, 74
4, 43782, Note_on_c, 9, 62, 45
4, 43784, Note_on_c, 9, 51, 0
4, 43789, Note_on_c, 9, 62, 0
4, 43794, Note_on_c, 9, 63, 54
4, 43800, Note_on_c, 9, 51, 61
4, 43811, Note_on_c, 9, 63, 0
4, 43817, Note_on_c, 9, 51, 0
4, 43838, Note_on_c, 9, 47, 47
4, 43839, Note_on_c, 9, 63, 54
4, 43842, Note_on_c, 9, 47, 0
4, 43852, Note_on_c, 9, 63, 0
4, 43860, Note_on_c, 9, 51, 61
4, 43871, Note_on_c, 9, 51, 0
4, 43890, Note_on_c, 9, 51, 79
4, 43903, Note_on_c, 9, 51, 0
4, 43950, Note_on_c, 9, 51, 77
4, 43954, Note_on_c, 9, 62, 39
4, 43957, Note_on_c, 9, 63, 63
4, 43960, Note_on_c, 9, 62, 0
4, 43964, Note_on_c, 9, 51, 0
4, 43976, Note_on_c, 9, 63, 0
4, 44006, Note_on_c, 9, 63, 58
4, 44010, Note_on_c, 9, 51, 82
4, 44022, Note_on_c, 9, 63, 0
4, 44027, Note_on_c, 9, 51, 0
4, 44042, Note_on_c, 9, 62, 40
4, 44053, Note_on_c, 9, 62, 0
4, 44053, Note_on_c, 9, 63, 44
4, 44070, Note_on_c, 9, 63, 0
4, 44070, Note_on_c, 9, 51, 69
4, 44075, Note_on_c, 9, 35, 34
4, 44079, Note_on_c, 9, 51, 0
4, 44082, Note_on_c, 9, 35, 0
4, 44091, Note_on_c, 9, 63, 51
4, 44100, Note_on_c, 9, 51, 45
4, 44104, Note_on_c, 9, 63, 0
4, 44113, Note_on_c, 9, 51, 0
4, 44130, Note_on_c, 9, 53, 65
4, 44132, Note_on_c, 9, 64, 51
4, 44133, Note_on_c, 9, 46, 64
4, 44138, Note_on_c, 9, 46, 0
4, 44144, Note_on_c, 9, 64, 0
4, 44147, Note_on_c, 9, 53, 0
4, 44160, Note_on_c, 9, 51, 81
4, 44164, Note_on_c, 9, 64, 56
4, 44176, Note_on_c, 9, 51, 0
4, 44191, Note_on_c, 9, 64, 0
4, 44196, Note_on_c, 9, 35, 46
4, 44203, Note_on_c, 9, 35, 0
4, 44220, Note_on_c, 9, 51, 77
4, 44229, Note_on_c, 9, 35, 36
4, 44235, Note_on_c, 9, 35, 0
4, 44236, Note_on_c, 9, 51, 0
4, 44252, Note_on_c, 9, 62, 23
4, 44257, Note_on_c, 9, 62, 0
4, 44260, Note_on_c, 9, 35, 60
4, 44266, Note_on_c, 9, 35, 0
4, 44280, Note_on_c, 9, 51, 77
4, 44282, Note_on_c, 9, 63, 25
4, 44287, Note_on_c, 9, 63, 0
4, 44291, Note_on_c, 9, 35, 58
4, 44296, Note_on_c, 9, 35, 0
4, 44299, Note_on_c, 9, 51, 0
4, 44315, Note_on_c, 9, 63, 63
4, 44331, Note_on_c, 9, 63, 0
4, 44340, Note_on_c, 9, 53, 71
4, 44359, Note_on_c, 9, 53, 0
4, 44370, Note_on_c, 9, 51, 71
4, 44385, Note_on_c, 9, 51, 0
4, 44430, Note_on_c, 9, 51, 67
4, 44447, Note_on_c, 9, 51, 0
4, 44490, Note_on_c, 9, 51, 72
4, 44493, Note_on_c, 9, 40, 51
4, 44497, Note_on_c, 9, 51, 0
4, 44500, Note_on_c, 9, 40, 0
4, 44520, Note_on_c, 9, 51, 67
4, 44520, Note_on_c, 9, 40, 54
4, 44531, Note_on_c, 9, 40, 0
4, 44540, Note_on_c, 9, 51, 0
4, 44554, Note_on_c, 9, 35, 41
4, 44557, Note_on_c, 9, 62, 16
4, 44561, Note_on_c, 9, 35, 0
4, 44562, Note_on_c, 9, 62, 0
4, 44580, Note_on_c, 9, 51, 76
4, 44584, Note_on_c, 9, 63, 46
4, 44594, Note_on_c, 9, 63, 0
4, 44595, Note_on_c, 9, 51, 0
4, 44612, Note_on_c, 9, 35, 44
4, 44613, Note_on_c, 9, 63, 59
4, 44618, Note_on_c, 9, 35, 0
4, 44630, Note_on_c, 9, 63, 0
4, 44638, Note_on_c, 9, 35, 43
4, 44640, Note_on_c, 9, 51, 74
4, 44646, Note_on_c, 9, 35, 0
4, 44655, Note_on_c, 9, 51, 0
4, 44700, Note_on_c, 9, 51, 71
4, 44703, Note_on_c, 9, 64, 30
4, 44714, Note_on_c, 9, 51, 0
4, 44716, Note_on_c, 9, 64, 0
4, 44732, Note_on_c, 9, 35, 40
4, 44735, Note_on_c, 9, 64, 56
4, 44740, Note_on_c, 9, 35, 0
4, 44757, Note_on_c, 9, 64, 0
4, 44760, Note_on_c, 9, 51, 74
4, 44775, Note_on_c, 9, 51, 0
4, 44790, Note_on_c, 9, 51, 54
4, 44795, Note_on_c, 9, 62, 32
4, 44800, Note_on_c, 9, 62, 0
4, 44808, Note_on_c, 9, 51, 0
4, 44850, Note_on_c, 9, 51, 74
4, 44852, Note_on_c, 9, 35, 32
4, 44854, Note_on_c, 9, 63, 55
4, 44860, Note_on_c, 9, 35, 0
4, 44866, Note_on_c, 9, 51, 0
4, 44877, Note_on_c, 9, 63, 0
4, 44910, Note_on_c, 9, 51, 65
4, 44918, Note_on_c, 9, 51, 0
4, 44970, Note_on_c, 9, 51, 70
4, 44971, Note_on_c, 9, 35, 31
4, 44980, Note_on_c, 9, 35, 0
4, 44985, Note_on_c, 9, 51, 0
4, 44997, Note_on_c, 9, 35, 31
4, 45007, Note_on_c, 9, 35, 0
4, 45027, Note_on_c, 9, 64, 37
4, 45030, Note_on_c, 9, 51, 70
4, 45036, Note_on_c, 9, 64, 0
4, 45046, Note_on_c, 9, 51, 0
4, 45059, Note_on_c, 9, 35, 49
4, 45073, Note_on_c, 9, 35, 0
4, 45090, Note_on_c, 9, 51, 60
4, 45092, Note_on_c, 9, 62, 27
4, 45098, Note_on_c, 9, 62, 0
4, 45101, Note_on_c, 9, 51, 0
4, 45120, Note_on_c, 9, 51, 67
4, 45137, Note_on_c, 9, 51, 0
4, 45180, Note_on_c, 9, 51, 73
4, 45196, Note_on_c, 9, 51, 0
4, 45215, Note_on_c, 9, 63, 31
4, 45229, Note_on_c, 9, 63, 0
4, 45252, Note_on_c, 9, 63, 33
4, 45270, Note_on_c, 9, 51, 71
4, 45272, Note_on_c, 9, 63, 0
4, 45274, Note_on_c, 9, 40, 43
4, 45280, Note_on_c, 9, 40, 0
4, 45284, Note_on_c, 9, 51, 0
4, 45296, Note_on_c, 9, 64, 29
4, 45300, Note_on_c, 9, 51, 71
4, 45311, Note_on_c, 9, 64, 0
4, 45317, Note_on_c, 9, 51, 0
4, 45329, Note_on_c, 9, 64, 42
4, 45330, Note_on_c, 9, 51, 60
4, 45334, Note_on_c, 9, 40, 49
4, 45339, Note_on_c, 9, 40, 0
4, 45345, Note_on_c, 9, 64, 0
4, 45346, Note_on_c, 9, 51, 0
4, 45390, Note_on_c, 9, 51, 68
4, 45396, Note_on_c, 9, 40, 46
4, 45401, Note_on_c, 9, 40, 0
4, 45406, Note_on_c, 9, 51, 0
4, 45419, Note_on_c, 9, 63, 30
4, 45432, Note_on_c, 9, 63, 0
4, 45450, Note_on_c, 9, 51, 53
4, 45453, Note_on_c, 9, 63, 55
4, 45458, Note_on_c, 9, 51, 0
4, 45458, Note_on_c, 9, 40, 48
4, 45463, Note_on_c, 9, 40, 0
4, 45480, Note_on_c, 9, 63, 0
4, 45480, Note_on_c, 9, 51, 54
4, 45500, Note_on_c, 9, 51, 0
4, 45517, Note_on_c, 9, 40, 59
4, 45523, Note_on_c, 9, 40, 0
4, 45540, Note_on_c, 9, 51, 60
4, 45543, Note_on_c, 9, 64, 29
4, 45547, Note_on_c, 9, 51, 0
4, 45565, Note_on_c, 9, 64, 0
4, 45570, Note_on_c, 9, 51, 67
4, 45576, Note_on_c, 9, 64, 56
4, 45579, Note_on_c, 9, 40, 56
4, 45583, Note_on_c, 9, 40, 0
4, 45586, Note_on_c, 9, 51, 0
4, 45603, Note_on_c, 9, 64, 0
4, 45605, Note_on_c, 9, 35, 41
4, 45612, Note_on_c, 9, 35, 0
4, 45630, Note_on_c, 9, 51, 71
4, 45640, Note_on_c, 9, 35, 53
4, 45645, Note_on_c, 9, 51, 0
4, 45653, Note_on_c, 9, 35, 0
4, 45690, Note_on_c, 9, 51, 60
4, 45700, Note_on_c, 9, 51, 0
4, 45720, Note_on_c, 9, 51, 56
4, 45726, Note_on_c, 9, 35, 35
4, 45733, Note_on_c, 9, 35, 0
4, 45740, Note_on_c, 9, 51, 0
4, 45750, Note_on_c, 9, 53, 64
4, 45759, Note_on_c, 9, 62, 22
4, 45765, Note_on_c, 9, 62, 0
4, 45771, Note_on_c, 9, 53, 0
4, 45784, Note_on_c, 9, 63, 58
4, 45801, Note_on_c, 9, 63, 0
4, 45810, Note_on_c, 9, 51, 73
4, 45814, Note_on_c, 9, 63, 54
4, 45825, Note_on_c, 9, 51, 0
4, 45835, Note_on_c, 9, 63, 0
4, 45843, Note_on_c, 9, 35, 31
4, 45852, Note_on_c, 9, 35, 0
4, 45870, Note_on_c, 9, 51, 77
4, 45873, Note_on_c, 9, 62, 23
4, 45880, Note_on_c, 9, 62, 0
4, 45885, Note_on_c, 9, 51, 0
4, 45899, Note_on_c, 9, 64, 28
4, 45915, Note_on_c, 9, 64, 0
4, 45930, Note_on_c, 9, 51, 67
4, 45934, Note_on_c, 9, 64, 56
4, 45934, Note_on_c, 9, 35, 36
4, 45941, Note_on_c, 9, 35, 0
4, 45944, Note_on_c, 9, 51, 0
4, 45960, Note_on_c, 9, 51, 64
4, 45961, Note_on_c, 9, 64, 0
4, 45976, Note_on_c, 9, 51, 0
4, 46020, Note_on_c, 9, 51, 72
4, 46020, Note_on_c, 9, 63, 21
4, 46020, Note_on_c, 9, 40, 54
4, 46026, Note_on_c, 9, 40, 0
4, 46034, Note_on_c, 9, 63, 0
4, 46035, Note_on_c, 9, 51, 0
4, 46039, Note_on_c, 9, 40, 57
4, 46045, Note_on_c, 9, 40, 0
4, 46052, Note_on_c, 9, 63, 41
4, 46055, Note_on_c, 9, 40, 54
4, 46060, Note_on_c, 9, 40, 0
4, 46065, Note_on_c, 9, 63, 0
4, 46080, Note_on_c, 9, 51, 50
4, 46087, Note_on_c, 9, 51, 0
4, 46110, Note_on_c, 9, 51, 43
4, 46114, Note_on_c, 9, 40, 51
4, 46120, Note_on_c, 9, 40, 0
4, 46123, Note_on_c, 9, 51, 0
4, 46133, Note_on_c, 9, 40, 50
4, 46139, Note_on_c, 9, 40, 0
4, 46149, Note_on_c, 9, 40, 58
4, 46154, Note_on_c, 9, 40, 0
4, 46170, Note_on_c, 9, 51, 78
4, 46176, Note_on_c, 9, 64, 38
4, 46185, Note_on_c, 9, 51, 0
4, 46186, Note_on_c, 9, 64, 0
4, 46238, Note_on_c, 9, 35, 37
4, 46244, Note_on_c, 9, 35, 0
4, 46260, Note_on_c, 9, 51, 48
4, 46267, Note_on_c, 9, 51, 0
4, 46290, Note_on_c, 9, 51, 67
4, 46294, Note_on_c, 9, 35, 48
4, 46303, Note_on_c, 9, 35, 0
4, 46303, Note_on_c, 9, 51, 0
4, 46322, Note_on_c, 9, 35, 50
4, 46338, Note_on_c, 9, 35, 0
4, 46350, Note_on_c, 9, 51, 70
4, 46359, Note_on_c, 9, 51, 0
4, 46359, Note_on_c, 9, 63, 30
4, 46377, Note_on_c, 9, 63, 0
4, 46380, Note_on_c, 9, 51, 67
4, 46404, Note_on_c, 9, 63, 39
4, 46405, Note_on_c, 9, 51, 0
4, 46405, Note_on_c, 9, 62, 28
4, 46411, Note_on_c, 9, 62, 0
4, 46426, Note_on_c, 9, 63, 0
4, 46440, Note_on_c, 9, 51, 54
4, 46449, Note_on_c, 9, 64, 27
4, 46450, Note_on_c, 9, 51, 0
4, 46462, Note_on_c, 9, 64, 0
4, 46483, Note_on_c, 9, 64, 42
4, 46495, Note_on_c, 9, 64, 0
4, 46500, Note_on_c, 9, 51, 36
4, 46509, Note_on_c, 9, 51, 0
4, 46513, Note_on_c, 9, 40, 60
4, 46519, Note_on_c, 9, 40, 0
4, 46530, Note_on_c, 9, 51, 64
4, 46530, Note_on_c, 9, 40, 45
4, 46538, Note_on_c, 9, 40, 0
4, 46540, Note_on_c, 9, 62, 25
4, 46544, Note_on_c, 9, 51, 0
4, 46545, Note_on_c, 9, 62, 0
4, 46549, Note_on_c, 9, 40, 48
4, 46555, Note_on_c, 9, 40, 0
4, 46590, Note_on_c, 9, 51, 53
4, 46598, Note_on_c, 9, 51, 0
4, 46620, Note_on_c, 9, 51, 55
4, 46642, Note_on_c, 9, 51, 0
4, 46655, Note_on_c, 9, 63, 23
4, 46658, Note_on_c, 9, 35, 48
4, 46662, Note_on_c, 9, 63, 0
4, 46665, Note_on_c, 9, 35, 0
4, 46680, Note_on_c, 9, 51, 63
4, 46686, Note_on_c, 9, 35, 39
4, 46697, Note_on_c, 9, 51, 0
4, 46698, Note_on_c, 9, 35, 0
4, 46721, Note_on_c, 9, 35, 34
4, 46729, Note_on_c, 9, 35, 0
4, 46740, Note_on_c, 9, 51, 60
4, 46745, Note_on_c, 9, 64, 21
4, 46752, Note_on_c, 9, 64, 0
4, 46755, Note_on_c, 9, 51, 0
4, 46770, Note_on_c, 9, 51, 57
4, 46775, Note_on_c, 9, 64, 67
4, 46790, Note_on_c, 9, 51, 0
4, 46799, Note_on_c, 9, 64, 0
4, 46830, Note_on_c, 9, 53, 67
4, 46831, Note_on_c, 9, 62, 19
4, 46836, Note_on_c, 9, 62, 0
4, 46839, Note_on_c, 9, 53, 0
4, 46859, Note_on_c, 9, 63, 35
4, 46868, Note_on_c, 9, 63, 0
4, 46890, Note_on_c, 9, 51, 64
4, 46893, Note_on_c, 9, 63, 68
4, 46893, Note_on_c, 9, 40, 44
4, 46898, Note_on_c, 9, 51, 0
4, 46899, Note_on_c, 9, 40, 0
4, 46913, Note_on_c, 9, 63, 0
4, 46920, Note_on_c, 9, 51, 64
4, 46934, Note_on_c, 9, 51, 0
4, 46950, Note_on_c, 9, 62, 25
4, 46953, Note_on_c, 9, 37, 48
4, 46958, Note_on_c, 9, 62, 0
4, 46960, Note_on_c, 9, 37, 0
4, 46982, Note_on_c, 9, 64, 37
4, 46996, Note_on_c, 9, 64, 0
4, 47010, Note_on_c, 9, 53, 50
4, 47010, Note_on_c, 9, 53, 73
4, 47016, Note_on_c, 9, 64, 61
4, 47019, Note_on_c, 9, 53, 0
4, 47023, Note_on_c, 9, 35, 34
4, 47030, Note_on_c, 9, 35, 0
4, 47030, Note_on_c, 9, 53, 0
4, 47036, Note_on_c, 9, 64, 0
4, 47053, Note_on_c, 9, 35, 32
4, 47064, Note_on_c, 9, 35, 0
4, 47070, Note_on_c, 9, 51, 56
4, 47078, Note_on_c, 9, 51, 0
4, 47100, Note_on_c, 9, 51, 46
4, 47101, Note_on_c, 9, 63, 43
4, 47104, Note_on_c, 9, 35, 52
4, 47113, Note_on_c, 9, 63, 0
4, 47115, Note_on_c, 9, 51, 0
4, 47116, Note_on_c, 9, 35, 0
4, 47135, Note_on_c, 9, 63, 63
4, 47160, Note_on_c, 9, 51, 73
4, 47161, Note_on_c, 9, 63, 0
4, 47175, Note_on_c, 9, 51, 0
4, 47219, Note_on_c, 9, 64, 46
4, 47220, Note_on_c, 9, 51, 62
4, 47225, Note_on_c, 9, 40, 34
4, 47231, Note_on_c, 9, 40, 0
4, 47231, Note_on_c, 9, 64, 0
4, 47236, Note_on_c, 9, 51, 0
4, 47244, Note_on_c, 9, 40, 29
4, 47251, Note_on_c, 9, 40, 0
4, 47253, Note_on_c, 9, 64, 54
4, 47269, Note_on_c, 9, 64, 0
4, 47280, Note_on_c, 9, 51, 62
4, 47294, Note_on_c, 9, 51, 0
4, 47310, Note_on_c, 9, 51, 64
4, 47316, Note_on_c, 9, 40, 50
4, 47322, Note_on_c, 9, 40, 0
4, 47327, Note_on_c, 9, 51, 0
4, 47335, Note_on_c, 9, 40, 39
4, 47342, Note_on_c, 9, 40, 0
4, 47343, Note_on_c, 9, 63, 27
4, 47350, Note_on_c, 9, 63, 0
4, 47370, Note_on_c, 9, 51, 67
4, 47374, Note_on_c, 9, 40, 44
4, 47377, Note_on_c, 9, 63, 69
4, 47380, Note_on_c, 9, 40, 0
4, 47386, Note_on_c, 9, 51, 0
4, 47391, Note_on_c, 9, 63, 0
4, 47392, Note_on_c, 9, 40, 40
4, 47399, Note_on_c, 9, 40, 0
4, 47407, Note_on_c, 9, 63, 65
4, 47428, Note_on_c, 9, 40, 45
4, 47429, Note_on_c, 9, 63, 0
4, 47430, Note_on_c, 9, 51, 36
4, 47433, Note_on_c, 9, 40, 0
4, 47438, Note_on_c, 9, 51, 0
4, 47445, Note_on_c, 9, 40, 39
4, 47451, Note_on_c, 9, 40, 0
4, 47460, Note_on_c, 9, 51, 36
4, 47460, Note_on_c, 9, 64, 33
4, 47469, Note_on_c, 9, 64, 0
4, 47477, Note_on_c, 9, 40, 53
4, 47478, Note_on_c, 9, 51, 0
4, 47483, Note_on_c, 9, 40, 0
4, 47492, Note_on_c, 9, 40, 42
4, 47493, Note_on_c, 9, 64, 62
4, 47497, Note_on_c, 9, 40, 0
4, 47508, Note_on_c, 9, 35, 47
4, 47514, Note_on_c, 9, 64, 0
4, 47519, Note_on_c, 9, 35, 0
4, 47543, Note_on_c, 9, 35, 44
4, 47551, Note_on_c, 9, 63, 23
4, 47556, Note_on_c, 9, 63, 0
4, 47556, Note_on_c, 9, 35, 0
4, 47572, Note_on_c, 9, 35, 49
4, 47580, Note_on_c, 9, 51, 62
4, 47582, Note_on_c, 9, 63, 69
4, 47585, Note_on_c, 9, 35, 0
4, 47590, Note_on_c, 9, 51, 0
4, 47609, Note_on_c, 9, 63, 0
4, 47639, Note_on_c, 9, 64, 21
4, 47640, Note_on_c, 9, 51, 64
4, 47647, Note_on_c, 9, 51, 0
4, 47648, Note_on_c, 9, 64, 0
4, 47670, Note_on_c, 9, 51, 48
4, 47673, Note_on_c, 9, 64, 51
4, 47685, Note_on_c, 9, 64, 0
4, 47686, Note_on_c, 9, 51, 0
4, 47728, Note_on_c, 9, 63, 43
4, 47730, Note_on_c, 9, 51, 71
4, 47736, Note_on_c, 9, 63, 0
4, 47747, Note_on_c, 9, 51, 0
4, 47790, Note_on_c, 9, 51, 65
4, 47790, Note_on_c, 9, 63, 58
4, 47797, Note_on_c, 9, 51, 0
4, 47800, Note_on_c, 9, 63, 0
4, 47821, Note_on_c, 9, 63, 25
4, 47826, Note_on_c, 9, 63, 0
4, 47850, Note_on_c, 9, 51, 61
4, 47850, Note_on_c, 9, 63, 49
4, 47855, Note_on_c, 9, 63, 0
4, 47865, Note_on_c, 9, 51, 0
4, 47873, Note_on_c, 9, 63, 61
4, 47880, Note_on_c, 9, 53, 74
4, 47892, Note_on_c, 9, 53, 0
4, 47905, Note_on_c, 9, 63, 0
4, 47914, Note_on_c, 9, 40, 56
4, 47921, Note_on_c, 9, 40, 0
4, 47938, Note_on_c, 9, 63, 20
4, 47940, Note_on_c, 9, 59, 84
4, 47943, Note_on_c, 9, 63, 0
4, 47953, Note_on_c, 9, 59, 0
4, 47966, Note_on_c, 9, 63, 56
4, 47975, Note_on_c, 9, 40, 65
4, 47980, Note_on_c, 9, 63, 0
4, 47981, Note_on_c, 9, 40, 0
4, 48000, Note_on_c, 9, 59, 84
4, 48001, Note_on_c, 9, 57, 64
4, 48006, Note_on_c, 9, 57, 0
4, 48006, Note_on_c, 9, 35, 58
4, 48013, Note_on_c, 9, 35, 0
4, 48015, Note_on_c, 9, 59, 0
4, 48090, Note_on_c, 9, 59, 64
4, 48095, Note_on_c, 9, 64, 63
4, 48096, Note_on_c, 9, 59, 0
4, 48109, Note_on_c, 9, 64, 0
4, 48120, Note_on_c, 9, 59, 65
4, 48137, Note_on_c, 9, 59, 0
4, 48152, Note_on_c, 9, 40, 58
4, 48158, Note_on_c, 9, 40, 0
4, 48181, Note_on_c, 9, 63, 58
4, 48184, Note_on_c, 9, 35, 26
4, 48189, Note_on_c, 9, 35, 0
4, 48193, Note_on_c, 9, 62, 28
4, 48193, Note_on_c, 9, 62, 0
4, 48201, Note_on_c, 9, 63, 0
4, 48210, Note_on_c, 9, 59, 53
4, 48214, Note_on_c, 9, 35, 64
4, 48218, Note_on_c, 9, 59, 0
4, 48225, Note_on_c, 9, 35, 0
4, 48226, Note_on_c, 9, 63, 52
4, 48230, Note_on_c, 9, 62, 37
4, 48234, Note_on_c, 9, 62, 0
4, 48240, Note_on_c, 9, 59, 59
4, 48244, Note_on_c, 9, 35, 51
4, 48246, Note_on_c, 9, 63, 0
4, 48251, Note_on_c, 9, 35, 0
4, 48259, Note_on_c, 9, 59, 0
4, 48275, Note_on_c, 9, 63, 43
4, 48286, Note_on_c, 9, 63, 0
4, 48313, Note_on_c, 9, 62, 40
4, 48316, Note_on_c, 9, 63, 57
4, 48329, Note_on_c, 9, 62, 0
4, 48330, Note_on_c, 9, 59, 44
4, 48338, Note_on_c, 9, 59, 0
4, 48339, Note_on_c, 9, 63, 0
4, 48360, Note_on_c, 9, 59, 68
4, 48365, Note_on_c, 9, 63, 43
4, 48376, Note_on_c, 9, 63, 0
4, 48377, Note_on_c, 9, 59, 0
4, 48395, Note_on_c, 9, 40, 54
4, 48400, Note_on_c, 9, 40, 0
4, 48403, Note_on_c, 9, 62, 40
4, 48405, Note_on_c, 9, 63, 56
4, 48411, Note_on_c, 9, 62, 0
4, 48420, Note_on_c, 9, 53, 81
4, 48425, Note_on_c, 9, 35, 32
4, 48425, Note_on_c, 9, 35, 0
4, 48426, Note_on_c, 9, 63, 0
4, 48435, Note_on_c, 9, 53, 0
4, 48451, Note_on_c, 9, 63, 51
4, 48451, Note_on_c, 9, 35, 48
4, 48464, Note_on_c, 9, 35, 0
4, 48468, Note_on_c, 9, 63, 0
4, 48479, Note_on_c, 9, 35, 57
4, 48480, Note_on_c, 9, 59, 53
4, 48487, Note_on_c, 9, 64, 44
4, 48488, Note_on_c, 9, 59, 0
4, 48499, Note_on_c, 9, 35, 0
4, 48510, Note_on_c, 9, 59, 63
4, 48519, Note_on_c, 9, 64, 0
4, 48528, Note_on_c, 9, 59, 0
4, 48541, Note_on_c, 9, 63, 32
4, 48549, Note_on_c, 9, 63, 0
4, 48570, Note_on_c, 9, 59, 69
4, 48571, Note_on_c, 9, 35, 24
4, 48576, Note_on_c, 9, 35, 0
4, 48577, Note_on_c, 9, 63, 60
4, 48581, Note_on_c, 9, 59, 0
4, 48596, Note_on_c, 9, 35, 43
4, 48598, Note_on_c, 9, 63, 0
4, 48606, Note_on_c, 9, 35, 0
4, 48630, Note_on_c, 9, 59, 68
4, 48633, Note_on_c, 9, 35, 36
4, 48643, Note_on_c, 9, 59, 0
4, 48646, Note_on_c, 9, 35, 0
4, 48659, Note_on_c, 9, 63, 40
4, 48670, Note_on_c, 9, 63, 0
4, 48690, Note_on_c, 9, 59, 54
4, 48694, Note_on_c, 9, 63, 58
4, 48698, Note_on_c, 9, 59, 0
4, 48709, Note_on_c, 9, 63, 0
4, 48720, Note_on_c, 9, 59, 69
4, 48736, Note_on_c, 9, 59, 0
4, 48753, Note_on_c, 9, 63, 31
4, 48760, Note_on_c, 9, 63, 0
4, 48780, Note_on_c, 9, 59, 76
4, 48783, Note_on_c, 9, 63, 21
4, 48787, Note_on_c, 9, 59, 0
4, 48792, Note_on_c, 9, 63, 0
4, 48813, Note_on_c, 9, 63, 50
4, 48822, Note_on_c, 9, 63, 0
4, 48840, Note_on_c, 9, 59, 54
4, 48841, Note_on_c, 9, 63, 51
4, 48848, Note_on_c, 9, 59, 0
4, 48855, Note_on_c, 9, 63, 0
4, 48870, Note_on_c, 9, 53, 71
4, 48871, Note_on_c, 9, 63, 64
4, 48873, Note_on_c, 9, 40, 57
4, 48878, Note_on_c, 9, 40, 0
4, 48879, Note_on_c, 9, 53, 0
4, 48888, Note_on_c, 9, 63, 0
4, 48899, Note_on_c, 9, 63, 51
4, 48900, Note_on_c, 9, 59, 76
4, 48900, Note_on_c, 9, 35, 33
4, 48907, Note_on_c, 9, 35, 0
4, 48918, Note_on_c, 9, 63, 0
4, 48919, Note_on_c, 9, 59, 0
4, 48931, Note_on_c, 9, 40, 55
4, 48937, Note_on_c, 9, 40, 0
4, 48956, Note_on_c, 9, 35, 26
4, 48960, Note_on_c, 9, 59, 70
4, 48968, Note_on_c, 9, 35, 0
4, 48977, Note_on_c, 9, 59, 0
4, 48987, Note_on_c, 9, 35, 49
4, 48996, Note_on_c, 9, 35, 0
4, 49016, Note_on_c, 9, 64, 30
4, 49017, Note_on_c, 9, 35, 40
4, 49020, Note_on_c, 9, 59, 76
4, 49023, Note_on_c, 9, 64, 0
4, 49024, Note_on_c, 9, 35, 0
4, 49036, Note_on_c, 9, 59, 0
4, 49049, Note_on_c, 9, 35, 58
4, 49052, Note_on_c, 9, 64, 51
4, 49062, Note_on_c, 9, 35, 0
4, 49080, Note_on_c, 9, 59, 63
4, 49083, Note_on_c, 9, 35, 36
4, 49087, Note_on_c, 9, 59, 0
4, 49088, Note_on_c, 9, 64, 0
4, 49090, Note_on_c, 9, 35, 0
4, 49110, Note_on_c, 9, 59, 65
4, 49127, Note_on_c, 9, 59, 0
4, 49134, Note_on_c, 9, 63, 39
4, 49150, Note_on_c, 9, 63, 0
4, 49170, Note_on_c, 9, 59, 77
4, 49172, Note_on_c, 9, 63, 48
4, 49183, Note_on_c, 9, 63, 0
4, 49184, Note_on_c, 9, 59, 0
4, 49219, Note_on_c, 9, 62, 37
4, 49221, Note_on_c, 9, 63, 52
4, 49225, Note_on_c, 9, 62, 0
4, 49227, Note_on_c, 9, 40, 42
4, 49230, Note_on_c, 9, 59, 62
4, 49232, Note_on_c, 9, 40, 0
4, 49237, Note_on_c, 9, 59, 0
4, 49240, Note_on_c, 9, 63, 0
4, 49254, Note_on_c, 9, 35, 17
4, 49265, Note_on_c, 9, 35, 0
4, 49270, Note_on_c, 9, 63, 51
4, 49284, Note_on_c, 9, 63, 0
4, 49288, Note_on_c, 9, 35, 55
4, 49290, Note_on_c, 9, 59, 68
4, 49300, Note_on_c, 9, 59, 0
4, 49304, Note_on_c, 9, 35, 0
4, 49310, Note_on_c, 9, 62, 47
4, 49322, Note_on_c, 9, 62, 0
4, 49325, Note_on_c, 9, 63, 54
4, 49342, Note_on_c, 9, 63, 0
4, 49350, Note_on_c, 9, 59, 75
4, 49354, Note_on_c, 9, 40, 38
4, 49357, Note_on_c, 9, 59, 0
4, 49360, Note_on_c, 9, 40, 0
4, 49366, Note_on_c, 9, 63, 53
4, 49379, Note_on_c, 9, 63, 0
4, 49380, Note_on_c, 9, 59, 71
4, 49382, Note_on_c, 9, 35, 24
4, 49389, Note_on_c, 9, 35, 0
4, 49395, Note_on_c, 9, 59, 0
4, 49406, Note_on_c, 9, 62, 47
4, 49411, Note_on_c, 9, 63, 64
4, 49412, Note_on_c, 9, 35, 54
4, 49418, Note_on_c, 9, 62, 0
4, 49424, Note_on_c, 9, 35, 0
4, 49431, Note_on_c, 9, 63, 0
4, 49440, Note_on_c, 9, 59, 81
4, 49446, Note_on_c, 9, 63, 53
4, 49447, Note_on_c, 9, 59, 0
4, 49467, Note_on_c, 9, 63, 0
4, 49494, Note_on_c, 9, 64, 48
4, 49508, Note_on_c, 9, 64, 0
4, 49530, Note_on_c, 9, 59, 74
4, 49530, Note_on_c, 9, 64, 51
4, 49538, Note_on_c, 9, 59, 0
4, 49542, Note_on_c, 9, 64, 0
4, 49560, Note_on_c, 9, 59, 72
4, 49574, Note_on_c, 9, 59, 0
4, 49590, Note_on_c, 9, 59, 66
4, 49596, Note_on_c, 9, 40, 44
4, 49603, Note_on_c, 9, 40, 0
4, 49606, Note_on_c, 9, 59, 0
4, 49624, Note_on_c, 9, 35, 35
4, 49631, Note_on_c, 9, 35, 0
4, 49650, Note_on_c, 9, 59, 83
4, 49660, Note_on_c, 9, 35, 31
4, 49663, Note_on_c, 9, 59, 0
4, 49668, Note_on_c, 9, 35, 0
4, 49710, Note_on_c, 9, 59, 85
4, 49714, Note_on_c, 9, 40, 58
4, 49723, Note_on_c, 9, 59, 0
4, 49726, Note_on_c, 9, 40, 0
4, 49743, Note_on_c, 9, 35, 26
4, 49752, Note_on_c, 9, 35, 0
4, 49770, Note_on_c, 9, 53, 79
4, 49770, Note_on_c, 9, 40, 66
4, 49787, Note_on_c, 9, 40, 0
4, 49787, Note_on_c, 9, 53, 0
4, 49800, Note_on_c, 9, 59, 75
4, 49809, Note_on_c, 9, 59, 0
4, 49834, Note_on_c, 9, 40, 70
4, 49847, Note_on_c, 9, 40, 0
4, 49860, Note_on_c, 9, 59, 79
4, 49860, Note_on_c, 9, 63, 49
4, 49864, Note_on_c, 9, 40, 47
4, 49869, Note_on_c, 9, 63, 0
4, 49869, Note_on_c, 9, 59, 0
4, 49870, Note_on_c, 9, 40, 0
4, 49893, Note_on_c, 9, 63, 63
4, 49897, Note_on_c, 9, 35, 69
4, 49907, Note_on_c, 9, 35, 0
4, 49909, Note_on_c, 9, 63, 0
4, 49920, Note_on_c, 9, 59, 82
4, 49923, Note_on_c, 9, 57, 69
4, 49924, Note_on_c, 9, 35, 66
4, 49931, Note_on_c, 9, 57, 0
4, 49932, Note_on_c, 9, 59, 0
4, 49939, Note_on_c, 9, 35, 0
4, 49980, Note_on_c, 9, 59, 74
4, 49982, Note_on_c, 9, 64, 36
4, 49987, Note_on_c, 9, 59, 0
4, 49994, Note_on_c, 9, 64, 0
4, 50017, Note_on_c, 9, 64, 46
4, 50030, Note_on_c, 9, 64, 0
4, 50040, Note_on_c, 9, 59, 60
4, 50049, Note_on_c, 9, 59, 0
4, 50070, Note_on_c, 9, 59, 47
4, 50075, Note_on_c, 9, 40, 64
4, 50078, Note_on_c, 9, 59, 0
4, 50080, Note_on_c, 9, 40, 0
4, 50105, Note_on_c, 9, 63, 55
4, 50105, Note_on_c, 9, 57, 64
4, 50106, Note_on_c, 9, 35, 65
4, 50107, Note_on_c, 9, 40, 47
4, 50109, Note_on_c, 9, 57, 0
4, 50112, Note_on_c, 9, 40, 0
4, 50114, Note_on_c, 9, 35, 0
4, 50128, Note_on_c, 9, 63, 0
4, 50130, Note_on_c, 9, 59, 67
4, 50139, Note_on_c, 9, 59, 0
4, 50140, Note_on_c, 9, 63, 44
4, 50160, Note_on_c, 9, 63, 0
4, 50190, Note_on_c, 9, 59, 68
4, 50208, Note_on_c, 9, 59, 0
4, 50250, Note_on_c, 9, 59, 58
4, 50251, Note_on_c, 9, 40, 51
4, 50256, Note_on_c, 9, 40, 0
4, 50258, Note_on_c, 9, 59, 0
4, 50280, Note_on_c, 9, 59, 60
4, 50282, Note_on_c, 9, 40, 53
4, 50287, Note_on_c, 9, 40, 0
4, 50302, Note_on_c, 9, 59, 0
4, 50312, Note_on_c, 9, 40, 70
4, 50316, Note_on_c, 9, 40, 0
4, 50325, Note_on_c, 9, 62, 21
4, 50330, Note_on_c, 9, 62, 0
4, 50340, Note_on_c, 9, 59, 71
4, 50345, Note_on_c, 9, 40, 62
4, 50349, Note_on_c, 9, 40, 0
4, 50349, Note_on_c, 9, 63, 35
4, 50355, Note_on_c, 9, 59, 0
4, 50360, Note_on_c, 9, 63, 0
4, 50370, Note_on_c, 9, 59, 68
4, 50386, Note_on_c, 9, 59, 0
4, 50386, Note_on_c, 9, 63, 49
4, 50397, Note_on_c, 9, 35, 42
4, 50401, Note_on_c, 9, 63, 0
4, 50404, Note_on_c, 9, 35, 0
4, 50430, Note_on_c, 9, 59, 71
4, 50431, Note_on_c, 9, 63, 48
4, 50445, Note_on_c, 9, 59, 0
4, 50447, Note_on_c, 9, 63, 0
4, 50460, Note_on_c, 9, 59, 62
4, 50477, Note_on_c, 9, 59, 0
4, 50520, Note_on_c, 9, 59, 64
4, 50528, Note_on_c, 9, 59, 0
4, 50580, Note_on_c, 9, 59, 81
4, 50586, Note_on_c, 9, 64, 40
4, 50593, Note_on_c, 9, 59, 0
4, 50598, Note_on_c, 9, 64, 0
4, 50617, Note_on_c, 9, 64, 45
4, 50628, Note_on_c, 9, 64, 0
4, 50640, Note_on_c, 9, 59, 87
4, 50653, Note_on_c, 9, 59, 0
4, 50670, Note_on_c, 9, 59, 68
4, 50684, Note_on_c, 9, 59, 0
4, 50706, Note_on_c, 9, 63, 31
4, 50718, Note_on_c, 9, 63, 0
4, 50730, Note_on_c, 9, 53, 76
4, 50736, Note_on_c, 9, 40, 42
4, 50738, Note_on_c, 9, 63, 51
4, 50739, Note_on_c, 9, 53, 0
4, 50741, Note_on_c, 9, 40, 0
4, 50754, Note_on_c, 9, 63, 0
4, 50760, Note_on_c, 9, 59, 81
4, 50775, Note_on_c, 9, 59, 0
4, 50799, Note_on_c, 9, 40, 36
4, 50807, Note_on_c, 9, 40, 0
4, 50820, Note_on_c, 9, 59, 73
4, 50826, Note_on_c, 9, 64, 31
4, 50828, Note_on_c, 9, 59, 0
4, 50844, Note_on_c, 9, 64, 0
4, 50855, Note_on_c, 9, 40, 45
4, 50859, Note_on_c, 9, 64, 38
4, 50860, Note_on_c, 9, 40, 0
4, 50872, Note_on_c, 9, 64, 0
4, 50880, Note_on_c, 9, 59, 71
4, 50884, Note_on_c, 9, 35, 27
4, 50888, Note_on_c, 9, 59, 0
4, 50896, Note_on_c, 9, 35, 0
4, 50915, Note_on_c, 9, 35, 51
4, 50928, Note_on_c, 9, 35, 0
4, 50940, Note_on_c, 9, 59, 62
4, 50943, Note_on_c, 9, 35, 44
4, 50947, Note_on_c, 9, 63, 46
4, 50951, Note_on_c, 9, 59, 0
4, 50961, Note_on_c, 9, 35, 0
4, 50969, Note_on_c, 9, 63, 0
4, 51000, Note_on_c, 9, 59, 72
4, 51004, Note_on_c, 9, 35, 55
4, 51009, Note_on_c, 9, 59, 0
4, 51016, Note_on_c, 9, 35, 0
4, 51030, Note_on_c, 9, 59, 55
4, 51043, Note_on_c, 9, 59, 0
4, 51070, Note_on_c, 9, 64, 28
4, 51085, Note_on_c, 9, 64, 0
4, 51090, Note_on_c, 9, 59, 76
4, 51097, Note_on_c, 9, 59, 0
4, 51100, Note_on_c, 9, 64, 46
4, 51115, Note_on_c, 9, 64, 0
4, 51150, Note_on_c, 9, 59, 50
4, 51158, Note_on_c, 9, 59, 0
4, 51185, Note_on_c, 9, 63, 37
4, 51195, Note_on_c, 9, 63, 0
4, 51210, Note_on_c, 9, 59, 71
4, 51216, Note_on_c, 9, 63, 53
4, 51225, Note_on_c, 9, 59, 0
4, 51236, Note_on_c, 9, 63, 0
4, 51240, Note_on_c, 9, 59, 66
4, 51248, Note_on_c, 9, 59, 0
4, 51276, Note_on_c, 9, 40, 48
4, 51281, Note_on_c, 9, 40, 0
4, 51301, Note_on_c, 9, 64, 47
4, 51303, Note_on_c, 9, 35, 22
4, 51311, Note_on_c, 9, 35, 0
4, 51315, Note_on_c, 9, 64, 0
4, 51330, Note_on_c, 9, 59, 69
4, 51335, Note_on_c, 9, 40, 52
4, 51336, Note_on_c, 9, 64, 51
4, 51340, Note_on_c, 9, 40, 0
4, 51341, Note_on_c, 9, 59, 0
4, 51351, Note_on_c, 9, 64, 0
4, 51358, Note_on_c, 9, 35, 32
4, 51360, Note_on_c, 9, 59, 71
4, 51367, Note_on_c, 9, 35, 0
4, 51373, Note_on_c, 9, 59, 0
4, 51395, Note_on_c, 9, 40, 31
4, 51401, Note_on_c, 9, 40, 0
4, 51420, Note_on_c, 9, 63, 45
4, 51421, Note_on_c, 9, 35, 33
4, 51429, Note_on_c, 9, 35, 0
4, 51437, Note_on_c, 9, 63, 0
4, 51450, Note_on_c, 9, 59, 68
4, 51452, Note_on_c, 9, 35, 46
4, 51458, Note_on_c, 9, 35, 0
4, 51458, Note_on_c, 9, 63, 49
4, 51468, Note_on_c, 9, 59, 0
4, 51477, Note_on_c, 9, 63, 0
4, 51480, Note_on_c, 9, 59, 66
4, 51482, Note_on_c, 9, 35, 39
4, 51489, Note_on_c, 9, 35, 0
4, 51497, Note_on_c, 9, 59, 0
4, 51537, Note_on_c, 9, 64, 44
4, 51558, Note_on_c, 9, 64, 0
4, 51570, Note_on_c, 9, 59, 71
4, 51573, Note_on_c, 9, 64, 35
4, 51588, Note_on_c, 9, 64, 0
4, 51588, Note_on_c, 9, 59, 0
4, 51600, Note_on_c, 9, 59, 68
4, 51611, Note_on_c, 9, 59, 0
4, 51630, Note_on_c, 9, 53, 63
4, 51639, Note_on_c, 9, 53, 0
4, 51690, Note_on_c, 9, 59, 74
4, 51691, Note_on_c, 9, 63, 42
4, 51705, Note_on_c, 9, 63, 0
4, 51708, Note_on_c, 9, 59, 0
4, 51750, Note_on_c, 9, 53, 62
4, 51759, Note_on_c, 9, 53, 0
4, 51776, Note_on_c, 9, 64, 44
4, 51780, Note_on_c, 9, 59, 74
4, 51800, Note_on_c, 9, 64, 0
4, 51803, Note_on_c, 9, 59, 0
4, 51840, Note_on_c, 9, 59, 63
4, 51844, Note_on_c, 9, 35, 40
4, 51848, Note_on_c, 9, 59, 0
4, 51850, Note_on_c, 9, 35, 0
4, 51870, Note_on_c, 9, 53, 71
4, 51885, Note_on_c, 9, 53, 0
4, 51905, Note_on_c, 9, 63, 30
4, 51922, Note_on_c, 9, 63, 0
4, 51930, Note_on_c, 9, 59, 65
4, 51937, Note_on_c, 9, 63, 44
4, 51939, Note_on_c, 9, 59, 0
4, 51957, Note_on_c, 9, 63, 0
4, 51960, Note_on_c, 9, 59, 76
4, 51975, Note_on_c, 9, 59, 0
4, 51994, Note_on_c, 9, 34, 44
4, 52004, Note_on_c, 9, 34, 0
4, 52020, Note_on_c, 9, 53, 58
4, 52022, Note_on_c, 9, 64, 49
4, 52028, Note_on_c, 9, 53, 0
4, 52046, Note_on_c, 9, 64, 0
4, 52050, Note_on_c, 9, 59, 75
4, 52056, Note_on_c, 9, 35, 36
4, 52057, Note_on_c, 9, 64, 46
4, 52064, Note_on_c, 9, 35, 0
4, 52067, Note_on_c, 9, 59, 0
4, 52075, Note_on_c, 9, 64, 0
4, 52085, Note_on_c, 9, 40, 37
4, 52087, Note_on_c, 9, 35, 39
4, 52091, Note_on_c, 9, 40, 0
4, 52096, Note_on_c, 9, 35, 0
4, 52110, Note_on_c, 9, 53, 57
4, 52118, Note_on_c, 9, 53, 0
4, 52140, Note_on_c, 9, 59, 80
4, 52146, Note_on_c, 9, 40, 41
4, 52149, Note_on_c, 9, 35, 32
4, 52153, Note_on_c, 9, 40, 0
4, 52156, Note_on_c, 9, 59, 0
4, 52158, Note_on_c, 9, 35, 0
4, 52167, Note_on_c, 9, 62, 24
4, 52172, Note_on_c, 9, 62, 0
4, 52178, Note_on_c, 9, 63, 56
4, 52200, Note_on_c, 9, 59, 70
4, 52203, Note_on_c, 9, 63, 0
4, 52211, Note_on_c, 9, 59, 0
4, 52232, Note_on_c, 9, 63, 52
4, 52250, Note_on_c, 9, 63, 0
4, 52260, Note_on_c, 9, 59, 74
4, 52276, Note_on_c, 9, 59, 0
4, 52283, Note_on_c, 9, 62, 47
4, 52289, Note_on_c, 9, 63, 52
4, 52295, Note_on_c, 9, 40, 43
4, 52298, Note_on_c, 9, 62, 0
4, 52303, Note_on_c, 9, 40, 0
4, 52314, Note_on_c, 9, 63, 0
4, 52320, Note_on_c, 9, 59, 78
4, 52325, Note_on_c, 9, 35, 27
4, 52329, Note_on_c, 9, 63, 45
4, 52334, Note_on_c, 9, 35, 0
4, 52336, Note_on_c, 9, 59, 0
4, 52350, Note_on_c, 9, 63, 0
4, 52350, Note_on_c, 9, 59, 67
4, 52357, Note_on_c, 9, 35, 37
4, 52364, Note_on_c, 9, 35, 0
4, 52365, Note_on_c, 9, 59, 0
4, 52381, Note_on_c, 9, 64, 27
4, 52400, Note_on_c, 9, 64, 0
4, 52410, Note_on_c, 9, 53, 71
4, 52416, Note_on_c, 9, 64, 44
4, 52421, Note_on_c, 9, 53, 0
4, 52436, Note_on_c, 9, 64, 0
4, 52470, Note_on_c, 9, 59, 70
4, 52489, Note_on_c, 9, 59, 0
4, 52500, Note_on_c, 9, 59, 74
4, 52515, Note_on_c, 9, 59, 0
4, 52535, Note_on_c, 9, 40, 54
4, 52539, Note_on_c, 9, 40, 0
4, 52544, Note_on_c, 9, 62, 31
4, 52548, Note_on_c, 9, 62, 0
4, 52560, Note_on_c, 9, 59, 80
4, 52576, Note_on_c, 9, 59, 0
4, 52590, Note_on_c, 9, 53, 64
4, 52599, Note_on_c, 9, 40, 42
4, 52602, Note_on_c, 9, 53, 0
4, 52604, Note_on_c, 9, 40, 0
4, 52650, Note_on_c, 9, 59, 75
4, 52659, Note_on_c, 9, 40, 56
4, 52665, Note_on_c, 9, 40, 0
4, 52666, Note_on_c, 9, 59, 0
4, 52710, Note_on_c, 9, 59, 72
4, 52719, Note_on_c, 9, 40, 54
4, 52724, Note_on_c, 9, 40, 0
4, 52728, Note_on_c, 9, 59, 0
4, 52740, Note_on_c, 9, 59, 69
4, 52746, Note_on_c, 9, 64, 35
4, 52747, Note_on_c, 9, 35, 26
4, 52754, Note_on_c, 9, 59, 0
4, 52755, Note_on_c, 9, 35, 0
4, 52756, Note_on_c, 9, 64, 0
4, 52780, Note_on_c, 9, 64, 55
4, 52781, Note_on_c, 9, 35, 42
4, 52788, Note_on_c, 9, 35, 0
4, 52799, Note_on_c, 9, 64, 0
4, 52800, Note_on_c, 9, 53, 62
4, 52812, Note_on_c, 9, 35, 57
4, 52822, Note_on_c, 9, 53, 0
4, 52831, Note_on_c, 9, 35, 0
4, 52860, Note_on_c, 9, 59, 67
4, 52867, Note_on_c, 9, 63, 23
4, 52868, Note_on_c, 9, 59, 0
4, 52874, Note_on_c, 9, 35, 50
4, 52879, Note_on_c, 9, 63, 0
4, 52889, Note_on_c, 9, 35, 0
4, 52903, Note_on_c, 9, 63, 65
4, 52920, Note_on_c, 9, 59, 81
4, 52926, Note_on_c, 9, 63, 0
4, 52934, Note_on_c, 9, 59, 0
4, 52950, Note_on_c, 9, 59, 78
4, 52965, Note_on_c, 9, 59, 0
4, 52995, Note_on_c, 9, 64, 28
4, 53007, Note_on_c, 9, 64, 0
4, 53010, Note_on_c, 9, 53, 71
4, 53025, Note_on_c, 9, 53, 0
4, 53029, Note_on_c, 9, 64, 51
4, 53060, Note_on_c, 9, 64, 0
4, 53070, Note_on_c, 9, 59, 83
4, 53083, Note_on_c, 9, 40, 43
4, 53085, Note_on_c, 9, 62, 22
4, 53086, Note_on_c, 9, 59, 0
4, 53089, Note_on_c, 9, 40, 0
4, 53090, Note_on_c, 9, 62, 0
4, 53112, Note_on_c, 9, 63, 31
4, 53130, Note_on_c, 9, 59, 84
4, 53131, Note_on_c, 9, 63, 0
4, 53145, Note_on_c, 9, 63, 49
4, 53146, Note_on_c, 9, 59, 0
4, 53160, Note_on_c, 9, 59, 74
4, 53174, Note_on_c, 9, 63, 0
4, 53178, Note_on_c, 9, 59, 0
4, 53201, Note_on_c, 9, 40, 24
4, 53205, Note_on_c, 9, 62, 22
4, 53206, Note_on_c, 9, 40, 0
4, 53211, Note_on_c, 9, 62, 0
4, 53220, Note_on_c, 9, 59, 79
4, 53232, Note_on_c, 9, 64, 35
4, 53236, Note_on_c, 9, 59, 0
4, 53246, Note_on_c, 9, 64, 0
4, 53263, Note_on_c, 9, 40, 37
4, 53265, Note_on_c, 9, 64, 56
4, 53270, Note_on_c, 9, 40, 0
4, 53298, Note_on_c, 9, 64, 0
4, 53310, Note_on_c, 9, 59, 84
4, 53325, Note_on_c, 9, 59, 0
4, 53335, Note_on_c, 9, 35, 26
4, 53340, Note_on_c, 9, 59, 71
4, 53344, Note_on_c, 9, 35, 0
4, 53347, Note_on_c, 9, 63, 30
4, 53349, Note_on_c, 9, 59, 0
4, 53363, Note_on_c, 9, 63, 0
4, 53381, Note_on_c, 9, 63, 58
4, 53400, Note_on_c, 9, 59, 75
4, 53402, Note_on_c, 9, 35, 24
4, 53410, Note_on_c, 9, 35, 0
4, 53412, Note_on_c, 9, 63, 0
4, 53417, Note_on_c, 9, 59, 0
4, 53430, Note_on_c, 9, 59, 80
4, 53446, Note_on_c, 9, 59, 0
4, 53466, Note_on_c, 9, 64, 46
4, 53479, Note_on_c, 9, 64, 0
4, 53490, Note_on_c, 9, 59, 77
4, 53499, Note_on_c, 9, 64, 61
4, 53507, Note_on_c, 9, 59, 0
4, 53535, Note_on_c, 9, 64, 0
4, 53550, Note_on_c, 9, 59, 75
4, 53554, Note_on_c, 9, 62, 32
4, 53559, Note_on_c, 9, 62, 0
4, 53560, Note_on_c, 9, 40, 32
4, 53568, Note_on_c, 9, 40, 0
4, 53568, Note_on_c, 9, 59, 0
4, 53584, Note_on_c, 9, 63, 20
4, 53591, Note_on_c, 9, 63, 0
4, 53610, Note_on_c, 9, 59, 66
4, 53615, Note_on_c, 9, 63, 58
4, 53618, Note_on_c, 9, 59, 0
4, 53619, Note_on_c, 9, 40, 29
4, 53627, Note_on_c, 9, 40, 0
4, 53631, Note_on_c, 9, 63, 0
4, 53640, Note_on_c, 9, 59, 72
4, 53644, Note_on_c, 9, 63, 50
4, 53655, Note_on_c, 9, 59, 0
4, 53666, Note_on_c, 9, 63, 0
4, 53680, Note_on_c, 9, 40, 33
4, 53687, Note_on_c, 9, 40, 0
4, 53700, Note_on_c, 9, 59, 78
4, 53704, Note_on_c, 9, 64, 37
4, 53715, Note_on_c, 9, 59, 0
4, 53718, Note_on_c, 9, 64, 0
4, 53736, Note_on_c, 9, 64, 50
4, 53737, Note_on_c, 9, 40, 38
4, 53744, Note_on_c, 9, 40, 0
4, 53751, Note_on_c, 9, 64, 0
4, 53760, Note_on_c, 9, 59, 82
4, 53762, Note_on_c, 9, 59, 58
4, 53763, Note_on_c, 9, 64, 44
4, 53765, Note_on_c, 9, 57, 39
4, 53769, Note_on_c, 9, 59, 0
4, 53769, Note_on_c, 9, 35, 35
4, 53771, Note_on_c, 9, 57, 0
4, 53773, Note_on_c, 9, 59, 0
4, 53774, Note_on_c, 9, 64, 0
4, 53776, Note_on_c, 9, 35, 0
4, 53824, Note_on_c, 9, 59, 68
4, 53826, Note_on_c, 9, 64, 45
4, 53832, Note_on_c, 9, 64, 0
4, 53836, Note_on_c, 9, 59, 0
4, 53857, Note_on_c, 9, 40, 40
4, 53859, Note_on_c, 9, 64, 59
4, 53863, Note_on_c, 9, 40, 0
4, 53864, Note_on_c, 9, 64, 0
4, 53887, Note_on_c, 9, 59, 60
4, 53887, Note_on_c, 9, 40, 35
4, 53893, Note_on_c, 9, 40, 0
4, 53901, Note_on_c, 9, 59, 0
4, 53915, Note_on_c, 9, 59, 58
4, 53919, Note_on_c, 9, 35, 43
4, 53924, Note_on_c, 9, 59, 0
4, 53926, Note_on_c, 9, 35, 0
4, 53941, Note_on_c, 9, 62, 54
4, 53948, Note_on_c, 9, 62, 0
4, 53973, Note_on_c, 9, 59, 67
4, 53974, Note_on_c, 9, 62, 75
4, 53977, Note_on_c, 9, 35, 35
4, 53983, Note_on_c, 9, 59, 0
4, 53984, Note_on_c, 9, 35, 0
4, 53985, Note_on_c, 9, 62, 0
4, 54006, Note_on_c, 9, 35, 47
4, 54017, Note_on_c, 9, 35, 0
4, 54036, Note_on_c, 9, 59, 63
4, 54043, Note_on_c, 9, 59, 0
4, 54058, Note_on_c, 9, 64, 30
4, 54072, Note_on_c, 9, 64, 0
4, 54089, Note_on_c, 9, 40, 50
4, 54090, Note_on_c, 9, 64, 85
4, 54094, Note_on_c, 9, 40, 0
4, 54095, Note_on_c, 9, 59, 58
4, 54107, Note_on_c, 9, 59, 0
4, 54108, Note_on_c, 9, 64, 0
4, 54119, Note_on_c, 9, 59, 57
4, 54119, Note_on_c, 9, 64, 87
4, 54132, Note_on_c, 9, 59, 0
4, 54144, Note_on_c, 9, 64, 0
4, 54152, Note_on_c, 9, 40, 48
4, 54157, Note_on_c, 9, 40, 0
4, 54178, Note_on_c, 9, 62, 37
4, 54182, Note_on_c, 9, 59, 56
4, 54186, Note_on_c, 9, 62, 0
4, 54187, Note_on_c, 9, 59, 0
4, 54209, Note_on_c, 9, 62, 84
4, 54211, Note_on_c, 9, 35, 56
4, 54217, Note_on_c, 9, 59, 80
4, 54224, Note_on_c, 9, 35, 0
4, 54229, Note_on_c, 9, 62, 0
4, 54231, Note_on_c, 9, 59, 0
4, 54240, Note_on_c, 9, 35, 44
4, 54255, Note_on_c, 9, 35, 0
4, 54278, Note_on_c, 9, 59, 55
4, 54283, Note_on_c, 9, 59, 0
4, 54302, Note_on_c, 9, 64, 35
4, 54303, Note_on_c, 9, 59, 67
4, 54311, Note_on_c, 9, 64, 0
4, 54313, Note_on_c, 9, 59, 0
4, 54330, Note_on_c, 9, 64, 65
4, 54330, Note_on_c, 9, 40, 34
4, 54336, Note_on_c, 9, 40, 0
4, 54352, Note_on_c, 9, 64, 0
4, 54360, Note_on_c, 9, 40, 40
4, 54368, Note_on_c, 9, 59, 37
4, 54374, Note_on_c, 9, 40, 0
4, 54386, Note_on_c, 9, 59, 0
4, 54401, Note_on_c, 9, 53, 43
4, 54406, Note_on_c, 9, 53, 0
4, 54427, Note_on_c, 9, 62, 22
4, 54439, Note_on_c, 9, 62, 0
4, 54451, Note_on_c, 9, 40, 33
4, 54457, Note_on_c, 9, 62, 53
4, 54458, Note_on_c, 9, 59, 72
4, 54461, Note_on_c, 9, 40, 0
4, 54471, Note_on_c, 9, 59, 0
4, 54480, Note_on_c, 9, 40, 32
4, 54482, Note_on_c, 9, 62, 0
4, 54485, Note_on_c, 9, 59, 61
4, 54496, Note_on_c, 9, 40, 0
4, 54505, Note_on_c, 9, 59, 0
4, 54519, Note_on_c, 9, 40, 35
4, 54525, Note_on_c, 9, 40, 0
4, 54543, Note_on_c, 9, 53, 38
4, 54544, Note_on_c, 9, 64, 56
4, 54549, Note_on_c, 9, 53, 0
4, 54569, Note_on_c, 9, 64, 0
4, 54578, Note_on_c, 9, 59, 71
4, 54579, Note_on_c, 9, 40, 35
4, 54586, Note_on_c, 9, 40, 0
4, 54590, Note_on_c, 9, 59, 0
4, 54610, Note_on_c, 9, 40, 31
4, 54623, Note_on_c, 9, 40, 0
4, 54639, Note_on_c, 9, 59, 62
4, 54651, Note_on_c, 9, 59, 0
4, 54661, Note_on_c, 9, 62, 38
4, 54680, Note_on_c, 9, 62, 0
4, 54693, Note_on_c, 9, 62, 81
4, 54706, Note_on_c, 9, 35, 25
4, 54712, Note_on_c, 9, 35, 0
4, 54712, Note_on_c, 9, 62, 0
4, 54722, Note_on_c, 9, 62, 81
4, 54732, Note_on_c, 9, 35, 44
4, 54741, Note_on_c, 9, 62, 0
4, 54787, Note_on_c, 9, 59, 66
4, 54793, Note_on_c, 9, 59, 0
4, 54847, Note_on_c, 9, 59, 64
4, 54858, Note_on_c, 9, 59, 0
4, 54875, Note_on_c, 9, 59, 47
4, 54884, Note_on_c, 9, 59, 0
4, 54960, Note_on_c, 9, 59, 66
4, 54983, Note_on_c, 9, 59, 0
4, 55054, Note_on_c, 9, 59, 57
4, 55091, Note_on_c, 9, 64, 46
4, 55102, Note_on_c, 9, 64, 0
4, 55134, Note_on_c, 9, 63, 33
4, 55136, Note_on_c, 9, 64, 50
4, 55141, Note_on_c, 9, 63, 0
4, 55141, Note_on_c, 9, 59, 0
4, 55149, Note_on_c, 9, 64, 0
4, 55181, Note_on_c, 9, 64, 41
4, 55198, Note_on_c, 9, 64, 0
4, 55432, Note_on_c, 9, 35, 0
4, 55432, End_track
5, 0, Start_track
5, 0, End_track
6, 0, Start_track
6, 0, End_track
7, 0, Start_track
7, 0, End_track
8, 0, Start_track
8, 0, End_track
9, 0, Start_track
9, 0, End_track
10, 0, Start_track
10, 0, End_track
11, 0, Start_track
11, 0, End_track
0, 0, End_of_file
