0, 0, Header, 1, 5, 960
1, 0, Start_track
1, 0, Title_t, "Recordame"
1, 0, Text_t, "Joe Henderson. dougmck@pipeline.com.au  Piano trio with solo synth. Find a suitable sound for the synth track\012"
1, 0, Time_signature, 4, 2, 24, 8
1, 0, Key_signature, 0, "major"
1, 0, Tempo, 600000
1, 0, End_track
2, 0, Start_track
2, 0, Title_t, "Rhodes"
2, 0, Program_c, 0, 4
2, 0, Control_c, 0, 7, 82
2, 0, Control_c, 0, 64, 127
2, 12, Note_on_c, 0, 83, 62
2, 65, Note_on_c, 0, 79, 42
2, 108, Note_on_c, 0, 64, 28
2, 111, Control_c, 0, 64, 0
2, 116, Note_on_c, 0, 76, 47
2, 157, Note_on_c, 0, 60, 24
2, 176, Note_on_c, 0, 71, 30
2, 356, Note_on_c, 0, 59, 3
2, 464, Control_c, 0, 64, 127
2, 1028, Note_on_c, 0, 60, 0
2, 1029, Note_on_c, 0, 83, 0
2, 1041, Note_on_c, 0, 64, 0
2, 1055, Note_on_c, 0, 59, 0
2, 1212, Note_on_c, 0, 71, 0
2, 1277, Note_on_c, 0, 76, 0
2, 1315, Note_on_c, 0, 79, 0
2, 1493, Note_on_c, 0, 76, 37
2, 1532, Note_on_c, 0, 64, 32
2, 1562, Note_on_c, 0, 59, 32
2, 1608, Note_on_c, 0, 60, 32
2, 2319, Note_on_c, 0, 76, 0
2, 2375, Note_on_c, 0, 64, 0
2, 2466, Note_on_c, 0, 60, 0
2, 2621, Note_on_c, 0, 59, 0
2, 5275, Note_on_c, 0, 64, 49
2, 5292, Control_c, 0, 64, 0
2, 5300, Note_on_c, 0, 60, 47
2, 5305, Note_on_c, 0, 54, 32
2, 5316, Note_on_c, 0, 59, 36
2, 5444, Note_on_c, 0, 59, 0
2, 5475, Note_on_c, 0, 60, 0
2, 5496, Note_on_c, 0, 64, 0
2, 5550, Note_on_c, 0, 54, 0
2, 5814, Note_on_c, 0, 64, 38
2, 5854, Note_on_c, 0, 60, 47
2, 5860, Note_on_c, 0, 59, 42
2, 5862, Note_on_c, 0, 54, 25
2, 6292, Note_on_c, 0, 59, 0
2, 6306, Note_on_c, 0, 60, 0
2, 6321, Note_on_c, 0, 64, 0
2, 6428, Note_on_c, 0, 54, 0
2, 6658, Note_on_c, 0, 54, 36
2, 6694, Note_on_c, 0, 64, 34
2, 6710, Note_on_c, 0, 59, 38
2, 6713, Note_on_c, 0, 60, 46
2, 6815, Control_c, 0, 64, 127
2, 6975, Control_c, 0, 64, 0
2, 7077, Note_on_c, 0, 59, 0
2, 7090, Note_on_c, 0, 60, 0
2, 7106, Note_on_c, 0, 54, 0
2, 7247, Control_c, 0, 64, 127
2, 7269, Note_on_c, 0, 64, 0
2, 7472, Control_c, 0, 64, 0
2, 7663, Note_on_c, 0, 64, 29
2, 7672, Note_on_c, 0, 59, 36
2, 7674, Note_on_c, 0, 60, 40
2, 7700, Note_on_c, 0, 55, 33
2, 7808, Control_c, 0, 64, 127
2, 8736, Note_on_c, 0, 60, 0
2, 8781, Note_on_c, 0, 64, 0
2, 8804, Note_on_c, 0, 59, 0
2, 8928, Note_on_c, 0, 55, 0
2, 10127, Note_on_c, 0, 67, 50
2, 10131, Note_on_c, 0, 71, 50
2, 10131, Note_on_c, 0, 74, 54
2, 10138, Note_on_c, 0, 64, 44
2, 10144, Note_on_c, 0, 60, 36
2, 10155, Note_on_c, 0, 62, 46
2, 10282, Control_c, 0, 64, 0
2, 10492, Control_c, 0, 64, 127
2, 12536, Note_on_c, 0, 74, 0
2, 12636, Note_on_c, 0, 71, 0
2, 12754, Note_on_c, 0, 64, 0
2, 12797, Note_on_c, 0, 67, 0
2, 12883, Note_on_c, 0, 62, 0
2, 12945, Note_on_c, 0, 60, 0
2, 13022, Note_on_c, 0, 72, 70
2, 13289, Note_on_c, 0, 72, 0
2, 14890, Note_on_c, 0, 71, 68
2, 14903, Note_on_c, 0, 64, 64
2, 15148, Note_on_c, 0, 64, 0
2, 15287, Note_on_c, 0, 71, 0
2, 15365, Note_on_c, 0, 60, 36
2, 15378, Note_on_c, 0, 64, 26
2, 15384, Note_on_c, 0, 69, 40
2, 15429, Control_c, 0, 64, 0
2, 15431, Note_on_c, 0, 60, 0
2, 15461, Note_on_c, 0, 64, 0
2, 15472, Note_on_c, 0, 69, 0
2, 15900, Note_on_c, 0, 50, 39
2, 15970, Note_on_c, 0, 50, 0
2, 16347, Note_on_c, 0, 59, 42
2, 16419, Note_on_c, 0, 59, 0
2, 16817, Note_on_c, 0, 59, 48
2, 16829, Note_on_c, 0, 60, 55
2, 16854, Note_on_c, 0, 64, 36
2, 16875, Note_on_c, 0, 59, 0
2, 16889, Note_on_c, 0, 60, 0
2, 16926, Note_on_c, 0, 64, 0
2, 17749, Note_on_c, 0, 33, 38
2, 17837, Note_on_c, 0, 33, 0
2, 18232, Note_on_c, 0, 55, 40
2, 18262, Note_on_c, 0, 60, 30
2, 18262, Note_on_c, 0, 64, 29
2, 18291, Note_on_c, 0, 55, 0
2, 18320, Note_on_c, 0, 60, 0
2, 18350, Note_on_c, 0, 64, 0
2, 18745, Note_on_c, 0, 55, 43
2, 18768, Note_on_c, 0, 60, 38
2, 18777, Note_on_c, 0, 64, 34
2, 18804, Note_on_c, 0, 55, 0
2, 18832, Note_on_c, 0, 60, 0
2, 18868, Note_on_c, 0, 64, 0
2, 19689, Note_on_c, 0, 50, 50
2, 19767, Note_on_c, 0, 50, 0
2, 20723, Control_c, 0, 64, 127
2, 21058, Control_c, 0, 64, 0
2, 21129, Note_on_c, 0, 64, 79
2, 21129, Note_on_c, 0, 60, 81
2, 21136, Note_on_c, 0, 67, 75
2, 21416, Note_on_c, 0, 60, 0
2, 21471, Note_on_c, 0, 64, 0
2, 21492, Note_on_c, 0, 67, 0
2, 21586, Note_on_c, 0, 50, 42
2, 21666, Note_on_c, 0, 50, 0
2, 21748, Control_c, 0, 64, 127
2, 21925, Control_c, 0, 64, 0
2, 22028, Note_on_c, 0, 66, 59
2, 22039, Note_on_c, 0, 62, 58
2, 22047, Note_on_c, 0, 57, 43
2, 22341, Control_c, 0, 64, 127
2, 23016, Note_on_c, 0, 62, 0
2, 23085, Note_on_c, 0, 66, 0
2, 23218, Note_on_c, 0, 57, 0
2, 23535, Note_on_c, 0, 64, 39
2, 23545, Note_on_c, 0, 55, 28
2, 23562, Note_on_c, 0, 60, 29
2, 23567, Note_on_c, 0, 50, 35
2, 23592, Control_c, 0, 64, 0
2, 24071, Control_c, 0, 64, 127
2, 24473, Control_c, 0, 64, 0
2, 24577, Note_on_c, 0, 50, 0
2, 24579, Note_on_c, 0, 55, 0
2, 24958, Note_on_c, 0, 60, 0
2, 25244, Control_c, 0, 64, 127
2, 25435, Note_on_c, 0, 50, 38
2, 25598, Note_on_c, 0, 50, 0
2, 25939, Note_on_c, 0, 64, 0
2, 30302, Note_on_c, 0, 67, 38
2, 30317, Note_on_c, 0, 74, 46
2, 30322, Note_on_c, 0, 83, 45
2, 30326, Note_on_c, 0, 62, 29
2, 30344, Note_on_c, 0, 64, 21
2, 30360, Control_c, 0, 64, 0
2, 30368, Note_on_c, 0, 67, 0
2, 30384, Note_on_c, 0, 74, 0
2, 30387, Note_on_c, 0, 83, 0
2, 30398, Note_on_c, 0, 64, 0
2, 30413, Note_on_c, 0, 62, 0
2, 30858, Control_c, 0, 64, 127
2, 31273, Note_on_c, 0, 71, 48
2, 31293, Note_on_c, 0, 79, 49
2, 31302, Note_on_c, 0, 74, 42
2, 31305, Note_on_c, 0, 67, 42
2, 31323, Note_on_c, 0, 62, 36
2, 31339, Note_on_c, 0, 64, 45
2, 31467, Control_c, 0, 64, 0
2, 31629, Control_c, 0, 64, 127
2, 33663, Note_on_c, 0, 67, 0
2, 33700, Note_on_c, 0, 64, 0
2, 33717, Note_on_c, 0, 71, 0
2, 33754, Note_on_c, 0, 74, 0
2, 33761, Note_on_c, 0, 62, 0
2, 33826, Note_on_c, 0, 79, 0
2, 34103, Note_on_c, 0, 78, 59
2, 34108, Note_on_c, 0, 74, 66
2, 34112, Note_on_c, 0, 69, 64
2, 34146, Note_on_c, 0, 64, 38
2, 34321, Control_c, 0, 64, 0
2, 34578, Control_c, 0, 64, 127
2, 34632, Note_on_c, 0, 64, 0
2, 35506, Note_on_c, 0, 69, 0
2, 36036, Note_on_c, 0, 74, 0
2, 36041, Note_on_c, 0, 69, 31
2, 36091, Note_on_c, 0, 78, 0
2, 36097, Note_on_c, 0, 69, 0
2, 36948, Note_on_c, 0, 50, 63
2, 37120, Note_on_c, 0, 50, 0
2, 37934, Note_on_c, 0, 50, 55
2, 37989, Note_on_c, 0, 50, 0
2, 38427, Control_c, 0, 64, 0
2, 38428, Note_on_c, 0, 67, 80
2, 38430, Note_on_c, 0, 62, 89
2, 38437, Note_on_c, 0, 59, 79
2, 38448, Note_on_c, 0, 45, 66
2, 38574, Note_on_c, 0, 59, 0
2, 38861, Note_on_c, 0, 62, 0
2, 38928, Note_on_c, 0, 67, 0
2, 38930, Note_on_c, 0, 45, 0
2, 38966, Note_on_c, 0, 33, 33
2, 39057, Note_on_c, 0, 33, 0
2, 39390, Note_on_c, 0, 45, 38
2, 39392, Note_on_c, 0, 67, 47
2, 39400, Note_on_c, 0, 59, 46
2, 39407, Note_on_c, 0, 62, 47
2, 39713, Note_on_c, 0, 62, 0
2, 39718, Note_on_c, 0, 59, 0
2, 39720, Note_on_c, 0, 45, 0
2, 39857, Note_on_c, 0, 67, 0
2, 39903, Note_on_c, 0, 33, 28
2, 39992, Note_on_c, 0, 33, 0
2, 40326, Note_on_c, 0, 66, 33
2, 40329, Note_on_c, 0, 57, 28
2, 40330, Note_on_c, 0, 45, 35
2, 40345, Note_on_c, 0, 62, 36
2, 40657, Control_c, 0, 64, 127
2, 40660, Note_on_c, 0, 45, 0
2, 40764, Note_on_c, 0, 33, 30
2, 40908, Note_on_c, 0, 57, 0
2, 40927, Note_on_c, 0, 33, 0
2, 41171, Note_on_c, 0, 62, 0
2, 41204, Note_on_c, 0, 66, 0
2, 41254, Note_on_c, 0, 45, 32
2, 41359, Note_on_c, 0, 45, 0
2, 41733, Note_on_c, 0, 55, 42
2, 41740, Note_on_c, 0, 64, 48
2, 41760, Note_on_c, 0, 60, 45
2, 41772, Note_on_c, 0, 45, 39
2, 41861, Control_c, 0, 64, 0
2, 41983, Note_on_c, 0, 45, 0
2, 42181, Control_c, 0, 64, 127
2, 42722, Note_on_c, 0, 45, 44
2, 42805, Note_on_c, 0, 45, 0
2, 42877, Note_on_c, 0, 55, 0
2, 43192, Note_on_c, 0, 60, 0
2, 43210, Note_on_c, 0, 64, 0
2, 43289, Note_on_c, 0, 55, 16
2, 43461, Note_on_c, 0, 55, 0
2, 43713, Note_on_c, 0, 54, 54
2, 43729, Note_on_c, 0, 57, 65
2, 43729, Note_on_c, 0, 62, 60
2, 43766, Control_c, 0, 64, 0
2, 43769, Note_on_c, 0, 45, 35
2, 43950, Note_on_c, 0, 45, 0
2, 44296, Control_c, 0, 64, 127
2, 44597, Note_on_c, 0, 45, 56
2, 44825, Note_on_c, 0, 45, 0
2, 45160, Note_on_c, 0, 45, 21
2, 45250, Note_on_c, 0, 45, 0
2, 45381, Note_on_c, 0, 57, 0
2, 45448, Note_on_c, 0, 54, 0
2, 45564, Note_on_c, 0, 40, 38
2, 45865, Note_on_c, 0, 62, 0
2, 45952, Note_on_c, 0, 40, 0
2, 45996, Control_c, 0, 64, 0
2, 46022, Note_on_c, 0, 64, 47
2, 46028, Note_on_c, 0, 45, 46
2, 46033, Note_on_c, 0, 33, 50
2, 46041, Note_on_c, 0, 55, 42
2, 46977, Control_c, 0, 64, 127
2, 47018, Note_on_c, 0, 45, 0
2, 47241, Note_on_c, 0, 55, 0
2, 47264, Note_on_c, 0, 33, 0
2, 47535, Note_on_c, 0, 64, 0
2, 51797, Note_on_c, 0, 78, 56
2, 51999, Note_on_c, 0, 64, 14
2, 52001, Note_on_c, 0, 59, 35
2, 52018, Note_on_c, 0, 60, 34
2, 52063, Note_on_c, 0, 78, 0
2, 52068, Note_on_c, 0, 79, 42
2, 52124, Control_c, 0, 64, 0
2, 52315, Note_on_c, 0, 79, 0
2, 52354, Note_on_c, 0, 78, 31
2, 52509, Control_c, 0, 64, 127
2, 52558, Note_on_c, 0, 78, 0
2, 52629, Note_on_c, 0, 79, 32
2, 52849, Note_on_c, 0, 79, 0
2, 52861, Note_on_c, 0, 78, 31
2, 53020, Note_on_c, 0, 59, 0
2, 53081, Note_on_c, 0, 78, 0
2, 53126, Note_on_c, 0, 79, 35
2, 53158, Note_on_c, 0, 60, 0
2, 53278, Note_on_c, 0, 79, 0
2, 53291, Note_on_c, 0, 78, 27
2, 53323, Note_on_c, 0, 64, 0
2, 53484, Note_on_c, 0, 78, 0
2, 53583, Note_on_c, 0, 79, 29
2, 53722, Note_on_c, 0, 64, 37
2, 53724, Note_on_c, 0, 78, 32
2, 53738, Note_on_c, 0, 79, 0
2, 53758, Note_on_c, 0, 60, 44
2, 53764, Note_on_c, 0, 59, 37
2, 53805, Control_c, 0, 64, 0
2, 53999, Note_on_c, 0, 78, 0
2, 54028, Note_on_c, 0, 79, 39
2, 54232, Note_on_c, 0, 79, 0
2, 54241, Control_c, 0, 64, 127
2, 54298, Note_on_c, 0, 78, 22
2, 54469, Note_on_c, 0, 78, 0
2, 54509, Note_on_c, 0, 79, 37
2, 54680, Note_on_c, 0, 79, 0
2, 54704, Note_on_c, 0, 78, 29
2, 54944, Note_on_c, 0, 78, 0
2, 54976, Control_c, 0, 64, 0
2, 55000, Note_on_c, 0, 79, 44
2, 55122, Control_c, 0, 64, 127
2, 55212, Note_on_c, 0, 79, 0
2, 55313, Note_on_c, 0, 78, 7
2, 55421, Note_on_c, 0, 78, 0
2, 55485, Note_on_c, 0, 79, 38
2, 55669, Note_on_c, 0, 79, 0
2, 55708, Note_on_c, 0, 78, 27
2, 55765, Control_c, 0, 64, 0
2, 56004, Control_c, 0, 64, 127
2, 56139, Note_on_c, 0, 78, 0
2, 56167, Note_on_c, 0, 76, 35
2, 56422, Note_on_c, 0, 76, 0
2, 56603, Note_on_c, 0, 72, 35
2, 56711, Note_on_c, 0, 64, 0
2, 56760, Note_on_c, 0, 60, 0
2, 56768, Note_on_c, 0, 59, 0
2, 57302, Control_c, 0, 64, 0
2, 57496, Control_c, 0, 64, 127
2, 57975, Note_on_c, 0, 71, 49
2, 58024, Note_on_c, 0, 72, 0
2, 58203, Control_c, 0, 64, 0
2, 58459, Control_c, 0, 64, 127
2, 59061, Note_on_c, 0, 59, 26
2, 59069, Note_on_c, 0, 60, 29
2, 59203, Note_on_c, 0, 60, 0
2, 59223, Note_on_c, 0, 59, 0
2, 59706, Note_on_c, 0, 71, 0
2, 59965, Note_on_c, 0, 69, 59
2, 60459, Note_on_c, 0, 69, 0
2, 60535, Note_on_c, 0, 64, 38
2, 60667, Note_on_c, 0, 64, 0
2, 60979, Note_on_c, 0, 64, 56
2, 61151, Control_c, 0, 64, 0
2, 61333, Note_on_c, 0, 64, 0
2, 61448, Note_on_c, 0, 45, 48
2, 61459, Note_on_c, 0, 52, 36
2, 61464, Note_on_c, 0, 66, 46
2, 61480, Note_on_c, 0, 45, 33
2, 61497, Note_on_c, 0, 57, 36
2, 61512, Note_on_c, 0, 62, 37
2, 61521, Note_on_c, 0, 45, 0
2, 61839, Note_on_c, 0, 57, 0
2, 61941, Note_on_c, 0, 66, 0
2, 62003, Note_on_c, 0, 67, 52
2, 62013, Note_on_c, 0, 64, 62
2, 62066, Note_on_c, 0, 62, 0
2, 62099, Note_on_c, 0, 60, 29
2, 62280, Note_on_c, 0, 67, 0
2, 62296, Note_on_c, 0, 60, 0
2, 62365, Note_on_c, 0, 64, 0
2, 62510, Note_on_c, 0, 66, 38
2, 62556, Note_on_c, 0, 57, 41
2, 62584, Note_on_c, 0, 62, 29
2, 62595, Note_on_c, 0, 52, 0
2, 62864, Note_on_c, 0, 57, 0
2, 62909, Note_on_c, 0, 66, 0
2, 62910, Note_on_c, 0, 62, 0
2, 63029, Note_on_c, 0, 64, 53
2, 63032, Note_on_c, 0, 67, 64
2, 63057, Note_on_c, 0, 52, 38
2, 63081, Note_on_c, 0, 60, 48
2, 63488, Control_c, 0, 64, 127
2, 63744, Note_on_c, 0, 52, 0
2, 63770, Note_on_c, 0, 60, 0
2, 63867, Note_on_c, 0, 64, 0
2, 63923, Note_on_c, 0, 67, 0
2, 64029, Note_on_c, 0, 62, 54
2, 64032, Note_on_c, 0, 66, 48
2, 64074, Note_on_c, 0, 57, 42
2, 64085, Note_on_c, 0, 52, 31
2, 64128, Control_c, 0, 64, 0
2, 64802, Control_c, 0, 64, 127
2, 65429, Note_on_c, 0, 52, 0
2, 65679, Note_on_c, 0, 45, 0
2, 66165, Note_on_c, 0, 62, 0
2, 66454, Note_on_c, 0, 57, 0
2, 66516, Note_on_c, 0, 66, 0
2, 66823, Note_on_c, 0, 50, 52
2, 66905, Control_c, 0, 64, 0
2, 67201, Note_on_c, 0, 50, 0
2, 67312, Note_on_c, 0, 64, 76
2, 67314, Note_on_c, 0, 55, 73
2, 67315, Note_on_c, 0, 60, 77
2, 67838, Note_on_c, 0, 50, 56
2, 67901, Note_on_c, 0, 50, 0
2, 68200, Note_on_c, 0, 55, 0
2, 68205, Control_c, 0, 64, 127
2, 68315, Note_on_c, 0, 55, 24
2, 68585, Note_on_c, 0, 55, 0
2, 68707, Note_on_c, 0, 45, 59
2, 68830, Note_on_c, 0, 60, 0
2, 68901, Note_on_c, 0, 64, 0
2, 68946, Note_on_c, 0, 45, 0
2, 69118, Control_c, 0, 64, 0
2, 69206, Note_on_c, 0, 60, 56
2, 69219, Note_on_c, 0, 45, 50
2, 69222, Note_on_c, 0, 64, 39
2, 69224, Note_on_c, 0, 55, 38
2, 69267, Note_on_c, 0, 60, 0
2, 69281, Note_on_c, 0, 55, 0
2, 69302, Note_on_c, 0, 64, 0
2, 69736, Note_on_c, 0, 64, 51
2, 69739, Note_on_c, 0, 55, 45
2, 69776, Note_on_c, 0, 60, 29
2, 69792, Note_on_c, 0, 55, 0
2, 69831, Note_on_c, 0, 60, 0
2, 69860, Note_on_c, 0, 64, 0
2, 70220, Note_on_c, 0, 66, 51
2, 70243, Note_on_c, 0, 57, 53
2, 70247, Note_on_c, 0, 62, 54
2, 70290, Note_on_c, 0, 52, 34
2, 70401, Control_c, 0, 64, 127
2, 70428, Note_on_c, 0, 52, 0
2, 71002, Note_on_c, 0, 57, 0
2, 71127, Note_on_c, 0, 62, 0
2, 71353, Note_on_c, 0, 66, 0
2, 71577, Note_on_c, 0, 64, 54
2, 71582, Note_on_c, 0, 67, 58
2, 71596, Note_on_c, 0, 59, 46
2, 71598, Note_on_c, 0, 60, 54
2, 71700, Control_c, 0, 64, 0
2, 72069, Control_c, 0, 64, 127
2, 72121, Note_on_c, 0, 45, 0
2, 72505, Note_on_c, 0, 45, 59
2, 72884, Note_on_c, 0, 59, 0
2, 72919, Note_on_c, 0, 60, 0
2, 73160, Note_on_c, 0, 64, 0
2, 73216, Note_on_c, 0, 45, 0
2, 73314, Note_on_c, 0, 67, 0
2, 73547, Note_on_c, 0, 45, 48
2, 74307, Note_on_c, 0, 45, 0
2, 74507, Note_on_c, 0, 45, 37
2, 74662, Note_on_c, 0, 45, 0
2, 74993, Note_on_c, 0, 60, 34
2, 75054, Note_on_c, 0, 60, 0
2, 75459, Note_on_c, 0, 74, 94
2, 76373, Note_on_c, 0, 74, 0
2, 76428, Note_on_c, 0, 63, 58
2, 76432, Note_on_c, 0, 70, 57
2, 76451, Note_on_c, 0, 67, 64
2, 76488, Note_on_c, 0, 60, 47
2, 76491, Note_on_c, 0, 53, 42
2, 76560, Control_c, 0, 64, 0
2, 76767, Control_c, 0, 64, 127
2, 76910, Note_on_c, 0, 63, 0
2, 76924, Note_on_c, 0, 67, 0
2, 76999, Note_on_c, 0, 70, 0
2, 77292, Note_on_c, 0, 53, 0
2, 77386, Note_on_c, 0, 81, 78
2, 77388, Note_on_c, 0, 79, 80
2, 77693, Note_on_c, 0, 81, 0
2, 77785, Note_on_c, 0, 60, 0
2, 77816, Note_on_c, 0, 79, 0
2, 77885, Note_on_c, 0, 74, 70
2, 77890, Note_on_c, 0, 77, 65
2, 77908, Note_on_c, 0, 58, 61
2, 77917, Note_on_c, 0, 63, 44
2, 77946, Note_on_c, 0, 53, 40
2, 77954, Control_c, 0, 64, 0
2, 78180, Control_c, 0, 64, 127
2, 78888, Note_on_c, 0, 63, 0
2, 79023, Note_on_c, 0, 74, 0
2, 79296, Note_on_c, 0, 77, 0
2, 79370, Note_on_c, 0, 75, 63
2, 79373, Note_on_c, 0, 72, 52
2, 79394, Note_on_c, 0, 63, 57
2, 79493, Control_c, 0, 64, 0
2, 79655, Control_c, 0, 64, 127
2, 79671, Note_on_c, 0, 63, 0
2, 79707, Note_on_c, 0, 53, 0
2, 79826, Note_on_c, 0, 75, 0
2, 79837, Note_on_c, 0, 72, 0
2, 79858, Note_on_c, 0, 58, 0
2, 81212, Note_on_c, 0, 63, 53
2, 81226, Note_on_c, 0, 72, 41
2, 81235, Note_on_c, 0, 70, 49
2, 81240, Note_on_c, 0, 67, 54
2, 81258, Note_on_c, 0, 60, 46
2, 81338, Control_c, 0, 64, 0
2, 81675, Control_c, 0, 64, 127
2, 82132, Note_on_c, 0, 60, 0
2, 82186, Note_on_c, 0, 55, 53
2, 82205, Control_c, 0, 64, 0
2, 82261, Note_on_c, 0, 55, 0
2, 82385, Note_on_c, 0, 63, 0
2, 82504, Note_on_c, 0, 67, 0
2, 82518, Note_on_c, 0, 72, 0
2, 82560, Note_on_c, 0, 70, 0
2, 82595, Note_on_c, 0, 63, 27
2, 82670, Note_on_c, 0, 63, 0
2, 83075, Note_on_c, 0, 48, 46
2, 83223, Note_on_c, 0, 48, 0
2, 83515, Note_on_c, 0, 58, 51
2, 83531, Note_on_c, 0, 67, 44
2, 83550, Note_on_c, 0, 63, 29
2, 83568, Note_on_c, 0, 58, 0
2, 83595, Note_on_c, 0, 67, 0
2, 83624, Note_on_c, 0, 63, 0
2, 83992, Note_on_c, 0, 36, 37
2, 84070, Note_on_c, 0, 36, 0
2, 84504, Note_on_c, 0, 63, 46
2, 84512, Note_on_c, 0, 67, 55
2, 84536, Note_on_c, 0, 58, 35
2, 84555, Note_on_c, 0, 48, 32
2, 84613, Note_on_c, 0, 67, 0
2, 84641, Control_c, 0, 64, 127
2, 84651, Note_on_c, 0, 48, 0
2, 84720, Note_on_c, 0, 58, 0
2, 84881, Control_c, 0, 64, 0
2, 84958, Note_on_c, 0, 59, 64
2, 84973, Note_on_c, 0, 68, 49
2, 85012, Note_on_c, 0, 64, 62
2, 85064, Note_on_c, 0, 48, 34
2, 85137, Control_c, 0, 64, 127
2, 85157, Note_on_c, 0, 59, 0
2, 85192, Note_on_c, 0, 64, 0
2, 85217, Note_on_c, 0, 63, 0
2, 85243, Note_on_c, 0, 68, 0
2, 85278, Note_on_c, 0, 48, 0
2, 85395, Control_c, 0, 64, 0
2, 85465, Note_on_c, 0, 58, 52
2, 85468, Note_on_c, 0, 67, 61
2, 85481, Note_on_c, 0, 63, 40
2, 85512, Note_on_c, 0, 48, 36
2, 86165, Control_c, 0, 64, 127
2, 86451, Note_on_c, 0, 48, 0
2, 86953, Note_on_c, 0, 48, 42
2, 87124, Note_on_c, 0, 48, 0
2, 87286, Note_on_c, 0, 58, 0
2, 87740, Note_on_c, 0, 67, 0
2, 87981, Note_on_c, 0, 63, 0
2, 88803, Note_on_c, 0, 66, 53
2, 88819, Note_on_c, 0, 62, 68
2, 88819, Note_on_c, 0, 51, 48
2, 88827, Note_on_c, 0, 69, 64
2, 88846, Note_on_c, 0, 57, 49
2, 88877, Control_c, 0, 64, 0
2, 89085, Control_c, 0, 64, 127
2, 89169, Note_on_c, 0, 62, 0
2, 89177, Note_on_c, 0, 66, 0
2, 89226, Note_on_c, 0, 69, 0
2, 89797, Note_on_c, 0, 57, 0
2, 89813, Note_on_c, 0, 81, 80
2, 89813, Note_on_c, 0, 74, 87
2, 90226, Note_on_c, 0, 74, 0
2, 90281, Note_on_c, 0, 81, 0
2, 90348, Note_on_c, 0, 78, 61
2, 90370, Note_on_c, 0, 69, 64
2, 90607, Note_on_c, 0, 78, 0
2, 90779, Note_on_c, 0, 69, 0
2, 91300, Note_on_c, 0, 74, 52
2, 91318, Note_on_c, 0, 66, 57
2, 91383, Note_on_c, 0, 51, 0
2, 91702, Note_on_c, 0, 74, 0
2, 91754, Note_on_c, 0, 51, 44
2, 92010, Note_on_c, 0, 66, 0
2, 92198, Note_on_c, 0, 51, 0
2, 92245, Note_on_c, 0, 65, 49
2, 92250, Note_on_c, 0, 62, 48
2, 92283, Note_on_c, 0, 46, 31
2, 92288, Note_on_c, 0, 57, 30
2, 92293, Control_c, 0, 64, 0
2, 92301, Note_on_c, 0, 53, 36
2, 92757, Control_c, 0, 64, 127
2, 93024, Note_on_c, 0, 62, 0
2, 93168, Note_on_c, 0, 65, 0
2, 93195, Note_on_c, 0, 62, 40
2, 93291, Note_on_c, 0, 57, 0
2, 93352, Note_on_c, 0, 62, 0
2, 93657, Note_on_c, 0, 53, 0
2, 93697, Note_on_c, 0, 72, 76
2, 93701, Note_on_c, 0, 65, 92
2, 93702, Note_on_c, 0, 57, 63
2, 94416, Note_on_c, 0, 57, 0
2, 94472, Note_on_c, 0, 65, 0
2, 94550, Note_on_c, 0, 72, 0
2, 94704, Note_on_c, 0, 70, 59
2, 94707, Note_on_c, 0, 65, 52
2, 94720, Note_on_c, 0, 62, 60
2, 94747, Note_on_c, 0, 55, 40
2, 94752, Control_c, 0, 64, 0
2, 95022, Control_c, 0, 64, 127
2, 95201, Note_on_c, 0, 62, 0
2, 95238, Note_on_c, 0, 55, 0
2, 95305, Note_on_c, 0, 46, 0
2, 95418, Note_on_c, 0, 65, 0
2, 95629, Note_on_c, 0, 61, 53
2, 95680, Note_on_c, 0, 56, 33
2, 95685, Note_on_c, 0, 46, 33
2, 95722, Note_on_c, 0, 65, 27
2, 95759, Control_c, 0, 64, 0
2, 96096, Control_c, 0, 64, 127
2, 96633, Note_on_c, 0, 61, 0
2, 96729, Note_on_c, 0, 46, 0
2, 96779, Note_on_c, 0, 65, 0
2, 96784, Note_on_c, 0, 56, 0
2, 96978, Note_on_c, 0, 70, 0
2, 97502, Note_on_c, 0, 84, 87
2, 97832, Note_on_c, 0, 84, 0
2, 98310, Note_on_c, 0, 84, 77
2, 98370, Note_on_c, 0, 77, 69
2, 98374, Note_on_c, 0, 66, 61
2, 98376, Note_on_c, 0, 61, 47
2, 98402, Note_on_c, 0, 81, 48
2, 98403, Note_on_c, 0, 73, 44
2, 98427, Note_on_c, 0, 55, 46
2, 98469, Control_c, 0, 64, 0
2, 98710, Control_c, 0, 64, 127
2, 98929, Note_on_c, 0, 81, 0
2, 98949, Note_on_c, 0, 84, 0
2, 98974, Note_on_c, 0, 66, 0
2, 99056, Note_on_c, 0, 55, 0
2, 99172, Note_on_c, 0, 82, 69
2, 99212, Note_on_c, 0, 77, 0
2, 99309, Note_on_c, 0, 61, 0
2, 99467, Note_on_c, 0, 73, 0
2, 99659, Note_on_c, 0, 82, 0
2, 99864, Note_on_c, 0, 79, 57
2, 99871, Note_on_c, 0, 63, 32
2, 99871, Note_on_c, 0, 72, 36
2, 99877, Note_on_c, 0, 75, 51
2, 99898, Control_c, 0, 64, 0
2, 99904, Note_on_c, 0, 60, 40
2, 99927, Note_on_c, 0, 58, 37
2, 99940, Note_on_c, 0, 53, 21
2, 100283, Control_c, 0, 64, 127
2, 100730, Note_on_c, 0, 79, 0
2, 100858, Note_on_c, 0, 75, 0
2, 100939, Note_on_c, 0, 72, 0
2, 101149, Note_on_c, 0, 63, 0
2, 101272, Note_on_c, 0, 75, 63
2, 101357, Note_on_c, 0, 60, 0
2, 101813, Note_on_c, 0, 67, 51
2, 101863, Note_on_c, 0, 60, 26
2, 101877, Note_on_c, 0, 63, 13
2, 101981, Note_on_c, 0, 75, 0
2, 102063, Note_on_c, 0, 53, 0
2, 102234, Note_on_c, 0, 63, 0
2, 102717, Note_on_c, 0, 67, 0
2, 102742, Note_on_c, 0, 60, 0
2, 102939, Note_on_c, 0, 58, 0
2, 103273, Note_on_c, 0, 63, 53
2, 103726, Note_on_c, 0, 59, 49
2, 103738, Note_on_c, 0, 44, 38
2, 103749, Note_on_c, 0, 53, 40
2, 103808, Control_c, 0, 64, 0
2, 103899, Note_on_c, 0, 63, 0
2, 104548, Control_c, 0, 64, 127
2, 104814, Note_on_c, 0, 44, 0
2, 105008, Note_on_c, 0, 59, 0
2, 105098, Note_on_c, 0, 44, 37
2, 105224, Note_on_c, 0, 53, 0
2, 105317, Note_on_c, 0, 44, 0
2, 105632, Note_on_c, 0, 70, 74
2, 105637, Note_on_c, 0, 56, 52
2, 105641, Note_on_c, 0, 63, 55
2, 105645, Note_on_c, 0, 59, 72
2, 105669, Control_c, 0, 64, 0
2, 105672, Note_on_c, 0, 65, 41
2, 105697, Note_on_c, 0, 59, 0
2, 105701, Note_on_c, 0, 56, 0
2, 105704, Note_on_c, 0, 63, 0
2, 105734, Note_on_c, 0, 65, 0
2, 105742, Note_on_c, 0, 70, 0
2, 106169, Note_on_c, 0, 70, 66
2, 106176, Note_on_c, 0, 59, 68
2, 106184, Note_on_c, 0, 65, 54
2, 106189, Note_on_c, 0, 63, 39
2, 106197, Note_on_c, 0, 56, 39
2, 106230, Note_on_c, 0, 59, 0
2, 106246, Note_on_c, 0, 63, 0
2, 106249, Note_on_c, 0, 56, 0
2, 106265, Note_on_c, 0, 65, 0
2, 106288, Note_on_c, 0, 70, 0
2, 106616, Control_c, 0, 64, 127
2, 106918, Note_on_c, 0, 63, 54
2, 106922, Note_on_c, 0, 68, 50
2, 106950, Note_on_c, 0, 59, 42
2, 107032, Note_on_c, 0, 59, 0
2, 107074, Note_on_c, 0, 68, 0
2, 107099, Note_on_c, 0, 63, 0
2, 107470, Note_on_c, 0, 65, 62
2, 107483, Note_on_c, 0, 60, 57
2, 107496, Note_on_c, 0, 42, 36
2, 107499, Control_c, 0, 64, 0
2, 107550, Note_on_c, 0, 53, 38
2, 108003, Note_on_c, 0, 58, 52
2, 108065, Note_on_c, 0, 60, 0
2, 108259, Note_on_c, 0, 65, 0
2, 108376, Note_on_c, 0, 58, 0
2, 108504, Note_on_c, 0, 60, 45
2, 108513, Note_on_c, 0, 65, 48
2, 108824, Note_on_c, 0, 65, 0
2, 108878, Control_c, 0, 64, 127
2, 108961, Note_on_c, 0, 60, 0
2, 109033, Note_on_c, 0, 58, 25
2, 109115, Note_on_c, 0, 53, 0
2, 109296, Control_c, 0, 64, 0
2, 109380, Note_on_c, 0, 58, 0
2, 109494, Note_on_c, 0, 60, 50
2, 109513, Note_on_c, 0, 65, 47
2, 109536, Control_c, 0, 64, 127
2, 109632, Note_on_c, 0, 65, 0
2, 109755, Note_on_c, 0, 60, 0
2, 109999, Note_on_c, 0, 65, 49
2, 110001, Note_on_c, 0, 60, 51
2, 110174, Note_on_c, 0, 42, 0
2, 110202, Note_on_c, 0, 65, 0
2, 110308, Note_on_c, 0, 60, 0
2, 110522, Note_on_c, 0, 42, 30
2, 110619, Note_on_c, 0, 42, 0
2, 111411, Control_c, 0, 64, 0
2, 111414, Note_on_c, 0, 58, 41
2, 111419, Note_on_c, 0, 65, 42
2, 111434, Note_on_c, 0, 62, 55
2, 111442, Note_on_c, 0, 48, 24
2, 111443, Note_on_c, 0, 53, 39
2, 111464, Note_on_c, 0, 36, 26
2, 112250, Control_c, 0, 64, 127
2, 112506, Note_on_c, 0, 48, 0
2, 113134, Note_on_c, 0, 53, 0
2, 113315, Note_on_c, 0, 36, 0
2, 113376, Note_on_c, 0, 62, 0
2, 113427, Note_on_c, 0, 58, 0
2, 113488, Note_on_c, 0, 65, 0
2, 113773, Control_c, 0, 64, 0
2, 113780, Note_on_c, 0, 58, 42
2, 113785, Note_on_c, 0, 65, 49
2, 113803, Note_on_c, 0, 62, 59
2, 113813, Note_on_c, 0, 53, 36
2, 113827, Note_on_c, 0, 48, 26
2, 113830, Note_on_c, 0, 36, 31
2, 113933, Control_c, 0, 64, 127
2, 114075, Note_on_c, 0, 36, 0
2, 114229, Note_on_c, 0, 48, 0
2, 114368, Note_on_c, 0, 62, 0
2, 114403, Note_on_c, 0, 53, 0
2, 114417, Note_on_c, 0, 65, 0
2, 114629, Note_on_c, 0, 58, 0
2, 115304, Note_on_c, 0, 64, 55
2, 115315, Note_on_c, 0, 57, 46
2, 115338, Note_on_c, 0, 55, 42
2, 115339, Note_on_c, 0, 60, 34
2, 115341, Note_on_c, 0, 48, 31
2, 115357, Note_on_c, 0, 41, 38
2, 115378, Control_c, 0, 64, 0
2, 115389, Note_on_c, 0, 52, 22
2, 115829, Note_on_c, 0, 52, 0
2, 115841, Note_on_c, 0, 48, 0
2, 115844, Note_on_c, 0, 57, 0
2, 115846, Note_on_c, 0, 55, 0
2, 115865, Note_on_c, 0, 64, 0
2, 115873, Note_on_c, 0, 41, 0
2, 115873, Note_on_c, 0, 60, 0
2, 116288, Control_c, 0, 64, 127
2, 116721, Note_on_c, 0, 64, 50
2, 116723, Note_on_c, 0, 48, 45
2, 116727, Note_on_c, 0, 57, 54
2, 116734, Note_on_c, 0, 55, 51
2, 116741, Note_on_c, 0, 60, 45
2, 116745, Note_on_c, 0, 52, 42
2, 116752, Note_on_c, 0, 41, 37
2, 116773, Control_c, 0, 64, 0
2, 117038, Note_on_c, 0, 48, 0
2, 117046, Note_on_c, 0, 52, 0
2, 117048, Note_on_c, 0, 55, 0
2, 117072, Note_on_c, 0, 41, 0
2, 117088, Note_on_c, 0, 57, 0
2, 117108, Note_on_c, 0, 60, 0
2, 117153, Note_on_c, 0, 64, 0
2, 117654, Control_c, 0, 64, 127
2, 117678, Note_on_c, 0, 47, 34
2, 117748, Note_on_c, 0, 47, 0
2, 117973, Control_c, 0, 64, 0
2, 118141, Note_on_c, 0, 67, 64
2, 118146, Note_on_c, 0, 40, 46
2, 118149, Note_on_c, 0, 52, 48
2, 118149, Note_on_c, 0, 56, 52
2, 118154, Note_on_c, 0, 62, 68
2, 118343, Control_c, 0, 64, 127
2, 118748, Note_on_c, 0, 56, 0
2, 118896, Note_on_c, 0, 62, 0
2, 118929, Note_on_c, 0, 67, 0
2, 118977, Note_on_c, 0, 40, 0
2, 119053, Note_on_c, 0, 52, 0
2, 119560, Note_on_c, 0, 79, 76
2, 119563, Note_on_c, 0, 72, 76
2, 119966, Note_on_c, 0, 79, 0
2, 120049, Note_on_c, 0, 76, 55
2, 120094, Note_on_c, 0, 67, 31
2, 120227, Note_on_c, 0, 72, 0
2, 120533, Note_on_c, 0, 67, 0
2, 120627, Note_on_c, 0, 76, 0
2, 120988, Note_on_c, 0, 79, 60
2, 121018, Note_on_c, 0, 72, 51
2, 121366, Note_on_c, 0, 79, 0
2, 121432, Note_on_c, 0, 72, 0
2, 122378, Note_on_c, 0, 76, 74
2, 122529, Note_on_c, 0, 76, 0
2, 122867, Note_on_c, 0, 71, 50
2, 122880, Note_on_c, 0, 67, 45
2, 122899, Note_on_c, 0, 64, 38
2, 122929, Control_c, 0, 64, 0
2, 122932, Note_on_c, 0, 60, 36
2, 124263, Note_on_c, 0, 60, 0
2, 124374, Note_on_c, 0, 71, 0
2, 124385, Note_on_c, 0, 57, 37
2, 124457, Note_on_c, 0, 69, 32
2, 124491, Note_on_c, 0, 57, 0
2, 124542, Note_on_c, 0, 67, 0
2, 124595, Note_on_c, 0, 64, 0
2, 124696, Note_on_c, 0, 69, 0
2, 124841, Note_on_c, 0, 71, 37
2, 124859, Note_on_c, 0, 64, 39
2, 124864, Note_on_c, 0, 59, 35
2, 124873, Note_on_c, 0, 67, 39
2, 124888, Note_on_c, 0, 60, 26
2, 125224, Control_c, 0, 64, 127
2, 126078, Note_on_c, 0, 60, 0
2, 126195, Note_on_c, 0, 71, 0
2, 126227, Note_on_c, 0, 67, 0
2, 126288, Note_on_c, 0, 69, 38
2, 126298, Note_on_c, 0, 59, 0
2, 126341, Note_on_c, 0, 57, 30
2, 126426, Note_on_c, 0, 64, 0
2, 126509, Note_on_c, 0, 69, 0
2, 126667, Control_c, 0, 64, 0
2, 126721, Note_on_c, 0, 57, 0
2, 126790, Note_on_c, 0, 71, 46
2, 126798, Note_on_c, 0, 64, 47
2, 126805, Note_on_c, 0, 67, 48
2, 126813, Note_on_c, 0, 59, 42
2, 126814, Note_on_c, 0, 60, 31
2, 126918, Note_on_c, 0, 60, 0
2, 126933, Note_on_c, 0, 59, 0
2, 126937, Note_on_c, 0, 64, 0
2, 126955, Note_on_c, 0, 67, 0
2, 127005, Note_on_c, 0, 71, 0
2, 127728, Note_on_c, 0, 71, 46
2, 127766, Note_on_c, 0, 64, 38
2, 127774, Note_on_c, 0, 59, 33
2, 127774, Note_on_c, 0, 67, 35
2, 127854, Control_c, 0, 64, 127
2, 128032, Note_on_c, 0, 67, 0
2, 128085, Note_on_c, 0, 71, 0
2, 128107, Note_on_c, 0, 64, 0
2, 128120, Note_on_c, 0, 59, 0
2, 128248, Note_on_c, 0, 69, 38
2, 128280, Note_on_c, 0, 57, 33
2, 128360, Note_on_c, 0, 69, 0
2, 128560, Control_c, 0, 64, 0
2, 128582, Note_on_c, 0, 57, 0
2, 128653, Note_on_c, 0, 71, 49
2, 128683, Note_on_c, 0, 59, 34
2, 128691, Note_on_c, 0, 64, 38
2, 128752, Control_c, 0, 64, 127
2, 128787, Note_on_c, 0, 64, 0
2, 128819, Note_on_c, 0, 59, 0
2, 128903, Note_on_c, 0, 71, 0
2, 129166, Note_on_c, 0, 68, 64
2, 129169, Control_c, 0, 64, 0
2, 129179, Note_on_c, 0, 72, 50
2, 129209, Note_on_c, 0, 60, 63
2, 129216, Note_on_c, 0, 66, 35
2, 129312, Note_on_c, 0, 66, 0
2, 129525, Note_on_c, 0, 60, 0
2, 129565, Note_on_c, 0, 72, 0
2, 129574, Note_on_c, 0, 68, 0
2, 129634, Note_on_c, 0, 71, 24
2, 129702, Note_on_c, 0, 67, 44
2, 129720, Note_on_c, 0, 62, 57
2, 129754, Note_on_c, 0, 59, 46
2, 129853, Note_on_c, 0, 59, 0
2, 129925, Note_on_c, 0, 67, 0
2, 129973, Note_on_c, 0, 71, 0
2, 129981, Note_on_c, 0, 62, 0
2, 130051, Control_c, 0, 64, 127
2, 130514, Control_c, 0, 64, 0
2, 130626, Note_on_c, 0, 71, 48
2, 130634, Note_on_c, 0, 64, 53
2, 130640, Note_on_c, 0, 57, 46
2, 130643, Note_on_c, 0, 60, 46
2, 130647, Note_on_c, 0, 67, 53
2, 130917, Control_c, 0, 64, 127
2, 131698, Note_on_c, 0, 57, 0
2, 131811, Note_on_c, 0, 60, 0
2, 131826, Note_on_c, 0, 64, 0
2, 131829, Note_on_c, 0, 67, 0
2, 132077, Note_on_c, 0, 71, 0
2, 132103, Note_on_c, 0, 67, 39
2, 132127, Note_on_c, 0, 55, 41
2, 132129, Note_on_c, 0, 60, 38
2, 132130, Note_on_c, 0, 64, 42
2, 132217, Control_c, 0, 64, 0
2, 132488, Control_c, 0, 64, 127
2, 133839, Note_on_c, 0, 55, 0
2, 134016, Note_on_c, 0, 52, 22
2, 134254, Note_on_c, 0, 52, 0
2, 135065, Note_on_c, 0, 45, 43
2, 135093, Note_on_c, 0, 60, 0
2, 135099, Note_on_c, 0, 67, 0
2, 135161, Note_on_c, 0, 45, 0
2, 135190, Note_on_c, 0, 64, 0
2, 136002, Note_on_c, 0, 64, 80
2, 136012, Note_on_c, 0, 60, 82
2, 136015, Note_on_c, 0, 45, 71
2, 136023, Note_on_c, 0, 55, 74
2, 136044, Note_on_c, 0, 33, 55
2, 136065, Control_c, 0, 64, 0
2, 136208, Control_c, 0, 64, 127
2, 136320, Note_on_c, 0, 55, 0
2, 136339, Note_on_c, 0, 33, 0
2, 136371, Note_on_c, 0, 64, 0
2, 136400, Note_on_c, 0, 60, 0
2, 136409, Note_on_c, 0, 45, 0
2, 136931, Note_on_c, 0, 46, 69
2, 136933, Note_on_c, 0, 34, 73
2, 136939, Note_on_c, 0, 61, 73
2, 136941, Note_on_c, 0, 65, 76
2, 136953, Note_on_c, 0, 56, 79
2, 136997, Control_c, 0, 64, 0
2, 137139, Control_c, 0, 64, 127
2, 137165, Note_on_c, 0, 65, 0
2, 137419, Note_on_c, 0, 56, 0
2, 137430, Note_on_c, 0, 61, 0
2, 137442, Note_on_c, 0, 34, 0
2, 137450, Note_on_c, 0, 46, 0
2, 137621, Control_c, 0, 64, 0
2, 137638, Note_on_c, 0, 66, 70
2, 137643, Note_on_c, 0, 62, 76
2, 137645, Note_on_c, 0, 57, 72
2, 137660, Note_on_c, 0, 47, 42
2, 137668, Note_on_c, 0, 35, 56
2, 137812, Control_c, 0, 64, 127
2, 137939, Note_on_c, 0, 62, 0
2, 137947, Note_on_c, 0, 57, 0
2, 138043, Note_on_c, 0, 35, 0
2, 138133, Note_on_c, 0, 66, 0
2, 138164, Note_on_c, 0, 47, 0
2, 138326, Control_c, 0, 64, 0
2, 138328, Note_on_c, 0, 63, 62
2, 138331, Note_on_c, 0, 58, 61
2, 138333, Note_on_c, 0, 48, 60
2, 138334, Note_on_c, 0, 67, 64
2, 138370, Note_on_c, 0, 36, 37
2, 138726, Control_c, 0, 64, 127
2, 138955, Note_on_c, 0, 36, 0
2, 139049, Note_on_c, 0, 48, 0
2, 139157, Note_on_c, 0, 58, 0
2, 139248, Note_on_c, 0, 67, 0
2, 139278, Note_on_c, 0, 63, 0
2, 139733, Note_on_c, 0, 74, 73
2, 140235, Note_on_c, 0, 63, 31
2, 140240, Note_on_c, 0, 67, 46
2, 140709, Note_on_c, 0, 62, 71
2, 140747, Control_c, 0, 64, 0
2, 140765, Note_on_c, 0, 62, 0
2, 141032, Note_on_c, 0, 63, 0
2, 141177, Note_on_c, 0, 63, 44
2, 141213, Note_on_c, 0, 74, 0
2, 141265, Note_on_c, 0, 67, 0
2, 141664, Note_on_c, 0, 55, 34
2, 141835, Note_on_c, 0, 63, 0
2, 142046, Note_on_c, 0, 55, 0
2, 142070, Note_on_c, 0, 62, 43
2, 142081, Note_on_c, 0, 65, 49
2, 142201, Note_on_c, 0, 62, 0
2, 142203, Note_on_c, 0, 65, 0
2, 142579, Note_on_c, 0, 62, 55
2, 142598, Note_on_c, 0, 65, 60
2, 142608, Note_on_c, 0, 58, 40
2, 143347, Control_c, 0, 64, 127
2, 143489, Note_on_c, 0, 58, 0
2, 143536, Note_on_c, 0, 55, 45
2, 143733, Note_on_c, 0, 55, 0
2, 143749, Note_on_c, 0, 62, 0
2, 144375, Note_on_c, 0, 65, 0
2, 144464, Note_on_c, 0, 63, 45
2, 144477, Note_on_c, 0, 55, 46
2, 144536, Note_on_c, 0, 48, 40
2, 144562, Control_c, 0, 64, 0
2, 145408, Note_on_c, 0, 43, 42
2, 145641, Note_on_c, 0, 55, 0
2, 145688, Note_on_c, 0, 43, 0
2, 145789, Note_on_c, 0, 63, 0
2, 145913, Note_on_c, 0, 58, 35
2, 145931, Note_on_c, 0, 55, 47
2, 145933, Note_on_c, 0, 63, 34
2, 145939, Note_on_c, 0, 36, 41
2, 146001, Note_on_c, 0, 55, 0
2, 146072, Note_on_c, 0, 58, 0
2, 146134, Note_on_c, 0, 63, 0
2, 146870, Note_on_c, 0, 63, 50
2, 146880, Note_on_c, 0, 58, 49
2, 146891, Note_on_c, 0, 55, 44
2, 147003, Note_on_c, 0, 48, 0
2, 147387, Control_c, 0, 64, 127
2, 148605, Note_on_c, 0, 55, 0
2, 148905, Note_on_c, 0, 36, 0
2, 149226, Note_on_c, 0, 58, 0
2, 149307, Note_on_c, 0, 36, 49
2, 149368, Note_on_c, 0, 63, 0
2, 149459, Note_on_c, 0, 36, 0
2, 149569, Control_c, 0, 64, 0
2, 149985, Control_c, 0, 64, 127
2, 150329, Note_on_c, 0, 63, 48
2, 150341, Note_on_c, 0, 58, 44
2, 150345, Note_on_c, 0, 48, 36
2, 150360, Note_on_c, 0, 55, 39
2, 150639, Note_on_c, 0, 48, 0
2, 150766, Note_on_c, 0, 55, 0
2, 150849, Note_on_c, 0, 58, 0
2, 150915, Note_on_c, 0, 63, 0
2, 151238, Note_on_c, 0, 69, 92
2, 151662, Note_on_c, 0, 69, 0
2, 151719, Note_on_c, 0, 66, 52
2, 151741, Note_on_c, 0, 62, 76
2, 151747, Note_on_c, 0, 57, 69
2, 151781, Control_c, 0, 64, 0
2, 152071, Control_c, 0, 64, 127
2, 152739, Note_on_c, 0, 41, 43
2, 152821, Note_on_c, 0, 41, 0
2, 153161, Note_on_c, 0, 57, 0
2, 153211, Note_on_c, 0, 62, 0
2, 153405, Note_on_c, 0, 66, 0
2, 153621, Note_on_c, 0, 54, 31
2, 153621, Note_on_c, 0, 61, 44
2, 153635, Note_on_c, 0, 64, 52
2, 153647, Note_on_c, 0, 57, 40
2, 153678, Note_on_c, 0, 46, 25
2, 153707, Control_c, 0, 64, 0
2, 153971, Note_on_c, 0, 57, 0
2, 154143, Note_on_c, 0, 64, 0
2, 154219, Control_c, 0, 64, 127
2, 154560, Note_on_c, 0, 69, 60
2, 154811, Note_on_c, 0, 46, 0
2, 154910, Note_on_c, 0, 61, 0
2, 155066, Note_on_c, 0, 69, 0
2, 155088, Note_on_c, 0, 54, 0
2, 155144, Note_on_c, 0, 62, 45
2, 155144, Note_on_c, 0, 46, 30
2, 155146, Note_on_c, 0, 57, 40
2, 155152, Note_on_c, 0, 65, 49
2, 155207, Note_on_c, 0, 55, 32
2, 155231, Control_c, 0, 64, 0
2, 155582, Control_c, 0, 64, 127
2, 155886, Note_on_c, 0, 46, 0
2, 156009, Note_on_c, 0, 57, 0
2, 156125, Note_on_c, 0, 46, 46
2, 156131, Note_on_c, 0, 55, 0
2, 156238, Note_on_c, 0, 62, 0
2, 156333, Note_on_c, 0, 46, 0
2, 156337, Note_on_c, 0, 65, 0
2, 158017, Note_on_c, 0, 87, 77
2, 158067, Note_on_c, 0, 82, 65
2, 158069, Note_on_c, 0, 75, 62
2, 158078, Note_on_c, 0, 65, 60
2, 158083, Note_on_c, 0, 60, 53
2, 158092, Note_on_c, 0, 56, 44
2, 158095, Note_on_c, 0, 61, 29
2, 158164, Control_c, 0, 64, 0
2, 158342, Control_c, 0, 64, 127
2, 159036, Note_on_c, 0, 65, 0
2, 159037, Note_on_c, 0, 75, 0
2, 159046, Note_on_c, 0, 82, 0
2, 159051, Note_on_c, 0, 60, 0
2, 159079, Note_on_c, 0, 61, 0
2, 159097, Note_on_c, 0, 87, 0
2, 159332, Note_on_c, 0, 56, 0
2, 159909, Note_on_c, 0, 88, 66
2, 159927, Note_on_c, 0, 85, 57
2, 159936, Note_on_c, 0, 61, 40
2, 159949, Note_on_c, 0, 76, 51
2, 159952, Note_on_c, 0, 81, 54
2, 159955, Note_on_c, 0, 55, 49
2, 159963, Note_on_c, 0, 64, 46
2, 160038, Control_c, 0, 64, 0
2, 160280, Control_c, 0, 64, 127
2, 160590, Note_on_c, 0, 64, 0
2, 160642, Note_on_c, 0, 55, 0
2, 160724, Note_on_c, 0, 81, 0
2, 160742, Note_on_c, 0, 76, 0
2, 160768, Note_on_c, 0, 88, 0
2, 160792, Note_on_c, 0, 61, 0
2, 160821, Note_on_c, 0, 85, 0
2, 161480, Note_on_c, 0, 89, 62
2, 161486, Note_on_c, 0, 77, 55
2, 161502, Note_on_c, 0, 84, 66
2, 161521, Note_on_c, 0, 63, 40
2, 161528, Note_on_c, 0, 60, 49
2, 161553, Note_on_c, 0, 58, 47
2, 161574, Note_on_c, 0, 53, 38
2, 161597, Control_c, 0, 64, 0
2, 161852, Control_c, 0, 64, 127
2, 162209, Note_on_c, 0, 60, 0
2, 162235, Note_on_c, 0, 77, 0
2, 162249, Note_on_c, 0, 84, 0
2, 162269, Note_on_c, 0, 63, 0
2, 162296, Note_on_c, 0, 53, 0
2, 162331, Note_on_c, 0, 58, 0
2, 162334, Note_on_c, 0, 89, 0
2, 162826, Note_on_c, 0, 63, 55
2, 162826, Note_on_c, 0, 91, 62
2, 162837, Note_on_c, 0, 79, 50
2, 162843, Note_on_c, 0, 86, 66
2, 162850, Note_on_c, 0, 53, 55
2, 162879, Control_c, 0, 64, 0
2, 162880, Note_on_c, 0, 58, 47
2, 163200, Control_c, 0, 64, 127
2, 163939, Note_on_c, 0, 79, 0
2, 163940, Note_on_c, 0, 91, 0
2, 163968, Note_on_c, 0, 53, 0
2, 164011, Note_on_c, 0, 86, 0
2, 164096, Note_on_c, 0, 58, 0
2, 164099, Note_on_c, 0, 63, 0
2, 164638, Note_on_c, 0, 63, 53
2, 164651, Note_on_c, 0, 92, 69
2, 164662, Note_on_c, 0, 54, 36
2, 164672, Note_on_c, 0, 87, 61
2, 164677, Note_on_c, 0, 80, 37
2, 164688, Note_on_c, 0, 59, 61
2, 164693, Note_on_c, 0, 58, 39
2, 164770, Control_c, 0, 64, 0
2, 165091, Control_c, 0, 64, 127
2, 165942, Note_on_c, 0, 59, 0
2, 165982, Note_on_c, 0, 63, 0
2, 166049, Note_on_c, 0, 80, 0
2, 166120, Note_on_c, 0, 87, 0
2, 166155, Note_on_c, 0, 92, 0
2, 166200, Note_on_c, 0, 54, 0
2, 166276, Note_on_c, 0, 58, 0
2, 166583, Note_on_c, 0, 87, 58
2, 166583, Note_on_c, 0, 54, 45
2, 166586, Note_on_c, 0, 94, 61
2, 166607, Note_on_c, 0, 82, 38
2, 166644, Note_on_c, 0, 59, 41
2, 166666, Note_on_c, 0, 58, 27
2, 166873, Note_on_c, 0, 87, 0
2, 166907, Note_on_c, 0, 54, 0
2, 166928, Note_on_c, 0, 82, 0
2, 166968, Note_on_c, 0, 94, 0
2, 166969, Note_on_c, 0, 59, 0
2, 167113, Control_c, 0, 64, 0
2, 167119, Note_on_c, 0, 95, 47
2, 167137, Note_on_c, 0, 59, 60
2, 167145, Note_on_c, 0, 88, 53
2, 167147, Note_on_c, 0, 63, 40
2, 167150, Note_on_c, 0, 83, 26
2, 167160, Note_on_c, 0, 53, 42
2, 167369, Control_c, 0, 64, 127
2, 168043, Note_on_c, 0, 83, 0
2, 168098, Note_on_c, 0, 88, 0
2, 168119, Note_on_c, 0, 95, 0
2, 168183, Note_on_c, 0, 59, 0
2, 168260, Note_on_c, 0, 63, 0
2, 168261, Note_on_c, 0, 58, 0
2, 168301, Note_on_c, 0, 53, 0
2, 168536, Note_on_c, 0, 63, 40
2, 168581, Note_on_c, 0, 84, 47
2, 168581, Note_on_c, 0, 59, 42
2, 168594, Note_on_c, 0, 96, 30
2, 168600, Note_on_c, 0, 58, 29
2, 168654, Note_on_c, 0, 59, 0
2, 168715, Note_on_c, 0, 84, 0
2, 168718, Note_on_c, 0, 63, 0
2, 168733, Note_on_c, 0, 58, 0
2, 168739, Note_on_c, 0, 96, 0
2, 169091, Note_on_c, 0, 54, 29
2, 169109, Note_on_c, 0, 65, 49
2, 169117, Note_on_c, 0, 61, 40
2, 169136, Note_on_c, 0, 97, 57
2, 169136, Note_on_c, 0, 85, 48
2, 169150, Control_c, 0, 64, 0
2, 169179, Note_on_c, 0, 92, 31
2, 169198, Note_on_c, 0, 85, 0
2, 169219, Note_on_c, 0, 65, 0
2, 169224, Note_on_c, 0, 97, 0
2, 169233, Note_on_c, 0, 92, 0
2, 169249, Note_on_c, 0, 54, 0
2, 169262, Note_on_c, 0, 61, 0
2, 169988, Note_on_c, 0, 97, 64
2, 169992, Note_on_c, 0, 58, 44
2, 169995, Note_on_c, 0, 85, 57
2, 170004, Note_on_c, 0, 54, 44
2, 170011, Note_on_c, 0, 65, 47
2, 170068, Note_on_c, 0, 60, 36
2, 170257, Control_c, 0, 64, 127
2, 171024, Note_on_c, 0, 60, 0
2, 171153, Note_on_c, 0, 65, 0
2, 171237, Note_on_c, 0, 54, 0
2, 171441, Note_on_c, 0, 54, 27
2, 171443, Note_on_c, 0, 97, 0
2, 171452, Note_on_c, 0, 65, 43
2, 171460, Note_on_c, 0, 61, 39
2, 171476, Note_on_c, 0, 85, 0
2, 171807, Note_on_c, 0, 65, 0
2, 171894, Note_on_c, 0, 54, 0
2, 171964, Note_on_c, 0, 61, 0
2, 171980, Note_on_c, 0, 58, 0
2, 172826, Note_on_c, 0, 58, 65
2, 172836, Note_on_c, 0, 48, 50
2, 172837, Note_on_c, 0, 65, 57
2, 172848, Note_on_c, 0, 36, 50
2, 172860, Note_on_c, 0, 62, 59
2, 172862, Note_on_c, 0, 53, 39
2, 172904, Note_on_c, 0, 65, 0
2, 172928, Note_on_c, 0, 62, 0
2, 172930, Note_on_c, 0, 53, 0
2, 172935, Control_c, 0, 64, 0
2, 172936, Note_on_c, 0, 48, 0
2, 172938, Note_on_c, 0, 36, 0
2, 172946, Note_on_c, 0, 58, 0
2, 173794, Note_on_c, 0, 65, 52
2, 173797, Note_on_c, 0, 58, 49
2, 173802, Note_on_c, 0, 53, 49
2, 173810, Note_on_c, 0, 48, 50
2, 173834, Note_on_c, 0, 62, 48
2, 173857, Note_on_c, 0, 36, 31
2, 174074, Control_c, 0, 64, 127
2, 175260, Note_on_c, 0, 36, 0
2, 175443, Note_on_c, 0, 48, 0
2, 175790, Note_on_c, 0, 65, 0
2, 175791, Note_on_c, 0, 53, 0
2, 175819, Note_on_c, 0, 62, 0
2, 176160, Note_on_c, 0, 58, 0
2, 176186, Note_on_c, 0, 48, 39
2, 176265, Note_on_c, 0, 48, 0
2, 176665, Note_on_c, 0, 57, 49
2, 176675, Note_on_c, 0, 55, 49
2, 176678, Note_on_c, 0, 64, 37
2, 176696, Note_on_c, 0, 60, 50
2, 176705, Note_on_c, 0, 48, 37
2, 176720, Control_c, 0, 64, 0
2, 176727, Note_on_c, 0, 41, 36
2, 176783, Note_on_c, 0, 55, 0
2, 176801, Note_on_c, 0, 57, 0
2, 176816, Note_on_c, 0, 48, 0
2, 176822, Note_on_c, 0, 60, 0
2, 176827, Note_on_c, 0, 41, 0
2, 176829, Note_on_c, 0, 64, 0
2, 177624, Note_on_c, 0, 64, 34
2, 177627, Note_on_c, 0, 48, 36
2, 177632, Note_on_c, 0, 41, 34
2, 177642, Note_on_c, 0, 57, 43
2, 177646, Note_on_c, 0, 55, 26
2, 177650, Note_on_c, 0, 60, 38
2, 177879, Note_on_c, 0, 41, 0
2, 177901, Note_on_c, 0, 48, 0
2, 177903, Note_on_c, 0, 55, 0
2, 177907, Note_on_c, 0, 64, 0
2, 177911, Note_on_c, 0, 57, 0
2, 177914, Note_on_c, 0, 60, 0
2, 178133, Note_on_c, 0, 64, 38
2, 178134, Note_on_c, 0, 48, 37
2, 178139, Note_on_c, 0, 57, 46
2, 178147, Note_on_c, 0, 55, 32
2, 178150, Note_on_c, 0, 60, 40
2, 178163, Note_on_c, 0, 41, 35
2, 178224, Note_on_c, 0, 55, 0
2, 178227, Note_on_c, 0, 57, 0
2, 178229, Note_on_c, 0, 60, 0
2, 178245, Note_on_c, 0, 41, 0
2, 178259, Note_on_c, 0, 64, 0
2, 178264, Note_on_c, 0, 48, 0
2, 179023, Note_on_c, 0, 48, 50
2, 179050, Note_on_c, 0, 64, 33
2, 179052, Note_on_c, 0, 60, 46
2, 179063, Note_on_c, 0, 57, 26
2, 179096, Note_on_c, 0, 48, 0
2, 179096, Note_on_c, 0, 41, 26
2, 179109, Note_on_c, 0, 60, 0
2, 179115, Note_on_c, 0, 57, 0
2, 179128, Note_on_c, 0, 64, 0
2, 179152, Note_on_c, 0, 41, 0
2, 179194, Control_c, 0, 64, 127
2, 179514, Control_c, 0, 64, 0
2, 179561, Note_on_c, 0, 56, 64
2, 179569, Note_on_c, 0, 67, 63
2, 179577, Note_on_c, 0, 62, 71
2, 179581, Note_on_c, 0, 47, 42
2, 179583, Note_on_c, 0, 40, 57
2, 179588, Note_on_c, 0, 52, 57
2, 180269, Control_c, 0, 64, 127
2, 181464, Note_on_c, 0, 56, 0
2, 181536, Note_on_c, 0, 62, 0
2, 181613, Note_on_c, 0, 67, 0
2, 182816, Note_on_c, 0, 47, 0
2, 182835, Note_on_c, 0, 40, 0
2, 182872, Note_on_c, 0, 52, 0
2, 182922, Note_on_c, 0, 64, 50
2, 183008, Note_on_c, 0, 64, 0
2, 183389, Note_on_c, 0, 76, 96
2, 183620, Note_on_c, 0, 76, 0
2, 183892, Note_on_c, 0, 76, 96
2, 184321, Note_on_c, 0, 76, 0
2, 184387, Note_on_c, 0, 71, 76
2, 184426, Note_on_c, 0, 64, 34
2, 184428, Note_on_c, 0, 55, 32
2, 184429, Note_on_c, 0, 60, 49
2, 184442, Note_on_c, 0, 59, 35
2, 184485, Control_c, 0, 64, 0
2, 184821, Control_c, 0, 64, 127
2, 185346, Note_on_c, 0, 59, 0
2, 185368, Note_on_c, 0, 60, 0
2, 185406, Note_on_c, 0, 64, 0
2, 185448, Note_on_c, 0, 55, 0
2, 185573, Note_on_c, 0, 71, 0
2, 185848, Note_on_c, 0, 71, 65
2, 185879, Note_on_c, 0, 64, 35
2, 185889, Note_on_c, 0, 60, 43
2, 185910, Note_on_c, 0, 59, 42
2, 185918, Note_on_c, 0, 55, 35
2, 187848, Note_on_c, 0, 60, 0
2, 187849, Note_on_c, 0, 55, 0
2, 187853, Note_on_c, 0, 59, 0
2, 187905, Note_on_c, 0, 64, 0
2, 188211, Note_on_c, 0, 71, 0
2, 190124, Note_on_c, 0, 83, 81
2, 190138, Note_on_c, 0, 56, 58
2, 190140, Note_on_c, 0, 64, 69
2, 190142, Note_on_c, 0, 71, 77
2, 190148, Note_on_c, 0, 60, 59
2, 190688, Note_on_c, 0, 71, 0
2, 190745, Note_on_c, 0, 83, 0
2, 190755, Note_on_c, 0, 60, 0
2, 190788, Note_on_c, 0, 64, 0
2, 190819, Note_on_c, 0, 56, 0
2, 191067, Note_on_c, 0, 86, 82
2, 191085, Note_on_c, 0, 74, 64
2, 191097, Note_on_c, 0, 56, 49
2, 191109, Note_on_c, 0, 64, 50
2, 191125, Control_c, 0, 64, 0
2, 191145, Note_on_c, 0, 60, 39
2, 191253, Control_c, 0, 64, 127
2, 191376, Note_on_c, 0, 86, 0
2, 191493, Note_on_c, 0, 74, 0
2, 191673, Note_on_c, 0, 60, 0
2, 191691, Note_on_c, 0, 56, 0
2, 191724, Note_on_c, 0, 64, 0
2, 191979, Note_on_c, 0, 83, 55
2, 191981, Note_on_c, 0, 64, 51
2, 191982, Note_on_c, 0, 71, 52
2, 191985, Note_on_c, 0, 57, 66
2, 192009, Note_on_c, 0, 60, 49
2, 192021, Control_c, 0, 64, 0
2, 192022, Note_on_c, 0, 76, 44
2, 192502, Control_c, 0, 64, 127
2, 193014, Note_on_c, 0, 64, 0
2, 193072, Note_on_c, 0, 60, 0
2, 193077, Note_on_c, 0, 57, 0
2, 193127, Note_on_c, 0, 76, 0
2, 193226, Note_on_c, 0, 71, 0
2, 193400, Note_on_c, 0, 83, 0
2, 193488, Note_on_c, 0, 71, 47
2, 193496, Note_on_c, 0, 64, 40
2, 193501, Note_on_c, 0, 79, 47
2, 193517, Note_on_c, 0, 57, 37
2, 193523, Note_on_c, 0, 76, 43
2, 193531, Note_on_c, 0, 60, 44
2, 193560, Note_on_c, 0, 59, 49
2, 193577, Control_c, 0, 64, 0
2, 193707, Control_c, 0, 64, 127
2, 194277, Note_on_c, 0, 59, 0
2, 194313, Note_on_c, 0, 79, 0
2, 194337, Note_on_c, 0, 64, 0
2, 194344, Note_on_c, 0, 76, 0
2, 194347, Note_on_c, 0, 60, 0
2, 194507, Note_on_c, 0, 71, 0
2, 194623, Note_on_c, 0, 57, 0
2, 196381, Note_on_c, 0, 52, 17
2, 196482, Note_on_c, 0, 52, 0
2, 196827, Note_on_c, 0, 66, 56
2, 196845, Note_on_c, 0, 54, 52
2, 196854, Note_on_c, 0, 57, 57
2, 196864, Note_on_c, 0, 62, 59
2, 196869, Note_on_c, 0, 45, 40
2, 196931, Control_c, 0, 64, 0
2, 197152, Control_c, 0, 64, 127
2, 197277, Note_on_c, 0, 54, 0
2, 197285, Note_on_c, 0, 57, 0
2, 197323, Note_on_c, 0, 66, 0
2, 197328, Note_on_c, 0, 67, 58
2, 197360, Note_on_c, 0, 57, 28
2, 197368, Note_on_c, 0, 55, 42
2, 197515, Note_on_c, 0, 67, 0
2, 197539, Note_on_c, 0, 55, 0
2, 197623, Note_on_c, 0, 57, 0
2, 197674, Note_on_c, 0, 62, 0
2, 197811, Control_c, 0, 64, 0
2, 197839, Note_on_c, 0, 66, 23
2, 197842, Note_on_c, 0, 54, 44
2, 197883, Note_on_c, 0, 57, 19
2, 198136, Note_on_c, 0, 57, 0
2, 198180, Note_on_c, 0, 54, 0
2, 198197, Note_on_c, 0, 66, 0
2, 198213, Control_c, 0, 64, 127
2, 198240, Note_on_c, 0, 67, 70
2, 198267, Note_on_c, 0, 57, 53
2, 198269, Note_on_c, 0, 55, 59
2, 198271, Note_on_c, 0, 62, 59
2, 198487, Note_on_c, 0, 67, 0
2, 198525, Note_on_c, 0, 57, 0
2, 198544, Note_on_c, 0, 62, 0
2, 198565, Control_c, 0, 64, 0
2, 198697, Note_on_c, 0, 55, 0
2, 198739, Control_c, 0, 64, 127
2, 198779, Note_on_c, 0, 66, 25
2, 198884, Note_on_c, 0, 45, 0
2, 199069, Note_on_c, 0, 66, 0
2, 199184, Note_on_c, 0, 67, 60
2, 199195, Note_on_c, 0, 57, 28
2, 199299, Note_on_c, 0, 57, 0
2, 199427, Note_on_c, 0, 67, 0
2, 199627, Note_on_c, 0, 67, 59
2, 199670, Note_on_c, 0, 63, 39
2, 199672, Note_on_c, 0, 58, 39
2, 199686, Control_c, 0, 64, 0
2, 200635, Control_c, 0, 64, 127
2, 201137, Note_on_c, 0, 48, 40
2, 201148, Note_on_c, 0, 58, 0
2, 201270, Note_on_c, 0, 48, 0
2, 201281, Note_on_c, 0, 67, 0
2, 201332, Note_on_c, 0, 63, 0
2, 202117, Note_on_c, 0, 74, 65
2, 202158, Note_on_c, 0, 67, 56
2, 202163, Note_on_c, 0, 59, 43
2, 202164, Note_on_c, 0, 63, 44
2, 202222, Control_c, 0, 64, 0
2, 202432, Control_c, 0, 64, 127
2, 202753, Note_on_c, 0, 74, 0
2, 202790, Note_on_c, 0, 67, 0
2, 202810, Note_on_c, 0, 59, 0
2, 202824, Note_on_c, 0, 63, 0
2, 203077, Note_on_c, 0, 75, 61
2, 203110, Note_on_c, 0, 63, 41
2, 203117, Note_on_c, 0, 67, 55
2, 203147, Note_on_c, 0, 60, 43
2, 203202, Control_c, 0, 64, 0
2, 203567, Control_c, 0, 64, 127
2, 204459, Note_on_c, 0, 60, 0
2, 204811, Note_on_c, 0, 75, 0
2, 204813, Note_on_c, 0, 67, 0
2, 204938, Note_on_c, 0, 55, 80
2, 205030, Note_on_c, 0, 63, 0
2, 205203, Control_c, 0, 64, 0
2, 205471, Note_on_c, 0, 62, 30
2, 205526, Note_on_c, 0, 62, 0
2, 205907, Note_on_c, 0, 62, 87
2, 205910, Note_on_c, 0, 65, 80
2, 206296, Note_on_c, 0, 65, 0
2, 206350, Note_on_c, 0, 62, 0
2, 206424, Note_on_c, 0, 63, 33
2, 206463, Note_on_c, 0, 60, 27
2, 206709, Note_on_c, 0, 55, 0
2, 206829, Note_on_c, 0, 60, 0
2, 206888, Note_on_c, 0, 63, 0
2, 206931, Note_on_c, 0, 62, 72
2, 206943, Note_on_c, 0, 65, 71
2, 206975, Note_on_c, 0, 55, 50
2, 207496, Note_on_c, 0, 48, 31
2, 207619, Note_on_c, 0, 55, 0
2, 207934, Note_on_c, 0, 63, 40
2, 207937, Note_on_c, 0, 65, 0
2, 207947, Note_on_c, 0, 62, 0
2, 207965, Note_on_c, 0, 60, 41
2, 208213, Note_on_c, 0, 60, 0
2, 208323, Note_on_c, 0, 63, 0
2, 208422, Note_on_c, 0, 62, 52
2, 208466, Note_on_c, 0, 65, 42
2, 208485, Note_on_c, 0, 55, 26
2, 208848, Note_on_c, 0, 65, 0
2, 208931, Note_on_c, 0, 62, 0
2, 209129, Note_on_c, 0, 55, 0
2, 209280, Control_c, 0, 64, 127
2, 209805, Note_on_c, 0, 55, 34
2, 210318, Note_on_c, 0, 48, 0
2, 210419, Note_on_c, 0, 55, 0
2, 210728, Note_on_c, 0, 60, 34
2, 210754, Note_on_c, 0, 63, 27
2, 210766, Note_on_c, 0, 48, 20
2, 210835, Note_on_c, 0, 48, 0
2, 210853, Note_on_c, 0, 60, 0
2, 210913, Control_c, 0, 64, 0
2, 210929, Control_c, 0, 64, 127
2, 210945, Control_c, 0, 64, 0
2, 210989, Note_on_c, 0, 63, 0
2, 211200, Note_on_c, 0, 62, 37
2, 211203, Note_on_c, 0, 65, 41
2, 211275, Note_on_c, 0, 62, 0
2, 211276, Note_on_c, 0, 65, 0
2, 211659, Note_on_c, 0, 41, 38
2, 211738, Note_on_c, 0, 41, 0
2, 212635, Note_on_c, 0, 51, 47
2, 212778, Note_on_c, 0, 51, 0
2, 213586, Note_on_c, 0, 63, 73
2, 213601, Note_on_c, 0, 51, 50
2, 213605, Note_on_c, 0, 57, 64
2, 213606, Note_on_c, 0, 69, 64
2, 213674, Note_on_c, 0, 69, 0
2, 213686, Note_on_c, 0, 57, 0
2, 213691, Note_on_c, 0, 63, 0
2, 213795, Note_on_c, 0, 51, 0
2, 213822, Note_on_c, 0, 63, 51
2, 213837, Note_on_c, 0, 69, 55
2, 213914, Note_on_c, 0, 69, 0
2, 213939, Note_on_c, 0, 63, 0
2, 214382, Note_on_c, 0, 63, 61
2, 214385, Note_on_c, 0, 69, 66
2, 214419, Note_on_c, 0, 51, 44
2, 214453, Note_on_c, 0, 57, 35
2, 214501, Note_on_c, 0, 63, 0
2, 214576, Note_on_c, 0, 63, 39
2, 214737, Note_on_c, 0, 69, 0
2, 214747, Note_on_c, 0, 63, 0
2, 214771, Note_on_c, 0, 57, 0
2, 214891, Note_on_c, 0, 51, 0
2, 215032, Note_on_c, 0, 65, 62
2, 215034, Note_on_c, 0, 70, 58
2, 215038, Note_on_c, 0, 50, 57
2, 215042, Note_on_c, 0, 55, 50
2, 215088, Note_on_c, 0, 70, 0
2, 215090, Note_on_c, 0, 65, 0
2, 215112, Note_on_c, 0, 55, 0
2, 215136, Note_on_c, 0, 50, 0
2, 215512, Note_on_c, 0, 70, 61
2, 215521, Note_on_c, 0, 65, 66
2, 215523, Note_on_c, 0, 55, 53
2, 215525, Note_on_c, 0, 50, 52
2, 215539, Note_on_c, 0, 60, 46
2, 215582, Note_on_c, 0, 70, 0
2, 215585, Note_on_c, 0, 65, 0
2, 215598, Note_on_c, 0, 60, 0
2, 215616, Note_on_c, 0, 55, 0
2, 215649, Note_on_c, 0, 50, 0
2, 217441, Note_on_c, 0, 70, 60
2, 217454, Note_on_c, 0, 55, 48
2, 217454, Note_on_c, 0, 50, 48
2, 217455, Note_on_c, 0, 65, 53
2, 217471, Note_on_c, 0, 60, 31
2, 217519, Note_on_c, 0, 65, 0
2, 217521, Note_on_c, 0, 55, 0
2, 217532, Note_on_c, 0, 60, 0
2, 217543, Note_on_c, 0, 70, 0
2, 217561, Note_on_c, 0, 50, 0
2, 218200, Note_on_c, 0, 70, 52
2, 218211, Note_on_c, 0, 65, 50
2, 218221, Note_on_c, 0, 50, 46
2, 218238, Note_on_c, 0, 55, 34
2, 218289, Note_on_c, 0, 70, 0
2, 218296, Note_on_c, 0, 65, 0
2, 218411, Note_on_c, 0, 70, 37
2, 218448, Note_on_c, 0, 65, 47
2, 218521, Note_on_c, 0, 50, 0
2, 218568, Note_on_c, 0, 55, 0
2, 218573, Note_on_c, 0, 65, 0
2, 218638, Note_on_c, 0, 70, 0
2, 218918, Note_on_c, 0, 56, 55
2, 218922, Note_on_c, 0, 72, 52
2, 218928, Note_on_c, 0, 61, 58
2, 218933, Note_on_c, 0, 65, 64
2, 218998, Note_on_c, 0, 56, 0
2, 219000, Note_on_c, 0, 65, 0
2, 219013, Note_on_c, 0, 61, 0
2, 219061, Note_on_c, 0, 72, 0
2, 219427, Note_on_c, 0, 72, 64
2, 219435, Note_on_c, 0, 56, 46
2, 219438, Note_on_c, 0, 61, 54
2, 219451, Note_on_c, 0, 65, 61
2, 219523, Note_on_c, 0, 65, 0
2, 219536, Note_on_c, 0, 61, 0
2, 219560, Note_on_c, 0, 56, 0
2, 219576, Note_on_c, 0, 72, 0
2, 219896, Note_on_c, 0, 66, 34
2, 219901, Control_c, 0, 64, 127
2, 219965, Note_on_c, 0, 66, 0
2, 220159, Note_on_c, 0, 61, 58
2, 220163, Note_on_c, 0, 72, 51
2, 220187, Note_on_c, 0, 65, 60
2, 220218, Note_on_c, 0, 56, 45
2, 220229, Note_on_c, 0, 46, 41
2, 220235, Control_c, 0, 64, 0
2, 220251, Note_on_c, 0, 68, 27
2, 220381, Control_c, 0, 64, 127
2, 220517, Note_on_c, 0, 68, 0
2, 220518, Note_on_c, 0, 65, 0
2, 220630, Note_on_c, 0, 61, 0
2, 220661, Note_on_c, 0, 72, 0
2, 220683, Note_on_c, 0, 56, 0
2, 220777, Note_on_c, 0, 46, 0
2, 220813, Note_on_c, 0, 72, 52
2, 220834, Note_on_c, 0, 61, 46
2, 220836, Note_on_c, 0, 64, 64
2, 220847, Control_c, 0, 64, 0
2, 220882, Note_on_c, 0, 55, 53
2, 221167, Control_c, 0, 64, 127
2, 221582, Note_on_c, 0, 64, 0
2, 221632, Control_c, 0, 64, 0
2, 221633, Note_on_c, 0, 61, 0
2, 221710, Note_on_c, 0, 72, 0
2, 221811, Note_on_c, 0, 61, 48
2, 221833, Note_on_c, 0, 70, 37
2, 221835, Note_on_c, 0, 45, 46
2, 221838, Note_on_c, 0, 64, 54
2, 221878, Note_on_c, 0, 67, 42
2, 221905, Control_c, 0, 64, 127
2, 222259, Note_on_c, 0, 64, 0
2, 222309, Note_on_c, 0, 45, 0
2, 222367, Note_on_c, 0, 55, 0
2, 222395, Note_on_c, 0, 67, 0
2, 222443, Note_on_c, 0, 61, 0
2, 222637, Note_on_c, 0, 70, 0
2, 222758, Note_on_c, 0, 63, 36
2, 222763, Note_on_c, 0, 60, 44
2, 222768, Note_on_c, 0, 51, 48
2, 222773, Control_c, 0, 64, 0
2, 222778, Note_on_c, 0, 44, 39
2, 223123, Control_c, 0, 64, 127
2, 223538, Note_on_c, 0, 60, 0
2, 223570, Note_on_c, 0, 51, 0
2, 223629, Note_on_c, 0, 63, 0
2, 223703, Note_on_c, 0, 52, 48
2, 223726, Note_on_c, 0, 64, 59
2, 223731, Note_on_c, 0, 60, 42
2, 223781, Control_c, 0, 64, 0
2, 224208, Note_on_c, 0, 52, 0
2, 224228, Note_on_c, 0, 55, 42
2, 224246, Note_on_c, 0, 67, 51
2, 224547, Note_on_c, 0, 55, 0
2, 224587, Note_on_c, 0, 60, 0
2, 224821, Control_c, 0, 64, 127
2, 224835, Note_on_c, 0, 60, 6
2, 225022, Note_on_c, 0, 60, 0
2, 225030, Note_on_c, 0, 64, 0
2, 225165, Note_on_c, 0, 67, 0
2, 225209, Control_c, 0, 64, 0
2, 225217, Note_on_c, 0, 60, 45
2, 225230, Note_on_c, 0, 53, 51
2, 225236, Note_on_c, 0, 65, 59
2, 225513, Control_c, 0, 64, 127
2, 226092, Note_on_c, 0, 44, 0
2, 226183, Note_on_c, 0, 51, 33
2, 226337, Note_on_c, 0, 60, 0
2, 226522, Control_c, 0, 64, 0
2, 226563, Note_on_c, 0, 53, 0
2, 226653, Note_on_c, 0, 63, 40
2, 226654, Note_on_c, 0, 65, 0
2, 226656, Note_on_c, 0, 59, 49
2, 226674, Note_on_c, 0, 44, 35
2, 226778, Control_c, 0, 64, 127
2, 226786, Note_on_c, 0, 51, 0
2, 227187, Note_on_c, 0, 44, 0
2, 227213, Note_on_c, 0, 59, 0
2, 227323, Note_on_c, 0, 63, 0
2, 228117, Note_on_c, 0, 63, 61
2, 228122, Note_on_c, 0, 54, 53
2, 228124, Note_on_c, 0, 68, 74
2, 228126, Note_on_c, 0, 80, 79
2, 228136, Note_on_c, 0, 59, 64
2, 228147, Note_on_c, 0, 58, 62
2, 228194, Control_c, 0, 64, 0
2, 228386, Control_c, 0, 64, 127
2, 229021, Note_on_c, 0, 59, 0
2, 229058, Note_on_c, 0, 63, 0
2, 229175, Note_on_c, 0, 54, 0
2, 229266, Note_on_c, 0, 68, 0
2, 229309, Note_on_c, 0, 58, 0
2, 229338, Note_on_c, 0, 80, 0
2, 229576, Note_on_c, 0, 70, 61
2, 229578, Note_on_c, 0, 82, 66
2, 229582, Note_on_c, 0, 63, 57
2, 229600, Note_on_c, 0, 53, 52
2, 229603, Note_on_c, 0, 58, 22
2, 229611, Note_on_c, 0, 59, 60
2, 229669, Control_c, 0, 64, 0
2, 229878, Control_c, 0, 64, 127
2, 230068, Note_on_c, 0, 59, 0
2, 230086, Note_on_c, 0, 58, 0
2, 230116, Note_on_c, 0, 63, 0
2, 230132, Note_on_c, 0, 70, 0
2, 230143, Note_on_c, 0, 53, 0
2, 230183, Note_on_c, 0, 82, 0
2, 230490, Note_on_c, 0, 61, 42
2, 230501, Note_on_c, 0, 51, 42
2, 230506, Note_on_c, 0, 73, 39
2, 230508, Note_on_c, 0, 85, 62
2, 230524, Note_on_c, 0, 56, 40
2, 230525, Note_on_c, 0, 58, 50
2, 230553, Control_c, 0, 64, 0
2, 230856, Control_c, 0, 64, 127
2, 231230, Note_on_c, 0, 85, 0
2, 231301, Note_on_c, 0, 73, 0
2, 231391, Note_on_c, 0, 61, 0
2, 231486, Note_on_c, 0, 51, 0
2, 231530, Note_on_c, 0, 56, 0
2, 231722, Note_on_c, 0, 58, 0
2, 231926, Note_on_c, 0, 78, 48
2, 231929, Note_on_c, 0, 61, 37
2, 231940, Note_on_c, 0, 66, 48
2, 231948, Note_on_c, 0, 51, 33
2, 231967, Note_on_c, 0, 58, 28
2, 231981, Note_on_c, 0, 56, 31
2, 232044, Control_c, 0, 64, 0
2, 232299, Control_c, 0, 64, 127
2, 232933, Note_on_c, 0, 61, 0
2, 233147, Note_on_c, 0, 78, 0
2, 233276, Note_on_c, 0, 66, 0
2, 233354, Note_on_c, 0, 58, 0
2, 233379, Note_on_c, 0, 56, 0
2, 233395, Note_on_c, 0, 51, 0
2, 234200, Note_on_c, 0, 65, 69
2, 234213, Note_on_c, 0, 62, 69
2, 234226, Note_on_c, 0, 48, 51
2, 234230, Note_on_c, 0, 58, 44
2, 234266, Note_on_c, 0, 62, 0
2, 234272, Control_c, 0, 64, 0
2, 234293, Note_on_c, 0, 48, 0
2, 234317, Note_on_c, 0, 58, 0
2, 234323, Note_on_c, 0, 65, 0
2, 235142, Note_on_c, 0, 48, 56
2, 235149, Note_on_c, 0, 58, 49
2, 235150, Note_on_c, 0, 62, 59
2, 235153, Note_on_c, 0, 65, 64
2, 235166, Note_on_c, 0, 60, 59
2, 235224, Note_on_c, 0, 60, 0
2, 235363, Control_c, 0, 64, 127
2, 236264, Note_on_c, 0, 48, 0
2, 236385, Note_on_c, 0, 58, 0
2, 236427, Note_on_c, 0, 62, 0
2, 236446, Note_on_c, 0, 65, 0
2, 236653, Note_on_c, 0, 62, 59
2, 236664, Note_on_c, 0, 48, 46
2, 236664, Note_on_c, 0, 58, 40
2, 236666, Note_on_c, 0, 65, 56
2, 236893, Note_on_c, 0, 58, 0
2, 236944, Note_on_c, 0, 48, 0
2, 237407, Note_on_c, 0, 62, 0
2, 237585, Note_on_c, 0, 48, 46
2, 237663, Note_on_c, 0, 48, 0
2, 237808, Note_on_c, 0, 65, 0
2, 238010, Control_c, 0, 64, 0
2, 238047, Note_on_c, 0, 64, 61
2, 238055, Note_on_c, 0, 60, 59
2, 238059, Note_on_c, 0, 52, 56
2, 238061, Note_on_c, 0, 41, 57
2, 238065, Note_on_c, 0, 57, 53
2, 238652, Control_c, 0, 64, 127
2, 238912, Note_on_c, 0, 64, 0
2, 238931, Note_on_c, 0, 57, 0
2, 238936, Note_on_c, 0, 60, 0
2, 238974, Note_on_c, 0, 52, 0
2, 239210, Note_on_c, 0, 41, 0
2, 239495, Note_on_c, 0, 41, 49
2, 239507, Note_on_c, 0, 64, 52
2, 239513, Note_on_c, 0, 57, 58
2, 239515, Note_on_c, 0, 60, 56
2, 239521, Note_on_c, 0, 52, 46
2, 239868, Note_on_c, 0, 57, 0
2, 239902, Note_on_c, 0, 60, 0
2, 239927, Note_on_c, 0, 41, 0
2, 239932, Note_on_c, 0, 64, 0
2, 239943, Note_on_c, 0, 52, 0
2, 240433, Note_on_c, 0, 60, 57
2, 240447, Control_c, 0, 64, 0
2, 240449, Note_on_c, 0, 52, 38
2, 240449, Note_on_c, 0, 41, 51
2, 240450, Note_on_c, 0, 64, 56
2, 240452, Note_on_c, 0, 57, 53
2, 240501, Note_on_c, 0, 60, 0
2, 240513, Note_on_c, 0, 52, 0
2, 240514, Note_on_c, 0, 57, 0
2, 240581, Note_on_c, 0, 64, 0
2, 240594, Note_on_c, 0, 41, 0
2, 240970, Note_on_c, 0, 28, 70
2, 240978, Note_on_c, 0, 67, 70
2, 240980, Note_on_c, 0, 40, 56
2, 240986, Note_on_c, 0, 56, 60
2, 240993, Note_on_c, 0, 62, 75
2, 241956, Control_c, 0, 64, 127
2, 242571, Note_on_c, 0, 56, 0
2, 242659, Note_on_c, 0, 28, 0
2, 242667, Note_on_c, 0, 62, 0
2, 242714, Note_on_c, 0, 67, 0
2, 242822, Note_on_c, 0, 40, 0
2, 244257, Note_on_c, 0, 71, 91
2, 244528, Note_on_c, 0, 71, 0
2, 244728, Note_on_c, 0, 74, 92
2, 244760, Control_c, 0, 64, 0
2, 245145, Note_on_c, 0, 74, 0
2, 245240, Note_on_c, 0, 74, 82
2, 245377, Note_on_c, 0, 74, 0
2, 245760, Note_on_c, 0, 52, 19
2, 245760, Note_on_c, 0, 52, 0
2, 245778, Note_on_c, 0, 71, 42
2, 245809, Note_on_c, 0, 64, 36
2, 245815, Note_on_c, 0, 59, 32
2, 245841, Note_on_c, 0, 60, 34
2, 245842, Note_on_c, 0, 45, 32
2, 245918, Control_c, 0, 64, 127
2, 246577, Note_on_c, 0, 60, 0
2, 246591, Note_on_c, 0, 59, 0
2, 246707, Note_on_c, 0, 64, 0
2, 247251, Note_on_c, 0, 64, 37
2, 247275, Note_on_c, 0, 59, 40
2, 247284, Note_on_c, 0, 60, 40
2, 247307, Note_on_c, 0, 52, 27
2, 249270, Note_on_c, 0, 64, 0
2, 249275, Note_on_c, 0, 52, 0
2, 249297, Note_on_c, 0, 71, 0
2, 249321, Note_on_c, 0, 60, 0
2, 249408, Note_on_c, 0, 59, 0
2, 250094, Note_on_c, 0, 66, 52
2, 250099, Note_on_c, 0, 57, 57
2, 250113, Control_c, 0, 64, 0
2, 250116, Note_on_c, 0, 62, 48
2, 250156, Note_on_c, 0, 57, 0
2, 250177, Note_on_c, 0, 62, 0
2, 250220, Note_on_c, 0, 66, 0
2, 250596, Note_on_c, 0, 66, 51
2, 250612, Note_on_c, 0, 57, 47
2, 250615, Note_on_c, 0, 52, 27
2, 250623, Note_on_c, 0, 62, 39
2, 250675, Note_on_c, 0, 57, 0
2, 250676, Note_on_c, 0, 52, 0
2, 250685, Note_on_c, 0, 66, 0
2, 250691, Note_on_c, 0, 62, 0
2, 251095, Note_on_c, 0, 52, 34
2, 251099, Note_on_c, 0, 66, 40
2, 251103, Note_on_c, 0, 57, 51
2, 251114, Note_on_c, 0, 62, 44
2, 251161, Note_on_c, 0, 66, 0
2, 251165, Note_on_c, 0, 57, 0
2, 251175, Note_on_c, 0, 52, 0
2, 251181, Note_on_c, 0, 62, 0
2, 251541, Control_c, 0, 64, 127
2, 251575, Note_on_c, 0, 66, 51
2, 251599, Note_on_c, 0, 57, 55
2, 251620, Note_on_c, 0, 62, 46
2, 251633, Note_on_c, 0, 52, 24
2, 251810, Note_on_c, 0, 57, 0
2, 251863, Note_on_c, 0, 52, 0
2, 251967, Note_on_c, 0, 66, 0
2, 251996, Note_on_c, 0, 62, 0
2, 252061, Note_on_c, 0, 52, 35
2, 252074, Note_on_c, 0, 64, 46
2, 252101, Note_on_c, 0, 67, 45
2, 252103, Note_on_c, 0, 59, 24
2, 252136, Note_on_c, 0, 52, 0
2, 252220, Note_on_c, 0, 45, 0
2, 252354, Note_on_c, 0, 59, 0
2, 252375, Note_on_c, 0, 64, 0
2, 252384, Note_on_c, 0, 67, 0
2, 252533, Note_on_c, 0, 45, 46
2, 252547, Note_on_c, 0, 66, 38
2, 252563, Note_on_c, 0, 62, 50
2, 252567, Control_c, 0, 64, 0
2, 252568, Note_on_c, 0, 59, 54
2, 252623, Note_on_c, 0, 62, 0
2, 252683, Note_on_c, 0, 66, 0
2, 252695, Note_on_c, 0, 59, 0
2, 253028, Note_on_c, 0, 40, 43
2, 253192, Note_on_c, 0, 40, 0
2, 253512, Note_on_c, 0, 64, 38
2, 253513, Note_on_c, 0, 59, 40
2, 253515, Note_on_c, 0, 60, 48
2, 253530, Note_on_c, 0, 33, 37
2, 253792, Control_c, 0, 64, 127
2, 254412, Note_on_c, 0, 45, 0
2, 254566, Note_on_c, 0, 59, 0
2, 254760, Note_on_c, 0, 60, 0
2, 254894, Note_on_c, 0, 64, 0
2, 254929, Note_on_c, 0, 60, 45
2, 254936, Note_on_c, 0, 57, 50
2, 254949, Note_on_c, 0, 64, 34
2, 255029, Note_on_c, 0, 45, 32
2, 255072, Control_c, 0, 64, 0
2, 255228, Note_on_c, 0, 33, 0
2, 255233, Control_c, 0, 64, 127
2, 255423, Note_on_c, 0, 45, 0
2, 255944, Note_on_c, 0, 57, 0
2, 255974, Note_on_c, 0, 52, 36
2, 256102, Note_on_c, 0, 52, 0
2, 256291, Note_on_c, 0, 60, 0
2, 256334, Note_on_c, 0, 64, 0
2, 256864, Note_on_c, 0, 66, 55
2, 256868, Note_on_c, 0, 62, 66
2, 256871, Note_on_c, 0, 45, 46
2, 256889, Note_on_c, 0, 57, 48
2, 256998, Control_c, 0, 64, 0
2, 257317, Control_c, 0, 64, 127
2, 257831, Note_on_c, 0, 52, 36
2, 258001, Note_on_c, 0, 57, 0
2, 258306, Note_on_c, 0, 62, 0
2, 258394, Note_on_c, 0, 52, 0
2, 258808, Note_on_c, 0, 52, 22
2, 259301, Note_on_c, 0, 57, 36
2, 259620, Note_on_c, 0, 57, 0
2, 259673, Note_on_c, 0, 66, 0
2, 259787, Note_on_c, 0, 62, 62
2, 259873, Note_on_c, 0, 62, 0
2, 259887, Note_on_c, 0, 45, 0
2, 259891, Note_on_c, 0, 52, 0
2, 260248, Note_on_c, 0, 74, 94
2, 260603, Note_on_c, 0, 74, 0
2, 260702, Note_on_c, 0, 74, 70
2, 261155, Note_on_c, 0, 74, 0
2, 261214, Note_on_c, 0, 67, 55
2, 261216, Note_on_c, 0, 63, 42
2, 261224, Note_on_c, 0, 70, 51
2, 261248, Note_on_c, 0, 62, 52
2, 261264, Control_c, 0, 64, 0
2, 261633, Control_c, 0, 64, 127
2, 262407, Note_on_c, 0, 63, 0
2, 262543, Note_on_c, 0, 67, 0
2, 262559, Note_on_c, 0, 62, 0
2, 262891, Note_on_c, 0, 70, 0
2, 263542, Note_on_c, 0, 77, 68
2, 263572, Note_on_c, 0, 74, 62
2, 263590, Note_on_c, 0, 70, 58
2, 263615, Note_on_c, 0, 67, 47
2, 263629, Note_on_c, 0, 63, 30
2, 263634, Note_on_c, 0, 65, 42
2, 263700, Control_c, 0, 64, 0
2, 263974, Control_c, 0, 64, 127
2, 264426, Note_on_c, 0, 65, 0
2, 264444, Note_on_c, 0, 67, 0
2, 264481, Note_on_c, 0, 63, 0
2, 264583, Note_on_c, 0, 74, 0
2, 264649, Note_on_c, 0, 77, 0
2, 264658, Note_on_c, 0, 70, 0
2, 265450, Note_on_c, 0, 74, 85
2, 265965, Note_on_c, 0, 67, 50
2, 266081, Note_on_c, 0, 74, 0
2, 266271, Note_on_c, 0, 67, 0
2, 266917, Note_on_c, 0, 62, 42
2, 266924, Note_on_c, 0, 65, 53
2, 266952, Note_on_c, 0, 48, 30
2, 266983, Control_c, 0, 64, 0
2, 267016, Note_on_c, 0, 58, 17
2, 267043, Note_on_c, 0, 55, 19
2, 267495, Control_c, 0, 64, 127
2, 267879, Note_on_c, 0, 55, 0
2, 267911, Note_on_c, 0, 48, 0
2, 268000, Note_on_c, 0, 58, 0
2, 268278, Note_on_c, 0, 62, 0
2, 268289, Note_on_c, 0, 65, 0
2, 268328, Note_on_c, 0, 63, 33
2, 268345, Note_on_c, 0, 60, 38
2, 268466, Note_on_c, 0, 60, 0
2, 268653, Note_on_c, 0, 63, 0
2, 268828, Control_c, 0, 64, 0
2, 268843, Note_on_c, 0, 62, 39
2, 268844, Note_on_c, 0, 65, 51
2, 268863, Note_on_c, 0, 48, 31
2, 268892, Note_on_c, 0, 58, 27
2, 268895, Note_on_c, 0, 55, 33
2, 269262, Control_c, 0, 64, 127
2, 269719, Note_on_c, 0, 58, 0
2, 269786, Note_on_c, 0, 55, 0
2, 269947, Note_on_c, 0, 65, 0
2, 270003, Note_on_c, 0, 62, 0
2, 270040, Note_on_c, 0, 48, 0
2, 270257, Note_on_c, 0, 67, 51
2, 270264, Note_on_c, 0, 63, 39
2, 270270, Note_on_c, 0, 48, 32
2, 270312, Note_on_c, 0, 58, 20
2, 270335, Control_c, 0, 64, 0
2, 270575, Control_c, 0, 64, 127
2, 270730, Note_on_c, 0, 48, 0
2, 270793, Note_on_c, 0, 58, 0
2, 271069, Note_on_c, 0, 67, 0
2, 271101, Note_on_c, 0, 63, 0
2, 272215, Note_on_c, 0, 74, 62
2, 272240, Note_on_c, 0, 66, 51
2, 272264, Note_on_c, 0, 63, 44
2, 272293, Note_on_c, 0, 57, 36
2, 272294, Note_on_c, 0, 69, 38
2, 272322, Control_c, 0, 64, 0
2, 272916, Control_c, 0, 64, 127
2, 273471, Note_on_c, 0, 69, 0
2, 273821, Note_on_c, 0, 57, 0
2, 273904, Note_on_c, 0, 74, 0
2, 274122, Note_on_c, 0, 72, 56
2, 274142, Note_on_c, 0, 63, 0
2, 274171, Note_on_c, 0, 69, 36
2, 274189, Note_on_c, 0, 57, 37
2, 274333, Note_on_c, 0, 69, 0
2, 274334, Note_on_c, 0, 57, 0
2, 274374, Note_on_c, 0, 66, 0
2, 274384, Note_on_c, 0, 72, 0
2, 274845, Note_on_c, 0, 66, 54
2, 274854, Note_on_c, 0, 51, 40
2, 274856, Note_on_c, 0, 62, 59
2, 274867, Note_on_c, 0, 69, 46
2, 274875, Note_on_c, 0, 57, 44
2, 274925, Control_c, 0, 64, 0
2, 275277, Control_c, 0, 64, 127
2, 275812, Note_on_c, 0, 66, 0
2, 275936, Note_on_c, 0, 62, 0
2, 276077, Note_on_c, 0, 66, 63
2, 276091, Note_on_c, 0, 69, 0
2, 276125, Note_on_c, 0, 57, 0
2, 276436, Note_on_c, 0, 66, 0
2, 276532, Note_on_c, 0, 51, 0
2, 276623, Note_on_c, 0, 65, 43
2, 276627, Note_on_c, 0, 53, 29
2, 276635, Note_on_c, 0, 57, 37
2, 276643, Note_on_c, 0, 46, 39
2, 276657, Control_c, 0, 64, 0
2, 276663, Note_on_c, 0, 62, 55
2, 277057, Control_c, 0, 64, 127
2, 277649, Note_on_c, 0, 57, 0
2, 278313, Note_on_c, 0, 62, 0
2, 278393, Note_on_c, 0, 65, 0
2, 278960, Note_on_c, 0, 72, 85
2, 278967, Note_on_c, 0, 65, 90
2, 278973, Note_on_c, 0, 57, 48
2, 279183, Note_on_c, 0, 53, 0
2, 279256, Control_c, 0, 64, 0
2, 279368, Control_c, 0, 64, 127
2, 279415, Note_on_c, 0, 57, 0
2, 279428, Note_on_c, 0, 65, 0
2, 279446, Note_on_c, 0, 69, 60
2, 279467, Note_on_c, 0, 53, 33
2, 279487, Note_on_c, 0, 72, 0
2, 279727, Note_on_c, 0, 46, 0
2, 279767, Note_on_c, 0, 69, 0
2, 279778, Note_on_c, 0, 53, 0
2, 279965, Note_on_c, 0, 72, 56
2, 279971, Note_on_c, 0, 60, 60
2, 279973, Note_on_c, 0, 69, 59
2, 279973, Note_on_c, 0, 61, 61
2, 279975, Note_on_c, 0, 65, 70
2, 280011, Control_c, 0, 64, 0
2, 280365, Control_c, 0, 64, 127
2, 280636, Note_on_c, 0, 69, 0
2, 280685, Note_on_c, 0, 61, 0
2, 280708, Note_on_c, 0, 65, 0
2, 280809, Note_on_c, 0, 72, 0
2, 280921, Note_on_c, 0, 70, 63
2, 280922, Note_on_c, 0, 61, 48
2, 280924, Note_on_c, 0, 60, 0
2, 280958, Note_on_c, 0, 65, 59
2, 280982, Note_on_c, 0, 58, 32
2, 281006, Control_c, 0, 64, 0
2, 281280, Control_c, 0, 64, 127
2, 281281, Note_on_c, 0, 65, 0
2, 281424, Note_on_c, 0, 58, 0
2, 281480, Note_on_c, 0, 61, 0
2, 281536, Note_on_c, 0, 70, 0
2, 281841, Note_on_c, 0, 72, 56
2, 281852, Note_on_c, 0, 64, 61
2, 281865, Note_on_c, 0, 61, 37
2, 281901, Note_on_c, 0, 55, 38
2, 281919, Control_c, 0, 64, 0
2, 281928, Note_on_c, 0, 67, 27
2, 282289, Control_c, 0, 64, 127
2, 282778, Note_on_c, 0, 72, 0
2, 282868, Note_on_c, 0, 64, 0
2, 283091, Note_on_c, 0, 67, 0
2, 283337, Note_on_c, 0, 61, 0
2, 283695, Note_on_c, 0, 70, 57
2, 283732, Note_on_c, 0, 45, 36
2, 283736, Note_on_c, 0, 61, 42
2, 283744, Note_on_c, 0, 55, 0
2, 283788, Note_on_c, 0, 61, 0
2, 283839, Note_on_c, 0, 45, 0
2, 283844, Note_on_c, 0, 70, 0
2, 284455, Control_c, 0, 64, 0
2, 284679, Control_c, 0, 64, 127
2, 284823, Control_c, 0, 64, 0
2, 284857, Note_on_c, 0, 64, 32
2, 284861, Note_on_c, 0, 44, 33
2, 284868, Note_on_c, 0, 60, 32
2, 284876, Note_on_c, 0, 51, 27
2, 285337, Control_c, 0, 64, 127
2, 285352, Note_on_c, 0, 64, 0
2, 285408, Note_on_c, 0, 67, 64
2, 285669, Note_on_c, 0, 60, 0
2, 285987, Note_on_c, 0, 67, 0
2, 286003, Note_on_c, 0, 51, 0
2, 286106, Note_on_c, 0, 63, 25
2, 286108, Note_on_c, 0, 52, 24
2, 286124, Note_on_c, 0, 60, 35
2, 286136, Note_on_c, 0, 55, 21
2, 286140, Control_c, 0, 64, 0
2, 286491, Control_c, 0, 64, 127
2, 286931, Note_on_c, 0, 55, 0
2, 287160, Note_on_c, 0, 55, 26
2, 287192, Note_on_c, 0, 44, 0
2, 287200, Note_on_c, 0, 60, 0
2, 287216, Note_on_c, 0, 55, 0
2, 287397, Note_on_c, 0, 63, 0
2, 287571, Note_on_c, 0, 44, 34
2, 287635, Note_on_c, 0, 52, 0
2, 287758, Note_on_c, 0, 44, 0
2, 288033, Control_c, 0, 64, 0
2, 288036, Note_on_c, 0, 70, 82
2, 288038, Note_on_c, 0, 59, 82
2, 288042, Note_on_c, 0, 63, 69
2, 288057, Note_on_c, 0, 53, 61
2, 288515, Note_on_c, 0, 53, 0
2, 288524, Note_on_c, 0, 59, 0
2, 288560, Note_on_c, 0, 52, 36
2, 288568, Note_on_c, 0, 63, 0
2, 288617, Note_on_c, 0, 70, 0
2, 288914, Note_on_c, 0, 52, 0
2, 288969, Note_on_c, 0, 70, 61
2, 288978, Note_on_c, 0, 53, 46
2, 288991, Note_on_c, 0, 59, 46
2, 288994, Note_on_c, 0, 63, 44
2, 289203, Control_c, 0, 64, 127
2, 289414, Note_on_c, 0, 53, 0
2, 289561, Note_on_c, 0, 59, 0
2, 289568, Note_on_c, 0, 63, 0
2, 289756, Note_on_c, 0, 70, 0
2, 290428, Note_on_c, 0, 68, 54
2, 290454, Note_on_c, 0, 63, 47
2, 290460, Note_on_c, 0, 53, 35
2, 290470, Note_on_c, 0, 59, 43
2, 290476, Note_on_c, 0, 49, 35
2, 290500, Control_c, 0, 64, 0
2, 290724, Control_c, 0, 64, 127
2, 290952, Note_on_c, 0, 53, 0
2, 291003, Note_on_c, 0, 68, 0
2, 291067, Note_on_c, 0, 49, 0
2, 291173, Note_on_c, 0, 59, 0
2, 291282, Note_on_c, 0, 67, 56
2, 291648, Note_on_c, 0, 63, 0
2, 291775, Note_on_c, 0, 67, 0
2, 291877, Note_on_c, 0, 65, 49
2, 291884, Note_on_c, 0, 60, 37
2, 291886, Note_on_c, 0, 42, 39
2, 291890, Control_c, 0, 64, 0
2, 291910, Note_on_c, 0, 53, 28
2, 292161, Control_c, 0, 64, 127
2, 292421, Note_on_c, 0, 65, 0
2, 292632, Note_on_c, 0, 42, 0
2, 292682, Note_on_c, 0, 60, 0
2, 292758, Note_on_c, 0, 53, 0
2, 293379, Note_on_c, 0, 65, 76
2, 293380, Note_on_c, 0, 70, 69
2, 293411, Note_on_c, 0, 58, 46
2, 294188, Note_on_c, 0, 58, 0
2, 294341, Note_on_c, 0, 58, 50
2, 294625, Note_on_c, 0, 58, 0
2, 294704, Note_on_c, 0, 65, 0
2, 295230, Note_on_c, 0, 70, 0
2, 295865, Control_c, 0, 64, 0
2, 296644, Note_on_c, 0, 69, 63
2, 296655, Note_on_c, 0, 62, 62
2, 296657, Note_on_c, 0, 58, 50
2, 296670, Note_on_c, 0, 65, 55
2, 296681, Note_on_c, 0, 48, 47
2, 296716, Note_on_c, 0, 55, 36
2, 297004, Control_c, 0, 64, 127
2, 298357, Note_on_c, 0, 55, 0
2, 298498, Note_on_c, 0, 48, 0
2, 298747, Note_on_c, 0, 69, 0
2, 298830, Note_on_c, 0, 65, 0
2, 299080, Note_on_c, 0, 62, 0
2, 299093, Note_on_c, 0, 67, 57
2, 299217, Note_on_c, 0, 58, 0
2, 299240, Note_on_c, 0, 67, 0
2, 299593, Note_on_c, 0, 57, 46
2, 299612, Note_on_c, 0, 60, 46
2, 299616, Note_on_c, 0, 41, 37
2, 299633, Note_on_c, 0, 48, 26
2, 299640, Note_on_c, 0, 52, 21
2, 299681, Control_c, 0, 64, 0
2, 299857, Note_on_c, 0, 48, 0
2, 299860, Note_on_c, 0, 57, 0
2, 299876, Note_on_c, 0, 52, 0
2, 299878, Note_on_c, 0, 60, 0
2, 299894, Note_on_c, 0, 41, 0
2, 300547, Control_c, 0, 64, 127
2, 300993, Note_on_c, 0, 57, 53
2, 300998, Note_on_c, 0, 60, 51
2, 301014, Note_on_c, 0, 48, 40
2, 301030, Note_on_c, 0, 41, 46
2, 301044, Control_c, 0, 64, 0
2, 301051, Note_on_c, 0, 52, 32
2, 301149, Note_on_c, 0, 57, 0
2, 301158, Note_on_c, 0, 52, 0
2, 301183, Note_on_c, 0, 48, 0
2, 301193, Note_on_c, 0, 60, 0
2, 301206, Note_on_c, 0, 41, 0
2, 301895, Control_c, 0, 64, 127
2, 301917, Note_on_c, 0, 41, 59
2, 302061, Note_on_c, 0, 41, 0
2, 302280, Control_c, 0, 64, 0
2, 302404, Note_on_c, 0, 56, 52
2, 302413, Note_on_c, 0, 67, 55
2, 302428, Note_on_c, 0, 40, 55
2, 302431, Note_on_c, 0, 62, 62
2, 302441, Note_on_c, 0, 52, 38
2, 302826, Control_c, 0, 64, 127
2, 303723, Control_c, 0, 64, 0
2, 304685, Control_c, 0, 64, 127
2, 305352, Note_on_c, 0, 56, 0
2, 305582, Note_on_c, 0, 62, 0
2, 305861, Note_on_c, 0, 67, 0
2, 305872, Note_on_c, 0, 40, 0
2, 306069, Note_on_c, 0, 52, 0
2, 307294, Note_on_c, 0, 45, 40
2, 307348, Control_c, 0, 64, 0
2, 308182, Note_on_c, 0, 67, 52
2, 308185, Note_on_c, 0, 64, 41
2, 308191, Note_on_c, 0, 60, 35
2, 308248, Note_on_c, 0, 67, 0
2, 308251, Note_on_c, 0, 64, 0
2, 308252, Note_on_c, 0, 60, 0
2, 308699, Note_on_c, 0, 62, 57
2, 308709, Note_on_c, 0, 66, 44
2, 308717, Note_on_c, 0, 57, 37
2, 308741, Note_on_c, 0, 52, 26
2, 309111, Control_c, 0, 64, 127
2, 309300, Note_on_c, 0, 52, 0
2, 309658, Note_on_c, 0, 52, 28
2, 309820, Note_on_c, 0, 57, 0
2, 309863, Note_on_c, 0, 52, 0
2, 310090, Note_on_c, 0, 62, 0
2, 310134, Note_on_c, 0, 66, 0
2, 310185, Note_on_c, 0, 57, 22
2, 310274, Note_on_c, 0, 57, 0
2, 310509, Note_on_c, 0, 45, 0
2, 310666, Note_on_c, 0, 55, 54
2, 310677, Note_on_c, 0, 60, 59
2, 310677, Note_on_c, 0, 64, 57
2, 310763, Control_c, 0, 64, 0
2, 310783, Note_on_c, 0, 55, 0
2, 310892, Note_on_c, 0, 55, 19
2, 311534, Control_c, 0, 64, 127
2, 311577, Note_on_c, 0, 55, 0
2, 311606, Note_on_c, 0, 52, 37
2, 312037, Note_on_c, 0, 64, 0
2, 312063, Note_on_c, 0, 60, 0
2, 312144, Note_on_c, 0, 55, 24
2, 312313, Note_on_c, 0, 55, 0
2, 312366, Note_on_c, 0, 52, 0
2, 312568, Note_on_c, 0, 59, 57
2, 312576, Note_on_c, 0, 55, 37
2, 312584, Note_on_c, 0, 62, 49
2, 312590, Control_c, 0, 64, 0
2, 313152, Control_c, 0, 64, 127
2, 313395, Note_on_c, 0, 55, 0
2, 313519, Note_on_c, 0, 52, 33
2, 313523, Note_on_c, 0, 59, 0
2, 313620, Note_on_c, 0, 52, 0
2, 313643, Note_on_c, 0, 62, 0
2, 314893, Note_on_c, 0, 64, 40
2, 314898, Note_on_c, 0, 71, 46
2, 314912, Note_on_c, 0, 59, 40
2, 314914, Note_on_c, 0, 60, 46
2, 314928, Note_on_c, 0, 76, 52
2, 314983, Control_c, 0, 64, 0
2, 315254, Control_c, 0, 64, 127
2, 315775, Note_on_c, 0, 60, 0
2, 315793, Note_on_c, 0, 64, 0
2, 315801, Note_on_c, 0, 59, 0
2, 315975, Note_on_c, 0, 71, 0
2, 316006, Note_on_c, 0, 76, 0
2, 316370, Note_on_c, 0, 69, 46
2, 316392, Note_on_c, 0, 72, 37
2, 316404, Note_on_c, 0, 64, 34
2, 316407, Note_on_c, 0, 59, 35
2, 316430, Note_on_c, 0, 60, 34
2, 316472, Control_c, 0, 64, 0
2, 316568, Control_c, 0, 64, 127
2, 316975, Note_on_c, 0, 69, 0
2, 316981, Note_on_c, 0, 60, 0
2, 316992, Note_on_c, 0, 64, 0
2, 317003, Note_on_c, 0, 59, 0
2, 317006, Note_on_c, 0, 72, 0
2, 317440, Note_on_c, 0, 83, 64
2, 317443, Note_on_c, 0, 76, 58
2, 318188, Note_on_c, 0, 76, 0
2, 318242, Note_on_c, 0, 83, 0
2, 318343, Note_on_c, 0, 79, 59
2, 318370, Note_on_c, 0, 71, 46
2, 318383, Note_on_c, 0, 64, 38
2, 318396, Note_on_c, 0, 60, 40
2, 318399, Note_on_c, 0, 59, 39
2, 318802, Note_on_c, 0, 79, 0
2, 318934, Note_on_c, 0, 60, 0
2, 318936, Note_on_c, 0, 59, 0
2, 318990, Note_on_c, 0, 64, 0
2, 319005, Note_on_c, 0, 71, 0
2, 319821, Note_on_c, 0, 67, 31
2, 319909, Note_on_c, 0, 67, 0
2, 320329, Note_on_c, 0, 64, 24
2, 320376, Note_on_c, 0, 60, 19
2, 320459, Note_on_c, 0, 60, 0
2, 320504, Note_on_c, 0, 64, 0
2, 321239, Note_on_c, 0, 64, 24
2, 321341, Note_on_c, 0, 64, 0
2, 321638, Note_on_c, 0, 67, 61
2, 321879, Note_on_c, 0, 67, 0
2, 322120, Note_on_c, 0, 74, 89
2, 322591, Note_on_c, 0, 74, 0
2, 322612, Note_on_c, 0, 70, 54
2, 322631, Note_on_c, 0, 63, 47
2, 322653, Note_on_c, 0, 67, 48
2, 322727, Control_c, 0, 64, 0
2, 323128, Control_c, 0, 64, 127
2, 325608, Note_on_c, 0, 63, 0
2, 325667, Note_on_c, 0, 67, 0
2, 325672, Note_on_c, 0, 70, 0
2, 326011, Note_on_c, 0, 63, 59
2, 326016, Note_on_c, 0, 74, 66
2, 326024, Note_on_c, 0, 70, 57
2, 326025, Note_on_c, 0, 67, 69
2, 326068, Note_on_c, 0, 64, 64
2, 326174, Control_c, 0, 64, 0
2, 326479, Control_c, 0, 64, 127
2, 326644, Note_on_c, 0, 64, 0
2, 326740, Note_on_c, 0, 63, 0
2, 326775, Note_on_c, 0, 74, 0
2, 326788, Note_on_c, 0, 67, 0
2, 326799, Note_on_c, 0, 70, 0
2, 326882, Note_on_c, 0, 63, 40
2, 326886, Note_on_c, 0, 72, 37
2, 326887, Note_on_c, 0, 67, 54
2, 326922, Note_on_c, 0, 60, 46
2, 326927, Control_c, 0, 64, 0
2, 326929, Note_on_c, 0, 70, 39
2, 327186, Control_c, 0, 64, 127
2, 327245, Note_on_c, 0, 60, 0
2, 327501, Note_on_c, 0, 70, 0
2, 327571, Note_on_c, 0, 67, 0
2, 327593, Note_on_c, 0, 63, 0
2, 327726, Note_on_c, 0, 72, 0
2, 327796, Note_on_c, 0, 63, 46
2, 327820, Note_on_c, 0, 70, 53
2, 327825, Note_on_c, 0, 67, 45
2, 327868, Note_on_c, 0, 55, 30
2, 327875, Control_c, 0, 64, 0
2, 328035, Control_c, 0, 64, 127
2, 328433, Note_on_c, 0, 55, 0
2, 328608, Note_on_c, 0, 67, 0
2, 328848, Note_on_c, 0, 63, 0
2, 329113, Note_on_c, 0, 70, 0
2, 329234, Note_on_c, 0, 62, 49
2, 329342, Note_on_c, 0, 62, 0
2, 329735, Note_on_c, 0, 65, 55
2, 330141, Note_on_c, 0, 65, 0
2, 330192, Note_on_c, 0, 63, 41
2, 330260, Note_on_c, 0, 48, 38
2, 330264, Note_on_c, 0, 58, 36
2, 330282, Note_on_c, 0, 55, 20
2, 330344, Control_c, 0, 64, 0
2, 330714, Control_c, 0, 64, 127
2, 330837, Note_on_c, 0, 55, 0
2, 331131, Note_on_c, 0, 58, 0
2, 331134, Note_on_c, 0, 48, 0
2, 331214, Note_on_c, 0, 55, 27
2, 331302, Note_on_c, 0, 55, 0
2, 331553, Note_on_c, 0, 63, 0
2, 331758, Note_on_c, 0, 62, 55
2, 331761, Note_on_c, 0, 58, 48
2, 331764, Note_on_c, 0, 53, 40
2, 331772, Note_on_c, 0, 48, 33
2, 331820, Control_c, 0, 64, 0
2, 332060, Control_c, 0, 64, 127
2, 332262, Note_on_c, 0, 48, 0
2, 332313, Note_on_c, 0, 53, 0
2, 332467, Note_on_c, 0, 58, 0
2, 332576, Note_on_c, 0, 62, 0
2, 332709, Note_on_c, 0, 63, 49
2, 332734, Note_on_c, 0, 58, 48
2, 332735, Note_on_c, 0, 48, 28
2, 332752, Control_c, 0, 64, 0
2, 332760, Note_on_c, 0, 55, 32
2, 332942, Control_c, 0, 64, 127
2, 332968, Note_on_c, 0, 48, 0
2, 333099, Note_on_c, 0, 55, 0
2, 333200, Control_c, 0, 64, 0
2, 333232, Control_c, 0, 64, 127
2, 333529, Note_on_c, 0, 63, 0
2, 333545, Note_on_c, 0, 58, 0
2, 333652, Note_on_c, 0, 41, 57
2, 333713, Note_on_c, 0, 41, 0
2, 334602, Note_on_c, 0, 63, 73
2, 334607, Note_on_c, 0, 66, 66
2, 334615, Note_on_c, 0, 74, 73
2, 334641, Note_on_c, 0, 69, 59
2, 334645, Note_on_c, 0, 62, 69
2, 334674, Control_c, 0, 64, 0
2, 335043, Control_c, 0, 64, 127
2, 335486, Note_on_c, 0, 62, 0
2, 335919, Note_on_c, 0, 74, 0
2, 336036, Note_on_c, 0, 63, 0
2, 336162, Note_on_c, 0, 69, 0
2, 336343, Note_on_c, 0, 66, 0
2, 336587, Note_on_c, 0, 66, 46
2, 336590, Note_on_c, 0, 72, 42
2, 336606, Note_on_c, 0, 62, 40
2, 336627, Note_on_c, 0, 69, 47
2, 336643, Note_on_c, 0, 57, 36
2, 336696, Control_c, 0, 64, 0
2, 336952, Control_c, 0, 64, 127
2, 337079, Note_on_c, 0, 69, 0
2, 337116, Note_on_c, 0, 72, 0
2, 337179, Note_on_c, 0, 57, 0
2, 337185, Note_on_c, 0, 66, 0
2, 337243, Note_on_c, 0, 62, 0
2, 337515, Note_on_c, 0, 53, 22
2, 337592, Note_on_c, 0, 53, 0
2, 337943, Note_on_c, 0, 65, 35
2, 337960, Note_on_c, 0, 46, 31
2, 337964, Control_c, 0, 64, 0
2, 337967, Note_on_c, 0, 57, 20
2, 337967, Note_on_c, 0, 62, 33
2, 337976, Note_on_c, 0, 60, 33
2, 338000, Note_on_c, 0, 53, 24
2, 338292, Note_on_c, 0, 65, 0
2, 338294, Note_on_c, 0, 57, 0
2, 338329, Note_on_c, 0, 60, 0
2, 338344, Note_on_c, 0, 62, 0
2, 338349, Note_on_c, 0, 53, 0
2, 338366, Note_on_c, 0, 46, 0
2, 338871, Note_on_c, 0, 65, 38
2, 338896, Note_on_c, 0, 46, 31
2, 338903, Note_on_c, 0, 62, 35
2, 338907, Note_on_c, 0, 60, 37
2, 338930, Note_on_c, 0, 57, 21
2, 338943, Note_on_c, 0, 53, 19
2, 339312, Note_on_c, 0, 57, 0
2, 339326, Note_on_c, 0, 60, 0
2, 339331, Note_on_c, 0, 65, 0
2, 339337, Note_on_c, 0, 62, 0
2, 339342, Note_on_c, 0, 53, 0
2, 339364, Note_on_c, 0, 46, 0
2, 339854, Control_c, 0, 64, 127
2, 340346, Note_on_c, 0, 65, 50
2, 340366, Note_on_c, 0, 46, 31
2, 340391, Note_on_c, 0, 53, 29
2, 340408, Note_on_c, 0, 57, 22
2, 340412, Note_on_c, 0, 60, 27
2, 340513, Note_on_c, 0, 57, 0
2, 340540, Note_on_c, 0, 60, 0
2, 340579, Note_on_c, 0, 65, 0
2, 340767, Note_on_c, 0, 46, 0
2, 340785, Note_on_c, 0, 53, 0
2, 341262, Note_on_c, 0, 72, 70
2, 341408, Note_on_c, 0, 72, 0
2, 341551, Note_on_c, 0, 72, 50
2, 341721, Note_on_c, 0, 72, 0
2, 341883, Note_on_c, 0, 61, 51
2, 341894, Note_on_c, 0, 65, 53
2, 341897, Note_on_c, 0, 72, 45
2, 341921, Note_on_c, 0, 68, 56
2, 341940, Control_c, 0, 64, 0
2, 342179, Control_c, 0, 64, 127
2, 342412, Note_on_c, 0, 72, 0
2, 342543, Note_on_c, 0, 68, 0
2, 342824, Note_on_c, 0, 65, 0
2, 343139, Note_on_c, 0, 61, 0
2, 343214, Note_on_c, 0, 73, 62
2, 343498, Note_on_c, 0, 73, 0
2, 343818, Note_on_c, 0, 76, 69
2, 343833, Control_c, 0, 64, 0
2, 343850, Note_on_c, 0, 73, 39
2, 343852, Note_on_c, 0, 61, 37
2, 343863, Note_on_c, 0, 69, 58
2, 343879, Note_on_c, 0, 55, 45
2, 343903, Note_on_c, 0, 64, 37
2, 344201, Control_c, 0, 64, 127
2, 344395, Note_on_c, 0, 73, 0
2, 344625, Note_on_c, 0, 64, 0
2, 344641, Note_on_c, 0, 69, 0
2, 344740, Note_on_c, 0, 76, 0
2, 344887, Note_on_c, 0, 55, 0
2, 344928, Note_on_c, 0, 61, 0
2, 345059, Note_on_c, 0, 79, 63
2, 345497, Note_on_c, 0, 79, 0
2, 345633, Note_on_c, 0, 67, 43
2, 345643, Note_on_c, 0, 63, 46
2, 345643, Note_on_c, 0, 70, 38
2, 345677, Control_c, 0, 64, 0
2, 345690, Note_on_c, 0, 58, 44
2, 345709, Note_on_c, 0, 53, 31
2, 345997, Control_c, 0, 64, 127
2, 346565, Note_on_c, 0, 63, 0
2, 347069, Note_on_c, 0, 63, 34
2, 347321, Note_on_c, 0, 67, 0
2, 347324, Note_on_c, 0, 63, 0
2, 347396, Note_on_c, 0, 70, 0
2, 348054, Note_on_c, 0, 68, 63
2, 348062, Note_on_c, 0, 67, 55
2, 348068, Note_on_c, 0, 63, 41
2, 348164, Control_c, 0, 64, 0
2, 348372, Control_c, 0, 64, 127
2, 348526, Note_on_c, 0, 53, 0
2, 348622, Note_on_c, 0, 67, 0
2, 348689, Note_on_c, 0, 63, 0
2, 348721, Note_on_c, 0, 68, 0
2, 348854, Note_on_c, 0, 58, 0
2, 349000, Note_on_c, 0, 71, 68
2, 349017, Note_on_c, 0, 63, 48
2, 349027, Note_on_c, 0, 59, 47
2, 349028, Note_on_c, 0, 68, 71
2, 349076, Control_c, 0, 64, 0
2, 349348, Control_c, 0, 64, 127
2, 349423, Note_on_c, 0, 71, 0
2, 349902, Note_on_c, 0, 68, 0
2, 349994, Note_on_c, 0, 75, 85
2, 350002, Note_on_c, 0, 54, 54
2, 350087, Control_c, 0, 64, 0
2, 350183, Control_c, 0, 64, 127
2, 350371, Note_on_c, 0, 75, 0
2, 350485, Note_on_c, 0, 59, 0
2, 350512, Note_on_c, 0, 63, 0
2, 350651, Note_on_c, 0, 54, 0
2, 350893, Note_on_c, 0, 79, 60
2, 350909, Note_on_c, 0, 71, 60
2, 350944, Note_on_c, 0, 59, 29
2, 350953, Control_c, 0, 64, 0
2, 350957, Note_on_c, 0, 74, 51
2, 350963, Note_on_c, 0, 67, 52
2, 350964, Note_on_c, 0, 62, 52
2, 350987, Note_on_c, 0, 53, 32
2, 351227, Control_c, 0, 64, 127
2, 351520, Note_on_c, 0, 74, 0
2, 351541, Note_on_c, 0, 71, 0
2, 351564, Note_on_c, 0, 59, 0
2, 351565, Note_on_c, 0, 67, 0
2, 351618, Note_on_c, 0, 79, 0
2, 351853, Note_on_c, 0, 59, 26
2, 352742, Note_on_c, 0, 59, 0
2, 352767, Note_on_c, 0, 53, 0
2, 352823, Note_on_c, 0, 84, 82
2, 352849, Note_on_c, 0, 62, 0
2, 353260, Note_on_c, 0, 84, 0
2, 353426, Note_on_c, 0, 82, 49
2, 353441, Note_on_c, 0, 72, 35
2, 353441, Note_on_c, 0, 54, 41
2, 353447, Note_on_c, 0, 77, 43
2, 353473, Note_on_c, 0, 60, 39
2, 353487, Control_c, 0, 64, 0
2, 353490, Note_on_c, 0, 65, 34
2, 353602, Note_on_c, 0, 60, 0
2, 353760, Control_c, 0, 64, 127
2, 354106, Note_on_c, 0, 82, 0
2, 354119, Note_on_c, 0, 77, 0
2, 354123, Note_on_c, 0, 65, 0
2, 354181, Note_on_c, 0, 60, 22
2, 354212, Note_on_c, 0, 72, 0
2, 354785, Note_on_c, 0, 70, 37
2, 354805, Note_on_c, 0, 77, 44
2, 354825, Note_on_c, 0, 72, 34
2, 354829, Note_on_c, 0, 65, 44
2, 355272, Note_on_c, 0, 60, 0
2, 355642, Note_on_c, 0, 65, 0
2, 355745, Note_on_c, 0, 60, 35
2, 356116, Note_on_c, 0, 72, 0
2, 356134, Note_on_c, 0, 70, 0
2, 356162, Note_on_c, 0, 77, 0
2, 356198, Note_on_c, 0, 54, 0
2, 356627, Note_on_c, 0, 54, 47
2, 356855, Note_on_c, 0, 54, 0
2, 356859, Note_on_c, 0, 60, 0
2, 357109, Note_on_c, 0, 68, 54
2, 357124, Note_on_c, 0, 72, 40
2, 357128, Note_on_c, 0, 54, 41
2, 357192, Control_c, 0, 64, 0
2, 357233, Note_on_c, 0, 68, 0
2, 357273, Note_on_c, 0, 72, 0
2, 357280, Note_on_c, 0, 54, 0
2, 358251, Control_c, 0, 64, 127
2, 359506, Note_on_c, 0, 48, 52
2, 359508, Note_on_c, 0, 70, 58
2, 359511, Note_on_c, 0, 62, 62
2, 359519, Note_on_c, 0, 65, 64
2, 359520, Note_on_c, 0, 58, 58
2, 359598, Control_c, 0, 64, 0
2, 359821, Control_c, 0, 64, 127
2, 359999, Note_on_c, 0, 48, 0
2, 360228, Note_on_c, 0, 58, 0
2, 360436, Note_on_c, 0, 65, 0
2, 360484, Note_on_c, 0, 48, 42
2, 360497, Note_on_c, 0, 62, 0
2, 360795, Note_on_c, 0, 70, 0
2, 360928, Note_on_c, 0, 48, 0
2, 360960, Note_on_c, 0, 67, 74
2, 360964, Note_on_c, 0, 72, 61
2, 360968, Note_on_c, 0, 62, 68
2, 360992, Control_c, 0, 64, 0
2, 360994, Note_on_c, 0, 57, 57
2, 361361, Control_c, 0, 64, 127
2, 361933, Note_on_c, 0, 72, 0
2, 361959, Note_on_c, 0, 67, 0
2, 362076, Note_on_c, 0, 62, 0
2, 362331, Note_on_c, 0, 57, 0
2, 362478, Note_on_c, 0, 69, 54
2, 362493, Note_on_c, 0, 64, 48
2, 362506, Note_on_c, 0, 53, 36
2, 362549, Control_c, 0, 64, 0
2, 362773, Control_c, 0, 64, 127
2, 362854, Note_on_c, 0, 53, 0
2, 362918, Note_on_c, 0, 64, 0
2, 362958, Note_on_c, 0, 69, 0
2, 363431, Note_on_c, 0, 69, 62
2, 363453, Note_on_c, 0, 64, 46
2, 363472, Note_on_c, 0, 60, 39
2, 363504, Note_on_c, 0, 69, 0
2, 363517, Note_on_c, 0, 64, 0
2, 363547, Note_on_c, 0, 60, 0
2, 363926, Control_c, 0, 64, 0
2, 363958, Note_on_c, 0, 67, 68
2, 363979, Note_on_c, 0, 56, 51
2, 363986, Note_on_c, 0, 62, 64
2, 364000, Note_on_c, 0, 40, 36
2, 364921, Control_c, 0, 64, 127
2, 366089, Note_on_c, 0, 56, 0
2, 366926, Note_on_c, 0, 62, 0
2, 367077, Note_on_c, 0, 67, 0
2, 367222, Note_on_c, 0, 28, 66
2, 367337, Note_on_c, 0, 28, 0
2, 367353, Note_on_c, 0, 40, 0
2, 368239, Note_on_c, 0, 52, 34
2, 368323, Note_on_c, 0, 52, 0
2, 368763, Note_on_c, 0, 45, 26
2, 368787, Control_c, 0, 64, 0
2, 369690, Note_on_c, 0, 64, 55
2, 369698, Note_on_c, 0, 59, 46
2, 369705, Note_on_c, 0, 60, 48
2, 369757, Note_on_c, 0, 59, 0
2, 369761, Note_on_c, 0, 60, 0
2, 369775, Note_on_c, 0, 64, 0
2, 370141, Note_on_c, 0, 52, 38
2, 370262, Note_on_c, 0, 52, 0
2, 370651, Note_on_c, 0, 59, 42
2, 370658, Note_on_c, 0, 64, 39
2, 370696, Control_c, 0, 64, 127
2, 370790, Note_on_c, 0, 52, 6
2, 370946, Note_on_c, 0, 59, 0
2, 371033, Note_on_c, 0, 64, 0
2, 371046, Note_on_c, 0, 52, 0
2, 371126, Note_on_c, 0, 62, 45
2, 371133, Note_on_c, 0, 66, 46
2, 371163, Note_on_c, 0, 57, 38
2, 371182, Note_on_c, 0, 55, 34
2, 371305, Control_c, 0, 64, 0
2, 371688, Control_c, 0, 64, 127
2, 371962, Note_on_c, 0, 55, 0
2, 372385, Note_on_c, 0, 57, 0
2, 372587, Note_on_c, 0, 62, 0
2, 372857, Note_on_c, 0, 66, 0
2, 373063, Note_on_c, 0, 55, 39
2, 373162, Note_on_c, 0, 55, 0
2, 373693, Note_on_c, 0, 45, 0
2, 373957, Note_on_c, 0, 45, 41
2, 374193, Note_on_c, 0, 45, 0
2, 374783, Control_c, 0, 64, 0
2, 374881, Note_on_c, 0, 66, 79
2, 374895, Control_c, 0, 64, 127
2, 374898, Note_on_c, 0, 62, 82
2, 374903, Note_on_c, 0, 57, 76
2, 374954, Note_on_c, 0, 52, 47
2, 375126, Note_on_c, 0, 57, 0
2, 375258, Note_on_c, 0, 62, 0
2, 375287, Note_on_c, 0, 66, 0
2, 375322, Note_on_c, 0, 52, 0
2, 375372, Note_on_c, 0, 69, 59
2, 375377, Control_c, 0, 64, 0
2, 375380, Note_on_c, 0, 60, 60
2, 375383, Note_on_c, 0, 64, 59
2, 375545, Note_on_c, 0, 69, 0
2, 375583, Note_on_c, 0, 64, 0
2, 375598, Note_on_c, 0, 60, 0
2, 375871, Note_on_c, 0, 52, 45
2, 375891, Control_c, 0, 64, 127
2, 376074, Note_on_c, 0, 52, 0
2, 376163, Control_c, 0, 64, 0
2, 376357, Note_on_c, 0, 60, 51
2, 376358, Note_on_c, 0, 64, 55
2, 376386, Note_on_c, 0, 45, 42
2, 376387, Note_on_c, 0, 55, 31
2, 376530, Control_c, 0, 64, 127
2, 376725, Note_on_c, 0, 55, 0
2, 376795, Note_on_c, 0, 60, 0
2, 376878, Note_on_c, 0, 64, 0
2, 377108, Note_on_c, 0, 45, 0
2, 378198, Note_on_c, 0, 83, 62
2, 378219, Note_on_c, 0, 71, 57
2, 378241, Note_on_c, 0, 64, 34
2, 378249, Note_on_c, 0, 60, 36
2, 378265, Note_on_c, 0, 59, 32
2, 378563, Note_on_c, 0, 59, 0
2, 378572, Note_on_c, 0, 71, 0
2, 378580, Note_on_c, 0, 60, 0
2, 378598, Note_on_c, 0, 64, 0
2, 378600, Note_on_c, 0, 83, 0
2, 378756, Note_on_c, 0, 84, 75
2, 378768, Note_on_c, 0, 72, 50
2, 378776, Note_on_c, 0, 60, 43
2, 378784, Note_on_c, 0, 64, 35
2, 378808, Note_on_c, 0, 59, 38
2, 378972, Note_on_c, 0, 59, 0
2, 378985, Note_on_c, 0, 64, 0
2, 378995, Note_on_c, 0, 60, 0
2, 379049, Note_on_c, 0, 72, 0
2, 379096, Note_on_c, 0, 84, 0
2, 379675, Note_on_c, 0, 88, 58
2, 379688, Note_on_c, 0, 60, 39
2, 379699, Note_on_c, 0, 59, 31
2, 379702, Note_on_c, 0, 76, 52
2, 379707, Control_c, 0, 64, 0
2, 379708, Note_on_c, 0, 64, 26
2, 379771, Control_c, 0, 64, 127
2, 379973, Note_on_c, 0, 76, 0
2, 380006, Note_on_c, 0, 88, 0
2, 380008, Note_on_c, 0, 59, 0
2, 380012, Note_on_c, 0, 60, 0
2, 380060, Note_on_c, 0, 64, 0
2, 380609, Note_on_c, 0, 91, 58
2, 380630, Note_on_c, 0, 79, 40
2, 380631, Note_on_c, 0, 64, 37
2, 380633, Note_on_c, 0, 60, 41
2, 380649, Note_on_c, 0, 59, 36
2, 380684, Control_c, 0, 64, 0
2, 380782, Control_c, 0, 64, 127
2, 380931, Note_on_c, 0, 60, 0
2, 380967, Note_on_c, 0, 59, 0
2, 380974, Note_on_c, 0, 64, 0
2, 381062, Note_on_c, 0, 79, 0
2, 381139, Note_on_c, 0, 91, 0
2, 381623, Note_on_c, 0, 64, 50
2, 381646, Note_on_c, 0, 59, 44
2, 381652, Note_on_c, 0, 60, 42
2, 382144, Note_on_c, 0, 60, 0
2, 382173, Note_on_c, 0, 64, 0
2, 382180, Note_on_c, 0, 59, 0
2, 382596, Note_on_c, 0, 64, 46
2, 382599, Note_on_c, 0, 60, 50
2, 382604, Note_on_c, 0, 59, 49
2, 382723, Note_on_c, 0, 64, 0
2, 382822, Note_on_c, 0, 60, 0
2, 383083, Note_on_c, 0, 59, 0
2, 383475, Note_on_c, 0, 67, 68
2, 383631, Note_on_c, 0, 67, 0
2, 383707, Note_on_c, 0, 74, 77
2, 383943, Note_on_c, 0, 74, 0
2, 384040, Note_on_c, 0, 72, 42
2, 384050, Note_on_c, 0, 63, 53
2, 384064, Note_on_c, 0, 67, 59
2, 384095, Note_on_c, 0, 48, 38
2, 384101, Note_on_c, 0, 58, 30
2, 384117, Control_c, 0, 64, 0
2, 384408, Control_c, 0, 64, 127
2, 384656, Note_on_c, 0, 58, 0
2, 384791, Note_on_c, 0, 55, 29
2, 384815, Note_on_c, 0, 72, 0
2, 384816, Note_on_c, 0, 67, 0
2, 384917, Note_on_c, 0, 63, 0
2, 385470, Note_on_c, 0, 65, 57
2, 385482, Note_on_c, 0, 62, 57
2, 385514, Note_on_c, 0, 58, 35
2, 385570, Note_on_c, 0, 55, 0
2, 385821, Note_on_c, 0, 62, 0
2, 385940, Note_on_c, 0, 65, 0
2, 385977, Control_c, 0, 64, 0
2, 386001, Note_on_c, 0, 60, 42
2, 386002, Note_on_c, 0, 63, 30
2, 386012, Note_on_c, 0, 55, 44
2, 386022, Note_on_c, 0, 58, 0
2, 386380, Control_c, 0, 64, 127
2, 386556, Control_c, 0, 64, 0
2, 386756, Note_on_c, 0, 55, 0
2, 386779, Control_c, 0, 64, 127
2, 386805, Note_on_c, 0, 60, 0
2, 387005, Note_on_c, 0, 63, 0
2, 387379, Note_on_c, 0, 65, 35
2, 387406, Note_on_c, 0, 58, 25
2, 387444, Note_on_c, 0, 65, 0
2, 387591, Note_on_c, 0, 58, 0
2, 387926, Note_on_c, 0, 74, 73
2, 387946, Note_on_c, 0, 67, 62
2, 387946, Note_on_c, 0, 63, 52
2, 387951, Control_c, 0, 64, 0
2, 387962, Note_on_c, 0, 59, 37
2, 388207, Control_c, 0, 64, 127
2, 388327, Note_on_c, 0, 74, 0
2, 388388, Note_on_c, 0, 48, 0
2, 388391, Note_on_c, 0, 59, 0
2, 388419, Note_on_c, 0, 63, 0
2, 388460, Note_on_c, 0, 67, 0
2, 388512, Note_on_c, 0, 75, 69
2, 388539, Note_on_c, 0, 63, 44
2, 388553, Note_on_c, 0, 67, 37
2, 388578, Note_on_c, 0, 60, 45
2, 388591, Control_c, 0, 64, 0
2, 388850, Control_c, 0, 64, 127
2, 389008, Note_on_c, 0, 60, 0
2, 389028, Note_on_c, 0, 67, 0
2, 389082, Note_on_c, 0, 63, 0
2, 389124, Note_on_c, 0, 75, 0
2, 389372, Note_on_c, 0, 63, 42
2, 389378, Note_on_c, 0, 67, 62
2, 389442, Control_c, 0, 64, 0
2, 389731, Control_c, 0, 64, 127
2, 390281, Note_on_c, 0, 55, 39
2, 390342, Note_on_c, 0, 55, 0
2, 390420, Control_c, 0, 64, 0
2, 390444, Note_on_c, 0, 63, 0
2, 390680, Note_on_c, 0, 67, 0
2, 390725, Note_on_c, 0, 63, 39
2, 390902, Note_on_c, 0, 63, 0
2, 391142, Note_on_c, 0, 43, 43
2, 391423, Note_on_c, 0, 43, 0
2, 391629, Note_on_c, 0, 63, 39
2, 391645, Note_on_c, 0, 58, 44
2, 391667, Note_on_c, 0, 53, 37
2, 391677, Note_on_c, 0, 36, 30
2, 391739, Note_on_c, 0, 53, 0
2, 391766, Note_on_c, 0, 58, 0
2, 391815, Note_on_c, 0, 63, 0
2, 392043, Note_on_c, 0, 63, 42
2, 392068, Note_on_c, 0, 53, 33
2, 392133, Note_on_c, 0, 53, 0
2, 392198, Note_on_c, 0, 63, 0
2, 392463, Note_on_c, 0, 43, 35
2, 392559, Control_c, 0, 64, 127
2, 392636, Note_on_c, 0, 43, 0
2, 393035, Note_on_c, 0, 60, 53
2, 393037, Note_on_c, 0, 65, 56
2, 393040, Note_on_c, 0, 55, 44
2, 393077, Note_on_c, 0, 48, 36
2, 393104, Note_on_c, 0, 36, 0
2, 393184, Control_c, 0, 64, 0
2, 393440, Control_c, 0, 64, 127
2, 393930, Note_on_c, 0, 55, 0
2, 393930, Note_on_c, 0, 60, 0
2, 393930, Note_on_c, 0, 65, 0
2, 393930, Note_on_c, 0, 48, 0
2, 396528, Control_c, 0, 64, 0
2, 399383, Note_on_c, 0, 65, 35
2, 399400, Note_on_c, 0, 46, 31
2, 399404, Control_c, 0, 64, 0
2, 399407, Note_on_c, 0, 57, 20
2, 399407, Note_on_c, 0, 62, 33
2, 399416, Note_on_c, 0, 60, 33
2, 399440, Note_on_c, 0, 53, 24
2, 399732, Note_on_c, 0, 65, 0
2, 399734, Note_on_c, 0, 57, 0
2, 399769, Note_on_c, 0, 60, 0
2, 399784, Note_on_c, 0, 62, 0
2, 399789, Note_on_c, 0, 53, 0
2, 399806, Note_on_c, 0, 46, 0
2, 400311, Note_on_c, 0, 65, 38
2, 400336, Note_on_c, 0, 46, 31
2, 400343, Note_on_c, 0, 62, 35
2, 400347, Note_on_c, 0, 60, 37
2, 400370, Note_on_c, 0, 57, 21
2, 400383, Note_on_c, 0, 53, 19
2, 400752, Note_on_c, 0, 57, 0
2, 400766, Note_on_c, 0, 60, 0
2, 400771, Note_on_c, 0, 65, 0
2, 400777, Note_on_c, 0, 62, 0
2, 400782, Note_on_c, 0, 53, 0
2, 400804, Note_on_c, 0, 46, 0
2, 401294, Control_c, 0, 64, 127
2, 401786, Note_on_c, 0, 65, 50
2, 401806, Note_on_c, 0, 46, 31
2, 401831, Note_on_c, 0, 53, 29
2, 401848, Note_on_c, 0, 57, 22
2, 401852, Note_on_c, 0, 60, 27
2, 401953, Note_on_c, 0, 57, 0
2, 401980, Note_on_c, 0, 60, 0
2, 402019, Note_on_c, 0, 65, 0
2, 402207, Note_on_c, 0, 46, 0
2, 402225, Note_on_c, 0, 53, 0
2, 402702, Note_on_c, 0, 72, 70
2, 402848, Note_on_c, 0, 72, 0
2, 402991, Note_on_c, 0, 72, 50
2, 403161, Note_on_c, 0, 72, 0
2, 403323, Note_on_c, 0, 61, 51
2, 403334, Note_on_c, 0, 65, 53
2, 403337, Note_on_c, 0, 72, 45
2, 403361, Note_on_c, 0, 68, 56
2, 403380, Control_c, 0, 64, 0
2, 403619, Control_c, 0, 64, 127
2, 403852, Note_on_c, 0, 72, 0
2, 403983, Note_on_c, 0, 68, 0
2, 404264, Note_on_c, 0, 65, 0
2, 404579, Note_on_c, 0, 61, 0
2, 404654, Note_on_c, 0, 73, 62
2, 404938, Note_on_c, 0, 73, 0
2, 405258, Note_on_c, 0, 76, 69
2, 405273, Control_c, 0, 64, 0
2, 405290, Note_on_c, 0, 73, 39
2, 405292, Note_on_c, 0, 61, 37
2, 405303, Note_on_c, 0, 69, 58
2, 405319, Note_on_c, 0, 55, 45
2, 405343, Note_on_c, 0, 64, 37
2, 405641, Control_c, 0, 64, 127
2, 405835, Note_on_c, 0, 73, 0
2, 406065, Note_on_c, 0, 64, 0
2, 406081, Note_on_c, 0, 69, 0
2, 406180, Note_on_c, 0, 76, 0
2, 406327, Note_on_c, 0, 55, 0
2, 406368, Note_on_c, 0, 61, 0
2, 406499, Note_on_c, 0, 79, 63
2, 406937, Note_on_c, 0, 79, 0
2, 407073, Note_on_c, 0, 67, 43
2, 407083, Note_on_c, 0, 63, 46
2, 407083, Note_on_c, 0, 70, 38
2, 407117, Control_c, 0, 64, 0
2, 407130, Note_on_c, 0, 58, 44
2, 407149, Note_on_c, 0, 53, 31
2, 407437, Control_c, 0, 64, 127
2, 408005, Note_on_c, 0, 63, 0
2, 408509, Note_on_c, 0, 63, 34
2, 408761, Note_on_c, 0, 67, 0
2, 408764, Note_on_c, 0, 63, 0
2, 408836, Note_on_c, 0, 70, 0
2, 409494, Note_on_c, 0, 68, 63
2, 409502, Note_on_c, 0, 67, 55
2, 409508, Note_on_c, 0, 63, 41
2, 409604, Control_c, 0, 64, 0
2, 409812, Control_c, 0, 64, 127
2, 409966, Note_on_c, 0, 53, 0
2, 410062, Note_on_c, 0, 67, 0
2, 410129, Note_on_c, 0, 63, 0
2, 410161, Note_on_c, 0, 68, 0
2, 410294, Note_on_c, 0, 58, 0
2, 410440, Note_on_c, 0, 71, 68
2, 410457, Note_on_c, 0, 63, 48
2, 410467, Note_on_c, 0, 59, 47
2, 410468, Note_on_c, 0, 68, 71
2, 410516, Control_c, 0, 64, 0
2, 410788, Control_c, 0, 64, 127
2, 410863, Note_on_c, 0, 71, 0
2, 411342, Note_on_c, 0, 68, 0
2, 411434, Note_on_c, 0, 75, 85
2, 411442, Note_on_c, 0, 54, 54
2, 411527, Control_c, 0, 64, 0
2, 411623, Control_c, 0, 64, 127
2, 411811, Note_on_c, 0, 75, 0
2, 411925, Note_on_c, 0, 59, 0
2, 411952, Note_on_c, 0, 63, 0
2, 412091, Note_on_c, 0, 54, 0
2, 412333, Note_on_c, 0, 79, 60
2, 412349, Note_on_c, 0, 71, 60
2, 412384, Note_on_c, 0, 59, 29
2, 412393, Control_c, 0, 64, 0
2, 412397, Note_on_c, 0, 74, 51
2, 412403, Note_on_c, 0, 67, 52
2, 412404, Note_on_c, 0, 62, 52
2, 412427, Note_on_c, 0, 53, 32
2, 412667, Control_c, 0, 64, 127
2, 412960, Note_on_c, 0, 74, 0
2, 412981, Note_on_c, 0, 71, 0
2, 413004, Note_on_c, 0, 59, 0
2, 413005, Note_on_c, 0, 67, 0
2, 413058, Note_on_c, 0, 79, 0
2, 413293, Note_on_c, 0, 59, 26
2, 414182, Note_on_c, 0, 59, 0
2, 414207, Note_on_c, 0, 53, 0
2, 414263, Note_on_c, 0, 84, 82
2, 414289, Note_on_c, 0, 62, 0
2, 414700, Note_on_c, 0, 84, 0
2, 414866, Note_on_c, 0, 82, 49
2, 414881, Note_on_c, 0, 72, 35
2, 414881, Note_on_c, 0, 54, 41
2, 414887, Note_on_c, 0, 77, 43
2, 414913, Note_on_c, 0, 60, 39
2, 414927, Control_c, 0, 64, 0
2, 414930, Note_on_c, 0, 65, 34
2, 415042, Note_on_c, 0, 60, 0
2, 415200, Control_c, 0, 64, 127
2, 415546, Note_on_c, 0, 82, 0
2, 415559, Note_on_c, 0, 77, 0
2, 415563, Note_on_c, 0, 65, 0
2, 415621, Note_on_c, 0, 60, 22
2, 415652, Note_on_c, 0, 72, 0
2, 416225, Note_on_c, 0, 70, 37
2, 416245, Note_on_c, 0, 77, 44
2, 416265, Note_on_c, 0, 72, 34
2, 416269, Note_on_c, 0, 65, 44
2, 416712, Note_on_c, 0, 60, 0
2, 417082, Note_on_c, 0, 65, 0
2, 417185, Note_on_c, 0, 60, 35
2, 417556, Note_on_c, 0, 72, 0
2, 417574, Note_on_c, 0, 70, 0
2, 417602, Note_on_c, 0, 77, 0
2, 417638, Note_on_c, 0, 54, 0
2, 418067, Note_on_c, 0, 54, 47
2, 418295, Note_on_c, 0, 54, 0
2, 418299, Note_on_c, 0, 60, 0
2, 418549, Note_on_c, 0, 68, 54
2, 418564, Note_on_c, 0, 72, 40
2, 418568, Note_on_c, 0, 54, 41
2, 418632, Control_c, 0, 64, 0
2, 418673, Note_on_c, 0, 68, 0
2, 418713, Note_on_c, 0, 72, 0
2, 418720, Note_on_c, 0, 54, 0
2, 419691, Control_c, 0, 64, 127
2, 420946, Note_on_c, 0, 48, 52
2, 420948, Note_on_c, 0, 70, 58
2, 420951, Note_on_c, 0, 62, 62
2, 420959, Note_on_c, 0, 65, 64
2, 420960, Note_on_c, 0, 58, 58
2, 421038, Control_c, 0, 64, 0
2, 421261, Control_c, 0, 64, 127
2, 421439, Note_on_c, 0, 48, 0
2, 421668, Note_on_c, 0, 58, 0
2, 421876, Note_on_c, 0, 65, 0
2, 421924, Note_on_c, 0, 48, 42
2, 421937, Note_on_c, 0, 62, 0
2, 422235, Note_on_c, 0, 70, 0
2, 422368, Note_on_c, 0, 48, 0
2, 422400, Note_on_c, 0, 67, 74
2, 422404, Note_on_c, 0, 72, 61
2, 422408, Note_on_c, 0, 62, 68
2, 422432, Control_c, 0, 64, 0
2, 422434, Note_on_c, 0, 57, 57
2, 422801, Control_c, 0, 64, 127
2, 423373, Note_on_c, 0, 72, 0
2, 423399, Note_on_c, 0, 67, 0
2, 423516, Note_on_c, 0, 62, 0
2, 423771, Note_on_c, 0, 57, 0
2, 423918, Note_on_c, 0, 69, 54
2, 423933, Note_on_c, 0, 64, 48
2, 423946, Note_on_c, 0, 53, 36
2, 423989, Control_c, 0, 64, 0
2, 424213, Control_c, 0, 64, 127
2, 424294, Note_on_c, 0, 53, 0
2, 424358, Note_on_c, 0, 64, 0
2, 424398, Note_on_c, 0, 69, 0
2, 424871, Note_on_c, 0, 69, 62
2, 424893, Note_on_c, 0, 64, 46
2, 424912, Note_on_c, 0, 60, 39
2, 424944, Note_on_c, 0, 69, 0
2, 424957, Note_on_c, 0, 64, 0
2, 424987, Note_on_c, 0, 60, 0
2, 425366, Control_c, 0, 64, 0
2, 425398, Note_on_c, 0, 67, 68
2, 425419, Note_on_c, 0, 56, 51
2, 425426, Note_on_c, 0, 62, 64
2, 425440, Note_on_c, 0, 40, 36
2, 426361, Control_c, 0, 64, 127
2, 427529, Note_on_c, 0, 56, 0
2, 428366, Note_on_c, 0, 62, 0
2, 428517, Note_on_c, 0, 67, 0
2, 428528, Control_c, 0, 64, 0
2, 428662, Note_on_c, 0, 28, 66
2, 428777, Note_on_c, 0, 28, 0
2, 428793, Note_on_c, 0, 40, 0
2, 429679, Note_on_c, 0, 52, 34
2, 429763, Note_on_c, 0, 52, 0
2, 431173, Note_on_c, 0, 64, 49
2, 431183, Note_on_c, 0, 67, 46
2, 432589, Note_on_c, 0, 52, 22
2, 432757, Note_on_c, 0, 52, 0
2, 433412, Note_on_c, 0, 64, 0
2, 433467, Note_on_c, 0, 66, 35
2, 433513, Note_on_c, 0, 62, 43
2, 433529, Note_on_c, 0, 67, 0
2, 433543, Note_on_c, 0, 45, 34
2, 435376, Note_on_c, 0, 62, 0
2, 435390, Note_on_c, 0, 57, 35
2, 436079, Note_on_c, 0, 45, 0
2, 436345, Note_on_c, 0, 45, 57
2, 436349, Note_on_c, 0, 57, 0
2, 436541, Note_on_c, 0, 66, 0
2, 436869, Note_on_c, 0, 66, 80
2, 436876, Note_on_c, 0, 57, 82
2, 436877, Note_on_c, 0, 62, 87
2, 437330, Note_on_c, 0, 33, 48
2, 437655, Note_on_c, 0, 57, 0
2, 437656, Note_on_c, 0, 45, 0
2, 437765, Note_on_c, 0, 62, 0
2, 437818, Note_on_c, 0, 66, 0
2, 437822, Note_on_c, 0, 64, 44
2, 437830, Note_on_c, 0, 45, 45
2, 437837, Note_on_c, 0, 59, 63
2, 437840, Note_on_c, 0, 67, 55
2, 437957, Note_on_c, 0, 59, 0
2, 437982, Note_on_c, 0, 64, 0
2, 438000, Note_on_c, 0, 45, 0
2, 438011, Note_on_c, 0, 67, 0
2, 438777, Note_on_c, 0, 64, 51
2, 438779, Note_on_c, 0, 67, 52
2, 438781, Note_on_c, 0, 59, 50
2, 438790, Note_on_c, 0, 45, 37
2, 440156, Note_on_c, 0, 40, 36
2, 440193, Note_on_c, 0, 45, 0
2, 440336, Note_on_c, 0, 59, 0
2, 440494, Note_on_c, 0, 64, 0
2, 440539, Note_on_c, 0, 67, 0
2, 441188, Note_on_c, 0, 64, 74
2, 441188, Note_on_c, 0, 67, 75
2, 441190, Note_on_c, 0, 59, 73
2, 441196, Note_on_c, 0, 40, 0
2, 441217, Note_on_c, 0, 45, 37
2, 441255, Note_on_c, 0, 59, 0
2, 441294, Note_on_c, 0, 45, 0
2, 441306, Note_on_c, 0, 64, 0
2, 441315, Note_on_c, 0, 67, 0
2, 442134, Note_on_c, 0, 66, 48
2, 442137, Note_on_c, 0, 62, 59
2, 442145, Note_on_c, 0, 45, 38
2, 442148, Note_on_c, 0, 57, 39
2, 442962, Note_on_c, 0, 45, 0
2, 443076, Note_on_c, 0, 40, 49
2, 443260, Note_on_c, 0, 40, 0
2, 443285, Note_on_c, 0, 33, 0
2, 443573, Note_on_c, 0, 43, 93
2, 443981, Note_on_c, 0, 43, 0
2, 444068, Note_on_c, 0, 45, 89
2, 444405, Note_on_c, 0, 45, 0
2, 444481, Note_on_c, 0, 45, 68
2, 444887, Note_on_c, 0, 43, 64
2, 444895, Note_on_c, 0, 45, 0
2, 445291, Note_on_c, 0, 43, 0
2, 445296, Note_on_c, 0, 57, 0
2, 445349, Note_on_c, 0, 62, 0
2, 445376, Note_on_c, 0, 45, 53
2, 445927, Note_on_c, 0, 66, 0
2, 446438, Note_on_c, 0, 67, 56
2, 446464, Note_on_c, 0, 59, 29
2, 446507, Note_on_c, 0, 67, 0
2, 446518, Note_on_c, 0, 59, 0
2, 446976, Note_on_c, 0, 33, 36
2, 447516, Note_on_c, 0, 45, 0
2, 447900, Note_on_c, 0, 67, 69
2, 447904, Note_on_c, 0, 59, 70
2, 447913, Note_on_c, 0, 64, 56
2, 447918, Note_on_c, 0, 45, 42
2, 447956, Note_on_c, 0, 59, 0
2, 447974, Note_on_c, 0, 64, 0
2, 447988, Note_on_c, 0, 45, 0
2, 447990, Note_on_c, 0, 67, 0
2, 448823, Note_on_c, 0, 66, 39
2, 448831, Note_on_c, 0, 62, 49
2, 448841, Note_on_c, 0, 57, 45
2, 448843, Note_on_c, 0, 45, 34
2, 450261, Note_on_c, 0, 57, 0
2, 450306, Control_c, 0, 64, 127
2, 450372, Note_on_c, 0, 62, 0
2, 450452, Note_on_c, 0, 66, 0
2, 450574, Note_on_c, 0, 33, 0
2, 450772, Note_on_c, 0, 71, 67
2, 450786, Note_on_c, 0, 45, 0
2, 450798, Note_on_c, 0, 83, 52
2, 450916, Note_on_c, 0, 83, 0
2, 450919, Note_on_c, 0, 71, 0
2, 451687, Note_on_c, 0, 88, 62
2, 451695, Note_on_c, 0, 76, 55
2, 451829, Note_on_c, 0, 76, 0
2, 451909, Note_on_c, 0, 88, 0
2, 452629, Note_on_c, 0, 95, 49
2, 452640, Note_on_c, 0, 64, 30
2, 452647, Note_on_c, 0, 60, 39
2, 452647, Note_on_c, 0, 59, 33
2, 452655, Note_on_c, 0, 83, 34
2, 452858, Note_on_c, 0, 64, 0
2, 452877, Note_on_c, 0, 60, 0
2, 452909, Note_on_c, 0, 59, 0
2, 452930, Note_on_c, 0, 83, 0
2, 453000, Note_on_c, 0, 95, 0
2, 453624, Note_on_c, 0, 88, 53
2, 453630, Note_on_c, 0, 100, 48
2, 453846, Note_on_c, 0, 100, 0
2, 453921, Note_on_c, 0, 88, 0
2, 455529, Note_on_c, 0, 67, 49
2, 455535, Note_on_c, 0, 52, 46
2, 455545, Note_on_c, 0, 62, 56
2, 455562, Note_on_c, 0, 57, 32
2, 455678, Control_c, 0, 64, 0
2, 455817, Note_on_c, 0, 57, 0
2, 455839, Note_on_c, 0, 62, 0
2, 455873, Note_on_c, 0, 67, 0
2, 455887, Note_on_c, 0, 52, 0
2, 456009, Note_on_c, 0, 50, 27
2, 456081, Note_on_c, 0, 50, 0
2, 456479, Note_on_c, 0, 67, 57
2, 456487, Note_on_c, 0, 62, 56
2, 456490, Note_on_c, 0, 52, 45
2, 456557, Note_on_c, 0, 52, 0
2, 456565, Note_on_c, 0, 62, 0
2, 456595, Note_on_c, 0, 67, 0
2, 457429, Note_on_c, 0, 66, 35
2, 457445, Note_on_c, 0, 62, 39
2, 457448, Note_on_c, 0, 57, 34
2, 457451, Note_on_c, 0, 50, 38
2, 458053, Control_c, 0, 64, 127
2, 458344, Note_on_c, 0, 50, 0
2, 458384, Note_on_c, 0, 45, 38
2, 458462, Note_on_c, 0, 45, 0
2, 458757, Control_c, 0, 64, 0
2, 458909, Note_on_c, 0, 47, 72
2, 459227, Note_on_c, 0, 47, 0
2, 459336, Control_c, 0, 64, 127
2, 459373, Note_on_c, 0, 47, 53
2, 459652, Note_on_c, 0, 47, 0
2, 459909, Note_on_c, 0, 40, 32
2, 460049, Note_on_c, 0, 40, 0
2, 460376, Note_on_c, 0, 40, 48
2, 460518, Note_on_c, 0, 62, 0
2, 460547, Note_on_c, 0, 57, 0
2, 460632, Note_on_c, 0, 66, 0
2, 460697, Control_c, 0, 64, 0
2, 460700, Note_on_c, 0, 40, 0
2, 460817, Note_on_c, 0, 33, 57
2, 461068, Control_c, 0, 64, 127
2, 461516, Control_c, 0, 64, 0
2, 461694, Control_c, 0, 64, 127
2, 462291, Note_on_c, 0, 64, 35
2, 462307, Note_on_c, 0, 60, 40
2, 462311, Note_on_c, 0, 55, 28
2, 462332, Note_on_c, 0, 45, 30
2, 462367, Control_c, 0, 64, 0
2, 462474, Note_on_c, 0, 33, 0
2, 462557, Control_c, 0, 64, 127
2, 462964, Note_on_c, 0, 45, 0
2, 463229, Note_on_c, 0, 45, 49
2, 463352, Note_on_c, 0, 45, 0
2, 463496, Note_on_c, 0, 55, 0
2, 464221, Note_on_c, 0, 52, 41
2, 464298, Note_on_c, 0, 60, 0
2, 464359, Note_on_c, 0, 52, 0
2, 464593, Note_on_c, 0, 64, 0
2, 465176, Note_on_c, 0, 66, 78
2, 465183, Note_on_c, 0, 62, 89
2, 465186, Note_on_c, 0, 57, 83
2, 465301, Control_c, 0, 64, 0
2, 465557, Control_c, 0, 64, 127
2, 466114, Note_on_c, 0, 45, 35
2, 466207, Note_on_c, 0, 45, 0
2, 466625, Note_on_c, 0, 45, 39
2, 466720, Note_on_c, 0, 62, 0
2, 466763, Note_on_c, 0, 57, 0
2, 466924, Note_on_c, 0, 66, 0
2, 467099, Note_on_c, 0, 59, 66
2, 467104, Note_on_c, 0, 67, 63
2, 467112, Note_on_c, 0, 64, 59
2, 467121, Note_on_c, 0, 60, 71
2, 467226, Control_c, 0, 64, 0
2, 467465, Control_c, 0, 64, 127
2, 467590, Note_on_c, 0, 45, 0
2, 468043, Note_on_c, 0, 45, 28
2, 468050, Note_on_c, 0, 64, 0
2, 468095, Note_on_c, 0, 60, 0
2, 468185, Note_on_c, 0, 45, 0
2, 468199, Note_on_c, 0, 59, 0
2, 468255, Note_on_c, 0, 67, 0
2, 468552, Note_on_c, 0, 45, 47
2, 468557, Control_c, 0, 64, 0
2, 469017, Note_on_c, 0, 55, 47
2, 469041, Note_on_c, 0, 60, 41
2, 469073, Note_on_c, 0, 55, 0
2, 469102, Note_on_c, 0, 60, 0
2, 469933, Note_on_c, 0, 64, 44
2, 469933, Note_on_c, 0, 55, 45
2, 469955, Note_on_c, 0, 60, 39
2, 470310, Note_on_c, 0, 45, 0
2, 470342, Control_c, 0, 64, 127
2, 470343, Note_on_c, 0, 60, 0
2, 470428, Note_on_c, 0, 64, 0
2, 470632, Note_on_c, 0, 55, 0
2, 470895, Note_on_c, 0, 62, 66
2, 470900, Note_on_c, 0, 57, 69
2, 470901, Note_on_c, 0, 66, 61
2, 470964, Note_on_c, 0, 45, 39
2, 471034, Control_c, 0, 64, 0
2, 471045, Note_on_c, 0, 45, 0
2, 471194, Control_c, 0, 64, 127
2, 471216, Note_on_c, 0, 66, 0
2, 471603, Note_on_c, 0, 57, 0
2, 471672, Note_on_c, 0, 62, 0
2, 471800, Note_on_c, 0, 66, 61
2, 471805, Note_on_c, 0, 62, 47
2, 471814, Note_on_c, 0, 57, 59
2, 472235, Note_on_c, 0, 62, 0
2, 472269, Note_on_c, 0, 57, 0
2, 472425, Note_on_c, 0, 66, 0
2, 472808, Note_on_c, 0, 59, 70
2, 472811, Note_on_c, 0, 67, 68
2, 472815, Note_on_c, 0, 64, 71
2, 472930, Control_c, 0, 64, 0
2, 473155, Control_c, 0, 64, 127
2, 474593, Note_on_c, 0, 59, 0
2, 475630, Note_on_c, 0, 40, 31
2, 476066, Note_on_c, 0, 64, 0
2, 476103, Note_on_c, 0, 40, 0
2, 476149, Note_on_c, 0, 33, 36
2, 476220, Control_c, 0, 64, 0
2, 476492, Control_c, 0, 64, 127
2, 476861, Control_c, 0, 64, 0
2, 477052, Control_c, 0, 64, 127
2, 477093, Note_on_c, 0, 67, 0
2, 477656, Note_on_c, 0, 64, 34
2, 477659, Note_on_c, 0, 60, 28
2, 477664, Note_on_c, 0, 55, 19
2, 477674, Note_on_c, 0, 45, 26
2, 477821, Control_c, 0, 64, 0
2, 477981, Control_c, 0, 64, 127
2, 478262, Note_on_c, 0, 45, 0
2, 478570, Note_on_c, 0, 45, 29
2, 478712, Note_on_c, 0, 45, 0
2, 478803, Note_on_c, 0, 55, 0
2, 479017, Note_on_c, 0, 60, 0
2, 479272, Note_on_c, 0, 64, 0
2, 479549, Note_on_c, 0, 62, 48
2, 479553, Note_on_c, 0, 66, 29
2, 479557, Note_on_c, 0, 57, 33
2, 479578, Note_on_c, 0, 45, 28
2, 479668, Control_c, 0, 64, 0
2, 479892, Control_c, 0, 64, 127
2, 479898, Note_on_c, 0, 45, 0
2, 481166, Note_on_c, 0, 33, 0
2, 482327, Control_c, 0, 64, 0
2, 482904, Note_on_c, 0, 40, 32
2, 483020, Note_on_c, 0, 40, 0
2, 483146, Note_on_c, 0, 43, 47
2, 483306, Note_on_c, 0, 43, 0
2, 483434, Note_on_c, 0, 45, 38
2, 483546, Note_on_c, 0, 45, 0
2, 483852, Note_on_c, 0, 45, 44
2, 484032, Note_on_c, 0, 45, 0
2, 484309, Note_on_c, 0, 57, 0
2, 484362, Note_on_c, 0, 45, 42
2, 484713, Note_on_c, 0, 62, 0
2, 484782, Note_on_c, 0, 66, 0
2, 484901, Note_on_c, 0, 55, 30
2, 484917, Note_on_c, 0, 64, 32
2, 484949, Note_on_c, 0, 60, 29
2, 485847, Note_on_c, 0, 55, 0
2, 485856, Note_on_c, 0, 60, 0
2, 485877, Note_on_c, 0, 45, 0
2, 485904, Control_c, 0, 64, 127
2, 485958, Note_on_c, 0, 64, 0
2, 486261, Note_on_c, 0, 64, 35
2, 486264, Note_on_c, 0, 45, 28
2, 486290, Note_on_c, 0, 55, 26
2, 486303, Note_on_c, 0, 60, 28
2, 486553, Note_on_c, 0, 45, 0
2, 486752, Note_on_c, 0, 55, 0
2, 487027, Note_on_c, 0, 64, 0
2, 487028, Note_on_c, 0, 60, 0
2, 487200, Note_on_c, 0, 62, 38
2, 487224, Note_on_c, 0, 66, 30
2, 487224, Note_on_c, 0, 57, 36
2, 487275, Note_on_c, 0, 45, 30
2, 487380, Control_c, 0, 64, 0
2, 488022, Control_c, 0, 64, 127
2, 490362, Control_c, 0, 64, 0
2, 490666, Control_c, 0, 64, 127
2, 490975, Note_on_c, 0, 40, 36
2, 490987, Control_c, 0, 64, 0
2, 491066, Note_on_c, 0, 40, 0
2, 491439, Note_on_c, 0, 45, 0
2, 491515, Note_on_c, 0, 33, 56
2, 493491, Note_on_c, 0, 62, 0
2, 493508, Note_on_c, 0, 57, 0
2, 493665, Note_on_c, 0, 66, 0
2, 496258, Note_on_c, 0, 33, 0
2, 496258, End_track
3, 0, Start_track
3, 0, Title_t, "Solo Synth"
3, 0, Control_c, 2, 0, 0
3, 0, Control_c, 2, 7, 97
3, 0, Control_c, 2, 91, 37
3, 0, Control_c, 2, 93, 26
3, 1, Program_c, 2, 79
3, 61440, Note_on_c, 2, 78, 70
3, 63863, Note_on_c, 2, 78, 0
3, 63903, Note_on_c, 2, 79, 89
3, 64296, Note_on_c, 2, 79, 0
3, 64377, Note_on_c, 2, 81, 84
3, 64753, Note_on_c, 2, 81, 0
3, 64921, Note_on_c, 2, 83, 106
3, 64947, Note_on_c, 2, 81, 77
3, 65004, Note_on_c, 2, 81, 0
3, 65179, Note_on_c, 2, 83, 0
3, 65847, Note_on_c, 2, 81, 109
3, 66020, Note_on_c, 2, 81, 0
3, 66738, Note_on_c, 2, 82, 100
3, 66812, Note_on_c, 2, 83, 104
3, 66828, Note_on_c, 2, 82, 0
3, 67677, Note_on_c, 2, 83, 0
3, 67737, Note_on_c, 2, 84, 71
3, 67988, Note_on_c, 2, 82, 47
3, 68148, Note_on_c, 2, 84, 0
3, 68162, Note_on_c, 2, 82, 0
3, 68240, Note_on_c, 2, 76, 72
3, 68748, Note_on_c, 2, 72, 75
3, 68785, Note_on_c, 2, 76, 0
3, 69165, Note_on_c, 2, 72, 0
3, 69282, Note_on_c, 2, 78, 62
3, 69360, Note_on_c, 2, 79, 84
3, 69496, Note_on_c, 2, 79, 0
3, 70095, Note_on_c, 2, 78, 0
3, 70122, Note_on_c, 2, 79, 63
3, 70691, Note_on_c, 2, 81, 96
3, 70781, Note_on_c, 2, 79, 0
3, 71565, Note_on_c, 2, 83, 100
3, 71608, Note_on_c, 2, 81, 0
3, 72078, Note_on_c, 2, 83, 0
3, 72525, Note_on_c, 2, 83, 102
3, 73542, Note_on_c, 2, 81, 84
3, 73543, Note_on_c, 2, 83, 0
3, 73915, Note_on_c, 2, 81, 0
3, 73996, Note_on_c, 2, 83, 106
3, 74422, Note_on_c, 2, 83, 0
3, 74483, Note_on_c, 2, 81, 71
3, 74768, Note_on_c, 2, 81, 0
3, 74955, Note_on_c, 2, 86, 109
3, 75336, Note_on_c, 2, 86, 0
3, 75462, Note_on_c, 2, 87, 94
3, 75628, Note_on_c, 2, 87, 0
3, 75938, Note_on_c, 2, 79, 73
3, 76324, Note_on_c, 2, 79, 0
3, 76433, Note_on_c, 2, 75, 58
3, 76832, Note_on_c, 2, 75, 0
3, 76900, Note_on_c, 2, 81, 90
3, 79369, Note_on_c, 2, 82, 80
3, 79389, Note_on_c, 2, 81, 0
3, 79706, Note_on_c, 2, 82, 0
3, 79780, Note_on_c, 2, 84, 63
3, 80221, Note_on_c, 2, 84, 0
3, 80273, Note_on_c, 2, 86, 105
3, 81636, Note_on_c, 2, 86, 0
3, 81664, Note_on_c, 2, 84, 57
3, 82133, Note_on_c, 2, 86, 101
3, 82229, Note_on_c, 2, 84, 0
3, 82454, Note_on_c, 2, 86, 0
3, 82579, Note_on_c, 2, 87, 102
3, 82900, Note_on_c, 2, 87, 0
3, 83108, Note_on_c, 2, 79, 82
3, 83601, Note_on_c, 2, 79, 0
3, 83647, Note_on_c, 2, 75, 58
3, 83756, Note_on_c, 2, 75, 0
3, 84435, Note_on_c, 2, 81, 100
3, 85311, Note_on_c, 2, 81, 0
3, 85402, Note_on_c, 2, 82, 69
3, 85841, Note_on_c, 2, 82, 0
3, 85943, Note_on_c, 2, 84, 88
3, 86819, Note_on_c, 2, 84, 0
3, 86873, Note_on_c, 2, 86, 61
3, 87481, Note_on_c, 2, 86, 0
3, 87878, Note_on_c, 2, 86, 87
3, 89804, Note_on_c, 2, 86, 0
3, 89822, Note_on_c, 2, 84, 78
3, 90048, Note_on_c, 2, 84, 0
3, 90312, Note_on_c, 2, 86, 100
3, 91603, Note_on_c, 2, 86, 0
3, 91694, Note_on_c, 2, 84, 60
3, 92249, Note_on_c, 2, 77, 72
3, 92343, Note_on_c, 2, 84, 0
3, 95678, Note_on_c, 2, 77, 0
3, 96514, Note_on_c, 2, 76, 106
3, 96906, Note_on_c, 2, 76, 0
3, 97009, Note_on_c, 2, 77, 86
3, 97468, Note_on_c, 2, 77, 0
3, 97531, Note_on_c, 2, 84, 103
3, 99109, Note_on_c, 2, 83, 84
3, 99195, Note_on_c, 2, 84, 0
3, 99298, Note_on_c, 2, 83, 0
3, 99345, Note_on_c, 2, 82, 81
3, 99712, Note_on_c, 2, 82, 0
3, 99841, Note_on_c, 2, 75, 57
3, 101760, Note_on_c, 2, 75, 0
3, 102370, Note_on_c, 2, 74, 74
3, 103107, Note_on_c, 2, 74, 0
3, 103147, Note_on_c, 2, 75, 63
3, 103640, Note_on_c, 2, 75, 0
3, 103672, Note_on_c, 2, 82, 95
3, 105975, Note_on_c, 2, 82, 0
3, 106082, Note_on_c, 2, 80, 86
3, 106713, Note_on_c, 2, 80, 0
3, 106787, Note_on_c, 2, 77, 81
3, 107391, Note_on_c, 2, 77, 0
3, 107518, Note_on_c, 2, 73, 63
3, 110478, Note_on_c, 2, 73, 0
3, 112275, Note_on_c, 2, 81, 100
3, 113713, Note_on_c, 2, 81, 0
3, 113768, Note_on_c, 2, 79, 87
3, 115149, Note_on_c, 2, 79, 0
3, 115240, Note_on_c, 2, 72, 63
3, 116076, Note_on_c, 2, 72, 0
3, 116664, Note_on_c, 2, 72, 80
3, 117140, Note_on_c, 2, 72, 0
3, 117641, Note_on_c, 2, 72, 67
3, 117831, Note_on_c, 2, 72, 0
3, 118150, Note_on_c, 2, 79, 86
3, 120345, Note_on_c, 2, 79, 0
3, 120569, Note_on_c, 2, 76, 54
3, 120787, Note_on_c, 2, 76, 0
3, 121001, Note_on_c, 2, 83, 104
3, 121439, Note_on_c, 2, 83, 0
3, 121470, Note_on_c, 2, 84, 87
3, 121837, Note_on_c, 2, 84, 0
3, 121935, Note_on_c, 2, 76, 69
3, 122339, Note_on_c, 2, 76, 0
3, 122447, Note_on_c, 2, 72, 53
3, 122779, Note_on_c, 2, 72, 0
3, 122956, Note_on_c, 2, 78, 55
3, 125238, Note_on_c, 2, 78, 0
3, 125294, Note_on_c, 2, 79, 56
3, 125916, Note_on_c, 2, 79, 0
3, 125973, Note_on_c, 2, 81, 104
3, 126653, Note_on_c, 2, 81, 0
3, 126678, Note_on_c, 2, 82, 78
3, 126733, Note_on_c, 2, 82, 0
3, 126747, Note_on_c, 2, 83, 86
3, 127352, Note_on_c, 2, 83, 0
3, 127458, Note_on_c, 2, 83, 81
3, 128225, Note_on_c, 2, 83, 0
3, 128237, Note_on_c, 2, 81, 75
3, 128393, Note_on_c, 2, 81, 0
3, 128713, Note_on_c, 2, 83, 83
3, 129103, Note_on_c, 2, 83, 0
3, 129173, Note_on_c, 2, 84, 80
3, 129516, Note_on_c, 2, 84, 0
3, 129649, Note_on_c, 2, 76, 82
3, 130092, Note_on_c, 2, 76, 0
3, 130186, Note_on_c, 2, 72, 62
3, 130517, Note_on_c, 2, 72, 0
3, 130711, Note_on_c, 2, 78, 79
3, 131172, Note_on_c, 2, 79, 102
3, 131246, Note_on_c, 2, 78, 0
3, 132101, Note_on_c, 2, 81, 98
3, 132103, Note_on_c, 2, 79, 0
3, 132963, Note_on_c, 2, 81, 0
3, 133040, Note_on_c, 2, 83, 86
3, 133746, Note_on_c, 2, 83, 0
3, 134054, Note_on_c, 2, 82, 54
3, 134069, Note_on_c, 2, 83, 98
3, 134138, Note_on_c, 2, 82, 0
3, 135051, Note_on_c, 2, 81, 84
3, 135079, Note_on_c, 2, 83, 0
3, 135416, Note_on_c, 2, 81, 0
3, 135483, Note_on_c, 2, 83, 104
3, 135942, Note_on_c, 2, 83, 0
3, 135984, Note_on_c, 2, 81, 80
3, 136267, Note_on_c, 2, 81, 0
3, 136393, Note_on_c, 2, 86, 104
3, 136773, Note_on_c, 2, 86, 0
3, 136894, Note_on_c, 2, 87, 98
3, 137089, Note_on_c, 2, 87, 0
3, 137407, Note_on_c, 2, 79, 86
3, 137748, Note_on_c, 2, 79, 0
3, 137849, Note_on_c, 2, 75, 55
3, 138129, Note_on_c, 2, 75, 0
3, 138830, Note_on_c, 2, 81, 93
3, 139666, Note_on_c, 2, 81, 0
3, 139768, Note_on_c, 2, 80, 49
3, 139943, Note_on_c, 2, 80, 0
3, 140669, Note_on_c, 2, 81, 59
3, 141004, Note_on_c, 2, 81, 0
3, 141131, Note_on_c, 2, 82, 80
3, 141446, Note_on_c, 2, 82, 0
3, 141507, Note_on_c, 2, 84, 82
3, 141739, Note_on_c, 2, 84, 0
3, 141848, Note_on_c, 2, 86, 98
3, 142159, Note_on_c, 2, 86, 0
3, 142286, Note_on_c, 2, 86, 84
3, 142891, Note_on_c, 2, 86, 0
3, 142977, Note_on_c, 2, 84, 50
3, 143454, Note_on_c, 2, 84, 0
3, 143526, Note_on_c, 2, 86, 105
3, 143553, Note_on_c, 2, 84, 76
3, 143657, Note_on_c, 2, 84, 0
3, 144204, Note_on_c, 2, 86, 0
3, 144437, Note_on_c, 2, 87, 80
3, 144603, Note_on_c, 2, 87, 0
3, 145024, Note_on_c, 2, 79, 41
3, 145333, Note_on_c, 2, 79, 0
3, 145461, Note_on_c, 2, 75, 43
3, 145712, Note_on_c, 2, 75, 0
3, 145880, Note_on_c, 2, 81, 86
3, 146815, Note_on_c, 2, 81, 0
3, 146904, Note_on_c, 2, 82, 66
3, 147275, Note_on_c, 2, 82, 0
3, 147409, Note_on_c, 2, 84, 83
3, 148268, Note_on_c, 2, 84, 0
3, 148393, Note_on_c, 2, 86, 92
3, 148970, Note_on_c, 2, 86, 0
3, 149384, Note_on_c, 2, 86, 88
3, 151231, Note_on_c, 2, 86, 0
3, 151262, Note_on_c, 2, 84, 55
3, 151677, Note_on_c, 2, 84, 0
3, 151718, Note_on_c, 2, 86, 102
3, 153014, Note_on_c, 2, 86, 0
3, 153105, Note_on_c, 2, 84, 72
3, 153600, Note_on_c, 2, 84, 0
3, 153628, Note_on_c, 2, 77, 60
3, 156763, Note_on_c, 2, 77, 0
3, 156951, Note_on_c, 2, 76, 53
3, 157060, Note_on_c, 2, 76, 0
3, 157176, Note_on_c, 2, 77, 65
3, 157342, Note_on_c, 2, 77, 0
3, 157419, Note_on_c, 2, 84, 95
3, 157803, Note_on_c, 2, 84, 0
3, 157911, Note_on_c, 2, 84, 79
3, 158184, Note_on_c, 2, 84, 0
3, 158392, Note_on_c, 2, 84, 79
3, 158772, Note_on_c, 2, 84, 0
3, 158890, Note_on_c, 2, 82, 73
3, 159184, Note_on_c, 2, 82, 0
3, 159386, Note_on_c, 2, 82, 70
3, 159800, Note_on_c, 2, 82, 0
3, 159856, Note_on_c, 2, 75, 55
3, 160322, Note_on_c, 2, 75, 0
3, 160442, Note_on_c, 2, 75, 61
3, 162752, Note_on_c, 2, 75, 0
3, 162829, Note_on_c, 2, 74, 46
3, 163230, Note_on_c, 2, 74, 0
3, 163651, Note_on_c, 2, 74, 105
3, 164046, Note_on_c, 2, 74, 0
3, 164139, Note_on_c, 2, 75, 91
3, 164592, Note_on_c, 2, 75, 0
3, 165152, Note_on_c, 2, 82, 91
3, 166422, Note_on_c, 2, 82, 0
3, 166562, Note_on_c, 2, 81, 65
3, 166670, Note_on_c, 2, 81, 0
3, 167081, Note_on_c, 2, 80, 91
3, 167990, Note_on_c, 2, 80, 0
3, 168018, Note_on_c, 2, 77, 66
3, 168487, Note_on_c, 2, 77, 0
3, 168530, Note_on_c, 2, 73, 89
3, 171372, Note_on_c, 2, 73, 0
3, 171432, Note_on_c, 2, 72, 55
3, 171762, Note_on_c, 2, 72, 0
3, 171872, Note_on_c, 2, 73, 59
3, 172272, Note_on_c, 2, 73, 0
3, 173747, Note_on_c, 2, 80, 56
3, 173783, Note_on_c, 2, 81, 100
3, 173830, Note_on_c, 2, 80, 0
3, 175195, Note_on_c, 2, 81, 0
3, 175237, Note_on_c, 2, 79, 77
3, 176435, Note_on_c, 2, 79, 0
3, 176649, Note_on_c, 2, 72, 62
3, 177674, Note_on_c, 2, 72, 0
3, 178102, Note_on_c, 2, 72, 90
3, 178454, Note_on_c, 2, 72, 0
3, 179086, Note_on_c, 2, 72, 103
3, 179456, Note_on_c, 2, 72, 0
3, 179993, Note_on_c, 2, 79, 114
3, 180345, Note_on_c, 2, 79, 0
3, 180526, Note_on_c, 2, 79, 98
3, 181832, Note_on_c, 2, 79, 0
3, 181958, Note_on_c, 2, 76, 68
3, 182152, Note_on_c, 2, 76, 0
3, 182486, Note_on_c, 2, 83, 106
3, 182932, Note_on_c, 2, 83, 0
3, 182961, Note_on_c, 2, 84, 72
3, 183206, Note_on_c, 2, 84, 0
3, 183425, Note_on_c, 2, 88, 66
3, 183524, Note_on_c, 2, 88, 0
3, 183904, Note_on_c, 2, 91, 83
3, 184010, Note_on_c, 2, 91, 0
3, 184397, Note_on_c, 2, 95, 116
3, 184886, Note_on_c, 2, 98, 95
3, 184889, Note_on_c, 2, 95, 0
3, 185264, Note_on_c, 2, 98, 0
3, 185353, Note_on_c, 2, 95, 62
3, 186318, Note_on_c, 2, 95, 0
3, 186332, Note_on_c, 2, 91, 58
3, 186760, Note_on_c, 2, 91, 0
3, 186802, Note_on_c, 2, 95, 81
3, 187254, Note_on_c, 2, 95, 0
3, 187301, Note_on_c, 2, 88, 66
3, 188925, Note_on_c, 2, 88, 0
3, 189136, Note_on_c, 2, 90, 103
3, 189369, Note_on_c, 2, 91, 82
3, 189396, Note_on_c, 2, 90, 0
3, 189558, Note_on_c, 2, 91, 0
3, 189620, Note_on_c, 2, 93, 95
3, 189838, Note_on_c, 2, 93, 0
3, 190097, Note_on_c, 2, 91, 77
3, 190292, Note_on_c, 2, 91, 0
3, 190611, Note_on_c, 2, 90, 60
3, 190947, Note_on_c, 2, 90, 0
3, 191128, Note_on_c, 2, 88, 54
3, 191507, Note_on_c, 2, 88, 0
3, 191568, Note_on_c, 2, 83, 64
3, 191936, Note_on_c, 2, 83, 0
3, 192073, Note_on_c, 2, 86, 64
3, 192471, Note_on_c, 2, 86, 0
3, 192520, Note_on_c, 2, 83, 57
3, 192914, Note_on_c, 2, 83, 0
3, 192986, Note_on_c, 2, 84, 60
3, 193438, Note_on_c, 2, 84, 0
3, 193499, Note_on_c, 2, 81, 62
3, 194356, Note_on_c, 2, 81, 0
3, 194433, Note_on_c, 2, 79, 59
3, 194854, Note_on_c, 2, 79, 0
3, 194906, Note_on_c, 2, 76, 61
3, 197701, Note_on_c, 2, 76, 0
3, 197805, Note_on_c, 2, 75, 45
3, 198014, Note_on_c, 2, 75, 0
3, 198032, Note_on_c, 2, 72, 75
3, 198199, Note_on_c, 2, 72, 0
3, 198270, Note_on_c, 2, 74, 95
3, 198521, Note_on_c, 2, 75, 98
3, 198531, Note_on_c, 2, 74, 0
3, 198666, Note_on_c, 2, 75, 0
3, 198754, Note_on_c, 2, 77, 71
3, 198786, Note_on_c, 2, 79, 66
3, 198858, Note_on_c, 2, 77, 0
3, 198898, Note_on_c, 2, 79, 0
3, 198980, Note_on_c, 2, 82, 83
3, 199153, Note_on_c, 2, 82, 0
3, 199159, Note_on_c, 2, 83, 84
3, 199378, Note_on_c, 2, 83, 0
3, 199460, Note_on_c, 2, 86, 111
3, 199698, Note_on_c, 2, 84, 79
3, 199746, Note_on_c, 2, 86, 0
3, 199925, Note_on_c, 2, 84, 0
3, 199971, Note_on_c, 2, 79, 75
3, 200109, Note_on_c, 2, 79, 0
3, 200156, Note_on_c, 2, 77, 68
3, 200306, Note_on_c, 2, 77, 0
3, 200434, Note_on_c, 2, 75, 53
3, 200602, Note_on_c, 2, 75, 0
3, 200696, Note_on_c, 2, 74, 53
3, 200866, Note_on_c, 2, 74, 0
3, 200957, Note_on_c, 2, 77, 75
3, 201131, Note_on_c, 2, 77, 0
3, 201178, Note_on_c, 2, 75, 55
3, 201426, Note_on_c, 2, 75, 0
3, 201495, Note_on_c, 2, 67, 66
3, 201755, Note_on_c, 2, 67, 0
3, 201995, Note_on_c, 2, 67, 65
3, 202180, Note_on_c, 2, 67, 0
3, 202356, Note_on_c, 2, 67, 64
3, 202510, Note_on_c, 2, 67, 0
3, 202684, Note_on_c, 2, 67, 68
3, 203023, Note_on_c, 2, 67, 0
3, 203087, Note_on_c, 2, 69, 76
3, 203262, Note_on_c, 2, 69, 0
3, 203399, Note_on_c, 2, 69, 88
3, 203680, Note_on_c, 2, 69, 0
3, 203808, Note_on_c, 2, 70, 88
3, 203987, Note_on_c, 2, 70, 0
3, 204085, Note_on_c, 2, 70, 73
3, 204549, Note_on_c, 2, 70, 0
3, 204615, Note_on_c, 2, 72, 68
3, 204788, Note_on_c, 2, 72, 0
3, 204903, Note_on_c, 2, 72, 64
3, 205115, Note_on_c, 2, 72, 0
3, 205255, Note_on_c, 2, 74, 91
3, 205442, Note_on_c, 2, 74, 0
3, 205554, Note_on_c, 2, 74, 92
3, 205807, Note_on_c, 2, 74, 0
3, 205996, Note_on_c, 2, 75, 84
3, 206181, Note_on_c, 2, 75, 0
3, 206293, Note_on_c, 2, 75, 83
3, 206536, Note_on_c, 2, 75, 0
3, 206684, Note_on_c, 2, 77, 73
3, 206828, Note_on_c, 2, 77, 0
3, 206948, Note_on_c, 2, 77, 60
3, 207305, Note_on_c, 2, 77, 0
3, 207384, Note_on_c, 2, 74, 70
3, 208249, Note_on_c, 2, 74, 0
3, 208270, Note_on_c, 2, 75, 68
3, 208785, Note_on_c, 2, 75, 0
3, 208835, Note_on_c, 2, 72, 54
3, 210175, Note_on_c, 2, 72, 0
3, 210263, Note_on_c, 2, 75, 67
3, 210503, Note_on_c, 2, 75, 0
3, 210543, Note_on_c, 2, 72, 64
3, 210674, Note_on_c, 2, 72, 0
3, 210712, Note_on_c, 2, 73, 64
3, 210958, Note_on_c, 2, 73, 0
3, 210974, Note_on_c, 2, 74, 79
3, 211158, Note_on_c, 2, 74, 0
3, 211198, Note_on_c, 2, 75, 74
3, 211370, Note_on_c, 2, 75, 0
3, 211474, Note_on_c, 2, 76, 70
3, 211670, Note_on_c, 2, 76, 0
3, 211725, Note_on_c, 2, 77, 70
3, 211914, Note_on_c, 2, 77, 0
3, 213109, Note_on_c, 2, 80, 100
3, 213312, Note_on_c, 2, 80, 0
3, 213373, Note_on_c, 2, 77, 75
3, 213451, Note_on_c, 2, 77, 0
3, 213601, Note_on_c, 2, 78, 70
3, 213828, Note_on_c, 2, 78, 0
3, 213836, Note_on_c, 2, 80, 76
3, 213990, Note_on_c, 2, 80, 0
3, 214078, Note_on_c, 2, 81, 75
3, 214247, Note_on_c, 2, 81, 0
3, 214317, Note_on_c, 2, 82, 86
3, 214442, Note_on_c, 2, 82, 0
3, 214565, Note_on_c, 2, 84, 77
3, 214743, Note_on_c, 2, 84, 0
3, 214811, Note_on_c, 2, 85, 88
3, 214949, Note_on_c, 2, 85, 0
3, 215045, Note_on_c, 2, 86, 98
3, 215435, Note_on_c, 2, 86, 0
3, 215510, Note_on_c, 2, 81, 63
3, 215675, Note_on_c, 2, 81, 0
3, 215762, Note_on_c, 2, 84, 71
3, 215954, Note_on_c, 2, 84, 0
3, 216006, Note_on_c, 2, 82, 62
3, 216415, Note_on_c, 2, 82, 0
3, 216460, Note_on_c, 2, 77, 65
3, 216536, Note_on_c, 2, 77, 0
3, 216728, Note_on_c, 2, 82, 101
3, 216944, Note_on_c, 2, 82, 0
3, 216991, Note_on_c, 2, 81, 82
3, 217359, Note_on_c, 2, 81, 0
3, 217473, Note_on_c, 2, 77, 80
3, 217839, Note_on_c, 2, 77, 0
3, 217984, Note_on_c, 2, 74, 66
3, 218325, Note_on_c, 2, 74, 0
3, 218397, Note_on_c, 2, 70, 63
3, 218739, Note_on_c, 2, 70, 0
3, 218800, Note_on_c, 2, 69, 56
3, 219020, Note_on_c, 2, 69, 0
3, 219103, Note_on_c, 2, 72, 82
3, 219279, Note_on_c, 2, 72, 0
3, 219362, Note_on_c, 2, 69, 72
3, 219487, Note_on_c, 2, 69, 0
3, 219608, Note_on_c, 2, 70, 63
3, 219783, Note_on_c, 2, 70, 0
3, 219812, Note_on_c, 2, 72, 72
3, 220054, Note_on_c, 2, 72, 0
3, 220081, Note_on_c, 2, 73, 61
3, 220271, Note_on_c, 2, 73, 0
3, 220304, Note_on_c, 2, 75, 73
3, 220469, Note_on_c, 2, 75, 0
3, 220585, Note_on_c, 2, 76, 73
3, 220746, Note_on_c, 2, 76, 0
3, 220833, Note_on_c, 2, 78, 73
3, 220999, Note_on_c, 2, 78, 0
3, 221078, Note_on_c, 2, 79, 80
3, 221339, Note_on_c, 2, 80, 84
3, 221345, Note_on_c, 2, 79, 0
3, 221467, Note_on_c, 2, 80, 0
3, 221941, Note_on_c, 2, 82, 64
3, 221994, Note_on_c, 2, 82, 0
3, 222207, Note_on_c, 2, 82, 104
3, 222387, Note_on_c, 2, 82, 0
3, 222526, Note_on_c, 2, 83, 104
3, 222723, Note_on_c, 2, 83, 0
3, 222845, Note_on_c, 2, 86, 109
3, 223230, Note_on_c, 2, 86, 0
3, 223331, Note_on_c, 2, 83, 58
3, 223332, Note_on_c, 2, 84, 54
3, 223427, Note_on_c, 2, 84, 0
3, 223545, Note_on_c, 2, 83, 0
3, 223577, Note_on_c, 2, 84, 68
3, 224046, Note_on_c, 2, 84, 0
3, 224245, Note_on_c, 2, 79, 70
3, 224672, Note_on_c, 2, 79, 0
3, 224719, Note_on_c, 2, 75, 52
3, 225209, Note_on_c, 2, 75, 0
3, 225236, Note_on_c, 2, 72, 57
3, 225524, Note_on_c, 2, 72, 0
3, 225754, Note_on_c, 2, 72, 51
3, 226133, Note_on_c, 2, 72, 0
3, 227149, Note_on_c, 2, 94, 102
3, 227435, Note_on_c, 2, 90, 84
3, 227469, Note_on_c, 2, 94, 0
3, 227619, Note_on_c, 2, 90, 0
3, 227666, Note_on_c, 2, 89, 61
3, 227882, Note_on_c, 2, 89, 0
3, 227911, Note_on_c, 2, 92, 86
3, 228108, Note_on_c, 2, 87, 61
3, 228137, Note_on_c, 2, 92, 0
3, 228439, Note_on_c, 2, 86, 68
3, 228441, Note_on_c, 2, 87, 0
3, 228552, Note_on_c, 2, 86, 0
3, 228596, Note_on_c, 2, 90, 83
3, 228831, Note_on_c, 2, 90, 0
3, 228847, Note_on_c, 2, 85, 57
3, 229008, Note_on_c, 2, 85, 0
3, 229038, Note_on_c, 2, 84, 53
3, 229214, Note_on_c, 2, 84, 0
3, 229279, Note_on_c, 2, 89, 92
3, 229556, Note_on_c, 2, 89, 0
3, 229846, Note_on_c, 2, 81, 74
3, 229904, Note_on_c, 2, 81, 0
3, 229970, Note_on_c, 2, 87, 93
3, 230206, Note_on_c, 2, 87, 0
3, 230396, Note_on_c, 2, 85, 63
3, 230753, Note_on_c, 2, 85, 0
3, 230870, Note_on_c, 2, 84, 68
3, 231284, Note_on_c, 2, 84, 0
3, 231354, Note_on_c, 2, 78, 61
3, 231688, Note_on_c, 2, 78, 0
3, 231886, Note_on_c, 2, 77, 67
3, 232757, Note_on_c, 2, 77, 0
3, 232835, Note_on_c, 2, 73, 58
3, 233249, Note_on_c, 2, 73, 0
3, 233294, Note_on_c, 2, 72, 64
3, 234574, Note_on_c, 2, 72, 0
3, 234689, Note_on_c, 2, 72, 73
3, 234995, Note_on_c, 2, 72, 0
3, 235239, Note_on_c, 2, 72, 48
3, 235433, Note_on_c, 2, 72, 0
3, 235654, Note_on_c, 2, 72, 77
3, 236009, Note_on_c, 2, 72, 0
3, 236134, Note_on_c, 2, 84, 88
3, 236967, Note_on_c, 2, 84, 0
3, 237086, Note_on_c, 2, 72, 51
3, 237339, Note_on_c, 2, 72, 0
3, 237545, Note_on_c, 2, 72, 69
3, 237809, Note_on_c, 2, 72, 0
3, 238034, Note_on_c, 2, 72, 52
3, 238306, Note_on_c, 2, 72, 0
3, 238555, Note_on_c, 2, 72, 65
3, 238793, Note_on_c, 2, 72, 0
3, 239004, Note_on_c, 2, 84, 100
3, 240362, Note_on_c, 2, 84, 0
3, 240436, Note_on_c, 2, 72, 75
3, 240916, Note_on_c, 2, 72, 0
3, 241048, Note_on_c, 2, 70, 35
3, 241415, Note_on_c, 2, 70, 0
3, 241441, Note_on_c, 2, 71, 90
3, 242352, Note_on_c, 2, 71, 0
3, 242405, Note_on_c, 2, 75, 102
3, 242818, Note_on_c, 2, 75, 0
3, 242898, Note_on_c, 2, 76, 79
3, 243292, Note_on_c, 2, 76, 0
3, 243351, Note_on_c, 2, 80, 82
3, 243715, Note_on_c, 2, 80, 0
3, 243845, Note_on_c, 2, 83, 43
3, 244198, Note_on_c, 2, 83, 0
3, 244276, Note_on_c, 2, 86, 93
3, 244565, Note_on_c, 2, 86, 0
3, 244751, Note_on_c, 2, 89, 109
3, 245179, Note_on_c, 2, 89, 0
3, 245217, Note_on_c, 2, 86, 85
3, 245346, Note_on_c, 2, 86, 0
3, 246315, Note_on_c, 2, 98, 107
3, 246517, Note_on_c, 2, 98, 0
3, 246560, Note_on_c, 2, 95, 79
3, 246643, Note_on_c, 2, 95, 0
3, 246808, Note_on_c, 2, 98, 112
3, 247162, Note_on_c, 2, 98, 0
3, 247260, Note_on_c, 2, 95, 80
3, 247459, Note_on_c, 2, 95, 0
3, 247560, Note_on_c, 2, 91, 65
3, 247690, Note_on_c, 2, 91, 0
3, 247778, Note_on_c, 2, 95, 89
3, 248133, Note_on_c, 2, 95, 0
3, 248220, Note_on_c, 2, 91, 72
3, 248418, Note_on_c, 2, 91, 0
3, 248527, Note_on_c, 2, 88, 56
3, 248645, Note_on_c, 2, 88, 0
3, 248736, Note_on_c, 2, 91, 71
3, 249109, Note_on_c, 2, 91, 0
3, 249189, Note_on_c, 2, 88, 68
3, 249629, Note_on_c, 2, 88, 0
3, 249635, Note_on_c, 2, 83, 66
3, 251446, Note_on_c, 2, 83, 0
3, 251593, Note_on_c, 2, 86, 99
3, 251836, Note_on_c, 2, 86, 0
3, 251840, Note_on_c, 2, 85, 68
3, 251969, Note_on_c, 2, 84, 67
3, 251993, Note_on_c, 2, 85, 0
3, 252098, Note_on_c, 2, 83, 67
3, 252134, Note_on_c, 2, 84, 0
3, 252376, Note_on_c, 2, 83, 0
3, 252582, Note_on_c, 2, 80, 73
3, 253003, Note_on_c, 2, 80, 0
3, 253046, Note_on_c, 2, 83, 75
3, 253497, Note_on_c, 2, 83, 0
3, 253569, Note_on_c, 2, 81, 68
3, 253949, Note_on_c, 2, 81, 0
3, 254060, Note_on_c, 2, 76, 52
3, 254186, Note_on_c, 2, 76, 0
3, 254538, Note_on_c, 2, 76, 56
3, 254680, Note_on_c, 2, 76, 0
3, 256863, Note_on_c, 2, 76, 79
3, 257042, Note_on_c, 2, 76, 0
3, 257312, Note_on_c, 2, 76, 74
3, 258974, Note_on_c, 2, 76, 0
3, 259823, Note_on_c, 2, 77, 98
3, 259995, Note_on_c, 2, 77, 0
3, 260074, Note_on_c, 2, 74, 74
3, 260223, Note_on_c, 2, 74, 0
3, 260295, Note_on_c, 2, 75, 68
3, 260438, Note_on_c, 2, 75, 0
3, 260534, Note_on_c, 2, 79, 88
3, 260678, Note_on_c, 2, 79, 0
3, 260761, Note_on_c, 2, 82, 84
3, 260982, Note_on_c, 2, 82, 0
3, 260991, Note_on_c, 2, 83, 86
3, 261162, Note_on_c, 2, 83, 0
3, 261222, Note_on_c, 2, 86, 112
3, 261489, Note_on_c, 2, 86, 0
3, 261505, Note_on_c, 2, 83, 80
3, 261627, Note_on_c, 2, 83, 0
3, 261715, Note_on_c, 2, 84, 60
3, 261893, Note_on_c, 2, 84, 0
3, 261931, Note_on_c, 2, 79, 82
3, 262119, Note_on_c, 2, 79, 0
3, 262196, Note_on_c, 2, 75, 56
3, 262309, Note_on_c, 2, 75, 0
3, 262429, Note_on_c, 2, 74, 66
3, 262602, Note_on_c, 2, 74, 0
3, 262640, Note_on_c, 2, 77, 95
3, 262966, Note_on_c, 2, 77, 0
3, 263065, Note_on_c, 2, 75, 74
3, 263473, Note_on_c, 2, 75, 0
3, 263552, Note_on_c, 2, 67, 68
3, 263894, Note_on_c, 2, 67, 0
3, 264016, Note_on_c, 2, 74, 79
3, 264926, Note_on_c, 2, 74, 0
3, 264982, Note_on_c, 2, 72, 68
3, 267723, Note_on_c, 2, 72, 0
3, 268337, Note_on_c, 2, 71, 82
3, 268455, Note_on_c, 2, 71, 0
3, 268583, Note_on_c, 2, 72, 72
3, 268815, Note_on_c, 2, 72, 0
3, 268829, Note_on_c, 2, 71, 69
3, 269726, Note_on_c, 2, 71, 0
3, 269796, Note_on_c, 2, 70, 71
3, 271195, Note_on_c, 2, 70, 0
3, 271201, Note_on_c, 2, 67, 65
3, 272092, Note_on_c, 2, 67, 0
3, 272188, Note_on_c, 2, 70, 77
3, 272959, Note_on_c, 2, 67, 70
3, 272979, Note_on_c, 2, 70, 0
3, 273108, Note_on_c, 2, 67, 0
3, 273191, Note_on_c, 2, 68, 61
3, 273396, Note_on_c, 2, 68, 0
3, 273446, Note_on_c, 2, 69, 82
3, 273649, Note_on_c, 2, 69, 0
3, 273689, Note_on_c, 2, 70, 79
3, 273911, Note_on_c, 2, 70, 0
3, 273939, Note_on_c, 2, 71, 88
3, 274101, Note_on_c, 2, 71, 0
3, 274153, Note_on_c, 2, 75, 70
3, 274389, Note_on_c, 2, 75, 0
3, 274396, Note_on_c, 2, 78, 69
3, 274544, Note_on_c, 2, 78, 0
3, 274603, Note_on_c, 2, 83, 102
3, 274973, Note_on_c, 2, 83, 0
3, 275085, Note_on_c, 2, 83, 96
3, 275507, Note_on_c, 2, 83, 0
3, 275560, Note_on_c, 2, 78, 80
3, 275991, Note_on_c, 2, 78, 0
3, 276069, Note_on_c, 2, 75, 59
3, 276475, Note_on_c, 2, 75, 0
3, 276549, Note_on_c, 2, 81, 105
3, 276956, Note_on_c, 2, 81, 0
3, 277058, Note_on_c, 2, 81, 95
3, 277507, Note_on_c, 2, 81, 0
3, 277560, Note_on_c, 2, 77, 84
3, 277941, Note_on_c, 2, 77, 0
3, 278001, Note_on_c, 2, 74, 78
3, 278401, Note_on_c, 2, 74, 0
3, 278490, Note_on_c, 2, 69, 75
3, 279379, Note_on_c, 2, 69, 0
3, 279467, Note_on_c, 2, 72, 72
3, 280065, Note_on_c, 2, 72, 0
3, 280145, Note_on_c, 2, 69, 72
3, 280268, Note_on_c, 2, 69, 0
3, 280345, Note_on_c, 2, 72, 85
3, 280534, Note_on_c, 2, 72, 0
3, 280587, Note_on_c, 2, 69, 76
3, 280741, Note_on_c, 2, 69, 0
3, 280853, Note_on_c, 2, 70, 53
3, 280953, Note_on_c, 2, 70, 0
3, 281013, Note_on_c, 2, 72, 79
3, 281175, Note_on_c, 2, 72, 0
3, 281238, Note_on_c, 2, 73, 78
3, 281439, Note_on_c, 2, 73, 0
3, 281491, Note_on_c, 2, 75, 73
3, 281582, Note_on_c, 2, 75, 0
3, 281695, Note_on_c, 2, 76, 75
3, 281865, Note_on_c, 2, 76, 0
3, 281945, Note_on_c, 2, 81, 84
3, 282178, Note_on_c, 2, 81, 0
3, 282219, Note_on_c, 2, 85, 75
3, 282352, Note_on_c, 2, 85, 0
3, 282450, Note_on_c, 2, 88, 102
3, 282683, Note_on_c, 2, 93, 71
3, 282685, Note_on_c, 2, 88, 0
3, 282919, Note_on_c, 2, 97, 98
3, 283014, Note_on_c, 2, 93, 0
3, 283093, Note_on_c, 2, 97, 0
3, 283144, Note_on_c, 2, 100, 108
3, 283602, Note_on_c, 2, 100, 0
3, 283642, Note_on_c, 2, 99, 102
3, 284120, Note_on_c, 2, 96, 84
3, 284127, Note_on_c, 2, 99, 0
3, 284713, Note_on_c, 2, 91, 56
3, 284748, Note_on_c, 2, 96, 0
3, 284995, Note_on_c, 2, 91, 0
3, 285003, Note_on_c, 2, 94, 84
3, 286590, Note_on_c, 2, 89, 58
3, 286691, Note_on_c, 2, 94, 0
3, 287085, Note_on_c, 2, 92, 80
3, 287121, Note_on_c, 2, 89, 0
3, 288030, Note_on_c, 2, 87, 60
3, 288035, Note_on_c, 2, 92, 0
3, 288534, Note_on_c, 2, 91, 81
3, 288579, Note_on_c, 2, 87, 0
3, 288958, Note_on_c, 2, 91, 0
3, 289024, Note_on_c, 2, 89, 65
3, 289513, Note_on_c, 2, 89, 0
3, 289521, Note_on_c, 2, 83, 74
3, 290433, Note_on_c, 2, 82, 79
3, 290473, Note_on_c, 2, 83, 0
3, 291313, Note_on_c, 2, 82, 0
3, 291350, Note_on_c, 2, 80, 74
3, 291796, Note_on_c, 2, 80, 0
3, 291866, Note_on_c, 2, 78, 70
3, 292640, Note_on_c, 2, 78, 0
3, 292697, Note_on_c, 2, 77, 77
3, 293374, Note_on_c, 2, 77, 0
3, 293389, Note_on_c, 2, 75, 69
3, 294281, Note_on_c, 2, 75, 0
3, 294302, Note_on_c, 2, 73, 79
3, 295250, Note_on_c, 2, 73, 0
3, 295310, Note_on_c, 2, 72, 84
3, 295485, Note_on_c, 2, 72, 0
3, 296194, Note_on_c, 2, 72, 70
3, 296659, Note_on_c, 2, 84, 71
3, 298067, Note_on_c, 2, 72, 0
3, 298425, Note_on_c, 2, 84, 0
3, 298482, Note_on_c, 2, 72, 72
3, 298548, Note_on_c, 2, 72, 0
3, 299046, Note_on_c, 2, 72, 56
3, 299222, Note_on_c, 2, 72, 0
3, 299463, Note_on_c, 2, 84, 71
3, 300834, Note_on_c, 2, 84, 0
3, 300982, Note_on_c, 2, 72, 68
3, 301139, Note_on_c, 2, 72, 0
3, 302002, Note_on_c, 2, 72, 54
3, 302170, Note_on_c, 2, 72, 0
3, 302474, Note_on_c, 2, 88, 89
3, 303748, Note_on_c, 2, 88, 0
3, 303817, Note_on_c, 2, 86, 103
3, 304295, Note_on_c, 2, 86, 0
3, 304346, Note_on_c, 2, 85, 72
3, 304699, Note_on_c, 2, 85, 0
3, 304791, Note_on_c, 2, 84, 88
3, 305209, Note_on_c, 2, 84, 0
3, 305244, Note_on_c, 2, 83, 74
3, 305683, Note_on_c, 2, 83, 0
3, 305742, Note_on_c, 2, 81, 89
3, 306178, Note_on_c, 2, 81, 0
3, 306233, Note_on_c, 2, 80, 67
3, 306649, Note_on_c, 2, 80, 0
3, 306716, Note_on_c, 2, 83, 98
3, 307192, Note_on_c, 2, 81, 85
3, 307291, Note_on_c, 2, 83, 0
3, 307379, Note_on_c, 2, 81, 0
3, 307463, Note_on_c, 2, 76, 76
3, 307602, Note_on_c, 2, 76, 0
3, 307677, Note_on_c, 2, 74, 84
3, 307925, Note_on_c, 2, 74, 0
3, 307967, Note_on_c, 2, 72, 53
3, 308224, Note_on_c, 2, 72, 0
3, 308227, Note_on_c, 2, 71, 90
3, 311049, Note_on_c, 2, 71, 0
3, 312982, Note_on_c, 2, 87, 101
3, 313223, Note_on_c, 2, 87, 0
3, 313245, Note_on_c, 2, 88, 88
3, 313415, Note_on_c, 2, 88, 0
3, 313479, Note_on_c, 2, 93, 108
3, 313659, Note_on_c, 2, 93, 0
3, 313769, Note_on_c, 2, 87, 101
3, 313907, Note_on_c, 2, 87, 0
3, 313939, Note_on_c, 2, 86, 72
3, 314173, Note_on_c, 2, 86, 0
3, 314249, Note_on_c, 2, 83, 80
3, 314335, Note_on_c, 2, 83, 0
3, 314435, Note_on_c, 2, 86, 97
3, 314667, Note_on_c, 2, 86, 0
3, 314720, Note_on_c, 2, 83, 78
3, 314784, Note_on_c, 2, 83, 0
3, 314920, Note_on_c, 2, 84, 69
3, 315317, Note_on_c, 2, 84, 0
3, 315368, Note_on_c, 2, 81, 67
3, 315526, Note_on_c, 2, 81, 0
3, 315853, Note_on_c, 2, 81, 64
3, 316036, Note_on_c, 2, 81, 0
3, 316357, Note_on_c, 2, 81, 79
3, 316531, Note_on_c, 2, 81, 0
3, 316854, Note_on_c, 2, 81, 82
3, 317022, Note_on_c, 2, 81, 0
3, 317318, Note_on_c, 2, 81, 78
3, 317504, Note_on_c, 2, 81, 0
3, 317616, Note_on_c, 2, 80, 59
3, 317720, Note_on_c, 2, 80, 0
3, 317806, Note_on_c, 2, 81, 68
3, 318042, Note_on_c, 2, 81, 0
3, 318115, Note_on_c, 2, 88, 76
3, 320231, Note_on_c, 2, 88, 0
3, 320271, Note_on_c, 2, 83, 73
3, 320428, Note_on_c, 2, 83, 0
3, 320530, Note_on_c, 2, 84, 63
3, 320724, Note_on_c, 2, 84, 0
3, 320778, Note_on_c, 2, 86, 77
3, 320949, Note_on_c, 2, 86, 0
3, 321022, Note_on_c, 2, 87, 81
3, 321131, Note_on_c, 2, 87, 0
3, 321222, Note_on_c, 2, 89, 93
3, 321467, Note_on_c, 2, 94, 96
3, 321473, Note_on_c, 2, 89, 0
3, 321699, Note_on_c, 2, 99, 96
3, 321784, Note_on_c, 2, 94, 0
3, 321891, Note_on_c, 2, 99, 0
3, 321937, Note_on_c, 2, 101, 100
3, 322155, Note_on_c, 2, 98, 92
3, 322207, Note_on_c, 2, 101, 0
3, 323201, Note_on_c, 2, 93, 61
3, 323205, Note_on_c, 2, 98, 0
3, 324823, Note_on_c, 2, 99, 89
3, 324841, Note_on_c, 2, 93, 0
3, 325942, Note_on_c, 2, 92, 72
3, 325953, Note_on_c, 2, 99, 0
3, 326801, Note_on_c, 2, 98, 98
3, 326813, Note_on_c, 2, 92, 0
3, 327309, Note_on_c, 2, 91, 79
3, 327348, Note_on_c, 2, 98, 0
3, 328005, Note_on_c, 2, 91, 0
3, 328125, Note_on_c, 2, 96, 105
3, 328347, Note_on_c, 2, 96, 0
3, 328427, Note_on_c, 2, 94, 91
3, 328672, Note_on_c, 2, 90, 80
3, 328712, Note_on_c, 2, 94, 0
3, 328736, Note_on_c, 2, 90, 0
3, 328736, Note_on_c, 2, 89, 48
3, 328853, Note_on_c, 2, 89, 0
3, 328907, Note_on_c, 2, 93, 94
3, 328943, Note_on_c, 2, 93, 0
3, 329693, Note_on_c, 2, 86, 90
3, 329821, Note_on_c, 2, 86, 0
3, 329967, Note_on_c, 2, 89, 106
3, 330194, Note_on_c, 2, 87, 83
3, 330211, Note_on_c, 2, 89, 0
3, 330440, Note_on_c, 2, 87, 0
3, 330947, Note_on_c, 2, 86, 84
3, 331126, Note_on_c, 2, 86, 0
3, 331174, Note_on_c, 2, 84, 59
3, 331650, Note_on_c, 2, 84, 0
3, 331662, Note_on_c, 2, 77, 66
3, 331866, Note_on_c, 2, 77, 0
3, 333650, Note_on_c, 2, 77, 95
3, 333834, Note_on_c, 2, 77, 0
3, 333880, Note_on_c, 2, 78, 81
3, 334115, Note_on_c, 2, 78, 0
3, 334119, Note_on_c, 2, 80, 63
3, 334292, Note_on_c, 2, 80, 0
3, 334328, Note_on_c, 2, 81, 90
3, 334530, Note_on_c, 2, 81, 0
3, 334552, Note_on_c, 2, 83, 87
3, 334790, Note_on_c, 2, 83, 0
3, 334815, Note_on_c, 2, 84, 85
3, 334935, Note_on_c, 2, 84, 0
3, 335046, Note_on_c, 2, 86, 81
3, 335234, Note_on_c, 2, 86, 0
3, 335283, Note_on_c, 2, 87, 82
3, 335424, Note_on_c, 2, 87, 0
3, 336453, Note_on_c, 2, 87, 114
3, 336634, Note_on_c, 2, 87, 0
3, 336727, Note_on_c, 2, 89, 88
3, 336931, Note_on_c, 2, 87, 91
3, 336944, Note_on_c, 2, 89, 0
3, 337125, Note_on_c, 2, 87, 0
3, 337405, Note_on_c, 2, 86, 102
3, 337651, Note_on_c, 2, 87, 75
3, 337654, Note_on_c, 2, 86, 0
3, 337873, Note_on_c, 2, 87, 0
3, 337971, Note_on_c, 2, 86, 59
3, 338174, Note_on_c, 2, 86, 0
3, 338188, Note_on_c, 2, 84, 62
3, 338356, Note_on_c, 2, 84, 0
3, 338478, Note_on_c, 2, 81, 46
3, 338767, Note_on_c, 2, 81, 0
3, 338906, Note_on_c, 2, 81, 78
3, 339210, Note_on_c, 2, 81, 0
3, 339349, Note_on_c, 2, 77, 53
3, 339607, Note_on_c, 2, 77, 0
3, 339847, Note_on_c, 2, 77, 75
3, 340183, Note_on_c, 2, 77, 0
3, 340311, Note_on_c, 2, 74, 59
3, 340626, Note_on_c, 2, 74, 0
3, 340813, Note_on_c, 2, 74, 64
3, 341098, Note_on_c, 2, 74, 0
3, 341247, Note_on_c, 2, 84, 98
3, 341469, Note_on_c, 2, 84, 0
3, 341743, Note_on_c, 2, 84, 104
3, 342129, Note_on_c, 2, 84, 0
3, 342240, Note_on_c, 2, 80, 54
3, 342408, Note_on_c, 2, 80, 0
3, 342753, Note_on_c, 2, 80, 63
3, 343131, Note_on_c, 2, 80, 0
3, 343214, Note_on_c, 2, 77, 69
3, 343515, Note_on_c, 2, 77, 0
3, 343674, Note_on_c, 2, 75, 68
3, 343848, Note_on_c, 2, 75, 0
3, 343939, Note_on_c, 2, 76, 70
3, 344061, Note_on_c, 2, 76, 0
3, 344174, Note_on_c, 2, 81, 71
3, 344382, Note_on_c, 2, 85, 83
3, 344429, Note_on_c, 2, 81, 0
3, 344521, Note_on_c, 2, 85, 0
3, 344638, Note_on_c, 2, 88, 106
3, 344856, Note_on_c, 2, 88, 0
3, 344876, Note_on_c, 2, 93, 96
3, 345115, Note_on_c, 2, 97, 98
3, 345176, Note_on_c, 2, 93, 0
3, 345316, Note_on_c, 2, 97, 0
3, 345371, Note_on_c, 2, 100, 105
3, 345619, Note_on_c, 2, 100, 0
3, 345621, Note_on_c, 2, 99, 97
3, 346073, Note_on_c, 2, 99, 0
3, 346099, Note_on_c, 2, 96, 81
3, 346521, Note_on_c, 2, 96, 0
3, 346637, Note_on_c, 2, 91, 58
3, 347060, Note_on_c, 2, 94, 98
3, 347090, Note_on_c, 2, 91, 0
3, 347492, Note_on_c, 2, 93, 79
3, 347527, Note_on_c, 2, 94, 0
3, 347592, Note_on_c, 2, 93, 0
3, 347601, Note_on_c, 2, 92, 66
3, 347722, Note_on_c, 2, 91, 56
3, 347729, Note_on_c, 2, 92, 0
3, 348151, Note_on_c, 2, 87, 84
3, 348158, Note_on_c, 2, 91, 0
3, 348618, Note_on_c, 2, 87, 0
3, 348645, Note_on_c, 2, 84, 44
3, 349024, Note_on_c, 2, 91, 92
3, 349321, Note_on_c, 2, 84, 0
3, 349456, Note_on_c, 2, 91, 0
3, 349509, Note_on_c, 2, 89, 71
3, 349950, Note_on_c, 2, 83, 69
3, 349972, Note_on_c, 2, 89, 0
3, 350736, Note_on_c, 2, 83, 0
3, 350918, Note_on_c, 2, 94, 101
3, 351201, Note_on_c, 2, 90, 67
3, 351231, Note_on_c, 2, 94, 0
3, 351404, Note_on_c, 2, 90, 0
3, 351444, Note_on_c, 2, 89, 64
3, 351633, Note_on_c, 2, 89, 0
3, 351699, Note_on_c, 2, 92, 83
3, 351953, Note_on_c, 2, 87, 59
3, 352030, Note_on_c, 2, 92, 0
3, 352218, Note_on_c, 2, 87, 0
3, 352234, Note_on_c, 2, 86, 66
3, 352311, Note_on_c, 2, 86, 0
3, 352391, Note_on_c, 2, 90, 92
3, 352663, Note_on_c, 2, 85, 59
3, 352695, Note_on_c, 2, 90, 0
3, 352864, Note_on_c, 2, 85, 0
3, 352894, Note_on_c, 2, 84, 52
3, 353057, Note_on_c, 2, 84, 0
3, 353136, Note_on_c, 2, 89, 95
3, 353406, Note_on_c, 2, 84, 70
3, 353435, Note_on_c, 2, 89, 0
3, 353623, Note_on_c, 2, 84, 0
3, 353700, Note_on_c, 2, 78, 79
3, 353970, Note_on_c, 2, 78, 0
3, 354333, Note_on_c, 2, 78, 73
3, 354722, Note_on_c, 2, 78, 0
3, 354805, Note_on_c, 2, 77, 70
3, 355021, Note_on_c, 2, 77, 0
3, 355091, Note_on_c, 2, 78, 60
3, 356164, Note_on_c, 2, 78, 0
3, 356196, Note_on_c, 2, 77, 70
3, 356562, Note_on_c, 2, 77, 0
3, 356674, Note_on_c, 2, 74, 72
3, 356794, Note_on_c, 2, 74, 0
3, 357166, Note_on_c, 2, 76, 100
3, 357216, Note_on_c, 2, 77, 94
3, 357287, Note_on_c, 2, 76, 0
3, 357538, Note_on_c, 2, 77, 0
3, 357687, Note_on_c, 2, 74, 69
3, 357939, Note_on_c, 2, 74, 0
3, 358111, Note_on_c, 2, 76, 74
3, 359037, Note_on_c, 2, 76, 0
3, 359077, Note_on_c, 2, 73, 81
3, 359515, Note_on_c, 2, 73, 0
3, 359615, Note_on_c, 2, 72, 61
3, 359937, Note_on_c, 2, 72, 0
3, 360014, Note_on_c, 2, 70, 70
3, 360446, Note_on_c, 2, 70, 0
3, 360521, Note_on_c, 2, 68, 59
3, 360873, Note_on_c, 2, 68, 0
3, 361002, Note_on_c, 2, 69, 66
3, 361728, Note_on_c, 2, 69, 0
3, 361968, Note_on_c, 2, 60, 83
3, 363147, Note_on_c, 2, 60, 0
3, 363177, Note_on_c, 2, 62, 80
3, 363296, Note_on_c, 2, 62, 0
3, 363371, Note_on_c, 2, 64, 78
3, 364091, Note_on_c, 2, 64, 0
3, 364123, Note_on_c, 2, 65, 84
3, 364214, Note_on_c, 2, 65, 0
3, 364374, Note_on_c, 2, 67, 60
3, 365095, Note_on_c, 2, 68, 86
3, 365108, Note_on_c, 2, 67, 0
3, 365267, Note_on_c, 2, 68, 0
3, 365344, Note_on_c, 2, 70, 73
3, 365789, Note_on_c, 2, 70, 0
3, 365798, Note_on_c, 2, 71, 90
3, 366074, Note_on_c, 2, 71, 0
3, 366289, Note_on_c, 2, 73, 95
3, 366645, Note_on_c, 2, 73, 0
3, 366784, Note_on_c, 2, 74, 90
3, 367095, Note_on_c, 2, 74, 0
3, 367247, Note_on_c, 2, 75, 79
3, 367389, Note_on_c, 2, 75, 0
3, 367761, Note_on_c, 2, 76, 57
3, 367855, Note_on_c, 2, 76, 0
3, 368014, Note_on_c, 2, 79, 82
3, 368156, Note_on_c, 2, 79, 0
3, 368205, Note_on_c, 2, 83, 85
3, 368451, Note_on_c, 2, 83, 0
3, 368511, Note_on_c, 2, 86, 102
3, 368664, Note_on_c, 2, 86, 0
3, 368669, Note_on_c, 2, 83, 68
3, 369064, Note_on_c, 2, 83, 0
3, 369170, Note_on_c, 2, 83, 77
3, 369417, Note_on_c, 2, 83, 0
3, 369457, Note_on_c, 2, 86, 75
3, 369592, Note_on_c, 2, 86, 0
3, 369659, Note_on_c, 2, 83, 61
3, 370000, Note_on_c, 2, 83, 0
3, 370153, Note_on_c, 2, 83, 78
3, 370378, Note_on_c, 2, 83, 0
3, 370416, Note_on_c, 2, 86, 75
3, 370573, Note_on_c, 2, 86, 0
3, 370633, Note_on_c, 2, 83, 65
3, 370880, Note_on_c, 2, 83, 0
3, 371115, Note_on_c, 2, 83, 75
3, 371327, Note_on_c, 2, 83, 0
3, 371368, Note_on_c, 2, 86, 76
3, 371542, Note_on_c, 2, 86, 0
3, 371615, Note_on_c, 2, 83, 72
3, 371836, Note_on_c, 2, 83, 0
3, 372094, Note_on_c, 2, 83, 86
3, 372328, Note_on_c, 2, 83, 0
3, 372375, Note_on_c, 2, 88, 92
3, 372573, Note_on_c, 2, 88, 0
3, 372581, Note_on_c, 2, 83, 65
3, 372882, Note_on_c, 2, 83, 0
3, 373039, Note_on_c, 2, 83, 74
3, 373251, Note_on_c, 2, 83, 0
3, 373305, Note_on_c, 2, 91, 92
3, 373498, Note_on_c, 2, 91, 0
3, 373567, Note_on_c, 2, 83, 62
3, 373828, Note_on_c, 2, 83, 0
3, 373954, Note_on_c, 2, 83, 82
3, 374170, Note_on_c, 2, 83, 0
3, 374398, Note_on_c, 2, 83, 71
3, 374626, Note_on_c, 2, 83, 0
3, 374858, Note_on_c, 2, 83, 76
3, 375068, Note_on_c, 2, 83, 0
3, 375146, Note_on_c, 2, 81, 59
3, 375266, Note_on_c, 2, 81, 0
3, 375331, Note_on_c, 2, 83, 67
3, 375559, Note_on_c, 2, 83, 0
3, 375593, Note_on_c, 2, 88, 98
3, 375856, Note_on_c, 2, 81, 69
3, 376006, Note_on_c, 2, 88, 0
3, 376028, Note_on_c, 2, 81, 0
3, 376834, Note_on_c, 2, 71, 57
3, 376932, Note_on_c, 2, 71, 0
3, 378709, Note_on_c, 2, 83, 113
3, 378920, Note_on_c, 2, 83, 0
3, 378971, Note_on_c, 2, 82, 80
3, 379115, Note_on_c, 2, 82, 0
3, 379159, Note_on_c, 2, 83, 67
3, 379400, Note_on_c, 2, 83, 0
3, 379425, Note_on_c, 2, 88, 96
3, 379662, Note_on_c, 2, 86, 71
3, 379677, Note_on_c, 2, 88, 0
3, 379977, Note_on_c, 2, 86, 0
3, 380143, Note_on_c, 2, 84, 60
3, 380605, Note_on_c, 2, 84, 0
3, 380615, Note_on_c, 2, 83, 82
3, 381117, Note_on_c, 2, 83, 0
3, 381133, Note_on_c, 2, 81, 74
3, 381505, Note_on_c, 2, 81, 0
3, 381585, Note_on_c, 2, 79, 72
3, 382562, Note_on_c, 2, 79, 0
3, 382565, Note_on_c, 2, 77, 80
3, 383179, Note_on_c, 2, 77, 0
3, 383238, Note_on_c, 2, 74, 90
3, 383381, Note_on_c, 2, 74, 0
3, 383447, Note_on_c, 2, 75, 89
3, 383853, Note_on_c, 2, 75, 0
3, 383959, Note_on_c, 2, 74, 86
3, 384207, Note_on_c, 2, 74, 0
3, 384243, Note_on_c, 2, 71, 70
3, 384302, Note_on_c, 2, 71, 0
3, 384446, Note_on_c, 2, 72, 60
3, 384697, Note_on_c, 2, 74, 93
3, 384739, Note_on_c, 2, 72, 0
3, 384883, Note_on_c, 2, 74, 0
3, 384947, Note_on_c, 2, 75, 75
3, 385215, Note_on_c, 2, 75, 0
3, 385239, Note_on_c, 2, 72, 58
3, 385317, Note_on_c, 2, 72, 0
3, 385422, Note_on_c, 2, 74, 62
3, 385672, Note_on_c, 2, 75, 95
3, 385708, Note_on_c, 2, 74, 0
3, 385788, Note_on_c, 2, 75, 0
3, 385890, Note_on_c, 2, 77, 99
3, 386105, Note_on_c, 2, 77, 0
3, 386175, Note_on_c, 2, 74, 82
3, 386311, Note_on_c, 2, 74, 0
3, 386455, Note_on_c, 2, 75, 54
3, 386632, Note_on_c, 2, 75, 0
3, 386720, Note_on_c, 2, 79, 84
3, 386896, Note_on_c, 2, 79, 0
3, 386936, Note_on_c, 2, 82, 82
3, 387188, Note_on_c, 2, 82, 0
3, 387195, Note_on_c, 2, 83, 100
3, 387336, Note_on_c, 2, 83, 0
3, 387387, Note_on_c, 2, 86, 116
3, 387665, Note_on_c, 2, 86, 0
3, 387687, Note_on_c, 2, 83, 79
3, 387757, Note_on_c, 2, 83, 0
3, 387871, Note_on_c, 2, 84, 72
3, 388085, Note_on_c, 2, 84, 0
3, 388109, Note_on_c, 2, 79, 92
3, 388333, Note_on_c, 2, 79, 0
3, 388847, Note_on_c, 2, 77, 102
3, 389750, Note_on_c, 2, 75, 71
3, 389784, Note_on_c, 2, 77, 0
3, 390020, Note_on_c, 2, 75, 0
3, 390032, Note_on_c, 2, 74, 77
3, 390175, Note_on_c, 2, 74, 0
3, 390239, Note_on_c, 2, 75, 83
3, 390603, Note_on_c, 2, 75, 0
3, 390705, Note_on_c, 2, 74, 87
3, 390970, Note_on_c, 2, 74, 0
3, 391019, Note_on_c, 2, 72, 61
3, 391131, Note_on_c, 2, 72, 0
3, 391233, Note_on_c, 2, 74, 77
3, 392138, Note_on_c, 2, 74, 0
3, 392186, Note_on_c, 2, 72, 65
3, 393116, Note_on_c, 2, 72, 0
3, 393156, Note_on_c, 2, 67, 72
3, 393994, Note_on_c, 2, 67, 0
3, 394136, Note_on_c, 2, 69, 97
3, 394823, Note_on_c, 2, 69, 0
3, 394873, Note_on_c, 2, 66, 72
3, 395049, Note_on_c, 2, 66, 0
3, 395122, Note_on_c, 2, 65, 71
3, 395726, Note_on_c, 2, 65, 0
3, 395833, Note_on_c, 2, 75, 94
3, 396129, Note_on_c, 2, 75, 0
3, 396267, Note_on_c, 2, 72, 81
3, 396395, Note_on_c, 2, 72, 0
3, 396514, Note_on_c, 2, 69, 66
3, 396873, Note_on_c, 2, 69, 0
3, 397037, Note_on_c, 2, 81, 91
3, 397225, Note_on_c, 2, 81, 0
3, 397401, Note_on_c, 2, 78, 69
3, 397684, Note_on_c, 2, 78, 0
3, 397773, Note_on_c, 2, 75, 70
3, 397889, Note_on_c, 2, 75, 0
3, 398140, Note_on_c, 2, 84, 90
3, 398361, Note_on_c, 2, 84, 0
3, 398430, Note_on_c, 2, 81, 79
3, 398755, Note_on_c, 2, 81, 0
3, 398816, Note_on_c, 2, 78, 66
3, 399091, Note_on_c, 2, 78, 0
3, 399130, Note_on_c, 2, 77, 64
3, 399204, Note_on_c, 2, 77, 0
3, 399337, Note_on_c, 2, 82, 96
3, 399749, Note_on_c, 2, 82, 0
3, 399826, Note_on_c, 2, 81, 91
3, 400241, Note_on_c, 2, 81, 0
3, 400319, Note_on_c, 2, 77, 79
3, 400623, Note_on_c, 2, 77, 0
3, 400771, Note_on_c, 2, 74, 60
3, 401109, Note_on_c, 2, 74, 0
3, 401278, Note_on_c, 2, 74, 69
3, 403134, Note_on_c, 2, 74, 0
3, 403196, Note_on_c, 2, 75, 82
3, 403318, Note_on_c, 2, 75, 0
3, 403467, Note_on_c, 2, 75, 76
3, 403609, Note_on_c, 2, 75, 0
3, 403702, Note_on_c, 2, 76, 56
3, 404025, Note_on_c, 2, 76, 0
3, 404151, Note_on_c, 2, 73, 58
3, 404641, Note_on_c, 2, 75, 71
3, 404655, Note_on_c, 2, 73, 0
3, 405063, Note_on_c, 2, 75, 0
3, 405088, Note_on_c, 2, 72, 88
3, 406025, Note_on_c, 2, 72, 0
3, 406133, Note_on_c, 2, 70, 76
3, 406834, Note_on_c, 2, 67, 81
3, 406858, Note_on_c, 2, 70, 0
3, 406949, Note_on_c, 2, 67, 0
3, 407093, Note_on_c, 2, 67, 79
3, 407464, Note_on_c, 2, 67, 0
3, 407532, Note_on_c, 2, 68, 75
3, 407738, Note_on_c, 2, 68, 0
3, 407800, Note_on_c, 2, 68, 61
3, 408144, Note_on_c, 2, 68, 0
3, 408234, Note_on_c, 2, 70, 87
3, 408371, Note_on_c, 2, 70, 0
3, 408482, Note_on_c, 2, 70, 81
3, 408630, Note_on_c, 2, 70, 0
3, 408642, Note_on_c, 2, 72, 71
3, 408642, Note_on_c, 2, 72, 0
3, 409483, Note_on_c, 2, 87, 93
3, 409617, Note_on_c, 2, 87, 0
3, 409977, Note_on_c, 2, 91, 106
3, 410173, Note_on_c, 2, 91, 0
3, 410440, Note_on_c, 2, 84, 57
3, 410596, Note_on_c, 2, 84, 0
3, 410949, Note_on_c, 2, 87, 78
3, 411160, Note_on_c, 2, 87, 0
3, 411440, Note_on_c, 2, 80, 55
3, 411667, Note_on_c, 2, 80, 0
3, 411917, Note_on_c, 2, 83, 90
3, 412136, Note_on_c, 2, 83, 0
3, 412375, Note_on_c, 2, 78, 67
3, 412631, Note_on_c, 2, 78, 0
3, 412864, Note_on_c, 2, 77, 55
3, 413140, Note_on_c, 2, 77, 0
3, 413329, Note_on_c, 2, 82, 81
3, 413546, Note_on_c, 2, 82, 0
3, 413857, Note_on_c, 2, 75, 49
3, 414097, Note_on_c, 2, 75, 0
3, 414212, Note_on_c, 2, 73, 62
3, 414543, Note_on_c, 2, 73, 0
3, 414726, Note_on_c, 2, 72, 60
3, 415455, Note_on_c, 2, 72, 0
3, 415479, Note_on_c, 2, 73, 81
3, 415613, Note_on_c, 2, 73, 0
3, 415753, Note_on_c, 2, 73, 66
3, 416403, Note_on_c, 2, 73, 0
3, 416451, Note_on_c, 2, 75, 75
3, 416589, Note_on_c, 2, 75, 0
3, 416687, Note_on_c, 2, 75, 72
3, 417886, Note_on_c, 2, 75, 0
3, 418071, Note_on_c, 2, 77, 91
3, 418246, Note_on_c, 2, 77, 0
3, 418337, Note_on_c, 2, 75, 54
3, 418563, Note_on_c, 2, 75, 0
3, 418592, Note_on_c, 2, 76, 81
3, 418810, Note_on_c, 2, 76, 0
3, 419046, Note_on_c, 2, 73, 85
3, 419392, Note_on_c, 2, 73, 0
3, 419552, Note_on_c, 2, 72, 69
3, 420405, Note_on_c, 2, 72, 0
3, 420504, Note_on_c, 2, 70, 73
3, 421344, Note_on_c, 2, 70, 0
3, 421433, Note_on_c, 2, 67, 80
3, 421649, Note_on_c, 2, 67, 0
3, 421695, Note_on_c, 2, 68, 77
3, 421887, Note_on_c, 2, 68, 0
3, 421921, Note_on_c, 2, 69, 90
3, 422976, Note_on_c, 2, 69, 0
3, 423838, Note_on_c, 2, 91, 98
3, 424097, Note_on_c, 2, 91, 0
3, 424100, Note_on_c, 2, 89, 74
3, 424281, Note_on_c, 2, 89, 0
3, 424332, Note_on_c, 2, 80, 56
3, 424587, Note_on_c, 2, 80, 0
3, 424649, Note_on_c, 2, 81, 77
3, 424840, Note_on_c, 2, 81, 0
3, 425083, Note_on_c, 2, 86, 95
3, 425314, Note_on_c, 2, 86, 0
3, 425539, Note_on_c, 2, 84, 81
3, 425728, Note_on_c, 2, 84, 0
3, 426039, Note_on_c, 2, 76, 71
3, 426114, Note_on_c, 2, 76, 0
3, 426271, Note_on_c, 2, 77, 75
3, 426540, Note_on_c, 2, 77, 0
3, 426734, Note_on_c, 2, 83, 113
3, 427003, Note_on_c, 2, 83, 0
3, 427187, Note_on_c, 2, 82, 93
3, 427394, Note_on_c, 2, 82, 0
3, 427480, Note_on_c, 2, 80, 61
3, 427610, Note_on_c, 2, 80, 0
3, 427664, Note_on_c, 2, 77, 62
3, 427812, Note_on_c, 2, 77, 0
3, 427953, Note_on_c, 2, 74, 78
3, 428121, Note_on_c, 2, 74, 0
3, 428618, Note_on_c, 2, 77, 101
3, 428831, Note_on_c, 2, 77, 0
3, 429093, Note_on_c, 2, 68, 75
3, 429326, Note_on_c, 2, 68, 0
3, 429556, Note_on_c, 2, 67, 72
3, 429883, Note_on_c, 2, 67, 0
3, 430072, Note_on_c, 2, 69, 75
3, 430637, Note_on_c, 2, 69, 0
3, 430637, End_track
4, 0, Start_track
4, 0, Title_t, "Bass"
4, 0, Program_c, 1, 32
4, 0, Control_c, 1, 7, 81
4, 0, Control_c, 1, 10, 65
4, 0, Control_c, 1, 91, 91
4, 0, Control_c, 1, 93, 75
4, 0, Note_on_c, 1, 45, 104
4, 1409, Note_on_c, 1, 45, 0
4, 1440, Note_on_c, 1, 36, 119
4, 3281, Note_on_c, 1, 36, 0
4, 3360, Note_on_c, 1, 38, 120
4, 5252, Note_on_c, 1, 38, 0
4, 5280, Note_on_c, 1, 40, 119
4, 6116, Note_on_c, 1, 40, 0
4, 6240, Note_on_c, 1, 40, 119
4, 6720, Note_on_c, 1, 48, 127
4, 6736, Note_on_c, 1, 40, 0
4, 7168, Note_on_c, 1, 48, 0
4, 7200, Note_on_c, 1, 48, 72
4, 7200, Note_on_c, 1, 47, 126
4, 7254, Note_on_c, 1, 48, 0
4, 7623, Note_on_c, 1, 47, 0
4, 7680, Note_on_c, 1, 45, 125
4, 9120, Note_on_c, 1, 40, 91
4, 9193, Note_on_c, 1, 40, 0
4, 9600, Note_on_c, 1, 36, 116
4, 9683, Note_on_c, 1, 45, 0
4, 11003, Note_on_c, 1, 36, 0
4, 11040, Note_on_c, 1, 38, 118
4, 12960, Note_on_c, 1, 38, 0
4, 12960, Note_on_c, 1, 40, 122
4, 13920, Note_on_c, 1, 45, 85
4, 13984, Note_on_c, 1, 45, 0
4, 14314, Note_on_c, 1, 40, 0
4, 14400, Note_on_c, 1, 48, 127
4, 14880, Note_on_c, 1, 47, 111
4, 14969, Note_on_c, 1, 48, 0
4, 15260, Note_on_c, 1, 47, 0
4, 15360, Note_on_c, 1, 45, 114
4, 16800, Note_on_c, 1, 40, 92
4, 16871, Note_on_c, 1, 40, 0
4, 17280, Note_on_c, 1, 36, 119
4, 18064, Note_on_c, 1, 45, 0
4, 18720, Note_on_c, 1, 38, 122
4, 18777, Note_on_c, 1, 36, 0
4, 20613, Note_on_c, 1, 38, 0
4, 20640, Note_on_c, 1, 40, 121
4, 21600, Note_on_c, 1, 45, 84
4, 21752, Note_on_c, 1, 45, 0
4, 22073, Note_on_c, 1, 40, 0
4, 22080, Note_on_c, 1, 48, 127
4, 22560, Note_on_c, 1, 47, 104
4, 22950, Note_on_c, 1, 48, 0
4, 22968, Note_on_c, 1, 47, 0
4, 23040, Note_on_c, 1, 45, 108
4, 24480, Note_on_c, 1, 36, 126
4, 24577, Note_on_c, 1, 45, 0
4, 26339, Note_on_c, 1, 36, 0
4, 26400, Note_on_c, 1, 38, 124
4, 28320, Note_on_c, 1, 40, 127
4, 28426, Note_on_c, 1, 38, 0
4, 29198, Note_on_c, 1, 40, 0
4, 29280, Note_on_c, 1, 40, 127
4, 30240, Note_on_c, 1, 32, 107
4, 30651, Note_on_c, 1, 32, 0
4, 30703, Note_on_c, 1, 40, 0
4, 30720, Note_on_c, 1, 33, 108
4, 32121, Note_on_c, 1, 33, 0
4, 32160, Note_on_c, 1, 36, 120
4, 34080, Note_on_c, 1, 38, 122
4, 34182, Note_on_c, 1, 36, 0
4, 35997, Note_on_c, 1, 38, 0
4, 36000, Note_on_c, 1, 40, 120
4, 36845, Note_on_c, 1, 40, 0
4, 36960, Note_on_c, 1, 40, 118
4, 37440, Note_on_c, 1, 48, 127
4, 37482, Note_on_c, 1, 40, 0
4, 37920, Note_on_c, 1, 47, 106
4, 37999, Note_on_c, 1, 48, 0
4, 38358, Note_on_c, 1, 47, 0
4, 38400, Note_on_c, 1, 45, 111
4, 39840, Note_on_c, 1, 40, 80
4, 39905, Note_on_c, 1, 40, 0
4, 40320, Note_on_c, 1, 36, 106
4, 41011, Note_on_c, 1, 45, 0
4, 41760, Note_on_c, 1, 38, 111
4, 41809, Note_on_c, 1, 36, 0
4, 43680, Note_on_c, 1, 40, 125
4, 43716, Note_on_c, 1, 38, 0
4, 44497, Note_on_c, 1, 40, 0
4, 44640, Note_on_c, 1, 40, 114
4, 45600, Note_on_c, 1, 31, 122
4, 45642, Note_on_c, 1, 40, 0
4, 46070, Note_on_c, 1, 31, 0
4, 46080, Note_on_c, 1, 33, 121
4, 47520, Note_on_c, 1, 36, 123
4, 47589, Note_on_c, 1, 33, 0
4, 49440, Note_on_c, 1, 38, 125
4, 49520, Note_on_c, 1, 36, 0
4, 51354, Note_on_c, 1, 38, 0
4, 51360, Note_on_c, 1, 40, 122
4, 52320, Note_on_c, 1, 45, 83
4, 52387, Note_on_c, 1, 45, 0
4, 52800, Note_on_c, 1, 48, 127
4, 52804, Note_on_c, 1, 40, 0
4, 53280, Note_on_c, 1, 47, 111
4, 53343, Note_on_c, 1, 48, 0
4, 53718, Note_on_c, 1, 47, 0
4, 53760, Note_on_c, 1, 45, 118
4, 55200, Note_on_c, 1, 40, 96
4, 55304, Note_on_c, 1, 40, 0
4, 55668, Note_on_c, 1, 45, 0
4, 55680, Note_on_c, 1, 36, 119
4, 57049, Note_on_c, 1, 36, 0
4, 57120, Note_on_c, 1, 38, 127
4, 59040, Note_on_c, 1, 40, 127
4, 59074, Note_on_c, 1, 38, 0
4, 60480, Note_on_c, 1, 48, 127
4, 60521, Note_on_c, 1, 40, 0
4, 60939, Note_on_c, 1, 48, 0
4, 60960, Note_on_c, 1, 47, 117
4, 61076, Note_on_c, 1, 47, 0
4, 61440, Note_on_c, 1, 33, 105
4, 62799, Note_on_c, 1, 33, 0
4, 62880, Note_on_c, 1, 36, 119
4, 64294, Note_on_c, 1, 36, 0
4, 64320, Note_on_c, 1, 38, 122
4, 67174, Note_on_c, 1, 38, 0
4, 67200, Note_on_c, 1, 48, 127
4, 67680, Note_on_c, 1, 47, 110
4, 67696, Note_on_c, 1, 48, 0
4, 67962, Note_on_c, 1, 47, 0
4, 68160, Note_on_c, 1, 43, 72
4, 68240, Note_on_c, 1, 43, 0
4, 68640, Note_on_c, 1, 31, 97
4, 69120, Note_on_c, 1, 33, 91
4, 69134, Note_on_c, 1, 31, 0
4, 70541, Note_on_c, 1, 33, 0
4, 70560, Note_on_c, 1, 36, 116
4, 70968, Note_on_c, 1, 36, 0
4, 71040, Note_on_c, 1, 36, 127
4, 71974, Note_on_c, 1, 36, 0
4, 72000, Note_on_c, 1, 38, 119
4, 74400, Note_on_c, 1, 48, 127
4, 74529, Note_on_c, 1, 38, 0
4, 75360, Note_on_c, 1, 47, 118
4, 75364, Note_on_c, 1, 48, 0
4, 75754, Note_on_c, 1, 47, 0
4, 75840, Note_on_c, 1, 41, 112
4, 76261, Note_on_c, 1, 41, 0
4, 76320, Note_on_c, 1, 35, 117
4, 76800, Note_on_c, 1, 36, 116
4, 76815, Note_on_c, 1, 35, 0
4, 78240, Note_on_c, 1, 39, 125
4, 78269, Note_on_c, 1, 36, 0
4, 79200, Note_on_c, 1, 36, 91
4, 79262, Note_on_c, 1, 36, 0
4, 79562, Note_on_c, 1, 39, 0
4, 79680, Note_on_c, 1, 41, 112
4, 81120, Note_on_c, 1, 51, 127
4, 81314, Note_on_c, 1, 41, 0
4, 82019, Note_on_c, 1, 51, 0
4, 82080, Note_on_c, 1, 50, 127
4, 83040, Note_on_c, 1, 48, 114
4, 83110, Note_on_c, 1, 50, 0
4, 83385, Note_on_c, 1, 48, 0
4, 83520, Note_on_c, 1, 43, 96
4, 83959, Note_on_c, 1, 43, 0
4, 84000, Note_on_c, 1, 34, 97
4, 84464, Note_on_c, 1, 34, 0
4, 84480, Note_on_c, 1, 36, 112
4, 85920, Note_on_c, 1, 39, 123
4, 86020, Note_on_c, 1, 36, 0
4, 87355, Note_on_c, 1, 39, 0
4, 87360, Note_on_c, 1, 41, 127
4, 89733, Note_on_c, 1, 41, 0
4, 89760, Note_on_c, 1, 29, 109
4, 90240, Note_on_c, 1, 41, 119
4, 90587, Note_on_c, 1, 29, 0
4, 91200, Note_on_c, 1, 33, 117
4, 91280, Note_on_c, 1, 41, 0
4, 92060, Note_on_c, 1, 33, 0
4, 92160, Note_on_c, 1, 34, 110
4, 93600, Note_on_c, 1, 41, 115
4, 93954, Note_on_c, 1, 41, 0
4, 94080, Note_on_c, 1, 41, 110
4, 94208, Note_on_c, 1, 34, 0
4, 95520, Note_on_c, 1, 46, 122
4, 96538, Note_on_c, 1, 41, 0
4, 96960, Note_on_c, 1, 39, 126
4, 96992, Note_on_c, 1, 46, 0
4, 98400, Note_on_c, 1, 51, 118
4, 98861, Note_on_c, 1, 51, 0
4, 98880, Note_on_c, 1, 43, 68
4, 98947, Note_on_c, 1, 43, 0
4, 99238, Note_on_c, 1, 39, 0
4, 99360, Note_on_c, 1, 33, 115
4, 99823, Note_on_c, 1, 33, 0
4, 99840, Note_on_c, 1, 32, 115
4, 101280, Note_on_c, 1, 39, 109
4, 101655, Note_on_c, 1, 39, 0
4, 101760, Note_on_c, 1, 39, 108
4, 101763, Note_on_c, 1, 32, 0
4, 103200, Note_on_c, 1, 44, 126
4, 103308, Note_on_c, 1, 39, 0
4, 105120, Note_on_c, 1, 37, 125
4, 105161, Note_on_c, 1, 44, 0
4, 106080, Note_on_c, 1, 44, 113
4, 106347, Note_on_c, 1, 44, 0
4, 106560, Note_on_c, 1, 43, 112
4, 106583, Note_on_c, 1, 37, 0
4, 107280, Note_on_c, 1, 37, 73
4, 107389, Note_on_c, 1, 37, 0
4, 107407, Note_on_c, 1, 43, 0
4, 107520, Note_on_c, 1, 42, 110
4, 108960, Note_on_c, 1, 30, 108
4, 109219, Note_on_c, 1, 30, 0
4, 109440, Note_on_c, 1, 30, 115
4, 110285, Note_on_c, 1, 42, 0
4, 111346, Note_on_c, 1, 30, 0
4, 111360, Note_on_c, 1, 36, 119
4, 111513, Note_on_c, 1, 36, 0
4, 112320, Note_on_c, 1, 36, 127
4, 115200, Note_on_c, 1, 29, 125
4, 115332, Note_on_c, 1, 36, 0
4, 116435, Note_on_c, 1, 29, 0
4, 116640, Note_on_c, 1, 29, 120
4, 117858, Note_on_c, 1, 29, 0
4, 118080, Note_on_c, 1, 29, 119
4, 119017, Note_on_c, 1, 29, 0
4, 119040, Note_on_c, 1, 40, 127
4, 121440, Note_on_c, 1, 35, 103
4, 121593, Note_on_c, 1, 40, 0
4, 121633, Note_on_c, 1, 35, 0
4, 121920, Note_on_c, 1, 32, 119
4, 122752, Note_on_c, 1, 32, 0
4, 122880, Note_on_c, 1, 33, 110
4, 124304, Note_on_c, 1, 33, 0
4, 124320, Note_on_c, 1, 36, 121
4, 125520, Note_on_c, 1, 34, 71
4, 125679, Note_on_c, 1, 36, 0
4, 125750, Note_on_c, 1, 34, 0
4, 125760, Note_on_c, 1, 38, 126
4, 128160, Note_on_c, 1, 48, 127
4, 128237, Note_on_c, 1, 38, 0
4, 129120, Note_on_c, 1, 47, 116
4, 129150, Note_on_c, 1, 48, 0
4, 129536, Note_on_c, 1, 47, 0
4, 129600, Note_on_c, 1, 40, 99
4, 130080, Note_on_c, 1, 31, 112
4, 130169, Note_on_c, 1, 40, 0
4, 130493, Note_on_c, 1, 31, 0
4, 130560, Note_on_c, 1, 33, 112
4, 131996, Note_on_c, 1, 33, 0
4, 132000, Note_on_c, 1, 36, 122
4, 132394, Note_on_c, 1, 36, 0
4, 132480, Note_on_c, 1, 36, 119
4, 133440, Note_on_c, 1, 38, 110
4, 133448, Note_on_c, 1, 36, 0
4, 135840, Note_on_c, 1, 48, 127
4, 136156, Note_on_c, 1, 38, 0
4, 136800, Note_on_c, 1, 47, 123
4, 136920, Note_on_c, 1, 48, 0
4, 137237, Note_on_c, 1, 47, 0
4, 137280, Note_on_c, 1, 45, 107
4, 137452, Note_on_c, 1, 45, 0
4, 137760, Note_on_c, 1, 40, 110
4, 137888, Note_on_c, 1, 40, 0
4, 138240, Note_on_c, 1, 36, 119
4, 139677, Note_on_c, 1, 36, 0
4, 139680, Note_on_c, 1, 39, 119
4, 140573, Note_on_c, 1, 39, 0
4, 140640, Note_on_c, 1, 36, 98
4, 140978, Note_on_c, 1, 36, 0
4, 141120, Note_on_c, 1, 41, 124
4, 142560, Note_on_c, 1, 51, 127
4, 142974, Note_on_c, 1, 41, 0
4, 143467, Note_on_c, 1, 51, 0
4, 143520, Note_on_c, 1, 50, 118
4, 144434, Note_on_c, 1, 50, 0
4, 144480, Note_on_c, 1, 48, 122
4, 144960, Note_on_c, 1, 43, 91
4, 144968, Note_on_c, 1, 48, 0
4, 145440, Note_on_c, 1, 34, 94
4, 145479, Note_on_c, 1, 43, 0
4, 145891, Note_on_c, 1, 34, 0
4, 145920, Note_on_c, 1, 36, 113
4, 147360, Note_on_c, 1, 39, 122
4, 147381, Note_on_c, 1, 36, 0
4, 147773, Note_on_c, 1, 39, 0
4, 147840, Note_on_c, 1, 39, 116
4, 149280, Note_on_c, 1, 41, 127
4, 149417, Note_on_c, 1, 39, 0
4, 151160, Note_on_c, 1, 41, 0
4, 151200, Note_on_c, 1, 29, 97
4, 151674, Note_on_c, 1, 29, 0
4, 151680, Note_on_c, 1, 41, 112
4, 151924, Note_on_c, 1, 41, 0
4, 152160, Note_on_c, 1, 41, 105
4, 152578, Note_on_c, 1, 41, 0
4, 152640, Note_on_c, 1, 35, 118
4, 153451, Note_on_c, 1, 35, 0
4, 153600, Note_on_c, 1, 34, 105
4, 155040, Note_on_c, 1, 41, 104
4, 155069, Note_on_c, 1, 34, 0
4, 155377, Note_on_c, 1, 41, 0
4, 155520, Note_on_c, 1, 41, 110
4, 156960, Note_on_c, 1, 46, 121
4, 157089, Note_on_c, 1, 41, 0
4, 158839, Note_on_c, 1, 46, 0
4, 158880, Note_on_c, 1, 39, 125
4, 160204, Note_on_c, 1, 39, 0
4, 160320, Note_on_c, 1, 39, 117
4, 161280, Note_on_c, 1, 32, 115
4, 161307, Note_on_c, 1, 39, 0
4, 162720, Note_on_c, 1, 39, 122
4, 162827, Note_on_c, 1, 32, 0
4, 163123, Note_on_c, 1, 39, 0
4, 163200, Note_on_c, 1, 39, 121
4, 164640, Note_on_c, 1, 32, 125
4, 164683, Note_on_c, 1, 39, 0
4, 166534, Note_on_c, 1, 32, 0
4, 166560, Note_on_c, 1, 37, 122
4, 167008, Note_on_c, 1, 37, 0
4, 167040, Note_on_c, 1, 37, 124
4, 168960, Note_on_c, 1, 30, 115
4, 168997, Note_on_c, 1, 37, 0
4, 170400, Note_on_c, 1, 37, 118
4, 170406, Note_on_c, 1, 30, 0
4, 170768, Note_on_c, 1, 37, 0
4, 170880, Note_on_c, 1, 37, 115
4, 172263, Note_on_c, 1, 37, 0
4, 172320, Note_on_c, 1, 36, 127
4, 173137, Note_on_c, 1, 36, 0
4, 173760, Note_on_c, 1, 36, 127
4, 176640, Note_on_c, 1, 41, 127
4, 176685, Note_on_c, 1, 36, 0
4, 177791, Note_on_c, 1, 41, 0
4, 178080, Note_on_c, 1, 41, 127
4, 178596, Note_on_c, 1, 41, 0
4, 179040, Note_on_c, 1, 41, 125
4, 179457, Note_on_c, 1, 41, 0
4, 179520, Note_on_c, 1, 40, 127
4, 183840, Note_on_c, 1, 32, 110
4, 183888, Note_on_c, 1, 40, 0
4, 184238, Note_on_c, 1, 32, 0
4, 184320, Note_on_c, 1, 33, 110
4, 185682, Note_on_c, 1, 33, 0
4, 185760, Note_on_c, 1, 36, 126
4, 187174, Note_on_c, 1, 36, 0
4, 187200, Note_on_c, 1, 38, 127
4, 189600, Note_on_c, 1, 48, 127
4, 189616, Note_on_c, 1, 38, 0
4, 190560, Note_on_c, 1, 47, 121
4, 190594, Note_on_c, 1, 48, 0
4, 190986, Note_on_c, 1, 47, 0
4, 191040, Note_on_c, 1, 40, 102
4, 191417, Note_on_c, 1, 40, 0
4, 191520, Note_on_c, 1, 31, 110
4, 191947, Note_on_c, 1, 31, 0
4, 192000, Note_on_c, 1, 33, 119
4, 193440, Note_on_c, 1, 36, 127
4, 193519, Note_on_c, 1, 33, 0
4, 193786, Note_on_c, 1, 36, 0
4, 193920, Note_on_c, 1, 36, 119
4, 194844, Note_on_c, 1, 36, 0
4, 194880, Note_on_c, 1, 38, 127
4, 197280, Note_on_c, 1, 48, 127
4, 197524, Note_on_c, 1, 38, 0
4, 198240, Note_on_c, 1, 47, 125
4, 198307, Note_on_c, 1, 48, 0
4, 198560, Note_on_c, 1, 47, 0
4, 198720, Note_on_c, 1, 43, 105
4, 199159, Note_on_c, 1, 43, 0
4, 199200, Note_on_c, 1, 35, 106
4, 199680, Note_on_c, 1, 36, 114
4, 199691, Note_on_c, 1, 35, 0
4, 201120, Note_on_c, 1, 39, 122
4, 201145, Note_on_c, 1, 36, 0
4, 201505, Note_on_c, 1, 39, 0
4, 201600, Note_on_c, 1, 39, 117
4, 202516, Note_on_c, 1, 39, 0
4, 202560, Note_on_c, 1, 41, 124
4, 204000, Note_on_c, 1, 51, 127
4, 204110, Note_on_c, 1, 41, 0
4, 204439, Note_on_c, 1, 51, 0
4, 204480, Note_on_c, 1, 50, 123
4, 205356, Note_on_c, 1, 50, 0
4, 205440, Note_on_c, 1, 48, 117
4, 205855, Note_on_c, 1, 48, 0
4, 205920, Note_on_c, 1, 43, 92
4, 206400, Note_on_c, 1, 43, 0
4, 206400, Note_on_c, 1, 34, 94
4, 206838, Note_on_c, 1, 34, 0
4, 206880, Note_on_c, 1, 35, 123
4, 207326, Note_on_c, 1, 35, 0
4, 207360, Note_on_c, 1, 36, 119
4, 208712, Note_on_c, 1, 36, 0
4, 208800, Note_on_c, 1, 39, 119
4, 209185, Note_on_c, 1, 39, 0
4, 209280, Note_on_c, 1, 39, 125
4, 210720, Note_on_c, 1, 41, 127
4, 210791, Note_on_c, 1, 39, 0
4, 212388, Note_on_c, 1, 41, 0
4, 212640, Note_on_c, 1, 41, 117
4, 212987, Note_on_c, 1, 41, 0
4, 213120, Note_on_c, 1, 41, 119
4, 214080, Note_on_c, 1, 35, 119
4, 214130, Note_on_c, 1, 41, 0
4, 214979, Note_on_c, 1, 35, 0
4, 215040, Note_on_c, 1, 34, 112
4, 216480, Note_on_c, 1, 41, 127
4, 216893, Note_on_c, 1, 41, 0
4, 216960, Note_on_c, 1, 41, 127
4, 217141, Note_on_c, 1, 34, 0
4, 218400, Note_on_c, 1, 34, 127
4, 218525, Note_on_c, 1, 41, 0
4, 220320, Note_on_c, 1, 39, 127
4, 220355, Note_on_c, 1, 34, 0
4, 220733, Note_on_c, 1, 39, 0
4, 220800, Note_on_c, 1, 39, 126
4, 221262, Note_on_c, 1, 39, 0
4, 221280, Note_on_c, 1, 33, 123
4, 222196, Note_on_c, 1, 33, 0
4, 222240, Note_on_c, 1, 32, 127
4, 222587, Note_on_c, 1, 32, 0
4, 222720, Note_on_c, 1, 32, 120
4, 224160, Note_on_c, 1, 39, 127
4, 224216, Note_on_c, 1, 32, 0
4, 225600, Note_on_c, 1, 44, 127
4, 225690, Note_on_c, 1, 39, 0
4, 227939, Note_on_c, 1, 44, 0
4, 228000, Note_on_c, 1, 39, 117
4, 228458, Note_on_c, 1, 39, 0
4, 228480, Note_on_c, 1, 37, 119
4, 228849, Note_on_c, 1, 37, 0
4, 228960, Note_on_c, 1, 37, 115
4, 229389, Note_on_c, 1, 37, 0
4, 229440, Note_on_c, 1, 44, 95
4, 229643, Note_on_c, 1, 44, 0
4, 229920, Note_on_c, 1, 44, 123
4, 230262, Note_on_c, 1, 44, 0
4, 230400, Note_on_c, 1, 42, 110
4, 231699, Note_on_c, 1, 42, 0
4, 231840, Note_on_c, 1, 37, 107
4, 232297, Note_on_c, 1, 37, 0
4, 232320, Note_on_c, 1, 30, 116
4, 232800, Note_on_c, 1, 30, 0
4, 233280, Note_on_c, 1, 36, 127
4, 234410, Note_on_c, 1, 36, 0
4, 234720, Note_on_c, 1, 36, 127
4, 235062, Note_on_c, 1, 36, 0
4, 235680, Note_on_c, 1, 36, 127
4, 235979, Note_on_c, 1, 36, 0
4, 236160, Note_on_c, 1, 36, 127
4, 237290, Note_on_c, 1, 36, 0
4, 237600, Note_on_c, 1, 36, 122
4, 237982, Note_on_c, 1, 36, 0
4, 238080, Note_on_c, 1, 41, 127
4, 239141, Note_on_c, 1, 41, 0
4, 239520, Note_on_c, 1, 41, 127
4, 239899, Note_on_c, 1, 41, 0
4, 240480, Note_on_c, 1, 41, 124
4, 240834, Note_on_c, 1, 41, 0
4, 240960, Note_on_c, 1, 40, 127
4, 244784, Note_on_c, 1, 40, 0
4, 245760, Note_on_c, 1, 33, 105
4, 247119, Note_on_c, 1, 33, 0
4, 247200, Note_on_c, 1, 36, 119
4, 248614, Note_on_c, 1, 36, 0
4, 248640, Note_on_c, 1, 38, 122
4, 251494, Note_on_c, 1, 38, 0
4, 251520, Note_on_c, 1, 48, 127
4, 252000, Note_on_c, 1, 47, 110
4, 252016, Note_on_c, 1, 48, 0
4, 252282, Note_on_c, 1, 47, 0
4, 252480, Note_on_c, 1, 43, 72
4, 252560, Note_on_c, 1, 43, 0
4, 252960, Note_on_c, 1, 31, 97
4, 253440, Note_on_c, 1, 33, 91
4, 253454, Note_on_c, 1, 31, 0
4, 254861, Note_on_c, 1, 33, 0
4, 254880, Note_on_c, 1, 36, 116
4, 255288, Note_on_c, 1, 36, 0
4, 255360, Note_on_c, 1, 36, 127
4, 256294, Note_on_c, 1, 36, 0
4, 256320, Note_on_c, 1, 38, 119
4, 258720, Note_on_c, 1, 48, 127
4, 258849, Note_on_c, 1, 38, 0
4, 259680, Note_on_c, 1, 47, 118
4, 259684, Note_on_c, 1, 48, 0
4, 260074, Note_on_c, 1, 47, 0
4, 260160, Note_on_c, 1, 41, 112
4, 260581, Note_on_c, 1, 41, 0
4, 260640, Note_on_c, 1, 35, 117
4, 261120, Note_on_c, 1, 36, 116
4, 261135, Note_on_c, 1, 35, 0
4, 262560, Note_on_c, 1, 39, 125
4, 262589, Note_on_c, 1, 36, 0
4, 263520, Note_on_c, 1, 36, 91
4, 263582, Note_on_c, 1, 36, 0
4, 263882, Note_on_c, 1, 39, 0
4, 264000, Note_on_c, 1, 41, 112
4, 265440, Note_on_c, 1, 51, 127
4, 265634, Note_on_c, 1, 41, 0
4, 266339, Note_on_c, 1, 51, 0
4, 266400, Note_on_c, 1, 50, 127
4, 267360, Note_on_c, 1, 48, 114
4, 267430, Note_on_c, 1, 50, 0
4, 267705, Note_on_c, 1, 48, 0
4, 267840, Note_on_c, 1, 43, 96
4, 268279, Note_on_c, 1, 43, 0
4, 268320, Note_on_c, 1, 34, 97
4, 268784, Note_on_c, 1, 34, 0
4, 268800, Note_on_c, 1, 36, 112
4, 270240, Note_on_c, 1, 39, 123
4, 270340, Note_on_c, 1, 36, 0
4, 271675, Note_on_c, 1, 39, 0
4, 271680, Note_on_c, 1, 41, 127
4, 274053, Note_on_c, 1, 41, 0
4, 274080, Note_on_c, 1, 29, 109
4, 274560, Note_on_c, 1, 41, 119
4, 274907, Note_on_c, 1, 29, 0
4, 275520, Note_on_c, 1, 33, 117
4, 275600, Note_on_c, 1, 41, 0
4, 276380, Note_on_c, 1, 33, 0
4, 276480, Note_on_c, 1, 34, 110
4, 277920, Note_on_c, 1, 41, 115
4, 278274, Note_on_c, 1, 41, 0
4, 278400, Note_on_c, 1, 41, 110
4, 278528, Note_on_c, 1, 34, 0
4, 279840, Note_on_c, 1, 46, 122
4, 280858, Note_on_c, 1, 41, 0
4, 281280, Note_on_c, 1, 39, 126
4, 281312, Note_on_c, 1, 46, 0
4, 282720, Note_on_c, 1, 51, 118
4, 283181, Note_on_c, 1, 51, 0
4, 283200, Note_on_c, 1, 43, 68
4, 283267, Note_on_c, 1, 43, 0
4, 283558, Note_on_c, 1, 39, 0
4, 283680, Note_on_c, 1, 33, 115
4, 284143, Note_on_c, 1, 33, 0
4, 284160, Note_on_c, 1, 32, 115
4, 285600, Note_on_c, 1, 39, 109
4, 285975, Note_on_c, 1, 39, 0
4, 286080, Note_on_c, 1, 39, 108
4, 286083, Note_on_c, 1, 32, 0
4, 287520, Note_on_c, 1, 44, 126
4, 287628, Note_on_c, 1, 39, 0
4, 289440, Note_on_c, 1, 37, 125
4, 289481, Note_on_c, 1, 44, 0
4, 290400, Note_on_c, 1, 44, 113
4, 290667, Note_on_c, 1, 44, 0
4, 290880, Note_on_c, 1, 43, 112
4, 290903, Note_on_c, 1, 37, 0
4, 291600, Note_on_c, 1, 37, 73
4, 291709, Note_on_c, 1, 37, 0
4, 291727, Note_on_c, 1, 43, 0
4, 291840, Note_on_c, 1, 42, 110
4, 293280, Note_on_c, 1, 30, 108
4, 293539, Note_on_c, 1, 30, 0
4, 293760, Note_on_c, 1, 30, 115
4, 294605, Note_on_c, 1, 42, 0
4, 295666, Note_on_c, 1, 30, 0
4, 295680, Note_on_c, 1, 36, 119
4, 295833, Note_on_c, 1, 36, 0
4, 296640, Note_on_c, 1, 36, 127
4, 299520, Note_on_c, 1, 29, 125
4, 299652, Note_on_c, 1, 36, 0
4, 300755, Note_on_c, 1, 29, 0
4, 300960, Note_on_c, 1, 29, 120
4, 302178, Note_on_c, 1, 29, 0
4, 302400, Note_on_c, 1, 29, 119
4, 303337, Note_on_c, 1, 29, 0
4, 303360, Note_on_c, 1, 40, 127
4, 305760, Note_on_c, 1, 35, 103
4, 305913, Note_on_c, 1, 40, 0
4, 305953, Note_on_c, 1, 35, 0
4, 306240, Note_on_c, 1, 32, 119
4, 307072, Note_on_c, 1, 32, 0
4, 307200, Note_on_c, 1, 33, 110
4, 308624, Note_on_c, 1, 33, 0
4, 308640, Note_on_c, 1, 36, 121
4, 309840, Note_on_c, 1, 34, 71
4, 309999, Note_on_c, 1, 36, 0
4, 310070, Note_on_c, 1, 34, 0
4, 310080, Note_on_c, 1, 38, 126
4, 312480, Note_on_c, 1, 48, 127
4, 312557, Note_on_c, 1, 38, 0
4, 313440, Note_on_c, 1, 47, 116
4, 313470, Note_on_c, 1, 48, 0
4, 313856, Note_on_c, 1, 47, 0
4, 313920, Note_on_c, 1, 40, 99
4, 314400, Note_on_c, 1, 31, 112
4, 314489, Note_on_c, 1, 40, 0
4, 314813, Note_on_c, 1, 31, 0
4, 314880, Note_on_c, 1, 33, 112
4, 316316, Note_on_c, 1, 33, 0
4, 316320, Note_on_c, 1, 36, 122
4, 316714, Note_on_c, 1, 36, 0
4, 316800, Note_on_c, 1, 36, 119
4, 317760, Note_on_c, 1, 38, 110
4, 317768, Note_on_c, 1, 36, 0
4, 320160, Note_on_c, 1, 48, 127
4, 320476, Note_on_c, 1, 38, 0
4, 321120, Note_on_c, 1, 47, 123
4, 321240, Note_on_c, 1, 48, 0
4, 321557, Note_on_c, 1, 47, 0
4, 321600, Note_on_c, 1, 45, 107
4, 321772, Note_on_c, 1, 45, 0
4, 322080, Note_on_c, 1, 40, 110
4, 322208, Note_on_c, 1, 40, 0
4, 322560, Note_on_c, 1, 36, 119
4, 323997, Note_on_c, 1, 36, 0
4, 324000, Note_on_c, 1, 39, 119
4, 324893, Note_on_c, 1, 39, 0
4, 324960, Note_on_c, 1, 36, 98
4, 325298, Note_on_c, 1, 36, 0
4, 325440, Note_on_c, 1, 41, 124
4, 326880, Note_on_c, 1, 51, 127
4, 327294, Note_on_c, 1, 41, 0
4, 327787, Note_on_c, 1, 51, 0
4, 327840, Note_on_c, 1, 50, 118
4, 328754, Note_on_c, 1, 50, 0
4, 328800, Note_on_c, 1, 48, 122
4, 329280, Note_on_c, 1, 43, 91
4, 329288, Note_on_c, 1, 48, 0
4, 329760, Note_on_c, 1, 34, 94
4, 329799, Note_on_c, 1, 43, 0
4, 330211, Note_on_c, 1, 34, 0
4, 330240, Note_on_c, 1, 36, 113
4, 331680, Note_on_c, 1, 39, 122
4, 331701, Note_on_c, 1, 36, 0
4, 332093, Note_on_c, 1, 39, 0
4, 332160, Note_on_c, 1, 39, 116
4, 333600, Note_on_c, 1, 41, 127
4, 333737, Note_on_c, 1, 39, 0
4, 335480, Note_on_c, 1, 41, 0
4, 335520, Note_on_c, 1, 29, 97
4, 335994, Note_on_c, 1, 29, 0
4, 336000, Note_on_c, 1, 41, 112
4, 336244, Note_on_c, 1, 41, 0
4, 336480, Note_on_c, 1, 41, 105
4, 336898, Note_on_c, 1, 41, 0
4, 336960, Note_on_c, 1, 35, 118
4, 337771, Note_on_c, 1, 35, 0
4, 337920, Note_on_c, 1, 34, 105
4, 339360, Note_on_c, 1, 41, 104
4, 339389, Note_on_c, 1, 34, 0
4, 339697, Note_on_c, 1, 41, 0
4, 339840, Note_on_c, 1, 41, 110
4, 341280, Note_on_c, 1, 46, 121
4, 341409, Note_on_c, 1, 41, 0
4, 343159, Note_on_c, 1, 46, 0
4, 343200, Note_on_c, 1, 39, 125
4, 344524, Note_on_c, 1, 39, 0
4, 344640, Note_on_c, 1, 39, 117
4, 345600, Note_on_c, 1, 32, 115
4, 345627, Note_on_c, 1, 39, 0
4, 347040, Note_on_c, 1, 39, 122
4, 347147, Note_on_c, 1, 32, 0
4, 347443, Note_on_c, 1, 39, 0
4, 347520, Note_on_c, 1, 39, 121
4, 348960, Note_on_c, 1, 32, 125
4, 349003, Note_on_c, 1, 39, 0
4, 350854, Note_on_c, 1, 32, 0
4, 350880, Note_on_c, 1, 37, 122
4, 351328, Note_on_c, 1, 37, 0
4, 351360, Note_on_c, 1, 37, 124
4, 353280, Note_on_c, 1, 30, 115
4, 353317, Note_on_c, 1, 37, 0
4, 354720, Note_on_c, 1, 37, 118
4, 354726, Note_on_c, 1, 30, 0
4, 355088, Note_on_c, 1, 37, 0
4, 355200, Note_on_c, 1, 37, 115
4, 356583, Note_on_c, 1, 37, 0
4, 356640, Note_on_c, 1, 36, 127
4, 357457, Note_on_c, 1, 36, 0
4, 358080, Note_on_c, 1, 36, 127
4, 360960, Note_on_c, 1, 41, 127
4, 361005, Note_on_c, 1, 36, 0
4, 362111, Note_on_c, 1, 41, 0
4, 362400, Note_on_c, 1, 41, 127
4, 362916, Note_on_c, 1, 41, 0
4, 363360, Note_on_c, 1, 41, 125
4, 363777, Note_on_c, 1, 41, 0
4, 363840, Note_on_c, 1, 40, 127
4, 368160, Note_on_c, 1, 32, 110
4, 368208, Note_on_c, 1, 40, 0
4, 368558, Note_on_c, 1, 32, 0
4, 368640, Note_on_c, 1, 33, 110
4, 370002, Note_on_c, 1, 33, 0
4, 370080, Note_on_c, 1, 36, 126
4, 371494, Note_on_c, 1, 36, 0
4, 371520, Note_on_c, 1, 38, 127
4, 373920, Note_on_c, 1, 48, 127
4, 373936, Note_on_c, 1, 38, 0
4, 374880, Note_on_c, 1, 47, 121
4, 374914, Note_on_c, 1, 48, 0
4, 375306, Note_on_c, 1, 47, 0
4, 375360, Note_on_c, 1, 40, 102
4, 375737, Note_on_c, 1, 40, 0
4, 375840, Note_on_c, 1, 31, 110
4, 376267, Note_on_c, 1, 31, 0
4, 376320, Note_on_c, 1, 33, 119
4, 377760, Note_on_c, 1, 36, 127
4, 377839, Note_on_c, 1, 33, 0
4, 378106, Note_on_c, 1, 36, 0
4, 378240, Note_on_c, 1, 36, 119
4, 379164, Note_on_c, 1, 36, 0
4, 379200, Note_on_c, 1, 38, 127
4, 381600, Note_on_c, 1, 48, 127
4, 381844, Note_on_c, 1, 38, 0
4, 382560, Note_on_c, 1, 47, 125
4, 382627, Note_on_c, 1, 48, 0
4, 382880, Note_on_c, 1, 47, 0
4, 383040, Note_on_c, 1, 43, 105
4, 383479, Note_on_c, 1, 43, 0
4, 383520, Note_on_c, 1, 35, 106
4, 384000, Note_on_c, 1, 36, 114
4, 384011, Note_on_c, 1, 35, 0
4, 385440, Note_on_c, 1, 39, 122
4, 385465, Note_on_c, 1, 36, 0
4, 385825, Note_on_c, 1, 39, 0
4, 385920, Note_on_c, 1, 39, 117
4, 386836, Note_on_c, 1, 39, 0
4, 386880, Note_on_c, 1, 41, 124
4, 388320, Note_on_c, 1, 51, 127
4, 388430, Note_on_c, 1, 41, 0
4, 388759, Note_on_c, 1, 51, 0
4, 388800, Note_on_c, 1, 50, 123
4, 389676, Note_on_c, 1, 50, 0
4, 389760, Note_on_c, 1, 48, 117
4, 390175, Note_on_c, 1, 48, 0
4, 390240, Note_on_c, 1, 43, 92
4, 390720, Note_on_c, 1, 43, 0
4, 390720, Note_on_c, 1, 34, 94
4, 391158, Note_on_c, 1, 34, 0
4, 391200, Note_on_c, 1, 35, 123
4, 391646, Note_on_c, 1, 35, 0
4, 391680, Note_on_c, 1, 36, 119
4, 393032, Note_on_c, 1, 36, 0
4, 393120, Note_on_c, 1, 39, 119
4, 393505, Note_on_c, 1, 39, 0
4, 393600, Note_on_c, 1, 39, 125
4, 395040, Note_on_c, 1, 41, 127
4, 395111, Note_on_c, 1, 39, 0
4, 396708, Note_on_c, 1, 41, 0
4, 396960, Note_on_c, 1, 41, 117
4, 397307, Note_on_c, 1, 41, 0
4, 397440, Note_on_c, 1, 41, 119
4, 398400, Note_on_c, 1, 35, 119
4, 398450, Note_on_c, 1, 41, 0
4, 399299, Note_on_c, 1, 35, 0
4, 399360, Note_on_c, 1, 34, 112
4, 400800, Note_on_c, 1, 41, 127
4, 401213, Note_on_c, 1, 41, 0
4, 401280, Note_on_c, 1, 41, 127
4, 401461, Note_on_c, 1, 34, 0
4, 402720, Note_on_c, 1, 34, 127
4, 402845, Note_on_c, 1, 41, 0
4, 404640, Note_on_c, 1, 39, 127
4, 404675, Note_on_c, 1, 34, 0
4, 405053, Note_on_c, 1, 39, 0
4, 405120, Note_on_c, 1, 39, 126
4, 405582, Note_on_c, 1, 39, 0
4, 405600, Note_on_c, 1, 33, 123
4, 406516, Note_on_c, 1, 33, 0
4, 406560, Note_on_c, 1, 32, 127
4, 406907, Note_on_c, 1, 32, 0
4, 407040, Note_on_c, 1, 32, 120
4, 408480, Note_on_c, 1, 39, 127
4, 408536, Note_on_c, 1, 32, 0
4, 409920, Note_on_c, 1, 44, 127
4, 410010, Note_on_c, 1, 39, 0
4, 412259, Note_on_c, 1, 44, 0
4, 412320, Note_on_c, 1, 39, 117
4, 412778, Note_on_c, 1, 39, 0
4, 412800, Note_on_c, 1, 37, 119
4, 413169, Note_on_c, 1, 37, 0
4, 413280, Note_on_c, 1, 37, 115
4, 413709, Note_on_c, 1, 37, 0
4, 413760, Note_on_c, 1, 44, 95
4, 413963, Note_on_c, 1, 44, 0
4, 414240, Note_on_c, 1, 44, 123
4, 414582, Note_on_c, 1, 44, 0
4, 414720, Note_on_c, 1, 42, 110
4, 416019, Note_on_c, 1, 42, 0
4, 416160, Note_on_c, 1, 37, 107
4, 416617, Note_on_c, 1, 37, 0
4, 416640, Note_on_c, 1, 30, 116
4, 417120, Note_on_c, 1, 30, 0
4, 417600, Note_on_c, 1, 36, 127
4, 418730, Note_on_c, 1, 36, 0
4, 419040, Note_on_c, 1, 36, 127
4, 419382, Note_on_c, 1, 36, 0
4, 420000, Note_on_c, 1, 36, 127
4, 420299, Note_on_c, 1, 36, 0
4, 420480, Note_on_c, 1, 36, 127
4, 421610, Note_on_c, 1, 36, 0
4, 421920, Note_on_c, 1, 36, 122
4, 422302, Note_on_c, 1, 36, 0
4, 422400, Note_on_c, 1, 41, 127
4, 423461, Note_on_c, 1, 41, 0
4, 423840, Note_on_c, 1, 41, 127
4, 424219, Note_on_c, 1, 41, 0
4, 424800, Note_on_c, 1, 41, 124
4, 425154, Note_on_c, 1, 41, 0
4, 425280, Note_on_c, 1, 40, 127
4, 429104, Note_on_c, 1, 40, 0
4, 430080, Note_on_c, 1, 45, 104
4, 431489, Note_on_c, 1, 45, 0
4, 431520, Note_on_c, 1, 36, 119
4, 433361, Note_on_c, 1, 36, 0
4, 433440, Note_on_c, 1, 38, 120
4, 435332, Note_on_c, 1, 38, 0
4, 435360, Note_on_c, 1, 40, 119
4, 436196, Note_on_c, 1, 40, 0
4, 436320, Note_on_c, 1, 40, 119
4, 436800, Note_on_c, 1, 48, 127
4, 436816, Note_on_c, 1, 40, 0
4, 437248, Note_on_c, 1, 48, 0
4, 437280, Note_on_c, 1, 48, 72
4, 437280, Note_on_c, 1, 47, 126
4, 437334, Note_on_c, 1, 48, 0
4, 437703, Note_on_c, 1, 47, 0
4, 437760, Note_on_c, 1, 45, 125
4, 439200, Note_on_c, 1, 40, 91
4, 439273, Note_on_c, 1, 40, 0
4, 439680, Note_on_c, 1, 36, 116
4, 439763, Note_on_c, 1, 45, 0
4, 441083, Note_on_c, 1, 36, 0
4, 441120, Note_on_c, 1, 38, 118
4, 443040, Note_on_c, 1, 38, 0
4, 443040, Note_on_c, 1, 40, 122
4, 444000, Note_on_c, 1, 45, 85
4, 444064, Note_on_c, 1, 45, 0
4, 444394, Note_on_c, 1, 40, 0
4, 444480, Note_on_c, 1, 48, 127
4, 444960, Note_on_c, 1, 47, 111
4, 445049, Note_on_c, 1, 48, 0
4, 445340, Note_on_c, 1, 47, 0
4, 445440, Note_on_c, 1, 45, 114
4, 446880, Note_on_c, 1, 40, 92
4, 446951, Note_on_c, 1, 40, 0
4, 447360, Note_on_c, 1, 36, 119
4, 448144, Note_on_c, 1, 45, 0
4, 448800, Note_on_c, 1, 38, 122
4, 448857, Note_on_c, 1, 36, 0
4, 450693, Note_on_c, 1, 38, 0
4, 450720, Note_on_c, 1, 40, 121
4, 451680, Note_on_c, 1, 45, 84
4, 451832, Note_on_c, 1, 45, 0
4, 452153, Note_on_c, 1, 40, 0
4, 452160, Note_on_c, 1, 48, 127
4, 452640, Note_on_c, 1, 47, 104
4, 453030, Note_on_c, 1, 48, 0
4, 453048, Note_on_c, 1, 47, 0
4, 453120, Note_on_c, 1, 45, 108
4, 454560, Note_on_c, 1, 36, 126
4, 454657, Note_on_c, 1, 45, 0
4, 456419, Note_on_c, 1, 36, 0
4, 456480, Note_on_c, 1, 38, 124
4, 458400, Note_on_c, 1, 40, 127
4, 458506, Note_on_c, 1, 38, 0
4, 459278, Note_on_c, 1, 40, 0
4, 459360, Note_on_c, 1, 40, 127
4, 460320, Note_on_c, 1, 32, 107
4, 460731, Note_on_c, 1, 32, 0
4, 460783, Note_on_c, 1, 40, 0
4, 460800, Note_on_c, 1, 33, 108
4, 462201, Note_on_c, 1, 33, 0
4, 462240, Note_on_c, 1, 36, 120
4, 464160, Note_on_c, 1, 38, 122
4, 464262, Note_on_c, 1, 36, 0
4, 466077, Note_on_c, 1, 38, 0
4, 466080, Note_on_c, 1, 40, 120
4, 466925, Note_on_c, 1, 40, 0
4, 467040, Note_on_c, 1, 40, 118
4, 467520, Note_on_c, 1, 48, 127
4, 467562, Note_on_c, 1, 40, 0
4, 468000, Note_on_c, 1, 47, 106
4, 468079, Note_on_c, 1, 48, 0
4, 468438, Note_on_c, 1, 47, 0
4, 468480, Note_on_c, 1, 45, 111
4, 469920, Note_on_c, 1, 40, 80
4, 469985, Note_on_c, 1, 40, 0
4, 470400, Note_on_c, 1, 36, 106
4, 471091, Note_on_c, 1, 45, 0
4, 471840, Note_on_c, 1, 38, 111
4, 471889, Note_on_c, 1, 36, 0
4, 473760, Note_on_c, 1, 40, 125
4, 473796, Note_on_c, 1, 38, 0
4, 474577, Note_on_c, 1, 40, 0
4, 474720, Note_on_c, 1, 40, 114
4, 475680, Note_on_c, 1, 31, 122
4, 475722, Note_on_c, 1, 40, 0
4, 476150, Note_on_c, 1, 31, 0
4, 476160, Note_on_c, 1, 33, 121
4, 477600, Note_on_c, 1, 36, 123
4, 477669, Note_on_c, 1, 33, 0
4, 479520, Note_on_c, 1, 38, 125
4, 479600, Note_on_c, 1, 36, 0
4, 481434, Note_on_c, 1, 38, 0
4, 481440, Note_on_c, 1, 40, 122
4, 482400, Note_on_c, 1, 45, 83
4, 482467, Note_on_c, 1, 45, 0
4, 482880, Note_on_c, 1, 48, 127
4, 482884, Note_on_c, 1, 40, 0
4, 483360, Note_on_c, 1, 47, 111
4, 483423, Note_on_c, 1, 48, 0
4, 483798, Note_on_c, 1, 47, 0
4, 483840, Note_on_c, 1, 45, 118
4, 485280, Note_on_c, 1, 40, 96
4, 485384, Note_on_c, 1, 40, 0
4, 485748, Note_on_c, 1, 45, 0
4, 485760, Note_on_c, 1, 36, 119
4, 487129, Note_on_c, 1, 36, 0
4, 487200, Note_on_c, 1, 38, 127
4, 489120, Note_on_c, 1, 40, 127
4, 489154, Note_on_c, 1, 38, 0
4, 490560, Note_on_c, 1, 48, 127
4, 490601, Note_on_c, 1, 40, 0
4, 491019, Note_on_c, 1, 48, 0
4, 491040, Note_on_c, 1, 47, 117
4, 491156, Note_on_c, 1, 47, 0
4, 491156, End_track
5, 0, Start_track
5, 0, Title_t, "Drums"
5, 0, Program_c, 9, 0
5, 0, Note_on_c, 9, 44, 47
5, 0, Note_on_c, 9, 45, 62
5, 0, Note_on_c, 9, 51, 77
5, 55, Note_on_c, 9, 45, 0
5, 107, Note_on_c, 9, 51, 0
5, 176, Note_on_c, 9, 44, 0
5, 480, Note_on_c, 9, 51, 54
5, 541, Note_on_c, 9, 51, 0
5, 960, Note_on_c, 9, 44, 47
5, 960, Note_on_c, 9, 51, 53
5, 1058, Note_on_c, 9, 51, 0
5, 1200, Note_on_c, 9, 51, 36
5, 1287, Note_on_c, 9, 51, 0
5, 1379, Note_on_c, 9, 44, 0
5, 1440, Note_on_c, 9, 51, 31
5, 1512, Note_on_c, 9, 51, 0
5, 1920, Note_on_c, 9, 44, 39
5, 1920, Note_on_c, 9, 51, 69
5, 2058, Note_on_c, 9, 51, 0
5, 2160, Note_on_c, 9, 51, 50
5, 2285, Note_on_c, 9, 51, 0
5, 2288, Note_on_c, 9, 44, 0
5, 2400, Note_on_c, 9, 37, 36
5, 2400, Note_on_c, 9, 51, 60
5, 2454, Note_on_c, 9, 51, 0
5, 2496, Note_on_c, 9, 37, 0
5, 2880, Note_on_c, 9, 44, 44
5, 2880, Note_on_c, 9, 51, 71
5, 2997, Note_on_c, 9, 51, 0
5, 3248, Note_on_c, 9, 44, 0
5, 3360, Note_on_c, 9, 51, 59
5, 3462, Note_on_c, 9, 51, 0
5, 3600, Note_on_c, 9, 51, 69
5, 3704, Note_on_c, 9, 51, 0
5, 3840, Note_on_c, 9, 44, 46
5, 3840, Note_on_c, 9, 51, 64
5, 3973, Note_on_c, 9, 51, 0
5, 4237, Note_on_c, 9, 44, 0
5, 4320, Note_on_c, 9, 37, 27
5, 4320, Note_on_c, 9, 51, 69
5, 4398, Note_on_c, 9, 51, 0
5, 4406, Note_on_c, 9, 37, 0
5, 4800, Note_on_c, 9, 44, 44
5, 4800, Note_on_c, 9, 37, 44
5, 4800, Note_on_c, 9, 51, 59
5, 4880, Note_on_c, 9, 51, 0
5, 5039, Note_on_c, 9, 37, 0
5, 5040, Note_on_c, 9, 51, 45
5, 5181, Note_on_c, 9, 51, 0
5, 5225, Note_on_c, 9, 44, 0
5, 5280, Note_on_c, 9, 51, 62
5, 5280, Note_on_c, 9, 36, 38
5, 5368, Note_on_c, 9, 36, 0
5, 5403, Note_on_c, 9, 51, 0
5, 5760, Note_on_c, 9, 44, 50
5, 5760, Note_on_c, 9, 37, 48
5, 5760, Note_on_c, 9, 51, 67
5, 5878, Note_on_c, 9, 51, 0
5, 6000, Note_on_c, 9, 51, 70
5, 6110, Note_on_c, 9, 51, 0
5, 6160, Note_on_c, 9, 44, 0
5, 6240, Note_on_c, 9, 51, 57
5, 6250, Note_on_c, 9, 37, 0
5, 6347, Note_on_c, 9, 51, 0
5, 6720, Note_on_c, 9, 44, 55
5, 6720, Note_on_c, 9, 51, 64
5, 6833, Note_on_c, 9, 51, 0
5, 6960, Note_on_c, 9, 51, 56
5, 7069, Note_on_c, 9, 51, 0
5, 7094, Note_on_c, 9, 44, 0
5, 7200, Note_on_c, 9, 51, 71
5, 7200, Note_on_c, 9, 37, 85
5, 7280, Note_on_c, 9, 51, 0
5, 7432, Note_on_c, 9, 37, 0
5, 7680, Note_on_c, 9, 44, 52
5, 7680, Note_on_c, 9, 37, 49
5, 7680, Note_on_c, 9, 51, 74
5, 7790, Note_on_c, 9, 51, 0
5, 7815, Note_on_c, 9, 37, 0
5, 8071, Note_on_c, 9, 44, 0
5, 8160, Note_on_c, 9, 36, 29
5, 8160, Note_on_c, 9, 51, 64
5, 8214, Note_on_c, 9, 51, 0
5, 8307, Note_on_c, 9, 36, 0
5, 8640, Note_on_c, 9, 44, 54
5, 8640, Note_on_c, 9, 37, 27
5, 8640, Note_on_c, 9, 51, 77
5, 8718, Note_on_c, 9, 37, 0
5, 8751, Note_on_c, 9, 51, 0
5, 9031, Note_on_c, 9, 44, 0
5, 9120, Note_on_c, 9, 51, 69
5, 9120, Note_on_c, 9, 37, 38
5, 9190, Note_on_c, 9, 37, 0
5, 9223, Note_on_c, 9, 51, 0
5, 9600, Note_on_c, 9, 44, 53
5, 9600, Note_on_c, 9, 51, 72
5, 9677, Note_on_c, 9, 51, 0
5, 9935, Note_on_c, 9, 44, 0
5, 10080, Note_on_c, 9, 51, 86
5, 10080, Note_on_c, 9, 36, 30
5, 10190, Note_on_c, 9, 51, 0
5, 10212, Note_on_c, 9, 36, 0
5, 10560, Note_on_c, 9, 44, 55
5, 10560, Note_on_c, 9, 51, 91
5, 10699, Note_on_c, 9, 51, 0
5, 10929, Note_on_c, 9, 44, 0
5, 11040, Note_on_c, 9, 51, 43
5, 11040, Note_on_c, 9, 36, 19
5, 11206, Note_on_c, 9, 51, 0
5, 11269, Note_on_c, 9, 36, 0
5, 11520, Note_on_c, 9, 44, 54
5, 11520, Note_on_c, 9, 51, 62
5, 11520, Note_on_c, 9, 37, 42
5, 11577, Note_on_c, 9, 37, 0
5, 11648, Note_on_c, 9, 51, 0
5, 11760, Note_on_c, 9, 51, 51
5, 11873, Note_on_c, 9, 51, 0
5, 11881, Note_on_c, 9, 44, 0
5, 12000, Note_on_c, 9, 51, 69
5, 12000, Note_on_c, 9, 37, 80
5, 12131, Note_on_c, 9, 37, 0
5, 12157, Note_on_c, 9, 51, 0
5, 12480, Note_on_c, 9, 44, 46
5, 12480, Note_on_c, 9, 51, 79
5, 12480, Note_on_c, 9, 36, 33
5, 12591, Note_on_c, 9, 36, 0
5, 12626, Note_on_c, 9, 51, 0
5, 12840, Note_on_c, 9, 44, 0
5, 12960, Note_on_c, 9, 51, 80
5, 12960, Note_on_c, 9, 37, 49
5, 13088, Note_on_c, 9, 51, 0
5, 13178, Note_on_c, 9, 37, 0
5, 13440, Note_on_c, 9, 44, 47
5, 13440, Note_on_c, 9, 51, 73
5, 13575, Note_on_c, 9, 51, 0
5, 13680, Note_on_c, 9, 53, 63
5, 13815, Note_on_c, 9, 44, 0
5, 13859, Note_on_c, 9, 53, 0
5, 13920, Note_on_c, 9, 51, 49
5, 13920, Note_on_c, 9, 36, 34
5, 14026, Note_on_c, 9, 36, 0
5, 14120, Note_on_c, 9, 51, 0
5, 14400, Note_on_c, 9, 51, 64
5, 14400, Note_on_c, 9, 44, 48
5, 14400, Note_on_c, 9, 37, 30
5, 14470, Note_on_c, 9, 37, 0
5, 14542, Note_on_c, 9, 51, 0
5, 14640, Note_on_c, 9, 37, 59
5, 14736, Note_on_c, 9, 37, 0
5, 14762, Note_on_c, 9, 44, 0
5, 14880, Note_on_c, 9, 51, 50
5, 14880, Note_on_c, 9, 36, 53
5, 14989, Note_on_c, 9, 51, 0
5, 15083, Note_on_c, 9, 36, 0
5, 15120, Note_on_c, 9, 51, 65
5, 15259, Note_on_c, 9, 51, 0
5, 15360, Note_on_c, 9, 51, 67
5, 15360, Note_on_c, 9, 44, 50
5, 15360, Note_on_c, 9, 36, 28
5, 15487, Note_on_c, 9, 51, 0
5, 15492, Note_on_c, 9, 36, 0
5, 15720, Note_on_c, 9, 44, 0
5, 15840, Note_on_c, 9, 36, 46
5, 15840, Note_on_c, 9, 51, 69
5, 15963, Note_on_c, 9, 51, 0
5, 16011, Note_on_c, 9, 36, 0
5, 16080, Note_on_c, 9, 40, 27
5, 16153, Note_on_c, 9, 40, 0
5, 16320, Note_on_c, 9, 44, 50
5, 16320, Note_on_c, 9, 37, 31
5, 16320, Note_on_c, 9, 51, 64
5, 16447, Note_on_c, 9, 51, 0
5, 16536, Note_on_c, 9, 37, 0
5, 16560, Note_on_c, 9, 51, 52
5, 16672, Note_on_c, 9, 44, 0
5, 16688, Note_on_c, 9, 51, 0
5, 16800, Note_on_c, 9, 40, 33
5, 16800, Note_on_c, 9, 51, 67
5, 16800, Note_on_c, 9, 36, 35
5, 16886, Note_on_c, 9, 40, 0
5, 16919, Note_on_c, 9, 51, 0
5, 16938, Note_on_c, 9, 36, 0
5, 17280, Note_on_c, 9, 44, 54
5, 17520, Note_on_c, 9, 51, 59
5, 17634, Note_on_c, 9, 51, 0
5, 17650, Note_on_c, 9, 44, 0
5, 17760, Note_on_c, 9, 36, 34
5, 17760, Note_on_c, 9, 51, 72
5, 17915, Note_on_c, 9, 51, 0
5, 17932, Note_on_c, 9, 36, 0
5, 18240, Note_on_c, 9, 44, 57
5, 18240, Note_on_c, 9, 51, 67
5, 18340, Note_on_c, 9, 51, 0
5, 18480, Note_on_c, 9, 51, 56
5, 18576, Note_on_c, 9, 44, 0
5, 18608, Note_on_c, 9, 51, 0
5, 18720, Note_on_c, 9, 37, 51
5, 18720, Note_on_c, 9, 51, 76
5, 18797, Note_on_c, 9, 37, 0
5, 18923, Note_on_c, 9, 51, 0
5, 19200, Note_on_c, 9, 44, 57
5, 19200, Note_on_c, 9, 51, 69
5, 19200, Note_on_c, 9, 37, 62
5, 19258, Note_on_c, 9, 37, 0
5, 19302, Note_on_c, 9, 51, 0
5, 19571, Note_on_c, 9, 44, 0
5, 19680, Note_on_c, 9, 51, 79
5, 19680, Note_on_c, 9, 37, 59
5, 19741, Note_on_c, 9, 37, 0
5, 19802, Note_on_c, 9, 51, 0
5, 20160, Note_on_c, 9, 36, 40
5, 20160, Note_on_c, 9, 51, 76
5, 20160, Note_on_c, 9, 44, 57
5, 20299, Note_on_c, 9, 36, 0
5, 20317, Note_on_c, 9, 51, 0
5, 20400, Note_on_c, 9, 37, 51
5, 20459, Note_on_c, 9, 37, 0
5, 20543, Note_on_c, 9, 44, 0
5, 20640, Note_on_c, 9, 51, 50
5, 20776, Note_on_c, 9, 51, 0
5, 21120, Note_on_c, 9, 51, 72
5, 21120, Note_on_c, 9, 44, 51
5, 21248, Note_on_c, 9, 51, 0
5, 21488, Note_on_c, 9, 44, 0
5, 21600, Note_on_c, 9, 51, 64
5, 21600, Note_on_c, 9, 37, 49
5, 21657, Note_on_c, 9, 37, 0
5, 21743, Note_on_c, 9, 51, 0
5, 22080, Note_on_c, 9, 44, 53
5, 22080, Note_on_c, 9, 51, 72
5, 22211, Note_on_c, 9, 51, 0
5, 22320, Note_on_c, 9, 37, 62
5, 22445, Note_on_c, 9, 44, 0
5, 22456, Note_on_c, 9, 37, 0
5, 22560, Note_on_c, 9, 59, 82
5, 22560, Note_on_c, 9, 51, 82
5, 22560, Note_on_c, 9, 36, 53
5, 22736, Note_on_c, 9, 59, 0
5, 22737, Note_on_c, 9, 36, 0
5, 22804, Note_on_c, 9, 51, 0
5, 23040, Note_on_c, 9, 44, 56
5, 23040, Note_on_c, 9, 51, 47
5, 23040, Note_on_c, 9, 36, 39
5, 23171, Note_on_c, 9, 51, 0
5, 23188, Note_on_c, 9, 36, 0
5, 23383, Note_on_c, 9, 44, 0
5, 23520, Note_on_c, 9, 36, 43
5, 23520, Note_on_c, 9, 51, 69
5, 23657, Note_on_c, 9, 51, 0
5, 23776, Note_on_c, 9, 36, 0
5, 24000, Note_on_c, 9, 44, 49
5, 24000, Note_on_c, 9, 51, 53
5, 24000, Note_on_c, 9, 37, 60
5, 24075, Note_on_c, 9, 37, 0
5, 24117, Note_on_c, 9, 51, 0
5, 24336, Note_on_c, 9, 44, 0
5, 24480, Note_on_c, 9, 36, 38
5, 24480, Note_on_c, 9, 51, 72
5, 24597, Note_on_c, 9, 51, 0
5, 24675, Note_on_c, 9, 36, 0
5, 24960, Note_on_c, 9, 51, 47
5, 24960, Note_on_c, 9, 44, 52
5, 24960, Note_on_c, 9, 37, 40
5, 25015, Note_on_c, 9, 37, 0
5, 25096, Note_on_c, 9, 51, 0
5, 25200, Note_on_c, 9, 59, 68
5, 25298, Note_on_c, 9, 44, 0
5, 25385, Note_on_c, 9, 59, 0
5, 25440, Note_on_c, 9, 36, 55
5, 25440, Note_on_c, 9, 51, 48
5, 25531, Note_on_c, 9, 51, 0
5, 25629, Note_on_c, 9, 36, 0
5, 25920, Note_on_c, 9, 51, 59
5, 25920, Note_on_c, 9, 44, 58
5, 26049, Note_on_c, 9, 51, 0
5, 26267, Note_on_c, 9, 44, 0
5, 26400, Note_on_c, 9, 51, 51
5, 26400, Note_on_c, 9, 37, 48
5, 26458, Note_on_c, 9, 37, 0
5, 26511, Note_on_c, 9, 51, 0
5, 26880, Note_on_c, 9, 51, 74
5, 26880, Note_on_c, 9, 44, 61
5, 26880, Note_on_c, 9, 37, 56
5, 26954, Note_on_c, 9, 37, 0
5, 27037, Note_on_c, 9, 51, 0
5, 27226, Note_on_c, 9, 44, 0
5, 27360, Note_on_c, 9, 51, 37
5, 27360, Note_on_c, 9, 36, 26
5, 27360, Note_on_c, 9, 45, 55
5, 27414, Note_on_c, 9, 45, 0
5, 27456, Note_on_c, 9, 51, 0
5, 27510, Note_on_c, 9, 36, 0
5, 27840, Note_on_c, 9, 44, 48
5, 27840, Note_on_c, 9, 51, 72
5, 27840, Note_on_c, 9, 37, 35
5, 27959, Note_on_c, 9, 37, 0
5, 27997, Note_on_c, 9, 51, 0
5, 28182, Note_on_c, 9, 44, 0
5, 28320, Note_on_c, 9, 45, 73
5, 28320, Note_on_c, 9, 51, 62
5, 28320, Note_on_c, 9, 36, 31
5, 28392, Note_on_c, 9, 45, 0
5, 28418, Note_on_c, 9, 51, 0
5, 28518, Note_on_c, 9, 36, 0
5, 28800, Note_on_c, 9, 44, 55
5, 28800, Note_on_c, 9, 51, 74
5, 28800, Note_on_c, 9, 37, 48
5, 28854, Note_on_c, 9, 37, 0
5, 28933, Note_on_c, 9, 51, 0
5, 29040, Note_on_c, 9, 51, 53
5, 29159, Note_on_c, 9, 44, 0
5, 29195, Note_on_c, 9, 51, 0
5, 29280, Note_on_c, 9, 45, 74
5, 29280, Note_on_c, 9, 51, 55
5, 29280, Note_on_c, 9, 37, 48
5, 29334, Note_on_c, 9, 37, 0
5, 29336, Note_on_c, 9, 51, 0
5, 29381, Note_on_c, 9, 45, 0
5, 29760, Note_on_c, 9, 44, 51
5, 29760, Note_on_c, 9, 51, 61
5, 29760, Note_on_c, 9, 37, 67
5, 29858, Note_on_c, 9, 37, 0
5, 29878, Note_on_c, 9, 51, 0
5, 30000, Note_on_c, 9, 51, 71
5, 30077, Note_on_c, 9, 44, 0
5, 30138, Note_on_c, 9, 51, 0
5, 30240, Note_on_c, 9, 38, 56
5, 30240, Note_on_c, 9, 51, 61
5, 30240, Note_on_c, 9, 36, 32
5, 30347, Note_on_c, 9, 51, 0
5, 30378, Note_on_c, 9, 38, 0
5, 30445, Note_on_c, 9, 36, 0
5, 30720, Note_on_c, 9, 57, 71
5, 30720, Note_on_c, 9, 36, 57
5, 30720, Note_on_c, 9, 44, 53
5, 30720, Note_on_c, 9, 51, 78
5, 30778, Note_on_c, 9, 36, 0
5, 30785, Note_on_c, 9, 57, 0
5, 30853, Note_on_c, 9, 51, 0
5, 31095, Note_on_c, 9, 44, 0
5, 31200, Note_on_c, 9, 51, 56
5, 31200, Note_on_c, 9, 36, 32
5, 31309, Note_on_c, 9, 36, 0
5, 31312, Note_on_c, 9, 51, 0
5, 31680, Note_on_c, 9, 44, 51
5, 31680, Note_on_c, 9, 51, 67
5, 31680, Note_on_c, 9, 37, 57
5, 31734, Note_on_c, 9, 37, 0
5, 31801, Note_on_c, 9, 51, 0
5, 32039, Note_on_c, 9, 44, 0
5, 32160, Note_on_c, 9, 51, 64
5, 32160, Note_on_c, 9, 36, 33
5, 32258, Note_on_c, 9, 36, 0
5, 32267, Note_on_c, 9, 51, 0
5, 32640, Note_on_c, 9, 44, 56
5, 32640, Note_on_c, 9, 51, 67
5, 32762, Note_on_c, 9, 51, 0
5, 32999, Note_on_c, 9, 44, 0
5, 33120, Note_on_c, 9, 38, 51
5, 33120, Note_on_c, 9, 51, 77
5, 33120, Note_on_c, 9, 36, 41
5, 33188, Note_on_c, 9, 38, 0
5, 33264, Note_on_c, 9, 51, 0
5, 33294, Note_on_c, 9, 36, 0
5, 33600, Note_on_c, 9, 44, 50
5, 33600, Note_on_c, 9, 57, 62
5, 33600, Note_on_c, 9, 36, 58
5, 33600, Note_on_c, 9, 51, 69
5, 33654, Note_on_c, 9, 57, 0
5, 33661, Note_on_c, 9, 36, 0
5, 33741, Note_on_c, 9, 51, 0
5, 33944, Note_on_c, 9, 44, 0
5, 34080, Note_on_c, 9, 51, 61
5, 34080, Note_on_c, 9, 36, 57
5, 34080, Note_on_c, 9, 53, 50
5, 34202, Note_on_c, 9, 36, 0
5, 34245, Note_on_c, 9, 51, 0
5, 34276, Note_on_c, 9, 53, 0
5, 34560, Note_on_c, 9, 44, 52
5, 34560, Note_on_c, 9, 51, 59
5, 34560, Note_on_c, 9, 37, 67
5, 34615, Note_on_c, 9, 37, 0
5, 34710, Note_on_c, 9, 51, 0
5, 34911, Note_on_c, 9, 44, 0
5, 35040, Note_on_c, 9, 37, 70
5, 35040, Note_on_c, 9, 51, 62
5, 35095, Note_on_c, 9, 37, 0
5, 35205, Note_on_c, 9, 51, 0
5, 35520, Note_on_c, 9, 51, 56
5, 35520, Note_on_c, 9, 36, 32
5, 35520, Note_on_c, 9, 44, 55
5, 35667, Note_on_c, 9, 51, 0
5, 35679, Note_on_c, 9, 36, 0
5, 35880, Note_on_c, 9, 44, 0
5, 36000, Note_on_c, 9, 51, 65
5, 36000, Note_on_c, 9, 53, 55
5, 36000, Note_on_c, 9, 37, 29
5, 36054, Note_on_c, 9, 37, 0
5, 36175, Note_on_c, 9, 51, 0
5, 36181, Note_on_c, 9, 53, 0
5, 36480, Note_on_c, 9, 51, 38
5, 36480, Note_on_c, 9, 44, 47
5, 36480, Note_on_c, 9, 37, 50
5, 36534, Note_on_c, 9, 37, 0
5, 36661, Note_on_c, 9, 51, 0
5, 36938, Note_on_c, 9, 44, 0
5, 36960, Note_on_c, 9, 59, 72
5, 36960, Note_on_c, 9, 51, 67
5, 36960, Note_on_c, 9, 36, 24
5, 37054, Note_on_c, 9, 36, 0
5, 37102, Note_on_c, 9, 51, 0
5, 37162, Note_on_c, 9, 59, 0
5, 37440, Note_on_c, 9, 51, 55
5, 37440, Note_on_c, 9, 37, 67
5, 37440, Note_on_c, 9, 44, 54
5, 37440, Note_on_c, 9, 38, 44
5, 37499, Note_on_c, 9, 38, 0
5, 37532, Note_on_c, 9, 37, 0
5, 37596, Note_on_c, 9, 51, 0
5, 37737, Note_on_c, 9, 44, 0
5, 37920, Note_on_c, 9, 37, 49
5, 37920, Note_on_c, 9, 38, 52
5, 37920, Note_on_c, 9, 52, 66
5, 37980, Note_on_c, 9, 38, 0
5, 38031, Note_on_c, 9, 37, 0
5, 38072, Note_on_c, 9, 52, 0
5, 38400, Note_on_c, 9, 51, 61
5, 38400, Note_on_c, 9, 36, 33
5, 38400, Note_on_c, 9, 44, 51
5, 38605, Note_on_c, 9, 36, 0
5, 38605, Note_on_c, 9, 51, 0
5, 38787, Note_on_c, 9, 44, 0
5, 38880, Note_on_c, 9, 51, 62
5, 38880, Note_on_c, 9, 36, 33
5, 38999, Note_on_c, 9, 36, 0
5, 39051, Note_on_c, 9, 51, 0
5, 39360, Note_on_c, 9, 51, 51
5, 39360, Note_on_c, 9, 37, 62
5, 39360, Note_on_c, 9, 44, 49
5, 39427, Note_on_c, 9, 51, 0
5, 39453, Note_on_c, 9, 37, 0
5, 39690, Note_on_c, 9, 44, 0
5, 39840, Note_on_c, 9, 36, 30
5, 39840, Note_on_c, 9, 51, 77
5, 39970, Note_on_c, 9, 36, 0
5, 39976, Note_on_c, 9, 51, 0
5, 40320, Note_on_c, 9, 51, 42
5, 40320, Note_on_c, 9, 37, 42
5, 40320, Note_on_c, 9, 44, 48
5, 40377, Note_on_c, 9, 37, 0
5, 40441, Note_on_c, 9, 51, 0
5, 40560, Note_on_c, 9, 51, 33
5, 40670, Note_on_c, 9, 51, 0
5, 40698, Note_on_c, 9, 44, 0
5, 40800, Note_on_c, 9, 51, 57
5, 40800, Note_on_c, 9, 37, 75
5, 40917, Note_on_c, 9, 51, 0
5, 41062, Note_on_c, 9, 37, 0
5, 41280, Note_on_c, 9, 36, 24
5, 41280, Note_on_c, 9, 51, 71
5, 41280, Note_on_c, 9, 44, 49
5, 41280, Note_on_c, 9, 44, 45
5, 41378, Note_on_c, 9, 36, 0
5, 41390, Note_on_c, 9, 51, 0
5, 41520, Note_on_c, 9, 51, 65
5, 41571, Note_on_c, 9, 44, 0
5, 41573, Note_on_c, 9, 44, 0
5, 41672, Note_on_c, 9, 51, 0
5, 41760, Note_on_c, 9, 36, 37
5, 41760, Note_on_c, 9, 51, 49
5, 41829, Note_on_c, 9, 51, 0
5, 41896, Note_on_c, 9, 36, 0
5, 42240, Note_on_c, 9, 44, 57
5, 42240, Note_on_c, 9, 51, 70
5, 42363, Note_on_c, 9, 51, 0
5, 42720, Note_on_c, 9, 51, 51
5, 42720, Note_on_c, 9, 36, 29
5, 42757, Note_on_c, 9, 44, 0
5, 42834, Note_on_c, 9, 51, 0
5, 42889, Note_on_c, 9, 36, 0
5, 43200, Note_on_c, 9, 51, 67
5, 43200, Note_on_c, 9, 44, 51
5, 43325, Note_on_c, 9, 51, 0
5, 43440, Note_on_c, 9, 37, 54
5, 43569, Note_on_c, 9, 37, 0
5, 43585, Note_on_c, 9, 44, 0
5, 43680, Note_on_c, 9, 37, 59
5, 43680, Note_on_c, 9, 51, 57
5, 43767, Note_on_c, 9, 37, 0
5, 43802, Note_on_c, 9, 51, 0
5, 44160, Note_on_c, 9, 36, 46
5, 44160, Note_on_c, 9, 51, 60
5, 44160, Note_on_c, 9, 44, 56
5, 44282, Note_on_c, 9, 51, 0
5, 44291, Note_on_c, 9, 36, 0
5, 44400, Note_on_c, 9, 51, 61
5, 44526, Note_on_c, 9, 51, 0
5, 44539, Note_on_c, 9, 44, 0
5, 44640, Note_on_c, 9, 51, 55
5, 44640, Note_on_c, 9, 36, 45
5, 44748, Note_on_c, 9, 51, 0
5, 44785, Note_on_c, 9, 36, 0
5, 45120, Note_on_c, 9, 44, 57
5, 45120, Note_on_c, 9, 51, 57
5, 45120, Note_on_c, 9, 37, 57
5, 45174, Note_on_c, 9, 37, 0
5, 45243, Note_on_c, 9, 51, 0
5, 45360, Note_on_c, 9, 51, 55
5, 45479, Note_on_c, 9, 44, 0
5, 45485, Note_on_c, 9, 51, 0
5, 45600, Note_on_c, 9, 36, 47
5, 45600, Note_on_c, 9, 51, 52
5, 45600, Note_on_c, 9, 38, 48
5, 45656, Note_on_c, 9, 38, 0
5, 45672, Note_on_c, 9, 51, 0
5, 45759, Note_on_c, 9, 36, 0
5, 46080, Note_on_c, 9, 36, 41
5, 46080, Note_on_c, 9, 44, 51
5, 46080, Note_on_c, 9, 51, 71
5, 46236, Note_on_c, 9, 51, 0
5, 46242, Note_on_c, 9, 36, 0
5, 46320, Note_on_c, 9, 51, 57
5, 46435, Note_on_c, 9, 51, 0
5, 46456, Note_on_c, 9, 44, 0
5, 46560, Note_on_c, 9, 51, 52
5, 46560, Note_on_c, 9, 37, 44
5, 46635, Note_on_c, 9, 37, 0
5, 46678, Note_on_c, 9, 51, 0
5, 47040, Note_on_c, 9, 44, 50
5, 47040, Note_on_c, 9, 51, 71
5, 47152, Note_on_c, 9, 51, 0
5, 47413, Note_on_c, 9, 44, 0
5, 47520, Note_on_c, 9, 38, 22
5, 47520, Note_on_c, 9, 36, 35
5, 47520, Note_on_c, 9, 51, 48
5, 47592, Note_on_c, 9, 51, 0
5, 47597, Note_on_c, 9, 36, 0
5, 47680, Note_on_c, 9, 38, 0
5, 47760, Note_on_c, 9, 51, 45
5, 47888, Note_on_c, 9, 51, 0
5, 48000, Note_on_c, 9, 51, 71
5, 48000, Note_on_c, 9, 44, 53
5, 48000, Note_on_c, 9, 37, 53
5, 48054, Note_on_c, 9, 37, 0
5, 48110, Note_on_c, 9, 51, 0
5, 48354, Note_on_c, 9, 44, 0
5, 48480, Note_on_c, 9, 38, 43
5, 48480, Note_on_c, 9, 51, 69
5, 48480, Note_on_c, 9, 36, 39
5, 48558, Note_on_c, 9, 36, 0
5, 48560, Note_on_c, 9, 38, 0
5, 48586, Note_on_c, 9, 51, 0
5, 48960, Note_on_c, 9, 44, 47
5, 48960, Note_on_c, 9, 37, 37
5, 48960, Note_on_c, 9, 51, 57
5, 49014, Note_on_c, 9, 37, 0
5, 49055, Note_on_c, 9, 51, 0
5, 49200, Note_on_c, 9, 51, 56
5, 49289, Note_on_c, 9, 44, 0
5, 49323, Note_on_c, 9, 51, 0
5, 49440, Note_on_c, 9, 51, 62
5, 49440, Note_on_c, 9, 38, 46
5, 49440, Note_on_c, 9, 37, 79
5, 49545, Note_on_c, 9, 37, 0
5, 49577, Note_on_c, 9, 51, 0
5, 49585, Note_on_c, 9, 38, 0
5, 49920, Note_on_c, 9, 37, 82
5, 49920, Note_on_c, 9, 44, 43
5, 49920, Note_on_c, 9, 51, 67
5, 50042, Note_on_c, 9, 37, 0
5, 50048, Note_on_c, 9, 51, 0
5, 50160, Note_on_c, 9, 51, 29
5, 50288, Note_on_c, 9, 44, 0
5, 50296, Note_on_c, 9, 51, 0
5, 50400, Note_on_c, 9, 36, 28
5, 50400, Note_on_c, 9, 38, 56
5, 50496, Note_on_c, 9, 36, 0
5, 50553, Note_on_c, 9, 38, 0
5, 50880, Note_on_c, 9, 37, 35
5, 50880, Note_on_c, 9, 51, 74
5, 50880, Note_on_c, 9, 44, 48
5, 50967, Note_on_c, 9, 37, 0
5, 50989, Note_on_c, 9, 51, 0
5, 51222, Note_on_c, 9, 44, 0
5, 51360, Note_on_c, 9, 37, 39
5, 51360, Note_on_c, 9, 38, 54
5, 51360, Note_on_c, 9, 51, 58
5, 51415, Note_on_c, 9, 37, 0
5, 51424, Note_on_c, 9, 51, 0
5, 51566, Note_on_c, 9, 38, 0
5, 51840, Note_on_c, 9, 37, 48
5, 51840, Note_on_c, 9, 51, 55
5, 51840, Note_on_c, 9, 44, 55
5, 51894, Note_on_c, 9, 51, 0
5, 51912, Note_on_c, 9, 37, 0
5, 52080, Note_on_c, 9, 37, 49
5, 52152, Note_on_c, 9, 37, 0
5, 52212, Note_on_c, 9, 44, 0
5, 52320, Note_on_c, 9, 38, 61
5, 52320, Note_on_c, 9, 36, 52
5, 52320, Note_on_c, 9, 51, 55
5, 52389, Note_on_c, 9, 51, 0
5, 52394, Note_on_c, 9, 36, 0
5, 52508, Note_on_c, 9, 38, 0
5, 52800, Note_on_c, 9, 44, 53
5, 52800, Note_on_c, 9, 51, 69
5, 52931, Note_on_c, 9, 51, 0
5, 53040, Note_on_c, 9, 51, 59
5, 53108, Note_on_c, 9, 44, 0
5, 53151, Note_on_c, 9, 51, 0
5, 53280, Note_on_c, 9, 38, 56
5, 53280, Note_on_c, 9, 51, 56
5, 53280, Note_on_c, 9, 37, 61
5, 53339, Note_on_c, 9, 37, 0
5, 53350, Note_on_c, 9, 51, 0
5, 53505, Note_on_c, 9, 38, 0
5, 53520, Note_on_c, 9, 37, 55
5, 53592, Note_on_c, 9, 37, 0
5, 53760, Note_on_c, 9, 57, 60
5, 53760, Note_on_c, 9, 36, 48
5, 53760, Note_on_c, 9, 44, 56
5, 53760, Note_on_c, 9, 51, 70
5, 53760, Note_on_c, 9, 36, 41
5, 53874, Note_on_c, 9, 36, 0
5, 53890, Note_on_c, 9, 51, 0
5, 54000, Note_on_c, 9, 51, 56
5, 54123, Note_on_c, 9, 51, 0
5, 54125, Note_on_c, 9, 57, 0
5, 54153, Note_on_c, 9, 44, 0
5, 54240, Note_on_c, 9, 51, 49
5, 54240, Note_on_c, 9, 36, 22
5, 54329, Note_on_c, 9, 36, 0
5, 54334, Note_on_c, 9, 51, 0
5, 54720, Note_on_c, 9, 44, 43
5, 54720, Note_on_c, 9, 37, 59
5, 54720, Note_on_c, 9, 51, 67
5, 54850, Note_on_c, 9, 51, 0
5, 54866, Note_on_c, 9, 37, 0
5, 54889, Note_on_c, 9, 36, 0
5, 54960, Note_on_c, 9, 37, 63
5, 55051, Note_on_c, 9, 44, 0
5, 55059, Note_on_c, 9, 37, 0
5, 55200, Note_on_c, 9, 51, 58
5, 55200, Note_on_c, 9, 36, 36
5, 55307, Note_on_c, 9, 51, 0
5, 55344, Note_on_c, 9, 36, 0
5, 55440, Note_on_c, 9, 51, 62
5, 55568, Note_on_c, 9, 51, 0
5, 55680, Note_on_c, 9, 51, 57
5, 55680, Note_on_c, 9, 44, 45
5, 55680, Note_on_c, 9, 36, 34
5, 55790, Note_on_c, 9, 51, 0
5, 55826, Note_on_c, 9, 36, 0
5, 56016, Note_on_c, 9, 44, 0
5, 56160, Note_on_c, 9, 51, 72
5, 56160, Note_on_c, 9, 36, 46
5, 56262, Note_on_c, 9, 51, 0
5, 56292, Note_on_c, 9, 36, 0
5, 56640, Note_on_c, 9, 51, 74
5, 56640, Note_on_c, 9, 44, 51
5, 56640, Note_on_c, 9, 37, 60
5, 56694, Note_on_c, 9, 37, 0
5, 56793, Note_on_c, 9, 51, 0
5, 56880, Note_on_c, 9, 51, 67
5, 56998, Note_on_c, 9, 51, 0
5, 57016, Note_on_c, 9, 44, 0
5, 57120, Note_on_c, 9, 36, 34
5, 57120, Note_on_c, 9, 51, 59
5, 57215, Note_on_c, 9, 51, 0
5, 57289, Note_on_c, 9, 36, 0
5, 57600, Note_on_c, 9, 37, 54
5, 57600, Note_on_c, 9, 44, 38
5, 57600, Note_on_c, 9, 51, 67
5, 57654, Note_on_c, 9, 37, 0
5, 57662, Note_on_c, 9, 51, 0
5, 57947, Note_on_c, 9, 44, 0
5, 58080, Note_on_c, 9, 37, 56
5, 58080, Note_on_c, 9, 51, 64
5, 58134, Note_on_c, 9, 37, 0
5, 58175, Note_on_c, 9, 51, 0
5, 58320, Note_on_c, 9, 51, 64
5, 58437, Note_on_c, 9, 51, 0
5, 58560, Note_on_c, 9, 36, 31
5, 58560, Note_on_c, 9, 44, 36
5, 58560, Note_on_c, 9, 51, 58
5, 58626, Note_on_c, 9, 36, 0
5, 58684, Note_on_c, 9, 51, 0
5, 58890, Note_on_c, 9, 44, 0
5, 59040, Note_on_c, 9, 36, 58
5, 59040, Note_on_c, 9, 51, 69
5, 59131, Note_on_c, 9, 51, 0
5, 59188, Note_on_c, 9, 36, 0
5, 59520, Note_on_c, 9, 44, 50
5, 59520, Note_on_c, 9, 51, 69
5, 59701, Note_on_c, 9, 51, 0
5, 59760, Note_on_c, 9, 51, 36
5, 59823, Note_on_c, 9, 51, 0
5, 59876, Note_on_c, 9, 44, 0
5, 60000, Note_on_c, 9, 36, 44
5, 60065, Note_on_c, 9, 36, 0
5, 60480, Note_on_c, 9, 51, 76
5, 60480, Note_on_c, 9, 44, 51
5, 60480, Note_on_c, 9, 44, 47
5, 60480, Note_on_c, 9, 37, 54
5, 60592, Note_on_c, 9, 51, 0
5, 60595, Note_on_c, 9, 37, 0
5, 60720, Note_on_c, 9, 37, 61
5, 60774, Note_on_c, 9, 37, 0
5, 60776, Note_on_c, 9, 44, 0
5, 60792, Note_on_c, 9, 44, 0
5, 60960, Note_on_c, 9, 38, 68
5, 60960, Note_on_c, 9, 51, 56
5, 60960, Note_on_c, 9, 36, 64
5, 61019, Note_on_c, 9, 51, 0
5, 61079, Note_on_c, 9, 38, 0
5, 61110, Note_on_c, 9, 36, 0
5, 61440, Note_on_c, 9, 51, 77
5, 61440, Note_on_c, 9, 57, 62
5, 61440, Note_on_c, 9, 36, 42
5, 61440, Note_on_c, 9, 44, 47
5, 61440, Note_on_c, 9, 51, 77
5, 61453, Note_on_c, 9, 51, 0
5, 61495, Note_on_c, 9, 57, 0
5, 61547, Note_on_c, 9, 51, 0
5, 61616, Note_on_c, 9, 44, 0
5, 61650, Note_on_c, 9, 36, 0
5, 61920, Note_on_c, 9, 51, 54
5, 61981, Note_on_c, 9, 51, 0
5, 62400, Note_on_c, 9, 44, 47
5, 62400, Note_on_c, 9, 51, 53
5, 62498, Note_on_c, 9, 51, 0
5, 62640, Note_on_c, 9, 51, 36
5, 62727, Note_on_c, 9, 51, 0
5, 62819, Note_on_c, 9, 44, 0
5, 62880, Note_on_c, 9, 51, 31
5, 62952, Note_on_c, 9, 51, 0
5, 63360, Note_on_c, 9, 44, 39
5, 63360, Note_on_c, 9, 51, 69
5, 63498, Note_on_c, 9, 51, 0
5, 63600, Note_on_c, 9, 51, 50
5, 63725, Note_on_c, 9, 51, 0
5, 63728, Note_on_c, 9, 44, 0
5, 63840, Note_on_c, 9, 37, 36
5, 63840, Note_on_c, 9, 51, 60
5, 63894, Note_on_c, 9, 51, 0
5, 63936, Note_on_c, 9, 37, 0
5, 64320, Note_on_c, 9, 44, 44
5, 64320, Note_on_c, 9, 51, 71
5, 64437, Note_on_c, 9, 51, 0
5, 64688, Note_on_c, 9, 44, 0
5, 64800, Note_on_c, 9, 51, 59
5, 64902, Note_on_c, 9, 51, 0
5, 65040, Note_on_c, 9, 51, 69
5, 65144, Note_on_c, 9, 51, 0
5, 65280, Note_on_c, 9, 44, 46
5, 65280, Note_on_c, 9, 51, 64
5, 65413, Note_on_c, 9, 51, 0
5, 65677, Note_on_c, 9, 44, 0
5, 65760, Note_on_c, 9, 37, 27
5, 65760, Note_on_c, 9, 51, 69
5, 65838, Note_on_c, 9, 51, 0
5, 65846, Note_on_c, 9, 37, 0
5, 66240, Note_on_c, 9, 44, 44
5, 66240, Note_on_c, 9, 37, 44
5, 66240, Note_on_c, 9, 51, 59
5, 66320, Note_on_c, 9, 51, 0
5, 66479, Note_on_c, 9, 37, 0
5, 66480, Note_on_c, 9, 51, 45
5, 66621, Note_on_c, 9, 51, 0
5, 66665, Note_on_c, 9, 44, 0
5, 66720, Note_on_c, 9, 51, 62
5, 66720, Note_on_c, 9, 36, 38
5, 66808, Note_on_c, 9, 36, 0
5, 66843, Note_on_c, 9, 51, 0
5, 67200, Note_on_c, 9, 44, 50
5, 67200, Note_on_c, 9, 37, 48
5, 67200, Note_on_c, 9, 51, 67
5, 67318, Note_on_c, 9, 51, 0
5, 67440, Note_on_c, 9, 51, 70
5, 67550, Note_on_c, 9, 51, 0
5, 67600, Note_on_c, 9, 44, 0
5, 67680, Note_on_c, 9, 51, 57
5, 67690, Note_on_c, 9, 37, 0
5, 67787, Note_on_c, 9, 51, 0
5, 68160, Note_on_c, 9, 44, 55
5, 68160, Note_on_c, 9, 51, 64
5, 68273, Note_on_c, 9, 51, 0
5, 68400, Note_on_c, 9, 51, 56
5, 68509, Note_on_c, 9, 51, 0
5, 68534, Note_on_c, 9, 44, 0
5, 68640, Note_on_c, 9, 51, 71
5, 68640, Note_on_c, 9, 37, 85
5, 68720, Note_on_c, 9, 51, 0
5, 68872, Note_on_c, 9, 37, 0
5, 69120, Note_on_c, 9, 44, 52
5, 69120, Note_on_c, 9, 37, 49
5, 69120, Note_on_c, 9, 51, 74
5, 69230, Note_on_c, 9, 51, 0
5, 69255, Note_on_c, 9, 37, 0
5, 69511, Note_on_c, 9, 44, 0
5, 69600, Note_on_c, 9, 36, 29
5, 69600, Note_on_c, 9, 51, 64
5, 69654, Note_on_c, 9, 51, 0
5, 69747, Note_on_c, 9, 36, 0
5, 70080, Note_on_c, 9, 44, 54
5, 70080, Note_on_c, 9, 37, 27
5, 70080, Note_on_c, 9, 51, 77
5, 70158, Note_on_c, 9, 37, 0
5, 70191, Note_on_c, 9, 51, 0
5, 70471, Note_on_c, 9, 44, 0
5, 70560, Note_on_c, 9, 51, 69
5, 70560, Note_on_c, 9, 37, 38
5, 70630, Note_on_c, 9, 37, 0
5, 70663, Note_on_c, 9, 51, 0
5, 71040, Note_on_c, 9, 44, 53
5, 71040, Note_on_c, 9, 51, 72
5, 71117, Note_on_c, 9, 51, 0
5, 71375, Note_on_c, 9, 44, 0
5, 71520, Note_on_c, 9, 51, 86
5, 71520, Note_on_c, 9, 36, 30
5, 71630, Note_on_c, 9, 51, 0
5, 71652, Note_on_c, 9, 36, 0
5, 72000, Note_on_c, 9, 44, 55
5, 72000, Note_on_c, 9, 51, 91
5, 72139, Note_on_c, 9, 51, 0
5, 72369, Note_on_c, 9, 44, 0
5, 72480, Note_on_c, 9, 51, 43
5, 72480, Note_on_c, 9, 38, 31
5, 72480, Note_on_c, 9, 36, 19
5, 72558, Note_on_c, 9, 38, 0
5, 72646, Note_on_c, 9, 51, 0
5, 72709, Note_on_c, 9, 36, 0
5, 72960, Note_on_c, 9, 44, 54
5, 72960, Note_on_c, 9, 51, 62
5, 72960, Note_on_c, 9, 37, 42
5, 73017, Note_on_c, 9, 37, 0
5, 73088, Note_on_c, 9, 51, 0
5, 73200, Note_on_c, 9, 51, 51
5, 73313, Note_on_c, 9, 51, 0
5, 73321, Note_on_c, 9, 44, 0
5, 73440, Note_on_c, 9, 51, 69
5, 73440, Note_on_c, 9, 37, 80
5, 73440, Note_on_c, 9, 38, 42
5, 73513, Note_on_c, 9, 38, 0
5, 73571, Note_on_c, 9, 37, 0
5, 73597, Note_on_c, 9, 51, 0
5, 73920, Note_on_c, 9, 44, 46
5, 73920, Note_on_c, 9, 51, 79
5, 73920, Note_on_c, 9, 36, 33
5, 74031, Note_on_c, 9, 36, 0
5, 74066, Note_on_c, 9, 51, 0
5, 74280, Note_on_c, 9, 44, 0
5, 74400, Note_on_c, 9, 51, 80
5, 74400, Note_on_c, 9, 37, 49
5, 74400, Note_on_c, 9, 38, 54
5, 74528, Note_on_c, 9, 51, 0
5, 74554, Note_on_c, 9, 38, 0
5, 74618, Note_on_c, 9, 37, 0
5, 74880, Note_on_c, 9, 44, 47
5, 74880, Note_on_c, 9, 51, 73
5, 75015, Note_on_c, 9, 51, 0
5, 75120, Note_on_c, 9, 53, 63
5, 75255, Note_on_c, 9, 44, 0
5, 75299, Note_on_c, 9, 53, 0
5, 75360, Note_on_c, 9, 51, 49
5, 75360, Note_on_c, 9, 36, 34
5, 75360, Note_on_c, 9, 38, 50
5, 75445, Note_on_c, 9, 38, 0
5, 75466, Note_on_c, 9, 36, 0
5, 75560, Note_on_c, 9, 51, 0
5, 75840, Note_on_c, 9, 51, 64
5, 75840, Note_on_c, 9, 44, 48
5, 75840, Note_on_c, 9, 37, 30
5, 75910, Note_on_c, 9, 37, 0
5, 75982, Note_on_c, 9, 51, 0
5, 76080, Note_on_c, 9, 37, 59
5, 76176, Note_on_c, 9, 37, 0
5, 76202, Note_on_c, 9, 44, 0
5, 76320, Note_on_c, 9, 45, 85
5, 76320, Note_on_c, 9, 51, 50
5, 76320, Note_on_c, 9, 36, 53
5, 76415, Note_on_c, 9, 45, 0
5, 76429, Note_on_c, 9, 51, 0
5, 76523, Note_on_c, 9, 36, 0
5, 76560, Note_on_c, 9, 51, 65
5, 76699, Note_on_c, 9, 51, 0
5, 76800, Note_on_c, 9, 38, 51
5, 76800, Note_on_c, 9, 51, 67
5, 76800, Note_on_c, 9, 44, 50
5, 76800, Note_on_c, 9, 36, 28
5, 76800, Note_on_c, 9, 36, 54
5, 76923, Note_on_c, 9, 38, 0
5, 76927, Note_on_c, 9, 51, 0
5, 76932, Note_on_c, 9, 36, 0
5, 77075, Note_on_c, 9, 36, 0
5, 77160, Note_on_c, 9, 44, 0
5, 77280, Note_on_c, 9, 36, 46
5, 77280, Note_on_c, 9, 51, 69
5, 77280, Note_on_c, 9, 36, 55
5, 77403, Note_on_c, 9, 51, 0
5, 77451, Note_on_c, 9, 36, 0
5, 77501, Note_on_c, 9, 36, 0
5, 77760, Note_on_c, 9, 44, 50
5, 77760, Note_on_c, 9, 37, 31
5, 77760, Note_on_c, 9, 51, 64
5, 77760, Note_on_c, 9, 57, 56
5, 77826, Note_on_c, 9, 57, 0
5, 77887, Note_on_c, 9, 51, 0
5, 77976, Note_on_c, 9, 37, 0
5, 78000, Note_on_c, 9, 51, 52
5, 78112, Note_on_c, 9, 44, 0
5, 78128, Note_on_c, 9, 51, 0
5, 78240, Note_on_c, 9, 51, 67
5, 78240, Note_on_c, 9, 36, 35
5, 78359, Note_on_c, 9, 51, 0
5, 78378, Note_on_c, 9, 36, 0
5, 78480, Note_on_c, 9, 36, 22
5, 78546, Note_on_c, 9, 36, 0
5, 78720, Note_on_c, 9, 44, 54
5, 78960, Note_on_c, 9, 51, 59
5, 79074, Note_on_c, 9, 51, 0
5, 79090, Note_on_c, 9, 44, 0
5, 79200, Note_on_c, 9, 36, 34
5, 79200, Note_on_c, 9, 51, 72
5, 79355, Note_on_c, 9, 51, 0
5, 79372, Note_on_c, 9, 36, 0
5, 79680, Note_on_c, 9, 44, 57
5, 79680, Note_on_c, 9, 51, 67
5, 79780, Note_on_c, 9, 51, 0
5, 79920, Note_on_c, 9, 51, 56
5, 80016, Note_on_c, 9, 44, 0
5, 80048, Note_on_c, 9, 51, 0
5, 80160, Note_on_c, 9, 37, 51
5, 80160, Note_on_c, 9, 51, 76
5, 80237, Note_on_c, 9, 37, 0
5, 80363, Note_on_c, 9, 51, 0
5, 80640, Note_on_c, 9, 44, 57
5, 80640, Note_on_c, 9, 51, 69
5, 80640, Note_on_c, 9, 37, 62
5, 80698, Note_on_c, 9, 37, 0
5, 80742, Note_on_c, 9, 51, 0
5, 81011, Note_on_c, 9, 44, 0
5, 81120, Note_on_c, 9, 51, 79
5, 81120, Note_on_c, 9, 37, 59
5, 81181, Note_on_c, 9, 37, 0
5, 81242, Note_on_c, 9, 51, 0
5, 81600, Note_on_c, 9, 36, 40
5, 81600, Note_on_c, 9, 51, 76
5, 81600, Note_on_c, 9, 44, 57
5, 81739, Note_on_c, 9, 36, 0
5, 81757, Note_on_c, 9, 51, 0
5, 81840, Note_on_c, 9, 37, 51
5, 81899, Note_on_c, 9, 37, 0
5, 81983, Note_on_c, 9, 44, 0
5, 82080, Note_on_c, 9, 51, 50
5, 82216, Note_on_c, 9, 51, 0
5, 82560, Note_on_c, 9, 51, 72
5, 82560, Note_on_c, 9, 44, 51
5, 82688, Note_on_c, 9, 51, 0
5, 82928, Note_on_c, 9, 44, 0
5, 83040, Note_on_c, 9, 51, 64
5, 83040, Note_on_c, 9, 37, 49
5, 83097, Note_on_c, 9, 37, 0
5, 83183, Note_on_c, 9, 51, 0
5, 83520, Note_on_c, 9, 44, 53
5, 83520, Note_on_c, 9, 51, 72
5, 83651, Note_on_c, 9, 51, 0
5, 83760, Note_on_c, 9, 37, 62
5, 83885, Note_on_c, 9, 44, 0
5, 83896, Note_on_c, 9, 37, 0
5, 84000, Note_on_c, 9, 59, 82
5, 84000, Note_on_c, 9, 51, 82
5, 84000, Note_on_c, 9, 36, 53
5, 84176, Note_on_c, 9, 59, 0
5, 84177, Note_on_c, 9, 36, 0
5, 84244, Note_on_c, 9, 51, 0
5, 84480, Note_on_c, 9, 44, 56
5, 84480, Note_on_c, 9, 51, 47
5, 84480, Note_on_c, 9, 36, 39
5, 84611, Note_on_c, 9, 51, 0
5, 84628, Note_on_c, 9, 36, 0
5, 84823, Note_on_c, 9, 44, 0
5, 84960, Note_on_c, 9, 36, 43
5, 84960, Note_on_c, 9, 51, 69
5, 85097, Note_on_c, 9, 51, 0
5, 85216, Note_on_c, 9, 36, 0
5, 85440, Note_on_c, 9, 44, 49
5, 85440, Note_on_c, 9, 51, 53
5, 85440, Note_on_c, 9, 37, 60
5, 85515, Note_on_c, 9, 37, 0
5, 85557, Note_on_c, 9, 51, 0
5, 85776, Note_on_c, 9, 44, 0
5, 85920, Note_on_c, 9, 36, 38
5, 85920, Note_on_c, 9, 51, 72
5, 86037, Note_on_c, 9, 51, 0
5, 86115, Note_on_c, 9, 36, 0
5, 86400, Note_on_c, 9, 51, 47
5, 86400, Note_on_c, 9, 44, 52
5, 86400, Note_on_c, 9, 37, 40
5, 86455, Note_on_c, 9, 37, 0
5, 86536, Note_on_c, 9, 51, 0
5, 86640, Note_on_c, 9, 59, 68
5, 86738, Note_on_c, 9, 44, 0
5, 86825, Note_on_c, 9, 59, 0
5, 86880, Note_on_c, 9, 36, 55
5, 86880, Note_on_c, 9, 51, 48
5, 86971, Note_on_c, 9, 51, 0
5, 87069, Note_on_c, 9, 36, 0
5, 87360, Note_on_c, 9, 51, 59
5, 87360, Note_on_c, 9, 44, 58
5, 87489, Note_on_c, 9, 51, 0
5, 87707, Note_on_c, 9, 44, 0
5, 87840, Note_on_c, 9, 51, 51
5, 87840, Note_on_c, 9, 37, 48
5, 87898, Note_on_c, 9, 37, 0
5, 87951, Note_on_c, 9, 51, 0
5, 88320, Note_on_c, 9, 51, 74
5, 88320, Note_on_c, 9, 44, 61
5, 88320, Note_on_c, 9, 37, 56
5, 88394, Note_on_c, 9, 37, 0
5, 88477, Note_on_c, 9, 51, 0
5, 88666, Note_on_c, 9, 44, 0
5, 88800, Note_on_c, 9, 51, 37
5, 88800, Note_on_c, 9, 36, 26
5, 88896, Note_on_c, 9, 51, 0
5, 88950, Note_on_c, 9, 36, 0
5, 89280, Note_on_c, 9, 44, 48
5, 89280, Note_on_c, 9, 51, 72
5, 89280, Note_on_c, 9, 37, 35
5, 89399, Note_on_c, 9, 37, 0
5, 89437, Note_on_c, 9, 51, 0
5, 89622, Note_on_c, 9, 44, 0
5, 89760, Note_on_c, 9, 51, 62
5, 89760, Note_on_c, 9, 36, 31
5, 89858, Note_on_c, 9, 51, 0
5, 89958, Note_on_c, 9, 36, 0
5, 90240, Note_on_c, 9, 44, 55
5, 90240, Note_on_c, 9, 51, 74
5, 90240, Note_on_c, 9, 37, 48
5, 90294, Note_on_c, 9, 37, 0
5, 90373, Note_on_c, 9, 51, 0
5, 90480, Note_on_c, 9, 51, 53
5, 90599, Note_on_c, 9, 44, 0
5, 90635, Note_on_c, 9, 51, 0
5, 90720, Note_on_c, 9, 51, 55
5, 90720, Note_on_c, 9, 37, 48
5, 90774, Note_on_c, 9, 37, 0
5, 90776, Note_on_c, 9, 51, 0
5, 91200, Note_on_c, 9, 44, 51
5, 91200, Note_on_c, 9, 51, 61
5, 91200, Note_on_c, 9, 37, 67
5, 91200, Note_on_c, 9, 38, 60
5, 91254, Note_on_c, 9, 38, 0
5, 91298, Note_on_c, 9, 37, 0
5, 91318, Note_on_c, 9, 51, 0
5, 91440, Note_on_c, 9, 51, 71
5, 91517, Note_on_c, 9, 44, 0
5, 91578, Note_on_c, 9, 51, 0
5, 91680, Note_on_c, 9, 51, 61
5, 91680, Note_on_c, 9, 36, 32
5, 91787, Note_on_c, 9, 51, 0
5, 91885, Note_on_c, 9, 36, 0
5, 91920, Note_on_c, 9, 38, 62
5, 91920, Note_on_c, 9, 36, 68
5, 91976, Note_on_c, 9, 36, 0
5, 92030, Note_on_c, 9, 38, 0
5, 92160, Note_on_c, 9, 44, 53
5, 92160, Note_on_c, 9, 51, 78
5, 92160, Note_on_c, 9, 36, 78
5, 92293, Note_on_c, 9, 51, 0
5, 92400, Note_on_c, 9, 57, 78
5, 92418, Note_on_c, 9, 36, 0
5, 92496, Note_on_c, 9, 57, 0
5, 92535, Note_on_c, 9, 44, 0
5, 92640, Note_on_c, 9, 51, 56
5, 92640, Note_on_c, 9, 36, 32
5, 92749, Note_on_c, 9, 36, 0
5, 92752, Note_on_c, 9, 51, 0
5, 93120, Note_on_c, 9, 44, 51
5, 93120, Note_on_c, 9, 51, 67
5, 93120, Note_on_c, 9, 37, 57
5, 93174, Note_on_c, 9, 37, 0
5, 93241, Note_on_c, 9, 51, 0
5, 93479, Note_on_c, 9, 44, 0
5, 93600, Note_on_c, 9, 51, 64
5, 93600, Note_on_c, 9, 36, 33
5, 93698, Note_on_c, 9, 36, 0
5, 93707, Note_on_c, 9, 51, 0
5, 94080, Note_on_c, 9, 44, 56
5, 94080, Note_on_c, 9, 51, 67
5, 94202, Note_on_c, 9, 51, 0
5, 94439, Note_on_c, 9, 44, 0
5, 94560, Note_on_c, 9, 51, 77
5, 94560, Note_on_c, 9, 36, 41
5, 94704, Note_on_c, 9, 51, 0
5, 94734, Note_on_c, 9, 36, 0
5, 95040, Note_on_c, 9, 44, 50
5, 95040, Note_on_c, 9, 51, 69
5, 95181, Note_on_c, 9, 51, 0
5, 95384, Note_on_c, 9, 44, 0
5, 95520, Note_on_c, 9, 51, 61
5, 95520, Note_on_c, 9, 36, 57
5, 95520, Note_on_c, 9, 53, 50
5, 95520, Note_on_c, 9, 38, 51
5, 95574, Note_on_c, 9, 38, 0
5, 95642, Note_on_c, 9, 36, 0
5, 95685, Note_on_c, 9, 51, 0
5, 95716, Note_on_c, 9, 53, 0
5, 96000, Note_on_c, 9, 44, 52
5, 96000, Note_on_c, 9, 51, 59
5, 96000, Note_on_c, 9, 37, 67
5, 96000, Note_on_c, 9, 36, 66
5, 96000, Note_on_c, 9, 57, 32
5, 96055, Note_on_c, 9, 37, 0
5, 96060, Note_on_c, 9, 57, 0
5, 96139, Note_on_c, 9, 36, 0
5, 96150, Note_on_c, 9, 51, 0
5, 96351, Note_on_c, 9, 44, 0
5, 96480, Note_on_c, 9, 37, 70
5, 96480, Note_on_c, 9, 51, 62
5, 96535, Note_on_c, 9, 37, 0
5, 96645, Note_on_c, 9, 51, 0
5, 96960, Note_on_c, 9, 51, 56
5, 96960, Note_on_c, 9, 36, 32
5, 96960, Note_on_c, 9, 44, 55
5, 97107, Note_on_c, 9, 51, 0
5, 97119, Note_on_c, 9, 36, 0
5, 97320, Note_on_c, 9, 44, 0
5, 97440, Note_on_c, 9, 51, 65
5, 97440, Note_on_c, 9, 53, 55
5, 97440, Note_on_c, 9, 37, 29
5, 97494, Note_on_c, 9, 37, 0
5, 97615, Note_on_c, 9, 51, 0
5, 97621, Note_on_c, 9, 53, 0
5, 97920, Note_on_c, 9, 51, 38
5, 97920, Note_on_c, 9, 44, 47
5, 97920, Note_on_c, 9, 37, 50
5, 97974, Note_on_c, 9, 37, 0
5, 98101, Note_on_c, 9, 51, 0
5, 98378, Note_on_c, 9, 44, 0
5, 98400, Note_on_c, 9, 59, 72
5, 98400, Note_on_c, 9, 51, 67
5, 98400, Note_on_c, 9, 36, 24
5, 98494, Note_on_c, 9, 36, 0
5, 98542, Note_on_c, 9, 51, 0
5, 98602, Note_on_c, 9, 59, 0
5, 98880, Note_on_c, 9, 51, 55
5, 98880, Note_on_c, 9, 37, 67
5, 98880, Note_on_c, 9, 44, 54
5, 98880, Note_on_c, 9, 38, 44
5, 98939, Note_on_c, 9, 38, 0
5, 98972, Note_on_c, 9, 37, 0
5, 99036, Note_on_c, 9, 51, 0
5, 99177, Note_on_c, 9, 44, 0
5, 99360, Note_on_c, 9, 37, 49
5, 99360, Note_on_c, 9, 38, 52
5, 99360, Note_on_c, 9, 52, 66
5, 99420, Note_on_c, 9, 38, 0
5, 99471, Note_on_c, 9, 37, 0
5, 99512, Note_on_c, 9, 52, 0
5, 99840, Note_on_c, 9, 51, 61
5, 99840, Note_on_c, 9, 36, 33
5, 99840, Note_on_c, 9, 44, 51
5, 100045, Note_on_c, 9, 36, 0
5, 100045, Note_on_c, 9, 51, 0
5, 100227, Note_on_c, 9, 44, 0
5, 100320, Note_on_c, 9, 51, 62
5, 100320, Note_on_c, 9, 36, 33
5, 100439, Note_on_c, 9, 36, 0
5, 100491, Note_on_c, 9, 51, 0
5, 100800, Note_on_c, 9, 51, 51
5, 100800, Note_on_c, 9, 37, 62
5, 100800, Note_on_c, 9, 44, 49
5, 100867, Note_on_c, 9, 51, 0
5, 100893, Note_on_c, 9, 37, 0
5, 101130, Note_on_c, 9, 44, 0
5, 101280, Note_on_c, 9, 36, 30
5, 101280, Note_on_c, 9, 51, 77
5, 101410, Note_on_c, 9, 36, 0
5, 101416, Note_on_c, 9, 51, 0
5, 101760, Note_on_c, 9, 51, 42
5, 101760, Note_on_c, 9, 37, 42
5, 101760, Note_on_c, 9, 44, 48
5, 101817, Note_on_c, 9, 37, 0
5, 101881, Note_on_c, 9, 51, 0
5, 102000, Note_on_c, 9, 51, 33
5, 102110, Note_on_c, 9, 51, 0
5, 102138, Note_on_c, 9, 44, 0
5, 102240, Note_on_c, 9, 51, 57
5, 102240, Note_on_c, 9, 37, 75
5, 102357, Note_on_c, 9, 51, 0
5, 102502, Note_on_c, 9, 37, 0
5, 102720, Note_on_c, 9, 36, 24
5, 102720, Note_on_c, 9, 51, 71
5, 102720, Note_on_c, 9, 44, 49
5, 102720, Note_on_c, 9, 44, 45
5, 102818, Note_on_c, 9, 36, 0
5, 102830, Note_on_c, 9, 51, 0
5, 102960, Note_on_c, 9, 51, 65
5, 103011, Note_on_c, 9, 44, 0
5, 103013, Note_on_c, 9, 44, 0
5, 103112, Note_on_c, 9, 51, 0
5, 103200, Note_on_c, 9, 36, 37
5, 103200, Note_on_c, 9, 51, 49
5, 103269, Note_on_c, 9, 51, 0
5, 103336, Note_on_c, 9, 36, 0
5, 103680, Note_on_c, 9, 44, 57
5, 103680, Note_on_c, 9, 51, 70
5, 103803, Note_on_c, 9, 51, 0
5, 104160, Note_on_c, 9, 51, 51
5, 104160, Note_on_c, 9, 36, 29
5, 104197, Note_on_c, 9, 44, 0
5, 104274, Note_on_c, 9, 51, 0
5, 104329, Note_on_c, 9, 36, 0
5, 104640, Note_on_c, 9, 51, 67
5, 104640, Note_on_c, 9, 44, 51
5, 104765, Note_on_c, 9, 51, 0
5, 104880, Note_on_c, 9, 37, 54
5, 105009, Note_on_c, 9, 37, 0
5, 105025, Note_on_c, 9, 44, 0
5, 105120, Note_on_c, 9, 37, 59
5, 105120, Note_on_c, 9, 51, 57
5, 105207, Note_on_c, 9, 37, 0
5, 105242, Note_on_c, 9, 51, 0
5, 105600, Note_on_c, 9, 36, 46
5, 105600, Note_on_c, 9, 51, 60
5, 105600, Note_on_c, 9, 44, 56
5, 105722, Note_on_c, 9, 51, 0
5, 105731, Note_on_c, 9, 36, 0
5, 105840, Note_on_c, 9, 51, 61
5, 105966, Note_on_c, 9, 51, 0
5, 105979, Note_on_c, 9, 44, 0
5, 106080, Note_on_c, 9, 51, 55
5, 106080, Note_on_c, 9, 36, 45
5, 106188, Note_on_c, 9, 51, 0
5, 106225, Note_on_c, 9, 36, 0
5, 106560, Note_on_c, 9, 38, 57
5, 106560, Note_on_c, 9, 44, 57
5, 106560, Note_on_c, 9, 37, 57
5, 106560, Note_on_c, 9, 51, 57
5, 106614, Note_on_c, 9, 37, 0
5, 106639, Note_on_c, 9, 38, 0
5, 106683, Note_on_c, 9, 51, 0
5, 106800, Note_on_c, 9, 51, 55
5, 106800, Note_on_c, 9, 38, 60
5, 106854, Note_on_c, 9, 38, 0
5, 106919, Note_on_c, 9, 44, 0
5, 106925, Note_on_c, 9, 51, 0
5, 107040, Note_on_c, 9, 36, 47
5, 107040, Note_on_c, 9, 51, 52
5, 107112, Note_on_c, 9, 51, 0
5, 107199, Note_on_c, 9, 36, 0
5, 107520, Note_on_c, 9, 36, 41
5, 107520, Note_on_c, 9, 38, 52
5, 107520, Note_on_c, 9, 44, 51
5, 107520, Note_on_c, 9, 51, 71
5, 107575, Note_on_c, 9, 38, 0
5, 107676, Note_on_c, 9, 51, 0
5, 107682, Note_on_c, 9, 36, 0
5, 107760, Note_on_c, 9, 51, 57
5, 107875, Note_on_c, 9, 51, 0
5, 107896, Note_on_c, 9, 44, 0
5, 108000, Note_on_c, 9, 38, 57
5, 108000, Note_on_c, 9, 51, 52
5, 108000, Note_on_c, 9, 37, 44
5, 108054, Note_on_c, 9, 38, 0
5, 108075, Note_on_c, 9, 37, 0
5, 108118, Note_on_c, 9, 51, 0
5, 108480, Note_on_c, 9, 38, 27
5, 108480, Note_on_c, 9, 44, 50
5, 108480, Note_on_c, 9, 51, 71
5, 108544, Note_on_c, 9, 38, 0
5, 108592, Note_on_c, 9, 51, 0
5, 108853, Note_on_c, 9, 44, 0
5, 108960, Note_on_c, 9, 38, 33
5, 108960, Note_on_c, 9, 36, 35
5, 108960, Note_on_c, 9, 51, 48
5, 109032, Note_on_c, 9, 51, 0
5, 109037, Note_on_c, 9, 36, 0
5, 109050, Note_on_c, 9, 38, 0
5, 109200, Note_on_c, 9, 51, 45
5, 109328, Note_on_c, 9, 51, 0
5, 109440, Note_on_c, 9, 51, 71
5, 109440, Note_on_c, 9, 44, 53
5, 109440, Note_on_c, 9, 37, 53
5, 109494, Note_on_c, 9, 37, 0
5, 109550, Note_on_c, 9, 51, 0
5, 109794, Note_on_c, 9, 44, 0
5, 109920, Note_on_c, 9, 51, 69
5, 109920, Note_on_c, 9, 36, 39
5, 109998, Note_on_c, 9, 36, 0
5, 110026, Note_on_c, 9, 51, 0
5, 110400, Note_on_c, 9, 44, 47
5, 110400, Note_on_c, 9, 37, 37
5, 110400, Note_on_c, 9, 51, 57
5, 110454, Note_on_c, 9, 37, 0
5, 110495, Note_on_c, 9, 51, 0
5, 110640, Note_on_c, 9, 51, 56
5, 110729, Note_on_c, 9, 44, 0
5, 110763, Note_on_c, 9, 51, 0
5, 110880, Note_on_c, 9, 51, 62
5, 110880, Note_on_c, 9, 37, 79
5, 110880, Note_on_c, 9, 38, 38
5, 110952, Note_on_c, 9, 38, 0
5, 110985, Note_on_c, 9, 37, 0
5, 111017, Note_on_c, 9, 51, 0
5, 111360, Note_on_c, 9, 37, 82
5, 111360, Note_on_c, 9, 44, 43
5, 111360, Note_on_c, 9, 51, 67
5, 111482, Note_on_c, 9, 37, 0
5, 111488, Note_on_c, 9, 51, 0
5, 111600, Note_on_c, 9, 51, 29
5, 111728, Note_on_c, 9, 44, 0
5, 111736, Note_on_c, 9, 51, 0
5, 111840, Note_on_c, 9, 36, 28
5, 111840, Note_on_c, 9, 38, 47
5, 111936, Note_on_c, 9, 36, 0
5, 111949, Note_on_c, 9, 38, 0
5, 112320, Note_on_c, 9, 37, 35
5, 112320, Note_on_c, 9, 51, 74
5, 112320, Note_on_c, 9, 44, 48
5, 112320, Note_on_c, 9, 57, 82
5, 112320, Note_on_c, 9, 36, 72
5, 112407, Note_on_c, 9, 37, 0
5, 112416, Note_on_c, 9, 57, 0
5, 112429, Note_on_c, 9, 51, 0
5, 112446, Note_on_c, 9, 36, 0
5, 112662, Note_on_c, 9, 44, 0
5, 112800, Note_on_c, 9, 37, 39
5, 112800, Note_on_c, 9, 51, 58
5, 112855, Note_on_c, 9, 37, 0
5, 112864, Note_on_c, 9, 51, 0
5, 113280, Note_on_c, 9, 37, 48
5, 113280, Note_on_c, 9, 51, 55
5, 113280, Note_on_c, 9, 44, 55
5, 113334, Note_on_c, 9, 51, 0
5, 113352, Note_on_c, 9, 37, 0
5, 113520, Note_on_c, 9, 37, 49
5, 113592, Note_on_c, 9, 37, 0
5, 113652, Note_on_c, 9, 44, 0
5, 113760, Note_on_c, 9, 38, 36
5, 113760, Note_on_c, 9, 36, 52
5, 113760, Note_on_c, 9, 51, 55
5, 113829, Note_on_c, 9, 51, 0
5, 113834, Note_on_c, 9, 36, 0
5, 113855, Note_on_c, 9, 38, 0
5, 114240, Note_on_c, 9, 44, 53
5, 114240, Note_on_c, 9, 51, 69
5, 114371, Note_on_c, 9, 51, 0
5, 114480, Note_on_c, 9, 51, 59
5, 114548, Note_on_c, 9, 44, 0
5, 114591, Note_on_c, 9, 51, 0
5, 114720, Note_on_c, 9, 51, 56
5, 114720, Note_on_c, 9, 37, 61
5, 114779, Note_on_c, 9, 37, 0
5, 114790, Note_on_c, 9, 51, 0
5, 114960, Note_on_c, 9, 37, 55
5, 115032, Note_on_c, 9, 37, 0
5, 115200, Note_on_c, 9, 36, 36
5, 115200, Note_on_c, 9, 44, 56
5, 115200, Note_on_c, 9, 51, 70
5, 115200, Note_on_c, 9, 36, 41
5, 115282, Note_on_c, 9, 36, 0
5, 115314, Note_on_c, 9, 36, 0
5, 115330, Note_on_c, 9, 51, 0
5, 115440, Note_on_c, 9, 51, 56
5, 115563, Note_on_c, 9, 51, 0
5, 115593, Note_on_c, 9, 44, 0
5, 115680, Note_on_c, 9, 51, 49
5, 115680, Note_on_c, 9, 36, 22
5, 115769, Note_on_c, 9, 36, 0
5, 115774, Note_on_c, 9, 51, 0
5, 116160, Note_on_c, 9, 44, 43
5, 116160, Note_on_c, 9, 37, 59
5, 116160, Note_on_c, 9, 51, 67
5, 116290, Note_on_c, 9, 51, 0
5, 116306, Note_on_c, 9, 37, 0
5, 116400, Note_on_c, 9, 37, 63
5, 116491, Note_on_c, 9, 44, 0
5, 116499, Note_on_c, 9, 37, 0
5, 116640, Note_on_c, 9, 51, 58
5, 116640, Note_on_c, 9, 36, 84
5, 116640, Note_on_c, 9, 36, 36
5, 116747, Note_on_c, 9, 51, 0
5, 116784, Note_on_c, 9, 36, 0
5, 116880, Note_on_c, 9, 51, 62
5, 116884, Note_on_c, 9, 36, 0
5, 117008, Note_on_c, 9, 51, 0
5, 117120, Note_on_c, 9, 51, 57
5, 117120, Note_on_c, 9, 44, 45
5, 117120, Note_on_c, 9, 36, 34
5, 117230, Note_on_c, 9, 51, 0
5, 117266, Note_on_c, 9, 36, 0
5, 117456, Note_on_c, 9, 44, 0
5, 117600, Note_on_c, 9, 51, 72
5, 117600, Note_on_c, 9, 36, 70
5, 117600, Note_on_c, 9, 36, 46
5, 117702, Note_on_c, 9, 51, 0
5, 117706, Note_on_c, 9, 36, 0
5, 117732, Note_on_c, 9, 36, 0
5, 118080, Note_on_c, 9, 51, 74
5, 118080, Note_on_c, 9, 38, 74
5, 118080, Note_on_c, 9, 36, 71
5, 118080, Note_on_c, 9, 44, 51
5, 118080, Note_on_c, 9, 37, 60
5, 118134, Note_on_c, 9, 37, 0
5, 118193, Note_on_c, 9, 38, 0
5, 118211, Note_on_c, 9, 36, 0
5, 118233, Note_on_c, 9, 51, 0
5, 118320, Note_on_c, 9, 51, 67
5, 118438, Note_on_c, 9, 51, 0
5, 118456, Note_on_c, 9, 44, 0
5, 118560, Note_on_c, 9, 36, 34
5, 118560, Note_on_c, 9, 51, 59
5, 118655, Note_on_c, 9, 51, 0
5, 118729, Note_on_c, 9, 36, 0
5, 119040, Note_on_c, 9, 37, 54
5, 119040, Note_on_c, 9, 44, 38
5, 119040, Note_on_c, 9, 51, 67
5, 119094, Note_on_c, 9, 37, 0
5, 119102, Note_on_c, 9, 51, 0
5, 119387, Note_on_c, 9, 44, 0
5, 119520, Note_on_c, 9, 37, 56
5, 119520, Note_on_c, 9, 51, 64
5, 119574, Note_on_c, 9, 37, 0
5, 119615, Note_on_c, 9, 51, 0
5, 119760, Note_on_c, 9, 51, 64
5, 119877, Note_on_c, 9, 51, 0
5, 120000, Note_on_c, 9, 36, 31
5, 120000, Note_on_c, 9, 44, 36
5, 120000, Note_on_c, 9, 51, 58
5, 120066, Note_on_c, 9, 36, 0
5, 120124, Note_on_c, 9, 51, 0
5, 120330, Note_on_c, 9, 44, 0
5, 120480, Note_on_c, 9, 36, 58
5, 120480, Note_on_c, 9, 51, 69
5, 120571, Note_on_c, 9, 51, 0
5, 120628, Note_on_c, 9, 36, 0
5, 120960, Note_on_c, 9, 44, 50
5, 120960, Note_on_c, 9, 51, 69
5, 121141, Note_on_c, 9, 51, 0
5, 121200, Note_on_c, 9, 51, 36
5, 121263, Note_on_c, 9, 51, 0
5, 121316, Note_on_c, 9, 44, 0
5, 121440, Note_on_c, 9, 36, 44
5, 121505, Note_on_c, 9, 36, 0
5, 121920, Note_on_c, 9, 51, 76
5, 121920, Note_on_c, 9, 44, 51
5, 121920, Note_on_c, 9, 44, 47
5, 121920, Note_on_c, 9, 37, 54
5, 122032, Note_on_c, 9, 51, 0
5, 122035, Note_on_c, 9, 37, 0
5, 122160, Note_on_c, 9, 37, 61
5, 122214, Note_on_c, 9, 37, 0
5, 122216, Note_on_c, 9, 44, 0
5, 122232, Note_on_c, 9, 44, 0
5, 122400, Note_on_c, 9, 36, 69
5, 122400, Note_on_c, 9, 51, 56
5, 122400, Note_on_c, 9, 36, 64
5, 122459, Note_on_c, 9, 51, 0
5, 122475, Note_on_c, 9, 36, 0
5, 122550, Note_on_c, 9, 36, 0
5, 122880, Note_on_c, 9, 51, 77
5, 122880, Note_on_c, 9, 57, 66
5, 122880, Note_on_c, 9, 44, 59
5, 122880, Note_on_c, 9, 36, 63
5, 122880, Note_on_c, 9, 36, 34
5, 122893, Note_on_c, 9, 51, 0
5, 122933, Note_on_c, 9, 57, 0
5, 122937, Note_on_c, 9, 36, 0
5, 122976, Note_on_c, 9, 36, 0
5, 123360, Note_on_c, 9, 51, 59
5, 123360, Note_on_c, 9, 36, 41
5, 123431, Note_on_c, 9, 51, 0
5, 123458, Note_on_c, 9, 36, 0
5, 123477, Note_on_c, 9, 44, 0
5, 123840, Note_on_c, 9, 51, 71
5, 123840, Note_on_c, 9, 44, 57
5, 123840, Note_on_c, 9, 37, 59
5, 123894, Note_on_c, 9, 37, 0
5, 123954, Note_on_c, 9, 51, 0
5, 124220, Note_on_c, 9, 44, 0
5, 124320, Note_on_c, 9, 36, 40
5, 124320, Note_on_c, 9, 51, 50
5, 124406, Note_on_c, 9, 36, 0
5, 124448, Note_on_c, 9, 51, 0
5, 124800, Note_on_c, 9, 51, 70
5, 124800, Note_on_c, 9, 44, 52
5, 124914, Note_on_c, 9, 51, 0
5, 125040, Note_on_c, 9, 51, 62
5, 125171, Note_on_c, 9, 44, 0
5, 125176, Note_on_c, 9, 51, 0
5, 125280, Note_on_c, 9, 51, 67
5, 125280, Note_on_c, 9, 36, 22
5, 125368, Note_on_c, 9, 36, 0
5, 125368, Note_on_c, 9, 51, 0
5, 125760, Note_on_c, 9, 44, 55
5, 125760, Note_on_c, 9, 51, 74
5, 125864, Note_on_c, 9, 51, 0
5, 126124, Note_on_c, 9, 44, 0
5, 126240, Note_on_c, 9, 51, 77
5, 126240, Note_on_c, 9, 36, 42
5, 126319, Note_on_c, 9, 36, 0
5, 126360, Note_on_c, 9, 51, 0
5, 126720, Note_on_c, 9, 44, 60
5, 126720, Note_on_c, 9, 51, 67
5, 126841, Note_on_c, 9, 51, 0
5, 126960, Note_on_c, 9, 51, 49
5, 127084, Note_on_c, 9, 51, 0
5, 127124, Note_on_c, 9, 44, 0
5, 127200, Note_on_c, 9, 51, 59
5, 127336, Note_on_c, 9, 51, 0
5, 127680, Note_on_c, 9, 37, 70
5, 127680, Note_on_c, 9, 51, 77
5, 127680, Note_on_c, 9, 44, 44
5, 127734, Note_on_c, 9, 37, 0
5, 127794, Note_on_c, 9, 51, 0
5, 128032, Note_on_c, 9, 44, 0
5, 128160, Note_on_c, 9, 51, 76
5, 128160, Note_on_c, 9, 36, 24
5, 128214, Note_on_c, 9, 36, 0
5, 128274, Note_on_c, 9, 51, 0
5, 128640, Note_on_c, 9, 44, 57
5, 128640, Note_on_c, 9, 37, 59
5, 128640, Note_on_c, 9, 51, 69
5, 128694, Note_on_c, 9, 37, 0
5, 128720, Note_on_c, 9, 51, 0
5, 128880, Note_on_c, 9, 51, 65
5, 128981, Note_on_c, 9, 51, 0
5, 129026, Note_on_c, 9, 44, 0
5, 129120, Note_on_c, 9, 51, 64
5, 129120, Note_on_c, 9, 37, 73
5, 129175, Note_on_c, 9, 37, 0
5, 129251, Note_on_c, 9, 51, 0
5, 129600, Note_on_c, 9, 37, 65
5, 129600, Note_on_c, 9, 44, 53
5, 129600, Note_on_c, 9, 51, 71
5, 129656, Note_on_c, 9, 37, 0
5, 129705, Note_on_c, 9, 51, 0
5, 129983, Note_on_c, 9, 44, 0
5, 130080, Note_on_c, 9, 36, 44
5, 130080, Note_on_c, 9, 51, 72
5, 130189, Note_on_c, 9, 51, 0
5, 130208, Note_on_c, 9, 36, 0
5, 130560, Note_on_c, 9, 44, 60
5, 130560, Note_on_c, 9, 37, 31
5, 130560, Note_on_c, 9, 51, 67
5, 130616, Note_on_c, 9, 37, 0
5, 130675, Note_on_c, 9, 51, 0
5, 130800, Note_on_c, 9, 51, 55
5, 130920, Note_on_c, 9, 51, 0
5, 130939, Note_on_c, 9, 44, 0
5, 131040, Note_on_c, 9, 51, 64
5, 131040, Note_on_c, 9, 37, 30
5, 131094, Note_on_c, 9, 37, 0
5, 131148, Note_on_c, 9, 51, 0
5, 131520, Note_on_c, 9, 44, 50
5, 131520, Note_on_c, 9, 37, 60
5, 131520, Note_on_c, 9, 51, 77
5, 131578, Note_on_c, 9, 37, 0
5, 131629, Note_on_c, 9, 51, 0
5, 131874, Note_on_c, 9, 44, 0
5, 132000, Note_on_c, 9, 36, 36
5, 132000, Note_on_c, 9, 51, 74
5, 132094, Note_on_c, 9, 36, 0
5, 132107, Note_on_c, 9, 51, 0
5, 132480, Note_on_c, 9, 44, 56
5, 132480, Note_on_c, 9, 51, 75
5, 132627, Note_on_c, 9, 51, 0
5, 132848, Note_on_c, 9, 44, 0
5, 132960, Note_on_c, 9, 51, 61
5, 132960, Note_on_c, 9, 36, 34
5, 133054, Note_on_c, 9, 36, 0
5, 133106, Note_on_c, 9, 51, 0
5, 133440, Note_on_c, 9, 44, 48
5, 133440, Note_on_c, 9, 51, 67
5, 133440, Note_on_c, 9, 37, 40
5, 133495, Note_on_c, 9, 37, 0
5, 133601, Note_on_c, 9, 51, 0
5, 133680, Note_on_c, 9, 37, 62
5, 133759, Note_on_c, 9, 37, 0
5, 133796, Note_on_c, 9, 44, 0
5, 133920, Note_on_c, 9, 51, 69
5, 133920, Note_on_c, 9, 53, 61
5, 133920, Note_on_c, 9, 36, 51
5, 134101, Note_on_c, 9, 53, 0
5, 134122, Note_on_c, 9, 36, 0
5, 134150, Note_on_c, 9, 51, 0
5, 134400, Note_on_c, 9, 44, 49
5, 134400, Note_on_c, 9, 51, 53
5, 134545, Note_on_c, 9, 51, 0
5, 134640, Note_on_c, 9, 36, 58
5, 134736, Note_on_c, 9, 44, 0
5, 134774, Note_on_c, 9, 36, 0
5, 134880, Note_on_c, 9, 51, 64
5, 134880, Note_on_c, 9, 36, 44
5, 134880, Note_on_c, 9, 50, 36
5, 134939, Note_on_c, 9, 50, 0
5, 134996, Note_on_c, 9, 51, 0
5, 135010, Note_on_c, 9, 36, 0
5, 135360, Note_on_c, 9, 51, 67
5, 135360, Note_on_c, 9, 44, 53
5, 135360, Note_on_c, 9, 50, 85
5, 135502, Note_on_c, 9, 50, 0
5, 135510, Note_on_c, 9, 51, 0
5, 135706, Note_on_c, 9, 44, 0
5, 135840, Note_on_c, 9, 51, 81
5, 135840, Note_on_c, 9, 37, 65
5, 135840, Note_on_c, 9, 45, 58
5, 135895, Note_on_c, 9, 45, 0
5, 135916, Note_on_c, 9, 37, 0
5, 136013, Note_on_c, 9, 51, 0
5, 136320, Note_on_c, 9, 51, 59
5, 136320, Note_on_c, 9, 44, 49
5, 136320, Note_on_c, 9, 47, 95
5, 136435, Note_on_c, 9, 51, 0
5, 136652, Note_on_c, 9, 44, 0
5, 136800, Note_on_c, 9, 51, 74
5, 136800, Note_on_c, 9, 36, 42
5, 136835, Note_on_c, 9, 47, 0
5, 136887, Note_on_c, 9, 36, 0
5, 136908, Note_on_c, 9, 51, 0
5, 137280, Note_on_c, 9, 51, 52
5, 137280, Note_on_c, 9, 44, 51
5, 137280, Note_on_c, 9, 37, 42
5, 137280, Note_on_c, 9, 45, 92
5, 137334, Note_on_c, 9, 37, 0
5, 137350, Note_on_c, 9, 51, 0
5, 137466, Note_on_c, 9, 45, 0
5, 137520, Note_on_c, 9, 51, 57
5, 137564, Note_on_c, 9, 44, 0
5, 137671, Note_on_c, 9, 51, 0
5, 137760, Note_on_c, 9, 51, 69
5, 137760, Note_on_c, 9, 37, 57
5, 137760, Note_on_c, 9, 38, 65
5, 137815, Note_on_c, 9, 37, 0
5, 137900, Note_on_c, 9, 51, 0
5, 138051, Note_on_c, 9, 38, 0
5, 138240, Note_on_c, 9, 36, 36
5, 138240, Note_on_c, 9, 44, 60
5, 138240, Note_on_c, 9, 51, 75
5, 138240, Note_on_c, 9, 57, 88
5, 138240, Note_on_c, 9, 36, 70
5, 138354, Note_on_c, 9, 36, 0
5, 138380, Note_on_c, 9, 51, 0
5, 138589, Note_on_c, 9, 44, 0
5, 138720, Note_on_c, 9, 36, 29
5, 138720, Note_on_c, 9, 51, 59
5, 138831, Note_on_c, 9, 51, 0
5, 138853, Note_on_c, 9, 36, 0
5, 139200, Note_on_c, 9, 51, 64
5, 139200, Note_on_c, 9, 37, 58
5, 139200, Note_on_c, 9, 44, 50
5, 139256, Note_on_c, 9, 37, 0
5, 139280, Note_on_c, 9, 51, 0
5, 139552, Note_on_c, 9, 44, 0
5, 139680, Note_on_c, 9, 36, 35
5, 139680, Note_on_c, 9, 51, 83
5, 139815, Note_on_c, 9, 51, 0
5, 139822, Note_on_c, 9, 36, 0
5, 140160, Note_on_c, 9, 51, 57
5, 140160, Note_on_c, 9, 36, 40
5, 140160, Note_on_c, 9, 44, 42
5, 140339, Note_on_c, 9, 36, 0
5, 140368, Note_on_c, 9, 51, 0
5, 140505, Note_on_c, 9, 44, 0
5, 140512, Note_on_c, 9, 36, 0
5, 140588, Note_on_c, 9, 57, 0
5, 140640, Note_on_c, 9, 51, 75
5, 140640, Note_on_c, 9, 37, 75
5, 140640, Note_on_c, 9, 38, 75
5, 140745, Note_on_c, 9, 37, 0
5, 140819, Note_on_c, 9, 38, 0
5, 140827, Note_on_c, 9, 51, 0
5, 141120, Note_on_c, 9, 36, 34
5, 141120, Note_on_c, 9, 51, 72
5, 141120, Note_on_c, 9, 44, 52
5, 141120, Note_on_c, 9, 36, 83
5, 141120, Note_on_c, 9, 57, 81
5, 141210, Note_on_c, 9, 57, 0
5, 141267, Note_on_c, 9, 36, 0
5, 141269, Note_on_c, 9, 51, 0
5, 141315, Note_on_c, 9, 36, 0
5, 141454, Note_on_c, 9, 44, 0
5, 141600, Note_on_c, 9, 37, 74
5, 141600, Note_on_c, 9, 51, 74
5, 141711, Note_on_c, 9, 37, 0
5, 141718, Note_on_c, 9, 51, 0
5, 142080, Note_on_c, 9, 37, 62
5, 142080, Note_on_c, 9, 51, 65
5, 142080, Note_on_c, 9, 44, 39
5, 142150, Note_on_c, 9, 37, 0
5, 142199, Note_on_c, 9, 51, 0
5, 142320, Note_on_c, 9, 51, 56
5, 142427, Note_on_c, 9, 44, 0
5, 142464, Note_on_c, 9, 51, 0
5, 142560, Note_on_c, 9, 51, 62
5, 142680, Note_on_c, 9, 51, 0
5, 143040, Note_on_c, 9, 51, 69
5, 143040, Note_on_c, 9, 44, 44
5, 143184, Note_on_c, 9, 51, 0
5, 143280, Note_on_c, 9, 51, 60
5, 143383, Note_on_c, 9, 44, 0
5, 143400, Note_on_c, 9, 51, 0
5, 143520, Note_on_c, 9, 36, 64
5, 143520, Note_on_c, 9, 51, 56
5, 143606, Note_on_c, 9, 51, 0
5, 143699, Note_on_c, 9, 36, 0
5, 144000, Note_on_c, 9, 37, 59
5, 144000, Note_on_c, 9, 44, 53
5, 144000, Note_on_c, 9, 51, 70
5, 144054, Note_on_c, 9, 37, 0
5, 144110, Note_on_c, 9, 51, 0
5, 144320, Note_on_c, 9, 44, 0
5, 144480, Note_on_c, 9, 37, 62
5, 144480, Note_on_c, 9, 51, 67
5, 144535, Note_on_c, 9, 37, 0
5, 144605, Note_on_c, 9, 51, 0
5, 144960, Note_on_c, 9, 37, 60
5, 144960, Note_on_c, 9, 44, 50
5, 144960, Note_on_c, 9, 51, 70
5, 145016, Note_on_c, 9, 37, 0
5, 145187, Note_on_c, 9, 51, 0
5, 145299, Note_on_c, 9, 44, 0
5, 145440, Note_on_c, 9, 36, 40
5, 145440, Note_on_c, 9, 51, 51
5, 145524, Note_on_c, 9, 51, 0
5, 145602, Note_on_c, 9, 36, 0
5, 145920, Note_on_c, 9, 44, 56
5, 145920, Note_on_c, 9, 37, 34
5, 145920, Note_on_c, 9, 51, 77
5, 146000, Note_on_c, 9, 37, 0
5, 146128, Note_on_c, 9, 51, 0
5, 146293, Note_on_c, 9, 44, 0
5, 146400, Note_on_c, 9, 37, 43
5, 146400, Note_on_c, 9, 51, 48
5, 146455, Note_on_c, 9, 37, 0
5, 146496, Note_on_c, 9, 51, 0
5, 146880, Note_on_c, 9, 37, 53
5, 146880, Note_on_c, 9, 44, 48
5, 146880, Note_on_c, 9, 51, 78
5, 146939, Note_on_c, 9, 37, 0
5, 147096, Note_on_c, 9, 51, 0
5, 147218, Note_on_c, 9, 44, 0
5, 147360, Note_on_c, 9, 36, 25
5, 147360, Note_on_c, 9, 51, 52
5, 147447, Note_on_c, 9, 36, 0
5, 147464, Note_on_c, 9, 51, 0
5, 147600, Note_on_c, 9, 53, 55
5, 147656, Note_on_c, 9, 53, 0
5, 147840, Note_on_c, 9, 53, 47
5, 147840, Note_on_c, 9, 44, 49
5, 147840, Note_on_c, 9, 51, 77
5, 147944, Note_on_c, 9, 53, 0
5, 147952, Note_on_c, 9, 51, 0
5, 148179, Note_on_c, 9, 44, 0
5, 148320, Note_on_c, 9, 36, 38
5, 148320, Note_on_c, 9, 51, 78
5, 148445, Note_on_c, 9, 51, 0
5, 148469, Note_on_c, 9, 36, 0
5, 148560, Note_on_c, 9, 53, 58
5, 148625, Note_on_c, 9, 53, 0
5, 148800, Note_on_c, 9, 44, 47
5, 148800, Note_on_c, 9, 51, 65
5, 148800, Note_on_c, 9, 37, 70
5, 148800, Note_on_c, 9, 53, 48
5, 148856, Note_on_c, 9, 37, 0
5, 148862, Note_on_c, 9, 53, 0
5, 148912, Note_on_c, 9, 51, 0
5, 149040, Note_on_c, 9, 51, 56
5, 149133, Note_on_c, 9, 44, 0
5, 149160, Note_on_c, 9, 51, 0
5, 149280, Note_on_c, 9, 51, 57
5, 149280, Note_on_c, 9, 37, 69
5, 149337, Note_on_c, 9, 37, 0
5, 149427, Note_on_c, 9, 51, 0
5, 149760, Note_on_c, 9, 37, 52
5, 149760, Note_on_c, 9, 44, 44
5, 149760, Note_on_c, 9, 51, 71
5, 149814, Note_on_c, 9, 37, 0
5, 149910, Note_on_c, 9, 51, 0
5, 150000, Note_on_c, 9, 51, 43
5, 150116, Note_on_c, 9, 44, 0
5, 150136, Note_on_c, 9, 51, 0
5, 150240, Note_on_c, 9, 36, 38
5, 150240, Note_on_c, 9, 51, 68
5, 150334, Note_on_c, 9, 51, 0
5, 150394, Note_on_c, 9, 36, 0
5, 150720, Note_on_c, 9, 53, 58
5, 150720, Note_on_c, 9, 44, 48
5, 150720, Note_on_c, 9, 37, 25
5, 150720, Note_on_c, 9, 51, 80
5, 150779, Note_on_c, 9, 53, 0
5, 150799, Note_on_c, 9, 37, 0
5, 150857, Note_on_c, 9, 51, 0
5, 150960, Note_on_c, 9, 53, 34
5, 151049, Note_on_c, 9, 44, 0
5, 151065, Note_on_c, 9, 53, 0
5, 151200, Note_on_c, 9, 51, 71
5, 151200, Note_on_c, 9, 37, 62
5, 151301, Note_on_c, 9, 37, 0
5, 151329, Note_on_c, 9, 51, 0
5, 151440, Note_on_c, 9, 53, 41
5, 151513, Note_on_c, 9, 53, 0
5, 151680, Note_on_c, 9, 51, 73
5, 151680, Note_on_c, 9, 37, 74
5, 151680, Note_on_c, 9, 44, 48
5, 151680, Note_on_c, 9, 53, 29
5, 151750, Note_on_c, 9, 53, 0
5, 151872, Note_on_c, 9, 51, 0
5, 151917, Note_on_c, 9, 37, 0
5, 152004, Note_on_c, 9, 44, 0
5, 152160, Note_on_c, 9, 51, 63
5, 152160, Note_on_c, 9, 36, 32
5, 152235, Note_on_c, 9, 36, 0
5, 152304, Note_on_c, 9, 51, 0
5, 152400, Note_on_c, 9, 53, 48
5, 152466, Note_on_c, 9, 53, 0
5, 152640, Note_on_c, 9, 37, 71
5, 152640, Note_on_c, 9, 51, 74
5, 152640, Note_on_c, 9, 53, 38
5, 152640, Note_on_c, 9, 44, 47
5, 152712, Note_on_c, 9, 53, 0
5, 152783, Note_on_c, 9, 37, 0
5, 152837, Note_on_c, 9, 51, 0
5, 152873, Note_on_c, 9, 44, 0
5, 152880, Note_on_c, 9, 38, 57
5, 153120, Note_on_c, 9, 51, 59
5, 153120, Note_on_c, 9, 36, 66
5, 153204, Note_on_c, 9, 38, 0
5, 153243, Note_on_c, 9, 51, 0
5, 153262, Note_on_c, 9, 36, 0
5, 153600, Note_on_c, 9, 36, 37
5, 153600, Note_on_c, 9, 36, 60
5, 153600, Note_on_c, 9, 51, 81
5, 153600, Note_on_c, 9, 57, 58
5, 153600, Note_on_c, 9, 44, 47
5, 153600, Note_on_c, 9, 51, 77
5, 153628, Note_on_c, 9, 51, 0
5, 153654, Note_on_c, 9, 57, 0
5, 153671, Note_on_c, 9, 36, 0
5, 153707, Note_on_c, 9, 51, 0
5, 153762, Note_on_c, 9, 36, 0
5, 153776, Note_on_c, 9, 44, 0
5, 154080, Note_on_c, 9, 57, 55
5, 154080, Note_on_c, 9, 36, 44
5, 154080, Note_on_c, 9, 51, 54
5, 154136, Note_on_c, 9, 57, 0
5, 154141, Note_on_c, 9, 51, 0
5, 154248, Note_on_c, 9, 36, 0
5, 154560, Note_on_c, 9, 44, 47
5, 154560, Note_on_c, 9, 51, 53
5, 154658, Note_on_c, 9, 51, 0
5, 154800, Note_on_c, 9, 51, 36
5, 154887, Note_on_c, 9, 51, 0
5, 154979, Note_on_c, 9, 44, 0
5, 155040, Note_on_c, 9, 51, 31
5, 155112, Note_on_c, 9, 51, 0
5, 155520, Note_on_c, 9, 44, 39
5, 155520, Note_on_c, 9, 51, 69
5, 155658, Note_on_c, 9, 51, 0
5, 155760, Note_on_c, 9, 51, 50
5, 155885, Note_on_c, 9, 51, 0
5, 155888, Note_on_c, 9, 44, 0
5, 156000, Note_on_c, 9, 37, 36
5, 156000, Note_on_c, 9, 51, 60
5, 156054, Note_on_c, 9, 51, 0
5, 156096, Note_on_c, 9, 37, 0
5, 156480, Note_on_c, 9, 44, 44
5, 156480, Note_on_c, 9, 51, 71
5, 156597, Note_on_c, 9, 51, 0
5, 156848, Note_on_c, 9, 44, 0
5, 156960, Note_on_c, 9, 51, 59
5, 157062, Note_on_c, 9, 51, 0
5, 157200, Note_on_c, 9, 51, 69
5, 157304, Note_on_c, 9, 51, 0
5, 157440, Note_on_c, 9, 44, 46
5, 157440, Note_on_c, 9, 51, 64
5, 157573, Note_on_c, 9, 51, 0
5, 157837, Note_on_c, 9, 44, 0
5, 157920, Note_on_c, 9, 37, 27
5, 157920, Note_on_c, 9, 51, 69
5, 157998, Note_on_c, 9, 51, 0
5, 158006, Note_on_c, 9, 37, 0
5, 158400, Note_on_c, 9, 44, 44
5, 158400, Note_on_c, 9, 37, 44
5, 158400, Note_on_c, 9, 51, 59
5, 158480, Note_on_c, 9, 51, 0
5, 158639, Note_on_c, 9, 37, 0
5, 158640, Note_on_c, 9, 51, 45
5, 158781, Note_on_c, 9, 51, 0
5, 158825, Note_on_c, 9, 44, 0
5, 158880, Note_on_c, 9, 51, 62
5, 158880, Note_on_c, 9, 36, 38
5, 158968, Note_on_c, 9, 36, 0
5, 159003, Note_on_c, 9, 51, 0
5, 159360, Note_on_c, 9, 44, 50
5, 159360, Note_on_c, 9, 37, 48
5, 159360, Note_on_c, 9, 51, 67
5, 159478, Note_on_c, 9, 51, 0
5, 159600, Note_on_c, 9, 51, 70
5, 159710, Note_on_c, 9, 51, 0
5, 159760, Note_on_c, 9, 44, 0
5, 159840, Note_on_c, 9, 51, 57
5, 159850, Note_on_c, 9, 37, 0
5, 159947, Note_on_c, 9, 51, 0
5, 160320, Note_on_c, 9, 44, 55
5, 160320, Note_on_c, 9, 38, 51
5, 160320, Note_on_c, 9, 51, 64
5, 160375, Note_on_c, 9, 38, 0
5, 160433, Note_on_c, 9, 51, 0
5, 160560, Note_on_c, 9, 38, 47
5, 160560, Note_on_c, 9, 51, 56
5, 160647, Note_on_c, 9, 38, 0
5, 160669, Note_on_c, 9, 51, 0
5, 160694, Note_on_c, 9, 44, 0
5, 160800, Note_on_c, 9, 51, 71
5, 160800, Note_on_c, 9, 37, 85
5, 160880, Note_on_c, 9, 51, 0
5, 161032, Note_on_c, 9, 37, 0
5, 161280, Note_on_c, 9, 44, 52
5, 161280, Note_on_c, 9, 37, 49
5, 161280, Note_on_c, 9, 51, 74
5, 161390, Note_on_c, 9, 51, 0
5, 161415, Note_on_c, 9, 37, 0
5, 161671, Note_on_c, 9, 44, 0
5, 161760, Note_on_c, 9, 36, 29
5, 161760, Note_on_c, 9, 51, 64
5, 161814, Note_on_c, 9, 51, 0
5, 161907, Note_on_c, 9, 36, 0
5, 162240, Note_on_c, 9, 44, 54
5, 162240, Note_on_c, 9, 38, 63
5, 162240, Note_on_c, 9, 37, 27
5, 162240, Note_on_c, 9, 51, 77
5, 162318, Note_on_c, 9, 37, 0
5, 162323, Note_on_c, 9, 38, 0
5, 162351, Note_on_c, 9, 51, 0
5, 162480, Note_on_c, 9, 38, 57
5, 162619, Note_on_c, 9, 38, 0
5, 162631, Note_on_c, 9, 44, 0
5, 162720, Note_on_c, 9, 51, 69
5, 162720, Note_on_c, 9, 37, 38
5, 162790, Note_on_c, 9, 37, 0
5, 162823, Note_on_c, 9, 51, 0
5, 163200, Note_on_c, 9, 44, 53
5, 163200, Note_on_c, 9, 51, 72
5, 163277, Note_on_c, 9, 51, 0
5, 163535, Note_on_c, 9, 44, 0
5, 163680, Note_on_c, 9, 38, 63
5, 163680, Note_on_c, 9, 51, 86
5, 163680, Note_on_c, 9, 36, 30
5, 163790, Note_on_c, 9, 51, 0
5, 163812, Note_on_c, 9, 36, 0
5, 163827, Note_on_c, 9, 38, 0
5, 163920, Note_on_c, 9, 38, 64
5, 164030, Note_on_c, 9, 38, 0
5, 164160, Note_on_c, 9, 44, 55
5, 164160, Note_on_c, 9, 51, 91
5, 164299, Note_on_c, 9, 51, 0
5, 164529, Note_on_c, 9, 44, 0
5, 164640, Note_on_c, 9, 51, 43
5, 164640, Note_on_c, 9, 36, 19
5, 164806, Note_on_c, 9, 51, 0
5, 164869, Note_on_c, 9, 36, 0
5, 165120, Note_on_c, 9, 38, 66
5, 165120, Note_on_c, 9, 44, 54
5, 165120, Note_on_c, 9, 51, 62
5, 165120, Note_on_c, 9, 37, 42
5, 165177, Note_on_c, 9, 37, 0
5, 165190, Note_on_c, 9, 38, 0
5, 165248, Note_on_c, 9, 51, 0
5, 165360, Note_on_c, 9, 38, 61
5, 165360, Note_on_c, 9, 51, 51
5, 165440, Note_on_c, 9, 38, 0
5, 165473, Note_on_c, 9, 51, 0
5, 165481, Note_on_c, 9, 44, 0
5, 165600, Note_on_c, 9, 51, 69
5, 165600, Note_on_c, 9, 37, 80
5, 165731, Note_on_c, 9, 37, 0
5, 165757, Note_on_c, 9, 51, 0
5, 166080, Note_on_c, 9, 44, 46
5, 166080, Note_on_c, 9, 51, 79
5, 166080, Note_on_c, 9, 36, 33
5, 166191, Note_on_c, 9, 36, 0
5, 166226, Note_on_c, 9, 51, 0
5, 166440, Note_on_c, 9, 44, 0
5, 166560, Note_on_c, 9, 38, 63
5, 166560, Note_on_c, 9, 51, 80
5, 166560, Note_on_c, 9, 37, 49
5, 166668, Note_on_c, 9, 38, 0
5, 166688, Note_on_c, 9, 51, 0
5, 166778, Note_on_c, 9, 37, 0
5, 166800, Note_on_c, 9, 38, 55
5, 166866, Note_on_c, 9, 38, 0
5, 167040, Note_on_c, 9, 44, 47
5, 167040, Note_on_c, 9, 51, 73
5, 167175, Note_on_c, 9, 51, 0
5, 167280, Note_on_c, 9, 53, 63
5, 167415, Note_on_c, 9, 44, 0
5, 167459, Note_on_c, 9, 53, 0
5, 167520, Note_on_c, 9, 51, 49
5, 167520, Note_on_c, 9, 36, 34
5, 167626, Note_on_c, 9, 36, 0
5, 167720, Note_on_c, 9, 51, 0
5, 167760, Note_on_c, 9, 38, 65
5, 167816, Note_on_c, 9, 38, 0
5, 168000, Note_on_c, 9, 51, 64
5, 168000, Note_on_c, 9, 44, 48
5, 168000, Note_on_c, 9, 38, 40
5, 168000, Note_on_c, 9, 37, 30
5, 168070, Note_on_c, 9, 37, 0
5, 168142, Note_on_c, 9, 51, 0
5, 168148, Note_on_c, 9, 38, 0
5, 168240, Note_on_c, 9, 37, 59
5, 168336, Note_on_c, 9, 37, 0
5, 168362, Note_on_c, 9, 44, 0
5, 168480, Note_on_c, 9, 38, 63
5, 168480, Note_on_c, 9, 51, 50
5, 168480, Note_on_c, 9, 36, 53
5, 168589, Note_on_c, 9, 51, 0
5, 168683, Note_on_c, 9, 36, 0
5, 168720, Note_on_c, 9, 51, 65
5, 168730, Note_on_c, 9, 38, 0
5, 168859, Note_on_c, 9, 51, 0
5, 168960, Note_on_c, 9, 51, 67
5, 168960, Note_on_c, 9, 44, 50
5, 168960, Note_on_c, 9, 57, 65
5, 168960, Note_on_c, 9, 36, 53
5, 168960, Note_on_c, 9, 36, 28
5, 169021, Note_on_c, 9, 57, 0
5, 169026, Note_on_c, 9, 36, 0
5, 169087, Note_on_c, 9, 51, 0
5, 169092, Note_on_c, 9, 36, 0
5, 169320, Note_on_c, 9, 44, 0
5, 169440, Note_on_c, 9, 36, 46
5, 169440, Note_on_c, 9, 51, 69
5, 169563, Note_on_c, 9, 51, 0
5, 169611, Note_on_c, 9, 36, 0
5, 169920, Note_on_c, 9, 44, 50
5, 169920, Note_on_c, 9, 37, 31
5, 169920, Note_on_c, 9, 51, 64
5, 170047, Note_on_c, 9, 51, 0
5, 170136, Note_on_c, 9, 37, 0
5, 170160, Note_on_c, 9, 51, 52
5, 170272, Note_on_c, 9, 44, 0
5, 170288, Note_on_c, 9, 51, 0
5, 170400, Note_on_c, 9, 51, 67
5, 170400, Note_on_c, 9, 36, 35
5, 170519, Note_on_c, 9, 51, 0
5, 170538, Note_on_c, 9, 36, 0
5, 170880, Note_on_c, 9, 44, 54
5, 171120, Note_on_c, 9, 51, 59
5, 171234, Note_on_c, 9, 51, 0
5, 171250, Note_on_c, 9, 44, 0
5, 171360, Note_on_c, 9, 36, 34
5, 171360, Note_on_c, 9, 51, 72
5, 171515, Note_on_c, 9, 51, 0
5, 171532, Note_on_c, 9, 36, 0
5, 171840, Note_on_c, 9, 44, 57
5, 171840, Note_on_c, 9, 51, 67
5, 171940, Note_on_c, 9, 51, 0
5, 172080, Note_on_c, 9, 51, 56
5, 172176, Note_on_c, 9, 44, 0
5, 172208, Note_on_c, 9, 51, 0
5, 172320, Note_on_c, 9, 37, 51
5, 172320, Note_on_c, 9, 51, 76
5, 172397, Note_on_c, 9, 37, 0
5, 172523, Note_on_c, 9, 51, 0
5, 172800, Note_on_c, 9, 44, 57
5, 172800, Note_on_c, 9, 51, 69
5, 172800, Note_on_c, 9, 37, 62
5, 172858, Note_on_c, 9, 37, 0
5, 172902, Note_on_c, 9, 51, 0
5, 173171, Note_on_c, 9, 44, 0
5, 173280, Note_on_c, 9, 51, 79
5, 173280, Note_on_c, 9, 37, 59
5, 173341, Note_on_c, 9, 37, 0
5, 173402, Note_on_c, 9, 51, 0
5, 173760, Note_on_c, 9, 36, 40
5, 173760, Note_on_c, 9, 51, 76
5, 173760, Note_on_c, 9, 44, 57
5, 173760, Note_on_c, 9, 38, 44
5, 173899, Note_on_c, 9, 36, 0
5, 173901, Note_on_c, 9, 38, 0
5, 173917, Note_on_c, 9, 51, 0
5, 174000, Note_on_c, 9, 37, 51
5, 174059, Note_on_c, 9, 37, 0
5, 174143, Note_on_c, 9, 44, 0
5, 174240, Note_on_c, 9, 51, 50
5, 174376, Note_on_c, 9, 51, 0
5, 174720, Note_on_c, 9, 38, 62
5, 174720, Note_on_c, 9, 51, 72
5, 174720, Note_on_c, 9, 44, 51
5, 174802, Note_on_c, 9, 38, 0
5, 174848, Note_on_c, 9, 51, 0
5, 175088, Note_on_c, 9, 44, 0
5, 175200, Note_on_c, 9, 51, 64
5, 175200, Note_on_c, 9, 38, 72
5, 175200, Note_on_c, 9, 37, 49
5, 175257, Note_on_c, 9, 37, 0
5, 175299, Note_on_c, 9, 38, 0
5, 175343, Note_on_c, 9, 51, 0
5, 175680, Note_on_c, 9, 38, 82
5, 175680, Note_on_c, 9, 44, 53
5, 175680, Note_on_c, 9, 51, 72
5, 175811, Note_on_c, 9, 51, 0
5, 175831, Note_on_c, 9, 38, 0
5, 175920, Note_on_c, 9, 37, 62
5, 176045, Note_on_c, 9, 44, 0
5, 176056, Note_on_c, 9, 37, 0
5, 176160, Note_on_c, 9, 38, 83
5, 176160, Note_on_c, 9, 59, 82
5, 176160, Note_on_c, 9, 51, 82
5, 176160, Note_on_c, 9, 36, 53
5, 176293, Note_on_c, 9, 38, 0
5, 176336, Note_on_c, 9, 59, 0
5, 176337, Note_on_c, 9, 36, 0
5, 176404, Note_on_c, 9, 51, 0
5, 176640, Note_on_c, 9, 57, 80
5, 176640, Note_on_c, 9, 38, 81
5, 176640, Note_on_c, 9, 44, 56
5, 176640, Note_on_c, 9, 36, 75
5, 176640, Note_on_c, 9, 51, 47
5, 176640, Note_on_c, 9, 36, 39
5, 176723, Note_on_c, 9, 57, 0
5, 176734, Note_on_c, 9, 38, 0
5, 176753, Note_on_c, 9, 36, 0
5, 176771, Note_on_c, 9, 51, 0
5, 176788, Note_on_c, 9, 36, 0
5, 176983, Note_on_c, 9, 44, 0
5, 177120, Note_on_c, 9, 36, 43
5, 177120, Note_on_c, 9, 51, 69
5, 177257, Note_on_c, 9, 51, 0
5, 177376, Note_on_c, 9, 36, 0
5, 177600, Note_on_c, 9, 44, 49
5, 177600, Note_on_c, 9, 51, 53
5, 177600, Note_on_c, 9, 37, 60
5, 177675, Note_on_c, 9, 37, 0
5, 177717, Note_on_c, 9, 51, 0
5, 177936, Note_on_c, 9, 44, 0
5, 178080, Note_on_c, 9, 36, 38
5, 178080, Note_on_c, 9, 51, 72
5, 178080, Note_on_c, 9, 57, 69
5, 178080, Note_on_c, 9, 36, 66
5, 178136, Note_on_c, 9, 57, 0
5, 178197, Note_on_c, 9, 51, 0
5, 178215, Note_on_c, 9, 36, 0
5, 178275, Note_on_c, 9, 36, 0
5, 178560, Note_on_c, 9, 51, 47
5, 178560, Note_on_c, 9, 44, 52
5, 178560, Note_on_c, 9, 37, 40
5, 178615, Note_on_c, 9, 37, 0
5, 178696, Note_on_c, 9, 51, 0
5, 178800, Note_on_c, 9, 59, 68
5, 178898, Note_on_c, 9, 44, 0
5, 178985, Note_on_c, 9, 59, 0
5, 179040, Note_on_c, 9, 36, 55
5, 179040, Note_on_c, 9, 51, 48
5, 179040, Note_on_c, 9, 36, 36
5, 179108, Note_on_c, 9, 36, 0
5, 179131, Note_on_c, 9, 51, 0
5, 179229, Note_on_c, 9, 36, 0
5, 179520, Note_on_c, 9, 51, 59
5, 179520, Note_on_c, 9, 57, 78
5, 179520, Note_on_c, 9, 38, 74
5, 179520, Note_on_c, 9, 44, 58
5, 179520, Note_on_c, 9, 36, 51
5, 179584, Note_on_c, 9, 57, 0
5, 179587, Note_on_c, 9, 36, 0
5, 179642, Note_on_c, 9, 38, 0
5, 179649, Note_on_c, 9, 51, 0
5, 179867, Note_on_c, 9, 44, 0
5, 180000, Note_on_c, 9, 51, 51
5, 180000, Note_on_c, 9, 37, 48
5, 180058, Note_on_c, 9, 37, 0
5, 180111, Note_on_c, 9, 51, 0
5, 180480, Note_on_c, 9, 51, 74
5, 180480, Note_on_c, 9, 44, 61
5, 180480, Note_on_c, 9, 37, 56
5, 180554, Note_on_c, 9, 37, 0
5, 180637, Note_on_c, 9, 51, 0
5, 180826, Note_on_c, 9, 44, 0
5, 180960, Note_on_c, 9, 51, 37
5, 180960, Note_on_c, 9, 36, 26
5, 181056, Note_on_c, 9, 51, 0
5, 181110, Note_on_c, 9, 36, 0
5, 181440, Note_on_c, 9, 44, 48
5, 181440, Note_on_c, 9, 51, 72
5, 181440, Note_on_c, 9, 37, 35
5, 181559, Note_on_c, 9, 37, 0
5, 181597, Note_on_c, 9, 51, 0
5, 181782, Note_on_c, 9, 44, 0
5, 181920, Note_on_c, 9, 51, 62
5, 181920, Note_on_c, 9, 36, 31
5, 182018, Note_on_c, 9, 51, 0
5, 182118, Note_on_c, 9, 36, 0
5, 182400, Note_on_c, 9, 44, 55
5, 182400, Note_on_c, 9, 51, 74
5, 182400, Note_on_c, 9, 37, 48
5, 182454, Note_on_c, 9, 37, 0
5, 182533, Note_on_c, 9, 51, 0
5, 182640, Note_on_c, 9, 51, 53
5, 182759, Note_on_c, 9, 44, 0
5, 182795, Note_on_c, 9, 51, 0
5, 182880, Note_on_c, 9, 51, 55
5, 182880, Note_on_c, 9, 37, 48
5, 182934, Note_on_c, 9, 37, 0
5, 182936, Note_on_c, 9, 51, 0
5, 183360, Note_on_c, 9, 44, 51
5, 183360, Note_on_c, 9, 51, 61
5, 183360, Note_on_c, 9, 37, 67
5, 183458, Note_on_c, 9, 37, 0
5, 183478, Note_on_c, 9, 51, 0
5, 183600, Note_on_c, 9, 51, 71
5, 183677, Note_on_c, 9, 44, 0
5, 183738, Note_on_c, 9, 51, 0
5, 183840, Note_on_c, 9, 38, 70
5, 183840, Note_on_c, 9, 51, 61
5, 183840, Note_on_c, 9, 36, 32
5, 183947, Note_on_c, 9, 51, 0
5, 184045, Note_on_c, 9, 36, 0
5, 184068, Note_on_c, 9, 38, 0
5, 184320, Note_on_c, 9, 44, 53
5, 184320, Note_on_c, 9, 51, 78
5, 184320, Note_on_c, 9, 57, 33
5, 184320, Note_on_c, 9, 36, 32
5, 184320, Note_on_c, 9, 38, 56
5, 184384, Note_on_c, 9, 57, 0
5, 184400, Note_on_c, 9, 38, 0
5, 184453, Note_on_c, 9, 51, 0
5, 184456, Note_on_c, 9, 36, 0
5, 184695, Note_on_c, 9, 44, 0
5, 184800, Note_on_c, 9, 51, 56
5, 184800, Note_on_c, 9, 36, 32
5, 184909, Note_on_c, 9, 36, 0
5, 184912, Note_on_c, 9, 51, 0
5, 185280, Note_on_c, 9, 44, 51
5, 185280, Note_on_c, 9, 51, 67
5, 185280, Note_on_c, 9, 37, 57
5, 185334, Note_on_c, 9, 37, 0
5, 185401, Note_on_c, 9, 51, 0
5, 185639, Note_on_c, 9, 44, 0
5, 185760, Note_on_c, 9, 51, 64
5, 185760, Note_on_c, 9, 36, 33
5, 185760, Note_on_c, 9, 38, 50
5, 185814, Note_on_c, 9, 38, 0
5, 185858, Note_on_c, 9, 36, 0
5, 185867, Note_on_c, 9, 51, 0
5, 186240, Note_on_c, 9, 44, 56
5, 186240, Note_on_c, 9, 51, 67
5, 186240, Note_on_c, 9, 38, 38
5, 186308, Note_on_c, 9, 38, 0
5, 186362, Note_on_c, 9, 51, 0
5, 186599, Note_on_c, 9, 44, 0
5, 186720, Note_on_c, 9, 51, 77
5, 186720, Note_on_c, 9, 36, 41
5, 186720, Note_on_c, 9, 36, 47
5, 186834, Note_on_c, 9, 36, 0
5, 186864, Note_on_c, 9, 51, 0
5, 186894, Note_on_c, 9, 36, 0
5, 187200, Note_on_c, 9, 44, 50
5, 187200, Note_on_c, 9, 51, 69
5, 187200, Note_on_c, 9, 36, 32
5, 187341, Note_on_c, 9, 51, 0
5, 187393, Note_on_c, 9, 36, 0
5, 187544, Note_on_c, 9, 44, 0
5, 187680, Note_on_c, 9, 51, 61
5, 187680, Note_on_c, 9, 36, 57
5, 187680, Note_on_c, 9, 53, 50
5, 187802, Note_on_c, 9, 36, 0
5, 187845, Note_on_c, 9, 51, 0
5, 187876, Note_on_c, 9, 53, 0
5, 188160, Note_on_c, 9, 44, 52
5, 188160, Note_on_c, 9, 51, 59
5, 188160, Note_on_c, 9, 37, 67
5, 188215, Note_on_c, 9, 37, 0
5, 188310, Note_on_c, 9, 51, 0
5, 188511, Note_on_c, 9, 44, 0
5, 188640, Note_on_c, 9, 37, 70
5, 188640, Note_on_c, 9, 51, 62
5, 188695, Note_on_c, 9, 37, 0
5, 188805, Note_on_c, 9, 51, 0
5, 189120, Note_on_c, 9, 51, 56
5, 189120, Note_on_c, 9, 36, 32
5, 189120, Note_on_c, 9, 44, 55
5, 189267, Note_on_c, 9, 51, 0
5, 189279, Note_on_c, 9, 36, 0
5, 189480, Note_on_c, 9, 44, 0
5, 189600, Note_on_c, 9, 51, 65
5, 189600, Note_on_c, 9, 53, 55
5, 189600, Note_on_c, 9, 37, 29
5, 189654, Note_on_c, 9, 37, 0
5, 189775, Note_on_c, 9, 51, 0
5, 189781, Note_on_c, 9, 53, 0
5, 190080, Note_on_c, 9, 51, 38
5, 190080, Note_on_c, 9, 44, 47
5, 190080, Note_on_c, 9, 37, 50
5, 190134, Note_on_c, 9, 37, 0
5, 190261, Note_on_c, 9, 51, 0
5, 190538, Note_on_c, 9, 44, 0
5, 190560, Note_on_c, 9, 59, 72
5, 190560, Note_on_c, 9, 51, 67
5, 190560, Note_on_c, 9, 36, 24
5, 190654, Note_on_c, 9, 36, 0
5, 190702, Note_on_c, 9, 51, 0
5, 190762, Note_on_c, 9, 59, 0
5, 191040, Note_on_c, 9, 51, 55
5, 191040, Note_on_c, 9, 37, 67
5, 191040, Note_on_c, 9, 44, 54
5, 191040, Note_on_c, 9, 38, 44
5, 191099, Note_on_c, 9, 38, 0
5, 191132, Note_on_c, 9, 37, 0
5, 191196, Note_on_c, 9, 51, 0
5, 191337, Note_on_c, 9, 44, 0
5, 191520, Note_on_c, 9, 37, 49
5, 191520, Note_on_c, 9, 38, 52
5, 191520, Note_on_c, 9, 52, 66
5, 191580, Note_on_c, 9, 38, 0
5, 191631, Note_on_c, 9, 37, 0
5, 191672, Note_on_c, 9, 52, 0
5, 192000, Note_on_c, 9, 51, 61
5, 192000, Note_on_c, 9, 36, 33
5, 192000, Note_on_c, 9, 44, 51
5, 192205, Note_on_c, 9, 36, 0
5, 192205, Note_on_c, 9, 51, 0
5, 192387, Note_on_c, 9, 44, 0
5, 192480, Note_on_c, 9, 51, 62
5, 192480, Note_on_c, 9, 36, 33
5, 192599, Note_on_c, 9, 36, 0
5, 192651, Note_on_c, 9, 51, 0
5, 192960, Note_on_c, 9, 51, 51
5, 192960, Note_on_c, 9, 37, 62
5, 192960, Note_on_c, 9, 44, 49
5, 193027, Note_on_c, 9, 51, 0
5, 193053, Note_on_c, 9, 37, 0
5, 193290, Note_on_c, 9, 44, 0
5, 193440, Note_on_c, 9, 36, 30
5, 193440, Note_on_c, 9, 51, 77
5, 193570, Note_on_c, 9, 36, 0
5, 193576, Note_on_c, 9, 51, 0
5, 193680, Note_on_c, 9, 45, 60
5, 193741, Note_on_c, 9, 45, 0
5, 193920, Note_on_c, 9, 51, 42
5, 193920, Note_on_c, 9, 45, 39
5, 193920, Note_on_c, 9, 37, 42
5, 193920, Note_on_c, 9, 44, 48
5, 193977, Note_on_c, 9, 37, 0
5, 194041, Note_on_c, 9, 51, 0
5, 194056, Note_on_c, 9, 45, 0
5, 194160, Note_on_c, 9, 51, 33
5, 194270, Note_on_c, 9, 51, 0
5, 194298, Note_on_c, 9, 44, 0
5, 194400, Note_on_c, 9, 51, 57
5, 194400, Note_on_c, 9, 37, 75
5, 194517, Note_on_c, 9, 51, 0
5, 194662, Note_on_c, 9, 37, 0
5, 194880, Note_on_c, 9, 36, 24
5, 194880, Note_on_c, 9, 51, 71
5, 194880, Note_on_c, 9, 44, 45
5, 194880, Note_on_c, 9, 44, 49
5, 194978, Note_on_c, 9, 36, 0
5, 194990, Note_on_c, 9, 51, 0
5, 195120, Note_on_c, 9, 51, 65
5, 195171, Note_on_c, 9, 44, 0
5, 195173, Note_on_c, 9, 44, 0
5, 195272, Note_on_c, 9, 51, 0
5, 195360, Note_on_c, 9, 36, 59
5, 195360, Note_on_c, 9, 36, 37
5, 195360, Note_on_c, 9, 51, 49
5, 195428, Note_on_c, 9, 36, 0
5, 195429, Note_on_c, 9, 51, 0
5, 195496, Note_on_c, 9, 36, 0
5, 195840, Note_on_c, 9, 44, 57
5, 195840, Note_on_c, 9, 51, 70
5, 195963, Note_on_c, 9, 51, 0
5, 196320, Note_on_c, 9, 51, 51
5, 196320, Note_on_c, 9, 36, 29
5, 196357, Note_on_c, 9, 44, 0
5, 196434, Note_on_c, 9, 51, 0
5, 196489, Note_on_c, 9, 36, 0
5, 196800, Note_on_c, 9, 51, 67
5, 196800, Note_on_c, 9, 44, 51
5, 196925, Note_on_c, 9, 51, 0
5, 197040, Note_on_c, 9, 37, 54
5, 197169, Note_on_c, 9, 37, 0
5, 197185, Note_on_c, 9, 44, 0
5, 197280, Note_on_c, 9, 37, 59
5, 197280, Note_on_c, 9, 51, 57
5, 197367, Note_on_c, 9, 37, 0
5, 197402, Note_on_c, 9, 51, 0
5, 197760, Note_on_c, 9, 36, 46
5, 197760, Note_on_c, 9, 51, 60
5, 197760, Note_on_c, 9, 44, 56
5, 197760, Note_on_c, 9, 45, 83
5, 197760, Note_on_c, 9, 46, 36
5, 197814, Note_on_c, 9, 46, 0
5, 197842, Note_on_c, 9, 45, 0
5, 197882, Note_on_c, 9, 51, 0
5, 197891, Note_on_c, 9, 36, 0
5, 198000, Note_on_c, 9, 51, 61
5, 198000, Note_on_c, 9, 45, 76
5, 198114, Note_on_c, 9, 45, 0
5, 198126, Note_on_c, 9, 51, 0
5, 198139, Note_on_c, 9, 44, 0
5, 198240, Note_on_c, 9, 51, 55
5, 198240, Note_on_c, 9, 36, 45
5, 198240, Note_on_c, 9, 43, 39
5, 198240, Note_on_c, 9, 45, 33
5, 198303, Note_on_c, 9, 43, 0
5, 198307, Note_on_c, 9, 45, 0
5, 198348, Note_on_c, 9, 51, 0
5, 198385, Note_on_c, 9, 36, 0
5, 198720, Note_on_c, 9, 44, 57
5, 198720, Note_on_c, 9, 51, 57
5, 198720, Note_on_c, 9, 37, 57
5, 198720, Note_on_c, 9, 43, 78
5, 198774, Note_on_c, 9, 37, 0
5, 198775, Note_on_c, 9, 43, 0
5, 198843, Note_on_c, 9, 51, 0
5, 198960, Note_on_c, 9, 51, 55
5, 199079, Note_on_c, 9, 44, 0
5, 199085, Note_on_c, 9, 51, 0
5, 199200, Note_on_c, 9, 36, 47
5, 199200, Note_on_c, 9, 38, 70
5, 199200, Note_on_c, 9, 51, 52
5, 199272, Note_on_c, 9, 51, 0
5, 199324, Note_on_c, 9, 38, 0
5, 199359, Note_on_c, 9, 36, 0
5, 199680, Note_on_c, 9, 36, 41
5, 199680, Note_on_c, 9, 57, 71
5, 199680, Note_on_c, 9, 36, 69
5, 199680, Note_on_c, 9, 44, 51
5, 199680, Note_on_c, 9, 51, 71
5, 199735, Note_on_c, 9, 57, 0
5, 199802, Note_on_c, 9, 36, 0
5, 199836, Note_on_c, 9, 51, 0
5, 199842, Note_on_c, 9, 36, 0
5, 199920, Note_on_c, 9, 51, 57
5, 200035, Note_on_c, 9, 51, 0
5, 200056, Note_on_c, 9, 44, 0
5, 200160, Note_on_c, 9, 51, 52
5, 200160, Note_on_c, 9, 37, 44
5, 200235, Note_on_c, 9, 37, 0
5, 200278, Note_on_c, 9, 51, 0
5, 200640, Note_on_c, 9, 44, 50
5, 200640, Note_on_c, 9, 51, 71
5, 200752, Note_on_c, 9, 51, 0
5, 201013, Note_on_c, 9, 44, 0
5, 201120, Note_on_c, 9, 36, 35
5, 201120, Note_on_c, 9, 51, 48
5, 201192, Note_on_c, 9, 51, 0
5, 201197, Note_on_c, 9, 36, 0
5, 201360, Note_on_c, 9, 51, 45
5, 201488, Note_on_c, 9, 51, 0
5, 201600, Note_on_c, 9, 51, 71
5, 201600, Note_on_c, 9, 44, 53
5, 201600, Note_on_c, 9, 37, 53
5, 201654, Note_on_c, 9, 37, 0
5, 201710, Note_on_c, 9, 51, 0
5, 201954, Note_on_c, 9, 44, 0
5, 202080, Note_on_c, 9, 51, 69
5, 202080, Note_on_c, 9, 36, 39
5, 202158, Note_on_c, 9, 36, 0
5, 202186, Note_on_c, 9, 51, 0
5, 202560, Note_on_c, 9, 44, 47
5, 202560, Note_on_c, 9, 37, 37
5, 202560, Note_on_c, 9, 51, 57
5, 202614, Note_on_c, 9, 37, 0
5, 202655, Note_on_c, 9, 51, 0
5, 202800, Note_on_c, 9, 51, 56
5, 202889, Note_on_c, 9, 44, 0
5, 202923, Note_on_c, 9, 51, 0
5, 203040, Note_on_c, 9, 51, 62
5, 203040, Note_on_c, 9, 37, 79
5, 203145, Note_on_c, 9, 37, 0
5, 203177, Note_on_c, 9, 51, 0
5, 203520, Note_on_c, 9, 37, 82
5, 203520, Note_on_c, 9, 44, 43
5, 203520, Note_on_c, 9, 51, 67
5, 203642, Note_on_c, 9, 37, 0
5, 203648, Note_on_c, 9, 51, 0
5, 203760, Note_on_c, 9, 51, 29
5, 203888, Note_on_c, 9, 44, 0
5, 203896, Note_on_c, 9, 51, 0
5, 204000, Note_on_c, 9, 36, 28
5, 204096, Note_on_c, 9, 36, 0
5, 204480, Note_on_c, 9, 37, 35
5, 204480, Note_on_c, 9, 51, 74
5, 204480, Note_on_c, 9, 44, 48
5, 204567, Note_on_c, 9, 37, 0
5, 204589, Note_on_c, 9, 51, 0
5, 204822, Note_on_c, 9, 44, 0
5, 204960, Note_on_c, 9, 37, 39
5, 204960, Note_on_c, 9, 51, 58
5, 205015, Note_on_c, 9, 37, 0
5, 205024, Note_on_c, 9, 51, 0
5, 205440, Note_on_c, 9, 37, 48
5, 205440, Note_on_c, 9, 51, 55
5, 205440, Note_on_c, 9, 44, 55
5, 205494, Note_on_c, 9, 51, 0
5, 205512, Note_on_c, 9, 37, 0
5, 205680, Note_on_c, 9, 37, 49
5, 205752, Note_on_c, 9, 37, 0
5, 205812, Note_on_c, 9, 44, 0
5, 205920, Note_on_c, 9, 36, 52
5, 205920, Note_on_c, 9, 51, 55
5, 205989, Note_on_c, 9, 51, 0
5, 205994, Note_on_c, 9, 36, 0
5, 206400, Note_on_c, 9, 44, 53
5, 206400, Note_on_c, 9, 51, 69
5, 206531, Note_on_c, 9, 51, 0
5, 206640, Note_on_c, 9, 51, 59
5, 206708, Note_on_c, 9, 44, 0
5, 206751, Note_on_c, 9, 51, 0
5, 206880, Note_on_c, 9, 51, 56
5, 206880, Note_on_c, 9, 37, 61
5, 206939, Note_on_c, 9, 37, 0
5, 206950, Note_on_c, 9, 51, 0
5, 207120, Note_on_c, 9, 37, 55
5, 207192, Note_on_c, 9, 37, 0
5, 207360, Note_on_c, 9, 44, 56
5, 207360, Note_on_c, 9, 51, 70
5, 207360, Note_on_c, 9, 36, 41
5, 207474, Note_on_c, 9, 36, 0
5, 207490, Note_on_c, 9, 51, 0
5, 207600, Note_on_c, 9, 51, 56
5, 207723, Note_on_c, 9, 51, 0
5, 207753, Note_on_c, 9, 44, 0
5, 207840, Note_on_c, 9, 51, 49
5, 207840, Note_on_c, 9, 36, 22
5, 207929, Note_on_c, 9, 36, 0
5, 207934, Note_on_c, 9, 51, 0
5, 208320, Note_on_c, 9, 44, 43
5, 208320, Note_on_c, 9, 37, 59
5, 208320, Note_on_c, 9, 51, 67
5, 208450, Note_on_c, 9, 51, 0
5, 208466, Note_on_c, 9, 37, 0
5, 208560, Note_on_c, 9, 37, 63
5, 208651, Note_on_c, 9, 44, 0
5, 208659, Note_on_c, 9, 37, 0
5, 208800, Note_on_c, 9, 51, 58
5, 208800, Note_on_c, 9, 36, 36
5, 208907, Note_on_c, 9, 51, 0
5, 208944, Note_on_c, 9, 36, 0
5, 209040, Note_on_c, 9, 51, 62
5, 209168, Note_on_c, 9, 51, 0
5, 209280, Note_on_c, 9, 51, 57
5, 209280, Note_on_c, 9, 44, 45
5, 209280, Note_on_c, 9, 36, 34
5, 209390, Note_on_c, 9, 51, 0
5, 209426, Note_on_c, 9, 36, 0
5, 209616, Note_on_c, 9, 44, 0
5, 209760, Note_on_c, 9, 51, 72
5, 209760, Note_on_c, 9, 36, 46
5, 209862, Note_on_c, 9, 51, 0
5, 209892, Note_on_c, 9, 36, 0
5, 210240, Note_on_c, 9, 51, 74
5, 210240, Note_on_c, 9, 44, 51
5, 210240, Note_on_c, 9, 37, 60
5, 210294, Note_on_c, 9, 37, 0
5, 210393, Note_on_c, 9, 51, 0
5, 210480, Note_on_c, 9, 51, 67
5, 210598, Note_on_c, 9, 51, 0
5, 210616, Note_on_c, 9, 44, 0
5, 210720, Note_on_c, 9, 36, 34
5, 210720, Note_on_c, 9, 51, 59
5, 210815, Note_on_c, 9, 51, 0
5, 210889, Note_on_c, 9, 36, 0
5, 211200, Note_on_c, 9, 37, 54
5, 211200, Note_on_c, 9, 44, 38
5, 211200, Note_on_c, 9, 51, 67
5, 211254, Note_on_c, 9, 37, 0
5, 211262, Note_on_c, 9, 51, 0
5, 211547, Note_on_c, 9, 44, 0
5, 211680, Note_on_c, 9, 37, 56
5, 211680, Note_on_c, 9, 51, 64
5, 211734, Note_on_c, 9, 37, 0
5, 211775, Note_on_c, 9, 51, 0
5, 211920, Note_on_c, 9, 51, 64
5, 212037, Note_on_c, 9, 51, 0
5, 212160, Note_on_c, 9, 36, 31
5, 212160, Note_on_c, 9, 44, 36
5, 212160, Note_on_c, 9, 51, 58
5, 212226, Note_on_c, 9, 36, 0
5, 212284, Note_on_c, 9, 51, 0
5, 212490, Note_on_c, 9, 44, 0
5, 212640, Note_on_c, 9, 36, 58
5, 212640, Note_on_c, 9, 51, 69
5, 212731, Note_on_c, 9, 51, 0
5, 212788, Note_on_c, 9, 36, 0
5, 213120, Note_on_c, 9, 44, 50
5, 213120, Note_on_c, 9, 51, 69
5, 213301, Note_on_c, 9, 51, 0
5, 213360, Note_on_c, 9, 51, 36
5, 213423, Note_on_c, 9, 51, 0
5, 213476, Note_on_c, 9, 44, 0
5, 213600, Note_on_c, 9, 36, 44
5, 213665, Note_on_c, 9, 36, 0
5, 214080, Note_on_c, 9, 51, 76
5, 214080, Note_on_c, 9, 44, 47
5, 214080, Note_on_c, 9, 44, 51
5, 214080, Note_on_c, 9, 37, 54
5, 214192, Note_on_c, 9, 51, 0
5, 214195, Note_on_c, 9, 37, 0
5, 214320, Note_on_c, 9, 37, 61
5, 214374, Note_on_c, 9, 37, 0
5, 214376, Note_on_c, 9, 44, 0
5, 214392, Note_on_c, 9, 44, 0
5, 214560, Note_on_c, 9, 51, 56
5, 214560, Note_on_c, 9, 36, 64
5, 214619, Note_on_c, 9, 51, 0
5, 214710, Note_on_c, 9, 36, 0
5, 215040, Note_on_c, 9, 51, 77
5, 215040, Note_on_c, 9, 44, 59
5, 215040, Note_on_c, 9, 36, 41
5, 215040, Note_on_c, 9, 36, 34
5, 215106, Note_on_c, 9, 36, 0
5, 215136, Note_on_c, 9, 36, 0
5, 215160, Note_on_c, 9, 51, 0
5, 215520, Note_on_c, 9, 51, 59
5, 215520, Note_on_c, 9, 36, 41
5, 215520, Note_on_c, 9, 36, 35
5, 215591, Note_on_c, 9, 51, 0
5, 215595, Note_on_c, 9, 36, 0
5, 215618, Note_on_c, 9, 36, 0
5, 215637, Note_on_c, 9, 44, 0
5, 216000, Note_on_c, 9, 51, 71
5, 216000, Note_on_c, 9, 44, 57
5, 216000, Note_on_c, 9, 37, 59
5, 216054, Note_on_c, 9, 37, 0
5, 216114, Note_on_c, 9, 51, 0
5, 216380, Note_on_c, 9, 44, 0
5, 216480, Note_on_c, 9, 36, 40
5, 216480, Note_on_c, 9, 51, 50
5, 216566, Note_on_c, 9, 36, 0
5, 216608, Note_on_c, 9, 51, 0
5, 216960, Note_on_c, 9, 51, 70
5, 216960, Note_on_c, 9, 44, 52
5, 217074, Note_on_c, 9, 51, 0
5, 217200, Note_on_c, 9, 51, 62
5, 217331, Note_on_c, 9, 44, 0
5, 217336, Note_on_c, 9, 51, 0
5, 217440, Note_on_c, 9, 51, 67
5, 217440, Note_on_c, 9, 36, 22
5, 217440, Note_on_c, 9, 36, 20
5, 217510, Note_on_c, 9, 36, 0
5, 217528, Note_on_c, 9, 36, 0
5, 217528, Note_on_c, 9, 51, 0
5, 217920, Note_on_c, 9, 44, 55
5, 217920, Note_on_c, 9, 51, 74
5, 218024, Note_on_c, 9, 51, 0
5, 218160, Note_on_c, 9, 36, 32
5, 218284, Note_on_c, 9, 44, 0
5, 218299, Note_on_c, 9, 36, 0
5, 218400, Note_on_c, 9, 51, 77
5, 218400, Note_on_c, 9, 36, 42
5, 218479, Note_on_c, 9, 36, 0
5, 218520, Note_on_c, 9, 51, 0
5, 218640, Note_on_c, 9, 36, 20
5, 218733, Note_on_c, 9, 36, 0
5, 218880, Note_on_c, 9, 44, 60
5, 218880, Note_on_c, 9, 51, 67
5, 219001, Note_on_c, 9, 51, 0
5, 219120, Note_on_c, 9, 51, 49
5, 219244, Note_on_c, 9, 51, 0
5, 219284, Note_on_c, 9, 44, 0
5, 219360, Note_on_c, 9, 51, 59
5, 219496, Note_on_c, 9, 51, 0
5, 219840, Note_on_c, 9, 37, 70
5, 219840, Note_on_c, 9, 51, 77
5, 219840, Note_on_c, 9, 44, 44
5, 219894, Note_on_c, 9, 37, 0
5, 219954, Note_on_c, 9, 51, 0
5, 220192, Note_on_c, 9, 44, 0
5, 220320, Note_on_c, 9, 51, 76
5, 220320, Note_on_c, 9, 36, 24
5, 220374, Note_on_c, 9, 36, 0
5, 220434, Note_on_c, 9, 51, 0
5, 220800, Note_on_c, 9, 44, 57
5, 220800, Note_on_c, 9, 37, 59
5, 220800, Note_on_c, 9, 51, 69
5, 220854, Note_on_c, 9, 37, 0
5, 220880, Note_on_c, 9, 51, 0
5, 221040, Note_on_c, 9, 51, 65
5, 221141, Note_on_c, 9, 51, 0
5, 221186, Note_on_c, 9, 44, 0
5, 221280, Note_on_c, 9, 51, 64
5, 221280, Note_on_c, 9, 37, 73
5, 221335, Note_on_c, 9, 37, 0
5, 221411, Note_on_c, 9, 51, 0
5, 221760, Note_on_c, 9, 37, 65
5, 221760, Note_on_c, 9, 44, 53
5, 221760, Note_on_c, 9, 40, 53
5, 221760, Note_on_c, 9, 51, 71
5, 221816, Note_on_c, 9, 37, 0
5, 221848, Note_on_c, 9, 40, 0
5, 221865, Note_on_c, 9, 51, 0
5, 222000, Note_on_c, 9, 40, 44
5, 222067, Note_on_c, 9, 40, 0
5, 222143, Note_on_c, 9, 44, 0
5, 222240, Note_on_c, 9, 36, 44
5, 222240, Note_on_c, 9, 51, 72
5, 222349, Note_on_c, 9, 51, 0
5, 222368, Note_on_c, 9, 36, 0
5, 222720, Note_on_c, 9, 40, 47
5, 222720, Note_on_c, 9, 44, 60
5, 222720, Note_on_c, 9, 37, 31
5, 222720, Note_on_c, 9, 51, 67
5, 222776, Note_on_c, 9, 37, 0
5, 222788, Note_on_c, 9, 40, 0
5, 222835, Note_on_c, 9, 51, 0
5, 222960, Note_on_c, 9, 40, 43
5, 222960, Note_on_c, 9, 51, 55
5, 223030, Note_on_c, 9, 40, 0
5, 223080, Note_on_c, 9, 51, 0
5, 223099, Note_on_c, 9, 44, 0
5, 223200, Note_on_c, 9, 36, 25
5, 223200, Note_on_c, 9, 51, 64
5, 223200, Note_on_c, 9, 37, 30
5, 223254, Note_on_c, 9, 37, 0
5, 223266, Note_on_c, 9, 36, 0
5, 223308, Note_on_c, 9, 51, 0
5, 223680, Note_on_c, 9, 36, 33
5, 223680, Note_on_c, 9, 44, 50
5, 223680, Note_on_c, 9, 37, 60
5, 223680, Note_on_c, 9, 51, 77
5, 223738, Note_on_c, 9, 37, 0
5, 223789, Note_on_c, 9, 51, 0
5, 223845, Note_on_c, 9, 36, 0
5, 224034, Note_on_c, 9, 44, 0
5, 224160, Note_on_c, 9, 36, 36
5, 224160, Note_on_c, 9, 51, 74
5, 224254, Note_on_c, 9, 36, 0
5, 224267, Note_on_c, 9, 51, 0
5, 224640, Note_on_c, 9, 44, 56
5, 224640, Note_on_c, 9, 51, 75
5, 224787, Note_on_c, 9, 51, 0
5, 225008, Note_on_c, 9, 44, 0
5, 225120, Note_on_c, 9, 51, 61
5, 225120, Note_on_c, 9, 36, 34
5, 225214, Note_on_c, 9, 36, 0
5, 225266, Note_on_c, 9, 51, 0
5, 225600, Note_on_c, 9, 44, 48
5, 225600, Note_on_c, 9, 51, 67
5, 225600, Note_on_c, 9, 37, 40
5, 225655, Note_on_c, 9, 37, 0
5, 225761, Note_on_c, 9, 51, 0
5, 225840, Note_on_c, 9, 38, 56
5, 225840, Note_on_c, 9, 37, 62
5, 225894, Note_on_c, 9, 38, 0
5, 225919, Note_on_c, 9, 37, 0
5, 225956, Note_on_c, 9, 44, 0
5, 226080, Note_on_c, 9, 51, 69
5, 226080, Note_on_c, 9, 53, 61
5, 226080, Note_on_c, 9, 36, 51
5, 226261, Note_on_c, 9, 53, 0
5, 226282, Note_on_c, 9, 36, 0
5, 226310, Note_on_c, 9, 51, 0
5, 226560, Note_on_c, 9, 44, 49
5, 226560, Note_on_c, 9, 51, 53
5, 226560, Note_on_c, 9, 36, 58
5, 226694, Note_on_c, 9, 36, 0
5, 226705, Note_on_c, 9, 51, 0
5, 226896, Note_on_c, 9, 44, 0
5, 227040, Note_on_c, 9, 51, 64
5, 227040, Note_on_c, 9, 36, 44
5, 227156, Note_on_c, 9, 51, 0
5, 227170, Note_on_c, 9, 36, 0
5, 227520, Note_on_c, 9, 51, 67
5, 227520, Note_on_c, 9, 44, 53
5, 227670, Note_on_c, 9, 51, 0
5, 227866, Note_on_c, 9, 44, 0
5, 228000, Note_on_c, 9, 51, 81
5, 228000, Note_on_c, 9, 37, 65
5, 228076, Note_on_c, 9, 37, 0
5, 228173, Note_on_c, 9, 51, 0
5, 228480, Note_on_c, 9, 51, 59
5, 228480, Note_on_c, 9, 44, 49
5, 228595, Note_on_c, 9, 51, 0
5, 228812, Note_on_c, 9, 44, 0
5, 228960, Note_on_c, 9, 51, 74
5, 228960, Note_on_c, 9, 36, 42
5, 228960, Note_on_c, 9, 38, 31
5, 229026, Note_on_c, 9, 38, 0
5, 229047, Note_on_c, 9, 36, 0
5, 229068, Note_on_c, 9, 51, 0
5, 229440, Note_on_c, 9, 51, 52
5, 229440, Note_on_c, 9, 44, 51
5, 229440, Note_on_c, 9, 37, 42
5, 229494, Note_on_c, 9, 37, 0
5, 229510, Note_on_c, 9, 51, 0
5, 229680, Note_on_c, 9, 51, 57
5, 229680, Note_on_c, 9, 38, 68
5, 229724, Note_on_c, 9, 44, 0
5, 229749, Note_on_c, 9, 38, 0
5, 229831, Note_on_c, 9, 51, 0
5, 229920, Note_on_c, 9, 51, 69
5, 229920, Note_on_c, 9, 37, 57
5, 229920, Note_on_c, 9, 36, 33
5, 229975, Note_on_c, 9, 37, 0
5, 230021, Note_on_c, 9, 36, 0
5, 230060, Note_on_c, 9, 51, 0
5, 230400, Note_on_c, 9, 36, 36
5, 230400, Note_on_c, 9, 44, 60
5, 230400, Note_on_c, 9, 51, 75
5, 230400, Note_on_c, 9, 36, 42
5, 230514, Note_on_c, 9, 36, 0
5, 230540, Note_on_c, 9, 51, 0
5, 230547, Note_on_c, 9, 36, 0
5, 230749, Note_on_c, 9, 44, 0
5, 230880, Note_on_c, 9, 36, 29
5, 230880, Note_on_c, 9, 51, 59
5, 230880, Note_on_c, 9, 36, 32
5, 230958, Note_on_c, 9, 36, 0
5, 230991, Note_on_c, 9, 51, 0
5, 231013, Note_on_c, 9, 36, 0
5, 231360, Note_on_c, 9, 51, 64
5, 231360, Note_on_c, 9, 37, 58
5, 231360, Note_on_c, 9, 44, 50
5, 231416, Note_on_c, 9, 37, 0
5, 231440, Note_on_c, 9, 51, 0
5, 231712, Note_on_c, 9, 44, 0
5, 231840, Note_on_c, 9, 36, 35
5, 231840, Note_on_c, 9, 51, 83
5, 231975, Note_on_c, 9, 51, 0
5, 231982, Note_on_c, 9, 36, 0
5, 232320, Note_on_c, 9, 51, 57
5, 232320, Note_on_c, 9, 36, 40
5, 232320, Note_on_c, 9, 44, 42
5, 232499, Note_on_c, 9, 36, 0
5, 232528, Note_on_c, 9, 51, 0
5, 232665, Note_on_c, 9, 44, 0
5, 232800, Note_on_c, 9, 51, 75
5, 232800, Note_on_c, 9, 37, 75
5, 232905, Note_on_c, 9, 37, 0
5, 232987, Note_on_c, 9, 51, 0
5, 233280, Note_on_c, 9, 36, 34
5, 233280, Note_on_c, 9, 51, 72
5, 233280, Note_on_c, 9, 44, 52
5, 233429, Note_on_c, 9, 51, 0
5, 233475, Note_on_c, 9, 36, 0
5, 233614, Note_on_c, 9, 44, 0
5, 233760, Note_on_c, 9, 37, 74
5, 233760, Note_on_c, 9, 51, 74
5, 233871, Note_on_c, 9, 37, 0
5, 233878, Note_on_c, 9, 51, 0
5, 234240, Note_on_c, 9, 37, 62
5, 234240, Note_on_c, 9, 51, 65
5, 234240, Note_on_c, 9, 44, 39
5, 234310, Note_on_c, 9, 37, 0
5, 234359, Note_on_c, 9, 51, 0
5, 234480, Note_on_c, 9, 51, 56
5, 234587, Note_on_c, 9, 44, 0
5, 234624, Note_on_c, 9, 51, 0
5, 234720, Note_on_c, 9, 51, 62
5, 234840, Note_on_c, 9, 51, 0
5, 235200, Note_on_c, 9, 51, 69
5, 235200, Note_on_c, 9, 44, 44
5, 235344, Note_on_c, 9, 51, 0
5, 235440, Note_on_c, 9, 51, 60
5, 235543, Note_on_c, 9, 44, 0
5, 235560, Note_on_c, 9, 51, 0
5, 235680, Note_on_c, 9, 36, 64
5, 235680, Note_on_c, 9, 51, 56
5, 235766, Note_on_c, 9, 51, 0
5, 235859, Note_on_c, 9, 36, 0
5, 236160, Note_on_c, 9, 37, 59
5, 236160, Note_on_c, 9, 44, 53
5, 236160, Note_on_c, 9, 51, 70
5, 236214, Note_on_c, 9, 37, 0
5, 236270, Note_on_c, 9, 51, 0
5, 236480, Note_on_c, 9, 44, 0
5, 236640, Note_on_c, 9, 38, 36
5, 236640, Note_on_c, 9, 37, 62
5, 236640, Note_on_c, 9, 51, 67
5, 236695, Note_on_c, 9, 37, 0
5, 236765, Note_on_c, 9, 51, 0
5, 236815, Note_on_c, 9, 38, 0
5, 237120, Note_on_c, 9, 38, 40
5, 237120, Note_on_c, 9, 37, 60
5, 237120, Note_on_c, 9, 44, 50
5, 237120, Note_on_c, 9, 51, 70
5, 237176, Note_on_c, 9, 37, 0
5, 237245, Note_on_c, 9, 38, 0
5, 237347, Note_on_c, 9, 51, 0
5, 237459, Note_on_c, 9, 44, 0
5, 237600, Note_on_c, 9, 36, 40
5, 237600, Note_on_c, 9, 36, 33
5, 237600, Note_on_c, 9, 51, 51
5, 237684, Note_on_c, 9, 51, 0
5, 237693, Note_on_c, 9, 36, 0
5, 237762, Note_on_c, 9, 36, 0
5, 238080, Note_on_c, 9, 36, 52
5, 238080, Note_on_c, 9, 44, 56
5, 238080, Note_on_c, 9, 37, 34
5, 238080, Note_on_c, 9, 51, 77
5, 238160, Note_on_c, 9, 37, 0
5, 238265, Note_on_c, 9, 36, 0
5, 238288, Note_on_c, 9, 51, 0
5, 238453, Note_on_c, 9, 44, 0
5, 238560, Note_on_c, 9, 37, 43
5, 238560, Note_on_c, 9, 51, 48
5, 238615, Note_on_c, 9, 37, 0
5, 238656, Note_on_c, 9, 51, 0
5, 239040, Note_on_c, 9, 37, 53
5, 239040, Note_on_c, 9, 44, 48
5, 239040, Note_on_c, 9, 51, 78
5, 239099, Note_on_c, 9, 37, 0
5, 239256, Note_on_c, 9, 51, 0
5, 239378, Note_on_c, 9, 44, 0
5, 239520, Note_on_c, 9, 36, 25
5, 239520, Note_on_c, 9, 51, 52
5, 239607, Note_on_c, 9, 36, 0
5, 239624, Note_on_c, 9, 51, 0
5, 240000, Note_on_c, 9, 44, 49
5, 240000, Note_on_c, 9, 51, 77
5, 240112, Note_on_c, 9, 51, 0
5, 240339, Note_on_c, 9, 44, 0
5, 240480, Note_on_c, 9, 36, 38
5, 240480, Note_on_c, 9, 38, 40
5, 240480, Note_on_c, 9, 51, 78
5, 240593, Note_on_c, 9, 38, 0
5, 240605, Note_on_c, 9, 51, 0
5, 240629, Note_on_c, 9, 36, 0
5, 240960, Note_on_c, 9, 38, 66
5, 240960, Note_on_c, 9, 44, 47
5, 240960, Note_on_c, 9, 51, 65
5, 240960, Note_on_c, 9, 37, 70
5, 241016, Note_on_c, 9, 37, 0
5, 241072, Note_on_c, 9, 51, 0
5, 241074, Note_on_c, 9, 38, 0
5, 241200, Note_on_c, 9, 51, 56
5, 241293, Note_on_c, 9, 44, 0
5, 241320, Note_on_c, 9, 51, 0
5, 241440, Note_on_c, 9, 51, 57
5, 241440, Note_on_c, 9, 37, 69
5, 241440, Note_on_c, 9, 36, 77
5, 241440, Note_on_c, 9, 57, 72
5, 241497, Note_on_c, 9, 57, 0
5, 241497, Note_on_c, 9, 37, 0
5, 241587, Note_on_c, 9, 51, 0
5, 241588, Note_on_c, 9, 36, 0
5, 241920, Note_on_c, 9, 37, 52
5, 241920, Note_on_c, 9, 44, 44
5, 241920, Note_on_c, 9, 51, 71
5, 241974, Note_on_c, 9, 37, 0
5, 242070, Note_on_c, 9, 51, 0
5, 242160, Note_on_c, 9, 51, 43
5, 242276, Note_on_c, 9, 44, 0
5, 242296, Note_on_c, 9, 51, 0
5, 242400, Note_on_c, 9, 36, 38
5, 242400, Note_on_c, 9, 51, 68
5, 242494, Note_on_c, 9, 51, 0
5, 242554, Note_on_c, 9, 36, 0
5, 242880, Note_on_c, 9, 44, 48
5, 242880, Note_on_c, 9, 37, 25
5, 242880, Note_on_c, 9, 51, 80
5, 242959, Note_on_c, 9, 37, 0
5, 243017, Note_on_c, 9, 51, 0
5, 243209, Note_on_c, 9, 44, 0
5, 243360, Note_on_c, 9, 51, 71
5, 243360, Note_on_c, 9, 37, 62
5, 243461, Note_on_c, 9, 37, 0
5, 243489, Note_on_c, 9, 51, 0
5, 243840, Note_on_c, 9, 51, 73
5, 243840, Note_on_c, 9, 37, 74
5, 243840, Note_on_c, 9, 44, 48
5, 244032, Note_on_c, 9, 51, 0
5, 244077, Note_on_c, 9, 37, 0
5, 244164, Note_on_c, 9, 44, 0
5, 244320, Note_on_c, 9, 51, 63
5, 244320, Note_on_c, 9, 36, 32
5, 244395, Note_on_c, 9, 36, 0
5, 244464, Note_on_c, 9, 51, 0
5, 244800, Note_on_c, 9, 37, 71
5, 244800, Note_on_c, 9, 51, 74
5, 244800, Note_on_c, 9, 44, 47
5, 244943, Note_on_c, 9, 37, 0
5, 244997, Note_on_c, 9, 51, 0
5, 245033, Note_on_c, 9, 44, 0
5, 245280, Note_on_c, 9, 38, 50
5, 245280, Note_on_c, 9, 51, 59
5, 245337, Note_on_c, 9, 38, 0
5, 245403, Note_on_c, 9, 51, 0
5, 245760, Note_on_c, 9, 36, 37
5, 245760, Note_on_c, 9, 57, 75
5, 245760, Note_on_c, 9, 36, 74
5, 245760, Note_on_c, 9, 51, 81
5, 245760, Note_on_c, 9, 37, 36
5, 245760, Note_on_c, 9, 44, 47
5, 245760, Note_on_c, 9, 51, 77
5, 245761, Note_on_c, 9, 37, 0
5, 245788, Note_on_c, 9, 51, 0
5, 245814, Note_on_c, 9, 57, 0
5, 245831, Note_on_c, 9, 36, 0
5, 245867, Note_on_c, 9, 51, 0
5, 245869, Note_on_c, 9, 36, 0
5, 245936, Note_on_c, 9, 44, 0
5, 246240, Note_on_c, 9, 51, 54
5, 246301, Note_on_c, 9, 51, 0
5, 246720, Note_on_c, 9, 44, 47
5, 246720, Note_on_c, 9, 51, 53
5, 246818, Note_on_c, 9, 51, 0
5, 246960, Note_on_c, 9, 51, 36
5, 247047, Note_on_c, 9, 51, 0
5, 247139, Note_on_c, 9, 44, 0
5, 247200, Note_on_c, 9, 51, 31
5, 247272, Note_on_c, 9, 51, 0
5, 247680, Note_on_c, 9, 44, 39
5, 247680, Note_on_c, 9, 51, 69
5, 247818, Note_on_c, 9, 51, 0
5, 247920, Note_on_c, 9, 51, 50
5, 248045, Note_on_c, 9, 51, 0
5, 248048, Note_on_c, 9, 44, 0
5, 248160, Note_on_c, 9, 37, 36
5, 248160, Note_on_c, 9, 51, 60
5, 248160, Note_on_c, 9, 38, 50
5, 248214, Note_on_c, 9, 51, 0
5, 248225, Note_on_c, 9, 38, 0
5, 248256, Note_on_c, 9, 37, 0
5, 248640, Note_on_c, 9, 44, 44
5, 248640, Note_on_c, 9, 51, 71
5, 248640, Note_on_c, 9, 38, 46
5, 248695, Note_on_c, 9, 38, 0
5, 248757, Note_on_c, 9, 51, 0
5, 249008, Note_on_c, 9, 44, 0
5, 249120, Note_on_c, 9, 38, 50
5, 249120, Note_on_c, 9, 51, 59
5, 249186, Note_on_c, 9, 38, 0
5, 249222, Note_on_c, 9, 51, 0
5, 249360, Note_on_c, 9, 51, 69
5, 249464, Note_on_c, 9, 51, 0
5, 249600, Note_on_c, 9, 44, 46
5, 249600, Note_on_c, 9, 51, 64
5, 249600, Note_on_c, 9, 36, 34
5, 249733, Note_on_c, 9, 51, 0
5, 249753, Note_on_c, 9, 36, 0
5, 249997, Note_on_c, 9, 44, 0
5, 250080, Note_on_c, 9, 37, 27
5, 250080, Note_on_c, 9, 51, 69
5, 250080, Note_on_c, 9, 36, 34
5, 250158, Note_on_c, 9, 51, 0
5, 250166, Note_on_c, 9, 37, 0
5, 250216, Note_on_c, 9, 36, 0
5, 250560, Note_on_c, 9, 44, 44
5, 250560, Note_on_c, 9, 37, 44
5, 250560, Note_on_c, 9, 51, 59
5, 250640, Note_on_c, 9, 51, 0
5, 250799, Note_on_c, 9, 37, 0
5, 250800, Note_on_c, 9, 51, 45
5, 250941, Note_on_c, 9, 51, 0
5, 250985, Note_on_c, 9, 44, 0
5, 251040, Note_on_c, 9, 51, 62
5, 251040, Note_on_c, 9, 36, 38
5, 251128, Note_on_c, 9, 36, 0
5, 251163, Note_on_c, 9, 51, 0
5, 251520, Note_on_c, 9, 44, 50
5, 251520, Note_on_c, 9, 37, 48
5, 251520, Note_on_c, 9, 51, 67
5, 251638, Note_on_c, 9, 51, 0
5, 251760, Note_on_c, 9, 51, 70
5, 251870, Note_on_c, 9, 51, 0
5, 251920, Note_on_c, 9, 44, 0
5, 252000, Note_on_c, 9, 51, 57
5, 252010, Note_on_c, 9, 37, 0
5, 252107, Note_on_c, 9, 51, 0
5, 252480, Note_on_c, 9, 44, 55
5, 252480, Note_on_c, 9, 51, 64
5, 252593, Note_on_c, 9, 51, 0
5, 252720, Note_on_c, 9, 51, 56
5, 252829, Note_on_c, 9, 51, 0
5, 252854, Note_on_c, 9, 44, 0
5, 252960, Note_on_c, 9, 51, 71
5, 252960, Note_on_c, 9, 37, 85
5, 253040, Note_on_c, 9, 51, 0
5, 253192, Note_on_c, 9, 37, 0
5, 253440, Note_on_c, 9, 44, 52
5, 253440, Note_on_c, 9, 37, 49
5, 253440, Note_on_c, 9, 51, 74
5, 253550, Note_on_c, 9, 51, 0
5, 253575, Note_on_c, 9, 37, 0
5, 253831, Note_on_c, 9, 44, 0
5, 253920, Note_on_c, 9, 36, 29
5, 253920, Note_on_c, 9, 51, 64
5, 253974, Note_on_c, 9, 51, 0
5, 254067, Note_on_c, 9, 36, 0
5, 254400, Note_on_c, 9, 44, 54
5, 254400, Note_on_c, 9, 37, 27
5, 254400, Note_on_c, 9, 51, 77
5, 254478, Note_on_c, 9, 37, 0
5, 254511, Note_on_c, 9, 51, 0
5, 254791, Note_on_c, 9, 44, 0
5, 254880, Note_on_c, 9, 51, 69
5, 254880, Note_on_c, 9, 37, 38
5, 254950, Note_on_c, 9, 37, 0
5, 254983, Note_on_c, 9, 51, 0
5, 255360, Note_on_c, 9, 44, 53
5, 255360, Note_on_c, 9, 51, 72
5, 255437, Note_on_c, 9, 51, 0
5, 255695, Note_on_c, 9, 44, 0
5, 255840, Note_on_c, 9, 51, 86
5, 255840, Note_on_c, 9, 36, 30
5, 255950, Note_on_c, 9, 51, 0
5, 255972, Note_on_c, 9, 36, 0
5, 256320, Note_on_c, 9, 44, 55
5, 256320, Note_on_c, 9, 51, 91
5, 256459, Note_on_c, 9, 51, 0
5, 256689, Note_on_c, 9, 44, 0
5, 256800, Note_on_c, 9, 51, 43
5, 256800, Note_on_c, 9, 36, 19
5, 256966, Note_on_c, 9, 51, 0
5, 257029, Note_on_c, 9, 36, 0
5, 257280, Note_on_c, 9, 45, 56
5, 257280, Note_on_c, 9, 44, 54
5, 257280, Note_on_c, 9, 51, 62
5, 257280, Note_on_c, 9, 37, 42
5, 257280, Note_on_c, 9, 45, 53
5, 257333, Note_on_c, 9, 45, 0
5, 257337, Note_on_c, 9, 37, 0
5, 257338, Note_on_c, 9, 45, 0
5, 257408, Note_on_c, 9, 51, 0
5, 257520, Note_on_c, 9, 51, 51
5, 257633, Note_on_c, 9, 51, 0
5, 257641, Note_on_c, 9, 44, 0
5, 257760, Note_on_c, 9, 51, 69
5, 257760, Note_on_c, 9, 37, 80
5, 257891, Note_on_c, 9, 37, 0
5, 257917, Note_on_c, 9, 51, 0
5, 258000, Note_on_c, 9, 45, 47
5, 258063, Note_on_c, 9, 45, 0
5, 258240, Note_on_c, 9, 44, 46
5, 258240, Note_on_c, 9, 51, 79
5, 258240, Note_on_c, 9, 45, 55
5, 258240, Note_on_c, 9, 36, 33
5, 258302, Note_on_c, 9, 45, 0
5, 258351, Note_on_c, 9, 36, 0
5, 258386, Note_on_c, 9, 51, 0
5, 258600, Note_on_c, 9, 44, 0
5, 258720, Note_on_c, 9, 51, 80
5, 258720, Note_on_c, 9, 37, 49
5, 258848, Note_on_c, 9, 51, 0
5, 258938, Note_on_c, 9, 37, 0
5, 258960, Note_on_c, 9, 45, 45
5, 259022, Note_on_c, 9, 45, 0
5, 259200, Note_on_c, 9, 44, 47
5, 259200, Note_on_c, 9, 45, 54
5, 259200, Note_on_c, 9, 51, 73
5, 259254, Note_on_c, 9, 45, 0
5, 259335, Note_on_c, 9, 51, 0
5, 259440, Note_on_c, 9, 53, 63
5, 259575, Note_on_c, 9, 44, 0
5, 259619, Note_on_c, 9, 53, 0
5, 259680, Note_on_c, 9, 51, 49
5, 259680, Note_on_c, 9, 36, 34
5, 259786, Note_on_c, 9, 36, 0
5, 259880, Note_on_c, 9, 51, 0
5, 259920, Note_on_c, 9, 44, 70
5, 260021, Note_on_c, 9, 44, 0
5, 260160, Note_on_c, 9, 51, 64
5, 260160, Note_on_c, 9, 44, 48
5, 260160, Note_on_c, 9, 43, 71
5, 260160, Note_on_c, 9, 49, 25
5, 260160, Note_on_c, 9, 37, 30
5, 260230, Note_on_c, 9, 37, 0
5, 260247, Note_on_c, 9, 49, 0
5, 260272, Note_on_c, 9, 43, 0
5, 260302, Note_on_c, 9, 51, 0
5, 260400, Note_on_c, 9, 38, 83
5, 260400, Note_on_c, 9, 37, 59
5, 260496, Note_on_c, 9, 37, 0
5, 260522, Note_on_c, 9, 44, 0
5, 260640, Note_on_c, 9, 51, 50
5, 260640, Note_on_c, 9, 36, 53
5, 260749, Note_on_c, 9, 51, 0
5, 260843, Note_on_c, 9, 36, 0
5, 260880, Note_on_c, 9, 51, 65
5, 260930, Note_on_c, 9, 38, 0
5, 261019, Note_on_c, 9, 51, 0
5, 261120, Note_on_c, 9, 51, 67
5, 261120, Note_on_c, 9, 44, 50
5, 261120, Note_on_c, 9, 36, 68
5, 261120, Note_on_c, 9, 36, 28
5, 261120, Note_on_c, 9, 57, 51
5, 261178, Note_on_c, 9, 57, 0
5, 261247, Note_on_c, 9, 51, 0
5, 261252, Note_on_c, 9, 36, 0
5, 261307, Note_on_c, 9, 36, 0
5, 261480, Note_on_c, 9, 44, 0
5, 261600, Note_on_c, 9, 36, 46
5, 261600, Note_on_c, 9, 51, 69
5, 261723, Note_on_c, 9, 51, 0
5, 261771, Note_on_c, 9, 36, 0
5, 262080, Note_on_c, 9, 44, 50
5, 262080, Note_on_c, 9, 37, 31
5, 262080, Note_on_c, 9, 51, 64
5, 262207, Note_on_c, 9, 51, 0
5, 262296, Note_on_c, 9, 37, 0
5, 262320, Note_on_c, 9, 51, 52
5, 262432, Note_on_c, 9, 44, 0
5, 262448, Note_on_c, 9, 51, 0
5, 262560, Note_on_c, 9, 51, 67
5, 262560, Note_on_c, 9, 36, 35
5, 262679, Note_on_c, 9, 51, 0
5, 262698, Note_on_c, 9, 36, 0
5, 263040, Note_on_c, 9, 44, 54
5, 263280, Note_on_c, 9, 51, 59
5, 263394, Note_on_c, 9, 51, 0
5, 263410, Note_on_c, 9, 44, 0
5, 263520, Note_on_c, 9, 36, 34
5, 263520, Note_on_c, 9, 51, 72
5, 263675, Note_on_c, 9, 51, 0
5, 263692, Note_on_c, 9, 36, 0
5, 264000, Note_on_c, 9, 44, 57
5, 264000, Note_on_c, 9, 51, 67
5, 264100, Note_on_c, 9, 51, 0
5, 264240, Note_on_c, 9, 51, 56
5, 264336, Note_on_c, 9, 44, 0
5, 264368, Note_on_c, 9, 51, 0
5, 264480, Note_on_c, 9, 37, 51
5, 264480, Note_on_c, 9, 51, 76
5, 264557, Note_on_c, 9, 37, 0
5, 264683, Note_on_c, 9, 51, 0
5, 264960, Note_on_c, 9, 44, 57
5, 264960, Note_on_c, 9, 51, 69
5, 264960, Note_on_c, 9, 37, 62
5, 264960, Note_on_c, 9, 38, 31
5, 265018, Note_on_c, 9, 37, 0
5, 265026, Note_on_c, 9, 38, 0
5, 265062, Note_on_c, 9, 51, 0
5, 265200, Note_on_c, 9, 38, 33
5, 265282, Note_on_c, 9, 38, 0
5, 265331, Note_on_c, 9, 44, 0
5, 265440, Note_on_c, 9, 51, 79
5, 265440, Note_on_c, 9, 37, 59
5, 265501, Note_on_c, 9, 37, 0
5, 265562, Note_on_c, 9, 51, 0
5, 265920, Note_on_c, 9, 36, 40
5, 265920, Note_on_c, 9, 51, 76
5, 265920, Note_on_c, 9, 44, 57
5, 266059, Note_on_c, 9, 36, 0
5, 266077, Note_on_c, 9, 51, 0
5, 266160, Note_on_c, 9, 37, 51
5, 266219, Note_on_c, 9, 37, 0
5, 266303, Note_on_c, 9, 44, 0
5, 266400, Note_on_c, 9, 51, 50
5, 266536, Note_on_c, 9, 51, 0
5, 266880, Note_on_c, 9, 51, 72
5, 266880, Note_on_c, 9, 44, 51
5, 267008, Note_on_c, 9, 51, 0
5, 267248, Note_on_c, 9, 44, 0
5, 267360, Note_on_c, 9, 51, 64
5, 267360, Note_on_c, 9, 38, 35
5, 267360, Note_on_c, 9, 37, 49
5, 267417, Note_on_c, 9, 37, 0
5, 267452, Note_on_c, 9, 38, 0
5, 267503, Note_on_c, 9, 51, 0
5, 267840, Note_on_c, 9, 38, 48
5, 267840, Note_on_c, 9, 44, 53
5, 267840, Note_on_c, 9, 51, 72
5, 267896, Note_on_c, 9, 38, 0
5, 267971, Note_on_c, 9, 51, 0
5, 268080, Note_on_c, 9, 37, 62
5, 268205, Note_on_c, 9, 44, 0
5, 268216, Note_on_c, 9, 37, 0
5, 268320, Note_on_c, 9, 38, 53
5, 268320, Note_on_c, 9, 59, 82
5, 268320, Note_on_c, 9, 51, 82
5, 268320, Note_on_c, 9, 36, 53
5, 268385, Note_on_c, 9, 38, 0
5, 268496, Note_on_c, 9, 59, 0
5, 268497, Note_on_c, 9, 36, 0
5, 268564, Note_on_c, 9, 51, 0
5, 268800, Note_on_c, 9, 44, 56
5, 268800, Note_on_c, 9, 51, 47
5, 268800, Note_on_c, 9, 36, 39
5, 268931, Note_on_c, 9, 51, 0
5, 268948, Note_on_c, 9, 36, 0
5, 269143, Note_on_c, 9, 44, 0
5, 269280, Note_on_c, 9, 36, 43
5, 269280, Note_on_c, 9, 51, 69
5, 269417, Note_on_c, 9, 51, 0
5, 269536, Note_on_c, 9, 36, 0
5, 269760, Note_on_c, 9, 44, 49
5, 269760, Note_on_c, 9, 51, 53
5, 269760, Note_on_c, 9, 37, 60
5, 269835, Note_on_c, 9, 37, 0
5, 269877, Note_on_c, 9, 51, 0
5, 270096, Note_on_c, 9, 44, 0
5, 270240, Note_on_c, 9, 36, 38
5, 270240, Note_on_c, 9, 51, 72
5, 270357, Note_on_c, 9, 51, 0
5, 270435, Note_on_c, 9, 36, 0
5, 270720, Note_on_c, 9, 51, 47
5, 270720, Note_on_c, 9, 44, 52
5, 270720, Note_on_c, 9, 37, 40
5, 270775, Note_on_c, 9, 37, 0
5, 270856, Note_on_c, 9, 51, 0
5, 270960, Note_on_c, 9, 59, 68
5, 271058, Note_on_c, 9, 44, 0
5, 271145, Note_on_c, 9, 59, 0
5, 271200, Note_on_c, 9, 36, 55
5, 271200, Note_on_c, 9, 51, 48
5, 271291, Note_on_c, 9, 51, 0
5, 271389, Note_on_c, 9, 36, 0
5, 271680, Note_on_c, 9, 51, 59
5, 271680, Note_on_c, 9, 44, 58
5, 271809, Note_on_c, 9, 51, 0
5, 272027, Note_on_c, 9, 44, 0
5, 272160, Note_on_c, 9, 51, 51
5, 272160, Note_on_c, 9, 37, 48
5, 272218, Note_on_c, 9, 37, 0
5, 272271, Note_on_c, 9, 51, 0
5, 272640, Note_on_c, 9, 51, 74
5, 272640, Note_on_c, 9, 44, 61
5, 272640, Note_on_c, 9, 37, 56
5, 272714, Note_on_c, 9, 37, 0
5, 272797, Note_on_c, 9, 51, 0
5, 272986, Note_on_c, 9, 44, 0
5, 273120, Note_on_c, 9, 51, 37
5, 273120, Note_on_c, 9, 36, 26
5, 273216, Note_on_c, 9, 51, 0
5, 273270, Note_on_c, 9, 36, 0
5, 273600, Note_on_c, 9, 44, 48
5, 273600, Note_on_c, 9, 51, 72
5, 273600, Note_on_c, 9, 37, 35
5, 273600, Note_on_c, 9, 38, 33
5, 273713, Note_on_c, 9, 38, 0
5, 273719, Note_on_c, 9, 37, 0
5, 273757, Note_on_c, 9, 51, 0
5, 273942, Note_on_c, 9, 44, 0
5, 274080, Note_on_c, 9, 51, 62
5, 274080, Note_on_c, 9, 36, 31
5, 274080, Note_on_c, 9, 36, 24
5, 274156, Note_on_c, 9, 36, 0
5, 274178, Note_on_c, 9, 51, 0
5, 274278, Note_on_c, 9, 36, 0
5, 274560, Note_on_c, 9, 44, 55
5, 274560, Note_on_c, 9, 38, 37
5, 274560, Note_on_c, 9, 51, 74
5, 274560, Note_on_c, 9, 37, 48
5, 274614, Note_on_c, 9, 37, 0
5, 274632, Note_on_c, 9, 38, 0
5, 274693, Note_on_c, 9, 51, 0
5, 274800, Note_on_c, 9, 51, 53
5, 274919, Note_on_c, 9, 44, 0
5, 274955, Note_on_c, 9, 51, 0
5, 275040, Note_on_c, 9, 38, 80
5, 275040, Note_on_c, 9, 51, 55
5, 275040, Note_on_c, 9, 37, 48
5, 275094, Note_on_c, 9, 37, 0
5, 275096, Note_on_c, 9, 51, 0
5, 275307, Note_on_c, 9, 38, 0
5, 275520, Note_on_c, 9, 44, 51
5, 275520, Note_on_c, 9, 51, 61
5, 275520, Note_on_c, 9, 37, 67
5, 275520, Note_on_c, 9, 36, 24
5, 275595, Note_on_c, 9, 36, 0
5, 275618, Note_on_c, 9, 37, 0
5, 275638, Note_on_c, 9, 51, 0
5, 275760, Note_on_c, 9, 51, 71
5, 275837, Note_on_c, 9, 44, 0
5, 275898, Note_on_c, 9, 51, 0
5, 276000, Note_on_c, 9, 38, 75
5, 276000, Note_on_c, 9, 51, 61
5, 276000, Note_on_c, 9, 36, 32
5, 276107, Note_on_c, 9, 51, 0
5, 276205, Note_on_c, 9, 36, 0
5, 276289, Note_on_c, 9, 38, 0
5, 276480, Note_on_c, 9, 44, 53
5, 276480, Note_on_c, 9, 51, 78
5, 276613, Note_on_c, 9, 51, 0
5, 276855, Note_on_c, 9, 44, 0
5, 276960, Note_on_c, 9, 51, 56
5, 276960, Note_on_c, 9, 36, 32
5, 277069, Note_on_c, 9, 36, 0
5, 277072, Note_on_c, 9, 51, 0
5, 277440, Note_on_c, 9, 44, 51
5, 277440, Note_on_c, 9, 51, 67
5, 277440, Note_on_c, 9, 37, 57
5, 277494, Note_on_c, 9, 37, 0
5, 277561, Note_on_c, 9, 51, 0
5, 277799, Note_on_c, 9, 44, 0
5, 277920, Note_on_c, 9, 51, 64
5, 277920, Note_on_c, 9, 36, 33
5, 278018, Note_on_c, 9, 36, 0
5, 278027, Note_on_c, 9, 51, 0
5, 278400, Note_on_c, 9, 44, 56
5, 278400, Note_on_c, 9, 51, 67
5, 278522, Note_on_c, 9, 51, 0
5, 278759, Note_on_c, 9, 44, 0
5, 278880, Note_on_c, 9, 51, 77
5, 278880, Note_on_c, 9, 36, 41
5, 279024, Note_on_c, 9, 51, 0
5, 279054, Note_on_c, 9, 36, 0
5, 279360, Note_on_c, 9, 44, 50
5, 279360, Note_on_c, 9, 51, 69
5, 279501, Note_on_c, 9, 51, 0
5, 279704, Note_on_c, 9, 44, 0
5, 279840, Note_on_c, 9, 51, 61
5, 279840, Note_on_c, 9, 36, 57
5, 279840, Note_on_c, 9, 53, 50
5, 279962, Note_on_c, 9, 36, 0
5, 280005, Note_on_c, 9, 51, 0
5, 280036, Note_on_c, 9, 53, 0
5, 280320, Note_on_c, 9, 44, 52
5, 280320, Note_on_c, 9, 51, 59
5, 280320, Note_on_c, 9, 37, 67
5, 280375, Note_on_c, 9, 37, 0
5, 280470, Note_on_c, 9, 51, 0
5, 280671, Note_on_c, 9, 44, 0
5, 280800, Note_on_c, 9, 37, 70
5, 280800, Note_on_c, 9, 51, 62
5, 280855, Note_on_c, 9, 37, 0
5, 280965, Note_on_c, 9, 51, 0
5, 281280, Note_on_c, 9, 51, 56
5, 281280, Note_on_c, 9, 36, 32
5, 281280, Note_on_c, 9, 44, 55
5, 281427, Note_on_c, 9, 51, 0
5, 281439, Note_on_c, 9, 36, 0
5, 281640, Note_on_c, 9, 44, 0
5, 281760, Note_on_c, 9, 51, 65
5, 281760, Note_on_c, 9, 53, 55
5, 281760, Note_on_c, 9, 37, 29
5, 281814, Note_on_c, 9, 37, 0
5, 281935, Note_on_c, 9, 51, 0
5, 281941, Note_on_c, 9, 53, 0
5, 282240, Note_on_c, 9, 51, 38
5, 282240, Note_on_c, 9, 44, 47
5, 282240, Note_on_c, 9, 37, 50
5, 282294, Note_on_c, 9, 37, 0
5, 282421, Note_on_c, 9, 51, 0
5, 282698, Note_on_c, 9, 44, 0
5, 282720, Note_on_c, 9, 59, 72
5, 282720, Note_on_c, 9, 51, 67
5, 282720, Note_on_c, 9, 36, 24
5, 282814, Note_on_c, 9, 36, 0
5, 282862, Note_on_c, 9, 51, 0
5, 282922, Note_on_c, 9, 59, 0
5, 283200, Note_on_c, 9, 51, 55
5, 283200, Note_on_c, 9, 37, 67
5, 283200, Note_on_c, 9, 44, 54
5, 283200, Note_on_c, 9, 38, 44
5, 283259, Note_on_c, 9, 38, 0
5, 283292, Note_on_c, 9, 37, 0
5, 283356, Note_on_c, 9, 51, 0
5, 283497, Note_on_c, 9, 44, 0
5, 283680, Note_on_c, 9, 37, 49
5, 283680, Note_on_c, 9, 38, 52
5, 283680, Note_on_c, 9, 52, 66
5, 283740, Note_on_c, 9, 38, 0
5, 283791, Note_on_c, 9, 37, 0
5, 283832, Note_on_c, 9, 52, 0
5, 284160, Note_on_c, 9, 51, 61
5, 284160, Note_on_c, 9, 36, 33
5, 284160, Note_on_c, 9, 44, 51
5, 284365, Note_on_c, 9, 36, 0
5, 284365, Note_on_c, 9, 51, 0
5, 284547, Note_on_c, 9, 44, 0
5, 284640, Note_on_c, 9, 51, 62
5, 284640, Note_on_c, 9, 36, 33
5, 284759, Note_on_c, 9, 36, 0
5, 284811, Note_on_c, 9, 51, 0
5, 285120, Note_on_c, 9, 51, 51
5, 285120, Note_on_c, 9, 37, 62
5, 285120, Note_on_c, 9, 44, 49
5, 285187, Note_on_c, 9, 51, 0
5, 285213, Note_on_c, 9, 37, 0
5, 285450, Note_on_c, 9, 44, 0
5, 285600, Note_on_c, 9, 36, 30
5, 285600, Note_on_c, 9, 51, 77
5, 285730, Note_on_c, 9, 36, 0
5, 285736, Note_on_c, 9, 51, 0
5, 286080, Note_on_c, 9, 51, 42
5, 286080, Note_on_c, 9, 37, 42
5, 286080, Note_on_c, 9, 44, 48
5, 286137, Note_on_c, 9, 37, 0
5, 286201, Note_on_c, 9, 51, 0
5, 286320, Note_on_c, 9, 51, 33
5, 286430, Note_on_c, 9, 51, 0
5, 286458, Note_on_c, 9, 44, 0
5, 286560, Note_on_c, 9, 51, 57
5, 286560, Note_on_c, 9, 37, 75
5, 286677, Note_on_c, 9, 51, 0
5, 286822, Note_on_c, 9, 37, 0
5, 287040, Note_on_c, 9, 36, 24
5, 287040, Note_on_c, 9, 51, 71
5, 287040, Note_on_c, 9, 44, 45
5, 287040, Note_on_c, 9, 44, 49
5, 287138, Note_on_c, 9, 36, 0
5, 287150, Note_on_c, 9, 51, 0
5, 287280, Note_on_c, 9, 51, 65
5, 287280, Note_on_c, 9, 38, 62
5, 287331, Note_on_c, 9, 44, 0
5, 287333, Note_on_c, 9, 44, 0
5, 287334, Note_on_c, 9, 38, 0
5, 287432, Note_on_c, 9, 51, 0
5, 287520, Note_on_c, 9, 36, 45
5, 287520, Note_on_c, 9, 36, 37
5, 287520, Note_on_c, 9, 51, 49
5, 287589, Note_on_c, 9, 51, 0
5, 287656, Note_on_c, 9, 36, 0
5, 287664, Note_on_c, 9, 36, 0
5, 288000, Note_on_c, 9, 36, 41
5, 288000, Note_on_c, 9, 44, 57
5, 288000, Note_on_c, 9, 51, 70
5, 288086, Note_on_c, 9, 36, 0
5, 288123, Note_on_c, 9, 51, 0
5, 288480, Note_on_c, 9, 36, 32
5, 288480, Note_on_c, 9, 51, 51
5, 288480, Note_on_c, 9, 36, 29
5, 288517, Note_on_c, 9, 44, 0
5, 288559, Note_on_c, 9, 36, 0
5, 288594, Note_on_c, 9, 51, 0
5, 288649, Note_on_c, 9, 36, 0
5, 288960, Note_on_c, 9, 51, 67
5, 288960, Note_on_c, 9, 44, 51
5, 289085, Note_on_c, 9, 51, 0
5, 289200, Note_on_c, 9, 37, 54
5, 289329, Note_on_c, 9, 37, 0
5, 289345, Note_on_c, 9, 44, 0
5, 289440, Note_on_c, 9, 37, 59
5, 289440, Note_on_c, 9, 51, 57
5, 289527, Note_on_c, 9, 37, 0
5, 289562, Note_on_c, 9, 51, 0
5, 289920, Note_on_c, 9, 36, 46
5, 289920, Note_on_c, 9, 51, 60
5, 289920, Note_on_c, 9, 44, 56
5, 290042, Note_on_c, 9, 51, 0
5, 290051, Note_on_c, 9, 36, 0
5, 290160, Note_on_c, 9, 51, 61
5, 290286, Note_on_c, 9, 51, 0
5, 290299, Note_on_c, 9, 44, 0
5, 290400, Note_on_c, 9, 51, 55
5, 290400, Note_on_c, 9, 36, 45
5, 290508, Note_on_c, 9, 51, 0
5, 290545, Note_on_c, 9, 36, 0
5, 290880, Note_on_c, 9, 44, 57
5, 290880, Note_on_c, 9, 51, 57
5, 290880, Note_on_c, 9, 37, 57
5, 290934, Note_on_c, 9, 37, 0
5, 291003, Note_on_c, 9, 51, 0
5, 291120, Note_on_c, 9, 51, 55
5, 291239, Note_on_c, 9, 44, 0
5, 291245, Note_on_c, 9, 51, 0
5, 291360, Note_on_c, 9, 36, 47
5, 291360, Note_on_c, 9, 51, 52
5, 291360, Note_on_c, 9, 38, 43
5, 291419, Note_on_c, 9, 38, 0
5, 291432, Note_on_c, 9, 51, 0
5, 291519, Note_on_c, 9, 36, 0
5, 291840, Note_on_c, 9, 36, 41
5, 291840, Note_on_c, 9, 44, 51
5, 291840, Note_on_c, 9, 51, 71
5, 291996, Note_on_c, 9, 51, 0
5, 292002, Note_on_c, 9, 36, 0
5, 292080, Note_on_c, 9, 51, 57
5, 292195, Note_on_c, 9, 51, 0
5, 292216, Note_on_c, 9, 44, 0
5, 292320, Note_on_c, 9, 51, 52
5, 292320, Note_on_c, 9, 37, 44
5, 292395, Note_on_c, 9, 37, 0
5, 292438, Note_on_c, 9, 51, 0
5, 292800, Note_on_c, 9, 36, 40
5, 292800, Note_on_c, 9, 44, 50
5, 292800, Note_on_c, 9, 51, 71
5, 292895, Note_on_c, 9, 36, 0
5, 292912, Note_on_c, 9, 51, 0
5, 293173, Note_on_c, 9, 44, 0
5, 293280, Note_on_c, 9, 36, 35
5, 293280, Note_on_c, 9, 51, 48
5, 293352, Note_on_c, 9, 51, 0
5, 293357, Note_on_c, 9, 36, 0
5, 293520, Note_on_c, 9, 51, 45
5, 293648, Note_on_c, 9, 51, 0
5, 293760, Note_on_c, 9, 51, 71
5, 293760, Note_on_c, 9, 44, 53
5, 293760, Note_on_c, 9, 37, 53
5, 293814, Note_on_c, 9, 37, 0
5, 293870, Note_on_c, 9, 51, 0
5, 294114, Note_on_c, 9, 44, 0
5, 294240, Note_on_c, 9, 51, 69
5, 294240, Note_on_c, 9, 36, 39
5, 294318, Note_on_c, 9, 36, 0
5, 294346, Note_on_c, 9, 51, 0
5, 294720, Note_on_c, 9, 44, 47
5, 294720, Note_on_c, 9, 37, 37
5, 294720, Note_on_c, 9, 51, 57
5, 294774, Note_on_c, 9, 37, 0
5, 294815, Note_on_c, 9, 51, 0
5, 294960, Note_on_c, 9, 51, 56
5, 295049, Note_on_c, 9, 44, 0
5, 295083, Note_on_c, 9, 51, 0
5, 295200, Note_on_c, 9, 51, 62
5, 295200, Note_on_c, 9, 37, 79
5, 295305, Note_on_c, 9, 37, 0
5, 295337, Note_on_c, 9, 51, 0
5, 295680, Note_on_c, 9, 37, 82
5, 295680, Note_on_c, 9, 44, 43
5, 295680, Note_on_c, 9, 51, 67
5, 295802, Note_on_c, 9, 37, 0
5, 295808, Note_on_c, 9, 51, 0
5, 295920, Note_on_c, 9, 51, 29
5, 296048, Note_on_c, 9, 44, 0
5, 296056, Note_on_c, 9, 51, 0
5, 296160, Note_on_c, 9, 36, 28
5, 296256, Note_on_c, 9, 36, 0
5, 296640, Note_on_c, 9, 37, 35
5, 296640, Note_on_c, 9, 51, 74
5, 296640, Note_on_c, 9, 44, 48
5, 296727, Note_on_c, 9, 37, 0
5, 296749, Note_on_c, 9, 51, 0
5, 296982, Note_on_c, 9, 44, 0
5, 297120, Note_on_c, 9, 37, 39
5, 297120, Note_on_c, 9, 51, 58
5, 297175, Note_on_c, 9, 37, 0
5, 297184, Note_on_c, 9, 51, 0
5, 297600, Note_on_c, 9, 37, 48
5, 297600, Note_on_c, 9, 51, 55
5, 297600, Note_on_c, 9, 44, 55
5, 297654, Note_on_c, 9, 51, 0
5, 297672, Note_on_c, 9, 37, 0
5, 297840, Note_on_c, 9, 37, 49
5, 297912, Note_on_c, 9, 37, 0
5, 297972, Note_on_c, 9, 44, 0
5, 298080, Note_on_c, 9, 36, 52
5, 298080, Note_on_c, 9, 51, 55
5, 298149, Note_on_c, 9, 51, 0
5, 298154, Note_on_c, 9, 36, 0
5, 298560, Note_on_c, 9, 44, 53
5, 298560, Note_on_c, 9, 51, 69
5, 298691, Note_on_c, 9, 51, 0
5, 298800, Note_on_c, 9, 51, 59
5, 298868, Note_on_c, 9, 44, 0
5, 298911, Note_on_c, 9, 51, 0
5, 299040, Note_on_c, 9, 51, 56
5, 299040, Note_on_c, 9, 37, 61
5, 299099, Note_on_c, 9, 37, 0
5, 299110, Note_on_c, 9, 51, 0
5, 299280, Note_on_c, 9, 37, 55
5, 299352, Note_on_c, 9, 37, 0
5, 299520, Note_on_c, 9, 44, 56
5, 299520, Note_on_c, 9, 51, 70
5, 299520, Note_on_c, 9, 36, 41
5, 299634, Note_on_c, 9, 36, 0
5, 299650, Note_on_c, 9, 51, 0
5, 299760, Note_on_c, 9, 51, 56
5, 299883, Note_on_c, 9, 51, 0
5, 299913, Note_on_c, 9, 44, 0
5, 300000, Note_on_c, 9, 51, 49
5, 300000, Note_on_c, 9, 36, 22
5, 300089, Note_on_c, 9, 36, 0
5, 300094, Note_on_c, 9, 51, 0
5, 300480, Note_on_c, 9, 44, 43
5, 300480, Note_on_c, 9, 37, 59
5, 300480, Note_on_c, 9, 51, 67
5, 300610, Note_on_c, 9, 51, 0
5, 300626, Note_on_c, 9, 37, 0
5, 300720, Note_on_c, 9, 37, 63
5, 300811, Note_on_c, 9, 44, 0
5, 300819, Note_on_c, 9, 37, 0
5, 300960, Note_on_c, 9, 51, 58
5, 300960, Note_on_c, 9, 36, 36
5, 301067, Note_on_c, 9, 51, 0
5, 301104, Note_on_c, 9, 36, 0
5, 301200, Note_on_c, 9, 51, 62
5, 301328, Note_on_c, 9, 51, 0
5, 301440, Note_on_c, 9, 51, 57
5, 301440, Note_on_c, 9, 44, 45
5, 301440, Note_on_c, 9, 36, 34
5, 301550, Note_on_c, 9, 51, 0
5, 301586, Note_on_c, 9, 36, 0
5, 301776, Note_on_c, 9, 44, 0
5, 301920, Note_on_c, 9, 51, 72
5, 301920, Note_on_c, 9, 36, 46
5, 302022, Note_on_c, 9, 51, 0
5, 302052, Note_on_c, 9, 36, 0
5, 302400, Note_on_c, 9, 51, 74
5, 302400, Note_on_c, 9, 44, 51
5, 302400, Note_on_c, 9, 37, 60
5, 302454, Note_on_c, 9, 37, 0
5, 302553, Note_on_c, 9, 51, 0
5, 302640, Note_on_c, 9, 51, 67
5, 302758, Note_on_c, 9, 51, 0
5, 302776, Note_on_c, 9, 44, 0
5, 302880, Note_on_c, 9, 36, 34
5, 302880, Note_on_c, 9, 51, 59
5, 302975, Note_on_c, 9, 51, 0
5, 303049, Note_on_c, 9, 36, 0
5, 303360, Note_on_c, 9, 37, 54
5, 303360, Note_on_c, 9, 44, 38
5, 303360, Note_on_c, 9, 51, 67
5, 303414, Note_on_c, 9, 37, 0
5, 303422, Note_on_c, 9, 51, 0
5, 303707, Note_on_c, 9, 44, 0
5, 303840, Note_on_c, 9, 37, 56
5, 303840, Note_on_c, 9, 51, 64
5, 303894, Note_on_c, 9, 37, 0
5, 303935, Note_on_c, 9, 51, 0
5, 304080, Note_on_c, 9, 51, 64
5, 304197, Note_on_c, 9, 51, 0
5, 304320, Note_on_c, 9, 36, 31
5, 304320, Note_on_c, 9, 44, 36
5, 304320, Note_on_c, 9, 51, 58
5, 304386, Note_on_c, 9, 36, 0
5, 304444, Note_on_c, 9, 51, 0
5, 304650, Note_on_c, 9, 44, 0
5, 304800, Note_on_c, 9, 36, 58
5, 304800, Note_on_c, 9, 51, 69
5, 304891, Note_on_c, 9, 51, 0
5, 304948, Note_on_c, 9, 36, 0
5, 305280, Note_on_c, 9, 44, 50
5, 305280, Note_on_c, 9, 51, 69
5, 305461, Note_on_c, 9, 51, 0
5, 305520, Note_on_c, 9, 51, 36
5, 305583, Note_on_c, 9, 51, 0
5, 305636, Note_on_c, 9, 44, 0
5, 305760, Note_on_c, 9, 36, 44
5, 305825, Note_on_c, 9, 36, 0
5, 306240, Note_on_c, 9, 51, 76
5, 306240, Note_on_c, 9, 44, 47
5, 306240, Note_on_c, 9, 44, 51
5, 306240, Note_on_c, 9, 37, 54
5, 306352, Note_on_c, 9, 51, 0
5, 306355, Note_on_c, 9, 37, 0
5, 306480, Note_on_c, 9, 37, 61
5, 306534, Note_on_c, 9, 37, 0
5, 306536, Note_on_c, 9, 44, 0
5, 306552, Note_on_c, 9, 44, 0
5, 306720, Note_on_c, 9, 51, 56
5, 306720, Note_on_c, 9, 36, 64
5, 306779, Note_on_c, 9, 51, 0
5, 306870, Note_on_c, 9, 36, 0
5, 307200, Note_on_c, 9, 36, 45
5, 307200, Note_on_c, 9, 51, 77
5, 307200, Note_on_c, 9, 44, 59
5, 307200, Note_on_c, 9, 36, 34
5, 307296, Note_on_c, 9, 36, 0
5, 307320, Note_on_c, 9, 51, 0
5, 307323, Note_on_c, 9, 36, 0
5, 307680, Note_on_c, 9, 51, 59
5, 307680, Note_on_c, 9, 36, 41
5, 307680, Note_on_c, 9, 36, 35
5, 307751, Note_on_c, 9, 51, 0
5, 307777, Note_on_c, 9, 36, 0
5, 307778, Note_on_c, 9, 36, 0
5, 307797, Note_on_c, 9, 44, 0
5, 308160, Note_on_c, 9, 51, 71
5, 308160, Note_on_c, 9, 44, 57
5, 308160, Note_on_c, 9, 37, 59
5, 308214, Note_on_c, 9, 37, 0
5, 308274, Note_on_c, 9, 51, 0
5, 308540, Note_on_c, 9, 44, 0
5, 308640, Note_on_c, 9, 36, 40
5, 308640, Note_on_c, 9, 51, 50
5, 308726, Note_on_c, 9, 36, 0
5, 308768, Note_on_c, 9, 51, 0
5, 309120, Note_on_c, 9, 51, 70
5, 309120, Note_on_c, 9, 44, 52
5, 309234, Note_on_c, 9, 51, 0
5, 309360, Note_on_c, 9, 51, 62
5, 309491, Note_on_c, 9, 44, 0
5, 309496, Note_on_c, 9, 51, 0
5, 309600, Note_on_c, 9, 51, 67
5, 309600, Note_on_c, 9, 36, 22
5, 309688, Note_on_c, 9, 36, 0
5, 309688, Note_on_c, 9, 51, 0
5, 310080, Note_on_c, 9, 44, 55
5, 310080, Note_on_c, 9, 51, 74
5, 310184, Note_on_c, 9, 51, 0
5, 310444, Note_on_c, 9, 44, 0
5, 310560, Note_on_c, 9, 51, 77
5, 310560, Note_on_c, 9, 36, 42
5, 310639, Note_on_c, 9, 36, 0
5, 310680, Note_on_c, 9, 51, 0
5, 311040, Note_on_c, 9, 44, 60
5, 311040, Note_on_c, 9, 51, 67
5, 311161, Note_on_c, 9, 51, 0
5, 311280, Note_on_c, 9, 51, 49
5, 311404, Note_on_c, 9, 51, 0
5, 311444, Note_on_c, 9, 44, 0
5, 311520, Note_on_c, 9, 51, 59
5, 311656, Note_on_c, 9, 51, 0
5, 312000, Note_on_c, 9, 37, 70
5, 312000, Note_on_c, 9, 51, 77
5, 312000, Note_on_c, 9, 44, 44
5, 312000, Note_on_c, 9, 38, 45
5, 312054, Note_on_c, 9, 37, 0
5, 312056, Note_on_c, 9, 38, 0
5, 312114, Note_on_c, 9, 51, 0
5, 312240, Note_on_c, 9, 38, 56
5, 312294, Note_on_c, 9, 38, 0
5, 312352, Note_on_c, 9, 44, 0
5, 312480, Note_on_c, 9, 51, 76
5, 312480, Note_on_c, 9, 36, 24
5, 312480, Note_on_c, 9, 36, 32
5, 312534, Note_on_c, 9, 36, 0
5, 312552, Note_on_c, 9, 36, 0
5, 312594, Note_on_c, 9, 51, 0
5, 312960, Note_on_c, 9, 44, 57
5, 312960, Note_on_c, 9, 37, 59
5, 312960, Note_on_c, 9, 51, 69
5, 312960, Note_on_c, 9, 38, 50
5, 313014, Note_on_c, 9, 37, 0
5, 313015, Note_on_c, 9, 38, 0
5, 313040, Note_on_c, 9, 51, 0
5, 313200, Note_on_c, 9, 51, 65
5, 313301, Note_on_c, 9, 51, 0
5, 313346, Note_on_c, 9, 44, 0
5, 313440, Note_on_c, 9, 38, 62
5, 313440, Note_on_c, 9, 51, 64
5, 313440, Note_on_c, 9, 37, 73
5, 313493, Note_on_c, 9, 38, 0
5, 313495, Note_on_c, 9, 37, 0
5, 313571, Note_on_c, 9, 51, 0
5, 313920, Note_on_c, 9, 37, 65
5, 313920, Note_on_c, 9, 44, 53
5, 313920, Note_on_c, 9, 51, 71
5, 313976, Note_on_c, 9, 37, 0
5, 314025, Note_on_c, 9, 51, 0
5, 314303, Note_on_c, 9, 44, 0
5, 314400, Note_on_c, 9, 36, 44
5, 314400, Note_on_c, 9, 51, 72
5, 314509, Note_on_c, 9, 51, 0
5, 314528, Note_on_c, 9, 36, 0
5, 314880, Note_on_c, 9, 36, 35
5, 314880, Note_on_c, 9, 44, 60
5, 314880, Note_on_c, 9, 37, 31
5, 314880, Note_on_c, 9, 51, 67
5, 314936, Note_on_c, 9, 37, 0
5, 314953, Note_on_c, 9, 36, 0
5, 314995, Note_on_c, 9, 51, 0
5, 315120, Note_on_c, 9, 51, 55
5, 315240, Note_on_c, 9, 51, 0
5, 315259, Note_on_c, 9, 44, 0
5, 315360, Note_on_c, 9, 51, 64
5, 315360, Note_on_c, 9, 36, 39
5, 315360, Note_on_c, 9, 37, 30
5, 315414, Note_on_c, 9, 37, 0
5, 315435, Note_on_c, 9, 36, 0
5, 315468, Note_on_c, 9, 51, 0
5, 315840, Note_on_c, 9, 44, 50
5, 315840, Note_on_c, 9, 37, 60
5, 315840, Note_on_c, 9, 51, 77
5, 315898, Note_on_c, 9, 37, 0
5, 315949, Note_on_c, 9, 51, 0
5, 316194, Note_on_c, 9, 44, 0
5, 316320, Note_on_c, 9, 36, 36
5, 316320, Note_on_c, 9, 51, 74
5, 316414, Note_on_c, 9, 36, 0
5, 316427, Note_on_c, 9, 51, 0
5, 316800, Note_on_c, 9, 44, 56
5, 316800, Note_on_c, 9, 51, 75
5, 316947, Note_on_c, 9, 51, 0
5, 317168, Note_on_c, 9, 44, 0
5, 317280, Note_on_c, 9, 51, 61
5, 317280, Note_on_c, 9, 36, 34
5, 317374, Note_on_c, 9, 36, 0
5, 317426, Note_on_c, 9, 51, 0
5, 317760, Note_on_c, 9, 44, 48
5, 317760, Note_on_c, 9, 51, 67
5, 317760, Note_on_c, 9, 37, 40
5, 317815, Note_on_c, 9, 37, 0
5, 317921, Note_on_c, 9, 51, 0
5, 318000, Note_on_c, 9, 37, 62
5, 318079, Note_on_c, 9, 37, 0
5, 318116, Note_on_c, 9, 44, 0
5, 318240, Note_on_c, 9, 51, 69
5, 318240, Note_on_c, 9, 53, 61
5, 318240, Note_on_c, 9, 36, 51
5, 318421, Note_on_c, 9, 53, 0
5, 318442, Note_on_c, 9, 36, 0
5, 318470, Note_on_c, 9, 51, 0
5, 318480, Note_on_c, 9, 45, 45
5, 318541, Note_on_c, 9, 45, 0
5, 318720, Note_on_c, 9, 44, 49
5, 318720, Note_on_c, 9, 51, 53
5, 318720, Note_on_c, 9, 45, 44
5, 318787, Note_on_c, 9, 45, 0
5, 318865, Note_on_c, 9, 51, 0
5, 318960, Note_on_c, 9, 36, 58
5, 319056, Note_on_c, 9, 44, 0
5, 319094, Note_on_c, 9, 36, 0
5, 319200, Note_on_c, 9, 51, 64
5, 319200, Note_on_c, 9, 36, 44
5, 319316, Note_on_c, 9, 51, 0
5, 319330, Note_on_c, 9, 36, 0
5, 319680, Note_on_c, 9, 51, 67
5, 319680, Note_on_c, 9, 44, 53
5, 319830, Note_on_c, 9, 51, 0
5, 320026, Note_on_c, 9, 44, 0
5, 320160, Note_on_c, 9, 51, 81
5, 320160, Note_on_c, 9, 37, 65
5, 320236, Note_on_c, 9, 37, 0
5, 320333, Note_on_c, 9, 51, 0
5, 320640, Note_on_c, 9, 51, 59
5, 320640, Note_on_c, 9, 44, 49
5, 320755, Note_on_c, 9, 51, 0
5, 320972, Note_on_c, 9, 44, 0
5, 321120, Note_on_c, 9, 51, 74
5, 321120, Note_on_c, 9, 36, 42
5, 321207, Note_on_c, 9, 36, 0
5, 321228, Note_on_c, 9, 51, 0
5, 321600, Note_on_c, 9, 51, 52
5, 321600, Note_on_c, 9, 44, 51
5, 321600, Note_on_c, 9, 47, 74
5, 321600, Note_on_c, 9, 37, 42
5, 321654, Note_on_c, 9, 37, 0
5, 321670, Note_on_c, 9, 51, 0
5, 321762, Note_on_c, 9, 47, 0
5, 321840, Note_on_c, 9, 51, 57
5, 321884, Note_on_c, 9, 44, 0
5, 321991, Note_on_c, 9, 51, 0
5, 322080, Note_on_c, 9, 51, 69
5, 322080, Note_on_c, 9, 37, 57
5, 322080, Note_on_c, 9, 43, 54
5, 322134, Note_on_c, 9, 43, 0
5, 322135, Note_on_c, 9, 37, 0
5, 322220, Note_on_c, 9, 51, 0
5, 322560, Note_on_c, 9, 36, 36
5, 322560, Note_on_c, 9, 44, 60
5, 322560, Note_on_c, 9, 51, 75
5, 322560, Note_on_c, 9, 36, 74
5, 322674, Note_on_c, 9, 36, 0
5, 322700, Note_on_c, 9, 51, 0
5, 322764, Note_on_c, 9, 36, 0
5, 322909, Note_on_c, 9, 44, 0
5, 323040, Note_on_c, 9, 36, 29
5, 323040, Note_on_c, 9, 51, 59
5, 323040, Note_on_c, 9, 36, 69
5, 323151, Note_on_c, 9, 51, 0
5, 323173, Note_on_c, 9, 36, 0
5, 323270, Note_on_c, 9, 36, 0
5, 323520, Note_on_c, 9, 51, 64
5, 323520, Note_on_c, 9, 37, 58
5, 323520, Note_on_c, 9, 44, 50
5, 323576, Note_on_c, 9, 37, 0
5, 323600, Note_on_c, 9, 51, 0
5, 323872, Note_on_c, 9, 44, 0
5, 324000, Note_on_c, 9, 36, 35
5, 324000, Note_on_c, 9, 51, 83
5, 324135, Note_on_c, 9, 51, 0
5, 324142, Note_on_c, 9, 36, 0
5, 324480, Note_on_c, 9, 51, 57
5, 324480, Note_on_c, 9, 36, 40
5, 324480, Note_on_c, 9, 44, 42
5, 324659, Note_on_c, 9, 36, 0
5, 324688, Note_on_c, 9, 51, 0
5, 324825, Note_on_c, 9, 44, 0
5, 324960, Note_on_c, 9, 51, 75
5, 324960, Note_on_c, 9, 37, 75
5, 324960, Note_on_c, 9, 45, 64
5, 324960, Note_on_c, 9, 38, 37
5, 325015, Note_on_c, 9, 45, 0
5, 325024, Note_on_c, 9, 38, 0
5, 325065, Note_on_c, 9, 37, 0
5, 325147, Note_on_c, 9, 51, 0
5, 325440, Note_on_c, 9, 36, 34
5, 325440, Note_on_c, 9, 51, 72
5, 325440, Note_on_c, 9, 44, 52
5, 325589, Note_on_c, 9, 51, 0
5, 325635, Note_on_c, 9, 36, 0
5, 325680, Note_on_c, 9, 38, 62
5, 325739, Note_on_c, 9, 38, 0
5, 325774, Note_on_c, 9, 44, 0
5, 325920, Note_on_c, 9, 37, 74
5, 325920, Note_on_c, 9, 51, 74
5, 326031, Note_on_c, 9, 37, 0
5, 326038, Note_on_c, 9, 51, 0
5, 326160, Note_on_c, 9, 38, 48
5, 326289, Note_on_c, 9, 38, 0
5, 326400, Note_on_c, 9, 57, 61
5, 326400, Note_on_c, 9, 36, 53
5, 326400, Note_on_c, 9, 37, 62
5, 326400, Note_on_c, 9, 51, 65
5, 326400, Note_on_c, 9, 44, 39
5, 326469, Note_on_c, 9, 57, 0
5, 326470, Note_on_c, 9, 37, 0
5, 326519, Note_on_c, 9, 51, 0
5, 326640, Note_on_c, 9, 51, 56
5, 326669, Note_on_c, 9, 36, 0
5, 326747, Note_on_c, 9, 44, 0
5, 326784, Note_on_c, 9, 51, 0
5, 326880, Note_on_c, 9, 51, 62
5, 327000, Note_on_c, 9, 51, 0
5, 327360, Note_on_c, 9, 51, 69
5, 327360, Note_on_c, 9, 44, 44
5, 327504, Note_on_c, 9, 51, 0
5, 327600, Note_on_c, 9, 51, 60
5, 327703, Note_on_c, 9, 44, 0
5, 327720, Note_on_c, 9, 51, 0
5, 327840, Note_on_c, 9, 36, 64
5, 327840, Note_on_c, 9, 51, 56
5, 327926, Note_on_c, 9, 51, 0
5, 328019, Note_on_c, 9, 36, 0
5, 328320, Note_on_c, 9, 37, 59
5, 328320, Note_on_c, 9, 44, 53
5, 328320, Note_on_c, 9, 51, 70
5, 328374, Note_on_c, 9, 37, 0
5, 328430, Note_on_c, 9, 51, 0
5, 328640, Note_on_c, 9, 44, 0
5, 328800, Note_on_c, 9, 37, 62
5, 328800, Note_on_c, 9, 51, 67
5, 328855, Note_on_c, 9, 37, 0
5, 328925, Note_on_c, 9, 51, 0
5, 329280, Note_on_c, 9, 37, 60
5, 329280, Note_on_c, 9, 44, 50
5, 329280, Note_on_c, 9, 51, 70
5, 329336, Note_on_c, 9, 37, 0
5, 329507, Note_on_c, 9, 51, 0
5, 329619, Note_on_c, 9, 44, 0
5, 329760, Note_on_c, 9, 36, 40
5, 329760, Note_on_c, 9, 51, 51
5, 329844, Note_on_c, 9, 51, 0
5, 329922, Note_on_c, 9, 36, 0
5, 330240, Note_on_c, 9, 44, 56
5, 330240, Note_on_c, 9, 37, 34
5, 330240, Note_on_c, 9, 51, 77
5, 330320, Note_on_c, 9, 37, 0
5, 330448, Note_on_c, 9, 51, 0
5, 330613, Note_on_c, 9, 44, 0
5, 330720, Note_on_c, 9, 37, 43
5, 330720, Note_on_c, 9, 51, 48
5, 330775, Note_on_c, 9, 37, 0
5, 330816, Note_on_c, 9, 51, 0
5, 331200, Note_on_c, 9, 37, 53
5, 331200, Note_on_c, 9, 44, 48
5, 331200, Note_on_c, 9, 51, 78
5, 331259, Note_on_c, 9, 37, 0
5, 331416, Note_on_c, 9, 51, 0
5, 331538, Note_on_c, 9, 44, 0
5, 331680, Note_on_c, 9, 36, 25
5, 331680, Note_on_c, 9, 51, 52
5, 331767, Note_on_c, 9, 36, 0
5, 331784, Note_on_c, 9, 51, 0
5, 332160, Note_on_c, 9, 44, 49
5, 332160, Note_on_c, 9, 51, 77
5, 332272, Note_on_c, 9, 51, 0
5, 332499, Note_on_c, 9, 44, 0
5, 332640, Note_on_c, 9, 36, 38
5, 332640, Note_on_c, 9, 51, 78
5, 332765, Note_on_c, 9, 51, 0
5, 332789, Note_on_c, 9, 36, 0
5, 333120, Note_on_c, 9, 44, 47
5, 333120, Note_on_c, 9, 51, 65
5, 333120, Note_on_c, 9, 37, 70
5, 333176, Note_on_c, 9, 37, 0
5, 333232, Note_on_c, 9, 51, 0
5, 333360, Note_on_c, 9, 51, 56
5, 333453, Note_on_c, 9, 44, 0
5, 333480, Note_on_c, 9, 51, 0
5, 333600, Note_on_c, 9, 51, 57
5, 333600, Note_on_c, 9, 37, 69
5, 333600, Note_on_c, 9, 38, 49
5, 333657, Note_on_c, 9, 37, 0
5, 333666, Note_on_c, 9, 38, 0
5, 333747, Note_on_c, 9, 51, 0
5, 334080, Note_on_c, 9, 37, 52
5, 334080, Note_on_c, 9, 44, 44
5, 334080, Note_on_c, 9, 51, 71
5, 334080, Note_on_c, 9, 38, 50
5, 334134, Note_on_c, 9, 37, 0
5, 334230, Note_on_c, 9, 51, 0
5, 334270, Note_on_c, 9, 38, 0
5, 334320, Note_on_c, 9, 51, 43
5, 334436, Note_on_c, 9, 44, 0
5, 334456, Note_on_c, 9, 51, 0
5, 334560, Note_on_c, 9, 36, 38
5, 334560, Note_on_c, 9, 51, 68
5, 334560, Note_on_c, 9, 36, 24
5, 334643, Note_on_c, 9, 36, 0
5, 334654, Note_on_c, 9, 51, 0
5, 334714, Note_on_c, 9, 36, 0
5, 335040, Note_on_c, 9, 44, 48
5, 335040, Note_on_c, 9, 51, 80
5, 335040, Note_on_c, 9, 37, 25
5, 335119, Note_on_c, 9, 37, 0
5, 335177, Note_on_c, 9, 51, 0
5, 335369, Note_on_c, 9, 44, 0
5, 335520, Note_on_c, 9, 51, 71
5, 335520, Note_on_c, 9, 37, 62
5, 335520, Note_on_c, 9, 38, 42
5, 335599, Note_on_c, 9, 38, 0
5, 335621, Note_on_c, 9, 37, 0
5, 335649, Note_on_c, 9, 51, 0
5, 336000, Note_on_c, 9, 51, 73
5, 336000, Note_on_c, 9, 37, 74
5, 336000, Note_on_c, 9, 44, 48
5, 336192, Note_on_c, 9, 51, 0
5, 336237, Note_on_c, 9, 37, 0
5, 336324, Note_on_c, 9, 44, 0
5, 336480, Note_on_c, 9, 51, 63
5, 336480, Note_on_c, 9, 38, 41
5, 336480, Note_on_c, 9, 36, 32
5, 336555, Note_on_c, 9, 36, 0
5, 336624, Note_on_c, 9, 51, 0
5, 336625, Note_on_c, 9, 38, 0
5, 336960, Note_on_c, 9, 37, 71
5, 336960, Note_on_c, 9, 51, 74
5, 336960, Note_on_c, 9, 38, 49
5, 336960, Note_on_c, 9, 44, 47
5, 337103, Note_on_c, 9, 37, 0
5, 337115, Note_on_c, 9, 38, 0
5, 337157, Note_on_c, 9, 51, 0
5, 337193, Note_on_c, 9, 44, 0
5, 337440, Note_on_c, 9, 51, 59
5, 337440, Note_on_c, 9, 36, 26
5, 337508, Note_on_c, 9, 36, 0
5, 337563, Note_on_c, 9, 51, 0
5, 337920, Note_on_c, 9, 36, 37
5, 337920, Note_on_c, 9, 38, 46
5, 337920, Note_on_c, 9, 51, 81
5, 337920, Note_on_c, 9, 44, 47
5, 337920, Note_on_c, 9, 51, 77
5, 337948, Note_on_c, 9, 51, 0
5, 337991, Note_on_c, 9, 36, 0
5, 338027, Note_on_c, 9, 51, 0
5, 338086, Note_on_c, 9, 38, 0
5, 338096, Note_on_c, 9, 44, 0
5, 338400, Note_on_c, 9, 38, 49
5, 338400, Note_on_c, 9, 51, 54
5, 338461, Note_on_c, 9, 51, 0
5, 338585, Note_on_c, 9, 38, 0
5, 338880, Note_on_c, 9, 44, 47
5, 338880, Note_on_c, 9, 51, 53
5, 338978, Note_on_c, 9, 51, 0
5, 339120, Note_on_c, 9, 51, 36
5, 339207, Note_on_c, 9, 51, 0
5, 339299, Note_on_c, 9, 44, 0
5, 339360, Note_on_c, 9, 51, 31
5, 339432, Note_on_c, 9, 51, 0
5, 339840, Note_on_c, 9, 44, 39
5, 339840, Note_on_c, 9, 51, 69
5, 339978, Note_on_c, 9, 51, 0
5, 340080, Note_on_c, 9, 51, 50
5, 340205, Note_on_c, 9, 51, 0
5, 340208, Note_on_c, 9, 44, 0
5, 340320, Note_on_c, 9, 37, 36
5, 340320, Note_on_c, 9, 51, 60
5, 340374, Note_on_c, 9, 51, 0
5, 340416, Note_on_c, 9, 37, 0
5, 340800, Note_on_c, 9, 44, 44
5, 340800, Note_on_c, 9, 51, 71
5, 340917, Note_on_c, 9, 51, 0
5, 341168, Note_on_c, 9, 44, 0
5, 341280, Note_on_c, 9, 51, 59
5, 341382, Note_on_c, 9, 51, 0
5, 341520, Note_on_c, 9, 51, 69
5, 341624, Note_on_c, 9, 51, 0
5, 341760, Note_on_c, 9, 44, 46
5, 341760, Note_on_c, 9, 51, 64
5, 341893, Note_on_c, 9, 51, 0
5, 342157, Note_on_c, 9, 44, 0
5, 342240, Note_on_c, 9, 37, 27
5, 342240, Note_on_c, 9, 51, 69
5, 342318, Note_on_c, 9, 51, 0
5, 342326, Note_on_c, 9, 37, 0
5, 342720, Note_on_c, 9, 44, 44
5, 342720, Note_on_c, 9, 37, 44
5, 342720, Note_on_c, 9, 51, 59
5, 342800, Note_on_c, 9, 51, 0
5, 342959, Note_on_c, 9, 37, 0
5, 342960, Note_on_c, 9, 51, 45
5, 343101, Note_on_c, 9, 51, 0
5, 343145, Note_on_c, 9, 44, 0
5, 343200, Note_on_c, 9, 51, 62
5, 343200, Note_on_c, 9, 36, 38
5, 343288, Note_on_c, 9, 36, 0
5, 343323, Note_on_c, 9, 51, 0
5, 343680, Note_on_c, 9, 44, 50
5, 343680, Note_on_c, 9, 37, 48
5, 343680, Note_on_c, 9, 51, 67
5, 343798, Note_on_c, 9, 51, 0
5, 343920, Note_on_c, 9, 51, 70
5, 344030, Note_on_c, 9, 51, 0
5, 344080, Note_on_c, 9, 44, 0
5, 344160, Note_on_c, 9, 51, 57
5, 344170, Note_on_c, 9, 37, 0
5, 344267, Note_on_c, 9, 51, 0
5, 344640, Note_on_c, 9, 44, 55
5, 344640, Note_on_c, 9, 51, 64
5, 344753, Note_on_c, 9, 51, 0
5, 344880, Note_on_c, 9, 51, 56
5, 344989, Note_on_c, 9, 51, 0
5, 345014, Note_on_c, 9, 44, 0
5, 345120, Note_on_c, 9, 51, 71
5, 345120, Note_on_c, 9, 37, 85
5, 345200, Note_on_c, 9, 51, 0
5, 345352, Note_on_c, 9, 37, 0
5, 345600, Note_on_c, 9, 44, 52
5, 345600, Note_on_c, 9, 37, 49
5, 345600, Note_on_c, 9, 51, 74
5, 345710, Note_on_c, 9, 51, 0
5, 345735, Note_on_c, 9, 37, 0
5, 345991, Note_on_c, 9, 44, 0
5, 346080, Note_on_c, 9, 36, 29
5, 346080, Note_on_c, 9, 51, 64
5, 346134, Note_on_c, 9, 51, 0
5, 346227, Note_on_c, 9, 36, 0
5, 346560, Note_on_c, 9, 44, 54
5, 346560, Note_on_c, 9, 37, 27
5, 346560, Note_on_c, 9, 51, 77
5, 346638, Note_on_c, 9, 37, 0
5, 346671, Note_on_c, 9, 51, 0
5, 346951, Note_on_c, 9, 44, 0
5, 347040, Note_on_c, 9, 36, 35
5, 347040, Note_on_c, 9, 51, 69
5, 347040, Note_on_c, 9, 37, 38
5, 347110, Note_on_c, 9, 37, 0
5, 347119, Note_on_c, 9, 36, 0
5, 347143, Note_on_c, 9, 51, 0
5, 347520, Note_on_c, 9, 44, 53
5, 347520, Note_on_c, 9, 51, 72
5, 347597, Note_on_c, 9, 51, 0
5, 347855, Note_on_c, 9, 44, 0
5, 348000, Note_on_c, 9, 51, 86
5, 348000, Note_on_c, 9, 36, 30
5, 348110, Note_on_c, 9, 51, 0
5, 348132, Note_on_c, 9, 36, 0
5, 348480, Note_on_c, 9, 44, 55
5, 348480, Note_on_c, 9, 51, 91
5, 348619, Note_on_c, 9, 51, 0
5, 348849, Note_on_c, 9, 44, 0
5, 348960, Note_on_c, 9, 51, 43
5, 348960, Note_on_c, 9, 36, 19
5, 349126, Note_on_c, 9, 51, 0
5, 349189, Note_on_c, 9, 36, 0
5, 349440, Note_on_c, 9, 44, 54
5, 349440, Note_on_c, 9, 51, 62
5, 349440, Note_on_c, 9, 37, 42
5, 349497, Note_on_c, 9, 37, 0
5, 349568, Note_on_c, 9, 51, 0
5, 349680, Note_on_c, 9, 51, 51
5, 349793, Note_on_c, 9, 51, 0
5, 349801, Note_on_c, 9, 44, 0
5, 349920, Note_on_c, 9, 51, 69
5, 349920, Note_on_c, 9, 37, 80
5, 350051, Note_on_c, 9, 37, 0
5, 350077, Note_on_c, 9, 51, 0
5, 350400, Note_on_c, 9, 44, 46
5, 350400, Note_on_c, 9, 51, 79
5, 350400, Note_on_c, 9, 36, 33
5, 350511, Note_on_c, 9, 36, 0
5, 350546, Note_on_c, 9, 51, 0
5, 350760, Note_on_c, 9, 44, 0
5, 350880, Note_on_c, 9, 51, 80
5, 350880, Note_on_c, 9, 37, 49
5, 351008, Note_on_c, 9, 51, 0
5, 351098, Note_on_c, 9, 37, 0
5, 351360, Note_on_c, 9, 44, 47
5, 351360, Note_on_c, 9, 51, 73
5, 351495, Note_on_c, 9, 51, 0
5, 351600, Note_on_c, 9, 53, 63
5, 351735, Note_on_c, 9, 44, 0
5, 351779, Note_on_c, 9, 53, 0
5, 351840, Note_on_c, 9, 51, 49
5, 351840, Note_on_c, 9, 36, 34
5, 351946, Note_on_c, 9, 36, 0
5, 352040, Note_on_c, 9, 51, 0
5, 352320, Note_on_c, 9, 51, 64
5, 352320, Note_on_c, 9, 44, 48
5, 352320, Note_on_c, 9, 37, 30
5, 352390, Note_on_c, 9, 37, 0
5, 352462, Note_on_c, 9, 51, 0
5, 352560, Note_on_c, 9, 37, 59
5, 352656, Note_on_c, 9, 37, 0
5, 352682, Note_on_c, 9, 44, 0
5, 352800, Note_on_c, 9, 51, 50
5, 352800, Note_on_c, 9, 36, 53
5, 352909, Note_on_c, 9, 51, 0
5, 353003, Note_on_c, 9, 36, 0
5, 353040, Note_on_c, 9, 51, 65
5, 353179, Note_on_c, 9, 51, 0
5, 353280, Note_on_c, 9, 51, 67
5, 353280, Note_on_c, 9, 44, 50
5, 353280, Note_on_c, 9, 36, 28
5, 353407, Note_on_c, 9, 51, 0
5, 353412, Note_on_c, 9, 36, 0
5, 353640, Note_on_c, 9, 44, 0
5, 353760, Note_on_c, 9, 36, 46
5, 353760, Note_on_c, 9, 51, 69
5, 353883, Note_on_c, 9, 51, 0
5, 353931, Note_on_c, 9, 36, 0
5, 354240, Note_on_c, 9, 44, 50
5, 354240, Note_on_c, 9, 37, 31
5, 354240, Note_on_c, 9, 51, 64
5, 354367, Note_on_c, 9, 51, 0
5, 354456, Note_on_c, 9, 37, 0
5, 354480, Note_on_c, 9, 38, 40
5, 354480, Note_on_c, 9, 51, 52
5, 354552, Note_on_c, 9, 38, 0
5, 354592, Note_on_c, 9, 44, 0
5, 354608, Note_on_c, 9, 51, 0
5, 354720, Note_on_c, 9, 38, 30
5, 354720, Note_on_c, 9, 51, 67
5, 354720, Note_on_c, 9, 36, 35
5, 354784, Note_on_c, 9, 38, 0
5, 354839, Note_on_c, 9, 51, 0
5, 354858, Note_on_c, 9, 36, 0
5, 355200, Note_on_c, 9, 44, 54
5, 355200, Note_on_c, 9, 38, 41
5, 355274, Note_on_c, 9, 38, 0
5, 355440, Note_on_c, 9, 38, 41
5, 355440, Note_on_c, 9, 51, 59
5, 355530, Note_on_c, 9, 38, 0
5, 355554, Note_on_c, 9, 51, 0
5, 355570, Note_on_c, 9, 44, 0
5, 355680, Note_on_c, 9, 36, 34
5, 355680, Note_on_c, 9, 51, 72
5, 355835, Note_on_c, 9, 51, 0
5, 355852, Note_on_c, 9, 36, 0
5, 356160, Note_on_c, 9, 38, 45
5, 356160, Note_on_c, 9, 44, 57
5, 356160, Note_on_c, 9, 51, 67
5, 356218, Note_on_c, 9, 38, 0
5, 356260, Note_on_c, 9, 51, 0
5, 356400, Note_on_c, 9, 51, 56
5, 356496, Note_on_c, 9, 44, 0
5, 356528, Note_on_c, 9, 51, 0
5, 356640, Note_on_c, 9, 37, 51
5, 356640, Note_on_c, 9, 51, 76
5, 356717, Note_on_c, 9, 37, 0
5, 356843, Note_on_c, 9, 51, 0
5, 357120, Note_on_c, 9, 44, 57
5, 357120, Note_on_c, 9, 51, 69
5, 357120, Note_on_c, 9, 37, 62
5, 357178, Note_on_c, 9, 37, 0
5, 357222, Note_on_c, 9, 51, 0
5, 357491, Note_on_c, 9, 44, 0
5, 357600, Note_on_c, 9, 51, 79
5, 357600, Note_on_c, 9, 37, 59
5, 357661, Note_on_c, 9, 37, 0
5, 357722, Note_on_c, 9, 51, 0
5, 358080, Note_on_c, 9, 36, 40
5, 358080, Note_on_c, 9, 51, 76
5, 358080, Note_on_c, 9, 44, 57
5, 358080, Note_on_c, 9, 38, 31
5, 358146, Note_on_c, 9, 38, 0
5, 358219, Note_on_c, 9, 36, 0
5, 358237, Note_on_c, 9, 51, 0
5, 358320, Note_on_c, 9, 37, 51
5, 358320, Note_on_c, 9, 38, 53
5, 358379, Note_on_c, 9, 37, 0
5, 358394, Note_on_c, 9, 38, 0
5, 358463, Note_on_c, 9, 44, 0
5, 358560, Note_on_c, 9, 51, 50
5, 358696, Note_on_c, 9, 51, 0
5, 359040, Note_on_c, 9, 51, 72
5, 359040, Note_on_c, 9, 38, 44
5, 359040, Note_on_c, 9, 44, 51
5, 359096, Note_on_c, 9, 38, 0
5, 359168, Note_on_c, 9, 51, 0
5, 359408, Note_on_c, 9, 44, 0
5, 359520, Note_on_c, 9, 51, 64
5, 359520, Note_on_c, 9, 38, 34
5, 359520, Note_on_c, 9, 37, 49
5, 359577, Note_on_c, 9, 37, 0
5, 359588, Note_on_c, 9, 38, 0
5, 359663, Note_on_c, 9, 51, 0
5, 360000, Note_on_c, 9, 38, 40
5, 360000, Note_on_c, 9, 44, 53
5, 360000, Note_on_c, 9, 51, 72
5, 360131, Note_on_c, 9, 51, 0
5, 360147, Note_on_c, 9, 38, 0
5, 360240, Note_on_c, 9, 37, 62
5, 360365, Note_on_c, 9, 44, 0
5, 360376, Note_on_c, 9, 37, 0
5, 360480, Note_on_c, 9, 59, 82
5, 360480, Note_on_c, 9, 51, 82
5, 360480, Note_on_c, 9, 36, 53
5, 360656, Note_on_c, 9, 59, 0
5, 360657, Note_on_c, 9, 36, 0
5, 360724, Note_on_c, 9, 51, 0
5, 360960, Note_on_c, 9, 44, 56
5, 360960, Note_on_c, 9, 51, 47
5, 360960, Note_on_c, 9, 57, 57
5, 360960, Note_on_c, 9, 36, 39
5, 360960, Note_on_c, 9, 36, 40
5, 361024, Note_on_c, 9, 57, 0
5, 361035, Note_on_c, 9, 36, 0
5, 361091, Note_on_c, 9, 51, 0
5, 361108, Note_on_c, 9, 36, 0
5, 361303, Note_on_c, 9, 44, 0
5, 361440, Note_on_c, 9, 36, 43
5, 361440, Note_on_c, 9, 51, 69
5, 361577, Note_on_c, 9, 51, 0
5, 361696, Note_on_c, 9, 36, 0
5, 361920, Note_on_c, 9, 44, 49
5, 361920, Note_on_c, 9, 51, 53
5, 361920, Note_on_c, 9, 37, 60
5, 361995, Note_on_c, 9, 37, 0
5, 362037, Note_on_c, 9, 51, 0
5, 362256, Note_on_c, 9, 44, 0
5, 362400, Note_on_c, 9, 36, 38
5, 362400, Note_on_c, 9, 51, 72
5, 362400, Note_on_c, 9, 57, 62
5, 362400, Note_on_c, 9, 36, 62
5, 362454, Note_on_c, 9, 57, 0
5, 362517, Note_on_c, 9, 51, 0
5, 362530, Note_on_c, 9, 36, 0
5, 362595, Note_on_c, 9, 36, 0
5, 362880, Note_on_c, 9, 51, 47
5, 362880, Note_on_c, 9, 44, 52
5, 362880, Note_on_c, 9, 37, 40
5, 362935, Note_on_c, 9, 37, 0
5, 363016, Note_on_c, 9, 51, 0
5, 363120, Note_on_c, 9, 59, 68
5, 363218, Note_on_c, 9, 44, 0
5, 363305, Note_on_c, 9, 59, 0
5, 363360, Note_on_c, 9, 36, 55
5, 363360, Note_on_c, 9, 36, 35
5, 363360, Note_on_c, 9, 51, 48
5, 363426, Note_on_c, 9, 36, 0
5, 363451, Note_on_c, 9, 51, 0
5, 363549, Note_on_c, 9, 36, 0
5, 363840, Note_on_c, 9, 57, 79
5, 363840, Note_on_c, 9, 36, 68
5, 363840, Note_on_c, 9, 51, 59
5, 363840, Note_on_c, 9, 44, 58
5, 363941, Note_on_c, 9, 57, 0
5, 363969, Note_on_c, 9, 51, 0
5, 364187, Note_on_c, 9, 44, 0
5, 364197, Note_on_c, 9, 36, 0
5, 364320, Note_on_c, 9, 51, 51
5, 364320, Note_on_c, 9, 37, 48
5, 364378, Note_on_c, 9, 37, 0
5, 364431, Note_on_c, 9, 51, 0
5, 364800, Note_on_c, 9, 51, 74
5, 364800, Note_on_c, 9, 44, 61
5, 364800, Note_on_c, 9, 37, 56
5, 364874, Note_on_c, 9, 37, 0
5, 364957, Note_on_c, 9, 51, 0
5, 365146, Note_on_c, 9, 44, 0
5, 365280, Note_on_c, 9, 51, 37
5, 365280, Note_on_c, 9, 36, 26
5, 365376, Note_on_c, 9, 51, 0
5, 365430, Note_on_c, 9, 36, 0
5, 365760, Note_on_c, 9, 44, 48
5, 365760, Note_on_c, 9, 51, 72
5, 365760, Note_on_c, 9, 37, 35
5, 365879, Note_on_c, 9, 37, 0
5, 365917, Note_on_c, 9, 51, 0
5, 366102, Note_on_c, 9, 44, 0
5, 366240, Note_on_c, 9, 51, 62
5, 366240, Note_on_c, 9, 36, 31
5, 366338, Note_on_c, 9, 51, 0
5, 366438, Note_on_c, 9, 36, 0
5, 366720, Note_on_c, 9, 44, 55
5, 366720, Note_on_c, 9, 51, 74
5, 366720, Note_on_c, 9, 37, 48
5, 366774, Note_on_c, 9, 37, 0
5, 366853, Note_on_c, 9, 51, 0
5, 366960, Note_on_c, 9, 51, 53
5, 367079, Note_on_c, 9, 44, 0
5, 367115, Note_on_c, 9, 51, 0
5, 367200, Note_on_c, 9, 51, 55
5, 367200, Note_on_c, 9, 37, 48
5, 367254, Note_on_c, 9, 37, 0
5, 367256, Note_on_c, 9, 51, 0
5, 367680, Note_on_c, 9, 44, 51
5, 367680, Note_on_c, 9, 51, 61
5, 367680, Note_on_c, 9, 37, 67
5, 367778, Note_on_c, 9, 37, 0
5, 367798, Note_on_c, 9, 51, 0
5, 367920, Note_on_c, 9, 51, 71
5, 367997, Note_on_c, 9, 44, 0
5, 368058, Note_on_c, 9, 51, 0
5, 368160, Note_on_c, 9, 36, 73
5, 368160, Note_on_c, 9, 51, 61
5, 368160, Note_on_c, 9, 36, 32
5, 368267, Note_on_c, 9, 51, 0
5, 368279, Note_on_c, 9, 36, 0
5, 368365, Note_on_c, 9, 36, 0
5, 368640, Note_on_c, 9, 57, 79
5, 368640, Note_on_c, 9, 44, 53
5, 368640, Note_on_c, 9, 36, 79
5, 368640, Note_on_c, 9, 51, 78
5, 368694, Note_on_c, 9, 57, 0
5, 368773, Note_on_c, 9, 51, 0
5, 368788, Note_on_c, 9, 36, 0
5, 369015, Note_on_c, 9, 44, 0
5, 369120, Note_on_c, 9, 51, 56
5, 369120, Note_on_c, 9, 36, 32
5, 369229, Note_on_c, 9, 36, 0
5, 369232, Note_on_c, 9, 51, 0
5, 369600, Note_on_c, 9, 44, 51
5, 369600, Note_on_c, 9, 51, 67
5, 369600, Note_on_c, 9, 37, 57
5, 369654, Note_on_c, 9, 37, 0
5, 369721, Note_on_c, 9, 51, 0
5, 369959, Note_on_c, 9, 44, 0
5, 370080, Note_on_c, 9, 51, 64
5, 370080, Note_on_c, 9, 36, 33
5, 370178, Note_on_c, 9, 36, 0
5, 370187, Note_on_c, 9, 51, 0
5, 370560, Note_on_c, 9, 44, 56
5, 370560, Note_on_c, 9, 51, 67
5, 370682, Note_on_c, 9, 51, 0
5, 370919, Note_on_c, 9, 44, 0
5, 371040, Note_on_c, 9, 51, 77
5, 371040, Note_on_c, 9, 36, 41
5, 371184, Note_on_c, 9, 51, 0
5, 371214, Note_on_c, 9, 36, 0
5, 371520, Note_on_c, 9, 44, 50
5, 371520, Note_on_c, 9, 51, 69
5, 371661, Note_on_c, 9, 51, 0
5, 371864, Note_on_c, 9, 44, 0
5, 372000, Note_on_c, 9, 51, 61
5, 372000, Note_on_c, 9, 36, 57
5, 372000, Note_on_c, 9, 53, 50
5, 372122, Note_on_c, 9, 36, 0
5, 372165, Note_on_c, 9, 51, 0
5, 372196, Note_on_c, 9, 53, 0
5, 372480, Note_on_c, 9, 44, 52
5, 372480, Note_on_c, 9, 51, 59
5, 372480, Note_on_c, 9, 37, 67
5, 372535, Note_on_c, 9, 37, 0
5, 372630, Note_on_c, 9, 51, 0
5, 372831, Note_on_c, 9, 44, 0
5, 372960, Note_on_c, 9, 37, 70
5, 372960, Note_on_c, 9, 51, 62
5, 373015, Note_on_c, 9, 37, 0
5, 373125, Note_on_c, 9, 51, 0
5, 373440, Note_on_c, 9, 51, 56
5, 373440, Note_on_c, 9, 36, 32
5, 373440, Note_on_c, 9, 44, 55
5, 373587, Note_on_c, 9, 51, 0
5, 373599, Note_on_c, 9, 36, 0
5, 373800, Note_on_c, 9, 44, 0
5, 373920, Note_on_c, 9, 51, 65
5, 373920, Note_on_c, 9, 53, 55
5, 373920, Note_on_c, 9, 37, 29
5, 373974, Note_on_c, 9, 37, 0
5, 374095, Note_on_c, 9, 51, 0
5, 374101, Note_on_c, 9, 53, 0
5, 374400, Note_on_c, 9, 51, 38
5, 374400, Note_on_c, 9, 44, 47
5, 374400, Note_on_c, 9, 37, 50
5, 374454, Note_on_c, 9, 37, 0
5, 374581, Note_on_c, 9, 51, 0
5, 374858, Note_on_c, 9, 44, 0
5, 374880, Note_on_c, 9, 59, 72
5, 374880, Note_on_c, 9, 51, 67
5, 374880, Note_on_c, 9, 47, 50
5, 374880, Note_on_c, 9, 36, 24
5, 374974, Note_on_c, 9, 36, 0
5, 374975, Note_on_c, 9, 47, 0
5, 375022, Note_on_c, 9, 51, 0
5, 375082, Note_on_c, 9, 59, 0
5, 375360, Note_on_c, 9, 51, 55
5, 375360, Note_on_c, 9, 37, 67
5, 375360, Note_on_c, 9, 44, 54
5, 375360, Note_on_c, 9, 38, 44
5, 375419, Note_on_c, 9, 38, 0
5, 375452, Note_on_c, 9, 37, 0
5, 375516, Note_on_c, 9, 51, 0
5, 375657, Note_on_c, 9, 44, 0
5, 375840, Note_on_c, 9, 37, 49
5, 375840, Note_on_c, 9, 47, 50
5, 375840, Note_on_c, 9, 38, 52
5, 375840, Note_on_c, 9, 52, 66
5, 375900, Note_on_c, 9, 38, 0
5, 375936, Note_on_c, 9, 47, 0
5, 375951, Note_on_c, 9, 37, 0
5, 375992, Note_on_c, 9, 52, 0
5, 376320, Note_on_c, 9, 51, 61
5, 376320, Note_on_c, 9, 36, 33
5, 376320, Note_on_c, 9, 44, 51
5, 376525, Note_on_c, 9, 36, 0
5, 376525, Note_on_c, 9, 51, 0
5, 376707, Note_on_c, 9, 44, 0
5, 376800, Note_on_c, 9, 51, 62
5, 376800, Note_on_c, 9, 36, 33
5, 376919, Note_on_c, 9, 36, 0
5, 376971, Note_on_c, 9, 51, 0
5, 377280, Note_on_c, 9, 51, 51
5, 377280, Note_on_c, 9, 37, 62
5, 377280, Note_on_c, 9, 44, 49
5, 377347, Note_on_c, 9, 51, 0
5, 377373, Note_on_c, 9, 37, 0
5, 377610, Note_on_c, 9, 44, 0
5, 377760, Note_on_c, 9, 36, 30
5, 377760, Note_on_c, 9, 51, 77
5, 377890, Note_on_c, 9, 36, 0
5, 377896, Note_on_c, 9, 51, 0
5, 378240, Note_on_c, 9, 51, 42
5, 378240, Note_on_c, 9, 37, 42
5, 378240, Note_on_c, 9, 44, 48
5, 378297, Note_on_c, 9, 37, 0
5, 378361, Note_on_c, 9, 51, 0
5, 378480, Note_on_c, 9, 51, 33
5, 378590, Note_on_c, 9, 51, 0
5, 378618, Note_on_c, 9, 44, 0
5, 378720, Note_on_c, 9, 51, 57
5, 378720, Note_on_c, 9, 37, 75
5, 378837, Note_on_c, 9, 51, 0
5, 378982, Note_on_c, 9, 37, 0
5, 379200, Note_on_c, 9, 36, 24
5, 379200, Note_on_c, 9, 51, 71
5, 379200, Note_on_c, 9, 44, 45
5, 379200, Note_on_c, 9, 44, 49
5, 379298, Note_on_c, 9, 36, 0
5, 379310, Note_on_c, 9, 51, 0
5, 379440, Note_on_c, 9, 51, 65
5, 379491, Note_on_c, 9, 44, 0
5, 379493, Note_on_c, 9, 44, 0
5, 379592, Note_on_c, 9, 51, 0
5, 379680, Note_on_c, 9, 36, 37
5, 379680, Note_on_c, 9, 51, 49
5, 379749, Note_on_c, 9, 51, 0
5, 379816, Note_on_c, 9, 36, 0
5, 380160, Note_on_c, 9, 44, 57
5, 380160, Note_on_c, 9, 51, 70
5, 380283, Note_on_c, 9, 51, 0
5, 380640, Note_on_c, 9, 51, 51
5, 380640, Note_on_c, 9, 36, 29
5, 380640, Note_on_c, 9, 38, 50
5, 380677, Note_on_c, 9, 44, 0
5, 380715, Note_on_c, 9, 38, 0
5, 380754, Note_on_c, 9, 51, 0
5, 380809, Note_on_c, 9, 36, 0
5, 381120, Note_on_c, 9, 51, 67
5, 381120, Note_on_c, 9, 44, 51
5, 381245, Note_on_c, 9, 51, 0
5, 381360, Note_on_c, 9, 37, 54
5, 381489, Note_on_c, 9, 37, 0
5, 381505, Note_on_c, 9, 44, 0
5, 381600, Note_on_c, 9, 37, 59
5, 381600, Note_on_c, 9, 51, 57
5, 381600, Note_on_c, 9, 38, 58
5, 381687, Note_on_c, 9, 37, 0
5, 381722, Note_on_c, 9, 51, 0
5, 381733, Note_on_c, 9, 38, 0
5, 382080, Note_on_c, 9, 36, 46
5, 382080, Note_on_c, 9, 51, 60
5, 382080, Note_on_c, 9, 44, 56
5, 382202, Note_on_c, 9, 51, 0
5, 382211, Note_on_c, 9, 36, 0
5, 382320, Note_on_c, 9, 51, 61
5, 382446, Note_on_c, 9, 51, 0
5, 382459, Note_on_c, 9, 44, 0
5, 382560, Note_on_c, 9, 51, 55
5, 382560, Note_on_c, 9, 36, 45
5, 382560, Note_on_c, 9, 38, 71
5, 382668, Note_on_c, 9, 51, 0
5, 382705, Note_on_c, 9, 36, 0
5, 382712, Note_on_c, 9, 38, 0
5, 383040, Note_on_c, 9, 44, 57
5, 383040, Note_on_c, 9, 51, 57
5, 383040, Note_on_c, 9, 37, 57
5, 383094, Note_on_c, 9, 37, 0
5, 383163, Note_on_c, 9, 51, 0
5, 383280, Note_on_c, 9, 51, 55
5, 383399, Note_on_c, 9, 44, 0
5, 383405, Note_on_c, 9, 51, 0
5, 383520, Note_on_c, 9, 36, 47
5, 383520, Note_on_c, 9, 38, 66
5, 383520, Note_on_c, 9, 51, 52
5, 383592, Note_on_c, 9, 51, 0
5, 383635, Note_on_c, 9, 38, 0
5, 383679, Note_on_c, 9, 36, 0
5, 384000, Note_on_c, 9, 57, 67
5, 384000, Note_on_c, 9, 36, 62
5, 384000, Note_on_c, 9, 36, 41
5, 384000, Note_on_c, 9, 44, 51
5, 384000, Note_on_c, 9, 51, 71
5, 384061, Note_on_c, 9, 57, 0
5, 384098, Note_on_c, 9, 36, 0
5, 384156, Note_on_c, 9, 51, 0
5, 384162, Note_on_c, 9, 36, 0
5, 384240, Note_on_c, 9, 51, 57
5, 384355, Note_on_c, 9, 51, 0
5, 384376, Note_on_c, 9, 44, 0
5, 384480, Note_on_c, 9, 51, 52
5, 384480, Note_on_c, 9, 37, 44
5, 384555, Note_on_c, 9, 37, 0
5, 384598, Note_on_c, 9, 51, 0
5, 384960, Note_on_c, 9, 44, 50
5, 384960, Note_on_c, 9, 51, 71
5, 385072, Note_on_c, 9, 51, 0
5, 385333, Note_on_c, 9, 44, 0
5, 385440, Note_on_c, 9, 36, 35
5, 385440, Note_on_c, 9, 51, 48
5, 385512, Note_on_c, 9, 51, 0
5, 385517, Note_on_c, 9, 36, 0
5, 385680, Note_on_c, 9, 51, 45
5, 385808, Note_on_c, 9, 51, 0
5, 385920, Note_on_c, 9, 51, 71
5, 385920, Note_on_c, 9, 44, 53
5, 385920, Note_on_c, 9, 37, 53
5, 385974, Note_on_c, 9, 37, 0
5, 386030, Note_on_c, 9, 51, 0
5, 386274, Note_on_c, 9, 44, 0
5, 386400, Note_on_c, 9, 38, 53
5, 386400, Note_on_c, 9, 51, 69
5, 386400, Note_on_c, 9, 36, 39
5, 386456, Note_on_c, 9, 38, 0
5, 386478, Note_on_c, 9, 36, 0
5, 386506, Note_on_c, 9, 51, 0
5, 386880, Note_on_c, 9, 50, 60
5, 386880, Note_on_c, 9, 36, 54
5, 386880, Note_on_c, 9, 44, 47
5, 386880, Note_on_c, 9, 37, 37
5, 386880, Note_on_c, 9, 51, 57
5, 386934, Note_on_c, 9, 37, 0
5, 386943, Note_on_c, 9, 50, 0
5, 386954, Note_on_c, 9, 36, 0
5, 386975, Note_on_c, 9, 51, 0
5, 387120, Note_on_c, 9, 51, 56
5, 387209, Note_on_c, 9, 44, 0
5, 387243, Note_on_c, 9, 51, 0
5, 387360, Note_on_c, 9, 51, 62
5, 387360, Note_on_c, 9, 37, 79
5, 387465, Note_on_c, 9, 37, 0
5, 387497, Note_on_c, 9, 51, 0
5, 387840, Note_on_c, 9, 37, 82
5, 387840, Note_on_c, 9, 44, 43
5, 387840, Note_on_c, 9, 51, 67
5, 387962, Note_on_c, 9, 37, 0
5, 387968, Note_on_c, 9, 51, 0
5, 388080, Note_on_c, 9, 51, 29
5, 388208, Note_on_c, 9, 44, 0
5, 388216, Note_on_c, 9, 51, 0
5, 388320, Note_on_c, 9, 36, 28
5, 388416, Note_on_c, 9, 36, 0
5, 388800, Note_on_c, 9, 37, 35
5, 388800, Note_on_c, 9, 51, 74
5, 388800, Note_on_c, 9, 44, 48
5, 388887, Note_on_c, 9, 37, 0
5, 388909, Note_on_c, 9, 51, 0
5, 389142, Note_on_c, 9, 44, 0
5, 389280, Note_on_c, 9, 37, 39
5, 389280, Note_on_c, 9, 51, 58
5, 389335, Note_on_c, 9, 37, 0
5, 389344, Note_on_c, 9, 51, 0
5, 389760, Note_on_c, 9, 37, 48
5, 389760, Note_on_c, 9, 51, 55
5, 389760, Note_on_c, 9, 44, 55
5, 389814, Note_on_c, 9, 51, 0
5, 389832, Note_on_c, 9, 37, 0
5, 390000, Note_on_c, 9, 37, 49
5, 390072, Note_on_c, 9, 37, 0
5, 390132, Note_on_c, 9, 44, 0
5, 390240, Note_on_c, 9, 36, 52
5, 390240, Note_on_c, 9, 51, 55
5, 390240, Note_on_c, 9, 38, 57
5, 390309, Note_on_c, 9, 51, 0
5, 390314, Note_on_c, 9, 36, 0
5, 390322, Note_on_c, 9, 38, 0
5, 390720, Note_on_c, 9, 44, 53
5, 390720, Note_on_c, 9, 51, 69
5, 390720, Note_on_c, 9, 38, 35
5, 390787, Note_on_c, 9, 38, 0
5, 390851, Note_on_c, 9, 51, 0
5, 390960, Note_on_c, 9, 51, 59
5, 391028, Note_on_c, 9, 44, 0
5, 391071, Note_on_c, 9, 51, 0
5, 391200, Note_on_c, 9, 51, 56
5, 391200, Note_on_c, 9, 36, 56
5, 391200, Note_on_c, 9, 37, 61
5, 391259, Note_on_c, 9, 37, 0
5, 391270, Note_on_c, 9, 51, 0
5, 391316, Note_on_c, 9, 36, 0
5, 391440, Note_on_c, 9, 37, 55
5, 391512, Note_on_c, 9, 37, 0
5, 391680, Note_on_c, 9, 52, 56
5, 391680, Note_on_c, 9, 36, 55
5, 391680, Note_on_c, 9, 44, 56
5, 391680, Note_on_c, 9, 51, 70
5, 391680, Note_on_c, 9, 36, 41
5, 391768, Note_on_c, 9, 52, 0
5, 391794, Note_on_c, 9, 36, 0
5, 391795, Note_on_c, 9, 36, 0
5, 391810, Note_on_c, 9, 51, 0
5, 391920, Note_on_c, 9, 51, 56
5, 392043, Note_on_c, 9, 51, 0
5, 392073, Note_on_c, 9, 44, 0
5, 392160, Note_on_c, 9, 51, 49
5, 392160, Note_on_c, 9, 36, 22
5, 392249, Note_on_c, 9, 36, 0
5, 392254, Note_on_c, 9, 51, 0
5, 392640, Note_on_c, 9, 44, 43
5, 392640, Note_on_c, 9, 37, 59
5, 392640, Note_on_c, 9, 51, 67
5, 392770, Note_on_c, 9, 51, 0
5, 392786, Note_on_c, 9, 37, 0
5, 392880, Note_on_c, 9, 37, 63
5, 392971, Note_on_c, 9, 44, 0
5, 392979, Note_on_c, 9, 37, 0
5, 393120, Note_on_c, 9, 51, 58
5, 393120, Note_on_c, 9, 36, 36
5, 393227, Note_on_c, 9, 51, 0
5, 393264, Note_on_c, 9, 36, 0
5, 393360, Note_on_c, 9, 51, 62
5, 393488, Note_on_c, 9, 51, 0
5, 393600, Note_on_c, 9, 51, 57
5, 393600, Note_on_c, 9, 44, 45
5, 393600, Note_on_c, 9, 36, 34
5, 393710, Note_on_c, 9, 51, 0
5, 393746, Note_on_c, 9, 36, 0
5, 393936, Note_on_c, 9, 44, 0
5, 394080, Note_on_c, 9, 51, 72
5, 394080, Note_on_c, 9, 36, 46
5, 394182, Note_on_c, 9, 51, 0
5, 394212, Note_on_c, 9, 36, 0
5, 394560, Note_on_c, 9, 51, 74
5, 394560, Note_on_c, 9, 44, 51
5, 394560, Note_on_c, 9, 37, 60
5, 394614, Note_on_c, 9, 37, 0
5, 394713, Note_on_c, 9, 51, 0
5, 394800, Note_on_c, 9, 51, 67
5, 394918, Note_on_c, 9, 51, 0
5, 394936, Note_on_c, 9, 44, 0
5, 395040, Note_on_c, 9, 36, 34
5, 395040, Note_on_c, 9, 51, 59
5, 395135, Note_on_c, 9, 51, 0
5, 395209, Note_on_c, 9, 36, 0
5, 395520, Note_on_c, 9, 37, 54
5, 395520, Note_on_c, 9, 44, 38
5, 395520, Note_on_c, 9, 51, 67
5, 395574, Note_on_c, 9, 37, 0
5, 395582, Note_on_c, 9, 51, 0
5, 395867, Note_on_c, 9, 44, 0
5, 396000, Note_on_c, 9, 37, 56
5, 396000, Note_on_c, 9, 51, 64
5, 396054, Note_on_c, 9, 37, 0
5, 396095, Note_on_c, 9, 51, 0
5, 396240, Note_on_c, 9, 51, 64
5, 396357, Note_on_c, 9, 51, 0
5, 396480, Note_on_c, 9, 36, 31
5, 396480, Note_on_c, 9, 44, 36
5, 396480, Note_on_c, 9, 51, 58
5, 396546, Note_on_c, 9, 36, 0
5, 396604, Note_on_c, 9, 51, 0
5, 396810, Note_on_c, 9, 44, 0
5, 396960, Note_on_c, 9, 36, 58
5, 396960, Note_on_c, 9, 51, 69
5, 397051, Note_on_c, 9, 51, 0
5, 397108, Note_on_c, 9, 36, 0
5, 397440, Note_on_c, 9, 38, 45
5, 397440, Note_on_c, 9, 44, 50
5, 397440, Note_on_c, 9, 51, 69
5, 397501, Note_on_c, 9, 38, 0
5, 397621, Note_on_c, 9, 51, 0
5, 397680, Note_on_c, 9, 51, 36
5, 397743, Note_on_c, 9, 51, 0
5, 397796, Note_on_c, 9, 44, 0
5, 397920, Note_on_c, 9, 38, 70
5, 397920, Note_on_c, 9, 36, 44
5, 397985, Note_on_c, 9, 36, 0
5, 398045, Note_on_c, 9, 38, 0
5, 398400, Note_on_c, 9, 51, 76
5, 398400, Note_on_c, 9, 38, 64
5, 398400, Note_on_c, 9, 44, 47
5, 398400, Note_on_c, 9, 44, 51
5, 398400, Note_on_c, 9, 37, 54
5, 398508, Note_on_c, 9, 38, 0
5, 398512, Note_on_c, 9, 51, 0
5, 398515, Note_on_c, 9, 37, 0
5, 398640, Note_on_c, 9, 38, 62
5, 398640, Note_on_c, 9, 37, 61
5, 398694, Note_on_c, 9, 37, 0
5, 398696, Note_on_c, 9, 44, 0
5, 398712, Note_on_c, 9, 44, 0
5, 398805, Note_on_c, 9, 38, 0
5, 398880, Note_on_c, 9, 51, 56
5, 398880, Note_on_c, 9, 36, 64
5, 398939, Note_on_c, 9, 51, 0
5, 399030, Note_on_c, 9, 36, 0
5, 399360, Note_on_c, 9, 36, 70
5, 399360, Note_on_c, 9, 51, 77
5, 399360, Note_on_c, 9, 44, 59
5, 399360, Note_on_c, 9, 36, 34
5, 399456, Note_on_c, 9, 36, 0
5, 399480, Note_on_c, 9, 51, 0
5, 399510, Note_on_c, 9, 36, 0
5, 399840, Note_on_c, 9, 51, 59
5, 399840, Note_on_c, 9, 36, 41
5, 399840, Note_on_c, 9, 36, 51
5, 399911, Note_on_c, 9, 51, 0
5, 399925, Note_on_c, 9, 36, 0
5, 399938, Note_on_c, 9, 36, 0
5, 399957, Note_on_c, 9, 44, 0
5, 400320, Note_on_c, 9, 51, 71
5, 400320, Note_on_c, 9, 44, 57
5, 400320, Note_on_c, 9, 37, 59
5, 400374, Note_on_c, 9, 37, 0
5, 400434, Note_on_c, 9, 51, 0
5, 400700, Note_on_c, 9, 44, 0
5, 400800, Note_on_c, 9, 36, 40
5, 400800, Note_on_c, 9, 51, 50
5, 400886, Note_on_c, 9, 36, 0
5, 400928, Note_on_c, 9, 51, 0
5, 401280, Note_on_c, 9, 51, 70
5, 401280, Note_on_c, 9, 44, 52
5, 401394, Note_on_c, 9, 51, 0
5, 401520, Note_on_c, 9, 51, 62
5, 401651, Note_on_c, 9, 44, 0
5, 401656, Note_on_c, 9, 51, 0
5, 401760, Note_on_c, 9, 51, 67
5, 401760, Note_on_c, 9, 38, 53
5, 401760, Note_on_c, 9, 36, 22
5, 401840, Note_on_c, 9, 38, 0
5, 401848, Note_on_c, 9, 36, 0
5, 401848, Note_on_c, 9, 51, 0
5, 402240, Note_on_c, 9, 38, 60
5, 402240, Note_on_c, 9, 44, 55
5, 402240, Note_on_c, 9, 51, 74
5, 402315, Note_on_c, 9, 38, 0
5, 402344, Note_on_c, 9, 51, 0
5, 402604, Note_on_c, 9, 44, 0
5, 402720, Note_on_c, 9, 51, 77
5, 402720, Note_on_c, 9, 36, 42
5, 402720, Note_on_c, 9, 36, 42
5, 402792, Note_on_c, 9, 36, 0
5, 402799, Note_on_c, 9, 36, 0
5, 402840, Note_on_c, 9, 51, 0
5, 403200, Note_on_c, 9, 44, 60
5, 403200, Note_on_c, 9, 51, 67
5, 403200, Note_on_c, 9, 36, 48
5, 403321, Note_on_c, 9, 51, 0
5, 403362, Note_on_c, 9, 36, 0
5, 403440, Note_on_c, 9, 51, 49
5, 403564, Note_on_c, 9, 51, 0
5, 403604, Note_on_c, 9, 44, 0
5, 403680, Note_on_c, 9, 51, 59
5, 403816, Note_on_c, 9, 51, 0
5, 404160, Note_on_c, 9, 37, 70
5, 404160, Note_on_c, 9, 51, 77
5, 404160, Note_on_c, 9, 44, 44
5, 404214, Note_on_c, 9, 37, 0
5, 404274, Note_on_c, 9, 51, 0
5, 404512, Note_on_c, 9, 44, 0
5, 404640, Note_on_c, 9, 51, 76
5, 404640, Note_on_c, 9, 36, 24
5, 404694, Note_on_c, 9, 36, 0
5, 404754, Note_on_c, 9, 51, 0
5, 405120, Note_on_c, 9, 44, 57
5, 405120, Note_on_c, 9, 37, 59
5, 405120, Note_on_c, 9, 51, 69
5, 405174, Note_on_c, 9, 37, 0
5, 405200, Note_on_c, 9, 51, 0
5, 405360, Note_on_c, 9, 51, 65
5, 405461, Note_on_c, 9, 51, 0
5, 405506, Note_on_c, 9, 44, 0
5, 405600, Note_on_c, 9, 51, 64
5, 405600, Note_on_c, 9, 37, 73
5, 405655, Note_on_c, 9, 37, 0
5, 405731, Note_on_c, 9, 51, 0
5, 406080, Note_on_c, 9, 37, 65
5, 406080, Note_on_c, 9, 44, 53
5, 406080, Note_on_c, 9, 51, 71
5, 406136, Note_on_c, 9, 37, 0
5, 406185, Note_on_c, 9, 51, 0
5, 406463, Note_on_c, 9, 44, 0
5, 406560, Note_on_c, 9, 36, 44
5, 406560, Note_on_c, 9, 51, 72
5, 406669, Note_on_c, 9, 51, 0
5, 406688, Note_on_c, 9, 36, 0
5, 407040, Note_on_c, 9, 44, 60
5, 407040, Note_on_c, 9, 37, 31
5, 407040, Note_on_c, 9, 51, 67
5, 407096, Note_on_c, 9, 37, 0
5, 407155, Note_on_c, 9, 51, 0
5, 407280, Note_on_c, 9, 51, 55
5, 407400, Note_on_c, 9, 51, 0
5, 407419, Note_on_c, 9, 44, 0
5, 407520, Note_on_c, 9, 51, 64
5, 407520, Note_on_c, 9, 37, 30
5, 407574, Note_on_c, 9, 37, 0
5, 407628, Note_on_c, 9, 51, 0
5, 408000, Note_on_c, 9, 44, 50
5, 408000, Note_on_c, 9, 37, 60
5, 408000, Note_on_c, 9, 51, 77
5, 408058, Note_on_c, 9, 37, 0
5, 408109, Note_on_c, 9, 51, 0
5, 408354, Note_on_c, 9, 44, 0
5, 408480, Note_on_c, 9, 36, 36
5, 408480, Note_on_c, 9, 51, 74
5, 408574, Note_on_c, 9, 36, 0
5, 408587, Note_on_c, 9, 51, 0
5, 408960, Note_on_c, 9, 44, 56
5, 408960, Note_on_c, 9, 51, 75
5, 409107, Note_on_c, 9, 51, 0
5, 409328, Note_on_c, 9, 44, 0
5, 409440, Note_on_c, 9, 51, 61
5, 409440, Note_on_c, 9, 36, 34
5, 409534, Note_on_c, 9, 36, 0
5, 409586, Note_on_c, 9, 51, 0
5, 409920, Note_on_c, 9, 44, 48
5, 409920, Note_on_c, 9, 51, 67
5, 409920, Note_on_c, 9, 37, 40
5, 409975, Note_on_c, 9, 37, 0
5, 410081, Note_on_c, 9, 51, 0
5, 410160, Note_on_c, 9, 37, 62
5, 410239, Note_on_c, 9, 37, 0
5, 410276, Note_on_c, 9, 44, 0
5, 410400, Note_on_c, 9, 51, 69
5, 410400, Note_on_c, 9, 53, 61
5, 410400, Note_on_c, 9, 36, 51
5, 410581, Note_on_c, 9, 53, 0
5, 410602, Note_on_c, 9, 36, 0
5, 410630, Note_on_c, 9, 51, 0
5, 410880, Note_on_c, 9, 44, 49
5, 410880, Note_on_c, 9, 51, 53
5, 410880, Note_on_c, 9, 36, 58
5, 411014, Note_on_c, 9, 36, 0
5, 411025, Note_on_c, 9, 51, 0
5, 411216, Note_on_c, 9, 44, 0
5, 411360, Note_on_c, 9, 51, 64
5, 411360, Note_on_c, 9, 36, 44
5, 411476, Note_on_c, 9, 51, 0
5, 411490, Note_on_c, 9, 36, 0
5, 411840, Note_on_c, 9, 51, 67
5, 411840, Note_on_c, 9, 44, 53
5, 411990, Note_on_c, 9, 51, 0
5, 412186, Note_on_c, 9, 44, 0
5, 412320, Note_on_c, 9, 51, 81
5, 412320, Note_on_c, 9, 37, 65
5, 412396, Note_on_c, 9, 37, 0
5, 412493, Note_on_c, 9, 51, 0
5, 412800, Note_on_c, 9, 51, 59
5, 412800, Note_on_c, 9, 44, 49
5, 412915, Note_on_c, 9, 51, 0
5, 413132, Note_on_c, 9, 44, 0
5, 413280, Note_on_c, 9, 51, 74
5, 413280, Note_on_c, 9, 36, 42
5, 413280, Note_on_c, 9, 38, 50
5, 413367, Note_on_c, 9, 36, 0
5, 413388, Note_on_c, 9, 51, 0
5, 413426, Note_on_c, 9, 38, 0
5, 413760, Note_on_c, 9, 51, 52
5, 413760, Note_on_c, 9, 44, 51
5, 413760, Note_on_c, 9, 37, 42
5, 413814, Note_on_c, 9, 37, 0
5, 413830, Note_on_c, 9, 51, 0
5, 414000, Note_on_c, 9, 51, 57
5, 414000, Note_on_c, 9, 38, 64
5, 414044, Note_on_c, 9, 44, 0
5, 414151, Note_on_c, 9, 51, 0
5, 414180, Note_on_c, 9, 38, 0
5, 414240, Note_on_c, 9, 51, 69
5, 414240, Note_on_c, 9, 36, 45
5, 414240, Note_on_c, 9, 37, 57
5, 414295, Note_on_c, 9, 37, 0
5, 414380, Note_on_c, 9, 51, 0
5, 414426, Note_on_c, 9, 36, 0
5, 414720, Note_on_c, 9, 36, 36
5, 414720, Note_on_c, 9, 36, 50
5, 414720, Note_on_c, 9, 44, 60
5, 414720, Note_on_c, 9, 51, 75
5, 414834, Note_on_c, 9, 36, 0
5, 414860, Note_on_c, 9, 51, 0
5, 414885, Note_on_c, 9, 36, 0
5, 415069, Note_on_c, 9, 44, 0
5, 415200, Note_on_c, 9, 36, 29
5, 415200, Note_on_c, 9, 51, 59
5, 415200, Note_on_c, 9, 57, 46
5, 415200, Note_on_c, 9, 36, 53
5, 415311, Note_on_c, 9, 51, 0
5, 415330, Note_on_c, 9, 57, 0
5, 415333, Note_on_c, 9, 36, 0
5, 415428, Note_on_c, 9, 36, 0
5, 415680, Note_on_c, 9, 51, 64
5, 415680, Note_on_c, 9, 37, 58
5, 415680, Note_on_c, 9, 44, 50
5, 415736, Note_on_c, 9, 37, 0
5, 415760, Note_on_c, 9, 51, 0
5, 416032, Note_on_c, 9, 44, 0
5, 416160, Note_on_c, 9, 36, 35
5, 416160, Note_on_c, 9, 51, 83
5, 416295, Note_on_c, 9, 51, 0
5, 416302, Note_on_c, 9, 36, 0
5, 416640, Note_on_c, 9, 51, 57
5, 416640, Note_on_c, 9, 36, 40
5, 416640, Note_on_c, 9, 44, 42
5, 416819, Note_on_c, 9, 36, 0
5, 416848, Note_on_c, 9, 51, 0
5, 416985, Note_on_c, 9, 44, 0
5, 417120, Note_on_c, 9, 51, 75
5, 417120, Note_on_c, 9, 37, 75
5, 417225, Note_on_c, 9, 37, 0
5, 417307, Note_on_c, 9, 51, 0
5, 417600, Note_on_c, 9, 36, 34
5, 417600, Note_on_c, 9, 51, 72
5, 417600, Note_on_c, 9, 44, 52
5, 417749, Note_on_c, 9, 51, 0
5, 417795, Note_on_c, 9, 36, 0
5, 417934, Note_on_c, 9, 44, 0
5, 418080, Note_on_c, 9, 37, 74
5, 418080, Note_on_c, 9, 51, 74
5, 418191, Note_on_c, 9, 37, 0
5, 418198, Note_on_c, 9, 51, 0
5, 418560, Note_on_c, 9, 37, 62
5, 418560, Note_on_c, 9, 51, 65
5, 418560, Note_on_c, 9, 44, 39
5, 418630, Note_on_c, 9, 37, 0
5, 418679, Note_on_c, 9, 51, 0
5, 418800, Note_on_c, 9, 51, 56
5, 418907, Note_on_c, 9, 44, 0
5, 418944, Note_on_c, 9, 51, 0
5, 419040, Note_on_c, 9, 51, 62
5, 419160, Note_on_c, 9, 51, 0
5, 419520, Note_on_c, 9, 51, 69
5, 419520, Note_on_c, 9, 44, 44
5, 419664, Note_on_c, 9, 51, 0
5, 419760, Note_on_c, 9, 51, 60
5, 419863, Note_on_c, 9, 44, 0
5, 419880, Note_on_c, 9, 51, 0
5, 420000, Note_on_c, 9, 36, 64
5, 420000, Note_on_c, 9, 51, 56
5, 420086, Note_on_c, 9, 51, 0
5, 420179, Note_on_c, 9, 36, 0
5, 420480, Note_on_c, 9, 37, 59
5, 420480, Note_on_c, 9, 44, 53
5, 420480, Note_on_c, 9, 51, 70
5, 420534, Note_on_c, 9, 37, 0
5, 420590, Note_on_c, 9, 51, 0
5, 420800, Note_on_c, 9, 44, 0
5, 420960, Note_on_c, 9, 37, 62
5, 420960, Note_on_c, 9, 51, 67
5, 421015, Note_on_c, 9, 37, 0
5, 421085, Note_on_c, 9, 51, 0
5, 421440, Note_on_c, 9, 37, 60
5, 421440, Note_on_c, 9, 44, 50
5, 421440, Note_on_c, 9, 51, 70
5, 421496, Note_on_c, 9, 37, 0
5, 421667, Note_on_c, 9, 51, 0
5, 421779, Note_on_c, 9, 44, 0
5, 421920, Note_on_c, 9, 38, 55
5, 421920, Note_on_c, 9, 36, 40
5, 421920, Note_on_c, 9, 51, 51
5, 421997, Note_on_c, 9, 38, 0
5, 422004, Note_on_c, 9, 51, 0
5, 422082, Note_on_c, 9, 36, 0
5, 422400, Note_on_c, 9, 57, 45
5, 422400, Note_on_c, 9, 36, 50
5, 422400, Note_on_c, 9, 44, 56
5, 422400, Note_on_c, 9, 37, 34
5, 422400, Note_on_c, 9, 51, 77
5, 422463, Note_on_c, 9, 57, 0
5, 422475, Note_on_c, 9, 36, 0
5, 422480, Note_on_c, 9, 37, 0
5, 422608, Note_on_c, 9, 51, 0
5, 422773, Note_on_c, 9, 44, 0
5, 422880, Note_on_c, 9, 37, 43
5, 422880, Note_on_c, 9, 51, 48
5, 422935, Note_on_c, 9, 37, 0
5, 422976, Note_on_c, 9, 51, 0
5, 423360, Note_on_c, 9, 37, 53
5, 423360, Note_on_c, 9, 44, 48
5, 423360, Note_on_c, 9, 51, 78
5, 423419, Note_on_c, 9, 37, 0
5, 423576, Note_on_c, 9, 51, 0
5, 423698, Note_on_c, 9, 44, 0
5, 423840, Note_on_c, 9, 36, 25
5, 423840, Note_on_c, 9, 51, 52
5, 423840, Note_on_c, 9, 57, 33
5, 423840, Note_on_c, 9, 36, 39
5, 423905, Note_on_c, 9, 57, 0
5, 423908, Note_on_c, 9, 36, 0
5, 423927, Note_on_c, 9, 36, 0
5, 423944, Note_on_c, 9, 51, 0
5, 424320, Note_on_c, 9, 44, 49
5, 424320, Note_on_c, 9, 51, 77
5, 424432, Note_on_c, 9, 51, 0
5, 424659, Note_on_c, 9, 44, 0
5, 424800, Note_on_c, 9, 36, 41
5, 424800, Note_on_c, 9, 36, 38
5, 424800, Note_on_c, 9, 51, 78
5, 424864, Note_on_c, 9, 36, 0
5, 424925, Note_on_c, 9, 51, 0
5, 424949, Note_on_c, 9, 36, 0
5, 425040, Note_on_c, 9, 57, 50
5, 425107, Note_on_c, 9, 57, 0
5, 425280, Note_on_c, 9, 36, 50
5, 425280, Note_on_c, 9, 44, 47
5, 425280, Note_on_c, 9, 51, 65
5, 425280, Note_on_c, 9, 37, 70
5, 425336, Note_on_c, 9, 37, 0
5, 425392, Note_on_c, 9, 51, 0
5, 425402, Note_on_c, 9, 36, 0
5, 425520, Note_on_c, 9, 51, 56
5, 425613, Note_on_c, 9, 44, 0
5, 425640, Note_on_c, 9, 51, 0
5, 425760, Note_on_c, 9, 51, 57
5, 425760, Note_on_c, 9, 37, 69
5, 425817, Note_on_c, 9, 37, 0
5, 425907, Note_on_c, 9, 51, 0
5, 426240, Note_on_c, 9, 37, 52
5, 426240, Note_on_c, 9, 44, 44
5, 426240, Note_on_c, 9, 51, 71
5, 426294, Note_on_c, 9, 37, 0
5, 426390, Note_on_c, 9, 51, 0
5, 426480, Note_on_c, 9, 51, 43
5, 426596, Note_on_c, 9, 44, 0
5, 426616, Note_on_c, 9, 51, 0
5, 426720, Note_on_c, 9, 36, 38
5, 426720, Note_on_c, 9, 51, 68
5, 426814, Note_on_c, 9, 51, 0
5, 426874, Note_on_c, 9, 36, 0
5, 427200, Note_on_c, 9, 44, 48
5, 427200, Note_on_c, 9, 51, 80
5, 427200, Note_on_c, 9, 37, 25
5, 427279, Note_on_c, 9, 37, 0
5, 427337, Note_on_c, 9, 51, 0
5, 427529, Note_on_c, 9, 44, 0
5, 427680, Note_on_c, 9, 51, 71
5, 427680, Note_on_c, 9, 37, 62
5, 427781, Note_on_c, 9, 37, 0
5, 427809, Note_on_c, 9, 51, 0
5, 428160, Note_on_c, 9, 51, 73
5, 428160, Note_on_c, 9, 37, 74
5, 428160, Note_on_c, 9, 44, 48
5, 428352, Note_on_c, 9, 51, 0
5, 428397, Note_on_c, 9, 37, 0
5, 428484, Note_on_c, 9, 44, 0
5, 428640, Note_on_c, 9, 51, 63
5, 428640, Note_on_c, 9, 36, 32
5, 428715, Note_on_c, 9, 36, 0
5, 428784, Note_on_c, 9, 51, 0
5, 429120, Note_on_c, 9, 37, 71
5, 429120, Note_on_c, 9, 51, 74
5, 429120, Note_on_c, 9, 44, 47
5, 429263, Note_on_c, 9, 37, 0
5, 429317, Note_on_c, 9, 51, 0
5, 429353, Note_on_c, 9, 44, 0
5, 429600, Note_on_c, 9, 51, 59
5, 429723, Note_on_c, 9, 51, 0
5, 430080, Note_on_c, 9, 36, 37
5, 430080, Note_on_c, 9, 51, 81
5, 430080, Note_on_c, 9, 37, 36
5, 430080, Note_on_c, 9, 44, 47
5, 430080, Note_on_c, 9, 51, 77
5, 430081, Note_on_c, 9, 37, 0
5, 430108, Note_on_c, 9, 51, 0
5, 430151, Note_on_c, 9, 36, 0
5, 430187, Note_on_c, 9, 51, 0
5, 430256, Note_on_c, 9, 44, 0
5, 430560, Note_on_c, 9, 51, 54
5, 430621, Note_on_c, 9, 51, 0
5, 431040, Note_on_c, 9, 44, 47
5, 431040, Note_on_c, 9, 51, 53
5, 431138, Note_on_c, 9, 51, 0
5, 431280, Note_on_c, 9, 51, 36
5, 431367, Note_on_c, 9, 51, 0
5, 431459, Note_on_c, 9, 44, 0
5, 431520, Note_on_c, 9, 51, 31
5, 431592, Note_on_c, 9, 51, 0
5, 432000, Note_on_c, 9, 44, 39
5, 432000, Note_on_c, 9, 51, 69
5, 432138, Note_on_c, 9, 51, 0
5, 432240, Note_on_c, 9, 51, 50
5, 432365, Note_on_c, 9, 51, 0
5, 432368, Note_on_c, 9, 44, 0
5, 432480, Note_on_c, 9, 37, 36
5, 432480, Note_on_c, 9, 51, 60
5, 432534, Note_on_c, 9, 51, 0
5, 432576, Note_on_c, 9, 37, 0
5, 432960, Note_on_c, 9, 44, 44
5, 432960, Note_on_c, 9, 51, 71
5, 433077, Note_on_c, 9, 51, 0
5, 433328, Note_on_c, 9, 44, 0
5, 433440, Note_on_c, 9, 51, 59
5, 433542, Note_on_c, 9, 51, 0
5, 433680, Note_on_c, 9, 51, 69
5, 433784, Note_on_c, 9, 51, 0
5, 433920, Note_on_c, 9, 44, 46
5, 433920, Note_on_c, 9, 51, 64
5, 434053, Note_on_c, 9, 51, 0
5, 434317, Note_on_c, 9, 44, 0
5, 434400, Note_on_c, 9, 37, 27
5, 434400, Note_on_c, 9, 51, 69
5, 434478, Note_on_c, 9, 51, 0
5, 434486, Note_on_c, 9, 37, 0
5, 434880, Note_on_c, 9, 44, 44
5, 434880, Note_on_c, 9, 37, 44
5, 434880, Note_on_c, 9, 51, 59
5, 434960, Note_on_c, 9, 51, 0
5, 435119, Note_on_c, 9, 37, 0
5, 435120, Note_on_c, 9, 51, 45
5, 435261, Note_on_c, 9, 51, 0
5, 435305, Note_on_c, 9, 44, 0
5, 435360, Note_on_c, 9, 51, 62
5, 435360, Note_on_c, 9, 36, 38
5, 435448, Note_on_c, 9, 36, 0
5, 435483, Note_on_c, 9, 51, 0
5, 435840, Note_on_c, 9, 44, 50
5, 435840, Note_on_c, 9, 37, 48
5, 435840, Note_on_c, 9, 51, 67
5, 435958, Note_on_c, 9, 51, 0
5, 436080, Note_on_c, 9, 51, 70
5, 436190, Note_on_c, 9, 51, 0
5, 436240, Note_on_c, 9, 44, 0
5, 436320, Note_on_c, 9, 51, 57
5, 436330, Note_on_c, 9, 37, 0
5, 436427, Note_on_c, 9, 51, 0
5, 436800, Note_on_c, 9, 44, 55
5, 436800, Note_on_c, 9, 51, 64
5, 436913, Note_on_c, 9, 51, 0
5, 437040, Note_on_c, 9, 51, 56
5, 437149, Note_on_c, 9, 51, 0
5, 437174, Note_on_c, 9, 44, 0
5, 437280, Note_on_c, 9, 51, 71
5, 437280, Note_on_c, 9, 37, 85
5, 437360, Note_on_c, 9, 51, 0
5, 437512, Note_on_c, 9, 37, 0
5, 437760, Note_on_c, 9, 44, 52
5, 437760, Note_on_c, 9, 37, 49
5, 437760, Note_on_c, 9, 51, 74
5, 437870, Note_on_c, 9, 51, 0
5, 437895, Note_on_c, 9, 37, 0
5, 438151, Note_on_c, 9, 44, 0
5, 438240, Note_on_c, 9, 36, 29
5, 438240, Note_on_c, 9, 51, 64
5, 438294, Note_on_c, 9, 51, 0
5, 438387, Note_on_c, 9, 36, 0
5, 438720, Note_on_c, 9, 44, 54
5, 438720, Note_on_c, 9, 37, 27
5, 438720, Note_on_c, 9, 51, 77
5, 438798, Note_on_c, 9, 37, 0
5, 438831, Note_on_c, 9, 51, 0
5, 439111, Note_on_c, 9, 44, 0
5, 439200, Note_on_c, 9, 51, 69
5, 439200, Note_on_c, 9, 37, 38
5, 439270, Note_on_c, 9, 37, 0
5, 439303, Note_on_c, 9, 51, 0
5, 439680, Note_on_c, 9, 44, 53
5, 439680, Note_on_c, 9, 51, 72
5, 439757, Note_on_c, 9, 51, 0
5, 440015, Note_on_c, 9, 44, 0
5, 440160, Note_on_c, 9, 51, 86
5, 440160, Note_on_c, 9, 36, 30
5, 440270, Note_on_c, 9, 51, 0
5, 440292, Note_on_c, 9, 36, 0
5, 440640, Note_on_c, 9, 44, 55
5, 440640, Note_on_c, 9, 51, 91
5, 440779, Note_on_c, 9, 51, 0
5, 441009, Note_on_c, 9, 44, 0
5, 441120, Note_on_c, 9, 51, 43
5, 441120, Note_on_c, 9, 36, 19
5, 441286, Note_on_c, 9, 51, 0
5, 441349, Note_on_c, 9, 36, 0
5, 441600, Note_on_c, 9, 44, 54
5, 441600, Note_on_c, 9, 51, 62
5, 441600, Note_on_c, 9, 37, 42
5, 441657, Note_on_c, 9, 37, 0
5, 441728, Note_on_c, 9, 51, 0
5, 441840, Note_on_c, 9, 51, 51
5, 441953, Note_on_c, 9, 51, 0
5, 441961, Note_on_c, 9, 44, 0
5, 442080, Note_on_c, 9, 51, 69
5, 442080, Note_on_c, 9, 37, 80
5, 442211, Note_on_c, 9, 37, 0
5, 442237, Note_on_c, 9, 51, 0
5, 442560, Note_on_c, 9, 44, 46
5, 442560, Note_on_c, 9, 51, 79
5, 442560, Note_on_c, 9, 36, 33
5, 442671, Note_on_c, 9, 36, 0
5, 442706, Note_on_c, 9, 51, 0
5, 442920, Note_on_c, 9, 44, 0
5, 443040, Note_on_c, 9, 51, 80
5, 443040, Note_on_c, 9, 37, 49
5, 443168, Note_on_c, 9, 51, 0
5, 443258, Note_on_c, 9, 37, 0
5, 443520, Note_on_c, 9, 44, 47
5, 443520, Note_on_c, 9, 51, 73
5, 443655, Note_on_c, 9, 51, 0
5, 443760, Note_on_c, 9, 53, 63
5, 443895, Note_on_c, 9, 44, 0
5, 443939, Note_on_c, 9, 53, 0
5, 444000, Note_on_c, 9, 51, 49
5, 444000, Note_on_c, 9, 36, 34
5, 444106, Note_on_c, 9, 36, 0
5, 444200, Note_on_c, 9, 51, 0
5, 444480, Note_on_c, 9, 51, 64
5, 444480, Note_on_c, 9, 44, 48
5, 444480, Note_on_c, 9, 37, 30
5, 444550, Note_on_c, 9, 37, 0
5, 444622, Note_on_c, 9, 51, 0
5, 444720, Note_on_c, 9, 37, 59
5, 444816, Note_on_c, 9, 37, 0
5, 444842, Note_on_c, 9, 44, 0
5, 444960, Note_on_c, 9, 51, 50
5, 444960, Note_on_c, 9, 36, 53
5, 445069, Note_on_c, 9, 51, 0
5, 445163, Note_on_c, 9, 36, 0
5, 445200, Note_on_c, 9, 51, 65
5, 445339, Note_on_c, 9, 51, 0
5, 445440, Note_on_c, 9, 51, 67
5, 445440, Note_on_c, 9, 44, 50
5, 445440, Note_on_c, 9, 36, 28
5, 445567, Note_on_c, 9, 51, 0
5, 445572, Note_on_c, 9, 36, 0
5, 445800, Note_on_c, 9, 44, 0
5, 445920, Note_on_c, 9, 36, 46
5, 445920, Note_on_c, 9, 51, 69
5, 446043, Note_on_c, 9, 51, 0
5, 446091, Note_on_c, 9, 36, 0
5, 446400, Note_on_c, 9, 44, 50
5, 446400, Note_on_c, 9, 37, 31
5, 446400, Note_on_c, 9, 51, 64
5, 446527, Note_on_c, 9, 51, 0
5, 446616, Note_on_c, 9, 37, 0
5, 446640, Note_on_c, 9, 51, 52
5, 446752, Note_on_c, 9, 44, 0
5, 446768, Note_on_c, 9, 51, 0
5, 446880, Note_on_c, 9, 51, 67
5, 446880, Note_on_c, 9, 36, 35
5, 446999, Note_on_c, 9, 51, 0
5, 447018, Note_on_c, 9, 36, 0
5, 447360, Note_on_c, 9, 44, 54
5, 447600, Note_on_c, 9, 51, 59
5, 447714, Note_on_c, 9, 51, 0
5, 447730, Note_on_c, 9, 44, 0
5, 447840, Note_on_c, 9, 36, 34
5, 447840, Note_on_c, 9, 51, 72
5, 447995, Note_on_c, 9, 51, 0
5, 448012, Note_on_c, 9, 36, 0
5, 448320, Note_on_c, 9, 44, 57
5, 448320, Note_on_c, 9, 51, 67
5, 448420, Note_on_c, 9, 51, 0
5, 448560, Note_on_c, 9, 51, 56
5, 448656, Note_on_c, 9, 44, 0
5, 448688, Note_on_c, 9, 51, 0
5, 448800, Note_on_c, 9, 37, 51
5, 448800, Note_on_c, 9, 51, 76
5, 448877, Note_on_c, 9, 37, 0
5, 449003, Note_on_c, 9, 51, 0
5, 449280, Note_on_c, 9, 44, 57
5, 449280, Note_on_c, 9, 51, 69
5, 449280, Note_on_c, 9, 37, 62
5, 449338, Note_on_c, 9, 37, 0
5, 449382, Note_on_c, 9, 51, 0
5, 449651, Note_on_c, 9, 44, 0
5, 449760, Note_on_c, 9, 51, 79
5, 449760, Note_on_c, 9, 37, 59
5, 449821, Note_on_c, 9, 37, 0
5, 449882, Note_on_c, 9, 51, 0
5, 450240, Note_on_c, 9, 36, 40
5, 450240, Note_on_c, 9, 51, 76
5, 450240, Note_on_c, 9, 44, 57
5, 450379, Note_on_c, 9, 36, 0
5, 450397, Note_on_c, 9, 51, 0
5, 450480, Note_on_c, 9, 37, 51
5, 450539, Note_on_c, 9, 37, 0
5, 450623, Note_on_c, 9, 44, 0
5, 450720, Note_on_c, 9, 51, 50
5, 450856, Note_on_c, 9, 51, 0
5, 451200, Note_on_c, 9, 51, 72
5, 451200, Note_on_c, 9, 44, 51
5, 451328, Note_on_c, 9, 51, 0
5, 451568, Note_on_c, 9, 44, 0
5, 451680, Note_on_c, 9, 51, 64
5, 451680, Note_on_c, 9, 37, 49
5, 451737, Note_on_c, 9, 37, 0
5, 451823, Note_on_c, 9, 51, 0
5, 452160, Note_on_c, 9, 44, 53
5, 452160, Note_on_c, 9, 51, 72
5, 452291, Note_on_c, 9, 51, 0
5, 452400, Note_on_c, 9, 37, 62
5, 452525, Note_on_c, 9, 44, 0
5, 452536, Note_on_c, 9, 37, 0
5, 452640, Note_on_c, 9, 59, 82
5, 452640, Note_on_c, 9, 51, 82
5, 452640, Note_on_c, 9, 36, 53
5, 452816, Note_on_c, 9, 59, 0
5, 452817, Note_on_c, 9, 36, 0
5, 452884, Note_on_c, 9, 51, 0
5, 453120, Note_on_c, 9, 44, 56
5, 453120, Note_on_c, 9, 51, 47
5, 453120, Note_on_c, 9, 36, 39
5, 453251, Note_on_c, 9, 51, 0
5, 453268, Note_on_c, 9, 36, 0
5, 453463, Note_on_c, 9, 44, 0
5, 453600, Note_on_c, 9, 36, 43
5, 453600, Note_on_c, 9, 51, 69
5, 453737, Note_on_c, 9, 51, 0
5, 453856, Note_on_c, 9, 36, 0
5, 454080, Note_on_c, 9, 44, 49
5, 454080, Note_on_c, 9, 51, 53
5, 454080, Note_on_c, 9, 37, 60
5, 454155, Note_on_c, 9, 37, 0
5, 454197, Note_on_c, 9, 51, 0
5, 454416, Note_on_c, 9, 44, 0
5, 454560, Note_on_c, 9, 36, 38
5, 454560, Note_on_c, 9, 51, 72
5, 454677, Note_on_c, 9, 51, 0
5, 454755, Note_on_c, 9, 36, 0
5, 455040, Note_on_c, 9, 51, 47
5, 455040, Note_on_c, 9, 44, 52
5, 455040, Note_on_c, 9, 37, 40
5, 455095, Note_on_c, 9, 37, 0
5, 455176, Note_on_c, 9, 51, 0
5, 455280, Note_on_c, 9, 59, 68
5, 455378, Note_on_c, 9, 44, 0
5, 455465, Note_on_c, 9, 59, 0
5, 455520, Note_on_c, 9, 36, 55
5, 455520, Note_on_c, 9, 51, 48
5, 455611, Note_on_c, 9, 51, 0
5, 455709, Note_on_c, 9, 36, 0
5, 456000, Note_on_c, 9, 51, 59
5, 456000, Note_on_c, 9, 44, 58
5, 456129, Note_on_c, 9, 51, 0
5, 456347, Note_on_c, 9, 44, 0
5, 456480, Note_on_c, 9, 51, 51
5, 456480, Note_on_c, 9, 37, 48
5, 456538, Note_on_c, 9, 37, 0
5, 456591, Note_on_c, 9, 51, 0
5, 456960, Note_on_c, 9, 51, 74
5, 456960, Note_on_c, 9, 44, 61
5, 456960, Note_on_c, 9, 37, 56
5, 457034, Note_on_c, 9, 37, 0
5, 457117, Note_on_c, 9, 51, 0
5, 457306, Note_on_c, 9, 44, 0
5, 457440, Note_on_c, 9, 51, 37
5, 457440, Note_on_c, 9, 36, 26
5, 457536, Note_on_c, 9, 51, 0
5, 457590, Note_on_c, 9, 36, 0
5, 457920, Note_on_c, 9, 44, 48
5, 457920, Note_on_c, 9, 51, 72
5, 457920, Note_on_c, 9, 37, 35
5, 458039, Note_on_c, 9, 37, 0
5, 458077, Note_on_c, 9, 51, 0
5, 458262, Note_on_c, 9, 44, 0
5, 458400, Note_on_c, 9, 51, 62
5, 458400, Note_on_c, 9, 36, 31
5, 458498, Note_on_c, 9, 51, 0
5, 458598, Note_on_c, 9, 36, 0
5, 458880, Note_on_c, 9, 44, 55
5, 458880, Note_on_c, 9, 51, 74
5, 458880, Note_on_c, 9, 37, 48
5, 458934, Note_on_c, 9, 37, 0
5, 459013, Note_on_c, 9, 51, 0
5, 459120, Note_on_c, 9, 51, 53
5, 459239, Note_on_c, 9, 44, 0
5, 459275, Note_on_c, 9, 51, 0
5, 459360, Note_on_c, 9, 51, 55
5, 459360, Note_on_c, 9, 37, 48
5, 459414, Note_on_c, 9, 37, 0
5, 459416, Note_on_c, 9, 51, 0
5, 459840, Note_on_c, 9, 44, 51
5, 459840, Note_on_c, 9, 51, 61
5, 459840, Note_on_c, 9, 37, 67
5, 459938, Note_on_c, 9, 37, 0
5, 459958, Note_on_c, 9, 51, 0
5, 460080, Note_on_c, 9, 51, 71
5, 460157, Note_on_c, 9, 44, 0
5, 460218, Note_on_c, 9, 51, 0
5, 460320, Note_on_c, 9, 51, 61
5, 460320, Note_on_c, 9, 36, 32
5, 460427, Note_on_c, 9, 51, 0
5, 460525, Note_on_c, 9, 36, 0
5, 460800, Note_on_c, 9, 44, 53
5, 460800, Note_on_c, 9, 51, 78
5, 460933, Note_on_c, 9, 51, 0
5, 461175, Note_on_c, 9, 44, 0
5, 461280, Note_on_c, 9, 51, 56
5, 461280, Note_on_c, 9, 36, 32
5, 461389, Note_on_c, 9, 36, 0
5, 461392, Note_on_c, 9, 51, 0
5, 461760, Note_on_c, 9, 44, 51
5, 461760, Note_on_c, 9, 51, 67
5, 461760, Note_on_c, 9, 37, 57
5, 461814, Note_on_c, 9, 37, 0
5, 461881, Note_on_c, 9, 51, 0
5, 462119, Note_on_c, 9, 44, 0
5, 462240, Note_on_c, 9, 51, 64
5, 462240, Note_on_c, 9, 36, 33
5, 462338, Note_on_c, 9, 36, 0
5, 462347, Note_on_c, 9, 51, 0
5, 462720, Note_on_c, 9, 44, 56
5, 462720, Note_on_c, 9, 51, 67
5, 462842, Note_on_c, 9, 51, 0
5, 463079, Note_on_c, 9, 44, 0
5, 463200, Note_on_c, 9, 51, 77
5, 463200, Note_on_c, 9, 36, 41
5, 463344, Note_on_c, 9, 51, 0
5, 463374, Note_on_c, 9, 36, 0
5, 463680, Note_on_c, 9, 44, 50
5, 463680, Note_on_c, 9, 51, 69
5, 463821, Note_on_c, 9, 51, 0
5, 464024, Note_on_c, 9, 44, 0
5, 464160, Note_on_c, 9, 51, 61
5, 464160, Note_on_c, 9, 36, 57
5, 464160, Note_on_c, 9, 53, 50
5, 464282, Note_on_c, 9, 36, 0
5, 464325, Note_on_c, 9, 51, 0
5, 464356, Note_on_c, 9, 53, 0
5, 464640, Note_on_c, 9, 44, 52
5, 464640, Note_on_c, 9, 51, 59
5, 464640, Note_on_c, 9, 37, 67
5, 464695, Note_on_c, 9, 37, 0
5, 464790, Note_on_c, 9, 51, 0
5, 464991, Note_on_c, 9, 44, 0
5, 465120, Note_on_c, 9, 37, 70
5, 465120, Note_on_c, 9, 51, 62
5, 465175, Note_on_c, 9, 37, 0
5, 465285, Note_on_c, 9, 51, 0
5, 465600, Note_on_c, 9, 51, 56
5, 465600, Note_on_c, 9, 36, 32
5, 465600, Note_on_c, 9, 44, 55
5, 465747, Note_on_c, 9, 51, 0
5, 465759, Note_on_c, 9, 36, 0
5, 465960, Note_on_c, 9, 44, 0
5, 466080, Note_on_c, 9, 51, 65
5, 466080, Note_on_c, 9, 53, 55
5, 466080, Note_on_c, 9, 37, 29
5, 466134, Note_on_c, 9, 37, 0
5, 466255, Note_on_c, 9, 51, 0
5, 466261, Note_on_c, 9, 53, 0
5, 466560, Note_on_c, 9, 51, 38
5, 466560, Note_on_c, 9, 44, 47
5, 466560, Note_on_c, 9, 37, 50
5, 466614, Note_on_c, 9, 37, 0
5, 466741, Note_on_c, 9, 51, 0
5, 467018, Note_on_c, 9, 44, 0
5, 467040, Note_on_c, 9, 59, 72
5, 467040, Note_on_c, 9, 51, 67
5, 467040, Note_on_c, 9, 36, 24
5, 467134, Note_on_c, 9, 36, 0
5, 467182, Note_on_c, 9, 51, 0
5, 467242, Note_on_c, 9, 59, 0
5, 467520, Note_on_c, 9, 51, 55
5, 467520, Note_on_c, 9, 37, 67
5, 467520, Note_on_c, 9, 44, 54
5, 467520, Note_on_c, 9, 38, 44
5, 467579, Note_on_c, 9, 38, 0
5, 467612, Note_on_c, 9, 37, 0
5, 467676, Note_on_c, 9, 51, 0
5, 467817, Note_on_c, 9, 44, 0
5, 468000, Note_on_c, 9, 37, 49
5, 468000, Note_on_c, 9, 38, 52
5, 468000, Note_on_c, 9, 52, 66
5, 468060, Note_on_c, 9, 38, 0
5, 468111, Note_on_c, 9, 37, 0
5, 468152, Note_on_c, 9, 52, 0
5, 468480, Note_on_c, 9, 51, 61
5, 468480, Note_on_c, 9, 36, 33
5, 468480, Note_on_c, 9, 44, 51
5, 468685, Note_on_c, 9, 36, 0
5, 468685, Note_on_c, 9, 51, 0
5, 468867, Note_on_c, 9, 44, 0
5, 468960, Note_on_c, 9, 51, 62
5, 468960, Note_on_c, 9, 36, 33
5, 469079, Note_on_c, 9, 36, 0
5, 469131, Note_on_c, 9, 51, 0
5, 469440, Note_on_c, 9, 51, 51
5, 469440, Note_on_c, 9, 37, 62
5, 469440, Note_on_c, 9, 44, 49
5, 469507, Note_on_c, 9, 51, 0
5, 469533, Note_on_c, 9, 37, 0
5, 469770, Note_on_c, 9, 44, 0
5, 469920, Note_on_c, 9, 36, 30
5, 469920, Note_on_c, 9, 51, 77
5, 470050, Note_on_c, 9, 36, 0
5, 470056, Note_on_c, 9, 51, 0
5, 470400, Note_on_c, 9, 51, 42
5, 470400, Note_on_c, 9, 37, 42
5, 470400, Note_on_c, 9, 44, 48
5, 470457, Note_on_c, 9, 37, 0
5, 470521, Note_on_c, 9, 51, 0
5, 470640, Note_on_c, 9, 51, 33
5, 470750, Note_on_c, 9, 51, 0
5, 470778, Note_on_c, 9, 44, 0
5, 470880, Note_on_c, 9, 51, 57
5, 470880, Note_on_c, 9, 37, 75
5, 470997, Note_on_c, 9, 51, 0
5, 471142, Note_on_c, 9, 37, 0
5, 471360, Note_on_c, 9, 36, 24
5, 471360, Note_on_c, 9, 51, 71
5, 471360, Note_on_c, 9, 44, 49
5, 471360, Note_on_c, 9, 44, 45
5, 471458, Note_on_c, 9, 36, 0
5, 471470, Note_on_c, 9, 51, 0
5, 471600, Note_on_c, 9, 51, 65
5, 471651, Note_on_c, 9, 44, 0
5, 471653, Note_on_c, 9, 44, 0
5, 471752, Note_on_c, 9, 51, 0
5, 471840, Note_on_c, 9, 36, 37
5, 471840, Note_on_c, 9, 51, 49
5, 471909, Note_on_c, 9, 51, 0
5, 471976, Note_on_c, 9, 36, 0
5, 472320, Note_on_c, 9, 44, 57
5, 472320, Note_on_c, 9, 51, 70
5, 472443, Note_on_c, 9, 51, 0
5, 472800, Note_on_c, 9, 51, 51
5, 472800, Note_on_c, 9, 36, 29
5, 472837, Note_on_c, 9, 44, 0
5, 472914, Note_on_c, 9, 51, 0
5, 472969, Note_on_c, 9, 36, 0
5, 473280, Note_on_c, 9, 51, 67
5, 473280, Note_on_c, 9, 44, 51
5, 473405, Note_on_c, 9, 51, 0
5, 473520, Note_on_c, 9, 37, 54
5, 473649, Note_on_c, 9, 37, 0
5, 473665, Note_on_c, 9, 44, 0
5, 473760, Note_on_c, 9, 37, 59
5, 473760, Note_on_c, 9, 51, 57
5, 473847, Note_on_c, 9, 37, 0
5, 473882, Note_on_c, 9, 51, 0
5, 474240, Note_on_c, 9, 36, 46
5, 474240, Note_on_c, 9, 51, 60
5, 474240, Note_on_c, 9, 44, 56
5, 474362, Note_on_c, 9, 51, 0
5, 474371, Note_on_c, 9, 36, 0
5, 474480, Note_on_c, 9, 51, 61
5, 474606, Note_on_c, 9, 51, 0
5, 474619, Note_on_c, 9, 44, 0
5, 474720, Note_on_c, 9, 51, 55
5, 474720, Note_on_c, 9, 36, 45
5, 474828, Note_on_c, 9, 51, 0
5, 474865, Note_on_c, 9, 36, 0
5, 475200, Note_on_c, 9, 44, 57
5, 475200, Note_on_c, 9, 51, 57
5, 475200, Note_on_c, 9, 37, 57
5, 475254, Note_on_c, 9, 37, 0
5, 475323, Note_on_c, 9, 51, 0
5, 475440, Note_on_c, 9, 51, 55
5, 475559, Note_on_c, 9, 44, 0
5, 475565, Note_on_c, 9, 51, 0
5, 475680, Note_on_c, 9, 36, 47
5, 475680, Note_on_c, 9, 51, 52
5, 475752, Note_on_c, 9, 51, 0
5, 475839, Note_on_c, 9, 36, 0
5, 476160, Note_on_c, 9, 36, 41
5, 476160, Note_on_c, 9, 44, 51
5, 476160, Note_on_c, 9, 51, 71
5, 476316, Note_on_c, 9, 51, 0
5, 476322, Note_on_c, 9, 36, 0
5, 476400, Note_on_c, 9, 51, 57
5, 476515, Note_on_c, 9, 51, 0
5, 476536, Note_on_c, 9, 44, 0
5, 476640, Note_on_c, 9, 51, 52
5, 476640, Note_on_c, 9, 37, 44
5, 476715, Note_on_c, 9, 37, 0
5, 476758, Note_on_c, 9, 51, 0
5, 477120, Note_on_c, 9, 44, 50
5, 477120, Note_on_c, 9, 51, 71
5, 477232, Note_on_c, 9, 51, 0
5, 477493, Note_on_c, 9, 44, 0
5, 477600, Note_on_c, 9, 36, 35
5, 477600, Note_on_c, 9, 51, 48
5, 477672, Note_on_c, 9, 51, 0
5, 477677, Note_on_c, 9, 36, 0
5, 477840, Note_on_c, 9, 51, 45
5, 477968, Note_on_c, 9, 51, 0
5, 478080, Note_on_c, 9, 51, 71
5, 478080, Note_on_c, 9, 44, 53
5, 478080, Note_on_c, 9, 37, 53
5, 478134, Note_on_c, 9, 37, 0
5, 478190, Note_on_c, 9, 51, 0
5, 478434, Note_on_c, 9, 44, 0
5, 478560, Note_on_c, 9, 51, 69
5, 478560, Note_on_c, 9, 36, 39
5, 478638, Note_on_c, 9, 36, 0
5, 478666, Note_on_c, 9, 51, 0
5, 479040, Note_on_c, 9, 44, 47
5, 479040, Note_on_c, 9, 37, 37
5, 479040, Note_on_c, 9, 51, 57
5, 479094, Note_on_c, 9, 37, 0
5, 479135, Note_on_c, 9, 51, 0
5, 479280, Note_on_c, 9, 51, 56
5, 479369, Note_on_c, 9, 44, 0
5, 479403, Note_on_c, 9, 51, 0
5, 479520, Note_on_c, 9, 51, 62
5, 479520, Note_on_c, 9, 37, 79
5, 479625, Note_on_c, 9, 37, 0
5, 479657, Note_on_c, 9, 51, 0
5, 480000, Note_on_c, 9, 37, 82
5, 480000, Note_on_c, 9, 44, 43
5, 480000, Note_on_c, 9, 51, 67
5, 480122, Note_on_c, 9, 37, 0
5, 480128, Note_on_c, 9, 51, 0
5, 480240, Note_on_c, 9, 51, 29
5, 480368, Note_on_c, 9, 44, 0
5, 480376, Note_on_c, 9, 51, 0
5, 480480, Note_on_c, 9, 36, 28
5, 480576, Note_on_c, 9, 36, 0
5, 480960, Note_on_c, 9, 37, 35
5, 480960, Note_on_c, 9, 51, 74
5, 480960, Note_on_c, 9, 44, 48
5, 481047, Note_on_c, 9, 37, 0
5, 481069, Note_on_c, 9, 51, 0
5, 481302, Note_on_c, 9, 44, 0
5, 481440, Note_on_c, 9, 37, 39
5, 481440, Note_on_c, 9, 51, 58
5, 481495, Note_on_c, 9, 37, 0
5, 481504, Note_on_c, 9, 51, 0
5, 481920, Note_on_c, 9, 37, 48
5, 481920, Note_on_c, 9, 51, 55
5, 481920, Note_on_c, 9, 44, 55
5, 481974, Note_on_c, 9, 51, 0
5, 481992, Note_on_c, 9, 37, 0
5, 482160, Note_on_c, 9, 37, 49
5, 482232, Note_on_c, 9, 37, 0
5, 482292, Note_on_c, 9, 44, 0
5, 482400, Note_on_c, 9, 36, 52
5, 482400, Note_on_c, 9, 51, 55
5, 482469, Note_on_c, 9, 51, 0
5, 482474, Note_on_c, 9, 36, 0
5, 482880, Note_on_c, 9, 44, 53
5, 482880, Note_on_c, 9, 51, 69
5, 483011, Note_on_c, 9, 51, 0
5, 483120, Note_on_c, 9, 51, 59
5, 483188, Note_on_c, 9, 44, 0
5, 483231, Note_on_c, 9, 51, 0
5, 483360, Note_on_c, 9, 51, 56
5, 483360, Note_on_c, 9, 37, 61
5, 483419, Note_on_c, 9, 37, 0
5, 483430, Note_on_c, 9, 51, 0
5, 483600, Note_on_c, 9, 37, 55
5, 483672, Note_on_c, 9, 37, 0
5, 483840, Note_on_c, 9, 44, 56
5, 483840, Note_on_c, 9, 51, 70
5, 483840, Note_on_c, 9, 36, 41
5, 483954, Note_on_c, 9, 36, 0
5, 483970, Note_on_c, 9, 51, 0
5, 484080, Note_on_c, 9, 51, 56
5, 484203, Note_on_c, 9, 51, 0
5, 484233, Note_on_c, 9, 44, 0
5, 484320, Note_on_c, 9, 51, 49
5, 484320, Note_on_c, 9, 36, 22
5, 484409, Note_on_c, 9, 36, 0
5, 484414, Note_on_c, 9, 51, 0
5, 484800, Note_on_c, 9, 44, 43
5, 484800, Note_on_c, 9, 37, 59
5, 484800, Note_on_c, 9, 51, 67
5, 484930, Note_on_c, 9, 51, 0
5, 484946, Note_on_c, 9, 37, 0
5, 485040, Note_on_c, 9, 37, 63
5, 485131, Note_on_c, 9, 44, 0
5, 485139, Note_on_c, 9, 37, 0
5, 485280, Note_on_c, 9, 51, 58
5, 485280, Note_on_c, 9, 36, 36
5, 485387, Note_on_c, 9, 51, 0
5, 485424, Note_on_c, 9, 36, 0
5, 485520, Note_on_c, 9, 51, 62
5, 485648, Note_on_c, 9, 51, 0
5, 485760, Note_on_c, 9, 51, 57
5, 485760, Note_on_c, 9, 44, 45
5, 485760, Note_on_c, 9, 36, 34
5, 485870, Note_on_c, 9, 51, 0
5, 485906, Note_on_c, 9, 36, 0
5, 486096, Note_on_c, 9, 44, 0
5, 486240, Note_on_c, 9, 51, 72
5, 486240, Note_on_c, 9, 36, 46
5, 486342, Note_on_c, 9, 51, 0
5, 486372, Note_on_c, 9, 36, 0
5, 486720, Note_on_c, 9, 51, 74
5, 486720, Note_on_c, 9, 44, 51
5, 486720, Note_on_c, 9, 37, 60
5, 486774, Note_on_c, 9, 37, 0
5, 486873, Note_on_c, 9, 51, 0
5, 486960, Note_on_c, 9, 51, 67
5, 487078, Note_on_c, 9, 51, 0
5, 487096, Note_on_c, 9, 44, 0
5, 487200, Note_on_c, 9, 36, 34
5, 487200, Note_on_c, 9, 51, 59
5, 487295, Note_on_c, 9, 51, 0
5, 487369, Note_on_c, 9, 36, 0
5, 487680, Note_on_c, 9, 37, 54
5, 487680, Note_on_c, 9, 44, 38
5, 487680, Note_on_c, 9, 51, 67
5, 487734, Note_on_c, 9, 37, 0
5, 487742, Note_on_c, 9, 51, 0
5, 488027, Note_on_c, 9, 44, 0
5, 488160, Note_on_c, 9, 37, 56
5, 488160, Note_on_c, 9, 51, 64
5, 488214, Note_on_c, 9, 37, 0
5, 488255, Note_on_c, 9, 51, 0
5, 488400, Note_on_c, 9, 51, 64
5, 488517, Note_on_c, 9, 51, 0
5, 488640, Note_on_c, 9, 36, 31
5, 488640, Note_on_c, 9, 44, 36
5, 488640, Note_on_c, 9, 51, 58
5, 488706, Note_on_c, 9, 36, 0
5, 488764, Note_on_c, 9, 51, 0
5, 488970, Note_on_c, 9, 44, 0
5, 489120, Note_on_c, 9, 36, 58
5, 489120, Note_on_c, 9, 51, 69
5, 489211, Note_on_c, 9, 51, 0
5, 489268, Note_on_c, 9, 36, 0
5, 489600, Note_on_c, 9, 44, 50
5, 489600, Note_on_c, 9, 51, 69
5, 489781, Note_on_c, 9, 51, 0
5, 489840, Note_on_c, 9, 51, 36
5, 489903, Note_on_c, 9, 51, 0
5, 489956, Note_on_c, 9, 44, 0
5, 490080, Note_on_c, 9, 36, 44
5, 490145, Note_on_c, 9, 36, 0
5, 490560, Note_on_c, 9, 51, 76
5, 490560, Note_on_c, 9, 44, 51
5, 490560, Note_on_c, 9, 44, 47
5, 490560, Note_on_c, 9, 37, 54
5, 490672, Note_on_c, 9, 51, 0
5, 490675, Note_on_c, 9, 37, 0
5, 490800, Note_on_c, 9, 37, 61
5, 490854, Note_on_c, 9, 37, 0
5, 490856, Note_on_c, 9, 44, 0
5, 490872, Note_on_c, 9, 44, 0
5, 491040, Note_on_c, 9, 51, 56
5, 491040, Note_on_c, 9, 36, 64
5, 491099, Note_on_c, 9, 51, 0
5, 491190, Note_on_c, 9, 36, 0
5, 491565, Note_on_c, 9, 57, 56
5, 494683, Note_on_c, 9, 57, 0
5, 494683, End_track
0, 0, End_of_file
