0, 0, Header, 1, 2, 960
1, 0, Start_track
1, 0, Title_t, "Remember (You Forgot To)"
1, 0, Text_t, "Irving Berlin"
1, 0, Text_t, "dougmck@pipeline.com.au\012"
1, 0, Time_signature, 4, 2, 24, 8
1, 0, Key_signature, -1, "major"
1, 0, Tempo, 600000
1, 69824, Marker_t, "Deliberate dissonance"
1, 136166, Marker_t, "LH plays C# (white), RH plays CFC (Black)"
1, 268312, Marker_t, "Glissando -nails of  little finger and index set a fourth apart and run  up the k'board."
1, 268312, End_track
2, 0, Start_track
2, 1600, Note_on_c, 0, 48, 61
2, 1600, Note_on_c, 0, 72, 69
2, 2416, Note_on_c, 0, 73, 65
2, 2432, Note_on_c, 0, 49, 64
2, 2488, Note_on_c, 0, 48, 0
2, 2496, Note_on_c, 0, 72, 0
2, 3208, Note_on_c, 0, 49, 0
2, 3224, Note_on_c, 0, 73, 0
2, 3256, Note_on_c, 0, 74, 72
2, 3280, Note_on_c, 0, 50, 66
2, 4152, Control_c, 0, 64, 127
2, 4600, Note_on_c, 0, 50, 0
2, 5504, Note_on_c, 0, 74, 0
2, 6192, Note_on_c, 0, 77, 83
2, 6208, Note_on_c, 0, 53, 71
2, 7088, Note_on_c, 0, 53, 0
2, 7120, Note_on_c, 0, 74, 78
2, 7128, Note_on_c, 0, 50, 54
2, 7224, Note_on_c, 0, 77, 0
2, 7296, Note_on_c, 0, 50, 0
2, 7536, Note_on_c, 0, 74, 0
2, 8224, Note_on_c, 0, 73, 35
2, 8232, Note_on_c, 0, 81, 62
2, 8232, Note_on_c, 0, 39, 53
2, 8232, Note_on_c, 0, 27, 55
2, 8240, Note_on_c, 0, 77, 56
2, 8248, Control_c, 0, 64, 0
2, 8248, Note_on_c, 0, 67, 46
2, 8648, Control_c, 0, 64, 127
2, 8728, Note_on_c, 0, 27, 0
2, 8824, Note_on_c, 0, 39, 0
2, 10888, Note_on_c, 0, 67, 0
2, 10960, Note_on_c, 0, 73, 0
2, 11128, Note_on_c, 0, 77, 0
2, 11352, Note_on_c, 0, 61, 21
2, 11376, Note_on_c, 0, 73, 20
2, 11376, Note_on_c, 0, 67, 35
2, 11400, Note_on_c, 0, 65, 22
2, 11432, Note_on_c, 0, 55, 24
2, 11616, Note_on_c, 0, 60, 1
2, 13424, Note_on_c, 0, 81, 0
2, 14184, Note_on_c, 0, 65, 0
2, 14208, Note_on_c, 0, 67, 0
2, 14304, Note_on_c, 0, 61, 0
2, 14336, Note_on_c, 0, 60, 0
2, 14344, Note_on_c, 0, 73, 0
2, 14400, Note_on_c, 0, 55, 0
2, 14584, Note_on_c, 0, 79, 84
2, 14872, Note_on_c, 0, 79, 0
2, 15088, Note_on_c, 0, 77, 81
2, 15112, Note_on_c, 0, 50, 60
2, 15224, Control_c, 0, 64, 0
2, 15624, Control_c, 0, 64, 127
2, 15672, Note_on_c, 0, 57, 36
2, 15800, Note_on_c, 0, 50, 0
2, 16136, Note_on_c, 0, 57, 0
2, 16328, Note_on_c, 0, 65, 32
2, 16344, Note_on_c, 0, 69, 42
2, 16360, Note_on_c, 0, 64, 31
2, 17168, Note_on_c, 0, 64, 0
2, 17216, Note_on_c, 0, 62, 37
2, 17256, Note_on_c, 0, 65, 0
2, 17360, Note_on_c, 0, 69, 0
2, 18088, Note_on_c, 0, 65, 24
2, 18096, Note_on_c, 0, 69, 38
2, 18312, Note_on_c, 0, 77, 0
2, 18904, Note_on_c, 0, 62, 0
2, 19024, Note_on_c, 0, 74, 49
2, 19056, Note_on_c, 0, 65, 0
2, 19104, Note_on_c, 0, 69, 0
2, 19248, Note_on_c, 0, 74, 0
2, 20288, Note_on_c, 0, 81, 49
2, 20296, Control_c, 0, 64, 0
2, 20312, Note_on_c, 0, 71, 32
2, 20320, Note_on_c, 0, 31, 36
2, 20328, Note_on_c, 0, 73, 26
2, 20344, Note_on_c, 0, 43, 22
2, 20584, Control_c, 0, 64, 127
2, 20672, Note_on_c, 0, 31, 0
2, 20784, Note_on_c, 0, 43, 0
2, 20896, Note_on_c, 0, 81, 0
2, 21040, Note_on_c, 0, 73, 0
2, 21072, Note_on_c, 0, 71, 0
2, 21568, Note_on_c, 0, 59, 35
2, 22544, Note_on_c, 0, 71, 43
2, 22544, Note_on_c, 0, 73, 27
2, 22576, Note_on_c, 0, 65, 26
2, 23328, Note_on_c, 0, 59, 0
2, 24552, Note_on_c, 0, 73, 0
2, 24712, Note_on_c, 0, 71, 0
2, 24976, Note_on_c, 0, 65, 0
2, 25048, Note_on_c, 0, 77, 92
2, 26448, Note_on_c, 0, 76, 32
2, 26616, Note_on_c, 0, 77, 0
2, 26616, Note_on_c, 0, 75, 44
2, 26632, Note_on_c, 0, 76, 0
2, 26832, Note_on_c, 0, 74, 60
2, 26840, Note_on_c, 0, 75, 0
2, 26880, Note_on_c, 0, 48, 35
2, 26888, Control_c, 0, 64, 0
2, 27208, Control_c, 0, 64, 127
2, 27416, Note_on_c, 0, 74, 0
2, 28360, Note_on_c, 0, 62, 33
2, 28376, Note_on_c, 0, 65, 33
2, 28416, Note_on_c, 0, 58, 23
2, 30312, Note_on_c, 0, 58, 0
2, 30440, Note_on_c, 0, 48, 0
2, 30872, Note_on_c, 0, 62, 0
2, 30896, Note_on_c, 0, 65, 0
2, 30968, Note_on_c, 0, 48, 51
2, 31968, Note_on_c, 0, 73, 59
2, 32016, Note_on_c, 0, 68, 55
2, 32024, Note_on_c, 0, 48, 0
2, 32032, Note_on_c, 0, 65, 68
2, 32080, Note_on_c, 0, 60, 58
2, 32104, Note_on_c, 0, 61, 36
2, 32152, Control_c, 0, 64, 0
2, 32584, Control_c, 0, 64, 127
2, 35328, Note_on_c, 0, 73, 0
2, 35520, Note_on_c, 0, 60, 0
2, 35744, Note_on_c, 0, 61, 0
2, 35776, Note_on_c, 0, 68, 0
2, 35784, Note_on_c, 0, 65, 0
2, 35824, Note_on_c, 0, 72, 39
2, 36088, Note_on_c, 0, 72, 0
2, 37696, Note_on_c, 0, 81, 52
2, 37744, Note_on_c, 0, 41, 46
2, 37744, Note_on_c, 0, 72, 58
2, 37752, Control_c, 0, 64, 0
2, 37960, Control_c, 0, 64, 127
2, 38040, Note_on_c, 0, 72, 0
2, 38056, Note_on_c, 0, 81, 0
2, 38528, Note_on_c, 0, 48, 47
2, 38592, Note_on_c, 0, 84, 79
2, 38632, Note_on_c, 0, 41, 0
2, 38688, Note_on_c, 0, 48, 0
2, 39288, Note_on_c, 0, 84, 0
2, 39400, Note_on_c, 0, 60, 46
2, 40280, Note_on_c, 0, 65, 45
2, 41368, Note_on_c, 0, 69, 46
2, 41824, Note_on_c, 0, 65, 0
2, 42072, Note_on_c, 0, 77, 65
2, 42208, Note_on_c, 0, 69, 0
2, 42616, Note_on_c, 0, 60, 0
2, 42632, Note_on_c, 0, 77, 0
2, 42688, Note_on_c, 0, 63, 38
2, 42696, Note_on_c, 0, 75, 63
2, 42704, Note_on_c, 0, 53, 31
2, 42728, Note_on_c, 0, 67, 59
2, 42760, Note_on_c, 0, 58, 31
2, 42808, Control_c, 0, 64, 0
2, 43256, Control_c, 0, 64, 127
2, 43528, Note_on_c, 0, 60, 48
2, 43536, Note_on_c, 0, 63, 0
2, 43904, Note_on_c, 0, 67, 0
2, 44424, Note_on_c, 0, 70, 37
2, 44432, Note_on_c, 0, 75, 0
2, 44432, Note_on_c, 0, 67, 43
2, 44432, Note_on_c, 0, 63, 43
2, 44648, Note_on_c, 0, 60, 0
2, 44664, Note_on_c, 0, 53, 0
2, 44696, Note_on_c, 0, 63, 0
2, 44712, Note_on_c, 0, 58, 0
2, 44888, Note_on_c, 0, 70, 0
2, 45552, Note_on_c, 0, 67, 0
2, 45568, Note_on_c, 0, 74, 49
2, 46384, Note_on_c, 0, 62, 36
2, 46400, Note_on_c, 0, 66, 36
2, 46408, Note_on_c, 0, 51, 34
2, 46424, Note_on_c, 0, 57, 25
2, 47080, Note_on_c, 0, 62, 0
2, 47176, Note_on_c, 0, 66, 0
2, 47272, Note_on_c, 0, 57, 0
2, 47272, Note_on_c, 0, 51, 0
2, 47296, Note_on_c, 0, 65, 44
2, 47312, Note_on_c, 0, 62, 27
2, 47320, Control_c, 0, 64, 0
2, 47328, Note_on_c, 0, 53, 34
2, 47336, Note_on_c, 0, 46, 30
2, 47624, Control_c, 0, 64, 127
2, 47760, Note_on_c, 0, 53, 0
2, 47768, Note_on_c, 0, 46, 0
2, 47792, Note_on_c, 0, 62, 0
2, 47976, Note_on_c, 0, 65, 0
2, 48136, Note_on_c, 0, 74, 0
2, 48440, Note_on_c, 0, 65, 47
2, 48456, Note_on_c, 0, 62, 41
2, 48496, Note_on_c, 0, 60, 41
2, 49016, Note_on_c, 0, 72, 50
2, 49096, Note_on_c, 0, 73, 43
2, 49176, Note_on_c, 0, 74, 75
2, 49192, Note_on_c, 0, 73, 0
2, 49248, Note_on_c, 0, 72, 0
2, 49448, Note_on_c, 0, 74, 0
2, 49696, Note_on_c, 0, 77, 94
2, 49960, Note_on_c, 0, 77, 0
2, 50256, Note_on_c, 0, 77, 84
2, 50320, Note_on_c, 0, 65, 0
2, 50352, Note_on_c, 0, 62, 0
2, 50392, Note_on_c, 0, 60, 0
2, 50640, Note_on_c, 0, 74, 62
2, 50728, Note_on_c, 0, 77, 0
2, 50760, Note_on_c, 0, 74, 0
2, 51208, Note_on_c, 0, 73, 34
2, 51216, Note_on_c, 0, 81, 47
2, 51232, Note_on_c, 0, 27, 46
2, 51232, Note_on_c, 0, 67, 38
2, 51248, Note_on_c, 0, 77, 44
2, 51248, Note_on_c, 0, 39, 35
2, 51256, Note_on_c, 0, 79, 44
2, 51288, Control_c, 0, 64, 0
2, 51328, Note_on_c, 0, 79, 0
2, 51488, Note_on_c, 0, 27, 0
2, 51568, Note_on_c, 0, 39, 0
2, 51576, Control_c, 0, 64, 127
2, 51944, Note_on_c, 0, 67, 0
2, 52072, Note_on_c, 0, 73, 0
2, 52136, Note_on_c, 0, 77, 0
2, 52208, Note_on_c, 0, 81, 0
2, 52328, Note_on_c, 0, 55, 19
2, 53104, Note_on_c, 0, 60, 28
2, 53104, Note_on_c, 0, 93, 59
2, 53120, Note_on_c, 0, 85, 30
2, 53120, Note_on_c, 0, 61, 28
2, 53136, Note_on_c, 0, 89, 33
2, 53136, Note_on_c, 0, 81, 29
2, 53152, Note_on_c, 0, 65, 35
2, 54096, Note_on_c, 0, 93, 0
2, 54136, Note_on_c, 0, 89, 0
2, 54240, Note_on_c, 0, 85, 0
2, 54400, Note_on_c, 0, 81, 0
2, 54952, Note_on_c, 0, 65, 0
2, 55056, Note_on_c, 0, 60, 0
2, 55096, Note_on_c, 0, 61, 0
2, 55184, Note_on_c, 0, 55, 0
2, 56440, Note_on_c, 0, 79, 68
2, 56664, Note_on_c, 0, 79, 0
2, 56832, Note_on_c, 0, 50, 48
2, 56840, Note_on_c, 0, 77, 59
2, 56984, Control_c, 0, 64, 0
2, 57240, Control_c, 0, 64, 127
2, 57632, Note_on_c, 0, 50, 0
2, 57936, Note_on_c, 0, 65, 44
2, 57944, Note_on_c, 0, 69, 48
2, 57968, Note_on_c, 0, 64, 41
2, 58424, Note_on_c, 0, 64, 0
2, 58440, Note_on_c, 0, 65, 0
2, 58448, Note_on_c, 0, 69, 0
2, 59080, Note_on_c, 0, 65, 24
2, 59080, Note_on_c, 0, 69, 35
2, 59096, Note_on_c, 0, 62, 43
2, 59616, Note_on_c, 0, 65, 0
2, 59648, Note_on_c, 0, 69, 0
2, 59904, Note_on_c, 0, 62, 0
2, 60000, Note_on_c, 0, 77, 0
2, 60080, Note_on_c, 0, 74, 61
2, 60232, Note_on_c, 0, 74, 0
2, 60264, Note_on_c, 0, 76, 52
2, 60400, Note_on_c, 0, 76, 0
2, 60512, Note_on_c, 0, 76, 33
2, 60656, Note_on_c, 0, 74, 41
2, 60680, Note_on_c, 0, 76, 0
2, 60800, Note_on_c, 0, 74, 0
2, 60840, Note_on_c, 0, 73, 25
2, 60936, Note_on_c, 0, 73, 0
2, 61056, Note_on_c, 0, 74, 53
2, 61272, Note_on_c, 0, 75, 68
2, 61288, Note_on_c, 0, 74, 0
2, 61392, Note_on_c, 0, 75, 0
2, 61448, Note_on_c, 0, 76, 34
2, 61584, Note_on_c, 0, 77, 32
2, 61592, Note_on_c, 0, 76, 0
2, 61688, Note_on_c, 0, 78, 39
2, 61768, Note_on_c, 0, 77, 0
2, 61808, Note_on_c, 0, 78, 0
2, 61840, Note_on_c, 0, 79, 33
2, 62032, Note_on_c, 0, 80, 54
2, 62064, Note_on_c, 0, 79, 0
2, 62128, Control_c, 0, 64, 0
2, 62168, Note_on_c, 0, 80, 0
2, 62208, Note_on_c, 0, 59, 34
2, 62208, Note_on_c, 0, 53, 33
2, 62216, Note_on_c, 0, 81, 39
2, 62224, Note_on_c, 0, 64, 27
2, 62432, Control_c, 0, 64, 127
2, 62656, Note_on_c, 0, 64, 0
2, 62680, Note_on_c, 0, 59, 0
2, 62712, Note_on_c, 0, 81, 0
2, 62760, Note_on_c, 0, 53, 0
2, 63896, Note_on_c, 0, 60, 31
2, 63904, Note_on_c, 0, 53, 24
2, 63920, Note_on_c, 0, 43, 30
2, 63920, Note_on_c, 0, 57, 31
2, 65000, Note_on_c, 0, 60, 0
2, 65040, Note_on_c, 0, 57, 0
2, 65096, Note_on_c, 0, 53, 0
2, 65104, Note_on_c, 0, 43, 0
2, 65808, Note_on_c, 0, 61, 33
2, 65816, Note_on_c, 0, 43, 35
2, 65856, Note_on_c, 0, 57, 26
2, 65864, Note_on_c, 0, 53, 24
2, 66848, Note_on_c, 0, 57, 0
2, 66960, Note_on_c, 0, 61, 0
2, 67168, Note_on_c, 0, 65, 76
2, 67256, Note_on_c, 0, 53, 0
2, 67440, Note_on_c, 0, 43, 0
2, 67648, Note_on_c, 0, 65, 0
2, 68112, Note_on_c, 0, 62, 60
2, 68128, Note_on_c, 0, 48, 42
2, 68136, Note_on_c, 0, 58, 39
2, 68144, Note_on_c, 0, 36, 34
2, 68144, Note_on_c, 0, 53, 31
2, 68176, Control_c, 0, 64, 0
2, 68432, Control_c, 0, 64, 127
2, 68672, Note_on_c, 0, 53, 0
2, 68696, Note_on_c, 0, 36, 0
2, 68768, Note_on_c, 0, 62, 0
2, 68784, Note_on_c, 0, 58, 0
2, 68824, Note_on_c, 0, 48, 0
2, 70016, Note_on_c, 0, 74, 58
2, 70064, Note_on_c, 0, 62, 64
2, 70104, Note_on_c, 0, 60, 34
2, 70760, Note_on_c, 0, 60, 0
2, 70944, Note_on_c, 0, 60, 71
2, 71520, Note_on_c, 0, 62, 0
2, 71672, Note_on_c, 0, 60, 0
2, 71744, Note_on_c, 0, 74, 0
2, 71864, Note_on_c, 0, 74, 59
2, 71888, Note_on_c, 0, 62, 48
2, 71920, Note_on_c, 0, 60, 46
2, 72544, Note_on_c, 0, 60, 0
2, 72600, Note_on_c, 0, 74, 0
2, 72768, Note_on_c, 0, 60, 46
2, 72888, Note_on_c, 0, 62, 0
2, 73336, Note_on_c, 0, 60, 0
2, 73568, Note_on_c, 0, 48, 40
2, 73576, Note_on_c, 0, 73, 46
2, 73664, Note_on_c, 0, 61, 64
2, 73672, Note_on_c, 0, 60, 35
2, 73712, Control_c, 0, 64, 0
2, 74032, Control_c, 0, 64, 127
2, 74344, Note_on_c, 0, 60, 0
2, 74704, Note_on_c, 0, 60, 35
2, 75080, Note_on_c, 0, 61, 0
2, 75216, Note_on_c, 0, 60, 0
2, 75672, Note_on_c, 0, 61, 33
2, 75760, Note_on_c, 0, 60, 28
2, 76224, Note_on_c, 0, 60, 0
2, 76760, Note_on_c, 0, 60, 29
2, 77096, Note_on_c, 0, 61, 0
2, 77848, Note_on_c, 0, 73, 0
2, 78256, Note_on_c, 0, 60, 0
2, 78440, Note_on_c, 0, 48, 0
2, 78648, Note_on_c, 0, 72, 60
2, 78904, Note_on_c, 0, 72, 0
2, 79456, Note_on_c, 0, 77, 30
2, 79560, Note_on_c, 0, 79, 47
2, 79696, Note_on_c, 0, 77, 0
2, 79704, Note_on_c, 0, 80, 55
2, 79736, Note_on_c, 0, 41, 31
2, 79792, Note_on_c, 0, 48, 40
2, 79824, Note_on_c, 0, 80, 0
2, 79824, Note_on_c, 0, 81, 62
2, 79840, Note_on_c, 0, 57, 50
2, 79872, Control_c, 0, 64, 0
2, 79968, Note_on_c, 0, 79, 0
2, 80024, Note_on_c, 0, 81, 0
2, 80160, Note_on_c, 0, 81, 7
2, 80224, Control_c, 0, 64, 127
2, 80336, Note_on_c, 0, 81, 0
2, 80408, Note_on_c, 0, 84, 81
2, 80432, Note_on_c, 0, 41, 0
2, 80464, Note_on_c, 0, 48, 0
2, 80592, Note_on_c, 0, 57, 0
2, 80960, Note_on_c, 0, 84, 0
2, 81120, Note_on_c, 0, 84, 72
2, 81480, Note_on_c, 0, 84, 0
2, 81784, Note_on_c, 0, 84, 52
2, 81800, Note_on_c, 0, 67, 33
2, 81808, Note_on_c, 0, 62, 24
2, 81808, Note_on_c, 0, 63, 29
2, 81840, Note_on_c, 0, 72, 31
2, 81848, Note_on_c, 0, 57, 34
2, 82864, Note_on_c, 0, 72, 0
2, 83152, Note_on_c, 0, 84, 0
2, 83680, Note_on_c, 0, 98, 96
2, 84072, Note_on_c, 0, 98, 0
2, 84096, Note_on_c, 0, 57, 0
2, 84136, Note_on_c, 0, 62, 0
2, 84144, Note_on_c, 0, 101, 82
2, 84216, Note_on_c, 0, 67, 0
2, 84224, Note_on_c, 0, 63, 0
2, 84504, Note_on_c, 0, 101, 0
2, 84608, Note_on_c, 0, 99, 82
2, 84664, Note_on_c, 0, 101, 25
2, 84720, Note_on_c, 0, 101, 0
2, 85048, Note_on_c, 0, 96, 78
2, 85424, Note_on_c, 0, 96, 0
2, 85424, Note_on_c, 0, 99, 0
2, 85432, Note_on_c, 0, 93, 74
2, 85752, Note_on_c, 0, 92, 69
2, 85800, Note_on_c, 0, 93, 0
2, 86016, Note_on_c, 0, 92, 0
2, 86040, Note_on_c, 0, 91, 55
2, 86256, Note_on_c, 0, 91, 0
2, 86280, Note_on_c, 0, 90, 54
2, 86488, Note_on_c, 0, 90, 0
2, 86504, Note_on_c, 0, 89, 58
2, 86656, Note_on_c, 0, 89, 0
2, 86704, Note_on_c, 0, 88, 61
2, 86832, Note_on_c, 0, 88, 0
2, 86912, Note_on_c, 0, 87, 63
2, 87088, Note_on_c, 0, 87, 0
2, 87104, Note_on_c, 0, 84, 63
2, 87184, Note_on_c, 0, 67, 27
2, 87192, Note_on_c, 0, 63, 29
2, 87208, Note_on_c, 0, 57, 24
2, 87232, Note_on_c, 0, 84, 0
2, 87272, Control_c, 0, 64, 0
2, 87296, Note_on_c, 0, 81, 54
2, 87456, Note_on_c, 0, 81, 0
2, 87576, Control_c, 0, 64, 127
2, 87640, Note_on_c, 0, 79, 30
2, 87704, Note_on_c, 0, 67, 0
2, 87760, Note_on_c, 0, 63, 0
2, 87792, Note_on_c, 0, 79, 0
2, 87816, Note_on_c, 0, 57, 0
2, 87848, Note_on_c, 0, 78, 46
2, 87960, Note_on_c, 0, 78, 0
2, 88016, Note_on_c, 0, 77, 40
2, 88160, Note_on_c, 0, 77, 0
2, 88224, Note_on_c, 0, 76, 33
2, 88336, Note_on_c, 0, 76, 0
2, 88376, Note_on_c, 0, 75, 50
2, 88432, Note_on_c, 0, 75, 0
2, 88616, Note_on_c, 0, 74, 39
2, 88756, Note_on_c, 0, 74, 0
2, 88864, Note_on_c, 0, 73, 50
2, 89120, Note_on_c, 0, 72, 55
2, 89176, Note_on_c, 0, 73, 0
2, 89176, Note_on_c, 0, 63, 25
2, 89520, Note_on_c, 0, 63, 0
2, 90048, Note_on_c, 0, 69, 36
2, 90928, Note_on_c, 0, 69, 0
2, 91000, Note_on_c, 0, 63, 19
2, 91016, Note_on_c, 0, 66, 27
2, 91024, Control_c, 0, 64, 0
2, 91032, Note_on_c, 0, 47, 24
2, 91040, Note_on_c, 0, 57, 24
2, 91152, Control_c, 0, 64, 127
2, 91280, Note_on_c, 0, 72, 0
2, 91680, Note_on_c, 0, 63, 0
2, 91808, Note_on_c, 0, 66, 0
2, 92008, Note_on_c, 0, 72, 58
2, 92080, Note_on_c, 0, 47, 0
2, 92080, Note_on_c, 0, 57, 0
2, 92216, Note_on_c, 0, 72, 0
2, 92840, Note_on_c, 0, 74, 70
2, 92864, Note_on_c, 0, 46, 44
2, 92872, Control_c, 0, 64, 0
2, 92880, Note_on_c, 0, 65, 48
2, 92880, Note_on_c, 0, 70, 59
2, 93064, Control_c, 0, 64, 127
2, 93408, Note_on_c, 0, 74, 0
2, 93424, Note_on_c, 0, 53, 57
2, 93488, Note_on_c, 0, 70, 0
2, 93512, Note_on_c, 0, 46, 0
2, 93512, Note_on_c, 0, 65, 0
2, 93552, Note_on_c, 0, 53, 0
2, 94072, Note_on_c, 0, 77, 75
2, 94080, Note_on_c, 0, 60, 68
2, 94080, Note_on_c, 0, 70, 83
2, 94728, Note_on_c, 0, 62, 70
2, 95224, Note_on_c, 0, 70, 0
2, 95480, Note_on_c, 0, 77, 0
2, 95520, Note_on_c, 0, 65, 66
2, 95912, Note_on_c, 0, 65, 0
2, 96064, Note_on_c, 0, 60, 0
2, 96080, Note_on_c, 0, 62, 0
2, 96200, Note_on_c, 0, 70, 64
2, 96392, Note_on_c, 0, 70, 0
2, 97064, Note_on_c, 0, 77, 51
2, 97064, Note_on_c, 0, 38, 32
2, 97080, Note_on_c, 0, 26, 46
2, 97088, Note_on_c, 0, 72, 50
2, 97088, Note_on_c, 0, 66, 34
2, 97112, Control_c, 0, 64, 0
2, 97336, Control_c, 0, 64, 127
2, 97360, Note_on_c, 0, 26, 0
2, 97488, Note_on_c, 0, 38, 0
2, 97728, Note_on_c, 0, 72, 0
2, 97888, Note_on_c, 0, 66, 0
2, 98264, Note_on_c, 0, 77, 0
2, 98696, Note_on_c, 0, 77, 44
2, 98704, Note_on_c, 0, 54, 33
2, 98704, Note_on_c, 0, 70, 43
2, 98720, Note_on_c, 0, 66, 32
2, 98744, Note_on_c, 0, 60, 37
2, 99616, Note_on_c, 0, 60, 0
2, 99696, Note_on_c, 0, 70, 0
2, 99872, Note_on_c, 0, 66, 0
2, 100472, Note_on_c, 0, 66, 20
2, 100480, Note_on_c, 0, 70, 34
2, 100560, Note_on_c, 0, 60, 17
2, 100728, Note_on_c, 0, 77, 0
2, 100984, Note_on_c, 0, 70, 0
2, 101072, Note_on_c, 0, 60, 0
2, 101400, Note_on_c, 0, 54, 0
2, 101472, Note_on_c, 0, 66, 0
2, 101728, Note_on_c, 0, 70, 40
2, 102024, Note_on_c, 0, 70, 0
2, 102088, Note_on_c, 0, 74, 64
2, 102104, Control_c, 0, 64, 0
2, 102104, Note_on_c, 0, 43, 36
2, 102128, Note_on_c, 0, 50, 35
2, 102264, Control_c, 0, 64, 127
2, 102288, Note_on_c, 0, 43, 0
2, 102344, Note_on_c, 0, 50, 0
2, 102872, Note_on_c, 0, 62, 36
2, 102888, Note_on_c, 0, 57, 36
2, 102888, Note_on_c, 0, 58, 42
2, 103368, Note_on_c, 0, 58, 0
2, 103384, Note_on_c, 0, 62, 0
2, 103400, Note_on_c, 0, 57, 0
2, 103728, Note_on_c, 0, 62, 31
2, 103752, Note_on_c, 0, 57, 33
2, 103752, Note_on_c, 0, 58, 34
2, 104216, Note_on_c, 0, 62, 0
2, 104224, Note_on_c, 0, 58, 0
2, 104224, Note_on_c, 0, 57, 0
2, 104576, Note_on_c, 0, 62, 31
2, 104576, Note_on_c, 0, 57, 37
2, 104592, Note_on_c, 0, 58, 36
2, 105120, Note_on_c, 0, 74, 0
2, 105232, Note_on_c, 0, 62, 0
2, 105352, Note_on_c, 0, 62, 27
2, 105376, Note_on_c, 0, 65, 60
2, 105704, Note_on_c, 0, 57, 0
2, 105712, Note_on_c, 0, 58, 0
2, 105712, Note_on_c, 0, 62, 0
2, 106128, Note_on_c, 0, 62, 45
2, 106152, Note_on_c, 0, 58, 46
2, 106160, Note_on_c, 0, 57, 35
2, 106208, Note_on_c, 0, 62, 0
2, 106272, Note_on_c, 0, 57, 0
2, 106328, Note_on_c, 0, 58, 0
2, 106712, Note_on_c, 0, 65, 0
2, 106976, Note_on_c, 0, 39, 59
2, 106984, Note_on_c, 0, 27, 61
2, 107080, Control_c, 0, 64, 0
2, 107208, Control_c, 0, 64, 127
2, 107288, Note_on_c, 0, 27, 0
2, 107360, Note_on_c, 0, 39, 0
2, 107992, Note_on_c, 0, 65, 28
2, 108112, Note_on_c, 0, 65, 0
2, 108872, Note_on_c, 0, 61, 44
2, 108888, Note_on_c, 0, 70, 44
2, 108888, Note_on_c, 0, 55, 42
2, 108896, Note_on_c, 0, 65, 49
2, 109528, Note_on_c, 0, 61, 0
2, 109536, Note_on_c, 0, 65, 0
2, 109568, Note_on_c, 0, 55, 0
2, 109600, Note_on_c, 0, 70, 0
2, 110840, Note_on_c, 0, 70, 31
2, 110856, Note_on_c, 0, 61, 32
2, 110856, Note_on_c, 0, 65, 33
2, 110864, Note_on_c, 0, 69, 50
2, 110864, Note_on_c, 0, 55, 34
2, 110896, Note_on_c, 0, 60, 24
2, 111472, Note_on_c, 0, 60, 0
2, 111608, Note_on_c, 0, 55, 0
2, 111648, Note_on_c, 0, 69, 0
2, 111664, Note_on_c, 0, 61, 0
2, 111712, Note_on_c, 0, 65, 0
2, 112968, Note_on_c, 0, 70, 0
2, 113008, Note_on_c, 0, 67, 60
2, 113320, Note_on_c, 0, 67, 0
2, 113840, Note_on_c, 0, 69, 62
2, 113848, Control_c, 0, 64, 0
2, 113864, Note_on_c, 0, 64, 53
2, 113864, Note_on_c, 0, 45, 42
2, 113872, Note_on_c, 0, 60, 41
2, 113952, Note_on_c, 0, 55, 17
2, 114024, Control_c, 0, 64, 127
2, 114048, Note_on_c, 0, 45, 0
2, 114128, Note_on_c, 0, 60, 0
2, 114160, Note_on_c, 0, 55, 0
2, 114296, Note_on_c, 0, 64, 0
2, 114296, Note_on_c, 0, 69, 0
2, 115664, Note_on_c, 0, 72, 75
2, 115672, Note_on_c, 0, 69, 78
2, 115680, Note_on_c, 0, 60, 60
2, 115680, Note_on_c, 0, 61, 40
2, 115680, Note_on_c, 0, 65, 66
2, 115704, Note_on_c, 0, 55, 59
2, 115760, Control_c, 0, 64, 0
2, 115968, Control_c, 0, 64, 127
2, 116632, Note_on_c, 0, 55, 0
2, 116672, Note_on_c, 0, 65, 0
2, 116680, Note_on_c, 0, 60, 0
2, 116840, Note_on_c, 0, 61, 0
2, 116856, Note_on_c, 0, 69, 0
2, 116928, Note_on_c, 0, 72, 0
2, 117624, Note_on_c, 0, 61, 31
2, 117624, Note_on_c, 0, 65, 36
2, 117648, Note_on_c, 0, 60, 40
2, 117664, Note_on_c, 0, 55, 34
2, 118760, Note_on_c, 0, 65, 0
2, 119280, Note_on_c, 0, 60, 0
2, 119328, Note_on_c, 0, 61, 0
2, 119368, Note_on_c, 0, 55, 0
2, 119432, Note_on_c, 0, 81, 57
2, 119496, Note_on_c, 0, 72, 51
2, 119736, Note_on_c, 0, 72, 0
2, 119816, Note_on_c, 0, 81, 0
2, 120672, Note_on_c, 0, 75, 36
2, 120680, Note_on_c, 0, 50, 35
2, 120688, Note_on_c, 0, 84, 52
2, 120704, Control_c, 0, 64, 0
2, 120720, Note_on_c, 0, 60, 34
2, 120960, Control_c, 0, 64, 127
2, 121136, Note_on_c, 0, 84, 0
2, 121288, Note_on_c, 0, 75, 0
2, 121448, Note_on_c, 0, 50, 0
2, 121504, Note_on_c, 0, 60, 0
2, 121536, Note_on_c, 0, 54, 35
2, 122400, Note_on_c, 0, 63, 30
2, 122400, Note_on_c, 0, 66, 37
2, 122464, Note_on_c, 0, 60, 25
2, 123456, Note_on_c, 0, 57, 33
2, 124136, Note_on_c, 0, 63, 0
2, 124344, Note_on_c, 0, 63, 28
2, 124440, Note_on_c, 0, 66, 0
2, 124592, Note_on_c, 0, 60, 0
2, 124720, Note_on_c, 0, 57, 0
2, 124960, Note_on_c, 0, 63, 0
2, 125048, Note_on_c, 0, 54, 0
2, 125200, Note_on_c, 0, 69, 59
2, 125624, Note_on_c, 0, 69, 0
2, 126240, Note_on_c, 0, 63, 47
2, 126256, Note_on_c, 0, 67, 35
2, 126272, Note_on_c, 0, 59, 37
2, 126312, Note_on_c, 0, 63, 0
2, 126320, Note_on_c, 0, 53, 34
2, 126336, Note_on_c, 0, 43, 38
2, 126352, Note_on_c, 0, 64, 37
2, 126496, Control_c, 0, 64, 0
2, 126912, Control_c, 0, 64, 127
2, 127064, Note_on_c, 0, 59, 0
2, 127136, Note_on_c, 0, 64, 0
2, 127200, Note_on_c, 0, 59, 46
2, 127224, Note_on_c, 0, 63, 42
2, 127672, Note_on_c, 0, 63, 0
2, 127672, Note_on_c, 0, 59, 0
2, 127712, Note_on_c, 0, 53, 0
2, 128040, Note_on_c, 0, 67, 0
2, 128160, Note_on_c, 0, 63, 34
2, 128176, Note_on_c, 0, 67, 15
2, 128176, Note_on_c, 0, 59, 39
2, 128200, Note_on_c, 0, 53, 35
2, 128952, Note_on_c, 0, 63, 0
2, 129144, Note_on_c, 0, 62, 38
2, 129272, Note_on_c, 0, 43, 0
2, 129560, Note_on_c, 0, 53, 0
2, 129648, Note_on_c, 0, 62, 0
2, 129672, Note_on_c, 0, 59, 0
2, 130056, Note_on_c, 0, 67, 0
2, 130240, Note_on_c, 0, 67, 17
2, 130256, Note_on_c, 0, 61, 36
2, 130296, Note_on_c, 0, 43, 34
2, 130296, Note_on_c, 0, 59, 38
2, 130312, Note_on_c, 0, 53, 26
2, 130328, Control_c, 0, 64, 0
2, 130616, Control_c, 0, 64, 127
2, 130968, Note_on_c, 0, 53, 0
2, 130984, Note_on_c, 0, 59, 0
2, 131040, Note_on_c, 0, 61, 0
2, 131256, Note_on_c, 0, 43, 0
2, 131440, Note_on_c, 0, 59, 27
2, 131472, Note_on_c, 0, 62, 25
2, 131760, Note_on_c, 0, 67, 0
2, 131832, Note_on_c, 0, 59, 0
2, 131872, Note_on_c, 0, 62, 0
2, 133016, Note_on_c, 0, 69, 33
2, 133024, Note_on_c, 0, 61, 32
2, 133040, Note_on_c, 0, 57, 35
2, 133048, Note_on_c, 0, 33, 40
2, 133064, Note_on_c, 0, 21, 39
2, 133192, Control_c, 0, 64, 0
2, 133672, Control_c, 0, 64, 127
2, 133952, Note_on_c, 0, 57, 0
2, 134008, Note_on_c, 0, 61, 0
2, 134136, Note_on_c, 0, 69, 0
2, 134176, Note_on_c, 0, 21, 0
2, 134272, Note_on_c, 0, 33, 0
2, 136360, Note_on_c, 0, 73, 33
2, 136480, Note_on_c, 0, 73, 0
2, 136504, Note_on_c, 0, 72, 43
2, 136680, Note_on_c, 0, 77, 55
2, 136712, Note_on_c, 0, 72, 0
2, 136872, Note_on_c, 0, 84, 51
2, 136896, Note_on_c, 0, 77, 0
2, 136944, Note_on_c, 0, 84, 0
2, 137008, Note_on_c, 0, 85, 61
2, 137080, Note_on_c, 0, 85, 0
2, 137088, Note_on_c, 0, 84, 47
2, 137272, Note_on_c, 0, 84, 0
2, 137296, Note_on_c, 0, 89, 51
2, 137408, Note_on_c, 0, 95, 42
2, 137424, Note_on_c, 0, 89, 0
2, 137488, Note_on_c, 0, 95, 0
2, 137624, Note_on_c, 0, 97, 52
2, 137640, Note_on_c, 0, 96, 55
2, 137704, Note_on_c, 0, 97, 0
2, 137848, Note_on_c, 0, 101, 51
2, 137912, Note_on_c, 0, 96, 0
2, 137984, Note_on_c, 0, 108, 54
2, 138032, Note_on_c, 0, 101, 0
2, 138136, Note_on_c, 0, 108, 0
2, 141744, Note_on_c, 0, 74, 95
2, 143808, Note_on_c, 0, 74, 0
2, 143904, Note_on_c, 0, 75, 62
2, 144552, Note_on_c, 0, 75, 0
2, 144738, Control_c, 0, 64, 0
2, 144808, Note_on_c, 0, 74, 54
2, 144808, Note_on_c, 0, 50, 37
2, 144816, Note_on_c, 0, 76, 25
2, 144856, Note_on_c, 0, 58, 20
2, 144912, Note_on_c, 0, 76, 0
2, 145048, Control_c, 0, 64, 127
2, 145328, Note_on_c, 0, 58, 0
2, 146080, Note_on_c, 0, 58, 14
2, 146096, Note_on_c, 0, 74, 0
2, 146096, Note_on_c, 0, 70, 33
2, 146128, Note_on_c, 0, 65, 34
2, 146136, Note_on_c, 0, 62, 19
2, 146728, Note_on_c, 0, 62, 0
2, 146784, Note_on_c, 0, 58, 0
2, 147464, Note_on_c, 0, 65, 0
2, 147632, Note_on_c, 0, 58, 27
2, 147632, Note_on_c, 0, 77, 61
2, 147648, Note_on_c, 0, 62, 26
2, 148080, Note_on_c, 0, 70, 0
2, 148080, Note_on_c, 0, 50, 0
2, 148136, Note_on_c, 0, 62, 0
2, 148320, Note_on_c, 0, 77, 0
2, 148416, Note_on_c, 0, 65, 41
2, 148440, Note_on_c, 0, 74, 43
2, 148440, Note_on_c, 0, 50, 31
2, 148448, Note_on_c, 0, 70, 25
2, 148528, Note_on_c, 0, 65, 0
2, 148536, Note_on_c, 0, 58, 0
2, 148568, Note_on_c, 0, 70, 0
2, 148608, Note_on_c, 0, 74, 0
2, 148664, Note_on_c, 0, 50, 0
2, 149840, Note_on_c, 0, 77, 24
2, 149856, Note_on_c, 0, 27, 39
2, 149872, Note_on_c, 0, 81, 35
2, 149880, Note_on_c, 0, 67, 36
2, 149880, Note_on_c, 0, 39, 27
2, 149888, Note_on_c, 0, 72, 25
2, 149888, Control_c, 0, 64, 0
2, 150208, Control_c, 0, 64, 127
2, 150272, Note_on_c, 0, 27, 0
2, 150352, Note_on_c, 0, 39, 0
2, 150856, Note_on_c, 0, 67, 0
2, 150952, Note_on_c, 0, 72, 0
2, 151560, Note_on_c, 0, 61, 23
2, 151584, Note_on_c, 0, 65, 24
2, 151584, Note_on_c, 0, 67, 25
2, 151592, Note_on_c, 0, 72, 22
2, 151600, Note_on_c, 0, 60, 34
2, 151600, Note_on_c, 0, 55, 24
2, 152104, Note_on_c, 0, 55, 0
2, 152152, Note_on_c, 0, 60, 0
2, 152216, Note_on_c, 0, 65, 0
2, 152344, Note_on_c, 0, 61, 0
2, 152472, Note_on_c, 0, 81, 0
2, 152616, Note_on_c, 0, 77, 0
2, 153080, Note_on_c, 0, 67, 0
2, 153200, Note_on_c, 0, 72, 0
2, 153296, Note_on_c, 0, 61, 21
2, 153304, Note_on_c, 0, 65, 17
2, 153312, Note_on_c, 0, 55, 30
2, 153320, Note_on_c, 0, 60, 35
2, 154264, Note_on_c, 0, 65, 0
2, 154536, Note_on_c, 0, 61, 0
2, 154568, Note_on_c, 0, 60, 0
2, 154600, Note_on_c, 0, 79, 66
2, 154656, Note_on_c, 0, 55, 0
2, 154688, Note_on_c, 0, 70, 57
2, 154992, Note_on_c, 0, 79, 0
2, 155208, Note_on_c, 0, 70, 0
2, 155376, Note_on_c, 0, 77, 57
2, 155408, Note_on_c, 0, 50, 43
2, 155424, Note_on_c, 0, 69, 62
2, 155472, Control_c, 0, 64, 0
2, 155720, Control_c, 0, 64, 127
2, 156024, Note_on_c, 0, 69, 0
2, 156032, Note_on_c, 0, 57, 51
2, 156168, Note_on_c, 0, 50, 0
2, 156624, Note_on_c, 0, 69, 54
2, 156624, Note_on_c, 0, 65, 46
2, 156624, Note_on_c, 0, 64, 55
2, 156688, Note_on_c, 0, 77, 0
2, 157176, Note_on_c, 0, 64, 0
2, 157360, Note_on_c, 0, 62, 65
2, 157520, Note_on_c, 0, 65, 0
2, 158016, Note_on_c, 0, 62, 0
2, 158104, Note_on_c, 0, 65, 53
2, 158176, Note_on_c, 0, 69, 0
2, 158184, Note_on_c, 0, 65, 0
2, 158784, Note_on_c, 0, 60, 24
2, 158784, Note_on_c, 0, 74, 59
2, 158840, Note_on_c, 0, 60, 0
2, 158896, Note_on_c, 0, 57, 0
2, 158968, Note_on_c, 0, 74, 0
2, 159536, Note_on_c, 0, 31, 45
2, 159544, Note_on_c, 0, 43, 36
2, 159552, Note_on_c, 0, 81, 59
2, 159552, Control_c, 0, 64, 0
2, 159712, Note_on_c, 0, 31, 0
2, 159744, Control_c, 0, 64, 127
2, 159816, Note_on_c, 0, 81, 0
2, 159824, Note_on_c, 0, 43, 0
2, 160384, Note_on_c, 0, 59, 49
2, 161208, Note_on_c, 0, 71, 39
2, 161216, Note_on_c, 0, 59, 0
2, 161232, Note_on_c, 0, 65, 32
2, 161280, Note_on_c, 0, 61, 20
2, 161416, Note_on_c, 0, 65, 0
2, 161448, Note_on_c, 0, 61, 0
2, 161488, Note_on_c, 0, 71, 0
2, 162112, Note_on_c, 0, 79, 41
2, 163064, Note_on_c, 0, 71, 32
2, 163080, Note_on_c, 0, 73, 18
2, 163120, Note_on_c, 0, 65, 26
2, 163200, Note_on_c, 0, 79, 0
2, 163232, Note_on_c, 0, 65, 0
2, 163552, Note_on_c, 0, 73, 0
2, 163560, Note_on_c, 0, 71, 0
2, 163984, Note_on_c, 0, 77, 67
2, 164192, Note_on_c, 0, 77, 0
2, 164800, Note_on_c, 0, 74, 64
2, 164832, Note_on_c, 0, 48, 43
2, 164856, Note_on_c, 0, 58, 25
2, 164896, Control_c, 0, 64, 0
2, 165136, Control_c, 0, 64, 127
2, 165504, Note_on_c, 0, 58, 0
2, 165616, Note_on_c, 0, 55, 32
2, 165920, Note_on_c, 0, 48, 0
2, 166408, Note_on_c, 0, 65, 32
2, 166432, Note_on_c, 0, 62, 37
2, 166456, Note_on_c, 0, 60, 34
2, 166480, Note_on_c, 0, 74, 0
2, 167248, Note_on_c, 0, 55, 0
2, 167528, Note_on_c, 0, 65, 0
2, 167536, Note_on_c, 0, 62, 0
2, 167584, Note_on_c, 0, 60, 0
2, 168216, Note_on_c, 0, 62, 31
2, 168224, Note_on_c, 0, 65, 32
2, 168256, Note_on_c, 0, 60, 22
2, 168944, Note_on_c, 0, 62, 0
2, 169056, Note_on_c, 0, 60, 0
2, 169128, Note_on_c, 0, 48, 34
2, 169664, Note_on_c, 0, 48, 0
2, 170064, Note_on_c, 0, 61, 48
2, 170112, Control_c, 0, 64, 0
2, 170112, Note_on_c, 0, 48, 39
2, 170120, Note_on_c, 0, 58, 27
2, 170328, Note_on_c, 0, 65, 0
2, 170400, Control_c, 0, 64, 127
2, 171696, Note_on_c, 0, 58, 0
2, 172448, Note_on_c, 0, 58, 25
2, 173184, Note_on_c, 0, 58, 0
2, 174192, Note_on_c, 0, 61, 0
2, 174320, Note_on_c, 0, 60, 25
2, 174920, Note_on_c, 0, 60, 0
2, 175024, Note_on_c, 0, 48, 0
2, 175472, Note_on_c, 0, 67, 42
2, 175488, Note_on_c, 0, 58, 29
2, 175496, Note_on_c, 0, 64, 39
2, 175536, Note_on_c, 0, 55, 24
2, 175552, Note_on_c, 0, 48, 14
2, 176312, Note_on_c, 0, 58, 0
2, 176400, Note_on_c, 0, 67, 0
2, 176448, Note_on_c, 0, 64, 0
2, 176456, Note_on_c, 0, 55, 0
2, 176552, Note_on_c, 0, 69, 55
2, 176560, Note_on_c, 0, 60, 45
2, 176752, Note_on_c, 0, 48, 0
2, 176776, Note_on_c, 0, 69, 0
2, 176792, Note_on_c, 0, 60, 0
2, 177040, Note_on_c, 0, 70, 62
2, 177048, Note_on_c, 0, 62, 55
2, 177336, Note_on_c, 0, 70, 0
2, 177384, Note_on_c, 0, 62, 0
2, 177616, Control_c, 0, 64, 0
2, 177632, Note_on_c, 0, 69, 62
2, 177632, Note_on_c, 0, 41, 37
2, 177648, Note_on_c, 0, 48, 33
2, 177656, Note_on_c, 0, 60, 39
2, 177840, Control_c, 0, 64, 127
2, 177952, Note_on_c, 0, 69, 0
2, 178176, Note_on_c, 0, 60, 0
2, 178856, Note_on_c, 0, 57, 35
2, 178856, Note_on_c, 0, 65, 45
2, 178864, Note_on_c, 0, 53, 32
2, 179608, Note_on_c, 0, 53, 0
2, 179848, Note_on_c, 0, 57, 0
2, 180648, Note_on_c, 0, 57, 30
2, 180672, Note_on_c, 0, 53, 31
2, 181712, Note_on_c, 0, 41, 0
2, 181816, Note_on_c, 0, 57, 0
2, 182096, Note_on_c, 0, 53, 0
2, 182680, Note_on_c, 0, 48, 0
2, 183104, Note_on_c, 0, 65, 0
2, 183896, Note_on_c, 0, 57, 42
2, 183920, Note_on_c, 0, 64, 42
2, 183920, Note_on_c, 0, 61, 35
2, 183936, Control_c, 0, 64, 0
2, 183960, Note_on_c, 0, 49, 28
2, 184096, Control_c, 0, 64, 127
2, 184216, Note_on_c, 0, 57, 0
2, 184352, Note_on_c, 0, 61, 0
2, 184368, Note_on_c, 0, 64, 0
2, 185072, Note_on_c, 0, 69, 50
2, 185104, Note_on_c, 0, 76, 33
2, 185120, Note_on_c, 0, 49, 0
2, 185152, Note_on_c, 0, 57, 32
2, 185424, Note_on_c, 0, 69, 0
2, 185512, Note_on_c, 0, 76, 0
2, 186216, Note_on_c, 0, 73, 34
2, 186224, Note_on_c, 0, 81, 63
2, 186240, Note_on_c, 0, 57, 0
2, 186264, Note_on_c, 0, 69, 50
2, 186312, Note_on_c, 0, 61, 25
2, 186520, Note_on_c, 0, 61, 0
2, 187440, Note_on_c, 0, 69, 0
2, 187672, Note_on_c, 0, 73, 0
2, 187752, Note_on_c, 0, 81, 0
2, 187768, Note_on_c, 0, 77, 50
2, 187800, Note_on_c, 0, 62, 31
2, 187808, Note_on_c, 0, 58, 33
2, 187816, Note_on_c, 0, 69, 24
2, 187888, Control_c, 0, 64, 0
2, 188128, Control_c, 0, 64, 127
2, 188400, Note_on_c, 0, 62, 0
2, 188808, Note_on_c, 0, 69, 0
2, 189080, Note_on_c, 0, 77, 0
2, 189112, Note_on_c, 0, 62, 27
2, 189136, Note_on_c, 0, 65, 32
2, 190440, Note_on_c, 0, 65, 0
2, 190464, Note_on_c, 0, 62, 0
2, 190688, Note_on_c, 0, 58, 0
2, 190792, Note_on_c, 0, 74, 58
2, 190920, Note_on_c, 0, 74, 0
2, 191056, Note_on_c, 0, 77, 55
2, 191208, Note_on_c, 0, 77, 0
2, 191256, Control_c, 0, 64, 0
2, 191312, Note_on_c, 0, 81, 71
2, 191456, Note_on_c, 0, 81, 0
2, 191560, Note_on_c, 0, 82, 69
2, 191736, Note_on_c, 0, 82, 0
2, 191848, Note_on_c, 0, 84, 75
2, 192016, Note_on_c, 0, 84, 0
2, 192120, Note_on_c, 0, 61, 25
2, 192128, Note_on_c, 0, 55, 40
2, 192136, Note_on_c, 0, 60, 34
2, 192144, Note_on_c, 0, 65, 19
2, 192176, Note_on_c, 0, 81, 40
2, 192640, Note_on_c, 0, 73, 35
2, 192648, Note_on_c, 0, 81, 0
2, 192840, Note_on_c, 0, 73, 0
2, 192968, Note_on_c, 0, 72, 34
2, 193144, Note_on_c, 0, 72, 0
2, 193280, Note_on_c, 0, 70, 44
2, 193480, Control_c, 0, 64, 127
2, 194384, Note_on_c, 0, 70, 0
2, 194432, Note_on_c, 0, 65, 0
2, 194488, Note_on_c, 0, 69, 56
2, 194504, Note_on_c, 0, 60, 0
2, 194544, Note_on_c, 0, 61, 0
2, 194624, Note_on_c, 0, 55, 0
2, 194656, Note_on_c, 0, 69, 0
2, 194768, Note_on_c, 0, 70, 63
2, 194912, Control_c, 0, 64, 0
2, 194984, Note_on_c, 0, 70, 0
2, 195040, Control_c, 0, 64, 127
2, 195080, Note_on_c, 0, 72, 55
2, 195288, Note_on_c, 0, 72, 0
2, 195296, Control_c, 0, 64, 0
2, 195440, Note_on_c, 0, 69, 31
2, 195448, Note_on_c, 0, 50, 24
2, 195472, Note_on_c, 0, 60, 20
2, 195480, Note_on_c, 0, 57, 22
2, 195696, Control_c, 0, 64, 127
2, 196056, Note_on_c, 0, 69, 0
2, 196128, Note_on_c, 0, 60, 0
2, 196256, Note_on_c, 0, 57, 0
2, 196424, Control_c, 0, 64, 0
2, 196480, Note_on_c, 0, 67, 55
2, 196576, Note_on_c, 0, 57, 22
2, 196712, Note_on_c, 0, 57, 0
2, 196760, Control_c, 0, 64, 127
2, 196776, Note_on_c, 0, 67, 0
2, 196824, Note_on_c, 0, 65, 50
2, 197024, Note_on_c, 0, 50, 0
2, 197032, Note_on_c, 0, 65, 0
2, 197184, Note_on_c, 0, 60, 41
2, 197472, Note_on_c, 0, 60, 0
2, 197672, Control_c, 0, 64, 0
2, 197960, Note_on_c, 0, 57, 43
2, 198040, Note_on_c, 0, 50, 17
2, 198168, Note_on_c, 0, 57, 0
2, 198184, Control_c, 0, 64, 127
2, 198288, Note_on_c, 0, 58, 36
2, 198504, Note_on_c, 0, 58, 0
2, 198504, Control_c, 0, 64, 0
2, 198552, Note_on_c, 0, 50, 0
2, 198624, Note_on_c, 0, 59, 43
2, 198640, Note_on_c, 0, 43, 30
2, 198664, Control_c, 0, 64, 127
2, 198688, Note_on_c, 0, 53, 17
2, 198936, Note_on_c, 0, 43, 0
2, 199048, Note_on_c, 0, 59, 0
2, 199136, Note_on_c, 0, 53, 0
2, 199320, Note_on_c, 0, 59, 51
2, 199328, Note_on_c, 0, 69, 44
2, 199344, Note_on_c, 0, 64, 45
2, 199368, Note_on_c, 0, 53, 33
2, 199432, Note_on_c, 0, 64, 0
2, 199456, Note_on_c, 0, 59, 0
2, 199456, Control_c, 0, 64, 0
2, 199464, Note_on_c, 0, 69, 0
2, 199504, Note_on_c, 0, 53, 0
2, 199640, Note_on_c, 0, 52, 29
2, 199832, Note_on_c, 0, 52, 0
2, 199856, Note_on_c, 0, 69, 39
2, 199864, Note_on_c, 0, 59, 41
2, 199864, Note_on_c, 0, 64, 38
2, 199920, Control_c, 0, 64, 127
2, 199920, Note_on_c, 0, 53, 24
2, 200576, Note_on_c, 0, 53, 0
2, 200664, Note_on_c, 0, 59, 0
2, 200704, Note_on_c, 0, 64, 0
2, 200760, Note_on_c, 0, 44, 36
2, 200880, Note_on_c, 0, 69, 0
2, 201256, Note_on_c, 0, 44, 0
2, 201488, Note_on_c, 0, 43, 33
2, 201504, Note_on_c, 0, 58, 27
2, 201528, Note_on_c, 0, 62, 31
2, 201528, Note_on_c, 0, 53, 22
2, 201536, Control_c, 0, 64, 0
2, 201552, Note_on_c, 0, 65, 30
2, 201808, Control_c, 0, 64, 127
2, 201928, Note_on_c, 0, 65, 0
2, 201976, Note_on_c, 0, 62, 0
2, 202032, Note_on_c, 0, 58, 0
2, 202328, Note_on_c, 0, 53, 0
2, 202664, Note_on_c, 0, 60, 83
2, 202696, Note_on_c, 0, 53, 32
2, 202808, Note_on_c, 0, 60, 0
2, 202968, Note_on_c, 0, 53, 0
2, 202984, Control_c, 0, 64, 0
2, 203040, Note_on_c, 0, 61, 42
2, 203176, Note_on_c, 0, 61, 0
2, 203200, Note_on_c, 0, 62, 49
2, 203352, Note_on_c, 0, 62, 0
2, 203416, Note_on_c, 0, 65, 62
2, 203528, Note_on_c, 0, 43, 0
2, 203584, Note_on_c, 0, 65, 0
2, 203784, Control_c, 0, 64, 127
2, 203976, Control_c, 0, 64, 0
2, 204168, Note_on_c, 0, 58, 46
2, 204192, Note_on_c, 0, 65, 40
2, 204200, Note_on_c, 0, 53, 34
2, 204208, Note_on_c, 0, 62, 42
2, 204248, Control_c, 0, 64, 127
2, 204256, Note_on_c, 0, 50, 17
2, 204440, Note_on_c, 0, 65, 0
2, 204472, Note_on_c, 0, 53, 0
2, 204488, Note_on_c, 0, 62, 0
2, 204608, Note_on_c, 0, 58, 0
2, 204680, Note_on_c, 0, 50, 0
2, 204912, Note_on_c, 0, 38, 51
2, 204976, Note_on_c, 0, 38, 0
2, 205344, Note_on_c, 0, 73, 39
2, 205368, Note_on_c, 0, 65, 48
2, 205392, Note_on_c, 0, 61, 25
2, 205440, Control_c, 0, 64, 0
2, 205456, Note_on_c, 0, 60, 36
2, 205760, Control_c, 0, 64, 127
2, 206440, Note_on_c, 0, 65, 0
2, 206464, Note_on_c, 0, 48, 39
2, 206696, Note_on_c, 0, 60, 0
2, 206944, Note_on_c, 0, 61, 0
2, 207584, Note_on_c, 0, 61, 30
2, 207616, Note_on_c, 0, 60, 38
2, 207632, Note_on_c, 0, 65, 31
2, 207984, Note_on_c, 0, 48, 0
2, 208216, Note_on_c, 0, 65, 0
2, 208280, Note_on_c, 0, 61, 0
2, 208304, Note_on_c, 0, 60, 0
2, 208336, Note_on_c, 0, 73, 0
2, 208368, Note_on_c, 0, 48, 44
2, 208712, Control_c, 0, 64, 0
2, 208728, Note_on_c, 0, 57, 38
2, 208728, Note_on_c, 0, 65, 38
2, 208736, Note_on_c, 0, 69, 45
2, 208760, Note_on_c, 0, 60, 26
2, 208984, Control_c, 0, 64, 127
2, 209384, Note_on_c, 0, 48, 0
2, 209424, Note_on_c, 0, 72, 65
2, 209520, Note_on_c, 0, 71, 24
2, 209784, Note_on_c, 0, 60, 0
2, 209784, Note_on_c, 0, 48, 40
2, 209848, Note_on_c, 0, 65, 0
2, 210072, Note_on_c, 0, 69, 0
2, 210296, Note_on_c, 0, 57, 0
2, 211032, Note_on_c, 0, 65, 33
2, 211056, Note_on_c, 0, 60, 32
2, 211088, Note_on_c, 0, 57, 32
2, 211456, Note_on_c, 0, 48, 0
2, 211536, Note_on_c, 0, 60, 0
2, 211568, Note_on_c, 0, 65, 0
2, 211776, Note_on_c, 0, 57, 0
2, 211808, Note_on_c, 0, 48, 37
2, 211848, Note_on_c, 0, 71, 0
2, 211992, Note_on_c, 0, 72, 0
2, 212168, Note_on_c, 0, 67, 64
2, 212176, Note_on_c, 0, 60, 54
2, 212184, Note_on_c, 0, 63, 46
2, 212192, Control_c, 0, 64, 0
2, 212200, Note_on_c, 0, 70, 43
2, 212336, Control_c, 0, 64, 127
2, 212520, Note_on_c, 0, 72, 64
2, 212872, Note_on_c, 0, 60, 0
2, 212880, Note_on_c, 0, 63, 0
2, 212952, Note_on_c, 0, 67, 0
2, 213328, Note_on_c, 0, 66, 48
2, 213376, Note_on_c, 0, 62, 40
2, 213376, Note_on_c, 0, 57, 33
2, 213424, Note_on_c, 0, 51, 29
2, 213424, Control_c, 0, 64, 0
2, 213592, Control_c, 0, 64, 127
2, 214176, Note_on_c, 0, 62, 0
2, 214256, Note_on_c, 0, 66, 0
2, 214288, Note_on_c, 0, 57, 0
2, 214560, Note_on_c, 0, 62, 24
2, 214624, Note_on_c, 0, 57, 22
2, 214632, Note_on_c, 0, 62, 0
2, 214920, Note_on_c, 0, 57, 0
2, 214928, Note_on_c, 0, 51, 0
2, 215000, Note_on_c, 0, 48, 0
2, 215304, Note_on_c, 0, 51, 27
2, 215408, Note_on_c, 0, 72, 0
2, 215464, Note_on_c, 0, 70, 0
2, 215608, Note_on_c, 0, 51, 0
2, 215656, Note_on_c, 0, 62, 36
2, 215664, Note_on_c, 0, 50, 51
2, 215672, Note_on_c, 0, 65, 37
2, 215696, Note_on_c, 0, 58, 25
2, 215736, Control_c, 0, 64, 0
2, 215912, Control_c, 0, 64, 127
2, 216024, Note_on_c, 0, 50, 0
2, 216112, Note_on_c, 0, 58, 0
2, 216176, Note_on_c, 0, 62, 0
2, 216304, Note_on_c, 0, 65, 0
2, 216792, Note_on_c, 0, 62, 38
2, 216808, Note_on_c, 0, 58, 37
2, 217200, Note_on_c, 0, 72, 64
2, 217360, Note_on_c, 0, 72, 0
2, 217400, Note_on_c, 0, 58, 0
2, 217472, Note_on_c, 0, 62, 0
2, 217528, Note_on_c, 0, 73, 65
2, 217808, Note_on_c, 0, 73, 0
2, 217880, Note_on_c, 0, 74, 67
2, 217880, Note_on_c, 0, 62, 37
2, 217880, Note_on_c, 0, 58, 38
2, 217888, Control_c, 0, 64, 0
2, 218064, Control_c, 0, 64, 127
2, 218096, Note_on_c, 0, 74, 0
2, 218240, Note_on_c, 0, 77, 64
2, 218328, Note_on_c, 0, 58, 0
2, 218352, Note_on_c, 0, 62, 0
2, 218440, Note_on_c, 0, 77, 0
2, 218584, Note_on_c, 0, 79, 68
2, 218824, Note_on_c, 0, 79, 0
2, 218920, Control_c, 0, 64, 0
2, 218928, Note_on_c, 0, 65, 42
2, 218936, Note_on_c, 0, 81, 60
2, 218936, Note_on_c, 0, 61, 40
2, 218944, Note_on_c, 0, 73, 31
2, 218952, Note_on_c, 0, 77, 50
2, 218952, Note_on_c, 0, 60, 48
2, 218952, Note_on_c, 0, 55, 39
2, 218968, Note_on_c, 0, 69, 38
2, 219288, Control_c, 0, 64, 127
2, 219464, Note_on_c, 0, 65, 0
2, 219520, Note_on_c, 0, 61, 0
2, 219528, Note_on_c, 0, 55, 0
2, 219528, Note_on_c, 0, 60, 0
2, 220144, Note_on_c, 0, 46, 54
2, 220152, Note_on_c, 0, 39, 44
2, 220248, Control_c, 0, 64, 0
2, 220312, Control_c, 0, 64, 127
2, 220488, Note_on_c, 0, 39, 0
2, 220536, Note_on_c, 0, 46, 0
2, 221312, Note_on_c, 0, 61, 39
2, 221328, Note_on_c, 0, 65, 44
2, 221544, Note_on_c, 0, 81, 0
2, 221592, Note_on_c, 0, 69, 0
2, 221608, Note_on_c, 0, 77, 0
2, 221768, Note_on_c, 0, 65, 0
2, 221840, Note_on_c, 0, 73, 0
2, 221960, Note_on_c, 0, 61, 0
2, 222104, Note_on_c, 0, 73, 63
2, 222112, Note_on_c, 0, 79, 68
2, 222120, Note_on_c, 0, 64, 66
2, 222120, Note_on_c, 0, 69, 74
2, 222136, Note_on_c, 0, 76, 64
2, 222336, Note_on_c, 0, 76, 0
2, 222400, Note_on_c, 0, 69, 0
2, 222408, Note_on_c, 0, 79, 0
2, 222440, Note_on_c, 0, 64, 0
2, 222480, Note_on_c, 0, 73, 0
2, 222552, Note_on_c, 0, 77, 69
2, 222568, Note_on_c, 0, 69, 57
2, 222576, Note_on_c, 0, 72, 65
2, 222592, Control_c, 0, 64, 0
2, 222600, Note_on_c, 0, 62, 58
2, 222864, Control_c, 0, 64, 127
2, 223304, Note_on_c, 0, 77, 0
2, 223312, Note_on_c, 0, 72, 0
2, 223368, Note_on_c, 0, 69, 0
2, 223664, Note_on_c, 0, 62, 0
2, 223664, Note_on_c, 0, 76, 54
2, 223672, Note_on_c, 0, 69, 47
2, 223688, Note_on_c, 0, 61, 51
2, 223712, Note_on_c, 0, 65, 35
2, 223776, Control_c, 0, 64, 0
2, 224032, Control_c, 0, 64, 127
2, 224432, Note_on_c, 0, 69, 0
2, 224464, Note_on_c, 0, 65, 0
2, 224696, Note_on_c, 0, 76, 0
2, 224712, Note_on_c, 0, 61, 0
2, 224760, Note_on_c, 0, 72, 41
2, 224784, Note_on_c, 0, 65, 33
2, 224784, Note_on_c, 0, 60, 43
2, 224832, Note_on_c, 0, 69, 33
2, 224992, Note_on_c, 0, 60, 0
2, 225112, Note_on_c, 0, 72, 0
2, 225184, Note_on_c, 0, 69, 0
2, 225232, Note_on_c, 0, 65, 0
2, 225832, Note_on_c, 0, 53, 37
2, 225856, Note_on_c, 0, 69, 41
2, 225856, Note_on_c, 0, 64, 44
2, 225872, Note_on_c, 0, 59, 28
2, 226008, Control_c, 0, 64, 0
2, 226024, Note_on_c, 0, 59, 0
2, 226032, Note_on_c, 0, 64, 0
2, 226168, Note_on_c, 0, 53, 0
2, 226240, Note_on_c, 0, 63, 30
2, 226248, Note_on_c, 0, 52, 34
2, 226376, Note_on_c, 0, 69, 0
2, 226440, Note_on_c, 0, 63, 0
2, 226488, Note_on_c, 0, 52, 0
2, 226552, Note_on_c, 0, 64, 42
2, 226568, Note_on_c, 0, 53, 43
2, 226608, Note_on_c, 0, 59, 36
2, 226616, Note_on_c, 0, 69, 28
2, 226888, Control_c, 0, 64, 127
2, 227312, Note_on_c, 0, 64, 0
2, 227368, Note_on_c, 0, 43, 49
2, 227472, Control_c, 0, 64, 0
2, 227552, Control_c, 0, 64, 127
2, 227688, Note_on_c, 0, 59, 0
2, 227856, Note_on_c, 0, 53, 0
2, 228048, Note_on_c, 0, 69, 0
2, 228144, Control_c, 0, 64, 0
2, 228168, Note_on_c, 0, 61, 38
2, 228192, Note_on_c, 0, 59, 39
2, 228200, Note_on_c, 0, 53, 30
2, 228368, Control_c, 0, 64, 127
2, 228448, Control_c, 0, 64, 0
2, 228472, Note_on_c, 0, 61, 0
2, 228536, Note_on_c, 0, 62, 38
2, 228608, Control_c, 0, 64, 127
2, 228928, Note_on_c, 0, 59, 0
2, 229024, Note_on_c, 0, 53, 0
2, 229136, Note_on_c, 0, 62, 0
2, 229208, Note_on_c, 0, 43, 0
2, 229328, Note_on_c, 0, 62, 40
2, 229344, Note_on_c, 0, 48, 36
2, 229344, Note_on_c, 0, 58, 32
2, 229352, Note_on_c, 0, 65, 46
2, 229376, Control_c, 0, 64, 0
2, 229728, Control_c, 0, 64, 127
2, 230240, Note_on_c, 0, 58, 0
2, 230264, Note_on_c, 0, 62, 0
2, 230336, Note_on_c, 0, 65, 0
2, 230560, Note_on_c, 0, 48, 0
2, 230568, Note_on_c, 0, 58, 30
2, 230576, Note_on_c, 0, 62, 38
2, 230976, Note_on_c, 0, 58, 0
2, 231184, Note_on_c, 0, 62, 0
2, 231296, Note_on_c, 0, 24, 60
2, 231424, Note_on_c, 0, 24, 0
2, 231784, Note_on_c, 0, 64, 60
2, 231968, Note_on_c, 0, 64, 0
2, 232112, Note_on_c, 0, 69, 76
2, 232392, Note_on_c, 0, 69, 0
2, 232400, Note_on_c, 0, 73, 56
2, 232528, Note_on_c, 0, 73, 0
2, 232672, Note_on_c, 0, 76, 75
2, 232896, Note_on_c, 0, 76, 0
2, 232960, Note_on_c, 0, 76, 30
2, 232968, Note_on_c, 0, 88, 77
2, 232976, Note_on_c, 0, 81, 64
2, 232984, Note_on_c, 0, 58, 52
2, 232984, Note_on_c, 0, 64, 41
2, 233032, Control_c, 0, 64, 0
2, 233248, Control_c, 0, 64, 127
2, 233400, Note_on_c, 0, 85, 60
2, 233448, Note_on_c, 0, 88, 0
2, 233560, Note_on_c, 0, 81, 0
2, 233664, Note_on_c, 0, 85, 0
2, 233808, Note_on_c, 0, 64, 0
2, 233824, Note_on_c, 0, 76, 0
2, 234352, Note_on_c, 0, 64, 15
2, 234816, Note_on_c, 0, 58, 0
2, 234856, Note_on_c, 0, 64, 0
2, 235528, Note_on_c, 0, 58, 30
2, 235536, Note_on_c, 0, 64, 24
2, 235888, Note_on_c, 0, 64, 0
2, 236272, Note_on_c, 0, 72, 61
2, 236344, Note_on_c, 0, 72, 0
2, 236592, Note_on_c, 0, 58, 0
2, 236696, Note_on_c, 0, 79, 53
2, 236776, Note_on_c, 0, 53, 34
2, 236792, Note_on_c, 0, 60, 30
2, 236840, Note_on_c, 0, 80, 44
2, 236856, Control_c, 0, 64, 0
2, 236944, Note_on_c, 0, 80, 0
2, 236944, Note_on_c, 0, 79, 0
2, 236952, Note_on_c, 0, 81, 49
2, 237112, Note_on_c, 0, 81, 0
2, 237168, Note_on_c, 0, 84, 71
2, 237176, Note_on_c, 0, 72, 62
2, 237240, Control_c, 0, 64, 127
2, 237600, Note_on_c, 0, 60, 0
2, 237672, Note_on_c, 0, 84, 0
2, 237696, Note_on_c, 0, 72, 0
2, 238000, Note_on_c, 0, 84, 63
2, 238048, Note_on_c, 0, 72, 36
2, 238056, Note_on_c, 0, 65, 18
2, 238056, Note_on_c, 0, 60, 28
2, 238464, Note_on_c, 0, 72, 0
2, 238472, Note_on_c, 0, 60, 0
2, 238512, Note_on_c, 0, 65, 0
2, 238528, Note_on_c, 0, 84, 0
2, 238808, Note_on_c, 0, 86, 79
2, 238848, Note_on_c, 0, 74, 47
2, 238848, Note_on_c, 0, 79, 47
2, 239088, Note_on_c, 0, 86, 0
2, 239096, Note_on_c, 0, 74, 0
2, 239120, Note_on_c, 0, 79, 0
2, 239312, Note_on_c, 0, 65, 28
2, 239328, Note_on_c, 0, 60, 34
2, 239352, Note_on_c, 0, 84, 48
2, 239368, Note_on_c, 0, 79, 28
2, 239392, Note_on_c, 0, 72, 22
2, 239632, Note_on_c, 0, 53, 0
2, 239640, Note_on_c, 0, 60, 0
2, 239656, Note_on_c, 0, 84, 0
2, 239656, Note_on_c, 0, 72, 0
2, 239760, Note_on_c, 0, 79, 0
2, 239856, Note_on_c, 0, 65, 0
2, 240144, Note_on_c, 0, 86, 68
2, 240160, Note_on_c, 0, 74, 53
2, 240384, Note_on_c, 0, 74, 0
2, 240480, Note_on_c, 0, 86, 0
2, 240528, Note_on_c, 0, 62, 35
2, 240536, Note_on_c, 0, 63, 33
2, 240552, Note_on_c, 0, 67, 24
2, 240576, Note_on_c, 0, 57, 29
2, 240624, Control_c, 0, 64, 0
2, 240768, Note_on_c, 0, 77, 54
2, 240784, Note_on_c, 0, 89, 60
2, 240944, Control_c, 0, 64, 127
2, 241240, Note_on_c, 0, 89, 0
2, 241312, Note_on_c, 0, 63, 0
2, 241344, Note_on_c, 0, 62, 0
2, 241344, Note_on_c, 0, 67, 0
2, 241368, Note_on_c, 0, 77, 0
2, 241784, Note_on_c, 0, 86, 53
2, 241792, Note_on_c, 0, 62, 28
2, 241808, Note_on_c, 0, 63, 32
2, 241816, Note_on_c, 0, 74, 37
2, 241840, Note_on_c, 0, 67, 28
2, 242472, Note_on_c, 0, 67, 0
2, 242512, Note_on_c, 0, 63, 0
2, 242656, Note_on_c, 0, 62, 0
2, 242840, Note_on_c, 0, 74, 0
2, 242944, Note_on_c, 0, 62, 18
2, 242976, Note_on_c, 0, 63, 36
2, 243000, Note_on_c, 0, 67, 31
2, 243008, Note_on_c, 0, 86, 0
2, 243360, Note_on_c, 0, 67, 0
2, 243360, Note_on_c, 0, 62, 0
2, 243472, Note_on_c, 0, 63, 0
2, 243600, Note_on_c, 0, 57, 0
2, 243760, Note_on_c, 0, 84, 95
2, 244240, Note_on_c, 0, 65, 24
2, 244240, Note_on_c, 0, 62, 28
2, 244248, Note_on_c, 0, 85, 47
2, 244256, Control_c, 0, 64, 0
2, 244272, Note_on_c, 0, 60, 28
2, 244344, Note_on_c, 0, 84, 0
2, 244400, Note_on_c, 0, 85, 0
2, 244416, Note_on_c, 0, 86, 68
2, 244552, Note_on_c, 0, 86, 0
2, 244568, Note_on_c, 0, 65, 0
2, 244632, Note_on_c, 0, 89, 68
2, 244632, Note_on_c, 0, 77, 66
2, 244720, Control_c, 0, 64, 127
2, 245096, Note_on_c, 0, 89, 0
2, 245128, Note_on_c, 0, 77, 0
2, 245504, Note_on_c, 0, 53, 34
2, 245504, Note_on_c, 0, 89, 56
2, 245528, Note_on_c, 0, 77, 42
2, 245752, Note_on_c, 0, 89, 0
2, 245784, Note_on_c, 0, 60, 0
2, 245952, Note_on_c, 0, 62, 0
2, 246080, Note_on_c, 0, 77, 0
2, 246728, Note_on_c, 0, 62, 27
2, 246736, Note_on_c, 0, 65, 27
2, 246776, Note_on_c, 0, 60, 30
2, 246912, Note_on_c, 0, 65, 0
2, 246992, Note_on_c, 0, 60, 0
2, 247024, Note_on_c, 0, 62, 0
2, 247232, Note_on_c, 0, 53, 0
2, 247880, Control_c, 0, 64, 0
2, 247920, Note_on_c, 0, 50, 44
2, 247952, Note_on_c, 0, 60, 32
2, 247960, Note_on_c, 0, 54, 33
2, 248088, Control_c, 0, 64, 127
2, 248336, Note_on_c, 0, 50, 0
2, 248408, Note_on_c, 0, 54, 0
2, 248448, Note_on_c, 0, 60, 0
2, 249216, Note_on_c, 0, 65, 45
2, 249216, Note_on_c, 0, 54, 37
2, 249264, Note_on_c, 0, 58, 34
2, 249264, Note_on_c, 0, 60, 42
2, 249432, Control_c, 0, 64, 0
2, 249568, Note_on_c, 0, 93, 64
2, 249648, Note_on_c, 0, 93, 0
2, 249704, Note_on_c, 0, 94, 65
2, 249736, Note_on_c, 0, 65, 0
2, 249856, Note_on_c, 0, 93, 68
2, 249904, Note_on_c, 0, 94, 0
2, 249952, Note_on_c, 0, 58, 0
2, 249976, Note_on_c, 0, 93, 0
2, 249984, Note_on_c, 0, 60, 0
2, 250032, Note_on_c, 0, 91, 60
2, 250040, Control_c, 0, 64, 127
2, 250120, Note_on_c, 0, 91, 0
2, 250288, Note_on_c, 0, 90, 69
2, 250416, Note_on_c, 0, 90, 0
2, 250528, Note_on_c, 0, 87, 74
2, 250608, Control_c, 0, 64, 0
2, 250624, Note_on_c, 0, 65, 38
2, 250648, Note_on_c, 0, 58, 27
2, 250648, Note_on_c, 0, 60, 36
2, 250672, Note_on_c, 0, 87, 0
2, 250808, Note_on_c, 0, 86, 79
2, 250944, Note_on_c, 0, 65, 0
2, 250944, Control_c, 0, 64, 127
2, 250976, Note_on_c, 0, 60, 0
2, 250992, Note_on_c, 0, 86, 0
2, 251088, Note_on_c, 0, 84, 55
2, 251160, Note_on_c, 0, 84, 0
2, 251288, Note_on_c, 0, 54, 0
2, 251312, Note_on_c, 0, 82, 57
2, 251344, Note_on_c, 0, 58, 0
2, 251472, Note_on_c, 0, 82, 0
2, 251592, Note_on_c, 0, 81, 64
2, 251752, Note_on_c, 0, 81, 0
2, 251840, Control_c, 0, 64, 0
2, 251840, Note_on_c, 0, 84, 62
2, 251904, Note_on_c, 0, 57, 32
2, 251912, Note_on_c, 0, 62, 28
2, 251912, Note_on_c, 0, 55, 34
2, 251920, Note_on_c, 0, 58, 28
2, 252040, Note_on_c, 0, 84, 0
2, 252152, Note_on_c, 0, 81, 37
2, 252264, Note_on_c, 0, 81, 0
2, 252416, Note_on_c, 0, 82, 52
2, 252584, Note_on_c, 0, 82, 0
2, 252736, Control_c, 0, 64, 127
2, 252744, Note_on_c, 0, 78, 33
2, 252872, Note_on_c, 0, 78, 0
2, 252960, Note_on_c, 0, 57, 0
2, 252976, Note_on_c, 0, 58, 0
2, 252992, Note_on_c, 0, 81, 66
2, 253000, Note_on_c, 0, 62, 0
2, 253192, Note_on_c, 0, 81, 0
2, 253272, Note_on_c, 0, 79, 54
2, 253288, Control_c, 0, 64, 0
2, 253296, Note_on_c, 0, 62, 30
2, 253320, Note_on_c, 0, 57, 24
2, 253344, Note_on_c, 0, 58, 28
2, 253488, Note_on_c, 0, 79, 0
2, 253576, Control_c, 0, 64, 127
2, 253616, Note_on_c, 0, 74, 36
2, 253736, Note_on_c, 0, 74, 0
2, 253848, Note_on_c, 0, 57, 0
2, 253928, Note_on_c, 0, 62, 0
2, 253976, Note_on_c, 0, 58, 0
2, 253992, Note_on_c, 0, 70, 29
2, 254144, Note_on_c, 0, 70, 0
2, 254304, Note_on_c, 0, 69, 39
2, 254648, Control_c, 0, 64, 0
2, 254656, Note_on_c, 0, 62, 35
2, 254712, Note_on_c, 0, 57, 22
2, 254712, Note_on_c, 0, 58, 25
2, 254808, Control_c, 0, 64, 127
2, 255112, Note_on_c, 0, 57, 0
2, 255144, Note_on_c, 0, 55, 0
2, 255152, Note_on_c, 0, 70, 59
2, 255200, Note_on_c, 0, 58, 0
2, 255240, Note_on_c, 0, 62, 0
2, 255280, Note_on_c, 0, 69, 0
2, 255344, Note_on_c, 0, 70, 0
2, 255520, Note_on_c, 0, 71, 91
2, 255752, Note_on_c, 0, 71, 0
2, 255904, Note_on_c, 0, 71, 68
2, 255960, Note_on_c, 0, 65, 41
2, 255968, Note_on_c, 0, 61, 35
2, 255968, Note_on_c, 0, 60, 48
2, 255968, Note_on_c, 0, 55, 44
2, 256032, Control_c, 0, 64, 0
2, 256088, Note_on_c, 0, 72, 71
2, 256120, Note_on_c, 0, 71, 0
2, 256432, Control_c, 0, 64, 127
2, 256720, Note_on_c, 0, 65, 0
2, 256736, Note_on_c, 0, 60, 0
2, 256792, Note_on_c, 0, 69, 52
2, 256888, Note_on_c, 0, 55, 0
2, 256928, Note_on_c, 0, 61, 0
2, 257192, Note_on_c, 0, 69, 0
2, 257224, Note_on_c, 0, 72, 0
2, 257256, Note_on_c, 0, 69, 20
2, 257280, Note_on_c, 0, 65, 49
2, 257288, Note_on_c, 0, 61, 45
2, 257296, Note_on_c, 0, 55, 37
2, 257312, Control_c, 0, 64, 0
2, 257520, Control_c, 0, 64, 127
2, 257728, Note_on_c, 0, 55, 0
2, 258208, Note_on_c, 0, 65, 0
2, 258224, Note_on_c, 0, 61, 0
2, 258512, Note_on_c, 0, 69, 0
2, 258544, Note_on_c, 0, 61, 36
2, 258568, Note_on_c, 0, 65, 42
2, 259296, Note_on_c, 0, 61, 0
2, 259304, Note_on_c, 0, 65, 0
2, 259416, Note_on_c, 0, 52, 22
2, 259712, Note_on_c, 0, 52, 0
2, 259768, Control_c, 0, 64, 0
2, 259816, Note_on_c, 0, 69, 37
2, 259824, Note_on_c, 0, 64, 32
2, 259832, Note_on_c, 0, 60, 26
2, 259840, Note_on_c, 0, 45, 28
2, 260024, Control_c, 0, 64, 127
2, 260184, Note_on_c, 0, 45, 0
2, 260352, Note_on_c, 0, 60, 0
2, 260368, Note_on_c, 0, 64, 0
2, 260440, Note_on_c, 0, 69, 0
2, 261024, Note_on_c, 0, 62, 46
2, 261032, Note_on_c, 0, 67, 52
2, 261032, Note_on_c, 0, 72, 36
2, 261064, Note_on_c, 0, 57, 36
2, 261080, Control_c, 0, 64, 0
2, 261200, Note_on_c, 0, 62, 0
2, 261232, Note_on_c, 0, 72, 0
2, 261256, Note_on_c, 0, 67, 0
2, 261312, Note_on_c, 0, 57, 0
2, 261432, Note_on_c, 0, 56, 27
2, 261712, Note_on_c, 0, 56, 0
2, 261768, Note_on_c, 0, 67, 53
2, 261768, Note_on_c, 0, 62, 48
2, 261784, Note_on_c, 0, 72, 33
2, 261808, Note_on_c, 0, 57, 36
2, 262240, Control_c, 0, 64, 127
2, 262256, Note_on_c, 0, 57, 0
2, 262256, Note_on_c, 0, 72, 0
2, 262280, Note_on_c, 0, 67, 0
2, 262408, Note_on_c, 0, 62, 0
2, 262944, Note_on_c, 0, 60, 33
2, 262952, Note_on_c, 0, 69, 31
2, 262960, Note_on_c, 0, 64, 34
2, 263048, Note_on_c, 0, 60, 0
2, 263088, Note_on_c, 0, 69, 0
2, 263096, Note_on_c, 0, 64, 0
2, 263688, Note_on_c, 0, 54, 34
2, 263696, Control_c, 0, 64, 0
2, 263712, Note_on_c, 0, 50, 29
2, 263720, Note_on_c, 0, 72, 48
2, 263728, Note_on_c, 0, 66, 40
2, 263768, Note_on_c, 0, 64, 37
2, 263776, Note_on_c, 0, 60, 24
2, 264096, Control_c, 0, 64, 127
2, 264360, Note_on_c, 0, 64, 0
2, 264472, Note_on_c, 0, 60, 0
2, 264696, Note_on_c, 0, 66, 0
2, 265000, Note_on_c, 0, 63, 38
2, 265016, Note_on_c, 0, 66, 32
2, 265096, Note_on_c, 0, 60, 24
2, 265320, Note_on_c, 0, 60, 0
2, 265496, Note_on_c, 0, 50, 0
2, 265504, Note_on_c, 0, 63, 0
2, 265536, Note_on_c, 0, 54, 0
2, 265624, Note_on_c, 0, 72, 0
2, 265632, Note_on_c, 0, 66, 0
2, 266216, Note_on_c, 0, 44, 38
2, 266216, Note_on_c, 0, 54, 28
2, 266256, Note_on_c, 0, 64, 34
2, 266264, Note_on_c, 0, 69, 32
2, 266280, Control_c, 0, 64, 0
2, 266320, Note_on_c, 0, 59, 10
2, 266408, Control_c, 0, 64, 127
2, 266784, Note_on_c, 0, 59, 0
2, 266792, Note_on_c, 0, 54, 0
2, 266856, Note_on_c, 0, 44, 0
2, 266864, Note_on_c, 0, 64, 0
2, 267080, Note_on_c, 0, 69, 0
2, 267504, Control_c, 0, 64, 0
2, 267544, Note_on_c, 0, 67, 32
2, 267544, Note_on_c, 0, 43, 31
2, 267568, Note_on_c, 0, 53, 20
2, 267592, Note_on_c, 0, 59, 24
2, 267600, Note_on_c, 0, 64, 41
2, 267680, Control_c, 0, 64, 127
2, 267816, Note_on_c, 0, 67, 0
2, 267824, Note_on_c, 0, 64, 0
2, 267840, Note_on_c, 0, 53, 0
2, 267848, Note_on_c, 0, 59, 0
2, 267992, Note_on_c, 0, 43, 0
2, 268368, Note_on_c, 0, 47, 56
2, 268464, Note_on_c, 0, 48, 29
2, 268472, Note_on_c, 0, 47, 0
2, 268528, Note_on_c, 0, 48, 0
2, 268528, Note_on_c, 0, 45, 51
2, 268592, Note_on_c, 0, 45, 0
2, 268608, Note_on_c, 0, 50, 46
2, 268640, Note_on_c, 0, 47, 57
2, 268656, Note_on_c, 0, 50, 0
2, 268696, Note_on_c, 0, 47, 0
2, 268704, Note_on_c, 0, 52, 50
2, 268760, Note_on_c, 0, 52, 0
2, 268768, Note_on_c, 0, 48, 57
2, 268824, Note_on_c, 0, 48, 0
2, 268824, Note_on_c, 0, 53, 59
2, 268872, Note_on_c, 0, 50, 69
2, 268880, Note_on_c, 0, 53, 0
2, 268928, Note_on_c, 0, 50, 0
2, 268936, Note_on_c, 0, 55, 66
2, 268984, Note_on_c, 0, 52, 62
2, 268992, Note_on_c, 0, 55, 0
2, 269032, Note_on_c, 0, 52, 0
2, 269032, Note_on_c, 0, 57, 64
2, 269088, Note_on_c, 0, 57, 0
2, 269088, Note_on_c, 0, 53, 65
2, 269128, Note_on_c, 0, 59, 62
2, 269144, Note_on_c, 0, 53, 0
2, 269184, Note_on_c, 0, 59, 0
2, 269192, Note_on_c, 0, 55, 68
2, 269232, Note_on_c, 0, 60, 68
2, 269248, Note_on_c, 0, 55, 0
2, 269248, Control_c, 0, 64, 0
2, 269288, Note_on_c, 0, 60, 0
2, 269288, Note_on_c, 0, 57, 64
2, 269320, Note_on_c, 0, 62, 58
2, 269344, Note_on_c, 0, 57, 0
2, 269384, Note_on_c, 0, 59, 65
2, 269408, Note_on_c, 0, 64, 55
2, 269416, Note_on_c, 0, 62, 0
2, 269440, Note_on_c, 0, 59, 0
2, 269480, Note_on_c, 0, 60, 65
2, 269488, Note_on_c, 0, 64, 0
2, 269512, Note_on_c, 0, 65, 62
2, 269536, Note_on_c, 0, 60, 0
2, 269568, Note_on_c, 0, 65, 0
2, 269576, Note_on_c, 0, 62, 63
2, 269600, Note_on_c, 0, 67, 62
2, 269632, Note_on_c, 0, 62, 0
2, 269656, Note_on_c, 0, 64, 55
2, 269672, Note_on_c, 0, 67, 0
2, 269696, Note_on_c, 0, 69, 56
2, 269712, Note_on_c, 0, 64, 0
2, 269760, Note_on_c, 0, 65, 60
2, 269776, Note_on_c, 0, 69, 0
2, 269792, Note_on_c, 0, 71, 50
2, 269816, Note_on_c, 0, 65, 0
2, 269856, Note_on_c, 0, 67, 51
2, 269888, Note_on_c, 0, 71, 0
2, 269896, Note_on_c, 0, 72, 57
2, 269912, Note_on_c, 0, 67, 0
2, 269968, Note_on_c, 0, 69, 48
2, 269976, Note_on_c, 0, 72, 0
2, 270000, Note_on_c, 0, 74, 44
2, 270032, Note_on_c, 0, 69, 0
2, 270080, Note_on_c, 0, 71, 39
2, 270104, Note_on_c, 0, 74, 0
2, 270112, Note_on_c, 0, 76, 51
2, 270160, Note_on_c, 0, 71, 0
2, 270216, Note_on_c, 0, 72, 36
2, 270232, Note_on_c, 0, 76, 0
2, 270248, Note_on_c, 0, 77, 51
2, 270304, Note_on_c, 0, 72, 0
2, 270352, Note_on_c, 0, 74, 32
2, 270384, Note_on_c, 0, 77, 0
2, 270400, Note_on_c, 0, 79, 35
2, 270456, Control_c, 0, 64, 127
2, 270464, Note_on_c, 0, 74, 0
2, 270528, Note_on_c, 0, 76, 44
2, 270536, Note_on_c, 0, 79, 0
2, 270560, Note_on_c, 0, 81, 34
2, 270592, Note_on_c, 0, 76, 0
2, 270664, Note_on_c, 0, 77, 49
2, 270680, Note_on_c, 0, 83, 22
2, 270712, Note_on_c, 0, 81, 0
2, 270736, Note_on_c, 0, 77, 0
2, 270808, Note_on_c, 0, 79, 30
2, 270824, Note_on_c, 0, 83, 0
2, 270832, Note_on_c, 0, 84, 34
2, 270880, Note_on_c, 0, 79, 0
2, 270928, Note_on_c, 0, 84, 0
2, 270944, Note_on_c, 0, 81, 37
2, 270952, Note_on_c, 0, 86, 40
2, 271016, Note_on_c, 0, 81, 0
2, 271032, Note_on_c, 0, 86, 0
2, 271048, Note_on_c, 0, 83, 24
2, 271072, Note_on_c, 0, 88, 40
2, 271112, Note_on_c, 0, 83, 0
2, 271176, Note_on_c, 0, 88, 0
2, 271184, Note_on_c, 0, 84, 31
2, 271200, Note_on_c, 0, 89, 46
2, 271248, Note_on_c, 0, 84, 0
2, 271312, Note_on_c, 0, 89, 0
2, 271320, Note_on_c, 0, 86, 26
2, 271344, Note_on_c, 0, 91, 42
2, 271376, Note_on_c, 0, 86, 0
2, 271400, Note_on_c, 0, 33, 44
2, 271416, Note_on_c, 0, 45, 28
2, 271432, Control_c, 0, 64, 0
2, 271456, Note_on_c, 0, 91, 0
2, 271512, Note_on_c, 0, 93, 49
2, 271720, Control_c, 0, 64, 127
2, 271920, Note_on_c, 0, 33, 0
2, 272016, Note_on_c, 0, 45, 0
2, 272120, Note_on_c, 0, 93, 0
2, 272520, Note_on_c, 0, 54, 20
2, 272624, Note_on_c, 0, 54, 0
2, 272816, Note_on_c, 0, 61, 34
2, 272824, Note_on_c, 0, 66, 32
2, 272880, Note_on_c, 0, 55, 32
2, 273240, Note_on_c, 0, 72, 48
2, 273528, Note_on_c, 0, 72, 0
2, 273528, Note_on_c, 0, 73, 51
2, 273664, Note_on_c, 0, 73, 0
2, 273792, Note_on_c, 0, 77, 58
2, 274048, Note_on_c, 0, 77, 0
2, 274056, Note_on_c, 0, 82, 56
2, 274216, Note_on_c, 0, 82, 0
2, 274376, Note_on_c, 0, 84, 52
2, 274680, Note_on_c, 0, 89, 55
2, 274688, Note_on_c, 0, 84, 0
2, 274976, Note_on_c, 0, 89, 0
2, 275008, Note_on_c, 0, 94, 56
2, 275328, Note_on_c, 0, 94, 0
2, 275352, Note_on_c, 0, 96, 48
2, 275632, Note_on_c, 0, 96, 0
2, 275832, Note_on_c, 0, 96, 45
2, 276200, Note_on_c, 0, 96, 0
2, 276288, Note_on_c, 0, 94, 46
2, 276712, Note_on_c, 0, 94, 0
2, 276880, Note_on_c, 0, 94, 49
2, 277456, Note_on_c, 0, 89, 39
2, 277864, Note_on_c, 0, 89, 0
2, 278096, Note_on_c, 0, 89, 48
2, 279368, Note_on_c, 0, 94, 0
2, 280352, Note_on_c, 0, 89, 0
2, 282128, Note_on_c, 0, 88, 83
2, 282344, Note_on_c, 0, 55, 0
2, 282352, Note_on_c, 0, 66, 0
2, 282448, Note_on_c, 0, 88, 0
2, 282624, Note_on_c, 0, 61, 0
2, 282664, Note_on_c, 0, 87, 78
2, 282856, Note_on_c, 0, 87, 0
2, 283296, Note_on_c, 0, 86, 71
2, 283328, Note_on_c, 0, 74, 32
2, 283336, Note_on_c, 0, 50, 35
2, 283352, Note_on_c, 0, 58, 25
2, 283352, Control_c, 0, 64, 0
2, 283608, Control_c, 0, 64, 127
2, 283792, Note_on_c, 0, 58, 0
2, 283816, Note_on_c, 0, 86, 0
2, 283960, Note_on_c, 0, 74, 0
2, 284024, Note_on_c, 0, 58, 32
2, 284648, Note_on_c, 0, 65, 36
2, 284664, Note_on_c, 0, 62, 37
2, 285176, Note_on_c, 0, 58, 0
2, 285272, Note_on_c, 0, 65, 0
2, 285736, Note_on_c, 0, 62, 0
2, 286024, Note_on_c, 0, 58, 36
2, 286024, Note_on_c, 0, 77, 52
2, 286056, Note_on_c, 0, 62, 42
2, 286080, Note_on_c, 0, 65, 39
2, 286080, Note_on_c, 0, 70, 33
2, 286280, Note_on_c, 0, 50, 0
2, 286328, Note_on_c, 0, 62, 0
2, 286544, Note_on_c, 0, 70, 0
2, 286552, Note_on_c, 0, 65, 0
2, 286656, Note_on_c, 0, 77, 0
2, 286744, Note_on_c, 0, 74, 46
2, 286760, Note_on_c, 0, 58, 0
2, 286760, Note_on_c, 0, 50, 30
2, 286824, Note_on_c, 0, 74, 0
2, 286872, Note_on_c, 0, 50, 0
2, 287592, Note_on_c, 0, 81, 44
2, 287624, Note_on_c, 0, 27, 40
2, 287624, Control_c, 0, 64, 0
2, 287624, Note_on_c, 0, 39, 35
2, 287632, Note_on_c, 0, 73, 25
2, 287640, Note_on_c, 0, 77, 44
2, 287952, Note_on_c, 0, 27, 0
2, 287960, Control_c, 0, 64, 127
2, 288032, Note_on_c, 0, 39, 0
2, 288720, Note_on_c, 0, 73, 0
2, 288912, Note_on_c, 0, 77, 0
2, 289144, Note_on_c, 0, 73, 13
2, 289160, Note_on_c, 0, 61, 21
2, 289168, Note_on_c, 0, 65, 29
2, 289200, Note_on_c, 0, 55, 32
2, 289648, Note_on_c, 0, 55, 0
2, 289656, Note_on_c, 0, 65, 0
2, 289816, Note_on_c, 0, 73, 0
2, 290064, Note_on_c, 0, 61, 0
2, 290840, Note_on_c, 0, 61, 23
2, 290848, Note_on_c, 0, 73, 14
2, 290864, Note_on_c, 0, 67, 30
2, 290864, Note_on_c, 0, 69, 29
2, 290880, Note_on_c, 0, 55, 27
2, 290904, Note_on_c, 0, 65, 27
2, 292128, Note_on_c, 0, 81, 0
2, 292752, Note_on_c, 0, 65, 0
2, 292912, Note_on_c, 0, 69, 0
2, 292928, Note_on_c, 0, 67, 0
2, 293016, Note_on_c, 0, 55, 0
2, 293016, Note_on_c, 0, 79, 66
2, 293128, Note_on_c, 0, 61, 0
2, 293272, Note_on_c, 0, 79, 0
2, 293336, Note_on_c, 0, 73, 0
2, 293760, Note_on_c, 0, 77, 69
2, 293808, Note_on_c, 0, 61, 55
2, 293824, Note_on_c, 0, 69, 68
2, 293848, Control_c, 0, 64, 0
2, 294072, Control_c, 0, 64, 127
2, 294504, Note_on_c, 0, 69, 0
2, 294688, Note_on_c, 0, 77, 0
2, 294704, Note_on_c, 0, 61, 0
2, 295080, Note_on_c, 0, 65, 47
2, 295096, Note_on_c, 0, 69, 48
2, 295128, Note_on_c, 0, 60, 33
2, 295160, Control_c, 0, 64, 0
2, 295288, Control_c, 0, 64, 127
2, 295552, Note_on_c, 0, 69, 0
2, 295632, Note_on_c, 0, 65, 0
2, 295928, Note_on_c, 0, 60, 0
2, 296136, Note_on_c, 0, 62, 58
2, 296176, Note_on_c, 0, 57, 38
2, 296504, Note_on_c, 0, 57, 0
2, 296752, Note_on_c, 0, 62, 0
2, 297208, Note_on_c, 0, 59, 39
2, 297216, Note_on_c, 0, 64, 47
2, 297256, Note_on_c, 0, 69, 34
2, 297256, Note_on_c, 0, 53, 32
2, 297272, Note_on_c, 0, 43, 28
2, 297280, Control_c, 0, 64, 0
2, 297616, Control_c, 0, 64, 127
2, 298136, Note_on_c, 0, 64, 0
2, 298264, Note_on_c, 0, 53, 0
2, 298448, Note_on_c, 0, 59, 0
2, 298920, Note_on_c, 0, 53, 32
2, 299800, Note_on_c, 0, 53, 0
2, 300400, Note_on_c, 0, 69, 0
2, 300544, Note_on_c, 0, 65, 54
2, 300560, Note_on_c, 0, 59, 48
2, 300568, Note_on_c, 0, 62, 50
2, 300576, Note_on_c, 0, 53, 36
2, 300856, Note_on_c, 0, 53, 0
2, 301112, Note_on_c, 0, 65, 0
2, 301120, Note_on_c, 0, 43, 0
2, 301208, Note_on_c, 0, 62, 0
2, 301264, Note_on_c, 0, 59, 0
2, 302200, Note_on_c, 0, 62, 61
2, 302208, Note_on_c, 0, 53, 59
2, 302216, Note_on_c, 0, 24, 45
2, 302216, Note_on_c, 0, 58, 55
2, 302240, Note_on_c, 0, 36, 37
2, 302304, Control_c, 0, 64, 0
2, 302656, Control_c, 0, 64, 127
2, 303208, Note_on_c, 0, 36, 0
2, 303424, Note_on_c, 0, 24, 0
2, 303496, Note_on_c, 0, 53, 0
2, 303600, Note_on_c, 0, 58, 0
2, 304128, Note_on_c, 0, 58, 35
2, 304160, Note_on_c, 0, 53, 34
2, 304208, Note_on_c, 0, 48, 30
2, 304800, Note_on_c, 0, 48, 0
2, 305624, Note_on_c, 0, 53, 0
2, 305744, Note_on_c, 0, 58, 0
2, 305832, Note_on_c, 0, 62, 0
2, 306168, Note_on_c, 0, 60, 59
2, 306168, Note_on_c, 0, 52, 50
2, 306200, Note_on_c, 0, 58, 42
2, 306208, Note_on_c, 0, 48, 36
2, 306256, Control_c, 0, 64, 0
2, 306416, Control_c, 0, 64, 127
2, 306752, Note_on_c, 0, 52, 0
2, 306824, Note_on_c, 0, 48, 0
2, 306872, Note_on_c, 0, 60, 0
2, 307016, Note_on_c, 0, 58, 0
2, 308536, Note_on_c, 0, 67, 74
2, 308616, Note_on_c, 0, 58, 69
2, 308632, Control_c, 0, 64, 0
2, 308640, Note_on_c, 0, 48, 46
2, 308640, Note_on_c, 0, 36, 39
2, 308728, Note_on_c, 0, 36, 0
2, 308888, Control_c, 0, 64, 127
2, 309640, Note_on_c, 0, 36, 49
2, 309752, Note_on_c, 0, 58, 0
2, 309832, Note_on_c, 0, 67, 0
2, 310120, Note_on_c, 0, 48, 0
2, 310544, Note_on_c, 0, 69, 68
2, 310592, Note_on_c, 0, 48, 36
2, 310624, Note_on_c, 0, 60, 55
2, 311032, Note_on_c, 0, 36, 0
2, 311432, Note_on_c, 0, 48, 0
2, 311656, Note_on_c, 0, 60, 0
2, 311704, Note_on_c, 0, 69, 0
2, 313096, Note_on_c, 0, 70, 47
2, 313144, Note_on_c, 0, 62, 39
2, 313152, Note_on_c, 0, 48, 31
2, 313160, Note_on_c, 0, 58, 26
2, 313248, Control_c, 0, 64, 0
2, 313584, Control_c, 0, 64, 127
2, 314384, Note_on_c, 0, 48, 0
2, 314456, Note_on_c, 0, 58, 0
2, 314936, Note_on_c, 0, 62, 0
2, 314984, Note_on_c, 0, 70, 0
2, 315808, Note_on_c, 0, 69, 48
2, 315816, Note_on_c, 0, 60, 41
2, 315816, Control_c, 0, 64, 0
2, 315824, Note_on_c, 0, 41, 33
2, 315832, Note_on_c, 0, 48, 28
2, 316024, Control_c, 0, 64, 127
2, 316264, Note_on_c, 0, 69, 0
2, 316424, Note_on_c, 0, 60, 0
2, 317544, Note_on_c, 0, 65, 35
2, 317560, Note_on_c, 0, 57, 31
2, 317560, Note_on_c, 0, 53, 29
2, 318824, Note_on_c, 0, 41, 0
2, 319520, Note_on_c, 0, 57, 0
2, 319776, Note_on_c, 0, 41, 31
2, 319800, Note_on_c, 0, 65, 0
2, 320216, Note_on_c, 0, 41, 0
2, 320480, Note_on_c, 0, 58, 48
2, 320488, Note_on_c, 0, 62, 42
2, 320520, Note_on_c, 0, 48, 0
2, 320520, Note_on_c, 0, 41, 35
2, 320520, Control_c, 0, 64, 0
2, 320608, Note_on_c, 0, 53, 0
2, 320680, Control_c, 0, 64, 127
2, 320736, Note_on_c, 0, 58, 0
2, 320752, Note_on_c, 0, 62, 0
2, 321264, Note_on_c, 0, 41, 0
2, 321288, Note_on_c, 0, 53, 38
2, 321952, Note_on_c, 0, 77, 63
2, 321952, Note_on_c, 0, 58, 31
2, 321976, Note_on_c, 0, 53, 0
2, 321976, Note_on_c, 0, 70, 64
2, 322448, Note_on_c, 0, 70, 0
2, 322568, Note_on_c, 0, 77, 0
2, 322648, Note_on_c, 0, 70, 34
2, 322656, Note_on_c, 0, 65, 44
2, 322664, Note_on_c, 0, 74, 51
2, 322680, Note_on_c, 0, 62, 38
2, 322728, Note_on_c, 0, 65, 0
2, 322776, Note_on_c, 0, 70, 0
2, 322832, Note_on_c, 0, 74, 0
2, 322952, Note_on_c, 0, 62, 0
2, 323392, Note_on_c, 0, 86, 74
2, 323416, Note_on_c, 0, 77, 46
2, 323424, Note_on_c, 0, 67, 33
2, 323664, Note_on_c, 0, 86, 0
2, 323760, Note_on_c, 0, 77, 0
2, 324016, Note_on_c, 0, 67, 0
2, 324208, Note_on_c, 0, 62, 29
2, 324384, Note_on_c, 0, 62, 0
2, 324696, Note_on_c, 0, 82, 53
2, 324736, Note_on_c, 0, 74, 33
2, 324944, Note_on_c, 0, 74, 0
2, 325096, Note_on_c, 0, 82, 0
2, 325144, Note_on_c, 0, 58, 0
2, 325240, Note_on_c, 0, 53, 39
2, 325248, Control_c, 0, 64, 0
2, 325256, Note_on_c, 0, 82, 46
2, 325280, Note_on_c, 0, 74, 46
2, 325512, Control_c, 0, 64, 127
2, 325696, Note_on_c, 0, 74, 0
2, 325760, Note_on_c, 0, 82, 0
2, 325912, Note_on_c, 0, 81, 66
2, 325944, Note_on_c, 0, 72, 36
2, 325944, Note_on_c, 0, 60, 28
2, 326088, Note_on_c, 0, 81, 0
2, 326128, Note_on_c, 0, 72, 0
2, 326632, Note_on_c, 0, 77, 51
2, 326672, Note_on_c, 0, 65, 29
2, 326672, Note_on_c, 0, 69, 37
2, 326872, Note_on_c, 0, 77, 0
2, 326936, Note_on_c, 0, 60, 0
2, 327048, Note_on_c, 0, 65, 0
2, 327104, Note_on_c, 0, 69, 0
2, 327400, Note_on_c, 0, 60, 25
2, 327512, Note_on_c, 0, 60, 0
2, 327712, Note_on_c, 0, 53, 0
2, 328128, Note_on_c, 0, 72, 32
2, 328176, Note_on_c, 0, 60, 26
2, 328176, Note_on_c, 0, 53, 34
2, 328176, Note_on_c, 0, 65, 20
2, 328480, Note_on_c, 0, 72, 0
2, 328528, Note_on_c, 0, 65, 0
2, 328824, Note_on_c, 0, 60, 0
2, 328952, Note_on_c, 0, 48, 26
2, 329712, Note_on_c, 0, 48, 0
2, 329712, Note_on_c, 0, 65, 37
2, 329712, Note_on_c, 0, 41, 45
2, 329728, Note_on_c, 0, 58, 26
2, 329728, Note_on_c, 0, 62, 38
2, 329744, Note_on_c, 0, 57, 20
2, 329776, Control_c, 0, 64, 0
2, 330144, Note_on_c, 0, 53, 0
2, 330144, Control_c, 0, 64, 127
2, 330360, Note_on_c, 0, 41, 0
2, 330736, Note_on_c, 0, 57, 0
2, 330880, Note_on_c, 0, 62, 0
2, 330888, Note_on_c, 0, 58, 0
2, 331328, Note_on_c, 0, 65, 0
2, 331496, Note_on_c, 0, 62, 31
2, 331512, Note_on_c, 0, 57, 27
2, 331512, Note_on_c, 0, 58, 32
2, 331536, Note_on_c, 0, 41, 26
2, 332336, Note_on_c, 0, 57, 0
2, 332616, Note_on_c, 0, 58, 0
2, 332640, Note_on_c, 0, 62, 0
2, 332832, Note_on_c, 0, 41, 0
2, 333416, Note_on_c, 0, 62, 33
2, 333424, Note_on_c, 0, 58, 25
2, 333440, Note_on_c, 0, 57, 27
2, 333512, Note_on_c, 0, 41, 13
2, 333952, Note_on_c, 0, 62, 0
2, 333976, Note_on_c, 0, 41, 0
2, 334320, Note_on_c, 0, 57, 0
2, 334344, Note_on_c, 0, 58, 0
2, 336104, Note_on_c, 0, 29, 27
2, 336112, Note_on_c, 0, 41, 22
2, 336128, Note_on_c, 0, 60, 29
2, 336256, Control_c, 0, 64, 0
2, 336368, Note_on_c, 0, 52, 1
2, 336952, Control_c, 0, 64, 127
2, 337320, Note_on_c, 0, 52, 0
2, 338520, Note_on_c, 0, 60, 0
2, 339192, Note_on_c, 0, 41, 0
2, 339224, Note_on_c, 0, 29, 0
2, 340752, Control_c, 0, 64, 0
2, 340752, End_track
0, 0, End_of_file
