0, 0, Header, 1, 4, 960
1, 0, Start_track
1, 0, Title_t, "'Renewal' by Monty Alexander"
1, 0, Copyright_t, " "
1, 0, Text_t, "Doug McKenzie\012"
1, 0, Text_t, "dougmck@pipeline.com.au - attempt at reggae feel on a couple of choruses!\012"
1, 0, Time_signature, 4, 2, 24, 8
1, 0, Key_signature, 1, "major"
1, 0, Tempo, 923077
1, 939, Marker_t, "Rubato opening"
1, 38718, Marker_t, "Bottom note descends chromatically to tonic (E)"
1, 62824, Marker_t, "Alternative changes Am7/D,Dbm7b5,C7,B7alt"
1, 99840, Marker_t, "In Tempo"
1, 222720, Marker_t, "2 Choruses with reggae feel!"
1, 224540, Marker_t, "Piano chords in LH are on 'ands'"
1, 258480, Marker_t, "Rising line - follows mixolydian scales in 3rds with leading tones"
1, 315213, Marker_t, "RH white note glissando  on G7sus - using 2 fingers"
1, 345618, Marker_t, "Swing feel"
1, 345618, End_track
2, 0, Start_track
2, 0, Title_t, "Piano"
2, 0, Control_c, 0, 7, 98
2, 537, Control_c, 0, 64, 127
2, 537, Control_c, 0, 64, 0
2, 537, Control_c, 0, 64, 127
2, 1118, Note_on_c, 0, 86, 50
2, 1125, Note_on_c, 0, 64, 41
2, 1133, Control_c, 0, 64, 0
2, 1360, Control_c, 0, 64, 127
2, 2068, Note_on_c, 0, 69, 7
2, 2304, Note_on_c, 0, 74, 39
2, 2487, Note_on_c, 0, 78, 33
2, 2517, Note_on_c, 0, 86, 0
2, 2644, Note_on_c, 0, 78, 0
2, 2701, Note_on_c, 0, 81, 42
2, 2896, Note_on_c, 0, 86, 58
2, 2897, Note_on_c, 0, 81, 0
2, 2980, Note_on_c, 0, 86, 0
2, 3104, Note_on_c, 0, 64, 0
2, 3113, Note_on_c, 0, 90, 55
2, 3273, Note_on_c, 0, 90, 0
2, 3321, Note_on_c, 0, 93, 66
2, 3505, Note_on_c, 0, 93, 0
2, 3548, Note_on_c, 0, 88, 49
2, 3573, Note_on_c, 0, 64, 44
2, 3635, Control_c, 0, 64, 0
2, 3730, Note_on_c, 0, 88, 0
2, 3731, Note_on_c, 0, 69, 0
2, 3772, Note_on_c, 0, 90, 49
2, 3791, Control_c, 0, 64, 127
2, 4005, Note_on_c, 0, 90, 0
2, 4019, Note_on_c, 0, 83, 36
2, 4033, Note_on_c, 0, 74, 0
2, 4048, Note_on_c, 0, 69, 24
2, 4218, Note_on_c, 0, 83, 0
2, 4282, Note_on_c, 0, 88, 45
2, 4468, Note_on_c, 0, 88, 0
2, 4543, Note_on_c, 0, 86, 38
2, 4564, Note_on_c, 0, 74, 24
2, 4971, Note_on_c, 0, 69, 0
2, 5691, Note_on_c, 0, 74, 0
2, 5813, Note_on_c, 0, 64, 0
2, 5936, Note_on_c, 0, 86, 0
2, 6655, Note_on_c, 0, 61, 47
2, 6752, Note_on_c, 0, 76, 47
2, 6792, Note_on_c, 0, 80, 57
2, 6845, Control_c, 0, 64, 0
2, 6847, Note_on_c, 0, 71, 41
2, 6871, Note_on_c, 0, 83, 48
2, 6922, Note_on_c, 0, 88, 58
2, 7034, Control_c, 0, 64, 127
2, 7279, Note_on_c, 0, 88, 0
2, 7294, Note_on_c, 0, 83, 0
2, 7313, Note_on_c, 0, 80, 0
2, 7365, Note_on_c, 0, 76, 0
2, 7393, Note_on_c, 0, 61, 0
2, 7403, Note_on_c, 0, 71, 0
2, 7601, Note_on_c, 0, 83, 47
2, 7642, Note_on_c, 0, 76, 41
2, 7645, Note_on_c, 0, 60, 38
2, 7680, Note_on_c, 0, 74, 28
2, 7689, Control_c, 0, 64, 0
2, 7867, Control_c, 0, 64, 127
2, 8000, Note_on_c, 0, 74, 0
2, 8112, Note_on_c, 0, 67, 37
2, 8281, Note_on_c, 0, 83, 0
2, 8429, Note_on_c, 0, 76, 0
2, 8465, Note_on_c, 0, 71, 40
2, 8679, Note_on_c, 0, 71, 0
2, 8730, Note_on_c, 0, 72, 55
2, 8958, Note_on_c, 0, 72, 0
2, 8976, Note_on_c, 0, 79, 70
2, 9062, Note_on_c, 0, 67, 0
2, 9203, Note_on_c, 0, 79, 0
2, 9230, Note_on_c, 0, 76, 53
2, 9248, Note_on_c, 0, 67, 29
2, 9442, Note_on_c, 0, 76, 0
2, 9497, Note_on_c, 0, 78, 48
2, 9705, Note_on_c, 0, 78, 0
2, 9752, Note_on_c, 0, 81, 51
2, 9786, Note_on_c, 0, 67, 0
2, 9950, Note_on_c, 0, 81, 0
2, 10029, Note_on_c, 0, 79, 50
2, 10049, Note_on_c, 0, 67, 16
2, 10218, Note_on_c, 0, 60, 0
2, 10276, Note_on_c, 0, 71, 36
2, 10508, Note_on_c, 0, 79, 0
2, 10510, Note_on_c, 0, 71, 0
2, 10559, Note_on_c, 0, 76, 40
2, 10566, Note_on_c, 0, 60, 37
2, 10609, Control_c, 0, 64, 0
2, 10690, Note_on_c, 0, 67, 0
2, 10765, Control_c, 0, 64, 127
2, 10823, Note_on_c, 0, 76, 0
2, 10840, Note_on_c, 0, 71, 19
2, 11085, Note_on_c, 0, 71, 0
2, 11131, Note_on_c, 0, 67, 30
2, 11160, Note_on_c, 0, 74, 29
2, 11297, Note_on_c, 0, 67, 0
2, 11467, Note_on_c, 0, 69, 18
2, 11700, Note_on_c, 0, 69, 0
2, 11702, Note_on_c, 0, 74, 0
2, 11765, Note_on_c, 0, 71, 38
2, 11804, Note_on_c, 0, 67, 28
2, 12188, Note_on_c, 0, 60, 0
2, 12586, Note_on_c, 0, 67, 0
2, 12857, Note_on_c, 0, 71, 0
2, 14762, Note_on_c, 0, 76, 61
2, 14774, Note_on_c, 0, 73, 42
2, 14778, Control_c, 0, 64, 0
2, 14795, Note_on_c, 0, 59, 28
2, 14796, Note_on_c, 0, 69, 34
2, 14840, Note_on_c, 0, 66, 14
2, 14894, Control_c, 0, 64, 127
2, 14923, Note_on_c, 0, 66, 0
2, 15015, Note_on_c, 0, 69, 0
2, 15019, Note_on_c, 0, 59, 0
2, 15083, Note_on_c, 0, 76, 0
2, 15312, Note_on_c, 0, 73, 0
2, 15776, Note_on_c, 0, 79, 49
2, 15799, Note_on_c, 0, 76, 45
2, 15803, Note_on_c, 0, 72, 37
2, 15814, Note_on_c, 0, 67, 40
2, 15822, Note_on_c, 0, 52, 32
2, 15831, Control_c, 0, 64, 0
2, 16062, Control_c, 0, 64, 127
2, 16380, Note_on_c, 0, 67, 0
2, 16390, Note_on_c, 0, 52, 0
2, 16456, Note_on_c, 0, 72, 0
2, 16493, Note_on_c, 0, 79, 0
2, 16514, Note_on_c, 0, 76, 0
2, 16927, Note_on_c, 0, 83, 74
2, 16933, Note_on_c, 0, 76, 70
2, 16947, Control_c, 0, 64, 0
2, 16948, Note_on_c, 0, 45, 49
2, 17165, Control_c, 0, 64, 127
2, 17574, Note_on_c, 0, 52, 44
2, 17608, Note_on_c, 0, 45, 0
2, 17668, Control_c, 0, 64, 0
2, 17728, Control_c, 0, 64, 127
2, 17916, Note_on_c, 0, 52, 0
2, 17932, Note_on_c, 0, 59, 53
2, 18117, Note_on_c, 0, 59, 0
2, 18207, Note_on_c, 0, 83, 0
2, 18265, Note_on_c, 0, 76, 0
2, 18620, Note_on_c, 0, 81, 46
2, 18620, Note_on_c, 0, 78, 42
2, 18623, Note_on_c, 0, 74, 54
2, 18624, Note_on_c, 0, 69, 31
2, 18681, Note_on_c, 0, 47, 33
2, 18719, Control_c, 0, 64, 0
2, 19054, Control_c, 0, 64, 127
2, 19059, Note_on_c, 0, 54, 45
2, 19105, Note_on_c, 0, 47, 0
2, 19459, Note_on_c, 0, 61, 51
2, 19731, Note_on_c, 0, 61, 0
2, 19905, Note_on_c, 0, 62, 48
2, 20012, Note_on_c, 0, 81, 0
2, 20040, Note_on_c, 0, 54, 0
2, 20050, Note_on_c, 0, 74, 0
2, 20052, Note_on_c, 0, 62, 0
2, 20150, Note_on_c, 0, 69, 0
2, 20261, Note_on_c, 0, 78, 0
2, 21852, Note_on_c, 0, 79, 57
2, 21871, Note_on_c, 0, 48, 34
2, 21888, Control_c, 0, 64, 0
2, 22035, Control_c, 0, 64, 127
2, 22221, Note_on_c, 0, 79, 0
2, 22237, Note_on_c, 0, 55, 32
2, 22648, Note_on_c, 0, 62, 47
2, 22848, Note_on_c, 0, 55, 0
2, 22902, Note_on_c, 0, 48, 0
2, 23007, Note_on_c, 0, 62, 0
2, 23031, Note_on_c, 0, 64, 53
2, 23262, Note_on_c, 0, 64, 0
2, 23434, Note_on_c, 0, 41, 24
2, 23522, Note_on_c, 0, 48, 32
2, 23553, Note_on_c, 0, 71, 47
2, 23643, Note_on_c, 0, 57, 24
2, 23648, Note_on_c, 0, 67, 32
2, 23701, Note_on_c, 0, 63, 30
2, 23704, Control_c, 0, 64, 0
2, 23903, Note_on_c, 0, 62, 1
2, 24068, Control_c, 0, 64, 127
2, 24554, Note_on_c, 0, 48, 0
2, 24787, Note_on_c, 0, 67, 0
2, 24978, Note_on_c, 0, 67, 74
2, 24982, Note_on_c, 0, 71, 0
2, 25474, Note_on_c, 0, 67, 0
2, 25596, Note_on_c, 0, 57, 0
2, 25615, Note_on_c, 0, 67, 48
2, 25749, Note_on_c, 0, 41, 0
2, 25794, Note_on_c, 0, 67, 0
2, 25856, Note_on_c, 0, 63, 0
2, 25891, Note_on_c, 0, 62, 0
2, 26473, Note_on_c, 0, 64, 68
2, 26474, Note_on_c, 0, 28, 45
2, 26482, Note_on_c, 0, 57, 69
2, 26486, Control_c, 0, 64, 0
2, 26489, Note_on_c, 0, 59, 63
2, 26503, Note_on_c, 0, 40, 47
2, 26653, Control_c, 0, 64, 127
2, 26676, Note_on_c, 0, 57, 0
2, 26742, Note_on_c, 0, 64, 0
2, 26794, Note_on_c, 0, 59, 0
2, 26812, Note_on_c, 0, 57, 18
2, 26835, Note_on_c, 0, 40, 0
2, 26926, Note_on_c, 0, 35, 27
2, 26967, Note_on_c, 0, 57, 0
2, 26993, Note_on_c, 0, 35, 0
2, 27119, Note_on_c, 0, 28, 0
2, 27128, Note_on_c, 0, 40, 24
2, 27135, Note_on_c, 0, 57, 47
2, 27272, Note_on_c, 0, 40, 0
2, 27293, Note_on_c, 0, 57, 0
2, 27361, Note_on_c, 0, 59, 15
2, 27437, Note_on_c, 0, 57, 38
2, 27474, Note_on_c, 0, 59, 0
2, 27594, Note_on_c, 0, 57, 0
2, 27613, Note_on_c, 0, 64, 22
2, 27647, Note_on_c, 0, 59, 17
2, 27674, Note_on_c, 0, 64, 0
2, 27739, Note_on_c, 0, 57, 45
2, 27743, Note_on_c, 0, 59, 0
2, 27880, Note_on_c, 0, 57, 0
2, 27918, Note_on_c, 0, 59, 28
2, 28011, Note_on_c, 0, 57, 48
2, 28029, Note_on_c, 0, 59, 0
2, 28155, Note_on_c, 0, 57, 0
2, 28197, Note_on_c, 0, 59, 26
2, 28289, Note_on_c, 0, 57, 45
2, 28300, Note_on_c, 0, 59, 0
2, 28416, Note_on_c, 0, 57, 0
2, 28467, Note_on_c, 0, 59, 24
2, 28551, Note_on_c, 0, 57, 44
2, 28558, Note_on_c, 0, 59, 0
2, 28680, Note_on_c, 0, 57, 0
2, 28726, Note_on_c, 0, 59, 22
2, 28799, Note_on_c, 0, 50, 91
2, 28810, Note_on_c, 0, 57, 50
2, 28817, Note_on_c, 0, 59, 0
2, 28932, Note_on_c, 0, 57, 0
2, 28970, Note_on_c, 0, 59, 29
2, 29055, Note_on_c, 0, 57, 51
2, 29057, Note_on_c, 0, 59, 0
2, 29167, Note_on_c, 0, 57, 0
2, 29184, Note_on_c, 0, 59, 33
2, 29276, Note_on_c, 0, 57, 58
2, 29290, Note_on_c, 0, 59, 0
2, 29321, Control_c, 0, 64, 0
2, 29392, Note_on_c, 0, 57, 0
2, 29405, Note_on_c, 0, 59, 36
2, 29425, Control_c, 0, 64, 127
2, 29491, Note_on_c, 0, 59, 0
2, 29493, Note_on_c, 0, 57, 48
2, 29619, Note_on_c, 0, 57, 0
2, 29649, Note_on_c, 0, 59, 27
2, 29721, Note_on_c, 0, 57, 47
2, 29728, Note_on_c, 0, 59, 0
2, 29840, Note_on_c, 0, 57, 0
2, 29853, Note_on_c, 0, 59, 35
2, 29858, Note_on_c, 0, 64, 17
2, 29875, Control_c, 0, 64, 0
2, 29967, Note_on_c, 0, 57, 47
2, 29968, Note_on_c, 0, 59, 0
2, 29976, Note_on_c, 0, 64, 0
2, 29988, Control_c, 0, 64, 127
2, 30087, Note_on_c, 0, 57, 0
2, 30102, Note_on_c, 0, 59, 34
2, 30206, Note_on_c, 0, 57, 47
2, 30207, Note_on_c, 0, 59, 0
2, 30325, Note_on_c, 0, 57, 0
2, 30345, Note_on_c, 0, 59, 28
2, 30441, Note_on_c, 0, 57, 44
2, 30447, Note_on_c, 0, 59, 0
2, 30570, Note_on_c, 0, 57, 0
2, 30598, Note_on_c, 0, 59, 27
2, 30697, Note_on_c, 0, 57, 48
2, 30706, Note_on_c, 0, 59, 0
2, 30820, Note_on_c, 0, 57, 0
2, 30865, Note_on_c, 0, 59, 28
2, 30936, Note_on_c, 0, 59, 0
2, 30944, Note_on_c, 0, 57, 43
2, 31057, Note_on_c, 0, 57, 0
2, 31075, Note_on_c, 0, 64, 17
2, 31098, Note_on_c, 0, 59, 33
2, 31135, Note_on_c, 0, 64, 0
2, 31171, Note_on_c, 0, 57, 50
2, 31176, Note_on_c, 0, 59, 0
2, 31306, Note_on_c, 0, 57, 0
2, 31315, Note_on_c, 0, 59, 45
2, 31320, Note_on_c, 0, 64, 17
2, 31409, Note_on_c, 0, 57, 58
2, 31420, Note_on_c, 0, 64, 0
2, 31423, Note_on_c, 0, 59, 0
2, 31539, Note_on_c, 0, 57, 0
2, 31545, Note_on_c, 0, 59, 43
2, 31562, Note_on_c, 0, 64, 6
2, 31635, Note_on_c, 0, 57, 60
2, 31636, Note_on_c, 0, 64, 0
2, 31651, Note_on_c, 0, 59, 0
2, 31679, Note_on_c, 0, 50, 0
2, 31763, Note_on_c, 0, 59, 57
2, 31771, Note_on_c, 0, 64, 44
2, 31775, Note_on_c, 0, 57, 0
2, 31869, Note_on_c, 0, 64, 0
2, 31885, Note_on_c, 0, 57, 71
2, 31902, Note_on_c, 0, 52, 90
2, 31913, Note_on_c, 0, 59, 0
2, 31969, Control_c, 0, 64, 0
2, 32020, Note_on_c, 0, 64, 47
2, 32021, Note_on_c, 0, 59, 54
2, 32026, Note_on_c, 0, 57, 0
2, 32053, Control_c, 0, 64, 127
2, 32132, Note_on_c, 0, 57, 62
2, 32151, Note_on_c, 0, 64, 0
2, 32153, Note_on_c, 0, 59, 0
2, 32266, Note_on_c, 0, 59, 48
2, 32269, Note_on_c, 0, 64, 3
2, 32276, Note_on_c, 0, 57, 0
2, 32383, Note_on_c, 0, 57, 66
2, 32405, Note_on_c, 0, 64, 0
2, 32405, Note_on_c, 0, 59, 0
2, 32426, Note_on_c, 0, 52, 0
2, 32517, Note_on_c, 0, 59, 58
2, 32518, Note_on_c, 0, 64, 51
2, 32550, Note_on_c, 0, 57, 0
2, 32642, Note_on_c, 0, 64, 0
2, 32645, Note_on_c, 0, 57, 60
2, 32678, Note_on_c, 0, 47, 101
2, 32679, Note_on_c, 0, 59, 0
2, 32730, Control_c, 0, 64, 0
2, 32791, Note_on_c, 0, 64, 62
2, 32793, Note_on_c, 0, 59, 45
2, 32830, Note_on_c, 0, 57, 0
2, 32897, Control_c, 0, 64, 127
2, 32947, Note_on_c, 0, 57, 38
2, 32959, Note_on_c, 0, 59, 0
2, 33099, Note_on_c, 0, 59, 36
2, 33109, Note_on_c, 0, 47, 0
2, 33223, Note_on_c, 0, 57, 0
2, 33309, Note_on_c, 0, 64, 0
2, 33324, Note_on_c, 0, 59, 0
2, 33332, Note_on_c, 0, 43, 34
2, 33350, Note_on_c, 0, 55, 51
2, 33380, Note_on_c, 0, 59, 34
2, 33388, Note_on_c, 0, 64, 39
2, 33439, Control_c, 0, 64, 0
2, 33470, Note_on_c, 0, 36, 56
2, 33485, Note_on_c, 0, 43, 0
2, 33668, Control_c, 0, 64, 127
2, 33772, Note_on_c, 0, 55, 0
2, 33834, Note_on_c, 0, 43, 47
2, 33870, Note_on_c, 0, 64, 0
2, 33871, Note_on_c, 0, 59, 0
2, 33936, Note_on_c, 0, 36, 0
2, 34083, Note_on_c, 0, 43, 0
2, 34171, Note_on_c, 0, 52, 48
2, 34200, Note_on_c, 0, 67, 43
2, 34204, Note_on_c, 0, 62, 43
2, 34270, Note_on_c, 0, 52, 0
2, 34340, Note_on_c, 0, 62, 0
2, 34379, Note_on_c, 0, 67, 0
2, 34516, Note_on_c, 0, 55, 49
2, 34827, Note_on_c, 0, 55, 0
2, 34856, Note_on_c, 0, 79, 44
2, 34865, Note_on_c, 0, 60, 40
2, 34868, Note_on_c, 0, 74, 47
2, 34981, Note_on_c, 0, 74, 0
2, 35014, Note_on_c, 0, 60, 0
2, 35038, Note_on_c, 0, 79, 0
2, 35192, Note_on_c, 0, 64, 49
2, 35504, Note_on_c, 0, 64, 0
2, 35511, Note_on_c, 0, 86, 51
2, 35531, Note_on_c, 0, 67, 35
2, 35539, Note_on_c, 0, 79, 31
2, 35733, Note_on_c, 0, 67, 0
2, 35759, Note_on_c, 0, 79, 0
2, 35771, Note_on_c, 0, 86, 0
2, 35856, Note_on_c, 0, 83, 36
2, 35860, Note_on_c, 0, 71, 43
2, 35941, Note_on_c, 0, 83, 0
2, 36236, Note_on_c, 0, 91, 39
2, 36245, Note_on_c, 0, 86, 41
2, 36263, Note_on_c, 0, 81, 25
2, 36270, Note_on_c, 0, 74, 39
2, 37097, Note_on_c, 0, 91, 0
2, 37181, Note_on_c, 0, 86, 0
2, 37229, Note_on_c, 0, 81, 0
2, 37248, Note_on_c, 0, 74, 0
2, 37345, Note_on_c, 0, 71, 0
2, 38815, Note_on_c, 0, 76, 59
2, 39076, Note_on_c, 0, 75, 48
2, 39195, Control_c, 0, 64, 0
2, 39352, Note_on_c, 0, 75, 0
2, 39376, Note_on_c, 0, 74, 47
2, 39405, Note_on_c, 0, 79, 44
2, 39443, Control_c, 0, 64, 127
2, 39472, Note_on_c, 0, 76, 0
2, 39669, Note_on_c, 0, 74, 0
2, 39688, Note_on_c, 0, 73, 37
2, 39691, Note_on_c, 0, 79, 0
2, 40036, Note_on_c, 0, 73, 0
2, 40050, Note_on_c, 0, 83, 53
2, 40051, Note_on_c, 0, 76, 46
2, 40069, Note_on_c, 0, 72, 41
2, 40080, Control_c, 0, 64, 0
2, 40245, Control_c, 0, 64, 127
2, 40684, Note_on_c, 0, 71, 51
2, 40700, Note_on_c, 0, 72, 0
2, 40808, Note_on_c, 0, 83, 0
2, 41083, Note_on_c, 0, 76, 0
2, 41159, Note_on_c, 0, 78, 51
2, 41164, Control_c, 0, 64, 0
2, 41165, Note_on_c, 0, 81, 47
2, 41183, Note_on_c, 0, 70, 55
2, 41186, Note_on_c, 0, 71, 0
2, 41383, Control_c, 0, 64, 127
2, 41526, Note_on_c, 0, 70, 0
2, 41545, Note_on_c, 0, 69, 49
2, 41835, Note_on_c, 0, 78, 0
2, 41872, Note_on_c, 0, 81, 0
2, 41889, Note_on_c, 0, 69, 0
2, 41927, Note_on_c, 0, 71, 38
2, 41946, Control_c, 0, 64, 0
2, 41947, Note_on_c, 0, 76, 35
2, 41948, Note_on_c, 0, 68, 37
2, 41949, Note_on_c, 0, 79, 46
2, 42114, Control_c, 0, 64, 127
2, 42345, Note_on_c, 0, 68, 0
2, 42363, Note_on_c, 0, 67, 40
2, 42483, Note_on_c, 0, 71, 0
2, 42506, Note_on_c, 0, 76, 0
2, 42747, Note_on_c, 0, 79, 0
2, 42880, Note_on_c, 0, 67, 0
2, 42903, Note_on_c, 0, 66, 42
2, 42922, Note_on_c, 0, 71, 34
2, 42932, Note_on_c, 0, 75, 33
2, 42947, Note_on_c, 0, 79, 36
2, 42967, Control_c, 0, 64, 0
2, 43177, Control_c, 0, 64, 127
2, 43416, Note_on_c, 0, 66, 0
2, 43435, Note_on_c, 0, 65, 39
2, 43471, Note_on_c, 0, 71, 0
2, 43709, Note_on_c, 0, 75, 0
2, 43736, Note_on_c, 0, 65, 0
2, 43956, Note_on_c, 0, 76, 32
2, 43959, Note_on_c, 0, 69, 22
2, 43965, Note_on_c, 0, 74, 38
2, 43976, Note_on_c, 0, 52, 30
2, 44021, Control_c, 0, 64, 0
2, 44228, Control_c, 0, 64, 127
2, 44384, Note_on_c, 0, 79, 0
2, 44394, Note_on_c, 0, 59, 30
2, 44438, Note_on_c, 0, 76, 0
2, 44446, Note_on_c, 0, 74, 0
2, 44543, Note_on_c, 0, 69, 0
2, 44779, Note_on_c, 0, 69, 40
2, 44792, Note_on_c, 0, 71, 47
2, 44803, Note_on_c, 0, 64, 36
2, 44813, Control_c, 0, 64, 0
2, 44958, Control_c, 0, 64, 127
2, 45031, Note_on_c, 0, 59, 0
2, 45205, Note_on_c, 0, 59, 26
2, 45210, Note_on_c, 0, 64, 0
2, 45596, Note_on_c, 0, 69, 0
2, 45608, Note_on_c, 0, 69, 46
2, 45615, Control_c, 0, 64, 0
2, 45626, Note_on_c, 0, 64, 36
2, 45709, Note_on_c, 0, 59, 0
2, 45739, Control_c, 0, 64, 127
2, 46181, Note_on_c, 0, 59, 25
2, 46465, Note_on_c, 0, 69, 0
2, 46546, Note_on_c, 0, 64, 0
2, 46656, Note_on_c, 0, 65, 52
2, 46720, Control_c, 0, 64, 0
2, 46748, Note_on_c, 0, 59, 0
2, 46804, Control_c, 0, 64, 127
2, 47043, Note_on_c, 0, 59, 22
2, 47158, Note_on_c, 0, 65, 0
2, 47269, Note_on_c, 0, 52, 0
2, 47378, Note_on_c, 0, 64, 46
2, 47417, Note_on_c, 0, 52, 31
2, 47419, Control_c, 0, 64, 0
2, 47433, Note_on_c, 0, 59, 0
2, 47648, Control_c, 0, 64, 127
2, 47725, Note_on_c, 0, 64, 0
2, 47752, Note_on_c, 0, 59, 35
2, 47888, Note_on_c, 0, 71, 0
2, 48099, Note_on_c, 0, 76, 54
2, 48107, Note_on_c, 0, 64, 41
2, 48110, Note_on_c, 0, 69, 50
2, 48115, Note_on_c, 0, 71, 51
2, 48118, Control_c, 0, 64, 0
2, 48177, Note_on_c, 0, 59, 0
2, 48211, Control_c, 0, 64, 127
2, 48432, Note_on_c, 0, 64, 0
2, 48494, Note_on_c, 0, 59, 30
2, 48614, Note_on_c, 0, 76, 0
2, 48914, Note_on_c, 0, 59, 0
2, 48987, Note_on_c, 0, 69, 0
2, 49024, Note_on_c, 0, 64, 47
2, 49078, Note_on_c, 0, 59, 19
2, 49555, Note_on_c, 0, 59, 0
2, 49769, Note_on_c, 0, 59, 30
2, 49910, Note_on_c, 0, 64, 0
2, 50005, Note_on_c, 0, 71, 0
2, 50969, Note_on_c, 0, 69, 87
2, 50976, Note_on_c, 0, 73, 65
2, 51008, Note_on_c, 0, 59, 0
2, 51037, Control_c, 0, 64, 0
2, 51041, Note_on_c, 0, 52, 0
2, 51047, Note_on_c, 0, 69, 0
2, 51090, Note_on_c, 0, 70, 42
2, 51226, Note_on_c, 0, 69, 48
2, 51273, Note_on_c, 0, 70, 0
2, 51292, Note_on_c, 0, 73, 0
2, 51337, Note_on_c, 0, 69, 0
2, 51358, Note_on_c, 0, 67, 55
2, 51403, Note_on_c, 0, 67, 0
2, 51530, Note_on_c, 0, 64, 48
2, 51841, Note_on_c, 0, 64, 0
2, 51876, Note_on_c, 0, 62, 35
2, 51943, Note_on_c, 0, 62, 0
2, 52035, Note_on_c, 0, 64, 33
2, 52382, Note_on_c, 0, 64, 0
2, 52391, Note_on_c, 0, 67, 39
2, 52486, Note_on_c, 0, 67, 0
2, 52558, Note_on_c, 0, 64, 34
2, 52833, Note_on_c, 0, 64, 0
2, 53079, Control_c, 0, 64, 127
2, 53115, Note_on_c, 0, 40, 35
2, 53425, Note_on_c, 0, 47, 38
2, 53689, Note_on_c, 0, 52, 40
2, 53711, Note_on_c, 0, 47, 0
2, 53729, Note_on_c, 0, 40, 0
2, 53887, Note_on_c, 0, 59, 51
2, 54013, Note_on_c, 0, 59, 0
2, 54070, Note_on_c, 0, 64, 66
2, 54237, Note_on_c, 0, 64, 0
2, 54251, Note_on_c, 0, 66, 61
2, 54325, Note_on_c, 0, 66, 0
2, 54441, Note_on_c, 0, 71, 62
2, 54552, Note_on_c, 0, 52, 0
2, 54581, Note_on_c, 0, 71, 0
2, 54628, Note_on_c, 0, 76, 61
2, 54796, Note_on_c, 0, 76, 0
2, 54827, Note_on_c, 0, 78, 71
2, 55015, Note_on_c, 0, 78, 0
2, 55044, Note_on_c, 0, 81, 72
2, 55242, Note_on_c, 0, 81, 0
2, 55307, Note_on_c, 0, 79, 64
2, 55544, Note_on_c, 0, 79, 0
2, 55569, Note_on_c, 0, 76, 53
2, 55841, Note_on_c, 0, 76, 0
2, 55851, Note_on_c, 0, 78, 52
2, 56034, Note_on_c, 0, 78, 0
2, 56136, Note_on_c, 0, 71, 35
2, 56368, Note_on_c, 0, 71, 0
2, 56430, Note_on_c, 0, 76, 45
2, 56448, Note_on_c, 0, 49, 31
2, 56468, Control_c, 0, 64, 0
2, 56592, Control_c, 0, 64, 127
2, 56704, Note_on_c, 0, 56, 49
2, 56939, Note_on_c, 0, 76, 0
2, 56980, Note_on_c, 0, 64, 49
2, 56982, Note_on_c, 0, 56, 0
2, 57017, Note_on_c, 0, 49, 0
2, 57038, Note_on_c, 0, 59, 18
2, 57265, Note_on_c, 0, 74, 42
2, 57462, Note_on_c, 0, 74, 0
2, 57510, Note_on_c, 0, 64, 0
2, 57559, Note_on_c, 0, 71, 53
2, 57560, Note_on_c, 0, 59, 0
2, 57579, Note_on_c, 0, 48, 41
2, 57593, Control_c, 0, 64, 0
2, 57782, Control_c, 0, 64, 127
2, 57882, Note_on_c, 0, 55, 36
2, 57966, Note_on_c, 0, 48, 0
2, 58073, Note_on_c, 0, 71, 0
2, 58205, Note_on_c, 0, 64, 47
2, 58206, Note_on_c, 0, 55, 0
2, 58581, Note_on_c, 0, 78, 55
2, 58595, Note_on_c, 0, 69, 29
2, 58615, Note_on_c, 0, 74, 40
2, 58904, Note_on_c, 0, 64, 0
2, 58928, Note_on_c, 0, 78, 0
2, 58936, Note_on_c, 0, 69, 0
2, 58966, Note_on_c, 0, 74, 0
2, 58981, Note_on_c, 0, 79, 64
2, 58995, Note_on_c, 0, 64, 27
2, 59225, Note_on_c, 0, 64, 0
2, 59296, Note_on_c, 0, 79, 0
2, 59301, Note_on_c, 0, 74, 58
2, 59447, Note_on_c, 0, 74, 0
2, 59590, Note_on_c, 0, 76, 59
2, 59601, Note_on_c, 0, 55, 33
2, 59886, Control_c, 0, 64, 0
2, 59897, Control_c, 0, 64, 127
2, 59899, Note_on_c, 0, 67, 56
2, 59938, Note_on_c, 0, 55, 0
2, 59950, Note_on_c, 0, 62, 25
2, 60133, Note_on_c, 0, 67, 0
2, 60157, Note_on_c, 0, 62, 0
2, 60213, Note_on_c, 0, 76, 0
2, 60231, Note_on_c, 0, 67, 40
2, 60238, Note_on_c, 0, 71, 51
2, 60241, Note_on_c, 0, 55, 28
2, 60263, Control_c, 0, 64, 0
2, 60419, Control_c, 0, 64, 127
2, 60573, Note_on_c, 0, 48, 35
2, 60585, Note_on_c, 0, 55, 0
2, 60611, Note_on_c, 0, 71, 0
2, 60730, Note_on_c, 0, 67, 0
2, 60930, Note_on_c, 0, 55, 35
2, 61294, Note_on_c, 0, 60, 61
2, 61399, Note_on_c, 0, 64, 28
2, 61458, Note_on_c, 0, 64, 0
2, 61683, Note_on_c, 0, 64, 110
2, 61821, Note_on_c, 0, 60, 0
2, 61962, Note_on_c, 0, 64, 0
2, 62037, Note_on_c, 0, 64, 83
2, 62277, Note_on_c, 0, 64, 0
2, 62359, Note_on_c, 0, 67, 87
2, 62364, Note_on_c, 0, 55, 0
2, 62448, Note_on_c, 0, 48, 0
2, 62551, Note_on_c, 0, 67, 0
2, 62666, Note_on_c, 0, 67, 55
2, 62748, Note_on_c, 0, 67, 0
2, 63003, Control_c, 0, 64, 0
2, 63023, Note_on_c, 0, 71, 80
2, 63032, Note_on_c, 0, 64, 89
2, 63035, Note_on_c, 0, 38, 62
2, 63036, Note_on_c, 0, 50, 72
2, 63038, Note_on_c, 0, 60, 84
2, 63039, Note_on_c, 0, 67, 71
2, 63059, Note_on_c, 0, 68, 38
2, 63096, Note_on_c, 0, 68, 0
2, 63161, Control_c, 0, 64, 127
2, 63530, Note_on_c, 0, 67, 0
2, 63534, Note_on_c, 0, 60, 0
2, 63554, Note_on_c, 0, 71, 0
2, 63581, Note_on_c, 0, 50, 0
2, 63596, Note_on_c, 0, 38, 0
2, 63661, Note_on_c, 0, 64, 0
2, 63806, Control_c, 0, 64, 0
2, 63822, Note_on_c, 0, 69, 75
2, 63826, Note_on_c, 0, 64, 83
2, 63835, Note_on_c, 0, 37, 62
2, 63841, Note_on_c, 0, 59, 65
2, 63844, Note_on_c, 0, 49, 60
2, 63985, Control_c, 0, 64, 127
2, 64793, Note_on_c, 0, 64, 0
2, 64807, Note_on_c, 0, 69, 0
2, 64811, Note_on_c, 0, 49, 0
2, 64817, Note_on_c, 0, 59, 0
2, 64846, Note_on_c, 0, 37, 0
2, 66436, Note_on_c, 0, 61, 49
2, 66438, Note_on_c, 0, 58, 46
2, 66447, Note_on_c, 0, 67, 48
2, 66466, Control_c, 0, 64, 0
2, 66473, Note_on_c, 0, 36, 43
2, 66477, Note_on_c, 0, 48, 31
2, 66503, Note_on_c, 0, 61, 0
2, 66548, Note_on_c, 0, 62, 38
2, 66726, Control_c, 0, 64, 127
2, 67121, Note_on_c, 0, 62, 0
2, 67149, Note_on_c, 0, 58, 0
2, 67160, Note_on_c, 0, 48, 0
2, 67185, Note_on_c, 0, 36, 0
2, 67220, Note_on_c, 0, 67, 0
2, 68050, Control_c, 0, 64, 0
2, 68054, Note_on_c, 0, 67, 46
2, 68068, Note_on_c, 0, 63, 49
2, 68081, Note_on_c, 0, 47, 33
2, 68082, Note_on_c, 0, 35, 38
2, 68084, Note_on_c, 0, 59, 37
2, 68088, Note_on_c, 0, 57, 31
2, 68341, Control_c, 0, 64, 127
2, 68913, Note_on_c, 0, 47, 0
2, 68978, Note_on_c, 0, 35, 0
2, 69179, Note_on_c, 0, 67, 0
2, 69199, Note_on_c, 0, 57, 0
2, 69241, Note_on_c, 0, 63, 0
2, 69461, Note_on_c, 0, 59, 0
2, 70104, Note_on_c, 0, 28, 36
2, 70135, Control_c, 0, 64, 0
2, 70143, Note_on_c, 0, 57, 51
2, 70191, Note_on_c, 0, 64, 32
2, 70195, Note_on_c, 0, 40, 24
2, 70208, Note_on_c, 0, 62, 26
2, 70225, Note_on_c, 0, 59, 17
2, 70291, Control_c, 0, 64, 127
2, 70710, Note_on_c, 0, 28, 0
2, 70783, Note_on_c, 0, 40, 0
2, 71206, Note_on_c, 0, 47, 44
2, 71337, Note_on_c, 0, 47, 0
2, 71510, Note_on_c, 0, 52, 40
2, 71732, Note_on_c, 0, 52, 0
2, 71801, Note_on_c, 0, 57, 0
2, 71821, Note_on_c, 0, 54, 44
2, 71889, Note_on_c, 0, 59, 0
2, 72032, Note_on_c, 0, 62, 0
2, 72227, Note_on_c, 0, 57, 45
2, 72245, Note_on_c, 0, 64, 0
2, 72654, Note_on_c, 0, 54, 0
2, 73375, Note_on_c, 0, 40, 44
2, 73491, Control_c, 0, 64, 0
2, 73719, Note_on_c, 0, 47, 45
2, 73784, Control_c, 0, 64, 127
2, 73975, Note_on_c, 0, 40, 0
2, 73997, Note_on_c, 0, 47, 0
2, 74018, Note_on_c, 0, 52, 38
2, 74262, Note_on_c, 0, 54, 57
2, 74284, Note_on_c, 0, 52, 0
2, 74299, Note_on_c, 0, 57, 0
2, 74474, Note_on_c, 0, 54, 0
2, 74483, Note_on_c, 0, 55, 65
2, 74630, Note_on_c, 0, 55, 0
2, 74661, Note_on_c, 0, 54, 60
2, 74774, Note_on_c, 0, 54, 0
2, 74853, Note_on_c, 0, 52, 34
2, 75038, Note_on_c, 0, 47, 26
2, 75089, Note_on_c, 0, 52, 0
2, 75103, Note_on_c, 0, 47, 0
2, 75152, Note_on_c, 0, 40, 69
2, 75172, Control_c, 0, 64, 0
2, 75307, Control_c, 0, 64, 127
2, 75310, Note_on_c, 0, 47, 44
2, 75420, Note_on_c, 0, 40, 0
2, 75451, Note_on_c, 0, 47, 0
2, 75485, Note_on_c, 0, 52, 32
2, 75678, Note_on_c, 0, 52, 0
2, 75691, Note_on_c, 0, 54, 37
2, 75854, Note_on_c, 0, 54, 0
2, 75873, Note_on_c, 0, 55, 38
2, 76026, Note_on_c, 0, 55, 0
2, 76076, Note_on_c, 0, 54, 45
2, 76175, Note_on_c, 0, 54, 0
2, 76272, Note_on_c, 0, 52, 36
2, 76476, Note_on_c, 0, 47, 46
2, 76628, Note_on_c, 0, 47, 0
2, 76643, Note_on_c, 0, 52, 0
2, 76695, Note_on_c, 0, 40, 45
2, 76776, Control_c, 0, 64, 0
2, 76787, Control_c, 0, 64, 127
2, 76933, Note_on_c, 0, 47, 41
2, 77072, Note_on_c, 0, 40, 0
2, 77091, Note_on_c, 0, 47, 0
2, 77183, Note_on_c, 0, 52, 40
2, 77420, Note_on_c, 0, 54, 49
2, 77428, Note_on_c, 0, 52, 0
2, 77671, Note_on_c, 0, 54, 0
2, 77689, Note_on_c, 0, 55, 56
2, 77907, Note_on_c, 0, 55, 0
2, 77943, Note_on_c, 0, 54, 57
2, 78127, Note_on_c, 0, 54, 0
2, 78191, Note_on_c, 0, 52, 49
2, 78447, Note_on_c, 0, 47, 48
2, 78708, Note_on_c, 0, 47, 0
2, 78747, Note_on_c, 0, 52, 0
2, 78751, Note_on_c, 0, 40, 64
2, 78754, Note_on_c, 0, 62, 113
2, 78757, Control_c, 0, 64, 0
2, 78944, Control_c, 0, 64, 127
2, 78997, Note_on_c, 0, 47, 40
2, 79187, Note_on_c, 0, 40, 0
2, 79211, Note_on_c, 0, 47, 0
2, 79232, Note_on_c, 0, 52, 38
2, 79431, Note_on_c, 0, 54, 61
2, 79457, Note_on_c, 0, 52, 0
2, 79688, Note_on_c, 0, 55, 79
2, 79727, Note_on_c, 0, 54, 0
2, 79903, Note_on_c, 0, 54, 67
2, 79915, Note_on_c, 0, 55, 0
2, 80022, Note_on_c, 0, 54, 0
2, 80076, Note_on_c, 0, 52, 42
2, 80225, Note_on_c, 0, 47, 42
2, 80306, Note_on_c, 0, 52, 0
2, 80365, Note_on_c, 0, 47, 0
2, 80390, Note_on_c, 0, 40, 67
2, 80466, Control_c, 0, 64, 0
2, 80551, Note_on_c, 0, 47, 53
2, 80602, Control_c, 0, 64, 127
2, 80642, Note_on_c, 0, 40, 0
2, 80689, Note_on_c, 0, 47, 0
2, 80723, Note_on_c, 0, 52, 37
2, 80835, Note_on_c, 0, 52, 0
2, 80913, Note_on_c, 0, 54, 51
2, 81063, Note_on_c, 0, 54, 0
2, 81096, Note_on_c, 0, 55, 45
2, 81238, Note_on_c, 0, 55, 0
2, 81282, Note_on_c, 0, 54, 53
2, 81387, Note_on_c, 0, 54, 0
2, 81476, Note_on_c, 0, 52, 33
2, 81692, Note_on_c, 0, 47, 35
2, 81816, Note_on_c, 0, 52, 0
2, 81922, Note_on_c, 0, 47, 0
2, 81948, Note_on_c, 0, 40, 47
2, 82167, Note_on_c, 0, 47, 44
2, 82355, Note_on_c, 0, 47, 0
2, 82360, Note_on_c, 0, 40, 0
2, 82387, Note_on_c, 0, 52, 34
2, 82578, Note_on_c, 0, 52, 0
2, 82643, Note_on_c, 0, 54, 39
2, 82870, Note_on_c, 0, 54, 0
2, 82893, Note_on_c, 0, 64, 100
2, 82903, Note_on_c, 0, 55, 42
2, 82955, Note_on_c, 0, 62, 0
2, 83066, Note_on_c, 0, 55, 0
2, 83213, Note_on_c, 0, 47, 36
2, 83467, Note_on_c, 0, 47, 0
2, 83516, Note_on_c, 0, 52, 20
2, 83801, Note_on_c, 0, 52, 0
2, 83824, Note_on_c, 0, 47, 47
2, 83887, Note_on_c, 0, 47, 0
2, 84173, Note_on_c, 0, 59, 113
2, 84203, Note_on_c, 0, 36, 39
2, 84261, Control_c, 0, 64, 0
2, 84491, Control_c, 0, 64, 127
2, 84493, Note_on_c, 0, 43, 35
2, 84739, Note_on_c, 0, 36, 0
2, 84759, Note_on_c, 0, 43, 0
2, 84764, Note_on_c, 0, 50, 40
2, 84999, Note_on_c, 0, 50, 0
2, 85007, Note_on_c, 0, 52, 49
2, 85141, Note_on_c, 0, 52, 0
2, 85293, Note_on_c, 0, 54, 65
2, 85535, Note_on_c, 0, 54, 0
2, 85579, Note_on_c, 0, 52, 57
2, 85740, Note_on_c, 0, 52, 0
2, 86279, Note_on_c, 0, 43, 47
2, 86474, Note_on_c, 0, 43, 0
2, 86540, Note_on_c, 0, 36, 56
2, 86628, Control_c, 0, 64, 0
2, 86772, Note_on_c, 0, 43, 47
2, 86795, Control_c, 0, 64, 127
2, 86964, Note_on_c, 0, 36, 0
2, 87000, Note_on_c, 0, 43, 0
2, 87018, Note_on_c, 0, 50, 45
2, 87211, Note_on_c, 0, 50, 0
2, 87277, Note_on_c, 0, 52, 40
2, 87637, Note_on_c, 0, 52, 0
2, 87644, Note_on_c, 0, 55, 34
2, 88094, Note_on_c, 0, 52, 37
2, 88140, Note_on_c, 0, 59, 0
2, 88212, Note_on_c, 0, 55, 0
2, 88395, Note_on_c, 0, 64, 0
2, 88626, Note_on_c, 0, 64, 103
2, 88645, Note_on_c, 0, 52, 0
2, 88666, Note_on_c, 0, 55, 22
2, 88793, Note_on_c, 0, 55, 0
2, 89158, Note_on_c, 0, 64, 0
2, 89741, Note_on_c, 0, 64, 54
2, 89751, Note_on_c, 0, 67, 97
2, 90366, Note_on_c, 0, 67, 0
2, 90410, Note_on_c, 0, 64, 0
2, 91236, Control_c, 0, 64, 0
2, 91247, Note_on_c, 0, 71, 55
2, 91256, Note_on_c, 0, 60, 49
2, 91258, Note_on_c, 0, 55, 29
2, 91259, Note_on_c, 0, 45, 37
2, 91260, Note_on_c, 0, 64, 60
2, 91434, Control_c, 0, 64, 127
2, 91579, Note_on_c, 0, 60, 0
2, 91734, Note_on_c, 0, 59, 57
2, 91776, Note_on_c, 0, 71, 0
2, 91826, Note_on_c, 0, 45, 0
2, 91927, Note_on_c, 0, 64, 0
2, 91951, Note_on_c, 0, 55, 0
2, 92043, Note_on_c, 0, 59, 0
2, 92223, Note_on_c, 0, 47, 36
2, 92230, Note_on_c, 0, 62, 59
2, 92233, Note_on_c, 0, 57, 34
2, 92239, Note_on_c, 0, 66, 40
2, 92240, Note_on_c, 0, 69, 45
2, 92257, Control_c, 0, 64, 0
2, 92488, Control_c, 0, 64, 127
2, 92490, Note_on_c, 0, 57, 0
2, 92772, Note_on_c, 0, 57, 54
2, 93038, Note_on_c, 0, 47, 0
2, 93060, Note_on_c, 0, 57, 0
2, 93191, Note_on_c, 0, 62, 0
2, 93213, Note_on_c, 0, 69, 0
2, 93248, Note_on_c, 0, 66, 0
2, 93354, Note_on_c, 0, 59, 51
2, 93371, Note_on_c, 0, 64, 54
2, 93375, Note_on_c, 0, 67, 52
2, 93385, Note_on_c, 0, 48, 30
2, 93403, Control_c, 0, 64, 0
2, 93623, Control_c, 0, 64, 127
2, 93726, Note_on_c, 0, 59, 0
2, 94008, Note_on_c, 0, 57, 44
2, 94299, Note_on_c, 0, 48, 0
2, 94413, Note_on_c, 0, 67, 0
2, 94430, Note_on_c, 0, 57, 0
2, 94527, Note_on_c, 0, 64, 0
2, 95681, Note_on_c, 0, 67, 49
2, 95732, Note_on_c, 0, 41, 34
2, 95758, Note_on_c, 0, 62, 45
2, 95810, Control_c, 0, 64, 0
2, 95839, Note_on_c, 0, 57, 25
2, 95849, Note_on_c, 0, 51, 21
2, 95908, Note_on_c, 0, 59, 9
2, 96167, Control_c, 0, 64, 127
2, 97193, Note_on_c, 0, 67, 0
2, 97485, Note_on_c, 0, 51, 0
2, 97611, Note_on_c, 0, 41, 0
2, 97614, Note_on_c, 0, 67, 36
2, 98080, Note_on_c, 0, 62, 0
2, 98152, Note_on_c, 0, 67, 0
2, 98178, Note_on_c, 0, 57, 0
2, 98220, Note_on_c, 0, 59, 0
2, 99751, Control_c, 0, 64, 0
2, 99840, Control_c, 0, 64, 127
2, 99840, Control_c, 0, 64, 0
2, 99840, Note_on_c, 0, 74, 62
2, 99840, Note_on_c, 0, 52, 62
2, 99840, Note_on_c, 0, 62, 77
2, 99840, Note_on_c, 0, 57, 61
2, 99880, Note_on_c, 0, 54, 62
2, 100100, Control_c, 0, 64, 127
2, 100360, Note_on_c, 0, 54, 0
2, 100361, Note_on_c, 0, 62, 0
2, 100399, Note_on_c, 0, 57, 0
2, 100433, Note_on_c, 0, 52, 0
2, 100464, Note_on_c, 0, 28, 50
2, 101280, Note_on_c, 0, 28, 36
2, 101290, Note_on_c, 0, 40, 34
2, 101424, Note_on_c, 0, 28, 0
2, 101544, Note_on_c, 0, 28, 0
2, 101572, Note_on_c, 0, 40, 0
2, 101619, Note_on_c, 0, 28, 51
2, 101626, Note_on_c, 0, 40, 71
2, 101668, Control_c, 0, 64, 0
2, 101698, Note_on_c, 0, 74, 0
2, 101716, Note_on_c, 0, 40, 0
2, 101726, Note_on_c, 0, 28, 0
2, 102292, Control_c, 0, 64, 127
2, 102727, Control_c, 0, 64, 0
2, 102758, Note_on_c, 0, 76, 78
2, 102761, Note_on_c, 0, 71, 81
2, 102764, Note_on_c, 0, 68, 80
2, 102767, Note_on_c, 0, 64, 89
2, 102768, Note_on_c, 0, 37, 86
2, 102772, Note_on_c, 0, 25, 86
2, 102792, Note_on_c, 0, 74, 33
2, 102919, Control_c, 0, 64, 127
2, 103208, Note_on_c, 0, 76, 0
2, 103215, Note_on_c, 0, 25, 0
2, 103218, Note_on_c, 0, 74, 0
2, 103236, Note_on_c, 0, 71, 0
2, 103239, Note_on_c, 0, 37, 0
2, 103261, Note_on_c, 0, 64, 0
2, 103276, Note_on_c, 0, 68, 0
2, 103745, Note_on_c, 0, 71, 45
2, 103748, Control_c, 0, 64, 0
2, 103749, Note_on_c, 0, 59, 35
2, 103752, Note_on_c, 0, 64, 57
2, 103761, Note_on_c, 0, 60, 38
2, 103769, Note_on_c, 0, 24, 53
2, 103773, Note_on_c, 0, 36, 50
2, 104853, Control_c, 0, 64, 127
2, 105030, Note_on_c, 0, 36, 0
2, 105035, Note_on_c, 0, 31, 43
2, 105058, Note_on_c, 0, 24, 0
2, 105113, Control_c, 0, 64, 0
2, 105161, Note_on_c, 0, 31, 0
2, 105219, Note_on_c, 0, 36, 66
2, 105229, Note_on_c, 0, 24, 57
2, 105429, Note_on_c, 0, 24, 0
2, 105447, Note_on_c, 0, 36, 0
2, 105495, Note_on_c, 0, 24, 60
2, 105504, Note_on_c, 0, 36, 74
2, 105619, Note_on_c, 0, 36, 0
2, 105622, Note_on_c, 0, 24, 0
2, 106114, Control_c, 0, 64, 127
2, 106281, Note_on_c, 0, 60, 0
2, 106292, Note_on_c, 0, 59, 0
2, 106375, Note_on_c, 0, 64, 0
2, 106495, Note_on_c, 0, 71, 0
2, 106498, Control_c, 0, 64, 0
2, 106537, Note_on_c, 0, 64, 71
2, 106542, Note_on_c, 0, 59, 52
2, 106546, Note_on_c, 0, 60, 55
2, 106547, Note_on_c, 0, 48, 62
2, 106615, Note_on_c, 0, 48, 0
2, 106640, Note_on_c, 0, 60, 0
2, 106651, Note_on_c, 0, 59, 0
2, 106707, Note_on_c, 0, 64, 0
2, 107025, Note_on_c, 0, 47, 66
2, 107032, Note_on_c, 0, 64, 61
2, 107033, Note_on_c, 0, 67, 60
2, 107044, Note_on_c, 0, 35, 50
2, 107100, Note_on_c, 0, 64, 0
2, 107125, Note_on_c, 0, 47, 0
2, 107128, Note_on_c, 0, 67, 0
2, 107136, Note_on_c, 0, 35, 0
2, 107508, Note_on_c, 0, 71, 71
2, 107520, Note_on_c, 0, 60, 69
2, 107526, Note_on_c, 0, 64, 76
2, 107527, Note_on_c, 0, 45, 81
2, 107534, Note_on_c, 0, 33, 71
2, 107624, Control_c, 0, 64, 127
2, 108069, Note_on_c, 0, 33, 0
2, 108073, Note_on_c, 0, 71, 0
2, 108113, Note_on_c, 0, 60, 0
2, 108114, Note_on_c, 0, 45, 0
2, 108167, Note_on_c, 0, 64, 0
2, 108520, Control_c, 0, 64, 0
2, 108523, Note_on_c, 0, 66, 70
2, 108526, Note_on_c, 0, 69, 71
2, 108528, Note_on_c, 0, 35, 58
2, 108528, Note_on_c, 0, 62, 82
2, 108535, Note_on_c, 0, 47, 64
2, 108721, Control_c, 0, 64, 127
2, 108925, Note_on_c, 0, 35, 0
2, 108961, Note_on_c, 0, 47, 0
2, 108974, Note_on_c, 0, 69, 0
2, 109008, Note_on_c, 0, 66, 0
2, 109035, Note_on_c, 0, 62, 0
2, 109452, Control_c, 0, 64, 0
2, 109483, Note_on_c, 0, 67, 45
2, 109489, Note_on_c, 0, 64, 47
2, 109491, Note_on_c, 0, 59, 40
2, 109492, Note_on_c, 0, 60, 37
2, 109501, Note_on_c, 0, 36, 46
2, 109513, Note_on_c, 0, 48, 34
2, 109608, Control_c, 0, 64, 127
2, 109633, Note_on_c, 0, 36, 0
2, 109704, Note_on_c, 0, 48, 0
2, 109797, Note_on_c, 0, 60, 0
2, 109808, Note_on_c, 0, 59, 0
2, 109855, Note_on_c, 0, 64, 0
2, 110086, Note_on_c, 0, 67, 0
2, 110396, Control_c, 0, 64, 0
2, 110420, Note_on_c, 0, 41, 32
2, 110428, Note_on_c, 0, 63, 42
2, 110430, Note_on_c, 0, 48, 33
2, 110433, Note_on_c, 0, 57, 34
2, 110435, Note_on_c, 0, 67, 51
2, 110444, Note_on_c, 0, 62, 55
2, 110540, Control_c, 0, 64, 127
2, 110630, Note_on_c, 0, 57, 0
2, 110716, Note_on_c, 0, 48, 0
2, 110716, Note_on_c, 0, 41, 0
2, 110866, Note_on_c, 0, 62, 0
2, 110904, Note_on_c, 0, 67, 0
2, 110924, Note_on_c, 0, 63, 0
2, 111403, Note_on_c, 0, 64, 31
2, 111407, Control_c, 0, 64, 0
2, 111408, Note_on_c, 0, 28, 40
2, 111412, Note_on_c, 0, 57, 37
2, 111413, Note_on_c, 0, 40, 42
2, 111440, Note_on_c, 0, 59, 29
2, 111654, Note_on_c, 0, 57, 0
2, 111667, Note_on_c, 0, 40, 0
2, 111674, Note_on_c, 0, 59, 0
2, 111677, Note_on_c, 0, 28, 0
2, 111681, Note_on_c, 0, 64, 0
2, 111729, Note_on_c, 0, 28, 24
2, 111733, Note_on_c, 0, 57, 40
2, 111735, Note_on_c, 0, 40, 34
2, 111742, Note_on_c, 0, 59, 27
2, 111750, Note_on_c, 0, 64, 17
2, 111801, Note_on_c, 0, 57, 0
2, 111808, Note_on_c, 0, 59, 0
2, 111815, Note_on_c, 0, 28, 0
2, 111820, Note_on_c, 0, 40, 0
2, 111840, Note_on_c, 0, 64, 0
2, 112397, Control_c, 0, 64, 127
2, 112638, Note_on_c, 0, 35, 39
2, 112749, Note_on_c, 0, 35, 0
2, 112753, Control_c, 0, 64, 0
2, 112795, Note_on_c, 0, 40, 57
2, 112803, Note_on_c, 0, 28, 53
2, 113036, Note_on_c, 0, 40, 0
2, 113091, Note_on_c, 0, 40, 68
2, 113206, Note_on_c, 0, 40, 0
2, 113227, Note_on_c, 0, 28, 0
2, 113540, Note_on_c, 0, 25, 90
2, 113575, Note_on_c, 0, 27, 31
2, 113618, Note_on_c, 0, 27, 0
2, 113718, Note_on_c, 0, 37, 44
2, 113930, Note_on_c, 0, 25, 0
2, 113984, Note_on_c, 0, 37, 0
2, 114014, Note_on_c, 0, 26, 71
2, 114209, Note_on_c, 0, 38, 64
2, 114334, Note_on_c, 0, 26, 0
2, 114502, Note_on_c, 0, 38, 0
2, 114520, Note_on_c, 0, 27, 80
2, 114701, Note_on_c, 0, 39, 61
2, 114848, Note_on_c, 0, 27, 0
2, 115010, Note_on_c, 0, 27, 55
2, 115101, Note_on_c, 0, 39, 0
2, 115124, Note_on_c, 0, 27, 0
2, 115168, Note_on_c, 0, 28, 53
2, 115176, Note_on_c, 0, 40, 60
2, 115184, Note_on_c, 0, 71, 64
2, 115187, Note_on_c, 0, 62, 72
2, 115193, Note_on_c, 0, 67, 66
2, 115417, Note_on_c, 0, 28, 0
2, 115433, Note_on_c, 0, 40, 0
2, 115511, Note_on_c, 0, 40, 77
2, 115515, Note_on_c, 0, 28, 76
2, 115643, Note_on_c, 0, 62, 0
2, 115656, Note_on_c, 0, 40, 0
2, 115667, Note_on_c, 0, 67, 0
2, 115668, Note_on_c, 0, 28, 0
2, 115680, Note_on_c, 0, 71, 0
2, 116198, Control_c, 0, 64, 127
2, 116520, Note_on_c, 0, 35, 42
2, 116525, Control_c, 0, 64, 0
2, 116608, Note_on_c, 0, 35, 0
2, 116654, Note_on_c, 0, 28, 74
2, 116656, Note_on_c, 0, 40, 77
2, 116683, Note_on_c, 0, 34, 46
2, 116715, Note_on_c, 0, 34, 0
2, 116923, Note_on_c, 0, 28, 0
2, 116928, Note_on_c, 0, 40, 0
2, 116985, Note_on_c, 0, 28, 59
2, 116986, Note_on_c, 0, 40, 70
2, 117022, Note_on_c, 0, 34, 44
2, 117055, Note_on_c, 0, 34, 0
2, 117189, Note_on_c, 0, 40, 0
2, 117220, Note_on_c, 0, 28, 0
2, 117660, Control_c, 0, 64, 127
2, 118055, Control_c, 0, 64, 0
2, 118134, Note_on_c, 0, 68, 85
2, 118135, Note_on_c, 0, 76, 87
2, 118137, Note_on_c, 0, 37, 86
2, 118138, Note_on_c, 0, 64, 99
2, 118139, Note_on_c, 0, 25, 85
2, 118141, Note_on_c, 0, 71, 81
2, 118161, Note_on_c, 0, 74, 46
2, 118200, Note_on_c, 0, 74, 0
2, 118257, Control_c, 0, 64, 127
2, 118615, Note_on_c, 0, 76, 0
2, 118625, Note_on_c, 0, 25, 0
2, 118632, Note_on_c, 0, 37, 0
2, 118648, Note_on_c, 0, 71, 0
2, 118668, Note_on_c, 0, 64, 0
2, 118700, Note_on_c, 0, 68, 0
2, 119113, Note_on_c, 0, 71, 71
2, 119123, Control_c, 0, 64, 0
2, 119125, Note_on_c, 0, 64, 82
2, 119127, Note_on_c, 0, 59, 77
2, 119131, Note_on_c, 0, 67, 71
2, 119132, Note_on_c, 0, 36, 91
2, 119133, Note_on_c, 0, 24, 88
2, 119401, Note_on_c, 0, 24, 0
2, 119406, Note_on_c, 0, 36, 0
2, 119467, Note_on_c, 0, 24, 66
2, 119471, Note_on_c, 0, 36, 71
2, 119576, Note_on_c, 0, 36, 0
2, 119623, Note_on_c, 0, 24, 0
2, 120126, Control_c, 0, 64, 127
2, 120323, Note_on_c, 0, 31, 41
2, 120414, Control_c, 0, 64, 0
2, 120452, Note_on_c, 0, 31, 0
2, 120515, Note_on_c, 0, 36, 60
2, 120528, Note_on_c, 0, 24, 51
2, 120744, Note_on_c, 0, 24, 0
2, 120749, Note_on_c, 0, 36, 0
2, 120820, Note_on_c, 0, 36, 71
2, 120829, Note_on_c, 0, 24, 63
2, 120982, Note_on_c, 0, 36, 0
2, 121004, Note_on_c, 0, 24, 0
2, 121095, Note_on_c, 0, 59, 0
2, 121101, Note_on_c, 0, 64, 0
2, 121102, Note_on_c, 0, 67, 0
2, 121145, Note_on_c, 0, 71, 0
2, 121464, Control_c, 0, 64, 127
2, 121888, Control_c, 0, 64, 0
2, 121897, Note_on_c, 0, 64, 95
2, 121903, Note_on_c, 0, 36, 80
2, 121907, Note_on_c, 0, 59, 77
2, 121908, Note_on_c, 0, 24, 75
2, 121932, Note_on_c, 0, 66, 32
2, 121965, Note_on_c, 0, 66, 0
2, 122016, Note_on_c, 0, 36, 0
2, 122048, Note_on_c, 0, 59, 0
2, 122050, Note_on_c, 0, 24, 0
2, 122064, Note_on_c, 0, 64, 0
2, 122384, Note_on_c, 0, 67, 82
2, 122387, Note_on_c, 0, 35, 73
2, 122388, Note_on_c, 0, 62, 94
2, 122393, Note_on_c, 0, 23, 76
2, 122493, Note_on_c, 0, 62, 0
2, 122530, Note_on_c, 0, 67, 0
2, 122544, Note_on_c, 0, 23, 0
2, 122545, Note_on_c, 0, 35, 0
2, 122857, Note_on_c, 0, 33, 74
2, 122864, Note_on_c, 0, 21, 82
2, 122873, Note_on_c, 0, 71, 85
2, 122874, Note_on_c, 0, 64, 95
2, 122876, Note_on_c, 0, 60, 81
2, 122917, Control_c, 0, 64, 127
2, 123504, Note_on_c, 0, 71, 0
2, 123565, Note_on_c, 0, 64, 0
2, 123640, Note_on_c, 0, 60, 0
2, 123733, Note_on_c, 0, 21, 0
2, 123759, Note_on_c, 0, 33, 0
2, 123831, Control_c, 0, 64, 0
2, 123857, Note_on_c, 0, 35, 62
2, 123867, Note_on_c, 0, 23, 50
2, 123868, Note_on_c, 0, 69, 58
2, 123881, Note_on_c, 0, 66, 53
2, 123884, Note_on_c, 0, 62, 63
2, 123904, Note_on_c, 0, 59, 33
2, 123912, Note_on_c, 0, 57, 29
2, 124110, Note_on_c, 0, 57, 0
2, 124312, Control_c, 0, 64, 127
2, 124383, Note_on_c, 0, 69, 0
2, 124385, Note_on_c, 0, 23, 0
2, 124413, Note_on_c, 0, 62, 0
2, 124431, Note_on_c, 0, 35, 0
2, 124486, Note_on_c, 0, 59, 0
2, 124515, Note_on_c, 0, 66, 0
2, 124803, Control_c, 0, 64, 0
2, 124862, Note_on_c, 0, 67, 48
2, 124869, Note_on_c, 0, 59, 47
2, 124877, Note_on_c, 0, 64, 44
2, 124880, Note_on_c, 0, 24, 42
2, 124881, Note_on_c, 0, 60, 42
2, 124891, Note_on_c, 0, 36, 34
2, 125063, Control_c, 0, 64, 127
2, 125390, Note_on_c, 0, 24, 0
2, 125441, Note_on_c, 0, 36, 0
2, 125474, Note_on_c, 0, 59, 0
2, 125479, Note_on_c, 0, 60, 0
2, 125541, Note_on_c, 0, 64, 0
2, 125617, Note_on_c, 0, 67, 0
2, 125861, Control_c, 0, 64, 0
2, 125869, Note_on_c, 0, 46, 74
2, 125870, Note_on_c, 0, 63, 74
2, 125878, Note_on_c, 0, 34, 62
2, 125879, Note_on_c, 0, 67, 60
2, 125968, Note_on_c, 0, 58, 6
2, 126217, Note_on_c, 0, 58, 0
2, 126246, Control_c, 0, 64, 127
2, 126306, Note_on_c, 0, 67, 0
2, 126341, Note_on_c, 0, 46, 0
2, 126355, Note_on_c, 0, 34, 0
2, 126419, Note_on_c, 0, 63, 0
2, 126605, Note_on_c, 0, 64, 70
2, 126611, Control_c, 0, 64, 0
2, 126623, Note_on_c, 0, 55, 43
2, 126638, Note_on_c, 0, 45, 55
2, 126643, Note_on_c, 0, 33, 46
2, 126657, Note_on_c, 0, 59, 35
2, 126843, Control_c, 0, 64, 127
2, 126881, Note_on_c, 0, 55, 0
2, 126931, Note_on_c, 0, 59, 0
2, 126968, Note_on_c, 0, 64, 0
2, 127111, Note_on_c, 0, 33, 0
2, 127168, Note_on_c, 0, 45, 0
2, 127262, Note_on_c, 0, 76, 70
2, 127671, Note_on_c, 0, 76, 0
2, 127690, Note_on_c, 0, 67, 50
2, 127848, Note_on_c, 0, 67, 0
2, 127977, Note_on_c, 0, 71, 53
2, 128016, Note_on_c, 0, 71, 0
2, 128161, Note_on_c, 0, 81, 31
2, 128260, Note_on_c, 0, 81, 0
2, 128441, Note_on_c, 0, 66, 57
2, 128461, Note_on_c, 0, 86, 63
2, 128470, Note_on_c, 0, 62, 45
2, 128472, Note_on_c, 0, 55, 30
2, 128488, Note_on_c, 0, 59, 37
2, 128497, Control_c, 0, 64, 0
2, 128662, Control_c, 0, 64, 127
2, 128858, Note_on_c, 0, 93, 62
2, 128949, Note_on_c, 0, 86, 0
2, 128969, Note_on_c, 0, 93, 0
2, 129103, Note_on_c, 0, 88, 44
2, 129264, Note_on_c, 0, 88, 0
2, 129462, Note_on_c, 0, 88, 54
2, 129582, Note_on_c, 0, 88, 0
2, 129851, Note_on_c, 0, 88, 60
2, 129951, Note_on_c, 0, 62, 0
2, 130006, Note_on_c, 0, 66, 0
2, 130025, Note_on_c, 0, 59, 0
2, 130128, Note_on_c, 0, 88, 0
2, 130169, Note_on_c, 0, 89, 38
2, 130173, Note_on_c, 0, 55, 0
2, 130271, Note_on_c, 0, 89, 0
2, 130313, Note_on_c, 0, 90, 52
2, 130407, Note_on_c, 0, 90, 0
2, 130441, Control_c, 0, 64, 0
2, 130462, Note_on_c, 0, 65, 46
2, 130469, Note_on_c, 0, 55, 34
2, 130477, Note_on_c, 0, 60, 32
2, 130480, Note_on_c, 0, 57, 45
2, 130487, Note_on_c, 0, 91, 49
2, 130614, Control_c, 0, 64, 127
2, 130868, Note_on_c, 0, 91, 0
2, 130983, Note_on_c, 0, 65, 0
2, 130993, Note_on_c, 0, 91, 67
2, 131016, Note_on_c, 0, 60, 0
2, 131072, Note_on_c, 0, 55, 0
2, 131077, Note_on_c, 0, 91, 0
2, 131088, Note_on_c, 0, 57, 0
2, 131471, Note_on_c, 0, 64, 47
2, 131490, Control_c, 0, 64, 0
2, 131501, Note_on_c, 0, 60, 30
2, 131503, Note_on_c, 0, 57, 42
2, 131506, Note_on_c, 0, 53, 34
2, 131632, Note_on_c, 0, 53, 0
2, 131639, Note_on_c, 0, 57, 0
2, 131662, Note_on_c, 0, 60, 0
2, 131667, Note_on_c, 0, 64, 0
2, 131823, Note_on_c, 0, 42, 36
2, 131953, Note_on_c, 0, 42, 0
2, 131970, Note_on_c, 0, 64, 46
2, 131976, Note_on_c, 0, 43, 40
2, 131979, Note_on_c, 0, 53, 33
2, 132004, Note_on_c, 0, 57, 34
2, 132007, Note_on_c, 0, 60, 24
2, 132189, Note_on_c, 0, 53, 0
2, 132208, Note_on_c, 0, 64, 0
2, 132216, Note_on_c, 0, 57, 0
2, 132238, Note_on_c, 0, 60, 0
2, 132310, Note_on_c, 0, 64, 47
2, 132324, Note_on_c, 0, 57, 38
2, 132326, Note_on_c, 0, 31, 44
2, 132340, Note_on_c, 0, 60, 24
2, 132381, Note_on_c, 0, 57, 0
2, 132387, Note_on_c, 0, 60, 0
2, 132422, Note_on_c, 0, 64, 0
2, 132685, Note_on_c, 0, 43, 0
2, 132780, Note_on_c, 0, 64, 60
2, 132794, Note_on_c, 0, 43, 35
2, 132795, Note_on_c, 0, 53, 48
2, 132797, Note_on_c, 0, 57, 56
2, 132803, Note_on_c, 0, 60, 36
2, 132992, Control_c, 0, 64, 127
2, 133107, Note_on_c, 0, 43, 0
2, 133126, Note_on_c, 0, 53, 0
2, 133191, Note_on_c, 0, 57, 0
2, 133230, Note_on_c, 0, 60, 0
2, 133288, Note_on_c, 0, 64, 0
2, 133289, Note_on_c, 0, 43, 64
2, 133376, Control_c, 0, 64, 0
2, 133472, Note_on_c, 0, 64, 83
2, 133501, Control_c, 0, 64, 127
2, 133656, Note_on_c, 0, 64, 0
2, 133691, Note_on_c, 0, 31, 0
2, 133767, Note_on_c, 0, 65, 85
2, 133775, Note_on_c, 0, 43, 0
2, 133780, Control_c, 0, 64, 0
2, 133893, Note_on_c, 0, 65, 0
2, 133916, Control_c, 0, 64, 127
2, 133943, Note_on_c, 0, 66, 62
2, 134045, Note_on_c, 0, 66, 0
2, 134078, Note_on_c, 0, 67, 65
2, 134168, Note_on_c, 0, 67, 0
2, 134256, Note_on_c, 0, 68, 45
2, 134342, Note_on_c, 0, 69, 44
2, 134420, Note_on_c, 0, 69, 0
2, 134433, Note_on_c, 0, 68, 0
2, 134454, Control_c, 0, 64, 0
2, 134457, Note_on_c, 0, 70, 80
2, 134583, Note_on_c, 0, 67, 65
2, 134629, Note_on_c, 0, 70, 0
2, 134766, Note_on_c, 0, 67, 0
2, 134869, Note_on_c, 0, 63, 59
2, 134878, Note_on_c, 0, 67, 65
2, 134881, Note_on_c, 0, 60, 40
2, 134888, Note_on_c, 0, 56, 39
2, 134938, Note_on_c, 0, 60, 0
2, 134942, Note_on_c, 0, 63, 0
2, 134957, Note_on_c, 0, 67, 0
2, 134989, Note_on_c, 0, 56, 0
2, 135185, Note_on_c, 0, 63, 56
2, 135187, Note_on_c, 0, 60, 49
2, 135196, Note_on_c, 0, 67, 53
2, 135200, Note_on_c, 0, 56, 67
2, 135355, Note_on_c, 0, 67, 0
2, 135376, Note_on_c, 0, 56, 0
2, 135382, Note_on_c, 0, 60, 0
2, 135385, Note_on_c, 0, 63, 0
2, 135480, Note_on_c, 0, 63, 46
2, 135484, Note_on_c, 0, 60, 37
2, 135487, Note_on_c, 0, 67, 53
2, 135499, Note_on_c, 0, 56, 50
2, 135807, Note_on_c, 0, 46, 65
2, 135868, Control_c, 0, 64, 127
2, 135997, Note_on_c, 0, 63, 0
2, 136010, Note_on_c, 0, 60, 0
2, 136105, Note_on_c, 0, 56, 0
2, 136224, Control_c, 0, 64, 0
2, 136226, Note_on_c, 0, 63, 68
2, 136246, Note_on_c, 0, 60, 47
2, 136249, Note_on_c, 0, 56, 57
2, 136340, Control_c, 0, 64, 127
2, 136519, Note_on_c, 0, 46, 0
2, 136664, Note_on_c, 0, 46, 78
2, 136747, Note_on_c, 0, 56, 0
2, 136814, Note_on_c, 0, 60, 0
2, 136893, Note_on_c, 0, 46, 0
2, 137009, Note_on_c, 0, 67, 0
2, 137085, Note_on_c, 0, 63, 0
2, 137151, Note_on_c, 0, 46, 64
2, 137263, Control_c, 0, 64, 0
2, 137286, Note_on_c, 0, 70, 77
2, 137291, Note_on_c, 0, 63, 85
2, 137298, Note_on_c, 0, 60, 78
2, 137299, Note_on_c, 0, 56, 78
2, 137300, Note_on_c, 0, 67, 74
2, 137496, Note_on_c, 0, 56, 0
2, 137504, Note_on_c, 0, 70, 0
2, 137506, Note_on_c, 0, 60, 0
2, 137523, Note_on_c, 0, 67, 0
2, 137543, Note_on_c, 0, 63, 0
2, 137565, Note_on_c, 0, 46, 0
2, 137759, Note_on_c, 0, 46, 63
2, 137760, Note_on_c, 0, 56, 67
2, 137761, Note_on_c, 0, 63, 78
2, 137764, Note_on_c, 0, 70, 62
2, 137773, Control_c, 0, 64, 127
2, 137776, Note_on_c, 0, 60, 68
2, 137782, Note_on_c, 0, 67, 56
2, 137826, Note_on_c, 0, 56, 0
2, 137892, Note_on_c, 0, 60, 0
2, 137907, Note_on_c, 0, 46, 0
2, 138000, Note_on_c, 0, 70, 0
2, 138018, Note_on_c, 0, 67, 0
2, 138062, Note_on_c, 0, 63, 0
2, 138178, Control_c, 0, 64, 0
2, 138241, Note_on_c, 0, 71, 87
2, 138246, Note_on_c, 0, 64, 91
2, 138247, Note_on_c, 0, 45, 85
2, 138248, Note_on_c, 0, 67, 79
2, 138249, Note_on_c, 0, 62, 95
2, 138256, Note_on_c, 0, 33, 74
2, 138302, Note_on_c, 0, 62, 0
2, 138344, Control_c, 0, 64, 127
2, 138454, Note_on_c, 0, 64, 0
2, 138472, Note_on_c, 0, 67, 0
2, 138473, Note_on_c, 0, 33, 0
2, 138474, Note_on_c, 0, 71, 0
2, 138475, Note_on_c, 0, 62, 32
2, 138545, Note_on_c, 0, 45, 0
2, 138552, Note_on_c, 0, 62, 0
2, 138569, Note_on_c, 0, 71, 26
2, 138580, Note_on_c, 0, 64, 36
2, 138591, Note_on_c, 0, 67, 28
2, 138661, Note_on_c, 0, 64, 0
2, 138679, Note_on_c, 0, 67, 0
2, 138681, Note_on_c, 0, 62, 41
2, 138685, Note_on_c, 0, 71, 0
2, 138758, Note_on_c, 0, 62, 0
2, 138775, Note_on_c, 0, 64, 44
2, 138792, Note_on_c, 0, 71, 5
2, 138792, Note_on_c, 0, 67, 31
2, 138874, Note_on_c, 0, 64, 0
2, 138893, Note_on_c, 0, 62, 44
2, 138899, Note_on_c, 0, 67, 0
2, 138902, Note_on_c, 0, 71, 0
2, 138976, Note_on_c, 0, 62, 0
2, 138992, Note_on_c, 0, 64, 47
2, 139008, Note_on_c, 0, 67, 33
2, 139009, Note_on_c, 0, 71, 5
2, 139088, Note_on_c, 0, 64, 0
2, 139096, Note_on_c, 0, 62, 52
2, 139101, Note_on_c, 0, 59, 88
2, 139109, Note_on_c, 0, 67, 0
2, 139187, Note_on_c, 0, 62, 0
2, 139190, Note_on_c, 0, 64, 51
2, 139201, Note_on_c, 0, 67, 43
2, 139280, Note_on_c, 0, 64, 0
2, 139287, Note_on_c, 0, 62, 44
2, 139288, Note_on_c, 0, 67, 0
2, 139376, Note_on_c, 0, 62, 0
2, 139388, Note_on_c, 0, 64, 50
2, 139403, Note_on_c, 0, 67, 37
2, 139478, Note_on_c, 0, 62, 48
2, 139481, Note_on_c, 0, 64, 0
2, 139494, Note_on_c, 0, 67, 0
2, 139544, Note_on_c, 0, 71, 0
2, 139586, Note_on_c, 0, 59, 0
2, 139593, Note_on_c, 0, 64, 58
2, 139596, Note_on_c, 0, 62, 0
2, 139618, Note_on_c, 0, 67, 43
2, 139628, Note_on_c, 0, 71, 32
2, 139643, Control_c, 0, 64, 0
2, 139656, Note_on_c, 0, 57, 96
2, 139721, Note_on_c, 0, 64, 0
2, 139723, Note_on_c, 0, 62, 66
2, 139742, Note_on_c, 0, 67, 0
2, 139768, Control_c, 0, 64, 127
2, 139812, Note_on_c, 0, 62, 0
2, 139815, Note_on_c, 0, 64, 48
2, 139832, Note_on_c, 0, 67, 45
2, 139910, Note_on_c, 0, 64, 0
2, 139913, Note_on_c, 0, 67, 0
2, 139914, Note_on_c, 0, 62, 49
2, 140009, Note_on_c, 0, 62, 0
2, 140012, Note_on_c, 0, 64, 52
2, 140024, Note_on_c, 0, 67, 37
2, 140080, Note_on_c, 0, 57, 0
2, 140108, Note_on_c, 0, 64, 0
2, 140110, Note_on_c, 0, 62, 48
2, 140116, Note_on_c, 0, 67, 0
2, 140212, Note_on_c, 0, 62, 0
2, 140218, Note_on_c, 0, 64, 44
2, 140233, Note_on_c, 0, 67, 30
2, 140328, Note_on_c, 0, 64, 0
2, 140328, Note_on_c, 0, 62, 53
2, 140361, Note_on_c, 0, 67, 0
2, 140376, Note_on_c, 0, 71, 0
2, 140447, Note_on_c, 0, 64, 39
2, 140477, Note_on_c, 0, 45, 84
2, 140479, Note_on_c, 0, 71, 55
2, 140481, Note_on_c, 0, 67, 35
2, 140485, Note_on_c, 0, 62, 0
2, 140568, Note_on_c, 0, 64, 0
2, 140583, Note_on_c, 0, 62, 50
2, 140608, Note_on_c, 0, 67, 0
2, 140684, Note_on_c, 0, 62, 0
2, 140688, Note_on_c, 0, 64, 42
2, 140710, Note_on_c, 0, 67, 38
2, 140764, Note_on_c, 0, 67, 0
2, 140770, Note_on_c, 0, 64, 0
2, 140788, Note_on_c, 0, 62, 40
2, 140823, Note_on_c, 0, 71, 0
2, 140881, Note_on_c, 0, 62, 0
2, 140884, Note_on_c, 0, 64, 45
2, 140917, Note_on_c, 0, 67, 33
2, 140936, Note_on_c, 0, 71, 24
2, 141000, Note_on_c, 0, 64, 0
2, 141007, Note_on_c, 0, 62, 52
2, 141019, Note_on_c, 0, 71, 0
2, 141024, Note_on_c, 0, 67, 0
2, 141075, Note_on_c, 0, 57, 64
2, 141090, Note_on_c, 0, 64, 40
2, 141096, Note_on_c, 0, 62, 0
2, 141105, Note_on_c, 0, 71, 43
2, 141110, Note_on_c, 0, 67, 53
2, 141194, Note_on_c, 0, 64, 0
2, 141203, Note_on_c, 0, 62, 50
2, 141207, Note_on_c, 0, 45, 0
2, 141214, Note_on_c, 0, 67, 0
2, 141276, Note_on_c, 0, 71, 0
2, 141289, Note_on_c, 0, 62, 0
2, 141306, Note_on_c, 0, 64, 32
2, 141308, Note_on_c, 0, 67, 44
2, 141399, Note_on_c, 0, 62, 34
2, 141453, Note_on_c, 0, 67, 0
2, 141516, Note_on_c, 0, 62, 0
2, 141533, Note_on_c, 0, 57, 0
2, 141535, Note_on_c, 0, 67, 29
2, 141552, Note_on_c, 0, 71, 30
2, 141581, Note_on_c, 0, 45, 68
2, 141647, Note_on_c, 0, 62, 53
2, 141686, Note_on_c, 0, 67, 0
2, 141692, Note_on_c, 0, 64, 0
2, 141693, Note_on_c, 0, 45, 0
2, 141726, Note_on_c, 0, 71, 0
2, 141742, Note_on_c, 0, 62, 0
2, 142088, Note_on_c, 0, 71, 74
2, 142090, Note_on_c, 0, 64, 90
2, 142093, Note_on_c, 0, 68, 74
2, 142094, Note_on_c, 0, 75, 77
2, 142096, Note_on_c, 0, 30, 85
2, 142097, Note_on_c, 0, 42, 85
2, 142100, Control_c, 0, 64, 0
2, 142388, Control_c, 0, 64, 127
2, 142604, Note_on_c, 0, 42, 0
2, 142617, Note_on_c, 0, 30, 0
2, 142618, Note_on_c, 0, 75, 0
2, 142661, Note_on_c, 0, 64, 0
2, 142677, Note_on_c, 0, 68, 0
2, 142699, Note_on_c, 0, 71, 0
2, 142840, Control_c, 0, 64, 0
2, 142855, Note_on_c, 0, 30, 79
2, 142857, Note_on_c, 0, 64, 80
2, 142859, Note_on_c, 0, 42, 76
2, 142860, Note_on_c, 0, 71, 62
2, 142861, Note_on_c, 0, 68, 62
2, 142868, Note_on_c, 0, 59, 64
2, 142906, Note_on_c, 0, 70, 32
2, 142980, Control_c, 0, 64, 127
2, 143520, Note_on_c, 0, 59, 0
2, 143526, Note_on_c, 0, 64, 0
2, 143550, Note_on_c, 0, 68, 0
2, 143568, Note_on_c, 0, 70, 0
2, 143592, Note_on_c, 0, 71, 0
2, 143823, Note_on_c, 0, 42, 0
2, 143840, Note_on_c, 0, 30, 0
2, 143850, Note_on_c, 0, 36, 47
2, 143888, Note_on_c, 0, 36, 0
2, 143988, Note_on_c, 0, 41, 80
2, 143991, Control_c, 0, 64, 0
2, 143992, Note_on_c, 0, 74, 80
2, 143993, Note_on_c, 0, 67, 88
2, 143995, Note_on_c, 0, 71, 80
2, 143996, Note_on_c, 0, 62, 95
2, 143997, Note_on_c, 0, 29, 74
2, 144394, Control_c, 0, 64, 127
2, 144510, Note_on_c, 0, 41, 0
2, 144511, Note_on_c, 0, 29, 0
2, 144529, Note_on_c, 0, 62, 0
2, 144537, Note_on_c, 0, 74, 0
2, 144566, Note_on_c, 0, 67, 0
2, 144624, Note_on_c, 0, 71, 0
2, 144760, Control_c, 0, 64, 0
2, 144768, Note_on_c, 0, 29, 78
2, 144769, Note_on_c, 0, 74, 76
2, 144771, Note_on_c, 0, 41, 83
2, 144772, Note_on_c, 0, 62, 91
2, 144774, Note_on_c, 0, 67, 77
2, 144779, Note_on_c, 0, 71, 74
2, 144794, Note_on_c, 0, 72, 59
2, 144827, Note_on_c, 0, 72, 0
2, 144933, Control_c, 0, 64, 127
2, 145303, Note_on_c, 0, 29, 0
2, 145513, Note_on_c, 0, 71, 0
2, 145518, Note_on_c, 0, 29, 27
2, 145526, Note_on_c, 0, 67, 0
2, 145536, Note_on_c, 0, 62, 0
2, 145649, Note_on_c, 0, 74, 0
2, 145716, Note_on_c, 0, 41, 0
2, 145734, Note_on_c, 0, 29, 0
2, 146008, Note_on_c, 0, 64, 49
2, 146009, Note_on_c, 0, 71, 62
2, 146012, Control_c, 0, 64, 0
2, 146016, Note_on_c, 0, 66, 69
2, 146023, Note_on_c, 0, 74, 48
2, 146024, Note_on_c, 0, 40, 51
2, 146025, Note_on_c, 0, 26, 33
2, 146029, Note_on_c, 0, 28, 36
2, 146188, Note_on_c, 0, 66, 0
2, 146190, Note_on_c, 0, 64, 0
2, 146191, Note_on_c, 0, 26, 0
2, 146208, Note_on_c, 0, 74, 0
2, 146230, Note_on_c, 0, 28, 0
2, 146241, Note_on_c, 0, 71, 0
2, 146259, Note_on_c, 0, 40, 0
2, 146718, Note_on_c, 0, 74, 47
2, 146728, Note_on_c, 0, 64, 39
2, 146730, Note_on_c, 0, 71, 42
2, 146732, Note_on_c, 0, 66, 37
2, 146736, Note_on_c, 0, 28, 36
2, 146736, Note_on_c, 0, 40, 37
2, 146951, Note_on_c, 0, 28, 0
2, 146959, Note_on_c, 0, 66, 0
2, 146963, Note_on_c, 0, 74, 0
2, 146976, Note_on_c, 0, 64, 0
2, 147006, Note_on_c, 0, 40, 0
2, 147024, Note_on_c, 0, 71, 0
2, 147415, Note_on_c, 0, 74, 45
2, 147423, Note_on_c, 0, 40, 40
2, 147424, Note_on_c, 0, 64, 47
2, 147428, Note_on_c, 0, 28, 35
2, 147432, Note_on_c, 0, 66, 38
2, 147444, Note_on_c, 0, 71, 47
2, 147604, Note_on_c, 0, 66, 0
2, 147619, Note_on_c, 0, 64, 0
2, 147623, Note_on_c, 0, 28, 0
2, 147624, Note_on_c, 0, 74, 0
2, 147654, Note_on_c, 0, 40, 0
2, 147667, Note_on_c, 0, 71, 0
2, 148170, Note_on_c, 0, 35, 38
2, 148270, Note_on_c, 0, 35, 0
2, 148324, Note_on_c, 0, 74, 63
2, 148325, Note_on_c, 0, 40, 55
2, 148326, Note_on_c, 0, 64, 59
2, 148328, Note_on_c, 0, 66, 53
2, 148347, Note_on_c, 0, 71, 58
2, 148550, Note_on_c, 0, 64, 0
2, 148553, Note_on_c, 0, 74, 0
2, 148561, Note_on_c, 0, 40, 0
2, 148571, Note_on_c, 0, 66, 0
2, 148608, Note_on_c, 0, 71, 0
2, 148630, Note_on_c, 0, 40, 69
2, 148641, Note_on_c, 0, 74, 67
2, 148643, Note_on_c, 0, 66, 67
2, 148650, Note_on_c, 0, 64, 68
2, 148660, Note_on_c, 0, 71, 47
2, 148760, Note_on_c, 0, 40, 0
2, 148772, Note_on_c, 0, 64, 0
2, 148805, Note_on_c, 0, 66, 0
2, 148809, Note_on_c, 0, 71, 0
2, 148811, Note_on_c, 0, 40, 52
2, 148868, Note_on_c, 0, 74, 0
2, 148944, Note_on_c, 0, 40, 0
2, 149114, Note_on_c, 0, 76, 71
2, 149117, Note_on_c, 0, 25, 69
2, 149119, Note_on_c, 0, 37, 65
2, 149127, Note_on_c, 0, 68, 64
2, 149128, Note_on_c, 0, 71, 71
2, 149128, Note_on_c, 0, 64, 78
2, 149155, Note_on_c, 0, 74, 41
2, 149294, Control_c, 0, 64, 127
2, 149364, Note_on_c, 0, 76, 0
2, 149371, Control_c, 0, 64, 0
2, 149372, Note_on_c, 0, 74, 0
2, 149388, Note_on_c, 0, 71, 0
2, 149391, Control_c, 0, 64, 127
2, 149434, Note_on_c, 0, 64, 0
2, 149446, Note_on_c, 0, 68, 0
2, 149632, Note_on_c, 0, 37, 0
2, 149650, Control_c, 0, 64, 0
2, 149661, Note_on_c, 0, 25, 0
2, 149750, Note_on_c, 0, 71, 62
2, 149755, Note_on_c, 0, 24, 58
2, 149761, Note_on_c, 0, 64, 64
2, 149764, Note_on_c, 0, 59, 55
2, 149765, Note_on_c, 0, 67, 58
2, 149769, Note_on_c, 0, 36, 36
2, 149805, Control_c, 0, 64, 127
2, 150051, Note_on_c, 0, 24, 0
2, 150102, Note_on_c, 0, 36, 0
2, 150191, Note_on_c, 0, 59, 0
2, 150408, Note_on_c, 0, 67, 0
2, 150463, Note_on_c, 0, 64, 0
2, 150719, Note_on_c, 0, 67, 45
2, 150727, Note_on_c, 0, 64, 54
2, 150729, Note_on_c, 0, 62, 51
2, 150853, Control_c, 0, 64, 0
2, 150960, Control_c, 0, 64, 127
2, 151024, Note_on_c, 0, 59, 74
2, 151065, Control_c, 0, 64, 0
2, 151080, Note_on_c, 0, 62, 0
2, 151168, Note_on_c, 0, 64, 0
2, 151188, Note_on_c, 0, 67, 0
2, 151219, Note_on_c, 0, 59, 0
2, 151228, Note_on_c, 0, 60, 56
2, 151438, Note_on_c, 0, 60, 0
2, 151499, Note_on_c, 0, 64, 58
2, 151505, Note_on_c, 0, 67, 55
2, 151510, Note_on_c, 0, 62, 79
2, 151700, Control_c, 0, 64, 127
2, 151758, Control_c, 0, 64, 0
2, 151797, Control_c, 0, 64, 127
2, 151896, Note_on_c, 0, 62, 0
2, 151960, Control_c, 0, 64, 0
2, 151961, Note_on_c, 0, 60, 42
2, 152023, Note_on_c, 0, 64, 0
2, 152039, Note_on_c, 0, 67, 0
2, 152095, Note_on_c, 0, 60, 0
2, 152153, Note_on_c, 0, 59, 59
2, 152161, Note_on_c, 0, 67, 37
2, 152161, Note_on_c, 0, 64, 57
2, 152172, Note_on_c, 0, 62, 49
2, 152230, Control_c, 0, 64, 127
2, 152345, Note_on_c, 0, 67, 0
2, 152353, Note_on_c, 0, 59, 0
2, 152389, Note_on_c, 0, 64, 0
2, 152436, Note_on_c, 0, 62, 0
2, 152746, Note_on_c, 0, 71, 0
2, 152902, Note_on_c, 0, 64, 62
2, 152916, Note_on_c, 0, 62, 61
2, 152946, Note_on_c, 0, 57, 28
2, 152979, Control_c, 0, 64, 0
2, 152999, Note_on_c, 0, 62, 0
2, 153008, Note_on_c, 0, 57, 0
2, 153045, Note_on_c, 0, 64, 0
2, 153238, Note_on_c, 0, 46, 49
2, 153241, Note_on_c, 0, 67, 60
2, 153253, Note_on_c, 0, 56, 38
2, 153256, Note_on_c, 0, 62, 53
2, 153262, Note_on_c, 0, 64, 58
2, 153278, Control_c, 0, 64, 127
2, 153365, Control_c, 0, 64, 0
2, 153379, Note_on_c, 0, 62, 0
2, 153397, Note_on_c, 0, 67, 0
2, 153445, Note_on_c, 0, 64, 0
2, 153467, Note_on_c, 0, 56, 0
2, 153525, Note_on_c, 0, 46, 0
2, 153561, Note_on_c, 0, 64, 55
2, 153561, Note_on_c, 0, 60, 45
2, 153564, Note_on_c, 0, 71, 57
2, 153571, Note_on_c, 0, 55, 44
2, 153576, Note_on_c, 0, 45, 52
2, 154029, Control_c, 0, 64, 127
2, 154233, Note_on_c, 0, 71, 0
2, 154285, Note_on_c, 0, 64, 0
2, 154363, Note_on_c, 0, 52, 40
2, 154368, Note_on_c, 0, 45, 0
2, 154386, Note_on_c, 0, 55, 0
2, 154392, Note_on_c, 0, 60, 0
2, 154486, Note_on_c, 0, 52, 0
2, 154538, Control_c, 0, 64, 0
2, 154543, Note_on_c, 0, 69, 46
2, 154546, Note_on_c, 0, 66, 39
2, 154549, Note_on_c, 0, 47, 49
2, 154551, Note_on_c, 0, 57, 60
2, 154560, Note_on_c, 0, 62, 60
2, 155019, Control_c, 0, 64, 127
2, 155026, Note_on_c, 0, 66, 0
2, 155050, Note_on_c, 0, 57, 0
2, 155073, Note_on_c, 0, 62, 0
2, 155248, Note_on_c, 0, 69, 0
2, 155433, Note_on_c, 0, 47, 0
2, 155444, Control_c, 0, 64, 0
2, 155508, Note_on_c, 0, 67, 53
2, 155515, Note_on_c, 0, 59, 38
2, 155520, Note_on_c, 0, 55, 40
2, 155524, Note_on_c, 0, 64, 48
2, 155525, Note_on_c, 0, 62, 50
2, 155551, Note_on_c, 0, 48, 37
2, 155963, Control_c, 0, 64, 127
2, 155986, Note_on_c, 0, 48, 0
2, 156001, Note_on_c, 0, 55, 0
2, 156006, Note_on_c, 0, 59, 0
2, 156040, Note_on_c, 0, 62, 0
2, 156045, Note_on_c, 0, 64, 0
2, 156077, Note_on_c, 0, 67, 0
2, 156321, Note_on_c, 0, 41, 36
2, 156408, Note_on_c, 0, 48, 34
2, 156453, Control_c, 0, 64, 0
2, 156487, Note_on_c, 0, 57, 52
2, 156506, Note_on_c, 0, 55, 34
2, 156524, Note_on_c, 0, 63, 39
2, 156530, Note_on_c, 0, 67, 57
2, 156538, Note_on_c, 0, 71, 61
2, 156546, Note_on_c, 0, 55, 0
2, 156704, Control_c, 0, 64, 127
2, 156751, Note_on_c, 0, 63, 0
2, 156808, Note_on_c, 0, 71, 0
2, 156837, Note_on_c, 0, 67, 0
2, 156856, Note_on_c, 0, 74, 69
2, 156926, Note_on_c, 0, 41, 0
2, 156943, Note_on_c, 0, 48, 0
2, 157014, Note_on_c, 0, 57, 0
2, 157015, Note_on_c, 0, 74, 0
2, 157200, Note_on_c, 0, 76, 65
2, 157430, Note_on_c, 0, 76, 0
2, 157445, Control_c, 0, 64, 0
2, 157462, Note_on_c, 0, 71, 44
2, 157465, Note_on_c, 0, 69, 40
2, 157471, Note_on_c, 0, 64, 54
2, 157608, Control_c, 0, 64, 127
2, 157755, Note_on_c, 0, 69, 0
2, 157775, Note_on_c, 0, 76, 47
2, 157790, Note_on_c, 0, 71, 0
2, 157856, Note_on_c, 0, 76, 0
2, 158086, Note_on_c, 0, 88, 71
2, 158163, Note_on_c, 0, 88, 0
2, 158412, Note_on_c, 0, 83, 66
2, 158499, Note_on_c, 0, 64, 0
2, 158666, Note_on_c, 0, 83, 0
2, 158725, Note_on_c, 0, 76, 49
2, 158732, Note_on_c, 0, 78, 44
2, 158756, Note_on_c, 0, 62, 43
2, 158760, Note_on_c, 0, 57, 40
2, 158769, Note_on_c, 0, 52, 28
2, 159341, Note_on_c, 0, 78, 0
2, 159349, Note_on_c, 0, 76, 0
2, 159401, Note_on_c, 0, 81, 62
2, 159436, Control_c, 0, 64, 0
2, 159506, Note_on_c, 0, 81, 0
2, 159689, Note_on_c, 0, 78, 61
2, 159825, Note_on_c, 0, 78, 0
2, 159857, Note_on_c, 0, 71, 44
2, 160223, Note_on_c, 0, 71, 0
2, 160310, Note_on_c, 0, 76, 62
2, 160421, Note_on_c, 0, 62, 0
2, 160462, Note_on_c, 0, 76, 0
2, 160608, Note_on_c, 0, 57, 0
2, 160644, Note_on_c, 0, 69, 24
2, 160668, Note_on_c, 0, 52, 0
2, 160766, Note_on_c, 0, 69, 0
2, 160768, Note_on_c, 0, 66, 46
2, 160774, Control_c, 0, 64, 127
2, 161198, Control_c, 0, 64, 0
2, 161208, Note_on_c, 0, 66, 0
2, 161232, Note_on_c, 0, 71, 55
2, 161246, Note_on_c, 0, 40, 33
2, 161269, Note_on_c, 0, 47, 22
2, 161324, Note_on_c, 0, 71, 0
2, 161576, Note_on_c, 0, 66, 48
2, 161585, Note_on_c, 0, 64, 48
2, 161688, Note_on_c, 0, 64, 0
2, 161712, Note_on_c, 0, 66, 0
2, 161783, Note_on_c, 0, 59, 31
2, 161888, Note_on_c, 0, 47, 0
2, 162060, Note_on_c, 0, 47, 22
2, 162081, Note_on_c, 0, 59, 0
2, 162183, Note_on_c, 0, 47, 0
2, 162195, Note_on_c, 0, 54, 60
2, 162248, Note_on_c, 0, 40, 0
2, 162489, Note_on_c, 0, 54, 0
2, 162531, Note_on_c, 0, 50, 30
2, 162609, Note_on_c, 0, 50, 0
2, 162638, Note_on_c, 0, 40, 31
2, 162649, Note_on_c, 0, 47, 34
2, 162665, Note_on_c, 0, 52, 49
2, 162835, Note_on_c, 0, 40, 0
2, 162839, Note_on_c, 0, 47, 0
2, 163001, Note_on_c, 0, 47, 49
2, 163007, Note_on_c, 0, 40, 47
2, 163088, Note_on_c, 0, 47, 0
2, 163095, Note_on_c, 0, 40, 0
2, 164032, Note_on_c, 0, 52, 0
2, 164125, Note_on_c, 0, 37, 50
2, 164133, Note_on_c, 0, 44, 42
2, 164481, Note_on_c, 0, 59, 43
2, 164541, Note_on_c, 0, 59, 0
2, 164597, Note_on_c, 0, 37, 0
2, 164698, Note_on_c, 0, 44, 0
2, 164869, Note_on_c, 0, 64, 62
2, 164925, Note_on_c, 0, 64, 0
2, 164995, Note_on_c, 0, 67, 84
2, 165090, Note_on_c, 0, 43, 20
2, 165103, Note_on_c, 0, 67, 0
2, 165109, Note_on_c, 0, 36, 38
2, 165117, Note_on_c, 0, 52, 44
2, 165167, Note_on_c, 0, 66, 64
2, 165408, Note_on_c, 0, 66, 0
2, 165595, Control_c, 0, 64, 127
2, 165624, Note_on_c, 0, 63, 57
2, 165788, Control_c, 0, 64, 0
2, 165850, Note_on_c, 0, 52, 0
2, 165875, Note_on_c, 0, 63, 0
2, 165936, Note_on_c, 0, 64, 62
2, 166066, Note_on_c, 0, 36, 0
2, 166084, Note_on_c, 0, 64, 0
2, 166140, Note_on_c, 0, 59, 24
2, 166392, Note_on_c, 0, 59, 0
2, 166430, Note_on_c, 0, 62, 64
2, 166441, Note_on_c, 0, 52, 31
2, 166538, Note_on_c, 0, 62, 0
2, 166575, Note_on_c, 0, 52, 0
2, 166592, Note_on_c, 0, 57, 55
2, 166875, Note_on_c, 0, 36, 46
2, 166915, Note_on_c, 0, 57, 0
2, 167019, Note_on_c, 0, 36, 0
2, 167023, Note_on_c, 0, 52, 45
2, 167029, Control_c, 0, 64, 127
2, 167041, Note_on_c, 0, 59, 57
2, 167077, Control_c, 0, 64, 0
2, 167144, Control_c, 0, 64, 127
2, 167359, Note_on_c, 0, 55, 57
2, 167413, Control_c, 0, 64, 0
2, 167416, Note_on_c, 0, 59, 0
2, 167457, Note_on_c, 0, 55, 0
2, 167458, Note_on_c, 0, 52, 0
2, 167539, Control_c, 0, 64, 127
2, 167811, Note_on_c, 0, 52, 66
2, 167856, Control_c, 0, 64, 0
2, 167863, Note_on_c, 0, 52, 0
2, 167964, Note_on_c, 0, 62, 32
2, 167976, Note_on_c, 0, 43, 0
2, 168052, Note_on_c, 0, 62, 0
2, 168068, Note_on_c, 0, 63, 44
2, 168178, Note_on_c, 0, 63, 0
2, 168188, Note_on_c, 0, 64, 54
2, 168306, Note_on_c, 0, 64, 0
2, 168329, Note_on_c, 0, 71, 89
2, 168491, Note_on_c, 0, 69, 60
2, 168516, Note_on_c, 0, 71, 0
2, 168747, Note_on_c, 0, 69, 0
2, 168811, Note_on_c, 0, 64, 38
2, 168843, Note_on_c, 0, 55, 40
2, 168844, Note_on_c, 0, 45, 36
2, 168854, Note_on_c, 0, 52, 31
2, 168930, Note_on_c, 0, 64, 0
2, 169093, Note_on_c, 0, 71, 88
2, 169332, Note_on_c, 0, 71, 0
2, 169444, Control_c, 0, 64, 127
2, 169454, Note_on_c, 0, 64, 72
2, 169568, Note_on_c, 0, 45, 0
2, 169694, Note_on_c, 0, 55, 0
2, 169763, Note_on_c, 0, 64, 0
2, 169799, Note_on_c, 0, 60, 29
2, 169857, Note_on_c, 0, 60, 0
2, 169868, Control_c, 0, 64, 0
2, 169924, Note_on_c, 0, 52, 0
2, 169933, Note_on_c, 0, 47, 44
2, 169937, Note_on_c, 0, 57, 59
2, 169942, Note_on_c, 0, 69, 65
2, 169946, Note_on_c, 0, 62, 57
2, 170158, Note_on_c, 0, 69, 0
2, 170245, Note_on_c, 0, 66, 53
2, 170265, Note_on_c, 0, 62, 0
2, 170335, Note_on_c, 0, 57, 0
2, 170406, Note_on_c, 0, 66, 0
2, 170416, Control_c, 0, 64, 127
2, 170426, Note_on_c, 0, 62, 32
2, 170641, Note_on_c, 0, 62, 0
2, 170665, Note_on_c, 0, 47, 0
2, 170676, Control_c, 0, 64, 0
2, 170709, Note_on_c, 0, 60, 45
2, 170724, Note_on_c, 0, 64, 55
2, 170726, Note_on_c, 0, 55, 39
2, 170729, Note_on_c, 0, 67, 56
2, 170754, Note_on_c, 0, 48, 34
2, 170858, Control_c, 0, 64, 127
2, 170919, Note_on_c, 0, 55, 0
2, 170957, Note_on_c, 0, 48, 0
2, 171029, Note_on_c, 0, 60, 0
2, 171048, Note_on_c, 0, 64, 0
2, 171080, Note_on_c, 0, 67, 0
2, 171241, Note_on_c, 0, 41, 46
2, 171339, Control_c, 0, 64, 0
2, 171345, Note_on_c, 0, 48, 25
2, 171405, Note_on_c, 0, 57, 40
2, 171408, Note_on_c, 0, 71, 54
2, 171412, Note_on_c, 0, 63, 38
2, 171413, Note_on_c, 0, 67, 55
2, 171583, Note_on_c, 0, 67, 0
2, 171590, Note_on_c, 0, 41, 0
2, 171594, Note_on_c, 0, 63, 0
2, 171595, Note_on_c, 0, 57, 0
2, 171605, Note_on_c, 0, 48, 0
2, 171620, Note_on_c, 0, 71, 0
2, 171674, Note_on_c, 0, 41, 48
2, 171738, Note_on_c, 0, 71, 53
2, 171742, Note_on_c, 0, 63, 51
2, 171744, Note_on_c, 0, 48, 29
2, 171756, Note_on_c, 0, 67, 53
2, 171775, Note_on_c, 0, 57, 43
2, 171827, Note_on_c, 0, 41, 0
2, 171855, Note_on_c, 0, 63, 0
2, 171864, Note_on_c, 0, 67, 0
2, 171888, Note_on_c, 0, 57, 0
2, 171894, Note_on_c, 0, 71, 0
2, 171930, Note_on_c, 0, 48, 0
2, 171946, Control_c, 0, 64, 127
2, 172032, Note_on_c, 0, 48, 39
2, 172062, Note_on_c, 0, 63, 51
2, 172070, Note_on_c, 0, 71, 45
2, 172076, Note_on_c, 0, 67, 52
2, 172190, Note_on_c, 0, 63, 0
2, 172205, Note_on_c, 0, 67, 0
2, 172226, Note_on_c, 0, 71, 0
2, 172253, Control_c, 0, 64, 0
2, 172321, Note_on_c, 0, 57, 49
2, 172349, Control_c, 0, 64, 127
2, 172361, Note_on_c, 0, 71, 49
2, 172368, Note_on_c, 0, 63, 42
2, 172369, Note_on_c, 0, 57, 0
2, 172387, Note_on_c, 0, 67, 34
2, 172420, Note_on_c, 0, 48, 0
2, 172435, Note_on_c, 0, 67, 0
2, 172436, Note_on_c, 0, 63, 0
2, 172503, Note_on_c, 0, 71, 0
2, 172638, Control_c, 0, 64, 0
2, 172688, Note_on_c, 0, 67, 53
2, 172692, Note_on_c, 0, 40, 38
2, 172693, Note_on_c, 0, 62, 49
2, 172695, Note_on_c, 0, 47, 44
2, 172696, Note_on_c, 0, 52, 36
2, 172776, Note_on_c, 0, 62, 0
2, 172824, Control_c, 0, 64, 127
2, 172830, Note_on_c, 0, 67, 0
2, 173032, Note_on_c, 0, 47, 0
2, 173050, Note_on_c, 0, 52, 0
2, 173143, Note_on_c, 0, 52, 43
2, 173146, Note_on_c, 0, 47, 40
2, 173237, Control_c, 0, 64, 0
2, 173263, Note_on_c, 0, 40, 0
2, 173308, Note_on_c, 0, 52, 0
2, 173312, Note_on_c, 0, 47, 0
2, 173357, Note_on_c, 0, 82, 25
2, 173433, Note_on_c, 0, 82, 0
2, 173469, Note_on_c, 0, 83, 40
2, 173569, Note_on_c, 0, 83, 0
2, 173634, Note_on_c, 0, 88, 85
2, 173747, Note_on_c, 0, 88, 0
2, 173788, Note_on_c, 0, 62, 57
2, 173801, Note_on_c, 0, 57, 48
2, 173810, Note_on_c, 0, 81, 66
2, 173828, Note_on_c, 0, 52, 25
2, 173892, Note_on_c, 0, 81, 0
2, 173909, Note_on_c, 0, 82, 60
2, 174022, Note_on_c, 0, 81, 58
2, 174046, Note_on_c, 0, 82, 0
2, 174106, Note_on_c, 0, 81, 0
2, 174136, Note_on_c, 0, 79, 37
2, 174225, Note_on_c, 0, 79, 0
2, 174261, Note_on_c, 0, 78, 50
2, 174524, Note_on_c, 0, 78, 0
2, 174600, Note_on_c, 0, 81, 77
2, 174743, Note_on_c, 0, 81, 0
2, 174797, Note_on_c, 0, 57, 0
2, 174803, Note_on_c, 0, 62, 0
2, 174815, Note_on_c, 0, 78, 41
2, 175009, Note_on_c, 0, 78, 0
2, 175043, Note_on_c, 0, 76, 62
2, 175088, Note_on_c, 0, 62, 48
2, 175128, Note_on_c, 0, 62, 0
2, 175160, Note_on_c, 0, 76, 0
2, 175194, Note_on_c, 0, 52, 0
2, 175257, Note_on_c, 0, 74, 24
2, 175503, Note_on_c, 0, 74, 0
2, 175526, Note_on_c, 0, 71, 28
2, 175539, Note_on_c, 0, 64, 48
2, 175553, Note_on_c, 0, 54, 36
2, 175601, Note_on_c, 0, 64, 0
2, 175629, Note_on_c, 0, 71, 0
2, 175660, Note_on_c, 0, 54, 0
2, 175685, Note_on_c, 0, 74, 74
2, 175739, Control_c, 0, 64, 127
2, 175787, Control_c, 0, 64, 0
2, 175836, Control_c, 0, 64, 127
2, 175893, Control_c, 0, 64, 0
2, 175908, Note_on_c, 0, 74, 0
2, 175995, Note_on_c, 0, 52, 41
2, 176022, Note_on_c, 0, 57, 29
2, 176074, Note_on_c, 0, 57, 0
2, 176138, Note_on_c, 0, 74, 71
2, 176153, Note_on_c, 0, 62, 41
2, 176184, Note_on_c, 0, 62, 0
2, 176220, Control_c, 0, 64, 127
2, 176250, Note_on_c, 0, 52, 0
2, 176307, Note_on_c, 0, 74, 0
2, 176447, Note_on_c, 0, 71, 62
2, 176540, Note_on_c, 0, 71, 0
2, 176568, Control_c, 0, 64, 0
2, 176623, Note_on_c, 0, 40, 36
2, 176737, Note_on_c, 0, 66, 47
2, 176739, Note_on_c, 0, 71, 51
2, 176748, Note_on_c, 0, 64, 52
2, 176825, Note_on_c, 0, 64, 0
2, 176831, Note_on_c, 0, 66, 0
2, 176865, Note_on_c, 0, 71, 0
2, 176977, Note_on_c, 0, 47, 33
2, 177087, Control_c, 0, 64, 127
2, 177088, Note_on_c, 0, 66, 64
2, 177092, Note_on_c, 0, 71, 57
2, 177100, Note_on_c, 0, 64, 63
2, 177101, Note_on_c, 0, 47, 0
2, 177161, Note_on_c, 0, 66, 0
2, 177167, Note_on_c, 0, 71, 0
2, 177168, Note_on_c, 0, 64, 0
2, 177356, Control_c, 0, 64, 0
2, 177398, Note_on_c, 0, 66, 64
2, 177406, Note_on_c, 0, 40, 0
2, 177427, Note_on_c, 0, 59, 44
2, 177430, Note_on_c, 0, 52, 55
2, 177479, Note_on_c, 0, 59, 0
2, 177512, Note_on_c, 0, 66, 0
2, 177721, Note_on_c, 0, 66, 52
2, 177730, Note_on_c, 0, 64, 60
2, 177736, Note_on_c, 0, 59, 58
2, 177775, Note_on_c, 0, 64, 0
2, 177812, Note_on_c, 0, 66, 0
2, 177836, Note_on_c, 0, 59, 0
2, 178000, Note_on_c, 0, 47, 25
2, 178068, Note_on_c, 0, 59, 46
2, 178071, Note_on_c, 0, 64, 57
2, 178073, Note_on_c, 0, 54, 46
2, 178108, Note_on_c, 0, 47, 0
2, 178246, Note_on_c, 0, 64, 0
2, 178248, Note_on_c, 0, 54, 0
2, 178277, Note_on_c, 0, 59, 0
2, 178419, Note_on_c, 0, 54, 56
2, 178427, Note_on_c, 0, 59, 54
2, 178428, Note_on_c, 0, 64, 55
2, 178436, Note_on_c, 0, 40, 46
2, 178500, Note_on_c, 0, 52, 0
2, 178539, Control_c, 0, 64, 127
2, 178549, Note_on_c, 0, 64, 0
2, 178589, Note_on_c, 0, 59, 0
2, 178618, Note_on_c, 0, 54, 0
2, 178878, Note_on_c, 0, 62, 69
2, 178888, Note_on_c, 0, 57, 57
2, 178888, Note_on_c, 0, 47, 49
2, 178895, Control_c, 0, 64, 0
2, 178898, Note_on_c, 0, 52, 36
2, 178970, Note_on_c, 0, 57, 0
2, 178985, Note_on_c, 0, 62, 0
2, 179095, Note_on_c, 0, 54, 42
2, 179103, Note_on_c, 0, 59, 36
2, 179176, Note_on_c, 0, 47, 0
2, 179256, Note_on_c, 0, 52, 0
2, 179297, Note_on_c, 0, 54, 0
2, 179323, Note_on_c, 0, 59, 0
2, 179368, Note_on_c, 0, 47, 42
2, 179374, Note_on_c, 0, 40, 0
2, 179408, Note_on_c, 0, 47, 0
2, 179534, Note_on_c, 0, 37, 57
2, 179539, Note_on_c, 0, 59, 67
2, 179545, Note_on_c, 0, 67, 62
2, 179549, Note_on_c, 0, 63, 51
2, 179551, Note_on_c, 0, 49, 54
2, 179839, Control_c, 0, 64, 127
2, 179899, Note_on_c, 0, 49, 0
2, 179938, Note_on_c, 0, 37, 0
2, 180065, Note_on_c, 0, 59, 0
2, 180168, Note_on_c, 0, 63, 0
2, 180258, Note_on_c, 0, 67, 0
2, 180483, Control_c, 0, 64, 0
2, 180547, Note_on_c, 0, 43, 26
2, 180552, Note_on_c, 0, 36, 29
2, 180560, Note_on_c, 0, 57, 45
2, 180561, Note_on_c, 0, 62, 55
2, 180565, Note_on_c, 0, 52, 35
2, 180686, Control_c, 0, 64, 127
2, 180775, Note_on_c, 0, 57, 0
2, 180848, Note_on_c, 0, 36, 0
2, 180893, Note_on_c, 0, 43, 0
2, 180903, Note_on_c, 0, 62, 0
2, 180956, Note_on_c, 0, 52, 0
2, 181234, Control_c, 0, 64, 0
2, 181270, Note_on_c, 0, 71, 58
2, 181276, Note_on_c, 0, 64, 59
2, 181284, Note_on_c, 0, 55, 36
2, 181286, Note_on_c, 0, 62, 55
2, 181290, Note_on_c, 0, 67, 47
2, 181359, Control_c, 0, 64, 127
2, 181391, Note_on_c, 0, 64, 0
2, 181398, Note_on_c, 0, 62, 0
2, 181420, Note_on_c, 0, 67, 0
2, 181441, Note_on_c, 0, 71, 0
2, 181552, Control_c, 0, 64, 0
2, 181554, Note_on_c, 0, 55, 0
2, 181569, Note_on_c, 0, 74, 80
2, 181572, Note_on_c, 0, 67, 80
2, 181574, Note_on_c, 0, 59, 60
2, 181576, Note_on_c, 0, 64, 80
2, 181638, Control_c, 0, 64, 127
2, 181797, Note_on_c, 0, 74, 0
2, 181804, Note_on_c, 0, 64, 0
2, 181821, Control_c, 0, 64, 0
2, 181822, Note_on_c, 0, 67, 0
2, 181881, Note_on_c, 0, 57, 62
2, 181887, Note_on_c, 0, 59, 0
2, 181888, Note_on_c, 0, 67, 60
2, 181892, Note_on_c, 0, 64, 35
2, 181896, Note_on_c, 0, 74, 36
2, 181899, Note_on_c, 0, 72, 33
2, 181941, Note_on_c, 0, 74, 0
2, 181943, Note_on_c, 0, 67, 0
2, 181961, Note_on_c, 0, 57, 0
2, 181972, Note_on_c, 0, 64, 0
2, 181976, Note_on_c, 0, 72, 0
2, 182272, Note_on_c, 0, 71, 57
2, 182285, Note_on_c, 0, 64, 59
2, 182290, Note_on_c, 0, 62, 60
2, 182300, Note_on_c, 0, 55, 50
2, 182370, Note_on_c, 0, 71, 0
2, 182379, Control_c, 0, 64, 127
2, 182380, Note_on_c, 0, 64, 0
2, 182401, Note_on_c, 0, 62, 0
2, 182494, Note_on_c, 0, 55, 0
2, 182725, Note_on_c, 0, 52, 59
2, 182727, Note_on_c, 0, 67, 61
2, 182733, Note_on_c, 0, 62, 57
2, 182736, Control_c, 0, 64, 0
2, 182738, Note_on_c, 0, 59, 45
2, 182825, Note_on_c, 0, 62, 0
2, 182826, Note_on_c, 0, 59, 0
2, 182848, Note_on_c, 0, 52, 0
2, 182856, Note_on_c, 0, 67, 0
2, 182893, Note_on_c, 0, 48, 33
2, 182952, Note_on_c, 0, 64, 22
2, 183093, Note_on_c, 0, 48, 0
2, 183124, Note_on_c, 0, 64, 0
2, 183198, Note_on_c, 0, 46, 31
2, 183244, Note_on_c, 0, 45, 31
2, 183293, Note_on_c, 0, 45, 0
2, 183321, Note_on_c, 0, 46, 0
2, 183338, Note_on_c, 0, 69, 60
2, 183346, Note_on_c, 0, 57, 59
2, 183350, Note_on_c, 0, 66, 56
2, 183351, Note_on_c, 0, 62, 67
2, 183355, Note_on_c, 0, 47, 53
2, 183610, Note_on_c, 0, 47, 0
2, 183780, Note_on_c, 0, 57, 0
2, 183806, Note_on_c, 0, 46, 63
2, 183808, Note_on_c, 0, 34, 67
2, 183809, Note_on_c, 0, 62, 0
2, 183844, Note_on_c, 0, 66, 0
2, 183845, Note_on_c, 0, 69, 0
2, 183899, Control_c, 0, 64, 127
2, 184009, Note_on_c, 0, 46, 0
2, 184071, Note_on_c, 0, 34, 0
2, 184274, Control_c, 0, 64, 0
2, 184314, Note_on_c, 0, 45, 96
2, 184321, Note_on_c, 0, 33, 85
2, 184341, Note_on_c, 0, 35, 46
2, 184379, Note_on_c, 0, 35, 0
2, 184650, Note_on_c, 0, 83, 92
2, 184652, Note_on_c, 0, 71, 95
2, 184654, Note_on_c, 0, 76, 90
2, 184657, Note_on_c, 0, 79, 78
2, 184746, Control_c, 0, 64, 127
2, 184809, Note_on_c, 0, 79, 0
2, 184810, Note_on_c, 0, 76, 0
2, 184811, Note_on_c, 0, 71, 0
2, 184829, Note_on_c, 0, 83, 0
2, 185009, Note_on_c, 0, 83, 88
2, 185012, Note_on_c, 0, 76, 90
2, 185016, Note_on_c, 0, 71, 91
2, 185019, Note_on_c, 0, 79, 74
2, 185168, Note_on_c, 0, 79, 0
2, 185184, Note_on_c, 0, 83, 0
2, 185208, Note_on_c, 0, 71, 0
2, 185210, Note_on_c, 0, 76, 0
2, 185239, Note_on_c, 0, 33, 0
2, 185255, Note_on_c, 0, 45, 0
2, 185294, Control_c, 0, 64, 0
2, 185337, Note_on_c, 0, 35, 77
2, 185340, Note_on_c, 0, 47, 85
2, 185344, Note_on_c, 0, 81, 80
2, 185347, Note_on_c, 0, 74, 84
2, 185350, Note_on_c, 0, 78, 67
2, 185351, Note_on_c, 0, 69, 81
2, 185488, Control_c, 0, 64, 127
2, 185585, Note_on_c, 0, 69, 0
2, 185595, Note_on_c, 0, 74, 0
2, 185620, Note_on_c, 0, 81, 0
2, 185621, Note_on_c, 0, 78, 0
2, 185636, Note_on_c, 0, 47, 0
2, 185690, Note_on_c, 0, 81, 61
2, 185693, Note_on_c, 0, 47, 68
2, 185696, Note_on_c, 0, 78, 59
2, 185704, Note_on_c, 0, 74, 74
2, 185705, Note_on_c, 0, 69, 76
2, 185848, Note_on_c, 0, 74, 0
2, 185853, Note_on_c, 0, 69, 0
2, 185873, Note_on_c, 0, 81, 0
2, 185883, Note_on_c, 0, 78, 0
2, 185886, Note_on_c, 0, 47, 0
2, 185914, Note_on_c, 0, 35, 0
2, 186069, Note_on_c, 0, 47, 72
2, 186070, Note_on_c, 0, 35, 65
2, 186089, Note_on_c, 0, 78, 68
2, 186095, Note_on_c, 0, 81, 74
2, 186097, Note_on_c, 0, 74, 75
2, 186101, Note_on_c, 0, 69, 71
2, 186219, Note_on_c, 0, 74, 0
2, 186224, Note_on_c, 0, 81, 0
2, 186234, Note_on_c, 0, 69, 0
2, 186250, Note_on_c, 0, 35, 0
2, 186251, Note_on_c, 0, 78, 0
2, 186264, Note_on_c, 0, 47, 0
2, 186314, Control_c, 0, 64, 0
2, 186590, Note_on_c, 0, 79, 79
2, 186591, Note_on_c, 0, 72, 83
2, 186594, Note_on_c, 0, 76, 74
2, 186596, Note_on_c, 0, 67, 85
2, 186597, Note_on_c, 0, 35, 72
2, 186598, Note_on_c, 0, 47, 79
2, 186697, Note_on_c, 0, 67, 0
2, 186711, Note_on_c, 0, 72, 0
2, 186715, Note_on_c, 0, 47, 0
2, 186729, Note_on_c, 0, 76, 0
2, 186735, Note_on_c, 0, 79, 0
2, 186749, Note_on_c, 0, 35, 0
2, 186936, Note_on_c, 0, 79, 74
2, 186936, Note_on_c, 0, 35, 62
2, 186937, Note_on_c, 0, 47, 74
2, 186938, Note_on_c, 0, 76, 74
2, 186940, Note_on_c, 0, 72, 78
2, 186941, Note_on_c, 0, 67, 81
2, 186961, Control_c, 0, 64, 127
2, 187075, Note_on_c, 0, 67, 0
2, 187079, Note_on_c, 0, 47, 0
2, 187081, Note_on_c, 0, 35, 0
2, 187097, Note_on_c, 0, 72, 0
2, 187099, Note_on_c, 0, 79, 0
2, 187128, Note_on_c, 0, 76, 0
2, 187134, Control_c, 0, 64, 0
2, 187248, Note_on_c, 0, 79, 78
2, 187252, Note_on_c, 0, 46, 84
2, 187253, Note_on_c, 0, 34, 79
2, 187254, Note_on_c, 0, 72, 79
2, 187255, Note_on_c, 0, 67, 80
2, 187257, Note_on_c, 0, 76, 72
2, 187346, Control_c, 0, 64, 127
2, 187483, Note_on_c, 0, 79, 0
2, 187485, Note_on_c, 0, 67, 0
2, 187512, Note_on_c, 0, 72, 0
2, 187523, Note_on_c, 0, 34, 0
2, 187526, Note_on_c, 0, 46, 0
2, 187538, Control_c, 0, 64, 0
2, 187542, Note_on_c, 0, 76, 0
2, 187577, Note_on_c, 0, 34, 57
2, 187582, Note_on_c, 0, 46, 64
2, 187585, Note_on_c, 0, 79, 60
2, 187590, Note_on_c, 0, 72, 72
2, 187595, Note_on_c, 0, 67, 59
2, 187596, Note_on_c, 0, 76, 53
2, 187693, Note_on_c, 0, 76, 0
2, 187715, Note_on_c, 0, 72, 0
2, 187724, Note_on_c, 0, 67, 0
2, 187732, Note_on_c, 0, 79, 0
2, 187760, Control_c, 0, 64, 127
2, 187778, Note_on_c, 0, 46, 0
2, 187790, Note_on_c, 0, 34, 0
2, 187905, Control_c, 0, 64, 0
2, 188040, Note_on_c, 0, 33, 80
2, 188040, Note_on_c, 0, 45, 85
2, 188041, Note_on_c, 0, 76, 85
2, 188053, Note_on_c, 0, 67, 82
2, 188054, Note_on_c, 0, 71, 79
2, 188056, Note_on_c, 0, 74, 71
2, 188107, Control_c, 0, 64, 127
2, 188186, Note_on_c, 0, 74, 0
2, 188201, Note_on_c, 0, 33, 0
2, 188206, Note_on_c, 0, 71, 0
2, 188208, Note_on_c, 0, 76, 0
2, 188228, Note_on_c, 0, 67, 0
2, 188246, Note_on_c, 0, 45, 0
2, 188551, Note_on_c, 0, 55, 41
2, 188556, Note_on_c, 0, 64, 50
2, 188565, Note_on_c, 0, 59, 48
2, 188585, Note_on_c, 0, 62, 44
2, 188616, Control_c, 0, 64, 0
2, 188640, Note_on_c, 0, 55, 0
2, 188656, Note_on_c, 0, 59, 0
2, 188688, Note_on_c, 0, 62, 0
2, 188760, Note_on_c, 0, 59, 31
2, 188783, Note_on_c, 0, 55, 9
2, 188908, Note_on_c, 0, 55, 0
2, 188911, Note_on_c, 0, 59, 0
2, 188939, Note_on_c, 0, 64, 0
2, 189034, Note_on_c, 0, 55, 33
2, 189046, Note_on_c, 0, 64, 47
2, 189049, Note_on_c, 0, 59, 36
2, 189063, Note_on_c, 0, 62, 38
2, 189127, Note_on_c, 0, 55, 0
2, 189141, Note_on_c, 0, 59, 0
2, 189144, Note_on_c, 0, 62, 0
2, 189150, Note_on_c, 0, 64, 0
2, 189208, Note_on_c, 0, 52, 36
2, 189213, Note_on_c, 0, 55, 29
2, 189232, Note_on_c, 0, 59, 32
2, 189233, Note_on_c, 0, 64, 20
2, 189351, Note_on_c, 0, 55, 0
2, 189360, Note_on_c, 0, 59, 0
2, 189385, Note_on_c, 0, 64, 0
2, 189680, Note_on_c, 0, 59, 37
2, 189681, Note_on_c, 0, 64, 46
2, 189695, Note_on_c, 0, 62, 40
2, 189747, Note_on_c, 0, 59, 0
2, 189768, Note_on_c, 0, 52, 0
2, 189774, Note_on_c, 0, 62, 0
2, 189936, Note_on_c, 0, 64, 0
2, 190020, Note_on_c, 0, 57, 46
2, 190145, Note_on_c, 0, 57, 0
2, 190155, Note_on_c, 0, 64, 53
2, 190160, Note_on_c, 0, 59, 54
2, 190170, Note_on_c, 0, 62, 45
2, 190373, Note_on_c, 0, 62, 0
2, 190392, Note_on_c, 0, 64, 0
2, 190471, Note_on_c, 0, 59, 0
2, 190489, Note_on_c, 0, 57, 42
2, 190613, Note_on_c, 0, 64, 48
2, 190620, Note_on_c, 0, 57, 0
2, 190630, Note_on_c, 0, 62, 54
2, 190634, Note_on_c, 0, 59, 46
2, 190905, Note_on_c, 0, 62, 0
2, 190919, Note_on_c, 0, 64, 0
2, 191073, Note_on_c, 0, 57, 50
2, 191080, Note_on_c, 0, 59, 0
2, 191088, Note_on_c, 0, 64, 47
2, 191098, Note_on_c, 0, 62, 53
2, 191109, Control_c, 0, 64, 127
2, 191167, Control_c, 0, 64, 0
2, 191177, Note_on_c, 0, 62, 0
2, 191196, Note_on_c, 0, 64, 0
2, 191500, Note_on_c, 0, 57, 0
2, 191538, Note_on_c, 0, 64, 68
2, 191551, Control_c, 0, 64, 127
2, 191560, Note_on_c, 0, 62, 52
2, 191628, Control_c, 0, 64, 0
2, 191652, Note_on_c, 0, 62, 0
2, 191703, Note_on_c, 0, 64, 0
2, 191837, Note_on_c, 0, 38, 32
2, 191972, Note_on_c, 0, 38, 0
2, 191997, Note_on_c, 0, 43, 35
2, 192018, Note_on_c, 0, 53, 32
2, 192019, Note_on_c, 0, 64, 36
2, 192024, Note_on_c, 0, 57, 35
2, 192028, Note_on_c, 0, 60, 28
2, 192113, Note_on_c, 0, 53, 0
2, 192139, Note_on_c, 0, 57, 0
2, 192144, Note_on_c, 0, 64, 0
2, 192147, Note_on_c, 0, 60, 0
2, 192308, Note_on_c, 0, 64, 53
2, 192321, Note_on_c, 0, 53, 39
2, 192325, Note_on_c, 0, 57, 49
2, 192340, Note_on_c, 0, 60, 25
2, 192393, Note_on_c, 0, 53, 0
2, 192408, Note_on_c, 0, 57, 0
2, 192410, Note_on_c, 0, 60, 0
2, 192422, Note_on_c, 0, 64, 0
2, 192514, Note_on_c, 0, 57, 31
2, 192525, Note_on_c, 0, 64, 17
2, 192584, Note_on_c, 0, 57, 0
2, 192628, Note_on_c, 0, 64, 0
2, 192765, Note_on_c, 0, 43, 0
2, 192783, Note_on_c, 0, 45, 63
2, 192831, Note_on_c, 0, 64, 57
2, 192836, Note_on_c, 0, 53, 52
2, 192840, Note_on_c, 0, 57, 49
2, 192844, Note_on_c, 0, 60, 30
2, 192888, Note_on_c, 0, 57, 0
2, 192904, Note_on_c, 0, 53, 0
2, 192909, Note_on_c, 0, 60, 0
2, 192912, Note_on_c, 0, 64, 0
2, 192935, Note_on_c, 0, 45, 0
2, 192984, Note_on_c, 0, 47, 46
2, 193013, Note_on_c, 0, 53, 32
2, 193020, Note_on_c, 0, 64, 27
2, 193025, Note_on_c, 0, 57, 46
2, 193076, Note_on_c, 0, 57, 0
2, 193098, Note_on_c, 0, 53, 0
2, 193108, Note_on_c, 0, 64, 0
2, 193279, Note_on_c, 0, 64, 50
2, 193290, Note_on_c, 0, 53, 36
2, 193295, Note_on_c, 0, 60, 29
2, 193301, Note_on_c, 0, 57, 36
2, 193351, Note_on_c, 0, 57, 0
2, 193368, Note_on_c, 0, 53, 0
2, 193375, Note_on_c, 0, 64, 0
2, 193376, Note_on_c, 0, 60, 0
2, 193483, Note_on_c, 0, 57, 33
2, 193531, Note_on_c, 0, 57, 0
2, 193758, Note_on_c, 0, 45, 57
2, 193769, Note_on_c, 0, 64, 50
2, 193773, Note_on_c, 0, 47, 0
2, 193781, Note_on_c, 0, 60, 27
2, 193782, Note_on_c, 0, 53, 40
2, 193783, Note_on_c, 0, 57, 43
2, 193848, Note_on_c, 0, 57, 0
2, 193852, Note_on_c, 0, 53, 0
2, 193854, Note_on_c, 0, 64, 0
2, 193873, Note_on_c, 0, 60, 0
2, 193902, Note_on_c, 0, 45, 0
2, 193959, Note_on_c, 0, 43, 37
2, 193965, Note_on_c, 0, 64, 22
2, 193968, Note_on_c, 0, 57, 36
2, 193974, Note_on_c, 0, 60, 20
2, 194053, Note_on_c, 0, 57, 0
2, 194084, Note_on_c, 0, 64, 0
2, 194085, Note_on_c, 0, 60, 0
2, 194217, Note_on_c, 0, 64, 33
2, 194231, Note_on_c, 0, 57, 46
2, 194239, Note_on_c, 0, 53, 34
2, 194253, Note_on_c, 0, 60, 17
2, 194293, Note_on_c, 0, 57, 0
2, 194294, Note_on_c, 0, 64, 0
2, 194300, Note_on_c, 0, 53, 0
2, 194310, Note_on_c, 0, 60, 0
2, 194375, Note_on_c, 0, 64, 20
2, 194394, Note_on_c, 0, 57, 35
2, 194471, Note_on_c, 0, 57, 0
2, 194505, Note_on_c, 0, 64, 0
2, 194666, Note_on_c, 0, 43, 0
2, 194678, Note_on_c, 0, 45, 64
2, 194688, Note_on_c, 0, 64, 54
2, 194699, Note_on_c, 0, 60, 32
2, 194703, Note_on_c, 0, 53, 41
2, 194708, Note_on_c, 0, 57, 43
2, 194743, Note_on_c, 0, 64, 0
2, 194755, Note_on_c, 0, 57, 0
2, 194760, Note_on_c, 0, 53, 0
2, 194775, Note_on_c, 0, 60, 0
2, 194823, Note_on_c, 0, 45, 0
2, 194833, Note_on_c, 0, 47, 56
2, 194855, Note_on_c, 0, 53, 32
2, 194859, Note_on_c, 0, 57, 47
2, 194867, Note_on_c, 0, 64, 24
2, 194874, Note_on_c, 0, 60, 24
2, 194920, Note_on_c, 0, 53, 0
2, 194938, Note_on_c, 0, 64, 0
2, 194942, Note_on_c, 0, 57, 0
2, 194947, Note_on_c, 0, 60, 0
2, 195018, Note_on_c, 0, 47, 0
2, 195142, Note_on_c, 0, 45, 77
2, 195151, Note_on_c, 0, 60, 46
2, 195152, Note_on_c, 0, 57, 70
2, 195159, Note_on_c, 0, 53, 57
2, 195179, Note_on_c, 0, 64, 30
2, 195240, Note_on_c, 0, 64, 0
2, 195243, Note_on_c, 0, 57, 0
2, 195246, Note_on_c, 0, 53, 0
2, 195262, Note_on_c, 0, 60, 0
2, 195263, Note_on_c, 0, 45, 0
2, 195285, Note_on_c, 0, 43, 35
2, 195499, Note_on_c, 0, 43, 0
2, 195597, Note_on_c, 0, 43, 36
2, 195607, Note_on_c, 0, 60, 31
2, 195655, Note_on_c, 0, 60, 0
2, 195681, Note_on_c, 0, 43, 0
2, 195752, Note_on_c, 0, 56, 72
2, 195754, Note_on_c, 0, 63, 69
2, 195757, Note_on_c, 0, 60, 34
2, 195767, Note_on_c, 0, 46, 64
2, 196061, Note_on_c, 0, 34, 64
2, 196248, Control_c, 0, 64, 127
2, 196340, Note_on_c, 0, 60, 0
2, 196347, Note_on_c, 0, 46, 0
2, 196515, Note_on_c, 0, 56, 0
2, 196557, Note_on_c, 0, 46, 74
2, 196674, Note_on_c, 0, 34, 0
2, 196699, Note_on_c, 0, 63, 0
2, 196758, Note_on_c, 0, 46, 0
2, 196990, Note_on_c, 0, 56, 57
2, 197079, Note_on_c, 0, 56, 0
2, 197174, Note_on_c, 0, 60, 52
2, 197262, Note_on_c, 0, 60, 0
2, 197337, Note_on_c, 0, 62, 84
2, 197346, Note_on_c, 0, 60, 47
2, 197379, Note_on_c, 0, 60, 0
2, 197532, Note_on_c, 0, 62, 0
2, 197594, Control_c, 0, 64, 0
2, 197609, Note_on_c, 0, 56, 81
2, 197610, Note_on_c, 0, 46, 70
2, 197614, Note_on_c, 0, 63, 83
2, 197647, Note_on_c, 0, 61, 43
2, 197679, Note_on_c, 0, 61, 0
2, 197738, Control_c, 0, 64, 127
2, 197870, Note_on_c, 0, 46, 0
2, 197887, Note_on_c, 0, 63, 0
2, 197913, Note_on_c, 0, 56, 0
2, 197953, Note_on_c, 0, 65, 68
2, 198040, Note_on_c, 0, 65, 0
2, 198093, Note_on_c, 0, 67, 75
2, 198191, Note_on_c, 0, 67, 0
2, 198239, Note_on_c, 0, 56, 77
2, 198240, Note_on_c, 0, 60, 55
2, 198241, Note_on_c, 0, 68, 83
2, 198244, Note_on_c, 0, 67, 78
2, 198248, Note_on_c, 0, 63, 63
2, 198268, Control_c, 0, 64, 0
2, 198403, Control_c, 0, 64, 127
2, 198528, Note_on_c, 0, 68, 0
2, 198564, Note_on_c, 0, 70, 72
2, 198678, Note_on_c, 0, 67, 0
2, 198717, Note_on_c, 0, 70, 0
2, 198740, Note_on_c, 0, 56, 0
2, 198767, Note_on_c, 0, 60, 0
2, 198907, Note_on_c, 0, 63, 0
2, 198948, Note_on_c, 0, 72, 68
2, 198968, Note_on_c, 0, 63, 55
2, 198980, Note_on_c, 0, 67, 60
2, 198990, Note_on_c, 0, 60, 36
2, 198998, Note_on_c, 0, 56, 44
2, 199047, Note_on_c, 0, 72, 0
2, 199074, Note_on_c, 0, 67, 0
2, 199098, Note_on_c, 0, 74, 72
2, 199226, Note_on_c, 0, 74, 0
2, 199234, Note_on_c, 0, 75, 73
2, 199268, Note_on_c, 0, 60, 0
2, 199328, Note_on_c, 0, 63, 0
2, 199355, Note_on_c, 0, 56, 0
2, 199478, Note_on_c, 0, 75, 0
2, 199509, Note_on_c, 0, 66, 77
2, 199512, Note_on_c, 0, 62, 71
2, 199512, Note_on_c, 0, 76, 76
2, 199517, Note_on_c, 0, 55, 58
2, 199528, Control_c, 0, 64, 0
2, 199530, Note_on_c, 0, 59, 55
2, 199750, Control_c, 0, 64, 127
2, 199810, Note_on_c, 0, 76, 0
2, 199841, Note_on_c, 0, 78, 62
2, 199941, Note_on_c, 0, 78, 0
2, 199982, Note_on_c, 0, 79, 58
2, 200104, Note_on_c, 0, 79, 0
2, 200115, Note_on_c, 0, 59, 0
2, 200125, Note_on_c, 0, 62, 0
2, 200130, Note_on_c, 0, 66, 0
2, 200136, Note_on_c, 0, 55, 0
2, 200138, Note_on_c, 0, 81, 68
2, 200388, Note_on_c, 0, 81, 0
2, 200449, Note_on_c, 0, 66, 70
2, 200453, Note_on_c, 0, 62, 62
2, 200454, Note_on_c, 0, 55, 55
2, 200455, Note_on_c, 0, 83, 80
2, 200463, Control_c, 0, 64, 0
2, 200479, Note_on_c, 0, 59, 53
2, 200554, Note_on_c, 0, 66, 0
2, 200581, Note_on_c, 0, 62, 0
2, 200587, Control_c, 0, 64, 127
2, 200615, Note_on_c, 0, 59, 0
2, 200631, Note_on_c, 0, 55, 0
2, 200733, Note_on_c, 0, 83, 0
2, 200799, Note_on_c, 0, 85, 46
2, 200893, Note_on_c, 0, 85, 0
2, 200941, Note_on_c, 0, 86, 68
2, 201029, Control_c, 0, 64, 0
2, 201066, Note_on_c, 0, 86, 0
2, 201081, Note_on_c, 0, 45, 67
2, 201096, Control_c, 0, 64, 127
2, 201108, Note_on_c, 0, 88, 74
2, 201161, Note_on_c, 0, 45, 0
2, 201388, Note_on_c, 0, 88, 0
2, 201441, Note_on_c, 0, 55, 61
2, 201446, Note_on_c, 0, 62, 68
2, 201448, Note_on_c, 0, 90, 70
2, 201462, Control_c, 0, 64, 0
2, 201464, Note_on_c, 0, 66, 72
2, 201470, Note_on_c, 0, 59, 48
2, 201559, Control_c, 0, 64, 127
2, 201732, Note_on_c, 0, 66, 0
2, 201735, Note_on_c, 0, 55, 0
2, 201745, Note_on_c, 0, 62, 0
2, 201761, Note_on_c, 0, 59, 0
2, 201857, Note_on_c, 0, 90, 0
2, 201881, Note_on_c, 0, 91, 82
2, 201897, Note_on_c, 0, 55, 64
2, 201899, Note_on_c, 0, 66, 73
2, 201909, Note_on_c, 0, 62, 69
2, 201917, Note_on_c, 0, 59, 48
2, 202089, Note_on_c, 0, 66, 0
2, 202171, Note_on_c, 0, 55, 0
2, 202192, Note_on_c, 0, 62, 0
2, 202204, Note_on_c, 0, 59, 0
2, 202235, Note_on_c, 0, 91, 0
2, 202374, Note_on_c, 0, 93, 103
2, 202376, Note_on_c, 0, 66, 81
2, 202379, Note_on_c, 0, 55, 70
2, 202385, Note_on_c, 0, 62, 74
2, 202392, Note_on_c, 0, 59, 59
2, 202528, Note_on_c, 0, 66, 0
2, 202615, Note_on_c, 0, 55, 0
2, 202645, Note_on_c, 0, 62, 0
2, 202668, Note_on_c, 0, 59, 0
2, 202737, Note_on_c, 0, 93, 0
2, 202843, Note_on_c, 0, 94, 69
2, 202849, Note_on_c, 0, 55, 70
2, 202853, Note_on_c, 0, 66, 76
2, 202854, Note_on_c, 0, 59, 60
2, 202855, Note_on_c, 0, 62, 71
2, 202921, Note_on_c, 0, 66, 0
2, 202971, Note_on_c, 0, 62, 0
2, 202980, Note_on_c, 0, 94, 0
2, 203006, Note_on_c, 0, 59, 0
2, 203026, Note_on_c, 0, 55, 0
2, 203048, Note_on_c, 0, 95, 68
2, 203333, Note_on_c, 0, 95, 0
2, 203454, Control_c, 0, 64, 0
2, 203505, Note_on_c, 0, 54, 91
2, 203506, Note_on_c, 0, 42, 78
2, 203511, Note_on_c, 0, 95, 85
2, 203515, Note_on_c, 0, 88, 90
2, 203517, Note_on_c, 0, 83, 92
2, 203518, Note_on_c, 0, 92, 83
2, 203599, Control_c, 0, 64, 127
2, 203798, Note_on_c, 0, 95, 0
2, 203832, Note_on_c, 0, 92, 0
2, 203852, Note_on_c, 0, 88, 0
2, 203871, Note_on_c, 0, 83, 0
2, 203966, Note_on_c, 0, 54, 0
2, 203990, Note_on_c, 0, 42, 0
2, 204309, Note_on_c, 0, 42, 47
2, 204387, Control_c, 0, 64, 0
2, 204441, Note_on_c, 0, 71, 71
2, 204446, Note_on_c, 0, 64, 84
2, 204447, Note_on_c, 0, 54, 83
2, 204449, Note_on_c, 0, 59, 78
2, 204451, Note_on_c, 0, 68, 69
2, 204479, Note_on_c, 0, 70, 48
2, 204513, Control_c, 0, 64, 127
2, 204665, Note_on_c, 0, 59, 0
2, 204674, Note_on_c, 0, 70, 0
2, 204692, Note_on_c, 0, 71, 0
2, 204700, Note_on_c, 0, 42, 0
2, 204708, Note_on_c, 0, 54, 0
2, 204716, Note_on_c, 0, 64, 0
2, 204728, Note_on_c, 0, 68, 0
2, 204768, Note_on_c, 0, 42, 56
2, 204779, Note_on_c, 0, 54, 73
2, 204782, Note_on_c, 0, 64, 66
2, 204784, Note_on_c, 0, 59, 54
2, 204785, Note_on_c, 0, 71, 58
2, 204796, Note_on_c, 0, 68, 51
2, 204911, Note_on_c, 0, 59, 0
2, 204917, Note_on_c, 0, 54, 0
2, 204921, Note_on_c, 0, 71, 0
2, 204928, Note_on_c, 0, 64, 0
2, 204933, Note_on_c, 0, 42, 0
2, 204951, Note_on_c, 0, 68, 0
2, 204989, Note_on_c, 0, 71, 40
2, 204992, Note_on_c, 0, 59, 60
2, 204995, Note_on_c, 0, 64, 65
2, 204997, Note_on_c, 0, 54, 54
2, 204999, Note_on_c, 0, 42, 58
2, 205014, Note_on_c, 0, 68, 35
2, 205051, Note_on_c, 0, 70, 22
2, 205109, Note_on_c, 0, 64, 0
2, 205129, Note_on_c, 0, 59, 0
2, 205130, Note_on_c, 0, 68, 0
2, 205144, Note_on_c, 0, 70, 0
2, 205153, Note_on_c, 0, 54, 0
2, 205158, Note_on_c, 0, 71, 0
2, 205174, Note_on_c, 0, 42, 0
2, 205273, Control_c, 0, 64, 0
2, 205305, Note_on_c, 0, 41, 75
2, 205309, Note_on_c, 0, 53, 79
2, 205315, Note_on_c, 0, 67, 73
2, 205319, Note_on_c, 0, 72, 51
2, 205323, Note_on_c, 0, 71, 73
2, 205327, Note_on_c, 0, 62, 74
2, 205335, Note_on_c, 0, 74, 35
2, 205494, Control_c, 0, 64, 127
2, 205590, Note_on_c, 0, 72, 0
2, 205640, Note_on_c, 0, 74, 0
2, 205641, Note_on_c, 0, 62, 0
2, 205662, Note_on_c, 0, 67, 0
2, 205667, Note_on_c, 0, 41, 0
2, 205680, Note_on_c, 0, 71, 0
2, 205681, Note_on_c, 0, 53, 0
2, 205761, Note_on_c, 0, 74, 66
2, 205769, Note_on_c, 0, 71, 48
2, 205770, Note_on_c, 0, 67, 59
2, 205772, Note_on_c, 0, 41, 61
2, 205773, Note_on_c, 0, 62, 64
2, 205779, Note_on_c, 0, 53, 61
2, 205943, Note_on_c, 0, 53, 0
2, 205947, Note_on_c, 0, 67, 0
2, 205951, Note_on_c, 0, 62, 0
2, 205960, Note_on_c, 0, 74, 0
2, 205992, Note_on_c, 0, 71, 0
2, 206097, Note_on_c, 0, 53, 41
2, 206109, Note_on_c, 0, 74, 58
2, 206116, Note_on_c, 0, 62, 57
2, 206121, Note_on_c, 0, 67, 57
2, 206131, Note_on_c, 0, 71, 44
2, 206271, Note_on_c, 0, 62, 0
2, 206277, Note_on_c, 0, 67, 0
2, 206293, Note_on_c, 0, 53, 0
2, 206330, Note_on_c, 0, 71, 0
2, 206338, Note_on_c, 0, 74, 0
2, 206439, Note_on_c, 0, 53, 45
2, 206450, Note_on_c, 0, 74, 40
2, 206457, Note_on_c, 0, 71, 44
2, 206464, Note_on_c, 0, 67, 49
2, 206472, Note_on_c, 0, 62, 36
2, 206571, Note_on_c, 0, 62, 0
2, 206589, Note_on_c, 0, 67, 0
2, 206592, Note_on_c, 0, 53, 0
2, 206604, Note_on_c, 0, 74, 0
2, 206620, Note_on_c, 0, 41, 0
2, 206655, Note_on_c, 0, 71, 0
2, 206790, Note_on_c, 0, 41, 48
2, 206797, Note_on_c, 0, 67, 41
2, 206798, Note_on_c, 0, 71, 30
2, 206803, Note_on_c, 0, 62, 30
2, 206806, Note_on_c, 0, 53, 34
2, 206855, Note_on_c, 0, 62, 0
2, 206860, Note_on_c, 0, 67, 0
2, 206897, Note_on_c, 0, 71, 0
2, 206902, Note_on_c, 0, 53, 0
2, 206938, Note_on_c, 0, 41, 0
2, 207111, Control_c, 0, 64, 0
2, 207205, Note_on_c, 0, 66, 51
2, 207206, Note_on_c, 0, 74, 58
2, 207208, Note_on_c, 0, 40, 47
2, 207215, Note_on_c, 0, 52, 43
2, 207222, Note_on_c, 0, 64, 52
2, 207296, Control_c, 0, 64, 127
2, 207388, Note_on_c, 0, 40, 0
2, 207438, Note_on_c, 0, 52, 0
2, 207701, Note_on_c, 0, 57, 48
2, 207810, Note_on_c, 0, 57, 0
2, 207816, Control_c, 0, 64, 0
2, 207865, Note_on_c, 0, 59, 34
2, 207979, Control_c, 0, 64, 127
2, 208136, Note_on_c, 0, 66, 0
2, 208143, Note_on_c, 0, 64, 0
2, 208191, Note_on_c, 0, 59, 0
2, 208325, Note_on_c, 0, 66, 45
2, 208328, Note_on_c, 0, 64, 37
2, 208330, Note_on_c, 0, 62, 69
2, 208335, Control_c, 0, 64, 0
2, 208408, Note_on_c, 0, 64, 0
2, 208464, Note_on_c, 0, 66, 0
2, 208793, Note_on_c, 0, 64, 74
2, 208800, Note_on_c, 0, 66, 60
2, 208801, Note_on_c, 0, 62, 0
2, 208890, Note_on_c, 0, 64, 0
2, 208893, Note_on_c, 0, 66, 0
2, 209255, Note_on_c, 0, 66, 42
2, 209266, Note_on_c, 0, 64, 48
2, 209288, Note_on_c, 0, 59, 45
2, 209745, Note_on_c, 0, 62, 53
2, 209761, Note_on_c, 0, 59, 0
2, 209799, Control_c, 0, 64, 127
2, 209824, Note_on_c, 0, 62, 0
2, 209825, Note_on_c, 0, 74, 0
2, 209907, Note_on_c, 0, 64, 0
2, 209923, Note_on_c, 0, 66, 0
2, 210154, Control_c, 0, 64, 0
2, 210336, Control_c, 0, 64, 127
2, 210433, Control_c, 0, 64, 0
2, 210531, Note_on_c, 0, 76, 69
2, 210535, Note_on_c, 0, 49, 46
2, 210537, Note_on_c, 0, 68, 71
2, 210541, Note_on_c, 0, 59, 47
2, 210550, Note_on_c, 0, 71, 67
2, 210551, Note_on_c, 0, 64, 77
2, 210572, Note_on_c, 0, 53, 49
2, 210593, Note_on_c, 0, 74, 26
2, 210636, Control_c, 0, 64, 127
2, 210782, Note_on_c, 0, 76, 0
2, 210783, Note_on_c, 0, 74, 0
2, 210808, Note_on_c, 0, 71, 0
2, 210838, Note_on_c, 0, 68, 0
2, 210853, Note_on_c, 0, 64, 0
2, 210862, Note_on_c, 0, 59, 0
2, 210913, Note_on_c, 0, 49, 0
2, 210959, Note_on_c, 0, 53, 0
2, 211146, Control_c, 0, 64, 0
2, 211196, Note_on_c, 0, 71, 44
2, 211205, Note_on_c, 0, 64, 50
2, 211208, Note_on_c, 0, 62, 38
2, 211209, Note_on_c, 0, 55, 33
2, 211211, Note_on_c, 0, 67, 44
2, 211222, Note_on_c, 0, 48, 32
2, 211454, Note_on_c, 0, 62, 0
2, 211676, Note_on_c, 0, 55, 0
2, 211690, Note_on_c, 0, 62, 60
2, 211731, Note_on_c, 0, 48, 0
2, 211808, Note_on_c, 0, 62, 0
2, 211838, Note_on_c, 0, 67, 0
2, 211850, Note_on_c, 0, 64, 0
2, 211883, Note_on_c, 0, 71, 0
2, 211966, Note_on_c, 0, 36, 49
2, 211977, Note_on_c, 0, 43, 26
2, 212128, Note_on_c, 0, 36, 0
2, 212131, Note_on_c, 0, 50, 47
2, 212144, Note_on_c, 0, 57, 37
2, 212146, Note_on_c, 0, 66, 38
2, 212151, Note_on_c, 0, 62, 45
2, 212268, Note_on_c, 0, 50, 0
2, 212314, Note_on_c, 0, 43, 0
2, 212337, Note_on_c, 0, 57, 0
2, 212361, Note_on_c, 0, 62, 0
2, 212434, Note_on_c, 0, 36, 47
2, 212444, Note_on_c, 0, 66, 0
2, 212521, Note_on_c, 0, 36, 0
2, 212592, Note_on_c, 0, 43, 6
2, 212610, Note_on_c, 0, 52, 35
2, 212614, Note_on_c, 0, 67, 49
2, 212620, Note_on_c, 0, 59, 33
2, 212623, Note_on_c, 0, 62, 44
2, 212749, Note_on_c, 0, 52, 0
2, 212809, Note_on_c, 0, 67, 0
2, 212810, Note_on_c, 0, 62, 0
2, 212813, Note_on_c, 0, 59, 0
2, 212817, Note_on_c, 0, 43, 0
2, 212909, Note_on_c, 0, 36, 54
2, 213066, Note_on_c, 0, 43, 15
2, 213086, Note_on_c, 0, 50, 41
2, 213088, Note_on_c, 0, 57, 43
2, 213092, Note_on_c, 0, 66, 39
2, 213115, Note_on_c, 0, 62, 35
2, 213166, Note_on_c, 0, 36, 0
2, 213226, Note_on_c, 0, 57, 0
2, 213239, Note_on_c, 0, 62, 0
2, 213240, Note_on_c, 0, 43, 0
2, 213241, Note_on_c, 0, 50, 0
2, 213297, Note_on_c, 0, 66, 0
2, 213420, Note_on_c, 0, 43, 26
2, 213547, Note_on_c, 0, 52, 55
2, 213564, Note_on_c, 0, 67, 60
2, 213566, Note_on_c, 0, 59, 59
2, 213573, Note_on_c, 0, 62, 63
2, 213627, Control_c, 0, 64, 127
2, 213641, Note_on_c, 0, 52, 0
2, 213683, Note_on_c, 0, 43, 0
2, 213751, Note_on_c, 0, 59, 0
2, 213803, Note_on_c, 0, 62, 0
2, 213874, Note_on_c, 0, 67, 0
2, 213908, Note_on_c, 0, 43, 33
2, 213984, Control_c, 0, 64, 0
2, 214008, Note_on_c, 0, 43, 0
2, 214035, Note_on_c, 0, 47, 64
2, 214041, Note_on_c, 0, 64, 75
2, 214048, Note_on_c, 0, 59, 71
2, 214048, Note_on_c, 0, 62, 76
2, 214200, Note_on_c, 0, 59, 0
2, 214213, Note_on_c, 0, 62, 0
2, 214233, Note_on_c, 0, 64, 0
2, 214249, Note_on_c, 0, 47, 0
2, 214523, Note_on_c, 0, 67, 66
2, 214529, Note_on_c, 0, 46, 64
2, 214535, Note_on_c, 0, 34, 60
2, 214536, Note_on_c, 0, 62, 72
2, 214540, Note_on_c, 0, 59, 60
2, 214634, Note_on_c, 0, 59, 0
2, 214652, Note_on_c, 0, 62, 0
2, 214680, Note_on_c, 0, 67, 0
2, 214688, Note_on_c, 0, 34, 0
2, 214690, Note_on_c, 0, 46, 0
2, 215019, Note_on_c, 0, 45, 82
2, 215023, Note_on_c, 0, 71, 87
2, 215025, Note_on_c, 0, 33, 71
2, 215027, Note_on_c, 0, 60, 79
2, 215028, Note_on_c, 0, 64, 94
2, 215033, Control_c, 0, 64, 127
2, 215568, Note_on_c, 0, 71, 0
2, 215590, Note_on_c, 0, 60, 0
2, 215595, Note_on_c, 0, 33, 0
2, 215612, Note_on_c, 0, 64, 0
2, 215820, Note_on_c, 0, 35, 46
2, 215839, Note_on_c, 0, 45, 0
2, 215927, Note_on_c, 0, 35, 0
2, 215947, Control_c, 0, 64, 0
2, 215992, Note_on_c, 0, 66, 59
2, 215993, Note_on_c, 0, 69, 62
2, 215994, Note_on_c, 0, 35, 65
2, 215995, Note_on_c, 0, 47, 73
2, 215998, Note_on_c, 0, 62, 68
2, 216010, Note_on_c, 0, 57, 46
2, 216017, Note_on_c, 0, 59, 46
2, 216161, Control_c, 0, 64, 127
2, 216411, Note_on_c, 0, 57, 0
2, 216437, Note_on_c, 0, 35, 0
2, 216459, Note_on_c, 0, 69, 0
2, 216511, Note_on_c, 0, 47, 0
2, 216540, Note_on_c, 0, 59, 0
2, 216561, Note_on_c, 0, 62, 0
2, 216605, Note_on_c, 0, 66, 0
2, 216940, Control_c, 0, 64, 0
2, 216985, Note_on_c, 0, 67, 68
2, 216994, Note_on_c, 0, 64, 71
2, 217000, Note_on_c, 0, 59, 71
2, 217003, Note_on_c, 0, 36, 68
2, 217004, Note_on_c, 0, 48, 70
2, 217005, Note_on_c, 0, 60, 59
2, 217012, Note_on_c, 0, 65, 54
2, 217054, Note_on_c, 0, 65, 0
2, 217161, Control_c, 0, 64, 127
2, 217246, Note_on_c, 0, 36, 0
2, 217329, Note_on_c, 0, 48, 0
2, 217472, Note_on_c, 0, 59, 0
2, 217543, Note_on_c, 0, 64, 0
2, 217589, Note_on_c, 0, 60, 0
2, 217688, Note_on_c, 0, 67, 0
2, 217902, Control_c, 0, 64, 0
2, 217971, Note_on_c, 0, 63, 65
2, 217975, Note_on_c, 0, 59, 65
2, 217980, Note_on_c, 0, 51, 61
2, 217984, Note_on_c, 0, 67, 57
2, 217987, Note_on_c, 0, 41, 55
2, 218105, Control_c, 0, 64, 127
2, 218112, Note_on_c, 0, 51, 0
2, 218144, Note_on_c, 0, 41, 0
2, 218553, Note_on_c, 0, 67, 0
2, 218585, Note_on_c, 0, 59, 0
2, 218748, Note_on_c, 0, 35, 35
2, 218864, Note_on_c, 0, 63, 0
2, 218892, Note_on_c, 0, 35, 0
2, 218923, Control_c, 0, 64, 0
2, 218927, Note_on_c, 0, 28, 60
2, 218933, Note_on_c, 0, 64, 75
2, 218934, Note_on_c, 0, 40, 68
2, 218935, Note_on_c, 0, 57, 74
2, 218936, Note_on_c, 0, 59, 68
2, 218947, Note_on_c, 0, 62, 82
2, 219190, Note_on_c, 0, 57, 0
2, 219196, Note_on_c, 0, 28, 0
2, 219209, Note_on_c, 0, 64, 0
2, 219216, Note_on_c, 0, 59, 0
2, 219216, Note_on_c, 0, 40, 0
2, 219225, Note_on_c, 0, 62, 0
2, 219254, Note_on_c, 0, 28, 64
2, 219264, Note_on_c, 0, 57, 65
2, 219265, Note_on_c, 0, 40, 78
2, 219267, Note_on_c, 0, 64, 73
2, 219274, Note_on_c, 0, 59, 68
2, 219287, Note_on_c, 0, 62, 55
2, 219336, Note_on_c, 0, 57, 0
2, 219364, Note_on_c, 0, 59, 0
2, 219371, Note_on_c, 0, 62, 0
2, 219395, Note_on_c, 0, 64, 0
2, 219405, Note_on_c, 0, 40, 0
2, 219437, Note_on_c, 0, 28, 0
2, 220166, Note_on_c, 0, 35, 40
2, 220311, Note_on_c, 0, 28, 38
2, 220314, Note_on_c, 0, 57, 51
2, 220315, Note_on_c, 0, 64, 48
2, 220321, Note_on_c, 0, 40, 45
2, 220346, Note_on_c, 0, 59, 32
2, 220373, Note_on_c, 0, 62, 31
2, 220386, Note_on_c, 0, 35, 0
2, 220507, Note_on_c, 0, 57, 0
2, 220521, Note_on_c, 0, 40, 0
2, 220552, Note_on_c, 0, 59, 0
2, 220566, Note_on_c, 0, 64, 0
2, 220572, Note_on_c, 0, 62, 0
2, 220636, Note_on_c, 0, 57, 62
2, 220640, Note_on_c, 0, 59, 49
2, 220641, Note_on_c, 0, 64, 54
2, 220644, Note_on_c, 0, 40, 61
2, 220674, Note_on_c, 0, 57, 0
2, 220684, Note_on_c, 0, 62, 24
2, 220707, Note_on_c, 0, 59, 0
2, 220717, Note_on_c, 0, 62, 0
2, 220723, Note_on_c, 0, 28, 0
2, 220740, Note_on_c, 0, 64, 0
2, 220763, Note_on_c, 0, 40, 0
2, 221109, Note_on_c, 0, 35, 73
2, 222233, Note_on_c, 0, 35, 0
2, 222236, Note_on_c, 0, 38, 41
2, 222405, Note_on_c, 0, 38, 0
2, 222720, Note_on_c, 0, 82, 71
2, 222720, Note_on_c, 0, 85, 79
2, 222720, Note_on_c, 0, 73, 83
2, 222720, Control_c, 0, 64, 127
2, 222720, Control_c, 0, 64, 0
2, 222926, Note_on_c, 0, 73, 0
2, 222941, Note_on_c, 0, 85, 0
2, 223100, Note_on_c, 0, 82, 0
2, 223112, Note_on_c, 0, 74, 42
2, 223113, Note_on_c, 0, 86, 45
2, 223129, Note_on_c, 0, 83, 64
2, 223133, Note_on_c, 0, 84, 43
2, 223187, Note_on_c, 0, 84, 0
2, 223197, Note_on_c, 0, 86, 0
2, 223208, Note_on_c, 0, 59, 62
2, 223212, Note_on_c, 0, 74, 0
2, 223215, Note_on_c, 0, 52, 53
2, 223221, Note_on_c, 0, 57, 64
2, 223234, Note_on_c, 0, 83, 0
2, 223292, Note_on_c, 0, 86, 38
2, 223302, Note_on_c, 0, 74, 36
2, 223304, Note_on_c, 0, 83, 47
2, 223334, Note_on_c, 0, 52, 0
2, 223387, Note_on_c, 0, 59, 0
2, 223394, Note_on_c, 0, 57, 0
2, 223443, Note_on_c, 0, 74, 0
2, 223451, Note_on_c, 0, 86, 0
2, 223463, Note_on_c, 0, 83, 0
2, 223717, Note_on_c, 0, 74, 60
2, 223720, Note_on_c, 0, 86, 51
2, 223731, Note_on_c, 0, 83, 47
2, 223788, Note_on_c, 0, 74, 0
2, 223795, Note_on_c, 0, 86, 0
2, 223797, Note_on_c, 0, 83, 0
2, 225094, Note_on_c, 0, 59, 51
2, 225098, Note_on_c, 0, 57, 56
2, 225101, Note_on_c, 0, 52, 44
2, 225214, Note_on_c, 0, 52, 0
2, 225241, Note_on_c, 0, 57, 0
2, 225244, Note_on_c, 0, 59, 0
2, 225581, Note_on_c, 0, 88, 85
2, 225583, Note_on_c, 0, 83, 84
2, 225585, Note_on_c, 0, 76, 84
2, 225586, Note_on_c, 0, 80, 74
2, 225612, Note_on_c, 0, 86, 38
2, 225665, Note_on_c, 0, 86, 0
2, 225874, Note_on_c, 0, 80, 0
2, 225882, Note_on_c, 0, 76, 0
2, 225890, Note_on_c, 0, 88, 0
2, 225893, Note_on_c, 0, 83, 0
2, 226042, Note_on_c, 0, 63, 69
2, 226051, Note_on_c, 0, 53, 60
2, 226052, Note_on_c, 0, 59, 50
2, 226060, Note_on_c, 0, 88, 66
2, 226063, Note_on_c, 0, 83, 73
2, 226065, Note_on_c, 0, 80, 64
2, 226075, Note_on_c, 0, 76, 62
2, 226085, Note_on_c, 0, 86, 53
2, 226183, Note_on_c, 0, 83, 0
2, 226191, Note_on_c, 0, 88, 0
2, 226204, Note_on_c, 0, 86, 0
2, 226221, Note_on_c, 0, 80, 0
2, 226225, Note_on_c, 0, 63, 0
2, 226232, Note_on_c, 0, 76, 0
2, 226242, Note_on_c, 0, 59, 0
2, 226332, Note_on_c, 0, 53, 0
2, 226527, Note_on_c, 0, 83, 53
2, 226538, Note_on_c, 0, 71, 38
2, 226546, Note_on_c, 0, 79, 40
2, 226550, Note_on_c, 0, 76, 33
2, 226745, Note_on_c, 0, 76, 0
2, 226755, Note_on_c, 0, 71, 0
2, 226758, Note_on_c, 0, 83, 0
2, 226775, Note_on_c, 0, 79, 0
2, 226851, Note_on_c, 0, 83, 51
2, 226867, Note_on_c, 0, 71, 37
2, 226868, Note_on_c, 0, 76, 54
2, 226872, Note_on_c, 0, 79, 40
2, 226947, Note_on_c, 0, 71, 0
2, 226955, Note_on_c, 0, 76, 0
2, 226958, Note_on_c, 0, 79, 0
2, 226959, Note_on_c, 0, 83, 0
2, 227038, Note_on_c, 0, 52, 28
2, 227044, Note_on_c, 0, 57, 32
2, 227049, Note_on_c, 0, 59, 24
2, 227179, Note_on_c, 0, 52, 0
2, 227202, Note_on_c, 0, 57, 0
2, 227210, Note_on_c, 0, 59, 0
2, 227984, Note_on_c, 0, 52, 32
2, 227994, Note_on_c, 0, 59, 30
2, 228006, Note_on_c, 0, 57, 41
2, 228125, Note_on_c, 0, 52, 0
2, 228135, Note_on_c, 0, 57, 0
2, 228144, Note_on_c, 0, 59, 0
2, 228949, Note_on_c, 0, 52, 47
2, 228954, Note_on_c, 0, 59, 38
2, 228963, Note_on_c, 0, 57, 48
2, 229081, Note_on_c, 0, 52, 0
2, 229128, Note_on_c, 0, 57, 0
2, 229130, Note_on_c, 0, 59, 0
2, 229451, Note_on_c, 0, 74, 62
2, 229473, Note_on_c, 0, 75, 69
2, 229531, Note_on_c, 0, 74, 0
2, 229587, Note_on_c, 0, 75, 0
2, 229592, Note_on_c, 0, 76, 55
2, 229732, Note_on_c, 0, 76, 0
2, 229774, Note_on_c, 0, 59, 57
2, 229794, Note_on_c, 0, 52, 43
2, 229798, Note_on_c, 0, 57, 49
2, 229831, Note_on_c, 0, 59, 0
2, 229839, Note_on_c, 0, 52, 0
2, 229854, Note_on_c, 0, 57, 0
2, 229894, Note_on_c, 0, 79, 110
2, 230159, Note_on_c, 0, 79, 0
2, 230227, Note_on_c, 0, 76, 53
2, 230324, Note_on_c, 0, 76, 0
2, 230392, Note_on_c, 0, 82, 69
2, 230401, Note_on_c, 0, 80, 53
2, 230413, Note_on_c, 0, 76, 50
2, 230433, Note_on_c, 0, 83, 44
2, 230437, Note_on_c, 0, 71, 29
2, 230477, Note_on_c, 0, 83, 0
2, 230626, Note_on_c, 0, 76, 0
2, 230633, Note_on_c, 0, 71, 0
2, 230652, Note_on_c, 0, 82, 0
2, 230663, Note_on_c, 0, 80, 0
2, 230704, Note_on_c, 0, 66, 61
2, 230708, Note_on_c, 0, 83, 68
2, 230725, Note_on_c, 0, 57, 46
2, 230729, Note_on_c, 0, 62, 57
2, 230735, Note_on_c, 0, 76, 52
2, 230737, Note_on_c, 0, 71, 25
2, 230743, Note_on_c, 0, 66, 0
2, 230757, Note_on_c, 0, 79, 32
2, 230763, Note_on_c, 0, 62, 0
2, 230783, Note_on_c, 0, 57, 0
2, 230806, Note_on_c, 0, 83, 0
2, 230811, Note_on_c, 0, 71, 0
2, 230821, Note_on_c, 0, 79, 0
2, 230831, Note_on_c, 0, 76, 0
2, 230870, Note_on_c, 0, 83, 60
2, 230877, Note_on_c, 0, 71, 44
2, 230889, Note_on_c, 0, 76, 45
2, 230904, Note_on_c, 0, 79, 34
2, 231163, Note_on_c, 0, 79, 0
2, 231167, Note_on_c, 0, 76, 0
2, 231172, Note_on_c, 0, 83, 0
2, 231218, Note_on_c, 0, 71, 0
2, 231359, Note_on_c, 0, 81, 60
2, 231380, Note_on_c, 0, 69, 47
2, 231598, Note_on_c, 0, 81, 0
2, 231605, Note_on_c, 0, 69, 0
2, 231834, Note_on_c, 0, 66, 51
2, 231858, Note_on_c, 0, 62, 41
2, 231879, Note_on_c, 0, 57, 35
2, 232002, Note_on_c, 0, 62, 0
2, 232006, Note_on_c, 0, 66, 0
2, 232026, Note_on_c, 0, 57, 0
2, 232348, Note_on_c, 0, 79, 65
2, 232355, Note_on_c, 0, 71, 64
2, 232364, Note_on_c, 0, 76, 50
2, 232365, Note_on_c, 0, 72, 54
2, 232532, Note_on_c, 0, 72, 0
2, 232568, Note_on_c, 0, 71, 0
2, 232595, Note_on_c, 0, 76, 0
2, 232614, Note_on_c, 0, 79, 0
2, 232793, Note_on_c, 0, 64, 42
2, 232811, Note_on_c, 0, 60, 26
2, 232823, Note_on_c, 0, 59, 32
2, 232844, Note_on_c, 0, 57, 29
2, 232947, Note_on_c, 0, 59, 0
2, 232970, Note_on_c, 0, 60, 0
2, 232976, Note_on_c, 0, 57, 0
2, 233003, Note_on_c, 0, 64, 0
2, 233307, Note_on_c, 0, 71, 88
2, 233308, Note_on_c, 0, 75, 77
2, 233311, Note_on_c, 0, 79, 76
2, 233522, Note_on_c, 0, 71, 0
2, 233544, Note_on_c, 0, 79, 0
2, 233574, Note_on_c, 0, 75, 0
2, 233628, Note_on_c, 0, 67, 67
2, 233629, Note_on_c, 0, 63, 60
2, 233640, Note_on_c, 0, 57, 48
2, 233708, Note_on_c, 0, 67, 0
2, 233727, Note_on_c, 0, 57, 0
2, 233750, Note_on_c, 0, 63, 0
2, 234106, Note_on_c, 0, 76, 88
2, 234108, Note_on_c, 0, 69, 89
2, 234109, Note_on_c, 0, 71, 90
2, 234284, Note_on_c, 0, 69, 0
2, 234293, Note_on_c, 0, 71, 0
2, 234299, Note_on_c, 0, 76, 0
2, 234727, Note_on_c, 0, 64, 54
2, 234730, Note_on_c, 0, 62, 36
2, 234874, Note_on_c, 0, 64, 0
2, 234903, Note_on_c, 0, 62, 0
2, 235695, Note_on_c, 0, 57, 45
2, 235697, Note_on_c, 0, 64, 46
2, 235705, Note_on_c, 0, 62, 54
2, 235885, Note_on_c, 0, 57, 0
2, 235905, Note_on_c, 0, 62, 0
2, 235911, Note_on_c, 0, 64, 0
2, 236030, Note_on_c, 0, 61, 64
2, 236034, Note_on_c, 0, 63, 58
2, 236038, Note_on_c, 0, 56, 61
2, 236185, Note_on_c, 0, 56, 0
2, 236186, Note_on_c, 0, 63, 0
2, 236189, Note_on_c, 0, 61, 0
2, 236254, Note_on_c, 0, 57, 40
2, 236273, Note_on_c, 0, 64, 49
2, 236290, Note_on_c, 0, 62, 48
2, 236449, Note_on_c, 0, 57, 0
2, 236463, Note_on_c, 0, 64, 0
2, 236465, Note_on_c, 0, 62, 0
2, 236658, Note_on_c, 0, 57, 58
2, 236661, Note_on_c, 0, 64, 58
2, 236667, Note_on_c, 0, 62, 62
2, 236793, Note_on_c, 0, 57, 0
2, 236827, Note_on_c, 0, 64, 0
2, 236835, Note_on_c, 0, 62, 0
2, 236956, Note_on_c, 0, 56, 57
2, 236966, Note_on_c, 0, 61, 36
2, 236973, Note_on_c, 0, 63, 36
2, 236991, Note_on_c, 0, 52, 25
2, 237030, Note_on_c, 0, 52, 0
2, 237050, Note_on_c, 0, 56, 0
2, 237150, Note_on_c, 0, 61, 0
2, 237151, Note_on_c, 0, 63, 0
2, 237155, Note_on_c, 0, 64, 58
2, 237172, Note_on_c, 0, 62, 49
2, 237242, Note_on_c, 0, 62, 0
2, 237278, Note_on_c, 0, 64, 0
2, 237418, Note_on_c, 0, 52, 53
2, 237466, Note_on_c, 0, 52, 0
2, 237477, Note_on_c, 0, 65, 75
2, 237576, Note_on_c, 0, 65, 0
2, 237648, Note_on_c, 0, 68, 47
2, 237756, Note_on_c, 0, 68, 0
2, 237832, Note_on_c, 0, 71, 64
2, 237914, Note_on_c, 0, 71, 0
2, 237973, Note_on_c, 0, 74, 89
2, 238116, Note_on_c, 0, 74, 0
2, 238129, Note_on_c, 0, 62, 36
2, 238156, Note_on_c, 0, 71, 64
2, 238273, Note_on_c, 0, 62, 0
2, 238315, Note_on_c, 0, 71, 0
2, 238510, Note_on_c, 0, 52, 29
2, 238515, Note_on_c, 0, 57, 41
2, 238557, Note_on_c, 0, 64, 41
2, 238634, Note_on_c, 0, 52, 0
2, 238653, Note_on_c, 0, 57, 0
2, 238791, Note_on_c, 0, 64, 0
2, 238880, Note_on_c, 0, 66, 39
2, 238969, Note_on_c, 0, 66, 0
2, 239022, Note_on_c, 0, 74, 78
2, 239265, Note_on_c, 0, 74, 0
2, 239353, Note_on_c, 0, 74, 53
2, 239494, Note_on_c, 0, 66, 54
2, 239590, Note_on_c, 0, 74, 0
2, 239683, Note_on_c, 0, 66, 0
2, 240483, Note_on_c, 0, 63, 59
2, 240502, Note_on_c, 0, 53, 47
2, 240511, Note_on_c, 0, 59, 39
2, 240632, Note_on_c, 0, 53, 0
2, 240637, Note_on_c, 0, 63, 0
2, 240667, Note_on_c, 0, 59, 0
2, 240973, Note_on_c, 0, 75, 85
2, 240974, Note_on_c, 0, 87, 77
2, 241122, Note_on_c, 0, 88, 59
2, 241131, Note_on_c, 0, 87, 0
2, 241175, Note_on_c, 0, 76, 38
2, 241176, Note_on_c, 0, 75, 0
2, 241184, Note_on_c, 0, 86, 24
2, 241279, Note_on_c, 0, 76, 0
2, 241283, Note_on_c, 0, 88, 0
2, 241310, Note_on_c, 0, 86, 0
2, 241313, Note_on_c, 0, 59, 64
2, 241320, Note_on_c, 0, 63, 61
2, 241352, Note_on_c, 0, 63, 0
2, 241401, Note_on_c, 0, 59, 0
2, 241918, Note_on_c, 0, 82, 69
2, 241924, Note_on_c, 0, 74, 72
2, 241927, Note_on_c, 0, 86, 66
2, 242118, Note_on_c, 0, 83, 58
2, 242151, Note_on_c, 0, 82, 0
2, 242161, Note_on_c, 0, 86, 0
2, 242199, Note_on_c, 0, 83, 0
2, 242209, Note_on_c, 0, 74, 0
2, 242383, Note_on_c, 0, 52, 41
2, 242384, Note_on_c, 0, 62, 44
2, 242392, Note_on_c, 0, 57, 46
2, 242551, Note_on_c, 0, 52, 0
2, 242577, Note_on_c, 0, 62, 0
2, 242578, Note_on_c, 0, 57, 0
2, 243376, Note_on_c, 0, 62, 39
2, 243380, Note_on_c, 0, 52, 28
2, 243385, Note_on_c, 0, 57, 49
2, 243490, Note_on_c, 0, 52, 0
2, 243515, Note_on_c, 0, 62, 0
2, 243541, Note_on_c, 0, 57, 0
2, 243851, Note_on_c, 0, 74, 71
2, 243853, Note_on_c, 0, 75, 62
2, 243943, Note_on_c, 0, 75, 0
2, 243949, Note_on_c, 0, 76, 60
2, 244007, Note_on_c, 0, 74, 0
2, 244133, Note_on_c, 0, 76, 0
2, 244220, Note_on_c, 0, 79, 81
2, 244269, Note_on_c, 0, 62, 48
2, 244287, Note_on_c, 0, 57, 47
2, 244304, Note_on_c, 0, 62, 0
2, 244313, Note_on_c, 0, 79, 0
2, 244362, Note_on_c, 0, 81, 83
2, 244410, Note_on_c, 0, 57, 0
2, 244675, Note_on_c, 0, 81, 0
2, 244819, Note_on_c, 0, 79, 80
2, 245233, Note_on_c, 0, 79, 0
2, 245267, Note_on_c, 0, 62, 37
2, 245270, Note_on_c, 0, 52, 33
2, 245285, Note_on_c, 0, 76, 66
2, 245293, Note_on_c, 0, 57, 47
2, 245442, Note_on_c, 0, 52, 0
2, 245452, Note_on_c, 0, 57, 0
2, 245467, Note_on_c, 0, 62, 0
2, 245523, Note_on_c, 0, 76, 0
2, 245799, Note_on_c, 0, 82, 75
2, 245802, Note_on_c, 0, 70, 77
2, 246085, Note_on_c, 0, 82, 0
2, 246112, Note_on_c, 0, 70, 0
2, 246125, Note_on_c, 0, 76, 24
2, 246128, Note_on_c, 0, 79, 42
2, 246195, Note_on_c, 0, 76, 0
2, 246233, Note_on_c, 0, 79, 0
2, 246250, Note_on_c, 0, 60, 34
2, 246252, Note_on_c, 0, 64, 42
2, 246271, Note_on_c, 0, 59, 39
2, 246276, Note_on_c, 0, 83, 80
2, 246309, Note_on_c, 0, 64, 0
2, 246369, Note_on_c, 0, 60, 0
2, 246474, Note_on_c, 0, 59, 0
2, 246567, Note_on_c, 0, 83, 0
2, 246612, Note_on_c, 0, 71, 38
2, 246691, Note_on_c, 0, 71, 0
2, 246755, Note_on_c, 0, 81, 71
2, 246782, Note_on_c, 0, 74, 65
2, 247089, Note_on_c, 0, 74, 0
2, 247139, Note_on_c, 0, 81, 0
2, 247206, Note_on_c, 0, 78, 53
2, 247213, Note_on_c, 0, 66, 55
2, 247214, Note_on_c, 0, 74, 51
2, 247225, Note_on_c, 0, 69, 44
2, 247239, Note_on_c, 0, 57, 29
2, 247242, Note_on_c, 0, 62, 38
2, 247284, Note_on_c, 0, 62, 0
2, 247293, Note_on_c, 0, 66, 0
2, 247314, Note_on_c, 0, 57, 0
2, 247368, Note_on_c, 0, 74, 0
2, 247375, Note_on_c, 0, 78, 0
2, 247420, Note_on_c, 0, 69, 0
2, 247728, Note_on_c, 0, 79, 81
2, 247751, Note_on_c, 0, 75, 57
2, 247753, Note_on_c, 0, 73, 51
2, 247787, Note_on_c, 0, 73, 0
2, 247833, Note_on_c, 0, 75, 0
2, 248006, Note_on_c, 0, 79, 0
2, 248026, Note_on_c, 0, 67, 51
2, 248059, Note_on_c, 0, 63, 42
2, 248068, Note_on_c, 0, 57, 44
2, 248124, Note_on_c, 0, 67, 0
2, 248148, Note_on_c, 0, 63, 0
2, 248163, Note_on_c, 0, 57, 0
2, 248234, Note_on_c, 0, 72, 35
2, 248506, Note_on_c, 0, 72, 0
2, 248529, Note_on_c, 0, 79, 73
2, 248671, Note_on_c, 0, 79, 0
2, 248686, Note_on_c, 0, 56, 52
2, 248692, Note_on_c, 0, 62, 47
2, 248713, Note_on_c, 0, 76, 54
2, 248725, Note_on_c, 0, 72, 45
2, 248729, Note_on_c, 0, 67, 52
2, 248904, Note_on_c, 0, 72, 0
2, 248922, Note_on_c, 0, 62, 0
2, 248923, Note_on_c, 0, 67, 0
2, 248926, Note_on_c, 0, 56, 0
2, 248927, Note_on_c, 0, 76, 0
2, 249158, Note_on_c, 0, 76, 61
2, 249179, Note_on_c, 0, 72, 48
2, 249189, Note_on_c, 0, 67, 47
2, 249321, Note_on_c, 0, 76, 0
2, 249352, Note_on_c, 0, 72, 0
2, 249436, Note_on_c, 0, 67, 0
2, 249632, Note_on_c, 0, 66, 39
2, 249636, Note_on_c, 0, 67, 43
2, 249646, Note_on_c, 0, 74, 53
2, 249649, Note_on_c, 0, 71, 49
2, 249689, Note_on_c, 0, 66, 0
2, 249740, Note_on_c, 0, 67, 0
2, 249786, Note_on_c, 0, 74, 0
2, 249788, Note_on_c, 0, 71, 0
2, 250098, Note_on_c, 0, 62, 68
2, 250105, Note_on_c, 0, 59, 71
2, 250114, Control_c, 0, 64, 127
2, 250125, Note_on_c, 0, 55, 50
2, 250318, Note_on_c, 0, 55, 0
2, 250346, Note_on_c, 0, 62, 0
2, 250361, Note_on_c, 0, 59, 0
2, 250452, Note_on_c, 0, 55, 49
2, 250453, Note_on_c, 0, 59, 53
2, 250456, Note_on_c, 0, 62, 56
2, 250538, Control_c, 0, 64, 0
2, 250550, Note_on_c, 0, 55, 0
2, 250559, Note_on_c, 0, 62, 0
2, 250608, Note_on_c, 0, 52, 47
2, 250615, Note_on_c, 0, 55, 25
2, 250631, Note_on_c, 0, 62, 33
2, 250815, Note_on_c, 0, 55, 0
2, 250829, Note_on_c, 0, 59, 0
2, 250867, Note_on_c, 0, 62, 0
2, 250911, Note_on_c, 0, 55, 49
2, 250914, Note_on_c, 0, 64, 69
2, 250918, Note_on_c, 0, 59, 64
2, 250928, Note_on_c, 0, 52, 0
2, 250934, Note_on_c, 0, 53, 62
2, 250960, Note_on_c, 0, 62, 24
2, 251849, Note_on_c, 0, 62, 0
2, 251888, Note_on_c, 0, 55, 0
2, 251897, Note_on_c, 0, 53, 0
2, 251916, Note_on_c, 0, 52, 36
2, 251927, Note_on_c, 0, 59, 0
2, 251972, Note_on_c, 0, 64, 0
2, 252018, Note_on_c, 0, 66, 48
2, 252023, Note_on_c, 0, 55, 34
2, 252036, Note_on_c, 0, 59, 49
2, 252037, Note_on_c, 0, 54, 56
2, 252040, Note_on_c, 0, 62, 40
2, 252041, Note_on_c, 0, 52, 0
2, 252472, Note_on_c, 0, 55, 0
2, 252499, Control_c, 0, 64, 127
2, 252530, Note_on_c, 0, 62, 0
2, 252571, Note_on_c, 0, 59, 0
2, 252596, Note_on_c, 0, 66, 0
2, 252811, Note_on_c, 0, 52, 58
2, 252828, Note_on_c, 0, 54, 0
2, 252897, Note_on_c, 0, 52, 0
2, 253418, Control_c, 0, 64, 0
2, 253448, Note_on_c, 0, 91, 72
2, 253453, Note_on_c, 0, 60, 45
2, 253454, Note_on_c, 0, 55, 54
2, 253455, Note_on_c, 0, 57, 49
2, 253456, Note_on_c, 0, 79, 58
2, 253458, Note_on_c, 0, 65, 57
2, 253458, Note_on_c, 0, 84, 63
2, 253478, Note_on_c, 0, 88, 43
2, 253490, Note_on_c, 0, 64, 37
2, 253531, Note_on_c, 0, 64, 0
2, 253704, Control_c, 0, 64, 127
2, 254013, Note_on_c, 0, 55, 0
2, 254022, Note_on_c, 0, 60, 0
2, 254023, Note_on_c, 0, 79, 0
2, 254030, Note_on_c, 0, 65, 0
2, 254035, Note_on_c, 0, 84, 0
2, 254054, Note_on_c, 0, 57, 0
2, 254089, Note_on_c, 0, 91, 0
2, 254106, Note_on_c, 0, 88, 0
2, 254424, Note_on_c, 0, 65, 74
2, 254429, Note_on_c, 0, 55, 64
2, 254433, Note_on_c, 0, 60, 52
2, 254434, Note_on_c, 0, 57, 64
2, 254437, Note_on_c, 0, 93, 87
2, 254440, Note_on_c, 0, 81, 79
2, 254444, Note_on_c, 0, 86, 71
2, 254454, Note_on_c, 0, 89, 64
2, 254582, Note_on_c, 0, 81, 0
2, 254585, Note_on_c, 0, 86, 0
2, 254616, Note_on_c, 0, 89, 0
2, 254624, Note_on_c, 0, 55, 0
2, 254629, Note_on_c, 0, 93, 0
2, 254657, Note_on_c, 0, 65, 0
2, 254662, Note_on_c, 0, 57, 0
2, 254675, Note_on_c, 0, 60, 0
2, 254770, Note_on_c, 0, 89, 68
2, 254772, Note_on_c, 0, 93, 67
2, 254774, Note_on_c, 0, 96, 64
2, 254776, Note_on_c, 0, 84, 60
2, 254782, Note_on_c, 0, 60, 40
2, 254792, Note_on_c, 0, 57, 58
2, 254796, Note_on_c, 0, 65, 58
2, 254808, Note_on_c, 0, 89, 0
2, 254810, Note_on_c, 0, 93, 0
2, 254811, Note_on_c, 0, 84, 0
2, 254819, Note_on_c, 0, 96, 0
2, 254831, Note_on_c, 0, 65, 0
2, 254832, Note_on_c, 0, 57, 0
2, 254858, Note_on_c, 0, 60, 0
2, 254886, Control_c, 0, 64, 0
2, 254911, Note_on_c, 0, 65, 75
2, 254913, Note_on_c, 0, 57, 68
2, 254914, Note_on_c, 0, 55, 80
2, 254915, Note_on_c, 0, 60, 75
2, 254917, Note_on_c, 0, 100, 82
2, 254918, Note_on_c, 0, 93, 79
2, 254919, Note_on_c, 0, 88, 80
2, 254928, Note_on_c, 0, 96, 52
2, 255053, Control_c, 0, 64, 127
2, 255103, Note_on_c, 0, 93, 0
2, 255111, Note_on_c, 0, 88, 0
2, 255141, Note_on_c, 0, 96, 0
2, 255145, Note_on_c, 0, 100, 0
2, 255156, Note_on_c, 0, 55, 0
2, 255178, Note_on_c, 0, 65, 0
2, 255186, Note_on_c, 0, 57, 0
2, 255196, Note_on_c, 0, 60, 0
2, 255223, Control_c, 0, 64, 0
2, 255255, Note_on_c, 0, 103, 85
2, 255258, Note_on_c, 0, 91, 82
2, 255259, Note_on_c, 0, 55, 67
2, 255260, Note_on_c, 0, 57, 69
2, 255261, Note_on_c, 0, 65, 76
2, 255262, Note_on_c, 0, 60, 80
2, 255264, Note_on_c, 0, 96, 74
2, 255265, Note_on_c, 0, 100, 69
2, 255467, Control_c, 0, 64, 127
2, 255739, Note_on_c, 0, 55, 0
2, 255776, Note_on_c, 0, 103, 0
2, 255780, Note_on_c, 0, 65, 0
2, 255782, Note_on_c, 0, 57, 0
2, 255783, Note_on_c, 0, 91, 0
2, 255793, Note_on_c, 0, 60, 0
2, 255797, Note_on_c, 0, 100, 0
2, 255800, Note_on_c, 0, 96, 0
2, 255861, Control_c, 0, 64, 0
2, 255870, Note_on_c, 0, 65, 62
2, 255873, Note_on_c, 0, 60, 60
2, 255880, Note_on_c, 0, 55, 55
2, 255884, Note_on_c, 0, 96, 53
2, 255887, Note_on_c, 0, 57, 46
2, 255893, Note_on_c, 0, 103, 53
2, 255894, Note_on_c, 0, 101, 51
2, 255898, Note_on_c, 0, 89, 35
2, 255926, Note_on_c, 0, 91, 25
2, 255929, Note_on_c, 0, 103, 0
2, 255964, Note_on_c, 0, 91, 0
2, 256032, Note_on_c, 0, 96, 0
2, 256033, Note_on_c, 0, 89, 0
2, 256036, Note_on_c, 0, 55, 0
2, 256040, Note_on_c, 0, 101, 0
2, 256056, Note_on_c, 0, 65, 0
2, 256069, Note_on_c, 0, 57, 0
2, 256075, Note_on_c, 0, 60, 0
2, 256197, Note_on_c, 0, 60, 29
2, 256199, Note_on_c, 0, 100, 51
2, 256200, Note_on_c, 0, 65, 68
2, 256206, Note_on_c, 0, 55, 55
2, 256209, Note_on_c, 0, 57, 61
2, 256212, Note_on_c, 0, 88, 51
2, 256220, Note_on_c, 0, 98, 47
2, 256220, Note_on_c, 0, 95, 52
2, 256320, Note_on_c, 0, 100, 0
2, 256329, Note_on_c, 0, 98, 0
2, 256340, Note_on_c, 0, 55, 0
2, 256341, Note_on_c, 0, 95, 0
2, 256353, Note_on_c, 0, 65, 0
2, 256359, Note_on_c, 0, 88, 0
2, 256382, Note_on_c, 0, 57, 0
2, 256383, Note_on_c, 0, 60, 0
2, 256456, Control_c, 0, 64, 127
2, 256514, Note_on_c, 0, 96, 55
2, 256532, Note_on_c, 0, 84, 42
2, 256536, Note_on_c, 0, 91, 50
2, 256539, Note_on_c, 0, 65, 57
2, 256551, Note_on_c, 0, 55, 39
2, 256553, Note_on_c, 0, 60, 32
2, 256561, Note_on_c, 0, 57, 43
2, 256654, Note_on_c, 0, 91, 0
2, 256661, Note_on_c, 0, 96, 0
2, 256689, Note_on_c, 0, 65, 0
2, 256694, Note_on_c, 0, 84, 0
2, 256717, Note_on_c, 0, 55, 0
2, 256737, Note_on_c, 0, 57, 0
2, 256752, Note_on_c, 0, 60, 0
2, 256790, Control_c, 0, 64, 0
2, 256818, Note_on_c, 0, 55, 30
2, 256819, Note_on_c, 0, 93, 62
2, 256833, Note_on_c, 0, 60, 34
2, 256839, Note_on_c, 0, 65, 48
2, 256840, Note_on_c, 0, 88, 50
2, 256857, Note_on_c, 0, 81, 26
2, 256861, Note_on_c, 0, 57, 20
2, 256871, Control_c, 0, 64, 127
2, 256915, Note_on_c, 0, 57, 0
2, 256934, Note_on_c, 0, 55, 0
2, 256935, Note_on_c, 0, 60, 0
2, 256946, Note_on_c, 0, 88, 0
2, 256952, Note_on_c, 0, 81, 0
2, 256956, Note_on_c, 0, 93, 0
2, 256994, Note_on_c, 0, 65, 0
2, 257113, Control_c, 0, 64, 0
2, 257153, Note_on_c, 0, 60, 31
2, 257155, Note_on_c, 0, 67, 53
2, 257158, Note_on_c, 0, 94, 64
2, 257166, Note_on_c, 0, 63, 40
2, 257167, Note_on_c, 0, 82, 57
2, 257182, Note_on_c, 0, 56, 55
2, 257187, Note_on_c, 0, 87, 43
2, 257346, Control_c, 0, 64, 127
2, 257575, Note_on_c, 0, 94, 0
2, 257615, Note_on_c, 0, 87, 0
2, 257635, Note_on_c, 0, 82, 0
2, 257747, Note_on_c, 0, 67, 0
2, 257882, Note_on_c, 0, 63, 0
2, 258096, Note_on_c, 0, 60, 0
2, 258451, Note_on_c, 0, 56, 0
2, 258563, Note_on_c, 0, 56, 37
2, 258596, Note_on_c, 0, 56, 0
2, 258719, Note_on_c, 0, 55, 53
2, 258792, Control_c, 0, 64, 0
2, 258804, Note_on_c, 0, 55, 0
2, 258873, Note_on_c, 0, 56, 71
2, 258967, Note_on_c, 0, 56, 0
2, 259033, Note_on_c, 0, 60, 60
2, 259151, Note_on_c, 0, 60, 0
2, 259186, Note_on_c, 0, 57, 42
2, 259358, Note_on_c, 0, 58, 55
2, 259362, Note_on_c, 0, 57, 0
2, 259534, Note_on_c, 0, 56, 52
2, 259548, Note_on_c, 0, 62, 43
2, 259606, Note_on_c, 0, 58, 0
2, 259642, Note_on_c, 0, 62, 0
2, 259644, Note_on_c, 0, 56, 0
2, 259665, Note_on_c, 0, 59, 47
2, 259822, Note_on_c, 0, 60, 60
2, 259846, Note_on_c, 0, 59, 0
2, 259946, Note_on_c, 0, 60, 0
2, 259989, Note_on_c, 0, 63, 79
2, 260018, Note_on_c, 0, 56, 52
2, 260112, Note_on_c, 0, 56, 0
2, 260154, Note_on_c, 0, 60, 40
2, 260155, Note_on_c, 0, 63, 0
2, 260278, Note_on_c, 0, 60, 0
2, 260325, Note_on_c, 0, 62, 62
2, 260432, Note_on_c, 0, 62, 0
2, 260492, Note_on_c, 0, 65, 69
2, 260506, Note_on_c, 0, 54, 60
2, 260622, Note_on_c, 0, 65, 0
2, 260634, Note_on_c, 0, 54, 0
2, 260659, Note_on_c, 0, 62, 40
2, 260783, Note_on_c, 0, 62, 0
2, 260796, Note_on_c, 0, 63, 64
2, 260909, Note_on_c, 0, 63, 0
2, 260969, Note_on_c, 0, 67, 70
2, 261090, Note_on_c, 0, 67, 0
2, 261146, Note_on_c, 0, 63, 55
2, 261226, Note_on_c, 0, 63, 0
2, 261336, Note_on_c, 0, 64, 69
2, 261420, Note_on_c, 0, 64, 0
2, 261485, Note_on_c, 0, 67, 68
2, 261487, Note_on_c, 0, 61, 25
2, 261585, Note_on_c, 0, 67, 0
2, 261597, Note_on_c, 0, 61, 0
2, 261679, Note_on_c, 0, 65, 34
2, 261775, Note_on_c, 0, 65, 0
2, 261783, Note_on_c, 0, 66, 53
2, 261888, Note_on_c, 0, 66, 0
2, 261926, Note_on_c, 0, 69, 63
2, 261959, Note_on_c, 0, 62, 42
2, 262004, Note_on_c, 0, 62, 0
2, 262033, Note_on_c, 0, 69, 0
2, 262111, Note_on_c, 0, 66, 23
2, 262114, Control_c, 0, 64, 127
2, 262125, Control_c, 0, 64, 0
2, 262159, Note_on_c, 0, 66, 0
2, 262237, Note_on_c, 0, 67, 47
2, 262353, Note_on_c, 0, 67, 0
2, 262383, Note_on_c, 0, 71, 68
2, 262412, Note_on_c, 0, 62, 53
2, 262496, Note_on_c, 0, 62, 0
2, 262497, Note_on_c, 0, 71, 0
2, 262557, Note_on_c, 0, 68, 38
2, 262658, Note_on_c, 0, 68, 0
2, 262692, Note_on_c, 0, 69, 31
2, 262776, Note_on_c, 0, 69, 0
2, 262870, Note_on_c, 0, 73, 79
2, 262884, Note_on_c, 0, 62, 49
2, 262981, Note_on_c, 0, 62, 0
2, 262998, Note_on_c, 0, 73, 0
2, 263024, Note_on_c, 0, 70, 31
2, 263096, Note_on_c, 0, 70, 0
2, 263179, Note_on_c, 0, 71, 39
2, 263281, Note_on_c, 0, 71, 0
2, 263331, Note_on_c, 0, 74, 71
2, 263368, Note_on_c, 0, 62, 52
2, 263455, Note_on_c, 0, 74, 0
2, 263472, Note_on_c, 0, 62, 0
2, 263527, Note_on_c, 0, 72, 22
2, 263651, Note_on_c, 0, 73, 33
2, 263661, Note_on_c, 0, 72, 0
2, 263766, Note_on_c, 0, 73, 0
2, 263815, Note_on_c, 0, 76, 74
2, 263850, Note_on_c, 0, 62, 55
2, 263947, Note_on_c, 0, 76, 0
2, 263964, Control_c, 0, 64, 127
2, 263966, Note_on_c, 0, 62, 0
2, 263977, Note_on_c, 0, 73, 44
2, 264072, Note_on_c, 0, 73, 0
2, 264153, Note_on_c, 0, 74, 68
2, 264256, Control_c, 0, 64, 0
2, 264259, Note_on_c, 0, 74, 0
2, 264303, Note_on_c, 0, 74, 40
2, 264307, Note_on_c, 0, 75, 75
2, 264339, Note_on_c, 0, 62, 53
2, 264344, Note_on_c, 0, 74, 0
2, 264385, Note_on_c, 0, 59, 24
2, 264427, Note_on_c, 0, 75, 0
2, 264435, Note_on_c, 0, 76, 71
2, 264439, Control_c, 0, 64, 127
2, 264448, Note_on_c, 0, 62, 0
2, 264574, Note_on_c, 0, 59, 0
2, 264621, Note_on_c, 0, 76, 0
2, 264721, Control_c, 0, 64, 0
2, 264739, Note_on_c, 0, 76, 83
2, 264741, Note_on_c, 0, 68, 82
2, 264745, Note_on_c, 0, 56, 65
2, 264746, Note_on_c, 0, 71, 73
2, 264747, Note_on_c, 0, 64, 75
2, 264756, Note_on_c, 0, 59, 54
2, 264757, Note_on_c, 0, 54, 54
2, 264837, Note_on_c, 0, 73, 32
2, 264851, Note_on_c, 0, 68, 0
2, 264900, Note_on_c, 0, 64, 0
2, 264904, Note_on_c, 0, 73, 0
2, 264905, Note_on_c, 0, 54, 0
2, 264914, Control_c, 0, 64, 127
2, 264919, Note_on_c, 0, 59, 0
2, 264924, Note_on_c, 0, 76, 0
2, 264929, Note_on_c, 0, 71, 0
2, 264951, Note_on_c, 0, 68, 49
2, 264963, Note_on_c, 0, 56, 0
2, 265008, Note_on_c, 0, 56, 24
2, 265010, Note_on_c, 0, 54, 22
2, 265019, Note_on_c, 0, 64, 50
2, 265021, Note_on_c, 0, 59, 28
2, 265040, Note_on_c, 0, 68, 0
2, 265055, Note_on_c, 0, 71, 39
2, 265062, Note_on_c, 0, 54, 0
2, 265078, Note_on_c, 0, 56, 0
2, 265125, Note_on_c, 0, 59, 0
2, 265137, Note_on_c, 0, 64, 0
2, 265159, Note_on_c, 0, 68, 47
2, 265166, Note_on_c, 0, 71, 0
2, 265174, Note_on_c, 0, 56, 36
2, 265186, Note_on_c, 0, 54, 25
2, 265244, Note_on_c, 0, 68, 0
2, 265247, Note_on_c, 0, 54, 0
2, 265253, Note_on_c, 0, 59, 24
2, 265262, Note_on_c, 0, 76, 50
2, 265266, Note_on_c, 0, 71, 47
2, 265267, Note_on_c, 0, 64, 55
2, 265278, Note_on_c, 0, 56, 0
2, 265334, Note_on_c, 0, 59, 0
2, 265355, Note_on_c, 0, 76, 0
2, 265359, Note_on_c, 0, 64, 0
2, 265363, Note_on_c, 0, 68, 47
2, 265364, Note_on_c, 0, 71, 0
2, 265375, Note_on_c, 0, 56, 51
2, 265403, Note_on_c, 0, 54, 34
2, 265446, Note_on_c, 0, 54, 0
2, 265451, Note_on_c, 0, 68, 0
2, 265461, Note_on_c, 0, 76, 40
2, 265471, Note_on_c, 0, 71, 47
2, 265477, Note_on_c, 0, 59, 17
2, 265488, Note_on_c, 0, 64, 45
2, 265491, Note_on_c, 0, 56, 0
2, 265539, Note_on_c, 0, 76, 0
2, 265540, Note_on_c, 0, 59, 0
2, 265558, Note_on_c, 0, 64, 0
2, 265568, Note_on_c, 0, 71, 0
2, 265572, Note_on_c, 0, 68, 50
2, 265584, Note_on_c, 0, 56, 46
2, 265659, Note_on_c, 0, 76, 45
2, 265660, Note_on_c, 0, 68, 0
2, 265664, Note_on_c, 0, 59, 18
2, 265676, Note_on_c, 0, 71, 45
2, 265703, Note_on_c, 0, 64, 49
2, 265712, Note_on_c, 0, 56, 0
2, 265744, Note_on_c, 0, 76, 0
2, 265754, Note_on_c, 0, 59, 0
2, 265765, Note_on_c, 0, 68, 53
2, 265767, Note_on_c, 0, 71, 0
2, 265784, Note_on_c, 0, 64, 0
2, 265792, Note_on_c, 0, 56, 47
2, 265808, Note_on_c, 0, 54, 45
2, 265847, Note_on_c, 0, 76, 33
2, 265854, Note_on_c, 0, 68, 0
2, 265863, Note_on_c, 0, 54, 0
2, 265865, Note_on_c, 0, 71, 48
2, 265910, Note_on_c, 0, 64, 49
2, 265919, Note_on_c, 0, 59, 19
2, 265932, Note_on_c, 0, 76, 0
2, 265933, Note_on_c, 0, 56, 0
2, 265955, Note_on_c, 0, 68, 48
2, 265963, Note_on_c, 0, 71, 0
2, 265976, Note_on_c, 0, 59, 0
2, 266012, Note_on_c, 0, 64, 0
2, 266026, Note_on_c, 0, 56, 43
2, 266032, Note_on_c, 0, 54, 37
2, 266051, Note_on_c, 0, 68, 0
2, 266054, Note_on_c, 0, 76, 32
2, 266057, Note_on_c, 0, 71, 39
2, 266102, Note_on_c, 0, 54, 0
2, 266116, Note_on_c, 0, 76, 0
2, 266121, Note_on_c, 0, 59, 24
2, 266142, Note_on_c, 0, 68, 47
2, 266150, Note_on_c, 0, 64, 37
2, 266155, Note_on_c, 0, 71, 0
2, 266177, Note_on_c, 0, 56, 0
2, 266239, Note_on_c, 0, 64, 0
2, 266248, Note_on_c, 0, 68, 0
2, 266250, Note_on_c, 0, 59, 0
2, 266259, Note_on_c, 0, 71, 42
2, 266275, Note_on_c, 0, 76, 28
2, 266387, Note_on_c, 0, 68, 46
2, 266395, Note_on_c, 0, 54, 54
2, 266398, Note_on_c, 0, 64, 60
2, 266402, Note_on_c, 0, 56, 45
2, 266430, Note_on_c, 0, 59, 26
2, 266436, Note_on_c, 0, 68, 0
2, 266478, Note_on_c, 0, 59, 0
2, 266482, Note_on_c, 0, 71, 0
2, 266485, Note_on_c, 0, 64, 0
2, 266492, Note_on_c, 0, 76, 0
2, 266539, Note_on_c, 0, 54, 0
2, 266552, Note_on_c, 0, 56, 0
2, 266742, Note_on_c, 0, 79, 83
2, 266744, Note_on_c, 0, 71, 89
2, 266745, Note_on_c, 0, 74, 89
2, 266754, Note_on_c, 0, 59, 80
2, 266757, Note_on_c, 0, 62, 90
2, 266758, Note_on_c, 0, 53, 75
2, 266760, Note_on_c, 0, 55, 68
2, 266763, Control_c, 0, 64, 0
2, 266896, Note_on_c, 0, 71, 0
2, 266968, Note_on_c, 0, 71, 49
2, 266984, Note_on_c, 0, 79, 0
2, 266991, Note_on_c, 0, 53, 0
2, 266995, Control_c, 0, 64, 127
2, 266996, Note_on_c, 0, 74, 0
2, 267005, Note_on_c, 0, 55, 0
2, 267019, Note_on_c, 0, 62, 0
2, 267047, Note_on_c, 0, 59, 0
2, 267078, Note_on_c, 0, 71, 0
2, 267083, Note_on_c, 0, 79, 32
2, 267085, Note_on_c, 0, 53, 42
2, 267095, Note_on_c, 0, 74, 51
2, 267098, Note_on_c, 0, 55, 41
2, 267170, Note_on_c, 0, 59, 20
2, 267171, Note_on_c, 0, 53, 0
2, 267174, Note_on_c, 0, 62, 54
2, 267197, Note_on_c, 0, 79, 0
2, 267202, Note_on_c, 0, 71, 43
2, 267209, Note_on_c, 0, 55, 0
2, 267213, Note_on_c, 0, 74, 0
2, 267267, Note_on_c, 0, 59, 0
2, 267288, Note_on_c, 0, 62, 0
2, 267304, Note_on_c, 0, 71, 0
2, 267307, Note_on_c, 0, 79, 24
2, 267310, Note_on_c, 0, 74, 53
2, 267320, Note_on_c, 0, 55, 35
2, 267351, Note_on_c, 0, 53, 31
2, 267402, Note_on_c, 0, 53, 0
2, 267407, Note_on_c, 0, 59, 24
2, 267413, Note_on_c, 0, 79, 0
2, 267416, Note_on_c, 0, 71, 40
2, 267421, Note_on_c, 0, 74, 0
2, 267430, Note_on_c, 0, 62, 54
2, 267449, Note_on_c, 0, 55, 0
2, 267495, Note_on_c, 0, 59, 0
2, 267505, Note_on_c, 0, 79, 26
2, 267512, Note_on_c, 0, 71, 0
2, 267522, Note_on_c, 0, 74, 45
2, 267541, Note_on_c, 0, 62, 0
2, 267600, Note_on_c, 0, 55, 34
2, 267605, Note_on_c, 0, 53, 29
2, 267609, Note_on_c, 0, 79, 0
2, 267629, Note_on_c, 0, 74, 0
2, 267630, Note_on_c, 0, 71, 48
2, 267657, Note_on_c, 0, 53, 0
2, 267690, Note_on_c, 0, 59, 28
2, 267691, Note_on_c, 0, 62, 52
2, 267711, Note_on_c, 0, 55, 0
2, 267744, Note_on_c, 0, 74, 43
2, 267763, Note_on_c, 0, 79, 19
2, 267785, Note_on_c, 0, 71, 0
2, 267792, Note_on_c, 0, 59, 0
2, 267811, Note_on_c, 0, 62, 0
2, 267837, Note_on_c, 0, 74, 0
2, 267851, Note_on_c, 0, 79, 0
2, 267892, Note_on_c, 0, 55, 30
2, 267947, Note_on_c, 0, 55, 0
2, 268144, Note_on_c, 0, 55, 62
2, 268152, Note_on_c, 0, 59, 58
2, 268268, Control_c, 0, 64, 0
2, 268284, Note_on_c, 0, 83, 91
2, 268289, Note_on_c, 0, 62, 89
2, 268291, Note_on_c, 0, 53, 74
2, 268292, Note_on_c, 0, 79, 85
2, 268299, Note_on_c, 0, 74, 80
2, 268464, Note_on_c, 0, 59, 0
2, 268470, Control_c, 0, 64, 127
2, 268471, Note_on_c, 0, 74, 0
2, 268534, Note_on_c, 0, 79, 0
2, 268560, Note_on_c, 0, 83, 0
2, 268588, Note_on_c, 0, 53, 0
2, 268593, Note_on_c, 0, 62, 0
2, 268631, Note_on_c, 0, 55, 0
2, 268763, Control_c, 0, 64, 0
2, 268778, Note_on_c, 0, 57, 88
2, 268779, Note_on_c, 0, 62, 95
2, 268781, Note_on_c, 0, 52, 84
2, 268782, Note_on_c, 0, 86, 88
2, 268785, Note_on_c, 0, 74, 84
2, 268791, Note_on_c, 0, 76, 83
2, 268793, Note_on_c, 0, 85, 1
2, 268803, Note_on_c, 0, 81, 78
2, 268813, Note_on_c, 0, 83, 25
2, 268855, Note_on_c, 0, 83, 0
2, 269079, Note_on_c, 0, 85, 0
2, 269082, Note_on_c, 0, 81, 0
2, 269102, Note_on_c, 0, 74, 0
2, 269106, Note_on_c, 0, 76, 0
2, 269114, Note_on_c, 0, 52, 0
2, 269119, Note_on_c, 0, 86, 0
2, 269137, Note_on_c, 0, 57, 0
2, 269140, Note_on_c, 0, 62, 0
2, 269635, Note_on_c, 0, 54, 52
2, 269639, Note_on_c, 0, 83, 60
2, 269645, Note_on_c, 0, 78, 45
2, 269647, Note_on_c, 0, 64, 44
2, 269656, Note_on_c, 0, 71, 42
2, 269658, Note_on_c, 0, 59, 42
2, 269664, Note_on_c, 0, 76, 58
2, 269812, Note_on_c, 0, 83, 0
2, 269817, Note_on_c, 0, 64, 0
2, 269824, Note_on_c, 0, 76, 0
2, 269828, Note_on_c, 0, 78, 0
2, 269832, Note_on_c, 0, 59, 0
2, 269871, Note_on_c, 0, 71, 0
2, 269896, Note_on_c, 0, 54, 0
2, 270271, Note_on_c, 0, 62, 36
2, 270274, Note_on_c, 0, 78, 35
2, 270278, Note_on_c, 0, 57, 37
2, 270283, Note_on_c, 0, 71, 33
2, 270296, Note_on_c, 0, 52, 22
2, 270305, Note_on_c, 0, 76, 40
2, 270452, Note_on_c, 0, 76, 0
2, 270457, Note_on_c, 0, 52, 0
2, 270479, Note_on_c, 0, 57, 0
2, 270484, Note_on_c, 0, 78, 0
2, 270488, Note_on_c, 0, 62, 0
2, 270512, Note_on_c, 0, 71, 0
2, 271209, Note_on_c, 0, 62, 37
2, 271217, Note_on_c, 0, 57, 44
2, 271360, Note_on_c, 0, 57, 0
2, 271386, Note_on_c, 0, 62, 0
2, 271704, Note_on_c, 0, 76, 80
2, 271708, Note_on_c, 0, 68, 76
2, 271946, Note_on_c, 0, 76, 0
2, 271959, Note_on_c, 0, 68, 0
2, 272152, Note_on_c, 0, 63, 37
2, 272155, Note_on_c, 0, 59, 35
2, 272199, Note_on_c, 0, 53, 32
2, 272354, Note_on_c, 0, 59, 0
2, 272429, Note_on_c, 0, 53, 0
2, 272435, Note_on_c, 0, 63, 0
2, 272681, Note_on_c, 0, 71, 46
2, 272693, Note_on_c, 0, 64, 38
2, 272695, Note_on_c, 0, 67, 44
2, 272843, Note_on_c, 0, 67, 0
2, 272879, Note_on_c, 0, 71, 0
2, 272899, Note_on_c, 0, 64, 0
2, 273108, Note_on_c, 0, 52, 31
2, 273144, Note_on_c, 0, 57, 42
2, 273307, Note_on_c, 0, 57, 0
2, 273318, Note_on_c, 0, 52, 0
2, 274103, Note_on_c, 0, 60, 24
2, 274115, Note_on_c, 0, 52, 25
2, 274123, Note_on_c, 0, 55, 38
2, 274124, Note_on_c, 0, 57, 33
2, 274252, Note_on_c, 0, 52, 0
2, 274262, Note_on_c, 0, 55, 0
2, 274277, Note_on_c, 0, 57, 0
2, 274299, Note_on_c, 0, 60, 0
2, 275045, Note_on_c, 0, 60, 34
2, 275063, Note_on_c, 0, 74, 76
2, 275067, Note_on_c, 0, 57, 48
2, 275083, Note_on_c, 0, 55, 32
2, 275088, Note_on_c, 0, 75, 59
2, 275209, Note_on_c, 0, 60, 0
2, 275221, Note_on_c, 0, 57, 0
2, 275231, Note_on_c, 0, 75, 0
2, 275236, Note_on_c, 0, 76, 43
2, 275237, Note_on_c, 0, 55, 0
2, 275306, Note_on_c, 0, 74, 0
2, 275349, Note_on_c, 0, 76, 0
2, 275543, Note_on_c, 0, 67, 66
2, 275550, Note_on_c, 0, 79, 65
2, 275793, Note_on_c, 0, 67, 0
2, 275797, Note_on_c, 0, 79, 0
2, 275990, Note_on_c, 0, 60, 50
2, 275998, Note_on_c, 0, 81, 76
2, 276005, Note_on_c, 0, 69, 73
2, 276011, Note_on_c, 0, 52, 35
2, 276023, Note_on_c, 0, 57, 43
2, 276030, Note_on_c, 0, 55, 33
2, 276072, Note_on_c, 0, 52, 0
2, 276093, Note_on_c, 0, 57, 0
2, 276100, Note_on_c, 0, 55, 0
2, 276105, Note_on_c, 0, 60, 0
2, 276260, Note_on_c, 0, 69, 0
2, 276282, Note_on_c, 0, 81, 0
2, 276484, Note_on_c, 0, 82, 65
2, 276496, Note_on_c, 0, 70, 62
2, 276508, Note_on_c, 0, 76, 50
2, 276697, Note_on_c, 0, 83, 28
2, 276713, Note_on_c, 0, 82, 0
2, 276735, Note_on_c, 0, 70, 0
2, 276842, Note_on_c, 0, 83, 0
2, 276855, Note_on_c, 0, 76, 0
2, 276911, Note_on_c, 0, 64, 46
2, 276927, Note_on_c, 0, 57, 42
2, 276939, Note_on_c, 0, 60, 24
2, 277122, Note_on_c, 0, 60, 0
2, 277141, Note_on_c, 0, 57, 0
2, 277159, Note_on_c, 0, 64, 0
2, 277445, Note_on_c, 0, 81, 54
2, 277459, Note_on_c, 0, 78, 43
2, 277460, Note_on_c, 0, 69, 41
2, 277462, Note_on_c, 0, 74, 60
2, 277677, Note_on_c, 0, 74, 0
2, 277697, Note_on_c, 0, 69, 0
2, 277714, Note_on_c, 0, 81, 0
2, 277722, Note_on_c, 0, 78, 0
2, 277913, Note_on_c, 0, 66, 40
2, 277921, Note_on_c, 0, 61, 36
2, 277922, Note_on_c, 0, 57, 39
2, 277949, Note_on_c, 0, 62, 53
2, 278085, Note_on_c, 0, 62, 0
2, 278098, Note_on_c, 0, 66, 0
2, 278128, Note_on_c, 0, 61, 0
2, 278142, Note_on_c, 0, 57, 0
2, 278417, Note_on_c, 0, 79, 57
2, 278424, Note_on_c, 0, 72, 64
2, 278427, Note_on_c, 0, 76, 54
2, 278429, Note_on_c, 0, 67, 64
2, 278444, Note_on_c, 0, 77, 55
2, 278593, Note_on_c, 0, 67, 0
2, 278686, Note_on_c, 0, 72, 0
2, 278701, Note_on_c, 0, 77, 0
2, 278709, Note_on_c, 0, 76, 0
2, 278713, Note_on_c, 0, 79, 0
2, 278856, Note_on_c, 0, 64, 53
2, 278880, Note_on_c, 0, 60, 34
2, 278889, Note_on_c, 0, 59, 31
2, 278948, Control_c, 0, 64, 127
2, 278979, Note_on_c, 0, 60, 0
2, 278992, Note_on_c, 0, 59, 0
2, 279019, Note_on_c, 0, 64, 0
2, 279260, Control_c, 0, 64, 0
2, 279366, Note_on_c, 0, 75, 85
2, 279370, Note_on_c, 0, 71, 90
2, 279372, Note_on_c, 0, 79, 79
2, 279380, Note_on_c, 0, 63, 72
2, 279382, Note_on_c, 0, 57, 80
2, 279383, Note_on_c, 0, 67, 74
2, 279494, Control_c, 0, 64, 127
2, 279773, Note_on_c, 0, 67, 0
2, 279804, Note_on_c, 0, 63, 0
2, 279836, Note_on_c, 0, 79, 0
2, 279856, Note_on_c, 0, 57, 0
2, 279892, Note_on_c, 0, 71, 0
2, 279900, Note_on_c, 0, 75, 0
2, 280150, Control_c, 0, 64, 0
2, 280205, Note_on_c, 0, 76, 65
2, 280213, Note_on_c, 0, 71, 66
2, 280219, Note_on_c, 0, 69, 54
2, 280225, Note_on_c, 0, 62, 71
2, 280235, Note_on_c, 0, 52, 48
2, 280236, Note_on_c, 0, 57, 60
2, 280342, Note_on_c, 0, 62, 0
2, 280352, Note_on_c, 0, 76, 0
2, 280367, Note_on_c, 0, 71, 0
2, 280376, Note_on_c, 0, 69, 0
2, 280377, Note_on_c, 0, 57, 0
2, 280409, Note_on_c, 0, 52, 0
2, 280726, Note_on_c, 0, 50, 32
2, 280816, Note_on_c, 0, 50, 0
2, 280828, Note_on_c, 0, 64, 44
2, 280829, Note_on_c, 0, 57, 44
2, 280843, Note_on_c, 0, 59, 41
2, 280850, Note_on_c, 0, 52, 38
2, 281133, Note_on_c, 0, 64, 0
2, 281136, Note_on_c, 0, 57, 0
2, 281150, Note_on_c, 0, 52, 0
2, 281157, Note_on_c, 0, 59, 0
2, 281172, Note_on_c, 0, 51, 35
2, 281305, Note_on_c, 0, 51, 0
2, 281306, Note_on_c, 0, 57, 50
2, 281307, Note_on_c, 0, 64, 52
2, 281312, Note_on_c, 0, 52, 46
2, 281321, Note_on_c, 0, 59, 44
2, 281527, Note_on_c, 0, 64, 0
2, 281550, Note_on_c, 0, 59, 0
2, 281563, Note_on_c, 0, 57, 0
2, 281631, Note_on_c, 0, 52, 0
2, 282103, Note_on_c, 0, 51, 27
2, 282225, Note_on_c, 0, 57, 42
2, 282231, Note_on_c, 0, 64, 45
2, 282233, Note_on_c, 0, 51, 0
2, 282239, Note_on_c, 0, 52, 43
2, 282247, Note_on_c, 0, 59, 36
2, 282527, Note_on_c, 0, 64, 0
2, 282551, Note_on_c, 0, 59, 0
2, 282565, Note_on_c, 0, 52, 0
2, 282575, Note_on_c, 0, 57, 0
2, 282588, Note_on_c, 0, 51, 35
2, 282722, Note_on_c, 0, 57, 45
2, 282728, Note_on_c, 0, 52, 50
2, 282732, Note_on_c, 0, 64, 43
2, 282737, Note_on_c, 0, 59, 40
2, 282738, Note_on_c, 0, 51, 0
2, 282746, Control_c, 0, 64, 127
2, 282775, Note_on_c, 0, 57, 0
2, 282832, Note_on_c, 0, 59, 0
2, 282838, Control_c, 0, 64, 0
2, 282858, Control_c, 0, 64, 127
2, 282859, Note_on_c, 0, 64, 0
2, 283111, Note_on_c, 0, 51, 37
2, 283151, Control_c, 0, 64, 0
2, 283186, Note_on_c, 0, 52, 0
2, 283212, Note_on_c, 0, 78, 93
2, 283215, Note_on_c, 0, 83, 89
2, 283224, Note_on_c, 0, 51, 0
2, 283548, Note_on_c, 0, 76, 48
2, 283549, Note_on_c, 0, 83, 0
2, 283554, Note_on_c, 0, 78, 0
2, 283602, Note_on_c, 0, 76, 0
2, 283673, Note_on_c, 0, 78, 77
2, 283688, Note_on_c, 0, 83, 66
2, 284011, Note_on_c, 0, 62, 69
2, 284018, Note_on_c, 0, 57, 61
2, 284039, Note_on_c, 0, 52, 27
2, 284044, Note_on_c, 0, 62, 0
2, 284058, Note_on_c, 0, 57, 0
2, 284077, Note_on_c, 0, 52, 0
2, 284491, Note_on_c, 0, 76, 66
2, 284527, Note_on_c, 0, 83, 0
2, 284625, Note_on_c, 0, 78, 0
2, 284636, Note_on_c, 0, 76, 0
2, 284667, Note_on_c, 0, 71, 48
2, 284997, Note_on_c, 0, 71, 0
2, 285122, Note_on_c, 0, 66, 38
2, 285582, Note_on_c, 0, 62, 34
2, 285592, Note_on_c, 0, 52, 24
2, 285598, Note_on_c, 0, 57, 36
2, 285691, Note_on_c, 0, 52, 0
2, 285698, Note_on_c, 0, 62, 0
2, 285716, Note_on_c, 0, 57, 0
2, 286198, Note_on_c, 0, 66, 0
2, 286564, Note_on_c, 0, 62, 42
2, 286572, Note_on_c, 0, 57, 43
2, 286583, Note_on_c, 0, 52, 24
2, 286639, Note_on_c, 0, 52, 0
2, 286655, Note_on_c, 0, 57, 0
2, 286657, Note_on_c, 0, 62, 0
2, 287046, Note_on_c, 0, 80, 83
2, 287048, Note_on_c, 0, 88, 87
2, 287064, Note_on_c, 0, 63, 63
2, 287079, Note_on_c, 0, 59, 44
2, 287081, Note_on_c, 0, 53, 55
2, 287289, Note_on_c, 0, 88, 0
2, 287378, Note_on_c, 0, 76, 46
2, 287412, Note_on_c, 0, 80, 0
2, 287446, Note_on_c, 0, 63, 0
2, 287472, Note_on_c, 0, 76, 0
2, 287501, Note_on_c, 0, 59, 0
2, 287558, Note_on_c, 0, 83, 58
2, 287584, Note_on_c, 0, 53, 0
2, 287823, Note_on_c, 0, 83, 0
2, 287867, Note_on_c, 0, 86, 69
2, 287876, Note_on_c, 0, 52, 58
2, 287879, Note_on_c, 0, 62, 64
2, 287880, Note_on_c, 0, 57, 60
2, 287936, Note_on_c, 0, 62, 0
2, 287959, Note_on_c, 0, 57, 0
2, 287982, Note_on_c, 0, 52, 0
2, 288062, Note_on_c, 0, 86, 0
2, 288185, Note_on_c, 0, 82, 46
2, 288295, Note_on_c, 0, 82, 0
2, 288297, Note_on_c, 0, 83, 64
2, 288406, Note_on_c, 0, 83, 0
2, 288510, Note_on_c, 0, 83, 72
2, 288788, Note_on_c, 0, 83, 0
2, 288830, Note_on_c, 0, 79, 40
2, 288936, Note_on_c, 0, 79, 0
2, 288995, Note_on_c, 0, 81, 55
2, 289410, Note_on_c, 0, 81, 0
2, 289426, Note_on_c, 0, 62, 57
2, 289438, Note_on_c, 0, 57, 48
2, 289448, Note_on_c, 0, 52, 28
2, 289512, Note_on_c, 0, 52, 0
2, 289546, Note_on_c, 0, 62, 0
2, 289578, Note_on_c, 0, 57, 0
2, 290395, Note_on_c, 0, 62, 54
2, 290404, Note_on_c, 0, 57, 51
2, 290419, Note_on_c, 0, 52, 26
2, 290477, Note_on_c, 0, 52, 0
2, 290492, Note_on_c, 0, 62, 0
2, 290540, Note_on_c, 0, 57, 0
2, 290863, Note_on_c, 0, 74, 48
2, 290889, Note_on_c, 0, 75, 52
2, 290953, Note_on_c, 0, 74, 0
2, 291001, Note_on_c, 0, 76, 42
2, 291014, Note_on_c, 0, 75, 0
2, 291158, Note_on_c, 0, 76, 0
2, 291211, Note_on_c, 0, 62, 67
2, 291229, Note_on_c, 0, 57, 44
2, 291230, Note_on_c, 0, 52, 34
2, 291245, Note_on_c, 0, 62, 0
2, 291279, Note_on_c, 0, 57, 0
2, 291281, Note_on_c, 0, 52, 0
2, 291326, Note_on_c, 0, 79, 89
2, 291591, Note_on_c, 0, 79, 0
2, 291793, Note_on_c, 0, 83, 79
2, 291804, Note_on_c, 0, 71, 64
2, 292258, Note_on_c, 0, 83, 0
2, 292289, Note_on_c, 0, 71, 0
2, 292292, Note_on_c, 0, 64, 47
2, 292304, Note_on_c, 0, 60, 29
2, 292305, Note_on_c, 0, 57, 40
2, 292410, Note_on_c, 0, 64, 0
2, 292449, Note_on_c, 0, 60, 0
2, 292456, Note_on_c, 0, 57, 0
2, 292760, Note_on_c, 0, 81, 83
2, 292766, Note_on_c, 0, 78, 69
2, 292767, Note_on_c, 0, 69, 83
2, 292770, Note_on_c, 0, 74, 78
2, 293252, Note_on_c, 0, 66, 74
2, 293261, Note_on_c, 0, 62, 71
2, 293270, Note_on_c, 0, 57, 53
2, 293409, Note_on_c, 0, 66, 0
2, 293432, Note_on_c, 0, 57, 0
2, 293443, Note_on_c, 0, 62, 0
2, 293516, Note_on_c, 0, 74, 0
2, 293548, Note_on_c, 0, 81, 0
2, 293581, Note_on_c, 0, 69, 0
2, 293591, Note_on_c, 0, 78, 0
2, 293736, Note_on_c, 0, 79, 62
2, 293744, Note_on_c, 0, 76, 66
2, 293752, Note_on_c, 0, 67, 58
2, 293756, Note_on_c, 0, 72, 58
2, 294216, Note_on_c, 0, 64, 50
2, 294222, Note_on_c, 0, 60, 36
2, 294240, Note_on_c, 0, 72, 0
2, 294243, Note_on_c, 0, 59, 36
2, 294254, Note_on_c, 0, 76, 0
2, 294302, Note_on_c, 0, 67, 0
2, 294325, Note_on_c, 0, 79, 0
2, 294394, Note_on_c, 0, 60, 0
2, 294408, Note_on_c, 0, 64, 0
2, 294437, Note_on_c, 0, 59, 0
2, 295024, Note_on_c, 0, 63, 47
2, 295025, Note_on_c, 0, 67, 53
2, 295056, Note_on_c, 0, 62, 28
2, 295074, Note_on_c, 0, 67, 0
2, 295093, Note_on_c, 0, 62, 0
2, 295141, Note_on_c, 0, 63, 0
2, 295164, Note_on_c, 0, 71, 58
2, 295165, Note_on_c, 0, 74, 62
2, 295180, Note_on_c, 0, 67, 51
2, 295353, Note_on_c, 0, 71, 0
2, 295365, Note_on_c, 0, 67, 0
2, 295376, Note_on_c, 0, 74, 0
2, 296072, Note_on_c, 0, 52, 41
2, 296111, Note_on_c, 0, 57, 51
2, 296131, Note_on_c, 0, 59, 49
2, 296339, Note_on_c, 0, 57, 0
2, 296357, Note_on_c, 0, 59, 0
2, 296399, Note_on_c, 0, 52, 0
2, 296466, Note_on_c, 0, 51, 28
2, 296582, Note_on_c, 0, 52, 47
2, 296583, Note_on_c, 0, 51, 0
2, 296588, Note_on_c, 0, 59, 50
2, 296591, Note_on_c, 0, 57, 58
2, 296849, Note_on_c, 0, 57, 0
2, 296886, Note_on_c, 0, 59, 0
2, 296966, Note_on_c, 0, 52, 0
2, 297422, Note_on_c, 0, 51, 21
2, 297526, Note_on_c, 0, 51, 0
2, 297553, Note_on_c, 0, 52, 40
2, 297593, Note_on_c, 0, 57, 53
2, 297596, Note_on_c, 0, 59, 47
2, 297624, Control_c, 0, 64, 127
2, 297664, Control_c, 0, 64, 0
2, 297745, Control_c, 0, 64, 127
2, 297754, Note_on_c, 0, 57, 0
2, 298037, Note_on_c, 0, 59, 0
2, 298202, Note_on_c, 0, 52, 0
2, 298419, Note_on_c, 0, 52, 59
2, 298498, Note_on_c, 0, 52, 0
2, 298807, Note_on_c, 0, 55, 43
2, 298899, Note_on_c, 0, 55, 0
2, 298947, Note_on_c, 0, 56, 57
2, 298979, Control_c, 0, 64, 0
2, 298982, Note_on_c, 0, 56, 0
2, 299000, Note_on_c, 0, 57, 32
2, 299113, Note_on_c, 0, 57, 0
2, 299130, Note_on_c, 0, 58, 59
2, 299248, Note_on_c, 0, 58, 0
2, 299276, Note_on_c, 0, 59, 68
2, 299399, Note_on_c, 0, 59, 0
2, 299427, Note_on_c, 0, 61, 71
2, 299539, Note_on_c, 0, 55, 20
2, 299542, Note_on_c, 0, 61, 0
2, 299611, Note_on_c, 0, 62, 53
2, 299617, Note_on_c, 0, 55, 0
2, 299707, Note_on_c, 0, 62, 0
2, 299748, Note_on_c, 0, 66, 67
2, 299856, Note_on_c, 0, 66, 0
2, 299893, Note_on_c, 0, 69, 66
2, 300115, Note_on_c, 0, 66, 71
2, 300146, Note_on_c, 0, 69, 0
2, 300791, Note_on_c, 0, 62, 63
2, 300804, Note_on_c, 0, 66, 0
2, 300811, Note_on_c, 0, 57, 47
2, 300824, Note_on_c, 0, 62, 0
2, 300874, Note_on_c, 0, 57, 0
2, 300953, Note_on_c, 0, 64, 56
2, 301047, Note_on_c, 0, 64, 0
2, 301059, Note_on_c, 0, 66, 50
2, 301167, Note_on_c, 0, 64, 46
2, 301253, Note_on_c, 0, 66, 0
2, 301311, Note_on_c, 0, 64, 0
2, 301323, Note_on_c, 0, 59, 45
2, 301328, Note_on_c, 0, 57, 47
2, 301396, Note_on_c, 0, 59, 0
2, 301405, Note_on_c, 0, 57, 0
2, 301452, Note_on_c, 0, 64, 73
2, 301732, Note_on_c, 0, 64, 0
2, 301784, Note_on_c, 0, 59, 35
2, 301802, Note_on_c, 0, 57, 32
2, 301875, Note_on_c, 0, 57, 0
2, 301898, Note_on_c, 0, 59, 0
2, 301956, Note_on_c, 0, 62, 46
2, 302172, Note_on_c, 0, 62, 0
2, 302223, Note_on_c, 0, 64, 71
2, 302299, Note_on_c, 0, 59, 35
2, 302364, Note_on_c, 0, 64, 0
2, 302368, Note_on_c, 0, 59, 0
2, 302416, Note_on_c, 0, 66, 46
2, 302498, Note_on_c, 0, 66, 0
2, 302557, Note_on_c, 0, 67, 66
2, 302663, Note_on_c, 0, 67, 0
2, 302711, Note_on_c, 0, 70, 69
2, 302724, Note_on_c, 0, 63, 79
2, 302731, Note_on_c, 0, 59, 63
2, 302734, Note_on_c, 0, 53, 71
2, 302883, Note_on_c, 0, 75, 60
2, 302910, Note_on_c, 0, 70, 0
2, 302927, Note_on_c, 0, 76, 49
2, 302971, Note_on_c, 0, 75, 0
2, 302975, Note_on_c, 0, 76, 0
2, 303072, Note_on_c, 0, 59, 0
2, 303165, Note_on_c, 0, 63, 0
2, 303167, Note_on_c, 0, 53, 0
2, 303191, Control_c, 0, 64, 127
2, 303207, Note_on_c, 0, 77, 79
2, 303231, Control_c, 0, 64, 0
2, 303277, Note_on_c, 0, 77, 0
2, 303365, Note_on_c, 0, 62, 64
2, 303366, Note_on_c, 0, 57, 54
2, 303375, Note_on_c, 0, 52, 47
2, 303376, Note_on_c, 0, 83, 85
2, 303550, Note_on_c, 0, 83, 0
2, 303648, Note_on_c, 0, 57, 0
2, 303673, Note_on_c, 0, 82, 68
2, 303692, Note_on_c, 0, 70, 74
2, 303705, Note_on_c, 0, 76, 53
2, 303740, Note_on_c, 0, 57, 36
2, 303792, Note_on_c, 0, 70, 0
2, 303817, Note_on_c, 0, 71, 30
2, 303843, Note_on_c, 0, 82, 0
2, 303852, Note_on_c, 0, 76, 0
2, 303857, Note_on_c, 0, 62, 0
2, 303876, Note_on_c, 0, 57, 0
2, 303941, Note_on_c, 0, 71, 0
2, 303945, Note_on_c, 0, 52, 0
2, 303961, Note_on_c, 0, 83, 36
2, 303966, Note_on_c, 0, 76, 42
2, 304021, Note_on_c, 0, 83, 0
2, 304048, Note_on_c, 0, 76, 0
2, 304058, Note_on_c, 0, 71, 47
2, 304129, Note_on_c, 0, 83, 18
2, 304156, Note_on_c, 0, 71, 0
2, 304199, Note_on_c, 0, 79, 25
2, 304250, Note_on_c, 0, 79, 0
2, 304253, Note_on_c, 0, 71, 40
2, 304356, Note_on_c, 0, 71, 0
2, 304391, Note_on_c, 0, 79, 29
2, 304442, Note_on_c, 0, 79, 0
2, 304457, Note_on_c, 0, 71, 46
2, 304461, Note_on_c, 0, 83, 0
2, 304551, Note_on_c, 0, 71, 0
2, 304698, Note_on_c, 0, 62, 62
2, 304700, Note_on_c, 0, 59, 43
2, 304732, Note_on_c, 0, 62, 0
2, 304734, Note_on_c, 0, 55, 37
2, 304784, Note_on_c, 0, 55, 0
2, 304788, Note_on_c, 0, 59, 0
2, 305170, Note_on_c, 0, 73, 90
2, 305171, Note_on_c, 0, 85, 85
2, 305177, Note_on_c, 0, 82, 77
2, 305188, Note_on_c, 0, 80, 56
2, 305222, Note_on_c, 0, 80, 0
2, 305317, Note_on_c, 0, 73, 0
2, 305328, Note_on_c, 0, 82, 0
2, 305354, Note_on_c, 0, 85, 0
2, 305444, Note_on_c, 0, 86, 68
2, 305455, Note_on_c, 0, 74, 70
2, 305463, Note_on_c, 0, 83, 71
2, 305472, Note_on_c, 0, 84, 61
2, 305600, Note_on_c, 0, 84, 0
2, 305601, Note_on_c, 0, 86, 0
2, 305616, Note_on_c, 0, 83, 0
2, 305641, Note_on_c, 0, 59, 36
2, 305643, Note_on_c, 0, 62, 40
2, 305655, Note_on_c, 0, 74, 0
2, 305677, Note_on_c, 0, 62, 0
2, 305688, Note_on_c, 0, 55, 27
2, 305781, Note_on_c, 0, 59, 0
2, 305789, Note_on_c, 0, 82, 64
2, 305790, Note_on_c, 0, 55, 0
2, 305792, Note_on_c, 0, 70, 67
2, 305878, Note_on_c, 0, 83, 22
2, 305884, Note_on_c, 0, 76, 24
2, 305907, Note_on_c, 0, 79, 33
2, 305909, Note_on_c, 0, 71, 71
2, 305911, Note_on_c, 0, 70, 0
2, 305915, Note_on_c, 0, 82, 0
2, 305971, Note_on_c, 0, 83, 0
2, 306001, Note_on_c, 0, 71, 0
2, 306003, Note_on_c, 0, 79, 0
2, 306029, Note_on_c, 0, 76, 0
2, 306088, Note_on_c, 0, 59, 28
2, 306104, Note_on_c, 0, 81, 34
2, 306118, Note_on_c, 0, 79, 38
2, 306120, Note_on_c, 0, 67, 35
2, 306125, Note_on_c, 0, 69, 34
2, 306201, Note_on_c, 0, 59, 0
2, 306220, Note_on_c, 0, 69, 0
2, 306231, Note_on_c, 0, 67, 0
2, 306242, Note_on_c, 0, 81, 0
2, 306252, Note_on_c, 0, 79, 0
2, 306375, Note_on_c, 0, 79, 64
2, 306388, Note_on_c, 0, 67, 58
2, 306540, Note_on_c, 0, 62, 62
2, 306553, Note_on_c, 0, 59, 40
2, 306574, Note_on_c, 0, 62, 0
2, 306577, Note_on_c, 0, 67, 0
2, 306633, Note_on_c, 0, 79, 0
2, 306686, Note_on_c, 0, 59, 0
2, 306697, Note_on_c, 0, 76, 48
2, 306703, Note_on_c, 0, 67, 36
2, 306838, Note_on_c, 0, 67, 0
2, 306955, Note_on_c, 0, 76, 0
2, 307209, Note_on_c, 0, 83, 76
2, 307417, Note_on_c, 0, 83, 0
2, 307671, Note_on_c, 0, 64, 50
2, 307681, Note_on_c, 0, 57, 47
2, 307690, Note_on_c, 0, 60, 25
2, 307832, Note_on_c, 0, 60, 0
2, 307833, Note_on_c, 0, 64, 0
2, 307845, Note_on_c, 0, 57, 0
2, 308166, Note_on_c, 0, 81, 65
2, 308473, Note_on_c, 0, 81, 0
2, 308661, Note_on_c, 0, 61, 25
2, 308662, Note_on_c, 0, 66, 37
2, 308674, Note_on_c, 0, 62, 50
2, 308684, Note_on_c, 0, 57, 28
2, 308816, Note_on_c, 0, 57, 0
2, 308826, Note_on_c, 0, 62, 0
2, 308863, Note_on_c, 0, 66, 0
2, 308872, Note_on_c, 0, 61, 0
2, 309168, Note_on_c, 0, 79, 66
2, 309401, Note_on_c, 0, 79, 0
2, 309634, Note_on_c, 0, 63, 44
2, 309641, Note_on_c, 0, 67, 43
2, 309659, Note_on_c, 0, 62, 40
2, 309834, Note_on_c, 0, 62, 0
2, 309869, Note_on_c, 0, 67, 0
2, 309917, Note_on_c, 0, 63, 0
2, 310158, Note_on_c, 0, 79, 80
2, 310161, Note_on_c, 0, 76, 81
2, 310163, Note_on_c, 0, 72, 80
2, 310493, Note_on_c, 0, 79, 0
2, 310536, Note_on_c, 0, 72, 0
2, 310562, Note_on_c, 0, 76, 0
2, 310640, Control_c, 0, 64, 127
2, 310963, Control_c, 0, 64, 0
2, 311061, Note_on_c, 0, 78, 64
2, 311063, Note_on_c, 0, 62, 60
2, 311073, Note_on_c, 0, 71, 62
2, 311073, Note_on_c, 0, 66, 62
2, 311075, Note_on_c, 0, 55, 51
2, 311077, Note_on_c, 0, 74, 64
2, 311078, Note_on_c, 0, 67, 58
2, 311099, Note_on_c, 0, 59, 40
2, 311130, Control_c, 0, 64, 127
2, 311303, Note_on_c, 0, 62, 0
2, 311313, Note_on_c, 0, 66, 0
2, 311332, Note_on_c, 0, 78, 0
2, 311343, Note_on_c, 0, 74, 0
2, 311377, Note_on_c, 0, 59, 0
2, 311381, Note_on_c, 0, 55, 0
2, 311383, Note_on_c, 0, 71, 0
2, 311431, Note_on_c, 0, 67, 0
2, 311766, Control_c, 0, 64, 0
2, 311815, Note_on_c, 0, 66, 58
2, 311823, Note_on_c, 0, 45, 66
2, 311825, Note_on_c, 0, 55, 60
2, 311828, Note_on_c, 0, 59, 57
2, 311831, Note_on_c, 0, 52, 54
2, 311832, Note_on_c, 0, 62, 66
2, 311898, Control_c, 0, 64, 127
2, 312061, Note_on_c, 0, 55, 0
2, 312115, Note_on_c, 0, 45, 0
2, 312130, Note_on_c, 0, 52, 0
2, 312218, Note_on_c, 0, 62, 0
2, 312223, Note_on_c, 0, 66, 0
2, 312239, Note_on_c, 0, 59, 0
2, 312454, Control_c, 0, 64, 0
2, 312470, Note_on_c, 0, 64, 80
2, 312480, Note_on_c, 0, 59, 75
2, 312482, Note_on_c, 0, 55, 79
2, 312483, Note_on_c, 0, 62, 77
2, 312485, Note_on_c, 0, 52, 75
2, 312491, Note_on_c, 0, 45, 76
2, 312837, Control_c, 0, 64, 127
2, 313000, Note_on_c, 0, 52, 0
2, 313027, Note_on_c, 0, 45, 0
2, 313046, Note_on_c, 0, 55, 0
2, 313114, Note_on_c, 0, 59, 0
2, 313123, Note_on_c, 0, 64, 0
2, 313126, Note_on_c, 0, 62, 0
2, 313272, Control_c, 0, 64, 0
2, 313275, Note_on_c, 0, 64, 81
2, 313280, Note_on_c, 0, 52, 81
2, 313283, Note_on_c, 0, 59, 79
2, 313284, Note_on_c, 0, 55, 81
2, 313286, Note_on_c, 0, 45, 76
2, 313287, Note_on_c, 0, 62, 79
2, 313464, Control_c, 0, 64, 127
2, 313713, Note_on_c, 0, 45, 0
2, 313729, Note_on_c, 0, 52, 0
2, 313734, Note_on_c, 0, 55, 0
2, 313761, Note_on_c, 0, 59, 0
2, 313780, Note_on_c, 0, 64, 0
2, 313798, Note_on_c, 0, 62, 0
2, 313918, Control_c, 0, 64, 0
2, 313937, Note_on_c, 0, 52, 56
2, 313946, Note_on_c, 0, 64, 75
2, 313953, Note_on_c, 0, 55, 76
2, 313954, Note_on_c, 0, 45, 59
2, 313955, Note_on_c, 0, 59, 72
2, 313960, Note_on_c, 0, 62, 73
2, 313975, Note_on_c, 0, 52, 0
2, 314036, Note_on_c, 0, 45, 0
2, 314060, Control_c, 0, 64, 127
2, 314313, Control_c, 0, 64, 0
2, 314388, Note_on_c, 0, 62, 0
2, 314393, Note_on_c, 0, 64, 0
2, 314402, Note_on_c, 0, 59, 0
2, 314415, Note_on_c, 0, 44, 93
2, 314416, Note_on_c, 0, 32, 83
2, 314473, Note_on_c, 0, 55, 0
2, 314504, Control_c, 0, 64, 127
2, 314627, Note_on_c, 0, 32, 0
2, 314629, Note_on_c, 0, 44, 0
2, 314747, Control_c, 0, 64, 0
2, 314787, Note_on_c, 0, 43, 74
2, 314788, Note_on_c, 0, 64, 80
2, 314789, Note_on_c, 0, 31, 80
2, 314790, Note_on_c, 0, 57, 88
2, 314792, Note_on_c, 0, 60, 66
2, 314793, Note_on_c, 0, 53, 85
2, 314810, Note_on_c, 0, 41, 44
2, 314812, Note_on_c, 0, 62, 62
2, 314859, Note_on_c, 0, 41, 0
2, 314931, Control_c, 0, 64, 127
2, 314995, Note_on_c, 0, 64, 0
2, 314999, Note_on_c, 0, 53, 0
2, 315011, Note_on_c, 0, 62, 0
2, 315021, Note_on_c, 0, 43, 0
2, 315031, Note_on_c, 0, 31, 0
2, 315042, Note_on_c, 0, 60, 0
2, 315069, Note_on_c, 0, 57, 0
2, 315425, Note_on_c, 0, 41, 81
2, 315439, Note_on_c, 0, 40, 27
2, 315447, Note_on_c, 0, 38, 58
2, 315470, Note_on_c, 0, 43, 30
2, 315476, Note_on_c, 0, 40, 0
2, 315519, Note_on_c, 0, 41, 0
2, 315535, Note_on_c, 0, 38, 0
2, 315544, Note_on_c, 0, 40, 30
2, 315591, Note_on_c, 0, 45, 24
2, 315619, Note_on_c, 0, 43, 0
2, 315651, Note_on_c, 0, 40, 0
2, 315668, Note_on_c, 0, 41, 49
2, 315710, Note_on_c, 0, 47, 25
2, 315749, Note_on_c, 0, 45, 0
2, 315758, Note_on_c, 0, 41, 0
2, 315776, Note_on_c, 0, 43, 43
2, 315814, Note_on_c, 0, 48, 33
2, 315850, Note_on_c, 0, 43, 0
2, 315853, Note_on_c, 0, 47, 0
2, 315876, Note_on_c, 0, 45, 54
2, 315903, Note_on_c, 0, 50, 40
2, 315912, Control_c, 0, 64, 0
2, 315944, Note_on_c, 0, 48, 0
2, 315946, Note_on_c, 0, 45, 0
2, 315972, Control_c, 0, 64, 127
2, 315974, Note_on_c, 0, 47, 51
2, 316008, Note_on_c, 0, 52, 26
2, 316043, Note_on_c, 0, 47, 0
2, 316046, Note_on_c, 0, 50, 0
2, 316065, Note_on_c, 0, 48, 50
2, 316094, Note_on_c, 0, 53, 35
2, 316113, Control_c, 0, 64, 0
2, 316126, Note_on_c, 0, 48, 0
2, 316132, Note_on_c, 0, 52, 0
2, 316147, Note_on_c, 0, 50, 55
2, 316190, Note_on_c, 0, 55, 22
2, 316206, Note_on_c, 0, 50, 0
2, 316225, Control_c, 0, 64, 127
2, 316231, Note_on_c, 0, 53, 0
2, 316243, Note_on_c, 0, 52, 54
2, 316259, Note_on_c, 0, 57, 46
2, 316290, Note_on_c, 0, 52, 0
2, 316309, Note_on_c, 0, 55, 0
2, 316329, Note_on_c, 0, 53, 49
2, 316342, Note_on_c, 0, 59, 42
2, 316375, Note_on_c, 0, 53, 0
2, 316387, Note_on_c, 0, 57, 0
2, 316410, Note_on_c, 0, 55, 63
2, 316420, Note_on_c, 0, 60, 35
2, 316456, Note_on_c, 0, 55, 0
2, 316462, Note_on_c, 0, 59, 0
2, 316489, Note_on_c, 0, 57, 55
2, 316500, Note_on_c, 0, 62, 35
2, 316551, Note_on_c, 0, 60, 0
2, 316553, Note_on_c, 0, 57, 0
2, 316573, Note_on_c, 0, 59, 56
2, 316577, Note_on_c, 0, 64, 29
2, 316617, Note_on_c, 0, 59, 0
2, 316626, Note_on_c, 0, 62, 0
2, 316647, Note_on_c, 0, 65, 44
2, 316648, Note_on_c, 0, 60, 56
2, 316651, Control_c, 0, 64, 0
2, 316681, Note_on_c, 0, 60, 0
2, 316690, Note_on_c, 0, 64, 0
2, 316720, Note_on_c, 0, 62, 62
2, 316729, Note_on_c, 0, 67, 36
2, 316762, Note_on_c, 0, 62, 0
2, 316771, Note_on_c, 0, 65, 0
2, 316797, Note_on_c, 0, 64, 57
2, 316815, Note_on_c, 0, 69, 32
2, 316858, Note_on_c, 0, 67, 0
2, 316865, Note_on_c, 0, 64, 0
2, 316873, Note_on_c, 0, 65, 55
2, 316891, Note_on_c, 0, 71, 35
2, 316932, Note_on_c, 0, 69, 0
2, 316933, Note_on_c, 0, 65, 0
2, 316954, Note_on_c, 0, 67, 57
2, 316977, Note_on_c, 0, 72, 42
2, 316990, Note_on_c, 0, 67, 0
2, 317006, Note_on_c, 0, 71, 0
2, 317035, Note_on_c, 0, 69, 60
2, 317052, Note_on_c, 0, 74, 45
2, 317063, Note_on_c, 0, 72, 0
2, 317090, Note_on_c, 0, 69, 0
2, 317103, Note_on_c, 0, 71, 61
2, 317121, Note_on_c, 0, 76, 38
2, 317146, Note_on_c, 0, 71, 0
2, 317151, Note_on_c, 0, 74, 0
2, 317186, Note_on_c, 0, 72, 56
2, 317203, Note_on_c, 0, 77, 56
2, 317204, Note_on_c, 0, 76, 0
2, 317224, Note_on_c, 0, 72, 0
2, 317262, Note_on_c, 0, 74, 57
2, 317282, Note_on_c, 0, 77, 0
2, 317284, Note_on_c, 0, 79, 53
2, 317315, Note_on_c, 0, 74, 0
2, 317335, Note_on_c, 0, 76, 44
2, 317363, Note_on_c, 0, 79, 0
2, 317369, Note_on_c, 0, 81, 47
2, 317389, Note_on_c, 0, 76, 0
2, 317415, Note_on_c, 0, 77, 53
2, 317437, Note_on_c, 0, 81, 0
2, 317441, Note_on_c, 0, 83, 65
2, 317455, Note_on_c, 0, 77, 0
2, 317494, Note_on_c, 0, 79, 48
2, 317514, Note_on_c, 0, 83, 0
2, 317519, Note_on_c, 0, 84, 65
2, 317534, Note_on_c, 0, 79, 0
2, 317573, Note_on_c, 0, 81, 46
2, 317590, Note_on_c, 0, 84, 0
2, 317601, Note_on_c, 0, 86, 58
2, 317617, Note_on_c, 0, 81, 0
2, 317650, Note_on_c, 0, 83, 54
2, 317662, Note_on_c, 0, 86, 0
2, 317678, Note_on_c, 0, 88, 57
2, 317691, Note_on_c, 0, 83, 0
2, 317712, Note_on_c, 0, 84, 65
2, 317719, Note_on_c, 0, 88, 0
2, 317745, Note_on_c, 0, 89, 60
2, 317751, Note_on_c, 0, 84, 0
2, 317777, Note_on_c, 0, 86, 54
2, 317783, Note_on_c, 0, 89, 0
2, 317815, Note_on_c, 0, 86, 0
2, 317818, Note_on_c, 0, 91, 49
2, 317821, Control_c, 0, 64, 127
2, 317852, Note_on_c, 0, 88, 55
2, 317860, Note_on_c, 0, 91, 0
2, 317885, Note_on_c, 0, 93, 62
2, 317891, Note_on_c, 0, 88, 0
2, 317923, Note_on_c, 0, 89, 53
2, 317924, Note_on_c, 0, 93, 0
2, 317962, Note_on_c, 0, 95, 51
2, 317965, Note_on_c, 0, 89, 0
2, 318005, Note_on_c, 0, 91, 49
2, 318009, Note_on_c, 0, 95, 0
2, 318042, Note_on_c, 0, 96, 50
2, 318045, Note_on_c, 0, 91, 0
2, 318099, Note_on_c, 0, 93, 57
2, 318109, Note_on_c, 0, 96, 0
2, 318137, Note_on_c, 0, 98, 44
2, 318138, Note_on_c, 0, 93, 0
2, 318186, Note_on_c, 0, 98, 0
2, 318189, Note_on_c, 0, 95, 55
2, 318219, Note_on_c, 0, 100, 47
2, 318227, Note_on_c, 0, 95, 0
2, 318251, Note_on_c, 0, 96, 55
2, 318263, Note_on_c, 0, 100, 0
2, 318288, Note_on_c, 0, 101, 48
2, 318289, Note_on_c, 0, 96, 0
2, 318328, Note_on_c, 0, 98, 50
2, 318337, Note_on_c, 0, 101, 0
2, 318363, Note_on_c, 0, 103, 54
2, 318368, Note_on_c, 0, 98, 0
2, 318391, Note_on_c, 0, 100, 44
2, 318401, Note_on_c, 0, 103, 0
2, 318430, Note_on_c, 0, 100, 0
2, 318432, Note_on_c, 0, 105, 50
2, 318454, Note_on_c, 0, 101, 58
2, 318476, Note_on_c, 0, 105, 0
2, 318495, Note_on_c, 0, 107, 69
2, 318496, Note_on_c, 0, 101, 0
2, 318531, Note_on_c, 0, 103, 53
2, 318534, Note_on_c, 0, 107, 0
2, 318589, Note_on_c, 0, 103, 0
2, 318631, Note_on_c, 0, 56, 49
2, 318633, Note_on_c, 0, 63, 40
2, 318637, Note_on_c, 0, 67, 36
2, 318640, Note_on_c, 0, 60, 44
2, 318650, Note_on_c, 0, 105, 30
2, 318720, Control_c, 0, 64, 0
2, 318744, Note_on_c, 0, 105, 0
2, 319407, Control_c, 0, 64, 127
2, 319589, Control_c, 0, 64, 0
2, 319669, Note_on_c, 0, 94, 77
2, 319676, Note_on_c, 0, 87, 71
2, 319897, Note_on_c, 0, 94, 0
2, 319949, Note_on_c, 0, 87, 0
2, 319964, Note_on_c, 0, 82, 42
2, 319969, Note_on_c, 0, 92, 40
2, 320068, Note_on_c, 0, 82, 0
2, 320104, Note_on_c, 0, 92, 0
2, 320152, Note_on_c, 0, 94, 57
2, 320163, Note_on_c, 0, 87, 57
2, 320308, Note_on_c, 0, 87, 0
2, 320309, Note_on_c, 0, 94, 0
2, 320435, Note_on_c, 0, 94, 60
2, 320462, Note_on_c, 0, 87, 44
2, 320533, Note_on_c, 0, 94, 0
2, 320556, Note_on_c, 0, 87, 0
2, 320631, Note_on_c, 0, 92, 55
2, 320643, Note_on_c, 0, 82, 36
2, 320763, Note_on_c, 0, 82, 0
2, 320826, Note_on_c, 0, 56, 0
2, 320828, Note_on_c, 0, 67, 0
2, 320834, Note_on_c, 0, 60, 0
2, 320840, Note_on_c, 0, 63, 0
2, 320868, Note_on_c, 0, 92, 0
2, 321106, Note_on_c, 0, 67, 41
2, 321110, Note_on_c, 0, 63, 33
2, 321110, Note_on_c, 0, 56, 43
2, 321119, Note_on_c, 0, 60, 33
2, 321120, Note_on_c, 0, 94, 61
2, 321127, Note_on_c, 0, 87, 59
2, 321296, Note_on_c, 0, 87, 0
2, 321308, Note_on_c, 0, 94, 0
2, 321336, Note_on_c, 0, 56, 0
2, 321340, Note_on_c, 0, 67, 0
2, 321353, Note_on_c, 0, 60, 0
2, 321359, Note_on_c, 0, 63, 0
2, 321578, Note_on_c, 0, 67, 50
2, 321579, Note_on_c, 0, 63, 40
2, 321588, Note_on_c, 0, 56, 45
2, 321592, Note_on_c, 0, 92, 56
2, 321593, Note_on_c, 0, 60, 40
2, 321594, Note_on_c, 0, 82, 56
2, 321610, Note_on_c, 0, 87, 36
2, 321673, Control_c, 0, 64, 127
2, 321783, Note_on_c, 0, 56, 0
2, 321789, Note_on_c, 0, 92, 0
2, 321796, Note_on_c, 0, 67, 0
2, 321797, Note_on_c, 0, 82, 0
2, 321805, Note_on_c, 0, 60, 0
2, 321821, Note_on_c, 0, 63, 0
2, 321838, Note_on_c, 0, 87, 0
2, 321891, Note_on_c, 0, 94, 59
2, 321896, Control_c, 0, 64, 0
2, 321915, Note_on_c, 0, 87, 25
2, 321956, Note_on_c, 0, 63, 25
2, 321982, Note_on_c, 0, 87, 0
2, 321992, Note_on_c, 0, 94, 0
2, 322010, Note_on_c, 0, 67, 11
2, 322021, Note_on_c, 0, 56, 15
2, 322044, Note_on_c, 0, 60, 3
2, 322067, Control_c, 0, 64, 127
2, 322075, Note_on_c, 0, 94, 25
2, 322086, Note_on_c, 0, 92, 50
2, 322117, Note_on_c, 0, 82, 20
2, 322161, Note_on_c, 0, 67, 0
2, 322196, Note_on_c, 0, 60, 0
2, 322201, Note_on_c, 0, 82, 0
2, 322214, Note_on_c, 0, 94, 0
2, 322250, Note_on_c, 0, 56, 0
2, 322275, Note_on_c, 0, 63, 0
2, 322300, Note_on_c, 0, 92, 0
2, 322339, Control_c, 0, 64, 0
2, 322355, Note_on_c, 0, 95, 64
2, 322363, Note_on_c, 0, 55, 50
2, 322364, Note_on_c, 0, 83, 58
2, 322365, Note_on_c, 0, 62, 64
2, 322367, Note_on_c, 0, 66, 69
2, 322380, Note_on_c, 0, 88, 48
2, 322384, Note_on_c, 0, 59, 55
2, 322543, Control_c, 0, 64, 127
2, 322759, Note_on_c, 0, 88, 0
2, 322763, Note_on_c, 0, 83, 0
2, 322790, Note_on_c, 0, 95, 0
2, 322816, Note_on_c, 0, 59, 0
2, 322843, Note_on_c, 0, 93, 33
2, 322915, Note_on_c, 0, 55, 0
2, 322927, Note_on_c, 0, 66, 0
2, 322937, Note_on_c, 0, 62, 0
2, 322946, Control_c, 0, 64, 0
2, 322958, Note_on_c, 0, 93, 0
2, 323021, Note_on_c, 0, 66, 62
2, 323026, Note_on_c, 0, 55, 50
2, 323031, Note_on_c, 0, 95, 77
2, 323036, Note_on_c, 0, 83, 65
2, 323040, Note_on_c, 0, 62, 58
2, 323043, Note_on_c, 0, 88, 51
2, 323049, Note_on_c, 0, 59, 51
2, 323169, Control_c, 0, 64, 127
2, 323250, Note_on_c, 0, 83, 0
2, 323256, Note_on_c, 0, 95, 0
2, 323260, Note_on_c, 0, 55, 0
2, 323277, Note_on_c, 0, 66, 0
2, 323284, Note_on_c, 0, 88, 0
2, 323300, Note_on_c, 0, 62, 0
2, 323306, Note_on_c, 0, 59, 0
2, 323340, Control_c, 0, 64, 0
2, 323358, Note_on_c, 0, 95, 64
2, 323359, Note_on_c, 0, 66, 57
2, 323368, Note_on_c, 0, 55, 45
2, 323369, Note_on_c, 0, 88, 50
2, 323371, Note_on_c, 0, 83, 57
2, 323380, Note_on_c, 0, 62, 47
2, 323393, Note_on_c, 0, 59, 44
2, 323404, Note_on_c, 0, 91, 37
2, 323471, Note_on_c, 0, 83, 0
2, 323478, Note_on_c, 0, 95, 0
2, 323507, Note_on_c, 0, 55, 0
2, 323515, Note_on_c, 0, 66, 0
2, 323555, Note_on_c, 0, 62, 0
2, 323560, Note_on_c, 0, 91, 0
2, 323561, Note_on_c, 0, 59, 0
2, 323563, Control_c, 0, 64, 127
2, 323564, Note_on_c, 0, 88, 0
2, 323641, Note_on_c, 0, 94, 57
2, 323647, Note_on_c, 0, 66, 57
2, 323650, Note_on_c, 0, 88, 39
2, 323657, Note_on_c, 0, 82, 42
2, 323660, Note_on_c, 0, 62, 48
2, 323665, Note_on_c, 0, 55, 47
2, 323669, Note_on_c, 0, 59, 34
2, 323672, Note_on_c, 0, 91, 27
2, 323818, Note_on_c, 0, 55, 0
2, 323827, Note_on_c, 0, 88, 0
2, 323829, Note_on_c, 0, 91, 0
2, 323837, Note_on_c, 0, 66, 0
2, 323853, Note_on_c, 0, 59, 0
2, 323859, Note_on_c, 0, 62, 0
2, 323869, Note_on_c, 0, 94, 0
2, 323875, Control_c, 0, 64, 0
2, 323880, Note_on_c, 0, 82, 0
2, 323973, Note_on_c, 0, 66, 62
2, 323977, Note_on_c, 0, 62, 50
2, 323979, Note_on_c, 0, 95, 62
2, 323981, Note_on_c, 0, 55, 54
2, 323984, Note_on_c, 0, 88, 54
2, 323992, Note_on_c, 0, 83, 58
2, 323997, Control_c, 0, 64, 127
2, 323998, Note_on_c, 0, 59, 47
2, 324017, Note_on_c, 0, 91, 35
2, 324106, Note_on_c, 0, 83, 0
2, 324112, Note_on_c, 0, 66, 0
2, 324113, Note_on_c, 0, 55, 0
2, 324127, Note_on_c, 0, 91, 0
2, 324128, Note_on_c, 0, 88, 0
2, 324146, Note_on_c, 0, 95, 0
2, 324152, Note_on_c, 0, 59, 0
2, 324161, Note_on_c, 0, 62, 0
2, 324259, Control_c, 0, 64, 0
2, 324308, Note_on_c, 0, 95, 74
2, 324316, Note_on_c, 0, 83, 70
2, 324318, Note_on_c, 0, 88, 66
2, 324321, Note_on_c, 0, 66, 75
2, 324323, Note_on_c, 0, 62, 71
2, 324327, Note_on_c, 0, 91, 56
2, 324329, Note_on_c, 0, 55, 62
2, 324333, Note_on_c, 0, 59, 57
2, 324451, Control_c, 0, 64, 127
2, 324538, Note_on_c, 0, 95, 0
2, 324551, Note_on_c, 0, 83, 0
2, 324580, Note_on_c, 0, 55, 0
2, 324604, Note_on_c, 0, 66, 0
2, 324621, Note_on_c, 0, 91, 0
2, 324625, Note_on_c, 0, 59, 0
2, 324628, Note_on_c, 0, 88, 0
2, 324629, Note_on_c, 0, 62, 0
2, 324764, Note_on_c, 0, 94, 46
2, 324774, Note_on_c, 0, 82, 59
2, 324787, Note_on_c, 0, 62, 60
2, 324788, Note_on_c, 0, 66, 50
2, 324789, Note_on_c, 0, 55, 37
2, 324793, Note_on_c, 0, 88, 36
2, 324816, Note_on_c, 0, 59, 25
2, 324822, Note_on_c, 0, 66, 0
2, 324824, Note_on_c, 0, 62, 0
2, 324833, Note_on_c, 0, 55, 0
2, 324849, Note_on_c, 0, 88, 0
2, 324867, Note_on_c, 0, 82, 0
2, 324868, Note_on_c, 0, 94, 0
2, 324880, Note_on_c, 0, 59, 0
2, 324885, Control_c, 0, 64, 0
2, 324927, Control_c, 0, 64, 127
2, 324937, Note_on_c, 0, 55, 55
2, 324942, Note_on_c, 0, 62, 44
2, 324943, Note_on_c, 0, 66, 71
2, 324946, Note_on_c, 0, 88, 57
2, 324947, Note_on_c, 0, 95, 75
2, 324952, Note_on_c, 0, 59, 41
2, 324953, Note_on_c, 0, 83, 65
2, 324972, Note_on_c, 0, 91, 51
2, 324993, Note_on_c, 0, 93, 34
2, 325114, Note_on_c, 0, 83, 0
2, 325131, Note_on_c, 0, 66, 0
2, 325132, Note_on_c, 0, 95, 0
2, 325138, Note_on_c, 0, 88, 0
2, 325142, Note_on_c, 0, 55, 0
2, 325144, Note_on_c, 0, 93, 0
2, 325147, Note_on_c, 0, 91, 0
2, 325160, Note_on_c, 0, 59, 0
2, 325170, Note_on_c, 0, 62, 0
2, 325230, Control_c, 0, 64, 0
2, 325246, Note_on_c, 0, 95, 68
2, 325257, Note_on_c, 0, 55, 58
2, 325259, Note_on_c, 0, 88, 68
2, 325261, Note_on_c, 0, 62, 63
2, 325264, Note_on_c, 0, 66, 71
2, 325265, Note_on_c, 0, 83, 62
2, 325276, Note_on_c, 0, 91, 51
2, 325278, Note_on_c, 0, 59, 49
2, 325317, Note_on_c, 0, 93, 24
2, 325401, Control_c, 0, 64, 127
2, 325405, Note_on_c, 0, 55, 0
2, 325406, Note_on_c, 0, 66, 0
2, 325409, Note_on_c, 0, 83, 0
2, 325423, Note_on_c, 0, 95, 0
2, 325444, Note_on_c, 0, 88, 0
2, 325449, Note_on_c, 0, 59, 0
2, 325459, Note_on_c, 0, 91, 0
2, 325460, Note_on_c, 0, 62, 0
2, 325461, Note_on_c, 0, 93, 0
2, 325548, Note_on_c, 0, 95, 68
2, 325550, Note_on_c, 0, 62, 60
2, 325552, Note_on_c, 0, 66, 67
2, 325556, Note_on_c, 0, 88, 60
2, 325560, Note_on_c, 0, 59, 44
2, 325561, Note_on_c, 0, 91, 52
2, 325567, Note_on_c, 0, 83, 57
2, 325575, Note_on_c, 0, 55, 39
2, 325608, Note_on_c, 0, 93, 24
2, 325661, Note_on_c, 0, 55, 0
2, 325687, Note_on_c, 0, 66, 0
2, 325712, Note_on_c, 0, 95, 0
2, 325718, Note_on_c, 0, 83, 0
2, 325748, Note_on_c, 0, 88, 0
2, 325754, Note_on_c, 0, 93, 0
2, 325755, Note_on_c, 0, 62, 0
2, 325756, Note_on_c, 0, 59, 0
2, 325768, Note_on_c, 0, 91, 0
2, 325883, Note_on_c, 0, 66, 68
2, 325886, Note_on_c, 0, 55, 64
2, 325892, Note_on_c, 0, 95, 78
2, 325893, Note_on_c, 0, 88, 70
2, 325896, Note_on_c, 0, 62, 51
2, 325898, Note_on_c, 0, 83, 72
2, 325915, Note_on_c, 0, 91, 50
2, 325946, Note_on_c, 0, 93, 28
2, 325951, Note_on_c, 0, 62, 0
2, 325963, Note_on_c, 0, 91, 0
2, 325983, Note_on_c, 0, 83, 0
2, 325996, Note_on_c, 0, 88, 0
2, 326003, Note_on_c, 0, 93, 0
2, 326022, Note_on_c, 0, 66, 0
2, 326043, Note_on_c, 0, 95, 0
2, 326044, Note_on_c, 0, 55, 0
2, 326190, Control_c, 0, 64, 0
2, 326213, Note_on_c, 0, 64, 88
2, 326215, Note_on_c, 0, 56, 79
2, 326216, Note_on_c, 0, 54, 69
2, 326217, Note_on_c, 0, 59, 71
2, 326219, Note_on_c, 0, 95, 85
2, 326220, Note_on_c, 0, 88, 87
2, 326221, Note_on_c, 0, 83, 94
2, 326223, Note_on_c, 0, 92, 80
2, 326233, Note_on_c, 0, 57, 63
2, 326264, Note_on_c, 0, 57, 0
2, 326396, Control_c, 0, 64, 127
2, 326509, Note_on_c, 0, 54, 0
2, 326536, Note_on_c, 0, 56, 0
2, 326549, Note_on_c, 0, 83, 0
2, 326559, Note_on_c, 0, 64, 0
2, 326560, Note_on_c, 0, 59, 0
2, 326562, Note_on_c, 0, 95, 0
2, 326571, Note_on_c, 0, 88, 0
2, 326584, Note_on_c, 0, 92, 0
2, 326651, Note_on_c, 0, 59, 56
2, 326665, Note_on_c, 0, 56, 66
2, 326674, Note_on_c, 0, 54, 46
2, 326715, Note_on_c, 0, 54, 0
2, 326738, Note_on_c, 0, 59, 0
2, 326761, Note_on_c, 0, 56, 0
2, 326780, Control_c, 0, 64, 0
2, 326839, Note_on_c, 0, 59, 62
2, 326842, Control_c, 0, 64, 127
2, 326843, Note_on_c, 0, 56, 71
2, 326845, Note_on_c, 0, 95, 80
2, 326847, Note_on_c, 0, 64, 87
2, 326848, Note_on_c, 0, 88, 77
2, 326849, Note_on_c, 0, 83, 83
2, 326851, Note_on_c, 0, 92, 74
2, 326853, Note_on_c, 0, 54, 73
2, 327042, Note_on_c, 0, 83, 0
2, 327045, Note_on_c, 0, 54, 0
2, 327064, Note_on_c, 0, 88, 0
2, 327068, Note_on_c, 0, 95, 0
2, 327083, Note_on_c, 0, 64, 0
2, 327086, Note_on_c, 0, 56, 0
2, 327088, Note_on_c, 0, 92, 0
2, 327103, Note_on_c, 0, 59, 0
2, 327126, Control_c, 0, 64, 0
2, 327168, Note_on_c, 0, 95, 64
2, 327172, Note_on_c, 0, 88, 72
2, 327173, Note_on_c, 0, 92, 60
2, 327176, Note_on_c, 0, 64, 71
2, 327177, Note_on_c, 0, 56, 60
2, 327178, Note_on_c, 0, 59, 74
2, 327179, Note_on_c, 0, 83, 71
2, 327181, Note_on_c, 0, 54, 66
2, 327303, Control_c, 0, 64, 127
2, 327327, Note_on_c, 0, 83, 0
2, 327340, Note_on_c, 0, 88, 0
2, 327346, Note_on_c, 0, 54, 0
2, 327356, Note_on_c, 0, 92, 0
2, 327359, Note_on_c, 0, 64, 0
2, 327361, Note_on_c, 0, 56, 0
2, 327367, Note_on_c, 0, 95, 0
2, 327386, Note_on_c, 0, 59, 0
2, 327455, Note_on_c, 0, 95, 50
2, 327458, Note_on_c, 0, 59, 70
2, 327459, Note_on_c, 0, 64, 69
2, 327462, Note_on_c, 0, 54, 55
2, 327465, Note_on_c, 0, 88, 64
2, 327468, Note_on_c, 0, 56, 55
2, 327470, Note_on_c, 0, 92, 59
2, 327474, Note_on_c, 0, 83, 64
2, 327624, Note_on_c, 0, 83, 0
2, 327628, Note_on_c, 0, 54, 0
2, 327634, Note_on_c, 0, 88, 0
2, 327644, Note_on_c, 0, 92, 0
2, 327647, Note_on_c, 0, 56, 0
2, 327652, Note_on_c, 0, 64, 0
2, 327660, Note_on_c, 0, 95, 0
2, 327682, Note_on_c, 0, 59, 0
2, 327801, Note_on_c, 0, 59, 41
2, 327807, Note_on_c, 0, 64, 73
2, 327809, Note_on_c, 0, 54, 65
2, 327821, Note_on_c, 0, 95, 61
2, 327822, Note_on_c, 0, 88, 62
2, 327823, Note_on_c, 0, 56, 57
2, 327827, Note_on_c, 0, 83, 64
2, 327828, Note_on_c, 0, 92, 64
2, 327977, Note_on_c, 0, 83, 0
2, 327978, Note_on_c, 0, 64, 0
2, 328001, Note_on_c, 0, 59, 0
2, 328003, Note_on_c, 0, 54, 0
2, 328009, Note_on_c, 0, 88, 0
2, 328014, Note_on_c, 0, 56, 0
2, 328015, Note_on_c, 0, 92, 0
2, 328081, Note_on_c, 0, 95, 0
2, 329091, Control_c, 0, 64, 0
2, 329094, Note_on_c, 0, 98, 77
2, 329104, Note_on_c, 0, 86, 73
2, 329105, Note_on_c, 0, 91, 66
2, 329109, Note_on_c, 0, 62, 95
2, 329113, Note_on_c, 0, 55, 75
2, 329115, Note_on_c, 0, 53, 78
2, 329116, Note_on_c, 0, 59, 77
2, 329128, Note_on_c, 0, 94, 27
2, 329141, Note_on_c, 0, 95, 43
2, 329161, Note_on_c, 0, 94, 0
2, 329187, Note_on_c, 0, 95, 0
2, 329334, Control_c, 0, 64, 127
2, 329335, Note_on_c, 0, 86, 0
2, 329336, Note_on_c, 0, 53, 0
2, 329341, Note_on_c, 0, 62, 0
2, 329345, Note_on_c, 0, 91, 0
2, 329353, Note_on_c, 0, 98, 0
2, 329353, Note_on_c, 0, 55, 0
2, 329376, Note_on_c, 0, 59, 0
2, 329424, Note_on_c, 0, 98, 58
2, 329428, Note_on_c, 0, 91, 69
2, 329433, Note_on_c, 0, 62, 72
2, 329434, Note_on_c, 0, 55, 54
2, 329436, Note_on_c, 0, 86, 61
2, 329436, Note_on_c, 0, 59, 71
2, 329437, Note_on_c, 0, 53, 63
2, 329453, Note_on_c, 0, 95, 47
2, 329628, Note_on_c, 0, 91, 0
2, 329637, Note_on_c, 0, 86, 0
2, 329642, Note_on_c, 0, 53, 0
2, 329643, Note_on_c, 0, 98, 0
2, 329644, Note_on_c, 0, 62, 0
2, 329645, Note_on_c, 0, 95, 0
2, 329673, Note_on_c, 0, 55, 0
2, 329707, Note_on_c, 0, 59, 0
2, 329769, Note_on_c, 0, 53, 66
2, 329774, Note_on_c, 0, 62, 74
2, 329777, Note_on_c, 0, 59, 65
2, 329781, Note_on_c, 0, 98, 74
2, 329786, Note_on_c, 0, 86, 71
2, 329787, Note_on_c, 0, 55, 52
2, 329789, Note_on_c, 0, 91, 71
2, 329809, Note_on_c, 0, 95, 54
2, 329829, Note_on_c, 0, 96, 35
2, 329924, Note_on_c, 0, 59, 0
2, 329926, Note_on_c, 0, 91, 0
2, 329963, Note_on_c, 0, 95, 0
2, 329965, Note_on_c, 0, 86, 0
2, 329973, Note_on_c, 0, 62, 0
2, 329993, Note_on_c, 0, 53, 0
2, 329999, Note_on_c, 0, 98, 0
2, 330000, Note_on_c, 0, 96, 0
2, 330005, Note_on_c, 0, 55, 0
2, 330117, Control_c, 0, 64, 0
2, 330120, Note_on_c, 0, 93, 84
2, 330121, Note_on_c, 0, 98, 79
2, 330122, Note_on_c, 0, 86, 84
2, 330124, Note_on_c, 0, 52, 88
2, 330125, Note_on_c, 0, 62, 99
2, 330132, Note_on_c, 0, 90, 53
2, 330134, Note_on_c, 0, 57, 88
2, 330147, Note_on_c, 0, 91, 60
2, 330151, Note_on_c, 0, 89, 63
2, 330190, Note_on_c, 0, 89, 0
2, 330207, Note_on_c, 0, 91, 0
2, 330540, Note_on_c, 0, 90, 0
2, 330632, Control_c, 0, 64, 127
2, 330726, Note_on_c, 0, 98, 0
2, 330763, Note_on_c, 0, 93, 0
2, 330780, Note_on_c, 0, 86, 0
2, 330834, Note_on_c, 0, 52, 0
2, 330854, Note_on_c, 0, 57, 0
2, 330888, Note_on_c, 0, 62, 0
2, 331219, Control_c, 0, 64, 0
2, 331230, Note_on_c, 0, 81, 67
2, 331233, Note_on_c, 0, 71, 73
2, 331233, Note_on_c, 0, 69, 71
2, 331236, Note_on_c, 0, 78, 53
2, 331244, Note_on_c, 0, 74, 65
2, 331331, Note_on_c, 0, 69, 0
2, 331353, Note_on_c, 0, 74, 0
2, 331362, Note_on_c, 0, 71, 0
2, 331364, Note_on_c, 0, 78, 0
2, 331377, Note_on_c, 0, 81, 0
2, 331682, Note_on_c, 0, 78, 56
2, 331713, Note_on_c, 0, 64, 48
2, 331719, Note_on_c, 0, 71, 38
2, 331804, Note_on_c, 0, 78, 0
2, 331817, Note_on_c, 0, 64, 0
2, 331829, Note_on_c, 0, 71, 0
2, 332137, Note_on_c, 0, 62, 43
2, 332153, Note_on_c, 0, 71, 44
2, 332163, Note_on_c, 0, 66, 25
2, 332164, Note_on_c, 0, 75, 20
2, 332174, Note_on_c, 0, 76, 24
2, 332215, Note_on_c, 0, 76, 0
2, 332240, Note_on_c, 0, 62, 0
2, 332250, Note_on_c, 0, 71, 0
2, 332266, Note_on_c, 0, 75, 0
2, 332298, Note_on_c, 0, 66, 0
2, 332616, Note_on_c, 0, 71, 39
2, 332619, Note_on_c, 0, 59, 36
2, 332631, Note_on_c, 0, 66, 33
2, 332653, Note_on_c, 0, 64, 36
2, 332697, Note_on_c, 0, 71, 0
2, 332711, Note_on_c, 0, 64, 0
2, 332714, Note_on_c, 0, 66, 0
2, 332896, Note_on_c, 0, 59, 0
2, 333080, Note_on_c, 0, 60, 34
2, 333084, Note_on_c, 0, 54, 37
2, 333086, Note_on_c, 0, 69, 36
2, 333090, Note_on_c, 0, 64, 46
2, 333174, Note_on_c, 0, 60, 0
2, 333228, Note_on_c, 0, 64, 0
2, 333254, Note_on_c, 0, 54, 0
2, 333287, Note_on_c, 0, 69, 0
2, 333572, Note_on_c, 0, 59, 44
2, 333573, Note_on_c, 0, 64, 54
2, 333594, Note_on_c, 0, 49, 30
2, 333614, Note_on_c, 0, 53, 25
2, 333698, Note_on_c, 0, 64, 0
2, 333724, Note_on_c, 0, 53, 0
2, 333748, Note_on_c, 0, 59, 0
2, 333835, Control_c, 0, 64, 127
2, 333854, Note_on_c, 0, 49, 0
2, 333987, Control_c, 0, 64, 0
2, 334071, Note_on_c, 0, 57, 38
2, 334076, Note_on_c, 0, 59, 32
2, 334094, Note_on_c, 0, 52, 33
2, 334107, Note_on_c, 0, 48, 19
2, 334270, Control_c, 0, 64, 127
2, 334364, Note_on_c, 0, 52, 0
2, 334433, Note_on_c, 0, 48, 0
2, 334740, Note_on_c, 0, 59, 0
2, 334801, Note_on_c, 0, 57, 0
2, 334834, Note_on_c, 0, 36, 33
2, 334952, Note_on_c, 0, 43, 30
2, 334985, Note_on_c, 0, 36, 0
2, 335048, Control_c, 0, 64, 0
2, 335327, Note_on_c, 0, 50, 45
2, 335568, Note_on_c, 0, 50, 0
2, 335706, Note_on_c, 0, 62, 54
2, 335784, Note_on_c, 0, 62, 0
2, 335841, Note_on_c, 0, 66, 83
2, 335958, Note_on_c, 0, 66, 0
2, 336009, Note_on_c, 0, 67, 79
2, 336156, Note_on_c, 0, 67, 0
2, 336157, Note_on_c, 0, 66, 65
2, 336317, Note_on_c, 0, 62, 70
2, 336326, Note_on_c, 0, 66, 0
2, 336412, Note_on_c, 0, 62, 0
2, 336468, Note_on_c, 0, 57, 41
2, 336574, Note_on_c, 0, 57, 0
2, 336620, Note_on_c, 0, 54, 37
2, 336686, Note_on_c, 0, 43, 0
2, 336769, Note_on_c, 0, 54, 0
2, 336787, Note_on_c, 0, 50, 53
2, 336809, Note_on_c, 0, 43, 26
2, 336872, Note_on_c, 0, 50, 0
2, 336945, Note_on_c, 0, 52, 39
2, 336978, Note_on_c, 0, 43, 0
2, 337074, Note_on_c, 0, 52, 0
2, 337127, Note_on_c, 0, 54, 43
2, 337218, Note_on_c, 0, 54, 0
2, 337268, Note_on_c, 0, 53, 55
2, 337288, Note_on_c, 0, 50, 61
2, 337378, Note_on_c, 0, 53, 0
2, 337509, Note_on_c, 0, 50, 0
2, 337676, Note_on_c, 0, 55, 34
2, 337713, Note_on_c, 0, 57, 58
2, 337751, Note_on_c, 0, 55, 0
2, 337836, Note_on_c, 0, 58, 79
2, 337889, Note_on_c, 0, 57, 0
2, 337947, Note_on_c, 0, 58, 0
2, 337950, Note_on_c, 0, 59, 64
2, 337971, Note_on_c, 0, 45, 62
2, 338318, Note_on_c, 0, 52, 28
2, 338382, Note_on_c, 0, 52, 0
2, 338393, Note_on_c, 0, 55, 60
2, 338488, Note_on_c, 0, 45, 0
2, 338548, Note_on_c, 0, 55, 0
2, 338708, Note_on_c, 0, 59, 0
2, 338712, Note_on_c, 0, 52, 38
2, 338731, Note_on_c, 0, 55, 40
2, 338778, Note_on_c, 0, 52, 0
2, 338786, Note_on_c, 0, 55, 0
2, 338847, Note_on_c, 0, 47, 52
2, 338876, Note_on_c, 0, 57, 74
2, 339237, Note_on_c, 0, 47, 0
2, 339351, Note_on_c, 0, 54, 47
2, 339665, Note_on_c, 0, 47, 36
2, 339734, Note_on_c, 0, 57, 0
2, 339745, Note_on_c, 0, 54, 0
2, 339799, Note_on_c, 0, 47, 0
2, 339816, Note_on_c, 0, 48, 53
2, 339822, Note_on_c, 0, 55, 44
2, 340256, Note_on_c, 0, 48, 0
2, 340277, Note_on_c, 0, 55, 0
2, 340304, Note_on_c, 0, 52, 36
2, 340388, Note_on_c, 0, 52, 0
2, 340606, Note_on_c, 0, 41, 48
2, 340745, Note_on_c, 0, 48, 18
2, 340751, Note_on_c, 0, 41, 0
2, 340785, Note_on_c, 0, 57, 58
2, 340995, Note_on_c, 0, 48, 0
2, 341028, Note_on_c, 0, 57, 0
2, 341112, Note_on_c, 0, 71, 66
2, 341113, Note_on_c, 0, 67, 68
2, 341139, Note_on_c, 0, 57, 44
2, 341269, Note_on_c, 0, 57, 0
2, 341277, Note_on_c, 0, 67, 0
2, 341289, Note_on_c, 0, 63, 46
2, 341292, Note_on_c, 0, 71, 0
2, 341362, Note_on_c, 0, 63, 0
2, 341610, Note_on_c, 0, 40, 16
2, 341721, Note_on_c, 0, 52, 36
2, 341727, Note_on_c, 0, 64, 47
2, 341730, Note_on_c, 0, 57, 44
2, 341746, Note_on_c, 0, 62, 48
2, 341884, Note_on_c, 0, 52, 0
2, 341911, Note_on_c, 0, 57, 0
2, 341927, Note_on_c, 0, 62, 0
2, 341963, Note_on_c, 0, 64, 0
2, 341980, Note_on_c, 0, 40, 0
2, 342021, Note_on_c, 0, 47, 36
2, 342169, Note_on_c, 0, 47, 0
2, 342205, Note_on_c, 0, 52, 40
2, 342216, Note_on_c, 0, 64, 53
2, 342217, Note_on_c, 0, 57, 49
2, 342232, Note_on_c, 0, 62, 49
2, 342415, Note_on_c, 0, 52, 0
2, 342416, Note_on_c, 0, 57, 0
2, 342441, Note_on_c, 0, 62, 0
2, 342462, Note_on_c, 0, 64, 0
2, 342551, Note_on_c, 0, 47, 33
2, 342684, Note_on_c, 0, 64, 49
2, 342685, Note_on_c, 0, 47, 0
2, 342686, Note_on_c, 0, 52, 38
2, 342687, Note_on_c, 0, 57, 45
2, 342709, Note_on_c, 0, 62, 45
2, 342886, Note_on_c, 0, 57, 0
2, 342898, Note_on_c, 0, 62, 0
2, 342899, Note_on_c, 0, 64, 0
2, 342902, Note_on_c, 0, 52, 0
2, 343532, Note_on_c, 0, 47, 44
2, 343637, Note_on_c, 0, 57, 45
2, 343642, Note_on_c, 0, 47, 0
2, 343647, Note_on_c, 0, 64, 48
2, 343656, Note_on_c, 0, 62, 44
2, 343663, Note_on_c, 0, 52, 44
2, 343816, Note_on_c, 0, 57, 0
2, 343842, Note_on_c, 0, 62, 0
2, 343843, Note_on_c, 0, 52, 0
2, 343856, Note_on_c, 0, 64, 0
2, 343954, Note_on_c, 0, 66, 68
2, 343964, Note_on_c, 0, 53, 47
2, 343966, Note_on_c, 0, 57, 60
2, 343972, Note_on_c, 0, 62, 62
2, 344047, Note_on_c, 0, 57, 0
2, 344053, Note_on_c, 0, 62, 0
2, 344072, Note_on_c, 0, 53, 0
2, 344074, Note_on_c, 0, 66, 0
2, 344119, Note_on_c, 0, 52, 32
2, 344272, Note_on_c, 0, 52, 0
2, 344477, Note_on_c, 0, 47, 50
2, 344522, Note_on_c, 0, 47, 0
2, 344618, Note_on_c, 0, 57, 59
2, 344623, Note_on_c, 0, 64, 63
2, 344630, Note_on_c, 0, 62, 55
2, 344813, Note_on_c, 0, 57, 0
2, 344875, Note_on_c, 0, 62, 0
2, 344917, Note_on_c, 0, 64, 0
2, 344963, Note_on_c, 0, 38, 70
2, 345506, Note_on_c, 0, 38, 0
2, 345634, Note_on_c, 0, 57, 61
2, 345639, Note_on_c, 0, 62, 57
2, 345656, Note_on_c, 0, 78, 87
2, 345661, Note_on_c, 0, 57, 0
2, 345663, Note_on_c, 0, 62, 0
2, 345946, Note_on_c, 0, 78, 0
2, 345982, Note_on_c, 0, 79, 66
2, 346095, Note_on_c, 0, 79, 0
2, 346164, Note_on_c, 0, 78, 42
2, 346379, Note_on_c, 0, 78, 0
2, 346450, Note_on_c, 0, 76, 66
2, 346451, Note_on_c, 0, 62, 55
2, 346453, Note_on_c, 0, 57, 53
2, 346486, Note_on_c, 0, 62, 0
2, 346501, Note_on_c, 0, 57, 0
2, 346573, Note_on_c, 0, 76, 0
2, 346649, Note_on_c, 0, 71, 42
2, 346932, Note_on_c, 0, 71, 0
2, 347057, Note_on_c, 0, 71, 37
2, 347063, Control_c, 0, 64, 127
2, 347136, Control_c, 0, 64, 0
2, 347356, Note_on_c, 0, 71, 0
2, 347527, Note_on_c, 0, 69, 26
2, 347774, Note_on_c, 0, 69, 0
2, 347971, Note_on_c, 0, 67, 39
2, 348280, Note_on_c, 0, 67, 0
2, 348430, Note_on_c, 0, 62, 28
2, 348432, Note_on_c, 0, 57, 37
2, 348449, Note_on_c, 0, 66, 47
2, 348482, Control_c, 0, 64, 127
2, 348483, Note_on_c, 0, 57, 0
2, 348510, Note_on_c, 0, 62, 0
2, 348785, Control_c, 0, 64, 0
2, 348803, Note_on_c, 0, 66, 0
2, 348807, Note_on_c, 0, 53, 47
2, 348811, Note_on_c, 0, 63, 44
2, 348824, Note_on_c, 0, 59, 36
2, 349122, Note_on_c, 0, 59, 0
2, 349264, Note_on_c, 0, 53, 0
2, 349310, Note_on_c, 0, 63, 0
2, 349390, Note_on_c, 0, 62, 52
2, 349399, Note_on_c, 0, 52, 40
2, 349428, Note_on_c, 0, 57, 44
2, 349900, Note_on_c, 0, 69, 24
2, 349927, Note_on_c, 0, 57, 0
2, 349984, Note_on_c, 0, 62, 0
2, 349996, Note_on_c, 0, 70, 51
2, 350069, Note_on_c, 0, 69, 0
2, 350079, Note_on_c, 0, 70, 0
2, 350100, Note_on_c, 0, 71, 37
2, 350219, Note_on_c, 0, 71, 0
2, 350275, Note_on_c, 0, 62, 50
2, 350277, Note_on_c, 0, 74, 84
2, 350316, Note_on_c, 0, 62, 0
2, 350475, Note_on_c, 0, 74, 0
2, 350505, Note_on_c, 0, 69, 32
2, 350564, Note_on_c, 0, 70, 36
2, 350690, Note_on_c, 0, 70, 0
2, 350706, Note_on_c, 0, 71, 37
2, 350787, Note_on_c, 0, 69, 0
2, 350805, Note_on_c, 0, 71, 0
2, 350892, Note_on_c, 0, 64, 57
2, 351099, Note_on_c, 0, 64, 0
2, 351357, Note_on_c, 0, 52, 0
2, 351393, Note_on_c, 0, 69, 60
2, 351461, Note_on_c, 0, 70, 34
2, 351577, Note_on_c, 0, 71, 55
2, 351597, Note_on_c, 0, 70, 0
2, 351649, Note_on_c, 0, 69, 0
2, 351672, Note_on_c, 0, 71, 0
2, 351706, Note_on_c, 0, 74, 80
2, 351742, Note_on_c, 0, 62, 32
2, 351767, Note_on_c, 0, 57, 30
2, 351781, Note_on_c, 0, 62, 0
2, 351834, Note_on_c, 0, 57, 0
2, 351851, Note_on_c, 0, 74, 0
2, 351927, Note_on_c, 0, 70, 58
2, 352005, Note_on_c, 0, 69, 57
2, 352099, Note_on_c, 0, 69, 0
2, 352103, Note_on_c, 0, 71, 58
2, 352118, Note_on_c, 0, 70, 0
2, 352223, Note_on_c, 0, 71, 0
2, 352310, Note_on_c, 0, 67, 55
2, 352521, Note_on_c, 0, 67, 0
2, 352621, Note_on_c, 0, 69, 62
2, 352650, Note_on_c, 0, 70, 69
2, 352756, Note_on_c, 0, 71, 64
2, 352765, Note_on_c, 0, 70, 0
2, 352865, Note_on_c, 0, 69, 0
2, 352911, Note_on_c, 0, 71, 0
2, 352978, Note_on_c, 0, 74, 82
2, 353152, Note_on_c, 0, 64, 51
2, 353181, Note_on_c, 0, 60, 22
2, 353230, Note_on_c, 0, 64, 0
2, 353253, Note_on_c, 0, 57, 15
2, 353280, Note_on_c, 0, 69, 39
2, 353287, Note_on_c, 0, 60, 0
2, 353320, Note_on_c, 0, 70, 59
2, 353339, Note_on_c, 0, 74, 0
2, 353362, Note_on_c, 0, 57, 0
2, 353409, Note_on_c, 0, 70, 0
2, 353415, Note_on_c, 0, 71, 53
2, 353593, Note_on_c, 0, 69, 0
2, 353600, Note_on_c, 0, 71, 0
2, 353655, Note_on_c, 0, 67, 49
2, 353919, Note_on_c, 0, 67, 0
2, 354008, Note_on_c, 0, 57, 54
2, 354011, Note_on_c, 0, 69, 67
2, 354012, Note_on_c, 0, 47, 44
2, 354134, Note_on_c, 0, 47, 0
2, 354141, Note_on_c, 0, 57, 0
2, 354292, Note_on_c, 0, 69, 0
2, 354334, Note_on_c, 0, 66, 52
2, 354598, Note_on_c, 0, 55, 25
2, 354676, Note_on_c, 0, 66, 0
2, 354682, Note_on_c, 0, 62, 40
2, 354747, Control_c, 0, 64, 127
2, 354910, Note_on_c, 0, 55, 0
2, 354941, Note_on_c, 0, 62, 0
2, 354987, Control_c, 0, 64, 0
2, 355029, Note_on_c, 0, 59, 34
2, 355030, Note_on_c, 0, 64, 55
2, 355038, Note_on_c, 0, 55, 10
2, 355040, Note_on_c, 0, 66, 44
2, 355078, Note_on_c, 0, 48, 28
2, 355209, Note_on_c, 0, 59, 0
2, 355210, Note_on_c, 0, 55, 0
2, 355247, Control_c, 0, 64, 127
2, 355267, Note_on_c, 0, 48, 0
2, 355435, Note_on_c, 0, 64, 0
2, 355453, Note_on_c, 0, 66, 0
2, 356082, Control_c, 0, 64, 0
2, 356149, Note_on_c, 0, 63, 44
2, 356161, Note_on_c, 0, 57, 34
2, 356163, Note_on_c, 0, 71, 42
2, 356166, Note_on_c, 0, 48, 35
2, 356167, Note_on_c, 0, 41, 19
2, 356174, Note_on_c, 0, 67, 44
2, 356231, Control_c, 0, 64, 127
2, 356523, Note_on_c, 0, 41, 0
2, 356559, Note_on_c, 0, 48, 0
2, 356616, Note_on_c, 0, 63, 0
2, 356625, Note_on_c, 0, 67, 0
2, 356642, Note_on_c, 0, 57, 0
2, 356689, Note_on_c, 0, 71, 0
2, 357072, Note_on_c, 0, 78, 56
2, 357086, Control_c, 0, 64, 0
2, 357128, Note_on_c, 0, 74, 59
2, 357134, Note_on_c, 0, 62, 36
2, 357147, Note_on_c, 0, 57, 36
2, 357153, Note_on_c, 0, 52, 24
2, 357194, Note_on_c, 0, 69, 24
2, 357537, Note_on_c, 0, 69, 0
2, 357576, Note_on_c, 0, 74, 0
2, 357577, Note_on_c, 0, 78, 0
2, 357584, Control_c, 0, 64, 127
2, 357595, Note_on_c, 0, 57, 0
2, 357606, Note_on_c, 0, 81, 57
2, 357617, Note_on_c, 0, 52, 0
2, 357668, Note_on_c, 0, 62, 0
2, 357850, Note_on_c, 0, 81, 0
2, 357919, Control_c, 0, 64, 0
2, 357936, Note_on_c, 0, 79, 66
2, 357959, Note_on_c, 0, 76, 58
2, 357960, Note_on_c, 0, 64, 38
2, 357968, Note_on_c, 0, 71, 50
2, 357970, Note_on_c, 0, 59, 40
2, 357971, Note_on_c, 0, 54, 33
2, 358278, Note_on_c, 0, 79, 0
2, 358315, Control_c, 0, 64, 127
2, 358323, Note_on_c, 0, 76, 0
2, 358353, Note_on_c, 0, 71, 0
2, 358356, Note_on_c, 0, 59, 0
2, 358378, Note_on_c, 0, 64, 0
2, 358411, Note_on_c, 0, 78, 62
2, 358462, Note_on_c, 0, 54, 0
2, 358566, Control_c, 0, 64, 0
2, 358596, Note_on_c, 0, 78, 0
2, 358667, Note_on_c, 0, 62, 51
2, 358668, Note_on_c, 0, 74, 58
2, 358672, Note_on_c, 0, 76, 27
2, 358676, Note_on_c, 0, 69, 43
2, 358677, Note_on_c, 0, 57, 44
2, 358681, Note_on_c, 0, 52, 30
2, 358762, Control_c, 0, 64, 127
2, 358899, Note_on_c, 0, 69, 0
2, 358948, Note_on_c, 0, 57, 0
2, 358983, Note_on_c, 0, 74, 0
2, 358985, Note_on_c, 0, 52, 0
2, 358986, Note_on_c, 0, 76, 0
2, 359044, Note_on_c, 0, 69, 28
2, 359071, Note_on_c, 0, 62, 0
2, 359149, Note_on_c, 0, 69, 0
2, 359326, Control_c, 0, 64, 0
2, 359376, Note_on_c, 0, 64, 47
2, 359384, Note_on_c, 0, 54, 36
2, 359389, Note_on_c, 0, 69, 30
2, 359407, Note_on_c, 0, 59, 39
2, 359586, Control_c, 0, 64, 127
2, 359720, Note_on_c, 0, 64, 0
2, 359813, Note_on_c, 0, 69, 0
2, 359937, Note_on_c, 0, 64, 53
2, 359978, Note_on_c, 0, 54, 0
2, 360057, Control_c, 0, 64, 0
2, 360058, Note_on_c, 0, 59, 0
2, 360102, Note_on_c, 0, 64, 0
2, 360247, Note_on_c, 0, 66, 75
2, 360363, Note_on_c, 0, 66, 0
2, 360426, Note_on_c, 0, 67, 92
2, 360648, Note_on_c, 0, 67, 0
2, 360715, Note_on_c, 0, 69, 85
2, 360744, Note_on_c, 0, 67, 39
2, 360776, Note_on_c, 0, 62, 50
2, 360780, Note_on_c, 0, 57, 42
2, 360788, Note_on_c, 0, 67, 0
2, 360797, Note_on_c, 0, 52, 27
2, 360829, Note_on_c, 0, 62, 0
2, 360848, Note_on_c, 0, 57, 0
2, 360853, Note_on_c, 0, 52, 0
2, 360878, Note_on_c, 0, 69, 0
2, 360936, Note_on_c, 0, 67, 61
2, 361232, Note_on_c, 0, 67, 0
2, 361236, Note_on_c, 0, 66, 53
2, 361401, Note_on_c, 0, 66, 0
2, 361429, Note_on_c, 0, 64, 34
2, 361744, Note_on_c, 0, 64, 0
2, 361886, Note_on_c, 0, 64, 47
2, 362186, Note_on_c, 0, 64, 0
2, 362188, Note_on_c, 0, 66, 67
2, 362305, Note_on_c, 0, 66, 0
2, 362371, Note_on_c, 0, 67, 89
2, 362592, Note_on_c, 0, 67, 0
2, 362653, Note_on_c, 0, 69, 84
2, 362709, Note_on_c, 0, 62, 43
2, 362729, Note_on_c, 0, 57, 35
2, 362745, Note_on_c, 0, 62, 0
2, 362817, Note_on_c, 0, 69, 0
2, 362826, Note_on_c, 0, 57, 0
2, 362867, Note_on_c, 0, 67, 62
2, 362875, Note_on_c, 0, 69, 44
2, 363023, Note_on_c, 0, 69, 0
2, 363079, Note_on_c, 0, 67, 0
2, 363145, Note_on_c, 0, 69, 39
2, 363147, Note_on_c, 0, 66, 67
2, 363282, Note_on_c, 0, 69, 0
2, 363334, Note_on_c, 0, 64, 52
2, 363440, Note_on_c, 0, 66, 0
2, 363619, Note_on_c, 0, 64, 0
2, 363801, Note_on_c, 0, 59, 42
2, 363812, Note_on_c, 0, 66, 69
2, 363821, Note_on_c, 0, 49, 30
2, 363831, Note_on_c, 0, 53, 44
2, 364074, Note_on_c, 0, 66, 0
2, 364123, Note_on_c, 0, 67, 77
2, 364304, Note_on_c, 0, 67, 0
2, 364337, Note_on_c, 0, 69, 81
2, 364358, Note_on_c, 0, 67, 43
2, 364401, Note_on_c, 0, 67, 0
2, 364424, Note_on_c, 0, 59, 0
2, 364462, Note_on_c, 0, 53, 0
2, 364467, Control_c, 0, 64, 127
2, 364550, Note_on_c, 0, 49, 0
2, 364581, Control_c, 0, 64, 0
2, 364590, Note_on_c, 0, 69, 0
2, 364633, Note_on_c, 0, 67, 68
2, 364654, Note_on_c, 0, 55, 40
2, 364663, Note_on_c, 0, 48, 53
2, 364815, Note_on_c, 0, 67, 0
2, 364945, Note_on_c, 0, 66, 69
2, 364958, Note_on_c, 0, 67, 70
2, 364979, Note_on_c, 0, 55, 0
2, 365163, Note_on_c, 0, 67, 0
2, 365185, Note_on_c, 0, 66, 0
2, 365271, Note_on_c, 0, 64, 50
2, 365291, Control_c, 0, 64, 127
2, 365395, Note_on_c, 0, 48, 0
2, 365478, Note_on_c, 0, 64, 0
2, 365510, Control_c, 0, 64, 0
2, 365573, Note_on_c, 0, 62, 65
2, 365621, Note_on_c, 0, 55, 19
2, 365742, Note_on_c, 0, 55, 0
2, 365745, Note_on_c, 0, 62, 0
2, 365863, Note_on_c, 0, 59, 27
2, 366107, Note_on_c, 0, 59, 0
2, 366207, Control_c, 0, 64, 127
2, 366222, Note_on_c, 0, 59, 31
2, 366445, Control_c, 0, 64, 0
2, 366470, Note_on_c, 0, 59, 0
2, 366540, Note_on_c, 0, 59, 29
2, 366978, Note_on_c, 0, 59, 0
2, 366992, Note_on_c, 0, 57, 53
2, 367133, Note_on_c, 0, 57, 0
2, 367197, Note_on_c, 0, 55, 33
2, 367420, Note_on_c, 0, 55, 0
2, 367475, Note_on_c, 0, 55, 47
2, 367554, Note_on_c, 0, 55, 0
2, 368145, Control_c, 0, 64, 127
2, 368577, Note_on_c, 0, 64, 35
2, 368596, Note_on_c, 0, 71, 51
2, 368599, Note_on_c, 0, 83, 53
2, 368601, Note_on_c, 0, 60, 26
2, 368602, Note_on_c, 0, 76, 45
2, 368610, Note_on_c, 0, 57, 30
2, 368622, Note_on_c, 0, 59, 30
2, 368828, Note_on_c, 0, 76, 0
2, 368830, Note_on_c, 0, 59, 0
2, 368833, Note_on_c, 0, 71, 0
2, 368834, Note_on_c, 0, 64, 0
2, 368850, Note_on_c, 0, 57, 0
2, 368851, Note_on_c, 0, 60, 0
2, 368855, Note_on_c, 0, 83, 0
2, 369057, Note_on_c, 0, 84, 82
2, 369062, Note_on_c, 0, 72, 77
2, 369063, Note_on_c, 0, 64, 71
2, 369068, Note_on_c, 0, 60, 47
2, 369071, Note_on_c, 0, 57, 62
2, 369083, Note_on_c, 0, 59, 47
2, 369223, Note_on_c, 0, 59, 0
2, 369234, Note_on_c, 0, 60, 0
2, 369239, Note_on_c, 0, 57, 0
2, 369270, Note_on_c, 0, 64, 0
2, 369324, Note_on_c, 0, 72, 0
2, 369328, Note_on_c, 0, 84, 0
2, 369533, Control_c, 0, 64, 0
2, 369557, Note_on_c, 0, 86, 84
2, 369560, Note_on_c, 0, 74, 91
2, 369563, Note_on_c, 0, 81, 80
2, 369576, Note_on_c, 0, 57, 73
2, 369583, Note_on_c, 0, 66, 74
2, 369584, Note_on_c, 0, 62, 74
2, 369709, Control_c, 0, 64, 127
2, 370045, Note_on_c, 0, 62, 0
2, 370085, Note_on_c, 0, 57, 0
2, 370119, Note_on_c, 0, 74, 0
2, 370120, Note_on_c, 0, 66, 0
2, 370175, Note_on_c, 0, 81, 0
2, 370207, Note_on_c, 0, 86, 0
2, 370501, Control_c, 0, 64, 0
2, 370532, Note_on_c, 0, 63, 78
2, 370534, Note_on_c, 0, 67, 87
2, 370536, Note_on_c, 0, 62, 84
2, 370542, Note_on_c, 0, 91, 90
2, 370545, Note_on_c, 0, 86, 83
2, 370546, Note_on_c, 0, 79, 91
2, 370547, Note_on_c, 0, 57, 78
2, 370577, Note_on_c, 0, 89, 35
2, 370625, Note_on_c, 0, 89, 0
2, 370657, Control_c, 0, 64, 127
2, 370901, Note_on_c, 0, 79, 0
2, 370920, Note_on_c, 0, 91, 0
2, 370924, Note_on_c, 0, 57, 0
2, 370957, Note_on_c, 0, 67, 0
2, 370969, Note_on_c, 0, 86, 0
2, 370982, Note_on_c, 0, 62, 0
2, 370986, Note_on_c, 0, 63, 0
2, 371022, Note_on_c, 0, 63, 34
2, 371027, Note_on_c, 0, 67, 72
2, 371035, Note_on_c, 0, 62, 30
2, 371037, Note_on_c, 0, 57, 58
2, 371038, Note_on_c, 0, 93, 89
2, 371039, Note_on_c, 0, 86, 65
2, 371041, Note_on_c, 0, 81, 76
2, 371180, Note_on_c, 0, 86, 0
2, 371192, Note_on_c, 0, 81, 0
2, 371210, Note_on_c, 0, 62, 0
2, 371233, Note_on_c, 0, 93, 0
2, 371245, Note_on_c, 0, 57, 0
2, 371248, Note_on_c, 0, 67, 0
2, 371264, Note_on_c, 0, 63, 0
2, 371493, Control_c, 0, 64, 0
2, 371541, Note_on_c, 0, 67, 78
2, 371545, Note_on_c, 0, 62, 74
2, 371547, Note_on_c, 0, 56, 72
2, 371549, Note_on_c, 0, 96, 76
2, 371555, Note_on_c, 0, 91, 73
2, 371557, Note_on_c, 0, 84, 76
2, 371670, Control_c, 0, 64, 127
2, 371841, Note_on_c, 0, 84, 0
2, 371878, Note_on_c, 0, 91, 0
2, 371893, Note_on_c, 0, 96, 0
2, 371997, Note_on_c, 0, 62, 0
2, 372087, Note_on_c, 0, 67, 0
2, 372167, Note_on_c, 0, 56, 0
2, 372250, Note_on_c, 0, 100, 68
2, 372274, Note_on_c, 0, 67, 35
2, 372279, Note_on_c, 0, 56, 44
2, 372292, Note_on_c, 0, 62, 47
2, 372326, Note_on_c, 0, 67, 0
2, 372327, Note_on_c, 0, 62, 0
2, 372392, Note_on_c, 0, 100, 0
2, 372420, Note_on_c, 0, 56, 0
2, 372494, Control_c, 0, 64, 0
2, 372562, Note_on_c, 0, 66, 67
2, 372564, Note_on_c, 0, 100, 64
2, 372565, Note_on_c, 0, 88, 60
2, 372565, Note_on_c, 0, 55, 46
2, 372577, Note_on_c, 0, 93, 55
2, 372581, Note_on_c, 0, 61, 32
2, 372602, Note_on_c, 0, 95, 28
2, 372614, Note_on_c, 0, 93, 0
2, 372638, Note_on_c, 0, 66, 0
2, 372642, Note_on_c, 0, 88, 0
2, 372643, Note_on_c, 0, 95, 0
2, 372645, Note_on_c, 0, 100, 0
2, 372676, Note_on_c, 0, 55, 0
2, 372677, Note_on_c, 0, 61, 0
2, 372982, Note_on_c, 0, 45, 58
2, 373303, Note_on_c, 0, 55, 25
2, 373318, Note_on_c, 0, 59, 34
2, 373328, Note_on_c, 0, 62, 41
2, 373346, Note_on_c, 0, 64, 26
2, 373504, Note_on_c, 0, 55, 0
2, 373732, Note_on_c, 0, 62, 0
2, 373750, Note_on_c, 0, 64, 0
2, 373777, Note_on_c, 0, 59, 0
2, 373785, Note_on_c, 0, 52, 33
2, 373849, Note_on_c, 0, 52, 0
2, 373885, Note_on_c, 0, 57, 50
2, 373895, Note_on_c, 0, 64, 40
2, 373904, Note_on_c, 0, 59, 30
2, 373913, Note_on_c, 0, 62, 37
2, 374111, Note_on_c, 0, 57, 0
2, 374131, Note_on_c, 0, 64, 0
2, 374137, Note_on_c, 0, 59, 0
2, 374138, Note_on_c, 0, 62, 0
2, 374222, Note_on_c, 0, 57, 54
2, 374227, Note_on_c, 0, 64, 41
2, 374235, Note_on_c, 0, 59, 31
2, 374249, Note_on_c, 0, 62, 31
2, 374285, Note_on_c, 0, 57, 0
2, 374297, Note_on_c, 0, 59, 0
2, 374302, Note_on_c, 0, 62, 0
2, 374334, Note_on_c, 0, 64, 0
2, 374679, Note_on_c, 0, 64, 51
2, 374686, Note_on_c, 0, 55, 41
2, 374688, Note_on_c, 0, 52, 30
2, 374698, Note_on_c, 0, 59, 45
2, 374699, Note_on_c, 0, 62, 57
2, 374850, Note_on_c, 0, 52, 0
2, 374986, Control_c, 0, 64, 127
2, 375081, Control_c, 0, 64, 0
2, 375135, Note_on_c, 0, 45, 0
2, 375179, Note_on_c, 0, 52, 69
2, 375228, Note_on_c, 0, 55, 0
2, 375286, Note_on_c, 0, 52, 0
2, 375320, Control_c, 0, 64, 127
2, 375334, Note_on_c, 0, 55, 37
2, 375416, Note_on_c, 0, 64, 0
2, 375438, Note_on_c, 0, 62, 0
2, 375500, Note_on_c, 0, 59, 0
2, 375614, Note_on_c, 0, 55, 0
2, 375656, Note_on_c, 0, 42, 36
2, 375744, Note_on_c, 0, 42, 0
2, 375769, Control_c, 0, 64, 0
2, 375805, Note_on_c, 0, 42, 57
2, 376135, Note_on_c, 0, 64, 62
2, 376142, Note_on_c, 0, 57, 55
2, 376146, Note_on_c, 0, 53, 48
2, 376156, Note_on_c, 0, 60, 34
2, 376157, Note_on_c, 0, 42, 0
2, 376159, Note_on_c, 0, 43, 49
2, 376211, Note_on_c, 0, 53, 0
2, 376255, Note_on_c, 0, 57, 0
2, 376259, Control_c, 0, 64, 127
2, 376291, Note_on_c, 0, 60, 0
2, 376310, Note_on_c, 0, 64, 0
2, 376636, Note_on_c, 0, 42, 46
2, 376670, Note_on_c, 0, 42, 0
2, 376688, Control_c, 0, 64, 0
2, 376689, Note_on_c, 0, 43, 0
2, 376809, Note_on_c, 0, 69, 18
2, 377035, Note_on_c, 0, 69, 0
2, 377101, Note_on_c, 0, 62, 47
2, 377103, Note_on_c, 0, 72, 45
2, 377182, Note_on_c, 0, 62, 0
2, 377215, Note_on_c, 0, 64, 58
2, 377226, Note_on_c, 0, 76, 60
2, 377231, Note_on_c, 0, 65, 60
2, 377252, Note_on_c, 0, 69, 28
2, 377400, Note_on_c, 0, 76, 0
2, 377437, Note_on_c, 0, 72, 0
2, 377443, Note_on_c, 0, 69, 0
2, 377453, Note_on_c, 0, 65, 0
2, 377493, Note_on_c, 0, 64, 0
2, 377720, Note_on_c, 0, 74, 62
2, 377730, Note_on_c, 0, 65, 44
2, 377737, Note_on_c, 0, 69, 42
2, 377742, Note_on_c, 0, 62, 53
2, 377916, Note_on_c, 0, 69, 0
2, 377921, Note_on_c, 0, 74, 0
2, 377928, Note_on_c, 0, 65, 0
2, 377980, Note_on_c, 0, 62, 0
2, 378216, Note_on_c, 0, 60, 37
2, 378223, Note_on_c, 0, 65, 36
2, 378231, Note_on_c, 0, 72, 31
2, 378232, Note_on_c, 0, 69, 33
2, 378385, Note_on_c, 0, 69, 0
2, 378406, Note_on_c, 0, 65, 0
2, 378466, Note_on_c, 0, 72, 0
2, 378586, Note_on_c, 0, 60, 0
2, 378677, Note_on_c, 0, 69, 44
2, 378686, Note_on_c, 0, 62, 32
2, 378693, Note_on_c, 0, 57, 38
2, 378694, Note_on_c, 0, 65, 47
2, 378909, Note_on_c, 0, 65, 0
2, 378965, Note_on_c, 0, 62, 0
2, 378985, Note_on_c, 0, 69, 0
2, 379115, Note_on_c, 0, 57, 0
2, 379185, Note_on_c, 0, 65, 45
2, 379188, Control_c, 0, 64, 127
2, 379190, Note_on_c, 0, 62, 29
2, 379195, Note_on_c, 0, 53, 34
2, 379395, Note_on_c, 0, 62, 0
2, 379510, Note_on_c, 0, 67, 53
2, 379516, Note_on_c, 0, 65, 0
2, 379526, Note_on_c, 0, 53, 0
2, 379623, Note_on_c, 0, 67, 0
2, 379696, Note_on_c, 0, 68, 51
2, 379887, Note_on_c, 0, 68, 0
2, 380012, Control_c, 0, 64, 0
2, 380013, Note_on_c, 0, 67, 57
2, 380021, Note_on_c, 0, 70, 60
2, 380029, Note_on_c, 0, 63, 46
2, 380041, Note_on_c, 0, 56, 42
2, 380042, Note_on_c, 0, 60, 34
2, 380242, Control_c, 0, 64, 127
2, 380382, Note_on_c, 0, 67, 0
2, 380393, Note_on_c, 0, 63, 0
2, 380394, Note_on_c, 0, 60, 0
2, 380409, Note_on_c, 0, 56, 0
2, 380416, Note_on_c, 0, 70, 0
2, 380488, Note_on_c, 0, 68, 48
2, 380491, Note_on_c, 0, 72, 53
2, 380621, Note_on_c, 0, 72, 0
2, 380643, Note_on_c, 0, 68, 0
2, 380708, Note_on_c, 0, 70, 57
2, 380715, Note_on_c, 0, 74, 68
2, 380732, Note_on_c, 0, 67, 33
2, 380753, Note_on_c, 0, 60, 24
2, 380814, Note_on_c, 0, 70, 0
2, 380823, Note_on_c, 0, 74, 0
2, 380829, Note_on_c, 0, 60, 0
2, 380830, Note_on_c, 0, 67, 0
2, 380982, Control_c, 0, 64, 0
2, 381014, Note_on_c, 0, 67, 63
2, 381015, Note_on_c, 0, 75, 75
2, 381020, Note_on_c, 0, 60, 40
2, 381026, Note_on_c, 0, 63, 48
2, 381034, Note_on_c, 0, 56, 51
2, 381169, Control_c, 0, 64, 127
2, 381207, Note_on_c, 0, 75, 0
2, 381220, Note_on_c, 0, 56, 0
2, 381257, Note_on_c, 0, 60, 0
2, 381258, Note_on_c, 0, 67, 0
2, 381328, Note_on_c, 0, 63, 0
2, 381473, Note_on_c, 0, 77, 66
2, 381482, Note_on_c, 0, 63, 64
2, 381491, Note_on_c, 0, 60, 52
2, 381493, Note_on_c, 0, 72, 61
2, 381496, Note_on_c, 0, 56, 60
2, 381500, Note_on_c, 0, 65, 52
2, 381603, Note_on_c, 0, 77, 0
2, 381604, Note_on_c, 0, 65, 0
2, 381673, Note_on_c, 0, 72, 0
2, 381687, Note_on_c, 0, 56, 0
2, 381702, Note_on_c, 0, 60, 0
2, 381745, Note_on_c, 0, 63, 0
2, 381920, Control_c, 0, 64, 0
2, 381935, Note_on_c, 0, 72, 72
2, 381936, Note_on_c, 0, 63, 71
2, 381938, Note_on_c, 0, 79, 66
2, 381939, Note_on_c, 0, 75, 60
2, 381940, Note_on_c, 0, 60, 55
2, 381942, Note_on_c, 0, 56, 68
2, 381948, Note_on_c, 0, 67, 67
2, 382098, Control_c, 0, 64, 127
2, 382099, Note_on_c, 0, 67, 0
2, 382116, Note_on_c, 0, 79, 0
2, 382129, Note_on_c, 0, 56, 0
2, 382171, Note_on_c, 0, 60, 0
2, 382222, Note_on_c, 0, 75, 0
2, 382223, Note_on_c, 0, 63, 0
2, 382244, Note_on_c, 0, 72, 0
2, 382388, Control_c, 0, 64, 0
2, 382394, Note_on_c, 0, 80, 57
2, 382396, Note_on_c, 0, 63, 70
2, 382399, Note_on_c, 0, 72, 65
2, 382404, Note_on_c, 0, 75, 53
2, 382406, Note_on_c, 0, 60, 48
2, 382413, Note_on_c, 0, 68, 55
2, 382414, Note_on_c, 0, 56, 69
2, 382415, Note_on_c, 0, 67, 75
2, 382529, Note_on_c, 0, 72, 0
2, 382545, Control_c, 0, 64, 127
2, 382546, Note_on_c, 0, 68, 0
2, 382577, Note_on_c, 0, 75, 0
2, 382588, Note_on_c, 0, 67, 0
2, 382588, Note_on_c, 0, 80, 0
2, 382599, Note_on_c, 0, 56, 0
2, 382620, Note_on_c, 0, 60, 0
2, 382662, Note_on_c, 0, 63, 0
2, 382848, Control_c, 0, 64, 0
2, 382869, Note_on_c, 0, 63, 71
2, 382875, Note_on_c, 0, 60, 53
2, 382878, Note_on_c, 0, 82, 67
2, 382880, Note_on_c, 0, 56, 69
2, 382882, Note_on_c, 0, 67, 69
2, 382884, Note_on_c, 0, 75, 57
2, 382889, Note_on_c, 0, 70, 52
2, 382975, Note_on_c, 0, 67, 0
2, 382988, Note_on_c, 0, 75, 0
2, 383004, Control_c, 0, 64, 127
2, 383034, Note_on_c, 0, 70, 0
2, 383042, Note_on_c, 0, 56, 0
2, 383046, Note_on_c, 0, 60, 0
2, 383050, Note_on_c, 0, 82, 0
2, 383103, Note_on_c, 0, 63, 0
2, 383305, Control_c, 0, 64, 0
2, 383320, Note_on_c, 0, 63, 69
2, 383328, Note_on_c, 0, 56, 70
2, 383335, Note_on_c, 0, 84, 71
2, 383338, Note_on_c, 0, 67, 64
2, 383339, Note_on_c, 0, 60, 44
2, 383348, Note_on_c, 0, 72, 67
2, 383367, Note_on_c, 0, 65, 46
2, 383412, Note_on_c, 0, 65, 0
2, 383444, Note_on_c, 0, 67, 0
2, 383473, Control_c, 0, 64, 127
2, 383474, Note_on_c, 0, 84, 0
2, 383478, Note_on_c, 0, 72, 0
2, 383485, Note_on_c, 0, 60, 0
2, 383552, Note_on_c, 0, 56, 0
2, 383567, Note_on_c, 0, 63, 0
2, 383774, Control_c, 0, 64, 0
2, 383794, Note_on_c, 0, 62, 70
2, 383795, Note_on_c, 0, 66, 75
2, 383799, Note_on_c, 0, 85, 67
2, 383800, Note_on_c, 0, 55, 57
2, 383805, Note_on_c, 0, 73, 63
2, 383819, Note_on_c, 0, 80, 46
2, 383821, Note_on_c, 0, 59, 51
2, 383962, Control_c, 0, 64, 127
2, 383999, Note_on_c, 0, 55, 0
2, 384004, Note_on_c, 0, 80, 0
2, 384008, Note_on_c, 0, 59, 0
2, 384021, Note_on_c, 0, 62, 0
2, 384027, Note_on_c, 0, 66, 0
2, 384055, Note_on_c, 0, 73, 0
2, 384058, Note_on_c, 0, 85, 0
2, 384223, Control_c, 0, 64, 0
2, 384263, Note_on_c, 0, 86, 63
2, 384266, Note_on_c, 0, 66, 70
2, 384268, Note_on_c, 0, 62, 64
2, 384277, Note_on_c, 0, 81, 62
2, 384280, Note_on_c, 0, 74, 40
2, 384281, Note_on_c, 0, 55, 48
2, 384294, Note_on_c, 0, 59, 50
2, 384316, Note_on_c, 0, 76, 24
2, 384357, Note_on_c, 0, 76, 0
2, 384394, Note_on_c, 0, 74, 0
2, 384412, Control_c, 0, 64, 127
2, 384427, Note_on_c, 0, 86, 0
2, 384455, Note_on_c, 0, 81, 0
2, 384458, Note_on_c, 0, 55, 0
2, 384483, Note_on_c, 0, 66, 0
2, 384493, Note_on_c, 0, 62, 0
2, 384496, Note_on_c, 0, 59, 0
2, 384724, Control_c, 0, 64, 0
2, 384746, Note_on_c, 0, 88, 61
2, 384753, Note_on_c, 0, 66, 54
2, 384761, Note_on_c, 0, 76, 43
2, 384762, Note_on_c, 0, 55, 46
2, 384763, Note_on_c, 0, 62, 53
2, 384773, Note_on_c, 0, 59, 40
2, 384782, Note_on_c, 0, 83, 40
2, 384881, Control_c, 0, 64, 127
2, 384883, Note_on_c, 0, 55, 0
2, 384887, Note_on_c, 0, 76, 0
2, 384889, Note_on_c, 0, 88, 0
2, 384906, Note_on_c, 0, 66, 0
2, 384913, Note_on_c, 0, 83, 0
2, 384944, Note_on_c, 0, 62, 0
2, 384959, Note_on_c, 0, 59, 0
2, 385193, Control_c, 0, 64, 0
2, 385219, Note_on_c, 0, 66, 53
2, 385231, Note_on_c, 0, 90, 59
2, 385240, Note_on_c, 0, 57, 56
2, 385242, Note_on_c, 0, 78, 42
2, 385245, Note_on_c, 0, 62, 53
2, 385255, Note_on_c, 0, 59, 42
2, 385257, Note_on_c, 0, 83, 51
2, 385313, Note_on_c, 0, 83, 0
2, 385340, Control_c, 0, 64, 127
2, 385379, Note_on_c, 0, 78, 0
2, 385412, Note_on_c, 0, 59, 0
2, 385427, Note_on_c, 0, 90, 0
2, 385439, Note_on_c, 0, 57, 0
2, 385449, Note_on_c, 0, 62, 0
2, 385457, Note_on_c, 0, 66, 0
2, 385672, Control_c, 0, 64, 0
2, 385692, Note_on_c, 0, 66, 54
2, 385708, Note_on_c, 0, 91, 68
2, 385712, Note_on_c, 0, 57, 56
2, 385716, Note_on_c, 0, 62, 54
2, 385719, Note_on_c, 0, 86, 58
2, 385734, Note_on_c, 0, 79, 34
2, 385756, Note_on_c, 0, 81, 28
2, 385756, Note_on_c, 0, 59, 25
2, 385799, Note_on_c, 0, 81, 0
2, 385811, Control_c, 0, 64, 127
2, 385828, Note_on_c, 0, 79, 0
2, 385852, Note_on_c, 0, 91, 0
2, 385880, Note_on_c, 0, 86, 0
2, 385907, Note_on_c, 0, 62, 0
2, 385930, Note_on_c, 0, 59, 0
2, 385942, Note_on_c, 0, 66, 0
2, 385949, Note_on_c, 0, 57, 0
2, 386145, Control_c, 0, 64, 0
2, 386159, Note_on_c, 0, 66, 64
2, 386174, Note_on_c, 0, 93, 75
2, 386175, Note_on_c, 0, 57, 57
2, 386176, Note_on_c, 0, 86, 65
2, 386183, Note_on_c, 0, 62, 60
2, 386191, Note_on_c, 0, 81, 56
2, 386197, Note_on_c, 0, 59, 55
2, 386291, Note_on_c, 0, 81, 0
2, 386302, Control_c, 0, 64, 127
2, 386308, Note_on_c, 0, 86, 0
2, 386323, Note_on_c, 0, 93, 0
2, 386424, Note_on_c, 0, 62, 0
2, 386432, Note_on_c, 0, 57, 0
2, 386437, Note_on_c, 0, 66, 0
2, 386438, Note_on_c, 0, 59, 0
2, 386616, Control_c, 0, 64, 0
2, 386632, Note_on_c, 0, 66, 75
2, 386640, Note_on_c, 0, 95, 73
2, 386644, Note_on_c, 0, 57, 61
2, 386648, Note_on_c, 0, 59, 53
2, 386648, Note_on_c, 0, 62, 62
2, 386653, Note_on_c, 0, 83, 71
2, 386751, Control_c, 0, 64, 127
2, 386786, Note_on_c, 0, 83, 0
2, 386826, Note_on_c, 0, 95, 0
2, 386894, Note_on_c, 0, 57, 0
2, 386902, Note_on_c, 0, 59, 0
2, 386913, Note_on_c, 0, 66, 0
2, 386915, Note_on_c, 0, 62, 0
2, 387111, Note_on_c, 0, 97, 76
2, 387116, Note_on_c, 0, 66, 81
2, 387118, Note_on_c, 0, 85, 77
2, 387122, Note_on_c, 0, 57, 70
2, 387123, Note_on_c, 0, 62, 68
2, 387125, Note_on_c, 0, 92, 71
2, 387129, Note_on_c, 0, 59, 58
2, 387137, Control_c, 0, 64, 0
2, 387220, Control_c, 0, 64, 127
2, 387263, Note_on_c, 0, 62, 0
2, 387274, Note_on_c, 0, 92, 0
2, 387289, Note_on_c, 0, 59, 0
2, 387303, Note_on_c, 0, 85, 0
2, 387308, Note_on_c, 0, 97, 0
2, 387331, Note_on_c, 0, 66, 0
2, 387356, Note_on_c, 0, 57, 0
2, 387584, Control_c, 0, 64, 0
2, 387587, Note_on_c, 0, 56, 62
2, 387591, Note_on_c, 0, 64, 71
2, 387599, Note_on_c, 0, 59, 47
2, 387608, Note_on_c, 0, 97, 66
2, 387613, Note_on_c, 0, 92, 71
2, 387617, Note_on_c, 0, 85, 62
2, 387619, Note_on_c, 0, 54, 46
2, 387794, Control_c, 0, 64, 127
2, 387899, Note_on_c, 0, 85, 0
2, 387913, Note_on_c, 0, 54, 0
2, 387928, Note_on_c, 0, 92, 0
2, 387929, Note_on_c, 0, 97, 0
2, 387934, Note_on_c, 0, 59, 0
2, 387949, Note_on_c, 0, 64, 0
2, 387958, Note_on_c, 0, 56, 0
2, 388076, Control_c, 0, 64, 0
2, 388078, Note_on_c, 0, 64, 60
2, 388079, Note_on_c, 0, 99, 51
2, 388079, Note_on_c, 0, 87, 50
2, 388089, Note_on_c, 0, 59, 31
2, 388096, Note_on_c, 0, 94, 48
2, 388097, Note_on_c, 0, 56, 41
2, 388100, Note_on_c, 0, 54, 36
2, 388253, Control_c, 0, 64, 127
2, 388272, Note_on_c, 0, 87, 0
2, 388302, Note_on_c, 0, 94, 0
2, 388306, Note_on_c, 0, 99, 0
2, 388339, Note_on_c, 0, 59, 0
2, 388344, Note_on_c, 0, 54, 0
2, 388360, Note_on_c, 0, 56, 0
2, 388398, Note_on_c, 0, 64, 0
2, 388572, Note_on_c, 0, 64, 51
2, 388575, Note_on_c, 0, 100, 44
2, 388587, Note_on_c, 0, 54, 36
2, 388588, Note_on_c, 0, 59, 36
2, 388591, Note_on_c, 0, 95, 38
2, 388596, Note_on_c, 0, 56, 42
2, 388598, Note_on_c, 0, 88, 27
2, 388607, Control_c, 0, 64, 0
2, 388712, Note_on_c, 0, 88, 0
2, 388724, Note_on_c, 0, 95, 0
2, 388753, Control_c, 0, 64, 127
2, 388754, Note_on_c, 0, 100, 0
2, 388776, Note_on_c, 0, 59, 0
2, 388782, Note_on_c, 0, 56, 0
2, 388797, Note_on_c, 0, 64, 0
2, 388805, Note_on_c, 0, 54, 0
2, 389055, Note_on_c, 0, 102, 50
2, 389064, Note_on_c, 0, 64, 56
2, 389073, Note_on_c, 0, 90, 28
2, 389075, Note_on_c, 0, 59, 33
2, 389083, Note_on_c, 0, 54, 32
2, 389091, Note_on_c, 0, 97, 40
2, 389092, Note_on_c, 0, 56, 34
2, 389179, Note_on_c, 0, 64, 0
2, 389185, Note_on_c, 0, 90, 0
2, 389190, Note_on_c, 0, 59, 0
2, 389191, Note_on_c, 0, 97, 0
2, 389211, Note_on_c, 0, 54, 0
2, 389212, Note_on_c, 0, 102, 0
2, 389213, Note_on_c, 0, 56, 0
2, 389526, Control_c, 0, 64, 0
2, 389534, Note_on_c, 0, 104, 55
2, 389553, Note_on_c, 0, 58, 25
2, 389555, Note_on_c, 0, 92, 30
2, 389565, Note_on_c, 0, 52, 31
2, 389567, Note_on_c, 0, 97, 35
2, 389569, Note_on_c, 0, 54, 29
2, 389597, Note_on_c, 0, 61, 20
2, 389597, Note_on_c, 0, 63, 17
2, 389637, Note_on_c, 0, 63, 0
2, 389677, Note_on_c, 0, 97, 0
2, 389695, Control_c, 0, 64, 127
2, 389699, Note_on_c, 0, 92, 0
2, 389748, Note_on_c, 0, 104, 0
2, 389774, Note_on_c, 0, 52, 0
2, 389785, Note_on_c, 0, 61, 0
2, 389790, Note_on_c, 0, 54, 0
2, 389812, Note_on_c, 0, 58, 0
2, 389998, Note_on_c, 0, 62, 37
2, 390000, Note_on_c, 0, 107, 68
2, 390007, Control_c, 0, 64, 0
2, 390010, Note_on_c, 0, 95, 32
2, 390012, Note_on_c, 0, 59, 30
2, 390020, Note_on_c, 0, 53, 29
2, 390025, Note_on_c, 0, 55, 38
2, 390195, Control_c, 0, 64, 127
2, 390351, Note_on_c, 0, 59, 0
2, 390439, Note_on_c, 0, 95, 0
2, 390493, Note_on_c, 0, 107, 0
2, 390501, Note_on_c, 0, 59, 24
2, 390621, Control_c, 0, 64, 0
2, 390689, Note_on_c, 0, 107, 99
2, 390714, Note_on_c, 0, 59, 0
2, 390793, Note_on_c, 0, 62, 0
2, 390852, Note_on_c, 0, 107, 0
2, 390986, Note_on_c, 0, 105, 66
2, 391128, Note_on_c, 0, 105, 0
2, 391180, Note_on_c, 0, 53, 0
2, 391184, Note_on_c, 0, 55, 0
2, 391220, Note_on_c, 0, 103, 61
2, 391416, Note_on_c, 0, 103, 0
2, 391467, Note_on_c, 0, 62, 47
2, 391478, Note_on_c, 0, 57, 47
2, 391485, Note_on_c, 0, 102, 57
2, 391508, Note_on_c, 0, 52, 28
2, 391586, Note_on_c, 0, 52, 0
2, 391603, Note_on_c, 0, 62, 0
2, 391664, Note_on_c, 0, 57, 0
2, 391727, Note_on_c, 0, 102, 0
2, 391756, Note_on_c, 0, 100, 27
2, 391927, Note_on_c, 0, 100, 0
2, 391979, Note_on_c, 0, 103, 68
2, 392116, Note_on_c, 0, 103, 0
2, 392171, Note_on_c, 0, 102, 46
2, 392354, Note_on_c, 0, 102, 0
2, 392429, Note_on_c, 0, 100, 61
2, 392442, Note_on_c, 0, 57, 49
2, 392447, Note_on_c, 0, 62, 37
2, 392492, Note_on_c, 0, 62, 0
2, 392506, Note_on_c, 0, 57, 0
2, 392561, Note_on_c, 0, 100, 0
2, 392648, Note_on_c, 0, 95, 43
2, 392856, Note_on_c, 0, 95, 0
2, 393080, Note_on_c, 0, 95, 50
2, 393324, Note_on_c, 0, 95, 0
2, 393573, Note_on_c, 0, 95, 52
2, 393869, Note_on_c, 0, 95, 0
2, 394052, Control_c, 0, 64, 127
2, 394093, Control_c, 0, 64, 0
2, 394390, Note_on_c, 0, 93, 71
2, 394400, Note_on_c, 0, 95, 63
2, 394422, Note_on_c, 0, 57, 51
2, 394431, Note_on_c, 0, 62, 42
2, 394477, Note_on_c, 0, 62, 0
2, 394539, Note_on_c, 0, 57, 0
2, 394581, Note_on_c, 0, 93, 0
2, 394584, Note_on_c, 0, 95, 0
2, 394702, Note_on_c, 0, 91, 47
2, 394893, Note_on_c, 0, 91, 0
2, 395021, Control_c, 0, 64, 127
2, 395029, Note_on_c, 0, 90, 53
2, 395073, Control_c, 0, 64, 0
2, 395379, Note_on_c, 0, 88, 39
2, 395396, Note_on_c, 0, 90, 0
2, 395489, Note_on_c, 0, 88, 0
2, 395681, Note_on_c, 0, 88, 62
2, 395690, Note_on_c, 0, 90, 47
2, 395886, Note_on_c, 0, 88, 0
2, 395920, Note_on_c, 0, 90, 0
2, 395929, Note_on_c, 0, 55, 32
2, 395990, Note_on_c, 0, 86, 47
2, 396037, Note_on_c, 0, 55, 0
2, 396195, Note_on_c, 0, 86, 0
2, 396338, Note_on_c, 0, 86, 27
2, 396481, Note_on_c, 0, 86, 0
2, 396636, Note_on_c, 0, 84, 35
2, 396822, Note_on_c, 0, 84, 0
2, 396923, Note_on_c, 0, 83, 59
2, 397075, Note_on_c, 0, 83, 0
2, 397267, Note_on_c, 0, 79, 34
2, 397336, Note_on_c, 0, 79, 0
2, 397725, Note_on_c, 0, 62, 50
2, 397727, Note_on_c, 0, 57, 49
2, 397760, Note_on_c, 0, 62, 0
2, 397776, Note_on_c, 0, 57, 0
2, 398369, Note_on_c, 0, 66, 62
2, 398712, Note_on_c, 0, 57, 38
2, 398791, Note_on_c, 0, 66, 0
2, 398814, Note_on_c, 0, 57, 0
2, 398868, Note_on_c, 0, 60, 44
2, 399126, Note_on_c, 0, 60, 0
2, 399161, Note_on_c, 0, 67, 67
2, 399215, Note_on_c, 0, 45, 43
2, 399286, Note_on_c, 0, 45, 0
2, 399293, Note_on_c, 0, 67, 0
2, 399374, Note_on_c, 0, 64, 29
2, 399654, Note_on_c, 0, 52, 28
2, 399681, Note_on_c, 0, 64, 0
2, 399724, Note_on_c, 0, 52, 0
2, 399794, Note_on_c, 0, 60, 38
2, 399805, Control_c, 0, 64, 127
2, 399858, Control_c, 0, 64, 0
2, 400093, Note_on_c, 0, 60, 0
2, 400276, Note_on_c, 0, 57, 38
2, 400287, Note_on_c, 0, 62, 43
2, 400291, Note_on_c, 0, 47, 34
2, 400420, Note_on_c, 0, 47, 0
2, 400523, Note_on_c, 0, 57, 0
2, 400575, Note_on_c, 0, 62, 0
2, 400797, Control_c, 0, 64, 127
2, 400860, Control_c, 0, 64, 0
2, 400974, Control_c, 0, 64, 127
2, 401131, Control_c, 0, 64, 0
2, 401265, Note_on_c, 0, 64, 78
2, 401268, Note_on_c, 0, 62, 71
2, 401521, Note_on_c, 0, 62, 0
2, 401550, Note_on_c, 0, 64, 0
2, 401595, Note_on_c, 0, 62, 66
2, 401629, Note_on_c, 0, 55, 31
2, 401689, Note_on_c, 0, 55, 0
2, 401708, Note_on_c, 0, 62, 0
2, 401778, Note_on_c, 0, 64, 33
2, 401787, Note_on_c, 0, 62, 30
2, 401889, Note_on_c, 0, 64, 0
2, 401916, Note_on_c, 0, 62, 0
2, 402225, Control_c, 0, 64, 127
2, 402289, Control_c, 0, 64, 0
2, 402554, Note_on_c, 0, 59, 51
2, 402569, Note_on_c, 0, 62, 52
2, 402588, Note_on_c, 0, 41, 33
2, 402617, Note_on_c, 0, 59, 0
2, 402647, Note_on_c, 0, 62, 0
2, 402668, Note_on_c, 0, 41, 0
2, 403021, Note_on_c, 0, 64, 50
2, 403028, Note_on_c, 0, 55, 36
2, 403032, Note_on_c, 0, 59, 44
2, 403045, Note_on_c, 0, 52, 32
2, 403046, Note_on_c, 0, 47, 34
2, 403047, Note_on_c, 0, 40, 35
2, 403112, Note_on_c, 0, 55, 0
2, 403122, Control_c, 0, 64, 127
2, 403165, Note_on_c, 0, 59, 0
2, 403174, Note_on_c, 0, 52, 0
2, 403181, Note_on_c, 0, 40, 0
2, 403188, Note_on_c, 0, 47, 0
2, 403219, Note_on_c, 0, 64, 0
2, 403643, Control_c, 0, 64, 0
2, 403695, Control_c, 0, 64, 127
2, 403956, Control_c, 0, 64, 0
2, 404005, Note_on_c, 0, 71, 74
2, 404013, Note_on_c, 0, 66, 69
2, 404014, Note_on_c, 0, 54, 57
2, 404021, Note_on_c, 0, 64, 70
2, 404035, Note_on_c, 0, 59, 47
2, 404090, Control_c, 0, 64, 127
2, 404387, Note_on_c, 0, 64, 0
2, 404395, Note_on_c, 0, 59, 0
2, 404423, Note_on_c, 0, 66, 0
2, 404425, Note_on_c, 0, 54, 0
2, 404468, Note_on_c, 0, 71, 0
2, 404909, Note_on_c, 0, 74, 73
2, 404915, Control_c, 0, 64, 0
2, 404918, Note_on_c, 0, 66, 69
2, 404920, Note_on_c, 0, 69, 69
2, 404921, Note_on_c, 0, 64, 79
2, 405040, Control_c, 0, 64, 127
2, 405212, Note_on_c, 0, 69, 0
2, 405230, Note_on_c, 0, 74, 0
2, 405245, Note_on_c, 0, 66, 0
2, 405519, Note_on_c, 0, 64, 0
2, 405551, Control_c, 0, 64, 0
2, 405567, Note_on_c, 0, 78, 77
2, 405575, Note_on_c, 0, 69, 67
2, 405583, Note_on_c, 0, 62, 70
2, 405585, Note_on_c, 0, 72, 62
2, 405665, Control_c, 0, 64, 127
2, 405672, Note_on_c, 0, 72, 0
2, 405890, Note_on_c, 0, 62, 0
2, 405984, Note_on_c, 0, 69, 0
2, 406012, Note_on_c, 0, 78, 0
2, 406368, Note_on_c, 0, 79, 64
2, 406376, Note_on_c, 0, 74, 70
2, 406385, Control_c, 0, 64, 0
2, 406387, Note_on_c, 0, 67, 62
2, 406399, Note_on_c, 0, 62, 67
2, 406411, Note_on_c, 0, 51, 39
2, 406445, Note_on_c, 0, 58, 21
2, 406541, Control_c, 0, 64, 127
2, 406587, Note_on_c, 0, 58, 0
2, 406681, Note_on_c, 0, 51, 0
2, 406684, Note_on_c, 0, 67, 0
2, 406702, Note_on_c, 0, 79, 0
2, 406778, Note_on_c, 0, 74, 0
2, 406792, Note_on_c, 0, 62, 0
2, 406947, Control_c, 0, 64, 0
2, 406991, Note_on_c, 0, 62, 37
2, 406993, Note_on_c, 0, 81, 49
2, 407000, Note_on_c, 0, 74, 51
2, 407001, Note_on_c, 0, 69, 40
2, 407002, Note_on_c, 0, 57, 48
2, 407006, Note_on_c, 0, 52, 24
2, 407447, Control_c, 0, 64, 127
2, 407552, Note_on_c, 0, 57, 0
2, 407563, Note_on_c, 0, 62, 0
2, 407584, Note_on_c, 0, 81, 0
2, 407601, Note_on_c, 0, 69, 0
2, 407647, Note_on_c, 0, 52, 0
2, 407742, Note_on_c, 0, 74, 0
2, 407916, Control_c, 0, 64, 0
2, 407965, Note_on_c, 0, 57, 32
2, 407969, Note_on_c, 0, 52, 33
2, 407970, Note_on_c, 0, 79, 39
2, 407970, Note_on_c, 0, 62, 40
2, 407974, Note_on_c, 0, 74, 55
2, 407987, Note_on_c, 0, 67, 33
2, 408020, Note_on_c, 0, 79, 0
2, 408021, Note_on_c, 0, 62, 0
2, 408043, Note_on_c, 0, 67, 0
2, 408044, Note_on_c, 0, 57, 0
2, 408045, Note_on_c, 0, 74, 0
2, 408076, Note_on_c, 0, 52, 0
2, 408427, Note_on_c, 0, 66, 67
2, 408429, Note_on_c, 0, 69, 69
2, 408433, Note_on_c, 0, 62, 64
2, 408447, Note_on_c, 0, 59, 57
2, 408455, Note_on_c, 0, 57, 60
2, 408457, Note_on_c, 0, 55, 53
2, 408683, Note_on_c, 0, 62, 0
2, 408689, Note_on_c, 0, 55, 0
2, 408697, Note_on_c, 0, 57, 0
2, 408712, Note_on_c, 0, 59, 0
2, 408734, Note_on_c, 0, 69, 0
2, 408735, Note_on_c, 0, 66, 0
2, 408932, Note_on_c, 0, 71, 77
2, 408934, Note_on_c, 0, 67, 83
2, 408936, Note_on_c, 0, 64, 91
2, 408942, Note_on_c, 0, 59, 72
2, 408947, Note_on_c, 0, 57, 66
2, 408952, Note_on_c, 0, 55, 60
2, 409294, Note_on_c, 0, 59, 0
2, 409295, Note_on_c, 0, 64, 0
2, 409319, Note_on_c, 0, 71, 0
2, 409330, Note_on_c, 0, 67, 0
2, 409342, Note_on_c, 0, 55, 0
2, 409361, Note_on_c, 0, 57, 0
2, 409416, Note_on_c, 0, 69, 35
2, 409417, Note_on_c, 0, 59, 44
2, 409425, Note_on_c, 0, 66, 60
2, 409444, Note_on_c, 0, 55, 19
2, 409457, Note_on_c, 0, 62, 45
2, 409501, Note_on_c, 0, 55, 0
2, 409506, Note_on_c, 0, 62, 0
2, 409554, Note_on_c, 0, 59, 0
2, 409573, Note_on_c, 0, 66, 0
2, 409668, Control_c, 0, 64, 127
2, 409690, Note_on_c, 0, 69, 0
2, 409867, Control_c, 0, 64, 0
2, 409923, Note_on_c, 0, 63, 42
2, 409924, Note_on_c, 0, 67, 51
2, 409931, Note_on_c, 0, 59, 41
2, 409954, Note_on_c, 0, 49, 34
2, 409972, Note_on_c, 0, 55, 15
2, 410075, Control_c, 0, 64, 127
2, 410141, Note_on_c, 0, 55, 0
2, 410174, Note_on_c, 0, 63, 0
2, 410267, Note_on_c, 0, 59, 0
2, 410322, Note_on_c, 0, 67, 0
2, 410355, Note_on_c, 0, 63, 42
2, 410474, Note_on_c, 0, 49, 0
2, 410638, Note_on_c, 0, 63, 0
2, 410691, Control_c, 0, 64, 0
2, 410721, Note_on_c, 0, 57, 46
2, 410728, Note_on_c, 0, 64, 56
2, 410743, Note_on_c, 0, 62, 51
2, 410753, Note_on_c, 0, 55, 25
2, 410761, Note_on_c, 0, 52, 34
2, 410788, Note_on_c, 0, 48, 22
2, 410949, Control_c, 0, 64, 127
2, 411050, Note_on_c, 0, 57, 0
2, 411201, Note_on_c, 0, 48, 0
2, 411209, Note_on_c, 0, 55, 0
2, 411219, Note_on_c, 0, 62, 0
2, 411244, Note_on_c, 0, 52, 0
2, 411248, Note_on_c, 0, 64, 0
2, 411806, Control_c, 0, 64, 0
2, 411812, Note_on_c, 0, 70, 71
2, 411818, Note_on_c, 0, 82, 53
2, 411840, Note_on_c, 0, 76, 55
2, 411858, Note_on_c, 0, 62, 41
2, 411865, Note_on_c, 0, 82, 0
2, 411870, Note_on_c, 0, 52, 24
2, 411875, Note_on_c, 0, 79, 33
2, 411879, Note_on_c, 0, 55, 28
2, 411883, Note_on_c, 0, 59, 20
2, 411892, Note_on_c, 0, 83, 44
2, 411901, Note_on_c, 0, 70, 0
2, 411909, Note_on_c, 0, 71, 62
2, 412019, Note_on_c, 0, 71, 0
2, 412050, Note_on_c, 0, 76, 0
2, 412069, Note_on_c, 0, 83, 0
2, 412075, Note_on_c, 0, 79, 0
2, 412080, Note_on_c, 0, 52, 0
2, 412087, Note_on_c, 0, 62, 0
2, 412130, Note_on_c, 0, 59, 0
2, 412130, Note_on_c, 0, 55, 0
2, 412188, Note_on_c, 0, 86, 74
2, 412190, Note_on_c, 0, 74, 70
2, 412204, Note_on_c, 0, 62, 51
2, 412207, Note_on_c, 0, 79, 43
2, 412225, Note_on_c, 0, 59, 43
2, 412231, Note_on_c, 0, 55, 36
2, 412251, Note_on_c, 0, 79, 0
2, 412265, Note_on_c, 0, 74, 0
2, 412277, Note_on_c, 0, 86, 0
2, 412278, Note_on_c, 0, 59, 0
2, 412284, Note_on_c, 0, 62, 0
2, 412296, Note_on_c, 0, 55, 0
2, 412510, Note_on_c, 0, 86, 71
2, 412519, Note_on_c, 0, 74, 69
2, 412523, Note_on_c, 0, 79, 62
2, 412528, Note_on_c, 0, 62, 53
2, 412539, Note_on_c, 0, 83, 42
2, 412542, Note_on_c, 0, 59, 26
2, 412544, Note_on_c, 0, 55, 32
2, 412587, Note_on_c, 0, 83, 0
2, 412598, Note_on_c, 0, 79, 0
2, 412599, Note_on_c, 0, 86, 0
2, 412601, Note_on_c, 0, 74, 0
2, 412617, Note_on_c, 0, 62, 0
2, 412671, Note_on_c, 0, 59, 0
2, 412677, Note_on_c, 0, 55, 0
2, 412824, Note_on_c, 0, 82, 61
2, 412828, Note_on_c, 0, 70, 59
2, 412874, Note_on_c, 0, 62, 42
2, 412875, Note_on_c, 0, 76, 34
2, 412880, Note_on_c, 0, 59, 29
2, 412883, Note_on_c, 0, 55, 29
2, 412890, Note_on_c, 0, 83, 58
2, 412908, Note_on_c, 0, 52, 20
2, 412922, Note_on_c, 0, 82, 0
2, 412925, Note_on_c, 0, 70, 0
2, 412930, Note_on_c, 0, 71, 41
2, 413018, Note_on_c, 0, 71, 0
2, 413027, Note_on_c, 0, 83, 0
2, 413057, Note_on_c, 0, 62, 0
2, 413074, Note_on_c, 0, 52, 0
2, 413082, Note_on_c, 0, 76, 0
2, 413087, Note_on_c, 0, 59, 0
2, 413088, Note_on_c, 0, 55, 0
2, 413161, Note_on_c, 0, 67, 41
2, 413169, Note_on_c, 0, 62, 40
2, 413170, Note_on_c, 0, 79, 35
2, 413197, Note_on_c, 0, 55, 29
2, 413201, Note_on_c, 0, 59, 25
2, 413206, Note_on_c, 0, 67, 0
2, 413218, Note_on_c, 0, 62, 0
2, 413256, Note_on_c, 0, 79, 0
2, 413257, Note_on_c, 0, 59, 0
2, 413273, Note_on_c, 0, 55, 0
2, 413580, Note_on_c, 0, 62, 56
2, 413583, Note_on_c, 0, 59, 41
2, 413587, Note_on_c, 0, 79, 51
2, 413588, Note_on_c, 0, 67, 54
2, 413589, Note_on_c, 0, 55, 37
2, 413602, Note_on_c, 0, 74, 47
2, 413615, Note_on_c, 0, 62, 0
2, 413628, Note_on_c, 0, 67, 0
2, 413653, Note_on_c, 0, 74, 0
2, 413673, Note_on_c, 0, 59, 0
2, 413691, Note_on_c, 0, 79, 0
2, 413707, Note_on_c, 0, 55, 0
2, 413931, Note_on_c, 0, 82, 56
2, 413937, Note_on_c, 0, 70, 59
2, 413960, Note_on_c, 0, 76, 55
2, 413962, Note_on_c, 0, 62, 62
2, 413965, Note_on_c, 0, 59, 54
2, 413974, Note_on_c, 0, 52, 36
2, 413986, Note_on_c, 0, 55, 39
2, 414005, Note_on_c, 0, 83, 61
2, 414006, Note_on_c, 0, 71, 71
2, 414009, Note_on_c, 0, 70, 0
2, 414015, Note_on_c, 0, 82, 0
2, 414052, Note_on_c, 0, 62, 0
2, 414081, Note_on_c, 0, 71, 0
2, 414109, Note_on_c, 0, 76, 0
2, 414119, Note_on_c, 0, 83, 0
2, 414122, Note_on_c, 0, 52, 0
2, 414146, Note_on_c, 0, 59, 0
2, 414147, Note_on_c, 0, 55, 0
2, 414252, Note_on_c, 0, 86, 80
2, 414257, Note_on_c, 0, 52, 44
2, 414260, Note_on_c, 0, 59, 46
2, 414262, Note_on_c, 0, 74, 83
2, 414263, Note_on_c, 0, 62, 71
2, 414285, Note_on_c, 0, 55, 24
2, 414317, Note_on_c, 0, 52, 0
2, 414336, Note_on_c, 0, 55, 0
2, 414353, Note_on_c, 0, 74, 0
2, 414357, Note_on_c, 0, 62, 0
2, 414363, Note_on_c, 0, 59, 0
2, 414385, Note_on_c, 0, 86, 0
2, 414569, Note_on_c, 0, 86, 77
2, 414570, Note_on_c, 0, 64, 82
2, 414571, Note_on_c, 0, 55, 72
2, 414575, Note_on_c, 0, 60, 51
2, 414579, Note_on_c, 0, 59, 61
2, 414581, Note_on_c, 0, 74, 81
2, 414618, Note_on_c, 0, 79, 28
2, 414623, Note_on_c, 0, 59, 0
2, 414653, Note_on_c, 0, 64, 0
2, 414656, Note_on_c, 0, 79, 0
2, 414676, Note_on_c, 0, 86, 0
2, 414686, Note_on_c, 0, 55, 0
2, 414702, Note_on_c, 0, 74, 0
2, 414707, Note_on_c, 0, 60, 0
2, 414851, Note_on_c, 0, 82, 67
2, 414860, Note_on_c, 0, 70, 67
2, 414878, Note_on_c, 0, 60, 42
2, 414879, Note_on_c, 0, 64, 63
2, 414883, Note_on_c, 0, 55, 50
2, 414888, Note_on_c, 0, 59, 44
2, 414907, Note_on_c, 0, 83, 55
2, 414941, Note_on_c, 0, 71, 68
2, 414942, Note_on_c, 0, 70, 0
2, 414957, Note_on_c, 0, 82, 0
2, 414961, Note_on_c, 0, 76, 24
2, 415000, Note_on_c, 0, 64, 0
2, 415022, Note_on_c, 0, 55, 0
2, 415045, Note_on_c, 0, 83, 0
2, 415056, Note_on_c, 0, 71, 0
2, 415070, Note_on_c, 0, 59, 0
2, 415081, Note_on_c, 0, 60, 0
2, 415093, Note_on_c, 0, 76, 0
2, 415186, Note_on_c, 0, 60, 36
2, 415191, Note_on_c, 0, 64, 58
2, 415197, Note_on_c, 0, 55, 39
2, 415199, Note_on_c, 0, 79, 47
2, 415206, Note_on_c, 0, 59, 32
2, 415243, Note_on_c, 0, 55, 0
2, 415259, Note_on_c, 0, 59, 0
2, 415268, Note_on_c, 0, 64, 0
2, 415270, Note_on_c, 0, 60, 0
2, 415299, Note_on_c, 0, 79, 0
2, 415495, Note_on_c, 0, 56, 60
2, 415508, Note_on_c, 0, 81, 75
2, 415513, Note_on_c, 0, 69, 80
2, 415518, Note_on_c, 0, 76, 71
2, 415526, Note_on_c, 0, 66, 67
2, 415527, Note_on_c, 0, 78, 38
2, 415532, Note_on_c, 0, 56, 0
2, 415537, Note_on_c, 0, 57, 62
2, 415542, Note_on_c, 0, 62, 57
2, 415561, Note_on_c, 0, 78, 0
2, 415573, Note_on_c, 0, 61, 31
2, 416020, Control_c, 0, 64, 127
2, 416204, Note_on_c, 0, 62, 0
2, 416227, Note_on_c, 0, 66, 0
2, 416286, Note_on_c, 0, 61, 0
2, 416324, Note_on_c, 0, 69, 0
2, 416408, Note_on_c, 0, 57, 0
2, 416456, Note_on_c, 0, 81, 0
2, 416488, Note_on_c, 0, 76, 0
2, 416497, Note_on_c, 0, 71, 32
2, 416519, Control_c, 0, 64, 0
2, 416590, Note_on_c, 0, 71, 0
2, 416634, Note_on_c, 0, 64, 58
2, 416639, Note_on_c, 0, 60, 40
2, 416643, Note_on_c, 0, 79, 74
2, 416645, Note_on_c, 0, 59, 46
2, 416652, Note_on_c, 0, 71, 49
2, 416696, Control_c, 0, 64, 127
2, 416885, Note_on_c, 0, 71, 0
2, 416915, Control_c, 0, 64, 0
2, 416983, Note_on_c, 0, 74, 50
2, 416984, Note_on_c, 0, 71, 34
2, 416992, Note_on_c, 0, 79, 0
2, 417001, Note_on_c, 0, 60, 0
2, 417015, Note_on_c, 0, 59, 0
2, 417031, Control_c, 0, 64, 127
2, 417087, Note_on_c, 0, 64, 0
2, 417107, Note_on_c, 0, 74, 0
2, 417128, Note_on_c, 0, 71, 0
2, 417375, Control_c, 0, 64, 0
2, 417397, Note_on_c, 0, 74, 58
2, 417421, Note_on_c, 0, 71, 56
2, 417422, Note_on_c, 0, 63, 37
2, 417424, Note_on_c, 0, 67, 51
2, 417442, Note_on_c, 0, 62, 54
2, 417444, Note_on_c, 0, 57, 42
2, 417564, Control_c, 0, 64, 127
2, 417720, Note_on_c, 0, 63, 0
2, 417777, Note_on_c, 0, 62, 0
2, 417878, Note_on_c, 0, 67, 0
2, 417881, Note_on_c, 0, 63, 34
2, 417919, Note_on_c, 0, 63, 0
2, 417987, Note_on_c, 0, 71, 0
2, 418013, Note_on_c, 0, 57, 0
2, 418025, Note_on_c, 0, 69, 47
2, 418276, Note_on_c, 0, 74, 0
2, 418492, Note_on_c, 0, 69, 0
2, 418506, Note_on_c, 0, 66, 31
2, 418522, Control_c, 0, 64, 0
2, 418529, Note_on_c, 0, 62, 28
2, 418542, Note_on_c, 0, 52, 18
2, 418547, Note_on_c, 0, 57, 24
2, 418742, Note_on_c, 0, 62, 0
2, 418864, Note_on_c, 0, 66, 0
2, 418891, Note_on_c, 0, 62, 39
2, 418964, Note_on_c, 0, 62, 0
2, 419052, Note_on_c, 0, 64, 30
2, 419059, Note_on_c, 0, 57, 0
2, 419165, Note_on_c, 0, 64, 0
2, 419209, Note_on_c, 0, 66, 44
2, 419317, Note_on_c, 0, 66, 0
2, 419367, Note_on_c, 0, 67, 59
2, 419521, Note_on_c, 0, 67, 0
2, 419809, Note_on_c, 0, 69, 51
2, 419918, Note_on_c, 0, 69, 0
2, 419992, Note_on_c, 0, 70, 34
2, 420029, Note_on_c, 0, 70, 0
2, 420112, Note_on_c, 0, 71, 44
2, 420219, Note_on_c, 0, 71, 0
2, 420273, Note_on_c, 0, 74, 67
2, 420398, Note_on_c, 0, 74, 0
2, 420448, Note_on_c, 0, 78, 49
2, 420489, Note_on_c, 0, 78, 0
2, 420628, Note_on_c, 0, 81, 26
2, 420704, Note_on_c, 0, 81, 0
2, 420780, Note_on_c, 0, 86, 62
2, 420874, Note_on_c, 0, 86, 0
2, 420931, Note_on_c, 0, 90, 61
2, 421043, Note_on_c, 0, 90, 0
2, 421113, Note_on_c, 0, 91, 75
2, 421204, Note_on_c, 0, 91, 0
2, 421259, Note_on_c, 0, 90, 62
2, 421354, Note_on_c, 0, 52, 0
2, 421391, Note_on_c, 0, 90, 0
2, 421454, Note_on_c, 0, 86, 62
2, 421575, Note_on_c, 0, 86, 0
2, 421790, Note_on_c, 0, 81, 38
2, 421862, Note_on_c, 0, 81, 0
2, 421955, Note_on_c, 0, 86, 67
2, 422035, Note_on_c, 0, 86, 0
2, 422115, Note_on_c, 0, 90, 73
2, 422233, Note_on_c, 0, 90, 0
2, 422268, Note_on_c, 0, 91, 78
2, 422279, Note_on_c, 0, 55, 30
2, 422371, Note_on_c, 0, 55, 0
2, 422413, Note_on_c, 0, 90, 61
2, 422451, Note_on_c, 0, 91, 0
2, 422548, Note_on_c, 0, 90, 0
2, 422570, Note_on_c, 0, 86, 51
2, 422687, Note_on_c, 0, 86, 0
2, 422723, Note_on_c, 0, 81, 43
2, 422823, Note_on_c, 0, 81, 0
2, 422871, Note_on_c, 0, 78, 46
2, 422993, Note_on_c, 0, 78, 0
2, 423068, Note_on_c, 0, 74, 31
2, 423118, Note_on_c, 0, 74, 0
2, 423617, Note_on_c, 0, 81, 58
2, 423654, Note_on_c, 0, 57, 50
2, 423657, Note_on_c, 0, 62, 45
2, 423681, Note_on_c, 0, 81, 0
2, 423693, Note_on_c, 0, 62, 0
2, 423703, Note_on_c, 0, 57, 0
2, 423801, Note_on_c, 0, 86, 65
2, 423885, Note_on_c, 0, 86, 0
2, 423951, Note_on_c, 0, 90, 69
2, 424045, Note_on_c, 0, 90, 0
2, 424106, Note_on_c, 0, 91, 80
2, 424246, Note_on_c, 0, 90, 62
2, 424273, Note_on_c, 0, 91, 0
2, 424408, Note_on_c, 0, 86, 60
2, 424432, Note_on_c, 0, 90, 0
2, 424541, Note_on_c, 0, 86, 0
2, 424588, Note_on_c, 0, 81, 52
2, 424705, Note_on_c, 0, 81, 0
2, 424732, Note_on_c, 0, 63, 42
2, 424741, Note_on_c, 0, 59, 34
2, 424761, Note_on_c, 0, 53, 41
2, 424784, Note_on_c, 0, 87, 80
2, 424932, Note_on_c, 0, 87, 0
2, 424971, Note_on_c, 0, 91, 81
2, 425071, Note_on_c, 0, 91, 0
2, 425091, Note_on_c, 0, 63, 0
2, 425140, Note_on_c, 0, 87, 70
2, 425253, Note_on_c, 0, 53, 0
2, 425299, Note_on_c, 0, 83, 68
2, 425323, Note_on_c, 0, 59, 0
2, 425363, Note_on_c, 0, 87, 0
2, 425412, Note_on_c, 0, 83, 0
2, 425470, Note_on_c, 0, 80, 55
2, 425504, Note_on_c, 0, 59, 31
2, 425556, Note_on_c, 0, 80, 0
2, 425591, Note_on_c, 0, 59, 0
2, 425879, Note_on_c, 0, 62, 47
2, 425886, Note_on_c, 0, 59, 28
2, 425891, Note_on_c, 0, 55, 34
2, 425928, Note_on_c, 0, 52, 24
2, 426548, Note_on_c, 0, 62, 0
2, 426588, Note_on_c, 0, 88, 91
2, 426692, Note_on_c, 0, 59, 0
2, 426732, Note_on_c, 0, 52, 0
2, 426790, Note_on_c, 0, 88, 0
2, 426794, Note_on_c, 0, 55, 0
2, 426914, Note_on_c, 0, 59, 44
2, 426944, Note_on_c, 0, 90, 82
2, 426971, Note_on_c, 0, 55, 17
2, 427131, Note_on_c, 0, 90, 0
2, 427154, Note_on_c, 0, 55, 0
2, 427157, Note_on_c, 0, 59, 0
2, 427304, Note_on_c, 0, 91, 96
2, 427450, Note_on_c, 0, 91, 0
2, 427521, Note_on_c, 0, 59, 54
2, 427526, Note_on_c, 0, 90, 75
2, 427542, Note_on_c, 0, 91, 58
2, 427559, Note_on_c, 0, 55, 33
2, 427628, Note_on_c, 0, 91, 0
2, 427672, Note_on_c, 0, 59, 0
2, 427683, Note_on_c, 0, 90, 0
2, 427744, Note_on_c, 0, 55, 0
2, 427746, Note_on_c, 0, 88, 72
2, 427760, Note_on_c, 0, 91, 62
2, 427853, Note_on_c, 0, 91, 0
2, 427907, Note_on_c, 0, 88, 0
2, 427989, Note_on_c, 0, 91, 67
2, 427992, Note_on_c, 0, 86, 72
2, 428013, Note_on_c, 0, 60, 39
2, 428020, Note_on_c, 0, 57, 50
2, 428048, Note_on_c, 0, 55, 24
2, 428058, Note_on_c, 0, 52, 18
2, 428164, Note_on_c, 0, 86, 0
2, 428185, Note_on_c, 0, 91, 0
2, 428207, Note_on_c, 0, 84, 32
2, 428280, Note_on_c, 0, 60, 0
2, 428350, Note_on_c, 0, 57, 0
2, 428448, Note_on_c, 0, 84, 0
2, 428480, Note_on_c, 0, 57, 19
2, 428488, Note_on_c, 0, 83, 47
2, 428586, Note_on_c, 0, 83, 0
2, 428635, Note_on_c, 0, 86, 76
2, 428677, Note_on_c, 0, 57, 0
2, 428690, Note_on_c, 0, 55, 0
2, 428757, Note_on_c, 0, 52, 0
2, 428956, Note_on_c, 0, 86, 0
2, 428965, Note_on_c, 0, 83, 36
2, 428984, Note_on_c, 0, 57, 20
2, 429035, Note_on_c, 0, 83, 0
2, 429074, Note_on_c, 0, 57, 0
2, 429082, Control_c, 0, 64, 127
2, 429107, Note_on_c, 0, 84, 78
2, 429134, Control_c, 0, 64, 0
2, 429290, Note_on_c, 0, 84, 0
2, 429415, Note_on_c, 0, 83, 53
2, 429417, Note_on_c, 0, 81, 52
2, 429429, Note_on_c, 0, 60, 34
2, 429444, Note_on_c, 0, 57, 36
2, 429456, Note_on_c, 0, 52, 20
2, 429472, Note_on_c, 0, 55, 27
2, 429512, Note_on_c, 0, 83, 0
2, 429515, Note_on_c, 0, 52, 0
2, 429521, Note_on_c, 0, 81, 0
2, 429527, Note_on_c, 0, 55, 0
2, 429541, Control_c, 0, 64, 127
2, 429560, Note_on_c, 0, 57, 0
2, 429595, Note_on_c, 0, 78, 38
2, 429606, Note_on_c, 0, 60, 0
2, 429751, Note_on_c, 0, 78, 0
2, 429886, Note_on_c, 0, 74, 58
2, 429937, Control_c, 0, 64, 0
2, 429948, Note_on_c, 0, 74, 0
2, 429996, Note_on_c, 0, 64, 41
2, 429999, Note_on_c, 0, 60, 29
2, 430036, Note_on_c, 0, 59, 39
2, 430042, Note_on_c, 0, 55, 24
2, 430089, Note_on_c, 0, 82, 44
2, 430101, Note_on_c, 0, 70, 45
2, 430182, Note_on_c, 0, 76, 17
2, 430211, Note_on_c, 0, 70, 0
2, 430237, Note_on_c, 0, 71, 34
2, 430241, Note_on_c, 0, 79, 20
2, 430242, Note_on_c, 0, 82, 0
2, 430245, Note_on_c, 0, 83, 49
2, 430306, Note_on_c, 0, 81, 20
2, 430337, Note_on_c, 0, 60, 0
2, 430356, Note_on_c, 0, 83, 0
2, 430372, Note_on_c, 0, 81, 0
2, 430392, Note_on_c, 0, 79, 0
2, 430393, Note_on_c, 0, 71, 0
2, 430400, Note_on_c, 0, 76, 0
2, 430436, Note_on_c, 0, 71, 31
2, 430437, Note_on_c, 0, 83, 59
2, 430449, Note_on_c, 0, 76, 36
2, 430458, Note_on_c, 0, 60, 17
2, 430489, Note_on_c, 0, 79, 28
2, 430573, Note_on_c, 0, 83, 0
2, 430601, Note_on_c, 0, 71, 0
2, 430603, Note_on_c, 0, 79, 0
2, 430608, Note_on_c, 0, 76, 0
2, 430671, Note_on_c, 0, 83, 51
2, 430672, Note_on_c, 0, 60, 0
2, 430684, Note_on_c, 0, 71, 44
2, 430692, Note_on_c, 0, 76, 55
2, 430708, Note_on_c, 0, 55, 0
2, 430715, Note_on_c, 0, 59, 0
2, 430801, Note_on_c, 0, 64, 0
2, 430829, Note_on_c, 0, 83, 0
2, 430846, Note_on_c, 0, 71, 0
2, 430866, Note_on_c, 0, 76, 0
2, 430939, Note_on_c, 0, 83, 55
2, 430952, Note_on_c, 0, 71, 53
2, 430964, Note_on_c, 0, 76, 48
2, 431013, Note_on_c, 0, 76, 0
2, 431017, Note_on_c, 0, 66, 45
2, 431026, Note_on_c, 0, 57, 40
2, 431031, Note_on_c, 0, 83, 0
2, 431039, Note_on_c, 0, 62, 46
2, 431057, Note_on_c, 0, 71, 0
2, 431102, Note_on_c, 0, 66, 0
2, 431191, Note_on_c, 0, 80, 38
2, 431195, Note_on_c, 0, 68, 37
2, 431204, Note_on_c, 0, 73, 29
2, 431259, Note_on_c, 0, 62, 0
2, 431263, Note_on_c, 0, 78, 23
2, 431313, Note_on_c, 0, 68, 0
2, 431322, Note_on_c, 0, 73, 0
2, 431326, Note_on_c, 0, 69, 58
2, 431329, Note_on_c, 0, 80, 0
2, 431338, Note_on_c, 0, 81, 54
2, 431344, Note_on_c, 0, 74, 51
2, 431358, Note_on_c, 0, 57, 0
2, 431366, Note_on_c, 0, 77, 37
2, 431419, Note_on_c, 0, 77, 0
2, 431423, Note_on_c, 0, 69, 0
2, 431436, Note_on_c, 0, 78, 0
2, 431441, Note_on_c, 0, 81, 0
2, 431447, Note_on_c, 0, 74, 0
2, 431537, Note_on_c, 0, 62, 38
2, 431558, Note_on_c, 0, 61, 14
2, 431573, Note_on_c, 0, 81, 69
2, 431579, Note_on_c, 0, 69, 64
2, 431588, Note_on_c, 0, 74, 61
2, 431592, Note_on_c, 0, 62, 0
2, 431612, Note_on_c, 0, 77, 35
2, 431619, Control_c, 0, 64, 127
2, 431644, Note_on_c, 0, 61, 0
2, 431709, Note_on_c, 0, 69, 0
2, 431717, Note_on_c, 0, 77, 0
2, 431721, Note_on_c, 0, 81, 0
2, 431730, Note_on_c, 0, 74, 0
2, 431863, Note_on_c, 0, 81, 64
2, 431882, Note_on_c, 0, 69, 44
2, 431885, Note_on_c, 0, 74, 57
2, 431912, Note_on_c, 0, 77, 34
2, 431992, Control_c, 0, 64, 0
2, 431996, Note_on_c, 0, 69, 0
2, 432010, Note_on_c, 0, 81, 0
2, 432015, Note_on_c, 0, 77, 0
2, 432048, Note_on_c, 0, 74, 0
2, 432115, Note_on_c, 0, 79, 51
2, 432145, Note_on_c, 0, 67, 41
2, 432150, Note_on_c, 0, 74, 26
2, 432263, Note_on_c, 0, 67, 0
2, 432268, Note_on_c, 0, 74, 0
2, 432308, Note_on_c, 0, 79, 0
2, 432503, Note_on_c, 0, 79, 53
2, 432508, Note_on_c, 0, 76, 56
2, 432513, Note_on_c, 0, 67, 51
2, 432515, Control_c, 0, 64, 127
2, 432764, Note_on_c, 0, 67, 0
2, 432833, Note_on_c, 0, 79, 0
2, 432866, Note_on_c, 0, 76, 0
2, 433213, Control_c, 0, 64, 0
2, 433259, Note_on_c, 0, 56, 58
2, 433266, Note_on_c, 0, 75, 62
2, 433269, Note_on_c, 0, 63, 60
2, 433270, Note_on_c, 0, 79, 70
2, 433276, Note_on_c, 0, 72, 70
2, 433277, Note_on_c, 0, 60, 44
2, 433278, Note_on_c, 0, 67, 71
2, 433431, Control_c, 0, 64, 127
2, 433439, Note_on_c, 0, 60, 0
2, 433441, Note_on_c, 0, 67, 0
2, 433446, Note_on_c, 0, 72, 0
2, 433448, Note_on_c, 0, 56, 0
2, 433469, Note_on_c, 0, 79, 0
2, 433480, Note_on_c, 0, 63, 0
2, 433495, Note_on_c, 0, 75, 0
2, 433570, Note_on_c, 0, 56, 61
2, 433576, Note_on_c, 0, 63, 47
2, 433584, Note_on_c, 0, 75, 52
2, 433587, Note_on_c, 0, 79, 50
2, 433588, Note_on_c, 0, 60, 20
2, 433596, Note_on_c, 0, 72, 64
2, 433605, Note_on_c, 0, 67, 53
2, 433695, Note_on_c, 0, 60, 0
2, 433698, Note_on_c, 0, 79, 0
2, 433734, Note_on_c, 0, 63, 0
2, 433749, Note_on_c, 0, 72, 0
2, 433765, Note_on_c, 0, 56, 0
2, 433778, Note_on_c, 0, 67, 0
2, 433856, Note_on_c, 0, 75, 0
2, 433869, Control_c, 0, 64, 0
2, 433939, Note_on_c, 0, 55, 40
2, 433941, Note_on_c, 0, 76, 59
2, 433950, Note_on_c, 0, 67, 55
2, 433951, Note_on_c, 0, 66, 62
2, 433953, Note_on_c, 0, 62, 58
2, 433954, Note_on_c, 0, 71, 51
2, 433963, Note_on_c, 0, 74, 58
2, 433970, Note_on_c, 0, 59, 49
2, 434048, Control_c, 0, 64, 127
2, 434126, Note_on_c, 0, 66, 0
2, 434146, Note_on_c, 0, 74, 0
2, 434149, Note_on_c, 0, 62, 0
2, 434167, Note_on_c, 0, 76, 0
2, 434175, Note_on_c, 0, 71, 0
2, 434193, Note_on_c, 0, 67, 0
2, 434198, Note_on_c, 0, 59, 0
2, 434214, Note_on_c, 0, 55, 0
2, 434772, Note_on_c, 0, 45, 56
2, 434775, Note_on_c, 0, 52, 48
2, 434777, Note_on_c, 0, 59, 36
2, 434778, Note_on_c, 0, 55, 44
2, 434793, Note_on_c, 0, 64, 42
2, 434794, Note_on_c, 0, 65, 38
2, 434799, Note_on_c, 0, 60, 33
2, 434819, Control_c, 0, 64, 0
2, 434821, Note_on_c, 0, 62, 43
2, 434837, Note_on_c, 0, 60, 0
2, 434882, Note_on_c, 0, 65, 0
2, 434964, Note_on_c, 0, 45, 0
2, 434965, Note_on_c, 0, 55, 0
2, 434969, Note_on_c, 0, 52, 0
2, 434984, Note_on_c, 0, 59, 0
2, 434990, Note_on_c, 0, 64, 0
2, 434998, Note_on_c, 0, 62, 0
2, 435071, Note_on_c, 0, 64, 31
2, 435076, Note_on_c, 0, 55, 40
2, 435085, Note_on_c, 0, 45, 44
2, 435087, Note_on_c, 0, 59, 42
2, 435094, Note_on_c, 0, 52, 41
2, 435097, Note_on_c, 0, 62, 42
2, 435099, Control_c, 0, 64, 127
2, 435288, Note_on_c, 0, 55, 0
2, 435307, Note_on_c, 0, 59, 0
2, 435315, Note_on_c, 0, 62, 0
2, 435320, Control_c, 0, 64, 0
2, 435324, Note_on_c, 0, 45, 0
2, 435332, Note_on_c, 0, 52, 0
2, 435335, Note_on_c, 0, 64, 0
2, 435428, Note_on_c, 0, 64, 42
2, 435439, Note_on_c, 0, 55, 32
2, 435440, Note_on_c, 0, 45, 39
2, 435449, Note_on_c, 0, 52, 43
2, 435455, Control_c, 0, 64, 127
2, 435462, Note_on_c, 0, 59, 27
2, 435486, Note_on_c, 0, 62, 32
2, 435618, Note_on_c, 0, 55, 0
2, 435633, Control_c, 0, 64, 0
2, 435634, Note_on_c, 0, 45, 0
2, 435639, Note_on_c, 0, 64, 0
2, 435647, Note_on_c, 0, 59, 0
2, 435650, Note_on_c, 0, 62, 0
2, 435661, Note_on_c, 0, 52, 0
2, 435741, Note_on_c, 0, 64, 62
2, 435748, Note_on_c, 0, 55, 50
2, 435754, Note_on_c, 0, 59, 42
2, 435755, Note_on_c, 0, 62, 50
2, 435764, Note_on_c, 0, 52, 46
2, 435766, Note_on_c, 0, 45, 55
2, 435831, Control_c, 0, 64, 127
2, 435878, Note_on_c, 0, 55, 0
2, 435888, Note_on_c, 0, 52, 0
2, 435893, Note_on_c, 0, 59, 0
2, 435903, Note_on_c, 0, 45, 0
2, 435904, Note_on_c, 0, 62, 0
2, 435910, Note_on_c, 0, 64, 0
2, 436143, Control_c, 0, 64, 0
2, 436191, Note_on_c, 0, 64, 62
2, 436197, Note_on_c, 0, 55, 65
2, 436198, Note_on_c, 0, 52, 69
2, 436200, Note_on_c, 0, 45, 66
2, 436205, Note_on_c, 0, 59, 57
2, 436210, Note_on_c, 0, 62, 66
2, 436313, Note_on_c, 0, 55, 0
2, 436329, Note_on_c, 0, 52, 0
2, 436337, Note_on_c, 0, 59, 0
2, 436342, Note_on_c, 0, 45, 0
2, 436347, Note_on_c, 0, 62, 0
2, 436350, Note_on_c, 0, 64, 0
2, 436409, Note_on_c, 0, 45, 32
2, 436413, Note_on_c, 0, 55, 40
2, 436414, Note_on_c, 0, 64, 27
2, 436419, Note_on_c, 0, 52, 53
2, 436435, Note_on_c, 0, 59, 38
2, 436441, Note_on_c, 0, 62, 38
2, 436552, Note_on_c, 0, 55, 0
2, 436578, Note_on_c, 0, 52, 0
2, 436589, Note_on_c, 0, 45, 0
2, 436591, Note_on_c, 0, 64, 0
2, 436593, Note_on_c, 0, 59, 0
2, 436600, Note_on_c, 0, 62, 0
2, 436696, Note_on_c, 0, 64, 69
2, 436700, Note_on_c, 0, 52, 68
2, 436701, Note_on_c, 0, 45, 63
2, 436705, Note_on_c, 0, 55, 72
2, 436714, Note_on_c, 0, 59, 56
2, 436720, Note_on_c, 0, 62, 52
2, 436824, Note_on_c, 0, 55, 0
2, 436838, Note_on_c, 0, 52, 0
2, 436841, Control_c, 0, 64, 127
2, 436852, Note_on_c, 0, 59, 0
2, 436853, Note_on_c, 0, 62, 0
2, 436859, Note_on_c, 0, 64, 0
2, 436889, Note_on_c, 0, 45, 0
2, 436904, Note_on_c, 0, 64, 19
2, 436922, Note_on_c, 0, 55, 33
2, 436927, Note_on_c, 0, 59, 37
2, 436947, Note_on_c, 0, 62, 31
2, 437064, Note_on_c, 0, 62, 0
2, 437066, Note_on_c, 0, 64, 0
2, 437088, Note_on_c, 0, 59, 0
2, 437097, Note_on_c, 0, 55, 0
2, 437195, Control_c, 0, 64, 0
2, 437200, Note_on_c, 0, 38, 37
2, 437252, Note_on_c, 0, 38, 0
2, 437315, Note_on_c, 0, 32, 64
2, 437321, Note_on_c, 0, 54, 55
2, 437325, Note_on_c, 0, 44, 58
2, 437330, Control_c, 0, 64, 127
2, 437341, Note_on_c, 0, 63, 26
2, 437347, Note_on_c, 0, 58, 51
2, 437351, Note_on_c, 0, 42, 37
2, 437387, Note_on_c, 0, 42, 0
2, 437499, Note_on_c, 0, 63, 0
2, 437529, Control_c, 0, 64, 0
2, 437530, Note_on_c, 0, 58, 0
2, 437537, Note_on_c, 0, 44, 0
2, 437546, Note_on_c, 0, 54, 0
2, 437568, Note_on_c, 0, 32, 0
2, 437636, Note_on_c, 0, 64, 74
2, 437646, Note_on_c, 0, 43, 66
2, 437647, Note_on_c, 0, 53, 58
2, 437649, Note_on_c, 0, 57, 68
2, 437661, Note_on_c, 0, 31, 54
2, 437662, Note_on_c, 0, 60, 46
2, 437692, Note_on_c, 0, 62, 45
2, 437748, Control_c, 0, 64, 127
2, 437749, Note_on_c, 0, 53, 0
2, 437818, Note_on_c, 0, 57, 0
2, 438011, Note_on_c, 0, 60, 0
2, 438065, Note_on_c, 0, 43, 0
2, 438118, Note_on_c, 0, 62, 0
2, 438125, Note_on_c, 0, 64, 0
2, 438164, Note_on_c, 0, 43, 28
2, 438200, Note_on_c, 0, 31, 0
2, 438248, Note_on_c, 0, 43, 0
2, 438749, Control_c, 0, 64, 0
2, 438764, Note_on_c, 0, 76, 81
2, 438771, Note_on_c, 0, 69, 80
2, 438774, Note_on_c, 0, 65, 84
2, 438776, Note_on_c, 0, 72, 62
2, 438777, Note_on_c, 0, 64, 83
2, 439045, Note_on_c, 0, 65, 0
2, 439047, Note_on_c, 0, 69, 0
2, 439048, Note_on_c, 0, 72, 0
2, 439089, Note_on_c, 0, 76, 0
2, 439094, Note_on_c, 0, 64, 0
2, 439144, Note_on_c, 0, 62, 42
2, 439194, Note_on_c, 0, 62, 0
2, 439239, Control_c, 0, 64, 127
2, 439245, Note_on_c, 0, 76, 62
2, 439255, Note_on_c, 0, 69, 62
2, 439256, Note_on_c, 0, 65, 68
2, 439258, Note_on_c, 0, 64, 62
2, 439266, Note_on_c, 0, 72, 47
2, 439366, Note_on_c, 0, 65, 0
2, 439374, Note_on_c, 0, 74, 15
2, 439389, Note_on_c, 0, 64, 0
2, 439392, Note_on_c, 0, 69, 0
2, 439430, Note_on_c, 0, 72, 0
2, 439447, Note_on_c, 0, 74, 0
2, 439447, Note_on_c, 0, 76, 0
2, 439541, Control_c, 0, 64, 0
2, 439589, Note_on_c, 0, 67, 80
2, 439592, Note_on_c, 0, 72, 79
2, 439593, Note_on_c, 0, 79, 77
2, 439596, Note_on_c, 0, 69, 79
2, 439608, Note_on_c, 0, 76, 57
2, 439655, Note_on_c, 0, 76, 0
2, 439680, Note_on_c, 0, 69, 0
2, 439688, Note_on_c, 0, 67, 0
2, 439698, Note_on_c, 0, 72, 0
2, 439710, Note_on_c, 0, 79, 0
2, 440038, Note_on_c, 0, 76, 63
2, 440047, Note_on_c, 0, 69, 64
2, 440048, Note_on_c, 0, 64, 79
2, 440054, Note_on_c, 0, 72, 53
2, 440056, Note_on_c, 0, 65, 56
2, 440095, Note_on_c, 0, 72, 0
2, 440128, Note_on_c, 0, 65, 0
2, 440130, Note_on_c, 0, 69, 0
2, 440135, Note_on_c, 0, 64, 0
2, 440142, Note_on_c, 0, 76, 0
2, 440401, Note_on_c, 0, 72, 49
2, 440409, Note_on_c, 0, 60, 47
2, 440414, Note_on_c, 0, 65, 57
2, 440419, Note_on_c, 0, 62, 54
2, 440443, Note_on_c, 0, 69, 32
2, 440550, Note_on_c, 0, 69, 0
2, 440560, Note_on_c, 0, 62, 0
2, 440596, Note_on_c, 0, 65, 0
2, 440599, Note_on_c, 0, 72, 0
2, 440637, Note_on_c, 0, 60, 0
2, 440645, Control_c, 0, 64, 127
2, 440653, Note_on_c, 0, 57, 50
2, 440675, Note_on_c, 0, 69, 34
2, 440690, Note_on_c, 0, 62, 31
2, 440691, Note_on_c, 0, 65, 51
2, 440796, Note_on_c, 0, 62, 0
2, 440950, Note_on_c, 0, 69, 0
2, 440960, Note_on_c, 0, 57, 0
2, 441002, Note_on_c, 0, 65, 0
2, 441026, Note_on_c, 0, 62, 40
2, 441089, Note_on_c, 0, 62, 0
2, 441312, Control_c, 0, 64, 0
2, 441378, Note_on_c, 0, 70, 49
2, 441387, Note_on_c, 0, 63, 56
2, 441389, Note_on_c, 0, 60, 50
2, 441396, Note_on_c, 0, 67, 55
2, 441406, Note_on_c, 0, 58, 46
2, 441554, Control_c, 0, 64, 127
2, 441656, Note_on_c, 0, 67, 0
2, 441681, Note_on_c, 0, 60, 0
2, 441751, Note_on_c, 0, 70, 0
2, 441763, Note_on_c, 0, 63, 0
2, 441806, Note_on_c, 0, 58, 0
2, 441819, Note_on_c, 0, 63, 29
2, 441823, Note_on_c, 0, 60, 33
2, 441829, Note_on_c, 0, 68, 47
2, 441847, Note_on_c, 0, 56, 56
2, 441867, Note_on_c, 0, 60, 0
2, 441904, Note_on_c, 0, 63, 0
2, 441930, Note_on_c, 0, 68, 0
2, 441934, Note_on_c, 0, 56, 0
2, 442376, Control_c, 0, 64, 0
2, 442388, Note_on_c, 0, 67, 54
2, 442389, Note_on_c, 0, 79, 54
2, 442390, Note_on_c, 0, 68, 59
2, 442392, Note_on_c, 0, 72, 64
2, 442410, Note_on_c, 0, 75, 48
2, 442536, Note_on_c, 0, 79, 0
2, 442551, Note_on_c, 0, 72, 0
2, 442570, Note_on_c, 0, 67, 0
2, 442572, Note_on_c, 0, 75, 0
2, 442576, Note_on_c, 0, 68, 0
2, 442872, Note_on_c, 0, 75, 62
2, 442885, Note_on_c, 0, 63, 53
2, 442888, Note_on_c, 0, 68, 55
2, 442897, Note_on_c, 0, 65, 60
2, 442904, Note_on_c, 0, 72, 50
2, 443287, Note_on_c, 0, 63, 0
2, 443304, Note_on_c, 0, 72, 0
2, 443345, Note_on_c, 0, 75, 0
2, 443366, Note_on_c, 0, 65, 0
2, 443385, Note_on_c, 0, 60, 33
2, 443430, Note_on_c, 0, 68, 0
2, 443487, Note_on_c, 0, 60, 0
2, 443527, Note_on_c, 0, 74, 57
2, 443530, Note_on_c, 0, 68, 39
2, 443534, Note_on_c, 0, 65, 56
2, 443555, Note_on_c, 0, 62, 42
2, 443632, Note_on_c, 0, 74, 0
2, 443697, Note_on_c, 0, 65, 0
2, 443735, Note_on_c, 0, 68, 0
2, 443788, Note_on_c, 0, 62, 0
2, 443822, Note_on_c, 0, 73, 53
2, 443831, Note_on_c, 0, 68, 54
2, 443834, Note_on_c, 0, 61, 50
2, 443847, Note_on_c, 0, 65, 58
2, 443926, Note_on_c, 0, 73, 0
2, 443960, Note_on_c, 0, 68, 0
2, 443970, Note_on_c, 0, 61, 0
2, 444001, Note_on_c, 0, 60, 35
2, 444043, Note_on_c, 0, 65, 0
2, 444238, Note_on_c, 0, 60, 0
2, 444342, Note_on_c, 0, 54, 36
2, 444418, Note_on_c, 0, 54, 0
2, 444445, Note_on_c, 0, 60, 63
2, 444448, Note_on_c, 0, 70, 62
2, 444453, Note_on_c, 0, 63, 64
2, 444521, Note_on_c, 0, 58, 20
2, 444613, Note_on_c, 0, 58, 0
2, 444728, Note_on_c, 0, 63, 0
2, 444733, Note_on_c, 0, 60, 0
2, 444757, Note_on_c, 0, 70, 0
2, 444787, Note_on_c, 0, 68, 62
2, 444788, Note_on_c, 0, 60, 50
2, 444792, Note_on_c, 0, 63, 67
2, 444901, Note_on_c, 0, 56, 50
2, 444912, Note_on_c, 0, 60, 0
2, 444920, Note_on_c, 0, 68, 0
2, 444943, Note_on_c, 0, 63, 0
2, 445140, Control_c, 0, 64, 127
2, 445239, Note_on_c, 0, 56, 0
2, 445273, Note_on_c, 0, 52, 52
2, 445316, Control_c, 0, 64, 0
2, 445363, Note_on_c, 0, 52, 0
2, 445421, Note_on_c, 0, 55, 55
2, 445424, Note_on_c, 0, 66, 57
2, 445437, Note_on_c, 0, 62, 59
2, 445440, Note_on_c, 0, 45, 64
2, 445444, Note_on_c, 0, 59, 49
2, 445525, Control_c, 0, 64, 127
2, 445607, Note_on_c, 0, 55, 0
2, 445654, Note_on_c, 0, 45, 0
2, 445692, Note_on_c, 0, 62, 0
2, 445693, Note_on_c, 0, 59, 0
2, 445771, Note_on_c, 0, 66, 0
2, 445941, Note_on_c, 0, 63, 32
2, 446086, Note_on_c, 0, 63, 0
2, 446262, Note_on_c, 0, 79, 66
2, 446267, Note_on_c, 0, 62, 64
2, 446269, Note_on_c, 0, 55, 58
2, 446270, Note_on_c, 0, 67, 50
2, 446271, Note_on_c, 0, 66, 64
2, 446294, Note_on_c, 0, 69, 32
2, 446297, Note_on_c, 0, 59, 46
2, 446305, Note_on_c, 0, 78, 26
2, 446335, Note_on_c, 0, 69, 0
2, 446342, Note_on_c, 0, 78, 0
2, 446421, Note_on_c, 0, 67, 0
2, 446454, Note_on_c, 0, 79, 0
2, 446479, Note_on_c, 0, 66, 0
2, 446481, Note_on_c, 0, 55, 0
2, 446512, Note_on_c, 0, 62, 0
2, 446519, Note_on_c, 0, 59, 0
2, 446703, Note_on_c, 0, 81, 75
2, 446704, Note_on_c, 0, 69, 82
2, 446706, Note_on_c, 0, 62, 66
2, 446708, Note_on_c, 0, 55, 54
2, 446709, Note_on_c, 0, 66, 62
2, 446730, Note_on_c, 0, 59, 49
2, 446976, Note_on_c, 0, 55, 0
2, 446984, Note_on_c, 0, 69, 0
2, 446994, Note_on_c, 0, 66, 0
2, 447005, Note_on_c, 0, 81, 0
2, 447017, Note_on_c, 0, 62, 0
2, 447033, Note_on_c, 0, 59, 0
2, 447142, Control_c, 0, 64, 0
2, 447163, Note_on_c, 0, 83, 80
2, 447170, Note_on_c, 0, 71, 72
2, 447180, Note_on_c, 0, 55, 59
2, 447184, Note_on_c, 0, 66, 64
2, 447189, Note_on_c, 0, 62, 64
2, 447201, Note_on_c, 0, 59, 51
2, 447203, Note_on_c, 0, 82, 44
2, 447241, Note_on_c, 0, 82, 0
2, 447298, Control_c, 0, 64, 127
2, 447395, Note_on_c, 0, 83, 0
2, 447396, Note_on_c, 0, 71, 0
2, 447429, Note_on_c, 0, 55, 0
2, 447436, Note_on_c, 0, 66, 0
2, 447454, Note_on_c, 0, 62, 0
2, 447474, Note_on_c, 0, 59, 0
2, 447642, Control_c, 0, 64, 0
2, 447650, Note_on_c, 0, 85, 57
2, 447653, Note_on_c, 0, 73, 52
2, 447669, Note_on_c, 0, 66, 56
2, 447671, Note_on_c, 0, 55, 44
2, 447677, Note_on_c, 0, 62, 56
2, 447682, Note_on_c, 0, 59, 41
2, 447799, Control_c, 0, 64, 127
2, 447831, Note_on_c, 0, 66, 0
2, 447848, Note_on_c, 0, 62, 0
2, 447856, Note_on_c, 0, 55, 0
2, 447864, Note_on_c, 0, 73, 0
2, 447869, Note_on_c, 0, 59, 0
2, 447909, Note_on_c, 0, 85, 0
2, 448114, Note_on_c, 0, 86, 51
2, 448119, Note_on_c, 0, 66, 55
2, 448123, Note_on_c, 0, 74, 62
2, 448135, Note_on_c, 0, 62, 60
2, 448136, Note_on_c, 0, 55, 37
2, 448148, Note_on_c, 0, 84, 32
2, 448158, Note_on_c, 0, 59, 40
2, 448209, Note_on_c, 0, 74, 0
2, 448210, Note_on_c, 0, 84, 0
2, 448213, Control_c, 0, 64, 0
2, 448227, Note_on_c, 0, 86, 0
2, 448253, Note_on_c, 0, 66, 0
2, 448293, Note_on_c, 0, 55, 0
2, 448301, Note_on_c, 0, 62, 0
2, 448315, Note_on_c, 0, 59, 0
2, 448338, Control_c, 0, 64, 127
2, 448579, Control_c, 0, 64, 0
2, 448603, Note_on_c, 0, 76, 60
2, 448606, Note_on_c, 0, 62, 55
2, 448607, Note_on_c, 0, 88, 41
2, 448616, Note_on_c, 0, 66, 42
2, 448629, Note_on_c, 0, 59, 36
2, 448633, Note_on_c, 0, 86, 29
2, 448658, Note_on_c, 0, 66, 0
2, 448674, Note_on_c, 0, 86, 0
2, 448694, Note_on_c, 0, 76, 0
2, 448704, Note_on_c, 0, 88, 0
2, 448728, Note_on_c, 0, 62, 0
2, 448766, Control_c, 0, 64, 127
2, 448790, Note_on_c, 0, 59, 0
2, 448970, Note_on_c, 0, 88, 54
2, 448972, Note_on_c, 0, 76, 58
2, 449003, Note_on_c, 0, 65, 34
2, 449006, Note_on_c, 0, 61, 41
2, 449009, Note_on_c, 0, 76, 0
2, 449012, Note_on_c, 0, 88, 0
2, 449044, Note_on_c, 0, 65, 0
2, 449051, Note_on_c, 0, 61, 0
2, 449118, Note_on_c, 0, 89, 58
2, 449127, Note_on_c, 0, 77, 49
2, 449153, Control_c, 0, 64, 0
2, 449184, Note_on_c, 0, 77, 0
2, 449211, Note_on_c, 0, 89, 0
2, 449285, Note_on_c, 0, 64, 64
2, 449289, Note_on_c, 0, 54, 36
2, 449291, Note_on_c, 0, 90, 66
2, 449295, Note_on_c, 0, 83, 61
2, 449298, Note_on_c, 0, 78, 61
2, 449299, Note_on_c, 0, 56, 60
2, 449316, Note_on_c, 0, 88, 39
2, 449331, Note_on_c, 0, 59, 50
2, 449353, Control_c, 0, 64, 127
2, 449736, Note_on_c, 0, 83, 0
2, 449777, Note_on_c, 0, 78, 0
2, 449803, Note_on_c, 0, 54, 0
2, 449804, Note_on_c, 0, 90, 0
2, 449817, Note_on_c, 0, 64, 0
2, 449821, Note_on_c, 0, 59, 0
2, 449826, Note_on_c, 0, 56, 0
2, 449838, Note_on_c, 0, 88, 0
2, 449974, Note_on_c, 0, 64, 55
2, 449978, Note_on_c, 0, 91, 53
2, 449994, Note_on_c, 0, 56, 32
2, 449996, Note_on_c, 0, 59, 22
2, 450014, Note_on_c, 0, 64, 0
2, 450025, Note_on_c, 0, 91, 0
2, 450042, Note_on_c, 0, 59, 0
2, 450046, Note_on_c, 0, 56, 0
2, 450052, Control_c, 0, 64, 0
2, 450129, Note_on_c, 0, 59, 44
2, 450131, Note_on_c, 0, 92, 71
2, 450133, Note_on_c, 0, 56, 55
2, 450140, Note_on_c, 0, 64, 32
2, 450166, Note_on_c, 0, 92, 0
2, 450179, Note_on_c, 0, 59, 0
2, 450189, Note_on_c, 0, 56, 0
2, 450192, Note_on_c, 0, 64, 0
2, 450283, Note_on_c, 0, 93, 77
2, 450285, Note_on_c, 0, 59, 56
2, 450288, Note_on_c, 0, 81, 69
2, 450289, Note_on_c, 0, 64, 74
2, 450290, Note_on_c, 0, 54, 62
2, 450292, Note_on_c, 0, 56, 61
2, 450314, Note_on_c, 0, 86, 42
2, 450365, Control_c, 0, 64, 127
2, 450536, Note_on_c, 0, 86, 0
2, 450565, Note_on_c, 0, 54, 0
2, 450586, Note_on_c, 0, 64, 0
2, 450588, Note_on_c, 0, 81, 0
2, 450590, Note_on_c, 0, 56, 0
2, 450597, Note_on_c, 0, 59, 0
2, 450607, Note_on_c, 0, 93, 0
2, 450717, Note_on_c, 0, 94, 62
2, 450723, Note_on_c, 0, 59, 24
2, 450728, Note_on_c, 0, 64, 53
2, 450729, Note_on_c, 0, 54, 42
2, 450731, Note_on_c, 0, 87, 55
2, 450734, Note_on_c, 0, 82, 50
2, 450739, Note_on_c, 0, 56, 42
2, 450790, Note_on_c, 0, 87, 0
2, 450793, Note_on_c, 0, 82, 0
2, 450809, Note_on_c, 0, 64, 0
2, 450828, Note_on_c, 0, 59, 0
2, 450844, Note_on_c, 0, 54, 0
2, 450855, Note_on_c, 0, 94, 0
2, 450863, Note_on_c, 0, 56, 0
2, 451035, Control_c, 0, 64, 0
2, 451075, Note_on_c, 0, 63, 62
2, 451081, Note_on_c, 0, 59, 46
2, 451086, Note_on_c, 0, 95, 71
2, 451089, Note_on_c, 0, 53, 45
2, 451091, Note_on_c, 0, 83, 68
2, 451254, Control_c, 0, 64, 127
2, 451266, Note_on_c, 0, 63, 0
2, 451296, Note_on_c, 0, 59, 0
2, 451312, Note_on_c, 0, 95, 0
2, 451320, Note_on_c, 0, 83, 0
2, 451326, Note_on_c, 0, 53, 0
2, 451515, Control_c, 0, 64, 0
2, 451559, Note_on_c, 0, 62, 42
2, 451561, Note_on_c, 0, 97, 57
2, 451574, Note_on_c, 0, 53, 32
2, 451575, Note_on_c, 0, 59, 37
2, 451576, Note_on_c, 0, 85, 47
2, 451585, Note_on_c, 0, 55, 44
2, 451703, Control_c, 0, 64, 127
2, 451782, Note_on_c, 0, 59, 0
2, 451795, Note_on_c, 0, 85, 0
2, 451800, Note_on_c, 0, 55, 0
2, 451802, Note_on_c, 0, 97, 0
2, 451804, Note_on_c, 0, 62, 0
2, 451812, Note_on_c, 0, 53, 0
2, 451984, Control_c, 0, 64, 0
2, 452039, Note_on_c, 0, 98, 56
2, 452047, Note_on_c, 0, 62, 49
2, 452051, Note_on_c, 0, 86, 36
2, 452060, Note_on_c, 0, 59, 36
2, 452061, Note_on_c, 0, 55, 33
2, 452064, Note_on_c, 0, 53, 31
2, 452146, Note_on_c, 0, 86, 0
2, 452150, Control_c, 0, 64, 127
2, 452172, Note_on_c, 0, 98, 0
2, 452227, Note_on_c, 0, 62, 0
2, 452233, Note_on_c, 0, 55, 0
2, 452240, Note_on_c, 0, 59, 0
2, 452251, Note_on_c, 0, 53, 0
2, 452506, Note_on_c, 0, 100, 49
2, 452529, Note_on_c, 0, 62, 51
2, 452534, Note_on_c, 0, 59, 40
2, 452535, Note_on_c, 0, 88, 31
2, 452543, Note_on_c, 0, 55, 32
2, 452573, Note_on_c, 0, 62, 0
2, 452580, Note_on_c, 0, 88, 0
2, 452581, Note_on_c, 0, 100, 0
2, 452595, Note_on_c, 0, 55, 0
2, 452606, Note_on_c, 0, 59, 0
2, 452704, Note_on_c, 0, 102, 52
2, 452707, Note_on_c, 0, 90, 40
2, 452714, Note_on_c, 0, 55, 34
2, 452717, Note_on_c, 0, 53, 30
2, 452727, Note_on_c, 0, 62, 33
2, 452729, Note_on_c, 0, 59, 27
2, 452818, Note_on_c, 0, 62, 0
2, 452848, Note_on_c, 0, 59, 0
2, 452863, Note_on_c, 0, 53, 0
2, 452868, Note_on_c, 0, 102, 0
2, 452871, Note_on_c, 0, 90, 0
2, 452889, Note_on_c, 0, 55, 0
2, 452982, Note_on_c, 0, 53, 34
2, 452994, Note_on_c, 0, 62, 37
2, 452999, Note_on_c, 0, 59, 30
2, 453000, Note_on_c, 0, 55, 41
2, 453001, Note_on_c, 0, 91, 60
2, 453006, Note_on_c, 0, 103, 57
2, 453046, Note_on_c, 0, 62, 0
2, 453054, Note_on_c, 0, 59, 0
2, 453075, Note_on_c, 0, 91, 0
2, 453076, Note_on_c, 0, 55, 0
2, 453080, Note_on_c, 0, 53, 0
2, 453089, Note_on_c, 0, 103, 0
2, 453161, Control_c, 0, 64, 0
2, 453202, Note_on_c, 0, 62, 39
2, 453224, Note_on_c, 0, 55, 22
2, 453226, Note_on_c, 0, 93, 57
2, 453228, Note_on_c, 0, 105, 58
2, 453256, Note_on_c, 0, 98, 34
2, 453261, Note_on_c, 0, 52, 24
2, 453268, Note_on_c, 0, 59, 17
2, 453329, Note_on_c, 0, 98, 0
2, 453330, Note_on_c, 0, 93, 0
2, 453376, Note_on_c, 0, 62, 0
2, 453397, Note_on_c, 0, 105, 0
2, 453430, Note_on_c, 0, 52, 0
2, 453435, Note_on_c, 0, 55, 0
2, 453464, Note_on_c, 0, 59, 0
2, 453636, Note_on_c, 0, 105, 64
2, 453643, Note_on_c, 0, 59, 27
2, 453645, Note_on_c, 0, 52, 29
2, 453646, Note_on_c, 0, 55, 36
2, 453661, Note_on_c, 0, 62, 32
2, 453678, Note_on_c, 0, 93, 17
2, 453698, Note_on_c, 0, 98, 25
2, 453825, Note_on_c, 0, 62, 0
2, 453836, Note_on_c, 0, 55, 0
2, 453850, Note_on_c, 0, 93, 0
2, 453861, Note_on_c, 0, 98, 0
2, 453869, Note_on_c, 0, 52, 0
2, 453871, Note_on_c, 0, 105, 0
2, 453880, Note_on_c, 0, 59, 0
2, 454107, Note_on_c, 0, 59, 32
2, 454116, Note_on_c, 0, 105, 55
2, 454121, Note_on_c, 0, 52, 37
2, 454125, Note_on_c, 0, 55, 40
2, 454130, Note_on_c, 0, 62, 37
2, 454140, Note_on_c, 0, 98, 35
2, 454142, Note_on_c, 0, 93, 29
2, 454245, Control_c, 0, 64, 127
2, 454300, Note_on_c, 0, 62, 0
2, 454305, Note_on_c, 0, 93, 0
2, 454309, Note_on_c, 0, 52, 0
2, 454312, Note_on_c, 0, 105, 0
2, 454319, Note_on_c, 0, 55, 0
2, 454346, Note_on_c, 0, 98, 0
2, 454347, Note_on_c, 0, 59, 0
2, 454436, Note_on_c, 0, 59, 38
2, 454438, Note_on_c, 0, 103, 49
2, 454442, Note_on_c, 0, 62, 46
2, 454447, Note_on_c, 0, 98, 40
2, 454448, Note_on_c, 0, 55, 31
2, 454455, Note_on_c, 0, 52, 26
2, 454485, Control_c, 0, 64, 0
2, 454507, Note_on_c, 0, 103, 0
2, 454511, Note_on_c, 0, 52, 0
2, 454519, Note_on_c, 0, 62, 0
2, 454554, Note_on_c, 0, 98, 0
2, 454618, Note_on_c, 0, 62, 31
2, 454627, Note_on_c, 0, 52, 31
2, 454636, Note_on_c, 0, 102, 45
2, 454653, Note_on_c, 0, 90, 25
2, 454719, Note_on_c, 0, 62, 0
2, 454745, Note_on_c, 0, 59, 0
2, 454777, Note_on_c, 0, 102, 0
2, 454784, Note_on_c, 0, 52, 0
2, 454797, Note_on_c, 0, 90, 0
2, 454822, Note_on_c, 0, 55, 0
2, 454965, Note_on_c, 0, 62, 44
2, 454967, Note_on_c, 0, 52, 35
2, 454979, Note_on_c, 0, 57, 49
2, 455001, Note_on_c, 0, 88, 49
2, 455045, Note_on_c, 0, 88, 0
2, 455064, Note_on_c, 0, 62, 0
2, 455072, Note_on_c, 0, 52, 0
2, 455077, Note_on_c, 0, 57, 0
2, 455409, Note_on_c, 0, 100, 57
2, 455415, Note_on_c, 0, 62, 60
2, 455418, Note_on_c, 0, 57, 57
2, 455419, Note_on_c, 0, 88, 57
2, 455425, Note_on_c, 0, 52, 44
2, 455466, Note_on_c, 0, 62, 0
2, 455475, Note_on_c, 0, 88, 0
2, 455478, Note_on_c, 0, 52, 0
2, 455482, Note_on_c, 0, 57, 0
2, 455502, Note_on_c, 0, 100, 0
2, 455861, Note_on_c, 0, 52, 60
2, 455862, Note_on_c, 0, 57, 60
2, 455864, Note_on_c, 0, 62, 62
2, 455867, Note_on_c, 0, 100, 71
2, 455879, Note_on_c, 0, 88, 65
2, 455987, Control_c, 0, 64, 127
2, 456171, Note_on_c, 0, 52, 0
2, 456179, Note_on_c, 0, 62, 0
2, 456236, Note_on_c, 0, 100, 0
2, 456271, Note_on_c, 0, 57, 0
2, 456294, Note_on_c, 0, 88, 0
2, 456321, Control_c, 0, 64, 0
2, 456329, Note_on_c, 0, 57, 37
2, 456332, Note_on_c, 0, 52, 50
2, 456334, Note_on_c, 0, 62, 58
2, 456339, Note_on_c, 0, 98, 63
2, 456448, Note_on_c, 0, 62, 0
2, 456467, Note_on_c, 0, 52, 0
2, 456476, Control_c, 0, 64, 127
2, 456481, Note_on_c, 0, 57, 0
2, 456495, Note_on_c, 0, 98, 0
2, 456564, Note_on_c, 0, 97, 45
2, 456725, Note_on_c, 0, 97, 0
2, 456809, Control_c, 0, 64, 0
2, 456814, Note_on_c, 0, 59, 47
2, 456817, Note_on_c, 0, 96, 64
2, 456826, Note_on_c, 0, 52, 46
2, 456840, Note_on_c, 0, 55, 30
2, 456869, Note_on_c, 0, 48, 24
2, 456946, Note_on_c, 0, 96, 0
2, 457050, Note_on_c, 0, 95, 57
2, 457223, Note_on_c, 0, 95, 0
2, 457418, Note_on_c, 0, 95, 75
2, 457493, Note_on_c, 0, 55, 0
2, 457557, Note_on_c, 0, 59, 0
2, 457620, Note_on_c, 0, 52, 0
2, 457640, Note_on_c, 0, 95, 0
2, 457771, Note_on_c, 0, 95, 81
2, 457791, Note_on_c, 0, 59, 35
2, 457864, Note_on_c, 0, 48, 0
2, 457870, Note_on_c, 0, 59, 0
2, 458173, Note_on_c, 0, 95, 0
2, 458210, Note_on_c, 0, 93, 65
2, 458378, Note_on_c, 0, 93, 0
2, 458444, Note_on_c, 0, 91, 25
2, 458705, Note_on_c, 0, 57, 37
2, 458706, Note_on_c, 0, 62, 55
2, 458712, Note_on_c, 0, 52, 41
2, 458715, Note_on_c, 0, 90, 56
2, 458720, Note_on_c, 0, 91, 0
2, 458887, Note_on_c, 0, 90, 0
2, 458933, Note_on_c, 0, 88, 48
2, 459037, Note_on_c, 0, 57, 0
2, 459113, Note_on_c, 0, 88, 0
2, 459200, Note_on_c, 0, 57, 37
2, 459302, Note_on_c, 0, 62, 0
2, 459305, Note_on_c, 0, 88, 61
2, 459334, Control_c, 0, 64, 127
2, 459353, Control_c, 0, 64, 0
2, 459443, Note_on_c, 0, 57, 0
2, 459494, Note_on_c, 0, 52, 0
2, 459560, Note_on_c, 0, 88, 0
2, 459621, Note_on_c, 0, 88, 14
2, 459661, Note_on_c, 0, 62, 63
2, 459665, Note_on_c, 0, 57, 57
2, 459675, Note_on_c, 0, 52, 37
2, 459791, Control_c, 0, 64, 127
2, 459854, Note_on_c, 0, 88, 0
2, 459865, Control_c, 0, 64, 0
2, 459907, Control_c, 0, 64, 127
2, 460032, Control_c, 0, 64, 0
2, 460109, Note_on_c, 0, 86, 69
2, 460188, Note_on_c, 0, 52, 0
2, 460220, Note_on_c, 0, 57, 0
2, 460274, Note_on_c, 0, 62, 0
2, 460293, Control_c, 0, 64, 127
2, 460298, Note_on_c, 0, 86, 0
2, 460322, Note_on_c, 0, 84, 45
2, 460500, Note_on_c, 0, 84, 0
2, 460621, Note_on_c, 0, 82, 59
2, 460663, Note_on_c, 0, 60, 32
2, 460668, Note_on_c, 0, 64, 39
2, 460690, Note_on_c, 0, 59, 31
2, 460760, Control_c, 0, 64, 0
2, 460785, Note_on_c, 0, 82, 0
2, 460855, Note_on_c, 0, 83, 64
2, 461020, Note_on_c, 0, 83, 0
2, 461141, Note_on_c, 0, 64, 0
2, 461208, Control_c, 0, 64, 127
2, 461223, Note_on_c, 0, 59, 0
2, 461224, Note_on_c, 0, 60, 0
2, 461237, Note_on_c, 0, 83, 78
2, 461477, Note_on_c, 0, 83, 0
2, 461571, Note_on_c, 0, 79, 52
2, 461619, Note_on_c, 0, 66, 53
2, 461632, Note_on_c, 0, 62, 47
2, 461635, Control_c, 0, 64, 0
2, 461662, Note_on_c, 0, 57, 24
2, 461743, Note_on_c, 0, 79, 0
2, 461746, Note_on_c, 0, 66, 0
2, 461816, Note_on_c, 0, 57, 0
2, 461870, Note_on_c, 0, 81, 74
2, 462025, Note_on_c, 0, 62, 0
2, 462082, Note_on_c, 0, 81, 0
2, 462189, Control_c, 0, 64, 127
2, 462230, Note_on_c, 0, 81, 68
2, 462510, Note_on_c, 0, 81, 0
2, 462572, Note_on_c, 0, 76, 28
2, 462606, Control_c, 0, 64, 0
2, 462762, Note_on_c, 0, 76, 0
2, 462791, Note_on_c, 0, 79, 48
2, 462810, Note_on_c, 0, 67, 25
2, 462822, Note_on_c, 0, 57, 40
2, 462947, Note_on_c, 0, 57, 0
2, 463023, Note_on_c, 0, 79, 0
2, 463059, Note_on_c, 0, 67, 0
2, 463158, Control_c, 0, 64, 127
2, 463215, Note_on_c, 0, 79, 54
2, 463228, Note_on_c, 0, 67, 43
2, 463246, Note_on_c, 0, 78, 28
2, 463289, Note_on_c, 0, 78, 0
2, 463407, Note_on_c, 0, 67, 0
2, 463487, Note_on_c, 0, 79, 0
2, 463543, Note_on_c, 0, 63, 47
2, 463546, Note_on_c, 0, 67, 36
2, 463557, Note_on_c, 0, 62, 47
2, 463565, Control_c, 0, 64, 0
2, 463568, Note_on_c, 0, 57, 50
2, 463652, Note_on_c, 0, 67, 0
2, 463805, Note_on_c, 0, 63, 0
2, 463848, Note_on_c, 0, 67, 44
2, 463851, Note_on_c, 0, 74, 43
2, 463865, Note_on_c, 0, 71, 38
2, 463940, Note_on_c, 0, 63, 18
2, 463973, Note_on_c, 0, 67, 0
2, 463995, Note_on_c, 0, 63, 0
2, 464000, Note_on_c, 0, 74, 0
2, 464004, Note_on_c, 0, 71, 0
2, 464022, Note_on_c, 0, 62, 0
2, 464087, Note_on_c, 0, 57, 0
2, 464151, Control_c, 0, 64, 127
2, 464169, Note_on_c, 0, 74, 60
2, 464191, Note_on_c, 0, 67, 49
2, 464230, Note_on_c, 0, 71, 22
2, 464307, Note_on_c, 0, 67, 0
2, 464339, Note_on_c, 0, 74, 0
2, 464397, Note_on_c, 0, 71, 0
2, 464432, Control_c, 0, 64, 0
2, 464640, Note_on_c, 0, 40, 71
2, 464932, Note_on_c, 0, 40, 0
2, 465068, Note_on_c, 0, 28, 31
2, 465071, Note_on_c, 0, 40, 50
2, 465182, Note_on_c, 0, 28, 0
2, 465202, Note_on_c, 0, 40, 0
2, 466131, Note_on_c, 0, 28, 29
2, 466162, Note_on_c, 0, 40, 27
2, 466406, Note_on_c, 0, 28, 0
2, 466436, Note_on_c, 0, 40, 0
2, 466534, Note_on_c, 0, 40, 40
2, 466538, Note_on_c, 0, 28, 32
2, 466648, Note_on_c, 0, 28, 0
2, 466656, Note_on_c, 0, 40, 0
2, 468605, Note_on_c, 0, 35, 62
2, 468729, Note_on_c, 0, 35, 0
2, 468769, Note_on_c, 0, 28, 74
2, 468774, Note_on_c, 0, 40, 82
2, 469035, Note_on_c, 0, 34, 31
2, 469072, Note_on_c, 0, 34, 0
2, 469083, Note_on_c, 0, 28, 0
2, 469098, Note_on_c, 0, 40, 0
2, 469135, Note_on_c, 0, 28, 72
2, 469136, Note_on_c, 0, 40, 53
2, 469278, Note_on_c, 0, 28, 0
2, 469303, Note_on_c, 0, 40, 0
2, 470106, Note_on_c, 0, 35, 35
2, 470235, Note_on_c, 0, 35, 0
2, 470298, Note_on_c, 0, 28, 34
2, 470304, Note_on_c, 0, 40, 33
2, 470522, Note_on_c, 0, 28, 0
2, 470525, Note_on_c, 0, 40, 0
2, 470634, Note_on_c, 0, 28, 31
2, 470653, Note_on_c, 0, 40, 31
2, 470718, Note_on_c, 0, 40, 0
2, 470747, Note_on_c, 0, 28, 0
2, 471681, Note_on_c, 0, 69, 96
2, 471682, Note_on_c, 0, 73, 78
2, 471846, Note_on_c, 0, 69, 0
2, 471876, Note_on_c, 0, 70, 37
2, 471989, Note_on_c, 0, 69, 58
2, 472026, Note_on_c, 0, 73, 0
2, 472066, Note_on_c, 0, 70, 0
2, 472115, Note_on_c, 0, 69, 0
2, 472165, Note_on_c, 0, 67, 35
2, 472213, Note_on_c, 0, 67, 0
2, 472311, Note_on_c, 0, 64, 35
2, 472676, Note_on_c, 0, 64, 0
2, 472685, Note_on_c, 0, 62, 49
2, 472732, Note_on_c, 0, 62, 0
2, 472815, Note_on_c, 0, 28, 30
2, 472832, Note_on_c, 0, 40, 25
2, 472848, Note_on_c, 0, 64, 36
2, 473102, Note_on_c, 0, 40, 0
2, 473110, Note_on_c, 0, 64, 0
2, 473121, Note_on_c, 0, 28, 0
2, 473180, Note_on_c, 0, 64, 49
2, 473201, Note_on_c, 0, 40, 24
2, 473207, Note_on_c, 0, 28, 28
2, 473232, Note_on_c, 0, 64, 0
2, 473316, Note_on_c, 0, 28, 0
2, 473320, Note_on_c, 0, 40, 0
2, 474151, Note_on_c, 0, 35, 35
2, 474276, Note_on_c, 0, 35, 0
2, 474338, Note_on_c, 0, 28, 26
2, 474345, Note_on_c, 0, 40, 26
2, 474558, Note_on_c, 0, 28, 0
2, 474582, Note_on_c, 0, 40, 0
2, 474694, Note_on_c, 0, 28, 24
2, 474700, Note_on_c, 0, 40, 27
2, 474813, Note_on_c, 0, 28, 0
2, 474815, Note_on_c, 0, 40, 0
2, 476736, Note_on_c, 0, 35, 57
2, 476864, Note_on_c, 0, 35, 0
2, 476900, Note_on_c, 0, 28, 66
2, 476905, Note_on_c, 0, 40, 76
2, 477229, Note_on_c, 0, 28, 0
2, 477252, Note_on_c, 0, 40, 0
2, 477302, Note_on_c, 0, 28, 55
2, 477311, Note_on_c, 0, 40, 71
2, 477489, Note_on_c, 0, 28, 0
2, 477501, Note_on_c, 0, 40, 0
2, 478321, Note_on_c, 0, 35, 22
2, 478469, Note_on_c, 0, 28, 35
2, 478486, Note_on_c, 0, 40, 31
2, 478488, Note_on_c, 0, 35, 0
2, 478686, Note_on_c, 0, 28, 0
2, 478746, Note_on_c, 0, 40, 0
2, 478883, Note_on_c, 0, 28, 30
2, 478902, Note_on_c, 0, 40, 25
2, 479105, Note_on_c, 0, 28, 0
2, 479124, Note_on_c, 0, 40, 0
2, 479124, End_track
3, 0, Start_track
3, 0, Title_t, "MIDI 1"
3, 0, Control_c, 1, 0, 0
3, 0, Control_c, 1, 7, 108
3, 0, Control_c, 1, 91, 0
3, 0, Control_c, 1, 93, 0
3, 1, Control_c, 1, 32, 0
3, 2, Program_c, 1, 35
3, 222720, Note_on_c, 1, 28, 68
3, 222968, Note_on_c, 1, 28, 0
3, 223057, Note_on_c, 1, 28, 67
3, 223246, Note_on_c, 1, 28, 0
3, 224630, Note_on_c, 1, 35, 64
3, 224781, Note_on_c, 1, 35, 0
3, 224911, Note_on_c, 1, 38, 101
3, 225566, Note_on_c, 1, 35, 44
3, 225585, Note_on_c, 1, 38, 0
3, 225703, Note_on_c, 1, 35, 0
3, 225733, Note_on_c, 1, 33, 35
3, 225863, Note_on_c, 1, 31, 28
3, 225878, Note_on_c, 1, 33, 0
3, 225947, Note_on_c, 1, 31, 0
3, 226018, Note_on_c, 1, 28, 66
3, 226530, Note_on_c, 1, 28, 0
3, 226553, Note_on_c, 1, 36, 82
3, 227841, Note_on_c, 1, 31, 46
3, 227870, Note_on_c, 1, 36, 0
3, 227956, Note_on_c, 1, 31, 0
3, 227992, Note_on_c, 1, 36, 75
3, 228281, Note_on_c, 1, 36, 0
3, 228324, Note_on_c, 1, 36, 77
3, 228420, Note_on_c, 1, 36, 0
3, 228949, Note_on_c, 1, 48, 101
3, 229771, Note_on_c, 1, 36, 53
3, 229847, Note_on_c, 1, 48, 0
3, 229855, Note_on_c, 1, 36, 0
3, 229912, Note_on_c, 1, 47, 92
3, 230746, Note_on_c, 1, 36, 49
3, 230788, Note_on_c, 1, 36, 0
3, 230816, Note_on_c, 1, 47, 0
3, 230864, Note_on_c, 1, 45, 72
3, 231321, Note_on_c, 1, 45, 0
3, 231375, Note_on_c, 1, 35, 77
3, 232295, Note_on_c, 1, 35, 0
3, 232342, Note_on_c, 1, 36, 81
3, 233158, Note_on_c, 1, 34, 45
3, 233192, Note_on_c, 1, 36, 0
3, 233270, Note_on_c, 1, 34, 0
3, 233285, Note_on_c, 1, 41, 96
3, 234095, Note_on_c, 1, 35, 60
3, 234148, Note_on_c, 1, 35, 0
3, 234172, Note_on_c, 1, 41, 0
3, 234243, Note_on_c, 1, 40, 63
3, 234501, Note_on_c, 1, 40, 0
3, 234557, Note_on_c, 1, 40, 71
3, 234632, Note_on_c, 1, 40, 0
3, 235536, Note_on_c, 1, 35, 57
3, 235648, Note_on_c, 1, 35, 0
3, 235698, Note_on_c, 1, 40, 62
3, 235961, Note_on_c, 1, 40, 0
3, 236018, Note_on_c, 1, 40, 71
3, 236127, Note_on_c, 1, 40, 0
3, 236479, Note_on_c, 1, 37, 83
3, 236638, Note_on_c, 1, 49, 80
3, 236754, Note_on_c, 1, 37, 0
3, 236957, Note_on_c, 1, 38, 95
3, 237041, Note_on_c, 1, 49, 0
3, 237121, Note_on_c, 1, 50, 65
3, 237125, Note_on_c, 1, 48, 71
3, 237257, Note_on_c, 1, 38, 0
3, 237292, Note_on_c, 1, 48, 0
3, 237437, Note_on_c, 1, 39, 86
3, 237496, Note_on_c, 1, 50, 0
3, 237621, Note_on_c, 1, 51, 79
3, 237837, Note_on_c, 1, 37, 47
3, 237888, Note_on_c, 1, 51, 0
3, 237928, Note_on_c, 1, 39, 0
3, 237968, Note_on_c, 1, 37, 0
3, 237978, Note_on_c, 1, 40, 87
3, 238021, Note_on_c, 1, 33, 33
3, 238065, Note_on_c, 1, 33, 0
3, 238361, Note_on_c, 1, 40, 0
3, 238408, Note_on_c, 1, 40, 79
3, 238498, Note_on_c, 1, 40, 0
3, 239045, Note_on_c, 1, 52, 95
3, 239335, Note_on_c, 1, 52, 0
3, 239361, Note_on_c, 1, 51, 35
3, 239487, Note_on_c, 1, 51, 0
3, 239519, Note_on_c, 1, 52, 52
3, 239747, Note_on_c, 1, 52, 0
3, 240289, Note_on_c, 1, 35, 44
3, 240380, Note_on_c, 1, 35, 0
3, 240480, Note_on_c, 1, 35, 39
3, 240841, Note_on_c, 1, 35, 0
3, 240943, Note_on_c, 1, 28, 54
3, 241748, Note_on_c, 1, 35, 44
3, 241798, Note_on_c, 1, 28, 0
3, 241841, Note_on_c, 1, 35, 0
3, 241900, Note_on_c, 1, 36, 61
3, 243229, Note_on_c, 1, 34, 18
3, 243346, Note_on_c, 1, 50, 90
3, 243347, Note_on_c, 1, 34, 0
3, 243696, Note_on_c, 1, 52, 74
3, 243741, Note_on_c, 1, 50, 0
3, 244199, Note_on_c, 1, 34, 42
3, 244273, Note_on_c, 1, 36, 0
3, 244318, Note_on_c, 1, 34, 0
3, 244365, Note_on_c, 1, 52, 0
3, 244377, Note_on_c, 1, 48, 49
3, 244580, Note_on_c, 1, 48, 0
3, 244714, Note_on_c, 1, 35, 30
3, 244757, Note_on_c, 1, 35, 0
3, 244833, Note_on_c, 1, 50, 101
3, 244844, Note_on_c, 1, 35, 71
3, 245520, Note_on_c, 1, 35, 0
3, 245614, Note_on_c, 1, 35, 37
3, 245697, Note_on_c, 1, 50, 0
3, 245732, Note_on_c, 1, 35, 0
3, 245752, Note_on_c, 1, 33, 58
3, 246703, Note_on_c, 1, 33, 0
3, 246721, Note_on_c, 1, 35, 75
3, 247145, Note_on_c, 1, 34, 31
3, 247221, Note_on_c, 1, 47, 96
3, 247260, Note_on_c, 1, 34, 0
3, 247391, Note_on_c, 1, 35, 0
3, 247555, Note_on_c, 1, 34, 49
3, 247600, Note_on_c, 1, 47, 0
3, 247653, Note_on_c, 1, 34, 0
3, 247720, Note_on_c, 1, 47, 101
3, 248508, Note_on_c, 1, 35, 55
3, 248572, Note_on_c, 1, 35, 0
3, 248630, Note_on_c, 1, 47, 0
3, 248659, Note_on_c, 1, 46, 74
3, 249013, Note_on_c, 1, 34, 72
3, 249019, Note_on_c, 1, 46, 0
3, 249571, Note_on_c, 1, 34, 0
3, 249631, Note_on_c, 1, 33, 59
3, 250462, Note_on_c, 1, 40, 28
3, 250519, Note_on_c, 1, 40, 0
3, 250569, Note_on_c, 1, 48, 99
3, 250886, Note_on_c, 1, 49, 80
3, 250929, Note_on_c, 1, 48, 0
3, 251382, Note_on_c, 1, 40, 33
3, 251427, Note_on_c, 1, 40, 0
3, 251485, Note_on_c, 1, 49, 0
3, 251512, Note_on_c, 1, 45, 62
3, 251841, Note_on_c, 1, 40, 44
3, 251889, Note_on_c, 1, 45, 0
3, 251926, Note_on_c, 1, 40, 0
3, 251981, Note_on_c, 1, 52, 77
3, 252579, Note_on_c, 1, 33, 0
3, 252780, Note_on_c, 1, 33, 71
3, 252920, Note_on_c, 1, 33, 0
3, 253310, Note_on_c, 1, 32, 77
3, 253379, Note_on_c, 1, 52, 0
3, 253451, Note_on_c, 1, 32, 0
3, 253464, Note_on_c, 1, 31, 72
3, 254756, Note_on_c, 1, 38, 57
3, 254793, Note_on_c, 1, 38, 0
3, 254897, Note_on_c, 1, 43, 87
3, 255208, Note_on_c, 1, 38, 32
3, 255240, Note_on_c, 1, 43, 0
3, 255240, Note_on_c, 1, 42, 48
3, 255285, Note_on_c, 1, 31, 0
3, 255287, Note_on_c, 1, 38, 0
3, 255334, Note_on_c, 1, 42, 0
3, 255393, Note_on_c, 1, 43, 58
3, 255624, Note_on_c, 1, 43, 0
3, 256152, Note_on_c, 1, 31, 71
3, 256303, Note_on_c, 1, 31, 0
3, 256626, Note_on_c, 1, 31, 82
3, 256788, Note_on_c, 1, 43, 49
3, 257017, Note_on_c, 1, 31, 0
3, 257129, Note_on_c, 1, 31, 53
3, 257142, Note_on_c, 1, 43, 0
3, 257253, Note_on_c, 1, 31, 0
3, 257289, Note_on_c, 1, 34, 78
3, 258473, Note_on_c, 1, 46, 52
3, 258568, Note_on_c, 1, 46, 0
3, 258580, Note_on_c, 1, 45, 57
3, 258659, Note_on_c, 1, 45, 0
3, 258725, Note_on_c, 1, 46, 83
3, 259355, Note_on_c, 1, 34, 0
3, 259532, Note_on_c, 1, 34, 83
3, 259594, Note_on_c, 1, 46, 0
3, 260177, Note_on_c, 1, 46, 90
3, 260236, Note_on_c, 1, 34, 0
3, 260490, Note_on_c, 1, 34, 58
3, 260517, Note_on_c, 1, 46, 0
3, 260571, Note_on_c, 1, 34, 0
3, 260637, Note_on_c, 1, 32, 67
3, 261091, Note_on_c, 1, 32, 0
3, 261128, Note_on_c, 1, 33, 80
3, 261592, Note_on_c, 1, 45, 96
3, 261941, Note_on_c, 1, 45, 0
3, 261961, Note_on_c, 1, 44, 36
3, 262023, Note_on_c, 1, 44, 0
3, 262096, Note_on_c, 1, 45, 76
3, 262906, Note_on_c, 1, 44, 46
3, 262909, Note_on_c, 1, 45, 0
3, 263007, Note_on_c, 1, 44, 0
3, 263064, Note_on_c, 1, 45, 62
3, 263386, Note_on_c, 1, 45, 0
3, 263399, Note_on_c, 1, 44, 35
3, 263477, Note_on_c, 1, 44, 0
3, 263547, Note_on_c, 1, 45, 76
3, 263572, Note_on_c, 1, 33, 0
3, 263821, Note_on_c, 1, 45, 0
3, 264288, Note_on_c, 1, 45, 110
3, 264302, Note_on_c, 1, 33, 77
3, 264820, Note_on_c, 1, 33, 0
3, 264866, Note_on_c, 1, 45, 0
3, 264941, Note_on_c, 1, 30, 84
3, 265752, Note_on_c, 1, 42, 108
3, 266121, Note_on_c, 1, 42, 0
3, 266221, Note_on_c, 1, 37, 57
3, 266267, Note_on_c, 1, 37, 0
3, 266406, Note_on_c, 1, 42, 105
3, 266574, Note_on_c, 1, 30, 0
3, 266864, Note_on_c, 1, 42, 0
3, 266891, Note_on_c, 1, 29, 78
3, 267695, Note_on_c, 1, 35, 32
3, 267806, Note_on_c, 1, 35, 0
3, 267825, Note_on_c, 1, 41, 103
3, 267881, Note_on_c, 1, 29, 0
3, 268644, Note_on_c, 1, 35, 47
3, 268721, Note_on_c, 1, 41, 0
3, 268736, Note_on_c, 1, 35, 0
3, 268789, Note_on_c, 1, 28, 80
3, 269088, Note_on_c, 1, 28, 0
3, 269136, Note_on_c, 1, 28, 77
3, 269284, Note_on_c, 1, 28, 0
3, 270238, Note_on_c, 1, 35, 76
3, 270414, Note_on_c, 1, 35, 0
3, 270746, Note_on_c, 1, 38, 91
3, 271662, Note_on_c, 1, 38, 0
3, 271664, Note_on_c, 1, 35, 62
3, 271865, Note_on_c, 1, 35, 0
3, 272006, Note_on_c, 1, 33, 48
3, 272117, Note_on_c, 1, 33, 0
3, 272179, Note_on_c, 1, 31, 38
3, 272199, Note_on_c, 1, 33, 28
3, 272241, Note_on_c, 1, 33, 0
3, 272452, Note_on_c, 1, 33, 42
3, 272495, Note_on_c, 1, 31, 0
3, 272613, Note_on_c, 1, 33, 0
3, 272666, Note_on_c, 1, 36, 66
3, 273147, Note_on_c, 1, 45, 99
3, 273178, Note_on_c, 1, 36, 0
3, 273456, Note_on_c, 1, 45, 0
3, 273477, Note_on_c, 1, 43, 50
3, 274459, Note_on_c, 1, 35, 40
3, 274492, Note_on_c, 1, 43, 0
3, 274551, Note_on_c, 1, 35, 0
3, 274585, Note_on_c, 1, 36, 54
3, 274890, Note_on_c, 1, 36, 0
3, 275397, Note_on_c, 1, 35, 38
3, 275448, Note_on_c, 1, 35, 0
3, 275829, Note_on_c, 1, 50, 103
3, 275831, Note_on_c, 1, 35, 83
3, 276311, Note_on_c, 1, 32, 48
3, 276376, Note_on_c, 1, 35, 0
3, 276413, Note_on_c, 1, 50, 0
3, 276429, Note_on_c, 1, 32, 0
3, 276477, Note_on_c, 1, 48, 80
3, 276481, Note_on_c, 1, 33, 69
3, 277278, Note_on_c, 1, 32, 40
3, 277371, Note_on_c, 1, 33, 0
3, 277388, Note_on_c, 1, 48, 0
3, 277437, Note_on_c, 1, 35, 80
3, 277445, Note_on_c, 1, 32, 0
3, 278301, Note_on_c, 1, 34, 40
3, 278309, Note_on_c, 1, 35, 0
3, 278383, Note_on_c, 1, 34, 0
3, 278425, Note_on_c, 1, 36, 77
3, 279262, Note_on_c, 1, 34, 50
3, 279325, Note_on_c, 1, 36, 0
3, 279399, Note_on_c, 1, 41, 94
3, 279406, Note_on_c, 1, 43, 78
3, 279409, Note_on_c, 1, 34, 0
3, 279474, Note_on_c, 1, 43, 0
3, 279800, Note_on_c, 1, 35, 33
3, 279862, Note_on_c, 1, 35, 0
3, 280188, Note_on_c, 1, 39, 57
3, 280231, Note_on_c, 1, 41, 0
3, 280279, Note_on_c, 1, 39, 0
3, 280369, Note_on_c, 1, 40, 35
3, 280560, Note_on_c, 1, 40, 0
3, 280667, Note_on_c, 1, 34, 49
3, 280668, Note_on_c, 1, 52, 88
3, 280738, Note_on_c, 1, 34, 0
3, 281148, Note_on_c, 1, 35, 34
3, 281235, Note_on_c, 1, 35, 0
3, 281240, Note_on_c, 1, 52, 0
3, 281329, Note_on_c, 1, 50, 78
3, 281601, Note_on_c, 1, 50, 0
3, 281653, Note_on_c, 1, 35, 22
3, 281689, Note_on_c, 1, 35, 0
3, 282124, Note_on_c, 1, 35, 44
3, 282191, Note_on_c, 1, 35, 0
3, 282248, Note_on_c, 1, 47, 101
3, 282995, Note_on_c, 1, 47, 0
3, 283061, Note_on_c, 1, 35, 57
3, 283145, Note_on_c, 1, 35, 0
3, 283152, Note_on_c, 1, 44, 65
3, 283173, Note_on_c, 1, 45, 77
3, 283209, Note_on_c, 1, 44, 0
3, 283306, Note_on_c, 1, 43, 62
3, 283316, Note_on_c, 1, 45, 0
3, 283459, Note_on_c, 1, 43, 0
3, 283504, Note_on_c, 1, 40, 50
3, 283508, Note_on_c, 1, 35, 35
3, 283579, Note_on_c, 1, 35, 0
3, 283592, Note_on_c, 1, 40, 0
3, 283656, Note_on_c, 1, 38, 64
3, 284008, Note_on_c, 1, 35, 40
3, 284059, Note_on_c, 1, 35, 0
3, 284105, Note_on_c, 1, 38, 0
3, 284160, Note_on_c, 1, 40, 74
3, 284465, Note_on_c, 1, 40, 0
3, 284496, Note_on_c, 1, 40, 55
3, 284571, Note_on_c, 1, 40, 0
3, 285426, Note_on_c, 1, 35, 48
3, 285470, Note_on_c, 1, 35, 0
3, 285568, Note_on_c, 1, 38, 74
3, 286461, Note_on_c, 1, 38, 0
3, 286513, Note_on_c, 1, 40, 67
3, 286743, Note_on_c, 1, 40, 0
3, 287028, Note_on_c, 1, 52, 83
3, 287035, Note_on_c, 1, 37, 79
3, 287871, Note_on_c, 1, 34, 37
3, 287959, Note_on_c, 1, 52, 0
3, 287990, Note_on_c, 1, 37, 0
3, 288010, Note_on_c, 1, 34, 0
3, 288019, Note_on_c, 1, 36, 53
3, 288035, Note_on_c, 1, 51, 55
3, 288300, Note_on_c, 1, 51, 0
3, 288346, Note_on_c, 1, 52, 59
3, 288412, Note_on_c, 1, 52, 0
3, 288459, Note_on_c, 1, 36, 0
3, 289244, Note_on_c, 1, 31, 75
3, 290172, Note_on_c, 1, 31, 0
3, 290221, Note_on_c, 1, 35, 68
3, 290297, Note_on_c, 1, 35, 0
3, 290361, Note_on_c, 1, 36, 60
3, 290666, Note_on_c, 1, 35, 49
3, 290712, Note_on_c, 1, 36, 0
3, 290716, Note_on_c, 1, 35, 0
3, 290845, Note_on_c, 1, 38, 80
3, 291088, Note_on_c, 1, 38, 0
3, 291158, Note_on_c, 1, 34, 60
3, 291273, Note_on_c, 1, 34, 0
3, 291310, Note_on_c, 1, 35, 74
3, 291652, Note_on_c, 1, 32, 39
3, 291663, Note_on_c, 1, 35, 0
3, 291743, Note_on_c, 1, 32, 0
3, 291791, Note_on_c, 1, 33, 67
3, 292161, Note_on_c, 1, 32, 48
3, 292293, Note_on_c, 1, 45, 113
3, 292340, Note_on_c, 1, 32, 0
3, 292633, Note_on_c, 1, 32, 46
3, 292717, Note_on_c, 1, 33, 0
3, 292720, Note_on_c, 1, 45, 0
3, 292786, Note_on_c, 1, 47, 87
3, 292818, Note_on_c, 1, 32, 0
3, 293250, Note_on_c, 1, 35, 64
3, 293567, Note_on_c, 1, 47, 0
3, 293591, Note_on_c, 1, 34, 36
3, 293596, Note_on_c, 1, 35, 0
3, 293701, Note_on_c, 1, 34, 0
3, 293729, Note_on_c, 1, 36, 79
3, 294518, Note_on_c, 1, 34, 31
3, 294561, Note_on_c, 1, 50, 99
3, 294571, Note_on_c, 1, 36, 0
3, 294592, Note_on_c, 1, 34, 0
3, 294773, Note_on_c, 1, 50, 0
3, 294874, Note_on_c, 1, 47, 80
3, 295005, Note_on_c, 1, 47, 0
3, 295198, Note_on_c, 1, 41, 70
3, 295514, Note_on_c, 1, 41, 0
3, 295528, Note_on_c, 1, 39, 46
3, 295633, Note_on_c, 1, 39, 0
3, 295672, Note_on_c, 1, 40, 62
3, 296112, Note_on_c, 1, 40, 0
3, 296149, Note_on_c, 1, 28, 49
3, 296251, Note_on_c, 1, 40, 7
3, 296408, Note_on_c, 1, 28, 0
3, 296474, Note_on_c, 1, 28, 60
3, 296561, Note_on_c, 1, 40, 0
3, 296616, Note_on_c, 1, 28, 0
3, 297640, Note_on_c, 1, 35, 73
3, 297938, Note_on_c, 1, 35, 0
3, 297947, Note_on_c, 1, 40, 74
3, 298038, Note_on_c, 1, 40, 0
3, 298088, Note_on_c, 1, 37, 80
3, 298518, Note_on_c, 1, 37, 0
3, 298570, Note_on_c, 1, 38, 74
3, 298921, Note_on_c, 1, 38, 0
3, 299044, Note_on_c, 1, 39, 64
3, 299361, Note_on_c, 1, 34, 33
3, 299404, Note_on_c, 1, 39, 0
3, 299515, Note_on_c, 1, 40, 58
3, 299531, Note_on_c, 1, 34, 0
3, 299732, Note_on_c, 1, 40, 0
3, 300011, Note_on_c, 1, 47, 99
3, 300323, Note_on_c, 1, 38, 32
3, 300326, Note_on_c, 1, 47, 0
3, 300339, Note_on_c, 1, 46, 39
3, 300384, Note_on_c, 1, 38, 0
3, 300440, Note_on_c, 1, 46, 0
3, 300491, Note_on_c, 1, 47, 44
3, 300733, Note_on_c, 1, 47, 0
3, 300798, Note_on_c, 1, 35, 60
3, 301424, Note_on_c, 1, 35, 0
3, 301448, Note_on_c, 1, 28, 53
3, 301723, Note_on_c, 1, 28, 0
3, 301780, Note_on_c, 1, 28, 62
3, 301885, Note_on_c, 1, 28, 0
3, 302763, Note_on_c, 1, 53, 89
3, 302767, Note_on_c, 1, 37, 69
3, 302788, Note_on_c, 1, 36, 69
3, 302885, Note_on_c, 1, 36, 0
3, 303265, Note_on_c, 1, 34, 33
3, 303363, Note_on_c, 1, 53, 0
3, 303373, Note_on_c, 1, 37, 0
3, 303392, Note_on_c, 1, 34, 0
3, 303424, Note_on_c, 1, 36, 43
3, 303425, Note_on_c, 1, 52, 58
3, 303706, Note_on_c, 1, 52, 0
3, 303750, Note_on_c, 1, 51, 25
3, 303816, Note_on_c, 1, 51, 0
3, 303898, Note_on_c, 1, 52, 38
3, 304041, Note_on_c, 1, 52, 0
3, 304206, Note_on_c, 1, 36, 0
3, 304652, Note_on_c, 1, 31, 62
3, 304812, Note_on_c, 1, 31, 0
3, 305590, Note_on_c, 1, 35, 74
3, 305761, Note_on_c, 1, 36, 62
3, 305765, Note_on_c, 1, 35, 0
3, 306247, Note_on_c, 1, 36, 0
3, 306531, Note_on_c, 1, 50, 96
3, 306548, Note_on_c, 1, 36, 84
3, 306648, Note_on_c, 1, 36, 0
3, 306680, Note_on_c, 1, 50, 0
3, 306846, Note_on_c, 1, 35, 73
3, 307148, Note_on_c, 1, 35, 0
3, 307189, Note_on_c, 1, 48, 88
3, 307200, Note_on_c, 1, 33, 69
3, 308014, Note_on_c, 1, 32, 36
3, 308064, Note_on_c, 1, 48, 0
3, 308107, Note_on_c, 1, 33, 0
3, 308143, Note_on_c, 1, 32, 0
3, 308160, Note_on_c, 1, 35, 71
3, 309030, Note_on_c, 1, 32, 18
3, 309050, Note_on_c, 1, 35, 0
3, 309115, Note_on_c, 1, 32, 0
3, 309144, Note_on_c, 1, 35, 74
3, 309579, Note_on_c, 1, 32, 26
3, 309632, Note_on_c, 1, 47, 95
3, 309676, Note_on_c, 1, 32, 0
3, 309874, Note_on_c, 1, 35, 0
3, 309956, Note_on_c, 1, 32, 36
3, 310043, Note_on_c, 1, 32, 0
3, 310065, Note_on_c, 1, 47, 0
3, 310113, Note_on_c, 1, 46, 81
3, 310417, Note_on_c, 1, 34, 79
3, 310488, Note_on_c, 1, 46, 0
3, 310919, Note_on_c, 1, 32, 44
3, 310984, Note_on_c, 1, 34, 0
3, 311004, Note_on_c, 1, 32, 0
3, 311032, Note_on_c, 1, 33, 65
3, 311515, Note_on_c, 1, 45, 88
3, 311794, Note_on_c, 1, 45, 0
3, 311828, Note_on_c, 1, 44, 34
3, 311916, Note_on_c, 1, 44, 0
3, 311984, Note_on_c, 1, 45, 53
3, 311993, Note_on_c, 1, 46, 32
3, 312104, Note_on_c, 1, 46, 0
3, 312184, Note_on_c, 1, 45, 0
3, 312855, Note_on_c, 1, 45, 101
3, 313085, Note_on_c, 1, 45, 0
3, 313329, Note_on_c, 1, 44, 49
3, 313406, Note_on_c, 1, 44, 0
3, 313490, Note_on_c, 1, 45, 76
3, 314321, Note_on_c, 1, 45, 0
3, 314368, Note_on_c, 1, 33, 0
3, 314428, Note_on_c, 1, 48, 95
3, 314430, Note_on_c, 1, 32, 82
3, 314913, Note_on_c, 1, 31, 69
3, 314915, Note_on_c, 1, 32, 0
3, 315336, Note_on_c, 1, 48, 0
3, 315371, Note_on_c, 1, 43, 68
3, 315768, Note_on_c, 1, 43, 0
3, 315880, Note_on_c, 1, 43, 80
3, 316234, Note_on_c, 1, 43, 0
3, 316320, Note_on_c, 1, 31, 0
3, 317130, Note_on_c, 1, 31, 82
3, 318068, Note_on_c, 1, 43, 67
3, 318088, Note_on_c, 1, 31, 0
3, 318154, Note_on_c, 1, 43, 0
3, 318221, Note_on_c, 1, 33, 64
3, 318615, Note_on_c, 1, 33, 0
3, 318674, Note_on_c, 1, 34, 74
3, 319211, Note_on_c, 1, 46, 64
3, 319414, Note_on_c, 1, 46, 0
3, 320159, Note_on_c, 1, 46, 65
3, 320272, Note_on_c, 1, 46, 0
3, 320311, Note_on_c, 1, 45, 25
3, 320381, Note_on_c, 1, 45, 0
3, 320458, Note_on_c, 1, 46, 74
3, 321189, Note_on_c, 1, 46, 0
3, 321219, Note_on_c, 1, 46, 28
3, 321333, Note_on_c, 1, 46, 0
3, 321354, Note_on_c, 1, 45, 51
3, 321404, Note_on_c, 1, 45, 0
3, 321529, Note_on_c, 1, 46, 87
3, 321816, Note_on_c, 1, 46, 0
3, 321870, Note_on_c, 1, 46, 57
3, 321888, Note_on_c, 1, 34, 0
3, 321988, Note_on_c, 1, 46, 0
3, 322013, Note_on_c, 1, 45, 57
3, 322059, Note_on_c, 1, 45, 0
3, 322150, Note_on_c, 1, 46, 71
3, 322167, Note_on_c, 1, 34, 76
3, 322236, Note_on_c, 1, 46, 0
3, 322557, Note_on_c, 1, 34, 0
3, 322611, Note_on_c, 1, 33, 70
3, 323355, Note_on_c, 1, 45, 105
3, 323454, Note_on_c, 1, 33, 0
3, 323820, Note_on_c, 1, 45, 0
3, 323824, Note_on_c, 1, 44, 42
3, 323854, Note_on_c, 1, 33, 41
3, 323907, Note_on_c, 1, 44, 0
3, 323925, Note_on_c, 1, 33, 0
3, 323972, Note_on_c, 1, 45, 66
3, 324304, Note_on_c, 1, 45, 0
3, 324455, Note_on_c, 1, 33, 63
3, 324801, Note_on_c, 1, 33, 0
3, 324961, Note_on_c, 1, 33, 72
3, 325439, Note_on_c, 1, 45, 105
3, 325509, Note_on_c, 1, 33, 0
3, 325752, Note_on_c, 1, 45, 0
3, 325770, Note_on_c, 1, 33, 50
3, 325872, Note_on_c, 1, 33, 0
3, 325900, Note_on_c, 1, 44, 79
3, 326262, Note_on_c, 1, 33, 35
3, 326307, Note_on_c, 1, 44, 0
3, 326316, Note_on_c, 1, 33, 0
3, 326392, Note_on_c, 1, 42, 75
3, 327358, Note_on_c, 1, 42, 0
3, 327377, Note_on_c, 1, 30, 74
3, 328270, Note_on_c, 1, 30, 0
3, 328316, Note_on_c, 1, 42, 83
3, 328945, Note_on_c, 1, 42, 0
3, 329105, Note_on_c, 1, 41, 76
3, 329775, Note_on_c, 1, 35, 47
3, 329822, Note_on_c, 1, 35, 0
3, 330097, Note_on_c, 1, 35, 44
3, 330144, Note_on_c, 1, 35, 0
3, 330158, Note_on_c, 1, 41, 0
3, 330240, Note_on_c, 1, 28, 62
3, 330525, Note_on_c, 1, 28, 0
3, 330578, Note_on_c, 1, 28, 64
3, 330685, Note_on_c, 1, 28, 0
3, 331567, Note_on_c, 1, 35, 24
3, 331635, Note_on_c, 1, 35, 0
3, 331684, Note_on_c, 1, 40, 69
3, 331967, Note_on_c, 1, 40, 0
3, 332015, Note_on_c, 1, 40, 80
3, 332123, Note_on_c, 1, 40, 0
3, 333145, Note_on_c, 1, 37, 79
3, 333909, Note_on_c, 1, 34, 37
3, 333920, Note_on_c, 1, 37, 0
3, 334039, Note_on_c, 1, 34, 0
3, 334079, Note_on_c, 1, 36, 64
3, 335067, Note_on_c, 1, 45, 69
3, 335304, Note_on_c, 1, 45, 0
3, 335357, Note_on_c, 1, 52, 74
3, 336356, Note_on_c, 1, 34, 32
3, 336389, Note_on_c, 1, 52, 0
3, 336454, Note_on_c, 1, 34, 0
3, 336477, Note_on_c, 1, 36, 0
3, 336478, Note_on_c, 1, 50, 85
3, 337296, Note_on_c, 1, 36, 42
3, 337344, Note_on_c, 1, 36, 0
3, 337348, Note_on_c, 1, 50, 0
3, 337433, Note_on_c, 1, 48, 71
3, 337511, Note_on_c, 1, 48, 0
3, 337893, Note_on_c, 1, 47, 61
3, 338016, Note_on_c, 1, 47, 0
3, 338237, Note_on_c, 1, 45, 84
3, 338729, Note_on_c, 1, 40, 51
3, 338805, Note_on_c, 1, 40, 0
3, 338876, Note_on_c, 1, 45, 0
3, 338896, Note_on_c, 1, 35, 64
3, 339272, Note_on_c, 1, 35, 0
3, 339348, Note_on_c, 1, 35, 71
3, 339773, Note_on_c, 1, 35, 0
3, 339819, Note_on_c, 1, 36, 79
3, 340621, Note_on_c, 1, 34, 49
3, 340672, Note_on_c, 1, 36, 0
3, 340720, Note_on_c, 1, 34, 0
3, 340795, Note_on_c, 1, 41, 99
3, 341608, Note_on_c, 1, 35, 55
3, 341620, Note_on_c, 1, 41, 0
3, 341667, Note_on_c, 1, 35, 0
3, 341755, Note_on_c, 1, 40, 57
3, 341864, Note_on_c, 1, 40, 0
3, 341875, Note_on_c, 1, 39, 46
3, 341973, Note_on_c, 1, 39, 0
3, 342047, Note_on_c, 1, 40, 73
3, 342536, Note_on_c, 1, 35, 50
3, 342641, Note_on_c, 1, 40, 0
3, 342648, Note_on_c, 1, 35, 0
3, 342707, Note_on_c, 1, 28, 64
3, 343086, Note_on_c, 1, 28, 0
3, 343166, Note_on_c, 1, 28, 62
3, 343432, Note_on_c, 1, 28, 0
3, 344153, Note_on_c, 1, 37, 90
3, 344201, Note_on_c, 1, 35, 27
3, 344239, Note_on_c, 1, 35, 0
3, 344586, Note_on_c, 1, 37, 0
3, 344645, Note_on_c, 1, 38, 72
3, 344981, Note_on_c, 1, 38, 0
3, 345149, Note_on_c, 1, 40, 58
3, 345388, Note_on_c, 1, 40, 0
3, 345610, Note_on_c, 1, 28, 52
3, 346079, Note_on_c, 1, 28, 0
3, 346096, Note_on_c, 1, 35, 44
3, 346556, Note_on_c, 1, 35, 0
3, 346566, Note_on_c, 1, 45, 78
3, 346961, Note_on_c, 1, 45, 0
3, 347019, Note_on_c, 1, 44, 52
3, 347427, Note_on_c, 1, 44, 0
3, 347492, Note_on_c, 1, 43, 57
3, 347850, Note_on_c, 1, 39, 40
3, 347855, Note_on_c, 1, 43, 0
3, 347885, Note_on_c, 1, 39, 0
3, 347949, Note_on_c, 1, 42, 55
3, 348435, Note_on_c, 1, 40, 51
3, 348439, Note_on_c, 1, 42, 0
3, 348704, Note_on_c, 1, 40, 0
3, 348764, Note_on_c, 1, 34, 33
3, 348892, Note_on_c, 1, 34, 0
3, 348916, Note_on_c, 1, 37, 51
3, 349304, Note_on_c, 1, 34, 25
3, 349355, Note_on_c, 1, 37, 0
3, 349363, Note_on_c, 1, 34, 0
3, 349392, Note_on_c, 1, 36, 41
3, 349770, Note_on_c, 1, 34, 30
3, 349835, Note_on_c, 1, 36, 0
3, 349888, Note_on_c, 1, 45, 85
3, 349918, Note_on_c, 1, 34, 0
3, 350304, Note_on_c, 1, 45, 0
3, 350358, Note_on_c, 1, 43, 36
3, 350766, Note_on_c, 1, 40, 32
3, 350791, Note_on_c, 1, 43, 0
3, 350830, Note_on_c, 1, 40, 0
3, 350851, Note_on_c, 1, 50, 66
3, 351299, Note_on_c, 1, 50, 0
3, 351348, Note_on_c, 1, 47, 35
3, 351714, Note_on_c, 1, 43, 28
3, 351790, Note_on_c, 1, 47, 0
3, 351810, Note_on_c, 1, 48, 73
3, 351812, Note_on_c, 1, 43, 0
3, 352254, Note_on_c, 1, 48, 0
3, 352310, Note_on_c, 1, 47, 55
3, 352661, Note_on_c, 1, 43, 24
3, 352724, Note_on_c, 1, 43, 0
3, 352751, Note_on_c, 1, 47, 0
3, 352779, Note_on_c, 1, 46, 49
3, 353185, Note_on_c, 1, 46, 0
3, 353241, Note_on_c, 1, 45, 52
3, 353723, Note_on_c, 1, 45, 0
3, 353743, Note_on_c, 1, 40, 46
3, 354179, Note_on_c, 1, 40, 0
3, 354224, Note_on_c, 1, 36, 48
3, 354704, Note_on_c, 1, 36, 0
3, 354707, Note_on_c, 1, 35, 64
3, 355152, Note_on_c, 1, 35, 0
3, 355184, Note_on_c, 1, 36, 62
3, 355597, Note_on_c, 1, 36, 0
3, 355666, Note_on_c, 1, 36, 66
3, 356128, Note_on_c, 1, 36, 0
3, 356155, Note_on_c, 1, 41, 62
3, 356160, Note_on_c, 1, 43, 56
3, 356197, Note_on_c, 1, 43, 0
3, 356582, Note_on_c, 1, 41, 0
3, 356651, Note_on_c, 1, 41, 65
3, 357055, Note_on_c, 1, 41, 0
3, 357120, Note_on_c, 1, 40, 50
3, 357581, Note_on_c, 1, 40, 0
3, 357608, Note_on_c, 1, 35, 54
3, 358095, Note_on_c, 1, 35, 0
3, 358102, Note_on_c, 1, 28, 36
3, 358441, Note_on_c, 1, 35, 47
3, 358460, Note_on_c, 1, 28, 0
3, 358523, Note_on_c, 1, 35, 0
3, 358553, Note_on_c, 1, 39, 77
3, 358904, Note_on_c, 1, 35, 17
3, 358999, Note_on_c, 1, 35, 0
3, 359000, Note_on_c, 1, 39, 0
3, 359035, Note_on_c, 1, 40, 44
3, 359408, Note_on_c, 1, 35, 40
3, 359439, Note_on_c, 1, 40, 0
3, 359489, Note_on_c, 1, 47, 59
3, 359507, Note_on_c, 1, 35, 0
3, 359916, Note_on_c, 1, 47, 0
3, 359958, Note_on_c, 1, 52, 66
3, 360310, Note_on_c, 1, 44, 26
3, 360349, Note_on_c, 1, 44, 0
3, 360359, Note_on_c, 1, 52, 0
3, 360450, Note_on_c, 1, 51, 55
3, 360877, Note_on_c, 1, 51, 0
3, 360926, Note_on_c, 1, 52, 51
3, 361276, Note_on_c, 1, 44, 35
3, 361313, Note_on_c, 1, 44, 0
3, 361350, Note_on_c, 1, 52, 0
3, 361411, Note_on_c, 1, 47, 46
3, 361845, Note_on_c, 1, 47, 0
3, 361891, Note_on_c, 1, 43, 44
3, 362292, Note_on_c, 1, 43, 0
3, 362351, Note_on_c, 1, 42, 36
3, 362829, Note_on_c, 1, 40, 40
3, 362903, Note_on_c, 1, 42, 0
3, 363247, Note_on_c, 1, 40, 0
3, 363349, Note_on_c, 1, 40, 48
3, 363728, Note_on_c, 1, 40, 0
3, 363818, Note_on_c, 1, 37, 51
3, 364236, Note_on_c, 1, 37, 0
3, 364294, Note_on_c, 1, 37, 75
3, 364733, Note_on_c, 1, 37, 0
3, 364745, Note_on_c, 1, 36, 55
3, 365147, Note_on_c, 1, 34, 23
3, 365242, Note_on_c, 1, 45, 101
3, 365289, Note_on_c, 1, 36, 0
3, 365303, Note_on_c, 1, 34, 0
3, 365586, Note_on_c, 1, 38, 24
3, 365679, Note_on_c, 1, 38, 0
3, 365691, Note_on_c, 1, 45, 0
3, 365724, Note_on_c, 1, 43, 43
3, 366095, Note_on_c, 1, 38, 47
3, 366129, Note_on_c, 1, 43, 0
3, 366192, Note_on_c, 1, 51, 64
3, 366197, Note_on_c, 1, 38, 0
3, 366633, Note_on_c, 1, 51, 0
3, 366686, Note_on_c, 1, 52, 54
3, 366821, Note_on_c, 1, 52, 0
3, 366900, Note_on_c, 1, 47, 24
3, 366942, Note_on_c, 1, 47, 0
3, 367035, Note_on_c, 1, 43, 46
3, 367089, Note_on_c, 1, 43, 0
3, 367189, Note_on_c, 1, 40, 51
3, 367519, Note_on_c, 1, 38, 29
3, 367591, Note_on_c, 1, 40, 0
3, 367643, Note_on_c, 1, 38, 0
3, 367646, Note_on_c, 1, 47, 62
3, 367975, Note_on_c, 1, 38, 38
3, 368023, Note_on_c, 1, 38, 0
3, 368066, Note_on_c, 1, 47, 0
3, 368117, Note_on_c, 1, 42, 51
3, 368466, Note_on_c, 1, 38, 46
3, 368524, Note_on_c, 1, 38, 0
3, 368559, Note_on_c, 1, 42, 0
3, 368602, Note_on_c, 1, 45, 55
3, 369077, Note_on_c, 1, 45, 0
3, 369092, Note_on_c, 1, 40, 63
3, 369442, Note_on_c, 1, 33, 37
3, 369507, Note_on_c, 1, 33, 0
3, 369536, Note_on_c, 1, 40, 0
3, 369565, Note_on_c, 1, 45, 66
3, 369963, Note_on_c, 1, 45, 0
3, 370030, Note_on_c, 1, 35, 68
3, 370462, Note_on_c, 1, 35, 0
3, 370530, Note_on_c, 1, 35, 71
3, 370971, Note_on_c, 1, 35, 0
3, 371034, Note_on_c, 1, 35, 67
3, 371418, Note_on_c, 1, 35, 0
3, 371497, Note_on_c, 1, 34, 63
3, 371883, Note_on_c, 1, 34, 0
3, 371979, Note_on_c, 1, 34, 64
3, 372374, Note_on_c, 1, 34, 0
3, 372422, Note_on_c, 1, 33, 57
3, 372874, Note_on_c, 1, 40, 33
3, 372945, Note_on_c, 1, 47, 83
3, 372954, Note_on_c, 1, 40, 0
3, 373026, Note_on_c, 1, 33, 0
3, 373370, Note_on_c, 1, 47, 0
3, 373411, Note_on_c, 1, 45, 44
3, 373770, Note_on_c, 1, 40, 35
3, 373839, Note_on_c, 1, 45, 0
3, 373881, Note_on_c, 1, 40, 0
3, 373889, Note_on_c, 1, 50, 69
3, 374217, Note_on_c, 1, 40, 29
3, 374324, Note_on_c, 1, 50, 0
3, 374329, Note_on_c, 1, 40, 0
3, 374363, Note_on_c, 1, 49, 53
3, 374716, Note_on_c, 1, 40, 25
3, 374793, Note_on_c, 1, 49, 0
3, 374811, Note_on_c, 1, 40, 0
3, 374838, Note_on_c, 1, 46, 56
3, 375270, Note_on_c, 1, 46, 0
3, 375322, Note_on_c, 1, 45, 54
3, 375640, Note_on_c, 1, 45, 0
3, 375705, Note_on_c, 1, 43, 32
3, 375761, Note_on_c, 1, 43, 0
3, 375826, Note_on_c, 1, 44, 65
3, 376179, Note_on_c, 1, 38, 38
3, 376254, Note_on_c, 1, 44, 0
3, 376297, Note_on_c, 1, 43, 41
3, 376300, Note_on_c, 1, 38, 0
3, 376603, Note_on_c, 1, 43, 0
3, 376641, Note_on_c, 1, 38, 40
3, 376758, Note_on_c, 1, 38, 0
3, 376780, Note_on_c, 1, 31, 54
3, 377210, Note_on_c, 1, 31, 0
3, 377269, Note_on_c, 1, 31, 71
3, 377612, Note_on_c, 1, 38, 56
3, 377722, Note_on_c, 1, 38, 0
3, 377739, Note_on_c, 1, 31, 0
3, 377745, Note_on_c, 1, 43, 80
3, 378039, Note_on_c, 1, 38, 42
3, 378069, Note_on_c, 1, 43, 0
3, 378092, Note_on_c, 1, 42, 38
3, 378163, Note_on_c, 1, 38, 0
3, 378178, Note_on_c, 1, 42, 0
3, 378211, Note_on_c, 1, 43, 38
3, 378568, Note_on_c, 1, 38, 54
3, 378620, Note_on_c, 1, 43, 0
3, 378660, Note_on_c, 1, 38, 0
3, 378694, Note_on_c, 1, 31, 76
3, 379160, Note_on_c, 1, 31, 0
3, 379183, Note_on_c, 1, 32, 72
3, 379636, Note_on_c, 1, 32, 0
3, 379671, Note_on_c, 1, 33, 66
3, 380124, Note_on_c, 1, 33, 0
3, 380145, Note_on_c, 1, 34, 64
3, 380496, Note_on_c, 1, 32, 51
3, 380618, Note_on_c, 1, 32, 0
3, 380620, Note_on_c, 1, 46, 77
3, 380654, Note_on_c, 1, 34, 0
3, 381067, Note_on_c, 1, 46, 0
3, 381093, Note_on_c, 1, 44, 56
3, 381477, Note_on_c, 1, 34, 28
3, 381482, Note_on_c, 1, 44, 0
3, 381558, Note_on_c, 1, 43, 47
3, 381616, Note_on_c, 1, 34, 0
3, 381921, Note_on_c, 1, 34, 30
3, 381978, Note_on_c, 1, 43, 0
3, 382021, Note_on_c, 1, 34, 0
3, 382031, Note_on_c, 1, 41, 48
3, 382386, Note_on_c, 1, 34, 34
3, 382463, Note_on_c, 1, 41, 0
3, 382465, Note_on_c, 1, 34, 0
3, 382513, Note_on_c, 1, 39, 52
3, 382901, Note_on_c, 1, 34, 19
3, 382941, Note_on_c, 1, 34, 0
3, 382953, Note_on_c, 1, 39, 0
3, 383005, Note_on_c, 1, 38, 55
3, 383416, Note_on_c, 1, 38, 0
3, 383491, Note_on_c, 1, 34, 77
3, 383795, Note_on_c, 1, 32, 48
3, 383851, Note_on_c, 1, 34, 0
3, 383929, Note_on_c, 1, 32, 0
3, 383954, Note_on_c, 1, 33, 65
3, 384320, Note_on_c, 1, 32, 42
3, 384375, Note_on_c, 1, 33, 0
3, 384438, Note_on_c, 1, 40, 50
3, 384452, Note_on_c, 1, 32, 0
3, 384798, Note_on_c, 1, 32, 36
3, 384834, Note_on_c, 1, 40, 0
3, 384921, Note_on_c, 1, 45, 71
3, 384931, Note_on_c, 1, 32, 0
3, 385219, Note_on_c, 1, 32, 33
3, 385358, Note_on_c, 1, 45, 0
3, 385368, Note_on_c, 1, 32, 0
3, 385399, Note_on_c, 1, 44, 57
3, 385732, Note_on_c, 1, 32, 30
3, 385805, Note_on_c, 1, 32, 0
3, 385831, Note_on_c, 1, 44, 0
3, 385877, Note_on_c, 1, 45, 67
3, 386217, Note_on_c, 1, 30, 39
3, 386269, Note_on_c, 1, 45, 0
3, 386286, Note_on_c, 1, 30, 0
3, 386358, Note_on_c, 1, 40, 55
3, 386703, Note_on_c, 1, 30, 39
3, 386745, Note_on_c, 1, 40, 0
3, 386814, Note_on_c, 1, 30, 0
3, 386832, Note_on_c, 1, 33, 56
3, 387262, Note_on_c, 1, 33, 0
3, 387296, Note_on_c, 1, 31, 69
3, 387670, Note_on_c, 1, 29, 35
3, 387729, Note_on_c, 1, 31, 0
3, 387772, Note_on_c, 1, 29, 0
3, 387799, Note_on_c, 1, 30, 65
3, 388280, Note_on_c, 1, 30, 0
3, 388292, Note_on_c, 1, 42, 71
3, 388631, Note_on_c, 1, 37, 37
3, 388675, Note_on_c, 1, 42, 0
3, 388750, Note_on_c, 1, 37, 0
3, 388758, Note_on_c, 1, 42, 62
3, 389108, Note_on_c, 1, 37, 49
3, 389114, Note_on_c, 1, 42, 0
3, 389187, Note_on_c, 1, 37, 0
3, 389223, Note_on_c, 1, 30, 70
3, 389589, Note_on_c, 1, 37, 48
3, 389694, Note_on_c, 1, 30, 0
3, 389697, Note_on_c, 1, 37, 0
3, 389725, Note_on_c, 1, 42, 88
3, 390033, Note_on_c, 1, 38, 54
3, 390115, Note_on_c, 1, 42, 0
3, 390125, Note_on_c, 1, 38, 0
3, 390204, Note_on_c, 1, 41, 88
3, 390553, Note_on_c, 1, 38, 42
3, 390595, Note_on_c, 1, 41, 0
3, 390611, Note_on_c, 1, 38, 0
3, 390688, Note_on_c, 1, 41, 75
3, 391016, Note_on_c, 1, 38, 44
3, 391068, Note_on_c, 1, 41, 0
3, 391110, Note_on_c, 1, 38, 0
3, 391159, Note_on_c, 1, 39, 62
3, 391478, Note_on_c, 1, 37, 33
3, 391579, Note_on_c, 1, 39, 0
3, 391594, Note_on_c, 1, 37, 0
3, 391620, Note_on_c, 1, 40, 49
3, 392009, Note_on_c, 1, 39, 37
3, 392078, Note_on_c, 1, 40, 0
3, 392097, Note_on_c, 1, 39, 0
3, 392136, Note_on_c, 1, 47, 83
3, 392565, Note_on_c, 1, 47, 0
3, 392597, Note_on_c, 1, 52, 74
3, 392998, Note_on_c, 1, 52, 0
3, 393005, Note_on_c, 1, 40, 28
3, 393082, Note_on_c, 1, 40, 0
3, 393091, Note_on_c, 1, 51, 53
3, 393466, Note_on_c, 1, 40, 32
3, 393512, Note_on_c, 1, 51, 0
3, 393547, Note_on_c, 1, 40, 0
3, 393579, Note_on_c, 1, 52, 60
3, 393932, Note_on_c, 1, 40, 29
3, 393941, Note_on_c, 1, 52, 0
3, 394009, Note_on_c, 1, 40, 0
3, 394050, Note_on_c, 1, 47, 58
3, 394381, Note_on_c, 1, 40, 25
3, 394426, Note_on_c, 1, 40, 0
3, 394445, Note_on_c, 1, 47, 0
3, 394537, Note_on_c, 1, 42, 51
3, 394848, Note_on_c, 1, 34, 34
3, 394903, Note_on_c, 1, 42, 0
3, 394981, Note_on_c, 1, 34, 0
3, 394993, Note_on_c, 1, 37, 52
3, 395384, Note_on_c, 1, 34, 25
3, 395435, Note_on_c, 1, 34, 0
3, 395451, Note_on_c, 1, 37, 0
3, 395468, Note_on_c, 1, 36, 44
3, 395851, Note_on_c, 1, 34, 25
3, 395963, Note_on_c, 1, 45, 71
3, 395964, Note_on_c, 1, 36, 0
3, 396015, Note_on_c, 1, 34, 0
3, 396380, Note_on_c, 1, 45, 0
3, 396443, Note_on_c, 1, 43, 38
3, 396808, Note_on_c, 1, 36, 53
3, 396878, Note_on_c, 1, 43, 0
3, 396898, Note_on_c, 1, 36, 0
3, 396940, Note_on_c, 1, 35, 62
3, 397408, Note_on_c, 1, 35, 0
3, 397414, Note_on_c, 1, 36, 54
3, 397779, Note_on_c, 1, 35, 47
3, 397805, Note_on_c, 1, 36, 0
3, 397900, Note_on_c, 1, 45, 80
3, 397941, Note_on_c, 1, 35, 0
3, 398327, Note_on_c, 1, 45, 0
3, 398372, Note_on_c, 1, 43, 47
3, 398677, Note_on_c, 1, 32, 39
3, 398768, Note_on_c, 1, 43, 0
3, 398802, Note_on_c, 1, 32, 0
3, 398830, Note_on_c, 1, 35, 54
3, 399197, Note_on_c, 1, 32, 46
3, 399216, Note_on_c, 1, 35, 0
3, 399295, Note_on_c, 1, 32, 0
3, 399322, Note_on_c, 1, 33, 34
3, 399710, Note_on_c, 1, 33, 0
3, 399721, Note_on_c, 1, 32, 36
3, 399795, Note_on_c, 1, 32, 0
3, 399804, Note_on_c, 1, 33, 54
3, 400171, Note_on_c, 1, 32, 36
3, 400186, Note_on_c, 1, 33, 0
3, 400282, Note_on_c, 1, 35, 62
3, 400293, Note_on_c, 1, 32, 0
3, 400685, Note_on_c, 1, 32, 32
3, 400707, Note_on_c, 1, 35, 0
3, 400777, Note_on_c, 1, 35, 58
3, 400820, Note_on_c, 1, 32, 0
3, 401119, Note_on_c, 1, 34, 48
3, 401143, Note_on_c, 1, 35, 0
3, 401245, Note_on_c, 1, 36, 60
3, 401253, Note_on_c, 1, 34, 0
3, 401647, Note_on_c, 1, 34, 43
3, 401715, Note_on_c, 1, 36, 0
3, 401726, Note_on_c, 1, 43, 64
3, 401787, Note_on_c, 1, 34, 0
3, 402105, Note_on_c, 1, 36, 33
3, 402156, Note_on_c, 1, 36, 0
3, 402162, Note_on_c, 1, 43, 0
3, 402207, Note_on_c, 1, 41, 50
3, 402664, Note_on_c, 1, 41, 0
3, 402689, Note_on_c, 1, 39, 61
3, 403026, Note_on_c, 1, 37, 27
3, 403123, Note_on_c, 1, 37, 0
3, 403124, Note_on_c, 1, 39, 0
3, 403163, Note_on_c, 1, 40, 56
3, 403615, Note_on_c, 1, 40, 0
3, 403641, Note_on_c, 1, 35, 58
3, 403977, Note_on_c, 1, 34, 34
3, 404081, Note_on_c, 1, 35, 0
3, 404105, Note_on_c, 1, 34, 0
3, 404113, Note_on_c, 1, 38, 64
3, 404573, Note_on_c, 1, 38, 0
3, 404594, Note_on_c, 1, 33, 58
3, 405050, Note_on_c, 1, 33, 0
3, 405064, Note_on_c, 1, 35, 58
3, 405525, Note_on_c, 1, 35, 0
3, 405540, Note_on_c, 1, 31, 54
3, 405979, Note_on_c, 1, 31, 0
3, 406028, Note_on_c, 1, 30, 55
3, 406498, Note_on_c, 1, 29, 39
3, 406508, Note_on_c, 1, 30, 0
3, 406924, Note_on_c, 1, 29, 0
3, 406947, Note_on_c, 1, 28, 53
3, 407432, Note_on_c, 1, 28, 0
3, 407455, Note_on_c, 1, 35, 59
3, 407947, Note_on_c, 1, 45, 74
3, 407969, Note_on_c, 1, 35, 0
3, 408315, Note_on_c, 1, 35, 35
3, 408411, Note_on_c, 1, 45, 0
3, 408419, Note_on_c, 1, 35, 0
3, 408425, Note_on_c, 1, 42, 52
3, 408777, Note_on_c, 1, 35, 33
3, 408869, Note_on_c, 1, 42, 0
3, 408896, Note_on_c, 1, 35, 0
3, 408911, Note_on_c, 1, 43, 53
3, 409344, Note_on_c, 1, 43, 0
3, 409383, Note_on_c, 1, 38, 69
3, 409832, Note_on_c, 1, 38, 0
3, 409853, Note_on_c, 1, 37, 60
3, 410303, Note_on_c, 1, 37, 0
3, 410367, Note_on_c, 1, 37, 64
3, 410812, Note_on_c, 1, 37, 0
3, 410828, Note_on_c, 1, 36, 61
3, 411224, Note_on_c, 1, 34, 32
3, 411312, Note_on_c, 1, 36, 0
3, 411334, Note_on_c, 1, 45, 78
3, 411370, Note_on_c, 1, 34, 0
3, 411772, Note_on_c, 1, 45, 0
3, 411812, Note_on_c, 1, 43, 40
3, 412235, Note_on_c, 1, 43, 0
3, 412274, Note_on_c, 1, 40, 59
3, 412739, Note_on_c, 1, 40, 0
3, 412753, Note_on_c, 1, 35, 62
3, 413227, Note_on_c, 1, 35, 0
3, 413249, Note_on_c, 1, 38, 77
3, 413728, Note_on_c, 1, 35, 69
3, 413747, Note_on_c, 1, 38, 0
3, 414163, Note_on_c, 1, 35, 0
3, 414203, Note_on_c, 1, 34, 74
3, 414629, Note_on_c, 1, 34, 0
3, 414678, Note_on_c, 1, 33, 67
3, 415159, Note_on_c, 1, 45, 95
3, 415597, Note_on_c, 1, 45, 0
3, 415651, Note_on_c, 1, 47, 82
3, 415788, Note_on_c, 1, 33, 0
3, 416128, Note_on_c, 1, 35, 81
3, 416209, Note_on_c, 1, 47, 0
3, 416624, Note_on_c, 1, 48, 105
3, 416698, Note_on_c, 1, 35, 0
3, 416979, Note_on_c, 1, 35, 36
3, 417060, Note_on_c, 1, 35, 0
3, 417086, Note_on_c, 1, 48, 0
3, 417107, Note_on_c, 1, 47, 73
3, 417449, Note_on_c, 1, 37, 23
3, 417469, Note_on_c, 1, 38, 39
3, 417484, Note_on_c, 1, 37, 0
3, 417528, Note_on_c, 1, 38, 0
3, 417541, Note_on_c, 1, 47, 0
3, 417566, Note_on_c, 1, 41, 56
3, 418048, Note_on_c, 1, 41, 0
3, 418056, Note_on_c, 1, 39, 69
3, 418395, Note_on_c, 1, 37, 32
3, 418543, Note_on_c, 1, 37, 0
3, 418549, Note_on_c, 1, 40, 55
3, 418551, Note_on_c, 1, 39, 0
3, 418920, Note_on_c, 1, 39, 43
3, 419002, Note_on_c, 1, 40, 0
3, 419018, Note_on_c, 1, 52, 60
3, 419064, Note_on_c, 1, 39, 0
3, 419369, Note_on_c, 1, 40, 30
3, 419425, Note_on_c, 1, 52, 0
3, 419471, Note_on_c, 1, 40, 0
3, 419503, Note_on_c, 1, 54, 48
3, 419846, Note_on_c, 1, 40, 36
3, 419974, Note_on_c, 1, 55, 57
3, 419986, Note_on_c, 1, 54, 0
3, 419997, Note_on_c, 1, 40, 0
3, 420347, Note_on_c, 1, 40, 34
3, 420357, Note_on_c, 1, 55, 0
3, 420444, Note_on_c, 1, 54, 60
3, 420473, Note_on_c, 1, 40, 0
3, 420926, Note_on_c, 1, 52, 48
3, 421278, Note_on_c, 1, 40, 39
3, 421303, Note_on_c, 1, 52, 0
3, 421332, Note_on_c, 1, 40, 0
3, 421363, Note_on_c, 1, 54, 0
3, 421386, Note_on_c, 1, 47, 51
3, 421743, Note_on_c, 1, 39, 52
3, 421785, Note_on_c, 1, 39, 0
3, 421803, Note_on_c, 1, 47, 0
3, 421871, Note_on_c, 1, 43, 41
3, 422173, Note_on_c, 1, 39, 62
3, 422190, Note_on_c, 1, 43, 0
3, 422288, Note_on_c, 1, 39, 0
3, 422351, Note_on_c, 1, 40, 50
3, 422689, Note_on_c, 1, 40, 0
3, 422702, Note_on_c, 1, 35, 61
3, 422809, Note_on_c, 1, 35, 0
3, 422850, Note_on_c, 1, 35, 62
3, 423287, Note_on_c, 1, 35, 0
3, 423308, Note_on_c, 1, 38, 66
3, 423751, Note_on_c, 1, 38, 0
3, 423785, Note_on_c, 1, 33, 64
3, 424272, Note_on_c, 1, 33, 0
3, 424276, Note_on_c, 1, 35, 59
3, 424755, Note_on_c, 1, 36, 64
3, 424790, Note_on_c, 1, 35, 0
3, 425138, Note_on_c, 1, 36, 0
3, 425242, Note_on_c, 1, 37, 70
3, 425276, Note_on_c, 1, 53, 27
3, 425314, Note_on_c, 1, 53, 0
3, 425654, Note_on_c, 1, 37, 0
3, 425715, Note_on_c, 1, 37, 67
3, 426093, Note_on_c, 1, 34, 30
3, 426173, Note_on_c, 1, 37, 0
3, 426181, Note_on_c, 1, 34, 0
3, 426212, Note_on_c, 1, 36, 55
3, 426687, Note_on_c, 1, 31, 49
3, 426691, Note_on_c, 1, 36, 0
3, 427147, Note_on_c, 1, 31, 0
3, 427149, Note_on_c, 1, 38, 65
3, 427635, Note_on_c, 1, 37, 62
3, 427644, Note_on_c, 1, 38, 0
3, 428011, Note_on_c, 1, 34, 23
3, 428060, Note_on_c, 1, 34, 0
3, 428065, Note_on_c, 1, 37, 0
3, 428114, Note_on_c, 1, 36, 57
3, 428584, Note_on_c, 1, 36, 0
3, 428595, Note_on_c, 1, 31, 55
3, 429084, Note_on_c, 1, 31, 0
3, 429102, Note_on_c, 1, 35, 62
3, 429570, Note_on_c, 1, 34, 67
3, 429630, Note_on_c, 1, 35, 0
3, 429991, Note_on_c, 1, 34, 0
3, 430050, Note_on_c, 1, 33, 64
3, 430552, Note_on_c, 1, 45, 80
3, 430661, Note_on_c, 1, 33, 0
3, 430916, Note_on_c, 1, 33, 36
3, 430998, Note_on_c, 1, 45, 0
3, 431014, Note_on_c, 1, 33, 0
3, 431032, Note_on_c, 1, 47, 63
3, 431505, Note_on_c, 1, 35, 71
3, 431571, Note_on_c, 1, 47, 0
3, 431984, Note_on_c, 1, 47, 94
3, 432020, Note_on_c, 1, 35, 0
3, 432365, Note_on_c, 1, 35, 39
3, 432395, Note_on_c, 1, 47, 0
3, 432458, Note_on_c, 1, 47, 85
3, 432518, Note_on_c, 1, 35, 0
3, 432882, Note_on_c, 1, 47, 0
3, 432933, Note_on_c, 1, 46, 73
3, 433302, Note_on_c, 1, 34, 31
3, 433330, Note_on_c, 1, 46, 0
3, 433388, Note_on_c, 1, 34, 0
3, 433426, Note_on_c, 1, 46, 75
3, 433851, Note_on_c, 1, 46, 0
3, 433902, Note_on_c, 1, 45, 66
3, 434362, Note_on_c, 1, 45, 0
3, 434397, Note_on_c, 1, 40, 58
3, 434561, Note_on_c, 1, 40, 0
3, 434739, Note_on_c, 1, 40, 51
3, 434882, Note_on_c, 1, 33, 62
3, 434898, Note_on_c, 1, 40, 0
3, 435234, Note_on_c, 1, 40, 45
3, 435304, Note_on_c, 1, 33, 0
3, 435340, Note_on_c, 1, 40, 0
3, 435368, Note_on_c, 1, 44, 70
3, 435691, Note_on_c, 1, 40, 34
3, 435761, Note_on_c, 1, 40, 0
3, 435773, Note_on_c, 1, 44, 0
3, 435833, Note_on_c, 1, 45, 66
3, 436064, Note_on_c, 1, 45, 0
3, 436146, Note_on_c, 1, 45, 67
3, 436232, Note_on_c, 1, 45, 0
3, 436308, Note_on_c, 1, 40, 66
3, 436733, Note_on_c, 1, 40, 0
3, 436782, Note_on_c, 1, 33, 58
3, 437116, Note_on_c, 1, 40, 53
3, 437184, Note_on_c, 1, 33, 0
3, 437204, Note_on_c, 1, 40, 0
3, 437237, Note_on_c, 1, 44, 76
3, 437637, Note_on_c, 1, 38, 41
3, 437669, Note_on_c, 1, 44, 0
3, 437682, Note_on_c, 1, 38, 0
3, 437729, Note_on_c, 1, 43, 54
3, 437853, Note_on_c, 1, 43, 0
3, 438068, Note_on_c, 1, 43, 58
3, 438132, Note_on_c, 1, 43, 0
3, 438236, Note_on_c, 1, 31, 71
3, 438655, Note_on_c, 1, 38, 29
3, 438754, Note_on_c, 1, 38, 0
3, 439046, Note_on_c, 1, 38, 58
3, 439086, Note_on_c, 1, 38, 0
3, 439172, Note_on_c, 1, 43, 77
3, 439346, Note_on_c, 1, 43, 0
3, 439496, Note_on_c, 1, 38, 35
3, 439516, Note_on_c, 1, 42, 42
3, 439549, Note_on_c, 1, 38, 0
3, 439592, Note_on_c, 1, 42, 0
3, 439629, Note_on_c, 1, 43, 42
3, 439721, Note_on_c, 1, 31, 0
3, 439990, Note_on_c, 1, 38, 54
3, 439995, Note_on_c, 1, 43, 0
3, 440044, Note_on_c, 1, 38, 0
3, 440125, Note_on_c, 1, 31, 69
3, 440528, Note_on_c, 1, 31, 0
3, 440619, Note_on_c, 1, 31, 37
3, 440630, Note_on_c, 1, 33, 50
3, 440765, Note_on_c, 1, 33, 0
3, 440848, Note_on_c, 1, 31, 0
3, 440946, Note_on_c, 1, 32, 72
3, 441065, Note_on_c, 1, 32, 0
3, 441104, Note_on_c, 1, 33, 69
3, 441511, Note_on_c, 1, 33, 0
3, 441548, Note_on_c, 1, 34, 53
3, 442051, Note_on_c, 1, 46, 67
3, 442126, Note_on_c, 1, 34, 0
3, 442377, Note_on_c, 1, 46, 0
3, 442390, Note_on_c, 1, 34, 34
3, 442479, Note_on_c, 1, 34, 0
3, 442533, Note_on_c, 1, 46, 70
3, 442865, Note_on_c, 1, 46, 0
3, 442919, Note_on_c, 1, 34, 25
3, 442980, Note_on_c, 1, 34, 0
3, 443016, Note_on_c, 1, 46, 75
3, 443397, Note_on_c, 1, 46, 0
3, 443433, Note_on_c, 1, 34, 55
3, 443496, Note_on_c, 1, 46, 81
3, 443510, Note_on_c, 1, 34, 0
3, 443871, Note_on_c, 1, 34, 31
3, 443889, Note_on_c, 1, 46, 0
3, 443946, Note_on_c, 1, 34, 0
3, 443964, Note_on_c, 1, 46, 70
3, 444311, Note_on_c, 1, 46, 0
3, 444340, Note_on_c, 1, 34, 36
3, 444409, Note_on_c, 1, 34, 0
3, 444449, Note_on_c, 1, 46, 74
3, 444799, Note_on_c, 1, 34, 64
3, 444817, Note_on_c, 1, 46, 0
3, 444868, Note_on_c, 1, 34, 0
3, 444948, Note_on_c, 1, 34, 60
3, 445236, Note_on_c, 1, 32, 62
3, 445270, Note_on_c, 1, 34, 0
3, 445348, Note_on_c, 1, 32, 0
3, 445392, Note_on_c, 1, 33, 69
3, 445724, Note_on_c, 1, 32, 51
3, 445777, Note_on_c, 1, 32, 0
3, 445858, Note_on_c, 1, 33, 0
3, 445866, Note_on_c, 1, 45, 91
3, 446192, Note_on_c, 1, 33, 31
3, 446199, Note_on_c, 1, 45, 0
3, 446213, Note_on_c, 1, 44, 51
3, 446263, Note_on_c, 1, 33, 0
3, 446336, Note_on_c, 1, 44, 0
3, 446350, Note_on_c, 1, 45, 65
3, 446788, Note_on_c, 1, 45, 0
3, 446856, Note_on_c, 1, 40, 62
3, 447318, Note_on_c, 1, 40, 0
3, 447343, Note_on_c, 1, 33, 65
3, 447698, Note_on_c, 1, 40, 37
3, 447761, Note_on_c, 1, 33, 0
3, 447789, Note_on_c, 1, 40, 0
3, 447821, Note_on_c, 1, 45, 89
3, 448143, Note_on_c, 1, 45, 0
3, 448159, Note_on_c, 1, 44, 45
3, 448246, Note_on_c, 1, 44, 0
3, 448295, Note_on_c, 1, 45, 71
3, 448661, Note_on_c, 1, 45, 0
3, 448661, Note_on_c, 1, 38, 38
3, 448708, Note_on_c, 1, 38, 0
3, 448746, Note_on_c, 1, 43, 71
3, 449196, Note_on_c, 1, 43, 0
3, 449239, Note_on_c, 1, 42, 49
3, 449570, Note_on_c, 1, 37, 43
3, 449614, Note_on_c, 1, 37, 0
3, 449636, Note_on_c, 1, 42, 0
3, 449726, Note_on_c, 1, 30, 60
3, 450201, Note_on_c, 1, 30, 0
3, 450221, Note_on_c, 1, 42, 66
3, 450561, Note_on_c, 1, 30, 44
3, 450568, Note_on_c, 1, 42, 0
3, 450698, Note_on_c, 1, 42, 58
3, 450711, Note_on_c, 1, 30, 0
3, 451005, Note_on_c, 1, 37, 40
3, 451054, Note_on_c, 1, 37, 0
3, 451112, Note_on_c, 1, 42, 0
3, 451177, Note_on_c, 1, 41, 57
3, 451626, Note_on_c, 1, 41, 0
3, 451653, Note_on_c, 1, 38, 66
3, 452112, Note_on_c, 1, 38, 0
3, 452161, Note_on_c, 1, 40, 54
3, 452628, Note_on_c, 1, 40, 0
3, 452632, Note_on_c, 1, 39, 67
3, 453013, Note_on_c, 1, 37, 29
3, 453079, Note_on_c, 1, 37, 0
3, 453103, Note_on_c, 1, 39, 0
3, 453114, Note_on_c, 1, 40, 56
3, 453573, Note_on_c, 1, 40, 0
3, 453582, Note_on_c, 1, 35, 51
3, 454010, Note_on_c, 1, 40, 28
3, 454016, Note_on_c, 1, 35, 0
3, 454070, Note_on_c, 1, 52, 78
3, 454370, Note_on_c, 1, 52, 0
3, 454541, Note_on_c, 1, 54, 65
3, 454591, Note_on_c, 1, 40, 0
3, 454878, Note_on_c, 1, 41, 30
3, 454949, Note_on_c, 1, 41, 0
3, 454960, Note_on_c, 1, 54, 0
3, 455013, Note_on_c, 1, 55, 50
3, 455381, Note_on_c, 1, 43, 33
3, 455392, Note_on_c, 1, 55, 0
3, 455484, Note_on_c, 1, 54, 57
3, 455534, Note_on_c, 1, 43, 0
3, 455783, Note_on_c, 1, 43, 20
3, 455823, Note_on_c, 1, 43, 0
3, 455947, Note_on_c, 1, 54, 0
3, 455959, Note_on_c, 1, 47, 52
3, 456437, Note_on_c, 1, 47, 0
3, 456450, Note_on_c, 1, 37, 53
3, 456822, Note_on_c, 1, 34, 32
3, 456880, Note_on_c, 1, 34, 0
3, 456886, Note_on_c, 1, 37, 0
3, 456921, Note_on_c, 1, 36, 48
3, 457316, Note_on_c, 1, 34, 28
3, 457378, Note_on_c, 1, 36, 0
3, 457402, Note_on_c, 1, 47, 66
3, 457458, Note_on_c, 1, 34, 0
3, 457718, Note_on_c, 1, 38, 30
3, 457782, Note_on_c, 1, 38, 0
3, 457841, Note_on_c, 1, 47, 0
3, 457874, Note_on_c, 1, 43, 44
3, 458332, Note_on_c, 1, 43, 0
3, 458357, Note_on_c, 1, 39, 58
3, 458694, Note_on_c, 1, 37, 28
3, 458800, Note_on_c, 1, 37, 0
3, 458803, Note_on_c, 1, 39, 0
3, 458834, Note_on_c, 1, 40, 58
3, 459320, Note_on_c, 1, 35, 58
3, 459397, Note_on_c, 1, 40, 0
3, 459775, Note_on_c, 1, 35, 0
3, 459804, Note_on_c, 1, 33, 62
3, 460275, Note_on_c, 1, 33, 0
3, 460281, Note_on_c, 1, 32, 64
3, 460708, Note_on_c, 1, 32, 0
3, 460746, Note_on_c, 1, 33, 53
3, 461209, Note_on_c, 1, 33, 0
3, 461236, Note_on_c, 1, 40, 68
3, 461679, Note_on_c, 1, 40, 0
3, 461729, Note_on_c, 1, 35, 57
3, 462207, Note_on_c, 1, 47, 75
3, 462241, Note_on_c, 1, 35, 0
3, 462576, Note_on_c, 1, 36, 31
3, 462638, Note_on_c, 1, 47, 0
3, 462665, Note_on_c, 1, 36, 0
3, 462696, Note_on_c, 1, 48, 55
3, 463178, Note_on_c, 1, 48, 0
3, 463193, Note_on_c, 1, 36, 60
3, 463619, Note_on_c, 1, 36, 0
3, 463661, Note_on_c, 1, 41, 71
3, 464114, Note_on_c, 1, 41, 0
3, 464146, Note_on_c, 1, 39, 69
3, 464527, Note_on_c, 1, 37, 27
3, 464599, Note_on_c, 1, 37, 0
3, 464601, Note_on_c, 1, 39, 0
3, 464651, Note_on_c, 1, 40, 60
3, 465458, Note_on_c, 1, 40, 0
3, 465458, End_track
4, 0, Start_track
4, 0, Title_t, "MIDI 2"
4, 0, Control_c, 9, 0, 0
4, 0, Control_c, 9, 7, 89
4, 1, Control_c, 9, 32, 1
4, 2, Program_c, 9, 32
4, 222720, Note_on_c, 9, 42, 58
4, 222857, Note_on_c, 9, 42, 0
4, 223202, Note_on_c, 9, 42, 51
4, 223357, Note_on_c, 9, 42, 0
4, 223683, Note_on_c, 9, 46, 83
4, 223688, Note_on_c, 9, 36, 110
4, 223953, Note_on_c, 9, 36, 0
4, 224061, Note_on_c, 9, 46, 0
4, 224182, Note_on_c, 9, 42, 48
4, 224268, Note_on_c, 9, 42, 0
4, 224437, Note_on_c, 9, 42, 58
4, 224567, Note_on_c, 9, 42, 0
4, 225147, Note_on_c, 9, 42, 41
4, 225283, Note_on_c, 9, 42, 0
4, 225600, Note_on_c, 9, 36, 112
4, 225650, Note_on_c, 9, 46, 70
4, 225865, Note_on_c, 9, 46, 0
4, 225982, Note_on_c, 9, 36, 0
4, 226105, Note_on_c, 9, 42, 52
4, 226211, Note_on_c, 9, 42, 0
4, 226580, Note_on_c, 9, 42, 49
4, 226673, Note_on_c, 9, 42, 0
4, 227046, Note_on_c, 9, 46, 80
4, 227516, Note_on_c, 9, 35, 100
4, 227814, Note_on_c, 9, 35, 0
4, 227817, Note_on_c, 9, 46, 0
4, 228013, Note_on_c, 9, 42, 54
4, 228131, Note_on_c, 9, 42, 0
4, 228484, Note_on_c, 9, 42, 50
4, 228608, Note_on_c, 9, 42, 0
4, 228968, Note_on_c, 9, 46, 69
4, 229473, Note_on_c, 9, 35, 97
4, 229534, Note_on_c, 9, 46, 0
4, 229857, Note_on_c, 9, 35, 0
4, 229935, Note_on_c, 9, 42, 58
4, 230098, Note_on_c, 9, 42, 0
4, 230439, Note_on_c, 9, 42, 53
4, 230601, Note_on_c, 9, 42, 0
4, 231360, Note_on_c, 9, 35, 100
4, 231399, Note_on_c, 9, 42, 50
4, 231505, Note_on_c, 9, 42, 0
4, 231660, Note_on_c, 9, 35, 0
4, 231847, Note_on_c, 9, 46, 77
4, 232166, Note_on_c, 9, 46, 0
4, 232361, Note_on_c, 9, 42, 48
4, 232452, Note_on_c, 9, 42, 0
4, 232780, Note_on_c, 9, 42, 51
4, 232906, Note_on_c, 9, 42, 0
4, 233278, Note_on_c, 9, 35, 101
4, 233665, Note_on_c, 9, 35, 0
4, 233782, Note_on_c, 9, 42, 51
4, 233886, Note_on_c, 9, 42, 0
4, 234250, Note_on_c, 9, 42, 53
4, 234360, Note_on_c, 9, 42, 0
4, 234718, Note_on_c, 9, 46, 76
4, 234897, Note_on_c, 9, 46, 0
4, 235041, Note_on_c, 9, 35, 85
4, 235187, Note_on_c, 9, 35, 0
4, 235202, Note_on_c, 9, 42, 52
4, 235239, Note_on_c, 9, 35, 95
4, 235312, Note_on_c, 9, 42, 0
4, 235552, Note_on_c, 9, 35, 0
4, 235675, Note_on_c, 9, 42, 64
4, 235825, Note_on_c, 9, 42, 0
4, 236631, Note_on_c, 9, 42, 53
4, 236781, Note_on_c, 9, 42, 0
4, 237140, Note_on_c, 9, 35, 98
4, 237439, Note_on_c, 9, 35, 0
4, 237627, Note_on_c, 9, 42, 48
4, 237717, Note_on_c, 9, 42, 0
4, 237896, Note_on_c, 9, 42, 55
4, 238009, Note_on_c, 9, 42, 0
4, 238082, Note_on_c, 9, 42, 54
4, 238229, Note_on_c, 9, 42, 0
4, 238567, Note_on_c, 9, 46, 78
4, 238978, Note_on_c, 9, 46, 0
4, 239016, Note_on_c, 9, 35, 102
4, 239388, Note_on_c, 9, 35, 0
4, 239547, Note_on_c, 9, 42, 56
4, 239701, Note_on_c, 9, 42, 0
4, 240516, Note_on_c, 9, 42, 64
4, 240690, Note_on_c, 9, 42, 0
4, 240996, Note_on_c, 9, 35, 98
4, 241443, Note_on_c, 9, 42, 75
4, 241452, Note_on_c, 9, 35, 0
4, 241728, Note_on_c, 9, 42, 0
4, 242423, Note_on_c, 9, 46, 85
4, 242783, Note_on_c, 9, 46, 0
4, 242881, Note_on_c, 9, 35, 101
4, 242932, Note_on_c, 9, 42, 48
4, 243054, Note_on_c, 9, 42, 0
4, 243312, Note_on_c, 9, 35, 0
4, 243359, Note_on_c, 9, 42, 62
4, 243508, Note_on_c, 9, 42, 0
4, 244788, Note_on_c, 9, 35, 98
4, 245176, Note_on_c, 9, 35, 0
4, 245291, Note_on_c, 9, 42, 64
4, 245469, Note_on_c, 9, 42, 0
4, 245764, Note_on_c, 9, 42, 50
4, 245957, Note_on_c, 9, 42, 0
4, 246256, Note_on_c, 9, 42, 60
4, 246411, Note_on_c, 9, 42, 0
4, 246730, Note_on_c, 9, 46, 78
4, 246736, Note_on_c, 9, 35, 97
4, 247088, Note_on_c, 9, 35, 0
4, 247105, Note_on_c, 9, 46, 0
4, 247225, Note_on_c, 9, 42, 64
4, 247363, Note_on_c, 9, 42, 0
4, 247709, Note_on_c, 9, 42, 55
4, 247842, Note_on_c, 9, 42, 0
4, 248159, Note_on_c, 9, 42, 67
4, 248324, Note_on_c, 9, 42, 0
4, 248659, Note_on_c, 9, 35, 100
4, 248907, Note_on_c, 9, 42, 70
4, 249010, Note_on_c, 9, 35, 0
4, 249014, Note_on_c, 9, 42, 0
4, 249117, Note_on_c, 9, 42, 51
4, 249272, Note_on_c, 9, 42, 0
4, 249566, Note_on_c, 9, 42, 60
4, 249775, Note_on_c, 9, 42, 0
4, 250080, Note_on_c, 9, 46, 83
4, 250416, Note_on_c, 9, 35, 66
4, 250474, Note_on_c, 9, 35, 0
4, 250477, Note_on_c, 9, 46, 0
4, 250556, Note_on_c, 9, 35, 86
4, 250576, Note_on_c, 9, 42, 60
4, 250727, Note_on_c, 9, 42, 0
4, 250932, Note_on_c, 9, 35, 0
4, 251028, Note_on_c, 9, 42, 65
4, 251181, Note_on_c, 9, 42, 0
4, 252001, Note_on_c, 9, 42, 73
4, 252195, Note_on_c, 9, 42, 0
4, 252314, Note_on_c, 9, 35, 65
4, 252384, Note_on_c, 9, 35, 0
4, 252466, Note_on_c, 9, 35, 84
4, 252485, Note_on_c, 9, 42, 67
4, 252841, Note_on_c, 9, 35, 0
4, 252969, Note_on_c, 9, 42, 0
4, 252971, Note_on_c, 9, 46, 85
4, 253100, Note_on_c, 9, 46, 0
4, 253475, Note_on_c, 9, 42, 58
4, 253612, Note_on_c, 9, 42, 0
4, 253922, Note_on_c, 9, 42, 51
4, 254077, Note_on_c, 9, 42, 0
4, 254403, Note_on_c, 9, 46, 83
4, 254412, Note_on_c, 9, 35, 98
4, 254729, Note_on_c, 9, 35, 0
4, 254781, Note_on_c, 9, 46, 0
4, 254902, Note_on_c, 9, 42, 48
4, 254988, Note_on_c, 9, 42, 0
4, 255157, Note_on_c, 9, 42, 58
4, 255287, Note_on_c, 9, 42, 0
4, 255867, Note_on_c, 9, 42, 41
4, 256003, Note_on_c, 9, 42, 0
4, 256360, Note_on_c, 9, 35, 98
4, 256370, Note_on_c, 9, 46, 70
4, 256585, Note_on_c, 9, 46, 0
4, 256686, Note_on_c, 9, 35, 0
4, 256825, Note_on_c, 9, 42, 52
4, 256931, Note_on_c, 9, 42, 0
4, 257300, Note_on_c, 9, 42, 49
4, 257393, Note_on_c, 9, 42, 0
4, 257766, Note_on_c, 9, 46, 80
4, 258246, Note_on_c, 9, 35, 99
4, 258537, Note_on_c, 9, 46, 0
4, 258624, Note_on_c, 9, 35, 0
4, 258733, Note_on_c, 9, 42, 54
4, 258851, Note_on_c, 9, 42, 0
4, 259204, Note_on_c, 9, 42, 50
4, 259328, Note_on_c, 9, 42, 0
4, 259688, Note_on_c, 9, 46, 69
4, 260210, Note_on_c, 9, 35, 95
4, 260254, Note_on_c, 9, 46, 0
4, 260535, Note_on_c, 9, 35, 0
4, 260655, Note_on_c, 9, 42, 58
4, 260818, Note_on_c, 9, 42, 0
4, 261159, Note_on_c, 9, 42, 53
4, 261321, Note_on_c, 9, 42, 0
4, 262108, Note_on_c, 9, 35, 100
4, 262119, Note_on_c, 9, 42, 50
4, 262225, Note_on_c, 9, 42, 0
4, 262400, Note_on_c, 9, 35, 0
4, 262567, Note_on_c, 9, 46, 77
4, 262886, Note_on_c, 9, 46, 0
4, 263081, Note_on_c, 9, 42, 48
4, 263172, Note_on_c, 9, 42, 0
4, 263500, Note_on_c, 9, 42, 51
4, 263626, Note_on_c, 9, 42, 0
4, 263986, Note_on_c, 9, 35, 99
4, 264332, Note_on_c, 9, 35, 0
4, 264502, Note_on_c, 9, 42, 51
4, 264606, Note_on_c, 9, 42, 0
4, 264970, Note_on_c, 9, 42, 53
4, 265080, Note_on_c, 9, 42, 0
4, 265438, Note_on_c, 9, 46, 76
4, 265617, Note_on_c, 9, 46, 0
4, 265922, Note_on_c, 9, 42, 52
4, 265931, Note_on_c, 9, 35, 94
4, 266032, Note_on_c, 9, 42, 0
4, 266294, Note_on_c, 9, 35, 0
4, 266395, Note_on_c, 9, 42, 64
4, 266545, Note_on_c, 9, 42, 0
4, 267351, Note_on_c, 9, 42, 53
4, 267501, Note_on_c, 9, 42, 0
4, 267671, Note_on_c, 9, 35, 64
4, 267711, Note_on_c, 9, 35, 0
4, 267829, Note_on_c, 9, 35, 95
4, 268260, Note_on_c, 9, 35, 0
4, 268347, Note_on_c, 9, 42, 48
4, 268437, Note_on_c, 9, 42, 0
4, 268616, Note_on_c, 9, 42, 55
4, 268729, Note_on_c, 9, 42, 0
4, 268802, Note_on_c, 9, 42, 54
4, 268949, Note_on_c, 9, 42, 0
4, 269287, Note_on_c, 9, 46, 78
4, 269698, Note_on_c, 9, 46, 0
4, 269780, Note_on_c, 9, 35, 95
4, 270055, Note_on_c, 9, 35, 0
4, 270267, Note_on_c, 9, 42, 56
4, 270421, Note_on_c, 9, 42, 0
4, 271236, Note_on_c, 9, 42, 64
4, 271410, Note_on_c, 9, 42, 0
4, 272163, Note_on_c, 9, 42, 75
4, 272448, Note_on_c, 9, 42, 0
4, 272677, Note_on_c, 9, 35, 55
4, 272726, Note_on_c, 9, 35, 0
4, 273143, Note_on_c, 9, 46, 85
4, 273503, Note_on_c, 9, 46, 0
4, 273652, Note_on_c, 9, 42, 48
4, 273658, Note_on_c, 9, 35, 97
4, 273774, Note_on_c, 9, 42, 0
4, 273912, Note_on_c, 9, 35, 0
4, 274079, Note_on_c, 9, 42, 62
4, 274228, Note_on_c, 9, 42, 0
4, 275510, Note_on_c, 9, 35, 101
4, 275832, Note_on_c, 9, 35, 0
4, 276011, Note_on_c, 9, 42, 64
4, 276189, Note_on_c, 9, 42, 0
4, 276484, Note_on_c, 9, 42, 50
4, 276677, Note_on_c, 9, 42, 0
4, 276976, Note_on_c, 9, 42, 60
4, 277131, Note_on_c, 9, 42, 0
4, 277275, Note_on_c, 9, 35, 75
4, 277316, Note_on_c, 9, 35, 0
4, 277450, Note_on_c, 9, 46, 78
4, 277472, Note_on_c, 9, 35, 102
4, 277825, Note_on_c, 9, 46, 0
4, 277865, Note_on_c, 9, 35, 0
4, 277945, Note_on_c, 9, 42, 64
4, 278083, Note_on_c, 9, 42, 0
4, 278429, Note_on_c, 9, 42, 55
4, 278562, Note_on_c, 9, 42, 0
4, 278879, Note_on_c, 9, 42, 67
4, 279044, Note_on_c, 9, 42, 0
4, 279426, Note_on_c, 9, 35, 98
4, 279627, Note_on_c, 9, 42, 70
4, 279727, Note_on_c, 9, 35, 0
4, 279734, Note_on_c, 9, 42, 0
4, 279837, Note_on_c, 9, 42, 51
4, 279992, Note_on_c, 9, 42, 0
4, 280286, Note_on_c, 9, 42, 60
4, 280495, Note_on_c, 9, 42, 0
4, 280800, Note_on_c, 9, 46, 83
4, 281197, Note_on_c, 9, 46, 0
4, 281296, Note_on_c, 9, 42, 60
4, 281334, Note_on_c, 9, 35, 95
4, 281447, Note_on_c, 9, 42, 0
4, 281571, Note_on_c, 9, 35, 0
4, 281748, Note_on_c, 9, 42, 65
4, 281901, Note_on_c, 9, 42, 0
4, 282721, Note_on_c, 9, 42, 73
4, 282915, Note_on_c, 9, 42, 0
4, 283201, Note_on_c, 9, 35, 103
4, 283205, Note_on_c, 9, 42, 67
4, 283636, Note_on_c, 9, 35, 0
4, 283689, Note_on_c, 9, 42, 0
4, 283691, Note_on_c, 9, 46, 85
4, 283820, Note_on_c, 9, 46, 0
4, 284160, Note_on_c, 9, 42, 48
4, 284160, Note_on_c, 9, 42, 0
4, 284180, Note_on_c, 9, 42, 57
4, 284330, Note_on_c, 9, 42, 0
4, 284656, Note_on_c, 9, 42, 53
4, 284793, Note_on_c, 9, 42, 0
4, 285109, Note_on_c, 9, 35, 98
4, 285138, Note_on_c, 9, 46, 57
4, 285291, Note_on_c, 9, 46, 0
4, 285411, Note_on_c, 9, 35, 0
4, 285601, Note_on_c, 9, 42, 41
4, 285717, Note_on_c, 9, 42, 0
4, 286044, Note_on_c, 9, 42, 47
4, 286224, Note_on_c, 9, 42, 0
4, 286535, Note_on_c, 9, 46, 78
4, 286822, Note_on_c, 9, 46, 0
4, 287015, Note_on_c, 9, 42, 51
4, 287030, Note_on_c, 9, 35, 102
4, 287151, Note_on_c, 9, 42, 0
4, 287392, Note_on_c, 9, 35, 0
4, 287488, Note_on_c, 9, 42, 52
4, 287494, Note_on_c, 9, 35, 98
4, 287630, Note_on_c, 9, 42, 0
4, 287870, Note_on_c, 9, 35, 0
4, 287985, Note_on_c, 9, 46, 51
4, 288217, Note_on_c, 9, 46, 0
4, 288471, Note_on_c, 9, 42, 52
4, 288613, Note_on_c, 9, 42, 0
4, 288984, Note_on_c, 9, 35, 101
4, 289335, Note_on_c, 9, 35, 0
4, 289434, Note_on_c, 9, 42, 54
4, 289614, Note_on_c, 9, 42, 0
4, 290389, Note_on_c, 9, 42, 55
4, 290525, Note_on_c, 9, 42, 0
4, 290858, Note_on_c, 9, 46, 64
4, 290873, Note_on_c, 9, 36, 110
4, 291046, Note_on_c, 9, 46, 0
4, 291138, Note_on_c, 9, 46, 64
4, 291179, Note_on_c, 9, 36, 0
4, 291246, Note_on_c, 9, 46, 0
4, 291319, Note_on_c, 9, 42, 55
4, 291335, Note_on_c, 9, 36, 112
4, 291534, Note_on_c, 9, 42, 0
4, 291677, Note_on_c, 9, 36, 0
4, 291801, Note_on_c, 9, 42, 52
4, 291975, Note_on_c, 9, 42, 0
4, 292330, Note_on_c, 9, 36, 69
4, 292576, Note_on_c, 9, 36, 0
4, 293225, Note_on_c, 9, 42, 54
4, 293381, Note_on_c, 9, 42, 0
4, 293739, Note_on_c, 9, 42, 38
4, 293900, Note_on_c, 9, 42, 0
4, 294193, Note_on_c, 9, 42, 55
4, 294511, Note_on_c, 9, 42, 0
4, 294686, Note_on_c, 9, 46, 62
4, 294705, Note_on_c, 9, 35, 107
4, 294913, Note_on_c, 9, 46, 0
4, 295123, Note_on_c, 9, 35, 0
4, 295152, Note_on_c, 9, 42, 44
4, 295275, Note_on_c, 9, 42, 0
4, 295631, Note_on_c, 9, 42, 44
4, 295793, Note_on_c, 9, 42, 0
4, 296128, Note_on_c, 9, 46, 54
4, 296238, Note_on_c, 9, 46, 0
4, 296618, Note_on_c, 9, 36, 112
4, 296971, Note_on_c, 9, 36, 0
4, 297105, Note_on_c, 9, 42, 48
4, 297225, Note_on_c, 9, 42, 0
4, 297554, Note_on_c, 9, 42, 50
4, 297705, Note_on_c, 9, 42, 0
4, 298052, Note_on_c, 9, 36, 100
4, 298056, Note_on_c, 9, 46, 71
4, 298246, Note_on_c, 9, 46, 0
4, 298362, Note_on_c, 9, 36, 0
4, 299043, Note_on_c, 9, 42, 43
4, 299185, Note_on_c, 9, 42, 0
4, 299502, Note_on_c, 9, 42, 51
4, 299645, Note_on_c, 9, 42, 0
4, 300028, Note_on_c, 9, 36, 112
4, 300315, Note_on_c, 9, 36, 0
4, 300505, Note_on_c, 9, 42, 47
4, 300519, Note_on_c, 9, 36, 109
4, 300667, Note_on_c, 9, 42, 0
4, 300855, Note_on_c, 9, 36, 0
4, 300939, Note_on_c, 9, 42, 52
4, 301087, Note_on_c, 9, 42, 0
4, 301406, Note_on_c, 9, 46, 45
4, 301558, Note_on_c, 9, 46, 0
4, 301900, Note_on_c, 9, 46, 67
4, 302346, Note_on_c, 9, 46, 0
4, 302423, Note_on_c, 9, 36, 108
4, 302736, Note_on_c, 9, 36, 0
4, 302865, Note_on_c, 9, 42, 49
4, 303006, Note_on_c, 9, 42, 0
4, 303369, Note_on_c, 9, 42, 48
4, 303505, Note_on_c, 9, 42, 0
4, 303862, Note_on_c, 9, 42, 38
4, 304031, Note_on_c, 9, 42, 0
4, 304328, Note_on_c, 9, 36, 112
4, 304704, Note_on_c, 9, 36, 0
4, 304832, Note_on_c, 9, 42, 51
4, 305006, Note_on_c, 9, 42, 0
4, 305297, Note_on_c, 9, 42, 51
4, 305497, Note_on_c, 9, 42, 0
4, 306267, Note_on_c, 9, 42, 50
4, 306292, Note_on_c, 9, 36, 110
4, 306430, Note_on_c, 9, 42, 0
4, 306596, Note_on_c, 9, 36, 0
4, 306718, Note_on_c, 9, 42, 45
4, 306890, Note_on_c, 9, 42, 0
4, 307181, Note_on_c, 9, 42, 51
4, 307319, Note_on_c, 9, 42, 0
4, 307661, Note_on_c, 9, 42, 48
4, 307836, Note_on_c, 9, 42, 0
4, 308152, Note_on_c, 9, 46, 68
4, 308157, Note_on_c, 9, 35, 96
4, 308419, Note_on_c, 9, 46, 0
4, 308495, Note_on_c, 9, 35, 0
4, 308593, Note_on_c, 9, 42, 55
4, 308781, Note_on_c, 9, 42, 0
4, 309591, Note_on_c, 9, 42, 53
4, 309757, Note_on_c, 9, 42, 0
4, 310118, Note_on_c, 9, 35, 103
4, 310575, Note_on_c, 9, 42, 50
4, 310616, Note_on_c, 9, 35, 0
4, 310735, Note_on_c, 9, 42, 0
4, 311067, Note_on_c, 9, 42, 52
4, 311241, Note_on_c, 9, 42, 0
4, 311552, Note_on_c, 9, 42, 52
4, 311778, Note_on_c, 9, 42, 0
4, 312009, Note_on_c, 9, 46, 56
4, 312026, Note_on_c, 9, 35, 105
4, 312351, Note_on_c, 9, 35, 0
4, 312357, Note_on_c, 9, 46, 0
4, 312464, Note_on_c, 9, 42, 55
4, 312585, Note_on_c, 9, 42, 0
4, 313017, Note_on_c, 9, 42, 45
4, 313107, Note_on_c, 9, 42, 0
4, 313442, Note_on_c, 9, 42, 54
4, 313573, Note_on_c, 9, 42, 0
4, 313945, Note_on_c, 9, 46, 68
4, 313961, Note_on_c, 9, 36, 105
4, 313990, Note_on_c, 9, 34, 70
4, 314025, Note_on_c, 9, 34, 0
4, 314270, Note_on_c, 9, 36, 0
4, 314277, Note_on_c, 9, 46, 0
4, 314387, Note_on_c, 9, 42, 54
4, 314450, Note_on_c, 9, 36, 108
4, 314570, Note_on_c, 9, 42, 0
4, 314782, Note_on_c, 9, 36, 0
4, 314901, Note_on_c, 9, 42, 54
4, 315081, Note_on_c, 9, 42, 0
4, 315891, Note_on_c, 9, 42, 52
4, 315920, Note_on_c, 9, 35, 97
4, 316037, Note_on_c, 9, 42, 0
4, 316188, Note_on_c, 9, 35, 0
4, 316840, Note_on_c, 9, 42, 54
4, 316934, Note_on_c, 9, 42, 0
4, 317303, Note_on_c, 9, 46, 79
4, 317505, Note_on_c, 9, 46, 0
4, 317803, Note_on_c, 9, 35, 96
4, 318131, Note_on_c, 9, 35, 0
4, 318237, Note_on_c, 9, 42, 51
4, 318367, Note_on_c, 9, 42, 0
4, 318701, Note_on_c, 9, 42, 54
4, 318866, Note_on_c, 9, 42, 0
4, 319668, Note_on_c, 9, 36, 106
4, 319681, Note_on_c, 9, 46, 53
4, 319800, Note_on_c, 9, 46, 0
4, 319980, Note_on_c, 9, 36, 0
4, 320643, Note_on_c, 9, 42, 52
4, 320795, Note_on_c, 9, 42, 0
4, 321107, Note_on_c, 9, 42, 48
4, 321341, Note_on_c, 9, 42, 0
4, 321602, Note_on_c, 9, 36, 103
4, 321935, Note_on_c, 9, 36, 0
4, 322029, Note_on_c, 9, 46, 69
4, 322157, Note_on_c, 9, 46, 0
4, 323045, Note_on_c, 9, 35, 93
4, 323358, Note_on_c, 9, 35, 0
4, 323528, Note_on_c, 9, 35, 97
4, 323851, Note_on_c, 9, 35, 0
4, 323993, Note_on_c, 9, 42, 51
4, 324141, Note_on_c, 9, 42, 0
4, 324470, Note_on_c, 9, 42, 47
4, 324607, Note_on_c, 9, 42, 0
4, 324952, Note_on_c, 9, 42, 52
4, 325093, Note_on_c, 9, 42, 0
4, 325413, Note_on_c, 9, 35, 98
4, 325420, Note_on_c, 9, 46, 87
4, 325745, Note_on_c, 9, 46, 0
4, 325804, Note_on_c, 9, 35, 0
4, 325891, Note_on_c, 9, 42, 55
4, 326043, Note_on_c, 9, 42, 0
4, 326350, Note_on_c, 9, 42, 57
4, 326579, Note_on_c, 9, 42, 0
4, 327318, Note_on_c, 9, 35, 105
4, 327325, Note_on_c, 9, 46, 73
4, 327605, Note_on_c, 9, 46, 0
4, 327696, Note_on_c, 9, 35, 0
4, 328325, Note_on_c, 9, 42, 53
4, 328499, Note_on_c, 9, 42, 0
4, 328799, Note_on_c, 9, 42, 55
4, 329005, Note_on_c, 9, 42, 0
4, 329272, Note_on_c, 9, 35, 100
4, 329294, Note_on_c, 9, 46, 82
4, 329666, Note_on_c, 9, 35, 0
4, 329747, Note_on_c, 9, 46, 0
4, 331201, Note_on_c, 9, 46, 66
4, 331229, Note_on_c, 9, 35, 87
4, 331362, Note_on_c, 9, 46, 0
4, 331550, Note_on_c, 9, 35, 0
4, 332176, Note_on_c, 9, 42, 50
4, 332299, Note_on_c, 9, 42, 0
4, 332630, Note_on_c, 9, 42, 57
4, 332798, Note_on_c, 9, 42, 0
4, 333132, Note_on_c, 9, 35, 100
4, 333139, Note_on_c, 9, 46, 38
4, 333182, Note_on_c, 9, 46, 0
4, 333516, Note_on_c, 9, 35, 0
4, 333604, Note_on_c, 9, 42, 58
4, 333686, Note_on_c, 9, 42, 0
4, 334105, Note_on_c, 9, 42, 53
4, 334234, Note_on_c, 9, 42, 0
4, 335041, Note_on_c, 9, 46, 76
4, 335042, Note_on_c, 9, 36, 101
4, 335244, Note_on_c, 9, 46, 0
4, 335346, Note_on_c, 9, 36, 0
4, 336018, Note_on_c, 9, 42, 53
4, 336162, Note_on_c, 9, 42, 0
4, 336938, Note_on_c, 9, 46, 61
4, 336943, Note_on_c, 9, 35, 98
4, 337060, Note_on_c, 9, 46, 0
4, 337241, Note_on_c, 9, 35, 0
4, 337880, Note_on_c, 9, 42, 50
4, 338007, Note_on_c, 9, 42, 0
4, 338383, Note_on_c, 9, 42, 49
4, 338520, Note_on_c, 9, 42, 0
4, 339332, Note_on_c, 9, 42, 52
4, 339522, Note_on_c, 9, 42, 0
4, 339818, Note_on_c, 9, 42, 53
4, 339987, Note_on_c, 9, 42, 0
4, 340288, Note_on_c, 9, 46, 61
4, 340786, Note_on_c, 9, 35, 100
4, 340916, Note_on_c, 9, 46, 0
4, 341108, Note_on_c, 9, 35, 0
4, 341250, Note_on_c, 9, 42, 47
4, 341374, Note_on_c, 9, 42, 0
4, 341735, Note_on_c, 9, 42, 51
4, 341858, Note_on_c, 9, 42, 0
4, 342212, Note_on_c, 9, 46, 69
4, 342715, Note_on_c, 9, 36, 108
4, 343112, Note_on_c, 9, 46, 0
4, 343140, Note_on_c, 9, 36, 0
4, 343173, Note_on_c, 9, 42, 60
4, 343309, Note_on_c, 9, 42, 0
4, 344138, Note_on_c, 9, 42, 58
4, 344277, Note_on_c, 9, 42, 0
4, 344613, Note_on_c, 9, 36, 101
4, 344614, Note_on_c, 9, 46, 68
4, 344833, Note_on_c, 9, 46, 0
4, 345070, Note_on_c, 9, 46, 71
4, 345079, Note_on_c, 9, 36, 0
4, 345318, Note_on_c, 9, 46, 0
4, 345638, Note_on_c, 9, 51, 112
4, 345934, Note_on_c, 9, 51, 0
4, 346070, Note_on_c, 9, 51, 93
4, 346370, Note_on_c, 9, 51, 0
4, 346437, Note_on_c, 9, 51, 69
4, 346492, Note_on_c, 9, 51, 0
4, 346549, Note_on_c, 9, 51, 90
4, 346899, Note_on_c, 9, 51, 0
4, 347005, Note_on_c, 9, 51, 87
4, 347326, Note_on_c, 9, 51, 0
4, 347478, Note_on_c, 9, 51, 89
4, 347800, Note_on_c, 9, 51, 0
4, 347958, Note_on_c, 9, 51, 89
4, 348227, Note_on_c, 9, 51, 0
4, 348309, Note_on_c, 9, 51, 62
4, 348363, Note_on_c, 9, 51, 0
4, 348437, Note_on_c, 9, 51, 80
4, 348763, Note_on_c, 9, 51, 0
4, 348914, Note_on_c, 9, 51, 90
4, 349202, Note_on_c, 9, 51, 0
4, 349245, Note_on_c, 9, 53, 94
4, 349368, Note_on_c, 9, 53, 0
4, 349409, Note_on_c, 9, 51, 53
4, 349768, Note_on_c, 9, 51, 0
4, 349870, Note_on_c, 9, 51, 80
4, 350196, Note_on_c, 9, 51, 0
4, 350360, Note_on_c, 9, 51, 89
4, 350665, Note_on_c, 9, 51, 0
4, 350834, Note_on_c, 9, 51, 98
4, 351159, Note_on_c, 9, 51, 0
4, 351346, Note_on_c, 9, 51, 49
4, 351535, Note_on_c, 9, 51, 0
4, 351617, Note_on_c, 9, 51, 75
4, 351696, Note_on_c, 9, 51, 0
4, 351755, Note_on_c, 9, 51, 91
4, 352125, Note_on_c, 9, 51, 0
4, 352233, Note_on_c, 9, 51, 68
4, 352537, Note_on_c, 9, 51, 0
4, 352737, Note_on_c, 9, 51, 96
4, 352965, Note_on_c, 9, 51, 0
4, 353083, Note_on_c, 9, 51, 57
4, 353119, Note_on_c, 9, 51, 0
4, 353209, Note_on_c, 9, 51, 68
4, 353507, Note_on_c, 9, 51, 0
4, 353715, Note_on_c, 9, 51, 91
4, 353943, Note_on_c, 9, 51, 0
4, 354081, Note_on_c, 9, 51, 74
4, 354143, Note_on_c, 9, 51, 0
4, 354215, Note_on_c, 9, 51, 87
4, 354499, Note_on_c, 9, 51, 0
4, 354700, Note_on_c, 9, 51, 89
4, 354933, Note_on_c, 9, 51, 0
4, 355173, Note_on_c, 9, 51, 88
4, 355442, Note_on_c, 9, 51, 0
4, 355649, Note_on_c, 9, 51, 93
4, 355854, Note_on_c, 9, 51, 0
4, 355990, Note_on_c, 9, 51, 70
4, 356076, Note_on_c, 9, 51, 0
4, 356132, Note_on_c, 9, 53, 87
4, 356416, Note_on_c, 9, 53, 0
4, 356450, Note_on_c, 9, 51, 68
4, 356507, Note_on_c, 9, 51, 0
4, 356589, Note_on_c, 9, 51, 74
4, 356961, Note_on_c, 9, 51, 0
4, 357071, Note_on_c, 9, 51, 72
4, 357410, Note_on_c, 9, 51, 0
4, 357545, Note_on_c, 9, 51, 77
4, 357950, Note_on_c, 9, 51, 0
4, 358006, Note_on_c, 9, 59, 92
4, 358306, Note_on_c, 9, 59, 0
4, 358331, Note_on_c, 9, 51, 66
4, 358432, Note_on_c, 9, 51, 0
4, 358497, Note_on_c, 9, 51, 80
4, 358750, Note_on_c, 9, 51, 0
4, 358809, Note_on_c, 9, 51, 94
4, 359210, Note_on_c, 9, 51, 0
4, 359324, Note_on_c, 9, 51, 69
4, 359391, Note_on_c, 9, 51, 0
4, 359464, Note_on_c, 9, 51, 86
4, 359796, Note_on_c, 9, 51, 0
4, 359943, Note_on_c, 9, 51, 97
4, 360287, Note_on_c, 9, 51, 0
4, 360413, Note_on_c, 9, 51, 93
4, 360701, Note_on_c, 9, 51, 0
4, 360776, Note_on_c, 9, 51, 65
4, 360828, Note_on_c, 9, 51, 0
4, 360895, Note_on_c, 9, 51, 85
4, 361284, Note_on_c, 9, 51, 0
4, 361371, Note_on_c, 9, 51, 89
4, 361689, Note_on_c, 9, 51, 0
4, 361870, Note_on_c, 9, 51, 92
4, 362197, Note_on_c, 9, 51, 0
4, 362272, Note_on_c, 9, 51, 65
4, 362311, Note_on_c, 9, 51, 0
4, 362386, Note_on_c, 9, 51, 82
4, 362742, Note_on_c, 9, 51, 0
4, 362844, Note_on_c, 9, 51, 92
4, 363175, Note_on_c, 9, 51, 0
4, 363328, Note_on_c, 9, 51, 95
4, 363589, Note_on_c, 9, 51, 0
4, 363657, Note_on_c, 9, 51, 74
4, 363736, Note_on_c, 9, 51, 0
4, 363777, Note_on_c, 9, 51, 73
4, 364126, Note_on_c, 9, 51, 0
4, 364270, Note_on_c, 9, 51, 95
4, 364536, Note_on_c, 9, 51, 0
4, 364616, Note_on_c, 9, 51, 61
4, 364694, Note_on_c, 9, 51, 0
4, 364753, Note_on_c, 9, 51, 87
4, 365095, Note_on_c, 9, 51, 0
4, 365253, Note_on_c, 9, 51, 95
4, 365607, Note_on_c, 9, 51, 0
4, 365720, Note_on_c, 9, 51, 76
4, 366008, Note_on_c, 9, 51, 0
4, 366076, Note_on_c, 9, 51, 71
4, 366154, Note_on_c, 9, 51, 0
4, 366214, Note_on_c, 9, 51, 92
4, 366602, Note_on_c, 9, 51, 0
4, 366710, Note_on_c, 9, 51, 64
4, 366939, Note_on_c, 9, 51, 0
4, 367182, Note_on_c, 9, 51, 105
4, 367490, Note_on_c, 9, 51, 0
4, 367663, Note_on_c, 9, 51, 55
4, 367722, Note_on_c, 9, 51, 0
4, 367967, Note_on_c, 9, 51, 64
4, 368044, Note_on_c, 9, 51, 0
4, 368109, Note_on_c, 9, 51, 93
4, 368455, Note_on_c, 9, 51, 0
4, 368603, Note_on_c, 9, 51, 77
4, 368857, Note_on_c, 9, 51, 0
4, 369086, Note_on_c, 9, 51, 97
4, 369402, Note_on_c, 9, 51, 0
4, 369584, Note_on_c, 9, 51, 85
4, 369850, Note_on_c, 9, 51, 0
4, 370059, Note_on_c, 9, 51, 103
4, 370443, Note_on_c, 9, 51, 0
4, 370532, Note_on_c, 9, 51, 74
4, 370618, Note_on_c, 9, 51, 0
4, 370885, Note_on_c, 9, 51, 97
4, 371263, Note_on_c, 9, 51, 0
4, 371364, Note_on_c, 9, 51, 52
4, 371406, Note_on_c, 9, 51, 0
4, 371518, Note_on_c, 9, 51, 99
4, 371860, Note_on_c, 9, 51, 0
4, 371972, Note_on_c, 9, 51, 66
4, 372184, Note_on_c, 9, 51, 0
4, 372274, Note_on_c, 9, 51, 100
4, 372617, Note_on_c, 9, 51, 0
4, 372775, Note_on_c, 9, 51, 46
4, 372818, Note_on_c, 9, 51, 0
4, 372899, Note_on_c, 9, 51, 70
4, 372914, Note_on_c, 9, 53, 81
4, 373255, Note_on_c, 9, 51, 0
4, 373377, Note_on_c, 9, 51, 62
4, 373379, Note_on_c, 9, 53, 0
4, 373594, Note_on_c, 9, 51, 0
4, 373720, Note_on_c, 9, 51, 87
4, 373729, Note_on_c, 9, 53, 80
4, 374099, Note_on_c, 9, 51, 0
4, 374203, Note_on_c, 9, 53, 0
4, 374210, Note_on_c, 9, 51, 52
4, 374287, Note_on_c, 9, 51, 0
4, 374374, Note_on_c, 9, 51, 79
4, 374383, Note_on_c, 9, 53, 84
4, 374733, Note_on_c, 9, 51, 0
4, 374837, Note_on_c, 9, 53, 0
4, 374864, Note_on_c, 9, 51, 51
4, 375051, Note_on_c, 9, 51, 0
4, 375151, Note_on_c, 9, 51, 87
4, 375161, Note_on_c, 9, 53, 87
4, 375500, Note_on_c, 9, 51, 0
4, 375639, Note_on_c, 9, 53, 0
4, 375650, Note_on_c, 9, 51, 58
4, 375706, Note_on_c, 9, 51, 0
4, 375776, Note_on_c, 9, 51, 80
4, 375792, Note_on_c, 9, 53, 90
4, 376140, Note_on_c, 9, 51, 0
4, 376179, Note_on_c, 9, 53, 0
4, 376260, Note_on_c, 9, 51, 74
4, 376263, Note_on_c, 9, 53, 74
4, 376520, Note_on_c, 9, 53, 0
4, 376611, Note_on_c, 9, 51, 0
4, 376754, Note_on_c, 9, 51, 55
4, 377078, Note_on_c, 9, 51, 0
4, 377235, Note_on_c, 9, 51, 63
4, 377539, Note_on_c, 9, 51, 0
4, 377730, Note_on_c, 9, 51, 115
4, 378155, Note_on_c, 9, 51, 0
4, 378238, Note_on_c, 9, 51, 60
4, 378357, Note_on_c, 9, 51, 0
4, 378538, Note_on_c, 9, 51, 55
4, 378649, Note_on_c, 9, 51, 0
4, 378704, Note_on_c, 9, 51, 101
4, 379104, Note_on_c, 9, 51, 0
4, 379214, Note_on_c, 9, 51, 63
4, 379418, Note_on_c, 9, 51, 0
4, 379519, Note_on_c, 9, 51, 101
4, 379896, Note_on_c, 9, 51, 0
4, 379988, Note_on_c, 9, 51, 62
4, 380070, Note_on_c, 9, 51, 0
4, 380150, Note_on_c, 9, 51, 99
4, 380569, Note_on_c, 9, 51, 0
4, 380650, Note_on_c, 9, 51, 57
4, 380726, Note_on_c, 9, 51, 0
4, 380920, Note_on_c, 9, 51, 101
4, 381345, Note_on_c, 9, 51, 0
4, 381413, Note_on_c, 9, 51, 66
4, 381500, Note_on_c, 9, 51, 0
4, 381568, Note_on_c, 9, 51, 98
4, 381950, Note_on_c, 9, 51, 0
4, 382051, Note_on_c, 9, 51, 89
4, 382383, Note_on_c, 9, 51, 0
4, 382528, Note_on_c, 9, 51, 101
4, 382830, Note_on_c, 9, 51, 0
4, 382891, Note_on_c, 9, 51, 57
4, 382945, Note_on_c, 9, 51, 0
4, 383016, Note_on_c, 9, 51, 89
4, 383379, Note_on_c, 9, 51, 0
4, 383497, Note_on_c, 9, 51, 101
4, 383791, Note_on_c, 9, 51, 0
4, 383853, Note_on_c, 9, 51, 65
4, 383910, Note_on_c, 9, 51, 0
4, 383973, Note_on_c, 9, 51, 92
4, 384323, Note_on_c, 9, 51, 0
4, 384445, Note_on_c, 9, 51, 99
4, 384714, Note_on_c, 9, 51, 0
4, 384924, Note_on_c, 9, 51, 100
4, 385350, Note_on_c, 9, 51, 0
4, 385408, Note_on_c, 9, 51, 60
4, 385613, Note_on_c, 9, 51, 0
4, 385717, Note_on_c, 9, 51, 82
4, 385791, Note_on_c, 9, 51, 0
4, 385881, Note_on_c, 9, 51, 88
4, 386118, Note_on_c, 9, 51, 0
4, 386225, Note_on_c, 9, 51, 72
4, 386275, Note_on_c, 9, 51, 0
4, 386349, Note_on_c, 9, 51, 83
4, 386709, Note_on_c, 9, 51, 0
4, 386843, Note_on_c, 9, 51, 96
4, 387132, Note_on_c, 9, 51, 0
4, 387192, Note_on_c, 9, 51, 58
4, 387243, Note_on_c, 9, 51, 0
4, 387323, Note_on_c, 9, 51, 81
4, 387567, Note_on_c, 9, 51, 0
4, 387641, Note_on_c, 9, 51, 92
4, 388052, Note_on_c, 9, 51, 0
4, 388135, Note_on_c, 9, 51, 58
4, 388196, Note_on_c, 9, 51, 0
4, 388280, Note_on_c, 9, 51, 95
4, 388552, Note_on_c, 9, 51, 0
4, 388613, Note_on_c, 9, 51, 95
4, 388971, Note_on_c, 9, 51, 0
4, 389103, Note_on_c, 9, 51, 103
4, 389408, Note_on_c, 9, 51, 0
4, 389572, Note_on_c, 9, 51, 105
4, 389898, Note_on_c, 9, 51, 0
4, 390065, Note_on_c, 9, 51, 67
4, 390149, Note_on_c, 9, 51, 0
4, 390201, Note_on_c, 9, 51, 100
4, 390438, Note_on_c, 9, 51, 0
4, 390517, Note_on_c, 9, 51, 78
4, 390594, Note_on_c, 9, 51, 0
4, 390666, Note_on_c, 9, 51, 87
4, 390830, Note_on_c, 9, 51, 0
4, 390979, Note_on_c, 9, 51, 97
4, 390990, Note_on_c, 9, 53, 92
4, 391257, Note_on_c, 9, 51, 0
4, 391259, Note_on_c, 9, 53, 0
4, 391456, Note_on_c, 9, 51, 104
4, 391459, Note_on_c, 9, 53, 98
4, 391830, Note_on_c, 9, 51, 0
4, 391913, Note_on_c, 9, 53, 0
4, 391963, Note_on_c, 9, 51, 80
4, 392044, Note_on_c, 9, 51, 0
4, 392112, Note_on_c, 9, 51, 87
4, 392411, Note_on_c, 9, 51, 0
4, 392572, Note_on_c, 9, 51, 87
4, 392922, Note_on_c, 9, 51, 0
4, 393091, Note_on_c, 9, 51, 77
4, 393348, Note_on_c, 9, 51, 0
4, 393422, Note_on_c, 9, 51, 64
4, 393503, Note_on_c, 9, 51, 0
4, 393561, Note_on_c, 9, 51, 75
4, 393908, Note_on_c, 9, 51, 0
4, 394068, Note_on_c, 9, 51, 89
4, 394329, Note_on_c, 9, 51, 0
4, 394402, Note_on_c, 9, 51, 69
4, 394486, Note_on_c, 9, 51, 0
4, 394540, Note_on_c, 9, 51, 78
4, 394874, Note_on_c, 9, 51, 0
4, 395033, Note_on_c, 9, 51, 93
4, 395295, Note_on_c, 9, 51, 0
4, 395358, Note_on_c, 9, 51, 64
4, 395429, Note_on_c, 9, 51, 0
4, 395494, Note_on_c, 9, 51, 88
4, 395848, Note_on_c, 9, 51, 0
4, 395978, Note_on_c, 9, 51, 94
4, 396248, Note_on_c, 9, 51, 0
4, 396316, Note_on_c, 9, 51, 69
4, 396387, Note_on_c, 9, 51, 0
4, 396451, Note_on_c, 9, 51, 85
4, 396794, Note_on_c, 9, 51, 0
4, 396927, Note_on_c, 9, 51, 95
4, 397200, Note_on_c, 9, 51, 0
4, 397263, Note_on_c, 9, 51, 62
4, 397322, Note_on_c, 9, 51, 0
4, 397393, Note_on_c, 9, 51, 85
4, 397723, Note_on_c, 9, 51, 0
4, 397882, Note_on_c, 9, 51, 98
4, 398228, Note_on_c, 9, 51, 0
4, 398352, Note_on_c, 9, 51, 88
4, 398640, Note_on_c, 9, 51, 0
4, 398697, Note_on_c, 9, 51, 63
4, 398756, Note_on_c, 9, 51, 0
4, 398821, Note_on_c, 9, 51, 94
4, 399147, Note_on_c, 9, 51, 0
4, 399322, Note_on_c, 9, 51, 96
4, 399651, Note_on_c, 9, 51, 0
4, 399800, Note_on_c, 9, 51, 95
4, 400090, Note_on_c, 9, 51, 0
4, 400166, Note_on_c, 9, 51, 51
4, 400215, Note_on_c, 9, 51, 0
4, 400275, Note_on_c, 9, 51, 87
4, 400623, Note_on_c, 9, 51, 0
4, 400788, Note_on_c, 9, 51, 93
4, 401096, Note_on_c, 9, 51, 0
4, 401250, Note_on_c, 9, 51, 97
4, 401529, Note_on_c, 9, 51, 0
4, 401605, Note_on_c, 9, 51, 58
4, 401670, Note_on_c, 9, 51, 0
4, 401728, Note_on_c, 9, 51, 94
4, 402076, Note_on_c, 9, 51, 0
4, 402225, Note_on_c, 9, 51, 96
4, 402491, Note_on_c, 9, 51, 0
4, 402562, Note_on_c, 9, 51, 60
4, 402609, Note_on_c, 9, 51, 0
4, 402680, Note_on_c, 9, 51, 86
4, 403031, Note_on_c, 9, 51, 0
4, 403154, Note_on_c, 9, 51, 96
4, 403448, Note_on_c, 9, 51, 0
4, 403641, Note_on_c, 9, 51, 101
4, 403897, Note_on_c, 9, 51, 0
4, 403982, Note_on_c, 9, 51, 52
4, 404039, Note_on_c, 9, 51, 0
4, 404099, Note_on_c, 9, 51, 85
4, 404420, Note_on_c, 9, 51, 0
4, 404589, Note_on_c, 9, 51, 95
4, 404947, Note_on_c, 9, 51, 0
4, 405068, Note_on_c, 9, 51, 92
4, 405321, Note_on_c, 9, 51, 0
4, 405559, Note_on_c, 9, 51, 95
4, 405815, Note_on_c, 9, 51, 0
4, 405895, Note_on_c, 9, 51, 60
4, 405936, Note_on_c, 9, 51, 0
4, 406005, Note_on_c, 9, 51, 78
4, 406284, Note_on_c, 9, 51, 0
4, 406494, Note_on_c, 9, 51, 95
4, 406687, Note_on_c, 9, 51, 0
4, 406809, Note_on_c, 9, 51, 60
4, 406886, Note_on_c, 9, 51, 0
4, 406949, Note_on_c, 9, 51, 88
4, 407045, Note_on_c, 9, 51, 99
4, 407072, Note_on_c, 9, 51, 0
4, 407338, Note_on_c, 9, 51, 0
4, 407505, Note_on_c, 9, 51, 86
4, 407792, Note_on_c, 9, 51, 0
4, 407857, Note_on_c, 9, 51, 68
4, 407912, Note_on_c, 9, 51, 0
4, 407978, Note_on_c, 9, 51, 86
4, 408319, Note_on_c, 9, 51, 0
4, 408471, Note_on_c, 9, 51, 91
4, 408796, Note_on_c, 9, 51, 0
4, 408928, Note_on_c, 9, 51, 87
4, 409264, Note_on_c, 9, 51, 0
4, 409403, Note_on_c, 9, 51, 87
4, 409690, Note_on_c, 9, 51, 0
4, 409763, Note_on_c, 9, 51, 72
4, 409836, Note_on_c, 9, 51, 0
4, 409881, Note_on_c, 9, 51, 76
4, 410220, Note_on_c, 9, 51, 0
4, 410370, Note_on_c, 9, 51, 95
4, 410597, Note_on_c, 9, 51, 0
4, 410736, Note_on_c, 9, 51, 67
4, 410771, Note_on_c, 9, 51, 0
4, 410842, Note_on_c, 9, 51, 73
4, 411143, Note_on_c, 9, 51, 0
4, 411342, Note_on_c, 9, 51, 96
4, 411631, Note_on_c, 9, 51, 0
4, 411834, Note_on_c, 9, 51, 89
4, 412121, Note_on_c, 9, 51, 0
4, 412174, Note_on_c, 9, 53, 69
4, 412292, Note_on_c, 9, 53, 0
4, 412317, Note_on_c, 9, 51, 67
4, 412677, Note_on_c, 9, 51, 0
4, 412774, Note_on_c, 9, 51, 79
4, 413129, Note_on_c, 9, 51, 0
4, 413272, Note_on_c, 9, 51, 89
4, 413603, Note_on_c, 9, 51, 0
4, 413792, Note_on_c, 9, 51, 44
4, 414081, Note_on_c, 9, 51, 0
4, 414227, Note_on_c, 9, 51, 95
4, 414462, Note_on_c, 9, 51, 0
4, 414542, Note_on_c, 9, 51, 65
4, 414610, Note_on_c, 9, 51, 0
4, 414667, Note_on_c, 9, 51, 73
4, 415024, Note_on_c, 9, 51, 0
4, 415181, Note_on_c, 9, 51, 87
4, 415425, Note_on_c, 9, 51, 0
4, 415500, Note_on_c, 9, 51, 64
4, 415586, Note_on_c, 9, 51, 0
4, 415630, Note_on_c, 9, 51, 74
4, 415958, Note_on_c, 9, 51, 0
4, 416140, Note_on_c, 9, 51, 90
4, 416426, Note_on_c, 9, 51, 0
4, 416622, Note_on_c, 9, 51, 91
4, 416906, Note_on_c, 9, 51, 0
4, 417114, Note_on_c, 9, 51, 92
4, 417362, Note_on_c, 9, 51, 0
4, 417455, Note_on_c, 9, 51, 63
4, 417540, Note_on_c, 9, 51, 0
4, 417582, Note_on_c, 9, 51, 73
4, 417917, Note_on_c, 9, 51, 0
4, 418068, Note_on_c, 9, 51, 93
4, 418331, Note_on_c, 9, 51, 0
4, 418436, Note_on_c, 9, 51, 56
4, 418474, Note_on_c, 9, 51, 0
4, 418548, Note_on_c, 9, 51, 72
4, 418769, Note_on_c, 9, 51, 0
4, 419026, Note_on_c, 9, 51, 104
4, 419307, Note_on_c, 9, 51, 0
4, 419525, Note_on_c, 9, 51, 55
4, 419609, Note_on_c, 9, 51, 0
4, 419858, Note_on_c, 9, 51, 86
4, 419897, Note_on_c, 9, 51, 0
4, 419978, Note_on_c, 9, 51, 93
4, 420297, Note_on_c, 9, 51, 0
4, 420435, Note_on_c, 9, 51, 83
4, 420532, Note_on_c, 9, 51, 0
4, 420796, Note_on_c, 9, 51, 98
4, 420862, Note_on_c, 9, 51, 0
4, 420924, Note_on_c, 9, 51, 93
4, 421215, Note_on_c, 9, 51, 0
4, 421411, Note_on_c, 9, 51, 100
4, 421665, Note_on_c, 9, 51, 0
4, 421887, Note_on_c, 9, 51, 101
4, 422149, Note_on_c, 9, 51, 0
4, 422361, Note_on_c, 9, 51, 95
4, 422604, Note_on_c, 9, 51, 0
4, 422863, Note_on_c, 9, 51, 87
4, 423174, Note_on_c, 9, 51, 0
4, 423355, Note_on_c, 9, 51, 80
4, 423591, Note_on_c, 9, 51, 0
4, 423813, Note_on_c, 9, 51, 89
4, 423823, Note_on_c, 9, 53, 76
4, 424177, Note_on_c, 9, 51, 0
4, 424233, Note_on_c, 9, 53, 0
4, 424304, Note_on_c, 9, 51, 73
4, 424588, Note_on_c, 9, 51, 0
4, 424774, Note_on_c, 9, 51, 90
4, 424783, Note_on_c, 9, 53, 83
4, 425083, Note_on_c, 9, 51, 0
4, 425097, Note_on_c, 9, 53, 0
4, 425253, Note_on_c, 9, 53, 82
4, 425255, Note_on_c, 9, 51, 86
4, 425612, Note_on_c, 9, 51, 0
4, 425680, Note_on_c, 9, 53, 0
4, 425748, Note_on_c, 9, 51, 80
4, 426125, Note_on_c, 9, 51, 0
4, 426224, Note_on_c, 9, 51, 70
4, 426496, Note_on_c, 9, 51, 0
4, 426691, Note_on_c, 9, 51, 93
4, 426959, Note_on_c, 9, 51, 0
4, 427060, Note_on_c, 9, 51, 55
4, 427131, Note_on_c, 9, 51, 0
4, 427189, Note_on_c, 9, 51, 87
4, 427510, Note_on_c, 9, 51, 0
4, 427664, Note_on_c, 9, 51, 87
4, 427927, Note_on_c, 9, 51, 0
4, 428011, Note_on_c, 9, 51, 62
4, 428095, Note_on_c, 9, 51, 0
4, 428148, Note_on_c, 9, 51, 80
4, 428447, Note_on_c, 9, 51, 0
4, 428637, Note_on_c, 9, 51, 91
4, 428882, Note_on_c, 9, 51, 0
4, 428972, Note_on_c, 9, 51, 62
4, 429060, Note_on_c, 9, 51, 0
4, 429120, Note_on_c, 9, 51, 80
4, 429353, Note_on_c, 9, 51, 0
4, 429454, Note_on_c, 9, 51, 55
4, 429503, Note_on_c, 9, 51, 0
4, 429590, Note_on_c, 9, 51, 87
4, 429924, Note_on_c, 9, 51, 0
4, 430084, Note_on_c, 9, 51, 97
4, 430393, Note_on_c, 9, 51, 0
4, 430554, Note_on_c, 9, 51, 101
4, 430890, Note_on_c, 9, 51, 0
4, 431034, Note_on_c, 9, 51, 75
4, 431116, Note_on_c, 9, 51, 0
4, 431352, Note_on_c, 9, 51, 62
4, 431411, Note_on_c, 9, 51, 0
4, 431489, Note_on_c, 9, 51, 92
4, 431782, Note_on_c, 9, 51, 0
4, 431980, Note_on_c, 9, 51, 97
4, 432281, Note_on_c, 9, 51, 0
4, 432465, Note_on_c, 9, 51, 95
4, 432722, Note_on_c, 9, 51, 0
4, 432811, Note_on_c, 9, 51, 67
4, 432895, Note_on_c, 9, 51, 0
4, 432952, Note_on_c, 9, 51, 87
4, 433242, Note_on_c, 9, 51, 0
4, 433429, Note_on_c, 9, 51, 95
4, 433661, Note_on_c, 9, 51, 0
4, 433780, Note_on_c, 9, 51, 54
4, 433833, Note_on_c, 9, 51, 0
4, 433909, Note_on_c, 9, 51, 77
4, 434181, Note_on_c, 9, 51, 0
4, 434412, Note_on_c, 9, 51, 106
4, 434802, Note_on_c, 9, 51, 0
4, 434896, Note_on_c, 9, 51, 64
4, 434982, Note_on_c, 9, 51, 0
4, 435229, Note_on_c, 9, 51, 100
4, 435411, Note_on_c, 9, 51, 0
4, 435696, Note_on_c, 9, 51, 58
4, 435730, Note_on_c, 9, 51, 0
4, 435850, Note_on_c, 9, 51, 98
4, 436143, Note_on_c, 9, 51, 0
4, 436358, Note_on_c, 9, 51, 52
4, 436407, Note_on_c, 9, 51, 0
4, 436630, Note_on_c, 9, 51, 96
4, 436920, Note_on_c, 9, 51, 0
4, 437126, Note_on_c, 9, 51, 73
4, 437211, Note_on_c, 9, 51, 0
4, 437278, Note_on_c, 9, 51, 92
4, 437549, Note_on_c, 9, 51, 0
4, 437728, Note_on_c, 9, 51, 92
4, 437742, Note_on_c, 9, 53, 87
4, 438132, Note_on_c, 9, 51, 0
4, 438213, Note_on_c, 9, 53, 0
4, 438244, Note_on_c, 9, 51, 64
4, 438565, Note_on_c, 9, 51, 0
4, 438708, Note_on_c, 9, 51, 77
4, 438921, Note_on_c, 9, 51, 0
4, 439188, Note_on_c, 9, 51, 89
4, 439197, Note_on_c, 9, 53, 84
4, 439545, Note_on_c, 9, 51, 0
4, 439641, Note_on_c, 9, 53, 0
4, 439680, Note_on_c, 9, 51, 56
4, 439967, Note_on_c, 9, 51, 0
4, 440119, Note_on_c, 9, 51, 85
4, 440326, Note_on_c, 9, 51, 0
4, 440599, Note_on_c, 9, 51, 98
4, 440606, Note_on_c, 9, 53, 88
4, 440943, Note_on_c, 9, 51, 0
4, 441029, Note_on_c, 9, 53, 0
4, 441079, Note_on_c, 9, 51, 61
4, 441385, Note_on_c, 9, 51, 0
4, 441543, Note_on_c, 9, 51, 87
4, 441856, Note_on_c, 9, 51, 0
4, 442051, Note_on_c, 9, 51, 95
4, 442061, Note_on_c, 9, 53, 85
4, 442438, Note_on_c, 9, 51, 0
4, 442488, Note_on_c, 9, 53, 0
4, 442545, Note_on_c, 9, 51, 53
4, 442904, Note_on_c, 9, 51, 0
4, 443011, Note_on_c, 9, 51, 72
4, 443261, Note_on_c, 9, 51, 0
4, 443350, Note_on_c, 9, 51, 71
4, 443429, Note_on_c, 9, 51, 0
4, 443492, Note_on_c, 9, 51, 92
4, 443851, Note_on_c, 9, 51, 0
4, 443985, Note_on_c, 9, 51, 92
4, 444259, Note_on_c, 9, 51, 0
4, 444457, Note_on_c, 9, 51, 94
4, 444466, Note_on_c, 9, 53, 85
4, 444752, Note_on_c, 9, 51, 0
4, 444766, Note_on_c, 9, 53, 0
4, 444919, Note_on_c, 9, 51, 90
4, 444922, Note_on_c, 9, 53, 85
4, 445264, Note_on_c, 9, 51, 0
4, 445285, Note_on_c, 9, 53, 0
4, 445417, Note_on_c, 9, 51, 71
4, 445711, Note_on_c, 9, 51, 0
4, 445897, Note_on_c, 9, 51, 87
4, 446037, Note_on_c, 9, 51, 0
4, 446241, Note_on_c, 9, 51, 77
4, 446311, Note_on_c, 9, 51, 0
4, 446380, Note_on_c, 9, 51, 98
4, 446728, Note_on_c, 9, 51, 0
4, 446870, Note_on_c, 9, 51, 65
4, 446909, Note_on_c, 9, 51, 0
4, 447188, Note_on_c, 9, 51, 105
4, 447543, Note_on_c, 9, 51, 0
4, 447656, Note_on_c, 9, 51, 63
4, 447738, Note_on_c, 9, 51, 0
4, 447803, Note_on_c, 9, 51, 93
4, 448091, Note_on_c, 9, 51, 0
4, 448282, Note_on_c, 9, 51, 97
4, 448557, Note_on_c, 9, 51, 0
4, 448777, Note_on_c, 9, 51, 92
4, 448952, Note_on_c, 9, 51, 0
4, 449267, Note_on_c, 9, 51, 92
4, 449277, Note_on_c, 9, 53, 75
4, 449632, Note_on_c, 9, 51, 0
4, 449702, Note_on_c, 9, 53, 0
4, 449768, Note_on_c, 9, 51, 66
4, 449884, Note_on_c, 9, 51, 0
4, 450076, Note_on_c, 9, 51, 95
4, 450336, Note_on_c, 9, 51, 0
4, 450548, Note_on_c, 9, 51, 68
4, 450635, Note_on_c, 9, 51, 0
4, 450731, Note_on_c, 9, 51, 91
4, 450740, Note_on_c, 9, 53, 88
4, 451090, Note_on_c, 9, 51, 0
4, 451146, Note_on_c, 9, 53, 0
4, 451208, Note_on_c, 9, 51, 64
4, 451300, Note_on_c, 9, 51, 0
4, 451528, Note_on_c, 9, 51, 91
4, 451538, Note_on_c, 9, 53, 84
4, 451785, Note_on_c, 9, 51, 0
4, 451788, Note_on_c, 9, 53, 0
4, 452039, Note_on_c, 9, 51, 49
4, 452082, Note_on_c, 9, 51, 0
4, 452188, Note_on_c, 9, 51, 87
4, 452194, Note_on_c, 9, 53, 86
4, 452500, Note_on_c, 9, 51, 0
4, 452580, Note_on_c, 9, 53, 0
4, 452667, Note_on_c, 9, 51, 62
4, 452766, Note_on_c, 9, 51, 0
4, 452932, Note_on_c, 9, 51, 101
4, 453049, Note_on_c, 9, 51, 0
4, 453111, Note_on_c, 9, 51, 92
4, 453454, Note_on_c, 9, 51, 0
4, 453605, Note_on_c, 9, 51, 64
4, 453863, Note_on_c, 9, 51, 0
4, 454078, Note_on_c, 9, 51, 78
4, 454246, Note_on_c, 9, 51, 0
4, 454539, Note_on_c, 9, 51, 73
4, 454690, Note_on_c, 9, 51, 0
4, 454885, Note_on_c, 9, 51, 65
4, 454951, Note_on_c, 9, 51, 0
4, 455022, Note_on_c, 9, 51, 85
4, 455311, Note_on_c, 9, 51, 0
4, 455510, Note_on_c, 9, 51, 85
4, 455718, Note_on_c, 9, 51, 0
4, 455858, Note_on_c, 9, 51, 57
4, 455914, Note_on_c, 9, 51, 0
4, 455982, Note_on_c, 9, 51, 87
4, 456318, Note_on_c, 9, 51, 0
4, 456455, Note_on_c, 9, 51, 91
4, 456744, Note_on_c, 9, 51, 0
4, 456954, Note_on_c, 9, 51, 92
4, 457235, Note_on_c, 9, 51, 0
4, 457420, Note_on_c, 9, 51, 89
4, 457656, Note_on_c, 9, 51, 0
4, 457762, Note_on_c, 9, 51, 62
4, 457848, Note_on_c, 9, 51, 0
4, 457911, Note_on_c, 9, 51, 79
4, 458176, Note_on_c, 9, 51, 0
4, 458385, Note_on_c, 9, 51, 93
4, 458621, Note_on_c, 9, 51, 0
4, 458869, Note_on_c, 9, 51, 92
4, 459080, Note_on_c, 9, 51, 0
4, 459329, Note_on_c, 9, 51, 90
4, 459529, Note_on_c, 9, 51, 0
4, 459667, Note_on_c, 9, 51, 64
4, 459728, Note_on_c, 9, 51, 0
4, 459801, Note_on_c, 9, 51, 89
4, 460075, Note_on_c, 9, 51, 0
4, 460274, Note_on_c, 9, 51, 95
4, 460493, Note_on_c, 9, 51, 0
4, 460608, Note_on_c, 9, 51, 55
4, 460687, Note_on_c, 9, 51, 0
4, 460746, Note_on_c, 9, 51, 80
4, 460995, Note_on_c, 9, 51, 0
4, 461269, Note_on_c, 9, 51, 95
4, 461461, Note_on_c, 9, 51, 0
4, 461780, Note_on_c, 9, 51, 96
4, 462015, Note_on_c, 9, 51, 0
4, 462208, Note_on_c, 9, 51, 75
4, 462367, Note_on_c, 9, 51, 0
4, 462597, Note_on_c, 9, 51, 72
4, 462631, Note_on_c, 9, 51, 0
4, 462729, Note_on_c, 9, 51, 85
4, 462938, Note_on_c, 9, 51, 0
4, 463192, Note_on_c, 9, 51, 101
4, 463405, Note_on_c, 9, 51, 0
4, 463546, Note_on_c, 9, 51, 67
4, 463583, Note_on_c, 9, 51, 0
4, 463680, Note_on_c, 9, 51, 80
4, 463876, Note_on_c, 9, 51, 0
4, 464156, Note_on_c, 9, 51, 99
4, 464375, Note_on_c, 9, 51, 0
4, 464649, Note_on_c, 9, 51, 99
4, 464850, Note_on_c, 9, 51, 0
4, 464850, End_track
0, 0, End_of_file
