0, 0, Header, 1, 4, 960
1, 0, Start_track
1, 0, Title_t, "Sammy Walked In"
1, 0, Text_t, "Michel Camilo\012"
1, 0, Text_t, "sequenced by dougmck@tpg.com.au\012"
1, 0, Time_signature, 4, 2, 24, 8
1, 0, Key_signature, 0, "major"
1, 0, Tempo, 461538
1, 2121, Marker_t, "Piano only to start"
1, 3840, Marker_t, "'Bass' notes in LH follow a descending pattern - some 3rds & 7ths used"
1, 14656, Marker_t, "E Half/Whole dim scale on E7b9"
1, 17443, Marker_t, "Runs into a chromatic scale to finish on E"
1, 30720, Marker_t, "Another dim scale on E7b9"
1, 46080, Marker_t, "Triplet feel in RH phrase"
1, 61787, Marker_t, "G/Ab, Bb/B, Db/D, E/F, G/Ab (2nd inversion triads in RH, over LH bass notes)"
1, 64491, Marker_t, "LH begins Camillo type stride."
1, 67936, Marker_t, "Bass notes ahead of beat - chords just after the beat"
1, 103504, Marker_t, "Bass and Drums in"
1, 172744, Marker_t, "On this section LH plays chords strictly on  'ands'"
1, 231136, Marker_t, "Improvised solo section"
1, 234344, Marker_t, "Bass plays 'salsa' type bass - piano same sort of rhythm with LH"
1, 245975, Marker_t, "That diminished scale again!"
1, 257703, Marker_t, "Lots of Am 'bluesey' licks "
1, 322560, Marker_t, "Dim scale phrase"
1, 328232, Marker_t, "On D7, RH plays down an Ab triad"
1, 330682, Marker_t, "On G7, a Db triad"
1, 337920, Marker_t, "Another Dim scale figure on E7b9"
1, 348248, Marker_t, "Am 'bluesey' lick"
1, 378704, Marker_t, "Back to 'Head' to finish"
1, 378704, End_track
2, 0, Start_track
2, 0, Title_t, "Piano"
2, 0, Control_c, 0, 0, 0
2, 0, Control_c, 0, 7, 87
2, 0, Control_c, 0, 91, 17
2, 0, Control_c, 0, 93, 0
2, 1, Control_c, 0, 32, 0
2, 2, Program_c, 0, 0
2, 3006, Control_c, 0, 64, 127
2, 3342, Control_c, 0, 64, 0
2, 3854, Note_on_c, 0, 57, 61
2, 4382, Note_on_c, 0, 64, 34
2, 4393, Note_on_c, 0, 60, 31
2, 4531, Note_on_c, 0, 64, 0
2, 4550, Note_on_c, 0, 57, 0
2, 4596, Note_on_c, 0, 60, 0
2, 4793, Note_on_c, 0, 55, 47
2, 5004, Note_on_c, 0, 55, 0
2, 5288, Note_on_c, 0, 54, 58
2, 6230, Note_on_c, 0, 64, 46
2, 6244, Note_on_c, 0, 60, 36
2, 6483, Note_on_c, 0, 54, 0
2, 6644, Note_on_c, 0, 64, 0
2, 6667, Note_on_c, 0, 74, 47
2, 6678, Note_on_c, 0, 66, 52
2, 6681, Note_on_c, 0, 54, 59
2, 6737, Note_on_c, 0, 66, 0
2, 6753, Note_on_c, 0, 74, 0
2, 6990, Note_on_c, 0, 54, 0
2, 7120, Note_on_c, 0, 60, 0
2, 7161, Note_on_c, 0, 55, 60
2, 8136, Note_on_c, 0, 62, 37
2, 8148, Note_on_c, 0, 59, 54
2, 8232, Note_on_c, 0, 55, 0
2, 8534, Note_on_c, 0, 53, 47
2, 8811, Note_on_c, 0, 53, 0
2, 9000, Note_on_c, 0, 62, 0
2, 9073, Note_on_c, 0, 52, 71
2, 9171, Note_on_c, 0, 59, 0
2, 9579, Note_on_c, 0, 62, 51
2, 9580, Note_on_c, 0, 77, 108
2, 9630, Note_on_c, 0, 59, 37
2, 10036, Note_on_c, 0, 76, 65
2, 10049, Note_on_c, 0, 59, 0
2, 10155, Note_on_c, 0, 62, 0
2, 10163, Note_on_c, 0, 77, 0
2, 10328, Note_on_c, 0, 76, 0
2, 10508, Note_on_c, 0, 72, 67
2, 10513, Note_on_c, 0, 59, 46
2, 10520, Note_on_c, 0, 62, 36
2, 10796, Note_on_c, 0, 62, 0
2, 10889, Note_on_c, 0, 72, 0
2, 10950, Note_on_c, 0, 62, 39
2, 10996, Note_on_c, 0, 67, 45
2, 11168, Note_on_c, 0, 52, 0
2, 11328, Note_on_c, 0, 59, 0
2, 11363, Note_on_c, 0, 67, 0
2, 11396, Note_on_c, 0, 62, 0
2, 11438, Note_on_c, 0, 53, 41
2, 11464, Note_on_c, 0, 69, 48
2, 11971, Note_on_c, 0, 60, 46
2, 11993, Note_on_c, 0, 64, 39
2, 12059, Note_on_c, 0, 64, 0
2, 12083, Note_on_c, 0, 60, 0
2, 12324, Note_on_c, 0, 53, 0
2, 12452, Note_on_c, 0, 53, 57
2, 12638, Note_on_c, 0, 53, 0
2, 12956, Note_on_c, 0, 51, 80
2, 13019, Note_on_c, 0, 50, 43
2, 13078, Note_on_c, 0, 50, 0
2, 13739, Note_on_c, 0, 69, 0
2, 13918, Note_on_c, 0, 60, 57
2, 13948, Note_on_c, 0, 57, 63
2, 14462, Note_on_c, 0, 69, 81
2, 14593, Note_on_c, 0, 51, 0
2, 14708, Note_on_c, 0, 64, 62
2, 14798, Note_on_c, 0, 69, 0
2, 14844, Note_on_c, 0, 64, 0
2, 14896, Note_on_c, 0, 51, 43
2, 14929, Note_on_c, 0, 65, 58
2, 15118, Note_on_c, 0, 65, 0
2, 15180, Note_on_c, 0, 67, 67
2, 15241, Note_on_c, 0, 51, 0
2, 15305, Note_on_c, 0, 57, 0
2, 15352, Note_on_c, 0, 67, 0
2, 15398, Note_on_c, 0, 68, 64
2, 15416, Note_on_c, 0, 52, 58
2, 15448, Note_on_c, 0, 60, 0
2, 15611, Note_on_c, 0, 68, 0
2, 15654, Note_on_c, 0, 65, 47
2, 15764, Note_on_c, 0, 65, 0
2, 15881, Note_on_c, 0, 67, 51
2, 16040, Note_on_c, 0, 67, 0
2, 16134, Note_on_c, 0, 68, 75
2, 16305, Note_on_c, 0, 68, 0
2, 16332, Note_on_c, 0, 62, 49
2, 16348, Note_on_c, 0, 59, 42
2, 16355, Note_on_c, 0, 70, 74
2, 16577, Note_on_c, 0, 70, 0
2, 16601, Note_on_c, 0, 67, 40
2, 16716, Note_on_c, 0, 52, 0
2, 16744, Note_on_c, 0, 67, 0
2, 16822, Note_on_c, 0, 68, 74
2, 16851, Note_on_c, 0, 56, 87
2, 16950, Note_on_c, 0, 59, 0
2, 17132, Note_on_c, 0, 70, 59
2, 17192, Note_on_c, 0, 68, 0
2, 17196, Note_on_c, 0, 62, 0
2, 17324, Note_on_c, 0, 70, 0
2, 17363, Note_on_c, 0, 71, 69
2, 17504, Note_on_c, 0, 71, 0
2, 17612, Note_on_c, 0, 72, 78
2, 17798, Note_on_c, 0, 72, 0
2, 17825, Note_on_c, 0, 73, 72
2, 18052, Note_on_c, 0, 73, 0
2, 18080, Note_on_c, 0, 74, 85
2, 18216, Note_on_c, 0, 62, 47
2, 18225, Note_on_c, 0, 74, 0
2, 18318, Note_on_c, 0, 75, 55
2, 18480, Note_on_c, 0, 75, 0
2, 18569, Note_on_c, 0, 56, 0
2, 18588, Note_on_c, 0, 76, 49
2, 18704, Note_on_c, 0, 76, 0
2, 18724, Note_on_c, 0, 78, 44
2, 18779, Note_on_c, 0, 78, 0
2, 19016, Note_on_c, 0, 83, 75
2, 19156, Note_on_c, 0, 83, 0
2, 19212, Note_on_c, 0, 86, 86
2, 19232, Note_on_c, 0, 57, 62
2, 19248, Note_on_c, 0, 62, 0
2, 19470, Note_on_c, 0, 86, 0
2, 19483, Note_on_c, 0, 83, 67
2, 19609, Note_on_c, 0, 83, 0
2, 19694, Note_on_c, 0, 84, 74
2, 19721, Note_on_c, 0, 64, 57
2, 19870, Note_on_c, 0, 84, 0
2, 20003, Note_on_c, 0, 81, 69
2, 20062, Note_on_c, 0, 81, 0
2, 20195, Note_on_c, 0, 55, 70
2, 20230, Note_on_c, 0, 60, 9
2, 20308, Note_on_c, 0, 57, 0
2, 20331, Note_on_c, 0, 60, 0
2, 20545, Note_on_c, 0, 55, 0
2, 20700, Note_on_c, 0, 54, 84
2, 20737, Note_on_c, 0, 60, 24
2, 20748, Note_on_c, 0, 64, 0
2, 20790, Note_on_c, 0, 60, 0
2, 21632, Note_on_c, 0, 64, 61
2, 21644, Note_on_c, 0, 60, 44
2, 21889, Note_on_c, 0, 54, 0
2, 21942, Note_on_c, 0, 64, 0
2, 21960, Note_on_c, 0, 60, 0
2, 22529, Note_on_c, 0, 55, 79
2, 23441, Note_on_c, 0, 62, 41
2, 23460, Note_on_c, 0, 59, 51
2, 23532, Note_on_c, 0, 55, 0
2, 23611, Note_on_c, 0, 62, 0
2, 23868, Note_on_c, 0, 53, 45
2, 24152, Note_on_c, 0, 53, 0
2, 24331, Note_on_c, 0, 59, 0
2, 24420, Note_on_c, 0, 52, 62
2, 24910, Note_on_c, 0, 62, 46
2, 24929, Note_on_c, 0, 79, 90
2, 24956, Note_on_c, 0, 59, 37
2, 25148, Note_on_c, 0, 79, 0
2, 25209, Note_on_c, 0, 76, 73
2, 25348, Note_on_c, 0, 62, 0
2, 25360, Note_on_c, 0, 76, 0
2, 25472, Note_on_c, 0, 71, 64
2, 25643, Note_on_c, 0, 71, 0
2, 25742, Note_on_c, 0, 67, 53
2, 25812, Note_on_c, 0, 62, 31
2, 25830, Note_on_c, 0, 67, 0
2, 25907, Note_on_c, 0, 62, 0
2, 26228, Note_on_c, 0, 62, 41
2, 26294, Note_on_c, 0, 62, 0
2, 26395, Note_on_c, 0, 74, 79
2, 26561, Note_on_c, 0, 52, 0
2, 26638, Note_on_c, 0, 74, 0
2, 26689, Note_on_c, 0, 71, 61
2, 26729, Note_on_c, 0, 59, 0
2, 26827, Note_on_c, 0, 71, 0
2, 26888, Note_on_c, 0, 53, 52
2, 26902, Note_on_c, 0, 72, 71
2, 27089, Note_on_c, 0, 72, 0
2, 27342, Note_on_c, 0, 69, 65
2, 27347, Note_on_c, 0, 60, 35
2, 27356, Note_on_c, 0, 57, 43
2, 27412, Note_on_c, 0, 60, 0
2, 27422, Note_on_c, 0, 69, 0
2, 27534, Note_on_c, 0, 57, 0
2, 27844, Note_on_c, 0, 62, 40
2, 27950, Note_on_c, 0, 62, 0
2, 27993, Note_on_c, 0, 53, 0
2, 28286, Note_on_c, 0, 51, 70
2, 29216, Note_on_c, 0, 60, 43
2, 29233, Note_on_c, 0, 57, 51
2, 29708, Note_on_c, 0, 65, 74
2, 29865, Note_on_c, 0, 65, 0
2, 29956, Note_on_c, 0, 62, 25
2, 30080, Note_on_c, 0, 62, 0
2, 30096, Note_on_c, 0, 51, 0
2, 30136, Note_on_c, 0, 63, 55
2, 30371, Note_on_c, 0, 64, 61
2, 30460, Note_on_c, 0, 63, 0
2, 30518, Note_on_c, 0, 64, 0
2, 30550, Note_on_c, 0, 57, 0
2, 30617, Note_on_c, 0, 67, 72
2, 30619, Note_on_c, 0, 52, 44
2, 30643, Note_on_c, 0, 60, 0
2, 30860, Note_on_c, 0, 67, 0
2, 30897, Note_on_c, 0, 64, 52
2, 30996, Note_on_c, 0, 64, 0
2, 31136, Note_on_c, 0, 65, 43
2, 31352, Note_on_c, 0, 65, 0
2, 31372, Note_on_c, 0, 67, 57
2, 31548, Note_on_c, 0, 67, 0
2, 31628, Note_on_c, 0, 68, 69
2, 31640, Note_on_c, 0, 62, 35
2, 31652, Note_on_c, 0, 59, 33
2, 31793, Note_on_c, 0, 52, 0
2, 31796, Note_on_c, 0, 68, 0
2, 31889, Note_on_c, 0, 70, 60
2, 31998, Note_on_c, 0, 70, 0
2, 32105, Note_on_c, 0, 71, 69
2, 32187, Note_on_c, 0, 71, 0
2, 32356, Note_on_c, 0, 72, 58
2, 32430, Note_on_c, 0, 59, 0
2, 32505, Note_on_c, 0, 72, 0
2, 32563, Note_on_c, 0, 73, 74
2, 32582, Note_on_c, 0, 56, 64
2, 32640, Note_on_c, 0, 62, 0
2, 32747, Note_on_c, 0, 73, 0
2, 32825, Note_on_c, 0, 74, 67
2, 32953, Note_on_c, 0, 74, 0
2, 33083, Note_on_c, 0, 75, 67
2, 33089, Note_on_c, 0, 62, 43
2, 33270, Note_on_c, 0, 75, 0
2, 33307, Note_on_c, 0, 76, 72
2, 33451, Note_on_c, 0, 76, 0
2, 33548, Note_on_c, 0, 79, 69
2, 33668, Note_on_c, 0, 56, 0
2, 33726, Note_on_c, 0, 79, 0
2, 33822, Note_on_c, 0, 76, 45
2, 33902, Note_on_c, 0, 76, 0
2, 33918, Note_on_c, 0, 56, 47
2, 34014, Note_on_c, 0, 77, 57
2, 34139, Note_on_c, 0, 77, 0
2, 34148, Note_on_c, 0, 56, 0
2, 34275, Note_on_c, 0, 79, 76
2, 34403, Note_on_c, 0, 79, 0
2, 34428, Note_on_c, 0, 57, 54
2, 34441, Note_on_c, 0, 62, 0
2, 34505, Note_on_c, 0, 80, 67
2, 34656, Note_on_c, 0, 80, 0
2, 34771, Note_on_c, 0, 81, 60
2, 34843, Note_on_c, 0, 81, 0
2, 34966, Note_on_c, 0, 84, 60
2, 35107, Note_on_c, 0, 84, 0
2, 35233, Note_on_c, 0, 88, 69
2, 35364, Note_on_c, 0, 88, 0
2, 35454, Note_on_c, 0, 64, 49
2, 35470, Note_on_c, 0, 91, 86
2, 35481, Note_on_c, 0, 79, 65
2, 35483, Note_on_c, 0, 60, 29
2, 35606, Note_on_c, 0, 79, 0
2, 35619, Note_on_c, 0, 91, 0
2, 35728, Note_on_c, 0, 91, 75
2, 35748, Note_on_c, 0, 79, 60
2, 35843, Note_on_c, 0, 79, 0
2, 35862, Note_on_c, 0, 91, 0
2, 35904, Note_on_c, 0, 57, 0
2, 35942, Note_on_c, 0, 55, 45
2, 35956, Note_on_c, 0, 91, 75
2, 35977, Note_on_c, 0, 79, 55
2, 36083, Note_on_c, 0, 91, 0
2, 36084, Note_on_c, 0, 79, 0
2, 36209, Note_on_c, 0, 55, 0
2, 36214, Note_on_c, 0, 91, 70
2, 36222, Note_on_c, 0, 79, 71
2, 36326, Note_on_c, 0, 91, 0
2, 36344, Note_on_c, 0, 79, 0
2, 36427, Note_on_c, 0, 91, 74
2, 36443, Note_on_c, 0, 54, 68
2, 36460, Note_on_c, 0, 79, 57
2, 36574, Note_on_c, 0, 64, 0
2, 36659, Note_on_c, 0, 60, 0
2, 36708, Note_on_c, 0, 91, 0
2, 36752, Note_on_c, 0, 79, 0
2, 36931, Note_on_c, 0, 90, 66
2, 36945, Note_on_c, 0, 78, 56
2, 37033, Note_on_c, 0, 78, 0
2, 37075, Note_on_c, 0, 90, 0
2, 37422, Note_on_c, 0, 90, 66
2, 37427, Note_on_c, 0, 64, 43
2, 37436, Note_on_c, 0, 78, 53
2, 37449, Note_on_c, 0, 60, 35
2, 37539, Note_on_c, 0, 78, 0
2, 37556, Note_on_c, 0, 90, 0
2, 37681, Note_on_c, 0, 54, 0
2, 37910, Note_on_c, 0, 54, 58
2, 38222, Note_on_c, 0, 60, 0
2, 38332, Note_on_c, 0, 54, 0
2, 38348, Note_on_c, 0, 64, 0
2, 38388, Note_on_c, 0, 53, 43
2, 38868, Note_on_c, 0, 62, 43
2, 38894, Note_on_c, 0, 59, 44
2, 39707, Note_on_c, 0, 53, 0
2, 39825, Note_on_c, 0, 52, 65
2, 39865, Note_on_c, 0, 62, 0
2, 39948, Note_on_c, 0, 59, 0
2, 40777, Note_on_c, 0, 62, 47
2, 40798, Note_on_c, 0, 59, 44
2, 41256, Note_on_c, 0, 100, 101
2, 41385, Note_on_c, 0, 52, 0
2, 41593, Note_on_c, 0, 100, 0
2, 41678, Note_on_c, 0, 52, 58
2, 41718, Note_on_c, 0, 98, 97
2, 41923, Note_on_c, 0, 52, 0
2, 42086, Note_on_c, 0, 59, 0
2, 42120, Note_on_c, 0, 98, 0
2, 42150, Note_on_c, 0, 62, 0
2, 42172, Note_on_c, 0, 53, 42
2, 42185, Note_on_c, 0, 96, 73
2, 42220, Note_on_c, 0, 98, 69
2, 42275, Note_on_c, 0, 94, 27
2, 42339, Note_on_c, 0, 94, 0
2, 42481, Note_on_c, 0, 98, 0
2, 42540, Note_on_c, 0, 96, 0
2, 42635, Note_on_c, 0, 64, 52
2, 42656, Note_on_c, 0, 60, 40
2, 42668, Note_on_c, 0, 93, 78
2, 42692, Note_on_c, 0, 98, 49
2, 42950, Note_on_c, 0, 98, 0
2, 42988, Note_on_c, 0, 53, 0
2, 43040, Note_on_c, 0, 93, 0
2, 43118, Note_on_c, 0, 88, 62
2, 43166, Note_on_c, 0, 53, 31
2, 43417, Note_on_c, 0, 53, 0
2, 43443, Note_on_c, 0, 88, 0
2, 43480, Note_on_c, 0, 60, 0
2, 43548, Note_on_c, 0, 64, 0
2, 43572, Note_on_c, 0, 84, 68
2, 44012, Note_on_c, 0, 84, 0
2, 44078, Note_on_c, 0, 51, 54
2, 44585, Note_on_c, 0, 62, 46
2, 44609, Note_on_c, 0, 57, 55
2, 45105, Note_on_c, 0, 98, 102
2, 45283, Note_on_c, 0, 98, 0
2, 45332, Note_on_c, 0, 51, 0
2, 45388, Note_on_c, 0, 96, 73
2, 45556, Note_on_c, 0, 96, 0
2, 45652, Note_on_c, 0, 57, 0
2, 45699, Note_on_c, 0, 95, 98
2, 45798, Note_on_c, 0, 52, 52
2, 45913, Note_on_c, 0, 62, 0
2, 45953, Note_on_c, 0, 95, 0
2, 46136, Note_on_c, 0, 93, 95
2, 46315, Note_on_c, 0, 93, 0
2, 46505, Note_on_c, 0, 92, 84
2, 46723, Note_on_c, 0, 92, 0
2, 46811, Note_on_c, 0, 89, 81
2, 46984, Note_on_c, 0, 89, 0
2, 47129, Note_on_c, 0, 88, 73
2, 47147, Note_on_c, 0, 62, 40
2, 47156, Note_on_c, 0, 59, 38
2, 47352, Note_on_c, 0, 88, 0
2, 47393, Note_on_c, 0, 52, 0
2, 47416, Note_on_c, 0, 86, 71
2, 47555, Note_on_c, 0, 86, 0
2, 47732, Note_on_c, 0, 56, 64
2, 47753, Note_on_c, 0, 86, 66
2, 47756, Note_on_c, 0, 84, 47
2, 47804, Note_on_c, 0, 59, 0
2, 47817, Note_on_c, 0, 86, 0
2, 47977, Note_on_c, 0, 84, 0
2, 47979, Note_on_c, 0, 62, 0
2, 48027, Note_on_c, 0, 83, 64
2, 48206, Note_on_c, 0, 83, 0
2, 48336, Note_on_c, 0, 81, 69
2, 48508, Note_on_c, 0, 81, 0
2, 48678, Note_on_c, 0, 80, 49
2, 48683, Note_on_c, 0, 62, 50
2, 48857, Note_on_c, 0, 80, 0
2, 48993, Note_on_c, 0, 86, 78
2, 49144, Note_on_c, 0, 56, 0
2, 49248, Note_on_c, 0, 86, 0
2, 49302, Note_on_c, 0, 80, 53
2, 49403, Note_on_c, 0, 56, 41
2, 49494, Note_on_c, 0, 80, 0
2, 49532, Note_on_c, 0, 56, 0
2, 49608, Note_on_c, 0, 84, 86
2, 49782, Note_on_c, 0, 62, 0
2, 49857, Note_on_c, 0, 57, 71
2, 50105, Note_on_c, 0, 84, 0
2, 50240, Note_on_c, 0, 80, 59
2, 50372, Note_on_c, 0, 80, 0
2, 50513, Note_on_c, 0, 83, 81
2, 50588, Note_on_c, 0, 64, 44
2, 50622, Note_on_c, 0, 60, 36
2, 50804, Note_on_c, 0, 80, 60
2, 50849, Note_on_c, 0, 83, 0
2, 50963, Note_on_c, 0, 80, 0
2, 51116, Note_on_c, 0, 81, 82
2, 51264, Note_on_c, 0, 57, 0
2, 51326, Note_on_c, 0, 81, 0
2, 51380, Note_on_c, 0, 55, 47
2, 51452, Note_on_c, 0, 74, 42
2, 51622, Note_on_c, 0, 55, 0
2, 51699, Note_on_c, 0, 74, 0
2, 51777, Note_on_c, 0, 64, 0
2, 51840, Note_on_c, 0, 54, 74
2, 51899, Note_on_c, 0, 60, 0
2, 52380, Note_on_c, 0, 64, 73
2, 52393, Note_on_c, 0, 60, 58
2, 53219, Note_on_c, 0, 54, 0
2, 53262, Note_on_c, 0, 60, 0
2, 53278, Note_on_c, 0, 64, 0
2, 53304, Note_on_c, 0, 55, 70
2, 54227, Note_on_c, 0, 59, 64
2, 54235, Note_on_c, 0, 62, 42
2, 54262, Note_on_c, 0, 55, 0
2, 54548, Note_on_c, 0, 62, 0
2, 54595, Note_on_c, 0, 59, 0
2, 54660, Note_on_c, 0, 53, 56
2, 55001, Note_on_c, 0, 53, 0
2, 55177, Note_on_c, 0, 52, 63
2, 56128, Note_on_c, 0, 62, 43
2, 56137, Note_on_c, 0, 59, 46
2, 56622, Note_on_c, 0, 67, 35
2, 56675, Note_on_c, 0, 52, 0
2, 56688, Note_on_c, 0, 67, 0
2, 56862, Note_on_c, 0, 71, 67
2, 56988, Note_on_c, 0, 71, 0
2, 57105, Note_on_c, 0, 72, 76
2, 57115, Note_on_c, 0, 52, 41
2, 57256, Note_on_c, 0, 52, 0
2, 57304, Note_on_c, 0, 72, 0
2, 57347, Note_on_c, 0, 76, 95
2, 57352, Note_on_c, 0, 59, 0
2, 57390, Note_on_c, 0, 62, 0
2, 57531, Note_on_c, 0, 53, 50
2, 57584, Note_on_c, 0, 74, 69
2, 57700, Note_on_c, 0, 76, 0
2, 58065, Note_on_c, 0, 69, 59
2, 58072, Note_on_c, 0, 60, 34
2, 58176, Note_on_c, 0, 69, 0
2, 58206, Note_on_c, 0, 60, 0
2, 58561, Note_on_c, 0, 60, 25
2, 58569, Note_on_c, 0, 64, 40
2, 58684, Note_on_c, 0, 53, 0
2, 58760, Note_on_c, 0, 64, 0
2, 58836, Note_on_c, 0, 60, 0
2, 59014, Note_on_c, 0, 53, 29
2, 59016, Note_on_c, 0, 64, 54
2, 59171, Note_on_c, 0, 53, 0
2, 59499, Note_on_c, 0, 51, 50
2, 59841, Note_on_c, 0, 74, 0
2, 59964, Note_on_c, 0, 60, 40
2, 60001, Note_on_c, 0, 64, 0
2, 60020, Note_on_c, 0, 57, 42
2, 60134, Note_on_c, 0, 60, 0
2, 60299, Note_on_c, 0, 57, 0
2, 60492, Note_on_c, 0, 57, 20
2, 60526, Note_on_c, 0, 60, 29
2, 60532, Note_on_c, 0, 62, 29
2, 60587, Note_on_c, 0, 62, 0
2, 60726, Note_on_c, 0, 60, 0
2, 60803, Note_on_c, 0, 51, 0
2, 60902, Note_on_c, 0, 51, 44
2, 60956, Note_on_c, 0, 60, 20
2, 61192, Note_on_c, 0, 57, 0
2, 61235, Note_on_c, 0, 51, 0
2, 61364, Note_on_c, 0, 60, 0
2, 61422, Note_on_c, 0, 52, 56
2, 61915, Note_on_c, 0, 71, 72
2, 61928, Note_on_c, 0, 62, 65
2, 61929, Note_on_c, 0, 67, 72
2, 61931, Note_on_c, 0, 56, 76
2, 61955, Note_on_c, 0, 52, 0
2, 62150, Note_on_c, 0, 62, 0
2, 62292, Note_on_c, 0, 67, 0
2, 62294, Note_on_c, 0, 71, 0
2, 62382, Note_on_c, 0, 74, 78
2, 62390, Note_on_c, 0, 70, 81
2, 62400, Note_on_c, 0, 64, 57
2, 62404, Note_on_c, 0, 65, 60
2, 62432, Note_on_c, 0, 59, 75
2, 62611, Note_on_c, 0, 64, 0
2, 62651, Note_on_c, 0, 65, 0
2, 62656, Note_on_c, 0, 74, 0
2, 62715, Note_on_c, 0, 70, 0
2, 62852, Note_on_c, 0, 73, 69
2, 62859, Note_on_c, 0, 68, 81
2, 62873, Note_on_c, 0, 77, 70
2, 62889, Note_on_c, 0, 62, 67
2, 62910, Note_on_c, 0, 76, 47
2, 62950, Note_on_c, 0, 74, 48
2, 62969, Note_on_c, 0, 59, 0
2, 62971, Note_on_c, 0, 56, 0
2, 62976, Control_c, 0, 64, 127
2, 62980, Note_on_c, 0, 76, 0
2, 63169, Note_on_c, 0, 73, 0
2, 63185, Note_on_c, 0, 77, 0
2, 63192, Note_on_c, 0, 74, 0
2, 63278, Note_on_c, 0, 68, 0
2, 63457, Note_on_c, 0, 62, 0
2, 63764, Note_on_c, 0, 80, 74
2, 63792, Note_on_c, 0, 74, 56
2, 63809, Note_on_c, 0, 65, 64
2, 63848, Note_on_c, 0, 74, 0
2, 63950, Note_on_c, 0, 80, 0
2, 64228, Note_on_c, 0, 68, 63
2, 64251, Note_on_c, 0, 83, 71
2, 64252, Note_on_c, 0, 80, 59
2, 64289, Note_on_c, 0, 74, 42
2, 64318, Note_on_c, 0, 68, 0
2, 64323, Note_on_c, 0, 76, 33
2, 64344, Note_on_c, 0, 65, 0
2, 64396, Note_on_c, 0, 76, 0
2, 64456, Note_on_c, 0, 74, 0
2, 64606, Note_on_c, 0, 83, 0
2, 64652, Note_on_c, 0, 80, 0
2, 64737, Note_on_c, 0, 45, 92
2, 64747, Note_on_c, 0, 86, 91
2, 64756, Control_c, 0, 64, 0
2, 64756, Note_on_c, 0, 47, 55
2, 64822, Note_on_c, 0, 47, 0
2, 65080, Note_on_c, 0, 86, 0
2, 65142, Control_c, 0, 64, 127
2, 65172, Note_on_c, 0, 45, 0
2, 65220, Control_c, 0, 64, 0
2, 65240, Note_on_c, 0, 84, 69
2, 65273, Note_on_c, 0, 72, 53
2, 65284, Control_c, 0, 64, 127
2, 65556, Control_c, 0, 64, 0
2, 65592, Note_on_c, 0, 72, 0
2, 65672, Note_on_c, 0, 72, 27
2, 65688, Note_on_c, 0, 64, 57
2, 65702, Note_on_c, 0, 81, 50
2, 65713, Note_on_c, 0, 60, 45
2, 65748, Note_on_c, 0, 64, 0
2, 65776, Note_on_c, 0, 60, 0
2, 65843, Note_on_c, 0, 72, 0
2, 65968, Note_on_c, 0, 84, 0
2, 65987, Note_on_c, 0, 81, 0
2, 66156, Note_on_c, 0, 40, 80
2, 66316, Note_on_c, 0, 40, 0
2, 66616, Note_on_c, 0, 38, 74
2, 66945, Note_on_c, 0, 38, 0
2, 66953, Control_c, 0, 64, 127
2, 67595, Control_c, 0, 64, 0
2, 67664, Note_on_c, 0, 65, 48
2, 67687, Note_on_c, 0, 54, 58
2, 67713, Note_on_c, 0, 60, 50
2, 67731, Note_on_c, 0, 65, 0
2, 67777, Note_on_c, 0, 60, 0
2, 67825, Note_on_c, 0, 54, 0
2, 68127, Note_on_c, 0, 43, 60
2, 68440, Note_on_c, 0, 43, 0
2, 68649, Note_on_c, 0, 43, 39
2, 68654, Control_c, 0, 64, 127
2, 68785, Note_on_c, 0, 43, 0
2, 69108, Note_on_c, 0, 53, 65
2, 69113, Note_on_c, 0, 64, 89
2, 69141, Note_on_c, 0, 57, 41
2, 69151, Note_on_c, 0, 59, 73
2, 69166, Control_c, 0, 64, 0
2, 69208, Note_on_c, 0, 57, 0
2, 69224, Note_on_c, 0, 64, 0
2, 69383, Note_on_c, 0, 59, 0
2, 69407, Note_on_c, 0, 53, 0
2, 69574, Note_on_c, 0, 81, 74
2, 69596, Note_on_c, 0, 69, 48
2, 69600, Note_on_c, 0, 76, 68
2, 69848, Note_on_c, 0, 76, 0
2, 69853, Note_on_c, 0, 69, 0
2, 69886, Note_on_c, 0, 81, 0
2, 70049, Control_c, 0, 64, 127
2, 70049, Note_on_c, 0, 80, 57
2, 70056, Note_on_c, 0, 43, 40
2, 70177, Control_c, 0, 64, 0
2, 70321, Note_on_c, 0, 80, 0
2, 70532, Note_on_c, 0, 43, 0
2, 70558, Note_on_c, 0, 79, 64
2, 70574, Note_on_c, 0, 36, 71
2, 70576, Note_on_c, 0, 67, 60
2, 70581, Note_on_c, 0, 76, 65
2, 70806, Note_on_c, 0, 36, 0
2, 70979, Control_c, 0, 64, 127
2, 71489, Note_on_c, 0, 55, 43
2, 71506, Note_on_c, 0, 64, 73
2, 71522, Note_on_c, 0, 59, 42
2, 71539, Note_on_c, 0, 60, 56
2, 71576, Note_on_c, 0, 64, 0
2, 71613, Note_on_c, 0, 59, 0
2, 71624, Note_on_c, 0, 60, 0
2, 71632, Note_on_c, 0, 67, 0
2, 71708, Note_on_c, 0, 55, 0
2, 71926, Control_c, 0, 64, 0
2, 71991, Note_on_c, 0, 72, 52
2, 72007, Note_on_c, 0, 67, 48
2, 72020, Control_c, 0, 64, 127
2, 72345, Note_on_c, 0, 79, 0
2, 72385, Note_on_c, 0, 72, 0
2, 72392, Control_c, 0, 64, 0
2, 72400, Note_on_c, 0, 76, 0
2, 72439, Note_on_c, 0, 67, 0
2, 72461, Note_on_c, 0, 35, 80
2, 72950, Control_c, 0, 64, 127
2, 72953, Note_on_c, 0, 63, 53
2, 73045, Note_on_c, 0, 35, 0
2, 73447, Note_on_c, 0, 62, 81
2, 73545, Control_c, 0, 64, 0
2, 73761, Note_on_c, 0, 63, 0
2, 73883, Note_on_c, 0, 62, 0
2, 73913, Note_on_c, 0, 63, 74
2, 73922, Note_on_c, 0, 74, 52
2, 73956, Note_on_c, 0, 69, 55
2, 74123, Control_c, 0, 64, 127
2, 74267, Control_c, 0, 64, 0
2, 74433, Note_on_c, 0, 53, 78
2, 74697, Note_on_c, 0, 63, 0
2, 74723, Note_on_c, 0, 74, 0
2, 74825, Note_on_c, 0, 69, 0
2, 74894, Note_on_c, 0, 63, 43
2, 75118, Note_on_c, 0, 63, 0
2, 75396, Note_on_c, 0, 51, 53
2, 75756, Control_c, 0, 64, 127
2, 75799, Note_on_c, 0, 53, 0
2, 75833, Note_on_c, 0, 51, 0
2, 75856, Note_on_c, 0, 63, 44
2, 75859, Note_on_c, 0, 57, 61
2, 76093, Note_on_c, 0, 57, 0
2, 76222, Control_c, 0, 64, 0
2, 76291, Note_on_c, 0, 63, 0
2, 76292, Note_on_c, 0, 28, 62
2, 76316, Note_on_c, 0, 67, 62
2, 76332, Note_on_c, 0, 56, 63
2, 76334, Note_on_c, 0, 40, 62
2, 76356, Note_on_c, 0, 62, 54
2, 76592, Control_c, 0, 64, 127
2, 76741, Note_on_c, 0, 56, 0
2, 76782, Note_on_c, 0, 28, 0
2, 76876, Note_on_c, 0, 67, 0
2, 76926, Note_on_c, 0, 62, 0
2, 76958, Note_on_c, 0, 40, 0
2, 77266, Note_on_c, 0, 77, 75
2, 77280, Note_on_c, 0, 76, 83
2, 77408, Note_on_c, 0, 77, 0
2, 77601, Note_on_c, 0, 76, 0
2, 77683, Control_c, 0, 64, 0
2, 77729, Note_on_c, 0, 65, 60
2, 77762, Note_on_c, 0, 68, 53
2, 77772, Note_on_c, 0, 64, 81
2, 77796, Note_on_c, 0, 71, 63
2, 78161, Note_on_c, 0, 65, 0
2, 78316, Note_on_c, 0, 68, 0
2, 78337, Note_on_c, 0, 71, 0
2, 78572, Note_on_c, 0, 64, 0
2, 78701, Note_on_c, 0, 68, 38
2, 78718, Note_on_c, 0, 65, 43
2, 78722, Note_on_c, 0, 64, 49
2, 78739, Note_on_c, 0, 71, 50
2, 79357, Note_on_c, 0, 68, 0
2, 79372, Note_on_c, 0, 65, 0
2, 79433, Note_on_c, 0, 71, 0
2, 79566, Note_on_c, 0, 64, 0
2, 79647, Note_on_c, 0, 71, 48
2, 79671, Note_on_c, 0, 68, 35
2, 79672, Control_c, 0, 64, 127
2, 79716, Note_on_c, 0, 65, 37
2, 80104, Control_c, 0, 64, 0
2, 80129, Note_on_c, 0, 65, 0
2, 80158, Note_on_c, 0, 52, 47
2, 80333, Note_on_c, 0, 71, 0
2, 80375, Note_on_c, 0, 68, 0
2, 80636, Note_on_c, 0, 45, 40
2, 80685, Note_on_c, 0, 52, 0
2, 80712, Note_on_c, 0, 45, 0
2, 81104, Note_on_c, 0, 64, 65
2, 81104, Note_on_c, 0, 59, 26
2, 81118, Note_on_c, 0, 60, 38
2, 81214, Note_on_c, 0, 64, 0
2, 81220, Note_on_c, 0, 60, 0
2, 81231, Note_on_c, 0, 59, 0
2, 81584, Note_on_c, 0, 79, 32
2, 81602, Note_on_c, 0, 74, 52
2, 81614, Note_on_c, 0, 72, 55
2, 81689, Note_on_c, 0, 79, 0
2, 81764, Note_on_c, 0, 74, 0
2, 81792, Note_on_c, 0, 72, 0
2, 82049, Note_on_c, 0, 38, 43
2, 82190, Note_on_c, 0, 38, 0
2, 82541, Note_on_c, 0, 74, 46
2, 82546, Note_on_c, 0, 78, 68
2, 82576, Note_on_c, 0, 66, 52
2, 83007, Note_on_c, 0, 62, 32
2, 83036, Note_on_c, 0, 54, 51
2, 83062, Note_on_c, 0, 62, 0
2, 83208, Note_on_c, 0, 54, 0
2, 83272, Note_on_c, 0, 74, 0
2, 83309, Note_on_c, 0, 66, 0
2, 83541, Note_on_c, 0, 71, 49
2, 83622, Note_on_c, 0, 78, 0
2, 83870, Note_on_c, 0, 71, 0
2, 83993, Note_on_c, 0, 74, 56
2, 84004, Note_on_c, 0, 43, 46
2, 84014, Note_on_c, 0, 67, 57
2, 84289, Control_c, 0, 64, 127
2, 84366, Note_on_c, 0, 43, 0
2, 84677, Note_on_c, 0, 67, 0
2, 84822, Note_on_c, 0, 77, 75
2, 84832, Note_on_c, 0, 53, 46
2, 84836, Control_c, 0, 64, 0
2, 84844, Note_on_c, 0, 65, 71
2, 84846, Note_on_c, 0, 71, 66
2, 84855, Note_on_c, 0, 74, 0
2, 84857, Note_on_c, 0, 62, 42
2, 84875, Note_on_c, 0, 60, 35
2, 84884, Note_on_c, 0, 74, 34
2, 84900, Note_on_c, 0, 57, 47
2, 84921, Note_on_c, 0, 62, 0
2, 84936, Note_on_c, 0, 60, 0
2, 84940, Note_on_c, 0, 74, 0
2, 84980, Note_on_c, 0, 57, 0
2, 85076, Note_on_c, 0, 53, 0
2, 85176, Note_on_c, 0, 71, 0
2, 85192, Note_on_c, 0, 65, 0
2, 85259, Note_on_c, 0, 77, 0
2, 85328, Note_on_c, 0, 74, 37
2, 85632, Note_on_c, 0, 74, 0
2, 85788, Note_on_c, 0, 43, 46
2, 85819, Note_on_c, 0, 65, 31
2, 85822, Note_on_c, 0, 64, 35
2, 85862, Control_c, 0, 64, 127
2, 85926, Control_c, 0, 64, 0
2, 85928, Note_on_c, 0, 65, 0
2, 85939, Note_on_c, 0, 64, 0
2, 86256, Note_on_c, 0, 43, 0
2, 86267, Note_on_c, 0, 36, 64
2, 86273, Note_on_c, 0, 76, 73
2, 86299, Note_on_c, 0, 64, 61
2, 86374, Control_c, 0, 64, 127
2, 86395, Note_on_c, 0, 36, 0
2, 86435, Note_on_c, 0, 64, 0
2, 86745, Note_on_c, 0, 76, 0
2, 86830, Note_on_c, 0, 72, 59
2, 86881, Note_on_c, 0, 64, 36
2, 86894, Note_on_c, 0, 60, 45
2, 86952, Note_on_c, 0, 64, 0
2, 87000, Note_on_c, 0, 60, 0
2, 87033, Note_on_c, 0, 72, 0
2, 87065, Control_c, 0, 64, 0
2, 87299, Note_on_c, 0, 74, 85
2, 87656, Note_on_c, 0, 74, 0
2, 87705, Control_c, 0, 64, 127
2, 87760, Note_on_c, 0, 72, 55
2, 88032, Note_on_c, 0, 72, 0
2, 88089, Control_c, 0, 64, 0
2, 88208, Note_on_c, 0, 75, 78
2, 88216, Note_on_c, 0, 47, 62
2, 88238, Note_on_c, 0, 63, 69
2, 88385, Note_on_c, 0, 47, 0
2, 88683, Note_on_c, 0, 75, 0
2, 88712, Note_on_c, 0, 63, 0
2, 88724, Note_on_c, 0, 72, 46
2, 88742, Note_on_c, 0, 57, 46
2, 88822, Note_on_c, 0, 57, 0
2, 88924, Note_on_c, 0, 72, 0
2, 89188, Note_on_c, 0, 62, 50
2, 89190, Note_on_c, 0, 74, 66
2, 89222, Note_on_c, 0, 73, 37
2, 89246, Control_c, 0, 64, 127
2, 89384, Note_on_c, 0, 73, 0
2, 89473, Note_on_c, 0, 62, 0
2, 89486, Note_on_c, 0, 74, 0
2, 89662, Control_c, 0, 64, 0
2, 89676, Note_on_c, 0, 74, 59
2, 89736, Note_on_c, 0, 56, 62
2, 90128, Control_c, 0, 64, 127
2, 90622, Note_on_c, 0, 72, 36
2, 90659, Note_on_c, 0, 62, 48
2, 90769, Note_on_c, 0, 74, 0
2, 90883, Note_on_c, 0, 62, 0
2, 90929, Control_c, 0, 64, 0
2, 90969, Note_on_c, 0, 72, 0
2, 91025, Control_c, 0, 64, 127
2, 91136, Note_on_c, 0, 56, 0
2, 91185, Note_on_c, 0, 69, 31
2, 91542, Note_on_c, 0, 69, 0
2, 91555, Control_c, 0, 64, 0
2, 91614, Note_on_c, 0, 72, 75
2, 91643, Note_on_c, 0, 45, 73
2, 92052, Control_c, 0, 64, 127
2, 92132, Control_c, 0, 64, 0
2, 92196, Control_c, 0, 64, 127
2, 92476, Note_on_c, 0, 72, 0
2, 92574, Note_on_c, 0, 57, 75
2, 92582, Note_on_c, 0, 69, 65
2, 92644, Control_c, 0, 64, 0
2, 92992, Note_on_c, 0, 69, 0
2, 93060, Note_on_c, 0, 64, 44
2, 93064, Control_c, 0, 64, 127
2, 93230, Note_on_c, 0, 57, 0
2, 93240, Note_on_c, 0, 45, 0
2, 93585, Note_on_c, 0, 52, 57
2, 93640, Control_c, 0, 64, 0
2, 93782, Note_on_c, 0, 52, 0
2, 94057, Control_c, 0, 64, 127
2, 94412, Note_on_c, 0, 64, 0
2, 94537, Note_on_c, 0, 52, 84
2, 94849, Note_on_c, 0, 52, 0
2, 94859, Control_c, 0, 64, 0
2, 95016, Note_on_c, 0, 61, 52
2, 95017, Note_on_c, 0, 64, 56
2, 95083, Control_c, 0, 64, 127
2, 95420, Note_on_c, 0, 61, 0
2, 95422, Note_on_c, 0, 64, 0
2, 95483, Note_on_c, 0, 45, 81
2, 95580, Control_c, 0, 64, 0
2, 95998, Control_c, 0, 64, 127
2, 96816, Control_c, 0, 64, 0
2, 96817, Note_on_c, 0, 45, 0
2, 96897, Note_on_c, 0, 69, 73
2, 96900, Note_on_c, 0, 60, 65
2, 96907, Note_on_c, 0, 65, 71
2, 96924, Note_on_c, 0, 50, 65
2, 97152, Control_c, 0, 64, 127
2, 97204, Note_on_c, 0, 69, 0
2, 97267, Note_on_c, 0, 65, 0
2, 97296, Control_c, 0, 64, 0
2, 97310, Note_on_c, 0, 60, 0
2, 97316, Note_on_c, 0, 50, 0
2, 97384, Note_on_c, 0, 43, 47
2, 97547, Note_on_c, 0, 43, 0
2, 97856, Note_on_c, 0, 64, 65
2, 97862, Note_on_c, 0, 68, 69
2, 97878, Note_on_c, 0, 59, 69
2, 97886, Note_on_c, 0, 53, 49
2, 98003, Control_c, 0, 64, 127
2, 98083, Control_c, 0, 64, 0
2, 98179, Control_c, 0, 64, 127
2, 98305, Note_on_c, 0, 53, 0
2, 98337, Note_on_c, 0, 43, 51
2, 98518, Note_on_c, 0, 43, 0
2, 98796, Note_on_c, 0, 64, 0
2, 98816, Note_on_c, 0, 36, 58
2, 98862, Note_on_c, 0, 59, 0
2, 98883, Note_on_c, 0, 68, 0
2, 99188, Control_c, 0, 64, 0
2, 99214, Note_on_c, 0, 36, 0
2, 99308, Note_on_c, 0, 67, 64
2, 99326, Note_on_c, 0, 62, 61
2, 99328, Note_on_c, 0, 52, 57
2, 99340, Note_on_c, 0, 57, 70
2, 99542, Control_c, 0, 64, 127
2, 99582, Note_on_c, 0, 57, 0
2, 99632, Note_on_c, 0, 52, 0
2, 99664, Note_on_c, 0, 62, 0
2, 99708, Note_on_c, 0, 67, 0
2, 100329, Note_on_c, 0, 64, 75
2, 100337, Note_on_c, 0, 60, 66
2, 100476, Note_on_c, 0, 64, 0
2, 100555, Note_on_c, 0, 60, 0
2, 100784, Note_on_c, 0, 67, 37
2, 100860, Note_on_c, 0, 67, 0
2, 101035, Note_on_c, 0, 69, 62
2, 101201, Note_on_c, 0, 69, 0
2, 101382, Note_on_c, 0, 76, 103
2, 101659, Note_on_c, 0, 76, 0
2, 101675, Control_c, 0, 64, 0
2, 101745, Note_on_c, 0, 69, 90
2, 101769, Note_on_c, 0, 41, 39
2, 101780, Note_on_c, 0, 48, 49
2, 102286, Note_on_c, 0, 64, 63
2, 102368, Note_on_c, 0, 69, 0
2, 102379, Note_on_c, 0, 41, 0
2, 102518, Note_on_c, 0, 64, 0
2, 102625, Note_on_c, 0, 48, 0
2, 102761, Note_on_c, 0, 69, 67
2, 102908, Note_on_c, 0, 69, 0
2, 103031, Note_on_c, 0, 72, 71
2, 103177, Note_on_c, 0, 72, 0
2, 103340, Note_on_c, 0, 74, 87
2, 103514, Note_on_c, 0, 74, 0
2, 103710, Note_on_c, 0, 75, 92
2, 103734, Note_on_c, 0, 68, 90
2, 103737, Note_on_c, 0, 63, 80
2, 103739, Note_on_c, 0, 57, 88
2, 103910, Note_on_c, 0, 75, 0
2, 104024, Note_on_c, 0, 74, 82
2, 104229, Note_on_c, 0, 74, 0
2, 104322, Note_on_c, 0, 72, 71
2, 104576, Note_on_c, 0, 72, 0
2, 104622, Note_on_c, 0, 69, 56
2, 104659, Note_on_c, 0, 71, 31
2, 104708, Note_on_c, 0, 71, 0
2, 104812, Note_on_c, 0, 69, 0
2, 104939, Note_on_c, 0, 67, 67
2, 105186, Note_on_c, 0, 67, 0
2, 105250, Note_on_c, 0, 64, 59
2, 105302, Note_on_c, 0, 57, 0
2, 105435, Note_on_c, 0, 68, 0
2, 105445, Note_on_c, 0, 64, 0
2, 105478, Note_on_c, 0, 63, 0
2, 105594, Note_on_c, 0, 62, 38
2, 105595, Note_on_c, 0, 67, 69
2, 105602, Note_on_c, 0, 62, 56
2, 105612, Note_on_c, 0, 56, 70
2, 105873, Note_on_c, 0, 62, 0
2, 105915, Note_on_c, 0, 60, 46
2, 106122, Note_on_c, 0, 60, 0
2, 106245, Note_on_c, 0, 57, 47
2, 106262, Note_on_c, 0, 59, 34
2, 106318, Note_on_c, 0, 59, 0
2, 106507, Note_on_c, 0, 57, 0
2, 106610, Note_on_c, 0, 55, 47
2, 106751, Note_on_c, 0, 62, 0
2, 106758, Note_on_c, 0, 67, 0
2, 106891, Note_on_c, 0, 55, 0
2, 107192, Note_on_c, 0, 56, 0
2, 107214, Note_on_c, 0, 60, 81
2, 107216, Note_on_c, 0, 57, 90
2, 107216, Note_on_c, 0, 64, 86
2, 107219, Note_on_c, 0, 61, 39
2, 107269, Note_on_c, 0, 61, 0
2, 107453, Note_on_c, 0, 57, 0
2, 107493, Note_on_c, 0, 60, 0
2, 107514, Note_on_c, 0, 64, 0
2, 108559, Note_on_c, 0, 28, 73
2, 108562, Note_on_c, 0, 62, 75
2, 108563, Note_on_c, 0, 40, 79
2, 108564, Note_on_c, 0, 56, 98
2, 108567, Note_on_c, 0, 67, 81
2, 109964, Note_on_c, 0, 67, 0
2, 109983, Note_on_c, 0, 64, 67
2, 110006, Note_on_c, 0, 56, 0
2, 110026, Note_on_c, 0, 62, 0
2, 110107, Note_on_c, 0, 64, 0
2, 110475, Note_on_c, 0, 28, 0
2, 110481, Note_on_c, 0, 67, 81
2, 110506, Note_on_c, 0, 40, 0
2, 110660, Note_on_c, 0, 69, 76
2, 110688, Note_on_c, 0, 67, 0
2, 110779, Note_on_c, 0, 67, 60
2, 110834, Note_on_c, 0, 69, 0
2, 110952, Note_on_c, 0, 64, 56
2, 110972, Note_on_c, 0, 67, 0
2, 111204, Note_on_c, 0, 64, 0
2, 111415, Note_on_c, 0, 64, 69
2, 111427, Note_on_c, 0, 69, 94
2, 111428, Note_on_c, 0, 60, 52
2, 111431, Note_on_c, 0, 57, 61
2, 111443, Note_on_c, 0, 55, 43
2, 111607, Note_on_c, 0, 69, 0
2, 111643, Note_on_c, 0, 60, 0
2, 111659, Note_on_c, 0, 64, 0
2, 111677, Note_on_c, 0, 55, 0
2, 111710, Note_on_c, 0, 57, 0
2, 113795, Note_on_c, 0, 54, 91
2, 113798, Note_on_c, 0, 64, 94
2, 113800, Note_on_c, 0, 60, 75
2, 113804, Note_on_c, 0, 84, 87
2, 113813, Note_on_c, 0, 72, 85
2, 114174, Note_on_c, 0, 64, 0
2, 114191, Note_on_c, 0, 60, 0
2, 114200, Note_on_c, 0, 84, 0
2, 114212, Note_on_c, 0, 72, 0
2, 114235, Note_on_c, 0, 54, 0
2, 114734, Note_on_c, 0, 81, 87
2, 114737, Note_on_c, 0, 53, 78
2, 114739, Note_on_c, 0, 64, 89
2, 114742, Note_on_c, 0, 59, 83
2, 114746, Note_on_c, 0, 69, 84
2, 115057, Note_on_c, 0, 69, 0
2, 115104, Note_on_c, 0, 81, 0
2, 115138, Note_on_c, 0, 53, 0
2, 115155, Note_on_c, 0, 64, 0
2, 115162, Note_on_c, 0, 59, 0
2, 115685, Note_on_c, 0, 81, 103
2, 116045, Note_on_c, 0, 81, 0
2, 116159, Note_on_c, 0, 79, 74
2, 116171, Note_on_c, 0, 81, 56
2, 116269, Note_on_c, 0, 81, 0
2, 116314, Note_on_c, 0, 79, 0
2, 116616, Note_on_c, 0, 75, 90
2, 116621, Note_on_c, 0, 81, 75
2, 116759, Note_on_c, 0, 81, 0
2, 116766, Note_on_c, 0, 75, 0
2, 117089, Note_on_c, 0, 74, 97
2, 117102, Note_on_c, 0, 81, 83
2, 117262, Note_on_c, 0, 74, 0
2, 117269, Note_on_c, 0, 75, 66
2, 117401, Note_on_c, 0, 74, 51
2, 117493, Note_on_c, 0, 75, 0
2, 117508, Note_on_c, 0, 81, 0
2, 117583, Note_on_c, 0, 74, 0
2, 117594, Note_on_c, 0, 72, 55
2, 117738, Note_on_c, 0, 72, 0
2, 118009, Note_on_c, 0, 74, 97
2, 118032, Note_on_c, 0, 81, 83
2, 118124, Note_on_c, 0, 74, 0
2, 118180, Note_on_c, 0, 75, 63
2, 118290, Note_on_c, 0, 74, 43
2, 118399, Note_on_c, 0, 81, 0
2, 118493, Note_on_c, 0, 75, 0
2, 118578, Note_on_c, 0, 72, 53
2, 118598, Note_on_c, 0, 74, 0
2, 118738, Note_on_c, 0, 72, 0
2, 119024, Note_on_c, 0, 76, 103
2, 119499, Note_on_c, 0, 72, 70
2, 119579, Note_on_c, 0, 76, 0
2, 119975, Note_on_c, 0, 69, 51
2, 120116, Note_on_c, 0, 72, 0
2, 120191, Note_on_c, 0, 69, 0
2, 120958, Control_c, 0, 64, 127
2, 121321, Control_c, 0, 64, 0
2, 121389, Note_on_c, 0, 63, 76
2, 121396, Note_on_c, 0, 57, 82
2, 121403, Note_on_c, 0, 68, 82
2, 121419, Note_on_c, 0, 87, 83
2, 121420, Note_on_c, 0, 82, 85
2, 121422, Note_on_c, 0, 75, 93
2, 121482, Control_c, 0, 64, 127
2, 121612, Note_on_c, 0, 57, 0
2, 121730, Note_on_c, 0, 75, 0
2, 121731, Note_on_c, 0, 63, 0
2, 121736, Note_on_c, 0, 68, 0
2, 121757, Note_on_c, 0, 87, 0
2, 121786, Control_c, 0, 64, 0
2, 121825, Note_on_c, 0, 82, 0
2, 121854, Note_on_c, 0, 88, 75
2, 121855, Note_on_c, 0, 69, 75
2, 121858, Note_on_c, 0, 58, 79
2, 121858, Note_on_c, 0, 64, 61
2, 121870, Note_on_c, 0, 83, 80
2, 121871, Note_on_c, 0, 76, 68
2, 121963, Control_c, 0, 64, 127
2, 122045, Note_on_c, 0, 76, 0
2, 122057, Note_on_c, 0, 69, 0
2, 122067, Note_on_c, 0, 58, 0
2, 122114, Note_on_c, 0, 64, 0
2, 122116, Note_on_c, 0, 83, 0
2, 122143, Note_on_c, 0, 88, 0
2, 122323, Control_c, 0, 64, 0
2, 122405, Note_on_c, 0, 77, 90
2, 122410, Note_on_c, 0, 84, 85
2, 122412, Note_on_c, 0, 59, 73
2, 122412, Note_on_c, 0, 65, 78
2, 122412, Note_on_c, 0, 70, 72
2, 122412, Note_on_c, 0, 89, 81
2, 122459, Note_on_c, 0, 70, 0
2, 122460, Note_on_c, 0, 65, 0
2, 122463, Note_on_c, 0, 59, 0
2, 122516, Note_on_c, 0, 89, 0
2, 122559, Note_on_c, 0, 77, 0
2, 122633, Note_on_c, 0, 84, 0
2, 123333, Note_on_c, 0, 78, 87
2, 123334, Note_on_c, 0, 90, 80
2, 123340, Note_on_c, 0, 85, 78
2, 123348, Note_on_c, 0, 64, 84
2, 123351, Note_on_c, 0, 60, 74
2, 123367, Note_on_c, 0, 71, 56
2, 123415, Note_on_c, 0, 71, 0
2, 123517, Note_on_c, 0, 78, 0
2, 123546, Note_on_c, 0, 64, 0
2, 123562, Note_on_c, 0, 90, 0
2, 123628, Note_on_c, 0, 60, 0
2, 123636, Note_on_c, 0, 85, 0
2, 124356, Note_on_c, 0, 91, 88
2, 124359, Note_on_c, 0, 67, 86
2, 124361, Note_on_c, 0, 61, 76
2, 124364, Note_on_c, 0, 72, 70
2, 124365, Note_on_c, 0, 86, 87
2, 124367, Note_on_c, 0, 79, 79
2, 124493, Note_on_c, 0, 67, 0
2, 124529, Note_on_c, 0, 91, 0
2, 124547, Note_on_c, 0, 72, 0
2, 124561, Note_on_c, 0, 86, 0
2, 124562, Note_on_c, 0, 79, 0
2, 124616, Note_on_c, 0, 61, 0
2, 125364, Note_on_c, 0, 64, 78
2, 125470, Note_on_c, 0, 64, 0
2, 125827, Note_on_c, 0, 67, 89
2, 125927, Note_on_c, 0, 69, 52
2, 125952, Note_on_c, 0, 67, 0
2, 126109, Note_on_c, 0, 67, 41
2, 126136, Note_on_c, 0, 69, 0
2, 126302, Note_on_c, 0, 67, 0
2, 126332, Note_on_c, 0, 64, 49
2, 126503, Note_on_c, 0, 64, 0
2, 126768, Note_on_c, 0, 69, 85
2, 126928, Note_on_c, 0, 69, 0
2, 127313, Note_on_c, 0, 65, 72
2, 127316, Note_on_c, 0, 60, 72
2, 127331, Note_on_c, 0, 50, 54
2, 127700, Note_on_c, 0, 50, 0
2, 127739, Note_on_c, 0, 60, 0
2, 127766, Note_on_c, 0, 65, 0
2, 128604, Note_on_c, 0, 43, 60
2, 128610, Note_on_c, 0, 64, 79
2, 128622, Note_on_c, 0, 59, 79
2, 128623, Note_on_c, 0, 53, 64
2, 128659, Note_on_c, 0, 55, 42
2, 128720, Note_on_c, 0, 55, 0
2, 128884, Control_c, 0, 64, 127
2, 129564, Note_on_c, 0, 43, 0
2, 129571, Note_on_c, 0, 64, 0
2, 129583, Note_on_c, 0, 53, 0
2, 129611, Note_on_c, 0, 59, 0
2, 130067, Control_c, 0, 64, 0
2, 130080, Note_on_c, 0, 52, 69
2, 130122, Note_on_c, 0, 48, 67
2, 130122, Note_on_c, 0, 36, 69
2, 130122, Note_on_c, 0, 63, 76
2, 130122, Note_on_c, 0, 58, 77
2, 130455, Note_on_c, 0, 36, 0
2, 130491, Note_on_c, 0, 58, 0
2, 130521, Note_on_c, 0, 48, 0
2, 130543, Note_on_c, 0, 63, 0
2, 130560, Note_on_c, 0, 52, 0
2, 131140, Note_on_c, 0, 57, 61
2, 131145, Note_on_c, 0, 69, 94
2, 131150, Note_on_c, 0, 59, 65
2, 131218, Note_on_c, 0, 59, 0
2, 131839, Note_on_c, 0, 57, 0
2, 131852, Note_on_c, 0, 67, 81
2, 131867, Note_on_c, 0, 55, 64
2, 131931, Note_on_c, 0, 69, 0
2, 132102, Control_c, 0, 64, 127
2, 132297, Note_on_c, 0, 67, 0
2, 132334, Control_c, 0, 64, 0
2, 132409, Note_on_c, 0, 55, 0
2, 132462, Note_on_c, 0, 72, 96
2, 132471, Note_on_c, 0, 60, 80
2, 133043, Note_on_c, 0, 72, 0
2, 133119, Note_on_c, 0, 69, 79
2, 133125, Note_on_c, 0, 57, 78
2, 133215, Note_on_c, 0, 60, 0
2, 133894, Note_on_c, 0, 67, 78
2, 133894, Note_on_c, 0, 55, 61
2, 133958, Note_on_c, 0, 57, 0
2, 133973, Note_on_c, 0, 69, 0
2, 134094, Control_c, 0, 64, 127
2, 134138, Note_on_c, 0, 55, 0
2, 134177, Note_on_c, 0, 67, 0
2, 134383, Control_c, 0, 64, 0
2, 134400, Note_on_c, 0, 71, 75
2, 134400, Note_on_c, 0, 64, 87
2, 134400, Note_on_c, 0, 66, 84
2, 134400, Note_on_c, 0, 60, 83
2, 134400, Note_on_c, 0, 59, 81
2, 134764, Note_on_c, 0, 60, 0
2, 134780, Note_on_c, 0, 71, 0
2, 134822, Note_on_c, 0, 59, 0
2, 134829, Note_on_c, 0, 64, 0
2, 134890, Note_on_c, 0, 66, 0
2, 135040, Note_on_c, 0, 66, 79
2, 135040, Note_on_c, 0, 64, 66
2, 135040, Note_on_c, 0, 59, 78
2, 135040, Note_on_c, 0, 71, 69
2, 135040, Note_on_c, 0, 60, 81
2, 135421, Note_on_c, 0, 60, 0
2, 135433, Note_on_c, 0, 64, 0
2, 135438, Note_on_c, 0, 71, 0
2, 135487, Note_on_c, 0, 59, 0
2, 135489, Note_on_c, 0, 66, 0
2, 135680, Note_on_c, 0, 66, 69
2, 135680, Note_on_c, 0, 71, 68
2, 135680, Note_on_c, 0, 60, 75
2, 135680, Note_on_c, 0, 64, 78
2, 135680, Note_on_c, 0, 59, 77
2, 136054, Note_on_c, 0, 60, 0
2, 136058, Note_on_c, 0, 64, 0
2, 136075, Note_on_c, 0, 71, 0
2, 136098, Note_on_c, 0, 59, 0
2, 136115, Note_on_c, 0, 66, 0
2, 136320, Note_on_c, 0, 66, 67
2, 136320, Note_on_c, 0, 71, 58
2, 136320, Note_on_c, 0, 59, 67
2, 136320, Note_on_c, 0, 60, 65
2, 136320, Note_on_c, 0, 64, 59
2, 136320, Control_c, 0, 64, 127
2, 136673, Note_on_c, 0, 64, 0
2, 136682, Note_on_c, 0, 60, 0
2, 136694, Note_on_c, 0, 71, 0
2, 136716, Note_on_c, 0, 59, 0
2, 136716, Note_on_c, 0, 66, 0
2, 136960, Control_c, 0, 64, 0
2, 136960, Note_on_c, 0, 66, 69
2, 136960, Note_on_c, 0, 71, 58
2, 136960, Note_on_c, 0, 64, 78
2, 136960, Note_on_c, 0, 59, 66
2, 136960, Note_on_c, 0, 60, 63
2, 136960, Control_c, 0, 64, 127
2, 137248, Note_on_c, 0, 60, 0
2, 137337, Note_on_c, 0, 64, 0
2, 137371, Note_on_c, 0, 66, 0
2, 137383, Note_on_c, 0, 71, 0
2, 137600, Control_c, 0, 64, 0
2, 137600, Note_on_c, 0, 62, 89
2, 137600, Note_on_c, 0, 52, 95
2, 137600, Note_on_c, 0, 56, 90
2, 137600, Note_on_c, 0, 79, 92
2, 137600, Note_on_c, 0, 76, 90
2, 137600, Note_on_c, 0, 72, 90
2, 137600, Note_on_c, 0, 67, 97
2, 137641, Note_on_c, 0, 59, 0
2, 137988, Note_on_c, 0, 67, 0
2, 138009, Note_on_c, 0, 72, 0
2, 138022, Note_on_c, 0, 79, 0
2, 138032, Note_on_c, 0, 56, 0
2, 138038, Note_on_c, 0, 76, 0
2, 138065, Note_on_c, 0, 62, 0
2, 138086, Note_on_c, 0, 52, 0
2, 138240, Note_on_c, 0, 69, 40
2, 138287, Note_on_c, 0, 69, 0
2, 139685, Note_on_c, 0, 69, 101
2, 139694, Note_on_c, 0, 57, 97
2, 139854, Note_on_c, 0, 69, 0
2, 139986, Note_on_c, 0, 57, 0
2, 140182, Note_on_c, 0, 60, 81
2, 140185, Note_on_c, 0, 72, 97
2, 140388, Note_on_c, 0, 72, 0
2, 140572, Note_on_c, 0, 60, 0
2, 140620, Note_on_c, 0, 57, 70
2, 140644, Note_on_c, 0, 69, 74
2, 140945, Note_on_c, 0, 69, 0
2, 140960, Note_on_c, 0, 57, 0
2, 141053, Note_on_c, 0, 55, 39
2, 141073, Note_on_c, 0, 67, 62
2, 141331, Note_on_c, 0, 67, 0
2, 141419, Note_on_c, 0, 55, 0
2, 141544, Note_on_c, 0, 57, 78
2, 141551, Note_on_c, 0, 69, 73
2, 141645, Note_on_c, 0, 57, 0
2, 141671, Note_on_c, 0, 69, 0
2, 142560, Note_on_c, 0, 66, 85
2, 142560, Note_on_c, 0, 61, 92
2, 142560, Note_on_c, 0, 55, 82
2, 142560, Note_on_c, 0, 39, 82
2, 142560, Note_on_c, 0, 51, 81
2, 142893, Note_on_c, 0, 51, 0
2, 142920, Note_on_c, 0, 55, 0
2, 142944, Note_on_c, 0, 39, 0
2, 142973, Note_on_c, 0, 66, 0
2, 142979, Note_on_c, 0, 61, 0
2, 143520, Note_on_c, 0, 65, 78
2, 143520, Note_on_c, 0, 54, 89
2, 143520, Note_on_c, 0, 60, 71
2, 143520, Note_on_c, 0, 50, 84
2, 143520, Note_on_c, 0, 38, 84
2, 144000, Control_c, 0, 64, 127
2, 145241, Note_on_c, 0, 65, 0
2, 145279, Note_on_c, 0, 54, 0
2, 145364, Note_on_c, 0, 60, 0
2, 145440, Note_on_c, 0, 64, 72
2, 145440, Note_on_c, 0, 59, 77
2, 145440, Note_on_c, 0, 53, 58
2, 145440, Note_on_c, 0, 43, 65
2, 145440, Control_c, 0, 64, 0
2, 145502, Note_on_c, 0, 50, 0
2, 145548, Note_on_c, 0, 38, 0
2, 145702, Note_on_c, 0, 53, 0
2, 145716, Note_on_c, 0, 43, 0
2, 145793, Note_on_c, 0, 64, 0
2, 145820, Note_on_c, 0, 59, 0
2, 146823, Note_on_c, 0, 67, 95
2, 146923, Note_on_c, 0, 55, 72
2, 147088, Note_on_c, 0, 67, 0
2, 147318, Note_on_c, 0, 55, 0
2, 147356, Note_on_c, 0, 63, 87
2, 147403, Note_on_c, 0, 51, 77
2, 147524, Note_on_c, 0, 63, 0
2, 147599, Note_on_c, 0, 51, 0
2, 147879, Note_on_c, 0, 50, 73
2, 147889, Note_on_c, 0, 62, 89
2, 147995, Note_on_c, 0, 63, 67
2, 148006, Note_on_c, 0, 62, 0
2, 148135, Note_on_c, 0, 62, 43
2, 148235, Note_on_c, 0, 63, 0
2, 148245, Note_on_c, 0, 50, 0
2, 148350, Note_on_c, 0, 48, 53
2, 148353, Note_on_c, 0, 62, 0
2, 148394, Note_on_c, 0, 60, 48
2, 148534, Note_on_c, 0, 60, 0
2, 148583, Note_on_c, 0, 48, 0
2, 148832, Note_on_c, 0, 62, 77
2, 148861, Note_on_c, 0, 51, 53
2, 148895, Note_on_c, 0, 50, 32
2, 148955, Note_on_c, 0, 62, 0
2, 148956, Note_on_c, 0, 63, 51
2, 148996, Note_on_c, 0, 51, 0
2, 149041, Note_on_c, 0, 50, 0
2, 149202, Note_on_c, 0, 62, 39
2, 149291, Note_on_c, 0, 63, 0
2, 149401, Note_on_c, 0, 50, 41
2, 149402, Note_on_c, 0, 62, 0
2, 149407, Note_on_c, 0, 60, 61
2, 149507, Note_on_c, 0, 60, 0
2, 149729, Note_on_c, 0, 50, 0
2, 149813, Note_on_c, 0, 64, 87
2, 149817, Note_on_c, 0, 52, 69
2, 150094, Note_on_c, 0, 52, 0
2, 150210, Note_on_c, 0, 64, 0
2, 150287, Note_on_c, 0, 67, 78
2, 150462, Note_on_c, 0, 67, 0
2, 151244, Note_on_c, 0, 63, 88
2, 151248, Note_on_c, 0, 47, 86
2, 151251, Note_on_c, 0, 67, 79
2, 151261, Note_on_c, 0, 57, 76
2, 151271, Note_on_c, 0, 55, 77
2, 151318, Note_on_c, 0, 55, 0
2, 152434, Note_on_c, 0, 63, 0
2, 152519, Note_on_c, 0, 67, 0
2, 152523, Note_on_c, 0, 57, 0
2, 152579, Note_on_c, 0, 64, 63
2, 152631, Note_on_c, 0, 47, 0
2, 153151, Note_on_c, 0, 64, 0
2, 153158, Note_on_c, 0, 67, 81
2, 153397, Note_on_c, 0, 67, 0
2, 154306, Note_on_c, 0, 62, 65
2, 154307, Note_on_c, 0, 56, 91
2, 154308, Note_on_c, 0, 67, 76
2, 154311, Note_on_c, 0, 28, 75
2, 154313, Note_on_c, 0, 40, 81
2, 154360, Note_on_c, 0, 35, 37
2, 154421, Note_on_c, 0, 35, 0
2, 154792, Control_c, 0, 64, 127
2, 154964, Note_on_c, 0, 56, 0
2, 155165, Note_on_c, 0, 67, 0
2, 155175, Note_on_c, 0, 62, 0
2, 155499, Control_c, 0, 64, 0
2, 155615, Note_on_c, 0, 28, 0
2, 155620, Note_on_c, 0, 64, 74
2, 155708, Note_on_c, 0, 40, 0
2, 155815, Note_on_c, 0, 64, 0
2, 156088, Note_on_c, 0, 67, 77
2, 156261, Note_on_c, 0, 67, 0
2, 156509, Note_on_c, 0, 69, 61
2, 156752, Note_on_c, 0, 69, 0
2, 156987, Note_on_c, 0, 72, 82
2, 157664, Control_c, 0, 64, 127
2, 157708, Control_c, 0, 64, 0
2, 157713, Note_on_c, 0, 72, 0
2, 157947, Note_on_c, 0, 55, 69
2, 157950, Note_on_c, 0, 61, 74
2, 157957, Note_on_c, 0, 69, 99
2, 157959, Note_on_c, 0, 66, 89
2, 158211, Note_on_c, 0, 55, 0
2, 158287, Note_on_c, 0, 66, 0
2, 158375, Note_on_c, 0, 61, 0
2, 158395, Note_on_c, 0, 69, 0
2, 158414, Note_on_c, 0, 68, 79
2, 158417, Note_on_c, 0, 65, 69
2, 158430, Note_on_c, 0, 54, 67
2, 158437, Note_on_c, 0, 60, 49
2, 158679, Note_on_c, 0, 65, 0
2, 158745, Note_on_c, 0, 60, 0
2, 158840, Note_on_c, 0, 54, 0
2, 158842, Note_on_c, 0, 68, 0
2, 158912, Note_on_c, 0, 64, 78
2, 158914, Note_on_c, 0, 67, 75
2, 158925, Note_on_c, 0, 53, 54
2, 158928, Note_on_c, 0, 59, 73
2, 159101, Note_on_c, 0, 64, 0
2, 159102, Note_on_c, 0, 53, 0
2, 159127, Note_on_c, 0, 67, 0
2, 159176, Note_on_c, 0, 59, 0
2, 159884, Note_on_c, 0, 72, 90
2, 160224, Note_on_c, 0, 72, 0
2, 160329, Note_on_c, 0, 69, 68
2, 160580, Control_c, 0, 64, 127
2, 160624, Control_c, 0, 64, 0
2, 160679, Control_c, 0, 64, 127
2, 160755, Note_on_c, 0, 69, 0
2, 160813, Note_on_c, 0, 67, 70
2, 160869, Control_c, 0, 64, 0
2, 160954, Control_c, 0, 64, 127
2, 161074, Note_on_c, 0, 67, 0
2, 161631, Note_on_c, 0, 39, 34
2, 161634, Control_c, 0, 64, 0
2, 161762, Note_on_c, 0, 64, 47
2, 161786, Note_on_c, 0, 59, 68
2, 161788, Note_on_c, 0, 39, 0
2, 161799, Note_on_c, 0, 43, 46
2, 161822, Note_on_c, 0, 53, 46
2, 161943, Note_on_c, 0, 64, 0
2, 162004, Note_on_c, 0, 59, 0
2, 162087, Note_on_c, 0, 53, 0
2, 162198, Note_on_c, 0, 43, 0
2, 162214, Note_on_c, 0, 63, 40
2, 162241, Note_on_c, 0, 58, 61
2, 162243, Note_on_c, 0, 42, 53
2, 162312, Control_c, 0, 64, 127
2, 162385, Note_on_c, 0, 63, 0
2, 162503, Note_on_c, 0, 58, 0
2, 162701, Control_c, 0, 64, 0
2, 162702, Note_on_c, 0, 42, 0
2, 162711, Note_on_c, 0, 62, 51
2, 162712, Note_on_c, 0, 51, 65
2, 162735, Note_on_c, 0, 57, 69
2, 162747, Note_on_c, 0, 41, 65
2, 162812, Note_on_c, 0, 51, 0
2, 162858, Note_on_c, 0, 57, 0
2, 162882, Note_on_c, 0, 62, 0
2, 162898, Note_on_c, 0, 41, 0
2, 163520, Note_on_c, 0, 64, 70
2, 163666, Note_on_c, 0, 64, 0
2, 164160, Note_on_c, 0, 69, 52
2, 164298, Note_on_c, 0, 69, 0
2, 164480, Note_on_c, 0, 72, 55
2, 164621, Note_on_c, 0, 72, 0
2, 164651, Control_c, 0, 64, 127
2, 164800, Note_on_c, 0, 74, 82
2, 164973, Note_on_c, 0, 74, 0
2, 165026, Control_c, 0, 64, 0
2, 165120, Note_on_c, 0, 66, 49
2, 165120, Note_on_c, 0, 63, 81
2, 165120, Note_on_c, 0, 57, 87
2, 165120, Note_on_c, 0, 68, 71
2, 165120, Note_on_c, 0, 75, 93
2, 165168, Note_on_c, 0, 66, 0
2, 165356, Note_on_c, 0, 75, 0
2, 165440, Note_on_c, 0, 74, 65
2, 165660, Note_on_c, 0, 74, 0
2, 165760, Note_on_c, 0, 72, 70
2, 165811, Note_on_c, 0, 68, 0
2, 166029, Note_on_c, 0, 72, 0
2, 166036, Control_c, 0, 64, 127
2, 166080, Note_on_c, 0, 69, 61
2, 166108, Control_c, 0, 64, 0
2, 166238, Note_on_c, 0, 69, 0
2, 166363, Note_on_c, 0, 57, 0
2, 166400, Note_on_c, 0, 67, 41
2, 166490, Note_on_c, 0, 63, 0
2, 166495, Note_on_c, 0, 67, 0
2, 166628, Control_c, 0, 64, 127
2, 166720, Note_on_c, 0, 64, 73
2, 166959, Control_c, 0, 64, 0
2, 167040, Note_on_c, 0, 64, 0
2, 167040, Note_on_c, 0, 62, 81
2, 167360, Note_on_c, 0, 62, 0
2, 167360, Note_on_c, 0, 60, 60
2, 167680, Note_on_c, 0, 60, 0
2, 167680, Note_on_c, 0, 57, 70
2, 167960, Note_on_c, 0, 55, 61
2, 167980, Note_on_c, 0, 57, 0
2, 168280, Note_on_c, 0, 55, 0
2, 168640, Note_on_c, 0, 57, 110
2, 168640, Note_on_c, 0, 45, 83
2, 168816, Note_on_c, 0, 45, 0
2, 168897, Note_on_c, 0, 57, 0
2, 169976, Note_on_c, 0, 28, 58
2, 169977, Note_on_c, 0, 62, 62
2, 169984, Note_on_c, 0, 56, 79
2, 169991, Note_on_c, 0, 40, 57
2, 170003, Note_on_c, 0, 67, 53
2, 171118, Note_on_c, 0, 56, 0
2, 171207, Note_on_c, 0, 62, 0
2, 171247, Note_on_c, 0, 67, 0
2, 171469, Note_on_c, 0, 76, 69
2, 171636, Note_on_c, 0, 76, 0
2, 171735, Note_on_c, 0, 28, 0
2, 171829, Note_on_c, 0, 40, 0
2, 171840, Note_on_c, 0, 79, 81
2, 172046, Note_on_c, 0, 79, 0
2, 172080, Note_on_c, 0, 81, 73
2, 172273, Note_on_c, 0, 81, 0
2, 172320, Note_on_c, 0, 79, 41
2, 172532, Note_on_c, 0, 79, 0
2, 172560, Note_on_c, 0, 76, 64
2, 172758, Note_on_c, 0, 76, 0
2, 172800, Note_on_c, 0, 81, 115
2, 173280, Note_on_c, 0, 64, 48
2, 173280, Note_on_c, 0, 60, 40
2, 173280, Note_on_c, 0, 55, 38
2, 173442, Note_on_c, 0, 64, 0
2, 173446, Note_on_c, 0, 60, 0
2, 173450, Note_on_c, 0, 55, 0
2, 174240, Note_on_c, 0, 64, 54
2, 174240, Note_on_c, 0, 55, 42
2, 174240, Note_on_c, 0, 60, 39
2, 174322, Note_on_c, 0, 60, 0
2, 174398, Note_on_c, 0, 64, 0
2, 174404, Note_on_c, 0, 55, 0
2, 175200, Note_on_c, 0, 64, 51
2, 175200, Note_on_c, 0, 60, 43
2, 175200, Note_on_c, 0, 54, 50
2, 175340, Note_on_c, 0, 64, 0
2, 175364, Note_on_c, 0, 60, 0
2, 175384, Note_on_c, 0, 54, 0
2, 176160, Note_on_c, 0, 62, 52
2, 176160, Note_on_c, 0, 59, 45
2, 176160, Note_on_c, 0, 54, 45
2, 176280, Note_on_c, 0, 59, 0
2, 176280, Note_on_c, 0, 62, 0
2, 176314, Note_on_c, 0, 54, 0
2, 176782, Note_on_c, 0, 81, 0
2, 177120, Note_on_c, 0, 81, 106
2, 177120, Note_on_c, 0, 62, 43
2, 177120, Note_on_c, 0, 59, 48
2, 177120, Note_on_c, 0, 53, 27
2, 177228, Note_on_c, 0, 53, 0
2, 177280, Note_on_c, 0, 62, 0
2, 177378, Note_on_c, 0, 59, 0
2, 177600, Note_on_c, 0, 79, 63
2, 177790, Note_on_c, 0, 79, 0
2, 177796, Note_on_c, 0, 81, 0
2, 178080, Note_on_c, 0, 52, 37
2, 178080, Note_on_c, 0, 75, 76
2, 178080, Note_on_c, 0, 62, 47
2, 178080, Note_on_c, 0, 59, 43
2, 178234, Note_on_c, 0, 62, 0
2, 178266, Note_on_c, 0, 59, 0
2, 178268, Note_on_c, 0, 52, 0
2, 178396, Note_on_c, 0, 75, 0
2, 178560, Note_on_c, 0, 74, 73
2, 178952, Note_on_c, 0, 74, 0
2, 179040, Note_on_c, 0, 72, 65
2, 179040, Note_on_c, 0, 62, 45
2, 179040, Note_on_c, 0, 59, 49
2, 179040, Note_on_c, 0, 52, 47
2, 179182, Note_on_c, 0, 62, 0
2, 179192, Note_on_c, 0, 59, 0
2, 179242, Note_on_c, 0, 52, 0
2, 179330, Note_on_c, 0, 72, 0
2, 179520, Note_on_c, 0, 74, 60
2, 179916, Note_on_c, 0, 74, 0
2, 180000, Note_on_c, 0, 57, 52
2, 180000, Note_on_c, 0, 51, 45
2, 180000, Note_on_c, 0, 72, 55
2, 180000, Note_on_c, 0, 62, 49
2, 180124, Note_on_c, 0, 72, 0
2, 180142, Note_on_c, 0, 57, 0
2, 180148, Note_on_c, 0, 62, 0
2, 180186, Note_on_c, 0, 51, 0
2, 180480, Note_on_c, 0, 76, 79
2, 180960, Note_on_c, 0, 62, 50
2, 180960, Note_on_c, 0, 57, 54
2, 180960, Note_on_c, 0, 51, 49
2, 181040, Note_on_c, 0, 51, 0
2, 181080, Note_on_c, 0, 57, 0
2, 181082, Note_on_c, 0, 76, 0
2, 181102, Note_on_c, 0, 62, 0
2, 181920, Note_on_c, 0, 52, 51
2, 181920, Note_on_c, 0, 56, 54
2, 181920, Note_on_c, 0, 72, 85
2, 181920, Note_on_c, 0, 62, 49
2, 182062, Note_on_c, 0, 62, 0
2, 182092, Note_on_c, 0, 52, 0
2, 182094, Note_on_c, 0, 56, 0
2, 182212, Note_on_c, 0, 72, 0
2, 182400, Note_on_c, 0, 69, 62
2, 182866, Note_on_c, 0, 69, 0
2, 182880, Note_on_c, 0, 67, 55
2, 182880, Note_on_c, 0, 62, 48
2, 182880, Note_on_c, 0, 56, 55
2, 182880, Note_on_c, 0, 52, 39
2, 182978, Note_on_c, 0, 52, 0
2, 183004, Note_on_c, 0, 62, 0
2, 183024, Note_on_c, 0, 56, 0
2, 183146, Note_on_c, 0, 67, 0
2, 183360, Note_on_c, 0, 69, 79
2, 183736, Note_on_c, 0, 69, 0
2, 183840, Note_on_c, 0, 60, 46
2, 183840, Note_on_c, 0, 57, 56
2, 183840, Note_on_c, 0, 64, 54
2, 183840, Note_on_c, 0, 69, 106
2, 183910, Note_on_c, 0, 60, 0
2, 183974, Note_on_c, 0, 64, 0
2, 183986, Note_on_c, 0, 57, 0
2, 184268, Note_on_c, 0, 69, 0
2, 184800, Note_on_c, 0, 64, 55
2, 184800, Note_on_c, 0, 60, 47
2, 184800, Note_on_c, 0, 57, 53
2, 184898, Note_on_c, 0, 60, 0
2, 184952, Note_on_c, 0, 64, 0
2, 184972, Note_on_c, 0, 57, 0
2, 185760, Note_on_c, 0, 60, 50
2, 185760, Note_on_c, 0, 64, 60
2, 185760, Note_on_c, 0, 57, 57
2, 185850, Note_on_c, 0, 60, 0
2, 185908, Note_on_c, 0, 64, 0
2, 185926, Note_on_c, 0, 57, 0
2, 186720, Note_on_c, 0, 60, 52
2, 186720, Note_on_c, 0, 76, 70
2, 186720, Note_on_c, 0, 64, 61
2, 186720, Note_on_c, 0, 57, 57
2, 186844, Note_on_c, 0, 60, 0
2, 186860, Note_on_c, 0, 64, 0
2, 186896, Note_on_c, 0, 57, 0
2, 187034, Note_on_c, 0, 76, 0
2, 187200, Note_on_c, 0, 79, 82
2, 187440, Note_on_c, 0, 81, 79
2, 187648, Note_on_c, 0, 81, 0
2, 187680, Note_on_c, 0, 65, 60
2, 187680, Note_on_c, 0, 69, 58
2, 187680, Note_on_c, 0, 79, 55
2, 187680, Note_on_c, 0, 60, 48
2, 187750, Note_on_c, 0, 60, 0
2, 187820, Note_on_c, 0, 65, 0
2, 187866, Note_on_c, 0, 69, 0
2, 187916, Note_on_c, 0, 79, 0
2, 187920, Note_on_c, 0, 79, 0
2, 187920, Note_on_c, 0, 76, 71
2, 188108, Note_on_c, 0, 76, 0
2, 188160, Note_on_c, 0, 81, 106
2, 188640, Note_on_c, 0, 65, 49
2, 188640, Note_on_c, 0, 69, 62
2, 188640, Note_on_c, 0, 60, 47
2, 188724, Note_on_c, 0, 60, 0
2, 188782, Note_on_c, 0, 69, 0
2, 188792, Note_on_c, 0, 65, 0
2, 189600, Note_on_c, 0, 59, 54
2, 189600, Note_on_c, 0, 65, 43
2, 189600, Note_on_c, 0, 69, 55
2, 189742, Note_on_c, 0, 69, 0
2, 189752, Note_on_c, 0, 59, 0
2, 189758, Note_on_c, 0, 81, 0
2, 189768, Note_on_c, 0, 65, 0
2, 190560, Note_on_c, 0, 69, 59
2, 190560, Note_on_c, 0, 65, 41
2, 190560, Note_on_c, 0, 59, 39
2, 190690, Note_on_c, 0, 59, 0
2, 190708, Note_on_c, 0, 65, 0
2, 190720, Note_on_c, 0, 69, 0
2, 191520, Note_on_c, 0, 60, 43
2, 191520, Note_on_c, 0, 67, 46
2, 191520, Note_on_c, 0, 71, 59
2, 191598, Note_on_c, 0, 60, 0
2, 191688, Note_on_c, 0, 71, 0
2, 191696, Note_on_c, 0, 67, 0
2, 192480, Note_on_c, 0, 81, 97
2, 192480, Note_on_c, 0, 71, 52
2, 192480, Note_on_c, 0, 67, 42
2, 192480, Note_on_c, 0, 60, 37
2, 192562, Note_on_c, 0, 60, 0
2, 192572, Note_on_c, 0, 71, 0
2, 192582, Note_on_c, 0, 67, 0
2, 192856, Note_on_c, 0, 81, 0
2, 192960, Note_on_c, 0, 79, 31
2, 193296, Note_on_c, 0, 79, 0
2, 193440, Note_on_c, 0, 57, 57
2, 193440, Note_on_c, 0, 64, 47
2, 193440, Note_on_c, 0, 84, 77
2, 193440, Note_on_c, 0, 60, 49
2, 193514, Note_on_c, 0, 60, 0
2, 193514, Note_on_c, 0, 64, 0
2, 193574, Note_on_c, 0, 57, 0
2, 193784, Note_on_c, 0, 84, 0
2, 193920, Note_on_c, 0, 81, 82
2, 194400, Note_on_c, 0, 60, 49
2, 194400, Note_on_c, 0, 64, 55
2, 194400, Note_on_c, 0, 57, 48
2, 194400, Note_on_c, 0, 53, 28
2, 194496, Note_on_c, 0, 53, 0
2, 194526, Note_on_c, 0, 64, 0
2, 194560, Note_on_c, 0, 60, 0
2, 194594, Note_on_c, 0, 57, 0
2, 194770, Note_on_c, 0, 81, 0
2, 194880, Note_on_c, 0, 79, 44
2, 194880, Note_on_c, 0, 60, 23
2, 194964, Note_on_c, 0, 60, 0
2, 195320, Note_on_c, 0, 79, 0
2, 195360, Note_on_c, 0, 62, 53
2, 195360, Note_on_c, 0, 51, 25
2, 195360, Note_on_c, 0, 83, 98
2, 195360, Note_on_c, 0, 64, 57
2, 195360, Note_on_c, 0, 57, 50
2, 195442, Note_on_c, 0, 51, 0
2, 195444, Note_on_c, 0, 57, 0
2, 195452, Note_on_c, 0, 64, 0
2, 195512, Note_on_c, 0, 62, 0
2, 196320, Note_on_c, 0, 62, 51
2, 196320, Note_on_c, 0, 51, 48
2, 196320, Note_on_c, 0, 57, 52
2, 196462, Note_on_c, 0, 51, 0
2, 196464, Note_on_c, 0, 62, 0
2, 196478, Note_on_c, 0, 57, 0
2, 197280, Note_on_c, 0, 62, 55
2, 197280, Note_on_c, 0, 57, 56
2, 197280, Note_on_c, 0, 51, 54
2, 197412, Note_on_c, 0, 62, 0
2, 197420, Note_on_c, 0, 51, 0
2, 197448, Note_on_c, 0, 57, 0
2, 198240, Note_on_c, 0, 62, 54
2, 198240, Note_on_c, 0, 51, 57
2, 198240, Note_on_c, 0, 57, 59
2, 198360, Note_on_c, 0, 62, 0
2, 198414, Note_on_c, 0, 57, 0
2, 198430, Note_on_c, 0, 51, 0
2, 199176, Note_on_c, 0, 83, 0
2, 199200, Note_on_c, 0, 51, 39
2, 199200, Note_on_c, 0, 57, 49
2, 199294, Note_on_c, 0, 57, 0
2, 199296, Note_on_c, 0, 51, 0
2, 199680, Note_on_c, 0, 62, 60
2, 199680, Note_on_c, 0, 70, 62
2, 199680, Note_on_c, 0, 56, 63
2, 199680, Note_on_c, 0, 82, 58
2, 199680, Note_on_c, 0, 52, 56
2, 199680, Note_on_c, 0, 78, 54
2, 199818, Note_on_c, 0, 62, 0
2, 199838, Note_on_c, 0, 70, 0
2, 199876, Note_on_c, 0, 52, 0
2, 199936, Note_on_c, 0, 56, 0
2, 199952, Note_on_c, 0, 82, 0
2, 199956, Note_on_c, 0, 78, 0
2, 200640, Note_on_c, 0, 82, 61
2, 200640, Note_on_c, 0, 70, 64
2, 200640, Note_on_c, 0, 78, 58
2, 200640, Note_on_c, 0, 62, 62
2, 200640, Note_on_c, 0, 56, 65
2, 200640, Note_on_c, 0, 52, 58
2, 201528, Note_on_c, 0, 70, 0
2, 201604, Note_on_c, 0, 52, 0
2, 201608, Note_on_c, 0, 82, 0
2, 201610, Note_on_c, 0, 78, 0
2, 201660, Note_on_c, 0, 56, 0
2, 201680, Note_on_c, 0, 62, 0
2, 201688, Note_on_c, 0, 71, 115
2, 202177, Note_on_c, 0, 72, 78
2, 202243, Note_on_c, 0, 71, 0
2, 202589, Note_on_c, 0, 72, 0
2, 202627, Note_on_c, 0, 69, 64
2, 203098, Note_on_c, 0, 67, 54
2, 203106, Note_on_c, 0, 69, 0
2, 203478, Note_on_c, 0, 67, 0
2, 203520, Note_on_c, 0, 69, 96
2, 203815, Note_on_c, 0, 69, 0
2, 204000, Note_on_c, 0, 66, 83
2, 204000, Note_on_c, 0, 61, 74
2, 204000, Note_on_c, 0, 55, 75
2, 204000, Note_on_c, 0, 39, 87
2, 204192, Note_on_c, 0, 39, 0
2, 204200, Note_on_c, 0, 66, 0
2, 204213, Note_on_c, 0, 55, 0
2, 204245, Note_on_c, 0, 61, 0
2, 204960, Note_on_c, 0, 65, 67
2, 204960, Note_on_c, 0, 54, 76
2, 204960, Note_on_c, 0, 60, 64
2, 204960, Note_on_c, 0, 38, 78
2, 205181, Note_on_c, 0, 54, 0
2, 205202, Note_on_c, 0, 65, 0
2, 205230, Note_on_c, 0, 38, 0
2, 205240, Note_on_c, 0, 60, 0
2, 205920, Note_on_c, 0, 65, 74
2, 205920, Note_on_c, 0, 32, 77
2, 205920, Note_on_c, 0, 60, 68
2, 205920, Note_on_c, 0, 54, 78
2, 206143, Note_on_c, 0, 32, 0
2, 206154, Note_on_c, 0, 54, 0
2, 206180, Note_on_c, 0, 60, 0
2, 206192, Note_on_c, 0, 65, 0
2, 206880, Note_on_c, 0, 31, 78
2, 206880, Note_on_c, 0, 64, 78
2, 206880, Note_on_c, 0, 59, 67
2, 206880, Note_on_c, 0, 53, 55
2, 206880, Note_on_c, 0, 55, 39
2, 206940, Note_on_c, 0, 55, 0
2, 207381, Note_on_c, 0, 53, 0
2, 207417, Note_on_c, 0, 64, 0
2, 207469, Note_on_c, 0, 59, 0
2, 207573, Note_on_c, 0, 31, 0
2, 207738, Note_on_c, 0, 69, 101
2, 207777, Note_on_c, 0, 71, 43
2, 207836, Note_on_c, 0, 71, 0
2, 208151, Note_on_c, 0, 69, 0
2, 208230, Note_on_c, 0, 67, 66
2, 208399, Note_on_c, 0, 67, 0
2, 208698, Note_on_c, 0, 63, 84
2, 208853, Note_on_c, 0, 63, 0
2, 209192, Note_on_c, 0, 62, 89
2, 209324, Note_on_c, 0, 63, 76
2, 209326, Note_on_c, 0, 62, 0
2, 209496, Note_on_c, 0, 62, 54
2, 209581, Note_on_c, 0, 63, 0
2, 209695, Note_on_c, 0, 60, 60
2, 209704, Note_on_c, 0, 62, 0
2, 209840, Note_on_c, 0, 60, 0
2, 210156, Note_on_c, 0, 62, 89
2, 210302, Note_on_c, 0, 62, 0
2, 210308, Note_on_c, 0, 63, 64
2, 210455, Note_on_c, 0, 62, 48
2, 210551, Note_on_c, 0, 63, 0
2, 210683, Note_on_c, 0, 60, 64
2, 210685, Note_on_c, 0, 62, 0
2, 210814, Note_on_c, 0, 60, 0
2, 211132, Note_on_c, 0, 64, 97
2, 211550, Note_on_c, 0, 64, 0
2, 211618, Note_on_c, 0, 67, 80
2, 211966, Note_on_c, 0, 67, 0
2, 212628, Note_on_c, 0, 35, 73
2, 212630, Note_on_c, 0, 68, 80
2, 212635, Note_on_c, 0, 23, 74
2, 212636, Note_on_c, 0, 63, 82
2, 212642, Note_on_c, 0, 57, 85
2, 213104, Note_on_c, 0, 57, 0
2, 213116, Note_on_c, 0, 23, 0
2, 213130, Note_on_c, 0, 68, 0
2, 213141, Note_on_c, 0, 63, 0
2, 213160, Note_on_c, 0, 35, 0
2, 214105, Note_on_c, 0, 64, 90
2, 214590, Note_on_c, 0, 64, 0
2, 214640, Note_on_c, 0, 67, 94
2, 214717, Note_on_c, 0, 62, 72
2, 214718, Note_on_c, 0, 67, 80
2, 214720, Note_on_c, 0, 56, 93
2, 214910, Note_on_c, 0, 56, 0
2, 214942, Note_on_c, 0, 67, 0
2, 215114, Note_on_c, 0, 67, 0
2, 215115, Note_on_c, 0, 62, 0
2, 216939, Control_c, 0, 64, 0
2, 217060, Note_on_c, 0, 64, 74
2, 217255, Note_on_c, 0, 64, 0
2, 217528, Note_on_c, 0, 67, 77
2, 217701, Note_on_c, 0, 67, 0
2, 217949, Note_on_c, 0, 69, 61
2, 218192, Note_on_c, 0, 69, 0
2, 218427, Note_on_c, 0, 72, 82
2, 219104, Control_c, 0, 64, 127
2, 219148, Control_c, 0, 64, 0
2, 219153, Note_on_c, 0, 72, 0
2, 219387, Note_on_c, 0, 55, 69
2, 219390, Note_on_c, 0, 61, 74
2, 219397, Note_on_c, 0, 69, 99
2, 219399, Note_on_c, 0, 66, 89
2, 219651, Note_on_c, 0, 55, 0
2, 219727, Note_on_c, 0, 66, 0
2, 219815, Note_on_c, 0, 61, 0
2, 219835, Note_on_c, 0, 69, 0
2, 219854, Note_on_c, 0, 68, 79
2, 219857, Note_on_c, 0, 65, 69
2, 219870, Note_on_c, 0, 54, 67
2, 219877, Note_on_c, 0, 60, 49
2, 220119, Note_on_c, 0, 65, 0
2, 220185, Note_on_c, 0, 60, 0
2, 220280, Note_on_c, 0, 54, 0
2, 220282, Note_on_c, 0, 68, 0
2, 220352, Note_on_c, 0, 64, 78
2, 220354, Note_on_c, 0, 67, 75
2, 220365, Note_on_c, 0, 53, 54
2, 220368, Note_on_c, 0, 59, 73
2, 220541, Note_on_c, 0, 64, 0
2, 220542, Note_on_c, 0, 53, 0
2, 220567, Note_on_c, 0, 67, 0
2, 220616, Note_on_c, 0, 59, 0
2, 221324, Note_on_c, 0, 72, 90
2, 221664, Note_on_c, 0, 72, 0
2, 221769, Note_on_c, 0, 69, 68
2, 222020, Control_c, 0, 64, 127
2, 222064, Control_c, 0, 64, 0
2, 222119, Control_c, 0, 64, 127
2, 222195, Note_on_c, 0, 69, 0
2, 222253, Note_on_c, 0, 67, 70
2, 222309, Control_c, 0, 64, 0
2, 222394, Control_c, 0, 64, 127
2, 222514, Note_on_c, 0, 67, 0
2, 223071, Note_on_c, 0, 39, 34
2, 223074, Control_c, 0, 64, 0
2, 223202, Note_on_c, 0, 64, 47
2, 223226, Note_on_c, 0, 59, 68
2, 223228, Note_on_c, 0, 39, 0
2, 223239, Note_on_c, 0, 43, 46
2, 223262, Note_on_c, 0, 53, 46
2, 223383, Note_on_c, 0, 64, 0
2, 223444, Note_on_c, 0, 59, 0
2, 223527, Note_on_c, 0, 53, 0
2, 223638, Note_on_c, 0, 43, 0
2, 223654, Note_on_c, 0, 63, 40
2, 223681, Note_on_c, 0, 58, 61
2, 223683, Note_on_c, 0, 42, 53
2, 223752, Control_c, 0, 64, 127
2, 223825, Note_on_c, 0, 63, 0
2, 223943, Note_on_c, 0, 58, 0
2, 224141, Control_c, 0, 64, 0
2, 224142, Note_on_c, 0, 42, 0
2, 224151, Note_on_c, 0, 62, 51
2, 224152, Note_on_c, 0, 51, 65
2, 224175, Note_on_c, 0, 57, 69
2, 224187, Note_on_c, 0, 41, 65
2, 224252, Note_on_c, 0, 51, 0
2, 224298, Note_on_c, 0, 57, 0
2, 224322, Note_on_c, 0, 62, 0
2, 224338, Note_on_c, 0, 41, 0
2, 224960, Note_on_c, 0, 64, 70
2, 225106, Note_on_c, 0, 64, 0
2, 225600, Note_on_c, 0, 69, 52
2, 225738, Note_on_c, 0, 69, 0
2, 225920, Note_on_c, 0, 72, 55
2, 226061, Note_on_c, 0, 72, 0
2, 226091, Control_c, 0, 64, 127
2, 226240, Note_on_c, 0, 74, 82
2, 226413, Note_on_c, 0, 74, 0
2, 226466, Control_c, 0, 64, 0
2, 226560, Note_on_c, 0, 66, 49
2, 226560, Note_on_c, 0, 63, 81
2, 226560, Note_on_c, 0, 57, 87
2, 226560, Note_on_c, 0, 68, 71
2, 226560, Note_on_c, 0, 75, 93
2, 226608, Note_on_c, 0, 66, 0
2, 226796, Note_on_c, 0, 75, 0
2, 226880, Note_on_c, 0, 74, 65
2, 227100, Note_on_c, 0, 74, 0
2, 227200, Note_on_c, 0, 72, 70
2, 227251, Note_on_c, 0, 68, 0
2, 227469, Note_on_c, 0, 72, 0
2, 227476, Control_c, 0, 64, 127
2, 227520, Note_on_c, 0, 69, 61
2, 227548, Control_c, 0, 64, 0
2, 227678, Note_on_c, 0, 69, 0
2, 227803, Note_on_c, 0, 57, 0
2, 227840, Note_on_c, 0, 67, 41
2, 227930, Note_on_c, 0, 63, 0
2, 227935, Note_on_c, 0, 67, 0
2, 228068, Control_c, 0, 64, 127
2, 228160, Note_on_c, 0, 64, 73
2, 228399, Control_c, 0, 64, 0
2, 228480, Note_on_c, 0, 64, 0
2, 228480, Note_on_c, 0, 62, 81
2, 228800, Note_on_c, 0, 62, 0
2, 228800, Note_on_c, 0, 60, 60
2, 229120, Note_on_c, 0, 60, 0
2, 229120, Note_on_c, 0, 57, 70
2, 229400, Note_on_c, 0, 55, 61
2, 229420, Note_on_c, 0, 57, 0
2, 229720, Note_on_c, 0, 55, 0
2, 230080, Note_on_c, 0, 57, 110
2, 230080, Note_on_c, 0, 45, 83
2, 230256, Note_on_c, 0, 45, 0
2, 230337, Note_on_c, 0, 57, 0
2, 231416, Note_on_c, 0, 28, 58
2, 231417, Note_on_c, 0, 62, 62
2, 231424, Note_on_c, 0, 56, 79
2, 231431, Note_on_c, 0, 40, 57
2, 231443, Note_on_c, 0, 67, 53
2, 232416, Note_on_c, 0, 86, 95
2, 232422, Note_on_c, 0, 93, 95
2, 232558, Note_on_c, 0, 56, 0
2, 232647, Note_on_c, 0, 62, 0
2, 232665, Note_on_c, 0, 93, 0
2, 232687, Note_on_c, 0, 67, 0
2, 232832, Note_on_c, 0, 86, 0
2, 232932, Note_on_c, 0, 84, 53
2, 233104, Note_on_c, 0, 84, 0
2, 233175, Note_on_c, 0, 28, 0
2, 233269, Note_on_c, 0, 40, 0
2, 233442, Note_on_c, 0, 81, 54
2, 233750, Note_on_c, 0, 81, 0
2, 233914, Note_on_c, 0, 79, 38
2, 234240, Note_on_c, 0, 79, 0
2, 234334, Note_on_c, 0, 81, 57
2, 234335, Note_on_c, 0, 64, 41
2, 234354, Note_on_c, 0, 57, 47
2, 234379, Note_on_c, 0, 60, 40
2, 234659, Note_on_c, 0, 81, 0
2, 234814, Note_on_c, 0, 81, 51
2, 234925, Note_on_c, 0, 81, 0
2, 235009, Note_on_c, 0, 57, 0
2, 235123, Note_on_c, 0, 60, 0
2, 235167, Note_on_c, 0, 64, 0
2, 235250, Note_on_c, 0, 55, 39
2, 235381, Note_on_c, 0, 55, 0
2, 235764, Note_on_c, 0, 54, 59
2, 236691, Note_on_c, 0, 64, 45
2, 237067, Note_on_c, 0, 64, 0
2, 237312, Note_on_c, 0, 83, 40
2, 237562, Note_on_c, 0, 83, 0
2, 237591, Note_on_c, 0, 54, 0
2, 237646, Note_on_c, 0, 86, 91
2, 237649, Note_on_c, 0, 74, 82
2, 237664, Note_on_c, 0, 53, 56
2, 238575, Note_on_c, 0, 62, 36
2, 238597, Note_on_c, 0, 83, 53
2, 238599, Note_on_c, 0, 59, 45
2, 238827, Note_on_c, 0, 74, 0
2, 238867, Note_on_c, 0, 86, 0
2, 238900, Note_on_c, 0, 53, 0
2, 238912, Note_on_c, 0, 83, 0
2, 239490, Note_on_c, 0, 52, 73
2, 239780, Note_on_c, 0, 59, 0
2, 240067, Note_on_c, 0, 62, 0
2, 240446, Note_on_c, 0, 62, 43
2, 240450, Note_on_c, 0, 83, 96
2, 240459, Note_on_c, 0, 59, 39
2, 240619, Note_on_c, 0, 83, 0
2, 240982, Note_on_c, 0, 79, 39
2, 241040, Note_on_c, 0, 52, 0
2, 241092, Note_on_c, 0, 79, 0
2, 241346, Note_on_c, 0, 59, 0
2, 241419, Note_on_c, 0, 52, 34
2, 241466, Note_on_c, 0, 76, 45
2, 241613, Note_on_c, 0, 52, 0
2, 241730, Note_on_c, 0, 62, 0
2, 241838, Note_on_c, 0, 76, 0
2, 241916, Note_on_c, 0, 51, 50
2, 241922, Note_on_c, 0, 81, 77
2, 242390, Note_on_c, 0, 75, 53
2, 242396, Note_on_c, 0, 62, 31
2, 242455, Note_on_c, 0, 62, 0
2, 242492, Note_on_c, 0, 81, 0
2, 242534, Note_on_c, 0, 51, 0
2, 242566, Note_on_c, 0, 75, 0
2, 242891, Note_on_c, 0, 69, 29
2, 243168, Note_on_c, 0, 69, 0
2, 243352, Note_on_c, 0, 76, 71
2, 243360, Note_on_c, 0, 53, 45
2, 243506, Note_on_c, 0, 53, 0
2, 244301, Note_on_c, 0, 62, 60
2, 244310, Note_on_c, 0, 51, 70
2, 244316, Note_on_c, 0, 57, 70
2, 244576, Note_on_c, 0, 51, 0
2, 244609, Note_on_c, 0, 62, 0
2, 244646, Note_on_c, 0, 57, 0
2, 244764, Note_on_c, 0, 62, 37
2, 244785, Note_on_c, 0, 51, 34
2, 244819, Note_on_c, 0, 57, 51
2, 244887, Note_on_c, 0, 57, 0
2, 244960, Note_on_c, 0, 51, 0
2, 245015, Note_on_c, 0, 62, 0
2, 245254, Note_on_c, 0, 76, 0
2, 245260, Note_on_c, 0, 62, 69
2, 245272, Note_on_c, 0, 56, 63
2, 245298, Note_on_c, 0, 52, 40
2, 246201, Note_on_c, 0, 67, 43
2, 246311, Note_on_c, 0, 67, 0
2, 246454, Note_on_c, 0, 68, 57
2, 246476, Note_on_c, 0, 56, 0
2, 246506, Note_on_c, 0, 52, 0
2, 246606, Note_on_c, 0, 68, 0
2, 246625, Note_on_c, 0, 62, 0
2, 246693, Note_on_c, 0, 70, 63
2, 246872, Note_on_c, 0, 70, 0
2, 246912, Note_on_c, 0, 71, 73
2, 247068, Note_on_c, 0, 71, 0
2, 247147, Note_on_c, 0, 72, 62
2, 247327, Note_on_c, 0, 72, 0
2, 247403, Note_on_c, 0, 73, 61
2, 247570, Note_on_c, 0, 73, 0
2, 247623, Note_on_c, 0, 56, 61
2, 247626, Note_on_c, 0, 67, 42
2, 247641, Note_on_c, 0, 74, 61
2, 247651, Note_on_c, 0, 62, 39
2, 247813, Note_on_c, 0, 67, 0
2, 247828, Note_on_c, 0, 62, 0
2, 247831, Note_on_c, 0, 74, 0
2, 247868, Note_on_c, 0, 56, 0
2, 247932, Note_on_c, 0, 75, 57
2, 248073, Note_on_c, 0, 75, 0
2, 248145, Note_on_c, 0, 76, 58
2, 248322, Note_on_c, 0, 76, 0
2, 248403, Note_on_c, 0, 77, 57
2, 248538, Note_on_c, 0, 77, 0
2, 248617, Note_on_c, 0, 78, 79
2, 248651, Note_on_c, 0, 67, 42
2, 248666, Note_on_c, 0, 56, 45
2, 248671, Note_on_c, 0, 62, 33
2, 248716, Note_on_c, 0, 78, 0
2, 248958, Note_on_c, 0, 67, 0
2, 249123, Note_on_c, 0, 62, 0
2, 249163, Note_on_c, 0, 83, 91
2, 249177, Note_on_c, 0, 81, 79
2, 249227, Note_on_c, 0, 81, 0
2, 249336, Note_on_c, 0, 83, 0
2, 249382, Note_on_c, 0, 56, 0
2, 249417, Note_on_c, 0, 86, 97
2, 249634, Note_on_c, 0, 84, 81
2, 249665, Note_on_c, 0, 57, 55
2, 249677, Note_on_c, 0, 64, 37
2, 249713, Note_on_c, 0, 86, 0
2, 249849, Note_on_c, 0, 84, 0
2, 249952, Note_on_c, 0, 57, 0
2, 250011, Note_on_c, 0, 64, 0
2, 250149, Note_on_c, 0, 81, 44
2, 250279, Note_on_c, 0, 81, 0
2, 250399, Note_on_c, 0, 84, 81
2, 250561, Note_on_c, 0, 64, 45
2, 250602, Note_on_c, 0, 84, 0
2, 250634, Note_on_c, 0, 57, 32
2, 250636, Note_on_c, 0, 81, 58
2, 250669, Note_on_c, 0, 64, 0
2, 250729, Note_on_c, 0, 57, 0
2, 250747, Note_on_c, 0, 81, 0
2, 251169, Note_on_c, 0, 79, 31
2, 251261, Note_on_c, 0, 79, 0
2, 251552, Note_on_c, 0, 78, 52
2, 251566, Note_on_c, 0, 54, 46
2, 251707, Note_on_c, 0, 54, 0
2, 251984, Note_on_c, 0, 78, 0
2, 252053, Note_on_c, 0, 84, 36
2, 252141, Note_on_c, 0, 84, 0
2, 252454, Note_on_c, 0, 54, 65
2, 252571, Note_on_c, 0, 54, 0
2, 252930, Note_on_c, 0, 53, 45
2, 253974, Note_on_c, 0, 62, 43
2, 253997, Note_on_c, 0, 59, 43
2, 254035, Note_on_c, 0, 62, 0
2, 254070, Note_on_c, 0, 59, 0
2, 254097, Note_on_c, 0, 53, 0
2, 254450, Note_on_c, 0, 83, 62
2, 254526, Note_on_c, 0, 83, 0
2, 254868, Note_on_c, 0, 52, 72
2, 254892, Note_on_c, 0, 86, 96
2, 255272, Note_on_c, 0, 86, 0
2, 255409, Note_on_c, 0, 52, 0
2, 255422, Note_on_c, 0, 83, 53
2, 255594, Note_on_c, 0, 83, 0
2, 255793, Note_on_c, 0, 79, 60
2, 255799, Note_on_c, 0, 62, 36
2, 255802, Note_on_c, 0, 74, 49
2, 255816, Note_on_c, 0, 59, 38
2, 255889, Note_on_c, 0, 74, 0
2, 255906, Note_on_c, 0, 62, 0
2, 255930, Note_on_c, 0, 79, 0
2, 255973, Note_on_c, 0, 59, 0
2, 256266, Note_on_c, 0, 52, 53
2, 256331, Note_on_c, 0, 52, 0
2, 256787, Note_on_c, 0, 52, 70
2, 257175, Note_on_c, 0, 52, 0
2, 257300, Note_on_c, 0, 76, 37
2, 257412, Note_on_c, 0, 76, 0
2, 257756, Note_on_c, 0, 81, 60
2, 257762, Note_on_c, 0, 60, 51
2, 257768, Note_on_c, 0, 57, 58
2, 257815, Note_on_c, 0, 81, 0
2, 257836, Note_on_c, 0, 57, 0
2, 257842, Note_on_c, 0, 60, 0
2, 258227, Note_on_c, 0, 84, 96
2, 258379, Note_on_c, 0, 84, 0
2, 258741, Note_on_c, 0, 83, 91
2, 258744, Note_on_c, 0, 51, 84
2, 258770, Note_on_c, 0, 51, 32
2, 258896, Note_on_c, 0, 51, 0
2, 258914, Note_on_c, 0, 83, 0
2, 259188, Note_on_c, 0, 51, 0
2, 259238, Note_on_c, 0, 81, 52
2, 259359, Note_on_c, 0, 81, 0
2, 259680, Note_on_c, 0, 62, 45
2, 259701, Note_on_c, 0, 79, 56
2, 259718, Note_on_c, 0, 57, 51
2, 259820, Note_on_c, 0, 62, 0
2, 259832, Note_on_c, 0, 79, 0
2, 259859, Note_on_c, 0, 57, 0
2, 260159, Note_on_c, 0, 75, 55
2, 260323, Note_on_c, 0, 75, 0
2, 260631, Note_on_c, 0, 75, 66
2, 261005, Note_on_c, 0, 52, 51
2, 261147, Note_on_c, 0, 52, 0
2, 261519, Note_on_c, 0, 75, 0
2, 261581, Note_on_c, 0, 74, 54
2, 261767, Note_on_c, 0, 74, 0
2, 262080, Note_on_c, 0, 72, 41
2, 262086, Note_on_c, 0, 62, 31
2, 262395, Note_on_c, 0, 72, 0
2, 262519, Note_on_c, 0, 62, 0
2, 262659, Note_on_c, 0, 56, 40
2, 263076, Note_on_c, 0, 62, 42
2, 263083, Note_on_c, 0, 86, 81
2, 263214, Note_on_c, 0, 87, 60
2, 263231, Note_on_c, 0, 86, 0
2, 263326, Note_on_c, 0, 56, 0
2, 263411, Note_on_c, 0, 86, 49
2, 263495, Note_on_c, 0, 87, 0
2, 263627, Note_on_c, 0, 86, 0
2, 263632, Note_on_c, 0, 84, 46
2, 263822, Note_on_c, 0, 83, 59
2, 263828, Note_on_c, 0, 84, 0
2, 263998, Note_on_c, 0, 62, 0
2, 264024, Note_on_c, 0, 83, 0
2, 264087, Note_on_c, 0, 83, 65
2, 264202, Note_on_c, 0, 83, 0
2, 264544, Note_on_c, 0, 80, 68
2, 264619, Note_on_c, 0, 80, 0
2, 264993, Note_on_c, 0, 81, 78
2, 264994, Note_on_c, 0, 57, 54
2, 265391, Note_on_c, 0, 81, 0
2, 265446, Note_on_c, 0, 76, 65
2, 265459, Note_on_c, 0, 64, 37
2, 265514, Note_on_c, 0, 76, 0
2, 265704, Note_on_c, 0, 57, 0
2, 265734, Note_on_c, 0, 64, 0
2, 265899, Note_on_c, 0, 55, 39
2, 266052, Note_on_c, 0, 55, 0
2, 266414, Note_on_c, 0, 54, 46
2, 267364, Note_on_c, 0, 64, 61
2, 267382, Note_on_c, 0, 60, 43
2, 267425, Note_on_c, 0, 64, 0
2, 267443, Note_on_c, 0, 60, 0
2, 267537, Note_on_c, 0, 54, 0
2, 267824, Note_on_c, 0, 73, 78
2, 267830, Note_on_c, 0, 85, 78
2, 267987, Note_on_c, 0, 73, 0
2, 268010, Note_on_c, 0, 85, 0
2, 268065, Note_on_c, 0, 74, 72
2, 268086, Note_on_c, 0, 86, 74
2, 268148, Note_on_c, 0, 86, 0
2, 268156, Note_on_c, 0, 54, 67
2, 268180, Note_on_c, 0, 74, 0
2, 268318, Note_on_c, 0, 86, 72
2, 268343, Note_on_c, 0, 74, 48
2, 268405, Note_on_c, 0, 74, 0
2, 268443, Note_on_c, 0, 86, 0
2, 268528, Note_on_c, 0, 54, 0
2, 268779, Note_on_c, 0, 53, 40
2, 268799, Note_on_c, 0, 86, 61
2, 268805, Note_on_c, 0, 74, 55
2, 268811, Note_on_c, 0, 84, 61
2, 268866, Note_on_c, 0, 84, 0
2, 268869, Note_on_c, 0, 74, 0
2, 268873, Note_on_c, 0, 86, 0
2, 269282, Note_on_c, 0, 73, 76
2, 269294, Note_on_c, 0, 85, 76
2, 269296, Note_on_c, 0, 59, 51
2, 269302, Note_on_c, 0, 62, 39
2, 269588, Note_on_c, 0, 62, 0
2, 269648, Note_on_c, 0, 73, 0
2, 269677, Note_on_c, 0, 85, 0
2, 269735, Note_on_c, 0, 62, 52
2, 269770, Note_on_c, 0, 86, 81
2, 269771, Note_on_c, 0, 74, 71
2, 269895, Note_on_c, 0, 74, 0
2, 269925, Note_on_c, 0, 86, 0
2, 269977, Note_on_c, 0, 53, 0
2, 270080, Note_on_c, 0, 59, 0
2, 270097, Note_on_c, 0, 62, 0
2, 270223, Note_on_c, 0, 52, 71
2, 270244, Note_on_c, 0, 83, 89
2, 270487, Note_on_c, 0, 83, 0
2, 270749, Note_on_c, 0, 79, 42
2, 270977, Note_on_c, 0, 79, 0
2, 271173, Note_on_c, 0, 62, 41
2, 271202, Note_on_c, 0, 76, 56
2, 271206, Note_on_c, 0, 59, 42
2, 271214, Note_on_c, 0, 71, 40
2, 271293, Note_on_c, 0, 71, 0
2, 271319, Note_on_c, 0, 52, 0
2, 271360, Note_on_c, 0, 76, 0
2, 271594, Note_on_c, 0, 62, 0
2, 271675, Note_on_c, 0, 71, 50
2, 271679, Note_on_c, 0, 52, 43
2, 271741, Note_on_c, 0, 71, 0
2, 271789, Note_on_c, 0, 52, 0
2, 272041, Note_on_c, 0, 59, 0
2, 272137, Note_on_c, 0, 53, 67
2, 272646, Note_on_c, 0, 64, 47
2, 272675, Note_on_c, 0, 60, 37
2, 272711, Note_on_c, 0, 64, 0
2, 272796, Note_on_c, 0, 60, 0
2, 273030, Note_on_c, 0, 81, 51
2, 273099, Note_on_c, 0, 81, 0
2, 273245, Note_on_c, 0, 86, 68
2, 273257, Note_on_c, 0, 84, 52
2, 273302, Note_on_c, 0, 64, 44
2, 273307, Note_on_c, 0, 60, 33
2, 273318, Note_on_c, 0, 84, 0
2, 273359, Note_on_c, 0, 86, 0
2, 273374, Note_on_c, 0, 64, 0
2, 273464, Note_on_c, 0, 60, 0
2, 273687, Note_on_c, 0, 60, 45
2, 273693, Note_on_c, 0, 64, 69
2, 273699, Note_on_c, 0, 91, 110
2, 274072, Note_on_c, 0, 91, 0
2, 274090, Note_on_c, 0, 60, 0
2, 274134, Note_on_c, 0, 89, 69
2, 274242, Note_on_c, 0, 64, 0
2, 274274, Note_on_c, 0, 53, 0
2, 274376, Note_on_c, 0, 89, 0
2, 274538, Note_on_c, 0, 51, 40
2, 275060, Note_on_c, 0, 87, 59
2, 275202, Note_on_c, 0, 87, 0
2, 275354, Note_on_c, 0, 84, 84
2, 275479, Note_on_c, 0, 62, 24
2, 275513, Note_on_c, 0, 57, 34
2, 275525, Note_on_c, 0, 84, 0
2, 275578, Note_on_c, 0, 81, 54
2, 275858, Note_on_c, 0, 81, 0
2, 276007, Note_on_c, 0, 79, 55
2, 276154, Note_on_c, 0, 51, 0
2, 276204, Note_on_c, 0, 79, 0
2, 276367, Note_on_c, 0, 57, 0
2, 276473, Note_on_c, 0, 52, 51
2, 276593, Note_on_c, 0, 62, 0
2, 277444, Note_on_c, 0, 91, 103
2, 277451, Note_on_c, 0, 62, 47
2, 277628, Note_on_c, 0, 91, 0
2, 277698, Note_on_c, 0, 90, 76
2, 277875, Note_on_c, 0, 52, 0
2, 277945, Note_on_c, 0, 85, 49
2, 277984, Note_on_c, 0, 90, 0
2, 278197, Note_on_c, 0, 84, 60
2, 278294, Note_on_c, 0, 85, 0
2, 278314, Note_on_c, 0, 84, 0
2, 278376, Note_on_c, 0, 89, 85
2, 278597, Note_on_c, 0, 89, 0
2, 278691, Note_on_c, 0, 83, 38
2, 278759, Note_on_c, 0, 83, 0
2, 278857, Note_on_c, 0, 88, 92
2, 278866, Note_on_c, 0, 56, 69
2, 278898, Note_on_c, 0, 62, 0
2, 279047, Note_on_c, 0, 88, 0
2, 279126, Note_on_c, 0, 87, 78
2, 279255, Note_on_c, 0, 87, 0
2, 279384, Note_on_c, 0, 86, 71
2, 279562, Note_on_c, 0, 67, 41
2, 279565, Note_on_c, 0, 62, 32
2, 279589, Note_on_c, 0, 86, 0
2, 279624, Note_on_c, 0, 85, 40
2, 279700, Note_on_c, 0, 67, 0
2, 279741, Note_on_c, 0, 62, 0
2, 279825, Note_on_c, 0, 85, 0
2, 279863, Note_on_c, 0, 84, 31
2, 280063, Note_on_c, 0, 84, 0
2, 280126, Note_on_c, 0, 83, 54
2, 280214, Note_on_c, 0, 56, 0
2, 280258, Note_on_c, 0, 83, 0
2, 280332, Note_on_c, 0, 86, 81
2, 280348, Note_on_c, 0, 57, 65
2, 280591, Note_on_c, 0, 86, 0
2, 280623, Note_on_c, 0, 83, 60
2, 280726, Note_on_c, 0, 83, 0
2, 280826, Note_on_c, 0, 84, 80
2, 280831, Note_on_c, 0, 64, 49
2, 280877, Note_on_c, 0, 60, 29
2, 281042, Note_on_c, 0, 84, 0
2, 281100, Note_on_c, 0, 81, 73
2, 281156, Note_on_c, 0, 57, 0
2, 281222, Note_on_c, 0, 81, 0
2, 281276, Note_on_c, 0, 55, 37
2, 281311, Note_on_c, 0, 74, 45
2, 281380, Note_on_c, 0, 74, 0
2, 281472, Note_on_c, 0, 60, 0
2, 281521, Note_on_c, 0, 55, 0
2, 281634, Note_on_c, 0, 64, 0
2, 281786, Note_on_c, 0, 54, 71
2, 282780, Note_on_c, 0, 64, 49
2, 282798, Note_on_c, 0, 74, 46
2, 282865, Note_on_c, 0, 74, 0
2, 282924, Note_on_c, 0, 64, 0
2, 283061, Note_on_c, 0, 54, 0
2, 283266, Note_on_c, 0, 53, 53
2, 283538, Note_on_c, 0, 53, 0
2, 283698, Note_on_c, 0, 53, 38
2, 284151, Note_on_c, 0, 62, 45
2, 284164, Note_on_c, 0, 59, 58
2, 284242, Note_on_c, 0, 82, 44
2, 284298, Note_on_c, 0, 82, 0
2, 284318, Note_on_c, 0, 83, 62
2, 284581, Note_on_c, 0, 83, 0
2, 284666, Note_on_c, 0, 86, 91
2, 284672, Note_on_c, 0, 74, 90
2, 284920, Note_on_c, 0, 86, 0
2, 284993, Note_on_c, 0, 53, 0
2, 285000, Note_on_c, 0, 74, 0
2, 285093, Note_on_c, 0, 53, 57
2, 285127, Note_on_c, 0, 74, 61
2, 285136, Note_on_c, 0, 86, 83
2, 285426, Note_on_c, 0, 53, 0
2, 285431, Note_on_c, 0, 74, 0
2, 285455, Note_on_c, 0, 86, 0
2, 285519, Note_on_c, 0, 59, 0
2, 285551, Note_on_c, 0, 62, 0
2, 285583, Note_on_c, 0, 52, 75
2, 285621, Note_on_c, 0, 76, 76
2, 285622, Note_on_c, 0, 88, 83
2, 285814, Note_on_c, 0, 76, 0
2, 285832, Note_on_c, 0, 88, 0
2, 286099, Note_on_c, 0, 91, 73
2, 286104, Note_on_c, 0, 79, 53
2, 286180, Note_on_c, 0, 79, 0
2, 286229, Note_on_c, 0, 91, 0
2, 286549, Note_on_c, 0, 62, 63
2, 286564, Note_on_c, 0, 82, 97
2, 286566, Note_on_c, 0, 59, 57
2, 286567, Note_on_c, 0, 94, 87
2, 286610, Note_on_c, 0, 88, 58
2, 286653, Note_on_c, 0, 95, 81
2, 286654, Note_on_c, 0, 94, 0
2, 286675, Note_on_c, 0, 93, 71
2, 286686, Note_on_c, 0, 83, 81
2, 286688, Note_on_c, 0, 91, 42
2, 286697, Note_on_c, 0, 82, 0
2, 286805, Note_on_c, 0, 83, 0
2, 286846, Note_on_c, 0, 88, 0
2, 286875, Note_on_c, 0, 91, 0
2, 286884, Note_on_c, 0, 95, 0
2, 286899, Note_on_c, 0, 93, 0
2, 286916, Note_on_c, 0, 62, 0
2, 287046, Note_on_c, 0, 62, 61
2, 287055, Note_on_c, 0, 98, 95
2, 287061, Note_on_c, 0, 86, 101
2, 287063, Note_on_c, 0, 91, 98
2, 287078, Note_on_c, 0, 96, 64
2, 287080, Note_on_c, 0, 94, 57
2, 287083, Note_on_c, 0, 95, 88
2, 287130, Note_on_c, 0, 95, 0
2, 287131, Note_on_c, 0, 94, 0
2, 287136, Note_on_c, 0, 96, 0
2, 287332, Note_on_c, 0, 52, 0
2, 287388, Note_on_c, 0, 98, 0
2, 287391, Note_on_c, 0, 91, 0
2, 287407, Note_on_c, 0, 59, 0
2, 287414, Note_on_c, 0, 86, 0
2, 287507, Note_on_c, 0, 53, 61
2, 287514, Note_on_c, 0, 96, 73
2, 287516, Note_on_c, 0, 62, 0
2, 287542, Note_on_c, 0, 91, 75
2, 287542, Note_on_c, 0, 84, 75
2, 287732, Note_on_c, 0, 96, 0
2, 287755, Note_on_c, 0, 91, 0
2, 287823, Note_on_c, 0, 84, 0
2, 288034, Note_on_c, 0, 95, 37
2, 288037, Note_on_c, 0, 93, 41
2, 288077, Note_on_c, 0, 88, 38
2, 288097, Note_on_c, 0, 95, 0
2, 288127, Note_on_c, 0, 93, 0
2, 288142, Note_on_c, 0, 88, 0
2, 288457, Note_on_c, 0, 64, 52
2, 288474, Note_on_c, 0, 89, 47
2, 288487, Note_on_c, 0, 60, 36
2, 288492, Note_on_c, 0, 77, 53
2, 288522, Note_on_c, 0, 84, 57
2, 288639, Note_on_c, 0, 77, 0
2, 288664, Note_on_c, 0, 89, 0
2, 288680, Note_on_c, 0, 53, 0
2, 288688, Note_on_c, 0, 84, 0
2, 288803, Note_on_c, 0, 64, 0
2, 288834, Note_on_c, 0, 60, 0
2, 288936, Note_on_c, 0, 53, 47
2, 289106, Note_on_c, 0, 53, 0
2, 289480, Note_on_c, 0, 51, 83
2, 289539, Note_on_c, 0, 57, 33
2, 289594, Note_on_c, 0, 57, 0
2, 290374, Note_on_c, 0, 57, 43
2, 290877, Note_on_c, 0, 62, 36
2, 291064, Note_on_c, 0, 62, 0
2, 291135, Note_on_c, 0, 63, 64
2, 291319, Note_on_c, 0, 63, 0
2, 291372, Note_on_c, 0, 65, 54
2, 291384, Note_on_c, 0, 51, 0
2, 291647, Note_on_c, 0, 66, 81
2, 291663, Note_on_c, 0, 65, 0
2, 291757, Note_on_c, 0, 57, 0
2, 291767, Note_on_c, 0, 66, 0
2, 291821, Note_on_c, 0, 62, 41
2, 291824, Note_on_c, 0, 52, 39
2, 291836, Note_on_c, 0, 67, 65
2, 292147, Note_on_c, 0, 67, 0
2, 292587, Note_on_c, 0, 62, 0
2, 292775, Note_on_c, 0, 62, 26
2, 292809, Note_on_c, 0, 67, 79
2, 292827, Note_on_c, 0, 59, 31
2, 292973, Note_on_c, 0, 62, 0
2, 293096, Note_on_c, 0, 66, 58
2, 293099, Note_on_c, 0, 67, 0
2, 293213, Note_on_c, 0, 52, 0
2, 293237, Note_on_c, 0, 66, 0
2, 293239, Note_on_c, 0, 59, 0
2, 293319, Note_on_c, 0, 67, 44
2, 293553, Note_on_c, 0, 67, 0
2, 293556, Note_on_c, 0, 68, 77
2, 293629, Note_on_c, 0, 56, 49
2, 293696, Note_on_c, 0, 62, 32
2, 293748, Note_on_c, 0, 68, 0
2, 293780, Note_on_c, 0, 70, 54
2, 293967, Note_on_c, 0, 70, 0
2, 294019, Note_on_c, 0, 71, 74
2, 294093, Note_on_c, 0, 67, 39
2, 294167, Note_on_c, 0, 67, 0
2, 294171, Note_on_c, 0, 71, 0
2, 294245, Note_on_c, 0, 72, 50
2, 294414, Note_on_c, 0, 62, 0
2, 294444, Note_on_c, 0, 72, 0
2, 294505, Note_on_c, 0, 73, 67
2, 294546, Note_on_c, 0, 62, 45
2, 294666, Note_on_c, 0, 73, 0
2, 294775, Note_on_c, 0, 74, 67
2, 294777, Note_on_c, 0, 62, 0
2, 294927, Note_on_c, 0, 74, 0
2, 295023, Note_on_c, 0, 79, 79
2, 295048, Note_on_c, 0, 62, 53
2, 295122, Note_on_c, 0, 62, 0
2, 295184, Note_on_c, 0, 79, 0
2, 295244, Note_on_c, 0, 83, 87
2, 295245, Note_on_c, 0, 56, 0
2, 295297, Note_on_c, 0, 57, 85
2, 295513, Note_on_c, 0, 86, 87
2, 295534, Note_on_c, 0, 83, 0
2, 295773, Note_on_c, 0, 84, 66
2, 295853, Note_on_c, 0, 86, 0
2, 296261, Note_on_c, 0, 64, 53
2, 296270, Note_on_c, 0, 76, 65
2, 296356, Note_on_c, 0, 76, 0
2, 296405, Note_on_c, 0, 84, 0
2, 296555, Note_on_c, 0, 57, 0
2, 297103, Note_on_c, 0, 64, 0
2, 298102, Note_on_c, 0, 60, 48
2, 298529, Note_on_c, 0, 60, 0
2, 298590, Note_on_c, 0, 74, 75
2, 298601, Note_on_c, 0, 60, 34
2, 298604, Note_on_c, 0, 69, 64
2, 298607, Note_on_c, 0, 64, 60
2, 298657, Note_on_c, 0, 54, 36
2, 298660, Note_on_c, 0, 69, 0
2, 298713, Note_on_c, 0, 74, 0
2, 298719, Note_on_c, 0, 54, 0
2, 298950, Note_on_c, 0, 64, 0
2, 298981, Note_on_c, 0, 60, 0
2, 299095, Note_on_c, 0, 71, 95
2, 299101, Note_on_c, 0, 53, 54
2, 299844, Note_on_c, 0, 70, 69
2, 299893, Note_on_c, 0, 71, 0
2, 299985, Note_on_c, 0, 59, 17
2, 300008, Note_on_c, 0, 62, 22
2, 300022, Note_on_c, 0, 70, 0
2, 300043, Note_on_c, 0, 71, 55
2, 300194, Note_on_c, 0, 62, 0
2, 300285, Note_on_c, 0, 72, 64
2, 300286, Note_on_c, 0, 71, 0
2, 300447, Note_on_c, 0, 72, 0
2, 300484, Note_on_c, 0, 73, 63
2, 300520, Note_on_c, 0, 62, 38
2, 300671, Note_on_c, 0, 73, 0
2, 300745, Note_on_c, 0, 74, 38
2, 300900, Note_on_c, 0, 74, 0
2, 300961, Note_on_c, 0, 75, 42
2, 301128, Note_on_c, 0, 53, 0
2, 301186, Note_on_c, 0, 75, 0
2, 301209, Note_on_c, 0, 76, 60
2, 301334, Note_on_c, 0, 76, 0
2, 301416, Note_on_c, 0, 77, 86
2, 301445, Note_on_c, 0, 52, 59
2, 301458, Note_on_c, 0, 62, 0
2, 301537, Note_on_c, 0, 59, 0
2, 301589, Note_on_c, 0, 77, 0
2, 301697, Note_on_c, 0, 75, 63
2, 301788, Note_on_c, 0, 75, 0
2, 301891, Note_on_c, 0, 76, 71
2, 302095, Note_on_c, 0, 76, 0
2, 302177, Note_on_c, 0, 72, 47
2, 302265, Note_on_c, 0, 62, 31
2, 302291, Note_on_c, 0, 72, 0
2, 302360, Note_on_c, 0, 67, 44
2, 302481, Note_on_c, 0, 62, 0
2, 302513, Note_on_c, 0, 67, 0
2, 302852, Note_on_c, 0, 67, 51
2, 302887, Note_on_c, 0, 62, 34
2, 302899, Note_on_c, 0, 52, 0
2, 303363, Note_on_c, 0, 53, 42
2, 303364, Note_on_c, 0, 62, 0
2, 303522, Note_on_c, 0, 67, 0
2, 303915, Note_on_c, 0, 65, 47
2, 303927, Note_on_c, 0, 60, 35
2, 303995, Note_on_c, 0, 65, 0
2, 304165, Note_on_c, 0, 67, 65
2, 304346, Note_on_c, 0, 67, 0
2, 304355, Note_on_c, 0, 69, 66
2, 304553, Note_on_c, 0, 69, 0
2, 304599, Note_on_c, 0, 72, 77
2, 304603, Note_on_c, 0, 60, 0
2, 304682, Note_on_c, 0, 53, 0
2, 304748, Note_on_c, 0, 72, 0
2, 304836, Note_on_c, 0, 71, 67
2, 305012, Note_on_c, 0, 71, 0
2, 305064, Note_on_c, 0, 73, 57
2, 305272, Note_on_c, 0, 75, 69
2, 305296, Note_on_c, 0, 73, 0
2, 305369, Note_on_c, 0, 51, 39
2, 305371, Note_on_c, 0, 62, 32
2, 305401, Note_on_c, 0, 57, 38
2, 305520, Note_on_c, 0, 75, 0
2, 305550, Note_on_c, 0, 78, 59
2, 305657, Note_on_c, 0, 78, 0
2, 305801, Note_on_c, 0, 83, 70
2, 305859, Note_on_c, 0, 83, 0
2, 305939, Note_on_c, 0, 62, 0
2, 306049, Note_on_c, 0, 85, 44
2, 306223, Note_on_c, 0, 62, 41
2, 306239, Note_on_c, 0, 87, 63
2, 306304, Note_on_c, 0, 85, 0
2, 306499, Note_on_c, 0, 90, 76
2, 306518, Note_on_c, 0, 87, 0
2, 306690, Note_on_c, 0, 57, 0
2, 306704, Note_on_c, 0, 90, 0
2, 306822, Note_on_c, 0, 51, 0
2, 306898, Note_on_c, 0, 62, 0
2, 307164, Note_on_c, 0, 52, 43
2, 307315, Note_on_c, 0, 52, 0
2, 307672, Note_on_c, 0, 52, 51
2, 307927, Note_on_c, 0, 52, 0
2, 308654, Note_on_c, 0, 67, 71
2, 308662, Note_on_c, 0, 62, 55
2, 308663, Note_on_c, 0, 56, 78
2, 309191, Note_on_c, 0, 94, 90
2, 309359, Note_on_c, 0, 94, 0
2, 309449, Note_on_c, 0, 91, 75
2, 309496, Note_on_c, 0, 67, 0
2, 309607, Note_on_c, 0, 91, 0
2, 309666, Note_on_c, 0, 89, 72
2, 309789, Note_on_c, 0, 89, 0
2, 309905, Note_on_c, 0, 86, 75
2, 309967, Note_on_c, 0, 65, 47
2, 310052, Note_on_c, 0, 86, 0
2, 310110, Note_on_c, 0, 84, 66
2, 310134, Note_on_c, 0, 65, 0
2, 310244, Note_on_c, 0, 84, 0
2, 310256, Note_on_c, 0, 62, 0
2, 310344, Note_on_c, 0, 82, 74
2, 310358, Note_on_c, 0, 65, 47
2, 310367, Note_on_c, 0, 62, 25
2, 310473, Note_on_c, 0, 62, 0
2, 310502, Note_on_c, 0, 82, 0
2, 310522, Note_on_c, 0, 65, 0
2, 310565, Note_on_c, 0, 79, 49
2, 310615, Note_on_c, 0, 56, 0
2, 310785, Note_on_c, 0, 79, 0
2, 310841, Note_on_c, 0, 77, 47
2, 310914, Note_on_c, 0, 77, 0
2, 311078, Note_on_c, 0, 57, 65
2, 311530, Note_on_c, 0, 57, 0
2, 311551, Note_on_c, 0, 60, 58
2, 311577, Note_on_c, 0, 64, 49
2, 311642, Note_on_c, 0, 64, 0
2, 311694, Note_on_c, 0, 60, 0
2, 312013, Note_on_c, 0, 55, 52
2, 312275, Note_on_c, 0, 55, 0
2, 312503, Note_on_c, 0, 54, 76
2, 313465, Note_on_c, 0, 64, 44
2, 313480, Note_on_c, 0, 60, 36
2, 313541, Note_on_c, 0, 64, 0
2, 313758, Note_on_c, 0, 60, 0
2, 313924, Note_on_c, 0, 60, 40
2, 313956, Note_on_c, 0, 82, 59
2, 313963, Note_on_c, 0, 64, 31
2, 314006, Note_on_c, 0, 60, 0
2, 314021, Note_on_c, 0, 64, 0
2, 314193, Note_on_c, 0, 82, 0
2, 314226, Note_on_c, 0, 83, 60
2, 314354, Note_on_c, 0, 83, 0
2, 314439, Note_on_c, 0, 86, 88
2, 314635, Note_on_c, 0, 86, 0
2, 314670, Note_on_c, 0, 82, 53
2, 314808, Note_on_c, 0, 54, 0
2, 314860, Note_on_c, 0, 82, 0
2, 314921, Note_on_c, 0, 83, 62
2, 314965, Note_on_c, 0, 59, 32
2, 314971, Note_on_c, 0, 62, 31
2, 315029, Note_on_c, 0, 57, 42
2, 315094, Note_on_c, 0, 83, 0
2, 315179, Note_on_c, 0, 86, 82
2, 315345, Note_on_c, 0, 86, 0
2, 315415, Note_on_c, 0, 82, 35
2, 315441, Note_on_c, 0, 59, 0
2, 315445, Note_on_c, 0, 62, 0
2, 315605, Note_on_c, 0, 82, 0
2, 315681, Note_on_c, 0, 83, 43
2, 315757, Note_on_c, 0, 83, 0
2, 315815, Note_on_c, 0, 62, 31
2, 315844, Note_on_c, 0, 86, 81
2, 315853, Note_on_c, 0, 59, 31
2, 316018, Note_on_c, 0, 86, 0
2, 316120, Note_on_c, 0, 82, 43
2, 316135, Note_on_c, 0, 57, 0
2, 316145, Note_on_c, 0, 59, 0
2, 316225, Note_on_c, 0, 62, 0
2, 316254, Note_on_c, 0, 82, 0
2, 316331, Note_on_c, 0, 83, 53
2, 316476, Note_on_c, 0, 83, 0
2, 316561, Note_on_c, 0, 86, 86
2, 316628, Note_on_c, 0, 62, 39
2, 316629, Note_on_c, 0, 52, 36
2, 316631, Note_on_c, 0, 59, 32
2, 316642, Note_on_c, 0, 55, 40
2, 316751, Note_on_c, 0, 86, 0
2, 316824, Note_on_c, 0, 83, 67
2, 316909, Note_on_c, 0, 62, 0
2, 316973, Note_on_c, 0, 83, 0
2, 317026, Note_on_c, 0, 59, 0
2, 317031, Note_on_c, 0, 86, 45
2, 317076, Note_on_c, 0, 79, 62
2, 317146, Note_on_c, 0, 86, 0
2, 317219, Note_on_c, 0, 79, 0
2, 317300, Note_on_c, 0, 76, 40
2, 317444, Note_on_c, 0, 76, 0
2, 317567, Note_on_c, 0, 71, 59
2, 317692, Note_on_c, 0, 59, 19
2, 317696, Note_on_c, 0, 62, 35
2, 317713, Note_on_c, 0, 71, 0
2, 317794, Note_on_c, 0, 67, 39
2, 317880, Note_on_c, 0, 55, 0
2, 317889, Note_on_c, 0, 52, 0
2, 317917, Note_on_c, 0, 59, 0
2, 318098, Note_on_c, 0, 62, 0
2, 318216, Note_on_c, 0, 53, 65
2, 319206, Note_on_c, 0, 67, 0
2, 319226, Note_on_c, 0, 60, 41
2, 319276, Note_on_c, 0, 57, 34
2, 319291, Note_on_c, 0, 60, 0
2, 319343, Note_on_c, 0, 57, 0
2, 319359, Note_on_c, 0, 53, 0
2, 319648, Note_on_c, 0, 52, 58
2, 319932, Note_on_c, 0, 52, 0
2, 320138, Note_on_c, 0, 51, 63
2, 320676, Note_on_c, 0, 63, 57
2, 320876, Note_on_c, 0, 63, 0
2, 320987, Note_on_c, 0, 69, 63
2, 321205, Note_on_c, 0, 71, 75
2, 321223, Note_on_c, 0, 69, 0
2, 321402, Note_on_c, 0, 71, 0
2, 321478, Note_on_c, 0, 74, 92
2, 321536, Note_on_c, 0, 62, 40
2, 321539, Note_on_c, 0, 57, 59
2, 321635, Note_on_c, 0, 74, 0
2, 321721, Note_on_c, 0, 74, 88
2, 321921, Note_on_c, 0, 74, 0
2, 321928, Note_on_c, 0, 51, 0
2, 322126, Note_on_c, 0, 51, 53
2, 322129, Note_on_c, 0, 74, 88
2, 322337, Note_on_c, 0, 57, 0
2, 322363, Note_on_c, 0, 51, 0
2, 322509, Note_on_c, 0, 62, 0
2, 322529, Note_on_c, 0, 74, 0
2, 322589, Note_on_c, 0, 67, 64
2, 322598, Note_on_c, 0, 52, 51
2, 322834, Note_on_c, 0, 67, 0
2, 322840, Note_on_c, 0, 68, 69
2, 322983, Note_on_c, 0, 68, 0
2, 323082, Note_on_c, 0, 70, 66
2, 323252, Note_on_c, 0, 70, 0
2, 323320, Note_on_c, 0, 71, 82
2, 323386, Note_on_c, 0, 62, 41
2, 323428, Note_on_c, 0, 71, 0
2, 323535, Note_on_c, 0, 70, 62
2, 323599, Note_on_c, 0, 52, 0
2, 323776, Note_on_c, 0, 70, 0
2, 323786, Note_on_c, 0, 71, 58
2, 324032, Note_on_c, 0, 73, 53
2, 324065, Note_on_c, 0, 71, 0
2, 324272, Note_on_c, 0, 74, 74
2, 324275, Note_on_c, 0, 73, 0
2, 324410, Note_on_c, 0, 74, 0
2, 324501, Note_on_c, 0, 73, 49
2, 324530, Note_on_c, 0, 56, 43
2, 324550, Note_on_c, 0, 62, 0
2, 324561, Note_on_c, 0, 73, 0
2, 324690, Note_on_c, 0, 75, 43
2, 324790, Note_on_c, 0, 75, 0
2, 324843, Note_on_c, 0, 74, 59
2, 324986, Note_on_c, 0, 74, 0
2, 325011, Note_on_c, 0, 76, 64
2, 325143, Note_on_c, 0, 76, 0
2, 325202, Note_on_c, 0, 77, 83
2, 325362, Note_on_c, 0, 77, 0
2, 325391, Note_on_c, 0, 67, 47
2, 325429, Note_on_c, 0, 62, 31
2, 325436, Note_on_c, 0, 74, 51
2, 325453, Note_on_c, 0, 76, 45
2, 325526, Note_on_c, 0, 76, 0
2, 325529, Note_on_c, 0, 74, 0
2, 325549, Note_on_c, 0, 67, 0
2, 325676, Note_on_c, 0, 77, 64
2, 325687, Note_on_c, 0, 62, 0
2, 325821, Note_on_c, 0, 77, 0
2, 325914, Note_on_c, 0, 78, 62
2, 326082, Note_on_c, 0, 78, 0
2, 326166, Note_on_c, 0, 56, 0
2, 326193, Note_on_c, 0, 79, 34
2, 326322, Note_on_c, 0, 64, 41
2, 326324, Note_on_c, 0, 79, 0
2, 326362, Note_on_c, 0, 57, 42
2, 326386, Note_on_c, 0, 82, 30
2, 326582, Note_on_c, 0, 82, 0
2, 326604, Note_on_c, 0, 83, 57
2, 326756, Note_on_c, 0, 83, 0
2, 326847, Note_on_c, 0, 86, 91
2, 326870, Note_on_c, 0, 64, 0
2, 327082, Note_on_c, 0, 86, 0
2, 327113, Note_on_c, 0, 83, 71
2, 327245, Note_on_c, 0, 83, 0
2, 327332, Note_on_c, 0, 84, 81
2, 327364, Note_on_c, 0, 64, 43
2, 327508, Note_on_c, 0, 84, 0
2, 327586, Note_on_c, 0, 81, 66
2, 327727, Note_on_c, 0, 81, 0
2, 327830, Note_on_c, 0, 74, 54
2, 328067, Note_on_c, 0, 57, 0
2, 328245, Note_on_c, 0, 74, 0
2, 328279, Note_on_c, 0, 64, 0
2, 328292, Note_on_c, 0, 80, 63
2, 328326, Note_on_c, 0, 54, 56
2, 328487, Note_on_c, 0, 80, 0
2, 328569, Note_on_c, 0, 75, 72
2, 328727, Note_on_c, 0, 75, 0
2, 329077, Note_on_c, 0, 68, 69
2, 329247, Note_on_c, 0, 68, 0
2, 329289, Note_on_c, 0, 63, 53
2, 329785, Note_on_c, 0, 63, 0
2, 329823, Note_on_c, 0, 60, 51
2, 329914, Note_on_c, 0, 54, 0
2, 330039, Note_on_c, 0, 60, 0
2, 330770, Note_on_c, 0, 53, 27
2, 330806, Note_on_c, 0, 59, 31
2, 331256, Note_on_c, 0, 53, 0
2, 331267, Note_on_c, 0, 73, 76
2, 331334, Note_on_c, 0, 59, 0
2, 331512, Note_on_c, 0, 68, 58
2, 331545, Note_on_c, 0, 59, 21
2, 331553, Note_on_c, 0, 73, 0
2, 331664, Note_on_c, 0, 68, 0
2, 331728, Note_on_c, 0, 59, 0
2, 331735, Note_on_c, 0, 65, 41
2, 331860, Note_on_c, 0, 65, 0
2, 331992, Note_on_c, 0, 62, 37
2, 332106, Note_on_c, 0, 62, 0
2, 332109, Note_on_c, 0, 52, 37
2, 332126, Note_on_c, 0, 59, 32
2, 332264, Note_on_c, 0, 68, 39
2, 332266, Note_on_c, 0, 59, 0
2, 332269, Note_on_c, 0, 52, 0
2, 332319, Note_on_c, 0, 68, 0
2, 332656, Note_on_c, 0, 65, 86
2, 332918, Note_on_c, 0, 65, 0
2, 332933, Note_on_c, 0, 63, 76
2, 333059, Note_on_c, 0, 63, 0
2, 333140, Note_on_c, 0, 64, 78
2, 333339, Note_on_c, 0, 64, 0
2, 333431, Note_on_c, 0, 60, 65
2, 333564, Note_on_c, 0, 60, 0
2, 333599, Note_on_c, 0, 57, 47
2, 333670, Note_on_c, 0, 52, 50
2, 333676, Note_on_c, 0, 57, 0
2, 334590, Note_on_c, 0, 57, 54
2, 334591, Note_on_c, 0, 60, 34
2, 334742, Note_on_c, 0, 60, 0
2, 334745, Note_on_c, 0, 52, 0
2, 334777, Note_on_c, 0, 57, 0
2, 335035, Note_on_c, 0, 52, 47
2, 335316, Note_on_c, 0, 52, 0
2, 335531, Note_on_c, 0, 51, 65
2, 336461, Note_on_c, 0, 57, 54
2, 336590, Note_on_c, 0, 57, 0
2, 336924, Note_on_c, 0, 59, 57
2, 336962, Note_on_c, 0, 57, 51
2, 337061, Note_on_c, 0, 59, 0
2, 337175, Note_on_c, 0, 60, 60
2, 337350, Note_on_c, 0, 60, 0
2, 337400, Note_on_c, 0, 62, 52
2, 337417, Note_on_c, 0, 51, 0
2, 337608, Note_on_c, 0, 62, 0
2, 337668, Note_on_c, 0, 63, 71
2, 337776, Note_on_c, 0, 57, 0
2, 337853, Note_on_c, 0, 63, 0
2, 337867, Note_on_c, 0, 52, 33
2, 337923, Note_on_c, 0, 65, 80
2, 338312, Note_on_c, 0, 65, 0
2, 338394, Note_on_c, 0, 63, 60
2, 338571, Note_on_c, 0, 63, 0
2, 338636, Note_on_c, 0, 64, 62
2, 338832, Note_on_c, 0, 64, 0
2, 339101, Note_on_c, 0, 65, 72
2, 339144, Note_on_c, 0, 62, 37
2, 339255, Note_on_c, 0, 65, 0
2, 339340, Note_on_c, 0, 67, 68
2, 339700, Note_on_c, 0, 52, 0
2, 339701, Note_on_c, 0, 67, 0
2, 339843, Note_on_c, 0, 56, 57
2, 339914, Note_on_c, 0, 68, 62
2, 340051, Note_on_c, 0, 62, 0
2, 340092, Note_on_c, 0, 68, 0
2, 340205, Note_on_c, 0, 70, 82
2, 340311, Note_on_c, 0, 70, 0
2, 340594, Note_on_c, 0, 71, 65
2, 340629, Note_on_c, 0, 62, 44
2, 340714, Note_on_c, 0, 71, 0
2, 340843, Note_on_c, 0, 56, 0
2, 340851, Note_on_c, 0, 74, 88
2, 341320, Note_on_c, 0, 74, 0
2, 341337, Note_on_c, 0, 57, 64
2, 341339, Note_on_c, 0, 62, 0
2, 341340, Note_on_c, 0, 71, 67
2, 341431, Note_on_c, 0, 71, 0
2, 341611, Note_on_c, 0, 72, 73
2, 341843, Note_on_c, 0, 72, 0
2, 342039, Note_on_c, 0, 69, 61
2, 342064, Note_on_c, 0, 64, 50
2, 342153, Note_on_c, 0, 69, 0
2, 342308, Note_on_c, 0, 60, 12
2, 342737, Note_on_c, 0, 57, 0
2, 342758, Note_on_c, 0, 55, 42
2, 342989, Note_on_c, 0, 55, 0
2, 343237, Note_on_c, 0, 54, 64
2, 343313, Note_on_c, 0, 60, 0
2, 343324, Note_on_c, 0, 64, 0
2, 344154, Note_on_c, 0, 64, 57
2, 344181, Note_on_c, 0, 60, 40
2, 344309, Note_on_c, 0, 64, 0
2, 344517, Note_on_c, 0, 60, 0
2, 344629, Note_on_c, 0, 69, 55
2, 344670, Note_on_c, 0, 64, 49
2, 344695, Note_on_c, 0, 60, 29
2, 344734, Note_on_c, 0, 70, 44
2, 344831, Note_on_c, 0, 69, 0
2, 344850, Note_on_c, 0, 70, 0
2, 344856, Note_on_c, 0, 71, 51
2, 344932, Note_on_c, 0, 54, 0
2, 344994, Note_on_c, 0, 64, 0
2, 345015, Note_on_c, 0, 71, 0
2, 345018, Note_on_c, 0, 60, 0
2, 345125, Note_on_c, 0, 53, 58
2, 345137, Note_on_c, 0, 74, 99
2, 345409, Note_on_c, 0, 74, 0
2, 345633, Note_on_c, 0, 74, 85
2, 345961, Note_on_c, 0, 74, 0
2, 346079, Note_on_c, 0, 67, 50
2, 346090, Note_on_c, 0, 62, 23
2, 346120, Note_on_c, 0, 59, 31
2, 346269, Note_on_c, 0, 62, 0
2, 346326, Note_on_c, 0, 53, 0
2, 346476, Note_on_c, 0, 67, 0
2, 346595, Note_on_c, 0, 53, 25
2, 346762, Note_on_c, 0, 62, 29
2, 346862, Note_on_c, 0, 53, 0
2, 346935, Note_on_c, 0, 62, 0
2, 347026, Note_on_c, 0, 64, 60
2, 347045, Note_on_c, 0, 52, 49
2, 347058, Note_on_c, 0, 59, 0
2, 347738, Note_on_c, 0, 64, 0
2, 348014, Note_on_c, 0, 59, 35
2, 348463, Note_on_c, 0, 74, 95
2, 348473, Note_on_c, 0, 81, 84
2, 348505, Note_on_c, 0, 62, 32
2, 348666, Note_on_c, 0, 81, 0
2, 348668, Note_on_c, 0, 74, 0
2, 348724, Note_on_c, 0, 75, 81
2, 348726, Note_on_c, 0, 81, 35
2, 348843, Note_on_c, 0, 59, 0
2, 348844, Note_on_c, 0, 81, 0
2, 348852, Note_on_c, 0, 52, 0
2, 348931, Note_on_c, 0, 75, 0
2, 348937, Note_on_c, 0, 74, 58
2, 349141, Note_on_c, 0, 74, 0
2, 349174, Note_on_c, 0, 72, 54
2, 349197, Note_on_c, 0, 62, 0
2, 349306, Note_on_c, 0, 72, 0
2, 349314, Note_on_c, 0, 53, 29
2, 349335, Note_on_c, 0, 60, 27
2, 349344, Note_on_c, 0, 57, 37
2, 349521, Note_on_c, 0, 69, 12
2, 349673, Note_on_c, 0, 69, 0
2, 349823, Note_on_c, 0, 60, 0
2, 349922, Note_on_c, 0, 69, 65
2, 350010, Note_on_c, 0, 69, 0
2, 350097, Note_on_c, 0, 57, 0
2, 350405, Note_on_c, 0, 64, 60
2, 350413, Note_on_c, 0, 74, 92
2, 350419, Note_on_c, 0, 81, 86
2, 350430, Note_on_c, 0, 60, 40
2, 350443, Note_on_c, 0, 57, 42
2, 350536, Note_on_c, 0, 60, 0
2, 350538, Note_on_c, 0, 64, 0
2, 350603, Note_on_c, 0, 74, 0
2, 350665, Note_on_c, 0, 75, 72
2, 350703, Note_on_c, 0, 57, 0
2, 350781, Note_on_c, 0, 53, 0
2, 350845, Note_on_c, 0, 81, 0
2, 350899, Note_on_c, 0, 74, 78
2, 350905, Note_on_c, 0, 75, 0
2, 351063, Note_on_c, 0, 74, 0
2, 351200, Note_on_c, 0, 51, 54
2, 351202, Note_on_c, 0, 62, 44
2, 351205, Note_on_c, 0, 72, 59
2, 351231, Note_on_c, 0, 57, 55
2, 351404, Note_on_c, 0, 72, 0
2, 351419, Note_on_c, 0, 57, 0
2, 351430, Note_on_c, 0, 62, 0
2, 351603, Note_on_c, 0, 51, 0
2, 351653, Note_on_c, 0, 71, 72
2, 351754, Note_on_c, 0, 51, 32
2, 351817, Note_on_c, 0, 71, 0
2, 351836, Note_on_c, 0, 51, 0
2, 352096, Note_on_c, 0, 69, 59
2, 352237, Note_on_c, 0, 69, 0
2, 352246, Note_on_c, 0, 51, 25
2, 352340, Note_on_c, 0, 67, 51
2, 352550, Note_on_c, 0, 67, 0
2, 352596, Note_on_c, 0, 62, 26
2, 352609, Note_on_c, 0, 57, 33
2, 352746, Note_on_c, 0, 51, 0
2, 352748, Note_on_c, 0, 57, 0
2, 352807, Note_on_c, 0, 66, 71
2, 353251, Note_on_c, 0, 62, 0
2, 353302, Note_on_c, 0, 52, 31
2, 353807, Note_on_c, 0, 64, 55
2, 353828, Note_on_c, 0, 66, 0
2, 353945, Note_on_c, 0, 64, 0
2, 354119, Note_on_c, 0, 62, 8
2, 354281, Note_on_c, 0, 65, 98
2, 354342, Note_on_c, 0, 62, 0
2, 354675, Note_on_c, 0, 59, 23
2, 354728, Note_on_c, 0, 65, 0
2, 354756, Note_on_c, 0, 62, 41
2, 355131, Note_on_c, 0, 62, 0
2, 355228, Note_on_c, 0, 64, 73
2, 355323, Note_on_c, 0, 59, 0
2, 355336, Note_on_c, 0, 52, 0
2, 355622, Note_on_c, 0, 64, 0
2, 355730, Note_on_c, 0, 59, 42
2, 355747, Note_on_c, 0, 56, 36
2, 355900, Note_on_c, 0, 56, 0
2, 356127, Note_on_c, 0, 59, 0
2, 356177, Note_on_c, 0, 60, 58
2, 356236, Note_on_c, 0, 56, 32
2, 356324, Note_on_c, 0, 56, 0
2, 356584, Note_on_c, 0, 60, 0
2, 356669, Note_on_c, 0, 64, 90
2, 357188, Note_on_c, 0, 57, 55
2, 357644, Note_on_c, 0, 64, 0
2, 357945, Note_on_c, 0, 64, 60
2, 358093, Note_on_c, 0, 64, 0
2, 358150, Note_on_c, 0, 67, 57
2, 358256, Note_on_c, 0, 64, 31
2, 358375, Note_on_c, 0, 64, 0
2, 358510, Note_on_c, 0, 67, 0
2, 358615, Note_on_c, 0, 55, 43
2, 358619, Note_on_c, 0, 71, 74
2, 358825, Note_on_c, 0, 55, 0
2, 358920, Note_on_c, 0, 57, 0
2, 358939, Note_on_c, 0, 71, 0
2, 359104, Note_on_c, 0, 68, 42
2, 359112, Note_on_c, 0, 54, 56
2, 359452, Note_on_c, 0, 68, 0
2, 359582, Note_on_c, 0, 68, 40
2, 359712, Note_on_c, 0, 68, 0
2, 360062, Note_on_c, 0, 64, 43
2, 360095, Note_on_c, 0, 60, 26
2, 360331, Note_on_c, 0, 60, 0
2, 360361, Note_on_c, 0, 54, 0
2, 360375, Note_on_c, 0, 64, 0
2, 360522, Note_on_c, 0, 53, 51
2, 361434, Note_on_c, 0, 64, 56
2, 361480, Note_on_c, 0, 59, 44
2, 362099, Note_on_c, 0, 64, 0
2, 362105, Note_on_c, 0, 53, 0
2, 362386, Note_on_c, 0, 52, 53
2, 362628, Note_on_c, 0, 59, 0
2, 363415, Note_on_c, 0, 78, 84
2, 363420, Note_on_c, 0, 62, 40
2, 363421, Note_on_c, 0, 59, 42
2, 363600, Note_on_c, 0, 78, 0
2, 363675, Note_on_c, 0, 81, 88
2, 363892, Note_on_c, 0, 79, 62
2, 363933, Note_on_c, 0, 81, 0
2, 364020, Note_on_c, 0, 52, 0
2, 364097, Note_on_c, 0, 79, 0
2, 364107, Note_on_c, 0, 59, 0
2, 364149, Note_on_c, 0, 76, 72
2, 364248, Note_on_c, 0, 62, 0
2, 364304, Note_on_c, 0, 76, 0
2, 364342, Note_on_c, 0, 72, 62
2, 364477, Note_on_c, 0, 72, 0
2, 364637, Note_on_c, 0, 67, 42
2, 364701, Note_on_c, 0, 67, 0
2, 364771, Note_on_c, 0, 64, 51
2, 364785, Note_on_c, 0, 53, 34
2, 364797, Note_on_c, 0, 60, 37
2, 364798, Note_on_c, 0, 57, 49
2, 364841, Note_on_c, 0, 76, 83
2, 365072, Note_on_c, 0, 76, 0
2, 365254, Note_on_c, 0, 64, 0
2, 365266, Note_on_c, 0, 72, 62
2, 365318, Note_on_c, 0, 60, 0
2, 365475, Note_on_c, 0, 72, 0
2, 365503, Note_on_c, 0, 57, 0
2, 365561, Note_on_c, 0, 69, 69
2, 365709, Note_on_c, 0, 69, 0
2, 365807, Note_on_c, 0, 65, 43
2, 366064, Note_on_c, 0, 65, 0
2, 366151, Note_on_c, 0, 53, 0
2, 366219, Note_on_c, 0, 65, 54
2, 366344, Note_on_c, 0, 65, 0
2, 366695, Note_on_c, 0, 51, 52
2, 366704, Note_on_c, 0, 62, 35
2, 366765, Note_on_c, 0, 57, 39
2, 366882, Note_on_c, 0, 57, 0
2, 366932, Note_on_c, 0, 62, 0
2, 367022, Note_on_c, 0, 51, 0
2, 367464, Note_on_c, 0, 62, 39
2, 367466, Note_on_c, 0, 51, 46
2, 367481, Note_on_c, 0, 57, 54
2, 367656, Note_on_c, 0, 57, 0
2, 367704, Note_on_c, 0, 51, 0
2, 367762, Note_on_c, 0, 62, 0
2, 368147, Note_on_c, 0, 52, 57
2, 369171, Note_on_c, 0, 76, 54
2, 369180, Note_on_c, 0, 52, 0
2, 369261, Note_on_c, 0, 76, 0
2, 369419, Note_on_c, 0, 80, 69
2, 369559, Note_on_c, 0, 80, 0
2, 369620, Note_on_c, 0, 83, 90
2, 369790, Note_on_c, 0, 83, 0
2, 369910, Note_on_c, 0, 86, 96
2, 369974, Note_on_c, 0, 56, 50
2, 369991, Note_on_c, 0, 67, 38
2, 370024, Note_on_c, 0, 62, 33
2, 370100, Note_on_c, 0, 86, 0
2, 370301, Note_on_c, 0, 86, 98
2, 370460, Note_on_c, 0, 86, 0
2, 370472, Note_on_c, 0, 67, 0
2, 370541, Note_on_c, 0, 86, 91
2, 370667, Note_on_c, 0, 67, 32
2, 370907, Note_on_c, 0, 86, 0
2, 370941, Note_on_c, 0, 67, 0
2, 371007, Note_on_c, 0, 84, 81
2, 371164, Note_on_c, 0, 84, 0
2, 371290, Note_on_c, 0, 84, 87
2, 371324, Note_on_c, 0, 67, 54
2, 371512, Note_on_c, 0, 67, 0
2, 371555, Note_on_c, 0, 84, 0
2, 371611, Note_on_c, 0, 62, 0
2, 371770, Note_on_c, 0, 83, 89
2, 371884, Note_on_c, 0, 83, 0
2, 371985, Note_on_c, 0, 83, 81
2, 372252, Note_on_c, 0, 83, 0
2, 372298, Note_on_c, 0, 56, 0
2, 372499, Note_on_c, 0, 57, 60
2, 372500, Note_on_c, 0, 83, 95
2, 372886, Note_on_c, 0, 83, 0
2, 372982, Note_on_c, 0, 64, 35
2, 372983, Note_on_c, 0, 80, 52
2, 373011, Note_on_c, 0, 60, 31
2, 373126, Note_on_c, 0, 64, 0
2, 373237, Note_on_c, 0, 60, 0
2, 373356, Note_on_c, 0, 80, 0
2, 373458, Note_on_c, 0, 81, 70
2, 373462, Note_on_c, 0, 64, 42
2, 373772, Note_on_c, 0, 57, 0
2, 373900, Note_on_c, 0, 81, 0
2, 373912, Note_on_c, 0, 55, 37
2, 373932, Note_on_c, 0, 76, 60
2, 374091, Note_on_c, 0, 55, 0
2, 374348, Note_on_c, 0, 64, 0
2, 374420, Note_on_c, 0, 54, 67
2, 374643, Note_on_c, 0, 76, 0
2, 374929, Note_on_c, 0, 64, 36
2, 374947, Note_on_c, 0, 60, 31
2, 375385, Note_on_c, 0, 78, 44
2, 375557, Note_on_c, 0, 78, 0
2, 375611, Note_on_c, 0, 54, 0
2, 375861, Note_on_c, 0, 54, 62
2, 375861, Note_on_c, 0, 81, 94
2, 375972, Note_on_c, 0, 60, 0
2, 376238, Note_on_c, 0, 54, 0
2, 376262, Note_on_c, 0, 64, 0
2, 376277, Note_on_c, 0, 81, 0
2, 376352, Note_on_c, 0, 53, 51
2, 376356, Note_on_c, 0, 79, 86
2, 376747, Note_on_c, 0, 79, 0
2, 376799, Note_on_c, 0, 64, 41
2, 376824, Note_on_c, 0, 59, 34
2, 376843, Note_on_c, 0, 74, 44
2, 376907, Note_on_c, 0, 64, 0
2, 377103, Note_on_c, 0, 74, 0
2, 377258, Note_on_c, 0, 64, 41
2, 377299, Note_on_c, 0, 75, 58
2, 377384, Note_on_c, 0, 64, 0
2, 377481, Note_on_c, 0, 53, 0
2, 377553, Note_on_c, 0, 59, 0
2, 377604, Note_on_c, 0, 75, 0
2, 377771, Note_on_c, 0, 52, 61
2, 377782, Note_on_c, 0, 59, 65
2, 377788, Note_on_c, 0, 76, 102
2, 377791, Note_on_c, 0, 55, 57
2, 377799, Note_on_c, 0, 62, 64
2, 378214, Note_on_c, 0, 76, 0
2, 378317, Note_on_c, 0, 62, 0
2, 378331, Note_on_c, 0, 52, 0
2, 378335, Note_on_c, 0, 55, 0
2, 378352, Note_on_c, 0, 59, 0
2, 378880, Note_on_c, 0, 64, 70
2, 379026, Note_on_c, 0, 64, 0
2, 379202, Note_on_c, 0, 69, 52
2, 379340, Note_on_c, 0, 69, 0
2, 379522, Note_on_c, 0, 72, 55
2, 379663, Note_on_c, 0, 72, 0
2, 379693, Control_c, 0, 64, 127
2, 379842, Note_on_c, 0, 74, 82
2, 380015, Note_on_c, 0, 74, 0
2, 380068, Control_c, 0, 64, 0
2, 380162, Note_on_c, 0, 66, 49
2, 380162, Note_on_c, 0, 63, 81
2, 380162, Note_on_c, 0, 57, 87
2, 380162, Note_on_c, 0, 68, 71
2, 380162, Note_on_c, 0, 75, 93
2, 380210, Note_on_c, 0, 66, 0
2, 380398, Note_on_c, 0, 75, 0
2, 380482, Note_on_c, 0, 74, 65
2, 380702, Note_on_c, 0, 74, 0
2, 380802, Note_on_c, 0, 72, 70
2, 380853, Note_on_c, 0, 68, 0
2, 381071, Note_on_c, 0, 72, 0
2, 381078, Control_c, 0, 64, 127
2, 381122, Note_on_c, 0, 69, 61
2, 381150, Control_c, 0, 64, 0
2, 381280, Note_on_c, 0, 69, 0
2, 381405, Note_on_c, 0, 57, 0
2, 381442, Note_on_c, 0, 67, 41
2, 381532, Note_on_c, 0, 63, 0
2, 381537, Note_on_c, 0, 67, 0
2, 381670, Control_c, 0, 64, 127
2, 381762, Note_on_c, 0, 64, 73
2, 382001, Control_c, 0, 64, 0
2, 382082, Note_on_c, 0, 64, 0
2, 382082, Note_on_c, 0, 62, 81
2, 382402, Note_on_c, 0, 62, 0
2, 382402, Note_on_c, 0, 60, 60
2, 382722, Note_on_c, 0, 60, 0
2, 382722, Note_on_c, 0, 57, 70
2, 383002, Note_on_c, 0, 55, 61
2, 383022, Note_on_c, 0, 57, 0
2, 383322, Note_on_c, 0, 55, 0
2, 383682, Note_on_c, 0, 57, 110
2, 383682, Note_on_c, 0, 45, 83
2, 383858, Note_on_c, 0, 45, 0
2, 383939, Note_on_c, 0, 57, 0
2, 385018, Note_on_c, 0, 28, 58
2, 385019, Note_on_c, 0, 62, 62
2, 385026, Note_on_c, 0, 56, 79
2, 385033, Note_on_c, 0, 40, 57
2, 385045, Note_on_c, 0, 67, 53
2, 386160, Note_on_c, 0, 56, 0
2, 386249, Note_on_c, 0, 62, 0
2, 386289, Note_on_c, 0, 67, 0
2, 386464, Note_on_c, 0, 64, 73
2, 386620, Note_on_c, 0, 64, 0
2, 386777, Note_on_c, 0, 28, 0
2, 386871, Note_on_c, 0, 40, 0
2, 386940, Note_on_c, 0, 67, 85
2, 387119, Note_on_c, 0, 69, 71
2, 387202, Note_on_c, 0, 67, 0
2, 387294, Note_on_c, 0, 67, 38
2, 387352, Note_on_c, 0, 69, 0
2, 387479, Note_on_c, 0, 64, 54
2, 387574, Note_on_c, 0, 67, 0
2, 387697, Note_on_c, 0, 64, 0
2, 387895, Note_on_c, 0, 64, 69
2, 387907, Note_on_c, 0, 69, 94
2, 387908, Note_on_c, 0, 60, 52
2, 387911, Note_on_c, 0, 57, 61
2, 387923, Note_on_c, 0, 55, 43
2, 388087, Note_on_c, 0, 69, 0
2, 388123, Note_on_c, 0, 60, 0
2, 388139, Note_on_c, 0, 64, 0
2, 388157, Note_on_c, 0, 55, 0
2, 388190, Note_on_c, 0, 57, 0
2, 390275, Note_on_c, 0, 54, 91
2, 390278, Note_on_c, 0, 64, 94
2, 390280, Note_on_c, 0, 60, 75
2, 390284, Note_on_c, 0, 84, 87
2, 390293, Note_on_c, 0, 72, 85
2, 390654, Note_on_c, 0, 64, 0
2, 390671, Note_on_c, 0, 60, 0
2, 390680, Note_on_c, 0, 84, 0
2, 390692, Note_on_c, 0, 72, 0
2, 390715, Note_on_c, 0, 54, 0
2, 391214, Note_on_c, 0, 81, 87
2, 391217, Note_on_c, 0, 53, 78
2, 391219, Note_on_c, 0, 64, 89
2, 391222, Note_on_c, 0, 59, 83
2, 391226, Note_on_c, 0, 69, 84
2, 391537, Note_on_c, 0, 69, 0
2, 391584, Note_on_c, 0, 81, 0
2, 391618, Note_on_c, 0, 53, 0
2, 391635, Note_on_c, 0, 64, 0
2, 391642, Note_on_c, 0, 59, 0
2, 392165, Note_on_c, 0, 81, 103
2, 392525, Note_on_c, 0, 81, 0
2, 392639, Note_on_c, 0, 79, 74
2, 392651, Note_on_c, 0, 81, 56
2, 392749, Note_on_c, 0, 81, 0
2, 392794, Note_on_c, 0, 79, 0
2, 393096, Note_on_c, 0, 75, 90
2, 393101, Note_on_c, 0, 81, 75
2, 393239, Note_on_c, 0, 81, 0
2, 393246, Note_on_c, 0, 75, 0
2, 393569, Note_on_c, 0, 74, 97
2, 393582, Note_on_c, 0, 81, 83
2, 393742, Note_on_c, 0, 74, 0
2, 393749, Note_on_c, 0, 75, 66
2, 393881, Note_on_c, 0, 74, 51
2, 393973, Note_on_c, 0, 75, 0
2, 393988, Note_on_c, 0, 81, 0
2, 394063, Note_on_c, 0, 74, 0
2, 394074, Note_on_c, 0, 72, 55
2, 394218, Note_on_c, 0, 72, 0
2, 394489, Note_on_c, 0, 74, 97
2, 394512, Note_on_c, 0, 81, 83
2, 394604, Note_on_c, 0, 74, 0
2, 394660, Note_on_c, 0, 75, 63
2, 394770, Note_on_c, 0, 74, 43
2, 394879, Note_on_c, 0, 81, 0
2, 394973, Note_on_c, 0, 75, 0
2, 395058, Note_on_c, 0, 72, 53
2, 395078, Note_on_c, 0, 74, 0
2, 395218, Note_on_c, 0, 72, 0
2, 395504, Note_on_c, 0, 76, 103
2, 395979, Note_on_c, 0, 72, 70
2, 396059, Note_on_c, 0, 76, 0
2, 396455, Note_on_c, 0, 69, 51
2, 396596, Note_on_c, 0, 72, 0
2, 396671, Note_on_c, 0, 69, 0
2, 397438, Control_c, 0, 64, 127
2, 397801, Control_c, 0, 64, 0
2, 397869, Note_on_c, 0, 63, 76
2, 397876, Note_on_c, 0, 57, 82
2, 397883, Note_on_c, 0, 68, 82
2, 397899, Note_on_c, 0, 87, 83
2, 397900, Note_on_c, 0, 82, 85
2, 397902, Note_on_c, 0, 75, 93
2, 397962, Control_c, 0, 64, 127
2, 398092, Note_on_c, 0, 57, 0
2, 398210, Note_on_c, 0, 75, 0
2, 398211, Note_on_c, 0, 63, 0
2, 398216, Note_on_c, 0, 68, 0
2, 398237, Note_on_c, 0, 87, 0
2, 398266, Control_c, 0, 64, 0
2, 398305, Note_on_c, 0, 82, 0
2, 398334, Note_on_c, 0, 88, 75
2, 398335, Note_on_c, 0, 69, 75
2, 398338, Note_on_c, 0, 58, 79
2, 398338, Note_on_c, 0, 64, 61
2, 398350, Note_on_c, 0, 83, 80
2, 398351, Note_on_c, 0, 76, 68
2, 398443, Control_c, 0, 64, 127
2, 398525, Note_on_c, 0, 76, 0
2, 398537, Note_on_c, 0, 69, 0
2, 398547, Note_on_c, 0, 58, 0
2, 398594, Note_on_c, 0, 64, 0
2, 398596, Note_on_c, 0, 83, 0
2, 398623, Note_on_c, 0, 88, 0
2, 398803, Control_c, 0, 64, 0
2, 398885, Note_on_c, 0, 77, 90
2, 398890, Note_on_c, 0, 84, 85
2, 398892, Note_on_c, 0, 59, 73
2, 398892, Note_on_c, 0, 65, 78
2, 398892, Note_on_c, 0, 70, 72
2, 398892, Note_on_c, 0, 89, 81
2, 398939, Note_on_c, 0, 70, 0
2, 398940, Note_on_c, 0, 65, 0
2, 398943, Note_on_c, 0, 59, 0
2, 398996, Note_on_c, 0, 89, 0
2, 399039, Note_on_c, 0, 77, 0
2, 399113, Note_on_c, 0, 84, 0
2, 399813, Note_on_c, 0, 78, 87
2, 399814, Note_on_c, 0, 90, 80
2, 399820, Note_on_c, 0, 85, 78
2, 399828, Note_on_c, 0, 64, 84
2, 399831, Note_on_c, 0, 60, 74
2, 399847, Note_on_c, 0, 71, 56
2, 399895, Note_on_c, 0, 71, 0
2, 399997, Note_on_c, 0, 78, 0
2, 400026, Note_on_c, 0, 64, 0
2, 400042, Note_on_c, 0, 90, 0
2, 400108, Note_on_c, 0, 60, 0
2, 400116, Note_on_c, 0, 85, 0
2, 400836, Note_on_c, 0, 91, 88
2, 400839, Note_on_c, 0, 67, 86
2, 400841, Note_on_c, 0, 61, 76
2, 400844, Note_on_c, 0, 72, 70
2, 400845, Note_on_c, 0, 86, 87
2, 400847, Note_on_c, 0, 79, 79
2, 400973, Note_on_c, 0, 67, 0
2, 401009, Note_on_c, 0, 91, 0
2, 401027, Note_on_c, 0, 72, 0
2, 401041, Note_on_c, 0, 86, 0
2, 401042, Note_on_c, 0, 79, 0
2, 401096, Note_on_c, 0, 61, 0
2, 401844, Note_on_c, 0, 64, 78
2, 401950, Note_on_c, 0, 64, 0
2, 402307, Note_on_c, 0, 67, 89
2, 402407, Note_on_c, 0, 69, 52
2, 402432, Note_on_c, 0, 67, 0
2, 402589, Note_on_c, 0, 67, 41
2, 402616, Note_on_c, 0, 69, 0
2, 402782, Note_on_c, 0, 67, 0
2, 402812, Note_on_c, 0, 64, 49
2, 402983, Note_on_c, 0, 64, 0
2, 403248, Note_on_c, 0, 69, 85
2, 403408, Note_on_c, 0, 69, 0
2, 403793, Note_on_c, 0, 65, 72
2, 403796, Note_on_c, 0, 60, 72
2, 403811, Note_on_c, 0, 50, 54
2, 404180, Note_on_c, 0, 50, 0
2, 404219, Note_on_c, 0, 60, 0
2, 404246, Note_on_c, 0, 65, 0
2, 405084, Note_on_c, 0, 43, 60
2, 405090, Note_on_c, 0, 64, 79
2, 405102, Note_on_c, 0, 59, 79
2, 405103, Note_on_c, 0, 53, 64
2, 405139, Note_on_c, 0, 55, 42
2, 405200, Note_on_c, 0, 55, 0
2, 405364, Control_c, 0, 64, 127
2, 406044, Note_on_c, 0, 43, 0
2, 406051, Note_on_c, 0, 64, 0
2, 406063, Note_on_c, 0, 53, 0
2, 406091, Note_on_c, 0, 59, 0
2, 406547, Control_c, 0, 64, 0
2, 406560, Note_on_c, 0, 52, 69
2, 406602, Note_on_c, 0, 48, 67
2, 406602, Note_on_c, 0, 36, 69
2, 406602, Note_on_c, 0, 63, 76
2, 406602, Note_on_c, 0, 58, 77
2, 406935, Note_on_c, 0, 36, 0
2, 406971, Note_on_c, 0, 58, 0
2, 407001, Note_on_c, 0, 48, 0
2, 407023, Note_on_c, 0, 63, 0
2, 407040, Note_on_c, 0, 52, 0
2, 407620, Note_on_c, 0, 57, 61
2, 407625, Note_on_c, 0, 69, 94
2, 407630, Note_on_c, 0, 59, 65
2, 407698, Note_on_c, 0, 59, 0
2, 408319, Note_on_c, 0, 57, 0
2, 408332, Note_on_c, 0, 67, 81
2, 408347, Note_on_c, 0, 55, 64
2, 408411, Note_on_c, 0, 69, 0
2, 408582, Control_c, 0, 64, 127
2, 408777, Note_on_c, 0, 67, 0
2, 408814, Control_c, 0, 64, 0
2, 408889, Note_on_c, 0, 55, 0
2, 408942, Note_on_c, 0, 72, 96
2, 408951, Note_on_c, 0, 60, 80
2, 409523, Note_on_c, 0, 72, 0
2, 409599, Note_on_c, 0, 69, 79
2, 409605, Note_on_c, 0, 57, 78
2, 409695, Note_on_c, 0, 60, 0
2, 410374, Note_on_c, 0, 67, 78
2, 410374, Note_on_c, 0, 55, 61
2, 410438, Note_on_c, 0, 57, 0
2, 410453, Note_on_c, 0, 69, 0
2, 410574, Control_c, 0, 64, 127
2, 410618, Note_on_c, 0, 55, 0
2, 410657, Note_on_c, 0, 67, 0
2, 410863, Control_c, 0, 64, 0
2, 410880, Note_on_c, 0, 71, 75
2, 410880, Note_on_c, 0, 64, 87
2, 410880, Note_on_c, 0, 66, 84
2, 410880, Note_on_c, 0, 60, 83
2, 410880, Note_on_c, 0, 59, 81
2, 411244, Note_on_c, 0, 60, 0
2, 411260, Note_on_c, 0, 71, 0
2, 411302, Note_on_c, 0, 59, 0
2, 411309, Note_on_c, 0, 64, 0
2, 411370, Note_on_c, 0, 66, 0
2, 411520, Note_on_c, 0, 66, 79
2, 411520, Note_on_c, 0, 64, 66
2, 411520, Note_on_c, 0, 59, 78
2, 411520, Note_on_c, 0, 71, 69
2, 411520, Note_on_c, 0, 60, 81
2, 411901, Note_on_c, 0, 60, 0
2, 411913, Note_on_c, 0, 64, 0
2, 411918, Note_on_c, 0, 71, 0
2, 411967, Note_on_c, 0, 59, 0
2, 411969, Note_on_c, 0, 66, 0
2, 412160, Note_on_c, 0, 66, 69
2, 412160, Note_on_c, 0, 71, 68
2, 412160, Note_on_c, 0, 60, 75
2, 412160, Note_on_c, 0, 64, 78
2, 412160, Note_on_c, 0, 59, 77
2, 412534, Note_on_c, 0, 60, 0
2, 412538, Note_on_c, 0, 64, 0
2, 412555, Note_on_c, 0, 71, 0
2, 412578, Note_on_c, 0, 59, 0
2, 412595, Note_on_c, 0, 66, 0
2, 412800, Note_on_c, 0, 66, 67
2, 412800, Note_on_c, 0, 71, 58
2, 412800, Note_on_c, 0, 59, 67
2, 412800, Note_on_c, 0, 60, 65
2, 412800, Note_on_c, 0, 64, 59
2, 412800, Control_c, 0, 64, 127
2, 413153, Note_on_c, 0, 64, 0
2, 413162, Note_on_c, 0, 60, 0
2, 413174, Note_on_c, 0, 71, 0
2, 413196, Note_on_c, 0, 59, 0
2, 413196, Note_on_c, 0, 66, 0
2, 413440, Control_c, 0, 64, 0
2, 413440, Note_on_c, 0, 66, 69
2, 413440, Note_on_c, 0, 71, 58
2, 413440, Note_on_c, 0, 64, 78
2, 413440, Note_on_c, 0, 59, 66
2, 413440, Note_on_c, 0, 60, 63
2, 413440, Control_c, 0, 64, 127
2, 413728, Note_on_c, 0, 60, 0
2, 413817, Note_on_c, 0, 64, 0
2, 413851, Note_on_c, 0, 66, 0
2, 413863, Note_on_c, 0, 71, 0
2, 414080, Control_c, 0, 64, 0
2, 414080, Note_on_c, 0, 62, 89
2, 414080, Note_on_c, 0, 52, 95
2, 414080, Note_on_c, 0, 56, 90
2, 414080, Note_on_c, 0, 79, 92
2, 414080, Note_on_c, 0, 76, 90
2, 414080, Note_on_c, 0, 72, 90
2, 414080, Note_on_c, 0, 67, 97
2, 414121, Note_on_c, 0, 59, 0
2, 414468, Note_on_c, 0, 67, 0
2, 414489, Note_on_c, 0, 72, 0
2, 414502, Note_on_c, 0, 79, 0
2, 414512, Note_on_c, 0, 56, 0
2, 414518, Note_on_c, 0, 76, 0
2, 414545, Note_on_c, 0, 62, 0
2, 414566, Note_on_c, 0, 52, 0
2, 414720, Note_on_c, 0, 69, 40
2, 414767, Note_on_c, 0, 69, 0
2, 416165, Note_on_c, 0, 69, 101
2, 416174, Note_on_c, 0, 57, 97
2, 416334, Note_on_c, 0, 69, 0
2, 416466, Note_on_c, 0, 57, 0
2, 416662, Note_on_c, 0, 60, 81
2, 416665, Note_on_c, 0, 72, 97
2, 416868, Note_on_c, 0, 72, 0
2, 417052, Note_on_c, 0, 60, 0
2, 417100, Note_on_c, 0, 57, 70
2, 417124, Note_on_c, 0, 69, 74
2, 417425, Note_on_c, 0, 69, 0
2, 417440, Note_on_c, 0, 57, 0
2, 417533, Note_on_c, 0, 55, 39
2, 417553, Note_on_c, 0, 67, 62
2, 417811, Note_on_c, 0, 67, 0
2, 417899, Note_on_c, 0, 55, 0
2, 418024, Note_on_c, 0, 57, 78
2, 418031, Note_on_c, 0, 69, 73
2, 418125, Note_on_c, 0, 57, 0
2, 418151, Note_on_c, 0, 69, 0
2, 419040, Note_on_c, 0, 66, 85
2, 419040, Note_on_c, 0, 61, 92
2, 419040, Note_on_c, 0, 55, 82
2, 419040, Note_on_c, 0, 39, 82
2, 419040, Note_on_c, 0, 51, 81
2, 419373, Note_on_c, 0, 51, 0
2, 419400, Note_on_c, 0, 55, 0
2, 419424, Note_on_c, 0, 39, 0
2, 419453, Note_on_c, 0, 66, 0
2, 419459, Note_on_c, 0, 61, 0
2, 420000, Note_on_c, 0, 65, 78
2, 420000, Note_on_c, 0, 54, 89
2, 420000, Note_on_c, 0, 60, 71
2, 420000, Note_on_c, 0, 50, 84
2, 420000, Note_on_c, 0, 38, 84
2, 420480, Control_c, 0, 64, 127
2, 421721, Note_on_c, 0, 65, 0
2, 421759, Note_on_c, 0, 54, 0
2, 421844, Note_on_c, 0, 60, 0
2, 421920, Note_on_c, 0, 64, 72
2, 421920, Note_on_c, 0, 59, 77
2, 421920, Note_on_c, 0, 53, 58
2, 421920, Note_on_c, 0, 43, 65
2, 421920, Control_c, 0, 64, 0
2, 421982, Note_on_c, 0, 50, 0
2, 422028, Note_on_c, 0, 38, 0
2, 422182, Note_on_c, 0, 53, 0
2, 422196, Note_on_c, 0, 43, 0
2, 422273, Note_on_c, 0, 64, 0
2, 422300, Note_on_c, 0, 59, 0
2, 423303, Note_on_c, 0, 67, 95
2, 423403, Note_on_c, 0, 55, 72
2, 423568, Note_on_c, 0, 67, 0
2, 423798, Note_on_c, 0, 55, 0
2, 423836, Note_on_c, 0, 63, 87
2, 423883, Note_on_c, 0, 51, 77
2, 424004, Note_on_c, 0, 63, 0
2, 424079, Note_on_c, 0, 51, 0
2, 424359, Note_on_c, 0, 50, 73
2, 424369, Note_on_c, 0, 62, 89
2, 424475, Note_on_c, 0, 63, 67
2, 424486, Note_on_c, 0, 62, 0
2, 424615, Note_on_c, 0, 62, 43
2, 424715, Note_on_c, 0, 63, 0
2, 424725, Note_on_c, 0, 50, 0
2, 424830, Note_on_c, 0, 48, 53
2, 424833, Note_on_c, 0, 62, 0
2, 424874, Note_on_c, 0, 60, 48
2, 425014, Note_on_c, 0, 60, 0
2, 425063, Note_on_c, 0, 48, 0
2, 425312, Note_on_c, 0, 62, 77
2, 425341, Note_on_c, 0, 51, 53
2, 425375, Note_on_c, 0, 50, 32
2, 425435, Note_on_c, 0, 62, 0
2, 425436, Note_on_c, 0, 63, 51
2, 425476, Note_on_c, 0, 51, 0
2, 425521, Note_on_c, 0, 50, 0
2, 425682, Note_on_c, 0, 62, 39
2, 425771, Note_on_c, 0, 63, 0
2, 425881, Note_on_c, 0, 50, 41
2, 425882, Note_on_c, 0, 62, 0
2, 425887, Note_on_c, 0, 60, 61
2, 425987, Note_on_c, 0, 60, 0
2, 426209, Note_on_c, 0, 50, 0
2, 426293, Note_on_c, 0, 64, 87
2, 426297, Note_on_c, 0, 52, 69
2, 426574, Note_on_c, 0, 52, 0
2, 426690, Note_on_c, 0, 64, 0
2, 426767, Note_on_c, 0, 67, 78
2, 426942, Note_on_c, 0, 67, 0
2, 427724, Note_on_c, 0, 63, 88
2, 427728, Note_on_c, 0, 47, 86
2, 427731, Note_on_c, 0, 67, 79
2, 427741, Note_on_c, 0, 57, 76
2, 427751, Note_on_c, 0, 55, 77
2, 427798, Note_on_c, 0, 55, 0
2, 428914, Note_on_c, 0, 63, 0
2, 428999, Note_on_c, 0, 67, 0
2, 429003, Note_on_c, 0, 57, 0
2, 429059, Note_on_c, 0, 64, 63
2, 429111, Note_on_c, 0, 47, 0
2, 429631, Note_on_c, 0, 64, 0
2, 429638, Note_on_c, 0, 67, 81
2, 429877, Note_on_c, 0, 67, 0
2, 430786, Note_on_c, 0, 62, 65
2, 430787, Note_on_c, 0, 56, 91
2, 430788, Note_on_c, 0, 67, 76
2, 430791, Note_on_c, 0, 28, 75
2, 430793, Note_on_c, 0, 40, 81
2, 430840, Note_on_c, 0, 35, 37
2, 430901, Note_on_c, 0, 35, 0
2, 431272, Control_c, 0, 64, 127
2, 431444, Note_on_c, 0, 56, 0
2, 431645, Note_on_c, 0, 67, 0
2, 431655, Note_on_c, 0, 62, 0
2, 431979, Control_c, 0, 64, 0
2, 432095, Note_on_c, 0, 28, 0
2, 432100, Note_on_c, 0, 64, 74
2, 432188, Note_on_c, 0, 40, 0
2, 432295, Note_on_c, 0, 64, 0
2, 432568, Note_on_c, 0, 67, 77
2, 432741, Note_on_c, 0, 67, 0
2, 432989, Note_on_c, 0, 69, 61
2, 433232, Note_on_c, 0, 69, 0
2, 433467, Note_on_c, 0, 72, 82
2, 434144, Control_c, 0, 64, 127
2, 434188, Control_c, 0, 64, 0
2, 434193, Note_on_c, 0, 72, 0
2, 434427, Note_on_c, 0, 55, 69
2, 434430, Note_on_c, 0, 61, 74
2, 434437, Note_on_c, 0, 69, 99
2, 434439, Note_on_c, 0, 66, 89
2, 434691, Note_on_c, 0, 55, 0
2, 434767, Note_on_c, 0, 66, 0
2, 434855, Note_on_c, 0, 61, 0
2, 434875, Note_on_c, 0, 69, 0
2, 434894, Note_on_c, 0, 68, 79
2, 434897, Note_on_c, 0, 65, 69
2, 434910, Note_on_c, 0, 54, 67
2, 434917, Note_on_c, 0, 60, 49
2, 435159, Note_on_c, 0, 65, 0
2, 435225, Note_on_c, 0, 60, 0
2, 435320, Note_on_c, 0, 54, 0
2, 435322, Note_on_c, 0, 68, 0
2, 435392, Note_on_c, 0, 64, 78
2, 435394, Note_on_c, 0, 67, 75
2, 435405, Note_on_c, 0, 53, 54
2, 435408, Note_on_c, 0, 59, 73
2, 435581, Note_on_c, 0, 64, 0
2, 435582, Note_on_c, 0, 53, 0
2, 435607, Note_on_c, 0, 67, 0
2, 435656, Note_on_c, 0, 59, 0
2, 436364, Note_on_c, 0, 72, 90
2, 436704, Note_on_c, 0, 72, 0
2, 436809, Note_on_c, 0, 69, 68
2, 437060, Control_c, 0, 64, 127
2, 437104, Control_c, 0, 64, 0
2, 437159, Control_c, 0, 64, 127
2, 437235, Note_on_c, 0, 69, 0
2, 437293, Note_on_c, 0, 67, 70
2, 437349, Control_c, 0, 64, 0
2, 437434, Control_c, 0, 64, 127
2, 437554, Note_on_c, 0, 67, 0
2, 438111, Note_on_c, 0, 39, 34
2, 438114, Control_c, 0, 64, 0
2, 438242, Note_on_c, 0, 64, 47
2, 438266, Note_on_c, 0, 59, 68
2, 438268, Note_on_c, 0, 39, 0
2, 438279, Note_on_c, 0, 43, 46
2, 438302, Note_on_c, 0, 53, 46
2, 438423, Note_on_c, 0, 64, 0
2, 438484, Note_on_c, 0, 59, 0
2, 438567, Note_on_c, 0, 53, 0
2, 438678, Note_on_c, 0, 43, 0
2, 438694, Note_on_c, 0, 63, 40
2, 438721, Note_on_c, 0, 58, 61
2, 438723, Note_on_c, 0, 42, 53
2, 438792, Control_c, 0, 64, 127
2, 438865, Note_on_c, 0, 63, 0
2, 438983, Note_on_c, 0, 58, 0
2, 439181, Control_c, 0, 64, 0
2, 439182, Note_on_c, 0, 42, 0
2, 439191, Note_on_c, 0, 62, 51
2, 439192, Note_on_c, 0, 51, 65
2, 439215, Note_on_c, 0, 57, 69
2, 439227, Note_on_c, 0, 41, 65
2, 439292, Note_on_c, 0, 51, 0
2, 439338, Note_on_c, 0, 57, 0
2, 439362, Note_on_c, 0, 62, 0
2, 439378, Note_on_c, 0, 41, 0
2, 440000, Note_on_c, 0, 64, 70
2, 440146, Note_on_c, 0, 64, 0
2, 440640, Note_on_c, 0, 69, 52
2, 440778, Note_on_c, 0, 69, 0
2, 440960, Note_on_c, 0, 72, 55
2, 441101, Note_on_c, 0, 72, 0
2, 441131, Control_c, 0, 64, 127
2, 441280, Note_on_c, 0, 74, 82
2, 441453, Note_on_c, 0, 74, 0
2, 441506, Control_c, 0, 64, 0
2, 441600, Note_on_c, 0, 66, 49
2, 441600, Note_on_c, 0, 63, 81
2, 441600, Note_on_c, 0, 57, 87
2, 441600, Note_on_c, 0, 68, 71
2, 441600, Note_on_c, 0, 75, 93
2, 441648, Note_on_c, 0, 66, 0
2, 441836, Note_on_c, 0, 75, 0
2, 441920, Note_on_c, 0, 74, 65
2, 442140, Note_on_c, 0, 74, 0
2, 442240, Note_on_c, 0, 72, 70
2, 442291, Note_on_c, 0, 68, 0
2, 442509, Note_on_c, 0, 72, 0
2, 442516, Control_c, 0, 64, 127
2, 442560, Note_on_c, 0, 69, 61
2, 442588, Control_c, 0, 64, 0
2, 442718, Note_on_c, 0, 69, 0
2, 442843, Note_on_c, 0, 57, 0
2, 442880, Note_on_c, 0, 67, 41
2, 442970, Note_on_c, 0, 63, 0
2, 442975, Note_on_c, 0, 67, 0
2, 443108, Control_c, 0, 64, 127
2, 443200, Note_on_c, 0, 64, 73
2, 443439, Control_c, 0, 64, 0
2, 443520, Note_on_c, 0, 64, 0
2, 443520, Note_on_c, 0, 62, 81
2, 443840, Note_on_c, 0, 62, 0
2, 443840, Note_on_c, 0, 60, 60
2, 444160, Note_on_c, 0, 60, 0
2, 444160, Note_on_c, 0, 57, 70
2, 444440, Note_on_c, 0, 55, 61
2, 444460, Note_on_c, 0, 57, 0
2, 444760, Note_on_c, 0, 55, 0
2, 445120, Note_on_c, 0, 57, 110
2, 445120, Note_on_c, 0, 45, 83
2, 445296, Note_on_c, 0, 45, 0
2, 445377, Note_on_c, 0, 57, 0
2, 445377, End_track
3, 0, Start_track
3, 0, Title_t, "Bass"
3, 0, Control_c, 1, 0, 0
3, 0, Control_c, 1, 7, 87
3, 1, Control_c, 1, 32, 2
3, 2, Program_c, 1, 32
3, 103680, Note_on_c, 1, 47, 85
3, 105058, Note_on_c, 1, 47, 0
3, 105544, Note_on_c, 1, 40, 81
3, 107152, Note_on_c, 1, 33, 79
3, 107460, Note_on_c, 1, 40, 0
3, 107578, Note_on_c, 1, 33, 0
3, 108608, Note_on_c, 1, 40, 91
3, 111316, Note_on_c, 1, 40, 0
3, 111480, Note_on_c, 1, 33, 72
3, 112000, Note_on_c, 1, 33, 0
3, 113810, Note_on_c, 1, 38, 77
3, 114322, Note_on_c, 1, 38, 0
3, 114766, Note_on_c, 1, 43, 63
3, 115368, Note_on_c, 1, 43, 0
3, 121419, Note_on_c, 1, 35, 65
3, 121832, Note_on_c, 1, 35, 0
3, 121854, Note_on_c, 1, 36, 69
3, 122200, Note_on_c, 1, 36, 0
3, 122412, Note_on_c, 1, 37, 71
3, 122733, Note_on_c, 1, 37, 0
3, 123334, Note_on_c, 1, 38, 79
3, 123694, Note_on_c, 1, 38, 0
3, 124356, Note_on_c, 1, 39, 83
3, 124860, Note_on_c, 1, 39, 0
3, 127344, Note_on_c, 1, 38, 74
3, 127982, Note_on_c, 1, 38, 0
3, 128640, Note_on_c, 1, 43, 68
3, 129630, Note_on_c, 1, 43, 0
3, 130122, Note_on_c, 1, 48, 80
3, 130704, Note_on_c, 1, 48, 0
3, 134400, Note_on_c, 1, 47, 74
3, 137600, Note_on_c, 1, 40, 80
3, 138158, Note_on_c, 1, 47, 0
3, 138794, Note_on_c, 1, 40, 0
3, 142560, Note_on_c, 1, 39, 87
3, 142956, Note_on_c, 1, 39, 0
3, 143520, Note_on_c, 1, 38, 81
3, 144973, Note_on_c, 1, 38, 0
3, 145440, Note_on_c, 1, 43, 72
3, 145961, Note_on_c, 1, 43, 0
3, 151250, Note_on_c, 1, 35, 77
3, 153627, Note_on_c, 1, 35, 0
3, 154308, Note_on_c, 1, 40, 79
3, 155627, Note_on_c, 1, 40, 0
3, 157972, Note_on_c, 1, 45, 77
3, 158383, Note_on_c, 1, 45, 0
3, 158483, Note_on_c, 1, 44, 68
3, 158875, Note_on_c, 1, 43, 71
3, 158896, Note_on_c, 1, 44, 0
3, 160193, Note_on_c, 1, 43, 0
3, 161818, Note_on_c, 1, 31, 57
3, 162166, Note_on_c, 1, 31, 0
3, 162286, Note_on_c, 1, 30, 60
3, 162712, Note_on_c, 1, 30, 0
3, 162796, Note_on_c, 1, 29, 70
3, 163212, Note_on_c, 1, 29, 0
3, 165120, Note_on_c, 1, 35, 72
3, 166518, Note_on_c, 1, 35, 0
3, 167040, Note_on_c, 1, 40, 79
3, 168357, Note_on_c, 1, 40, 0
3, 168645, Note_on_c, 1, 33, 68
3, 168805, Note_on_c, 1, 33, 0
3, 169980, Note_on_c, 1, 28, 71
3, 172207, Note_on_c, 1, 28, 0
3, 172800, Note_on_c, 1, 45, 69
3, 174240, Note_on_c, 1, 38, 67
3, 174316, Note_on_c, 1, 45, 0
3, 175658, Note_on_c, 1, 38, 0
3, 175680, Note_on_c, 1, 43, 64
3, 176074, Note_on_c, 1, 43, 0
3, 176160, Note_on_c, 1, 43, 53
3, 177916, Note_on_c, 1, 43, 0
3, 178080, Note_on_c, 1, 36, 85
3, 179040, Note_on_c, 1, 36, 41
3, 179106, Note_on_c, 1, 36, 0
3, 179385, Note_on_c, 1, 36, 0
3, 179520, Note_on_c, 1, 41, 50
3, 179578, Note_on_c, 1, 41, 0
3, 180000, Note_on_c, 1, 35, 87
3, 181843, Note_on_c, 1, 35, 0
3, 181920, Note_on_c, 1, 40, 80
3, 181920, Note_on_c, 1, 35, 28
3, 181990, Note_on_c, 1, 35, 0
3, 182880, Note_on_c, 1, 35, 54
3, 182914, Note_on_c, 1, 40, 0
3, 183012, Note_on_c, 1, 35, 0
3, 183360, Note_on_c, 1, 33, 65
3, 183638, Note_on_c, 1, 33, 0
3, 183840, Note_on_c, 1, 33, 82
3, 185651, Note_on_c, 1, 33, 0
3, 185760, Note_on_c, 1, 40, 82
3, 187049, Note_on_c, 1, 40, 0
3, 187200, Note_on_c, 1, 38, 59
3, 187536, Note_on_c, 1, 38, 0
3, 187680, Note_on_c, 1, 38, 87
3, 189600, Note_on_c, 1, 43, 65
3, 189687, Note_on_c, 1, 38, 0
3, 190530, Note_on_c, 1, 43, 0
3, 190560, Note_on_c, 1, 38, 50
3, 190709, Note_on_c, 1, 38, 0
3, 191040, Note_on_c, 1, 36, 51
3, 191274, Note_on_c, 1, 36, 0
3, 191520, Note_on_c, 1, 36, 80
3, 193438, Note_on_c, 1, 36, 0
3, 193440, Note_on_c, 1, 41, 80
3, 194400, Note_on_c, 1, 36, 52
3, 194457, Note_on_c, 1, 41, 0
3, 194575, Note_on_c, 1, 36, 0
3, 195360, Note_on_c, 1, 35, 76
3, 197280, Note_on_c, 1, 42, 58
3, 198240, Note_on_c, 1, 39, 74
3, 198255, Note_on_c, 1, 42, 0
3, 198290, Note_on_c, 1, 35, 0
3, 198388, Note_on_c, 1, 39, 0
3, 198720, Note_on_c, 1, 40, 74
3, 199146, Note_on_c, 1, 40, 0
3, 199680, Note_on_c, 1, 40, 77
3, 200013, Note_on_c, 1, 40, 0
3, 200640, Note_on_c, 1, 40, 86
3, 202080, Note_on_c, 1, 35, 50
3, 202217, Note_on_c, 1, 35, 0
3, 202560, Note_on_c, 1, 28, 46
3, 202959, Note_on_c, 1, 28, 0
3, 203071, Note_on_c, 1, 40, 0
3, 204000, Note_on_c, 1, 51, 73
3, 204175, Note_on_c, 1, 51, 0
3, 204960, Note_on_c, 1, 50, 69
3, 205784, Note_on_c, 1, 50, 0
3, 205920, Note_on_c, 1, 44, 76
3, 206660, Note_on_c, 1, 44, 0
3, 206880, Note_on_c, 1, 43, 71
3, 207538, Note_on_c, 1, 43, 0
3, 212668, Note_on_c, 1, 47, 88
3, 214200, Note_on_c, 1, 47, 0
3, 214729, Note_on_c, 1, 40, 85
3, 215398, Note_on_c, 1, 40, 0
3, 219412, Note_on_c, 1, 45, 77
3, 219823, Note_on_c, 1, 45, 0
3, 219923, Note_on_c, 1, 44, 68
3, 220336, Note_on_c, 1, 44, 0
3, 220435, Note_on_c, 1, 43, 71
3, 220793, Note_on_c, 1, 43, 0
3, 223258, Note_on_c, 1, 31, 57
3, 223606, Note_on_c, 1, 31, 0
3, 223726, Note_on_c, 1, 30, 60
3, 224152, Note_on_c, 1, 30, 0
3, 224236, Note_on_c, 1, 29, 70
3, 224652, Note_on_c, 1, 29, 0
3, 226560, Note_on_c, 1, 35, 72
3, 227958, Note_on_c, 1, 35, 0
3, 228480, Note_on_c, 1, 40, 79
3, 229797, Note_on_c, 1, 40, 0
3, 230085, Note_on_c, 1, 33, 68
3, 230245, Note_on_c, 1, 33, 0
3, 231420, Note_on_c, 1, 28, 71
3, 233647, Note_on_c, 1, 28, 0
3, 234240, Note_on_c, 1, 33, 72
3, 235200, Note_on_c, 1, 33, 0
3, 235200, Note_on_c, 1, 38, 52
3, 235647, Note_on_c, 1, 38, 0
3, 235680, Note_on_c, 1, 38, 69
3, 236640, Note_on_c, 1, 38, 0
3, 236640, Note_on_c, 1, 33, 46
3, 236833, Note_on_c, 1, 33, 0
3, 237120, Note_on_c, 1, 43, 67
3, 237563, Note_on_c, 1, 43, 0
3, 237600, Note_on_c, 1, 43, 75
3, 238560, Note_on_c, 1, 38, 37
3, 238623, Note_on_c, 1, 38, 0
3, 238647, Note_on_c, 1, 43, 0
3, 239040, Note_on_c, 1, 36, 64
3, 239463, Note_on_c, 1, 36, 0
3, 239520, Note_on_c, 1, 36, 72
3, 240950, Note_on_c, 1, 36, 0
3, 240960, Note_on_c, 1, 43, 55
3, 241440, Note_on_c, 1, 41, 71
3, 241496, Note_on_c, 1, 43, 0
3, 242880, Note_on_c, 1, 36, 34
3, 242937, Note_on_c, 1, 41, 0
3, 243360, Note_on_c, 1, 35, 77
3, 243420, Note_on_c, 1, 36, 0
3, 243698, Note_on_c, 1, 35, 0
3, 243840, Note_on_c, 1, 35, 75
3, 244800, Note_on_c, 1, 35, 0
3, 244800, Note_on_c, 1, 41, 44
3, 245259, Note_on_c, 1, 41, 0
3, 245280, Note_on_c, 1, 40, 75
3, 245280, Note_on_c, 1, 41, 27
3, 245338, Note_on_c, 1, 41, 0
3, 246240, Note_on_c, 1, 40, 0
3, 246240, Note_on_c, 1, 35, 53
3, 246459, Note_on_c, 1, 35, 0
3, 246720, Note_on_c, 1, 31, 43
3, 247177, Note_on_c, 1, 31, 0
3, 247200, Note_on_c, 1, 32, 73
3, 248112, Note_on_c, 1, 32, 0
3, 248160, Note_on_c, 1, 30, 29
3, 248160, Note_on_c, 1, 32, 66
3, 248234, Note_on_c, 1, 30, 0
3, 248639, Note_on_c, 1, 32, 0
3, 248640, Note_on_c, 1, 40, 33
3, 249026, Note_on_c, 1, 40, 0
3, 249120, Note_on_c, 1, 45, 86
3, 250080, Note_on_c, 1, 36, 26
3, 250081, Note_on_c, 1, 45, 0
3, 250197, Note_on_c, 1, 36, 0
3, 250560, Note_on_c, 1, 40, 33
3, 251040, Note_on_c, 1, 38, 54
3, 251050, Note_on_c, 1, 40, 0
3, 252000, Note_on_c, 1, 38, 0
3, 252000, Note_on_c, 1, 33, 51
3, 252136, Note_on_c, 1, 33, 0
3, 252480, Note_on_c, 1, 32, 55
3, 252852, Note_on_c, 1, 32, 0
3, 252960, Note_on_c, 1, 31, 76
3, 253920, Note_on_c, 1, 40, 21
3, 253978, Note_on_c, 1, 40, 0
3, 253990, Note_on_c, 1, 31, 0
3, 254400, Note_on_c, 1, 36, 64
3, 254823, Note_on_c, 1, 36, 0
3, 254880, Note_on_c, 1, 36, 76
3, 256040, Note_on_c, 1, 36, 0
3, 256320, Note_on_c, 1, 43, 57
3, 256800, Note_on_c, 1, 41, 74
3, 256880, Note_on_c, 1, 43, 0
3, 257760, Note_on_c, 1, 36, 36
3, 257830, Note_on_c, 1, 36, 0
3, 258011, Note_on_c, 1, 41, 0
3, 258240, Note_on_c, 1, 35, 68
3, 258336, Note_on_c, 1, 35, 0
3, 258720, Note_on_c, 1, 35, 67
3, 260160, Note_on_c, 1, 40, 58
3, 260287, Note_on_c, 1, 35, 0
3, 260291, Note_on_c, 1, 40, 0
3, 260640, Note_on_c, 1, 40, 85
3, 261535, Note_on_c, 1, 40, 0
3, 261600, Note_on_c, 1, 35, 43
3, 261922, Note_on_c, 1, 35, 0
3, 262080, Note_on_c, 1, 32, 68
3, 262523, Note_on_c, 1, 32, 0
3, 262560, Note_on_c, 1, 32, 74
3, 263520, Note_on_c, 1, 32, 0
3, 263520, Note_on_c, 1, 44, 49
3, 263786, Note_on_c, 1, 44, 0
3, 264000, Note_on_c, 1, 47, 89
3, 264451, Note_on_c, 1, 47, 0
3, 264480, Note_on_c, 1, 45, 85
3, 264480, Note_on_c, 1, 47, 46
3, 264538, Note_on_c, 1, 47, 0
3, 265386, Note_on_c, 1, 45, 0
3, 265440, Note_on_c, 1, 40, 21
3, 265779, Note_on_c, 1, 40, 0
3, 265920, Note_on_c, 1, 38, 26
3, 266128, Note_on_c, 1, 38, 0
3, 266400, Note_on_c, 1, 38, 72
3, 267360, Note_on_c, 1, 40, 19
3, 267415, Note_on_c, 1, 40, 0
3, 267476, Note_on_c, 1, 38, 0
3, 267840, Note_on_c, 1, 45, 85
3, 268276, Note_on_c, 1, 45, 0
3, 268320, Note_on_c, 1, 43, 61
3, 269280, Note_on_c, 1, 38, 42
3, 269537, Note_on_c, 1, 38, 0
3, 269668, Note_on_c, 1, 43, 0
3, 269760, Note_on_c, 1, 35, 35
3, 270181, Note_on_c, 1, 35, 0
3, 270240, Note_on_c, 1, 36, 75
3, 270607, Note_on_c, 1, 36, 0
3, 270720, Note_on_c, 1, 36, 71
3, 271200, Note_on_c, 1, 43, 29
3, 271341, Note_on_c, 1, 43, 0
3, 271680, Note_on_c, 1, 48, 79
3, 271731, Note_on_c, 1, 36, 0
3, 272138, Note_on_c, 1, 48, 0
3, 272160, Note_on_c, 1, 41, 65
3, 273600, Note_on_c, 1, 36, 60
3, 273945, Note_on_c, 1, 36, 0
3, 274080, Note_on_c, 1, 35, 71
3, 274438, Note_on_c, 1, 35, 0
3, 274542, Note_on_c, 1, 41, 0
3, 274560, Note_on_c, 1, 35, 73
3, 275520, Note_on_c, 1, 40, 27
3, 275583, Note_on_c, 1, 40, 0
3, 276000, Note_on_c, 1, 40, 86
3, 276203, Note_on_c, 1, 35, 0
3, 276960, Note_on_c, 1, 35, 41
3, 277186, Note_on_c, 1, 35, 0
3, 277351, Note_on_c, 1, 40, 0
3, 277440, Note_on_c, 1, 32, 68
3, 278874, Note_on_c, 1, 32, 0
3, 278880, Note_on_c, 1, 35, 65
3, 279175, Note_on_c, 1, 35, 0
3, 279360, Note_on_c, 1, 33, 42
3, 279360, Note_on_c, 1, 35, 28
3, 279433, Note_on_c, 1, 35, 0
3, 279781, Note_on_c, 1, 33, 0
3, 279840, Note_on_c, 1, 33, 72
3, 280800, Note_on_c, 1, 38, 26
3, 280922, Note_on_c, 1, 38, 0
3, 281265, Note_on_c, 1, 33, 0
3, 281280, Note_on_c, 1, 40, 66
3, 281760, Note_on_c, 1, 38, 68
3, 281876, Note_on_c, 1, 40, 0
3, 282720, Note_on_c, 1, 33, 28
3, 282813, Note_on_c, 1, 38, 0
3, 282939, Note_on_c, 1, 33, 0
3, 283200, Note_on_c, 1, 31, 33
3, 283567, Note_on_c, 1, 31, 0
3, 283680, Note_on_c, 1, 31, 49
3, 285074, Note_on_c, 1, 31, 0
3, 285120, Note_on_c, 1, 43, 40
3, 285600, Note_on_c, 1, 36, 65
3, 285670, Note_on_c, 1, 43, 0
3, 286560, Note_on_c, 1, 43, 31
3, 286761, Note_on_c, 1, 36, 0
3, 286852, Note_on_c, 1, 43, 0
3, 287040, Note_on_c, 1, 43, 35
3, 287520, Note_on_c, 1, 45, 77
3, 287646, Note_on_c, 1, 43, 0
3, 288460, Note_on_c, 1, 45, 0
3, 288480, Note_on_c, 1, 41, 47
3, 288736, Note_on_c, 1, 41, 0
3, 288960, Note_on_c, 1, 35, 53
3, 289126, Note_on_c, 1, 35, 0
3, 289440, Note_on_c, 1, 35, 67
3, 290400, Note_on_c, 1, 28, 32
3, 290550, Note_on_c, 1, 28, 0
3, 290880, Note_on_c, 1, 28, 35
3, 290956, Note_on_c, 1, 28, 0
3, 291288, Note_on_c, 1, 35, 0
3, 291360, Note_on_c, 1, 28, 67
3, 293200, Note_on_c, 1, 28, 0
3, 293280, Note_on_c, 1, 32, 81
3, 294240, Note_on_c, 1, 35, 39
3, 294246, Note_on_c, 1, 32, 0
3, 294450, Note_on_c, 1, 35, 0
3, 294720, Note_on_c, 1, 35, 70
3, 295149, Note_on_c, 1, 35, 0
3, 295200, Note_on_c, 1, 33, 71
3, 296640, Note_on_c, 1, 40, 57
3, 296731, Note_on_c, 1, 33, 0
3, 297120, Note_on_c, 1, 38, 61
3, 297158, Note_on_c, 1, 40, 0
3, 298390, Note_on_c, 1, 38, 0
3, 298560, Note_on_c, 1, 43, 29
3, 298958, Note_on_c, 1, 43, 0
3, 299040, Note_on_c, 1, 43, 61
3, 300000, Note_on_c, 1, 36, 37
3, 300100, Note_on_c, 1, 36, 0
3, 300480, Note_on_c, 1, 31, 50
3, 300911, Note_on_c, 1, 43, 0
3, 300937, Note_on_c, 1, 31, 0
3, 300960, Note_on_c, 1, 36, 77
3, 301920, Note_on_c, 1, 31, 35
3, 302022, Note_on_c, 1, 31, 0
3, 302198, Note_on_c, 1, 36, 0
3, 302400, Note_on_c, 1, 29, 43
3, 302787, Note_on_c, 1, 29, 0
3, 302880, Note_on_c, 1, 29, 50
3, 303840, Note_on_c, 1, 36, 61
3, 304103, Note_on_c, 1, 36, 0
3, 304139, Note_on_c, 1, 29, 0
3, 304320, Note_on_c, 1, 36, 46
3, 304760, Note_on_c, 1, 36, 0
3, 304800, Note_on_c, 1, 35, 70
3, 305760, Note_on_c, 1, 41, 41
3, 306098, Note_on_c, 1, 41, 0
3, 306240, Note_on_c, 1, 41, 54
3, 306410, Note_on_c, 1, 35, 0
3, 306720, Note_on_c, 1, 40, 71
3, 306723, Note_on_c, 1, 41, 0
3, 307680, Note_on_c, 1, 35, 43
3, 307703, Note_on_c, 1, 40, 0
3, 307974, Note_on_c, 1, 35, 0
3, 308160, Note_on_c, 1, 31, 41
3, 308625, Note_on_c, 1, 31, 0
3, 308640, Note_on_c, 1, 32, 76
3, 309600, Note_on_c, 1, 35, 56
3, 309671, Note_on_c, 1, 32, 0
3, 309892, Note_on_c, 1, 35, 0
3, 310080, Note_on_c, 1, 35, 50
3, 310530, Note_on_c, 1, 35, 0
3, 310560, Note_on_c, 1, 33, 69
3, 311520, Note_on_c, 1, 40, 32
3, 311841, Note_on_c, 1, 33, 0
3, 311848, Note_on_c, 1, 40, 0
3, 312000, Note_on_c, 1, 45, 72
3, 312377, Note_on_c, 1, 45, 0
3, 312480, Note_on_c, 1, 38, 81
3, 313440, Note_on_c, 1, 50, 73
3, 313817, Note_on_c, 1, 50, 0
3, 313920, Note_on_c, 1, 43, 24
3, 314066, Note_on_c, 1, 38, 0
3, 314133, Note_on_c, 1, 43, 0
3, 314400, Note_on_c, 1, 43, 59
3, 315360, Note_on_c, 1, 38, 31
3, 315565, Note_on_c, 1, 38, 0
3, 315594, Note_on_c, 1, 43, 0
3, 315840, Note_on_c, 1, 35, 52
3, 315978, Note_on_c, 1, 35, 0
3, 316320, Note_on_c, 1, 36, 77
3, 317280, Note_on_c, 1, 31, 31
3, 317523, Note_on_c, 1, 36, 0
3, 317529, Note_on_c, 1, 31, 0
3, 317760, Note_on_c, 1, 29, 61
3, 318166, Note_on_c, 1, 29, 0
3, 318240, Note_on_c, 1, 29, 72
3, 319200, Note_on_c, 1, 36, 29
3, 319513, Note_on_c, 1, 36, 0
3, 319680, Note_on_c, 1, 35, 54
3, 319693, Note_on_c, 1, 29, 0
3, 320070, Note_on_c, 1, 35, 0
3, 320160, Note_on_c, 1, 35, 71
3, 321120, Note_on_c, 1, 42, 49
3, 321157, Note_on_c, 1, 35, 0
3, 321567, Note_on_c, 1, 42, 0
3, 321600, Note_on_c, 1, 40, 43
3, 321670, Note_on_c, 1, 40, 0
3, 322080, Note_on_c, 1, 40, 69
3, 323040, Note_on_c, 1, 35, 34
3, 323317, Note_on_c, 1, 35, 0
3, 323433, Note_on_c, 1, 40, 0
3, 323520, Note_on_c, 1, 32, 43
3, 323905, Note_on_c, 1, 32, 0
3, 324000, Note_on_c, 1, 32, 57
3, 324945, Note_on_c, 1, 32, 0
3, 324960, Note_on_c, 1, 35, 46
3, 325328, Note_on_c, 1, 35, 0
3, 325440, Note_on_c, 1, 33, 61
3, 325817, Note_on_c, 1, 33, 0
3, 325920, Note_on_c, 1, 33, 65
3, 326880, Note_on_c, 1, 40, 43
3, 326919, Note_on_c, 1, 33, 0
3, 327246, Note_on_c, 1, 40, 0
3, 327360, Note_on_c, 1, 36, 24
3, 327757, Note_on_c, 1, 36, 0
3, 327840, Note_on_c, 1, 38, 61
3, 328743, Note_on_c, 1, 38, 0
3, 328800, Note_on_c, 1, 45, 60
3, 329123, Note_on_c, 1, 45, 0
3, 329280, Note_on_c, 1, 44, 27
3, 329599, Note_on_c, 1, 44, 0
3, 329760, Note_on_c, 1, 43, 52
3, 330720, Note_on_c, 1, 38, 39
3, 331018, Note_on_c, 1, 38, 0
3, 331200, Note_on_c, 1, 36, 43
3, 331213, Note_on_c, 1, 43, 0
3, 331588, Note_on_c, 1, 36, 0
3, 331680, Note_on_c, 1, 36, 67
3, 332640, Note_on_c, 1, 43, 48
3, 332817, Note_on_c, 1, 36, 0
3, 333044, Note_on_c, 1, 43, 0
3, 333120, Note_on_c, 1, 41, 25
3, 333495, Note_on_c, 1, 41, 0
3, 333600, Note_on_c, 1, 41, 64
3, 334560, Note_on_c, 1, 36, 33
3, 334962, Note_on_c, 1, 36, 0
3, 334974, Note_on_c, 1, 41, 0
3, 335040, Note_on_c, 1, 29, 37
3, 335520, Note_on_c, 1, 35, 71
3, 335542, Note_on_c, 1, 29, 0
3, 336376, Note_on_c, 1, 35, 0
3, 336480, Note_on_c, 1, 35, 61
3, 337440, Note_on_c, 1, 40, 74
3, 338107, Note_on_c, 1, 35, 0
3, 338319, Note_on_c, 1, 40, 0
3, 338400, Note_on_c, 1, 40, 69
3, 338880, Note_on_c, 1, 35, 64
3, 338906, Note_on_c, 1, 40, 0
3, 339249, Note_on_c, 1, 35, 0
3, 339360, Note_on_c, 1, 35, 63
3, 339798, Note_on_c, 1, 35, 0
3, 339840, Note_on_c, 1, 32, 70
3, 340284, Note_on_c, 1, 32, 0
3, 340320, Note_on_c, 1, 32, 68
3, 340800, Note_on_c, 1, 35, 66
3, 340803, Note_on_c, 1, 32, 0
3, 341274, Note_on_c, 1, 35, 0
3, 341280, Note_on_c, 1, 33, 72
3, 342240, Note_on_c, 1, 40, 43
3, 342485, Note_on_c, 1, 40, 0
3, 342720, Note_on_c, 1, 38, 65
3, 343143, Note_on_c, 1, 38, 0
3, 343200, Note_on_c, 1, 38, 71
3, 343347, Note_on_c, 1, 33, 0
3, 344127, Note_on_c, 1, 38, 0
3, 344160, Note_on_c, 1, 45, 55
3, 344573, Note_on_c, 1, 45, 0
3, 344640, Note_on_c, 1, 43, 16
3, 345046, Note_on_c, 1, 43, 0
3, 345120, Note_on_c, 1, 43, 65
3, 346080, Note_on_c, 1, 38, 49
3, 346441, Note_on_c, 1, 38, 0
3, 346560, Note_on_c, 1, 36, 41
3, 346581, Note_on_c, 1, 43, 0
3, 346895, Note_on_c, 1, 36, 0
3, 347040, Note_on_c, 1, 36, 65
3, 348000, Note_on_c, 1, 43, 44
3, 348087, Note_on_c, 1, 36, 0
3, 348358, Note_on_c, 1, 43, 0
3, 348480, Note_on_c, 1, 40, 27
3, 348895, Note_on_c, 1, 40, 0
3, 348960, Note_on_c, 1, 41, 65
3, 349920, Note_on_c, 1, 36, 42
3, 350105, Note_on_c, 1, 36, 0
3, 350400, Note_on_c, 1, 36, 54
3, 350838, Note_on_c, 1, 36, 0
3, 350880, Note_on_c, 1, 35, 65
3, 350913, Note_on_c, 1, 41, 0
3, 351840, Note_on_c, 1, 47, 57
3, 352163, Note_on_c, 1, 47, 0
3, 352320, Note_on_c, 1, 47, 58
3, 352747, Note_on_c, 1, 47, 0
3, 352769, Note_on_c, 1, 35, 0
3, 352800, Note_on_c, 1, 40, 65
3, 352800, Note_on_c, 1, 42, 29
3, 352865, Note_on_c, 1, 42, 0
3, 353760, Note_on_c, 1, 35, 46
3, 354076, Note_on_c, 1, 35, 0
3, 354167, Note_on_c, 1, 40, 0
3, 354240, Note_on_c, 1, 32, 64
3, 354626, Note_on_c, 1, 32, 0
3, 354720, Note_on_c, 1, 32, 65
3, 355680, Note_on_c, 1, 35, 48
3, 355682, Note_on_c, 1, 32, 0
3, 355975, Note_on_c, 1, 35, 0
3, 356160, Note_on_c, 1, 33, 65
3, 356596, Note_on_c, 1, 33, 0
3, 356640, Note_on_c, 1, 33, 72
3, 357600, Note_on_c, 1, 40, 48
3, 357662, Note_on_c, 1, 33, 0
3, 357992, Note_on_c, 1, 40, 0
3, 358080, Note_on_c, 1, 38, 26
3, 358422, Note_on_c, 1, 38, 0
3, 358560, Note_on_c, 1, 38, 71
3, 359520, Note_on_c, 1, 33, 37
3, 359796, Note_on_c, 1, 38, 0
3, 359801, Note_on_c, 1, 33, 0
3, 360000, Note_on_c, 1, 32, 45
3, 360331, Note_on_c, 1, 32, 0
3, 360480, Note_on_c, 1, 31, 61
3, 361440, Note_on_c, 1, 43, 34
3, 361625, Note_on_c, 1, 31, 0
3, 361763, Note_on_c, 1, 43, 0
3, 361920, Note_on_c, 1, 35, 48
3, 362400, Note_on_c, 1, 36, 73
3, 362408, Note_on_c, 1, 35, 0
3, 363360, Note_on_c, 1, 43, 59
3, 363737, Note_on_c, 1, 36, 0
3, 363761, Note_on_c, 1, 43, 0
3, 363840, Note_on_c, 1, 41, 35
3, 364252, Note_on_c, 1, 41, 0
3, 364320, Note_on_c, 1, 41, 78
3, 365280, Note_on_c, 1, 36, 47
3, 365643, Note_on_c, 1, 36, 0
3, 365662, Note_on_c, 1, 41, 0
3, 365760, Note_on_c, 1, 35, 57
3, 366152, Note_on_c, 1, 35, 0
3, 366240, Note_on_c, 1, 35, 68
3, 367200, Note_on_c, 1, 40, 46
3, 367362, Note_on_c, 1, 40, 0
3, 367383, Note_on_c, 1, 35, 0
3, 367680, Note_on_c, 1, 39, 52
3, 367680, Note_on_c, 1, 35, 24
3, 367826, Note_on_c, 1, 35, 0
3, 368113, Note_on_c, 1, 39, 0
3, 368160, Note_on_c, 1, 40, 73
3, 369120, Note_on_c, 1, 35, 55
3, 369188, Note_on_c, 1, 40, 0
3, 369600, Note_on_c, 1, 28, 38
3, 369687, Note_on_c, 1, 35, 0
3, 369975, Note_on_c, 1, 28, 0
3, 370080, Note_on_c, 1, 28, 54
3, 370977, Note_on_c, 1, 28, 0
3, 371040, Note_on_c, 1, 32, 73
3, 371418, Note_on_c, 1, 32, 0
3, 371520, Note_on_c, 1, 32, 69
3, 371952, Note_on_c, 1, 32, 0
3, 372000, Note_on_c, 1, 33, 77
3, 372960, Note_on_c, 1, 40, 64
3, 373036, Note_on_c, 1, 33, 0
3, 373440, Note_on_c, 1, 33, 38
3, 373520, Note_on_c, 1, 33, 0
3, 373920, Note_on_c, 1, 38, 73
3, 374024, Note_on_c, 1, 40, 0
3, 374880, Note_on_c, 1, 33, 55
3, 374958, Note_on_c, 1, 38, 0
3, 375242, Note_on_c, 1, 33, 0
3, 375360, Note_on_c, 1, 32, 59
3, 375749, Note_on_c, 1, 32, 0
3, 375840, Note_on_c, 1, 31, 55
3, 376800, Note_on_c, 1, 43, 48
3, 376865, Note_on_c, 1, 31, 0
3, 377173, Note_on_c, 1, 43, 0
3, 377280, Note_on_c, 1, 35, 49
3, 377760, Note_on_c, 1, 36, 81
3, 377768, Note_on_c, 1, 35, 0
3, 379725, Note_on_c, 1, 36, 0
3, 379900, Note_on_c, 1, 29, 75
3, 380162, Note_on_c, 1, 35, 72
3, 380446, Note_on_c, 1, 29, 0
3, 381560, Note_on_c, 1, 35, 0
3, 382082, Note_on_c, 1, 40, 79
3, 383399, Note_on_c, 1, 40, 0
3, 383687, Note_on_c, 1, 33, 68
3, 383847, Note_on_c, 1, 33, 0
3, 385022, Note_on_c, 1, 28, 71
3, 387249, Note_on_c, 1, 28, 0
3, 390290, Note_on_c, 1, 38, 77
3, 390802, Note_on_c, 1, 38, 0
3, 391246, Note_on_c, 1, 43, 63
3, 391848, Note_on_c, 1, 43, 0
3, 397899, Note_on_c, 1, 35, 65
3, 398312, Note_on_c, 1, 35, 0
3, 398334, Note_on_c, 1, 36, 69
3, 398680, Note_on_c, 1, 36, 0
3, 398892, Note_on_c, 1, 37, 71
3, 399213, Note_on_c, 1, 37, 0
3, 399814, Note_on_c, 1, 38, 79
3, 400174, Note_on_c, 1, 38, 0
3, 400836, Note_on_c, 1, 39, 83
3, 401340, Note_on_c, 1, 39, 0
3, 403824, Note_on_c, 1, 38, 74
3, 404462, Note_on_c, 1, 38, 0
3, 405120, Note_on_c, 1, 43, 68
3, 406110, Note_on_c, 1, 43, 0
3, 406602, Note_on_c, 1, 48, 80
3, 407184, Note_on_c, 1, 48, 0
3, 410880, Note_on_c, 1, 47, 74
3, 414080, Note_on_c, 1, 40, 80
3, 414638, Note_on_c, 1, 47, 0
3, 415274, Note_on_c, 1, 40, 0
3, 419040, Note_on_c, 1, 39, 87
3, 419436, Note_on_c, 1, 39, 0
3, 420000, Note_on_c, 1, 38, 81
3, 421453, Note_on_c, 1, 38, 0
3, 421920, Note_on_c, 1, 43, 72
3, 422441, Note_on_c, 1, 43, 0
3, 427730, Note_on_c, 1, 35, 77
3, 430107, Note_on_c, 1, 35, 0
3, 430752, Note_on_c, 1, 40, 79
3, 432071, Note_on_c, 1, 40, 0
3, 434452, Note_on_c, 1, 45, 77
3, 434863, Note_on_c, 1, 45, 0
3, 434963, Note_on_c, 1, 44, 68
3, 435355, Note_on_c, 1, 43, 71
3, 435376, Note_on_c, 1, 44, 0
3, 436673, Note_on_c, 1, 43, 0
3, 438298, Note_on_c, 1, 31, 57
3, 438646, Note_on_c, 1, 31, 0
3, 438766, Note_on_c, 1, 30, 60
3, 439192, Note_on_c, 1, 30, 0
3, 439276, Note_on_c, 1, 29, 70
3, 439692, Note_on_c, 1, 29, 0
3, 441600, Note_on_c, 1, 35, 72
3, 442998, Note_on_c, 1, 35, 0
3, 443520, Note_on_c, 1, 40, 79
3, 444837, Note_on_c, 1, 40, 0
3, 445125, Note_on_c, 1, 33, 68
3, 445285, Note_on_c, 1, 33, 0
3, 445285, End_track
4, 0, Start_track
4, 0, Title_t, "Drums"
4, 0, Control_c, 9, 0, 0
4, 0, Control_c, 9, 7, 86
4, 1, Control_c, 9, 32, 3
4, 2, Program_c, 9, 32
4, 103680, Note_on_c, 9, 40, 83
4, 103682, Note_on_c, 9, 36, 85
4, 103815, Note_on_c, 9, 40, 0
4, 103835, Note_on_c, 9, 36, 0
4, 104648, Note_on_c, 9, 38, 58
4, 104831, Note_on_c, 9, 38, 0
4, 105112, Note_on_c, 9, 38, 57
4, 105359, Note_on_c, 9, 38, 0
4, 105560, Note_on_c, 9, 40, 80
4, 105567, Note_on_c, 9, 36, 84
4, 105927, Note_on_c, 9, 36, 0
4, 105960, Note_on_c, 9, 40, 0
4, 106121, Note_on_c, 9, 38, 63
4, 106170, Note_on_c, 9, 56, 77
4, 106437, Note_on_c, 9, 38, 0
4, 106468, Note_on_c, 9, 56, 0
4, 107097, Note_on_c, 9, 38, 68
4, 107154, Note_on_c, 9, 56, 86
4, 107200, Note_on_c, 9, 40, 88
4, 107205, Note_on_c, 9, 36, 88
4, 107309, Note_on_c, 9, 38, 0
4, 107371, Note_on_c, 9, 56, 0
4, 107386, Note_on_c, 9, 40, 0
4, 107392, Note_on_c, 9, 36, 0
4, 108595, Note_on_c, 9, 57, 51
4, 108639, Note_on_c, 9, 40, 85
4, 108644, Note_on_c, 9, 36, 90
4, 109648, Note_on_c, 9, 57, 0
4, 110355, Note_on_c, 9, 40, 0
4, 110417, Note_on_c, 9, 36, 0
4, 111456, Note_on_c, 9, 36, 88
4, 111472, Note_on_c, 9, 57, 14
4, 111696, Note_on_c, 9, 36, 0
4, 111712, Note_on_c, 9, 57, 0
4, 112863, Note_on_c, 9, 36, 62
4, 113046, Note_on_c, 9, 36, 0
4, 113377, Note_on_c, 9, 40, 73
4, 113728, Note_on_c, 9, 40, 0
4, 113845, Note_on_c, 9, 40, 71
4, 114188, Note_on_c, 9, 40, 0
4, 114338, Note_on_c, 9, 36, 62
4, 114437, Note_on_c, 9, 36, 0
4, 114840, Note_on_c, 9, 57, 14
4, 114848, Note_on_c, 9, 36, 84
4, 115080, Note_on_c, 9, 57, 0
4, 115263, Note_on_c, 9, 36, 0
4, 121440, Note_on_c, 9, 38, 28
4, 121680, Note_on_c, 9, 38, 0
4, 121800, Note_on_c, 9, 38, 58
4, 122040, Note_on_c, 9, 38, 0
4, 122400, Note_on_c, 9, 38, 62
4, 122640, Note_on_c, 9, 38, 0
4, 123360, Note_on_c, 9, 36, 88
4, 123360, Note_on_c, 9, 38, 58
4, 123600, Note_on_c, 9, 38, 0
4, 123600, Note_on_c, 9, 36, 0
4, 124320, Note_on_c, 9, 36, 88
4, 124320, Note_on_c, 9, 38, 96
4, 124320, Note_on_c, 9, 57, 14
4, 124560, Note_on_c, 9, 57, 0
4, 124560, Note_on_c, 9, 38, 0
4, 124560, Note_on_c, 9, 36, 0
4, 126120, Note_on_c, 9, 36, 28
4, 126120, Note_on_c, 9, 38, 28
4, 126360, Note_on_c, 9, 38, 0
4, 126360, Note_on_c, 9, 36, 0
4, 126720, Note_on_c, 9, 59, 28
4, 126720, Note_on_c, 9, 36, 88
4, 126720, Note_on_c, 9, 38, 78
4, 126960, Note_on_c, 9, 38, 0
4, 126960, Note_on_c, 9, 36, 0
4, 126960, Note_on_c, 9, 59, 0
4, 127287, Note_on_c, 9, 36, 68
4, 127682, Note_on_c, 9, 36, 0
4, 128640, Note_on_c, 9, 36, 100
4, 129000, Note_on_c, 9, 36, 0
4, 130080, Note_on_c, 9, 38, 82
4, 130080, Note_on_c, 9, 36, 82
4, 130080, Note_on_c, 9, 57, 41
4, 130303, Note_on_c, 9, 36, 73
4, 130440, Note_on_c, 9, 57, 0
4, 130440, Note_on_c, 9, 38, 0
4, 130473, Note_on_c, 9, 36, 0
4, 130607, Note_on_c, 9, 36, 0
4, 134400, Note_on_c, 9, 38, 20
4, 134760, Note_on_c, 9, 38, 0
4, 135040, Note_on_c, 9, 38, 37
4, 135400, Note_on_c, 9, 38, 0
4, 135680, Note_on_c, 9, 38, 58
4, 136040, Note_on_c, 9, 38, 0
4, 136320, Note_on_c, 9, 38, 72
4, 136680, Note_on_c, 9, 38, 0
4, 136960, Note_on_c, 9, 38, 89
4, 137320, Note_on_c, 9, 38, 0
4, 137520, Note_on_c, 9, 40, 82
4, 137640, Note_on_c, 9, 57, 41
4, 137880, Note_on_c, 9, 40, 0
4, 138000, Note_on_c, 9, 57, 0
4, 139680, Note_on_c, 9, 40, 20
4, 139680, Note_on_c, 9, 36, 20
4, 140040, Note_on_c, 9, 36, 0
4, 140040, Note_on_c, 9, 40, 0
4, 140160, Note_on_c, 9, 40, 36
4, 140160, Note_on_c, 9, 36, 36
4, 140520, Note_on_c, 9, 36, 0
4, 140520, Note_on_c, 9, 40, 0
4, 140640, Note_on_c, 9, 40, 53
4, 140640, Note_on_c, 9, 36, 53
4, 141000, Note_on_c, 9, 36, 0
4, 141000, Note_on_c, 9, 40, 0
4, 141120, Note_on_c, 9, 40, 70
4, 141120, Note_on_c, 9, 36, 70
4, 141480, Note_on_c, 9, 36, 0
4, 141480, Note_on_c, 9, 40, 0
4, 141600, Note_on_c, 9, 40, 87
4, 141600, Note_on_c, 9, 36, 87
4, 141600, Note_on_c, 9, 57, 21
4, 141960, Note_on_c, 9, 57, 0
4, 141960, Note_on_c, 9, 36, 0
4, 141960, Note_on_c, 9, 40, 0
4, 142494, Note_on_c, 9, 38, 52
4, 142560, Note_on_c, 9, 40, 82
4, 142560, Note_on_c, 9, 36, 82
4, 142779, Note_on_c, 9, 38, 0
4, 142920, Note_on_c, 9, 36, 0
4, 142920, Note_on_c, 9, 40, 0
4, 142984, Note_on_c, 9, 38, 44
4, 143219, Note_on_c, 9, 38, 0
4, 143520, Note_on_c, 9, 36, 82
4, 143520, Note_on_c, 9, 40, 82
4, 143559, Note_on_c, 9, 40, 51
4, 143742, Note_on_c, 9, 40, 0
4, 143880, Note_on_c, 9, 40, 0
4, 143880, Note_on_c, 9, 36, 0
4, 144548, Note_on_c, 9, 38, 73
4, 145003, Note_on_c, 9, 38, 0
4, 145440, Note_on_c, 9, 40, 82
4, 145440, Note_on_c, 9, 36, 82
4, 145440, Note_on_c, 9, 57, 41
4, 145800, Note_on_c, 9, 57, 0
4, 145800, Note_on_c, 9, 36, 0
4, 145800, Note_on_c, 9, 40, 0
4, 146880, Note_on_c, 9, 36, 82
4, 147240, Note_on_c, 9, 36, 0
4, 147360, Note_on_c, 9, 36, 82
4, 147720, Note_on_c, 9, 36, 0
4, 147840, Note_on_c, 9, 36, 10
4, 147840, Note_on_c, 9, 38, 10
4, 147960, Note_on_c, 9, 38, 14
4, 147960, Note_on_c, 9, 36, 14
4, 148080, Note_on_c, 9, 36, 18
4, 148080, Note_on_c, 9, 38, 18
4, 148200, Note_on_c, 9, 38, 0
4, 148200, Note_on_c, 9, 36, 0
4, 148200, Note_on_c, 9, 38, 22
4, 148200, Note_on_c, 9, 36, 22
4, 148320, Note_on_c, 9, 36, 0
4, 148320, Note_on_c, 9, 38, 0
4, 148440, Note_on_c, 9, 36, 0
4, 148440, Note_on_c, 9, 38, 0
4, 148440, Note_on_c, 9, 36, 30
4, 148440, Note_on_c, 9, 38, 30
4, 148560, Note_on_c, 9, 36, 0
4, 148560, Note_on_c, 9, 38, 0
4, 148800, Note_on_c, 9, 36, 0
4, 148800, Note_on_c, 9, 38, 0
4, 148832, Note_on_c, 9, 38, 10
4, 148836, Note_on_c, 9, 36, 10
4, 148956, Note_on_c, 9, 38, 15
4, 149160, Note_on_c, 9, 38, 24
4, 149160, Note_on_c, 9, 36, 24
4, 149192, Note_on_c, 9, 38, 0
4, 149196, Note_on_c, 9, 36, 0
4, 149280, Note_on_c, 9, 36, 29
4, 149280, Note_on_c, 9, 38, 29
4, 149316, Note_on_c, 9, 38, 0
4, 149400, Note_on_c, 9, 36, 33
4, 149520, Note_on_c, 9, 36, 0
4, 149520, Note_on_c, 9, 38, 0
4, 149640, Note_on_c, 9, 36, 0
4, 149640, Note_on_c, 9, 38, 0
4, 149760, Note_on_c, 9, 36, 0
4, 149810, Note_on_c, 9, 38, 40
4, 149810, Note_on_c, 9, 36, 40
4, 149810, Note_on_c, 9, 57, 20
4, 150170, Note_on_c, 9, 57, 0
4, 150170, Note_on_c, 9, 36, 0
4, 150170, Note_on_c, 9, 38, 0
4, 150240, Note_on_c, 9, 36, 40
4, 150600, Note_on_c, 9, 36, 0
4, 150720, Note_on_c, 9, 36, 40
4, 151080, Note_on_c, 9, 36, 0
4, 151200, Note_on_c, 9, 36, 40
4, 151200, Note_on_c, 9, 57, 20
4, 151560, Note_on_c, 9, 57, 0
4, 151560, Note_on_c, 9, 36, 0
4, 152160, Note_on_c, 9, 36, 40
4, 152520, Note_on_c, 9, 36, 0
4, 152579, Note_on_c, 9, 36, 40
4, 152939, Note_on_c, 9, 36, 0
4, 153120, Note_on_c, 9, 36, 40
4, 153120, Note_on_c, 9, 57, 20
4, 153480, Note_on_c, 9, 57, 0
4, 153480, Note_on_c, 9, 36, 0
4, 154306, Note_on_c, 9, 38, 40
4, 154666, Note_on_c, 9, 38, 0
4, 155160, Note_on_c, 9, 36, 40
4, 155520, Note_on_c, 9, 36, 0
4, 155640, Note_on_c, 9, 36, 40
4, 155640, Note_on_c, 9, 57, 20
4, 156000, Note_on_c, 9, 57, 0
4, 156000, Note_on_c, 9, 36, 0
4, 156480, Note_on_c, 9, 38, 40
4, 156840, Note_on_c, 9, 38, 0
4, 156960, Note_on_c, 9, 36, 40
4, 156960, Note_on_c, 9, 38, 40
4, 156960, Note_on_c, 9, 57, 20
4, 157320, Note_on_c, 9, 57, 0
4, 157320, Note_on_c, 9, 38, 0
4, 157320, Note_on_c, 9, 36, 0
4, 157920, Note_on_c, 9, 36, 40
4, 158280, Note_on_c, 9, 36, 0
4, 158520, Note_on_c, 9, 38, 40
4, 158520, Note_on_c, 9, 36, 40
4, 158880, Note_on_c, 9, 36, 0
4, 158880, Note_on_c, 9, 38, 0
4, 158880, Note_on_c, 9, 38, 40
4, 158880, Note_on_c, 9, 36, 40
4, 158880, Note_on_c, 9, 57, 20
4, 159240, Note_on_c, 9, 57, 0
4, 159240, Note_on_c, 9, 36, 0
4, 159240, Note_on_c, 9, 38, 0
4, 161760, Note_on_c, 9, 38, 40
4, 161760, Note_on_c, 9, 36, 40
4, 162120, Note_on_c, 9, 36, 0
4, 162120, Note_on_c, 9, 38, 0
4, 162240, Note_on_c, 9, 38, 40
4, 162240, Note_on_c, 9, 36, 40
4, 162600, Note_on_c, 9, 36, 0
4, 162600, Note_on_c, 9, 38, 0
4, 162711, Note_on_c, 9, 57, 20
4, 162720, Note_on_c, 9, 38, 40
4, 162720, Note_on_c, 9, 36, 40
4, 163071, Note_on_c, 9, 57, 0
4, 163080, Note_on_c, 9, 36, 0
4, 163080, Note_on_c, 9, 38, 0
4, 163520, Note_on_c, 9, 40, 20
4, 163520, Note_on_c, 9, 36, 20
4, 163880, Note_on_c, 9, 36, 0
4, 163880, Note_on_c, 9, 40, 0
4, 164160, Note_on_c, 9, 36, 24
4, 164160, Note_on_c, 9, 40, 24
4, 164480, Note_on_c, 9, 40, 27
4, 164480, Note_on_c, 9, 36, 27
4, 164520, Note_on_c, 9, 40, 0
4, 164520, Note_on_c, 9, 36, 0
4, 164800, Note_on_c, 9, 40, 29
4, 164800, Note_on_c, 9, 36, 29
4, 164840, Note_on_c, 9, 40, 0
4, 164840, Note_on_c, 9, 36, 0
4, 165120, Note_on_c, 9, 40, 32
4, 165120, Note_on_c, 9, 36, 32
4, 165160, Note_on_c, 9, 40, 0
4, 165160, Note_on_c, 9, 36, 0
4, 165440, Note_on_c, 9, 40, 34
4, 165440, Note_on_c, 9, 36, 34
4, 165480, Note_on_c, 9, 40, 0
4, 165480, Note_on_c, 9, 36, 0
4, 165760, Note_on_c, 9, 40, 37
4, 165760, Note_on_c, 9, 36, 37
4, 165800, Note_on_c, 9, 40, 0
4, 165800, Note_on_c, 9, 36, 0
4, 166080, Note_on_c, 9, 36, 39
4, 166080, Note_on_c, 9, 40, 39
4, 166120, Note_on_c, 9, 40, 0
4, 166120, Note_on_c, 9, 36, 0
4, 166400, Note_on_c, 9, 36, 42
4, 166440, Note_on_c, 9, 36, 0
4, 166440, Note_on_c, 9, 40, 0
4, 166440, Note_on_c, 9, 40, 40
4, 166460, Note_on_c, 9, 36, 0
4, 166680, Note_on_c, 9, 40, 0
4, 166744, Note_on_c, 9, 40, 40
4, 166779, Note_on_c, 9, 36, 50
4, 166984, Note_on_c, 9, 40, 0
4, 167019, Note_on_c, 9, 36, 0
4, 167033, Note_on_c, 9, 40, 50
4, 167040, Note_on_c, 9, 36, 46
4, 167100, Note_on_c, 9, 36, 0
4, 167273, Note_on_c, 9, 40, 0
4, 167315, Note_on_c, 9, 40, 30
4, 167555, Note_on_c, 9, 40, 0
4, 167680, Note_on_c, 9, 38, 51
4, 167680, Note_on_c, 9, 36, 51
4, 168000, Note_on_c, 9, 36, 54
4, 168000, Note_on_c, 9, 38, 54
4, 168040, Note_on_c, 9, 36, 0
4, 168040, Note_on_c, 9, 38, 0
4, 168360, Note_on_c, 9, 36, 0
4, 168360, Note_on_c, 9, 38, 0
4, 168640, Note_on_c, 9, 38, 59
4, 168640, Note_on_c, 9, 55, 59
4, 168640, Note_on_c, 9, 36, 59
4, 169000, Note_on_c, 9, 36, 0
4, 169000, Note_on_c, 9, 55, 0
4, 169000, Note_on_c, 9, 38, 0
4, 169320, Note_on_c, 9, 38, 64
4, 169440, Note_on_c, 9, 38, 0
4, 169920, Note_on_c, 9, 36, 69
4, 169920, Note_on_c, 9, 57, 34
4, 170040, Note_on_c, 9, 57, 0
4, 170040, Note_on_c, 9, 36, 0
4, 172799, Note_on_c, 9, 74, 38
4, 172835, Note_on_c, 9, 68, 69
4, 173069, Note_on_c, 9, 68, 0
4, 173669, Note_on_c, 9, 74, 0
4, 173733, Note_on_c, 9, 73, 39
4, 173827, Note_on_c, 9, 64, 22
4, 173844, Note_on_c, 9, 68, 62
4, 174025, Note_on_c, 9, 73, 0
4, 174119, Note_on_c, 9, 64, 0
4, 174245, Note_on_c, 9, 73, 43
4, 174287, Note_on_c, 9, 64, 57
4, 174325, Note_on_c, 9, 68, 0
4, 174528, Note_on_c, 9, 73, 0
4, 174761, Note_on_c, 9, 64, 0
4, 174795, Note_on_c, 9, 74, 57
4, 174853, Note_on_c, 9, 68, 62
4, 175279, Note_on_c, 9, 68, 0
4, 175364, Note_on_c, 9, 62, 29
4, 175455, Note_on_c, 9, 62, 0
4, 175651, Note_on_c, 9, 62, 57
4, 175658, Note_on_c, 9, 63, 74
4, 175674, Note_on_c, 9, 74, 0
4, 175774, Note_on_c, 9, 68, 67
4, 175784, Note_on_c, 9, 73, 29
4, 175935, Note_on_c, 9, 73, 0
4, 176088, Note_on_c, 9, 63, 0
4, 176122, Note_on_c, 9, 62, 0
4, 176191, Note_on_c, 9, 68, 0
4, 176217, Note_on_c, 9, 62, 46
4, 176222, Note_on_c, 9, 73, 44
4, 176223, Note_on_c, 9, 63, 83
4, 176539, Note_on_c, 9, 73, 0
4, 176696, Note_on_c, 9, 62, 0
4, 176707, Note_on_c, 9, 74, 68
4, 176709, Note_on_c, 9, 63, 0
4, 176765, Note_on_c, 9, 68, 40
4, 177070, Note_on_c, 9, 68, 0
4, 177142, Note_on_c, 9, 62, 32
4, 177285, Note_on_c, 9, 62, 0
4, 177555, Note_on_c, 9, 64, 32
4, 177613, Note_on_c, 9, 74, 0
4, 177637, Note_on_c, 9, 68, 74
4, 177650, Note_on_c, 9, 73, 44
4, 177853, Note_on_c, 9, 73, 0
4, 177945, Note_on_c, 9, 64, 0
4, 178103, Note_on_c, 9, 73, 39
4, 178110, Note_on_c, 9, 68, 0
4, 178115, Note_on_c, 9, 64, 71
4, 178445, Note_on_c, 9, 73, 0
4, 178587, Note_on_c, 9, 68, 49
4, 178600, Note_on_c, 9, 74, 65
4, 178637, Note_on_c, 9, 64, 0
4, 178788, Note_on_c, 9, 68, 0
4, 179441, Note_on_c, 9, 74, 0
4, 179473, Note_on_c, 9, 63, 34
4, 179543, Note_on_c, 9, 68, 77
4, 179553, Note_on_c, 9, 73, 36
4, 179833, Note_on_c, 9, 63, 0
4, 179845, Note_on_c, 9, 73, 0
4, 179973, Note_on_c, 9, 68, 0
4, 180005, Note_on_c, 9, 63, 85
4, 180039, Note_on_c, 9, 62, 77
4, 180077, Note_on_c, 9, 73, 42
4, 180439, Note_on_c, 9, 73, 0
4, 180567, Note_on_c, 9, 68, 19
4, 180576, Note_on_c, 9, 74, 61
4, 180615, Note_on_c, 9, 63, 0
4, 180750, Note_on_c, 9, 62, 0
4, 180960, Note_on_c, 9, 68, 0
4, 181026, Note_on_c, 9, 62, 26
4, 181171, Note_on_c, 9, 62, 0
4, 181415, Note_on_c, 9, 74, 0
4, 181485, Note_on_c, 9, 64, 27
4, 181490, Note_on_c, 9, 68, 80
4, 181494, Note_on_c, 9, 73, 29
4, 181715, Note_on_c, 9, 73, 0
4, 181834, Note_on_c, 9, 64, 0
4, 181969, Note_on_c, 9, 68, 0
4, 181997, Note_on_c, 9, 64, 87
4, 182000, Note_on_c, 9, 73, 35
4, 182331, Note_on_c, 9, 73, 0
4, 182357, Note_on_c, 9, 64, 0
4, 182431, Note_on_c, 9, 68, 26
4, 182466, Note_on_c, 9, 74, 65
4, 182478, Note_on_c, 9, 64, 91
4, 182861, Note_on_c, 9, 68, 0
4, 183035, Note_on_c, 9, 64, 0
4, 183114, Note_on_c, 9, 62, 24
4, 183331, Note_on_c, 9, 74, 0
4, 183379, Note_on_c, 9, 62, 0
4, 183411, Note_on_c, 9, 68, 73
4, 183477, Note_on_c, 9, 73, 25
4, 183773, Note_on_c, 9, 73, 0
4, 183906, Note_on_c, 9, 68, 0
4, 183914, Note_on_c, 9, 63, 82
4, 183934, Note_on_c, 9, 62, 66
4, 183949, Note_on_c, 9, 73, 34
4, 184340, Note_on_c, 9, 73, 0
4, 184392, Note_on_c, 9, 68, 46
4, 184431, Note_on_c, 9, 74, 46
4, 184501, Note_on_c, 9, 62, 0
4, 184527, Note_on_c, 9, 63, 0
4, 184806, Note_on_c, 9, 64, 52
4, 184855, Note_on_c, 9, 68, 0
4, 185068, Note_on_c, 9, 64, 0
4, 185272, Note_on_c, 9, 74, 0
4, 185291, Note_on_c, 9, 64, 60
4, 185341, Note_on_c, 9, 68, 82
4, 185385, Note_on_c, 9, 73, 32
4, 185634, Note_on_c, 9, 73, 0
4, 185693, Note_on_c, 9, 64, 0
4, 185844, Note_on_c, 9, 68, 0
4, 185861, Note_on_c, 9, 64, 79
4, 185864, Note_on_c, 9, 73, 37
4, 186219, Note_on_c, 9, 73, 0
4, 186337, Note_on_c, 9, 68, 53
4, 186352, Note_on_c, 9, 74, 47
4, 186814, Note_on_c, 9, 68, 0
4, 186892, Note_on_c, 9, 64, 0
4, 187169, Note_on_c, 9, 74, 0
4, 187229, Note_on_c, 9, 68, 78
4, 187252, Note_on_c, 9, 62, 18
4, 187281, Note_on_c, 9, 73, 37
4, 187351, Note_on_c, 9, 62, 0
4, 187604, Note_on_c, 9, 73, 0
4, 187718, Note_on_c, 9, 63, 80
4, 187749, Note_on_c, 9, 62, 60
4, 187761, Note_on_c, 9, 73, 59
4, 187788, Note_on_c, 9, 68, 0
4, 188138, Note_on_c, 9, 73, 0
4, 188207, Note_on_c, 9, 68, 69
4, 188229, Note_on_c, 9, 74, 75
4, 188239, Note_on_c, 9, 62, 0
4, 188513, Note_on_c, 9, 63, 0
4, 188735, Note_on_c, 9, 68, 0
4, 189067, Note_on_c, 9, 64, 48
4, 189077, Note_on_c, 9, 74, 0
4, 189168, Note_on_c, 9, 68, 81
4, 189194, Note_on_c, 9, 73, 25
4, 189445, Note_on_c, 9, 64, 0
4, 189465, Note_on_c, 9, 73, 0
4, 189672, Note_on_c, 9, 64, 58
4, 189679, Note_on_c, 9, 73, 38
4, 189722, Note_on_c, 9, 68, 0
4, 189949, Note_on_c, 9, 73, 0
4, 190158, Note_on_c, 9, 74, 58
4, 190161, Note_on_c, 9, 68, 46
4, 190496, Note_on_c, 9, 64, 0
4, 190513, Note_on_c, 9, 63, 86
4, 190695, Note_on_c, 9, 73, 48
4, 190702, Note_on_c, 9, 68, 0
4, 190752, Note_on_c, 9, 74, 0
4, 190903, Note_on_c, 9, 73, 0
4, 190970, Note_on_c, 9, 63, 0
4, 191061, Note_on_c, 9, 63, 77
4, 191102, Note_on_c, 9, 68, 83
4, 191110, Note_on_c, 9, 73, 36
4, 191298, Note_on_c, 9, 73, 0
4, 191591, Note_on_c, 9, 73, 46
4, 191636, Note_on_c, 9, 68, 0
4, 191726, Note_on_c, 9, 63, 0
4, 191912, Note_on_c, 9, 73, 0
4, 192033, Note_on_c, 9, 74, 49
4, 192073, Note_on_c, 9, 68, 46
4, 192574, Note_on_c, 9, 68, 0
4, 192881, Note_on_c, 9, 74, 0
4, 192956, Note_on_c, 9, 68, 78
4, 192991, Note_on_c, 9, 73, 27
4, 192997, Note_on_c, 9, 64, 30
4, 193221, Note_on_c, 9, 73, 0
4, 193382, Note_on_c, 9, 64, 0
4, 193426, Note_on_c, 9, 73, 42
4, 193507, Note_on_c, 9, 64, 94
4, 193508, Note_on_c, 9, 68, 0
4, 193654, Note_on_c, 9, 73, 0
4, 193883, Note_on_c, 9, 74, 64
4, 193961, Note_on_c, 9, 68, 42
4, 194478, Note_on_c, 9, 68, 0
4, 194503, Note_on_c, 9, 64, 0
4, 194760, Note_on_c, 9, 74, 0
4, 194856, Note_on_c, 9, 62, 35
4, 194859, Note_on_c, 9, 73, 30
4, 194880, Note_on_c, 9, 68, 83
4, 194929, Note_on_c, 9, 63, 33
4, 195157, Note_on_c, 9, 73, 0
4, 195322, Note_on_c, 9, 62, 0
4, 195349, Note_on_c, 9, 73, 46
4, 195396, Note_on_c, 9, 68, 0
4, 195495, Note_on_c, 9, 63, 0
4, 195630, Note_on_c, 9, 73, 0
4, 195858, Note_on_c, 9, 68, 44
4, 195893, Note_on_c, 9, 74, 70
4, 196434, Note_on_c, 9, 68, 0
4, 196716, Note_on_c, 9, 74, 0
4, 196776, Note_on_c, 9, 68, 82
4, 196802, Note_on_c, 9, 73, 34
4, 196870, Note_on_c, 9, 64, 29
4, 197061, Note_on_c, 9, 73, 0
4, 197078, Note_on_c, 9, 64, 0
4, 197275, Note_on_c, 9, 73, 37
4, 197395, Note_on_c, 9, 68, 0
4, 197396, Note_on_c, 9, 64, 49
4, 197597, Note_on_c, 9, 73, 0
4, 197788, Note_on_c, 9, 68, 51
4, 197794, Note_on_c, 9, 74, 68
4, 198274, Note_on_c, 9, 64, 0
4, 198311, Note_on_c, 9, 68, 0
4, 198620, Note_on_c, 9, 74, 0
4, 198708, Note_on_c, 9, 73, 28
4, 198739, Note_on_c, 9, 68, 80
4, 198787, Note_on_c, 9, 63, 54
4, 198977, Note_on_c, 9, 73, 0
4, 199023, Note_on_c, 9, 63, 0
4, 199185, Note_on_c, 9, 73, 43
4, 199313, Note_on_c, 9, 68, 0
4, 199359, Note_on_c, 9, 62, 51
4, 199383, Note_on_c, 9, 63, 64
4, 199505, Note_on_c, 9, 73, 0
4, 199708, Note_on_c, 9, 76, 62
4, 199712, Note_on_c, 9, 74, 66
4, 199749, Note_on_c, 9, 63, 0
4, 199809, Note_on_c, 9, 62, 0
4, 200006, Note_on_c, 9, 63, 53
4, 200008, Note_on_c, 9, 76, 0
4, 200187, Note_on_c, 9, 62, 31
4, 200330, Note_on_c, 9, 63, 0
4, 200456, Note_on_c, 9, 62, 0
4, 200565, Note_on_c, 9, 74, 0
4, 200604, Note_on_c, 9, 73, 40
4, 200686, Note_on_c, 9, 63, 64
4, 200689, Note_on_c, 9, 68, 84
4, 200701, Note_on_c, 9, 62, 40
4, 200991, Note_on_c, 9, 73, 0
4, 201193, Note_on_c, 9, 62, 0
4, 201227, Note_on_c, 9, 63, 0
4, 201376, Note_on_c, 9, 68, 0
4, 201604, Note_on_c, 9, 64, 24
4, 201622, Note_on_c, 9, 74, 42
4, 201727, Note_on_c, 9, 68, 46
4, 201779, Note_on_c, 9, 64, 0
4, 201943, Note_on_c, 9, 68, 0
4, 202143, Note_on_c, 9, 64, 68
4, 202445, Note_on_c, 9, 64, 0
4, 202508, Note_on_c, 9, 74, 0
4, 202652, Note_on_c, 9, 68, 83
4, 202654, Note_on_c, 9, 73, 29
4, 202679, Note_on_c, 9, 64, 39
4, 202894, Note_on_c, 9, 73, 0
4, 203077, Note_on_c, 9, 73, 26
4, 203164, Note_on_c, 9, 68, 0
4, 203287, Note_on_c, 9, 64, 0
4, 203360, Note_on_c, 9, 73, 0
4, 203579, Note_on_c, 9, 74, 69
4, 203681, Note_on_c, 9, 68, 15
4, 203882, Note_on_c, 9, 68, 0
4, 204230, Note_on_c, 9, 74, 0
4, 204509, Note_on_c, 9, 68, 71
4, 205070, Note_on_c, 9, 68, 0
4, 205518, Note_on_c, 9, 68, 62
4, 205990, Note_on_c, 9, 68, 0
4, 206458, Note_on_c, 9, 68, 67
4, 206960, Note_on_c, 9, 68, 0
4, 207412, Note_on_c, 9, 68, 52
4, 207750, Note_on_c, 9, 68, 0
4, 208322, Note_on_c, 9, 68, 67
4, 208724, Note_on_c, 9, 68, 0
4, 209251, Note_on_c, 9, 68, 64
4, 209642, Note_on_c, 9, 68, 0
4, 210183, Note_on_c, 9, 68, 67
4, 210576, Note_on_c, 9, 68, 0
4, 211144, Note_on_c, 9, 68, 71
4, 211557, Note_on_c, 9, 68, 0
4, 212122, Note_on_c, 9, 68, 61
4, 212508, Note_on_c, 9, 68, 0
4, 213115, Note_on_c, 9, 68, 75
4, 213517, Note_on_c, 9, 68, 0
4, 214094, Note_on_c, 9, 68, 71
4, 214520, Note_on_c, 9, 68, 0
4, 215045, Note_on_c, 9, 68, 70
4, 215474, Note_on_c, 9, 68, 0
4, 216021, Note_on_c, 9, 68, 71
4, 216571, Note_on_c, 9, 68, 0
4, 217006, Note_on_c, 9, 68, 67
4, 217346, Note_on_c, 9, 68, 0
4, 217997, Note_on_c, 9, 68, 74
4, 218344, Note_on_c, 9, 68, 0
4, 218984, Note_on_c, 9, 68, 79
4, 219360, Note_on_c, 9, 38, 51
4, 219360, Note_on_c, 9, 36, 51
4, 219512, Note_on_c, 9, 68, 0
4, 219720, Note_on_c, 9, 36, 0
4, 219720, Note_on_c, 9, 38, 0
4, 219840, Note_on_c, 9, 38, 51
4, 219840, Note_on_c, 9, 36, 51
4, 219947, Note_on_c, 9, 68, 82
4, 219960, Note_on_c, 9, 38, 0
4, 220200, Note_on_c, 9, 36, 0
4, 220320, Note_on_c, 9, 38, 51
4, 220320, Note_on_c, 9, 36, 51
4, 220320, Note_on_c, 9, 57, 25
4, 220440, Note_on_c, 9, 38, 0
4, 220459, Note_on_c, 9, 68, 0
4, 220680, Note_on_c, 9, 36, 0
4, 220680, Note_on_c, 9, 57, 0
4, 223200, Note_on_c, 9, 36, 51
4, 223200, Note_on_c, 9, 38, 51
4, 223320, Note_on_c, 9, 38, 0
4, 223320, Note_on_c, 9, 36, 0
4, 223680, Note_on_c, 9, 36, 51
4, 223680, Note_on_c, 9, 38, 51
4, 223800, Note_on_c, 9, 38, 0
4, 223800, Note_on_c, 9, 36, 0
4, 224160, Note_on_c, 9, 36, 51
4, 224160, Note_on_c, 9, 38, 51
4, 224160, Note_on_c, 9, 57, 25
4, 224280, Note_on_c, 9, 57, 0
4, 224280, Note_on_c, 9, 38, 0
4, 224280, Note_on_c, 9, 36, 0
4, 225600, Note_on_c, 9, 36, 10
4, 225738, Note_on_c, 9, 36, 0
4, 225920, Note_on_c, 9, 36, 16
4, 226061, Note_on_c, 9, 36, 0
4, 226240, Note_on_c, 9, 36, 23
4, 226413, Note_on_c, 9, 36, 0
4, 226560, Note_on_c, 9, 36, 30
4, 226796, Note_on_c, 9, 36, 0
4, 226880, Note_on_c, 9, 36, 36
4, 227100, Note_on_c, 9, 36, 0
4, 227200, Note_on_c, 9, 47, 43
4, 227469, Note_on_c, 9, 47, 0
4, 227520, Note_on_c, 9, 45, 50
4, 227678, Note_on_c, 9, 45, 0
4, 227840, Note_on_c, 9, 43, 56
4, 227935, Note_on_c, 9, 43, 0
4, 228160, Note_on_c, 9, 41, 63
4, 228480, Note_on_c, 9, 41, 0
4, 228480, Note_on_c, 9, 38, 53
4, 228480, Note_on_c, 9, 36, 74
4, 228480, Note_on_c, 9, 57, 18
4, 228800, Note_on_c, 9, 57, 0
4, 228800, Note_on_c, 9, 36, 0
4, 228800, Note_on_c, 9, 36, 53
4, 228840, Note_on_c, 9, 38, 0
4, 229120, Note_on_c, 9, 36, 0
4, 230040, Note_on_c, 9, 38, 53
4, 230040, Note_on_c, 9, 36, 53
4, 230080, Note_on_c, 9, 57, 38
4, 230400, Note_on_c, 9, 57, 0
4, 230400, Note_on_c, 9, 36, 0
4, 230400, Note_on_c, 9, 38, 0
4, 230880, Note_on_c, 9, 36, 53
4, 231240, Note_on_c, 9, 36, 0
4, 231480, Note_on_c, 9, 36, 53
4, 231480, Note_on_c, 9, 57, 26
4, 231840, Note_on_c, 9, 57, 0
4, 231840, Note_on_c, 9, 36, 0
4, 234291, Note_on_c, 9, 74, 43
4, 234313, Note_on_c, 9, 68, 47
4, 234538, Note_on_c, 9, 68, 0
4, 235126, Note_on_c, 9, 74, 0
4, 235234, Note_on_c, 9, 73, 22
4, 235283, Note_on_c, 9, 68, 53
4, 235472, Note_on_c, 9, 73, 0
4, 235645, Note_on_c, 9, 68, 0
4, 235733, Note_on_c, 9, 73, 30
4, 235951, Note_on_c, 9, 73, 0
4, 236179, Note_on_c, 9, 74, 39
4, 236212, Note_on_c, 9, 68, 35
4, 236444, Note_on_c, 9, 68, 0
4, 237069, Note_on_c, 9, 74, 0
4, 237122, Note_on_c, 9, 73, 26
4, 237190, Note_on_c, 9, 68, 79
4, 237307, Note_on_c, 9, 73, 0
4, 237616, Note_on_c, 9, 68, 0
4, 237667, Note_on_c, 9, 73, 42
4, 237802, Note_on_c, 9, 73, 0
4, 238106, Note_on_c, 9, 74, 56
4, 238157, Note_on_c, 9, 68, 37
4, 238513, Note_on_c, 9, 68, 0
4, 238950, Note_on_c, 9, 74, 0
4, 239029, Note_on_c, 9, 73, 25
4, 239052, Note_on_c, 9, 64, 48
4, 239087, Note_on_c, 9, 68, 64
4, 239173, Note_on_c, 9, 73, 0
4, 239246, Note_on_c, 9, 64, 0
4, 239535, Note_on_c, 9, 68, 0
4, 239548, Note_on_c, 9, 73, 31
4, 239566, Note_on_c, 9, 64, 69
4, 239676, Note_on_c, 9, 73, 0
4, 240039, Note_on_c, 9, 64, 0
4, 240052, Note_on_c, 9, 74, 37
4, 240100, Note_on_c, 9, 68, 37
4, 240553, Note_on_c, 9, 68, 0
4, 240597, Note_on_c, 9, 62, 30
4, 240688, Note_on_c, 9, 62, 0
4, 240816, Note_on_c, 9, 74, 0
4, 240922, Note_on_c, 9, 73, 24
4, 241010, Note_on_c, 9, 68, 77
4, 241032, Note_on_c, 9, 63, 25
4, 241169, Note_on_c, 9, 73, 0
4, 241383, Note_on_c, 9, 63, 0
4, 241445, Note_on_c, 9, 73, 26
4, 241513, Note_on_c, 9, 68, 0
4, 241522, Note_on_c, 9, 63, 69
4, 241712, Note_on_c, 9, 73, 0
4, 241836, Note_on_c, 9, 63, 0
4, 241906, Note_on_c, 9, 74, 41
4, 241953, Note_on_c, 9, 68, 35
4, 242476, Note_on_c, 9, 68, 0
4, 242476, Note_on_c, 9, 62, 22
4, 242638, Note_on_c, 9, 62, 0
4, 242798, Note_on_c, 9, 74, 0
4, 242858, Note_on_c, 9, 68, 72
4, 242926, Note_on_c, 9, 73, 24
4, 242958, Note_on_c, 9, 64, 32
4, 243112, Note_on_c, 9, 73, 0
4, 243203, Note_on_c, 9, 64, 0
4, 243339, Note_on_c, 9, 68, 0
4, 243404, Note_on_c, 9, 64, 87
4, 243430, Note_on_c, 9, 73, 25
4, 243626, Note_on_c, 9, 73, 0
4, 243845, Note_on_c, 9, 68, 49
4, 243878, Note_on_c, 9, 74, 40
4, 244097, Note_on_c, 9, 68, 0
4, 244426, Note_on_c, 9, 64, 0
4, 244706, Note_on_c, 9, 74, 0
4, 244781, Note_on_c, 9, 62, 27
4, 244801, Note_on_c, 9, 63, 49
4, 244827, Note_on_c, 9, 73, 24
4, 244834, Note_on_c, 9, 68, 72
4, 245011, Note_on_c, 9, 73, 0
4, 245214, Note_on_c, 9, 63, 0
4, 245223, Note_on_c, 9, 62, 0
4, 245271, Note_on_c, 9, 68, 0
4, 245344, Note_on_c, 9, 73, 28
4, 245364, Note_on_c, 9, 63, 73
4, 245384, Note_on_c, 9, 62, 73
4, 245541, Note_on_c, 9, 73, 0
4, 245837, Note_on_c, 9, 74, 51
4, 245854, Note_on_c, 9, 68, 32
4, 245905, Note_on_c, 9, 63, 0
4, 245923, Note_on_c, 9, 62, 0
4, 246336, Note_on_c, 9, 68, 0
4, 246398, Note_on_c, 9, 62, 22
4, 246473, Note_on_c, 9, 62, 0
4, 246665, Note_on_c, 9, 74, 0
4, 246713, Note_on_c, 9, 64, 46
4, 246757, Note_on_c, 9, 68, 71
4, 246775, Note_on_c, 9, 73, 28
4, 246974, Note_on_c, 9, 73, 0
4, 247020, Note_on_c, 9, 64, 0
4, 247252, Note_on_c, 9, 64, 75
4, 247256, Note_on_c, 9, 73, 34
4, 247270, Note_on_c, 9, 68, 0
4, 247490, Note_on_c, 9, 73, 0
4, 247711, Note_on_c, 9, 74, 46
4, 247718, Note_on_c, 9, 68, 49
4, 248120, Note_on_c, 9, 68, 0
4, 248297, Note_on_c, 9, 62, 22
4, 248374, Note_on_c, 9, 62, 0
4, 248427, Note_on_c, 9, 64, 0
4, 248590, Note_on_c, 9, 74, 0
4, 248632, Note_on_c, 9, 73, 33
4, 248654, Note_on_c, 9, 68, 79
4, 248705, Note_on_c, 9, 63, 25
4, 248826, Note_on_c, 9, 73, 0
4, 248840, Note_on_c, 9, 63, 0
4, 249131, Note_on_c, 9, 73, 30
4, 249138, Note_on_c, 9, 68, 0
4, 249140, Note_on_c, 9, 63, 70
4, 249144, Note_on_c, 9, 62, 47
4, 249254, Note_on_c, 9, 73, 0
4, 249522, Note_on_c, 9, 62, 0
4, 249597, Note_on_c, 9, 74, 46
4, 249634, Note_on_c, 9, 68, 47
4, 249666, Note_on_c, 9, 63, 0
4, 250085, Note_on_c, 9, 64, 60
4, 250127, Note_on_c, 9, 68, 0
4, 250301, Note_on_c, 9, 64, 0
4, 250420, Note_on_c, 9, 74, 0
4, 250526, Note_on_c, 9, 73, 27
4, 250580, Note_on_c, 9, 68, 78
4, 250611, Note_on_c, 9, 64, 75
4, 250756, Note_on_c, 9, 73, 0
4, 250966, Note_on_c, 9, 68, 0
4, 251016, Note_on_c, 9, 73, 31
4, 251211, Note_on_c, 9, 73, 0
4, 251297, Note_on_c, 9, 64, 0
4, 251522, Note_on_c, 9, 74, 40
4, 251619, Note_on_c, 9, 68, 31
4, 252092, Note_on_c, 9, 68, 0
4, 252392, Note_on_c, 9, 74, 0
4, 252483, Note_on_c, 9, 73, 24
4, 252496, Note_on_c, 9, 62, 22
4, 252509, Note_on_c, 9, 63, 35
4, 252553, Note_on_c, 9, 68, 72
4, 252672, Note_on_c, 9, 73, 0
4, 252739, Note_on_c, 9, 62, 0
4, 252801, Note_on_c, 9, 63, 0
4, 252984, Note_on_c, 9, 68, 0
4, 253000, Note_on_c, 9, 63, 79
4, 253006, Note_on_c, 9, 73, 33
4, 253053, Note_on_c, 9, 62, 61
4, 253079, Note_on_c, 9, 73, 0
4, 253445, Note_on_c, 9, 74, 45
4, 253540, Note_on_c, 9, 68, 18
4, 253693, Note_on_c, 9, 62, 0
4, 253761, Note_on_c, 9, 63, 0
4, 253896, Note_on_c, 9, 68, 0
4, 254037, Note_on_c, 9, 64, 34
4, 254284, Note_on_c, 9, 74, 0
4, 254329, Note_on_c, 9, 64, 0
4, 254410, Note_on_c, 9, 73, 26
4, 254463, Note_on_c, 9, 68, 69
4, 254486, Note_on_c, 9, 64, 71
4, 254510, Note_on_c, 9, 73, 0
4, 254916, Note_on_c, 9, 68, 0
4, 254918, Note_on_c, 9, 73, 29
4, 255108, Note_on_c, 9, 73, 0
4, 255170, Note_on_c, 9, 64, 0
4, 255380, Note_on_c, 9, 68, 31
4, 255393, Note_on_c, 9, 74, 37
4, 255803, Note_on_c, 9, 74, 0
4, 255837, Note_on_c, 9, 73, 36
4, 255865, Note_on_c, 9, 68, 0
4, 256015, Note_on_c, 9, 73, 0
4, 256303, Note_on_c, 9, 68, 73
4, 256378, Note_on_c, 9, 73, 23
4, 256442, Note_on_c, 9, 62, 19
4, 256462, Note_on_c, 9, 63, 25
4, 256565, Note_on_c, 9, 73, 0
4, 256769, Note_on_c, 9, 68, 0
4, 256789, Note_on_c, 9, 62, 0
4, 256793, Note_on_c, 9, 63, 0
4, 256819, Note_on_c, 9, 73, 24
4, 257047, Note_on_c, 9, 73, 0
4, 257294, Note_on_c, 9, 74, 41
4, 257303, Note_on_c, 9, 68, 34
4, 257767, Note_on_c, 9, 68, 0
4, 258131, Note_on_c, 9, 74, 0
4, 258226, Note_on_c, 9, 73, 26
4, 258277, Note_on_c, 9, 68, 69
4, 258409, Note_on_c, 9, 73, 0
4, 258700, Note_on_c, 9, 73, 26
4, 258740, Note_on_c, 9, 68, 0
4, 258774, Note_on_c, 9, 64, 94
4, 258950, Note_on_c, 9, 73, 0
4, 259230, Note_on_c, 9, 74, 40
4, 259237, Note_on_c, 9, 68, 40
4, 259760, Note_on_c, 9, 68, 0
4, 259787, Note_on_c, 9, 64, 0
4, 259869, Note_on_c, 9, 62, 22
4, 260021, Note_on_c, 9, 62, 0
4, 260032, Note_on_c, 9, 74, 0
4, 260173, Note_on_c, 9, 73, 29
4, 260187, Note_on_c, 9, 63, 28
4, 260191, Note_on_c, 9, 68, 70
4, 260229, Note_on_c, 9, 62, 33
4, 260308, Note_on_c, 9, 73, 0
4, 260405, Note_on_c, 9, 62, 0
4, 260544, Note_on_c, 9, 63, 0
4, 260617, Note_on_c, 9, 73, 30
4, 260714, Note_on_c, 9, 63, 80
4, 260741, Note_on_c, 9, 68, 0
4, 260792, Note_on_c, 9, 62, 68
4, 260855, Note_on_c, 9, 73, 0
4, 261165, Note_on_c, 9, 68, 31
4, 261171, Note_on_c, 9, 74, 57
4, 261253, Note_on_c, 9, 62, 0
4, 261368, Note_on_c, 9, 63, 0
4, 261615, Note_on_c, 9, 74, 0
4, 261620, Note_on_c, 9, 68, 0
4, 261653, Note_on_c, 9, 73, 31
4, 261688, Note_on_c, 9, 62, 35
4, 261765, Note_on_c, 9, 62, 0
4, 261807, Note_on_c, 9, 73, 0
4, 262083, Note_on_c, 9, 68, 69
4, 262132, Note_on_c, 9, 64, 64
4, 262169, Note_on_c, 9, 73, 42
4, 262258, Note_on_c, 9, 73, 0
4, 262302, Note_on_c, 9, 64, 0
4, 262580, Note_on_c, 9, 68, 0
4, 262642, Note_on_c, 9, 73, 57
4, 262682, Note_on_c, 9, 64, 87
4, 262973, Note_on_c, 9, 73, 0
4, 263088, Note_on_c, 9, 68, 23
4, 263116, Note_on_c, 9, 74, 42
4, 263361, Note_on_c, 9, 74, 0
4, 263587, Note_on_c, 9, 73, 26
4, 263613, Note_on_c, 9, 68, 0
4, 263850, Note_on_c, 9, 64, 0
4, 263887, Note_on_c, 9, 73, 0
4, 264024, Note_on_c, 9, 63, 56
4, 264079, Note_on_c, 9, 68, 69
4, 264086, Note_on_c, 9, 73, 32
4, 264247, Note_on_c, 9, 63, 0
4, 264269, Note_on_c, 9, 73, 0
4, 264534, Note_on_c, 9, 73, 32
4, 264563, Note_on_c, 9, 63, 73
4, 264616, Note_on_c, 9, 62, 42
4, 264644, Note_on_c, 9, 68, 0
4, 264755, Note_on_c, 9, 73, 0
4, 264892, Note_on_c, 9, 62, 0
4, 265002, Note_on_c, 9, 74, 44
4, 265068, Note_on_c, 9, 68, 45
4, 265451, Note_on_c, 9, 63, 0
4, 265636, Note_on_c, 9, 68, 0
4, 265832, Note_on_c, 9, 74, 0
4, 265956, Note_on_c, 9, 73, 23
4, 265967, Note_on_c, 9, 64, 32
4, 265998, Note_on_c, 9, 68, 72
4, 266062, Note_on_c, 9, 64, 0
4, 266084, Note_on_c, 9, 73, 0
4, 266386, Note_on_c, 9, 73, 26
4, 266435, Note_on_c, 9, 64, 90
4, 266576, Note_on_c, 9, 73, 0
4, 266601, Note_on_c, 9, 68, 0
4, 266872, Note_on_c, 9, 74, 37
4, 267020, Note_on_c, 9, 68, 28
4, 267502, Note_on_c, 9, 64, 0
4, 267612, Note_on_c, 9, 68, 0
4, 267720, Note_on_c, 9, 74, 0
4, 267859, Note_on_c, 9, 73, 33
4, 267912, Note_on_c, 9, 68, 74
4, 268053, Note_on_c, 9, 73, 0
4, 268345, Note_on_c, 9, 73, 33
4, 268400, Note_on_c, 9, 63, 57
4, 268462, Note_on_c, 9, 68, 0
4, 268530, Note_on_c, 9, 73, 0
4, 268670, Note_on_c, 9, 63, 0
4, 268784, Note_on_c, 9, 74, 46
4, 268844, Note_on_c, 9, 68, 36
4, 269438, Note_on_c, 9, 68, 0
4, 269623, Note_on_c, 9, 74, 0
4, 269741, Note_on_c, 9, 64, 58
4, 269745, Note_on_c, 9, 68, 69
4, 269758, Note_on_c, 9, 73, 28
4, 269943, Note_on_c, 9, 73, 0
4, 270213, Note_on_c, 9, 64, 0
4, 270237, Note_on_c, 9, 73, 33
4, 270242, Note_on_c, 9, 68, 0
4, 270324, Note_on_c, 9, 64, 68
4, 270451, Note_on_c, 9, 73, 0
4, 270513, Note_on_c, 9, 64, 0
4, 270723, Note_on_c, 9, 74, 43
4, 270728, Note_on_c, 9, 68, 29
4, 271295, Note_on_c, 9, 62, 44
4, 271321, Note_on_c, 9, 68, 0
4, 271472, Note_on_c, 9, 62, 0
4, 271514, Note_on_c, 9, 63, 62
4, 271575, Note_on_c, 9, 74, 0
4, 271631, Note_on_c, 9, 63, 0
4, 271668, Note_on_c, 9, 68, 70
4, 271692, Note_on_c, 9, 73, 33
4, 271900, Note_on_c, 9, 73, 0
4, 272121, Note_on_c, 9, 68, 0
4, 272158, Note_on_c, 9, 63, 83
4, 272185, Note_on_c, 9, 73, 31
4, 272196, Note_on_c, 9, 62, 53
4, 272405, Note_on_c, 9, 73, 0
4, 272609, Note_on_c, 9, 68, 34
4, 272611, Note_on_c, 9, 63, 0
4, 272655, Note_on_c, 9, 74, 45
4, 272748, Note_on_c, 9, 62, 0
4, 273115, Note_on_c, 9, 64, 33
4, 273231, Note_on_c, 9, 68, 0
4, 273287, Note_on_c, 9, 64, 0
4, 273483, Note_on_c, 9, 74, 0
4, 273558, Note_on_c, 9, 68, 71
4, 273605, Note_on_c, 9, 64, 64
4, 273620, Note_on_c, 9, 73, 28
4, 273823, Note_on_c, 9, 73, 0
4, 274123, Note_on_c, 9, 73, 33
4, 274163, Note_on_c, 9, 68, 0
4, 274296, Note_on_c, 9, 64, 0
4, 274348, Note_on_c, 9, 73, 0
4, 274556, Note_on_c, 9, 68, 39
4, 274629, Note_on_c, 9, 74, 49
4, 275128, Note_on_c, 9, 68, 0
4, 275461, Note_on_c, 9, 74, 0
4, 275532, Note_on_c, 9, 68, 53
4, 275543, Note_on_c, 9, 63, 48
4, 275565, Note_on_c, 9, 73, 34
4, 275797, Note_on_c, 9, 73, 0
4, 275927, Note_on_c, 9, 63, 0
4, 276068, Note_on_c, 9, 73, 34
4, 276069, Note_on_c, 9, 68, 0
4, 276115, Note_on_c, 9, 63, 63
4, 276369, Note_on_c, 9, 73, 0
4, 276404, Note_on_c, 9, 63, 0
4, 276543, Note_on_c, 9, 74, 48
4, 276565, Note_on_c, 9, 68, 29
4, 276994, Note_on_c, 9, 64, 66
4, 277179, Note_on_c, 9, 64, 0
4, 277210, Note_on_c, 9, 68, 0
4, 277393, Note_on_c, 9, 74, 0
4, 277475, Note_on_c, 9, 73, 37
4, 277475, Note_on_c, 9, 68, 69
4, 277548, Note_on_c, 9, 64, 62
4, 277716, Note_on_c, 9, 73, 0
4, 277921, Note_on_c, 9, 64, 0
4, 277961, Note_on_c, 9, 68, 0
4, 277970, Note_on_c, 9, 73, 34
4, 277996, Note_on_c, 9, 63, 79
4, 278014, Note_on_c, 9, 62, 47
4, 278243, Note_on_c, 9, 73, 0
4, 278436, Note_on_c, 9, 63, 0
4, 278440, Note_on_c, 9, 74, 44
4, 278444, Note_on_c, 9, 68, 34
4, 278445, Note_on_c, 9, 62, 0
4, 278915, Note_on_c, 9, 64, 85
4, 279049, Note_on_c, 9, 68, 0
4, 279237, Note_on_c, 9, 74, 0
4, 279273, Note_on_c, 9, 64, 0
4, 279327, Note_on_c, 9, 73, 36
4, 279334, Note_on_c, 9, 68, 74
4, 279350, Note_on_c, 9, 62, 24
4, 279381, Note_on_c, 9, 63, 76
4, 279544, Note_on_c, 9, 63, 0
4, 279608, Note_on_c, 9, 73, 0
4, 279613, Note_on_c, 9, 62, 0
4, 279791, Note_on_c, 9, 73, 33
4, 279831, Note_on_c, 9, 68, 0
4, 279882, Note_on_c, 9, 63, 81
4, 279902, Note_on_c, 9, 62, 35
4, 280058, Note_on_c, 9, 73, 0
4, 280282, Note_on_c, 9, 63, 0
4, 280283, Note_on_c, 9, 74, 46
4, 280317, Note_on_c, 9, 68, 35
4, 280355, Note_on_c, 9, 62, 0
4, 280878, Note_on_c, 9, 64, 26
4, 280920, Note_on_c, 9, 68, 0
4, 280955, Note_on_c, 9, 64, 0
4, 281147, Note_on_c, 9, 74, 0
4, 281244, Note_on_c, 9, 68, 69
4, 281268, Note_on_c, 9, 73, 34
4, 281538, Note_on_c, 9, 73, 0
4, 281677, Note_on_c, 9, 68, 0
4, 281765, Note_on_c, 9, 73, 28
4, 282006, Note_on_c, 9, 73, 0
4, 282211, Note_on_c, 9, 68, 39
4, 282273, Note_on_c, 9, 74, 48
4, 282876, Note_on_c, 9, 68, 0
4, 283119, Note_on_c, 9, 74, 0
4, 283209, Note_on_c, 9, 73, 29
4, 283234, Note_on_c, 9, 68, 64
4, 283238, Note_on_c, 9, 64, 24
4, 283439, Note_on_c, 9, 73, 0
4, 283596, Note_on_c, 9, 64, 0
4, 283719, Note_on_c, 9, 68, 0
4, 283731, Note_on_c, 9, 64, 88
4, 283814, Note_on_c, 9, 74, 42
4, 283971, Note_on_c, 9, 74, 0
4, 284203, Note_on_c, 9, 68, 27
4, 284282, Note_on_c, 9, 74, 55
4, 284817, Note_on_c, 9, 64, 0
4, 284901, Note_on_c, 9, 68, 0
4, 284975, Note_on_c, 9, 74, 0
4, 285086, Note_on_c, 9, 63, 32
4, 285101, Note_on_c, 9, 73, 33
4, 285183, Note_on_c, 9, 68, 72
4, 285477, Note_on_c, 9, 63, 0
4, 285514, Note_on_c, 9, 73, 0
4, 285649, Note_on_c, 9, 62, 36
4, 285660, Note_on_c, 9, 63, 67
4, 285686, Note_on_c, 9, 73, 37
4, 285691, Note_on_c, 9, 68, 0
4, 285901, Note_on_c, 9, 73, 0
4, 285994, Note_on_c, 9, 62, 0
4, 286104, Note_on_c, 9, 63, 0
4, 286137, Note_on_c, 9, 68, 23
4, 286155, Note_on_c, 9, 74, 49
4, 286700, Note_on_c, 9, 68, 0
4, 286919, Note_on_c, 9, 74, 0
4, 287022, Note_on_c, 9, 73, 32
4, 287091, Note_on_c, 9, 68, 60
4, 287329, Note_on_c, 9, 73, 0
4, 287530, Note_on_c, 9, 73, 33
4, 287722, Note_on_c, 9, 68, 0
4, 287890, Note_on_c, 9, 73, 0
4, 288014, Note_on_c, 9, 74, 45
4, 288071, Note_on_c, 9, 68, 45
4, 288619, Note_on_c, 9, 68, 0
4, 288897, Note_on_c, 9, 74, 0
4, 289007, Note_on_c, 9, 73, 40
4, 289019, Note_on_c, 9, 68, 64
4, 289050, Note_on_c, 9, 63, 32
4, 289230, Note_on_c, 9, 73, 0
4, 289361, Note_on_c, 9, 63, 0
4, 289495, Note_on_c, 9, 73, 30
4, 289555, Note_on_c, 9, 63, 55
4, 289608, Note_on_c, 9, 62, 27
4, 289632, Note_on_c, 9, 68, 0
4, 289692, Note_on_c, 9, 73, 0
4, 289849, Note_on_c, 9, 62, 0
4, 289911, Note_on_c, 9, 63, 0
4, 289994, Note_on_c, 9, 74, 49
4, 289994, Note_on_c, 9, 68, 43
4, 290531, Note_on_c, 9, 62, 24
4, 290608, Note_on_c, 9, 68, 0
4, 290611, Note_on_c, 9, 62, 0
4, 290800, Note_on_c, 9, 74, 0
4, 290928, Note_on_c, 9, 73, 34
4, 290953, Note_on_c, 9, 64, 103
4, 290962, Note_on_c, 9, 68, 70
4, 291151, Note_on_c, 9, 73, 0
4, 291394, Note_on_c, 9, 73, 39
4, 291412, Note_on_c, 9, 64, 0
4, 291509, Note_on_c, 9, 64, 96
4, 291569, Note_on_c, 9, 68, 0
4, 291615, Note_on_c, 9, 73, 0
4, 291875, Note_on_c, 9, 74, 60
4, 291920, Note_on_c, 9, 68, 50
4, 292061, Note_on_c, 9, 64, 0
4, 292514, Note_on_c, 9, 68, 0
4, 292728, Note_on_c, 9, 74, 0
4, 292816, Note_on_c, 9, 73, 33
4, 292827, Note_on_c, 9, 68, 69
4, 292870, Note_on_c, 9, 63, 28
4, 293090, Note_on_c, 9, 73, 0
4, 293229, Note_on_c, 9, 63, 0
4, 293326, Note_on_c, 9, 73, 33
4, 293395, Note_on_c, 9, 63, 65
4, 293455, Note_on_c, 9, 62, 25
4, 293463, Note_on_c, 9, 68, 0
4, 293582, Note_on_c, 9, 73, 0
4, 293682, Note_on_c, 9, 62, 0
4, 293698, Note_on_c, 9, 63, 0
4, 293796, Note_on_c, 9, 74, 48
4, 293825, Note_on_c, 9, 68, 54
4, 294402, Note_on_c, 9, 68, 0
4, 294576, Note_on_c, 9, 74, 0
4, 294647, Note_on_c, 9, 64, 60
4, 294706, Note_on_c, 9, 73, 22
4, 294731, Note_on_c, 9, 68, 71
4, 295002, Note_on_c, 9, 73, 0
4, 295186, Note_on_c, 9, 64, 0
4, 295232, Note_on_c, 9, 73, 27
4, 295406, Note_on_c, 9, 68, 0
4, 295510, Note_on_c, 9, 73, 0
4, 295634, Note_on_c, 9, 74, 38
4, 295744, Note_on_c, 9, 68, 39
4, 296316, Note_on_c, 9, 68, 0
4, 296503, Note_on_c, 9, 74, 0
4, 296599, Note_on_c, 9, 62, 29
4, 296608, Note_on_c, 9, 63, 26
4, 296616, Note_on_c, 9, 73, 23
4, 296660, Note_on_c, 9, 68, 67
4, 296826, Note_on_c, 9, 62, 0
4, 296914, Note_on_c, 9, 73, 0
4, 296992, Note_on_c, 9, 63, 0
4, 297153, Note_on_c, 9, 73, 25
4, 297160, Note_on_c, 9, 63, 62
4, 297252, Note_on_c, 9, 68, 0
4, 297466, Note_on_c, 9, 73, 0
4, 297636, Note_on_c, 9, 74, 30
4, 297658, Note_on_c, 9, 68, 45
4, 298213, Note_on_c, 9, 62, 28
4, 298286, Note_on_c, 9, 62, 0
4, 298290, Note_on_c, 9, 63, 0
4, 298301, Note_on_c, 9, 68, 0
4, 298447, Note_on_c, 9, 74, 0
4, 298508, Note_on_c, 9, 73, 22
4, 298635, Note_on_c, 9, 64, 105
4, 298659, Note_on_c, 9, 68, 65
4, 298826, Note_on_c, 9, 73, 0
4, 299052, Note_on_c, 9, 73, 24
4, 299116, Note_on_c, 9, 64, 0
4, 299198, Note_on_c, 9, 64, 94
4, 299264, Note_on_c, 9, 68, 0
4, 299314, Note_on_c, 9, 73, 0
4, 299566, Note_on_c, 9, 74, 60
4, 299617, Note_on_c, 9, 68, 55
4, 299688, Note_on_c, 9, 64, 0
4, 300312, Note_on_c, 9, 68, 0
4, 300493, Note_on_c, 9, 74, 0
4, 300503, Note_on_c, 9, 63, 23
4, 300511, Note_on_c, 9, 73, 32
4, 300593, Note_on_c, 9, 68, 61
4, 300820, Note_on_c, 9, 73, 0
4, 300849, Note_on_c, 9, 63, 0
4, 301030, Note_on_c, 9, 73, 27
4, 301046, Note_on_c, 9, 63, 51
4, 301052, Note_on_c, 9, 62, 20
4, 301235, Note_on_c, 9, 68, 0
4, 301255, Note_on_c, 9, 62, 0
4, 301284, Note_on_c, 9, 63, 0
4, 301363, Note_on_c, 9, 73, 0
4, 301445, Note_on_c, 9, 74, 40
4, 301560, Note_on_c, 9, 68, 54
4, 302218, Note_on_c, 9, 68, 0
4, 302295, Note_on_c, 9, 74, 0
4, 302436, Note_on_c, 9, 73, 23
4, 302437, Note_on_c, 9, 64, 90
4, 302481, Note_on_c, 9, 68, 69
4, 302761, Note_on_c, 9, 73, 0
4, 302942, Note_on_c, 9, 73, 23
4, 303051, Note_on_c, 9, 64, 0
4, 303055, Note_on_c, 9, 68, 0
4, 303273, Note_on_c, 9, 73, 0
4, 303408, Note_on_c, 9, 74, 36
4, 303421, Note_on_c, 9, 68, 48
4, 304106, Note_on_c, 9, 68, 0
4, 304287, Note_on_c, 9, 74, 0
4, 304384, Note_on_c, 9, 68, 64
4, 304412, Note_on_c, 9, 73, 24
4, 304647, Note_on_c, 9, 73, 0
4, 304861, Note_on_c, 9, 73, 24
4, 304881, Note_on_c, 9, 63, 63
4, 304934, Note_on_c, 9, 62, 24
4, 305033, Note_on_c, 9, 68, 0
4, 305111, Note_on_c, 9, 62, 0
4, 305161, Note_on_c, 9, 63, 0
4, 305168, Note_on_c, 9, 73, 0
4, 305331, Note_on_c, 9, 74, 38
4, 305336, Note_on_c, 9, 68, 40
4, 306020, Note_on_c, 9, 68, 0
4, 306150, Note_on_c, 9, 74, 0
4, 306190, Note_on_c, 9, 64, 68
4, 306278, Note_on_c, 9, 73, 21
4, 306283, Note_on_c, 9, 68, 74
4, 306466, Note_on_c, 9, 73, 0
4, 306758, Note_on_c, 9, 64, 0
4, 306764, Note_on_c, 9, 73, 43
4, 306846, Note_on_c, 9, 68, 0
4, 307020, Note_on_c, 9, 73, 0
4, 307221, Note_on_c, 9, 73, 39
4, 307224, Note_on_c, 9, 68, 32
4, 307475, Note_on_c, 9, 73, 0
4, 307963, Note_on_c, 9, 68, 0
4, 308153, Note_on_c, 9, 62, 29
4, 308199, Note_on_c, 9, 68, 71
4, 308290, Note_on_c, 9, 73, 18
4, 308323, Note_on_c, 9, 62, 0
4, 308365, Note_on_c, 9, 73, 0
4, 308665, Note_on_c, 9, 62, 115
4, 308720, Note_on_c, 9, 73, 24
4, 308793, Note_on_c, 9, 68, 0
4, 308833, Note_on_c, 9, 73, 0
4, 308994, Note_on_c, 9, 62, 0
4, 309103, Note_on_c, 9, 68, 29
4, 309113, Note_on_c, 9, 74, 37
4, 309131, Note_on_c, 9, 62, 94
4, 309580, Note_on_c, 9, 62, 0
4, 309851, Note_on_c, 9, 68, 0
4, 309930, Note_on_c, 9, 74, 0
4, 310034, Note_on_c, 9, 64, 36
4, 310069, Note_on_c, 9, 73, 29
4, 310092, Note_on_c, 9, 68, 64
4, 310275, Note_on_c, 9, 73, 0
4, 310507, Note_on_c, 9, 73, 24
4, 310527, Note_on_c, 9, 64, 0
4, 310628, Note_on_c, 9, 64, 95
4, 310736, Note_on_c, 9, 73, 0
4, 310787, Note_on_c, 9, 68, 0
4, 310992, Note_on_c, 9, 74, 43
4, 311096, Note_on_c, 9, 68, 35
4, 311209, Note_on_c, 9, 64, 0
4, 311757, Note_on_c, 9, 68, 0
4, 311876, Note_on_c, 9, 74, 0
4, 311990, Note_on_c, 9, 73, 25
4, 312046, Note_on_c, 9, 68, 67
4, 312213, Note_on_c, 9, 73, 0
4, 312536, Note_on_c, 9, 73, 28
4, 312684, Note_on_c, 9, 68, 0
4, 312726, Note_on_c, 9, 73, 0
4, 313008, Note_on_c, 9, 68, 31
4, 313068, Note_on_c, 9, 74, 49
4, 313494, Note_on_c, 9, 63, 91
4, 313585, Note_on_c, 9, 74, 0
4, 313711, Note_on_c, 9, 68, 0
4, 313788, Note_on_c, 9, 73, 21
4, 313868, Note_on_c, 9, 63, 0
4, 314006, Note_on_c, 9, 68, 62
4, 314044, Note_on_c, 9, 63, 67
4, 314092, Note_on_c, 9, 73, 0
4, 314344, Note_on_c, 9, 63, 0
4, 314441, Note_on_c, 9, 73, 25
4, 314503, Note_on_c, 9, 68, 0
4, 314695, Note_on_c, 9, 73, 0
4, 314881, Note_on_c, 9, 68, 39
4, 314949, Note_on_c, 9, 74, 46
4, 314961, Note_on_c, 9, 64, 46
4, 315367, Note_on_c, 9, 64, 0
4, 315486, Note_on_c, 9, 64, 90
4, 315601, Note_on_c, 9, 68, 0
4, 315773, Note_on_c, 9, 74, 0
4, 315844, Note_on_c, 9, 64, 0
4, 315848, Note_on_c, 9, 68, 69
4, 316380, Note_on_c, 9, 73, 62
4, 316433, Note_on_c, 9, 68, 0
4, 316676, Note_on_c, 9, 73, 0
4, 316822, Note_on_c, 9, 68, 28
4, 316848, Note_on_c, 9, 74, 27
4, 317500, Note_on_c, 9, 68, 0
4, 317749, Note_on_c, 9, 74, 0
4, 317771, Note_on_c, 9, 68, 65
4, 317809, Note_on_c, 9, 64, 25
4, 317828, Note_on_c, 9, 73, 24
4, 317994, Note_on_c, 9, 64, 0
4, 318091, Note_on_c, 9, 73, 0
4, 318307, Note_on_c, 9, 73, 27
4, 318314, Note_on_c, 9, 64, 81
4, 318354, Note_on_c, 9, 68, 0
4, 318537, Note_on_c, 9, 73, 0
4, 318740, Note_on_c, 9, 68, 30
4, 318756, Note_on_c, 9, 74, 39
4, 319048, Note_on_c, 9, 64, 0
4, 319425, Note_on_c, 9, 68, 0
4, 319621, Note_on_c, 9, 74, 0
4, 319694, Note_on_c, 9, 68, 64
4, 319697, Note_on_c, 9, 63, 35
4, 319738, Note_on_c, 9, 73, 23
4, 319750, Note_on_c, 9, 62, 25
4, 319898, Note_on_c, 9, 62, 0
4, 319941, Note_on_c, 9, 73, 0
4, 320081, Note_on_c, 9, 63, 0
4, 320215, Note_on_c, 9, 73, 46
4, 320216, Note_on_c, 9, 63, 69
4, 320226, Note_on_c, 9, 68, 0
4, 320255, Note_on_c, 9, 62, 41
4, 320520, Note_on_c, 9, 73, 0
4, 320624, Note_on_c, 9, 68, 31
4, 320664, Note_on_c, 9, 62, 0
4, 320791, Note_on_c, 9, 74, 33
4, 320928, Note_on_c, 9, 74, 0
4, 320946, Note_on_c, 9, 63, 0
4, 321192, Note_on_c, 9, 62, 24
4, 321289, Note_on_c, 9, 62, 0
4, 321290, Note_on_c, 9, 73, 21
4, 321350, Note_on_c, 9, 68, 0
4, 321372, Note_on_c, 9, 73, 0
4, 321604, Note_on_c, 9, 68, 68
4, 321829, Note_on_c, 9, 74, 37
4, 321948, Note_on_c, 9, 74, 0
4, 322165, Note_on_c, 9, 64, 63
4, 322253, Note_on_c, 9, 68, 0
4, 322585, Note_on_c, 9, 68, 29
4, 322668, Note_on_c, 9, 74, 26
4, 322878, Note_on_c, 9, 64, 0
4, 322891, Note_on_c, 9, 74, 0
4, 323276, Note_on_c, 9, 68, 0
4, 323428, Note_on_c, 9, 73, 29
4, 323525, Note_on_c, 9, 68, 60
4, 323525, Note_on_c, 9, 62, 24
4, 323582, Note_on_c, 9, 73, 0
4, 323689, Note_on_c, 9, 62, 0
4, 323885, Note_on_c, 9, 73, 34
4, 324066, Note_on_c, 9, 73, 0
4, 324099, Note_on_c, 9, 68, 0
4, 324446, Note_on_c, 9, 74, 48
4, 324468, Note_on_c, 9, 68, 31
4, 325239, Note_on_c, 9, 68, 0
4, 325389, Note_on_c, 9, 74, 0
4, 325470, Note_on_c, 9, 68, 70
4, 325519, Note_on_c, 9, 73, 25
4, 325687, Note_on_c, 9, 73, 0
4, 325956, Note_on_c, 9, 73, 34
4, 325976, Note_on_c, 9, 64, 85
4, 326042, Note_on_c, 9, 68, 0
4, 326142, Note_on_c, 9, 73, 0
4, 326323, Note_on_c, 9, 64, 0
4, 326400, Note_on_c, 9, 74, 57
4, 326418, Note_on_c, 9, 68, 37
4, 326473, Note_on_c, 9, 64, 74
4, 326912, Note_on_c, 9, 64, 0
4, 327029, Note_on_c, 9, 62, 20
4, 327146, Note_on_c, 9, 68, 0
4, 327157, Note_on_c, 9, 62, 0
4, 327307, Note_on_c, 9, 74, 0
4, 327376, Note_on_c, 9, 73, 27
4, 327383, Note_on_c, 9, 68, 67
4, 327537, Note_on_c, 9, 73, 0
4, 327828, Note_on_c, 9, 73, 28
4, 327994, Note_on_c, 9, 68, 0
4, 328016, Note_on_c, 9, 73, 0
4, 328299, Note_on_c, 9, 74, 51
4, 328385, Note_on_c, 9, 68, 31
4, 329067, Note_on_c, 9, 68, 0
4, 329191, Note_on_c, 9, 74, 0
4, 329250, Note_on_c, 9, 73, 32
4, 329297, Note_on_c, 9, 64, 27
4, 329315, Note_on_c, 9, 68, 69
4, 329410, Note_on_c, 9, 64, 0
4, 329500, Note_on_c, 9, 73, 0
4, 329732, Note_on_c, 9, 73, 29
4, 329783, Note_on_c, 9, 64, 79
4, 329913, Note_on_c, 9, 68, 0
4, 330074, Note_on_c, 9, 73, 0
4, 330145, Note_on_c, 9, 64, 0
4, 330257, Note_on_c, 9, 64, 80
4, 330299, Note_on_c, 9, 68, 25
4, 330381, Note_on_c, 9, 74, 46
4, 330754, Note_on_c, 9, 64, 0
4, 330836, Note_on_c, 9, 62, 27
4, 330935, Note_on_c, 9, 62, 0
4, 330957, Note_on_c, 9, 68, 0
4, 331178, Note_on_c, 9, 74, 0
4, 331282, Note_on_c, 9, 68, 67
4, 331299, Note_on_c, 9, 73, 32
4, 331525, Note_on_c, 9, 73, 0
4, 331726, Note_on_c, 9, 63, 76
4, 331761, Note_on_c, 9, 62, 44
4, 331783, Note_on_c, 9, 73, 33
4, 331911, Note_on_c, 9, 68, 0
4, 332019, Note_on_c, 9, 62, 0
4, 332127, Note_on_c, 9, 73, 0
4, 332172, Note_on_c, 9, 63, 0
4, 332256, Note_on_c, 9, 68, 29
4, 332275, Note_on_c, 9, 74, 49
4, 332748, Note_on_c, 9, 62, 28
4, 332830, Note_on_c, 9, 62, 0
4, 332947, Note_on_c, 9, 68, 0
4, 333103, Note_on_c, 9, 74, 0
4, 333201, Note_on_c, 9, 68, 61
4, 333214, Note_on_c, 9, 64, 20
4, 333218, Note_on_c, 9, 73, 33
4, 333349, Note_on_c, 9, 64, 0
4, 333421, Note_on_c, 9, 73, 0
4, 333664, Note_on_c, 9, 64, 63
4, 333673, Note_on_c, 9, 73, 36
4, 333892, Note_on_c, 9, 68, 0
4, 333978, Note_on_c, 9, 73, 0
4, 334126, Note_on_c, 9, 74, 56
4, 334146, Note_on_c, 9, 68, 62
4, 334488, Note_on_c, 9, 64, 0
4, 334815, Note_on_c, 9, 68, 0
4, 335095, Note_on_c, 9, 74, 0
4, 335113, Note_on_c, 9, 73, 29
4, 335124, Note_on_c, 9, 63, 33
4, 335168, Note_on_c, 9, 68, 52
4, 335201, Note_on_c, 9, 63, 0
4, 335325, Note_on_c, 9, 63, 67
4, 335347, Note_on_c, 9, 73, 0
4, 335513, Note_on_c, 9, 63, 0
4, 335605, Note_on_c, 9, 73, 25
4, 335784, Note_on_c, 9, 68, 0
4, 335846, Note_on_c, 9, 62, 22
4, 335883, Note_on_c, 9, 73, 0
4, 336062, Note_on_c, 9, 74, 54
4, 336065, Note_on_c, 9, 62, 0
4, 336087, Note_on_c, 9, 63, 56
4, 336104, Note_on_c, 9, 68, 62
4, 336166, Note_on_c, 9, 63, 0
4, 336343, Note_on_c, 9, 63, 72
4, 336552, Note_on_c, 9, 63, 0
4, 336787, Note_on_c, 9, 62, 38
4, 336793, Note_on_c, 9, 68, 0
4, 336919, Note_on_c, 9, 74, 0
4, 336926, Note_on_c, 9, 62, 0
4, 337007, Note_on_c, 9, 73, 32
4, 337062, Note_on_c, 9, 68, 64
4, 337151, Note_on_c, 9, 64, 59
4, 337255, Note_on_c, 9, 64, 0
4, 337389, Note_on_c, 9, 73, 0
4, 337477, Note_on_c, 9, 73, 18
4, 337700, Note_on_c, 9, 68, 0
4, 337842, Note_on_c, 9, 73, 0
4, 338012, Note_on_c, 9, 74, 50
4, 338038, Note_on_c, 9, 68, 25
4, 338524, Note_on_c, 9, 62, 24
4, 338606, Note_on_c, 9, 62, 0
4, 338670, Note_on_c, 9, 68, 0
4, 338859, Note_on_c, 9, 74, 0
4, 338926, Note_on_c, 9, 68, 67
4, 338943, Note_on_c, 9, 73, 27
4, 339200, Note_on_c, 9, 73, 0
4, 339398, Note_on_c, 9, 73, 32
4, 339460, Note_on_c, 9, 64, 54
4, 339542, Note_on_c, 9, 64, 0
4, 339593, Note_on_c, 9, 68, 0
4, 339760, Note_on_c, 9, 73, 0
4, 339897, Note_on_c, 9, 74, 42
4, 339920, Note_on_c, 9, 68, 37
4, 340368, Note_on_c, 9, 62, 25
4, 340606, Note_on_c, 9, 68, 0
4, 340622, Note_on_c, 9, 62, 0
4, 340787, Note_on_c, 9, 63, 56
4, 340789, Note_on_c, 9, 74, 0
4, 340825, Note_on_c, 9, 68, 75
4, 340847, Note_on_c, 9, 73, 32
4, 340863, Note_on_c, 9, 63, 0
4, 341017, Note_on_c, 9, 63, 64
4, 341081, Note_on_c, 9, 73, 0
4, 341169, Note_on_c, 9, 63, 0
4, 341310, Note_on_c, 9, 73, 30
4, 341487, Note_on_c, 9, 68, 0
4, 341600, Note_on_c, 9, 73, 0
4, 341735, Note_on_c, 9, 63, 63
4, 341788, Note_on_c, 9, 68, 35
4, 341805, Note_on_c, 9, 74, 48
4, 341810, Note_on_c, 9, 63, 0
4, 342015, Note_on_c, 9, 63, 63
4, 342165, Note_on_c, 9, 63, 0
4, 342465, Note_on_c, 9, 68, 0
4, 342633, Note_on_c, 9, 74, 0
4, 342726, Note_on_c, 9, 73, 27
4, 342733, Note_on_c, 9, 68, 73
4, 342737, Note_on_c, 9, 63, 72
4, 342839, Note_on_c, 9, 63, 0
4, 342933, Note_on_c, 9, 73, 0
4, 343031, Note_on_c, 9, 63, 77
4, 343161, Note_on_c, 9, 63, 0
4, 343220, Note_on_c, 9, 73, 28
4, 343379, Note_on_c, 9, 68, 0
4, 343461, Note_on_c, 9, 62, 26
4, 343540, Note_on_c, 9, 73, 0
4, 343592, Note_on_c, 9, 62, 0
4, 343717, Note_on_c, 9, 68, 23
4, 343720, Note_on_c, 9, 63, 73
4, 343737, Note_on_c, 9, 74, 45
4, 343823, Note_on_c, 9, 63, 0
4, 344236, Note_on_c, 9, 64, 80
4, 344347, Note_on_c, 9, 68, 0
4, 344406, Note_on_c, 9, 64, 0
4, 344554, Note_on_c, 9, 74, 0
4, 344642, Note_on_c, 9, 68, 60
4, 344673, Note_on_c, 9, 73, 29
4, 344713, Note_on_c, 9, 64, 56
4, 344945, Note_on_c, 9, 73, 0
4, 344998, Note_on_c, 9, 64, 0
4, 345159, Note_on_c, 9, 73, 32
4, 345241, Note_on_c, 9, 62, 27
4, 345340, Note_on_c, 9, 62, 0
4, 345364, Note_on_c, 9, 68, 0
4, 345532, Note_on_c, 9, 73, 0
4, 345614, Note_on_c, 9, 68, 76
4, 345662, Note_on_c, 9, 74, 49
4, 346325, Note_on_c, 9, 68, 0
4, 346501, Note_on_c, 9, 74, 0
4, 346572, Note_on_c, 9, 73, 33
4, 346630, Note_on_c, 9, 68, 37
4, 346674, Note_on_c, 9, 63, 30
4, 346875, Note_on_c, 9, 73, 0
4, 346923, Note_on_c, 9, 63, 0
4, 347064, Note_on_c, 9, 73, 37
4, 347144, Note_on_c, 9, 63, 62
4, 347319, Note_on_c, 9, 68, 0
4, 347462, Note_on_c, 9, 63, 0
4, 347482, Note_on_c, 9, 73, 0
4, 347595, Note_on_c, 9, 68, 68
4, 347603, Note_on_c, 9, 74, 43
4, 348264, Note_on_c, 9, 68, 0
4, 348394, Note_on_c, 9, 74, 0
4, 348467, Note_on_c, 9, 64, 44
4, 348480, Note_on_c, 9, 73, 26
4, 348526, Note_on_c, 9, 68, 56
4, 348800, Note_on_c, 9, 73, 0
4, 348862, Note_on_c, 9, 64, 0
4, 349016, Note_on_c, 9, 73, 27
4, 349021, Note_on_c, 9, 64, 84
4, 349215, Note_on_c, 9, 68, 0
4, 349390, Note_on_c, 9, 73, 0
4, 349515, Note_on_c, 9, 74, 48
4, 349529, Note_on_c, 9, 68, 35
4, 349540, Note_on_c, 9, 64, 0
4, 350209, Note_on_c, 9, 68, 0
4, 350337, Note_on_c, 9, 74, 0
4, 350374, Note_on_c, 9, 73, 26
4, 350463, Note_on_c, 9, 68, 60
4, 350694, Note_on_c, 9, 73, 0
4, 350865, Note_on_c, 9, 63, 44
4, 350893, Note_on_c, 9, 73, 33
4, 351121, Note_on_c, 9, 68, 0
4, 351262, Note_on_c, 9, 73, 0
4, 351368, Note_on_c, 9, 74, 46
4, 351447, Note_on_c, 9, 68, 35
4, 351786, Note_on_c, 9, 63, 0
4, 352026, Note_on_c, 9, 68, 0
4, 352295, Note_on_c, 9, 68, 74
4, 352315, Note_on_c, 9, 74, 0
4, 352329, Note_on_c, 9, 64, 33
4, 352381, Note_on_c, 9, 73, 31
4, 352516, Note_on_c, 9, 64, 0
4, 352637, Note_on_c, 9, 73, 0
4, 352850, Note_on_c, 9, 64, 66
4, 352874, Note_on_c, 9, 73, 30
4, 352925, Note_on_c, 9, 68, 0
4, 353196, Note_on_c, 9, 73, 0
4, 353247, Note_on_c, 9, 68, 34
4, 353346, Note_on_c, 9, 74, 40
4, 353717, Note_on_c, 9, 64, 0
4, 353916, Note_on_c, 9, 68, 0
4, 354081, Note_on_c, 9, 74, 0
4, 354218, Note_on_c, 9, 73, 28
4, 354227, Note_on_c, 9, 68, 71
4, 354591, Note_on_c, 9, 73, 0
4, 354777, Note_on_c, 9, 62, 87
4, 354797, Note_on_c, 9, 73, 28
4, 354846, Note_on_c, 9, 61, 32
4, 354883, Note_on_c, 9, 68, 0
4, 354916, Note_on_c, 9, 61, 0
4, 355143, Note_on_c, 9, 73, 0
4, 355190, Note_on_c, 9, 68, 35
4, 355300, Note_on_c, 9, 74, 46
4, 355488, Note_on_c, 9, 62, 0
4, 355846, Note_on_c, 9, 74, 0
4, 355870, Note_on_c, 9, 73, 25
4, 355914, Note_on_c, 9, 68, 0
4, 356166, Note_on_c, 9, 68, 73
4, 356195, Note_on_c, 9, 73, 0
4, 356356, Note_on_c, 9, 73, 20
4, 356358, Note_on_c, 9, 64, 24
4, 356464, Note_on_c, 9, 64, 0
4, 356497, Note_on_c, 9, 73, 0
4, 356725, Note_on_c, 9, 73, 33
4, 356778, Note_on_c, 9, 64, 88
4, 356864, Note_on_c, 9, 68, 0
4, 356950, Note_on_c, 9, 73, 0
4, 357153, Note_on_c, 9, 68, 35
4, 357170, Note_on_c, 9, 74, 45
4, 357606, Note_on_c, 9, 64, 0
4, 357787, Note_on_c, 9, 62, 30
4, 357848, Note_on_c, 9, 68, 0
4, 357911, Note_on_c, 9, 62, 0
4, 358003, Note_on_c, 9, 74, 0
4, 358133, Note_on_c, 9, 73, 21
4, 358140, Note_on_c, 9, 68, 75
4, 358239, Note_on_c, 9, 63, 20
4, 358378, Note_on_c, 9, 73, 0
4, 358520, Note_on_c, 9, 63, 0
4, 358588, Note_on_c, 9, 73, 35
4, 358652, Note_on_c, 9, 63, 79
4, 358811, Note_on_c, 9, 68, 0
4, 358970, Note_on_c, 9, 73, 0
4, 359087, Note_on_c, 9, 74, 45
4, 359111, Note_on_c, 9, 68, 38
4, 359500, Note_on_c, 9, 74, 0
4, 359542, Note_on_c, 9, 63, 0
4, 359608, Note_on_c, 9, 73, 29
4, 359776, Note_on_c, 9, 73, 0
4, 359838, Note_on_c, 9, 68, 0
4, 360021, Note_on_c, 9, 73, 53
4, 360072, Note_on_c, 9, 68, 74
4, 360255, Note_on_c, 9, 73, 0
4, 360513, Note_on_c, 9, 73, 62
4, 360520, Note_on_c, 9, 64, 89
4, 360790, Note_on_c, 9, 68, 0
4, 360946, Note_on_c, 9, 73, 0
4, 361008, Note_on_c, 9, 74, 27
4, 361046, Note_on_c, 9, 68, 44
4, 361450, Note_on_c, 9, 64, 0
4, 361529, Note_on_c, 9, 62, 48
4, 361783, Note_on_c, 9, 68, 0
4, 361920, Note_on_c, 9, 62, 0
4, 361935, Note_on_c, 9, 74, 0
4, 362004, Note_on_c, 9, 68, 71
4, 362021, Note_on_c, 9, 73, 28
4, 362039, Note_on_c, 9, 62, 74
4, 362266, Note_on_c, 9, 73, 0
4, 362413, Note_on_c, 9, 62, 0
4, 362503, Note_on_c, 9, 73, 31
4, 362525, Note_on_c, 9, 62, 89
4, 362695, Note_on_c, 9, 68, 0
4, 362823, Note_on_c, 9, 73, 0
4, 362977, Note_on_c, 9, 74, 49
4, 362984, Note_on_c, 9, 68, 37
4, 363260, Note_on_c, 9, 62, 0
4, 363450, Note_on_c, 9, 74, 0
4, 363461, Note_on_c, 9, 73, 36
4, 363563, Note_on_c, 9, 64, 38
4, 363616, Note_on_c, 9, 68, 0
4, 363717, Note_on_c, 9, 73, 0
4, 363815, Note_on_c, 9, 64, 0
4, 363876, Note_on_c, 9, 68, 71
4, 363925, Note_on_c, 9, 73, 41
4, 364154, Note_on_c, 9, 73, 0
4, 364393, Note_on_c, 9, 73, 60
4, 364572, Note_on_c, 9, 68, 0
4, 364841, Note_on_c, 9, 68, 36
4, 365018, Note_on_c, 9, 73, 0
4, 365079, Note_on_c, 9, 74, 47
4, 365278, Note_on_c, 9, 74, 0
4, 365325, Note_on_c, 9, 62, 25
4, 365389, Note_on_c, 9, 63, 25
4, 365479, Note_on_c, 9, 68, 0
4, 365530, Note_on_c, 9, 62, 0
4, 365654, Note_on_c, 9, 63, 0
4, 365744, Note_on_c, 9, 68, 71
4, 365815, Note_on_c, 9, 63, 74
4, 365824, Note_on_c, 9, 62, 29
4, 366248, Note_on_c, 9, 63, 0
4, 366307, Note_on_c, 9, 73, 42
4, 366365, Note_on_c, 9, 63, 93
4, 366387, Note_on_c, 9, 68, 0
4, 366459, Note_on_c, 9, 73, 0
4, 366727, Note_on_c, 9, 68, 31
4, 366822, Note_on_c, 9, 74, 55
4, 366901, Note_on_c, 9, 62, 0
4, 366961, Note_on_c, 9, 63, 0
4, 367323, Note_on_c, 9, 64, 51
4, 367436, Note_on_c, 9, 68, 0
4, 367540, Note_on_c, 9, 64, 0
4, 367548, Note_on_c, 9, 74, 0
4, 367681, Note_on_c, 9, 68, 70
4, 367714, Note_on_c, 9, 73, 27
4, 367818, Note_on_c, 9, 64, 31
4, 367923, Note_on_c, 9, 73, 0
4, 368067, Note_on_c, 9, 64, 0
4, 368166, Note_on_c, 9, 73, 28
4, 368281, Note_on_c, 9, 63, 86
4, 368304, Note_on_c, 9, 62, 49
4, 368337, Note_on_c, 9, 66, 45
4, 368412, Note_on_c, 9, 66, 0
4, 368414, Note_on_c, 9, 68, 0
4, 368440, Note_on_c, 9, 73, 0
4, 368635, Note_on_c, 9, 63, 0
4, 368663, Note_on_c, 9, 62, 0
4, 368672, Note_on_c, 9, 74, 48
4, 368701, Note_on_c, 9, 68, 43
4, 369083, Note_on_c, 9, 63, 74
4, 369118, Note_on_c, 9, 62, 55
4, 369436, Note_on_c, 9, 74, 0
4, 369452, Note_on_c, 9, 68, 0
4, 369480, Note_on_c, 9, 62, 0
4, 369518, Note_on_c, 9, 63, 0
4, 369604, Note_on_c, 9, 73, 27
4, 369637, Note_on_c, 9, 68, 61
4, 369756, Note_on_c, 9, 63, 67
4, 369803, Note_on_c, 9, 62, 17
4, 369866, Note_on_c, 9, 73, 0
4, 370078, Note_on_c, 9, 73, 32
4, 370083, Note_on_c, 9, 62, 0
4, 370224, Note_on_c, 9, 63, 0
4, 370370, Note_on_c, 9, 73, 0
4, 370414, Note_on_c, 9, 68, 0
4, 370549, Note_on_c, 9, 74, 51
4, 370580, Note_on_c, 9, 68, 46
4, 371006, Note_on_c, 9, 63, 71
4, 371010, Note_on_c, 9, 62, 49
4, 371333, Note_on_c, 9, 63, 0
4, 371339, Note_on_c, 9, 68, 0
4, 371361, Note_on_c, 9, 62, 0
4, 371432, Note_on_c, 9, 74, 0
4, 371514, Note_on_c, 9, 73, 25
4, 371516, Note_on_c, 9, 68, 61
4, 371703, Note_on_c, 9, 73, 0
4, 371776, Note_on_c, 9, 63, 73
4, 371814, Note_on_c, 9, 62, 44
4, 371984, Note_on_c, 9, 73, 29
4, 372035, Note_on_c, 9, 63, 0
4, 372180, Note_on_c, 9, 62, 0
4, 372240, Note_on_c, 9, 73, 0
4, 372267, Note_on_c, 9, 68, 0
4, 372461, Note_on_c, 9, 74, 51
4, 372492, Note_on_c, 9, 68, 47
4, 373274, Note_on_c, 9, 68, 0
4, 373375, Note_on_c, 9, 74, 0
4, 373408, Note_on_c, 9, 73, 27
4, 373472, Note_on_c, 9, 68, 64
4, 373521, Note_on_c, 9, 64, 64
4, 373636, Note_on_c, 9, 64, 0
4, 373649, Note_on_c, 9, 73, 0
4, 373887, Note_on_c, 9, 73, 27
4, 374022, Note_on_c, 9, 64, 96
4, 374232, Note_on_c, 9, 73, 0
4, 374263, Note_on_c, 9, 68, 0
4, 374444, Note_on_c, 9, 74, 50
4, 374486, Note_on_c, 9, 68, 46
4, 374821, Note_on_c, 9, 64, 0
4, 375022, Note_on_c, 9, 62, 26
4, 375245, Note_on_c, 9, 68, 0
4, 375283, Note_on_c, 9, 62, 0
4, 375320, Note_on_c, 9, 74, 0
4, 375406, Note_on_c, 9, 63, 36
4, 375435, Note_on_c, 9, 73, 26
4, 375464, Note_on_c, 9, 68, 64
4, 375647, Note_on_c, 9, 73, 0
4, 375771, Note_on_c, 9, 63, 0
4, 375874, Note_on_c, 9, 73, 27
4, 375921, Note_on_c, 9, 63, 82
4, 375972, Note_on_c, 9, 62, 44
4, 376199, Note_on_c, 9, 73, 0
4, 376203, Note_on_c, 9, 62, 0
4, 376221, Note_on_c, 9, 68, 0
4, 376365, Note_on_c, 9, 74, 54
4, 376420, Note_on_c, 9, 68, 49
4, 376625, Note_on_c, 9, 63, 0
4, 376844, Note_on_c, 9, 62, 27
4, 376919, Note_on_c, 9, 62, 0
4, 377197, Note_on_c, 9, 68, 0
4, 377199, Note_on_c, 9, 74, 0
4, 377316, Note_on_c, 9, 73, 26
4, 377398, Note_on_c, 9, 68, 56
4, 377407, Note_on_c, 9, 64, 50
4, 377541, Note_on_c, 9, 73, 0
4, 377804, Note_on_c, 9, 64, 0
4, 377809, Note_on_c, 9, 73, 24
4, 378105, Note_on_c, 9, 68, 0
4, 378129, Note_on_c, 9, 73, 0
4, 378240, Note_on_c, 9, 40, 20
4, 378240, Note_on_c, 9, 36, 20
4, 378274, Note_on_c, 9, 74, 57
4, 378334, Note_on_c, 9, 68, 54
4, 378600, Note_on_c, 9, 36, 0
4, 378600, Note_on_c, 9, 40, 0
4, 378827, Note_on_c, 9, 62, 25
4, 378880, Note_on_c, 9, 36, 24
4, 378880, Note_on_c, 9, 40, 24
4, 378926, Note_on_c, 9, 62, 0
4, 378948, Note_on_c, 9, 68, 0
4, 379058, Note_on_c, 9, 74, 0
4, 379200, Note_on_c, 9, 40, 27
4, 379200, Note_on_c, 9, 36, 27
4, 379235, Note_on_c, 9, 73, 56
4, 379240, Note_on_c, 9, 40, 0
4, 379240, Note_on_c, 9, 36, 0
4, 379434, Note_on_c, 9, 73, 0
4, 379520, Note_on_c, 9, 40, 29
4, 379520, Note_on_c, 9, 36, 29
4, 379560, Note_on_c, 9, 40, 0
4, 379560, Note_on_c, 9, 36, 0
4, 379699, Note_on_c, 9, 73, 60
4, 379840, Note_on_c, 9, 40, 32
4, 379840, Note_on_c, 9, 36, 32
4, 379880, Note_on_c, 9, 40, 0
4, 379880, Note_on_c, 9, 36, 0
4, 379926, Note_on_c, 9, 73, 0
4, 380160, Note_on_c, 9, 40, 34
4, 380160, Note_on_c, 9, 36, 34
4, 380198, Note_on_c, 9, 73, 63
4, 380200, Note_on_c, 9, 40, 0
4, 380200, Note_on_c, 9, 36, 0
4, 380218, Note_on_c, 9, 64, 79
4, 380372, Note_on_c, 9, 73, 0
4, 380480, Note_on_c, 9, 40, 37
4, 380480, Note_on_c, 9, 36, 37
4, 380520, Note_on_c, 9, 36, 0
4, 380520, Note_on_c, 9, 40, 0
4, 380602, Note_on_c, 9, 64, 0
4, 380800, Note_on_c, 9, 36, 39
4, 380800, Note_on_c, 9, 40, 39
4, 380840, Note_on_c, 9, 36, 0
4, 380840, Note_on_c, 9, 40, 0
4, 381120, Note_on_c, 9, 36, 42
4, 381160, Note_on_c, 9, 36, 0
4, 381160, Note_on_c, 9, 40, 0
4, 381180, Note_on_c, 9, 36, 0
4, 381760, Note_on_c, 9, 36, 46
4, 381820, Note_on_c, 9, 36, 0
4, 382400, Note_on_c, 9, 38, 51
4, 382400, Note_on_c, 9, 36, 51
4, 382720, Note_on_c, 9, 36, 54
4, 382720, Note_on_c, 9, 38, 54
4, 382760, Note_on_c, 9, 36, 0
4, 382760, Note_on_c, 9, 38, 0
4, 383000, Note_on_c, 9, 36, 59
4, 383080, Note_on_c, 9, 36, 0
4, 383080, Note_on_c, 9, 38, 0
4, 383360, Note_on_c, 9, 36, 0
4, 383600, Note_on_c, 9, 55, 59
4, 383600, Note_on_c, 9, 38, 59
4, 383960, Note_on_c, 9, 38, 0
4, 383960, Note_on_c, 9, 55, 0
4, 384040, Note_on_c, 9, 38, 64
4, 384160, Note_on_c, 9, 38, 0
4, 384640, Note_on_c, 9, 36, 69
4, 384760, Note_on_c, 9, 36, 0
4, 385080, Note_on_c, 9, 36, 59
4, 385080, Note_on_c, 9, 57, 29
4, 385440, Note_on_c, 9, 57, 0
4, 385440, Note_on_c, 9, 36, 0
4, 389343, Note_on_c, 9, 36, 62
4, 389526, Note_on_c, 9, 36, 0
4, 389857, Note_on_c, 9, 40, 73
4, 390208, Note_on_c, 9, 40, 0
4, 390325, Note_on_c, 9, 40, 71
4, 390668, Note_on_c, 9, 40, 0
4, 390818, Note_on_c, 9, 36, 62
4, 390917, Note_on_c, 9, 36, 0
4, 391320, Note_on_c, 9, 57, 14
4, 391328, Note_on_c, 9, 36, 84
4, 391560, Note_on_c, 9, 57, 0
4, 391743, Note_on_c, 9, 36, 0
4, 396480, Note_on_c, 9, 67, 58
4, 396720, Note_on_c, 9, 67, 0
4, 396960, Note_on_c, 9, 67, 58
4, 397200, Note_on_c, 9, 67, 0
4, 397920, Note_on_c, 9, 38, 28
4, 398160, Note_on_c, 9, 38, 0
4, 398280, Note_on_c, 9, 38, 58
4, 398520, Note_on_c, 9, 38, 0
4, 398880, Note_on_c, 9, 38, 62
4, 399120, Note_on_c, 9, 38, 0
4, 399840, Note_on_c, 9, 36, 88
4, 399840, Note_on_c, 9, 38, 58
4, 400080, Note_on_c, 9, 38, 0
4, 400080, Note_on_c, 9, 36, 0
4, 400800, Note_on_c, 9, 36, 88
4, 400800, Note_on_c, 9, 38, 96
4, 401040, Note_on_c, 9, 38, 0
4, 401040, Note_on_c, 9, 36, 0
4, 402600, Note_on_c, 9, 36, 28
4, 402600, Note_on_c, 9, 38, 28
4, 402840, Note_on_c, 9, 38, 0
4, 402840, Note_on_c, 9, 36, 0
4, 403200, Note_on_c, 9, 59, 28
4, 403200, Note_on_c, 9, 36, 88
4, 403200, Note_on_c, 9, 38, 78
4, 403440, Note_on_c, 9, 38, 0
4, 403440, Note_on_c, 9, 36, 0
4, 403440, Note_on_c, 9, 59, 0
4, 403767, Note_on_c, 9, 36, 68
4, 404162, Note_on_c, 9, 36, 0
4, 405120, Note_on_c, 9, 36, 80
4, 405120, Note_on_c, 9, 38, 80
4, 405471, Note_on_c, 9, 38, 0
4, 405480, Note_on_c, 9, 36, 0
4, 406560, Note_on_c, 9, 38, 82
4, 406560, Note_on_c, 9, 36, 82
4, 406560, Note_on_c, 9, 57, 41
4, 406783, Note_on_c, 9, 36, 73
4, 406920, Note_on_c, 9, 57, 0
4, 406920, Note_on_c, 9, 38, 0
4, 406953, Note_on_c, 9, 36, 0
4, 407087, Note_on_c, 9, 36, 0
4, 407224, Note_on_c, 9, 36, 70
4, 407498, Note_on_c, 9, 36, 0
4, 410880, Note_on_c, 9, 38, 20
4, 411240, Note_on_c, 9, 38, 0
4, 411520, Note_on_c, 9, 38, 37
4, 411880, Note_on_c, 9, 38, 0
4, 412160, Note_on_c, 9, 38, 58
4, 412520, Note_on_c, 9, 38, 0
4, 412800, Note_on_c, 9, 38, 72
4, 413160, Note_on_c, 9, 38, 0
4, 413440, Note_on_c, 9, 38, 89
4, 413800, Note_on_c, 9, 38, 0
4, 414000, Note_on_c, 9, 40, 82
4, 414120, Note_on_c, 9, 57, 41
4, 414360, Note_on_c, 9, 40, 0
4, 414480, Note_on_c, 9, 57, 0
4, 416160, Note_on_c, 9, 40, 20
4, 416160, Note_on_c, 9, 36, 20
4, 416520, Note_on_c, 9, 36, 0
4, 416520, Note_on_c, 9, 40, 0
4, 416640, Note_on_c, 9, 40, 36
4, 416640, Note_on_c, 9, 36, 36
4, 417000, Note_on_c, 9, 36, 0
4, 417000, Note_on_c, 9, 40, 0
4, 417120, Note_on_c, 9, 40, 53
4, 417120, Note_on_c, 9, 36, 53
4, 417480, Note_on_c, 9, 36, 0
4, 417480, Note_on_c, 9, 40, 0
4, 417600, Note_on_c, 9, 40, 70
4, 417600, Note_on_c, 9, 36, 70
4, 417960, Note_on_c, 9, 36, 0
4, 417960, Note_on_c, 9, 40, 0
4, 418080, Note_on_c, 9, 40, 87
4, 418080, Note_on_c, 9, 36, 87
4, 418080, Note_on_c, 9, 57, 21
4, 418440, Note_on_c, 9, 57, 0
4, 418440, Note_on_c, 9, 36, 0
4, 418440, Note_on_c, 9, 40, 0
4, 418974, Note_on_c, 9, 38, 52
4, 419040, Note_on_c, 9, 40, 82
4, 419040, Note_on_c, 9, 36, 82
4, 419259, Note_on_c, 9, 38, 0
4, 419400, Note_on_c, 9, 36, 0
4, 419400, Note_on_c, 9, 40, 0
4, 419464, Note_on_c, 9, 38, 44
4, 419699, Note_on_c, 9, 38, 0
4, 420039, Note_on_c, 9, 40, 51
4, 420120, Note_on_c, 9, 40, 82
4, 420120, Note_on_c, 9, 36, 82
4, 420222, Note_on_c, 9, 40, 0
4, 420480, Note_on_c, 9, 36, 0
4, 420480, Note_on_c, 9, 40, 0
4, 421028, Note_on_c, 9, 38, 73
4, 421483, Note_on_c, 9, 38, 0
4, 421920, Note_on_c, 9, 40, 82
4, 421920, Note_on_c, 9, 36, 82
4, 421920, Note_on_c, 9, 57, 41
4, 422280, Note_on_c, 9, 57, 0
4, 422280, Note_on_c, 9, 36, 0
4, 422280, Note_on_c, 9, 40, 0
4, 423360, Note_on_c, 9, 36, 82
4, 423720, Note_on_c, 9, 36, 0
4, 423840, Note_on_c, 9, 36, 82
4, 424200, Note_on_c, 9, 36, 0
4, 424320, Note_on_c, 9, 36, 40
4, 424320, Note_on_c, 9, 38, 40
4, 424440, Note_on_c, 9, 38, 45
4, 424440, Note_on_c, 9, 36, 45
4, 424560, Note_on_c, 9, 36, 50
4, 424560, Note_on_c, 9, 38, 50
4, 424680, Note_on_c, 9, 38, 0
4, 424680, Note_on_c, 9, 36, 0
4, 424680, Note_on_c, 9, 38, 55
4, 424680, Note_on_c, 9, 36, 55
4, 424800, Note_on_c, 9, 36, 0
4, 424800, Note_on_c, 9, 38, 0
4, 424920, Note_on_c, 9, 36, 0
4, 424920, Note_on_c, 9, 38, 0
4, 424920, Note_on_c, 9, 36, 65
4, 424920, Note_on_c, 9, 38, 65
4, 425040, Note_on_c, 9, 36, 0
4, 425040, Note_on_c, 9, 38, 0
4, 425280, Note_on_c, 9, 36, 0
4, 425280, Note_on_c, 9, 38, 0
4, 425312, Note_on_c, 9, 38, 40
4, 425316, Note_on_c, 9, 36, 40
4, 425436, Note_on_c, 9, 38, 40
4, 425640, Note_on_c, 9, 38, 40
4, 425640, Note_on_c, 9, 36, 40
4, 425672, Note_on_c, 9, 38, 0
4, 425676, Note_on_c, 9, 36, 0
4, 425760, Note_on_c, 9, 36, 40
4, 425760, Note_on_c, 9, 38, 40
4, 425796, Note_on_c, 9, 38, 0
4, 425880, Note_on_c, 9, 36, 40
4, 426000, Note_on_c, 9, 36, 0
4, 426000, Note_on_c, 9, 38, 0
4, 426120, Note_on_c, 9, 36, 0
4, 426120, Note_on_c, 9, 38, 0
4, 426240, Note_on_c, 9, 36, 0
4, 426290, Note_on_c, 9, 38, 40
4, 426290, Note_on_c, 9, 36, 40
4, 426290, Note_on_c, 9, 57, 20
4, 426650, Note_on_c, 9, 57, 0
4, 426650, Note_on_c, 9, 36, 0
4, 426650, Note_on_c, 9, 38, 0
4, 426720, Note_on_c, 9, 36, 40
4, 427080, Note_on_c, 9, 36, 0
4, 427200, Note_on_c, 9, 36, 40
4, 427560, Note_on_c, 9, 36, 0
4, 427680, Note_on_c, 9, 36, 40
4, 427680, Note_on_c, 9, 57, 20
4, 428040, Note_on_c, 9, 57, 0
4, 428040, Note_on_c, 9, 36, 0
4, 428640, Note_on_c, 9, 36, 40
4, 429000, Note_on_c, 9, 36, 0
4, 429059, Note_on_c, 9, 36, 40
4, 429419, Note_on_c, 9, 36, 0
4, 429600, Note_on_c, 9, 36, 40
4, 429600, Note_on_c, 9, 57, 20
4, 429960, Note_on_c, 9, 57, 0
4, 429960, Note_on_c, 9, 36, 0
4, 430800, Note_on_c, 9, 38, 40
4, 431160, Note_on_c, 9, 38, 0
4, 431640, Note_on_c, 9, 36, 40
4, 432000, Note_on_c, 9, 36, 0
4, 432120, Note_on_c, 9, 36, 40
4, 432120, Note_on_c, 9, 57, 20
4, 432480, Note_on_c, 9, 57, 0
4, 432480, Note_on_c, 9, 36, 0
4, 432960, Note_on_c, 9, 38, 40
4, 433320, Note_on_c, 9, 38, 0
4, 433440, Note_on_c, 9, 36, 40
4, 433440, Note_on_c, 9, 38, 40
4, 433440, Note_on_c, 9, 57, 20
4, 433800, Note_on_c, 9, 57, 0
4, 433800, Note_on_c, 9, 38, 0
4, 433800, Note_on_c, 9, 36, 0
4, 434400, Note_on_c, 9, 36, 40
4, 434760, Note_on_c, 9, 36, 0
4, 435000, Note_on_c, 9, 38, 40
4, 435000, Note_on_c, 9, 36, 40
4, 435360, Note_on_c, 9, 36, 0
4, 435360, Note_on_c, 9, 38, 0
4, 435360, Note_on_c, 9, 38, 40
4, 435360, Note_on_c, 9, 36, 40
4, 435360, Note_on_c, 9, 57, 20
4, 435720, Note_on_c, 9, 57, 0
4, 435720, Note_on_c, 9, 36, 0
4, 435720, Note_on_c, 9, 38, 0
4, 438240, Note_on_c, 9, 38, 40
4, 438240, Note_on_c, 9, 36, 40
4, 438600, Note_on_c, 9, 36, 0
4, 438600, Note_on_c, 9, 38, 0
4, 438720, Note_on_c, 9, 38, 40
4, 438720, Note_on_c, 9, 36, 40
4, 439080, Note_on_c, 9, 36, 0
4, 439080, Note_on_c, 9, 38, 0
4, 439191, Note_on_c, 9, 57, 20
4, 439200, Note_on_c, 9, 38, 40
4, 439200, Note_on_c, 9, 36, 40
4, 439551, Note_on_c, 9, 57, 0
4, 439560, Note_on_c, 9, 36, 0
4, 439560, Note_on_c, 9, 38, 0
4, 440000, Note_on_c, 9, 40, 20
4, 440000, Note_on_c, 9, 36, 20
4, 440360, Note_on_c, 9, 36, 0
4, 440360, Note_on_c, 9, 40, 0
4, 440640, Note_on_c, 9, 36, 24
4, 440640, Note_on_c, 9, 40, 24
4, 440960, Note_on_c, 9, 40, 27
4, 440960, Note_on_c, 9, 36, 27
4, 441000, Note_on_c, 9, 40, 0
4, 441000, Note_on_c, 9, 36, 0
4, 441280, Note_on_c, 9, 40, 29
4, 441280, Note_on_c, 9, 36, 29
4, 441320, Note_on_c, 9, 40, 0
4, 441320, Note_on_c, 9, 36, 0
4, 441600, Note_on_c, 9, 40, 32
4, 441600, Note_on_c, 9, 36, 32
4, 441640, Note_on_c, 9, 40, 0
4, 441640, Note_on_c, 9, 36, 0
4, 441920, Note_on_c, 9, 40, 34
4, 441920, Note_on_c, 9, 36, 34
4, 441960, Note_on_c, 9, 40, 0
4, 441960, Note_on_c, 9, 36, 0
4, 442240, Note_on_c, 9, 40, 37
4, 442240, Note_on_c, 9, 36, 37
4, 442280, Note_on_c, 9, 40, 0
4, 442280, Note_on_c, 9, 36, 0
4, 442560, Note_on_c, 9, 36, 39
4, 442560, Note_on_c, 9, 40, 39
4, 442600, Note_on_c, 9, 40, 0
4, 442600, Note_on_c, 9, 36, 0
4, 442880, Note_on_c, 9, 36, 42
4, 442920, Note_on_c, 9, 36, 0
4, 442920, Note_on_c, 9, 40, 0
4, 442940, Note_on_c, 9, 36, 0
4, 443520, Note_on_c, 9, 36, 46
4, 443580, Note_on_c, 9, 36, 0
4, 444160, Note_on_c, 9, 38, 51
4, 444160, Note_on_c, 9, 36, 51
4, 444480, Note_on_c, 9, 36, 54
4, 444480, Note_on_c, 9, 38, 54
4, 444520, Note_on_c, 9, 36, 0
4, 444520, Note_on_c, 9, 38, 0
4, 444840, Note_on_c, 9, 36, 0
4, 444840, Note_on_c, 9, 38, 0
4, 445120, Note_on_c, 9, 38, 59
4, 445120, Note_on_c, 9, 55, 59
4, 445120, Note_on_c, 9, 36, 59
4, 445480, Note_on_c, 9, 36, 0
4, 445480, Note_on_c, 9, 55, 0
4, 445480, Note_on_c, 9, 38, 0
4, 445480, End_track
0, 0, End_of_file
