0, 0, Header, 1, 3, 120
1, 0, Start_track
1, 0, Title_t, "Send In the Clowns"
1, 0, Text_t, "dougmck@pipeline.com.au - improvised in real time.\012"
1, 0, Text_t, "Re-harmonized - in the style of Kenny Werner (He plays it as accompaniment to singer Betty Butler on his CD 'Beauty Secrets') - not a 'cover' version of this - but  some of the chord substitutions were suggested by his version.\012"
1, 0, Time_signature, 4, 2, 24, 8
1, 0, Key_signature, -3, "major"
1, 0, Tempo, 461538
1, 0, End_track
2, 0, Start_track
2, 0, MIDI_port, 0
2, 0, Title_t, "Piano played in real time"
2, 198, Note_on_c, 0, 68, 52
2, 246, Control_c, 0, 64, 127
2, 260, Note_on_c, 0, 70, 73
2, 329, Note_on_c, 0, 68, 0
2, 334, Note_on_c, 0, 75, 80
2, 347, Note_on_c, 0, 70, 0
2, 418, Note_on_c, 0, 75, 0
2, 437, Note_on_c, 0, 75, 60
2, 438, Control_c, 0, 64, 0
2, 442, Note_on_c, 0, 51, 33
2, 494, Control_c, 0, 64, 127
2, 545, Note_on_c, 0, 58, 27
2, 619, Note_on_c, 0, 70, 47
2, 638, Note_on_c, 0, 75, 0
2, 668, Note_on_c, 0, 75, 48
2, 674, Note_on_c, 0, 51, 0
2, 711, Note_on_c, 0, 70, 0
2, 721, Note_on_c, 0, 69, 51
2, 723, Note_on_c, 0, 51, 31
2, 725, Note_on_c, 0, 58, 0
2, 727, Control_c, 0, 64, 0
2, 786, Note_on_c, 0, 59, 34
2, 797, Control_c, 0, 64, 127
2, 820, Note_on_c, 0, 69, 0
2, 840, Note_on_c, 0, 69, 62
2, 844, Note_on_c, 0, 75, 0
2, 895, Note_on_c, 0, 75, 59
2, 921, Note_on_c, 0, 69, 0
2, 923, Note_on_c, 0, 51, 0
2, 952, Note_on_c, 0, 59, 0
2, 955, Note_on_c, 0, 68, 52
2, 955, Note_on_c, 0, 51, 35
2, 960, Control_c, 0, 64, 0
2, 1033, Note_on_c, 0, 60, 34
2, 1043, Control_c, 0, 64, 127
2, 1072, Note_on_c, 0, 68, 0
2, 1104, Note_on_c, 0, 68, 35
2, 1110, Note_on_c, 0, 75, 0
2, 1168, Note_on_c, 0, 75, 43
2, 1188, Note_on_c, 0, 51, 0
2, 1224, Note_on_c, 0, 68, 0
2, 1238, Note_on_c, 0, 60, 0
2, 1242, Note_on_c, 0, 69, 26
2, 1242, Note_on_c, 0, 51, 28
2, 1253, Control_c, 0, 64, 0
2, 1329, Control_c, 0, 64, 127
2, 1356, Note_on_c, 0, 59, 24
2, 1448, Note_on_c, 0, 69, 0
2, 1464, Note_on_c, 0, 68, 33
2, 1517, Note_on_c, 0, 70, 57
2, 1522, Note_on_c, 0, 75, 0
2, 1554, Note_on_c, 0, 59, 0
2, 1566, Note_on_c, 0, 75, 64
2, 1568, Note_on_c, 0, 68, 0
2, 1574, Note_on_c, 0, 51, 0
2, 1617, Note_on_c, 0, 75, 0
2, 1636, Note_on_c, 0, 70, 0
2, 1636, Note_on_c, 0, 75, 55
2, 1642, Control_c, 0, 64, 0
2, 1643, Note_on_c, 0, 39, 36
2, 1676, Control_c, 0, 64, 127
2, 1703, Note_on_c, 0, 39, 0
2, 1706, Note_on_c, 0, 46, 37
2, 1757, Note_on_c, 0, 46, 0
2, 1775, Note_on_c, 0, 55, 37
2, 1806, Note_on_c, 0, 55, 0
2, 1847, Note_on_c, 0, 58, 39
2, 1848, Note_on_c, 0, 75, 0
2, 1930, Note_on_c, 0, 78, 53
2, 1934, Note_on_c, 0, 70, 49
2, 1937, Note_on_c, 0, 58, 0
2, 1939, Note_on_c, 0, 63, 31
2, 1957, Note_on_c, 0, 66, 4
2, 2018, Note_on_c, 0, 63, 0
2, 2026, Note_on_c, 0, 58, 25
2, 2066, Note_on_c, 0, 66, 0
2, 2094, Note_on_c, 0, 78, 0
2, 2096, Note_on_c, 0, 66, 27
2, 2146, Note_on_c, 0, 78, 54
2, 2170, Note_on_c, 0, 70, 0
2, 2175, Note_on_c, 0, 66, 0
2, 2180, Note_on_c, 0, 78, 0
2, 2200, Note_on_c, 0, 51, 35
2, 2202, Note_on_c, 0, 77, 64
2, 2207, Control_c, 0, 64, 0
2, 2208, Note_on_c, 0, 58, 0
2, 2220, Note_on_c, 0, 69, 14
2, 2250, Control_c, 0, 64, 127
2, 2262, Note_on_c, 0, 69, 0
2, 2264, Note_on_c, 0, 60, 36
2, 2272, Note_on_c, 0, 77, 0
2, 2301, Note_on_c, 0, 60, 0
2, 2334, Note_on_c, 0, 84, 57
2, 2337, Note_on_c, 0, 77, 49
2, 2398, Note_on_c, 0, 77, 0
2, 2402, Note_on_c, 0, 84, 0
2, 2411, Note_on_c, 0, 81, 48
2, 2424, Note_on_c, 0, 72, 17
2, 2452, Note_on_c, 0, 64, 1
2, 2455, Note_on_c, 0, 81, 0
2, 2462, Note_on_c, 0, 72, 0
2, 2476, Note_on_c, 0, 51, 0
2, 2482, Note_on_c, 0, 64, 0
2, 2500, Note_on_c, 0, 83, 45
2, 2501, Note_on_c, 0, 71, 46
2, 2511, Note_on_c, 0, 51, 21
2, 2514, Control_c, 0, 64, 0
2, 2564, Control_c, 0, 64, 127
2, 2574, Note_on_c, 0, 71, 0
2, 2594, Note_on_c, 0, 71, 34
2, 2597, Note_on_c, 0, 63, 25
2, 2599, Note_on_c, 0, 80, 28
2, 2601, Note_on_c, 0, 75, 32
2, 2811, Note_on_c, 0, 75, 0
2, 2824, Note_on_c, 0, 80, 0
2, 2864, Note_on_c, 0, 77, 64
2, 2866, Note_on_c, 0, 83, 0
2, 2923, Note_on_c, 0, 77, 0
2, 2930, Note_on_c, 0, 71, 0
2, 2932, Note_on_c, 0, 79, 66
2, 2961, Note_on_c, 0, 79, 0
2, 2968, Note_on_c, 0, 63, 0
2, 2994, Note_on_c, 0, 51, 0
2, 3008, Note_on_c, 0, 75, 57
2, 3072, Note_on_c, 0, 75, 0
2, 3091, Note_on_c, 0, 65, 56
2, 3092, Control_c, 0, 64, 0
2, 3092, Note_on_c, 0, 39, 37
2, 3094, Note_on_c, 0, 58, 49
2, 3094, Note_on_c, 0, 62, 62
2, 3094, Note_on_c, 0, 46, 35
2, 3097, Note_on_c, 0, 53, 41
2, 3131, Control_c, 0, 64, 127
2, 3161, Note_on_c, 0, 65, 0
2, 3197, Note_on_c, 0, 53, 0
2, 3205, Note_on_c, 0, 62, 0
2, 3216, Note_on_c, 0, 58, 0
2, 3220, Note_on_c, 0, 67, 74
2, 3267, Note_on_c, 0, 39, 0
2, 3278, Note_on_c, 0, 46, 0
2, 3300, Note_on_c, 0, 67, 0
2, 3354, Note_on_c, 0, 67, 61
2, 3356, Control_c, 0, 64, 0
2, 3356, Note_on_c, 0, 41, 49
2, 3357, Note_on_c, 0, 60, 45
2, 3358, Note_on_c, 0, 51, 29
2, 3361, Note_on_c, 0, 56, 21
2, 3398, Control_c, 0, 64, 127
2, 3428, Note_on_c, 0, 67, 0
2, 3445, Note_on_c, 0, 67, 66
2, 3449, Note_on_c, 0, 41, 0
2, 3455, Note_on_c, 0, 60, 0
2, 3458, Note_on_c, 0, 56, 0
2, 3464, Note_on_c, 0, 51, 0
2, 3489, Note_on_c, 0, 67, 0
2, 3534, Note_on_c, 0, 67, 66
2, 3536, Control_c, 0, 64, 0
2, 3538, Note_on_c, 0, 43, 42
2, 3539, Note_on_c, 0, 62, 65
2, 3543, Note_on_c, 0, 58, 31
2, 3543, Note_on_c, 0, 53, 32
2, 3572, Control_c, 0, 64, 127
2, 3580, Note_on_c, 0, 67, 0
2, 3637, Note_on_c, 0, 70, 74
2, 3669, Note_on_c, 0, 43, 0
2, 3683, Note_on_c, 0, 62, 0
2, 3690, Note_on_c, 0, 53, 0
2, 3721, Note_on_c, 0, 58, 0
2, 3780, Note_on_c, 0, 70, 0
2, 3828, Note_on_c, 0, 70, 51
2, 3832, Note_on_c, 0, 61, 36
2, 3834, Note_on_c, 0, 66, 37
2, 3837, Control_c, 0, 64, 0
2, 3837, Note_on_c, 0, 45, 37
2, 3843, Note_on_c, 0, 55, 24
2, 3909, Control_c, 0, 64, 127
2, 3964, Note_on_c, 0, 61, 0
2, 4031, Note_on_c, 0, 70, 0
2, 4032, Note_on_c, 0, 58, 27
2, 4034, Note_on_c, 0, 55, 0
2, 4068, Note_on_c, 0, 66, 0
2, 4081, Note_on_c, 0, 45, 0
2, 4118, Note_on_c, 0, 58, 0
2, 4186, Control_c, 0, 64, 0
2, 4190, Note_on_c, 0, 60, 47
2, 4192, Note_on_c, 0, 44, 33
2, 4193, Note_on_c, 0, 55, 30
2, 4212, Control_c, 0, 64, 127
2, 4235, Note_on_c, 0, 55, 0
2, 4246, Note_on_c, 0, 60, 0
2, 4267, Note_on_c, 0, 55, 54
2, 4340, Note_on_c, 0, 67, 83
2, 4398, Note_on_c, 0, 67, 0
2, 4409, Note_on_c, 0, 72, 73
2, 4423, Note_on_c, 0, 55, 0
2, 4480, Note_on_c, 0, 44, 0
2, 4486, Note_on_c, 0, 65, 61
2, 4488, Note_on_c, 0, 58, 46
2, 4493, Note_on_c, 0, 43, 40
2, 4499, Control_c, 0, 64, 0
2, 4565, Control_c, 0, 64, 127
2, 4565, Note_on_c, 0, 53, 53
2, 4567, Note_on_c, 0, 72, 0
2, 4607, Note_on_c, 0, 58, 0
2, 4640, Note_on_c, 0, 65, 0
2, 4644, Note_on_c, 0, 70, 1
2, 4645, Note_on_c, 0, 58, 47
2, 4712, Note_on_c, 0, 58, 0
2, 4713, Note_on_c, 0, 43, 0
2, 4718, Note_on_c, 0, 53, 0
2, 4728, Note_on_c, 0, 65, 61
2, 4730, Note_on_c, 0, 58, 15
2, 4768, Note_on_c, 0, 65, 0
2, 4795, Note_on_c, 0, 58, 0
2, 4814, Note_on_c, 0, 70, 0
2, 4822, Control_c, 0, 64, 0
2, 4826, Note_on_c, 0, 42, 44
2, 4829, Note_on_c, 0, 64, 47
2, 4830, Note_on_c, 0, 58, 31
2, 4852, Note_on_c, 0, 58, 0
2, 4852, Control_c, 0, 64, 127
2, 4866, Note_on_c, 0, 64, 0
2, 4872, Note_on_c, 0, 42, 0
2, 4932, Note_on_c, 0, 72, 31
2, 4932, Note_on_c, 0, 64, 38
2, 4935, Note_on_c, 0, 68, 34
2, 4939, Note_on_c, 0, 58, 37
2, 4950, Note_on_c, 0, 64, 0
2, 4962, Note_on_c, 0, 72, 0
2, 4965, Note_on_c, 0, 68, 0
2, 5054, Note_on_c, 0, 63, 27
2, 5055, Note_on_c, 0, 68, 39
2, 5056, Note_on_c, 0, 72, 31
2, 5058, Note_on_c, 0, 64, 34
2, 5165, Note_on_c, 0, 58, 0
2, 5188, Note_on_c, 0, 68, 0
2, 5215, Note_on_c, 0, 72, 0
2, 5220, Note_on_c, 0, 63, 0
2, 5227, Note_on_c, 0, 68, 49
2, 5228, Note_on_c, 0, 58, 28
2, 5349, Note_on_c, 0, 64, 0
2, 5352, Note_on_c, 0, 68, 0
2, 5397, Note_on_c, 0, 72, 70
2, 5399, Note_on_c, 0, 68, 77
2, 5403, Note_on_c, 0, 64, 46
2, 5466, Note_on_c, 0, 72, 0
2, 5480, Note_on_c, 0, 68, 0
2, 5483, Note_on_c, 0, 75, 83
2, 5542, Note_on_c, 0, 75, 0
2, 5545, Note_on_c, 0, 64, 0
2, 5569, Note_on_c, 0, 75, 75
2, 5634, Note_on_c, 0, 75, 0
2, 5637, Note_on_c, 0, 58, 0
2, 5661, Note_on_c, 0, 68, 34
2, 5728, Note_on_c, 0, 68, 0
2, 5774, Note_on_c, 0, 70, 34
2, 5777, Note_on_c, 0, 65, 37
2, 5778, Note_on_c, 0, 51, 38
2, 5779, Note_on_c, 0, 62, 28
2, 5780, Control_c, 0, 64, 0
2, 5794, Control_c, 0, 64, 127
2, 5834, Note_on_c, 0, 51, 0
2, 5851, Note_on_c, 0, 62, 0
2, 5857, Note_on_c, 0, 65, 0
2, 5866, Note_on_c, 0, 70, 0
2, 5867, Note_on_c, 0, 51, 35
2, 5940, Note_on_c, 0, 77, 70
2, 5941, Note_on_c, 0, 70, 70
2, 5945, Note_on_c, 0, 62, 24
2, 5999, Note_on_c, 0, 62, 0
2, 6015, Note_on_c, 0, 77, 0
2, 6018, Note_on_c, 0, 74, 55
2, 6022, Note_on_c, 0, 65, 43
2, 6029, Note_on_c, 0, 62, 29
2, 6065, Note_on_c, 0, 62, 0
2, 6073, Note_on_c, 0, 65, 0
2, 6093, Note_on_c, 0, 70, 0
2, 6096, Note_on_c, 0, 74, 0
2, 6101, Note_on_c, 0, 62, 35
2, 6127, Note_on_c, 0, 62, 0
2, 6172, Note_on_c, 0, 82, 55
2, 6177, Note_on_c, 0, 74, 60
2, 6181, Note_on_c, 0, 62, 32
2, 6185, Note_on_c, 0, 70, 29
2, 6223, Note_on_c, 0, 51, 0
2, 6249, Note_on_c, 0, 51, 33
2, 6272, Note_on_c, 0, 74, 0
2, 6293, Note_on_c, 0, 70, 0
2, 6296, Note_on_c, 0, 51, 0
2, 6325, Note_on_c, 0, 82, 0
2, 6326, Note_on_c, 0, 51, 34
2, 6327, Note_on_c, 0, 70, 31
2, 6355, Note_on_c, 0, 62, 0
2, 6362, Note_on_c, 0, 70, 0
2, 6389, Note_on_c, 0, 80, 49
2, 6393, Note_on_c, 0, 72, 32
2, 6395, Note_on_c, 0, 68, 25
2, 6398, Note_on_c, 0, 60, 34
2, 6399, Control_c, 0, 64, 0
2, 6421, Control_c, 0, 64, 127
2, 6434, Note_on_c, 0, 51, 0
2, 6441, Note_on_c, 0, 80, 0
2, 6446, Note_on_c, 0, 72, 0
2, 6446, Note_on_c, 0, 51, 34
2, 6462, Note_on_c, 0, 68, 0
2, 6463, Note_on_c, 0, 60, 0
2, 6508, Note_on_c, 0, 72, 34
2, 6509, Note_on_c, 0, 68, 36
2, 6510, Note_on_c, 0, 63, 33
2, 6544, Note_on_c, 0, 60, 1
2, 6545, Note_on_c, 0, 51, 0
2, 6564, Note_on_c, 0, 51, 37
2, 6565, Note_on_c, 0, 63, 0
2, 6565, Note_on_c, 0, 60, 0
2, 6569, Note_on_c, 0, 72, 0
2, 6570, Note_on_c, 0, 68, 0
2, 6618, Note_on_c, 0, 63, 40
2, 6622, Note_on_c, 0, 60, 37
2, 6645, Note_on_c, 0, 60, 0
2, 6675, Note_on_c, 0, 60, 40
2, 6690, Note_on_c, 0, 63, 0
2, 6725, Note_on_c, 0, 63, 77
2, 6755, Note_on_c, 0, 51, 0
2, 6773, Note_on_c, 0, 60, 0
2, 6776, Note_on_c, 0, 68, 60
2, 6777, Note_on_c, 0, 51, 31
2, 6808, Note_on_c, 0, 51, 0
2, 6810, Note_on_c, 0, 63, 0
2, 6819, Note_on_c, 0, 68, 0
2, 6831, Note_on_c, 0, 62, 42
2, 6831, Note_on_c, 0, 65, 50
2, 6835, Control_c, 0, 64, 0
2, 6838, Note_on_c, 0, 51, 34
2, 6866, Note_on_c, 0, 51, 0
2, 6881, Control_c, 0, 64, 127
2, 6884, Note_on_c, 0, 51, 34
2, 6943, Note_on_c, 0, 58, 33
2, 6965, Note_on_c, 0, 51, 0
2, 6979, Note_on_c, 0, 65, 0
2, 6986, Note_on_c, 0, 62, 0
2, 6996, Note_on_c, 0, 51, 20
2, 7015, Note_on_c, 0, 58, 0
2, 7033, Note_on_c, 0, 51, 0
2, 7057, Note_on_c, 0, 62, 51
2, 7059, Note_on_c, 0, 58, 42
2, 7118, Note_on_c, 0, 51, 36
2, 7172, Note_on_c, 0, 51, 0
2, 7188, Note_on_c, 0, 53, 25
2, 7195, Note_on_c, 0, 62, 0
2, 7251, Note_on_c, 0, 39, 32
2, 7267, Note_on_c, 0, 53, 0
2, 7274, Note_on_c, 0, 39, 0
2, 7292, Note_on_c, 0, 58, 0
2, 7335, Note_on_c, 0, 56, 43
2, 7335, Note_on_c, 0, 39, 28
2, 7338, Note_on_c, 0, 51, 29
2, 7339, Note_on_c, 0, 27, 31
2, 7340, Note_on_c, 0, 63, 19
2, 7342, Note_on_c, 0, 60, 36
2, 7346, Control_c, 0, 64, 0
2, 7410, Control_c, 0, 64, 127
2, 7512, Note_on_c, 0, 51, 0
2, 7523, Note_on_c, 0, 60, 0
2, 7535, Note_on_c, 0, 56, 0
2, 7562, Note_on_c, 0, 63, 0
2, 7567, Note_on_c, 0, 27, 0
2, 7583, Note_on_c, 0, 39, 0
2, 7636, Note_on_c, 0, 68, 63
2, 7711, Note_on_c, 0, 70, 72
2, 7794, Note_on_c, 0, 75, 64
2, 7872, Note_on_c, 0, 68, 0
2, 7886, Note_on_c, 0, 70, 0
2, 7891, Note_on_c, 0, 75, 0
2, 7904, Note_on_c, 0, 51, 38
2, 7908, Control_c, 0, 64, 0
2, 7911, Note_on_c, 0, 75, 56
2, 7983, Note_on_c, 0, 58, 27
2, 8009, Control_c, 0, 64, 127
2, 8032, Note_on_c, 0, 70, 40
2, 8033, Note_on_c, 0, 75, 0
2, 8075, Note_on_c, 0, 51, 0
2, 8075, Note_on_c, 0, 75, 48
2, 8115, Note_on_c, 0, 70, 0
2, 8120, Note_on_c, 0, 51, 44
2, 8124, Note_on_c, 0, 58, 0
2, 8125, Note_on_c, 0, 69, 45
2, 8129, Control_c, 0, 64, 0
2, 8178, Note_on_c, 0, 59, 32
2, 8204, Note_on_c, 0, 69, 0
2, 8209, Control_c, 0, 64, 127
2, 8225, Note_on_c, 0, 69, 45
2, 8227, Note_on_c, 0, 75, 0
2, 8271, Note_on_c, 0, 75, 53
2, 8277, Note_on_c, 0, 51, 0
2, 8293, Note_on_c, 0, 69, 0
2, 8323, Control_c, 0, 64, 0
2, 8324, Note_on_c, 0, 68, 45
2, 8325, Note_on_c, 0, 51, 36
2, 8327, Note_on_c, 0, 59, 0
2, 8389, Note_on_c, 0, 60, 36
2, 8415, Note_on_c, 0, 68, 0
2, 8438, Control_c, 0, 64, 127
2, 8453, Note_on_c, 0, 68, 30
2, 8467, Note_on_c, 0, 75, 0
2, 8505, Note_on_c, 0, 75, 45
2, 8521, Note_on_c, 0, 51, 0
2, 8545, Note_on_c, 0, 68, 0
2, 8566, Note_on_c, 0, 69, 35
2, 8568, Control_c, 0, 64, 0
2, 8568, Note_on_c, 0, 51, 31
2, 8571, Note_on_c, 0, 60, 0
2, 8651, Note_on_c, 0, 59, 25
2, 8666, Control_c, 0, 64, 127
2, 8713, Note_on_c, 0, 69, 0
2, 8739, Note_on_c, 0, 68, 32
2, 8785, Note_on_c, 0, 70, 61
2, 8789, Note_on_c, 0, 75, 0
2, 8822, Note_on_c, 0, 68, 0
2, 8825, Note_on_c, 0, 75, 74
2, 8835, Note_on_c, 0, 70, 0
2, 8852, Note_on_c, 0, 51, 0
2, 8863, Note_on_c, 0, 75, 0
2, 8873, Note_on_c, 0, 59, 0
2, 8875, Note_on_c, 0, 75, 70
2, 8876, Note_on_c, 0, 51, 39
2, 8881, Control_c, 0, 64, 0
2, 8931, Note_on_c, 0, 58, 40
2, 8941, Control_c, 0, 64, 127
2, 8980, Note_on_c, 0, 70, 53
2, 8993, Note_on_c, 0, 75, 0
2, 9033, Note_on_c, 0, 75, 55
2, 9053, Note_on_c, 0, 70, 0
2, 9058, Note_on_c, 0, 75, 0
2, 9067, Note_on_c, 0, 51, 0
2, 9092, Note_on_c, 0, 51, 38
2, 9093, Note_on_c, 0, 78, 55
2, 9095, Note_on_c, 0, 58, 0
2, 9104, Control_c, 0, 64, 0
2, 9163, Note_on_c, 0, 60, 36
2, 9198, Control_c, 0, 64, 127
2, 9235, Note_on_c, 0, 66, 23
2, 9267, Note_on_c, 0, 78, 0
2, 9290, Note_on_c, 0, 51, 0
2, 9290, Note_on_c, 0, 78, 45
2, 9324, Note_on_c, 0, 66, 0
2, 9331, Note_on_c, 0, 78, 0
2, 9333, Note_on_c, 0, 60, 0
2, 9347, Note_on_c, 0, 77, 55
2, 9350, Note_on_c, 0, 51, 34
2, 9362, Control_c, 0, 64, 0
2, 9411, Control_c, 0, 64, 127
2, 9424, Note_on_c, 0, 59, 9
2, 9486, Note_on_c, 0, 69, 33
2, 9486, Note_on_c, 0, 65, 27
2, 9522, Note_on_c, 0, 77, 0
2, 9551, Note_on_c, 0, 77, 50
2, 9554, Note_on_c, 0, 65, 0
2, 9556, Note_on_c, 0, 51, 0
2, 9561, Note_on_c, 0, 69, 0
2, 9660, Note_on_c, 0, 77, 0
2, 9717, Note_on_c, 0, 59, 0
2, 9719, Note_on_c, 0, 76, 54
2, 9723, Note_on_c, 0, 51, 34
2, 9724, Note_on_c, 0, 68, 30
2, 9729, Note_on_c, 0, 64, 22
2, 9731, Control_c, 0, 64, 0
2, 9801, Control_c, 0, 64, 127
2, 9805, Note_on_c, 0, 64, 0
2, 9808, Note_on_c, 0, 68, 0
2, 9853, Note_on_c, 0, 77, 48
2, 9887, Note_on_c, 0, 77, 0
2, 9910, Note_on_c, 0, 79, 60
2, 9942, Note_on_c, 0, 79, 0
2, 9957, Note_on_c, 0, 76, 0
2, 10043, Note_on_c, 0, 75, 57
2, 10101, Note_on_c, 0, 51, 0
2, 10130, Note_on_c, 0, 75, 0
2, 10186, Note_on_c, 0, 77, 49
2, 10192, Control_c, 0, 64, 0
2, 10193, Note_on_c, 0, 74, 53
2, 10195, Note_on_c, 0, 70, 48
2, 10198, Note_on_c, 0, 39, 36
2, 10208, Note_on_c, 0, 65, 19
2, 10220, Control_c, 0, 64, 127
2, 10237, Note_on_c, 0, 74, 0
2, 10244, Note_on_c, 0, 77, 0
2, 10254, Note_on_c, 0, 70, 0
2, 10264, Note_on_c, 0, 65, 0
2, 10271, Note_on_c, 0, 39, 0
2, 10272, Note_on_c, 0, 46, 39
2, 10296, Note_on_c, 0, 46, 0
2, 10350, Note_on_c, 0, 67, 59
2, 10355, Note_on_c, 0, 41, 36
2, 10359, Note_on_c, 0, 60, 38
2, 10361, Note_on_c, 0, 51, 35
2, 10363, Control_c, 0, 64, 0
2, 10366, Note_on_c, 0, 56, 21
2, 10411, Control_c, 0, 64, 127
2, 10450, Note_on_c, 0, 56, 0
2, 10481, Note_on_c, 0, 51, 0
2, 10490, Note_on_c, 0, 50, 44
2, 10558, Note_on_c, 0, 60, 0
2, 10588, Note_on_c, 0, 67, 0
2, 10607, Note_on_c, 0, 50, 0
2, 10640, Note_on_c, 0, 41, 0
2, 10874, Note_on_c, 0, 67, 76
2, 10908, Note_on_c, 0, 67, 0
2, 10946, Note_on_c, 0, 70, 83
2, 11024, Note_on_c, 0, 70, 0
2, 11088, Note_on_c, 0, 70, 26
2, 11092, Note_on_c, 0, 63, 50
2, 11097, Note_on_c, 0, 61, 34
2, 11099, Note_on_c, 0, 45, 39
2, 11105, Note_on_c, 0, 55, 30
2, 11115, Control_c, 0, 64, 0
2, 11167, Note_on_c, 0, 61, 0
2, 11167, Control_c, 0, 64, 127
2, 11242, Note_on_c, 0, 58, 50
2, 11249, Note_on_c, 0, 63, 0
2, 11257, Note_on_c, 0, 70, 0
2, 11267, Note_on_c, 0, 55, 0
2, 11281, Note_on_c, 0, 45, 0
2, 11316, Note_on_c, 0, 58, 0
2, 11518, Control_c, 0, 64, 0
2, 11520, Note_on_c, 0, 60, 49
2, 11520, Note_on_c, 0, 55, 38
2, 11521, Note_on_c, 0, 44, 30
2, 11522, Note_on_c, 0, 51, 32
2, 11540, Control_c, 0, 64, 127
2, 11552, Note_on_c, 0, 55, 0
2, 11585, Note_on_c, 0, 60, 0
2, 11602, Note_on_c, 0, 67, 63
2, 11603, Note_on_c, 0, 56, 39
2, 11604, Note_on_c, 0, 55, 57
2, 11604, Note_on_c, 0, 60, 68
2, 11642, Note_on_c, 0, 55, 0
2, 11665, Note_on_c, 0, 67, 0
2, 11677, Note_on_c, 0, 65, 68
2, 11678, Note_on_c, 0, 53, 48
2, 11700, Note_on_c, 0, 60, 0
2, 11714, Note_on_c, 0, 65, 0
2, 11716, Note_on_c, 0, 56, 0
2, 11721, Note_on_c, 0, 53, 0
2, 11742, Note_on_c, 0, 51, 0
2, 11750, Note_on_c, 0, 44, 0
2, 11761, Note_on_c, 0, 65, 60
2, 11762, Note_on_c, 0, 43, 48
2, 11762, Note_on_c, 0, 58, 56
2, 11764, Control_c, 0, 64, 0
2, 11765, Note_on_c, 0, 53, 49
2, 11793, Control_c, 0, 64, 127
2, 11846, Note_on_c, 0, 53, 0
2, 11854, Note_on_c, 0, 65, 0
2, 11856, Note_on_c, 0, 58, 0
2, 11870, Note_on_c, 0, 64, 36
2, 11876, Note_on_c, 0, 58, 31
2, 11877, Note_on_c, 0, 52, 33
2, 11881, Control_c, 0, 64, 0
2, 11921, Control_c, 0, 64, 127
2, 11980, Note_on_c, 0, 43, 0
2, 11983, Note_on_c, 0, 52, 0
2, 11990, Note_on_c, 0, 64, 0
2, 12036, Note_on_c, 0, 58, 0
2, 12063, Note_on_c, 0, 41, 47
2, 12071, Note_on_c, 0, 74, 50
2, 12079, Note_on_c, 0, 71, 50
2, 12080, Note_on_c, 0, 67, 54
2, 12082, Note_on_c, 0, 63, 37
2, 12087, Control_c, 0, 64, 0
2, 12099, Note_on_c, 0, 53, 32
2, 12119, Control_c, 0, 64, 127
2, 12128, Note_on_c, 0, 41, 0
2, 12143, Note_on_c, 0, 53, 0
2, 12182, Note_on_c, 0, 63, 0
2, 12187, Note_on_c, 0, 67, 0
2, 12197, Note_on_c, 0, 71, 0
2, 12197, Note_on_c, 0, 60, 27
2, 12213, Note_on_c, 0, 74, 0
2, 12273, Note_on_c, 0, 60, 0
2, 12293, Note_on_c, 0, 67, 59
2, 12297, Note_on_c, 0, 63, 25
2, 12307, Note_on_c, 0, 63, 0
2, 12315, Note_on_c, 0, 67, 0
2, 12378, Note_on_c, 0, 86, 64
2, 12451, Note_on_c, 0, 86, 0
2, 12498, Note_on_c, 0, 84, 39
2, 12499, Note_on_c, 0, 79, 40
2, 12503, Note_on_c, 0, 72, 26
2, 12504, Note_on_c, 0, 62, 28
2, 12506, Note_on_c, 0, 67, 33
2, 12508, Note_on_c, 0, 63, 28
2, 12649, Note_on_c, 0, 72, 0
2, 12673, Note_on_c, 0, 79, 0
2, 12685, Note_on_c, 0, 84, 0
2, 12721, Note_on_c, 0, 67, 0
2, 12732, Note_on_c, 0, 63, 0
2, 12732, Note_on_c, 0, 62, 0
2, 12803, Note_on_c, 0, 84, 90
2, 12805, Note_on_c, 0, 60, 64
2, 12856, Note_on_c, 0, 84, 0
2, 12865, Note_on_c, 0, 60, 0
2, 12868, Note_on_c, 0, 63, 59
2, 12868, Note_on_c, 0, 87, 77
2, 12903, Note_on_c, 0, 87, 0
2, 12917, Note_on_c, 0, 63, 0
2, 12938, Note_on_c, 0, 80, 54
2, 12939, Note_on_c, 0, 56, 31
2, 12955, Note_on_c, 0, 56, 0
2, 12971, Note_on_c, 0, 80, 0
2, 13034, Note_on_c, 0, 82, 52
2, 13039, Note_on_c, 0, 74, 42
2, 13043, Note_on_c, 0, 51, 34
2, 13045, Control_c, 0, 64, 0
2, 13063, Control_c, 0, 64, 127
2, 13092, Note_on_c, 0, 82, 0
2, 13095, Note_on_c, 0, 51, 0
2, 13102, Note_on_c, 0, 74, 0
2, 13121, Note_on_c, 0, 51, 37
2, 13179, Note_on_c, 0, 51, 0
2, 13198, Note_on_c, 0, 70, 35
2, 13201, Note_on_c, 0, 51, 40
2, 13202, Note_on_c, 0, 65, 45
2, 13203, Note_on_c, 0, 62, 29
2, 13241, Note_on_c, 0, 51, 0
2, 13287, Note_on_c, 0, 51, 37
2, 13303, Note_on_c, 0, 65, 0
2, 13337, Note_on_c, 0, 62, 0
2, 13339, Note_on_c, 0, 51, 0
2, 13367, Note_on_c, 0, 70, 0
2, 13382, Note_on_c, 0, 51, 47
2, 13383, Note_on_c, 0, 68, 36
2, 13385, Note_on_c, 0, 60, 34
2, 13385, Note_on_c, 0, 63, 33
2, 13389, Control_c, 0, 64, 0
2, 13419, Control_c, 0, 64, 127
2, 13435, Note_on_c, 0, 60, 0
2, 13443, Note_on_c, 0, 63, 0
2, 13447, Note_on_c, 0, 68, 0
2, 13479, Note_on_c, 0, 72, 61
2, 13507, Note_on_c, 0, 72, 0
2, 13561, Note_on_c, 0, 75, 61
2, 13565, Note_on_c, 0, 60, 32
2, 13567, Note_on_c, 0, 68, 45
2, 13571, Note_on_c, 0, 63, 32
2, 13662, Note_on_c, 0, 51, 0
2, 13685, Note_on_c, 0, 60, 0
2, 13746, Note_on_c, 0, 75, 0
2, 13747, Note_on_c, 0, 74, 59
2, 13769, Note_on_c, 0, 68, 0
2, 13774, Note_on_c, 0, 63, 0
2, 13846, Note_on_c, 0, 74, 0
2, 13859, Note_on_c, 0, 75, 57
2, 13860, Note_on_c, 0, 70, 46
2, 13861, Note_on_c, 0, 39, 42
2, 13870, Control_c, 0, 64, 0
2, 13898, Control_c, 0, 64, 127
2, 13920, Note_on_c, 0, 39, 0
2, 13922, Note_on_c, 0, 46, 48
2, 13972, Note_on_c, 0, 46, 0
2, 13983, Note_on_c, 0, 55, 60
2, 14042, Note_on_c, 0, 58, 51
2, 14044, Note_on_c, 0, 70, 0
2, 14049, Note_on_c, 0, 55, 0
2, 14053, Note_on_c, 0, 75, 0
2, 14111, Note_on_c, 0, 70, 56
2, 14112, Note_on_c, 0, 62, 49
2, 14117, Note_on_c, 0, 67, 40
2, 14192, Note_on_c, 0, 67, 0
2, 14243, Note_on_c, 0, 70, 0
2, 14243, Note_on_c, 0, 74, 73
2, 14256, Note_on_c, 0, 62, 0
2, 14267, Note_on_c, 0, 58, 0
2, 14287, Note_on_c, 0, 74, 0
2, 14351, Note_on_c, 0, 65, 50
2, 14354, Note_on_c, 0, 72, 36
2, 14354, Note_on_c, 0, 50, 27
2, 14355, Note_on_c, 0, 57, 37
2, 14358, Note_on_c, 0, 60, 33
2, 14361, Note_on_c, 0, 79, 69
2, 14365, Control_c, 0, 64, 0
2, 14419, Control_c, 0, 64, 127
2, 14523, Note_on_c, 0, 50, 0
2, 14525, Note_on_c, 0, 57, 0
2, 14546, Note_on_c, 0, 79, 0
2, 14548, Note_on_c, 0, 60, 0
2, 14560, Note_on_c, 0, 77, 46
2, 14563, Note_on_c, 0, 65, 0
2, 14639, Note_on_c, 0, 72, 0
2, 14641, Note_on_c, 0, 77, 0
2, 14655, Note_on_c, 0, 79, 49
2, 14664, Control_c, 0, 64, 0
2, 14667, Note_on_c, 0, 55, 31
2, 14727, Note_on_c, 0, 55, 0
2, 14727, Note_on_c, 0, 79, 0
2, 14737, Note_on_c, 0, 55, 44
2, 14800, Note_on_c, 0, 62, 37
2, 14815, Control_c, 0, 64, 127
2, 14861, Note_on_c, 0, 70, 44
2, 14915, Note_on_c, 0, 70, 0
2, 14927, Note_on_c, 0, 79, 47
2, 14929, Note_on_c, 0, 67, 40
2, 14965, Note_on_c, 0, 67, 0
2, 14979, Note_on_c, 0, 79, 0
2, 14992, Note_on_c, 0, 69, 34
2, 14995, Note_on_c, 0, 62, 0
2, 15006, Note_on_c, 0, 55, 0
2, 15025, Note_on_c, 0, 69, 0
2, 15074, Note_on_c, 0, 65, 32
2, 15075, Note_on_c, 0, 72, 29
2, 15076, Note_on_c, 0, 57, 31
2, 15077, Note_on_c, 0, 60, 24
2, 15077, Note_on_c, 0, 77, 37
2, 15079, Note_on_c, 0, 50, 22
2, 15089, Control_c, 0, 64, 0
2, 15123, Control_c, 0, 64, 127
2, 15164, Note_on_c, 0, 77, 0
2, 15166, Note_on_c, 0, 74, 51
2, 15177, Note_on_c, 0, 65, 0
2, 15211, Note_on_c, 0, 74, 0
2, 15213, Note_on_c, 0, 72, 0
2, 15215, Note_on_c, 0, 79, 71
2, 15218, Note_on_c, 0, 50, 0
2, 15224, Note_on_c, 0, 57, 0
2, 15253, Note_on_c, 0, 79, 0
2, 15256, Note_on_c, 0, 77, 71
2, 15268, Note_on_c, 0, 60, 0
2, 15290, Note_on_c, 0, 77, 0
2, 15302, Note_on_c, 0, 79, 74
2, 15309, Note_on_c, 0, 55, 51
2, 15317, Control_c, 0, 64, 0
2, 15353, Control_c, 0, 64, 127
2, 15359, Note_on_c, 0, 62, 47
2, 15402, Note_on_c, 0, 79, 0
2, 15409, Note_on_c, 0, 74, 42
2, 15409, Note_on_c, 0, 70, 34
2, 15411, Note_on_c, 0, 69, 41
2, 15413, Note_on_c, 0, 67, 44
2, 15435, Note_on_c, 0, 67, 0
2, 15453, Note_on_c, 0, 62, 0
2, 15457, Note_on_c, 0, 74, 0
2, 15458, Note_on_c, 0, 69, 0
2, 15463, Note_on_c, 0, 70, 0
2, 15464, Note_on_c, 0, 55, 0
2, 15464, Note_on_c, 0, 79, 61
2, 15492, Note_on_c, 0, 79, 0
2, 15533, Note_on_c, 0, 77, 53
2, 15538, Note_on_c, 0, 72, 36
2, 15538, Note_on_c, 0, 65, 41
2, 15540, Note_on_c, 0, 50, 33
2, 15543, Note_on_c, 0, 60, 24
2, 15552, Control_c, 0, 64, 0
2, 15586, Control_c, 0, 64, 127
2, 15597, Note_on_c, 0, 65, 0
2, 15599, Note_on_c, 0, 77, 0
2, 15606, Note_on_c, 0, 72, 0
2, 15617, Note_on_c, 0, 81, 80
2, 15617, Note_on_c, 0, 57, 39
2, 15622, Note_on_c, 0, 60, 0
2, 15665, Note_on_c, 0, 81, 0
2, 15696, Note_on_c, 0, 81, 85
2, 15699, Note_on_c, 0, 60, 45
2, 15730, Note_on_c, 0, 50, 0
2, 15733, Note_on_c, 0, 57, 0
2, 15765, Note_on_c, 0, 81, 0
2, 15766, Note_on_c, 0, 77, 77
2, 15768, Note_on_c, 0, 60, 0
2, 15829, Note_on_c, 0, 77, 0
2, 15840, Note_on_c, 0, 79, 68
2, 15843, Note_on_c, 0, 74, 69
2, 15844, Note_on_c, 0, 62, 54
2, 15845, Note_on_c, 0, 70, 59
2, 15848, Note_on_c, 0, 55, 54
2, 15849, Control_c, 0, 64, 0
2, 15871, Control_c, 0, 64, 127
2, 15904, Note_on_c, 0, 70, 0
2, 15907, Note_on_c, 0, 79, 0
2, 15913, Note_on_c, 0, 81, 82
2, 15914, Note_on_c, 0, 55, 0
2, 15922, Note_on_c, 0, 79, 22
2, 15942, Note_on_c, 0, 74, 0
2, 15955, Note_on_c, 0, 81, 0
2, 15966, Note_on_c, 0, 79, 0
2, 15977, Note_on_c, 0, 81, 69
2, 15980, Note_on_c, 0, 74, 74
2, 15981, Note_on_c, 0, 70, 72
2, 15981, Note_on_c, 0, 66, 79
2, 15983, Note_on_c, 0, 79, 50
2, 15987, Control_c, 0, 64, 0
2, 15991, Note_on_c, 0, 62, 0
2, 16007, Control_c, 0, 64, 127
2, 16021, Note_on_c, 0, 81, 0
2, 16029, Note_on_c, 0, 79, 0
2, 16036, Note_on_c, 0, 70, 0
2, 16045, Note_on_c, 0, 82, 78
2, 16078, Note_on_c, 0, 66, 0
2, 16088, Note_on_c, 0, 82, 0
2, 16100, Note_on_c, 0, 74, 0
2, 16112, Note_on_c, 0, 82, 74
2, 16115, Note_on_c, 0, 74, 73
2, 16116, Note_on_c, 0, 70, 67
2, 16116, Note_on_c, 0, 65, 75
2, 16117, Control_c, 0, 64, 0
2, 16135, Control_c, 0, 64, 127
2, 16174, Note_on_c, 0, 82, 0
2, 16192, Note_on_c, 0, 81, 74
2, 16253, Note_on_c, 0, 81, 0
2, 16267, Note_on_c, 0, 70, 0
2, 16275, Note_on_c, 0, 81, 62
2, 16276, Note_on_c, 0, 64, 53
2, 16277, Note_on_c, 0, 65, 0
2, 16277, Note_on_c, 0, 70, 32
2, 16284, Control_c, 0, 64, 0
2, 16302, Control_c, 0, 64, 127
2, 16357, Note_on_c, 0, 74, 0
2, 16359, Note_on_c, 0, 77, 62
2, 16362, Note_on_c, 0, 81, 0
2, 16413, Note_on_c, 0, 70, 0
2, 16428, Note_on_c, 0, 77, 0
2, 16437, Note_on_c, 0, 79, 55
2, 16437, Note_on_c, 0, 75, 52
2, 16438, Note_on_c, 0, 63, 51
2, 16439, Note_on_c, 0, 64, 0
2, 16439, Note_on_c, 0, 70, 32
2, 16442, Control_c, 0, 64, 0
2, 16473, Control_c, 0, 64, 127
2, 16497, Note_on_c, 0, 70, 0
2, 16506, Note_on_c, 0, 79, 0
2, 16517, Note_on_c, 0, 70, 33
2, 16547, Note_on_c, 0, 75, 0
2, 16557, Note_on_c, 0, 70, 0
2, 16584, Note_on_c, 0, 63, 0
2, 16585, Note_on_c, 0, 62, 47
2, 16586, Note_on_c, 0, 70, 33
2, 16587, Note_on_c, 0, 74, 53
2, 16587, Note_on_c, 0, 79, 47
2, 16597, Control_c, 0, 64, 0
2, 16619, Control_c, 0, 64, 127
2, 16649, Note_on_c, 0, 70, 0
2, 16661, Note_on_c, 0, 74, 0
2, 16663, Note_on_c, 0, 70, 12
2, 16680, Note_on_c, 0, 70, 0
2, 16694, Note_on_c, 0, 79, 0
2, 16749, Note_on_c, 0, 62, 0
2, 16751, Note_on_c, 0, 79, 40
2, 16754, Note_on_c, 0, 67, 37
2, 16757, Note_on_c, 0, 75, 44
2, 16761, Control_c, 0, 64, 0
2, 16761, Note_on_c, 0, 60, 28
2, 16791, Control_c, 0, 64, 127
2, 16821, Note_on_c, 0, 67, 0
2, 16849, Note_on_c, 0, 67, 46
2, 16869, Note_on_c, 0, 67, 0
2, 16876, Note_on_c, 0, 75, 0
2, 16903, Note_on_c, 0, 79, 0
2, 16935, Note_on_c, 0, 60, 0
2, 16941, Note_on_c, 0, 71, 53
2, 16944, Note_on_c, 0, 67, 31
2, 16945, Note_on_c, 0, 59, 45
2, 16945, Note_on_c, 0, 62, 28
2, 16952, Control_c, 0, 64, 0
2, 16992, Control_c, 0, 64, 127
2, 17024, Note_on_c, 0, 79, 71
2, 17076, Note_on_c, 0, 71, 0
2, 17098, Note_on_c, 0, 79, 0
2, 17104, Note_on_c, 0, 67, 0
2, 17105, Note_on_c, 0, 74, 68
2, 17110, Note_on_c, 0, 62, 0
2, 17119, Note_on_c, 0, 59, 0
2, 17186, Note_on_c, 0, 74, 0
2, 17206, Note_on_c, 0, 75, 60
2, 17208, Note_on_c, 0, 70, 57
2, 17210, Note_on_c, 0, 46, 32
2, 17212, Note_on_c, 0, 67, 40
2, 17217, Control_c, 0, 64, 0
2, 17220, Note_on_c, 0, 55, 27
2, 17253, Control_c, 0, 64, 127
2, 17306, Note_on_c, 0, 78, 40
2, 17306, Note_on_c, 0, 77, 71
2, 17339, Note_on_c, 0, 78, 0
2, 17350, Note_on_c, 0, 67, 0
2, 17359, Note_on_c, 0, 70, 0
2, 17360, Note_on_c, 0, 77, 0
2, 17361, Note_on_c, 0, 55, 0
2, 17369, Note_on_c, 0, 75, 0
2, 17381, Note_on_c, 0, 46, 0
2, 17405, Note_on_c, 0, 77, 62
2, 17407, Note_on_c, 0, 45, 39
2, 17411, Note_on_c, 0, 72, 44
2, 17411, Note_on_c, 0, 69, 44
2, 17413, Note_on_c, 0, 65, 35
2, 17420, Note_on_c, 0, 72, 0
2, 17421, Control_c, 0, 64, 0
2, 17449, Control_c, 0, 64, 127
2, 17475, Note_on_c, 0, 69, 0
2, 17484, Note_on_c, 0, 65, 0
2, 17487, Note_on_c, 0, 77, 0
2, 17503, Note_on_c, 0, 53, 44
2, 17505, Note_on_c, 0, 57, 38
2, 17505, Note_on_c, 0, 79, 69
2, 17540, Note_on_c, 0, 53, 0
2, 17554, Note_on_c, 0, 57, 0
2, 17562, Note_on_c, 0, 45, 0
2, 17576, Note_on_c, 0, 79, 0
2, 17621, Note_on_c, 0, 79, 58
2, 17623, Note_on_c, 0, 72, 45
2, 17624, Note_on_c, 0, 44, 48
2, 17626, Note_on_c, 0, 65, 52
2, 17632, Control_c, 0, 64, 0
2, 17660, Control_c, 0, 64, 127
2, 17676, Note_on_c, 0, 44, 0
2, 17765, Note_on_c, 0, 56, 36
2, 17809, Note_on_c, 0, 79, 0
2, 17827, Note_on_c, 0, 65, 0
2, 17831, Note_on_c, 0, 72, 0
2, 17853, Note_on_c, 0, 77, 57
2, 17856, Note_on_c, 0, 72, 28
2, 17859, Note_on_c, 0, 65, 24
2, 17859, Note_on_c, 0, 60, 25
2, 17893, Note_on_c, 0, 72, 0
2, 17929, Note_on_c, 0, 77, 0
2, 17932, Note_on_c, 0, 65, 0
2, 17946, Note_on_c, 0, 63, 26
2, 17947, Note_on_c, 0, 72, 30
2, 17963, Note_on_c, 0, 63, 0
2, 17963, Note_on_c, 0, 60, 0
2, 17976, Note_on_c, 0, 56, 0
2, 17982, Note_on_c, 0, 72, 0
2, 18048, Note_on_c, 0, 67, 34
2, 18049, Note_on_c, 0, 74, 52
2, 18053, Note_on_c, 0, 72, 34
2, 18053, Note_on_c, 0, 43, 36
2, 18059, Control_c, 0, 64, 0
2, 18079, Control_c, 0, 64, 127
2, 18104, Note_on_c, 0, 72, 0
2, 18106, Note_on_c, 0, 74, 0
2, 18112, Note_on_c, 0, 67, 0
2, 18168, Note_on_c, 0, 55, 36
2, 18183, Note_on_c, 0, 55, 0
2, 18204, Note_on_c, 0, 60, 58
2, 18232, Note_on_c, 0, 43, 0
2, 18234, Note_on_c, 0, 60, 0
2, 18235, Note_on_c, 0, 62, 74
2, 18249, Note_on_c, 0, 62, 0
2, 18267, Note_on_c, 0, 67, 80
2, 18292, Note_on_c, 0, 67, 0
2, 18299, Note_on_c, 0, 72, 72
2, 18301, Note_on_c, 0, 67, 39
2, 18337, Note_on_c, 0, 74, 68
2, 18364, Note_on_c, 0, 74, 0
2, 18376, Note_on_c, 0, 74, 68
2, 18409, Note_on_c, 0, 74, 0
2, 18422, Note_on_c, 0, 67, 0
2, 18425, Note_on_c, 0, 74, 42
2, 18436, Note_on_c, 0, 55, 25
2, 18464, Note_on_c, 0, 74, 0
2, 18469, Note_on_c, 0, 72, 0
2, 18488, Note_on_c, 0, 74, 44
2, 18492, Note_on_c, 0, 72, 29
2, 18492, Note_on_c, 0, 62, 29
2, 18522, Note_on_c, 0, 74, 0
2, 18534, Note_on_c, 0, 72, 0
2, 18553, Note_on_c, 0, 74, 40
2, 18561, Note_on_c, 0, 72, 17
2, 18564, Note_on_c, 0, 62, 0
2, 18582, Note_on_c, 0, 74, 0
2, 18587, Note_on_c, 0, 55, 0
2, 18599, Note_on_c, 0, 72, 0
2, 18617, Note_on_c, 0, 72, 19
2, 18618, Note_on_c, 0, 74, 43
2, 18636, Note_on_c, 0, 74, 0
2, 18654, Note_on_c, 0, 72, 0
2, 18782, Note_on_c, 0, 71, 31
2, 18783, Note_on_c, 0, 73, 18
2, 18788, Note_on_c, 0, 65, 29
2, 18791, Note_on_c, 0, 59, 28
2, 18791, Note_on_c, 0, 53, 27
2, 18801, Control_c, 0, 64, 0
2, 18841, Control_c, 0, 64, 127
2, 18905, Note_on_c, 0, 65, 0
2, 18949, Note_on_c, 0, 63, 21
2, 18987, Note_on_c, 0, 71, 0
2, 19018, Note_on_c, 0, 71, 55
2, 19019, Note_on_c, 0, 73, 0
2, 19071, Note_on_c, 0, 71, 0
2, 19073, Note_on_c, 0, 75, 73
2, 19131, Note_on_c, 0, 71, 58
2, 19145, Note_on_c, 0, 63, 0
2, 19157, Note_on_c, 0, 75, 0
2, 19164, Note_on_c, 0, 53, 0
2, 19166, Note_on_c, 0, 59, 0
2, 19168, Note_on_c, 0, 71, 0
2, 19234, Note_on_c, 0, 74, 57
2, 19242, Note_on_c, 0, 46, 28
2, 19243, Note_on_c, 0, 66, 13
2, 19243, Note_on_c, 0, 62, 26
2, 19247, Note_on_c, 0, 69, 26
2, 19256, Control_c, 0, 64, 0
2, 19298, Control_c, 0, 64, 127
2, 19301, Note_on_c, 0, 54, 46
2, 19324, Note_on_c, 0, 62, 0
2, 19335, Note_on_c, 0, 66, 0
2, 19346, Note_on_c, 0, 69, 0
2, 19352, Note_on_c, 0, 46, 0
2, 19353, Note_on_c, 0, 54, 0
2, 19358, Note_on_c, 0, 57, 47
2, 19364, Note_on_c, 0, 74, 0
2, 19391, Note_on_c, 0, 57, 0
2, 19414, Note_on_c, 0, 62, 34
2, 19420, Note_on_c, 0, 81, 68
2, 19422, Note_on_c, 0, 74, 69
2, 19468, Note_on_c, 0, 81, 0
2, 19473, Note_on_c, 0, 74, 0
2, 19482, Note_on_c, 0, 78, 37
2, 19484, Note_on_c, 0, 69, 44
2, 19488, Note_on_c, 0, 62, 0
2, 19489, Note_on_c, 0, 66, 43
2, 19492, Note_on_c, 0, 69, 0
2, 19502, Note_on_c, 0, 78, 0
2, 19510, Note_on_c, 0, 66, 0
2, 19560, Note_on_c, 0, 86, 65
2, 19562, Note_on_c, 0, 69, 41
2, 19566, Note_on_c, 0, 78, 35
2, 19618, Note_on_c, 0, 78, 0
2, 19625, Note_on_c, 0, 86, 0
2, 19632, Note_on_c, 0, 69, 0
2, 19638, Note_on_c, 0, 78, 23
2, 19640, Note_on_c, 0, 74, 43
2, 19640, Note_on_c, 0, 81, 41
2, 19642, Note_on_c, 0, 66, 25
2, 19674, Note_on_c, 0, 74, 0
2, 19683, Note_on_c, 0, 78, 0
2, 19721, Note_on_c, 0, 74, 38
2, 19722, Note_on_c, 0, 81, 0
2, 19742, Note_on_c, 0, 66, 0
2, 19752, Note_on_c, 0, 74, 0
2, 19812, Note_on_c, 0, 80, 46
2, 19813, Note_on_c, 0, 75, 39
2, 19814, Note_on_c, 0, 72, 24
2, 19814, Note_on_c, 0, 46, 30
2, 19825, Control_c, 0, 64, 0
2, 19847, Control_c, 0, 64, 127
2, 19872, Note_on_c, 0, 80, 0
2, 19879, Note_on_c, 0, 75, 0
2, 19884, Note_on_c, 0, 72, 0
2, 19898, Note_on_c, 0, 56, 25
2, 19986, Note_on_c, 0, 68, 27
2, 19988, Note_on_c, 0, 63, 25
2, 19996, Note_on_c, 0, 60, 12
2, 20050, Note_on_c, 0, 60, 0
2, 20072, Note_on_c, 0, 68, 0
2, 20072, Note_on_c, 0, 60, 66
2, 20084, Note_on_c, 0, 63, 0
2, 20149, Note_on_c, 0, 60, 0
2, 20154, Note_on_c, 0, 63, 83
2, 20170, Note_on_c, 0, 56, 0
2, 20210, Note_on_c, 0, 63, 0
2, 20225, Note_on_c, 0, 63, 60
2, 20286, Note_on_c, 0, 63, 0
2, 20286, Note_on_c, 0, 46, 0
2, 20290, Note_on_c, 0, 56, 65
2, 20340, Note_on_c, 0, 56, 0
2, 20357, Note_on_c, 0, 56, 46
2, 20438, Note_on_c, 0, 56, 0
2, 20476, Note_on_c, 0, 53, 30
2, 20476, Note_on_c, 0, 58, 39
2, 20477, Note_on_c, 0, 55, 41
2, 20482, Note_on_c, 0, 39, 37
2, 20485, Control_c, 0, 64, 0
2, 20511, Control_c, 0, 64, 127
2, 20526, Note_on_c, 0, 53, 0
2, 20528, Note_on_c, 0, 55, 0
2, 20540, Note_on_c, 0, 58, 0
2, 20547, Note_on_c, 0, 46, 50
2, 20557, Note_on_c, 0, 39, 0
2, 20594, Note_on_c, 0, 46, 0
2, 20604, Note_on_c, 0, 62, 55
2, 20606, Note_on_c, 0, 65, 39
2, 20607, Note_on_c, 0, 55, 50
2, 20642, Note_on_c, 0, 62, 0
2, 20652, Note_on_c, 0, 58, 37
2, 20653, Note_on_c, 0, 70, 62
2, 20656, Note_on_c, 0, 65, 0
2, 20665, Note_on_c, 0, 55, 0
2, 20671, Note_on_c, 0, 70, 0
2, 20705, Note_on_c, 0, 70, 74
2, 20706, Note_on_c, 0, 62, 53
2, 20748, Note_on_c, 0, 70, 0
2, 20757, Note_on_c, 0, 77, 75
2, 20782, Note_on_c, 0, 62, 0
2, 20795, Note_on_c, 0, 77, 0
2, 20803, Note_on_c, 0, 58, 0
2, 20813, Note_on_c, 0, 75, 65
2, 20816, Note_on_c, 0, 72, 54
2, 20817, Note_on_c, 0, 68, 45
2, 20820, Note_on_c, 0, 58, 51
2, 20826, Control_c, 0, 64, 0
2, 20856, Control_c, 0, 64, 127
2, 20877, Note_on_c, 0, 72, 0
2, 20884, Note_on_c, 0, 63, 37
2, 20889, Note_on_c, 0, 68, 0
2, 20949, Note_on_c, 0, 68, 55
2, 20953, Note_on_c, 0, 75, 0
2, 20960, Note_on_c, 0, 63, 0
2, 20966, Note_on_c, 0, 58, 0
2, 21002, Note_on_c, 0, 75, 60
2, 21046, Note_on_c, 0, 75, 0
2, 21052, Note_on_c, 0, 68, 0
2, 21064, Note_on_c, 0, 74, 53
2, 21064, Note_on_c, 0, 65, 31
2, 21067, Note_on_c, 0, 51, 33
2, 21068, Note_on_c, 0, 70, 37
2, 21076, Control_c, 0, 64, 0
2, 21114, Control_c, 0, 64, 127
2, 21134, Note_on_c, 0, 58, 35
2, 21159, Note_on_c, 0, 65, 0
2, 21166, Note_on_c, 0, 70, 0
2, 21202, Note_on_c, 0, 65, 60
2, 21221, Note_on_c, 0, 74, 0
2, 21228, Note_on_c, 0, 65, 0
2, 21286, Note_on_c, 0, 72, 46
2, 21286, Note_on_c, 0, 63, 49
2, 21288, Note_on_c, 0, 68, 52
2, 21290, Note_on_c, 0, 60, 40
2, 21300, Note_on_c, 0, 58, 0
2, 21301, Control_c, 0, 64, 0
2, 21331, Control_c, 0, 64, 127
2, 21371, Note_on_c, 0, 68, 0
2, 21399, Note_on_c, 0, 68, 57
2, 21400, Note_on_c, 0, 72, 0
2, 21452, Note_on_c, 0, 63, 0
2, 21484, Note_on_c, 0, 70, 78
2, 21494, Note_on_c, 0, 68, 0
2, 21546, Note_on_c, 0, 70, 0
2, 21564, Note_on_c, 0, 70, 60
2, 21570, Note_on_c, 0, 58, 36
2, 21575, Note_on_c, 0, 60, 0
2, 21602, Note_on_c, 0, 51, 0
2, 21637, Note_on_c, 0, 58, 0
2, 21654, Note_on_c, 0, 75, 62
2, 21660, Note_on_c, 0, 70, 0
2, 21692, Note_on_c, 0, 75, 39
2, 21707, Note_on_c, 0, 75, 0
2, 21736, Note_on_c, 0, 74, 39
2, 21751, Note_on_c, 0, 74, 0
2, 21753, Note_on_c, 0, 75, 0
2, 21779, Note_on_c, 0, 75, 60
2, 21782, Control_c, 0, 64, 0
2, 21784, Note_on_c, 0, 39, 44
2, 21797, Control_c, 0, 64, 127
2, 21813, Note_on_c, 0, 39, 0
2, 21892, Note_on_c, 0, 51, 33
2, 22104, Note_on_c, 0, 70, 40
2, 22105, Note_on_c, 0, 75, 0
2, 22135, Note_on_c, 0, 75, 51
2, 22143, Note_on_c, 0, 70, 0
2, 22177, Note_on_c, 0, 69, 61
2, 22185, Note_on_c, 0, 59, 20
2, 22194, Control_c, 0, 64, 0
2, 22230, Control_c, 0, 64, 127
2, 22239, Note_on_c, 0, 69, 0
2, 22248, Note_on_c, 0, 75, 0
2, 22249, Note_on_c, 0, 69, 34
2, 22286, Note_on_c, 0, 75, 45
2, 22288, Note_on_c, 0, 69, 0
2, 22290, Note_on_c, 0, 59, 0
2, 22339, Note_on_c, 0, 68, 46
2, 22344, Note_on_c, 0, 60, 36
2, 22360, Control_c, 0, 64, 0
2, 22396, Control_c, 0, 64, 127
2, 22441, Note_on_c, 0, 68, 0
2, 22466, Note_on_c, 0, 68, 27
2, 22467, Note_on_c, 0, 75, 0
2, 22505, Note_on_c, 0, 75, 42
2, 22514, Note_on_c, 0, 60, 0
2, 22531, Note_on_c, 0, 68, 0
2, 22565, Note_on_c, 0, 69, 41
2, 22569, Note_on_c, 0, 59, 27
2, 22585, Control_c, 0, 64, 0
2, 22617, Control_c, 0, 64, 127
2, 22652, Note_on_c, 0, 69, 0
2, 22698, Note_on_c, 0, 68, 35
2, 22742, Note_on_c, 0, 70, 59
2, 22744, Note_on_c, 0, 75, 0
2, 22778, Note_on_c, 0, 68, 0
2, 22783, Note_on_c, 0, 75, 67
2, 22806, Note_on_c, 0, 51, 0
2, 22812, Note_on_c, 0, 70, 0
2, 22818, Note_on_c, 0, 75, 0
2, 22839, Note_on_c, 0, 59, 0
2, 22839, Note_on_c, 0, 75, 64
2, 22840, Note_on_c, 0, 51, 35
2, 22854, Control_c, 0, 64, 0
2, 22886, Control_c, 0, 64, 127
2, 22892, Note_on_c, 0, 58, 48
2, 22942, Note_on_c, 0, 67, 63
2, 22951, Note_on_c, 0, 75, 0
2, 23002, Note_on_c, 0, 75, 64
2, 23039, Note_on_c, 0, 75, 0
2, 23046, Note_on_c, 0, 51, 0
2, 23066, Note_on_c, 0, 67, 0
2, 23070, Note_on_c, 0, 78, 60
2, 23070, Note_on_c, 0, 51, 34
2, 23075, Note_on_c, 0, 58, 0
2, 23090, Control_c, 0, 64, 0
2, 23128, Control_c, 0, 64, 127
2, 23161, Note_on_c, 0, 66, 21
2, 23240, Note_on_c, 0, 61, 28
2, 23315, Note_on_c, 0, 66, 0
2, 23336, Note_on_c, 0, 66, 19
2, 23365, Note_on_c, 0, 78, 0
2, 23370, Note_on_c, 0, 51, 0
2, 23393, Note_on_c, 0, 66, 0
2, 23401, Note_on_c, 0, 77, 51
2, 23401, Note_on_c, 0, 51, 29
2, 23402, Note_on_c, 0, 61, 0
2, 23451, Control_c, 0, 64, 0
2, 23463, Note_on_c, 0, 60, 36
2, 23481, Control_c, 0, 64, 127
2, 23523, Note_on_c, 0, 77, 0
2, 23527, Note_on_c, 0, 65, 31
2, 23582, Note_on_c, 0, 77, 47
2, 23594, Note_on_c, 0, 51, 0
2, 23641, Note_on_c, 0, 60, 0
2, 23641, Note_on_c, 0, 51, 35
2, 23661, Note_on_c, 0, 65, 0
2, 23662, Control_c, 0, 64, 0
2, 23694, Control_c, 0, 64, 127
2, 23721, Note_on_c, 0, 59, 34
2, 23870, Note_on_c, 0, 77, 0
2, 23936, Note_on_c, 0, 77, 46
2, 24037, Note_on_c, 0, 77, 0
2, 24043, Note_on_c, 0, 79, 60
2, 24114, Note_on_c, 0, 79, 0
2, 24130, Note_on_c, 0, 75, 53
2, 24170, Note_on_c, 0, 51, 0
2, 24194, Note_on_c, 0, 75, 0
2, 24213, Note_on_c, 0, 77, 52
2, 24217, Note_on_c, 0, 59, 0
2, 24218, Note_on_c, 0, 51, 33
2, 24229, Control_c, 0, 64, 0
2, 24250, Control_c, 0, 64, 127
2, 24296, Note_on_c, 0, 77, 0
2, 24311, Note_on_c, 0, 79, 66
2, 24343, Note_on_c, 0, 51, 0
2, 24367, Note_on_c, 0, 79, 0
2, 24493, Note_on_c, 0, 79, 55
2, 24524, Note_on_c, 0, 79, 0
2, 24556, Note_on_c, 0, 79, 46
2, 24560, Note_on_c, 0, 77, 44
2, 24570, Note_on_c, 0, 77, 0
2, 24585, Note_on_c, 0, 79, 0
2, 24623, Note_on_c, 0, 79, 55
2, 24627, Note_on_c, 0, 71, 60
2, 24628, Note_on_c, 0, 51, 35
2, 24632, Note_on_c, 0, 67, 54
2, 24636, Control_c, 0, 64, 0
2, 24640, Note_on_c, 0, 59, 13
2, 24665, Control_c, 0, 64, 127
2, 24686, Note_on_c, 0, 67, 0
2, 24687, Note_on_c, 0, 79, 0
2, 24690, Note_on_c, 0, 71, 0
2, 24720, Note_on_c, 0, 82, 71
2, 24772, Note_on_c, 0, 82, 0
2, 24812, Note_on_c, 0, 59, 0
2, 24816, Note_on_c, 0, 82, 53
2, 24821, Note_on_c, 0, 60, 45
2, 24822, Note_on_c, 0, 75, 49
2, 24823, Note_on_c, 0, 70, 39
2, 24852, Note_on_c, 0, 75, 0
2, 24888, Note_on_c, 0, 82, 0
2, 24900, Note_on_c, 0, 70, 0
2, 24930, Note_on_c, 0, 60, 0
2, 24942, Note_on_c, 0, 75, 59
2, 24944, Note_on_c, 0, 51, 0
2, 25024, Note_on_c, 0, 75, 0
2, 25070, Note_on_c, 0, 75, 48
2, 25071, Note_on_c, 0, 67, 52
2, 25074, Note_on_c, 0, 45, 35
2, 25075, Note_on_c, 0, 55, 36
2, 25148, Note_on_c, 0, 75, 0
2, 25159, Note_on_c, 0, 72, 52
2, 25171, Note_on_c, 0, 67, 0
2, 25188, Note_on_c, 0, 72, 0
2, 25190, Note_on_c, 0, 67, 13
2, 25201, Note_on_c, 0, 67, 0
2, 25229, Note_on_c, 0, 72, 64
2, 25265, Note_on_c, 0, 45, 0
2, 25268, Note_on_c, 0, 55, 0
2, 25280, Note_on_c, 0, 72, 0
2, 25294, Note_on_c, 0, 63, 37
2, 25348, Note_on_c, 0, 63, 0
2, 25377, Note_on_c, 0, 63, 26
2, 25385, Note_on_c, 0, 44, 28
2, 25386, Note_on_c, 0, 60, 15
2, 25403, Control_c, 0, 64, 0
2, 25432, Note_on_c, 0, 60, 0
2, 25445, Control_c, 0, 64, 127
2, 25462, Note_on_c, 0, 51, 34
2, 25468, Note_on_c, 0, 60, 29
2, 25481, Note_on_c, 0, 60, 0
2, 25512, Note_on_c, 0, 51, 0
2, 25524, Note_on_c, 0, 63, 0
2, 25550, Note_on_c, 0, 64, 46
2, 25552, Note_on_c, 0, 60, 31
2, 25552, Note_on_c, 0, 52, 33
2, 25565, Control_c, 0, 64, 0
2, 25593, Control_c, 0, 64, 127
2, 25599, Note_on_c, 0, 60, 0
2, 25630, Note_on_c, 0, 72, 59
2, 25644, Note_on_c, 0, 64, 0
2, 25694, Note_on_c, 0, 72, 0
2, 25718, Note_on_c, 0, 72, 38
2, 25722, Note_on_c, 0, 64, 57
2, 25726, Note_on_c, 0, 60, 44
2, 25740, Control_c, 0, 64, 0
2, 25760, Control_c, 0, 64, 127
2, 25785, Note_on_c, 0, 64, 0
2, 25804, Note_on_c, 0, 60, 0
2, 25813, Note_on_c, 0, 65, 58
2, 25815, Note_on_c, 0, 60, 26
2, 25873, Note_on_c, 0, 65, 0
2, 25875, Note_on_c, 0, 60, 0
2, 25908, Note_on_c, 0, 52, 0
2, 25923, Note_on_c, 0, 65, 48
2, 25926, Note_on_c, 0, 60, 33
2, 25926, Note_on_c, 0, 53, 37
2, 25932, Control_c, 0, 64, 0
2, 25970, Control_c, 0, 64, 127
2, 26008, Note_on_c, 0, 60, 0
2, 26069, Note_on_c, 0, 65, 0
2, 26195, Note_on_c, 0, 72, 0
2, 26237, Note_on_c, 0, 70, 64
2, 26267, Note_on_c, 0, 44, 0
2, 26268, Note_on_c, 0, 53, 0
2, 26381, Note_on_c, 0, 70, 0
2, 26384, Note_on_c, 0, 72, 55
2, 26427, Note_on_c, 0, 72, 0
2, 26467, Note_on_c, 0, 75, 63
2, 26530, Note_on_c, 0, 75, 0
2, 26555, Note_on_c, 0, 68, 35
2, 26642, Note_on_c, 0, 68, 0
2, 26804, Note_on_c, 0, 70, 33
2, 26808, Note_on_c, 0, 65, 43
2, 26810, Note_on_c, 0, 62, 28
2, 26811, Note_on_c, 0, 51, 32
2, 26817, Control_c, 0, 64, 0
2, 26839, Control_c, 0, 64, 127
2, 26853, Note_on_c, 0, 62, 0
2, 26856, Note_on_c, 0, 65, 0
2, 26865, Note_on_c, 0, 70, 0
2, 26900, Note_on_c, 0, 77, 60
2, 26963, Note_on_c, 0, 77, 0
2, 26977, Note_on_c, 0, 70, 45
2, 26981, Note_on_c, 0, 65, 40
2, 26984, Note_on_c, 0, 62, 32
2, 26985, Note_on_c, 0, 74, 38
2, 27003, Note_on_c, 0, 65, 0
2, 27012, Note_on_c, 0, 70, 0
2, 27016, Note_on_c, 0, 74, 0
2, 27071, Note_on_c, 0, 82, 63
2, 27080, Note_on_c, 0, 84, 49
2, 27080, Note_on_c, 0, 83, 35
2, 27087, Note_on_c, 0, 84, 0
2, 27098, Note_on_c, 0, 83, 0
2, 27138, Note_on_c, 0, 82, 0
2, 27144, Note_on_c, 0, 62, 0
2, 27155, Note_on_c, 0, 51, 0
2, 27176, Note_on_c, 0, 51, 39
2, 27177, Note_on_c, 0, 70, 27
2, 27178, Note_on_c, 0, 74, 47
2, 27188, Note_on_c, 0, 60, 24
2, 27244, Note_on_c, 0, 74, 0
2, 27280, Note_on_c, 0, 70, 0
2, 27303, Note_on_c, 0, 70, 56
2, 27334, Note_on_c, 0, 60, 0
2, 27357, Note_on_c, 0, 58, 1
2, 27367, Note_on_c, 0, 70, 0
2, 27475, Note_on_c, 0, 72, 56
2, 27511, Note_on_c, 0, 72, 0
2, 27538, Note_on_c, 0, 75, 74
2, 27578, Note_on_c, 0, 75, 0
2, 27600, Note_on_c, 0, 68, 70
2, 27637, Note_on_c, 0, 51, 0
2, 27638, Note_on_c, 0, 68, 0
2, 27690, Note_on_c, 0, 70, 64
2, 27694, Note_on_c, 0, 65, 65
2, 27696, Note_on_c, 0, 58, 0
2, 27698, Note_on_c, 0, 51, 36
2, 27698, Note_on_c, 0, 62, 44
2, 27709, Control_c, 0, 64, 0
2, 27745, Control_c, 0, 64, 127
2, 27792, Note_on_c, 0, 51, 0
2, 27807, Note_on_c, 0, 51, 58
2, 27842, Note_on_c, 0, 65, 0
2, 27878, Note_on_c, 0, 62, 0
2, 27906, Note_on_c, 0, 51, 0
2, 27942, Note_on_c, 0, 65, 48
2, 27942, Note_on_c, 0, 62, 36
2, 27944, Note_on_c, 0, 51, 30
2, 27975, Note_on_c, 0, 62, 0
2, 28022, Note_on_c, 0, 65, 0
2, 28028, Note_on_c, 0, 51, 0
2, 28041, Note_on_c, 0, 70, 0
2, 28072, Note_on_c, 0, 70, 47
2, 28075, Note_on_c, 0, 60, 38
2, 28075, Note_on_c, 0, 65, 53
2, 28076, Note_on_c, 0, 51, 33
2, 28191, Note_on_c, 0, 51, 0
2, 28230, Note_on_c, 0, 51, 35
2, 28236, Note_on_c, 0, 60, 0
2, 28261, Note_on_c, 0, 65, 0
2, 28289, Note_on_c, 0, 70, 0
2, 28340, Note_on_c, 0, 70, 84
2, 28400, Note_on_c, 0, 70, 0
2, 28419, Note_on_c, 0, 72, 80
2, 28462, Note_on_c, 0, 72, 0
2, 28507, Note_on_c, 0, 75, 74
2, 28590, Note_on_c, 0, 75, 0
2, 28598, Note_on_c, 0, 74, 67
2, 28602, Note_on_c, 0, 51, 0
2, 28719, Note_on_c, 0, 74, 0
2, 28729, Note_on_c, 0, 75, 59
2, 28734, Note_on_c, 0, 39, 35
2, 28740, Control_c, 0, 64, 0
2, 28764, Control_c, 0, 64, 127
2, 28798, Note_on_c, 0, 39, 0
2, 28798, Note_on_c, 0, 75, 0
2, 28801, Note_on_c, 0, 46, 31
2, 28856, Note_on_c, 0, 46, 0
2, 28866, Note_on_c, 0, 65, 40
2, 28871, Note_on_c, 0, 55, 35
2, 28872, Note_on_c, 0, 60, 20
2, 28920, Note_on_c, 0, 60, 0
2, 28930, Note_on_c, 0, 65, 0
2, 28932, Note_on_c, 0, 55, 0
2, 28934, Note_on_c, 0, 58, 34
2, 29003, Note_on_c, 0, 72, 35
2, 29003, Note_on_c, 0, 63, 31
2, 29075, Note_on_c, 0, 79, 57
2, 29084, Note_on_c, 0, 67, 22
2, 29101, Note_on_c, 0, 72, 0
2, 29119, Note_on_c, 0, 67, 0
2, 29153, Note_on_c, 0, 63, 0
2, 29248, Note_on_c, 0, 63, 33
2, 29292, Note_on_c, 0, 58, 0
2, 29343, Note_on_c, 0, 63, 0
2, 29369, Note_on_c, 0, 75, 53
2, 29433, Note_on_c, 0, 75, 0
2, 29496, Note_on_c, 0, 75, 35
2, 29498, Note_on_c, 0, 72, 24
2, 29505, Note_on_c, 0, 68, 15
2, 29505, Note_on_c, 0, 60, 28
2, 29507, Note_on_c, 0, 63, 19
2, 29510, Control_c, 0, 64, 0
2, 29542, Control_c, 0, 64, 127
2, 29554, Note_on_c, 0, 79, 0
2, 29566, Note_on_c, 0, 75, 0
2, 29588, Note_on_c, 0, 82, 61
2, 29591, Note_on_c, 0, 72, 0
2, 29648, Note_on_c, 0, 82, 0
2, 29671, Note_on_c, 0, 82, 49
2, 29712, Note_on_c, 0, 68, 0
2, 29747, Note_on_c, 0, 75, 51
2, 29786, Note_on_c, 0, 75, 0
2, 29790, Note_on_c, 0, 82, 0
2, 29809, Note_on_c, 0, 75, 55
2, 29829, Note_on_c, 0, 75, 0
2, 29865, Note_on_c, 0, 89, 83
2, 29884, Note_on_c, 0, 60, 0
2, 29890, Note_on_c, 0, 63, 0
2, 29932, Note_on_c, 0, 89, 0
2, 29948, Note_on_c, 0, 89, 64
2, 30028, Note_on_c, 0, 86, 64
2, 30084, Note_on_c, 0, 86, 0
2, 30100, Note_on_c, 0, 89, 0
2, 30117, Note_on_c, 0, 86, 62
2, 30122, Note_on_c, 0, 51, 33
2, 30138, Control_c, 0, 64, 0
2, 30172, Control_c, 0, 64, 127
2, 30195, Note_on_c, 0, 86, 0
2, 30203, Note_on_c, 0, 77, 41
2, 30210, Note_on_c, 0, 58, 26
2, 30284, Note_on_c, 0, 51, 0
2, 30287, Note_on_c, 0, 86, 61
2, 30288, Note_on_c, 0, 58, 0
2, 30294, Note_on_c, 0, 62, 29
2, 30351, Note_on_c, 0, 77, 0
2, 30362, Note_on_c, 0, 62, 0
2, 30370, Note_on_c, 0, 65, 38
2, 30454, Note_on_c, 0, 86, 0
2, 30458, Note_on_c, 0, 74, 48
2, 30465, Note_on_c, 0, 69, 30
2, 30527, Note_on_c, 0, 65, 0
2, 30561, Note_on_c, 0, 65, 22
2, 30662, Note_on_c, 0, 75, 48
2, 30672, Note_on_c, 0, 74, 0
2, 30710, Note_on_c, 0, 65, 0
2, 30755, Note_on_c, 0, 69, 0
2, 30765, Note_on_c, 0, 65, 28
2, 30779, Note_on_c, 0, 65, 0
2, 30837, Note_on_c, 0, 75, 0
2, 30883, Note_on_c, 0, 77, 46
2, 30884, Note_on_c, 0, 68, 29
2, 30892, Note_on_c, 0, 72, 20
2, 30893, Note_on_c, 0, 56, 20
2, 30897, Note_on_c, 0, 46, 28
2, 30912, Control_c, 0, 64, 0
2, 30954, Control_c, 0, 64, 127
2, 31030, Note_on_c, 0, 53, 33
2, 31038, Note_on_c, 0, 72, 0
2, 31046, Note_on_c, 0, 77, 0
2, 31065, Note_on_c, 0, 56, 0
2, 31067, Note_on_c, 0, 68, 0
2, 31171, Note_on_c, 0, 53, 0
2, 31391, Note_on_c, 0, 46, 0
2, 31448, Note_on_c, 0, 68, 30
2, 31465, Control_c, 0, 64, 0
2, 31488, Note_on_c, 0, 68, 0
2, 31498, Note_on_c, 0, 70, 37
2, 31502, Control_c, 0, 64, 127
2, 31590, Note_on_c, 0, 70, 0
2, 31590, Note_on_c, 0, 75, 46
2, 31623, Note_on_c, 0, 75, 0
2, 31648, Note_on_c, 0, 75, 60
2, 31663, Note_on_c, 0, 51, 31
2, 31675, Control_c, 0, 64, 0
2, 31705, Control_c, 0, 64, 127
2, 31762, Note_on_c, 0, 58, 25
2, 31768, Note_on_c, 0, 75, 0
2, 31915, Note_on_c, 0, 58, 0
2, 31925, Note_on_c, 0, 51, 0
2, 31982, Note_on_c, 0, 39, 33
2, 32000, Control_c, 0, 64, 0
2, 32008, Control_c, 0, 64, 127
2, 32087, Note_on_c, 0, 54, 36
2, 32089, Note_on_c, 0, 66, 33
2, 32091, Note_on_c, 0, 51, 28
2, 32091, Note_on_c, 0, 61, 37
2, 32092, Note_on_c, 0, 58, 34
2, 32112, Control_c, 0, 64, 0
2, 32146, Control_c, 0, 64, 127
2, 32261, Note_on_c, 0, 39, 0
2, 32279, Note_on_c, 0, 54, 0
2, 32285, Note_on_c, 0, 61, 0
2, 32292, Note_on_c, 0, 66, 0
2, 32294, Control_c, 0, 64, 0
2, 32300, Note_on_c, 0, 39, 33
2, 32302, Note_on_c, 0, 58, 0
2, 32310, Note_on_c, 0, 51, 0
2, 32312, Control_c, 0, 64, 127
2, 32401, Note_on_c, 0, 65, 35
2, 32403, Note_on_c, 0, 57, 44
2, 32405, Note_on_c, 0, 53, 28
2, 32406, Note_on_c, 0, 60, 50
2, 32414, Note_on_c, 0, 51, 15
2, 32423, Control_c, 0, 64, 0
2, 32461, Control_c, 0, 64, 127
2, 32532, Note_on_c, 0, 53, 0
2, 32589, Note_on_c, 0, 57, 0
2, 32603, Note_on_c, 0, 39, 0
2, 32646, Note_on_c, 0, 56, 47
2, 32649, Note_on_c, 0, 39, 36
2, 32658, Control_c, 0, 64, 0
2, 32669, Note_on_c, 0, 51, 0
2, 32694, Control_c, 0, 64, 127
2, 32747, Note_on_c, 0, 60, 0
2, 32748, Note_on_c, 0, 65, 0
2, 32750, Note_on_c, 0, 58, 49
2, 32786, Note_on_c, 0, 56, 0
2, 32793, Note_on_c, 0, 58, 0
2, 32805, Note_on_c, 0, 63, 67
2, 32808, Note_on_c, 0, 56, 30
2, 32812, Note_on_c, 0, 59, 43
2, 32812, Note_on_c, 0, 51, 32
2, 32816, Control_c, 0, 64, 0
2, 32844, Control_c, 0, 64, 127
2, 32868, Note_on_c, 0, 39, 0
2, 32909, Note_on_c, 0, 39, 42
2, 32953, Note_on_c, 0, 39, 0
2, 32955, Note_on_c, 0, 59, 0
2, 32964, Note_on_c, 0, 51, 0
2, 32964, Note_on_c, 0, 56, 0
2, 32973, Note_on_c, 0, 55, 47
2, 32975, Note_on_c, 0, 39, 35
2, 32980, Note_on_c, 0, 58, 29
2, 32980, Control_c, 0, 64, 0
2, 33008, Control_c, 0, 64, 127
2, 33058, Note_on_c, 0, 55, 0
2, 33072, Note_on_c, 0, 46, 46
2, 33224, Note_on_c, 0, 39, 0
2, 33282, Note_on_c, 0, 63, 0
2, 33294, Note_on_c, 0, 39, 35
2, 33295, Note_on_c, 0, 58, 0
2, 33299, Control_c, 0, 64, 0
2, 33315, Note_on_c, 0, 46, 0
2, 33330, Control_c, 0, 64, 127
2, 33399, Note_on_c, 0, 66, 36
2, 33403, Note_on_c, 0, 61, 39
2, 33403, Note_on_c, 0, 54, 29
2, 33404, Note_on_c, 0, 58, 40
2, 33408, Note_on_c, 0, 51, 29
2, 33422, Control_c, 0, 64, 0
2, 33454, Control_c, 0, 64, 127
2, 33590, Note_on_c, 0, 39, 0
2, 33608, Note_on_c, 0, 54, 0
2, 33610, Note_on_c, 0, 66, 0
2, 33616, Note_on_c, 0, 61, 0
2, 33625, Note_on_c, 0, 51, 0
2, 33630, Note_on_c, 0, 58, 0
2, 33632, Note_on_c, 0, 39, 32
2, 33640, Control_c, 0, 64, 0
2, 33646, Control_c, 0, 64, 127
2, 33740, Note_on_c, 0, 65, 36
2, 33742, Note_on_c, 0, 53, 33
2, 33743, Note_on_c, 0, 60, 45
2, 33744, Note_on_c, 0, 57, 40
2, 33756, Control_c, 0, 64, 0
2, 33771, Note_on_c, 0, 51, 1
2, 33797, Control_c, 0, 64, 127
2, 33882, Note_on_c, 0, 39, 0
2, 33902, Note_on_c, 0, 60, 0
2, 33905, Note_on_c, 0, 53, 0
2, 33907, Note_on_c, 0, 57, 0
2, 33920, Note_on_c, 0, 39, 28
2, 33922, Note_on_c, 0, 65, 0
2, 33963, Note_on_c, 0, 51, 0
2, 34089, Note_on_c, 0, 65, 85
2, 34135, Note_on_c, 0, 65, 0
2, 34154, Note_on_c, 0, 67, 84
2, 34155, Note_on_c, 0, 46, 38
2, 34160, Control_c, 0, 64, 0
2, 34186, Control_c, 0, 64, 127
2, 34227, Note_on_c, 0, 67, 0
2, 34265, Note_on_c, 0, 46, 0
2, 34265, Note_on_c, 0, 63, 31
2, 34289, Note_on_c, 0, 39, 0
2, 34313, Note_on_c, 0, 63, 0
2, 34329, Note_on_c, 0, 39, 33
2, 34330, Note_on_c, 0, 65, 53
2, 34334, Note_on_c, 0, 53, 25
2, 34335, Note_on_c, 0, 58, 29
2, 34337, Note_on_c, 0, 46, 23
2, 34338, Note_on_c, 0, 62, 37
2, 34338, Control_c, 0, 64, 0
2, 34362, Control_c, 0, 64, 127
2, 34376, Note_on_c, 0, 65, 0
2, 34389, Note_on_c, 0, 53, 0
2, 34411, Note_on_c, 0, 62, 0
2, 34416, Note_on_c, 0, 58, 0
2, 34452, Note_on_c, 0, 39, 0
2, 34453, Note_on_c, 0, 46, 0
2, 34611, Note_on_c, 0, 67, 66
2, 34642, Note_on_c, 0, 67, 0
2, 34682, Note_on_c, 0, 67, 57
2, 34737, Note_on_c, 0, 67, 0
2, 34780, Note_on_c, 0, 39, 44
2, 34782, Note_on_c, 0, 47, 35
2, 34804, Control_c, 0, 64, 0
2, 34850, Control_c, 0, 64, 127
2, 34932, Note_on_c, 0, 39, 0
2, 34952, Note_on_c, 0, 47, 0
2, 34955, Note_on_c, 0, 39, 30
2, 34957, Note_on_c, 0, 67, 42
2, 34959, Note_on_c, 0, 55, 33
2, 34960, Note_on_c, 0, 60, 41
2, 34961, Note_on_c, 0, 48, 36
2, 34964, Control_c, 0, 64, 0
2, 35004, Control_c, 0, 64, 127
2, 35027, Note_on_c, 0, 55, 0
2, 35042, Note_on_c, 0, 60, 0
2, 35053, Note_on_c, 0, 67, 0
2, 35120, Note_on_c, 0, 67, 71
2, 35143, Note_on_c, 0, 67, 0
2, 35166, Note_on_c, 0, 67, 81
2, 35196, Note_on_c, 0, 67, 0
2, 35218, Note_on_c, 0, 70, 91
2, 35247, Note_on_c, 0, 70, 0
2, 35250, Note_on_c, 0, 39, 0
2, 35267, Note_on_c, 0, 70, 71
2, 35268, Note_on_c, 0, 48, 0
2, 35291, Note_on_c, 0, 70, 0
2, 35320, Note_on_c, 0, 58, 45
2, 35342, Note_on_c, 0, 58, 0
2, 35369, Note_on_c, 0, 58, 38
2, 35400, Note_on_c, 0, 58, 0
2, 35418, Note_on_c, 0, 63, 69
2, 35450, Note_on_c, 0, 63, 0
2, 35468, Note_on_c, 0, 63, 42
2, 35502, Note_on_c, 0, 63, 0
2, 35514, Note_on_c, 0, 58, 51
2, 35543, Note_on_c, 0, 58, 0
2, 35561, Note_on_c, 0, 58, 33
2, 35596, Note_on_c, 0, 58, 0
2, 35616, Note_on_c, 0, 55, 37
2, 35617, Note_on_c, 0, 60, 55
2, 35620, Note_on_c, 0, 44, 30
2, 35622, Control_c, 0, 64, 0
2, 35658, Control_c, 0, 64, 127
2, 35681, Note_on_c, 0, 55, 0
2, 35700, Note_on_c, 0, 60, 0
2, 35722, Note_on_c, 0, 53, 36
2, 35773, Note_on_c, 0, 60, 48
2, 35800, Note_on_c, 0, 60, 0
2, 35820, Note_on_c, 0, 64, 55
2, 35829, Note_on_c, 0, 64, 0
2, 35868, Note_on_c, 0, 72, 68
2, 35884, Note_on_c, 0, 72, 0
2, 35918, Note_on_c, 0, 76, 101
2, 35951, Note_on_c, 0, 76, 0
2, 35973, Note_on_c, 0, 79, 91
2, 35994, Note_on_c, 0, 79, 0
2, 36010, Note_on_c, 0, 44, 0
2, 36075, Note_on_c, 0, 53, 0
2, 36081, Note_on_c, 0, 44, 23
2, 36116, Note_on_c, 0, 44, 0
2, 36138, Note_on_c, 0, 62, 50
2, 36139, Control_c, 0, 64, 0
2, 36140, Note_on_c, 0, 53, 29
2, 36141, Note_on_c, 0, 58, 34
2, 36144, Note_on_c, 0, 43, 28
2, 36159, Control_c, 0, 64, 127
2, 36218, Note_on_c, 0, 62, 0
2, 36227, Note_on_c, 0, 43, 0
2, 36230, Note_on_c, 0, 53, 0
2, 36236, Note_on_c, 0, 58, 0
2, 36318, Control_c, 0, 64, 0
2, 36319, Note_on_c, 0, 52, 34
2, 36319, Note_on_c, 0, 30, 30
2, 36319, Note_on_c, 0, 42, 26
2, 36320, Note_on_c, 0, 56, 33
2, 36321, Note_on_c, 0, 60, 50
2, 36342, Control_c, 0, 64, 127
2, 36348, Note_on_c, 0, 52, 0
2, 36356, Note_on_c, 0, 30, 0
2, 36358, Note_on_c, 0, 60, 0
2, 36361, Note_on_c, 0, 56, 0
2, 36365, Note_on_c, 0, 42, 0
2, 36496, Note_on_c, 0, 68, 34
2, 36499, Note_on_c, 0, 72, 28
2, 36502, Note_on_c, 0, 58, 34
2, 36503, Note_on_c, 0, 64, 24
2, 36552, Note_on_c, 0, 64, 0
2, 36622, Note_on_c, 0, 68, 0
2, 36630, Note_on_c, 0, 72, 0
2, 36680, Note_on_c, 0, 64, 35
2, 36728, Note_on_c, 0, 72, 89
2, 36759, Note_on_c, 0, 72, 0
2, 36779, Note_on_c, 0, 72, 81
2, 36822, Note_on_c, 0, 72, 0
2, 36839, Note_on_c, 0, 75, 80
2, 36852, Note_on_c, 0, 64, 0
2, 36866, Note_on_c, 0, 75, 0
2, 36886, Note_on_c, 0, 75, 69
2, 36916, Note_on_c, 0, 75, 0
2, 36939, Note_on_c, 0, 68, 47
2, 36963, Note_on_c, 0, 68, 0
2, 36993, Note_on_c, 0, 58, 0
2, 37000, Note_on_c, 0, 70, 53
2, 37004, Note_on_c, 0, 39, 30
2, 37008, Control_c, 0, 64, 0
2, 37038, Control_c, 0, 64, 127
2, 37122, Note_on_c, 0, 39, 0
2, 37273, Note_on_c, 0, 46, 31
2, 37274, Note_on_c, 0, 62, 33
2, 37276, Note_on_c, 0, 65, 42
2, 37286, Control_c, 0, 64, 0
2, 37313, Control_c, 0, 64, 127
2, 37341, Note_on_c, 0, 65, 0
2, 37344, Note_on_c, 0, 70, 0
2, 37360, Note_on_c, 0, 46, 0
2, 37370, Note_on_c, 0, 62, 0
2, 37398, Note_on_c, 0, 46, 34
2, 37456, Note_on_c, 0, 62, 31
2, 37491, Note_on_c, 0, 46, 0
2, 37508, Note_on_c, 0, 65, 60
2, 37525, Note_on_c, 0, 62, 0
2, 37552, Note_on_c, 0, 65, 0
2, 37560, Note_on_c, 0, 65, 30
2, 37592, Note_on_c, 0, 65, 0
2, 37615, Note_on_c, 0, 46, 34
2, 37667, Note_on_c, 0, 46, 0
2, 37674, Note_on_c, 0, 56, 38
2, 37677, Note_on_c, 0, 60, 53
2, 37678, Control_c, 0, 64, 0
2, 37678, Note_on_c, 0, 63, 35
2, 37681, Note_on_c, 0, 46, 29
2, 37705, Note_on_c, 0, 60, 0
2, 37708, Control_c, 0, 64, 127
2, 37709, Note_on_c, 0, 63, 0
2, 37710, Note_on_c, 0, 56, 0
2, 37730, Note_on_c, 0, 63, 33
2, 37738, Note_on_c, 0, 63, 0
2, 37790, Note_on_c, 0, 72, 68
2, 37792, Note_on_c, 0, 63, 77
2, 37793, Note_on_c, 0, 56, 44
2, 37793, Note_on_c, 0, 68, 67
2, 37800, Control_c, 0, 64, 0
2, 37824, Control_c, 0, 64, 127
2, 37858, Note_on_c, 0, 72, 0
2, 37865, Note_on_c, 0, 63, 0
2, 37866, Note_on_c, 0, 68, 0
2, 37893, Note_on_c, 0, 56, 0
2, 37915, Note_on_c, 0, 68, 34
2, 37946, Note_on_c, 0, 68, 0
2, 37968, Note_on_c, 0, 68, 33
2, 37975, Note_on_c, 0, 60, 24
2, 37984, Note_on_c, 0, 60, 0
2, 37988, Note_on_c, 0, 68, 0
2, 38006, Note_on_c, 0, 46, 0
2, 38022, Note_on_c, 0, 46, 26
2, 38063, Note_on_c, 0, 46, 0
2, 38147, Note_on_c, 0, 56, 55
2, 38149, Note_on_c, 0, 63, 51
2, 38151, Note_on_c, 0, 60, 60
2, 38175, Control_c, 0, 64, 0
2, 38203, Control_c, 0, 64, 127
2, 38258, Note_on_c, 0, 46, 36
2, 38301, Note_on_c, 0, 46, 0
2, 38301, Note_on_c, 0, 60, 0
2, 38304, Note_on_c, 0, 56, 0
2, 38312, Note_on_c, 0, 34, 34
2, 38321, Note_on_c, 0, 63, 0
2, 38369, Note_on_c, 0, 62, 49
2, 38371, Note_on_c, 0, 46, 30
2, 38371, Note_on_c, 0, 53, 33
2, 38371, Note_on_c, 0, 58, 48
2, 38372, Control_c, 0, 64, 0
2, 38398, Note_on_c, 0, 53, 0
2, 38401, Note_on_c, 0, 62, 0
2, 38402, Note_on_c, 0, 58, 0
2, 38403, Note_on_c, 0, 46, 0
2, 38419, Note_on_c, 0, 53, 33
2, 38421, Note_on_c, 0, 58, 25
2, 38423, Note_on_c, 0, 62, 34
2, 38434, Note_on_c, 0, 53, 0
2, 38436, Note_on_c, 0, 62, 0
2, 38441, Note_on_c, 0, 58, 0
2, 38458, Note_on_c, 0, 34, 0
2, 38472, Note_on_c, 0, 34, 37
2, 38474, Control_c, 0, 64, 127
2, 38528, Note_on_c, 0, 53, 33
2, 38529, Note_on_c, 0, 62, 38
2, 38529, Note_on_c, 0, 46, 29
2, 38530, Control_c, 0, 64, 0
2, 38532, Note_on_c, 0, 58, 29
2, 38548, Control_c, 0, 64, 127
2, 38606, Note_on_c, 0, 46, 0
2, 38625, Note_on_c, 0, 53, 0
2, 38650, Note_on_c, 0, 58, 0
2, 38650, Note_on_c, 0, 62, 0
2, 38705, Note_on_c, 0, 62, 36
2, 38711, Note_on_c, 0, 58, 25
2, 38711, Note_on_c, 0, 53, 18
2, 38712, Note_on_c, 0, 46, 23
2, 38732, Note_on_c, 0, 34, 0
2, 38758, Note_on_c, 0, 34, 31
2, 38764, Note_on_c, 0, 46, 0
2, 38779, Note_on_c, 0, 53, 0
2, 38790, Note_on_c, 0, 62, 0
2, 38802, Note_on_c, 0, 58, 0
2, 38819, Note_on_c, 0, 46, 18
2, 38850, Note_on_c, 0, 34, 0
2, 38863, Note_on_c, 0, 46, 0
2, 38883, Note_on_c, 0, 53, 42
2, 38886, Note_on_c, 0, 62, 40
2, 38890, Note_on_c, 0, 58, 30
2, 38912, Note_on_c, 0, 53, 0
2, 38947, Note_on_c, 0, 58, 0
2, 38974, Note_on_c, 0, 62, 0
2, 38995, Note_on_c, 0, 46, 23
2, 39028, Note_on_c, 0, 46, 0
2, 39052, Note_on_c, 0, 63, 32
2, 39054, Note_on_c, 0, 56, 26
2, 39055, Note_on_c, 0, 60, 45
2, 39058, Note_on_c, 0, 46, 29
2, 39062, Control_c, 0, 64, 0
2, 39096, Control_c, 0, 64, 127
2, 39130, Note_on_c, 0, 46, 0
2, 39158, Note_on_c, 0, 46, 26
2, 39193, Note_on_c, 0, 56, 0
2, 39198, Note_on_c, 0, 60, 0
2, 39208, Note_on_c, 0, 46, 0
2, 39226, Note_on_c, 0, 63, 0
2, 39332, Note_on_c, 0, 68, 77
2, 39333, Note_on_c, 0, 56, 50
2, 39380, Note_on_c, 0, 68, 0
2, 39390, Note_on_c, 0, 56, 0
2, 39394, Note_on_c, 0, 70, 73
2, 39394, Control_c, 0, 64, 0
2, 39396, Note_on_c, 0, 58, 55
2, 39411, Control_c, 0, 64, 127
2, 39475, Note_on_c, 0, 58, 0
2, 39476, Note_on_c, 0, 70, 0
2, 39500, Note_on_c, 0, 58, 26
2, 39500, Note_on_c, 0, 70, 45
2, 39547, Note_on_c, 0, 70, 0
2, 39562, Note_on_c, 0, 75, 57
2, 39563, Note_on_c, 0, 63, 36
2, 39605, Note_on_c, 0, 63, 0
2, 39621, Note_on_c, 0, 58, 0
2, 39659, Note_on_c, 0, 75, 0
2, 39676, Note_on_c, 0, 58, 21
2, 39722, Note_on_c, 0, 58, 0
2, 39737, Note_on_c, 0, 75, 47
2, 39741, Note_on_c, 0, 51, 25
2, 39742, Control_c, 0, 64, 0
2, 39764, Control_c, 0, 64, 127
2, 39848, Note_on_c, 0, 58, 25
2, 39852, Note_on_c, 0, 51, 0
2, 39912, Note_on_c, 0, 67, 44
2, 39963, Note_on_c, 0, 67, 0
2, 40010, Note_on_c, 0, 58, 0
2, 40086, Note_on_c, 0, 51, 35
2, 40090, Control_c, 0, 64, 0
2, 40106, Control_c, 0, 64, 127
2, 40110, Note_on_c, 0, 75, 0
2, 40188, Note_on_c, 0, 78, 48
2, 40193, Note_on_c, 0, 75, 46
2, 40196, Note_on_c, 0, 71, 55
2, 40198, Note_on_c, 0, 66, 34
2, 40201, Note_on_c, 0, 59, 20
2, 40404, Note_on_c, 0, 51, 0
2, 40447, Note_on_c, 0, 71, 0
2, 40453, Note_on_c, 0, 75, 0
2, 40453, Note_on_c, 0, 51, 32
2, 40454, Note_on_c, 0, 66, 0
2, 40456, Note_on_c, 0, 78, 0
2, 40461, Note_on_c, 0, 59, 0
2, 40554, Note_on_c, 0, 77, 52
2, 40556, Note_on_c, 0, 69, 44
2, 40558, Control_c, 0, 64, 0
2, 40561, Note_on_c, 0, 60, 25
2, 40561, Note_on_c, 0, 72, 24
2, 40561, Note_on_c, 0, 65, 34
2, 40582, Control_c, 0, 64, 127
2, 40594, Note_on_c, 0, 65, 0
2, 40600, Note_on_c, 0, 69, 0
2, 40606, Note_on_c, 0, 72, 0
2, 40613, Note_on_c, 0, 77, 0
2, 40682, Note_on_c, 0, 84, 91
2, 40731, Note_on_c, 0, 81, 74
2, 40751, Note_on_c, 0, 60, 0
2, 40757, Note_on_c, 0, 84, 0
2, 40764, Note_on_c, 0, 51, 0
2, 40767, Note_on_c, 0, 81, 0
2, 40786, Note_on_c, 0, 82, 71
2, 40789, Note_on_c, 0, 51, 34
2, 40796, Control_c, 0, 64, 0
2, 40828, Control_c, 0, 64, 127
2, 40875, Note_on_c, 0, 82, 0
2, 40878, Note_on_c, 0, 80, 51
2, 40883, Note_on_c, 0, 59, 29
2, 40962, Note_on_c, 0, 76, 68
2, 41011, Note_on_c, 0, 76, 0
2, 41017, Note_on_c, 0, 71, 65
2, 41024, Note_on_c, 0, 80, 0
2, 41065, Note_on_c, 0, 70, 64
2, 41066, Note_on_c, 0, 71, 0
2, 41070, Note_on_c, 0, 51, 0
2, 41102, Note_on_c, 0, 70, 0
2, 41103, Note_on_c, 0, 75, 65
2, 41111, Note_on_c, 0, 59, 0
2, 41112, Note_on_c, 0, 51, 36
2, 41125, Control_c, 0, 64, 0
2, 41150, Note_on_c, 0, 67, 40
2, 41164, Control_c, 0, 64, 127
2, 41183, Note_on_c, 0, 75, 0
2, 41203, Note_on_c, 0, 67, 0
2, 41206, Note_on_c, 0, 58, 27
2, 41249, Note_on_c, 0, 65, 35
2, 41359, Note_on_c, 0, 51, 0
2, 41413, Note_on_c, 0, 51, 36
2, 41452, Note_on_c, 0, 51, 0
2, 41478, Note_on_c, 0, 51, 35
2, 41488, Control_c, 0, 64, 0
2, 41490, Note_on_c, 0, 58, 0
2, 41494, Control_c, 0, 64, 127
2, 41546, Note_on_c, 0, 65, 0
2, 41577, Note_on_c, 0, 70, 55
2, 41579, Note_on_c, 0, 78, 38
2, 41582, Note_on_c, 0, 59, 29
2, 41597, Control_c, 0, 64, 0
2, 41621, Control_c, 0, 64, 127
2, 41649, Note_on_c, 0, 66, 36
2, 41730, Note_on_c, 0, 51, 0
2, 41746, Note_on_c, 0, 78, 0
2, 41752, Note_on_c, 0, 66, 0
2, 41754, Note_on_c, 0, 51, 34
2, 41785, Note_on_c, 0, 51, 0
2, 41793, Note_on_c, 0, 70, 0
2, 41812, Note_on_c, 0, 59, 0
2, 41815, Note_on_c, 0, 77, 62
2, 41816, Note_on_c, 0, 51, 36
2, 41816, Note_on_c, 0, 69, 57
2, 41830, Control_c, 0, 64, 0
2, 41857, Control_c, 0, 64, 127
2, 41912, Note_on_c, 0, 60, 38
2, 42078, Note_on_c, 0, 51, 0
2, 42093, Note_on_c, 0, 65, 33
2, 42106, Note_on_c, 0, 77, 0
2, 42106, Note_on_c, 0, 69, 0
2, 42130, Note_on_c, 0, 65, 0
2, 42156, Note_on_c, 0, 60, 0
2, 42156, Note_on_c, 0, 51, 37
2, 42156, Note_on_c, 0, 68, 37
2, 42157, Note_on_c, 0, 64, 33
2, 42172, Control_c, 0, 64, 0
2, 42206, Control_c, 0, 64, 127
2, 42262, Note_on_c, 0, 61, 37
2, 42352, Note_on_c, 0, 61, 0
2, 42358, Note_on_c, 0, 68, 0
2, 42361, Note_on_c, 0, 64, 0
2, 42369, Note_on_c, 0, 51, 0
2, 42440, Note_on_c, 0, 46, 29
2, 42464, Note_on_c, 0, 46, 0
2, 42509, Note_on_c, 0, 67, 35
2, 42509, Note_on_c, 0, 58, 36
2, 42510, Note_on_c, 0, 55, 31
2, 42512, Note_on_c, 0, 39, 30
2, 42514, Note_on_c, 0, 62, 38
2, 42519, Note_on_c, 0, 46, 19
2, 42521, Control_c, 0, 64, 0
2, 42551, Control_c, 0, 64, 127
2, 42620, Note_on_c, 0, 55, 0
2, 42627, Note_on_c, 0, 62, 0
2, 42634, Note_on_c, 0, 58, 0
2, 42661, Note_on_c, 0, 46, 0
2, 42663, Note_on_c, 0, 67, 0
2, 42671, Note_on_c, 0, 39, 0
2, 42762, Note_on_c, 0, 41, 40
2, 42764, Note_on_c, 0, 58, 50
2, 42772, Note_on_c, 0, 58, 0
2, 42778, Note_on_c, 0, 41, 0
2, 42784, Control_c, 0, 64, 0
2, 42800, Control_c, 0, 64, 127
2, 42806, Note_on_c, 0, 42, 54
2, 42855, Note_on_c, 0, 42, 0
2, 42860, Note_on_c, 0, 62, 66
2, 42861, Note_on_c, 0, 53, 60
2, 42862, Note_on_c, 0, 58, 56
2, 42862, Control_c, 0, 64, 0
2, 42866, Note_on_c, 0, 43, 46
2, 42902, Control_c, 0, 64, 127
2, 43010, Note_on_c, 0, 53, 0
2, 43026, Note_on_c, 0, 62, 0
2, 43031, Note_on_c, 0, 58, 0
2, 43039, Note_on_c, 0, 43, 0
2, 43042, Note_on_c, 0, 62, 44
2, 43078, Note_on_c, 0, 62, 0
2, 43096, Note_on_c, 0, 62, 42
2, 43119, Note_on_c, 0, 62, 0
2, 43144, Note_on_c, 0, 62, 60
2, 43155, Note_on_c, 0, 62, 0
2, 43202, Note_on_c, 0, 70, 59
2, 43205, Note_on_c, 0, 61, 58
2, 43206, Note_on_c, 0, 66, 59
2, 43210, Note_on_c, 0, 45, 45
2, 43214, Note_on_c, 0, 55, 32
2, 43215, Control_c, 0, 64, 0
2, 43255, Control_c, 0, 64, 127
2, 43329, Note_on_c, 0, 66, 0
2, 43345, Note_on_c, 0, 61, 0
2, 43356, Note_on_c, 0, 70, 0
2, 43435, Note_on_c, 0, 82, 83
2, 43442, Note_on_c, 0, 45, 0
2, 43453, Note_on_c, 0, 55, 0
2, 43522, Note_on_c, 0, 82, 0
2, 43546, Note_on_c, 0, 82, 63
2, 43550, Note_on_c, 0, 66, 39
2, 43550, Note_on_c, 0, 55, 53
2, 43550, Note_on_c, 0, 61, 48
2, 43668, Note_on_c, 0, 66, 0
2, 43700, Note_on_c, 0, 55, 0
2, 43710, Note_on_c, 0, 61, 0
2, 43812, Note_on_c, 0, 75, 57
2, 43841, Note_on_c, 0, 82, 0
2, 43856, Note_on_c, 0, 73, 35
2, 43885, Note_on_c, 0, 75, 0
2, 43903, Note_on_c, 0, 73, 0
2, 43904, Note_on_c, 0, 44, 31
2, 43910, Note_on_c, 0, 52, 33
2, 43911, Note_on_c, 0, 72, 34
2, 43919, Control_c, 0, 64, 0
2, 43956, Note_on_c, 0, 84, 62
2, 43959, Control_c, 0, 64, 127
2, 43982, Note_on_c, 0, 84, 0
2, 44001, Note_on_c, 0, 76, 48
2, 44038, Note_on_c, 0, 72, 0
2, 44044, Note_on_c, 0, 76, 0
2, 44045, Note_on_c, 0, 79, 55
2, 44076, Note_on_c, 0, 79, 0
2, 44094, Note_on_c, 0, 72, 26
2, 44102, Note_on_c, 0, 52, 0
2, 44144, Note_on_c, 0, 44, 0
2, 44177, Note_on_c, 0, 72, 0
2, 44184, Note_on_c, 0, 75, 57
2, 44188, Note_on_c, 0, 44, 29
2, 44190, Note_on_c, 0, 53, 32
2, 44204, Control_c, 0, 64, 0
2, 44236, Control_c, 0, 64, 127
2, 44299, Note_on_c, 0, 75, 0
2, 44366, Note_on_c, 0, 44, 0
2, 44378, Note_on_c, 0, 44, 28
2, 44425, Note_on_c, 0, 53, 0
2, 44431, Note_on_c, 0, 44, 0
2, 44446, Note_on_c, 0, 43, 51
2, 44453, Control_c, 0, 64, 0
2, 44477, Control_c, 0, 64, 127
2, 44550, Note_on_c, 0, 43, 0
2, 44615, Control_c, 0, 64, 0
2, 44620, Note_on_c, 0, 41, 44
2, 44643, Control_c, 0, 64, 127
2, 44644, Note_on_c, 0, 41, 0
2, 44734, Note_on_c, 0, 63, 45
2, 44737, Note_on_c, 0, 70, 39
2, 44738, Note_on_c, 0, 58, 34
2, 44740, Note_on_c, 0, 67, 46
2, 44748, Note_on_c, 0, 53, 25
2, 44852, Note_on_c, 0, 63, 0
2, 44864, Note_on_c, 0, 67, 0
2, 44886, Note_on_c, 0, 70, 0
2, 44930, Note_on_c, 0, 60, 39
2, 44954, Note_on_c, 0, 58, 0
2, 45083, Note_on_c, 0, 72, 75
2, 45110, Note_on_c, 0, 72, 0
2, 45128, Note_on_c, 0, 72, 75
2, 45164, Note_on_c, 0, 72, 0
2, 45182, Note_on_c, 0, 75, 82
2, 45187, Note_on_c, 0, 53, 0
2, 45201, Note_on_c, 0, 60, 0
2, 45209, Note_on_c, 0, 75, 0
2, 45230, Note_on_c, 0, 75, 69
2, 45255, Note_on_c, 0, 75, 0
2, 45283, Note_on_c, 0, 68, 43
2, 45328, Note_on_c, 0, 68, 0
2, 45341, Note_on_c, 0, 70, 57
2, 45394, Note_on_c, 0, 40, 35
2, 45407, Control_c, 0, 64, 0
2, 45432, Control_c, 0, 64, 127
2, 45501, Note_on_c, 0, 56, 30
2, 45507, Note_on_c, 0, 63, 25
2, 45516, Note_on_c, 0, 56, 0
2, 45516, Control_c, 0, 64, 0
2, 45527, Note_on_c, 0, 63, 0
2, 45534, Note_on_c, 0, 70, 0
2, 45560, Note_on_c, 0, 70, 26
2, 45564, Note_on_c, 0, 63, 33
2, 45565, Note_on_c, 0, 56, 20
2, 45566, Note_on_c, 0, 52, 22
2, 45581, Note_on_c, 0, 52, 0
2, 45583, Note_on_c, 0, 56, 0
2, 45588, Note_on_c, 0, 63, 0
2, 45597, Note_on_c, 0, 70, 0
2, 45602, Control_c, 0, 64, 127
2, 45660, Control_c, 0, 64, 0
2, 45666, Note_on_c, 0, 70, 37
2, 45673, Note_on_c, 0, 56, 25
2, 45673, Note_on_c, 0, 63, 32
2, 45677, Note_on_c, 0, 52, 17
2, 45678, Control_c, 0, 64, 127
2, 45689, Note_on_c, 0, 40, 0
2, 45701, Note_on_c, 0, 52, 0
2, 45702, Note_on_c, 0, 56, 0
2, 45742, Note_on_c, 0, 63, 0
2, 45754, Note_on_c, 0, 70, 0
2, 45765, Note_on_c, 0, 52, 26
2, 45820, Note_on_c, 0, 66, 65
2, 45820, Note_on_c, 0, 56, 36
2, 45824, Note_on_c, 0, 61, 40
2, 45825, Note_on_c, 0, 62, 34
2, 45826, Control_c, 0, 64, 0
2, 45848, Control_c, 0, 64, 127
2, 45870, Note_on_c, 0, 70, 61
2, 45878, Note_on_c, 0, 61, 0
2, 45886, Note_on_c, 0, 66, 0
2, 45894, Note_on_c, 0, 70, 0
2, 45972, Note_on_c, 0, 62, 0
2, 45976, Note_on_c, 0, 78, 72
2, 46002, Note_on_c, 0, 78, 0
2, 46037, Note_on_c, 0, 73, 34
2, 46038, Note_on_c, 0, 70, 50
2, 46039, Note_on_c, 0, 66, 26
2, 46041, Note_on_c, 0, 62, 36
2, 46087, Note_on_c, 0, 66, 0
2, 46088, Note_on_c, 0, 70, 0
2, 46095, Note_on_c, 0, 73, 0
2, 46101, Note_on_c, 0, 62, 0
2, 46111, Note_on_c, 0, 56, 0
2, 46152, Control_c, 0, 64, 0
2, 46154, Note_on_c, 0, 66, 31
2, 46157, Note_on_c, 0, 62, 32
2, 46157, Note_on_c, 0, 73, 25
2, 46158, Note_on_c, 0, 56, 27
2, 46158, Note_on_c, 0, 70, 34
2, 46184, Control_c, 0, 64, 127
2, 46212, Note_on_c, 0, 52, 0
2, 46234, Note_on_c, 0, 62, 0
2, 46270, Note_on_c, 0, 52, 33
2, 46389, Note_on_c, 0, 52, 0
2, 46439, Note_on_c, 0, 52, 30
2, 46462, Note_on_c, 0, 66, 0
2, 46539, Note_on_c, 0, 52, 0
2, 46573, Note_on_c, 0, 70, 0
2, 46583, Note_on_c, 0, 73, 0
2, 46604, Note_on_c, 0, 52, 30
2, 46633, Note_on_c, 0, 52, 0
2, 46652, Note_on_c, 0, 56, 0
2, 46667, Note_on_c, 0, 73, 37
2, 46669, Note_on_c, 0, 66, 53
2, 46670, Note_on_c, 0, 61, 44
2, 46672, Note_on_c, 0, 70, 43
2, 46677, Note_on_c, 0, 56, 27
2, 46682, Note_on_c, 0, 52, 33
2, 46683, Control_c, 0, 64, 0
2, 46715, Control_c, 0, 64, 127
2, 46751, Note_on_c, 0, 52, 0
2, 46780, Note_on_c, 0, 52, 25
2, 46782, Note_on_c, 0, 61, 0
2, 46785, Note_on_c, 0, 56, 0
2, 46790, Note_on_c, 0, 66, 0
2, 46792, Note_on_c, 0, 70, 0
2, 46833, Note_on_c, 0, 73, 0
2, 46891, Note_on_c, 0, 52, 0
2, 46951, Note_on_c, 0, 61, 34
2, 46953, Note_on_c, 0, 70, 35
2, 46954, Note_on_c, 0, 56, 28
2, 46954, Note_on_c, 0, 52, 43
2, 46958, Note_on_c, 0, 66, 25
2, 47060, Note_on_c, 0, 52, 0
2, 47155, Note_on_c, 0, 56, 0
2, 47226, Note_on_c, 0, 61, 0
2, 47266, Note_on_c, 0, 66, 0
2, 47280, Note_on_c, 0, 70, 0
2, 47338, Note_on_c, 0, 52, 25
2, 47340, Note_on_c, 0, 61, 27
2, 47340, Note_on_c, 0, 66, 31
2, 47340, Note_on_c, 0, 70, 34
2, 47342, Note_on_c, 0, 56, 28
2, 47428, Note_on_c, 0, 52, 0
2, 47470, Note_on_c, 0, 61, 0
2, 47475, Note_on_c, 0, 66, 0
2, 47554, Note_on_c, 0, 56, 0
2, 47577, Note_on_c, 0, 70, 0
2, 47621, Note_on_c, 0, 51, 45
2, 47639, Note_on_c, 0, 70, 8
2, 47680, Note_on_c, 0, 51, 0
2, 47683, Note_on_c, 0, 70, 0
2, 47709, Note_on_c, 0, 50, 51
2, 47710, Note_on_c, 0, 62, 69
2, 47728, Control_c, 0, 64, 0
2, 47756, Control_c, 0, 64, 127
2, 47801, Note_on_c, 0, 62, 0
2, 47802, Note_on_c, 0, 67, 85
2, 47864, Note_on_c, 0, 67, 0
2, 47905, Note_on_c, 0, 50, 0
2, 47963, Note_on_c, 0, 67, 61
2, 47990, Note_on_c, 0, 67, 0
2, 48000, Note_on_c, 0, 65, 42
2, 48031, Note_on_c, 0, 65, 0
2, 48035, Control_c, 0, 64, 0
2, 48038, Note_on_c, 0, 43, 30
2, 48044, Note_on_c, 0, 67, 39
2, 48067, Control_c, 0, 64, 127
2, 48143, Note_on_c, 0, 62, 26
2, 48144, Note_on_c, 0, 58, 26
2, 48149, Note_on_c, 0, 50, 14
2, 48149, Note_on_c, 0, 55, 26
2, 48176, Note_on_c, 0, 43, 0
2, 48178, Note_on_c, 0, 50, 0
2, 48194, Note_on_c, 0, 55, 0
2, 48196, Note_on_c, 0, 58, 0
2, 48216, Note_on_c, 0, 62, 0
2, 48239, Note_on_c, 0, 67, 0
2, 48318, Note_on_c, 0, 62, 55
2, 48319, Note_on_c, 0, 57, 41
2, 48319, Note_on_c, 0, 58, 44
2, 48342, Note_on_c, 0, 57, 0
2, 48346, Note_on_c, 0, 62, 0
2, 48351, Note_on_c, 0, 58, 0
2, 48464, Note_on_c, 0, 69, 45
2, 48478, Note_on_c, 0, 62, 18
2, 48487, Note_on_c, 0, 57, 12
2, 48487, Note_on_c, 0, 58, 14
2, 48498, Note_on_c, 0, 69, 0
2, 48505, Note_on_c, 0, 70, 49
2, 48522, Note_on_c, 0, 70, 0
2, 48561, Note_on_c, 0, 74, 70
2, 48580, Note_on_c, 0, 74, 0
2, 48598, Note_on_c, 0, 62, 0
2, 48601, Note_on_c, 0, 57, 0
2, 48605, Note_on_c, 0, 77, 74
2, 48610, Note_on_c, 0, 58, 0
2, 48631, Note_on_c, 0, 77, 0
2, 48661, Note_on_c, 0, 84, 89
2, 48690, Note_on_c, 0, 84, 0
2, 48713, Note_on_c, 0, 89, 88
2, 48755, Control_c, 0, 64, 0
2, 48757, Note_on_c, 0, 50, 49
2, 48768, Note_on_c, 0, 50, 0
2, 48777, Control_c, 0, 64, 127
2, 48841, Note_on_c, 0, 65, 43
2, 48842, Note_on_c, 0, 60, 46
2, 48844, Note_on_c, 0, 54, 33
2, 48975, Note_on_c, 0, 89, 0
2, 49021, Note_on_c, 0, 86, 83
2, 49054, Note_on_c, 0, 86, 0
2, 49069, Note_on_c, 0, 86, 67
2, 49088, Note_on_c, 0, 86, 0
2, 49122, Note_on_c, 0, 91, 87
2, 49155, Note_on_c, 0, 91, 0
2, 49158, Note_on_c, 0, 65, 0
2, 49169, Note_on_c, 0, 60, 0
2, 49174, Note_on_c, 0, 91, 64
2, 49188, Note_on_c, 0, 54, 0
2, 49208, Note_on_c, 0, 91, 0
2, 49223, Note_on_c, 0, 89, 56
2, 49242, Note_on_c, 0, 89, 0
2, 49279, Note_on_c, 0, 96, 84
2, 49318, Control_c, 0, 64, 0
2, 49327, Note_on_c, 0, 43, 40
2, 49330, Note_on_c, 0, 50, 38
2, 49339, Note_on_c, 0, 43, 0
2, 49342, Control_c, 0, 64, 127
2, 49349, Note_on_c, 0, 50, 0
2, 49426, Note_on_c, 0, 96, 0
2, 49437, Note_on_c, 0, 57, 19
2, 49438, Note_on_c, 0, 93, 64
2, 49438, Note_on_c, 0, 62, 32
2, 49440, Note_on_c, 0, 58, 33
2, 49508, Note_on_c, 0, 93, 0
2, 49541, Note_on_c, 0, 62, 0
2, 49548, Note_on_c, 0, 57, 0
2, 49555, Note_on_c, 0, 58, 0
2, 49616, Note_on_c, 0, 62, 27
2, 49617, Note_on_c, 0, 57, 31
2, 49618, Note_on_c, 0, 58, 29
2, 49708, Note_on_c, 0, 62, 0
2, 49710, Note_on_c, 0, 57, 0
2, 49718, Note_on_c, 0, 58, 0
2, 49755, Note_on_c, 0, 57, 32
2, 49756, Note_on_c, 0, 58, 35
2, 49757, Note_on_c, 0, 62, 32
2, 49803, Note_on_c, 0, 69, 61
2, 49855, Note_on_c, 0, 79, 85
2, 49893, Note_on_c, 0, 79, 0
2, 49897, Note_on_c, 0, 62, 0
2, 49899, Note_on_c, 0, 57, 0
2, 49905, Note_on_c, 0, 69, 0
2, 49908, Note_on_c, 0, 79, 57
2, 49909, Note_on_c, 0, 58, 0
2, 49930, Note_on_c, 0, 79, 0
2, 49964, Note_on_c, 0, 69, 24
2, 49997, Note_on_c, 0, 69, 0
2, 50007, Note_on_c, 0, 69, 36
2, 50053, Note_on_c, 0, 69, 0
2, 50064, Note_on_c, 0, 76, 71
2, 50072, Note_on_c, 0, 57, 24
2, 50074, Note_on_c, 0, 50, 28
2, 50075, Note_on_c, 0, 60, 24
2, 50086, Control_c, 0, 64, 0
2, 50099, Note_on_c, 0, 76, 0
2, 50116, Note_on_c, 0, 76, 49
2, 50123, Control_c, 0, 64, 127
2, 50160, Note_on_c, 0, 76, 0
2, 50167, Note_on_c, 0, 64, 34
2, 50187, Note_on_c, 0, 64, 0
2, 50191, Note_on_c, 0, 60, 0
2, 50213, Note_on_c, 0, 64, 31
2, 50244, Note_on_c, 0, 64, 0
2, 50266, Note_on_c, 0, 60, 25
2, 50266, Note_on_c, 0, 65, 30
2, 50273, Control_c, 0, 64, 0
2, 50295, Control_c, 0, 64, 127
2, 50316, Note_on_c, 0, 50, 0
2, 50329, Note_on_c, 0, 65, 0
2, 50375, Note_on_c, 0, 50, 19
2, 50385, Note_on_c, 0, 60, 0
2, 50408, Note_on_c, 0, 57, 0
2, 50428, Note_on_c, 0, 74, 46
2, 50444, Note_on_c, 0, 57, 15
2, 50444, Note_on_c, 0, 60, 17
2, 50450, Note_on_c, 0, 69, 8
2, 50509, Note_on_c, 0, 50, 0
2, 50527, Note_on_c, 0, 81, 78
2, 50600, Note_on_c, 0, 60, 0
2, 50614, Note_on_c, 0, 57, 0
2, 50640, Note_on_c, 0, 77, 56
2, 50642, Note_on_c, 0, 81, 0
2, 50662, Note_on_c, 0, 69, 0
2, 50667, Note_on_c, 0, 77, 0
2, 50670, Note_on_c, 0, 74, 0
2, 50694, Note_on_c, 0, 77, 43
2, 50738, Note_on_c, 0, 77, 0
2, 50742, Note_on_c, 0, 79, 53
2, 50750, Note_on_c, 0, 74, 40
2, 50754, Note_on_c, 0, 69, 30
2, 50755, Note_on_c, 0, 70, 21
2, 50756, Control_c, 0, 64, 0
2, 50774, Control_c, 0, 64, 127
2, 50838, Note_on_c, 0, 69, 0
2, 50842, Note_on_c, 0, 79, 0
2, 50846, Note_on_c, 0, 81, 57
2, 50874, Note_on_c, 0, 81, 0
2, 50875, Note_on_c, 0, 74, 0
2, 50881, Note_on_c, 0, 70, 0
2, 50908, Note_on_c, 0, 81, 61
2, 50916, Note_on_c, 0, 74, 37
2, 50917, Note_on_c, 0, 67, 37
2, 50920, Note_on_c, 0, 70, 29
2, 50921, Control_c, 0, 64, 0
2, 50939, Control_c, 0, 64, 127
2, 51040, Note_on_c, 0, 74, 0
2, 51041, Note_on_c, 0, 81, 0
2, 51042, Note_on_c, 0, 70, 0
2, 51077, Note_on_c, 0, 67, 0
2, 51086, Note_on_c, 0, 81, 51
2, 51086, Note_on_c, 0, 66, 37
2, 51086, Control_c, 0, 64, 0
2, 51088, Note_on_c, 0, 74, 44
2, 51090, Note_on_c, 0, 70, 17
2, 51112, Control_c, 0, 64, 127
2, 51161, Note_on_c, 0, 81, 0
2, 51178, Note_on_c, 0, 70, 0
2, 51190, Note_on_c, 0, 82, 57
2, 51210, Note_on_c, 0, 66, 0
2, 51212, Note_on_c, 0, 74, 0
2, 51223, Note_on_c, 0, 82, 0
2, 51255, Note_on_c, 0, 82, 53
2, 51262, Note_on_c, 0, 70, 21
2, 51262, Note_on_c, 0, 74, 40
2, 51363, Note_on_c, 0, 66, 37
2, 51385, Note_on_c, 0, 74, 0
2, 51388, Note_on_c, 0, 70, 0
2, 51399, Note_on_c, 0, 82, 0
2, 51424, Note_on_c, 0, 82, 63
2, 51427, Note_on_c, 0, 66, 0
2, 51430, Control_c, 0, 64, 0
2, 51431, Note_on_c, 0, 74, 50
2, 51432, Note_on_c, 0, 65, 44
2, 51434, Note_on_c, 0, 70, 28
2, 51456, Control_c, 0, 64, 127
2, 51510, Note_on_c, 0, 82, 0
2, 51538, Note_on_c, 0, 81, 61
2, 51539, Note_on_c, 0, 55, 38
2, 51607, Note_on_c, 0, 65, 0
2, 51661, Note_on_c, 0, 74, 0
2, 51672, Note_on_c, 0, 70, 0
2, 51682, Note_on_c, 0, 55, 0
2, 51686, Note_on_c, 0, 81, 0
2, 51711, Note_on_c, 0, 55, 28
2, 51773, Note_on_c, 0, 69, 37
2, 51775, Note_on_c, 0, 74, 40
2, 51777, Note_on_c, 0, 70, 30
2, 51778, Note_on_c, 0, 65, 32
2, 51846, Note_on_c, 0, 65, 0
2, 51848, Note_on_c, 0, 69, 0
2, 51849, Note_on_c, 0, 74, 0
2, 51854, Note_on_c, 0, 70, 0
2, 51883, Note_on_c, 0, 74, 44
2, 51884, Note_on_c, 0, 69, 36
2, 51884, Note_on_c, 0, 70, 26
2, 51884, Note_on_c, 0, 65, 35
2, 51953, Note_on_c, 0, 65, 0
2, 51959, Note_on_c, 0, 74, 0
2, 51988, Note_on_c, 0, 69, 0
2, 52003, Note_on_c, 0, 70, 0
2, 52005, Note_on_c, 0, 55, 0
2, 52024, Note_on_c, 0, 74, 47
2, 52045, Note_on_c, 0, 74, 0
2, 52066, Note_on_c, 0, 79, 77
2, 52113, Note_on_c, 0, 48, 33
2, 52116, Note_on_c, 0, 74, 62
2, 52124, Control_c, 0, 64, 0
2, 52135, Note_on_c, 0, 79, 0
2, 52150, Control_c, 0, 64, 127
2, 52156, Note_on_c, 0, 74, 0
2, 52163, Note_on_c, 0, 77, 60
2, 52209, Note_on_c, 0, 75, 49
2, 52216, Note_on_c, 0, 77, 0
2, 52246, Note_on_c, 0, 75, 0
2, 52253, Note_on_c, 0, 67, 48
2, 52296, Note_on_c, 0, 67, 0
2, 52301, Note_on_c, 0, 74, 66
2, 52344, Note_on_c, 0, 72, 47
2, 52346, Note_on_c, 0, 74, 0
2, 52391, Note_on_c, 0, 63, 48
2, 52422, Note_on_c, 0, 63, 0
2, 52441, Note_on_c, 0, 62, 40
2, 52704, Note_on_c, 0, 60, 38
2, 52731, Note_on_c, 0, 60, 0
2, 52760, Note_on_c, 0, 62, 0
2, 52779, Note_on_c, 0, 62, 35
2, 52781, Note_on_c, 0, 59, 31
2, 52790, Control_c, 0, 64, 0
2, 52808, Note_on_c, 0, 72, 0
2, 52814, Control_c, 0, 64, 127
2, 52834, Note_on_c, 0, 48, 0
2, 52884, Note_on_c, 0, 48, 39
2, 52931, Note_on_c, 0, 59, 0
2, 52966, Note_on_c, 0, 48, 0
2, 52986, Note_on_c, 0, 62, 0
2, 53057, Note_on_c, 0, 62, 96
2, 53062, Note_on_c, 0, 47, 44
2, 53062, Note_on_c, 0, 55, 53
2, 53069, Control_c, 0, 64, 0
2, 53105, Control_c, 0, 64, 127
2, 53139, Note_on_c, 0, 67, 80
2, 53153, Control_c, 0, 64, 0
2, 53159, Control_c, 0, 64, 127
2, 53229, Note_on_c, 0, 55, 0
2, 53249, Note_on_c, 0, 67, 0
2, 53275, Note_on_c, 0, 62, 0
2, 53341, Note_on_c, 0, 47, 0
2, 53361, Note_on_c, 0, 62, 33
2, 53377, Note_on_c, 0, 62, 0
2, 53404, Note_on_c, 0, 47, 28
2, 53406, Note_on_c, 0, 62, 54
2, 53419, Note_on_c, 0, 47, 0
2, 53424, Note_on_c, 0, 62, 0
2, 53466, Note_on_c, 0, 63, 45
2, 53470, Note_on_c, 0, 55, 33
2, 53472, Note_on_c, 0, 58, 36
2, 53474, Note_on_c, 0, 46, 31
2, 53478, Control_c, 0, 64, 0
2, 53510, Control_c, 0, 64, 127
2, 53528, Note_on_c, 0, 55, 0
2, 53558, Note_on_c, 0, 63, 0
2, 53568, Note_on_c, 0, 65, 50
2, 53601, Note_on_c, 0, 65, 0
2, 53635, Note_on_c, 0, 65, 39
2, 53685, Note_on_c, 0, 58, 0
2, 53685, Note_on_c, 0, 46, 0
2, 53715, Note_on_c, 0, 65, 0
2, 53738, Note_on_c, 0, 46, 29
2, 53780, Note_on_c, 0, 46, 0
2, 53806, Note_on_c, 0, 65, 49
2, 53806, Note_on_c, 0, 45, 37
2, 53807, Note_on_c, 0, 58, 34
2, 53808, Note_on_c, 0, 63, 33
2, 53815, Control_c, 0, 64, 0
2, 53851, Control_c, 0, 64, 127
2, 53911, Note_on_c, 0, 63, 0
2, 53918, Note_on_c, 0, 57, 44
2, 53925, Note_on_c, 0, 53, 24
2, 53928, Note_on_c, 0, 58, 0
2, 53937, Control_c, 0, 64, 0
2, 53964, Control_c, 0, 64, 127
2, 54009, Note_on_c, 0, 65, 0
2, 54046, Note_on_c, 0, 57, 0
2, 54070, Note_on_c, 0, 67, 74
2, 54085, Note_on_c, 0, 45, 0
2, 54098, Note_on_c, 0, 67, 0
2, 54112, Note_on_c, 0, 67, 74
2, 54116, Note_on_c, 0, 53, 0
2, 54142, Note_on_c, 0, 67, 0
2, 54167, Note_on_c, 0, 67, 59
2, 54170, Note_on_c, 0, 44, 38
2, 54172, Note_on_c, 0, 60, 68
2, 54176, Control_c, 0, 64, 0
2, 54176, Note_on_c, 0, 51, 37
2, 54179, Note_on_c, 0, 55, 38
2, 54224, Control_c, 0, 64, 127
2, 54360, Note_on_c, 0, 55, 0
2, 54393, Note_on_c, 0, 67, 0
2, 54398, Note_on_c, 0, 60, 0
2, 54412, Note_on_c, 0, 65, 56
2, 54445, Note_on_c, 0, 65, 0
2, 54454, Note_on_c, 0, 60, 41
2, 54468, Note_on_c, 0, 44, 0
2, 54487, Note_on_c, 0, 60, 0
2, 54490, Note_on_c, 0, 51, 0
2, 54504, Note_on_c, 0, 43, 40
2, 54505, Control_c, 0, 64, 0
2, 54507, Note_on_c, 0, 62, 53
2, 54509, Note_on_c, 0, 60, 36
2, 54524, Note_on_c, 0, 60, 0
2, 54525, Control_c, 0, 64, 127
2, 54534, Note_on_c, 0, 62, 0
2, 54554, Note_on_c, 0, 43, 0
2, 54612, Note_on_c, 0, 60, 44
2, 54667, Note_on_c, 0, 67, 44
2, 54683, Note_on_c, 0, 67, 0
2, 54718, Note_on_c, 0, 72, 66
2, 54732, Note_on_c, 0, 72, 0
2, 54769, Note_on_c, 0, 72, 92
2, 54770, Note_on_c, 0, 74, 88
2, 54775, Note_on_c, 0, 65, 35
2, 54812, Note_on_c, 0, 74, 0
2, 54812, Note_on_c, 0, 72, 0
2, 54816, Note_on_c, 0, 65, 0
2, 54826, Note_on_c, 0, 74, 64
2, 54828, Note_on_c, 0, 72, 40
2, 54856, Note_on_c, 0, 74, 0
2, 54863, Note_on_c, 0, 72, 0
2, 54877, Note_on_c, 0, 67, 33
2, 54894, Note_on_c, 0, 67, 0
2, 54928, Note_on_c, 0, 67, 45
2, 54945, Note_on_c, 0, 67, 0
2, 54982, Note_on_c, 0, 72, 43
2, 54983, Note_on_c, 0, 74, 50
2, 54992, Note_on_c, 0, 60, 0
2, 55004, Note_on_c, 0, 72, 0
2, 55006, Note_on_c, 0, 74, 0
2, 55032, Note_on_c, 0, 74, 33
2, 55035, Note_on_c, 0, 72, 25
2, 55072, Note_on_c, 0, 74, 0
2, 55086, Note_on_c, 0, 72, 0
2, 55087, Note_on_c, 0, 67, 33
2, 55127, Note_on_c, 0, 67, 0
2, 55140, Note_on_c, 0, 67, 40
2, 55148, Note_on_c, 0, 59, 28
2, 55151, Note_on_c, 0, 53, 28
2, 55153, Control_c, 0, 64, 0
2, 55168, Note_on_c, 0, 63, 1
2, 55191, Note_on_c, 0, 71, 49
2, 55196, Note_on_c, 0, 73, 31
2, 55199, Note_on_c, 0, 67, 0
2, 55209, Control_c, 0, 64, 127
2, 55232, Note_on_c, 0, 71, 0
2, 55236, Note_on_c, 0, 73, 0
2, 55250, Note_on_c, 0, 71, 33
2, 55250, Note_on_c, 0, 73, 20
2, 55268, Note_on_c, 0, 63, 0
2, 55340, Note_on_c, 0, 71, 0
2, 55343, Note_on_c, 0, 73, 0
2, 55359, Note_on_c, 0, 68, 13
2, 55412, Note_on_c, 0, 63, 25
2, 55444, Note_on_c, 0, 68, 0
2, 55477, Note_on_c, 0, 71, 66
2, 55560, Note_on_c, 0, 63, 0
2, 55568, Note_on_c, 0, 71, 0
2, 55584, Note_on_c, 0, 75, 84
2, 55620, Note_on_c, 0, 75, 0
2, 55632, Note_on_c, 0, 75, 61
2, 55676, Note_on_c, 0, 75, 0
2, 55676, Note_on_c, 0, 71, 48
2, 55680, Note_on_c, 0, 53, 0
2, 55687, Note_on_c, 0, 59, 0
2, 55704, Note_on_c, 0, 71, 0
2, 55730, Note_on_c, 0, 71, 36
2, 55774, Note_on_c, 0, 71, 0
2, 55782, Note_on_c, 0, 74, 54
2, 55787, Note_on_c, 0, 46, 27
2, 55793, Control_c, 0, 64, 0
2, 55829, Control_c, 0, 64, 127
2, 55834, Note_on_c, 0, 54, 37
2, 55886, Note_on_c, 0, 54, 0
2, 55886, Note_on_c, 0, 46, 0
2, 55891, Note_on_c, 0, 57, 35
2, 55905, Note_on_c, 0, 57, 0
2, 55940, Note_on_c, 0, 74, 0
2, 55952, Note_on_c, 0, 62, 51
2, 56007, Note_on_c, 0, 74, 74
2, 56008, Note_on_c, 0, 81, 68
2, 56066, Note_on_c, 0, 81, 0
2, 56068, Note_on_c, 0, 78, 48
2, 56071, Note_on_c, 0, 69, 57
2, 56082, Note_on_c, 0, 74, 0
2, 56131, Note_on_c, 0, 78, 0
2, 56144, Note_on_c, 0, 62, 0
2, 56150, Note_on_c, 0, 69, 0
2, 56228, Note_on_c, 0, 66, 33
2, 56228, Note_on_c, 0, 74, 56
2, 56280, Note_on_c, 0, 62, 31
2, 56337, Note_on_c, 0, 57, 30
2, 56352, Note_on_c, 0, 62, 0
2, 56367, Note_on_c, 0, 57, 0
2, 56382, Note_on_c, 0, 74, 0
2, 56389, Note_on_c, 0, 54, 29
2, 56392, Note_on_c, 0, 66, 0
2, 56432, Note_on_c, 0, 54, 0
2, 56448, Note_on_c, 0, 68, 46
2, 56449, Note_on_c, 0, 46, 39
2, 56451, Note_on_c, 0, 63, 35
2, 56453, Note_on_c, 0, 56, 33
2, 56454, Note_on_c, 0, 60, 22
2, 56466, Control_c, 0, 64, 0
2, 56499, Control_c, 0, 64, 127
2, 56589, Note_on_c, 0, 46, 0
2, 56594, Note_on_c, 0, 60, 0
2, 56648, Note_on_c, 0, 68, 0
2, 56653, Note_on_c, 0, 63, 0
2, 56686, Note_on_c, 0, 60, 1
2, 56724, Note_on_c, 0, 60, 0
2, 56736, Note_on_c, 0, 46, 31
2, 56758, Note_on_c, 0, 56, 0
2, 56784, Note_on_c, 0, 46, 0
2, 56806, Note_on_c, 0, 57, 52
2, 56806, Note_on_c, 0, 46, 27
2, 56816, Control_c, 0, 64, 0
2, 56826, Note_on_c, 0, 57, 0
2, 56836, Control_c, 0, 64, 127
2, 56890, Note_on_c, 0, 46, 0
2, 56912, Note_on_c, 0, 60, 108
2, 56912, Note_on_c, 0, 46, 32
2, 56916, Note_on_c, 0, 56, 36
2, 56972, Note_on_c, 0, 60, 0
2, 56978, Note_on_c, 0, 63, 79
2, 56986, Control_c, 0, 64, 0
2, 56987, Note_on_c, 0, 56, 0
2, 57000, Control_c, 0, 64, 127
2, 57016, Note_on_c, 0, 63, 0
2, 57032, Note_on_c, 0, 63, 50
2, 57068, Note_on_c, 0, 46, 0
2, 57074, Note_on_c, 0, 63, 0
2, 57086, Note_on_c, 0, 56, 40
2, 57132, Note_on_c, 0, 56, 0
2, 57258, Note_on_c, 0, 53, 31
2, 57258, Note_on_c, 0, 39, 38
2, 57263, Note_on_c, 0, 55, 33
2, 57264, Note_on_c, 0, 58, 27
2, 57267, Control_c, 0, 64, 0
2, 57297, Control_c, 0, 64, 127
2, 57303, Note_on_c, 0, 53, 0
2, 57310, Note_on_c, 0, 55, 0
2, 57321, Note_on_c, 0, 58, 0
2, 57326, Note_on_c, 0, 46, 42
2, 57331, Note_on_c, 0, 39, 0
2, 57365, Note_on_c, 0, 46, 0
2, 57380, Note_on_c, 0, 55, 36
2, 57421, Note_on_c, 0, 55, 0
2, 57437, Note_on_c, 0, 58, 28
2, 57492, Note_on_c, 0, 74, 54
2, 57496, Note_on_c, 0, 82, 42
2, 57500, Note_on_c, 0, 62, 31
2, 57534, Note_on_c, 0, 62, 0
2, 57545, Note_on_c, 0, 74, 0
2, 57546, Note_on_c, 0, 70, 21
2, 57570, Note_on_c, 0, 82, 0
2, 57584, Note_on_c, 0, 70, 0
2, 57599, Note_on_c, 0, 82, 46
2, 57601, Note_on_c, 0, 74, 58
2, 57606, Note_on_c, 0, 62, 41
2, 57650, Note_on_c, 0, 74, 0
2, 57655, Note_on_c, 0, 70, 20
2, 57666, Note_on_c, 0, 82, 0
2, 57673, Note_on_c, 0, 62, 0
2, 57687, Note_on_c, 0, 70, 0
2, 57701, Note_on_c, 0, 82, 42
2, 57704, Note_on_c, 0, 74, 51
2, 57710, Note_on_c, 0, 65, 22
2, 57739, Note_on_c, 0, 82, 0
2, 57748, Note_on_c, 0, 74, 0
2, 57755, Note_on_c, 0, 70, 33
2, 57758, Note_on_c, 0, 65, 0
2, 57787, Note_on_c, 0, 70, 0
2, 57797, Note_on_c, 0, 58, 0
2, 57809, Note_on_c, 0, 80, 36
2, 57809, Note_on_c, 0, 68, 29
2, 57810, Note_on_c, 0, 72, 35
2, 57814, Note_on_c, 0, 58, 17
2, 57818, Control_c, 0, 64, 0
2, 57842, Control_c, 0, 64, 127
2, 57849, Note_on_c, 0, 68, 0
2, 57851, Note_on_c, 0, 72, 0
2, 57860, Note_on_c, 0, 80, 0
2, 57866, Note_on_c, 0, 63, 26
2, 57911, Note_on_c, 0, 87, 65
2, 57915, Note_on_c, 0, 80, 39
2, 57915, Note_on_c, 0, 75, 31
2, 57920, Note_on_c, 0, 63, 0
2, 57946, Note_on_c, 0, 87, 0
2, 57950, Note_on_c, 0, 75, 0
2, 57953, Note_on_c, 0, 80, 0
2, 57960, Note_on_c, 0, 63, 25
2, 58013, Note_on_c, 0, 84, 63
2, 58015, Note_on_c, 0, 73, 37
2, 58016, Note_on_c, 0, 68, 37
2, 58016, Note_on_c, 0, 80, 40
2, 58022, Note_on_c, 0, 63, 0
2, 58042, Note_on_c, 0, 84, 0
2, 58055, Note_on_c, 0, 80, 0
2, 58066, Note_on_c, 0, 68, 0
2, 58066, Note_on_c, 0, 73, 0
2, 58112, Note_on_c, 0, 80, 54
2, 58114, Note_on_c, 0, 58, 0
2, 58116, Note_on_c, 0, 75, 52
2, 58117, Note_on_c, 0, 72, 33
2, 58146, Note_on_c, 0, 80, 0
2, 58150, Note_on_c, 0, 75, 0
2, 58153, Note_on_c, 0, 72, 0
2, 58171, Note_on_c, 0, 58, 29
2, 58216, Note_on_c, 0, 70, 55
2, 58216, Note_on_c, 0, 77, 49
2, 58219, Note_on_c, 0, 63, 34
2, 58230, Note_on_c, 0, 58, 0
2, 58288, Note_on_c, 0, 70, 0
2, 58308, Note_on_c, 0, 77, 0
2, 58314, Note_on_c, 0, 74, 46
2, 58350, Note_on_c, 0, 74, 0
2, 58352, Note_on_c, 0, 63, 0
2, 58360, Note_on_c, 0, 70, 37
2, 58387, Note_on_c, 0, 70, 0
2, 58416, Note_on_c, 0, 70, 36
2, 58418, Note_on_c, 0, 74, 42
2, 58422, Note_on_c, 0, 65, 31
2, 58442, Control_c, 0, 64, 0
2, 58473, Note_on_c, 0, 51, 47
2, 58496, Control_c, 0, 64, 127
2, 58537, Note_on_c, 0, 74, 0
2, 58539, Note_on_c, 0, 70, 0
2, 58544, Note_on_c, 0, 65, 0
2, 58562, Note_on_c, 0, 51, 0
2, 58580, Note_on_c, 0, 62, 38
2, 58581, Note_on_c, 0, 65, 54
2, 58581, Note_on_c, 0, 70, 30
2, 58628, Note_on_c, 0, 70, 0
2, 58628, Note_on_c, 0, 65, 0
2, 58636, Note_on_c, 0, 51, 39
2, 58647, Note_on_c, 0, 62, 0
2, 58720, Note_on_c, 0, 51, 0
2, 58748, Note_on_c, 0, 65, 40
2, 58752, Note_on_c, 0, 62, 36
2, 58756, Note_on_c, 0, 53, 15
2, 58757, Note_on_c, 0, 58, 25
2, 58769, Control_c, 0, 64, 0
2, 58797, Control_c, 0, 64, 127
2, 58802, Note_on_c, 0, 39, 34
2, 58876, Note_on_c, 0, 39, 0
2, 58876, Note_on_c, 0, 62, 0
2, 58879, Note_on_c, 0, 53, 0
2, 58896, Note_on_c, 0, 58, 0
2, 58906, Note_on_c, 0, 65, 0
2, 58915, Note_on_c, 0, 62, 41
2, 58916, Note_on_c, 0, 58, 25
2, 58917, Note_on_c, 0, 53, 30
2, 58934, Note_on_c, 0, 53, 0
2, 58950, Note_on_c, 0, 58, 0
2, 58992, Note_on_c, 0, 62, 0
2, 59019, Note_on_c, 0, 56, 25
2, 59020, Note_on_c, 0, 63, 30
2, 59020, Note_on_c, 0, 60, 49
2, 59021, Note_on_c, 0, 51, 30
2, 59022, Note_on_c, 0, 39, 29
2, 59030, Control_c, 0, 64, 0
2, 59054, Control_c, 0, 64, 127
2, 59172, Note_on_c, 0, 56, 0
2, 59184, Note_on_c, 0, 60, 0
2, 59189, Note_on_c, 0, 39, 0
2, 59189, Note_on_c, 0, 51, 0
2, 59189, Note_on_c, 0, 44, 69
2, 59191, Note_on_c, 0, 56, 83
2, 59216, Control_c, 0, 64, 0
2, 59250, Control_c, 0, 64, 127
2, 59411, Note_on_c, 0, 56, 0
2, 59425, Note_on_c, 0, 44, 0
2, 59429, Note_on_c, 0, 46, 36
2, 59432, Note_on_c, 0, 58, 43
2, 59437, Control_c, 0, 64, 0
2, 59475, Control_c, 0, 64, 127
2, 59515, Note_on_c, 0, 46, 0
2, 59535, Note_on_c, 0, 46, 34
2, 59549, Note_on_c, 0, 63, 0
2, 59604, Note_on_c, 0, 63, 31
2, 59634, Note_on_c, 0, 46, 0
2, 59675, Note_on_c, 0, 63, 30
2, 59707, Note_on_c, 0, 62, 30
2, 59722, Note_on_c, 0, 46, 21
2, 59757, Note_on_c, 0, 58, 0
2, 59765, Note_on_c, 0, 63, 0
2, 59782, Control_c, 0, 64, 0
2, 59785, Note_on_c, 0, 46, 0
2, 59790, Note_on_c, 0, 55, 22
2, 59790, Note_on_c, 0, 63, 53
2, 59791, Note_on_c, 0, 39, 27
2, 59795, Note_on_c, 0, 63, 0
2, 59799, Control_c, 0, 64, 127
2, 59827, Note_on_c, 0, 62, 0
2, 59836, Note_on_c, 0, 55, 0
2, 59875, Note_on_c, 0, 63, 0
2, 59885, Note_on_c, 0, 39, 0
2, 59906, Note_on_c, 0, 46, 34
2, 59966, Note_on_c, 0, 46, 0
2, 59968, Note_on_c, 0, 70, 48
2, 59972, Note_on_c, 0, 65, 44
2, 59973, Note_on_c, 0, 60, 29
2, 59975, Note_on_c, 0, 55, 36
2, 59986, Note_on_c, 0, 60, 0
2, 59989, Note_on_c, 0, 65, 0
2, 60008, Note_on_c, 0, 70, 0
2, 60018, Note_on_c, 0, 71, 55
2, 60019, Note_on_c, 0, 55, 0
2, 60022, Note_on_c, 0, 56, 40
2, 60022, Note_on_c, 0, 61, 38
2, 60026, Control_c, 0, 64, 0
2, 60027, Note_on_c, 0, 66, 35
2, 60048, Note_on_c, 0, 71, 0
2, 60053, Control_c, 0, 64, 127
2, 60063, Note_on_c, 0, 66, 0
2, 60070, Note_on_c, 0, 61, 0
2, 60071, Control_c, 0, 64, 0
2, 60076, Note_on_c, 0, 70, 55
2, 60080, Note_on_c, 0, 56, 0
2, 60080, Note_on_c, 0, 60, 37
2, 60082, Note_on_c, 0, 65, 44
2, 60085, Note_on_c, 0, 55, 36
2, 60109, Control_c, 0, 64, 127
2, 60151, Note_on_c, 0, 55, 0
2, 60161, Note_on_c, 0, 65, 0
2, 60163, Note_on_c, 0, 70, 0
2, 60178, Note_on_c, 0, 60, 0
2, 60251, Note_on_c, 0, 39, 36
2, 60288, Note_on_c, 0, 39, 0
2, 60317, Note_on_c, 0, 39, 38
2, 60387, Note_on_c, 0, 39, 0
2, 60423, Note_on_c, 0, 39, 53
2, 60468, Note_on_c, 0, 39, 0
2, 60496, Note_on_c, 0, 39, 54
2, 60600, Note_on_c, 0, 68, 51
2, 60605, Note_on_c, 0, 63, 46
2, 60606, Note_on_c, 0, 60, 48
2, 60607, Note_on_c, 0, 56, 33
2, 60607, Note_on_c, 0, 51, 29
2, 60612, Control_c, 0, 64, 0
2, 60642, Control_c, 0, 64, 127
2, 60647, Note_on_c, 0, 56, 0
2, 60648, Note_on_c, 0, 60, 0
2, 60656, Note_on_c, 0, 63, 0
2, 60658, Note_on_c, 0, 68, 0
2, 60694, Note_on_c, 0, 39, 0
2, 60698, Note_on_c, 0, 72, 58
2, 60704, Note_on_c, 0, 51, 0
2, 60720, Note_on_c, 0, 72, 0
2, 60762, Note_on_c, 0, 68, 76
2, 60762, Note_on_c, 0, 75, 76
2, 60819, Note_on_c, 0, 68, 0
2, 60824, Note_on_c, 0, 75, 0
2, 60841, Note_on_c, 0, 68, 20
2, 60841, Note_on_c, 0, 63, 47
2, 60841, Note_on_c, 0, 72, 41
2, 60908, Note_on_c, 0, 63, 0
2, 60930, Note_on_c, 0, 68, 0
2, 60931, Note_on_c, 0, 72, 0
2, 60941, Note_on_c, 0, 60, 39
2, 61002, Note_on_c, 0, 80, 71
2, 61003, Note_on_c, 0, 72, 59
2, 61045, Note_on_c, 0, 80, 0
2, 61050, Note_on_c, 0, 72, 0
2, 61054, Note_on_c, 0, 68, 27
2, 61073, Note_on_c, 0, 68, 0
2, 61120, Note_on_c, 0, 60, 0
2, 61186, Note_on_c, 0, 84, 82
2, 61189, Note_on_c, 0, 72, 66
2, 61212, Note_on_c, 0, 84, 0
2, 61228, Note_on_c, 0, 72, 0
2, 61299, Note_on_c, 0, 82, 69
2, 61299, Note_on_c, 0, 59, 30
2, 61301, Note_on_c, 0, 70, 51
2, 61302, Note_on_c, 0, 51, 36
2, 61308, Control_c, 0, 64, 0
2, 61336, Control_c, 0, 64, 127
2, 61398, Note_on_c, 0, 82, 0
2, 61407, Note_on_c, 0, 70, 0
2, 61466, Note_on_c, 0, 71, 55
2, 61467, Note_on_c, 0, 67, 43
2, 61499, Note_on_c, 0, 67, 0
2, 61508, Note_on_c, 0, 79, 63
2, 61517, Note_on_c, 0, 71, 0
2, 61531, Note_on_c, 0, 79, 0
2, 61538, Note_on_c, 0, 51, 0
2, 61551, Note_on_c, 0, 59, 0
2, 61561, Note_on_c, 0, 51, 32
2, 61561, Note_on_c, 0, 67, 37
2, 61562, Note_on_c, 0, 72, 37
2, 61562, Note_on_c, 0, 75, 39
2, 61566, Note_on_c, 0, 60, 38
2, 61575, Control_c, 0, 64, 0
2, 61615, Control_c, 0, 64, 127
2, 61711, Note_on_c, 0, 67, 0
2, 61714, Note_on_c, 0, 72, 0
2, 61808, Note_on_c, 0, 51, 0
2, 61847, Note_on_c, 0, 51, 38
2, 61900, Note_on_c, 0, 60, 0
2, 61904, Note_on_c, 0, 51, 0
2, 61930, Note_on_c, 0, 51, 48
2, 61933, Note_on_c, 0, 75, 0
2, 62004, Note_on_c, 0, 51, 0
2, 62054, Note_on_c, 0, 51, 37
2, 62074, Note_on_c, 0, 51, 0
2, 62210, Note_on_c, 0, 49, 46
2, 62212, Note_on_c, 0, 58, 73
2, 62212, Note_on_c, 0, 65, 65
2, 62214, Note_on_c, 0, 50, 71
2, 62215, Note_on_c, 0, 55, 70
2, 62215, Note_on_c, 0, 62, 69
2, 62216, Note_on_c, 0, 49, 0
2, 62225, Control_c, 0, 64, 0
2, 62255, Control_c, 0, 64, 127
2, 62265, Note_on_c, 0, 65, 0
2, 62272, Note_on_c, 0, 55, 0
2, 62285, Note_on_c, 0, 50, 0
2, 62286, Note_on_c, 0, 58, 0
2, 62286, Note_on_c, 0, 51, 45
2, 62291, Note_on_c, 0, 62, 0
2, 62301, Note_on_c, 0, 58, 67
2, 62304, Note_on_c, 0, 67, 71
2, 62304, Note_on_c, 0, 62, 64
2, 62305, Note_on_c, 0, 55, 69
2, 62313, Control_c, 0, 64, 0
2, 62318, Note_on_c, 0, 51, 0
2, 62350, Control_c, 0, 64, 127
2, 62366, Note_on_c, 0, 67, 0
2, 62370, Note_on_c, 0, 55, 0
2, 62391, Note_on_c, 0, 62, 0
2, 62416, Note_on_c, 0, 58, 0
2, 62463, Note_on_c, 0, 63, 40
2, 62464, Note_on_c, 0, 58, 38
2, 62467, Note_on_c, 0, 51, 35
2, 62467, Note_on_c, 0, 55, 31
2, 62489, Note_on_c, 0, 51, 0
2, 62518, Note_on_c, 0, 55, 0
2, 62538, Note_on_c, 0, 58, 0
2, 62602, Note_on_c, 0, 63, 0
2, 62647, Note_on_c, 0, 65, 54
2, 62648, Note_on_c, 0, 57, 66
2, 62648, Note_on_c, 0, 39, 36
2, 62649, Note_on_c, 0, 47, 29
2, 62649, Control_c, 0, 64, 0
2, 62650, Note_on_c, 0, 54, 43
2, 62652, Note_on_c, 0, 62, 38
2, 62678, Control_c, 0, 64, 127
2, 62710, Note_on_c, 0, 57, 0
2, 62720, Note_on_c, 0, 62, 0
2, 62737, Note_on_c, 0, 65, 0
2, 62737, Note_on_c, 0, 54, 0
2, 62762, Note_on_c, 0, 47, 0
2, 62827, Note_on_c, 0, 67, 59
2, 62829, Note_on_c, 0, 48, 39
2, 62830, Note_on_c, 0, 55, 40
2, 62831, Note_on_c, 0, 63, 46
2, 62837, Control_c, 0, 64, 0
2, 62863, Control_c, 0, 64, 127
2, 62903, Note_on_c, 0, 39, 0
2, 62917, Note_on_c, 0, 48, 0
2, 62924, Note_on_c, 0, 63, 0
2, 62925, Note_on_c, 0, 55, 0
2, 62947, Note_on_c, 0, 67, 0
2, 63006, Note_on_c, 0, 48, 40
2, 63008, Note_on_c, 0, 56, 46
2, 63009, Note_on_c, 0, 67, 53
2, 63012, Note_on_c, 0, 41, 34
2, 63018, Control_c, 0, 64, 0
2, 63050, Control_c, 0, 64, 127
2, 63127, Note_on_c, 0, 49, 40
2, 63146, Note_on_c, 0, 56, 0
2, 63146, Note_on_c, 0, 48, 0
2, 63165, Note_on_c, 0, 41, 0
2, 63175, Note_on_c, 0, 67, 0
2, 63247, Note_on_c, 0, 49, 0
2, 63263, Note_on_c, 0, 50, 40
2, 63264, Control_c, 0, 64, 0
2, 63268, Note_on_c, 0, 56, 42
2, 63269, Note_on_c, 0, 60, 58
2, 63270, Note_on_c, 0, 41, 47
2, 63270, Note_on_c, 0, 67, 44
2, 63290, Control_c, 0, 64, 127
2, 63318, Note_on_c, 0, 56, 0
2, 63320, Note_on_c, 0, 60, 0
2, 63340, Note_on_c, 0, 67, 0
2, 63356, Note_on_c, 0, 41, 0
2, 63364, Note_on_c, 0, 67, 48
2, 63368, Control_c, 0, 64, 0
2, 63368, Note_on_c, 0, 58, 33
2, 63372, Note_on_c, 0, 62, 45
2, 63372, Note_on_c, 0, 43, 32
2, 63383, Note_on_c, 0, 50, 0
2, 63399, Control_c, 0, 64, 127
2, 63420, Note_on_c, 0, 67, 0
2, 63423, Note_on_c, 0, 62, 0
2, 63431, Note_on_c, 0, 58, 0
2, 63465, Note_on_c, 0, 70, 49
2, 63474, Note_on_c, 0, 71, 47
2, 63490, Note_on_c, 0, 71, 0
2, 63502, Note_on_c, 0, 70, 0
2, 63546, Note_on_c, 0, 70, 69
2, 63550, Note_on_c, 0, 43, 0
2, 63626, Note_on_c, 0, 70, 0
2, 63626, Note_on_c, 0, 61, 64
2, 63627, Note_on_c, 0, 66, 71
2, 63690, Note_on_c, 0, 61, 0
2, 63696, Note_on_c, 0, 66, 0
2, 63713, Note_on_c, 0, 61, 57
2, 63714, Note_on_c, 0, 66, 60
2, 63716, Note_on_c, 0, 55, 46
2, 63716, Note_on_c, 0, 45, 45
2, 63720, Control_c, 0, 64, 0
2, 63764, Control_c, 0, 64, 127
2, 63802, Note_on_c, 0, 70, 63
2, 63850, Note_on_c, 0, 70, 0
2, 63894, Note_on_c, 0, 70, 45
2, 63902, Note_on_c, 0, 66, 0
2, 63914, Note_on_c, 0, 61, 0
2, 63914, Note_on_c, 0, 70, 0
2, 63915, Note_on_c, 0, 45, 0
2, 63921, Note_on_c, 0, 55, 0
2, 63982, Note_on_c, 0, 45, 38
2, 64008, Note_on_c, 0, 45, 0
2, 64074, Control_c, 0, 64, 0
2, 64076, Note_on_c, 0, 44, 34
2, 64108, Control_c, 0, 64, 127
2, 64162, Note_on_c, 0, 51, 44
2, 64176, Note_on_c, 0, 44, 0
2, 64181, Note_on_c, 0, 51, 0
2, 64248, Note_on_c, 0, 67, 52
2, 64250, Note_on_c, 0, 60, 37
2, 64253, Note_on_c, 0, 62, 30
2, 64291, Note_on_c, 0, 62, 0
2, 64320, Note_on_c, 0, 67, 0
2, 64330, Note_on_c, 0, 70, 77
2, 64381, Note_on_c, 0, 70, 0
2, 64417, Note_on_c, 0, 70, 69
2, 64480, Note_on_c, 0, 70, 0
2, 64526, Note_on_c, 0, 60, 0
2, 64687, Note_on_c, 0, 70, 53
2, 64688, Note_on_c, 0, 65, 44
2, 64691, Note_on_c, 0, 55, 36
2, 64706, Note_on_c, 0, 55, 0
2, 64709, Note_on_c, 0, 65, 0
2, 64754, Note_on_c, 0, 70, 0
2, 64790, Note_on_c, 0, 72, 39
2, 64791, Note_on_c, 0, 42, 37
2, 64791, Note_on_c, 0, 30, 37
2, 64792, Note_on_c, 0, 60, 37
2, 64795, Note_on_c, 0, 67, 38
2, 64796, Control_c, 0, 64, 0
2, 64816, Note_on_c, 0, 30, 0
2, 64821, Note_on_c, 0, 60, 0
2, 64822, Control_c, 0, 64, 127
2, 64827, Note_on_c, 0, 42, 0
2, 64830, Note_on_c, 0, 67, 0
2, 64831, Note_on_c, 0, 72, 0
2, 64884, Note_on_c, 0, 75, 59
2, 64885, Note_on_c, 0, 58, 52
2, 64886, Note_on_c, 0, 68, 48
2, 64887, Note_on_c, 0, 64, 55
2, 64890, Note_on_c, 0, 72, 28
2, 64900, Note_on_c, 0, 64, 0
2, 64906, Note_on_c, 0, 68, 0
2, 64910, Note_on_c, 0, 72, 0
2, 64916, Note_on_c, 0, 75, 0
2, 64974, Note_on_c, 0, 84, 72
2, 64974, Note_on_c, 0, 80, 55
2, 64975, Note_on_c, 0, 64, 44
2, 64976, Note_on_c, 0, 76, 62
2, 65051, Note_on_c, 0, 58, 0
2, 65062, Note_on_c, 0, 58, 19
2, 65066, Note_on_c, 0, 84, 0
2, 65072, Note_on_c, 0, 80, 0
2, 65080, Note_on_c, 0, 64, 0
2, 65080, Note_on_c, 0, 76, 0
2, 65157, Note_on_c, 0, 70, 77
2, 65215, Note_on_c, 0, 70, 0
2, 65248, Note_on_c, 0, 72, 94
2, 65308, Note_on_c, 0, 72, 0
2, 65331, Note_on_c, 0, 72, 64
2, 65342, Note_on_c, 0, 64, 27
2, 65377, Note_on_c, 0, 64, 0
2, 65387, Note_on_c, 0, 72, 0
2, 65398, Note_on_c, 0, 75, 62
2, 65442, Note_on_c, 0, 75, 0
2, 65462, Note_on_c, 0, 58, 0
2, 65462, Note_on_c, 0, 68, 33
2, 65508, Note_on_c, 0, 68, 0
2, 65518, Note_on_c, 0, 70, 46
2, 65583, Note_on_c, 0, 62, 35
2, 65586, Note_on_c, 0, 65, 49
2, 65586, Note_on_c, 0, 51, 42
2, 65603, Control_c, 0, 64, 0
2, 65641, Control_c, 0, 64, 127
2, 65672, Note_on_c, 0, 51, 0
2, 65697, Note_on_c, 0, 65, 0
2, 65702, Note_on_c, 0, 51, 38
2, 65712, Note_on_c, 0, 62, 0
2, 65729, Note_on_c, 0, 51, 0
2, 65793, Control_c, 0, 64, 0
2, 65800, Note_on_c, 0, 65, 44
2, 65801, Control_c, 0, 64, 127
2, 65801, Note_on_c, 0, 62, 35
2, 65802, Note_on_c, 0, 51, 35
2, 65824, Note_on_c, 0, 62, 0
2, 65830, Note_on_c, 0, 65, 0
2, 65842, Note_on_c, 0, 70, 0
2, 65909, Note_on_c, 0, 74, 66
2, 65909, Note_on_c, 0, 82, 58
2, 65914, Note_on_c, 0, 70, 48
2, 65922, Note_on_c, 0, 62, 18
2, 65936, Note_on_c, 0, 82, 0
2, 65940, Note_on_c, 0, 74, 0
2, 65948, Note_on_c, 0, 62, 0
2, 65957, Note_on_c, 0, 70, 0
2, 65981, Note_on_c, 0, 62, 24
2, 66004, Note_on_c, 0, 62, 0
2, 66033, Note_on_c, 0, 77, 57
2, 66034, Note_on_c, 0, 70, 46
2, 66040, Note_on_c, 0, 65, 34
2, 66040, Note_on_c, 0, 62, 35
2, 66058, Note_on_c, 0, 77, 0
2, 66065, Note_on_c, 0, 70, 0
2, 66072, Note_on_c, 0, 51, 0
2, 66076, Note_on_c, 0, 62, 0
2, 66080, Note_on_c, 0, 65, 0
2, 66086, Note_on_c, 0, 51, 33
2, 66122, Note_on_c, 0, 51, 0
2, 66151, Note_on_c, 0, 70, 39
2, 66152, Note_on_c, 0, 62, 36
2, 66154, Note_on_c, 0, 51, 35
2, 66154, Note_on_c, 0, 65, 49
2, 66168, Control_c, 0, 64, 0
2, 66192, Control_c, 0, 64, 127
2, 66254, Note_on_c, 0, 51, 0
2, 66275, Note_on_c, 0, 65, 0
2, 66277, Note_on_c, 0, 51, 35
2, 66290, Note_on_c, 0, 62, 0
2, 66348, Note_on_c, 0, 51, 0
2, 66369, Note_on_c, 0, 51, 42
2, 66378, Note_on_c, 0, 62, 20
2, 66387, Note_on_c, 0, 65, 19
2, 66407, Note_on_c, 0, 70, 0
2, 66410, Note_on_c, 0, 65, 0
2, 66418, Note_on_c, 0, 62, 0
2, 66436, Note_on_c, 0, 51, 0
2, 66474, Note_on_c, 0, 68, 47
2, 66474, Note_on_c, 0, 51, 42
2, 66476, Note_on_c, 0, 60, 44
2, 66477, Note_on_c, 0, 63, 34
2, 66514, Note_on_c, 0, 60, 0
2, 66524, Note_on_c, 0, 51, 0
2, 66556, Note_on_c, 0, 51, 44
2, 66581, Note_on_c, 0, 63, 0
2, 66591, Note_on_c, 0, 68, 0
2, 66594, Note_on_c, 0, 51, 0
2, 66658, Note_on_c, 0, 75, 69
2, 66659, Note_on_c, 0, 68, 68
2, 66660, Note_on_c, 0, 51, 43
2, 66701, Note_on_c, 0, 75, 0
2, 66705, Note_on_c, 0, 68, 0
2, 66708, Note_on_c, 0, 51, 0
2, 66827, Note_on_c, 0, 68, 46
2, 66831, Note_on_c, 0, 64, 26
2, 66836, Note_on_c, 0, 51, 18
2, 66852, Note_on_c, 0, 64, 0
2, 66867, Note_on_c, 0, 51, 0
2, 66898, Note_on_c, 0, 68, 0
2, 66910, Note_on_c, 0, 70, 46
2, 66911, Note_on_c, 0, 51, 45
2, 66912, Note_on_c, 0, 65, 48
2, 66914, Note_on_c, 0, 62, 32
2, 66922, Control_c, 0, 64, 0
2, 66956, Control_c, 0, 64, 127
2, 66989, Note_on_c, 0, 51, 0
2, 66999, Note_on_c, 0, 65, 0
2, 67005, Note_on_c, 0, 51, 54
2, 67024, Note_on_c, 0, 62, 0
2, 67032, Note_on_c, 0, 51, 0
2, 67099, Note_on_c, 0, 62, 41
2, 67100, Note_on_c, 0, 58, 25
2, 67102, Note_on_c, 0, 65, 38
2, 67105, Note_on_c, 0, 51, 37
2, 67170, Note_on_c, 0, 51, 0
2, 67185, Note_on_c, 0, 58, 0
2, 67232, Note_on_c, 0, 65, 0
2, 67241, Note_on_c, 0, 62, 0
2, 67286, Note_on_c, 0, 58, 31
2, 67288, Note_on_c, 0, 62, 37
2, 67289, Note_on_c, 0, 51, 29
2, 67291, Note_on_c, 0, 65, 34
2, 67382, Note_on_c, 0, 39, 37
2, 67433, Note_on_c, 0, 58, 0
2, 67458, Note_on_c, 0, 39, 0
2, 67508, Note_on_c, 0, 65, 0
2, 67530, Note_on_c, 0, 70, 0
2, 67548, Note_on_c, 0, 62, 0
2, 67555, Note_on_c, 0, 58, 1
2, 67563, Note_on_c, 0, 39, 30
2, 67575, Note_on_c, 0, 58, 0
2, 67603, Note_on_c, 0, 51, 0
2, 67663, Note_on_c, 0, 58, 32
2, 67663, Note_on_c, 0, 62, 37
2, 67665, Note_on_c, 0, 51, 25
2, 67668, Note_on_c, 0, 53, 15
2, 67677, Control_c, 0, 64, 0
2, 67707, Control_c, 0, 64, 127
2, 67746, Note_on_c, 0, 39, 0
2, 67765, Note_on_c, 0, 39, 30
2, 67774, Note_on_c, 0, 53, 0
2, 67838, Note_on_c, 0, 58, 0
2, 67845, Note_on_c, 0, 51, 0
2, 67864, Note_on_c, 0, 62, 0
2, 67871, Note_on_c, 0, 58, 21
2, 67876, Note_on_c, 0, 51, 19
2, 67876, Note_on_c, 0, 53, 20
2, 67922, Note_on_c, 0, 51, 0
2, 67934, Note_on_c, 0, 53, 0
2, 67953, Note_on_c, 0, 58, 0
2, 67979, Note_on_c, 0, 58, 67
2, 67980, Note_on_c, 0, 46, 37
2, 68002, Control_c, 0, 64, 0
2, 68020, Control_c, 0, 64, 127
2, 68072, Note_on_c, 0, 58, 0
2, 68083, Note_on_c, 0, 60, 66
2, 68086, Note_on_c, 0, 46, 0
2, 68086, Note_on_c, 0, 48, 38
2, 68096, Control_c, 0, 64, 0
2, 68100, Note_on_c, 0, 39, 0
2, 68126, Control_c, 0, 64, 127
2, 68184, Note_on_c, 0, 63, 67
2, 68187, Note_on_c, 0, 51, 46
2, 68195, Note_on_c, 0, 60, 0
2, 68203, Note_on_c, 0, 48, 0
2, 68278, Note_on_c, 0, 51, 0
2, 68280, Note_on_c, 0, 63, 0
2, 68297, Note_on_c, 0, 63, 49
2, 68298, Note_on_c, 0, 51, 39
2, 68393, Note_on_c, 0, 63, 0
2, 68396, Note_on_c, 0, 51, 0
2, 68402, Note_on_c, 0, 65, 55
2, 68406, Note_on_c, 0, 53, 34
2, 68416, Note_on_c, 0, 53, 0
2, 68541, Note_on_c, 0, 65, 0
2, 68562, Note_on_c, 0, 63, 45
2, 68563, Note_on_c, 0, 39, 36
2, 68564, Note_on_c, 0, 58, 36
2, 68565, Control_c, 0, 64, 0
2, 68601, Control_c, 0, 64, 127
2, 68624, Note_on_c, 0, 58, 0
2, 68636, Note_on_c, 0, 63, 0
2, 68640, Note_on_c, 0, 46, 38
2, 68642, Note_on_c, 0, 39, 0
2, 68688, Note_on_c, 0, 46, 0
2, 68712, Note_on_c, 0, 55, 34
2, 68712, Note_on_c, 0, 67, 39
2, 68762, Note_on_c, 0, 55, 0
2, 68785, Note_on_c, 0, 75, 58
2, 68793, Note_on_c, 0, 58, 21
2, 68814, Note_on_c, 0, 58, 0
2, 68863, Note_on_c, 0, 67, 0
2, 68879, Note_on_c, 0, 69, 47
2, 68884, Note_on_c, 0, 51, 23
2, 68898, Control_c, 0, 64, 0
2, 68942, Control_c, 0, 64, 127
2, 68953, Note_on_c, 0, 59, 36
2, 68998, Note_on_c, 0, 69, 0
2, 69025, Note_on_c, 0, 66, 36
2, 69047, Note_on_c, 0, 75, 0
2, 69085, Note_on_c, 0, 75, 57
2, 69116, Note_on_c, 0, 51, 0
2, 69204, Note_on_c, 0, 66, 0
2, 69210, Note_on_c, 0, 59, 0
2, 69210, Note_on_c, 0, 68, 54
2, 69212, Note_on_c, 0, 51, 38
2, 69235, Control_c, 0, 64, 0
2, 69289, Control_c, 0, 64, 127
2, 69296, Note_on_c, 0, 60, 36
2, 69317, Note_on_c, 0, 68, 0
2, 69388, Note_on_c, 0, 68, 42
2, 69398, Note_on_c, 0, 75, 0
2, 69466, Note_on_c, 0, 75, 46
2, 69487, Note_on_c, 0, 51, 0
2, 69547, Note_on_c, 0, 68, 0
2, 69548, Note_on_c, 0, 60, 0
2, 69551, Note_on_c, 0, 69, 53
2, 69556, Note_on_c, 0, 51, 30
2, 69584, Control_c, 0, 64, 0
2, 69636, Control_c, 0, 64, 127
2, 69649, Note_on_c, 0, 59, 31
2, 69670, Note_on_c, 0, 69, 0
2, 69741, Note_on_c, 0, 69, 47
2, 69788, Note_on_c, 0, 75, 0
2, 69838, Note_on_c, 0, 75, 39
2, 69855, Note_on_c, 0, 69, 0
2, 69886, Note_on_c, 0, 51, 0
2, 69926, Note_on_c, 0, 59, 0
2, 69927, Note_on_c, 0, 70, 42
2, 69928, Note_on_c, 0, 51, 33
2, 69937, Control_c, 0, 64, 0
2, 69967, Control_c, 0, 64, 127
2, 69988, Note_on_c, 0, 75, 0
2, 69991, Note_on_c, 0, 70, 0
2, 70010, Note_on_c, 0, 58, 29
2, 70094, Note_on_c, 0, 75, 47
2, 70108, Note_on_c, 0, 51, 0
2, 70172, Note_on_c, 0, 51, 32
2, 70173, Note_on_c, 0, 82, 56
2, 70218, Note_on_c, 0, 51, 0
2, 70237, Note_on_c, 0, 82, 0
2, 70239, Note_on_c, 0, 75, 0
2, 70240, Note_on_c, 0, 58, 0
2, 70254, Note_on_c, 0, 51, 27
2, 70259, Note_on_c, 0, 81, 44
2, 70260, Note_on_c, 0, 74, 44
2, 70261, Note_on_c, 0, 69, 22
2, 70264, Control_c, 0, 64, 0
2, 70290, Control_c, 0, 64, 127
2, 70311, Note_on_c, 0, 69, 0
2, 70323, Note_on_c, 0, 74, 0
2, 70333, Note_on_c, 0, 81, 0
2, 70354, Note_on_c, 0, 59, 6
2, 70416, Note_on_c, 0, 87, 61
2, 70425, Note_on_c, 0, 78, 48
2, 70427, Note_on_c, 0, 62, 35
2, 70447, Note_on_c, 0, 59, 0
2, 70513, Note_on_c, 0, 62, 0
2, 70562, Note_on_c, 0, 51, 0
2, 70567, Note_on_c, 0, 59, 1
2, 70593, Note_on_c, 0, 78, 0
2, 70600, Note_on_c, 0, 59, 0
2, 70602, Note_on_c, 0, 51, 35
2, 70617, Control_c, 0, 64, 0
2, 70645, Control_c, 0, 64, 127
2, 70688, Note_on_c, 0, 60, 35
2, 70828, Note_on_c, 0, 51, 0
2, 70868, Note_on_c, 0, 51, 33
2, 70874, Note_on_c, 0, 87, 0
2, 70932, Note_on_c, 0, 51, 0
2, 70957, Note_on_c, 0, 60, 0
2, 70966, Note_on_c, 0, 51, 39
2, 70980, Control_c, 0, 64, 0
2, 71010, Control_c, 0, 64, 127
2, 71071, Note_on_c, 0, 71, 43
2, 71072, Note_on_c, 0, 75, 36
2, 71072, Note_on_c, 0, 78, 34
2, 71077, Note_on_c, 0, 59, 30
2, 71172, Note_on_c, 0, 51, 0
2, 71174, Note_on_c, 0, 75, 0
2, 71184, Note_on_c, 0, 78, 0
2, 71196, Note_on_c, 0, 71, 0
2, 71241, Note_on_c, 0, 59, 0
2, 71304, Note_on_c, 0, 51, 33
2, 71335, Note_on_c, 0, 51, 0
2, 71646, Note_on_c, 0, 65, 44
2, 71653, Note_on_c, 0, 60, 51
2, 71654, Note_on_c, 0, 62, 38
2, 71656, Note_on_c, 0, 39, 31
2, 71656, Note_on_c, 0, 27, 35
2, 71658, Note_on_c, 0, 55, 33
2, 71676, Control_c, 0, 64, 0
2, 71780, Control_c, 0, 64, 127
2, 71843, Note_on_c, 0, 55, 0
2, 71855, Note_on_c, 0, 60, 0
2, 71870, Note_on_c, 0, 62, 0
2, 71871, Note_on_c, 0, 65, 0
2, 71872, Note_on_c, 0, 27, 0
2, 71880, Note_on_c, 0, 39, 0
2, 72260, Note_on_c, 0, 92, 31
2, 72268, Note_on_c, 0, 68, 23
2, 72342, Note_on_c, 0, 94, 42
2, 72348, Note_on_c, 0, 68, 0
2, 72351, Note_on_c, 0, 92, 0
2, 72352, Note_on_c, 0, 70, 25
2, 72409, Note_on_c, 0, 70, 0
2, 72414, Note_on_c, 0, 94, 0
2, 72421, Note_on_c, 0, 75, 35
2, 72422, Note_on_c, 0, 99, 48
2, 72478, Note_on_c, 0, 75, 0
2, 72487, Note_on_c, 0, 99, 0
2, 72516, Note_on_c, 0, 99, 40
2, 72516, Note_on_c, 0, 75, 34
2, 72568, Note_on_c, 0, 75, 0
2, 72581, Note_on_c, 0, 99, 0
2, 72628, Note_on_c, 0, 99, 35
2, 72629, Note_on_c, 0, 75, 26
2, 72679, Note_on_c, 0, 75, 0
2, 72689, Note_on_c, 0, 99, 0
2, 72746, Note_on_c, 0, 75, 25
2, 72747, Note_on_c, 0, 99, 31
2, 72806, Note_on_c, 0, 75, 0
2, 72816, Note_on_c, 0, 99, 0
2, 72875, Note_on_c, 0, 99, 28
2, 72877, Note_on_c, 0, 75, 18
2, 72936, Note_on_c, 0, 99, 0
2, 72937, Note_on_c, 0, 75, 0
2, 73278, Control_c, 0, 64, 0
2, 73278, End_track
3, 0, Start_track
3, 0, MIDI_port, 0
3, 0, End_track
0, 0, End_of_file
