0, 0, Header, 1, 2, 960
1, 0, Start_track
1, 0, Title_t, "Serenata"
1, 0, Text_t, "Leroy Anderson"
1, 0, Text_t, "dougmck@pipeline.com.au. Uses salsa/cuban/Brazilian type latin rhythms. LH plays a kind of latin stride. Song is played with a '2'  feel.\012"
1, 0, Time_signature, 4, 2, 24, 8
1, 0, Key_signature, -1, "major"
1, 0, Tempo, 750000
1, 0, Marker_t, "Rubato opening"
1, 48544, Marker_t, "Reharmonised melody"
1, 49616, Marker_t, "bm7,E7 Am7,D7 Gm11,C7"
1, 56444, Marker_t, "DbMaj7,DMaj7,EbMaj7, Gb7#11"
1, 69715, Marker_t, "Harmonised melody doubled with diminished flavoured voicing in between the Octave"
1, 91156, Marker_t, "Whole tone scale on G7#11 - keep pedal down!"
1, 103680, Marker_t, "Bbm7,Eb7 AbMaj7,DbMaj7 Gm7,C7 FMaj7 - all with F as top note in voicing"
1, 176640, Marker_t, "Intro figure used as interlude between choruses"
1, 372496, Marker_t, "Intro/interlude figure played as outro"
1, 372496, End_track
2, 0, Start_track
2, 0, Title_t, "Piano played in real time"
2, 0, Note_on_c, 0, 72, 47
2, 24, Note_on_c, 0, 48, 44
2, 85, Control_c, 0, 64, 127
2, 277, Note_on_c, 0, 48, 0
2, 362, Note_on_c, 0, 72, 0
2, 1291, Control_c, 0, 64, 0
2, 1311, Note_on_c, 0, 72, 62
2, 1341, Note_on_c, 0, 67, 45
2, 1350, Note_on_c, 0, 41, 51
2, 1354, Note_on_c, 0, 62, 31
2, 1740, Control_c, 0, 64, 127
2, 1784, Note_on_c, 0, 48, 55
2, 1867, Note_on_c, 0, 41, 0
2, 1924, Note_on_c, 0, 67, 0
2, 1990, Note_on_c, 0, 62, 0
2, 2303, Note_on_c, 0, 67, 44
2, 2305, Note_on_c, 0, 62, 50
2, 2326, Note_on_c, 0, 57, 45
2, 2782, Note_on_c, 0, 48, 0
2, 2890, Note_on_c, 0, 57, 0
2, 2964, Note_on_c, 0, 62, 0
2, 2966, Note_on_c, 0, 67, 0
2, 3331, Note_on_c, 0, 72, 0
2, 3372, Note_on_c, 0, 62, 44
2, 3375, Note_on_c, 0, 66, 35
2, 3384, Control_c, 0, 64, 0
2, 3410, Note_on_c, 0, 54, 27
2, 3423, Note_on_c, 0, 50, 26
2, 3704, Control_c, 0, 64, 127
2, 3876, Note_on_c, 0, 62, 0
2, 4113, Note_on_c, 0, 66, 0
2, 4232, Note_on_c, 0, 50, 0
2, 4313, Note_on_c, 0, 54, 0
2, 4363, Note_on_c, 0, 69, 101
2, 4587, Note_on_c, 0, 69, 0
2, 4666, Control_c, 0, 64, 0
2, 4689, Note_on_c, 0, 60, 47
2, 4694, Note_on_c, 0, 70, 91
2, 4703, Note_on_c, 0, 65, 73
2, 4711, Note_on_c, 0, 54, 53
2, 4886, Control_c, 0, 64, 127
2, 4915, Note_on_c, 0, 70, 0
2, 4993, Note_on_c, 0, 72, 83
2, 5025, Note_on_c, 0, 65, 0
2, 5039, Note_on_c, 0, 60, 0
2, 5191, Note_on_c, 0, 54, 0
2, 5205, Note_on_c, 0, 72, 0
2, 5243, Control_c, 0, 64, 0
2, 5295, Note_on_c, 0, 53, 40
2, 5296, Note_on_c, 0, 62, 62
2, 5306, Note_on_c, 0, 58, 49
2, 5307, Note_on_c, 0, 72, 84
2, 5313, Note_on_c, 0, 57, 44
2, 5467, Control_c, 0, 64, 127
2, 5608, Note_on_c, 0, 72, 0
2, 5630, Note_on_c, 0, 74, 73
2, 5643, Note_on_c, 0, 62, 0
2, 5647, Note_on_c, 0, 57, 0
2, 5702, Note_on_c, 0, 58, 0
2, 5706, Note_on_c, 0, 53, 0
2, 5808, Note_on_c, 0, 74, 0
2, 6010, Note_on_c, 0, 70, 73
2, 6017, Control_c, 0, 64, 0
2, 6046, Note_on_c, 0, 58, 37
2, 6147, Control_c, 0, 64, 127
2, 6264, Note_on_c, 0, 58, 0
2, 6558, Note_on_c, 0, 62, 44
2, 6568, Control_c, 0, 64, 0
2, 6575, Note_on_c, 0, 65, 42
2, 6605, Note_on_c, 0, 55, 32
2, 6618, Note_on_c, 0, 48, 36
2, 6634, Note_on_c, 0, 58, 21
2, 6813, Control_c, 0, 64, 127
2, 6878, Note_on_c, 0, 55, 0
2, 6909, Note_on_c, 0, 62, 0
2, 6939, Note_on_c, 0, 65, 0
2, 6941, Note_on_c, 0, 58, 0
2, 6942, Note_on_c, 0, 48, 0
2, 7324, Note_on_c, 0, 70, 0
2, 7403, Control_c, 0, 64, 0
2, 7422, Note_on_c, 0, 64, 45
2, 7443, Note_on_c, 0, 58, 25
2, 7459, Note_on_c, 0, 42, 32
2, 7484, Note_on_c, 0, 52, 27
2, 7635, Control_c, 0, 64, 127
2, 7665, Note_on_c, 0, 58, 0
2, 7668, Note_on_c, 0, 42, 0
2, 7679, Note_on_c, 0, 64, 0
2, 7711, Note_on_c, 0, 52, 0
2, 8248, Note_on_c, 0, 72, 51
2, 8259, Note_on_c, 0, 64, 46
2, 8268, Note_on_c, 0, 68, 51
2, 8289, Control_c, 0, 64, 0
2, 8301, Note_on_c, 0, 58, 40
2, 8442, Control_c, 0, 64, 127
2, 8927, Note_on_c, 0, 72, 0
2, 8967, Note_on_c, 0, 68, 0
2, 9076, Note_on_c, 0, 64, 0
2, 9159, Note_on_c, 0, 58, 0
2, 9480, Note_on_c, 0, 68, 42
2, 9717, Note_on_c, 0, 68, 0
2, 10194, Note_on_c, 0, 67, 41
2, 10215, Control_c, 0, 64, 0
2, 10216, Note_on_c, 0, 56, 25
2, 10217, Note_on_c, 0, 62, 36
2, 10227, Note_on_c, 0, 59, 41
2, 10240, Note_on_c, 0, 41, 31
2, 10268, Note_on_c, 0, 49, 25
2, 10843, Control_c, 0, 64, 127
2, 11028, Note_on_c, 0, 59, 0
2, 11034, Note_on_c, 0, 50, 59
2, 11057, Note_on_c, 0, 49, 0
2, 11109, Note_on_c, 0, 56, 0
2, 11149, Note_on_c, 0, 62, 0
2, 11537, Note_on_c, 0, 50, 0
2, 11640, Note_on_c, 0, 67, 0
2, 11698, Note_on_c, 0, 60, 43
2, 11701, Note_on_c, 0, 64, 43
2, 11702, Note_on_c, 0, 57, 49
2, 11711, Note_on_c, 0, 52, 45
2, 11717, Control_c, 0, 64, 0
2, 11726, Note_on_c, 0, 41, 0
2, 11946, Control_c, 0, 64, 127
2, 12101, Note_on_c, 0, 57, 0
2, 12128, Note_on_c, 0, 52, 0
2, 12165, Note_on_c, 0, 60, 0
2, 12273, Note_on_c, 0, 64, 0
2, 12623, Note_on_c, 0, 57, 54
2, 13083, Note_on_c, 0, 57, 0
2, 13256, Control_c, 0, 64, 0
2, 13259, Note_on_c, 0, 77, 78
2, 13263, Note_on_c, 0, 69, 78
2, 13263, Note_on_c, 0, 62, 65
2, 13272, Note_on_c, 0, 72, 68
2, 13396, Control_c, 0, 64, 127
2, 13663, Note_on_c, 0, 77, 0
2, 13716, Note_on_c, 0, 72, 0
2, 13724, Note_on_c, 0, 69, 0
2, 13782, Control_c, 0, 64, 0
2, 13831, Note_on_c, 0, 61, 71
2, 13832, Note_on_c, 0, 67, 54
2, 13833, Note_on_c, 0, 76, 64
2, 13842, Note_on_c, 0, 71, 57
2, 13843, Note_on_c, 0, 62, 0
2, 13965, Control_c, 0, 64, 127
2, 14092, Note_on_c, 0, 67, 0
2, 14138, Note_on_c, 0, 76, 0
2, 14168, Note_on_c, 0, 71, 0
2, 14268, Note_on_c, 0, 77, 75
2, 14272, Note_on_c, 0, 60, 44
2, 14280, Note_on_c, 0, 69, 58
2, 14281, Note_on_c, 0, 72, 63
2, 14310, Note_on_c, 0, 61, 0
2, 14427, Note_on_c, 0, 69, 0
2, 14479, Note_on_c, 0, 72, 0
2, 14501, Note_on_c, 0, 77, 0
2, 14527, Note_on_c, 0, 60, 0
2, 14710, Note_on_c, 0, 79, 71
2, 14724, Note_on_c, 0, 71, 68
2, 14728, Note_on_c, 0, 74, 71
2, 14739, Note_on_c, 0, 64, 53
2, 14744, Note_on_c, 0, 53, 44
2, 14744, Note_on_c, 0, 59, 55
2, 14749, Control_c, 0, 64, 0
2, 14900, Control_c, 0, 64, 127
2, 15118, Note_on_c, 0, 79, 0
2, 15347, Note_on_c, 0, 81, 79
2, 15562, Note_on_c, 0, 81, 0
2, 15604, Note_on_c, 0, 74, 0
2, 15692, Note_on_c, 0, 71, 0
2, 15803, Note_on_c, 0, 64, 0
2, 15819, Note_on_c, 0, 53, 0
2, 15825, Note_on_c, 0, 59, 0
2, 16060, Note_on_c, 0, 76, 64
2, 16077, Note_on_c, 0, 71, 54
2, 16088, Note_on_c, 0, 68, 42
2, 16093, Control_c, 0, 64, 0
2, 16107, Note_on_c, 0, 65, 40
2, 16122, Note_on_c, 0, 64, 36
2, 16453, Control_c, 0, 64, 127
2, 16540, Note_on_c, 0, 63, 55
2, 16556, Note_on_c, 0, 64, 0
2, 16625, Note_on_c, 0, 63, 0
2, 17160, Control_c, 0, 64, 0
2, 17175, Note_on_c, 0, 56, 18
2, 17494, Control_c, 0, 64, 127
2, 17867, Note_on_c, 0, 44, 42
2, 17943, Note_on_c, 0, 56, 0
2, 18033, Control_c, 0, 64, 0
2, 18122, Control_c, 0, 64, 127
2, 18456, Note_on_c, 0, 76, 0
2, 18531, Note_on_c, 0, 71, 0
2, 18538, Note_on_c, 0, 65, 0
2, 18565, Note_on_c, 0, 68, 0
2, 19108, Note_on_c, 0, 67, 67
2, 19123, Control_c, 0, 64, 0
2, 19126, Note_on_c, 0, 56, 58
2, 19131, Note_on_c, 0, 59, 53
2, 19145, Note_on_c, 0, 62, 49
2, 19162, Note_on_c, 0, 55, 54
2, 19368, Control_c, 0, 64, 127
2, 19679, Note_on_c, 0, 55, 0
2, 19695, Note_on_c, 0, 67, 0
2, 19708, Note_on_c, 0, 59, 0
2, 19708, Note_on_c, 0, 56, 0
2, 19764, Note_on_c, 0, 62, 0
2, 19828, Control_c, 0, 64, 0
2, 19830, Note_on_c, 0, 56, 46
2, 19841, Note_on_c, 0, 65, 51
2, 19849, Note_on_c, 0, 62, 32
2, 19857, Note_on_c, 0, 53, 48
2, 19861, Note_on_c, 0, 59, 32
2, 19997, Control_c, 0, 64, 127
2, 20115, Note_on_c, 0, 65, 0
2, 20136, Note_on_c, 0, 53, 0
2, 20364, Note_on_c, 0, 64, 58
2, 20380, Note_on_c, 0, 52, 33
2, 20394, Note_on_c, 0, 62, 0
2, 20486, Note_on_c, 0, 59, 0
2, 20499, Note_on_c, 0, 56, 0
2, 20508, Note_on_c, 0, 64, 0
2, 20511, Note_on_c, 0, 52, 0
2, 20814, Note_on_c, 0, 44, 0
2, 21093, Note_on_c, 0, 62, 61
2, 21116, Note_on_c, 0, 53, 47
2, 21119, Note_on_c, 0, 58, 55
2, 21124, Note_on_c, 0, 55, 49
2, 21131, Note_on_c, 0, 43, 39
2, 21135, Note_on_c, 0, 50, 35
2, 21140, Control_c, 0, 64, 0
2, 21317, Control_c, 0, 64, 127
2, 21343, Note_on_c, 0, 62, 0
2, 21347, Note_on_c, 0, 55, 0
2, 21385, Note_on_c, 0, 58, 0
2, 21446, Note_on_c, 0, 50, 0
2, 21491, Note_on_c, 0, 53, 0
2, 21653, Note_on_c, 0, 58, 72
2, 21654, Note_on_c, 0, 65, 66
2, 21661, Note_on_c, 0, 55, 68
2, 21667, Note_on_c, 0, 62, 66
2, 21670, Note_on_c, 0, 53, 67
2, 21720, Note_on_c, 0, 43, 0
2, 21782, Note_on_c, 0, 55, 0
2, 21822, Note_on_c, 0, 58, 0
2, 21824, Note_on_c, 0, 62, 0
2, 21844, Note_on_c, 0, 65, 0
2, 21899, Note_on_c, 0, 53, 0
2, 22113, Control_c, 0, 64, 0
2, 22127, Note_on_c, 0, 62, 76
2, 22132, Note_on_c, 0, 58, 72
2, 22139, Note_on_c, 0, 69, 58
2, 22145, Note_on_c, 0, 65, 62
2, 22157, Note_on_c, 0, 57, 54
2, 22190, Control_c, 0, 64, 127
2, 22211, Note_on_c, 0, 58, 0
2, 22235, Note_on_c, 0, 62, 0
2, 22267, Note_on_c, 0, 65, 0
2, 22299, Note_on_c, 0, 69, 0
2, 22300, Note_on_c, 0, 57, 0
2, 22609, Note_on_c, 0, 62, 65
2, 22615, Note_on_c, 0, 74, 71
2, 22634, Note_on_c, 0, 70, 72
2, 22641, Note_on_c, 0, 65, 71
2, 22645, Note_on_c, 0, 67, 65
2, 22717, Note_on_c, 0, 62, 0
2, 22882, Note_on_c, 0, 67, 0
2, 22906, Note_on_c, 0, 74, 0
2, 22939, Note_on_c, 0, 70, 0
2, 22952, Note_on_c, 0, 65, 0
2, 23264, Note_on_c, 0, 72, 50
2, 23268, Control_c, 0, 64, 0
2, 23271, Note_on_c, 0, 48, 33
2, 23272, Note_on_c, 0, 65, 49
2, 23273, Note_on_c, 0, 69, 55
2, 23274, Note_on_c, 0, 62, 59
2, 23283, Note_on_c, 0, 58, 45
2, 23540, Control_c, 0, 64, 127
2, 23657, Note_on_c, 0, 72, 0
2, 23713, Note_on_c, 0, 69, 0
2, 23719, Note_on_c, 0, 65, 0
2, 23736, Note_on_c, 0, 62, 0
2, 23877, Note_on_c, 0, 55, 45
2, 23880, Note_on_c, 0, 74, 68
2, 23979, Note_on_c, 0, 58, 0
2, 24008, Note_on_c, 0, 48, 0
2, 24095, Note_on_c, 0, 55, 0
2, 24554, Control_c, 0, 64, 0
2, 24557, Note_on_c, 0, 68, 52
2, 24562, Note_on_c, 0, 64, 42
2, 24598, Note_on_c, 0, 58, 50
2, 24733, Control_c, 0, 64, 127
2, 24774, Note_on_c, 0, 74, 0
2, 24878, Note_on_c, 0, 68, 0
2, 24977, Note_on_c, 0, 64, 0
2, 25001, Note_on_c, 0, 58, 0
2, 25227, Note_on_c, 0, 58, 53
2, 25229, Note_on_c, 0, 62, 51
2, 25230, Note_on_c, 0, 67, 54
2, 25236, Note_on_c, 0, 70, 46
2, 25272, Control_c, 0, 64, 0
2, 25338, Control_c, 0, 64, 127
2, 25381, Note_on_c, 0, 58, 0
2, 25478, Note_on_c, 0, 67, 0
2, 25533, Note_on_c, 0, 62, 0
2, 25560, Note_on_c, 0, 70, 0
2, 25989, Note_on_c, 0, 69, 49
2, 25996, Note_on_c, 0, 61, 37
2, 26004, Control_c, 0, 64, 0
2, 26006, Note_on_c, 0, 64, 42
2, 26011, Note_on_c, 0, 41, 32
2, 26016, Note_on_c, 0, 57, 24
2, 26038, Note_on_c, 0, 49, 29
2, 26249, Control_c, 0, 64, 127
2, 26543, Control_c, 0, 64, 0
2, 26565, Note_on_c, 0, 52, 49
2, 26686, Control_c, 0, 64, 127
2, 26966, Note_on_c, 0, 52, 0
2, 26975, Note_on_c, 0, 57, 0
2, 27048, Note_on_c, 0, 64, 0
2, 27075, Note_on_c, 0, 61, 0
2, 27084, Control_c, 0, 64, 0
2, 27112, Note_on_c, 0, 57, 47
2, 27115, Note_on_c, 0, 62, 57
2, 27132, Note_on_c, 0, 50, 45
2, 27137, Note_on_c, 0, 49, 0
2, 27263, Control_c, 0, 64, 127
2, 27458, Note_on_c, 0, 41, 0
2, 27541, Note_on_c, 0, 57, 0
2, 27615, Note_on_c, 0, 50, 0
2, 27627, Note_on_c, 0, 62, 0
2, 27638, Note_on_c, 0, 69, 0
2, 27747, Note_on_c, 0, 40, 60
2, 27750, Control_c, 0, 64, 0
2, 27878, Control_c, 0, 64, 127
2, 28328, Control_c, 0, 64, 0
2, 28369, Note_on_c, 0, 47, 32
2, 28372, Note_on_c, 0, 69, 60
2, 28376, Note_on_c, 0, 55, 49
2, 28376, Note_on_c, 0, 62, 68
2, 28378, Note_on_c, 0, 66, 50
2, 28392, Note_on_c, 0, 59, 53
2, 28459, Control_c, 0, 64, 127
2, 28729, Note_on_c, 0, 69, 0
2, 28730, Note_on_c, 0, 59, 0
2, 28785, Note_on_c, 0, 62, 0
2, 28842, Note_on_c, 0, 66, 0
2, 29014, Note_on_c, 0, 71, 92
2, 29047, Note_on_c, 0, 40, 0
2, 29086, Note_on_c, 0, 47, 0
2, 29253, Note_on_c, 0, 55, 0
2, 29395, Note_on_c, 0, 71, 0
2, 29807, Note_on_c, 0, 71, 32
2, 29832, Control_c, 0, 64, 0
2, 29837, Note_on_c, 0, 63, 48
2, 29859, Note_on_c, 0, 55, 41
2, 29864, Note_on_c, 0, 67, 50
2, 29865, Note_on_c, 0, 61, 46
2, 29900, Note_on_c, 0, 45, 35
2, 29937, Note_on_c, 0, 64, 51
2, 29984, Note_on_c, 0, 63, 0
2, 30449, Control_c, 0, 64, 127
2, 30666, Note_on_c, 0, 67, 0
2, 30975, Note_on_c, 0, 67, 55
2, 31265, Note_on_c, 0, 71, 0
2, 31288, Note_on_c, 0, 45, 0
2, 31377, Note_on_c, 0, 67, 0
2, 31385, Note_on_c, 0, 64, 0
2, 31425, Note_on_c, 0, 55, 0
2, 31426, Note_on_c, 0, 61, 0
2, 31874, Control_c, 0, 64, 0
2, 31912, Note_on_c, 0, 61, 48
2, 31915, Note_on_c, 0, 66, 42
2, 31922, Note_on_c, 0, 57, 26
2, 31933, Note_on_c, 0, 50, 40
2, 32052, Control_c, 0, 64, 127
2, 32061, Note_on_c, 0, 57, 0
2, 32106, Note_on_c, 0, 61, 0
2, 32150, Note_on_c, 0, 66, 0
2, 32558, Note_on_c, 0, 81, 88
2, 32584, Note_on_c, 0, 57, 39
2, 32704, Note_on_c, 0, 50, 0
2, 32909, Note_on_c, 0, 81, 0
2, 33144, Note_on_c, 0, 78, 67
2, 33165, Note_on_c, 0, 73, 56
2, 33178, Note_on_c, 0, 66, 43
2, 33186, Note_on_c, 0, 69, 58
2, 33259, Note_on_c, 0, 73, 0
2, 33267, Note_on_c, 0, 69, 0
2, 33279, Note_on_c, 0, 78, 0
2, 33375, Note_on_c, 0, 66, 0
2, 33553, Note_on_c, 0, 57, 0
2, 33843, Note_on_c, 0, 73, 35
2, 33848, Note_on_c, 0, 57, 24
2, 33862, Note_on_c, 0, 69, 50
2, 33880, Note_on_c, 0, 66, 25
2, 33946, Note_on_c, 0, 57, 0
2, 34081, Note_on_c, 0, 69, 0
2, 34135, Note_on_c, 0, 73, 0
2, 34152, Note_on_c, 0, 66, 0
2, 34580, Control_c, 0, 64, 0
2, 34646, Note_on_c, 0, 77, 58
2, 34647, Note_on_c, 0, 38, 38
2, 34658, Note_on_c, 0, 72, 54
2, 34670, Note_on_c, 0, 66, 40
2, 34699, Note_on_c, 0, 50, 14
2, 34798, Control_c, 0, 64, 127
2, 34904, Note_on_c, 0, 38, 0
2, 34971, Note_on_c, 0, 50, 0
2, 35166, Note_on_c, 0, 66, 0
2, 35578, Note_on_c, 0, 72, 0
2, 35596, Note_on_c, 0, 54, 33
2, 35604, Note_on_c, 0, 60, 22
2, 35626, Note_on_c, 0, 65, 24
2, 35987, Note_on_c, 0, 77, 0
2, 36046, Note_on_c, 0, 60, 0
2, 36147, Note_on_c, 0, 65, 0
2, 36173, Note_on_c, 0, 54, 0
2, 37234, Note_on_c, 0, 79, 30
2, 37380, Note_on_c, 0, 80, 69
2, 37398, Note_on_c, 0, 79, 0
2, 37502, Note_on_c, 0, 80, 0
2, 37578, Note_on_c, 0, 81, 87
2, 37581, Note_on_c, 0, 80, 51
2, 37585, Note_on_c, 0, 60, 42
2, 37586, Note_on_c, 0, 65, 63
2, 37600, Note_on_c, 0, 54, 46
2, 37622, Control_c, 0, 64, 0
2, 37654, Note_on_c, 0, 80, 0
2, 38199, Control_c, 0, 64, 127
2, 38982, Note_on_c, 0, 81, 0
2, 39081, Note_on_c, 0, 79, 55
2, 39574, Note_on_c, 0, 65, 0
2, 39706, Note_on_c, 0, 60, 0
2, 39922, Note_on_c, 0, 54, 0
2, 39958, Note_on_c, 0, 79, 0
2, 40035, Note_on_c, 0, 73, 53
2, 40038, Note_on_c, 0, 43, 36
2, 40045, Control_c, 0, 64, 0
2, 40058, Note_on_c, 0, 61, 40
2, 40065, Note_on_c, 0, 65, 49
2, 40354, Control_c, 0, 64, 127
2, 40377, Note_on_c, 0, 43, 0
2, 40450, Note_on_c, 0, 55, 38
2, 40763, Note_on_c, 0, 55, 0
2, 40819, Note_on_c, 0, 65, 0
2, 40834, Note_on_c, 0, 58, 56
2, 40877, Note_on_c, 0, 61, 0
2, 41262, Note_on_c, 0, 60, 39
2, 41598, Note_on_c, 0, 60, 0
2, 41699, Note_on_c, 0, 61, 50
2, 41723, Note_on_c, 0, 65, 50
2, 41987, Note_on_c, 0, 61, 0
2, 42092, Note_on_c, 0, 65, 0
2, 42137, Note_on_c, 0, 61, 56
2, 42195, Note_on_c, 0, 58, 0
2, 42613, Note_on_c, 0, 65, 50
2, 42982, Note_on_c, 0, 65, 0
2, 43096, Note_on_c, 0, 63, 45
2, 43288, Note_on_c, 0, 61, 0
2, 43425, Note_on_c, 0, 63, 0
2, 43531, Note_on_c, 0, 73, 0
2, 43711, Note_on_c, 0, 72, 44
2, 43715, Note_on_c, 0, 64, 28
2, 43725, Note_on_c, 0, 68, 31
2, 43806, Control_c, 0, 64, 0
2, 43998, Control_c, 0, 64, 127
2, 44100, Control_c, 0, 64, 0
2, 44244, Note_on_c, 0, 48, 41
2, 44345, Control_c, 0, 64, 127
2, 44436, Note_on_c, 0, 68, 0
2, 44440, Note_on_c, 0, 72, 0
2, 44499, Note_on_c, 0, 64, 0
2, 44923, Note_on_c, 0, 64, 36
2, 44926, Note_on_c, 0, 61, 26
2, 44936, Note_on_c, 0, 58, 30
2, 45105, Note_on_c, 0, 64, 0
2, 45280, Note_on_c, 0, 61, 0
2, 45483, Note_on_c, 0, 75, 69
2, 45775, Note_on_c, 0, 58, 0
2, 45795, Note_on_c, 0, 75, 0
2, 46238, Note_on_c, 0, 75, 42
2, 46284, Note_on_c, 0, 70, 40
2, 46289, Note_on_c, 0, 64, 35
2, 46317, Note_on_c, 0, 58, 34
2, 46322, Control_c, 0, 64, 0
2, 46552, Control_c, 0, 64, 127
2, 47069, Note_on_c, 0, 73, 43
2, 47462, Note_on_c, 0, 75, 0
2, 47489, Note_on_c, 0, 64, 0
2, 47521, Note_on_c, 0, 73, 0
2, 47601, Note_on_c, 0, 70, 0
2, 47792, Note_on_c, 0, 72, 51
2, 47888, Note_on_c, 0, 58, 0
2, 48291, Note_on_c, 0, 72, 0
2, 48456, Note_on_c, 0, 48, 0
2, 48628, Note_on_c, 0, 60, 55
2, 48816, Note_on_c, 0, 60, 0
2, 49146, Control_c, 0, 64, 0
2, 49208, Control_c, 0, 64, 127
2, 49209, Note_on_c, 0, 72, 103
2, 49672, Control_c, 0, 64, 0
2, 49716, Note_on_c, 0, 62, 64
2, 49722, Note_on_c, 0, 47, 39
2, 49725, Note_on_c, 0, 57, 36
2, 49726, Note_on_c, 0, 67, 53
2, 49863, Control_c, 0, 64, 127
2, 50097, Note_on_c, 0, 57, 0
2, 50112, Note_on_c, 0, 67, 0
2, 50168, Note_on_c, 0, 62, 0
2, 50376, Control_c, 0, 64, 0
2, 50387, Note_on_c, 0, 66, 50
2, 50391, Note_on_c, 0, 62, 50
2, 50412, Note_on_c, 0, 56, 42
2, 50594, Control_c, 0, 64, 127
2, 50854, Note_on_c, 0, 56, 0
2, 50873, Note_on_c, 0, 47, 0
2, 50896, Note_on_c, 0, 62, 0
2, 51032, Note_on_c, 0, 66, 0
2, 51261, Note_on_c, 0, 72, 0
2, 51498, Note_on_c, 0, 60, 32
2, 51501, Note_on_c, 0, 65, 52
2, 51528, Note_on_c, 0, 72, 35
2, 51530, Note_on_c, 0, 55, 42
2, 51533, Control_c, 0, 64, 0
2, 51542, Note_on_c, 0, 45, 36
2, 51750, Control_c, 0, 64, 127
2, 51920, Note_on_c, 0, 65, 0
2, 51938, Note_on_c, 0, 55, 0
2, 52039, Note_on_c, 0, 60, 0
2, 52289, Note_on_c, 0, 64, 47
2, 52305, Note_on_c, 0, 60, 34
2, 52315, Control_c, 0, 64, 0
2, 52376, Note_on_c, 0, 54, 14
2, 52468, Control_c, 0, 64, 127
2, 52552, Note_on_c, 0, 60, 0
2, 52653, Note_on_c, 0, 45, 0
2, 52678, Note_on_c, 0, 54, 0
2, 52749, Note_on_c, 0, 64, 0
2, 52931, Note_on_c, 0, 72, 0
2, 53226, Control_c, 0, 64, 0
2, 53278, Note_on_c, 0, 43, 31
2, 53301, Note_on_c, 0, 65, 36
2, 53304, Note_on_c, 0, 58, 26
2, 53331, Note_on_c, 0, 53, 22
2, 53520, Control_c, 0, 64, 127
2, 53622, Note_on_c, 0, 58, 0
2, 53729, Note_on_c, 0, 65, 0
2, 53806, Note_on_c, 0, 43, 0
2, 53899, Note_on_c, 0, 53, 0
2, 54343, Note_on_c, 0, 69, 46
2, 54355, Control_c, 0, 64, 0
2, 54367, Note_on_c, 0, 57, 35
2, 54390, Note_on_c, 0, 81, 65
2, 54483, Control_c, 0, 64, 127
2, 54651, Note_on_c, 0, 69, 0
2, 54678, Note_on_c, 0, 81, 0
2, 54703, Note_on_c, 0, 57, 0
2, 54957, Note_on_c, 0, 70, 29
2, 54991, Note_on_c, 0, 58, 28
2, 54997, Note_on_c, 0, 82, 61
2, 55263, Note_on_c, 0, 82, 0
2, 55283, Note_on_c, 0, 70, 0
2, 55706, Note_on_c, 0, 72, 43
2, 55713, Note_on_c, 0, 60, 24
2, 55722, Note_on_c, 0, 84, 52
2, 55816, Note_on_c, 0, 58, 0
2, 55853, Note_on_c, 0, 60, 0
2, 55871, Note_on_c, 0, 84, 0
2, 56019, Note_on_c, 0, 72, 0
2, 56627, Control_c, 0, 64, 0
2, 56644, Note_on_c, 0, 72, 65
2, 56684, Note_on_c, 0, 65, 67
2, 56696, Note_on_c, 0, 49, 37
2, 56712, Note_on_c, 0, 60, 44
2, 56715, Note_on_c, 0, 71, 31
2, 56733, Note_on_c, 0, 56, 35
2, 56819, Control_c, 0, 64, 127
2, 57215, Note_on_c, 0, 65, 0
2, 57236, Note_on_c, 0, 60, 0
2, 57336, Note_on_c, 0, 72, 0
2, 57339, Note_on_c, 0, 71, 0
2, 57371, Note_on_c, 0, 49, 0
2, 57411, Note_on_c, 0, 56, 0
2, 57700, Note_on_c, 0, 74, 58
2, 57705, Control_c, 0, 64, 0
2, 57720, Note_on_c, 0, 50, 45
2, 57740, Note_on_c, 0, 66, 46
2, 57752, Note_on_c, 0, 62, 41
2, 57755, Note_on_c, 0, 57, 29
2, 57935, Control_c, 0, 64, 127
2, 58037, Note_on_c, 0, 50, 0
2, 58103, Note_on_c, 0, 74, 0
2, 58104, Note_on_c, 0, 57, 0
2, 58123, Note_on_c, 0, 62, 0
2, 58175, Note_on_c, 0, 66, 0
2, 58687, Note_on_c, 0, 62, 46
2, 58693, Control_c, 0, 64, 0
2, 58696, Note_on_c, 0, 70, 46
2, 58698, Note_on_c, 0, 67, 40
2, 58705, Note_on_c, 0, 51, 37
2, 58710, Note_on_c, 0, 58, 33
2, 58974, Control_c, 0, 64, 127
2, 59347, Note_on_c, 0, 62, 0
2, 59695, Note_on_c, 0, 60, 35
2, 60049, Note_on_c, 0, 67, 0
2, 60098, Note_on_c, 0, 51, 0
2, 60235, Note_on_c, 0, 60, 0
2, 60457, Note_on_c, 0, 58, 0
2, 60723, Note_on_c, 0, 70, 0
2, 61265, Note_on_c, 0, 75, 64
2, 61285, Control_c, 0, 64, 0
2, 61315, Note_on_c, 0, 72, 58
2, 61321, Note_on_c, 0, 68, 53
2, 61347, Note_on_c, 0, 52, 38
2, 61355, Note_on_c, 0, 64, 36
2, 61683, Control_c, 0, 64, 127
2, 61851, Note_on_c, 0, 52, 0
2, 61887, Note_on_c, 0, 64, 0
2, 61906, Note_on_c, 0, 58, 40
2, 62109, Note_on_c, 0, 68, 0
2, 62145, Note_on_c, 0, 72, 0
2, 62421, Note_on_c, 0, 75, 0
2, 62481, Note_on_c, 0, 68, 53
2, 62493, Note_on_c, 0, 64, 38
2, 62512, Note_on_c, 0, 72, 26
2, 62591, Note_on_c, 0, 72, 0
2, 62888, Note_on_c, 0, 68, 0
2, 63021, Note_on_c, 0, 72, 88
2, 63070, Note_on_c, 0, 64, 0
2, 63105, Note_on_c, 0, 58, 0
2, 63373, Note_on_c, 0, 72, 0
2, 63644, Note_on_c, 0, 72, 68
2, 63646, Control_c, 0, 64, 0
2, 63661, Note_on_c, 0, 58, 51
2, 63664, Note_on_c, 0, 68, 56
2, 63666, Note_on_c, 0, 64, 54
2, 63852, Control_c, 0, 64, 127
2, 63998, Note_on_c, 0, 72, 0
2, 64028, Note_on_c, 0, 68, 0
2, 64275, Note_on_c, 0, 64, 0
2, 64433, Note_on_c, 0, 58, 0
2, 64449, Note_on_c, 0, 68, 79
2, 64740, Note_on_c, 0, 68, 0
2, 65755, Note_on_c, 0, 67, 48
2, 65764, Control_c, 0, 64, 0
2, 65768, Note_on_c, 0, 62, 47
2, 65774, Note_on_c, 0, 41, 36
2, 65775, Note_on_c, 0, 59, 40
2, 65782, Note_on_c, 0, 56, 25
2, 65796, Note_on_c, 0, 49, 32
2, 66083, Control_c, 0, 64, 127
2, 66439, Note_on_c, 0, 50, 54
2, 66462, Note_on_c, 0, 59, 0
2, 66500, Note_on_c, 0, 49, 0
2, 66538, Note_on_c, 0, 56, 0
2, 66675, Note_on_c, 0, 62, 0
2, 66887, Note_on_c, 0, 50, 0
2, 66995, Control_c, 0, 64, 0
2, 67027, Note_on_c, 0, 57, 51
2, 67029, Note_on_c, 0, 60, 39
2, 67047, Note_on_c, 0, 52, 57
2, 67293, Note_on_c, 0, 41, 0
2, 67567, Note_on_c, 0, 52, 0
2, 67595, Note_on_c, 0, 51, 71
2, 67640, Note_on_c, 0, 60, 0
2, 67667, Note_on_c, 0, 57, 0
2, 67764, Control_c, 0, 64, 127
2, 67839, Note_on_c, 0, 67, 0
2, 68098, Control_c, 0, 64, 0
2, 68157, Note_on_c, 0, 51, 0
2, 68178, Note_on_c, 0, 60, 46
2, 68182, Note_on_c, 0, 50, 52
2, 68184, Note_on_c, 0, 57, 51
2, 68185, Note_on_c, 0, 65, 59
2, 68445, Control_c, 0, 64, 127
2, 68998, Note_on_c, 0, 60, 0
2, 69010, Note_on_c, 0, 65, 0
2, 69021, Note_on_c, 0, 38, 56
2, 69052, Note_on_c, 0, 57, 0
2, 69120, Note_on_c, 0, 50, 0
2, 69181, Note_on_c, 0, 38, 0
2, 69844, Control_c, 0, 64, 0
2, 69859, Note_on_c, 0, 77, 80
2, 69859, Note_on_c, 0, 69, 81
2, 69864, Note_on_c, 0, 72, 74
2, 69868, Note_on_c, 0, 66, 79
2, 69875, Note_on_c, 0, 65, 84
2, 69881, Note_on_c, 0, 75, 57
2, 70023, Control_c, 0, 64, 127
2, 70198, Note_on_c, 0, 77, 0
2, 70218, Note_on_c, 0, 69, 0
2, 70248, Note_on_c, 0, 72, 0
2, 70262, Note_on_c, 0, 75, 0
2, 70287, Note_on_c, 0, 66, 0
2, 70311, Note_on_c, 0, 65, 0
2, 70395, Control_c, 0, 64, 0
2, 70426, Note_on_c, 0, 76, 79
2, 70427, Note_on_c, 0, 71, 70
2, 70429, Note_on_c, 0, 68, 70
2, 70430, Note_on_c, 0, 65, 71
2, 70433, Note_on_c, 0, 64, 74
2, 70536, Control_c, 0, 64, 127
2, 70631, Note_on_c, 0, 65, 0
2, 70638, Note_on_c, 0, 76, 0
2, 70641, Note_on_c, 0, 71, 0
2, 70694, Note_on_c, 0, 68, 0
2, 70819, Control_c, 0, 64, 0
2, 70896, Note_on_c, 0, 77, 71
2, 70904, Note_on_c, 0, 66, 76
2, 70907, Note_on_c, 0, 69, 78
2, 70910, Note_on_c, 0, 72, 72
2, 70919, Note_on_c, 0, 65, 89
2, 70922, Note_on_c, 0, 75, 55
2, 70971, Note_on_c, 0, 64, 0
2, 70975, Control_c, 0, 64, 127
2, 71052, Note_on_c, 0, 69, 0
2, 71082, Note_on_c, 0, 72, 0
2, 71101, Note_on_c, 0, 77, 0
2, 71115, Note_on_c, 0, 66, 0
2, 71130, Note_on_c, 0, 75, 0
2, 71299, Note_on_c, 0, 65, 0
2, 71373, Control_c, 0, 64, 0
2, 71427, Note_on_c, 0, 68, 81
2, 71427, Note_on_c, 0, 74, 74
2, 71430, Note_on_c, 0, 71, 80
2, 71431, Note_on_c, 0, 79, 74
2, 71440, Note_on_c, 0, 67, 87
2, 71554, Control_c, 0, 64, 127
2, 71646, Note_on_c, 0, 74, 0
2, 71658, Note_on_c, 0, 71, 0
2, 71660, Note_on_c, 0, 68, 0
2, 71667, Note_on_c, 0, 79, 0
2, 71815, Note_on_c, 0, 67, 0
2, 71940, Control_c, 0, 64, 0
2, 71979, Note_on_c, 0, 81, 70
2, 71980, Note_on_c, 0, 71, 63
2, 71981, Note_on_c, 0, 74, 66
2, 71985, Note_on_c, 0, 69, 74
2, 71985, Note_on_c, 0, 77, 66
2, 72093, Control_c, 0, 64, 127
2, 72211, Note_on_c, 0, 69, 0
2, 72216, Note_on_c, 0, 77, 0
2, 72217, Note_on_c, 0, 81, 0
2, 72242, Note_on_c, 0, 74, 0
2, 72321, Note_on_c, 0, 71, 0
2, 72618, Note_on_c, 0, 71, 41
2, 72620, Note_on_c, 0, 76, 50
2, 72626, Note_on_c, 0, 68, 43
2, 72632, Control_c, 0, 64, 0
2, 72633, Note_on_c, 0, 65, 38
2, 72644, Note_on_c, 0, 64, 49
2, 72836, Control_c, 0, 64, 127
2, 73341, Note_on_c, 0, 64, 0
2, 73396, Note_on_c, 0, 56, 60
2, 73403, Control_c, 0, 64, 0
2, 73594, Control_c, 0, 64, 127
2, 73882, Note_on_c, 0, 65, 0
2, 73898, Note_on_c, 0, 68, 0
2, 74186, Note_on_c, 0, 71, 0
2, 74219, Note_on_c, 0, 62, 38
2, 74221, Note_on_c, 0, 68, 42
2, 74234, Note_on_c, 0, 65, 40
2, 74235, Note_on_c, 0, 76, 0
2, 74485, Note_on_c, 0, 65, 0
2, 74602, Note_on_c, 0, 68, 0
2, 74856, Note_on_c, 0, 62, 0
2, 75014, Note_on_c, 0, 67, 49
2, 75020, Control_c, 0, 64, 0
2, 75031, Note_on_c, 0, 79, 67
2, 75040, Note_on_c, 0, 71, 58
2, 75052, Note_on_c, 0, 74, 45
2, 75058, Note_on_c, 0, 68, 32
2, 75211, Control_c, 0, 64, 127
2, 75376, Note_on_c, 0, 79, 0
2, 75541, Note_on_c, 0, 71, 0
2, 75587, Note_on_c, 0, 67, 0
2, 75608, Note_on_c, 0, 68, 0
2, 75626, Note_on_c, 0, 74, 0
2, 75699, Control_c, 0, 64, 0
2, 75746, Note_on_c, 0, 68, 30
2, 75748, Note_on_c, 0, 71, 39
2, 75751, Note_on_c, 0, 77, 47
2, 75773, Note_on_c, 0, 65, 38
2, 75779, Note_on_c, 0, 74, 22
2, 75867, Control_c, 0, 64, 127
2, 76469, Note_on_c, 0, 65, 0
2, 76605, Note_on_c, 0, 56, 0
2, 76973, Note_on_c, 0, 74, 0
2, 76993, Note_on_c, 0, 77, 0
2, 77115, Note_on_c, 0, 76, 60
2, 77144, Note_on_c, 0, 71, 0
2, 77249, Note_on_c, 0, 68, 0
2, 77517, Note_on_c, 0, 76, 0
2, 77572, Control_c, 0, 64, 0
2, 77620, Note_on_c, 0, 43, 32
2, 77621, Note_on_c, 0, 74, 45
2, 77816, Control_c, 0, 64, 127
2, 77947, Note_on_c, 0, 74, 0
2, 78109, Note_on_c, 0, 50, 41
2, 78271, Note_on_c, 0, 43, 0
2, 78611, Note_on_c, 0, 50, 0
2, 78626, Note_on_c, 0, 62, 62
2, 78664, Note_on_c, 0, 57, 35
2, 79146, Note_on_c, 0, 62, 0
2, 79186, Note_on_c, 0, 65, 67
2, 79243, Note_on_c, 0, 58, 46
2, 79254, Note_on_c, 0, 57, 0
2, 79546, Note_on_c, 0, 65, 0
2, 79640, Note_on_c, 0, 69, 85
2, 79646, Note_on_c, 0, 62, 57
2, 79830, Note_on_c, 0, 69, 0
2, 79983, Note_on_c, 0, 62, 0
2, 80108, Note_on_c, 0, 62, 33
2, 80113, Note_on_c, 0, 67, 29
2, 80125, Note_on_c, 0, 74, 101
2, 80160, Note_on_c, 0, 67, 0
2, 80273, Note_on_c, 0, 62, 0
2, 80512, Note_on_c, 0, 58, 0
2, 80851, Control_c, 0, 64, 0
2, 80883, Note_on_c, 0, 72, 65
2, 80886, Note_on_c, 0, 74, 0
2, 80893, Note_on_c, 0, 68, 57
2, 80901, Note_on_c, 0, 64, 44
2, 80907, Note_on_c, 0, 54, 47
2, 80938, Note_on_c, 0, 58, 32
2, 81042, Control_c, 0, 64, 127
2, 81153, Note_on_c, 0, 64, 0
2, 81213, Note_on_c, 0, 72, 0
2, 81227, Note_on_c, 0, 68, 0
2, 81268, Note_on_c, 0, 54, 0
2, 81300, Note_on_c, 0, 58, 0
2, 81440, Control_c, 0, 64, 0
2, 81521, Note_on_c, 0, 74, 66
2, 81528, Note_on_c, 0, 63, 46
2, 81530, Note_on_c, 0, 69, 69
2, 81537, Note_on_c, 0, 53, 35
2, 81555, Note_on_c, 0, 57, 33
2, 81658, Control_c, 0, 64, 127
2, 81747, Note_on_c, 0, 57, 0
2, 81805, Note_on_c, 0, 69, 0
2, 81827, Note_on_c, 0, 53, 0
2, 81835, Note_on_c, 0, 63, 0
2, 81861, Note_on_c, 0, 74, 0
2, 82147, Control_c, 0, 64, 0
2, 82203, Note_on_c, 0, 62, 48
2, 82209, Note_on_c, 0, 52, 39
2, 82212, Note_on_c, 0, 70, 56
2, 82223, Note_on_c, 0, 67, 51
2, 82232, Note_on_c, 0, 56, 39
2, 82377, Control_c, 0, 64, 127
2, 82520, Note_on_c, 0, 52, 0
2, 82555, Note_on_c, 0, 62, 0
2, 82563, Note_on_c, 0, 67, 0
2, 82661, Note_on_c, 0, 56, 0
2, 82676, Note_on_c, 0, 70, 0
2, 82916, Control_c, 0, 64, 0
2, 82995, Note_on_c, 0, 61, 44
2, 82996, Note_on_c, 0, 65, 54
2, 83009, Note_on_c, 0, 69, 54
2, 83017, Note_on_c, 0, 51, 33
2, 83034, Note_on_c, 0, 55, 45
2, 83148, Control_c, 0, 64, 127
2, 83228, Note_on_c, 0, 65, 0
2, 83246, Note_on_c, 0, 69, 0
2, 83321, Note_on_c, 0, 61, 0
2, 83326, Note_on_c, 0, 55, 0
2, 83400, Note_on_c, 0, 51, 0
2, 83937, Note_on_c, 0, 81, 62
2, 83951, Note_on_c, 0, 73, 35
2, 83955, Note_on_c, 0, 39, 42
2, 83958, Note_on_c, 0, 77, 58
2, 83960, Note_on_c, 0, 46, 37
2, 83964, Note_on_c, 0, 69, 36
2, 84162, Control_c, 0, 64, 0
2, 84213, Control_c, 0, 64, 127
2, 84355, Note_on_c, 0, 81, 0
2, 84380, Note_on_c, 0, 77, 0
2, 84430, Note_on_c, 0, 73, 0
2, 84449, Note_on_c, 0, 69, 0
2, 84910, Note_on_c, 0, 55, 40
2, 85007, Note_on_c, 0, 46, 0
2, 85057, Note_on_c, 0, 39, 0
2, 85738, Note_on_c, 0, 55, 0
2, 85766, Control_c, 0, 64, 0
2, 85814, Note_on_c, 0, 54, 35
2, 85823, Note_on_c, 0, 26, 39
2, 85828, Note_on_c, 0, 38, 29
2, 85983, Control_c, 0, 64, 127
2, 86065, Note_on_c, 0, 26, 0
2, 86077, Note_on_c, 0, 54, 0
2, 86179, Note_on_c, 0, 38, 0
2, 87155, Note_on_c, 0, 98, 54
2, 87156, Note_on_c, 0, 86, 40
2, 87179, Note_on_c, 0, 65, 28
2, 87183, Note_on_c, 0, 54, 29
2, 87192, Note_on_c, 0, 60, 22
2, 87718, Note_on_c, 0, 98, 0
2, 87903, Note_on_c, 0, 86, 0
2, 88348, Note_on_c, 0, 65, 0
2, 88350, Note_on_c, 0, 60, 0
2, 90141, Note_on_c, 0, 54, 0
2, 90248, Note_on_c, 0, 81, 101
2, 90272, Note_on_c, 0, 57, 50
2, 90618, Note_on_c, 0, 81, 0
2, 90620, Note_on_c, 0, 57, 0
2, 91258, Control_c, 0, 64, 0
2, 91274, Note_on_c, 0, 79, 54
2, 91289, Note_on_c, 0, 73, 32
2, 91300, Note_on_c, 0, 43, 39
2, 91302, Note_on_c, 0, 71, 28
2, 91475, Control_c, 0, 64, 127
2, 91670, Note_on_c, 0, 79, 0
2, 91708, Note_on_c, 0, 73, 0
2, 91744, Note_on_c, 0, 71, 0
2, 91787, Note_on_c, 0, 43, 0
2, 91832, Note_on_c, 0, 53, 41
2, 92171, Note_on_c, 0, 59, 47
2, 92248, Note_on_c, 0, 53, 0
2, 92292, Note_on_c, 0, 59, 0
2, 92353, Note_on_c, 0, 61, 43
2, 92523, Note_on_c, 0, 63, 63
2, 92534, Note_on_c, 0, 61, 0
2, 92617, Note_on_c, 0, 63, 0
2, 92682, Note_on_c, 0, 65, 72
2, 92785, Note_on_c, 0, 65, 0
2, 92822, Note_on_c, 0, 67, 66
2, 92913, Note_on_c, 0, 67, 0
2, 92927, Note_on_c, 0, 69, 64
2, 92969, Note_on_c, 0, 69, 0
2, 93069, Note_on_c, 0, 71, 65
2, 93188, Note_on_c, 0, 71, 0
2, 93197, Note_on_c, 0, 73, 56
2, 93329, Note_on_c, 0, 75, 64
2, 93330, Note_on_c, 0, 73, 0
2, 93375, Note_on_c, 0, 75, 0
2, 93476, Note_on_c, 0, 77, 51
2, 93594, Note_on_c, 0, 77, 0
2, 93597, Note_on_c, 0, 79, 47
2, 93641, Note_on_c, 0, 79, 0
2, 93832, Note_on_c, 0, 83, 51
2, 93898, Note_on_c, 0, 83, 0
2, 93999, Note_on_c, 0, 85, 36
2, 94054, Note_on_c, 0, 85, 0
2, 94120, Note_on_c, 0, 87, 50
2, 94163, Note_on_c, 0, 87, 0
2, 94259, Note_on_c, 0, 89, 38
2, 94369, Note_on_c, 0, 89, 0
2, 94424, Note_on_c, 0, 91, 47
2, 94477, Note_on_c, 0, 91, 0
2, 94761, Note_on_c, 0, 95, 27
2, 94861, Note_on_c, 0, 95, 0
2, 94951, Note_on_c, 0, 97, 46
2, 95078, Note_on_c, 0, 97, 0
2, 95139, Note_on_c, 0, 99, 50
2, 95299, Note_on_c, 0, 99, 0
2, 95380, Note_on_c, 0, 101, 51
2, 95546, Note_on_c, 0, 101, 0
2, 95617, Note_on_c, 0, 102, 52
2, 95733, Note_on_c, 0, 102, 0
2, 95898, Note_on_c, 0, 103, 24
2, 95909, Note_on_c, 0, 101, 24
2, 95981, Note_on_c, 0, 101, 0
2, 95988, Note_on_c, 0, 103, 0
2, 96281, Note_on_c, 0, 104, 47
2, 96438, Note_on_c, 0, 104, 0
2, 96593, Note_on_c, 0, 104, 53
2, 96845, Note_on_c, 0, 104, 0
2, 96904, Control_c, 0, 64, 0
2, 96964, Note_on_c, 0, 104, 43
2, 96995, Note_on_c, 0, 37, 42
2, 97083, Control_c, 0, 64, 127
2, 97119, Note_on_c, 0, 104, 0
2, 97367, Note_on_c, 0, 37, 0
2, 97449, Note_on_c, 0, 44, 45
2, 97740, Note_on_c, 0, 44, 0
2, 97932, Note_on_c, 0, 68, 43
2, 97967, Note_on_c, 0, 59, 36
2, 97970, Note_on_c, 0, 65, 36
2, 97972, Note_on_c, 0, 53, 34
2, 97976, Note_on_c, 0, 63, 37
2, 98341, Note_on_c, 0, 53, 0
2, 98492, Note_on_c, 0, 56, 37
2, 98580, Note_on_c, 0, 59, 0
2, 98667, Note_on_c, 0, 56, 0
2, 98703, Note_on_c, 0, 65, 0
2, 98762, Note_on_c, 0, 68, 0
2, 98762, Note_on_c, 0, 63, 0
2, 99713, Control_c, 0, 64, 0
2, 99732, Note_on_c, 0, 73, 40
2, 99754, Note_on_c, 0, 70, 46
2, 99766, Note_on_c, 0, 64, 32
2, 99769, Note_on_c, 0, 58, 43
2, 99779, Note_on_c, 0, 48, 32
2, 100035, Control_c, 0, 64, 127
2, 100192, Note_on_c, 0, 58, 0
2, 100207, Note_on_c, 0, 48, 0
2, 100260, Note_on_c, 0, 73, 0
2, 100274, Note_on_c, 0, 70, 0
2, 100355, Note_on_c, 0, 64, 0
2, 101844, Control_c, 0, 64, 0
2, 101859, Note_on_c, 0, 42, 37
2, 101866, Note_on_c, 0, 67, 42
2, 101870, Note_on_c, 0, 58, 36
2, 101874, Note_on_c, 0, 64, 32
2, 101875, Note_on_c, 0, 61, 44
2, 101878, Note_on_c, 0, 52, 35
2, 102100, Control_c, 0, 64, 127
2, 102512, Note_on_c, 0, 64, 0
2, 102524, Note_on_c, 0, 58, 0
2, 102525, Note_on_c, 0, 67, 0
2, 102528, Note_on_c, 0, 61, 0
2, 102533, Note_on_c, 0, 52, 0
2, 102574, Note_on_c, 0, 42, 0
2, 103723, Note_on_c, 0, 56, 51
2, 103725, Note_on_c, 0, 65, 53
2, 103731, Note_on_c, 0, 61, 55
2, 103739, Note_on_c, 0, 46, 37
2, 103837, Note_on_c, 0, 56, 0
2, 103856, Control_c, 0, 64, 0
2, 103871, Note_on_c, 0, 61, 0
2, 103874, Note_on_c, 0, 65, 0
2, 103892, Note_on_c, 0, 46, 0
2, 104225, Note_on_c, 0, 61, 63
2, 104226, Note_on_c, 0, 65, 64
2, 104227, Note_on_c, 0, 56, 60
2, 104229, Note_on_c, 0, 46, 46
2, 104366, Note_on_c, 0, 61, 0
2, 104372, Note_on_c, 0, 65, 0
2, 104393, Note_on_c, 0, 56, 0
2, 104453, Note_on_c, 0, 46, 0
2, 104700, Note_on_c, 0, 65, 60
2, 104704, Note_on_c, 0, 55, 62
2, 104710, Note_on_c, 0, 61, 57
2, 104717, Note_on_c, 0, 39, 56
2, 104886, Note_on_c, 0, 39, 0
2, 104899, Note_on_c, 0, 61, 0
2, 104900, Note_on_c, 0, 65, 0
2, 104914, Note_on_c, 0, 55, 0
2, 104986, Note_on_c, 0, 55, 36
2, 104995, Note_on_c, 0, 39, 42
2, 105000, Note_on_c, 0, 65, 39
2, 105001, Note_on_c, 0, 61, 60
2, 105065, Note_on_c, 0, 55, 0
2, 105085, Note_on_c, 0, 65, 0
2, 105115, Note_on_c, 0, 61, 0
2, 105156, Note_on_c, 0, 39, 0
2, 105448, Note_on_c, 0, 65, 45
2, 105454, Note_on_c, 0, 55, 51
2, 105457, Note_on_c, 0, 60, 43
2, 105467, Note_on_c, 0, 44, 52
2, 105538, Note_on_c, 0, 55, 0
2, 105573, Note_on_c, 0, 60, 0
2, 105579, Note_on_c, 0, 65, 0
2, 105609, Note_on_c, 0, 44, 0
2, 105947, Note_on_c, 0, 65, 62
2, 105950, Note_on_c, 0, 55, 63
2, 105952, Note_on_c, 0, 60, 45
2, 105954, Note_on_c, 0, 44, 54
2, 106026, Note_on_c, 0, 55, 0
2, 106048, Note_on_c, 0, 65, 0
2, 106064, Note_on_c, 0, 60, 0
2, 106110, Note_on_c, 0, 44, 0
2, 106423, Note_on_c, 0, 65, 57
2, 106440, Note_on_c, 0, 60, 40
2, 106441, Note_on_c, 0, 37, 54
2, 106443, Note_on_c, 0, 53, 60
2, 106563, Note_on_c, 0, 37, 0
2, 106565, Note_on_c, 0, 53, 0
2, 106572, Note_on_c, 0, 65, 0
2, 106574, Note_on_c, 0, 60, 0
2, 106648, Note_on_c, 0, 37, 52
2, 106660, Note_on_c, 0, 65, 35
2, 106662, Note_on_c, 0, 60, 40
2, 106663, Note_on_c, 0, 53, 45
2, 106882, Note_on_c, 0, 60, 0
2, 106885, Note_on_c, 0, 65, 0
2, 106897, Note_on_c, 0, 53, 0
2, 106911, Note_on_c, 0, 37, 0
2, 107147, Note_on_c, 0, 60, 55
2, 107152, Note_on_c, 0, 65, 59
2, 107153, Note_on_c, 0, 37, 59
2, 107164, Note_on_c, 0, 53, 55
2, 107201, Note_on_c, 0, 53, 0
2, 107234, Note_on_c, 0, 65, 0
2, 107252, Note_on_c, 0, 60, 0
2, 107253, Note_on_c, 0, 37, 0
2, 107399, Note_on_c, 0, 37, 46
2, 107423, Note_on_c, 0, 60, 33
2, 107427, Note_on_c, 0, 65, 32
2, 107441, Note_on_c, 0, 53, 28
2, 107486, Note_on_c, 0, 53, 0
2, 107497, Note_on_c, 0, 65, 0
2, 107504, Note_on_c, 0, 60, 0
2, 107570, Note_on_c, 0, 37, 0
2, 107625, Note_on_c, 0, 65, 50
2, 107631, Note_on_c, 0, 43, 54
2, 107634, Note_on_c, 0, 53, 55
2, 107638, Note_on_c, 0, 62, 56
2, 107647, Note_on_c, 0, 58, 43
2, 107726, Note_on_c, 0, 53, 0
2, 107730, Note_on_c, 0, 43, 0
2, 107732, Note_on_c, 0, 58, 0
2, 107749, Note_on_c, 0, 65, 0
2, 107762, Note_on_c, 0, 62, 0
2, 108103, Note_on_c, 0, 53, 56
2, 108104, Note_on_c, 0, 65, 40
2, 108106, Note_on_c, 0, 62, 49
2, 108107, Note_on_c, 0, 58, 55
2, 108118, Note_on_c, 0, 43, 44
2, 108208, Note_on_c, 0, 62, 0
2, 108212, Note_on_c, 0, 53, 0
2, 108253, Note_on_c, 0, 58, 0
2, 108316, Note_on_c, 0, 65, 0
2, 108336, Note_on_c, 0, 43, 0
2, 108558, Note_on_c, 0, 65, 71
2, 108561, Note_on_c, 0, 53, 74
2, 108564, Note_on_c, 0, 36, 73
2, 108568, Note_on_c, 0, 58, 71
2, 108577, Note_on_c, 0, 61, 64
2, 109022, Note_on_c, 0, 53, 0
2, 109049, Note_on_c, 0, 36, 0
2, 109110, Note_on_c, 0, 58, 0
2, 109156, Note_on_c, 0, 65, 0
2, 109220, Note_on_c, 0, 61, 0
2, 109260, Note_on_c, 0, 65, 70
2, 109263, Note_on_c, 0, 60, 69
2, 109266, Note_on_c, 0, 57, 77
2, 109267, Note_on_c, 0, 29, 80
2, 109268, Note_on_c, 0, 62, 82
2, 109271, Note_on_c, 0, 41, 81
2, 109343, Note_on_c, 0, 57, 0
2, 109395, Note_on_c, 0, 60, 0
2, 109401, Note_on_c, 0, 62, 0
2, 109406, Note_on_c, 0, 65, 0
2, 109485, Note_on_c, 0, 41, 0
2, 109487, Note_on_c, 0, 29, 0
2, 110905, Note_on_c, 0, 60, 38
2, 110993, Note_on_c, 0, 60, 0
2, 111168, Note_on_c, 0, 60, 44
2, 111248, Note_on_c, 0, 60, 0
2, 111379, Note_on_c, 0, 65, 60
2, 111392, Note_on_c, 0, 61, 53
2, 111407, Note_on_c, 0, 46, 33
2, 111408, Note_on_c, 0, 56, 27
2, 111526, Note_on_c, 0, 46, 0
2, 111530, Note_on_c, 0, 65, 0
2, 111533, Note_on_c, 0, 61, 0
2, 111558, Note_on_c, 0, 56, 0
2, 111888, Note_on_c, 0, 61, 39
2, 111894, Note_on_c, 0, 56, 35
2, 111896, Note_on_c, 0, 46, 35
2, 111906, Note_on_c, 0, 65, 33
2, 112030, Note_on_c, 0, 65, 0
2, 112063, Note_on_c, 0, 61, 0
2, 112079, Note_on_c, 0, 46, 0
2, 112109, Note_on_c, 0, 56, 0
2, 112653, Note_on_c, 0, 55, 42
2, 112661, Note_on_c, 0, 61, 42
2, 112667, Note_on_c, 0, 39, 43
2, 112668, Note_on_c, 0, 65, 31
2, 112741, Note_on_c, 0, 55, 0
2, 112761, Note_on_c, 0, 65, 0
2, 112806, Note_on_c, 0, 61, 0
2, 112807, Note_on_c, 0, 39, 0
2, 113112, Note_on_c, 0, 44, 53
2, 113118, Note_on_c, 0, 65, 46
2, 113119, Note_on_c, 0, 60, 43
2, 113128, Note_on_c, 0, 53, 35
2, 113136, Note_on_c, 0, 55, 46
2, 113285, Note_on_c, 0, 65, 0
2, 113304, Note_on_c, 0, 44, 0
2, 113311, Note_on_c, 0, 60, 0
2, 113316, Note_on_c, 0, 55, 0
2, 113337, Note_on_c, 0, 53, 0
2, 113390, Note_on_c, 0, 44, 42
2, 113401, Note_on_c, 0, 53, 32
2, 113402, Note_on_c, 0, 60, 35
2, 113410, Note_on_c, 0, 55, 36
2, 113411, Note_on_c, 0, 65, 48
2, 113630, Note_on_c, 0, 65, 0
2, 113644, Note_on_c, 0, 55, 0
2, 113655, Note_on_c, 0, 60, 0
2, 113660, Note_on_c, 0, 44, 0
2, 113662, Note_on_c, 0, 53, 0
2, 114120, Note_on_c, 0, 65, 49
2, 114126, Note_on_c, 0, 53, 47
2, 114127, Note_on_c, 0, 60, 37
2, 114154, Note_on_c, 0, 37, 46
2, 114285, Note_on_c, 0, 65, 0
2, 114289, Note_on_c, 0, 53, 0
2, 114300, Note_on_c, 0, 60, 0
2, 114315, Note_on_c, 0, 37, 0
2, 114792, Note_on_c, 0, 63, 73
2, 114805, Note_on_c, 0, 65, 76
2, 114807, Note_on_c, 0, 53, 84
2, 114813, Note_on_c, 0, 58, 77
2, 114814, Note_on_c, 0, 43, 80
2, 114826, Note_on_c, 0, 62, 76
2, 114845, Note_on_c, 0, 63, 0
2, 115413, Control_c, 0, 64, 127
2, 115726, Control_c, 0, 64, 0
2, 115841, Control_c, 0, 64, 127
2, 115905, Note_on_c, 0, 62, 0
2, 115989, Note_on_c, 0, 53, 0
2, 116008, Note_on_c, 0, 58, 0
2, 116041, Note_on_c, 0, 65, 0
2, 116181, Note_on_c, 0, 43, 0
2, 116216, Control_c, 0, 64, 0
2, 116241, Note_on_c, 0, 65, 46
2, 116247, Note_on_c, 0, 61, 51
2, 116248, Note_on_c, 0, 53, 40
2, 116251, Note_on_c, 0, 58, 50
2, 116257, Note_on_c, 0, 36, 54
2, 116467, Control_c, 0, 64, 127
2, 116511, Note_on_c, 0, 36, 0
2, 116622, Note_on_c, 0, 53, 0
2, 116685, Note_on_c, 0, 58, 0
2, 116777, Note_on_c, 0, 61, 0
2, 116783, Note_on_c, 0, 65, 0
2, 117026, Note_on_c, 0, 60, 31
2, 117029, Control_c, 0, 64, 0
2, 117030, Note_on_c, 0, 41, 37
2, 117035, Note_on_c, 0, 65, 34
2, 117037, Note_on_c, 0, 48, 34
2, 117038, Note_on_c, 0, 62, 42
2, 117105, Note_on_c, 0, 62, 0
2, 117126, Note_on_c, 0, 60, 0
2, 117133, Note_on_c, 0, 48, 0
2, 117140, Note_on_c, 0, 41, 0
2, 117149, Note_on_c, 0, 65, 0
2, 117509, Note_on_c, 0, 60, 32
2, 117639, Note_on_c, 0, 60, 0
2, 117720, Note_on_c, 0, 62, 50
2, 117847, Note_on_c, 0, 62, 0
2, 117964, Note_on_c, 0, 64, 68
2, 118093, Note_on_c, 0, 64, 0
2, 118206, Note_on_c, 0, 65, 49
2, 118360, Note_on_c, 0, 65, 0
2, 118437, Note_on_c, 0, 67, 60
2, 118561, Note_on_c, 0, 67, 0
2, 118654, Note_on_c, 0, 69, 84
2, 118794, Note_on_c, 0, 69, 0
2, 118886, Note_on_c, 0, 70, 88
2, 119033, Note_on_c, 0, 70, 0
2, 119083, Note_on_c, 0, 41, 36
2, 119115, Note_on_c, 0, 72, 80
2, 119118, Note_on_c, 0, 57, 31
2, 119128, Note_on_c, 0, 48, 24
2, 119205, Note_on_c, 0, 41, 0
2, 119224, Note_on_c, 0, 48, 0
2, 119300, Note_on_c, 0, 57, 0
2, 119405, Note_on_c, 0, 62, 43
2, 119409, Note_on_c, 0, 67, 55
2, 119449, Note_on_c, 0, 62, 0
2, 119457, Note_on_c, 0, 67, 0
2, 119864, Note_on_c, 0, 60, 41
2, 119870, Note_on_c, 0, 64, 47
2, 119891, Note_on_c, 0, 56, 31
2, 119899, Note_on_c, 0, 46, 29
2, 120335, Control_c, 0, 64, 127
2, 120380, Note_on_c, 0, 60, 0
2, 120419, Note_on_c, 0, 56, 0
2, 120434, Note_on_c, 0, 64, 0
2, 120469, Note_on_c, 0, 46, 0
2, 120484, Note_on_c, 0, 72, 0
2, 120533, Control_c, 0, 64, 0
2, 120534, Note_on_c, 0, 64, 29
2, 120535, Note_on_c, 0, 60, 45
2, 120548, Note_on_c, 0, 55, 44
2, 120550, Note_on_c, 0, 45, 45
2, 120772, Control_c, 0, 64, 127
2, 120939, Note_on_c, 0, 60, 0
2, 120940, Note_on_c, 0, 45, 0
2, 121002, Note_on_c, 0, 64, 0
2, 121007, Note_on_c, 0, 55, 0
2, 121307, Note_on_c, 0, 60, 38
2, 121313, Note_on_c, 0, 64, 57
2, 121321, Note_on_c, 0, 59, 48
2, 121324, Note_on_c, 0, 55, 54
2, 121345, Control_c, 0, 64, 0
2, 121596, Control_c, 0, 64, 127
2, 121737, Note_on_c, 0, 69, 123
2, 121750, Note_on_c, 0, 55, 0
2, 121767, Note_on_c, 0, 64, 0
2, 121781, Note_on_c, 0, 59, 0
2, 121851, Note_on_c, 0, 60, 0
2, 121918, Note_on_c, 0, 69, 0
2, 121966, Note_on_c, 0, 60, 41
2, 121971, Control_c, 0, 64, 0
2, 121980, Note_on_c, 0, 64, 60
2, 121991, Note_on_c, 0, 70, 91
2, 122002, Note_on_c, 0, 54, 60
2, 122212, Control_c, 0, 64, 127
2, 122368, Control_c, 0, 64, 0
2, 122370, Note_on_c, 0, 70, 0
2, 122442, Note_on_c, 0, 64, 0
2, 122454, Note_on_c, 0, 72, 92
2, 122465, Note_on_c, 0, 60, 0
2, 122514, Control_c, 0, 64, 127
2, 122567, Note_on_c, 0, 54, 0
2, 122676, Note_on_c, 0, 72, 0
2, 122869, Control_c, 0, 64, 0
2, 122923, Note_on_c, 0, 62, 49
2, 122926, Note_on_c, 0, 72, 54
2, 122934, Note_on_c, 0, 69, 57
2, 122942, Note_on_c, 0, 65, 57
2, 122953, Note_on_c, 0, 60, 35
2, 122957, Note_on_c, 0, 58, 38
2, 123192, Control_c, 0, 64, 127
2, 123359, Note_on_c, 0, 72, 0
2, 123401, Note_on_c, 0, 74, 58
2, 123443, Note_on_c, 0, 69, 0
2, 123459, Note_on_c, 0, 65, 0
2, 123657, Note_on_c, 0, 74, 0
2, 123734, Control_c, 0, 64, 0
2, 123735, Note_on_c, 0, 70, 56
2, 123742, Note_on_c, 0, 65, 43
2, 123901, Control_c, 0, 64, 127
2, 123942, Note_on_c, 0, 60, 0
2, 123974, Note_on_c, 0, 62, 0
2, 123990, Note_on_c, 0, 58, 0
2, 124359, Control_c, 0, 64, 0
2, 124412, Note_on_c, 0, 48, 53
2, 124548, Control_c, 0, 64, 127
2, 124759, Note_on_c, 0, 65, 0
2, 124775, Note_on_c, 0, 48, 0
2, 124847, Note_on_c, 0, 70, 0
2, 125445, Note_on_c, 0, 84, 76
2, 125467, Note_on_c, 0, 80, 74
2, 125480, Note_on_c, 0, 64, 53
2, 125485, Note_on_c, 0, 58, 64
2, 125494, Note_on_c, 0, 75, 54
2, 125517, Control_c, 0, 64, 0
2, 125705, Control_c, 0, 64, 127
2, 125863, Note_on_c, 0, 84, 0
2, 125916, Note_on_c, 0, 75, 0
2, 125936, Note_on_c, 0, 80, 0
2, 125999, Note_on_c, 0, 64, 0
2, 126004, Note_on_c, 0, 58, 0
2, 126381, Note_on_c, 0, 80, 46
2, 126402, Note_on_c, 0, 75, 56
2, 126412, Note_on_c, 0, 68, 30
2, 126421, Note_on_c, 0, 64, 25
2, 126422, Note_on_c, 0, 58, 38
2, 126467, Note_on_c, 0, 68, 0
2, 126497, Note_on_c, 0, 75, 0
2, 126517, Note_on_c, 0, 64, 0
2, 126523, Note_on_c, 0, 80, 0
2, 126534, Note_on_c, 0, 58, 0
2, 126841, Control_c, 0, 64, 0
2, 126880, Note_on_c, 0, 79, 50
2, 126884, Note_on_c, 0, 72, 57
2, 126885, Note_on_c, 0, 69, 46
2, 126891, Note_on_c, 0, 76, 59
2, 126899, Note_on_c, 0, 64, 36
2, 126931, Note_on_c, 0, 76, 0
2, 126937, Note_on_c, 0, 69, 0
2, 126947, Note_on_c, 0, 72, 0
2, 126967, Note_on_c, 0, 79, 0
2, 127026, Note_on_c, 0, 64, 0
2, 127363, Control_c, 0, 64, 127
2, 127571, Control_c, 0, 64, 0
2, 127582, Note_on_c, 0, 72, 55
2, 127593, Note_on_c, 0, 67, 60
2, 127600, Note_on_c, 0, 62, 48
2, 127603, Note_on_c, 0, 57, 30
2, 127656, Note_on_c, 0, 67, 0
2, 127658, Note_on_c, 0, 62, 0
2, 127675, Note_on_c, 0, 72, 0
2, 127722, Note_on_c, 0, 57, 0
2, 128041, Note_on_c, 0, 67, 49
2, 128042, Note_on_c, 0, 53, 43
2, 128049, Note_on_c, 0, 60, 35
2, 128065, Note_on_c, 0, 64, 26
2, 128099, Note_on_c, 0, 64, 0
2, 128121, Note_on_c, 0, 67, 0
2, 128128, Note_on_c, 0, 60, 0
2, 128141, Note_on_c, 0, 53, 0
2, 128280, Note_on_c, 0, 64, 59
2, 128289, Note_on_c, 0, 50, 43
2, 128292, Note_on_c, 0, 57, 57
2, 128309, Note_on_c, 0, 60, 38
2, 128708, Control_c, 0, 64, 127
2, 129024, Note_on_c, 0, 50, 0
2, 129098, Note_on_c, 0, 64, 0
2, 129214, Note_on_c, 0, 60, 0
2, 129232, Note_on_c, 0, 57, 0
2, 129471, Note_on_c, 0, 65, 73
2, 129476, Note_on_c, 0, 60, 59
2, 129488, Note_on_c, 0, 57, 73
2, 129491, Control_c, 0, 64, 0
2, 129504, Note_on_c, 0, 50, 66
2, 129620, Note_on_c, 0, 57, 0
2, 129634, Note_on_c, 0, 50, 0
2, 129647, Note_on_c, 0, 65, 0
2, 129666, Note_on_c, 0, 60, 0
2, 129749, Note_on_c, 0, 57, 30
2, 129752, Note_on_c, 0, 64, 38
2, 129776, Note_on_c, 0, 60, 20
2, 129840, Note_on_c, 0, 60, 0
2, 129851, Note_on_c, 0, 57, 0
2, 129920, Note_on_c, 0, 64, 0
2, 130014, Note_on_c, 0, 50, 41
2, 130026, Note_on_c, 0, 65, 60
2, 130028, Note_on_c, 0, 60, 29
2, 130030, Note_on_c, 0, 57, 40
2, 130070, Note_on_c, 0, 57, 0
2, 130074, Note_on_c, 0, 60, 0
2, 130109, Note_on_c, 0, 50, 0
2, 130119, Note_on_c, 0, 65, 0
2, 130411, Note_on_c, 0, 67, 52
2, 130415, Note_on_c, 0, 61, 46
2, 130424, Note_on_c, 0, 59, 54
2, 130438, Note_on_c, 0, 53, 50
2, 130444, Note_on_c, 0, 43, 41
2, 130616, Control_c, 0, 64, 127
2, 130788, Note_on_c, 0, 67, 0
2, 130909, Note_on_c, 0, 53, 0
2, 130919, Note_on_c, 0, 50, 28
2, 130946, Note_on_c, 0, 59, 0
2, 130950, Note_on_c, 0, 61, 0
2, 130991, Note_on_c, 0, 50, 0
2, 131027, Note_on_c, 0, 59, 49
2, 131029, Note_on_c, 0, 69, 68
2, 131033, Control_c, 0, 64, 0
2, 131035, Note_on_c, 0, 53, 35
2, 131114, Note_on_c, 0, 69, 0
2, 131118, Note_on_c, 0, 59, 0
2, 131163, Note_on_c, 0, 53, 0
2, 131335, Control_c, 0, 64, 127
2, 131398, Control_c, 0, 64, 0
2, 131471, Note_on_c, 0, 59, 50
2, 131482, Note_on_c, 0, 62, 47
2, 131483, Note_on_c, 0, 64, 34
2, 131495, Note_on_c, 0, 53, 31
2, 131527, Note_on_c, 0, 62, 0
2, 131528, Note_on_c, 0, 43, 0
2, 131545, Note_on_c, 0, 64, 0
2, 131546, Note_on_c, 0, 59, 0
2, 131731, Note_on_c, 0, 53, 0
2, 132454, Note_on_c, 0, 44, 46
2, 132759, Note_on_c, 0, 56, 39
2, 132769, Note_on_c, 0, 62, 42
2, 132771, Note_on_c, 0, 59, 42
2, 132823, Note_on_c, 0, 59, 0
2, 132827, Note_on_c, 0, 56, 0
2, 132845, Note_on_c, 0, 62, 0
2, 133193, Note_on_c, 0, 44, 0
2, 133200, Note_on_c, 0, 67, 71
2, 133206, Note_on_c, 0, 56, 68
2, 133209, Note_on_c, 0, 59, 60
2, 133213, Note_on_c, 0, 55, 63
2, 133238, Note_on_c, 0, 62, 41
2, 133279, Note_on_c, 0, 56, 0
2, 133311, Note_on_c, 0, 67, 0
2, 133312, Note_on_c, 0, 59, 0
2, 133338, Note_on_c, 0, 62, 0
2, 133616, Note_on_c, 0, 55, 0
2, 133656, Note_on_c, 0, 66, 60
2, 133658, Note_on_c, 0, 54, 49
2, 133678, Note_on_c, 0, 56, 47
2, 133679, Note_on_c, 0, 62, 53
2, 133687, Note_on_c, 0, 59, 48
2, 133786, Note_on_c, 0, 66, 0
2, 133823, Note_on_c, 0, 56, 0
2, 133837, Note_on_c, 0, 59, 0
2, 133844, Note_on_c, 0, 62, 0
2, 133866, Note_on_c, 0, 54, 0
2, 133892, Note_on_c, 0, 56, 35
2, 133907, Note_on_c, 0, 65, 45
2, 133925, Note_on_c, 0, 53, 40
2, 133932, Note_on_c, 0, 59, 19
2, 134026, Note_on_c, 0, 56, 0
2, 134045, Note_on_c, 0, 59, 0
2, 134125, Note_on_c, 0, 53, 0
2, 134160, Control_c, 0, 64, 127
2, 134164, Note_on_c, 0, 46, 23
2, 134228, Note_on_c, 0, 65, 0
2, 134274, Note_on_c, 0, 46, 0
2, 134349, Control_c, 0, 64, 0
2, 134358, Note_on_c, 0, 62, 57
2, 134375, Note_on_c, 0, 53, 42
2, 134378, Note_on_c, 0, 58, 51
2, 134730, Note_on_c, 0, 53, 0
2, 134760, Note_on_c, 0, 43, 60
2, 134800, Note_on_c, 0, 58, 0
2, 134813, Note_on_c, 0, 62, 0
2, 134818, Control_c, 0, 64, 127
2, 135082, Note_on_c, 0, 43, 0
2, 135143, Note_on_c, 0, 65, 81
2, 135281, Note_on_c, 0, 65, 0
2, 135360, Control_c, 0, 64, 0
2, 135393, Note_on_c, 0, 58, 62
2, 135397, Note_on_c, 0, 62, 65
2, 135405, Note_on_c, 0, 69, 84
2, 135406, Note_on_c, 0, 65, 81
2, 135464, Control_c, 0, 64, 127
2, 135605, Note_on_c, 0, 69, 0
2, 135618, Note_on_c, 0, 62, 0
2, 135641, Note_on_c, 0, 65, 0
2, 135692, Note_on_c, 0, 58, 0
2, 135718, Note_on_c, 0, 74, 88
2, 135954, Note_on_c, 0, 74, 0
2, 136799, Control_c, 0, 64, 0
2, 136855, Note_on_c, 0, 69, 96
2, 136856, Note_on_c, 0, 60, 66
2, 136857, Note_on_c, 0, 72, 91
2, 136858, Note_on_c, 0, 58, 74
2, 136859, Note_on_c, 0, 65, 103
2, 136861, Note_on_c, 0, 62, 89
2, 137153, Control_c, 0, 64, 127
2, 137298, Note_on_c, 0, 69, 0
2, 137343, Note_on_c, 0, 65, 0
2, 137348, Note_on_c, 0, 72, 0
2, 137398, Note_on_c, 0, 62, 0
2, 137404, Note_on_c, 0, 60, 0
2, 137451, Note_on_c, 0, 58, 0
2, 137622, Control_c, 0, 64, 0
2, 137632, Note_on_c, 0, 74, 66
2, 137642, Note_on_c, 0, 68, 76
2, 137656, Note_on_c, 0, 62, 60
2, 137657, Note_on_c, 0, 64, 62
2, 137658, Note_on_c, 0, 58, 53
2, 137691, Note_on_c, 0, 64, 0
2, 137707, Note_on_c, 0, 62, 0
2, 137741, Note_on_c, 0, 68, 0
2, 137743, Note_on_c, 0, 74, 0
2, 137784, Note_on_c, 0, 58, 0
2, 138031, Note_on_c, 0, 70, 64
2, 138034, Note_on_c, 0, 62, 65
2, 138043, Note_on_c, 0, 65, 63
2, 138050, Control_c, 0, 64, 127
2, 138061, Note_on_c, 0, 56, 39
2, 138179, Note_on_c, 0, 65, 0
2, 138180, Note_on_c, 0, 62, 0
2, 138207, Note_on_c, 0, 70, 0
2, 138269, Control_c, 0, 64, 0
2, 138294, Note_on_c, 0, 56, 0
2, 138327, Note_on_c, 0, 60, 44
2, 138330, Note_on_c, 0, 69, 60
2, 138341, Note_on_c, 0, 64, 48
2, 138356, Note_on_c, 0, 57, 33
2, 138433, Note_on_c, 0, 57, 0
2, 138488, Control_c, 0, 64, 127
2, 138698, Note_on_c, 0, 69, 0
2, 138706, Note_on_c, 0, 64, 0
2, 138787, Note_on_c, 0, 41, 47
2, 138804, Note_on_c, 0, 60, 0
2, 139087, Note_on_c, 0, 65, 54
2, 139089, Note_on_c, 0, 57, 38
2, 139091, Note_on_c, 0, 60, 34
2, 139144, Control_c, 0, 64, 0
2, 139322, Control_c, 0, 64, 127
2, 139503, Note_on_c, 0, 57, 0
2, 139528, Note_on_c, 0, 48, 68
2, 139537, Note_on_c, 0, 41, 0
2, 139563, Note_on_c, 0, 60, 0
2, 139599, Note_on_c, 0, 65, 0
2, 139625, Note_on_c, 0, 48, 0
2, 139676, Control_c, 0, 64, 0
2, 139763, Note_on_c, 0, 57, 79
2, 140204, Note_on_c, 0, 69, 75
2, 140215, Note_on_c, 0, 62, 71
2, 140217, Note_on_c, 0, 66, 56
2, 140270, Note_on_c, 0, 62, 0
2, 140288, Note_on_c, 0, 69, 0
2, 140297, Note_on_c, 0, 66, 0
2, 140424, Note_on_c, 0, 57, 0
2, 140659, Note_on_c, 0, 69, 60
2, 140668, Note_on_c, 0, 57, 34
2, 140670, Note_on_c, 0, 66, 48
2, 140672, Note_on_c, 0, 62, 51
2, 140729, Note_on_c, 0, 62, 0
2, 140739, Note_on_c, 0, 69, 0
2, 140750, Control_c, 0, 64, 127
2, 140820, Note_on_c, 0, 66, 0
2, 140851, Note_on_c, 0, 57, 0
2, 140959, Control_c, 0, 64, 0
2, 140990, Note_on_c, 0, 70, 62
2, 141000, Note_on_c, 0, 61, 57
2, 141014, Note_on_c, 0, 66, 51
2, 141028, Note_on_c, 0, 45, 37
2, 141032, Note_on_c, 0, 55, 35
2, 141178, Control_c, 0, 64, 127
2, 141534, Note_on_c, 0, 61, 0
2, 141566, Note_on_c, 0, 70, 0
2, 141573, Note_on_c, 0, 66, 0
2, 141601, Note_on_c, 0, 55, 0
2, 141616, Control_c, 0, 64, 0
2, 141643, Note_on_c, 0, 66, 25
2, 141653, Note_on_c, 0, 52, 39
2, 141730, Control_c, 0, 64, 127
2, 141973, Note_on_c, 0, 66, 0
2, 141994, Note_on_c, 0, 45, 0
2, 142041, Note_on_c, 0, 52, 0
2, 142061, Note_on_c, 0, 49, 25
2, 142095, Control_c, 0, 64, 0
2, 142117, Note_on_c, 0, 66, 50
2, 142136, Note_on_c, 0, 57, 34
2, 142139, Note_on_c, 0, 61, 50
2, 142154, Note_on_c, 0, 49, 0
2, 142161, Note_on_c, 0, 50, 47
2, 142658, Control_c, 0, 64, 127
2, 142792, Note_on_c, 0, 50, 0
2, 142883, Note_on_c, 0, 45, 60
2, 142961, Control_c, 0, 64, 0
2, 142997, Note_on_c, 0, 45, 0
2, 143102, Note_on_c, 0, 45, 39
2, 143215, Note_on_c, 0, 57, 0
2, 143253, Control_c, 0, 64, 127
2, 143296, Note_on_c, 0, 66, 0
2, 143355, Note_on_c, 0, 61, 0
2, 143534, Control_c, 0, 64, 0
2, 143539, Note_on_c, 0, 45, 0
2, 143567, Note_on_c, 0, 65, 49
2, 143573, Note_on_c, 0, 60, 35
2, 143577, Note_on_c, 0, 54, 34
2, 143595, Note_on_c, 0, 38, 44
2, 143722, Control_c, 0, 64, 127
2, 143826, Note_on_c, 0, 54, 0
2, 143904, Note_on_c, 0, 60, 0
2, 143938, Note_on_c, 0, 38, 0
2, 143948, Note_on_c, 0, 65, 0
2, 144339, Note_on_c, 0, 60, 45
2, 144344, Note_on_c, 0, 65, 74
2, 144357, Note_on_c, 0, 54, 52
2, 144769, Note_on_c, 0, 78, 91
2, 144894, Note_on_c, 0, 78, 0
2, 145076, Note_on_c, 0, 81, 110
2, 145246, Note_on_c, 0, 81, 0
2, 145414, Note_on_c, 0, 81, 91
2, 145548, Note_on_c, 0, 81, 0
2, 145671, Note_on_c, 0, 60, 0
2, 145697, Note_on_c, 0, 65, 0
2, 145707, Note_on_c, 0, 79, 64
2, 145765, Note_on_c, 0, 54, 0
2, 145807, Note_on_c, 0, 79, 0
2, 145964, Control_c, 0, 64, 0
2, 146478, Note_on_c, 0, 63, 50
2, 146489, Note_on_c, 0, 59, 31
2, 146491, Note_on_c, 0, 73, 53
2, 146493, Note_on_c, 0, 66, 62
2, 146494, Note_on_c, 0, 70, 62
2, 146497, Note_on_c, 0, 61, 56
2, 146702, Note_on_c, 0, 63, 0
2, 146703, Note_on_c, 0, 59, 0
2, 146703, Note_on_c, 0, 61, 0
2, 146706, Note_on_c, 0, 73, 0
2, 146711, Note_on_c, 0, 66, 0
2, 146717, Note_on_c, 0, 70, 0
2, 146771, Note_on_c, 0, 66, 40
2, 146784, Note_on_c, 0, 63, 37
2, 146785, Note_on_c, 0, 73, 38
2, 146789, Note_on_c, 0, 70, 38
2, 146813, Note_on_c, 0, 61, 45
2, 146836, Note_on_c, 0, 59, 29
2, 146870, Note_on_c, 0, 66, 0
2, 146875, Note_on_c, 0, 63, 0
2, 146883, Note_on_c, 0, 59, 0
2, 146894, Note_on_c, 0, 73, 0
2, 146907, Note_on_c, 0, 61, 0
2, 146908, Note_on_c, 0, 70, 0
2, 147230, Note_on_c, 0, 73, 38
2, 147234, Note_on_c, 0, 70, 49
2, 147237, Note_on_c, 0, 63, 39
2, 147239, Note_on_c, 0, 61, 45
2, 147241, Note_on_c, 0, 65, 49
2, 147264, Note_on_c, 0, 59, 33
2, 147336, Note_on_c, 0, 65, 0
2, 147341, Note_on_c, 0, 59, 0
2, 147354, Note_on_c, 0, 63, 0
2, 147384, Note_on_c, 0, 61, 0
2, 147402, Note_on_c, 0, 73, 0
2, 147404, Note_on_c, 0, 70, 0
2, 147693, Note_on_c, 0, 62, 54
2, 147695, Note_on_c, 0, 72, 51
2, 147698, Note_on_c, 0, 58, 46
2, 147699, Note_on_c, 0, 69, 54
2, 147701, Note_on_c, 0, 65, 44
2, 147716, Note_on_c, 0, 60, 30
2, 147789, Note_on_c, 0, 62, 0
2, 147809, Note_on_c, 0, 69, 0
2, 147819, Note_on_c, 0, 60, 0
2, 147823, Note_on_c, 0, 72, 0
2, 147827, Note_on_c, 0, 65, 0
2, 147867, Note_on_c, 0, 58, 0
2, 147931, Note_on_c, 0, 62, 48
2, 147935, Note_on_c, 0, 72, 56
2, 147936, Note_on_c, 0, 65, 36
2, 147938, Note_on_c, 0, 58, 19
2, 147940, Note_on_c, 0, 69, 53
2, 147949, Note_on_c, 0, 60, 24
2, 148064, Note_on_c, 0, 60, 0
2, 148068, Note_on_c, 0, 69, 0
2, 148089, Note_on_c, 0, 72, 0
2, 148093, Note_on_c, 0, 65, 0
2, 148096, Note_on_c, 0, 62, 0
2, 148149, Note_on_c, 0, 58, 0
2, 148382, Note_on_c, 0, 68, 53
2, 148385, Note_on_c, 0, 61, 54
2, 148387, Note_on_c, 0, 64, 46
2, 148388, Note_on_c, 0, 72, 53
2, 148397, Note_on_c, 0, 58, 45
2, 148603, Note_on_c, 0, 64, 0
2, 148618, Note_on_c, 0, 68, 0
2, 148638, Note_on_c, 0, 72, 0
2, 148645, Note_on_c, 0, 61, 0
2, 148670, Note_on_c, 0, 58, 0
2, 148873, Control_c, 0, 64, 127
2, 149107, Note_on_c, 0, 47, 65
2, 149114, Note_on_c, 0, 48, 63
2, 149123, Control_c, 0, 64, 0
2, 149289, Note_on_c, 0, 47, 0
2, 149360, Note_on_c, 0, 48, 0
2, 149563, Note_on_c, 0, 48, 63
2, 149737, Note_on_c, 0, 48, 0
2, 149812, Note_on_c, 0, 41, 56
2, 150008, Note_on_c, 0, 41, 0
2, 150136, Note_on_c, 0, 72, 58
2, 150143, Note_on_c, 0, 62, 50
2, 150150, Note_on_c, 0, 67, 56
2, 150184, Note_on_c, 0, 62, 0
2, 150189, Note_on_c, 0, 67, 0
2, 150227, Note_on_c, 0, 72, 0
2, 150551, Note_on_c, 0, 57, 60
2, 150634, Note_on_c, 0, 57, 0
2, 150804, Note_on_c, 0, 65, 53
2, 150819, Note_on_c, 0, 60, 30
2, 150823, Note_on_c, 0, 46, 51
2, 150825, Note_on_c, 0, 56, 47
2, 150870, Note_on_c, 0, 60, 0
2, 150901, Note_on_c, 0, 65, 0
2, 151035, Note_on_c, 0, 46, 0
2, 151081, Note_on_c, 0, 56, 0
2, 151264, Note_on_c, 0, 64, 42
2, 151269, Note_on_c, 0, 60, 32
2, 151270, Note_on_c, 0, 45, 45
2, 151277, Note_on_c, 0, 55, 47
2, 151323, Control_c, 0, 64, 127
2, 151544, Note_on_c, 0, 60, 0
2, 151558, Note_on_c, 0, 45, 0
2, 151616, Note_on_c, 0, 64, 0
2, 151621, Note_on_c, 0, 55, 0
2, 152016, Note_on_c, 0, 64, 64
2, 152024, Note_on_c, 0, 60, 36
2, 152028, Note_on_c, 0, 59, 51
2, 152038, Note_on_c, 0, 55, 41
2, 152063, Control_c, 0, 64, 0
2, 152293, Control_c, 0, 64, 127
2, 152334, Control_c, 0, 64, 0
2, 152358, Note_on_c, 0, 64, 0
2, 152362, Note_on_c, 0, 55, 0
2, 152387, Note_on_c, 0, 59, 0
2, 152428, Note_on_c, 0, 60, 0
2, 152467, Note_on_c, 0, 81, 92
2, 152471, Note_on_c, 0, 69, 101
2, 152473, Note_on_c, 0, 76, 94
2, 152479, Note_on_c, 0, 60, 70
2, 152482, Note_on_c, 0, 64, 67
2, 152486, Note_on_c, 0, 54, 81
2, 152502, Note_on_c, 0, 79, 45
2, 152537, Note_on_c, 0, 79, 0
2, 152598, Note_on_c, 0, 69, 0
2, 152606, Note_on_c, 0, 81, 0
2, 152668, Note_on_c, 0, 76, 0
2, 152733, Note_on_c, 0, 76, 82
2, 152744, Note_on_c, 0, 82, 79
2, 152746, Note_on_c, 0, 70, 77
2, 152762, Control_c, 0, 64, 127
2, 152806, Note_on_c, 0, 64, 0
2, 152839, Note_on_c, 0, 60, 0
2, 152888, Note_on_c, 0, 54, 0
2, 152923, Note_on_c, 0, 76, 0
2, 152984, Note_on_c, 0, 82, 0
2, 153000, Note_on_c, 0, 70, 0
2, 153096, Control_c, 0, 64, 0
2, 153155, Note_on_c, 0, 43, 68
2, 153184, Note_on_c, 0, 84, 80
2, 153186, Note_on_c, 0, 72, 82
2, 153207, Note_on_c, 0, 83, 50
2, 153246, Note_on_c, 0, 83, 0
2, 153294, Control_c, 0, 64, 127
2, 153348, Note_on_c, 0, 43, 0
2, 153410, Note_on_c, 0, 84, 0
2, 153417, Note_on_c, 0, 72, 0
2, 153506, Note_on_c, 0, 84, 73
2, 153513, Note_on_c, 0, 72, 74
2, 153521, Note_on_c, 0, 81, 67
2, 153522, Note_on_c, 0, 77, 74
2, 153606, Control_c, 0, 64, 0
2, 153679, Control_c, 0, 64, 127
2, 153808, Note_on_c, 0, 77, 0
2, 153812, Note_on_c, 0, 84, 0
2, 153817, Note_on_c, 0, 72, 0
2, 153876, Note_on_c, 0, 81, 0
2, 153950, Control_c, 0, 64, 0
2, 153974, Note_on_c, 0, 86, 74
2, 153997, Note_on_c, 0, 74, 60
2, 153998, Note_on_c, 0, 58, 55
2, 153999, Note_on_c, 0, 62, 58
2, 154016, Note_on_c, 0, 57, 29
2, 154038, Note_on_c, 0, 62, 0
2, 154053, Note_on_c, 0, 53, 19
2, 154063, Note_on_c, 0, 57, 0
2, 154068, Note_on_c, 0, 86, 0
2, 154072, Note_on_c, 0, 74, 0
2, 154093, Note_on_c, 0, 58, 0
2, 154128, Note_on_c, 0, 53, 0
2, 154253, Control_c, 0, 64, 127
2, 154439, Note_on_c, 0, 82, 65
2, 154453, Note_on_c, 0, 70, 55
2, 154456, Note_on_c, 0, 74, 59
2, 154461, Control_c, 0, 64, 0
2, 154463, Note_on_c, 0, 50, 31
2, 154469, Note_on_c, 0, 77, 50
2, 154474, Note_on_c, 0, 48, 29
2, 154541, Note_on_c, 0, 70, 0
2, 154549, Note_on_c, 0, 74, 0
2, 154562, Note_on_c, 0, 48, 0
2, 154564, Note_on_c, 0, 82, 0
2, 154573, Note_on_c, 0, 77, 0
2, 154593, Note_on_c, 0, 50, 0
2, 154909, Control_c, 0, 64, 127
2, 155025, Control_c, 0, 64, 0
2, 155069, Note_on_c, 0, 36, 46
2, 155110, Note_on_c, 0, 52, 48
2, 155222, Control_c, 0, 64, 127
2, 155451, Note_on_c, 0, 36, 0
2, 155550, Note_on_c, 0, 52, 0
2, 156053, Note_on_c, 0, 75, 57
2, 156065, Note_on_c, 0, 72, 62
2, 156068, Control_c, 0, 64, 0
2, 156069, Note_on_c, 0, 68, 67
2, 156073, Note_on_c, 0, 58, 62
2, 156080, Note_on_c, 0, 64, 60
2, 156359, Control_c, 0, 64, 127
2, 156473, Note_on_c, 0, 58, 0
2, 156479, Note_on_c, 0, 75, 0
2, 156488, Note_on_c, 0, 72, 0
2, 156530, Note_on_c, 0, 68, 0
2, 156546, Note_on_c, 0, 64, 0
2, 156818, Note_on_c, 0, 68, 55
2, 156828, Control_c, 0, 64, 0
2, 156831, Note_on_c, 0, 60, 38
2, 156835, Note_on_c, 0, 56, 52
2, 156848, Note_on_c, 0, 64, 34
2, 157016, Control_c, 0, 64, 127
2, 157036, Note_on_c, 0, 64, 0
2, 157040, Note_on_c, 0, 56, 0
2, 157139, Note_on_c, 0, 60, 0
2, 157148, Note_on_c, 0, 68, 0
2, 157491, Note_on_c, 0, 62, 51
2, 157493, Note_on_c, 0, 67, 48
2, 157499, Note_on_c, 0, 57, 45
2, 157506, Control_c, 0, 64, 0
2, 157782, Note_on_c, 0, 47, 40
2, 157945, Note_on_c, 0, 47, 0
2, 157983, Note_on_c, 0, 62, 0
2, 158015, Note_on_c, 0, 48, 37
2, 158026, Note_on_c, 0, 67, 0
2, 158036, Note_on_c, 0, 57, 0
2, 158285, Note_on_c, 0, 57, 46
2, 158289, Note_on_c, 0, 60, 39
2, 158296, Note_on_c, 0, 65, 37
2, 158333, Note_on_c, 0, 57, 0
2, 158342, Note_on_c, 0, 60, 0
2, 158351, Note_on_c, 0, 65, 0
2, 158671, Note_on_c, 0, 48, 0
2, 158743, Note_on_c, 0, 49, 42
2, 158946, Note_on_c, 0, 49, 0
2, 158973, Note_on_c, 0, 53, 48
2, 158979, Note_on_c, 0, 60, 32
2, 158980, Note_on_c, 0, 57, 40
2, 158990, Note_on_c, 0, 50, 37
2, 159477, Control_c, 0, 64, 127
2, 159508, Note_on_c, 0, 53, 0
2, 159599, Note_on_c, 0, 57, 0
2, 159659, Note_on_c, 0, 60, 0
2, 159753, Note_on_c, 0, 38, 63
2, 159831, Note_on_c, 0, 50, 0
2, 159844, Note_on_c, 0, 38, 0
2, 160176, Control_c, 0, 64, 0
2, 160177, Note_on_c, 0, 77, 88
2, 160179, Note_on_c, 0, 72, 85
2, 160180, Note_on_c, 0, 69, 92
2, 160181, Note_on_c, 0, 60, 56
2, 160189, Note_on_c, 0, 71, 78
2, 160225, Note_on_c, 0, 71, 0
2, 160332, Control_c, 0, 64, 127
2, 160718, Note_on_c, 0, 69, 0
2, 160760, Note_on_c, 0, 77, 0
2, 160761, Note_on_c, 0, 60, 0
2, 160770, Control_c, 0, 64, 0
2, 160771, Note_on_c, 0, 72, 0
2, 160817, Note_on_c, 0, 59, 39
2, 160828, Note_on_c, 0, 76, 50
2, 160949, Note_on_c, 0, 76, 0
2, 161022, Note_on_c, 0, 59, 0
2, 161061, Control_c, 0, 64, 127
2, 161105, Note_on_c, 0, 77, 51
2, 161110, Note_on_c, 0, 60, 27
2, 161158, Note_on_c, 0, 60, 0
2, 161189, Note_on_c, 0, 77, 0
2, 161197, Control_c, 0, 64, 0
2, 161300, Note_on_c, 0, 71, 74
2, 161310, Note_on_c, 0, 75, 52
2, 161312, Note_on_c, 0, 79, 60
2, 161325, Note_on_c, 0, 53, 34
2, 161328, Note_on_c, 0, 59, 37
2, 161338, Note_on_c, 0, 64, 24
2, 161488, Note_on_c, 0, 76, 56
2, 161498, Note_on_c, 0, 75, 0
2, 161573, Note_on_c, 0, 79, 0
2, 161589, Note_on_c, 0, 71, 0
2, 161612, Note_on_c, 0, 64, 0
2, 161633, Note_on_c, 0, 76, 0
2, 161639, Note_on_c, 0, 53, 0
2, 161651, Note_on_c, 0, 59, 0
2, 162021, Note_on_c, 0, 81, 78
2, 162031, Note_on_c, 0, 71, 69
2, 162033, Note_on_c, 0, 64, 48
2, 162036, Note_on_c, 0, 53, 52
2, 162037, Note_on_c, 0, 59, 45
2, 162144, Note_on_c, 0, 81, 0
2, 162177, Note_on_c, 0, 53, 0
2, 162181, Note_on_c, 0, 64, 0
2, 162198, Note_on_c, 0, 59, 0
2, 162202, Note_on_c, 0, 71, 0
2, 162450, Control_c, 0, 64, 127
2, 162701, Control_c, 0, 64, 0
2, 162749, Note_on_c, 0, 76, 58
2, 162751, Note_on_c, 0, 65, 54
2, 162760, Note_on_c, 0, 71, 42
2, 162761, Note_on_c, 0, 68, 42
2, 162763, Note_on_c, 0, 64, 48
2, 162965, Note_on_c, 0, 64, 0
2, 163040, Note_on_c, 0, 63, 47
2, 163065, Note_on_c, 0, 65, 0
2, 163067, Note_on_c, 0, 71, 0
2, 163076, Note_on_c, 0, 68, 0
2, 163170, Note_on_c, 0, 76, 0
2, 163191, Note_on_c, 0, 63, 0
2, 163264, Note_on_c, 0, 62, 53
2, 163452, Note_on_c, 0, 62, 0
2, 163493, Control_c, 0, 64, 127
2, 163713, Control_c, 0, 64, 0
2, 163733, Note_on_c, 0, 67, 68
2, 163743, Note_on_c, 0, 59, 72
2, 163748, Note_on_c, 0, 62, 62
2, 163756, Note_on_c, 0, 56, 67
2, 163760, Note_on_c, 0, 55, 75
2, 164244, Control_c, 0, 64, 127
2, 164291, Note_on_c, 0, 55, 0
2, 164358, Note_on_c, 0, 56, 0
2, 164376, Note_on_c, 0, 67, 0
2, 164403, Note_on_c, 0, 59, 0
2, 164436, Note_on_c, 0, 62, 0
2, 164500, Note_on_c, 0, 56, 49
2, 164503, Note_on_c, 0, 65, 57
2, 164516, Control_c, 0, 64, 0
2, 164519, Note_on_c, 0, 59, 54
2, 164528, Note_on_c, 0, 62, 42
2, 164648, Note_on_c, 0, 56, 0
2, 164650, Note_on_c, 0, 65, 0
2, 164661, Control_c, 0, 64, 127
2, 164684, Note_on_c, 0, 59, 0
2, 164715, Note_on_c, 0, 62, 0
2, 164777, Control_c, 0, 64, 0
2, 164912, Control_c, 0, 64, 127
2, 164913, Note_on_c, 0, 64, 52
2, 164914, Note_on_c, 0, 44, 37
2, 164920, Note_on_c, 0, 56, 38
2, 164923, Note_on_c, 0, 54, 25
2, 165015, Note_on_c, 0, 54, 0
2, 165041, Note_on_c, 0, 56, 0
2, 165055, Note_on_c, 0, 64, 0
2, 165076, Note_on_c, 0, 44, 0
2, 165089, Control_c, 0, 64, 0
2, 165156, Note_on_c, 0, 62, 55
2, 165180, Note_on_c, 0, 43, 42
2, 165184, Note_on_c, 0, 50, 30
2, 165189, Note_on_c, 0, 55, 36
2, 165199, Note_on_c, 0, 58, 33
2, 165328, Control_c, 0, 64, 127
2, 165438, Note_on_c, 0, 55, 0
2, 165461, Note_on_c, 0, 43, 0
2, 165514, Note_on_c, 0, 50, 0
2, 165524, Note_on_c, 0, 62, 0
2, 165583, Note_on_c, 0, 58, 0
2, 165621, Note_on_c, 0, 65, 64
2, 165706, Note_on_c, 0, 65, 0
2, 165929, Note_on_c, 0, 62, 66
2, 165930, Note_on_c, 0, 57, 49
2, 165949, Note_on_c, 0, 58, 35
2, 165965, Note_on_c, 0, 62, 0
2, 165996, Note_on_c, 0, 57, 0
2, 165999, Note_on_c, 0, 58, 0
2, 166006, Control_c, 0, 64, 0
2, 166350, Control_c, 0, 64, 127
2, 166371, Control_c, 0, 64, 0
2, 166386, Note_on_c, 0, 69, 64
2, 166457, Note_on_c, 0, 69, 0
2, 166580, Control_c, 0, 64, 127
2, 166607, Note_on_c, 0, 74, 90
2, 166860, Note_on_c, 0, 74, 0
2, 167028, Control_c, 0, 64, 0
2, 167070, Note_on_c, 0, 72, 60
2, 167086, Note_on_c, 0, 58, 33
2, 167089, Note_on_c, 0, 48, 34
2, 167181, Note_on_c, 0, 48, 0
2, 167236, Note_on_c, 0, 58, 0
2, 167413, Note_on_c, 0, 65, 48
2, 167415, Note_on_c, 0, 62, 34
2, 167463, Note_on_c, 0, 62, 0
2, 167485, Note_on_c, 0, 65, 0
2, 167644, Control_c, 0, 64, 127
2, 167819, Note_on_c, 0, 72, 0
2, 167852, Control_c, 0, 64, 0
2, 167856, Note_on_c, 0, 58, 65
2, 167861, Note_on_c, 0, 62, 58
2, 167875, Note_on_c, 0, 60, 31
2, 167902, Note_on_c, 0, 62, 0
2, 167917, Note_on_c, 0, 60, 0
2, 167956, Note_on_c, 0, 58, 0
2, 168053, Note_on_c, 0, 74, 85
2, 168259, Control_c, 0, 64, 127
2, 168345, Note_on_c, 0, 74, 0
2, 168521, Note_on_c, 0, 70, 63
2, 168816, Note_on_c, 0, 70, 0
2, 168937, Control_c, 0, 64, 0
2, 168984, Note_on_c, 0, 69, 55
2, 168989, Note_on_c, 0, 57, 32
2, 168993, Note_on_c, 0, 61, 26
2, 168995, Note_on_c, 0, 51, 39
2, 169019, Note_on_c, 0, 65, 33
2, 169117, Note_on_c, 0, 65, 0
2, 169160, Note_on_c, 0, 57, 0
2, 169174, Note_on_c, 0, 61, 0
2, 169181, Note_on_c, 0, 69, 0
2, 169207, Note_on_c, 0, 51, 0
2, 169291, Note_on_c, 0, 69, 46
2, 169295, Note_on_c, 0, 61, 37
2, 169328, Note_on_c, 0, 65, 32
2, 169329, Note_on_c, 0, 51, 36
2, 169338, Note_on_c, 0, 57, 24
2, 169368, Note_on_c, 0, 61, 0
2, 169370, Note_on_c, 0, 65, 0
2, 169393, Note_on_c, 0, 57, 0
2, 169406, Note_on_c, 0, 69, 0
2, 169421, Note_on_c, 0, 51, 0
2, 169772, Note_on_c, 0, 61, 40
2, 169773, Note_on_c, 0, 69, 48
2, 169787, Note_on_c, 0, 51, 46
2, 169794, Note_on_c, 0, 57, 31
2, 169795, Note_on_c, 0, 65, 43
2, 169900, Note_on_c, 0, 69, 0
2, 169916, Note_on_c, 0, 57, 0
2, 169927, Note_on_c, 0, 65, 0
2, 169931, Note_on_c, 0, 61, 0
2, 170085, Note_on_c, 0, 51, 0
2, 170449, Note_on_c, 0, 69, 43
2, 170453, Note_on_c, 0, 60, 25
2, 170459, Note_on_c, 0, 64, 32
2, 170465, Note_on_c, 0, 55, 34
2, 170466, Note_on_c, 0, 67, 38
2, 170473, Note_on_c, 0, 50, 33
2, 170634, Note_on_c, 0, 64, 0
2, 170635, Note_on_c, 0, 67, 0
2, 170640, Note_on_c, 0, 55, 0
2, 170643, Note_on_c, 0, 60, 0
2, 170648, Note_on_c, 0, 50, 0
2, 170655, Note_on_c, 0, 69, 0
2, 170758, Note_on_c, 0, 64, 41
2, 170762, Note_on_c, 0, 60, 25
2, 170763, Note_on_c, 0, 69, 45
2, 170778, Note_on_c, 0, 55, 35
2, 170783, Note_on_c, 0, 67, 37
2, 170784, Note_on_c, 0, 50, 32
2, 170825, Note_on_c, 0, 67, 0
2, 170846, Note_on_c, 0, 60, 0
2, 170850, Note_on_c, 0, 64, 0
2, 170868, Note_on_c, 0, 69, 0
2, 170869, Note_on_c, 0, 55, 0
2, 170880, Note_on_c, 0, 50, 0
2, 171235, Note_on_c, 0, 69, 61
2, 171239, Note_on_c, 0, 66, 52
2, 171241, Note_on_c, 0, 63, 54
2, 171242, Note_on_c, 0, 60, 43
2, 171247, Note_on_c, 0, 50, 49
2, 171257, Note_on_c, 0, 55, 48
2, 171491, Control_c, 0, 64, 127
2, 171543, Control_c, 0, 64, 0
2, 171574, Control_c, 0, 64, 127
2, 171725, Note_on_c, 0, 55, 0
2, 171750, Note_on_c, 0, 60, 0
2, 171754, Note_on_c, 0, 63, 0
2, 171782, Note_on_c, 0, 66, 0
2, 171787, Note_on_c, 0, 50, 0
2, 171788, Note_on_c, 0, 69, 0
2, 171898, Control_c, 0, 64, 0
2, 171939, Note_on_c, 0, 50, 46
2, 171940, Note_on_c, 0, 69, 58
2, 171941, Note_on_c, 0, 60, 49
2, 171943, Note_on_c, 0, 66, 53
2, 171946, Note_on_c, 0, 63, 52
2, 171947, Note_on_c, 0, 55, 43
2, 172022, Note_on_c, 0, 55, 0
2, 172043, Note_on_c, 0, 63, 0
2, 172046, Note_on_c, 0, 50, 0
2, 172063, Note_on_c, 0, 60, 0
2, 172089, Note_on_c, 0, 66, 0
2, 172090, Note_on_c, 0, 69, 0
2, 172223, Control_c, 0, 64, 127
2, 172254, Control_c, 0, 64, 0
2, 172419, Note_on_c, 0, 44, 35
2, 172422, Note_on_c, 0, 63, 44
2, 172429, Note_on_c, 0, 54, 26
2, 172464, Note_on_c, 0, 59, 17
2, 172604, Note_on_c, 0, 59, 0
2, 172649, Note_on_c, 0, 63, 0
2, 172663, Note_on_c, 0, 54, 0
2, 172671, Control_c, 0, 64, 127
2, 172691, Note_on_c, 0, 44, 0
2, 172849, Control_c, 0, 64, 0
2, 172902, Note_on_c, 0, 57, 58
2, 172905, Note_on_c, 0, 60, 48
2, 172909, Note_on_c, 0, 67, 51
2, 172911, Note_on_c, 0, 65, 54
2, 172916, Note_on_c, 0, 53, 44
2, 172920, Note_on_c, 0, 43, 38
2, 173360, Control_c, 0, 64, 127
2, 173405, Note_on_c, 0, 60, 0
2, 173424, Note_on_c, 0, 57, 0
2, 173589, Note_on_c, 0, 43, 0
2, 173680, Note_on_c, 0, 53, 0
2, 173796, Note_on_c, 0, 65, 0
2, 173808, Control_c, 0, 64, 0
2, 173834, Note_on_c, 0, 62, 55
2, 173839, Note_on_c, 0, 59, 57
2, 173851, Note_on_c, 0, 53, 42
2, 173855, Note_on_c, 0, 43, 32
2, 174037, Control_c, 0, 64, 127
2, 174280, Note_on_c, 0, 43, 0
2, 174296, Note_on_c, 0, 62, 0
2, 174297, Note_on_c, 0, 59, 0
2, 174348, Note_on_c, 0, 67, 0
2, 174370, Note_on_c, 0, 53, 0
2, 174715, Control_c, 0, 64, 0
2, 174780, Note_on_c, 0, 68, 69
2, 174783, Note_on_c, 0, 63, 69
2, 174789, Note_on_c, 0, 59, 67
2, 174795, Note_on_c, 0, 65, 62
2, 174809, Note_on_c, 0, 49, 63
2, 174914, Control_c, 0, 64, 127
2, 174934, Note_on_c, 0, 49, 0
2, 174993, Note_on_c, 0, 59, 0
2, 175038, Note_on_c, 0, 65, 0
2, 175058, Note_on_c, 0, 63, 0
2, 175077, Note_on_c, 0, 68, 0
2, 175486, Note_on_c, 0, 73, 70
2, 175497, Control_c, 0, 64, 0
2, 175499, Note_on_c, 0, 36, 50
2, 175504, Note_on_c, 0, 68, 69
2, 175505, Note_on_c, 0, 52, 51
2, 175507, Note_on_c, 0, 64, 67
2, 175642, Note_on_c, 0, 68, 0
2, 175646, Note_on_c, 0, 73, 0
2, 175667, Note_on_c, 0, 64, 0
2, 175687, Control_c, 0, 64, 127
2, 176010, Note_on_c, 0, 67, 80
2, 176012, Control_c, 0, 64, 0
2, 176089, Note_on_c, 0, 36, 0
2, 176146, Control_c, 0, 64, 127
2, 176265, Note_on_c, 0, 52, 0
2, 176540, Note_on_c, 0, 41, 48
2, 176553, Note_on_c, 0, 67, 0
2, 176614, Note_on_c, 0, 41, 0
2, 176619, Note_on_c, 0, 46, 45
2, 176668, Control_c, 0, 64, 0
2, 176670, Note_on_c, 0, 56, 42
2, 176672, Note_on_c, 0, 65, 47
2, 176679, Note_on_c, 0, 61, 47
2, 176758, Note_on_c, 0, 46, 0
2, 176773, Note_on_c, 0, 61, 0
2, 176778, Note_on_c, 0, 56, 0
2, 176799, Note_on_c, 0, 65, 0
2, 177124, Note_on_c, 0, 46, 35
2, 177126, Note_on_c, 0, 56, 34
2, 177128, Note_on_c, 0, 61, 46
2, 177136, Note_on_c, 0, 65, 40
2, 177260, Note_on_c, 0, 65, 0
2, 177298, Note_on_c, 0, 61, 0
2, 177311, Note_on_c, 0, 46, 0
2, 177330, Note_on_c, 0, 56, 0
2, 177904, Note_on_c, 0, 61, 52
2, 177905, Note_on_c, 0, 65, 38
2, 177908, Note_on_c, 0, 39, 50
2, 177924, Note_on_c, 0, 55, 24
2, 178006, Note_on_c, 0, 55, 0
2, 178008, Note_on_c, 0, 65, 0
2, 178044, Note_on_c, 0, 39, 0
2, 178052, Note_on_c, 0, 61, 0
2, 178357, Note_on_c, 0, 65, 42
2, 178362, Note_on_c, 0, 55, 44
2, 178364, Note_on_c, 0, 60, 36
2, 178375, Note_on_c, 0, 44, 34
2, 178459, Note_on_c, 0, 55, 0
2, 178485, Note_on_c, 0, 65, 0
2, 178493, Note_on_c, 0, 60, 0
2, 178525, Note_on_c, 0, 44, 0
2, 178855, Note_on_c, 0, 60, 35
2, 178856, Note_on_c, 0, 55, 45
2, 178860, Note_on_c, 0, 65, 36
2, 178862, Note_on_c, 0, 44, 35
2, 178965, Note_on_c, 0, 65, 0
2, 178966, Note_on_c, 0, 55, 0
2, 178985, Note_on_c, 0, 60, 0
2, 179108, Note_on_c, 0, 44, 0
2, 179337, Note_on_c, 0, 37, 28
2, 179381, Note_on_c, 0, 37, 0
2, 179529, Note_on_c, 0, 53, 51
2, 179541, Note_on_c, 0, 60, 35
2, 179542, Note_on_c, 0, 65, 32
2, 179560, Note_on_c, 0, 37, 33
2, 179683, Note_on_c, 0, 65, 0
2, 179684, Note_on_c, 0, 53, 0
2, 179689, Note_on_c, 0, 60, 0
2, 179697, Note_on_c, 0, 37, 0
2, 180019, Note_on_c, 0, 60, 38
2, 180022, Note_on_c, 0, 53, 44
2, 180023, Note_on_c, 0, 37, 46
2, 180034, Note_on_c, 0, 65, 30
2, 180166, Note_on_c, 0, 65, 0
2, 180179, Note_on_c, 0, 60, 0
2, 180190, Note_on_c, 0, 53, 0
2, 180232, Note_on_c, 0, 37, 0
2, 180512, Note_on_c, 0, 43, 51
2, 180514, Note_on_c, 0, 62, 53
2, 180516, Note_on_c, 0, 58, 51
2, 180520, Note_on_c, 0, 65, 42
2, 180521, Note_on_c, 0, 53, 45
2, 180641, Note_on_c, 0, 43, 0
2, 180646, Note_on_c, 0, 53, 0
2, 180652, Note_on_c, 0, 62, 0
2, 180658, Note_on_c, 0, 58, 0
2, 180682, Note_on_c, 0, 65, 0
2, 180980, Note_on_c, 0, 58, 58
2, 180983, Note_on_c, 0, 65, 54
2, 180993, Note_on_c, 0, 43, 44
2, 180995, Note_on_c, 0, 62, 51
2, 181000, Note_on_c, 0, 53, 44
2, 181042, Note_on_c, 0, 62, 0
2, 181087, Note_on_c, 0, 53, 0
2, 181129, Note_on_c, 0, 58, 0
2, 181159, Note_on_c, 0, 65, 0
2, 181162, Note_on_c, 0, 43, 0
2, 181446, Note_on_c, 0, 65, 59
2, 181447, Note_on_c, 0, 36, 64
2, 181455, Note_on_c, 0, 58, 56
2, 181459, Note_on_c, 0, 61, 53
2, 181460, Note_on_c, 0, 53, 49
2, 181589, Note_on_c, 0, 36, 0
2, 181602, Note_on_c, 0, 58, 0
2, 181613, Note_on_c, 0, 61, 0
2, 181614, Note_on_c, 0, 53, 0
2, 181650, Note_on_c, 0, 65, 0
2, 181762, Note_on_c, 0, 58, 40
2, 181765, Note_on_c, 0, 61, 42
2, 181771, Note_on_c, 0, 65, 18
2, 181805, Note_on_c, 0, 36, 42
2, 181888, Note_on_c, 0, 58, 0
2, 181903, Note_on_c, 0, 36, 0
2, 181915, Note_on_c, 0, 61, 0
2, 181931, Note_on_c, 0, 65, 0
2, 182216, Note_on_c, 0, 29, 65
2, 182218, Note_on_c, 0, 65, 77
2, 182221, Note_on_c, 0, 60, 64
2, 182222, Note_on_c, 0, 41, 72
2, 182226, Note_on_c, 0, 62, 74
2, 182310, Note_on_c, 0, 60, 0
2, 182343, Note_on_c, 0, 62, 0
2, 182371, Note_on_c, 0, 65, 0
2, 182384, Note_on_c, 0, 29, 0
2, 182412, Note_on_c, 0, 41, 0
2, 182719, Note_on_c, 0, 60, 30
2, 182870, Note_on_c, 0, 60, 0
2, 182929, Note_on_c, 0, 62, 57
2, 183104, Note_on_c, 0, 62, 0
2, 183179, Note_on_c, 0, 64, 73
2, 183341, Note_on_c, 0, 64, 0
2, 183407, Note_on_c, 0, 65, 76
2, 183589, Note_on_c, 0, 65, 0
2, 183649, Note_on_c, 0, 67, 68
2, 183790, Note_on_c, 0, 67, 0
2, 183885, Note_on_c, 0, 69, 63
2, 184021, Note_on_c, 0, 69, 0
2, 184161, Note_on_c, 0, 72, 35
2, 184207, Note_on_c, 0, 72, 0
2, 184359, Note_on_c, 0, 65, 79
2, 184363, Note_on_c, 0, 46, 48
2, 184449, Note_on_c, 0, 46, 0
2, 184474, Note_on_c, 0, 65, 0
2, 184819, Note_on_c, 0, 46, 37
2, 184827, Note_on_c, 0, 65, 60
2, 184828, Note_on_c, 0, 56, 55
2, 184830, Note_on_c, 0, 61, 56
2, 184929, Note_on_c, 0, 46, 0
2, 184933, Note_on_c, 0, 56, 0
2, 184960, Note_on_c, 0, 65, 0
2, 184967, Note_on_c, 0, 61, 0
2, 185313, Note_on_c, 0, 61, 44
2, 185318, Note_on_c, 0, 65, 34
2, 185321, Note_on_c, 0, 39, 35
2, 185331, Note_on_c, 0, 55, 32
2, 185339, Note_on_c, 0, 27, 28
2, 185811, Note_on_c, 0, 27, 0
2, 185832, Note_on_c, 0, 55, 0
2, 185860, Note_on_c, 0, 39, 0
2, 185906, Note_on_c, 0, 61, 0
2, 185964, Note_on_c, 0, 65, 0
2, 186101, Note_on_c, 0, 65, 42
2, 186102, Note_on_c, 0, 60, 36
2, 186105, Note_on_c, 0, 44, 36
2, 186107, Note_on_c, 0, 32, 47
2, 186108, Note_on_c, 0, 55, 44
2, 186176, Note_on_c, 0, 55, 0
2, 186202, Note_on_c, 0, 32, 0
2, 186204, Note_on_c, 0, 44, 0
2, 186214, Note_on_c, 0, 65, 0
2, 186219, Note_on_c, 0, 60, 0
2, 186580, Note_on_c, 0, 60, 42
2, 186581, Note_on_c, 0, 65, 40
2, 186588, Note_on_c, 0, 55, 51
2, 186593, Note_on_c, 0, 44, 42
2, 186605, Note_on_c, 0, 32, 43
2, 186639, Note_on_c, 0, 55, 0
2, 186666, Note_on_c, 0, 65, 0
2, 186669, Note_on_c, 0, 60, 0
2, 186697, Note_on_c, 0, 44, 0
2, 186710, Note_on_c, 0, 32, 0
2, 187039, Note_on_c, 0, 65, 66
2, 187041, Note_on_c, 0, 58, 73
2, 187048, Note_on_c, 0, 53, 67
2, 187057, Note_on_c, 0, 37, 69
2, 187133, Note_on_c, 0, 53, 0
2, 187163, Note_on_c, 0, 58, 0
2, 187180, Note_on_c, 0, 65, 0
2, 187208, Note_on_c, 0, 37, 0
2, 187515, Note_on_c, 0, 58, 74
2, 187516, Note_on_c, 0, 65, 66
2, 187524, Note_on_c, 0, 53, 62
2, 187525, Note_on_c, 0, 37, 62
2, 187608, Note_on_c, 0, 53, 0
2, 187633, Note_on_c, 0, 58, 0
2, 187633, Note_on_c, 0, 65, 0
2, 187654, Note_on_c, 0, 37, 0
2, 187737, Note_on_c, 0, 58, 63
2, 187739, Note_on_c, 0, 65, 64
2, 187744, Note_on_c, 0, 37, 51
2, 187755, Note_on_c, 0, 53, 46
2, 187863, Note_on_c, 0, 53, 0
2, 187864, Note_on_c, 0, 37, 0
2, 187876, Note_on_c, 0, 65, 0
2, 187896, Note_on_c, 0, 58, 0
2, 187988, Note_on_c, 0, 37, 52
2, 187994, Note_on_c, 0, 58, 52
2, 188009, Note_on_c, 0, 53, 31
2, 188057, Note_on_c, 0, 53, 0
2, 188112, Note_on_c, 0, 58, 0
2, 188171, Note_on_c, 0, 37, 0
2, 188206, Note_on_c, 0, 43, 60
2, 188209, Note_on_c, 0, 65, 61
2, 188214, Note_on_c, 0, 58, 57
2, 188226, Note_on_c, 0, 62, 58
2, 188229, Note_on_c, 0, 53, 54
2, 188279, Note_on_c, 0, 53, 0
2, 188321, Note_on_c, 0, 58, 0
2, 188322, Note_on_c, 0, 65, 0
2, 188328, Note_on_c, 0, 43, 0
2, 188331, Note_on_c, 0, 62, 0
2, 188670, Note_on_c, 0, 62, 68
2, 188672, Note_on_c, 0, 58, 76
2, 188673, Note_on_c, 0, 43, 64
2, 188684, Note_on_c, 0, 65, 63
2, 188685, Note_on_c, 0, 53, 68
2, 188762, Note_on_c, 0, 43, 0
2, 188764, Note_on_c, 0, 53, 0
2, 188824, Note_on_c, 0, 62, 0
2, 188827, Note_on_c, 0, 58, 0
2, 188883, Note_on_c, 0, 65, 0
2, 189142, Note_on_c, 0, 36, 78
2, 189144, Note_on_c, 0, 24, 67
2, 189149, Note_on_c, 0, 65, 77
2, 189152, Note_on_c, 0, 58, 85
2, 189157, Note_on_c, 0, 61, 75
2, 189158, Note_on_c, 0, 53, 88
2, 189298, Note_on_c, 0, 53, 0
2, 189311, Note_on_c, 0, 58, 0
2, 189318, Note_on_c, 0, 61, 0
2, 189349, Note_on_c, 0, 36, 0
2, 189350, Note_on_c, 0, 24, 0
2, 189394, Note_on_c, 0, 36, 32
2, 189402, Note_on_c, 0, 58, 49
2, 189403, Note_on_c, 0, 61, 55
2, 189405, Note_on_c, 0, 53, 36
2, 189407, Note_on_c, 0, 24, 42
2, 189501, Note_on_c, 0, 53, 0
2, 189515, Note_on_c, 0, 36, 0
2, 189516, Note_on_c, 0, 65, 0
2, 189524, Note_on_c, 0, 58, 0
2, 189525, Note_on_c, 0, 61, 0
2, 189560, Note_on_c, 0, 24, 0
2, 189618, Note_on_c, 0, 24, 31
2, 189628, Note_on_c, 0, 58, 54
2, 189632, Note_on_c, 0, 65, 36
2, 189637, Note_on_c, 0, 36, 47
2, 189640, Note_on_c, 0, 53, 40
2, 189644, Note_on_c, 0, 61, 48
2, 189697, Note_on_c, 0, 53, 0
2, 189718, Note_on_c, 0, 24, 0
2, 189735, Note_on_c, 0, 58, 0
2, 189737, Note_on_c, 0, 61, 0
2, 189740, Note_on_c, 0, 36, 0
2, 189750, Note_on_c, 0, 65, 0
2, 189916, Note_on_c, 0, 60, 73
2, 189917, Note_on_c, 0, 65, 84
2, 189918, Note_on_c, 0, 41, 88
2, 189920, Note_on_c, 0, 57, 87
2, 189925, Note_on_c, 0, 62, 82
2, 190025, Note_on_c, 0, 57, 0
2, 190073, Note_on_c, 0, 60, 0
2, 190081, Note_on_c, 0, 62, 0
2, 190093, Note_on_c, 0, 65, 0
2, 190121, Note_on_c, 0, 41, 0
2, 190309, Note_on_c, 0, 74, 95
2, 190312, Note_on_c, 0, 73, 52
2, 190345, Note_on_c, 0, 73, 0
2, 190414, Note_on_c, 0, 74, 0
2, 190561, Note_on_c, 0, 72, 94
2, 190778, Note_on_c, 0, 72, 0
2, 191004, Note_on_c, 0, 74, 85
2, 191005, Note_on_c, 0, 68, 87
2, 191123, Note_on_c, 0, 69, 57
2, 191124, Note_on_c, 0, 68, 0
2, 191214, Note_on_c, 0, 74, 0
2, 191234, Note_on_c, 0, 69, 0
2, 191498, Note_on_c, 0, 62, 66
2, 191720, Note_on_c, 0, 62, 0
2, 191970, Note_on_c, 0, 41, 52
2, 191985, Note_on_c, 0, 65, 66
2, 192132, Note_on_c, 0, 65, 0
2, 192171, Note_on_c, 0, 41, 0
2, 192320, Note_on_c, 0, 60, 46
2, 192322, Note_on_c, 0, 62, 71
2, 192356, Note_on_c, 0, 60, 0
2, 192357, Note_on_c, 0, 62, 0
2, 192775, Note_on_c, 0, 39, 68
2, 192781, Note_on_c, 0, 51, 60
2, 192792, Control_c, 0, 64, 127
2, 192860, Note_on_c, 0, 51, 0
2, 192875, Note_on_c, 0, 39, 0
2, 193448, Note_on_c, 0, 55, 65
2, 193449, Note_on_c, 0, 60, 44
2, 193452, Control_c, 0, 64, 0
2, 193453, Note_on_c, 0, 64, 49
2, 193459, Note_on_c, 0, 45, 62
2, 193769, Control_c, 0, 64, 127
2, 193885, Note_on_c, 0, 55, 0
2, 193908, Note_on_c, 0, 45, 0
2, 193968, Note_on_c, 0, 60, 0
2, 194007, Note_on_c, 0, 64, 0
2, 194211, Control_c, 0, 64, 0
2, 194221, Note_on_c, 0, 65, 85
2, 194223, Note_on_c, 0, 60, 56
2, 194224, Note_on_c, 0, 55, 75
2, 194226, Note_on_c, 0, 61, 57
2, 194247, Note_on_c, 0, 58, 44
2, 194530, Note_on_c, 0, 55, 0
2, 194563, Note_on_c, 0, 58, 0
2, 194567, Note_on_c, 0, 65, 0
2, 194585, Note_on_c, 0, 60, 0
2, 194637, Note_on_c, 0, 61, 0
2, 194688, Note_on_c, 0, 64, 77
2, 194689, Note_on_c, 0, 60, 46
2, 194699, Note_on_c, 0, 59, 72
2, 194705, Note_on_c, 0, 54, 64
2, 194962, Control_c, 0, 64, 127
2, 195149, Note_on_c, 0, 81, 95
2, 195251, Control_c, 0, 64, 0
2, 195285, Note_on_c, 0, 59, 0
2, 195303, Note_on_c, 0, 81, 0
2, 195341, Note_on_c, 0, 60, 0
2, 195380, Note_on_c, 0, 82, 69
2, 195406, Note_on_c, 0, 64, 0
2, 195488, Note_on_c, 0, 54, 0
2, 195539, Note_on_c, 0, 82, 0
2, 195611, Note_on_c, 0, 84, 91
2, 195752, Note_on_c, 0, 84, 0
2, 195822, Note_on_c, 0, 62, 64
2, 195826, Note_on_c, 0, 84, 71
2, 195830, Note_on_c, 0, 57, 33
2, 195831, Note_on_c, 0, 58, 55
2, 195833, Note_on_c, 0, 72, 71
2, 195851, Note_on_c, 0, 53, 27
2, 195866, Note_on_c, 0, 62, 0
2, 195874, Note_on_c, 0, 57, 0
2, 195904, Note_on_c, 0, 58, 0
2, 195940, Note_on_c, 0, 53, 0
2, 195981, Note_on_c, 0, 84, 0
2, 196033, Note_on_c, 0, 72, 0
2, 196100, Note_on_c, 0, 82, 32
2, 196208, Note_on_c, 0, 82, 0
2, 196285, Note_on_c, 0, 85, 69
2, 196296, Note_on_c, 0, 73, 69
2, 196520, Note_on_c, 0, 85, 0
2, 196527, Note_on_c, 0, 86, 70
2, 196539, Note_on_c, 0, 74, 75
2, 196540, Note_on_c, 0, 73, 0
2, 196550, Note_on_c, 0, 84, 48
2, 196595, Note_on_c, 0, 84, 0
2, 196616, Note_on_c, 0, 74, 0
2, 196619, Note_on_c, 0, 86, 0
2, 196728, Note_on_c, 0, 43, 46
2, 196765, Note_on_c, 0, 70, 60
2, 196766, Note_on_c, 0, 82, 39
2, 196817, Note_on_c, 0, 43, 0
2, 196886, Note_on_c, 0, 82, 0
2, 196917, Note_on_c, 0, 70, 0
2, 197183, Note_on_c, 0, 36, 53
2, 197236, Note_on_c, 0, 36, 0
2, 197282, Control_c, 0, 64, 127
2, 197620, Control_c, 0, 64, 0
2, 197658, Note_on_c, 0, 80, 49
2, 197659, Note_on_c, 0, 81, 76
2, 197661, Note_on_c, 0, 73, 60
2, 197663, Note_on_c, 0, 69, 72
2, 197670, Note_on_c, 0, 64, 65
2, 197673, Note_on_c, 0, 76, 67
2, 197693, Note_on_c, 0, 71, 38
2, 197718, Note_on_c, 0, 80, 0
2, 197731, Note_on_c, 0, 71, 0
2, 197761, Note_on_c, 0, 64, 0
2, 197771, Note_on_c, 0, 73, 0
2, 197776, Note_on_c, 0, 81, 0
2, 197779, Note_on_c, 0, 69, 0
2, 197799, Note_on_c, 0, 76, 0
2, 197876, Note_on_c, 0, 64, 24
2, 197922, Note_on_c, 0, 64, 0
2, 198006, Note_on_c, 0, 77, 73
2, 198015, Note_on_c, 0, 69, 68
2, 198020, Note_on_c, 0, 73, 44
2, 198031, Note_on_c, 0, 58, 58
2, 198050, Note_on_c, 0, 69, 0
2, 198058, Note_on_c, 0, 73, 0
2, 198083, Note_on_c, 0, 77, 0
2, 198114, Note_on_c, 0, 58, 0
2, 198449, Note_on_c, 0, 75, 67
2, 198460, Note_on_c, 0, 68, 71
2, 198461, Note_on_c, 0, 58, 65
2, 198464, Note_on_c, 0, 72, 61
2, 198465, Note_on_c, 0, 64, 63
2, 198585, Note_on_c, 0, 72, 0
2, 198617, Note_on_c, 0, 64, 0
2, 198623, Note_on_c, 0, 75, 0
2, 198627, Note_on_c, 0, 68, 0
2, 198719, Control_c, 0, 64, 127
2, 198725, Note_on_c, 0, 73, 48
2, 198727, Note_on_c, 0, 64, 44
2, 198737, Note_on_c, 0, 68, 60
2, 198915, Note_on_c, 0, 64, 0
2, 198918, Note_on_c, 0, 73, 0
2, 198943, Note_on_c, 0, 68, 0
2, 198956, Note_on_c, 0, 58, 0
2, 199180, Note_on_c, 0, 46, 48
2, 199181, Control_c, 0, 64, 0
2, 199187, Note_on_c, 0, 70, 59
2, 199190, Note_on_c, 0, 61, 53
2, 199219, Note_on_c, 0, 66, 37
2, 199257, Control_c, 0, 64, 127
2, 199276, Note_on_c, 0, 46, 0
2, 199344, Note_on_c, 0, 66, 0
2, 199356, Note_on_c, 0, 70, 0
2, 199369, Note_on_c, 0, 61, 0
2, 199623, Control_c, 0, 64, 0
2, 199684, Note_on_c, 0, 60, 31
2, 199687, Note_on_c, 0, 67, 44
2, 199689, Note_on_c, 0, 55, 39
2, 199690, Note_on_c, 0, 45, 35
2, 199696, Note_on_c, 0, 64, 36
2, 199697, Note_on_c, 0, 52, 36
2, 199837, Control_c, 0, 64, 127
2, 199933, Note_on_c, 0, 60, 0
2, 199981, Note_on_c, 0, 64, 0
2, 199991, Note_on_c, 0, 45, 0
2, 200003, Note_on_c, 0, 67, 0
2, 200026, Note_on_c, 0, 52, 0
2, 200063, Note_on_c, 0, 55, 0
2, 200193, Note_on_c, 0, 79, 90
2, 200426, Note_on_c, 0, 79, 0
2, 200479, Note_on_c, 0, 67, 59
2, 200588, Control_c, 0, 64, 0
2, 200630, Note_on_c, 0, 64, 51
2, 200649, Note_on_c, 0, 60, 26
2, 200688, Note_on_c, 0, 64, 0
2, 200696, Note_on_c, 0, 60, 0
2, 200790, Control_c, 0, 64, 127
2, 200902, Note_on_c, 0, 67, 0
2, 200927, Note_on_c, 0, 72, 63
2, 201042, Note_on_c, 0, 72, 0
2, 201069, Control_c, 0, 64, 0
2, 201152, Note_on_c, 0, 76, 67
2, 201227, Note_on_c, 0, 76, 0
2, 201412, Note_on_c, 0, 79, 84
2, 201413, Note_on_c, 0, 72, 91
2, 201518, Note_on_c, 0, 38, 43
2, 201535, Note_on_c, 0, 45, 27
2, 201546, Note_on_c, 0, 53, 36
2, 201618, Control_c, 0, 64, 127
2, 201659, Note_on_c, 0, 38, 0
2, 201661, Note_on_c, 0, 45, 0
2, 201742, Note_on_c, 0, 53, 0
2, 201753, Control_c, 0, 64, 0
2, 201776, Note_on_c, 0, 72, 0
2, 201778, Note_on_c, 0, 79, 0
2, 201844, Note_on_c, 0, 76, 45
2, 201851, Note_on_c, 0, 67, 47
2, 201859, Note_on_c, 0, 72, 32
2, 201894, Note_on_c, 0, 76, 0
2, 201904, Note_on_c, 0, 72, 0
2, 201908, Note_on_c, 0, 67, 0
2, 202053, Note_on_c, 0, 64, 66
2, 202055, Note_on_c, 0, 76, 73
2, 202056, Note_on_c, 0, 69, 71
2, 202058, Note_on_c, 0, 65, 71
2, 202292, Control_c, 0, 64, 127
2, 202426, Control_c, 0, 64, 0
2, 202437, Note_on_c, 0, 64, 0
2, 202456, Note_on_c, 0, 65, 0
2, 202530, Note_on_c, 0, 74, 57
2, 202532, Control_c, 0, 64, 127
2, 202543, Note_on_c, 0, 65, 44
2, 202548, Note_on_c, 0, 76, 0
2, 202551, Note_on_c, 0, 62, 56
2, 202700, Note_on_c, 0, 69, 0
2, 202713, Note_on_c, 0, 74, 0
2, 202756, Note_on_c, 0, 65, 0
2, 203004, Control_c, 0, 64, 0
2, 203034, Note_on_c, 0, 60, 29
2, 203036, Note_on_c, 0, 62, 0
2, 203046, Note_on_c, 0, 65, 33
2, 203095, Note_on_c, 0, 60, 0
2, 203269, Note_on_c, 0, 65, 0
2, 203282, Note_on_c, 0, 64, 49
2, 203302, Control_c, 0, 64, 127
2, 203339, Note_on_c, 0, 64, 0
2, 203437, Control_c, 0, 64, 0
2, 203494, Note_on_c, 0, 67, 60
2, 203498, Note_on_c, 0, 59, 57
2, 203519, Note_on_c, 0, 53, 47
2, 203524, Note_on_c, 0, 43, 33
2, 203914, Note_on_c, 0, 59, 0
2, 203947, Control_c, 0, 64, 127
2, 204028, Note_on_c, 0, 43, 0
2, 204045, Note_on_c, 0, 53, 0
2, 204125, Note_on_c, 0, 67, 0
2, 204207, Control_c, 0, 64, 0
2, 204227, Note_on_c, 0, 69, 57
2, 204234, Note_on_c, 0, 65, 50
2, 204238, Note_on_c, 0, 59, 42
2, 204240, Note_on_c, 0, 43, 26
2, 204241, Note_on_c, 0, 61, 47
2, 204248, Note_on_c, 0, 54, 39
2, 204305, Note_on_c, 0, 59, 0
2, 204336, Note_on_c, 0, 61, 0
2, 204357, Note_on_c, 0, 65, 0
2, 204359, Note_on_c, 0, 69, 0
2, 204402, Note_on_c, 0, 54, 0
2, 204413, Note_on_c, 0, 43, 0
2, 204514, Note_on_c, 0, 64, 60
2, 204515, Note_on_c, 0, 43, 18
2, 204524, Note_on_c, 0, 53, 48
2, 204533, Note_on_c, 0, 59, 40
2, 204664, Note_on_c, 0, 59, 0
2, 204665, Note_on_c, 0, 64, 0
2, 204709, Note_on_c, 0, 43, 0
2, 204770, Note_on_c, 0, 53, 0
2, 204974, Note_on_c, 0, 44, 65
2, 205025, Control_c, 0, 64, 127
2, 205153, Note_on_c, 0, 44, 0
2, 205400, Control_c, 0, 64, 0
2, 205460, Note_on_c, 0, 71, 64
2, 205469, Note_on_c, 0, 62, 68
2, 205472, Note_on_c, 0, 67, 60
2, 205480, Note_on_c, 0, 56, 57
2, 205586, Note_on_c, 0, 71, 0
2, 205641, Note_on_c, 0, 62, 0
2, 205688, Note_on_c, 0, 67, 0
2, 205718, Note_on_c, 0, 74, 68
2, 205734, Note_on_c, 0, 59, 42
2, 205747, Control_c, 0, 64, 127
2, 205791, Note_on_c, 0, 74, 0
2, 205833, Control_c, 0, 64, 0
2, 205887, Note_on_c, 0, 59, 0
2, 205919, Note_on_c, 0, 56, 0
2, 205925, Note_on_c, 0, 62, 64
2, 205949, Note_on_c, 0, 68, 39
2, 205961, Note_on_c, 0, 77, 35
2, 206002, Note_on_c, 0, 77, 0
2, 206057, Note_on_c, 0, 68, 0
2, 206137, Note_on_c, 0, 62, 0
2, 206179, Note_on_c, 0, 65, 63
2, 206196, Note_on_c, 0, 80, 60
2, 206263, Note_on_c, 0, 80, 0
2, 206288, Note_on_c, 0, 65, 0
2, 206639, Note_on_c, 0, 83, 51
2, 206649, Note_on_c, 0, 68, 43
2, 206652, Control_c, 0, 64, 127
2, 206711, Note_on_c, 0, 83, 0
2, 206787, Control_c, 0, 64, 0
2, 206861, Note_on_c, 0, 86, 82
2, 206863, Note_on_c, 0, 71, 57
2, 206877, Note_on_c, 0, 68, 0
2, 206885, Control_c, 0, 64, 127
2, 206895, Note_on_c, 0, 71, 0
2, 206995, Note_on_c, 0, 86, 0
2, 207299, Control_c, 0, 64, 0
2, 207333, Note_on_c, 0, 84, 78
2, 207342, Note_on_c, 0, 72, 64
2, 207354, Note_on_c, 0, 77, 53
2, 207375, Note_on_c, 0, 43, 38
2, 207390, Note_on_c, 0, 77, 0
2, 207391, Note_on_c, 0, 72, 0
2, 207412, Note_on_c, 0, 43, 0
2, 207419, Note_on_c, 0, 84, 0
2, 208116, Note_on_c, 0, 62, 73
2, 208134, Note_on_c, 0, 58, 49
2, 208139, Note_on_c, 0, 57, 31
2, 208181, Note_on_c, 0, 62, 0
2, 208182, Note_on_c, 0, 57, 0
2, 208212, Note_on_c, 0, 58, 0
2, 208329, Note_on_c, 0, 62, 62
2, 208465, Note_on_c, 0, 62, 0
2, 208579, Note_on_c, 0, 65, 67
2, 208717, Note_on_c, 0, 65, 0
2, 208780, Note_on_c, 0, 43, 48
2, 208805, Note_on_c, 0, 69, 44
2, 208860, Note_on_c, 0, 43, 0
2, 208881, Note_on_c, 0, 69, 0
2, 209035, Note_on_c, 0, 74, 87
2, 209047, Note_on_c, 0, 36, 74
2, 209131, Note_on_c, 0, 36, 0
2, 209184, Note_on_c, 0, 74, 0
2, 209270, Note_on_c, 0, 72, 71
2, 209529, Note_on_c, 0, 60, 29
2, 209538, Note_on_c, 0, 58, 34
2, 209565, Note_on_c, 0, 60, 0
2, 209637, Note_on_c, 0, 58, 0
2, 209691, Note_on_c, 0, 64, 44
2, 209700, Note_on_c, 0, 68, 46
2, 209818, Note_on_c, 0, 72, 0
2, 209843, Note_on_c, 0, 64, 0
2, 209852, Note_on_c, 0, 68, 0
2, 209970, Note_on_c, 0, 74, 68
2, 209989, Note_on_c, 0, 48, 43
2, 209998, Note_on_c, 0, 62, 72
2, 210003, Note_on_c, 0, 58, 60
2, 210196, Control_c, 0, 64, 127
2, 210199, Note_on_c, 0, 48, 0
2, 210241, Note_on_c, 0, 58, 0
2, 210299, Note_on_c, 0, 74, 0
2, 210354, Note_on_c, 0, 62, 0
2, 210439, Note_on_c, 0, 46, 37
2, 210514, Note_on_c, 0, 46, 0
2, 210629, Control_c, 0, 64, 0
2, 210679, Note_on_c, 0, 69, 68
2, 210685, Note_on_c, 0, 41, 67
2, 210696, Note_on_c, 0, 60, 41
2, 210700, Note_on_c, 0, 64, 46
2, 210860, Note_on_c, 0, 60, 0
2, 210907, Note_on_c, 0, 69, 0
2, 210918, Note_on_c, 0, 64, 0
2, 211459, Note_on_c, 0, 57, 40
2, 211460, Note_on_c, 0, 60, 45
2, 211477, Note_on_c, 0, 64, 42
2, 211524, Note_on_c, 0, 57, 0
2, 211530, Note_on_c, 0, 64, 0
2, 211536, Note_on_c, 0, 60, 0
2, 211880, Note_on_c, 0, 41, 0
2, 211902, Note_on_c, 0, 48, 61
2, 212158, Note_on_c, 0, 62, 64
2, 212178, Note_on_c, 0, 60, 29
2, 212210, Note_on_c, 0, 48, 0
2, 212313, Control_c, 0, 64, 127
2, 212455, Note_on_c, 0, 60, 0
2, 212570, Note_on_c, 0, 62, 0
2, 212608, Note_on_c, 0, 62, 47
2, 212615, Note_on_c, 0, 58, 69
2, 212630, Control_c, 0, 64, 0
2, 212632, Note_on_c, 0, 57, 58
2, 212958, Control_c, 0, 64, 127
2, 213015, Control_c, 0, 64, 0
2, 213052, Note_on_c, 0, 57, 0
2, 213085, Note_on_c, 0, 45, 69
2, 213168, Note_on_c, 0, 58, 0
2, 213179, Note_on_c, 0, 62, 0
2, 213257, Control_c, 0, 64, 127
2, 213363, Control_c, 0, 64, 0
2, 213394, Note_on_c, 0, 69, 71
2, 213395, Note_on_c, 0, 58, 79
2, 213398, Note_on_c, 0, 62, 81
2, 213407, Note_on_c, 0, 64, 57
2, 213416, Note_on_c, 0, 57, 71
2, 213507, Control_c, 0, 64, 127
2, 213659, Note_on_c, 0, 64, 0
2, 213660, Note_on_c, 0, 62, 0
2, 213666, Note_on_c, 0, 69, 0
2, 213675, Note_on_c, 0, 58, 0
2, 213702, Note_on_c, 0, 57, 0
2, 213739, Note_on_c, 0, 45, 0
2, 213830, Note_on_c, 0, 70, 57
2, 213843, Note_on_c, 0, 61, 81
2, 213844, Note_on_c, 0, 63, 74
2, 213845, Note_on_c, 0, 71, 88
2, 213854, Control_c, 0, 64, 0
2, 213855, Note_on_c, 0, 45, 64
2, 213857, Note_on_c, 0, 67, 56
2, 213860, Note_on_c, 0, 55, 76
2, 214071, Note_on_c, 0, 70, 0
2, 214085, Note_on_c, 0, 63, 0
2, 214092, Note_on_c, 0, 55, 0
2, 214094, Control_c, 0, 64, 127
2, 214095, Note_on_c, 0, 45, 0
2, 214096, Note_on_c, 0, 71, 0
2, 214097, Note_on_c, 0, 61, 0
2, 214098, Note_on_c, 0, 67, 0
2, 214159, Note_on_c, 0, 71, 70
2, 214166, Note_on_c, 0, 45, 63
2, 214169, Note_on_c, 0, 55, 64
2, 214170, Note_on_c, 0, 61, 59
2, 214174, Note_on_c, 0, 63, 60
2, 214181, Note_on_c, 0, 67, 53
2, 214189, Note_on_c, 0, 69, 40
2, 214294, Note_on_c, 0, 69, 0
2, 214296, Note_on_c, 0, 71, 0
2, 214301, Note_on_c, 0, 67, 0
2, 214359, Note_on_c, 0, 63, 0
2, 214362, Note_on_c, 0, 61, 0
2, 214509, Note_on_c, 0, 55, 0
2, 214565, Control_c, 0, 64, 0
2, 214573, Note_on_c, 0, 45, 0
2, 214585, Note_on_c, 0, 67, 53
2, 214594, Note_on_c, 0, 59, 51
2, 214600, Note_on_c, 0, 61, 46
2, 214608, Note_on_c, 0, 52, 45
2, 214690, Control_c, 0, 64, 127
2, 214859, Note_on_c, 0, 61, 0
2, 214871, Note_on_c, 0, 59, 0
2, 214882, Note_on_c, 0, 67, 0
2, 214960, Control_c, 0, 64, 0
2, 215000, Note_on_c, 0, 52, 0
2, 215064, Note_on_c, 0, 61, 56
2, 215066, Note_on_c, 0, 66, 55
2, 215074, Note_on_c, 0, 57, 31
2, 215077, Note_on_c, 0, 50, 45
2, 215098, Note_on_c, 0, 61, 0
2, 215108, Note_on_c, 0, 57, 0
2, 215114, Control_c, 0, 64, 127
2, 215147, Note_on_c, 0, 50, 0
2, 215156, Note_on_c, 0, 66, 0
2, 215316, Control_c, 0, 64, 0
2, 215343, Note_on_c, 0, 81, 80
2, 215453, Note_on_c, 0, 81, 0
2, 215576, Note_on_c, 0, 69, 34
2, 215633, Note_on_c, 0, 69, 0
2, 215813, Note_on_c, 0, 69, 37
2, 215836, Control_c, 0, 64, 127
2, 215909, Note_on_c, 0, 69, 0
2, 215923, Control_c, 0, 64, 0
2, 215998, Note_on_c, 0, 64, 38
2, 216002, Note_on_c, 0, 61, 33
2, 216005, Note_on_c, 0, 78, 63
2, 216028, Note_on_c, 0, 54, 25
2, 216076, Note_on_c, 0, 64, 0
2, 216098, Note_on_c, 0, 61, 0
2, 216099, Note_on_c, 0, 78, 0
2, 216125, Note_on_c, 0, 54, 0
2, 216258, Note_on_c, 0, 78, 43
2, 216372, Note_on_c, 0, 78, 0
2, 216446, Note_on_c, 0, 66, 47
2, 216452, Note_on_c, 0, 50, 43
2, 216525, Note_on_c, 0, 50, 0
2, 216596, Control_c, 0, 64, 127
2, 216724, Note_on_c, 0, 66, 0
2, 216837, Control_c, 0, 64, 0
2, 216869, Note_on_c, 0, 65, 64
2, 216871, Note_on_c, 0, 54, 44
2, 216884, Note_on_c, 0, 60, 36
2, 217384, Note_on_c, 0, 77, 105
2, 217434, Control_c, 0, 64, 127
2, 217678, Note_on_c, 0, 76, 62
2, 217693, Control_c, 0, 64, 0
2, 217709, Note_on_c, 0, 77, 0
2, 217763, Note_on_c, 0, 75, 67
2, 217782, Note_on_c, 0, 76, 0
2, 217809, Note_on_c, 0, 60, 0
2, 217820, Note_on_c, 0, 65, 0
2, 217849, Note_on_c, 0, 75, 0
2, 217867, Note_on_c, 0, 74, 55
2, 217876, Note_on_c, 0, 54, 0
2, 217944, Note_on_c, 0, 74, 0
2, 218142, Note_on_c, 0, 72, 47
2, 218243, Note_on_c, 0, 72, 0
2, 218341, Note_on_c, 0, 66, 38
2, 218472, Note_on_c, 0, 66, 0
2, 218598, Control_c, 0, 64, 127
2, 218599, Note_on_c, 0, 65, 42
2, 218728, Note_on_c, 0, 65, 0
2, 218733, Control_c, 0, 64, 0
2, 219092, Note_on_c, 0, 73, 67
2, 219093, Note_on_c, 0, 66, 81
2, 219108, Note_on_c, 0, 70, 69
2, 219110, Note_on_c, 0, 61, 40
2, 219119, Note_on_c, 0, 58, 58
2, 219199, Note_on_c, 0, 66, 0
2, 219208, Note_on_c, 0, 61, 0
2, 219221, Note_on_c, 0, 70, 0
2, 219229, Note_on_c, 0, 73, 0
2, 219257, Note_on_c, 0, 58, 0
2, 219528, Note_on_c, 0, 73, 39
2, 219530, Note_on_c, 0, 61, 47
2, 219538, Note_on_c, 0, 58, 47
2, 219541, Note_on_c, 0, 66, 35
2, 219566, Note_on_c, 0, 70, 34
2, 219609, Control_c, 0, 64, 127
2, 219638, Note_on_c, 0, 61, 0
2, 219675, Note_on_c, 0, 70, 0
2, 219698, Note_on_c, 0, 73, 0
2, 219709, Note_on_c, 0, 66, 0
2, 219712, Note_on_c, 0, 58, 0
2, 219715, Control_c, 0, 64, 0
2, 219765, Note_on_c, 0, 61, 51
2, 219766, Note_on_c, 0, 73, 46
2, 219781, Note_on_c, 0, 65, 43
2, 219787, Note_on_c, 0, 58, 27
2, 219795, Note_on_c, 0, 70, 37
2, 219849, Note_on_c, 0, 61, 0
2, 219865, Note_on_c, 0, 65, 0
2, 219868, Note_on_c, 0, 58, 0
2, 219879, Note_on_c, 0, 73, 0
2, 219887, Note_on_c, 0, 70, 0
2, 220286, Note_on_c, 0, 43, 40
2, 220288, Note_on_c, 0, 65, 58
2, 220294, Note_on_c, 0, 72, 50
2, 220300, Note_on_c, 0, 58, 35
2, 220319, Note_on_c, 0, 71, 46
2, 220323, Note_on_c, 0, 69, 29
2, 220351, Note_on_c, 0, 71, 0
2, 220464, Note_on_c, 0, 69, 0
2, 220494, Note_on_c, 0, 72, 0
2, 220495, Note_on_c, 0, 58, 0
2, 220501, Note_on_c, 0, 65, 0
2, 220575, Note_on_c, 0, 72, 46
2, 220591, Note_on_c, 0, 58, 33
2, 220592, Note_on_c, 0, 65, 61
2, 220667, Note_on_c, 0, 58, 0
2, 220693, Note_on_c, 0, 65, 0
2, 220704, Note_on_c, 0, 72, 0
2, 220747, Note_on_c, 0, 43, 0
2, 221007, Note_on_c, 0, 68, 63
2, 221017, Note_on_c, 0, 58, 57
2, 221037, Note_on_c, 0, 55, 44
2, 221038, Note_on_c, 0, 48, 46
2, 221039, Note_on_c, 0, 61, 52
2, 221046, Note_on_c, 0, 64, 35
2, 221236, Control_c, 0, 64, 127
2, 221488, Note_on_c, 0, 64, 0
2, 221524, Note_on_c, 0, 61, 0
2, 221566, Note_on_c, 0, 55, 0
2, 221585, Note_on_c, 0, 58, 0
2, 221685, Note_on_c, 0, 68, 0
2, 221711, Note_on_c, 0, 55, 37
2, 221713, Note_on_c, 0, 64, 32
2, 221714, Note_on_c, 0, 58, 45
2, 221716, Control_c, 0, 64, 0
2, 221718, Note_on_c, 0, 61, 55
2, 221847, Note_on_c, 0, 48, 0
2, 221947, Control_c, 0, 64, 127
2, 222055, Note_on_c, 0, 55, 0
2, 222149, Control_c, 0, 64, 0
2, 222198, Note_on_c, 0, 58, 0
2, 222204, Note_on_c, 0, 64, 0
2, 222228, Note_on_c, 0, 48, 55
2, 222274, Control_c, 0, 64, 127
2, 222275, Note_on_c, 0, 61, 0
2, 222503, Note_on_c, 0, 48, 0
2, 222506, Note_on_c, 0, 41, 80
2, 222573, Control_c, 0, 64, 0
2, 222677, Note_on_c, 0, 41, 0
2, 222735, Note_on_c, 0, 74, 108
2, 222997, Note_on_c, 0, 72, 66
2, 223035, Note_on_c, 0, 74, 0
2, 223119, Note_on_c, 0, 72, 0
2, 223214, Note_on_c, 0, 65, 44
2, 223239, Note_on_c, 0, 62, 51
2, 223242, Note_on_c, 0, 57, 41
2, 223280, Note_on_c, 0, 62, 0
2, 223316, Note_on_c, 0, 57, 0
2, 223420, Note_on_c, 0, 65, 0
2, 223516, Note_on_c, 0, 65, 56
2, 223611, Note_on_c, 0, 65, 0
2, 223703, Note_on_c, 0, 56, 78
2, 223705, Note_on_c, 0, 46, 71
2, 224052, Note_on_c, 0, 56, 0
2, 224072, Note_on_c, 0, 46, 0
2, 224155, Note_on_c, 0, 45, 74
2, 224556, Note_on_c, 0, 45, 0
2, 224595, Control_c, 0, 64, 127
2, 224609, Note_on_c, 0, 79, 63
2, 224615, Note_on_c, 0, 67, 65
2, 224618, Note_on_c, 0, 72, 60
2, 224620, Note_on_c, 0, 76, 57
2, 224684, Note_on_c, 0, 67, 0
2, 224748, Note_on_c, 0, 72, 0
2, 224788, Note_on_c, 0, 76, 0
2, 224823, Note_on_c, 0, 79, 0
2, 224915, Note_on_c, 0, 64, 51
2, 224917, Note_on_c, 0, 55, 55
2, 224920, Note_on_c, 0, 60, 31
2, 224936, Note_on_c, 0, 59, 37
2, 225099, Note_on_c, 0, 64, 0
2, 225106, Note_on_c, 0, 59, 0
2, 225134, Note_on_c, 0, 55, 0
2, 225139, Note_on_c, 0, 60, 0
2, 225338, Note_on_c, 0, 60, 59
2, 225343, Note_on_c, 0, 54, 85
2, 225344, Note_on_c, 0, 65, 90
2, 225351, Note_on_c, 0, 81, 84
2, 225354, Note_on_c, 0, 69, 91
2, 225357, Control_c, 0, 64, 0
2, 225360, Note_on_c, 0, 76, 74
2, 225368, Note_on_c, 0, 78, 37
2, 225369, Note_on_c, 0, 77, 43
2, 225400, Note_on_c, 0, 78, 0
2, 225402, Note_on_c, 0, 77, 0
2, 225505, Note_on_c, 0, 69, 0
2, 225518, Note_on_c, 0, 81, 0
2, 225603, Note_on_c, 0, 76, 0
2, 225607, Control_c, 0, 64, 127
2, 225662, Note_on_c, 0, 82, 78
2, 225667, Note_on_c, 0, 70, 71
2, 225669, Note_on_c, 0, 76, 80
2, 225786, Note_on_c, 0, 76, 0
2, 225788, Note_on_c, 0, 65, 0
2, 225799, Note_on_c, 0, 70, 0
2, 225806, Note_on_c, 0, 60, 0
2, 225835, Note_on_c, 0, 82, 0
2, 225877, Note_on_c, 0, 54, 0
2, 225983, Control_c, 0, 64, 0
2, 226049, Note_on_c, 0, 43, 71
2, 226050, Note_on_c, 0, 84, 81
2, 226053, Note_on_c, 0, 77, 78
2, 226054, Note_on_c, 0, 72, 84
2, 226059, Note_on_c, 0, 81, 71
2, 226060, Note_on_c, 0, 45, 74
2, 226197, Control_c, 0, 64, 127
2, 226264, Note_on_c, 0, 84, 0
2, 226266, Note_on_c, 0, 72, 0
2, 226272, Note_on_c, 0, 45, 0
2, 226274, Note_on_c, 0, 43, 0
2, 226302, Control_c, 0, 64, 0
2, 226321, Note_on_c, 0, 81, 0
2, 226322, Note_on_c, 0, 77, 0
2, 226360, Note_on_c, 0, 77, 54
2, 226364, Note_on_c, 0, 84, 70
2, 226371, Note_on_c, 0, 72, 71
2, 226377, Note_on_c, 0, 81, 50
2, 226443, Note_on_c, 0, 83, 17
2, 226494, Note_on_c, 0, 77, 0
2, 226499, Note_on_c, 0, 72, 0
2, 226523, Note_on_c, 0, 81, 0
2, 226534, Note_on_c, 0, 84, 0
2, 226538, Note_on_c, 0, 83, 0
2, 226770, Note_on_c, 0, 78, 64
2, 226779, Note_on_c, 0, 85, 55
2, 226782, Note_on_c, 0, 73, 63
2, 226790, Note_on_c, 0, 82, 57
2, 226798, Note_on_c, 0, 62, 65
2, 226803, Note_on_c, 0, 53, 43
2, 226804, Note_on_c, 0, 78, 0
2, 226807, Note_on_c, 0, 79, 66
2, 226810, Note_on_c, 0, 85, 0
2, 226812, Note_on_c, 0, 58, 45
2, 226814, Note_on_c, 0, 57, 35
2, 226816, Note_on_c, 0, 86, 63
2, 226838, Note_on_c, 0, 84, 44
2, 226839, Note_on_c, 0, 73, 0
2, 226841, Note_on_c, 0, 74, 70
2, 226903, Note_on_c, 0, 62, 0
2, 226923, Note_on_c, 0, 57, 0
2, 226953, Note_on_c, 0, 58, 0
2, 226966, Note_on_c, 0, 74, 0
2, 226973, Note_on_c, 0, 79, 0
2, 226986, Note_on_c, 0, 53, 0
2, 226999, Note_on_c, 0, 84, 0
2, 227007, Note_on_c, 0, 86, 0
2, 227016, Note_on_c, 0, 82, 0
2, 227108, Note_on_c, 0, 86, 62
2, 227117, Note_on_c, 0, 82, 58
2, 227121, Control_c, 0, 64, 127
2, 227124, Note_on_c, 0, 74, 62
2, 227127, Note_on_c, 0, 79, 64
2, 227192, Note_on_c, 0, 86, 0
2, 227208, Note_on_c, 0, 79, 0
2, 227230, Note_on_c, 0, 82, 0
2, 227250, Note_on_c, 0, 74, 0
2, 227400, Control_c, 0, 64, 0
2, 227445, Note_on_c, 0, 82, 54
2, 227447, Note_on_c, 0, 50, 34
2, 227470, Note_on_c, 0, 77, 48
2, 227472, Note_on_c, 0, 70, 46
2, 227607, Note_on_c, 0, 50, 0
2, 227634, Note_on_c, 0, 82, 0
2, 227698, Note_on_c, 0, 77, 0
2, 227699, Note_on_c, 0, 70, 0
2, 227784, Note_on_c, 0, 82, 49
2, 227814, Note_on_c, 0, 70, 40
2, 227875, Note_on_c, 0, 70, 0
2, 227908, Note_on_c, 0, 82, 0
2, 227989, Note_on_c, 0, 36, 57
2, 228170, Control_c, 0, 64, 127
2, 228225, Note_on_c, 0, 36, 0
2, 228447, Note_on_c, 0, 81, 58
2, 228449, Control_c, 0, 64, 0
2, 228451, Note_on_c, 0, 69, 66
2, 228457, Note_on_c, 0, 73, 46
2, 228460, Note_on_c, 0, 76, 66
2, 228502, Note_on_c, 0, 69, 0
2, 228528, Note_on_c, 0, 73, 0
2, 228545, Control_c, 0, 64, 127
2, 228546, Note_on_c, 0, 81, 0
2, 228547, Note_on_c, 0, 76, 0
2, 228719, Control_c, 0, 64, 0
2, 228756, Note_on_c, 0, 64, 54
2, 228759, Note_on_c, 0, 58, 64
2, 228796, Note_on_c, 0, 64, 0
2, 228879, Note_on_c, 0, 58, 0
2, 228920, Control_c, 0, 64, 127
2, 229046, Control_c, 0, 64, 0
2, 229154, Note_on_c, 0, 75, 69
2, 229165, Note_on_c, 0, 72, 65
2, 229166, Note_on_c, 0, 68, 81
2, 229175, Note_on_c, 0, 64, 71
2, 229183, Note_on_c, 0, 63, 84
2, 229388, Note_on_c, 0, 64, 0
2, 229398, Note_on_c, 0, 72, 0
2, 229410, Note_on_c, 0, 68, 0
2, 229418, Note_on_c, 0, 63, 0
2, 229420, Note_on_c, 0, 75, 0
2, 229483, Note_on_c, 0, 73, 44
2, 229486, Note_on_c, 0, 61, 64
2, 229490, Note_on_c, 0, 68, 51
2, 229493, Note_on_c, 0, 64, 45
2, 229556, Control_c, 0, 64, 127
2, 229721, Note_on_c, 0, 73, 0
2, 229731, Note_on_c, 0, 68, 0
2, 229768, Note_on_c, 0, 64, 0
2, 229817, Note_on_c, 0, 61, 0
2, 229854, Control_c, 0, 64, 0
2, 229906, Note_on_c, 0, 60, 38
2, 229915, Note_on_c, 0, 70, 63
2, 229922, Note_on_c, 0, 64, 45
2, 230096, Note_on_c, 0, 64, 0
2, 230102, Note_on_c, 0, 60, 0
2, 230153, Control_c, 0, 64, 127
2, 230170, Note_on_c, 0, 58, 45
2, 230212, Note_on_c, 0, 70, 0
2, 230282, Note_on_c, 0, 58, 0
2, 230316, Control_c, 0, 64, 0
2, 230390, Note_on_c, 0, 57, 58
2, 230403, Note_on_c, 0, 72, 58
2, 230404, Note_on_c, 0, 67, 70
2, 230411, Note_on_c, 0, 60, 55
2, 230509, Note_on_c, 0, 72, 0
2, 230516, Note_on_c, 0, 57, 0
2, 230517, Note_on_c, 0, 67, 0
2, 230571, Note_on_c, 0, 60, 0
2, 230663, Note_on_c, 0, 45, 36
2, 230730, Control_c, 0, 64, 127
2, 230768, Control_c, 0, 64, 0
2, 230849, Note_on_c, 0, 57, 55
2, 230857, Note_on_c, 0, 67, 51
2, 230860, Note_on_c, 0, 55, 35
2, 230860, Note_on_c, 0, 64, 38
2, 230861, Note_on_c, 0, 60, 41
2, 231014, Note_on_c, 0, 64, 0
2, 231019, Control_c, 0, 64, 127
2, 231037, Note_on_c, 0, 55, 0
2, 231045, Note_on_c, 0, 60, 0
2, 231086, Note_on_c, 0, 67, 0
2, 231165, Note_on_c, 0, 57, 0
2, 231308, Control_c, 0, 64, 0
2, 231318, Note_on_c, 0, 50, 31
2, 231336, Note_on_c, 0, 64, 34
2, 231338, Note_on_c, 0, 60, 29
2, 231340, Note_on_c, 0, 52, 52
2, 231341, Note_on_c, 0, 55, 41
2, 231344, Note_on_c, 0, 57, 41
2, 231348, Note_on_c, 0, 45, 0
2, 231364, Note_on_c, 0, 50, 0
2, 231493, Note_on_c, 0, 57, 0
2, 231503, Note_on_c, 0, 60, 0
2, 231506, Note_on_c, 0, 64, 0
2, 231507, Note_on_c, 0, 55, 0
2, 231567, Control_c, 0, 64, 127
2, 231633, Note_on_c, 0, 52, 0
2, 231674, Control_c, 0, 64, 0
2, 231785, Note_on_c, 0, 66, 60
2, 231795, Note_on_c, 0, 51, 46
2, 231803, Note_on_c, 0, 61, 53
2, 231816, Note_on_c, 0, 58, 30
2, 231856, Control_c, 0, 64, 127
2, 232004, Note_on_c, 0, 51, 0
2, 232009, Note_on_c, 0, 66, 0
2, 232024, Note_on_c, 0, 58, 0
2, 232046, Note_on_c, 0, 61, 0
2, 232067, Control_c, 0, 64, 0
2, 232073, Note_on_c, 0, 66, 21
2, 232106, Note_on_c, 0, 57, 44
2, 232111, Note_on_c, 0, 66, 0
2, 232117, Note_on_c, 0, 60, 37
2, 232129, Note_on_c, 0, 50, 46
2, 232132, Note_on_c, 0, 65, 46
2, 232265, Note_on_c, 0, 57, 0
2, 232279, Control_c, 0, 64, 127
2, 232344, Note_on_c, 0, 60, 0
2, 232365, Note_on_c, 0, 65, 0
2, 232567, Note_on_c, 0, 38, 64
2, 232568, Note_on_c, 0, 50, 0
2, 232646, Note_on_c, 0, 38, 0
2, 233252, Control_c, 0, 64, 0
2, 233276, Note_on_c, 0, 77, 80
2, 233277, Note_on_c, 0, 69, 80
2, 233278, Note_on_c, 0, 72, 79
2, 233281, Note_on_c, 0, 64, 75
2, 233598, Control_c, 0, 64, 127
2, 233648, Note_on_c, 0, 77, 0
2, 233668, Note_on_c, 0, 69, 0
2, 233690, Note_on_c, 0, 72, 0
2, 233716, Note_on_c, 0, 64, 0
2, 233728, Note_on_c, 0, 62, 53
2, 233755, Note_on_c, 0, 76, 44
2, 233764, Note_on_c, 0, 72, 17
2, 233816, Note_on_c, 0, 62, 0
2, 233860, Note_on_c, 0, 76, 0
2, 233899, Note_on_c, 0, 72, 0
2, 233979, Note_on_c, 0, 77, 62
2, 234039, Note_on_c, 0, 76, 24
2, 234063, Note_on_c, 0, 77, 0
2, 234080, Note_on_c, 0, 76, 0
2, 234147, Control_c, 0, 64, 0
2, 234190, Note_on_c, 0, 53, 47
2, 234196, Note_on_c, 0, 64, 41
2, 234200, Note_on_c, 0, 59, 47
2, 234205, Note_on_c, 0, 71, 53
2, 234210, Note_on_c, 0, 79, 48
2, 234223, Note_on_c, 0, 73, 36
2, 234317, Note_on_c, 0, 64, 0
2, 234322, Note_on_c, 0, 71, 0
2, 234333, Note_on_c, 0, 73, 0
2, 234337, Note_on_c, 0, 79, 0
2, 234346, Note_on_c, 0, 53, 0
2, 234350, Note_on_c, 0, 59, 0
2, 234563, Note_on_c, 0, 73, 39
2, 234569, Note_on_c, 0, 79, 48
2, 234574, Note_on_c, 0, 59, 40
2, 234578, Note_on_c, 0, 71, 51
2, 234581, Note_on_c, 0, 64, 32
2, 234588, Note_on_c, 0, 53, 31
2, 234664, Note_on_c, 0, 71, 0
2, 234676, Note_on_c, 0, 64, 0
2, 234683, Note_on_c, 0, 53, 0
2, 234685, Note_on_c, 0, 59, 0
2, 234705, Note_on_c, 0, 79, 0
2, 234706, Note_on_c, 0, 73, 0
2, 234974, Note_on_c, 0, 59, 45
2, 234975, Note_on_c, 0, 64, 43
2, 234978, Note_on_c, 0, 81, 53
2, 234988, Note_on_c, 0, 53, 35
2, 234990, Note_on_c, 0, 76, 58
2, 234992, Note_on_c, 0, 71, 31
2, 235078, Note_on_c, 0, 64, 0
2, 235079, Note_on_c, 0, 53, 0
2, 235080, Note_on_c, 0, 81, 0
2, 235084, Note_on_c, 0, 71, 0
2, 235085, Note_on_c, 0, 59, 0
2, 235090, Note_on_c, 0, 76, 0
2, 235438, Note_on_c, 0, 76, 53
2, 235450, Note_on_c, 0, 65, 37
2, 235451, Note_on_c, 0, 68, 36
2, 235456, Note_on_c, 0, 59, 43
2, 235459, Note_on_c, 0, 64, 36
2, 235460, Note_on_c, 0, 53, 47
2, 235464, Note_on_c, 0, 71, 36
2, 235535, Note_on_c, 0, 65, 0
2, 235536, Note_on_c, 0, 68, 0
2, 235556, Note_on_c, 0, 71, 0
2, 235561, Note_on_c, 0, 64, 0
2, 235565, Note_on_c, 0, 59, 0
2, 235575, Note_on_c, 0, 53, 0
2, 235578, Note_on_c, 0, 76, 0
2, 235885, Note_on_c, 0, 63, 62
2, 235889, Note_on_c, 0, 75, 57
2, 235918, Note_on_c, 0, 65, 29
2, 235920, Note_on_c, 0, 70, 33
2, 235921, Note_on_c, 0, 68, 28
2, 235935, Note_on_c, 0, 73, 21
2, 236000, Note_on_c, 0, 65, 0
2, 236010, Note_on_c, 0, 68, 0
2, 236032, Note_on_c, 0, 75, 0
2, 236047, Note_on_c, 0, 70, 0
2, 236051, Note_on_c, 0, 73, 0
2, 236068, Note_on_c, 0, 63, 0
2, 236108, Note_on_c, 0, 64, 53
2, 236116, Note_on_c, 0, 65, 47
2, 236117, Note_on_c, 0, 76, 62
2, 236123, Note_on_c, 0, 68, 35
2, 236128, Note_on_c, 0, 71, 40
2, 236203, Note_on_c, 0, 65, 0
2, 236218, Note_on_c, 0, 68, 0
2, 236230, Note_on_c, 0, 64, 0
2, 236237, Note_on_c, 0, 71, 0
2, 236259, Note_on_c, 0, 76, 0
2, 236598, Note_on_c, 0, 78, 62
2, 236607, Note_on_c, 0, 71, 66
2, 236620, Note_on_c, 0, 68, 56
2, 236623, Note_on_c, 0, 62, 66
2, 236628, Note_on_c, 0, 79, 62
2, 236639, Note_on_c, 0, 74, 38
2, 237063, Control_c, 0, 64, 127
2, 237064, Note_on_c, 0, 59, 54
2, 237091, Note_on_c, 0, 62, 0
2, 237102, Note_on_c, 0, 59, 0
2, 237231, Note_on_c, 0, 79, 0
2, 237329, Note_on_c, 0, 74, 0
2, 237508, Note_on_c, 0, 78, 0
2, 237607, Note_on_c, 0, 71, 0
2, 237655, Note_on_c, 0, 68, 0
2, 238044, Control_c, 0, 64, 0
2, 238072, Note_on_c, 0, 43, 52
2, 238185, Note_on_c, 0, 43, 0
2, 238363, Note_on_c, 0, 74, 62
2, 238459, Note_on_c, 0, 74, 0
2, 238589, Note_on_c, 0, 77, 55
2, 238672, Note_on_c, 0, 77, 0
2, 238846, Note_on_c, 0, 57, 73
2, 238847, Note_on_c, 0, 62, 88
2, 238851, Note_on_c, 0, 58, 69
2, 238855, Note_on_c, 0, 53, 72
2, 238908, Note_on_c, 0, 62, 0
2, 238965, Note_on_c, 0, 58, 0
2, 238977, Note_on_c, 0, 57, 0
2, 238989, Note_on_c, 0, 53, 0
2, 239310, Note_on_c, 0, 86, 80
2, 239459, Note_on_c, 0, 86, 0
2, 239552, Note_on_c, 0, 84, 84
2, 239788, Note_on_c, 0, 36, 66
2, 239841, Note_on_c, 0, 36, 0
2, 239972, Note_on_c, 0, 84, 0
2, 239986, Note_on_c, 0, 72, 55
2, 240192, Note_on_c, 0, 72, 0
2, 240235, Note_on_c, 0, 84, 71
2, 240311, Note_on_c, 0, 84, 0
2, 240523, Note_on_c, 0, 64, 77
2, 240527, Note_on_c, 0, 58, 72
2, 240535, Note_on_c, 0, 60, 41
2, 240581, Note_on_c, 0, 60, 0
2, 240586, Note_on_c, 0, 64, 0
2, 240655, Note_on_c, 0, 58, 0
2, 240968, Note_on_c, 0, 86, 84
2, 240971, Control_c, 0, 64, 127
2, 240973, Note_on_c, 0, 74, 81
2, 240977, Note_on_c, 0, 82, 64
2, 240979, Note_on_c, 0, 79, 69
2, 241012, Note_on_c, 0, 79, 0
2, 241028, Note_on_c, 0, 74, 0
2, 241036, Note_on_c, 0, 82, 0
2, 241073, Note_on_c, 0, 86, 0
2, 241224, Note_on_c, 0, 46, 62
2, 241259, Control_c, 0, 64, 0
2, 241418, Note_on_c, 0, 46, 0
2, 241690, Note_on_c, 0, 45, 74
2, 241756, Note_on_c, 0, 45, 0
2, 241915, Note_on_c, 0, 73, 69
2, 241923, Note_on_c, 0, 77, 68
2, 241924, Note_on_c, 0, 81, 71
2, 241925, Note_on_c, 0, 69, 74
2, 241934, Note_on_c, 0, 60, 57
2, 241935, Note_on_c, 0, 55, 71
2, 241944, Note_on_c, 0, 65, 74
2, 241949, Note_on_c, 0, 79, 42
2, 241951, Note_on_c, 0, 58, 40
2, 241971, Note_on_c, 0, 61, 44
2, 242056, Note_on_c, 0, 79, 0
2, 242123, Note_on_c, 0, 55, 0
2, 242124, Note_on_c, 0, 69, 0
2, 242132, Note_on_c, 0, 65, 0
2, 242136, Note_on_c, 0, 73, 0
2, 242139, Note_on_c, 0, 81, 0
2, 242148, Note_on_c, 0, 58, 0
2, 242150, Note_on_c, 0, 77, 0
2, 242155, Note_on_c, 0, 61, 0
2, 242160, Note_on_c, 0, 60, 0
2, 242367, Note_on_c, 0, 73, 71
2, 242368, Note_on_c, 0, 60, 54
2, 242369, Note_on_c, 0, 81, 71
2, 242370, Note_on_c, 0, 61, 74
2, 242372, Note_on_c, 0, 77, 67
2, 242373, Note_on_c, 0, 65, 87
2, 242374, Note_on_c, 0, 55, 75
2, 242376, Note_on_c, 0, 69, 81
2, 242604, Note_on_c, 0, 69, 0
2, 242619, Note_on_c, 0, 55, 0
2, 242622, Note_on_c, 0, 81, 0
2, 242627, Note_on_c, 0, 65, 0
2, 242630, Note_on_c, 0, 73, 0
2, 242640, Note_on_c, 0, 60, 0
2, 242641, Note_on_c, 0, 61, 0
2, 242657, Note_on_c, 0, 77, 0
2, 242861, Note_on_c, 0, 60, 66
2, 242862, Note_on_c, 0, 61, 74
2, 242863, Note_on_c, 0, 82, 76
2, 242864, Note_on_c, 0, 65, 84
2, 242865, Note_on_c, 0, 55, 78
2, 242868, Note_on_c, 0, 70, 88
2, 242882, Note_on_c, 0, 73, 52
2, 242884, Note_on_c, 0, 77, 57
2, 243004, Control_c, 0, 64, 127
2, 243017, Note_on_c, 0, 73, 0
2, 243029, Note_on_c, 0, 77, 0
2, 243060, Note_on_c, 0, 55, 0
2, 243070, Note_on_c, 0, 65, 0
2, 243071, Note_on_c, 0, 70, 0
2, 243083, Note_on_c, 0, 61, 0
2, 243091, Note_on_c, 0, 82, 0
2, 243103, Note_on_c, 0, 60, 0
2, 243158, Control_c, 0, 64, 0
2, 243160, Note_on_c, 0, 71, 72
2, 243161, Note_on_c, 0, 55, 49
2, 243162, Note_on_c, 0, 61, 68
2, 243163, Note_on_c, 0, 83, 72
2, 243165, Note_on_c, 0, 60, 53
2, 243166, Note_on_c, 0, 65, 59
2, 243263, Note_on_c, 0, 71, 0
2, 243287, Note_on_c, 0, 83, 0
2, 243291, Note_on_c, 0, 65, 0
2, 243319, Note_on_c, 0, 61, 0
2, 243331, Note_on_c, 0, 60, 0
2, 243333, Note_on_c, 0, 55, 0
2, 243457, Control_c, 0, 64, 127
2, 243524, Control_c, 0, 64, 0
2, 243595, Note_on_c, 0, 84, 66
2, 243601, Note_on_c, 0, 60, 32
2, 243605, Note_on_c, 0, 64, 51
2, 243616, Note_on_c, 0, 72, 54
2, 243617, Note_on_c, 0, 54, 42
2, 243619, Note_on_c, 0, 81, 64
2, 243620, Note_on_c, 0, 77, 49
2, 243738, Note_on_c, 0, 64, 0
2, 243747, Note_on_c, 0, 60, 0
2, 243767, Control_c, 0, 64, 127
2, 243791, Note_on_c, 0, 72, 0
2, 243806, Note_on_c, 0, 54, 0
2, 243817, Note_on_c, 0, 77, 0
2, 243830, Note_on_c, 0, 81, 0
2, 243840, Note_on_c, 0, 84, 0
2, 244066, Note_on_c, 0, 50, 64
2, 244102, Note_on_c, 0, 50, 0
2, 244209, Control_c, 0, 64, 0
2, 244276, Note_on_c, 0, 60, 58
2, 244278, Note_on_c, 0, 75, 74
2, 244280, Note_on_c, 0, 64, 79
2, 244281, Note_on_c, 0, 54, 78
2, 244285, Note_on_c, 0, 81, 71
2, 244296, Note_on_c, 0, 84, 55
2, 244303, Note_on_c, 0, 88, 70
2, 244330, Note_on_c, 0, 86, 32
2, 244336, Note_on_c, 0, 75, 0
2, 244338, Note_on_c, 0, 76, 76
2, 244452, Note_on_c, 0, 64, 0
2, 244459, Note_on_c, 0, 76, 0
2, 244461, Note_on_c, 0, 88, 0
2, 244483, Note_on_c, 0, 54, 0
2, 244493, Note_on_c, 0, 86, 0
2, 244518, Note_on_c, 0, 60, 0
2, 244519, Note_on_c, 0, 84, 0
2, 244521, Note_on_c, 0, 81, 0
2, 244608, Note_on_c, 0, 88, 79
2, 244616, Note_on_c, 0, 81, 70
2, 244618, Note_on_c, 0, 76, 78
2, 244620, Note_on_c, 0, 54, 80
2, 244624, Note_on_c, 0, 64, 83
2, 244626, Note_on_c, 0, 84, 57
2, 244627, Note_on_c, 0, 60, 48
2, 244690, Control_c, 0, 64, 127
2, 244779, Note_on_c, 0, 64, 0
2, 244802, Note_on_c, 0, 84, 0
2, 244803, Note_on_c, 0, 76, 0
2, 244805, Note_on_c, 0, 88, 0
2, 244818, Note_on_c, 0, 60, 0
2, 244820, Note_on_c, 0, 54, 0
2, 244821, Note_on_c, 0, 81, 0
2, 244906, Note_on_c, 0, 88, 71
2, 244920, Note_on_c, 0, 60, 44
2, 244921, Note_on_c, 0, 81, 68
2, 244922, Note_on_c, 0, 54, 77
2, 244923, Note_on_c, 0, 64, 66
2, 244924, Note_on_c, 0, 76, 74
2, 244933, Note_on_c, 0, 84, 57
2, 245059, Note_on_c, 0, 64, 0
2, 245068, Note_on_c, 0, 84, 0
2, 245070, Note_on_c, 0, 88, 0
2, 245094, Note_on_c, 0, 76, 0
2, 245101, Note_on_c, 0, 54, 0
2, 245106, Note_on_c, 0, 60, 0
2, 245110, Note_on_c, 0, 81, 0
2, 245174, Control_c, 0, 64, 0
2, 245233, Note_on_c, 0, 86, 69
2, 245262, Note_on_c, 0, 54, 69
2, 245266, Note_on_c, 0, 81, 36
2, 245273, Note_on_c, 0, 64, 56
2, 245276, Note_on_c, 0, 74, 37
2, 245281, Note_on_c, 0, 60, 33
2, 245299, Control_c, 0, 64, 127
2, 245306, Note_on_c, 0, 86, 0
2, 245310, Note_on_c, 0, 81, 0
2, 245320, Note_on_c, 0, 60, 0
2, 245333, Note_on_c, 0, 74, 0
2, 245378, Note_on_c, 0, 64, 0
2, 245416, Note_on_c, 0, 54, 0
2, 245713, Control_c, 0, 64, 0
2, 245766, Note_on_c, 0, 73, 47
2, 245770, Note_on_c, 0, 71, 53
2, 245772, Note_on_c, 0, 64, 42
2, 245773, Note_on_c, 0, 59, 44
2, 245785, Note_on_c, 0, 53, 39
2, 246191, Note_on_c, 0, 71, 0
2, 246215, Note_on_c, 0, 73, 0
2, 246256, Note_on_c, 0, 71, 34
2, 246258, Note_on_c, 0, 74, 55
2, 246271, Control_c, 0, 64, 127
2, 246360, Note_on_c, 0, 59, 0
2, 246365, Note_on_c, 0, 64, 0
2, 246443, Note_on_c, 0, 74, 0
2, 246468, Note_on_c, 0, 71, 0
2, 246521, Note_on_c, 0, 53, 0
2, 246647, Control_c, 0, 64, 0
2, 246724, Note_on_c, 0, 76, 53
2, 246725, Note_on_c, 0, 71, 45
2, 246726, Note_on_c, 0, 59, 48
2, 246733, Note_on_c, 0, 64, 34
2, 246955, Control_c, 0, 64, 127
2, 246971, Note_on_c, 0, 71, 0
2, 246984, Note_on_c, 0, 76, 0
2, 247003, Control_c, 0, 64, 0
2, 247032, Note_on_c, 0, 77, 60
2, 247046, Note_on_c, 0, 53, 45
2, 247102, Note_on_c, 0, 64, 0
2, 247122, Note_on_c, 0, 59, 0
2, 247137, Note_on_c, 0, 77, 0
2, 247138, Note_on_c, 0, 53, 0
2, 247176, Control_c, 0, 64, 127
2, 247417, Control_c, 0, 64, 0
2, 247441, Note_on_c, 0, 80, 45
2, 247445, Note_on_c, 0, 59, 47
2, 247448, Note_on_c, 0, 71, 44
2, 247450, Note_on_c, 0, 63, 53
2, 247452, Note_on_c, 0, 75, 49
2, 247453, Note_on_c, 0, 53, 46
2, 247456, Note_on_c, 0, 77, 48
2, 247542, Note_on_c, 0, 71, 0
2, 247564, Note_on_c, 0, 53, 0
2, 247567, Note_on_c, 0, 77, 0
2, 247572, Note_on_c, 0, 80, 0
2, 247573, Note_on_c, 0, 63, 0
2, 247578, Note_on_c, 0, 75, 0
2, 247609, Note_on_c, 0, 59, 0
2, 247915, Note_on_c, 0, 59, 55
2, 247918, Note_on_c, 0, 82, 60
2, 247919, Note_on_c, 0, 75, 64
2, 247925, Note_on_c, 0, 63, 55
2, 247931, Note_on_c, 0, 53, 49
2, 247940, Note_on_c, 0, 71, 40
2, 247978, Note_on_c, 0, 71, 0
2, 248003, Note_on_c, 0, 59, 0
2, 248016, Note_on_c, 0, 75, 0
2, 248034, Note_on_c, 0, 53, 0
2, 248037, Note_on_c, 0, 82, 0
2, 248045, Note_on_c, 0, 63, 0
2, 248158, Control_c, 0, 64, 127
2, 248340, Control_c, 0, 64, 0
2, 248365, Note_on_c, 0, 84, 76
2, 248368, Note_on_c, 0, 62, 73
2, 248372, Note_on_c, 0, 52, 71
2, 248374, Note_on_c, 0, 72, 70
2, 248377, Note_on_c, 0, 58, 67
2, 248380, Note_on_c, 0, 79, 58
2, 248427, Note_on_c, 0, 79, 0
2, 248432, Note_on_c, 0, 62, 0
2, 248441, Note_on_c, 0, 84, 0
2, 248448, Note_on_c, 0, 72, 0
2, 248469, Note_on_c, 0, 58, 0
2, 248510, Note_on_c, 0, 52, 0
2, 248543, Control_c, 0, 64, 127
2, 248859, Note_on_c, 0, 47, 67
2, 248860, Note_on_c, 0, 60, 62
2, 248861, Note_on_c, 0, 48, 67
2, 248872, Control_c, 0, 64, 0
2, 248929, Note_on_c, 0, 47, 0
2, 249034, Note_on_c, 0, 60, 0
2, 249107, Note_on_c, 0, 62, 47
2, 249340, Note_on_c, 0, 62, 0
2, 249379, Note_on_c, 0, 47, 52
2, 249483, Note_on_c, 0, 47, 0
2, 249572, Note_on_c, 0, 65, 92
2, 249828, Note_on_c, 0, 65, 0
2, 249885, Note_on_c, 0, 47, 28
2, 249930, Note_on_c, 0, 47, 0
2, 250078, Note_on_c, 0, 65, 81
2, 250252, Note_on_c, 0, 65, 0
2, 250344, Note_on_c, 0, 65, 53
2, 250446, Note_on_c, 0, 65, 0
2, 250538, Note_on_c, 0, 65, 61
2, 250557, Control_c, 0, 64, 127
2, 250647, Note_on_c, 0, 48, 0
2, 250709, Note_on_c, 0, 65, 0
2, 250803, Note_on_c, 0, 65, 57
2, 250814, Note_on_c, 0, 48, 71
2, 250834, Note_on_c, 0, 47, 62
2, 250867, Note_on_c, 0, 47, 0
2, 250884, Control_c, 0, 64, 0
2, 251106, Note_on_c, 0, 65, 0
2, 251264, Note_on_c, 0, 65, 66
2, 251276, Note_on_c, 0, 62, 66
2, 251282, Note_on_c, 0, 58, 57
2, 251285, Note_on_c, 0, 55, 55
2, 251421, Note_on_c, 0, 48, 0
2, 251432, Note_on_c, 0, 45, 20
2, 251496, Note_on_c, 0, 45, 0
2, 251577, Control_c, 0, 64, 127
2, 251649, Note_on_c, 0, 55, 0
2, 251654, Control_c, 0, 64, 0
2, 251683, Control_c, 0, 64, 127
2, 251741, Note_on_c, 0, 58, 0
2, 251756, Note_on_c, 0, 48, 81
2, 251758, Note_on_c, 0, 46, 74
2, 251765, Note_on_c, 0, 62, 0
2, 251781, Note_on_c, 0, 47, 76
2, 251789, Note_on_c, 0, 46, 0
2, 251825, Note_on_c, 0, 47, 0
2, 251828, Note_on_c, 0, 65, 0
2, 251895, Control_c, 0, 64, 0
2, 252260, Note_on_c, 0, 47, 64
2, 252401, Note_on_c, 0, 47, 0
2, 252500, Note_on_c, 0, 86, 95
2, 252527, Note_on_c, 0, 48, 0
2, 252675, Note_on_c, 0, 86, 0
2, 252771, Note_on_c, 0, 84, 74
2, 252885, Note_on_c, 0, 84, 0
2, 252972, Note_on_c, 0, 80, 74
2, 253162, Note_on_c, 0, 80, 0
2, 253212, Note_on_c, 0, 82, 83
2, 253272, Note_on_c, 0, 41, 62
2, 253408, Note_on_c, 0, 41, 0
2, 253466, Note_on_c, 0, 81, 64
2, 253470, Note_on_c, 0, 82, 0
2, 253657, Note_on_c, 0, 81, 0
2, 253710, Note_on_c, 0, 77, 59
2, 253846, Note_on_c, 0, 77, 0
2, 253909, Note_on_c, 0, 72, 44
2, 254031, Note_on_c, 0, 72, 0
2, 254169, Note_on_c, 0, 62, 57
2, 254195, Note_on_c, 0, 60, 26
2, 254204, Note_on_c, 0, 62, 0
2, 254217, Note_on_c, 0, 57, 24
2, 254232, Note_on_c, 0, 60, 0
2, 254258, Note_on_c, 0, 57, 0
2, 254378, Control_c, 0, 64, 127
2, 254388, Note_on_c, 0, 72, 79
2, 254499, Note_on_c, 0, 72, 0
2, 254628, Control_c, 0, 64, 0
2, 254684, Note_on_c, 0, 65, 72
2, 254685, Note_on_c, 0, 60, 36
2, 254693, Note_on_c, 0, 61, 40
2, 254708, Note_on_c, 0, 55, 43
2, 254874, Note_on_c, 0, 60, 0
2, 254876, Note_on_c, 0, 65, 0
2, 254911, Note_on_c, 0, 55, 0
2, 254939, Note_on_c, 0, 61, 0
2, 255154, Note_on_c, 0, 64, 65
2, 255160, Note_on_c, 0, 60, 43
2, 255167, Note_on_c, 0, 59, 50
2, 255169, Note_on_c, 0, 55, 47
2, 255257, Note_on_c, 0, 64, 0
2, 255279, Note_on_c, 0, 60, 0
2, 255292, Note_on_c, 0, 59, 0
2, 255326, Note_on_c, 0, 55, 0
2, 255389, Control_c, 0, 64, 127
2, 255602, Note_on_c, 0, 38, 59
2, 255620, Control_c, 0, 64, 0
2, 255669, Note_on_c, 0, 38, 0
2, 255851, Note_on_c, 0, 64, 66
2, 255879, Note_on_c, 0, 56, 38
2, 255913, Note_on_c, 0, 56, 0
2, 256012, Note_on_c, 0, 64, 0
2, 256316, Note_on_c, 0, 65, 72
2, 256318, Note_on_c, 0, 60, 37
2, 256327, Note_on_c, 0, 58, 52
2, 256343, Note_on_c, 0, 54, 38
2, 256801, Note_on_c, 0, 65, 0
2, 256807, Note_on_c, 0, 67, 63
2, 256813, Control_c, 0, 64, 127
2, 256839, Note_on_c, 0, 60, 0
2, 256864, Note_on_c, 0, 67, 0
2, 256870, Note_on_c, 0, 68, 51
2, 256927, Note_on_c, 0, 58, 0
2, 256941, Note_on_c, 0, 68, 0
2, 256945, Note_on_c, 0, 69, 59
2, 256946, Note_on_c, 0, 54, 0
2, 256957, Control_c, 0, 64, 0
2, 257032, Note_on_c, 0, 69, 0
2, 257098, Note_on_c, 0, 72, 96
2, 257104, Note_on_c, 0, 62, 83
2, 257106, Note_on_c, 0, 53, 69
2, 257109, Note_on_c, 0, 57, 60
2, 257116, Note_on_c, 0, 58, 57
2, 257134, Note_on_c, 0, 71, 51
2, 257164, Note_on_c, 0, 62, 0
2, 257167, Note_on_c, 0, 71, 0
2, 257190, Note_on_c, 0, 57, 0
2, 257229, Note_on_c, 0, 58, 0
2, 257255, Note_on_c, 0, 53, 0
2, 257315, Note_on_c, 0, 72, 0
2, 257449, Note_on_c, 0, 72, 94
2, 257630, Note_on_c, 0, 72, 0
2, 257718, Note_on_c, 0, 62, 65
2, 257765, Control_c, 0, 64, 127
2, 257896, Note_on_c, 0, 62, 0
2, 258013, Note_on_c, 0, 69, 71
2, 258026, Note_on_c, 0, 58, 75
2, 258035, Note_on_c, 0, 62, 64
2, 258045, Control_c, 0, 64, 0
2, 258077, Note_on_c, 0, 57, 52
2, 258184, Note_on_c, 0, 69, 0
2, 258187, Note_on_c, 0, 62, 0
2, 258196, Note_on_c, 0, 57, 0
2, 258224, Note_on_c, 0, 58, 0
2, 258401, Control_c, 0, 64, 127
2, 258447, Note_on_c, 0, 50, 49
2, 258478, Control_c, 0, 64, 0
2, 258496, Note_on_c, 0, 50, 0
2, 258636, Note_on_c, 0, 62, 55
2, 258639, Note_on_c, 0, 58, 52
2, 258646, Note_on_c, 0, 65, 48
2, 258649, Note_on_c, 0, 55, 46
2, 258820, Note_on_c, 0, 62, 0
2, 258849, Note_on_c, 0, 65, 0
2, 258863, Note_on_c, 0, 55, 0
2, 258882, Control_c, 0, 64, 127
2, 258892, Note_on_c, 0, 58, 0
2, 258938, Note_on_c, 0, 64, 60
2, 258939, Note_on_c, 0, 58, 29
2, 258946, Note_on_c, 0, 55, 53
2, 258979, Note_on_c, 0, 55, 0
2, 259007, Control_c, 0, 64, 0
2, 259021, Note_on_c, 0, 58, 0
2, 259060, Note_on_c, 0, 64, 0
2, 259141, Note_on_c, 0, 36, 62
2, 259190, Control_c, 0, 64, 127
2, 259191, Note_on_c, 0, 36, 0
2, 259666, Note_on_c, 0, 73, 72
2, 259667, Note_on_c, 0, 68, 83
2, 259671, Note_on_c, 0, 64, 78
2, 259687, Note_on_c, 0, 58, 79
2, 259700, Control_c, 0, 64, 0
2, 259922, Control_c, 0, 64, 127
2, 259973, Note_on_c, 0, 64, 0
2, 259983, Note_on_c, 0, 58, 0
2, 260007, Note_on_c, 0, 73, 0
2, 260011, Note_on_c, 0, 68, 0
2, 260075, Control_c, 0, 64, 0
2, 260142, Note_on_c, 0, 75, 83
2, 260147, Note_on_c, 0, 63, 73
2, 260148, Note_on_c, 0, 68, 83
2, 260152, Note_on_c, 0, 64, 80
2, 260333, Note_on_c, 0, 63, 0
2, 260347, Note_on_c, 0, 68, 0
2, 260353, Note_on_c, 0, 64, 0
2, 260364, Note_on_c, 0, 75, 0
2, 260374, Control_c, 0, 64, 127
2, 260440, Note_on_c, 0, 64, 62
2, 260441, Note_on_c, 0, 73, 53
2, 260443, Note_on_c, 0, 68, 61
2, 260456, Note_on_c, 0, 58, 58
2, 260479, Control_c, 0, 64, 0
2, 260560, Note_on_c, 0, 64, 0
2, 260570, Note_on_c, 0, 68, 0
2, 260572, Note_on_c, 0, 73, 0
2, 260624, Control_c, 0, 64, 127
2, 260696, Note_on_c, 0, 58, 0
2, 260894, Control_c, 0, 64, 0
2, 260903, Note_on_c, 0, 72, 66
2, 260909, Note_on_c, 0, 67, 67
2, 260912, Note_on_c, 0, 62, 64
2, 260918, Note_on_c, 0, 57, 54
2, 261062, Note_on_c, 0, 57, 0
2, 261105, Control_c, 0, 64, 127
2, 261224, Note_on_c, 0, 72, 0
2, 261231, Note_on_c, 0, 67, 0
2, 261318, Note_on_c, 0, 62, 0
2, 261410, Note_on_c, 0, 41, 53
2, 261568, Control_c, 0, 64, 0
2, 261607, Note_on_c, 0, 61, 54
2, 261740, Note_on_c, 0, 61, 0
2, 261863, Note_on_c, 0, 64, 73
2, 261872, Note_on_c, 0, 52, 48
2, 261941, Note_on_c, 0, 52, 0
2, 262031, Note_on_c, 0, 64, 0
2, 262110, Note_on_c, 0, 61, 33
2, 262114, Note_on_c, 0, 49, 20
2, 262306, Note_on_c, 0, 49, 0
2, 262332, Note_on_c, 0, 41, 0
2, 262338, Note_on_c, 0, 50, 47
2, 262340, Note_on_c, 0, 62, 71
2, 262347, Note_on_c, 0, 61, 0
2, 262500, Note_on_c, 0, 62, 0
2, 262538, Note_on_c, 0, 51, 36
2, 262539, Note_on_c, 0, 50, 0
2, 262569, Note_on_c, 0, 63, 34
2, 262726, Note_on_c, 0, 63, 0
2, 262780, Control_c, 0, 64, 127
2, 262791, Note_on_c, 0, 51, 0
2, 262798, Note_on_c, 0, 64, 55
2, 262805, Note_on_c, 0, 52, 57
2, 262857, Note_on_c, 0, 52, 0
2, 262911, Note_on_c, 0, 64, 0
2, 262963, Control_c, 0, 64, 0
2, 262997, Note_on_c, 0, 67, 77
2, 263014, Note_on_c, 0, 50, 62
2, 263044, Note_on_c, 0, 57, 22
2, 263199, Note_on_c, 0, 67, 0
2, 263272, Note_on_c, 0, 64, 49
2, 263363, Note_on_c, 0, 64, 0
2, 263451, Note_on_c, 0, 65, 54
2, 263454, Note_on_c, 0, 61, 57
2, 263511, Control_c, 0, 64, 127
2, 263560, Control_c, 0, 64, 0
2, 263657, Note_on_c, 0, 61, 0
2, 263675, Control_c, 0, 64, 127
2, 263677, Note_on_c, 0, 65, 0
2, 263708, Note_on_c, 0, 57, 0
2, 263735, Note_on_c, 0, 69, 61
2, 263743, Note_on_c, 0, 60, 40
2, 263824, Note_on_c, 0, 69, 0
2, 263964, Control_c, 0, 64, 0
2, 263965, Note_on_c, 0, 60, 0
2, 264002, Note_on_c, 0, 50, 0
2, 264046, Note_on_c, 0, 76, 84
2, 264055, Note_on_c, 0, 65, 78
2, 264058, Note_on_c, 0, 69, 70
2, 264063, Note_on_c, 0, 64, 68
2, 264067, Note_on_c, 0, 72, 60
2, 264073, Note_on_c, 0, 62, 46
2, 264105, Note_on_c, 0, 62, 0
2, 264324, Note_on_c, 0, 72, 0
2, 264335, Note_on_c, 0, 64, 0
2, 264340, Note_on_c, 0, 76, 0
2, 264395, Note_on_c, 0, 62, 59
2, 264403, Note_on_c, 0, 74, 64
2, 264407, Control_c, 0, 64, 127
2, 264415, Note_on_c, 0, 65, 0
2, 264427, Note_on_c, 0, 69, 0
2, 264485, Note_on_c, 0, 62, 0
2, 264569, Note_on_c, 0, 74, 0
2, 264782, Note_on_c, 0, 71, 57
2, 264786, Note_on_c, 0, 65, 61
2, 264797, Note_on_c, 0, 68, 74
2, 264805, Note_on_c, 0, 64, 46
2, 264811, Control_c, 0, 64, 0
2, 264814, Note_on_c, 0, 59, 48
2, 264820, Note_on_c, 0, 53, 45
2, 265081, Control_c, 0, 64, 127
2, 265183, Note_on_c, 0, 64, 0
2, 265280, Note_on_c, 0, 65, 0
2, 265333, Note_on_c, 0, 71, 0
2, 265341, Control_c, 0, 64, 0
2, 265353, Note_on_c, 0, 68, 0
2, 265396, Note_on_c, 0, 62, 46
2, 265401, Note_on_c, 0, 71, 59
2, 265402, Note_on_c, 0, 65, 46
2, 265423, Note_on_c, 0, 68, 23
2, 265533, Control_c, 0, 64, 127
2, 265597, Note_on_c, 0, 62, 0
2, 265614, Note_on_c, 0, 65, 0
2, 265635, Note_on_c, 0, 53, 0
2, 265657, Note_on_c, 0, 68, 0
2, 265680, Note_on_c, 0, 59, 0
2, 265702, Note_on_c, 0, 71, 0
2, 265716, Control_c, 0, 64, 0
2, 265736, Note_on_c, 0, 73, 48
2, 265738, Note_on_c, 0, 71, 37
2, 265742, Note_on_c, 0, 68, 42
2, 265743, Note_on_c, 0, 61, 57
2, 265744, Note_on_c, 0, 65, 55
2, 265920, Control_c, 0, 64, 127
2, 266056, Note_on_c, 0, 65, 0
2, 266076, Note_on_c, 0, 61, 0
2, 266105, Note_on_c, 0, 68, 0
2, 266112, Note_on_c, 0, 73, 0
2, 266164, Note_on_c, 0, 71, 0
2, 266189, Control_c, 0, 64, 0
2, 266197, Note_on_c, 0, 68, 30
2, 266202, Note_on_c, 0, 74, 66
2, 266205, Note_on_c, 0, 65, 64
2, 266206, Note_on_c, 0, 62, 62
2, 266219, Note_on_c, 0, 71, 24
2, 266292, Note_on_c, 0, 65, 0
2, 266305, Control_c, 0, 64, 127
2, 266310, Note_on_c, 0, 71, 0
2, 266319, Note_on_c, 0, 68, 0
2, 266333, Note_on_c, 0, 62, 0
2, 266350, Note_on_c, 0, 74, 0
2, 266613, Control_c, 0, 64, 0
2, 266642, Note_on_c, 0, 77, 49
2, 266643, Note_on_c, 0, 68, 58
2, 266646, Note_on_c, 0, 74, 56
2, 266647, Note_on_c, 0, 71, 64
2, 266651, Note_on_c, 0, 64, 47
2, 266767, Control_c, 0, 64, 127
2, 266822, Note_on_c, 0, 77, 0
2, 266825, Note_on_c, 0, 64, 0
2, 266861, Note_on_c, 0, 74, 0
2, 266916, Note_on_c, 0, 71, 0
2, 266928, Note_on_c, 0, 68, 0
2, 267095, Control_c, 0, 64, 0
2, 267096, Note_on_c, 0, 71, 61
2, 267099, Note_on_c, 0, 68, 59
2, 267100, Note_on_c, 0, 79, 66
2, 267110, Note_on_c, 0, 74, 51
2, 267117, Note_on_c, 0, 65, 59
2, 267248, Control_c, 0, 64, 127
2, 267280, Note_on_c, 0, 71, 0
2, 267281, Note_on_c, 0, 74, 0
2, 267285, Note_on_c, 0, 79, 0
2, 267316, Note_on_c, 0, 68, 0
2, 267369, Note_on_c, 0, 65, 0
2, 267565, Note_on_c, 0, 80, 62
2, 267569, Note_on_c, 0, 56, 57
2, 267573, Note_on_c, 0, 65, 58
2, 267575, Note_on_c, 0, 74, 62
2, 267578, Note_on_c, 0, 71, 62
2, 267595, Control_c, 0, 64, 0
2, 267597, Note_on_c, 0, 77, 35
2, 267618, Note_on_c, 0, 71, 0
2, 267628, Note_on_c, 0, 74, 0
2, 267652, Note_on_c, 0, 77, 0
2, 267662, Control_c, 0, 64, 127
2, 267698, Note_on_c, 0, 80, 0
2, 267709, Note_on_c, 0, 65, 0
2, 267796, Control_c, 0, 64, 0
2, 267832, Note_on_c, 0, 65, 58
2, 267835, Note_on_c, 0, 86, 82
2, 267844, Note_on_c, 0, 62, 52
2, 267856, Note_on_c, 0, 85, 58
2, 267860, Note_on_c, 0, 74, 44
2, 267866, Note_on_c, 0, 76, 49
2, 267889, Note_on_c, 0, 85, 0
2, 267901, Note_on_c, 0, 76, 0
2, 267904, Note_on_c, 0, 74, 0
2, 267941, Control_c, 0, 64, 127
2, 267971, Note_on_c, 0, 74, 22
2, 268079, Note_on_c, 0, 86, 0
2, 268096, Note_on_c, 0, 65, 0
2, 268108, Note_on_c, 0, 74, 0
2, 268145, Note_on_c, 0, 62, 0
2, 268179, Note_on_c, 0, 56, 0
2, 268259, Control_c, 0, 64, 0
2, 268282, Note_on_c, 0, 56, 37
2, 268302, Note_on_c, 0, 85, 65
2, 268318, Note_on_c, 0, 73, 52
2, 268355, Control_c, 0, 64, 127
2, 268362, Note_on_c, 0, 56, 0
2, 268563, Note_on_c, 0, 85, 0
2, 268574, Note_on_c, 0, 73, 0
2, 268731, Control_c, 0, 64, 0
2, 268782, Note_on_c, 0, 43, 40
2, 268792, Note_on_c, 0, 84, 68
2, 268810, Note_on_c, 0, 72, 53
2, 268830, Note_on_c, 0, 50, 20
2, 268882, Note_on_c, 0, 43, 0
2, 268916, Note_on_c, 0, 50, 0
2, 269009, Note_on_c, 0, 72, 0
2, 269030, Note_on_c, 0, 84, 0
2, 269071, Note_on_c, 0, 81, 58
2, 269173, Note_on_c, 0, 81, 0
2, 269276, Note_on_c, 0, 77, 32
2, 269457, Note_on_c, 0, 77, 0
2, 269515, Note_on_c, 0, 74, 38
2, 269664, Note_on_c, 0, 74, 0
2, 269700, Note_on_c, 0, 62, 35
2, 269709, Note_on_c, 0, 58, 34
2, 269724, Note_on_c, 0, 53, 20
2, 269737, Note_on_c, 0, 62, 0
2, 269776, Note_on_c, 0, 58, 0
2, 269808, Note_on_c, 0, 53, 0
2, 269832, Note_on_c, 0, 70, 8
2, 269980, Note_on_c, 0, 70, 0
2, 270021, Note_on_c, 0, 69, 48
2, 270059, Note_on_c, 0, 69, 0
2, 270437, Note_on_c, 0, 36, 73
2, 270503, Note_on_c, 0, 36, 0
2, 270735, Note_on_c, 0, 88, 74
2, 270741, Note_on_c, 0, 76, 74
2, 270807, Note_on_c, 0, 76, 0
2, 270813, Note_on_c, 0, 88, 0
2, 271206, Note_on_c, 0, 86, 74
2, 271214, Note_on_c, 0, 64, 65
2, 271216, Note_on_c, 0, 74, 71
2, 271223, Note_on_c, 0, 60, 34
2, 271228, Note_on_c, 0, 58, 48
2, 271252, Note_on_c, 0, 74, 0
2, 271281, Note_on_c, 0, 86, 0
2, 271294, Note_on_c, 0, 64, 0
2, 271318, Note_on_c, 0, 60, 0
2, 271383, Note_on_c, 0, 58, 0
2, 271676, Note_on_c, 0, 84, 75
2, 271689, Note_on_c, 0, 72, 71
2, 271894, Note_on_c, 0, 84, 0
2, 271921, Note_on_c, 0, 72, 0
2, 272131, Note_on_c, 0, 82, 55
2, 272143, Note_on_c, 0, 70, 54
2, 272283, Note_on_c, 0, 82, 0
2, 272302, Note_on_c, 0, 70, 0
2, 272605, Note_on_c, 0, 41, 24
2, 272623, Note_on_c, 0, 80, 60
2, 272629, Note_on_c, 0, 68, 67
2, 272633, Note_on_c, 0, 48, 29
2, 272645, Note_on_c, 0, 57, 24
2, 272691, Note_on_c, 0, 41, 0
2, 272762, Note_on_c, 0, 48, 0
2, 272781, Note_on_c, 0, 57, 0
2, 272813, Note_on_c, 0, 80, 0
2, 272817, Note_on_c, 0, 68, 0
2, 272876, Note_on_c, 0, 69, 53
2, 272879, Note_on_c, 0, 81, 59
2, 272914, Note_on_c, 0, 74, 32
2, 272921, Note_on_c, 0, 77, 32
2, 272969, Note_on_c, 0, 74, 0
2, 272987, Note_on_c, 0, 69, 0
2, 272996, Note_on_c, 0, 81, 0
2, 273013, Note_on_c, 0, 77, 0
2, 273109, Note_on_c, 0, 81, 69
2, 273113, Note_on_c, 0, 69, 62
2, 273141, Note_on_c, 0, 77, 37
2, 273148, Note_on_c, 0, 74, 32
2, 273229, Note_on_c, 0, 74, 0
2, 273238, Note_on_c, 0, 69, 0
2, 273249, Note_on_c, 0, 81, 0
2, 273260, Note_on_c, 0, 77, 0
2, 273329, Note_on_c, 0, 81, 73
2, 273340, Note_on_c, 0, 69, 62
2, 273359, Note_on_c, 0, 74, 48
2, 273372, Note_on_c, 0, 77, 46
2, 273425, Note_on_c, 0, 69, 0
2, 273437, Note_on_c, 0, 81, 0
2, 273496, Note_on_c, 0, 74, 0
2, 273513, Note_on_c, 0, 77, 0
2, 273557, Note_on_c, 0, 80, 63
2, 273560, Note_on_c, 0, 68, 65
2, 273561, Note_on_c, 0, 53, 64
2, 273563, Note_on_c, 0, 60, 36
2, 273565, Note_on_c, 0, 62, 64
2, 273570, Note_on_c, 0, 77, 24
2, 273571, Note_on_c, 0, 74, 67
2, 273588, Note_on_c, 0, 57, 28
2, 273597, Note_on_c, 0, 62, 0
2, 273605, Note_on_c, 0, 60, 0
2, 273643, Note_on_c, 0, 57, 0
2, 273696, Note_on_c, 0, 53, 0
2, 273708, Note_on_c, 0, 74, 0
2, 273722, Note_on_c, 0, 80, 0
2, 273732, Note_on_c, 0, 68, 0
2, 273747, Note_on_c, 0, 77, 0
2, 273821, Note_on_c, 0, 74, 40
2, 273823, Note_on_c, 0, 69, 43
2, 273824, Note_on_c, 0, 81, 35
2, 273900, Note_on_c, 0, 69, 0
2, 273909, Note_on_c, 0, 74, 0
2, 273912, Note_on_c, 0, 81, 0
2, 274042, Note_on_c, 0, 81, 60
2, 274060, Note_on_c, 0, 69, 35
2, 274114, Note_on_c, 0, 69, 0
2, 274136, Note_on_c, 0, 81, 0
2, 274161, Control_c, 0, 64, 127
2, 274267, Control_c, 0, 64, 0
2, 274296, Note_on_c, 0, 81, 80
2, 274297, Note_on_c, 0, 69, 85
2, 274299, Note_on_c, 0, 74, 77
2, 274301, Note_on_c, 0, 78, 54
2, 274306, Note_on_c, 0, 40, 70
2, 274425, Note_on_c, 0, 40, 0
2, 274429, Note_on_c, 0, 74, 0
2, 274443, Note_on_c, 0, 69, 0
2, 274445, Note_on_c, 0, 81, 0
2, 274458, Note_on_c, 0, 78, 0
2, 274524, Note_on_c, 0, 81, 70
2, 274535, Note_on_c, 0, 78, 57
2, 274536, Note_on_c, 0, 69, 64
2, 274539, Note_on_c, 0, 74, 70
2, 274656, Note_on_c, 0, 74, 0
2, 274672, Note_on_c, 0, 69, 0
2, 274684, Note_on_c, 0, 78, 0
2, 274691, Note_on_c, 0, 81, 0
2, 274812, Note_on_c, 0, 52, 80
2, 274813, Note_on_c, 0, 58, 85
2, 274819, Note_on_c, 0, 62, 89
2, 274874, Note_on_c, 0, 62, 0
2, 274934, Note_on_c, 0, 52, 0
2, 274961, Note_on_c, 0, 58, 0
2, 275000, Note_on_c, 0, 78, 62
2, 275003, Note_on_c, 0, 69, 85
2, 275004, Note_on_c, 0, 74, 78
2, 275006, Note_on_c, 0, 81, 74
2, 275185, Note_on_c, 0, 74, 0
2, 275190, Note_on_c, 0, 69, 0
2, 275207, Note_on_c, 0, 81, 0
2, 275222, Note_on_c, 0, 78, 0
2, 275250, Note_on_c, 0, 45, 68
2, 275307, Note_on_c, 0, 45, 0
2, 275463, Note_on_c, 0, 82, 85
2, 275465, Note_on_c, 0, 70, 91
2, 275469, Note_on_c, 0, 55, 78
2, 275473, Note_on_c, 0, 75, 78
2, 275500, Note_on_c, 0, 65, 29
2, 275519, Control_c, 0, 64, 127
2, 275532, Note_on_c, 0, 65, 0
2, 275581, Note_on_c, 0, 58, 18
2, 275604, Note_on_c, 0, 61, 2
2, 275724, Note_on_c, 0, 75, 0
2, 275745, Note_on_c, 0, 70, 0
2, 275746, Note_on_c, 0, 82, 0
2, 275791, Note_on_c, 0, 55, 0
2, 275797, Note_on_c, 0, 58, 0
2, 275799, Note_on_c, 0, 61, 0
2, 275913, Control_c, 0, 64, 0
2, 275933, Note_on_c, 0, 79, 57
2, 275934, Note_on_c, 0, 55, 51
2, 275942, Note_on_c, 0, 61, 43
2, 275946, Note_on_c, 0, 64, 40
2, 275948, Note_on_c, 0, 58, 37
2, 275990, Control_c, 0, 64, 127
2, 276130, Note_on_c, 0, 55, 0
2, 276131, Note_on_c, 0, 79, 0
2, 276139, Note_on_c, 0, 58, 0
2, 276146, Note_on_c, 0, 64, 0
2, 276194, Note_on_c, 0, 61, 0
2, 276346, Control_c, 0, 64, 0
2, 276421, Note_on_c, 0, 61, 51
2, 276425, Note_on_c, 0, 78, 60
2, 276430, Note_on_c, 0, 66, 49
2, 276438, Note_on_c, 0, 64, 55
2, 276442, Note_on_c, 0, 59, 47
2, 276462, Note_on_c, 0, 54, 28
2, 276475, Note_on_c, 0, 66, 0
2, 276500, Control_c, 0, 64, 127
2, 276554, Note_on_c, 0, 78, 0
2, 276842, Note_on_c, 0, 64, 0
2, 276844, Note_on_c, 0, 59, 0
2, 276872, Note_on_c, 0, 61, 0
2, 276892, Note_on_c, 0, 93, 99
2, 276923, Note_on_c, 0, 54, 0
2, 277109, Note_on_c, 0, 93, 0
2, 277212, Control_c, 0, 64, 0
2, 277214, Note_on_c, 0, 57, 37
2, 277219, Note_on_c, 0, 50, 46
2, 277221, Note_on_c, 0, 88, 71
2, 277240, Note_on_c, 0, 54, 32
2, 277386, Control_c, 0, 64, 127
2, 277466, Note_on_c, 0, 88, 0
2, 277473, Note_on_c, 0, 50, 0
2, 277489, Note_on_c, 0, 57, 0
2, 277527, Note_on_c, 0, 54, 0
2, 277548, Note_on_c, 0, 90, 82
2, 277902, Note_on_c, 0, 90, 0
2, 277911, Note_on_c, 0, 61, 51
2, 277923, Note_on_c, 0, 54, 35
2, 277924, Control_c, 0, 64, 0
2, 277930, Note_on_c, 0, 59, 44
2, 277931, Note_on_c, 0, 83, 65
2, 277932, Note_on_c, 0, 64, 35
2, 277992, Control_c, 0, 64, 127
2, 278165, Note_on_c, 0, 83, 0
2, 278170, Note_on_c, 0, 64, 0
2, 278171, Note_on_c, 0, 59, 0
2, 278189, Note_on_c, 0, 54, 0
2, 278189, Note_on_c, 0, 61, 0
2, 278260, Note_on_c, 0, 54, 75
2, 278266, Note_on_c, 0, 65, 84
2, 278271, Control_c, 0, 64, 0
2, 278272, Note_on_c, 0, 60, 63
2, 278274, Note_on_c, 0, 85, 87
2, 278512, Control_c, 0, 64, 127
2, 278854, Note_on_c, 0, 85, 0
2, 278867, Control_c, 0, 64, 0
2, 278935, Note_on_c, 0, 84, 80
2, 279124, Note_on_c, 0, 65, 0
2, 279133, Note_on_c, 0, 60, 0
2, 279134, Note_on_c, 0, 54, 0
2, 279180, Note_on_c, 0, 54, 57
2, 279185, Control_c, 0, 64, 127
2, 279187, Note_on_c, 0, 65, 87
2, 279193, Note_on_c, 0, 60, 66
2, 279205, Note_on_c, 0, 82, 69
2, 279216, Note_on_c, 0, 83, 74
2, 279248, Note_on_c, 0, 83, 0
2, 279251, Note_on_c, 0, 84, 0
2, 279271, Control_c, 0, 64, 0
2, 279383, Note_on_c, 0, 82, 0
2, 279426, Note_on_c, 0, 81, 48
2, 279625, Note_on_c, 0, 65, 0
2, 279629, Control_c, 0, 64, 127
2, 279652, Note_on_c, 0, 81, 0
2, 279681, Note_on_c, 0, 65, 52
2, 279696, Control_c, 0, 64, 0
2, 279697, Note_on_c, 0, 77, 53
2, 279788, Note_on_c, 0, 77, 0
2, 279888, Note_on_c, 0, 65, 0
2, 279897, Control_c, 0, 64, 127
2, 279968, Note_on_c, 0, 74, 47
2, 280104, Note_on_c, 0, 60, 0
2, 280143, Note_on_c, 0, 74, 0
2, 280241, Note_on_c, 0, 54, 0
2, 280349, Control_c, 0, 64, 0
2, 280363, Note_on_c, 0, 82, 60
2, 280369, Note_on_c, 0, 70, 57
2, 280374, Note_on_c, 0, 63, 64
2, 280387, Note_on_c, 0, 59, 47
2, 280388, Note_on_c, 0, 58, 40
2, 280429, Note_on_c, 0, 54, 18
2, 280457, Note_on_c, 0, 82, 0
2, 280472, Note_on_c, 0, 70, 0
2, 280542, Control_c, 0, 64, 127
2, 280624, Note_on_c, 0, 65, 59
2, 280703, Note_on_c, 0, 65, 0
2, 280706, Control_c, 0, 64, 0
2, 280708, Note_on_c, 0, 66, 51
2, 280790, Note_on_c, 0, 68, 51
2, 280822, Control_c, 0, 64, 127
2, 280825, Note_on_c, 0, 66, 0
2, 280861, Note_on_c, 0, 70, 33
2, 280867, Note_on_c, 0, 68, 0
2, 280897, Note_on_c, 0, 63, 0
2, 280898, Note_on_c, 0, 70, 0
2, 280914, Note_on_c, 0, 71, 60
2, 280959, Note_on_c, 0, 59, 0
2, 280970, Note_on_c, 0, 71, 0
2, 280984, Note_on_c, 0, 58, 0
2, 281008, Note_on_c, 0, 73, 34
2, 281022, Note_on_c, 0, 54, 0
2, 281080, Note_on_c, 0, 75, 64
2, 281082, Note_on_c, 0, 73, 0
2, 281145, Note_on_c, 0, 75, 0
2, 281189, Note_on_c, 0, 77, 58
2, 281264, Control_c, 0, 64, 0
2, 281265, Note_on_c, 0, 77, 0
2, 281285, Note_on_c, 0, 78, 75
2, 281291, Note_on_c, 0, 63, 64
2, 281295, Note_on_c, 0, 59, 60
2, 281306, Note_on_c, 0, 58, 50
2, 281313, Note_on_c, 0, 53, 46
2, 281508, Note_on_c, 0, 78, 0
2, 281559, Note_on_c, 0, 80, 77
2, 281695, Note_on_c, 0, 80, 0
2, 281808, Note_on_c, 0, 82, 75
2, 281953, Note_on_c, 0, 82, 0
2, 281969, Note_on_c, 0, 59, 0
2, 281977, Control_c, 0, 64, 127
2, 281991, Note_on_c, 0, 63, 0
2, 282015, Note_on_c, 0, 83, 67
2, 282066, Note_on_c, 0, 58, 0
2, 282122, Note_on_c, 0, 53, 0
2, 282133, Note_on_c, 0, 83, 0
2, 282178, Control_c, 0, 64, 0
2, 282220, Note_on_c, 0, 62, 61
2, 282223, Note_on_c, 0, 53, 31
2, 282226, Note_on_c, 0, 58, 60
2, 282241, Note_on_c, 0, 84, 71
2, 282253, Note_on_c, 0, 72, 68
2, 282279, Note_on_c, 0, 80, 46
2, 282288, Note_on_c, 0, 62, 0
2, 282322, Note_on_c, 0, 58, 0
2, 282353, Note_on_c, 0, 53, 0
2, 282446, Note_on_c, 0, 72, 0
2, 282465, Note_on_c, 0, 84, 0
2, 282468, Note_on_c, 0, 81, 27
2, 282469, Note_on_c, 0, 80, 0
2, 282510, Note_on_c, 0, 81, 0
2, 282584, Note_on_c, 0, 48, 88
2, 282862, Note_on_c, 0, 48, 0
2, 283000, Note_on_c, 0, 36, 68
2, 283064, Note_on_c, 0, 36, 0
2, 283218, Note_on_c, 0, 69, 76
2, 283228, Note_on_c, 0, 64, 57
2, 283228, Note_on_c, 0, 58, 74
2, 283230, Note_on_c, 0, 61, 71
2, 283319, Note_on_c, 0, 58, 0
2, 283322, Note_on_c, 0, 61, 0
2, 283350, Note_on_c, 0, 64, 0
2, 283374, Note_on_c, 0, 69, 0
2, 283673, Note_on_c, 0, 73, 60
2, 283681, Note_on_c, 0, 58, 71
2, 283682, Note_on_c, 0, 63, 64
2, 283683, Note_on_c, 0, 68, 68
2, 283933, Note_on_c, 0, 68, 0
2, 283939, Note_on_c, 0, 63, 0
2, 283945, Note_on_c, 0, 58, 0
2, 283946, Note_on_c, 0, 73, 0
2, 284144, Note_on_c, 0, 72, 57
2, 284152, Control_c, 0, 64, 127
2, 284157, Note_on_c, 0, 67, 62
2, 284161, Note_on_c, 0, 57, 41
2, 284165, Note_on_c, 0, 62, 61
2, 284221, Note_on_c, 0, 57, 0
2, 284247, Note_on_c, 0, 72, 0
2, 284255, Note_on_c, 0, 67, 0
2, 284322, Note_on_c, 0, 62, 0
2, 284420, Note_on_c, 0, 48, 58
2, 284441, Control_c, 0, 64, 0
2, 284506, Note_on_c, 0, 48, 0
2, 284621, Note_on_c, 0, 57, 35
2, 284626, Note_on_c, 0, 60, 36
2, 284776, Note_on_c, 0, 60, 0
2, 284794, Note_on_c, 0, 57, 0
2, 284899, Note_on_c, 0, 67, 65
2, 284901, Note_on_c, 0, 46, 53
2, 284909, Note_on_c, 0, 60, 40
2, 284918, Note_on_c, 0, 56, 53
2, 284919, Note_on_c, 0, 64, 51
2, 285125, Note_on_c, 0, 60, 0
2, 285127, Note_on_c, 0, 67, 0
2, 285128, Note_on_c, 0, 64, 0
2, 285133, Note_on_c, 0, 56, 0
2, 285162, Note_on_c, 0, 46, 0
2, 285361, Note_on_c, 0, 46, 57
2, 285369, Note_on_c, 0, 64, 53
2, 285371, Note_on_c, 0, 56, 49
2, 285377, Note_on_c, 0, 60, 49
2, 285380, Note_on_c, 0, 67, 47
2, 285484, Note_on_c, 0, 64, 0
2, 285491, Note_on_c, 0, 67, 0
2, 285511, Note_on_c, 0, 56, 0
2, 285536, Note_on_c, 0, 60, 0
2, 285540, Note_on_c, 0, 46, 0
2, 285624, Note_on_c, 0, 60, 36
2, 285628, Note_on_c, 0, 45, 55
2, 285630, Note_on_c, 0, 55, 55
2, 285645, Note_on_c, 0, 52, 50
2, 285868, Note_on_c, 0, 55, 0
2, 285903, Note_on_c, 0, 52, 0
2, 285909, Note_on_c, 0, 60, 0
2, 285912, Note_on_c, 0, 45, 0
2, 286125, Control_c, 0, 64, 127
2, 286350, Note_on_c, 0, 60, 42
2, 286364, Note_on_c, 0, 55, 49
2, 286366, Note_on_c, 0, 52, 57
2, 286372, Note_on_c, 0, 45, 51
2, 286436, Note_on_c, 0, 52, 0
2, 286479, Note_on_c, 0, 60, 0
2, 286488, Note_on_c, 0, 45, 0
2, 286513, Note_on_c, 0, 55, 0
2, 286790, Note_on_c, 0, 26, 46
2, 286793, Note_on_c, 0, 64, 53
2, 286799, Control_c, 0, 64, 0
2, 286805, Note_on_c, 0, 54, 54
2, 286809, Note_on_c, 0, 58, 64
2, 286813, Note_on_c, 0, 60, 37
2, 286814, Note_on_c, 0, 38, 29
2, 286893, Note_on_c, 0, 54, 0
2, 286925, Note_on_c, 0, 60, 0
2, 286933, Control_c, 0, 64, 127
2, 286935, Note_on_c, 0, 58, 0
2, 286939, Note_on_c, 0, 26, 0
2, 286948, Note_on_c, 0, 64, 0
2, 286972, Note_on_c, 0, 38, 0
2, 287280, Note_on_c, 0, 69, 96
2, 287292, Note_on_c, 0, 54, 68
2, 287293, Note_on_c, 0, 60, 57
2, 287296, Note_on_c, 0, 65, 81
2, 287311, Note_on_c, 0, 64, 59
2, 287328, Control_c, 0, 64, 0
2, 287344, Note_on_c, 0, 64, 0
2, 287452, Note_on_c, 0, 69, 0
2, 287522, Note_on_c, 0, 70, 52
2, 287542, Note_on_c, 0, 65, 0
2, 287578, Control_c, 0, 64, 127
2, 287645, Control_c, 0, 64, 0
2, 287660, Note_on_c, 0, 60, 0
2, 287686, Note_on_c, 0, 70, 0
2, 287722, Control_c, 0, 64, 127
2, 287754, Note_on_c, 0, 72, 91
2, 287786, Note_on_c, 0, 67, 60
2, 287788, Note_on_c, 0, 54, 0
2, 287817, Note_on_c, 0, 67, 0
2, 287916, Note_on_c, 0, 72, 0
2, 287944, Control_c, 0, 64, 0
2, 287958, Note_on_c, 0, 53, 34
2, 287971, Note_on_c, 0, 62, 58
2, 287974, Note_on_c, 0, 58, 55
2, 287983, Note_on_c, 0, 57, 36
2, 287984, Note_on_c, 0, 72, 69
2, 288003, Note_on_c, 0, 65, 50
2, 288005, Note_on_c, 0, 69, 57
2, 288159, Note_on_c, 0, 62, 0
2, 288197, Note_on_c, 0, 57, 0
2, 288198, Note_on_c, 0, 72, 0
2, 288209, Note_on_c, 0, 58, 0
2, 288218, Note_on_c, 0, 53, 0
2, 288250, Note_on_c, 0, 74, 62
2, 288265, Note_on_c, 0, 65, 0
2, 288286, Note_on_c, 0, 69, 0
2, 288384, Note_on_c, 0, 74, 0
2, 288485, Note_on_c, 0, 65, 52
2, 288485, Note_on_c, 0, 70, 57
2, 288575, Note_on_c, 0, 70, 0
2, 288585, Note_on_c, 0, 65, 0
2, 288656, Control_c, 0, 64, 127
2, 288733, Note_on_c, 0, 50, 55
2, 288819, Note_on_c, 0, 50, 0
2, 288848, Control_c, 0, 64, 0
2, 288959, Note_on_c, 0, 62, 56
2, 288968, Note_on_c, 0, 58, 37
2, 288970, Note_on_c, 0, 65, 43
2, 289001, Note_on_c, 0, 58, 0
2, 289066, Note_on_c, 0, 62, 0
2, 289097, Note_on_c, 0, 65, 0
2, 289195, Control_c, 0, 64, 127
2, 289223, Note_on_c, 0, 36, 60
2, 289252, Control_c, 0, 64, 0
2, 289308, Note_on_c, 0, 36, 0
2, 289429, Note_on_c, 0, 84, 70
2, 289440, Note_on_c, 0, 72, 59
2, 289628, Note_on_c, 0, 84, 0
2, 289629, Note_on_c, 0, 72, 0
2, 289705, Note_on_c, 0, 64, 58
2, 289718, Note_on_c, 0, 58, 39
2, 289720, Note_on_c, 0, 60, 30
2, 289742, Note_on_c, 0, 64, 0
2, 289760, Note_on_c, 0, 60, 0
2, 289830, Note_on_c, 0, 58, 0
2, 289926, Control_c, 0, 64, 127
2, 290166, Note_on_c, 0, 88, 80
2, 290174, Note_on_c, 0, 76, 83
2, 290177, Note_on_c, 0, 80, 68
2, 290179, Note_on_c, 0, 84, 75
2, 290200, Note_on_c, 0, 86, 45
2, 290206, Control_c, 0, 64, 0
2, 290236, Note_on_c, 0, 86, 0
2, 290446, Control_c, 0, 64, 127
2, 290600, Control_c, 0, 64, 0
2, 290604, Note_on_c, 0, 34, 69
2, 290684, Note_on_c, 0, 34, 0
2, 290773, Control_c, 0, 64, 127
2, 290852, Note_on_c, 0, 76, 0
2, 290854, Note_on_c, 0, 88, 0
2, 290861, Note_on_c, 0, 84, 0
2, 290877, Note_on_c, 0, 80, 0
2, 290926, Note_on_c, 0, 86, 57
2, 290932, Note_on_c, 0, 74, 63
2, 290932, Note_on_c, 0, 80, 64
2, 291070, Note_on_c, 0, 74, 0
2, 291075, Note_on_c, 0, 86, 0
2, 291142, Note_on_c, 0, 80, 0
2, 291196, Control_c, 0, 64, 0
2, 291341, Control_c, 0, 64, 127
2, 291356, Note_on_c, 0, 46, 46
2, 291360, Note_on_c, 0, 80, 59
2, 291362, Note_on_c, 0, 85, 60
2, 291369, Note_on_c, 0, 73, 40
2, 291396, Note_on_c, 0, 56, 18
2, 291437, Note_on_c, 0, 56, 0
2, 291487, Note_on_c, 0, 46, 0
2, 291578, Note_on_c, 0, 85, 0
2, 291582, Note_on_c, 0, 80, 0
2, 291583, Note_on_c, 0, 73, 0
2, 291630, Control_c, 0, 64, 0
2, 291654, Note_on_c, 0, 45, 55
2, 291660, Note_on_c, 0, 84, 54
2, 291675, Note_on_c, 0, 72, 45
2, 291679, Note_on_c, 0, 79, 52
2, 291686, Note_on_c, 0, 55, 24
2, 291784, Control_c, 0, 64, 127
2, 291787, Note_on_c, 0, 45, 0
2, 291852, Note_on_c, 0, 55, 0
2, 291909, Note_on_c, 0, 79, 0
2, 291933, Note_on_c, 0, 84, 0
2, 292042, Note_on_c, 0, 72, 0
2, 292129, Note_on_c, 0, 64, 67
2, 292142, Note_on_c, 0, 59, 55
2, 292144, Note_on_c, 0, 60, 44
2, 292145, Note_on_c, 0, 55, 50
2, 292480, Note_on_c, 0, 60, 0
2, 292493, Note_on_c, 0, 64, 0
2, 292550, Note_on_c, 0, 59, 0
2, 292627, Note_on_c, 0, 64, 60
2, 292634, Note_on_c, 0, 79, 72
2, 292636, Note_on_c, 0, 72, 74
2, 292636, Note_on_c, 0, 76, 68
2, 292637, Note_on_c, 0, 69, 77
2, 292640, Control_c, 0, 64, 0
2, 292789, Note_on_c, 0, 76, 0
2, 292803, Note_on_c, 0, 69, 0
2, 292805, Note_on_c, 0, 79, 0
2, 292816, Note_on_c, 0, 72, 0
2, 292823, Note_on_c, 0, 64, 0
2, 292847, Note_on_c, 0, 62, 49
2, 292878, Note_on_c, 0, 77, 38
2, 293026, Note_on_c, 0, 77, 0
2, 293091, Note_on_c, 0, 62, 0
2, 293108, Note_on_c, 0, 64, 53
2, 293110, Note_on_c, 0, 79, 68
2, 293115, Note_on_c, 0, 69, 60
2, 293122, Note_on_c, 0, 72, 57
2, 293149, Note_on_c, 0, 76, 38
2, 293201, Note_on_c, 0, 76, 0
2, 293228, Note_on_c, 0, 69, 0
2, 293251, Note_on_c, 0, 64, 0
2, 293275, Note_on_c, 0, 79, 0
2, 293279, Note_on_c, 0, 72, 0
2, 293327, Note_on_c, 0, 62, 60
2, 293330, Note_on_c, 0, 77, 56
2, 293334, Note_on_c, 0, 69, 48
2, 293344, Note_on_c, 0, 72, 33
2, 293401, Control_c, 0, 64, 127
2, 293435, Note_on_c, 0, 72, 0
2, 293447, Note_on_c, 0, 77, 0
2, 293468, Note_on_c, 0, 69, 0
2, 293532, Note_on_c, 0, 55, 0
2, 293559, Note_on_c, 0, 62, 0
2, 293786, Control_c, 0, 64, 0
2, 293830, Note_on_c, 0, 76, 74
2, 293831, Note_on_c, 0, 61, 74
2, 293838, Note_on_c, 0, 65, 58
2, 293847, Note_on_c, 0, 69, 55
2, 293849, Note_on_c, 0, 73, 34
2, 293999, Note_on_c, 0, 69, 0
2, 294017, Note_on_c, 0, 73, 0
2, 294048, Note_on_c, 0, 65, 0
2, 294074, Note_on_c, 0, 76, 0
2, 294086, Note_on_c, 0, 61, 0
2, 294106, Note_on_c, 0, 60, 28
2, 294241, Note_on_c, 0, 60, 0
2, 294296, Note_on_c, 0, 61, 63
2, 294300, Note_on_c, 0, 76, 64
2, 294302, Note_on_c, 0, 73, 39
2, 294309, Note_on_c, 0, 65, 56
2, 294317, Note_on_c, 0, 69, 60
2, 294373, Control_c, 0, 64, 127
2, 294465, Note_on_c, 0, 69, 0
2, 294498, Note_on_c, 0, 61, 0
2, 294505, Note_on_c, 0, 65, 0
2, 294538, Note_on_c, 0, 73, 0
2, 294551, Note_on_c, 0, 76, 0
2, 294565, Control_c, 0, 64, 0
2, 294623, Note_on_c, 0, 74, 56
2, 294624, Note_on_c, 0, 65, 57
2, 294631, Note_on_c, 0, 60, 42
2, 294632, Note_on_c, 0, 69, 57
2, 294716, Note_on_c, 0, 69, 0
2, 294726, Note_on_c, 0, 74, 0
2, 294731, Control_c, 0, 64, 127
2, 294765, Note_on_c, 0, 65, 0
2, 294975, Note_on_c, 0, 60, 0
2, 295079, Note_on_c, 0, 72, 55
2, 295080, Note_on_c, 0, 62, 65
2, 295091, Note_on_c, 0, 57, 48
2, 295095, Note_on_c, 0, 69, 47
2, 295105, Note_on_c, 0, 65, 49
2, 295209, Note_on_c, 0, 62, 0
2, 295281, Note_on_c, 0, 69, 0
2, 295283, Note_on_c, 0, 57, 0
2, 295318, Note_on_c, 0, 53, 50
2, 295319, Note_on_c, 0, 72, 0
2, 295329, Note_on_c, 0, 65, 0
2, 295398, Note_on_c, 0, 53, 0
2, 295560, Note_on_c, 0, 44, 55
2, 295677, Note_on_c, 0, 44, 0
2, 295780, Control_c, 0, 64, 0
2, 295799, Note_on_c, 0, 53, 49
2, 295813, Note_on_c, 0, 43, 35
2, 296036, Note_on_c, 0, 59, 53
2, 296043, Note_on_c, 0, 43, 0
2, 296094, Note_on_c, 0, 53, 0
2, 296144, Note_on_c, 0, 59, 0
2, 296261, Note_on_c, 0, 61, 52
2, 296456, Note_on_c, 0, 61, 0
2, 296497, Note_on_c, 0, 53, 40
2, 296509, Note_on_c, 0, 59, 46
2, 296521, Note_on_c, 0, 63, 58
2, 296715, Note_on_c, 0, 63, 0
2, 296776, Note_on_c, 0, 65, 43
2, 296938, Note_on_c, 0, 65, 0
2, 297008, Note_on_c, 0, 67, 73
2, 297015, Note_on_c, 0, 64, 56
2, 297177, Note_on_c, 0, 64, 0
2, 297184, Note_on_c, 0, 53, 0
2, 297190, Note_on_c, 0, 67, 0
2, 297234, Control_c, 0, 64, 127
2, 297236, Note_on_c, 0, 69, 69
2, 297239, Note_on_c, 0, 59, 0
2, 297413, Note_on_c, 0, 69, 0
2, 297483, Note_on_c, 0, 70, 67
2, 297667, Control_c, 0, 64, 0
2, 297682, Note_on_c, 0, 70, 0
2, 297687, Note_on_c, 0, 54, 48
2, 297693, Note_on_c, 0, 62, 46
2, 297694, Note_on_c, 0, 59, 40
2, 297710, Note_on_c, 0, 71, 66
2, 297860, Note_on_c, 0, 54, 0
2, 297883, Note_on_c, 0, 71, 0
2, 297910, Note_on_c, 0, 59, 0
2, 297924, Note_on_c, 0, 62, 0
2, 297940, Note_on_c, 0, 74, 61
2, 298098, Note_on_c, 0, 74, 0
2, 298158, Note_on_c, 0, 77, 55
2, 298271, Note_on_c, 0, 77, 0
2, 298404, Note_on_c, 0, 80, 71
2, 298565, Note_on_c, 0, 80, 0
2, 298624, Note_on_c, 0, 83, 62
2, 298781, Note_on_c, 0, 83, 0
2, 298844, Note_on_c, 0, 86, 74
2, 298848, Note_on_c, 0, 74, 66
2, 298943, Note_on_c, 0, 74, 0
2, 298951, Note_on_c, 0, 86, 0
2, 299019, Note_on_c, 0, 56, 42
2, 299034, Note_on_c, 0, 47, 39
2, 299092, Note_on_c, 0, 73, 42
2, 299101, Note_on_c, 0, 56, 0
2, 299107, Note_on_c, 0, 47, 0
2, 299207, Control_c, 0, 64, 127
2, 299228, Note_on_c, 0, 73, 0
2, 299327, Note_on_c, 0, 84, 40
2, 299391, Note_on_c, 0, 84, 0
2, 299438, Control_c, 0, 64, 0
2, 299498, Note_on_c, 0, 43, 47
2, 299548, Note_on_c, 0, 43, 0
2, 299552, Note_on_c, 0, 86, 68
2, 299570, Note_on_c, 0, 74, 34
2, 299616, Note_on_c, 0, 74, 0
2, 299656, Note_on_c, 0, 86, 0
2, 299988, Note_on_c, 0, 89, 88
2, 299992, Note_on_c, 0, 77, 89
2, 300112, Control_c, 0, 64, 127
2, 300156, Note_on_c, 0, 89, 0
2, 300199, Note_on_c, 0, 77, 0
2, 300285, Control_c, 0, 64, 0
2, 300462, Note_on_c, 0, 62, 54
2, 300472, Note_on_c, 0, 53, 38
2, 300474, Note_on_c, 0, 58, 40
2, 300495, Note_on_c, 0, 62, 0
2, 300523, Note_on_c, 0, 58, 0
2, 300535, Control_c, 0, 64, 127
2, 300566, Note_on_c, 0, 53, 0
2, 300574, Control_c, 0, 64, 0
2, 300612, Control_c, 0, 64, 127
2, 300748, Note_on_c, 0, 74, 48
2, 300750, Note_on_c, 0, 86, 46
2, 300798, Note_on_c, 0, 74, 0
2, 300835, Note_on_c, 0, 86, 0
2, 300930, Control_c, 0, 64, 0
2, 301151, Control_c, 0, 64, 127
2, 301180, Note_on_c, 0, 89, 82
2, 301189, Note_on_c, 0, 77, 82
2, 301271, Note_on_c, 0, 77, 0
2, 301272, Note_on_c, 0, 89, 0
2, 301363, Control_c, 0, 64, 0
2, 301415, Note_on_c, 0, 36, 40
2, 301428, Note_on_c, 0, 88, 69
2, 301434, Note_on_c, 0, 52, 24
2, 301440, Note_on_c, 0, 76, 56
2, 301452, Note_on_c, 0, 36, 0
2, 301506, Note_on_c, 0, 76, 0
2, 301519, Note_on_c, 0, 88, 0
2, 301545, Control_c, 0, 64, 127
2, 301560, Note_on_c, 0, 52, 0
2, 301681, Note_on_c, 0, 89, 62
2, 301686, Note_on_c, 0, 77, 47
2, 301735, Note_on_c, 0, 77, 0
2, 301749, Note_on_c, 0, 89, 0
2, 301878, Note_on_c, 0, 91, 82
2, 301887, Note_on_c, 0, 79, 83
2, 301983, Note_on_c, 0, 91, 0
2, 302006, Note_on_c, 0, 79, 0
2, 302306, Control_c, 0, 64, 0
2, 302323, Note_on_c, 0, 87, 72
2, 302325, Note_on_c, 0, 75, 74
2, 302344, Note_on_c, 0, 67, 66
2, 302346, Note_on_c, 0, 56, 62
2, 302348, Note_on_c, 0, 62, 61
2, 302452, Note_on_c, 0, 76, 45
2, 302456, Note_on_c, 0, 81, 17
2, 302468, Note_on_c, 0, 75, 0
2, 302489, Note_on_c, 0, 87, 0
2, 302585, Note_on_c, 0, 76, 0
2, 302601, Note_on_c, 0, 81, 0
2, 302706, Note_on_c, 0, 62, 0
2, 302720, Note_on_c, 0, 67, 0
2, 302757, Note_on_c, 0, 56, 0
2, 302786, Note_on_c, 0, 84, 63
2, 302803, Note_on_c, 0, 72, 62
2, 302845, Control_c, 0, 64, 127
2, 302943, Note_on_c, 0, 72, 0
2, 302956, Note_on_c, 0, 84, 0
2, 303072, Note_on_c, 0, 84, 68
2, 303076, Control_c, 0, 64, 0
2, 303084, Note_on_c, 0, 73, 58
2, 303085, Note_on_c, 0, 65, 62
2, 303087, Note_on_c, 0, 61, 50
2, 303096, Note_on_c, 0, 60, 34
2, 303106, Note_on_c, 0, 55, 41
2, 303111, Note_on_c, 0, 77, 52
2, 303221, Note_on_c, 0, 65, 0
2, 303240, Note_on_c, 0, 60, 0
2, 303253, Note_on_c, 0, 61, 0
2, 303262, Control_c, 0, 64, 127
2, 303289, Note_on_c, 0, 55, 0
2, 303351, Note_on_c, 0, 84, 0
2, 303387, Note_on_c, 0, 77, 0
2, 303431, Note_on_c, 0, 73, 0
2, 303559, Note_on_c, 0, 39, 47
2, 303595, Note_on_c, 0, 39, 0
2, 303791, Control_c, 0, 64, 0
2, 303803, Note_on_c, 0, 72, 76
2, 303818, Note_on_c, 0, 65, 81
2, 303820, Note_on_c, 0, 61, 77
2, 303831, Note_on_c, 0, 59, 73
2, 303838, Note_on_c, 0, 69, 54
2, 303863, Note_on_c, 0, 71, 32
2, 303924, Note_on_c, 0, 71, 0
2, 304192, Note_on_c, 0, 59, 0
2, 304218, Note_on_c, 0, 61, 0
2, 304234, Note_on_c, 0, 65, 0
2, 304241, Note_on_c, 0, 72, 0
2, 304252, Note_on_c, 0, 69, 0
2, 304294, Note_on_c, 0, 61, 63
2, 304299, Note_on_c, 0, 57, 60
2, 304309, Note_on_c, 0, 65, 71
2, 304311, Note_on_c, 0, 70, 62
2, 304599, Control_c, 0, 64, 127
2, 304607, Note_on_c, 0, 61, 0
2, 304623, Note_on_c, 0, 65, 0
2, 304666, Control_c, 0, 64, 0
2, 304691, Note_on_c, 0, 70, 0
2, 304745, Note_on_c, 0, 61, 60
2, 304749, Note_on_c, 0, 57, 0
2, 304758, Note_on_c, 0, 69, 59
2, 304765, Note_on_c, 0, 65, 46
2, 304780, Note_on_c, 0, 55, 37
2, 304835, Note_on_c, 0, 55, 0
2, 304860, Note_on_c, 0, 69, 0
2, 304869, Control_c, 0, 64, 127
2, 304914, Note_on_c, 0, 65, 0
2, 304959, Note_on_c, 0, 61, 0
2, 305196, Control_c, 0, 64, 0
2, 305257, Note_on_c, 0, 54, 56
2, 305261, Note_on_c, 0, 68, 56
2, 305263, Note_on_c, 0, 60, 46
2, 305266, Note_on_c, 0, 63, 59
2, 305276, Note_on_c, 0, 66, 55
2, 305627, Note_on_c, 0, 54, 0
2, 305674, Note_on_c, 0, 68, 0
2, 305683, Note_on_c, 0, 60, 0
2, 305750, Note_on_c, 0, 69, 56
2, 305752, Note_on_c, 0, 60, 40
2, 305757, Note_on_c, 0, 57, 43
2, 305815, Note_on_c, 0, 69, 0
2, 305837, Note_on_c, 0, 63, 0
2, 305860, Note_on_c, 0, 57, 0
2, 305881, Note_on_c, 0, 60, 0
2, 305890, Note_on_c, 0, 66, 0
2, 305976, Control_c, 0, 64, 127
2, 306070, Note_on_c, 0, 57, 56
2, 306071, Note_on_c, 0, 60, 38
2, 306077, Note_on_c, 0, 65, 50
2, 306081, Control_c, 0, 64, 0
2, 306082, Note_on_c, 0, 62, 61
2, 306098, Note_on_c, 0, 50, 46
2, 306135, Note_on_c, 0, 57, 0
2, 306151, Note_on_c, 0, 60, 0
2, 306167, Note_on_c, 0, 62, 0
2, 306172, Note_on_c, 0, 50, 0
2, 306175, Note_on_c, 0, 65, 0
2, 306540, Note_on_c, 0, 44, 59
2, 306542, Note_on_c, 0, 60, 44
2, 306551, Note_on_c, 0, 54, 37
2, 306566, Note_on_c, 0, 57, 41
2, 306632, Note_on_c, 0, 57, 0
2, 306635, Note_on_c, 0, 60, 0
2, 306663, Note_on_c, 0, 54, 0
2, 306760, Note_on_c, 0, 44, 0
2, 306994, Note_on_c, 0, 61, 53
2, 307006, Note_on_c, 0, 53, 40
2, 307010, Note_on_c, 0, 43, 36
2, 307011, Note_on_c, 0, 59, 47
2, 307015, Note_on_c, 0, 50, 39
2, 307198, Control_c, 0, 64, 127
2, 307318, Note_on_c, 0, 59, 0
2, 307341, Note_on_c, 0, 53, 0
2, 307378, Note_on_c, 0, 61, 0
2, 307427, Note_on_c, 0, 50, 0
2, 307445, Note_on_c, 0, 62, 62
2, 307451, Note_on_c, 0, 59, 48
2, 307455, Note_on_c, 0, 53, 43
2, 307496, Control_c, 0, 64, 0
2, 307511, Note_on_c, 0, 62, 0
2, 307558, Note_on_c, 0, 59, 0
2, 307580, Note_on_c, 0, 53, 0
2, 307659, Note_on_c, 0, 65, 74
2, 307661, Note_on_c, 0, 59, 62
2, 307665, Note_on_c, 0, 53, 64
2, 307674, Note_on_c, 0, 56, 63
2, 307683, Note_on_c, 0, 62, 53
2, 307843, Note_on_c, 0, 56, 0
2, 307846, Note_on_c, 0, 59, 0
2, 307878, Note_on_c, 0, 65, 0
2, 307881, Note_on_c, 0, 62, 0
2, 307918, Note_on_c, 0, 53, 0
2, 308123, Note_on_c, 0, 53, 39
2, 308132, Note_on_c, 0, 65, 44
2, 308133, Note_on_c, 0, 59, 54
2, 308136, Note_on_c, 0, 56, 45
2, 308144, Note_on_c, 0, 62, 48
2, 308151, Control_c, 0, 64, 127
2, 308249, Note_on_c, 0, 62, 0
2, 308291, Note_on_c, 0, 56, 0
2, 308322, Note_on_c, 0, 59, 0
2, 308356, Note_on_c, 0, 65, 0
2, 308381, Control_c, 0, 64, 0
2, 308409, Note_on_c, 0, 53, 0
2, 308421, Note_on_c, 0, 56, 58
2, 308428, Note_on_c, 0, 59, 45
2, 308433, Note_on_c, 0, 62, 58
2, 308463, Note_on_c, 0, 50, 46
2, 308471, Note_on_c, 0, 43, 0
2, 308484, Note_on_c, 0, 59, 0
2, 308493, Note_on_c, 0, 56, 0
2, 308528, Note_on_c, 0, 62, 0
2, 308642, Control_c, 0, 64, 127
2, 308645, Note_on_c, 0, 50, 0
2, 308824, Control_c, 0, 64, 0
2, 308869, Note_on_c, 0, 68, 65
2, 308870, Note_on_c, 0, 65, 68
2, 308874, Note_on_c, 0, 63, 64
2, 308879, Note_on_c, 0, 59, 65
2, 308889, Note_on_c, 0, 49, 60
2, 309046, Control_c, 0, 64, 127
2, 309052, Note_on_c, 0, 68, 0
2, 309079, Note_on_c, 0, 59, 0
2, 309090, Note_on_c, 0, 63, 0
2, 309093, Note_on_c, 0, 65, 0
2, 309110, Note_on_c, 0, 49, 0
2, 309322, Note_on_c, 0, 63, 62
2, 309326, Note_on_c, 0, 68, 48
2, 309333, Note_on_c, 0, 49, 67
2, 309342, Note_on_c, 0, 59, 51
2, 309346, Note_on_c, 0, 65, 42
2, 309392, Control_c, 0, 64, 0
2, 309479, Control_c, 0, 64, 127
2, 309484, Note_on_c, 0, 59, 0
2, 309488, Note_on_c, 0, 49, 0
2, 309511, Note_on_c, 0, 65, 0
2, 309561, Note_on_c, 0, 63, 0
2, 309574, Note_on_c, 0, 68, 0
2, 309739, Control_c, 0, 64, 0
2, 309789, Note_on_c, 0, 58, 71
2, 309794, Note_on_c, 0, 67, 57
2, 309798, Note_on_c, 0, 64, 54
2, 309800, Note_on_c, 0, 61, 64
2, 309803, Note_on_c, 0, 48, 66
2, 309812, Note_on_c, 0, 47, 62
2, 309844, Note_on_c, 0, 47, 0
2, 309929, Note_on_c, 0, 58, 0
2, 310075, Note_on_c, 0, 67, 0
2, 310157, Note_on_c, 0, 61, 0
2, 310184, Note_on_c, 0, 64, 0
2, 310274, Note_on_c, 0, 60, 46
2, 310376, Note_on_c, 0, 60, 0
2, 310495, Note_on_c, 0, 62, 53
2, 310678, Note_on_c, 0, 62, 0
2, 310753, Note_on_c, 0, 65, 82
2, 310903, Note_on_c, 0, 65, 0
2, 310972, Note_on_c, 0, 65, 95
2, 311110, Note_on_c, 0, 48, 0
2, 311208, Note_on_c, 0, 65, 0
2, 311237, Note_on_c, 0, 60, 36
2, 311245, Note_on_c, 0, 48, 55
2, 311262, Note_on_c, 0, 47, 52
2, 311294, Note_on_c, 0, 47, 0
2, 311377, Note_on_c, 0, 60, 0
2, 311470, Note_on_c, 0, 62, 35
2, 311645, Note_on_c, 0, 62, 0
2, 311731, Note_on_c, 0, 65, 92
2, 311876, Note_on_c, 0, 65, 0
2, 311945, Note_on_c, 0, 65, 91
2, 312179, Note_on_c, 0, 60, 35
2, 312184, Note_on_c, 0, 36, 77
2, 312240, Note_on_c, 0, 65, 0
2, 312326, Note_on_c, 0, 60, 0
2, 312391, Note_on_c, 0, 62, 30
2, 312522, Note_on_c, 0, 48, 0
2, 312596, Note_on_c, 0, 62, 0
2, 312674, Note_on_c, 0, 65, 74
2, 312688, Note_on_c, 0, 64, 60
2, 312721, Note_on_c, 0, 64, 0
2, 312776, Note_on_c, 0, 65, 0
2, 312868, Note_on_c, 0, 65, 66
2, 312881, Note_on_c, 0, 58, 64
2, 312882, Note_on_c, 0, 62, 77
2, 312884, Note_on_c, 0, 53, 65
2, 312888, Note_on_c, 0, 55, 68
2, 312889, Note_on_c, 0, 64, 36
2, 312902, Note_on_c, 0, 48, 62
2, 312928, Note_on_c, 0, 36, 0
2, 313008, Note_on_c, 0, 53, 0
2, 313019, Note_on_c, 0, 55, 0
2, 313090, Note_on_c, 0, 58, 0
2, 313119, Note_on_c, 0, 62, 0
2, 313142, Note_on_c, 0, 64, 0
2, 313156, Note_on_c, 0, 59, 36
2, 313205, Note_on_c, 0, 47, 35
2, 313207, Note_on_c, 0, 59, 0
2, 313231, Note_on_c, 0, 65, 0
2, 313269, Note_on_c, 0, 47, 0
2, 313347, Note_on_c, 0, 60, 24
2, 313476, Note_on_c, 0, 60, 0
2, 313558, Note_on_c, 0, 48, 0
2, 313615, Note_on_c, 0, 62, 77
2, 313618, Note_on_c, 0, 48, 73
2, 313736, Note_on_c, 0, 62, 0
2, 313835, Note_on_c, 0, 65, 67
2, 313838, Note_on_c, 0, 55, 74
2, 313840, Note_on_c, 0, 61, 64
2, 313852, Note_on_c, 0, 58, 60
2, 313915, Note_on_c, 0, 48, 0
2, 313943, Note_on_c, 0, 55, 0
2, 314021, Note_on_c, 0, 58, 0
2, 314045, Note_on_c, 0, 61, 0
2, 314079, Note_on_c, 0, 65, 0
2, 314113, Note_on_c, 0, 60, 48
2, 314212, Note_on_c, 0, 60, 0
2, 314318, Note_on_c, 0, 42, 54
2, 314331, Note_on_c, 0, 62, 49
2, 314347, Note_on_c, 0, 49, 40
2, 314462, Note_on_c, 0, 62, 0
2, 314557, Note_on_c, 0, 42, 0
2, 314584, Note_on_c, 0, 65, 84
2, 314591, Note_on_c, 0, 62, 81
2, 314655, Note_on_c, 0, 62, 0
2, 314656, Note_on_c, 0, 49, 0
2, 314711, Note_on_c, 0, 48, 25
2, 314758, Note_on_c, 0, 65, 0
2, 314763, Note_on_c, 0, 41, 38
2, 314817, Note_on_c, 0, 65, 85
2, 314980, Note_on_c, 0, 48, 0
2, 315063, Note_on_c, 0, 60, 32
2, 315064, Note_on_c, 0, 65, 0
2, 315195, Note_on_c, 0, 60, 0
2, 315285, Note_on_c, 0, 41, 0
2, 315295, Note_on_c, 0, 50, 40
2, 315318, Note_on_c, 0, 62, 46
2, 315361, Note_on_c, 0, 50, 0
2, 315513, Note_on_c, 0, 62, 0
2, 315551, Note_on_c, 0, 64, 76
2, 315559, Note_on_c, 0, 60, 75
2, 315573, Note_on_c, 0, 46, 65
2, 315579, Note_on_c, 0, 56, 74
2, 315736, Note_on_c, 0, 60, 0
2, 315750, Note_on_c, 0, 64, 0
2, 315816, Note_on_c, 0, 67, 68
2, 315822, Note_on_c, 0, 64, 71
2, 315837, Note_on_c, 0, 60, 47
2, 315860, Control_c, 0, 64, 127
2, 316114, Note_on_c, 0, 46, 0
2, 316143, Note_on_c, 0, 60, 0
2, 316172, Note_on_c, 0, 64, 0
2, 316212, Note_on_c, 0, 67, 0
2, 316255, Note_on_c, 0, 46, 57
2, 316264, Note_on_c, 0, 60, 35
2, 316273, Note_on_c, 0, 65, 56
2, 316322, Note_on_c, 0, 56, 0
2, 316333, Note_on_c, 0, 60, 0
2, 316470, Note_on_c, 0, 65, 0
2, 316497, Note_on_c, 0, 46, 0
2, 316571, Note_on_c, 0, 60, 45
2, 316591, Control_c, 0, 64, 0
2, 316593, Note_on_c, 0, 55, 49
2, 316612, Note_on_c, 0, 52, 38
2, 316613, Note_on_c, 0, 45, 44
2, 316815, Note_on_c, 0, 52, 0
2, 316850, Note_on_c, 0, 45, 0
2, 316861, Control_c, 0, 64, 127
2, 316953, Note_on_c, 0, 55, 0
2, 317140, Control_c, 0, 64, 0
2, 317163, Note_on_c, 0, 60, 0
2, 317232, Note_on_c, 0, 38, 60
2, 317659, Note_on_c, 0, 38, 0
2, 317708, Control_c, 0, 64, 127
2, 317998, Note_on_c, 0, 65, 71
2, 318008, Note_on_c, 0, 54, 62
2, 318016, Note_on_c, 0, 60, 33
2, 318179, Control_c, 0, 64, 0
2, 318276, Control_c, 0, 64, 127
2, 318471, Note_on_c, 0, 65, 0
2, 318472, Note_on_c, 0, 60, 0
2, 318503, Note_on_c, 0, 84, 94
2, 318509, Note_on_c, 0, 72, 99
2, 318537, Note_on_c, 0, 83, 38
2, 318581, Note_on_c, 0, 83, 0
2, 318581, Note_on_c, 0, 54, 0
2, 318687, Note_on_c, 0, 84, 0
2, 318689, Note_on_c, 0, 72, 0
2, 318748, Control_c, 0, 64, 0
2, 318766, Note_on_c, 0, 53, 22
2, 318771, Note_on_c, 0, 62, 60
2, 318776, Note_on_c, 0, 58, 53
2, 318779, Note_on_c, 0, 57, 35
2, 318789, Note_on_c, 0, 72, 77
2, 318792, Note_on_c, 0, 84, 72
2, 318794, Note_on_c, 0, 80, 71
2, 318923, Note_on_c, 0, 81, 39
2, 318936, Note_on_c, 0, 80, 0
2, 319016, Note_on_c, 0, 72, 0
2, 319049, Note_on_c, 0, 62, 0
2, 319052, Note_on_c, 0, 84, 0
2, 319078, Note_on_c, 0, 81, 0
2, 319081, Note_on_c, 0, 58, 0
2, 319085, Note_on_c, 0, 57, 0
2, 319141, Note_on_c, 0, 53, 0
2, 319204, Note_on_c, 0, 86, 70
2, 319217, Note_on_c, 0, 74, 68
2, 319285, Note_on_c, 0, 86, 0
2, 319332, Note_on_c, 0, 74, 0
2, 319344, Control_c, 0, 64, 127
2, 319393, Control_c, 0, 64, 0
2, 319503, Note_on_c, 0, 82, 65
2, 319512, Note_on_c, 0, 70, 62
2, 319535, Note_on_c, 0, 50, 42
2, 319536, Note_on_c, 0, 43, 37
2, 319639, Note_on_c, 0, 43, 0
2, 319647, Note_on_c, 0, 82, 0
2, 319658, Note_on_c, 0, 70, 0
2, 319674, Note_on_c, 0, 50, 0
2, 319844, Note_on_c, 0, 84, 71
2, 319850, Note_on_c, 0, 72, 64
2, 320059, Note_on_c, 0, 84, 0
2, 320087, Note_on_c, 0, 72, 0
2, 320247, Note_on_c, 0, 48, 55
2, 320259, Note_on_c, 0, 58, 56
2, 320437, Note_on_c, 0, 48, 0
2, 320506, Note_on_c, 0, 58, 0
2, 320982, Note_on_c, 0, 64, 49
2, 320990, Note_on_c, 0, 58, 54
2, 321007, Note_on_c, 0, 60, 27
2, 321077, Note_on_c, 0, 64, 0
2, 321087, Note_on_c, 0, 60, 0
2, 321137, Note_on_c, 0, 58, 0
2, 321223, Note_on_c, 0, 84, 55
2, 321348, Note_on_c, 0, 84, 0
2, 321460, Note_on_c, 0, 52, 69
2, 321462, Note_on_c, 0, 87, 76
2, 321467, Note_on_c, 0, 63, 72
2, 321468, Note_on_c, 0, 58, 63
2, 321472, Note_on_c, 0, 80, 78
2, 321475, Note_on_c, 0, 84, 74
2, 321480, Note_on_c, 0, 76, 79
2, 321610, Note_on_c, 0, 63, 0
2, 321631, Note_on_c, 0, 87, 0
2, 321645, Note_on_c, 0, 76, 0
2, 321663, Note_on_c, 0, 52, 0
2, 321672, Note_on_c, 0, 80, 0
2, 321676, Note_on_c, 0, 84, 0
2, 321676, Note_on_c, 0, 58, 0
2, 321702, Control_c, 0, 64, 127
2, 321713, Note_on_c, 0, 87, 52
2, 321737, Note_on_c, 0, 80, 57
2, 321744, Note_on_c, 0, 76, 63
2, 321758, Note_on_c, 0, 84, 61
2, 321911, Note_on_c, 0, 87, 0
2, 321914, Note_on_c, 0, 84, 0
2, 321917, Note_on_c, 0, 76, 0
2, 322004, Note_on_c, 0, 80, 0
2, 322049, Control_c, 0, 64, 0
2, 322142, Note_on_c, 0, 85, 67
2, 322155, Control_c, 0, 64, 127
2, 322156, Note_on_c, 0, 80, 61
2, 322158, Note_on_c, 0, 75, 58
2, 322308, Note_on_c, 0, 75, 0
2, 322350, Note_on_c, 0, 85, 0
2, 322356, Note_on_c, 0, 80, 0
2, 322492, Control_c, 0, 64, 0
2, 322591, Note_on_c, 0, 41, 41
2, 322610, Note_on_c, 0, 57, 42
2, 322621, Note_on_c, 0, 84, 54
2, 322627, Note_on_c, 0, 48, 24
2, 322641, Note_on_c, 0, 79, 43
2, 322685, Note_on_c, 0, 41, 0
2, 322693, Control_c, 0, 64, 127
2, 322727, Note_on_c, 0, 79, 0
2, 322741, Note_on_c, 0, 84, 0
2, 322757, Note_on_c, 0, 48, 0
2, 322791, Note_on_c, 0, 57, 0
2, 323072, Note_on_c, 0, 91, 94
2, 323079, Control_c, 0, 64, 0
2, 323108, Control_c, 0, 64, 127
2, 323274, Note_on_c, 0, 91, 0
2, 323388, Note_on_c, 0, 88, 82
2, 323454, Control_c, 0, 64, 0
2, 323546, Note_on_c, 0, 64, 41
2, 323549, Note_on_c, 0, 60, 33
2, 323559, Note_on_c, 0, 53, 34
2, 323563, Note_on_c, 0, 57, 36
2, 323580, Note_on_c, 0, 64, 0
2, 323631, Note_on_c, 0, 60, 0
2, 323664, Note_on_c, 0, 53, 0
2, 323665, Note_on_c, 0, 57, 0
2, 323704, Control_c, 0, 64, 127
2, 323730, Note_on_c, 0, 88, 0
2, 323769, Note_on_c, 0, 84, 85
2, 324028, Note_on_c, 0, 84, 0
2, 324074, Note_on_c, 0, 81, 76
2, 324158, Note_on_c, 0, 81, 0
2, 324378, Control_c, 0, 64, 0
2, 324390, Note_on_c, 0, 76, 91
2, 324401, Note_on_c, 0, 38, 57
2, 324586, Note_on_c, 0, 38, 0
2, 324589, Control_c, 0, 64, 127
2, 324607, Note_on_c, 0, 76, 0
2, 324750, Note_on_c, 0, 79, 89
2, 324923, Note_on_c, 0, 79, 0
2, 325075, Note_on_c, 0, 77, 90
2, 325291, Note_on_c, 0, 77, 0
2, 325399, Note_on_c, 0, 60, 36
2, 325402, Note_on_c, 0, 57, 30
2, 325408, Control_c, 0, 64, 0
2, 325413, Note_on_c, 0, 53, 44
2, 325416, Note_on_c, 0, 69, 44
2, 325424, Note_on_c, 0, 50, 22
2, 325472, Note_on_c, 0, 50, 0
2, 325479, Note_on_c, 0, 60, 0
2, 325490, Note_on_c, 0, 57, 0
2, 325704, Note_on_c, 0, 53, 0
2, 325710, Note_on_c, 0, 69, 0
2, 325738, Note_on_c, 0, 76, 79
2, 325745, Note_on_c, 0, 69, 34
2, 325925, Note_on_c, 0, 69, 0
2, 325998, Note_on_c, 0, 76, 0
2, 326072, Note_on_c, 0, 74, 63
2, 326091, Control_c, 0, 64, 127
2, 326129, Note_on_c, 0, 50, 33
2, 326198, Note_on_c, 0, 74, 0
2, 326290, Note_on_c, 0, 50, 0
2, 326351, Control_c, 0, 64, 0
2, 326380, Note_on_c, 0, 70, 77
2, 326388, Note_on_c, 0, 43, 50
2, 326395, Note_on_c, 0, 53, 42
2, 326717, Note_on_c, 0, 43, 0
2, 326731, Note_on_c, 0, 71, 68
2, 326758, Note_on_c, 0, 70, 0
2, 326765, Note_on_c, 0, 53, 0
2, 326849, Note_on_c, 0, 71, 0
2, 327177, Note_on_c, 0, 64, 50
2, 327181, Note_on_c, 0, 67, 60
2, 327205, Note_on_c, 0, 59, 44
2, 327219, Note_on_c, 0, 53, 22
2, 327249, Note_on_c, 0, 59, 0
2, 327250, Note_on_c, 0, 64, 0
2, 327325, Note_on_c, 0, 53, 0
2, 327328, Note_on_c, 0, 67, 0
2, 327418, Note_on_c, 0, 63, 55
2, 327439, Note_on_c, 0, 59, 49
2, 327767, Note_on_c, 0, 59, 0
2, 327826, Note_on_c, 0, 63, 0
2, 327844, Note_on_c, 0, 43, 35
2, 327856, Note_on_c, 0, 53, 37
2, 327857, Note_on_c, 0, 59, 49
2, 327863, Note_on_c, 0, 62, 60
2, 328042, Note_on_c, 0, 43, 0
2, 328140, Note_on_c, 0, 53, 0
2, 328280, Note_on_c, 0, 59, 0
2, 328332, Note_on_c, 0, 53, 62
2, 328334, Note_on_c, 0, 44, 52
2, 328357, Note_on_c, 0, 62, 0
2, 328811, Note_on_c, 0, 53, 0
2, 329029, Note_on_c, 0, 55, 66
2, 329031, Note_on_c, 0, 58, 80
2, 329069, Note_on_c, 0, 44, 0
2, 329209, Note_on_c, 0, 58, 0
2, 329261, Note_on_c, 0, 55, 0
2, 329262, Note_on_c, 0, 56, 45
2, 329292, Note_on_c, 0, 59, 34
2, 329436, Note_on_c, 0, 59, 0
2, 329505, Note_on_c, 0, 58, 64
2, 329507, Note_on_c, 0, 61, 77
2, 329668, Note_on_c, 0, 61, 0
2, 329687, Note_on_c, 0, 58, 0
2, 329690, Note_on_c, 0, 56, 0
2, 329709, Note_on_c, 0, 59, 58
2, 329740, Note_on_c, 0, 62, 65
2, 329846, Note_on_c, 0, 59, 0
2, 329885, Note_on_c, 0, 62, 0
2, 329960, Note_on_c, 0, 63, 74
2, 329964, Note_on_c, 0, 60, 42
2, 330038, Note_on_c, 0, 60, 0
2, 330104, Note_on_c, 0, 63, 0
2, 330183, Note_on_c, 0, 64, 74
2, 330387, Note_on_c, 0, 64, 0
2, 330428, Note_on_c, 0, 65, 62
2, 330475, Note_on_c, 0, 53, 33
2, 330481, Note_on_c, 0, 43, 27
2, 330630, Note_on_c, 0, 65, 0
2, 330662, Note_on_c, 0, 62, 52
2, 330819, Note_on_c, 0, 53, 0
2, 330880, Note_on_c, 0, 62, 0
2, 330898, Note_on_c, 0, 50, 46
2, 330906, Note_on_c, 0, 58, 54
2, 330957, Note_on_c, 0, 43, 0
2, 331073, Note_on_c, 0, 50, 0
2, 331093, Note_on_c, 0, 58, 0
2, 331114, Note_on_c, 0, 46, 36
2, 331137, Note_on_c, 0, 55, 39
2, 331154, Control_c, 0, 64, 127
2, 331184, Note_on_c, 0, 55, 0
2, 331267, Note_on_c, 0, 46, 0
2, 331366, Control_c, 0, 64, 0
2, 331377, Note_on_c, 0, 57, 58
2, 331382, Note_on_c, 0, 69, 76
2, 331387, Note_on_c, 0, 62, 69
2, 331389, Note_on_c, 0, 58, 70
2, 331540, Note_on_c, 0, 62, 0
2, 331542, Note_on_c, 0, 69, 0
2, 331563, Note_on_c, 0, 58, 0
2, 331566, Note_on_c, 0, 57, 0
2, 331611, Note_on_c, 0, 65, 57
2, 331636, Note_on_c, 0, 53, 37
2, 331699, Note_on_c, 0, 53, 0
2, 331724, Note_on_c, 0, 65, 0
2, 331849, Note_on_c, 0, 48, 41
2, 331876, Control_c, 0, 64, 127
2, 331885, Note_on_c, 0, 48, 0
2, 331963, Control_c, 0, 64, 0
2, 332065, Note_on_c, 0, 72, 80
2, 332069, Note_on_c, 0, 65, 72
2, 332070, Note_on_c, 0, 62, 78
2, 332079, Note_on_c, 0, 60, 37
2, 332092, Note_on_c, 0, 69, 36
2, 332098, Note_on_c, 0, 64, 37
2, 332111, Note_on_c, 0, 60, 0
2, 332131, Note_on_c, 0, 64, 0
2, 332133, Note_on_c, 0, 69, 0
2, 332216, Note_on_c, 0, 62, 0
2, 332228, Note_on_c, 0, 65, 0
2, 332312, Note_on_c, 0, 69, 48
2, 332316, Note_on_c, 0, 57, 36
2, 332374, Note_on_c, 0, 72, 0
2, 332465, Note_on_c, 0, 57, 0
2, 332509, Note_on_c, 0, 69, 0
2, 332563, Note_on_c, 0, 55, 39
2, 332606, Note_on_c, 0, 55, 0
2, 332674, Control_c, 0, 64, 127
2, 332733, Control_c, 0, 64, 0
2, 332780, Note_on_c, 0, 75, 81
2, 332787, Note_on_c, 0, 67, 74
2, 332789, Note_on_c, 0, 64, 73
2, 332796, Note_on_c, 0, 63, 67
2, 332805, Note_on_c, 0, 70, 55
2, 332922, Note_on_c, 0, 70, 0
2, 332932, Note_on_c, 0, 63, 0
2, 332954, Note_on_c, 0, 64, 0
2, 332960, Note_on_c, 0, 67, 0
2, 333010, Note_on_c, 0, 75, 0
2, 333018, Note_on_c, 0, 73, 37
2, 333214, Control_c, 0, 64, 127
2, 333232, Note_on_c, 0, 73, 0
2, 333261, Note_on_c, 0, 64, 42
2, 333320, Note_on_c, 0, 64, 0
2, 333415, Control_c, 0, 64, 0
2, 333501, Note_on_c, 0, 58, 64
2, 333504, Note_on_c, 0, 73, 64
2, 333512, Note_on_c, 0, 68, 72
2, 333513, Note_on_c, 0, 64, 71
2, 333610, Note_on_c, 0, 64, 0
2, 333658, Note_on_c, 0, 73, 0
2, 333659, Note_on_c, 0, 58, 0
2, 333664, Note_on_c, 0, 68, 0
2, 333756, Note_on_c, 0, 56, 51
2, 333936, Note_on_c, 0, 56, 0
2, 333986, Note_on_c, 0, 57, 62
2, 333987, Note_on_c, 0, 72, 69
2, 333989, Note_on_c, 0, 62, 78
2, 333994, Note_on_c, 0, 67, 75
2, 334032, Control_c, 0, 64, 127
2, 334109, Note_on_c, 0, 72, 0
2, 334110, Note_on_c, 0, 67, 0
2, 334165, Note_on_c, 0, 57, 0
2, 334177, Note_on_c, 0, 62, 0
2, 334261, Note_on_c, 0, 53, 56
2, 334265, Note_on_c, 0, 69, 62
2, 334288, Note_on_c, 0, 64, 37
2, 334291, Control_c, 0, 64, 0
2, 334363, Note_on_c, 0, 53, 0
2, 334401, Note_on_c, 0, 69, 0
2, 334420, Note_on_c, 0, 64, 0
2, 334503, Note_on_c, 0, 48, 41
2, 334660, Note_on_c, 0, 48, 0
2, 334734, Note_on_c, 0, 64, 55
2, 334738, Note_on_c, 0, 67, 53
2, 334750, Note_on_c, 0, 57, 57
2, 334751, Note_on_c, 0, 60, 43
2, 334762, Note_on_c, 0, 52, 52
2, 334955, Control_c, 0, 64, 127
2, 334996, Note_on_c, 0, 64, 0
2, 335075, Note_on_c, 0, 60, 0
2, 335079, Note_on_c, 0, 67, 0
2, 335109, Note_on_c, 0, 57, 0
2, 335146, Note_on_c, 0, 52, 0
2, 335232, Note_on_c, 0, 50, 51
2, 335235, Note_on_c, 0, 65, 59
2, 335245, Note_on_c, 0, 60, 50
2, 335260, Note_on_c, 0, 57, 47
2, 335272, Note_on_c, 0, 50, 0
2, 335428, Note_on_c, 0, 57, 0
2, 335438, Note_on_c, 0, 46, 27
2, 335477, Note_on_c, 0, 46, 0
2, 335477, Note_on_c, 0, 65, 0
2, 335484, Note_on_c, 0, 60, 0
2, 335715, Note_on_c, 0, 40, 50
2, 335918, Control_c, 0, 64, 0
2, 335922, Note_on_c, 0, 47, 36
2, 335932, Note_on_c, 0, 55, 53
2, 335937, Note_on_c, 0, 57, 53
2, 335939, Note_on_c, 0, 66, 49
2, 335942, Note_on_c, 0, 62, 63
2, 335946, Note_on_c, 0, 69, 51
2, 335955, Note_on_c, 0, 53, 28
2, 336035, Note_on_c, 0, 53, 0
2, 336063, Note_on_c, 0, 55, 0
2, 336096, Note_on_c, 0, 62, 0
2, 336097, Note_on_c, 0, 69, 0
2, 336102, Note_on_c, 0, 57, 0
2, 336109, Note_on_c, 0, 40, 0
2, 336122, Note_on_c, 0, 66, 0
2, 336186, Note_on_c, 0, 40, 44
2, 336205, Note_on_c, 0, 57, 41
2, 336207, Note_on_c, 0, 62, 62
2, 336211, Note_on_c, 0, 69, 53
2, 336212, Note_on_c, 0, 66, 38
2, 336316, Note_on_c, 0, 69, 0
2, 336331, Note_on_c, 0, 57, 0
2, 336332, Note_on_c, 0, 62, 0
2, 336347, Note_on_c, 0, 47, 0
2, 336362, Note_on_c, 0, 66, 0
2, 336425, Note_on_c, 0, 47, 41
2, 336427, Note_on_c, 0, 57, 45
2, 336432, Note_on_c, 0, 62, 70
2, 336436, Note_on_c, 0, 69, 50
2, 336439, Note_on_c, 0, 66, 34
2, 336500, Note_on_c, 0, 40, 0
2, 336523, Note_on_c, 0, 57, 0
2, 336551, Note_on_c, 0, 47, 0
2, 336557, Note_on_c, 0, 62, 0
2, 336570, Note_on_c, 0, 69, 0
2, 336604, Note_on_c, 0, 66, 0
2, 336908, Note_on_c, 0, 70, 55
2, 336916, Note_on_c, 0, 61, 44
2, 336922, Note_on_c, 0, 45, 46
2, 336923, Note_on_c, 0, 66, 37
2, 336924, Note_on_c, 0, 55, 38
2, 337046, Note_on_c, 0, 61, 0
2, 337063, Note_on_c, 0, 55, 0
2, 337070, Note_on_c, 0, 70, 0
2, 337078, Note_on_c, 0, 45, 0
2, 337079, Note_on_c, 0, 66, 0
2, 337159, Control_c, 0, 64, 127
2, 337169, Note_on_c, 0, 70, 35
2, 337174, Note_on_c, 0, 45, 37
2, 337176, Note_on_c, 0, 61, 37
2, 337183, Note_on_c, 0, 66, 43
2, 337191, Note_on_c, 0, 55, 35
2, 337280, Note_on_c, 0, 55, 0
2, 337287, Note_on_c, 0, 70, 0
2, 337292, Note_on_c, 0, 61, 0
2, 337321, Note_on_c, 0, 66, 0
2, 337372, Control_c, 0, 64, 0
2, 337391, Note_on_c, 0, 61, 59
2, 337396, Note_on_c, 0, 70, 55
2, 337408, Note_on_c, 0, 55, 45
2, 337410, Note_on_c, 0, 66, 48
2, 337466, Note_on_c, 0, 45, 0
2, 337491, Note_on_c, 0, 61, 0
2, 337514, Note_on_c, 0, 55, 0
2, 337519, Note_on_c, 0, 70, 0
2, 337525, Control_c, 0, 64, 127
2, 337635, Note_on_c, 0, 66, 0
2, 337795, Control_c, 0, 64, 0
2, 337889, Note_on_c, 0, 64, 49
2, 337892, Note_on_c, 0, 61, 55
2, 337905, Note_on_c, 0, 66, 32
2, 337917, Note_on_c, 0, 69, 28
2, 337920, Note_on_c, 0, 50, 35
2, 337948, Control_c, 0, 64, 127
2, 337957, Note_on_c, 0, 61, 0
2, 337983, Note_on_c, 0, 64, 0
2, 337997, Note_on_c, 0, 69, 0
2, 338027, Note_on_c, 0, 66, 0
2, 338213, Note_on_c, 0, 81, 83
2, 338215, Note_on_c, 0, 50, 0
2, 338602, Note_on_c, 0, 81, 0
2, 338666, Note_on_c, 0, 69, 58
2, 338667, Note_on_c, 0, 64, 60
2, 338674, Note_on_c, 0, 61, 46
2, 338675, Note_on_c, 0, 71, 45
2, 338682, Note_on_c, 0, 54, 50
2, 338694, Note_on_c, 0, 59, 46
2, 338709, Note_on_c, 0, 71, 0
2, 338718, Control_c, 0, 64, 0
2, 338892, Control_c, 0, 64, 127
2, 339148, Note_on_c, 0, 71, 80
2, 339183, Note_on_c, 0, 69, 0
2, 339205, Note_on_c, 0, 64, 0
2, 339326, Note_on_c, 0, 61, 0
2, 339355, Note_on_c, 0, 71, 0
2, 339376, Note_on_c, 0, 61, 15
2, 339384, Note_on_c, 0, 64, 45
2, 339400, Note_on_c, 0, 73, 56
2, 339564, Note_on_c, 0, 61, 0
2, 339583, Note_on_c, 0, 59, 0
2, 339588, Note_on_c, 0, 73, 0
2, 339600, Note_on_c, 0, 64, 0
2, 339624, Note_on_c, 0, 54, 0
2, 339632, Note_on_c, 0, 74, 80
2, 339830, Note_on_c, 0, 74, 0
2, 339835, Control_c, 0, 64, 0
2, 339845, Note_on_c, 0, 65, 66
2, 339852, Note_on_c, 0, 60, 40
2, 339856, Note_on_c, 0, 54, 46
2, 339865, Note_on_c, 0, 75, 78
2, 340095, Note_on_c, 0, 75, 0
2, 340139, Note_on_c, 0, 74, 37
2, 340250, Note_on_c, 0, 65, 0
2, 340261, Note_on_c, 0, 74, 0
2, 340265, Note_on_c, 0, 60, 0
2, 340325, Note_on_c, 0, 54, 0
2, 340346, Note_on_c, 0, 77, 47
2, 340365, Control_c, 0, 64, 127
2, 340550, Note_on_c, 0, 77, 0
2, 340576, Control_c, 0, 64, 0
2, 340587, Note_on_c, 0, 60, 54
2, 340593, Note_on_c, 0, 50, 54
2, 340605, Note_on_c, 0, 54, 42
2, 340621, Note_on_c, 0, 78, 44
2, 340654, Note_on_c, 0, 78, 0
2, 340855, Control_c, 0, 64, 127
2, 341100, Note_on_c, 0, 81, 63
2, 341216, Note_on_c, 0, 81, 0
2, 341321, Note_on_c, 0, 50, 0
2, 341328, Note_on_c, 0, 84, 64
2, 341361, Note_on_c, 0, 54, 0
2, 341384, Note_on_c, 0, 60, 0
2, 341497, Note_on_c, 0, 84, 0
2, 341565, Note_on_c, 0, 86, 64
2, 341653, Note_on_c, 0, 86, 0
2, 341772, Note_on_c, 0, 75, 61
2, 341780, Note_on_c, 0, 87, 43
2, 341781, Note_on_c, 0, 63, 61
2, 341789, Control_c, 0, 64, 0
2, 341805, Note_on_c, 0, 58, 50
2, 341810, Note_on_c, 0, 54, 33
2, 341812, Note_on_c, 0, 59, 38
2, 342097, Note_on_c, 0, 75, 0
2, 342106, Control_c, 0, 64, 127
2, 342122, Note_on_c, 0, 87, 0
2, 342254, Note_on_c, 0, 87, 53
2, 342260, Note_on_c, 0, 75, 54
2, 342378, Note_on_c, 0, 59, 0
2, 342384, Note_on_c, 0, 63, 0
2, 342414, Note_on_c, 0, 54, 0
2, 342461, Note_on_c, 0, 58, 0
2, 342461, Note_on_c, 0, 87, 0
2, 342467, Note_on_c, 0, 75, 0
2, 342556, Note_on_c, 0, 87, 64
2, 342561, Note_on_c, 0, 58, 42
2, 342563, Note_on_c, 0, 75, 58
2, 342567, Note_on_c, 0, 63, 68
2, 342573, Note_on_c, 0, 59, 65
2, 342576, Note_on_c, 0, 53, 64
2, 342587, Control_c, 0, 64, 0
2, 342751, Control_c, 0, 64, 127
2, 342844, Note_on_c, 0, 53, 0
2, 342858, Note_on_c, 0, 63, 0
2, 342883, Note_on_c, 0, 59, 0
2, 342905, Note_on_c, 0, 58, 0
2, 342933, Note_on_c, 0, 75, 0
2, 342937, Note_on_c, 0, 87, 0
2, 343049, Note_on_c, 0, 85, 71
2, 343054, Note_on_c, 0, 73, 59
2, 343055, Note_on_c, 0, 59, 65
2, 343058, Note_on_c, 0, 63, 71
2, 343065, Note_on_c, 0, 58, 57
2, 343070, Note_on_c, 0, 53, 61
2, 343078, Control_c, 0, 64, 0
2, 343213, Control_c, 0, 64, 127
2, 343256, Note_on_c, 0, 73, 0
2, 343260, Note_on_c, 0, 85, 0
2, 343281, Note_on_c, 0, 59, 0
2, 343286, Note_on_c, 0, 63, 0
2, 343314, Note_on_c, 0, 58, 0
2, 343378, Note_on_c, 0, 53, 0
2, 343526, Note_on_c, 0, 57, 68
2, 343528, Note_on_c, 0, 62, 90
2, 343529, Note_on_c, 0, 53, 73
2, 343532, Control_c, 0, 64, 0
2, 343533, Note_on_c, 0, 58, 74
2, 343534, Note_on_c, 0, 89, 80
2, 343543, Note_on_c, 0, 77, 85
2, 343714, Control_c, 0, 64, 127
2, 343762, Note_on_c, 0, 89, 0
2, 343814, Note_on_c, 0, 62, 0
2, 343819, Note_on_c, 0, 53, 0
2, 343826, Note_on_c, 0, 57, 0
2, 343828, Note_on_c, 0, 58, 0
2, 343845, Note_on_c, 0, 77, 0
2, 344004, Note_on_c, 0, 86, 72
2, 344019, Note_on_c, 0, 62, 83
2, 344021, Note_on_c, 0, 74, 56
2, 344022, Note_on_c, 0, 57, 58
2, 344023, Note_on_c, 0, 58, 71
2, 344025, Note_on_c, 0, 85, 62
2, 344033, Control_c, 0, 64, 0
2, 344034, Note_on_c, 0, 53, 69
2, 344037, Note_on_c, 0, 76, 61
2, 344057, Note_on_c, 0, 85, 0
2, 344068, Note_on_c, 0, 76, 0
2, 344197, Note_on_c, 0, 86, 0
2, 344205, Control_c, 0, 64, 127
2, 344211, Note_on_c, 0, 57, 0
2, 344226, Note_on_c, 0, 53, 0
2, 344232, Note_on_c, 0, 62, 0
2, 344249, Note_on_c, 0, 74, 0
2, 344268, Note_on_c, 0, 58, 0
2, 344483, Note_on_c, 0, 63, 91
2, 344484, Note_on_c, 0, 85, 79
2, 344485, Note_on_c, 0, 58, 81
2, 344488, Note_on_c, 0, 73, 77
2, 344490, Note_on_c, 0, 52, 80
2, 344495, Note_on_c, 0, 80, 77
2, 344502, Control_c, 0, 64, 0
2, 344661, Note_on_c, 0, 73, 0
2, 344665, Note_on_c, 0, 85, 0
2, 344695, Control_c, 0, 64, 127
2, 344710, Note_on_c, 0, 80, 0
2, 344734, Note_on_c, 0, 63, 0
2, 344772, Note_on_c, 0, 87, 73
2, 344776, Note_on_c, 0, 52, 0
2, 344779, Note_on_c, 0, 75, 63
2, 344801, Note_on_c, 0, 58, 0
2, 344949, Note_on_c, 0, 87, 0
2, 345052, Note_on_c, 0, 75, 0
2, 345212, Note_on_c, 0, 85, 50
2, 345228, Note_on_c, 0, 73, 33
2, 345230, Note_on_c, 0, 80, 50
2, 345341, Note_on_c, 0, 73, 0
2, 345367, Note_on_c, 0, 85, 0
2, 345424, Note_on_c, 0, 80, 0
2, 345687, Control_c, 0, 64, 0
2, 345695, Note_on_c, 0, 48, 29
2, 345701, Note_on_c, 0, 84, 51
2, 345705, Note_on_c, 0, 79, 54
2, 345707, Note_on_c, 0, 57, 43
2, 345711, Note_on_c, 0, 41, 34
2, 345715, Note_on_c, 0, 72, 42
2, 345845, Note_on_c, 0, 41, 0
2, 345850, Control_c, 0, 64, 127
2, 345881, Note_on_c, 0, 48, 0
2, 345917, Note_on_c, 0, 57, 0
2, 346355, Note_on_c, 0, 72, 0
2, 346372, Note_on_c, 0, 79, 0
2, 346391, Note_on_c, 0, 84, 0
2, 346431, Note_on_c, 0, 67, 62
2, 346442, Note_on_c, 0, 62, 53
2, 346446, Note_on_c, 0, 56, 54
2, 346476, Control_c, 0, 64, 0
2, 346679, Control_c, 0, 64, 127
2, 346780, Note_on_c, 0, 62, 0
2, 346828, Note_on_c, 0, 67, 0
2, 346925, Note_on_c, 0, 56, 0
2, 347055, Note_on_c, 0, 64, 49
2, 347060, Note_on_c, 0, 55, 45
2, 347072, Note_on_c, 0, 57, 34
2, 347089, Note_on_c, 0, 60, 28
2, 347093, Control_c, 0, 64, 0
2, 347476, Note_on_c, 0, 60, 0
2, 347486, Note_on_c, 0, 64, 0
2, 347515, Control_c, 0, 64, 127
2, 347526, Note_on_c, 0, 55, 0
2, 347539, Note_on_c, 0, 57, 0
2, 347799, Note_on_c, 0, 45, 68
2, 347801, Note_on_c, 0, 55, 68
2, 347834, Note_on_c, 0, 55, 0
2, 347903, Note_on_c, 0, 45, 0
2, 347910, Control_c, 0, 64, 0
2, 348013, Note_on_c, 0, 69, 58
2, 348022, Note_on_c, 0, 64, 50
2, 348033, Note_on_c, 0, 60, 28
2, 348177, Note_on_c, 0, 69, 0
2, 348179, Note_on_c, 0, 64, 0
2, 348183, Note_on_c, 0, 60, 0
2, 348268, Note_on_c, 0, 38, 57
2, 348476, Note_on_c, 0, 38, 0
2, 348727, Note_on_c, 0, 70, 74
2, 348728, Note_on_c, 0, 60, 38
2, 348729, Note_on_c, 0, 65, 75
2, 348733, Note_on_c, 0, 54, 59
2, 348766, Note_on_c, 0, 65, 0
2, 348824, Note_on_c, 0, 60, 0
2, 348875, Note_on_c, 0, 54, 0
2, 348893, Note_on_c, 0, 70, 0
2, 348961, Note_on_c, 0, 72, 62
2, 349115, Note_on_c, 0, 72, 0
2, 349192, Note_on_c, 0, 43, 55
2, 349289, Note_on_c, 0, 43, 0
2, 349398, Note_on_c, 0, 72, 58
2, 349413, Note_on_c, 0, 65, 62
2, 349421, Note_on_c, 0, 57, 31
2, 349587, Note_on_c, 0, 65, 0
2, 349641, Note_on_c, 0, 72, 0
2, 349818, Note_on_c, 0, 57, 0
2, 349903, Note_on_c, 0, 58, 46
2, 349916, Note_on_c, 0, 74, 36
2, 349917, Note_on_c, 0, 65, 60
2, 349919, Note_on_c, 0, 70, 47
2, 349966, Note_on_c, 0, 74, 0
2, 349996, Note_on_c, 0, 70, 0
2, 350008, Note_on_c, 0, 65, 0
2, 350015, Note_on_c, 0, 58, 0
2, 350381, Note_on_c, 0, 70, 55
2, 350382, Note_on_c, 0, 62, 53
2, 350387, Note_on_c, 0, 58, 39
2, 350390, Note_on_c, 0, 55, 42
2, 350409, Note_on_c, 0, 65, 37
2, 350429, Note_on_c, 0, 55, 0
2, 350615, Control_c, 0, 64, 127
2, 350736, Note_on_c, 0, 65, 0
2, 350738, Note_on_c, 0, 70, 0
2, 350744, Note_on_c, 0, 62, 0
2, 350753, Note_on_c, 0, 58, 0
2, 350778, Control_c, 0, 64, 0
2, 350846, Note_on_c, 0, 36, 51
2, 350859, Note_on_c, 0, 48, 40
2, 351037, Note_on_c, 0, 36, 0
2, 351055, Note_on_c, 0, 48, 0
2, 351126, Note_on_c, 0, 36, 62
2, 351127, Note_on_c, 0, 48, 73
2, 351323, Note_on_c, 0, 48, 0
2, 351326, Note_on_c, 0, 36, 0
2, 351612, Note_on_c, 0, 36, 84
2, 351618, Note_on_c, 0, 48, 76
2, 351830, Note_on_c, 0, 58, 82
2, 351838, Note_on_c, 0, 62, 73
2, 351842, Note_on_c, 0, 53, 74
2, 351845, Note_on_c, 0, 65, 64
2, 351869, Note_on_c, 0, 36, 0
2, 351901, Note_on_c, 0, 53, 0
2, 351907, Note_on_c, 0, 48, 0
2, 351970, Note_on_c, 0, 58, 0
2, 351977, Note_on_c, 0, 62, 0
2, 352001, Note_on_c, 0, 65, 0
2, 352328, Note_on_c, 0, 72, 90
2, 352329, Note_on_c, 0, 68, 93
2, 352330, Note_on_c, 0, 64, 103
2, 352339, Note_on_c, 0, 58, 87
2, 352347, Note_on_c, 0, 70, 53
2, 352353, Note_on_c, 0, 66, 47
2, 352386, Note_on_c, 0, 66, 0
2, 352511, Control_c, 0, 64, 127
2, 352659, Note_on_c, 0, 72, 0
2, 352694, Note_on_c, 0, 58, 0
2, 352700, Note_on_c, 0, 68, 0
2, 352702, Note_on_c, 0, 70, 0
2, 352708, Note_on_c, 0, 64, 0
2, 353036, Note_on_c, 0, 68, 58
2, 353044, Note_on_c, 0, 60, 45
2, 353053, Note_on_c, 0, 42, 49
2, 353054, Note_on_c, 0, 63, 53
2, 353085, Note_on_c, 0, 52, 32
2, 353117, Note_on_c, 0, 68, 0
2, 353119, Note_on_c, 0, 60, 0
2, 353127, Note_on_c, 0, 63, 0
2, 353131, Note_on_c, 0, 52, 0
2, 353178, Note_on_c, 0, 42, 0
2, 353242, Control_c, 0, 64, 0
2, 353307, Note_on_c, 0, 64, 52
2, 353308, Note_on_c, 0, 57, 63
2, 353310, Note_on_c, 0, 67, 61
2, 353319, Note_on_c, 0, 60, 38
2, 353327, Note_on_c, 0, 52, 60
2, 353338, Note_on_c, 0, 65, 33
2, 353374, Note_on_c, 0, 65, 0
2, 353659, Note_on_c, 0, 64, 0
2, 353663, Note_on_c, 0, 57, 0
2, 353675, Note_on_c, 0, 67, 0
2, 353679, Note_on_c, 0, 60, 0
2, 353726, Note_on_c, 0, 52, 0
2, 353755, Note_on_c, 0, 65, 32
2, 353775, Note_on_c, 0, 50, 35
2, 353777, Note_on_c, 0, 57, 26
2, 353880, Note_on_c, 0, 65, 0
2, 353887, Control_c, 0, 64, 127
2, 353921, Note_on_c, 0, 57, 0
2, 354012, Control_c, 0, 64, 0
2, 354056, Note_on_c, 0, 64, 41
2, 354063, Note_on_c, 0, 57, 52
2, 354066, Note_on_c, 0, 67, 59
2, 354069, Note_on_c, 0, 60, 46
2, 354074, Note_on_c, 0, 50, 0
2, 354083, Note_on_c, 0, 52, 54
2, 354263, Control_c, 0, 64, 127
2, 354338, Note_on_c, 0, 64, 0
2, 354358, Note_on_c, 0, 67, 0
2, 354359, Note_on_c, 0, 57, 0
2, 354382, Note_on_c, 0, 60, 0
2, 354458, Note_on_c, 0, 52, 0
2, 354513, Note_on_c, 0, 50, 38
2, 354532, Note_on_c, 0, 65, 40
2, 354630, Note_on_c, 0, 65, 0
2, 354648, Control_c, 0, 64, 0
2, 354658, Note_on_c, 0, 50, 0
2, 354728, Note_on_c, 0, 60, 43
2, 354729, Note_on_c, 0, 64, 40
2, 354738, Note_on_c, 0, 57, 43
2, 354739, Note_on_c, 0, 67, 46
2, 354757, Note_on_c, 0, 52, 25
2, 354806, Note_on_c, 0, 64, 0
2, 354821, Note_on_c, 0, 57, 0
2, 354822, Note_on_c, 0, 60, 0
2, 354832, Note_on_c, 0, 67, 0
2, 354888, Note_on_c, 0, 52, 0
2, 355042, Control_c, 0, 64, 127
2, 355081, Control_c, 0, 64, 0
2, 355085, Note_on_c, 0, 38, 62
2, 355175, Note_on_c, 0, 38, 0
2, 355256, Note_on_c, 0, 64, 44
2, 355260, Note_on_c, 0, 61, 53
2, 355262, Note_on_c, 0, 53, 53
2, 355275, Note_on_c, 0, 57, 44
2, 355585, Note_on_c, 0, 53, 0
2, 355627, Note_on_c, 0, 64, 0
2, 355628, Note_on_c, 0, 57, 0
2, 355638, Note_on_c, 0, 61, 0
2, 355677, Note_on_c, 0, 62, 47
2, 355684, Note_on_c, 0, 53, 22
2, 355709, Note_on_c, 0, 52, 45
2, 355859, Note_on_c, 0, 53, 0
2, 355889, Note_on_c, 0, 52, 0
2, 355917, Note_on_c, 0, 62, 0
2, 355973, Note_on_c, 0, 61, 59
2, 355974, Note_on_c, 0, 53, 58
2, 355975, Note_on_c, 0, 64, 53
2, 355982, Note_on_c, 0, 57, 46
2, 355991, Note_on_c, 0, 52, 48
2, 356343, Note_on_c, 0, 61, 0
2, 356356, Note_on_c, 0, 64, 0
2, 356358, Note_on_c, 0, 53, 0
2, 356372, Note_on_c, 0, 57, 0
2, 356441, Note_on_c, 0, 62, 44
2, 356451, Note_on_c, 0, 52, 0
2, 356452, Note_on_c, 0, 50, 36
2, 356542, Note_on_c, 0, 62, 0
2, 356634, Note_on_c, 0, 53, 63
2, 356651, Note_on_c, 0, 64, 58
2, 356656, Note_on_c, 0, 57, 46
2, 356662, Note_on_c, 0, 61, 34
2, 356744, Note_on_c, 0, 57, 0
2, 356749, Note_on_c, 0, 53, 0
2, 356750, Note_on_c, 0, 50, 0
2, 356780, Note_on_c, 0, 61, 0
2, 356795, Note_on_c, 0, 64, 0
2, 356903, Note_on_c, 0, 50, 31
2, 356959, Control_c, 0, 64, 127
2, 356986, Note_on_c, 0, 50, 0
2, 357047, Control_c, 0, 64, 0
2, 357122, Note_on_c, 0, 59, 64
2, 357124, Note_on_c, 0, 67, 64
2, 357125, Note_on_c, 0, 61, 56
2, 357135, Note_on_c, 0, 53, 57
2, 357136, Note_on_c, 0, 43, 45
2, 357139, Note_on_c, 0, 63, 53
2, 357535, Note_on_c, 0, 67, 0
2, 357556, Control_c, 0, 64, 127
2, 357557, Note_on_c, 0, 61, 0
2, 357577, Note_on_c, 0, 63, 0
2, 357631, Note_on_c, 0, 53, 0
2, 357666, Note_on_c, 0, 59, 0
2, 357846, Note_on_c, 0, 69, 69
2, 357858, Note_on_c, 0, 64, 70
2, 357859, Note_on_c, 0, 53, 62
2, 357864, Note_on_c, 0, 59, 69
2, 357914, Note_on_c, 0, 53, 0
2, 357916, Note_on_c, 0, 64, 0
2, 357928, Note_on_c, 0, 69, 0
2, 357934, Note_on_c, 0, 59, 0
2, 358002, Note_on_c, 0, 43, 0
2, 358018, Control_c, 0, 64, 0
2, 358230, Control_c, 0, 64, 127
2, 358298, Control_c, 0, 64, 0
2, 358315, Note_on_c, 0, 64, 55
2, 358318, Note_on_c, 0, 61, 56
2, 358326, Note_on_c, 0, 53, 50
2, 358328, Note_on_c, 0, 57, 51
2, 358336, Note_on_c, 0, 43, 43
2, 358341, Note_on_c, 0, 52, 54
2, 358539, Control_c, 0, 64, 127
2, 358720, Note_on_c, 0, 57, 0
2, 358722, Note_on_c, 0, 53, 0
2, 358751, Note_on_c, 0, 52, 0
2, 358792, Note_on_c, 0, 64, 0
2, 358805, Note_on_c, 0, 50, 43
2, 358816, Note_on_c, 0, 61, 0
2, 358851, Note_on_c, 0, 43, 0
2, 358962, Control_c, 0, 64, 0
2, 358996, Note_on_c, 0, 50, 0
2, 359005, Note_on_c, 0, 56, 44
2, 359019, Note_on_c, 0, 62, 59
2, 359027, Note_on_c, 0, 44, 51
2, 359029, Note_on_c, 0, 59, 58
2, 359038, Note_on_c, 0, 53, 50
2, 359173, Control_c, 0, 64, 127
2, 359274, Note_on_c, 0, 56, 0
2, 359316, Note_on_c, 0, 62, 0
2, 359338, Note_on_c, 0, 59, 0
2, 359418, Note_on_c, 0, 44, 0
2, 359451, Note_on_c, 0, 53, 0
2, 359943, Control_c, 0, 64, 0
2, 359951, Note_on_c, 0, 79, 74
2, 359977, Note_on_c, 0, 68, 32
2, 359978, Note_on_c, 0, 71, 53
2, 359981, Note_on_c, 0, 64, 54
2, 359993, Note_on_c, 0, 74, 40
2, 359996, Note_on_c, 0, 72, 27
2, 360028, Note_on_c, 0, 72, 0
2, 360073, Note_on_c, 0, 79, 0
2, 360076, Note_on_c, 0, 71, 0
2, 360115, Note_on_c, 0, 68, 0
2, 360145, Note_on_c, 0, 74, 0
2, 360160, Note_on_c, 0, 64, 0
2, 360222, Note_on_c, 0, 78, 53
2, 360224, Note_on_c, 0, 63, 45
2, 360260, Note_on_c, 0, 71, 31
2, 360274, Note_on_c, 0, 68, 17
2, 360331, Note_on_c, 0, 71, 0
2, 360333, Note_on_c, 0, 78, 0
2, 360361, Note_on_c, 0, 68, 0
2, 360376, Note_on_c, 0, 63, 0
2, 360456, Note_on_c, 0, 68, 31
2, 360464, Note_on_c, 0, 62, 34
2, 360465, Note_on_c, 0, 77, 34
2, 360491, Note_on_c, 0, 71, 26
2, 360532, Note_on_c, 0, 77, 0
2, 360536, Note_on_c, 0, 68, 0
2, 360541, Note_on_c, 0, 71, 0
2, 360598, Control_c, 0, 64, 127
2, 360612, Note_on_c, 0, 62, 0
2, 360680, Note_on_c, 0, 61, 43
2, 360821, Note_on_c, 0, 61, 0
2, 360877, Control_c, 0, 64, 0
2, 360914, Note_on_c, 0, 77, 60
2, 360915, Note_on_c, 0, 60, 32
2, 360916, Note_on_c, 0, 65, 64
2, 360919, Note_on_c, 0, 70, 56
2, 360924, Note_on_c, 0, 74, 49
2, 360977, Note_on_c, 0, 65, 0
2, 361000, Note_on_c, 0, 74, 0
2, 361001, Note_on_c, 0, 70, 0
2, 361008, Note_on_c, 0, 77, 0
2, 361076, Note_on_c, 0, 60, 0
2, 361394, Note_on_c, 0, 58, 53
2, 361399, Note_on_c, 0, 74, 42
2, 361404, Note_on_c, 0, 65, 58
2, 361406, Note_on_c, 0, 70, 49
2, 361441, Note_on_c, 0, 74, 0
2, 361452, Note_on_c, 0, 70, 0
2, 361464, Note_on_c, 0, 58, 0
2, 361470, Note_on_c, 0, 65, 0
2, 361563, Control_c, 0, 64, 127
2, 361794, Control_c, 0, 64, 0
2, 361876, Note_on_c, 0, 58, 40
2, 361888, Note_on_c, 0, 69, 40
2, 361892, Note_on_c, 0, 53, 42
2, 361896, Note_on_c, 0, 62, 39
2, 361909, Note_on_c, 0, 65, 34
2, 361976, Control_c, 0, 64, 127
2, 361998, Note_on_c, 0, 65, 0
2, 362073, Note_on_c, 0, 58, 0
2, 362083, Note_on_c, 0, 62, 0
2, 362107, Note_on_c, 0, 69, 0
2, 362171, Note_on_c, 0, 53, 0
2, 362203, Note_on_c, 0, 58, 26
2, 362207, Note_on_c, 0, 65, 36
2, 362220, Note_on_c, 0, 50, 31
2, 362236, Note_on_c, 0, 58, 0
2, 362243, Note_on_c, 0, 62, 20
2, 362263, Note_on_c, 0, 50, 0
2, 362276, Note_on_c, 0, 62, 0
2, 362285, Note_on_c, 0, 65, 0
2, 362583, Control_c, 0, 64, 0
2, 362641, Note_on_c, 0, 48, 46
2, 362643, Note_on_c, 0, 68, 53
2, 362646, Note_on_c, 0, 72, 55
2, 362653, Note_on_c, 0, 64, 48
2, 362654, Note_on_c, 0, 58, 37
2, 362775, Control_c, 0, 64, 127
2, 363055, Note_on_c, 0, 48, 0
2, 363112, Note_on_c, 0, 64, 0
2, 363123, Note_on_c, 0, 58, 0
2, 363353, Note_on_c, 0, 68, 0
2, 363768, Note_on_c, 0, 60, 60
2, 363769, Note_on_c, 0, 65, 87
2, 363771, Note_on_c, 0, 61, 70
2, 363777, Note_on_c, 0, 55, 72
2, 363796, Control_c, 0, 64, 0
2, 363805, Note_on_c, 0, 58, 32
2, 363819, Note_on_c, 0, 72, 0
2, 363842, Note_on_c, 0, 58, 0
2, 363988, Control_c, 0, 64, 127
2, 364255, Note_on_c, 0, 65, 0
2, 364284, Note_on_c, 0, 61, 0
2, 364294, Note_on_c, 0, 60, 0
2, 364299, Note_on_c, 0, 55, 0
2, 364532, Note_on_c, 0, 81, 68
2, 364640, Note_on_c, 0, 81, 0
2, 364739, Control_c, 0, 64, 0
2, 364757, Note_on_c, 0, 39, 76
2, 364762, Note_on_c, 0, 46, 75
2, 364771, Note_on_c, 0, 84, 89
2, 364773, Note_on_c, 0, 77, 90
2, 364774, Note_on_c, 0, 81, 82
2, 364776, Note_on_c, 0, 72, 95
2, 364922, Note_on_c, 0, 39, 0
2, 364941, Note_on_c, 0, 72, 0
2, 364947, Note_on_c, 0, 84, 0
2, 364957, Note_on_c, 0, 77, 0
2, 364969, Note_on_c, 0, 46, 0
2, 364970, Note_on_c, 0, 81, 0
2, 365026, Note_on_c, 0, 84, 64
2, 365046, Note_on_c, 0, 72, 40
2, 365056, Note_on_c, 0, 77, 49
2, 365128, Note_on_c, 0, 77, 0
2, 365144, Note_on_c, 0, 72, 0
2, 365171, Note_on_c, 0, 84, 0
2, 365257, Note_on_c, 0, 72, 36
2, 365263, Note_on_c, 0, 84, 35
2, 365271, Note_on_c, 0, 77, 35
2, 365287, Note_on_c, 0, 81, 44
2, 365360, Note_on_c, 0, 72, 0
2, 365366, Note_on_c, 0, 84, 0
2, 365370, Note_on_c, 0, 77, 0
2, 365379, Note_on_c, 0, 81, 0
2, 365508, Note_on_c, 0, 84, 62
2, 365510, Note_on_c, 0, 72, 53
2, 365515, Note_on_c, 0, 60, 51
2, 365519, Note_on_c, 0, 77, 57
2, 365520, Note_on_c, 0, 65, 74
2, 365522, Note_on_c, 0, 61, 63
2, 365523, Note_on_c, 0, 81, 57
2, 365537, Note_on_c, 0, 55, 51
2, 365612, Note_on_c, 0, 65, 0
2, 365642, Note_on_c, 0, 72, 0
2, 365647, Note_on_c, 0, 55, 0
2, 365654, Note_on_c, 0, 77, 0
2, 365655, Note_on_c, 0, 61, 0
2, 365661, Note_on_c, 0, 84, 0
2, 365666, Note_on_c, 0, 60, 0
2, 365669, Note_on_c, 0, 81, 0
2, 366029, Note_on_c, 0, 72, 54
2, 366046, Note_on_c, 0, 81, 36
2, 366066, Note_on_c, 0, 72, 0
2, 366076, Control_c, 0, 64, 127
2, 366100, Note_on_c, 0, 81, 0
2, 366230, Control_c, 0, 64, 0
2, 366260, Note_on_c, 0, 78, 80
2, 366262, Note_on_c, 0, 84, 81
2, 366263, Note_on_c, 0, 81, 79
2, 366270, Note_on_c, 0, 72, 77
2, 366275, Note_on_c, 0, 50, 69
2, 366276, Note_on_c, 0, 36, 71
2, 366280, Note_on_c, 0, 74, 66
2, 366282, Note_on_c, 0, 38, 74
2, 366295, Note_on_c, 0, 48, 40
2, 366313, Note_on_c, 0, 74, 0
2, 366329, Note_on_c, 0, 48, 0
2, 366354, Note_on_c, 0, 36, 0
2, 366425, Note_on_c, 0, 38, 0
2, 366427, Note_on_c, 0, 72, 0
2, 366435, Note_on_c, 0, 84, 0
2, 366445, Note_on_c, 0, 78, 0
2, 366448, Note_on_c, 0, 81, 0
2, 366455, Note_on_c, 0, 50, 0
2, 366759, Note_on_c, 0, 78, 53
2, 366762, Note_on_c, 0, 81, 61
2, 366764, Note_on_c, 0, 84, 60
2, 366765, Note_on_c, 0, 72, 61
2, 366896, Note_on_c, 0, 72, 0
2, 366917, Note_on_c, 0, 84, 0
2, 366918, Note_on_c, 0, 78, 0
2, 366922, Note_on_c, 0, 81, 0
2, 366982, Control_c, 0, 64, 127
2, 367030, Note_on_c, 0, 78, 57
2, 367036, Note_on_c, 0, 84, 45
2, 367037, Note_on_c, 0, 72, 51
2, 367048, Note_on_c, 0, 81, 52
2, 367074, Note_on_c, 0, 72, 0
2, 367085, Note_on_c, 0, 81, 0
2, 367085, Note_on_c, 0, 84, 0
2, 367101, Note_on_c, 0, 78, 0
2, 367107, Control_c, 0, 64, 0
2, 367270, Control_c, 0, 64, 127
2, 367463, Control_c, 0, 64, 0
2, 367497, Note_on_c, 0, 60, 60
2, 367499, Note_on_c, 0, 54, 80
2, 367500, Note_on_c, 0, 65, 88
2, 367501, Note_on_c, 0, 88, 81
2, 367509, Note_on_c, 0, 81, 72
2, 367510, Note_on_c, 0, 76, 78
2, 367512, Note_on_c, 0, 84, 65
2, 367677, Control_c, 0, 64, 127
2, 367996, Note_on_c, 0, 88, 0
2, 367996, Note_on_c, 0, 60, 0
2, 368004, Note_on_c, 0, 84, 0
2, 368008, Note_on_c, 0, 65, 0
2, 368009, Note_on_c, 0, 76, 0
2, 368029, Note_on_c, 0, 81, 0
2, 368034, Note_on_c, 0, 54, 0
2, 368129, Control_c, 0, 64, 0
2, 368168, Note_on_c, 0, 86, 66
2, 368180, Note_on_c, 0, 81, 66
2, 368182, Note_on_c, 0, 65, 68
2, 368183, Note_on_c, 0, 54, 62
2, 368184, Note_on_c, 0, 60, 45
2, 368190, Note_on_c, 0, 74, 54
2, 368251, Note_on_c, 0, 86, 0
2, 368260, Note_on_c, 0, 81, 0
2, 368266, Note_on_c, 0, 74, 0
2, 368311, Note_on_c, 0, 65, 0
2, 368335, Note_on_c, 0, 60, 0
2, 368370, Control_c, 0, 64, 127
2, 368403, Note_on_c, 0, 54, 0
2, 368620, Control_c, 0, 64, 0
2, 368676, Note_on_c, 0, 64, 69
2, 368682, Note_on_c, 0, 79, 79
2, 368683, Note_on_c, 0, 59, 65
2, 368686, Note_on_c, 0, 53, 64
2, 368687, Note_on_c, 0, 73, 73
2, 368688, Note_on_c, 0, 71, 82
2, 368802, Note_on_c, 0, 64, 0
2, 368818, Note_on_c, 0, 79, 0
2, 368824, Note_on_c, 0, 59, 0
2, 368836, Note_on_c, 0, 71, 0
2, 368840, Note_on_c, 0, 73, 0
2, 368863, Note_on_c, 0, 53, 0
2, 369194, Note_on_c, 0, 41, 27
2, 369206, Note_on_c, 0, 43, 22
2, 369249, Note_on_c, 0, 41, 0
2, 369317, Note_on_c, 0, 43, 0
2, 369455, Note_on_c, 0, 61, 71
2, 369457, Note_on_c, 0, 59, 60
2, 369460, Note_on_c, 0, 67, 58
2, 369474, Note_on_c, 0, 53, 53
2, 369660, Note_on_c, 0, 67, 0
2, 369683, Note_on_c, 0, 53, 0
2, 369698, Note_on_c, 0, 59, 0
2, 369706, Note_on_c, 0, 61, 0
2, 369916, Note_on_c, 0, 47, 35
2, 370010, Note_on_c, 0, 47, 0
2, 370113, Note_on_c, 0, 65, 50
2, 370114, Note_on_c, 0, 59, 62
2, 370115, Note_on_c, 0, 62, 62
2, 370236, Note_on_c, 0, 59, 0
2, 370246, Note_on_c, 0, 62, 0
2, 370255, Note_on_c, 0, 65, 0
2, 370374, Control_c, 0, 64, 127
2, 370403, Control_c, 0, 64, 0
2, 370570, Note_on_c, 0, 68, 59
2, 370581, Note_on_c, 0, 63, 57
2, 370583, Note_on_c, 0, 59, 56
2, 370586, Note_on_c, 0, 49, 53
2, 370588, Note_on_c, 0, 65, 47
2, 370614, Control_c, 0, 64, 127
2, 370861, Note_on_c, 0, 49, 0
2, 370950, Note_on_c, 0, 59, 0
2, 370958, Note_on_c, 0, 68, 0
2, 370987, Note_on_c, 0, 65, 0
2, 371042, Note_on_c, 0, 63, 0
2, 371311, Note_on_c, 0, 70, 69
2, 371317, Control_c, 0, 64, 0
2, 371319, Note_on_c, 0, 58, 59
2, 371320, Note_on_c, 0, 63, 62
2, 371327, Note_on_c, 0, 48, 58
2, 371328, Note_on_c, 0, 36, 62
2, 371329, Note_on_c, 0, 65, 54
2, 371501, Control_c, 0, 64, 127
2, 371639, Note_on_c, 0, 70, 0
2, 371651, Note_on_c, 0, 65, 0
2, 371676, Note_on_c, 0, 63, 0
2, 371819, Note_on_c, 0, 58, 0
2, 371847, Note_on_c, 0, 43, 34
2, 371926, Note_on_c, 0, 48, 0
2, 371981, Control_c, 0, 64, 0
2, 371992, Note_on_c, 0, 63, 61
2, 371993, Note_on_c, 0, 67, 56
2, 371994, Note_on_c, 0, 58, 61
2, 371995, Note_on_c, 0, 36, 0
2, 372000, Note_on_c, 0, 43, 0
2, 372145, Control_c, 0, 64, 127
2, 372173, Note_on_c, 0, 67, 0
2, 372314, Note_on_c, 0, 63, 0
2, 372335, Note_on_c, 0, 39, 33
2, 372343, Note_on_c, 0, 58, 0
2, 372410, Note_on_c, 0, 41, 32
2, 372453, Control_c, 0, 64, 0
2, 372467, Note_on_c, 0, 41, 0
2, 372479, Note_on_c, 0, 39, 0
2, 372487, Note_on_c, 0, 56, 60
2, 372490, Note_on_c, 0, 46, 34
2, 372500, Note_on_c, 0, 65, 40
2, 372505, Note_on_c, 0, 61, 49
2, 372597, Note_on_c, 0, 56, 0
2, 372631, Note_on_c, 0, 65, 0
2, 372636, Note_on_c, 0, 61, 0
2, 372689, Note_on_c, 0, 46, 0
2, 372947, Note_on_c, 0, 56, 51
2, 372950, Note_on_c, 0, 61, 50
2, 372954, Note_on_c, 0, 46, 36
2, 372962, Note_on_c, 0, 65, 31
2, 373148, Note_on_c, 0, 65, 0
2, 373163, Note_on_c, 0, 61, 0
2, 373184, Note_on_c, 0, 56, 0
2, 373205, Note_on_c, 0, 46, 0
2, 373693, Note_on_c, 0, 39, 49
2, 373697, Note_on_c, 0, 61, 52
2, 373699, Note_on_c, 0, 55, 45
2, 373707, Note_on_c, 0, 65, 37
2, 373811, Note_on_c, 0, 55, 0
2, 373840, Note_on_c, 0, 65, 0
2, 373856, Note_on_c, 0, 39, 0
2, 373883, Note_on_c, 0, 61, 0
2, 374146, Note_on_c, 0, 44, 43
2, 374148, Note_on_c, 0, 55, 51
2, 374151, Note_on_c, 0, 60, 40
2, 374152, Note_on_c, 0, 65, 40
2, 374318, Note_on_c, 0, 60, 0
2, 374321, Note_on_c, 0, 55, 0
2, 374343, Note_on_c, 0, 65, 0
2, 374415, Note_on_c, 0, 44, 0
2, 374632, Note_on_c, 0, 65, 40
2, 374633, Note_on_c, 0, 60, 37
2, 374636, Note_on_c, 0, 44, 40
2, 374638, Note_on_c, 0, 55, 42
2, 374775, Note_on_c, 0, 55, 0
2, 374788, Note_on_c, 0, 65, 0
2, 374799, Note_on_c, 0, 60, 0
2, 374970, Note_on_c, 0, 44, 0
2, 375572, Note_on_c, 0, 53, 56
2, 375573, Note_on_c, 0, 65, 39
2, 375577, Note_on_c, 0, 60, 40
2, 375579, Note_on_c, 0, 37, 50
2, 375723, Note_on_c, 0, 65, 0
2, 375724, Note_on_c, 0, 53, 0
2, 375731, Note_on_c, 0, 37, 0
2, 375732, Note_on_c, 0, 60, 0
2, 375800, Note_on_c, 0, 65, 20
2, 375804, Note_on_c, 0, 53, 28
2, 375806, Note_on_c, 0, 60, 33
2, 375807, Note_on_c, 0, 37, 55
2, 375943, Note_on_c, 0, 37, 0
2, 375969, Note_on_c, 0, 60, 0
2, 375971, Note_on_c, 0, 65, 0
2, 375995, Note_on_c, 0, 53, 0
2, 376060, Note_on_c, 0, 37, 63
2, 376193, Note_on_c, 0, 37, 0
2, 376261, Note_on_c, 0, 62, 66
2, 376264, Note_on_c, 0, 58, 69
2, 376268, Note_on_c, 0, 65, 63
2, 376269, Note_on_c, 0, 53, 68
2, 376283, Note_on_c, 0, 43, 59
2, 376437, Note_on_c, 0, 65, 0
2, 376441, Note_on_c, 0, 53, 0
2, 376442, Note_on_c, 0, 58, 0
2, 376454, Note_on_c, 0, 62, 0
2, 376463, Note_on_c, 0, 43, 0
2, 376517, Note_on_c, 0, 43, 50
2, 376528, Note_on_c, 0, 58, 54
2, 376531, Note_on_c, 0, 53, 57
2, 376532, Note_on_c, 0, 65, 53
2, 376533, Note_on_c, 0, 62, 66
2, 376645, Note_on_c, 0, 65, 0
2, 376649, Note_on_c, 0, 43, 0
2, 376652, Note_on_c, 0, 53, 0
2, 376663, Note_on_c, 0, 58, 0
2, 376672, Note_on_c, 0, 62, 0
2, 376734, Note_on_c, 0, 53, 36
2, 376736, Note_on_c, 0, 58, 33
2, 376739, Note_on_c, 0, 62, 38
2, 376740, Note_on_c, 0, 65, 29
2, 376741, Note_on_c, 0, 43, 38
2, 376829, Note_on_c, 0, 43, 0
2, 376865, Note_on_c, 0, 65, 0
2, 376870, Note_on_c, 0, 53, 0
2, 376883, Note_on_c, 0, 58, 0
2, 376895, Note_on_c, 0, 62, 0
2, 376992, Note_on_c, 0, 65, 59
2, 376993, Note_on_c, 0, 58, 55
2, 377000, Note_on_c, 0, 43, 54
2, 377008, Note_on_c, 0, 53, 55
2, 377111, Note_on_c, 0, 53, 0
2, 377114, Note_on_c, 0, 58, 0
2, 377132, Note_on_c, 0, 65, 0
2, 377185, Note_on_c, 0, 43, 0
2, 377212, Note_on_c, 0, 53, 49
2, 377213, Note_on_c, 0, 65, 41
2, 377218, Note_on_c, 0, 58, 42
2, 377222, Note_on_c, 0, 36, 54
2, 377236, Note_on_c, 0, 61, 51
2, 377313, Note_on_c, 0, 36, 0
2, 377345, Note_on_c, 0, 53, 0
2, 377395, Note_on_c, 0, 61, 0
2, 377399, Note_on_c, 0, 58, 0
2, 377428, Note_on_c, 0, 65, 0
2, 377718, Note_on_c, 0, 65, 71
2, 377722, Note_on_c, 0, 57, 66
2, 377725, Note_on_c, 0, 60, 50
2, 377727, Note_on_c, 0, 62, 64
2, 377734, Note_on_c, 0, 48, 74
2, 377748, Note_on_c, 0, 47, 63
2, 377783, Note_on_c, 0, 47, 0
2, 377976, Note_on_c, 0, 57, 0
2, 377983, Note_on_c, 0, 65, 0
2, 377994, Note_on_c, 0, 60, 0
2, 378003, Note_on_c, 0, 62, 0
2, 378068, Note_on_c, 0, 48, 0
2, 378534, Note_on_c, 0, 48, 69
2, 378536, Note_on_c, 0, 65, 60
2, 378538, Note_on_c, 0, 57, 60
2, 378539, Note_on_c, 0, 62, 62
2, 378541, Note_on_c, 0, 60, 41
2, 378544, Note_on_c, 0, 47, 62
2, 378597, Note_on_c, 0, 47, 0
2, 378775, Note_on_c, 0, 57, 0
2, 378789, Note_on_c, 0, 60, 0
2, 378799, Note_on_c, 0, 48, 0
2, 378807, Note_on_c, 0, 65, 0
2, 378813, Note_on_c, 0, 62, 0
2, 379064, Note_on_c, 0, 47, 34
2, 379201, Note_on_c, 0, 47, 0
2, 379221, Note_on_c, 0, 57, 81
2, 379223, Note_on_c, 0, 60, 60
2, 379224, Note_on_c, 0, 65, 74
2, 379225, Note_on_c, 0, 62, 75
2, 379228, Note_on_c, 0, 48, 79
2, 379462, Note_on_c, 0, 57, 0
2, 379475, Note_on_c, 0, 60, 0
2, 379495, Note_on_c, 0, 65, 0
2, 379499, Note_on_c, 0, 62, 0
2, 379509, Note_on_c, 0, 48, 0
2, 379631, Note_on_c, 0, 47, 55
2, 379690, Note_on_c, 0, 62, 68
2, 379691, Note_on_c, 0, 48, 68
2, 379692, Note_on_c, 0, 60, 60
2, 379693, Note_on_c, 0, 65, 64
2, 379701, Note_on_c, 0, 57, 64
2, 379729, Note_on_c, 0, 47, 0
2, 379835, Note_on_c, 0, 48, 0
2, 379867, Note_on_c, 0, 57, 0
2, 379888, Note_on_c, 0, 62, 0
2, 379892, Note_on_c, 0, 60, 0
2, 379900, Note_on_c, 0, 65, 0
2, 379944, Note_on_c, 0, 47, 70
2, 380052, Note_on_c, 0, 47, 0
2, 380164, Note_on_c, 0, 46, 58
2, 380168, Note_on_c, 0, 65, 65
2, 380170, Note_on_c, 0, 56, 63
2, 380172, Note_on_c, 0, 61, 68
2, 380310, Note_on_c, 0, 56, 0
2, 380329, Note_on_c, 0, 65, 0
2, 380338, Note_on_c, 0, 61, 0
2, 380344, Note_on_c, 0, 46, 0
2, 380619, Note_on_c, 0, 46, 46
2, 380624, Note_on_c, 0, 56, 68
2, 380626, Note_on_c, 0, 61, 59
2, 380627, Note_on_c, 0, 65, 66
2, 380803, Note_on_c, 0, 61, 0
2, 380807, Note_on_c, 0, 65, 0
2, 380829, Note_on_c, 0, 56, 0
2, 380880, Note_on_c, 0, 46, 0
2, 381093, Note_on_c, 0, 61, 59
2, 381094, Note_on_c, 0, 55, 63
2, 381094, Note_on_c, 0, 65, 60
2, 381100, Note_on_c, 0, 39, 53
2, 381311, Note_on_c, 0, 55, 0
2, 381314, Note_on_c, 0, 39, 0
2, 381319, Note_on_c, 0, 61, 0
2, 381334, Note_on_c, 0, 65, 0
2, 381400, Note_on_c, 0, 39, 39
2, 381406, Note_on_c, 0, 55, 50
2, 381410, Note_on_c, 0, 61, 65
2, 381411, Note_on_c, 0, 65, 47
2, 381473, Note_on_c, 0, 55, 0
2, 381514, Note_on_c, 0, 61, 0
2, 381521, Note_on_c, 0, 65, 0
2, 381527, Note_on_c, 0, 39, 0
2, 381849, Note_on_c, 0, 65, 57
2, 381857, Note_on_c, 0, 60, 47
2, 381867, Note_on_c, 0, 53, 62
2, 381876, Note_on_c, 0, 44, 52
2, 381984, Note_on_c, 0, 53, 0
2, 382014, Note_on_c, 0, 60, 0
2, 382022, Note_on_c, 0, 65, 0
2, 382103, Note_on_c, 0, 44, 0
2, 382312, Note_on_c, 0, 44, 62
2, 382321, Note_on_c, 0, 60, 47
2, 382325, Note_on_c, 0, 65, 56
2, 382332, Note_on_c, 0, 53, 61
2, 382462, Note_on_c, 0, 53, 0
2, 382473, Note_on_c, 0, 65, 0
2, 382496, Note_on_c, 0, 60, 0
2, 382515, Note_on_c, 0, 44, 0
2, 382544, Note_on_c, 0, 44, 26
2, 382558, Note_on_c, 0, 53, 45
2, 382560, Note_on_c, 0, 60, 50
2, 382561, Note_on_c, 0, 65, 39
2, 382683, Note_on_c, 0, 53, 0
2, 382702, Note_on_c, 0, 65, 0
2, 382707, Note_on_c, 0, 60, 0
2, 382790, Note_on_c, 0, 44, 0
2, 383025, Note_on_c, 0, 37, 67
2, 383280, Note_on_c, 0, 37, 0
2, 383783, Note_on_c, 0, 37, 56
2, 383812, Note_on_c, 0, 65, 62
2, 383820, Note_on_c, 0, 58, 57
2, 383827, Note_on_c, 0, 53, 48
2, 383877, Note_on_c, 0, 53, 0
2, 383904, Note_on_c, 0, 65, 0
2, 383907, Note_on_c, 0, 58, 0
2, 383965, Note_on_c, 0, 37, 0
2, 384016, Note_on_c, 0, 43, 71
2, 384019, Note_on_c, 0, 58, 77
2, 384024, Note_on_c, 0, 65, 58
2, 384029, Note_on_c, 0, 62, 66
2, 384030, Note_on_c, 0, 53, 69
2, 384176, Note_on_c, 0, 53, 0
2, 384190, Note_on_c, 0, 65, 0
2, 384196, Note_on_c, 0, 58, 0
2, 384197, Note_on_c, 0, 62, 0
2, 384216, Note_on_c, 0, 43, 0
2, 384463, Note_on_c, 0, 43, 74
2, 384470, Note_on_c, 0, 65, 74
2, 384474, Note_on_c, 0, 58, 82
2, 384475, Note_on_c, 0, 62, 70
2, 384484, Note_on_c, 0, 53, 74
2, 384510, Note_on_c, 0, 64, 27
2, 384517, Note_on_c, 0, 53, 0
2, 384562, Note_on_c, 0, 64, 0
2, 384566, Note_on_c, 0, 43, 0
2, 384617, Note_on_c, 0, 62, 0
2, 384644, Note_on_c, 0, 65, 0
2, 384695, Note_on_c, 0, 58, 0
2, 384943, Note_on_c, 0, 64, 72
2, 384944, Note_on_c, 0, 58, 80
2, 384946, Note_on_c, 0, 24, 77
2, 384947, Note_on_c, 0, 36, 90
2, 384954, Note_on_c, 0, 52, 80
2, 384956, Note_on_c, 0, 61, 69
2, 385384, Control_c, 0, 64, 127
2, 385398, Note_on_c, 0, 52, 0
2, 385429, Note_on_c, 0, 64, 0
2, 385499, Note_on_c, 0, 58, 0
2, 385500, Note_on_c, 0, 36, 0
2, 385503, Note_on_c, 0, 61, 0
2, 385517, Note_on_c, 0, 24, 0
2, 385683, Control_c, 0, 64, 0
2, 385685, Note_on_c, 0, 60, 90
2, 385687, Note_on_c, 0, 65, 95
2, 385688, Note_on_c, 0, 57, 99
2, 385690, Note_on_c, 0, 29, 108
2, 385691, Note_on_c, 0, 62, 92
2, 385854, Note_on_c, 0, 57, 0
2, 385876, Note_on_c, 0, 60, 0
2, 385923, Note_on_c, 0, 62, 0
2, 385933, Note_on_c, 0, 65, 0
2, 385960, Note_on_c, 0, 29, 0
2, 385960, End_track
0, 0, End_of_file
