0, 0, Header, 1, 4, 384
1, 0, Start_track
1, 0, Title_t, "Shenandoah"
1, 0, Text_t, "Unedited Solo Piano       \012"
1, 0, Text_t, "dougmck@pipeline.com.au\012"
1, 0, System_exclusive, 5, 126, 127, 9, 1, 247
1, 0, System_exclusive, 8, 67, 115, 1, 17, 15, 89, 0, 247
1, 0, Time_signature, 4, 2, 24, 8
1, 0, Key_signature, 2, "major"
1, 0, Tempo, 500000
1, 0, Marker_t, "Shenandoah"
1, 0, End_track
2, 0, Start_track
2, 0, Title_t, "dougmck@pipeline.com.au"
2, 0, Control_c, 0, 64, 127
2, 0, Note_on_c, 0, 81, 40
2, 0, Note_on_c, 0, 57, 60
2, 44, Control_c, 0, 64, 0
2, 516, Control_c, 0, 64, 127
2, 1040, Control_c, 0, 64, 0
2, 1040, Note_on_c, 0, 86, 68
2, 1044, Note_on_c, 0, 81, 0
2, 1048, Note_on_c, 0, 62, 46
2, 1092, Note_on_c, 0, 57, 0
2, 1168, Control_c, 0, 64, 127
2, 1420, Note_on_c, 0, 62, 0
2, 1424, Note_on_c, 0, 86, 0
2, 1528, Note_on_c, 0, 62, 36
2, 1544, Note_on_c, 0, 86, 44
2, 1712, Note_on_c, 0, 62, 0
2, 1756, Note_on_c, 0, 86, 0
2, 1880, Note_on_c, 0, 62, 41
2, 1892, Note_on_c, 0, 86, 36
2, 2116, Note_on_c, 0, 62, 0
2, 2168, Note_on_c, 0, 86, 0
2, 3324, Note_on_c, 0, 62, 35
2, 3340, Note_on_c, 0, 57, 43
2, 3356, Note_on_c, 0, 42, 25
2, 3356, Note_on_c, 0, 30, 26
2, 3396, Control_c, 0, 64, 0
2, 3516, Control_c, 0, 64, 127
2, 4224, Note_on_c, 0, 57, 0
2, 4292, Note_on_c, 0, 62, 0
2, 4372, Note_on_c, 0, 30, 0
2, 4408, Note_on_c, 0, 42, 0
2, 4968, Note_on_c, 0, 64, 101
2, 4976, Note_on_c, 0, 52, 68
2, 5196, Note_on_c, 0, 64, 0
2, 5232, Note_on_c, 0, 52, 0
2, 5280, Note_on_c, 0, 66, 83
2, 5284, Note_on_c, 0, 54, 69
2, 5572, Note_on_c, 0, 54, 0
2, 5588, Note_on_c, 0, 66, 0
2, 5656, Note_on_c, 0, 55, 66
2, 5664, Note_on_c, 0, 67, 84
2, 5832, Note_on_c, 0, 55, 0
2, 5912, Note_on_c, 0, 67, 0
2, 6180, Control_c, 0, 64, 0
2, 6200, Note_on_c, 0, 71, 60
2, 6200, Note_on_c, 0, 67, 60
2, 6204, Note_on_c, 0, 64, 65
2, 6208, Note_on_c, 0, 62, 63
2, 6220, Note_on_c, 0, 55, 34
2, 6220, Note_on_c, 0, 45, 46
2, 6396, Control_c, 0, 64, 127
2, 6856, Note_on_c, 0, 55, 0
2, 7020, Note_on_c, 0, 64, 0
2, 7076, Note_on_c, 0, 62, 0
2, 7132, Note_on_c, 0, 71, 0
2, 7316, Note_on_c, 0, 67, 0
2, 7788, Note_on_c, 0, 45, 0
2, 7840, Note_on_c, 0, 61, 42
2, 7840, Note_on_c, 0, 49, 35
2, 7848, Note_on_c, 0, 55, 45
2, 7848, Note_on_c, 0, 69, 56
2, 7852, Note_on_c, 0, 64, 49
2, 7928, Note_on_c, 0, 64, 0
2, 7988, Note_on_c, 0, 69, 0
2, 8004, Note_on_c, 0, 61, 0
2, 8184, Note_on_c, 0, 55, 0
2, 8216, Note_on_c, 0, 49, 0
2, 8260, Control_c, 0, 64, 0
2, 8268, Note_on_c, 0, 66, 32
2, 8272, Note_on_c, 0, 62, 45
2, 8276, Note_on_c, 0, 57, 38
2, 8288, Note_on_c, 0, 47, 39
2, 8428, Control_c, 0, 64, 127
2, 8500, Note_on_c, 0, 57, 0
2, 8572, Note_on_c, 0, 62, 0
2, 8612, Note_on_c, 0, 66, 0
2, 8640, Note_on_c, 0, 54, 44
2, 8976, Note_on_c, 0, 74, 75
2, 8976, Note_on_c, 0, 66, 77
2, 8984, Note_on_c, 0, 59, 34
2, 9156, Note_on_c, 0, 54, 0
2, 9348, Note_on_c, 0, 74, 0
2, 9408, Note_on_c, 0, 73, 40
2, 9412, Note_on_c, 0, 54, 34
2, 9508, Note_on_c, 0, 47, 0
2, 9564, Note_on_c, 0, 54, 0
2, 9640, Note_on_c, 0, 66, 0
2, 9644, Note_on_c, 0, 59, 0
2, 9676, Note_on_c, 0, 73, 0
2, 10084, Note_on_c, 0, 71, 29
2, 10088, Note_on_c, 0, 69, 36
2, 10092, Note_on_c, 0, 43, 34
2, 10124, Control_c, 0, 64, 0
2, 10200, Control_c, 0, 64, 127
2, 10244, Note_on_c, 0, 69, 0
2, 10264, Note_on_c, 0, 71, 0
2, 10364, Note_on_c, 0, 50, 31
2, 10392, Note_on_c, 0, 81, 60
2, 10452, Note_on_c, 0, 43, 0
2, 10564, Note_on_c, 0, 50, 0
2, 10612, Note_on_c, 0, 81, 0
2, 10640, Note_on_c, 0, 78, 29
2, 10652, Note_on_c, 0, 57, 51
2, 10660, Note_on_c, 0, 71, 41
2, 10664, Note_on_c, 0, 74, 26
2, 10816, Note_on_c, 0, 71, 0
2, 10836, Note_on_c, 0, 74, 0
2, 10892, Note_on_c, 0, 78, 0
2, 10908, Note_on_c, 0, 57, 0
2, 10956, Note_on_c, 0, 62, 19
2, 11252, Note_on_c, 0, 64, 40
2, 11260, Note_on_c, 0, 88, 50
2, 11264, Note_on_c, 0, 95, 50
2, 11476, Note_on_c, 0, 88, 0
2, 11508, Note_on_c, 0, 64, 0
2, 11552, Note_on_c, 0, 95, 0
2, 11588, Note_on_c, 0, 90, 36
2, 11588, Note_on_c, 0, 83, 38
2, 11604, Note_on_c, 0, 69, 35
2, 11820, Note_on_c, 0, 83, 0
2, 11944, Note_on_c, 0, 90, 0
2, 12036, Note_on_c, 0, 66, 25
2, 12044, Note_on_c, 0, 81, 28
2, 12044, Note_on_c, 0, 86, 35
2, 12320, Note_on_c, 0, 62, 0
2, 12420, Note_on_c, 0, 86, 0
2, 12436, Note_on_c, 0, 81, 0
2, 12596, Note_on_c, 0, 93, 62
2, 12600, Note_on_c, 0, 62, 32
2, 12660, Note_on_c, 0, 69, 0
2, 12728, Note_on_c, 0, 66, 0
2, 12776, Note_on_c, 0, 93, 0
2, 12792, Note_on_c, 0, 62, 0
2, 13108, Note_on_c, 0, 95, 60
2, 13136, Note_on_c, 0, 57, 56
2, 13140, Control_c, 0, 64, 0
2, 13144, Note_on_c, 0, 88, 31
2, 13144, Note_on_c, 0, 86, 32
2, 13148, Note_on_c, 0, 67, 33
2, 13288, Control_c, 0, 64, 127
2, 13400, Note_on_c, 0, 95, 0
2, 13608, Note_on_c, 0, 93, 57
2, 13616, Note_on_c, 0, 64, 24
2, 13652, Note_on_c, 0, 67, 0
2, 13684, Note_on_c, 0, 88, 0
2, 13708, Note_on_c, 0, 57, 0
2, 13708, Note_on_c, 0, 64, 0
2, 13756, Note_on_c, 0, 86, 0
2, 13908, Note_on_c, 0, 93, 0
2, 14008, Note_on_c, 0, 90, 31
2, 14012, Note_on_c, 0, 81, 27
2, 14012, Note_on_c, 0, 54, 49
2, 14020, Note_on_c, 0, 86, 43
2, 14036, Control_c, 0, 64, 0
2, 14152, Control_c, 0, 64, 127
2, 14340, Note_on_c, 0, 90, 0
2, 14364, Note_on_c, 0, 62, 53
2, 14376, Note_on_c, 0, 93, 69
2, 14404, Note_on_c, 0, 86, 0
2, 14440, Note_on_c, 0, 93, 0
2, 14480, Note_on_c, 0, 81, 0
2, 14672, Note_on_c, 0, 62, 0
2, 14756, Note_on_c, 0, 66, 63
2, 14760, Note_on_c, 0, 74, 66
2, 14772, Note_on_c, 0, 62, 38
2, 14852, Note_on_c, 0, 54, 0
2, 14996, Note_on_c, 0, 62, 0
2, 15072, Note_on_c, 0, 66, 0
2, 15104, Note_on_c, 0, 74, 0
2, 15128, Note_on_c, 0, 69, 66
2, 15128, Note_on_c, 0, 54, 54
2, 15136, Note_on_c, 0, 62, 57
2, 15148, Note_on_c, 0, 66, 21
2, 15228, Note_on_c, 0, 54, 0
2, 15372, Note_on_c, 0, 66, 0
2, 15412, Note_on_c, 0, 62, 0
2, 15532, Note_on_c, 0, 69, 0
2, 15580, Note_on_c, 0, 57, 54
2, 15584, Note_on_c, 0, 66, 69
2, 15588, Note_on_c, 0, 47, 46
2, 15592, Note_on_c, 0, 62, 58
2, 15596, Control_c, 0, 64, 0
2, 15776, Control_c, 0, 64, 127
2, 15844, Note_on_c, 0, 66, 0
2, 15908, Note_on_c, 0, 62, 0
2, 15972, Note_on_c, 0, 57, 0
2, 16052, Note_on_c, 0, 62, 70
2, 16072, Note_on_c, 0, 54, 34
2, 16088, Note_on_c, 0, 57, 28
2, 16324, Note_on_c, 0, 54, 0
2, 16336, Note_on_c, 0, 57, 0
2, 16388, Note_on_c, 0, 62, 0
2, 16536, Note_on_c, 0, 62, 57
2, 16560, Note_on_c, 0, 54, 32
2, 16564, Note_on_c, 0, 57, 58
2, 16624, Note_on_c, 0, 62, 0
2, 16720, Note_on_c, 0, 57, 0
2, 16736, Note_on_c, 0, 54, 0
2, 16796, Note_on_c, 0, 47, 0
2, 16972, Note_on_c, 0, 54, 37
2, 16976, Note_on_c, 0, 47, 39
2, 16980, Note_on_c, 0, 57, 61
2, 17060, Note_on_c, 0, 47, 0
2, 17252, Note_on_c, 0, 54, 0
2, 17300, Note_on_c, 0, 57, 0
2, 17480, Note_on_c, 0, 57, 65
2, 17484, Note_on_c, 0, 54, 46
2, 17488, Note_on_c, 0, 31, 40
2, 17504, Note_on_c, 0, 43, 26
2, 17508, Control_c, 0, 64, 0
2, 17684, Control_c, 0, 64, 127
2, 17704, Note_on_c, 0, 31, 0
2, 17752, Note_on_c, 0, 43, 0
2, 17916, Note_on_c, 0, 54, 0
2, 17936, Note_on_c, 0, 57, 0
2, 18096, Note_on_c, 0, 59, 47
2, 18100, Note_on_c, 0, 54, 27
2, 18112, Note_on_c, 0, 57, 53
2, 18124, Note_on_c, 0, 50, 36
2, 18296, Note_on_c, 0, 54, 0
2, 18320, Note_on_c, 0, 57, 0
2, 18344, Note_on_c, 0, 59, 0
2, 18880, Note_on_c, 0, 71, 71
2, 18900, Note_on_c, 0, 55, 60
2, 18904, Note_on_c, 0, 62, 89
2, 18976, Control_c, 0, 64, 0
2, 19000, Control_c, 0, 64, 127
2, 19116, Note_on_c, 0, 50, 0
2, 19236, Note_on_c, 0, 71, 0
2, 19304, Note_on_c, 0, 62, 0
2, 19332, Note_on_c, 0, 71, 71
2, 19332, Note_on_c, 0, 50, 38
2, 19344, Note_on_c, 0, 62, 48
2, 19376, Note_on_c, 0, 62, 0
2, 19704, Note_on_c, 0, 71, 0
2, 19984, Note_on_c, 0, 71, 39
2, 19984, Note_on_c, 0, 43, 35
2, 19992, Note_on_c, 0, 66, 40
2, 19996, Note_on_c, 0, 59, 42
2, 20024, Control_c, 0, 64, 0
2, 20040, Note_on_c, 0, 50, 0
2, 20332, Control_c, 0, 64, 127
2, 20840, Note_on_c, 0, 59, 0
2, 20924, Note_on_c, 0, 43, 0
2, 20972, Note_on_c, 0, 66, 0
2, 21048, Note_on_c, 0, 71, 0
2, 21552, Note_on_c, 0, 55, 0
2, 21576, Note_on_c, 0, 78, 48
2, 21576, Note_on_c, 0, 54, 47
2, 21632, Note_on_c, 0, 78, 0
2, 21760, Note_on_c, 0, 54, 0
2, 21772, Note_on_c, 0, 81, 88
2, 21784, Note_on_c, 0, 57, 65
2, 21960, Note_on_c, 0, 81, 0
2, 22032, Note_on_c, 0, 78, 74
2, 22044, Note_on_c, 0, 54, 47
2, 22080, Note_on_c, 0, 54, 0
2, 22080, Note_on_c, 0, 57, 0
2, 22132, Note_on_c, 0, 78, 0
2, 22496, Note_on_c, 0, 54, 44
2, 22496, Note_on_c, 0, 76, 33
2, 22504, Note_on_c, 0, 69, 39
2, 22544, Control_c, 0, 64, 0
2, 22696, Control_c, 0, 64, 127
2, 22808, Note_on_c, 0, 69, 0
2, 22892, Note_on_c, 0, 66, 31
2, 22900, Note_on_c, 0, 62, 32
2, 22900, Note_on_c, 0, 69, 36
2, 22932, Note_on_c, 0, 76, 0
2, 23144, Note_on_c, 0, 62, 0
2, 23144, Note_on_c, 0, 69, 0
2, 23152, Note_on_c, 0, 66, 0
2, 23304, Note_on_c, 0, 74, 41
2, 23308, Note_on_c, 0, 62, 35
2, 23456, Note_on_c, 0, 62, 0
2, 23564, Note_on_c, 0, 54, 0
2, 23772, Note_on_c, 0, 62, 29
2, 23776, Note_on_c, 0, 66, 31
2, 23784, Note_on_c, 0, 54, 37
2, 23888, Note_on_c, 0, 74, 0
2, 23964, Note_on_c, 0, 54, 0
2, 24048, Note_on_c, 0, 66, 0
2, 24068, Note_on_c, 0, 62, 0
2, 25496, Note_on_c, 0, 62, 26
2, 25508, Note_on_c, 0, 54, 25
2, 25512, Note_on_c, 0, 57, 55
2, 25516, Note_on_c, 0, 59, 39
2, 25524, Note_on_c, 0, 43, 30
2, 25536, Note_on_c, 0, 50, 19
2, 25544, Control_c, 0, 64, 0
2, 25776, Control_c, 0, 64, 127
2, 26008, Note_on_c, 0, 54, 0
2, 26040, Note_on_c, 0, 57, 0
2, 26108, Note_on_c, 0, 59, 0
2, 26140, Note_on_c, 0, 62, 0
2, 26216, Note_on_c, 0, 43, 0
2, 26296, Note_on_c, 0, 50, 0
2, 27100, Note_on_c, 0, 86, 76
2, 27108, Note_on_c, 0, 50, 54
2, 27268, Note_on_c, 0, 86, 0
2, 27292, Note_on_c, 0, 50, 0
2, 27316, Note_on_c, 0, 52, 64
2, 27320, Note_on_c, 0, 88, 72
2, 27384, Note_on_c, 0, 52, 0
2, 27540, Note_on_c, 0, 88, 0
2, 27616, Note_on_c, 0, 54, 71
2, 27624, Note_on_c, 0, 90, 81
2, 27664, Control_c, 0, 64, 0
2, 27792, Control_c, 0, 64, 127
2, 27920, Note_on_c, 0, 90, 0
2, 27952, Note_on_c, 0, 54, 0
2, 27956, Note_on_c, 0, 47, 44
2, 28368, Note_on_c, 0, 66, 37
2, 28368, Note_on_c, 0, 62, 51
2, 28388, Note_on_c, 0, 54, 28
2, 28396, Note_on_c, 0, 59, 38
2, 28616, Note_on_c, 0, 59, 0
2, 28636, Note_on_c, 0, 54, 0
2, 28820, Note_on_c, 0, 54, 30
2, 28856, Note_on_c, 0, 54, 0
2, 28884, Note_on_c, 0, 47, 0
2, 29176, Note_on_c, 0, 62, 0
2, 29536, Note_on_c, 0, 66, 0
2, 29604, Note_on_c, 0, 62, 40
2, 29608, Note_on_c, 0, 57, 54
2, 29620, Note_on_c, 0, 30, 32
2, 29624, Control_c, 0, 64, 0
2, 29636, Note_on_c, 0, 42, 21
2, 29764, Control_c, 0, 64, 127
2, 29864, Note_on_c, 0, 30, 0
2, 29876, Note_on_c, 0, 57, 0
2, 29912, Note_on_c, 0, 42, 0
2, 30008, Note_on_c, 0, 62, 0
2, 30424, Note_on_c, 0, 62, 58
2, 30448, Note_on_c, 0, 54, 35
2, 30556, Note_on_c, 0, 62, 0
2, 30776, Note_on_c, 0, 66, 91
2, 30792, Note_on_c, 0, 59, 53
2, 31024, Note_on_c, 0, 66, 0
2, 31152, Note_on_c, 0, 59, 0
2, 31164, Note_on_c, 0, 71, 88
2, 31252, Note_on_c, 0, 54, 0
2, 31392, Note_on_c, 0, 71, 0
2, 31700, Note_on_c, 0, 69, 50
2, 31700, Note_on_c, 0, 62, 49
2, 31704, Note_on_c, 0, 66, 37
2, 31712, Note_on_c, 0, 43, 40
2, 31720, Note_on_c, 0, 57, 40
2, 31728, Note_on_c, 0, 59, 29
2, 31728, Note_on_c, 0, 54, 33
2, 31736, Control_c, 0, 64, 0
2, 31952, Control_c, 0, 64, 127
2, 32256, Note_on_c, 0, 57, 0
2, 32264, Note_on_c, 0, 59, 0
2, 32268, Note_on_c, 0, 50, 29
2, 32376, Note_on_c, 0, 54, 0
2, 32464, Note_on_c, 0, 62, 0
2, 32924, Note_on_c, 0, 62, 33
2, 32940, Note_on_c, 0, 59, 30
2, 32940, Note_on_c, 0, 57, 35
2, 32956, Note_on_c, 0, 54, 23
2, 33400, Note_on_c, 0, 43, 0
2, 33568, Note_on_c, 0, 43, 36
2, 33680, Note_on_c, 0, 50, 0
2, 33728, Note_on_c, 0, 54, 0
2, 33772, Note_on_c, 0, 57, 0
2, 33776, Note_on_c, 0, 43, 0
2, 33784, Note_on_c, 0, 62, 0
2, 33812, Note_on_c, 0, 59, 0
2, 34240, Note_on_c, 0, 61, 35
2, 34244, Note_on_c, 0, 57, 36
2, 34248, Note_on_c, 0, 42, 38
2, 34284, Control_c, 0, 64, 0
2, 34284, Note_on_c, 0, 52, 31
2, 34560, Control_c, 0, 64, 127
2, 34960, Note_on_c, 0, 57, 0
2, 35076, Note_on_c, 0, 69, 0
2, 35088, Note_on_c, 0, 57, 33
2, 35172, Note_on_c, 0, 61, 0
2, 35208, Note_on_c, 0, 66, 0
2, 35236, Note_on_c, 0, 57, 0
2, 35420, Note_on_c, 0, 62, 96
2, 35528, Note_on_c, 0, 62, 0
2, 35664, Note_on_c, 0, 52, 0
2, 35668, Note_on_c, 0, 64, 103
2, 35776, Note_on_c, 0, 42, 0
2, 35956, Note_on_c, 0, 64, 0
2, 36400, Note_on_c, 0, 66, 62
2, 36408, Note_on_c, 0, 59, 71
2, 36408, Note_on_c, 0, 62, 66
2, 36412, Note_on_c, 0, 55, 68
2, 36420, Note_on_c, 0, 40, 55
2, 36432, Control_c, 0, 64, 0
2, 36648, Control_c, 0, 64, 127
2, 36976, Note_on_c, 0, 66, 0
2, 37060, Note_on_c, 0, 55, 0
2, 37072, Note_on_c, 0, 40, 0
2, 37088, Note_on_c, 0, 66, 39
2, 37132, Note_on_c, 0, 59, 0
2, 37164, Note_on_c, 0, 62, 0
2, 37308, Note_on_c, 0, 66, 0
2, 38068, Note_on_c, 0, 66, 33
2, 38076, Note_on_c, 0, 60, 35
2, 38076, Note_on_c, 0, 64, 36
2, 38096, Note_on_c, 0, 56, 25
2, 38140, Control_c, 0, 64, 0
2, 38264, Control_c, 0, 64, 127
2, 38808, Note_on_c, 0, 62, 50
2, 38848, Note_on_c, 0, 64, 0
2, 38964, Note_on_c, 0, 56, 0
2, 39100, Note_on_c, 0, 66, 0
2, 39104, Note_on_c, 0, 62, 0
2, 39112, Note_on_c, 0, 60, 0
2, 39504, Note_on_c, 0, 64, 36
2, 39504, Note_on_c, 0, 62, 39
2, 39508, Note_on_c, 0, 57, 40
2, 39528, Note_on_c, 0, 45, 25
2, 39540, Control_c, 0, 64, 0
2, 39552, Note_on_c, 0, 52, 22
2, 39788, Control_c, 0, 64, 127
2, 40400, Note_on_c, 0, 62, 0
2, 40480, Note_on_c, 0, 61, 39
2, 40592, Note_on_c, 0, 52, 0
2, 40672, Note_on_c, 0, 45, 0
2, 40816, Note_on_c, 0, 64, 0
2, 40880, Note_on_c, 0, 61, 0
2, 40884, Note_on_c, 0, 57, 0
2, 41320, Note_on_c, 0, 62, 32
2, 41332, Note_on_c, 0, 55, 25
2, 41332, Note_on_c, 0, 57, 39
2, 41352, Note_on_c, 0, 38, 26
2, 41372, Note_on_c, 0, 26, 25
2, 41372, Control_c, 0, 64, 0
2, 41688, Control_c, 0, 64, 127
2, 41976, Note_on_c, 0, 55, 0
2, 42180, Note_on_c, 0, 55, 33
2, 42216, Note_on_c, 0, 57, 0
2, 42872, Note_on_c, 0, 55, 0
2, 43084, Note_on_c, 0, 54, 21
2, 43388, Note_on_c, 0, 54, 0
2, 43464, Note_on_c, 0, 62, 0
2, 43584, Note_on_c, 0, 26, 0
2, 43728, Note_on_c, 0, 38, 0
2, 43908, Note_on_c, 0, 69, 34
2, 44220, Note_on_c, 0, 69, 0
2, 44228, Note_on_c, 0, 74, 36
2, 44256, Note_on_c, 0, 54, 27
2, 44260, Control_c, 0, 64, 0
2, 44332, Control_c, 0, 64, 127
2, 44508, Note_on_c, 0, 74, 0
2, 44528, Note_on_c, 0, 62, 30
2, 44800, Note_on_c, 0, 74, 61
2, 44808, Note_on_c, 0, 81, 60
2, 44892, Note_on_c, 0, 62, 0
2, 45092, Note_on_c, 0, 62, 27
2, 45356, Note_on_c, 0, 81, 0
2, 45384, Note_on_c, 0, 62, 0
2, 45404, Note_on_c, 0, 78, 32
2, 45420, Note_on_c, 0, 69, 47
2, 45444, Note_on_c, 0, 62, 12
2, 45520, Note_on_c, 0, 74, 0
2, 45568, Note_on_c, 0, 54, 0
2, 45764, Note_on_c, 0, 54, 37
2, 45780, Note_on_c, 0, 78, 0
2, 45944, Note_on_c, 0, 62, 0
2, 45992, Note_on_c, 0, 69, 0
2, 46044, Note_on_c, 0, 54, 0
2, 46104, Note_on_c, 0, 66, 43
2, 46108, Note_on_c, 0, 74, 34
2, 46120, Note_on_c, 0, 62, 35
2, 46124, Note_on_c, 0, 54, 26
2, 46172, Note_on_c, 0, 62, 0
2, 46228, Note_on_c, 0, 54, 0
2, 46384, Note_on_c, 0, 62, 51
2, 46484, Note_on_c, 0, 74, 0
2, 46584, Note_on_c, 0, 62, 0
2, 46624, Note_on_c, 0, 66, 0
2, 46696, Note_on_c, 0, 66, 47
2, 46720, Note_on_c, 0, 62, 36
2, 46724, Note_on_c, 0, 43, 30
2, 46740, Control_c, 0, 64, 0
2, 46856, Control_c, 0, 64, 127
2, 46996, Note_on_c, 0, 43, 0
2, 47028, Note_on_c, 0, 55, 37
2, 47220, Note_on_c, 0, 62, 0
2, 47296, Note_on_c, 0, 55, 0
2, 47300, Note_on_c, 0, 66, 0
2, 47360, Note_on_c, 0, 59, 48
2, 48076, Note_on_c, 0, 76, 54
2, 48104, Note_on_c, 0, 67, 64
2, 48204, Note_on_c, 0, 67, 0
2, 48220, Note_on_c, 0, 76, 0
2, 48476, Note_on_c, 0, 78, 75
2, 48492, Note_on_c, 0, 69, 72
2, 48660, Note_on_c, 0, 78, 0
2, 48672, Note_on_c, 0, 69, 0
2, 48732, Note_on_c, 0, 59, 0
2, 48852, Note_on_c, 0, 79, 53
2, 48868, Note_on_c, 0, 71, 60
2, 48872, Note_on_c, 0, 59, 34
2, 48924, Note_on_c, 0, 59, 0
2, 48984, Note_on_c, 0, 79, 0
2, 49000, Note_on_c, 0, 71, 0
2, 49268, Note_on_c, 0, 83, 68
2, 49280, Control_c, 0, 64, 0
2, 49288, Note_on_c, 0, 74, 77
2, 49292, Note_on_c, 0, 45, 55
2, 49404, Control_c, 0, 64, 127
2, 49492, Note_on_c, 0, 83, 0
2, 49592, Note_on_c, 0, 74, 0
2, 49668, Note_on_c, 0, 81, 66
2, 49684, Note_on_c, 0, 52, 28
2, 49924, Note_on_c, 0, 45, 0
2, 49964, Note_on_c, 0, 52, 0
2, 50024, Note_on_c, 0, 57, 60
2, 50360, Note_on_c, 0, 61, 62
2, 50392, Note_on_c, 0, 57, 0
2, 50940, Note_on_c, 0, 61, 0
2, 51084, Note_on_c, 0, 61, 59
2, 51432, Note_on_c, 0, 81, 0
2, 51432, Note_on_c, 0, 74, 50
2, 51432, Note_on_c, 0, 64, 52
2, 51440, Note_on_c, 0, 71, 44
2, 51672, Note_on_c, 0, 64, 0
2, 51744, Note_on_c, 0, 61, 0
2, 51780, Note_on_c, 0, 79, 74
2, 52056, Note_on_c, 0, 79, 0
2, 52100, Note_on_c, 0, 71, 0
2, 52116, Note_on_c, 0, 74, 0
2, 52124, Note_on_c, 0, 78, 68
2, 52140, Note_on_c, 0, 47, 45
2, 52152, Control_c, 0, 64, 0
2, 52308, Control_c, 0, 64, 127
2, 52432, Note_on_c, 0, 47, 0
2, 52460, Note_on_c, 0, 57, 54
2, 52480, Note_on_c, 0, 69, 44
2, 52832, Note_on_c, 0, 57, 0
2, 52836, Note_on_c, 0, 59, 40
2, 53196, Note_on_c, 0, 61, 29
2, 53292, Note_on_c, 0, 59, 0
2, 53308, Note_on_c, 0, 78, 0
2, 53312, Note_on_c, 0, 61, 0
2, 53412, Note_on_c, 0, 69, 0
2, 53640, Note_on_c, 0, 76, 24
2, 53640, Note_on_c, 0, 69, 33
2, 53648, Note_on_c, 0, 73, 31
2, 53648, Note_on_c, 0, 66, 25
2, 53660, Note_on_c, 0, 64, 32
2, 53668, Note_on_c, 0, 62, 30
2, 54512, Note_on_c, 0, 76, 0
2, 54528, Note_on_c, 0, 73, 0
2, 54632, Note_on_c, 0, 66, 0
2, 54636, Note_on_c, 0, 69, 0
2, 54928, Note_on_c, 0, 64, 0
2, 54976, Note_on_c, 0, 62, 0
2, 55148, Note_on_c, 0, 74, 66
2, 55244, Note_on_c, 0, 74, 0
2, 55284, Note_on_c, 0, 73, 52
2, 55424, Note_on_c, 0, 73, 0
2, 55448, Note_on_c, 0, 71, 48
2, 55460, Note_on_c, 0, 43, 38
2, 55464, Control_c, 0, 64, 0
2, 55592, Control_c, 0, 64, 127
2, 55632, Note_on_c, 0, 43, 0
2, 57236, Note_on_c, 0, 62, 35
2, 57244, Note_on_c, 0, 66, 27
2, 57264, Note_on_c, 0, 55, 31
2, 57384, Note_on_c, 0, 55, 0
2, 57472, Note_on_c, 0, 66, 0
2, 57480, Note_on_c, 0, 62, 0
2, 57632, Note_on_c, 0, 62, 37
2, 57640, Note_on_c, 0, 66, 30
2, 57976, Note_on_c, 0, 66, 0
2, 58004, Note_on_c, 0, 71, 0
2, 58024, Note_on_c, 0, 62, 0
2, 58348, Note_on_c, 0, 59, 33
2, 58356, Note_on_c, 0, 62, 35
2, 58360, Note_on_c, 0, 64, 35
2, 58372, Note_on_c, 0, 55, 28
2, 58380, Note_on_c, 0, 52, 24
2, 58388, Note_on_c, 0, 45, 34
2, 58396, Control_c, 0, 64, 0
2, 58544, Control_c, 0, 64, 127
2, 58856, Note_on_c, 0, 55, 0
2, 58964, Note_on_c, 0, 59, 0
2, 59020, Note_on_c, 0, 62, 0
2, 59056, Note_on_c, 0, 64, 0
2, 59140, Note_on_c, 0, 69, 82
2, 59296, Note_on_c, 0, 52, 0
2, 59304, Note_on_c, 0, 69, 0
2, 59828, Note_on_c, 0, 71, 45
2, 59840, Note_on_c, 0, 64, 50
2, 59840, Note_on_c, 0, 62, 44
2, 59844, Note_on_c, 0, 67, 40
2, 59856, Note_on_c, 0, 55, 39
2, 59868, Control_c, 0, 64, 0
2, 60036, Control_c, 0, 64, 127
2, 60228, Note_on_c, 0, 45, 0
2, 60536, Note_on_c, 0, 67, 0
2, 60540, Note_on_c, 0, 71, 0
2, 60596, Note_on_c, 0, 64, 0
2, 60700, Note_on_c, 0, 55, 0
2, 60732, Note_on_c, 0, 62, 0
2, 60888, Note_on_c, 0, 69, 57
2, 61068, Note_on_c, 0, 69, 0
2, 61216, Note_on_c, 0, 66, 42
2, 61220, Control_c, 0, 64, 0
2, 61228, Note_on_c, 0, 42, 37
2, 61232, Note_on_c, 0, 62, 41
2, 61236, Note_on_c, 0, 57, 51
2, 61276, Note_on_c, 0, 57, 0
2, 61300, Control_c, 0, 64, 127
2, 61316, Note_on_c, 0, 62, 0
2, 61368, Note_on_c, 0, 66, 0
2, 61536, Note_on_c, 0, 74, 71
2, 61540, Note_on_c, 0, 81, 79
2, 61556, Note_on_c, 0, 50, 40
2, 61564, Note_on_c, 0, 42, 0
2, 61596, Note_on_c, 0, 50, 0
2, 61796, Note_on_c, 0, 81, 0
2, 61796, Note_on_c, 0, 74, 0
2, 61856, Note_on_c, 0, 78, 59
2, 61864, Note_on_c, 0, 69, 66
2, 61888, Note_on_c, 0, 54, 29
2, 62036, Note_on_c, 0, 78, 0
2, 62192, Note_on_c, 0, 62, 35
2, 62344, Note_on_c, 0, 69, 0
2, 62504, Note_on_c, 0, 66, 42
2, 62520, Note_on_c, 0, 74, 26
2, 62572, Note_on_c, 0, 66, 0
2, 62608, Note_on_c, 0, 74, 0
2, 62644, Note_on_c, 0, 62, 0
2, 62900, Note_on_c, 0, 81, 75
2, 62900, Note_on_c, 0, 74, 75
2, 63116, Note_on_c, 0, 81, 0
2, 63160, Note_on_c, 0, 74, 0
2, 63224, Note_on_c, 0, 78, 48
2, 63224, Note_on_c, 0, 62, 37
2, 63232, Note_on_c, 0, 74, 37
2, 63236, Note_on_c, 0, 69, 51
2, 63300, Note_on_c, 0, 69, 0
2, 63312, Note_on_c, 0, 74, 0
2, 63340, Note_on_c, 0, 78, 0
2, 63492, Note_on_c, 0, 62, 0
2, 63568, Note_on_c, 0, 54, 0
2, 63568, Note_on_c, 0, 86, 81
2, 63656, Note_on_c, 0, 86, 0
2, 63912, Note_on_c, 0, 81, 60
2, 63920, Note_on_c, 0, 74, 40
2, 63924, Control_c, 0, 64, 0
2, 63928, Note_on_c, 0, 47, 51
2, 64024, Control_c, 0, 64, 127
2, 64240, Note_on_c, 0, 47, 0
2, 64248, Note_on_c, 0, 57, 54
2, 64276, Note_on_c, 0, 57, 0
2, 64312, Note_on_c, 0, 74, 0
2, 64600, Note_on_c, 0, 73, 69
2, 64604, Note_on_c, 0, 76, 53
2, 64612, Note_on_c, 0, 64, 64
2, 64616, Note_on_c, 0, 69, 74
2, 64616, Note_on_c, 0, 66, 50
2, 64636, Note_on_c, 0, 62, 30
2, 64872, Note_on_c, 0, 62, 0
2, 64892, Note_on_c, 0, 66, 0
2, 64896, Note_on_c, 0, 64, 0
2, 65032, Note_on_c, 0, 66, 26
2, 65044, Note_on_c, 0, 69, 0
2, 65108, Note_on_c, 0, 73, 0
2, 65144, Note_on_c, 0, 76, 0
2, 65152, Note_on_c, 0, 66, 0
2, 65764, Note_on_c, 0, 66, 27
2, 65776, Note_on_c, 0, 69, 41
2, 65780, Note_on_c, 0, 73, 27
2, 65784, Note_on_c, 0, 76, 24
2, 65788, Note_on_c, 0, 62, 25
2, 65792, Note_on_c, 0, 64, 27
2, 65984, Note_on_c, 0, 66, 0
2, 66084, Note_on_c, 0, 69, 0
2, 66096, Note_on_c, 0, 62, 0
2, 66128, Note_on_c, 0, 64, 0
2, 66164, Note_on_c, 0, 81, 0
2, 66248, Note_on_c, 0, 73, 0
2, 66256, Note_on_c, 0, 76, 0
2, 66500, Note_on_c, 0, 81, 72
2, 66508, Note_on_c, 0, 76, 64
2, 66516, Note_on_c, 0, 66, 59
2, 66516, Note_on_c, 0, 73, 72
2, 66524, Note_on_c, 0, 69, 88
2, 66524, Note_on_c, 0, 62, 51
2, 66532, Note_on_c, 0, 79, 34
2, 66532, Note_on_c, 0, 64, 55
2, 66568, Note_on_c, 0, 64, 0
2, 66576, Note_on_c, 0, 66, 0
2, 66620, Note_on_c, 0, 62, 0
2, 66648, Note_on_c, 0, 69, 0
2, 66672, Note_on_c, 0, 73, 0
2, 66680, Note_on_c, 0, 76, 0
2, 66692, Note_on_c, 0, 79, 0
2, 66700, Note_on_c, 0, 81, 0
2, 66904, Note_on_c, 0, 83, 78
2, 66916, Note_on_c, 0, 55, 57
2, 66916, Note_on_c, 0, 78, 77
2, 66924, Note_on_c, 0, 76, 66
2, 66928, Note_on_c, 0, 66, 46
2, 66928, Note_on_c, 0, 71, 77
2, 66944, Control_c, 0, 64, 0
2, 67104, Control_c, 0, 64, 127
2, 67228, Note_on_c, 0, 83, 0
2, 67236, Note_on_c, 0, 76, 0
2, 67248, Note_on_c, 0, 62, 47
2, 67256, Note_on_c, 0, 78, 0
2, 67264, Note_on_c, 0, 66, 0
2, 67308, Note_on_c, 0, 71, 0
2, 67520, Note_on_c, 0, 66, 46
2, 67540, Note_on_c, 0, 74, 51
2, 67544, Note_on_c, 0, 71, 55
2, 67548, Note_on_c, 0, 69, 63
2, 67556, Note_on_c, 0, 55, 0
2, 67560, Note_on_c, 0, 66, 0
2, 67572, Note_on_c, 0, 62, 0
2, 67652, Note_on_c, 0, 74, 0
2, 67664, Note_on_c, 0, 71, 0
2, 67716, Note_on_c, 0, 69, 0
2, 67816, Note_on_c, 0, 50, 65
2, 68076, Note_on_c, 0, 50, 0
2, 68120, Note_on_c, 0, 50, 25
2, 68120, Note_on_c, 0, 66, 52
2, 68128, Note_on_c, 0, 62, 67
2, 68128, Note_on_c, 0, 59, 73
2, 68140, Note_on_c, 0, 57, 83
2, 68532, Note_on_c, 0, 43, 61
2, 68576, Note_on_c, 0, 57, 0
2, 68644, Note_on_c, 0, 62, 0
2, 68696, Note_on_c, 0, 59, 0
2, 68832, Note_on_c, 0, 66, 0
2, 68888, Note_on_c, 0, 62, 42
2, 68888, Note_on_c, 0, 54, 49
2, 68896, Note_on_c, 0, 59, 49
2, 68948, Note_on_c, 0, 50, 0
2, 68996, Note_on_c, 0, 43, 0
2, 69264, Note_on_c, 0, 42, 87
2, 69268, Note_on_c, 0, 30, 78
2, 69284, Control_c, 0, 64, 0
2, 69368, Control_c, 0, 64, 127
2, 69428, Note_on_c, 0, 54, 0
2, 69472, Note_on_c, 0, 42, 0
2, 69472, Note_on_c, 0, 30, 0
2, 69480, Note_on_c, 0, 59, 0
2, 69484, Note_on_c, 0, 62, 0
2, 69688, Note_on_c, 0, 40, 76
2, 69688, Note_on_c, 0, 66, 62
2, 69692, Note_on_c, 0, 59, 71
2, 69692, Note_on_c, 0, 28, 69
2, 69696, Note_on_c, 0, 55, 69
2, 69696, Note_on_c, 0, 62, 65
2, 69724, Control_c, 0, 64, 0
2, 69908, Control_c, 0, 64, 127
2, 70152, Note_on_c, 0, 55, 0
2, 70216, Note_on_c, 0, 28, 0
2, 70236, Note_on_c, 0, 59, 0
2, 70256, Note_on_c, 0, 62, 0
2, 70292, Note_on_c, 0, 40, 0
2, 70324, Note_on_c, 0, 66, 0
2, 70828, Note_on_c, 0, 78, 95
2, 70832, Note_on_c, 0, 54, 90
2, 71024, Note_on_c, 0, 78, 0
2, 71132, Note_on_c, 0, 54, 0
2, 71136, Note_on_c, 0, 81, 101
2, 71140, Note_on_c, 0, 57, 105
2, 71392, Note_on_c, 0, 81, 0
2, 71456, Note_on_c, 0, 78, 78
2, 71460, Note_on_c, 0, 54, 74
2, 71492, Note_on_c, 0, 79, 31
2, 71520, Note_on_c, 0, 79, 0
2, 71528, Note_on_c, 0, 57, 0
2, 71636, Note_on_c, 0, 78, 0
2, 71640, Note_on_c, 0, 54, 0
2, 72108, Note_on_c, 0, 76, 49
2, 72120, Note_on_c, 0, 64, 63
2, 72124, Note_on_c, 0, 69, 59
2, 72132, Note_on_c, 0, 42, 60
2, 72140, Note_on_c, 0, 52, 53
2, 72148, Control_c, 0, 64, 0
2, 72296, Control_c, 0, 64, 127
2, 72320, Note_on_c, 0, 42, 0
2, 72368, Note_on_c, 0, 52, 0
2, 72700, Note_on_c, 0, 54, 42
2, 72760, Note_on_c, 0, 64, 0
2, 72844, Note_on_c, 0, 69, 0
2, 73140, Note_on_c, 0, 64, 38
2, 73148, Note_on_c, 0, 61, 30
2, 73156, Note_on_c, 0, 69, 33
2, 73504, Note_on_c, 0, 76, 0
2, 73576, Note_on_c, 0, 61, 0
2, 73640, Note_on_c, 0, 76, 33
2, 73848, Note_on_c, 0, 69, 0
2, 73860, Note_on_c, 0, 54, 0
2, 73876, Note_on_c, 0, 64, 0
2, 73972, Note_on_c, 0, 76, 0
2, 74108, Note_on_c, 0, 76, 24
2, 74116, Note_on_c, 0, 64, 33
2, 74124, Note_on_c, 0, 69, 35
2, 74128, Note_on_c, 0, 54, 32
2, 74136, Note_on_c, 0, 61, 21
2, 74188, Control_c, 0, 64, 0
2, 74244, Control_c, 0, 64, 127
2, 74476, Note_on_c, 0, 76, 0
2, 74612, Note_on_c, 0, 74, 33
2, 74820, Note_on_c, 0, 64, 0
2, 74848, Note_on_c, 0, 74, 0
2, 75048, Note_on_c, 0, 69, 0
2, 75156, Note_on_c, 0, 74, 36
2, 75176, Note_on_c, 0, 66, 29
2, 75184, Note_on_c, 0, 69, 30
2, 75208, Note_on_c, 0, 62, 20
2, 75304, Note_on_c, 0, 61, 0
2, 75452, Note_on_c, 0, 74, 0
2, 75496, Note_on_c, 0, 54, 0
2, 75532, Note_on_c, 0, 74, 41
2, 75568, Note_on_c, 0, 54, 33
2, 75748, Note_on_c, 0, 54, 0
2, 75804, Note_on_c, 0, 74, 0
2, 75820, Note_on_c, 0, 69, 0
2, 75840, Note_on_c, 0, 66, 0
2, 75916, Note_on_c, 0, 62, 0
2, 75980, Note_on_c, 0, 74, 38
2, 75984, Note_on_c, 0, 66, 28
2, 75984, Note_on_c, 0, 71, 36
2, 76008, Note_on_c, 0, 55, 25
2, 76012, Control_c, 0, 64, 0
2, 76160, Control_c, 0, 64, 127
2, 76376, Note_on_c, 0, 62, 30
2, 76412, Note_on_c, 0, 66, 0
2, 76452, Note_on_c, 0, 71, 0
2, 76708, Note_on_c, 0, 74, 0
2, 76748, Note_on_c, 0, 69, 41
2, 76764, Note_on_c, 0, 71, 31
2, 76776, Note_on_c, 0, 66, 17
2, 76868, Note_on_c, 0, 69, 0
2, 76892, Note_on_c, 0, 71, 0
2, 77040, Note_on_c, 0, 62, 0
2, 77176, Note_on_c, 0, 90, 49
2, 77188, Note_on_c, 0, 78, 34
2, 77208, Note_on_c, 0, 62, 26
2, 77248, Note_on_c, 0, 78, 0
2, 77316, Note_on_c, 0, 90, 0
2, 77656, Note_on_c, 0, 62, 0
2, 77684, Note_on_c, 0, 100, 46
2, 77708, Note_on_c, 0, 88, 29
2, 77720, Note_on_c, 0, 62, 13
2, 78480, Note_on_c, 0, 100, 0
2, 78596, Note_on_c, 0, 66, 0
2, 78736, Note_on_c, 0, 62, 0
2, 78752, Note_on_c, 0, 88, 0
2, 78776, Note_on_c, 0, 55, 0
2, 79552, Note_on_c, 0, 86, 37
2, 79620, Note_on_c, 0, 86, 0
2, 79696, Note_on_c, 0, 88, 55
2, 79704, Note_on_c, 0, 52, 35
2, 79800, Note_on_c, 0, 52, 0
2, 79804, Note_on_c, 0, 88, 0
2, 79856, Note_on_c, 0, 54, 77
2, 79860, Note_on_c, 0, 90, 73
2, 79884, Control_c, 0, 64, 0
2, 79972, Control_c, 0, 64, 127
2, 80072, Note_on_c, 0, 90, 0
2, 80324, Note_on_c, 0, 54, 0
2, 80500, Note_on_c, 0, 47, 14
2, 80552, Note_on_c, 0, 47, 0
2, 80984, Note_on_c, 0, 76, 24
2, 80992, Note_on_c, 0, 73, 33
2, 80996, Note_on_c, 0, 69, 27
2, 81004, Note_on_c, 0, 66, 30
2, 81008, Note_on_c, 0, 64, 41
2, 81024, Note_on_c, 0, 62, 28
2, 81728, Note_on_c, 0, 66, 0
2, 81736, Note_on_c, 0, 64, 0
2, 81776, Note_on_c, 0, 62, 0
2, 81896, Note_on_c, 0, 76, 0
2, 81900, Note_on_c, 0, 69, 0
2, 81920, Note_on_c, 0, 73, 0
2, 82436, Note_on_c, 0, 57, 44
2, 82448, Note_on_c, 0, 42, 38
2, 82452, Note_on_c, 0, 61, 34
2, 82488, Control_c, 0, 64, 0
2, 82492, Note_on_c, 0, 52, 20
2, 82712, Control_c, 0, 64, 127
2, 82976, Note_on_c, 0, 57, 0
2, 83024, Note_on_c, 0, 42, 0
2, 83072, Note_on_c, 0, 61, 0
2, 83344, Note_on_c, 0, 52, 0
2, 83376, Note_on_c, 0, 50, 37
2, 83380, Note_on_c, 0, 62, 65
2, 83488, Note_on_c, 0, 62, 0
2, 83700, Note_on_c, 0, 66, 87
2, 83700, Note_on_c, 0, 54, 67
2, 83924, Note_on_c, 0, 66, 0
2, 84016, Note_on_c, 0, 71, 85
2, 84024, Note_on_c, 0, 50, 0
2, 84040, Note_on_c, 0, 59, 51
2, 84136, Note_on_c, 0, 59, 0
2, 84172, Note_on_c, 0, 54, 0
2, 84196, Note_on_c, 0, 71, 0
2, 84716, Note_on_c, 0, 62, 51
2, 84720, Note_on_c, 0, 69, 44
2, 84724, Note_on_c, 0, 66, 39
2, 84724, Note_on_c, 0, 59, 42
2, 84728, Note_on_c, 0, 57, 52
2, 84732, Note_on_c, 0, 54, 35
2, 84736, Control_c, 0, 64, 0
2, 84744, Note_on_c, 0, 43, 32
2, 84748, Note_on_c, 0, 50, 35
2, 85036, Control_c, 0, 64, 127
2, 85152, Note_on_c, 0, 57, 0
2, 85164, Note_on_c, 0, 59, 0
2, 85164, Note_on_c, 0, 43, 0
2, 85176, Note_on_c, 0, 62, 0
2, 85184, Note_on_c, 0, 69, 0
2, 85184, Note_on_c, 0, 50, 0
2, 85192, Note_on_c, 0, 54, 0
2, 85212, Note_on_c, 0, 66, 0
2, 85404, Note_on_c, 0, 66, 19
2, 85412, Note_on_c, 0, 69, 30
2, 85412, Note_on_c, 0, 62, 41
2, 85420, Note_on_c, 0, 43, 27
2, 85420, Note_on_c, 0, 57, 42
2, 85420, Note_on_c, 0, 59, 32
2, 85420, Note_on_c, 0, 54, 19
2, 85440, Note_on_c, 0, 50, 38
2, 85636, Note_on_c, 0, 43, 0
2, 85648, Note_on_c, 0, 50, 0
2, 85676, Note_on_c, 0, 57, 0
2, 85684, Note_on_c, 0, 59, 0
2, 85704, Note_on_c, 0, 54, 0
2, 85712, Note_on_c, 0, 62, 0
2, 85748, Note_on_c, 0, 66, 0
2, 85764, Note_on_c, 0, 69, 0
2, 85976, Note_on_c, 0, 69, 22
2, 85984, Note_on_c, 0, 62, 32
2, 85988, Note_on_c, 0, 43, 24
2, 85992, Note_on_c, 0, 66, 21
2, 85996, Note_on_c, 0, 57, 32
2, 86000, Note_on_c, 0, 59, 25
2, 86000, Note_on_c, 0, 54, 15
2, 86008, Note_on_c, 0, 50, 30
2, 86364, Note_on_c, 0, 43, 0
2, 86532, Note_on_c, 0, 43, 43
2, 86704, Note_on_c, 0, 50, 0
2, 86772, Note_on_c, 0, 54, 0
2, 86792, Note_on_c, 0, 57, 0
2, 86804, Note_on_c, 0, 43, 0
2, 86808, Note_on_c, 0, 59, 0
2, 86824, Note_on_c, 0, 62, 0
2, 87212, Note_on_c, 0, 57, 53
2, 87212, Note_on_c, 0, 42, 37
2, 87216, Note_on_c, 0, 61, 36
2, 87224, Control_c, 0, 64, 0
2, 87340, Control_c, 0, 64, 127
2, 87416, Note_on_c, 0, 57, 0
2, 87532, Note_on_c, 0, 61, 0
2, 87536, Note_on_c, 0, 66, 0
2, 87588, Note_on_c, 0, 69, 0
2, 87588, Note_on_c, 0, 52, 35
2, 87608, Note_on_c, 0, 42, 0
2, 87636, Note_on_c, 0, 52, 0
2, 87960, Note_on_c, 0, 74, 79
2, 87980, Note_on_c, 0, 64, 44
2, 88300, Note_on_c, 0, 74, 0
2, 88312, Note_on_c, 0, 76, 62
2, 88328, Note_on_c, 0, 54, 35
2, 88420, Note_on_c, 0, 76, 0
2, 88432, Note_on_c, 0, 64, 0
2, 88448, Note_on_c, 0, 54, 0
2, 88692, Note_on_c, 0, 52, 46
2, 88700, Note_on_c, 0, 78, 58
2, 88708, Note_on_c, 0, 71, 51
2, 88728, Control_c, 0, 64, 0
2, 88896, Control_c, 0, 64, 127
2, 89072, Note_on_c, 0, 59, 32
2, 89228, Note_on_c, 0, 71, 0
2, 89484, Note_on_c, 0, 59, 0
2, 89520, Note_on_c, 0, 62, 32
2, 89528, Note_on_c, 0, 68, 35
2, 89536, Note_on_c, 0, 56, 26
2, 89540, Note_on_c, 0, 78, 0
2, 89932, Note_on_c, 0, 74, 35
2, 89960, Note_on_c, 0, 59, 17
2, 90032, Note_on_c, 0, 59, 0
2, 90040, Note_on_c, 0, 62, 0
2, 90072, Note_on_c, 0, 52, 0
2, 90104, Note_on_c, 0, 56, 0
2, 90160, Note_on_c, 0, 68, 0
2, 90212, Note_on_c, 0, 74, 0
2, 90528, Note_on_c, 0, 74, 26
2, 90536, Note_on_c, 0, 76, 26
2, 90536, Note_on_c, 0, 69, 35
2, 90552, Note_on_c, 0, 55, 26
2, 90556, Note_on_c, 0, 45, 33
2, 90580, Control_c, 0, 64, 0
2, 90768, Control_c, 0, 64, 127
2, 90980, Note_on_c, 0, 69, 0
2, 91124, Note_on_c, 0, 67, 42
2, 91260, Note_on_c, 0, 45, 0
2, 91384, Note_on_c, 0, 76, 0
2, 91412, Note_on_c, 0, 74, 0
2, 91480, Note_on_c, 0, 55, 0
2, 91508, Note_on_c, 0, 67, 0
2, 91708, Note_on_c, 0, 67, 40
2, 91712, Note_on_c, 0, 69, 42
2, 91724, Note_on_c, 0, 74, 24
2, 91728, Note_on_c, 0, 57, 34
2, 91728, Note_on_c, 0, 50, 33
2, 91744, Control_c, 0, 64, 0
2, 91920, Control_c, 0, 64, 127
2, 91940, Note_on_c, 0, 57, 0
2, 92156, Note_on_c, 0, 57, 39
2, 92228, Note_on_c, 0, 67, 0
2, 92460, Note_on_c, 0, 69, 0
2, 92628, Note_on_c, 0, 66, 37
2, 92636, Note_on_c, 0, 62, 35
2, 92680, Note_on_c, 0, 57, 0
2, 92768, Note_on_c, 0, 66, 0
2, 92872, Note_on_c, 0, 74, 0
2, 93100, Note_on_c, 0, 57, 58
2, 93380, Note_on_c, 0, 50, 0
2, 93436, Note_on_c, 0, 86, 85
2, 93436, Note_on_c, 0, 74, 85
2, 93656, Note_on_c, 0, 86, 0
2, 93712, Note_on_c, 0, 62, 0
2, 93724, Note_on_c, 0, 74, 0
2, 93740, Note_on_c, 0, 85, 84
2, 93748, Note_on_c, 0, 74, 33
2, 93748, Note_on_c, 0, 50, 40
2, 93780, Note_on_c, 0, 57, 0
2, 93856, Note_on_c, 0, 50, 0
2, 93904, Note_on_c, 0, 85, 0
2, 94580, Note_on_c, 0, 74, 0
2, 94584, Note_on_c, 0, 83, 68
2, 94608, Control_c, 0, 64, 0
2, 94612, Note_on_c, 0, 43, 44
2, 94716, Control_c, 0, 64, 127
2, 94832, Note_on_c, 0, 83, 0
2, 94928, Note_on_c, 0, 50, 35
2, 95176, Note_on_c, 0, 43, 0
2, 95204, Note_on_c, 0, 50, 0
2, 95220, Note_on_c, 0, 66, 28
2, 95220, Note_on_c, 0, 59, 39
2, 95236, Note_on_c, 0, 55, 44
2, 95236, Note_on_c, 0, 64, 36
2, 95324, Note_on_c, 0, 59, 0
2, 95400, Note_on_c, 0, 64, 0
2, 95440, Note_on_c, 0, 66, 0
2, 95500, Note_on_c, 0, 59, 62
2, 95520, Note_on_c, 0, 55, 0
2, 95964, Note_on_c, 0, 66, 48
2, 95964, Note_on_c, 0, 83, 49
2, 95972, Note_on_c, 0, 76, 28
2, 95992, Note_on_c, 0, 78, 33
2, 96324, Note_on_c, 0, 76, 0
2, 96340, Note_on_c, 0, 66, 0
2, 96616, Note_on_c, 0, 78, 0
2, 96652, Note_on_c, 0, 83, 0
2, 96676, Note_on_c, 0, 81, 46
2, 96700, Note_on_c, 0, 64, 38
2, 96968, Note_on_c, 0, 59, 0
2, 97076, Note_on_c, 0, 81, 0
2, 97196, Note_on_c, 0, 64, 0
2, 97364, Note_on_c, 0, 83, 50
2, 97376, Note_on_c, 0, 76, 24
2, 97384, Note_on_c, 0, 57, 38
2, 97400, Note_on_c, 0, 74, 14
2, 97428, Control_c, 0, 64, 0
2, 97456, Note_on_c, 0, 67, 18
2, 97480, Control_c, 0, 64, 127
2, 97684, Note_on_c, 0, 83, 0
2, 97716, Note_on_c, 0, 67, 0
2, 97716, Note_on_c, 0, 81, 64
2, 97728, Note_on_c, 0, 64, 30
2, 97776, Note_on_c, 0, 76, 0
2, 97792, Note_on_c, 0, 64, 0
2, 97796, Note_on_c, 0, 57, 0
2, 97840, Note_on_c, 0, 74, 0
2, 97880, Note_on_c, 0, 81, 0
2, 98056, Note_on_c, 0, 78, 45
2, 98072, Note_on_c, 0, 69, 47
2, 98076, Note_on_c, 0, 54, 50
2, 98076, Note_on_c, 0, 74, 44
2, 98120, Control_c, 0, 64, 0
2, 98296, Control_c, 0, 64, 127
2, 98396, Note_on_c, 0, 69, 0
2, 98424, Note_on_c, 0, 81, 66
2, 98436, Note_on_c, 0, 62, 42
2, 98464, Note_on_c, 0, 74, 0
2, 98492, Note_on_c, 0, 78, 0
2, 98500, Note_on_c, 0, 81, 0
2, 98500, Note_on_c, 0, 69, 24
2, 98540, Note_on_c, 0, 69, 0
2, 98600, Note_on_c, 0, 62, 0
2, 98796, Note_on_c, 0, 74, 65
2, 98796, Note_on_c, 0, 66, 59
2, 98800, Note_on_c, 0, 62, 38
2, 98892, Note_on_c, 0, 54, 0
2, 98916, Note_on_c, 0, 62, 0
2, 99040, Note_on_c, 0, 66, 0
2, 99192, Note_on_c, 0, 54, 39
2, 99216, Note_on_c, 0, 66, 52
2, 99224, Note_on_c, 0, 62, 48
2, 99312, Note_on_c, 0, 54, 0
2, 99340, Note_on_c, 0, 74, 0
2, 99412, Note_on_c, 0, 66, 0
2, 99420, Note_on_c, 0, 62, 0
2, 99696, Note_on_c, 0, 62, 39
2, 99696, Note_on_c, 0, 66, 37
2, 99704, Note_on_c, 0, 57, 43
2, 99712, Note_on_c, 0, 47, 51
2, 99744, Control_c, 0, 64, 0
2, 99884, Control_c, 0, 64, 127
2, 100040, Note_on_c, 0, 57, 0
2, 100076, Note_on_c, 0, 54, 73
2, 100108, Note_on_c, 0, 62, 0
2, 100340, Note_on_c, 0, 66, 0
2, 100436, Note_on_c, 0, 62, 80
2, 100448, Note_on_c, 0, 59, 57
2, 100584, Note_on_c, 0, 47, 0
2, 100616, Note_on_c, 0, 59, 0
2, 100664, Note_on_c, 0, 62, 0
2, 100808, Note_on_c, 0, 47, 59
2, 100808, Note_on_c, 0, 69, 101
2, 100912, Note_on_c, 0, 54, 0
2, 100936, Note_on_c, 0, 47, 0
2, 100988, Note_on_c, 0, 69, 0
2, 101316, Note_on_c, 0, 71, 74
2, 101324, Note_on_c, 0, 64, 85
2, 101332, Note_on_c, 0, 59, 76
2, 101336, Note_on_c, 0, 43, 68
2, 101392, Control_c, 0, 64, 0
2, 101628, Control_c, 0, 64, 127
2, 101716, Note_on_c, 0, 71, 0
2, 101796, Note_on_c, 0, 71, 61
2, 101804, Note_on_c, 0, 50, 44
2, 102116, Note_on_c, 0, 64, 0
2, 102116, Note_on_c, 0, 59, 0
2, 102184, Note_on_c, 0, 71, 0
2, 102296, Note_on_c, 0, 71, 35
2, 102300, Note_on_c, 0, 66, 33
2, 102304, Note_on_c, 0, 59, 45
2, 102308, Note_on_c, 0, 64, 46
2, 102328, Note_on_c, 0, 55, 32
2, 102380, Control_c, 0, 64, 0
2, 102492, Control_c, 0, 64, 127
2, 102640, Note_on_c, 0, 50, 0
2, 102676, Note_on_c, 0, 64, 0
2, 102716, Note_on_c, 0, 59, 0
2, 102888, Note_on_c, 0, 50, 32
2, 102912, Note_on_c, 0, 55, 0
2, 102976, Note_on_c, 0, 50, 0
2, 103008, Note_on_c, 0, 43, 0
2, 103036, Note_on_c, 0, 71, 0
2, 103128, Note_on_c, 0, 66, 0
2, 103612, Note_on_c, 0, 40, 40
2, 103628, Note_on_c, 0, 66, 25
2, 103628, Note_on_c, 0, 62, 31
2, 103628, Note_on_c, 0, 69, 26
2, 103636, Note_on_c, 0, 57, 35
2, 103652, Note_on_c, 0, 47, 24
2, 103660, Note_on_c, 0, 55, 22
2, 103664, Control_c, 0, 64, 0
2, 103948, Control_c, 0, 64, 127
2, 104280, Note_on_c, 0, 57, 0
2, 104344, Note_on_c, 0, 62, 0
2, 104352, Note_on_c, 0, 40, 0
2, 104384, Note_on_c, 0, 47, 0
2, 104416, Note_on_c, 0, 55, 0
2, 104440, Note_on_c, 0, 66, 0
2, 104468, Note_on_c, 0, 69, 0
2, 104872, Note_on_c, 0, 78, 51
2, 104880, Note_on_c, 0, 54, 43
2, 104944, Note_on_c, 0, 78, 0
2, 105044, Note_on_c, 0, 54, 0
2, 105072, Note_on_c, 0, 57, 82
2, 105076, Note_on_c, 0, 81, 85
2, 105208, Note_on_c, 0, 81, 0
2, 105252, Note_on_c, 0, 57, 0
2, 105300, Note_on_c, 0, 54, 61
2, 105300, Note_on_c, 0, 78, 62
2, 105360, Note_on_c, 0, 54, 0
2, 105388, Note_on_c, 0, 78, 0
2, 105780, Note_on_c, 0, 76, 46
2, 105796, Note_on_c, 0, 42, 42
2, 105820, Control_c, 0, 64, 0
2, 105944, Control_c, 0, 64, 127
2, 106092, Note_on_c, 0, 64, 36
2, 106096, Note_on_c, 0, 42, 0
2, 106108, Note_on_c, 0, 52, 22
2, 106120, Note_on_c, 0, 69, 33
2, 106140, Note_on_c, 0, 52, 0
2, 106220, Note_on_c, 0, 76, 0
2, 106348, Note_on_c, 0, 64, 0
2, 106408, Note_on_c, 0, 74, 52
2, 106420, Note_on_c, 0, 62, 43
2, 106540, Note_on_c, 0, 69, 0
2, 106740, Note_on_c, 0, 54, 50
2, 106752, Note_on_c, 0, 62, 0
2, 106756, Note_on_c, 0, 74, 0
2, 106908, Note_on_c, 0, 54, 0
2, 107196, Note_on_c, 0, 62, 36
2, 107204, Note_on_c, 0, 66, 30
2, 107244, Note_on_c, 0, 43, 33
2, 107276, Control_c, 0, 64, 0
2, 107408, Control_c, 0, 64, 127
2, 107584, Note_on_c, 0, 50, 29
2, 107616, Note_on_c, 0, 62, 0
2, 108008, Note_on_c, 0, 62, 34
2, 108016, Note_on_c, 0, 59, 28
2, 108052, Note_on_c, 0, 55, 26
2, 108520, Note_on_c, 0, 64, 67
2, 108708, Note_on_c, 0, 43, 0
2, 108724, Note_on_c, 0, 66, 0
2, 108740, Note_on_c, 0, 50, 0
2, 108840, Note_on_c, 0, 59, 0
2, 108884, Note_on_c, 0, 55, 0
2, 108908, Note_on_c, 0, 62, 0
2, 108988, Note_on_c, 0, 64, 0
2, 109056, Note_on_c, 0, 66, 47
2, 109060, Control_c, 0, 64, 0
2, 109072, Note_on_c, 0, 62, 44
2, 109076, Note_on_c, 0, 57, 40
2, 109080, Note_on_c, 0, 47, 49
2, 109160, Note_on_c, 0, 57, 0
2, 109184, Control_c, 0, 64, 127
2, 109204, Note_on_c, 0, 62, 0
2, 109244, Note_on_c, 0, 66, 0
2, 109460, Note_on_c, 0, 47, 0
2, 109476, Note_on_c, 0, 78, 77
2, 109484, Note_on_c, 0, 57, 64
2, 109488, Note_on_c, 0, 69, 77
2, 109756, Note_on_c, 0, 69, 0
2, 109784, Note_on_c, 0, 78, 0
2, 109868, Note_on_c, 0, 57, 0
2, 109892, Note_on_c, 0, 78, 69
2, 109896, Note_on_c, 0, 62, 33
2, 109916, Note_on_c, 0, 69, 69
2, 110180, Note_on_c, 0, 69, 0
2, 110372, Note_on_c, 0, 69, 44
2, 110376, Note_on_c, 0, 64, 30
2, 110500, Note_on_c, 0, 62, 0
2, 110516, Note_on_c, 0, 64, 0
2, 110704, Note_on_c, 0, 69, 0
2, 110888, Note_on_c, 0, 69, 44
2, 110888, Note_on_c, 0, 73, 31
2, 110888, Note_on_c, 0, 54, 40
2, 110912, Note_on_c, 0, 64, 27
2, 110932, Control_c, 0, 64, 0
2, 111100, Control_c, 0, 64, 127
2, 111536, Note_on_c, 0, 73, 0
2, 111592, Note_on_c, 0, 74, 39
2, 111604, Note_on_c, 0, 61, 27
2, 111632, Note_on_c, 0, 78, 0
2, 111752, Note_on_c, 0, 64, 0
2, 111940, Note_on_c, 0, 78, 67
2, 111960, Note_on_c, 0, 64, 24
2, 112020, Note_on_c, 0, 69, 0
2, 112048, Note_on_c, 0, 78, 0
2, 112048, Note_on_c, 0, 74, 0
2, 112060, Note_on_c, 0, 54, 0
2, 112184, Note_on_c, 0, 83, 79
2, 112188, Note_on_c, 0, 54, 51
2, 112292, Note_on_c, 0, 83, 0
2, 112316, Note_on_c, 0, 54, 0
2, 112432, Note_on_c, 0, 64, 0
2, 112460, Note_on_c, 0, 61, 0
2, 112472, Note_on_c, 0, 81, 68
2, 112480, Note_on_c, 0, 55, 44
2, 112496, Control_c, 0, 64, 0
2, 112632, Control_c, 0, 64, 127
2, 112776, Note_on_c, 0, 62, 33
2, 113108, Note_on_c, 0, 69, 35
2, 113112, Note_on_c, 0, 74, 27
2, 113112, Note_on_c, 0, 71, 31
2, 113120, Note_on_c, 0, 66, 27
2, 113296, Note_on_c, 0, 55, 0
2, 113392, Note_on_c, 0, 66, 0
2, 113500, Note_on_c, 0, 55, 40
2, 113684, Note_on_c, 0, 62, 0
2, 113696, Note_on_c, 0, 74, 0
2, 113724, Note_on_c, 0, 55, 0
2, 113740, Note_on_c, 0, 71, 0
2, 113744, Note_on_c, 0, 69, 0
2, 114008, Note_on_c, 0, 54, 39
2, 114016, Note_on_c, 0, 69, 44
2, 114016, Note_on_c, 0, 73, 33
2, 114036, Control_c, 0, 64, 0
2, 114048, Note_on_c, 0, 64, 31
2, 114204, Control_c, 0, 64, 127
2, 114736, Note_on_c, 0, 69, 0
2, 114948, Note_on_c, 0, 73, 0
2, 115020, Note_on_c, 0, 64, 0
2, 115080, Note_on_c, 0, 81, 0
2, 115144, Note_on_c, 0, 54, 0
2, 115664, Note_on_c, 0, 86, 44
2, 115680, Note_on_c, 0, 50, 27
2, 115808, Note_on_c, 0, 50, 0
2, 115828, Note_on_c, 0, 86, 0
2, 115840, Note_on_c, 0, 88, 65
2, 115856, Note_on_c, 0, 52, 44
2, 115980, Note_on_c, 0, 88, 0
2, 115996, Note_on_c, 0, 52, 0
2, 116036, Note_on_c, 0, 54, 76
2, 116044, Note_on_c, 0, 90, 80
2, 116076, Control_c, 0, 64, 0
2, 116228, Control_c, 0, 64, 127
2, 116496, Note_on_c, 0, 90, 0
2, 116504, Note_on_c, 0, 54, 0
2, 117484, Note_on_c, 0, 67, 34
2, 117492, Note_on_c, 0, 72, 36
2, 117512, Note_on_c, 0, 62, 30
2, 117520, Note_on_c, 0, 56, 27
2, 117552, Control_c, 0, 64, 0
2, 117716, Control_c, 0, 64, 127
2, 118216, Note_on_c, 0, 74, 40
2, 118736, Note_on_c, 0, 62, 0
2, 118812, Note_on_c, 0, 74, 0
2, 118836, Note_on_c, 0, 72, 0
2, 118848, Note_on_c, 0, 67, 0
2, 118852, Note_on_c, 0, 56, 0
2, 119808, Note_on_c, 0, 62, 40
2, 119816, Note_on_c, 0, 55, 40
2, 119820, Note_on_c, 0, 64, 36
2, 119844, Note_on_c, 0, 45, 36
2, 119872, Control_c, 0, 64, 0
2, 120108, Control_c, 0, 64, 127
2, 120536, Note_on_c, 0, 45, 0
2, 120604, Note_on_c, 0, 62, 0
2, 120756, Note_on_c, 0, 61, 38
2, 121352, Note_on_c, 0, 55, 0
2, 121500, Note_on_c, 0, 61, 0
2, 121628, Note_on_c, 0, 64, 0
2, 122248, Note_on_c, 0, 55, 24
2, 122252, Note_on_c, 0, 62, 26
2, 122256, Note_on_c, 0, 26, 33
2, 122260, Note_on_c, 0, 57, 38
2, 122264, Note_on_c, 0, 38, 28
2, 122280, Control_c, 0, 64, 0
2, 122604, Control_c, 0, 64, 127
2, 123424, Note_on_c, 0, 55, 0
2, 123960, Note_on_c, 0, 54, 25
2, 124860, Note_on_c, 0, 26, 0
2, 125100, Note_on_c, 0, 57, 0
2, 125984, Note_on_c, 0, 26, 44
2, 126908, Note_on_c, 0, 54, 0
2, 126952, Note_on_c, 0, 62, 0
2, 127816, Control_c, 0, 64, 0
2, 128064, Note_on_c, 0, 38, 0
2, 129548, Note_on_c, 0, 26, 0
2, 129548, End_track
3, 0, Start_track
3, 0, Title_t, "Shenandoah"
3, 0, End_track
4, 0, Start_track
4, 0, Title_t, "Unedited Solo Piano"
4, 0, End_track
0, 0, End_of_file
