0, 0, Header, 1, 7, 384
1, 0, Start_track
1, 0, Title_t, "Shiny Stockings"
1, 0, Text_t, "dougmck@pipeline.com.au  May 1998           \012"
1, 0, Time_signature, 4, 2, 24, 8
1, 0, Key_signature, 0, "major"
1, 0, Tempo, 461538
1, 0, Marker_t, "Shiny Stockings  sequence by dougmck@pipeline.com.au"
1, 0, End_track
2, 0, Start_track
2, 0, Title_t, "Vibes"
2, 0, Program_c, 4, 11
2, 100224, Control_c, 4, 0, 0
2, 100224, Control_c, 4, 32, 0
2, 100224, Control_c, 4, 0, 0
2, 100224, Control_c, 4, 32, 0
2, 100224, Program_c, 4, 11
2, 100556, Note_on_c, 4, 57, 55
2, 100672, Note_on_c, 4, 57, 0
2, 100708, Note_on_c, 4, 58, 47
2, 100764, Note_on_c, 4, 58, 0
2, 102128, Note_on_c, 4, 72, 94
2, 102352, Note_on_c, 4, 72, 0
2, 102412, Note_on_c, 4, 70, 27
2, 102444, Note_on_c, 4, 70, 0
2, 102512, Note_on_c, 4, 72, 90
2, 102700, Note_on_c, 4, 72, 0
2, 102756, Note_on_c, 4, 70, 75
2, 102884, Note_on_c, 4, 70, 0
2, 102924, Note_on_c, 4, 66, 37
2, 103148, Note_on_c, 4, 66, 0
2, 103164, Note_on_c, 4, 69, 77
2, 103260, Note_on_c, 4, 69, 0
2, 103324, Note_on_c, 4, 67, 45
2, 103508, Note_on_c, 4, 67, 0
2, 103548, Note_on_c, 4, 62, 47
2, 103652, Note_on_c, 4, 62, 0
2, 103692, Note_on_c, 4, 58, 42
2, 103928, Note_on_c, 4, 58, 0
2, 103944, Note_on_c, 4, 55, 46
2, 103976, Note_on_c, 4, 55, 0
2, 104064, Note_on_c, 4, 58, 43
2, 104116, Note_on_c, 4, 58, 0
2, 104168, Note_on_c, 4, 59, 57
2, 104228, Note_on_c, 4, 59, 0
2, 104296, Note_on_c, 4, 60, 88
2, 104384, Note_on_c, 4, 60, 0
2, 104424, Note_on_c, 4, 60, 75
2, 104524, Note_on_c, 4, 60, 0
2, 104544, Note_on_c, 4, 59, 51
2, 104576, Note_on_c, 4, 59, 0
2, 104664, Note_on_c, 4, 60, 73
2, 105048, Note_on_c, 4, 60, 0
2, 105184, Note_on_c, 4, 69, 99
2, 105192, Note_on_c, 4, 67, 60
2, 105212, Note_on_c, 4, 67, 0
2, 105384, Note_on_c, 4, 68, 58
2, 105408, Note_on_c, 4, 69, 0
2, 105432, Note_on_c, 4, 68, 0
2, 105452, Note_on_c, 4, 67, 56
2, 105512, Note_on_c, 4, 67, 0
2, 105524, Note_on_c, 4, 66, 47
2, 105556, Note_on_c, 4, 66, 0
2, 105600, Note_on_c, 4, 64, 60
2, 105628, Note_on_c, 4, 64, 0
2, 105656, Note_on_c, 4, 67, 90
2, 105812, Note_on_c, 4, 66, 37
2, 105860, Note_on_c, 4, 67, 0
2, 105884, Note_on_c, 4, 66, 0
2, 105892, Note_on_c, 4, 65, 44
2, 105952, Note_on_c, 4, 65, 0
2, 105956, Note_on_c, 4, 64, 58
2, 106000, Note_on_c, 4, 64, 0
2, 106032, Note_on_c, 4, 65, 83
2, 106272, Note_on_c, 4, 65, 0
2, 106272, Note_on_c, 4, 64, 74
2, 106364, Note_on_c, 4, 64, 0
2, 106492, Note_on_c, 4, 60, 68
2, 106608, Note_on_c, 4, 60, 0
2, 106656, Note_on_c, 4, 57, 42
2, 106732, Note_on_c, 4, 57, 0
2, 106792, Note_on_c, 4, 60, 62
2, 107424, Note_on_c, 4, 60, 0
2, 107644, Note_on_c, 4, 60, 64
2, 107700, Note_on_c, 4, 60, 0
2, 107732, Note_on_c, 4, 64, 73
2, 107780, Note_on_c, 4, 64, 0
2, 107840, Note_on_c, 4, 64, 64
2, 107880, Note_on_c, 4, 64, 0
2, 107944, Note_on_c, 4, 67, 74
2, 108004, Note_on_c, 4, 67, 0
2, 108048, Note_on_c, 4, 72, 66
2, 108088, Note_on_c, 4, 72, 0
2, 108156, Note_on_c, 4, 72, 70
2, 108184, Note_on_c, 4, 72, 0
2, 108256, Note_on_c, 4, 76, 77
2, 108300, Note_on_c, 4, 76, 0
2, 108356, Note_on_c, 4, 76, 68
2, 108432, Note_on_c, 4, 76, 0
2, 108452, Note_on_c, 4, 79, 80
2, 108504, Note_on_c, 4, 79, 0
2, 108548, Note_on_c, 4, 72, 73
2, 108592, Note_on_c, 4, 72, 0
2, 108640, Note_on_c, 4, 72, 62
2, 108692, Note_on_c, 4, 72, 0
2, 108736, Note_on_c, 4, 76, 78
2, 108788, Note_on_c, 4, 76, 0
2, 108824, Note_on_c, 4, 76, 76
2, 108904, Note_on_c, 4, 76, 0
2, 108924, Note_on_c, 4, 67, 56
2, 108948, Note_on_c, 4, 67, 0
2, 109016, Note_on_c, 4, 67, 58
2, 109072, Note_on_c, 4, 67, 0
2, 109120, Note_on_c, 4, 72, 74
2, 109300, Note_on_c, 4, 72, 0
2, 109340, Note_on_c, 4, 69, 63
2, 109424, Note_on_c, 4, 69, 0
2, 109460, Note_on_c, 4, 64, 41
2, 109628, Note_on_c, 4, 64, 0
2, 109704, Note_on_c, 4, 64, 44
2, 109748, Note_on_c, 4, 64, 0
2, 109856, Note_on_c, 4, 62, 52
2, 109888, Note_on_c, 4, 62, 0
2, 109916, Note_on_c, 4, 64, 61
2, 109972, Note_on_c, 4, 62, 65
2, 109988, Note_on_c, 4, 64, 0
2, 110060, Note_on_c, 4, 62, 0
2, 110068, Note_on_c, 4, 60, 64
2, 110136, Note_on_c, 4, 60, 0
2, 110208, Note_on_c, 4, 62, 62
2, 110416, Note_on_c, 4, 62, 0
2, 110444, Note_on_c, 4, 63, 57
2, 110540, Note_on_c, 4, 63, 0
2, 110596, Note_on_c, 4, 64, 32
2, 110664, Note_on_c, 4, 64, 0
2, 110700, Note_on_c, 4, 65, 53
2, 110760, Note_on_c, 4, 65, 0
2, 110792, Note_on_c, 4, 66, 57
2, 110860, Note_on_c, 4, 66, 0
2, 110888, Note_on_c, 4, 68, 60
2, 110932, Note_on_c, 4, 68, 0
2, 110984, Note_on_c, 4, 71, 63
2, 111040, Note_on_c, 4, 71, 0
2, 111084, Note_on_c, 4, 74, 62
2, 111140, Note_on_c, 4, 74, 0
2, 111188, Note_on_c, 4, 77, 56
2, 111236, Note_on_c, 4, 77, 0
2, 111276, Note_on_c, 4, 80, 58
2, 111316, Note_on_c, 4, 80, 0
2, 111388, Note_on_c, 4, 86, 82
2, 111444, Note_on_c, 4, 86, 0
2, 111628, Note_on_c, 4, 83, 80
2, 111732, Note_on_c, 4, 83, 0
2, 111784, Note_on_c, 4, 80, 47
2, 111956, Note_on_c, 4, 80, 0
2, 111984, Note_on_c, 4, 77, 41
2, 112024, Note_on_c, 4, 77, 0
2, 112112, Note_on_c, 4, 81, 80
2, 112380, Note_on_c, 4, 81, 0
2, 112536, Note_on_c, 4, 79, 68
2, 112804, Note_on_c, 4, 79, 0
2, 112840, Note_on_c, 4, 74, 32
2, 112888, Note_on_c, 4, 74, 0
2, 112940, Note_on_c, 4, 77, 58
2, 113260, Note_on_c, 4, 77, 0
2, 113304, Note_on_c, 4, 74, 68
2, 113364, Note_on_c, 4, 74, 0
2, 113656, Note_on_c, 4, 77, 105
2, 113852, Note_on_c, 4, 76, 51
2, 113880, Note_on_c, 4, 77, 0
2, 113932, Note_on_c, 4, 76, 0
2, 113936, Note_on_c, 4, 75, 51
2, 113992, Note_on_c, 4, 74, 58
2, 114024, Note_on_c, 4, 75, 0
2, 114044, Note_on_c, 4, 74, 0
2, 114100, Note_on_c, 4, 76, 71
2, 114292, Note_on_c, 4, 76, 0
2, 114324, Note_on_c, 4, 72, 52
2, 114736, Note_on_c, 4, 72, 0
2, 114816, Note_on_c, 4, 72, 92
2, 114952, Note_on_c, 4, 71, 54
2, 115000, Note_on_c, 4, 72, 0
2, 115024, Note_on_c, 4, 70, 48
2, 115028, Note_on_c, 4, 71, 0
2, 115108, Note_on_c, 4, 70, 0
2, 115112, Note_on_c, 4, 69, 59
2, 115164, Note_on_c, 4, 69, 0
2, 115240, Note_on_c, 4, 67, 33
2, 115472, Note_on_c, 4, 67, 0
2, 115476, Note_on_c, 4, 64, 55
2, 115548, Note_on_c, 4, 64, 0
2, 115632, Note_on_c, 4, 67, 60
2, 115836, Note_on_c, 4, 67, 0
2, 115884, Note_on_c, 4, 60, 28
2, 115952, Note_on_c, 4, 60, 0
2, 116016, Note_on_c, 4, 64, 36
2, 116188, Note_on_c, 4, 64, 0
2, 116392, Note_on_c, 4, 64, 55
2, 116428, Note_on_c, 4, 64, 0
2, 116492, Note_on_c, 4, 68, 56
2, 116536, Note_on_c, 4, 68, 0
2, 116592, Note_on_c, 4, 71, 54
2, 116644, Note_on_c, 4, 71, 0
2, 116684, Note_on_c, 4, 74, 73
2, 116724, Note_on_c, 4, 74, 0
2, 116804, Note_on_c, 4, 76, 54
2, 116828, Note_on_c, 4, 76, 0
2, 116892, Note_on_c, 4, 80, 50
2, 116936, Note_on_c, 4, 80, 0
2, 116984, Note_on_c, 4, 83, 72
2, 117040, Note_on_c, 4, 83, 0
2, 117084, Note_on_c, 4, 86, 70
2, 117136, Note_on_c, 4, 86, 0
2, 117492, Note_on_c, 4, 80, 53
2, 117548, Note_on_c, 4, 80, 0
2, 117584, Note_on_c, 4, 83, 68
2, 117648, Note_on_c, 4, 83, 0
2, 117684, Note_on_c, 4, 76, 47
2, 117736, Note_on_c, 4, 76, 0
2, 117772, Note_on_c, 4, 80, 68
2, 117848, Note_on_c, 4, 80, 0
2, 117872, Note_on_c, 4, 74, 40
2, 117956, Note_on_c, 4, 74, 0
2, 118408, Note_on_c, 4, 59, 64
2, 118444, Note_on_c, 4, 59, 0
2, 118524, Note_on_c, 4, 61, 71
2, 118612, Note_on_c, 4, 61, 0
2, 118660, Note_on_c, 4, 62, 38
2, 118832, Note_on_c, 4, 62, 0
2, 118904, Note_on_c, 4, 64, 78
2, 118996, Note_on_c, 4, 64, 0
2, 119088, Note_on_c, 4, 66, 49
2, 119244, Note_on_c, 4, 66, 0
2, 119304, Note_on_c, 4, 68, 62
2, 119396, Note_on_c, 4, 68, 0
2, 119460, Note_on_c, 4, 69, 37
2, 119576, Note_on_c, 4, 69, 0
2, 119684, Note_on_c, 4, 71, 51
2, 119720, Note_on_c, 4, 71, 0
2, 119820, Note_on_c, 4, 76, 81
2, 119992, Note_on_c, 4, 76, 0
2, 120088, Note_on_c, 4, 76, 84
2, 120200, Note_on_c, 4, 76, 0
2, 120260, Note_on_c, 4, 73, 56
2, 120368, Note_on_c, 4, 73, 0
2, 120448, Note_on_c, 4, 73, 71
2, 120552, Note_on_c, 4, 73, 0
2, 120600, Note_on_c, 4, 71, 47
2, 120756, Note_on_c, 4, 71, 0
2, 120824, Note_on_c, 4, 71, 57
2, 120920, Note_on_c, 4, 71, 0
2, 120968, Note_on_c, 4, 73, 71
2, 121080, Note_on_c, 4, 73, 0
2, 121236, Note_on_c, 4, 73, 70
2, 121324, Note_on_c, 4, 73, 0
2, 121376, Note_on_c, 4, 69, 49
2, 121532, Note_on_c, 4, 69, 0
2, 121588, Note_on_c, 4, 69, 52
2, 121636, Note_on_c, 4, 69, 0
2, 121716, Note_on_c, 4, 76, 101
2, 121900, Note_on_c, 4, 76, 0
2, 121968, Note_on_c, 4, 76, 77
2, 122052, Note_on_c, 4, 76, 0
2, 122120, Note_on_c, 4, 73, 56
2, 122252, Note_on_c, 4, 73, 0
2, 122348, Note_on_c, 4, 73, 51
2, 122460, Note_on_c, 4, 73, 0
2, 122492, Note_on_c, 4, 69, 51
2, 122536, Note_on_c, 4, 69, 0
2, 122876, Note_on_c, 4, 74, 90
2, 122924, Note_on_c, 4, 74, 0
2, 122960, Note_on_c, 4, 75, 67
2, 123028, Note_on_c, 4, 75, 0
2, 123056, Note_on_c, 4, 74, 68
2, 123112, Note_on_c, 4, 74, 0
2, 123156, Note_on_c, 4, 72, 33
2, 123200, Note_on_c, 4, 72, 0
2, 123256, Note_on_c, 4, 70, 55
2, 123384, Note_on_c, 4, 70, 0
2, 123496, Note_on_c, 4, 69, 77
2, 123600, Note_on_c, 4, 69, 0
2, 123672, Note_on_c, 4, 67, 55
2, 123784, Note_on_c, 4, 67, 0
2, 123892, Note_on_c, 4, 66, 65
2, 124000, Note_on_c, 4, 66, 0
2, 124048, Note_on_c, 4, 64, 44
2, 124220, Note_on_c, 4, 64, 0
2, 124288, Note_on_c, 4, 61, 56
2, 124372, Note_on_c, 4, 61, 0
2, 124420, Note_on_c, 4, 62, 70
2, 124652, Note_on_c, 4, 62, 0
2, 124688, Note_on_c, 4, 57, 50
2, 124760, Note_on_c, 4, 57, 0
2, 124832, Note_on_c, 4, 58, 37
2, 124932, Note_on_c, 4, 58, 0
2, 124956, Note_on_c, 4, 62, 50
2, 125008, Note_on_c, 4, 62, 0
2, 125060, Note_on_c, 4, 65, 72
2, 125128, Note_on_c, 4, 65, 0
2, 125196, Note_on_c, 4, 72, 82
2, 125264, Note_on_c, 4, 72, 0
2, 125320, Note_on_c, 4, 69, 31
2, 125348, Note_on_c, 4, 69, 0
2, 125440, Note_on_c, 4, 72, 92
2, 125536, Note_on_c, 4, 72, 0
2, 125572, Note_on_c, 4, 69, 73
2, 125660, Note_on_c, 4, 69, 0
2, 125720, Note_on_c, 4, 65, 16
2, 125788, Note_on_c, 4, 65, 0
2, 125812, Note_on_c, 4, 62, 57
2, 125900, Note_on_c, 4, 62, 0
2, 125952, Note_on_c, 4, 72, 82
2, 126032, Note_on_c, 4, 72, 0
2, 126200, Note_on_c, 4, 72, 99
2, 126300, Note_on_c, 4, 72, 0
2, 126332, Note_on_c, 4, 69, 68
2, 126408, Note_on_c, 4, 69, 0
2, 126456, Note_on_c, 4, 65, 40
2, 126548, Note_on_c, 4, 65, 0
2, 126568, Note_on_c, 4, 62, 63
2, 126660, Note_on_c, 4, 62, 0
2, 126716, Note_on_c, 4, 72, 88
2, 126792, Note_on_c, 4, 72, 0
2, 126840, Note_on_c, 4, 69, 50
2, 126868, Note_on_c, 4, 69, 0
2, 126964, Note_on_c, 4, 71, 95
2, 126976, Note_on_c, 4, 72, 47
2, 126992, Note_on_c, 4, 72, 0
2, 127040, Note_on_c, 4, 71, 0
2, 127088, Note_on_c, 4, 69, 77
2, 127212, Note_on_c, 4, 65, 62
2, 127312, Note_on_c, 4, 65, 0
2, 127324, Note_on_c, 4, 69, 0
2, 127344, Note_on_c, 4, 62, 68
2, 127436, Note_on_c, 4, 62, 0
2, 127472, Note_on_c, 4, 73, 90
2, 127564, Note_on_c, 4, 73, 0
2, 127616, Note_on_c, 4, 70, 25
2, 127636, Note_on_c, 4, 70, 0
2, 127720, Note_on_c, 4, 73, 80
2, 127792, Note_on_c, 4, 73, 0
2, 128024, Note_on_c, 4, 72, 94
2, 128112, Note_on_c, 4, 72, 0
2, 128124, Note_on_c, 4, 69, 66
2, 128220, Note_on_c, 4, 69, 0
2, 128252, Note_on_c, 4, 65, 64
2, 128332, Note_on_c, 4, 65, 0
2, 128364, Note_on_c, 4, 62, 53
2, 128396, Note_on_c, 4, 62, 0
2, 128508, Note_on_c, 4, 72, 77
2, 128580, Note_on_c, 4, 72, 0
2, 129036, Note_on_c, 4, 73, 88
2, 129120, Note_on_c, 4, 73, 0
2, 129260, Note_on_c, 4, 73, 90
2, 129388, Note_on_c, 4, 69, 72
2, 129484, Note_on_c, 4, 73, 0
2, 129488, Note_on_c, 4, 69, 0
2, 129512, Note_on_c, 4, 64, 60
2, 129540, Note_on_c, 4, 64, 0
2, 130020, Note_on_c, 4, 67, 77
2, 130080, Note_on_c, 4, 67, 0
2, 130120, Note_on_c, 4, 68, 77
2, 130172, Note_on_c, 4, 68, 0
2, 130220, Note_on_c, 4, 69, 71
2, 130268, Note_on_c, 4, 69, 0
2, 130308, Note_on_c, 4, 70, 64
2, 130384, Note_on_c, 4, 70, 0
2, 130400, Note_on_c, 4, 71, 45
2, 130456, Note_on_c, 4, 71, 0
2, 130500, Note_on_c, 4, 72, 58
2, 130504, Note_on_c, 4, 74, 67
2, 130540, Note_on_c, 4, 74, 0
2, 130540, Note_on_c, 4, 72, 0
2, 130596, Note_on_c, 4, 74, 80
2, 130708, Note_on_c, 4, 74, 0
2, 130720, Note_on_c, 4, 72, 64
2, 130780, Note_on_c, 4, 72, 0
2, 130968, Note_on_c, 4, 69, 71
2, 131048, Note_on_c, 4, 69, 0
2, 131084, Note_on_c, 4, 65, 41
2, 131220, Note_on_c, 4, 65, 0
2, 131332, Note_on_c, 4, 64, 74
2, 131420, Note_on_c, 4, 64, 0
2, 131460, Note_on_c, 4, 60, 49
2, 131604, Note_on_c, 4, 60, 0
2, 131688, Note_on_c, 4, 57, 64
2, 131756, Note_on_c, 4, 57, 0
2, 132076, Note_on_c, 4, 79, 96
2, 132152, Note_on_c, 4, 79, 0
2, 132204, Note_on_c, 4, 76, 74
2, 132412, Note_on_c, 4, 76, 0
2, 132472, Note_on_c, 4, 72, 74
2, 132548, Note_on_c, 4, 72, 0
2, 132588, Note_on_c, 4, 67, 58
2, 132768, Note_on_c, 4, 67, 0
2, 132844, Note_on_c, 4, 64, 58
2, 132944, Note_on_c, 4, 64, 0
2, 132976, Note_on_c, 4, 60, 43
2, 133176, Note_on_c, 4, 60, 0
2, 133232, Note_on_c, 4, 57, 50
2, 133292, Note_on_c, 4, 57, 0
2, 133772, Note_on_c, 4, 79, 101
2, 133868, Note_on_c, 4, 79, 0
2, 133892, Note_on_c, 4, 76, 35
2, 133920, Note_on_c, 4, 76, 0
2, 134012, Note_on_c, 4, 79, 101
2, 134104, Note_on_c, 4, 79, 0
2, 134140, Note_on_c, 4, 76, 68
2, 134236, Note_on_c, 4, 76, 0
2, 134272, Note_on_c, 4, 72, 55
2, 134296, Note_on_c, 4, 72, 0
2, 134444, Note_on_c, 4, 74, 58
2, 134480, Note_on_c, 4, 74, 0
2, 134480, Note_on_c, 4, 75, 62
2, 134536, Note_on_c, 4, 74, 51
2, 134560, Note_on_c, 4, 75, 0
2, 134600, Note_on_c, 4, 74, 0
2, 134616, Note_on_c, 4, 72, 49
2, 134704, Note_on_c, 4, 72, 0
2, 134760, Note_on_c, 4, 69, 66
2, 135008, Note_on_c, 4, 69, 0
2, 135036, Note_on_c, 4, 67, 54
2, 135148, Note_on_c, 4, 67, 0
2, 135176, Note_on_c, 4, 68, 61
2, 135256, Note_on_c, 4, 68, 0
2, 135284, Note_on_c, 4, 70, 53
2, 135328, Note_on_c, 4, 70, 0
2, 135364, Note_on_c, 4, 71, 37
2, 135416, Note_on_c, 4, 71, 0
2, 135464, Note_on_c, 4, 72, 62
2, 135508, Note_on_c, 4, 72, 0
2, 135560, Note_on_c, 4, 74, 64
2, 135620, Note_on_c, 4, 74, 0
2, 135660, Note_on_c, 4, 76, 62
2, 135700, Note_on_c, 4, 76, 0
2, 135848, Note_on_c, 4, 79, 40
2, 135896, Note_on_c, 4, 79, 0
2, 135944, Note_on_c, 4, 80, 51
2, 135976, Note_on_c, 4, 80, 0
2, 136040, Note_on_c, 4, 82, 67
2, 136092, Note_on_c, 4, 82, 0
2, 136144, Note_on_c, 4, 83, 75
2, 136212, Note_on_c, 4, 83, 0
2, 136260, Note_on_c, 4, 79, 63
2, 136284, Note_on_c, 4, 79, 0
2, 136352, Note_on_c, 4, 80, 63
2, 136428, Note_on_c, 4, 80, 0
2, 136460, Note_on_c, 4, 77, 45
2, 136488, Note_on_c, 4, 77, 0
2, 136540, Note_on_c, 4, 79, 65
2, 136600, Note_on_c, 4, 79, 0
2, 136656, Note_on_c, 4, 74, 38
2, 136680, Note_on_c, 4, 74, 0
2, 136736, Note_on_c, 4, 77, 64
2, 136808, Note_on_c, 4, 77, 0
2, 136848, Note_on_c, 4, 74, 62
2, 136900, Note_on_c, 4, 74, 0
2, 136932, Note_on_c, 4, 70, 56
2, 137048, Note_on_c, 4, 70, 0
2, 137052, Note_on_c, 4, 69, 43
2, 137076, Note_on_c, 4, 69, 0
2, 137124, Note_on_c, 4, 72, 62
2, 137212, Note_on_c, 4, 72, 0
2, 137312, Note_on_c, 4, 70, 70
2, 137388, Note_on_c, 4, 70, 0
2, 137432, Note_on_c, 4, 66, 37
2, 137468, Note_on_c, 4, 66, 0
2, 137508, Note_on_c, 4, 69, 64
2, 137604, Note_on_c, 4, 69, 0
2, 137620, Note_on_c, 4, 66, 45
2, 137644, Note_on_c, 4, 66, 0
2, 137696, Note_on_c, 4, 67, 65
2, 137796, Note_on_c, 4, 67, 0
2, 138588, Note_on_c, 4, 70, 56
2, 138612, Note_on_c, 4, 71, 68
2, 138628, Note_on_c, 4, 70, 0
2, 138664, Note_on_c, 4, 72, 82
2, 138684, Note_on_c, 4, 71, 0
2, 138708, Note_on_c, 4, 72, 0
2, 138776, Note_on_c, 4, 72, 72
2, 138824, Note_on_c, 4, 72, 0
2, 138872, Note_on_c, 4, 72, 73
2, 138924, Note_on_c, 4, 72, 0
2, 138968, Note_on_c, 4, 72, 72
2, 139040, Note_on_c, 4, 72, 0
2, 139076, Note_on_c, 4, 70, 59
2, 139096, Note_on_c, 4, 70, 0
2, 139096, Note_on_c, 4, 71, 64
2, 139132, Note_on_c, 4, 72, 71
2, 139160, Note_on_c, 4, 71, 0
2, 139184, Note_on_c, 4, 72, 0
2, 139220, Note_on_c, 4, 72, 71
2, 139268, Note_on_c, 4, 72, 0
2, 139304, Note_on_c, 4, 72, 77
2, 139352, Note_on_c, 4, 72, 0
2, 139408, Note_on_c, 4, 72, 79
2, 139460, Note_on_c, 4, 72, 0
2, 139524, Note_on_c, 4, 72, 79
2, 139612, Note_on_c, 4, 72, 0
2, 139656, Note_on_c, 4, 70, 80
2, 139756, Note_on_c, 4, 70, 0
2, 139808, Note_on_c, 4, 69, 75
2, 140016, Note_on_c, 4, 69, 0
2, 140064, Note_on_c, 4, 60, 73
2, 140152, Note_on_c, 4, 60, 0
2, 140220, Note_on_c, 4, 62, 61
2, 140404, Note_on_c, 4, 62, 0
2, 140436, Note_on_c, 4, 60, 55
2, 140456, Note_on_c, 4, 60, 0
2, 140620, Note_on_c, 4, 62, 72
2, 140668, Note_on_c, 4, 62, 0
2, 140672, Note_on_c, 4, 63, 54
2, 140740, Note_on_c, 4, 62, 59
2, 140768, Note_on_c, 4, 63, 0
2, 140824, Note_on_c, 4, 62, 0
2, 140840, Note_on_c, 4, 60, 53
2, 140900, Note_on_c, 4, 60, 0
2, 140952, Note_on_c, 4, 62, 72
2, 141100, Note_on_c, 4, 62, 0
2, 141180, Note_on_c, 4, 61, 67
2, 141288, Note_on_c, 4, 61, 0
2, 141328, Note_on_c, 4, 62, 41
2, 141492, Note_on_c, 4, 62, 0
2, 141560, Note_on_c, 4, 66, 59
2, 141624, Note_on_c, 4, 66, 0
2, 141764, Note_on_c, 4, 69, 8
2, 141848, Note_on_c, 4, 69, 0
2, 142080, Note_on_c, 4, 70, 81
2, 142152, Note_on_c, 4, 70, 0
2, 142180, Note_on_c, 4, 71, 71
2, 142228, Note_on_c, 4, 71, 0
2, 142276, Note_on_c, 4, 71, 70
2, 142324, Note_on_c, 4, 71, 0
2, 142360, Note_on_c, 4, 71, 71
2, 142424, Note_on_c, 4, 71, 0
2, 142464, Note_on_c, 4, 70, 57
2, 142516, Note_on_c, 4, 70, 0
2, 142556, Note_on_c, 4, 71, 71
2, 142600, Note_on_c, 4, 71, 0
2, 142672, Note_on_c, 4, 74, 49
2, 142696, Note_on_c, 4, 74, 0
2, 142872, Note_on_c, 4, 77, 89
2, 143088, Note_on_c, 4, 74, 80
2, 143108, Note_on_c, 4, 76, 29
2, 143120, Note_on_c, 4, 77, 0
2, 143132, Note_on_c, 4, 76, 0
2, 143164, Note_on_c, 4, 74, 0
2, 143248, Note_on_c, 4, 70, 56
2, 143452, Note_on_c, 4, 70, 0
2, 143484, Note_on_c, 4, 67, 45
2, 143508, Note_on_c, 4, 67, 0
2, 143620, Note_on_c, 4, 77, 84
2, 143820, Note_on_c, 4, 77, 0
2, 143988, Note_on_c, 4, 74, 82
2, 144200, Note_on_c, 4, 74, 0
2, 144396, Note_on_c, 4, 77, 95
2, 144608, Note_on_c, 4, 77, 0
2, 144660, Note_on_c, 4, 74, 41
2, 144692, Note_on_c, 4, 74, 0
2, 144788, Note_on_c, 4, 76, 69
2, 144788, Note_on_c, 4, 77, 81
2, 144832, Note_on_c, 4, 76, 0
2, 144980, Note_on_c, 4, 77, 0
2, 145036, Note_on_c, 4, 79, 90
2, 145144, Note_on_c, 4, 79, 0
2, 145192, Note_on_c, 4, 77, 68
2, 145396, Note_on_c, 4, 77, 0
2, 145416, Note_on_c, 4, 74, 83
2, 145672, Note_on_c, 4, 74, 0
2, 145784, Note_on_c, 4, 77, 96
2, 145876, Note_on_c, 4, 77, 0
2, 145928, Note_on_c, 4, 76, 80
2, 146136, Note_on_c, 4, 76, 0
2, 146160, Note_on_c, 4, 72, 73
2, 146264, Note_on_c, 4, 72, 0
2, 146304, Note_on_c, 4, 69, 44
2, 146512, Note_on_c, 4, 69, 0
2, 146552, Note_on_c, 4, 72, 84
2, 146940, Note_on_c, 4, 69, 74
2, 147040, Note_on_c, 4, 69, 0
2, 147040, Note_on_c, 4, 72, 0
2, 147068, Note_on_c, 4, 65, 44
2, 147376, Note_on_c, 4, 65, 0
2, 147444, Note_on_c, 4, 62, 66
2, 147772, Note_on_c, 4, 62, 0
2, 147820, Note_on_c, 4, 65, 61
2, 148032, Note_on_c, 4, 65, 0
2, 148064, Note_on_c, 4, 64, 60
2, 148472, Note_on_c, 4, 64, 0
2, 148600, Note_on_c, 4, 68, 81
2, 148604, Note_on_c, 4, 64, 84
2, 148816, Note_on_c, 4, 64, 0
2, 148844, Note_on_c, 4, 68, 0
2, 148860, Note_on_c, 4, 69, 87
2, 148860, Note_on_c, 4, 65, 84
2, 149720, Note_on_c, 4, 69, 0
2, 149740, Note_on_c, 4, 65, 0
2, 149776, Note_on_c, 4, 68, 59
2, 149784, Note_on_c, 4, 64, 58
2, 149924, Note_on_c, 4, 64, 0
2, 149956, Note_on_c, 4, 68, 0
2, 150140, Note_on_c, 4, 65, 58
2, 150148, Note_on_c, 4, 69, 55
2, 150256, Note_on_c, 4, 65, 0
2, 150268, Note_on_c, 4, 69, 0
2, 150436, Note_on_c, 4, 69, 79
2, 150472, Note_on_c, 4, 72, 62
2, 150488, Note_on_c, 4, 69, 0
2, 150524, Note_on_c, 4, 72, 0
2, 150532, Note_on_c, 4, 69, 57
2, 150580, Note_on_c, 4, 69, 0
2, 150596, Note_on_c, 4, 72, 41
2, 150620, Note_on_c, 4, 72, 0
2, 150632, Note_on_c, 4, 69, 44
2, 150676, Note_on_c, 4, 69, 0
2, 150692, Note_on_c, 4, 72, 33
2, 150724, Note_on_c, 4, 72, 0
2, 150732, Note_on_c, 4, 69, 48
2, 150768, Note_on_c, 4, 69, 0
2, 151160, Note_on_c, 4, 67, 91
2, 151172, Note_on_c, 4, 68, 71
2, 151224, Note_on_c, 4, 69, 68
2, 151228, Note_on_c, 4, 68, 0
2, 151228, Note_on_c, 4, 67, 0
2, 151312, Note_on_c, 4, 69, 0
2, 151348, Note_on_c, 4, 67, 47
2, 151620, Note_on_c, 4, 67, 0
2, 151680, Note_on_c, 4, 69, 74
2, 151804, Note_on_c, 4, 69, 0
2, 151936, Note_on_c, 4, 61, 76
2, 152068, Note_on_c, 4, 61, 0
2, 152104, Note_on_c, 4, 62, 45
2, 152280, Note_on_c, 4, 62, 0
2, 152320, Note_on_c, 4, 62, 70
2, 152376, Note_on_c, 4, 62, 0
2, 152460, Note_on_c, 4, 65, 83
2, 152632, Note_on_c, 4, 65, 0
2, 152836, Note_on_c, 4, 67, 91
2, 153068, Note_on_c, 4, 67, 0
2, 153100, Note_on_c, 4, 69, 76
2, 153184, Note_on_c, 4, 69, 0
2, 153252, Note_on_c, 4, 67, 36
2, 153468, Note_on_c, 4, 67, 0
2, 153472, Note_on_c, 4, 68, 70
2, 153492, Note_on_c, 4, 68, 0
2, 153496, Note_on_c, 4, 69, 66
2, 154704, Note_on_c, 4, 69, 0
2, 154756, Note_on_c, 4, 66, 54
2, 154976, Note_on_c, 4, 66, 0
2, 155000, Note_on_c, 4, 67, 71
2, 155644, Note_on_c, 4, 67, 0
2, 156160, Note_on_c, 4, 77, 71
2, 156164, Note_on_c, 4, 65, 66
2, 156192, Note_on_c, 4, 65, 0
2, 156208, Note_on_c, 4, 77, 0
2, 156388, Note_on_c, 4, 79, 73
2, 156388, Note_on_c, 4, 67, 70
2, 156408, Note_on_c, 4, 67, 0
2, 156436, Note_on_c, 4, 79, 0
2, 156700, Note_on_c, 4, 84, 80
2, 156776, Note_on_c, 4, 84, 0
2, 156792, Note_on_c, 4, 72, 50
2, 156848, Note_on_c, 4, 72, 0
2, 156864, Note_on_c, 4, 84, 50
2, 156928, Note_on_c, 4, 84, 0
2, 156932, Note_on_c, 4, 72, 43
2, 156992, Note_on_c, 4, 72, 0
2, 157004, Note_on_c, 4, 84, 50
2, 157080, Note_on_c, 4, 84, 0
2, 157096, Note_on_c, 4, 72, 30
2, 157136, Note_on_c, 4, 72, 0
2, 157464, Note_on_c, 4, 66, 78
2, 157476, Note_on_c, 4, 67, 77
2, 157512, Note_on_c, 4, 66, 0
2, 157848, Note_on_c, 4, 67, 0
2, 157884, Note_on_c, 4, 65, 44
2, 157908, Note_on_c, 4, 65, 0
2, 158112, Note_on_c, 4, 67, 81
2, 158204, Note_on_c, 4, 67, 0
2, 158288, Note_on_c, 4, 60, 38
2, 158436, Note_on_c, 4, 60, 0
2, 158488, Note_on_c, 4, 60, 53
2, 158524, Note_on_c, 4, 60, 0
2, 158956, Note_on_c, 4, 63, 56
2, 158988, Note_on_c, 4, 64, 73
2, 159008, Note_on_c, 4, 63, 0
2, 159044, Note_on_c, 4, 65, 78
2, 159052, Note_on_c, 4, 64, 0
2, 159236, Note_on_c, 4, 65, 0
2, 159264, Note_on_c, 4, 67, 78
2, 159360, Note_on_c, 4, 67, 0
2, 159424, Note_on_c, 4, 65, 60
2, 159504, Note_on_c, 4, 65, 0
2, 159624, Note_on_c, 4, 65, 64
2, 159668, Note_on_c, 4, 65, 0
2, 159768, Note_on_c, 4, 66, 51
2, 159816, Note_on_c, 4, 66, 0
2, 159844, Note_on_c, 4, 67, 54
2, 159892, Note_on_c, 4, 67, 0
2, 159936, Note_on_c, 4, 67, 47
2, 159984, Note_on_c, 4, 67, 0
2, 160032, Note_on_c, 4, 67, 64
2, 160104, Note_on_c, 4, 67, 0
2, 160132, Note_on_c, 4, 66, 58
2, 160172, Note_on_c, 4, 66, 0
2, 160220, Note_on_c, 4, 67, 62
2, 160272, Note_on_c, 4, 67, 0
2, 160320, Note_on_c, 4, 67, 58
2, 160372, Note_on_c, 4, 67, 0
2, 160412, Note_on_c, 4, 67, 66
2, 160480, Note_on_c, 4, 67, 0
2, 160528, Note_on_c, 4, 66, 29
2, 160564, Note_on_c, 4, 66, 0
2, 161020, Note_on_c, 4, 67, 87
2, 161096, Note_on_c, 4, 67, 0
2, 161144, Note_on_c, 4, 66, 69
2, 161244, Note_on_c, 4, 66, 0
2, 161276, Note_on_c, 4, 65, 66
2, 161620, Note_on_c, 4, 65, 0
2, 161640, Note_on_c, 4, 62, 74
2, 161724, Note_on_c, 4, 62, 0
2, 162040, Note_on_c, 4, 62, 82
2, 162164, Note_on_c, 4, 63, 39
2, 162184, Note_on_c, 4, 62, 0
2, 162212, Note_on_c, 4, 64, 61
2, 162220, Note_on_c, 4, 63, 0
2, 162280, Note_on_c, 4, 64, 0
2, 162296, Note_on_c, 4, 65, 57
2, 162344, Note_on_c, 4, 65, 0
2, 162420, Note_on_c, 4, 69, 76
2, 162592, Note_on_c, 4, 69, 0
2, 162692, Note_on_c, 4, 70, 37
2, 162736, Note_on_c, 4, 70, 0
2, 162744, Note_on_c, 4, 71, 57
2, 162808, Note_on_c, 4, 71, 0
2, 162832, Note_on_c, 4, 72, 76
2, 163040, Note_on_c, 4, 72, 0
2, 163076, Note_on_c, 4, 72, 72
2, 163184, Note_on_c, 4, 72, 0
2, 163224, Note_on_c, 4, 64, 39
2, 163392, Note_on_c, 4, 64, 0
2, 163460, Note_on_c, 4, 64, 48
2, 163492, Note_on_c, 4, 64, 0
2, 163728, Note_on_c, 4, 68, 73
2, 163788, Note_on_c, 4, 68, 0
2, 163852, Note_on_c, 4, 70, 79
2, 163908, Note_on_c, 4, 70, 0
2, 163980, Note_on_c, 4, 70, 77
2, 164064, Note_on_c, 4, 70, 0
2, 164112, Note_on_c, 4, 68, 48
2, 164156, Note_on_c, 4, 68, 0
2, 164364, Note_on_c, 4, 67, 82
2, 164448, Note_on_c, 4, 67, 0
2, 164488, Note_on_c, 4, 64, 41
2, 164688, Note_on_c, 4, 64, 0
2, 164772, Note_on_c, 4, 60, 50
2, 164816, Note_on_c, 4, 60, 0
2, 165152, Note_on_c, 4, 63, 52
2, 165164, Note_on_c, 4, 64, 71
2, 165172, Note_on_c, 4, 63, 0
2, 165188, Note_on_c, 4, 64, 0
2, 165280, Note_on_c, 4, 64, 64
2, 165316, Note_on_c, 4, 64, 0
2, 165536, Note_on_c, 4, 67, 79
2, 165584, Note_on_c, 4, 67, 0
2, 165652, Note_on_c, 4, 71, 76
2, 165716, Note_on_c, 4, 71, 0
2, 165888, Note_on_c, 4, 74, 96
2, 165964, Note_on_c, 4, 74, 0
2, 166140, Note_on_c, 4, 74, 94
2, 166876, Note_on_c, 4, 74, 0
2, 166920, Note_on_c, 4, 71, 67
2, 166996, Note_on_c, 4, 71, 0
2, 167036, Note_on_c, 4, 67, 55
2, 167092, Note_on_c, 4, 67, 0
2, 167164, Note_on_c, 4, 62, 41
2, 167212, Note_on_c, 4, 62, 0
2, 167280, Note_on_c, 4, 70, 85
2, 167392, Note_on_c, 4, 70, 0
2, 167416, Note_on_c, 4, 68, 34
2, 167452, Note_on_c, 4, 68, 0
2, 167500, Note_on_c, 4, 69, 73
2, 168076, Note_on_c, 4, 69, 0
2, 168108, Note_on_c, 4, 62, 45
2, 168136, Note_on_c, 4, 62, 0
2, 168228, Note_on_c, 4, 66, 60
2, 168388, Note_on_c, 4, 66, 0
2, 168476, Note_on_c, 4, 69, 66
2, 168528, Note_on_c, 4, 69, 0
2, 168604, Note_on_c, 4, 73, 63
2, 168756, Note_on_c, 4, 73, 0
2, 168964, Note_on_c, 4, 76, 76
2, 169032, Note_on_c, 4, 76, 0
2, 169184, Note_on_c, 4, 76, 80
2, 169732, Note_on_c, 4, 76, 0
2, 169752, Note_on_c, 4, 73, 53
2, 169892, Note_on_c, 4, 73, 0
2, 170004, Note_on_c, 4, 76, 80
2, 170088, Note_on_c, 4, 76, 0
2, 170160, Note_on_c, 4, 73, 47
2, 170284, Note_on_c, 4, 73, 0
2, 170384, Note_on_c, 4, 73, 65
2, 170456, Note_on_c, 4, 73, 0
2, 170528, Note_on_c, 4, 69, 49
2, 170788, Note_on_c, 4, 69, 0
2, 170872, Note_on_c, 4, 64, 64
2, 171104, Note_on_c, 4, 64, 0
2, 171268, Note_on_c, 4, 64, 60
2, 171356, Note_on_c, 4, 64, 0
2, 171656, Note_on_c, 4, 75, 86
2, 171736, Note_on_c, 4, 75, 0
2, 171908, Note_on_c, 4, 77, 94
2, 171928, Note_on_c, 4, 79, 28
2, 171948, Note_on_c, 4, 79, 0
2, 172048, Note_on_c, 4, 77, 0
2, 172108, Note_on_c, 4, 75, 65
2, 172204, Note_on_c, 4, 75, 0
2, 172308, Note_on_c, 4, 75, 78
2, 172412, Note_on_c, 4, 75, 0
2, 172460, Note_on_c, 4, 74, 81
2, 172572, Note_on_c, 4, 74, 0
2, 172676, Note_on_c, 4, 74, 83
2, 172788, Note_on_c, 4, 74, 0
2, 172836, Note_on_c, 4, 72, 66
2, 172960, Note_on_c, 4, 72, 0
2, 173052, Note_on_c, 4, 72, 68
2, 173116, Note_on_c, 4, 72, 0
2, 173184, Note_on_c, 4, 70, 71
2, 173300, Note_on_c, 4, 70, 0
2, 173408, Note_on_c, 4, 70, 74
2, 173496, Note_on_c, 4, 70, 0
2, 173552, Note_on_c, 4, 69, 75
2, 173856, Note_on_c, 4, 69, 0
2, 173952, Note_on_c, 4, 69, 101
2, 174592, Note_on_c, 4, 69, 0
2, 174612, Note_on_c, 4, 67, 57
2, 174668, Note_on_c, 4, 67, 0
2, 174744, Note_on_c, 4, 69, 70
2, 174984, Note_on_c, 4, 69, 0
2, 175088, Note_on_c, 4, 69, 46
2, 175116, Note_on_c, 4, 70, 58
2, 175144, Note_on_c, 4, 69, 0
2, 175148, Note_on_c, 4, 71, 74
2, 175172, Note_on_c, 4, 70, 0
2, 175208, Note_on_c, 4, 72, 71
2, 175216, Note_on_c, 4, 71, 0
2, 175456, Note_on_c, 4, 72, 0
2, 175488, Note_on_c, 4, 69, 74
2, 175840, Note_on_c, 4, 69, 0
2, 175860, Note_on_c, 4, 67, 71
2, 176024, Note_on_c, 4, 67, 0
2, 176076, Note_on_c, 4, 67, 57
2, 176100, Note_on_c, 4, 68, 70
2, 176128, Note_on_c, 4, 67, 0
2, 176152, Note_on_c, 4, 69, 74
2, 176180, Note_on_c, 4, 68, 0
2, 176248, Note_on_c, 4, 69, 0
2, 176368, Note_on_c, 4, 69, 91
2, 176464, Note_on_c, 4, 69, 0
2, 176504, Note_on_c, 4, 69, 74
2, 176604, Note_on_c, 4, 69, 0
2, 177024, Note_on_c, 4, 62, 69
2, 177072, Note_on_c, 4, 62, 0
2, 177136, Note_on_c, 4, 62, 68
2, 177196, Note_on_c, 4, 62, 0
2, 177268, Note_on_c, 4, 67, 89
2, 177356, Note_on_c, 4, 67, 0
2, 177400, Note_on_c, 4, 67, 70
2, 177460, Note_on_c, 4, 67, 0
2, 177520, Note_on_c, 4, 69, 95
2, 177692, Note_on_c, 4, 69, 0
2, 177784, Note_on_c, 4, 69, 96
2, 177884, Note_on_c, 4, 69, 0
2, 177924, Note_on_c, 4, 67, 37
2, 177984, Note_on_c, 4, 67, 0
2, 178064, Note_on_c, 4, 69, 101
2, 178184, Note_on_c, 4, 69, 0
2, 178296, Note_on_c, 4, 69, 108
2, 178456, Note_on_c, 4, 69, 0
2, 178568, Note_on_c, 4, 68, 84
2, 178760, Note_on_c, 4, 68, 0
2, 178824, Note_on_c, 4, 69, 87
2, 178904, Note_on_c, 4, 69, 0
2, 179060, Note_on_c, 4, 67, 83
2, 179228, Note_on_c, 4, 67, 0
2, 179236, Note_on_c, 4, 64, 49
2, 179332, Note_on_c, 4, 64, 0
2, 179380, Note_on_c, 4, 66, 72
2, 179556, Note_on_c, 4, 66, 0
2, 179604, Note_on_c, 4, 69, 89
2, 179712, Note_on_c, 4, 69, 0
2, 179772, Note_on_c, 4, 67, 52
2, 179952, Note_on_c, 4, 67, 0
2, 180000, Note_on_c, 4, 64, 59
2, 180096, Note_on_c, 4, 64, 0
2, 180132, Note_on_c, 4, 60, 44
2, 180408, Note_on_c, 4, 60, 0
2, 180488, Note_on_c, 4, 67, 60
2, 180736, Note_on_c, 4, 67, 0
2, 180748, Note_on_c, 4, 64, 36
2, 180784, Note_on_c, 4, 64, 0
2, 180852, Note_on_c, 4, 65, 66
2, 181132, Note_on_c, 4, 62, 66
2, 181152, Note_on_c, 4, 65, 0
2, 181256, Note_on_c, 4, 62, 0
2, 181304, Note_on_c, 4, 56, 49
2, 181468, Note_on_c, 4, 56, 0
2, 181528, Note_on_c, 4, 56, 49
2, 181576, Note_on_c, 4, 56, 0
2, 182016, Note_on_c, 4, 76, 95
2, 182240, Note_on_c, 4, 76, 0
2, 182396, Note_on_c, 4, 76, 89
2, 182628, Note_on_c, 4, 76, 0
2, 182660, Note_on_c, 4, 72, 62
2, 182788, Note_on_c, 4, 72, 0
2, 182844, Note_on_c, 4, 69, 60
2, 183028, Note_on_c, 4, 69, 0
2, 183052, Note_on_c, 4, 64, 52
2, 183444, Note_on_c, 4, 64, 0
2, 183612, Note_on_c, 4, 60, 56
2, 183644, Note_on_c, 4, 60, 0
2, 183648, Note_on_c, 4, 62, 65
2, 183700, Note_on_c, 4, 60, 51
2, 183720, Note_on_c, 4, 62, 0
2, 183780, Note_on_c, 4, 60, 0
2, 183792, Note_on_c, 4, 59, 44
2, 183892, Note_on_c, 4, 59, 0
2, 183940, Note_on_c, 4, 60, 64
2, 184156, Note_on_c, 4, 60, 0
2, 184184, Note_on_c, 4, 61, 58
2, 184292, Note_on_c, 4, 61, 0
2, 184336, Note_on_c, 4, 62, 38
2, 184412, Note_on_c, 4, 62, 0
2, 184436, Note_on_c, 4, 63, 46
2, 184496, Note_on_c, 4, 63, 0
2, 184536, Note_on_c, 4, 64, 41
2, 184608, Note_on_c, 4, 64, 0
2, 184636, Note_on_c, 4, 65, 34
2, 184688, Note_on_c, 4, 65, 0
2, 184732, Note_on_c, 4, 67, 47
2, 184784, Note_on_c, 4, 67, 0
2, 184836, Note_on_c, 4, 68, 56
2, 184904, Note_on_c, 4, 68, 0
2, 184928, Note_on_c, 4, 65, 50
2, 185000, Note_on_c, 4, 65, 0
2, 185036, Note_on_c, 4, 67, 47
2, 185096, Note_on_c, 4, 67, 0
2, 185112, Note_on_c, 4, 68, 58
2, 185180, Note_on_c, 4, 68, 0
2, 185212, Note_on_c, 4, 70, 56
2, 185280, Note_on_c, 4, 70, 0
2, 185300, Note_on_c, 4, 67, 53
2, 185380, Note_on_c, 4, 67, 0
2, 185396, Note_on_c, 4, 68, 73
2, 185488, Note_on_c, 4, 70, 67
2, 185492, Note_on_c, 4, 68, 0
2, 185564, Note_on_c, 4, 70, 0
2, 185588, Note_on_c, 4, 71, 67
2, 185656, Note_on_c, 4, 71, 0
2, 185808, Note_on_c, 4, 65, 40
2, 185832, Note_on_c, 4, 65, 0
2, 185868, Note_on_c, 4, 72, 77
2, 185936, Note_on_c, 4, 72, 0
2, 186008, Note_on_c, 4, 66, 35
2, 186032, Note_on_c, 4, 66, 0
2, 186072, Note_on_c, 4, 69, 74
2, 186164, Note_on_c, 4, 69, 0
2, 186200, Note_on_c, 4, 66, 34
2, 186220, Note_on_c, 4, 66, 0
2, 186276, Note_on_c, 4, 67, 68
2, 186368, Note_on_c, 4, 67, 0
2, 186408, Note_on_c, 4, 62, 37
2, 186432, Note_on_c, 4, 62, 0
2, 186648, Note_on_c, 4, 65, 68
2, 186884, Note_on_c, 4, 65, 0
2, 186920, Note_on_c, 4, 62, 69
2, 186980, Note_on_c, 4, 62, 0
2, 187044, Note_on_c, 4, 65, 62
2, 187100, Note_on_c, 4, 65, 0
2, 187148, Note_on_c, 4, 69, 74
2, 187200, Note_on_c, 4, 69, 0
2, 187232, Note_on_c, 4, 70, 71
2, 187288, Note_on_c, 4, 70, 0
2, 187336, Note_on_c, 4, 71, 76
2, 187392, Note_on_c, 4, 71, 0
2, 187436, Note_on_c, 4, 72, 85
2, 187572, Note_on_c, 4, 72, 0
2, 187648, Note_on_c, 4, 72, 92
2, 187740, Note_on_c, 4, 72, 0
2, 187796, Note_on_c, 4, 72, 62
2, 187960, Note_on_c, 4, 72, 0
2, 188036, Note_on_c, 4, 72, 79
2, 188124, Note_on_c, 4, 72, 0
2, 188212, Note_on_c, 4, 72, 65
2, 188352, Note_on_c, 4, 72, 0
2, 188432, Note_on_c, 4, 68, 87
2, 188652, Note_on_c, 4, 68, 0
2, 188676, Note_on_c, 4, 70, 55
2, 188728, Note_on_c, 4, 68, 62
2, 188760, Note_on_c, 4, 70, 0
2, 188820, Note_on_c, 4, 65, 53
2, 188828, Note_on_c, 4, 68, 0
2, 188892, Note_on_c, 4, 65, 0
2, 188944, Note_on_c, 4, 67, 67
2, 189180, Note_on_c, 4, 64, 66
2, 189220, Note_on_c, 4, 67, 0
2, 189628, Note_on_c, 4, 64, 0
2, 189692, Note_on_c, 4, 67, 61
2, 189768, Note_on_c, 4, 67, 0
2, 189928, Note_on_c, 4, 71, 80
2, 190020, Note_on_c, 4, 71, 0
2, 190080, Note_on_c, 4, 74, 75
2, 190168, Note_on_c, 4, 74, 0
2, 190296, Note_on_c, 4, 74, 81
2, 190360, Note_on_c, 4, 74, 0
2, 190476, Note_on_c, 4, 73, 68
2, 190532, Note_on_c, 4, 73, 0
2, 190580, Note_on_c, 4, 74, 77
2, 190640, Note_on_c, 4, 74, 0
2, 190700, Note_on_c, 4, 74, 74
2, 190760, Note_on_c, 4, 74, 0
2, 190828, Note_on_c, 4, 74, 77
2, 190960, Note_on_c, 4, 74, 0
2, 191088, Note_on_c, 4, 73, 75
2, 191172, Note_on_c, 4, 73, 0
2, 191224, Note_on_c, 4, 74, 71
2, 191420, Note_on_c, 4, 74, 0
2, 191468, Note_on_c, 4, 71, 60
2, 191512, Note_on_c, 4, 71, 0
2, 191608, Note_on_c, 4, 76, 81
2, 191616, Note_on_c, 4, 74, 48
2, 191684, Note_on_c, 4, 74, 0
2, 191712, Note_on_c, 4, 76, 0
2, 191856, Note_on_c, 4, 76, 88
2, 191916, Note_on_c, 4, 76, 0
2, 192040, Note_on_c, 4, 77, 94
2, 192140, Note_on_c, 4, 77, 0
2, 192272, Note_on_c, 4, 77, 95
2, 192380, Note_on_c, 4, 77, 0
2, 192416, Note_on_c, 4, 73, 69
2, 192456, Note_on_c, 4, 74, 77
2, 192484, Note_on_c, 4, 73, 0
2, 192572, Note_on_c, 4, 74, 0
2, 192640, Note_on_c, 4, 73, 65
2, 192684, Note_on_c, 4, 74, 80
2, 192724, Note_on_c, 4, 73, 0
2, 192764, Note_on_c, 4, 74, 0
2, 192844, Note_on_c, 4, 71, 58
2, 192876, Note_on_c, 4, 72, 62
2, 192892, Note_on_c, 4, 71, 0
2, 192980, Note_on_c, 4, 72, 0
2, 193060, Note_on_c, 4, 72, 77
2, 193184, Note_on_c, 4, 72, 0
2, 193228, Note_on_c, 4, 70, 65
2, 193348, Note_on_c, 4, 70, 0
2, 193428, Note_on_c, 4, 70, 74
2, 193512, Note_on_c, 4, 70, 0
2, 193576, Note_on_c, 4, 68, 71
2, 193632, Note_on_c, 4, 68, 0
2, 193668, Note_on_c, 4, 69, 74
2, 193712, Note_on_c, 4, 69, 0
2, 193764, Note_on_c, 4, 69, 60
2, 193804, Note_on_c, 4, 69, 0
2, 193856, Note_on_c, 4, 69, 71
2, 193924, Note_on_c, 4, 69, 0
2, 193968, Note_on_c, 4, 68, 69
2, 194016, Note_on_c, 4, 69, 77
2, 194036, Note_on_c, 4, 68, 0
2, 194144, Note_on_c, 4, 69, 0
2, 194204, Note_on_c, 4, 65, 81
2, 194276, Note_on_c, 4, 65, 0
2, 194392, Note_on_c, 4, 68, 74
2, 194452, Note_on_c, 4, 69, 64
2, 194480, Note_on_c, 4, 68, 0
2, 194600, Note_on_c, 4, 69, 0
2, 194716, Note_on_c, 4, 68, 64
2, 194756, Note_on_c, 4, 69, 62
2, 194784, Note_on_c, 4, 68, 0
2, 194896, Note_on_c, 4, 69, 0
2, 194948, Note_on_c, 4, 65, 69
2, 195056, Note_on_c, 4, 65, 0
2, 195236, Note_on_c, 4, 77, 78
2, 195312, Note_on_c, 4, 77, 0
2, 195472, Note_on_c, 4, 75, 77
2, 195540, Note_on_c, 4, 75, 0
2, 195596, Note_on_c, 4, 65, 34
2, 195620, Note_on_c, 4, 65, 0
2, 195720, Note_on_c, 4, 70, 86
2, 195784, Note_on_c, 4, 70, 0
2, 195880, Note_on_c, 4, 70, 71
2, 195928, Note_on_c, 4, 70, 0
2, 195940, Note_on_c, 4, 71, 58
2, 195996, Note_on_c, 4, 70, 59
2, 196012, Note_on_c, 4, 71, 0
2, 196060, Note_on_c, 4, 68, 62
2, 196076, Note_on_c, 4, 70, 0
2, 196132, Note_on_c, 4, 68, 0
2, 196144, Note_on_c, 4, 65, 54
2, 196208, Note_on_c, 4, 65, 0
2, 196256, Note_on_c, 4, 63, 62
2, 196440, Note_on_c, 4, 63, 0
2, 196460, Note_on_c, 4, 60, 65
2, 196504, Note_on_c, 4, 60, 0
2, 196708, Note_on_c, 4, 59, 63
2, 196756, Note_on_c, 4, 58, 52
2, 196772, Note_on_c, 4, 59, 0
2, 196816, Note_on_c, 4, 56, 53
2, 196836, Note_on_c, 4, 58, 0
2, 196888, Note_on_c, 4, 56, 0
2, 196924, Note_on_c, 4, 53, 33
2, 197044, Note_on_c, 4, 53, 0
2, 197092, Note_on_c, 4, 51, 57
2, 197260, Note_on_c, 4, 51, 0
2, 197308, Note_on_c, 4, 53, 53
2, 198816, Note_on_c, 4, 53, 0
2, 198816, End_track
3, 0, Start_track
3, 0, Program_c, 0, 0
3, 99368, Program_c, 0, 0
3, 99456, Note_on_c, 0, 63, 36
3, 99456, Note_on_c, 0, 66, 37
3, 99456, Note_on_c, 0, 60, 45
3, 99456, Note_on_c, 0, 72, 53
3, 99456, Note_on_c, 0, 69, 44
3, 99520, Note_on_c, 0, 69, 0
3, 99520, Note_on_c, 0, 60, 0
3, 99520, Note_on_c, 0, 63, 0
3, 99520, Note_on_c, 0, 66, 0
3, 99520, Note_on_c, 0, 72, 0
3, 99840, Control_c, 0, 0, 0
3, 99840, Control_c, 0, 32, 0
3, 99840, Note_on_c, 0, 81, 57
3, 99840, Note_on_c, 0, 69, 53
3, 99840, Note_on_c, 0, 74, 60
3, 99840, Note_on_c, 0, 57, 60
3, 99844, Note_on_c, 0, 62, 61
3, 99844, Note_on_c, 0, 58, 42
3, 99872, Note_on_c, 0, 74, 0
3, 99872, Note_on_c, 0, 69, 0
3, 99876, Note_on_c, 0, 57, 0
3, 99876, Note_on_c, 0, 62, 0
3, 99884, Note_on_c, 0, 58, 0
3, 99884, Note_on_c, 0, 81, 0
3, 100836, Note_on_c, 0, 74, 62
3, 100840, Note_on_c, 0, 69, 70
3, 100840, Note_on_c, 0, 70, 59
3, 100844, Note_on_c, 0, 57, 59
3, 100844, Note_on_c, 0, 62, 61
3, 100848, Note_on_c, 0, 58, 46
3, 101004, Control_c, 0, 64, 127
3, 101068, Note_on_c, 0, 74, 0
3, 101088, Note_on_c, 0, 70, 0
3, 101092, Note_on_c, 0, 69, 0
3, 101108, Note_on_c, 0, 62, 0
3, 101112, Note_on_c, 0, 57, 0
3, 101136, Note_on_c, 0, 58, 0
3, 101316, Control_c, 0, 64, 0
3, 101356, Note_on_c, 0, 70, 57
3, 101360, Note_on_c, 0, 74, 70
3, 101364, Note_on_c, 0, 58, 49
3, 101372, Note_on_c, 0, 64, 36
3, 101372, Note_on_c, 0, 62, 60
3, 101376, Note_on_c, 0, 65, 38
3, 101384, Note_on_c, 0, 52, 48
3, 101416, Note_on_c, 0, 65, 0
3, 101528, Note_on_c, 0, 64, 0
3, 101532, Note_on_c, 0, 62, 0
3, 101532, Note_on_c, 0, 74, 0
3, 101532, Note_on_c, 0, 52, 0
3, 101536, Note_on_c, 0, 70, 0
3, 101540, Note_on_c, 0, 58, 0
3, 102096, Note_on_c, 0, 60, 39
3, 102104, Note_on_c, 0, 64, 44
3, 102104, Note_on_c, 0, 58, 27
3, 102108, Note_on_c, 0, 72, 38
3, 102112, Note_on_c, 0, 69, 43
3, 102112, Note_on_c, 0, 52, 31
3, 102272, Note_on_c, 0, 52, 0
3, 102276, Note_on_c, 0, 72, 0
3, 102288, Note_on_c, 0, 60, 0
3, 102296, Note_on_c, 0, 64, 0
3, 102308, Note_on_c, 0, 58, 0
3, 102308, Note_on_c, 0, 69, 0
3, 102352, Note_on_c, 0, 64, 60
3, 102364, Note_on_c, 0, 58, 34
3, 102364, Note_on_c, 0, 72, 52
3, 102364, Note_on_c, 0, 60, 41
3, 102368, Note_on_c, 0, 69, 39
3, 102372, Note_on_c, 0, 64, 0
3, 102388, Note_on_c, 0, 60, 0
3, 102388, Note_on_c, 0, 72, 0
3, 102396, Note_on_c, 0, 69, 0
3, 102404, Note_on_c, 0, 58, 0
3, 103144, Note_on_c, 0, 81, 74
3, 103144, Note_on_c, 0, 69, 76
3, 103144, Note_on_c, 0, 74, 68
3, 103148, Note_on_c, 0, 58, 68
3, 103148, Note_on_c, 0, 77, 58
3, 103152, Note_on_c, 0, 62, 72
3, 103152, Note_on_c, 0, 57, 66
3, 103164, Note_on_c, 0, 74, 0
3, 103164, Note_on_c, 0, 69, 0
3, 103168, Note_on_c, 0, 77, 0
3, 103168, Note_on_c, 0, 62, 0
3, 103172, Note_on_c, 0, 57, 0
3, 103188, Note_on_c, 0, 58, 0
3, 103188, Note_on_c, 0, 81, 0
3, 103512, Note_on_c, 0, 93, 88
3, 103516, Note_on_c, 0, 81, 75
3, 103516, Note_on_c, 0, 86, 72
3, 103516, Note_on_c, 0, 89, 72
3, 103520, Note_on_c, 0, 58, 62
3, 103520, Note_on_c, 0, 57, 69
3, 103524, Note_on_c, 0, 62, 74
3, 103528, Note_on_c, 0, 53, 71
3, 103648, Control_c, 0, 64, 127
3, 103784, Note_on_c, 0, 93, 0
3, 103796, Note_on_c, 0, 89, 0
3, 103828, Note_on_c, 0, 86, 0
3, 103848, Note_on_c, 0, 81, 0
3, 103884, Note_on_c, 0, 53, 0
3, 103904, Note_on_c, 0, 58, 0
3, 103904, Note_on_c, 0, 62, 0
3, 103908, Note_on_c, 0, 57, 0
3, 104004, Control_c, 0, 64, 0
3, 104032, Note_on_c, 0, 77, 51
3, 104032, Note_on_c, 0, 62, 51
3, 104036, Note_on_c, 0, 57, 38
3, 104036, Note_on_c, 0, 89, 45
3, 104036, Note_on_c, 0, 86, 46
3, 104036, Note_on_c, 0, 58, 45
3, 104040, Note_on_c, 0, 84, 55
3, 104044, Note_on_c, 0, 53, 40
3, 104072, Note_on_c, 0, 84, 0
3, 104072, Note_on_c, 0, 86, 0
3, 104076, Note_on_c, 0, 77, 0
3, 104084, Note_on_c, 0, 53, 0
3, 104088, Note_on_c, 0, 89, 0
3, 104088, Note_on_c, 0, 57, 0
3, 104088, Note_on_c, 0, 62, 0
3, 104108, Note_on_c, 0, 58, 0
3, 104408, Note_on_c, 0, 93, 71
3, 104408, Note_on_c, 0, 89, 63
3, 104408, Note_on_c, 0, 58, 53
3, 104412, Note_on_c, 0, 62, 68
3, 104412, Note_on_c, 0, 81, 60
3, 104412, Note_on_c, 0, 86, 57
3, 104416, Note_on_c, 0, 52, 62
3, 104492, Note_on_c, 0, 52, 0
3, 104504, Note_on_c, 0, 89, 0
3, 104504, Note_on_c, 0, 62, 0
3, 104508, Note_on_c, 0, 86, 0
3, 104508, Note_on_c, 0, 93, 0
3, 104508, Note_on_c, 0, 58, 0
3, 104520, Note_on_c, 0, 81, 0
3, 104776, Note_on_c, 0, 82, 55
3, 104776, Note_on_c, 0, 58, 57
3, 104780, Note_on_c, 0, 62, 68
3, 104780, Note_on_c, 0, 89, 66
3, 104784, Note_on_c, 0, 77, 61
3, 104784, Note_on_c, 0, 86, 57
3, 104788, Note_on_c, 0, 52, 66
3, 104884, Note_on_c, 0, 52, 0
3, 104900, Note_on_c, 0, 89, 0
3, 104904, Note_on_c, 0, 62, 0
3, 104904, Note_on_c, 0, 86, 0
3, 104912, Note_on_c, 0, 77, 0
3, 104920, Note_on_c, 0, 58, 0
3, 104944, Note_on_c, 0, 82, 0
3, 105184, Note_on_c, 0, 75, 77
3, 105184, Note_on_c, 0, 61, 69
3, 105184, Note_on_c, 0, 58, 57
3, 105188, Note_on_c, 0, 87, 75
3, 105188, Note_on_c, 0, 82, 62
3, 105196, Note_on_c, 0, 52, 51
3, 105224, Control_c, 0, 64, 127
3, 105356, Note_on_c, 0, 52, 0
3, 105360, Note_on_c, 0, 87, 0
3, 105380, Note_on_c, 0, 75, 0
3, 105380, Note_on_c, 0, 82, 0
3, 105384, Note_on_c, 0, 61, 0
3, 105388, Note_on_c, 0, 58, 0
3, 105444, Note_on_c, 0, 85, 64
3, 105448, Note_on_c, 0, 73, 60
3, 105448, Note_on_c, 0, 80, 62
3, 105452, Note_on_c, 0, 61, 58
3, 105452, Note_on_c, 0, 58, 50
3, 105456, Note_on_c, 0, 52, 57
3, 105488, Control_c, 0, 64, 0
3, 105520, Control_c, 0, 64, 127
3, 105680, Note_on_c, 0, 52, 0
3, 105716, Note_on_c, 0, 58, 0
3, 105720, Note_on_c, 0, 61, 0
3, 105748, Note_on_c, 0, 73, 0
3, 105752, Note_on_c, 0, 85, 0
3, 105760, Note_on_c, 0, 80, 0
3, 105824, Control_c, 0, 64, 0
3, 105828, Note_on_c, 0, 84, 80
3, 105828, Note_on_c, 0, 64, 74
3, 105828, Note_on_c, 0, 60, 69
3, 105832, Note_on_c, 0, 79, 74
3, 105832, Note_on_c, 0, 57, 72
3, 105832, Note_on_c, 0, 53, 66
3, 105832, Note_on_c, 0, 72, 65
3, 106396, Control_c, 0, 64, 127
3, 107132, Note_on_c, 0, 84, 0
3, 107148, Note_on_c, 0, 79, 0
3, 107148, Note_on_c, 0, 60, 0
3, 107148, Note_on_c, 0, 64, 0
3, 107148, Note_on_c, 0, 53, 0
3, 107168, Note_on_c, 0, 57, 0
3, 107180, Note_on_c, 0, 72, 0
3, 107476, Control_c, 0, 64, 0
3, 107508, Note_on_c, 0, 67, 52
3, 107512, Note_on_c, 0, 76, 56
3, 107512, Note_on_c, 0, 72, 53
3, 107512, Note_on_c, 0, 56, 44
3, 107516, Note_on_c, 0, 62, 52
3, 107552, Note_on_c, 0, 67, 0
3, 107556, Note_on_c, 0, 72, 0
3, 107564, Note_on_c, 0, 76, 0
3, 107564, Note_on_c, 0, 56, 0
3, 107564, Note_on_c, 0, 62, 0
3, 108136, Note_on_c, 0, 79, 76
3, 108136, Note_on_c, 0, 72, 74
3, 108140, Note_on_c, 0, 76, 69
3, 108140, Note_on_c, 0, 56, 70
3, 108144, Note_on_c, 0, 67, 72
3, 108152, Note_on_c, 0, 62, 60
3, 108176, Note_on_c, 0, 62, 0
3, 108180, Note_on_c, 0, 72, 0
3, 108184, Note_on_c, 0, 67, 0
3, 108184, Note_on_c, 0, 76, 0
3, 108192, Note_on_c, 0, 56, 0
3, 108196, Note_on_c, 0, 79, 0
3, 108516, Note_on_c, 0, 76, 76
3, 108520, Note_on_c, 0, 67, 73
3, 108520, Note_on_c, 0, 72, 68
3, 108524, Note_on_c, 0, 62, 71
3, 108524, Note_on_c, 0, 56, 63
3, 108652, Control_c, 0, 64, 127
3, 108808, Note_on_c, 0, 62, 0
3, 108876, Note_on_c, 0, 67, 0
3, 108912, Note_on_c, 0, 56, 0
3, 108924, Note_on_c, 0, 72, 0
3, 108940, Note_on_c, 0, 76, 0
3, 109016, Control_c, 0, 64, 0
3, 109052, Note_on_c, 0, 72, 47
3, 109056, Note_on_c, 0, 67, 32
3, 109056, Note_on_c, 0, 69, 48
3, 109060, Note_on_c, 0, 64, 35
3, 109060, Note_on_c, 0, 60, 40
3, 109068, Note_on_c, 0, 57, 40
3, 109068, Note_on_c, 0, 55, 31
3, 109092, Note_on_c, 0, 69, 0
3, 109092, Note_on_c, 0, 67, 0
3, 109104, Note_on_c, 0, 55, 0
3, 109108, Note_on_c, 0, 64, 0
3, 109108, Note_on_c, 0, 72, 0
3, 109112, Note_on_c, 0, 60, 0
3, 109128, Note_on_c, 0, 57, 0
3, 109808, Note_on_c, 0, 69, 54
3, 109808, Note_on_c, 0, 72, 51
3, 109808, Note_on_c, 0, 67, 56
3, 109812, Note_on_c, 0, 60, 45
3, 109812, Note_on_c, 0, 64, 46
3, 109820, Note_on_c, 0, 57, 38
3, 109828, Note_on_c, 0, 55, 33
3, 109972, Control_c, 0, 64, 127
3, 110128, Note_on_c, 0, 60, 0
3, 110132, Note_on_c, 0, 55, 0
3, 110144, Note_on_c, 0, 64, 0
3, 110148, Note_on_c, 0, 69, 0
3, 110152, Note_on_c, 0, 57, 0
3, 110160, Note_on_c, 0, 67, 0
3, 110176, Note_on_c, 0, 72, 0
3, 110428, Control_c, 0, 64, 0
3, 110444, Note_on_c, 0, 71, 87
3, 110444, Note_on_c, 0, 79, 84
3, 110448, Note_on_c, 0, 68, 85
3, 110448, Note_on_c, 0, 67, 87
3, 110452, Note_on_c, 0, 74, 78
3, 110876, Note_on_c, 0, 68, 0
3, 110888, Note_on_c, 0, 71, 0
3, 110892, Note_on_c, 0, 79, 0
3, 110892, Control_c, 0, 64, 127
3, 110900, Note_on_c, 0, 74, 0
3, 110904, Control_c, 0, 64, 0
3, 110924, Note_on_c, 0, 67, 0
3, 110948, Note_on_c, 0, 68, 59
3, 110956, Note_on_c, 0, 71, 50
3, 110956, Note_on_c, 0, 65, 62
3, 110960, Note_on_c, 0, 74, 60
3, 110960, Note_on_c, 0, 77, 56
3, 111164, Note_on_c, 0, 77, 0
3, 111204, Note_on_c, 0, 71, 0
3, 111216, Note_on_c, 0, 68, 0
3, 111232, Note_on_c, 0, 74, 0
3, 111272, Note_on_c, 0, 65, 0
3, 111336, Note_on_c, 0, 68, 53
3, 111340, Note_on_c, 0, 64, 55
3, 111340, Note_on_c, 0, 76, 61
3, 111356, Note_on_c, 0, 71, 37
3, 111376, Control_c, 0, 64, 127
3, 111436, Note_on_c, 0, 71, 0
3, 111492, Note_on_c, 0, 68, 0
3, 111496, Note_on_c, 0, 76, 0
3, 111584, Note_on_c, 0, 65, 71
3, 111588, Note_on_c, 0, 77, 68
3, 111592, Note_on_c, 0, 68, 62
3, 111600, Note_on_c, 0, 64, 0
3, 111600, Note_on_c, 0, 71, 53
3, 111612, Control_c, 0, 64, 0
3, 111620, Note_on_c, 0, 71, 0
3, 111632, Note_on_c, 0, 65, 0
3, 111644, Note_on_c, 0, 77, 0
3, 111660, Note_on_c, 0, 68, 0
3, 111968, Note_on_c, 0, 58, 54
3, 112000, Control_c, 0, 64, 127
3, 112020, Note_on_c, 0, 58, 0
3, 112056, Control_c, 0, 64, 0
3, 112372, Note_on_c, 0, 58, 60
3, 112372, Note_on_c, 0, 69, 88
3, 112376, Note_on_c, 0, 65, 80
3, 112376, Note_on_c, 0, 60, 65
3, 112380, Note_on_c, 0, 62, 74
3, 112380, Note_on_c, 0, 72, 74
3, 112572, Control_c, 0, 64, 127
3, 112784, Note_on_c, 0, 69, 0
3, 112804, Note_on_c, 0, 62, 0
3, 112804, Note_on_c, 0, 60, 0
3, 112804, Note_on_c, 0, 65, 0
3, 112832, Note_on_c, 0, 58, 0
3, 112860, Control_c, 0, 64, 0
3, 112896, Note_on_c, 0, 72, 0
3, 112904, Note_on_c, 0, 58, 36
3, 112912, Note_on_c, 0, 62, 36
3, 112916, Note_on_c, 0, 69, 53
3, 112916, Note_on_c, 0, 65, 36
3, 112916, Note_on_c, 0, 60, 43
3, 112944, Note_on_c, 0, 60, 0
3, 112960, Note_on_c, 0, 62, 0
3, 112968, Note_on_c, 0, 65, 0
3, 112976, Note_on_c, 0, 69, 0
3, 112988, Note_on_c, 0, 58, 0
3, 113272, Note_on_c, 0, 69, 40
3, 113276, Note_on_c, 0, 62, 40
3, 113280, Note_on_c, 0, 65, 34
3, 113284, Note_on_c, 0, 58, 33
3, 113288, Note_on_c, 0, 60, 37
3, 113356, Note_on_c, 0, 60, 0
3, 113368, Note_on_c, 0, 65, 0
3, 113368, Note_on_c, 0, 62, 0
3, 113372, Note_on_c, 0, 69, 0
3, 113376, Note_on_c, 0, 58, 0
3, 113644, Note_on_c, 0, 68, 60
3, 113652, Note_on_c, 0, 64, 62
3, 113652, Note_on_c, 0, 72, 60
3, 113664, Note_on_c, 0, 58, 50
3, 113736, Control_c, 0, 64, 127
3, 114080, Note_on_c, 0, 58, 0
3, 114092, Note_on_c, 0, 64, 0
3, 114108, Note_on_c, 0, 72, 0
3, 114116, Note_on_c, 0, 68, 0
3, 114276, Note_on_c, 0, 68, 62
3, 114280, Note_on_c, 0, 72, 62
3, 114284, Note_on_c, 0, 58, 64
3, 114284, Note_on_c, 0, 64, 64
3, 114292, Control_c, 0, 64, 0
3, 114372, Control_c, 0, 64, 127
3, 114384, Note_on_c, 0, 64, 0
3, 114408, Note_on_c, 0, 68, 0
3, 114420, Note_on_c, 0, 58, 0
3, 114424, Note_on_c, 0, 72, 0
3, 114680, Control_c, 0, 64, 0
3, 114680, Note_on_c, 0, 92, 87
3, 114684, Note_on_c, 0, 80, 87
3, 114684, Note_on_c, 0, 62, 82
3, 114684, Note_on_c, 0, 87, 83
3, 114688, Note_on_c, 0, 67, 89
3, 114688, Note_on_c, 0, 56, 80
3, 114788, Control_c, 0, 64, 127
3, 114944, Note_on_c, 0, 62, 0
3, 114964, Note_on_c, 0, 67, 0
3, 114976, Note_on_c, 0, 80, 0
3, 114980, Note_on_c, 0, 92, 0
3, 114992, Note_on_c, 0, 87, 0
3, 115032, Note_on_c, 0, 56, 0
3, 115140, Control_c, 0, 64, 0
3, 115188, Note_on_c, 0, 91, 58
3, 115192, Note_on_c, 0, 86, 51
3, 115196, Note_on_c, 0, 79, 33
3, 115200, Note_on_c, 0, 60, 52
3, 115200, Note_on_c, 0, 64, 54
3, 115204, Note_on_c, 0, 55, 58
3, 115324, Note_on_c, 0, 64, 0
3, 115324, Note_on_c, 0, 60, 0
3, 115324, Note_on_c, 0, 86, 0
3, 115328, Note_on_c, 0, 91, 0
3, 115328, Note_on_c, 0, 55, 0
3, 115332, Note_on_c, 0, 79, 0
3, 115972, Note_on_c, 0, 88, 68
3, 115976, Note_on_c, 0, 60, 48
3, 115976, Note_on_c, 0, 76, 55
3, 115980, Note_on_c, 0, 64, 50
3, 115980, Note_on_c, 0, 55, 53
3, 115984, Note_on_c, 0, 83, 50
3, 115992, Control_c, 0, 64, 127
3, 116028, Note_on_c, 0, 55, 0
3, 116044, Note_on_c, 0, 88, 0
3, 116048, Note_on_c, 0, 64, 0
3, 116056, Note_on_c, 0, 83, 0
3, 116064, Note_on_c, 0, 60, 0
3, 116064, Note_on_c, 0, 76, 0
3, 116236, Note_on_c, 0, 84, 64
3, 116240, Note_on_c, 0, 72, 49
3, 116244, Note_on_c, 0, 79, 50
3, 116252, Note_on_c, 0, 64, 57
3, 116256, Note_on_c, 0, 60, 49
3, 116256, Note_on_c, 0, 55, 58
3, 116288, Note_on_c, 0, 60, 0
3, 116292, Note_on_c, 0, 64, 0
3, 116296, Control_c, 0, 64, 0
3, 116304, Note_on_c, 0, 84, 0
3, 116308, Note_on_c, 0, 79, 0
3, 116308, Note_on_c, 0, 55, 0
3, 116312, Note_on_c, 0, 72, 0
3, 116608, Note_on_c, 0, 68, 57
3, 116612, Note_on_c, 0, 71, 68
3, 116612, Note_on_c, 0, 64, 63
3, 116616, Note_on_c, 0, 60, 57
3, 116620, Note_on_c, 0, 54, 59
3, 116760, Control_c, 0, 64, 127
3, 117000, Note_on_c, 0, 54, 0
3, 117012, Note_on_c, 0, 64, 0
3, 117016, Note_on_c, 0, 60, 0
3, 117016, Note_on_c, 0, 68, 0
3, 117048, Note_on_c, 0, 71, 0
3, 117064, Control_c, 0, 64, 0
3, 117124, Note_on_c, 0, 54, 48
3, 117128, Note_on_c, 0, 68, 49
3, 117128, Note_on_c, 0, 60, 45
3, 117128, Note_on_c, 0, 64, 51
3, 117132, Note_on_c, 0, 72, 51
3, 117196, Note_on_c, 0, 64, 0
3, 117196, Note_on_c, 0, 60, 0
3, 117200, Note_on_c, 0, 54, 0
3, 117204, Note_on_c, 0, 68, 0
3, 117216, Note_on_c, 0, 72, 0
3, 117492, Note_on_c, 0, 54, 51
3, 117492, Note_on_c, 0, 60, 53
3, 117496, Note_on_c, 0, 74, 51
3, 117500, Note_on_c, 0, 64, 47
3, 117500, Note_on_c, 0, 68, 33
3, 117504, Note_on_c, 0, 71, 36
3, 117508, Control_c, 0, 64, 127
3, 117620, Note_on_c, 0, 54, 0
3, 117628, Note_on_c, 0, 60, 0
3, 117640, Note_on_c, 0, 71, 0
3, 117652, Note_on_c, 0, 64, 0
3, 117664, Note_on_c, 0, 68, 0
3, 117680, Note_on_c, 0, 74, 0
3, 117736, Note_on_c, 0, 68, 45
3, 117740, Note_on_c, 0, 64, 58
3, 117744, Note_on_c, 0, 60, 66
3, 117744, Note_on_c, 0, 72, 58
3, 117756, Note_on_c, 0, 54, 46
3, 117760, Note_on_c, 0, 64, 0
3, 117776, Note_on_c, 0, 68, 0
3, 117788, Note_on_c, 0, 54, 0
3, 117788, Note_on_c, 0, 60, 0
3, 117796, Note_on_c, 0, 72, 0
3, 117816, Control_c, 0, 64, 0
3, 118116, Note_on_c, 0, 90, 76
3, 118120, Note_on_c, 0, 78, 64
3, 118124, Note_on_c, 0, 62, 64
3, 118124, Note_on_c, 0, 57, 48
3, 118124, Note_on_c, 0, 66, 51
3, 118128, Note_on_c, 0, 61, 50
3, 118144, Note_on_c, 0, 66, 0
3, 118148, Note_on_c, 0, 57, 0
3, 118152, Note_on_c, 0, 62, 0
3, 118152, Note_on_c, 0, 78, 0
3, 118164, Note_on_c, 0, 61, 0
3, 118172, Note_on_c, 0, 90, 0
3, 118504, Note_on_c, 0, 86, 80
3, 118504, Note_on_c, 0, 74, 82
3, 118508, Note_on_c, 0, 57, 64
3, 118512, Note_on_c, 0, 61, 54
3, 118512, Note_on_c, 0, 62, 64
3, 118512, Note_on_c, 0, 66, 64
3, 118628, Control_c, 0, 64, 127
3, 119016, Note_on_c, 0, 66, 0
3, 119060, Note_on_c, 0, 57, 0
3, 119072, Note_on_c, 0, 62, 0
3, 119080, Note_on_c, 0, 86, 0
3, 119092, Note_on_c, 0, 74, 0
3, 119128, Note_on_c, 0, 61, 0
3, 119296, Note_on_c, 0, 71, 51
3, 119316, Note_on_c, 0, 71, 0
3, 119352, Control_c, 0, 64, 0
3, 119400, Note_on_c, 0, 66, 62
3, 119400, Note_on_c, 0, 74, 72
3, 119408, Note_on_c, 0, 86, 68
3, 119408, Note_on_c, 0, 61, 36
3, 119412, Note_on_c, 0, 57, 36
3, 119416, Note_on_c, 0, 62, 38
3, 119424, Note_on_c, 0, 86, 0
3, 119424, Note_on_c, 0, 74, 0
3, 119444, Note_on_c, 0, 62, 0
3, 119452, Note_on_c, 0, 66, 0
3, 119460, Note_on_c, 0, 57, 0
3, 119476, Note_on_c, 0, 61, 0
3, 119784, Note_on_c, 0, 95, 79
3, 119784, Note_on_c, 0, 62, 55
3, 119788, Note_on_c, 0, 56, 52
3, 119788, Note_on_c, 0, 83, 68
3, 119792, Note_on_c, 0, 66, 36
3, 119812, Note_on_c, 0, 83, 0
3, 119828, Note_on_c, 0, 95, 0
3, 119840, Note_on_c, 0, 66, 0
3, 119844, Note_on_c, 0, 56, 0
3, 119844, Note_on_c, 0, 62, 0
3, 120180, Note_on_c, 0, 95, 75
3, 120184, Note_on_c, 0, 66, 57
3, 120188, Note_on_c, 0, 56, 55
3, 120192, Note_on_c, 0, 62, 55
3, 120192, Note_on_c, 0, 83, 62
3, 120232, Control_c, 0, 64, 127
3, 120332, Note_on_c, 0, 83, 0
3, 120356, Note_on_c, 0, 95, 0
3, 120408, Note_on_c, 0, 62, 0
3, 120416, Note_on_c, 0, 56, 0
3, 120424, Note_on_c, 0, 66, 0
3, 120800, Control_c, 0, 64, 0
3, 120812, Note_on_c, 0, 56, 67
3, 120816, Note_on_c, 0, 62, 64
3, 120820, Note_on_c, 0, 65, 66
3, 120820, Note_on_c, 0, 100, 81
3, 120828, Note_on_c, 0, 88, 77
3, 120892, Control_c, 0, 64, 127
3, 120936, Note_on_c, 0, 100, 0
3, 120944, Note_on_c, 0, 65, 0
3, 120948, Note_on_c, 0, 88, 0
3, 120952, Note_on_c, 0, 56, 0
3, 120972, Note_on_c, 0, 62, 0
3, 120988, Note_on_c, 0, 56, 53
3, 120996, Note_on_c, 0, 65, 64
3, 120996, Note_on_c, 0, 62, 31
3, 121000, Note_on_c, 0, 98, 63
3, 121004, Note_on_c, 0, 86, 58
3, 121056, Note_on_c, 0, 98, 0
3, 121056, Note_on_c, 0, 62, 0
3, 121084, Note_on_c, 0, 65, 0
3, 121100, Note_on_c, 0, 86, 0
3, 121120, Note_on_c, 0, 56, 0
3, 121216, Note_on_c, 0, 54, 60
3, 121220, Note_on_c, 0, 61, 52
3, 121220, Control_c, 0, 64, 0
3, 121220, Note_on_c, 0, 64, 58
3, 121224, Note_on_c, 0, 85, 69
3, 121224, Note_on_c, 0, 97, 75
3, 121228, Note_on_c, 0, 59, 57
3, 121340, Control_c, 0, 64, 127
3, 121716, Note_on_c, 0, 59, 0
3, 121728, Note_on_c, 0, 97, 0
3, 121736, Note_on_c, 0, 85, 0
3, 121740, Note_on_c, 0, 64, 0
3, 121748, Note_on_c, 0, 54, 0
3, 121788, Note_on_c, 0, 61, 0
3, 122084, Control_c, 0, 64, 0
3, 122112, Note_on_c, 0, 64, 55
3, 122116, Note_on_c, 0, 61, 43
3, 122116, Note_on_c, 0, 54, 48
3, 122124, Note_on_c, 0, 92, 60
3, 122124, Note_on_c, 0, 80, 54
3, 122132, Note_on_c, 0, 59, 35
3, 122156, Note_on_c, 0, 64, 0
3, 122164, Note_on_c, 0, 59, 0
3, 122168, Note_on_c, 0, 54, 0
3, 122172, Note_on_c, 0, 92, 0
3, 122188, Note_on_c, 0, 80, 0
3, 122212, Note_on_c, 0, 61, 0
3, 122500, Note_on_c, 0, 88, 67
3, 122500, Note_on_c, 0, 64, 55
3, 122504, Note_on_c, 0, 54, 44
3, 122504, Note_on_c, 0, 61, 38
3, 122508, Note_on_c, 0, 76, 48
3, 122508, Note_on_c, 0, 59, 45
3, 122564, Note_on_c, 0, 88, 0
3, 122568, Note_on_c, 0, 64, 0
3, 122576, Note_on_c, 0, 54, 0
3, 122592, Note_on_c, 0, 59, 0
3, 122596, Note_on_c, 0, 76, 0
3, 122616, Note_on_c, 0, 61, 0
3, 122860, Note_on_c, 0, 60, 46
3, 122864, Note_on_c, 0, 63, 59
3, 122868, Note_on_c, 0, 75, 68
3, 122868, Note_on_c, 0, 55, 61
3, 122872, Note_on_c, 0, 87, 69
3, 122880, Note_on_c, 0, 57, 52
3, 122944, Control_c, 0, 64, 127
3, 123228, Note_on_c, 0, 55, 0
3, 123248, Note_on_c, 0, 60, 0
3, 123252, Note_on_c, 0, 57, 0
3, 123256, Note_on_c, 0, 63, 0
3, 123260, Note_on_c, 0, 87, 0
3, 123288, Note_on_c, 0, 75, 0
3, 123512, Note_on_c, 0, 60, 66
3, 123516, Note_on_c, 0, 86, 60
3, 123520, Note_on_c, 0, 64, 62
3, 123520, Note_on_c, 0, 54, 60
3, 123524, Note_on_c, 0, 81, 60
3, 123524, Note_on_c, 0, 74, 37
3, 123540, Control_c, 0, 64, 0
3, 123544, Note_on_c, 0, 76, 33
3, 123564, Note_on_c, 0, 76, 0
3, 123608, Control_c, 0, 64, 127
3, 123636, Note_on_c, 0, 86, 0
3, 123652, Note_on_c, 0, 81, 0
3, 123684, Note_on_c, 0, 74, 0
3, 123700, Note_on_c, 0, 60, 0
3, 123708, Note_on_c, 0, 64, 0
3, 123760, Note_on_c, 0, 54, 0
3, 124048, Control_c, 0, 64, 0
3, 124280, Note_on_c, 0, 72, 84
3, 124280, Note_on_c, 0, 65, 95
3, 124280, Note_on_c, 0, 69, 91
3, 124280, Note_on_c, 0, 58, 73
3, 124284, Note_on_c, 0, 60, 76
3, 124284, Note_on_c, 0, 62, 81
3, 124380, Note_on_c, 0, 65, 0
3, 124384, Note_on_c, 0, 69, 0
3, 124384, Note_on_c, 0, 72, 0
3, 124384, Note_on_c, 0, 62, 0
3, 124392, Note_on_c, 0, 60, 0
3, 124400, Note_on_c, 0, 58, 0
3, 124668, Note_on_c, 0, 58, 60
3, 124668, Note_on_c, 0, 62, 68
3, 124672, Note_on_c, 0, 65, 87
3, 124672, Note_on_c, 0, 72, 79
3, 124672, Note_on_c, 0, 69, 81
3, 124672, Note_on_c, 0, 60, 60
3, 124748, Note_on_c, 0, 69, 0
3, 124776, Note_on_c, 0, 62, 0
3, 124776, Note_on_c, 0, 60, 0
3, 124780, Note_on_c, 0, 65, 0
3, 124800, Note_on_c, 0, 72, 0
3, 124820, Note_on_c, 0, 60, 31
3, 124820, Note_on_c, 0, 62, 42
3, 124824, Note_on_c, 0, 69, 41
3, 124972, Note_on_c, 0, 60, 0
3, 124984, Note_on_c, 0, 58, 0
3, 124984, Note_on_c, 0, 62, 0
3, 124988, Note_on_c, 0, 69, 0
3, 125184, Note_on_c, 0, 58, 48
3, 125188, Note_on_c, 0, 69, 65
3, 125192, Note_on_c, 0, 65, 59
3, 125192, Note_on_c, 0, 62, 53
3, 125192, Note_on_c, 0, 72, 56
3, 125200, Note_on_c, 0, 60, 44
3, 125308, Note_on_c, 0, 72, 0
3, 125312, Note_on_c, 0, 60, 0
3, 125328, Note_on_c, 0, 69, 0
3, 125328, Note_on_c, 0, 62, 0
3, 125332, Note_on_c, 0, 65, 0
3, 125336, Note_on_c, 0, 58, 0
3, 125568, Note_on_c, 0, 69, 62
3, 125572, Note_on_c, 0, 58, 37
3, 125572, Note_on_c, 0, 62, 46
3, 125576, Note_on_c, 0, 65, 49
3, 125588, Note_on_c, 0, 60, 38
3, 125680, Note_on_c, 0, 60, 0
3, 125688, Note_on_c, 0, 69, 0
3, 125696, Note_on_c, 0, 65, 0
3, 125700, Note_on_c, 0, 62, 0
3, 125700, Note_on_c, 0, 58, 0
3, 125952, Note_on_c, 0, 69, 71
3, 125956, Note_on_c, 0, 58, 46
3, 125956, Note_on_c, 0, 65, 64
3, 125956, Note_on_c, 0, 62, 53
3, 125960, Note_on_c, 0, 72, 58
3, 125964, Note_on_c, 0, 60, 47
3, 126140, Note_on_c, 0, 60, 0
3, 126148, Note_on_c, 0, 69, 0
3, 126148, Note_on_c, 0, 65, 0
3, 126156, Note_on_c, 0, 58, 0
3, 126156, Note_on_c, 0, 62, 0
3, 126156, Note_on_c, 0, 72, 0
3, 126592, Note_on_c, 0, 68, 69
3, 126596, Note_on_c, 0, 64, 65
3, 126600, Note_on_c, 0, 72, 64
3, 126600, Note_on_c, 0, 58, 52
3, 126604, Note_on_c, 0, 62, 58
3, 127388, Note_on_c, 0, 64, 0
3, 127408, Note_on_c, 0, 62, 0
3, 127432, Note_on_c, 0, 72, 0
3, 127436, Note_on_c, 0, 68, 0
3, 127440, Note_on_c, 0, 58, 0
3, 127480, Note_on_c, 0, 58, 46
3, 127480, Note_on_c, 0, 62, 57
3, 127484, Note_on_c, 0, 72, 60
3, 127488, Note_on_c, 0, 65, 65
3, 127492, Note_on_c, 0, 60, 54
3, 127496, Note_on_c, 0, 69, 45
3, 127508, Note_on_c, 0, 65, 0
3, 127512, Note_on_c, 0, 60, 0
3, 127520, Note_on_c, 0, 62, 0
3, 127520, Note_on_c, 0, 69, 0
3, 127524, Note_on_c, 0, 58, 0
3, 127528, Note_on_c, 0, 72, 0
3, 128240, Note_on_c, 0, 58, 57
3, 128244, Note_on_c, 0, 81, 88
3, 128248, Note_on_c, 0, 60, 62
3, 128248, Note_on_c, 0, 62, 62
3, 128248, Note_on_c, 0, 72, 83
3, 128336, Control_c, 0, 64, 127
3, 128396, Note_on_c, 0, 81, 0
3, 128428, Note_on_c, 0, 72, 0
3, 128432, Note_on_c, 0, 62, 0
3, 128436, Note_on_c, 0, 60, 0
3, 128452, Note_on_c, 0, 58, 0
3, 128512, Note_on_c, 0, 77, 55
3, 128516, Control_c, 0, 64, 0
3, 128516, Note_on_c, 0, 69, 51
3, 128524, Note_on_c, 0, 62, 47
3, 128528, Note_on_c, 0, 58, 33
3, 128536, Note_on_c, 0, 77, 0
3, 128536, Note_on_c, 0, 60, 35
3, 128540, Note_on_c, 0, 69, 0
3, 128552, Note_on_c, 0, 62, 0
3, 128560, Note_on_c, 0, 60, 0
3, 128580, Note_on_c, 0, 58, 0
3, 129408, Note_on_c, 0, 70, 75
3, 129408, Note_on_c, 0, 74, 75
3, 129412, Note_on_c, 0, 65, 82
3, 129412, Note_on_c, 0, 77, 73
3, 129416, Note_on_c, 0, 58, 57
3, 129416, Note_on_c, 0, 62, 61
3, 129536, Note_on_c, 0, 74, 0
3, 129548, Note_on_c, 0, 77, 0
3, 129560, Note_on_c, 0, 65, 0
3, 129564, Note_on_c, 0, 70, 0
3, 129572, Note_on_c, 0, 62, 0
3, 129592, Note_on_c, 0, 58, 0
3, 129796, Note_on_c, 0, 73, 75
3, 129800, Note_on_c, 0, 68, 64
3, 129800, Note_on_c, 0, 64, 71
3, 129800, Note_on_c, 0, 70, 67
3, 129804, Note_on_c, 0, 61, 64
3, 129860, Control_c, 0, 64, 127
3, 129952, Note_on_c, 0, 70, 0
3, 129976, Note_on_c, 0, 64, 0
3, 129984, Note_on_c, 0, 68, 0
3, 130008, Note_on_c, 0, 61, 0
3, 130028, Note_on_c, 0, 73, 0
3, 130056, Note_on_c, 0, 68, 67
3, 130056, Note_on_c, 0, 64, 73
3, 130060, Note_on_c, 0, 70, 67
3, 130068, Note_on_c, 0, 58, 57
3, 130080, Control_c, 0, 64, 0
3, 130132, Control_c, 0, 64, 127
3, 130360, Note_on_c, 0, 64, 0
3, 130396, Note_on_c, 0, 68, 0
3, 130396, Note_on_c, 0, 70, 0
3, 130420, Note_on_c, 0, 58, 0
3, 130428, Note_on_c, 0, 57, 80
3, 130436, Note_on_c, 0, 67, 88
3, 130440, Note_on_c, 0, 72, 78
3, 130444, Note_on_c, 0, 62, 83
3, 130452, Control_c, 0, 64, 0
3, 130960, Control_c, 0, 64, 127
3, 131596, Note_on_c, 0, 67, 0
3, 131620, Note_on_c, 0, 62, 0
3, 131664, Note_on_c, 0, 72, 0
3, 131676, Note_on_c, 0, 67, 66
3, 131700, Note_on_c, 0, 57, 0
3, 131724, Note_on_c, 0, 67, 0
3, 132028, Control_c, 0, 64, 0
3, 132072, Note_on_c, 0, 56, 76
3, 132072, Note_on_c, 0, 79, 87
3, 132076, Note_on_c, 0, 62, 76
3, 132076, Note_on_c, 0, 72, 83
3, 132076, Note_on_c, 0, 67, 87
3, 132084, Note_on_c, 0, 76, 61
3, 132100, Note_on_c, 0, 67, 0
3, 132104, Note_on_c, 0, 72, 0
3, 132104, Note_on_c, 0, 76, 0
3, 132116, Note_on_c, 0, 62, 0
3, 132124, Note_on_c, 0, 56, 0
3, 132128, Note_on_c, 0, 79, 0
3, 132176, Note_on_c, 0, 79, 66
3, 132188, Note_on_c, 0, 56, 71
3, 132188, Note_on_c, 0, 72, 69
3, 132188, Note_on_c, 0, 67, 62
3, 132196, Note_on_c, 0, 62, 64
3, 132332, Note_on_c, 0, 56, 0
3, 132336, Note_on_c, 0, 72, 0
3, 132340, Note_on_c, 0, 67, 0
3, 132356, Note_on_c, 0, 79, 0
3, 132364, Note_on_c, 0, 62, 0
3, 132436, Note_on_c, 0, 76, 67
3, 132436, Note_on_c, 0, 67, 61
3, 132440, Note_on_c, 0, 72, 58
3, 132440, Note_on_c, 0, 56, 59
3, 132444, Note_on_c, 0, 62, 55
3, 132536, Control_c, 0, 64, 127
3, 132616, Note_on_c, 0, 56, 0
3, 132616, Note_on_c, 0, 72, 0
3, 132628, Note_on_c, 0, 67, 0
3, 132652, Note_on_c, 0, 62, 0
3, 132676, Note_on_c, 0, 76, 0
3, 132704, Note_on_c, 0, 72, 65
3, 132712, Note_on_c, 0, 67, 64
3, 132712, Control_c, 0, 64, 0
3, 132712, Note_on_c, 0, 62, 55
3, 132720, Note_on_c, 0, 56, 56
3, 132952, Control_c, 0, 64, 127
3, 133116, Note_on_c, 0, 67, 0
3, 133120, Note_on_c, 0, 72, 0
3, 133128, Note_on_c, 0, 56, 0
3, 133136, Note_on_c, 0, 62, 0
3, 133216, Control_c, 0, 64, 0
3, 133220, Note_on_c, 0, 79, 77
3, 133220, Note_on_c, 0, 72, 74
3, 133220, Note_on_c, 0, 67, 74
3, 133224, Note_on_c, 0, 62, 71
3, 133232, Note_on_c, 0, 56, 58
3, 133348, Control_c, 0, 64, 127
3, 133436, Note_on_c, 0, 62, 0
3, 133444, Note_on_c, 0, 79, 0
3, 133484, Note_on_c, 0, 67, 0
3, 133508, Note_on_c, 0, 72, 0
3, 133524, Note_on_c, 0, 56, 0
3, 133580, Control_c, 0, 64, 0
3, 133612, Note_on_c, 0, 67, 40
3, 133612, Note_on_c, 0, 76, 47
3, 133616, Note_on_c, 0, 60, 50
3, 133616, Note_on_c, 0, 55, 41
3, 133620, Note_on_c, 0, 64, 40
3, 133620, Note_on_c, 0, 72, 41
3, 133716, Note_on_c, 0, 55, 0
3, 133720, Note_on_c, 0, 64, 0
3, 133720, Note_on_c, 0, 67, 0
3, 133724, Note_on_c, 0, 60, 0
3, 133724, Note_on_c, 0, 72, 0
3, 133728, Note_on_c, 0, 76, 0
3, 134400, Note_on_c, 0, 60, 66
3, 134400, Note_on_c, 0, 55, 65
3, 134400, Note_on_c, 0, 64, 66
3, 134404, Note_on_c, 0, 91, 83
3, 134408, Note_on_c, 0, 79, 77
3, 134408, Note_on_c, 0, 57, 50
3, 134412, Note_on_c, 0, 86, 68
3, 134432, Note_on_c, 0, 86, 0
3, 134432, Note_on_c, 0, 57, 0
3, 134448, Note_on_c, 0, 64, 0
3, 134456, Note_on_c, 0, 60, 0
3, 134456, Note_on_c, 0, 55, 0
3, 134476, Note_on_c, 0, 91, 0
3, 134500, Note_on_c, 0, 79, 0
3, 134788, Note_on_c, 0, 88, 77
3, 134792, Note_on_c, 0, 64, 56
3, 134792, Note_on_c, 0, 55, 55
3, 134792, Note_on_c, 0, 57, 48
3, 134792, Note_on_c, 0, 83, 68
3, 134792, Note_on_c, 0, 76, 58
3, 134792, Note_on_c, 0, 60, 51
3, 134880, Control_c, 0, 64, 127
3, 135144, Note_on_c, 0, 76, 0
3, 135152, Note_on_c, 0, 60, 0
3, 135156, Note_on_c, 0, 64, 0
3, 135176, Note_on_c, 0, 57, 0
3, 135176, Note_on_c, 0, 88, 0
3, 135176, Note_on_c, 0, 55, 0
3, 135176, Note_on_c, 0, 83, 0
3, 135504, Control_c, 0, 64, 0
3, 135540, Note_on_c, 0, 89, 80
3, 135540, Note_on_c, 0, 77, 87
3, 135544, Note_on_c, 0, 56, 58
3, 135544, Note_on_c, 0, 84, 82
3, 135544, Note_on_c, 0, 59, 64
3, 135548, Note_on_c, 0, 62, 71
3, 135560, Note_on_c, 0, 84, 0
3, 135560, Note_on_c, 0, 89, 0
3, 135564, Note_on_c, 0, 53, 26
3, 135568, Note_on_c, 0, 59, 0
3, 135568, Note_on_c, 0, 62, 0
3, 135584, Note_on_c, 0, 77, 0
3, 135584, Note_on_c, 0, 56, 0
3, 135584, Note_on_c, 0, 53, 0
3, 135804, Note_on_c, 0, 79, 82
3, 135808, Note_on_c, 0, 71, 82
3, 135812, Note_on_c, 0, 68, 83
3, 135812, Note_on_c, 0, 67, 84
3, 135816, Note_on_c, 0, 74, 69
3, 135932, Note_on_c, 0, 68, 0
3, 135940, Note_on_c, 0, 79, 0
3, 135944, Note_on_c, 0, 67, 0
3, 135948, Note_on_c, 0, 71, 0
3, 135960, Note_on_c, 0, 74, 0
3, 135980, Note_on_c, 0, 79, 67
3, 135984, Note_on_c, 0, 67, 64
3, 135992, Note_on_c, 0, 68, 56
3, 135996, Note_on_c, 0, 71, 71
3, 136004, Note_on_c, 0, 74, 53
3, 136160, Note_on_c, 0, 68, 0
3, 136160, Note_on_c, 0, 79, 0
3, 136168, Note_on_c, 0, 71, 0
3, 136176, Note_on_c, 0, 74, 0
3, 136204, Note_on_c, 0, 68, 56
3, 136208, Note_on_c, 0, 65, 76
3, 136212, Note_on_c, 0, 71, 68
3, 136216, Note_on_c, 0, 77, 65
3, 136216, Note_on_c, 0, 74, 54
3, 136224, Note_on_c, 0, 67, 0
3, 136300, Note_on_c, 0, 77, 0
3, 136312, Note_on_c, 0, 68, 0
3, 136332, Note_on_c, 0, 71, 0
3, 136332, Note_on_c, 0, 74, 0
3, 136356, Note_on_c, 0, 65, 0
3, 136356, Note_on_c, 0, 64, 51
3, 136376, Note_on_c, 0, 76, 54
3, 136376, Note_on_c, 0, 68, 29
3, 136516, Note_on_c, 0, 68, 0
3, 136524, Note_on_c, 0, 76, 0
3, 136580, Note_on_c, 0, 65, 61
3, 136588, Note_on_c, 0, 77, 74
3, 136588, Note_on_c, 0, 68, 71
3, 136596, Note_on_c, 0, 71, 40
3, 136600, Note_on_c, 0, 65, 0
3, 136624, Note_on_c, 0, 64, 0
3, 136624, Note_on_c, 0, 76, 18
3, 136644, Note_on_c, 0, 71, 0
3, 136656, Note_on_c, 0, 76, 0
3, 136668, Note_on_c, 0, 68, 0
3, 136692, Note_on_c, 0, 77, 0
3, 136728, Note_on_c, 0, 74, 59
3, 136732, Note_on_c, 0, 70, 57
3, 136736, Note_on_c, 0, 62, 56
3, 136740, Note_on_c, 0, 65, 51
3, 136808, Note_on_c, 0, 62, 0
3, 136812, Note_on_c, 0, 74, 0
3, 136816, Note_on_c, 0, 65, 0
3, 136840, Note_on_c, 0, 70, 0
3, 137096, Note_on_c, 0, 58, 64
3, 137096, Note_on_c, 0, 62, 68
3, 137100, Note_on_c, 0, 65, 67
3, 137100, Note_on_c, 0, 55, 72
3, 137104, Note_on_c, 0, 53, 63
3, 137112, Note_on_c, 0, 52, 57
3, 137132, Note_on_c, 0, 52, 0
3, 137752, Note_on_c, 0, 55, 0
3, 137756, Note_on_c, 0, 62, 0
3, 137788, Note_on_c, 0, 58, 0
3, 137800, Note_on_c, 0, 65, 0
3, 137844, Note_on_c, 0, 58, 42
3, 137848, Note_on_c, 0, 55, 54
3, 137852, Note_on_c, 0, 50, 44
3, 137852, Note_on_c, 0, 62, 57
3, 137860, Note_on_c, 0, 53, 0
3, 137908, Note_on_c, 0, 50, 0
3, 137916, Note_on_c, 0, 55, 0
3, 137940, Note_on_c, 0, 62, 0
3, 137952, Note_on_c, 0, 58, 0
3, 138240, Note_on_c, 0, 68, 56
3, 138240, Note_on_c, 0, 72, 60
3, 138244, Note_on_c, 0, 64, 61
3, 138244, Note_on_c, 0, 58, 42
3, 138252, Note_on_c, 0, 52, 58
3, 138488, Control_c, 0, 64, 127
3, 138628, Note_on_c, 0, 52, 0
3, 138680, Note_on_c, 0, 58, 0
3, 138700, Note_on_c, 0, 64, 0
3, 138700, Note_on_c, 0, 68, 0
3, 138752, Note_on_c, 0, 72, 0
3, 138860, Note_on_c, 0, 68, 63
3, 138864, Note_on_c, 0, 64, 63
3, 138864, Note_on_c, 0, 58, 54
3, 138880, Note_on_c, 0, 52, 56
3, 138888, Control_c, 0, 64, 0
3, 138916, Control_c, 0, 64, 127
3, 138964, Note_on_c, 0, 64, 0
3, 138968, Note_on_c, 0, 52, 0
3, 138992, Note_on_c, 0, 58, 0
3, 139000, Note_on_c, 0, 68, 0
3, 139244, Note_on_c, 0, 94, 91
3, 139248, Note_on_c, 0, 82, 88
3, 139248, Note_on_c, 0, 89, 89
3, 139252, Note_on_c, 0, 56, 78
3, 139252, Note_on_c, 0, 62, 83
3, 139252, Note_on_c, 0, 67, 92
3, 139264, Control_c, 0, 64, 0
3, 139368, Control_c, 0, 64, 127
3, 139504, Note_on_c, 0, 89, 0
3, 139508, Note_on_c, 0, 94, 0
3, 139512, Note_on_c, 0, 82, 0
3, 139512, Note_on_c, 0, 67, 0
3, 139520, Note_on_c, 0, 56, 0
3, 139520, Note_on_c, 0, 62, 0
3, 139536, Note_on_c, 0, 56, 33
3, 139540, Note_on_c, 0, 67, 66
3, 139548, Note_on_c, 0, 93, 74
3, 139548, Note_on_c, 0, 62, 59
3, 139548, Note_on_c, 0, 88, 58
3, 139552, Note_on_c, 0, 81, 57
3, 139556, Note_on_c, 0, 89, 45
3, 139572, Note_on_c, 0, 90, 26
3, 139576, Note_on_c, 0, 89, 0
3, 139644, Note_on_c, 0, 93, 0
3, 139644, Note_on_c, 0, 88, 0
3, 139652, Note_on_c, 0, 62, 0
3, 139660, Note_on_c, 0, 67, 0
3, 139664, Note_on_c, 0, 90, 0
3, 139680, Note_on_c, 0, 81, 0
3, 139704, Note_on_c, 0, 56, 0
3, 139720, Control_c, 0, 64, 0
3, 139748, Note_on_c, 0, 79, 53
3, 139748, Note_on_c, 0, 91, 51
3, 139752, Note_on_c, 0, 64, 62
3, 139752, Note_on_c, 0, 55, 64
3, 139756, Note_on_c, 0, 60, 60
3, 139760, Note_on_c, 0, 86, 61
3, 140096, Control_c, 0, 64, 127
3, 140112, Note_on_c, 0, 91, 0
3, 140140, Note_on_c, 0, 86, 0
3, 140164, Note_on_c, 0, 79, 0
3, 140164, Note_on_c, 0, 64, 0
3, 140228, Note_on_c, 0, 55, 0
3, 140240, Note_on_c, 0, 60, 0
3, 140392, Note_on_c, 0, 60, 61
3, 140392, Note_on_c, 0, 88, 57
3, 140392, Note_on_c, 0, 76, 54
3, 140396, Note_on_c, 0, 83, 56
3, 140396, Note_on_c, 0, 55, 64
3, 140400, Note_on_c, 0, 64, 57
3, 140400, Control_c, 0, 64, 0
3, 140428, Note_on_c, 0, 64, 0
3, 140444, Note_on_c, 0, 60, 0
3, 140444, Note_on_c, 0, 55, 0
3, 140448, Note_on_c, 0, 88, 0
3, 140448, Note_on_c, 0, 83, 0
3, 140456, Note_on_c, 0, 76, 0
3, 140796, Note_on_c, 0, 84, 79
3, 140800, Note_on_c, 0, 72, 68
3, 140800, Note_on_c, 0, 79, 70
3, 140804, Note_on_c, 0, 60, 65
3, 140808, Note_on_c, 0, 64, 68
3, 140812, Note_on_c, 0, 55, 69
3, 140932, Control_c, 0, 64, 127
3, 141028, Note_on_c, 0, 84, 0
3, 141068, Note_on_c, 0, 79, 0
3, 141076, Note_on_c, 0, 72, 0
3, 141124, Note_on_c, 0, 55, 0
3, 141132, Note_on_c, 0, 64, 0
3, 141152, Note_on_c, 0, 60, 0
3, 141256, Control_c, 0, 64, 0
3, 141296, Note_on_c, 0, 82, 65
3, 141296, Note_on_c, 0, 70, 63
3, 141296, Note_on_c, 0, 60, 57
3, 141304, Note_on_c, 0, 54, 54
3, 141304, Note_on_c, 0, 75, 48
3, 141308, Note_on_c, 0, 64, 49
3, 141404, Note_on_c, 0, 64, 0
3, 141416, Note_on_c, 0, 75, 0
3, 141424, Note_on_c, 0, 82, 0
3, 141424, Note_on_c, 0, 60, 0
3, 141424, Note_on_c, 0, 70, 0
3, 141428, Note_on_c, 0, 54, 0
3, 141676, Note_on_c, 0, 76, 57
3, 141676, Note_on_c, 0, 83, 52
3, 141676, Note_on_c, 0, 71, 54
3, 141676, Note_on_c, 0, 60, 51
3, 141680, Note_on_c, 0, 54, 49
3, 141680, Note_on_c, 0, 64, 51
3, 141792, Note_on_c, 0, 71, 0
3, 141800, Note_on_c, 0, 76, 0
3, 141824, Note_on_c, 0, 60, 0
3, 141824, Note_on_c, 0, 64, 0
3, 141828, Note_on_c, 0, 83, 0
3, 141832, Note_on_c, 0, 54, 0
3, 142104, Control_c, 0, 64, 127
3, 142320, Control_c, 0, 64, 0
3, 142320, Note_on_c, 0, 54, 69
3, 142324, Note_on_c, 0, 88, 80
3, 142324, Note_on_c, 0, 60, 67
3, 142328, Note_on_c, 0, 76, 71
3, 142328, Note_on_c, 0, 83, 74
3, 142332, Note_on_c, 0, 64, 62
3, 142396, Note_on_c, 0, 88, 0
3, 142396, Control_c, 0, 64, 127
3, 142408, Note_on_c, 0, 83, 0
3, 142408, Note_on_c, 0, 64, 0
3, 142412, Note_on_c, 0, 76, 0
3, 142428, Note_on_c, 0, 60, 0
3, 142432, Note_on_c, 0, 54, 0
3, 142440, Control_c, 0, 64, 0
3, 142456, Note_on_c, 0, 54, 23
3, 142468, Note_on_c, 0, 60, 33
3, 142472, Note_on_c, 0, 64, 35
3, 142476, Note_on_c, 0, 86, 28
3, 142480, Note_on_c, 0, 74, 36
3, 142544, Note_on_c, 0, 74, 0
3, 142556, Note_on_c, 0, 86, 0
3, 142560, Control_c, 0, 64, 127
3, 142572, Note_on_c, 0, 60, 0
3, 142592, Note_on_c, 0, 64, 0
3, 142648, Note_on_c, 0, 54, 0
3, 142688, Control_c, 0, 64, 0
3, 142696, Note_on_c, 0, 62, 71
3, 142700, Note_on_c, 0, 86, 71
3, 142700, Note_on_c, 0, 58, 58
3, 142700, Note_on_c, 0, 82, 71
3, 142700, Note_on_c, 0, 57, 66
3, 142704, Note_on_c, 0, 89, 79
3, 142704, Note_on_c, 0, 77, 78
3, 142708, Note_on_c, 0, 53, 61
3, 142800, Control_c, 0, 64, 127
3, 143084, Note_on_c, 0, 77, 0
3, 143092, Note_on_c, 0, 89, 0
3, 143092, Note_on_c, 0, 86, 0
3, 143108, Note_on_c, 0, 82, 0
3, 143112, Note_on_c, 0, 62, 0
3, 143116, Note_on_c, 0, 53, 0
3, 143128, Note_on_c, 0, 57, 0
3, 143136, Note_on_c, 0, 58, 0
3, 143176, Control_c, 0, 64, 0
3, 143196, Note_on_c, 0, 58, 37
3, 143200, Note_on_c, 0, 62, 56
3, 143212, Note_on_c, 0, 57, 32
3, 143212, Note_on_c, 0, 86, 41
3, 143216, Note_on_c, 0, 74, 35
3, 143244, Note_on_c, 0, 57, 0
3, 143252, Note_on_c, 0, 62, 0
3, 143264, Note_on_c, 0, 74, 0
3, 143276, Note_on_c, 0, 58, 0
3, 143292, Note_on_c, 0, 86, 0
3, 143596, Note_on_c, 0, 62, 61
3, 143596, Note_on_c, 0, 89, 55
3, 143596, Note_on_c, 0, 58, 40
3, 143600, Note_on_c, 0, 86, 37
3, 143600, Note_on_c, 0, 77, 35
3, 143604, Note_on_c, 0, 82, 31
3, 143604, Note_on_c, 0, 57, 42
3, 143612, Note_on_c, 0, 53, 37
3, 143712, Note_on_c, 0, 82, 0
3, 143716, Note_on_c, 0, 53, 0
3, 143720, Note_on_c, 0, 77, 0
3, 143728, Note_on_c, 0, 58, 0
3, 143732, Note_on_c, 0, 86, 0
3, 143732, Note_on_c, 0, 62, 0
3, 143732, Note_on_c, 0, 57, 0
3, 143732, Note_on_c, 0, 89, 0
3, 144112, Control_c, 0, 64, 127
3, 144176, Control_c, 0, 64, 0
3, 144280, Note_on_c, 0, 58, 64
3, 144280, Note_on_c, 0, 86, 87
3, 144280, Note_on_c, 0, 62, 74
3, 144284, Note_on_c, 0, 52, 79
3, 144372, Note_on_c, 0, 52, 0
3, 144372, Note_on_c, 0, 62, 0
3, 144376, Note_on_c, 0, 86, 0
3, 144392, Note_on_c, 0, 58, 0
3, 144456, Note_on_c, 0, 62, 63
3, 144460, Note_on_c, 0, 58, 48
3, 144460, Note_on_c, 0, 86, 60
3, 144464, Note_on_c, 0, 52, 64
3, 144464, Note_on_c, 0, 89, 71
3, 144464, Note_on_c, 0, 77, 54
3, 144468, Note_on_c, 0, 82, 48
3, 144616, Note_on_c, 0, 52, 0
3, 144620, Note_on_c, 0, 86, 0
3, 144624, Note_on_c, 0, 77, 0
3, 144628, Note_on_c, 0, 82, 0
3, 144636, Note_on_c, 0, 58, 0
3, 144640, Note_on_c, 0, 62, 0
3, 144648, Note_on_c, 0, 89, 0
3, 144656, Control_c, 0, 64, 127
3, 144692, Control_c, 0, 64, 0
3, 144760, Note_on_c, 0, 86, 71
3, 144764, Note_on_c, 0, 62, 48
3, 144764, Note_on_c, 0, 52, 62
3, 144768, Note_on_c, 0, 58, 40
3, 144772, Note_on_c, 0, 77, 48
3, 144780, Note_on_c, 0, 82, 34
3, 144896, Note_on_c, 0, 52, 0
3, 144904, Note_on_c, 0, 77, 0
3, 144904, Note_on_c, 0, 82, 0
3, 144908, Note_on_c, 0, 62, 0
3, 144912, Note_on_c, 0, 86, 0
3, 144952, Note_on_c, 0, 58, 0
3, 145016, Note_on_c, 0, 52, 66
3, 145020, Note_on_c, 0, 58, 59
3, 145020, Note_on_c, 0, 85, 64
3, 145020, Note_on_c, 0, 82, 61
3, 145020, Note_on_c, 0, 61, 64
3, 145020, Note_on_c, 0, 77, 70
3, 145028, Note_on_c, 0, 89, 69
3, 145088, Note_on_c, 0, 89, 0
3, 145088, Note_on_c, 0, 77, 0
3, 145092, Note_on_c, 0, 52, 0
3, 145092, Note_on_c, 0, 82, 0
3, 145096, Note_on_c, 0, 61, 0
3, 145104, Note_on_c, 0, 85, 0
3, 145124, Note_on_c, 0, 58, 0
3, 145544, Control_c, 0, 64, 127
3, 145764, Note_on_c, 0, 86, 80
3, 145804, Control_c, 0, 64, 0
3, 145820, Note_on_c, 0, 86, 0
3, 145916, Note_on_c, 0, 89, 77
3, 145920, Note_on_c, 0, 84, 74
3, 145924, Note_on_c, 0, 77, 66
3, 145936, Note_on_c, 0, 89, 0
3, 145940, Note_on_c, 0, 84, 0
3, 145948, Note_on_c, 0, 77, 0
3, 146164, Note_on_c, 0, 64, 79
3, 146164, Note_on_c, 0, 72, 73
3, 146164, Note_on_c, 0, 69, 69
3, 146168, Note_on_c, 0, 65, 71
3, 146172, Note_on_c, 0, 57, 69
3, 146344, Control_c, 0, 64, 127
3, 146492, Note_on_c, 0, 72, 0
3, 146496, Note_on_c, 0, 69, 0
3, 146520, Note_on_c, 0, 65, 0
3, 146548, Note_on_c, 0, 64, 0
3, 146592, Note_on_c, 0, 57, 0
3, 146672, Control_c, 0, 64, 0
3, 146676, Note_on_c, 0, 64, 55
3, 146684, Note_on_c, 0, 60, 54
3, 146684, Note_on_c, 0, 69, 55
3, 146684, Note_on_c, 0, 57, 50
3, 146688, Note_on_c, 0, 65, 55
3, 146728, Note_on_c, 0, 57, 0
3, 146728, Note_on_c, 0, 60, 0
3, 146736, Note_on_c, 0, 69, 0
3, 146744, Note_on_c, 0, 65, 0
3, 146748, Note_on_c, 0, 64, 0
3, 147048, Note_on_c, 0, 60, 64
3, 147052, Note_on_c, 0, 65, 58
3, 147056, Note_on_c, 0, 57, 55
3, 147116, Note_on_c, 0, 57, 0
3, 147132, Note_on_c, 0, 60, 0
3, 147164, Note_on_c, 0, 65, 0
3, 147424, Note_on_c, 0, 75, 64
3, 147424, Note_on_c, 0, 63, 51
3, 147424, Note_on_c, 0, 60, 43
3, 147428, Note_on_c, 0, 55, 53
3, 147428, Note_on_c, 0, 72, 66
3, 147432, Note_on_c, 0, 67, 63
3, 147444, Control_c, 0, 64, 127
3, 147580, Note_on_c, 0, 55, 0
3, 147624, Note_on_c, 0, 63, 0
3, 147628, Note_on_c, 0, 67, 0
3, 147640, Note_on_c, 0, 75, 0
3, 147648, Note_on_c, 0, 60, 0
3, 147652, Note_on_c, 0, 72, 0
3, 147688, Note_on_c, 0, 77, 71
3, 147692, Note_on_c, 0, 72, 62
3, 147692, Note_on_c, 0, 55, 68
3, 147696, Note_on_c, 0, 67, 38
3, 147696, Note_on_c, 0, 60, 41
3, 147704, Note_on_c, 0, 63, 34
3, 147724, Note_on_c, 0, 63, 0
3, 147772, Note_on_c, 0, 77, 0
3, 147776, Note_on_c, 0, 67, 0
3, 147788, Note_on_c, 0, 72, 0
3, 147800, Control_c, 0, 64, 0
3, 147804, Note_on_c, 0, 63, 45
3, 147824, Note_on_c, 0, 67, 19
3, 147836, Control_c, 0, 64, 127
3, 147836, Note_on_c, 0, 75, 43
3, 147916, Note_on_c, 0, 67, 0
3, 147936, Note_on_c, 0, 55, 0
3, 147996, Note_on_c, 0, 60, 0
3, 147996, Note_on_c, 0, 75, 0
3, 148012, Note_on_c, 0, 63, 0
3, 148064, Note_on_c, 0, 66, 53
3, 148064, Note_on_c, 0, 70, 60
3, 148064, Note_on_c, 0, 74, 68
3, 148072, Note_on_c, 0, 64, 68
3, 148072, Note_on_c, 0, 60, 63
3, 148072, Note_on_c, 0, 54, 57
3, 148084, Control_c, 0, 64, 0
3, 148164, Control_c, 0, 64, 127
3, 148212, Note_on_c, 0, 66, 0
3, 148244, Note_on_c, 0, 70, 0
3, 148244, Note_on_c, 0, 74, 0
3, 148260, Note_on_c, 0, 60, 0
3, 148264, Note_on_c, 0, 64, 0
3, 148288, Note_on_c, 0, 54, 0
3, 148456, Note_on_c, 0, 60, 54
3, 148480, Note_on_c, 0, 60, 0
3, 148556, Control_c, 0, 64, 0
3, 148592, Note_on_c, 0, 96, 91
3, 148596, Note_on_c, 0, 84, 95
3, 148596, Note_on_c, 0, 89, 83
3, 148600, Note_on_c, 0, 93, 80
3, 148600, Note_on_c, 0, 58, 67
3, 148600, Note_on_c, 0, 60, 79
3, 148604, Note_on_c, 0, 54, 74
3, 148608, Note_on_c, 0, 64, 75
3, 148616, Note_on_c, 0, 89, 0
3, 148632, Note_on_c, 0, 84, 0
3, 148636, Note_on_c, 0, 64, 0
3, 148660, Note_on_c, 0, 54, 0
3, 148660, Note_on_c, 0, 93, 0
3, 148660, Note_on_c, 0, 96, 0
3, 148672, Note_on_c, 0, 58, 0
3, 148676, Note_on_c, 0, 60, 0
3, 148684, Control_c, 0, 64, 127
3, 148708, Note_on_c, 0, 54, 57
3, 148712, Note_on_c, 0, 96, 77
3, 148716, Note_on_c, 0, 60, 38
3, 148716, Note_on_c, 0, 64, 65
3, 148720, Note_on_c, 0, 58, 57
3, 148724, Note_on_c, 0, 89, 77
3, 148724, Note_on_c, 0, 84, 79
3, 148724, Note_on_c, 0, 93, 60
3, 148800, Note_on_c, 0, 93, 0
3, 148800, Note_on_c, 0, 60, 0
3, 148808, Note_on_c, 0, 89, 0
3, 148812, Note_on_c, 0, 96, 0
3, 148832, Note_on_c, 0, 84, 0
3, 148848, Note_on_c, 0, 64, 0
3, 148896, Note_on_c, 0, 54, 0
3, 148900, Note_on_c, 0, 58, 0
3, 148916, Control_c, 0, 64, 0
3, 148952, Note_on_c, 0, 58, 49
3, 148960, Note_on_c, 0, 62, 69
3, 148960, Note_on_c, 0, 93, 84
3, 148964, Note_on_c, 0, 57, 62
3, 148968, Note_on_c, 0, 81, 70
3, 148968, Note_on_c, 0, 53, 60
3, 148972, Note_on_c, 0, 89, 71
3, 148972, Note_on_c, 0, 86, 68
3, 149336, Control_c, 0, 64, 127
3, 149436, Note_on_c, 0, 93, 0
3, 149440, Note_on_c, 0, 89, 0
3, 149444, Note_on_c, 0, 86, 0
3, 149484, Note_on_c, 0, 81, 0
3, 149556, Note_on_c, 0, 62, 0
3, 149568, Note_on_c, 0, 53, 0
3, 149580, Note_on_c, 0, 57, 0
3, 149584, Note_on_c, 0, 58, 0
3, 149620, Control_c, 0, 64, 0
3, 149636, Note_on_c, 0, 89, 55
3, 149644, Note_on_c, 0, 84, 55
3, 149644, Note_on_c, 0, 77, 38
3, 149648, Note_on_c, 0, 62, 60
3, 149652, Note_on_c, 0, 58, 39
3, 149660, Note_on_c, 0, 89, 0
3, 149660, Note_on_c, 0, 57, 34
3, 149668, Note_on_c, 0, 84, 0
3, 149680, Note_on_c, 0, 77, 0
3, 149688, Note_on_c, 0, 57, 0
3, 149696, Note_on_c, 0, 62, 0
3, 149708, Note_on_c, 0, 58, 0
3, 150508, Note_on_c, 0, 58, 37
3, 150512, Note_on_c, 0, 62, 54
3, 150516, Note_on_c, 0, 96, 66
3, 150516, Note_on_c, 0, 93, 57
3, 150516, Note_on_c, 0, 84, 54
3, 150520, Note_on_c, 0, 52, 49
3, 150520, Note_on_c, 0, 89, 48
3, 150640, Note_on_c, 0, 52, 0
3, 150648, Note_on_c, 0, 62, 0
3, 150656, Note_on_c, 0, 89, 0
3, 150660, Note_on_c, 0, 58, 0
3, 150660, Note_on_c, 0, 96, 0
3, 150664, Note_on_c, 0, 84, 0
3, 150672, Note_on_c, 0, 93, 0
3, 150892, Note_on_c, 0, 62, 64
3, 150892, Note_on_c, 0, 58, 42
3, 150900, Note_on_c, 0, 52, 59
3, 150900, Note_on_c, 0, 93, 57
3, 150900, Note_on_c, 0, 96, 65
3, 150900, Note_on_c, 0, 84, 62
3, 150908, Note_on_c, 0, 89, 49
3, 151012, Note_on_c, 0, 96, 0
3, 151016, Control_c, 0, 64, 127
3, 151032, Note_on_c, 0, 93, 0
3, 151032, Note_on_c, 0, 52, 0
3, 151040, Note_on_c, 0, 89, 0
3, 151048, Note_on_c, 0, 84, 0
3, 151072, Note_on_c, 0, 62, 0
3, 151076, Note_on_c, 0, 58, 0
3, 151220, Control_c, 0, 64, 0
3, 151272, Note_on_c, 0, 58, 37
3, 151272, Note_on_c, 0, 62, 53
3, 151272, Note_on_c, 0, 93, 54
3, 151280, Note_on_c, 0, 88, 49
3, 151284, Note_on_c, 0, 52, 45
3, 151284, Control_c, 0, 64, 127
3, 151288, Note_on_c, 0, 81, 27
3, 151340, Note_on_c, 0, 88, 0
3, 151352, Note_on_c, 0, 93, 0
3, 151380, Note_on_c, 0, 52, 0
3, 151392, Note_on_c, 0, 81, 0
3, 151396, Note_on_c, 0, 62, 0
3, 151412, Note_on_c, 0, 58, 0
3, 151548, Note_on_c, 0, 89, 55
3, 151548, Control_c, 0, 64, 0
3, 151548, Note_on_c, 0, 77, 53
3, 151552, Note_on_c, 0, 84, 57
3, 151552, Note_on_c, 0, 58, 47
3, 151556, Note_on_c, 0, 62, 52
3, 151560, Note_on_c, 0, 52, 51
3, 151692, Control_c, 0, 64, 127
3, 151836, Note_on_c, 0, 77, 0
3, 151856, Note_on_c, 0, 84, 0
3, 151868, Note_on_c, 0, 89, 0
3, 151880, Note_on_c, 0, 52, 0
3, 151932, Note_on_c, 0, 62, 0
3, 151964, Note_on_c, 0, 58, 0
3, 152012, Control_c, 0, 64, 0
3, 152044, Note_on_c, 0, 96, 91
3, 152044, Note_on_c, 0, 58, 60
3, 152048, Note_on_c, 0, 84, 88
3, 152048, Note_on_c, 0, 57, 68
3, 152048, Note_on_c, 0, 89, 80
3, 152048, Note_on_c, 0, 62, 75
3, 152056, Note_on_c, 0, 93, 75
3, 152056, Note_on_c, 0, 53, 69
3, 152316, Control_c, 0, 64, 127
3, 152424, Note_on_c, 0, 96, 0
3, 152440, Note_on_c, 0, 93, 0
3, 152444, Note_on_c, 0, 89, 0
3, 152456, Note_on_c, 0, 84, 0
3, 152524, Note_on_c, 0, 57, 0
3, 152544, Note_on_c, 0, 62, 0
3, 152568, Note_on_c, 0, 58, 0
3, 152572, Note_on_c, 0, 53, 0
3, 152680, Note_on_c, 0, 93, 57
3, 152684, Note_on_c, 0, 81, 56
3, 152684, Note_on_c, 0, 58, 58
3, 152688, Note_on_c, 0, 62, 66
3, 152688, Note_on_c, 0, 86, 48
3, 152692, Control_c, 0, 64, 0
3, 152692, Note_on_c, 0, 89, 32
3, 152692, Note_on_c, 0, 57, 49
3, 152704, Note_on_c, 0, 93, 0
3, 152712, Note_on_c, 0, 86, 0
3, 152712, Note_on_c, 0, 57, 0
3, 152716, Note_on_c, 0, 62, 0
3, 152716, Note_on_c, 0, 89, 0
3, 152732, Note_on_c, 0, 81, 0
3, 152736, Note_on_c, 0, 58, 0
3, 153476, Note_on_c, 0, 51, 34
3, 153536, Note_on_c, 0, 52, 57
3, 153548, Note_on_c, 0, 51, 0
3, 153568, Note_on_c, 0, 58, 35
3, 153568, Note_on_c, 0, 65, 51
3, 153572, Note_on_c, 0, 55, 40
3, 153576, Note_on_c, 0, 62, 55
3, 153584, Note_on_c, 0, 53, 46
3, 153592, Note_on_c, 0, 52, 0
3, 153868, Note_on_c, 0, 55, 0
3, 153896, Note_on_c, 0, 62, 0
3, 153936, Note_on_c, 0, 65, 0
3, 153960, Note_on_c, 0, 55, 35
3, 153960, Note_on_c, 0, 62, 42
3, 153972, Note_on_c, 0, 50, 31
3, 153976, Note_on_c, 0, 53, 0
3, 154128, Note_on_c, 0, 55, 0
3, 154180, Note_on_c, 0, 62, 0
3, 154188, Control_c, 0, 64, 127
3, 154212, Note_on_c, 0, 55, 73
3, 154216, Note_on_c, 0, 52, 66
3, 154216, Note_on_c, 0, 64, 62
3, 154220, Control_c, 0, 64, 0
3, 154304, Note_on_c, 0, 55, 0
3, 154308, Note_on_c, 0, 50, 0
3, 154320, Note_on_c, 0, 58, 0
3, 154324, Note_on_c, 0, 64, 0
3, 154340, Note_on_c, 0, 52, 0
3, 154348, Note_on_c, 0, 53, 50
3, 154352, Note_on_c, 0, 58, 26
3, 154356, Note_on_c, 0, 55, 49
3, 154360, Note_on_c, 0, 65, 49
3, 154372, Note_on_c, 0, 62, 55
3, 154516, Note_on_c, 0, 62, 0
3, 154540, Note_on_c, 0, 55, 0
3, 154556, Note_on_c, 0, 65, 0
3, 154568, Note_on_c, 0, 58, 0
3, 154600, Note_on_c, 0, 53, 0
3, 154604, Note_on_c, 0, 50, 38
3, 154624, Note_on_c, 0, 62, 25
3, 154660, Note_on_c, 0, 62, 0
3, 154740, Note_on_c, 0, 52, 50
3, 154744, Note_on_c, 0, 55, 31
3, 154752, Note_on_c, 0, 64, 54
3, 154756, Note_on_c, 0, 58, 13
3, 154780, Control_c, 0, 64, 127
3, 154832, Note_on_c, 0, 58, 0
3, 154832, Note_on_c, 0, 55, 0
3, 154860, Note_on_c, 0, 64, 0
3, 154948, Note_on_c, 0, 50, 0
3, 154976, Note_on_c, 0, 58, 68
3, 154976, Note_on_c, 0, 53, 70
3, 154976, Note_on_c, 0, 65, 72
3, 154984, Note_on_c, 0, 55, 74
3, 154988, Note_on_c, 0, 52, 0
3, 154992, Note_on_c, 0, 62, 50
3, 155000, Note_on_c, 0, 64, 37
3, 155020, Note_on_c, 0, 62, 0
3, 155032, Note_on_c, 0, 64, 0
3, 155056, Note_on_c, 0, 65, 0
3, 155068, Control_c, 0, 64, 0
3, 155072, Note_on_c, 0, 55, 0
3, 155076, Note_on_c, 0, 53, 0
3, 155080, Note_on_c, 0, 58, 0
3, 155116, Note_on_c, 0, 52, 54
3, 155128, Note_on_c, 0, 57, 54
3, 155128, Note_on_c, 0, 64, 53
3, 155144, Note_on_c, 0, 60, 45
3, 155164, Note_on_c, 0, 53, 17
3, 155284, Note_on_c, 0, 60, 0
3, 155300, Note_on_c, 0, 53, 0
3, 155312, Note_on_c, 0, 57, 0
3, 155340, Note_on_c, 0, 64, 0
3, 155348, Note_on_c, 0, 52, 0
3, 155376, Note_on_c, 0, 60, 40
3, 155376, Note_on_c, 0, 57, 38
3, 155376, Note_on_c, 0, 53, 26
3, 155380, Note_on_c, 0, 48, 51
3, 155396, Note_on_c, 0, 53, 0
3, 155400, Note_on_c, 0, 60, 0
3, 155400, Note_on_c, 0, 57, 0
3, 155408, Note_on_c, 0, 48, 0
3, 155868, Note_on_c, 0, 62, 56
3, 155872, Note_on_c, 0, 72, 48
3, 155876, Note_on_c, 0, 67, 53
3, 155876, Note_on_c, 0, 57, 54
3, 155964, Note_on_c, 0, 57, 0
3, 155972, Note_on_c, 0, 62, 0
3, 155980, Note_on_c, 0, 67, 0
3, 155980, Note_on_c, 0, 72, 0
3, 156224, Note_on_c, 0, 62, 42
3, 156232, Note_on_c, 0, 53, 53
3, 156232, Note_on_c, 0, 69, 41
3, 156236, Note_on_c, 0, 67, 40
3, 156312, Note_on_c, 0, 53, 0
3, 156384, Note_on_c, 0, 62, 0
3, 156416, Note_on_c, 0, 69, 0
3, 156416, Note_on_c, 0, 67, 0
3, 156760, Control_c, 0, 64, 127
3, 156940, Note_on_c, 0, 79, 76
3, 156944, Note_on_c, 0, 76, 74
3, 156944, Note_on_c, 0, 72, 78
3, 156948, Note_on_c, 0, 56, 64
3, 156948, Note_on_c, 0, 67, 76
3, 156952, Note_on_c, 0, 62, 64
3, 156968, Control_c, 0, 64, 0
3, 157072, Control_c, 0, 64, 127
3, 157340, Note_on_c, 0, 67, 0
3, 157348, Note_on_c, 0, 72, 0
3, 157348, Note_on_c, 0, 76, 0
3, 157352, Note_on_c, 0, 62, 0
3, 157372, Note_on_c, 0, 56, 0
3, 157388, Note_on_c, 0, 79, 0
3, 157436, Control_c, 0, 64, 0
3, 157456, Note_on_c, 0, 56, 46
3, 157460, Note_on_c, 0, 62, 41
3, 157460, Note_on_c, 0, 67, 37
3, 157464, Note_on_c, 0, 76, 43
3, 157480, Note_on_c, 0, 72, 38
3, 157528, Note_on_c, 0, 62, 0
3, 157548, Note_on_c, 0, 72, 0
3, 157548, Note_on_c, 0, 67, 0
3, 157552, Note_on_c, 0, 56, 0
3, 157592, Note_on_c, 0, 76, 0
3, 157828, Note_on_c, 0, 56, 46
3, 157832, Note_on_c, 0, 67, 41
3, 157836, Note_on_c, 0, 72, 43
3, 157840, Note_on_c, 0, 62, 30
3, 157860, Control_c, 0, 64, 127
3, 157944, Note_on_c, 0, 72, 0
3, 157972, Note_on_c, 0, 67, 0
3, 157984, Note_on_c, 0, 62, 0
3, 158180, Note_on_c, 0, 56, 0
3, 158184, Control_c, 0, 64, 0
3, 158196, Note_on_c, 0, 72, 47
3, 158196, Note_on_c, 0, 62, 46
3, 158200, Note_on_c, 0, 67, 52
3, 158204, Note_on_c, 0, 57, 46
3, 158252, Note_on_c, 0, 62, 0
3, 158272, Note_on_c, 0, 72, 0
3, 158272, Note_on_c, 0, 67, 0
3, 158292, Note_on_c, 0, 57, 0
3, 158328, Note_on_c, 0, 56, 33
3, 158400, Note_on_c, 0, 56, 0
3, 158420, Note_on_c, 0, 57, 55
3, 158420, Note_on_c, 0, 72, 60
3, 158424, Note_on_c, 0, 67, 68
3, 158424, Note_on_c, 0, 62, 63
3, 158576, Control_c, 0, 64, 127
3, 158736, Note_on_c, 0, 72, 0
3, 158760, Note_on_c, 0, 67, 0
3, 158828, Note_on_c, 0, 62, 0
3, 158944, Note_on_c, 0, 57, 0
3, 158952, Control_c, 0, 64, 0
3, 158968, Note_on_c, 0, 53, 43
3, 158972, Note_on_c, 0, 69, 52
3, 158976, Note_on_c, 0, 60, 45
3, 158976, Note_on_c, 0, 64, 39
3, 159004, Note_on_c, 0, 53, 0
3, 159028, Note_on_c, 0, 60, 0
3, 159040, Note_on_c, 0, 69, 0
3, 159040, Note_on_c, 0, 64, 0
3, 159356, Control_c, 0, 64, 127
3, 159700, Control_c, 0, 64, 0
3, 159724, Note_on_c, 0, 76, 79
3, 159728, Note_on_c, 0, 68, 81
3, 159732, Note_on_c, 0, 71, 79
3, 159736, Note_on_c, 0, 64, 82
3, 159740, Note_on_c, 0, 65, 81
3, 159988, Note_on_c, 0, 65, 0
3, 159988, Note_on_c, 0, 71, 0
3, 159992, Note_on_c, 0, 76, 0
3, 159992, Note_on_c, 0, 68, 0
3, 160008, Note_on_c, 0, 64, 0
3, 160032, Note_on_c, 0, 62, 48
3, 160100, Note_on_c, 0, 62, 0
3, 160112, Note_on_c, 0, 76, 75
3, 160116, Note_on_c, 0, 68, 69
3, 160120, Note_on_c, 0, 71, 68
3, 160120, Note_on_c, 0, 65, 71
3, 160120, Note_on_c, 0, 64, 71
3, 160296, Control_c, 0, 64, 127
3, 160320, Note_on_c, 0, 65, 0
3, 160340, Note_on_c, 0, 68, 0
3, 160348, Note_on_c, 0, 71, 0
3, 160352, Note_on_c, 0, 76, 0
3, 160388, Note_on_c, 0, 68, 32
3, 160388, Note_on_c, 0, 65, 50
3, 160392, Note_on_c, 0, 74, 64
3, 160392, Note_on_c, 0, 71, 50
3, 160400, Note_on_c, 0, 62, 55
3, 160404, Control_c, 0, 64, 0
3, 160412, Note_on_c, 0, 64, 0
3, 160504, Control_c, 0, 64, 127
3, 160628, Note_on_c, 0, 62, 0
3, 160680, Note_on_c, 0, 74, 0
3, 160684, Note_on_c, 0, 71, 0
3, 160692, Note_on_c, 0, 65, 0
3, 160700, Note_on_c, 0, 68, 0
3, 160856, Control_c, 0, 64, 0
3, 160880, Note_on_c, 0, 77, 73
3, 160880, Note_on_c, 0, 70, 67
3, 160884, Note_on_c, 0, 65, 72
3, 160884, Note_on_c, 0, 74, 71
3, 160888, Note_on_c, 0, 62, 49
3, 160908, Note_on_c, 0, 55, 51
3, 160928, Note_on_c, 0, 55, 0
3, 161120, Control_c, 0, 64, 127
3, 161124, Note_on_c, 0, 77, 0
3, 161124, Note_on_c, 0, 65, 0
3, 161124, Note_on_c, 0, 62, 0
3, 161128, Note_on_c, 0, 74, 0
3, 161140, Note_on_c, 0, 70, 0
3, 161160, Note_on_c, 0, 55, 32
3, 161188, Note_on_c, 0, 55, 0
3, 161208, Control_c, 0, 64, 0
3, 161256, Note_on_c, 0, 55, 33
3, 161264, Note_on_c, 0, 70, 54
3, 161268, Note_on_c, 0, 77, 63
3, 161268, Note_on_c, 0, 62, 47
3, 161272, Note_on_c, 0, 65, 53
3, 161280, Note_on_c, 0, 74, 45
3, 161400, Note_on_c, 0, 74, 0
3, 161444, Note_on_c, 0, 70, 0
3, 161444, Note_on_c, 0, 65, 0
3, 161468, Note_on_c, 0, 55, 0
3, 161484, Note_on_c, 0, 77, 0
3, 161500, Note_on_c, 0, 62, 0
3, 161536, Control_c, 0, 64, 127
3, 161540, Note_on_c, 0, 74, 66
3, 161540, Note_on_c, 0, 70, 57
3, 161544, Note_on_c, 0, 58, 47
3, 161548, Note_on_c, 0, 65, 62
3, 161560, Note_on_c, 0, 55, 35
3, 161596, Note_on_c, 0, 55, 0
3, 161648, Note_on_c, 0, 65, 0
3, 161668, Note_on_c, 0, 58, 0
3, 161676, Note_on_c, 0, 74, 0
3, 161680, Note_on_c, 0, 70, 0
3, 161704, Control_c, 0, 64, 0
3, 161732, Control_c, 0, 64, 127
3, 161988, Control_c, 0, 64, 0
3, 162032, Note_on_c, 0, 84, 85
3, 162036, Note_on_c, 0, 72, 80
3, 162040, Note_on_c, 0, 58, 44
3, 162044, Note_on_c, 0, 81, 57
3, 162044, Note_on_c, 0, 77, 64
3, 162048, Note_on_c, 0, 57, 45
3, 162048, Note_on_c, 0, 62, 57
3, 162184, Note_on_c, 0, 57, 0
3, 162188, Control_c, 0, 64, 127
3, 162220, Note_on_c, 0, 58, 0
3, 162240, Note_on_c, 0, 84, 0
3, 162248, Note_on_c, 0, 81, 0
3, 162248, Note_on_c, 0, 77, 0
3, 162248, Note_on_c, 0, 62, 0
3, 162284, Note_on_c, 0, 72, 0
3, 162308, Note_on_c, 0, 57, 37
3, 162340, Note_on_c, 0, 57, 0
3, 162368, Control_c, 0, 64, 0
3, 162424, Note_on_c, 0, 69, 59
3, 162424, Note_on_c, 0, 77, 55
3, 162428, Note_on_c, 0, 81, 52
3, 162428, Note_on_c, 0, 62, 59
3, 162432, Note_on_c, 0, 58, 38
3, 162432, Note_on_c, 0, 57, 37
3, 162432, Note_on_c, 0, 74, 57
3, 162440, Note_on_c, 0, 53, 37
3, 162460, Control_c, 0, 64, 127
3, 162620, Note_on_c, 0, 81, 0
3, 162628, Note_on_c, 0, 57, 0
3, 162632, Note_on_c, 0, 62, 0
3, 162636, Note_on_c, 0, 74, 0
3, 162640, Note_on_c, 0, 53, 0
3, 162640, Note_on_c, 0, 77, 0
3, 162644, Note_on_c, 0, 69, 0
3, 162644, Note_on_c, 0, 58, 0
3, 162732, Control_c, 0, 64, 0
3, 162808, Note_on_c, 0, 79, 55
3, 162808, Note_on_c, 0, 58, 38
3, 162816, Note_on_c, 0, 67, 41
3, 162816, Note_on_c, 0, 62, 46
3, 162824, Note_on_c, 0, 74, 50
3, 162824, Note_on_c, 0, 52, 43
3, 162896, Note_on_c, 0, 52, 0
3, 162920, Note_on_c, 0, 79, 0
3, 162920, Note_on_c, 0, 62, 0
3, 162924, Note_on_c, 0, 58, 0
3, 162928, Note_on_c, 0, 74, 0
3, 162928, Note_on_c, 0, 67, 0
3, 163196, Note_on_c, 0, 58, 38
3, 163200, Note_on_c, 0, 76, 49
3, 163200, Note_on_c, 0, 64, 46
3, 163204, Note_on_c, 0, 71, 49
3, 163208, Note_on_c, 0, 52, 42
3, 163216, Control_c, 0, 64, 127
3, 163308, Note_on_c, 0, 52, 0
3, 163308, Control_c, 0, 64, 0
3, 163312, Note_on_c, 0, 76, 0
3, 163316, Note_on_c, 0, 71, 0
3, 163324, Note_on_c, 0, 58, 0
3, 163348, Note_on_c, 0, 64, 0
3, 163564, Note_on_c, 0, 60, 54
3, 163568, Note_on_c, 0, 72, 40
3, 163576, Note_on_c, 0, 58, 47
3, 163576, Note_on_c, 0, 67, 43
3, 163580, Note_on_c, 0, 52, 51
3, 163580, Control_c, 0, 64, 127
3, 163588, Note_on_c, 0, 60, 0
3, 163600, Note_on_c, 0, 52, 0
3, 163608, Note_on_c, 0, 67, 0
3, 163632, Note_on_c, 0, 58, 0
3, 163644, Note_on_c, 0, 72, 0
3, 164208, Control_c, 0, 64, 0
3, 164232, Note_on_c, 0, 62, 74
3, 164232, Note_on_c, 0, 56, 74
3, 164232, Note_on_c, 0, 80, 83
3, 164236, Note_on_c, 0, 68, 91
3, 164240, Note_on_c, 0, 67, 78
3, 164324, Control_c, 0, 64, 127
3, 164336, Note_on_c, 0, 67, 0
3, 164336, Note_on_c, 0, 62, 0
3, 164360, Note_on_c, 0, 80, 0
3, 164360, Control_c, 0, 64, 0
3, 164372, Note_on_c, 0, 68, 0
3, 164388, Note_on_c, 0, 56, 0
3, 164436, Note_on_c, 0, 64, 49
3, 164436, Note_on_c, 0, 55, 57
3, 164440, Note_on_c, 0, 60, 46
3, 164440, Note_on_c, 0, 67, 53
3, 164444, Note_on_c, 0, 78, 29
3, 164444, Note_on_c, 0, 79, 48
3, 164452, Note_on_c, 0, 76, 46
3, 164472, Note_on_c, 0, 78, 0
3, 164480, Note_on_c, 0, 76, 0
3, 164500, Note_on_c, 0, 79, 0
3, 164504, Note_on_c, 0, 64, 0
3, 164520, Note_on_c, 0, 67, 0
3, 164528, Note_on_c, 0, 60, 0
3, 164532, Note_on_c, 0, 55, 0
3, 164664, Note_on_c, 0, 76, 65
3, 164668, Note_on_c, 0, 67, 64
3, 164668, Note_on_c, 0, 79, 60
3, 164668, Note_on_c, 0, 64, 57
3, 164672, Note_on_c, 0, 60, 47
3, 164672, Note_on_c, 0, 55, 55
3, 164792, Control_c, 0, 64, 127
3, 164940, Note_on_c, 0, 76, 0
3, 164944, Note_on_c, 0, 79, 0
3, 164984, Note_on_c, 0, 67, 0
3, 165000, Note_on_c, 0, 64, 0
3, 165012, Note_on_c, 0, 60, 0
3, 165024, Note_on_c, 0, 55, 0
3, 165112, Control_c, 0, 64, 0
3, 165124, Note_on_c, 0, 60, 48
3, 165132, Note_on_c, 0, 64, 50
3, 165136, Note_on_c, 0, 55, 35
3, 165140, Note_on_c, 0, 76, 24
3, 165148, Note_on_c, 0, 69, 39
3, 165164, Note_on_c, 0, 64, 0
3, 165168, Note_on_c, 0, 55, 0
3, 165176, Note_on_c, 0, 69, 0
3, 165176, Note_on_c, 0, 60, 0
3, 165204, Note_on_c, 0, 76, 0
3, 165384, Note_on_c, 0, 79, 76
3, 165384, Note_on_c, 0, 67, 73
3, 165392, Note_on_c, 0, 60, 60
3, 165392, Note_on_c, 0, 55, 63
3, 165392, Note_on_c, 0, 64, 54
3, 165412, Note_on_c, 0, 67, 0
3, 165416, Note_on_c, 0, 55, 0
3, 165420, Note_on_c, 0, 64, 0
3, 165424, Note_on_c, 0, 60, 0
3, 165436, Note_on_c, 0, 79, 0
3, 165508, Note_on_c, 0, 64, 57
3, 165512, Note_on_c, 0, 55, 71
3, 165512, Note_on_c, 0, 60, 58
3, 165516, Control_c, 0, 64, 127
3, 165516, Note_on_c, 0, 84, 77
3, 165520, Note_on_c, 0, 71, 46
3, 165524, Note_on_c, 0, 72, 57
3, 165536, Note_on_c, 0, 84, 0
3, 165556, Note_on_c, 0, 71, 0
3, 165568, Note_on_c, 0, 72, 0
3, 165584, Note_on_c, 0, 64, 0
3, 165608, Note_on_c, 0, 60, 0
3, 165608, Note_on_c, 0, 55, 0
3, 165752, Note_on_c, 0, 86, 88
3, 165756, Note_on_c, 0, 74, 80
3, 165756, Note_on_c, 0, 55, 75
3, 165760, Note_on_c, 0, 64, 74
3, 165764, Note_on_c, 0, 76, 64
3, 165764, Note_on_c, 0, 60, 67
3, 165784, Note_on_c, 0, 76, 0
3, 165804, Note_on_c, 0, 55, 0
3, 165808, Note_on_c, 0, 64, 0
3, 165812, Note_on_c, 0, 74, 0
3, 165828, Note_on_c, 0, 86, 0
3, 165856, Note_on_c, 0, 60, 0
3, 165868, Control_c, 0, 64, 0
3, 165904, Note_on_c, 0, 88, 66
3, 165904, Note_on_c, 0, 76, 62
3, 165904, Note_on_c, 0, 64, 50
3, 165908, Note_on_c, 0, 54, 58
3, 165908, Note_on_c, 0, 60, 55
3, 165912, Note_on_c, 0, 83, 47
3, 165916, Note_on_c, 0, 80, 31
3, 166032, Note_on_c, 0, 80, 0
3, 166040, Note_on_c, 0, 76, 0
3, 166040, Note_on_c, 0, 83, 0
3, 166044, Note_on_c, 0, 88, 0
3, 166044, Note_on_c, 0, 64, 0
3, 166052, Note_on_c, 0, 54, 0
3, 166056, Note_on_c, 0, 60, 0
3, 166136, Note_on_c, 0, 88, 60
3, 166140, Note_on_c, 0, 76, 57
3, 166144, Note_on_c, 0, 83, 46
3, 166148, Note_on_c, 0, 54, 50
3, 166148, Note_on_c, 0, 80, 36
3, 166152, Note_on_c, 0, 64, 46
3, 166152, Note_on_c, 0, 60, 47
3, 166204, Note_on_c, 0, 64, 0
3, 166208, Note_on_c, 0, 80, 0
3, 166212, Note_on_c, 0, 54, 0
3, 166212, Note_on_c, 0, 60, 0
3, 166216, Note_on_c, 0, 76, 0
3, 166216, Note_on_c, 0, 83, 0
3, 166224, Note_on_c, 0, 88, 0
3, 166928, Note_on_c, 0, 88, 71
3, 166928, Note_on_c, 0, 80, 52
3, 166932, Note_on_c, 0, 76, 71
3, 166932, Note_on_c, 0, 64, 71
3, 166936, Note_on_c, 0, 83, 58
3, 166936, Note_on_c, 0, 54, 60
3, 166936, Note_on_c, 0, 60, 68
3, 166960, Note_on_c, 0, 76, 0
3, 166964, Note_on_c, 0, 83, 0
3, 166964, Note_on_c, 0, 80, 0
3, 166976, Note_on_c, 0, 64, 0
3, 166980, Note_on_c, 0, 88, 0
3, 166984, Note_on_c, 0, 60, 0
3, 166988, Note_on_c, 0, 54, 0
3, 167284, Note_on_c, 0, 54, 64
3, 167284, Note_on_c, 0, 60, 65
3, 167288, Note_on_c, 0, 64, 72
3, 167288, Note_on_c, 0, 80, 71
3, 167292, Note_on_c, 0, 83, 74
3, 167292, Note_on_c, 0, 76, 85
3, 167292, Note_on_c, 0, 88, 73
3, 167300, Note_on_c, 0, 86, 54
3, 167308, Note_on_c, 0, 60, 0
3, 167320, Note_on_c, 0, 64, 0
3, 167324, Note_on_c, 0, 86, 0
3, 167328, Note_on_c, 0, 54, 0
3, 167340, Note_on_c, 0, 83, 0
3, 167340, Note_on_c, 0, 88, 0
3, 167344, Note_on_c, 0, 76, 0
3, 167360, Note_on_c, 0, 80, 0
3, 167432, Note_on_c, 0, 62, 44
3, 167436, Note_on_c, 0, 66, 57
3, 167436, Note_on_c, 0, 74, 69
3, 167440, Note_on_c, 0, 57, 56
3, 167440, Note_on_c, 0, 86, 41
3, 167456, Note_on_c, 0, 61, 29
3, 167456, Note_on_c, 0, 78, 27
3, 167476, Note_on_c, 0, 78, 0
3, 167488, Note_on_c, 0, 74, 0
3, 167488, Note_on_c, 0, 86, 0
3, 167496, Note_on_c, 0, 66, 0
3, 167508, Note_on_c, 0, 57, 0
3, 167520, Note_on_c, 0, 62, 0
3, 167540, Note_on_c, 0, 61, 0
3, 167800, Note_on_c, 0, 86, 72
3, 167804, Note_on_c, 0, 66, 55
3, 167804, Note_on_c, 0, 78, 62
3, 167804, Note_on_c, 0, 74, 72
3, 167808, Note_on_c, 0, 57, 50
3, 167812, Note_on_c, 0, 61, 44
3, 167812, Note_on_c, 0, 62, 54
3, 167836, Note_on_c, 0, 62, 0
3, 167836, Control_c, 0, 64, 127
3, 167888, Note_on_c, 0, 74, 0
3, 167896, Note_on_c, 0, 66, 0
3, 167900, Note_on_c, 0, 57, 0
3, 167916, Note_on_c, 0, 78, 0
3, 167940, Note_on_c, 0, 86, 0
3, 167964, Note_on_c, 0, 61, 0
3, 168160, Control_c, 0, 64, 0
3, 168184, Note_on_c, 0, 95, 92
3, 168188, Note_on_c, 0, 66, 77
3, 168188, Note_on_c, 0, 83, 89
3, 168192, Note_on_c, 0, 57, 68
3, 168196, Note_on_c, 0, 61, 59
3, 168196, Note_on_c, 0, 62, 68
3, 168212, Control_c, 0, 64, 127
3, 168328, Note_on_c, 0, 57, 0
3, 168332, Note_on_c, 0, 95, 0
3, 168340, Note_on_c, 0, 62, 0
3, 168344, Note_on_c, 0, 83, 0
3, 168348, Note_on_c, 0, 61, 0
3, 168352, Note_on_c, 0, 66, 0
3, 168432, Note_on_c, 0, 95, 75
3, 168436, Note_on_c, 0, 83, 68
3, 168444, Note_on_c, 0, 66, 42
3, 168468, Note_on_c, 0, 66, 0
3, 168468, Note_on_c, 0, 95, 0
3, 168480, Note_on_c, 0, 83, 0
3, 168540, Control_c, 0, 64, 0
3, 168568, Note_on_c, 0, 66, 46
3, 168572, Note_on_c, 0, 89, 49
3, 168584, Note_on_c, 0, 77, 25
3, 168596, Note_on_c, 0, 89, 0
3, 168600, Note_on_c, 0, 66, 0
3, 168604, Note_on_c, 0, 77, 0
3, 168744, Control_c, 0, 64, 127
3, 168796, Note_on_c, 0, 66, 57
3, 168812, Note_on_c, 0, 57, 24
3, 168816, Note_on_c, 0, 89, 76
3, 168820, Note_on_c, 0, 77, 66
3, 168836, Note_on_c, 0, 57, 0
3, 168864, Note_on_c, 0, 77, 0
3, 168864, Note_on_c, 0, 89, 0
3, 168880, Note_on_c, 0, 66, 0
3, 168924, Control_c, 0, 64, 0
3, 168952, Note_on_c, 0, 88, 62
3, 168952, Note_on_c, 0, 67, 63
3, 168952, Note_on_c, 0, 76, 53
3, 168956, Note_on_c, 0, 56, 49
3, 168956, Note_on_c, 0, 62, 54
3, 168960, Note_on_c, 0, 84, 53
3, 169056, Control_c, 0, 64, 127
3, 169104, Note_on_c, 0, 67, 0
3, 169112, Note_on_c, 0, 84, 0
3, 169116, Note_on_c, 0, 56, 0
3, 169116, Note_on_c, 0, 88, 0
3, 169116, Note_on_c, 0, 76, 0
3, 169132, Note_on_c, 0, 62, 0
3, 169200, Note_on_c, 0, 84, 68
3, 169200, Note_on_c, 0, 62, 55
3, 169204, Note_on_c, 0, 56, 58
3, 169204, Note_on_c, 0, 76, 63
3, 169204, Note_on_c, 0, 88, 57
3, 169204, Note_on_c, 0, 67, 64
3, 169456, Note_on_c, 0, 88, 0
3, 169464, Note_on_c, 0, 84, 0
3, 169500, Note_on_c, 0, 76, 0
3, 169508, Note_on_c, 0, 62, 0
3, 169516, Note_on_c, 0, 67, 0
3, 169548, Note_on_c, 0, 56, 0
3, 169712, Note_on_c, 0, 67, 60
3, 169712, Note_on_c, 0, 56, 53
3, 169716, Note_on_c, 0, 72, 51
3, 169720, Note_on_c, 0, 79, 43
3, 169720, Note_on_c, 0, 62, 49
3, 169732, Note_on_c, 0, 76, 40
3, 169848, Note_on_c, 0, 76, 0
3, 169856, Note_on_c, 0, 67, 0
3, 169864, Note_on_c, 0, 62, 0
3, 169868, Note_on_c, 0, 56, 0
3, 169868, Note_on_c, 0, 72, 0
3, 169872, Note_on_c, 0, 79, 0
3, 169960, Control_c, 0, 64, 0
3, 169968, Note_on_c, 0, 79, 71
3, 169968, Note_on_c, 0, 76, 71
3, 169972, Note_on_c, 0, 56, 67
3, 169972, Note_on_c, 0, 72, 66
3, 169976, Note_on_c, 0, 62, 64
3, 169976, Note_on_c, 0, 67, 71
3, 170008, Control_c, 0, 64, 127
3, 170152, Note_on_c, 0, 67, 0
3, 170152, Note_on_c, 0, 79, 0
3, 170160, Note_on_c, 0, 62, 0
3, 170164, Note_on_c, 0, 76, 0
3, 170180, Note_on_c, 0, 72, 0
3, 170216, Note_on_c, 0, 56, 0
3, 170448, Control_c, 0, 64, 0
3, 170476, Note_on_c, 0, 61, 46
3, 170484, Note_on_c, 0, 64, 55
3, 170488, Note_on_c, 0, 54, 39
3, 170488, Note_on_c, 0, 68, 38
3, 170496, Note_on_c, 0, 73, 21
3, 170496, Note_on_c, 0, 76, 24
3, 170508, Note_on_c, 0, 68, 0
3, 170512, Note_on_c, 0, 54, 0
3, 170516, Note_on_c, 0, 73, 0
3, 170516, Note_on_c, 0, 64, 0
3, 170516, Note_on_c, 0, 76, 0
3, 170528, Note_on_c, 0, 61, 0
3, 170724, Note_on_c, 0, 76, 71
3, 170728, Note_on_c, 0, 68, 70
3, 170728, Note_on_c, 0, 73, 55
3, 170728, Note_on_c, 0, 64, 65
3, 170732, Note_on_c, 0, 61, 44
3, 170732, Note_on_c, 0, 54, 53
3, 170856, Control_c, 0, 64, 127
3, 170960, Note_on_c, 0, 64, 0
3, 171056, Note_on_c, 0, 54, 0
3, 171068, Note_on_c, 0, 61, 0
3, 171100, Note_on_c, 0, 68, 0
3, 171140, Note_on_c, 0, 73, 0
3, 171156, Note_on_c, 0, 76, 0
3, 171220, Control_c, 0, 64, 0
3, 171248, Note_on_c, 0, 68, 40
3, 171252, Note_on_c, 0, 64, 45
3, 171256, Note_on_c, 0, 61, 46
3, 171264, Note_on_c, 0, 54, 37
3, 171372, Note_on_c, 0, 64, 0
3, 171376, Note_on_c, 0, 61, 0
3, 171384, Note_on_c, 0, 54, 0
3, 171396, Note_on_c, 0, 68, 0
3, 171624, Note_on_c, 0, 84, 81
3, 171632, Note_on_c, 0, 72, 65
3, 171636, Note_on_c, 0, 61, 60
3, 171640, Note_on_c, 0, 54, 57
3, 171688, Note_on_c, 0, 72, 0
3, 171704, Note_on_c, 0, 84, 0
3, 171720, Note_on_c, 0, 54, 0
3, 171748, Note_on_c, 0, 61, 0
3, 171860, Control_c, 0, 64, 127
3, 171964, Control_c, 0, 64, 0
3, 172024, Note_on_c, 0, 65, 71
3, 172024, Note_on_c, 0, 61, 55
3, 172028, Note_on_c, 0, 60, 61
3, 172028, Note_on_c, 0, 75, 83
3, 172028, Note_on_c, 0, 55, 70
3, 172028, Note_on_c, 0, 87, 86
3, 172044, Note_on_c, 0, 64, 37
3, 172068, Note_on_c, 0, 64, 0
3, 172092, Control_c, 0, 64, 127
3, 172184, Note_on_c, 0, 75, 0
3, 172192, Note_on_c, 0, 55, 0
3, 172192, Note_on_c, 0, 87, 0
3, 172200, Note_on_c, 0, 65, 0
3, 172204, Note_on_c, 0, 60, 0
3, 172220, Note_on_c, 0, 61, 0
3, 172280, Note_on_c, 0, 61, 59
3, 172284, Note_on_c, 0, 89, 78
3, 172284, Note_on_c, 0, 65, 72
3, 172284, Note_on_c, 0, 60, 71
3, 172292, Note_on_c, 0, 55, 58
3, 172292, Note_on_c, 0, 77, 71
3, 172344, Note_on_c, 0, 77, 0
3, 172344, Note_on_c, 0, 89, 0
3, 172352, Note_on_c, 0, 55, 0
3, 172356, Note_on_c, 0, 65, 0
3, 172376, Note_on_c, 0, 60, 0
3, 172384, Note_on_c, 0, 61, 0
3, 172392, Control_c, 0, 64, 0
3, 172416, Control_c, 0, 64, 127
3, 172420, Note_on_c, 0, 65, 48
3, 172424, Note_on_c, 0, 61, 52
3, 172424, Note_on_c, 0, 60, 36
3, 172428, Note_on_c, 0, 55, 52
3, 172440, Note_on_c, 0, 75, 48
3, 172440, Note_on_c, 0, 87, 47
3, 172528, Note_on_c, 0, 55, 0
3, 172544, Note_on_c, 0, 60, 0
3, 172544, Note_on_c, 0, 65, 0
3, 172556, Note_on_c, 0, 87, 0
3, 172580, Note_on_c, 0, 61, 0
3, 172592, Note_on_c, 0, 75, 0
3, 172656, Note_on_c, 0, 64, 78
3, 172656, Note_on_c, 0, 60, 74
3, 172660, Note_on_c, 0, 54, 73
3, 172660, Note_on_c, 0, 86, 74
3, 172664, Control_c, 0, 64, 0
3, 172664, Note_on_c, 0, 74, 77
3, 172680, Note_on_c, 0, 80, 32
3, 172704, Note_on_c, 0, 80, 0
3, 172744, Control_c, 0, 64, 127
3, 172776, Note_on_c, 0, 74, 0
3, 172808, Note_on_c, 0, 86, 0
3, 172816, Note_on_c, 0, 64, 0
3, 172820, Note_on_c, 0, 60, 0
3, 172824, Note_on_c, 0, 54, 0
3, 172924, Note_on_c, 0, 60, 79
3, 172928, Note_on_c, 0, 54, 77
3, 172928, Note_on_c, 0, 64, 78
3, 172928, Note_on_c, 0, 96, 88
3, 172936, Note_on_c, 0, 84, 72
3, 172956, Note_on_c, 0, 84, 0
3, 172964, Note_on_c, 0, 64, 0
3, 172976, Note_on_c, 0, 60, 0
3, 172976, Note_on_c, 0, 54, 0
3, 172976, Note_on_c, 0, 96, 0
3, 173040, Note_on_c, 0, 96, 85
3, 173040, Note_on_c, 0, 60, 71
3, 173044, Note_on_c, 0, 64, 76
3, 173044, Note_on_c, 0, 54, 71
3, 173044, Note_on_c, 0, 84, 82
3, 173076, Note_on_c, 0, 64, 0
3, 173080, Note_on_c, 0, 84, 0
3, 173088, Note_on_c, 0, 54, 0
3, 173088, Note_on_c, 0, 96, 0
3, 173100, Note_on_c, 0, 60, 0
3, 173148, Control_c, 0, 64, 0
3, 173160, Note_on_c, 0, 60, 67
3, 173160, Note_on_c, 0, 64, 73
3, 173164, Note_on_c, 0, 93, 83
3, 173164, Note_on_c, 0, 54, 67
3, 173172, Note_on_c, 0, 81, 72
3, 173188, Note_on_c, 0, 64, 0
3, 173204, Note_on_c, 0, 81, 0
3, 173208, Note_on_c, 0, 60, 0
3, 173208, Note_on_c, 0, 54, 0
3, 173212, Note_on_c, 0, 93, 0
3, 173240, Control_c, 0, 64, 127
3, 173284, Note_on_c, 0, 54, 69
3, 173288, Note_on_c, 0, 64, 66
3, 173288, Note_on_c, 0, 60, 63
3, 173292, Note_on_c, 0, 93, 74
3, 173300, Note_on_c, 0, 81, 61
3, 173312, Note_on_c, 0, 93, 0
3, 173312, Note_on_c, 0, 60, 0
3, 173312, Note_on_c, 0, 64, 0
3, 173320, Note_on_c, 0, 81, 0
3, 173348, Note_on_c, 0, 54, 0
3, 173380, Control_c, 0, 64, 0
3, 173408, Note_on_c, 0, 58, 74
3, 173412, Note_on_c, 0, 62, 90
3, 173412, Note_on_c, 0, 57, 77
3, 173416, Note_on_c, 0, 89, 88
3, 173420, Note_on_c, 0, 53, 76
3, 173420, Note_on_c, 0, 77, 92
3, 173580, Note_on_c, 0, 89, 0
3, 173616, Note_on_c, 0, 58, 0
3, 173620, Note_on_c, 0, 77, 0
3, 173624, Note_on_c, 0, 62, 0
3, 173628, Note_on_c, 0, 53, 0
3, 173628, Note_on_c, 0, 57, 0
3, 174328, Note_on_c, 0, 65, 44
3, 174332, Note_on_c, 0, 58, 35
3, 174332, Note_on_c, 0, 55, 29
3, 174336, Note_on_c, 0, 62, 38
3, 174336, Note_on_c, 0, 52, 35
3, 174340, Note_on_c, 0, 53, 44
3, 174368, Note_on_c, 0, 52, 0
3, 174484, Note_on_c, 0, 65, 0
3, 174492, Note_on_c, 0, 55, 0
3, 174496, Note_on_c, 0, 58, 0
3, 174496, Note_on_c, 0, 62, 0
3, 174504, Note_on_c, 0, 53, 0
3, 175028, Note_on_c, 0, 51, 25
3, 175080, Note_on_c, 0, 51, 0
3, 175084, Note_on_c, 0, 52, 39
3, 175096, Note_on_c, 0, 55, 66
3, 175100, Note_on_c, 0, 65, 51
3, 175104, Note_on_c, 0, 58, 37
3, 175108, Note_on_c, 0, 61, 35
3, 175108, Note_on_c, 0, 53, 48
3, 175136, Note_on_c, 0, 52, 0
3, 175504, Control_c, 0, 64, 127
3, 175524, Note_on_c, 0, 55, 0
3, 175532, Note_on_c, 0, 65, 0
3, 175536, Note_on_c, 0, 58, 0
3, 175536, Note_on_c, 0, 53, 0
3, 175544, Note_on_c, 0, 61, 0
3, 175712, Note_on_c, 0, 65, 66
3, 175712, Note_on_c, 0, 58, 52
3, 175712, Note_on_c, 0, 55, 62
3, 175716, Note_on_c, 0, 61, 50
3, 175716, Note_on_c, 0, 53, 65
3, 175732, Note_on_c, 0, 55, 0
3, 175748, Note_on_c, 0, 58, 0
3, 175760, Note_on_c, 0, 61, 0
3, 175768, Note_on_c, 0, 53, 0
3, 175772, Note_on_c, 0, 65, 0
3, 175896, Note_on_c, 0, 80, 28
3, 175920, Note_on_c, 0, 80, 0
3, 175924, Control_c, 0, 64, 0
3, 175992, Note_on_c, 0, 62, 67
3, 175996, Note_on_c, 0, 57, 54
3, 175996, Note_on_c, 0, 84, 82
3, 175996, Note_on_c, 0, 72, 79
3, 176000, Note_on_c, 0, 58, 46
3, 176020, Note_on_c, 0, 57, 0
3, 176020, Note_on_c, 0, 62, 0
3, 176028, Note_on_c, 0, 72, 0
3, 176032, Note_on_c, 0, 84, 0
3, 176036, Note_on_c, 0, 58, 0
3, 176100, Note_on_c, 0, 84, 78
3, 176104, Note_on_c, 0, 62, 64
3, 176104, Note_on_c, 0, 58, 45
3, 176104, Note_on_c, 0, 72, 74
3, 176108, Note_on_c, 0, 57, 37
3, 176128, Note_on_c, 0, 62, 0
3, 176132, Note_on_c, 0, 57, 0
3, 176140, Note_on_c, 0, 84, 0
3, 176140, Note_on_c, 0, 72, 0
3, 176148, Note_on_c, 0, 58, 0
3, 176220, Note_on_c, 0, 62, 64
3, 176228, Note_on_c, 0, 58, 51
3, 176228, Note_on_c, 0, 57, 41
3, 176232, Note_on_c, 0, 81, 74
3, 176236, Note_on_c, 0, 69, 65
3, 176248, Note_on_c, 0, 62, 0
3, 176252, Note_on_c, 0, 81, 0
3, 176252, Note_on_c, 0, 57, 0
3, 176268, Note_on_c, 0, 58, 0
3, 176268, Note_on_c, 0, 69, 0
3, 176364, Note_on_c, 0, 81, 66
3, 176364, Note_on_c, 0, 62, 48
3, 176368, Note_on_c, 0, 69, 71
3, 176372, Note_on_c, 0, 58, 35
3, 176376, Note_on_c, 0, 57, 35
3, 176384, Note_on_c, 0, 81, 0
3, 176388, Note_on_c, 0, 62, 0
3, 176388, Note_on_c, 0, 69, 0
3, 176396, Note_on_c, 0, 58, 0
3, 176400, Note_on_c, 0, 57, 0
3, 176516, Note_on_c, 0, 58, 65
3, 176516, Note_on_c, 0, 77, 78
3, 176520, Note_on_c, 0, 57, 55
3, 176524, Note_on_c, 0, 65, 71
3, 176524, Note_on_c, 0, 62, 54
3, 176536, Note_on_c, 0, 77, 0
3, 176540, Note_on_c, 0, 65, 0
3, 176540, Note_on_c, 0, 57, 0
3, 176544, Note_on_c, 0, 62, 0
3, 176552, Note_on_c, 0, 58, 0
3, 176836, Note_on_c, 0, 51, 29
3, 176864, Note_on_c, 0, 52, 70
3, 176868, Note_on_c, 0, 58, 57
3, 176868, Note_on_c, 0, 65, 65
3, 176872, Note_on_c, 0, 51, 0
3, 176872, Note_on_c, 0, 55, 71
3, 176872, Note_on_c, 0, 62, 64
3, 176880, Note_on_c, 0, 53, 62
3, 176900, Note_on_c, 0, 52, 0
3, 177636, Note_on_c, 0, 62, 0
3, 177640, Note_on_c, 0, 55, 0
3, 177688, Note_on_c, 0, 58, 0
3, 177736, Note_on_c, 0, 65, 0
3, 177784, Note_on_c, 0, 62, 45
3, 177784, Note_on_c, 0, 55, 53
3, 177788, Note_on_c, 0, 50, 47
3, 177792, Note_on_c, 0, 58, 33
3, 177824, Note_on_c, 0, 53, 0
3, 177900, Note_on_c, 0, 50, 0
3, 177904, Note_on_c, 0, 55, 0
3, 177908, Note_on_c, 0, 62, 0
3, 177940, Note_on_c, 0, 58, 0
3, 178092, Note_on_c, 0, 50, 24
3, 178128, Note_on_c, 0, 50, 0
3, 178140, Note_on_c, 0, 51, 23
3, 178172, Note_on_c, 0, 55, 47
3, 178180, Note_on_c, 0, 58, 34
3, 178180, Note_on_c, 0, 52, 44
3, 178184, Note_on_c, 0, 61, 35
3, 178188, Note_on_c, 0, 64, 53
3, 178216, Note_on_c, 0, 51, 0
3, 178356, Note_on_c, 0, 58, 0
3, 178356, Note_on_c, 0, 55, 0
3, 178356, Note_on_c, 0, 61, 0
3, 178356, Note_on_c, 0, 64, 0
3, 178364, Note_on_c, 0, 52, 0
3, 178560, Note_on_c, 0, 55, 54
3, 178564, Note_on_c, 0, 61, 36
3, 178564, Note_on_c, 0, 58, 39
3, 178568, Note_on_c, 0, 65, 50
3, 178568, Note_on_c, 0, 53, 55
3, 178696, Note_on_c, 0, 65, 0
3, 178696, Note_on_c, 0, 55, 0
3, 178708, Note_on_c, 0, 61, 0
3, 178716, Note_on_c, 0, 58, 0
3, 178776, Note_on_c, 0, 53, 0
3, 178936, Note_on_c, 0, 55, 56
3, 178944, Note_on_c, 0, 58, 50
3, 178952, Note_on_c, 0, 61, 45
3, 178952, Note_on_c, 0, 67, 54
3, 178956, Note_on_c, 0, 64, 47
3, 179008, Control_c, 0, 64, 127
3, 179088, Note_on_c, 0, 64, 0
3, 179116, Note_on_c, 0, 58, 0
3, 179120, Note_on_c, 0, 61, 0
3, 179136, Note_on_c, 0, 67, 0
3, 179196, Note_on_c, 0, 55, 0
3, 179204, Note_on_c, 0, 58, 44
3, 179212, Note_on_c, 0, 61, 55
3, 179220, Note_on_c, 0, 64, 51
3, 179224, Note_on_c, 0, 52, 44
3, 179340, Note_on_c, 0, 64, 0
3, 179364, Note_on_c, 0, 52, 0
3, 179368, Note_on_c, 0, 58, 0
3, 179376, Note_on_c, 0, 61, 0
3, 179576, Control_c, 0, 64, 0
3, 179584, Note_on_c, 0, 55, 58
3, 179584, Note_on_c, 0, 60, 60
3, 179588, Note_on_c, 0, 48, 50
3, 179592, Note_on_c, 0, 57, 53
3, 179852, Control_c, 0, 64, 127
3, 179936, Note_on_c, 0, 55, 0
3, 179976, Note_on_c, 0, 57, 0
3, 179980, Note_on_c, 0, 60, 0
3, 179992, Note_on_c, 0, 48, 0
3, 180412, Control_c, 0, 64, 0
3, 180456, Note_on_c, 0, 72, 81
3, 180460, Note_on_c, 0, 60, 73
3, 180460, Note_on_c, 0, 57, 68
3, 180460, Note_on_c, 0, 62, 80
3, 180464, Note_on_c, 0, 67, 68
3, 180480, Note_on_c, 0, 62, 0
3, 180484, Note_on_c, 0, 67, 0
3, 180488, Note_on_c, 0, 57, 0
3, 180492, Note_on_c, 0, 60, 0
3, 180504, Note_on_c, 0, 72, 0
3, 181232, Note_on_c, 0, 79, 87
3, 181236, Note_on_c, 0, 62, 83
3, 181236, Note_on_c, 0, 76, 84
3, 181236, Note_on_c, 0, 72, 84
3, 181236, Note_on_c, 0, 67, 89
3, 181240, Note_on_c, 0, 56, 77
3, 181384, Control_c, 0, 64, 127
3, 181612, Note_on_c, 0, 79, 0
3, 181628, Note_on_c, 0, 67, 0
3, 181632, Note_on_c, 0, 72, 0
3, 181632, Note_on_c, 0, 76, 0
3, 181648, Note_on_c, 0, 62, 0
3, 181652, Note_on_c, 0, 56, 0
3, 181880, Note_on_c, 0, 72, 60
3, 181888, Note_on_c, 0, 64, 53
3, 181892, Note_on_c, 0, 67, 60
3, 181896, Note_on_c, 0, 62, 58
3, 181900, Note_on_c, 0, 56, 46
3, 181908, Control_c, 0, 64, 0
3, 182012, Control_c, 0, 64, 127
3, 182244, Note_on_c, 0, 64, 0
3, 182340, Note_on_c, 0, 62, 0
3, 182352, Note_on_c, 0, 67, 0
3, 182368, Note_on_c, 0, 72, 0
3, 182408, Note_on_c, 0, 56, 0
3, 182744, Control_c, 0, 64, 0
3, 182768, Note_on_c, 0, 79, 73
3, 182772, Note_on_c, 0, 67, 68
3, 182776, Note_on_c, 0, 76, 61
3, 182776, Note_on_c, 0, 64, 65
3, 182780, Note_on_c, 0, 55, 55
3, 182780, Note_on_c, 0, 72, 59
3, 182780, Note_on_c, 0, 60, 50
3, 182784, Note_on_c, 0, 57, 50
3, 183108, Control_c, 0, 64, 127
3, 183168, Note_on_c, 0, 79, 0
3, 183184, Note_on_c, 0, 76, 0
3, 183200, Note_on_c, 0, 64, 0
3, 183200, Note_on_c, 0, 72, 0
3, 183208, Note_on_c, 0, 67, 0
3, 183216, Note_on_c, 0, 55, 0
3, 183228, Note_on_c, 0, 60, 0
3, 183244, Note_on_c, 0, 57, 0
3, 183424, Note_on_c, 0, 72, 62
3, 183428, Note_on_c, 0, 64, 60
3, 183432, Note_on_c, 0, 67, 62
3, 183432, Control_c, 0, 64, 0
3, 183432, Note_on_c, 0, 55, 53
3, 183440, Note_on_c, 0, 57, 49
3, 183440, Note_on_c, 0, 60, 44
3, 183604, Control_c, 0, 64, 127
3, 183872, Note_on_c, 0, 64, 0
3, 183876, Note_on_c, 0, 55, 0
3, 183888, Note_on_c, 0, 60, 0
3, 183904, Note_on_c, 0, 67, 0
3, 183904, Note_on_c, 0, 57, 0
3, 183928, Note_on_c, 0, 72, 0
3, 184288, Control_c, 0, 64, 0
3, 184316, Note_on_c, 0, 79, 87
3, 184316, Note_on_c, 0, 71, 87
3, 184316, Note_on_c, 0, 68, 87
3, 184324, Note_on_c, 0, 67, 83
3, 184328, Note_on_c, 0, 74, 73
3, 184500, Control_c, 0, 64, 127
3, 184644, Note_on_c, 0, 67, 0
3, 184652, Note_on_c, 0, 79, 0
3, 184712, Note_on_c, 0, 74, 0
3, 184724, Note_on_c, 0, 71, 0
3, 184732, Note_on_c, 0, 68, 0
3, 184968, Note_on_c, 0, 74, 82
3, 184976, Note_on_c, 0, 64, 71
3, 184976, Note_on_c, 0, 67, 66
3, 184976, Note_on_c, 0, 70, 55
3, 184980, Control_c, 0, 64, 0
3, 184984, Note_on_c, 0, 62, 64
3, 184988, Note_on_c, 0, 56, 52
3, 185140, Control_c, 0, 64, 127
3, 185228, Note_on_c, 0, 74, 0
3, 185232, Note_on_c, 0, 67, 0
3, 185240, Note_on_c, 0, 70, 0
3, 185252, Note_on_c, 0, 62, 0
3, 185264, Note_on_c, 0, 64, 0
3, 185288, Note_on_c, 0, 56, 0
3, 185364, Note_on_c, 0, 65, 73
3, 185368, Note_on_c, 0, 62, 68
3, 185368, Note_on_c, 0, 70, 55
3, 185372, Note_on_c, 0, 56, 59
3, 185376, Note_on_c, 0, 68, 64
3, 185384, Control_c, 0, 64, 0
3, 185416, Note_on_c, 0, 70, 0
3, 185512, Control_c, 0, 64, 127
3, 185764, Note_on_c, 0, 62, 0
3, 185780, Note_on_c, 0, 56, 0
3, 185788, Note_on_c, 0, 65, 0
3, 185836, Note_on_c, 0, 68, 0
3, 185868, Control_c, 0, 64, 0
3, 185868, Note_on_c, 0, 62, 48
3, 185872, Note_on_c, 0, 57, 44
3, 185876, Note_on_c, 0, 58, 46
3, 185880, Note_on_c, 0, 65, 54
3, 185884, Note_on_c, 0, 69, 60
3, 185932, Note_on_c, 0, 65, 0
3, 185944, Note_on_c, 0, 62, 0
3, 185944, Note_on_c, 0, 69, 0
3, 185956, Note_on_c, 0, 57, 0
3, 185960, Note_on_c, 0, 58, 0
3, 186240, Note_on_c, 0, 62, 44
3, 186244, Note_on_c, 0, 65, 50
3, 186244, Note_on_c, 0, 58, 38
3, 186248, Note_on_c, 0, 57, 43
3, 186272, Control_c, 0, 64, 127
3, 186332, Control_c, 0, 64, 0
3, 186344, Control_c, 0, 64, 127
3, 186380, Note_on_c, 0, 65, 0
3, 186388, Note_on_c, 0, 58, 0
3, 186404, Note_on_c, 0, 62, 0
3, 186432, Note_on_c, 0, 57, 0
3, 186616, Control_c, 0, 64, 0
3, 186636, Note_on_c, 0, 62, 49
3, 186636, Note_on_c, 0, 58, 35
3, 186640, Note_on_c, 0, 55, 39
3, 186800, Note_on_c, 0, 55, 0
3, 186816, Note_on_c, 0, 58, 0
3, 186816, Note_on_c, 0, 62, 0
3, 186864, Note_on_c, 0, 52, 64
3, 186876, Note_on_c, 0, 58, 50
3, 186884, Note_on_c, 0, 62, 51
3, 186888, Note_on_c, 0, 55, 68
3, 186888, Note_on_c, 0, 53, 57
3, 186892, Note_on_c, 0, 65, 61
3, 186912, Note_on_c, 0, 52, 0
3, 186956, Note_on_c, 0, 55, 0
3, 186980, Note_on_c, 0, 65, 0
3, 187004, Note_on_c, 0, 62, 0
3, 187012, Note_on_c, 0, 58, 0
3, 187044, Note_on_c, 0, 55, 28
3, 187076, Note_on_c, 0, 53, 0
3, 187132, Note_on_c, 0, 55, 0
3, 187232, Note_on_c, 0, 52, 50
3, 187268, Note_on_c, 0, 62, 70
3, 187268, Note_on_c, 0, 58, 57
3, 187272, Note_on_c, 0, 55, 72
3, 187272, Note_on_c, 0, 53, 68
3, 187276, Note_on_c, 0, 65, 62
3, 187304, Note_on_c, 0, 52, 0
3, 187364, Note_on_c, 0, 62, 0
3, 187372, Note_on_c, 0, 55, 0
3, 187376, Note_on_c, 0, 65, 0
3, 187384, Note_on_c, 0, 58, 0
3, 187432, Note_on_c, 0, 58, 39
3, 187432, Note_on_c, 0, 55, 54
3, 187436, Note_on_c, 0, 53, 0
3, 187436, Note_on_c, 0, 64, 50
3, 187440, Note_on_c, 0, 52, 52
3, 187536, Note_on_c, 0, 55, 0
3, 187544, Note_on_c, 0, 58, 0
3, 187544, Note_on_c, 0, 52, 0
3, 187548, Note_on_c, 0, 64, 0
3, 187780, Note_on_c, 0, 55, 55
3, 187784, Note_on_c, 0, 58, 36
3, 187784, Note_on_c, 0, 61, 43
3, 187784, Note_on_c, 0, 64, 55
3, 187788, Note_on_c, 0, 52, 54
3, 187920, Control_c, 0, 64, 127
3, 187964, Note_on_c, 0, 55, 0
3, 188004, Note_on_c, 0, 58, 0
3, 188044, Note_on_c, 0, 52, 0
3, 188044, Note_on_c, 0, 61, 0
3, 188056, Note_on_c, 0, 64, 0
3, 188780, Note_on_c, 0, 54, 61
3, 188780, Note_on_c, 0, 63, 59
3, 188784, Note_on_c, 0, 92, 81
3, 188784, Note_on_c, 0, 80, 80
3, 188788, Note_on_c, 0, 58, 45
3, 188788, Note_on_c, 0, 87, 77
3, 188796, Note_on_c, 0, 59, 50
3, 188820, Note_on_c, 0, 59, 0
3, 188860, Note_on_c, 0, 54, 0
3, 188880, Note_on_c, 0, 58, 0
3, 188880, Note_on_c, 0, 63, 0
3, 188884, Note_on_c, 0, 92, 0
3, 188892, Note_on_c, 0, 80, 0
3, 188892, Note_on_c, 0, 87, 0
3, 188900, Control_c, 0, 64, 0
3, 188952, Note_on_c, 0, 64, 49
3, 188956, Note_on_c, 0, 60, 36
3, 188960, Note_on_c, 0, 91, 55
3, 188964, Note_on_c, 0, 79, 35
3, 188964, Note_on_c, 0, 55, 46
3, 188972, Note_on_c, 0, 86, 52
3, 188992, Note_on_c, 0, 86, 0
3, 188992, Note_on_c, 0, 55, 0
3, 188996, Note_on_c, 0, 91, 0
3, 189004, Note_on_c, 0, 79, 0
3, 189008, Note_on_c, 0, 64, 0
3, 189012, Note_on_c, 0, 60, 0
3, 189196, Note_on_c, 0, 60, 55
3, 189200, Note_on_c, 0, 76, 72
3, 189200, Note_on_c, 0, 64, 60
3, 189204, Note_on_c, 0, 55, 69
3, 189204, Note_on_c, 0, 83, 73
3, 189204, Note_on_c, 0, 88, 71
3, 189324, Control_c, 0, 64, 127
3, 189436, Note_on_c, 0, 88, 0
3, 189436, Note_on_c, 0, 83, 0
3, 189476, Note_on_c, 0, 76, 0
3, 189512, Note_on_c, 0, 60, 0
3, 189520, Note_on_c, 0, 64, 0
3, 189524, Note_on_c, 0, 55, 0
3, 189632, Control_c, 0, 64, 0
3, 189668, Note_on_c, 0, 84, 54
3, 189668, Note_on_c, 0, 64, 38
3, 189672, Note_on_c, 0, 72, 41
3, 189672, Note_on_c, 0, 55, 53
3, 189672, Note_on_c, 0, 60, 36
3, 189680, Note_on_c, 0, 79, 33
3, 189688, Note_on_c, 0, 84, 0
3, 189696, Note_on_c, 0, 60, 0
3, 189696, Note_on_c, 0, 64, 0
3, 189708, Note_on_c, 0, 55, 0
3, 189708, Note_on_c, 0, 79, 0
3, 189716, Note_on_c, 0, 72, 0
3, 190040, Note_on_c, 0, 55, 54
3, 190040, Note_on_c, 0, 69, 56
3, 190040, Note_on_c, 0, 76, 55
3, 190040, Note_on_c, 0, 64, 37
3, 190044, Note_on_c, 0, 81, 50
3, 190048, Note_on_c, 0, 60, 37
3, 190096, Note_on_c, 0, 64, 0
3, 190100, Note_on_c, 0, 69, 0
3, 190108, Note_on_c, 0, 55, 0
3, 190124, Note_on_c, 0, 60, 0
3, 190132, Note_on_c, 0, 76, 0
3, 190144, Note_on_c, 0, 81, 0
3, 190260, Control_c, 0, 64, 127
3, 190388, Control_c, 0, 64, 0
3, 190444, Note_on_c, 0, 83, 71
3, 190444, Note_on_c, 0, 71, 73
3, 190452, Note_on_c, 0, 80, 35
3, 190452, Note_on_c, 0, 54, 60
3, 190452, Note_on_c, 0, 60, 66
3, 190452, Note_on_c, 0, 64, 57
3, 190456, Note_on_c, 0, 76, 55
3, 190532, Note_on_c, 0, 71, 0
3, 190544, Note_on_c, 0, 76, 0
3, 190560, Note_on_c, 0, 83, 0
3, 190560, Note_on_c, 0, 64, 0
3, 190568, Note_on_c, 0, 54, 0
3, 190568, Note_on_c, 0, 60, 0
3, 190572, Note_on_c, 0, 80, 0
3, 190816, Note_on_c, 0, 80, 50
3, 190824, Note_on_c, 0, 71, 64
3, 190824, Note_on_c, 0, 83, 64
3, 190824, Note_on_c, 0, 76, 63
3, 190828, Note_on_c, 0, 64, 58
3, 190832, Note_on_c, 0, 54, 52
3, 190832, Note_on_c, 0, 60, 57
3, 190856, Control_c, 0, 64, 127
3, 191004, Note_on_c, 0, 76, 0
3, 191004, Note_on_c, 0, 71, 0
3, 191020, Note_on_c, 0, 83, 0
3, 191032, Note_on_c, 0, 60, 0
3, 191036, Note_on_c, 0, 64, 0
3, 191044, Note_on_c, 0, 80, 0
3, 191048, Note_on_c, 0, 54, 0
3, 191172, Control_c, 0, 64, 0
3, 191212, Note_on_c, 0, 84, 66
3, 191216, Note_on_c, 0, 64, 58
3, 191216, Note_on_c, 0, 54, 53
3, 191220, Note_on_c, 0, 60, 54
3, 191220, Note_on_c, 0, 72, 49
3, 191224, Note_on_c, 0, 77, 53
3, 191224, Note_on_c, 0, 81, 44
3, 191240, Control_c, 0, 64, 127
3, 191280, Note_on_c, 0, 81, 0
3, 191288, Note_on_c, 0, 84, 0
3, 191288, Note_on_c, 0, 77, 0
3, 191304, Note_on_c, 0, 72, 0
3, 191312, Note_on_c, 0, 64, 0
3, 191340, Note_on_c, 0, 60, 0
3, 191356, Note_on_c, 0, 54, 0
3, 191480, Note_on_c, 0, 77, 54
3, 191480, Note_on_c, 0, 74, 61
3, 191484, Note_on_c, 0, 69, 57
3, 191484, Note_on_c, 0, 81, 49
3, 191488, Note_on_c, 0, 54, 57
3, 191488, Note_on_c, 0, 64, 62
3, 191488, Note_on_c, 0, 60, 62
3, 191592, Note_on_c, 0, 81, 0
3, 191612, Note_on_c, 0, 77, 0
3, 191620, Note_on_c, 0, 60, 0
3, 191624, Note_on_c, 0, 74, 0
3, 191636, Note_on_c, 0, 64, 0
3, 191640, Note_on_c, 0, 69, 0
3, 191652, Note_on_c, 0, 54, 0
3, 191860, Note_on_c, 0, 70, 80
3, 191860, Note_on_c, 0, 74, 83
3, 191860, Note_on_c, 0, 77, 80
3, 191860, Note_on_c, 0, 67, 89
3, 191864, Control_c, 0, 64, 0
3, 191864, Note_on_c, 0, 62, 92
3, 191868, Note_on_c, 0, 60, 74
3, 191888, Note_on_c, 0, 60, 0
3, 191976, Control_c, 0, 64, 127
3, 192144, Note_on_c, 0, 77, 0
3, 192148, Note_on_c, 0, 74, 0
3, 192188, Note_on_c, 0, 70, 0
3, 192204, Note_on_c, 0, 67, 0
3, 192368, Note_on_c, 0, 62, 0
3, 192384, Note_on_c, 0, 58, 61
3, 192388, Control_c, 0, 64, 0
3, 192392, Note_on_c, 0, 65, 65
3, 192396, Note_on_c, 0, 74, 62
3, 192400, Note_on_c, 0, 70, 47
3, 192448, Note_on_c, 0, 74, 0
3, 192448, Note_on_c, 0, 58, 0
3, 192460, Note_on_c, 0, 65, 0
3, 192460, Note_on_c, 0, 70, 0
3, 192696, Note_on_c, 0, 51, 35
3, 192700, Note_on_c, 0, 50, 29
3, 192732, Note_on_c, 0, 50, 0
3, 192748, Note_on_c, 0, 52, 38
3, 192764, Note_on_c, 0, 58, 37
3, 192764, Note_on_c, 0, 65, 49
3, 192764, Note_on_c, 0, 55, 55
3, 192768, Note_on_c, 0, 62, 48
3, 192772, Note_on_c, 0, 52, 0
3, 192772, Note_on_c, 0, 51, 0
3, 192780, Note_on_c, 0, 53, 42
3, 192968, Note_on_c, 0, 62, 0
3, 192976, Note_on_c, 0, 55, 0
3, 193000, Note_on_c, 0, 58, 0
3, 193020, Note_on_c, 0, 65, 0
3, 193084, Note_on_c, 0, 53, 0
3, 193144, Note_on_c, 0, 50, 44
3, 193152, Note_on_c, 0, 62, 46
3, 193152, Note_on_c, 0, 58, 35
3, 193156, Note_on_c, 0, 55, 47
3, 193252, Note_on_c, 0, 50, 0
3, 193260, Note_on_c, 0, 55, 0
3, 193280, Note_on_c, 0, 62, 0
3, 193300, Note_on_c, 0, 58, 0
3, 193532, Note_on_c, 0, 58, 45
3, 193544, Control_c, 0, 64, 127
3, 193544, Note_on_c, 0, 55, 47
3, 193544, Note_on_c, 0, 65, 38
3, 193544, Note_on_c, 0, 62, 53
3, 193544, Note_on_c, 0, 48, 48
3, 193568, Note_on_c, 0, 55, 0
3, 193572, Note_on_c, 0, 48, 0
3, 193608, Note_on_c, 0, 58, 0
3, 193608, Note_on_c, 0, 62, 0
3, 193624, Note_on_c, 0, 65, 0
3, 193796, Note_on_c, 0, 69, 74
3, 193800, Note_on_c, 0, 66, 60
3, 193800, Note_on_c, 0, 62, 77
3, 193804, Control_c, 0, 64, 0
3, 193808, Note_on_c, 0, 58, 62
3, 193880, Note_on_c, 0, 69, 0
3, 193900, Note_on_c, 0, 62, 0
3, 193912, Note_on_c, 0, 66, 0
3, 193912, Note_on_c, 0, 58, 0
3, 193960, Note_on_c, 0, 58, 37
3, 193968, Note_on_c, 0, 66, 42
3, 193968, Note_on_c, 0, 69, 59
3, 193972, Note_on_c, 0, 62, 62
3, 194056, Note_on_c, 0, 62, 0
3, 194060, Note_on_c, 0, 69, 0
3, 194076, Note_on_c, 0, 66, 0
3, 194076, Note_on_c, 0, 58, 0
3, 194172, Note_on_c, 0, 58, 56
3, 194180, Note_on_c, 0, 66, 56
3, 194184, Note_on_c, 0, 62, 74
3, 194188, Note_on_c, 0, 69, 62
3, 194208, Control_c, 0, 64, 127
3, 194244, Note_on_c, 0, 69, 0
3, 194248, Note_on_c, 0, 62, 0
3, 194256, Note_on_c, 0, 58, 0
3, 194268, Control_c, 0, 64, 0
3, 194272, Note_on_c, 0, 66, 0
3, 194340, Note_on_c, 0, 58, 39
3, 194348, Note_on_c, 0, 66, 43
3, 194352, Note_on_c, 0, 69, 39
3, 194356, Note_on_c, 0, 62, 54
3, 194364, Note_on_c, 0, 52, 29
3, 194388, Note_on_c, 0, 52, 0
3, 194400, Note_on_c, 0, 69, 0
3, 194404, Note_on_c, 0, 62, 0
3, 194416, Note_on_c, 0, 58, 0
3, 194428, Note_on_c, 0, 66, 0
3, 194568, Note_on_c, 0, 58, 60
3, 194572, Note_on_c, 0, 66, 52
3, 194576, Note_on_c, 0, 62, 71
3, 194580, Note_on_c, 0, 69, 60
3, 194584, Note_on_c, 0, 52, 50
3, 194616, Note_on_c, 0, 52, 0
3, 194640, Note_on_c, 0, 58, 0
3, 194664, Note_on_c, 0, 69, 0
3, 194684, Note_on_c, 0, 62, 0
3, 194696, Note_on_c, 0, 66, 0
3, 194840, Control_c, 0, 64, 127
3, 194928, Note_on_c, 0, 48, 59
3, 194928, Control_c, 0, 64, 0
3, 194932, Note_on_c, 0, 60, 58
3, 194932, Note_on_c, 0, 65, 55
3, 194936, Note_on_c, 0, 62, 47
3, 194940, Note_on_c, 0, 57, 45
3, 194948, Note_on_c, 0, 41, 26
3, 194952, Note_on_c, 0, 48, 0
3, 194960, Note_on_c, 0, 57, 0
3, 194960, Note_on_c, 0, 65, 0
3, 194968, Note_on_c, 0, 62, 0
3, 194972, Note_on_c, 0, 60, 0
3, 194980, Note_on_c, 0, 41, 0
3, 195284, Note_on_c, 0, 45, 82
3, 195728, Note_on_c, 0, 45, 0
3, 195812, Note_on_c, 0, 58, 38
3, 195816, Note_on_c, 0, 46, 35
3, 195896, Note_on_c, 0, 46, 0
3, 195916, Note_on_c, 0, 58, 0
3, 196204, Note_on_c, 0, 47, 42
3, 196204, Note_on_c, 0, 59, 45
3, 196280, Note_on_c, 0, 47, 0
3, 196288, Note_on_c, 0, 59, 0
3, 196580, Note_on_c, 0, 60, 49
3, 196584, Note_on_c, 0, 48, 33
3, 196704, Note_on_c, 0, 48, 0
3, 196732, Note_on_c, 0, 60, 0
3, 196740, Control_c, 0, 64, 127
3, 197168, Note_on_c, 0, 41, 50
3, 197208, Note_on_c, 0, 48, 37
3, 197228, Note_on_c, 0, 62, 49
3, 197252, Note_on_c, 0, 57, 50
3, 197280, Note_on_c, 0, 67, 52
3, 197316, Note_on_c, 0, 62, 0
3, 197340, Note_on_c, 0, 71, 56
3, 197380, Note_on_c, 0, 67, 0
3, 197412, Note_on_c, 0, 71, 0
3, 197420, Note_on_c, 0, 74, 58
3, 197440, Note_on_c, 0, 74, 0
3, 197492, Note_on_c, 0, 79, 68
3, 197564, Note_on_c, 0, 79, 0
3, 197616, Note_on_c, 0, 83, 66
3, 197644, Note_on_c, 0, 83, 0
3, 197732, Note_on_c, 0, 86, 61
3, 197760, Note_on_c, 0, 86, 0
3, 197872, Note_on_c, 0, 91, 53
3, 197900, Note_on_c, 0, 91, 0
3, 198012, Note_on_c, 0, 95, 53
3, 198040, Note_on_c, 0, 95, 0
3, 198148, Note_on_c, 0, 98, 57
3, 198188, Note_on_c, 0, 98, 0
3, 198312, Note_on_c, 0, 103, 41
3, 198460, Note_on_c, 0, 103, 0
3, 198492, Note_on_c, 0, 57, 0
3, 198508, Note_on_c, 0, 41, 0
3, 198512, Note_on_c, 0, 48, 0
3, 198900, Control_c, 0, 64, 0
3, 198900, End_track
4, 0, Start_track
4, 0, Title_t, "Piano"
4, 0, Control_c, 0, 0, 0
4, 0, Control_c, 0, 32, 0
4, 0, Program_c, 0, 0
4, 896, Control_c, 0, 64, 127
4, 1044, Note_on_c, 0, 80, 74
4, 1048, Note_on_c, 0, 76, 79
4, 1048, Note_on_c, 0, 71, 78
4, 1052, Control_c, 0, 64, 0
4, 1064, Note_on_c, 0, 56, 44
4, 1164, Control_c, 0, 64, 127
4, 1280, Note_on_c, 0, 56, 0
4, 1344, Note_on_c, 0, 76, 0
4, 1408, Note_on_c, 0, 71, 0
4, 1432, Note_on_c, 0, 80, 0
4, 1556, Control_c, 0, 64, 0
4, 1564, Note_on_c, 0, 81, 51
4, 1568, Note_on_c, 0, 62, 41
4, 1568, Note_on_c, 0, 53, 32
4, 1572, Note_on_c, 0, 58, 36
4, 1572, Note_on_c, 0, 69, 39
4, 1576, Note_on_c, 0, 57, 31
4, 1576, Note_on_c, 0, 74, 35
4, 1624, Note_on_c, 0, 62, 0
4, 1628, Note_on_c, 0, 69, 0
4, 1628, Note_on_c, 0, 58, 0
4, 1628, Note_on_c, 0, 57, 0
4, 1632, Note_on_c, 0, 53, 0
4, 1636, Note_on_c, 0, 74, 0
4, 1644, Note_on_c, 0, 81, 0
4, 1932, Control_c, 0, 64, 127
4, 2192, Note_on_c, 0, 92, 84
4, 2196, Note_on_c, 0, 80, 82
4, 2196, Note_on_c, 0, 62, 84
4, 2200, Note_on_c, 0, 58, 69
4, 2200, Note_on_c, 0, 87, 79
4, 2200, Note_on_c, 0, 57, 76
4, 2204, Note_on_c, 0, 53, 73
4, 2612, Note_on_c, 0, 53, 0
4, 2640, Note_on_c, 0, 62, 0
4, 2644, Note_on_c, 0, 57, 0
4, 2656, Note_on_c, 0, 58, 0
4, 2656, Note_on_c, 0, 92, 0
4, 2656, Note_on_c, 0, 80, 0
4, 2676, Note_on_c, 0, 87, 0
4, 2728, Note_on_c, 0, 62, 63
4, 2728, Note_on_c, 0, 93, 56
4, 2732, Note_on_c, 0, 58, 39
4, 2732, Note_on_c, 0, 53, 47
4, 2732, Note_on_c, 0, 81, 40
4, 2736, Note_on_c, 0, 88, 55
4, 2736, Note_on_c, 0, 57, 40
4, 2748, Control_c, 0, 64, 0
4, 2760, Note_on_c, 0, 57, 0
4, 2760, Note_on_c, 0, 81, 0
4, 2772, Note_on_c, 0, 62, 0
4, 2776, Note_on_c, 0, 93, 0
4, 2780, Note_on_c, 0, 53, 0
4, 2780, Note_on_c, 0, 88, 0
4, 2784, Note_on_c, 0, 58, 0
4, 3036, Control_c, 0, 64, 127
4, 3080, Note_on_c, 0, 62, 65
4, 3080, Note_on_c, 0, 96, 68
4, 3084, Note_on_c, 0, 58, 38
4, 3088, Note_on_c, 0, 52, 52
4, 3092, Note_on_c, 0, 91, 45
4, 3104, Note_on_c, 0, 84, 22
4, 3156, Note_on_c, 0, 84, 0
4, 3164, Note_on_c, 0, 52, 0
4, 3164, Note_on_c, 0, 62, 0
4, 3164, Note_on_c, 0, 91, 0
4, 3172, Note_on_c, 0, 96, 0
4, 3172, Note_on_c, 0, 58, 0
4, 3336, Note_on_c, 0, 58, 74
4, 3340, Note_on_c, 0, 62, 82
4, 3340, Note_on_c, 0, 52, 80
4, 3344, Note_on_c, 0, 96, 84
4, 3344, Note_on_c, 0, 84, 84
4, 3348, Note_on_c, 0, 91, 79
4, 3388, Note_on_c, 0, 96, 0
4, 3404, Note_on_c, 0, 52, 0
4, 3404, Note_on_c, 0, 62, 0
4, 3412, Note_on_c, 0, 91, 0
4, 3420, Note_on_c, 0, 84, 0
4, 3420, Note_on_c, 0, 58, 0
4, 3464, Control_c, 0, 64, 0
4, 3472, Note_on_c, 0, 62, 62
4, 3472, Note_on_c, 0, 58, 46
4, 3476, Note_on_c, 0, 52, 62
4, 3500, Note_on_c, 0, 88, 34
4, 3504, Note_on_c, 0, 93, 30
4, 3508, Note_on_c, 0, 52, 0
4, 3516, Note_on_c, 0, 62, 0
4, 3520, Note_on_c, 0, 58, 0
4, 3524, Note_on_c, 0, 93, 0
4, 3524, Note_on_c, 0, 88, 0
4, 3708, Note_on_c, 0, 93, 62
4, 3712, Note_on_c, 0, 58, 53
4, 3712, Note_on_c, 0, 62, 64
4, 3716, Note_on_c, 0, 81, 46
4, 3716, Note_on_c, 0, 52, 59
4, 3720, Note_on_c, 0, 88, 46
4, 3748, Note_on_c, 0, 52, 0
4, 3752, Note_on_c, 0, 62, 0
4, 3756, Note_on_c, 0, 93, 0
4, 3760, Note_on_c, 0, 58, 0
4, 3768, Note_on_c, 0, 88, 0
4, 3784, Note_on_c, 0, 81, 0
4, 3832, Control_c, 0, 64, 127
4, 3848, Note_on_c, 0, 58, 42
4, 3848, Note_on_c, 0, 62, 52
4, 3852, Note_on_c, 0, 52, 44
4, 3852, Note_on_c, 0, 91, 35
4, 3872, Note_on_c, 0, 86, 25
4, 3880, Note_on_c, 0, 79, 28
4, 3968, Note_on_c, 0, 52, 0
4, 3980, Note_on_c, 0, 62, 0
4, 3980, Note_on_c, 0, 86, 0
4, 3980, Note_on_c, 0, 79, 0
4, 3992, Note_on_c, 0, 58, 0
4, 4000, Note_on_c, 0, 91, 0
4, 4096, Note_on_c, 0, 88, 77
4, 4100, Note_on_c, 0, 81, 73
4, 4100, Note_on_c, 0, 93, 79
4, 4100, Note_on_c, 0, 58, 70
4, 4104, Note_on_c, 0, 62, 75
4, 4104, Note_on_c, 0, 52, 79
4, 4308, Note_on_c, 0, 93, 0
4, 4332, Note_on_c, 0, 88, 0
4, 4348, Note_on_c, 0, 81, 0
4, 4356, Note_on_c, 0, 52, 0
4, 4396, Note_on_c, 0, 58, 0
4, 4420, Note_on_c, 0, 62, 0
4, 4600, Control_c, 0, 64, 0
4, 4620, Note_on_c, 0, 86, 76
4, 4620, Note_on_c, 0, 58, 59
4, 4620, Note_on_c, 0, 62, 77
4, 4624, Note_on_c, 0, 74, 77
4, 4624, Note_on_c, 0, 57, 58
4, 4628, Note_on_c, 0, 81, 70
4, 4632, Note_on_c, 0, 53, 51
4, 4648, Note_on_c, 0, 57, 0
4, 4652, Note_on_c, 0, 81, 0
4, 4652, Note_on_c, 0, 53, 0
4, 4660, Note_on_c, 0, 62, 0
4, 4660, Note_on_c, 0, 74, 0
4, 4668, Note_on_c, 0, 58, 0
4, 4668, Note_on_c, 0, 86, 0
4, 4708, Note_on_c, 0, 62, 51
4, 4712, Note_on_c, 0, 58, 49
4, 4716, Note_on_c, 0, 86, 48
4, 4720, Note_on_c, 0, 53, 31
4, 4720, Note_on_c, 0, 81, 64
4, 4724, Note_on_c, 0, 57, 37
4, 4724, Note_on_c, 0, 74, 45
4, 4744, Note_on_c, 0, 57, 0
4, 4748, Note_on_c, 0, 74, 0
4, 4752, Note_on_c, 0, 53, 0
4, 4752, Note_on_c, 0, 81, 0
4, 4756, Note_on_c, 0, 62, 0
4, 4764, Note_on_c, 0, 58, 0
4, 4768, Note_on_c, 0, 86, 0
4, 4952, Control_c, 0, 64, 127
4, 4968, Note_on_c, 0, 62, 71
4, 4972, Note_on_c, 0, 91, 79
4, 4972, Note_on_c, 0, 53, 66
4, 4976, Note_on_c, 0, 57, 62
4, 4976, Note_on_c, 0, 58, 58
4, 4976, Note_on_c, 0, 86, 78
4, 4980, Note_on_c, 0, 79, 71
4, 5116, Note_on_c, 0, 79, 0
4, 5120, Note_on_c, 0, 53, 0
4, 5120, Note_on_c, 0, 86, 0
4, 5128, Note_on_c, 0, 62, 0
4, 5132, Note_on_c, 0, 58, 0
4, 5136, Note_on_c, 0, 57, 0
4, 5136, Note_on_c, 0, 91, 0
4, 5228, Note_on_c, 0, 62, 89
4, 5228, Note_on_c, 0, 58, 74
4, 5228, Note_on_c, 0, 53, 81
4, 5232, Note_on_c, 0, 93, 94
4, 5236, Note_on_c, 0, 88, 88
4, 5236, Note_on_c, 0, 81, 84
4, 5236, Note_on_c, 0, 57, 70
4, 5632, Note_on_c, 0, 53, 0
4, 5636, Note_on_c, 0, 93, 0
4, 5660, Note_on_c, 0, 88, 0
4, 5668, Note_on_c, 0, 81, 0
4, 5672, Note_on_c, 0, 62, 0
4, 5672, Note_on_c, 0, 57, 0
4, 5688, Note_on_c, 0, 58, 0
4, 5748, Note_on_c, 0, 91, 49
4, 5756, Note_on_c, 0, 62, 45
4, 5764, Note_on_c, 0, 79, 31
4, 5764, Note_on_c, 0, 86, 39
4, 5772, Control_c, 0, 64, 0
4, 5772, Note_on_c, 0, 58, 35
4, 5772, Note_on_c, 0, 53, 40
4, 5776, Note_on_c, 0, 57, 35
4, 5780, Control_c, 0, 64, 127
4, 5900, Note_on_c, 0, 79, 0
4, 5904, Note_on_c, 0, 86, 0
4, 5916, Note_on_c, 0, 91, 0
4, 5928, Note_on_c, 0, 57, 0
4, 5940, Note_on_c, 0, 53, 0
4, 5948, Note_on_c, 0, 62, 0
4, 5976, Note_on_c, 0, 58, 0
4, 6020, Note_on_c, 0, 93, 89
4, 6020, Note_on_c, 0, 86, 83
4, 6024, Note_on_c, 0, 58, 69
4, 6024, Note_on_c, 0, 90, 74
4, 6024, Note_on_c, 0, 81, 80
4, 6028, Note_on_c, 0, 62, 81
4, 6028, Note_on_c, 0, 52, 84
4, 6032, Control_c, 0, 64, 0
4, 6248, Control_c, 0, 64, 127
4, 6624, Note_on_c, 0, 93, 0
4, 6664, Note_on_c, 0, 90, 0
4, 6676, Note_on_c, 0, 86, 0
4, 6752, Note_on_c, 0, 81, 0
4, 6836, Note_on_c, 0, 52, 0
4, 6840, Note_on_c, 0, 62, 0
4, 6868, Note_on_c, 0, 58, 0
4, 7204, Note_on_c, 0, 58, 25
4, 7272, Control_c, 0, 64, 0
4, 7304, Note_on_c, 0, 66, 67
4, 7304, Note_on_c, 0, 62, 60
4, 7308, Note_on_c, 0, 78, 69
4, 7312, Note_on_c, 0, 58, 0
4, 7312, Note_on_c, 0, 73, 60
4, 7320, Control_c, 0, 64, 127
4, 7392, Note_on_c, 0, 66, 0
4, 7424, Note_on_c, 0, 62, 0
4, 7452, Note_on_c, 0, 73, 0
4, 7464, Note_on_c, 0, 78, 0
4, 7568, Control_c, 0, 64, 0
4, 7568, Note_on_c, 0, 57, 53
4, 7568, Note_on_c, 0, 79, 75
4, 7572, Note_on_c, 0, 67, 63
4, 7572, Note_on_c, 0, 69, 70
4, 7576, Note_on_c, 0, 74, 80
4, 7576, Note_on_c, 0, 62, 61
4, 7844, Control_c, 0, 64, 127
4, 8108, Note_on_c, 0, 67, 0
4, 8116, Note_on_c, 0, 69, 0
4, 8132, Note_on_c, 0, 62, 0
4, 8144, Note_on_c, 0, 57, 0
4, 8260, Note_on_c, 0, 79, 0
4, 8264, Note_on_c, 0, 74, 0
4, 8712, Note_on_c, 0, 77, 105
4, 8720, Note_on_c, 0, 67, 83
4, 8720, Note_on_c, 0, 57, 81
4, 8720, Note_on_c, 0, 62, 78
4, 8788, Note_on_c, 0, 67, 0
4, 8796, Note_on_c, 0, 57, 0
4, 8804, Note_on_c, 0, 62, 0
4, 8824, Note_on_c, 0, 77, 0
4, 8856, Note_on_c, 0, 57, 54
4, 8860, Note_on_c, 0, 67, 53
4, 8872, Note_on_c, 0, 62, 42
4, 8876, Control_c, 0, 64, 0
4, 8884, Note_on_c, 0, 79, 33
4, 8908, Note_on_c, 0, 79, 0
4, 8916, Note_on_c, 0, 57, 0
4, 8916, Control_c, 0, 64, 127
4, 8920, Note_on_c, 0, 67, 0
4, 8940, Note_on_c, 0, 62, 0
4, 9072, Control_c, 0, 64, 0
4, 9088, Note_on_c, 0, 76, 85
4, 9092, Note_on_c, 0, 84, 89
4, 9092, Note_on_c, 0, 72, 83
4, 9100, Note_on_c, 0, 79, 75
4, 9100, Note_on_c, 0, 56, 75
4, 9100, Note_on_c, 0, 62, 80
4, 9112, Note_on_c, 0, 65, 76
4, 9132, Note_on_c, 0, 65, 0
4, 9176, Note_on_c, 0, 76, 0
4, 9176, Note_on_c, 0, 72, 0
4, 9180, Note_on_c, 0, 79, 0
4, 9188, Note_on_c, 0, 84, 0
4, 9192, Note_on_c, 0, 62, 0
4, 9196, Note_on_c, 0, 56, 0
4, 9464, Note_on_c, 0, 79, 84
4, 9468, Note_on_c, 0, 76, 80
4, 9472, Note_on_c, 0, 72, 82
4, 9472, Note_on_c, 0, 67, 80
4, 9476, Note_on_c, 0, 62, 80
4, 9476, Note_on_c, 0, 56, 80
4, 9484, Note_on_c, 0, 69, 59
4, 9500, Note_on_c, 0, 69, 0
4, 9600, Control_c, 0, 64, 127
4, 9820, Note_on_c, 0, 62, 0
4, 9836, Note_on_c, 0, 79, 0
4, 9840, Note_on_c, 0, 72, 0
4, 9844, Note_on_c, 0, 67, 0
4, 9848, Note_on_c, 0, 56, 0
4, 9916, Control_c, 0, 64, 0
4, 9924, Note_on_c, 0, 76, 0
4, 9968, Note_on_c, 0, 56, 50
4, 9968, Note_on_c, 0, 67, 48
4, 9968, Note_on_c, 0, 77, 57
4, 9972, Note_on_c, 0, 62, 58
4, 9992, Note_on_c, 0, 72, 26
4, 10008, Note_on_c, 0, 72, 0
4, 10020, Note_on_c, 0, 67, 0
4, 10020, Note_on_c, 0, 62, 0
4, 10032, Note_on_c, 0, 56, 0
4, 10048, Note_on_c, 0, 77, 0
4, 10312, Note_on_c, 0, 72, 78
4, 10316, Note_on_c, 0, 62, 66
4, 10316, Note_on_c, 0, 79, 74
4, 10320, Note_on_c, 0, 67, 72
4, 10324, Note_on_c, 0, 56, 57
4, 10344, Control_c, 0, 64, 127
4, 10360, Control_c, 0, 64, 0
4, 10376, Note_on_c, 0, 62, 0
4, 10388, Note_on_c, 0, 79, 0
4, 10408, Note_on_c, 0, 72, 0
4, 10420, Note_on_c, 0, 56, 0
4, 10420, Note_on_c, 0, 67, 0
4, 10432, Control_c, 0, 64, 127
4, 10600, Note_on_c, 0, 54, 32
4, 10632, Note_on_c, 0, 56, 58
4, 10644, Control_c, 0, 64, 0
4, 10648, Note_on_c, 0, 54, 0
4, 10672, Note_on_c, 0, 72, 70
4, 10672, Note_on_c, 0, 62, 69
4, 10676, Note_on_c, 0, 67, 64
4, 10692, Note_on_c, 0, 57, 64
4, 10708, Note_on_c, 0, 56, 0
4, 10736, Note_on_c, 0, 62, 0
4, 10740, Note_on_c, 0, 67, 0
4, 10760, Note_on_c, 0, 72, 0
4, 10800, Note_on_c, 0, 61, 42
4, 10804, Note_on_c, 0, 57, 0
4, 10808, Note_on_c, 0, 56, 33
4, 10824, Note_on_c, 0, 61, 0
4, 10888, Note_on_c, 0, 56, 0
4, 10904, Note_on_c, 0, 72, 66
4, 10908, Note_on_c, 0, 62, 68
4, 10908, Note_on_c, 0, 57, 74
4, 10912, Note_on_c, 0, 67, 66
4, 11052, Control_c, 0, 64, 127
4, 11132, Note_on_c, 0, 62, 0
4, 11152, Note_on_c, 0, 67, 0
4, 11164, Note_on_c, 0, 72, 0
4, 11168, Note_on_c, 0, 57, 0
4, 11380, Note_on_c, 0, 77, 69
4, 11380, Note_on_c, 0, 65, 66
4, 11384, Note_on_c, 0, 72, 62
4, 11388, Note_on_c, 0, 57, 50
4, 11428, Note_on_c, 0, 65, 0
4, 11440, Note_on_c, 0, 57, 0
4, 11440, Control_c, 0, 64, 0
4, 11448, Note_on_c, 0, 77, 0
4, 11464, Note_on_c, 0, 72, 0
4, 11512, Note_on_c, 0, 72, 50
4, 11516, Note_on_c, 0, 79, 72
4, 11516, Note_on_c, 0, 57, 55
4, 11516, Note_on_c, 0, 75, 37
4, 11520, Note_on_c, 0, 67, 55
4, 11680, Note_on_c, 0, 79, 0
4, 11704, Note_on_c, 0, 57, 0
4, 11708, Note_on_c, 0, 67, 0
4, 11712, Note_on_c, 0, 75, 0
4, 11724, Note_on_c, 0, 72, 0
4, 11776, Note_on_c, 0, 65, 60
4, 11776, Note_on_c, 0, 57, 52
4, 11780, Note_on_c, 0, 77, 50
4, 11780, Note_on_c, 0, 72, 66
4, 11808, Note_on_c, 0, 65, 0
4, 11824, Note_on_c, 0, 77, 0
4, 11828, Note_on_c, 0, 57, 0
4, 11828, Note_on_c, 0, 72, 0
4, 12160, Note_on_c, 0, 79, 85
4, 12160, Note_on_c, 0, 71, 87
4, 12164, Note_on_c, 0, 68, 86
4, 12168, Note_on_c, 0, 74, 80
4, 12172, Note_on_c, 0, 67, 92
4, 12328, Control_c, 0, 64, 127
4, 12460, Note_on_c, 0, 68, 0
4, 12476, Note_on_c, 0, 79, 0
4, 12492, Note_on_c, 0, 74, 0
4, 12496, Note_on_c, 0, 71, 0
4, 12508, Note_on_c, 0, 67, 0
4, 12548, Note_on_c, 0, 79, 74
4, 12548, Note_on_c, 0, 67, 67
4, 12552, Note_on_c, 0, 68, 76
4, 12556, Note_on_c, 0, 71, 65
4, 12564, Note_on_c, 0, 74, 55
4, 12648, Note_on_c, 0, 68, 0
4, 12648, Note_on_c, 0, 79, 0
4, 12660, Note_on_c, 0, 74, 0
4, 12680, Note_on_c, 0, 71, 0
4, 12680, Control_c, 0, 64, 0
4, 12684, Note_on_c, 0, 67, 0
4, 12700, Note_on_c, 0, 68, 47
4, 12704, Note_on_c, 0, 65, 55
4, 12712, Note_on_c, 0, 71, 27
4, 12724, Note_on_c, 0, 77, 50
4, 12832, Control_c, 0, 64, 127
4, 12912, Note_on_c, 0, 77, 0
4, 12912, Note_on_c, 0, 65, 0
4, 12940, Note_on_c, 0, 71, 0
4, 12952, Note_on_c, 0, 68, 0
4, 13004, Control_c, 0, 64, 0
4, 13052, Note_on_c, 0, 68, 39
4, 13056, Note_on_c, 0, 64, 53
4, 13060, Note_on_c, 0, 76, 45
4, 13080, Control_c, 0, 64, 127
4, 13080, Note_on_c, 0, 71, 36
4, 13184, Note_on_c, 0, 64, 0
4, 13208, Note_on_c, 0, 68, 0
4, 13212, Note_on_c, 0, 76, 0
4, 13240, Note_on_c, 0, 71, 0
4, 13300, Note_on_c, 0, 65, 43
4, 13300, Note_on_c, 0, 68, 69
4, 13308, Note_on_c, 0, 71, 59
4, 13332, Note_on_c, 0, 65, 0
4, 13372, Note_on_c, 0, 71, 0
4, 13384, Note_on_c, 0, 68, 0
4, 13456, Control_c, 0, 64, 0
4, 13544, Note_on_c, 0, 66, 69
4, 13548, Note_on_c, 0, 78, 58
4, 13548, Note_on_c, 0, 71, 66
4, 13552, Note_on_c, 0, 75, 53
4, 13552, Note_on_c, 0, 63, 52
4, 13556, Note_on_c, 0, 58, 35
4, 13556, Note_on_c, 0, 54, 50
4, 13560, Note_on_c, 0, 59, 51
4, 13584, Control_c, 0, 64, 127
4, 13636, Note_on_c, 0, 59, 0
4, 13660, Note_on_c, 0, 71, 0
4, 13700, Note_on_c, 0, 66, 0
4, 13708, Note_on_c, 0, 63, 0
4, 13712, Note_on_c, 0, 78, 0
4, 13712, Note_on_c, 0, 58, 0
4, 13720, Note_on_c, 0, 75, 0
4, 13724, Note_on_c, 0, 54, 0
4, 13796, Control_c, 0, 64, 0
4, 13812, Note_on_c, 0, 65, 48
4, 13812, Note_on_c, 0, 77, 54
4, 13812, Note_on_c, 0, 70, 40
4, 13812, Note_on_c, 0, 58, 35
4, 13816, Note_on_c, 0, 62, 50
4, 13820, Note_on_c, 0, 74, 57
4, 13824, Note_on_c, 0, 53, 46
4, 13824, Note_on_c, 0, 57, 53
4, 14004, Control_c, 0, 64, 127
4, 14112, Note_on_c, 0, 65, 0
4, 14140, Note_on_c, 0, 62, 0
4, 14152, Note_on_c, 0, 74, 0
4, 14156, Note_on_c, 0, 53, 0
4, 14160, Note_on_c, 0, 57, 0
4, 14160, Note_on_c, 0, 70, 0
4, 14164, Note_on_c, 0, 58, 0
4, 14180, Note_on_c, 0, 77, 0
4, 14464, Note_on_c, 0, 86, 84
4, 14464, Note_on_c, 0, 74, 88
4, 14468, Note_on_c, 0, 57, 79
4, 14468, Note_on_c, 0, 58, 69
4, 14468, Note_on_c, 0, 81, 81
4, 14472, Note_on_c, 0, 62, 83
4, 14472, Note_on_c, 0, 53, 81
4, 14528, Note_on_c, 0, 74, 0
4, 14548, Note_on_c, 0, 81, 0
4, 14556, Note_on_c, 0, 62, 0
4, 14556, Note_on_c, 0, 86, 0
4, 14556, Note_on_c, 0, 53, 0
4, 14564, Note_on_c, 0, 57, 0
4, 14568, Note_on_c, 0, 58, 0
4, 14572, Control_c, 0, 64, 0
4, 14612, Note_on_c, 0, 53, 53
4, 14612, Note_on_c, 0, 58, 49
4, 14616, Note_on_c, 0, 57, 52
4, 14616, Note_on_c, 0, 62, 54
4, 14620, Note_on_c, 0, 89, 68
4, 14620, Note_on_c, 0, 77, 61
4, 14620, Note_on_c, 0, 84, 65
4, 14648, Note_on_c, 0, 77, 0
4, 14652, Note_on_c, 0, 57, 0
4, 14656, Note_on_c, 0, 62, 0
4, 14656, Note_on_c, 0, 84, 0
4, 14668, Note_on_c, 0, 53, 0
4, 14668, Note_on_c, 0, 89, 0
4, 14672, Note_on_c, 0, 58, 0
4, 14844, Note_on_c, 0, 93, 76
4, 14844, Note_on_c, 0, 58, 65
4, 14848, Note_on_c, 0, 57, 71
4, 14848, Note_on_c, 0, 62, 83
4, 14852, Note_on_c, 0, 81, 62
4, 14852, Note_on_c, 0, 88, 65
4, 14852, Note_on_c, 0, 53, 68
4, 14856, Note_on_c, 0, 90, 33
4, 14876, Note_on_c, 0, 90, 0
4, 14928, Note_on_c, 0, 81, 0
4, 14940, Note_on_c, 0, 53, 0
4, 14944, Note_on_c, 0, 88, 0
4, 14952, Note_on_c, 0, 93, 0
4, 14956, Note_on_c, 0, 62, 0
4, 14956, Note_on_c, 0, 57, 0
4, 14968, Note_on_c, 0, 58, 0
4, 15228, Note_on_c, 0, 62, 88
4, 15228, Note_on_c, 0, 57, 81
4, 15232, Note_on_c, 0, 96, 87
4, 15232, Note_on_c, 0, 58, 60
4, 15232, Note_on_c, 0, 84, 92
4, 15236, Note_on_c, 0, 52, 74
4, 15236, Note_on_c, 0, 91, 79
4, 15328, Note_on_c, 0, 96, 0
4, 15332, Note_on_c, 0, 84, 0
4, 15340, Note_on_c, 0, 91, 0
4, 15352, Note_on_c, 0, 62, 0
4, 15360, Note_on_c, 0, 58, 0
4, 15360, Note_on_c, 0, 52, 0
4, 15364, Note_on_c, 0, 57, 0
4, 15612, Note_on_c, 0, 57, 88
4, 15616, Note_on_c, 0, 62, 89
4, 15616, Note_on_c, 0, 96, 92
4, 15616, Note_on_c, 0, 90, 86
4, 15616, Note_on_c, 0, 84, 95
4, 15616, Note_on_c, 0, 58, 64
4, 15620, Note_on_c, 0, 52, 81
4, 15704, Note_on_c, 0, 90, 0
4, 15708, Note_on_c, 0, 91, 47
4, 15812, Control_c, 0, 64, 127
4, 16056, Note_on_c, 0, 96, 0
4, 16064, Note_on_c, 0, 52, 0
4, 16080, Note_on_c, 0, 57, 0
4, 16084, Note_on_c, 0, 91, 0
4, 16092, Note_on_c, 0, 62, 0
4, 16096, Note_on_c, 0, 58, 0
4, 16108, Note_on_c, 0, 84, 0
4, 16392, Note_on_c, 0, 92, 91
4, 16392, Note_on_c, 0, 62, 81
4, 16392, Note_on_c, 0, 56, 83
4, 16392, Note_on_c, 0, 80, 93
4, 16392, Note_on_c, 0, 67, 92
4, 16392, Note_on_c, 0, 87, 88
4, 16404, Control_c, 0, 64, 0
4, 16512, Control_c, 0, 64, 127
4, 16664, Note_on_c, 0, 62, 0
4, 16676, Note_on_c, 0, 80, 0
4, 16680, Note_on_c, 0, 92, 0
4, 16684, Note_on_c, 0, 87, 0
4, 16692, Note_on_c, 0, 67, 0
4, 16736, Note_on_c, 0, 56, 0
4, 16832, Control_c, 0, 64, 0
4, 16872, Note_on_c, 0, 64, 60
4, 16876, Note_on_c, 0, 91, 67
4, 16876, Note_on_c, 0, 79, 60
4, 16880, Note_on_c, 0, 55, 49
4, 16884, Note_on_c, 0, 88, 40
4, 16884, Note_on_c, 0, 60, 37
4, 16888, Note_on_c, 0, 84, 44
4, 16896, Note_on_c, 0, 57, 39
4, 16908, Note_on_c, 0, 60, 0
4, 16908, Note_on_c, 0, 88, 0
4, 16912, Note_on_c, 0, 55, 0
4, 16912, Note_on_c, 0, 64, 0
4, 16912, Note_on_c, 0, 84, 0
4, 16916, Note_on_c, 0, 91, 0
4, 16920, Note_on_c, 0, 79, 0
4, 16924, Note_on_c, 0, 57, 0
4, 17280, Control_c, 0, 64, 127
4, 17528, Note_on_c, 0, 64, 75
4, 17532, Note_on_c, 0, 57, 64
4, 17532, Note_on_c, 0, 88, 68
4, 17536, Note_on_c, 0, 55, 68
4, 17536, Note_on_c, 0, 60, 61
4, 17536, Note_on_c, 0, 76, 57
4, 17540, Note_on_c, 0, 84, 37
4, 17544, Note_on_c, 0, 81, 42
4, 17548, Note_on_c, 0, 74, 24
4, 17568, Note_on_c, 0, 74, 0
4, 17632, Note_on_c, 0, 81, 0
4, 17632, Note_on_c, 0, 76, 0
4, 17648, Note_on_c, 0, 55, 0
4, 17648, Note_on_c, 0, 64, 0
4, 17648, Note_on_c, 0, 84, 0
4, 17652, Note_on_c, 0, 60, 0
4, 17656, Note_on_c, 0, 88, 0
4, 17660, Note_on_c, 0, 57, 0
4, 17772, Note_on_c, 0, 79, 80
4, 17776, Note_on_c, 0, 91, 78
4, 17776, Note_on_c, 0, 84, 80
4, 17780, Note_on_c, 0, 64, 81
4, 17780, Note_on_c, 0, 88, 69
4, 17784, Note_on_c, 0, 60, 72
4, 17784, Note_on_c, 0, 55, 72
4, 17784, Note_on_c, 0, 57, 67
4, 17796, Note_on_c, 0, 91, 0
4, 17864, Note_on_c, 0, 79, 0
4, 17864, Note_on_c, 0, 84, 0
4, 17864, Note_on_c, 0, 55, 0
4, 17888, Note_on_c, 0, 88, 0
4, 17888, Note_on_c, 0, 57, 0
4, 17888, Note_on_c, 0, 64, 0
4, 17892, Note_on_c, 0, 60, 0
4, 17992, Control_c, 0, 64, 0
4, 18020, Note_on_c, 0, 95, 85
4, 18020, Note_on_c, 0, 83, 78
4, 18024, Note_on_c, 0, 55, 79
4, 18024, Note_on_c, 0, 88, 74
4, 18024, Note_on_c, 0, 64, 73
4, 18028, Note_on_c, 0, 60, 64
4, 18036, Note_on_c, 0, 91, 37
4, 18040, Note_on_c, 0, 57, 44
4, 18056, Note_on_c, 0, 88, 0
4, 18064, Note_on_c, 0, 83, 0
4, 18064, Note_on_c, 0, 91, 0
4, 18064, Control_c, 0, 64, 127
4, 18068, Note_on_c, 0, 57, 0
4, 18088, Note_on_c, 0, 95, 0
4, 18124, Note_on_c, 0, 55, 0
4, 18132, Note_on_c, 0, 60, 0
4, 18132, Note_on_c, 0, 64, 0
4, 18280, Note_on_c, 0, 98, 91
4, 18284, Note_on_c, 0, 86, 94
4, 18284, Note_on_c, 0, 92, 85
4, 18284, Note_on_c, 0, 95, 87
4, 18288, Note_on_c, 0, 54, 86
4, 18288, Note_on_c, 0, 60, 83
4, 18288, Note_on_c, 0, 64, 91
4, 18292, Control_c, 0, 64, 0
4, 18304, Note_on_c, 0, 96, 34
4, 18324, Note_on_c, 0, 96, 0
4, 18348, Note_on_c, 0, 86, 0
4, 18368, Note_on_c, 0, 54, 0
4, 18368, Note_on_c, 0, 64, 0
4, 18372, Note_on_c, 0, 60, 0
4, 18372, Control_c, 0, 64, 127
4, 18376, Note_on_c, 0, 92, 0
4, 18388, Note_on_c, 0, 98, 0
4, 18388, Note_on_c, 0, 95, 0
4, 18392, Note_on_c, 0, 54, 50
4, 18400, Note_on_c, 0, 86, 55
4, 18432, Note_on_c, 0, 60, 44
4, 18440, Note_on_c, 0, 64, 53
4, 18448, Note_on_c, 0, 92, 52
4, 18452, Note_on_c, 0, 54, 0
4, 18460, Note_on_c, 0, 86, 0
4, 18464, Note_on_c, 0, 95, 36
4, 18476, Note_on_c, 0, 98, 48
4, 18488, Note_on_c, 0, 60, 0
4, 18492, Note_on_c, 0, 64, 0
4, 18496, Note_on_c, 0, 95, 0
4, 18508, Note_on_c, 0, 86, 57
4, 18508, Note_on_c, 0, 54, 60
4, 18512, Note_on_c, 0, 92, 0
4, 18512, Note_on_c, 0, 98, 0
4, 18564, Note_on_c, 0, 60, 38
4, 18564, Note_on_c, 0, 92, 57
4, 18568, Note_on_c, 0, 86, 0
4, 18568, Note_on_c, 0, 54, 0
4, 18572, Note_on_c, 0, 64, 41
4, 18576, Note_on_c, 0, 98, 33
4, 18580, Note_on_c, 0, 95, 49
4, 18600, Note_on_c, 0, 95, 0
4, 18616, Note_on_c, 0, 86, 47
4, 18620, Note_on_c, 0, 98, 0
4, 18624, Note_on_c, 0, 60, 0
4, 18624, Note_on_c, 0, 54, 59
4, 18628, Note_on_c, 0, 92, 0
4, 18632, Note_on_c, 0, 64, 0
4, 18660, Note_on_c, 0, 86, 0
4, 18676, Control_c, 0, 64, 0
4, 18684, Note_on_c, 0, 54, 0
4, 18816, Note_on_c, 0, 92, 81
4, 18816, Note_on_c, 0, 98, 83
4, 18820, Note_on_c, 0, 86, 83
4, 18820, Note_on_c, 0, 60, 81
4, 18820, Note_on_c, 0, 54, 83
4, 18824, Note_on_c, 0, 64, 85
4, 18832, Note_on_c, 0, 95, 69
4, 18840, Note_on_c, 0, 86, 0
4, 18844, Note_on_c, 0, 95, 0
4, 18852, Note_on_c, 0, 92, 0
4, 18864, Note_on_c, 0, 60, 0
4, 18864, Note_on_c, 0, 98, 0
4, 18864, Note_on_c, 0, 64, 0
4, 18868, Note_on_c, 0, 54, 0
4, 19072, Note_on_c, 0, 92, 85
4, 19076, Note_on_c, 0, 98, 87
4, 19076, Note_on_c, 0, 86, 91
4, 19076, Note_on_c, 0, 95, 85
4, 19076, Note_on_c, 0, 64, 91
4, 19076, Note_on_c, 0, 54, 86
4, 19080, Note_on_c, 0, 60, 83
4, 19180, Control_c, 0, 64, 127
4, 19288, Note_on_c, 0, 60, 0
4, 19304, Note_on_c, 0, 95, 0
4, 19304, Note_on_c, 0, 98, 0
4, 19304, Note_on_c, 0, 54, 0
4, 19308, Note_on_c, 0, 64, 0
4, 19320, Note_on_c, 0, 92, 0
4, 19340, Note_on_c, 0, 86, 0
4, 19448, Note_on_c, 0, 60, 65
4, 19468, Note_on_c, 0, 60, 0
4, 19548, Control_c, 0, 64, 0
4, 19568, Note_on_c, 0, 94, 82
4, 19572, Note_on_c, 0, 82, 79
4, 19572, Note_on_c, 0, 54, 74
4, 19572, Note_on_c, 0, 64, 84
4, 19572, Note_on_c, 0, 60, 71
4, 19576, Note_on_c, 0, 87, 74
4, 19596, Note_on_c, 0, 60, 0
4, 19612, Control_c, 0, 64, 127
4, 19616, Note_on_c, 0, 54, 0
4, 19640, Note_on_c, 0, 64, 0
4, 19656, Note_on_c, 0, 87, 0
4, 19664, Note_on_c, 0, 94, 0
4, 19684, Note_on_c, 0, 82, 0
4, 19820, Note_on_c, 0, 93, 94
4, 19820, Note_on_c, 0, 90, 79
4, 19820, Control_c, 0, 64, 0
4, 19824, Note_on_c, 0, 86, 87
4, 19824, Note_on_c, 0, 81, 91
4, 19824, Note_on_c, 0, 61, 76
4, 19824, Note_on_c, 0, 66, 90
4, 19828, Note_on_c, 0, 57, 80
4, 19828, Note_on_c, 0, 62, 82
4, 19928, Control_c, 0, 64, 127
4, 20328, Note_on_c, 0, 66, 0
4, 20336, Note_on_c, 0, 62, 0
4, 20336, Note_on_c, 0, 57, 0
4, 20340, Note_on_c, 0, 93, 0
4, 20348, Note_on_c, 0, 81, 0
4, 20380, Note_on_c, 0, 61, 0
4, 20384, Note_on_c, 0, 90, 0
4, 20400, Note_on_c, 0, 86, 0
4, 20604, Note_on_c, 0, 90, 61
4, 20604, Note_on_c, 0, 78, 55
4, 20612, Note_on_c, 0, 66, 62
4, 20620, Note_on_c, 0, 62, 48
4, 20624, Note_on_c, 0, 57, 33
4, 20628, Note_on_c, 0, 61, 33
4, 20648, Note_on_c, 0, 62, 0
4, 20652, Note_on_c, 0, 57, 0
4, 20656, Note_on_c, 0, 66, 0
4, 20660, Note_on_c, 0, 78, 0
4, 20664, Note_on_c, 0, 90, 0
4, 20664, Note_on_c, 0, 61, 0
4, 20688, Control_c, 0, 64, 0
4, 20744, Note_on_c, 0, 81, 64
4, 20744, Note_on_c, 0, 66, 33
4, 20748, Note_on_c, 0, 61, 37
4, 20748, Note_on_c, 0, 62, 52
4, 20752, Note_on_c, 0, 57, 34
4, 20756, Note_on_c, 0, 93, 44
4, 20764, Note_on_c, 0, 66, 0
4, 20764, Note_on_c, 0, 81, 0
4, 20772, Note_on_c, 0, 62, 0
4, 20780, Note_on_c, 0, 57, 0
4, 20780, Note_on_c, 0, 93, 0
4, 20804, Note_on_c, 0, 61, 0
4, 21096, Note_on_c, 0, 66, 68
4, 21104, Note_on_c, 0, 57, 53
4, 21104, Note_on_c, 0, 85, 73
4, 21108, Note_on_c, 0, 62, 58
4, 21108, Note_on_c, 0, 97, 76
4, 21112, Note_on_c, 0, 61, 39
4, 21156, Note_on_c, 0, 85, 0
4, 21156, Note_on_c, 0, 57, 0
4, 21180, Note_on_c, 0, 62, 0
4, 21188, Note_on_c, 0, 97, 0
4, 21192, Note_on_c, 0, 66, 0
4, 21224, Note_on_c, 0, 61, 0
4, 21484, Control_c, 0, 64, 127
4, 21492, Note_on_c, 0, 100, 66
4, 21492, Note_on_c, 0, 88, 61
4, 21496, Note_on_c, 0, 96, 61
4, 21500, Note_on_c, 0, 56, 47
4, 21500, Note_on_c, 0, 67, 56
4, 21500, Note_on_c, 0, 62, 54
4, 21636, Note_on_c, 0, 88, 0
4, 21640, Note_on_c, 0, 67, 0
4, 21640, Note_on_c, 0, 56, 0
4, 21644, Note_on_c, 0, 96, 0
4, 21648, Note_on_c, 0, 100, 0
4, 21652, Note_on_c, 0, 62, 0
4, 21736, Note_on_c, 0, 100, 79
4, 21740, Note_on_c, 0, 56, 77
4, 21740, Note_on_c, 0, 67, 85
4, 21740, Note_on_c, 0, 62, 74
4, 21744, Note_on_c, 0, 88, 75
4, 21744, Note_on_c, 0, 96, 84
4, 21824, Note_on_c, 0, 88, 0
4, 21824, Note_on_c, 0, 56, 0
4, 21832, Note_on_c, 0, 67, 0
4, 21832, Note_on_c, 0, 96, 0
4, 21832, Control_c, 0, 64, 0
4, 21836, Note_on_c, 0, 62, 0
4, 21840, Note_on_c, 0, 100, 0
4, 21884, Note_on_c, 0, 67, 74
4, 21884, Note_on_c, 0, 62, 71
4, 21888, Note_on_c, 0, 56, 77
4, 21888, Note_on_c, 0, 100, 62
4, 21892, Note_on_c, 0, 96, 72
4, 21896, Note_on_c, 0, 88, 73
4, 22024, Note_on_c, 0, 56, 0
4, 22028, Note_on_c, 0, 100, 0
4, 22028, Note_on_c, 0, 88, 0
4, 22032, Note_on_c, 0, 67, 0
4, 22044, Note_on_c, 0, 62, 0
4, 22048, Note_on_c, 0, 96, 0
4, 22116, Note_on_c, 0, 67, 85
4, 22116, Note_on_c, 0, 56, 80
4, 22120, Note_on_c, 0, 100, 77
4, 22120, Note_on_c, 0, 62, 76
4, 22124, Note_on_c, 0, 88, 78
4, 22124, Note_on_c, 0, 96, 82
4, 22192, Note_on_c, 0, 100, 0
4, 22204, Note_on_c, 0, 88, 0
4, 22212, Note_on_c, 0, 56, 0
4, 22212, Note_on_c, 0, 96, 0
4, 22216, Note_on_c, 0, 67, 0
4, 22224, Note_on_c, 0, 62, 0
4, 22312, Note_on_c, 0, 100, 60
4, 22312, Note_on_c, 0, 96, 68
4, 22312, Note_on_c, 0, 88, 74
4, 22316, Note_on_c, 0, 56, 63
4, 22320, Note_on_c, 0, 67, 69
4, 22320, Note_on_c, 0, 62, 63
4, 22336, Note_on_c, 0, 96, 0
4, 22336, Note_on_c, 0, 100, 0
4, 22344, Control_c, 0, 64, 127
4, 22360, Note_on_c, 0, 67, 0
4, 22360, Note_on_c, 0, 62, 0
4, 22364, Note_on_c, 0, 88, 0
4, 22368, Note_on_c, 0, 56, 0
4, 22532, Note_on_c, 0, 97, 81
4, 22536, Note_on_c, 0, 85, 81
4, 22536, Note_on_c, 0, 62, 72
4, 22540, Note_on_c, 0, 67, 78
4, 22540, Note_on_c, 0, 56, 71
4, 22576, Control_c, 0, 64, 0
4, 22588, Note_on_c, 0, 85, 0
4, 22588, Control_c, 0, 64, 127
4, 22596, Note_on_c, 0, 97, 0
4, 22620, Note_on_c, 0, 62, 0
4, 22644, Note_on_c, 0, 67, 0
4, 22720, Note_on_c, 0, 56, 0
4, 22896, Note_on_c, 0, 61, 74
4, 22896, Note_on_c, 0, 93, 103
4, 22900, Note_on_c, 0, 64, 88
4, 22900, Note_on_c, 0, 81, 99
4, 22904, Note_on_c, 0, 54, 78
4, 22904, Note_on_c, 0, 59, 81
4, 22932, Control_c, 0, 64, 0
4, 23080, Control_c, 0, 64, 127
4, 23176, Note_on_c, 0, 93, 0
4, 23212, Note_on_c, 0, 81, 0
4, 23420, Note_on_c, 0, 64, 0
4, 23420, Note_on_c, 0, 59, 0
4, 23432, Note_on_c, 0, 54, 0
4, 23472, Note_on_c, 0, 61, 0
4, 23796, Note_on_c, 0, 66, 50
4, 23796, Note_on_c, 0, 64, 58
4, 23800, Note_on_c, 0, 61, 39
4, 23800, Control_c, 0, 64, 0
4, 23804, Note_on_c, 0, 54, 34
4, 23808, Note_on_c, 0, 71, 44
4, 23812, Note_on_c, 0, 59, 37
4, 23828, Note_on_c, 0, 64, 0
4, 23832, Note_on_c, 0, 71, 0
4, 23832, Note_on_c, 0, 66, 0
4, 23836, Note_on_c, 0, 54, 0
4, 23840, Note_on_c, 0, 59, 0
4, 23852, Note_on_c, 0, 61, 0
4, 24200, Control_c, 0, 64, 127
4, 24432, Note_on_c, 0, 55, 82
4, 24432, Note_on_c, 0, 63, 91
4, 24436, Note_on_c, 0, 87, 95
4, 24436, Control_c, 0, 64, 0
4, 24436, Note_on_c, 0, 60, 75
4, 24436, Note_on_c, 0, 75, 98
4, 24440, Note_on_c, 0, 57, 72
4, 24564, Control_c, 0, 64, 127
4, 24732, Note_on_c, 0, 55, 0
4, 24752, Note_on_c, 0, 57, 0
4, 24756, Note_on_c, 0, 63, 0
4, 24756, Note_on_c, 0, 75, 0
4, 24760, Note_on_c, 0, 87, 0
4, 24788, Note_on_c, 0, 60, 0
4, 24828, Note_on_c, 0, 75, 78
4, 24828, Note_on_c, 0, 87, 81
4, 24832, Note_on_c, 0, 63, 70
4, 24832, Note_on_c, 0, 55, 71
4, 24836, Note_on_c, 0, 60, 65
4, 24844, Note_on_c, 0, 57, 62
4, 24900, Note_on_c, 0, 63, 0
4, 24916, Note_on_c, 0, 55, 0
4, 24916, Note_on_c, 0, 87, 0
4, 24924, Note_on_c, 0, 57, 0
4, 24936, Note_on_c, 0, 75, 0
4, 24940, Note_on_c, 0, 60, 0
4, 24940, Control_c, 0, 64, 0
4, 24968, Note_on_c, 0, 63, 50
4, 24972, Note_on_c, 0, 55, 51
4, 24976, Note_on_c, 0, 86, 65
4, 24980, Note_on_c, 0, 60, 29
4, 24984, Note_on_c, 0, 74, 52
4, 25012, Note_on_c, 0, 74, 0
4, 25012, Note_on_c, 0, 86, 0
4, 25020, Note_on_c, 0, 63, 0
4, 25032, Note_on_c, 0, 55, 0
4, 25052, Note_on_c, 0, 60, 0
4, 25196, Note_on_c, 0, 55, 53
4, 25200, Note_on_c, 0, 63, 64
4, 25208, Note_on_c, 0, 86, 78
4, 25212, Note_on_c, 0, 74, 73
4, 25212, Note_on_c, 0, 60, 43
4, 25220, Control_c, 0, 64, 127
4, 25228, Note_on_c, 0, 76, 34
4, 25244, Note_on_c, 0, 60, 0
4, 25244, Note_on_c, 0, 55, 0
4, 25252, Note_on_c, 0, 76, 0
4, 25256, Note_on_c, 0, 86, 0
4, 25264, Note_on_c, 0, 74, 0
4, 25272, Control_c, 0, 64, 0
4, 25276, Note_on_c, 0, 63, 0
4, 25336, Note_on_c, 0, 60, 38
4, 25340, Note_on_c, 0, 84, 59
4, 25344, Note_on_c, 0, 54, 43
4, 25344, Note_on_c, 0, 62, 45
4, 25360, Note_on_c, 0, 84, 0
4, 25364, Note_on_c, 0, 60, 0
4, 25368, Note_on_c, 0, 62, 0
4, 25372, Note_on_c, 0, 54, 0
4, 25592, Note_on_c, 0, 58, 67
4, 25596, Note_on_c, 0, 82, 82
4, 25596, Note_on_c, 0, 54, 74
4, 25596, Note_on_c, 0, 70, 84
4, 25596, Note_on_c, 0, 60, 68
4, 25600, Note_on_c, 0, 62, 76
4, 25708, Control_c, 0, 64, 127
4, 25820, Note_on_c, 0, 60, 0
4, 25836, Note_on_c, 0, 70, 0
4, 25856, Note_on_c, 0, 82, 0
4, 25928, Note_on_c, 0, 62, 0
4, 25948, Note_on_c, 0, 58, 0
4, 25952, Note_on_c, 0, 54, 0
4, 25980, Control_c, 0, 64, 0
4, 25980, Note_on_c, 0, 62, 79
4, 25984, Note_on_c, 0, 58, 76
4, 25984, Note_on_c, 0, 81, 89
4, 25984, Note_on_c, 0, 57, 75
4, 25988, Note_on_c, 0, 53, 73
4, 25988, Note_on_c, 0, 74, 91
4, 25988, Note_on_c, 0, 69, 91
4, 25992, Note_on_c, 0, 80, 62
4, 26008, Note_on_c, 0, 71, 36
4, 26032, Note_on_c, 0, 71, 0
4, 26044, Note_on_c, 0, 80, 0
4, 26508, Control_c, 0, 64, 127
4, 26744, Note_on_c, 0, 81, 0
4, 26788, Note_on_c, 0, 69, 0
4, 26796, Note_on_c, 0, 57, 0
4, 26796, Note_on_c, 0, 62, 0
4, 26800, Note_on_c, 0, 58, 0
4, 26804, Note_on_c, 0, 53, 0
4, 26816, Note_on_c, 0, 74, 0
4, 26816, Control_c, 0, 64, 0
4, 26884, Note_on_c, 0, 58, 40
4, 26888, Note_on_c, 0, 79, 37
4, 26888, Note_on_c, 0, 62, 49
4, 26892, Note_on_c, 0, 67, 36
4, 26892, Note_on_c, 0, 74, 34
4, 26896, Note_on_c, 0, 57, 31
4, 26912, Note_on_c, 0, 62, 0
4, 26912, Note_on_c, 0, 58, 0
4, 26916, Note_on_c, 0, 67, 0
4, 26920, Note_on_c, 0, 57, 0
4, 26924, Note_on_c, 0, 79, 0
4, 26924, Note_on_c, 0, 74, 0
4, 27260, Note_on_c, 0, 81, 62
4, 27264, Note_on_c, 0, 62, 61
4, 27268, Note_on_c, 0, 69, 63
4, 27272, Note_on_c, 0, 58, 40
4, 27272, Note_on_c, 0, 74, 61
4, 27292, Note_on_c, 0, 62, 0
4, 27296, Note_on_c, 0, 74, 0
4, 27308, Note_on_c, 0, 81, 0
4, 27312, Note_on_c, 0, 69, 0
4, 27324, Note_on_c, 0, 58, 0
4, 27644, Note_on_c, 0, 72, 73
4, 27648, Note_on_c, 0, 63, 77
4, 27652, Note_on_c, 0, 68, 62
4, 27656, Note_on_c, 0, 58, 68
4, 27660, Note_on_c, 0, 64, 68
4, 27680, Note_on_c, 0, 64, 0
4, 27684, Note_on_c, 0, 63, 0
4, 27696, Note_on_c, 0, 72, 0
4, 27696, Note_on_c, 0, 68, 0
4, 27744, Note_on_c, 0, 63, 56
4, 27748, Note_on_c, 0, 72, 39
4, 27752, Note_on_c, 0, 68, 43
4, 27756, Note_on_c, 0, 64, 36
4, 27776, Note_on_c, 0, 72, 0
4, 27780, Note_on_c, 0, 63, 0
4, 27784, Note_on_c, 0, 64, 0
4, 27784, Note_on_c, 0, 68, 0
4, 27800, Note_on_c, 0, 58, 0
4, 28012, Note_on_c, 0, 68, 74
4, 28012, Note_on_c, 0, 63, 76
4, 28016, Note_on_c, 0, 72, 78
4, 28016, Note_on_c, 0, 64, 67
4, 28024, Note_on_c, 0, 58, 59
4, 28028, Control_c, 0, 64, 127
4, 28092, Note_on_c, 0, 64, 0
4, 28116, Note_on_c, 0, 72, 0
4, 28136, Note_on_c, 0, 63, 0
4, 28140, Note_on_c, 0, 68, 0
4, 28140, Note_on_c, 0, 58, 0
4, 28260, Control_c, 0, 64, 0
4, 28272, Note_on_c, 0, 69, 79
4, 28276, Note_on_c, 0, 58, 71
4, 28276, Note_on_c, 0, 64, 71
4, 28284, Note_on_c, 0, 57, 71
4, 28384, Note_on_c, 0, 69, 0
4, 28400, Note_on_c, 0, 58, 0
4, 28404, Note_on_c, 0, 64, 0
4, 28452, Note_on_c, 0, 57, 0
4, 28472, Note_on_c, 0, 67, 55
4, 28476, Note_on_c, 0, 58, 34
4, 28492, Note_on_c, 0, 61, 38
4, 28492, Note_on_c, 0, 55, 43
4, 28604, Note_on_c, 0, 61, 0
4, 28608, Note_on_c, 0, 58, 0
4, 28628, Note_on_c, 0, 67, 0
4, 28672, Note_on_c, 0, 58, 74
4, 28680, Note_on_c, 0, 61, 59
4, 28680, Note_on_c, 0, 69, 70
4, 28684, Note_on_c, 0, 64, 67
4, 28684, Note_on_c, 0, 57, 67
4, 28688, Note_on_c, 0, 67, 36
4, 28700, Note_on_c, 0, 69, 0
4, 28700, Note_on_c, 0, 55, 0
4, 28712, Note_on_c, 0, 67, 0
4, 28716, Note_on_c, 0, 57, 0
4, 28728, Note_on_c, 0, 64, 0
4, 28744, Note_on_c, 0, 58, 0
4, 28752, Note_on_c, 0, 61, 0
4, 29016, Note_on_c, 0, 58, 74
4, 29020, Note_on_c, 0, 62, 79
4, 29020, Note_on_c, 0, 53, 80
4, 29024, Note_on_c, 0, 50, 73
4, 29044, Note_on_c, 0, 49, 44
4, 29068, Note_on_c, 0, 49, 0
4, 29264, Control_c, 0, 64, 127
4, 29352, Note_on_c, 0, 62, 0
4, 29392, Note_on_c, 0, 53, 0
4, 29396, Note_on_c, 0, 58, 0
4, 29448, Note_on_c, 0, 49, 49
4, 29464, Note_on_c, 0, 50, 0
4, 29468, Note_on_c, 0, 51, 50
4, 29500, Note_on_c, 0, 50, 16
4, 29516, Note_on_c, 0, 49, 0
4, 29532, Note_on_c, 0, 50, 0
4, 29532, Note_on_c, 0, 53, 55
4, 29532, Note_on_c, 0, 67, 72
4, 29536, Note_on_c, 0, 58, 69
4, 29544, Note_on_c, 0, 51, 0
4, 29544, Note_on_c, 0, 65, 62
4, 29548, Control_c, 0, 64, 0
4, 29548, Note_on_c, 0, 55, 83
4, 29548, Note_on_c, 0, 62, 58
4, 29552, Note_on_c, 0, 53, 0
4, 29732, Note_on_c, 0, 67, 0
4, 29736, Note_on_c, 0, 65, 0
4, 29836, Note_on_c, 0, 62, 0
4, 29840, Note_on_c, 0, 53, 31
4, 29856, Note_on_c, 0, 58, 0
4, 29860, Note_on_c, 0, 54, 37
4, 29912, Note_on_c, 0, 54, 0
4, 29916, Note_on_c, 0, 53, 0
4, 29920, Note_on_c, 0, 58, 62
4, 29924, Note_on_c, 0, 55, 0
4, 29924, Note_on_c, 0, 57, 55
4, 29928, Note_on_c, 0, 69, 62
4, 29932, Note_on_c, 0, 65, 57
4, 29936, Note_on_c, 0, 62, 60
4, 30132, Note_on_c, 0, 62, 0
4, 30136, Note_on_c, 0, 69, 0
4, 30136, Note_on_c, 0, 58, 0
4, 30156, Note_on_c, 0, 65, 0
4, 30192, Note_on_c, 0, 58, 49
4, 30200, Note_on_c, 0, 55, 60
4, 30200, Note_on_c, 0, 62, 55
4, 30204, Note_on_c, 0, 67, 58
4, 30232, Note_on_c, 0, 65, 30
4, 30252, Note_on_c, 0, 57, 0
4, 30264, Note_on_c, 0, 65, 0
4, 30276, Note_on_c, 0, 62, 0
4, 30280, Note_on_c, 0, 58, 0
4, 30284, Note_on_c, 0, 55, 0
4, 30300, Note_on_c, 0, 67, 0
4, 30556, Note_on_c, 0, 55, 71
4, 30572, Note_on_c, 0, 69, 84
4, 30572, Note_on_c, 0, 61, 83
4, 30572, Note_on_c, 0, 58, 83
4, 30576, Note_on_c, 0, 64, 77
4, 30580, Note_on_c, 0, 57, 81
4, 30608, Note_on_c, 0, 55, 0
4, 30732, Control_c, 0, 64, 127
4, 30792, Note_on_c, 0, 58, 0
4, 30816, Note_on_c, 0, 57, 0
4, 30820, Note_on_c, 0, 64, 0
4, 30824, Note_on_c, 0, 61, 0
4, 30828, Note_on_c, 0, 69, 0
4, 30984, Note_on_c, 0, 69, 74
4, 31020, Note_on_c, 0, 69, 0
4, 31036, Control_c, 0, 64, 0
4, 31092, Note_on_c, 0, 74, 64
4, 31172, Note_on_c, 0, 74, 0
4, 31200, Note_on_c, 0, 78, 62
4, 31240, Note_on_c, 0, 78, 0
4, 31288, Note_on_c, 0, 81, 75
4, 31336, Note_on_c, 0, 81, 0
4, 31380, Note_on_c, 0, 86, 76
4, 31424, Note_on_c, 0, 86, 0
4, 31460, Note_on_c, 0, 58, 45
4, 31468, Note_on_c, 0, 62, 54
4, 31476, Note_on_c, 0, 57, 46
4, 31480, Note_on_c, 0, 90, 69
4, 31492, Note_on_c, 0, 52, 42
4, 31496, Note_on_c, 0, 90, 0
4, 31500, Note_on_c, 0, 89, 52
4, 31524, Note_on_c, 0, 89, 0
4, 31580, Note_on_c, 0, 93, 84
4, 31652, Control_c, 0, 64, 127
4, 31736, Note_on_c, 0, 58, 0
4, 31752, Note_on_c, 0, 57, 0
4, 31756, Note_on_c, 0, 62, 0
4, 31808, Note_on_c, 0, 93, 0
4, 31844, Control_c, 0, 64, 0
4, 31856, Note_on_c, 0, 91, 78
4, 31860, Note_on_c, 0, 57, 54
4, 31860, Note_on_c, 0, 58, 45
4, 31864, Note_on_c, 0, 62, 49
4, 31900, Control_c, 0, 64, 127
4, 31976, Note_on_c, 0, 58, 0
4, 31984, Note_on_c, 0, 62, 0
4, 32024, Note_on_c, 0, 91, 0
4, 32048, Note_on_c, 0, 57, 0
4, 32088, Note_on_c, 0, 57, 14
4, 32096, Note_on_c, 0, 62, 45
4, 32096, Note_on_c, 0, 90, 77
4, 32100, Note_on_c, 0, 58, 32
4, 32108, Note_on_c, 0, 52, 0
4, 32136, Note_on_c, 0, 58, 0
4, 32144, Note_on_c, 0, 62, 0
4, 32172, Note_on_c, 0, 57, 0
4, 32204, Note_on_c, 0, 90, 0
4, 32204, Control_c, 0, 64, 0
4, 32216, Note_on_c, 0, 64, 61
4, 32228, Note_on_c, 0, 60, 45
4, 32228, Note_on_c, 0, 57, 43
4, 32232, Note_on_c, 0, 91, 66
4, 32236, Note_on_c, 0, 86, 54
4, 32252, Note_on_c, 0, 53, 17
4, 32256, Note_on_c, 0, 60, 0
4, 32324, Note_on_c, 0, 57, 0
4, 32332, Note_on_c, 0, 86, 0
4, 32340, Note_on_c, 0, 64, 0
4, 32352, Note_on_c, 0, 91, 0
4, 32356, Note_on_c, 0, 53, 0
4, 32460, Note_on_c, 0, 91, 66
4, 32464, Note_on_c, 0, 64, 64
4, 32468, Note_on_c, 0, 79, 50
4, 32472, Note_on_c, 0, 86, 64
4, 32472, Note_on_c, 0, 60, 50
4, 32472, Note_on_c, 0, 57, 47
4, 32480, Note_on_c, 0, 53, 28
4, 32488, Note_on_c, 0, 86, 0
4, 32492, Note_on_c, 0, 60, 0
4, 32492, Note_on_c, 0, 79, 0
4, 32500, Note_on_c, 0, 57, 0
4, 32504, Note_on_c, 0, 91, 0
4, 32504, Note_on_c, 0, 64, 0
4, 32508, Note_on_c, 0, 53, 0
4, 32664, Control_c, 0, 64, 127
4, 32880, Note_on_c, 0, 89, 88
4, 32884, Note_on_c, 0, 64, 85
4, 32884, Note_on_c, 0, 84, 92
4, 32884, Note_on_c, 0, 53, 77
4, 32884, Note_on_c, 0, 57, 71
4, 32888, Note_on_c, 0, 77, 90
4, 32888, Note_on_c, 0, 60, 73
4, 33288, Note_on_c, 0, 77, 0
4, 33304, Note_on_c, 0, 84, 0
4, 33316, Note_on_c, 0, 89, 0
4, 33316, Note_on_c, 0, 64, 0
4, 33320, Note_on_c, 0, 53, 0
4, 33320, Note_on_c, 0, 60, 0
4, 33328, Note_on_c, 0, 57, 0
4, 33376, Control_c, 0, 64, 0
4, 33392, Note_on_c, 0, 79, 59
4, 33396, Note_on_c, 0, 64, 48
4, 33396, Note_on_c, 0, 57, 45
4, 33400, Note_on_c, 0, 91, 45
4, 33400, Note_on_c, 0, 86, 48
4, 33404, Note_on_c, 0, 53, 30
4, 33408, Note_on_c, 0, 60, 36
4, 33412, Note_on_c, 0, 79, 0
4, 33424, Note_on_c, 0, 86, 0
4, 33428, Note_on_c, 0, 64, 0
4, 33428, Note_on_c, 0, 60, 0
4, 33432, Note_on_c, 0, 57, 0
4, 33432, Note_on_c, 0, 53, 0
4, 33436, Note_on_c, 0, 91, 0
4, 33644, Note_on_c, 0, 67, 78
4, 33648, Note_on_c, 0, 60, 64
4, 33652, Note_on_c, 0, 62, 68
4, 33652, Note_on_c, 0, 96, 85
4, 33652, Note_on_c, 0, 56, 55
4, 33656, Note_on_c, 0, 84, 84
4, 33656, Note_on_c, 0, 91, 74
4, 33692, Note_on_c, 0, 84, 0
4, 33700, Note_on_c, 0, 91, 0
4, 33704, Note_on_c, 0, 60, 0
4, 33712, Note_on_c, 0, 67, 0
4, 33716, Note_on_c, 0, 62, 0
4, 33724, Note_on_c, 0, 96, 0
4, 33728, Note_on_c, 0, 56, 0
4, 33844, Note_on_c, 0, 96, 76
4, 33848, Note_on_c, 0, 56, 65
4, 33852, Note_on_c, 0, 67, 73
4, 33852, Note_on_c, 0, 89, 70
4, 33852, Note_on_c, 0, 88, 63
4, 33852, Note_on_c, 0, 62, 66
4, 33864, Note_on_c, 0, 84, 61
4, 33872, Note_on_c, 0, 88, 0
4, 33872, Control_c, 0, 64, 127
4, 33900, Note_on_c, 0, 88, 17
4, 33956, Note_on_c, 0, 89, 0
4, 34024, Note_on_c, 0, 88, 0
4, 34032, Note_on_c, 0, 62, 0
4, 34044, Note_on_c, 0, 56, 0
4, 34048, Note_on_c, 0, 84, 0
4, 34056, Note_on_c, 0, 67, 0
4, 34068, Note_on_c, 0, 96, 0
4, 34176, Note_on_c, 0, 88, 66
4, 34180, Note_on_c, 0, 96, 79
4, 34180, Note_on_c, 0, 84, 74
4, 34184, Control_c, 0, 64, 0
4, 34184, Note_on_c, 0, 91, 66
4, 34184, Note_on_c, 0, 56, 74
4, 34188, Note_on_c, 0, 62, 71
4, 34188, Note_on_c, 0, 67, 76
4, 34228, Control_c, 0, 64, 127
4, 34284, Note_on_c, 0, 96, 0
4, 34292, Note_on_c, 0, 88, 0
4, 34296, Note_on_c, 0, 91, 0
4, 34300, Note_on_c, 0, 84, 0
4, 34348, Note_on_c, 0, 67, 0
4, 34356, Note_on_c, 0, 56, 0
4, 34356, Note_on_c, 0, 62, 0
4, 34424, Note_on_c, 0, 67, 73
4, 34424, Note_on_c, 0, 56, 68
4, 34428, Note_on_c, 0, 91, 54
4, 34428, Note_on_c, 0, 84, 66
4, 34428, Note_on_c, 0, 79, 51
4, 34432, Note_on_c, 0, 88, 56
4, 34432, Note_on_c, 0, 62, 61
4, 34440, Control_c, 0, 64, 0
4, 34472, Note_on_c, 0, 88, 0
4, 34472, Note_on_c, 0, 67, 0
4, 34472, Note_on_c, 0, 84, 0
4, 34492, Note_on_c, 0, 79, 0
4, 34496, Note_on_c, 0, 62, 0
4, 34500, Note_on_c, 0, 91, 0
4, 34508, Note_on_c, 0, 56, 0
4, 34656, Control_c, 0, 64, 127
4, 35076, Note_on_c, 0, 77, 62
4, 35084, Note_on_c, 0, 56, 33
4, 35100, Note_on_c, 0, 62, 33
4, 35104, Note_on_c, 0, 77, 0
4, 35108, Note_on_c, 0, 56, 0
4, 35128, Note_on_c, 0, 62, 0
4, 35172, Note_on_c, 0, 56, 55
4, 35176, Note_on_c, 0, 91, 71
4, 35176, Note_on_c, 0, 67, 38
4, 35184, Note_on_c, 0, 62, 49
4, 35184, Note_on_c, 0, 79, 57
4, 35196, Note_on_c, 0, 91, 0
4, 35200, Note_on_c, 0, 67, 0
4, 35204, Note_on_c, 0, 79, 0
4, 35204, Note_on_c, 0, 62, 0
4, 35252, Note_on_c, 0, 56, 0
4, 35268, Control_c, 0, 64, 0
4, 35312, Note_on_c, 0, 64, 56
4, 35320, Note_on_c, 0, 72, 33
4, 35320, Note_on_c, 0, 84, 38
4, 35332, Note_on_c, 0, 64, 0
4, 35340, Note_on_c, 0, 72, 0
4, 35344, Note_on_c, 0, 84, 0
4, 35560, Note_on_c, 0, 64, 70
4, 35564, Note_on_c, 0, 57, 52
4, 35568, Note_on_c, 0, 55, 58
4, 35568, Note_on_c, 0, 72, 74
4, 35568, Note_on_c, 0, 60, 52
4, 35572, Note_on_c, 0, 81, 64
4, 35576, Note_on_c, 0, 84, 68
4, 35616, Note_on_c, 0, 55, 0
4, 35620, Note_on_c, 0, 72, 0
4, 35624, Note_on_c, 0, 60, 0
4, 35624, Note_on_c, 0, 64, 0
4, 35636, Note_on_c, 0, 81, 0
4, 35640, Note_on_c, 0, 84, 0
4, 35640, Note_on_c, 0, 57, 0
4, 35956, Note_on_c, 0, 77, 90
4, 35960, Note_on_c, 0, 89, 87
4, 35960, Note_on_c, 0, 84, 88
4, 35964, Control_c, 0, 64, 127
4, 35964, Note_on_c, 0, 64, 82
4, 35964, Note_on_c, 0, 57, 72
4, 35964, Note_on_c, 0, 55, 76
4, 35968, Note_on_c, 0, 60, 71
4, 36044, Note_on_c, 0, 77, 0
4, 36052, Note_on_c, 0, 89, 0
4, 36056, Note_on_c, 0, 84, 0
4, 36056, Note_on_c, 0, 64, 0
4, 36056, Note_on_c, 0, 55, 0
4, 36064, Note_on_c, 0, 60, 0
4, 36072, Note_on_c, 0, 57, 0
4, 36104, Note_on_c, 0, 86, 75
4, 36104, Note_on_c, 0, 91, 78
4, 36108, Note_on_c, 0, 79, 68
4, 36108, Note_on_c, 0, 64, 66
4, 36108, Note_on_c, 0, 55, 70
4, 36112, Note_on_c, 0, 60, 66
4, 36116, Note_on_c, 0, 57, 75
4, 36252, Note_on_c, 0, 91, 0
4, 36260, Note_on_c, 0, 55, 0
4, 36268, Note_on_c, 0, 86, 0
4, 36272, Note_on_c, 0, 64, 0
4, 36272, Note_on_c, 0, 60, 0
4, 36276, Note_on_c, 0, 79, 0
4, 36276, Note_on_c, 0, 57, 0
4, 36344, Note_on_c, 0, 89, 71
4, 36348, Note_on_c, 0, 55, 72
4, 36352, Note_on_c, 0, 64, 68
4, 36356, Note_on_c, 0, 77, 39
4, 36356, Note_on_c, 0, 60, 64
4, 36360, Note_on_c, 0, 84, 69
4, 36364, Note_on_c, 0, 57, 55
4, 36364, Note_on_c, 0, 79, 49
4, 36384, Note_on_c, 0, 79, 0
4, 36496, Note_on_c, 0, 89, 0
4, 36512, Note_on_c, 0, 84, 0
4, 36536, Note_on_c, 0, 64, 0
4, 36540, Note_on_c, 0, 77, 0
4, 36552, Note_on_c, 0, 55, 0
4, 36552, Note_on_c, 0, 60, 0
4, 36568, Note_on_c, 0, 57, 0
4, 36788, Note_on_c, 0, 63, 37
4, 36820, Note_on_c, 0, 65, 58
4, 36828, Control_c, 0, 64, 0
4, 36840, Note_on_c, 0, 63, 0
4, 36848, Note_on_c, 0, 79, 75
4, 36852, Note_on_c, 0, 71, 80
4, 36856, Note_on_c, 0, 68, 73
4, 36864, Note_on_c, 0, 74, 62
4, 36868, Note_on_c, 0, 67, 83
4, 36876, Note_on_c, 0, 65, 0
4, 37204, Note_on_c, 0, 68, 0
4, 37208, Note_on_c, 0, 79, 0
4, 37212, Note_on_c, 0, 71, 0
4, 37220, Note_on_c, 0, 74, 0
4, 37240, Note_on_c, 0, 67, 0
4, 37240, Note_on_c, 0, 68, 64
4, 37248, Note_on_c, 0, 65, 71
4, 37248, Note_on_c, 0, 77, 66
4, 37252, Note_on_c, 0, 71, 64
4, 37252, Note_on_c, 0, 74, 47
4, 37332, Control_c, 0, 64, 127
4, 37452, Note_on_c, 0, 77, 0
4, 37488, Note_on_c, 0, 71, 0
4, 37492, Note_on_c, 0, 74, 0
4, 37548, Note_on_c, 0, 68, 0
4, 37564, Note_on_c, 0, 65, 0
4, 37592, Control_c, 0, 64, 0
4, 37632, Note_on_c, 0, 76, 59
4, 37632, Note_on_c, 0, 64, 50
4, 37640, Note_on_c, 0, 71, 47
4, 37644, Note_on_c, 0, 68, 28
4, 37656, Note_on_c, 0, 65, 24
4, 37684, Control_c, 0, 64, 127
4, 37724, Note_on_c, 0, 71, 0
4, 37728, Note_on_c, 0, 68, 0
4, 37736, Note_on_c, 0, 76, 0
4, 37764, Note_on_c, 0, 65, 0
4, 37820, Note_on_c, 0, 64, 0
4, 37884, Note_on_c, 0, 65, 75
4, 37888, Note_on_c, 0, 77, 76
4, 37888, Note_on_c, 0, 68, 74
4, 37892, Note_on_c, 0, 71, 74
4, 37892, Note_on_c, 0, 74, 73
4, 37904, Control_c, 0, 64, 0
4, 37952, Note_on_c, 0, 65, 0
4, 37980, Note_on_c, 0, 71, 0
4, 37980, Note_on_c, 0, 77, 0
4, 37980, Note_on_c, 0, 68, 0
4, 37980, Note_on_c, 0, 74, 0
4, 38268, Note_on_c, 0, 70, 83
4, 38268, Note_on_c, 0, 77, 88
4, 38268, Note_on_c, 0, 74, 85
4, 38268, Note_on_c, 0, 65, 91
4, 38272, Note_on_c, 0, 67, 84
4, 38272, Note_on_c, 0, 58, 72
4, 38276, Note_on_c, 0, 57, 79
4, 38276, Note_on_c, 0, 62, 89
4, 38280, Note_on_c, 0, 53, 79
4, 38288, Note_on_c, 0, 71, 48
4, 38292, Note_on_c, 0, 67, 0
4, 38308, Note_on_c, 0, 71, 0
4, 38324, Note_on_c, 0, 70, 0
4, 38344, Note_on_c, 0, 65, 0
4, 38372, Note_on_c, 0, 58, 0
4, 38376, Control_c, 0, 64, 127
4, 38380, Note_on_c, 0, 57, 0
4, 38388, Note_on_c, 0, 62, 0
4, 38388, Note_on_c, 0, 74, 0
4, 38392, Note_on_c, 0, 77, 0
4, 38400, Note_on_c, 0, 65, 53
4, 38444, Note_on_c, 0, 70, 53
4, 38448, Note_on_c, 0, 53, 0
4, 38448, Note_on_c, 0, 57, 32
4, 38452, Note_on_c, 0, 58, 52
4, 38452, Note_on_c, 0, 62, 40
4, 38460, Note_on_c, 0, 74, 46
4, 38464, Note_on_c, 0, 65, 0
4, 38476, Note_on_c, 0, 57, 0
4, 38484, Note_on_c, 0, 77, 32
4, 38508, Note_on_c, 0, 70, 0
4, 38508, Note_on_c, 0, 74, 0
4, 38508, Note_on_c, 0, 65, 57
4, 38516, Note_on_c, 0, 58, 0
4, 38520, Note_on_c, 0, 77, 0
4, 38540, Note_on_c, 0, 62, 0
4, 38548, Note_on_c, 0, 53, 45
4, 38568, Note_on_c, 0, 65, 0
4, 38584, Note_on_c, 0, 70, 25
4, 38588, Note_on_c, 0, 57, 27
4, 38588, Note_on_c, 0, 74, 33
4, 38592, Note_on_c, 0, 77, 20
4, 38620, Note_on_c, 0, 53, 0
4, 38628, Note_on_c, 0, 62, 38
4, 38640, Note_on_c, 0, 77, 0
4, 38644, Note_on_c, 0, 74, 0
4, 38648, Note_on_c, 0, 70, 0
4, 38652, Note_on_c, 0, 57, 0
4, 38652, Note_on_c, 0, 62, 0
4, 38692, Control_c, 0, 64, 0
4, 39060, Note_on_c, 0, 62, 84
4, 39064, Note_on_c, 0, 58, 51
4, 39064, Note_on_c, 0, 53, 69
4, 39064, Note_on_c, 0, 57, 55
4, 39132, Note_on_c, 0, 57, 0
4, 39144, Note_on_c, 0, 58, 0
4, 39148, Note_on_c, 0, 53, 0
4, 39160, Note_on_c, 0, 62, 0
4, 39192, Control_c, 0, 64, 127
4, 39200, Note_on_c, 0, 65, 71
4, 39204, Note_on_c, 0, 53, 19
4, 39212, Note_on_c, 0, 58, 46
4, 39224, Note_on_c, 0, 57, 30
4, 39228, Note_on_c, 0, 62, 48
4, 39300, Note_on_c, 0, 62, 0
4, 39336, Note_on_c, 0, 53, 0
4, 39340, Note_on_c, 0, 57, 0
4, 39340, Note_on_c, 0, 58, 0
4, 39404, Note_on_c, 0, 65, 0
4, 39440, Note_on_c, 0, 58, 63
4, 39440, Note_on_c, 0, 69, 80
4, 39440, Note_on_c, 0, 53, 63
4, 39440, Note_on_c, 0, 62, 73
4, 39444, Note_on_c, 0, 65, 53
4, 39448, Note_on_c, 0, 57, 53
4, 39468, Note_on_c, 0, 65, 0
4, 39476, Note_on_c, 0, 57, 0
4, 39496, Note_on_c, 0, 53, 0
4, 39504, Note_on_c, 0, 62, 0
4, 39540, Note_on_c, 0, 69, 0
4, 39544, Note_on_c, 0, 58, 0
4, 39900, Control_c, 0, 64, 0
4, 39932, Note_on_c, 0, 69, 73
4, 39932, Note_on_c, 0, 58, 61
4, 39936, Note_on_c, 0, 64, 63
4, 39936, Note_on_c, 0, 75, 76
4, 39944, Note_on_c, 0, 84, 74
4, 39944, Note_on_c, 0, 80, 53
4, 39960, Note_on_c, 0, 84, 0
4, 39968, Note_on_c, 0, 80, 0
4, 39972, Note_on_c, 0, 69, 0
4, 39972, Note_on_c, 0, 75, 0
4, 39980, Note_on_c, 0, 64, 0
4, 39988, Note_on_c, 0, 58, 0
4, 40300, Note_on_c, 0, 75, 83
4, 40300, Note_on_c, 0, 80, 72
4, 40300, Note_on_c, 0, 84, 82
4, 40308, Note_on_c, 0, 69, 80
4, 40308, Note_on_c, 0, 58, 69
4, 40308, Note_on_c, 0, 64, 71
4, 40448, Control_c, 0, 64, 127
4, 40696, Note_on_c, 0, 69, 0
4, 40700, Note_on_c, 0, 64, 0
4, 40704, Note_on_c, 0, 84, 0
4, 40724, Note_on_c, 0, 80, 0
4, 40732, Note_on_c, 0, 75, 0
4, 40736, Note_on_c, 0, 58, 0
4, 40968, Note_on_c, 0, 80, 78
4, 40972, Note_on_c, 0, 70, 83
4, 40976, Note_on_c, 0, 74, 84
4, 40980, Note_on_c, 0, 62, 81
4, 40980, Note_on_c, 0, 56, 78
4, 40980, Note_on_c, 0, 67, 88
4, 40996, Control_c, 0, 64, 0
4, 41104, Control_c, 0, 64, 127
4, 41208, Note_on_c, 0, 74, 0
4, 41212, Note_on_c, 0, 62, 0
4, 41220, Note_on_c, 0, 67, 0
4, 41228, Note_on_c, 0, 70, 0
4, 41236, Note_on_c, 0, 80, 0
4, 41296, Note_on_c, 0, 56, 0
4, 41348, Note_on_c, 0, 79, 79
4, 41348, Note_on_c, 0, 72, 81
4, 41352, Note_on_c, 0, 67, 83
4, 41352, Note_on_c, 0, 55, 80
4, 41356, Note_on_c, 0, 60, 79
4, 41356, Note_on_c, 0, 64, 80
4, 41360, Note_on_c, 0, 77, 60
4, 41360, Note_on_c, 0, 75, 45
4, 41364, Control_c, 0, 64, 0
4, 41380, Note_on_c, 0, 75, 0
4, 41380, Note_on_c, 0, 77, 0
4, 41520, Control_c, 0, 64, 127
4, 41556, Note_on_c, 0, 67, 0
4, 41580, Note_on_c, 0, 72, 0
4, 41616, Note_on_c, 0, 55, 0
4, 41616, Note_on_c, 0, 60, 0
4, 41616, Note_on_c, 0, 79, 0
4, 41620, Note_on_c, 0, 64, 0
4, 41756, Note_on_c, 0, 76, 92
4, 41756, Note_on_c, 0, 88, 87
4, 41760, Note_on_c, 0, 55, 90
4, 41760, Note_on_c, 0, 64, 84
4, 41764, Note_on_c, 0, 60, 80
4, 41768, Note_on_c, 0, 86, 62
4, 41788, Note_on_c, 0, 86, 0
4, 41788, Control_c, 0, 64, 0
4, 41884, Control_c, 0, 64, 127
4, 42044, Note_on_c, 0, 76, 0
4, 42044, Note_on_c, 0, 88, 0
4, 42112, Note_on_c, 0, 55, 0
4, 42132, Note_on_c, 0, 64, 0
4, 42144, Note_on_c, 0, 60, 0
4, 42244, Control_c, 0, 64, 0
4, 42248, Note_on_c, 0, 64, 60
4, 42252, Note_on_c, 0, 60, 54
4, 42252, Note_on_c, 0, 55, 55
4, 42256, Note_on_c, 0, 79, 63
4, 42260, Note_on_c, 0, 91, 54
4, 42276, Note_on_c, 0, 60, 0
4, 42280, Note_on_c, 0, 64, 0
4, 42280, Note_on_c, 0, 55, 0
4, 42292, Note_on_c, 0, 79, 0
4, 42324, Note_on_c, 0, 91, 0
4, 42612, Note_on_c, 0, 95, 71
4, 42616, Note_on_c, 0, 64, 63
4, 42616, Note_on_c, 0, 83, 66
4, 42616, Note_on_c, 0, 55, 66
4, 42620, Note_on_c, 0, 60, 56
4, 42644, Note_on_c, 0, 60, 0
4, 42656, Note_on_c, 0, 64, 0
4, 42660, Control_c, 0, 64, 127
4, 42664, Note_on_c, 0, 83, 0
4, 42672, Note_on_c, 0, 55, 0
4, 42692, Note_on_c, 0, 95, 0
4, 42948, Control_c, 0, 64, 0
4, 43008, Note_on_c, 0, 54, 78
4, 43012, Note_on_c, 0, 86, 78
4, 43012, Note_on_c, 0, 98, 58
4, 43016, Note_on_c, 0, 60, 73
4, 43016, Note_on_c, 0, 64, 71
4, 43020, Note_on_c, 0, 96, 64
4, 43024, Note_on_c, 0, 92, 34
4, 43028, Note_on_c, 0, 95, 24
4, 43040, Note_on_c, 0, 96, 0
4, 43044, Note_on_c, 0, 92, 0
4, 43044, Note_on_c, 0, 86, 0
4, 43052, Note_on_c, 0, 64, 0
4, 43056, Note_on_c, 0, 95, 0
4, 43056, Note_on_c, 0, 98, 0
4, 43064, Note_on_c, 0, 60, 0
4, 43068, Note_on_c, 0, 54, 0
4, 43212, Note_on_c, 0, 54, 76
4, 43212, Note_on_c, 0, 64, 79
4, 43212, Note_on_c, 0, 60, 74
4, 43216, Note_on_c, 0, 86, 77
4, 43216, Note_on_c, 0, 92, 64
4, 43216, Note_on_c, 0, 95, 71
4, 43220, Note_on_c, 0, 98, 66
4, 43232, Note_on_c, 0, 86, 0
4, 43240, Note_on_c, 0, 95, 0
4, 43240, Note_on_c, 0, 60, 0
4, 43240, Note_on_c, 0, 98, 0
4, 43244, Note_on_c, 0, 92, 0
4, 43248, Note_on_c, 0, 64, 0
4, 43252, Note_on_c, 0, 54, 0
4, 43408, Note_on_c, 0, 54, 80
4, 43408, Note_on_c, 0, 98, 80
4, 43408, Note_on_c, 0, 64, 80
4, 43412, Note_on_c, 0, 92, 70
4, 43412, Note_on_c, 0, 86, 79
4, 43416, Note_on_c, 0, 60, 70
4, 43416, Note_on_c, 0, 95, 70
4, 43444, Control_c, 0, 64, 127
4, 43464, Note_on_c, 0, 60, 0
4, 43464, Note_on_c, 0, 64, 0
4, 43464, Note_on_c, 0, 86, 0
4, 43468, Note_on_c, 0, 92, 0
4, 43468, Note_on_c, 0, 98, 0
4, 43472, Note_on_c, 0, 95, 0
4, 43480, Note_on_c, 0, 54, 0
4, 43508, Control_c, 0, 64, 0
4, 43520, Note_on_c, 0, 98, 74
4, 43524, Note_on_c, 0, 92, 67
4, 43524, Note_on_c, 0, 86, 68
4, 43524, Note_on_c, 0, 54, 74
4, 43528, Note_on_c, 0, 95, 67
4, 43528, Note_on_c, 0, 64, 76
4, 43532, Note_on_c, 0, 60, 71
4, 43652, Control_c, 0, 64, 127
4, 43892, Note_on_c, 0, 60, 0
4, 43896, Note_on_c, 0, 86, 0
4, 43900, Note_on_c, 0, 64, 0
4, 43908, Note_on_c, 0, 98, 0
4, 43912, Note_on_c, 0, 95, 0
4, 43916, Note_on_c, 0, 54, 0
4, 43924, Note_on_c, 0, 92, 0
4, 44040, Note_on_c, 0, 100, 83
4, 44044, Note_on_c, 0, 93, 84
4, 44044, Note_on_c, 0, 96, 81
4, 44044, Note_on_c, 0, 88, 84
4, 44044, Note_on_c, 0, 54, 87
4, 44048, Note_on_c, 0, 60, 87
4, 44048, Note_on_c, 0, 64, 91
4, 44056, Control_c, 0, 64, 0
4, 44132, Control_c, 0, 64, 127
4, 44272, Note_on_c, 0, 96, 0
4, 44272, Note_on_c, 0, 93, 0
4, 44276, Note_on_c, 0, 88, 0
4, 44288, Note_on_c, 0, 100, 0
4, 44304, Note_on_c, 0, 60, 0
4, 44304, Note_on_c, 0, 64, 0
4, 44348, Note_on_c, 0, 54, 0
4, 44392, Control_c, 0, 64, 0
4, 44400, Note_on_c, 0, 62, 96
4, 44400, Note_on_c, 0, 94, 88
4, 44400, Note_on_c, 0, 58, 78
4, 44404, Note_on_c, 0, 53, 87
4, 44404, Note_on_c, 0, 57, 83
4, 44404, Note_on_c, 0, 89, 91
4, 44404, Note_on_c, 0, 101, 88
4, 44404, Note_on_c, 0, 98, 84
4, 44504, Note_on_c, 0, 98, 0
4, 44508, Note_on_c, 0, 101, 0
4, 44508, Note_on_c, 0, 58, 0
4, 44508, Note_on_c, 0, 62, 0
4, 44508, Note_on_c, 0, 89, 0
4, 44512, Note_on_c, 0, 94, 0
4, 44516, Note_on_c, 0, 57, 0
4, 44520, Note_on_c, 0, 53, 0
4, 44780, Note_on_c, 0, 98, 94
4, 44784, Note_on_c, 0, 58, 81
4, 44784, Note_on_c, 0, 86, 95
4, 44784, Note_on_c, 0, 94, 79
4, 44784, Note_on_c, 0, 62, 95
4, 44784, Note_on_c, 0, 57, 82
4, 44788, Note_on_c, 0, 91, 87
4, 44792, Note_on_c, 0, 53, 87
4, 44908, Control_c, 0, 64, 127
4, 45180, Note_on_c, 0, 98, 0
4, 45188, Note_on_c, 0, 91, 0
4, 45188, Note_on_c, 0, 86, 0
4, 45192, Note_on_c, 0, 62, 0
4, 45200, Note_on_c, 0, 53, 0
4, 45204, Note_on_c, 0, 58, 0
4, 45220, Note_on_c, 0, 57, 0
4, 45228, Note_on_c, 0, 94, 0
4, 45260, Control_c, 0, 64, 0
4, 45292, Note_on_c, 0, 96, 60
4, 45292, Note_on_c, 0, 58, 55
4, 45296, Note_on_c, 0, 62, 55
4, 45296, Note_on_c, 0, 84, 45
4, 45300, Note_on_c, 0, 91, 54
4, 45300, Note_on_c, 0, 57, 35
4, 45320, Note_on_c, 0, 62, 0
4, 45324, Note_on_c, 0, 57, 0
4, 45336, Note_on_c, 0, 96, 0
4, 45340, Note_on_c, 0, 91, 0
4, 45340, Note_on_c, 0, 84, 0
4, 45352, Note_on_c, 0, 58, 0
4, 45688, Note_on_c, 0, 57, 44
4, 45688, Note_on_c, 0, 58, 44
4, 45688, Note_on_c, 0, 62, 52
4, 45692, Note_on_c, 0, 94, 61
4, 45696, Note_on_c, 0, 82, 58
4, 45696, Control_c, 0, 64, 127
4, 45700, Note_on_c, 0, 53, 44
4, 45736, Note_on_c, 0, 82, 0
4, 45740, Note_on_c, 0, 57, 0
4, 45744, Note_on_c, 0, 94, 0
4, 45756, Note_on_c, 0, 62, 0
4, 45784, Note_on_c, 0, 53, 0
4, 45788, Note_on_c, 0, 58, 0
4, 45836, Control_c, 0, 64, 0
4, 45936, Note_on_c, 0, 93, 87
4, 45940, Note_on_c, 0, 58, 77
4, 45940, Note_on_c, 0, 81, 76
4, 45944, Note_on_c, 0, 86, 77
4, 45944, Note_on_c, 0, 62, 89
4, 45944, Note_on_c, 0, 52, 85
4, 46056, Note_on_c, 0, 86, 0
4, 46056, Note_on_c, 0, 93, 0
4, 46064, Note_on_c, 0, 62, 0
4, 46064, Note_on_c, 0, 58, 0
4, 46072, Note_on_c, 0, 52, 0
4, 46072, Note_on_c, 0, 81, 0
4, 46328, Note_on_c, 0, 77, 82
4, 46328, Note_on_c, 0, 84, 85
4, 46332, Note_on_c, 0, 89, 83
4, 46332, Note_on_c, 0, 58, 82
4, 46336, Note_on_c, 0, 62, 89
4, 46340, Note_on_c, 0, 52, 88
4, 46344, Note_on_c, 0, 79, 41
4, 46364, Note_on_c, 0, 79, 0
4, 46440, Control_c, 0, 64, 127
4, 46460, Note_on_c, 0, 89, 0
4, 46480, Note_on_c, 0, 84, 0
4, 46500, Note_on_c, 0, 77, 0
4, 46500, Note_on_c, 0, 62, 0
4, 46532, Note_on_c, 0, 58, 0
4, 46556, Note_on_c, 0, 52, 0
4, 46748, Note_on_c, 0, 53, 54
4, 46776, Note_on_c, 0, 54, 59
4, 46792, Note_on_c, 0, 55, 80
4, 46796, Control_c, 0, 64, 0
4, 46828, Note_on_c, 0, 54, 0
4, 46832, Note_on_c, 0, 53, 0
4, 46844, Note_on_c, 0, 69, 80
4, 46844, Note_on_c, 0, 58, 73
4, 46844, Note_on_c, 0, 61, 71
4, 46848, Note_on_c, 0, 64, 68
4, 46856, Note_on_c, 0, 57, 74
4, 46884, Note_on_c, 0, 55, 0
4, 47076, Note_on_c, 0, 58, 0
4, 47080, Note_on_c, 0, 64, 0
4, 47084, Note_on_c, 0, 69, 0
4, 47092, Control_c, 0, 64, 127
4, 47096, Note_on_c, 0, 61, 0
4, 47140, Note_on_c, 0, 57, 0
4, 47176, Note_on_c, 0, 55, 50
4, 47196, Control_c, 0, 64, 0
4, 47200, Note_on_c, 0, 55, 0
4, 47216, Note_on_c, 0, 57, 44
4, 47224, Note_on_c, 0, 61, 70
4, 47224, Note_on_c, 0, 58, 69
4, 47224, Note_on_c, 0, 69, 64
4, 47224, Note_on_c, 0, 64, 71
4, 47252, Note_on_c, 0, 57, 0
4, 47252, Control_c, 0, 64, 127
4, 47288, Note_on_c, 0, 69, 0
4, 47332, Note_on_c, 0, 64, 0
4, 47340, Note_on_c, 0, 58, 0
4, 47376, Note_on_c, 0, 61, 0
4, 47460, Note_on_c, 0, 65, 74
4, 47460, Note_on_c, 0, 60, 75
4, 47460, Note_on_c, 0, 57, 78
4, 47464, Note_on_c, 0, 62, 66
4, 47472, Control_c, 0, 64, 0
4, 47848, Note_on_c, 0, 48, 113
4, 47984, Control_c, 0, 64, 127
4, 48268, Note_on_c, 0, 65, 0
4, 48276, Note_on_c, 0, 57, 0
4, 48288, Note_on_c, 0, 60, 0
4, 48300, Note_on_c, 0, 62, 0
4, 48332, Note_on_c, 0, 48, 0
4, 48356, Control_c, 0, 64, 0
4, 48384, Note_on_c, 0, 65, 67
4, 48384, Note_on_c, 0, 48, 67
4, 48384, Note_on_c, 0, 57, 68
4, 48388, Note_on_c, 0, 60, 74
4, 48392, Note_on_c, 0, 62, 62
4, 48484, Control_c, 0, 64, 127
4, 48624, Note_on_c, 0, 57, 0
4, 48668, Note_on_c, 0, 62, 0
4, 48672, Note_on_c, 0, 60, 0
4, 48684, Note_on_c, 0, 48, 0
4, 48708, Note_on_c, 0, 65, 0
4, 49132, Control_c, 0, 64, 0
4, 49156, Note_on_c, 0, 75, 87
4, 49156, Note_on_c, 0, 63, 72
4, 49160, Note_on_c, 0, 72, 90
4, 49160, Note_on_c, 0, 67, 91
4, 49164, Note_on_c, 0, 55, 64
4, 49164, Note_on_c, 0, 60, 58
4, 49168, Note_on_c, 0, 57, 58
4, 49216, Control_c, 0, 64, 127
4, 49308, Note_on_c, 0, 55, 0
4, 49340, Note_on_c, 0, 57, 0
4, 49356, Note_on_c, 0, 63, 0
4, 49356, Note_on_c, 0, 75, 0
4, 49360, Note_on_c, 0, 60, 0
4, 49380, Note_on_c, 0, 67, 0
4, 49384, Note_on_c, 0, 72, 0
4, 49416, Note_on_c, 0, 67, 49
4, 49420, Note_on_c, 0, 77, 80
4, 49424, Note_on_c, 0, 60, 50
4, 49424, Note_on_c, 0, 72, 68
4, 49424, Note_on_c, 0, 63, 55
4, 49428, Note_on_c, 0, 55, 62
4, 49460, Note_on_c, 0, 63, 0
4, 49460, Note_on_c, 0, 60, 0
4, 49500, Note_on_c, 0, 77, 0
4, 49512, Note_on_c, 0, 72, 0
4, 49516, Note_on_c, 0, 67, 0
4, 49520, Control_c, 0, 64, 0
4, 49532, Note_on_c, 0, 63, 49
4, 49548, Control_c, 0, 64, 127
4, 49552, Note_on_c, 0, 75, 53
4, 49664, Note_on_c, 0, 55, 0
4, 49684, Note_on_c, 0, 75, 0
4, 49696, Note_on_c, 0, 63, 0
4, 49776, Note_on_c, 0, 74, 78
4, 49780, Note_on_c, 0, 66, 60
4, 49780, Note_on_c, 0, 60, 65
4, 49784, Note_on_c, 0, 70, 64
4, 49784, Note_on_c, 0, 54, 67
4, 49784, Note_on_c, 0, 62, 71
4, 49804, Control_c, 0, 64, 0
4, 49836, Note_on_c, 0, 66, 0
4, 49856, Note_on_c, 0, 70, 0
4, 49864, Note_on_c, 0, 74, 0
4, 50060, Note_on_c, 0, 84, 110
4, 50128, Note_on_c, 0, 84, 0
4, 50176, Note_on_c, 0, 80, 57
4, 50232, Note_on_c, 0, 80, 0
4, 50300, Note_on_c, 0, 81, 69
4, 50344, Note_on_c, 0, 60, 0
4, 50348, Note_on_c, 0, 81, 0
4, 50428, Note_on_c, 0, 62, 0
4, 50428, Note_on_c, 0, 84, 96
4, 50492, Note_on_c, 0, 84, 0
4, 50512, Note_on_c, 0, 54, 0
4, 50560, Note_on_c, 0, 81, 71
4, 50648, Note_on_c, 0, 81, 0
4, 50688, Note_on_c, 0, 57, 48
4, 50692, Note_on_c, 0, 62, 40
4, 50692, Note_on_c, 0, 58, 34
4, 50692, Note_on_c, 0, 55, 37
4, 50692, Note_on_c, 0, 77, 67
4, 50800, Note_on_c, 0, 77, 0
4, 50828, Note_on_c, 0, 74, 56
4, 50892, Note_on_c, 0, 74, 0
4, 51096, Note_on_c, 0, 69, 84
4, 51100, Note_on_c, 0, 57, 0
4, 51104, Note_on_c, 0, 62, 0
4, 51124, Note_on_c, 0, 55, 0
4, 51124, Note_on_c, 0, 58, 0
4, 51320, Note_on_c, 0, 69, 0
4, 51344, Note_on_c, 0, 66, 37
4, 51440, Note_on_c, 0, 66, 0
4, 51464, Note_on_c, 0, 67, 54
4, 51724, Note_on_c, 0, 62, 53
4, 52152, Note_on_c, 0, 62, 0
4, 52180, Note_on_c, 0, 67, 0
4, 52220, Note_on_c, 0, 62, 37
4, 52228, Note_on_c, 0, 58, 26
4, 52232, Note_on_c, 0, 52, 32
4, 52236, Note_on_c, 0, 65, 46
4, 52272, Note_on_c, 0, 52, 0
4, 52280, Note_on_c, 0, 62, 0
4, 52292, Note_on_c, 0, 58, 0
4, 52296, Note_on_c, 0, 65, 0
4, 52876, Note_on_c, 0, 65, 71
4, 52876, Note_on_c, 0, 58, 50
4, 52880, Note_on_c, 0, 62, 63
4, 52904, Note_on_c, 0, 62, 0
4, 52908, Note_on_c, 0, 65, 0
4, 52932, Note_on_c, 0, 58, 0
4, 53272, Note_on_c, 0, 84, 115
4, 53388, Note_on_c, 0, 84, 0
4, 53460, Note_on_c, 0, 80, 34
4, 53552, Note_on_c, 0, 80, 0
4, 53560, Note_on_c, 0, 81, 62
4, 53604, Note_on_c, 0, 81, 0
4, 53648, Note_on_c, 0, 84, 99
4, 53732, Note_on_c, 0, 62, 45
4, 53736, Note_on_c, 0, 57, 39
4, 53740, Note_on_c, 0, 84, 0
4, 53740, Note_on_c, 0, 58, 34
4, 53760, Note_on_c, 0, 62, 0
4, 53772, Note_on_c, 0, 58, 0
4, 53772, Note_on_c, 0, 57, 0
4, 53792, Note_on_c, 0, 80, 25
4, 53848, Note_on_c, 0, 80, 0
4, 54396, Note_on_c, 0, 62, 80
4, 54400, Note_on_c, 0, 58, 68
4, 54400, Note_on_c, 0, 57, 74
4, 54416, Note_on_c, 0, 84, 96
4, 54420, Note_on_c, 0, 57, 0
4, 54436, Note_on_c, 0, 62, 0
4, 54444, Note_on_c, 0, 58, 0
4, 54528, Note_on_c, 0, 84, 0
4, 54600, Note_on_c, 0, 80, 25
4, 54648, Note_on_c, 0, 80, 0
4, 54684, Note_on_c, 0, 81, 34
4, 54748, Note_on_c, 0, 81, 0
4, 54804, Note_on_c, 0, 84, 94
4, 54816, Note_on_c, 0, 86, 45
4, 54836, Note_on_c, 0, 86, 0
4, 54844, Note_on_c, 0, 57, 38
4, 54868, Note_on_c, 0, 57, 0
4, 54892, Note_on_c, 0, 84, 0
4, 55064, Note_on_c, 0, 81, 47
4, 55096, Note_on_c, 0, 81, 0
4, 55152, Note_on_c, 0, 84, 91
4, 55204, Note_on_c, 0, 84, 0
4, 55284, Note_on_c, 0, 85, 70
4, 55496, Note_on_c, 0, 85, 0
4, 55540, Note_on_c, 0, 82, 58
4, 55544, Note_on_c, 0, 63, 56
4, 55548, Note_on_c, 0, 58, 46
4, 55548, Note_on_c, 0, 52, 57
4, 55600, Note_on_c, 0, 63, 0
4, 55608, Note_on_c, 0, 52, 0
4, 55632, Note_on_c, 0, 58, 0
4, 55644, Note_on_c, 0, 82, 0
4, 56072, Note_on_c, 0, 79, 94
4, 56172, Note_on_c, 0, 79, 0
4, 56196, Note_on_c, 0, 82, 81
4, 56280, Note_on_c, 0, 82, 0
4, 56320, Note_on_c, 0, 63, 65
4, 56328, Note_on_c, 0, 58, 54
4, 56332, Note_on_c, 0, 52, 58
4, 56460, Note_on_c, 0, 76, 71
4, 56528, Note_on_c, 0, 76, 0
4, 56584, Note_on_c, 0, 79, 70
4, 56600, Note_on_c, 0, 52, 0
4, 56620, Note_on_c, 0, 58, 0
4, 56632, Note_on_c, 0, 63, 0
4, 56672, Note_on_c, 0, 79, 0
4, 56696, Note_on_c, 0, 64, 69
4, 56704, Note_on_c, 0, 60, 55
4, 56712, Note_on_c, 0, 53, 50
4, 56712, Note_on_c, 0, 57, 54
4, 56740, Note_on_c, 0, 64, 0
4, 56788, Note_on_c, 0, 53, 0
4, 56820, Note_on_c, 0, 60, 0
4, 56824, Note_on_c, 0, 57, 0
4, 56852, Note_on_c, 0, 72, 65
4, 56908, Note_on_c, 0, 72, 0
4, 56972, Note_on_c, 0, 74, 72
4, 57052, Note_on_c, 0, 74, 0
4, 57096, Note_on_c, 0, 57, 71
4, 57100, Note_on_c, 0, 67, 60
4, 57104, Note_on_c, 0, 62, 66
4, 57128, Note_on_c, 0, 67, 0
4, 57184, Note_on_c, 0, 57, 0
4, 57188, Note_on_c, 0, 62, 0
4, 57236, Note_on_c, 0, 69, 64
4, 57324, Note_on_c, 0, 69, 0
4, 57360, Note_on_c, 0, 72, 71
4, 57452, Note_on_c, 0, 72, 0
4, 57468, Note_on_c, 0, 57, 66
4, 57468, Note_on_c, 0, 62, 64
4, 57492, Note_on_c, 0, 62, 0
4, 57528, Note_on_c, 0, 57, 0
4, 57608, Note_on_c, 0, 67, 51
4, 57612, Note_on_c, 0, 65, 60
4, 57644, Note_on_c, 0, 67, 0
4, 57692, Note_on_c, 0, 65, 0
4, 57740, Note_on_c, 0, 69, 64
4, 57832, Note_on_c, 0, 69, 0
4, 57860, Note_on_c, 0, 62, 64
4, 57868, Note_on_c, 0, 57, 55
4, 57920, Note_on_c, 0, 62, 0
4, 57992, Note_on_c, 0, 57, 0
4, 58000, Note_on_c, 0, 64, 63
4, 58064, Note_on_c, 0, 64, 0
4, 58120, Note_on_c, 0, 67, 62
4, 58184, Note_on_c, 0, 67, 0
4, 58232, Note_on_c, 0, 56, 73
4, 58240, Note_on_c, 0, 62, 79
4, 58372, Note_on_c, 0, 72, 52
4, 58376, Note_on_c, 0, 74, 62
4, 58396, Note_on_c, 0, 74, 0
4, 58416, Note_on_c, 0, 72, 0
4, 58416, Note_on_c, 0, 56, 0
4, 58428, Note_on_c, 0, 62, 0
4, 58480, Note_on_c, 0, 76, 71
4, 58568, Note_on_c, 0, 76, 0
4, 58604, Note_on_c, 0, 56, 64
4, 58608, Note_on_c, 0, 62, 65
4, 58608, Note_on_c, 0, 67, 71
4, 58628, Note_on_c, 0, 79, 75
4, 58740, Control_c, 0, 64, 127
4, 58772, Note_on_c, 0, 79, 0
4, 58788, Note_on_c, 0, 67, 0
4, 58788, Note_on_c, 0, 62, 0
4, 58800, Note_on_c, 0, 56, 0
4, 58832, Control_c, 0, 64, 0
4, 58884, Note_on_c, 0, 56, 64
4, 58892, Note_on_c, 0, 67, 65
4, 58892, Note_on_c, 0, 84, 84
4, 58892, Note_on_c, 0, 62, 68
4, 58936, Control_c, 0, 64, 127
4, 58940, Note_on_c, 0, 67, 0
4, 58956, Note_on_c, 0, 56, 0
4, 58960, Note_on_c, 0, 62, 0
4, 58972, Note_on_c, 0, 84, 0
4, 59004, Note_on_c, 0, 56, 48
4, 59016, Note_on_c, 0, 62, 64
4, 59016, Note_on_c, 0, 88, 83
4, 59020, Note_on_c, 0, 67, 45
4, 59044, Note_on_c, 0, 67, 0
4, 59080, Note_on_c, 0, 56, 0
4, 59092, Note_on_c, 0, 88, 0
4, 59100, Note_on_c, 0, 62, 0
4, 59120, Control_c, 0, 64, 0
4, 59136, Note_on_c, 0, 91, 84
4, 59140, Note_on_c, 0, 56, 59
4, 59140, Note_on_c, 0, 79, 75
4, 59140, Note_on_c, 0, 65, 70
4, 59144, Note_on_c, 0, 62, 68
4, 59148, Note_on_c, 0, 84, 62
4, 59168, Note_on_c, 0, 84, 0
4, 59216, Note_on_c, 0, 79, 0
4, 59220, Note_on_c, 0, 65, 0
4, 59224, Note_on_c, 0, 91, 0
4, 59224, Note_on_c, 0, 56, 0
4, 59232, Note_on_c, 0, 62, 0
4, 59260, Note_on_c, 0, 91, 67
4, 59268, Note_on_c, 0, 79, 60
4, 59268, Note_on_c, 0, 56, 45
4, 59276, Note_on_c, 0, 65, 48
4, 59276, Note_on_c, 0, 62, 64
4, 59344, Note_on_c, 0, 79, 0
4, 59348, Note_on_c, 0, 65, 0
4, 59360, Note_on_c, 0, 62, 0
4, 59364, Note_on_c, 0, 56, 0
4, 59364, Note_on_c, 0, 91, 0
4, 59376, Control_c, 0, 64, 127
4, 59388, Note_on_c, 0, 56, 49
4, 59388, Note_on_c, 0, 84, 78
4, 59400, Note_on_c, 0, 65, 68
4, 59404, Note_on_c, 0, 62, 71
4, 59448, Note_on_c, 0, 65, 0
4, 59468, Note_on_c, 0, 84, 0
4, 59476, Note_on_c, 0, 62, 0
4, 59484, Control_c, 0, 64, 0
4, 59500, Note_on_c, 0, 56, 0
4, 59524, Control_c, 0, 64, 127
4, 59524, Note_on_c, 0, 84, 65
4, 59532, Note_on_c, 0, 56, 28
4, 59560, Note_on_c, 0, 62, 24
4, 59596, Note_on_c, 0, 62, 0
4, 59600, Note_on_c, 0, 56, 0
4, 59608, Note_on_c, 0, 84, 0
4, 59648, Note_on_c, 0, 56, 53
4, 59648, Note_on_c, 0, 88, 85
4, 59652, Note_on_c, 0, 62, 62
4, 59656, Note_on_c, 0, 65, 58
4, 59724, Note_on_c, 0, 88, 0
4, 59768, Note_on_c, 0, 62, 0
4, 59772, Note_on_c, 0, 88, 65
4, 59780, Note_on_c, 0, 56, 0
4, 59820, Note_on_c, 0, 65, 0
4, 59868, Note_on_c, 0, 88, 0
4, 59892, Control_c, 0, 64, 0
4, 59900, Note_on_c, 0, 57, 58
4, 59900, Note_on_c, 0, 81, 61
4, 59904, Note_on_c, 0, 62, 55
4, 59912, Note_on_c, 0, 65, 32
4, 59936, Note_on_c, 0, 65, 0
4, 59988, Note_on_c, 0, 81, 0
4, 60004, Note_on_c, 0, 62, 0
4, 60020, Note_on_c, 0, 57, 0
4, 60032, Note_on_c, 0, 81, 59
4, 60052, Note_on_c, 0, 57, 25
4, 60064, Note_on_c, 0, 65, 35
4, 60064, Note_on_c, 0, 62, 36
4, 60100, Note_on_c, 0, 62, 0
4, 60100, Note_on_c, 0, 65, 0
4, 60108, Note_on_c, 0, 81, 0
4, 60112, Note_on_c, 0, 57, 0
4, 60120, Control_c, 0, 64, 127
4, 60152, Note_on_c, 0, 65, 62
4, 60156, Note_on_c, 0, 57, 73
4, 60160, Note_on_c, 0, 62, 61
4, 60160, Note_on_c, 0, 84, 88
4, 60248, Note_on_c, 0, 84, 0
4, 60256, Note_on_c, 0, 65, 0
4, 60256, Note_on_c, 0, 57, 0
4, 60260, Note_on_c, 0, 62, 0
4, 60284, Note_on_c, 0, 84, 76
4, 60364, Note_on_c, 0, 84, 0
4, 60396, Control_c, 0, 64, 0
4, 60412, Note_on_c, 0, 57, 60
4, 60412, Note_on_c, 0, 65, 60
4, 60416, Note_on_c, 0, 76, 60
4, 60416, Note_on_c, 0, 62, 48
4, 60472, Control_c, 0, 64, 127
4, 60488, Note_on_c, 0, 76, 0
4, 60496, Note_on_c, 0, 65, 0
4, 60512, Note_on_c, 0, 62, 0
4, 60540, Note_on_c, 0, 76, 58
4, 60548, Note_on_c, 0, 65, 55
4, 60552, Note_on_c, 0, 62, 33
4, 60604, Note_on_c, 0, 65, 0
4, 60616, Note_on_c, 0, 62, 0
4, 60616, Note_on_c, 0, 57, 0
4, 60632, Note_on_c, 0, 76, 0
4, 60668, Note_on_c, 0, 57, 60
4, 60672, Note_on_c, 0, 79, 80
4, 60672, Note_on_c, 0, 65, 66
4, 60672, Note_on_c, 0, 62, 57
4, 60680, Control_c, 0, 64, 0
4, 60748, Note_on_c, 0, 79, 0
4, 60756, Note_on_c, 0, 65, 0
4, 60768, Note_on_c, 0, 62, 0
4, 60784, Note_on_c, 0, 57, 0
4, 60788, Note_on_c, 0, 79, 64
4, 60808, Control_c, 0, 64, 127
4, 60880, Note_on_c, 0, 79, 0
4, 60912, Note_on_c, 0, 57, 62
4, 60916, Note_on_c, 0, 62, 55
4, 60920, Note_on_c, 0, 65, 59
4, 60920, Note_on_c, 0, 72, 58
4, 60980, Note_on_c, 0, 72, 0
4, 60992, Note_on_c, 0, 65, 0
4, 61056, Note_on_c, 0, 65, 38
4, 61064, Note_on_c, 0, 72, 58
4, 61104, Note_on_c, 0, 72, 0
4, 61104, Note_on_c, 0, 65, 0
4, 61112, Note_on_c, 0, 57, 0
4, 61116, Note_on_c, 0, 62, 0
4, 61160, Control_c, 0, 64, 0
4, 61184, Note_on_c, 0, 74, 101
4, 61196, Note_on_c, 0, 62, 60
4, 61196, Note_on_c, 0, 67, 68
4, 61204, Note_on_c, 0, 56, 46
4, 61244, Note_on_c, 0, 67, 0
4, 61264, Note_on_c, 0, 62, 0
4, 61264, Control_c, 0, 64, 127
4, 61272, Note_on_c, 0, 74, 0
4, 61280, Note_on_c, 0, 56, 0
4, 61308, Note_on_c, 0, 74, 82
4, 61400, Note_on_c, 0, 74, 0
4, 61412, Control_c, 0, 64, 0
4, 61428, Note_on_c, 0, 56, 45
4, 61432, Note_on_c, 0, 62, 42
4, 61432, Note_on_c, 0, 65, 52
4, 61440, Note_on_c, 0, 71, 53
4, 61516, Note_on_c, 0, 71, 0
4, 61564, Note_on_c, 0, 62, 0
4, 61564, Note_on_c, 0, 71, 60
4, 61588, Note_on_c, 0, 65, 0
4, 61608, Note_on_c, 0, 62, 20
4, 61636, Note_on_c, 0, 71, 0
4, 61692, Note_on_c, 0, 68, 39
4, 61700, Control_c, 0, 64, 127
4, 61712, Note_on_c, 0, 62, 0
4, 61756, Note_on_c, 0, 68, 0
4, 61772, Note_on_c, 0, 56, 0
4, 61840, Control_c, 0, 64, 0
4, 61972, Note_on_c, 0, 55, 74
4, 62028, Note_on_c, 0, 55, 0
4, 62084, Note_on_c, 0, 56, 69
4, 62164, Note_on_c, 0, 56, 0
4, 62220, Note_on_c, 0, 58, 55
4, 62264, Note_on_c, 0, 58, 0
4, 62308, Note_on_c, 0, 59, 57
4, 62360, Note_on_c, 0, 59, 0
4, 62400, Note_on_c, 0, 61, 57
4, 62452, Note_on_c, 0, 61, 0
4, 62488, Note_on_c, 0, 62, 64
4, 62544, Note_on_c, 0, 62, 0
4, 62576, Note_on_c, 0, 64, 66
4, 62648, Note_on_c, 0, 64, 0
4, 62672, Note_on_c, 0, 65, 67
4, 62732, Note_on_c, 0, 65, 0
4, 62768, Note_on_c, 0, 67, 54
4, 62824, Note_on_c, 0, 67, 0
4, 62860, Note_on_c, 0, 68, 67
4, 62916, Note_on_c, 0, 68, 0
4, 62944, Note_on_c, 0, 62, 47
4, 62956, Note_on_c, 0, 58, 31
4, 62960, Note_on_c, 0, 69, 71
4, 62980, Note_on_c, 0, 62, 0
4, 63016, Note_on_c, 0, 58, 0
4, 63044, Note_on_c, 0, 69, 0
4, 63072, Note_on_c, 0, 66, 56
4, 63116, Note_on_c, 0, 66, 0
4, 63156, Note_on_c, 0, 67, 58
4, 63212, Note_on_c, 0, 67, 0
4, 63252, Note_on_c, 0, 69, 69
4, 63296, Note_on_c, 0, 58, 31
4, 63328, Note_on_c, 0, 58, 0
4, 63340, Note_on_c, 0, 69, 0
4, 63348, Note_on_c, 0, 70, 57
4, 63384, Note_on_c, 0, 70, 0
4, 63444, Note_on_c, 0, 74, 77
4, 63496, Note_on_c, 0, 74, 0
4, 63536, Note_on_c, 0, 77, 64
4, 63588, Note_on_c, 0, 77, 0
4, 63652, Note_on_c, 0, 81, 71
4, 63712, Note_on_c, 0, 81, 0
4, 63744, Note_on_c, 0, 84, 89
4, 63748, Note_on_c, 0, 62, 51
4, 63752, Note_on_c, 0, 58, 42
4, 63756, Note_on_c, 0, 72, 69
4, 63756, Note_on_c, 0, 57, 36
4, 63792, Note_on_c, 0, 57, 0
4, 63804, Note_on_c, 0, 62, 0
4, 63812, Note_on_c, 0, 72, 0
4, 63820, Note_on_c, 0, 58, 0
4, 63828, Note_on_c, 0, 84, 0
4, 63872, Note_on_c, 0, 81, 57
4, 63892, Note_on_c, 0, 81, 0
4, 63940, Note_on_c, 0, 84, 87
4, 63952, Note_on_c, 0, 57, 42
4, 63952, Note_on_c, 0, 72, 65
4, 63952, Note_on_c, 0, 58, 46
4, 63956, Note_on_c, 0, 62, 49
4, 64012, Note_on_c, 0, 72, 0
4, 64044, Note_on_c, 0, 84, 0
4, 64056, Note_on_c, 0, 81, 71
4, 64072, Note_on_c, 0, 58, 0
4, 64080, Control_c, 0, 64, 127
4, 64088, Note_on_c, 0, 62, 0
4, 64108, Control_c, 0, 64, 0
4, 64132, Note_on_c, 0, 81, 0
4, 64148, Note_on_c, 0, 77, 66
4, 64252, Note_on_c, 0, 77, 0
4, 64260, Note_on_c, 0, 74, 66
4, 64288, Note_on_c, 0, 74, 0
4, 64336, Note_on_c, 0, 84, 87
4, 64356, Note_on_c, 0, 62, 38
4, 64368, Note_on_c, 0, 58, 31
4, 64384, Note_on_c, 0, 62, 0
4, 64400, Note_on_c, 0, 58, 0
4, 64404, Note_on_c, 0, 57, 0
4, 64424, Note_on_c, 0, 84, 0
4, 64452, Note_on_c, 0, 81, 63
4, 64456, Control_c, 0, 64, 127
4, 64488, Note_on_c, 0, 81, 0
4, 64512, Control_c, 0, 64, 0
4, 64532, Note_on_c, 0, 63, 51
4, 64532, Note_on_c, 0, 58, 44
4, 64536, Note_on_c, 0, 52, 48
4, 64540, Note_on_c, 0, 73, 71
4, 64540, Note_on_c, 0, 85, 75
4, 64588, Note_on_c, 0, 63, 0
4, 64596, Note_on_c, 0, 52, 0
4, 64616, Note_on_c, 0, 73, 0
4, 64628, Note_on_c, 0, 58, 0
4, 64640, Note_on_c, 0, 85, 0
4, 64656, Note_on_c, 0, 82, 55
4, 64748, Note_on_c, 0, 73, 49
4, 64748, Note_on_c, 0, 63, 37
4, 64756, Note_on_c, 0, 58, 33
4, 64768, Note_on_c, 0, 73, 0
4, 64788, Note_on_c, 0, 82, 0
4, 64792, Note_on_c, 0, 63, 0
4, 64816, Note_on_c, 0, 58, 0
4, 65164, Note_on_c, 0, 63, 71
4, 65164, Note_on_c, 0, 58, 56
4, 65172, Note_on_c, 0, 52, 57
4, 65196, Note_on_c, 0, 52, 0
4, 65228, Note_on_c, 0, 63, 0
4, 65244, Note_on_c, 0, 58, 0
4, 65332, Note_on_c, 0, 63, 60
4, 65336, Note_on_c, 0, 58, 44
4, 65344, Note_on_c, 0, 52, 53
4, 65356, Control_c, 0, 64, 127
4, 65476, Note_on_c, 0, 52, 0
4, 65484, Note_on_c, 0, 58, 0
4, 65516, Note_on_c, 0, 63, 0
4, 65640, Control_c, 0, 64, 0
4, 65676, Note_on_c, 0, 67, 74
4, 65676, Note_on_c, 0, 92, 80
4, 65680, Note_on_c, 0, 62, 70
4, 65680, Note_on_c, 0, 80, 76
4, 65684, Note_on_c, 0, 56, 64
4, 65712, Control_c, 0, 64, 127
4, 65792, Note_on_c, 0, 62, 0
4, 65796, Note_on_c, 0, 67, 0
4, 65824, Note_on_c, 0, 92, 0
4, 65840, Note_on_c, 0, 80, 0
4, 65872, Note_on_c, 0, 56, 0
4, 65900, Control_c, 0, 64, 0
4, 65920, Note_on_c, 0, 55, 71
4, 65920, Note_on_c, 0, 64, 66
4, 65924, Note_on_c, 0, 60, 58
4, 65924, Note_on_c, 0, 91, 83
4, 65928, Note_on_c, 0, 79, 79
4, 66192, Note_on_c, 0, 79, 0
4, 66208, Note_on_c, 0, 88, 78
4, 66212, Note_on_c, 0, 91, 0
4, 66308, Note_on_c, 0, 88, 0
4, 66324, Note_on_c, 0, 84, 74
4, 66420, Note_on_c, 0, 84, 0
4, 66456, Note_on_c, 0, 79, 54
4, 66548, Note_on_c, 0, 64, 0
4, 66556, Note_on_c, 0, 60, 0
4, 66564, Note_on_c, 0, 55, 0
4, 66636, Note_on_c, 0, 79, 0
4, 66700, Note_on_c, 0, 76, 72
4, 66704, Note_on_c, 0, 64, 53
4, 66704, Note_on_c, 0, 60, 46
4, 66708, Note_on_c, 0, 55, 53
4, 66772, Note_on_c, 0, 76, 0
4, 66784, Note_on_c, 0, 64, 0
4, 66940, Note_on_c, 0, 60, 0
4, 67000, Note_on_c, 0, 55, 0
4, 67072, Note_on_c, 0, 64, 60
4, 67080, Note_on_c, 0, 55, 47
4, 67084, Note_on_c, 0, 60, 47
4, 67104, Note_on_c, 0, 64, 0
4, 67108, Note_on_c, 0, 60, 0
4, 67140, Note_on_c, 0, 55, 0
4, 67248, Note_on_c, 0, 74, 87
4, 67292, Note_on_c, 0, 74, 0
4, 67300, Note_on_c, 0, 75, 58
4, 67356, Note_on_c, 0, 74, 64
4, 67384, Note_on_c, 0, 75, 0
4, 67420, Note_on_c, 0, 74, 0
4, 67436, Note_on_c, 0, 72, 57
4, 67456, Note_on_c, 0, 55, 34
4, 67480, Control_c, 0, 64, 127
4, 67504, Note_on_c, 0, 55, 0
4, 67528, Note_on_c, 0, 72, 0
4, 67528, Note_on_c, 0, 69, 63
4, 67544, Control_c, 0, 64, 0
4, 67604, Note_on_c, 0, 69, 0
4, 67624, Note_on_c, 0, 54, 43
4, 67624, Note_on_c, 0, 60, 20
4, 67632, Note_on_c, 0, 64, 32
4, 67636, Note_on_c, 0, 72, 70
4, 67716, Control_c, 0, 64, 127
4, 67804, Note_on_c, 0, 64, 0
4, 67840, Note_on_c, 0, 60, 0
4, 67848, Note_on_c, 0, 54, 0
4, 67964, Control_c, 0, 64, 0
4, 67968, Note_on_c, 0, 72, 0
4, 67984, Note_on_c, 0, 60, 46
4, 67992, Note_on_c, 0, 64, 34
4, 67996, Note_on_c, 0, 69, 61
4, 68000, Note_on_c, 0, 54, 32
4, 68080, Note_on_c, 0, 64, 0
4, 68104, Note_on_c, 0, 60, 0
4, 68108, Note_on_c, 0, 54, 0
4, 68224, Note_on_c, 0, 69, 0
4, 68228, Note_on_c, 0, 67, 68
4, 68236, Note_on_c, 0, 62, 48
4, 68240, Note_on_c, 0, 54, 40
4, 68240, Note_on_c, 0, 60, 41
4, 68300, Note_on_c, 0, 62, 0
4, 68316, Note_on_c, 0, 60, 0
4, 68328, Note_on_c, 0, 67, 0
4, 68336, Note_on_c, 0, 54, 0
4, 68352, Control_c, 0, 64, 127
4, 68368, Note_on_c, 0, 54, 29
4, 68372, Note_on_c, 0, 60, 44
4, 68372, Note_on_c, 0, 66, 52
4, 68448, Note_on_c, 0, 60, 0
4, 68456, Note_on_c, 0, 54, 0
4, 68600, Note_on_c, 0, 60, 62
4, 68604, Note_on_c, 0, 62, 65
4, 68612, Note_on_c, 0, 54, 54
4, 68680, Note_on_c, 0, 62, 0
4, 68704, Note_on_c, 0, 60, 0
4, 68708, Note_on_c, 0, 54, 0
4, 68716, Note_on_c, 0, 66, 0
4, 69092, Control_c, 0, 64, 0
4, 69108, Note_on_c, 0, 66, 45
4, 69112, Note_on_c, 0, 62, 52
4, 69116, Note_on_c, 0, 90, 75
4, 69120, Note_on_c, 0, 57, 34
4, 69140, Note_on_c, 0, 66, 0
4, 69144, Note_on_c, 0, 62, 0
4, 69152, Note_on_c, 0, 57, 0
4, 69188, Note_on_c, 0, 90, 0
4, 69256, Note_on_c, 0, 88, 51
4, 69296, Note_on_c, 0, 88, 0
4, 69376, Note_on_c, 0, 90, 82
4, 69384, Note_on_c, 0, 66, 39
4, 69388, Note_on_c, 0, 62, 45
4, 69392, Note_on_c, 0, 57, 38
4, 69424, Note_on_c, 0, 57, 0
4, 69428, Note_on_c, 0, 62, 0
4, 69432, Note_on_c, 0, 66, 0
4, 69464, Note_on_c, 0, 90, 0
4, 69528, Note_on_c, 0, 88, 54
4, 69588, Note_on_c, 0, 88, 0
4, 69784, Note_on_c, 0, 86, 81
4, 69784, Note_on_c, 0, 66, 46
4, 69788, Note_on_c, 0, 62, 45
4, 69796, Note_on_c, 0, 57, 36
4, 69832, Note_on_c, 0, 57, 0
4, 69844, Note_on_c, 0, 86, 0
4, 69844, Note_on_c, 0, 66, 0
4, 69860, Note_on_c, 0, 62, 0
4, 69916, Note_on_c, 0, 66, 49
4, 69920, Note_on_c, 0, 62, 42
4, 69924, Note_on_c, 0, 85, 58
4, 69932, Note_on_c, 0, 57, 37
4, 69944, Control_c, 0, 64, 127
4, 69964, Note_on_c, 0, 57, 0
4, 69964, Note_on_c, 0, 62, 0
4, 69976, Note_on_c, 0, 66, 0
4, 70004, Note_on_c, 0, 85, 0
4, 70020, Note_on_c, 0, 86, 62
4, 70096, Note_on_c, 0, 86, 0
4, 70148, Note_on_c, 0, 88, 81
4, 70152, Note_on_c, 0, 66, 60
4, 70160, Note_on_c, 0, 62, 58
4, 70164, Note_on_c, 0, 57, 51
4, 70220, Note_on_c, 0, 66, 0
4, 70224, Note_on_c, 0, 57, 0
4, 70228, Note_on_c, 0, 88, 0
4, 70236, Note_on_c, 0, 62, 0
4, 70268, Control_c, 0, 64, 0
4, 70300, Note_on_c, 0, 66, 44
4, 70300, Note_on_c, 0, 83, 66
4, 70304, Note_on_c, 0, 57, 41
4, 70308, Note_on_c, 0, 62, 48
4, 70348, Control_c, 0, 64, 127
4, 70376, Note_on_c, 0, 83, 0
4, 70388, Note_on_c, 0, 66, 0
4, 70408, Note_on_c, 0, 62, 0
4, 70432, Note_on_c, 0, 57, 0
4, 70528, Note_on_c, 0, 66, 54
4, 70528, Note_on_c, 0, 83, 88
4, 70532, Note_on_c, 0, 57, 41
4, 70536, Note_on_c, 0, 62, 54
4, 70568, Note_on_c, 0, 57, 0
4, 70596, Note_on_c, 0, 66, 0
4, 70632, Note_on_c, 0, 62, 0
4, 70640, Control_c, 0, 64, 0
4, 70668, Note_on_c, 0, 66, 42
4, 70668, Note_on_c, 0, 62, 27
4, 70684, Note_on_c, 0, 56, 30
4, 70688, Note_on_c, 0, 83, 0
4, 70708, Note_on_c, 0, 66, 0
4, 70708, Note_on_c, 0, 56, 0
4, 70712, Note_on_c, 0, 62, 0
4, 71044, Control_c, 0, 64, 127
4, 71292, Note_on_c, 0, 88, 110
4, 71304, Note_on_c, 0, 56, 69
4, 71304, Note_on_c, 0, 62, 68
4, 71308, Note_on_c, 0, 67, 68
4, 71396, Note_on_c, 0, 67, 0
4, 71408, Control_c, 0, 64, 0
4, 71420, Note_on_c, 0, 62, 0
4, 71448, Note_on_c, 0, 67, 45
4, 71448, Note_on_c, 0, 62, 30
4, 71452, Note_on_c, 0, 88, 0
4, 71452, Note_on_c, 0, 84, 82
4, 71564, Note_on_c, 0, 67, 0
4, 71600, Note_on_c, 0, 56, 0
4, 71608, Note_on_c, 0, 62, 0
4, 71636, Control_c, 0, 64, 127
4, 71644, Note_on_c, 0, 84, 0
4, 71668, Note_on_c, 0, 79, 66
4, 71676, Note_on_c, 0, 56, 55
4, 71676, Note_on_c, 0, 62, 65
4, 71680, Note_on_c, 0, 67, 52
4, 71744, Note_on_c, 0, 79, 0
4, 71780, Control_c, 0, 64, 0
4, 71816, Note_on_c, 0, 76, 62
4, 71824, Note_on_c, 0, 67, 0
4, 71840, Control_c, 0, 64, 127
4, 71884, Note_on_c, 0, 62, 0
4, 71960, Note_on_c, 0, 56, 0
4, 72032, Note_on_c, 0, 76, 0
4, 72068, Note_on_c, 0, 54, 45
4, 72076, Note_on_c, 0, 61, 34
4, 72076, Note_on_c, 0, 64, 40
4, 72112, Note_on_c, 0, 64, 0
4, 72128, Note_on_c, 0, 61, 0
4, 72128, Note_on_c, 0, 54, 0
4, 72176, Control_c, 0, 64, 0
4, 72196, Note_on_c, 0, 61, 43
4, 72200, Note_on_c, 0, 64, 57
4, 72200, Note_on_c, 0, 80, 70
4, 72208, Note_on_c, 0, 59, 29
4, 72212, Note_on_c, 0, 54, 44
4, 72260, Note_on_c, 0, 64, 0
4, 72264, Note_on_c, 0, 59, 0
4, 72264, Note_on_c, 0, 61, 0
4, 72288, Note_on_c, 0, 80, 0
4, 72320, Note_on_c, 0, 81, 64
4, 72328, Note_on_c, 0, 64, 37
4, 72332, Note_on_c, 0, 61, 36
4, 72340, Note_on_c, 0, 59, 37
4, 72384, Note_on_c, 0, 64, 0
4, 72388, Note_on_c, 0, 61, 0
4, 72392, Note_on_c, 0, 59, 0
4, 72400, Note_on_c, 0, 81, 0
4, 72412, Control_c, 0, 64, 127
4, 72428, Note_on_c, 0, 80, 60
4, 72436, Note_on_c, 0, 64, 53
4, 72440, Note_on_c, 0, 61, 37
4, 72452, Note_on_c, 0, 59, 27
4, 72504, Note_on_c, 0, 59, 0
4, 72504, Note_on_c, 0, 64, 0
4, 72508, Note_on_c, 0, 61, 0
4, 72524, Note_on_c, 0, 54, 0
4, 72528, Note_on_c, 0, 80, 0
4, 72548, Control_c, 0, 64, 0
4, 72564, Note_on_c, 0, 64, 38
4, 72564, Note_on_c, 0, 76, 69
4, 72568, Note_on_c, 0, 61, 38
4, 72572, Note_on_c, 0, 54, 30
4, 72576, Note_on_c, 0, 59, 50
4, 72640, Note_on_c, 0, 76, 0
4, 72660, Note_on_c, 0, 64, 0
4, 72660, Note_on_c, 0, 59, 0
4, 72672, Note_on_c, 0, 54, 0
4, 72688, Note_on_c, 0, 61, 0
4, 72828, Note_on_c, 0, 73, 69
4, 72828, Note_on_c, 0, 61, 42
4, 72828, Note_on_c, 0, 64, 55
4, 72836, Note_on_c, 0, 59, 48
4, 72840, Note_on_c, 0, 54, 35
4, 72888, Note_on_c, 0, 64, 0
4, 72892, Note_on_c, 0, 61, 0
4, 72908, Note_on_c, 0, 59, 0
4, 72928, Note_on_c, 0, 54, 0
4, 72980, Note_on_c, 0, 69, 54
4, 72980, Note_on_c, 0, 64, 41
4, 72984, Note_on_c, 0, 73, 0
4, 72984, Note_on_c, 0, 54, 25
4, 73000, Control_c, 0, 64, 127
4, 73000, Note_on_c, 0, 59, 34
4, 73004, Note_on_c, 0, 61, 25
4, 73064, Note_on_c, 0, 61, 0
4, 73084, Note_on_c, 0, 64, 0
4, 73112, Note_on_c, 0, 59, 0
4, 73144, Note_on_c, 0, 69, 0
4, 73224, Note_on_c, 0, 64, 57
4, 73228, Note_on_c, 0, 61, 48
4, 73228, Note_on_c, 0, 59, 46
4, 73348, Control_c, 0, 64, 0
4, 73360, Note_on_c, 0, 64, 0
4, 73380, Note_on_c, 0, 54, 0
4, 73392, Note_on_c, 0, 74, 84
4, 73436, Note_on_c, 0, 74, 0
4, 73436, Note_on_c, 0, 75, 69
4, 73472, Note_on_c, 0, 61, 0
4, 73508, Note_on_c, 0, 74, 70
4, 73536, Note_on_c, 0, 75, 0
4, 73540, Note_on_c, 0, 59, 0
4, 73576, Note_on_c, 0, 74, 0
4, 73592, Note_on_c, 0, 60, 30
4, 73608, Note_on_c, 0, 72, 68
4, 73680, Note_on_c, 0, 72, 0
4, 73740, Note_on_c, 0, 55, 55
4, 73748, Note_on_c, 0, 74, 87
4, 73752, Note_on_c, 0, 63, 32
4, 73784, Control_c, 0, 64, 127
4, 73900, Note_on_c, 0, 55, 0
4, 73908, Note_on_c, 0, 63, 0
4, 73936, Note_on_c, 0, 60, 0
4, 73976, Note_on_c, 0, 63, 57
4, 73980, Note_on_c, 0, 60, 41
4, 73988, Note_on_c, 0, 75, 78
4, 73992, Note_on_c, 0, 55, 48
4, 73996, Note_on_c, 0, 74, 0
4, 74008, Note_on_c, 0, 57, 27
4, 74068, Note_on_c, 0, 75, 0
4, 74084, Note_on_c, 0, 57, 0
4, 74084, Control_c, 0, 64, 0
4, 74104, Note_on_c, 0, 63, 0
4, 74104, Note_on_c, 0, 77, 65
4, 74116, Note_on_c, 0, 55, 0
4, 74172, Note_on_c, 0, 77, 0
4, 74204, Note_on_c, 0, 78, 64
4, 74268, Note_on_c, 0, 78, 0
4, 74308, Note_on_c, 0, 80, 60
4, 74344, Note_on_c, 0, 60, 0
4, 74372, Note_on_c, 0, 80, 0
4, 74404, Note_on_c, 0, 81, 68
4, 74428, Note_on_c, 0, 60, 32
4, 74432, Note_on_c, 0, 64, 44
4, 74440, Note_on_c, 0, 54, 33
4, 74480, Note_on_c, 0, 81, 0
4, 74508, Note_on_c, 0, 82, 49
4, 74540, Note_on_c, 0, 64, 0
4, 74568, Note_on_c, 0, 82, 0
4, 74704, Note_on_c, 0, 60, 0
4, 74856, Note_on_c, 0, 60, 40
4, 74860, Note_on_c, 0, 64, 40
4, 74860, Note_on_c, 0, 81, 65
4, 74880, Note_on_c, 0, 58, 31
4, 74924, Note_on_c, 0, 64, 0
4, 74924, Note_on_c, 0, 60, 0
4, 74944, Note_on_c, 0, 81, 0
4, 74964, Note_on_c, 0, 82, 61
4, 75008, Note_on_c, 0, 82, 0
4, 75056, Note_on_c, 0, 58, 0
4, 75064, Note_on_c, 0, 86, 59
4, 75080, Note_on_c, 0, 54, 0
4, 75120, Note_on_c, 0, 86, 0
4, 75156, Note_on_c, 0, 89, 75
4, 75212, Note_on_c, 0, 89, 0
4, 75244, Note_on_c, 0, 62, 46
4, 75248, Note_on_c, 0, 93, 74
4, 75252, Note_on_c, 0, 57, 41
4, 75256, Note_on_c, 0, 58, 34
4, 75264, Note_on_c, 0, 55, 44
4, 75324, Note_on_c, 0, 93, 0
4, 75364, Note_on_c, 0, 96, 82
4, 75412, Note_on_c, 0, 96, 0
4, 75448, Note_on_c, 0, 94, 60
4, 75472, Note_on_c, 0, 62, 0
4, 75496, Note_on_c, 0, 58, 0
4, 75528, Note_on_c, 0, 57, 0
4, 75548, Note_on_c, 0, 94, 0
4, 75560, Note_on_c, 0, 90, 57
4, 75612, Note_on_c, 0, 90, 0
4, 75644, Note_on_c, 0, 62, 37
4, 75648, Note_on_c, 0, 93, 84
4, 75652, Note_on_c, 0, 58, 33
4, 75704, Note_on_c, 0, 62, 0
4, 75720, Note_on_c, 0, 93, 0
4, 75724, Note_on_c, 0, 58, 0
4, 75748, Note_on_c, 0, 55, 0
4, 75752, Note_on_c, 0, 91, 66
4, 75824, Note_on_c, 0, 91, 0
4, 75844, Note_on_c, 0, 86, 41
4, 75900, Note_on_c, 0, 86, 0
4, 75948, Note_on_c, 0, 84, 70
4, 76028, Note_on_c, 0, 84, 0
4, 76284, Note_on_c, 0, 62, 51
4, 76288, Note_on_c, 0, 57, 52
4, 76292, Note_on_c, 0, 58, 34
4, 76312, Note_on_c, 0, 62, 0
4, 76320, Note_on_c, 0, 57, 0
4, 76332, Note_on_c, 0, 58, 0
4, 76436, Note_on_c, 0, 82, 72
4, 76496, Note_on_c, 0, 82, 0
4, 76556, Note_on_c, 0, 84, 70
4, 76564, Note_on_c, 0, 83, 53
4, 76584, Note_on_c, 0, 83, 0
4, 76604, Note_on_c, 0, 84, 0
4, 76668, Note_on_c, 0, 85, 85
4, 76744, Note_on_c, 0, 85, 0
4, 76800, Note_on_c, 0, 84, 74
4, 76884, Note_on_c, 0, 84, 0
4, 76928, Note_on_c, 0, 82, 52
4, 76988, Note_on_c, 0, 82, 0
4, 77052, Note_on_c, 0, 58, 67
4, 77056, Note_on_c, 0, 63, 78
4, 77068, Note_on_c, 0, 52, 59
4, 77084, Note_on_c, 0, 52, 0
4, 77088, Note_on_c, 0, 63, 0
4, 77096, Note_on_c, 0, 58, 0
4, 77200, Note_on_c, 0, 72, 51
4, 77332, Note_on_c, 0, 72, 0
4, 77448, Note_on_c, 0, 72, 78
4, 77448, Note_on_c, 0, 84, 81
4, 77580, Note_on_c, 0, 72, 0
4, 77588, Note_on_c, 0, 84, 0
4, 77700, Note_on_c, 0, 84, 84
4, 77704, Note_on_c, 0, 72, 71
4, 77760, Note_on_c, 0, 84, 0
4, 77804, Note_on_c, 0, 72, 0
4, 77812, Note_on_c, 0, 58, 52
4, 77820, Note_on_c, 0, 52, 59
4, 77840, Note_on_c, 0, 52, 0
4, 77864, Note_on_c, 0, 58, 0
4, 77948, Note_on_c, 0, 80, 64
4, 77952, Note_on_c, 0, 68, 73
4, 77964, Note_on_c, 0, 73, 46
4, 77984, Note_on_c, 0, 73, 0
4, 78028, Note_on_c, 0, 80, 0
4, 78036, Note_on_c, 0, 68, 0
4, 78076, Note_on_c, 0, 81, 74
4, 78080, Note_on_c, 0, 69, 69
4, 78124, Note_on_c, 0, 69, 0
4, 78128, Note_on_c, 0, 81, 0
4, 78204, Note_on_c, 0, 81, 80
4, 78208, Note_on_c, 0, 58, 64
4, 78208, Note_on_c, 0, 62, 74
4, 78212, Note_on_c, 0, 57, 66
4, 78212, Note_on_c, 0, 69, 82
4, 78228, Note_on_c, 0, 75, 31
4, 78248, Note_on_c, 0, 75, 0
4, 78356, Note_on_c, 0, 81, 0
4, 78372, Note_on_c, 0, 69, 0
4, 78396, Note_on_c, 0, 62, 0
4, 78424, Note_on_c, 0, 58, 0
4, 78440, Note_on_c, 0, 57, 0
4, 78444, Note_on_c, 0, 77, 64
4, 78452, Note_on_c, 0, 65, 54
4, 78496, Note_on_c, 0, 77, 0
4, 78504, Note_on_c, 0, 65, 0
4, 78572, Note_on_c, 0, 77, 71
4, 78572, Note_on_c, 0, 65, 68
4, 78584, Note_on_c, 0, 58, 45
4, 78588, Note_on_c, 0, 62, 52
4, 78588, Note_on_c, 0, 57, 48
4, 78616, Note_on_c, 0, 62, 0
4, 78620, Note_on_c, 0, 65, 0
4, 78620, Note_on_c, 0, 57, 0
4, 78640, Note_on_c, 0, 58, 0
4, 78644, Note_on_c, 0, 77, 0
4, 78848, Note_on_c, 0, 80, 80
4, 78852, Note_on_c, 0, 68, 85
4, 78856, Note_on_c, 0, 58, 61
4, 78860, Note_on_c, 0, 57, 54
4, 78864, Note_on_c, 0, 62, 50
4, 78868, Note_on_c, 0, 64, 54
4, 78888, Note_on_c, 0, 64, 0
4, 78916, Note_on_c, 0, 62, 0
4, 78936, Note_on_c, 0, 80, 0
4, 78936, Note_on_c, 0, 68, 0
4, 78944, Note_on_c, 0, 58, 0
4, 78976, Note_on_c, 0, 62, 60
4, 78976, Note_on_c, 0, 69, 76
4, 78980, Note_on_c, 0, 58, 54
4, 78980, Note_on_c, 0, 81, 57
4, 78984, Note_on_c, 0, 78, 44
4, 78988, Note_on_c, 0, 79, 52
4, 79008, Note_on_c, 0, 79, 0
4, 79024, Note_on_c, 0, 62, 0
4, 79028, Note_on_c, 0, 81, 0
4, 79036, Note_on_c, 0, 69, 0
4, 79048, Note_on_c, 0, 58, 0
4, 79056, Note_on_c, 0, 78, 0
4, 79060, Note_on_c, 0, 57, 0
4, 79100, Note_on_c, 0, 57, 37
4, 79100, Note_on_c, 0, 58, 47
4, 79104, Note_on_c, 0, 81, 81
4, 79104, Note_on_c, 0, 62, 61
4, 79112, Note_on_c, 0, 69, 69
4, 79148, Note_on_c, 0, 62, 0
4, 79152, Note_on_c, 0, 69, 0
4, 79156, Note_on_c, 0, 81, 0
4, 79172, Note_on_c, 0, 58, 0
4, 79196, Note_on_c, 0, 57, 0
4, 79212, Note_on_c, 0, 57, 19
4, 79220, Note_on_c, 0, 58, 39
4, 79224, Note_on_c, 0, 65, 76
4, 79224, Note_on_c, 0, 62, 48
4, 79228, Note_on_c, 0, 77, 57
4, 79248, Note_on_c, 0, 62, 0
4, 79268, Note_on_c, 0, 65, 0
4, 79272, Note_on_c, 0, 58, 0
4, 79276, Note_on_c, 0, 77, 0
4, 79300, Note_on_c, 0, 57, 0
4, 79484, Note_on_c, 0, 57, 58
4, 79484, Note_on_c, 0, 62, 66
4, 79484, Note_on_c, 0, 77, 80
4, 79488, Note_on_c, 0, 65, 82
4, 79488, Note_on_c, 0, 58, 49
4, 79524, Note_on_c, 0, 65, 0
4, 79524, Note_on_c, 0, 62, 0
4, 79536, Note_on_c, 0, 57, 0
4, 79544, Note_on_c, 0, 77, 0
4, 79548, Note_on_c, 0, 58, 0
4, 79740, Note_on_c, 0, 58, 71
4, 79744, Note_on_c, 0, 80, 77
4, 79744, Note_on_c, 0, 68, 86
4, 79752, Note_on_c, 0, 52, 70
4, 79824, Note_on_c, 0, 52, 0
4, 79836, Note_on_c, 0, 68, 0
4, 79848, Note_on_c, 0, 58, 0
4, 79852, Note_on_c, 0, 80, 0
4, 79972, Note_on_c, 0, 82, 85
4, 79972, Note_on_c, 0, 70, 88
4, 79972, Note_on_c, 0, 58, 60
4, 79976, Note_on_c, 0, 63, 71
4, 79980, Note_on_c, 0, 52, 68
4, 80124, Control_c, 0, 64, 127
4, 80176, Note_on_c, 0, 52, 0
4, 80196, Note_on_c, 0, 63, 0
4, 80200, Note_on_c, 0, 70, 0
4, 80204, Note_on_c, 0, 82, 0
4, 80212, Note_on_c, 0, 58, 0
4, 80228, Control_c, 0, 64, 0
4, 80260, Note_on_c, 0, 63, 62
4, 80264, Note_on_c, 0, 58, 43
4, 80268, Note_on_c, 0, 80, 49
4, 80272, Note_on_c, 0, 52, 57
4, 80272, Note_on_c, 0, 68, 64
4, 80396, Note_on_c, 0, 52, 0
4, 80428, Note_on_c, 0, 58, 0
4, 80444, Note_on_c, 0, 63, 0
4, 80452, Note_on_c, 0, 68, 0
4, 80464, Note_on_c, 0, 80, 0
4, 80520, Note_on_c, 0, 52, 70
4, 80524, Control_c, 0, 64, 127
4, 80568, Note_on_c, 0, 52, 0
4, 80592, Control_c, 0, 64, 0
4, 80656, Note_on_c, 0, 58, 71
4, 80656, Note_on_c, 0, 52, 81
4, 80664, Note_on_c, 0, 82, 86
4, 80664, Note_on_c, 0, 70, 91
4, 80672, Note_on_c, 0, 75, 78
4, 80796, Note_on_c, 0, 82, 0
4, 80796, Note_on_c, 0, 52, 0
4, 80804, Note_on_c, 0, 58, 0
4, 80808, Note_on_c, 0, 75, 0
4, 80816, Note_on_c, 0, 70, 0
4, 80840, Control_c, 0, 64, 127
4, 80908, Note_on_c, 0, 80, 67
4, 80908, Note_on_c, 0, 58, 69
4, 80912, Note_on_c, 0, 68, 78
4, 80916, Note_on_c, 0, 52, 72
4, 80924, Note_on_c, 0, 75, 51
4, 80944, Note_on_c, 0, 75, 0
4, 80976, Note_on_c, 0, 80, 0
4, 80976, Note_on_c, 0, 52, 0
4, 80984, Note_on_c, 0, 68, 0
4, 80996, Note_on_c, 0, 58, 0
4, 81040, Control_c, 0, 64, 0
4, 81056, Note_on_c, 0, 58, 55
4, 81056, Note_on_c, 0, 77, 72
4, 81060, Note_on_c, 0, 52, 62
4, 81068, Note_on_c, 0, 65, 57
4, 81092, Note_on_c, 0, 65, 0
4, 81120, Note_on_c, 0, 52, 0
4, 81124, Note_on_c, 0, 77, 0
4, 81148, Note_on_c, 0, 58, 0
4, 81168, Note_on_c, 0, 74, 49
4, 81204, Note_on_c, 0, 74, 0
4, 81288, Note_on_c, 0, 57, 56
4, 81292, Note_on_c, 0, 77, 88
4, 81292, Note_on_c, 0, 72, 92
4, 81300, Note_on_c, 0, 63, 70
4, 81300, Note_on_c, 0, 67, 65
4, 81508, Note_on_c, 0, 72, 0
4, 81512, Note_on_c, 0, 67, 0
4, 81552, Note_on_c, 0, 74, 60
4, 81580, Note_on_c, 0, 72, 53
4, 81592, Note_on_c, 0, 77, 0
4, 81640, Note_on_c, 0, 74, 0
4, 81660, Note_on_c, 0, 72, 0
4, 81680, Note_on_c, 0, 65, 31
4, 81684, Note_on_c, 0, 67, 30
4, 81764, Note_on_c, 0, 67, 0
4, 81776, Note_on_c, 0, 63, 0
4, 81784, Note_on_c, 0, 57, 0
4, 81792, Note_on_c, 0, 65, 0
4, 82080, Note_on_c, 0, 67, 77
4, 82084, Note_on_c, 0, 63, 61
4, 82088, Note_on_c, 0, 57, 62
4, 82108, Note_on_c, 0, 57, 0
4, 82124, Note_on_c, 0, 67, 0
4, 82140, Note_on_c, 0, 63, 0
4, 82216, Note_on_c, 0, 68, 64
4, 82280, Note_on_c, 0, 68, 0
4, 82320, Note_on_c, 0, 69, 61
4, 82360, Note_on_c, 0, 69, 0
4, 82408, Note_on_c, 0, 72, 67
4, 82460, Note_on_c, 0, 72, 0
4, 82500, Note_on_c, 0, 74, 85
4, 82516, Note_on_c, 0, 63, 42
4, 82544, Note_on_c, 0, 63, 0
4, 82556, Note_on_c, 0, 74, 0
4, 82616, Note_on_c, 0, 63, 35
4, 82640, Note_on_c, 0, 63, 0
4, 82824, Note_on_c, 0, 72, 77
4, 82828, Note_on_c, 0, 63, 57
4, 82828, Note_on_c, 0, 57, 65
4, 82832, Note_on_c, 0, 67, 57
4, 82856, Note_on_c, 0, 67, 0
4, 82884, Note_on_c, 0, 57, 0
4, 82908, Note_on_c, 0, 72, 0
4, 82924, Note_on_c, 0, 63, 0
4, 82964, Note_on_c, 0, 76, 72
4, 82968, Note_on_c, 0, 67, 71
4, 82972, Note_on_c, 0, 72, 53
4, 82980, Note_on_c, 0, 56, 51
4, 82980, Note_on_c, 0, 62, 55
4, 83064, Control_c, 0, 64, 127
4, 83136, Note_on_c, 0, 56, 0
4, 83152, Note_on_c, 0, 72, 0
4, 83160, Note_on_c, 0, 62, 0
4, 83160, Note_on_c, 0, 67, 0
4, 83208, Note_on_c, 0, 62, 64
4, 83212, Note_on_c, 0, 72, 56
4, 83212, Note_on_c, 0, 56, 53
4, 83224, Note_on_c, 0, 76, 0
4, 83380, Note_on_c, 0, 72, 0
4, 83412, Note_on_c, 0, 62, 0
4, 83444, Note_on_c, 0, 56, 0
4, 83684, Control_c, 0, 64, 0
4, 83708, Note_on_c, 0, 91, 99
4, 83708, Note_on_c, 0, 56, 65
4, 83708, Note_on_c, 0, 62, 64
4, 83708, Note_on_c, 0, 67, 68
4, 83752, Note_on_c, 0, 67, 0
4, 83764, Note_on_c, 0, 91, 0
4, 83820, Note_on_c, 0, 88, 55
4, 83824, Note_on_c, 0, 56, 0
4, 83840, Note_on_c, 0, 88, 0
4, 83840, Note_on_c, 0, 62, 0
4, 83900, Note_on_c, 0, 91, 90
4, 83908, Note_on_c, 0, 56, 62
4, 83912, Note_on_c, 0, 62, 67
4, 83916, Note_on_c, 0, 67, 60
4, 83980, Note_on_c, 0, 91, 0
4, 84012, Note_on_c, 0, 88, 74
4, 84084, Note_on_c, 0, 88, 0
4, 84100, Control_c, 0, 64, 127
4, 84104, Note_on_c, 0, 84, 70
4, 84172, Note_on_c, 0, 84, 0
4, 84192, Note_on_c, 0, 79, 58
4, 84208, Note_on_c, 0, 67, 0
4, 84244, Note_on_c, 0, 79, 0
4, 84284, Note_on_c, 0, 62, 0
4, 84344, Note_on_c, 0, 74, 20
4, 84356, Note_on_c, 0, 56, 0
4, 84388, Note_on_c, 0, 74, 0
4, 84480, Control_c, 0, 64, 0
4, 84492, Note_on_c, 0, 60, 62
4, 84496, Note_on_c, 0, 64, 51
4, 84496, Note_on_c, 0, 57, 50
4, 84496, Note_on_c, 0, 84, 80
4, 84596, Note_on_c, 0, 64, 0
4, 84604, Note_on_c, 0, 60, 0
4, 84608, Note_on_c, 0, 57, 0
4, 84612, Note_on_c, 0, 84, 0
4, 84632, Note_on_c, 0, 81, 60
4, 84652, Note_on_c, 0, 81, 0
4, 84656, Note_on_c, 0, 64, 31
4, 84672, Note_on_c, 0, 57, 25
4, 84692, Note_on_c, 0, 64, 0
4, 84700, Note_on_c, 0, 57, 0
4, 84884, Note_on_c, 0, 64, 54
4, 84884, Note_on_c, 0, 60, 49
4, 84888, Note_on_c, 0, 57, 42
4, 84892, Note_on_c, 0, 74, 88
4, 84936, Note_on_c, 0, 74, 0
4, 84944, Note_on_c, 0, 75, 55
4, 85000, Note_on_c, 0, 64, 0
4, 85008, Note_on_c, 0, 60, 0
4, 85008, Note_on_c, 0, 74, 49
4, 85068, Note_on_c, 0, 75, 0
4, 85096, Note_on_c, 0, 74, 0
4, 85112, Note_on_c, 0, 72, 59
4, 85192, Note_on_c, 0, 72, 0
4, 85256, Note_on_c, 0, 64, 46
4, 85256, Note_on_c, 0, 60, 17
4, 85260, Note_on_c, 0, 69, 61
4, 85300, Note_on_c, 0, 64, 0
4, 85320, Note_on_c, 0, 60, 0
4, 85496, Note_on_c, 0, 69, 0
4, 85508, Note_on_c, 0, 67, 51
4, 85516, Note_on_c, 0, 60, 30
4, 85540, Note_on_c, 0, 67, 0
4, 85560, Note_on_c, 0, 60, 0
4, 85652, Note_on_c, 0, 57, 0
4, 85652, Control_c, 0, 64, 127
4, 85660, Note_on_c, 0, 69, 48
4, 85760, Note_on_c, 0, 69, 0
4, 85900, Note_on_c, 0, 76, 75
4, 85904, Note_on_c, 0, 64, 70
4, 85904, Note_on_c, 0, 71, 70
4, 85908, Note_on_c, 0, 68, 71
4, 85912, Note_on_c, 0, 65, 72
4, 85936, Control_c, 0, 64, 0
4, 86016, Control_c, 0, 64, 127
4, 86120, Note_on_c, 0, 76, 0
4, 86128, Note_on_c, 0, 71, 0
4, 86132, Note_on_c, 0, 64, 0
4, 86140, Note_on_c, 0, 65, 0
4, 86168, Note_on_c, 0, 68, 0
4, 86280, Note_on_c, 0, 56, 61
4, 86284, Control_c, 0, 64, 0
4, 86288, Note_on_c, 0, 62, 77
4, 86292, Note_on_c, 0, 67, 69
4, 86292, Note_on_c, 0, 71, 68
4, 86296, Note_on_c, 0, 70, 36
4, 86372, Note_on_c, 0, 62, 0
4, 86384, Note_on_c, 0, 71, 0
4, 86384, Note_on_c, 0, 70, 0
4, 86396, Note_on_c, 0, 67, 0
4, 86440, Note_on_c, 0, 59, 67
4, 86440, Note_on_c, 0, 74, 80
4, 86452, Note_on_c, 0, 70, 50
4, 86452, Note_on_c, 0, 65, 55
4, 86460, Note_on_c, 0, 64, 25
4, 86464, Note_on_c, 0, 68, 21
4, 86480, Note_on_c, 0, 64, 0
4, 86484, Note_on_c, 0, 68, 0
4, 86496, Note_on_c, 0, 65, 0
4, 86508, Note_on_c, 0, 70, 0
4, 86512, Note_on_c, 0, 74, 0
4, 86664, Note_on_c, 0, 59, 0
4, 86668, Note_on_c, 0, 77, 78
4, 86672, Note_on_c, 0, 68, 81
4, 86676, Note_on_c, 0, 74, 71
4, 86680, Note_on_c, 0, 56, 0
4, 86680, Note_on_c, 0, 62, 75
4, 86732, Note_on_c, 0, 74, 0
4, 86736, Note_on_c, 0, 77, 0
4, 86740, Note_on_c, 0, 68, 0
4, 86828, Note_on_c, 0, 62, 0
4, 86844, Note_on_c, 0, 65, 54
4, 86844, Note_on_c, 0, 80, 37
4, 86844, Note_on_c, 0, 74, 43
4, 86872, Note_on_c, 0, 74, 0
4, 86892, Note_on_c, 0, 80, 0
4, 86912, Note_on_c, 0, 65, 0
4, 87040, Note_on_c, 0, 68, 72
4, 87060, Note_on_c, 0, 88, 79
4, 87068, Note_on_c, 0, 65, 32
4, 87076, Note_on_c, 0, 86, 40
4, 87100, Note_on_c, 0, 86, 0
4, 87100, Note_on_c, 0, 68, 0
4, 87128, Note_on_c, 0, 65, 0
4, 87128, Note_on_c, 0, 88, 0
4, 87216, Note_on_c, 0, 84, 41
4, 87280, Note_on_c, 0, 84, 0
4, 87420, Note_on_c, 0, 57, 60
4, 87420, Note_on_c, 0, 58, 47
4, 87424, Note_on_c, 0, 62, 54
4, 87524, Note_on_c, 0, 58, 0
4, 87556, Note_on_c, 0, 81, 81
4, 87560, Note_on_c, 0, 58, 46
4, 87704, Note_on_c, 0, 58, 0
4, 87716, Note_on_c, 0, 62, 0
4, 87796, Note_on_c, 0, 81, 0
4, 87816, Note_on_c, 0, 62, 42
4, 87816, Note_on_c, 0, 58, 37
4, 87820, Note_on_c, 0, 78, 42
4, 87844, Note_on_c, 0, 62, 0
4, 87868, Note_on_c, 0, 58, 0
4, 87924, Note_on_c, 0, 78, 0
4, 87936, Note_on_c, 0, 58, 35
4, 87940, Note_on_c, 0, 62, 44
4, 87944, Control_c, 0, 64, 127
4, 87956, Note_on_c, 0, 79, 50
4, 87988, Note_on_c, 0, 62, 0
4, 88008, Note_on_c, 0, 58, 0
4, 88060, Note_on_c, 0, 57, 0
4, 88140, Note_on_c, 0, 79, 0
4, 88192, Note_on_c, 0, 57, 40
4, 88192, Note_on_c, 0, 62, 40
4, 88192, Note_on_c, 0, 58, 38
4, 88200, Note_on_c, 0, 81, 58
4, 88220, Note_on_c, 0, 81, 0
4, 88220, Note_on_c, 0, 57, 0
4, 88220, Note_on_c, 0, 62, 0
4, 88240, Note_on_c, 0, 58, 0
4, 88272, Control_c, 0, 64, 0
4, 88348, Note_on_c, 0, 96, 81
4, 88348, Note_on_c, 0, 57, 54
4, 88352, Note_on_c, 0, 58, 44
4, 88352, Note_on_c, 0, 62, 48
4, 88368, Note_on_c, 0, 96, 0
4, 88372, Note_on_c, 0, 57, 0
4, 88376, Note_on_c, 0, 62, 0
4, 88380, Note_on_c, 0, 58, 0
4, 88560, Note_on_c, 0, 96, 83
4, 88564, Note_on_c, 0, 58, 49
4, 88564, Note_on_c, 0, 62, 54
4, 88568, Note_on_c, 0, 57, 49
4, 88592, Note_on_c, 0, 57, 0
4, 88612, Note_on_c, 0, 62, 0
4, 88636, Note_on_c, 0, 58, 0
4, 88656, Note_on_c, 0, 96, 0
4, 88688, Note_on_c, 0, 58, 43
4, 88688, Note_on_c, 0, 57, 25
4, 88692, Note_on_c, 0, 62, 49
4, 88696, Control_c, 0, 64, 127
4, 88696, Note_on_c, 0, 93, 66
4, 88804, Note_on_c, 0, 62, 0
4, 88816, Note_on_c, 0, 58, 0
4, 88836, Note_on_c, 0, 57, 0
4, 88836, Note_on_c, 0, 93, 0
4, 88936, Control_c, 0, 64, 0
4, 88944, Note_on_c, 0, 62, 71
4, 88948, Note_on_c, 0, 91, 62
4, 88948, Note_on_c, 0, 58, 59
4, 88948, Note_on_c, 0, 90, 71
4, 88952, Note_on_c, 0, 52, 69
4, 89000, Note_on_c, 0, 90, 0
4, 89128, Control_c, 0, 64, 127
4, 89356, Note_on_c, 0, 52, 0
4, 89360, Note_on_c, 0, 58, 0
4, 89360, Note_on_c, 0, 62, 0
4, 89420, Note_on_c, 0, 91, 0
4, 89424, Control_c, 0, 64, 0
4, 89452, Note_on_c, 0, 89, 66
4, 89456, Note_on_c, 0, 58, 49
4, 89456, Note_on_c, 0, 62, 51
4, 89464, Note_on_c, 0, 52, 44
4, 89608, Note_on_c, 0, 58, 0
4, 89612, Note_on_c, 0, 52, 0
4, 89612, Note_on_c, 0, 62, 0
4, 89688, Control_c, 0, 64, 127
4, 89776, Note_on_c, 0, 89, 0
4, 89796, Control_c, 0, 64, 0
4, 89840, Note_on_c, 0, 88, 69
4, 89844, Note_on_c, 0, 58, 45
4, 89844, Control_c, 0, 64, 127
4, 89852, Note_on_c, 0, 62, 38
4, 89880, Note_on_c, 0, 62, 0
4, 89884, Note_on_c, 0, 88, 0
4, 89888, Note_on_c, 0, 58, 0
4, 90096, Note_on_c, 0, 92, 83
4, 90100, Note_on_c, 0, 80, 82
4, 90104, Note_on_c, 0, 87, 82
4, 90104, Note_on_c, 0, 62, 77
4, 90108, Note_on_c, 0, 56, 75
4, 90108, Note_on_c, 0, 67, 85
4, 90112, Control_c, 0, 64, 0
4, 90208, Control_c, 0, 64, 127
4, 90308, Note_on_c, 0, 62, 0
4, 90324, Note_on_c, 0, 92, 0
4, 90328, Note_on_c, 0, 87, 0
4, 90332, Note_on_c, 0, 67, 0
4, 90336, Note_on_c, 0, 80, 0
4, 90408, Note_on_c, 0, 56, 0
4, 90480, Note_on_c, 0, 91, 81
4, 90480, Note_on_c, 0, 64, 85
4, 90480, Note_on_c, 0, 79, 83
4, 90480, Note_on_c, 0, 60, 79
4, 90484, Note_on_c, 0, 86, 83
4, 90484, Note_on_c, 0, 55, 84
4, 90492, Control_c, 0, 64, 0
4, 90496, Note_on_c, 0, 89, 43
4, 90520, Note_on_c, 0, 89, 0
4, 90600, Control_c, 0, 64, 127
4, 90652, Note_on_c, 0, 91, 0
4, 90672, Note_on_c, 0, 86, 0
4, 90704, Note_on_c, 0, 79, 0
4, 90772, Note_on_c, 0, 64, 0
4, 90796, Note_on_c, 0, 60, 0
4, 90804, Note_on_c, 0, 55, 0
4, 90852, Note_on_c, 0, 64, 84
4, 90860, Note_on_c, 0, 55, 70
4, 90864, Note_on_c, 0, 60, 75
4, 90864, Note_on_c, 0, 65, 32
4, 90884, Note_on_c, 0, 65, 0
4, 90892, Control_c, 0, 64, 0
4, 91088, Control_c, 0, 64, 127
4, 91260, Note_on_c, 0, 55, 0
4, 91276, Note_on_c, 0, 60, 0
4, 91316, Note_on_c, 0, 64, 0
4, 91352, Control_c, 0, 64, 0
4, 91380, Note_on_c, 0, 60, 52
4, 91380, Note_on_c, 0, 55, 55
4, 91392, Note_on_c, 0, 67, 55
4, 91440, Note_on_c, 0, 55, 0
4, 91448, Note_on_c, 0, 60, 0
4, 91472, Note_on_c, 0, 67, 0
4, 91752, Note_on_c, 0, 64, 53
4, 91752, Note_on_c, 0, 71, 75
4, 91756, Note_on_c, 0, 55, 50
4, 91756, Note_on_c, 0, 60, 56
4, 91900, Control_c, 0, 64, 127
4, 91916, Note_on_c, 0, 71, 0
4, 91932, Note_on_c, 0, 64, 0
4, 91944, Note_on_c, 0, 55, 0
4, 91948, Note_on_c, 0, 60, 0
4, 92104, Control_c, 0, 64, 0
4, 92160, Note_on_c, 0, 74, 73
4, 92164, Note_on_c, 0, 64, 74
4, 92164, Note_on_c, 0, 54, 62
4, 92168, Note_on_c, 0, 71, 63
4, 92168, Note_on_c, 0, 68, 48
4, 92172, Note_on_c, 0, 60, 54
4, 92188, Note_on_c, 0, 68, 0
4, 92204, Note_on_c, 0, 64, 0
4, 92204, Note_on_c, 0, 74, 0
4, 92204, Note_on_c, 0, 60, 0
4, 92208, Note_on_c, 0, 71, 0
4, 92224, Note_on_c, 0, 54, 0
4, 92268, Note_on_c, 0, 74, 52
4, 92268, Note_on_c, 0, 54, 50
4, 92272, Note_on_c, 0, 71, 36
4, 92276, Note_on_c, 0, 64, 53
4, 92276, Note_on_c, 0, 68, 44
4, 92280, Note_on_c, 0, 60, 46
4, 92396, Note_on_c, 0, 64, 0
4, 92400, Note_on_c, 0, 68, 0
4, 92404, Note_on_c, 0, 71, 0
4, 92404, Note_on_c, 0, 74, 0
4, 92404, Note_on_c, 0, 60, 0
4, 92404, Note_on_c, 0, 54, 0
4, 92552, Note_on_c, 0, 74, 75
4, 92556, Note_on_c, 0, 68, 62
4, 92556, Note_on_c, 0, 54, 71
4, 92560, Note_on_c, 0, 64, 75
4, 92560, Note_on_c, 0, 71, 64
4, 92564, Note_on_c, 0, 60, 70
4, 92688, Note_on_c, 0, 64, 0
4, 92692, Note_on_c, 0, 60, 0
4, 92696, Note_on_c, 0, 54, 0
4, 92696, Note_on_c, 0, 74, 0
4, 92696, Note_on_c, 0, 68, 0
4, 92704, Note_on_c, 0, 71, 0
4, 92792, Note_on_c, 0, 68, 64
4, 92796, Note_on_c, 0, 74, 67
4, 92796, Note_on_c, 0, 71, 60
4, 92800, Note_on_c, 0, 60, 65
4, 92800, Note_on_c, 0, 64, 66
4, 92800, Note_on_c, 0, 54, 60
4, 92876, Note_on_c, 0, 64, 0
4, 92908, Note_on_c, 0, 68, 0
4, 92912, Note_on_c, 0, 71, 0
4, 92932, Note_on_c, 0, 74, 0
4, 93068, Note_on_c, 0, 73, 74
4, 93132, Note_on_c, 0, 73, 0
4, 93184, Note_on_c, 0, 74, 79
4, 93256, Note_on_c, 0, 74, 0
4, 93316, Note_on_c, 0, 77, 72
4, 93392, Note_on_c, 0, 54, 0
4, 93396, Note_on_c, 0, 77, 0
4, 93424, Note_on_c, 0, 60, 0
4, 93440, Note_on_c, 0, 79, 67
4, 93492, Note_on_c, 0, 79, 0
4, 93548, Note_on_c, 0, 54, 48
4, 93552, Note_on_c, 0, 80, 82
4, 93620, Note_on_c, 0, 80, 0
4, 93624, Note_on_c, 0, 54, 0
4, 93684, Note_on_c, 0, 80, 57
4, 93692, Note_on_c, 0, 62, 49
4, 93692, Note_on_c, 0, 58, 40
4, 93696, Note_on_c, 0, 57, 34
4, 93728, Note_on_c, 0, 80, 0
4, 93732, Note_on_c, 0, 81, 69
4, 93868, Note_on_c, 0, 81, 0
4, 93940, Note_on_c, 0, 84, 101
4, 94028, Note_on_c, 0, 84, 0
4, 94068, Note_on_c, 0, 58, 0
4, 94080, Note_on_c, 0, 62, 0
4, 94088, Note_on_c, 0, 79, 32
4, 94116, Note_on_c, 0, 80, 39
4, 94120, Note_on_c, 0, 79, 0
4, 94156, Note_on_c, 0, 80, 0
4, 94172, Note_on_c, 0, 81, 35
4, 94240, Note_on_c, 0, 81, 0
4, 94344, Note_on_c, 0, 84, 99
4, 94356, Note_on_c, 0, 58, 46
4, 94364, Note_on_c, 0, 62, 38
4, 94396, Note_on_c, 0, 62, 0
4, 94428, Note_on_c, 0, 84, 0
4, 94472, Note_on_c, 0, 58, 0
4, 94500, Note_on_c, 0, 79, 33
4, 94528, Note_on_c, 0, 80, 34
4, 94564, Note_on_c, 0, 80, 0
4, 94572, Note_on_c, 0, 79, 0
4, 94620, Note_on_c, 0, 81, 15
4, 94676, Note_on_c, 0, 81, 0
4, 94844, Note_on_c, 0, 62, 51
4, 94848, Note_on_c, 0, 58, 43
4, 94848, Note_on_c, 0, 74, 57
4, 94856, Note_on_c, 0, 76, 60
4, 94864, Note_on_c, 0, 78, 25
4, 94872, Note_on_c, 0, 76, 0
4, 94888, Note_on_c, 0, 78, 0
4, 94944, Note_on_c, 0, 74, 0
4, 94992, Note_on_c, 0, 58, 0
4, 95000, Note_on_c, 0, 62, 0
4, 95080, Note_on_c, 0, 57, 0
4, 95232, Note_on_c, 0, 77, 90
4, 95240, Note_on_c, 0, 62, 74
4, 95240, Note_on_c, 0, 58, 62
4, 95376, Note_on_c, 0, 62, 0
4, 95388, Note_on_c, 0, 58, 0
4, 95396, Note_on_c, 0, 77, 0
4, 95608, Note_on_c, 0, 58, 52
4, 95612, Note_on_c, 0, 74, 79
4, 95616, Note_on_c, 0, 62, 48
4, 95720, Note_on_c, 0, 62, 0
4, 95776, Note_on_c, 0, 74, 0
4, 95784, Note_on_c, 0, 58, 0
4, 95996, Note_on_c, 0, 58, 53
4, 95996, Note_on_c, 0, 62, 66
4, 96000, Control_c, 0, 64, 127
4, 96000, Note_on_c, 0, 52, 62
4, 96004, Note_on_c, 0, 77, 88
4, 96124, Note_on_c, 0, 52, 0
4, 96152, Note_on_c, 0, 62, 0
4, 96168, Note_on_c, 0, 58, 0
4, 96220, Note_on_c, 0, 77, 0
4, 96256, Note_on_c, 0, 79, 71
4, 96264, Note_on_c, 0, 58, 46
4, 96272, Note_on_c, 0, 52, 55
4, 96272, Note_on_c, 0, 62, 38
4, 96308, Note_on_c, 0, 62, 0
4, 96348, Control_c, 0, 64, 0
4, 96392, Note_on_c, 0, 79, 0
4, 96392, Note_on_c, 0, 62, 30
4, 96392, Note_on_c, 0, 74, 56
4, 96404, Control_c, 0, 64, 127
4, 96420, Note_on_c, 0, 52, 0
4, 96464, Note_on_c, 0, 58, 0
4, 96476, Note_on_c, 0, 74, 0
4, 96512, Note_on_c, 0, 62, 0
4, 96628, Note_on_c, 0, 77, 113
4, 96628, Control_c, 0, 64, 0
4, 96632, Note_on_c, 0, 60, 71
4, 96632, Note_on_c, 0, 57, 65
4, 96640, Note_on_c, 0, 53, 54
4, 96744, Control_c, 0, 64, 127
4, 96860, Note_on_c, 0, 57, 0
4, 96864, Note_on_c, 0, 53, 0
4, 96872, Note_on_c, 0, 60, 0
4, 96920, Note_on_c, 0, 77, 0
4, 97036, Note_on_c, 0, 60, 54
4, 97036, Note_on_c, 0, 79, 80
4, 97040, Note_on_c, 0, 57, 48
4, 97044, Note_on_c, 0, 53, 36
4, 97048, Note_on_c, 0, 62, 42
4, 97068, Note_on_c, 0, 62, 0
4, 97088, Note_on_c, 0, 60, 0
4, 97088, Note_on_c, 0, 53, 0
4, 97100, Note_on_c, 0, 57, 0
4, 97156, Control_c, 0, 64, 0
4, 97184, Note_on_c, 0, 57, 32
4, 97188, Note_on_c, 0, 62, 36
4, 97188, Note_on_c, 0, 53, 35
4, 97188, Note_on_c, 0, 74, 64
4, 97192, Note_on_c, 0, 60, 27
4, 97252, Note_on_c, 0, 62, 0
4, 97276, Note_on_c, 0, 60, 0
4, 97284, Note_on_c, 0, 57, 0
4, 97292, Note_on_c, 0, 53, 0
4, 97332, Note_on_c, 0, 74, 0
4, 97344, Note_on_c, 0, 79, 0
4, 97396, Note_on_c, 0, 77, 80
4, 97400, Note_on_c, 0, 60, 64
4, 97400, Note_on_c, 0, 57, 62
4, 97404, Note_on_c, 0, 62, 66
4, 97404, Note_on_c, 0, 53, 62
4, 97520, Control_c, 0, 64, 127
4, 97560, Note_on_c, 0, 62, 0
4, 97600, Note_on_c, 0, 57, 0
4, 97600, Note_on_c, 0, 60, 0
4, 97608, Note_on_c, 0, 53, 0
4, 97668, Note_on_c, 0, 77, 0
4, 97776, Note_on_c, 0, 79, 85
4, 97784, Note_on_c, 0, 57, 53
4, 97784, Note_on_c, 0, 60, 59
4, 97788, Note_on_c, 0, 53, 55
4, 97800, Note_on_c, 0, 62, 46
4, 97820, Note_on_c, 0, 62, 0
4, 97852, Note_on_c, 0, 60, 0
4, 97888, Note_on_c, 0, 60, 25
4, 97892, Control_c, 0, 64, 0
4, 97912, Note_on_c, 0, 62, 53
4, 97928, Note_on_c, 0, 74, 27
4, 97968, Note_on_c, 0, 79, 0
4, 97972, Note_on_c, 0, 53, 0
4, 97976, Note_on_c, 0, 57, 0
4, 97988, Note_on_c, 0, 60, 0
4, 98016, Note_on_c, 0, 74, 0
4, 98020, Note_on_c, 0, 62, 0
4, 98028, Control_c, 0, 64, 127
4, 98148, Control_c, 0, 64, 0
4, 98148, Note_on_c, 0, 77, 96
4, 98152, Note_on_c, 0, 55, 77
4, 98152, Note_on_c, 0, 60, 74
4, 98152, Note_on_c, 0, 64, 76
4, 98268, Control_c, 0, 64, 127
4, 98340, Note_on_c, 0, 64, 0
4, 98348, Note_on_c, 0, 60, 0
4, 98360, Note_on_c, 0, 55, 0
4, 98372, Note_on_c, 0, 77, 0
4, 98632, Control_c, 0, 64, 0
4, 98664, Note_on_c, 0, 55, 77
4, 98664, Note_on_c, 0, 81, 95
4, 98668, Note_on_c, 0, 64, 72
4, 98668, Note_on_c, 0, 60, 62
4, 98720, Note_on_c, 0, 64, 0
4, 98732, Note_on_c, 0, 81, 0
4, 98756, Note_on_c, 0, 55, 0
4, 98756, Note_on_c, 0, 60, 0
4, 99048, Note_on_c, 0, 78, 83
4, 99048, Note_on_c, 0, 84, 91
4, 99052, Note_on_c, 0, 64, 68
4, 99056, Control_c, 0, 64, 127
4, 99056, Note_on_c, 0, 60, 65
4, 99060, Note_on_c, 0, 54, 53
4, 99076, Note_on_c, 0, 60, 0
4, 99076, Note_on_c, 0, 64, 0
4, 99120, Note_on_c, 0, 54, 0
4, 99192, Note_on_c, 0, 78, 0
4, 99224, Note_on_c, 0, 84, 0
4, 99400, Note_on_c, 0, 78, 86
4, 99520, Control_c, 0, 64, 0
4, 99524, Note_on_c, 0, 78, 0
4, 99524, End_track
5, 0, Start_track
5, 0, Title_t, "Bass"
5, 0, Control_c, 1, 0, 0
5, 0, Control_c, 1, 7, 115
5, 0, Program_c, 1, 35
5, 1036, Note_on_c, 1, 33, 77
5, 1092, Note_on_c, 1, 33, 0
5, 1160, Note_on_c, 1, 32, 67
5, 1528, Note_on_c, 1, 32, 0
5, 1552, Note_on_c, 1, 31, 42
5, 1880, Note_on_c, 1, 30, 36
5, 1920, Note_on_c, 1, 31, 0
5, 1940, Note_on_c, 1, 38, 60
5, 1952, Note_on_c, 1, 30, 0
5, 2268, Note_on_c, 1, 38, 0
5, 2332, Note_on_c, 1, 45, 44
5, 2588, Note_on_c, 1, 38, 48
5, 2632, Note_on_c, 1, 45, 0
5, 2664, Note_on_c, 1, 38, 0
5, 2700, Note_on_c, 1, 35, 57
5, 3072, Note_on_c, 1, 35, 0
5, 3076, Note_on_c, 1, 36, 58
5, 3392, Note_on_c, 1, 35, 33
5, 3400, Note_on_c, 1, 36, 0
5, 3444, Note_on_c, 1, 35, 0
5, 3456, Note_on_c, 1, 38, 51
5, 3744, Note_on_c, 1, 35, 33
5, 3796, Note_on_c, 1, 35, 0
5, 3832, Note_on_c, 1, 40, 65
5, 3880, Note_on_c, 1, 38, 0
5, 4124, Note_on_c, 1, 40, 0
5, 4132, Note_on_c, 1, 35, 42
5, 4180, Note_on_c, 1, 35, 0
5, 4216, Note_on_c, 1, 44, 68
5, 4732, Note_on_c, 1, 44, 0
5, 4760, Note_on_c, 1, 43, 55
5, 4808, Note_on_c, 1, 43, 0
5, 4860, Note_on_c, 1, 38, 47
5, 4936, Note_on_c, 1, 38, 0
5, 4976, Note_on_c, 1, 32, 55
5, 5328, Note_on_c, 1, 32, 0
5, 5376, Note_on_c, 1, 31, 54
5, 5736, Note_on_c, 1, 35, 55
5, 5740, Note_on_c, 1, 31, 0
5, 6108, Note_on_c, 1, 35, 0
5, 6120, Note_on_c, 1, 36, 40
5, 6436, Note_on_c, 1, 35, 34
5, 6456, Note_on_c, 1, 36, 0
5, 6476, Note_on_c, 1, 35, 0
5, 6508, Note_on_c, 1, 38, 55
5, 6804, Note_on_c, 1, 35, 24
5, 6840, Note_on_c, 1, 35, 0
5, 6860, Note_on_c, 1, 38, 0
5, 6884, Note_on_c, 1, 39, 53
5, 7160, Note_on_c, 1, 36, 47
5, 7188, Note_on_c, 1, 36, 0
5, 7276, Note_on_c, 1, 40, 58
5, 7284, Note_on_c, 1, 39, 0
5, 7536, Note_on_c, 1, 40, 0
5, 7540, Pitch_bend_c, 1, 8192
5, 7552, Pitch_bend_c, 1, 7552
5, 7560, Pitch_bend_c, 1, 7296
5, 7564, Pitch_bend_c, 1, 6912
5, 7568, Pitch_bend_c, 1, 6656
5, 7576, Pitch_bend_c, 1, 6272
5, 7580, Pitch_bend_c, 1, 5888
5, 7584, Pitch_bend_c, 1, 5632
5, 7592, Pitch_bend_c, 1, 5376
5, 7596, Pitch_bend_c, 1, 4992
5, 7604, Pitch_bend_c, 1, 4736
5, 7608, Pitch_bend_c, 1, 4480
5, 7612, Pitch_bend_c, 1, 4224
5, 7620, Pitch_bend_c, 1, 3968
5, 7624, Pitch_bend_c, 1, 3712
5, 7628, Pitch_bend_c, 1, 3456
5, 7636, Pitch_bend_c, 1, 3200
5, 7640, Pitch_bend_c, 1, 3072
5, 7648, Pitch_bend_c, 1, 2944
5, 7652, Pitch_bend_c, 1, 2816
5, 7672, Pitch_bend_c, 1, 2944
5, 7680, Pitch_bend_c, 1, 3200
5, 7684, Note_on_c, 1, 41, 61
5, 7684, Pitch_bend_c, 1, 3584
5, 7692, Pitch_bend_c, 1, 4096
5, 7696, Pitch_bend_c, 1, 4608
5, 7704, Pitch_bend_c, 1, 5376
5, 7708, Pitch_bend_c, 1, 5888
5, 7712, Pitch_bend_c, 1, 6400
5, 7720, Pitch_bend_c, 1, 6912
5, 7724, Pitch_bend_c, 1, 7296
5, 7728, Pitch_bend_c, 1, 7552
5, 7736, Pitch_bend_c, 1, 7680
5, 7740, Pitch_bend_c, 1, 8192
5, 7744, Pitch_bend_c, 1, 8192
5, 7756, Pitch_bend_c, 1, 8192
5, 7764, Pitch_bend_c, 1, 8192
5, 8060, Note_on_c, 1, 41, 0
5, 8064, Note_on_c, 1, 40, 56
5, 8372, Note_on_c, 1, 35, 24
5, 8400, Note_on_c, 1, 35, 0
5, 8400, Note_on_c, 1, 40, 0
5, 8420, Note_on_c, 1, 41, 58
5, 8692, Note_on_c, 1, 38, 53
5, 8692, Note_on_c, 1, 36, 55
5, 8708, Note_on_c, 1, 41, 0
5, 8720, Note_on_c, 1, 36, 0
5, 8744, Note_on_c, 1, 38, 0
5, 8792, Note_on_c, 1, 35, 61
5, 9132, Note_on_c, 1, 35, 0
5, 9160, Note_on_c, 1, 34, 55
5, 9520, Note_on_c, 1, 34, 0
5, 9528, Note_on_c, 1, 50, 68
5, 9896, Note_on_c, 1, 50, 0
5, 9916, Note_on_c, 1, 46, 40
5, 10188, Note_on_c, 1, 39, 37
5, 10224, Note_on_c, 1, 39, 0
5, 10244, Note_on_c, 1, 46, 0
5, 10284, Note_on_c, 1, 44, 46
5, 10708, Note_on_c, 1, 44, 0
5, 10712, Note_on_c, 1, 45, 41
5, 11112, Note_on_c, 1, 40, 48
5, 11116, Note_on_c, 1, 45, 0
5, 11488, Note_on_c, 1, 40, 0
5, 11508, Note_on_c, 1, 36, 45
5, 11776, Note_on_c, 1, 36, 0
5, 11796, Note_on_c, 1, 33, 40
5, 11828, Note_on_c, 1, 33, 0
5, 11920, Note_on_c, 1, 33, 60
5, 12240, Note_on_c, 1, 33, 0
5, 12252, Note_on_c, 1, 32, 56
5, 12636, Note_on_c, 1, 32, 0
5, 12636, Note_on_c, 1, 35, 54
5, 13020, Note_on_c, 1, 35, 0
5, 13036, Note_on_c, 1, 38, 42
5, 13316, Note_on_c, 1, 35, 45
5, 13332, Note_on_c, 1, 38, 0
5, 13352, Note_on_c, 1, 35, 0
5, 13420, Note_on_c, 1, 44, 62
5, 13736, Note_on_c, 1, 44, 0
5, 13796, Note_on_c, 1, 43, 61
5, 14156, Note_on_c, 1, 43, 0
5, 14204, Note_on_c, 1, 38, 30
5, 14544, Note_on_c, 1, 38, 0
5, 14580, Note_on_c, 1, 46, 40
5, 14968, Note_on_c, 1, 43, 43
5, 15012, Note_on_c, 1, 43, 0
5, 15044, Note_on_c, 1, 46, 0
5, 15216, Note_on_c, 1, 38, 63
5, 15292, Note_on_c, 1, 38, 0
5, 15344, Note_on_c, 1, 36, 58
5, 15604, Note_on_c, 1, 40, 44
5, 15636, Note_on_c, 1, 40, 0
5, 15692, Note_on_c, 1, 36, 0
5, 15708, Note_on_c, 1, 50, 78
5, 16056, Note_on_c, 1, 50, 0
5, 16108, Note_on_c, 1, 48, 53
5, 16388, Note_on_c, 1, 36, 52
5, 16448, Note_on_c, 1, 48, 0
5, 16472, Note_on_c, 1, 36, 0
5, 16500, Note_on_c, 1, 46, 50
5, 17004, Note_on_c, 1, 45, 47
5, 17024, Note_on_c, 1, 46, 0
5, 17036, Note_on_c, 1, 45, 0
5, 17112, Note_on_c, 1, 40, 58
5, 17184, Note_on_c, 1, 40, 0
5, 17252, Note_on_c, 1, 36, 65
5, 17572, Note_on_c, 1, 36, 0
5, 17600, Note_on_c, 1, 33, 56
5, 17916, Note_on_c, 1, 33, 0
5, 17920, Note_on_c, 1, 34, 36
5, 17996, Note_on_c, 1, 34, 0
5, 18024, Note_on_c, 1, 37, 47
5, 18316, Note_on_c, 1, 34, 32
5, 18324, Note_on_c, 1, 37, 0
5, 18408, Note_on_c, 1, 34, 0
5, 18416, Note_on_c, 1, 38, 44
5, 18708, Note_on_c, 1, 34, 29
5, 18780, Note_on_c, 1, 38, 0
5, 18800, Note_on_c, 1, 34, 0
5, 18800, Note_on_c, 1, 51, 57
5, 19160, Note_on_c, 1, 51, 0
5, 19180, Note_on_c, 1, 50, 52
5, 19460, Note_on_c, 1, 42, 37
5, 19496, Note_on_c, 1, 42, 0
5, 19500, Note_on_c, 1, 50, 0
5, 19552, Note_on_c, 1, 48, 51
5, 19864, Note_on_c, 1, 43, 34
5, 19900, Note_on_c, 1, 43, 0
5, 19920, Note_on_c, 1, 48, 0
5, 19956, Note_on_c, 1, 47, 55
5, 20284, Note_on_c, 1, 47, 0
5, 20336, Note_on_c, 1, 42, 42
5, 20728, Note_on_c, 1, 38, 45
5, 20784, Note_on_c, 1, 42, 0
5, 21016, Note_on_c, 1, 35, 34
5, 21056, Note_on_c, 1, 35, 0
5, 21080, Note_on_c, 1, 38, 0
5, 21104, Note_on_c, 1, 39, 57
5, 21476, Note_on_c, 1, 39, 0
5, 21488, Note_on_c, 1, 40, 55
5, 21772, Note_on_c, 1, 35, 42
5, 21808, Note_on_c, 1, 40, 0
5, 21812, Note_on_c, 1, 35, 0
5, 21880, Note_on_c, 1, 34, 61
5, 22248, Note_on_c, 1, 50, 80
5, 22576, Note_on_c, 1, 50, 0
5, 22600, Note_on_c, 1, 34, 0
5, 22636, Note_on_c, 1, 46, 52
5, 22896, Note_on_c, 1, 34, 39
5, 22940, Note_on_c, 1, 34, 0
5, 23020, Note_on_c, 1, 46, 0
5, 23024, Note_on_c, 1, 45, 48
5, 23248, Note_on_c, 1, 45, 0
5, 23280, Note_on_c, 1, 49, 49
5, 23360, Note_on_c, 1, 49, 0
5, 23400, Note_on_c, 1, 40, 50
5, 23688, Note_on_c, 1, 34, 20
5, 23716, Note_on_c, 1, 34, 0
5, 23760, Note_on_c, 1, 40, 0
5, 23792, Note_on_c, 1, 38, 53
5, 24176, Note_on_c, 1, 37, 55
5, 24180, Note_on_c, 1, 38, 0
5, 24568, Note_on_c, 1, 33, 56
5, 24576, Note_on_c, 1, 37, 0
5, 24924, Note_on_c, 1, 33, 0
5, 24948, Note_on_c, 1, 39, 62
5, 25220, Note_on_c, 1, 38, 69
5, 25228, Note_on_c, 1, 39, 0
5, 25556, Note_on_c, 1, 38, 0
5, 25620, Note_on_c, 1, 33, 60
5, 25684, Note_on_c, 1, 33, 0
5, 25708, Note_on_c, 1, 50, 57
5, 26028, Note_on_c, 1, 50, 0
5, 26096, Note_on_c, 1, 45, 55
5, 26328, Note_on_c, 1, 45, 0
5, 26344, Note_on_c, 1, 44, 74
5, 26444, Note_on_c, 1, 44, 0
5, 26488, Note_on_c, 1, 43, 49
5, 26728, Note_on_c, 1, 43, 0
5, 26728, Note_on_c, 1, 34, 55
5, 26792, Note_on_c, 1, 34, 0
5, 26856, Note_on_c, 1, 38, 48
5, 27180, Note_on_c, 1, 38, 0
5, 27232, Note_on_c, 1, 35, 57
5, 27596, Note_on_c, 1, 35, 0
5, 27604, Note_on_c, 1, 36, 52
5, 27924, Note_on_c, 1, 35, 32
5, 27948, Note_on_c, 1, 36, 0
5, 27980, Note_on_c, 1, 35, 0
5, 27992, Note_on_c, 1, 38, 44
5, 28288, Note_on_c, 1, 35, 35
5, 28332, Note_on_c, 1, 35, 0
5, 28356, Note_on_c, 1, 38, 0
5, 28388, Note_on_c, 1, 39, 44
5, 28676, Note_on_c, 1, 36, 34
5, 28740, Note_on_c, 1, 39, 0
5, 28756, Note_on_c, 1, 36, 0
5, 28768, Note_on_c, 1, 40, 45
5, 29012, Note_on_c, 1, 40, 0
5, 29028, Note_on_c, 1, 34, 47
5, 29036, Note_on_c, 1, 44, 50
5, 29084, Note_on_c, 1, 34, 0
5, 29156, Note_on_c, 1, 44, 0
5, 29164, Note_on_c, 1, 43, 40
5, 29404, Note_on_c, 1, 43, 0
5, 29416, Note_on_c, 1, 50, 74
5, 29516, Note_on_c, 1, 50, 0
5, 29572, Note_on_c, 1, 46, 30
5, 29892, Note_on_c, 1, 46, 0
5, 29924, Note_on_c, 1, 45, 53
5, 30208, Note_on_c, 1, 38, 33
5, 30252, Note_on_c, 1, 38, 0
5, 30252, Note_on_c, 1, 45, 0
5, 30304, Note_on_c, 1, 44, 56
5, 30596, Note_on_c, 1, 38, 20
5, 30624, Note_on_c, 1, 38, 0
5, 30684, Note_on_c, 1, 44, 0
5, 30704, Note_on_c, 1, 43, 44
5, 30956, Note_on_c, 1, 38, 60
5, 30988, Note_on_c, 1, 43, 0
5, 31060, Note_on_c, 1, 38, 0
5, 31084, Note_on_c, 1, 36, 53
5, 31452, Note_on_c, 1, 38, 58
5, 31456, Note_on_c, 1, 36, 0
5, 31536, Note_on_c, 1, 38, 0
5, 31840, Note_on_c, 1, 40, 57
5, 32136, Note_on_c, 1, 40, 0
5, 32228, Note_on_c, 1, 41, 41
5, 32496, Note_on_c, 1, 41, 0
5, 32500, Note_on_c, 1, 36, 38
5, 32564, Note_on_c, 1, 36, 0
5, 32592, Note_on_c, 1, 33, 49
5, 32968, Note_on_c, 1, 33, 0
5, 32996, Note_on_c, 1, 41, 49
5, 33388, Note_on_c, 1, 35, 54
5, 33392, Note_on_c, 1, 41, 0
5, 33740, Note_on_c, 1, 35, 0
5, 33752, Note_on_c, 1, 34, 52
5, 34144, Note_on_c, 1, 50, 64
5, 34212, Note_on_c, 1, 34, 0
5, 34528, Note_on_c, 1, 50, 0
5, 34536, Note_on_c, 1, 46, 38
5, 34832, Note_on_c, 1, 34, 35
5, 34872, Note_on_c, 1, 46, 0
5, 34888, Note_on_c, 1, 34, 0
5, 34908, Note_on_c, 1, 44, 56
5, 35280, Note_on_c, 1, 44, 0
5, 35304, Note_on_c, 1, 45, 60
5, 35640, Note_on_c, 1, 45, 0
5, 35680, Note_on_c, 1, 41, 45
5, 36064, Note_on_c, 1, 36, 46
5, 36080, Note_on_c, 1, 41, 0
5, 36412, Note_on_c, 1, 36, 0
5, 36440, Note_on_c, 1, 33, 55
5, 36792, Note_on_c, 1, 33, 0
5, 36824, Note_on_c, 1, 32, 60
5, 37220, Note_on_c, 1, 33, 59
5, 37236, Note_on_c, 1, 32, 0
5, 37584, Note_on_c, 1, 33, 0
5, 37612, Note_on_c, 1, 35, 62
5, 37956, Note_on_c, 1, 35, 0
5, 37984, Note_on_c, 1, 32, 59
5, 38352, Note_on_c, 1, 32, 0
5, 38392, Note_on_c, 1, 31, 50
5, 38760, Note_on_c, 1, 38, 75
5, 38784, Note_on_c, 1, 31, 0
5, 39068, Note_on_c, 1, 34, 19
5, 39128, Note_on_c, 1, 34, 0
5, 39144, Note_on_c, 1, 45, 89
5, 39148, Note_on_c, 1, 38, 0
5, 39416, Note_on_c, 1, 38, 53
5, 39472, Note_on_c, 1, 45, 0
5, 39480, Note_on_c, 1, 38, 0
5, 39520, Note_on_c, 1, 42, 46
5, 39804, Note_on_c, 1, 42, 0
5, 39808, Note_on_c, 1, 43, 65
5, 40028, Note_on_c, 1, 43, 0
5, 40064, Note_on_c, 1, 50, 63
5, 40132, Note_on_c, 1, 50, 0
5, 40172, Note_on_c, 1, 49, 59
5, 40244, Note_on_c, 1, 49, 0
5, 40308, Note_on_c, 1, 48, 55
5, 40600, Note_on_c, 1, 38, 24
5, 40632, Note_on_c, 1, 38, 0
5, 40636, Note_on_c, 1, 48, 0
5, 40692, Note_on_c, 1, 46, 47
5, 40992, Note_on_c, 1, 38, 27
5, 41012, Note_on_c, 1, 46, 0
5, 41036, Note_on_c, 1, 38, 0
5, 41072, Note_on_c, 1, 44, 51
5, 41296, Note_on_c, 1, 44, 0
5, 41340, Note_on_c, 1, 45, 60
5, 41612, Note_on_c, 1, 40, 49
5, 41624, Note_on_c, 1, 45, 0
5, 41668, Note_on_c, 1, 40, 0
5, 41728, Note_on_c, 1, 36, 67
5, 41772, Note_on_c, 1, 36, 0
5, 41856, Note_on_c, 1, 33, 68
5, 42180, Note_on_c, 1, 33, 0
5, 42216, Note_on_c, 1, 36, 66
5, 42560, Note_on_c, 1, 36, 0
5, 42596, Note_on_c, 1, 37, 59
5, 42908, Note_on_c, 1, 37, 0
5, 42908, Note_on_c, 1, 34, 21
5, 42988, Note_on_c, 1, 38, 53
5, 42996, Note_on_c, 1, 34, 0
5, 43268, Note_on_c, 1, 37, 35
5, 43308, Note_on_c, 1, 38, 0
5, 43324, Note_on_c, 1, 37, 0
5, 43360, Note_on_c, 1, 40, 29
5, 43656, Note_on_c, 1, 38, 24
5, 43708, Note_on_c, 1, 40, 0
5, 43724, Note_on_c, 1, 38, 0
5, 43752, Note_on_c, 1, 41, 50
5, 44044, Note_on_c, 1, 37, 35
5, 44072, Note_on_c, 1, 37, 0
5, 44080, Note_on_c, 1, 41, 0
5, 44132, Note_on_c, 1, 42, 45
5, 44412, Note_on_c, 1, 42, 0
5, 44424, Note_on_c, 1, 43, 66
5, 44808, Note_on_c, 1, 43, 0
5, 44828, Note_on_c, 1, 38, 49
5, 44864, Note_on_c, 1, 38, 0
5, 44916, Note_on_c, 1, 52, 65
5, 45252, Note_on_c, 1, 52, 0
5, 45300, Note_on_c, 1, 50, 53
5, 45552, Note_on_c, 1, 43, 45
5, 45584, Note_on_c, 1, 43, 0
5, 45660, Note_on_c, 1, 50, 0
5, 45688, Note_on_c, 1, 46, 43
5, 46044, Note_on_c, 1, 46, 0
5, 46052, Note_on_c, 1, 45, 63
5, 46348, Note_on_c, 1, 38, 40
5, 46372, Note_on_c, 1, 45, 0
5, 46384, Note_on_c, 1, 38, 0
5, 46436, Note_on_c, 1, 44, 57
5, 46784, Note_on_c, 1, 44, 0
5, 46828, Note_on_c, 1, 43, 48
5, 47032, Note_on_c, 1, 43, 0
5, 47076, Note_on_c, 1, 36, 61
5, 47144, Note_on_c, 1, 36, 0
5, 47184, Note_on_c, 1, 33, 55
5, 47544, Note_on_c, 1, 33, 0
5, 47584, Note_on_c, 1, 41, 51
5, 47848, Note_on_c, 1, 41, 0
5, 47856, Note_on_c, 1, 36, 80
5, 48276, Note_on_c, 1, 34, 27
5, 48384, Note_on_c, 1, 36, 0
5, 48388, Note_on_c, 1, 48, 49
5, 48392, Note_on_c, 1, 47, 53
5, 48404, Note_on_c, 1, 34, 0
5, 48532, Note_on_c, 1, 47, 0
5, 48644, Note_on_c, 1, 36, 74
5, 49084, Note_on_c, 1, 36, 0
5, 49116, Note_on_c, 1, 48, 0
5, 49152, Note_on_c, 1, 45, 57
5, 49376, Note_on_c, 1, 45, 0
5, 49400, Note_on_c, 1, 33, 77
5, 49452, Note_on_c, 1, 33, 0
5, 49520, Note_on_c, 1, 33, 65
5, 49572, Note_on_c, 1, 33, 0
5, 49792, Note_on_c, 1, 38, 82
5, 49796, Note_on_c, 1, 33, 81
5, 49840, Note_on_c, 1, 38, 0
5, 49896, Note_on_c, 1, 33, 0
5, 49928, Note_on_c, 1, 38, 71
5, 50264, Note_on_c, 1, 38, 0
5, 50292, Note_on_c, 1, 32, 62
5, 50640, Note_on_c, 1, 32, 0
5, 50652, Note_on_c, 1, 31, 64
5, 50868, Note_on_c, 1, 31, 0
5, 50940, Note_on_c, 1, 31, 49
5, 51060, Note_on_c, 1, 33, 68
5, 51084, Note_on_c, 1, 31, 0
5, 51428, Note_on_c, 1, 33, 0
5, 51444, Note_on_c, 1, 34, 50
5, 51784, Note_on_c, 1, 34, 0
5, 51800, Note_on_c, 1, 35, 51
5, 52088, Note_on_c, 1, 34, 32
5, 52176, Note_on_c, 1, 34, 0
5, 52184, Note_on_c, 1, 35, 0
5, 52200, Note_on_c, 1, 36, 50
5, 52508, Note_on_c, 1, 34, 27
5, 52564, Note_on_c, 1, 36, 0
5, 52576, Note_on_c, 1, 38, 57
5, 52604, Note_on_c, 1, 34, 0
5, 52908, Note_on_c, 1, 36, 22
5, 52928, Note_on_c, 1, 38, 0
5, 52944, Note_on_c, 1, 40, 63
5, 52960, Note_on_c, 1, 36, 0
5, 53232, Note_on_c, 1, 34, 36
5, 53304, Note_on_c, 1, 40, 0
5, 53320, Note_on_c, 1, 34, 0
5, 53352, Note_on_c, 1, 42, 46
5, 53612, Note_on_c, 1, 34, 36
5, 53680, Note_on_c, 1, 34, 0
5, 53724, Note_on_c, 1, 43, 58
5, 53728, Note_on_c, 1, 42, 0
5, 54016, Note_on_c, 1, 34, 45
5, 54044, Note_on_c, 1, 34, 0
5, 54092, Note_on_c, 1, 43, 0
5, 54120, Note_on_c, 1, 38, 47
5, 54440, Note_on_c, 1, 38, 0
5, 54492, Note_on_c, 1, 34, 51
5, 54856, Note_on_c, 1, 34, 0
5, 54876, Note_on_c, 1, 35, 52
5, 55260, Note_on_c, 1, 35, 0
5, 55264, Note_on_c, 1, 36, 57
5, 55560, Note_on_c, 1, 34, 31
5, 55620, Note_on_c, 1, 34, 0
5, 55628, Note_on_c, 1, 36, 0
5, 55668, Note_on_c, 1, 50, 63
5, 55996, Note_on_c, 1, 50, 0
5, 56056, Note_on_c, 1, 48, 41
5, 56416, Note_on_c, 1, 48, 0
5, 56424, Note_on_c, 1, 40, 53
5, 56792, Note_on_c, 1, 40, 0
5, 56816, Note_on_c, 1, 41, 53
5, 57184, Note_on_c, 1, 41, 0
5, 57204, Note_on_c, 1, 36, 55
5, 57548, Note_on_c, 1, 36, 0
5, 57576, Note_on_c, 1, 33, 54
5, 57940, Note_on_c, 1, 33, 0
5, 57952, Note_on_c, 1, 35, 57
5, 58332, Note_on_c, 1, 35, 0
5, 58344, Note_on_c, 1, 34, 51
5, 58728, Note_on_c, 1, 50, 70
5, 58852, Note_on_c, 1, 34, 0
5, 59084, Note_on_c, 1, 50, 0
5, 59116, Note_on_c, 1, 46, 51
5, 59372, Note_on_c, 1, 34, 48
5, 59476, Note_on_c, 1, 34, 0
5, 59480, Note_on_c, 1, 41, 44
5, 59684, Note_on_c, 1, 46, 0
5, 59760, Note_on_c, 1, 34, 48
5, 59788, Note_on_c, 1, 41, 0
5, 59828, Note_on_c, 1, 34, 0
5, 59864, Note_on_c, 1, 33, 57
5, 60252, Note_on_c, 1, 45, 68
5, 60284, Note_on_c, 1, 33, 0
5, 60572, Note_on_c, 1, 45, 0
5, 60636, Note_on_c, 1, 41, 55
5, 60904, Note_on_c, 1, 33, 51
5, 60964, Note_on_c, 1, 33, 0
5, 61008, Note_on_c, 1, 41, 0
5, 61012, Note_on_c, 1, 36, 55
5, 61288, Note_on_c, 1, 33, 54
5, 61296, Note_on_c, 1, 36, 0
5, 61368, Note_on_c, 1, 33, 0
5, 61408, Note_on_c, 1, 32, 51
5, 61796, Note_on_c, 1, 35, 60
5, 61824, Note_on_c, 1, 32, 0
5, 62180, Note_on_c, 1, 35, 0
5, 62188, Note_on_c, 1, 38, 45
5, 62484, Note_on_c, 1, 35, 44
5, 62512, Note_on_c, 1, 38, 0
5, 62548, Note_on_c, 1, 35, 0
5, 62572, Note_on_c, 1, 44, 50
5, 62852, Note_on_c, 1, 35, 31
5, 62896, Note_on_c, 1, 35, 0
5, 62940, Note_on_c, 1, 43, 57
5, 62948, Note_on_c, 1, 44, 0
5, 63132, Note_on_c, 1, 43, 0
5, 63220, Note_on_c, 1, 38, 50
5, 63276, Note_on_c, 1, 38, 0
5, 63328, Note_on_c, 1, 32, 56
5, 63728, Note_on_c, 1, 32, 0
5, 63740, Note_on_c, 1, 31, 67
5, 64116, Note_on_c, 1, 31, 0
5, 64136, Note_on_c, 1, 30, 43
5, 64280, Note_on_c, 1, 30, 0
5, 64396, Note_on_c, 1, 31, 59
5, 64464, Note_on_c, 1, 31, 0
5, 64520, Note_on_c, 1, 36, 55
5, 64880, Note_on_c, 1, 38, 37
5, 64888, Note_on_c, 1, 36, 0
5, 65268, Note_on_c, 1, 38, 0
5, 65268, Note_on_c, 1, 40, 48
5, 65584, Note_on_c, 1, 40, 0
5, 65636, Note_on_c, 1, 44, 46
5, 65992, Note_on_c, 1, 44, 0
5, 66020, Note_on_c, 1, 43, 46
5, 66404, Note_on_c, 1, 40, 51
5, 66420, Note_on_c, 1, 43, 0
5, 66772, Note_on_c, 1, 40, 0
5, 66800, Note_on_c, 1, 52, 65
5, 67136, Note_on_c, 1, 52, 0
5, 67196, Note_on_c, 1, 48, 40
5, 67448, Note_on_c, 1, 48, 0
5, 67468, Note_on_c, 1, 37, 49
5, 67556, Note_on_c, 1, 37, 0
5, 67568, Note_on_c, 1, 38, 50
5, 67844, Note_on_c, 1, 34, 21
5, 67892, Note_on_c, 1, 34, 0
5, 67944, Note_on_c, 1, 50, 67
5, 68012, Note_on_c, 1, 38, 0
5, 68308, Note_on_c, 1, 50, 0
5, 68328, Note_on_c, 1, 42, 38
5, 68592, Note_on_c, 1, 38, 51
5, 68648, Note_on_c, 1, 38, 0
5, 68684, Note_on_c, 1, 42, 0
5, 68712, Note_on_c, 1, 34, 51
5, 69052, Note_on_c, 1, 34, 0
5, 69088, Note_on_c, 1, 35, 47
5, 69304, Note_on_c, 1, 35, 0
5, 69356, Note_on_c, 1, 35, 64
5, 69424, Note_on_c, 1, 35, 0
5, 69544, Note_on_c, 1, 37, 39
5, 69828, Note_on_c, 1, 37, 0
5, 69872, Note_on_c, 1, 38, 59
5, 70176, Note_on_c, 1, 35, 32
5, 70200, Note_on_c, 1, 38, 0
5, 70232, Note_on_c, 1, 35, 0
5, 70240, Note_on_c, 1, 39, 52
5, 70536, Note_on_c, 1, 35, 26
5, 70576, Note_on_c, 1, 35, 0
5, 70612, Note_on_c, 1, 39, 0
5, 70628, Note_on_c, 1, 40, 55
5, 70944, Note_on_c, 1, 35, 30
5, 70956, Note_on_c, 1, 40, 0
5, 71024, Note_on_c, 1, 35, 0
5, 71032, Note_on_c, 1, 52, 61
5, 71364, Note_on_c, 1, 52, 0
5, 71408, Note_on_c, 1, 44, 53
5, 71708, Note_on_c, 1, 44, 0
5, 71788, Note_on_c, 1, 44, 59
5, 72140, Note_on_c, 1, 44, 0
5, 72180, Note_on_c, 1, 45, 47
5, 72508, Note_on_c, 1, 45, 0
5, 72544, Note_on_c, 1, 40, 51
5, 72880, Note_on_c, 1, 40, 0
5, 72924, Note_on_c, 1, 37, 39
5, 73288, Note_on_c, 1, 37, 0
5, 73316, Note_on_c, 1, 34, 54
5, 73664, Note_on_c, 1, 34, 0
5, 73692, Note_on_c, 1, 33, 52
5, 74052, Note_on_c, 1, 33, 0
5, 74088, Note_on_c, 1, 39, 57
5, 74384, Note_on_c, 1, 39, 0
5, 74464, Note_on_c, 1, 38, 59
5, 74748, Note_on_c, 1, 45, 80
5, 74776, Note_on_c, 1, 47, 29
5, 74788, Note_on_c, 1, 38, 0
5, 74804, Note_on_c, 1, 47, 0
5, 74984, Note_on_c, 1, 45, 0
5, 75020, Note_on_c, 1, 42, 60
5, 75060, Note_on_c, 1, 42, 0
5, 75288, Note_on_c, 1, 43, 74
5, 75460, Note_on_c, 1, 43, 0
5, 75520, Note_on_c, 1, 38, 51
5, 75580, Note_on_c, 1, 38, 0
5, 75640, Note_on_c, 1, 34, 63
5, 75944, Note_on_c, 1, 34, 0
5, 76020, Note_on_c, 1, 31, 47
5, 76368, Note_on_c, 1, 31, 0
5, 76380, Note_on_c, 1, 35, 63
5, 76732, Note_on_c, 1, 35, 0
5, 76768, Note_on_c, 1, 36, 63
5, 77012, Note_on_c, 1, 31, 68
5, 77024, Note_on_c, 1, 36, 0
5, 77080, Note_on_c, 1, 31, 0
5, 77136, Note_on_c, 1, 28, 64
5, 77520, Note_on_c, 1, 28, 0
5, 77540, Note_on_c, 1, 29, 45
5, 77852, Note_on_c, 1, 29, 0
5, 77856, Note_on_c, 1, 28, 53
5, 77868, Note_on_c, 1, 27, 36
5, 77884, Note_on_c, 1, 28, 0
5, 77928, Note_on_c, 1, 27, 0
5, 77956, Note_on_c, 1, 34, 23
5, 77972, Note_on_c, 1, 32, 25
5, 78128, Note_on_c, 1, 34, 0
5, 78216, Note_on_c, 1, 32, 0
5, 78216, Note_on_c, 1, 30, 40
5, 78324, Note_on_c, 1, 31, 53
5, 78332, Note_on_c, 1, 30, 0
5, 78600, Note_on_c, 1, 30, 44
5, 78652, Note_on_c, 1, 31, 0
5, 78660, Note_on_c, 1, 30, 0
5, 78700, Note_on_c, 1, 38, 56
5, 78976, Note_on_c, 1, 34, 25
5, 79020, Note_on_c, 1, 38, 0
5, 79024, Note_on_c, 1, 34, 0
5, 79080, Note_on_c, 1, 45, 49
5, 79444, Note_on_c, 1, 37, 48
5, 79476, Note_on_c, 1, 45, 0
5, 79744, Note_on_c, 1, 34, 35
5, 79784, Note_on_c, 1, 37, 0
5, 79840, Note_on_c, 1, 36, 58
5, 79844, Note_on_c, 1, 34, 0
5, 80108, Note_on_c, 1, 50, 73
5, 80200, Note_on_c, 1, 50, 0
5, 80236, Note_on_c, 1, 48, 48
5, 80352, Note_on_c, 1, 36, 0
5, 80528, Note_on_c, 1, 37, 30
5, 80572, Note_on_c, 1, 37, 0
5, 80612, Note_on_c, 1, 48, 0
5, 80624, Note_on_c, 1, 46, 39
5, 80928, Note_on_c, 1, 40, 33
5, 80940, Note_on_c, 1, 46, 0
5, 80984, Note_on_c, 1, 40, 0
5, 80996, Note_on_c, 1, 44, 53
5, 81224, Note_on_c, 1, 44, 0
5, 81268, Note_on_c, 1, 45, 60
5, 81524, Note_on_c, 1, 41, 65
5, 81572, Note_on_c, 1, 41, 0
5, 81632, Note_on_c, 1, 45, 0
5, 81648, Note_on_c, 1, 38, 68
5, 81716, Note_on_c, 1, 38, 0
5, 81780, Note_on_c, 1, 36, 66
5, 82112, Note_on_c, 1, 36, 0
5, 82140, Note_on_c, 1, 33, 60
5, 82512, Note_on_c, 1, 36, 66
5, 82532, Note_on_c, 1, 33, 0
5, 82800, Note_on_c, 1, 33, 55
5, 82804, Note_on_c, 1, 36, 0
5, 82824, Note_on_c, 1, 33, 0
5, 82920, Note_on_c, 1, 34, 59
5, 83336, Note_on_c, 1, 50, 64
5, 83356, Note_on_c, 1, 34, 0
5, 83704, Note_on_c, 1, 50, 0
5, 83704, Note_on_c, 1, 46, 44
5, 83972, Note_on_c, 1, 46, 0
5, 84100, Note_on_c, 1, 34, 61
5, 84440, Note_on_c, 1, 34, 0
5, 84460, Note_on_c, 1, 33, 55
5, 84736, Note_on_c, 1, 36, 38
5, 84776, Note_on_c, 1, 36, 0
5, 84784, Note_on_c, 1, 33, 0
5, 84828, Note_on_c, 1, 45, 59
5, 85384, Note_on_c, 1, 41, 55
5, 85448, Note_on_c, 1, 41, 0
5, 85452, Note_on_c, 1, 45, 0
5, 85608, Note_on_c, 1, 41, 70
5, 85868, Note_on_c, 1, 36, 62
5, 85872, Note_on_c, 1, 41, 0
5, 85920, Note_on_c, 1, 36, 0
5, 85988, Note_on_c, 1, 35, 59
5, 86248, Note_on_c, 1, 38, 43
5, 86288, Note_on_c, 1, 38, 0
5, 86368, Note_on_c, 1, 44, 69
5, 86376, Note_on_c, 1, 35, 0
5, 86744, Note_on_c, 1, 44, 0
5, 86756, Note_on_c, 1, 41, 54
5, 87032, Note_on_c, 1, 35, 43
5, 87056, Note_on_c, 1, 41, 0
5, 87092, Note_on_c, 1, 35, 0
5, 87152, Note_on_c, 1, 47, 51
5, 87464, Note_on_c, 1, 47, 0
5, 87524, Note_on_c, 1, 46, 56
5, 87796, Note_on_c, 1, 38, 38
5, 87840, Note_on_c, 1, 38, 0
5, 87864, Note_on_c, 1, 46, 0
5, 87900, Note_on_c, 1, 43, 52
5, 88240, Note_on_c, 1, 43, 0
5, 88284, Note_on_c, 1, 38, 53
5, 88652, Note_on_c, 1, 38, 0
5, 88664, Note_on_c, 1, 35, 55
5, 89044, Note_on_c, 1, 35, 0
5, 89064, Note_on_c, 1, 36, 58
5, 89316, Note_on_c, 1, 34, 51
5, 89320, Note_on_c, 1, 36, 0
5, 89388, Note_on_c, 1, 34, 0
5, 89440, Note_on_c, 1, 36, 57
5, 89448, Note_on_c, 1, 52, 58
5, 89776, Note_on_c, 1, 52, 0
5, 89800, Note_on_c, 1, 36, 0
5, 89820, Note_on_c, 1, 34, 38
5, 89828, Note_on_c, 1, 50, 46
5, 90092, Note_on_c, 1, 34, 0
5, 90096, Note_on_c, 1, 50, 0
5, 90096, Note_on_c, 1, 36, 69
5, 90160, Note_on_c, 1, 36, 0
5, 90220, Note_on_c, 1, 34, 62
5, 90448, Note_on_c, 1, 34, 0
5, 90480, Note_on_c, 1, 33, 76
5, 90896, Note_on_c, 1, 40, 55
5, 90948, Note_on_c, 1, 40, 0
5, 90968, Note_on_c, 1, 33, 0
5, 91012, Note_on_c, 1, 48, 67
5, 91388, Note_on_c, 1, 48, 0
5, 91412, Note_on_c, 1, 45, 36
5, 91448, Note_on_c, 1, 45, 0
5, 91528, Note_on_c, 1, 40, 71
5, 91616, Note_on_c, 1, 40, 0
5, 91640, Note_on_c, 1, 39, 69
5, 91716, Note_on_c, 1, 39, 0
5, 91776, Note_on_c, 1, 37, 58
5, 92020, Note_on_c, 1, 38, 82
5, 92024, Note_on_c, 1, 37, 0
5, 92420, Note_on_c, 1, 37, 42
5, 92452, Note_on_c, 1, 38, 0
5, 92512, Note_on_c, 1, 37, 0
5, 92512, Note_on_c, 1, 40, 63
5, 92804, Note_on_c, 1, 38, 24
5, 92832, Note_on_c, 1, 38, 0
5, 92864, Note_on_c, 1, 40, 0
5, 92896, Note_on_c, 1, 41, 51
5, 93168, Note_on_c, 1, 37, 36
5, 93212, Note_on_c, 1, 37, 0
5, 93220, Note_on_c, 1, 41, 0
5, 93276, Note_on_c, 1, 42, 45
5, 93644, Note_on_c, 1, 42, 0
5, 93656, Note_on_c, 1, 43, 50
5, 94048, Note_on_c, 1, 38, 48
5, 94092, Note_on_c, 1, 43, 0
5, 94440, Note_on_c, 1, 38, 0
5, 94448, Note_on_c, 1, 48, 51
5, 94828, Note_on_c, 1, 36, 82
5, 94868, Note_on_c, 1, 48, 0
5, 95484, Note_on_c, 1, 34, 30
5, 95516, Note_on_c, 1, 34, 0
5, 95600, Note_on_c, 1, 48, 85
5, 95636, Note_on_c, 1, 36, 0
5, 96240, Note_on_c, 1, 35, 52
5, 96324, Note_on_c, 1, 35, 0
5, 96332, Note_on_c, 1, 48, 0
5, 96364, Note_on_c, 1, 36, 68
5, 97124, Note_on_c, 1, 48, 84
5, 97148, Note_on_c, 1, 36, 0
5, 97784, Note_on_c, 1, 35, 31
5, 97824, Note_on_c, 1, 35, 0
5, 97896, Note_on_c, 1, 36, 60
5, 97904, Note_on_c, 1, 48, 0
5, 98500, Note_on_c, 1, 36, 0
5, 98560, Note_on_c, 1, 36, 54
5, 98640, Note_on_c, 1, 36, 0
5, 98668, Note_on_c, 1, 50, 84
5, 98936, Note_on_c, 1, 38, 85
5, 99096, Note_on_c, 1, 38, 0
5, 99328, Note_on_c, 1, 33, 62
5, 99384, Note_on_c, 1, 33, 0
5, 99396, Note_on_c, 1, 50, 0
5, 99444, Note_on_c, 1, 32, 72
5, 99804, Note_on_c, 1, 32, 0
5, 99828, Note_on_c, 1, 31, 58
5, 100044, Note_on_c, 1, 31, 0
5, 100112, Note_on_c, 1, 31, 54
5, 100220, Note_on_c, 1, 33, 82
5, 100260, Note_on_c, 1, 31, 0
5, 100564, Note_on_c, 1, 33, 0
5, 100584, Note_on_c, 1, 34, 62
5, 100816, Note_on_c, 1, 34, 0
5, 100856, Note_on_c, 1, 34, 58
5, 100948, Note_on_c, 1, 34, 0
5, 100960, Note_on_c, 1, 35, 66
5, 101248, Note_on_c, 1, 34, 31
5, 101324, Note_on_c, 1, 35, 0
5, 101328, Note_on_c, 1, 34, 0
5, 101332, Note_on_c, 1, 36, 64
5, 101640, Note_on_c, 1, 34, 30
5, 101712, Note_on_c, 1, 36, 0
5, 101732, Note_on_c, 1, 45, 64
5, 101816, Note_on_c, 1, 34, 0
5, 102108, Note_on_c, 1, 45, 0
5, 102108, Note_on_c, 1, 43, 54
5, 102368, Note_on_c, 1, 43, 0
5, 102420, Note_on_c, 1, 42, 53
5, 102492, Note_on_c, 1, 42, 0
5, 102508, Note_on_c, 1, 51, 68
5, 102848, Note_on_c, 1, 51, 0
5, 102892, Note_on_c, 1, 50, 39
5, 103176, Note_on_c, 1, 42, 38
5, 103220, Note_on_c, 1, 50, 0
5, 103224, Note_on_c, 1, 42, 0
5, 103260, Note_on_c, 1, 46, 50
5, 103636, Note_on_c, 1, 46, 0
5, 103644, Note_on_c, 1, 43, 34
5, 103932, Note_on_c, 1, 38, 39
5, 103964, Note_on_c, 1, 38, 0
5, 103992, Note_on_c, 1, 43, 0
5, 104024, Note_on_c, 1, 48, 68
5, 104396, Note_on_c, 1, 48, 0
5, 104412, Note_on_c, 1, 43, 58
5, 104688, Note_on_c, 1, 38, 40
5, 104720, Note_on_c, 1, 38, 0
5, 104756, Note_on_c, 1, 43, 0
5, 104804, Note_on_c, 1, 40, 43
5, 105196, Note_on_c, 1, 36, 61
5, 105220, Note_on_c, 1, 40, 0
5, 105440, Note_on_c, 1, 36, 0
5, 105464, Note_on_c, 1, 36, 48
5, 105528, Note_on_c, 1, 36, 0
5, 105576, Note_on_c, 1, 42, 59
5, 105940, Note_on_c, 1, 42, 0
5, 105964, Note_on_c, 1, 41, 55
5, 106000, Note_on_c, 1, 41, 0
5, 106112, Note_on_c, 1, 36, 66
5, 106176, Note_on_c, 1, 36, 0
5, 106220, Note_on_c, 1, 32, 69
5, 106300, Note_on_c, 1, 32, 0
5, 106352, Note_on_c, 1, 33, 66
5, 106700, Note_on_c, 1, 33, 0
5, 106728, Note_on_c, 1, 36, 64
5, 107060, Note_on_c, 1, 36, 0
5, 107116, Note_on_c, 1, 35, 64
5, 107460, Note_on_c, 1, 35, 0
5, 107488, Note_on_c, 1, 34, 53
5, 107772, Note_on_c, 1, 40, 26
5, 107796, Note_on_c, 1, 40, 0
5, 107864, Note_on_c, 1, 50, 57
5, 108024, Note_on_c, 1, 34, 0
5, 108744, Note_on_c, 1, 46, 61
5, 108768, Note_on_c, 1, 50, 0
5, 108800, Note_on_c, 1, 46, 0
5, 108860, Note_on_c, 1, 40, 68
5, 108980, Note_on_c, 1, 40, 0
5, 109004, Note_on_c, 1, 41, 61
5, 109416, Note_on_c, 1, 50, 70
5, 109456, Note_on_c, 1, 41, 0
5, 109800, Note_on_c, 1, 48, 54
5, 109808, Note_on_c, 1, 50, 0
5, 110084, Note_on_c, 1, 41, 39
5, 110156, Note_on_c, 1, 41, 0
5, 110160, Note_on_c, 1, 48, 0
5, 110180, Note_on_c, 1, 45, 51
5, 110460, Note_on_c, 1, 41, 38
5, 110496, Note_on_c, 1, 41, 0
5, 110568, Note_on_c, 1, 45, 0
5, 110568, Note_on_c, 1, 44, 49
5, 110948, Note_on_c, 1, 41, 48
5, 110992, Note_on_c, 1, 44, 0
5, 111324, Note_on_c, 1, 38, 55
5, 111628, Note_on_c, 1, 38, 0
5, 111668, Note_on_c, 1, 41, 0
5, 111712, Note_on_c, 1, 32, 55
5, 112076, Note_on_c, 1, 32, 0
5, 112104, Note_on_c, 1, 31, 62
5, 112312, Note_on_c, 1, 31, 0
5, 112368, Note_on_c, 1, 31, 61
5, 112508, Note_on_c, 1, 33, 74
5, 112540, Note_on_c, 1, 31, 0
5, 112860, Note_on_c, 1, 33, 0
5, 112864, Note_on_c, 1, 34, 64
5, 113064, Note_on_c, 1, 34, 0
5, 113124, Note_on_c, 1, 34, 43
5, 113220, Note_on_c, 1, 34, 0
5, 113248, Note_on_c, 1, 35, 62
5, 113556, Note_on_c, 1, 34, 19
5, 113608, Note_on_c, 1, 34, 0
5, 113608, Note_on_c, 1, 35, 0
5, 113628, Note_on_c, 1, 36, 63
5, 113932, Note_on_c, 1, 34, 21
5, 113984, Note_on_c, 1, 36, 0
5, 114016, Note_on_c, 1, 38, 59
5, 114036, Note_on_c, 1, 34, 0
5, 114284, Note_on_c, 1, 34, 33
5, 114348, Note_on_c, 1, 34, 0
5, 114360, Note_on_c, 1, 38, 0
5, 114392, Note_on_c, 1, 40, 53
5, 114676, Note_on_c, 1, 34, 37
5, 114744, Note_on_c, 1, 34, 0
5, 114756, Note_on_c, 1, 40, 0
5, 114776, Note_on_c, 1, 44, 51
5, 115080, Note_on_c, 1, 34, 23
5, 115108, Note_on_c, 1, 34, 0
5, 115152, Note_on_c, 1, 44, 0
5, 115180, Note_on_c, 1, 43, 53
5, 115456, Note_on_c, 1, 34, 37
5, 115532, Note_on_c, 1, 43, 0
5, 115556, Note_on_c, 1, 34, 0
5, 115580, Note_on_c, 1, 55, 63
5, 115904, Note_on_c, 1, 55, 0
5, 115940, Note_on_c, 1, 52, 44
5, 116288, Note_on_c, 1, 52, 0
5, 116328, Note_on_c, 1, 51, 48
5, 116684, Note_on_c, 1, 51, 0
5, 116704, Note_on_c, 1, 50, 50
5, 116964, Note_on_c, 1, 45, 60
5, 116996, Note_on_c, 1, 50, 0
5, 117008, Note_on_c, 1, 45, 0
5, 117084, Note_on_c, 1, 42, 53
5, 117464, Note_on_c, 1, 38, 58
5, 117472, Note_on_c, 1, 42, 0
5, 117832, Note_on_c, 1, 38, 0
5, 117852, Note_on_c, 1, 36, 60
5, 118188, Note_on_c, 1, 36, 0
5, 118240, Note_on_c, 1, 35, 60
5, 118636, Note_on_c, 1, 42, 53
5, 118712, Note_on_c, 1, 35, 0
5, 119032, Note_on_c, 1, 40, 47
5, 119336, Note_on_c, 1, 42, 0
5, 119344, Note_on_c, 1, 40, 0
5, 119388, Note_on_c, 1, 39, 51
5, 119784, Note_on_c, 1, 39, 0
5, 119792, Note_on_c, 1, 40, 52
5, 120072, Note_on_c, 1, 39, 39
5, 120128, Note_on_c, 1, 40, 0
5, 120180, Note_on_c, 1, 52, 58
5, 120184, Note_on_c, 1, 39, 0
5, 120532, Note_on_c, 1, 52, 0
5, 120560, Note_on_c, 1, 47, 39
5, 120812, Note_on_c, 1, 39, 42
5, 120896, Note_on_c, 1, 47, 0
5, 120916, Note_on_c, 1, 39, 0
5, 120932, Note_on_c, 1, 47, 33
5, 121212, Note_on_c, 1, 39, 33
5, 121240, Note_on_c, 1, 39, 0
5, 121264, Note_on_c, 1, 47, 0
5, 121320, Note_on_c, 1, 49, 59
5, 121676, Note_on_c, 1, 49, 0
5, 121736, Note_on_c, 1, 45, 37
5, 122084, Note_on_c, 1, 40, 51
5, 122392, Note_on_c, 1, 40, 0
5, 122452, Note_on_c, 1, 33, 59
5, 122816, Note_on_c, 1, 33, 0
5, 122824, Note_on_c, 1, 45, 0
5, 122836, Note_on_c, 1, 39, 67
5, 123252, Note_on_c, 1, 51, 63
5, 123296, Note_on_c, 1, 39, 0
5, 123528, Note_on_c, 1, 38, 35
5, 123564, Note_on_c, 1, 38, 0
5, 123596, Note_on_c, 1, 51, 0
5, 123636, Note_on_c, 1, 50, 44
5, 123884, Note_on_c, 1, 38, 62
5, 123936, Note_on_c, 1, 38, 0
5, 123948, Note_on_c, 1, 50, 0
5, 124008, Note_on_c, 1, 42, 55
5, 124348, Note_on_c, 1, 42, 0
5, 124400, Note_on_c, 1, 43, 58
5, 124748, Note_on_c, 1, 43, 0
5, 124768, Note_on_c, 1, 32, 45
5, 125152, Note_on_c, 1, 32, 0
5, 125156, Note_on_c, 1, 31, 60
5, 125532, Note_on_c, 1, 31, 0
5, 125544, Note_on_c, 1, 43, 76
5, 125916, Note_on_c, 1, 43, 0
5, 125936, Note_on_c, 1, 36, 63
5, 126224, Note_on_c, 1, 43, 42
5, 126256, Note_on_c, 1, 43, 0
5, 126320, Note_on_c, 1, 50, 73
5, 126360, Note_on_c, 1, 36, 0
5, 126688, Note_on_c, 1, 50, 0
5, 126704, Note_on_c, 1, 48, 57
5, 127092, Note_on_c, 1, 32, 76
5, 127128, Note_on_c, 1, 48, 0
5, 127460, Note_on_c, 1, 31, 66
5, 127472, Note_on_c, 1, 32, 0
5, 127740, Note_on_c, 1, 32, 55
5, 127792, Note_on_c, 1, 32, 0
5, 127828, Note_on_c, 1, 31, 0
5, 127852, Note_on_c, 1, 44, 60
5, 128244, Note_on_c, 1, 43, 50
5, 128320, Note_on_c, 1, 44, 0
5, 128600, Note_on_c, 1, 43, 0
5, 128612, Note_on_c, 1, 35, 78
5, 129016, Note_on_c, 1, 50, 80
5, 129052, Note_on_c, 1, 35, 0
5, 129356, Note_on_c, 1, 50, 0
5, 129388, Note_on_c, 1, 48, 70
5, 129756, Note_on_c, 1, 48, 0
5, 129780, Note_on_c, 1, 43, 57
5, 130112, Note_on_c, 1, 43, 0
5, 130172, Note_on_c, 1, 40, 62
5, 130508, Note_on_c, 1, 40, 0
5, 130540, Note_on_c, 1, 41, 62
5, 130896, Note_on_c, 1, 41, 0
5, 130912, Note_on_c, 1, 36, 56
5, 131272, Note_on_c, 1, 36, 0
5, 131284, Note_on_c, 1, 33, 60
5, 131572, Note_on_c, 1, 41, 27
5, 131600, Note_on_c, 1, 41, 0
5, 131644, Note_on_c, 1, 33, 0
5, 131676, Note_on_c, 1, 46, 71
5, 131952, Note_on_c, 1, 36, 25
5, 131996, Note_on_c, 1, 36, 0
5, 132068, Note_on_c, 1, 41, 49
5, 132108, Note_on_c, 1, 46, 0
5, 132352, Note_on_c, 1, 36, 35
5, 132392, Note_on_c, 1, 36, 0
5, 132404, Note_on_c, 1, 41, 0
5, 132448, Note_on_c, 1, 38, 51
5, 132812, Note_on_c, 1, 38, 0
5, 132828, Note_on_c, 1, 34, 64
5, 133188, Note_on_c, 1, 34, 0
5, 133200, Note_on_c, 1, 32, 59
5, 133544, Note_on_c, 1, 32, 0
5, 133592, Note_on_c, 1, 33, 64
5, 133984, Note_on_c, 1, 33, 0
5, 133996, Note_on_c, 1, 36, 55
5, 134380, Note_on_c, 1, 41, 37
5, 134388, Note_on_c, 1, 36, 0
5, 134672, Note_on_c, 1, 36, 31
5, 134752, Note_on_c, 1, 41, 0
5, 134764, Note_on_c, 1, 45, 60
5, 134776, Note_on_c, 1, 36, 0
5, 135108, Note_on_c, 1, 45, 0
5, 135152, Note_on_c, 1, 44, 44
5, 135412, Note_on_c, 1, 44, 0
5, 135432, Note_on_c, 1, 50, 62
5, 135508, Note_on_c, 1, 50, 0
5, 135544, Note_on_c, 1, 47, 39
5, 135824, Note_on_c, 1, 36, 39
5, 135856, Note_on_c, 1, 47, 0
5, 135864, Note_on_c, 1, 36, 0
5, 135916, Note_on_c, 1, 44, 48
5, 136140, Note_on_c, 1, 44, 0
5, 136192, Note_on_c, 1, 36, 51
5, 136264, Note_on_c, 1, 36, 0
5, 136312, Note_on_c, 1, 42, 50
5, 136528, Note_on_c, 1, 42, 0
5, 136560, Note_on_c, 1, 43, 61
5, 136824, Note_on_c, 1, 43, 0
5, 136832, Note_on_c, 1, 38, 50
5, 136896, Note_on_c, 1, 38, 0
5, 136948, Note_on_c, 1, 34, 57
5, 137016, Note_on_c, 1, 34, 0
5, 137080, Note_on_c, 1, 33, 59
5, 137408, Note_on_c, 1, 33, 0
5, 137448, Note_on_c, 1, 31, 62
5, 137816, Note_on_c, 1, 38, 53
5, 137828, Note_on_c, 1, 31, 0
5, 138196, Note_on_c, 1, 38, 0
5, 138220, Note_on_c, 1, 36, 55
5, 138592, Note_on_c, 1, 36, 0
5, 138600, Note_on_c, 1, 40, 51
5, 138980, Note_on_c, 1, 40, 0
5, 138980, Note_on_c, 1, 48, 66
5, 139260, Note_on_c, 1, 36, 49
5, 139296, Note_on_c, 1, 48, 0
5, 139312, Note_on_c, 1, 36, 0
5, 139368, Note_on_c, 1, 46, 39
5, 139748, Note_on_c, 1, 45, 49
5, 139784, Note_on_c, 1, 46, 0
5, 140000, Note_on_c, 1, 40, 57
5, 140068, Note_on_c, 1, 40, 0
5, 140124, Note_on_c, 1, 36, 62
5, 140436, Note_on_c, 1, 45, 0
5, 140452, Note_on_c, 1, 36, 0
5, 140496, Note_on_c, 1, 33, 54
5, 140844, Note_on_c, 1, 33, 0
5, 140884, Note_on_c, 1, 37, 53
5, 141228, Note_on_c, 1, 37, 0
5, 141272, Note_on_c, 1, 38, 55
5, 141628, Note_on_c, 1, 38, 0
5, 141660, Note_on_c, 1, 40, 53
5, 141956, Note_on_c, 1, 38, 30
5, 142028, Note_on_c, 1, 40, 0
5, 142036, Note_on_c, 1, 38, 0
5, 142048, Note_on_c, 1, 41, 48
5, 142328, Note_on_c, 1, 38, 43
5, 142380, Note_on_c, 1, 38, 0
5, 142380, Note_on_c, 1, 41, 0
5, 142440, Note_on_c, 1, 42, 69
5, 142676, Note_on_c, 1, 42, 0
5, 142692, Note_on_c, 1, 43, 70
5, 142956, Note_on_c, 1, 43, 0
5, 142980, Note_on_c, 1, 38, 54
5, 143036, Note_on_c, 1, 38, 0
5, 143076, Note_on_c, 1, 34, 58
5, 143160, Note_on_c, 1, 34, 0
5, 143212, Note_on_c, 1, 33, 71
5, 143560, Note_on_c, 1, 33, 0
5, 143600, Note_on_c, 1, 31, 64
5, 143864, Note_on_c, 1, 40, 64
5, 143892, Note_on_c, 1, 40, 0
5, 143948, Note_on_c, 1, 31, 0
5, 143976, Note_on_c, 1, 50, 87
5, 144296, Note_on_c, 1, 50, 0
5, 144352, Note_on_c, 1, 46, 56
5, 144648, Note_on_c, 1, 38, 24
5, 144660, Note_on_c, 1, 46, 0
5, 144676, Note_on_c, 1, 38, 0
5, 144740, Note_on_c, 1, 43, 42
5, 145004, Note_on_c, 1, 36, 51
5, 145016, Note_on_c, 1, 43, 0
5, 145040, Note_on_c, 1, 36, 0
5, 145124, Note_on_c, 1, 48, 78
5, 145376, Note_on_c, 1, 36, 55
5, 145408, Note_on_c, 1, 48, 0
5, 145412, Note_on_c, 1, 36, 0
5, 145492, Note_on_c, 1, 43, 57
5, 145772, Note_on_c, 1, 36, 44
5, 145816, Note_on_c, 1, 36, 0
5, 145820, Note_on_c, 1, 43, 0
5, 145888, Note_on_c, 1, 41, 37
5, 146280, Note_on_c, 1, 36, 58
5, 146564, Note_on_c, 1, 36, 0
5, 146652, Note_on_c, 1, 41, 0
5, 146668, Note_on_c, 1, 36, 66
5, 147008, Note_on_c, 1, 36, 0
5, 147036, Note_on_c, 1, 34, 54
5, 147388, Note_on_c, 1, 34, 0
5, 147412, Note_on_c, 1, 33, 60
5, 147708, Note_on_c, 1, 34, 56
5, 147728, Note_on_c, 1, 33, 0
5, 147776, Note_on_c, 1, 34, 0
5, 147804, Note_on_c, 1, 39, 59
5, 148068, Note_on_c, 1, 34, 35
5, 148100, Note_on_c, 1, 39, 0
5, 148196, Note_on_c, 1, 34, 0
5, 148204, Note_on_c, 1, 38, 51
5, 148336, Note_on_c, 1, 45, 58
5, 148380, Note_on_c, 1, 38, 0
5, 148416, Note_on_c, 1, 45, 0
5, 148448, Note_on_c, 1, 42, 56
5, 148492, Note_on_c, 1, 42, 0
5, 148596, Note_on_c, 1, 45, 36
5, 148780, Note_on_c, 1, 45, 0
5, 148848, Note_on_c, 1, 42, 34
5, 148908, Note_on_c, 1, 42, 0
5, 148976, Note_on_c, 1, 43, 41
5, 149008, Note_on_c, 1, 43, 0
5, 149088, Note_on_c, 1, 38, 55
5, 149144, Note_on_c, 1, 38, 0
5, 149220, Note_on_c, 1, 34, 52
5, 149312, Note_on_c, 1, 34, 0
5, 149368, Note_on_c, 1, 33, 55
5, 149372, Note_on_c, 1, 35, 55
5, 149428, Note_on_c, 1, 35, 0
5, 149728, Note_on_c, 1, 33, 0
5, 149740, Note_on_c, 1, 31, 58
5, 150108, Note_on_c, 1, 31, 0
5, 150128, Note_on_c, 1, 38, 53
5, 150216, Note_on_c, 1, 38, 0
5, 150392, Note_on_c, 1, 35, 58
5, 150472, Note_on_c, 1, 35, 0
5, 150512, Note_on_c, 1, 36, 51
5, 150788, Note_on_c, 1, 34, 48
5, 150844, Note_on_c, 1, 36, 0
5, 150876, Note_on_c, 1, 50, 55
5, 150880, Note_on_c, 1, 34, 0
5, 151224, Note_on_c, 1, 50, 0
5, 151264, Note_on_c, 1, 48, 41
5, 151540, Note_on_c, 1, 42, 38
5, 151612, Note_on_c, 1, 42, 0
5, 151632, Note_on_c, 1, 48, 0
5, 151644, Note_on_c, 1, 44, 51
5, 151932, Note_on_c, 1, 42, 32
5, 151988, Note_on_c, 1, 44, 0
5, 152024, Note_on_c, 1, 42, 0
5, 152040, Note_on_c, 1, 43, 45
5, 152168, Note_on_c, 1, 57, 72
5, 152376, Note_on_c, 1, 57, 0
5, 152392, Note_on_c, 1, 43, 0
5, 152456, Note_on_c, 1, 53, 48
5, 152696, Note_on_c, 1, 53, 0
5, 152712, Note_on_c, 1, 50, 54
5, 152936, Note_on_c, 1, 50, 0
5, 152976, Note_on_c, 1, 46, 40
5, 153036, Note_on_c, 1, 46, 0
5, 153104, Note_on_c, 1, 43, 47
5, 153136, Note_on_c, 1, 43, 0
5, 153216, Note_on_c, 1, 43, 40
5, 153372, Note_on_c, 1, 43, 0
5, 153448, Note_on_c, 1, 41, 54
5, 153476, Note_on_c, 1, 41, 0
5, 153544, Note_on_c, 1, 36, 38
5, 153916, Note_on_c, 1, 36, 0
5, 153952, Note_on_c, 1, 38, 55
5, 154228, Note_on_c, 1, 36, 50
5, 154264, Note_on_c, 1, 36, 0
5, 154276, Note_on_c, 1, 38, 0
5, 154328, Note_on_c, 1, 39, 44
5, 154612, Note_on_c, 1, 36, 47
5, 154656, Note_on_c, 1, 36, 0
5, 154704, Note_on_c, 1, 39, 0
5, 154708, Note_on_c, 1, 40, 64
5, 155076, Note_on_c, 1, 40, 0
5, 155120, Note_on_c, 1, 41, 58
5, 155172, Note_on_c, 1, 41, 0
5, 155256, Note_on_c, 1, 50, 44
5, 155476, Note_on_c, 1, 50, 0
5, 155484, Note_on_c, 1, 36, 24
5, 155512, Note_on_c, 1, 36, 0
5, 155512, Note_on_c, 1, 48, 60
5, 155788, Note_on_c, 1, 48, 0
5, 155788, Note_on_c, 1, 45, 58
5, 156044, Note_on_c, 1, 41, 42
5, 156056, Note_on_c, 1, 45, 0
5, 156080, Note_on_c, 1, 41, 0
5, 156164, Note_on_c, 1, 36, 60
5, 156200, Note_on_c, 1, 36, 0
5, 156300, Note_on_c, 1, 36, 80
5, 156532, Note_on_c, 1, 36, 0
5, 156556, Note_on_c, 1, 35, 70
5, 156632, Note_on_c, 1, 35, 0
5, 156684, Note_on_c, 1, 34, 47
5, 156932, Note_on_c, 1, 39, 44
5, 156960, Note_on_c, 1, 39, 0
5, 156984, Note_on_c, 1, 38, 26
5, 156992, Note_on_c, 1, 34, 0
5, 157024, Note_on_c, 1, 38, 0
5, 157060, Note_on_c, 1, 50, 74
5, 157316, Note_on_c, 1, 38, 32
5, 157360, Note_on_c, 1, 38, 0
5, 157384, Note_on_c, 1, 50, 0
5, 157420, Note_on_c, 1, 46, 39
5, 157660, Note_on_c, 1, 39, 42
5, 157704, Note_on_c, 1, 39, 0
5, 157732, Note_on_c, 1, 46, 0
5, 157784, Note_on_c, 1, 44, 47
5, 158044, Note_on_c, 1, 44, 0
5, 158064, Note_on_c, 1, 45, 62
5, 158480, Note_on_c, 1, 41, 57
5, 158504, Note_on_c, 1, 45, 0
5, 158520, Note_on_c, 1, 41, 0
5, 158616, Note_on_c, 1, 36, 64
5, 158944, Note_on_c, 1, 36, 0
5, 158964, Note_on_c, 1, 33, 56
5, 159324, Note_on_c, 1, 41, 59
5, 159328, Note_on_c, 1, 33, 0
5, 159644, Note_on_c, 1, 36, 44
5, 159672, Note_on_c, 1, 41, 0
5, 159688, Note_on_c, 1, 36, 0
5, 159732, Note_on_c, 1, 44, 52
5, 160084, Note_on_c, 1, 44, 0
5, 160120, Note_on_c, 1, 41, 47
5, 160472, Note_on_c, 1, 41, 0
5, 160500, Note_on_c, 1, 38, 48
5, 160868, Note_on_c, 1, 32, 58
5, 160880, Note_on_c, 1, 38, 0
5, 161200, Note_on_c, 1, 32, 0
5, 161256, Note_on_c, 1, 31, 55
5, 161636, Note_on_c, 1, 31, 0
5, 161640, Note_on_c, 1, 38, 62
5, 162016, Note_on_c, 1, 43, 58
5, 162048, Note_on_c, 1, 38, 0
5, 162380, Note_on_c, 1, 43, 0
5, 162412, Note_on_c, 1, 38, 66
5, 162748, Note_on_c, 1, 38, 0
5, 162788, Note_on_c, 1, 36, 60
5, 163052, Note_on_c, 1, 43, 32
5, 163100, Note_on_c, 1, 43, 0
5, 163172, Note_on_c, 1, 50, 60
5, 163244, Note_on_c, 1, 36, 0
5, 163520, Note_on_c, 1, 50, 0
5, 163556, Note_on_c, 1, 48, 57
5, 163808, Note_on_c, 1, 36, 54
5, 163840, Note_on_c, 1, 36, 0
5, 163912, Note_on_c, 1, 48, 0
5, 163952, Note_on_c, 1, 46, 38
5, 164332, Note_on_c, 1, 45, 55
5, 164724, Note_on_c, 1, 38, 70
5, 164832, Note_on_c, 1, 46, 0
5, 164884, Note_on_c, 1, 45, 0
5, 165096, Note_on_c, 1, 38, 0
5, 165108, Note_on_c, 1, 40, 57
5, 165444, Note_on_c, 1, 40, 0
5, 165492, Note_on_c, 1, 34, 56
5, 165744, Note_on_c, 1, 34, 0
5, 165752, Note_on_c, 1, 37, 51
5, 165816, Note_on_c, 1, 37, 0
5, 165864, Note_on_c, 1, 38, 68
5, 166144, Note_on_c, 1, 34, 29
5, 166148, Note_on_c, 1, 37, 34
5, 166208, Note_on_c, 1, 37, 0
5, 166208, Note_on_c, 1, 38, 0
5, 166228, Note_on_c, 1, 34, 0
5, 166252, Note_on_c, 1, 50, 54
5, 166584, Note_on_c, 1, 50, 0
5, 166628, Note_on_c, 1, 45, 54
5, 166916, Note_on_c, 1, 38, 28
5, 166960, Note_on_c, 1, 38, 0
5, 166976, Note_on_c, 1, 45, 0
5, 167004, Note_on_c, 1, 42, 46
5, 167244, Note_on_c, 1, 42, 0
5, 167400, Note_on_c, 1, 35, 55
5, 167792, Note_on_c, 1, 35, 0
5, 167792, Note_on_c, 1, 47, 69
5, 168144, Note_on_c, 1, 47, 0
5, 168192, Note_on_c, 1, 42, 51
5, 168544, Note_on_c, 1, 42, 0
5, 168556, Note_on_c, 1, 39, 52
5, 168928, Note_on_c, 1, 40, 57
5, 168932, Note_on_c, 1, 39, 0
5, 169320, Note_on_c, 1, 52, 75
5, 169664, Note_on_c, 1, 52, 0
5, 169700, Note_on_c, 1, 50, 58
5, 169744, Note_on_c, 1, 40, 0
5, 169996, Note_on_c, 1, 40, 24
5, 170024, Note_on_c, 1, 50, 0
5, 170068, Note_on_c, 1, 46, 55
5, 170076, Note_on_c, 1, 40, 0
5, 170460, Note_on_c, 1, 45, 57
5, 170552, Note_on_c, 1, 46, 0
5, 170856, Note_on_c, 1, 45, 0
5, 170856, Note_on_c, 1, 47, 49
5, 171204, Note_on_c, 1, 47, 0
5, 171244, Note_on_c, 1, 49, 42
5, 171624, Note_on_c, 1, 39, 68
5, 171680, Note_on_c, 1, 49, 0
5, 172000, Note_on_c, 1, 39, 0
5, 172012, Note_on_c, 1, 45, 49
5, 172380, Note_on_c, 1, 51, 60
5, 172404, Note_on_c, 1, 45, 0
5, 172692, Note_on_c, 1, 38, 44
5, 172720, Note_on_c, 1, 51, 0
5, 172724, Note_on_c, 1, 38, 0
5, 172792, Note_on_c, 1, 50, 63
5, 173048, Note_on_c, 1, 38, 56
5, 173068, Note_on_c, 1, 50, 0
5, 173104, Note_on_c, 1, 38, 0
5, 173168, Note_on_c, 1, 42, 44
5, 173376, Note_on_c, 1, 42, 0
5, 173432, Note_on_c, 1, 43, 57
5, 173684, Note_on_c, 1, 43, 0
5, 173692, Note_on_c, 1, 38, 58
5, 173760, Note_on_c, 1, 38, 0
5, 173800, Note_on_c, 1, 34, 62
5, 173876, Note_on_c, 1, 34, 0
5, 173928, Note_on_c, 1, 33, 62
5, 174300, Note_on_c, 1, 33, 0
5, 174316, Note_on_c, 1, 31, 63
5, 174664, Note_on_c, 1, 31, 0
5, 174700, Note_on_c, 1, 38, 54
5, 175048, Note_on_c, 1, 38, 0
5, 175076, Note_on_c, 1, 36, 64
5, 175200, Note_on_c, 1, 36, 0
5, 175212, Note_on_c, 1, 52, 68
5, 175284, Note_on_c, 1, 52, 0
5, 175328, Note_on_c, 1, 51, 60
5, 175380, Note_on_c, 1, 51, 0
5, 175472, Note_on_c, 1, 50, 62
5, 175756, Note_on_c, 1, 36, 35
5, 175792, Note_on_c, 1, 36, 0
5, 175828, Note_on_c, 1, 50, 0
5, 175852, Note_on_c, 1, 48, 47
5, 176132, Note_on_c, 1, 36, 43
5, 176176, Note_on_c, 1, 48, 0
5, 176180, Note_on_c, 1, 36, 0
5, 176232, Note_on_c, 1, 45, 38
5, 176452, Note_on_c, 1, 45, 0
5, 176512, Note_on_c, 1, 42, 62
5, 176564, Note_on_c, 1, 42, 0
5, 176620, Note_on_c, 1, 46, 55
5, 176848, Note_on_c, 1, 46, 0
5, 176892, Note_on_c, 1, 42, 37
5, 176948, Note_on_c, 1, 42, 0
5, 176992, Note_on_c, 1, 45, 59
5, 177276, Note_on_c, 1, 38, 41
5, 177308, Note_on_c, 1, 38, 0
5, 177352, Note_on_c, 1, 45, 0
5, 177384, Note_on_c, 1, 43, 46
5, 177660, Note_on_c, 1, 43, 0
5, 177664, Note_on_c, 1, 38, 40
5, 177748, Note_on_c, 1, 38, 0
5, 177764, Note_on_c, 1, 35, 59
5, 178144, Note_on_c, 1, 35, 0
5, 178148, Note_on_c, 1, 36, 54
5, 178420, Note_on_c, 1, 34, 25
5, 178492, Note_on_c, 1, 34, 0
5, 178496, Note_on_c, 1, 36, 0
5, 178508, Note_on_c, 1, 38, 47
5, 178900, Note_on_c, 1, 39, 50
5, 178928, Note_on_c, 1, 38, 0
5, 179280, Note_on_c, 1, 39, 0
5, 179288, Note_on_c, 1, 40, 58
5, 179564, Note_on_c, 1, 39, 28
5, 179648, Note_on_c, 1, 40, 0
5, 179660, Note_on_c, 1, 39, 0
5, 179684, Note_on_c, 1, 41, 45
5, 179952, Note_on_c, 1, 39, 33
5, 180056, Note_on_c, 1, 41, 0
5, 180060, Note_on_c, 1, 50, 60
5, 180116, Note_on_c, 1, 39, 0
5, 180400, Note_on_c, 1, 50, 0
5, 180448, Note_on_c, 1, 48, 51
5, 180828, Note_on_c, 1, 48, 0
5, 180840, Note_on_c, 1, 47, 57
5, 181196, Note_on_c, 1, 47, 0
5, 181224, Note_on_c, 1, 46, 46
5, 181608, Note_on_c, 1, 41, 52
5, 181680, Note_on_c, 1, 46, 0
5, 181992, Note_on_c, 1, 38, 51
5, 182000, Note_on_c, 1, 41, 0
5, 182316, Note_on_c, 1, 38, 0
5, 182352, Note_on_c, 1, 34, 53
5, 182756, Note_on_c, 1, 34, 0
5, 182760, Note_on_c, 1, 33, 53
5, 183152, Note_on_c, 1, 45, 57
5, 183200, Note_on_c, 1, 33, 0
5, 183540, Note_on_c, 1, 41, 49
5, 183544, Note_on_c, 1, 45, 0
5, 183872, Note_on_c, 1, 41, 0
5, 183924, Note_on_c, 1, 48, 57
5, 184276, Note_on_c, 1, 48, 0
5, 184312, Note_on_c, 1, 44, 45
5, 184604, Note_on_c, 1, 41, 43
5, 184644, Note_on_c, 1, 41, 0
5, 184648, Note_on_c, 1, 44, 0
5, 184692, Note_on_c, 1, 50, 52
5, 185084, Note_on_c, 1, 44, 38
5, 185104, Note_on_c, 1, 50, 0
5, 185344, Note_on_c, 1, 39, 46
5, 185356, Note_on_c, 1, 44, 0
5, 185416, Note_on_c, 1, 39, 0
5, 185460, Note_on_c, 1, 42, 55
5, 185720, Note_on_c, 1, 42, 0
5, 185724, Note_on_c, 1, 43, 64
5, 186000, Note_on_c, 1, 38, 50
5, 186076, Note_on_c, 1, 38, 0
5, 186088, Note_on_c, 1, 43, 0
5, 186124, Note_on_c, 1, 34, 49
5, 186212, Note_on_c, 1, 34, 0
5, 186248, Note_on_c, 1, 38, 67
5, 186580, Note_on_c, 1, 38, 0
5, 186596, Note_on_c, 1, 34, 56
5, 186976, Note_on_c, 1, 34, 0
5, 186980, Note_on_c, 1, 35, 64
5, 187260, Note_on_c, 1, 34, 32
5, 187312, Note_on_c, 1, 35, 0
5, 187352, Note_on_c, 1, 34, 0
5, 187356, Note_on_c, 1, 36, 57
5, 187648, Note_on_c, 1, 34, 33
5, 187692, Note_on_c, 1, 36, 0
5, 187760, Note_on_c, 1, 36, 62
5, 187772, Note_on_c, 1, 34, 0
5, 188084, Note_on_c, 1, 36, 0
5, 188120, Note_on_c, 1, 34, 52
5, 188440, Note_on_c, 1, 34, 0
5, 188500, Note_on_c, 1, 34, 59
5, 188840, Note_on_c, 1, 34, 0
5, 188872, Note_on_c, 1, 33, 60
5, 189260, Note_on_c, 1, 40, 76
5, 189276, Note_on_c, 1, 33, 0
5, 189652, Note_on_c, 1, 45, 77
5, 189656, Note_on_c, 1, 40, 0
5, 189892, Note_on_c, 1, 45, 0
5, 189924, Note_on_c, 1, 40, 58
5, 190000, Note_on_c, 1, 40, 0
5, 190056, Note_on_c, 1, 39, 51
5, 190316, Note_on_c, 1, 39, 0
5, 190336, Note_on_c, 1, 38, 73
5, 190716, Note_on_c, 1, 38, 0
5, 190720, Note_on_c, 1, 37, 46
5, 190808, Note_on_c, 1, 37, 0
5, 190816, Note_on_c, 1, 40, 61
5, 191180, Note_on_c, 1, 40, 0
5, 191196, Note_on_c, 1, 41, 62
5, 191492, Note_on_c, 1, 39, 44
5, 191524, Note_on_c, 1, 41, 0
5, 191584, Note_on_c, 1, 39, 0
5, 191596, Note_on_c, 1, 42, 58
5, 191824, Note_on_c, 1, 42, 0
5, 191872, Note_on_c, 1, 43, 73
5, 191960, Note_on_c, 1, 43, 0
5, 192256, Note_on_c, 1, 38, 89
5, 192708, Note_on_c, 1, 38, 0
5, 192768, Note_on_c, 1, 34, 56
5, 192968, Note_on_c, 1, 34, 0
5, 193128, Note_on_c, 1, 35, 60
5, 193408, Note_on_c, 1, 34, 33
5, 193460, Note_on_c, 1, 35, 0
5, 193512, Note_on_c, 1, 34, 0
5, 193536, Note_on_c, 1, 36, 43
5, 193836, Note_on_c, 1, 34, 36
5, 193888, Note_on_c, 1, 36, 0
5, 193920, Note_on_c, 1, 48, 69
5, 193992, Note_on_c, 1, 34, 0
5, 194184, Note_on_c, 1, 48, 0
5, 194308, Note_on_c, 1, 48, 61
5, 194408, Note_on_c, 1, 48, 0
5, 194548, Note_on_c, 1, 39, 48
5, 194628, Note_on_c, 1, 39, 0
5, 194680, Note_on_c, 1, 40, 46
5, 194872, Note_on_c, 1, 40, 0
5, 194940, Note_on_c, 1, 41, 53
5, 195152, Note_on_c, 1, 41, 0
5, 195192, Note_on_c, 1, 36, 68
5, 195252, Note_on_c, 1, 36, 0
5, 195320, Note_on_c, 1, 32, 63
5, 195392, Note_on_c, 1, 32, 0
5, 195440, Note_on_c, 1, 33, 60
5, 195784, Note_on_c, 1, 33, 0
5, 195824, Note_on_c, 1, 34, 47
5, 196076, Note_on_c, 1, 34, 0
5, 196196, Note_on_c, 1, 35, 48
5, 196392, Note_on_c, 1, 35, 0
5, 196584, Note_on_c, 1, 36, 47
5, 197220, Note_on_c, 1, 36, 0
5, 197240, Note_on_c, 1, 41, 48
5, 198732, Note_on_c, 1, 41, 0
5, 198732, End_track
6, 0, Start_track
6, 0, Title_t, "Guitar"
6, 0, Control_c, 2, 0, 0
6, 0, Control_c, 2, 7, 65
6, 0, Program_c, 2, 24
6, 1536, Note_on_c, 2, 58, 28
6, 1536, Note_on_c, 2, 53, 32
6, 1536, Note_on_c, 2, 62, 39
6, 1536, Note_on_c, 2, 57, 34
6, 1708, Note_on_c, 2, 62, 0
6, 1720, Note_on_c, 2, 53, 0
6, 1724, Note_on_c, 2, 57, 0
6, 1752, Note_on_c, 2, 58, 0
6, 1920, Note_on_c, 2, 58, 17
6, 1920, Note_on_c, 2, 62, 24
6, 1920, Note_on_c, 2, 53, 16
6, 1920, Note_on_c, 2, 57, 28
6, 2096, Note_on_c, 2, 62, 0
6, 2108, Note_on_c, 2, 57, 0
6, 2108, Note_on_c, 2, 53, 0
6, 2128, Note_on_c, 2, 58, 0
6, 2304, Note_on_c, 2, 58, 17
6, 2304, Note_on_c, 2, 57, 24
6, 2304, Note_on_c, 2, 62, 14
6, 2304, Note_on_c, 2, 53, 13
6, 2520, Note_on_c, 2, 62, 0
6, 2544, Note_on_c, 2, 53, 0
6, 2556, Note_on_c, 2, 57, 0
6, 2568, Note_on_c, 2, 58, 0
6, 2688, Note_on_c, 2, 53, 24
6, 2688, Note_on_c, 2, 58, 25
6, 2688, Note_on_c, 2, 62, 32
6, 2688, Note_on_c, 2, 57, 36
6, 2920, Note_on_c, 2, 57, 0
6, 2936, Note_on_c, 2, 53, 0
6, 2952, Note_on_c, 2, 62, 0
6, 2964, Note_on_c, 2, 58, 0
6, 3072, Note_on_c, 2, 58, 35
6, 3072, Note_on_c, 2, 52, 32
6, 3072, Note_on_c, 2, 62, 17
6, 3204, Note_on_c, 2, 52, 0
6, 3256, Note_on_c, 2, 62, 0
6, 3264, Note_on_c, 2, 58, 0
6, 3456, Note_on_c, 2, 62, 27
6, 3456, Note_on_c, 2, 58, 25
6, 3456, Note_on_c, 2, 65, 29
6, 3456, Note_on_c, 2, 57, 22
6, 3616, Note_on_c, 2, 62, 0
6, 3624, Note_on_c, 2, 58, 0
6, 3636, Note_on_c, 2, 65, 0
6, 3676, Note_on_c, 2, 57, 0
6, 3840, Note_on_c, 2, 69, 55
6, 3840, Note_on_c, 2, 58, 25
6, 3840, Note_on_c, 2, 62, 35
6, 3840, Note_on_c, 2, 65, 38
6, 4040, Note_on_c, 2, 62, 0
6, 4068, Note_on_c, 2, 65, 0
6, 4076, Note_on_c, 2, 58, 0
6, 4100, Note_on_c, 2, 69, 0
6, 4224, Note_on_c, 2, 58, 31
6, 4224, Note_on_c, 2, 67, 41
6, 4392, Note_on_c, 2, 58, 0
6, 4416, Note_on_c, 2, 67, 0
6, 4480, Note_on_c, 2, 69, 68
6, 4480, Note_on_c, 2, 62, 62
6, 4480, Note_on_c, 2, 58, 47
6, 4480, Note_on_c, 2, 65, 50
6, 4548, Note_on_c, 2, 58, 0
6, 4572, Note_on_c, 2, 69, 0
6, 4584, Note_on_c, 2, 62, 0
6, 4588, Note_on_c, 2, 65, 0
6, 4992, Note_on_c, 2, 65, 33
6, 4992, Note_on_c, 2, 57, 24
6, 4992, Note_on_c, 2, 62, 33
6, 4992, Note_on_c, 2, 58, 28
6, 5164, Note_on_c, 2, 65, 0
6, 5196, Note_on_c, 2, 62, 0
6, 5200, Note_on_c, 2, 57, 0
6, 5200, Note_on_c, 2, 58, 0
6, 5376, Note_on_c, 2, 57, 31
6, 5376, Note_on_c, 2, 65, 37
6, 5376, Note_on_c, 2, 62, 26
6, 5376, Note_on_c, 2, 58, 30
6, 5504, Note_on_c, 2, 65, 0
6, 5552, Note_on_c, 2, 57, 0
6, 5552, Note_on_c, 2, 58, 0
6, 5572, Note_on_c, 2, 62, 0
6, 5760, Note_on_c, 2, 57, 53
6, 5760, Note_on_c, 2, 62, 41
6, 5760, Note_on_c, 2, 65, 44
6, 5760, Note_on_c, 2, 58, 40
6, 5900, Note_on_c, 2, 65, 0
6, 5928, Note_on_c, 2, 58, 0
6, 5928, Note_on_c, 2, 57, 0
6, 5940, Note_on_c, 2, 62, 0
6, 6144, Note_on_c, 2, 65, 27
6, 6144, Note_on_c, 2, 55, 27
6, 6144, Note_on_c, 2, 62, 27
6, 6144, Note_on_c, 2, 58, 18
6, 6296, Note_on_c, 2, 65, 0
6, 6312, Note_on_c, 2, 55, 0
6, 6340, Note_on_c, 2, 62, 0
6, 6352, Note_on_c, 2, 58, 0
6, 6528, Note_on_c, 2, 62, 31
6, 6528, Note_on_c, 2, 55, 34
6, 6528, Note_on_c, 2, 65, 34
6, 6528, Note_on_c, 2, 58, 25
6, 6696, Note_on_c, 2, 65, 0
6, 6700, Note_on_c, 2, 55, 0
6, 6728, Note_on_c, 2, 62, 0
6, 6732, Note_on_c, 2, 58, 0
6, 6912, Note_on_c, 2, 55, 24
6, 6912, Note_on_c, 2, 62, 30
6, 6912, Note_on_c, 2, 65, 29
6, 6912, Note_on_c, 2, 58, 18
6, 7132, Note_on_c, 2, 55, 0
6, 7136, Note_on_c, 2, 65, 0
6, 7144, Note_on_c, 2, 62, 0
6, 7144, Note_on_c, 2, 58, 0
6, 7296, Note_on_c, 2, 65, 68
6, 7296, Note_on_c, 2, 58, 69
6, 7296, Note_on_c, 2, 62, 73
6, 7296, Note_on_c, 2, 55, 78
6, 7464, Note_on_c, 2, 55, 0
6, 7464, Note_on_c, 2, 65, 0
6, 7476, Note_on_c, 2, 58, 0
6, 7500, Note_on_c, 2, 62, 0
6, 7552, Note_on_c, 2, 65, 57
6, 7552, Note_on_c, 2, 57, 50
6, 7552, Note_on_c, 2, 60, 55
6, 7552, Note_on_c, 2, 62, 54
6, 7972, Note_on_c, 2, 65, 0
6, 7992, Note_on_c, 2, 57, 0
6, 8008, Note_on_c, 2, 60, 0
6, 8008, Note_on_c, 2, 62, 0
6, 8064, Note_on_c, 2, 65, 30
6, 8064, Note_on_c, 2, 57, 22
6, 8064, Note_on_c, 2, 60, 36
6, 8064, Note_on_c, 2, 62, 34
6, 8248, Note_on_c, 2, 65, 0
6, 8252, Note_on_c, 2, 60, 0
6, 8256, Note_on_c, 2, 62, 0
6, 8268, Note_on_c, 2, 57, 0
6, 8448, Note_on_c, 2, 65, 26
6, 8448, Note_on_c, 2, 60, 32
6, 8448, Note_on_c, 2, 62, 29
6, 8448, Note_on_c, 2, 57, 11
6, 8600, Note_on_c, 2, 65, 0
6, 8604, Note_on_c, 2, 57, 0
6, 8608, Note_on_c, 2, 60, 0
6, 8616, Note_on_c, 2, 62, 0
6, 8832, Note_on_c, 2, 65, 32
6, 8832, Note_on_c, 2, 57, 26
6, 8832, Note_on_c, 2, 60, 33
6, 8832, Note_on_c, 2, 62, 22
6, 8904, Note_on_c, 2, 65, 0
6, 8924, Note_on_c, 2, 57, 0
6, 8924, Note_on_c, 2, 60, 0
6, 8932, Note_on_c, 2, 62, 0
6, 9088, Note_on_c, 2, 56, 65
6, 9088, Note_on_c, 2, 67, 74
6, 9088, Note_on_c, 2, 60, 68
6, 9088, Note_on_c, 2, 62, 60
6, 9464, Note_on_c, 2, 60, 0
6, 9472, Note_on_c, 2, 56, 0
6, 9488, Note_on_c, 2, 67, 0
6, 9512, Note_on_c, 2, 62, 0
6, 9600, Note_on_c, 2, 56, 31
6, 9600, Note_on_c, 2, 65, 36
6, 9600, Note_on_c, 2, 62, 24
6, 9600, Note_on_c, 2, 60, 30
6, 9664, Note_on_c, 2, 60, 0
6, 9664, Note_on_c, 2, 56, 0
6, 9664, Note_on_c, 2, 65, 0
6, 9664, Note_on_c, 2, 62, 0
6, 9984, Note_on_c, 2, 56, 38
6, 9984, Note_on_c, 2, 67, 53
6, 9984, Note_on_c, 2, 60, 48
6, 9984, Note_on_c, 2, 62, 46
6, 10048, Note_on_c, 2, 62, 0
6, 10048, Note_on_c, 2, 60, 0
6, 10048, Note_on_c, 2, 56, 0
6, 10056, Note_on_c, 2, 67, 0
6, 10240, Note_on_c, 2, 56, 44
6, 10240, Note_on_c, 2, 65, 52
6, 10368, Note_on_c, 2, 60, 35
6, 10368, Note_on_c, 2, 62, 34
6, 10404, Note_on_c, 2, 65, 0
6, 10432, Note_on_c, 2, 56, 0
6, 10432, Note_on_c, 2, 60, 0
6, 10432, Note_on_c, 2, 62, 0
6, 10624, Note_on_c, 2, 65, 34
6, 10624, Note_on_c, 2, 60, 34
6, 10752, Note_on_c, 2, 62, 19
6, 10768, Note_on_c, 2, 60, 0
6, 10772, Note_on_c, 2, 65, 0
6, 10816, Note_on_c, 2, 62, 0
6, 11136, Note_on_c, 2, 60, 40
6, 11136, Note_on_c, 2, 65, 36
6, 11136, Note_on_c, 2, 57, 30
6, 11136, Note_on_c, 2, 62, 25
6, 11200, Note_on_c, 2, 57, 0
6, 11208, Note_on_c, 2, 62, 0
6, 11208, Note_on_c, 2, 60, 0
6, 11224, Note_on_c, 2, 65, 0
6, 11520, Note_on_c, 2, 72, 76
6, 11520, Note_on_c, 2, 67, 76
6, 11520, Note_on_c, 2, 62, 61
6, 11520, Note_on_c, 2, 64, 35
6, 11584, Note_on_c, 2, 64, 0
6, 11640, Note_on_c, 2, 72, 0
6, 11644, Note_on_c, 2, 67, 0
6, 11672, Note_on_c, 2, 62, 0
6, 11904, Note_on_c, 2, 60, 47
6, 11904, Note_on_c, 2, 69, 44
6, 11904, Note_on_c, 2, 64, 54
6, 12020, Note_on_c, 2, 64, 0
6, 12024, Note_on_c, 2, 69, 0
6, 12060, Note_on_c, 2, 60, 0
6, 12288, Note_on_c, 2, 67, 38
6, 12288, Note_on_c, 2, 56, 25
6, 12288, Note_on_c, 2, 59, 48
6, 12288, Note_on_c, 2, 62, 34
6, 12488, Note_on_c, 2, 59, 0
6, 12492, Note_on_c, 2, 62, 0
6, 12524, Note_on_c, 2, 56, 0
6, 12532, Note_on_c, 2, 67, 0
6, 12672, Note_on_c, 2, 56, 30
6, 12672, Note_on_c, 2, 65, 41
6, 12672, Note_on_c, 2, 59, 34
6, 12672, Note_on_c, 2, 62, 33
6, 12836, Note_on_c, 2, 59, 0
6, 12860, Note_on_c, 2, 65, 0
6, 12876, Note_on_c, 2, 62, 0
6, 12900, Note_on_c, 2, 56, 0
6, 13056, Note_on_c, 2, 56, 18
6, 13056, Note_on_c, 2, 64, 31
6, 13056, Note_on_c, 2, 62, 26
6, 13056, Note_on_c, 2, 59, 20
6, 13208, Note_on_c, 2, 62, 0
6, 13268, Note_on_c, 2, 59, 0
6, 13268, Note_on_c, 2, 56, 0
6, 13272, Note_on_c, 2, 64, 0
6, 13312, Note_on_c, 2, 65, 60
6, 13312, Note_on_c, 2, 56, 42
6, 13312, Note_on_c, 2, 59, 62
6, 13408, Note_on_c, 2, 56, 0
6, 13432, Note_on_c, 2, 65, 0
6, 13436, Note_on_c, 2, 59, 0
6, 13440, Note_on_c, 2, 63, 48
6, 13440, Note_on_c, 2, 56, 15
6, 13644, Note_on_c, 2, 56, 0
6, 13656, Note_on_c, 2, 63, 0
6, 13696, Note_on_c, 2, 58, 48
6, 13696, Note_on_c, 2, 62, 57
6, 13696, Note_on_c, 2, 53, 51
6, 13760, Note_on_c, 2, 53, 0
6, 13772, Note_on_c, 2, 58, 0
6, 13776, Note_on_c, 2, 62, 0
6, 14080, Note_on_c, 2, 65, 73
6, 14080, Note_on_c, 2, 62, 66
6, 14080, Note_on_c, 2, 57, 79
6, 14080, Note_on_c, 2, 58, 64
6, 14476, Note_on_c, 2, 57, 0
6, 14492, Note_on_c, 2, 58, 0
6, 14512, Note_on_c, 2, 65, 0
6, 14592, Note_on_c, 2, 57, 40
6, 14592, Note_on_c, 2, 58, 25
6, 14676, Note_on_c, 2, 58, 0
6, 14684, Note_on_c, 2, 57, 0
6, 14696, Note_on_c, 2, 62, 0
6, 14976, Note_on_c, 2, 58, 33
6, 14976, Note_on_c, 2, 65, 51
6, 14976, Note_on_c, 2, 62, 45
6, 15072, Note_on_c, 2, 58, 0
6, 15084, Note_on_c, 2, 62, 0
6, 15088, Note_on_c, 2, 65, 0
6, 15360, Note_on_c, 2, 64, 41
6, 15360, Note_on_c, 2, 69, 42
6, 15360, Note_on_c, 2, 72, 40
6, 15516, Note_on_c, 2, 64, 0
6, 15520, Note_on_c, 2, 69, 0
6, 15564, Note_on_c, 2, 72, 0
6, 15744, Note_on_c, 2, 72, 58
6, 15744, Note_on_c, 2, 68, 55
6, 15744, Note_on_c, 2, 64, 60
6, 15904, Note_on_c, 2, 64, 0
6, 15904, Note_on_c, 2, 72, 0
6, 15932, Note_on_c, 2, 68, 0
6, 16128, Note_on_c, 2, 72, 60
6, 16128, Note_on_c, 2, 64, 54
6, 16128, Note_on_c, 2, 67, 54
6, 16200, Note_on_c, 2, 67, 0
6, 16260, Note_on_c, 2, 64, 0
6, 16272, Note_on_c, 2, 72, 0
6, 16384, Note_on_c, 2, 62, 50
6, 16384, Note_on_c, 2, 68, 48
6, 16384, Note_on_c, 2, 65, 48
6, 16660, Note_on_c, 2, 62, 0
6, 16676, Note_on_c, 2, 65, 0
6, 16704, Note_on_c, 2, 68, 0
6, 16768, Note_on_c, 2, 67, 67
6, 16768, Note_on_c, 2, 64, 59
6, 16768, Note_on_c, 2, 60, 50
6, 16892, Note_on_c, 2, 64, 0
6, 16896, Note_on_c, 2, 60, 0
6, 16904, Note_on_c, 2, 67, 0
6, 17152, Note_on_c, 2, 67, 64
6, 17152, Note_on_c, 2, 64, 64
6, 17152, Note_on_c, 2, 59, 66
6, 17152, Note_on_c, 2, 60, 66
6, 17536, Note_on_c, 2, 59, 0
6, 17540, Note_on_c, 2, 60, 0
6, 17560, Note_on_c, 2, 64, 0
6, 17564, Note_on_c, 2, 67, 0
6, 17664, Note_on_c, 2, 64, 53
6, 17664, Note_on_c, 2, 59, 45
6, 17664, Note_on_c, 2, 60, 48
6, 17664, Note_on_c, 2, 67, 26
6, 17728, Note_on_c, 2, 67, 0
6, 17728, Note_on_c, 2, 60, 0
6, 17728, Note_on_c, 2, 59, 0
6, 17732, Note_on_c, 2, 64, 0
6, 18048, Note_on_c, 2, 64, 47
6, 18048, Note_on_c, 2, 67, 51
6, 18048, Note_on_c, 2, 59, 53
6, 18048, Note_on_c, 2, 60, 49
6, 18112, Note_on_c, 2, 60, 0
6, 18112, Note_on_c, 2, 64, 0
6, 18112, Note_on_c, 2, 67, 0
6, 18112, Note_on_c, 2, 59, 0
6, 18432, Note_on_c, 2, 71, 60
6, 18432, Note_on_c, 2, 64, 65
6, 18432, Note_on_c, 2, 74, 60
6, 18432, Note_on_c, 2, 68, 48
6, 18496, Note_on_c, 2, 74, 0
6, 18504, Note_on_c, 2, 68, 0
6, 18508, Note_on_c, 2, 64, 0
6, 18512, Note_on_c, 2, 71, 0
6, 18816, Note_on_c, 2, 74, 63
6, 18816, Note_on_c, 2, 71, 58
6, 18816, Note_on_c, 2, 64, 62
6, 18816, Note_on_c, 2, 68, 49
6, 18900, Note_on_c, 2, 71, 0
6, 18916, Note_on_c, 2, 74, 0
6, 18916, Note_on_c, 2, 64, 0
6, 18924, Note_on_c, 2, 68, 0
6, 19200, Note_on_c, 2, 66, 38
6, 19200, Note_on_c, 2, 62, 47
6, 19200, Note_on_c, 2, 72, 42
6, 19200, Note_on_c, 2, 69, 50
6, 19340, Note_on_c, 2, 66, 0
6, 19348, Note_on_c, 2, 62, 0
6, 19372, Note_on_c, 2, 69, 0
6, 19456, Note_on_c, 2, 66, 55
6, 19496, Note_on_c, 2, 72, 0
6, 19540, Note_on_c, 2, 66, 0
6, 19584, Note_on_c, 2, 62, 48
6, 19648, Note_on_c, 2, 62, 0
6, 19840, Note_on_c, 2, 69, 72
6, 19840, Note_on_c, 2, 61, 52
6, 19840, Note_on_c, 2, 62, 62
6, 19840, Note_on_c, 2, 66, 46
6, 20176, Note_on_c, 2, 69, 0
6, 20184, Note_on_c, 2, 62, 0
6, 20204, Note_on_c, 2, 66, 0
6, 20236, Note_on_c, 2, 61, 0
6, 20352, Note_on_c, 2, 66, 48
6, 20352, Note_on_c, 2, 62, 54
6, 20352, Note_on_c, 2, 61, 36
6, 20352, Note_on_c, 2, 57, 44
6, 20416, Note_on_c, 2, 57, 0
6, 20476, Note_on_c, 2, 66, 0
6, 20496, Note_on_c, 2, 62, 0
6, 20512, Note_on_c, 2, 61, 0
6, 20736, Note_on_c, 2, 66, 27
6, 20736, Note_on_c, 2, 62, 28
6, 20736, Note_on_c, 2, 57, 18
6, 20736, Note_on_c, 2, 61, 21
6, 20880, Note_on_c, 2, 62, 0
6, 20880, Note_on_c, 2, 66, 0
6, 20884, Note_on_c, 2, 57, 0
6, 20924, Note_on_c, 2, 61, 0
6, 21120, Note_on_c, 2, 57, 55
6, 21120, Note_on_c, 2, 66, 45
6, 21120, Note_on_c, 2, 61, 35
6, 21120, Note_on_c, 2, 62, 49
6, 21192, Note_on_c, 2, 66, 0
6, 21252, Note_on_c, 2, 57, 0
6, 21284, Note_on_c, 2, 61, 0
6, 21288, Note_on_c, 2, 62, 0
6, 21504, Note_on_c, 2, 56, 33
6, 21504, Note_on_c, 2, 66, 27
6, 21504, Note_on_c, 2, 62, 35
6, 21504, Note_on_c, 2, 61, 28
6, 21640, Note_on_c, 2, 62, 0
6, 21644, Note_on_c, 2, 61, 0
6, 21644, Note_on_c, 2, 56, 0
6, 21652, Note_on_c, 2, 66, 0
6, 21888, Note_on_c, 2, 56, 39
6, 21888, Note_on_c, 2, 66, 37
6, 21888, Note_on_c, 2, 62, 37
6, 21888, Note_on_c, 2, 61, 31
6, 22080, Note_on_c, 2, 62, 0
6, 22084, Note_on_c, 2, 61, 0
6, 22084, Note_on_c, 2, 66, 0
6, 22092, Note_on_c, 2, 56, 0
6, 22272, Note_on_c, 2, 56, 35
6, 22272, Note_on_c, 2, 61, 32
6, 22272, Note_on_c, 2, 65, 35
6, 22272, Note_on_c, 2, 62, 32
6, 22444, Note_on_c, 2, 62, 0
6, 22444, Note_on_c, 2, 56, 0
6, 22468, Note_on_c, 2, 61, 0
6, 22476, Note_on_c, 2, 65, 0
6, 22656, Note_on_c, 2, 56, 36
6, 22656, Note_on_c, 2, 65, 38
6, 22656, Note_on_c, 2, 61, 36
6, 22656, Note_on_c, 2, 62, 45
6, 22784, Note_on_c, 2, 62, 0
6, 22832, Note_on_c, 2, 61, 0
6, 22852, Note_on_c, 2, 65, 0
6, 22856, Note_on_c, 2, 56, 0
6, 22912, Note_on_c, 2, 64, 64
6, 22912, Note_on_c, 2, 59, 60
6, 22912, Note_on_c, 2, 61, 43
6, 23352, Note_on_c, 2, 61, 0
6, 23356, Note_on_c, 2, 59, 0
6, 23380, Note_on_c, 2, 64, 0
6, 23424, Note_on_c, 2, 59, 54
6, 23424, Note_on_c, 2, 64, 36
6, 23424, Note_on_c, 2, 61, 37
6, 23488, Note_on_c, 2, 61, 0
6, 23488, Note_on_c, 2, 64, 0
6, 23488, Note_on_c, 2, 59, 0
6, 23680, Note_on_c, 2, 76, 75
6, 23680, Note_on_c, 2, 71, 68
6, 23680, Note_on_c, 2, 73, 38
6, 23744, Note_on_c, 2, 71, 0
6, 23752, Note_on_c, 2, 76, 0
6, 23760, Note_on_c, 2, 73, 0
6, 23936, Note_on_c, 2, 76, 50
6, 23936, Note_on_c, 2, 66, 28
6, 23936, Note_on_c, 2, 71, 50
6, 23936, Note_on_c, 2, 73, 40
6, 24064, Note_on_c, 2, 73, 0
6, 24088, Note_on_c, 2, 71, 0
6, 24088, Note_on_c, 2, 66, 0
6, 24116, Note_on_c, 2, 76, 0
6, 24192, Note_on_c, 2, 66, 43
6, 24192, Note_on_c, 2, 73, 48
6, 24348, Note_on_c, 2, 66, 0
6, 24360, Note_on_c, 2, 73, 0
6, 24448, Note_on_c, 2, 72, 74
6, 24448, Note_on_c, 2, 67, 70
6, 24448, Note_on_c, 2, 75, 59
6, 24856, Note_on_c, 2, 67, 0
6, 24864, Note_on_c, 2, 72, 0
6, 24868, Note_on_c, 2, 75, 0
6, 24960, Note_on_c, 2, 75, 53
6, 24960, Note_on_c, 2, 67, 53
6, 24960, Note_on_c, 2, 72, 49
6, 25072, Note_on_c, 2, 75, 0
6, 25080, Note_on_c, 2, 72, 0
6, 25092, Note_on_c, 2, 67, 0
6, 25344, Note_on_c, 2, 71, 57
6, 25344, Note_on_c, 2, 66, 52
6, 25344, Note_on_c, 2, 74, 65
6, 25524, Note_on_c, 2, 74, 0
6, 25568, Note_on_c, 2, 71, 0
6, 25600, Note_on_c, 2, 74, 26
6, 25600, Note_on_c, 2, 70, 60
6, 25624, Note_on_c, 2, 66, 0
6, 25664, Note_on_c, 2, 70, 0
6, 25672, Note_on_c, 2, 74, 0
6, 25728, Note_on_c, 2, 69, 28
6, 25728, Note_on_c, 2, 66, 25
6, 25892, Note_on_c, 2, 69, 0
6, 25936, Note_on_c, 2, 66, 0
6, 25984, Note_on_c, 2, 69, 53
6, 25984, Note_on_c, 2, 72, 48
6, 25984, Note_on_c, 2, 65, 50
6, 26048, Note_on_c, 2, 65, 0
6, 26048, Note_on_c, 2, 69, 0
6, 26052, Note_on_c, 2, 72, 0
6, 26368, Note_on_c, 2, 62, 68
6, 26368, Note_on_c, 2, 69, 72
6, 26368, Note_on_c, 2, 65, 65
6, 26656, Note_on_c, 2, 65, 0
6, 26656, Note_on_c, 2, 69, 0
6, 26692, Note_on_c, 2, 62, 0
6, 26880, Note_on_c, 2, 65, 44
6, 26880, Note_on_c, 2, 58, 29
6, 26880, Note_on_c, 2, 62, 36
6, 26880, Note_on_c, 2, 57, 17
6, 26956, Note_on_c, 2, 57, 0
6, 26972, Note_on_c, 2, 62, 0
6, 26972, Note_on_c, 2, 65, 0
6, 26984, Note_on_c, 2, 58, 0
6, 27264, Note_on_c, 2, 58, 26
6, 27264, Note_on_c, 2, 69, 31
6, 27264, Note_on_c, 2, 62, 44
6, 27264, Note_on_c, 2, 65, 45
6, 27340, Note_on_c, 2, 62, 0
6, 27348, Note_on_c, 2, 65, 0
6, 27348, Note_on_c, 2, 58, 0
6, 27376, Note_on_c, 2, 69, 0
6, 27648, Note_on_c, 2, 72, 52
6, 27648, Note_on_c, 2, 65, 47
6, 27648, Note_on_c, 2, 62, 39
6, 27648, Note_on_c, 2, 69, 44
6, 27712, Note_on_c, 2, 69, 0
6, 27712, Note_on_c, 2, 65, 0
6, 27720, Note_on_c, 2, 72, 0
6, 27740, Note_on_c, 2, 62, 0
6, 28032, Note_on_c, 2, 58, 39
6, 28032, Note_on_c, 2, 69, 46
6, 28032, Note_on_c, 2, 62, 43
6, 28032, Note_on_c, 2, 65, 44
6, 28160, Note_on_c, 2, 65, 0
6, 28160, Note_on_c, 2, 62, 0
6, 28172, Note_on_c, 2, 58, 0
6, 28176, Note_on_c, 2, 69, 0
6, 28416, Note_on_c, 2, 58, 32
6, 28416, Note_on_c, 2, 67, 49
6, 28416, Note_on_c, 2, 62, 43
6, 28540, Note_on_c, 2, 62, 0
6, 28572, Note_on_c, 2, 58, 0
6, 28580, Note_on_c, 2, 67, 0
6, 28672, Note_on_c, 2, 58, 49
6, 28672, Note_on_c, 2, 69, 60
6, 28672, Note_on_c, 2, 62, 56
6, 28672, Note_on_c, 2, 64, 51
6, 28736, Note_on_c, 2, 64, 0
6, 28736, Note_on_c, 2, 58, 0
6, 28736, Note_on_c, 2, 69, 0
6, 28736, Note_on_c, 2, 62, 0
6, 29056, Note_on_c, 2, 72, 79
6, 29056, Note_on_c, 2, 65, 82
6, 29056, Note_on_c, 2, 62, 83
6, 29056, Note_on_c, 2, 69, 71
6, 29120, Note_on_c, 2, 69, 0
6, 29120, Note_on_c, 2, 72, 0
6, 29120, Note_on_c, 2, 65, 0
6, 29120, Note_on_c, 2, 62, 0
6, 29440, Note_on_c, 2, 69, 80
6, 29440, Note_on_c, 2, 58, 62
6, 29440, Note_on_c, 2, 62, 71
6, 29440, Note_on_c, 2, 65, 64
6, 29812, Note_on_c, 2, 65, 0
6, 29820, Note_on_c, 2, 62, 0
6, 29832, Note_on_c, 2, 69, 0
6, 29840, Note_on_c, 2, 58, 0
6, 29952, Note_on_c, 2, 58, 40
6, 29952, Note_on_c, 2, 67, 57
6, 29952, Note_on_c, 2, 62, 30
6, 30016, Note_on_c, 2, 62, 0
6, 30016, Note_on_c, 2, 58, 0
6, 30040, Note_on_c, 2, 67, 0
6, 30336, Note_on_c, 2, 58, 45
6, 30336, Note_on_c, 2, 62, 50
6, 30336, Note_on_c, 2, 65, 38
6, 30336, Note_on_c, 2, 69, 28
6, 30400, Note_on_c, 2, 62, 0
6, 30400, Note_on_c, 2, 58, 0
6, 30408, Note_on_c, 2, 65, 0
6, 30428, Note_on_c, 2, 69, 0
6, 30720, Note_on_c, 2, 75, 52
6, 30720, Note_on_c, 2, 68, 39
6, 30720, Note_on_c, 2, 72, 54
6, 30720, Note_on_c, 2, 64, 25
6, 30804, Note_on_c, 2, 64, 0
6, 30808, Note_on_c, 2, 68, 0
6, 30812, Note_on_c, 2, 72, 0
6, 30824, Note_on_c, 2, 75, 0
6, 31104, Note_on_c, 2, 73, 55
6, 31104, Note_on_c, 2, 64, 49
6, 31104, Note_on_c, 2, 68, 49
6, 31248, Note_on_c, 2, 73, 0
6, 31288, Note_on_c, 2, 64, 0
6, 31292, Note_on_c, 2, 68, 0
6, 31488, Note_on_c, 2, 64, 60
6, 31488, Note_on_c, 2, 72, 53
6, 31488, Note_on_c, 2, 68, 39
6, 31624, Note_on_c, 2, 68, 0
6, 31656, Note_on_c, 2, 64, 0
6, 31688, Note_on_c, 2, 72, 0
6, 31744, Note_on_c, 2, 68, 64
6, 31816, Note_on_c, 2, 68, 0
6, 32128, Note_on_c, 2, 67, 56
6, 32128, Note_on_c, 2, 62, 53
6, 32128, Note_on_c, 2, 57, 41
6, 32528, Note_on_c, 2, 57, 0
6, 32532, Note_on_c, 2, 62, 0
6, 32564, Note_on_c, 2, 67, 0
6, 32640, Note_on_c, 2, 57, 38
6, 32640, Note_on_c, 2, 62, 40
6, 32640, Note_on_c, 2, 65, 49
6, 32764, Note_on_c, 2, 57, 0
6, 32772, Note_on_c, 2, 65, 0
6, 32780, Note_on_c, 2, 62, 0
6, 33024, Note_on_c, 2, 57, 29
6, 33024, Note_on_c, 2, 64, 37
6, 33024, Note_on_c, 2, 62, 32
6, 33128, Note_on_c, 2, 62, 0
6, 33148, Note_on_c, 2, 57, 0
6, 33192, Note_on_c, 2, 64, 0
6, 33280, Note_on_c, 2, 57, 39
6, 33280, Note_on_c, 2, 62, 44
6, 33280, Note_on_c, 2, 65, 49
6, 33344, Note_on_c, 2, 57, 0
6, 33364, Note_on_c, 2, 65, 0
6, 33364, Note_on_c, 2, 62, 0
6, 33664, Note_on_c, 2, 67, 65
6, 33664, Note_on_c, 2, 60, 64
6, 33664, Note_on_c, 2, 56, 59
6, 33664, Note_on_c, 2, 64, 59
6, 33728, Note_on_c, 2, 64, 0
6, 33728, Note_on_c, 2, 67, 0
6, 33728, Note_on_c, 2, 60, 0
6, 33728, Note_on_c, 2, 56, 0
6, 34048, Note_on_c, 2, 56, 57
6, 34048, Note_on_c, 2, 67, 66
6, 34048, Note_on_c, 2, 60, 69
6, 34048, Note_on_c, 2, 64, 67
6, 34116, Note_on_c, 2, 60, 0
6, 34116, Note_on_c, 2, 56, 0
6, 34124, Note_on_c, 2, 67, 0
6, 34132, Note_on_c, 2, 64, 0
6, 34432, Note_on_c, 2, 65, 73
6, 34432, Note_on_c, 2, 56, 56
6, 34432, Note_on_c, 2, 60, 54
6, 34432, Note_on_c, 2, 64, 40
6, 34496, Note_on_c, 2, 64, 0
6, 34512, Note_on_c, 2, 65, 0
6, 34516, Note_on_c, 2, 56, 0
6, 34520, Note_on_c, 2, 60, 0
6, 34560, Note_on_c, 2, 56, 42
6, 34560, Note_on_c, 2, 60, 34
6, 34560, Note_on_c, 2, 67, 47
6, 34560, Note_on_c, 2, 64, 50
6, 34748, Note_on_c, 2, 60, 0
6, 34752, Note_on_c, 2, 67, 0
6, 34756, Note_on_c, 2, 64, 0
6, 34764, Note_on_c, 2, 56, 0
6, 34816, Note_on_c, 2, 60, 54
6, 34816, Note_on_c, 2, 56, 42
6, 34816, Note_on_c, 2, 64, 47
6, 34816, Note_on_c, 2, 65, 55
6, 34880, Note_on_c, 2, 65, 0
6, 34880, Note_on_c, 2, 64, 0
6, 34880, Note_on_c, 2, 60, 0
6, 34908, Note_on_c, 2, 56, 0
6, 35200, Note_on_c, 2, 60, 67
6, 35200, Note_on_c, 2, 57, 66
6, 35200, Note_on_c, 2, 67, 57
6, 35200, Note_on_c, 2, 64, 55
6, 35264, Note_on_c, 2, 64, 0
6, 35264, Note_on_c, 2, 60, 0
6, 35264, Note_on_c, 2, 57, 0
6, 35264, Note_on_c, 2, 67, 0
6, 35584, Note_on_c, 2, 67, 87
6, 35584, Note_on_c, 2, 72, 82
6, 35584, Note_on_c, 2, 62, 81
6, 35584, Note_on_c, 2, 60, 69
6, 35956, Note_on_c, 2, 62, 0
6, 35984, Note_on_c, 2, 67, 0
6, 36016, Note_on_c, 2, 72, 0
6, 36040, Note_on_c, 2, 60, 0
6, 36096, Note_on_c, 2, 57, 40
6, 36096, Note_on_c, 2, 64, 40
6, 36096, Note_on_c, 2, 69, 44
6, 36096, Note_on_c, 2, 67, 30
6, 36160, Note_on_c, 2, 67, 0
6, 36160, Note_on_c, 2, 57, 0
6, 36160, Note_on_c, 2, 64, 0
6, 36160, Note_on_c, 2, 69, 0
6, 36480, Note_on_c, 2, 60, 40
6, 36480, Note_on_c, 2, 69, 45
6, 36480, Note_on_c, 2, 64, 50
6, 36480, Note_on_c, 2, 72, 44
6, 36480, Note_on_c, 2, 67, 45
6, 36544, Note_on_c, 2, 60, 0
6, 36568, Note_on_c, 2, 64, 0
6, 36580, Note_on_c, 2, 67, 0
6, 36580, Note_on_c, 2, 69, 0
6, 36588, Note_on_c, 2, 72, 0
6, 36864, Note_on_c, 2, 76, 55
6, 36864, Note_on_c, 2, 68, 35
6, 36864, Note_on_c, 2, 65, 39
6, 36864, Note_on_c, 2, 64, 43
6, 36864, Note_on_c, 2, 71, 42
6, 36980, Note_on_c, 2, 76, 0
6, 36992, Note_on_c, 2, 71, 0
6, 36996, Note_on_c, 2, 68, 0
6, 36996, Note_on_c, 2, 65, 0
6, 36996, Note_on_c, 2, 64, 0
6, 37248, Note_on_c, 2, 76, 40
6, 37248, Note_on_c, 2, 65, 35
6, 37248, Note_on_c, 2, 68, 36
6, 37248, Note_on_c, 2, 71, 33
6, 37248, Note_on_c, 2, 64, 36
6, 37484, Note_on_c, 2, 76, 0
6, 37508, Note_on_c, 2, 68, 0
6, 37512, Note_on_c, 2, 65, 0
6, 37544, Note_on_c, 2, 71, 0
6, 37548, Note_on_c, 2, 64, 0
6, 37632, Note_on_c, 2, 65, 43
6, 37632, Note_on_c, 2, 68, 37
6, 37632, Note_on_c, 2, 74, 39
6, 37632, Note_on_c, 2, 62, 34
6, 37632, Note_on_c, 2, 71, 27
6, 37728, Note_on_c, 2, 74, 0
6, 37732, Note_on_c, 2, 71, 0
6, 37764, Note_on_c, 2, 68, 0
6, 37784, Note_on_c, 2, 65, 0
6, 37848, Note_on_c, 2, 62, 0
6, 37888, Note_on_c, 2, 56, 27
6, 37952, Note_on_c, 2, 56, 0
6, 38016, Note_on_c, 2, 58, 43
6, 38016, Note_on_c, 2, 68, 47
6, 38016, Note_on_c, 2, 59, 46
6, 38016, Note_on_c, 2, 65, 38
6, 38016, Note_on_c, 2, 63, 40
6, 38200, Note_on_c, 2, 59, 0
6, 38260, Note_on_c, 2, 58, 0
6, 38304, Note_on_c, 2, 68, 0
6, 38304, Note_on_c, 2, 65, 0
6, 38324, Note_on_c, 2, 63, 0
6, 38400, Note_on_c, 2, 58, 23
6, 38400, Note_on_c, 2, 67, 34
6, 38400, Note_on_c, 2, 62, 28
6, 38400, Note_on_c, 2, 65, 15
6, 38544, Note_on_c, 2, 67, 0
6, 38552, Note_on_c, 2, 62, 0
6, 38572, Note_on_c, 2, 65, 0
6, 38588, Note_on_c, 2, 58, 0
6, 38784, Note_on_c, 2, 58, 25
6, 38784, Note_on_c, 2, 65, 38
6, 38784, Note_on_c, 2, 62, 34
6, 38784, Note_on_c, 2, 67, 31
6, 38944, Note_on_c, 2, 67, 0
6, 38960, Note_on_c, 2, 62, 0
6, 38964, Note_on_c, 2, 65, 0
6, 39012, Note_on_c, 2, 58, 0
6, 39168, Note_on_c, 2, 62, 41
6, 39168, Note_on_c, 2, 58, 26
6, 39168, Note_on_c, 2, 57, 24
6, 39312, Note_on_c, 2, 62, 0
6, 39316, Note_on_c, 2, 58, 0
6, 39396, Note_on_c, 2, 57, 0
6, 39552, Note_on_c, 2, 58, 37
6, 39552, Note_on_c, 2, 69, 42
6, 39552, Note_on_c, 2, 62, 47
6, 39552, Note_on_c, 2, 65, 42
6, 39688, Note_on_c, 2, 58, 0
6, 39696, Note_on_c, 2, 65, 0
6, 39696, Note_on_c, 2, 62, 0
6, 39712, Note_on_c, 2, 69, 0
6, 39936, Note_on_c, 2, 72, 35
6, 39936, Note_on_c, 2, 64, 26
6, 39936, Note_on_c, 2, 68, 36
6, 40152, Note_on_c, 2, 64, 0
6, 40160, Note_on_c, 2, 68, 0
6, 40164, Note_on_c, 2, 72, 0
6, 40320, Note_on_c, 2, 64, 44
6, 40320, Note_on_c, 2, 68, 37
6, 40320, Note_on_c, 2, 72, 36
6, 40532, Note_on_c, 2, 64, 0
6, 40536, Note_on_c, 2, 72, 0
6, 40544, Note_on_c, 2, 68, 0
6, 40704, Note_on_c, 2, 68, 37
6, 40704, Note_on_c, 2, 64, 50
6, 40704, Note_on_c, 2, 72, 45
6, 40840, Note_on_c, 2, 64, 0
6, 40856, Note_on_c, 2, 72, 0
6, 40856, Note_on_c, 2, 68, 0
6, 40960, Note_on_c, 2, 76, 66
6, 40960, Note_on_c, 2, 72, 61
6, 40960, Note_on_c, 2, 67, 64
6, 40960, Note_on_c, 2, 56, 46
6, 40960, Note_on_c, 2, 62, 40
6, 41304, Note_on_c, 2, 76, 0
6, 41316, Note_on_c, 2, 72, 0
6, 41344, Note_on_c, 2, 67, 0
6, 41416, Note_on_c, 2, 62, 0
6, 41468, Note_on_c, 2, 56, 0
6, 41472, Note_on_c, 2, 62, 42
6, 41472, Note_on_c, 2, 57, 50
6, 41472, Note_on_c, 2, 72, 38
6, 41472, Note_on_c, 2, 67, 51
6, 41544, Note_on_c, 2, 62, 0
6, 41552, Note_on_c, 2, 67, 0
6, 41556, Note_on_c, 2, 57, 0
6, 41560, Note_on_c, 2, 72, 0
6, 41856, Note_on_c, 2, 57, 38
6, 41856, Note_on_c, 2, 72, 38
6, 41856, Note_on_c, 2, 62, 39
6, 41856, Note_on_c, 2, 67, 48
6, 42060, Note_on_c, 2, 67, 0
6, 42120, Note_on_c, 2, 72, 0
6, 42136, Note_on_c, 2, 62, 0
6, 42180, Note_on_c, 2, 57, 0
6, 42240, Note_on_c, 2, 67, 43
6, 42240, Note_on_c, 2, 60, 26
6, 42240, Note_on_c, 2, 57, 36
6, 42240, Note_on_c, 2, 64, 40
6, 42372, Note_on_c, 2, 64, 0
6, 42392, Note_on_c, 2, 57, 0
6, 42396, Note_on_c, 2, 60, 0
6, 42400, Note_on_c, 2, 67, 0
6, 42496, Note_on_c, 2, 60, 57
6, 42496, Note_on_c, 2, 64, 57
6, 42496, Note_on_c, 2, 71, 42
6, 42496, Note_on_c, 2, 57, 37
6, 42496, Note_on_c, 2, 67, 34
6, 42560, Note_on_c, 2, 67, 0
6, 42560, Note_on_c, 2, 71, 0
6, 42560, Note_on_c, 2, 60, 0
6, 42560, Note_on_c, 2, 64, 0
6, 42560, Note_on_c, 2, 57, 0
6, 42880, Note_on_c, 2, 68, 53
6, 42880, Note_on_c, 2, 76, 60
6, 42880, Note_on_c, 2, 71, 56
6, 42880, Note_on_c, 2, 64, 60
6, 42880, Note_on_c, 2, 56, 35
6, 43288, Note_on_c, 2, 64, 0
6, 43288, Note_on_c, 2, 76, 0
6, 43296, Note_on_c, 2, 68, 0
6, 43296, Note_on_c, 2, 71, 0
6, 43368, Note_on_c, 2, 56, 0
6, 43392, Note_on_c, 2, 64, 49
6, 43392, Note_on_c, 2, 74, 54
6, 43392, Note_on_c, 2, 68, 38
6, 43392, Note_on_c, 2, 60, 36
6, 43392, Note_on_c, 2, 54, 29
6, 43456, Note_on_c, 2, 60, 0
6, 43496, Note_on_c, 2, 54, 0
6, 43520, Note_on_c, 2, 74, 0
6, 43532, Note_on_c, 2, 64, 0
6, 43536, Note_on_c, 2, 68, 0
6, 43776, Note_on_c, 2, 73, 49
6, 43776, Note_on_c, 2, 64, 46
6, 43776, Note_on_c, 2, 54, 31
6, 43776, Note_on_c, 2, 68, 42
6, 43924, Note_on_c, 2, 68, 0
6, 43936, Note_on_c, 2, 64, 0
6, 43960, Note_on_c, 2, 54, 0
6, 43964, Note_on_c, 2, 73, 0
6, 44032, Note_on_c, 2, 64, 55
6, 44032, Note_on_c, 2, 68, 46
6, 44032, Note_on_c, 2, 74, 51
6, 44032, Note_on_c, 2, 60, 47
6, 44032, Note_on_c, 2, 54, 26
6, 44096, Note_on_c, 2, 54, 0
6, 44096, Note_on_c, 2, 74, 0
6, 44096, Note_on_c, 2, 64, 0
6, 44096, Note_on_c, 2, 68, 0
6, 44096, Note_on_c, 2, 60, 0
6, 44416, Note_on_c, 2, 70, 60
6, 44416, Note_on_c, 2, 69, 74
6, 44416, Note_on_c, 2, 74, 64
6, 44416, Note_on_c, 2, 77, 68
6, 44416, Note_on_c, 2, 62, 51
6, 44480, Note_on_c, 2, 62, 0
6, 44480, Note_on_c, 2, 74, 0
6, 44480, Note_on_c, 2, 70, 0
6, 44480, Note_on_c, 2, 69, 0
6, 44480, Note_on_c, 2, 77, 0
6, 44800, Note_on_c, 2, 70, 71
6, 44800, Note_on_c, 2, 65, 74
6, 44800, Note_on_c, 2, 74, 74
6, 45104, Note_on_c, 2, 70, 0
6, 45112, Note_on_c, 2, 74, 0
6, 45152, Note_on_c, 2, 65, 0
6, 45312, Note_on_c, 2, 70, 36
6, 45312, Note_on_c, 2, 62, 32
6, 45312, Note_on_c, 2, 65, 36
6, 45412, Note_on_c, 2, 65, 0
6, 45424, Note_on_c, 2, 62, 0
6, 45444, Note_on_c, 2, 70, 0
6, 45696, Note_on_c, 2, 62, 35
6, 45696, Note_on_c, 2, 65, 40
6, 45796, Note_on_c, 2, 65, 0
6, 45848, Note_on_c, 2, 62, 0
6, 46080, Note_on_c, 2, 69, 45
6, 46080, Note_on_c, 2, 58, 26
6, 46080, Note_on_c, 2, 62, 39
6, 46080, Note_on_c, 2, 65, 38
6, 46176, Note_on_c, 2, 69, 0
6, 46180, Note_on_c, 2, 62, 0
6, 46188, Note_on_c, 2, 65, 0
6, 46200, Note_on_c, 2, 58, 0
6, 46464, Note_on_c, 2, 58, 25
6, 46464, Note_on_c, 2, 69, 37
6, 46464, Note_on_c, 2, 62, 36
6, 46464, Note_on_c, 2, 65, 38
6, 46636, Note_on_c, 2, 65, 0
6, 46640, Note_on_c, 2, 62, 0
6, 46672, Note_on_c, 2, 69, 0
6, 46676, Note_on_c, 2, 58, 0
6, 46848, Note_on_c, 2, 69, 33
6, 46848, Note_on_c, 2, 58, 25
6, 46848, Note_on_c, 2, 64, 39
6, 46848, Note_on_c, 2, 61, 29
6, 46984, Note_on_c, 2, 69, 0
6, 47004, Note_on_c, 2, 64, 0
6, 47008, Note_on_c, 2, 58, 0
6, 47012, Note_on_c, 2, 61, 0
6, 47232, Note_on_c, 2, 58, 34
6, 47232, Note_on_c, 2, 61, 36
6, 47232, Note_on_c, 2, 69, 22
6, 47232, Note_on_c, 2, 64, 35
6, 47316, Note_on_c, 2, 64, 0
6, 47328, Note_on_c, 2, 61, 0
6, 47352, Note_on_c, 2, 58, 0
6, 47384, Note_on_c, 2, 69, 0
6, 47488, Note_on_c, 2, 69, 60
6, 47488, Note_on_c, 2, 60, 64
6, 47488, Note_on_c, 2, 65, 57
6, 47488, Note_on_c, 2, 64, 62
6, 47904, Note_on_c, 2, 60, 0
6, 47916, Note_on_c, 2, 69, 0
6, 47916, Note_on_c, 2, 65, 0
6, 47916, Note_on_c, 2, 64, 0
6, 48000, Note_on_c, 2, 60, 42
6, 48000, Note_on_c, 2, 69, 47
6, 48000, Note_on_c, 2, 64, 40
6, 48000, Note_on_c, 2, 65, 38
6, 48176, Note_on_c, 2, 65, 0
6, 48176, Note_on_c, 2, 60, 0
6, 48180, Note_on_c, 2, 69, 0
6, 48188, Note_on_c, 2, 64, 0
6, 48384, Note_on_c, 2, 69, 36
6, 48384, Note_on_c, 2, 64, 35
6, 48384, Note_on_c, 2, 65, 42
6, 48384, Note_on_c, 2, 60, 19
6, 48580, Note_on_c, 2, 60, 0
6, 48584, Note_on_c, 2, 64, 0
6, 48588, Note_on_c, 2, 65, 0
6, 48588, Note_on_c, 2, 69, 0
6, 48640, Note_on_c, 2, 60, 51
6, 48640, Note_on_c, 2, 64, 54
6, 48640, Note_on_c, 2, 69, 48
6, 48640, Note_on_c, 2, 65, 40
6, 48704, Note_on_c, 2, 65, 0
6, 48704, Note_on_c, 2, 60, 0
6, 48704, Note_on_c, 2, 64, 0
6, 48704, Note_on_c, 2, 69, 0
6, 49024, Note_on_c, 2, 69, 72
6, 49024, Note_on_c, 2, 58, 57
6, 49024, Note_on_c, 2, 62, 67
6, 49024, Note_on_c, 2, 65, 61
6, 49688, Note_on_c, 2, 62, 0
6, 49692, Note_on_c, 2, 65, 0
6, 49716, Note_on_c, 2, 58, 0
6, 49728, Note_on_c, 2, 69, 0
6, 49792, Note_on_c, 2, 69, 63
6, 49792, Note_on_c, 2, 61, 63
6, 49792, Note_on_c, 2, 58, 56
6, 49792, Note_on_c, 2, 64, 66
6, 50096, Note_on_c, 2, 69, 0
6, 50200, Note_on_c, 2, 58, 0
6, 50204, Note_on_c, 2, 61, 0
6, 50204, Note_on_c, 2, 64, 0
6, 50304, Note_on_c, 2, 61, 56
6, 50304, Note_on_c, 2, 58, 42
6, 50304, Note_on_c, 2, 68, 50
6, 50592, Note_on_c, 2, 58, 0
6, 50620, Note_on_c, 2, 68, 0
6, 50624, Note_on_c, 2, 61, 0
6, 50688, Note_on_c, 2, 58, 39
6, 50688, Note_on_c, 2, 62, 55
6, 50688, Note_on_c, 2, 69, 34
6, 50688, Note_on_c, 2, 65, 44
6, 50752, Note_on_c, 2, 65, 0
6, 50752, Note_on_c, 2, 69, 0
6, 50752, Note_on_c, 2, 62, 0
6, 50756, Note_on_c, 2, 58, 0
6, 51072, Note_on_c, 2, 58, 29
6, 51072, Note_on_c, 2, 65, 24
6, 51276, Note_on_c, 2, 65, 0
6, 51300, Note_on_c, 2, 58, 0
6, 51456, Note_on_c, 2, 58, 27
6, 51456, Note_on_c, 2, 69, 24
6, 51456, Note_on_c, 2, 62, 33
6, 51456, Note_on_c, 2, 65, 27
6, 51600, Note_on_c, 2, 69, 0
6, 51604, Note_on_c, 2, 62, 0
6, 51620, Note_on_c, 2, 58, 0
6, 51620, Note_on_c, 2, 65, 0
6, 51840, Note_on_c, 2, 58, 31
6, 51840, Note_on_c, 2, 62, 39
6, 51840, Note_on_c, 2, 65, 37
6, 51840, Note_on_c, 2, 69, 30
6, 52000, Note_on_c, 2, 69, 0
6, 52004, Note_on_c, 2, 62, 0
6, 52012, Note_on_c, 2, 58, 0
6, 52016, Note_on_c, 2, 65, 0
6, 52224, Note_on_c, 2, 69, 40
6, 52224, Note_on_c, 2, 62, 32
6, 52224, Note_on_c, 2, 65, 34
6, 52224, Note_on_c, 2, 58, 14
6, 52372, Note_on_c, 2, 65, 0
6, 52372, Note_on_c, 2, 69, 0
6, 52376, Note_on_c, 2, 62, 0
6, 52384, Note_on_c, 2, 58, 0
6, 52608, Note_on_c, 2, 58, 29
6, 52608, Note_on_c, 2, 69, 32
6, 52608, Note_on_c, 2, 62, 36
6, 52608, Note_on_c, 2, 65, 42
6, 52776, Note_on_c, 2, 62, 0
6, 52776, Note_on_c, 2, 58, 0
6, 52780, Note_on_c, 2, 69, 0
6, 52784, Note_on_c, 2, 65, 0
6, 52992, Note_on_c, 2, 58, 31
6, 52992, Note_on_c, 2, 69, 38
6, 52992, Note_on_c, 2, 62, 35
6, 52992, Note_on_c, 2, 64, 32
6, 53128, Note_on_c, 2, 62, 0
6, 53152, Note_on_c, 2, 69, 0
6, 53156, Note_on_c, 2, 64, 0
6, 53168, Note_on_c, 2, 58, 0
6, 53376, Note_on_c, 2, 64, 37
6, 53376, Note_on_c, 2, 69, 24
6, 53376, Note_on_c, 2, 58, 14
6, 53376, Note_on_c, 2, 62, 34
6, 53532, Note_on_c, 2, 64, 0
6, 53564, Note_on_c, 2, 62, 0
6, 53564, Note_on_c, 2, 58, 0
6, 53572, Note_on_c, 2, 69, 0
6, 53632, Note_on_c, 2, 69, 69
6, 53632, Note_on_c, 2, 62, 68
6, 53632, Note_on_c, 2, 58, 60
6, 53632, Note_on_c, 2, 65, 66
6, 54048, Note_on_c, 2, 58, 0
6, 54052, Note_on_c, 2, 62, 0
6, 54056, Note_on_c, 2, 69, 0
6, 54064, Note_on_c, 2, 65, 0
6, 54144, Note_on_c, 2, 58, 38
6, 54144, Note_on_c, 2, 69, 40
6, 54144, Note_on_c, 2, 62, 45
6, 54144, Note_on_c, 2, 65, 32
6, 54244, Note_on_c, 2, 69, 0
6, 54256, Note_on_c, 2, 62, 0
6, 54264, Note_on_c, 2, 58, 0
6, 54264, Note_on_c, 2, 65, 0
6, 54528, Note_on_c, 2, 58, 25
6, 54528, Note_on_c, 2, 69, 28
6, 54528, Note_on_c, 2, 65, 39
6, 54528, Note_on_c, 2, 62, 39
6, 54644, Note_on_c, 2, 69, 0
6, 54656, Note_on_c, 2, 62, 0
6, 54656, Note_on_c, 2, 65, 0
6, 54664, Note_on_c, 2, 58, 0
6, 54912, Note_on_c, 2, 65, 39
6, 54912, Note_on_c, 2, 58, 19
6, 54912, Note_on_c, 2, 62, 31
6, 54912, Note_on_c, 2, 69, 17
6, 55064, Note_on_c, 2, 65, 0
6, 55072, Note_on_c, 2, 62, 0
6, 55080, Note_on_c, 2, 58, 0
6, 55088, Note_on_c, 2, 69, 0
6, 55296, Note_on_c, 2, 58, 25
6, 55296, Note_on_c, 2, 62, 37
6, 55296, Note_on_c, 2, 69, 15
6, 55296, Note_on_c, 2, 64, 27
6, 55360, Note_on_c, 2, 62, 0
6, 55364, Note_on_c, 2, 58, 0
6, 55372, Note_on_c, 2, 64, 0
6, 55392, Note_on_c, 2, 69, 0
6, 55680, Note_on_c, 2, 72, 46
6, 55680, Note_on_c, 2, 69, 45
6, 55680, Note_on_c, 2, 62, 42
6, 55680, Note_on_c, 2, 65, 47
6, 55680, Note_on_c, 2, 58, 23
6, 55744, Note_on_c, 2, 65, 0
6, 55744, Note_on_c, 2, 62, 0
6, 55748, Note_on_c, 2, 58, 0
6, 55768, Note_on_c, 2, 72, 0
6, 55772, Note_on_c, 2, 69, 0
6, 56064, Note_on_c, 2, 69, 39
6, 56064, Note_on_c, 2, 66, 35
6, 56064, Note_on_c, 2, 72, 34
6, 56064, Note_on_c, 2, 62, 34
6, 56064, Note_on_c, 2, 58, 36
6, 56264, Note_on_c, 2, 58, 0
6, 56300, Note_on_c, 2, 69, 0
6, 56308, Note_on_c, 2, 62, 0
6, 56316, Note_on_c, 2, 66, 0
6, 56324, Note_on_c, 2, 72, 0
6, 56448, Note_on_c, 2, 66, 42
6, 56448, Note_on_c, 2, 62, 51
6, 56448, Note_on_c, 2, 58, 39
6, 56448, Note_on_c, 2, 69, 43
6, 56448, Note_on_c, 2, 72, 34
6, 56600, Note_on_c, 2, 72, 0
6, 56620, Note_on_c, 2, 62, 0
6, 56652, Note_on_c, 2, 66, 0
6, 56672, Note_on_c, 2, 69, 0
6, 56680, Note_on_c, 2, 58, 0
6, 56704, Note_on_c, 2, 57, 42
6, 56704, Note_on_c, 2, 62, 47
6, 56704, Note_on_c, 2, 67, 54
6, 56704, Note_on_c, 2, 72, 42
6, 57088, Note_on_c, 2, 67, 0
6, 57092, Note_on_c, 2, 62, 0
6, 57124, Note_on_c, 2, 72, 0
6, 57216, Note_on_c, 2, 61, 39
6, 57216, Note_on_c, 2, 66, 39
6, 57216, Note_on_c, 2, 71, 29
6, 57216, Note_on_c, 2, 56, 33
6, 57236, Note_on_c, 2, 57, 0
6, 57332, Note_on_c, 2, 61, 0
6, 57348, Note_on_c, 2, 71, 0
6, 57364, Note_on_c, 2, 66, 0
6, 57456, Note_on_c, 2, 56, 0
6, 57600, Note_on_c, 2, 72, 36
6, 57600, Note_on_c, 2, 62, 38
6, 57600, Note_on_c, 2, 67, 46
6, 57600, Note_on_c, 2, 57, 31
6, 57732, Note_on_c, 2, 57, 0
6, 57736, Note_on_c, 2, 67, 0
6, 57744, Note_on_c, 2, 62, 0
6, 57744, Note_on_c, 2, 72, 0
6, 57984, Note_on_c, 2, 62, 40
6, 57984, Note_on_c, 2, 67, 48
6, 57984, Note_on_c, 2, 72, 28
6, 57984, Note_on_c, 2, 57, 36
6, 58108, Note_on_c, 2, 62, 0
6, 58120, Note_on_c, 2, 67, 0
6, 58140, Note_on_c, 2, 72, 0
6, 58160, Note_on_c, 2, 57, 0
6, 58752, Note_on_c, 2, 56, 65
6, 58752, Note_on_c, 2, 72, 71
6, 58752, Note_on_c, 2, 76, 78
6, 58752, Note_on_c, 2, 67, 49
6, 58752, Note_on_c, 2, 62, 48
6, 58752, Note_on_c, 2, 69, 63
6, 58816, Note_on_c, 2, 69, 0
6, 58856, Note_on_c, 2, 62, 0
6, 58864, Note_on_c, 2, 56, 0
6, 58868, Note_on_c, 2, 67, 0
6, 58872, Note_on_c, 2, 72, 0
6, 58876, Note_on_c, 2, 76, 0
6, 59008, Note_on_c, 2, 72, 66
6, 59008, Note_on_c, 2, 67, 69
6, 59008, Note_on_c, 2, 62, 62
6, 59008, Note_on_c, 2, 76, 60
6, 59008, Note_on_c, 2, 56, 49
6, 59072, Note_on_c, 2, 56, 0
6, 59072, Note_on_c, 2, 62, 0
6, 59072, Note_on_c, 2, 72, 0
6, 59072, Note_on_c, 2, 67, 0
6, 59072, Note_on_c, 2, 76, 0
6, 59392, Note_on_c, 2, 72, 60
6, 59392, Note_on_c, 2, 67, 66
6, 59392, Note_on_c, 2, 64, 64
6, 59392, Note_on_c, 2, 56, 54
6, 59696, Note_on_c, 2, 72, 0
6, 59708, Note_on_c, 2, 67, 0
6, 59768, Note_on_c, 2, 64, 0
6, 59864, Note_on_c, 2, 56, 0
6, 59904, Note_on_c, 2, 60, 36
6, 59904, Note_on_c, 2, 64, 37
6, 59904, Note_on_c, 2, 69, 53
6, 59904, Note_on_c, 2, 57, 46
6, 59968, Note_on_c, 2, 57, 0
6, 59968, Note_on_c, 2, 60, 0
6, 59968, Note_on_c, 2, 64, 0
6, 59968, Note_on_c, 2, 69, 0
6, 60672, Note_on_c, 2, 57, 35
6, 60672, Note_on_c, 2, 67, 39
6, 60672, Note_on_c, 2, 62, 17
6, 60672, Note_on_c, 2, 72, 26
6, 60796, Note_on_c, 2, 72, 0
6, 60800, Note_on_c, 2, 62, 0
6, 60800, Note_on_c, 2, 57, 0
6, 60804, Note_on_c, 2, 67, 0
6, 61056, Note_on_c, 2, 67, 45
6, 61056, Note_on_c, 2, 62, 37
6, 61056, Note_on_c, 2, 72, 36
6, 61056, Note_on_c, 2, 57, 32
6, 61204, Note_on_c, 2, 72, 0
6, 61228, Note_on_c, 2, 67, 0
6, 61268, Note_on_c, 2, 62, 0
6, 61364, Note_on_c, 2, 57, 0
6, 61440, Note_on_c, 2, 68, 25
6, 61440, Note_on_c, 2, 56, 26
6, 61440, Note_on_c, 2, 71, 17
6, 61440, Note_on_c, 2, 62, 7
6, 61604, Note_on_c, 2, 71, 0
6, 61632, Note_on_c, 2, 62, 0
6, 61660, Note_on_c, 2, 68, 0
6, 61716, Note_on_c, 2, 56, 0
6, 61824, Note_on_c, 2, 68, 69
6, 61824, Note_on_c, 2, 62, 71
6, 61824, Note_on_c, 2, 71, 71
6, 61824, Note_on_c, 2, 56, 51
6, 62096, Note_on_c, 2, 68, 0
6, 62112, Note_on_c, 2, 62, 0
6, 62140, Note_on_c, 2, 56, 0
6, 62168, Note_on_c, 2, 71, 0
6, 62208, Note_on_c, 2, 56, 32
6, 62208, Note_on_c, 2, 62, 33
6, 62208, Note_on_c, 2, 68, 34
6, 62396, Note_on_c, 2, 56, 0
6, 62432, Note_on_c, 2, 62, 0
6, 62464, Note_on_c, 2, 54, 50
6, 62492, Note_on_c, 2, 68, 0
6, 62540, Note_on_c, 2, 54, 0
6, 62592, Note_on_c, 2, 61, 65
6, 62592, Note_on_c, 2, 68, 49
6, 62592, Note_on_c, 2, 56, 52
6, 62592, Note_on_c, 2, 70, 57
6, 62592, Note_on_c, 2, 65, 58
6, 62764, Note_on_c, 2, 65, 0
6, 62800, Note_on_c, 2, 70, 0
6, 62804, Note_on_c, 2, 61, 0
6, 62808, Note_on_c, 2, 68, 0
6, 62840, Note_on_c, 2, 56, 0
6, 62848, Note_on_c, 2, 70, 40
6, 62848, Note_on_c, 2, 62, 44
6, 62848, Note_on_c, 2, 55, 62
6, 62848, Note_on_c, 2, 65, 36
6, 63140, Note_on_c, 2, 65, 0
6, 63160, Note_on_c, 2, 70, 0
6, 63212, Note_on_c, 2, 62, 0
6, 63288, Note_on_c, 2, 55, 0
6, 63360, Note_on_c, 2, 58, 42
6, 63360, Note_on_c, 2, 69, 37
6, 63360, Note_on_c, 2, 62, 38
6, 63360, Note_on_c, 2, 55, 48
6, 63360, Note_on_c, 2, 65, 42
6, 63520, Note_on_c, 2, 55, 0
6, 63524, Note_on_c, 2, 65, 0
6, 63532, Note_on_c, 2, 69, 0
6, 63536, Note_on_c, 2, 58, 0
6, 63552, Note_on_c, 2, 62, 0
6, 63744, Note_on_c, 2, 65, 47
6, 63744, Note_on_c, 2, 58, 30
6, 63744, Note_on_c, 2, 55, 29
6, 63744, Note_on_c, 2, 62, 35
6, 63848, Note_on_c, 2, 58, 0
6, 63860, Note_on_c, 2, 62, 0
6, 63872, Note_on_c, 2, 65, 0
6, 63880, Note_on_c, 2, 55, 0
6, 64128, Note_on_c, 2, 58, 37
6, 64128, Note_on_c, 2, 69, 36
6, 64128, Note_on_c, 2, 62, 47
6, 64128, Note_on_c, 2, 55, 43
6, 64128, Note_on_c, 2, 65, 36
6, 64228, Note_on_c, 2, 58, 0
6, 64244, Note_on_c, 2, 55, 0
6, 64252, Note_on_c, 2, 65, 0
6, 64260, Note_on_c, 2, 62, 0
6, 64276, Note_on_c, 2, 69, 0
6, 64512, Note_on_c, 2, 64, 41
6, 64512, Note_on_c, 2, 68, 38
6, 64512, Note_on_c, 2, 72, 37
6, 64512, Note_on_c, 2, 58, 36
6, 64628, Note_on_c, 2, 64, 0
6, 64636, Note_on_c, 2, 58, 0
6, 64652, Note_on_c, 2, 68, 0
6, 64660, Note_on_c, 2, 72, 0
6, 64896, Note_on_c, 2, 76, 58
6, 64896, Note_on_c, 2, 58, 42
6, 64896, Note_on_c, 2, 68, 53
6, 64896, Note_on_c, 2, 64, 36
6, 64896, Note_on_c, 2, 72, 53
6, 65052, Note_on_c, 2, 68, 0
6, 65056, Note_on_c, 2, 76, 0
6, 65064, Note_on_c, 2, 72, 0
6, 65064, Note_on_c, 2, 64, 0
6, 65068, Note_on_c, 2, 58, 0
6, 65280, Note_on_c, 2, 68, 56
6, 65280, Note_on_c, 2, 76, 54
6, 65280, Note_on_c, 2, 64, 36
6, 65280, Note_on_c, 2, 58, 40
6, 65280, Note_on_c, 2, 72, 47
6, 65348, Note_on_c, 2, 64, 0
6, 65384, Note_on_c, 2, 58, 0
6, 65396, Note_on_c, 2, 72, 0
6, 65428, Note_on_c, 2, 68, 0
6, 65472, Note_on_c, 2, 76, 0
6, 65536, Note_on_c, 2, 67, 52
6, 65536, Note_on_c, 2, 56, 57
6, 65536, Note_on_c, 2, 62, 58
6, 65536, Note_on_c, 2, 72, 65
6, 65884, Note_on_c, 2, 72, 0
6, 65896, Note_on_c, 2, 67, 0
6, 65976, Note_on_c, 2, 62, 0
6, 66048, Note_on_c, 2, 71, 48
6, 66048, Note_on_c, 2, 60, 36
6, 66048, Note_on_c, 2, 64, 47
6, 66048, Note_on_c, 2, 67, 25
6, 66048, Note_on_c, 2, 57, 28
6, 66068, Note_on_c, 2, 56, 0
6, 66120, Note_on_c, 2, 60, 0
6, 66136, Note_on_c, 2, 71, 0
6, 66140, Note_on_c, 2, 64, 0
6, 66144, Note_on_c, 2, 57, 0
6, 66156, Note_on_c, 2, 67, 0
6, 66432, Note_on_c, 2, 60, 38
6, 66432, Note_on_c, 2, 71, 42
6, 66432, Note_on_c, 2, 64, 48
6, 66432, Note_on_c, 2, 57, 32
6, 66432, Note_on_c, 2, 67, 37
6, 66624, Note_on_c, 2, 67, 0
6, 66632, Note_on_c, 2, 71, 0
6, 66640, Note_on_c, 2, 64, 0
6, 66644, Note_on_c, 2, 60, 0
6, 66656, Note_on_c, 2, 57, 0
6, 66816, Note_on_c, 2, 70, 48
6, 66816, Note_on_c, 2, 60, 30
6, 66816, Note_on_c, 2, 64, 40
6, 66816, Note_on_c, 2, 56, 27
6, 66976, Note_on_c, 2, 64, 0
6, 66996, Note_on_c, 2, 60, 0
6, 67004, Note_on_c, 2, 70, 0
6, 67016, Note_on_c, 2, 56, 0
6, 67072, Note_on_c, 2, 66, 38
6, 67072, Note_on_c, 2, 60, 42
6, 67072, Note_on_c, 2, 71, 49
6, 67072, Note_on_c, 2, 57, 36
6, 67072, Note_on_c, 2, 64, 35
6, 67200, Note_on_c, 2, 60, 0
6, 67204, Note_on_c, 2, 64, 0
6, 67220, Note_on_c, 2, 66, 0
6, 67232, Note_on_c, 2, 71, 0
6, 67396, Note_on_c, 2, 57, 0
6, 67456, Note_on_c, 2, 74, 73
6, 67456, Note_on_c, 2, 71, 66
6, 67456, Note_on_c, 2, 68, 59
6, 67456, Note_on_c, 2, 64, 68
6, 67456, Note_on_c, 2, 62, 58
6, 67864, Note_on_c, 2, 64, 0
6, 67868, Note_on_c, 2, 68, 0
6, 67868, Note_on_c, 2, 74, 0
6, 67896, Note_on_c, 2, 71, 0
6, 67908, Note_on_c, 2, 62, 0
6, 67968, Note_on_c, 2, 62, 33
6, 67968, Note_on_c, 2, 71, 34
6, 67968, Note_on_c, 2, 64, 36
6, 67968, Note_on_c, 2, 74, 30
6, 67968, Note_on_c, 2, 68, 43
6, 68132, Note_on_c, 2, 64, 0
6, 68132, Note_on_c, 2, 62, 0
6, 68140, Note_on_c, 2, 68, 0
6, 68140, Note_on_c, 2, 74, 0
6, 68152, Note_on_c, 2, 71, 0
6, 68352, Note_on_c, 2, 64, 38
6, 68352, Note_on_c, 2, 68, 44
6, 68352, Note_on_c, 2, 62, 37
6, 68352, Note_on_c, 2, 71, 40
6, 68352, Note_on_c, 2, 74, 28
6, 68476, Note_on_c, 2, 62, 0
6, 68508, Note_on_c, 2, 74, 0
6, 68508, Note_on_c, 2, 68, 0
6, 68512, Note_on_c, 2, 64, 0
6, 68524, Note_on_c, 2, 71, 0
6, 68736, Note_on_c, 2, 64, 46
6, 68736, Note_on_c, 2, 62, 35
6, 68736, Note_on_c, 2, 72, 32
6, 68736, Note_on_c, 2, 69, 45
6, 68800, Note_on_c, 2, 69, 0
6, 68800, Note_on_c, 2, 64, 0
6, 68800, Note_on_c, 2, 62, 0
6, 68800, Note_on_c, 2, 72, 0
6, 68992, Note_on_c, 2, 57, 58
6, 68992, Note_on_c, 2, 62, 61
6, 68992, Note_on_c, 2, 66, 50
6, 68992, Note_on_c, 2, 63, 30
6, 69056, Note_on_c, 2, 63, 0
6, 69400, Note_on_c, 2, 57, 0
6, 69420, Note_on_c, 2, 62, 0
6, 69448, Note_on_c, 2, 66, 0
6, 69504, Note_on_c, 2, 57, 42
6, 69504, Note_on_c, 2, 62, 40
6, 69504, Note_on_c, 2, 66, 28
6, 69608, Note_on_c, 2, 57, 0
6, 69612, Note_on_c, 2, 62, 0
6, 69676, Note_on_c, 2, 66, 0
6, 69888, Note_on_c, 2, 66, 33
6, 69888, Note_on_c, 2, 57, 32
6, 69888, Note_on_c, 2, 62, 43
6, 69888, Note_on_c, 2, 61, 35
6, 70008, Note_on_c, 2, 57, 0
6, 70020, Note_on_c, 2, 66, 0
6, 70040, Note_on_c, 2, 62, 0
6, 70052, Note_on_c, 2, 61, 0
6, 70272, Note_on_c, 2, 66, 37
6, 70272, Note_on_c, 2, 57, 39
6, 70272, Note_on_c, 2, 61, 31
6, 70272, Note_on_c, 2, 62, 51
6, 70432, Note_on_c, 2, 57, 0
6, 70440, Note_on_c, 2, 62, 0
6, 70472, Note_on_c, 2, 61, 0
6, 70472, Note_on_c, 2, 66, 0
6, 70656, Note_on_c, 2, 56, 53
6, 70656, Note_on_c, 2, 62, 41
6, 70656, Note_on_c, 2, 66, 35
6, 70720, Note_on_c, 2, 62, 0
6, 70720, Note_on_c, 2, 56, 0
6, 70724, Note_on_c, 2, 66, 0
6, 70912, Note_on_c, 2, 56, 56
6, 70912, Note_on_c, 2, 72, 79
6, 70912, Note_on_c, 2, 62, 61
6, 70912, Note_on_c, 2, 76, 79
6, 70912, Note_on_c, 2, 67, 80
6, 71308, Note_on_c, 2, 62, 0
6, 71324, Note_on_c, 2, 67, 0
6, 71348, Note_on_c, 2, 76, 0
6, 71356, Note_on_c, 2, 56, 0
6, 71360, Note_on_c, 2, 72, 0
6, 71424, Note_on_c, 2, 56, 46
6, 71424, Note_on_c, 2, 74, 53
6, 71424, Note_on_c, 2, 70, 50
6, 71424, Note_on_c, 2, 65, 29
6, 71424, Note_on_c, 2, 62, 22
6, 71500, Note_on_c, 2, 62, 0
6, 71512, Note_on_c, 2, 74, 0
6, 71520, Note_on_c, 2, 70, 0
6, 71524, Note_on_c, 2, 56, 0
6, 71544, Note_on_c, 2, 65, 0
6, 71808, Note_on_c, 2, 62, 34
6, 71808, Note_on_c, 2, 70, 34
6, 71808, Note_on_c, 2, 56, 37
6, 71808, Note_on_c, 2, 65, 38
6, 71872, Note_on_c, 2, 56, 0
6, 71896, Note_on_c, 2, 70, 0
6, 71904, Note_on_c, 2, 65, 0
6, 71940, Note_on_c, 2, 62, 0
6, 72192, Note_on_c, 2, 64, 43
6, 72192, Note_on_c, 2, 61, 34
6, 72192, Note_on_c, 2, 59, 35
6, 72192, Note_on_c, 2, 54, 18
6, 72256, Note_on_c, 2, 54, 0
6, 72256, Note_on_c, 2, 59, 0
6, 72272, Note_on_c, 2, 61, 0
6, 72276, Note_on_c, 2, 64, 0
6, 72576, Note_on_c, 2, 76, 49
6, 72576, Note_on_c, 2, 73, 38
6, 72576, Note_on_c, 2, 66, 23
6, 72576, Note_on_c, 2, 71, 42
6, 72816, Note_on_c, 2, 76, 0
6, 72832, Note_on_c, 2, 71, 0
6, 72836, Note_on_c, 2, 66, 0
6, 72840, Note_on_c, 2, 73, 0
6, 72960, Note_on_c, 2, 76, 47
6, 72960, Note_on_c, 2, 66, 26
6, 72960, Note_on_c, 2, 73, 34
6, 72960, Note_on_c, 2, 71, 45
6, 73124, Note_on_c, 2, 76, 0
6, 73136, Note_on_c, 2, 71, 0
6, 73144, Note_on_c, 2, 66, 0
6, 73168, Note_on_c, 2, 73, 0
6, 73216, Note_on_c, 2, 76, 55
6, 73216, Note_on_c, 2, 66, 42
6, 73216, Note_on_c, 2, 73, 38
6, 73216, Note_on_c, 2, 71, 52
6, 73280, Note_on_c, 2, 71, 0
6, 73280, Note_on_c, 2, 76, 0
6, 73280, Note_on_c, 2, 66, 0
6, 73280, Note_on_c, 2, 73, 0
6, 73600, Note_on_c, 2, 74, 80
6, 73600, Note_on_c, 2, 67, 73
6, 73600, Note_on_c, 2, 63, 70
6, 73600, Note_on_c, 2, 69, 64
6, 73600, Note_on_c, 2, 62, 67
6, 73664, Note_on_c, 2, 62, 0
6, 73668, Note_on_c, 2, 63, 0
6, 73676, Note_on_c, 2, 67, 0
6, 73680, Note_on_c, 2, 69, 0
6, 73684, Note_on_c, 2, 74, 0
6, 73984, Note_on_c, 2, 63, 69
6, 73984, Note_on_c, 2, 67, 64
6, 73984, Note_on_c, 2, 72, 57
6, 73984, Note_on_c, 2, 60, 55
6, 73984, Note_on_c, 2, 69, 56
6, 74240, Note_on_c, 2, 72, 0
6, 74240, Note_on_c, 2, 67, 0
6, 74256, Note_on_c, 2, 69, 0
6, 74368, Note_on_c, 2, 63, 0
6, 74412, Note_on_c, 2, 60, 0
6, 74496, Note_on_c, 2, 70, 50
6, 74496, Note_on_c, 2, 66, 39
6, 74496, Note_on_c, 2, 58, 33
6, 74496, Note_on_c, 2, 64, 54
6, 74496, Note_on_c, 2, 60, 27
6, 74572, Note_on_c, 2, 64, 0
6, 74580, Note_on_c, 2, 60, 0
6, 74588, Note_on_c, 2, 66, 0
6, 74592, Note_on_c, 2, 58, 0
6, 74596, Note_on_c, 2, 70, 0
6, 74880, Note_on_c, 2, 60, 43
6, 74880, Note_on_c, 2, 64, 45
6, 74880, Note_on_c, 2, 66, 34
6, 74880, Note_on_c, 2, 69, 36
6, 74880, Note_on_c, 2, 57, 24
6, 74948, Note_on_c, 2, 57, 0
6, 74952, Note_on_c, 2, 64, 0
6, 74956, Note_on_c, 2, 69, 0
6, 74976, Note_on_c, 2, 66, 0
6, 75004, Note_on_c, 2, 60, 0
6, 75264, Note_on_c, 2, 69, 44
6, 75264, Note_on_c, 2, 58, 26
6, 75264, Note_on_c, 2, 62, 39
6, 75264, Note_on_c, 2, 65, 40
6, 75344, Note_on_c, 2, 69, 0
6, 75352, Note_on_c, 2, 62, 0
6, 75360, Note_on_c, 2, 58, 0
6, 75360, Note_on_c, 2, 65, 0
6, 75648, Note_on_c, 2, 69, 39
6, 75648, Note_on_c, 2, 58, 21
6, 75648, Note_on_c, 2, 62, 32
6, 75648, Note_on_c, 2, 65, 33
6, 75780, Note_on_c, 2, 69, 0
6, 75792, Note_on_c, 2, 65, 0
6, 75792, Note_on_c, 2, 62, 0
6, 75800, Note_on_c, 2, 58, 0
6, 76032, Note_on_c, 2, 69, 50
6, 76032, Note_on_c, 2, 58, 30
6, 76032, Note_on_c, 2, 62, 35
6, 76032, Note_on_c, 2, 65, 39
6, 76292, Note_on_c, 2, 65, 0
6, 76296, Note_on_c, 2, 62, 0
6, 76304, Note_on_c, 2, 58, 0
6, 76328, Note_on_c, 2, 69, 0
6, 76416, Note_on_c, 2, 58, 28
6, 76416, Note_on_c, 2, 65, 36
6, 76416, Note_on_c, 2, 62, 27
6, 76480, Note_on_c, 2, 62, 0
6, 76480, Note_on_c, 2, 65, 0
6, 76480, Note_on_c, 2, 58, 0
6, 76800, Note_on_c, 2, 69, 32
6, 76800, Note_on_c, 2, 65, 32
6, 76800, Note_on_c, 2, 62, 32
6, 76800, Note_on_c, 2, 58, 10
6, 76888, Note_on_c, 2, 69, 0
6, 76908, Note_on_c, 2, 58, 0
6, 76908, Note_on_c, 2, 62, 0
6, 76912, Note_on_c, 2, 65, 0
6, 77184, Note_on_c, 2, 58, 29
6, 77184, Note_on_c, 2, 65, 45
6, 77184, Note_on_c, 2, 62, 37
6, 77304, Note_on_c, 2, 62, 0
6, 77320, Note_on_c, 2, 65, 0
6, 77328, Note_on_c, 2, 58, 0
6, 77568, Note_on_c, 2, 58, 33
6, 77568, Note_on_c, 2, 69, 33
6, 77568, Note_on_c, 2, 62, 42
6, 77568, Note_on_c, 2, 65, 42
6, 77720, Note_on_c, 2, 69, 0
6, 77724, Note_on_c, 2, 58, 0
6, 77728, Note_on_c, 2, 65, 0
6, 77736, Note_on_c, 2, 62, 0
6, 77952, Note_on_c, 2, 69, 78
6, 77952, Note_on_c, 2, 58, 67
6, 77952, Note_on_c, 2, 64, 69
6, 77952, Note_on_c, 2, 62, 72
6, 78132, Note_on_c, 2, 64, 0
6, 78148, Note_on_c, 2, 62, 0
6, 78160, Note_on_c, 2, 69, 0
6, 78172, Note_on_c, 2, 58, 0
6, 78336, Note_on_c, 2, 65, 36
6, 78336, Note_on_c, 2, 62, 30
6, 78336, Note_on_c, 2, 58, 5
6, 78480, Note_on_c, 2, 62, 0
6, 78484, Note_on_c, 2, 58, 0
6, 78484, Note_on_c, 2, 65, 0
6, 78720, Note_on_c, 2, 58, 23
6, 78720, Note_on_c, 2, 69, 28
6, 78720, Note_on_c, 2, 62, 36
6, 78720, Note_on_c, 2, 65, 36
6, 78868, Note_on_c, 2, 62, 0
6, 78868, Note_on_c, 2, 69, 0
6, 78872, Note_on_c, 2, 65, 0
6, 78876, Note_on_c, 2, 58, 0
6, 79104, Note_on_c, 2, 62, 34
6, 79104, Note_on_c, 2, 65, 31
6, 79104, Note_on_c, 2, 58, 6
6, 79276, Note_on_c, 2, 62, 0
6, 79292, Note_on_c, 2, 65, 0
6, 79312, Note_on_c, 2, 58, 0
6, 79488, Note_on_c, 2, 58, 69
6, 79488, Note_on_c, 2, 69, 72
6, 79488, Note_on_c, 2, 62, 69
6, 79488, Note_on_c, 2, 65, 64
6, 79668, Note_on_c, 2, 65, 0
6, 79676, Note_on_c, 2, 62, 0
6, 79692, Note_on_c, 2, 69, 0
6, 79692, Note_on_c, 2, 58, 0
6, 79872, Note_on_c, 2, 69, 37
6, 79872, Note_on_c, 2, 62, 31
6, 79872, Note_on_c, 2, 64, 31
6, 79964, Note_on_c, 2, 62, 0
6, 79976, Note_on_c, 2, 69, 0
6, 79984, Note_on_c, 2, 64, 0
6, 80256, Note_on_c, 2, 69, 74
6, 80256, Note_on_c, 2, 58, 68
6, 80256, Note_on_c, 2, 62, 71
6, 80256, Note_on_c, 2, 64, 67
6, 80468, Note_on_c, 2, 64, 0
6, 80468, Note_on_c, 2, 62, 0
6, 80480, Note_on_c, 2, 69, 0
6, 80488, Note_on_c, 2, 58, 0
6, 80640, Note_on_c, 2, 58, 23
6, 80640, Note_on_c, 2, 62, 30
6, 80640, Note_on_c, 2, 64, 38
6, 80800, Note_on_c, 2, 62, 0
6, 80816, Note_on_c, 2, 64, 0
6, 80828, Note_on_c, 2, 58, 0
6, 81024, Note_on_c, 2, 58, 56
6, 81024, Note_on_c, 2, 64, 59
6, 81024, Note_on_c, 2, 62, 60
6, 81024, Note_on_c, 2, 69, 55
6, 81196, Note_on_c, 2, 62, 0
6, 81216, Note_on_c, 2, 69, 0
6, 81220, Note_on_c, 2, 58, 0
6, 81272, Note_on_c, 2, 64, 0
6, 81408, Note_on_c, 2, 62, 45
6, 81408, Note_on_c, 2, 57, 46
6, 81408, Note_on_c, 2, 67, 19
6, 81512, Note_on_c, 2, 57, 0
6, 81516, Note_on_c, 2, 67, 0
6, 81528, Note_on_c, 2, 62, 0
6, 81792, Note_on_c, 2, 57, 44
6, 81792, Note_on_c, 2, 62, 49
6, 81792, Note_on_c, 2, 67, 43
6, 81792, Note_on_c, 2, 64, 44
6, 81948, Note_on_c, 2, 57, 0
6, 82000, Note_on_c, 2, 62, 0
6, 82004, Note_on_c, 2, 67, 0
6, 82004, Note_on_c, 2, 64, 0
6, 82176, Note_on_c, 2, 62, 56
6, 82176, Note_on_c, 2, 57, 48
6, 82176, Note_on_c, 2, 67, 60
6, 82176, Note_on_c, 2, 72, 51
6, 82400, Note_on_c, 2, 67, 0
6, 82404, Note_on_c, 2, 62, 0
6, 82408, Note_on_c, 2, 72, 0
6, 82424, Note_on_c, 2, 57, 0
6, 82560, Note_on_c, 2, 57, 38
6, 82560, Note_on_c, 2, 72, 46
6, 82560, Note_on_c, 2, 62, 50
6, 82560, Note_on_c, 2, 67, 57
6, 82724, Note_on_c, 2, 62, 0
6, 82728, Note_on_c, 2, 57, 0
6, 82756, Note_on_c, 2, 72, 0
6, 82768, Note_on_c, 2, 67, 0
6, 82816, Note_on_c, 2, 64, 62
6, 82816, Note_on_c, 2, 72, 49
6, 82816, Note_on_c, 2, 67, 55
6, 82816, Note_on_c, 2, 62, 44
6, 82816, Note_on_c, 2, 56, 35
6, 83200, Note_on_c, 2, 64, 0
6, 83204, Note_on_c, 2, 72, 0
6, 83216, Note_on_c, 2, 67, 0
6, 83224, Note_on_c, 2, 62, 0
6, 83252, Note_on_c, 2, 56, 0
6, 83328, Note_on_c, 2, 56, 34
6, 83328, Note_on_c, 2, 72, 36
6, 83328, Note_on_c, 2, 62, 26
6, 83328, Note_on_c, 2, 67, 42
6, 83328, Note_on_c, 2, 64, 32
6, 83496, Note_on_c, 2, 64, 0
6, 83524, Note_on_c, 2, 72, 0
6, 83524, Note_on_c, 2, 67, 0
6, 83536, Note_on_c, 2, 56, 0
6, 83572, Note_on_c, 2, 62, 0
6, 83712, Note_on_c, 2, 62, 40
6, 83712, Note_on_c, 2, 76, 36
6, 83712, Note_on_c, 2, 67, 38
6, 83712, Note_on_c, 2, 56, 34
6, 83712, Note_on_c, 2, 72, 36
6, 83820, Note_on_c, 2, 62, 0
6, 83824, Note_on_c, 2, 76, 0
6, 83836, Note_on_c, 2, 72, 0
6, 83848, Note_on_c, 2, 56, 0
6, 83864, Note_on_c, 2, 67, 0
6, 84096, Note_on_c, 2, 64, 31
6, 84096, Note_on_c, 2, 72, 31
6, 84096, Note_on_c, 2, 67, 44
6, 84096, Note_on_c, 2, 56, 34
6, 84260, Note_on_c, 2, 72, 0
6, 84284, Note_on_c, 2, 67, 0
6, 84324, Note_on_c, 2, 64, 0
6, 84448, Note_on_c, 2, 56, 0
6, 84480, Note_on_c, 2, 69, 36
6, 84480, Note_on_c, 2, 57, 32
6, 84480, Note_on_c, 2, 60, 17
6, 84480, Note_on_c, 2, 64, 34
6, 84592, Note_on_c, 2, 69, 0
6, 84608, Note_on_c, 2, 57, 0
6, 84612, Note_on_c, 2, 64, 0
6, 84616, Note_on_c, 2, 60, 0
6, 84864, Note_on_c, 2, 57, 32
6, 84864, Note_on_c, 2, 64, 35
6, 84864, Note_on_c, 2, 60, 30
6, 84864, Note_on_c, 2, 69, 28
6, 84976, Note_on_c, 2, 69, 0
6, 84984, Note_on_c, 2, 64, 0
6, 85048, Note_on_c, 2, 60, 0
6, 85208, Note_on_c, 2, 57, 0
6, 85248, Note_on_c, 2, 72, 41
6, 85248, Note_on_c, 2, 67, 54
6, 85248, Note_on_c, 2, 62, 38
6, 85248, Note_on_c, 2, 60, 41
6, 85312, Note_on_c, 2, 60, 0
6, 85312, Note_on_c, 2, 72, 0
6, 85312, Note_on_c, 2, 67, 0
6, 85312, Note_on_c, 2, 62, 0
6, 85504, Note_on_c, 2, 69, 56
6, 85504, Note_on_c, 2, 60, 50
6, 85504, Note_on_c, 2, 57, 58
6, 85504, Note_on_c, 2, 64, 58
6, 85800, Note_on_c, 2, 64, 0
6, 85820, Note_on_c, 2, 69, 0
6, 85856, Note_on_c, 2, 60, 0
6, 85944, Note_on_c, 2, 57, 0
6, 86016, Note_on_c, 2, 59, 43
6, 86016, Note_on_c, 2, 67, 50
6, 86016, Note_on_c, 2, 62, 42
6, 86016, Note_on_c, 2, 56, 35
6, 86276, Note_on_c, 2, 59, 0
6, 86284, Note_on_c, 2, 67, 0
6, 86284, Note_on_c, 2, 62, 0
6, 86288, Note_on_c, 2, 56, 0
6, 86400, Note_on_c, 2, 56, 37
6, 86400, Note_on_c, 2, 65, 48
6, 86400, Note_on_c, 2, 59, 40
6, 86400, Note_on_c, 2, 62, 36
6, 86576, Note_on_c, 2, 65, 0
6, 86612, Note_on_c, 2, 59, 0
6, 86616, Note_on_c, 2, 62, 0
6, 86648, Note_on_c, 2, 56, 0
6, 86784, Note_on_c, 2, 56, 37
6, 86784, Note_on_c, 2, 64, 42
6, 86784, Note_on_c, 2, 59, 36
6, 86784, Note_on_c, 2, 62, 28
6, 86956, Note_on_c, 2, 59, 0
6, 86960, Note_on_c, 2, 62, 0
6, 86968, Note_on_c, 2, 64, 0
6, 87000, Note_on_c, 2, 56, 0
6, 87168, Note_on_c, 2, 56, 38
6, 87168, Note_on_c, 2, 65, 41
6, 87168, Note_on_c, 2, 62, 42
6, 87168, Note_on_c, 2, 59, 42
6, 87288, Note_on_c, 2, 59, 0
6, 87320, Note_on_c, 2, 65, 0
6, 87324, Note_on_c, 2, 62, 0
6, 87332, Note_on_c, 2, 56, 0
6, 87424, Note_on_c, 2, 65, 59
6, 87424, Note_on_c, 2, 58, 58
6, 87424, Note_on_c, 2, 62, 64
6, 87424, Note_on_c, 2, 55, 49
6, 87424, Note_on_c, 2, 53, 36
6, 87712, Note_on_c, 2, 53, 0
6, 87764, Note_on_c, 2, 55, 0
6, 87780, Note_on_c, 2, 62, 0
6, 87808, Note_on_c, 2, 58, 0
6, 87840, Note_on_c, 2, 65, 0
6, 87936, Note_on_c, 2, 58, 25
6, 87936, Note_on_c, 2, 62, 39
6, 87936, Note_on_c, 2, 55, 31
6, 87936, Note_on_c, 2, 53, 29
6, 88000, Note_on_c, 2, 53, 0
6, 88000, Note_on_c, 2, 55, 0
6, 88028, Note_on_c, 2, 62, 0
6, 88052, Note_on_c, 2, 58, 0
6, 88320, Note_on_c, 2, 65, 39
6, 88320, Note_on_c, 2, 62, 36
6, 88320, Note_on_c, 2, 58, 25
6, 88320, Note_on_c, 2, 53, 24
6, 88320, Note_on_c, 2, 55, 24
6, 88424, Note_on_c, 2, 55, 0
6, 88424, Note_on_c, 2, 53, 0
6, 88432, Note_on_c, 2, 62, 0
6, 88440, Note_on_c, 2, 65, 0
6, 88456, Note_on_c, 2, 58, 0
6, 88704, Note_on_c, 2, 58, 32
6, 88704, Note_on_c, 2, 62, 35
6, 88704, Note_on_c, 2, 53, 31
6, 88768, Note_on_c, 2, 53, 0
6, 88812, Note_on_c, 2, 62, 0
6, 88816, Note_on_c, 2, 58, 0
6, 89088, Note_on_c, 2, 75, 55
6, 89088, Note_on_c, 2, 68, 46
6, 89088, Note_on_c, 2, 64, 48
6, 89088, Note_on_c, 2, 72, 54
6, 89088, Note_on_c, 2, 63, 45
6, 89216, Note_on_c, 2, 64, 0
6, 89228, Note_on_c, 2, 72, 0
6, 89236, Note_on_c, 2, 75, 0
6, 89240, Note_on_c, 2, 68, 0
6, 89244, Note_on_c, 2, 63, 0
6, 89472, Note_on_c, 2, 73, 46
6, 89472, Note_on_c, 2, 64, 34
6, 89472, Note_on_c, 2, 68, 40
6, 89472, Note_on_c, 2, 61, 36
6, 89628, Note_on_c, 2, 73, 0
6, 89648, Note_on_c, 2, 64, 0
6, 89648, Note_on_c, 2, 68, 0
6, 89804, Note_on_c, 2, 61, 0
6, 89856, Note_on_c, 2, 62, 32
6, 89856, Note_on_c, 2, 60, 40
6, 89856, Note_on_c, 2, 72, 39
6, 89856, Note_on_c, 2, 67, 38
6, 90052, Note_on_c, 2, 67, 0
6, 90080, Note_on_c, 2, 62, 0
6, 90112, Note_on_c, 2, 56, 26
6, 90120, Note_on_c, 2, 72, 0
6, 90160, Note_on_c, 2, 60, 0
6, 90216, Note_on_c, 2, 56, 0
6, 90240, Note_on_c, 2, 58, 38
6, 90240, Note_on_c, 2, 62, 42
6, 90240, Note_on_c, 2, 67, 48
6, 90240, Note_on_c, 2, 70, 53
6, 90380, Note_on_c, 2, 67, 0
6, 90480, Note_on_c, 2, 62, 0
6, 90496, Note_on_c, 2, 56, 27
6, 90512, Note_on_c, 2, 58, 0
6, 90532, Note_on_c, 2, 70, 0
6, 90576, Note_on_c, 2, 56, 0
6, 90624, Note_on_c, 2, 67, 40
6, 90624, Note_on_c, 2, 57, 35
6, 90624, Note_on_c, 2, 60, 24
6, 90624, Note_on_c, 2, 64, 37
6, 90688, Note_on_c, 2, 57, 0
6, 90724, Note_on_c, 2, 67, 0
6, 90728, Note_on_c, 2, 64, 0
6, 90764, Note_on_c, 2, 60, 0
6, 91008, Note_on_c, 2, 67, 29
6, 91008, Note_on_c, 2, 64, 35
6, 91008, Note_on_c, 2, 59, 34
6, 91008, Note_on_c, 2, 60, 30
6, 91244, Note_on_c, 2, 67, 0
6, 91252, Note_on_c, 2, 59, 0
6, 91260, Note_on_c, 2, 60, 0
6, 91280, Note_on_c, 2, 64, 0
6, 91392, Note_on_c, 2, 64, 34
6, 91392, Note_on_c, 2, 67, 28
6, 91392, Note_on_c, 2, 60, 34
6, 91392, Note_on_c, 2, 59, 22
6, 91604, Note_on_c, 2, 60, 0
6, 91612, Note_on_c, 2, 59, 0
6, 91616, Note_on_c, 2, 67, 0
6, 91620, Note_on_c, 2, 64, 0
6, 91776, Note_on_c, 2, 64, 30
6, 91776, Note_on_c, 2, 67, 36
6, 91776, Note_on_c, 2, 59, 32
6, 91776, Note_on_c, 2, 60, 38
6, 91876, Note_on_c, 2, 59, 0
6, 91880, Note_on_c, 2, 60, 0
6, 91904, Note_on_c, 2, 64, 0
6, 91908, Note_on_c, 2, 67, 0
6, 92032, Note_on_c, 2, 64, 74
6, 92032, Note_on_c, 2, 72, 63
6, 92032, Note_on_c, 2, 71, 37
6, 92032, Note_on_c, 2, 69, 57
6, 92188, Note_on_c, 2, 72, 0
6, 92260, Note_on_c, 2, 69, 0
6, 92476, Note_on_c, 2, 64, 0
6, 92492, Note_on_c, 2, 71, 0
6, 92544, Note_on_c, 2, 74, 53
6, 92544, Note_on_c, 2, 64, 43
6, 92544, Note_on_c, 2, 71, 44
6, 92544, Note_on_c, 2, 68, 53
6, 92760, Note_on_c, 2, 74, 0
6, 92772, Note_on_c, 2, 64, 0
6, 92772, Note_on_c, 2, 68, 0
6, 92780, Note_on_c, 2, 71, 0
6, 92928, Note_on_c, 2, 64, 36
6, 92928, Note_on_c, 2, 71, 37
6, 92928, Note_on_c, 2, 68, 42
6, 92928, Note_on_c, 2, 74, 28
6, 93096, Note_on_c, 2, 64, 0
6, 93100, Note_on_c, 2, 68, 0
6, 93104, Note_on_c, 2, 74, 0
6, 93144, Note_on_c, 2, 71, 0
6, 93184, Note_on_c, 2, 68, 53
6, 93184, Note_on_c, 2, 64, 58
6, 93184, Note_on_c, 2, 74, 51
6, 93184, Note_on_c, 2, 71, 43
6, 93248, Note_on_c, 2, 64, 0
6, 93248, Note_on_c, 2, 68, 0
6, 93252, Note_on_c, 2, 71, 0
6, 93260, Note_on_c, 2, 74, 0
6, 93568, Note_on_c, 2, 62, 77
6, 93568, Note_on_c, 2, 74, 80
6, 93568, Note_on_c, 2, 70, 76
6, 93568, Note_on_c, 2, 67, 85
6, 93568, Note_on_c, 2, 61, 43
6, 93568, Note_on_c, 2, 77, 71
6, 93632, Note_on_c, 2, 61, 0
6, 93876, Note_on_c, 2, 77, 0
6, 93880, Note_on_c, 2, 74, 0
6, 93920, Note_on_c, 2, 70, 0
6, 93936, Note_on_c, 2, 67, 0
6, 94068, Note_on_c, 2, 62, 0
6, 94080, Note_on_c, 2, 58, 37
6, 94080, Note_on_c, 2, 70, 40
6, 94080, Note_on_c, 2, 65, 40
6, 94080, Note_on_c, 2, 74, 37
6, 94144, Note_on_c, 2, 74, 0
6, 94164, Note_on_c, 2, 70, 0
6, 94176, Note_on_c, 2, 65, 0
6, 94180, Note_on_c, 2, 58, 0
6, 94464, Note_on_c, 2, 58, 34
6, 94464, Note_on_c, 2, 62, 45
6, 94464, Note_on_c, 2, 65, 37
6, 94464, Note_on_c, 2, 69, 31
6, 94552, Note_on_c, 2, 58, 0
6, 94556, Note_on_c, 2, 62, 0
6, 94560, Note_on_c, 2, 69, 0
6, 94568, Note_on_c, 2, 65, 0
6, 94848, Note_on_c, 2, 58, 32
6, 94848, Note_on_c, 2, 65, 46
6, 94848, Note_on_c, 2, 62, 44
6, 94848, Note_on_c, 2, 57, 25
6, 94944, Note_on_c, 2, 57, 0
6, 94964, Note_on_c, 2, 62, 0
6, 94964, Note_on_c, 2, 58, 0
6, 94972, Note_on_c, 2, 65, 0
6, 95232, Note_on_c, 2, 58, 32
6, 95232, Note_on_c, 2, 62, 51
6, 95232, Note_on_c, 2, 69, 42
6, 95232, Note_on_c, 2, 65, 49
6, 95232, Note_on_c, 2, 59, 20
6, 95304, Note_on_c, 2, 59, 0
6, 95320, Note_on_c, 2, 62, 0
6, 95324, Note_on_c, 2, 69, 0
6, 95328, Note_on_c, 2, 58, 0
6, 95336, Note_on_c, 2, 65, 0
6, 95616, Note_on_c, 2, 58, 34
6, 95616, Note_on_c, 2, 65, 49
6, 95616, Note_on_c, 2, 57, 19
6, 95616, Note_on_c, 2, 62, 38
6, 95680, Note_on_c, 2, 57, 0
6, 95776, Note_on_c, 2, 62, 0
6, 95788, Note_on_c, 2, 65, 0
6, 95796, Note_on_c, 2, 58, 0
6, 96000, Note_on_c, 2, 58, 36
6, 96000, Note_on_c, 2, 69, 51
6, 96000, Note_on_c, 2, 64, 47
6, 96000, Note_on_c, 2, 61, 33
6, 96120, Note_on_c, 2, 69, 0
6, 96144, Note_on_c, 2, 58, 0
6, 96156, Note_on_c, 2, 61, 0
6, 96160, Note_on_c, 2, 64, 0
6, 96384, Note_on_c, 2, 58, 34
6, 96384, Note_on_c, 2, 61, 37
6, 96384, Note_on_c, 2, 64, 48
6, 96384, Note_on_c, 2, 69, 25
6, 96464, Note_on_c, 2, 61, 0
6, 96508, Note_on_c, 2, 64, 0
6, 96520, Note_on_c, 2, 58, 0
6, 96540, Note_on_c, 2, 69, 0
6, 96640, Note_on_c, 2, 69, 58
6, 96640, Note_on_c, 2, 60, 62
6, 96640, Note_on_c, 2, 64, 57
6, 96640, Note_on_c, 2, 65, 64
6, 97016, Note_on_c, 2, 65, 0
6, 97016, Note_on_c, 2, 64, 0
6, 97016, Note_on_c, 2, 60, 0
6, 97088, Note_on_c, 2, 69, 0
6, 97152, Note_on_c, 2, 65, 39
6, 97152, Note_on_c, 2, 60, 33
6, 97152, Note_on_c, 2, 64, 43
6, 97288, Note_on_c, 2, 64, 0
6, 97292, Note_on_c, 2, 60, 0
6, 97300, Note_on_c, 2, 65, 0
6, 97536, Note_on_c, 2, 65, 46
6, 97536, Note_on_c, 2, 60, 36
6, 97536, Note_on_c, 2, 64, 37
6, 97536, Note_on_c, 2, 69, 39
6, 97600, Note_on_c, 2, 60, 0
6, 97608, Note_on_c, 2, 65, 0
6, 97620, Note_on_c, 2, 64, 0
6, 97624, Note_on_c, 2, 69, 0
6, 97920, Note_on_c, 2, 62, 56
6, 97920, Note_on_c, 2, 67, 49
6, 97920, Note_on_c, 2, 72, 39
6, 97920, Note_on_c, 2, 69, 38
6, 98004, Note_on_c, 2, 62, 0
6, 98020, Note_on_c, 2, 69, 0
6, 98040, Note_on_c, 2, 67, 0
6, 98044, Note_on_c, 2, 72, 0
6, 98304, Note_on_c, 2, 75, 59
6, 98304, Note_on_c, 2, 70, 52
6, 98304, Note_on_c, 2, 72, 54
6, 98304, Note_on_c, 2, 67, 58
6, 98304, Note_on_c, 2, 63, 56
6, 98432, Note_on_c, 2, 75, 0
6, 98468, Note_on_c, 2, 67, 0
6, 98484, Note_on_c, 2, 72, 0
6, 98504, Note_on_c, 2, 63, 0
6, 98560, Note_on_c, 2, 67, 56
6, 98560, Note_on_c, 2, 77, 58
6, 98560, Note_on_c, 2, 72, 30
6, 98624, Note_on_c, 2, 72, 0
6, 98624, Note_on_c, 2, 77, 0
6, 98628, Note_on_c, 2, 67, 0
6, 98636, Note_on_c, 2, 70, 0
6, 98688, Note_on_c, 2, 63, 36
6, 98844, Note_on_c, 2, 63, 0
6, 98944, Note_on_c, 2, 74, 74
6, 98944, Note_on_c, 2, 66, 56
6, 98944, Note_on_c, 2, 63, 37
6, 98944, Note_on_c, 2, 62, 56
6, 98944, Note_on_c, 2, 69, 61
6, 99292, Note_on_c, 2, 69, 0
6, 99308, Note_on_c, 2, 66, 0
6, 99312, Note_on_c, 2, 63, 0
6, 99332, Note_on_c, 2, 74, 0
6, 99424, Note_on_c, 2, 62, 0
6, 99456, Note_on_c, 2, 63, 36
6, 99456, Note_on_c, 2, 66, 37
6, 99456, Note_on_c, 2, 60, 45
6, 99456, Note_on_c, 2, 72, 53
6, 99456, Note_on_c, 2, 69, 44
6, 99520, Note_on_c, 2, 69, 0
6, 99520, Note_on_c, 2, 60, 0
6, 99520, Note_on_c, 2, 63, 0
6, 99520, Note_on_c, 2, 66, 0
6, 99520, Note_on_c, 2, 72, 0
6, 99520, End_track
7, 0, Start_track
7, 0, Program_c, 9, 0
7, 0, Control_c, 9, 7, 80
7, 1432, Note_on_c, 9, 53, 45
7, 1432, Note_on_c, 9, 35, 58
7, 1460, Note_on_c, 9, 53, 0
7, 1508, Note_on_c, 9, 35, 0
7, 1536, Note_on_c, 9, 46, 34
7, 1888, Note_on_c, 9, 42, 37
7, 1896, Note_on_c, 9, 46, 0
7, 2012, Note_on_c, 9, 42, 0
7, 2172, Note_on_c, 9, 46, 31
7, 2240, Note_on_c, 9, 46, 0
7, 2296, Note_on_c, 9, 46, 31
7, 2700, Note_on_c, 9, 46, 0
7, 2708, Note_on_c, 9, 42, 53
7, 2772, Note_on_c, 9, 42, 0
7, 2944, Note_on_c, 9, 35, 55
7, 2964, Note_on_c, 9, 46, 74
7, 3024, Note_on_c, 9, 46, 0
7, 3024, Note_on_c, 9, 35, 0
7, 3068, Note_on_c, 9, 46, 60
7, 3080, Note_on_c, 9, 35, 35
7, 3136, Note_on_c, 9, 35, 0
7, 3456, Note_on_c, 9, 46, 0
7, 3468, Note_on_c, 9, 42, 53
7, 3524, Note_on_c, 9, 42, 0
7, 3688, Note_on_c, 9, 35, 60
7, 3712, Note_on_c, 9, 46, 50
7, 3740, Note_on_c, 9, 35, 0
7, 3776, Note_on_c, 9, 46, 0
7, 3836, Note_on_c, 9, 46, 62
7, 4228, Note_on_c, 9, 46, 0
7, 4228, Note_on_c, 9, 42, 50
7, 4340, Note_on_c, 9, 42, 0
7, 4480, Note_on_c, 9, 46, 55
7, 4488, Note_on_c, 9, 35, 39
7, 4520, Note_on_c, 9, 35, 0
7, 4532, Note_on_c, 9, 46, 0
7, 4596, Note_on_c, 9, 46, 39
7, 4612, Note_on_c, 9, 35, 49
7, 4644, Note_on_c, 9, 35, 0
7, 4980, Note_on_c, 9, 46, 0
7, 4980, Note_on_c, 9, 42, 48
7, 5248, Note_on_c, 9, 46, 51
7, 5284, Note_on_c, 9, 42, 0
7, 5296, Note_on_c, 9, 46, 0
7, 5340, Note_on_c, 9, 35, 55
7, 5368, Note_on_c, 9, 35, 0
7, 5380, Note_on_c, 9, 46, 48
7, 5764, Note_on_c, 9, 42, 52
7, 5768, Note_on_c, 9, 46, 0
7, 5792, Note_on_c, 9, 42, 0
7, 5872, Note_on_c, 9, 42, 68
7, 5928, Note_on_c, 9, 42, 0
7, 5992, Note_on_c, 9, 46, 55
7, 6052, Note_on_c, 9, 46, 0
7, 6128, Note_on_c, 9, 46, 56
7, 6152, Note_on_c, 9, 35, 35
7, 6180, Note_on_c, 9, 35, 0
7, 6536, Note_on_c, 9, 42, 55
7, 6544, Note_on_c, 9, 46, 0
7, 6756, Note_on_c, 9, 35, 57
7, 6772, Note_on_c, 9, 46, 49
7, 6776, Note_on_c, 9, 35, 0
7, 6824, Note_on_c, 9, 42, 0
7, 6828, Note_on_c, 9, 46, 0
7, 6904, Note_on_c, 9, 46, 46
7, 6944, Note_on_c, 9, 46, 0
7, 7024, Note_on_c, 9, 42, 51
7, 7052, Note_on_c, 9, 42, 0
7, 7156, Note_on_c, 9, 42, 67
7, 7200, Note_on_c, 9, 42, 0
7, 7280, Note_on_c, 9, 37, 39
7, 7292, Note_on_c, 9, 42, 75
7, 7300, Note_on_c, 9, 37, 0
7, 7352, Note_on_c, 9, 42, 0
7, 7392, Note_on_c, 9, 37, 78
7, 7400, Note_on_c, 9, 46, 57
7, 7440, Note_on_c, 9, 37, 0
7, 7452, Note_on_c, 9, 46, 0
7, 7532, Note_on_c, 9, 46, 53
7, 7536, Note_on_c, 9, 35, 39
7, 7560, Note_on_c, 9, 35, 0
7, 7572, Note_on_c, 9, 46, 0
7, 7668, Note_on_c, 9, 35, 46
7, 7672, Note_on_c, 9, 46, 62
7, 7704, Note_on_c, 9, 35, 0
7, 8060, Note_on_c, 9, 46, 0
7, 8084, Note_on_c, 9, 42, 59
7, 8136, Note_on_c, 9, 42, 0
7, 8312, Note_on_c, 9, 35, 42
7, 8320, Note_on_c, 9, 46, 50
7, 8340, Note_on_c, 9, 35, 0
7, 8372, Note_on_c, 9, 46, 0
7, 8452, Note_on_c, 9, 46, 52
7, 8820, Note_on_c, 9, 46, 0
7, 8832, Note_on_c, 9, 42, 59
7, 8884, Note_on_c, 9, 42, 0
7, 9084, Note_on_c, 9, 46, 59
7, 9136, Note_on_c, 9, 46, 0
7, 9196, Note_on_c, 9, 46, 46
7, 9588, Note_on_c, 9, 46, 0
7, 9604, Note_on_c, 9, 42, 49
7, 9688, Note_on_c, 9, 42, 0
7, 9836, Note_on_c, 9, 46, 50
7, 9884, Note_on_c, 9, 46, 0
7, 9948, Note_on_c, 9, 46, 49
7, 10052, Note_on_c, 9, 37, 60
7, 10084, Note_on_c, 9, 37, 0
7, 10172, Note_on_c, 9, 37, 75
7, 10228, Note_on_c, 9, 37, 0
7, 10304, Note_on_c, 9, 37, 56
7, 10348, Note_on_c, 9, 37, 0
7, 10348, Note_on_c, 9, 46, 0
7, 10352, Note_on_c, 9, 42, 54
7, 10400, Note_on_c, 9, 42, 0
7, 10428, Note_on_c, 9, 35, 30
7, 10460, Note_on_c, 9, 35, 0
7, 10556, Note_on_c, 9, 35, 35
7, 10604, Note_on_c, 9, 46, 45
7, 10628, Note_on_c, 9, 35, 0
7, 10652, Note_on_c, 9, 46, 0
7, 10696, Note_on_c, 9, 35, 40
7, 10720, Note_on_c, 9, 46, 53
7, 10784, Note_on_c, 9, 35, 0
7, 11136, Note_on_c, 9, 46, 0
7, 11152, Note_on_c, 9, 42, 36
7, 11184, Note_on_c, 9, 42, 0
7, 11388, Note_on_c, 9, 35, 51
7, 11412, Note_on_c, 9, 35, 0
7, 11424, Note_on_c, 9, 46, 47
7, 11460, Note_on_c, 9, 46, 0
7, 11532, Note_on_c, 9, 46, 58
7, 11580, Note_on_c, 9, 46, 0
7, 11916, Note_on_c, 9, 42, 51
7, 11964, Note_on_c, 9, 42, 0
7, 12172, Note_on_c, 9, 46, 59
7, 12212, Note_on_c, 9, 46, 0
7, 12288, Note_on_c, 9, 46, 64
7, 12304, Note_on_c, 9, 35, 30
7, 12344, Note_on_c, 9, 35, 0
7, 12644, Note_on_c, 9, 46, 0
7, 12664, Note_on_c, 9, 42, 52
7, 12712, Note_on_c, 9, 42, 0
7, 12920, Note_on_c, 9, 46, 61
7, 12964, Note_on_c, 9, 46, 0
7, 13036, Note_on_c, 9, 46, 64
7, 13396, Note_on_c, 9, 46, 0
7, 13432, Note_on_c, 9, 42, 44
7, 13448, Note_on_c, 9, 35, 20
7, 13480, Note_on_c, 9, 42, 0
7, 13484, Note_on_c, 9, 35, 0
7, 13548, Note_on_c, 9, 46, 55
7, 13584, Note_on_c, 9, 46, 0
7, 13668, Note_on_c, 9, 35, 62
7, 13672, Note_on_c, 9, 46, 54
7, 13708, Note_on_c, 9, 46, 0
7, 13716, Note_on_c, 9, 35, 0
7, 13788, Note_on_c, 9, 46, 64
7, 14184, Note_on_c, 9, 46, 0
7, 14204, Note_on_c, 9, 42, 64
7, 14256, Note_on_c, 9, 42, 0
7, 14452, Note_on_c, 9, 35, 31
7, 14456, Note_on_c, 9, 46, 55
7, 14480, Note_on_c, 9, 35, 0
7, 14512, Note_on_c, 9, 46, 0
7, 14588, Note_on_c, 9, 46, 51
7, 14632, Note_on_c, 9, 46, 0
7, 14712, Note_on_c, 9, 42, 57
7, 14760, Note_on_c, 9, 42, 0
7, 14844, Note_on_c, 9, 42, 69
7, 14908, Note_on_c, 9, 42, 0
7, 14976, Note_on_c, 9, 46, 64
7, 15200, Note_on_c, 9, 46, 0
7, 15244, Note_on_c, 9, 46, 46
7, 15284, Note_on_c, 9, 46, 0
7, 15360, Note_on_c, 9, 35, 44
7, 15368, Note_on_c, 9, 46, 60
7, 15544, Note_on_c, 9, 35, 0
7, 15596, Note_on_c, 9, 35, 37
7, 15624, Note_on_c, 9, 35, 0
7, 15688, Note_on_c, 9, 46, 0
7, 15732, Note_on_c, 9, 42, 57
7, 15780, Note_on_c, 9, 42, 0
7, 15976, Note_on_c, 9, 46, 47
7, 16032, Note_on_c, 9, 46, 0
7, 16100, Note_on_c, 9, 46, 51
7, 16488, Note_on_c, 9, 46, 0
7, 16492, Note_on_c, 9, 42, 60
7, 16544, Note_on_c, 9, 42, 0
7, 16692, Note_on_c, 9, 37, 64
7, 16756, Note_on_c, 9, 37, 0
7, 16760, Note_on_c, 9, 46, 39
7, 16800, Note_on_c, 9, 46, 0
7, 16880, Note_on_c, 9, 46, 49
7, 16892, Note_on_c, 9, 35, 43
7, 17032, Note_on_c, 9, 35, 0
7, 17248, Note_on_c, 9, 46, 0
7, 17272, Note_on_c, 9, 42, 60
7, 17316, Note_on_c, 9, 42, 0
7, 17500, Note_on_c, 9, 35, 90
7, 17528, Note_on_c, 9, 46, 56
7, 17552, Note_on_c, 9, 35, 0
7, 17564, Note_on_c, 9, 46, 0
7, 17636, Note_on_c, 9, 46, 58
7, 18000, Note_on_c, 9, 46, 0
7, 18024, Note_on_c, 9, 42, 56
7, 18084, Note_on_c, 9, 42, 0
7, 18308, Note_on_c, 9, 46, 47
7, 18344, Note_on_c, 9, 46, 0
7, 18416, Note_on_c, 9, 35, 37
7, 18420, Note_on_c, 9, 46, 52
7, 18464, Note_on_c, 9, 35, 0
7, 18792, Note_on_c, 9, 46, 0
7, 18808, Note_on_c, 9, 42, 52
7, 18860, Note_on_c, 9, 42, 0
7, 19076, Note_on_c, 9, 46, 35
7, 19084, Note_on_c, 9, 35, 28
7, 19120, Note_on_c, 9, 46, 0
7, 19144, Note_on_c, 9, 35, 0
7, 19188, Note_on_c, 9, 46, 47
7, 19460, Note_on_c, 9, 42, 56
7, 19464, Note_on_c, 9, 46, 0
7, 19504, Note_on_c, 9, 42, 0
7, 19564, Note_on_c, 9, 42, 54
7, 19632, Note_on_c, 9, 42, 0
7, 19684, Note_on_c, 9, 37, 25
7, 19704, Note_on_c, 9, 37, 0
7, 19772, Note_on_c, 9, 37, 67
7, 19804, Note_on_c, 9, 46, 40
7, 19856, Note_on_c, 9, 46, 0
7, 19884, Note_on_c, 9, 37, 0
7, 19904, Note_on_c, 9, 57, 55
7, 19908, Note_on_c, 9, 35, 60
7, 19936, Note_on_c, 9, 46, 49
7, 19948, Note_on_c, 9, 57, 0
7, 19988, Note_on_c, 9, 35, 0
7, 20328, Note_on_c, 9, 46, 0
7, 20340, Note_on_c, 9, 42, 48
7, 20396, Note_on_c, 9, 42, 0
7, 20620, Note_on_c, 9, 46, 44
7, 20660, Note_on_c, 9, 46, 0
7, 20732, Note_on_c, 9, 46, 55
7, 20868, Note_on_c, 9, 37, 56
7, 20900, Note_on_c, 9, 37, 0
7, 20972, Note_on_c, 9, 37, 57
7, 21068, Note_on_c, 9, 37, 0
7, 21104, Note_on_c, 9, 57, 55
7, 21104, Note_on_c, 9, 35, 34
7, 21132, Note_on_c, 9, 42, 51
7, 21144, Note_on_c, 9, 57, 0
7, 21148, Note_on_c, 9, 46, 0
7, 21160, Note_on_c, 9, 42, 0
7, 21188, Note_on_c, 9, 35, 0
7, 21240, Note_on_c, 9, 42, 38
7, 21260, Note_on_c, 9, 42, 0
7, 21360, Note_on_c, 9, 46, 45
7, 21404, Note_on_c, 9, 46, 0
7, 21492, Note_on_c, 9, 46, 48
7, 21884, Note_on_c, 9, 42, 53
7, 21896, Note_on_c, 9, 46, 0
7, 21964, Note_on_c, 9, 42, 0
7, 22152, Note_on_c, 9, 46, 38
7, 22200, Note_on_c, 9, 46, 0
7, 22276, Note_on_c, 9, 46, 54
7, 22668, Note_on_c, 9, 42, 52
7, 22672, Note_on_c, 9, 46, 0
7, 22724, Note_on_c, 9, 42, 0
7, 22788, Note_on_c, 9, 46, 42
7, 22820, Note_on_c, 9, 46, 0
7, 22900, Note_on_c, 9, 46, 48
7, 22956, Note_on_c, 9, 46, 0
7, 23028, Note_on_c, 9, 35, 36
7, 23036, Note_on_c, 9, 46, 55
7, 23228, Note_on_c, 9, 35, 0
7, 23280, Note_on_c, 9, 35, 55
7, 23300, Note_on_c, 9, 35, 0
7, 23420, Note_on_c, 9, 46, 0
7, 23424, Note_on_c, 9, 42, 55
7, 23472, Note_on_c, 9, 42, 0
7, 23656, Note_on_c, 9, 46, 51
7, 23700, Note_on_c, 9, 46, 0
7, 23776, Note_on_c, 9, 46, 55
7, 23788, Note_on_c, 9, 35, 43
7, 23976, Note_on_c, 9, 35, 0
7, 24028, Note_on_c, 9, 35, 54
7, 24052, Note_on_c, 9, 35, 0
7, 24180, Note_on_c, 9, 46, 0
7, 24188, Note_on_c, 9, 42, 59
7, 24232, Note_on_c, 9, 42, 0
7, 24444, Note_on_c, 9, 46, 40
7, 24484, Note_on_c, 9, 46, 0
7, 24560, Note_on_c, 9, 46, 51
7, 24688, Note_on_c, 9, 48, 41
7, 24720, Note_on_c, 9, 48, 0
7, 24804, Note_on_c, 9, 48, 62
7, 24848, Note_on_c, 9, 48, 0
7, 24928, Note_on_c, 9, 48, 75
7, 24956, Note_on_c, 9, 46, 0
7, 24956, Note_on_c, 9, 42, 49
7, 24996, Note_on_c, 9, 48, 0
7, 25008, Note_on_c, 9, 42, 0
7, 25056, Note_on_c, 9, 47, 38
7, 25080, Note_on_c, 9, 47, 0
7, 25212, Note_on_c, 9, 46, 40
7, 25248, Note_on_c, 9, 46, 0
7, 25328, Note_on_c, 9, 46, 52
7, 25388, Note_on_c, 9, 46, 0
7, 25472, Note_on_c, 9, 45, 71
7, 25512, Note_on_c, 9, 45, 0
7, 25588, Note_on_c, 9, 45, 80
7, 25632, Note_on_c, 9, 45, 0
7, 25728, Note_on_c, 9, 42, 77
7, 25728, Note_on_c, 9, 43, 74
7, 25764, Note_on_c, 9, 43, 0
7, 25768, Note_on_c, 9, 42, 0
7, 25848, Note_on_c, 9, 35, 79
7, 25904, Note_on_c, 9, 35, 0
7, 25984, Note_on_c, 9, 46, 38
7, 26036, Note_on_c, 9, 46, 0
7, 26108, Note_on_c, 9, 46, 39
7, 26120, Note_on_c, 9, 35, 77
7, 26160, Note_on_c, 9, 35, 0
7, 26492, Note_on_c, 9, 46, 0
7, 26492, Note_on_c, 9, 42, 72
7, 26532, Note_on_c, 9, 42, 0
7, 26728, Note_on_c, 9, 35, 64
7, 26736, Note_on_c, 9, 46, 35
7, 26768, Note_on_c, 9, 35, 0
7, 26780, Note_on_c, 9, 46, 0
7, 26864, Note_on_c, 9, 46, 37
7, 27244, Note_on_c, 9, 46, 0
7, 27268, Note_on_c, 9, 42, 62
7, 27300, Note_on_c, 9, 42, 0
7, 27500, Note_on_c, 9, 37, 45
7, 27512, Note_on_c, 9, 46, 48
7, 27552, Note_on_c, 9, 46, 0
7, 27560, Note_on_c, 9, 37, 0
7, 27628, Note_on_c, 9, 46, 46
7, 27632, Note_on_c, 9, 35, 37
7, 27808, Note_on_c, 9, 35, 0
7, 27876, Note_on_c, 9, 35, 32
7, 27908, Note_on_c, 9, 35, 0
7, 27992, Note_on_c, 9, 46, 0
7, 28024, Note_on_c, 9, 42, 39
7, 28068, Note_on_c, 9, 42, 0
7, 28268, Note_on_c, 9, 46, 74
7, 28316, Note_on_c, 9, 46, 0
7, 28384, Note_on_c, 9, 46, 71
7, 28744, Note_on_c, 9, 46, 0
7, 28772, Note_on_c, 9, 42, 49
7, 28824, Note_on_c, 9, 42, 0
7, 29032, Note_on_c, 9, 33, 24
7, 29040, Note_on_c, 9, 46, 42
7, 29088, Note_on_c, 9, 46, 0
7, 29112, Note_on_c, 9, 33, 0
7, 29164, Note_on_c, 9, 46, 50
7, 29164, Note_on_c, 9, 35, 45
7, 29340, Note_on_c, 9, 35, 0
7, 29396, Note_on_c, 9, 35, 38
7, 29428, Note_on_c, 9, 35, 0
7, 29544, Note_on_c, 9, 46, 0
7, 29552, Note_on_c, 9, 42, 50
7, 29600, Note_on_c, 9, 42, 0
7, 29796, Note_on_c, 9, 46, 67
7, 29836, Note_on_c, 9, 46, 0
7, 29928, Note_on_c, 9, 46, 63
7, 30304, Note_on_c, 9, 46, 0
7, 30316, Note_on_c, 9, 42, 44
7, 30380, Note_on_c, 9, 42, 0
7, 30560, Note_on_c, 9, 46, 47
7, 30592, Note_on_c, 9, 46, 0
7, 30688, Note_on_c, 9, 46, 50
7, 30960, Note_on_c, 9, 46, 0
7, 30960, Note_on_c, 9, 42, 39
7, 30988, Note_on_c, 9, 42, 0
7, 31116, Note_on_c, 9, 42, 40
7, 31140, Note_on_c, 9, 42, 0
7, 31332, Note_on_c, 9, 46, 58
7, 31384, Note_on_c, 9, 46, 0
7, 31464, Note_on_c, 9, 46, 58
7, 31840, Note_on_c, 9, 46, 0
7, 31840, Note_on_c, 9, 42, 56
7, 31888, Note_on_c, 9, 42, 0
7, 32080, Note_on_c, 9, 35, 80
7, 32112, Note_on_c, 9, 46, 34
7, 32144, Note_on_c, 9, 35, 0
7, 32156, Note_on_c, 9, 46, 0
7, 32232, Note_on_c, 9, 46, 53
7, 32616, Note_on_c, 9, 42, 55
7, 32628, Note_on_c, 9, 46, 0
7, 32664, Note_on_c, 9, 42, 0
7, 32868, Note_on_c, 9, 35, 66
7, 32892, Note_on_c, 9, 46, 55
7, 32912, Note_on_c, 9, 35, 0
7, 32932, Note_on_c, 9, 46, 0
7, 33008, Note_on_c, 9, 46, 56
7, 33396, Note_on_c, 9, 42, 56
7, 33400, Note_on_c, 9, 46, 0
7, 33448, Note_on_c, 9, 42, 0
7, 33664, Note_on_c, 9, 46, 42
7, 33696, Note_on_c, 9, 46, 0
7, 33776, Note_on_c, 9, 46, 51
7, 34160, Note_on_c, 9, 42, 55
7, 34176, Note_on_c, 9, 46, 0
7, 34216, Note_on_c, 9, 42, 0
7, 34424, Note_on_c, 9, 46, 54
7, 34456, Note_on_c, 9, 46, 0
7, 34540, Note_on_c, 9, 46, 57
7, 34912, Note_on_c, 9, 46, 0
7, 34916, Note_on_c, 9, 42, 48
7, 34960, Note_on_c, 9, 42, 0
7, 35172, Note_on_c, 9, 37, 37
7, 35176, Note_on_c, 9, 46, 42
7, 35208, Note_on_c, 9, 46, 0
7, 35264, Note_on_c, 9, 37, 0
7, 35288, Note_on_c, 9, 46, 52
7, 35296, Note_on_c, 9, 35, 37
7, 35476, Note_on_c, 9, 35, 0
7, 35564, Note_on_c, 9, 35, 34
7, 35592, Note_on_c, 9, 35, 0
7, 35684, Note_on_c, 9, 42, 54
7, 35688, Note_on_c, 9, 46, 0
7, 35732, Note_on_c, 9, 42, 0
7, 36084, Note_on_c, 9, 46, 61
7, 36440, Note_on_c, 9, 46, 0
7, 36452, Note_on_c, 9, 42, 53
7, 36504, Note_on_c, 9, 42, 0
7, 36696, Note_on_c, 9, 37, 50
7, 36716, Note_on_c, 9, 46, 52
7, 36764, Note_on_c, 9, 46, 0
7, 36780, Note_on_c, 9, 37, 0
7, 36836, Note_on_c, 9, 46, 53
7, 36836, Note_on_c, 9, 35, 30
7, 36892, Note_on_c, 9, 35, 0
7, 37228, Note_on_c, 9, 46, 0
7, 37228, Note_on_c, 9, 42, 53
7, 37296, Note_on_c, 9, 42, 0
7, 37504, Note_on_c, 9, 46, 55
7, 37532, Note_on_c, 9, 46, 0
7, 37612, Note_on_c, 9, 46, 56
7, 38024, Note_on_c, 9, 42, 67
7, 38028, Note_on_c, 9, 46, 0
7, 38076, Note_on_c, 9, 42, 0
7, 38268, Note_on_c, 9, 46, 52
7, 38312, Note_on_c, 9, 46, 0
7, 38384, Note_on_c, 9, 46, 53
7, 38388, Note_on_c, 9, 57, 66
7, 38388, Note_on_c, 9, 35, 76
7, 38444, Note_on_c, 9, 57, 0
7, 38456, Note_on_c, 9, 35, 0
7, 38788, Note_on_c, 9, 42, 64
7, 38800, Note_on_c, 9, 46, 0
7, 38848, Note_on_c, 9, 42, 0
7, 39160, Note_on_c, 9, 46, 60
7, 39396, Note_on_c, 9, 37, 77
7, 39472, Note_on_c, 9, 37, 0
7, 39536, Note_on_c, 9, 35, 49
7, 39544, Note_on_c, 9, 42, 57
7, 39552, Note_on_c, 9, 46, 0
7, 39608, Note_on_c, 9, 42, 0
7, 39688, Note_on_c, 9, 35, 0
7, 39772, Note_on_c, 9, 35, 65
7, 39792, Note_on_c, 9, 46, 60
7, 39840, Note_on_c, 9, 46, 0
7, 39844, Note_on_c, 9, 35, 0
7, 39904, Note_on_c, 9, 46, 47
7, 39908, Note_on_c, 9, 35, 62
7, 40088, Note_on_c, 9, 35, 0
7, 40152, Note_on_c, 9, 35, 43
7, 40196, Note_on_c, 9, 35, 0
7, 40300, Note_on_c, 9, 42, 58
7, 40304, Note_on_c, 9, 46, 0
7, 40372, Note_on_c, 9, 42, 0
7, 40564, Note_on_c, 9, 46, 53
7, 40604, Note_on_c, 9, 46, 0
7, 40676, Note_on_c, 9, 46, 54
7, 41088, Note_on_c, 9, 42, 50
7, 41088, Note_on_c, 9, 37, 37
7, 41092, Note_on_c, 9, 46, 0
7, 41108, Note_on_c, 9, 37, 0
7, 41156, Note_on_c, 9, 42, 0
7, 41208, Note_on_c, 9, 37, 37
7, 41232, Note_on_c, 9, 37, 0
7, 41312, Note_on_c, 9, 37, 61
7, 41356, Note_on_c, 9, 46, 35
7, 41364, Note_on_c, 9, 37, 0
7, 41388, Note_on_c, 9, 46, 0
7, 41452, Note_on_c, 9, 37, 64
7, 41460, Note_on_c, 9, 46, 59
7, 41496, Note_on_c, 9, 37, 0
7, 41580, Note_on_c, 9, 35, 42
7, 41612, Note_on_c, 9, 35, 0
7, 41852, Note_on_c, 9, 46, 0
7, 41852, Note_on_c, 9, 35, 55
7, 41856, Note_on_c, 9, 42, 60
7, 41928, Note_on_c, 9, 42, 0
7, 41944, Note_on_c, 9, 35, 0
7, 42116, Note_on_c, 9, 35, 64
7, 42124, Note_on_c, 9, 46, 49
7, 42164, Note_on_c, 9, 46, 0
7, 42172, Note_on_c, 9, 35, 0
7, 42232, Note_on_c, 9, 46, 55
7, 42628, Note_on_c, 9, 42, 57
7, 42648, Note_on_c, 9, 46, 0
7, 42700, Note_on_c, 9, 42, 0
7, 42876, Note_on_c, 9, 46, 36
7, 42928, Note_on_c, 9, 46, 0
7, 42980, Note_on_c, 9, 46, 40
7, 43372, Note_on_c, 9, 42, 56
7, 43388, Note_on_c, 9, 46, 0
7, 43444, Note_on_c, 9, 42, 0
7, 43640, Note_on_c, 9, 46, 43
7, 43680, Note_on_c, 9, 46, 0
7, 43740, Note_on_c, 9, 46, 49
7, 44128, Note_on_c, 9, 42, 67
7, 44160, Note_on_c, 9, 46, 0
7, 44188, Note_on_c, 9, 42, 0
7, 44392, Note_on_c, 9, 46, 43
7, 44440, Note_on_c, 9, 46, 0
7, 44512, Note_on_c, 9, 46, 46
7, 44768, Note_on_c, 9, 46, 0
7, 44904, Note_on_c, 9, 42, 55
7, 44972, Note_on_c, 9, 42, 0
7, 45196, Note_on_c, 9, 46, 48
7, 45200, Note_on_c, 9, 35, 46
7, 45220, Note_on_c, 9, 35, 0
7, 45228, Note_on_c, 9, 46, 0
7, 45288, Note_on_c, 9, 46, 52
7, 45664, Note_on_c, 9, 42, 40
7, 45680, Note_on_c, 9, 46, 0
7, 45752, Note_on_c, 9, 42, 0
7, 45916, Note_on_c, 9, 46, 56
7, 45936, Note_on_c, 9, 35, 54
7, 45968, Note_on_c, 9, 46, 0
7, 45996, Note_on_c, 9, 35, 0
7, 46040, Note_on_c, 9, 46, 56
7, 46080, Note_on_c, 9, 35, 43
7, 46144, Note_on_c, 9, 35, 0
7, 46440, Note_on_c, 9, 42, 33
7, 46452, Note_on_c, 9, 46, 0
7, 46464, Note_on_c, 9, 42, 0
7, 46680, Note_on_c, 9, 46, 55
7, 46696, Note_on_c, 9, 35, 56
7, 46728, Note_on_c, 9, 46, 0
7, 46748, Note_on_c, 9, 35, 0
7, 46808, Note_on_c, 9, 46, 46
7, 46836, Note_on_c, 9, 35, 40
7, 46848, Note_on_c, 9, 46, 0
7, 46872, Note_on_c, 9, 35, 0
7, 47196, Note_on_c, 9, 42, 49
7, 47220, Note_on_c, 9, 42, 0
7, 47464, Note_on_c, 9, 35, 71
7, 47508, Note_on_c, 9, 35, 0
7, 47624, Note_on_c, 9, 53, 58
7, 47696, Note_on_c, 9, 53, 0
7, 47992, Note_on_c, 9, 44, 46
7, 48120, Note_on_c, 9, 44, 0
7, 48272, Note_on_c, 9, 53, 71
7, 48332, Note_on_c, 9, 53, 0
7, 48392, Note_on_c, 9, 53, 66
7, 48444, Note_on_c, 9, 53, 0
7, 48760, Note_on_c, 9, 44, 45
7, 48880, Note_on_c, 9, 44, 0
7, 49048, Note_on_c, 9, 53, 57
7, 49076, Note_on_c, 9, 53, 0
7, 49172, Note_on_c, 9, 53, 55
7, 49196, Note_on_c, 9, 53, 0
7, 49404, Note_on_c, 9, 57, 68
7, 49432, Note_on_c, 9, 57, 0
7, 49528, Note_on_c, 9, 44, 49
7, 49664, Note_on_c, 9, 44, 0
7, 50296, Note_on_c, 9, 44, 49
7, 50308, Note_on_c, 9, 37, 74
7, 50432, Note_on_c, 9, 44, 0
7, 50552, Note_on_c, 9, 37, 0
7, 50576, Note_on_c, 9, 35, 94
7, 50704, Note_on_c, 9, 51, 45
7, 50740, Note_on_c, 9, 35, 0
7, 50756, Note_on_c, 9, 51, 0
7, 51064, Note_on_c, 9, 44, 52
7, 51084, Note_on_c, 9, 51, 53
7, 51152, Note_on_c, 9, 51, 0
7, 51208, Note_on_c, 9, 44, 0
7, 51328, Note_on_c, 9, 35, 66
7, 51352, Note_on_c, 9, 35, 0
7, 51480, Note_on_c, 9, 51, 52
7, 51540, Note_on_c, 9, 51, 0
7, 51832, Note_on_c, 9, 44, 56
7, 51852, Note_on_c, 9, 51, 56
7, 51952, Note_on_c, 9, 44, 0
7, 51988, Note_on_c, 9, 37, 62
7, 51992, Note_on_c, 9, 51, 0
7, 52016, Note_on_c, 9, 37, 0
7, 52092, Note_on_c, 9, 37, 69
7, 52132, Note_on_c, 9, 51, 45
7, 52164, Note_on_c, 9, 37, 0
7, 52172, Note_on_c, 9, 51, 0
7, 52228, Note_on_c, 9, 51, 56
7, 52236, Note_on_c, 9, 35, 45
7, 52340, Note_on_c, 9, 35, 0
7, 52492, Note_on_c, 9, 51, 0
7, 52600, Note_on_c, 9, 44, 48
7, 52616, Note_on_c, 9, 51, 71
7, 52752, Note_on_c, 9, 44, 0
7, 52860, Note_on_c, 9, 35, 64
7, 52864, Note_on_c, 9, 51, 0
7, 52896, Note_on_c, 9, 35, 0
7, 53000, Note_on_c, 9, 51, 64
7, 53204, Note_on_c, 9, 51, 0
7, 53276, Note_on_c, 9, 51, 37
7, 53312, Note_on_c, 9, 51, 0
7, 53364, Note_on_c, 9, 51, 60
7, 53364, Note_on_c, 9, 35, 52
7, 53368, Note_on_c, 9, 44, 52
7, 53520, Note_on_c, 9, 44, 0
7, 53532, Note_on_c, 9, 35, 0
7, 53592, Note_on_c, 9, 35, 54
7, 53656, Note_on_c, 9, 51, 0
7, 53664, Note_on_c, 9, 35, 0
7, 53752, Note_on_c, 9, 51, 69
7, 54012, Note_on_c, 9, 51, 0
7, 54132, Note_on_c, 9, 51, 73
7, 54136, Note_on_c, 9, 44, 57
7, 54264, Note_on_c, 9, 44, 0
7, 54352, Note_on_c, 9, 51, 0
7, 54412, Note_on_c, 9, 51, 58
7, 54468, Note_on_c, 9, 51, 0
7, 54516, Note_on_c, 9, 51, 54
7, 54740, Note_on_c, 9, 51, 0
7, 54796, Note_on_c, 9, 51, 45
7, 54824, Note_on_c, 9, 51, 0
7, 54876, Note_on_c, 9, 35, 49
7, 54896, Note_on_c, 9, 51, 78
7, 54904, Note_on_c, 9, 44, 55
7, 55080, Note_on_c, 9, 44, 0
7, 55080, Note_on_c, 9, 35, 0
7, 55140, Note_on_c, 9, 35, 48
7, 55172, Note_on_c, 9, 35, 0
7, 55180, Note_on_c, 9, 51, 0
7, 55280, Note_on_c, 9, 51, 62
7, 55496, Note_on_c, 9, 51, 0
7, 55556, Note_on_c, 9, 51, 42
7, 55596, Note_on_c, 9, 51, 0
7, 55672, Note_on_c, 9, 44, 56
7, 55676, Note_on_c, 9, 51, 64
7, 55840, Note_on_c, 9, 44, 0
7, 55968, Note_on_c, 9, 51, 0
7, 56060, Note_on_c, 9, 51, 67
7, 56064, Note_on_c, 9, 45, 60
7, 56088, Note_on_c, 9, 45, 0
7, 56180, Note_on_c, 9, 45, 42
7, 56208, Note_on_c, 9, 45, 0
7, 56312, Note_on_c, 9, 51, 0
7, 56440, Note_on_c, 9, 46, 40
7, 56440, Note_on_c, 9, 51, 64
7, 56464, Note_on_c, 9, 45, 68
7, 56492, Note_on_c, 9, 45, 0
7, 56560, Note_on_c, 9, 46, 0
7, 56580, Note_on_c, 9, 45, 60
7, 56608, Note_on_c, 9, 45, 0
7, 56624, Note_on_c, 9, 51, 0
7, 56712, Note_on_c, 9, 35, 68
7, 56724, Note_on_c, 9, 51, 38
7, 56760, Note_on_c, 9, 51, 0
7, 56780, Note_on_c, 9, 35, 0
7, 56828, Note_on_c, 9, 51, 51
7, 57096, Note_on_c, 9, 51, 0
7, 57208, Note_on_c, 9, 44, 40
7, 57212, Note_on_c, 9, 51, 50
7, 57368, Note_on_c, 9, 51, 0
7, 57384, Note_on_c, 9, 44, 0
7, 57448, Note_on_c, 9, 51, 50
7, 57528, Note_on_c, 9, 51, 0
7, 57588, Note_on_c, 9, 59, 49
7, 57680, Note_on_c, 9, 59, 0
7, 57828, Note_on_c, 9, 51, 50
7, 57868, Note_on_c, 9, 51, 0
7, 57956, Note_on_c, 9, 51, 46
7, 57976, Note_on_c, 9, 44, 47
7, 57984, Note_on_c, 9, 35, 33
7, 58096, Note_on_c, 9, 35, 0
7, 58136, Note_on_c, 9, 44, 0
7, 58240, Note_on_c, 9, 51, 0
7, 58244, Note_on_c, 9, 35, 47
7, 58276, Note_on_c, 9, 35, 0
7, 58360, Note_on_c, 9, 51, 53
7, 58608, Note_on_c, 9, 51, 0
7, 58744, Note_on_c, 9, 44, 52
7, 58764, Note_on_c, 9, 51, 48
7, 58872, Note_on_c, 9, 44, 0
7, 58984, Note_on_c, 9, 51, 0
7, 59132, Note_on_c, 9, 51, 60
7, 59348, Note_on_c, 9, 51, 0
7, 59400, Note_on_c, 9, 51, 53
7, 59440, Note_on_c, 9, 51, 0
7, 59512, Note_on_c, 9, 44, 51
7, 59516, Note_on_c, 9, 51, 64
7, 59640, Note_on_c, 9, 44, 0
7, 59772, Note_on_c, 9, 35, 45
7, 59792, Note_on_c, 9, 51, 0
7, 59816, Note_on_c, 9, 35, 0
7, 59900, Note_on_c, 9, 51, 69
7, 60156, Note_on_c, 9, 51, 0
7, 60280, Note_on_c, 9, 44, 46
7, 60284, Note_on_c, 9, 51, 64
7, 60424, Note_on_c, 9, 44, 0
7, 60500, Note_on_c, 9, 51, 0
7, 60572, Note_on_c, 9, 51, 39
7, 60604, Note_on_c, 9, 51, 0
7, 60648, Note_on_c, 9, 35, 56
7, 60668, Note_on_c, 9, 51, 48
7, 60680, Note_on_c, 9, 35, 0
7, 60924, Note_on_c, 9, 51, 0
7, 61044, Note_on_c, 9, 51, 79
7, 61048, Note_on_c, 9, 44, 56
7, 61192, Note_on_c, 9, 44, 0
7, 61276, Note_on_c, 9, 51, 0
7, 61308, Note_on_c, 9, 35, 32
7, 61340, Note_on_c, 9, 35, 0
7, 61352, Note_on_c, 9, 51, 38
7, 61388, Note_on_c, 9, 51, 0
7, 61436, Note_on_c, 9, 35, 35
7, 61444, Note_on_c, 9, 51, 50
7, 61472, Note_on_c, 9, 35, 0
7, 61716, Note_on_c, 9, 51, 0
7, 61804, Note_on_c, 9, 51, 75
7, 61816, Note_on_c, 9, 44, 46
7, 61976, Note_on_c, 9, 44, 0
7, 62024, Note_on_c, 9, 51, 0
7, 62104, Note_on_c, 9, 51, 38
7, 62128, Note_on_c, 9, 51, 0
7, 62188, Note_on_c, 9, 40, 71
7, 62208, Note_on_c, 9, 51, 46
7, 62216, Note_on_c, 9, 40, 0
7, 62388, Note_on_c, 9, 40, 71
7, 62412, Note_on_c, 9, 51, 0
7, 62420, Note_on_c, 9, 40, 0
7, 62452, Note_on_c, 9, 53, 69
7, 62540, Note_on_c, 9, 53, 0
7, 62580, Note_on_c, 9, 40, 73
7, 62584, Note_on_c, 9, 44, 50
7, 62608, Note_on_c, 9, 40, 0
7, 62620, Note_on_c, 9, 51, 14
7, 62672, Note_on_c, 9, 40, 69
7, 62720, Note_on_c, 9, 40, 0
7, 62720, Note_on_c, 9, 44, 0
7, 62872, Note_on_c, 9, 51, 0
7, 62940, Note_on_c, 9, 51, 45
7, 62960, Note_on_c, 9, 35, 68
7, 63020, Note_on_c, 9, 35, 0
7, 63248, Note_on_c, 9, 51, 0
7, 63340, Note_on_c, 9, 51, 49
7, 63352, Note_on_c, 9, 44, 51
7, 63448, Note_on_c, 9, 44, 0
7, 63612, Note_on_c, 9, 35, 47
7, 63632, Note_on_c, 9, 51, 0
7, 63644, Note_on_c, 9, 35, 0
7, 63740, Note_on_c, 9, 51, 49
7, 64064, Note_on_c, 9, 51, 0
7, 64120, Note_on_c, 9, 44, 67
7, 64124, Note_on_c, 9, 51, 55
7, 64216, Note_on_c, 9, 44, 0
7, 64368, Note_on_c, 9, 51, 0
7, 64400, Note_on_c, 9, 35, 46
7, 64420, Note_on_c, 9, 51, 31
7, 64432, Note_on_c, 9, 35, 0
7, 64448, Note_on_c, 9, 51, 0
7, 64504, Note_on_c, 9, 51, 56
7, 64516, Note_on_c, 9, 35, 46
7, 64644, Note_on_c, 9, 35, 0
7, 64816, Note_on_c, 9, 51, 0
7, 64888, Note_on_c, 9, 44, 64
7, 64904, Note_on_c, 9, 51, 55
7, 64984, Note_on_c, 9, 44, 0
7, 65152, Note_on_c, 9, 51, 0
7, 65196, Note_on_c, 9, 51, 27
7, 65232, Note_on_c, 9, 51, 0
7, 65284, Note_on_c, 9, 51, 67
7, 65436, Note_on_c, 9, 37, 33
7, 65468, Note_on_c, 9, 37, 0
7, 65520, Note_on_c, 9, 51, 0
7, 65576, Note_on_c, 9, 37, 64
7, 65580, Note_on_c, 9, 51, 37
7, 65604, Note_on_c, 9, 51, 0
7, 65628, Note_on_c, 9, 37, 0
7, 65652, Note_on_c, 9, 51, 67
7, 65656, Note_on_c, 9, 44, 60
7, 65692, Note_on_c, 9, 37, 64
7, 65768, Note_on_c, 9, 37, 0
7, 65776, Note_on_c, 9, 44, 0
7, 65908, Note_on_c, 9, 37, 69
7, 65960, Note_on_c, 9, 51, 0
7, 66020, Note_on_c, 9, 37, 0
7, 66048, Note_on_c, 9, 51, 64
7, 66060, Note_on_c, 9, 35, 50
7, 66228, Note_on_c, 9, 35, 0
7, 66284, Note_on_c, 9, 35, 57
7, 66332, Note_on_c, 9, 35, 0
7, 66336, Note_on_c, 9, 51, 0
7, 66424, Note_on_c, 9, 44, 58
7, 66424, Note_on_c, 9, 51, 67
7, 66560, Note_on_c, 9, 44, 0
7, 66660, Note_on_c, 9, 51, 0
7, 66732, Note_on_c, 9, 51, 34
7, 66768, Note_on_c, 9, 51, 0
7, 66816, Note_on_c, 9, 51, 57
7, 67076, Note_on_c, 9, 35, 54
7, 67104, Note_on_c, 9, 35, 0
7, 67132, Note_on_c, 9, 51, 0
7, 67192, Note_on_c, 9, 44, 59
7, 67224, Note_on_c, 9, 51, 71
7, 67344, Note_on_c, 9, 44, 0
7, 67448, Note_on_c, 9, 51, 0
7, 67508, Note_on_c, 9, 51, 49
7, 67536, Note_on_c, 9, 51, 0
7, 67600, Note_on_c, 9, 51, 52
7, 67880, Note_on_c, 9, 51, 0
7, 67960, Note_on_c, 9, 44, 61
7, 67980, Note_on_c, 9, 51, 71
7, 68088, Note_on_c, 9, 44, 0
7, 68240, Note_on_c, 9, 51, 0
7, 68324, Note_on_c, 9, 37, 64
7, 68360, Note_on_c, 9, 37, 0
7, 68364, Note_on_c, 9, 51, 47
7, 68436, Note_on_c, 9, 37, 43
7, 68468, Note_on_c, 9, 37, 0
7, 68588, Note_on_c, 9, 51, 0
7, 68648, Note_on_c, 9, 51, 37
7, 68688, Note_on_c, 9, 51, 0
7, 68728, Note_on_c, 9, 44, 63
7, 68736, Note_on_c, 9, 51, 76
7, 68872, Note_on_c, 9, 44, 0
7, 68980, Note_on_c, 9, 35, 69
7, 69032, Note_on_c, 9, 51, 0
7, 69044, Note_on_c, 9, 35, 0
7, 69104, Note_on_c, 9, 35, 57
7, 69108, Note_on_c, 9, 51, 61
7, 69208, Note_on_c, 9, 35, 0
7, 69372, Note_on_c, 9, 51, 0
7, 69476, Note_on_c, 9, 51, 60
7, 69496, Note_on_c, 9, 44, 64
7, 69640, Note_on_c, 9, 44, 0
7, 69752, Note_on_c, 9, 51, 0
7, 69756, Note_on_c, 9, 35, 49
7, 69836, Note_on_c, 9, 35, 0
7, 69880, Note_on_c, 9, 51, 56
7, 70076, Note_on_c, 9, 51, 0
7, 70136, Note_on_c, 9, 53, 73
7, 70232, Note_on_c, 9, 53, 0
7, 70260, Note_on_c, 9, 51, 49
7, 70260, Note_on_c, 9, 35, 45
7, 70264, Note_on_c, 9, 44, 67
7, 70360, Note_on_c, 9, 44, 0
7, 70428, Note_on_c, 9, 35, 0
7, 70500, Note_on_c, 9, 35, 51
7, 70556, Note_on_c, 9, 51, 0
7, 70588, Note_on_c, 9, 35, 0
7, 70640, Note_on_c, 9, 51, 46
7, 70912, Note_on_c, 9, 51, 0
7, 71008, Note_on_c, 9, 35, 36
7, 71016, Note_on_c, 9, 51, 59
7, 71032, Note_on_c, 9, 44, 63
7, 71152, Note_on_c, 9, 44, 0
7, 71180, Note_on_c, 9, 35, 0
7, 71284, Note_on_c, 9, 35, 62
7, 71292, Note_on_c, 9, 51, 0
7, 71352, Note_on_c, 9, 35, 0
7, 71420, Note_on_c, 9, 51, 53
7, 71684, Note_on_c, 9, 51, 0
7, 71800, Note_on_c, 9, 44, 58
7, 71808, Note_on_c, 9, 51, 70
7, 71936, Note_on_c, 9, 44, 0
7, 72044, Note_on_c, 9, 51, 0
7, 72088, Note_on_c, 9, 35, 46
7, 72104, Note_on_c, 9, 51, 40
7, 72132, Note_on_c, 9, 51, 0
7, 72156, Note_on_c, 9, 35, 0
7, 72200, Note_on_c, 9, 51, 37
7, 72468, Note_on_c, 9, 51, 0
7, 72568, Note_on_c, 9, 44, 57
7, 72572, Note_on_c, 9, 51, 53
7, 72696, Note_on_c, 9, 44, 0
7, 72788, Note_on_c, 9, 51, 0
7, 72864, Note_on_c, 9, 51, 31
7, 72896, Note_on_c, 9, 51, 0
7, 72956, Note_on_c, 9, 35, 46
7, 72960, Note_on_c, 9, 51, 43
7, 73000, Note_on_c, 9, 35, 0
7, 73052, Note_on_c, 9, 51, 0
7, 73324, Note_on_c, 9, 51, 48
7, 73336, Note_on_c, 9, 44, 56
7, 73456, Note_on_c, 9, 51, 0
7, 73464, Note_on_c, 9, 44, 0
7, 73616, Note_on_c, 9, 51, 31
7, 73624, Note_on_c, 9, 35, 24
7, 73648, Note_on_c, 9, 51, 0
7, 73656, Note_on_c, 9, 35, 0
7, 73712, Note_on_c, 9, 51, 49
7, 73824, Note_on_c, 9, 51, 0
7, 73976, Note_on_c, 9, 51, 52
7, 74024, Note_on_c, 9, 51, 0
7, 74076, Note_on_c, 9, 57, 74
7, 74104, Note_on_c, 9, 44, 55
7, 74232, Note_on_c, 9, 44, 0
7, 74332, Note_on_c, 9, 57, 0
7, 74368, Note_on_c, 9, 35, 49
7, 74408, Note_on_c, 9, 35, 0
7, 74724, Note_on_c, 9, 37, 67
7, 74784, Note_on_c, 9, 37, 0
7, 74872, Note_on_c, 9, 44, 54
7, 74992, Note_on_c, 9, 44, 0
7, 75024, Note_on_c, 9, 37, 48
7, 75048, Note_on_c, 9, 37, 0
7, 75112, Note_on_c, 9, 37, 64
7, 75136, Note_on_c, 9, 51, 54
7, 75172, Note_on_c, 9, 51, 0
7, 75184, Note_on_c, 9, 37, 0
7, 75232, Note_on_c, 9, 51, 47
7, 75236, Note_on_c, 9, 57, 66
7, 75252, Note_on_c, 9, 35, 65
7, 75304, Note_on_c, 9, 57, 0
7, 75328, Note_on_c, 9, 35, 0
7, 75464, Note_on_c, 9, 51, 0
7, 75640, Note_on_c, 9, 44, 52
7, 75744, Note_on_c, 9, 44, 0
7, 76024, Note_on_c, 9, 51, 47
7, 76276, Note_on_c, 9, 51, 0
7, 76384, Note_on_c, 9, 37, 38
7, 76408, Note_on_c, 9, 44, 42
7, 76412, Note_on_c, 9, 51, 62
7, 76472, Note_on_c, 9, 37, 0
7, 76512, Note_on_c, 9, 44, 0
7, 76616, Note_on_c, 9, 51, 0
7, 76636, Note_on_c, 9, 35, 62
7, 76712, Note_on_c, 9, 35, 0
7, 76716, Note_on_c, 9, 51, 29
7, 76744, Note_on_c, 9, 51, 0
7, 76796, Note_on_c, 9, 51, 39
7, 77056, Note_on_c, 9, 51, 0
7, 77160, Note_on_c, 9, 51, 55
7, 77176, Note_on_c, 9, 44, 40
7, 77272, Note_on_c, 9, 44, 0
7, 77364, Note_on_c, 9, 51, 0
7, 77440, Note_on_c, 9, 51, 44
7, 77496, Note_on_c, 9, 51, 0
7, 77552, Note_on_c, 9, 51, 40
7, 77752, Note_on_c, 9, 51, 0
7, 77816, Note_on_c, 9, 51, 52
7, 77840, Note_on_c, 9, 51, 0
7, 77932, Note_on_c, 9, 51, 80
7, 77944, Note_on_c, 9, 44, 63
7, 78040, Note_on_c, 9, 44, 0
7, 78204, Note_on_c, 9, 51, 0
7, 78208, Note_on_c, 9, 35, 67
7, 78268, Note_on_c, 9, 35, 0
7, 78324, Note_on_c, 9, 51, 45
7, 78344, Note_on_c, 9, 35, 38
7, 78424, Note_on_c, 9, 35, 0
7, 78552, Note_on_c, 9, 51, 0
7, 78712, Note_on_c, 9, 44, 61
7, 78744, Note_on_c, 9, 51, 59
7, 78840, Note_on_c, 9, 44, 0
7, 78980, Note_on_c, 9, 35, 50
7, 79028, Note_on_c, 9, 35, 0
7, 79036, Note_on_c, 9, 51, 0
7, 79352, Note_on_c, 9, 51, 36
7, 79384, Note_on_c, 9, 51, 0
7, 79460, Note_on_c, 9, 51, 46
7, 79480, Note_on_c, 9, 44, 59
7, 79600, Note_on_c, 9, 44, 0
7, 79748, Note_on_c, 9, 35, 58
7, 79764, Note_on_c, 9, 51, 0
7, 79780, Note_on_c, 9, 35, 0
7, 79848, Note_on_c, 9, 51, 59
7, 79876, Note_on_c, 9, 35, 47
7, 79920, Note_on_c, 9, 35, 0
7, 80088, Note_on_c, 9, 51, 0
7, 80224, Note_on_c, 9, 51, 52
7, 80248, Note_on_c, 9, 44, 60
7, 80392, Note_on_c, 9, 44, 0
7, 80456, Note_on_c, 9, 51, 0
7, 80500, Note_on_c, 9, 35, 44
7, 80528, Note_on_c, 9, 51, 30
7, 80532, Note_on_c, 9, 35, 0
7, 80564, Note_on_c, 9, 51, 0
7, 80616, Note_on_c, 9, 51, 57
7, 80656, Note_on_c, 9, 35, 26
7, 80680, Note_on_c, 9, 35, 0
7, 80856, Note_on_c, 9, 51, 0
7, 80912, Note_on_c, 9, 35, 36
7, 80948, Note_on_c, 9, 35, 0
7, 81016, Note_on_c, 9, 44, 67
7, 81024, Note_on_c, 9, 51, 56
7, 81024, Note_on_c, 9, 37, 80
7, 81148, Note_on_c, 9, 37, 0
7, 81184, Note_on_c, 9, 44, 0
7, 81248, Note_on_c, 9, 51, 0
7, 81292, Note_on_c, 9, 35, 33
7, 81316, Note_on_c, 9, 51, 33
7, 81328, Note_on_c, 9, 35, 0
7, 81340, Note_on_c, 9, 51, 0
7, 81392, Note_on_c, 9, 35, 44
7, 81404, Note_on_c, 9, 51, 40
7, 81472, Note_on_c, 9, 35, 0
7, 81668, Note_on_c, 9, 51, 0
7, 81768, Note_on_c, 9, 51, 60
7, 81784, Note_on_c, 9, 44, 67
7, 81960, Note_on_c, 9, 44, 0
7, 82048, Note_on_c, 9, 35, 57
7, 82056, Note_on_c, 9, 51, 0
7, 82084, Note_on_c, 9, 35, 0
7, 82164, Note_on_c, 9, 51, 55
7, 82444, Note_on_c, 9, 51, 0
7, 82552, Note_on_c, 9, 44, 63
7, 82552, Note_on_c, 9, 51, 55
7, 82752, Note_on_c, 9, 44, 0
7, 82780, Note_on_c, 9, 51, 0
7, 82784, Note_on_c, 9, 35, 50
7, 82828, Note_on_c, 9, 35, 0
7, 82844, Note_on_c, 9, 51, 34
7, 82884, Note_on_c, 9, 51, 0
7, 82948, Note_on_c, 9, 51, 43
7, 83236, Note_on_c, 9, 51, 0
7, 83320, Note_on_c, 9, 44, 61
7, 83324, Note_on_c, 9, 51, 57
7, 83512, Note_on_c, 9, 44, 0
7, 83544, Note_on_c, 9, 51, 0
7, 83612, Note_on_c, 9, 51, 40
7, 83644, Note_on_c, 9, 51, 0
7, 83716, Note_on_c, 9, 51, 31
7, 83928, Note_on_c, 9, 51, 0
7, 84000, Note_on_c, 9, 51, 29
7, 84028, Note_on_c, 9, 51, 0
7, 84088, Note_on_c, 9, 44, 63
7, 84100, Note_on_c, 9, 37, 28
7, 84104, Note_on_c, 9, 51, 64
7, 84256, Note_on_c, 9, 44, 0
7, 84336, Note_on_c, 9, 37, 0
7, 84372, Note_on_c, 9, 35, 53
7, 84388, Note_on_c, 9, 51, 0
7, 84444, Note_on_c, 9, 35, 0
7, 84496, Note_on_c, 9, 51, 44
7, 84700, Note_on_c, 9, 51, 0
7, 84764, Note_on_c, 9, 51, 35
7, 84792, Note_on_c, 9, 51, 0
7, 84856, Note_on_c, 9, 44, 53
7, 84864, Note_on_c, 9, 51, 50
7, 85024, Note_on_c, 9, 44, 0
7, 85128, Note_on_c, 9, 35, 37
7, 85164, Note_on_c, 9, 51, 0
7, 85168, Note_on_c, 9, 35, 0
7, 85248, Note_on_c, 9, 51, 53
7, 85476, Note_on_c, 9, 51, 0
7, 85536, Note_on_c, 9, 51, 25
7, 85564, Note_on_c, 9, 51, 0
7, 85624, Note_on_c, 9, 44, 65
7, 85624, Note_on_c, 9, 51, 51
7, 85792, Note_on_c, 9, 44, 0
7, 85928, Note_on_c, 9, 51, 0
7, 86000, Note_on_c, 9, 51, 44
7, 86248, Note_on_c, 9, 51, 0
7, 86380, Note_on_c, 9, 51, 64
7, 86392, Note_on_c, 9, 44, 62
7, 86552, Note_on_c, 9, 44, 0
7, 86640, Note_on_c, 9, 35, 38
7, 86660, Note_on_c, 9, 51, 0
7, 86676, Note_on_c, 9, 35, 0
7, 86756, Note_on_c, 9, 37, 57
7, 86760, Note_on_c, 9, 51, 48
7, 86784, Note_on_c, 9, 37, 0
7, 86948, Note_on_c, 9, 37, 79
7, 86980, Note_on_c, 9, 51, 0
7, 87000, Note_on_c, 9, 37, 0
7, 87048, Note_on_c, 9, 51, 40
7, 87072, Note_on_c, 9, 51, 0
7, 87148, Note_on_c, 9, 51, 40
7, 87156, Note_on_c, 9, 37, 85
7, 87160, Note_on_c, 9, 46, 56
7, 87204, Note_on_c, 9, 37, 0
7, 87224, Note_on_c, 9, 46, 0
7, 87268, Note_on_c, 9, 37, 60
7, 87316, Note_on_c, 9, 37, 0
7, 87356, Note_on_c, 9, 51, 0
7, 87428, Note_on_c, 9, 51, 62
7, 87480, Note_on_c, 9, 51, 0
7, 87548, Note_on_c, 9, 35, 47
7, 87568, Note_on_c, 9, 51, 42
7, 87592, Note_on_c, 9, 35, 0
7, 87792, Note_on_c, 9, 51, 0
7, 87920, Note_on_c, 9, 51, 62
7, 87928, Note_on_c, 9, 44, 62
7, 88056, Note_on_c, 9, 44, 0
7, 88180, Note_on_c, 9, 35, 36
7, 88212, Note_on_c, 9, 51, 0
7, 88216, Note_on_c, 9, 35, 0
7, 88304, Note_on_c, 9, 51, 44
7, 88572, Note_on_c, 9, 51, 0
7, 88676, Note_on_c, 9, 51, 55
7, 88696, Note_on_c, 9, 44, 67
7, 88832, Note_on_c, 9, 44, 0
7, 88888, Note_on_c, 9, 51, 0
7, 88968, Note_on_c, 9, 51, 44
7, 89012, Note_on_c, 9, 51, 0
7, 89072, Note_on_c, 9, 51, 43
7, 89072, Note_on_c, 9, 35, 28
7, 89104, Note_on_c, 9, 35, 0
7, 89380, Note_on_c, 9, 51, 0
7, 89464, Note_on_c, 9, 44, 63
7, 89468, Note_on_c, 9, 51, 56
7, 89576, Note_on_c, 9, 44, 0
7, 89724, Note_on_c, 9, 51, 0
7, 89840, Note_on_c, 9, 51, 46
7, 90080, Note_on_c, 9, 51, 0
7, 90120, Note_on_c, 9, 51, 45
7, 90160, Note_on_c, 9, 51, 0
7, 90220, Note_on_c, 9, 51, 53
7, 90232, Note_on_c, 9, 44, 65
7, 90352, Note_on_c, 9, 44, 0
7, 90508, Note_on_c, 9, 51, 0
7, 90604, Note_on_c, 9, 51, 60
7, 90648, Note_on_c, 9, 35, 32
7, 90788, Note_on_c, 9, 35, 0
7, 90920, Note_on_c, 9, 51, 0
7, 91000, Note_on_c, 9, 44, 68
7, 91004, Note_on_c, 9, 51, 42
7, 91112, Note_on_c, 9, 44, 0
7, 91244, Note_on_c, 9, 51, 0
7, 91264, Note_on_c, 9, 35, 64
7, 91276, Note_on_c, 9, 53, 65
7, 91348, Note_on_c, 9, 35, 0
7, 91360, Note_on_c, 9, 53, 0
7, 91384, Note_on_c, 9, 51, 25
7, 91416, Note_on_c, 9, 35, 48
7, 91456, Note_on_c, 9, 35, 0
7, 91708, Note_on_c, 9, 51, 0
7, 91768, Note_on_c, 9, 44, 65
7, 91772, Note_on_c, 9, 51, 45
7, 91864, Note_on_c, 9, 44, 0
7, 92020, Note_on_c, 9, 35, 57
7, 92068, Note_on_c, 9, 35, 0
7, 92092, Note_on_c, 9, 51, 0
7, 92164, Note_on_c, 9, 51, 42
7, 92444, Note_on_c, 9, 51, 0
7, 92536, Note_on_c, 9, 44, 70
7, 92540, Note_on_c, 9, 51, 51
7, 92640, Note_on_c, 9, 44, 0
7, 92756, Note_on_c, 9, 51, 0
7, 92812, Note_on_c, 9, 51, 46
7, 92860, Note_on_c, 9, 51, 0
7, 92916, Note_on_c, 9, 51, 59
7, 93204, Note_on_c, 9, 51, 0
7, 93296, Note_on_c, 9, 51, 56
7, 93304, Note_on_c, 9, 44, 67
7, 93400, Note_on_c, 9, 44, 0
7, 93528, Note_on_c, 9, 51, 0
7, 93552, Note_on_c, 9, 35, 52
7, 93580, Note_on_c, 9, 35, 0
7, 93584, Note_on_c, 9, 51, 36
7, 93620, Note_on_c, 9, 51, 0
7, 93696, Note_on_c, 9, 51, 42
7, 93932, Note_on_c, 9, 51, 0
7, 93936, Note_on_c, 9, 46, 48
7, 93968, Note_on_c, 9, 46, 0
7, 94072, Note_on_c, 9, 44, 69
7, 94080, Note_on_c, 9, 51, 29
7, 94168, Note_on_c, 9, 44, 0
7, 94320, Note_on_c, 9, 35, 50
7, 94344, Note_on_c, 9, 51, 0
7, 94360, Note_on_c, 9, 35, 0
7, 94432, Note_on_c, 9, 51, 48
7, 94716, Note_on_c, 9, 51, 0
7, 94820, Note_on_c, 9, 51, 47
7, 94840, Note_on_c, 9, 44, 64
7, 94952, Note_on_c, 9, 44, 0
7, 95040, Note_on_c, 9, 51, 0
7, 95076, Note_on_c, 9, 35, 57
7, 95120, Note_on_c, 9, 51, 46
7, 95156, Note_on_c, 9, 51, 0
7, 95204, Note_on_c, 9, 35, 0
7, 95220, Note_on_c, 9, 51, 47
7, 95512, Note_on_c, 9, 51, 0
7, 95596, Note_on_c, 9, 51, 54
7, 95608, Note_on_c, 9, 44, 69
7, 95712, Note_on_c, 9, 44, 0
7, 95804, Note_on_c, 9, 51, 0
7, 95860, Note_on_c, 9, 35, 64
7, 95872, Note_on_c, 9, 51, 39
7, 95888, Note_on_c, 9, 35, 0
7, 95904, Note_on_c, 9, 51, 0
7, 95980, Note_on_c, 9, 51, 45
7, 96272, Note_on_c, 9, 51, 0
7, 96364, Note_on_c, 9, 51, 67
7, 96376, Note_on_c, 9, 44, 68
7, 96520, Note_on_c, 9, 44, 0
7, 96536, Note_on_c, 9, 51, 0
7, 96608, Note_on_c, 9, 35, 66
7, 96636, Note_on_c, 9, 51, 37
7, 96648, Note_on_c, 9, 35, 0
7, 96672, Note_on_c, 9, 51, 0
7, 96736, Note_on_c, 9, 35, 51
7, 96744, Note_on_c, 9, 51, 42
7, 96812, Note_on_c, 9, 35, 0
7, 96868, Note_on_c, 9, 51, 0
7, 97132, Note_on_c, 9, 51, 64
7, 97144, Note_on_c, 9, 44, 64
7, 97280, Note_on_c, 9, 44, 0
7, 97320, Note_on_c, 9, 51, 0
7, 97392, Note_on_c, 9, 35, 48
7, 97412, Note_on_c, 9, 51, 20
7, 97436, Note_on_c, 9, 51, 0
7, 97436, Note_on_c, 9, 35, 0
7, 97500, Note_on_c, 9, 51, 37
7, 97736, Note_on_c, 9, 51, 0
7, 97912, Note_on_c, 9, 44, 65
7, 98020, Note_on_c, 9, 51, 28
7, 98024, Note_on_c, 9, 44, 0
7, 98064, Note_on_c, 9, 51, 0
7, 98144, Note_on_c, 9, 51, 57
7, 98160, Note_on_c, 9, 35, 45
7, 98192, Note_on_c, 9, 35, 0
7, 98220, Note_on_c, 9, 51, 0
7, 98268, Note_on_c, 9, 51, 57
7, 98416, Note_on_c, 9, 50, 37
7, 98444, Note_on_c, 9, 50, 0
7, 98524, Note_on_c, 9, 50, 69
7, 98552, Note_on_c, 9, 51, 0
7, 98580, Note_on_c, 9, 50, 0
7, 98640, Note_on_c, 9, 50, 88
7, 98680, Note_on_c, 9, 44, 61
7, 98800, Note_on_c, 9, 51, 29
7, 98808, Note_on_c, 9, 44, 0
7, 98828, Note_on_c, 9, 51, 0
7, 98952, Note_on_c, 9, 50, 0
7, 99020, Note_on_c, 9, 48, 71
7, 99048, Note_on_c, 9, 48, 0
7, 99132, Note_on_c, 9, 48, 83
7, 99224, Note_on_c, 9, 48, 0
7, 99296, Note_on_c, 9, 47, 80
7, 99344, Note_on_c, 9, 47, 0
7, 99448, Note_on_c, 9, 44, 62
7, 99556, Note_on_c, 9, 35, 70
7, 99568, Note_on_c, 9, 44, 0
7, 99620, Note_on_c, 9, 35, 0
7, 99684, Note_on_c, 9, 37, 73
7, 99728, Note_on_c, 9, 51, 46
7, 99748, Note_on_c, 9, 37, 0
7, 99760, Note_on_c, 9, 51, 0
7, 99800, Note_on_c, 9, 35, 69
7, 99800, Note_on_c, 9, 57, 68
7, 99840, Note_on_c, 9, 51, 42
7, 99860, Note_on_c, 9, 57, 0
7, 99948, Note_on_c, 9, 35, 0
7, 100100, Note_on_c, 9, 51, 0
7, 100216, Note_on_c, 9, 44, 60
7, 100336, Note_on_c, 9, 44, 0
7, 100496, Note_on_c, 9, 51, 53
7, 100532, Note_on_c, 9, 51, 0
7, 100596, Note_on_c, 9, 51, 40
7, 100760, Note_on_c, 9, 37, 71
7, 100824, Note_on_c, 9, 37, 0
7, 100864, Note_on_c, 9, 51, 0
7, 100908, Note_on_c, 9, 37, 79
7, 100968, Note_on_c, 9, 51, 57
7, 100972, Note_on_c, 9, 37, 0
7, 100984, Note_on_c, 9, 44, 64
7, 101008, Note_on_c, 9, 57, 70
7, 101008, Note_on_c, 9, 35, 80
7, 101112, Note_on_c, 9, 44, 0
7, 101120, Note_on_c, 9, 57, 0
7, 101180, Note_on_c, 9, 51, 0
7, 101196, Note_on_c, 9, 35, 0
7, 101264, Note_on_c, 9, 51, 31
7, 101296, Note_on_c, 9, 51, 0
7, 101364, Note_on_c, 9, 51, 39
7, 101648, Note_on_c, 9, 51, 0
7, 101740, Note_on_c, 9, 51, 60
7, 101752, Note_on_c, 9, 44, 62
7, 101856, Note_on_c, 9, 44, 0
7, 101968, Note_on_c, 9, 51, 0
7, 102104, Note_on_c, 9, 51, 56
7, 102344, Note_on_c, 9, 51, 0
7, 102404, Note_on_c, 9, 37, 20
7, 102432, Note_on_c, 9, 37, 0
7, 102500, Note_on_c, 9, 51, 56
7, 102508, Note_on_c, 9, 35, 49
7, 102520, Note_on_c, 9, 44, 58
7, 102632, Note_on_c, 9, 44, 0
7, 102704, Note_on_c, 9, 51, 0
7, 102708, Note_on_c, 9, 35, 0
7, 102768, Note_on_c, 9, 35, 53
7, 102792, Note_on_c, 9, 51, 43
7, 102836, Note_on_c, 9, 35, 0
7, 102848, Note_on_c, 9, 51, 0
7, 102904, Note_on_c, 9, 51, 60
7, 103184, Note_on_c, 9, 51, 0
7, 103284, Note_on_c, 9, 51, 69
7, 103288, Note_on_c, 9, 44, 57
7, 103392, Note_on_c, 9, 44, 0
7, 103456, Note_on_c, 9, 51, 0
7, 103564, Note_on_c, 9, 51, 48
7, 103596, Note_on_c, 9, 51, 0
7, 103656, Note_on_c, 9, 51, 46
7, 103836, Note_on_c, 9, 51, 0
7, 103924, Note_on_c, 9, 53, 77
7, 104008, Note_on_c, 9, 53, 0
7, 104052, Note_on_c, 9, 51, 31
7, 104056, Note_on_c, 9, 44, 64
7, 104172, Note_on_c, 9, 51, 0
7, 104176, Note_on_c, 9, 44, 0
7, 104284, Note_on_c, 9, 53, 76
7, 104376, Note_on_c, 9, 53, 0
7, 104484, Note_on_c, 9, 51, 12
7, 104720, Note_on_c, 9, 51, 0
7, 104792, Note_on_c, 9, 51, 44
7, 104824, Note_on_c, 9, 44, 64
7, 104944, Note_on_c, 9, 44, 0
7, 105016, Note_on_c, 9, 51, 0
7, 105084, Note_on_c, 9, 51, 42
7, 105148, Note_on_c, 9, 51, 0
7, 105200, Note_on_c, 9, 51, 47
7, 105384, Note_on_c, 9, 51, 0
7, 105448, Note_on_c, 9, 53, 72
7, 105536, Note_on_c, 9, 53, 0
7, 105568, Note_on_c, 9, 51, 48
7, 105592, Note_on_c, 9, 46, 20
7, 105664, Note_on_c, 9, 51, 0
7, 105720, Note_on_c, 9, 46, 0
7, 105832, Note_on_c, 9, 51, 71
7, 105884, Note_on_c, 9, 51, 0
7, 105952, Note_on_c, 9, 51, 38
7, 105980, Note_on_c, 9, 35, 33
7, 106132, Note_on_c, 9, 35, 0
7, 106196, Note_on_c, 9, 51, 0
7, 106336, Note_on_c, 9, 51, 57
7, 106360, Note_on_c, 9, 44, 67
7, 106512, Note_on_c, 9, 44, 0
7, 106624, Note_on_c, 9, 51, 0
7, 106736, Note_on_c, 9, 51, 50
7, 107000, Note_on_c, 9, 51, 0
7, 107104, Note_on_c, 9, 37, 71
7, 107116, Note_on_c, 9, 51, 53
7, 107128, Note_on_c, 9, 44, 68
7, 107224, Note_on_c, 9, 44, 0
7, 107304, Note_on_c, 9, 37, 0
7, 107380, Note_on_c, 9, 51, 0
7, 107484, Note_on_c, 9, 35, 47
7, 107512, Note_on_c, 9, 51, 56
7, 107524, Note_on_c, 9, 35, 0
7, 107824, Note_on_c, 9, 51, 0
7, 107896, Note_on_c, 9, 44, 67
7, 107904, Note_on_c, 9, 53, 53
7, 107932, Note_on_c, 9, 53, 0
7, 107984, Note_on_c, 9, 44, 0
7, 107984, Note_on_c, 9, 53, 62
7, 108140, Note_on_c, 9, 53, 0
7, 108164, Note_on_c, 9, 35, 39
7, 108200, Note_on_c, 9, 35, 0
7, 108288, Note_on_c, 9, 51, 58
7, 108564, Note_on_c, 9, 51, 0
7, 108664, Note_on_c, 9, 44, 63
7, 108664, Note_on_c, 9, 51, 57
7, 108676, Note_on_c, 9, 37, 74
7, 108800, Note_on_c, 9, 44, 0
7, 108828, Note_on_c, 9, 37, 0
7, 108940, Note_on_c, 9, 51, 0
7, 109044, Note_on_c, 9, 51, 64
7, 109064, Note_on_c, 9, 35, 54
7, 109136, Note_on_c, 9, 35, 0
7, 109316, Note_on_c, 9, 51, 0
7, 109416, Note_on_c, 9, 51, 53
7, 109432, Note_on_c, 9, 44, 62
7, 109560, Note_on_c, 9, 44, 0
7, 109632, Note_on_c, 9, 51, 0
7, 109680, Note_on_c, 9, 35, 58
7, 109708, Note_on_c, 9, 51, 49
7, 109752, Note_on_c, 9, 51, 0
7, 109752, Note_on_c, 9, 35, 0
7, 109812, Note_on_c, 9, 51, 53
7, 110092, Note_on_c, 9, 51, 0
7, 110192, Note_on_c, 9, 51, 65
7, 110192, Note_on_c, 9, 37, 76
7, 110200, Note_on_c, 9, 44, 63
7, 110332, Note_on_c, 9, 37, 0
7, 110352, Note_on_c, 9, 44, 0
7, 110448, Note_on_c, 9, 35, 41
7, 110460, Note_on_c, 9, 51, 0
7, 110484, Note_on_c, 9, 35, 0
7, 110564, Note_on_c, 9, 51, 62
7, 110572, Note_on_c, 9, 35, 47
7, 110708, Note_on_c, 9, 35, 0
7, 110784, Note_on_c, 9, 51, 0
7, 110968, Note_on_c, 9, 44, 56
7, 110988, Note_on_c, 9, 51, 57
7, 111144, Note_on_c, 9, 44, 0
7, 111208, Note_on_c, 9, 51, 0
7, 111228, Note_on_c, 9, 35, 49
7, 111260, Note_on_c, 9, 35, 0
7, 111376, Note_on_c, 9, 51, 72
7, 111596, Note_on_c, 9, 51, 0
7, 111736, Note_on_c, 9, 44, 58
7, 111756, Note_on_c, 9, 51, 64
7, 111812, Note_on_c, 9, 51, 0
7, 111852, Note_on_c, 9, 51, 75
7, 111856, Note_on_c, 9, 44, 0
7, 111984, Note_on_c, 9, 51, 0
7, 111996, Note_on_c, 9, 37, 57
7, 112084, Note_on_c, 9, 37, 0
7, 112140, Note_on_c, 9, 35, 37
7, 112156, Note_on_c, 9, 51, 74
7, 112256, Note_on_c, 9, 35, 0
7, 112412, Note_on_c, 9, 51, 0
7, 112504, Note_on_c, 9, 44, 50
7, 112516, Note_on_c, 9, 51, 64
7, 112632, Note_on_c, 9, 44, 0
7, 112784, Note_on_c, 9, 51, 0
7, 112796, Note_on_c, 9, 35, 49
7, 112828, Note_on_c, 9, 35, 0
7, 112908, Note_on_c, 9, 51, 68
7, 113160, Note_on_c, 9, 51, 0
7, 113252, Note_on_c, 9, 51, 57
7, 113272, Note_on_c, 9, 44, 55
7, 113280, Note_on_c, 9, 37, 69
7, 113292, Note_on_c, 9, 51, 0
7, 113360, Note_on_c, 9, 51, 51
7, 113384, Note_on_c, 9, 37, 0
7, 113408, Note_on_c, 9, 44, 0
7, 113516, Note_on_c, 9, 51, 0
7, 113632, Note_on_c, 9, 35, 56
7, 113660, Note_on_c, 9, 51, 71
7, 113700, Note_on_c, 9, 35, 0
7, 113920, Note_on_c, 9, 51, 0
7, 114040, Note_on_c, 9, 44, 58
7, 114040, Note_on_c, 9, 51, 54
7, 114200, Note_on_c, 9, 44, 0
7, 114252, Note_on_c, 9, 51, 0
7, 114320, Note_on_c, 9, 35, 36
7, 114356, Note_on_c, 9, 35, 0
7, 114420, Note_on_c, 9, 51, 49
7, 114484, Note_on_c, 9, 51, 0
7, 114520, Note_on_c, 9, 53, 73
7, 114724, Note_on_c, 9, 53, 0
7, 114808, Note_on_c, 9, 46, 44
7, 114816, Note_on_c, 9, 51, 57
7, 114856, Note_on_c, 9, 51, 0
7, 114916, Note_on_c, 9, 53, 61
7, 114960, Note_on_c, 9, 46, 0
7, 115048, Note_on_c, 9, 35, 58
7, 115140, Note_on_c, 9, 35, 0
7, 115140, Note_on_c, 9, 53, 0
7, 115188, Note_on_c, 9, 51, 64
7, 115452, Note_on_c, 9, 51, 0
7, 115576, Note_on_c, 9, 44, 55
7, 115576, Note_on_c, 9, 51, 49
7, 115728, Note_on_c, 9, 44, 0
7, 115784, Note_on_c, 9, 51, 0
7, 115860, Note_on_c, 9, 51, 46
7, 115900, Note_on_c, 9, 51, 0
7, 115948, Note_on_c, 9, 35, 46
7, 115968, Note_on_c, 9, 51, 56
7, 115980, Note_on_c, 9, 35, 0
7, 116276, Note_on_c, 9, 51, 0
7, 116344, Note_on_c, 9, 44, 54
7, 116356, Note_on_c, 9, 51, 62
7, 116496, Note_on_c, 9, 44, 0
7, 116564, Note_on_c, 9, 51, 0
7, 116640, Note_on_c, 9, 51, 36
7, 116672, Note_on_c, 9, 51, 0
7, 116724, Note_on_c, 9, 51, 49
7, 116760, Note_on_c, 9, 35, 41
7, 116792, Note_on_c, 9, 35, 0
7, 116876, Note_on_c, 9, 51, 0
7, 116972, Note_on_c, 9, 53, 76
7, 117060, Note_on_c, 9, 53, 0
7, 117100, Note_on_c, 9, 51, 42
7, 117112, Note_on_c, 9, 44, 60
7, 117280, Note_on_c, 9, 44, 0
7, 117312, Note_on_c, 9, 51, 0
7, 117364, Note_on_c, 9, 35, 52
7, 117404, Note_on_c, 9, 35, 0
7, 117484, Note_on_c, 9, 51, 42
7, 117732, Note_on_c, 9, 51, 0
7, 117864, Note_on_c, 9, 51, 56
7, 117880, Note_on_c, 9, 44, 55
7, 118056, Note_on_c, 9, 44, 0
7, 118080, Note_on_c, 9, 51, 0
7, 118116, Note_on_c, 9, 37, 53
7, 118140, Note_on_c, 9, 51, 52
7, 118176, Note_on_c, 9, 51, 0
7, 118204, Note_on_c, 9, 37, 0
7, 118248, Note_on_c, 9, 51, 48
7, 118268, Note_on_c, 9, 35, 31
7, 118380, Note_on_c, 9, 35, 0
7, 118532, Note_on_c, 9, 51, 0
7, 118648, Note_on_c, 9, 44, 60
7, 118648, Note_on_c, 9, 51, 67
7, 118816, Note_on_c, 9, 44, 0
7, 118900, Note_on_c, 9, 51, 0
7, 118904, Note_on_c, 9, 35, 48
7, 118936, Note_on_c, 9, 35, 0
7, 119036, Note_on_c, 9, 51, 59
7, 119040, Note_on_c, 9, 53, 44
7, 119068, Note_on_c, 9, 53, 0
7, 119120, Note_on_c, 9, 53, 65
7, 119180, Note_on_c, 9, 53, 0
7, 119264, Note_on_c, 9, 51, 0
7, 119416, Note_on_c, 9, 44, 56
7, 119416, Note_on_c, 9, 51, 59
7, 119416, Note_on_c, 9, 53, 87
7, 119472, Note_on_c, 9, 53, 0
7, 119568, Note_on_c, 9, 44, 0
7, 119632, Note_on_c, 9, 51, 0
7, 119668, Note_on_c, 9, 35, 55
7, 119712, Note_on_c, 9, 51, 39
7, 119716, Note_on_c, 9, 35, 0
7, 119740, Note_on_c, 9, 51, 0
7, 119796, Note_on_c, 9, 51, 46
7, 120000, Note_on_c, 9, 51, 0
7, 120184, Note_on_c, 9, 44, 56
7, 120188, Note_on_c, 9, 51, 64
7, 120344, Note_on_c, 9, 44, 0
7, 120376, Note_on_c, 9, 51, 0
7, 120456, Note_on_c, 9, 35, 45
7, 120480, Note_on_c, 9, 51, 53
7, 120488, Note_on_c, 9, 35, 0
7, 120508, Note_on_c, 9, 51, 0
7, 120568, Note_on_c, 9, 35, 48
7, 120584, Note_on_c, 9, 51, 44
7, 120636, Note_on_c, 9, 35, 0
7, 120820, Note_on_c, 9, 51, 0
7, 120948, Note_on_c, 9, 51, 65
7, 120952, Note_on_c, 9, 46, 36
7, 121080, Note_on_c, 9, 46, 0
7, 121208, Note_on_c, 9, 51, 0
7, 121216, Note_on_c, 9, 35, 38
7, 121252, Note_on_c, 9, 35, 0
7, 121336, Note_on_c, 9, 51, 65
7, 121568, Note_on_c, 9, 51, 0
7, 121720, Note_on_c, 9, 44, 50
7, 121732, Note_on_c, 9, 51, 71
7, 121888, Note_on_c, 9, 44, 0
7, 121920, Note_on_c, 9, 51, 0
7, 122032, Note_on_c, 9, 51, 53
7, 122056, Note_on_c, 9, 51, 0
7, 122108, Note_on_c, 9, 46, 59
7, 122124, Note_on_c, 9, 51, 59
7, 122288, Note_on_c, 9, 46, 0
7, 122388, Note_on_c, 9, 51, 0
7, 122464, Note_on_c, 9, 46, 67
7, 122488, Note_on_c, 9, 44, 53
7, 122488, Note_on_c, 9, 51, 67
7, 122648, Note_on_c, 9, 44, 0
7, 122660, Note_on_c, 9, 46, 0
7, 122672, Note_on_c, 9, 51, 0
7, 122784, Note_on_c, 9, 51, 46
7, 122808, Note_on_c, 9, 51, 0
7, 122884, Note_on_c, 9, 51, 58
7, 123124, Note_on_c, 9, 35, 32
7, 123152, Note_on_c, 9, 51, 0
7, 123160, Note_on_c, 9, 35, 0
7, 123232, Note_on_c, 9, 35, 46
7, 123256, Note_on_c, 9, 44, 61
7, 123264, Note_on_c, 9, 51, 67
7, 123296, Note_on_c, 9, 35, 0
7, 123400, Note_on_c, 9, 44, 0
7, 123444, Note_on_c, 9, 51, 0
7, 123492, Note_on_c, 9, 46, 59
7, 123528, Note_on_c, 9, 46, 0
7, 123556, Note_on_c, 9, 51, 54
7, 123580, Note_on_c, 9, 51, 0
7, 123660, Note_on_c, 9, 51, 58
7, 123744, Note_on_c, 9, 46, 61
7, 123788, Note_on_c, 9, 46, 0
7, 123840, Note_on_c, 9, 51, 0
7, 123884, Note_on_c, 9, 35, 64
7, 123904, Note_on_c, 9, 53, 72
7, 123908, Note_on_c, 9, 54, 50
7, 123928, Note_on_c, 9, 35, 0
7, 123992, Note_on_c, 9, 53, 0
7, 124004, Note_on_c, 9, 54, 0
7, 124016, Note_on_c, 9, 35, 71
7, 124024, Note_on_c, 9, 44, 54
7, 124044, Note_on_c, 9, 51, 20
7, 124100, Note_on_c, 9, 35, 0
7, 124168, Note_on_c, 9, 44, 0
7, 124208, Note_on_c, 9, 51, 0
7, 124280, Note_on_c, 9, 51, 56
7, 124284, Note_on_c, 9, 35, 74
7, 124340, Note_on_c, 9, 35, 0
7, 124364, Note_on_c, 9, 51, 0
7, 124412, Note_on_c, 9, 51, 49
7, 124420, Note_on_c, 9, 35, 73
7, 124536, Note_on_c, 9, 35, 0
7, 124644, Note_on_c, 9, 51, 0
7, 124776, Note_on_c, 9, 51, 64
7, 124792, Note_on_c, 9, 44, 57
7, 124920, Note_on_c, 9, 44, 0
7, 124976, Note_on_c, 9, 51, 0
7, 125052, Note_on_c, 9, 51, 47
7, 125056, Note_on_c, 9, 35, 49
7, 125088, Note_on_c, 9, 35, 0
7, 125096, Note_on_c, 9, 51, 0
7, 125164, Note_on_c, 9, 51, 51
7, 125356, Note_on_c, 9, 51, 0
7, 125416, Note_on_c, 9, 53, 74
7, 125448, Note_on_c, 9, 35, 79
7, 125504, Note_on_c, 9, 35, 0
7, 125528, Note_on_c, 9, 53, 0
7, 125560, Note_on_c, 9, 44, 54
7, 125560, Note_on_c, 9, 51, 31
7, 125572, Note_on_c, 9, 35, 82
7, 125680, Note_on_c, 9, 44, 0
7, 125756, Note_on_c, 9, 35, 0
7, 125832, Note_on_c, 9, 51, 0
7, 125908, Note_on_c, 9, 51, 49
7, 126132, Note_on_c, 9, 51, 0
7, 126184, Note_on_c, 9, 53, 87
7, 126220, Note_on_c, 9, 55, 55
7, 126232, Note_on_c, 9, 56, 30
7, 126288, Note_on_c, 9, 56, 0
7, 126308, Note_on_c, 9, 51, 53
7, 126312, Note_on_c, 9, 55, 0
7, 126324, Note_on_c, 9, 53, 0
7, 126328, Note_on_c, 9, 44, 49
7, 126464, Note_on_c, 9, 44, 0
7, 126592, Note_on_c, 9, 35, 76
7, 126596, Note_on_c, 9, 51, 0
7, 126672, Note_on_c, 9, 35, 0
7, 126700, Note_on_c, 9, 51, 33
7, 126716, Note_on_c, 9, 35, 89
7, 126924, Note_on_c, 9, 35, 0
7, 126976, Note_on_c, 9, 51, 0
7, 127076, Note_on_c, 9, 51, 56
7, 127096, Note_on_c, 9, 44, 48
7, 127224, Note_on_c, 9, 44, 0
7, 127308, Note_on_c, 9, 51, 0
7, 127372, Note_on_c, 9, 51, 42
7, 127424, Note_on_c, 9, 51, 0
7, 127484, Note_on_c, 9, 51, 50
7, 127728, Note_on_c, 9, 37, 49
7, 127776, Note_on_c, 9, 51, 0
7, 127800, Note_on_c, 9, 37, 0
7, 127852, Note_on_c, 9, 35, 43
7, 127864, Note_on_c, 9, 44, 51
7, 127868, Note_on_c, 9, 51, 65
7, 127976, Note_on_c, 9, 44, 0
7, 128064, Note_on_c, 9, 35, 0
7, 128132, Note_on_c, 9, 35, 55
7, 128160, Note_on_c, 9, 51, 0
7, 128200, Note_on_c, 9, 35, 0
7, 128252, Note_on_c, 9, 51, 57
7, 128464, Note_on_c, 9, 51, 0
7, 128632, Note_on_c, 9, 44, 57
7, 128632, Note_on_c, 9, 51, 55
7, 128768, Note_on_c, 9, 44, 0
7, 128884, Note_on_c, 9, 51, 0
7, 129008, Note_on_c, 9, 51, 55
7, 129020, Note_on_c, 9, 35, 46
7, 129060, Note_on_c, 9, 35, 0
7, 129224, Note_on_c, 9, 51, 0
7, 129296, Note_on_c, 9, 51, 34
7, 129328, Note_on_c, 9, 51, 0
7, 129400, Note_on_c, 9, 44, 56
7, 129408, Note_on_c, 9, 51, 46
7, 129552, Note_on_c, 9, 44, 0
7, 129664, Note_on_c, 9, 35, 44
7, 129692, Note_on_c, 9, 51, 0
7, 129696, Note_on_c, 9, 35, 0
7, 129788, Note_on_c, 9, 50, 87
7, 129792, Note_on_c, 9, 51, 67
7, 129864, Note_on_c, 9, 50, 0
7, 129916, Note_on_c, 9, 48, 80
7, 129964, Note_on_c, 9, 48, 0
7, 130048, Note_on_c, 9, 51, 0
7, 130168, Note_on_c, 9, 44, 52
7, 130180, Note_on_c, 9, 47, 84
7, 130236, Note_on_c, 9, 47, 0
7, 130288, Note_on_c, 9, 45, 80
7, 130340, Note_on_c, 9, 45, 0
7, 130352, Note_on_c, 9, 51, 46
7, 130376, Note_on_c, 9, 44, 0
7, 130380, Note_on_c, 9, 51, 0
7, 130440, Note_on_c, 9, 35, 89
7, 130472, Note_on_c, 9, 51, 46
7, 130532, Note_on_c, 9, 51, 0
7, 130580, Note_on_c, 9, 51, 64
7, 130628, Note_on_c, 9, 35, 0
7, 130792, Note_on_c, 9, 51, 0
7, 130936, Note_on_c, 9, 44, 54
7, 130940, Note_on_c, 9, 51, 51
7, 131128, Note_on_c, 9, 44, 0
7, 131184, Note_on_c, 9, 51, 0
7, 131312, Note_on_c, 9, 51, 55
7, 131436, Note_on_c, 9, 50, 60
7, 131476, Note_on_c, 9, 50, 0
7, 131524, Note_on_c, 9, 51, 0
7, 131560, Note_on_c, 9, 35, 59
7, 131592, Note_on_c, 9, 35, 0
7, 131676, Note_on_c, 9, 35, 75
7, 131700, Note_on_c, 9, 51, 56
7, 131704, Note_on_c, 9, 44, 56
7, 131756, Note_on_c, 9, 51, 0
7, 131800, Note_on_c, 9, 51, 57
7, 131824, Note_on_c, 9, 35, 0
7, 131876, Note_on_c, 9, 51, 0
7, 131880, Note_on_c, 9, 44, 0
7, 131940, Note_on_c, 9, 35, 85
7, 132048, Note_on_c, 9, 35, 0
7, 132092, Note_on_c, 9, 51, 68
7, 132332, Note_on_c, 9, 51, 0
7, 132472, Note_on_c, 9, 44, 57
7, 132472, Note_on_c, 9, 51, 47
7, 132632, Note_on_c, 9, 44, 0
7, 132740, Note_on_c, 9, 51, 0
7, 132852, Note_on_c, 9, 53, 58
7, 132880, Note_on_c, 9, 53, 0
7, 132960, Note_on_c, 9, 53, 37
7, 133056, Note_on_c, 9, 53, 0
7, 133216, Note_on_c, 9, 51, 62
7, 133240, Note_on_c, 9, 44, 51
7, 133416, Note_on_c, 9, 44, 0
7, 133476, Note_on_c, 9, 35, 49
7, 133512, Note_on_c, 9, 35, 0
7, 133512, Note_on_c, 9, 51, 0
7, 133608, Note_on_c, 9, 51, 47
7, 133608, Note_on_c, 9, 35, 49
7, 133676, Note_on_c, 9, 35, 0
7, 133888, Note_on_c, 9, 51, 0
7, 133992, Note_on_c, 9, 53, 41
7, 134008, Note_on_c, 9, 44, 52
7, 134024, Note_on_c, 9, 53, 0
7, 134084, Note_on_c, 9, 53, 68
7, 134168, Note_on_c, 9, 44, 0
7, 134188, Note_on_c, 9, 53, 0
7, 134364, Note_on_c, 9, 51, 55
7, 134372, Note_on_c, 9, 35, 41
7, 134412, Note_on_c, 9, 35, 0
7, 134664, Note_on_c, 9, 51, 0
7, 134752, Note_on_c, 9, 51, 37
7, 134776, Note_on_c, 9, 44, 50
7, 134904, Note_on_c, 9, 44, 0
7, 134984, Note_on_c, 9, 51, 0
7, 135048, Note_on_c, 9, 35, 49
7, 135060, Note_on_c, 9, 51, 42
7, 135080, Note_on_c, 9, 35, 0
7, 135096, Note_on_c, 9, 51, 0
7, 135156, Note_on_c, 9, 51, 64
7, 135460, Note_on_c, 9, 51, 0
7, 135544, Note_on_c, 9, 44, 57
7, 135556, Note_on_c, 9, 51, 64
7, 135688, Note_on_c, 9, 44, 0
7, 135776, Note_on_c, 9, 51, 0
7, 135812, Note_on_c, 9, 35, 43
7, 135836, Note_on_c, 9, 51, 39
7, 135848, Note_on_c, 9, 35, 0
7, 135872, Note_on_c, 9, 51, 0
7, 135928, Note_on_c, 9, 51, 56
7, 135944, Note_on_c, 9, 53, 28
7, 136088, Note_on_c, 9, 53, 0
7, 136184, Note_on_c, 9, 35, 63
7, 136208, Note_on_c, 9, 51, 0
7, 136256, Note_on_c, 9, 35, 0
7, 136304, Note_on_c, 9, 51, 72
7, 136312, Note_on_c, 9, 44, 52
7, 136320, Note_on_c, 9, 53, 49
7, 136360, Note_on_c, 9, 53, 0
7, 136480, Note_on_c, 9, 44, 0
7, 136552, Note_on_c, 9, 51, 0
7, 136556, Note_on_c, 9, 37, 64
7, 136612, Note_on_c, 9, 51, 37
7, 136644, Note_on_c, 9, 51, 0
7, 136656, Note_on_c, 9, 37, 0
7, 136700, Note_on_c, 9, 51, 60
7, 136708, Note_on_c, 9, 35, 66
7, 136796, Note_on_c, 9, 35, 0
7, 136988, Note_on_c, 9, 51, 0
7, 137064, Note_on_c, 9, 51, 62
7, 137080, Note_on_c, 9, 44, 56
7, 137232, Note_on_c, 9, 44, 0
7, 137308, Note_on_c, 9, 51, 0
7, 137364, Note_on_c, 9, 51, 46
7, 137364, Note_on_c, 9, 35, 53
7, 137392, Note_on_c, 9, 51, 0
7, 137424, Note_on_c, 9, 35, 0
7, 137456, Note_on_c, 9, 51, 39
7, 137736, Note_on_c, 9, 51, 0
7, 137836, Note_on_c, 9, 51, 69
7, 137848, Note_on_c, 9, 44, 57
7, 137992, Note_on_c, 9, 44, 0
7, 138116, Note_on_c, 9, 51, 0
7, 138224, Note_on_c, 9, 51, 53
7, 138244, Note_on_c, 9, 35, 32
7, 138292, Note_on_c, 9, 35, 0
7, 138432, Note_on_c, 9, 51, 0
7, 138488, Note_on_c, 9, 53, 75
7, 138572, Note_on_c, 9, 53, 0
7, 138616, Note_on_c, 9, 44, 56
7, 138616, Note_on_c, 9, 51, 43
7, 138728, Note_on_c, 9, 44, 0
7, 138900, Note_on_c, 9, 51, 0
7, 138984, Note_on_c, 9, 51, 60
7, 139272, Note_on_c, 9, 51, 0
7, 139380, Note_on_c, 9, 51, 55
7, 139384, Note_on_c, 9, 44, 60
7, 139512, Note_on_c, 9, 44, 0
7, 139612, Note_on_c, 9, 51, 0
7, 139628, Note_on_c, 9, 35, 62
7, 139672, Note_on_c, 9, 51, 43
7, 139700, Note_on_c, 9, 51, 0
7, 139700, Note_on_c, 9, 35, 0
7, 139756, Note_on_c, 9, 51, 43
7, 140056, Note_on_c, 9, 51, 0
7, 140148, Note_on_c, 9, 51, 67
7, 140152, Note_on_c, 9, 44, 60
7, 140312, Note_on_c, 9, 44, 0
7, 140368, Note_on_c, 9, 51, 0
7, 140424, Note_on_c, 9, 51, 46
7, 140456, Note_on_c, 9, 51, 0
7, 140536, Note_on_c, 9, 51, 49
7, 140764, Note_on_c, 9, 37, 65
7, 140808, Note_on_c, 9, 51, 0
7, 140840, Note_on_c, 9, 37, 0
7, 140904, Note_on_c, 9, 51, 69
7, 140920, Note_on_c, 9, 44, 56
7, 140936, Note_on_c, 9, 35, 31
7, 141004, Note_on_c, 9, 35, 0
7, 141056, Note_on_c, 9, 44, 0
7, 141160, Note_on_c, 9, 51, 0
7, 141164, Note_on_c, 9, 35, 28
7, 141200, Note_on_c, 9, 35, 0
7, 141284, Note_on_c, 9, 51, 63
7, 141536, Note_on_c, 9, 51, 0
7, 141660, Note_on_c, 9, 51, 62
7, 141688, Note_on_c, 9, 44, 56
7, 141832, Note_on_c, 9, 44, 0
7, 141912, Note_on_c, 9, 51, 0
7, 141952, Note_on_c, 9, 35, 45
7, 141984, Note_on_c, 9, 35, 0
7, 142060, Note_on_c, 9, 51, 62
7, 142076, Note_on_c, 9, 35, 39
7, 142124, Note_on_c, 9, 35, 0
7, 142300, Note_on_c, 9, 51, 0
7, 142436, Note_on_c, 9, 51, 54
7, 142456, Note_on_c, 9, 44, 60
7, 142592, Note_on_c, 9, 44, 0
7, 142680, Note_on_c, 9, 51, 0
7, 142836, Note_on_c, 9, 51, 45
7, 142972, Note_on_c, 9, 38, 58
7, 142976, Note_on_c, 9, 51, 0
7, 143000, Note_on_c, 9, 38, 0
7, 143088, Note_on_c, 9, 51, 81
7, 143092, Note_on_c, 9, 38, 48
7, 143128, Note_on_c, 9, 38, 0
7, 143188, Note_on_c, 9, 51, 0
7, 143212, Note_on_c, 9, 38, 55
7, 143224, Note_on_c, 9, 44, 62
7, 143236, Note_on_c, 9, 51, 51
7, 143260, Note_on_c, 9, 38, 0
7, 143368, Note_on_c, 9, 44, 0
7, 143416, Note_on_c, 9, 51, 0
7, 143464, Note_on_c, 9, 35, 74
7, 143568, Note_on_c, 9, 35, 0
7, 143588, Note_on_c, 9, 51, 65
7, 143808, Note_on_c, 9, 51, 0
7, 143876, Note_on_c, 9, 51, 33
7, 143912, Note_on_c, 9, 51, 0
7, 143988, Note_on_c, 9, 51, 58
7, 143992, Note_on_c, 9, 44, 68
7, 144104, Note_on_c, 9, 44, 0
7, 144296, Note_on_c, 9, 51, 0
7, 144364, Note_on_c, 9, 51, 57
7, 144632, Note_on_c, 9, 51, 0
7, 144652, Note_on_c, 9, 35, 28
7, 144684, Note_on_c, 9, 35, 0
7, 144744, Note_on_c, 9, 51, 64
7, 144752, Note_on_c, 9, 40, 58
7, 144760, Note_on_c, 9, 44, 67
7, 144780, Note_on_c, 9, 40, 0
7, 144860, Note_on_c, 9, 40, 44
7, 144888, Note_on_c, 9, 44, 0
7, 144908, Note_on_c, 9, 40, 0
7, 144944, Note_on_c, 9, 51, 0
7, 145032, Note_on_c, 9, 53, 80
7, 145116, Note_on_c, 9, 53, 0
7, 145164, Note_on_c, 9, 51, 51
7, 145220, Note_on_c, 9, 51, 0
7, 145384, Note_on_c, 9, 53, 81
7, 145408, Note_on_c, 9, 35, 25
7, 145436, Note_on_c, 9, 35, 0
7, 145476, Note_on_c, 9, 53, 0
7, 145520, Note_on_c, 9, 40, 62
7, 145528, Note_on_c, 9, 44, 61
7, 145540, Note_on_c, 9, 51, 37
7, 145548, Note_on_c, 9, 40, 0
7, 145564, Note_on_c, 9, 51, 0
7, 145628, Note_on_c, 9, 40, 61
7, 145680, Note_on_c, 9, 44, 0
7, 145692, Note_on_c, 9, 40, 0
7, 145908, Note_on_c, 9, 51, 39
7, 146048, Note_on_c, 9, 51, 0
7, 146148, Note_on_c, 9, 35, 33
7, 146184, Note_on_c, 9, 35, 0
7, 146272, Note_on_c, 9, 51, 60
7, 146276, Note_on_c, 9, 40, 60
7, 146296, Note_on_c, 9, 46, 62
7, 146304, Note_on_c, 9, 40, 0
7, 146388, Note_on_c, 9, 40, 61
7, 146400, Note_on_c, 9, 46, 0
7, 146428, Note_on_c, 9, 40, 0
7, 146504, Note_on_c, 9, 51, 0
7, 146548, Note_on_c, 9, 35, 50
7, 146580, Note_on_c, 9, 35, 0
7, 146580, Note_on_c, 9, 51, 45
7, 146628, Note_on_c, 9, 51, 0
7, 146864, Note_on_c, 9, 40, 74
7, 146912, Note_on_c, 9, 40, 0
7, 146956, Note_on_c, 9, 51, 64
7, 146968, Note_on_c, 9, 40, 66
7, 147024, Note_on_c, 9, 40, 0
7, 147024, Note_on_c, 9, 51, 0
7, 147064, Note_on_c, 9, 44, 52
7, 147080, Note_on_c, 9, 51, 38
7, 147100, Note_on_c, 9, 35, 50
7, 147128, Note_on_c, 9, 51, 0
7, 147176, Note_on_c, 9, 35, 0
7, 147208, Note_on_c, 9, 44, 0
7, 147312, Note_on_c, 9, 51, 82
7, 147452, Note_on_c, 9, 40, 68
7, 147476, Note_on_c, 9, 40, 0
7, 147488, Note_on_c, 9, 51, 0
7, 147556, Note_on_c, 9, 40, 71
7, 147608, Note_on_c, 9, 40, 0
7, 147704, Note_on_c, 9, 35, 54
7, 147744, Note_on_c, 9, 35, 0
7, 147832, Note_on_c, 9, 44, 48
7, 147960, Note_on_c, 9, 40, 71
7, 148008, Note_on_c, 9, 44, 0
7, 148020, Note_on_c, 9, 40, 0
7, 148076, Note_on_c, 9, 40, 70
7, 148132, Note_on_c, 9, 40, 0
7, 148220, Note_on_c, 9, 35, 64
7, 148296, Note_on_c, 9, 35, 0
7, 148584, Note_on_c, 9, 35, 62
7, 148600, Note_on_c, 9, 44, 53
7, 148608, Note_on_c, 9, 35, 0
7, 148684, Note_on_c, 9, 35, 68
7, 148736, Note_on_c, 9, 44, 0
7, 148760, Note_on_c, 9, 35, 0
7, 148812, Note_on_c, 9, 37, 74
7, 148876, Note_on_c, 9, 51, 30
7, 148884, Note_on_c, 9, 37, 0
7, 148900, Note_on_c, 9, 51, 0
7, 148968, Note_on_c, 9, 35, 76
7, 148988, Note_on_c, 9, 51, 45
7, 149128, Note_on_c, 9, 35, 0
7, 149256, Note_on_c, 9, 51, 0
7, 149360, Note_on_c, 9, 51, 55
7, 149368, Note_on_c, 9, 44, 55
7, 149472, Note_on_c, 9, 44, 0
7, 149656, Note_on_c, 9, 51, 0
7, 149760, Note_on_c, 9, 51, 54
7, 150024, Note_on_c, 9, 51, 0
7, 150136, Note_on_c, 9, 44, 56
7, 150148, Note_on_c, 9, 51, 56
7, 150308, Note_on_c, 9, 51, 0
7, 150320, Note_on_c, 9, 44, 0
7, 150408, Note_on_c, 9, 51, 71
7, 150456, Note_on_c, 9, 51, 0
7, 150540, Note_on_c, 9, 51, 42
7, 150788, Note_on_c, 9, 51, 0
7, 150904, Note_on_c, 9, 44, 56
7, 150904, Note_on_c, 9, 51, 53
7, 151080, Note_on_c, 9, 44, 0
7, 151168, Note_on_c, 9, 51, 0
7, 151292, Note_on_c, 9, 51, 51
7, 151540, Note_on_c, 9, 51, 0
7, 151668, Note_on_c, 9, 51, 57
7, 151672, Note_on_c, 9, 44, 69
7, 151856, Note_on_c, 9, 44, 0
7, 151916, Note_on_c, 9, 51, 0
7, 151924, Note_on_c, 9, 35, 54
7, 151960, Note_on_c, 9, 35, 0
7, 152044, Note_on_c, 9, 51, 50
7, 152056, Note_on_c, 9, 35, 46
7, 152168, Note_on_c, 9, 35, 0
7, 152288, Note_on_c, 9, 51, 0
7, 152416, Note_on_c, 9, 51, 53
7, 152440, Note_on_c, 9, 44, 67
7, 152616, Note_on_c, 9, 44, 0
7, 152688, Note_on_c, 9, 51, 0
7, 152704, Note_on_c, 9, 35, 56
7, 152736, Note_on_c, 9, 35, 0
7, 152800, Note_on_c, 9, 51, 47
7, 153040, Note_on_c, 9, 51, 0
7, 153164, Note_on_c, 9, 51, 54
7, 153208, Note_on_c, 9, 44, 64
7, 153368, Note_on_c, 9, 51, 0
7, 153408, Note_on_c, 9, 44, 0
7, 153460, Note_on_c, 9, 51, 60
7, 153492, Note_on_c, 9, 35, 35
7, 153524, Note_on_c, 9, 51, 0
7, 153528, Note_on_c, 9, 35, 0
7, 153576, Note_on_c, 9, 51, 45
7, 153604, Note_on_c, 9, 35, 44
7, 153684, Note_on_c, 9, 35, 0
7, 153720, Note_on_c, 9, 51, 0
7, 153936, Note_on_c, 9, 51, 56
7, 153976, Note_on_c, 9, 44, 64
7, 154160, Note_on_c, 9, 44, 0
7, 154168, Note_on_c, 9, 51, 0
7, 154248, Note_on_c, 9, 51, 29
7, 154292, Note_on_c, 9, 51, 0
7, 154348, Note_on_c, 9, 51, 58
7, 154612, Note_on_c, 9, 51, 0
7, 154628, Note_on_c, 9, 35, 32
7, 154664, Note_on_c, 9, 35, 0
7, 154736, Note_on_c, 9, 51, 58
7, 154744, Note_on_c, 9, 46, 53
7, 154832, Note_on_c, 9, 46, 0
7, 154932, Note_on_c, 9, 51, 0
7, 154988, Note_on_c, 9, 57, 64
7, 155004, Note_on_c, 9, 53, 68
7, 155012, Note_on_c, 9, 57, 0
7, 155084, Note_on_c, 9, 53, 0
7, 155124, Note_on_c, 9, 51, 37
7, 155392, Note_on_c, 9, 51, 0
7, 155492, Note_on_c, 9, 51, 53
7, 155512, Note_on_c, 9, 44, 62
7, 155648, Note_on_c, 9, 44, 0
7, 155776, Note_on_c, 9, 35, 60
7, 155780, Note_on_c, 9, 51, 0
7, 155812, Note_on_c, 9, 35, 0
7, 155892, Note_on_c, 9, 51, 53
7, 155904, Note_on_c, 9, 35, 39
7, 155980, Note_on_c, 9, 35, 0
7, 156140, Note_on_c, 9, 51, 0
7, 156276, Note_on_c, 9, 51, 55
7, 156280, Note_on_c, 9, 44, 60
7, 156384, Note_on_c, 9, 44, 0
7, 156536, Note_on_c, 9, 51, 0
7, 156664, Note_on_c, 9, 35, 37
7, 156672, Note_on_c, 9, 51, 50
7, 156704, Note_on_c, 9, 35, 0
7, 156968, Note_on_c, 9, 51, 0
7, 157048, Note_on_c, 9, 44, 69
7, 157064, Note_on_c, 9, 53, 46
7, 157088, Note_on_c, 9, 44, 0
7, 157096, Note_on_c, 9, 53, 0
7, 157152, Note_on_c, 9, 53, 58
7, 157324, Note_on_c, 9, 35, 55
7, 157360, Note_on_c, 9, 53, 0
7, 157364, Note_on_c, 9, 35, 0
7, 157580, Note_on_c, 9, 53, 67
7, 157776, Note_on_c, 9, 53, 0
7, 157816, Note_on_c, 9, 44, 69
7, 157848, Note_on_c, 9, 37, 39
7, 157872, Note_on_c, 9, 53, 42
7, 157904, Note_on_c, 9, 53, 0
7, 157904, Note_on_c, 9, 44, 0
7, 157956, Note_on_c, 9, 53, 73
7, 158060, Note_on_c, 9, 37, 0
7, 158112, Note_on_c, 9, 35, 28
7, 158136, Note_on_c, 9, 53, 0
7, 158152, Note_on_c, 9, 35, 0
7, 158204, Note_on_c, 9, 51, 60
7, 158472, Note_on_c, 9, 51, 0
7, 158560, Note_on_c, 9, 51, 49
7, 158584, Note_on_c, 9, 44, 67
7, 158704, Note_on_c, 9, 44, 0
7, 158744, Note_on_c, 9, 51, 0
7, 158964, Note_on_c, 9, 51, 40
7, 159228, Note_on_c, 9, 51, 0
7, 159352, Note_on_c, 9, 44, 65
7, 159352, Note_on_c, 9, 51, 56
7, 159480, Note_on_c, 9, 44, 0
7, 159536, Note_on_c, 9, 51, 0
7, 159620, Note_on_c, 9, 51, 44
7, 159652, Note_on_c, 9, 51, 0
7, 159724, Note_on_c, 9, 51, 43
7, 160008, Note_on_c, 9, 51, 0
7, 160116, Note_on_c, 9, 51, 43
7, 160120, Note_on_c, 9, 44, 67
7, 160256, Note_on_c, 9, 44, 0
7, 160416, Note_on_c, 9, 51, 0
7, 160488, Note_on_c, 9, 37, 56
7, 160504, Note_on_c, 9, 51, 55
7, 160736, Note_on_c, 9, 37, 0
7, 160800, Note_on_c, 9, 51, 0
7, 160888, Note_on_c, 9, 44, 63
7, 160892, Note_on_c, 9, 37, 46
7, 160900, Note_on_c, 9, 51, 60
7, 161024, Note_on_c, 9, 44, 0
7, 161092, Note_on_c, 9, 51, 0
7, 161096, Note_on_c, 9, 37, 0
7, 161156, Note_on_c, 9, 35, 50
7, 161164, Note_on_c, 9, 51, 59
7, 161192, Note_on_c, 9, 35, 0
7, 161212, Note_on_c, 9, 51, 0
7, 161264, Note_on_c, 9, 51, 50
7, 161308, Note_on_c, 9, 35, 30
7, 161400, Note_on_c, 9, 35, 0
7, 161572, Note_on_c, 9, 51, 0
7, 161656, Note_on_c, 9, 44, 64
7, 161664, Note_on_c, 9, 51, 56
7, 161776, Note_on_c, 9, 44, 0
7, 161920, Note_on_c, 9, 35, 59
7, 161948, Note_on_c, 9, 35, 0
7, 161964, Note_on_c, 9, 51, 0
7, 162040, Note_on_c, 9, 51, 40
7, 162120, Note_on_c, 9, 51, 0
7, 162164, Note_on_c, 9, 53, 58
7, 162332, Note_on_c, 9, 53, 0
7, 162424, Note_on_c, 9, 44, 61
7, 162440, Note_on_c, 9, 53, 68
7, 162528, Note_on_c, 9, 44, 0
7, 162628, Note_on_c, 9, 53, 0
7, 162692, Note_on_c, 9, 51, 53
7, 162752, Note_on_c, 9, 51, 0
7, 162812, Note_on_c, 9, 51, 37
7, 162836, Note_on_c, 9, 35, 45
7, 162876, Note_on_c, 9, 35, 0
7, 163088, Note_on_c, 9, 51, 0
7, 163192, Note_on_c, 9, 44, 60
7, 163192, Note_on_c, 9, 51, 51
7, 163296, Note_on_c, 9, 44, 0
7, 163492, Note_on_c, 9, 51, 0
7, 163592, Note_on_c, 9, 51, 45
7, 163884, Note_on_c, 9, 51, 0
7, 163960, Note_on_c, 9, 46, 55
7, 163972, Note_on_c, 9, 51, 50
7, 164040, Note_on_c, 9, 46, 0
7, 164216, Note_on_c, 9, 35, 74
7, 164244, Note_on_c, 9, 51, 0
7, 164276, Note_on_c, 9, 35, 0
7, 164344, Note_on_c, 9, 51, 60
7, 164572, Note_on_c, 9, 51, 0
7, 164640, Note_on_c, 9, 51, 37
7, 164672, Note_on_c, 9, 51, 0
7, 164728, Note_on_c, 9, 44, 54
7, 164736, Note_on_c, 9, 51, 65
7, 164816, Note_on_c, 9, 44, 0
7, 164984, Note_on_c, 9, 35, 62
7, 165020, Note_on_c, 9, 35, 0
7, 165044, Note_on_c, 9, 51, 0
7, 165116, Note_on_c, 9, 51, 57
7, 165408, Note_on_c, 9, 51, 0
7, 165496, Note_on_c, 9, 44, 62
7, 165504, Note_on_c, 9, 51, 69
7, 165600, Note_on_c, 9, 44, 0
7, 165744, Note_on_c, 9, 51, 0
7, 165796, Note_on_c, 9, 51, 47
7, 165840, Note_on_c, 9, 51, 0
7, 165896, Note_on_c, 9, 51, 56
7, 166184, Note_on_c, 9, 51, 0
7, 166264, Note_on_c, 9, 44, 57
7, 166280, Note_on_c, 9, 51, 67
7, 166336, Note_on_c, 9, 51, 0
7, 166360, Note_on_c, 9, 44, 0
7, 166364, Note_on_c, 9, 51, 45
7, 166424, Note_on_c, 9, 51, 0
7, 166476, Note_on_c, 9, 51, 21
7, 166520, Note_on_c, 9, 51, 0
7, 166672, Note_on_c, 9, 51, 60
7, 166752, Note_on_c, 9, 51, 0
7, 166768, Note_on_c, 9, 51, 36
7, 166824, Note_on_c, 9, 51, 0
7, 167032, Note_on_c, 9, 46, 33
7, 167036, Note_on_c, 9, 51, 64
7, 167040, Note_on_c, 9, 37, 57
7, 167116, Note_on_c, 9, 51, 0
7, 167140, Note_on_c, 9, 51, 43
7, 167192, Note_on_c, 9, 46, 0
7, 167196, Note_on_c, 9, 37, 0
7, 167216, Note_on_c, 9, 51, 0
7, 167312, Note_on_c, 9, 35, 58
7, 167344, Note_on_c, 9, 35, 0
7, 167408, Note_on_c, 9, 51, 67
7, 167496, Note_on_c, 9, 51, 0
7, 167524, Note_on_c, 9, 51, 52
7, 167576, Note_on_c, 9, 51, 0
7, 167800, Note_on_c, 9, 44, 56
7, 167812, Note_on_c, 9, 51, 74
7, 167880, Note_on_c, 9, 44, 0
7, 168076, Note_on_c, 9, 51, 0
7, 168184, Note_on_c, 9, 35, 46
7, 168204, Note_on_c, 9, 51, 70
7, 168220, Note_on_c, 9, 35, 0
7, 168452, Note_on_c, 9, 51, 0
7, 168568, Note_on_c, 9, 44, 64
7, 168572, Note_on_c, 9, 51, 55
7, 168688, Note_on_c, 9, 44, 0
7, 168736, Note_on_c, 9, 51, 0
7, 168868, Note_on_c, 9, 51, 51
7, 168924, Note_on_c, 9, 51, 0
7, 168948, Note_on_c, 9, 35, 45
7, 168988, Note_on_c, 9, 35, 0
7, 169196, Note_on_c, 9, 53, 65
7, 169276, Note_on_c, 9, 53, 0
7, 169328, Note_on_c, 9, 51, 44
7, 169336, Note_on_c, 9, 44, 70
7, 169472, Note_on_c, 9, 44, 0
7, 169604, Note_on_c, 9, 35, 45
7, 169620, Note_on_c, 9, 51, 0
7, 169636, Note_on_c, 9, 35, 0
7, 169728, Note_on_c, 9, 51, 59
7, 170000, Note_on_c, 9, 51, 0
7, 170100, Note_on_c, 9, 51, 64
7, 170104, Note_on_c, 9, 44, 70
7, 170240, Note_on_c, 9, 44, 0
7, 170308, Note_on_c, 9, 51, 0
7, 170384, Note_on_c, 9, 51, 39
7, 170416, Note_on_c, 9, 51, 0
7, 170480, Note_on_c, 9, 51, 53
7, 170488, Note_on_c, 9, 35, 48
7, 170528, Note_on_c, 9, 35, 0
7, 170780, Note_on_c, 9, 51, 0
7, 170872, Note_on_c, 9, 44, 71
7, 170872, Note_on_c, 9, 51, 73
7, 171032, Note_on_c, 9, 44, 0
7, 171108, Note_on_c, 9, 51, 0
7, 171168, Note_on_c, 9, 51, 45
7, 171216, Note_on_c, 9, 51, 0
7, 171268, Note_on_c, 9, 51, 62
7, 171552, Note_on_c, 9, 51, 0
7, 171640, Note_on_c, 9, 44, 71
7, 171660, Note_on_c, 9, 51, 67
7, 171784, Note_on_c, 9, 44, 0
7, 171888, Note_on_c, 9, 51, 0
7, 171940, Note_on_c, 9, 51, 55
7, 171992, Note_on_c, 9, 51, 0
7, 172028, Note_on_c, 9, 37, 43
7, 172040, Note_on_c, 9, 51, 59
7, 172056, Note_on_c, 9, 37, 0
7, 172140, Note_on_c, 9, 37, 61
7, 172196, Note_on_c, 9, 37, 0
7, 172232, Note_on_c, 9, 51, 0
7, 172280, Note_on_c, 9, 35, 43
7, 172296, Note_on_c, 9, 53, 80
7, 172316, Note_on_c, 9, 35, 0
7, 172392, Note_on_c, 9, 53, 0
7, 172404, Note_on_c, 9, 37, 71
7, 172408, Note_on_c, 9, 44, 71
7, 172436, Note_on_c, 9, 51, 29
7, 172464, Note_on_c, 9, 37, 0
7, 172476, Note_on_c, 9, 51, 0
7, 172512, Note_on_c, 9, 37, 62
7, 172552, Note_on_c, 9, 44, 0
7, 172584, Note_on_c, 9, 37, 0
7, 172668, Note_on_c, 9, 35, 57
7, 172676, Note_on_c, 9, 51, 44
7, 172704, Note_on_c, 9, 35, 0
7, 172736, Note_on_c, 9, 51, 0
7, 172784, Note_on_c, 9, 37, 55
7, 172788, Note_on_c, 9, 53, 80
7, 172816, Note_on_c, 9, 37, 0
7, 172884, Note_on_c, 9, 37, 57
7, 172952, Note_on_c, 9, 37, 0
7, 172980, Note_on_c, 9, 53, 0
7, 173044, Note_on_c, 9, 35, 57
7, 173052, Note_on_c, 9, 51, 43
7, 173076, Note_on_c, 9, 35, 0
7, 173084, Note_on_c, 9, 51, 0
7, 173156, Note_on_c, 9, 37, 48
7, 173176, Note_on_c, 9, 44, 74
7, 173184, Note_on_c, 9, 37, 0
7, 173188, Note_on_c, 9, 51, 30
7, 173244, Note_on_c, 9, 51, 0
7, 173256, Note_on_c, 9, 37, 59
7, 173304, Note_on_c, 9, 44, 0
7, 173320, Note_on_c, 9, 37, 0
7, 173420, Note_on_c, 9, 53, 85
7, 173420, Note_on_c, 9, 35, 78
7, 173512, Note_on_c, 9, 35, 0
7, 173552, Note_on_c, 9, 53, 0
7, 173936, Note_on_c, 9, 53, 89
7, 173944, Note_on_c, 9, 44, 73
7, 174072, Note_on_c, 9, 44, 0
7, 174128, Note_on_c, 9, 53, 0
7, 174316, Note_on_c, 9, 51, 40
7, 174456, Note_on_c, 9, 51, 0
7, 174572, Note_on_c, 9, 53, 88
7, 174684, Note_on_c, 9, 53, 0
7, 174712, Note_on_c, 9, 44, 71
7, 174856, Note_on_c, 9, 44, 0
7, 175008, Note_on_c, 9, 51, 26
7, 175044, Note_on_c, 9, 51, 0
7, 175072, Note_on_c, 9, 35, 59
7, 175112, Note_on_c, 9, 51, 39
7, 175128, Note_on_c, 9, 35, 0
7, 175368, Note_on_c, 9, 51, 0
7, 175480, Note_on_c, 9, 44, 71
7, 175480, Note_on_c, 9, 51, 59
7, 175632, Note_on_c, 9, 44, 0
7, 175716, Note_on_c, 9, 51, 0
7, 175736, Note_on_c, 9, 35, 51
7, 175768, Note_on_c, 9, 35, 0
7, 175772, Note_on_c, 9, 51, 49
7, 175808, Note_on_c, 9, 51, 0
7, 175876, Note_on_c, 9, 51, 37
7, 176152, Note_on_c, 9, 51, 0
7, 176248, Note_on_c, 9, 44, 71
7, 176252, Note_on_c, 9, 51, 67
7, 176400, Note_on_c, 9, 44, 0
7, 176484, Note_on_c, 9, 51, 0
7, 176536, Note_on_c, 9, 51, 46
7, 176584, Note_on_c, 9, 51, 0
7, 176636, Note_on_c, 9, 51, 59
7, 176956, Note_on_c, 9, 51, 0
7, 177016, Note_on_c, 9, 44, 71
7, 177028, Note_on_c, 9, 51, 56
7, 177168, Note_on_c, 9, 44, 0
7, 177248, Note_on_c, 9, 51, 0
7, 177300, Note_on_c, 9, 51, 47
7, 177332, Note_on_c, 9, 51, 0
7, 177408, Note_on_c, 9, 51, 45
7, 177684, Note_on_c, 9, 51, 0
7, 177784, Note_on_c, 9, 44, 71
7, 177784, Note_on_c, 9, 51, 64
7, 177944, Note_on_c, 9, 44, 0
7, 178008, Note_on_c, 9, 51, 0
7, 178064, Note_on_c, 9, 51, 48
7, 178116, Note_on_c, 9, 51, 0
7, 178152, Note_on_c, 9, 40, 57
7, 178168, Note_on_c, 9, 51, 54
7, 178320, Note_on_c, 9, 40, 0
7, 178368, Note_on_c, 9, 51, 0
7, 178436, Note_on_c, 9, 53, 80
7, 178524, Note_on_c, 9, 53, 0
7, 178540, Note_on_c, 9, 40, 80
7, 178552, Note_on_c, 9, 44, 71
7, 178588, Note_on_c, 9, 51, 27
7, 178712, Note_on_c, 9, 44, 0
7, 178728, Note_on_c, 9, 40, 0
7, 178824, Note_on_c, 9, 51, 0
7, 178920, Note_on_c, 9, 51, 40
7, 179172, Note_on_c, 9, 51, 0
7, 179224, Note_on_c, 9, 51, 38
7, 179252, Note_on_c, 9, 51, 0
7, 179312, Note_on_c, 9, 51, 49
7, 179320, Note_on_c, 9, 44, 71
7, 179496, Note_on_c, 9, 44, 0
7, 179576, Note_on_c, 9, 37, 71
7, 179612, Note_on_c, 9, 51, 0
7, 179644, Note_on_c, 9, 37, 0
7, 179660, Note_on_c, 9, 57, 31
7, 179688, Note_on_c, 9, 57, 0
7, 179704, Note_on_c, 9, 35, 53
7, 179712, Note_on_c, 9, 51, 61
7, 179876, Note_on_c, 9, 35, 0
7, 179984, Note_on_c, 9, 51, 0
7, 180088, Note_on_c, 9, 44, 74
7, 180096, Note_on_c, 9, 51, 58
7, 180264, Note_on_c, 9, 44, 0
7, 180312, Note_on_c, 9, 51, 0
7, 180348, Note_on_c, 9, 35, 56
7, 180372, Note_on_c, 9, 51, 46
7, 180408, Note_on_c, 9, 35, 0
7, 180412, Note_on_c, 9, 51, 0
7, 180476, Note_on_c, 9, 51, 48
7, 180716, Note_on_c, 9, 37, 74
7, 180728, Note_on_c, 9, 57, 71
7, 180740, Note_on_c, 9, 51, 0
7, 180756, Note_on_c, 9, 57, 0
7, 180788, Note_on_c, 9, 37, 0
7, 180844, Note_on_c, 9, 35, 51
7, 180856, Note_on_c, 9, 44, 71
7, 180856, Note_on_c, 9, 51, 68
7, 181008, Note_on_c, 9, 44, 0
7, 181068, Note_on_c, 9, 51, 0
7, 181076, Note_on_c, 9, 35, 0
7, 181124, Note_on_c, 9, 51, 48
7, 181180, Note_on_c, 9, 51, 0
7, 181236, Note_on_c, 9, 51, 54
7, 181488, Note_on_c, 9, 51, 0
7, 181616, Note_on_c, 9, 51, 70
7, 181624, Note_on_c, 9, 44, 71
7, 181776, Note_on_c, 9, 44, 0
7, 181860, Note_on_c, 9, 51, 0
7, 182004, Note_on_c, 9, 35, 41
7, 182008, Note_on_c, 9, 51, 60
7, 182060, Note_on_c, 9, 35, 0
7, 182208, Note_on_c, 9, 51, 0
7, 182276, Note_on_c, 9, 35, 47
7, 182292, Note_on_c, 9, 51, 32
7, 182312, Note_on_c, 9, 35, 0
7, 182320, Note_on_c, 9, 51, 0
7, 182392, Note_on_c, 9, 44, 70
7, 182404, Note_on_c, 9, 51, 54
7, 182528, Note_on_c, 9, 44, 0
7, 182676, Note_on_c, 9, 51, 0
7, 182772, Note_on_c, 9, 51, 65
7, 183048, Note_on_c, 9, 51, 0
7, 183160, Note_on_c, 9, 44, 74
7, 183164, Note_on_c, 9, 51, 63
7, 183296, Note_on_c, 9, 44, 0
7, 183364, Note_on_c, 9, 51, 0
7, 183464, Note_on_c, 9, 51, 36
7, 183492, Note_on_c, 9, 51, 0
7, 183544, Note_on_c, 9, 37, 50
7, 183548, Note_on_c, 9, 51, 45
7, 183768, Note_on_c, 9, 37, 0
7, 183828, Note_on_c, 9, 51, 0
7, 183928, Note_on_c, 9, 44, 76
7, 183932, Note_on_c, 9, 37, 48
7, 183936, Note_on_c, 9, 51, 55
7, 183960, Note_on_c, 9, 51, 0
7, 184024, Note_on_c, 9, 51, 49
7, 184072, Note_on_c, 9, 44, 0
7, 184116, Note_on_c, 9, 37, 0
7, 184196, Note_on_c, 9, 51, 0
7, 184200, Note_on_c, 9, 35, 55
7, 184236, Note_on_c, 9, 35, 0
7, 184328, Note_on_c, 9, 51, 51
7, 184352, Note_on_c, 9, 51, 0
7, 184420, Note_on_c, 9, 51, 55
7, 184612, Note_on_c, 9, 51, 0
7, 184696, Note_on_c, 9, 44, 75
7, 184708, Note_on_c, 9, 51, 71
7, 184848, Note_on_c, 9, 44, 0
7, 184980, Note_on_c, 9, 51, 0
7, 185088, Note_on_c, 9, 51, 59
7, 185360, Note_on_c, 9, 51, 0
7, 185464, Note_on_c, 9, 44, 74
7, 185472, Note_on_c, 9, 51, 65
7, 185480, Note_on_c, 9, 37, 37
7, 185616, Note_on_c, 9, 44, 0
7, 185620, Note_on_c, 9, 37, 0
7, 185696, Note_on_c, 9, 51, 0
7, 185736, Note_on_c, 9, 35, 57
7, 185760, Note_on_c, 9, 51, 49
7, 185776, Note_on_c, 9, 35, 0
7, 185792, Note_on_c, 9, 51, 0
7, 185856, Note_on_c, 9, 35, 49
7, 185860, Note_on_c, 9, 51, 53
7, 185940, Note_on_c, 9, 35, 0
7, 186148, Note_on_c, 9, 51, 0
7, 186232, Note_on_c, 9, 44, 75
7, 186244, Note_on_c, 9, 51, 70
7, 186408, Note_on_c, 9, 44, 0
7, 186520, Note_on_c, 9, 51, 0
7, 186628, Note_on_c, 9, 51, 67
7, 186888, Note_on_c, 9, 51, 0
7, 187000, Note_on_c, 9, 44, 74
7, 187008, Note_on_c, 9, 35, 32
7, 187016, Note_on_c, 9, 51, 61
7, 187084, Note_on_c, 9, 35, 0
7, 187120, Note_on_c, 9, 35, 36
7, 187160, Note_on_c, 9, 44, 0
7, 187220, Note_on_c, 9, 51, 0
7, 187264, Note_on_c, 9, 35, 0
7, 187300, Note_on_c, 9, 51, 42
7, 187332, Note_on_c, 9, 51, 0
7, 187396, Note_on_c, 9, 51, 50
7, 187684, Note_on_c, 9, 51, 0
7, 187768, Note_on_c, 9, 44, 71
7, 187780, Note_on_c, 9, 51, 67
7, 187944, Note_on_c, 9, 44, 0
7, 188008, Note_on_c, 9, 51, 0
7, 188060, Note_on_c, 9, 51, 47
7, 188104, Note_on_c, 9, 51, 0
7, 188160, Note_on_c, 9, 51, 62
7, 188440, Note_on_c, 9, 51, 0
7, 188536, Note_on_c, 9, 44, 73
7, 188544, Note_on_c, 9, 51, 65
7, 188696, Note_on_c, 9, 44, 0
7, 188776, Note_on_c, 9, 51, 0
7, 188832, Note_on_c, 9, 51, 39
7, 188860, Note_on_c, 9, 51, 0
7, 188924, Note_on_c, 9, 51, 49
7, 189212, Note_on_c, 9, 51, 0
7, 189304, Note_on_c, 9, 44, 69
7, 189312, Note_on_c, 9, 51, 71
7, 189448, Note_on_c, 9, 44, 0
7, 189544, Note_on_c, 9, 51, 0
7, 189560, Note_on_c, 9, 35, 46
7, 189592, Note_on_c, 9, 35, 0
7, 189600, Note_on_c, 9, 51, 48
7, 189644, Note_on_c, 9, 51, 0
7, 189696, Note_on_c, 9, 51, 65
7, 189968, Note_on_c, 9, 51, 0
7, 190068, Note_on_c, 9, 51, 60
7, 190072, Note_on_c, 9, 44, 69
7, 190200, Note_on_c, 9, 44, 0
7, 190264, Note_on_c, 9, 51, 0
7, 190324, Note_on_c, 9, 53, 78
7, 190416, Note_on_c, 9, 53, 0
7, 190452, Note_on_c, 9, 51, 39
7, 190460, Note_on_c, 9, 35, 39
7, 190496, Note_on_c, 9, 35, 0
7, 190736, Note_on_c, 9, 51, 0
7, 190828, Note_on_c, 9, 51, 74
7, 190840, Note_on_c, 9, 44, 70
7, 190944, Note_on_c, 9, 44, 0
7, 191044, Note_on_c, 9, 51, 0
7, 191140, Note_on_c, 9, 51, 27
7, 191192, Note_on_c, 9, 51, 0
7, 191240, Note_on_c, 9, 51, 62
7, 191492, Note_on_c, 9, 37, 55
7, 191528, Note_on_c, 9, 37, 0
7, 191536, Note_on_c, 9, 51, 0
7, 191608, Note_on_c, 9, 44, 68
7, 191612, Note_on_c, 9, 51, 67
7, 191704, Note_on_c, 9, 44, 0
7, 191836, Note_on_c, 9, 51, 0
7, 191880, Note_on_c, 9, 37, 58
7, 191900, Note_on_c, 9, 51, 34
7, 191924, Note_on_c, 9, 51, 0
7, 191932, Note_on_c, 9, 37, 0
7, 192004, Note_on_c, 9, 51, 35
7, 192024, Note_on_c, 9, 35, 48
7, 192040, Note_on_c, 9, 51, 0
7, 192084, Note_on_c, 9, 35, 0
7, 192244, Note_on_c, 9, 51, 81
7, 192332, Note_on_c, 9, 51, 0
7, 192376, Note_on_c, 9, 44, 68
7, 192380, Note_on_c, 9, 51, 53
7, 192496, Note_on_c, 9, 44, 0
7, 192624, Note_on_c, 9, 51, 0
7, 192660, Note_on_c, 9, 35, 50
7, 192692, Note_on_c, 9, 35, 0
7, 192768, Note_on_c, 9, 51, 60
7, 192776, Note_on_c, 9, 35, 59
7, 192868, Note_on_c, 9, 35, 0
7, 192960, Note_on_c, 9, 51, 0
7, 193144, Note_on_c, 9, 44, 69
7, 193144, Note_on_c, 9, 51, 73
7, 193256, Note_on_c, 9, 44, 0
7, 193284, Note_on_c, 9, 51, 0
7, 193404, Note_on_c, 9, 51, 53
7, 193408, Note_on_c, 9, 37, 62
7, 193452, Note_on_c, 9, 51, 0
7, 193492, Note_on_c, 9, 37, 0
7, 193532, Note_on_c, 9, 53, 73
7, 193560, Note_on_c, 9, 35, 50
7, 193688, Note_on_c, 9, 35, 0
7, 193708, Note_on_c, 9, 53, 0
7, 193772, Note_on_c, 9, 35, 53
7, 193780, Note_on_c, 9, 51, 42
7, 193816, Note_on_c, 9, 35, 0
7, 193820, Note_on_c, 9, 51, 0
7, 193912, Note_on_c, 9, 44, 71
7, 193928, Note_on_c, 9, 51, 30
7, 193968, Note_on_c, 9, 51, 0
7, 194000, Note_on_c, 9, 44, 0
7, 194176, Note_on_c, 9, 53, 83
7, 194344, Note_on_c, 9, 53, 0
7, 194568, Note_on_c, 9, 51, 38
7, 194632, Note_on_c, 9, 51, 0
7, 194680, Note_on_c, 9, 46, 51
7, 194684, Note_on_c, 9, 35, 53
7, 194712, Note_on_c, 9, 51, 23
7, 194728, Note_on_c, 9, 35, 0
7, 194776, Note_on_c, 9, 46, 0
7, 194780, Note_on_c, 9, 51, 0
7, 194940, Note_on_c, 9, 51, 69
7, 194944, Note_on_c, 9, 35, 52
7, 194976, Note_on_c, 9, 35, 0
7, 195000, Note_on_c, 9, 51, 0
7, 195316, Note_on_c, 9, 35, 84
7, 195328, Note_on_c, 9, 51, 39
7, 195352, Note_on_c, 9, 51, 0
7, 195388, Note_on_c, 9, 35, 0
7, 195436, Note_on_c, 9, 35, 71
7, 195448, Note_on_c, 9, 44, 61
7, 195448, Note_on_c, 9, 51, 76
7, 195520, Note_on_c, 9, 44, 0
7, 195532, Note_on_c, 9, 35, 0
7, 195688, Note_on_c, 9, 51, 0
7, 195828, Note_on_c, 9, 35, 85
7, 195840, Note_on_c, 9, 51, 53
7, 196004, Note_on_c, 9, 35, 0
7, 196048, Note_on_c, 9, 51, 0
7, 196060, Note_on_c, 9, 35, 74
7, 196108, Note_on_c, 9, 51, 32
7, 196132, Note_on_c, 9, 51, 0
7, 196136, Note_on_c, 9, 35, 0
7, 196216, Note_on_c, 9, 44, 67
7, 196224, Note_on_c, 9, 51, 32
7, 196304, Note_on_c, 9, 51, 0
7, 196352, Note_on_c, 9, 44, 0
7, 196476, Note_on_c, 9, 37, 67
7, 196560, Note_on_c, 9, 37, 0
7, 196620, Note_on_c, 9, 35, 45
7, 196636, Note_on_c, 9, 53, 35
7, 196672, Note_on_c, 9, 53, 0
7, 196764, Note_on_c, 9, 35, 0
7, 196844, Note_on_c, 9, 51, 30
7, 196892, Note_on_c, 9, 51, 0
7, 196980, Note_on_c, 9, 51, 25
7, 196980, Note_on_c, 9, 37, 36
7, 196984, Note_on_c, 9, 44, 67
7, 197040, Note_on_c, 9, 51, 0
7, 197096, Note_on_c, 9, 44, 0
7, 197096, Note_on_c, 9, 37, 0
7, 197232, Note_on_c, 9, 57, 64
7, 197236, Note_on_c, 9, 51, 56
7, 197240, Note_on_c, 9, 57, 69
7, 197248, Note_on_c, 9, 35, 77
7, 197268, Note_on_c, 9, 57, 0
7, 197752, Note_on_c, 9, 44, 65
7, 197856, Note_on_c, 9, 44, 0
7, 197864, Note_on_c, 9, 51, 0
7, 197864, Note_on_c, 9, 57, 0
7, 197896, Note_on_c, 9, 35, 0
7, 197896, End_track
0, 0, End_of_file
