0, 0, Header, 0, 1, 384
1, 0, Start_track
1, 0, Title_t, "untitled"
1, 0, System_exclusive, 5, 126, 127, 9, 1, 247
1, 0, Time_signature, 4, 2, 24, 8
1, 0, Key_signature, 0, "major"
1, 0, Tempo, 674157
1, 0, Sequencer_specific, 21, 67, 115, 10, 0, 5, 75, 90, 79, 79, 79, 79, 79, 79, 79, 79, 79, 79, 79, 79, 79, 79
1, 0, Sequencer_specific, 6, 67, 115, 10, 0, 4, 1
1, 0, Sequencer_specific, 9, 67, 123, 0, 88, 70, 48, 50, 0, 0
1, 384, Control_c, 0, 0, 0
1, 384, Control_c, 0, 32, 1
1, 384, Program_c, 0, 0
1, 385, Control_c, 0, 7, 120
1, 385, Control_c, 0, 10, 127
1, 385, Control_c, 0, 91, 10
1, 385, Control_c, 0, 93, 0
1, 386, Control_c, 1, 0, 0
1, 386, Control_c, 1, 32, 1
1, 386, Program_c, 1, 0
1, 387, Control_c, 1, 7, 107
1, 387, Control_c, 1, 10, 0
1, 387, Control_c, 1, 91, 10
1, 387, Control_c, 1, 93, 0
1, 768, Control_c, 0, 11, 127
1, 768, Control_c, 0, 94, 0
1, 768, Control_c, 0, 101, 0
1, 769, Control_c, 0, 100, 1
1, 770, Control_c, 0, 6, 64
1, 771, Control_c, 0, 38, 0
1, 771, Control_c, 0, 71, 43
1, 771, Control_c, 0, 74, 46
1, 771, Pitch_bend_c, 0, 8192
1, 771, Control_c, 0, 64, 0
1, 771, Control_c, 1, 11, 127
1, 771, Control_c, 1, 94, 0
1, 771, Control_c, 1, 101, 0
1, 772, Control_c, 1, 100, 1
1, 773, Control_c, 1, 6, 64
1, 774, Control_c, 1, 38, 0
1, 774, Control_c, 1, 71, 43
1, 774, Control_c, 1, 74, 46
1, 774, Control_c, 1, 64, 0
1, 1536, Note_on_c, 0, 74, 71
1, 1536, Note_on_c, 0, 84, 68
1, 1536, Note_on_c, 0, 81, 63
1, 1536, Note_on_c, 0, 77, 58
1, 1536, Note_on_c, 1, 26, 56
1, 1544, Note_on_c, 0, 69, 55
1, 1560, Note_on_c, 0, 77, 0
1, 1568, Control_c, 1, 64, 127
1, 1576, Control_c, 0, 64, 72
1, 1580, Control_c, 0, 64, 127
1, 1592, Note_on_c, 1, 26, 0
1, 1600, Note_on_c, 0, 77, 22
1, 1688, Note_on_c, 0, 81, 0
1, 1692, Note_on_c, 0, 84, 0
1, 1696, Note_on_c, 0, 77, 0
1, 1696, Note_on_c, 0, 74, 0
1, 1712, Note_on_c, 0, 69, 0
1, 1936, Note_on_c, 0, 72, 46
1, 1936, Note_on_c, 0, 81, 52
1, 1940, Note_on_c, 0, 74, 48
1, 1940, Note_on_c, 0, 65, 49
1, 1944, Note_on_c, 0, 77, 49
1, 1952, Note_on_c, 1, 65, 54
1, 1956, Note_on_c, 1, 72, 54
1, 1956, Note_on_c, 1, 60, 46
1, 1960, Note_on_c, 1, 57, 48
1, 1964, Note_on_c, 1, 69, 45
1, 2020, Note_on_c, 1, 60, 0
1, 2032, Note_on_c, 1, 57, 0
1, 2068, Note_on_c, 1, 72, 0
1, 2080, Note_on_c, 1, 69, 0
1, 2080, Note_on_c, 0, 65, 0
1, 2092, Note_on_c, 1, 65, 0
1, 2124, Note_on_c, 0, 81, 0
1, 2144, Note_on_c, 0, 77, 0
1, 2152, Note_on_c, 0, 72, 0
1, 2172, Note_on_c, 0, 74, 0
1, 2308, Control_c, 0, 64, 0
1, 2312, Control_c, 1, 64, 0
1, 2320, Note_on_c, 1, 71, 57
1, 2320, Note_on_c, 1, 63, 58
1, 2332, Note_on_c, 1, 53, 38
1, 2336, Note_on_c, 0, 79, 56
1, 2336, Note_on_c, 0, 71, 48
1, 2336, Note_on_c, 1, 43, 39
1, 2344, Note_on_c, 0, 74, 50
1, 2344, Note_on_c, 0, 64, 43
1, 2408, Control_c, 1, 64, 127
1, 2432, Control_c, 0, 64, 127
1, 2488, Note_on_c, 1, 53, 0
1, 2508, Note_on_c, 1, 63, 0
1, 2516, Note_on_c, 1, 71, 0
1, 2548, Note_on_c, 0, 79, 0
1, 2556, Note_on_c, 0, 74, 0
1, 2584, Note_on_c, 0, 71, 0
1, 2688, Note_on_c, 1, 68, 56
1, 2700, Control_c, 0, 64, 0
1, 2700, Note_on_c, 1, 59, 38
1, 2700, Note_on_c, 1, 63, 49
1, 2700, Note_on_c, 1, 53, 43
1, 2708, Note_on_c, 0, 77, 51
1, 2716, Note_on_c, 0, 72, 52
1, 2720, Note_on_c, 0, 64, 0
1, 2720, Note_on_c, 0, 62, 46
1, 2720, Note_on_c, 0, 69, 31
1, 2732, Control_c, 0, 64, 127
1, 2772, Note_on_c, 0, 62, 0
1, 2772, Note_on_c, 1, 53, 0
1, 2784, Note_on_c, 0, 69, 0
1, 2812, Note_on_c, 1, 59, 0
1, 2820, Note_on_c, 0, 72, 0
1, 2832, Note_on_c, 0, 77, 0
1, 2880, Note_on_c, 1, 68, 0
1, 2900, Note_on_c, 1, 63, 0
1, 3056, Control_c, 1, 64, 0
1, 3072, Note_on_c, 1, 52, 48
1, 3076, Control_c, 0, 64, 0
1, 3076, Note_on_c, 1, 57, 41
1, 3076, Note_on_c, 1, 67, 46
1, 3076, Note_on_c, 1, 59, 39
1, 3092, Note_on_c, 0, 72, 86
1, 3092, Note_on_c, 0, 83, 84
1, 3092, Note_on_c, 0, 76, 83
1, 3092, Note_on_c, 0, 79, 76
1, 3092, Note_on_c, 1, 62, 41
1, 3100, Note_on_c, 0, 67, 77
1, 3164, Control_c, 0, 64, 127
1, 3192, Control_c, 1, 64, 127
1, 3268, Note_on_c, 0, 83, 0
1, 3276, Note_on_c, 0, 79, 0
1, 3300, Note_on_c, 0, 76, 0
1, 3304, Note_on_c, 0, 72, 0
1, 3308, Note_on_c, 1, 43, 0
1, 3440, Note_on_c, 1, 52, 0
1, 3440, Note_on_c, 1, 57, 0
1, 3448, Note_on_c, 0, 67, 0
1, 3448, Control_c, 1, 64, 0
1, 3460, Note_on_c, 0, 79, 64
1, 3464, Control_c, 0, 64, 0
1, 3464, Note_on_c, 0, 74, 68
1, 3468, Note_on_c, 0, 71, 56
1, 3468, Note_on_c, 1, 46, 66
1, 3476, Note_on_c, 0, 64, 52
1, 3508, Control_c, 1, 64, 127
1, 3516, Note_on_c, 1, 59, 0
1, 3528, Note_on_c, 1, 62, 0
1, 3532, Control_c, 0, 64, 127
1, 3536, Note_on_c, 1, 67, 0
1, 3620, Note_on_c, 0, 79, 0
1, 3628, Note_on_c, 0, 74, 0
1, 3652, Note_on_c, 0, 71, 0
1, 3680, Note_on_c, 1, 63, 25
1, 3712, Note_on_c, 1, 63, 0
1, 3808, Control_c, 1, 64, 0
1, 3816, Note_on_c, 0, 64, 0
1, 3816, Note_on_c, 1, 46, 0
1, 3832, Note_on_c, 1, 55, 44
1, 3836, Control_c, 0, 64, 0
1, 3836, Note_on_c, 1, 58, 48
1, 3836, Note_on_c, 1, 61, 51
1, 3836, Note_on_c, 1, 64, 45
1, 3852, Note_on_c, 0, 77, 57
1, 3852, Note_on_c, 0, 67, 37
1, 3852, Note_on_c, 0, 73, 46
1, 3852, Note_on_c, 1, 45, 42
1, 3864, Note_on_c, 0, 70, 46
1, 3868, Note_on_c, 0, 61, 40
1, 3920, Control_c, 0, 64, 127
1, 3940, Control_c, 1, 64, 127
1, 4020, Note_on_c, 1, 55, 0
1, 4036, Note_on_c, 0, 77, 0
1, 4048, Note_on_c, 1, 61, 0
1, 4052, Note_on_c, 1, 58, 0
1, 4092, Note_on_c, 0, 67, 0
1, 4100, Note_on_c, 0, 73, 0
1, 4112, Note_on_c, 0, 70, 0
1, 4136, Note_on_c, 1, 64, 0
1, 4200, Control_c, 0, 64, 0
1, 4204, Note_on_c, 0, 61, 0
1, 4204, Note_on_c, 1, 58, 51
1, 4212, Note_on_c, 1, 61, 46
1, 4216, Note_on_c, 0, 60, 52
1, 4216, Note_on_c, 1, 55, 43
1, 4220, Note_on_c, 0, 70, 43
1, 4224, Note_on_c, 0, 67, 33
1, 4224, Note_on_c, 0, 76, 46
1, 4228, Note_on_c, 0, 73, 39
1, 4244, Control_c, 0, 64, 127
1, 4252, Note_on_c, 1, 45, 0
1, 4256, Note_on_c, 0, 60, 0
1, 4264, Note_on_c, 0, 67, 0
1, 4272, Note_on_c, 1, 55, 0
1, 4280, Note_on_c, 0, 70, 0
1, 4308, Note_on_c, 0, 76, 0
1, 4308, Note_on_c, 0, 73, 0
1, 4324, Note_on_c, 1, 58, 0
1, 4332, Note_on_c, 1, 61, 0
1, 4452, Note_on_c, 0, 63, 41
1, 4464, Note_on_c, 0, 64, 66
1, 4476, Note_on_c, 0, 63, 0
1, 4492, Note_on_c, 0, 81, 81
1, 4492, Note_on_c, 0, 74, 78
1, 4492, Note_on_c, 0, 77, 78
1, 4492, Note_on_c, 0, 72, 77
1, 4496, Control_c, 0, 64, 0
1, 4504, Note_on_c, 0, 65, 62
1, 4504, Note_on_c, 1, 46, 45
1, 4532, Note_on_c, 0, 64, 0
1, 4556, Note_on_c, 1, 48, 34
1, 4556, Control_c, 1, 64, 0
1, 4576, Note_on_c, 1, 50, 73
1, 4584, Note_on_c, 1, 48, 0
1, 4584, Note_on_c, 1, 65, 72
1, 4588, Note_on_c, 1, 60, 80
1, 4588, Note_on_c, 1, 69, 71
1, 4604, Note_on_c, 1, 46, 0
1, 4624, Note_on_c, 0, 72, 0
1, 4632, Note_on_c, 0, 81, 0
1, 4632, Note_on_c, 0, 65, 0
1, 4636, Control_c, 0, 64, 127
1, 4640, Note_on_c, 0, 74, 0
1, 4648, Note_on_c, 0, 77, 0
1, 4664, Control_c, 1, 64, 127
1, 4684, Note_on_c, 0, 65, 52
1, 4684, Note_on_c, 0, 81, 66
1, 4696, Note_on_c, 0, 74, 57
1, 4696, Note_on_c, 0, 72, 59
1, 4700, Note_on_c, 0, 77, 69
1, 4708, Note_on_c, 1, 60, 0
1, 4796, Note_on_c, 0, 77, 0
1, 4816, Note_on_c, 0, 81, 0
1, 4816, Note_on_c, 1, 65, 0
1, 4820, Note_on_c, 0, 74, 0
1, 4832, Note_on_c, 1, 69, 0
1, 4836, Note_on_c, 0, 72, 0
1, 4932, Control_c, 0, 64, 0
1, 4944, Note_on_c, 0, 65, 0
1, 4952, Note_on_c, 1, 50, 0
1, 4952, Note_on_c, 0, 72, 58
1, 4952, Note_on_c, 0, 77, 64
1, 4952, Note_on_c, 0, 69, 55
1, 4956, Note_on_c, 0, 62, 52
1, 4960, Note_on_c, 0, 74, 57
1, 4972, Control_c, 1, 64, 0
1, 4984, Note_on_c, 1, 69, 61
1, 4984, Note_on_c, 1, 48, 63
1, 4988, Note_on_c, 1, 62, 63
1, 4992, Note_on_c, 1, 57, 58
1, 4992, Note_on_c, 1, 65, 60
1, 5000, Note_on_c, 1, 66, 38
1, 5004, Control_c, 0, 64, 127
1, 5060, Note_on_c, 0, 74, 0
1, 5080, Note_on_c, 0, 77, 0
1, 5080, Control_c, 1, 64, 127
1, 5088, Note_on_c, 0, 72, 0
1, 5108, Note_on_c, 0, 62, 0
1, 5116, Note_on_c, 0, 69, 0
1, 5152, Note_on_c, 1, 69, 0
1, 5192, Note_on_c, 1, 62, 0
1, 5196, Note_on_c, 1, 57, 0
1, 5200, Note_on_c, 1, 66, 0
1, 5204, Note_on_c, 1, 65, 0
1, 5288, Note_on_c, 1, 46, 45
1, 5308, Note_on_c, 1, 48, 0
1, 5316, Control_c, 1, 64, 0
1, 5344, Note_on_c, 1, 46, 0
1, 5352, Note_on_c, 1, 62, 66
1, 5352, Note_on_c, 1, 67, 63
1, 5360, Note_on_c, 1, 47, 56
1, 5360, Note_on_c, 1, 57, 58
1, 5372, Note_on_c, 0, 76, 77
1, 5372, Note_on_c, 0, 65, 72
1, 5372, Note_on_c, 0, 71, 63
1, 5372, Control_c, 0, 64, 0
1, 5372, Note_on_c, 0, 62, 66
1, 5372, Note_on_c, 0, 68, 60
1, 5392, Control_c, 1, 64, 127
1, 5476, Control_c, 0, 64, 127
1, 5496, Note_on_c, 1, 57, 0
1, 5504, Note_on_c, 1, 47, 0
1, 5508, Note_on_c, 1, 67, 0
1, 5536, Note_on_c, 1, 62, 0
1, 5584, Note_on_c, 0, 76, 0
1, 5632, Note_on_c, 0, 65, 0
1, 5644, Note_on_c, 0, 68, 0
1, 5664, Note_on_c, 0, 71, 0
1, 5704, Control_c, 1, 64, 0
1, 5720, Control_c, 0, 64, 0
1, 5720, Note_on_c, 1, 46, 50
1, 5720, Note_on_c, 1, 34, 52
1, 5724, Note_on_c, 0, 62, 0
1, 5724, Note_on_c, 1, 65, 60
1, 5724, Note_on_c, 1, 62, 58
1, 5728, Note_on_c, 1, 56, 56
1, 5736, Note_on_c, 0, 68, 63
1, 5740, Note_on_c, 0, 65, 57
1, 5740, Note_on_c, 0, 56, 58
1, 5740, Note_on_c, 0, 74, 58
1, 5752, Note_on_c, 0, 71, 46
1, 5792, Control_c, 1, 64, 127
1, 5796, Control_c, 0, 64, 127
1, 5848, Note_on_c, 0, 71, 0
1, 5860, Note_on_c, 1, 62, 0
1, 5884, Note_on_c, 1, 46, 0
1, 5888, Note_on_c, 1, 56, 0
1, 5888, Note_on_c, 1, 65, 0
1, 5900, Note_on_c, 1, 34, 0
1, 5920, Note_on_c, 0, 74, 0
1, 5928, Note_on_c, 0, 65, 0
1, 5944, Note_on_c, 0, 68, 0
1, 6076, Control_c, 1, 64, 0
1, 6116, Control_c, 0, 64, 0
1, 6116, Note_on_c, 1, 64, 63
1, 6116, Note_on_c, 1, 45, 45
1, 6116, Note_on_c, 1, 33, 48
1, 6120, Note_on_c, 0, 56, 0
1, 6124, Note_on_c, 1, 55, 50
1, 6128, Note_on_c, 1, 60, 52
1, 6132, Note_on_c, 0, 72, 49
1, 6136, Note_on_c, 0, 64, 38
1, 6136, Note_on_c, 0, 67, 52
1, 6140, Control_c, 1, 64, 127
1, 6144, Note_on_c, 0, 57, 38
1, 6184, Control_c, 0, 64, 127
1, 6204, Note_on_c, 0, 57, 0
1, 6248, Note_on_c, 1, 64, 0
1, 6276, Note_on_c, 1, 55, 0
1, 6292, Note_on_c, 1, 33, 0
1, 6292, Note_on_c, 1, 60, 0
1, 6296, Note_on_c, 0, 64, 0
1, 6304, Note_on_c, 0, 67, 0
1, 6308, Note_on_c, 1, 45, 0
1, 6320, Note_on_c, 0, 72, 0
1, 6496, Control_c, 1, 64, 0
1, 6504, Note_on_c, 0, 65, 63
1, 6504, Note_on_c, 0, 70, 54
1, 6508, Control_c, 0, 64, 0
1, 6508, Note_on_c, 0, 58, 46
1, 6508, Note_on_c, 1, 32, 43
1, 6508, Note_on_c, 1, 44, 36
1, 6512, Note_on_c, 1, 54, 39
1, 6516, Note_on_c, 0, 54, 32
1, 6524, Note_on_c, 0, 44, 37
1, 6524, Note_on_c, 1, 59, 46
1, 6528, Note_on_c, 1, 63, 32
1, 6576, Control_c, 1, 64, 127
1, 6584, Control_c, 0, 64, 127
1, 6652, Note_on_c, 0, 54, 0
1, 6656, Note_on_c, 0, 65, 0
1, 6676, Note_on_c, 1, 59, 0
1, 6676, Note_on_c, 0, 44, 0
1, 6688, Note_on_c, 0, 70, 0
1, 6688, Note_on_c, 0, 58, 0
1, 6692, Note_on_c, 1, 44, 0
1, 6692, Note_on_c, 1, 54, 0
1, 6696, Note_on_c, 1, 32, 0
1, 6744, Note_on_c, 1, 63, 0
1, 6876, Control_c, 0, 64, 0
1, 6876, Control_c, 1, 64, 0
1, 6892, Note_on_c, 0, 58, 49
1, 6904, Note_on_c, 0, 69, 39
1, 6904, Note_on_c, 0, 62, 49
1, 6912, Note_on_c, 0, 53, 32
1, 6912, Note_on_c, 0, 43, 32
1, 6916, Note_on_c, 1, 58, 48
1, 6920, Note_on_c, 1, 62, 48
1, 6924, Note_on_c, 1, 31, 32
1, 6924, Note_on_c, 1, 43, 34
1, 6924, Note_on_c, 1, 53, 31
1, 6944, Control_c, 1, 64, 127
1, 6956, Control_c, 0, 64, 127
1, 6964, Note_on_c, 0, 43, 0
1, 6976, Note_on_c, 1, 31, 0
1, 6996, Note_on_c, 0, 62, 0
1, 6996, Note_on_c, 0, 58, 0
1, 7024, Note_on_c, 0, 53, 0
1, 7028, Note_on_c, 0, 69, 0
1, 7040, Note_on_c, 1, 43, 0
1, 7040, Note_on_c, 1, 53, 0
1, 7052, Note_on_c, 1, 62, 0
1, 7104, Note_on_c, 1, 58, 0
1, 7288, Note_on_c, 0, 64, 48
1, 7292, Control_c, 0, 64, 0
1, 7292, Note_on_c, 0, 73, 41
1, 7292, Note_on_c, 0, 68, 51
1, 7300, Note_on_c, 0, 70, 48
1, 7300, Note_on_c, 0, 58, 44
1, 7300, Note_on_c, 1, 58, 52
1, 7304, Note_on_c, 1, 52, 39
1, 7304, Note_on_c, 1, 61, 48
1, 7376, Control_c, 0, 64, 127
1, 7408, Note_on_c, 1, 52, 0
1, 7436, Note_on_c, 0, 64, 0
1, 7504, Note_on_c, 0, 73, 0
1, 7536, Note_on_c, 0, 70, 0
1, 7540, Note_on_c, 0, 58, 0
1, 7556, Note_on_c, 1, 58, 0
1, 7564, Note_on_c, 0, 68, 0
1, 7568, Note_on_c, 1, 48, 26
1, 7584, Note_on_c, 1, 61, 0
1, 7632, Control_c, 1, 64, 0
1, 7636, Note_on_c, 1, 48, 0
1, 7676, Note_on_c, 1, 53, 42
1, 7684, Note_on_c, 0, 72, 50
1, 7684, Note_on_c, 0, 60, 38
1, 7684, Note_on_c, 1, 57, 41
1, 7684, Note_on_c, 1, 60, 49
1, 7692, Note_on_c, 0, 76, 48
1, 7692, Note_on_c, 0, 69, 42
1, 7696, Control_c, 0, 64, 0
1, 7696, Note_on_c, 1, 50, 23
1, 7696, Note_on_c, 1, 41, 33
1, 7700, Control_c, 1, 64, 127
1, 7704, Note_on_c, 0, 64, 27
1, 7708, Note_on_c, 0, 65, 43
1, 7732, Note_on_c, 1, 41, 0
1, 7736, Note_on_c, 1, 53, 0
1, 7748, Note_on_c, 1, 57, 0
1, 7764, Note_on_c, 1, 50, 0
1, 7788, Note_on_c, 1, 60, 0
1, 7824, Control_c, 0, 64, 127
1, 7892, Note_on_c, 0, 65, 0
1, 7948, Note_on_c, 0, 69, 0
1, 7956, Note_on_c, 0, 72, 0
1, 8024, Note_on_c, 0, 76, 0
1, 8064, Note_on_c, 1, 57, 46
1, 8068, Note_on_c, 1, 60, 45
1, 8084, Note_on_c, 0, 53, 37
1, 8096, Control_c, 0, 64, 0
1, 8244, Control_c, 0, 64, 24
1, 8248, Control_c, 0, 64, 127
1, 8276, Note_on_c, 1, 57, 0
1, 8304, Note_on_c, 0, 64, 0
1, 8312, Note_on_c, 1, 69, 102
1, 8316, Note_on_c, 0, 53, 0
1, 8316, Note_on_c, 0, 60, 0
1, 8348, Note_on_c, 0, 72, 102
1, 8420, Note_on_c, 1, 60, 0
1, 8436, Control_c, 0, 64, 0
1, 8436, Control_c, 1, 64, 0
1, 8440, Note_on_c, 1, 69, 0
1, 8456, Note_on_c, 1, 53, 45
1, 8456, Note_on_c, 1, 68, 68
1, 8460, Note_on_c, 0, 72, 0
1, 8460, Note_on_c, 1, 62, 31
1, 8500, Note_on_c, 0, 74, 86
1, 8528, Control_c, 1, 64, 127
1, 8588, Note_on_c, 1, 62, 0
1, 8736, Control_c, 0, 64, 40
1, 8736, Control_c, 0, 64, 127
1, 8772, Control_c, 0, 64, 0
1, 8800, Note_on_c, 1, 68, 0
1, 8824, Note_on_c, 1, 60, 36
1, 8836, Note_on_c, 1, 65, 52
1, 8844, Note_on_c, 1, 56, 37
1, 8896, Control_c, 0, 64, 127
1, 9036, Note_on_c, 1, 65, 0
1, 9044, Note_on_c, 1, 53, 0
1, 9076, Note_on_c, 0, 72, 57
1, 9100, Note_on_c, 0, 74, 0
1, 9128, Note_on_c, 1, 60, 0
1, 9148, Note_on_c, 1, 56, 0
1, 9148, Note_on_c, 0, 72, 0
1, 9160, Control_c, 0, 64, 0
1, 9180, Control_c, 1, 64, 0
1, 9208, Note_on_c, 1, 67, 63
1, 9216, Note_on_c, 1, 52, 50
1, 9260, Control_c, 1, 64, 127
1, 9456, Note_on_c, 0, 68, 67
1, 9464, Note_on_c, 0, 80, 82
1, 9468, Note_on_c, 0, 81, 85
1, 9472, Note_on_c, 0, 69, 75
1, 9512, Note_on_c, 0, 68, 0
1, 9516, Note_on_c, 0, 80, 0
1, 9524, Note_on_c, 0, 69, 0
1, 9540, Note_on_c, 0, 81, 0
1, 9596, Note_on_c, 1, 59, 35
1, 9596, Note_on_c, 1, 64, 49
1, 9608, Note_on_c, 1, 60, 40
1, 9632, Note_on_c, 1, 59, 0
1, 9660, Note_on_c, 1, 64, 0
1, 9668, Note_on_c, 1, 67, 0
1, 9680, Note_on_c, 1, 52, 0
1, 9716, Note_on_c, 1, 60, 0
1, 9752, Note_on_c, 0, 72, 56
1, 9760, Note_on_c, 0, 60, 50
1, 9796, Note_on_c, 0, 72, 0
1, 9800, Note_on_c, 0, 60, 0
1, 9868, Note_on_c, 0, 60, 44
1, 9876, Note_on_c, 0, 72, 49
1, 9944, Note_on_c, 0, 72, 0
1, 9956, Note_on_c, 0, 60, 0
1, 9956, Control_c, 1, 64, 0
1, 9960, Note_on_c, 1, 54, 55
1, 9964, Note_on_c, 1, 57, 45
1, 9964, Note_on_c, 1, 63, 48
1, 9964, Note_on_c, 1, 60, 47
1, 9972, Note_on_c, 1, 66, 44
1, 9996, Note_on_c, 0, 62, 49
1, 10004, Note_on_c, 0, 74, 60
1, 10052, Control_c, 1, 64, 127
1, 10160, Note_on_c, 1, 57, 0
1, 10180, Note_on_c, 1, 60, 0
1, 10208, Note_on_c, 1, 63, 0
1, 10240, Note_on_c, 0, 74, 0
1, 10244, Note_on_c, 0, 72, 58
1, 10248, Note_on_c, 0, 62, 0
1, 10260, Note_on_c, 0, 60, 45
1, 10272, Note_on_c, 1, 54, 0
1, 10344, Note_on_c, 1, 66, 0
1, 10348, Control_c, 0, 64, 127
1, 10360, Note_on_c, 0, 60, 0
1, 10360, Note_on_c, 1, 51, 50
1, 10360, Note_on_c, 1, 63, 45
1, 10364, Note_on_c, 1, 57, 44
1, 10388, Note_on_c, 1, 60, 39
1, 10408, Note_on_c, 1, 51, 0
1, 10408, Note_on_c, 0, 72, 0
1, 10484, Note_on_c, 1, 60, 0
1, 10540, Note_on_c, 1, 57, 0
1, 10596, Note_on_c, 1, 63, 0
1, 10664, Note_on_c, 1, 49, 46
1, 10712, Control_c, 1, 64, 0
1, 10716, Note_on_c, 0, 68, 41
1, 10720, Control_c, 0, 64, 0
1, 10732, Note_on_c, 1, 49, 0
1, 10732, Note_on_c, 1, 65, 60
1, 10736, Note_on_c, 1, 60, 63
1, 10740, Note_on_c, 1, 57, 59
1, 10744, Note_on_c, 1, 50, 52
1, 10756, Note_on_c, 0, 74, 81
1, 10756, Note_on_c, 0, 84, 75
1, 10760, Note_on_c, 0, 77, 71
1, 10760, Note_on_c, 0, 69, 60
1, 10764, Note_on_c, 0, 81, 60
1, 10768, Note_on_c, 0, 68, 0
1, 10784, Note_on_c, 0, 81, 0
1, 10788, Note_on_c, 0, 77, 0
1, 10796, Note_on_c, 0, 74, 0
1, 10804, Control_c, 1, 64, 127
1, 10840, Note_on_c, 0, 84, 0
1, 10840, Control_c, 0, 64, 127
1, 10852, Note_on_c, 0, 69, 0
1, 10856, Note_on_c, 1, 60, 0
1, 10864, Note_on_c, 1, 65, 0
1, 10876, Note_on_c, 0, 68, 38
1, 10900, Note_on_c, 1, 57, 0
1, 10924, Note_on_c, 0, 68, 0
1, 10924, Control_c, 0, 64, 0
1, 10944, Note_on_c, 0, 67, 48
1, 10964, Control_c, 0, 64, 127
1, 11024, Note_on_c, 0, 66, 54
1, 11028, Note_on_c, 0, 67, 0
1, 11052, Control_c, 0, 64, 0
1, 11100, Note_on_c, 0, 81, 65
1, 11104, Note_on_c, 0, 77, 65
1, 11104, Note_on_c, 0, 74, 61
1, 11108, Note_on_c, 0, 66, 0
1, 11108, Note_on_c, 0, 72, 56
1, 11116, Note_on_c, 1, 50, 0
1, 11116, Note_on_c, 1, 53, 61
1, 11120, Note_on_c, 0, 65, 60
1, 11120, Note_on_c, 1, 57, 56
1, 11124, Note_on_c, 1, 60, 57
1, 11124, Control_c, 1, 64, 0
1, 11124, Note_on_c, 1, 45, 45
1, 11144, Control_c, 0, 64, 127
1, 11204, Note_on_c, 0, 77, 0
1, 11204, Note_on_c, 0, 81, 0
1, 11212, Control_c, 1, 64, 127
1, 11300, Note_on_c, 1, 53, 0
1, 11332, Note_on_c, 1, 57, 0
1, 11336, Note_on_c, 1, 60, 0
1, 11368, Note_on_c, 0, 72, 0
1, 11388, Note_on_c, 0, 74, 0
1, 11436, Note_on_c, 0, 65, 0
1, 11496, Note_on_c, 1, 45, 0
1, 11496, Control_c, 0, 64, 0
1, 11504, Note_on_c, 1, 53, 52
1, 11504, Note_on_c, 1, 57, 49
1, 11508, Note_on_c, 1, 60, 50
1, 11512, Note_on_c, 1, 50, 39
1, 11516, Note_on_c, 0, 79, 68
1, 11516, Note_on_c, 0, 74, 70
1, 11520, Note_on_c, 0, 71, 62
1, 11524, Note_on_c, 0, 76, 63
1, 11528, Note_on_c, 0, 64, 51
1, 11588, Control_c, 0, 64, 127
1, 11632, Note_on_c, 1, 53, 0
1, 11636, Note_on_c, 1, 57, 0
1, 11644, Note_on_c, 1, 60, 0
1, 11672, Note_on_c, 0, 76, 0
1, 11688, Note_on_c, 0, 79, 0
1, 11692, Note_on_c, 0, 74, 0
1, 11724, Note_on_c, 0, 71, 0
1, 11844, Note_on_c, 0, 64, 0
1, 11880, Note_on_c, 1, 50, 0
1, 11884, Control_c, 1, 64, 0
1, 11888, Note_on_c, 0, 70, 65
1, 11888, Note_on_c, 0, 73, 60
1, 11888, Note_on_c, 0, 76, 65
1, 11888, Note_on_c, 1, 64, 56
1, 11888, Note_on_c, 1, 58, 57
1, 11896, Note_on_c, 0, 67, 54
1, 11896, Control_c, 0, 64, 0
1, 11896, Note_on_c, 1, 55, 51
1, 11896, Note_on_c, 1, 61, 50
1, 11896, Note_on_c, 1, 49, 44
1, 11904, Note_on_c, 0, 61, 50
1, 11928, Note_on_c, 1, 49, 0
1, 11940, Control_c, 1, 64, 127
1, 11996, Note_on_c, 1, 64, 0
1, 12004, Note_on_c, 1, 55, 0
1, 12032, Control_c, 0, 64, 127
1, 12036, Note_on_c, 1, 61, 0
1, 12088, Note_on_c, 1, 58, 0
1, 12088, Note_on_c, 0, 67, 0
1, 12112, Note_on_c, 0, 61, 0
1, 12132, Note_on_c, 0, 70, 0
1, 12132, Note_on_c, 0, 73, 0
1, 12144, Note_on_c, 0, 76, 0
1, 12248, Control_c, 0, 64, 0
1, 12284, Control_c, 1, 64, 0
1, 12288, Note_on_c, 0, 70, 56
1, 12288, Note_on_c, 0, 74, 61
1, 12288, Note_on_c, 0, 65, 51
1, 12292, Note_on_c, 0, 60, 40
1, 12292, Note_on_c, 0, 54, 43
1, 12292, Note_on_c, 1, 58, 58
1, 12292, Note_on_c, 1, 65, 63
1, 12296, Note_on_c, 1, 54, 53
1, 12300, Note_on_c, 1, 32, 41
1, 12304, Note_on_c, 1, 44, 36
1, 12380, Control_c, 0, 64, 127
1, 12424, Control_c, 1, 64, 72
1, 12424, Control_c, 1, 64, 127
1, 12532, Note_on_c, 0, 60, 0
1, 12544, Note_on_c, 0, 65, 0
1, 12544, Note_on_c, 0, 70, 0
1, 12560, Note_on_c, 1, 44, 0
1, 12568, Note_on_c, 1, 54, 0
1, 12568, Note_on_c, 1, 58, 0
1, 12624, Note_on_c, 1, 65, 0
1, 12636, Note_on_c, 1, 32, 0
1, 12692, Note_on_c, 0, 70, 43
1, 12696, Note_on_c, 0, 60, 28
1, 12704, Note_on_c, 0, 65, 37
1, 12704, Note_on_c, 1, 58, 55
1, 12708, Note_on_c, 1, 61, 56
1, 12708, Note_on_c, 1, 44, 49
1, 12708, Note_on_c, 1, 54, 48
1, 12740, Note_on_c, 1, 32, 19
1, 12800, Note_on_c, 0, 60, 0
1, 12828, Note_on_c, 0, 54, 0
1, 12876, Note_on_c, 1, 54, 0
1, 12876, Note_on_c, 1, 44, 0
1, 12884, Note_on_c, 0, 65, 0
1, 12904, Note_on_c, 1, 32, 0
1, 12924, Note_on_c, 0, 74, 0
1, 12936, Note_on_c, 0, 70, 0
1, 12940, Note_on_c, 1, 61, 0
1, 12952, Note_on_c, 1, 58, 0
1, 13024, Control_c, 1, 64, 0
1, 13064, Note_on_c, 1, 53, 51
1, 13072, Note_on_c, 1, 31, 40
1, 13072, Note_on_c, 1, 60, 50
1, 13076, Note_on_c, 1, 43, 37
1, 13080, Note_on_c, 1, 57, 43
1, 13084, Control_c, 0, 64, 0
1, 13108, Note_on_c, 0, 65, 33
1, 13108, Note_on_c, 0, 69, 39
1, 13124, Note_on_c, 0, 62, 29
1, 13128, Note_on_c, 0, 55, 32
1, 13128, Control_c, 1, 64, 127
1, 13136, Control_c, 0, 64, 127
1, 13184, Note_on_c, 0, 65, 0
1, 13200, Note_on_c, 0, 62, 0
1, 13204, Note_on_c, 0, 55, 0
1, 13204, Note_on_c, 1, 43, 0
1, 13216, Note_on_c, 0, 69, 0
1, 13224, Note_on_c, 1, 60, 0
1, 13224, Note_on_c, 1, 57, 0
1, 13252, Note_on_c, 1, 53, 0
1, 13356, Note_on_c, 1, 31, 0
1, 13432, Note_on_c, 0, 61, 48
1, 13436, Control_c, 1, 64, 0
1, 13436, Note_on_c, 1, 58, 75
1, 13436, Note_on_c, 1, 55, 79
1, 13436, Note_on_c, 1, 64, 71
1, 13436, Note_on_c, 1, 61, 69
1, 13460, Control_c, 0, 64, 0
1, 13464, Note_on_c, 0, 62, 56
1, 13464, Note_on_c, 1, 49, 52
1, 13472, Note_on_c, 0, 73, 86
1, 13476, Note_on_c, 0, 79, 86
1, 13476, Note_on_c, 0, 70, 88
1, 13488, Note_on_c, 0, 77, 54
1, 13488, Note_on_c, 0, 64, 68
1, 13496, Note_on_c, 0, 62, 0
1, 13496, Note_on_c, 0, 61, 0
1, 13496, Note_on_c, 0, 76, 44
1, 13512, Note_on_c, 0, 77, 0
1, 13516, Note_on_c, 0, 76, 0
1, 13540, Control_c, 1, 64, 127
1, 13552, Note_on_c, 0, 70, 0
1, 13572, Note_on_c, 0, 73, 0
1, 13576, Note_on_c, 0, 79, 0
1, 13604, Note_on_c, 0, 64, 0
1, 13624, Note_on_c, 0, 61, 48
1, 13640, Note_on_c, 1, 55, 0
1, 13648, Note_on_c, 1, 64, 0
1, 13676, Control_c, 0, 64, 127
1, 13720, Note_on_c, 0, 79, 78
1, 13720, Note_on_c, 0, 73, 69
1, 13720, Note_on_c, 0, 70, 73
1, 13732, Note_on_c, 0, 61, 0
1, 13732, Note_on_c, 0, 64, 61
1, 13736, Note_on_c, 1, 58, 0
1, 13756, Note_on_c, 1, 49, 0
1, 13760, Note_on_c, 0, 77, 25
1, 13772, Note_on_c, 1, 61, 0
1, 13776, Note_on_c, 0, 79, 0
1, 13784, Note_on_c, 0, 77, 0
1, 13792, Note_on_c, 0, 70, 0
1, 13796, Control_c, 1, 64, 0
1, 13812, Note_on_c, 0, 73, 0
1, 13812, Note_on_c, 1, 65, 76
1, 13812, Note_on_c, 1, 60, 75
1, 13816, Note_on_c, 1, 50, 72
1, 13820, Note_on_c, 1, 57, 73
1, 13828, Control_c, 0, 64, 0
1, 13856, Note_on_c, 0, 64, 0
1, 13864, Note_on_c, 0, 69, 72
1, 13864, Note_on_c, 0, 72, 69
1, 13872, Note_on_c, 0, 77, 72
1, 13872, Note_on_c, 0, 62, 60
1, 13904, Control_c, 1, 64, 127
1, 13908, Note_on_c, 0, 69, 0
1, 13912, Control_c, 0, 64, 127
1, 13928, Note_on_c, 0, 62, 0
1, 13936, Note_on_c, 0, 72, 0
1, 13948, Note_on_c, 0, 77, 0
1, 14024, Note_on_c, 1, 57, 0
1, 14052, Note_on_c, 1, 60, 0
1, 14088, Note_on_c, 1, 50, 0
1, 14100, Control_c, 0, 64, 0
1, 14100, Note_on_c, 0, 84, 96
1, 14100, Note_on_c, 0, 77, 88
1, 14100, Note_on_c, 0, 74, 96
1, 14100, Note_on_c, 0, 81, 82
1, 14108, Note_on_c, 0, 69, 84
1, 14188, Note_on_c, 0, 74, 0
1, 14196, Note_on_c, 0, 81, 0
1, 14196, Note_on_c, 0, 77, 0
1, 14200, Note_on_c, 0, 84, 0
1, 14204, Note_on_c, 0, 69, 0
1, 14212, Note_on_c, 1, 60, 54
1, 14220, Note_on_c, 1, 50, 45
1, 14232, Note_on_c, 1, 57, 24
1, 14252, Note_on_c, 0, 69, 65
1, 14252, Note_on_c, 0, 84, 77
1, 14256, Note_on_c, 0, 77, 82
1, 14264, Note_on_c, 0, 74, 81
1, 14264, Note_on_c, 0, 81, 63
1, 14312, Note_on_c, 0, 81, 0
1, 14324, Note_on_c, 0, 74, 0
1, 14328, Note_on_c, 0, 84, 0
1, 14332, Note_on_c, 1, 50, 0
1, 14336, Note_on_c, 0, 69, 0
1, 14336, Note_on_c, 0, 77, 0
1, 14356, Note_on_c, 1, 57, 0
1, 14380, Note_on_c, 1, 60, 0
1, 14480, Note_on_c, 0, 65, 57
1, 14488, Note_on_c, 0, 81, 63
1, 14488, Note_on_c, 0, 74, 61
1, 14488, Note_on_c, 0, 72, 62
1, 14492, Note_on_c, 0, 77, 61
1, 14516, Note_on_c, 1, 65, 0
1, 14552, Note_on_c, 0, 81, 0
1, 14560, Note_on_c, 0, 77, 0
1, 14560, Control_c, 1, 64, 0
1, 14572, Note_on_c, 0, 74, 0
1, 14576, Note_on_c, 0, 72, 0
1, 14588, Note_on_c, 1, 53, 39
1, 14592, Note_on_c, 1, 62, 51
1, 14592, Note_on_c, 1, 43, 42
1, 14596, Note_on_c, 1, 59, 43
1, 14600, Note_on_c, 0, 65, 0
1, 14640, Note_on_c, 0, 64, 47
1, 14644, Note_on_c, 0, 79, 50
1, 14648, Note_on_c, 0, 74, 48
1, 14652, Note_on_c, 0, 71, 48
1, 14652, Control_c, 1, 64, 127
1, 14668, Note_on_c, 0, 76, 31
1, 14696, Note_on_c, 0, 76, 0
1, 14696, Note_on_c, 0, 71, 0
1, 14708, Note_on_c, 0, 74, 0
1, 14708, Note_on_c, 0, 64, 0
1, 14720, Note_on_c, 1, 62, 0
1, 14720, Note_on_c, 0, 79, 0
1, 14748, Note_on_c, 1, 59, 0
1, 14772, Control_c, 0, 64, 127
1, 14776, Note_on_c, 1, 53, 0
1, 14856, Note_on_c, 0, 79, 61
1, 14864, Note_on_c, 0, 74, 49
1, 14864, Note_on_c, 0, 64, 46
1, 14872, Note_on_c, 0, 71, 33
1, 14876, Control_c, 0, 64, 0
1, 14916, Note_on_c, 0, 79, 0
1, 14920, Note_on_c, 0, 71, 0
1, 14928, Note_on_c, 0, 74, 0
1, 14976, Note_on_c, 0, 64, 0
1, 14980, Note_on_c, 1, 59, 48
1, 14992, Note_on_c, 1, 57, 39
1, 15004, Note_on_c, 0, 77, 52
1, 15004, Control_c, 0, 64, 127
1, 15004, Note_on_c, 1, 53, 33
1, 15008, Note_on_c, 0, 62, 50
1, 15012, Note_on_c, 0, 74, 46
1, 15012, Note_on_c, 0, 72, 45
1, 15020, Note_on_c, 0, 69, 23
1, 15052, Note_on_c, 0, 69, 0
1, 15056, Note_on_c, 1, 53, 0
1, 15064, Note_on_c, 0, 74, 0
1, 15068, Note_on_c, 0, 72, 0
1, 15084, Note_on_c, 0, 62, 0
1, 15092, Note_on_c, 0, 77, 0
1, 15100, Note_on_c, 1, 43, 0
1, 15104, Note_on_c, 1, 59, 0
1, 15112, Note_on_c, 1, 57, 0
1, 15320, Control_c, 0, 64, 0
1, 15332, Control_c, 1, 64, 0
1, 15344, Note_on_c, 1, 36, 54
1, 15368, Note_on_c, 1, 52, 53
1, 15388, Note_on_c, 0, 82, 85
1, 15388, Note_on_c, 0, 75, 86
1, 15388, Note_on_c, 0, 73, 85
1, 15388, Note_on_c, 0, 66, 76
1, 15396, Control_c, 1, 64, 127
1, 15400, Note_on_c, 0, 78, 57
1, 15420, Note_on_c, 0, 78, 0
1, 15432, Note_on_c, 1, 36, 0
1, 15456, Note_on_c, 0, 73, 0
1, 15472, Note_on_c, 1, 52, 0
1, 15476, Note_on_c, 0, 75, 0
1, 15480, Note_on_c, 0, 82, 0
1, 15504, Note_on_c, 0, 83, 81
1, 15508, Note_on_c, 0, 74, 83
1, 15512, Note_on_c, 0, 76, 77
1, 15516, Note_on_c, 0, 67, 75
1, 15524, Note_on_c, 0, 79, 66
1, 15528, Note_on_c, 0, 66, 0
1, 15556, Note_on_c, 0, 81, 29
1, 15568, Control_c, 0, 64, 127
1, 15648, Note_on_c, 0, 81, 0
1, 15668, Note_on_c, 0, 79, 0
1, 15672, Note_on_c, 0, 83, 0
1, 15676, Note_on_c, 0, 76, 0
1, 15696, Note_on_c, 0, 74, 0
1, 15736, Control_c, 0, 64, 0
1, 15748, Note_on_c, 1, 71, 81
1, 15748, Note_on_c, 1, 64, 86
1, 15748, Note_on_c, 1, 59, 76
1, 15752, Note_on_c, 1, 67, 63
1, 15752, Note_on_c, 1, 62, 85
1, 15760, Note_on_c, 0, 67, 0
1, 15772, Note_on_c, 0, 79, 77
1, 15776, Note_on_c, 0, 71, 68
1, 15776, Note_on_c, 0, 76, 73
1, 15780, Note_on_c, 0, 64, 65
1, 15780, Note_on_c, 0, 74, 72
1, 15824, Control_c, 0, 64, 127
1, 15880, Note_on_c, 1, 59, 0
1, 15920, Note_on_c, 1, 71, 0
1, 15940, Note_on_c, 0, 76, 0
1, 15940, Note_on_c, 1, 62, 0
1, 15952, Note_on_c, 1, 67, 0
1, 15952, Note_on_c, 1, 64, 0
1, 15952, Note_on_c, 0, 74, 0
1, 15960, Note_on_c, 0, 79, 0
1, 15972, Note_on_c, 0, 71, 0
1, 16072, Control_c, 0, 64, 0
1, 16120, Control_c, 1, 64, 0
1, 16128, Note_on_c, 0, 64, 0
1, 16128, Note_on_c, 1, 70, 66
1, 16132, Note_on_c, 0, 73, 58
1, 16132, Note_on_c, 1, 66, 65
1, 16136, Note_on_c, 0, 77, 68
1, 16136, Note_on_c, 0, 61, 54
1, 16136, Note_on_c, 0, 67, 46
1, 16136, Note_on_c, 0, 70, 54
1, 16136, Note_on_c, 1, 61, 65
1, 16140, Note_on_c, 1, 55, 55
1, 16224, Control_c, 0, 64, 127
1, 16260, Control_c, 1, 64, 127
1, 16300, Note_on_c, 0, 77, 0
1, 16352, Note_on_c, 1, 61, 0
1, 16352, Note_on_c, 0, 67, 0
1, 16380, Note_on_c, 0, 70, 0
1, 16384, Note_on_c, 1, 66, 0
1, 16384, Note_on_c, 0, 73, 0
1, 16448, Control_c, 0, 64, 0
1, 16488, Note_on_c, 1, 55, 0
1, 16496, Note_on_c, 1, 70, 0
1, 16508, Note_on_c, 0, 70, 46
1, 16512, Note_on_c, 0, 73, 40
1, 16512, Note_on_c, 0, 57, 41
1, 16512, Note_on_c, 0, 67, 39
1, 16516, Note_on_c, 0, 76, 46
1, 16524, Note_on_c, 1, 66, 54
1, 16524, Note_on_c, 1, 61, 51
1, 16532, Note_on_c, 1, 45, 39
1, 16544, Control_c, 0, 64, 127
1, 16556, Note_on_c, 0, 61, 0
1, 16560, Note_on_c, 1, 45, 0
1, 16580, Note_on_c, 0, 67, 0
1, 16580, Note_on_c, 0, 57, 0
1, 16620, Note_on_c, 0, 70, 0
1, 16632, Note_on_c, 0, 76, 0
1, 16640, Note_on_c, 0, 73, 0
1, 16680, Note_on_c, 1, 61, 0
1, 16788, Note_on_c, 1, 66, 0
1, 16876, Control_c, 0, 64, 0
1, 16896, Note_on_c, 0, 80, 78
1, 16900, Note_on_c, 0, 64, 62
1, 16900, Control_c, 1, 64, 0
1, 16904, Note_on_c, 0, 74, 72
1, 16908, Note_on_c, 0, 72, 65
1, 16916, Note_on_c, 1, 60, 48
1, 16916, Note_on_c, 1, 65, 50
1, 16928, Note_on_c, 1, 69, 46
1, 16940, Note_on_c, 0, 78, 26
1, 16960, Note_on_c, 0, 72, 0
1, 16976, Note_on_c, 0, 78, 0
1, 16976, Control_c, 1, 64, 127
1, 16984, Note_on_c, 0, 74, 0
1, 16984, Note_on_c, 0, 80, 0
1, 17000, Note_on_c, 0, 64, 0
1, 17012, Note_on_c, 0, 81, 72
1, 17012, Note_on_c, 0, 72, 61
1, 17016, Note_on_c, 0, 74, 52
1, 17016, Note_on_c, 0, 65, 61
1, 17016, Note_on_c, 0, 77, 61
1, 17064, Control_c, 0, 64, 127
1, 17076, Note_on_c, 0, 79, 17
1, 17096, Note_on_c, 1, 69, 0
1, 17112, Note_on_c, 1, 65, 0
1, 17148, Note_on_c, 1, 60, 0
1, 17156, Note_on_c, 0, 77, 0
1, 17164, Note_on_c, 1, 53, 47
1, 17172, Note_on_c, 0, 81, 0
1, 17172, Note_on_c, 0, 72, 0
1, 17172, Note_on_c, 0, 79, 0
1, 17184, Note_on_c, 0, 74, 0
1, 17264, Control_c, 0, 64, 0
1, 17272, Note_on_c, 1, 53, 0
1, 17284, Note_on_c, 0, 77, 66
1, 17288, Note_on_c, 0, 65, 0
1, 17288, Note_on_c, 0, 72, 57
1, 17288, Note_on_c, 0, 69, 56
1, 17296, Note_on_c, 0, 62, 56
1, 17296, Note_on_c, 0, 74, 57
1, 17308, Note_on_c, 1, 38, 48
1, 17340, Control_c, 0, 64, 127
1, 17388, Note_on_c, 1, 38, 0
1, 17420, Note_on_c, 0, 62, 0
1, 17436, Note_on_c, 0, 74, 0
1, 17448, Note_on_c, 0, 77, 0
1, 17460, Note_on_c, 0, 72, 0
1, 17468, Note_on_c, 0, 69, 0
1, 17640, Control_c, 1, 64, 0
1, 17644, Control_c, 0, 64, 0
1, 17664, Note_on_c, 1, 56, 48
1, 17668, Note_on_c, 1, 52, 43
1, 17672, Note_on_c, 0, 76, 60
1, 17672, Note_on_c, 0, 65, 48
1, 17672, Note_on_c, 0, 62, 52
1, 17672, Note_on_c, 1, 67, 41
1, 17672, Note_on_c, 1, 62, 49
1, 17684, Note_on_c, 0, 68, 46
1, 17688, Note_on_c, 0, 71, 54
1, 17692, Note_on_c, 1, 40, 28
1, 17732, Control_c, 0, 64, 127
1, 17744, Control_c, 1, 64, 127
1, 17868, Note_on_c, 1, 62, 0
1, 17872, Note_on_c, 0, 76, 0
1, 17908, Note_on_c, 0, 65, 0
1, 17908, Note_on_c, 1, 56, 0
1, 17916, Note_on_c, 1, 67, 0
1, 17948, Note_on_c, 0, 68, 0
1, 17956, Note_on_c, 1, 52, 0
1, 17964, Note_on_c, 0, 71, 0
1, 18028, Control_c, 0, 64, 0
1, 18040, Note_on_c, 1, 56, 50
1, 18040, Note_on_c, 1, 62, 54
1, 18044, Control_c, 1, 64, 0
1, 18064, Note_on_c, 1, 65, 40
1, 18064, Note_on_c, 1, 47, 26
1, 18068, Note_on_c, 0, 68, 38
1, 18076, Note_on_c, 0, 65, 33
1, 18080, Note_on_c, 0, 62, 0
1, 18080, Note_on_c, 0, 56, 43
1, 18080, Note_on_c, 0, 71, 36
1, 18080, Note_on_c, 0, 74, 45
1, 18100, Control_c, 0, 64, 127
1, 18112, Control_c, 1, 64, 127
1, 18116, Note_on_c, 1, 40, 0
1, 18148, Note_on_c, 1, 47, 0
1, 18152, Note_on_c, 1, 62, 0
1, 18160, Note_on_c, 1, 56, 0
1, 18164, Note_on_c, 1, 65, 0
1, 18184, Note_on_c, 0, 71, 0
1, 18228, Note_on_c, 0, 65, 0
1, 18232, Note_on_c, 0, 74, 0
1, 18260, Note_on_c, 0, 68, 0
1, 18384, Note_on_c, 0, 56, 0
1, 18388, Control_c, 1, 64, 0
1, 18400, Control_c, 0, 64, 0
1, 18428, Note_on_c, 0, 72, 48
1, 18428, Note_on_c, 0, 67, 54
1, 18428, Note_on_c, 0, 57, 39
1, 18428, Note_on_c, 1, 55, 42
1, 18432, Note_on_c, 0, 64, 31
1, 18432, Note_on_c, 1, 64, 49
1, 18440, Note_on_c, 1, 60, 47
1, 18440, Note_on_c, 1, 45, 31
1, 18448, Control_c, 0, 64, 127
1, 18460, Control_c, 1, 64, 127
1, 18492, Note_on_c, 1, 60, 0
1, 18492, Note_on_c, 0, 57, 0
1, 18492, Note_on_c, 1, 55, 0
1, 18500, Note_on_c, 1, 64, 0
1, 18504, Note_on_c, 1, 45, 0
1, 18520, Note_on_c, 0, 64, 0
1, 18524, Note_on_c, 0, 72, 0
1, 18552, Note_on_c, 0, 67, 0
1, 18696, Note_on_c, 1, 64, 48
1, 18700, Note_on_c, 1, 60, 57
1, 18700, Note_on_c, 1, 55, 43
1, 18704, Note_on_c, 1, 45, 51
1, 18720, Note_on_c, 1, 64, 0
1, 18740, Note_on_c, 1, 55, 0
1, 18752, Note_on_c, 1, 60, 0
1, 18788, Control_c, 0, 64, 0
1, 18792, Control_c, 1, 64, 0
1, 18800, Note_on_c, 1, 45, 0
1, 18816, Note_on_c, 0, 66, 61
1, 18816, Note_on_c, 0, 71, 59
1, 18824, Note_on_c, 0, 54, 41
1, 18824, Note_on_c, 0, 44, 47
1, 18824, Note_on_c, 0, 59, 46
1, 18824, Note_on_c, 1, 44, 49
1, 18824, Note_on_c, 1, 54, 50
1, 18828, Note_on_c, 1, 63, 45
1, 18840, Note_on_c, 1, 59, 49
1, 18848, Control_c, 0, 64, 127
1, 18884, Control_c, 1, 64, 127
1, 18972, Note_on_c, 0, 71, 0
1, 18980, Note_on_c, 0, 54, 0
1, 18988, Note_on_c, 0, 59, 0
1, 19000, Note_on_c, 0, 44, 0
1, 19004, Note_on_c, 1, 54, 0
1, 19008, Note_on_c, 1, 59, 0
1, 19044, Note_on_c, 1, 63, 0
1, 19072, Note_on_c, 0, 66, 0
1, 19120, Control_c, 1, 64, 0
1, 19136, Note_on_c, 1, 44, 0
1, 19148, Control_c, 0, 64, 0
1, 19184, Note_on_c, 1, 58, 49
1, 19184, Note_on_c, 1, 53, 33
1, 19188, Control_c, 1, 64, 127
1, 19188, Note_on_c, 1, 62, 48
1, 19188, Note_on_c, 1, 43, 31
1, 19196, Note_on_c, 0, 70, 50
1, 19196, Note_on_c, 0, 58, 48
1, 19208, Note_on_c, 0, 53, 35
1, 19208, Note_on_c, 0, 65, 47
1, 19212, Note_on_c, 0, 43, 38
1, 19232, Control_c, 0, 64, 127
1, 19244, Note_on_c, 1, 43, 0
1, 19260, Note_on_c, 1, 62, 0
1, 19276, Note_on_c, 0, 43, 0
1, 19276, Note_on_c, 0, 58, 0
1, 19316, Note_on_c, 0, 65, 0
1, 19320, Note_on_c, 0, 53, 0
1, 19324, Note_on_c, 1, 53, 0
1, 19352, Note_on_c, 1, 58, 0
1, 19384, Note_on_c, 0, 70, 0
1, 19524, Control_c, 1, 64, 0
1, 19552, Note_on_c, 1, 61, 48
1, 19552, Note_on_c, 1, 49, 41
1, 19556, Note_on_c, 1, 52, 45
1, 19556, Note_on_c, 1, 56, 50
1, 19584, Control_c, 1, 64, 127
1, 19588, Note_on_c, 0, 58, 45
1, 19648, Note_on_c, 1, 52, 0
1, 19728, Note_on_c, 1, 49, 0
1, 19784, Note_on_c, 1, 56, 0
1, 19788, Note_on_c, 0, 58, 0
1, 19824, Note_on_c, 1, 61, 0
1, 19900, Control_c, 1, 64, 0
1, 19944, Control_c, 0, 64, 0
1, 19948, Note_on_c, 1, 53, 42
1, 19952, Note_on_c, 0, 64, 30
1, 19952, Note_on_c, 0, 69, 56
1, 19952, Note_on_c, 1, 60, 49
1, 19952, Note_on_c, 1, 57, 41
1, 19956, Note_on_c, 1, 52, 35
1, 19960, Note_on_c, 1, 41, 35
1, 19968, Note_on_c, 0, 57, 49
1, 19968, Note_on_c, 0, 60, 31
1, 20016, Control_c, 1, 64, 127
1, 20028, Note_on_c, 1, 53, 0
1, 20032, Note_on_c, 1, 57, 0
1, 20060, Control_c, 0, 64, 127
1, 20068, Note_on_c, 1, 60, 0
1, 20128, Note_on_c, 1, 52, 0
1, 20140, Note_on_c, 1, 41, 0
1, 20168, Note_on_c, 0, 60, 0
1, 20172, Note_on_c, 0, 69, 0
1, 20200, Note_on_c, 0, 64, 0
1, 20348, Note_on_c, 1, 67, 75
1, 20352, Note_on_c, 1, 60, 72
1, 20360, Note_on_c, 1, 57, 67
1, 20368, Note_on_c, 1, 52, 45
1, 20376, Note_on_c, 1, 53, 34
1, 20380, Note_on_c, 0, 64, 23
1, 20400, Note_on_c, 1, 53, 0
1, 20404, Note_on_c, 1, 52, 0
1, 20444, Note_on_c, 0, 64, 0
1, 20492, Note_on_c, 0, 57, 0
1, 20492, Note_on_c, 1, 67, 0
1, 20496, Note_on_c, 1, 57, 0
1, 20512, Note_on_c, 0, 81, 64
1, 20528, Note_on_c, 1, 60, 0
1, 20576, Note_on_c, 0, 81, 0
1, 20636, Note_on_c, 0, 84, 117
1, 20708, Control_c, 1, 64, 0
1, 20728, Note_on_c, 0, 84, 0
1, 20740, Note_on_c, 1, 65, 55
1, 20744, Note_on_c, 1, 60, 57
1, 20744, Note_on_c, 1, 50, 39
1, 20744, Note_on_c, 1, 56, 52
1, 20752, Control_c, 0, 64, 0
1, 20752, Note_on_c, 1, 41, 40
1, 20760, Note_on_c, 0, 56, 51
1, 20772, Note_on_c, 0, 80, 76
1, 20816, Control_c, 1, 64, 127
1, 20896, Note_on_c, 1, 60, 0
1, 20900, Note_on_c, 1, 56, 0
1, 20916, Note_on_c, 1, 50, 0
1, 20928, Note_on_c, 0, 80, 0
1, 20968, Note_on_c, 0, 79, 82
1, 21044, Note_on_c, 0, 79, 0
1, 21076, Note_on_c, 0, 80, 50
1, 21108, Note_on_c, 0, 79, 60
1, 21116, Note_on_c, 1, 56, 54
1, 21120, Note_on_c, 1, 50, 40
1, 21132, Note_on_c, 1, 60, 56
1, 21148, Note_on_c, 0, 80, 0
1, 21148, Note_on_c, 0, 64, 30
1, 21152, Note_on_c, 0, 60, 37
1, 21188, Note_on_c, 0, 77, 63
1, 21200, Note_on_c, 0, 79, 0
1, 21204, Note_on_c, 1, 41, 0
1, 21224, Note_on_c, 1, 50, 0
1, 21240, Note_on_c, 1, 60, 0
1, 21244, Note_on_c, 0, 77, 0
1, 21248, Note_on_c, 1, 65, 0
1, 21252, Note_on_c, 1, 56, 0
1, 21292, Note_on_c, 0, 76, 48
1, 21348, Note_on_c, 0, 76, 0
1, 21376, Note_on_c, 0, 77, 65
1, 21436, Note_on_c, 0, 56, 0
1, 21436, Control_c, 1, 64, 40
1, 21436, Control_c, 1, 64, 0
1, 21456, Note_on_c, 0, 64, 0
1, 21472, Note_on_c, 0, 77, 0
1, 21480, Note_on_c, 0, 79, 81
1, 21492, Note_on_c, 1, 55, 49
1, 21496, Note_on_c, 1, 40, 43
1, 21496, Note_on_c, 1, 52, 43
1, 21512, Control_c, 1, 64, 127
1, 21524, Note_on_c, 0, 60, 0
1, 21556, Note_on_c, 1, 55, 0
1, 21572, Note_on_c, 1, 40, 0
1, 21572, Note_on_c, 0, 64, 35
1, 21572, Note_on_c, 0, 60, 22
1, 21588, Note_on_c, 0, 79, 0
1, 21588, Note_on_c, 0, 76, 58
1, 21600, Note_on_c, 0, 55, 25
1, 21616, Note_on_c, 1, 52, 0
1, 21692, Note_on_c, 0, 76, 0
1, 21712, Note_on_c, 0, 72, 56
1, 21752, Note_on_c, 0, 60, 0
1, 21752, Note_on_c, 0, 64, 0
1, 21800, Note_on_c, 0, 72, 0
1, 21892, Control_c, 0, 64, 127
1, 21896, Note_on_c, 1, 74, 63
1, 21896, Note_on_c, 1, 67, 66
1, 21896, Note_on_c, 1, 62, 68
1, 21932, Note_on_c, 0, 60, 31
1, 21936, Note_on_c, 0, 72, 34
1, 21936, Note_on_c, 0, 64, 25
1, 22000, Note_on_c, 1, 74, 0
1, 22036, Note_on_c, 1, 62, 0
1, 22036, Note_on_c, 1, 67, 0
1, 22104, Note_on_c, 0, 60, 0
1, 22104, Note_on_c, 0, 64, 0
1, 22136, Note_on_c, 0, 72, 0
1, 22140, Note_on_c, 0, 55, 0
1, 22224, Control_c, 1, 64, 0
1, 22276, Note_on_c, 1, 60, 55
1, 22276, Note_on_c, 1, 72, 63
1, 22276, Note_on_c, 1, 66, 60
1, 22280, Note_on_c, 1, 63, 57
1, 22284, Control_c, 1, 64, 127
1, 22396, Note_on_c, 1, 72, 0
1, 22396, Note_on_c, 1, 60, 0
1, 22424, Note_on_c, 1, 63, 0
1, 22436, Note_on_c, 1, 66, 0
1, 22524, Control_c, 0, 64, 0
1, 22540, Note_on_c, 0, 74, 85
1, 22540, Note_on_c, 0, 63, 82
1, 22540, Note_on_c, 0, 66, 73
1, 22548, Note_on_c, 0, 62, 79
1, 22552, Note_on_c, 0, 69, 56
1, 22640, Note_on_c, 0, 69, 0
1, 22656, Note_on_c, 0, 74, 0
1, 22656, Note_on_c, 0, 63, 0
1, 22664, Note_on_c, 1, 69, 57
1, 22664, Note_on_c, 1, 54, 46
1, 22664, Note_on_c, 1, 63, 54
1, 22668, Note_on_c, 1, 60, 46
1, 22672, Note_on_c, 0, 66, 0
1, 22672, Note_on_c, 1, 66, 45
1, 22688, Note_on_c, 0, 62, 0
1, 22704, Note_on_c, 0, 63, 58
1, 22704, Control_c, 0, 64, 127
1, 22708, Note_on_c, 0, 72, 63
1, 22712, Note_on_c, 0, 60, 57
1, 22712, Note_on_c, 0, 66, 50
1, 22728, Note_on_c, 0, 69, 42
1, 22748, Note_on_c, 1, 54, 0
1, 22752, Note_on_c, 1, 69, 0
1, 22752, Note_on_c, 1, 60, 0
1, 22772, Note_on_c, 0, 63, 0
1, 22780, Note_on_c, 1, 66, 0
1, 22780, Note_on_c, 0, 69, 0
1, 22792, Note_on_c, 1, 63, 0
1, 22792, Note_on_c, 0, 60, 0
1, 22808, Note_on_c, 0, 66, 0
1, 22816, Note_on_c, 0, 72, 0
1, 22992, Control_c, 1, 64, 0
1, 23028, Note_on_c, 1, 65, 57
1, 23028, Note_on_c, 1, 50, 49
1, 23040, Control_c, 0, 64, 0
1, 23040, Note_on_c, 1, 57, 48
1, 23040, Note_on_c, 1, 60, 52
1, 23052, Note_on_c, 0, 84, 102
1, 23052, Note_on_c, 0, 74, 92
1, 23052, Note_on_c, 0, 81, 84
1, 23052, Note_on_c, 0, 77, 87
1, 23052, Note_on_c, 0, 69, 85
1, 23056, Control_c, 1, 64, 127
1, 23148, Note_on_c, 1, 50, 0
1, 23152, Note_on_c, 1, 60, 0
1, 23164, Note_on_c, 1, 65, 0
1, 23176, Control_c, 0, 64, 127
1, 23184, Note_on_c, 1, 57, 0
1, 23216, Note_on_c, 0, 77, 0
1, 23224, Note_on_c, 0, 74, 0
1, 23236, Note_on_c, 0, 84, 0
1, 23240, Note_on_c, 0, 69, 0
1, 23248, Note_on_c, 0, 81, 0
1, 23288, Note_on_c, 0, 84, 70
1, 23296, Note_on_c, 0, 77, 75
1, 23296, Note_on_c, 0, 69, 59
1, 23300, Note_on_c, 0, 74, 63
1, 23344, Note_on_c, 0, 84, 0
1, 23348, Note_on_c, 0, 77, 0
1, 23368, Note_on_c, 0, 74, 0
1, 23392, Control_c, 0, 64, 0
1, 23400, Control_c, 1, 64, 0
1, 23400, Note_on_c, 1, 53, 51
1, 23404, Note_on_c, 0, 69, 0
1, 23404, Note_on_c, 1, 45, 49
1, 23404, Note_on_c, 1, 57, 49
1, 23408, Note_on_c, 1, 60, 51
1, 23428, Control_c, 1, 64, 127
1, 23432, Note_on_c, 1, 45, 0
1, 23436, Note_on_c, 0, 72, 62
1, 23436, Note_on_c, 0, 81, 56
1, 23444, Note_on_c, 0, 74, 57
1, 23444, Note_on_c, 0, 77, 55
1, 23444, Note_on_c, 0, 65, 57
1, 23508, Note_on_c, 0, 72, 0
1, 23508, Control_c, 0, 64, 127
1, 23512, Note_on_c, 0, 74, 0
1, 23520, Note_on_c, 0, 65, 0
1, 23520, Note_on_c, 0, 81, 0
1, 23520, Note_on_c, 0, 77, 0
1, 23564, Note_on_c, 1, 57, 0
1, 23564, Note_on_c, 1, 53, 0
1, 23588, Note_on_c, 1, 60, 0
1, 23676, Note_on_c, 0, 81, 68
1, 23680, Note_on_c, 0, 72, 65
1, 23680, Note_on_c, 0, 65, 62
1, 23684, Note_on_c, 0, 74, 63
1, 23684, Note_on_c, 0, 77, 52
1, 23704, Note_on_c, 0, 77, 0
1, 23712, Control_c, 0, 64, 0
1, 23716, Note_on_c, 0, 72, 0
1, 23720, Note_on_c, 0, 81, 0
1, 23728, Note_on_c, 0, 74, 0
1, 23760, Note_on_c, 0, 65, 0
1, 23764, Control_c, 1, 64, 0
1, 23776, Note_on_c, 1, 53, 51
1, 23784, Note_on_c, 1, 62, 54
1, 23784, Note_on_c, 1, 56, 44
1, 23788, Note_on_c, 1, 43, 40
1, 23800, Note_on_c, 1, 59, 41
1, 23824, Note_on_c, 0, 64, 51
1, 23824, Note_on_c, 0, 74, 49
1, 23828, Note_on_c, 0, 79, 45
1, 23828, Note_on_c, 0, 71, 51
1, 23848, Note_on_c, 0, 76, 46
1, 23856, Control_c, 0, 64, 127
1, 23872, Control_c, 1, 64, 127
1, 23888, Note_on_c, 0, 76, 0
1, 23904, Note_on_c, 0, 79, 0
1, 23924, Note_on_c, 0, 74, 0
1, 23936, Note_on_c, 0, 71, 0
1, 23996, Note_on_c, 1, 53, 0
1, 24016, Note_on_c, 1, 59, 0
1, 24036, Note_on_c, 1, 56, 0
1, 24036, Note_on_c, 0, 64, 0
1, 24108, Note_on_c, 1, 62, 0
1, 24116, Control_c, 0, 64, 0
1, 24168, Note_on_c, 1, 31, 47
1, 24172, Note_on_c, 1, 56, 49
1, 24180, Note_on_c, 0, 65, 49
1, 24180, Note_on_c, 0, 76, 57
1, 24180, Note_on_c, 1, 53, 44
1, 24192, Note_on_c, 1, 31, 0
1, 24192, Note_on_c, 0, 68, 45
1, 24192, Note_on_c, 0, 59, 45
1, 24192, Note_on_c, 1, 59, 41
1, 24196, Note_on_c, 1, 43, 0
1, 24200, Note_on_c, 0, 71, 46
1, 24212, Control_c, 0, 64, 127
1, 24236, Note_on_c, 1, 53, 0
1, 24256, Note_on_c, 0, 59, 0
1, 24280, Note_on_c, 1, 56, 0
1, 24284, Note_on_c, 1, 59, 0
1, 24292, Note_on_c, 0, 76, 0
1, 24312, Note_on_c, 0, 71, 0
1, 24328, Note_on_c, 0, 65, 0
1, 24352, Note_on_c, 0, 68, 0
1, 24532, Control_c, 0, 64, 0
1, 24536, Control_c, 1, 64, 0
1, 24564, Note_on_c, 0, 64, 43
1, 24564, Note_on_c, 1, 59, 44
1, 24564, Note_on_c, 1, 57, 45
1, 24564, Note_on_c, 1, 36, 46
1, 24564, Note_on_c, 1, 62, 48
1, 24572, Note_on_c, 0, 67, 48
1, 24572, Note_on_c, 0, 72, 43
1, 24572, Note_on_c, 1, 67, 41
1, 24588, Note_on_c, 0, 55, 36
1, 24592, Note_on_c, 1, 52, 38
1, 24632, Control_c, 0, 64, 127
1, 24684, Control_c, 1, 64, 127
1, 24760, Note_on_c, 1, 36, 0
1, 24760, Note_on_c, 0, 64, 0
1, 24804, Note_on_c, 1, 52, 0
1, 24832, Note_on_c, 1, 59, 0
1, 24832, Note_on_c, 1, 57, 0
1, 24832, Note_on_c, 1, 43, 72
1, 24864, Note_on_c, 1, 62, 0
1, 24884, Note_on_c, 0, 67, 0
1, 24892, Note_on_c, 0, 72, 0
1, 25040, Note_on_c, 1, 67, 0
1, 25052, Note_on_c, 1, 43, 0
1, 25052, Note_on_c, 0, 55, 0
1, 25064, Note_on_c, 0, 60, 52
1, 25072, Control_c, 0, 64, 0
1, 25124, Note_on_c, 0, 60, 0
1, 25136, Note_on_c, 0, 61, 64
1, 25204, Note_on_c, 0, 63, 65
1, 25212, Note_on_c, 0, 61, 0
1, 25228, Note_on_c, 0, 63, 0
1, 25252, Note_on_c, 0, 64, 63
1, 25300, Note_on_c, 0, 64, 0
1, 25300, Note_on_c, 0, 66, 70
1, 25332, Control_c, 1, 64, 0
1, 25336, Note_on_c, 1, 45, 43
1, 25348, Note_on_c, 0, 66, 0
1, 25372, Note_on_c, 0, 67, 72
1, 25416, Control_c, 1, 64, 127
1, 25424, Note_on_c, 0, 67, 0
1, 25432, Note_on_c, 0, 69, 63
1, 25472, Note_on_c, 0, 69, 0
1, 25476, Note_on_c, 0, 70, 62
1, 25496, Note_on_c, 0, 70, 0
1, 25532, Note_on_c, 0, 72, 59
1, 25580, Note_on_c, 0, 72, 0
1, 25580, Note_on_c, 0, 73, 57
1, 25592, Note_on_c, 1, 61, 60
1, 25596, Note_on_c, 1, 70, 54
1, 25604, Note_on_c, 1, 66, 49
1, 25608, Note_on_c, 1, 55, 48
1, 25628, Note_on_c, 0, 73, 0
1, 25628, Note_on_c, 0, 75, 62
1, 25632, Control_c, 1, 64, 72
1, 25636, Control_c, 1, 64, 0
1, 25652, Note_on_c, 0, 75, 0
1, 25676, Control_c, 1, 64, 127
1, 25684, Note_on_c, 0, 76, 57
1, 25728, Note_on_c, 0, 76, 0
1, 25732, Note_on_c, 0, 78, 64
1, 25736, Note_on_c, 0, 64, 36
1, 25740, Note_on_c, 0, 61, 38
1, 25748, Note_on_c, 0, 58, 39
1, 25768, Note_on_c, 0, 78, 0
1, 25768, Note_on_c, 0, 55, 36
1, 25800, Note_on_c, 1, 45, 0
1, 25820, Note_on_c, 0, 79, 53
1, 25872, Note_on_c, 0, 81, 56
1, 25876, Note_on_c, 0, 79, 0
1, 25904, Note_on_c, 1, 55, 0
1, 25912, Note_on_c, 0, 55, 0
1, 25912, Note_on_c, 1, 61, 0
1, 25924, Note_on_c, 0, 64, 0
1, 25932, Note_on_c, 0, 81, 0
1, 25940, Note_on_c, 1, 66, 0
1, 25952, Note_on_c, 1, 70, 0
1, 25960, Note_on_c, 0, 58, 0
1, 25960, Note_on_c, 0, 61, 0
1, 25960, Note_on_c, 0, 82, 60
1, 26008, Note_on_c, 0, 82, 0
1, 26028, Note_on_c, 0, 83, 46
1, 26080, Note_on_c, 0, 84, 74
1, 26088, Note_on_c, 0, 83, 0
1, 26088, Note_on_c, 1, 60, 52
1, 26096, Control_c, 1, 64, 0
1, 26100, Note_on_c, 1, 65, 43
1, 26100, Note_on_c, 1, 69, 40
1, 26148, Note_on_c, 0, 64, 34
1, 26152, Note_on_c, 0, 60, 41
1, 26156, Note_on_c, 0, 57, 40
1, 26164, Note_on_c, 0, 81, 57
1, 26168, Note_on_c, 0, 84, 0
1, 26220, Control_c, 1, 64, 127
1, 26392, Control_c, 0, 64, 127
1, 26476, Control_c, 1, 64, 0
1, 26500, Note_on_c, 1, 55, 43
1, 26508, Note_on_c, 0, 57, 0
1, 26512, Note_on_c, 0, 60, 0
1, 26516, Control_c, 1, 64, 127
1, 26524, Note_on_c, 0, 64, 0
1, 26536, Note_on_c, 0, 81, 0
1, 26700, Note_on_c, 1, 60, 0
1, 26716, Note_on_c, 1, 65, 0
1, 26764, Note_on_c, 1, 69, 0
1, 26772, Note_on_c, 0, 81, 70
1, 26836, Note_on_c, 0, 81, 0
1, 26840, Control_c, 1, 64, 0
1, 26856, Note_on_c, 1, 59, 48
1, 26864, Note_on_c, 1, 64, 49
1, 26876, Note_on_c, 1, 67, 45
1, 26892, Control_c, 0, 64, 0
1, 26904, Note_on_c, 0, 81, 57
1, 26916, Note_on_c, 0, 60, 41
1, 26916, Note_on_c, 0, 65, 31
1, 26920, Note_on_c, 0, 55, 25
1, 26932, Note_on_c, 0, 57, 34
1, 26984, Control_c, 1, 64, 127
1, 27088, Control_c, 0, 64, 127
1, 27116, Note_on_c, 0, 81, 0
1, 27124, Note_on_c, 0, 79, 56
1, 27156, Control_c, 1, 64, 0
1, 27200, Control_c, 1, 64, 127
1, 27212, Note_on_c, 1, 59, 0
1, 27220, Note_on_c, 1, 55, 0
1, 27224, Note_on_c, 0, 79, 0
1, 27236, Note_on_c, 1, 43, 52
1, 27244, Note_on_c, 1, 64, 0
1, 27264, Note_on_c, 0, 60, 0
1, 27268, Note_on_c, 0, 65, 0
1, 27272, Note_on_c, 1, 67, 0
1, 27276, Note_on_c, 0, 77, 28
1, 27288, Note_on_c, 0, 55, 0
1, 27296, Note_on_c, 0, 57, 0
1, 27332, Note_on_c, 0, 77, 0
1, 27524, Note_on_c, 1, 50, 25
1, 27592, Note_on_c, 1, 50, 0
1, 27612, Control_c, 1, 64, 24
1, 27616, Control_c, 1, 64, 0
1, 27632, Note_on_c, 1, 67, 68
1, 27640, Note_on_c, 1, 62, 64
1, 27644, Note_on_c, 1, 55, 52
1, 27648, Note_on_c, 1, 52, 54
1, 27652, Note_on_c, 1, 63, 46
1, 27708, Note_on_c, 1, 43, 0
1, 27768, Control_c, 1, 64, 127
1, 27936, Control_c, 1, 64, 0
1, 27948, Note_on_c, 1, 55, 0
1, 27984, Note_on_c, 1, 63, 0
1, 27996, Note_on_c, 1, 43, 84
1, 28024, Control_c, 1, 64, 127
1, 28040, Note_on_c, 1, 52, 0
1, 28076, Note_on_c, 1, 67, 0
1, 28116, Note_on_c, 1, 62, 0
1, 28240, Control_c, 0, 64, 0
1, 28244, Note_on_c, 0, 80, 80
1, 28252, Note_on_c, 0, 56, 68
1, 28252, Note_on_c, 0, 81, 83
1, 28256, Note_on_c, 0, 57, 72
1, 28304, Note_on_c, 0, 56, 0
1, 28308, Note_on_c, 0, 80, 0
1, 28348, Control_c, 1, 64, 0
1, 28372, Note_on_c, 1, 70, 85
1, 28376, Note_on_c, 1, 61, 87
1, 28376, Note_on_c, 1, 66, 79
1, 28380, Note_on_c, 0, 81, 0
1, 28384, Note_on_c, 1, 55, 79
1, 28408, Note_on_c, 0, 57, 0
1, 28416, Note_on_c, 0, 55, 55
1, 28424, Note_on_c, 0, 79, 57
1, 28504, Control_c, 0, 64, 127
1, 28508, Control_c, 0, 64, 0
1, 28564, Control_c, 1, 64, 127
1, 28588, Note_on_c, 1, 43, 0
1, 28608, Note_on_c, 0, 55, 0
1, 28612, Note_on_c, 0, 79, 0
1, 28636, Note_on_c, 0, 54, 55
1, 28644, Note_on_c, 0, 78, 61
1, 28748, Note_on_c, 0, 54, 0
1, 28748, Control_c, 1, 64, 0
1, 28752, Note_on_c, 0, 78, 0
1, 28756, Note_on_c, 1, 55, 0
1, 28760, Note_on_c, 0, 55, 56
1, 28768, Note_on_c, 1, 43, 76
1, 28780, Note_on_c, 0, 79, 60
1, 28796, Control_c, 1, 64, 127
1, 28868, Note_on_c, 0, 55, 0
1, 28880, Note_on_c, 0, 79, 0
1, 28944, Note_on_c, 1, 61, 0
1, 29024, Note_on_c, 0, 56, 64
1, 29028, Note_on_c, 1, 70, 0
1, 29028, Note_on_c, 0, 80, 66
1, 29068, Note_on_c, 1, 66, 0
1, 29104, Note_on_c, 0, 80, 0
1, 29112, Note_on_c, 0, 56, 0
1, 29140, Control_c, 1, 64, 0
1, 29148, Note_on_c, 1, 60, 75
1, 29148, Note_on_c, 1, 65, 73
1, 29152, Note_on_c, 1, 69, 68
1, 29160, Note_on_c, 1, 53, 58
1, 29168, Note_on_c, 0, 57, 56
1, 29176, Note_on_c, 0, 81, 55
1, 29228, Note_on_c, 0, 81, 0
1, 29252, Note_on_c, 1, 43, 0
1, 29380, Note_on_c, 0, 57, 0
1, 29404, Note_on_c, 0, 84, 64
1, 29408, Note_on_c, 0, 60, 48
1, 29408, Control_c, 1, 64, 127
1, 29428, Note_on_c, 0, 77, 35
1, 29432, Note_on_c, 0, 81, 25
1, 29436, Note_on_c, 0, 60, 0
1, 29452, Note_on_c, 0, 81, 0
1, 29452, Note_on_c, 0, 77, 0
1, 29472, Note_on_c, 0, 84, 0
1, 29544, Note_on_c, 0, 64, 54
1, 29552, Note_on_c, 1, 53, 0
1, 29552, Note_on_c, 0, 88, 56
1, 29552, Note_on_c, 1, 43, 58
1, 29556, Note_on_c, 0, 76, 39
1, 29556, Note_on_c, 0, 81, 39
1, 29560, Note_on_c, 0, 84, 43
1, 29568, Note_on_c, 1, 69, 0
1, 29580, Note_on_c, 0, 76, 0
1, 29584, Note_on_c, 0, 81, 0
1, 29588, Note_on_c, 0, 84, 0
1, 29608, Note_on_c, 0, 88, 0
1, 29616, Note_on_c, 0, 64, 0
1, 29624, Note_on_c, 1, 65, 0
1, 29632, Note_on_c, 1, 60, 0
1, 29804, Note_on_c, 0, 91, 78
1, 29804, Note_on_c, 0, 65, 54
1, 29804, Note_on_c, 0, 79, 68
1, 29808, Note_on_c, 0, 84, 66
1, 29808, Note_on_c, 0, 88, 60
1, 29852, Note_on_c, 0, 79, 0
1, 29856, Note_on_c, 0, 65, 0
1, 29864, Note_on_c, 0, 84, 0
1, 29864, Note_on_c, 0, 88, 0
1, 29872, Note_on_c, 0, 91, 0
1, 29928, Control_c, 1, 64, 0
1, 29952, Note_on_c, 1, 64, 63
1, 29960, Note_on_c, 1, 59, 51
1, 29960, Note_on_c, 1, 67, 52
1, 29972, Note_on_c, 1, 55, 48
1, 30036, Control_c, 1, 64, 127
1, 30132, Note_on_c, 1, 43, 0
1, 30240, Note_on_c, 1, 59, 0
1, 30288, Note_on_c, 1, 64, 0
1, 30296, Note_on_c, 1, 67, 0
1, 30304, Note_on_c, 1, 55, 0
1, 30316, Note_on_c, 1, 43, 46
1, 30372, Note_on_c, 0, 59, 40
1, 30408, Note_on_c, 0, 59, 0
1, 30448, Control_c, 0, 64, 127
1, 30492, Control_c, 0, 64, 0
1, 30564, Control_c, 0, 64, 127
1, 30596, Note_on_c, 0, 95, 102
1, 30600, Note_on_c, 0, 64, 73
1, 30600, Note_on_c, 0, 83, 86
1, 30600, Note_on_c, 0, 59, 66
1, 30600, Note_on_c, 0, 88, 84
1, 30604, Note_on_c, 0, 53, 66
1, 30608, Note_on_c, 0, 91, 67
1, 30624, Note_on_c, 0, 91, 0
1, 30628, Note_on_c, 0, 53, 0
1, 30640, Note_on_c, 0, 64, 0
1, 30648, Note_on_c, 0, 59, 0
1, 30660, Note_on_c, 0, 83, 0
1, 30660, Note_on_c, 0, 95, 0
1, 30664, Note_on_c, 0, 88, 0
1, 30676, Control_c, 1, 64, 0
1, 30680, Note_on_c, 1, 52, 46
1, 30684, Control_c, 0, 64, 0
1, 30688, Note_on_c, 1, 57, 48
1, 30688, Note_on_c, 1, 59, 47
1, 30692, Note_on_c, 1, 67, 47
1, 30696, Note_on_c, 1, 62, 50
1, 30740, Note_on_c, 0, 91, 77
1, 30740, Note_on_c, 0, 59, 57
1, 30740, Note_on_c, 0, 62, 66
1, 30748, Note_on_c, 0, 79, 72
1, 30748, Note_on_c, 0, 52, 55
1, 30752, Note_on_c, 0, 86, 67
1, 30756, Note_on_c, 0, 55, 63
1, 30796, Note_on_c, 0, 79, 0
1, 30796, Note_on_c, 0, 62, 0
1, 30800, Note_on_c, 1, 43, 0
1, 30804, Control_c, 0, 64, 127
1, 30808, Note_on_c, 0, 86, 0
1, 30816, Note_on_c, 0, 52, 0
1, 30816, Control_c, 1, 64, 127
1, 30824, Note_on_c, 0, 59, 0
1, 30824, Note_on_c, 0, 91, 0
1, 30832, Note_on_c, 0, 55, 0
1, 30872, Note_on_c, 0, 91, 65
1, 30880, Note_on_c, 1, 59, 0
1, 30880, Note_on_c, 1, 57, 0
1, 30880, Note_on_c, 0, 62, 49
1, 30880, Note_on_c, 0, 79, 57
1, 30884, Note_on_c, 0, 59, 36
1, 30888, Note_on_c, 0, 55, 53
1, 30888, Note_on_c, 0, 86, 56
1, 30892, Note_on_c, 1, 67, 0
1, 30908, Note_on_c, 0, 86, 0
1, 30920, Note_on_c, 0, 91, 0
1, 30924, Note_on_c, 0, 79, 0
1, 30928, Note_on_c, 0, 62, 0
1, 30928, Note_on_c, 1, 62, 0
1, 30928, Note_on_c, 0, 59, 0
1, 30936, Control_c, 0, 64, 0
1, 30940, Note_on_c, 0, 55, 0
1, 31008, Note_on_c, 0, 88, 75
1, 31020, Note_on_c, 0, 62, 55
1, 31020, Note_on_c, 0, 83, 56
1, 31020, Note_on_c, 0, 59, 43
1, 31020, Note_on_c, 0, 55, 52
1, 31020, Note_on_c, 0, 76, 45
1, 31032, Note_on_c, 0, 85, 30
1, 31032, Note_on_c, 0, 52, 41
1, 31068, Note_on_c, 0, 85, 0
1, 31076, Control_c, 1, 64, 0
1, 31080, Note_on_c, 0, 76, 0
1, 31080, Note_on_c, 0, 62, 0
1, 31080, Note_on_c, 1, 66, 48
1, 31084, Note_on_c, 0, 83, 0
1, 31084, Note_on_c, 1, 52, 0
1, 31084, Note_on_c, 1, 56, 48
1, 31084, Note_on_c, 1, 61, 52
1, 31092, Note_on_c, 0, 88, 0
1, 31092, Control_c, 0, 64, 127
1, 31092, Note_on_c, 1, 51, 41
1, 31096, Note_on_c, 0, 52, 0
1, 31108, Note_on_c, 0, 59, 0
1, 31108, Note_on_c, 0, 55, 0
1, 31148, Note_on_c, 0, 88, 50
1, 31156, Note_on_c, 0, 76, 49
1, 31156, Note_on_c, 0, 59, 31
1, 31156, Note_on_c, 0, 83, 50
1, 31156, Note_on_c, 0, 62, 32
1, 31164, Note_on_c, 0, 55, 40
1, 31172, Note_on_c, 0, 88, 0
1, 31180, Note_on_c, 0, 83, 0
1, 31180, Control_c, 1, 64, 127
1, 31192, Note_on_c, 0, 62, 0
1, 31200, Note_on_c, 0, 55, 0
1, 31200, Note_on_c, 0, 76, 0
1, 31204, Note_on_c, 0, 59, 0
1, 31240, Control_c, 0, 64, 0
1, 31260, Control_c, 0, 64, 127
1, 31264, Note_on_c, 0, 84, 62
1, 31268, Note_on_c, 0, 79, 60
1, 31280, Note_on_c, 0, 72, 39
1, 31280, Note_on_c, 0, 59, 36
1, 31280, Note_on_c, 0, 55, 38
1, 31280, Note_on_c, 0, 62, 44
1, 31308, Note_on_c, 1, 56, 0
1, 31316, Note_on_c, 0, 62, 0
1, 31316, Note_on_c, 0, 72, 0
1, 31328, Note_on_c, 0, 59, 0
1, 31328, Note_on_c, 0, 79, 0
1, 31332, Note_on_c, 0, 84, 0
1, 31336, Note_on_c, 0, 55, 0
1, 31352, Note_on_c, 1, 66, 0
1, 31384, Note_on_c, 1, 61, 0
1, 31400, Note_on_c, 0, 84, 49
1, 31400, Note_on_c, 0, 72, 59
1, 31412, Note_on_c, 0, 79, 59
1, 31412, Note_on_c, 0, 59, 43
1, 31412, Note_on_c, 0, 55, 43
1, 31412, Note_on_c, 0, 62, 42
1, 31428, Note_on_c, 0, 79, 0
1, 31440, Note_on_c, 0, 84, 0
1, 31440, Control_c, 0, 64, 0
1, 31444, Note_on_c, 0, 62, 0
1, 31448, Note_on_c, 0, 59, 0
1, 31448, Note_on_c, 0, 72, 0
1, 31452, Control_c, 1, 64, 0
1, 31460, Note_on_c, 0, 55, 0
1, 31472, Note_on_c, 1, 57, 48
1, 31476, Note_on_c, 1, 51, 0
1, 31480, Note_on_c, 1, 67, 48
1, 31484, Note_on_c, 1, 52, 43
1, 31488, Note_on_c, 1, 62, 46
1, 31528, Note_on_c, 0, 81, 55
1, 31532, Note_on_c, 0, 76, 57
1, 31532, Control_c, 1, 64, 127
1, 31552, Note_on_c, 0, 55, 26
1, 31576, Note_on_c, 0, 76, 0
1, 31588, Note_on_c, 0, 81, 0
1, 31592, Note_on_c, 0, 55, 0
1, 31632, Note_on_c, 1, 67, 0
1, 31660, Note_on_c, 1, 57, 0
1, 31668, Note_on_c, 1, 62, 0
1, 31668, Control_c, 0, 64, 127
1, 31828, Note_on_c, 1, 52, 0
1, 31836, Control_c, 1, 64, 0
1, 31848, Note_on_c, 1, 56, 54
1, 31848, Note_on_c, 1, 66, 56
1, 31852, Note_on_c, 1, 61, 60
1, 31868, Note_on_c, 1, 46, 40
1, 31892, Note_on_c, 0, 62, 35
1, 31892, Note_on_c, 0, 79, 49
1, 31896, Note_on_c, 0, 74, 56
1, 31904, Note_on_c, 0, 67, 29
1, 31912, Note_on_c, 0, 55, 31
1, 31920, Control_c, 1, 64, 127
1, 31932, Note_on_c, 0, 59, 23
1, 31956, Note_on_c, 0, 55, 0
1, 31972, Note_on_c, 0, 59, 0
1, 31976, Note_on_c, 0, 62, 0
1, 31984, Note_on_c, 0, 67, 0
1, 32012, Note_on_c, 0, 79, 0
1, 32012, Note_on_c, 0, 74, 0
1, 32092, Note_on_c, 1, 66, 0
1, 32148, Note_on_c, 1, 56, 0
1, 32160, Note_on_c, 1, 42, 41
1, 32184, Control_c, 0, 64, 0
1, 32184, Control_c, 1, 64, 0
1, 32188, Note_on_c, 1, 61, 0
1, 32192, Note_on_c, 1, 46, 0
1, 32232, Note_on_c, 1, 42, 0
1, 32236, Note_on_c, 0, 65, 52
1, 32240, Control_c, 0, 64, 127
1, 32240, Note_on_c, 1, 57, 57
1, 32244, Note_on_c, 0, 77, 61
1, 32244, Note_on_c, 0, 69, 58
1, 32248, Note_on_c, 0, 62, 54
1, 32248, Note_on_c, 1, 62, 48
1, 32248, Note_on_c, 1, 65, 49
1, 32252, Note_on_c, 0, 74, 57
1, 32256, Note_on_c, 1, 47, 43
1, 32268, Note_on_c, 0, 65, 0
1, 32268, Note_on_c, 0, 57, 23
1, 32280, Control_c, 1, 64, 40
1, 32280, Control_c, 1, 64, 127
1, 32292, Note_on_c, 0, 62, 0
1, 32296, Note_on_c, 0, 77, 0
1, 32300, Note_on_c, 0, 57, 0
1, 32300, Note_on_c, 0, 69, 0
1, 32304, Note_on_c, 0, 74, 0
1, 32480, Note_on_c, 0, 57, 54
1, 32484, Note_on_c, 1, 57, 0
1, 32504, Note_on_c, 0, 57, 0
1, 32508, Note_on_c, 0, 53, 46
1, 32524, Note_on_c, 1, 62, 0
1, 32524, Note_on_c, 0, 59, 38
1, 32536, Note_on_c, 0, 53, 0
1, 32552, Note_on_c, 1, 65, 0
1, 32556, Control_c, 0, 64, 0
1, 32556, Note_on_c, 0, 55, 59
1, 32564, Note_on_c, 0, 59, 0
1, 32572, Note_on_c, 0, 60, 43
1, 32588, Note_on_c, 0, 55, 0
1, 32608, Note_on_c, 0, 57, 61
1, 32612, Control_c, 1, 64, 0
1, 32616, Note_on_c, 0, 62, 46
1, 32620, Note_on_c, 1, 47, 0
1, 32624, Note_on_c, 0, 60, 0
1, 32628, Note_on_c, 1, 56, 55
1, 32632, Note_on_c, 1, 62, 57
1, 32636, Note_on_c, 0, 57, 0
1, 32636, Note_on_c, 1, 41, 47
1, 32648, Note_on_c, 0, 59, 60
1, 32656, Note_on_c, 0, 64, 47
1, 32672, Note_on_c, 0, 62, 0
1, 32680, Note_on_c, 0, 59, 0
1, 32680, Note_on_c, 1, 65, 14
1, 32684, Note_on_c, 0, 60, 56
1, 32692, Control_c, 1, 64, 127
1, 32700, Note_on_c, 0, 65, 57
1, 32720, Note_on_c, 0, 60, 0
1, 32720, Note_on_c, 0, 64, 0
1, 32728, Note_on_c, 0, 62, 60
1, 32744, Note_on_c, 0, 67, 56
1, 32760, Note_on_c, 0, 65, 0
1, 32768, Note_on_c, 0, 62, 0
1, 32776, Note_on_c, 0, 64, 63
1, 32796, Note_on_c, 0, 69, 48
1, 32812, Note_on_c, 1, 65, 0
1, 32812, Note_on_c, 0, 67, 0
1, 32820, Note_on_c, 0, 64, 0
1, 32820, Note_on_c, 0, 65, 57
1, 32840, Note_on_c, 1, 56, 0
1, 32844, Note_on_c, 1, 62, 0
1, 32848, Note_on_c, 0, 71, 40
1, 32864, Note_on_c, 0, 69, 0
1, 32868, Note_on_c, 0, 65, 0
1, 32876, Note_on_c, 0, 67, 49
1, 32900, Note_on_c, 0, 72, 40
1, 32920, Note_on_c, 0, 71, 0
1, 32924, Note_on_c, 0, 67, 0
1, 32932, Note_on_c, 0, 69, 49
1, 32956, Note_on_c, 0, 74, 47
1, 32960, Control_c, 1, 64, 0
1, 32972, Note_on_c, 0, 69, 0
1, 32972, Note_on_c, 0, 72, 0
1, 32980, Note_on_c, 0, 71, 46
1, 33004, Note_on_c, 0, 76, 45
1, 33012, Note_on_c, 1, 67, 61
1, 33016, Note_on_c, 1, 41, 0
1, 33016, Note_on_c, 1, 56, 52
1, 33020, Note_on_c, 1, 62, 56
1, 33024, Note_on_c, 0, 74, 0
1, 33028, Note_on_c, 0, 71, 0
1, 33032, Note_on_c, 0, 72, 48
1, 33032, Note_on_c, 1, 40, 43
1, 33056, Note_on_c, 0, 77, 47
1, 33056, Control_c, 1, 64, 127
1, 33076, Note_on_c, 0, 76, 0
1, 33080, Note_on_c, 0, 72, 0
1, 33088, Note_on_c, 0, 74, 48
1, 33116, Note_on_c, 0, 79, 41
1, 33124, Note_on_c, 0, 77, 0
1, 33136, Note_on_c, 0, 74, 0
1, 33148, Note_on_c, 0, 76, 45
1, 33172, Note_on_c, 0, 81, 43
1, 33180, Note_on_c, 0, 79, 0
1, 33192, Note_on_c, 0, 76, 0
1, 33208, Note_on_c, 0, 77, 43
1, 33228, Note_on_c, 0, 81, 0
1, 33228, Note_on_c, 0, 83, 46
1, 33232, Note_on_c, 1, 67, 0
1, 33236, Note_on_c, 1, 56, 0
1, 33236, Note_on_c, 1, 62, 0
1, 33248, Note_on_c, 0, 77, 0
1, 33272, Note_on_c, 0, 79, 40
1, 33280, Note_on_c, 0, 83, 0
1, 33292, Note_on_c, 0, 84, 51
1, 33312, Note_on_c, 0, 79, 0
1, 33320, Control_c, 0, 64, 127
1, 33336, Note_on_c, 0, 81, 48
1, 33340, Note_on_c, 0, 84, 0
1, 33356, Control_c, 1, 64, 0
1, 33360, Note_on_c, 0, 86, 57
1, 33380, Note_on_c, 0, 81, 0
1, 33384, Note_on_c, 1, 40, 0
1, 33388, Note_on_c, 1, 56, 66
1, 33388, Note_on_c, 1, 65, 57
1, 33388, Note_on_c, 1, 46, 56
1, 33388, Note_on_c, 1, 62, 62
1, 33404, Note_on_c, 0, 86, 0
1, 33408, Control_c, 0, 64, 0
1, 33428, Control_c, 1, 64, 127
1, 33432, Note_on_c, 0, 62, 47
1, 33432, Note_on_c, 0, 56, 54
1, 33432, Note_on_c, 0, 88, 33
1, 33432, Note_on_c, 0, 67, 52
1, 33476, Note_on_c, 0, 84, 31
1, 33528, Note_on_c, 0, 84, 0
1, 33532, Control_c, 0, 64, 127
1, 33536, Note_on_c, 1, 62, 0
1, 33544, Note_on_c, 1, 56, 0
1, 33568, Note_on_c, 1, 65, 0
1, 33608, Note_on_c, 0, 67, 0
1, 33608, Note_on_c, 0, 62, 0
1, 33648, Note_on_c, 1, 46, 0
1, 33648, Note_on_c, 0, 88, 0
1, 33740, Control_c, 1, 64, 0
1, 33776, Note_on_c, 1, 64, 68
1, 33780, Note_on_c, 0, 56, 0
1, 33780, Note_on_c, 1, 55, 68
1, 33780, Note_on_c, 1, 45, 56
1, 33780, Note_on_c, 1, 60, 66
1, 33792, Control_c, 1, 64, 127
1, 33796, Control_c, 0, 64, 24
1, 33800, Control_c, 0, 64, 0
1, 33832, Note_on_c, 0, 64, 35
1, 33832, Note_on_c, 0, 86, 52
1, 33836, Note_on_c, 0, 57, 50
1, 33848, Note_on_c, 0, 60, 39
1, 33920, Note_on_c, 0, 86, 0
1, 33932, Note_on_c, 0, 60, 0
1, 33932, Note_on_c, 0, 88, 56
1, 33944, Note_on_c, 1, 64, 0
1, 33956, Note_on_c, 0, 64, 0
1, 33980, Note_on_c, 0, 86, 52
1, 33988, Note_on_c, 0, 88, 0
1, 33992, Note_on_c, 1, 45, 0
1, 34000, Note_on_c, 1, 55, 0
1, 34004, Note_on_c, 1, 60, 0
1, 34048, Note_on_c, 0, 86, 0
1, 34048, Note_on_c, 0, 84, 56
1, 34080, Note_on_c, 0, 60, 11
1, 34108, Note_on_c, 0, 84, 0
1, 34108, Control_c, 0, 64, 127
1, 34124, Note_on_c, 0, 57, 0
1, 34124, Note_on_c, 0, 83, 56
1, 34148, Control_c, 0, 64, 0
1, 34172, Note_on_c, 0, 83, 0
1, 34172, Note_on_c, 1, 63, 72
1, 34172, Note_on_c, 1, 44, 68
1, 34172, Control_c, 1, 64, 0
1, 34176, Note_on_c, 1, 59, 75
1, 34176, Note_on_c, 1, 32, 58
1, 34176, Note_on_c, 1, 54, 75
1, 34204, Note_on_c, 0, 84, 70
1, 34204, Note_on_c, 0, 56, 40
1, 34208, Note_on_c, 0, 64, 34
1, 34256, Control_c, 1, 64, 127
1, 34364, Note_on_c, 1, 54, 0
1, 34364, Control_c, 0, 64, 127
1, 34368, Note_on_c, 1, 59, 0
1, 34404, Note_on_c, 0, 64, 0
1, 34412, Note_on_c, 1, 32, 0
1, 34416, Note_on_c, 1, 63, 0
1, 34420, Note_on_c, 1, 44, 0
1, 34424, Note_on_c, 0, 60, 0
1, 34440, Note_on_c, 0, 84, 0
1, 34456, Control_c, 0, 64, 0
1, 34460, Note_on_c, 0, 56, 0
1, 34520, Control_c, 1, 64, 0
1, 34548, Note_on_c, 0, 64, 41
1, 34552, Note_on_c, 0, 55, 46
1, 34552, Note_on_c, 0, 60, 48
1, 34556, Note_on_c, 1, 58, 64
1, 34556, Note_on_c, 1, 53, 68
1, 34556, Note_on_c, 1, 43, 61
1, 34556, Note_on_c, 1, 62, 63
1, 34572, Control_c, 0, 64, 127
1, 34652, Control_c, 1, 64, 127
1, 34744, Note_on_c, 1, 53, 0
1, 34764, Note_on_c, 0, 64, 0
1, 34768, Note_on_c, 0, 55, 0
1, 34804, Note_on_c, 1, 58, 0
1, 34836, Note_on_c, 1, 62, 0
1, 34844, Note_on_c, 0, 60, 0
1, 34892, Control_c, 0, 64, 0
1, 34912, Control_c, 1, 64, 0
1, 34916, Note_on_c, 1, 43, 0
1, 34932, Note_on_c, 1, 42, 45
1, 34932, Note_on_c, 1, 52, 57
1, 34936, Note_on_c, 1, 62, 49
1, 34936, Control_c, 1, 64, 127
1, 34944, Note_on_c, 1, 58, 54
1, 34960, Note_on_c, 0, 60, 21
1, 34964, Note_on_c, 0, 64, 41
1, 34968, Note_on_c, 0, 54, 43
1, 34996, Control_c, 0, 64, 127
1, 35024, Note_on_c, 1, 42, 0
1, 35032, Note_on_c, 1, 52, 0
1, 35052, Note_on_c, 1, 62, 0
1, 35056, Note_on_c, 0, 64, 0
1, 35128, Note_on_c, 1, 58, 0
1, 35140, Note_on_c, 0, 60, 0
1, 35144, Note_on_c, 0, 54, 0
1, 35248, Control_c, 1, 64, 0
1, 35300, Note_on_c, 1, 54, 50
1, 35312, Note_on_c, 1, 57, 52
1, 35316, Note_on_c, 1, 48, 42
1, 35320, Note_on_c, 1, 38, 44
1, 35328, Control_c, 1, 64, 127
1, 35352, Control_c, 0, 64, 0
1, 35368, Note_on_c, 0, 62, 32
1, 35368, Note_on_c, 0, 54, 39
1, 35368, Note_on_c, 0, 60, 39
1, 35372, Note_on_c, 1, 54, 0
1, 35376, Note_on_c, 1, 38, 0
1, 35376, Note_on_c, 1, 57, 0
1, 35392, Note_on_c, 1, 48, 0
1, 35400, Note_on_c, 0, 60, 0
1, 35400, Note_on_c, 0, 62, 0
1, 35444, Note_on_c, 0, 54, 0
1, 35480, Note_on_c, 0, 60, 49
1, 35532, Note_on_c, 0, 60, 0
1, 35564, Note_on_c, 0, 61, 48
1, 35584, Note_on_c, 0, 61, 0
1, 35608, Note_on_c, 0, 62, 64
1, 35656, Note_on_c, 0, 62, 0
1, 35672, Note_on_c, 0, 63, 63
1, 35692, Note_on_c, 0, 63, 0
1, 35704, Note_on_c, 1, 76, 71
1, 35704, Note_on_c, 1, 66, 60
1, 35708, Note_on_c, 1, 69, 63
1, 35708, Note_on_c, 1, 64, 45
1, 35716, Note_on_c, 1, 54, 39
1, 35724, Note_on_c, 1, 60, 39
1, 35732, Note_on_c, 0, 64, 66
1, 35736, Note_on_c, 1, 64, 0
1, 35740, Note_on_c, 0, 60, 38
1, 35748, Note_on_c, 0, 62, 39
1, 35752, Note_on_c, 1, 60, 0
1, 35764, Note_on_c, 0, 54, 23
1, 35776, Note_on_c, 1, 54, 0
1, 35784, Note_on_c, 0, 64, 0
1, 35788, Note_on_c, 0, 66, 59
1, 35792, Note_on_c, 0, 62, 0
1, 35796, Note_on_c, 1, 76, 0
1, 35824, Note_on_c, 1, 69, 0
1, 35832, Note_on_c, 0, 54, 0
1, 35832, Note_on_c, 1, 66, 0
1, 35836, Note_on_c, 0, 60, 0
1, 35840, Note_on_c, 0, 68, 59
1, 35860, Note_on_c, 0, 66, 0
1, 35892, Note_on_c, 0, 70, 57
1, 35908, Note_on_c, 0, 70, 0
1, 35908, Note_on_c, 0, 68, 0
1, 35944, Note_on_c, 0, 72, 66
1, 35992, Note_on_c, 0, 72, 0
1, 36016, Note_on_c, 0, 73, 61
1, 36036, Note_on_c, 0, 73, 0
1, 36076, Note_on_c, 0, 74, 61
1, 36084, Note_on_c, 1, 72, 62
1, 36092, Note_on_c, 1, 66, 57
1, 36096, Note_on_c, 1, 54, 39
1, 36100, Note_on_c, 1, 45, 42
1, 36104, Note_on_c, 0, 74, 0
1, 36128, Note_on_c, 0, 75, 61
1, 36136, Note_on_c, 0, 60, 32
1, 36136, Note_on_c, 0, 62, 29
1, 36144, Note_on_c, 1, 45, 0
1, 36144, Note_on_c, 0, 54, 35
1, 36148, Note_on_c, 0, 75, 0
1, 36176, Note_on_c, 1, 72, 0
1, 36184, Note_on_c, 1, 54, 0
1, 36192, Note_on_c, 0, 76, 58
1, 36200, Note_on_c, 0, 60, 0
1, 36220, Note_on_c, 1, 66, 0
1, 36228, Note_on_c, 0, 62, 0
1, 36232, Note_on_c, 0, 54, 0
1, 36240, Note_on_c, 0, 76, 0
1, 36248, Note_on_c, 0, 78, 65
1, 36308, Note_on_c, 0, 78, 0
1, 36332, Note_on_c, 0, 82, 26
1, 36372, Note_on_c, 0, 82, 0
1, 36412, Note_on_c, 0, 84, 56
1, 36464, Note_on_c, 0, 84, 0
1, 36464, Note_on_c, 1, 60, 50
1, 36464, Note_on_c, 1, 54, 39
1, 36468, Note_on_c, 1, 69, 49
1, 36468, Note_on_c, 1, 63, 48
1, 36480, Note_on_c, 0, 85, 67
1, 36480, Note_on_c, 0, 62, 34
1, 36480, Note_on_c, 0, 54, 40
1, 36484, Note_on_c, 0, 60, 42
1, 36484, Note_on_c, 1, 66, 38
1, 36500, Note_on_c, 0, 85, 0
1, 36532, Note_on_c, 1, 69, 0
1, 36536, Note_on_c, 1, 54, 0
1, 36552, Note_on_c, 0, 86, 67
1, 36556, Note_on_c, 1, 66, 0
1, 36568, Note_on_c, 1, 60, 0
1, 36572, Note_on_c, 1, 63, 0
1, 36584, Note_on_c, 0, 86, 0
1, 36624, Note_on_c, 0, 87, 61
1, 36652, Note_on_c, 0, 60, 0
1, 36668, Note_on_c, 0, 62, 0
1, 36668, Note_on_c, 0, 54, 0
1, 36688, Note_on_c, 0, 87, 0
1, 36700, Note_on_c, 0, 88, 35
1, 36728, Note_on_c, 0, 88, 0
1, 36820, Control_c, 1, 64, 0
1, 36848, Note_on_c, 1, 67, 52
1, 36852, Note_on_c, 0, 96, 75
1, 36852, Note_on_c, 1, 55, 47
1, 36852, Note_on_c, 1, 65, 48
1, 36852, Note_on_c, 1, 57, 41
1, 36860, Note_on_c, 1, 60, 47
1, 36876, Note_on_c, 1, 55, 0
1, 36880, Note_on_c, 0, 64, 44
1, 36888, Note_on_c, 0, 60, 31
1, 36896, Note_on_c, 0, 96, 0
1, 36900, Note_on_c, 0, 53, 35
1, 36904, Note_on_c, 0, 57, 47
1, 36932, Control_c, 0, 64, 127
1, 36944, Control_c, 1, 64, 127
1, 36992, Note_on_c, 0, 64, 0
1, 37036, Note_on_c, 0, 60, 0
1, 37076, Note_on_c, 0, 57, 0
1, 37108, Note_on_c, 0, 60, 42
1, 37112, Note_on_c, 1, 43, 61
1, 37116, Control_c, 1, 64, 0
1, 37124, Note_on_c, 1, 31, 56
1, 37128, Note_on_c, 0, 62, 39
1, 37132, Note_on_c, 0, 60, 0
1, 37168, Note_on_c, 0, 62, 0
1, 37176, Note_on_c, 0, 64, 57
1, 37212, Control_c, 0, 64, 0
1, 37216, Note_on_c, 0, 65, 46
1, 37224, Note_on_c, 0, 64, 0
1, 37256, Note_on_c, 0, 65, 0
1, 37260, Note_on_c, 0, 67, 54
1, 37288, Note_on_c, 0, 53, 0
1, 37300, Note_on_c, 0, 67, 0
1, 37300, Note_on_c, 0, 69, 55
1, 37320, Control_c, 1, 64, 127
1, 37340, Note_on_c, 0, 69, 0
1, 37348, Note_on_c, 0, 71, 45
1, 37372, Note_on_c, 0, 71, 0
1, 37388, Note_on_c, 0, 72, 40
1, 37412, Note_on_c, 0, 72, 0
1, 37428, Note_on_c, 0, 74, 48
1, 37448, Note_on_c, 0, 74, 0
1, 37468, Note_on_c, 0, 76, 45
1, 37488, Note_on_c, 0, 76, 0
1, 37496, Note_on_c, 1, 60, 0
1, 37504, Note_on_c, 0, 77, 54
1, 37520, Note_on_c, 0, 77, 0
1, 37544, Note_on_c, 0, 79, 47
1, 37564, Note_on_c, 0, 79, 0
1, 37572, Note_on_c, 1, 31, 0
1, 37572, Note_on_c, 0, 81, 54
1, 37592, Note_on_c, 0, 81, 0
1, 37616, Note_on_c, 1, 57, 0
1, 37616, Note_on_c, 0, 83, 46
1, 37620, Note_on_c, 1, 43, 0
1, 37632, Note_on_c, 0, 83, 0
1, 37644, Note_on_c, 0, 84, 49
1, 37648, Note_on_c, 1, 67, 0
1, 37656, Note_on_c, 1, 65, 0
1, 37672, Note_on_c, 0, 84, 0
1, 37684, Note_on_c, 0, 86, 52
1, 37712, Note_on_c, 0, 86, 0
1, 37728, Note_on_c, 0, 88, 45
1, 37752, Note_on_c, 0, 88, 0
1, 37772, Note_on_c, 0, 89, 48
1, 37784, Control_c, 0, 64, 127
1, 37792, Note_on_c, 0, 89, 0
1, 37816, Note_on_c, 0, 91, 49
1, 37840, Note_on_c, 0, 91, 0
1, 37860, Note_on_c, 0, 93, 52
1, 37904, Note_on_c, 0, 95, 47
1, 37916, Note_on_c, 0, 93, 0
1, 37968, Note_on_c, 0, 96, 39
1, 37972, Note_on_c, 0, 95, 0
1, 37980, Control_c, 0, 64, 0
1, 37996, Note_on_c, 0, 96, 0
1, 38012, Note_on_c, 1, 55, 54
1, 38012, Note_on_c, 1, 49, 57
1, 38016, Note_on_c, 0, 61, 47
1, 38016, Note_on_c, 1, 58, 56
1, 38016, Note_on_c, 1, 64, 48
1, 38016, Control_c, 1, 64, 0
1, 38024, Note_on_c, 0, 97, 70
1, 38024, Note_on_c, 0, 65, 39
1, 38024, Note_on_c, 1, 61, 42
1, 38028, Note_on_c, 0, 58, 44
1, 38044, Control_c, 1, 64, 127
1, 38068, Note_on_c, 0, 55, 25
1, 38072, Note_on_c, 1, 55, 0
1, 38092, Note_on_c, 0, 65, 0
1, 38104, Note_on_c, 1, 64, 0
1, 38112, Note_on_c, 1, 49, 0
1, 38116, Note_on_c, 0, 55, 0
1, 38116, Control_c, 0, 64, 127
1, 38140, Note_on_c, 1, 58, 0
1, 38144, Note_on_c, 0, 58, 0
1, 38144, Note_on_c, 1, 61, 0
1, 38172, Note_on_c, 0, 61, 0
1, 38360, Control_c, 0, 64, 0
1, 38372, Note_on_c, 0, 97, 0
1, 38380, Control_c, 1, 64, 0
1, 38392, Note_on_c, 1, 50, 69
1, 38420, Note_on_c, 1, 72, 73
1, 38424, Note_on_c, 0, 64, 27
1, 38428, Note_on_c, 0, 60, 39
1, 38428, Note_on_c, 0, 57, 37
1, 38432, Note_on_c, 0, 98, 56
1, 38444, Note_on_c, 0, 53, 31
1, 38460, Control_c, 1, 64, 127
1, 38628, Note_on_c, 0, 98, 0
1, 38628, Control_c, 0, 64, 127
1, 38792, Note_on_c, 1, 60, 32
1, 38796, Note_on_c, 1, 65, 54
1, 38804, Note_on_c, 1, 72, 0
1, 38804, Note_on_c, 1, 62, 33
1, 38812, Note_on_c, 1, 57, 29
1, 38820, Note_on_c, 0, 64, 0
1, 38824, Note_on_c, 0, 53, 0
1, 38832, Note_on_c, 0, 57, 0
1, 38832, Note_on_c, 0, 60, 0
1, 38860, Note_on_c, 1, 60, 0
1, 38892, Note_on_c, 1, 57, 0
1, 38940, Note_on_c, 1, 50, 0
1, 39016, Note_on_c, 1, 62, 0
1, 39148, Control_c, 0, 64, 0
1, 39156, Note_on_c, 1, 65, 0
1, 39156, Control_c, 1, 64, 0
1, 39164, Note_on_c, 1, 73, 77
1, 39168, Note_on_c, 1, 43, 62
1, 39196, Note_on_c, 0, 84, 99
1, 39200, Note_on_c, 0, 74, 84
1, 39204, Note_on_c, 0, 81, 79
1, 39204, Note_on_c, 0, 77, 81
1, 39204, Note_on_c, 0, 69, 67
1, 39208, Note_on_c, 0, 76, 76
1, 39224, Note_on_c, 0, 77, 0
1, 39224, Note_on_c, 0, 81, 0
1, 39228, Note_on_c, 0, 76, 0
1, 39236, Note_on_c, 0, 74, 0
1, 39240, Note_on_c, 0, 69, 0
1, 39260, Note_on_c, 0, 84, 0
1, 39284, Control_c, 1, 64, 127
1, 39388, Note_on_c, 1, 43, 0
1, 39452, Note_on_c, 0, 81, 74
1, 39452, Note_on_c, 0, 65, 59
1, 39460, Note_on_c, 0, 72, 54
1, 39460, Note_on_c, 0, 74, 56
1, 39468, Note_on_c, 0, 77, 55
1, 39492, Note_on_c, 0, 77, 0
1, 39520, Note_on_c, 0, 72, 0
1, 39528, Note_on_c, 0, 81, 0
1, 39532, Note_on_c, 0, 74, 0
1, 39540, Note_on_c, 1, 73, 0
1, 39560, Note_on_c, 1, 65, 39
1, 39572, Note_on_c, 0, 65, 0
1, 39572, Note_on_c, 1, 71, 52
1, 39580, Note_on_c, 1, 61, 31
1, 39600, Note_on_c, 0, 64, 39
1, 39600, Note_on_c, 0, 79, 49
1, 39616, Note_on_c, 1, 61, 0
1, 39620, Note_on_c, 0, 72, 23
1, 39696, Note_on_c, 0, 72, 0
1, 39732, Note_on_c, 0, 64, 0
1, 39752, Note_on_c, 0, 79, 0
1, 39800, Note_on_c, 0, 64, 49
1, 39804, Note_on_c, 0, 77, 62
1, 39820, Note_on_c, 1, 71, 0
1, 39836, Note_on_c, 0, 77, 0
1, 39868, Note_on_c, 0, 64, 0
1, 39912, Note_on_c, 1, 65, 0
1, 39940, Note_on_c, 0, 67, 56
1, 39940, Note_on_c, 1, 74, 78
1, 39944, Note_on_c, 0, 74, 50
1, 39952, Note_on_c, 0, 83, 47
1, 39952, Note_on_c, 0, 79, 41
1, 39952, Note_on_c, 0, 76, 47
1, 39952, Control_c, 1, 64, 0
1, 39960, Note_on_c, 1, 52, 45
1, 40000, Note_on_c, 0, 74, 0
1, 40008, Note_on_c, 0, 79, 0
1, 40012, Note_on_c, 0, 67, 0
1, 40012, Note_on_c, 0, 76, 0
1, 40020, Note_on_c, 0, 83, 0
1, 40060, Control_c, 1, 64, 127
1, 40288, Note_on_c, 1, 74, 0
1, 40296, Note_on_c, 1, 62, 39
1, 40304, Note_on_c, 1, 67, 48
1, 40308, Note_on_c, 1, 64, 40
1, 40312, Note_on_c, 1, 59, 37
1, 40340, Note_on_c, 0, 74, 52
1, 40340, Note_on_c, 0, 64, 43
1, 40340, Note_on_c, 0, 79, 51
1, 40344, Note_on_c, 1, 59, 0
1, 40344, Note_on_c, 0, 71, 39
1, 40348, Note_on_c, 1, 62, 0
1, 40404, Note_on_c, 1, 52, 0
1, 40420, Note_on_c, 1, 64, 0
1, 40448, Note_on_c, 1, 67, 0
1, 40524, Note_on_c, 0, 79, 0
1, 40540, Note_on_c, 0, 74, 0
1, 40548, Note_on_c, 0, 71, 0
1, 40548, Note_on_c, 1, 45, 80
1, 40568, Note_on_c, 0, 64, 0
1, 40612, Note_on_c, 1, 45, 0
1, 40680, Control_c, 1, 64, 88
1, 40684, Control_c, 1, 64, 0
1, 40688, Note_on_c, 1, 66, 81
1, 40688, Note_on_c, 1, 75, 75
1, 40692, Note_on_c, 1, 71, 72
1, 40712, Note_on_c, 1, 61, 56
1, 40748, Control_c, 1, 64, 127
1, 40928, Note_on_c, 1, 71, 0
1, 40928, Note_on_c, 0, 64, 66
1, 40936, Note_on_c, 0, 76, 89
1, 40948, Note_on_c, 0, 77, 82
1, 40960, Note_on_c, 0, 65, 72
1, 40976, Note_on_c, 1, 66, 0
1, 40984, Note_on_c, 0, 76, 0
1, 40984, Note_on_c, 0, 64, 0
1, 41068, Note_on_c, 0, 77, 0
1, 41080, Note_on_c, 1, 66, 61
1, 41084, Note_on_c, 1, 64, 49
1, 41108, Note_on_c, 0, 65, 0
1, 41108, Note_on_c, 0, 76, 68
1, 41124, Note_on_c, 0, 64, 46
1, 41148, Note_on_c, 1, 64, 0
1, 41156, Note_on_c, 1, 61, 0
1, 41228, Note_on_c, 1, 66, 0
1, 41236, Note_on_c, 1, 75, 0
1, 41352, Note_on_c, 0, 76, 0
1, 41392, Note_on_c, 0, 64, 0
1, 41412, Note_on_c, 0, 63, 45
1, 41452, Control_c, 1, 64, 0
1, 41456, Note_on_c, 0, 64, 52
1, 41460, Note_on_c, 0, 63, 0
1, 41476, Note_on_c, 0, 81, 77
1, 41476, Note_on_c, 1, 76, 63
1, 41476, Note_on_c, 1, 69, 56
1, 41476, Note_on_c, 1, 60, 47
1, 41480, Note_on_c, 0, 65, 57
1, 41480, Note_on_c, 1, 72, 55
1, 41484, Note_on_c, 1, 65, 48
1, 41496, Note_on_c, 1, 50, 41
1, 41508, Note_on_c, 0, 64, 0
1, 41604, Control_c, 1, 64, 127
1, 41640, Note_on_c, 1, 65, 0
1, 41672, Note_on_c, 0, 81, 0
1, 41704, Note_on_c, 1, 69, 0
1, 41704, Note_on_c, 1, 72, 0
1, 41716, Note_on_c, 1, 60, 0
1, 41784, Note_on_c, 1, 76, 0
1, 41852, Note_on_c, 1, 57, 39
1, 41852, Note_on_c, 1, 65, 39
1, 41852, Note_on_c, 1, 72, 46
1, 41852, Note_on_c, 1, 69, 43
1, 41868, Note_on_c, 0, 65, 0
1, 41872, Note_on_c, 0, 62, 48
1, 41872, Note_on_c, 0, 77, 68
1, 41888, Control_c, 0, 64, 127
1, 41916, Note_on_c, 1, 50, 0
1, 41932, Note_on_c, 1, 57, 0
1, 41976, Note_on_c, 1, 65, 0
1, 42000, Note_on_c, 1, 69, 0
1, 42012, Note_on_c, 1, 72, 0
1, 42024, Note_on_c, 0, 77, 0
1, 42108, Note_on_c, 0, 62, 0
1, 42188, Control_c, 1, 64, 0
1, 42208, Control_c, 0, 64, 0
1, 42212, Note_on_c, 1, 52, 63
1, 42236, Control_c, 1, 64, 127
1, 42240, Note_on_c, 0, 76, 65
1, 42244, Note_on_c, 0, 62, 49
1, 42244, Note_on_c, 0, 65, 50
1, 42264, Note_on_c, 0, 68, 42
1, 42276, Note_on_c, 1, 52, 0
1, 42396, Control_c, 0, 64, 127
1, 42428, Note_on_c, 0, 76, 0
1, 42472, Note_on_c, 0, 65, 0
1, 42496, Note_on_c, 0, 68, 0
1, 42548, Control_c, 0, 64, 0
1, 42596, Control_c, 0, 64, 127
1, 42604, Note_on_c, 0, 68, 48
1, 42604, Note_on_c, 1, 56, 56
1, 42604, Note_on_c, 1, 77, 68
1, 42604, Note_on_c, 1, 67, 48
1, 42608, Note_on_c, 0, 62, 0
1, 42608, Note_on_c, 0, 74, 50
1, 42608, Note_on_c, 0, 64, 39
1, 42608, Note_on_c, 1, 68, 66
1, 42616, Note_on_c, 0, 56, 41
1, 42616, Note_on_c, 1, 71, 59
1, 42616, Note_on_c, 1, 62, 49
1, 42628, Note_on_c, 1, 74, 49
1, 42660, Note_on_c, 1, 67, 0
1, 42684, Note_on_c, 1, 62, 0
1, 42728, Note_on_c, 0, 64, 0
1, 42732, Note_on_c, 0, 74, 0
1, 42744, Note_on_c, 1, 71, 0
1, 42756, Note_on_c, 1, 56, 0
1, 42768, Note_on_c, 1, 68, 0
1, 42772, Note_on_c, 1, 74, 0
1, 42804, Note_on_c, 1, 77, 0
1, 42832, Note_on_c, 0, 68, 0
1, 42944, Note_on_c, 0, 56, 0
1, 42948, Control_c, 0, 64, 0
1, 42952, Control_c, 1, 64, 0
1, 42988, Note_on_c, 0, 72, 52
1, 42996, Note_on_c, 1, 76, 63
1, 43000, Note_on_c, 0, 57, 39
1, 43000, Note_on_c, 0, 67, 52
1, 43000, Note_on_c, 0, 60, 39
1, 43000, Note_on_c, 1, 64, 51
1, 43000, Control_c, 1, 64, 127
1, 43004, Note_on_c, 1, 57, 48
1, 43008, Note_on_c, 1, 72, 52
1, 43008, Note_on_c, 1, 67, 43
1, 43024, Note_on_c, 1, 60, 36
1, 43040, Control_c, 0, 64, 127
1, 43076, Note_on_c, 1, 60, 0
1, 43080, Note_on_c, 1, 64, 0
1, 43092, Note_on_c, 0, 60, 0
1, 43096, Note_on_c, 1, 76, 0
1, 43112, Note_on_c, 1, 72, 0
1, 43120, Note_on_c, 0, 67, 0
1, 43136, Note_on_c, 1, 57, 0
1, 43140, Note_on_c, 1, 67, 0
1, 43172, Note_on_c, 0, 57, 0
1, 43212, Note_on_c, 0, 72, 0
1, 43356, Note_on_c, 0, 65, 53
1, 43364, Control_c, 0, 64, 0
1, 43364, Control_c, 1, 64, 0
1, 43376, Note_on_c, 1, 60, 54
1, 43380, Note_on_c, 1, 66, 51
1, 43384, Note_on_c, 0, 65, 0
1, 43388, Note_on_c, 1, 54, 42
1, 43392, Note_on_c, 1, 44, 41
1, 43400, Note_on_c, 0, 66, 45
1, 43420, Control_c, 1, 64, 127
1, 43460, Note_on_c, 0, 68, 58
1, 43484, Note_on_c, 0, 66, 0
1, 43500, Note_on_c, 0, 70, 43
1, 43508, Note_on_c, 0, 68, 0
1, 43524, Note_on_c, 1, 54, 0
1, 43524, Note_on_c, 0, 70, 0
1, 43540, Note_on_c, 1, 60, 0
1, 43540, Note_on_c, 0, 71, 54
1, 43548, Note_on_c, 1, 44, 0
1, 43600, Note_on_c, 1, 66, 0
1, 43604, Note_on_c, 0, 71, 0
1, 43608, Note_on_c, 0, 72, 45
1, 43648, Note_on_c, 0, 73, 65
1, 43660, Note_on_c, 0, 72, 0
1, 43704, Note_on_c, 0, 73, 0
1, 43716, Control_c, 1, 64, 0
1, 43728, Note_on_c, 0, 74, 26
1, 43736, Note_on_c, 0, 75, 43
1, 43764, Note_on_c, 1, 58, 49
1, 43764, Note_on_c, 1, 43, 48
1, 43772, Control_c, 1, 64, 127
1, 43772, Note_on_c, 1, 65, 45
1, 43776, Note_on_c, 1, 53, 36
1, 43788, Note_on_c, 0, 74, 0
1, 43808, Note_on_c, 0, 75, 0
1, 43808, Note_on_c, 0, 76, 52
1, 43816, Note_on_c, 1, 58, 0
1, 43832, Note_on_c, 1, 43, 0
1, 43844, Note_on_c, 0, 77, 73
1, 43864, Note_on_c, 1, 65, 0
1, 43872, Note_on_c, 1, 53, 0
1, 43876, Note_on_c, 0, 58, 31
1, 43880, Note_on_c, 0, 76, 0
1, 43940, Note_on_c, 0, 58, 0
1, 43948, Note_on_c, 0, 77, 0
1, 43988, Note_on_c, 0, 74, 75
1, 44032, Note_on_c, 0, 74, 0
1, 44084, Note_on_c, 0, 70, 58
1, 44152, Control_c, 1, 64, 0
1, 44156, Note_on_c, 1, 73, 66
1, 44160, Note_on_c, 1, 68, 66
1, 44164, Note_on_c, 1, 64, 57
1, 44172, Note_on_c, 0, 70, 0
1, 44172, Note_on_c, 1, 58, 50
1, 44200, Note_on_c, 0, 69, 41
1, 44212, Control_c, 1, 64, 127
1, 44228, Note_on_c, 0, 69, 0
1, 44260, Note_on_c, 0, 76, 80
1, 44340, Note_on_c, 0, 76, 0
1, 44352, Note_on_c, 1, 64, 0
1, 44396, Note_on_c, 1, 73, 0
1, 44412, Note_on_c, 0, 73, 63
1, 44420, Note_on_c, 1, 68, 0
1, 44436, Note_on_c, 1, 58, 0
1, 44488, Note_on_c, 0, 73, 0
1, 44496, Control_c, 1, 64, 0
1, 44540, Note_on_c, 0, 70, 41
1, 44540, Note_on_c, 1, 72, 48
1, 44540, Note_on_c, 1, 62, 40
1, 44544, Note_on_c, 1, 67, 49
1, 44548, Control_c, 1, 64, 127
1, 44548, Note_on_c, 1, 57, 49
1, 44552, Note_on_c, 0, 58, 31
1, 44568, Note_on_c, 0, 70, 0
1, 44596, Note_on_c, 0, 68, 28
1, 44632, Note_on_c, 0, 68, 0
1, 44636, Note_on_c, 1, 57, 0
1, 44644, Note_on_c, 1, 72, 0
1, 44644, Note_on_c, 0, 64, 50
1, 44648, Note_on_c, 1, 67, 0
1, 44660, Note_on_c, 0, 58, 0
1, 44680, Note_on_c, 0, 64, 0
1, 44704, Note_on_c, 1, 62, 0
1, 44720, Note_on_c, 0, 72, 74
1, 44924, Note_on_c, 1, 60, 48
1, 44928, Note_on_c, 1, 53, 44
1, 44928, Note_on_c, 1, 64, 50
1, 44932, Note_on_c, 1, 69, 40
1, 44952, Control_c, 0, 64, 127
1, 44952, Control_c, 0, 64, 88
1, 44956, Note_on_c, 1, 53, 0
1, 44956, Control_c, 0, 64, 127
1, 44972, Note_on_c, 1, 69, 0
1, 44996, Note_on_c, 1, 64, 0
1, 45040, Note_on_c, 1, 60, 0
1, 45204, Note_on_c, 0, 69, 72
1, 45232, Note_on_c, 0, 72, 0
1, 45284, Control_c, 1, 64, 0
1, 45296, Note_on_c, 0, 69, 0
1, 45296, Control_c, 0, 64, 0
1, 45296, Note_on_c, 1, 52, 50
1, 45296, Note_on_c, 1, 67, 54
1, 45296, Note_on_c, 1, 56, 54
1, 45296, Note_on_c, 1, 60, 57
1, 45332, Control_c, 1, 64, 104
1, 45332, Control_c, 1, 64, 127
1, 45344, Note_on_c, 0, 68, 57
1, 45352, Note_on_c, 0, 56, 32
1, 45352, Note_on_c, 0, 62, 25
1, 45356, Note_on_c, 0, 60, 39
1, 45376, Note_on_c, 0, 53, 31
1, 45516, Note_on_c, 1, 56, 0
1, 45528, Note_on_c, 1, 60, 0
1, 45540, Note_on_c, 0, 60, 0
1, 45548, Note_on_c, 0, 62, 0
1, 45560, Note_on_c, 0, 56, 0
1, 45564, Note_on_c, 1, 67, 0
1, 45648, Control_c, 1, 64, 0
1, 45660, Note_on_c, 1, 52, 0
1, 45676, Control_c, 0, 64, 127
1, 45684, Note_on_c, 1, 56, 51
1, 45688, Note_on_c, 1, 65, 52
1, 45688, Note_on_c, 1, 60, 52
1, 45688, Note_on_c, 1, 50, 41
1, 45700, Note_on_c, 0, 62, 28
1, 45700, Control_c, 1, 64, 127
1, 45704, Note_on_c, 0, 56, 39
1, 45708, Note_on_c, 0, 60, 39
1, 45736, Note_on_c, 0, 60, 0
1, 45752, Note_on_c, 0, 62, 0
1, 45776, Note_on_c, 1, 50, 0
1, 45800, Note_on_c, 1, 56, 0
1, 45800, Note_on_c, 1, 60, 0
1, 45808, Note_on_c, 0, 56, 0
1, 45816, Note_on_c, 1, 65, 0
1, 45832, Note_on_c, 0, 53, 0
1, 46008, Control_c, 1, 64, 0
1, 46028, Note_on_c, 0, 68, 0
1, 46052, Control_c, 0, 64, 0
1, 46064, Note_on_c, 1, 64, 52
1, 46076, Note_on_c, 1, 55, 31
1, 46076, Note_on_c, 1, 60, 43
1, 46092, Control_c, 1, 64, 127
1, 46096, Note_on_c, 1, 48, 31
1, 46128, Note_on_c, 1, 48, 0
1, 46128, Note_on_c, 1, 55, 0
1, 46160, Note_on_c, 1, 60, 0
1, 46176, Note_on_c, 1, 64, 0
1, 46448, Note_on_c, 1, 64, 53
1, 46456, Note_on_c, 1, 59, 29
1, 46456, Note_on_c, 1, 62, 43
1, 46476, Note_on_c, 0, 92, 82
1, 46480, Note_on_c, 0, 80, 82
1, 46480, Note_on_c, 1, 55, 22
1, 46484, Note_on_c, 0, 62, 53
1, 46488, Note_on_c, 0, 87, 73
1, 46492, Note_on_c, 0, 59, 47
1, 46496, Note_on_c, 0, 55, 51
1, 46500, Note_on_c, 1, 59, 0
1, 46500, Note_on_c, 0, 52, 45
1, 46512, Note_on_c, 1, 55, 0
1, 46516, Control_c, 0, 64, 127
1, 46536, Note_on_c, 1, 62, 0
1, 46552, Note_on_c, 1, 64, 0
1, 46592, Note_on_c, 0, 87, 0
1, 46596, Note_on_c, 0, 62, 0
1, 46600, Note_on_c, 0, 52, 0
1, 46604, Note_on_c, 0, 59, 0
1, 46608, Note_on_c, 0, 55, 0
1, 46612, Note_on_c, 0, 92, 0
1, 46624, Note_on_c, 0, 80, 0
1, 46724, Note_on_c, 0, 93, 58
1, 46728, Note_on_c, 0, 59, 44
1, 46736, Note_on_c, 0, 62, 33
1, 46736, Note_on_c, 0, 81, 67
1, 46744, Note_on_c, 0, 93, 0
1, 46756, Note_on_c, 0, 59, 0
1, 46760, Note_on_c, 0, 81, 0
1, 46768, Note_on_c, 0, 62, 0
1, 46800, Control_c, 1, 64, 0
1, 46820, Control_c, 0, 64, 0
1, 46824, Note_on_c, 1, 39, 57
1, 46832, Note_on_c, 1, 54, 42
1, 46836, Note_on_c, 1, 74, 68
1, 46836, Note_on_c, 1, 66, 58
1, 46840, Note_on_c, 1, 63, 55
1, 46868, Note_on_c, 0, 84, 72
1, 46876, Note_on_c, 0, 72, 56
1, 46876, Note_on_c, 0, 64, 39
1, 46880, Control_c, 1, 64, 127
1, 46900, Note_on_c, 1, 39, 0
1, 46900, Note_on_c, 0, 57, 33
1, 46904, Note_on_c, 0, 60, 33
1, 46912, Note_on_c, 0, 55, 22
1, 46964, Note_on_c, 1, 54, 0
1, 46972, Note_on_c, 1, 74, 0
1, 46980, Note_on_c, 1, 63, 0
1, 46992, Note_on_c, 0, 55, 0
1, 47000, Note_on_c, 0, 72, 0
1, 47004, Note_on_c, 0, 64, 0
1, 47012, Note_on_c, 0, 60, 0
1, 47012, Note_on_c, 0, 84, 0
1, 47020, Note_on_c, 0, 57, 0
1, 47068, Note_on_c, 1, 66, 0
1, 47068, Control_c, 0, 64, 127
1, 47100, Note_on_c, 0, 86, 71
1, 47104, Note_on_c, 0, 74, 66
1, 47108, Note_on_c, 0, 64, 43
1, 47124, Note_on_c, 0, 60, 46
1, 47124, Note_on_c, 0, 57, 44
1, 47132, Control_c, 0, 64, 0
1, 47132, Note_on_c, 0, 55, 24
1, 47164, Note_on_c, 0, 86, 0
1, 47168, Note_on_c, 0, 64, 0
1, 47168, Note_on_c, 0, 74, 0
1, 47168, Note_on_c, 0, 55, 0
1, 47172, Note_on_c, 0, 60, 0
1, 47196, Note_on_c, 0, 57, 0
1, 47220, Note_on_c, 1, 54, 51
1, 47220, Note_on_c, 1, 63, 66
1, 47224, Note_on_c, 1, 66, 59
1, 47224, Note_on_c, 1, 72, 57
1, 47228, Note_on_c, 1, 60, 50
1, 47240, Note_on_c, 0, 84, 51
1, 47244, Note_on_c, 0, 64, 39
1, 47248, Note_on_c, 0, 72, 42
1, 47256, Note_on_c, 1, 60, 0
1, 47260, Note_on_c, 0, 60, 37
1, 47264, Note_on_c, 0, 57, 38
1, 47264, Note_on_c, 0, 55, 31
1, 47272, Control_c, 0, 64, 127
1, 47292, Note_on_c, 0, 72, 0
1, 47300, Note_on_c, 1, 54, 0
1, 47304, Note_on_c, 0, 64, 0
1, 47316, Note_on_c, 0, 60, 0
1, 47320, Note_on_c, 1, 63, 0
1, 47328, Note_on_c, 1, 72, 0
1, 47336, Note_on_c, 0, 55, 0
1, 47340, Note_on_c, 0, 57, 0
1, 47352, Note_on_c, 0, 84, 0
1, 47368, Note_on_c, 1, 66, 0
1, 47496, Control_c, 0, 64, 0
1, 47584, Control_c, 1, 64, 0
1, 47608, Note_on_c, 1, 65, 68
1, 47608, Note_on_c, 1, 57, 55
1, 47612, Note_on_c, 1, 60, 57
1, 47612, Control_c, 1, 64, 127
1, 47620, Note_on_c, 1, 50, 46
1, 47672, Note_on_c, 1, 57, 0
1, 47692, Note_on_c, 1, 50, 0
1, 47712, Note_on_c, 1, 65, 0
1, 47720, Note_on_c, 1, 60, 0
1, 47756, Note_on_c, 0, 96, 70
1, 47756, Note_on_c, 0, 84, 63
1, 47768, Note_on_c, 0, 64, 61
1, 47768, Note_on_c, 0, 91, 49
1, 47768, Note_on_c, 0, 60, 53
1, 47780, Note_on_c, 0, 57, 48
1, 47788, Note_on_c, 0, 91, 0
1, 47792, Note_on_c, 0, 64, 0
1, 47792, Note_on_c, 0, 84, 0
1, 47796, Note_on_c, 0, 60, 0
1, 47800, Note_on_c, 0, 57, 0
1, 47804, Note_on_c, 0, 96, 0
1, 47892, Note_on_c, 0, 96, 80
1, 47896, Note_on_c, 0, 91, 72
1, 47896, Note_on_c, 0, 60, 49
1, 47896, Note_on_c, 0, 84, 68
1, 47896, Note_on_c, 0, 64, 50
1, 47900, Note_on_c, 0, 57, 52
1, 47924, Note_on_c, 0, 64, 0
1, 47924, Note_on_c, 0, 84, 0
1, 47924, Note_on_c, 0, 91, 0
1, 47928, Note_on_c, 0, 60, 0
1, 47936, Note_on_c, 0, 57, 0
1, 47940, Note_on_c, 0, 96, 0
1, 47988, Note_on_c, 1, 69, 81
1, 47992, Note_on_c, 1, 60, 82
1, 47996, Note_on_c, 1, 65, 68
1, 48000, Note_on_c, 1, 57, 73
1, 48000, Note_on_c, 1, 66, 46
1, 48032, Note_on_c, 0, 64, 57
1, 48032, Note_on_c, 0, 60, 49
1, 48032, Note_on_c, 0, 93, 72
1, 48032, Note_on_c, 0, 57, 57
1, 48032, Note_on_c, 0, 81, 63
1, 48032, Note_on_c, 0, 88, 61
1, 48032, Note_on_c, 0, 90, 45
1, 48056, Note_on_c, 0, 81, 0
1, 48060, Note_on_c, 0, 88, 0
1, 48064, Note_on_c, 0, 64, 0
1, 48064, Note_on_c, 0, 90, 0
1, 48072, Note_on_c, 0, 60, 0
1, 48072, Note_on_c, 1, 57, 0
1, 48084, Note_on_c, 0, 93, 0
1, 48084, Note_on_c, 0, 57, 0
1, 48156, Note_on_c, 0, 93, 57
1, 48164, Note_on_c, 0, 60, 51
1, 48164, Note_on_c, 0, 64, 42
1, 48164, Note_on_c, 0, 57, 42
1, 48164, Note_on_c, 0, 88, 56
1, 48164, Note_on_c, 0, 81, 46
1, 48168, Note_on_c, 1, 60, 0
1, 48180, Note_on_c, 0, 90, 28
1, 48192, Note_on_c, 0, 81, 0
1, 48192, Note_on_c, 0, 64, 0
1, 48192, Note_on_c, 1, 66, 0
1, 48192, Note_on_c, 0, 60, 0
1, 48200, Note_on_c, 0, 90, 0
1, 48200, Note_on_c, 0, 93, 0
1, 48200, Note_on_c, 0, 88, 0
1, 48212, Note_on_c, 0, 57, 0
1, 48220, Note_on_c, 1, 65, 0
1, 48236, Note_on_c, 1, 69, 0
1, 48296, Note_on_c, 0, 91, 81
1, 48300, Note_on_c, 0, 59, 66
1, 48300, Note_on_c, 0, 64, 68
1, 48304, Note_on_c, 0, 53, 56
1, 48304, Note_on_c, 0, 86, 73
1, 48304, Note_on_c, 0, 79, 59
1, 48340, Control_c, 1, 64, 0
1, 48376, Control_c, 0, 64, 127
1, 48376, Note_on_c, 1, 43, 50
1, 48376, Note_on_c, 1, 64, 56
1, 48376, Note_on_c, 1, 59, 57
1, 48380, Note_on_c, 1, 67, 54
1, 48380, Note_on_c, 1, 53, 46
1, 48420, Control_c, 1, 64, 127
1, 48456, Note_on_c, 0, 91, 0
1, 48472, Note_on_c, 0, 86, 0
1, 48480, Note_on_c, 0, 79, 0
1, 48484, Note_on_c, 1, 64, 0
1, 48488, Note_on_c, 1, 67, 0
1, 48496, Note_on_c, 0, 64, 0
1, 48504, Note_on_c, 0, 59, 0
1, 48508, Note_on_c, 1, 59, 0
1, 48512, Note_on_c, 0, 53, 0
1, 48540, Note_on_c, 1, 53, 0
1, 48544, Note_on_c, 1, 43, 0
1, 48748, Note_on_c, 1, 66, 55
1, 48752, Note_on_c, 1, 61, 54
1, 48752, Note_on_c, 1, 53, 46
1, 48756, Note_on_c, 1, 59, 50
1, 48760, Note_on_c, 1, 43, 39
1, 48776, Note_on_c, 0, 88, 56
1, 48776, Note_on_c, 0, 59, 56
1, 48784, Note_on_c, 0, 83, 50
1, 48784, Note_on_c, 0, 76, 39
1, 48788, Note_on_c, 0, 64, 38
1, 48792, Note_on_c, 0, 53, 35
1, 48864, Note_on_c, 0, 64, 0
1, 48864, Note_on_c, 1, 53, 0
1, 48884, Note_on_c, 1, 59, 0
1, 48888, Note_on_c, 0, 88, 0
1, 48896, Note_on_c, 0, 83, 0
1, 48896, Note_on_c, 0, 59, 0
1, 48924, Note_on_c, 0, 53, 0
1, 48928, Note_on_c, 0, 76, 0
1, 48956, Note_on_c, 1, 61, 0
1, 48960, Note_on_c, 1, 66, 0
1, 49040, Note_on_c, 1, 50, 36
1, 49064, Note_on_c, 1, 50, 0
1, 49076, Note_on_c, 1, 43, 0
1, 49076, Control_c, 0, 64, 0
1, 49128, Note_on_c, 1, 59, 57
1, 49132, Note_on_c, 1, 67, 60
1, 49132, Note_on_c, 1, 62, 57
1, 49136, Control_c, 1, 64, 0
1, 49152, Note_on_c, 0, 60, 36
1, 49152, Note_on_c, 0, 84, 53
1, 49152, Note_on_c, 0, 72, 39
1, 49160, Note_on_c, 0, 57, 38
1, 49164, Note_on_c, 0, 79, 54
1, 49188, Note_on_c, 0, 52, 20
1, 49196, Control_c, 0, 64, 127
1, 49228, Note_on_c, 0, 84, 0
1, 49240, Note_on_c, 0, 79, 0
1, 49264, Note_on_c, 0, 72, 0
1, 49344, Note_on_c, 0, 60, 0
1, 49396, Note_on_c, 1, 42, 66
1, 49408, Note_on_c, 0, 57, 0
1, 49428, Note_on_c, 0, 60, 72
1, 49492, Note_on_c, 1, 42, 0
1, 49520, Note_on_c, 1, 43, 58
1, 49532, Control_c, 0, 64, 0
1, 49548, Note_on_c, 0, 60, 0
1, 49552, Note_on_c, 0, 61, 62
1, 49556, Note_on_c, 0, 57, 48
1, 49616, Control_c, 1, 64, 127
1, 49636, Note_on_c, 0, 61, 0
1, 49640, Note_on_c, 1, 59, 0
1, 49652, Note_on_c, 0, 57, 0
1, 49656, Note_on_c, 1, 62, 0
1, 49660, Note_on_c, 1, 67, 0
1, 49684, Note_on_c, 0, 64, 56
1, 49688, Note_on_c, 0, 52, 0
1, 49756, Note_on_c, 0, 64, 0
1, 49776, Note_on_c, 1, 31, 82
1, 49824, Note_on_c, 1, 43, 0
1, 49832, Note_on_c, 0, 67, 76
1, 49856, Control_c, 1, 64, 0
1, 49912, Note_on_c, 0, 67, 0
1, 49948, Control_c, 1, 64, 127
1, 49960, Note_on_c, 0, 70, 50
1, 50080, Note_on_c, 0, 75, 58
1, 50108, Note_on_c, 0, 70, 0
1, 50152, Control_c, 1, 64, 0
1, 50156, Note_on_c, 0, 75, 0
1, 50184, Note_on_c, 1, 53, 73
1, 50184, Note_on_c, 1, 57, 75
1, 50184, Note_on_c, 1, 60, 68
1, 50188, Note_on_c, 1, 43, 77
1, 50200, Note_on_c, 0, 79, 85
1, 50216, Control_c, 1, 64, 127
1, 50248, Note_on_c, 1, 53, 0
1, 50252, Note_on_c, 1, 31, 0
1, 50268, Note_on_c, 1, 57, 0
1, 50280, Note_on_c, 1, 43, 0
1, 50284, Note_on_c, 0, 79, 0
1, 50284, Note_on_c, 1, 60, 0
1, 50328, Note_on_c, 0, 82, 85
1, 50332, Note_on_c, 0, 66, 52
1, 50344, Note_on_c, 0, 61, 48
1, 50412, Note_on_c, 0, 66, 0
1, 50424, Note_on_c, 0, 82, 0
1, 50456, Note_on_c, 0, 87, 78
1, 50536, Note_on_c, 0, 87, 0
1, 50540, Note_on_c, 1, 73, 82
1, 50540, Note_on_c, 1, 61, 80
1, 50544, Note_on_c, 0, 61, 0
1, 50544, Note_on_c, 1, 66, 81
1, 50544, Note_on_c, 1, 63, 83
1, 50544, Note_on_c, 1, 51, 72
1, 50548, Note_on_c, 1, 70, 68
1, 50580, Note_on_c, 0, 88, 107
1, 50632, Note_on_c, 1, 73, 0
1, 50648, Note_on_c, 1, 63, 0
1, 50652, Control_c, 1, 64, 0
1, 50656, Note_on_c, 1, 61, 0
1, 50660, Note_on_c, 1, 66, 0
1, 50660, Note_on_c, 1, 70, 0
1, 50676, Note_on_c, 0, 88, 0
1, 50692, Note_on_c, 0, 64, 51
1, 50696, Note_on_c, 1, 51, 0
1, 50696, Note_on_c, 1, 50, 72
1, 50700, Note_on_c, 0, 60, 42
1, 50700, Note_on_c, 1, 72, 66
1, 50700, Note_on_c, 1, 65, 61
1, 50700, Note_on_c, 1, 60, 66
1, 50700, Note_on_c, 1, 69, 60
1, 50708, Note_on_c, 0, 53, 41
1, 50708, Note_on_c, 1, 62, 57
1, 50712, Note_on_c, 0, 91, 115
1, 50712, Note_on_c, 0, 57, 47
1, 50756, Control_c, 1, 64, 127
1, 50820, Note_on_c, 1, 69, 0
1, 50828, Note_on_c, 0, 91, 0
1, 50840, Note_on_c, 1, 72, 0
1, 50848, Note_on_c, 0, 88, 66
1, 50852, Note_on_c, 1, 65, 0
1, 50852, Note_on_c, 1, 60, 0
1, 50860, Note_on_c, 1, 62, 0
1, 50864, Note_on_c, 1, 50, 0
1, 50900, Note_on_c, 0, 64, 0
1, 50912, Note_on_c, 0, 60, 0
1, 50928, Note_on_c, 0, 88, 0
1, 50940, Note_on_c, 0, 57, 0
1, 50968, Note_on_c, 0, 89, 107
1, 51060, Note_on_c, 0, 89, 0
1, 51080, Note_on_c, 1, 69, 52
1, 51084, Note_on_c, 1, 60, 46
1, 51084, Note_on_c, 1, 57, 57
1, 51084, Note_on_c, 1, 62, 52
1, 51092, Note_on_c, 0, 57, 54
1, 51092, Note_on_c, 1, 65, 46
1, 51104, Note_on_c, 0, 60, 30
1, 51108, Note_on_c, 0, 64, 31
1, 51152, Note_on_c, 1, 57, 0
1, 51204, Note_on_c, 1, 62, 0
1, 51248, Note_on_c, 1, 60, 0
1, 51300, Note_on_c, 1, 69, 0
1, 51304, Note_on_c, 0, 84, 75
1, 51308, Note_on_c, 0, 60, 0
1, 51320, Note_on_c, 0, 64, 0
1, 51320, Note_on_c, 1, 65, 0
1, 51348, Note_on_c, 0, 53, 0
1, 51348, Note_on_c, 0, 57, 0
1, 51380, Note_on_c, 0, 84, 0
1, 51408, Note_on_c, 0, 88, 96
1, 51420, Control_c, 1, 64, 0
1, 51452, Note_on_c, 1, 53, 47
1, 51456, Note_on_c, 1, 43, 47
1, 51456, Note_on_c, 1, 64, 49
1, 51460, Note_on_c, 1, 59, 45
1, 51460, Note_on_c, 1, 67, 45
1, 51488, Note_on_c, 0, 88, 0
1, 51508, Note_on_c, 0, 64, 38
1, 51516, Note_on_c, 0, 59, 43
1, 51520, Control_c, 1, 64, 127
1, 51524, Note_on_c, 0, 86, 81
1, 51540, Note_on_c, 0, 53, 45
1, 51592, Note_on_c, 1, 64, 0
1, 51592, Note_on_c, 1, 53, 0
1, 51620, Note_on_c, 1, 59, 0
1, 51728, Note_on_c, 0, 86, 0
1, 51772, Note_on_c, 0, 84, 84
1, 51824, Note_on_c, 1, 43, 0
1, 51832, Note_on_c, 1, 53, 42
1, 51832, Note_on_c, 1, 59, 51
1, 51836, Note_on_c, 1, 64, 49
1, 51868, Note_on_c, 0, 84, 0
1, 51912, Control_c, 0, 64, 127
1, 51920, Note_on_c, 1, 53, 0
1, 51924, Note_on_c, 1, 67, 0
1, 51924, Note_on_c, 0, 83, 60
1, 51932, Note_on_c, 1, 59, 0
1, 51984, Note_on_c, 1, 64, 0
1, 52016, Note_on_c, 0, 64, 0
1, 52064, Note_on_c, 0, 59, 0
1, 52068, Note_on_c, 0, 53, 0
1, 52084, Note_on_c, 0, 83, 0
1, 52132, Note_on_c, 0, 86, 84
1, 52188, Control_c, 1, 64, 0
1, 52192, Control_c, 0, 64, 0
1, 52224, Note_on_c, 1, 36, 39
1, 52228, Note_on_c, 1, 64, 42
1, 52232, Note_on_c, 1, 62, 34
1, 52240, Note_on_c, 0, 86, 0
1, 52248, Note_on_c, 1, 52, 36
1, 52256, Note_on_c, 0, 55, 36
1, 52260, Note_on_c, 0, 59, 35
1, 52264, Note_on_c, 0, 52, 27
1, 52268, Note_on_c, 0, 62, 19
1, 52276, Control_c, 1, 64, 127
1, 52292, Note_on_c, 1, 64, 0
1, 52300, Note_on_c, 1, 36, 0
1, 52304, Note_on_c, 0, 82, 65
1, 52308, Note_on_c, 1, 62, 0
1, 52356, Note_on_c, 0, 83, 56
1, 52364, Note_on_c, 1, 52, 0
1, 52380, Note_on_c, 0, 82, 0
1, 52424, Note_on_c, 0, 83, 0
1, 52512, Note_on_c, 0, 78, 64
1, 52580, Note_on_c, 0, 79, 53
1, 52608, Note_on_c, 0, 78, 0
1, 52608, Note_on_c, 1, 56, 35
1, 52612, Control_c, 1, 64, 0
1, 52620, Note_on_c, 1, 46, 37
1, 52624, Note_on_c, 0, 79, 0
1, 52636, Control_c, 1, 64, 127
1, 52716, Note_on_c, 0, 76, 59
1, 52720, Note_on_c, 0, 52, 0
1, 52728, Note_on_c, 0, 59, 0
1, 52732, Note_on_c, 0, 55, 0
1, 52756, Note_on_c, 1, 56, 0
1, 52784, Note_on_c, 0, 62, 0
1, 52808, Note_on_c, 1, 46, 0
1, 52864, Note_on_c, 0, 76, 0
1, 52916, Note_on_c, 0, 74, 59
1, 52968, Control_c, 1, 64, 0
1, 52980, Note_on_c, 1, 55, 49
1, 52988, Note_on_c, 1, 61, 47
1, 52988, Note_on_c, 1, 70, 46
1, 52996, Note_on_c, 0, 74, 0
1, 52996, Note_on_c, 1, 66, 45
1, 53000, Note_on_c, 1, 45, 30
1, 53016, Note_on_c, 0, 61, 38
1, 53020, Note_on_c, 0, 64, 30
1, 53024, Note_on_c, 0, 55, 33
1, 53068, Note_on_c, 1, 55, 0
1, 53072, Note_on_c, 1, 70, 0
1, 53076, Note_on_c, 1, 66, 0
1, 53076, Note_on_c, 0, 73, 49
1, 53084, Note_on_c, 1, 45, 0
1, 53084, Note_on_c, 1, 61, 0
1, 53152, Control_c, 1, 64, 127
1, 53220, Note_on_c, 0, 73, 0
1, 53232, Note_on_c, 0, 64, 0
1, 53244, Note_on_c, 0, 61, 0
1, 53280, Note_on_c, 0, 69, 57
1, 53308, Note_on_c, 1, 49, 29
1, 53312, Control_c, 1, 64, 0
1, 53340, Note_on_c, 1, 51, 40
1, 53344, Note_on_c, 1, 49, 0
1, 53348, Note_on_c, 1, 58, 51
1, 53356, Note_on_c, 1, 61, 41
1, 53360, Note_on_c, 1, 52, 45
1, 53364, Note_on_c, 1, 51, 0
1, 53372, Note_on_c, 1, 67, 38
1, 53376, Note_on_c, 1, 64, 40
1, 53388, Note_on_c, 0, 61, 33
1, 53396, Control_c, 0, 64, 127
1, 53400, Note_on_c, 0, 64, 24
1, 53412, Control_c, 1, 64, 127
1, 53452, Note_on_c, 1, 67, 0
1, 53472, Note_on_c, 0, 64, 0
1, 53488, Note_on_c, 1, 64, 0
1, 53492, Note_on_c, 1, 58, 0
1, 53496, Note_on_c, 0, 55, 0
1, 53528, Note_on_c, 0, 61, 0
1, 53616, Note_on_c, 0, 69, 0
1, 53632, Note_on_c, 1, 52, 0
1, 53632, Note_on_c, 1, 61, 0
1, 53672, Note_on_c, 1, 49, 39
1, 53704, Control_c, 1, 64, 0
1, 53716, Control_c, 0, 64, 0
1, 53724, Note_on_c, 1, 49, 0
1, 53736, Note_on_c, 1, 57, 43
1, 53736, Note_on_c, 1, 60, 51
1, 53740, Note_on_c, 1, 50, 39
1, 53752, Note_on_c, 1, 65, 31
1, 53788, Note_on_c, 0, 57, 42
1, 53792, Note_on_c, 0, 60, 32
1, 53800, Note_on_c, 0, 64, 14
1, 53800, Note_on_c, 0, 53, 26
1, 53812, Control_c, 1, 64, 127
1, 53964, Note_on_c, 0, 64, 0
1, 53976, Note_on_c, 0, 60, 0
1, 53984, Note_on_c, 0, 80, 85
1, 54020, Note_on_c, 1, 50, 0
1, 54024, Note_on_c, 0, 57, 0
1, 54056, Note_on_c, 0, 81, 77
1, 54076, Note_on_c, 0, 80, 0
1, 54084, Control_c, 1, 64, 0
1, 54120, Note_on_c, 0, 81, 0
1, 54128, Note_on_c, 1, 48, 52
1, 54152, Control_c, 1, 64, 127
1, 54160, Note_on_c, 0, 60, 33
1, 54160, Note_on_c, 0, 57, 26
1, 54180, Note_on_c, 1, 57, 0
1, 54192, Note_on_c, 1, 65, 0
1, 54212, Note_on_c, 1, 60, 0
1, 54212, Note_on_c, 0, 76, 82
1, 54268, Note_on_c, 0, 60, 0
1, 54288, Note_on_c, 0, 53, 0
1, 54288, Note_on_c, 0, 77, 74
1, 54300, Note_on_c, 0, 57, 0
1, 54300, Note_on_c, 0, 76, 0
1, 54364, Note_on_c, 0, 77, 0
1, 54404, Note_on_c, 1, 48, 0
1, 54412, Note_on_c, 1, 46, 45
1, 54440, Note_on_c, 0, 72, 56
1, 54464, Note_on_c, 1, 46, 0
1, 54472, Control_c, 1, 64, 0
1, 54504, Note_on_c, 0, 72, 0
1, 54504, Note_on_c, 1, 56, 55
1, 54504, Note_on_c, 1, 67, 57
1, 54512, Note_on_c, 1, 62, 58
1, 54512, Note_on_c, 1, 47, 55
1, 54584, Control_c, 1, 64, 127
1, 54768, Note_on_c, 1, 62, 0
1, 54776, Note_on_c, 1, 67, 0
1, 54788, Note_on_c, 1, 56, 0
1, 54796, Note_on_c, 0, 67, 57
1, 54804, Note_on_c, 0, 62, 61
1, 54804, Note_on_c, 0, 56, 54
1, 54816, Note_on_c, 1, 47, 0
1, 54856, Control_c, 1, 64, 0
1, 54896, Note_on_c, 1, 65, 57
1, 54896, Note_on_c, 1, 46, 55
1, 54896, Note_on_c, 1, 56, 48
1, 54900, Note_on_c, 1, 62, 52
1, 54940, Note_on_c, 0, 76, 111
1, 54940, Control_c, 1, 64, 127
1, 54976, Note_on_c, 0, 67, 0
1, 55032, Note_on_c, 1, 62, 0
1, 55032, Note_on_c, 0, 62, 0
1, 55040, Note_on_c, 0, 76, 0
1, 55056, Note_on_c, 1, 56, 0
1, 55060, Note_on_c, 0, 74, 84
1, 55064, Note_on_c, 1, 65, 0
1, 55064, Note_on_c, 0, 76, 31
1, 55092, Note_on_c, 0, 76, 0
1, 55128, Note_on_c, 0, 56, 0
1, 55128, Note_on_c, 1, 46, 0
1, 55140, Note_on_c, 0, 74, 0
1, 55168, Note_on_c, 0, 72, 81
1, 55212, Control_c, 1, 64, 0
1, 55260, Note_on_c, 0, 72, 0
1, 55264, Note_on_c, 1, 45, 51
1, 55264, Note_on_c, 1, 55, 50
1, 55268, Note_on_c, 0, 57, 38
1, 55268, Control_c, 1, 64, 127
1, 55272, Note_on_c, 0, 64, 40
1, 55272, Note_on_c, 1, 64, 53
1, 55280, Note_on_c, 0, 71, 67
1, 55280, Note_on_c, 1, 60, 48
1, 55292, Note_on_c, 0, 60, 41
1, 55348, Note_on_c, 0, 71, 0
1, 55388, Note_on_c, 1, 64, 0
1, 55412, Note_on_c, 0, 74, 86
1, 55428, Note_on_c, 1, 45, 0
1, 55440, Note_on_c, 1, 60, 0
1, 55448, Note_on_c, 1, 55, 0
1, 55452, Note_on_c, 0, 64, 0
1, 55452, Note_on_c, 0, 60, 0
1, 55500, Note_on_c, 0, 74, 0
1, 55528, Note_on_c, 0, 71, 58
1, 55584, Note_on_c, 0, 71, 0
1, 55620, Control_c, 1, 64, 0
1, 55624, Note_on_c, 0, 72, 76
1, 55648, Note_on_c, 0, 64, 32
1, 55652, Note_on_c, 0, 60, 36
1, 55652, Note_on_c, 1, 44, 46
1, 55652, Note_on_c, 1, 32, 49
1, 55660, Note_on_c, 1, 54, 52
1, 55660, Note_on_c, 1, 59, 54
1, 55664, Note_on_c, 1, 63, 47
1, 55680, Control_c, 1, 64, 127
1, 55696, Note_on_c, 0, 64, 0
1, 55720, Note_on_c, 0, 60, 0
1, 55788, Note_on_c, 1, 44, 0
1, 55788, Note_on_c, 0, 57, 0
1, 55796, Note_on_c, 1, 32, 0
1, 55796, Note_on_c, 1, 54, 0
1, 55800, Note_on_c, 1, 59, 0
1, 55864, Note_on_c, 1, 63, 0
1, 55924, Control_c, 0, 64, 127
1, 55940, Note_on_c, 0, 56, 38
1, 55968, Control_c, 1, 64, 0
1, 55980, Control_c, 0, 64, 0
1, 56004, Note_on_c, 0, 56, 0
1, 56024, Control_c, 1, 64, 127
1, 56040, Note_on_c, 1, 43, 46
1, 56040, Note_on_c, 1, 58, 50
1, 56040, Note_on_c, 1, 62, 51
1, 56048, Note_on_c, 1, 31, 42
1, 56072, Note_on_c, 1, 31, 0
1, 56116, Note_on_c, 1, 43, 0
1, 56120, Note_on_c, 1, 62, 0
1, 56140, Note_on_c, 1, 58, 0
1, 56316, Note_on_c, 0, 62, 49
1, 56316, Note_on_c, 0, 58, 48
1, 56340, Note_on_c, 0, 62, 0
1, 56352, Note_on_c, 0, 58, 0
1, 56432, Note_on_c, 1, 68, 58
1, 56432, Note_on_c, 1, 72, 58
1, 56432, Note_on_c, 1, 64, 57
1, 56440, Note_on_c, 1, 58, 52
1, 56556, Note_on_c, 1, 64, 0
1, 56664, Note_on_c, 1, 58, 0
1, 56672, Note_on_c, 1, 68, 0
1, 56708, Note_on_c, 1, 72, 0
1, 56808, Control_c, 1, 64, 0
1, 56812, Note_on_c, 1, 66, 79
1, 56820, Note_on_c, 1, 69, 70
1, 56828, Note_on_c, 1, 64, 55
1, 56836, Note_on_c, 0, 72, 0
1, 56840, Note_on_c, 1, 60, 51
1, 56844, Note_on_c, 1, 54, 33
1, 56852, Note_on_c, 0, 64, 31
1, 56856, Note_on_c, 0, 60, 31
1, 56868, Note_on_c, 0, 57, 29
1, 56872, Note_on_c, 0, 53, 26
1, 56888, Control_c, 1, 64, 127
1, 56924, Note_on_c, 0, 57, 0
1, 56932, Note_on_c, 0, 53, 0
1, 56932, Note_on_c, 0, 64, 0
1, 56944, Note_on_c, 0, 60, 0
1, 56980, Note_on_c, 1, 64, 0
1, 57008, Note_on_c, 1, 60, 0
1, 57124, Note_on_c, 1, 66, 0
1, 57200, Note_on_c, 1, 66, 51
1, 57216, Note_on_c, 1, 60, 53
1, 57272, Note_on_c, 0, 64, 39
1, 57276, Note_on_c, 0, 54, 40
1, 57284, Note_on_c, 0, 60, 37
1, 57388, Note_on_c, 1, 69, 0
1, 57416, Note_on_c, 0, 64, 0
1, 57464, Note_on_c, 1, 54, 0
1, 57516, Note_on_c, 0, 69, 88
1, 57520, Note_on_c, 0, 60, 0
1, 57528, Note_on_c, 1, 66, 0
1, 57536, Note_on_c, 1, 60, 0
1, 57564, Note_on_c, 0, 54, 0
1, 57568, Note_on_c, 0, 69, 0
1, 57568, Control_c, 1, 64, 0
1, 57572, Note_on_c, 1, 56, 45
1, 57580, Note_on_c, 1, 65, 57
1, 57584, Note_on_c, 1, 62, 45
1, 57584, Note_on_c, 1, 68, 54
1, 57592, Note_on_c, 1, 53, 46
1, 57652, Note_on_c, 0, 56, 45
1, 57652, Note_on_c, 0, 62, 36
1, 57660, Note_on_c, 0, 60, 38
1, 57668, Note_on_c, 0, 53, 40
1, 57676, Note_on_c, 0, 72, 94
1, 57692, Control_c, 1, 64, 127
1, 57736, Note_on_c, 0, 72, 0
1, 57792, Note_on_c, 0, 62, 0
1, 57812, Note_on_c, 0, 60, 0
1, 57824, Note_on_c, 0, 56, 0
1, 57832, Note_on_c, 1, 62, 0
1, 57860, Note_on_c, 1, 65, 0
1, 57884, Note_on_c, 0, 76, 122
1, 57960, Note_on_c, 1, 65, 48
1, 57960, Note_on_c, 1, 62, 36
1, 57964, Note_on_c, 0, 76, 0
1, 57976, Note_on_c, 1, 60, 36
1, 58012, Note_on_c, 1, 60, 0
1, 58020, Note_on_c, 0, 56, 37
1, 58024, Note_on_c, 0, 60, 35
1, 58024, Note_on_c, 0, 62, 20
1, 58040, Note_on_c, 0, 79, 115
1, 58096, Note_on_c, 0, 60, 0
1, 58100, Note_on_c, 0, 62, 0
1, 58116, Note_on_c, 0, 79, 0
1, 58120, Note_on_c, 1, 53, 0
1, 58140, Note_on_c, 1, 65, 0
1, 58156, Note_on_c, 0, 53, 0
1, 58160, Note_on_c, 0, 56, 0
1, 58160, Note_on_c, 0, 77, 82
1, 58172, Note_on_c, 1, 62, 0
1, 58176, Note_on_c, 1, 56, 0
1, 58208, Note_on_c, 1, 68, 0
1, 58240, Note_on_c, 0, 77, 0
1, 58280, Note_on_c, 0, 72, 68
1, 58292, Control_c, 1, 64, 0
1, 58352, Note_on_c, 1, 52, 36
1, 58352, Note_on_c, 1, 67, 46
1, 58352, Note_on_c, 1, 64, 46
1, 58352, Note_on_c, 1, 59, 36
1, 58356, Note_on_c, 1, 62, 28
1, 58368, Note_on_c, 0, 72, 0
1, 58372, Control_c, 1, 64, 127
1, 58392, Note_on_c, 0, 59, 31
1, 58404, Note_on_c, 0, 67, 57
1, 58408, Note_on_c, 1, 62, 0
1, 58412, Note_on_c, 0, 55, 35
1, 58416, Note_on_c, 1, 59, 0
1, 58452, Note_on_c, 1, 67, 0
1, 58472, Note_on_c, 0, 67, 0
1, 58476, Note_on_c, 1, 64, 0
1, 58524, Note_on_c, 0, 65, 56
1, 58528, Note_on_c, 0, 59, 0
1, 58532, Note_on_c, 0, 55, 0
1, 58600, Note_on_c, 1, 62, 65
1, 58604, Note_on_c, 1, 64, 78
1, 58608, Note_on_c, 1, 67, 60
1, 58608, Note_on_c, 1, 74, 73
1, 58620, Note_on_c, 1, 70, 49
1, 58628, Note_on_c, 0, 65, 0
1, 58640, Note_on_c, 1, 70, 0
1, 58652, Note_on_c, 0, 64, 53
1, 58676, Note_on_c, 1, 64, 0
1, 58680, Note_on_c, 1, 67, 0
1, 58680, Note_on_c, 1, 62, 0
1, 58712, Note_on_c, 0, 64, 0
1, 58712, Note_on_c, 1, 74, 0
1, 58740, Note_on_c, 0, 62, 30
1, 58748, Note_on_c, 0, 59, 39
1, 58748, Note_on_c, 1, 60, 53
1, 58764, Note_on_c, 0, 55, 41
1, 58764, Note_on_c, 0, 52, 31
1, 58764, Note_on_c, 1, 72, 50
1, 58768, Note_on_c, 1, 64, 39
1, 58772, Note_on_c, 1, 67, 33
1, 58800, Note_on_c, 1, 64, 0
1, 58820, Note_on_c, 1, 60, 0
1, 58832, Note_on_c, 1, 67, 0
1, 58868, Control_c, 0, 64, 127
1, 58912, Note_on_c, 0, 52, 0
1, 58916, Note_on_c, 1, 72, 0
1, 58920, Note_on_c, 0, 55, 0
1, 58936, Note_on_c, 0, 59, 0
1, 58968, Note_on_c, 0, 62, 0
1, 58984, Control_c, 1, 64, 0
1, 58988, Note_on_c, 1, 74, 68
1, 58988, Note_on_c, 1, 63, 69
1, 58988, Note_on_c, 1, 66, 61
1, 58996, Note_on_c, 1, 62, 66
1, 59000, Note_on_c, 1, 69, 49
1, 59044, Note_on_c, 1, 52, 0
1, 59100, Control_c, 1, 64, 56
1, 59104, Control_c, 1, 64, 127
1, 59108, Control_c, 0, 64, 0
1, 59212, Note_on_c, 1, 69, 0
1, 59244, Note_on_c, 1, 63, 0
1, 59260, Note_on_c, 1, 74, 0
1, 59264, Note_on_c, 1, 66, 0
1, 59348, Note_on_c, 1, 62, 0
1, 59368, Note_on_c, 1, 63, 63
1, 59372, Note_on_c, 1, 72, 55
1, 59372, Note_on_c, 1, 66, 57
1, 59376, Control_c, 1, 64, 0
1, 59380, Note_on_c, 1, 60, 58
1, 59392, Note_on_c, 1, 69, 46
1, 59396, Note_on_c, 0, 63, 41
1, 59408, Note_on_c, 0, 60, 40
1, 59416, Note_on_c, 0, 57, 45
1, 59420, Note_on_c, 0, 54, 34
1, 59440, Control_c, 1, 64, 127
1, 59448, Note_on_c, 1, 60, 0
1, 59488, Note_on_c, 1, 72, 0
1, 59504, Note_on_c, 1, 69, 0
1, 59520, Note_on_c, 1, 63, 0
1, 59524, Note_on_c, 0, 57, 0
1, 59536, Note_on_c, 1, 66, 0
1, 59536, Note_on_c, 0, 63, 0
1, 59540, Note_on_c, 0, 60, 0
1, 59608, Note_on_c, 0, 54, 0
1, 59652, Note_on_c, 0, 71, 48
1, 59708, Note_on_c, 0, 71, 0
1, 59748, Control_c, 1, 64, 0
1, 59748, Note_on_c, 1, 62, 57
1, 59748, Note_on_c, 1, 60, 57
1, 59752, Note_on_c, 1, 57, 54
1, 59756, Note_on_c, 1, 69, 36
1, 59760, Note_on_c, 1, 50, 43
1, 59764, Note_on_c, 0, 72, 81
1, 59764, Note_on_c, 1, 65, 39
1, 59784, Note_on_c, 1, 69, 0
1, 59792, Note_on_c, 1, 65, 0
1, 59792, Control_c, 1, 64, 127
1, 59796, Note_on_c, 1, 57, 0
1, 59812, Note_on_c, 1, 62, 0
1, 59832, Note_on_c, 1, 50, 0
1, 59836, Note_on_c, 1, 60, 0
1, 59864, Note_on_c, 0, 72, 0
1, 59900, Note_on_c, 0, 64, 29
1, 59904, Note_on_c, 0, 69, 65
1, 59904, Control_c, 1, 64, 0
1, 59912, Note_on_c, 0, 57, 36
1, 59912, Note_on_c, 0, 60, 36
1, 59916, Note_on_c, 0, 53, 28
1, 60048, Control_c, 0, 64, 127
1, 60068, Note_on_c, 0, 60, 0
1, 60072, Note_on_c, 0, 64, 0
1, 60080, Note_on_c, 0, 57, 0
1, 60104, Note_on_c, 1, 49, 56
1, 60116, Note_on_c, 1, 50, 58
1, 60124, Note_on_c, 1, 65, 50
1, 60124, Note_on_c, 1, 57, 57
1, 60128, Note_on_c, 1, 60, 58
1, 60148, Note_on_c, 1, 62, 43
1, 60156, Note_on_c, 1, 49, 0
1, 60180, Control_c, 1, 64, 88
1, 60180, Control_c, 1, 64, 127
1, 60220, Note_on_c, 1, 62, 0
1, 60244, Note_on_c, 1, 65, 0
1, 60248, Note_on_c, 1, 60, 0
1, 60248, Control_c, 0, 64, 0
1, 60256, Note_on_c, 1, 57, 0
1, 60272, Control_c, 1, 64, 0
1, 60276, Note_on_c, 0, 64, 34
1, 60284, Note_on_c, 0, 57, 43
1, 60288, Note_on_c, 0, 60, 37
1, 60340, Note_on_c, 0, 64, 0
1, 60340, Control_c, 0, 64, 127
1, 60364, Note_on_c, 0, 60, 0
1, 60384, Note_on_c, 0, 57, 0
1, 60420, Note_on_c, 0, 53, 0
1, 60468, Note_on_c, 1, 50, 0
1, 60512, Note_on_c, 1, 45, 48
1, 60512, Note_on_c, 1, 60, 61
1, 60512, Note_on_c, 1, 53, 57
1, 60516, Note_on_c, 1, 57, 54
1, 60576, Note_on_c, 1, 53, 0
1, 60596, Note_on_c, 1, 45, 0
1, 60600, Note_on_c, 1, 57, 0
1, 60600, Note_on_c, 1, 60, 0
1, 60672, Control_c, 1, 64, 127
1, 60748, Control_c, 1, 64, 0
1, 60904, Note_on_c, 1, 45, 54
1, 60912, Note_on_c, 1, 60, 54
1, 60912, Note_on_c, 1, 57, 54
1, 60916, Note_on_c, 1, 53, 45
1, 60928, Control_c, 1, 64, 127
1, 61004, Control_c, 0, 64, 0
1, 61044, Note_on_c, 0, 61, 30
1, 61064, Note_on_c, 0, 58, 25
1, 61072, Note_on_c, 1, 53, 0
1, 61084, Note_on_c, 0, 55, 22
1, 61092, Note_on_c, 1, 57, 0
1, 61100, Control_c, 0, 64, 127
1, 61132, Note_on_c, 1, 45, 0
1, 61132, Note_on_c, 0, 55, 0
1, 61136, Note_on_c, 0, 61, 0
1, 61136, Note_on_c, 0, 58, 0
1, 61140, Note_on_c, 1, 60, 0
1, 61140, Note_on_c, 0, 69, 0
1, 61296, Note_on_c, 1, 58, 62
1, 61300, Note_on_c, 1, 61, 58
1, 61300, Note_on_c, 1, 55, 53
1, 61300, Note_on_c, 1, 45, 53
1, 61328, Note_on_c, 1, 55, 0
1, 61360, Note_on_c, 1, 61, 0
1, 61364, Control_c, 0, 64, 0
1, 61380, Note_on_c, 1, 45, 0
1, 61404, Note_on_c, 1, 58, 0
1, 61432, Control_c, 1, 64, 24
1, 61436, Control_c, 1, 64, 0
1, 61452, Control_c, 0, 64, 127
1, 61452, Note_on_c, 1, 58, 62
1, 61460, Note_on_c, 1, 54, 57
1, 61460, Note_on_c, 1, 44, 62
1, 61472, Note_on_c, 1, 60, 50
1, 61580, Control_c, 1, 64, 127
1, 61708, Note_on_c, 0, 65, 61
1, 61708, Note_on_c, 0, 85, 66
1, 61708, Note_on_c, 0, 77, 77
1, 61708, Note_on_c, 0, 82, 68
1, 61708, Note_on_c, 0, 89, 57
1, 61712, Note_on_c, 0, 58, 55
1, 61712, Note_on_c, 0, 60, 57
1, 61712, Note_on_c, 0, 54, 50
1, 61728, Note_on_c, 0, 88, 46
1, 61736, Note_on_c, 0, 87, 34
1, 61752, Note_on_c, 0, 88, 0
1, 61760, Note_on_c, 0, 77, 0
1, 61768, Note_on_c, 1, 54, 0
1, 61772, Note_on_c, 0, 89, 0
1, 61772, Note_on_c, 1, 58, 0
1, 61772, Note_on_c, 0, 87, 0
1, 61788, Note_on_c, 0, 82, 0
1, 61792, Note_on_c, 0, 65, 0
1, 61804, Note_on_c, 0, 85, 0
1, 61812, Note_on_c, 0, 60, 0
1, 61812, Note_on_c, 0, 54, 0
1, 61816, Note_on_c, 0, 58, 0
1, 61816, Note_on_c, 1, 32, 54
1, 61824, Note_on_c, 1, 54, 48
1, 61832, Note_on_c, 1, 58, 55
1, 61864, Note_on_c, 0, 78, 82
1, 61864, Note_on_c, 0, 65, 52
1, 61864, Note_on_c, 0, 90, 82
1, 61864, Note_on_c, 0, 54, 56
1, 61868, Note_on_c, 0, 60, 57
1, 61872, Note_on_c, 0, 58, 61
1, 61876, Note_on_c, 0, 85, 61
1, 61944, Note_on_c, 1, 60, 0
1, 61948, Note_on_c, 0, 85, 0
1, 61948, Note_on_c, 0, 78, 0
1, 61952, Note_on_c, 0, 65, 0
1, 61964, Note_on_c, 0, 90, 0
1, 61972, Note_on_c, 0, 60, 0
1, 61984, Note_on_c, 0, 54, 0
1, 61988, Note_on_c, 0, 58, 0
1, 62004, Note_on_c, 1, 54, 0
1, 62040, Note_on_c, 1, 32, 0
1, 62044, Note_on_c, 1, 44, 0
1, 62088, Note_on_c, 0, 92, 82
1, 62088, Note_on_c, 0, 54, 59
1, 62088, Note_on_c, 0, 87, 82
1, 62088, Note_on_c, 0, 80, 75
1, 62088, Note_on_c, 0, 58, 51
1, 62100, Note_on_c, 0, 60, 50
1, 62104, Note_on_c, 0, 65, 29
1, 62120, Note_on_c, 1, 58, 0
1, 62128, Note_on_c, 0, 65, 0
1, 62140, Note_on_c, 0, 60, 0
1, 62148, Control_c, 1, 64, 0
1, 62168, Note_on_c, 0, 80, 0
1, 62172, Note_on_c, 0, 58, 0
1, 62176, Note_on_c, 0, 54, 0
1, 62176, Note_on_c, 0, 92, 0
1, 62188, Note_on_c, 0, 87, 0
1, 62188, Note_on_c, 1, 53, 56
1, 62188, Note_on_c, 1, 43, 55
1, 62188, Note_on_c, 1, 59, 54
1, 62232, Control_c, 1, 64, 127
1, 62332, Note_on_c, 1, 59, 0
1, 62332, Note_on_c, 1, 53, 0
1, 62380, Note_on_c, 0, 79, 75
1, 62380, Note_on_c, 0, 64, 63
1, 62380, Note_on_c, 0, 86, 67
1, 62380, Note_on_c, 0, 91, 66
1, 62380, Note_on_c, 0, 60, 55
1, 62392, Note_on_c, 0, 57, 51
1, 62396, Note_on_c, 0, 53, 44
1, 62424, Note_on_c, 0, 79, 0
1, 62432, Note_on_c, 0, 91, 0
1, 62436, Note_on_c, 0, 53, 0
1, 62436, Note_on_c, 0, 64, 0
1, 62452, Note_on_c, 0, 60, 0
1, 62456, Note_on_c, 0, 57, 0
1, 62464, Note_on_c, 0, 86, 0
1, 62496, Note_on_c, 0, 80, 82
1, 62496, Note_on_c, 0, 64, 56
1, 62496, Note_on_c, 0, 92, 75
1, 62500, Note_on_c, 1, 43, 0
1, 62508, Note_on_c, 0, 60, 60
1, 62512, Note_on_c, 0, 57, 63
1, 62512, Note_on_c, 0, 86, 62
1, 62512, Note_on_c, 0, 53, 42
1, 62536, Note_on_c, 0, 53, 0
1, 62536, Note_on_c, 0, 86, 0
1, 62544, Control_c, 1, 64, 0
1, 62548, Note_on_c, 0, 64, 0
1, 62552, Note_on_c, 0, 80, 0
1, 62556, Note_on_c, 0, 60, 0
1, 62564, Note_on_c, 0, 57, 0
1, 62564, Note_on_c, 1, 61, 75
1, 62564, Note_on_c, 1, 39, 65
1, 62568, Note_on_c, 0, 92, 0
1, 62568, Note_on_c, 1, 56, 79
1, 62572, Note_on_c, 1, 53, 74
1, 62608, Note_on_c, 0, 93, 75
1, 62612, Note_on_c, 0, 86, 73
1, 62612, Note_on_c, 0, 81, 67
1, 62612, Note_on_c, 0, 57, 53
1, 62612, Note_on_c, 0, 60, 60
1, 62612, Note_on_c, 0, 53, 41
1, 62612, Note_on_c, 0, 64, 47
1, 62632, Note_on_c, 0, 81, 0
1, 62640, Note_on_c, 0, 53, 0
1, 62644, Note_on_c, 0, 64, 0
1, 62652, Note_on_c, 0, 93, 0
1, 62660, Note_on_c, 0, 86, 0
1, 62668, Note_on_c, 0, 60, 0
1, 62672, Note_on_c, 0, 57, 0
1, 62708, Control_c, 1, 64, 127
1, 62716, Note_on_c, 0, 94, 78
1, 62720, Note_on_c, 0, 82, 68
1, 62728, Note_on_c, 0, 60, 42
1, 62732, Note_on_c, 0, 64, 49
1, 62740, Note_on_c, 0, 87, 40
1, 62740, Note_on_c, 0, 57, 36
1, 62756, Note_on_c, 0, 64, 0
1, 62756, Note_on_c, 0, 82, 0
1, 62764, Note_on_c, 0, 87, 0
1, 62764, Note_on_c, 0, 94, 0
1, 62776, Note_on_c, 0, 57, 0
1, 62776, Note_on_c, 0, 60, 0
1, 62780, Note_on_c, 1, 53, 0
1, 62828, Note_on_c, 0, 95, 85
1, 62828, Note_on_c, 0, 88, 82
1, 62828, Note_on_c, 0, 83, 82
1, 62836, Note_on_c, 0, 64, 67
1, 62836, Note_on_c, 0, 53, 44
1, 62836, Note_on_c, 0, 60, 64
1, 62836, Note_on_c, 0, 91, 63
1, 62836, Note_on_c, 0, 57, 57
1, 62864, Note_on_c, 1, 61, 0
1, 62880, Note_on_c, 0, 83, 0
1, 62880, Control_c, 0, 64, 0
1, 62880, Control_c, 1, 64, 0
1, 62888, Note_on_c, 0, 53, 0
1, 62888, Note_on_c, 0, 88, 0
1, 62888, Note_on_c, 1, 56, 0
1, 62888, Note_on_c, 0, 64, 0
1, 62900, Note_on_c, 0, 95, 0
1, 62904, Note_on_c, 0, 91, 0
1, 62904, Note_on_c, 1, 39, 0
1, 62908, Note_on_c, 0, 60, 0
1, 62916, Note_on_c, 0, 57, 0
1, 62944, Note_on_c, 1, 60, 64
1, 62948, Note_on_c, 1, 53, 61
1, 62948, Note_on_c, 1, 57, 61
1, 62948, Note_on_c, 1, 38, 64
1, 62956, Control_c, 1, 64, 127
1, 62960, Note_on_c, 0, 60, 63
1, 62960, Note_on_c, 0, 96, 98
1, 62960, Note_on_c, 0, 64, 75
1, 62960, Note_on_c, 0, 84, 81
1, 62960, Note_on_c, 0, 57, 71
1, 62960, Note_on_c, 0, 53, 64
1, 62960, Note_on_c, 0, 89, 80
1, 62960, Note_on_c, 0, 93, 74
1, 62960, Note_on_c, 0, 90, 58
1, 62984, Control_c, 0, 64, 127
1, 63000, Note_on_c, 1, 53, 0
1, 63008, Note_on_c, 1, 38, 0
1, 63024, Note_on_c, 1, 57, 0
1, 63056, Note_on_c, 1, 60, 0
1, 63156, Note_on_c, 0, 90, 0
1, 63184, Note_on_c, 0, 93, 0
1, 63188, Note_on_c, 0, 96, 0
1, 63228, Note_on_c, 0, 53, 0
1, 63228, Note_on_c, 0, 64, 0
1, 63232, Note_on_c, 0, 60, 0
1, 63248, Note_on_c, 0, 89, 0
1, 63248, Note_on_c, 0, 57, 0
1, 63252, Note_on_c, 0, 84, 0
1, 63336, Note_on_c, 1, 72, 75
1, 63340, Note_on_c, 1, 60, 68
1, 63340, Note_on_c, 1, 65, 85
1, 63344, Note_on_c, 1, 69, 76
1, 63344, Note_on_c, 1, 57, 55
1, 63344, Note_on_c, 1, 68, 36
1, 63352, Note_on_c, 1, 53, 50
1, 63360, Note_on_c, 1, 50, 34
1, 63388, Note_on_c, 1, 60, 0
1, 63408, Note_on_c, 1, 57, 0
1, 63432, Note_on_c, 1, 69, 0
1, 63432, Note_on_c, 1, 68, 0
1, 63436, Note_on_c, 1, 53, 0
1, 63436, Note_on_c, 1, 72, 0
1, 63440, Note_on_c, 1, 50, 0
1, 63464, Note_on_c, 1, 65, 0
1, 63480, Note_on_c, 0, 60, 37
1, 63480, Note_on_c, 0, 93, 55
1, 63492, Note_on_c, 0, 86, 48
1, 63504, Note_on_c, 0, 81, 27
1, 63508, Note_on_c, 0, 60, 0
1, 63508, Note_on_c, 0, 89, 42
1, 63516, Note_on_c, 0, 86, 0
1, 63528, Note_on_c, 0, 81, 0
1, 63532, Note_on_c, 0, 93, 0
1, 63532, Note_on_c, 0, 89, 0
1, 63596, Note_on_c, 0, 64, 71
1, 63596, Note_on_c, 0, 60, 64
1, 63596, Note_on_c, 0, 96, 94
1, 63596, Note_on_c, 0, 84, 82
1, 63596, Note_on_c, 0, 89, 82
1, 63596, Note_on_c, 0, 53, 52
1, 63596, Note_on_c, 0, 57, 63
1, 63616, Note_on_c, 0, 93, 57
1, 63636, Note_on_c, 0, 93, 0
1, 63648, Note_on_c, 0, 64, 0
1, 63656, Note_on_c, 0, 60, 0
1, 63660, Note_on_c, 0, 53, 0
1, 63664, Note_on_c, 0, 96, 0
1, 63668, Note_on_c, 0, 84, 0
1, 63668, Note_on_c, 0, 89, 0
1, 63676, Control_c, 0, 64, 0
1, 63680, Control_c, 1, 64, 0
1, 63688, Note_on_c, 0, 57, 0
1, 63716, Note_on_c, 1, 71, 71
1, 63720, Note_on_c, 1, 63, 68
1, 63720, Note_on_c, 1, 43, 62
1, 63724, Note_on_c, 1, 53, 58
1, 63728, Note_on_c, 1, 59, 58
1, 63744, Note_on_c, 0, 95, 66
1, 63744, Note_on_c, 0, 64, 61
1, 63744, Note_on_c, 0, 83, 72
1, 63744, Note_on_c, 0, 88, 70
1, 63744, Note_on_c, 0, 59, 60
1, 63744, Note_on_c, 0, 53, 51
1, 63744, Note_on_c, 0, 91, 63
1, 63748, Control_c, 1, 64, 127
1, 63760, Control_c, 0, 64, 127
1, 63768, Note_on_c, 0, 57, 37
1, 63784, Note_on_c, 1, 43, 0
1, 63792, Note_on_c, 1, 59, 0
1, 63808, Note_on_c, 0, 83, 0
1, 63816, Note_on_c, 0, 88, 0
1, 63816, Note_on_c, 1, 53, 0
1, 63828, Note_on_c, 0, 91, 0
1, 63832, Note_on_c, 1, 63, 0
1, 63836, Note_on_c, 0, 95, 0
1, 63848, Note_on_c, 1, 71, 0
1, 63864, Note_on_c, 0, 64, 0
1, 63868, Note_on_c, 0, 57, 0
1, 63872, Note_on_c, 0, 53, 0
1, 63872, Note_on_c, 0, 59, 0
1, 63984, Note_on_c, 0, 98, 81
1, 63984, Note_on_c, 0, 64, 74
1, 63988, Note_on_c, 0, 59, 64
1, 63992, Note_on_c, 0, 53, 57
1, 63996, Note_on_c, 0, 86, 48
1, 63996, Note_on_c, 0, 91, 57
1, 63996, Note_on_c, 0, 92, 48
1, 63996, Note_on_c, 0, 57, 60
1, 63996, Note_on_c, 0, 95, 51
1, 63996, Note_on_c, 0, 100, 32
1, 63996, Note_on_c, 0, 88, 51
1, 64020, Note_on_c, 0, 95, 0
1, 64028, Note_on_c, 0, 100, 0
1, 64032, Note_on_c, 0, 88, 0
1, 64040, Note_on_c, 0, 86, 0
1, 64040, Control_c, 0, 64, 0
1, 64044, Note_on_c, 0, 92, 0
1, 64048, Note_on_c, 0, 98, 0
1, 64048, Note_on_c, 0, 91, 0
1, 64060, Note_on_c, 0, 64, 0
1, 64064, Note_on_c, 0, 53, 0
1, 64072, Note_on_c, 0, 57, 0
1, 64076, Control_c, 1, 64, 0
1, 64088, Note_on_c, 0, 59, 0
1, 64088, Note_on_c, 1, 73, 80
1, 64092, Note_on_c, 1, 63, 68
1, 64096, Note_on_c, 1, 65, 75
1, 64096, Note_on_c, 1, 69, 72
1, 64100, Note_on_c, 1, 53, 54
1, 64100, Note_on_c, 1, 59, 57
1, 64136, Note_on_c, 0, 95, 75
1, 64136, Note_on_c, 0, 88, 69
1, 64140, Control_c, 0, 64, 127
1, 64140, Note_on_c, 0, 83, 66
1, 64144, Note_on_c, 0, 59, 57
1, 64144, Note_on_c, 0, 64, 57
1, 64144, Control_c, 1, 64, 127
1, 64148, Note_on_c, 0, 57, 50
1, 64148, Note_on_c, 0, 53, 45
1, 64156, Note_on_c, 0, 91, 50
1, 64200, Note_on_c, 1, 53, 0
1, 64204, Note_on_c, 0, 91, 0
1, 64212, Note_on_c, 1, 69, 0
1, 64212, Note_on_c, 1, 59, 0
1, 64220, Note_on_c, 0, 88, 0
1, 64224, Note_on_c, 1, 63, 0
1, 64224, Note_on_c, 0, 95, 0
1, 64236, Note_on_c, 0, 64, 0
1, 64240, Note_on_c, 0, 83, 0
1, 64244, Note_on_c, 1, 65, 0
1, 64244, Note_on_c, 0, 57, 0
1, 64256, Note_on_c, 0, 53, 0
1, 64256, Note_on_c, 0, 59, 0
1, 64288, Note_on_c, 1, 73, 0
1, 64336, Control_c, 0, 64, 0
1, 64364, Note_on_c, 0, 59, 49
1, 64364, Note_on_c, 0, 62, 55
1, 64364, Note_on_c, 0, 86, 60
1, 64364, Note_on_c, 0, 91, 57
1, 64364, Note_on_c, 0, 93, 56
1, 64364, Note_on_c, 0, 52, 51
1, 64364, Note_on_c, 0, 55, 58
1, 64364, Note_on_c, 0, 79, 45
1, 64380, Note_on_c, 0, 81, 41
1, 64404, Note_on_c, 0, 81, 0
1, 64416, Control_c, 1, 64, 0
1, 64448, Note_on_c, 0, 93, 0
1, 64468, Note_on_c, 1, 59, 52
1, 64468, Note_on_c, 1, 62, 69
1, 64468, Note_on_c, 1, 67, 102
1, 64468, Note_on_c, 1, 74, 96
1, 64476, Control_c, 0, 64, 127
1, 64476, Note_on_c, 1, 52, 52
1, 64500, Note_on_c, 0, 86, 0
1, 64500, Control_c, 1, 64, 127
1, 64504, Note_on_c, 0, 91, 0
1, 64528, Note_on_c, 0, 79, 0
1, 64568, Note_on_c, 0, 55, 0
1, 64568, Note_on_c, 0, 59, 0
1, 64572, Note_on_c, 0, 62, 0
1, 64584, Note_on_c, 0, 52, 0
1, 64620, Note_on_c, 1, 59, 0
1, 64620, Note_on_c, 1, 62, 0
1, 64648, Note_on_c, 1, 52, 0
1, 64664, Note_on_c, 1, 67, 0
1, 64728, Control_c, 0, 64, 0
1, 64740, Note_on_c, 0, 88, 58
1, 64744, Note_on_c, 0, 76, 51
1, 64744, Note_on_c, 0, 83, 57
1, 64744, Note_on_c, 0, 62, 42
1, 64744, Note_on_c, 0, 55, 55
1, 64744, Note_on_c, 0, 59, 47
1, 64752, Note_on_c, 0, 52, 39
1, 64756, Note_on_c, 1, 74, 0
1, 64832, Control_c, 0, 64, 127
1, 64856, Note_on_c, 1, 46, 52
1, 64856, Note_on_c, 1, 56, 43
1, 64860, Note_on_c, 1, 67, 53
1, 64864, Note_on_c, 0, 88, 0
1, 64868, Note_on_c, 1, 64, 43
1, 64884, Note_on_c, 0, 83, 0
1, 64884, Note_on_c, 0, 62, 0
1, 64888, Note_on_c, 0, 52, 0
1, 64888, Note_on_c, 0, 55, 0
1, 64896, Note_on_c, 0, 59, 0
1, 64920, Note_on_c, 0, 76, 0
1, 64932, Note_on_c, 1, 56, 0
1, 64936, Note_on_c, 1, 46, 0
1, 64948, Note_on_c, 1, 64, 0
1, 64996, Note_on_c, 1, 67, 0
1, 65056, Control_c, 0, 64, 0
1, 65084, Note_on_c, 0, 84, 92
1, 65088, Note_on_c, 0, 73, 96
1, 65088, Note_on_c, 0, 72, 80
1, 65092, Note_on_c, 0, 77, 89
1, 65096, Note_on_c, 0, 81, 72
1, 65116, Note_on_c, 1, 45, 70
1, 65120, Control_c, 0, 64, 127
1, 65144, Note_on_c, 1, 45, 0
1, 65156, Note_on_c, 0, 81, 0
1, 65172, Note_on_c, 0, 84, 0
1, 65180, Note_on_c, 0, 77, 0
1, 65180, Note_on_c, 0, 72, 0
1, 65216, Note_on_c, 0, 73, 0
1, 65248, Note_on_c, 1, 75, 85
1, 65252, Control_c, 1, 64, 0
1, 65252, Note_on_c, 1, 67, 81
1, 65252, Note_on_c, 1, 70, 83
1, 65256, Note_on_c, 1, 61, 83
1, 65260, Note_on_c, 1, 55, 75
1, 65288, Control_c, 0, 64, 0
1, 65316, Note_on_c, 0, 81, 88
1, 65316, Note_on_c, 0, 70, 83
1, 65316, Note_on_c, 0, 73, 75
1, 65316, Note_on_c, 0, 69, 75
1, 65332, Note_on_c, 0, 76, 57
1, 65360, Control_c, 0, 64, 127
1, 65372, Control_c, 1, 64, 127
1, 65408, Note_on_c, 0, 81, 0
1, 65420, Note_on_c, 0, 69, 0
1, 65424, Note_on_c, 0, 76, 0
1, 65432, Note_on_c, 0, 73, 0
1, 65448, Note_on_c, 0, 70, 0
1, 65492, Note_on_c, 1, 55, 0
1, 65508, Note_on_c, 1, 67, 0
1, 65516, Note_on_c, 1, 70, 0
1, 65528, Note_on_c, 1, 61, 0
1, 65544, Control_c, 0, 64, 0
1, 65548, Note_on_c, 0, 78, 81
1, 65556, Note_on_c, 0, 67, 61
1, 65560, Note_on_c, 0, 70, 74
1, 65560, Note_on_c, 0, 66, 72
1, 65572, Note_on_c, 0, 73, 54
1, 65572, Note_on_c, 0, 69, 56
1, 65592, Note_on_c, 0, 69, 0
1, 65616, Note_on_c, 1, 75, 0
1, 65624, Note_on_c, 0, 73, 0
1, 65636, Note_on_c, 1, 61, 57
1, 65644, Note_on_c, 1, 70, 54
1, 65648, Control_c, 0, 64, 127
1, 65648, Note_on_c, 1, 67, 49
1, 65716, Note_on_c, 0, 67, 0
1, 65720, Note_on_c, 0, 70, 0
1, 65720, Note_on_c, 0, 78, 0
1, 65740, Note_on_c, 0, 66, 0
1, 65744, Note_on_c, 1, 61, 0
1, 65776, Note_on_c, 0, 63, 56
1, 65784, Note_on_c, 1, 67, 0
1, 65784, Note_on_c, 0, 73, 61
1, 65784, Note_on_c, 0, 67, 56
1, 65784, Note_on_c, 0, 70, 60
1, 65840, Note_on_c, 0, 67, 0
1, 65864, Note_on_c, 0, 63, 0
1, 65872, Note_on_c, 0, 73, 0
1, 65892, Note_on_c, 0, 70, 0
1, 65904, Note_on_c, 0, 65, 54
1, 65908, Note_on_c, 0, 60, 60
1, 65924, Control_c, 0, 64, 0
1, 65928, Note_on_c, 0, 65, 0
1, 65936, Note_on_c, 1, 70, 0
1, 66004, Note_on_c, 0, 60, 0
1, 66012, Control_c, 0, 64, 127
1, 66024, Note_on_c, 0, 65, 60
1, 66024, Control_c, 1, 64, 0
1, 66028, Note_on_c, 0, 76, 63
1, 66028, Note_on_c, 0, 72, 60
1, 66028, Note_on_c, 0, 69, 62
1, 66028, Note_on_c, 0, 64, 69
1, 66044, Note_on_c, 1, 76, 80
1, 66044, Note_on_c, 1, 69, 69
1, 66044, Note_on_c, 1, 65, 71
1, 66048, Note_on_c, 1, 60, 53
1, 66052, Note_on_c, 1, 50, 52
1, 66056, Note_on_c, 1, 57, 46
1, 66096, Control_c, 1, 64, 127
1, 66200, Note_on_c, 1, 50, 0
1, 66204, Note_on_c, 1, 57, 0
1, 66220, Note_on_c, 0, 76, 0
1, 66240, Note_on_c, 1, 60, 0
1, 66252, Note_on_c, 1, 69, 0
1, 66268, Note_on_c, 1, 65, 0
1, 66272, Note_on_c, 0, 72, 0
1, 66312, Note_on_c, 0, 69, 0
1, 66320, Note_on_c, 0, 65, 0
1, 66408, Note_on_c, 1, 76, 0
1, 66416, Note_on_c, 0, 64, 0
1, 66432, Note_on_c, 0, 62, 57
1, 66432, Note_on_c, 0, 65, 56
1, 66432, Note_on_c, 0, 69, 64
1, 66432, Note_on_c, 0, 74, 58
1, 66432, Note_on_c, 1, 64, 56
1, 66436, Note_on_c, 1, 69, 54
1, 66436, Note_on_c, 1, 65, 48
1, 66496, Note_on_c, 0, 62, 0
1, 66500, Note_on_c, 0, 69, 0
1, 66512, Note_on_c, 0, 74, 0
1, 66512, Note_on_c, 0, 65, 0
1, 66536, Note_on_c, 1, 64, 0
1, 66552, Note_on_c, 1, 65, 0
1, 66572, Note_on_c, 1, 69, 0
1, 66640, Control_c, 0, 64, 0
1, 66688, Note_on_c, 0, 62, 81
1, 66692, Note_on_c, 0, 56, 73
1, 66692, Note_on_c, 0, 71, 82
1, 66692, Note_on_c, 0, 67, 76
1, 66752, Control_c, 1, 64, 0
1, 66764, Note_on_c, 0, 62, 0
1, 66784, Note_on_c, 1, 68, 58
1, 66792, Note_on_c, 0, 67, 0
1, 66792, Note_on_c, 1, 77, 61
1, 66796, Note_on_c, 1, 62, 39
1, 66800, Note_on_c, 1, 52, 38
1, 66808, Note_on_c, 0, 71, 0
1, 66836, Control_c, 0, 64, 127
1, 66836, Control_c, 1, 64, 127
1, 66860, Note_on_c, 0, 65, 78
1, 66864, Note_on_c, 0, 74, 77
1, 66864, Note_on_c, 0, 59, 75
1, 66864, Note_on_c, 0, 70, 67
1, 66872, Note_on_c, 0, 68, 41
1, 66880, Note_on_c, 1, 52, 0
1, 66896, Note_on_c, 0, 68, 0
1, 66904, Note_on_c, 0, 65, 0
1, 66912, Note_on_c, 0, 70, 0
1, 66924, Note_on_c, 1, 62, 0
1, 66928, Note_on_c, 1, 77, 0
1, 66928, Note_on_c, 1, 68, 0
1, 66932, Note_on_c, 0, 74, 0
1, 67008, Note_on_c, 0, 56, 0
1, 67020, Control_c, 0, 64, 0
1, 67052, Note_on_c, 0, 59, 0
1, 67068, Note_on_c, 0, 68, 82
1, 67068, Note_on_c, 0, 77, 73
1, 67072, Note_on_c, 0, 62, 67
1, 67076, Control_c, 0, 64, 127
1, 67116, Note_on_c, 0, 77, 0
1, 67128, Control_c, 0, 64, 0
1, 67156, Note_on_c, 0, 68, 0
1, 67164, Note_on_c, 1, 65, 45
1, 67172, Note_on_c, 1, 56, 49
1, 67184, Note_on_c, 1, 62, 36
1, 67188, Note_on_c, 0, 62, 0
1, 67212, Note_on_c, 0, 65, 62
1, 67228, Note_on_c, 0, 80, 61
1, 67244, Note_on_c, 1, 62, 0
1, 67248, Note_on_c, 0, 80, 0
1, 67276, Note_on_c, 1, 65, 0
1, 67300, Control_c, 0, 64, 127
1, 67304, Note_on_c, 1, 56, 0
1, 67420, Note_on_c, 0, 83, 73
1, 67420, Note_on_c, 0, 80, 68
1, 67424, Note_on_c, 0, 68, 78
1, 67428, Note_on_c, 0, 77, 75
1, 67452, Note_on_c, 0, 65, 0
1, 67480, Note_on_c, 0, 77, 0
1, 67496, Note_on_c, 0, 80, 0
1, 67500, Note_on_c, 0, 68, 0
1, 67500, Control_c, 1, 64, 0
1, 67516, Note_on_c, 0, 83, 0
1, 67524, Control_c, 0, 64, 0
1, 67544, Note_on_c, 1, 64, 42
1, 67544, Note_on_c, 1, 67, 50
1, 67548, Note_on_c, 1, 76, 56
1, 67552, Note_on_c, 1, 57, 39
1, 67560, Control_c, 1, 64, 127
1, 67560, Note_on_c, 1, 60, 48
1, 67584, Note_on_c, 0, 71, 68
1, 67584, Note_on_c, 0, 80, 78
1, 67588, Note_on_c, 0, 86, 72
1, 67596, Note_on_c, 0, 76, 46
1, 67612, Note_on_c, 1, 60, 0
1, 67612, Note_on_c, 1, 64, 0
1, 67612, Note_on_c, 0, 77, 34
1, 67616, Note_on_c, 0, 71, 0
1, 67620, Note_on_c, 0, 76, 0
1, 67640, Note_on_c, 0, 77, 0
1, 67640, Note_on_c, 1, 76, 0
1, 67644, Note_on_c, 0, 86, 0
1, 67652, Note_on_c, 1, 67, 0
1, 67656, Note_on_c, 0, 80, 0
1, 67660, Note_on_c, 1, 57, 0
1, 67788, Control_c, 0, 64, 127
1, 67808, Note_on_c, 0, 69, 65
1, 67808, Note_on_c, 0, 84, 68
1, 67816, Note_on_c, 0, 74, 57
1, 67820, Note_on_c, 0, 76, 57
1, 67820, Note_on_c, 0, 79, 49
1, 67840, Note_on_c, 0, 79, 0
1, 67856, Note_on_c, 0, 74, 0
1, 67856, Note_on_c, 0, 84, 0
1, 67860, Note_on_c, 0, 76, 0
1, 67872, Note_on_c, 0, 69, 0
1, 67924, Control_c, 0, 64, 0
1, 67936, Note_on_c, 1, 60, 52
1, 67936, Note_on_c, 1, 55, 41
1, 67944, Note_on_c, 1, 45, 38
1, 67948, Control_c, 0, 64, 127
1, 67948, Note_on_c, 1, 67, 48
1, 68024, Note_on_c, 1, 67, 0
1, 68028, Note_on_c, 1, 55, 0
1, 68044, Note_on_c, 1, 45, 0
1, 68044, Note_on_c, 1, 60, 0
1, 68212, Note_on_c, 0, 70, 83
1, 68216, Note_on_c, 0, 60, 77
1, 68224, Note_on_c, 0, 54, 43
1, 68232, Note_on_c, 0, 44, 33
1, 68244, Control_c, 0, 64, 24
1, 68244, Note_on_c, 0, 68, 29
1, 68248, Control_c, 0, 64, 0
1, 68272, Note_on_c, 0, 54, 0
1, 68280, Note_on_c, 0, 68, 0
1, 68280, Note_on_c, 0, 60, 0
1, 68280, Control_c, 1, 64, 0
1, 68284, Note_on_c, 0, 70, 0
1, 68292, Note_on_c, 0, 44, 0
1, 68320, Note_on_c, 1, 58, 42
1, 68328, Note_on_c, 1, 43, 42
1, 68328, Note_on_c, 1, 62, 45
1, 68336, Note_on_c, 1, 53, 36
1, 68340, Control_c, 1, 64, 127
1, 68408, Note_on_c, 0, 69, 56
1, 68412, Note_on_c, 0, 43, 52
1, 68412, Note_on_c, 0, 58, 51
1, 68412, Note_on_c, 0, 62, 61
1, 68416, Note_on_c, 1, 43, 0
1, 68420, Note_on_c, 1, 58, 0
1, 68424, Note_on_c, 0, 65, 37
1, 68428, Note_on_c, 0, 53, 42
1, 68436, Note_on_c, 1, 62, 0
1, 68456, Note_on_c, 1, 53, 0
1, 68508, Note_on_c, 0, 43, 0
1, 68512, Control_c, 0, 64, 127
1, 68548, Control_c, 0, 64, 0
1, 68552, Note_on_c, 0, 65, 0
1, 68572, Note_on_c, 0, 58, 0
1, 68576, Note_on_c, 0, 53, 0
1, 68580, Note_on_c, 0, 62, 0
1, 68604, Note_on_c, 0, 69, 0
1, 68608, Control_c, 0, 64, 127
1, 68708, Control_c, 0, 64, 0
1, 68708, Note_on_c, 1, 73, 49
1, 68712, Note_on_c, 1, 64, 43
1, 68712, Note_on_c, 1, 68, 49
1, 68720, Control_c, 1, 64, 0
1, 68724, Note_on_c, 1, 58, 45
1, 68748, Note_on_c, 0, 66, 58
1, 68748, Note_on_c, 0, 64, 59
1, 68748, Control_c, 1, 64, 127
1, 68760, Note_on_c, 0, 72, 46
1, 68764, Note_on_c, 0, 68, 67
1, 68772, Note_on_c, 0, 70, 46
1, 68776, Note_on_c, 0, 64, 0
1, 68788, Control_c, 0, 64, 127
1, 68816, Note_on_c, 0, 64, 22
1, 68868, Note_on_c, 1, 64, 0
1, 68928, Note_on_c, 1, 73, 0
1, 68940, Note_on_c, 0, 64, 0
1, 68940, Note_on_c, 1, 68, 0
1, 68960, Note_on_c, 1, 58, 0
1, 69032, Note_on_c, 0, 68, 0
1, 69092, Note_on_c, 0, 66, 0
1, 69100, Control_c, 0, 64, 0
1, 69104, Note_on_c, 0, 72, 0
1, 69104, Note_on_c, 0, 70, 0
1, 69112, Note_on_c, 1, 64, 47
1, 69116, Note_on_c, 1, 72, 42
1, 69116, Note_on_c, 1, 69, 49
1, 69120, Note_on_c, 0, 69, 66
1, 69124, Note_on_c, 0, 64, 43
1, 69144, Note_on_c, 0, 57, 46
1, 69152, Control_c, 1, 64, 0
1, 69176, Note_on_c, 0, 57, 0
1, 69220, Control_c, 0, 64, 127
1, 69228, Note_on_c, 0, 57, 13
1, 69308, Note_on_c, 1, 64, 0
1, 69308, Control_c, 1, 64, 127
1, 69316, Note_on_c, 1, 69, 0
1, 69324, Note_on_c, 0, 57, 0
1, 69336, Note_on_c, 1, 72, 0
1, 69344, Note_on_c, 0, 64, 0
1, 69360, Note_on_c, 1, 54, 53
1, 69364, Note_on_c, 1, 64, 55
1, 69372, Note_on_c, 1, 69, 57
1, 69372, Control_c, 1, 64, 0
1, 69380, Note_on_c, 1, 60, 44
1, 69424, Control_c, 1, 64, 127
1, 69516, Note_on_c, 0, 69, 0
1, 69516, Control_c, 0, 64, 0
1, 69536, Note_on_c, 0, 57, 45
1, 69548, Note_on_c, 0, 60, 35
1, 69548, Note_on_c, 0, 64, 22
1, 69572, Note_on_c, 1, 64, 0
1, 69580, Note_on_c, 1, 60, 0
1, 69592, Note_on_c, 1, 69, 0
1, 69604, Note_on_c, 1, 54, 0
1, 69744, Note_on_c, 1, 54, 57
1, 69748, Note_on_c, 1, 64, 55
1, 69748, Note_on_c, 1, 69, 57
1, 69764, Note_on_c, 0, 54, 58
1, 69768, Note_on_c, 0, 57, 0
1, 69768, Note_on_c, 1, 60, 36
1, 69800, Note_on_c, 0, 64, 0
1, 69812, Note_on_c, 1, 64, 0
1, 69812, Note_on_c, 1, 60, 0
1, 69840, Note_on_c, 0, 60, 0
1, 69848, Note_on_c, 1, 54, 0
1, 69860, Note_on_c, 0, 54, 0
1, 69864, Note_on_c, 1, 69, 0
1, 69872, Control_c, 1, 64, 0
1, 69904, Note_on_c, 0, 62, 31
1, 69908, Note_on_c, 1, 63, 58
1, 69912, Note_on_c, 0, 60, 35
1, 69912, Note_on_c, 0, 56, 47
1, 69920, Note_on_c, 0, 53, 39
1, 69920, Note_on_c, 1, 68, 51
1, 69924, Note_on_c, 1, 60, 45
1, 69928, Note_on_c, 1, 53, 40
1, 70036, Note_on_c, 0, 62, 0
1, 70048, Note_on_c, 1, 60, 0
1, 70064, Note_on_c, 1, 63, 0
1, 70068, Control_c, 1, 64, 127
1, 70084, Note_on_c, 1, 53, 0
1, 70100, Note_on_c, 1, 68, 0
1, 70100, Note_on_c, 0, 70, 63
1, 70108, Note_on_c, 0, 60, 0
1, 70124, Control_c, 1, 64, 0
1, 70136, Note_on_c, 0, 68, 57
1, 70148, Note_on_c, 0, 56, 0
1, 70176, Note_on_c, 0, 70, 0
1, 70208, Note_on_c, 0, 68, 0
1, 70208, Note_on_c, 0, 67, 54
1, 70224, Control_c, 1, 64, 127
1, 70248, Note_on_c, 1, 68, 53
1, 70248, Note_on_c, 1, 63, 49
1, 70252, Note_on_c, 1, 60, 46
1, 70252, Note_on_c, 1, 53, 45
1, 70268, Note_on_c, 0, 67, 0
1, 70288, Note_on_c, 0, 60, 40
1, 70288, Note_on_c, 0, 56, 38
1, 70296, Note_on_c, 0, 62, 20
1, 70312, Note_on_c, 0, 68, 57
1, 70360, Note_on_c, 1, 60, 0
1, 70384, Note_on_c, 0, 68, 0
1, 70388, Note_on_c, 0, 60, 0
1, 70400, Note_on_c, 0, 62, 0
1, 70400, Note_on_c, 0, 70, 57
1, 70404, Note_on_c, 1, 63, 0
1, 70404, Note_on_c, 1, 53, 0
1, 70448, Note_on_c, 0, 70, 0
1, 70464, Note_on_c, 0, 53, 0
1, 70468, Note_on_c, 1, 68, 0
1, 70480, Note_on_c, 0, 56, 0
1, 70484, Note_on_c, 0, 72, 68
1, 70540, Note_on_c, 0, 72, 0
1, 70560, Control_c, 1, 64, 0
1, 70564, Note_on_c, 0, 74, 79
1, 70624, Note_on_c, 0, 74, 0
1, 70628, Note_on_c, 1, 67, 48
1, 70628, Note_on_c, 1, 52, 42
1, 70628, Note_on_c, 1, 62, 45
1, 70628, Note_on_c, 1, 59, 37
1, 70636, Note_on_c, 0, 59, 36
1, 70636, Note_on_c, 0, 55, 43
1, 70648, Note_on_c, 0, 62, 16
1, 70652, Note_on_c, 0, 52, 25
1, 70660, Note_on_c, 0, 75, 73
1, 70676, Control_c, 1, 64, 127
1, 70720, Note_on_c, 0, 75, 0
1, 70752, Note_on_c, 0, 62, 0
1, 70764, Note_on_c, 0, 76, 75
1, 70784, Note_on_c, 1, 52, 0
1, 70784, Note_on_c, 1, 59, 0
1, 70796, Note_on_c, 1, 67, 0
1, 70800, Note_on_c, 0, 59, 0
1, 70804, Note_on_c, 1, 62, 0
1, 70816, Note_on_c, 0, 55, 0
1, 70820, Note_on_c, 0, 76, 0
1, 70856, Note_on_c, 0, 79, 84
1, 70916, Note_on_c, 0, 79, 0
1, 70968, Note_on_c, 0, 67, 61
1, 70996, Note_on_c, 0, 62, 25
1, 71012, Note_on_c, 0, 55, 28
1, 71024, Note_on_c, 1, 62, 51
1, 71028, Note_on_c, 0, 67, 0
1, 71028, Note_on_c, 1, 67, 47
1, 71028, Note_on_c, 1, 59, 42
1, 71064, Note_on_c, 1, 59, 0
1, 71080, Note_on_c, 0, 67, 50
1, 71100, Note_on_c, 0, 59, 1
1, 71124, Note_on_c, 1, 67, 0
1, 71128, Note_on_c, 0, 52, 0
1, 71140, Note_on_c, 0, 55, 0
1, 71140, Note_on_c, 0, 67, 0
1, 71152, Note_on_c, 1, 62, 0
1, 71156, Note_on_c, 0, 59, 0
1, 71184, Note_on_c, 0, 62, 0
1, 71188, Note_on_c, 0, 67, 57
1, 71240, Note_on_c, 0, 67, 0
1, 71288, Note_on_c, 0, 67, 63
1, 71336, Note_on_c, 0, 67, 0
1, 71372, Control_c, 1, 64, 0
1, 71388, Note_on_c, 0, 67, 57
1, 71396, Note_on_c, 0, 60, 38
1, 71400, Note_on_c, 1, 66, 72
1, 71404, Note_on_c, 0, 51, 42
1, 71404, Note_on_c, 1, 63, 77
1, 71404, Note_on_c, 1, 74, 69
1, 71408, Note_on_c, 0, 54, 36
1, 71408, Note_on_c, 1, 62, 71
1, 71420, Note_on_c, 0, 57, 43
1, 71420, Note_on_c, 1, 69, 42
1, 71444, Note_on_c, 0, 67, 0
1, 71472, Control_c, 1, 64, 127
1, 71508, Note_on_c, 0, 67, 60
1, 71556, Note_on_c, 1, 69, 0
1, 71564, Note_on_c, 0, 60, 0
1, 71564, Note_on_c, 1, 74, 0
1, 71576, Note_on_c, 1, 63, 0
1, 71584, Note_on_c, 1, 62, 0
1, 71588, Note_on_c, 1, 66, 0
1, 71596, Note_on_c, 0, 57, 0
1, 71644, Note_on_c, 1, 74, 72
1, 71644, Note_on_c, 1, 62, 58
1, 71644, Note_on_c, 1, 63, 64
1, 71648, Note_on_c, 0, 67, 0
1, 71652, Note_on_c, 0, 54, 0
1, 71652, Note_on_c, 1, 66, 50
1, 71684, Note_on_c, 0, 66, 62
1, 71712, Control_c, 1, 64, 0
1, 71716, Note_on_c, 1, 66, 0
1, 71716, Note_on_c, 1, 63, 0
1, 71720, Note_on_c, 1, 74, 0
1, 71752, Note_on_c, 1, 62, 0
1, 71780, Note_on_c, 0, 66, 0
1, 71784, Control_c, 1, 64, 127
1, 71788, Note_on_c, 0, 60, 35
1, 71788, Note_on_c, 1, 63, 60
1, 71792, Note_on_c, 1, 60, 63
1, 71796, Note_on_c, 0, 54, 36
1, 71796, Note_on_c, 1, 72, 52
1, 71796, Note_on_c, 1, 66, 45
1, 71808, Note_on_c, 0, 67, 53
1, 71812, Note_on_c, 1, 60, 0
1, 71836, Note_on_c, 1, 72, 0
1, 71864, Note_on_c, 1, 63, 0
1, 71876, Note_on_c, 1, 66, 0
1, 71904, Note_on_c, 0, 51, 0
1, 71936, Note_on_c, 0, 54, 0
1, 71968, Note_on_c, 0, 60, 0
1, 72016, Note_on_c, 0, 67, 0
1, 72052, Control_c, 1, 64, 0
1, 72056, Note_on_c, 0, 68, 68
1, 72056, Note_on_c, 1, 60, 55
1, 72056, Note_on_c, 1, 65, 57
1, 72056, Note_on_c, 1, 57, 56
1, 72060, Note_on_c, 1, 50, 48
1, 72060, Note_on_c, 1, 69, 54
1, 72124, Note_on_c, 1, 57, 0
1, 72132, Note_on_c, 1, 69, 0
1, 72132, Control_c, 1, 64, 127
1, 72144, Note_on_c, 1, 65, 0
1, 72144, Note_on_c, 1, 60, 0
1, 72160, Note_on_c, 0, 68, 0
1, 72160, Note_on_c, 1, 50, 0
1, 72160, Note_on_c, 0, 60, 27
1, 72164, Note_on_c, 0, 57, 37
1, 72168, Note_on_c, 0, 53, 36
1, 72172, Note_on_c, 0, 50, 35
1, 72204, Note_on_c, 0, 69, 48
1, 72268, Note_on_c, 0, 69, 0
1, 72312, Note_on_c, 0, 57, 0
1, 72316, Note_on_c, 0, 60, 0
1, 72328, Note_on_c, 0, 72, 62
1, 72332, Note_on_c, 0, 53, 0
1, 72388, Note_on_c, 0, 72, 0
1, 72444, Note_on_c, 0, 76, 117
1, 72448, Note_on_c, 1, 31, 48
1, 72448, Note_on_c, 1, 43, 39
1, 72452, Note_on_c, 1, 53, 54
1, 72456, Note_on_c, 1, 57, 52
1, 72460, Note_on_c, 1, 60, 48
1, 72528, Control_c, 1, 64, 0
1, 72536, Note_on_c, 1, 53, 0
1, 72540, Note_on_c, 0, 76, 0
1, 72548, Note_on_c, 1, 43, 0
1, 72552, Note_on_c, 1, 60, 0
1, 72556, Note_on_c, 1, 57, 0
1, 72564, Note_on_c, 0, 60, 40
1, 72576, Note_on_c, 0, 57, 34
1, 72576, Note_on_c, 0, 79, 111
1, 72592, Note_on_c, 0, 53, 20
1, 72604, Note_on_c, 1, 43, 38
1, 72616, Note_on_c, 1, 53, 41
1, 72620, Control_c, 1, 64, 127
1, 72632, Note_on_c, 1, 57, 36
1, 72632, Note_on_c, 1, 60, 38
1, 72660, Note_on_c, 0, 79, 0
1, 72668, Note_on_c, 0, 50, 0
1, 72672, Note_on_c, 0, 53, 0
1, 72676, Note_on_c, 0, 57, 0
1, 72704, Note_on_c, 0, 78, 81
1, 72708, Note_on_c, 1, 53, 0
1, 72712, Note_on_c, 1, 43, 0
1, 72716, Note_on_c, 1, 57, 0
1, 72720, Note_on_c, 1, 60, 0
1, 72720, Note_on_c, 1, 31, 0
1, 72744, Note_on_c, 0, 60, 0
1, 72784, Note_on_c, 0, 78, 0
1, 72832, Note_on_c, 0, 77, 81
1, 72852, Note_on_c, 1, 31, 46
1, 72856, Note_on_c, 1, 43, 40
1, 72856, Note_on_c, 1, 53, 52
1, 72860, Note_on_c, 1, 60, 50
1, 72864, Note_on_c, 1, 57, 46
1, 72912, Note_on_c, 1, 57, 0
1, 72916, Note_on_c, 1, 43, 0
1, 72920, Note_on_c, 1, 53, 0
1, 72924, Note_on_c, 1, 31, 0
1, 72928, Note_on_c, 1, 60, 0
1, 72932, Note_on_c, 0, 77, 0
1, 72948, Control_c, 1, 64, 0
1, 72964, Note_on_c, 0, 73, 60
1, 72968, Note_on_c, 0, 59, 39
1, 72968, Note_on_c, 0, 64, 31
1, 72976, Note_on_c, 0, 53, 33
1, 73028, Note_on_c, 1, 43, 48
1, 73032, Note_on_c, 1, 64, 49
1, 73032, Note_on_c, 1, 53, 43
1, 73036, Note_on_c, 1, 31, 39
1, 73040, Note_on_c, 1, 56, 48
1, 73052, Note_on_c, 1, 59, 43
1, 73072, Note_on_c, 0, 73, 0
1, 73100, Note_on_c, 0, 76, 68
1, 73120, Note_on_c, 1, 31, 0
1, 73120, Note_on_c, 1, 43, 0
1, 73120, Note_on_c, 1, 53, 0
1, 73128, Note_on_c, 1, 56, 0
1, 73128, Note_on_c, 1, 59, 0
1, 73140, Note_on_c, 1, 64, 0
1, 73144, Control_c, 1, 64, 127
1, 73156, Control_c, 1, 64, 0
1, 73172, Note_on_c, 0, 53, 0
1, 73176, Note_on_c, 0, 76, 0
1, 73188, Note_on_c, 0, 59, 0
1, 73192, Note_on_c, 0, 64, 0
1, 73220, Note_on_c, 0, 74, 74
1, 73268, Note_on_c, 1, 56, 54
1, 73276, Note_on_c, 1, 53, 48
1, 73280, Note_on_c, 1, 31, 41
1, 73284, Note_on_c, 1, 43, 42
1, 73288, Note_on_c, 1, 59, 48
1, 73296, Note_on_c, 1, 64, 31
1, 73308, Note_on_c, 1, 31, 0
1, 73332, Note_on_c, 1, 53, 0
1, 73332, Note_on_c, 0, 74, 0
1, 73348, Note_on_c, 1, 43, 0
1, 73352, Note_on_c, 1, 56, 0
1, 73352, Note_on_c, 1, 59, 0
1, 73368, Note_on_c, 1, 64, 0
1, 73372, Note_on_c, 0, 64, 36
1, 73372, Note_on_c, 0, 59, 43
1, 73372, Control_c, 1, 64, 127
1, 73384, Note_on_c, 0, 67, 50
1, 73384, Note_on_c, 0, 53, 31
1, 73388, Control_c, 0, 64, 127
1, 73552, Note_on_c, 0, 64, 0
1, 73564, Note_on_c, 0, 59, 0
1, 73612, Control_c, 1, 64, 40
1, 73616, Note_on_c, 0, 53, 0
1, 73616, Control_c, 1, 64, 0
1, 73620, Note_on_c, 0, 67, 0
1, 73636, Note_on_c, 1, 60, 63
1, 73640, Note_on_c, 1, 55, 59
1, 73652, Note_on_c, 0, 69, 56
1, 73652, Note_on_c, 1, 52, 42
1, 73708, Control_c, 0, 64, 0
1, 73732, Note_on_c, 1, 52, 0
1, 73748, Note_on_c, 0, 69, 0
1, 73772, Note_on_c, 0, 62, 36
1, 73780, Note_on_c, 0, 72, 69
1, 73788, Note_on_c, 0, 57, 42
1, 73796, Note_on_c, 0, 52, 27
1, 74004, Note_on_c, 0, 57, 0
1, 74004, Note_on_c, 1, 42, 60
1, 74024, Note_on_c, 0, 62, 0
1, 74048, Note_on_c, 0, 72, 0
1, 74084, Note_on_c, 0, 69, 23
1, 74112, Note_on_c, 1, 42, 0
1, 74140, Note_on_c, 1, 43, 59
1, 74156, Note_on_c, 0, 69, 0
1, 74168, Control_c, 0, 64, 127
1, 74184, Note_on_c, 0, 72, 57
1, 74188, Note_on_c, 0, 62, 26
1, 74196, Note_on_c, 0, 57, 33
1, 74244, Note_on_c, 0, 57, 0
1, 74292, Note_on_c, 0, 52, 0
1, 74308, Note_on_c, 0, 62, 0
1, 74320, Control_c, 1, 64, 127
1, 74324, Note_on_c, 0, 72, 0
1, 74468, Control_c, 0, 64, 0
1, 74536, Note_on_c, 0, 72, 61
1, 74536, Control_c, 0, 64, 127
1, 74540, Note_on_c, 0, 58, 48
1, 74540, Note_on_c, 0, 84, 57
1, 74544, Note_on_c, 0, 65, 38
1, 74548, Note_on_c, 0, 77, 57
1, 74548, Note_on_c, 0, 61, 42
1, 74552, Note_on_c, 0, 55, 37
1, 74552, Note_on_c, 0, 81, 41
1, 74592, Note_on_c, 0, 72, 0
1, 74600, Note_on_c, 0, 77, 0
1, 74608, Note_on_c, 0, 65, 0
1, 74628, Note_on_c, 0, 81, 0
1, 74644, Note_on_c, 0, 55, 0
1, 74648, Note_on_c, 0, 84, 0
1, 74652, Note_on_c, 0, 61, 0
1, 74660, Note_on_c, 0, 58, 0
1, 74788, Note_on_c, 1, 55, 0
1, 74796, Note_on_c, 0, 93, 82
1, 74796, Note_on_c, 0, 90, 59
1, 74796, Note_on_c, 0, 81, 66
1, 74804, Note_on_c, 0, 88, 68
1, 74804, Note_on_c, 0, 65, 68
1, 74804, Note_on_c, 0, 61, 62
1, 74812, Note_on_c, 1, 43, 0
1, 74812, Note_on_c, 0, 58, 56
1, 74816, Note_on_c, 0, 90, 0
1, 74816, Note_on_c, 1, 60, 0
1, 74816, Note_on_c, 0, 55, 48
1, 74836, Note_on_c, 0, 81, 0
1, 74840, Note_on_c, 0, 55, 0
1, 74844, Note_on_c, 0, 88, 0
1, 74848, Note_on_c, 0, 65, 0
1, 74860, Note_on_c, 0, 93, 0
1, 74864, Note_on_c, 0, 58, 0
1, 74868, Note_on_c, 0, 61, 0
1, 74884, Control_c, 0, 64, 0
1, 74912, Control_c, 0, 64, 127
1, 74928, Note_on_c, 0, 55, 73
1, 74928, Note_on_c, 0, 61, 66
1, 74932, Note_on_c, 0, 65, 75
1, 74932, Note_on_c, 0, 96, 107
1, 74932, Note_on_c, 0, 58, 63
1, 74932, Note_on_c, 0, 84, 87
1, 74936, Note_on_c, 0, 91, 84
1, 75072, Note_on_c, 0, 91, 0
1, 75072, Note_on_c, 0, 84, 0
1, 75080, Note_on_c, 0, 65, 0
1, 75088, Note_on_c, 0, 96, 0
1, 75092, Note_on_c, 0, 58, 0
1, 75096, Note_on_c, 0, 55, 0
1, 75104, Note_on_c, 0, 61, 0
1, 75112, Note_on_c, 1, 51, 49
1, 75164, Note_on_c, 0, 61, 48
1, 75172, Note_on_c, 0, 65, 54
1, 75172, Control_c, 1, 64, 0
1, 75176, Note_on_c, 0, 96, 78
1, 75176, Note_on_c, 0, 58, 49
1, 75188, Note_on_c, 0, 84, 63
1, 75188, Note_on_c, 0, 91, 68
1, 75192, Note_on_c, 0, 65, 0
1, 75204, Note_on_c, 1, 51, 0
1, 75228, Note_on_c, 0, 58, 0
1, 75228, Note_on_c, 0, 84, 0
1, 75244, Note_on_c, 0, 91, 0
1, 75244, Note_on_c, 0, 96, 0
1, 75248, Note_on_c, 1, 53, 46
1, 75252, Note_on_c, 1, 50, 55
1, 75256, Note_on_c, 0, 61, 0
1, 75260, Note_on_c, 1, 60, 46
1, 75264, Note_on_c, 1, 57, 41
1, 75276, Control_c, 0, 64, 0
1, 75300, Note_on_c, 0, 64, 59
1, 75300, Control_c, 1, 64, 127
1, 75312, Note_on_c, 0, 96, 75
1, 75312, Note_on_c, 0, 53, 40
1, 75312, Note_on_c, 0, 60, 49
1, 75312, Note_on_c, 0, 91, 70
1, 75312, Note_on_c, 0, 57, 52
1, 75320, Note_on_c, 0, 84, 56
1, 75348, Note_on_c, 1, 53, 0
1, 75352, Note_on_c, 1, 57, 0
1, 75360, Control_c, 0, 64, 127
1, 75368, Note_on_c, 1, 50, 0
1, 75388, Note_on_c, 1, 60, 0
1, 75496, Note_on_c, 0, 96, 0
1, 75504, Note_on_c, 0, 91, 0
1, 75516, Note_on_c, 0, 64, 0
1, 75524, Note_on_c, 0, 60, 0
1, 75528, Note_on_c, 0, 84, 0
1, 75528, Note_on_c, 0, 57, 0
1, 75532, Note_on_c, 0, 53, 0
1, 75636, Note_on_c, 1, 57, 54
1, 75636, Note_on_c, 1, 60, 56
1, 75644, Note_on_c, 1, 65, 48
1, 75652, Note_on_c, 1, 69, 41
1, 75660, Control_c, 0, 64, 0
1, 75668, Control_c, 0, 64, 127
1, 75676, Note_on_c, 0, 64, 40
1, 75680, Note_on_c, 0, 88, 56
1, 75680, Note_on_c, 0, 60, 48
1, 75680, Note_on_c, 0, 81, 57
1, 75680, Note_on_c, 0, 57, 53
1, 75680, Note_on_c, 0, 93, 57
1, 75680, Note_on_c, 0, 53, 32
1, 75716, Note_on_c, 1, 57, 0
1, 75812, Note_on_c, 1, 60, 0
1, 75816, Note_on_c, 0, 60, 0
1, 75832, Note_on_c, 0, 64, 0
1, 75844, Note_on_c, 1, 69, 0
1, 75852, Note_on_c, 0, 57, 0
1, 75864, Note_on_c, 0, 53, 0
1, 75864, Note_on_c, 1, 65, 0
1, 75892, Note_on_c, 0, 81, 0
1, 75900, Note_on_c, 0, 93, 0
1, 75916, Note_on_c, 0, 88, 0
1, 75952, Control_c, 1, 64, 0
1, 75964, Control_c, 0, 64, 0
1, 76004, Control_c, 1, 64, 127
1, 76016, Note_on_c, 1, 43, 48
1, 76016, Note_on_c, 1, 59, 49
1, 76020, Note_on_c, 1, 67, 42
1, 76028, Note_on_c, 1, 64, 48
1, 76032, Note_on_c, 1, 53, 31
1, 76040, Note_on_c, 0, 87, 58
1, 76040, Note_on_c, 0, 64, 51
1, 76040, Note_on_c, 0, 81, 61
1, 76040, Note_on_c, 0, 53, 45
1, 76040, Note_on_c, 0, 93, 52
1, 76040, Note_on_c, 0, 59, 56
1, 76060, Note_on_c, 0, 57, 42
1, 76080, Note_on_c, 1, 59, 0
1, 76080, Note_on_c, 1, 43, 0
1, 76104, Note_on_c, 1, 67, 0
1, 76112, Note_on_c, 1, 53, 0
1, 76136, Note_on_c, 1, 64, 0
1, 76164, Note_on_c, 0, 87, 0
1, 76196, Note_on_c, 0, 88, 19
1, 76256, Note_on_c, 0, 81, 0
1, 76272, Note_on_c, 0, 93, 0
1, 76288, Note_on_c, 0, 64, 0
1, 76288, Note_on_c, 0, 88, 0
1, 76292, Note_on_c, 0, 59, 0
1, 76296, Note_on_c, 0, 57, 0
1, 76300, Note_on_c, 0, 53, 0
1, 76384, Control_c, 0, 64, 127
1, 76396, Note_on_c, 1, 74, 75
1, 76396, Note_on_c, 1, 68, 65
1, 76396, Note_on_c, 1, 63, 62
1, 76396, Note_on_c, 1, 67, 56
1, 76404, Note_on_c, 1, 59, 55
1, 76404, Note_on_c, 1, 53, 50
1, 76492, Note_on_c, 1, 53, 0
1, 76496, Note_on_c, 1, 63, 0
1, 76524, Note_on_c, 1, 67, 0
1, 76524, Note_on_c, 1, 59, 0
1, 76572, Note_on_c, 1, 74, 0
1, 76588, Note_on_c, 1, 68, 0
1, 76664, Note_on_c, 0, 95, 99
1, 76664, Note_on_c, 0, 83, 89
1, 76668, Note_on_c, 0, 62, 86
1, 76676, Note_on_c, 0, 59, 73
1, 76676, Note_on_c, 0, 88, 82
1, 76676, Note_on_c, 0, 52, 75
1, 76676, Note_on_c, 0, 92, 30
1, 76676, Note_on_c, 0, 55, 70
1, 76680, Control_c, 0, 64, 0
1, 76680, Note_on_c, 0, 91, 58
1, 76688, Note_on_c, 0, 93, 44
1, 76700, Note_on_c, 0, 91, 0
1, 76700, Note_on_c, 0, 92, 0
1, 76716, Note_on_c, 0, 93, 0
1, 76736, Control_c, 1, 64, 0
1, 76764, Note_on_c, 0, 88, 0
1, 76768, Note_on_c, 0, 83, 0
1, 76776, Note_on_c, 1, 52, 51
1, 76780, Note_on_c, 0, 52, 0
1, 76780, Note_on_c, 0, 62, 0
1, 76780, Note_on_c, 1, 71, 60
1, 76784, Note_on_c, 0, 95, 0
1, 76784, Note_on_c, 1, 59, 48
1, 76784, Note_on_c, 1, 67, 56
1, 76784, Note_on_c, 1, 62, 52
1, 76796, Note_on_c, 0, 59, 0
1, 76796, Note_on_c, 0, 55, 0
1, 76804, Control_c, 1, 64, 127
1, 76832, Control_c, 0, 64, 127
1, 76836, Note_on_c, 0, 95, 75
1, 76840, Note_on_c, 0, 62, 57
1, 76840, Note_on_c, 0, 52, 52
1, 76844, Note_on_c, 0, 88, 74
1, 76844, Note_on_c, 0, 83, 72
1, 76844, Note_on_c, 0, 55, 66
1, 76844, Note_on_c, 0, 59, 59
1, 76856, Note_on_c, 0, 91, 55
1, 76892, Note_on_c, 1, 52, 0
1, 76896, Note_on_c, 1, 62, 0
1, 76904, Note_on_c, 1, 59, 0
1, 76944, Note_on_c, 1, 67, 0
1, 76968, Note_on_c, 0, 91, 0
1, 76976, Note_on_c, 0, 95, 0
1, 76984, Note_on_c, 0, 88, 0
1, 76988, Note_on_c, 1, 71, 0
1, 77008, Note_on_c, 0, 83, 0
1, 77020, Note_on_c, 0, 52, 0
1, 77020, Note_on_c, 0, 55, 0
1, 77024, Note_on_c, 0, 59, 0
1, 77028, Note_on_c, 0, 62, 0
1, 77112, Control_c, 0, 64, 0
1, 77156, Note_on_c, 1, 73, 59
1, 77160, Note_on_c, 1, 68, 75
1, 77168, Control_c, 1, 64, 0
1, 77168, Note_on_c, 1, 61, 54
1, 77172, Note_on_c, 0, 55, 57
1, 77176, Note_on_c, 0, 91, 63
1, 77184, Note_on_c, 0, 62, 36
1, 77188, Note_on_c, 0, 86, 54
1, 77188, Note_on_c, 0, 79, 48
1, 77188, Note_on_c, 0, 59, 46
1, 77188, Note_on_c, 0, 52, 37
1, 77192, Control_c, 1, 64, 127
1, 77216, Control_c, 0, 64, 127
1, 77228, Note_on_c, 1, 61, 0
1, 77268, Note_on_c, 1, 73, 0
1, 77280, Note_on_c, 0, 52, 0
1, 77292, Note_on_c, 0, 91, 0
1, 77304, Note_on_c, 0, 86, 0
1, 77304, Note_on_c, 0, 59, 0
1, 77304, Note_on_c, 1, 68, 0
1, 77312, Note_on_c, 0, 55, 0
1, 77320, Note_on_c, 0, 62, 0
1, 77336, Note_on_c, 0, 79, 0
1, 77492, Control_c, 0, 64, 0
1, 77496, Control_c, 1, 64, 0
1, 77528, Control_c, 1, 64, 127
1, 77536, Note_on_c, 1, 72, 56
1, 77540, Note_on_c, 1, 61, 52
1, 77544, Note_on_c, 1, 65, 58
1, 77548, Note_on_c, 1, 60, 51
1, 77556, Note_on_c, 0, 61, 48
1, 77556, Note_on_c, 0, 76, 55
1, 77556, Note_on_c, 0, 88, 56
1, 77556, Note_on_c, 0, 65, 46
1, 77556, Note_on_c, 1, 69, 46
1, 77564, Note_on_c, 0, 55, 42
1, 77564, Note_on_c, 0, 83, 51
1, 77672, Control_c, 0, 64, 127
1, 77696, Note_on_c, 1, 69, 0
1, 77712, Note_on_c, 1, 65, 0
1, 77740, Note_on_c, 1, 61, 0
1, 77808, Note_on_c, 0, 65, 0
1, 77816, Note_on_c, 1, 72, 0
1, 77836, Note_on_c, 0, 76, 0
1, 77856, Note_on_c, 0, 61, 0
1, 77872, Note_on_c, 1, 60, 0
1, 77876, Note_on_c, 0, 55, 0
1, 77924, Note_on_c, 0, 83, 0
1, 77936, Note_on_c, 0, 55, 32
1, 77944, Note_on_c, 0, 61, 38
1, 77944, Note_on_c, 0, 64, 43
1, 77984, Note_on_c, 0, 58, 22
1, 77992, Note_on_c, 0, 88, 0
1, 78084, Note_on_c, 0, 64, 0
1, 78092, Note_on_c, 0, 55, 0
1, 78092, Note_on_c, 0, 58, 0
1, 78116, Note_on_c, 0, 61, 0
1, 78160, Note_on_c, 1, 69, 70
1, 78160, Note_on_c, 1, 61, 68
1, 78168, Note_on_c, 1, 57, 52
1, 78168, Note_on_c, 1, 51, 50
1, 78176, Note_on_c, 1, 65, 52
1, 78228, Note_on_c, 1, 57, 0
1, 78236, Note_on_c, 1, 65, 0
1, 78248, Note_on_c, 1, 69, 0
1, 78268, Note_on_c, 1, 61, 0
1, 78276, Control_c, 0, 64, 0
1, 78328, Note_on_c, 0, 64, 81
1, 78328, Note_on_c, 0, 60, 72
1, 78328, Note_on_c, 0, 53, 74
1, 78328, Note_on_c, 0, 57, 68
1, 78328, Note_on_c, 0, 93, 117
1, 78328, Note_on_c, 0, 81, 107
1, 78328, Note_on_c, 0, 89, 107
1, 78332, Note_on_c, 1, 51, 0
1, 78344, Control_c, 1, 64, 0
1, 78364, Control_c, 0, 64, 127
1, 78376, Note_on_c, 1, 50, 49
1, 78376, Note_on_c, 1, 55, 49
1, 78376, Note_on_c, 1, 64, 61
1, 78380, Note_on_c, 1, 60, 54
1, 78380, Note_on_c, 1, 67, 52
1, 78440, Control_c, 1, 64, 127
1, 78496, Note_on_c, 1, 67, 0
1, 78496, Note_on_c, 0, 81, 0
1, 78504, Note_on_c, 1, 64, 0
1, 78512, Note_on_c, 0, 53, 0
1, 78512, Note_on_c, 0, 89, 0
1, 78512, Note_on_c, 0, 64, 0
1, 78528, Note_on_c, 0, 57, 0
1, 78532, Note_on_c, 0, 93, 0
1, 78532, Note_on_c, 0, 60, 0
1, 78548, Note_on_c, 1, 60, 0
1, 78552, Note_on_c, 1, 55, 0
1, 78584, Note_on_c, 0, 93, 82
1, 78592, Note_on_c, 0, 60, 58
1, 78592, Note_on_c, 0, 81, 79
1, 78592, Note_on_c, 0, 57, 57
1, 78592, Note_on_c, 0, 53, 57
1, 78592, Note_on_c, 0, 64, 65
1, 78592, Note_on_c, 0, 89, 73
1, 78616, Note_on_c, 0, 91, 40
1, 78640, Note_on_c, 1, 50, 0
1, 78644, Note_on_c, 0, 91, 0
1, 78644, Note_on_c, 0, 89, 0
1, 78656, Note_on_c, 0, 93, 0
1, 78664, Note_on_c, 0, 81, 0
1, 78672, Note_on_c, 0, 53, 0
1, 78676, Note_on_c, 0, 64, 0
1, 78684, Note_on_c, 0, 60, 0
1, 78696, Note_on_c, 0, 57, 0
1, 78700, Control_c, 0, 64, 0
1, 78724, Note_on_c, 1, 65, 56
1, 78728, Note_on_c, 1, 60, 56
1, 78728, Note_on_c, 1, 55, 41
1, 78736, Note_on_c, 1, 57, 38
1, 78740, Note_on_c, 0, 64, 50
1, 78740, Note_on_c, 0, 89, 48
1, 78740, Note_on_c, 1, 50, 42
1, 78744, Note_on_c, 0, 60, 52
1, 78744, Note_on_c, 0, 77, 58
1, 78744, Note_on_c, 0, 53, 39
1, 78744, Note_on_c, 0, 57, 66
1, 78752, Note_on_c, 1, 55, 0
1, 78760, Note_on_c, 0, 84, 53
1, 78768, Note_on_c, 1, 50, 0
1, 78772, Control_c, 0, 64, 127
1, 78804, Note_on_c, 1, 57, 0
1, 78808, Note_on_c, 1, 60, 0
1, 78816, Note_on_c, 1, 65, 0
1, 78912, Note_on_c, 0, 89, 0
1, 78916, Note_on_c, 0, 60, 0
1, 78920, Note_on_c, 0, 84, 0
1, 78924, Note_on_c, 0, 64, 0
1, 78924, Control_c, 1, 64, 0
1, 78936, Note_on_c, 0, 77, 0
1, 78948, Control_c, 1, 64, 127
1, 78956, Note_on_c, 0, 53, 0
1, 78956, Note_on_c, 1, 32, 54
1, 78960, Note_on_c, 0, 57, 0
1, 79052, Note_on_c, 1, 32, 0
1, 79056, Control_c, 1, 64, 0
1, 79076, Control_c, 0, 64, 0
1, 79096, Note_on_c, 1, 43, 61
1, 79104, Note_on_c, 1, 53, 49
1, 79108, Note_on_c, 1, 60, 56
1, 79108, Note_on_c, 1, 57, 56
1, 79120, Note_on_c, 0, 74, 60
1, 79124, Note_on_c, 0, 64, 48
1, 79124, Note_on_c, 0, 86, 53
1, 79132, Note_on_c, 0, 59, 50
1, 79132, Note_on_c, 0, 53, 40
1, 79184, Control_c, 0, 64, 127
1, 79184, Control_c, 1, 64, 127
1, 79232, Note_on_c, 0, 86, 0
1, 79256, Note_on_c, 0, 74, 0
1, 79304, Note_on_c, 1, 53, 0
1, 79312, Note_on_c, 1, 60, 0
1, 79316, Note_on_c, 1, 57, 0
1, 79344, Note_on_c, 0, 59, 0
1, 79348, Note_on_c, 0, 64, 0
1, 79368, Note_on_c, 0, 53, 0
1, 79412, Control_c, 0, 64, 0
1, 79472, Control_c, 1, 64, 0
1, 79488, Note_on_c, 1, 31, 51
1, 79492, Note_on_c, 1, 56, 50
1, 79496, Note_on_c, 1, 53, 43
1, 79504, Note_on_c, 0, 53, 41
1, 79504, Note_on_c, 0, 64, 43
1, 79504, Note_on_c, 0, 59, 51
1, 79504, Note_on_c, 0, 83, 51
1, 79504, Note_on_c, 0, 71, 42
1, 79504, Note_on_c, 1, 59, 52
1, 79508, Note_on_c, 1, 31, 0
1, 79512, Control_c, 0, 64, 88
1, 79512, Control_c, 1, 64, 127
1, 79516, Control_c, 0, 64, 127
1, 79516, Note_on_c, 0, 76, 49
1, 79528, Note_on_c, 0, 79, 39
1, 79544, Note_on_c, 1, 43, 0
1, 79576, Note_on_c, 1, 53, 0
1, 79584, Note_on_c, 1, 56, 0
1, 79592, Note_on_c, 0, 71, 0
1, 79608, Note_on_c, 0, 64, 0
1, 79612, Note_on_c, 0, 79, 0
1, 79616, Note_on_c, 0, 76, 0
1, 79628, Note_on_c, 0, 59, 0
1, 79632, Note_on_c, 1, 59, 0
1, 79648, Note_on_c, 0, 53, 0
1, 79656, Note_on_c, 0, 83, 0
1, 79808, Control_c, 1, 64, 0
1, 79848, Control_c, 0, 64, 0
1, 79852, Note_on_c, 1, 36, 42
1, 79876, Note_on_c, 1, 59, 56
1, 79876, Note_on_c, 1, 55, 57
1, 79880, Note_on_c, 1, 52, 57
1, 79880, Note_on_c, 1, 64, 47
1, 79892, Note_on_c, 0, 95, 63
1, 79896, Note_on_c, 0, 83, 50
1, 79900, Note_on_c, 0, 59, 37
1, 79904, Note_on_c, 0, 88, 50
1, 79904, Note_on_c, 0, 62, 31
1, 79904, Note_on_c, 0, 55, 47
1, 79904, Note_on_c, 0, 91, 45
1, 79904, Note_on_c, 0, 52, 36
1, 79928, Control_c, 1, 64, 127
1, 79976, Control_c, 0, 64, 127
1, 79988, Note_on_c, 1, 55, 0
1, 80012, Note_on_c, 1, 59, 0
1, 80016, Note_on_c, 1, 64, 0
1, 80044, Note_on_c, 1, 52, 0
1, 80072, Note_on_c, 0, 91, 0
1, 80072, Note_on_c, 0, 95, 0
1, 80080, Note_on_c, 0, 88, 0
1, 80088, Note_on_c, 0, 83, 0
1, 80112, Note_on_c, 0, 62, 0
1, 80120, Note_on_c, 0, 59, 0
1, 80132, Note_on_c, 0, 52, 0
1, 80132, Note_on_c, 0, 55, 0
1, 80200, Note_on_c, 1, 36, 0
1, 80216, Control_c, 0, 64, 0
1, 80248, Note_on_c, 1, 67, 69
1, 80248, Note_on_c, 1, 62, 68
1, 80252, Note_on_c, 1, 57, 67
1, 80256, Note_on_c, 1, 52, 39
1, 80272, Note_on_c, 0, 91, 56
1, 80280, Note_on_c, 0, 79, 43
1, 80288, Control_c, 0, 64, 127
1, 80292, Note_on_c, 0, 86, 50
1, 80292, Note_on_c, 0, 55, 42
1, 80292, Note_on_c, 0, 59, 40
1, 80292, Note_on_c, 0, 62, 25
1, 80300, Note_on_c, 0, 52, 26
1, 80312, Note_on_c, 1, 52, 0
1, 80336, Note_on_c, 1, 57, 0
1, 80368, Note_on_c, 1, 67, 0
1, 80392, Note_on_c, 1, 62, 0
1, 80392, Note_on_c, 0, 91, 0
1, 80400, Note_on_c, 0, 86, 0
1, 80428, Note_on_c, 0, 79, 0
1, 80432, Note_on_c, 0, 52, 0
1, 80432, Note_on_c, 0, 62, 0
1, 80444, Note_on_c, 0, 59, 0
1, 80448, Note_on_c, 0, 55, 0
1, 80580, Note_on_c, 1, 57, 66
1, 80608, Control_c, 1, 64, 0
1, 80620, Note_on_c, 1, 71, 79
1, 80624, Note_on_c, 1, 64, 82
1, 80632, Note_on_c, 1, 62, 86
1, 80632, Note_on_c, 1, 67, 58
1, 80632, Note_on_c, 1, 59, 86
1, 80660, Note_on_c, 1, 57, 0
1, 80760, Control_c, 1, 64, 127
1, 80864, Note_on_c, 1, 62, 0
1, 80884, Note_on_c, 1, 64, 0
1, 80888, Note_on_c, 1, 67, 0
1, 80948, Note_on_c, 1, 71, 0
1, 81016, Note_on_c, 1, 59, 0
1, 81016, Note_on_c, 1, 55, 63
1, 81020, Note_on_c, 1, 67, 63
1, 81020, Note_on_c, 1, 64, 60
1, 81020, Note_on_c, 1, 62, 61
1, 81076, Note_on_c, 1, 55, 0
1, 81112, Note_on_c, 1, 62, 0
1, 81116, Note_on_c, 1, 67, 0
1, 81136, Note_on_c, 1, 64, 0
1, 81352, Control_c, 1, 64, 0
1, 81412, Note_on_c, 1, 65, 57
1, 81412, Note_on_c, 1, 62, 57
1, 81420, Note_on_c, 1, 57, 50
1, 81424, Note_on_c, 1, 47, 54
1, 81440, Control_c, 1, 64, 88
1, 81440, Control_c, 1, 64, 127
1, 81468, Control_c, 0, 64, 0
1, 81480, Note_on_c, 1, 47, 0
1, 81484, Note_on_c, 1, 57, 0
1, 81488, Note_on_c, 0, 65, 60
1, 81504, Note_on_c, 1, 62, 0
1, 81516, Note_on_c, 1, 65, 0
1, 81540, Note_on_c, 0, 69, 77
1, 81584, Note_on_c, 0, 69, 0
1, 81596, Note_on_c, 0, 66, 66
1, 81600, Note_on_c, 0, 65, 0
1, 81648, Note_on_c, 0, 70, 84
1, 81692, Note_on_c, 0, 66, 0
1, 81712, Note_on_c, 0, 70, 0
1, 81716, Note_on_c, 0, 67, 55
1, 81756, Note_on_c, 0, 71, 84
1, 81804, Note_on_c, 1, 76, 68
1, 81804, Note_on_c, 1, 69, 68
1, 81808, Note_on_c, 1, 65, 68
1, 81812, Note_on_c, 0, 71, 0
1, 81812, Note_on_c, 1, 71, 61
1, 81816, Note_on_c, 0, 68, 60
1, 81816, Note_on_c, 1, 64, 67
1, 81824, Note_on_c, 0, 67, 0
1, 81876, Note_on_c, 0, 72, 81
1, 81904, Note_on_c, 0, 68, 0
1, 81932, Note_on_c, 0, 69, 54
1, 81936, Note_on_c, 0, 72, 0
1, 81940, Note_on_c, 1, 64, 0
1, 81988, Note_on_c, 1, 65, 0
1, 81988, Note_on_c, 0, 73, 52
1, 81996, Note_on_c, 1, 69, 0
1, 82004, Note_on_c, 1, 71, 0
1, 82012, Note_on_c, 0, 70, 55
1, 82028, Note_on_c, 0, 69, 0
1, 82044, Note_on_c, 0, 73, 0
1, 82044, Note_on_c, 1, 76, 0
1, 82100, Note_on_c, 0, 74, 72
1, 82136, Note_on_c, 0, 71, 43
1, 82140, Control_c, 1, 64, 0
1, 82152, Note_on_c, 0, 74, 0
1, 82176, Note_on_c, 0, 70, 0
1, 82184, Note_on_c, 1, 62, 57
1, 82184, Note_on_c, 1, 76, 63
1, 82192, Note_on_c, 1, 65, 47
1, 82196, Note_on_c, 1, 68, 44
1, 82200, Note_on_c, 1, 71, 49
1, 82204, Note_on_c, 0, 75, 81
1, 82208, Note_on_c, 0, 71, 0
1, 82220, Note_on_c, 0, 72, 42
1, 82228, Control_c, 1, 64, 127
1, 82248, Note_on_c, 0, 72, 0
1, 82280, Note_on_c, 0, 75, 0
1, 82320, Note_on_c, 0, 76, 80
1, 82348, Note_on_c, 1, 65, 0
1, 82352, Note_on_c, 1, 76, 0
1, 82388, Note_on_c, 1, 71, 0
1, 82392, Note_on_c, 0, 76, 0
1, 82412, Note_on_c, 1, 68, 0
1, 82504, Note_on_c, 0, 64, 68
1, 82508, Note_on_c, 1, 62, 0
1, 82532, Note_on_c, 0, 73, 29
1, 82560, Note_on_c, 1, 56, 51
1, 82560, Note_on_c, 1, 68, 48
1, 82564, Note_on_c, 0, 73, 0
1, 82568, Note_on_c, 1, 65, 47
1, 82608, Note_on_c, 0, 56, 48
1, 82644, Note_on_c, 1, 65, 0
1, 82644, Note_on_c, 1, 56, 0
1, 82652, Note_on_c, 0, 56, 0
1, 82704, Note_on_c, 1, 68, 0
1, 82740, Note_on_c, 0, 68, 66
1, 82760, Note_on_c, 0, 64, 0
1, 82820, Note_on_c, 0, 68, 0
1, 82844, Note_on_c, 0, 74, 80
1, 82852, Control_c, 0, 64, 127
1, 82864, Note_on_c, 0, 56, 43
1, 82888, Control_c, 1, 64, 0
1, 82892, Note_on_c, 0, 56, 0
1, 82896, Control_c, 0, 64, 0
1, 82920, Note_on_c, 0, 74, 0
1, 82928, Note_on_c, 1, 60, 57
1, 82932, Note_on_c, 1, 67, 60
1, 82932, Note_on_c, 1, 45, 43
1, 82936, Note_on_c, 1, 55, 43
1, 82976, Note_on_c, 0, 72, 65
1, 82980, Control_c, 1, 64, 127
1, 83040, Control_c, 0, 64, 127
1, 83068, Note_on_c, 1, 67, 0
1, 83104, Note_on_c, 1, 60, 0
1, 83108, Note_on_c, 1, 55, 0
1, 83124, Note_on_c, 1, 45, 0
1, 83204, Note_on_c, 0, 60, 48
1, 83252, Note_on_c, 0, 60, 0
1, 83272, Control_c, 0, 64, 0
1, 83280, Note_on_c, 0, 72, 0
1, 83308, Control_c, 1, 64, 0
1, 83312, Note_on_c, 1, 44, 49
1, 83316, Note_on_c, 1, 66, 48
1, 83324, Note_on_c, 0, 54, 58
1, 83324, Note_on_c, 0, 63, 56
1, 83324, Note_on_c, 0, 59, 50
1, 83324, Note_on_c, 1, 54, 35
1, 83324, Note_on_c, 1, 59, 34
1, 83332, Note_on_c, 0, 44, 43
1, 83344, Control_c, 0, 64, 127
1, 83392, Control_c, 1, 64, 127
1, 83412, Note_on_c, 1, 59, 0
1, 83440, Note_on_c, 1, 54, 0
1, 83468, Note_on_c, 1, 44, 0
1, 83488, Note_on_c, 1, 66, 0
1, 83488, Note_on_c, 0, 54, 0
1, 83512, Note_on_c, 0, 59, 0
1, 83528, Note_on_c, 0, 44, 0
1, 83572, Note_on_c, 0, 63, 0
1, 83640, Control_c, 1, 64, 0
1, 83692, Note_on_c, 1, 53, 45
1, 83692, Note_on_c, 1, 58, 54
1, 83700, Note_on_c, 1, 43, 39
1, 83704, Note_on_c, 1, 65, 45
1, 83708, Control_c, 0, 64, 0
1, 83712, Note_on_c, 0, 43, 45
1, 83712, Control_c, 1, 64, 127
1, 83728, Note_on_c, 0, 53, 21
1, 83772, Note_on_c, 0, 53, 0
1, 83772, Note_on_c, 1, 43, 0
1, 83788, Note_on_c, 1, 53, 0
1, 83840, Note_on_c, 1, 65, 0
1, 83868, Note_on_c, 1, 58, 0
1, 83948, Control_c, 0, 64, 127
1, 84028, Control_c, 0, 64, 0
1, 84056, Note_on_c, 0, 43, 0
1, 84064, Note_on_c, 1, 58, 59
1, 84072, Note_on_c, 1, 64, 57
1, 84080, Note_on_c, 1, 52, 34
1, 84092, Note_on_c, 0, 49, 54
1, 84100, Note_on_c, 0, 61, 46
1, 84104, Note_on_c, 1, 52, 0
1, 84104, Note_on_c, 0, 58, 45
1, 84132, Control_c, 0, 64, 127
1, 84144, Note_on_c, 1, 64, 0
1, 84160, Note_on_c, 0, 49, 0
1, 84192, Note_on_c, 1, 58, 0
1, 84208, Note_on_c, 0, 58, 0
1, 84232, Note_on_c, 0, 61, 0
1, 84332, Note_on_c, 1, 39, 49
1, 84396, Control_c, 1, 64, 0
1, 84400, Note_on_c, 1, 39, 0
1, 84456, Control_c, 0, 64, 0
1, 84456, Note_on_c, 1, 54, 62
1, 84464, Note_on_c, 1, 38, 51
1, 84468, Note_on_c, 0, 54, 46
1, 84476, Control_c, 1, 64, 127
1, 84480, Note_on_c, 0, 60, 43
1, 84492, Note_on_c, 0, 64, 23
1, 84520, Note_on_c, 1, 38, 0
1, 84532, Note_on_c, 1, 54, 0
1, 84616, Note_on_c, 0, 69, 57
1, 84632, Note_on_c, 0, 64, 0
1, 84656, Note_on_c, 0, 69, 0
1, 84700, Note_on_c, 0, 60, 0
1, 84744, Note_on_c, 0, 76, 92
1, 84836, Note_on_c, 0, 76, 0
1, 84836, Note_on_c, 1, 54, 48
1, 84844, Note_on_c, 1, 66, 53
1, 84848, Note_on_c, 1, 72, 54
1, 84880, Note_on_c, 0, 72, 60
1, 84892, Note_on_c, 0, 60, 27
1, 84908, Note_on_c, 1, 54, 0
1, 84928, Note_on_c, 1, 72, 0
1, 84944, Note_on_c, 0, 72, 0
1, 84980, Note_on_c, 1, 66, 0
1, 85008, Note_on_c, 0, 72, 63
1, 85024, Note_on_c, 0, 60, 0
1, 85088, Note_on_c, 0, 72, 0
1, 85124, Note_on_c, 0, 66, 68
1, 85208, Note_on_c, 0, 60, 28
1, 85216, Note_on_c, 1, 63, 73
1, 85236, Note_on_c, 1, 54, 44
1, 85312, Control_c, 0, 64, 127
1, 85384, Note_on_c, 1, 54, 0
1, 85420, Note_on_c, 0, 54, 0
1, 85476, Note_on_c, 0, 60, 0
1, 85532, Note_on_c, 1, 63, 0
1, 85568, Control_c, 0, 64, 0
1, 85604, Note_on_c, 1, 54, 40
1, 85612, Control_c, 0, 64, 127
1, 85616, Note_on_c, 0, 54, 41
1, 85620, Note_on_c, 0, 60, 31
1, 85624, Note_on_c, 0, 64, 31
1, 85624, Note_on_c, 1, 60, 39
1, 85672, Note_on_c, 1, 54, 0
1, 85728, Note_on_c, 0, 60, 0
1, 85728, Note_on_c, 0, 54, 0
1, 85736, Note_on_c, 0, 64, 0
1, 85800, Note_on_c, 1, 60, 0
1, 85824, Note_on_c, 0, 66, 0
1, 85880, Note_on_c, 1, 50, 52
1, 85960, Control_c, 0, 64, 0
1, 85976, Note_on_c, 1, 50, 0
1, 85976, Control_c, 1, 64, 0
1, 86004, Note_on_c, 0, 65, 36
1, 86004, Note_on_c, 0, 55, 35
1, 86004, Note_on_c, 1, 65, 49
1, 86004, Note_on_c, 1, 57, 43
1, 86008, Note_on_c, 1, 60, 50
1, 86012, Note_on_c, 0, 60, 45
1, 86016, Note_on_c, 0, 57, 37
1, 86032, Note_on_c, 1, 53, 38
1, 86076, Control_c, 1, 64, 127
1, 86204, Note_on_c, 1, 60, 0
1, 86208, Note_on_c, 1, 57, 0
1, 86228, Note_on_c, 0, 65, 0
1, 86244, Note_on_c, 0, 60, 0
1, 86268, Note_on_c, 0, 72, 66
1, 86276, Note_on_c, 0, 57, 0
1, 86344, Note_on_c, 0, 72, 0
1, 86380, Note_on_c, 1, 65, 0
1, 86396, Note_on_c, 0, 65, 44
1, 86396, Note_on_c, 1, 43, 49
1, 86404, Note_on_c, 0, 74, 76
1, 86404, Note_on_c, 1, 57, 46
1, 86404, Note_on_c, 1, 60, 54
1, 86412, Note_on_c, 1, 53, 0
1, 86420, Note_on_c, 0, 60, 40
1, 86448, Note_on_c, 0, 60, 0
1, 86452, Note_on_c, 0, 65, 0
1, 86456, Note_on_c, 1, 43, 0
1, 86464, Note_on_c, 1, 57, 0
1, 86468, Note_on_c, 0, 74, 0
1, 86480, Note_on_c, 1, 60, 0
1, 86536, Note_on_c, 0, 74, 68
1, 86540, Note_on_c, 0, 55, 0
1, 86600, Note_on_c, 0, 74, 0
1, 86632, Control_c, 0, 64, 127
1, 86660, Note_on_c, 0, 67, 61
1, 86680, Control_c, 0, 64, 0
1, 86752, Control_c, 1, 64, 0
1, 86756, Note_on_c, 0, 64, 35
1, 86764, Note_on_c, 0, 61, 43
1, 86768, Note_on_c, 1, 40, 54
1, 86772, Note_on_c, 0, 55, 35
1, 86788, Note_on_c, 1, 69, 57
1, 86788, Note_on_c, 1, 66, 53
1, 86792, Note_on_c, 1, 58, 65
1, 86792, Note_on_c, 1, 62, 66
1, 86796, Note_on_c, 1, 55, 44
1, 86832, Control_c, 1, 64, 127
1, 86836, Note_on_c, 1, 40, 0
1, 86896, Note_on_c, 1, 58, 0
1, 86908, Note_on_c, 0, 64, 0
1, 86908, Note_on_c, 1, 55, 0
1, 86924, Note_on_c, 0, 67, 0
1, 86928, Note_on_c, 0, 69, 34
1, 86936, Note_on_c, 1, 69, 0
1, 86940, Note_on_c, 1, 62, 0
1, 86972, Note_on_c, 0, 61, 0
1, 86984, Note_on_c, 1, 66, 0
1, 86992, Note_on_c, 0, 69, 0
1, 87000, Note_on_c, 0, 55, 0
1, 87044, Note_on_c, 0, 70, 70
1, 87112, Note_on_c, 0, 70, 0
1, 87136, Control_c, 1, 64, 0
1, 87156, Note_on_c, 1, 45, 43
1, 87164, Note_on_c, 1, 70, 64
1, 87168, Note_on_c, 1, 61, 61
1, 87168, Note_on_c, 1, 55, 42
1, 87168, Note_on_c, 1, 66, 63
1, 87184, Note_on_c, 0, 73, 75
1, 87184, Note_on_c, 0, 61, 39
1, 87192, Note_on_c, 0, 75, 56
1, 87196, Note_on_c, 0, 64, 23
1, 87196, Note_on_c, 0, 55, 29
1, 87196, Control_c, 1, 64, 127
1, 87240, Note_on_c, 0, 64, 0
1, 87240, Note_on_c, 1, 45, 0
1, 87244, Note_on_c, 0, 75, 0
1, 87256, Note_on_c, 0, 73, 0
1, 87264, Note_on_c, 0, 61, 0
1, 87280, Note_on_c, 0, 55, 0
1, 87288, Note_on_c, 1, 55, 0
1, 87320, Note_on_c, 0, 73, 56
1, 87324, Note_on_c, 0, 75, 60
1, 87392, Note_on_c, 1, 66, 0
1, 87404, Note_on_c, 1, 61, 0
1, 87404, Note_on_c, 0, 75, 0
1, 87404, Note_on_c, 1, 70, 0
1, 87408, Note_on_c, 0, 73, 0
1, 87448, Note_on_c, 0, 72, 80
1, 87452, Note_on_c, 0, 76, 71
1, 87488, Control_c, 1, 64, 0
1, 87532, Note_on_c, 1, 65, 63
1, 87536, Note_on_c, 1, 72, 66
1, 87540, Note_on_c, 1, 60, 67
1, 87548, Note_on_c, 1, 50, 50
1, 87548, Note_on_c, 1, 69, 61
1, 87548, Note_on_c, 1, 57, 54
1, 87584, Note_on_c, 0, 53, 40
1, 87584, Note_on_c, 0, 57, 40
1, 87588, Note_on_c, 0, 76, 0
1, 87588, Note_on_c, 0, 69, 52
1, 87588, Note_on_c, 0, 50, 34
1, 87592, Note_on_c, 0, 60, 19
1, 87592, Control_c, 1, 64, 127
1, 87628, Note_on_c, 0, 72, 0
1, 87696, Note_on_c, 1, 60, 0
1, 87756, Note_on_c, 1, 69, 0
1, 87776, Note_on_c, 1, 65, 0
1, 87804, Note_on_c, 1, 57, 0
1, 87816, Note_on_c, 0, 60, 0
1, 87828, Note_on_c, 0, 57, 0
1, 87836, Note_on_c, 1, 72, 0
1, 87872, Note_on_c, 0, 69, 0
1, 87888, Note_on_c, 0, 53, 0
1, 87920, Note_on_c, 1, 57, 45
1, 87980, Note_on_c, 0, 60, 34
1, 87988, Note_on_c, 0, 57, 39
1, 88012, Note_on_c, 1, 57, 0
1, 88020, Note_on_c, 0, 60, 0
1, 88020, Note_on_c, 0, 57, 0
1, 88020, Note_on_c, 0, 50, 0
1, 88048, Note_on_c, 1, 50, 0
1, 88188, Note_on_c, 1, 50, 23
1, 88212, Note_on_c, 0, 69, 63
1, 88272, Control_c, 1, 64, 0
1, 88300, Note_on_c, 0, 69, 0
1, 88308, Note_on_c, 1, 59, 56
1, 88312, Note_on_c, 1, 64, 52
1, 88312, Note_on_c, 1, 67, 56
1, 88316, Note_on_c, 1, 50, 0
1, 88316, Note_on_c, 1, 53, 49
1, 88356, Note_on_c, 0, 67, 64
1, 88356, Note_on_c, 0, 64, 31
1, 88364, Note_on_c, 0, 59, 39
1, 88436, Control_c, 1, 64, 127
1, 88460, Note_on_c, 0, 64, 0
1, 88492, Note_on_c, 0, 59, 0
1, 88528, Note_on_c, 1, 64, 0
1, 88552, Note_on_c, 1, 59, 0
1, 88600, Note_on_c, 0, 67, 0
1, 88616, Note_on_c, 0, 65, 55
1, 88676, Note_on_c, 0, 65, 0
1, 88676, Note_on_c, 1, 43, 50
1, 88692, Note_on_c, 1, 63, 57
1, 88704, Note_on_c, 1, 59, 39
1, 88720, Note_on_c, 0, 64, 42
1, 88724, Note_on_c, 1, 43, 0
1, 88732, Note_on_c, 0, 59, 43
1, 88776, Note_on_c, 1, 53, 0
1, 88788, Note_on_c, 0, 64, 0
1, 88804, Note_on_c, 0, 59, 0
1, 88820, Note_on_c, 1, 59, 0
1, 88888, Note_on_c, 1, 67, 0
1, 88944, Note_on_c, 1, 63, 0
1, 88944, Control_c, 0, 64, 127
1, 89004, Control_c, 1, 64, 0
1, 89032, Control_c, 0, 64, 0
1, 89052, Note_on_c, 1, 36, 39
1, 89056, Note_on_c, 1, 62, 58
1, 89068, Note_on_c, 1, 59, 41
1, 89076, Control_c, 1, 64, 127
1, 89080, Note_on_c, 1, 52, 31
1, 89112, Control_c, 0, 64, 127
1, 89124, Note_on_c, 1, 36, 0
1, 89140, Note_on_c, 1, 59, 0
1, 89168, Note_on_c, 1, 62, 0
1, 89184, Note_on_c, 1, 52, 0
1, 89252, Control_c, 0, 64, 0
1, 89324, Note_on_c, 0, 82, 86
1, 89332, Note_on_c, 0, 62, 71
1, 89336, Note_on_c, 0, 91, 56
1, 89336, Note_on_c, 0, 59, 56
1, 89340, Note_on_c, 0, 95, 61
1, 89344, Note_on_c, 0, 52, 52
1, 89344, Note_on_c, 0, 55, 55
1, 89368, Note_on_c, 0, 82, 0
1, 89380, Note_on_c, 0, 83, 49
1, 89392, Note_on_c, 0, 93, 22
1, 89424, Note_on_c, 0, 83, 0
1, 89428, Note_on_c, 0, 93, 0
1, 89436, Note_on_c, 0, 91, 0
1, 89436, Note_on_c, 0, 95, 0
1, 89440, Control_c, 1, 64, 0
1, 89444, Note_on_c, 0, 52, 0
1, 89452, Note_on_c, 0, 62, 0
1, 89452, Note_on_c, 1, 71, 63
1, 89456, Note_on_c, 0, 59, 0
1, 89456, Note_on_c, 1, 56, 49
1, 89456, Note_on_c, 1, 46, 52
1, 89456, Note_on_c, 1, 64, 68
1, 89460, Note_on_c, 0, 55, 0
1, 89460, Note_on_c, 1, 62, 67
1, 89464, Note_on_c, 1, 67, 45
1, 89480, Control_c, 1, 64, 127
1, 89512, Note_on_c, 0, 91, 74
1, 89516, Control_c, 0, 64, 127
1, 89520, Note_on_c, 0, 79, 53
1, 89520, Note_on_c, 0, 62, 50
1, 89524, Note_on_c, 0, 55, 46
1, 89524, Note_on_c, 0, 59, 42
1, 89540, Note_on_c, 0, 52, 39
1, 89544, Note_on_c, 1, 71, 0
1, 89564, Note_on_c, 0, 52, 0
1, 89568, Note_on_c, 0, 59, 0
1, 89568, Note_on_c, 0, 79, 0
1, 89568, Note_on_c, 1, 56, 0
1, 89572, Note_on_c, 0, 62, 0
1, 89576, Note_on_c, 0, 91, 0
1, 89584, Note_on_c, 1, 62, 0
1, 89584, Note_on_c, 0, 55, 0
1, 89600, Note_on_c, 1, 64, 0
1, 89608, Note_on_c, 1, 46, 0
1, 89620, Note_on_c, 1, 67, 0
1, 89664, Control_c, 0, 64, 0
1, 89772, Control_c, 1, 64, 0
1, 89836, Note_on_c, 1, 70, 63
1, 89840, Note_on_c, 1, 61, 56
1, 89844, Note_on_c, 1, 55, 48
1, 89848, Note_on_c, 1, 64, 52
1, 89848, Note_on_c, 1, 45, 41
1, 89864, Note_on_c, 0, 65, 61
1, 89864, Note_on_c, 0, 77, 71
1, 89864, Note_on_c, 0, 82, 60
1, 89864, Note_on_c, 0, 58, 45
1, 89864, Note_on_c, 0, 89, 60
1, 89864, Note_on_c, 0, 61, 49
1, 89864, Note_on_c, 0, 85, 56
1, 89864, Note_on_c, 0, 55, 47
1, 89864, Note_on_c, 1, 67, 39
1, 89872, Control_c, 1, 64, 127
1, 89944, Note_on_c, 1, 67, 0
1, 89956, Note_on_c, 1, 55, 0
1, 89964, Note_on_c, 1, 70, 0
1, 89968, Note_on_c, 1, 64, 0
1, 90000, Note_on_c, 1, 61, 0
1, 90004, Note_on_c, 0, 65, 0
1, 90012, Note_on_c, 0, 89, 0
1, 90020, Note_on_c, 0, 77, 0
1, 90028, Note_on_c, 0, 55, 0
1, 90032, Note_on_c, 0, 58, 0
1, 90032, Note_on_c, 0, 61, 0
1, 90032, Note_on_c, 0, 85, 0
1, 90040, Note_on_c, 0, 82, 0
1, 90156, Note_on_c, 1, 49, 32
1, 90188, Control_c, 1, 64, 0
1, 90216, Note_on_c, 1, 45, 0
1, 90220, Note_on_c, 1, 58, 63
1, 90224, Note_on_c, 1, 61, 57
1, 90224, Note_on_c, 1, 69, 49
1, 90228, Note_on_c, 1, 49, 0
1, 90232, Note_on_c, 1, 52, 54
1, 90236, Note_on_c, 1, 64, 55
1, 90240, Note_on_c, 0, 82, 59
1, 90240, Note_on_c, 0, 64, 46
1, 90240, Note_on_c, 0, 61, 45
1, 90240, Note_on_c, 0, 76, 60
1, 90244, Note_on_c, 0, 55, 42
1, 90244, Note_on_c, 0, 85, 48
1, 90244, Note_on_c, 0, 88, 52
1, 90248, Note_on_c, 0, 58, 46
1, 90256, Control_c, 1, 64, 127
1, 90348, Note_on_c, 0, 76, 0
1, 90348, Note_on_c, 1, 69, 0
1, 90368, Note_on_c, 1, 64, 0
1, 90380, Note_on_c, 0, 88, 0
1, 90380, Note_on_c, 0, 64, 0
1, 90384, Note_on_c, 0, 82, 0
1, 90388, Note_on_c, 0, 85, 0
1, 90388, Note_on_c, 1, 58, 0
1, 90396, Note_on_c, 0, 55, 0
1, 90404, Note_on_c, 0, 58, 0
1, 90408, Note_on_c, 1, 61, 0
1, 90412, Note_on_c, 0, 61, 0
1, 90616, Control_c, 1, 64, 0
1, 90620, Note_on_c, 0, 60, 54
1, 90620, Note_on_c, 0, 64, 66
1, 90628, Note_on_c, 0, 53, 55
1, 90628, Note_on_c, 0, 93, 81
1, 90632, Note_on_c, 0, 81, 80
1, 90632, Note_on_c, 0, 89, 70
1, 90636, Note_on_c, 1, 52, 0
1, 90636, Note_on_c, 0, 86, 72
1, 90636, Note_on_c, 1, 50, 55
1, 90640, Note_on_c, 0, 57, 51
1, 90724, Control_c, 1, 64, 127
1, 90752, Note_on_c, 0, 93, 0
1, 90760, Note_on_c, 0, 89, 0
1, 90772, Note_on_c, 0, 64, 0
1, 90772, Note_on_c, 0, 86, 0
1, 90780, Note_on_c, 0, 60, 0
1, 90780, Note_on_c, 0, 81, 0
1, 90784, Note_on_c, 0, 57, 0
1, 90796, Note_on_c, 0, 53, 0
1, 91000, Note_on_c, 1, 55, 48
1, 91008, Note_on_c, 0, 64, 52
1, 91008, Note_on_c, 0, 89, 77
1, 91008, Note_on_c, 1, 69, 54
1, 91008, Note_on_c, 1, 60, 58
1, 91008, Note_on_c, 1, 62, 55
1, 91012, Note_on_c, 0, 77, 68
1, 91012, Note_on_c, 0, 60, 43
1, 91016, Note_on_c, 0, 84, 65
1, 91020, Note_on_c, 0, 53, 42
1, 91024, Note_on_c, 0, 57, 50
1, 91024, Note_on_c, 1, 65, 41
1, 91060, Note_on_c, 1, 50, 0
1, 91068, Note_on_c, 1, 55, 0
1, 91096, Note_on_c, 1, 69, 0
1, 91120, Note_on_c, 1, 60, 0
1, 91144, Note_on_c, 0, 89, 0
1, 91144, Note_on_c, 0, 53, 0
1, 91144, Note_on_c, 1, 65, 0
1, 91152, Note_on_c, 0, 84, 0
1, 91152, Note_on_c, 0, 57, 0
1, 91156, Note_on_c, 0, 60, 0
1, 91156, Note_on_c, 0, 64, 0
1, 91164, Note_on_c, 1, 62, 0
1, 91168, Note_on_c, 0, 77, 0
1, 91320, Control_c, 1, 64, 0
1, 91356, Note_on_c, 1, 52, 52
1, 91364, Note_on_c, 1, 68, 54
1, 91368, Note_on_c, 1, 56, 48
1, 91368, Note_on_c, 1, 62, 56
1, 91376, Note_on_c, 1, 40, 49
1, 91400, Note_on_c, 0, 76, 90
1, 91400, Note_on_c, 0, 88, 85
1, 91404, Note_on_c, 0, 80, 73
1, 91408, Note_on_c, 0, 83, 66
1, 91408, Note_on_c, 0, 56, 75
1, 91408, Note_on_c, 0, 67, 75
1, 91412, Note_on_c, 0, 62, 62
1, 91440, Control_c, 1, 64, 127
1, 91516, Note_on_c, 1, 62, 0
1, 91528, Note_on_c, 1, 56, 0
1, 91540, Note_on_c, 1, 68, 0
1, 91548, Note_on_c, 1, 52, 0
1, 91572, Note_on_c, 0, 88, 0
1, 91576, Control_c, 0, 64, 127
1, 91580, Note_on_c, 0, 67, 0
1, 91600, Note_on_c, 0, 76, 0
1, 91608, Note_on_c, 0, 56, 0
1, 91612, Note_on_c, 0, 80, 0
1, 91616, Note_on_c, 0, 62, 0
1, 91616, Note_on_c, 0, 83, 0
1, 91644, Control_c, 0, 64, 0
1, 91656, Note_on_c, 0, 56, 66
1, 91656, Note_on_c, 0, 65, 65
1, 91656, Note_on_c, 0, 80, 66
1, 91656, Note_on_c, 0, 86, 57
1, 91664, Note_on_c, 0, 74, 52
1, 91668, Note_on_c, 0, 62, 58
1, 91672, Note_on_c, 0, 83, 63
1, 91696, Control_c, 0, 64, 127
1, 91708, Note_on_c, 1, 44, 31
1, 91712, Note_on_c, 0, 86, 0
1, 91716, Note_on_c, 0, 74, 0
1, 91720, Control_c, 1, 64, 0
1, 91732, Note_on_c, 0, 83, 0
1, 91740, Note_on_c, 1, 40, 0
1, 91744, Note_on_c, 0, 65, 0
1, 91744, Note_on_c, 1, 44, 0
1, 91744, Note_on_c, 1, 56, 49
1, 91744, Note_on_c, 1, 67, 51
1, 91752, Note_on_c, 0, 56, 0
1, 91752, Control_c, 0, 64, 0
1, 91752, Note_on_c, 1, 47, 48
1, 91752, Note_on_c, 1, 59, 49
1, 91752, Note_on_c, 1, 66, 31
1, 91760, Note_on_c, 1, 62, 45
1, 91772, Note_on_c, 0, 80, 0
1, 91784, Control_c, 1, 64, 127
1, 91808, Note_on_c, 0, 56, 53
1, 91808, Note_on_c, 0, 65, 47
1, 91808, Note_on_c, 0, 73, 49
1, 91808, Note_on_c, 0, 80, 48
1, 91808, Note_on_c, 0, 85, 57
1, 91856, Note_on_c, 1, 67, 0
1, 91860, Note_on_c, 1, 66, 0
1, 91868, Note_on_c, 1, 59, 0
1, 91872, Control_c, 0, 64, 127
1, 91876, Note_on_c, 0, 62, 0
1, 91888, Note_on_c, 0, 65, 0
1, 91932, Note_on_c, 1, 56, 0
1, 91932, Control_c, 0, 64, 0
1, 91960, Note_on_c, 0, 56, 0
1, 91960, Note_on_c, 0, 85, 0
1, 91972, Note_on_c, 0, 80, 0
1, 91972, Note_on_c, 0, 73, 0
1, 91984, Note_on_c, 1, 62, 0
1, 92024, Note_on_c, 1, 47, 0
1, 92028, Note_on_c, 0, 57, 57
1, 92032, Note_on_c, 0, 84, 65
1, 92032, Note_on_c, 0, 72, 63
1, 92036, Note_on_c, 0, 64, 53
1, 92036, Note_on_c, 1, 44, 42
1, 92040, Note_on_c, 0, 79, 60
1, 92060, Note_on_c, 0, 60, 42
1, 92084, Control_c, 1, 64, 0
1, 92100, Note_on_c, 1, 44, 0
1, 92104, Control_c, 0, 64, 127
1, 92124, Note_on_c, 1, 45, 45
1, 92128, Note_on_c, 1, 55, 52
1, 92140, Note_on_c, 1, 60, 47
1, 92140, Note_on_c, 1, 64, 46
1, 92168, Control_c, 1, 64, 127
1, 92268, Note_on_c, 1, 64, 0
1, 92288, Note_on_c, 1, 55, 0
1, 92304, Note_on_c, 1, 60, 0
1, 92312, Note_on_c, 1, 45, 0
1, 92328, Note_on_c, 0, 60, 0
1, 92336, Note_on_c, 0, 64, 0
1, 92356, Note_on_c, 0, 57, 0
1, 92364, Note_on_c, 0, 79, 0
1, 92372, Note_on_c, 0, 84, 0
1, 92396, Note_on_c, 0, 72, 0
1, 92464, Control_c, 0, 64, 0
1, 92524, Note_on_c, 0, 63, 57
1, 92528, Note_on_c, 0, 83, 58
1, 92532, Note_on_c, 0, 71, 57
1, 92532, Note_on_c, 0, 78, 61
1, 92536, Note_on_c, 0, 54, 45
1, 92552, Note_on_c, 0, 58, 36
1, 92556, Note_on_c, 0, 59, 40
1, 92620, Control_c, 0, 64, 127
1, 92640, Note_on_c, 0, 59, 0
1, 92644, Note_on_c, 0, 83, 0
1, 92720, Note_on_c, 0, 63, 0
1, 92724, Note_on_c, 0, 71, 0
1, 92724, Note_on_c, 0, 58, 0
1, 92772, Note_on_c, 1, 32, 57
1, 92780, Note_on_c, 1, 44, 45
1, 92784, Note_on_c, 1, 54, 57
1, 92788, Note_on_c, 1, 63, 50
1, 92792, Note_on_c, 0, 54, 0
1, 92792, Note_on_c, 1, 59, 46
1, 92824, Note_on_c, 0, 78, 0
1, 92828, Note_on_c, 1, 59, 0
1, 92848, Note_on_c, 1, 54, 0
1, 92860, Note_on_c, 1, 63, 0
1, 92860, Control_c, 0, 64, 0
1, 92864, Note_on_c, 1, 44, 0
1, 92880, Control_c, 1, 64, 0
1, 92884, Note_on_c, 1, 32, 0
1, 92912, Note_on_c, 0, 82, 55
1, 92916, Note_on_c, 0, 58, 41
1, 92920, Note_on_c, 0, 70, 43
1, 92920, Note_on_c, 0, 62, 35
1, 92928, Note_on_c, 0, 57, 38
1, 92932, Note_on_c, 0, 53, 31
1, 92932, Note_on_c, 0, 77, 48
1, 92932, Note_on_c, 1, 62, 49
1, 92932, Note_on_c, 1, 43, 39
1, 92936, Note_on_c, 1, 53, 42
1, 92944, Control_c, 0, 64, 127
1, 92944, Note_on_c, 1, 58, 49
1, 92980, Note_on_c, 1, 53, 0
1, 92992, Control_c, 1, 64, 127
1, 93008, Note_on_c, 1, 62, 0
1, 93020, Note_on_c, 1, 58, 0
1, 93028, Note_on_c, 0, 57, 0
1, 93040, Note_on_c, 1, 43, 0
1, 93044, Note_on_c, 0, 77, 0
1, 93064, Note_on_c, 0, 53, 0
1, 93076, Note_on_c, 0, 70, 0
1, 93076, Note_on_c, 0, 58, 0
1, 93080, Note_on_c, 0, 62, 0
1, 93088, Note_on_c, 0, 82, 0
1, 93260, Control_c, 0, 64, 0
1, 93312, Note_on_c, 0, 61, 40
1, 93312, Note_on_c, 0, 73, 40
1, 93312, Note_on_c, 0, 69, 34
1, 93312, Note_on_c, 0, 64, 39
1, 93312, Note_on_c, 0, 81, 38
1, 93324, Note_on_c, 0, 58, 39
1, 93328, Note_on_c, 0, 76, 46
1, 93344, Control_c, 0, 64, 127
1, 93376, Note_on_c, 0, 81, 0
1, 93400, Note_on_c, 0, 76, 0
1, 93404, Note_on_c, 0, 64, 0
1, 93432, Note_on_c, 0, 73, 0
1, 93440, Note_on_c, 0, 69, 0
1, 93476, Note_on_c, 0, 61, 0
1, 93500, Note_on_c, 0, 58, 0
1, 93608, Control_c, 1, 64, 0
1, 93648, Control_c, 0, 64, 0
1, 93692, Note_on_c, 0, 54, 34
1, 93692, Control_c, 1, 64, 127
1, 93692, Note_on_c, 1, 64, 45
1, 93696, Note_on_c, 1, 30, 50
1, 93696, Note_on_c, 1, 57, 51
1, 93708, Note_on_c, 0, 57, 50
1, 93708, Note_on_c, 0, 64, 52
1, 93708, Note_on_c, 0, 76, 55
1, 93708, Note_on_c, 0, 60, 38
1, 93708, Note_on_c, 0, 69, 56
1, 93708, Note_on_c, 0, 72, 54
1, 93716, Note_on_c, 1, 30, 0
1, 93740, Note_on_c, 1, 57, 0
1, 93780, Note_on_c, 1, 64, 0
1, 93836, Control_c, 0, 64, 127
1, 93900, Note_on_c, 0, 64, 0
1, 93944, Note_on_c, 0, 72, 0
1, 93960, Note_on_c, 0, 60, 0
1, 93964, Note_on_c, 1, 64, 68
1, 93968, Note_on_c, 1, 72, 61
1, 93968, Note_on_c, 1, 54, 54
1, 93972, Note_on_c, 0, 69, 0
1, 93972, Note_on_c, 1, 60, 59
1, 93976, Note_on_c, 1, 69, 57
1, 94020, Note_on_c, 0, 76, 0
1, 94028, Note_on_c, 1, 64, 0
1, 94056, Note_on_c, 1, 72, 0
1, 94060, Note_on_c, 1, 69, 0
1, 94068, Note_on_c, 1, 54, 0
1, 94076, Note_on_c, 1, 60, 0
1, 94096, Note_on_c, 0, 72, 58
1, 94100, Note_on_c, 0, 64, 46
1, 94104, Note_on_c, 0, 69, 47
1, 94108, Note_on_c, 0, 60, 38
1, 94128, Note_on_c, 1, 72, 49
1, 94136, Note_on_c, 1, 69, 39
1, 94140, Note_on_c, 1, 64, 50
1, 94152, Note_on_c, 1, 54, 23
1, 94192, Note_on_c, 1, 64, 0
1, 94200, Note_on_c, 1, 54, 0
1, 94208, Note_on_c, 0, 54, 0
1, 94208, Note_on_c, 1, 69, 0
1, 94212, Note_on_c, 1, 72, 0
1, 94324, Note_on_c, 0, 57, 0
1, 94328, Note_on_c, 0, 64, 0
1, 94352, Note_on_c, 0, 54, 52
1, 94352, Note_on_c, 1, 54, 51
1, 94356, Note_on_c, 1, 72, 59
1, 94360, Note_on_c, 1, 64, 56
1, 94364, Note_on_c, 0, 69, 0
1, 94376, Note_on_c, 1, 60, 32
1, 94388, Note_on_c, 0, 72, 0
1, 94388, Note_on_c, 1, 64, 0
1, 94408, Note_on_c, 1, 60, 0
1, 94416, Note_on_c, 0, 54, 0
1, 94424, Note_on_c, 0, 60, 0
1, 94424, Note_on_c, 1, 72, 0
1, 94432, Note_on_c, 1, 54, 0
1, 94432, Control_c, 1, 64, 0
1, 94452, Control_c, 0, 64, 0
1, 94484, Note_on_c, 0, 74, 74
1, 94484, Note_on_c, 0, 68, 69
1, 94488, Note_on_c, 0, 65, 66
1, 94488, Note_on_c, 0, 60, 46
1, 94488, Note_on_c, 0, 53, 45
1, 94488, Note_on_c, 0, 62, 45
1, 94500, Note_on_c, 1, 60, 42
1, 94508, Note_on_c, 0, 56, 50
1, 94508, Note_on_c, 1, 72, 51
1, 94512, Note_on_c, 1, 63, 54
1, 94516, Note_on_c, 1, 53, 38
1, 94520, Note_on_c, 1, 68, 43
1, 94576, Note_on_c, 1, 63, 0
1, 94592, Note_on_c, 1, 72, 0
1, 94604, Note_on_c, 1, 60, 0
1, 94616, Note_on_c, 1, 53, 0
1, 94628, Control_c, 0, 64, 127
1, 94632, Note_on_c, 1, 68, 0
1, 94696, Note_on_c, 0, 62, 0
1, 94696, Note_on_c, 0, 60, 0
1, 94728, Note_on_c, 0, 56, 0
1, 94736, Note_on_c, 0, 65, 0
1, 94752, Control_c, 1, 64, 127
1, 94772, Note_on_c, 0, 68, 0
1, 94824, Note_on_c, 0, 74, 0
1, 94852, Note_on_c, 0, 68, 53
1, 94860, Note_on_c, 0, 65, 56
1, 94860, Note_on_c, 0, 56, 39
1, 94860, Note_on_c, 1, 63, 48
1, 94860, Note_on_c, 1, 72, 42
1, 94860, Note_on_c, 1, 68, 52
1, 94864, Note_on_c, 1, 60, 40
1, 94868, Note_on_c, 0, 62, 36
1, 94868, Note_on_c, 0, 72, 56
1, 94872, Note_on_c, 0, 60, 43
1, 94872, Note_on_c, 1, 53, 37
1, 94920, Note_on_c, 0, 65, 0
1, 94940, Note_on_c, 0, 53, 0
1, 94952, Note_on_c, 0, 68, 0
1, 94964, Note_on_c, 0, 72, 0
1, 94968, Note_on_c, 0, 62, 0
1, 94968, Note_on_c, 0, 60, 0
1, 94980, Note_on_c, 1, 60, 0
1, 94992, Note_on_c, 1, 72, 0
1, 95000, Note_on_c, 1, 63, 0
1, 95024, Note_on_c, 0, 56, 0
1, 95032, Note_on_c, 1, 53, 0
1, 95048, Note_on_c, 1, 68, 0
1, 95100, Note_on_c, 0, 56, 27
1, 95180, Note_on_c, 0, 56, 0
1, 95188, Control_c, 1, 64, 0
1, 95200, Control_c, 0, 64, 0
1, 95232, Note_on_c, 1, 72, 46
1, 95232, Note_on_c, 1, 67, 49
1, 95236, Note_on_c, 1, 62, 39
1, 95244, Note_on_c, 1, 59, 41
1, 95244, Note_on_c, 1, 52, 40
1, 95248, Note_on_c, 0, 81, 83
1, 95248, Note_on_c, 0, 62, 49
1, 95252, Note_on_c, 0, 59, 43
1, 95252, Note_on_c, 0, 72, 68
1, 95256, Note_on_c, 0, 52, 49
1, 95284, Control_c, 0, 64, 127
1, 95348, Note_on_c, 1, 52, 0
1, 95356, Note_on_c, 1, 59, 0
1, 95356, Note_on_c, 1, 67, 0
1, 95360, Note_on_c, 1, 72, 0
1, 95364, Note_on_c, 1, 62, 0
1, 95372, Note_on_c, 0, 81, 0
1, 95380, Note_on_c, 0, 62, 0
1, 95392, Note_on_c, 0, 72, 0
1, 95420, Note_on_c, 0, 59, 0
1, 95624, Note_on_c, 0, 72, 56
1, 95624, Note_on_c, 0, 59, 41
1, 95624, Note_on_c, 1, 72, 50
1, 95624, Note_on_c, 1, 59, 39
1, 95628, Note_on_c, 0, 64, 46
1, 95628, Note_on_c, 1, 62, 42
1, 95632, Note_on_c, 1, 67, 39
1, 95636, Note_on_c, 0, 62, 26
1, 95636, Note_on_c, 1, 52, 37
1, 95652, Control_c, 1, 64, 127
1, 95684, Note_on_c, 0, 62, 0
1, 95708, Note_on_c, 0, 59, 0
1, 95772, Note_on_c, 0, 72, 0
1, 95780, Note_on_c, 0, 64, 0
1, 95792, Note_on_c, 0, 52, 0
1, 95936, Note_on_c, 1, 59, 0
1, 95952, Note_on_c, 1, 62, 0
1, 95964, Control_c, 0, 64, 0
1, 95984, Note_on_c, 1, 52, 0
1, 95996, Note_on_c, 1, 67, 0
1, 96004, Note_on_c, 0, 74, 62
1, 96008, Note_on_c, 0, 63, 51
1, 96012, Note_on_c, 0, 66, 49
1, 96016, Note_on_c, 1, 72, 0
1, 96020, Note_on_c, 0, 62, 45
1, 96084, Control_c, 0, 64, 127
1, 96184, Note_on_c, 0, 66, 0
1, 96184, Note_on_c, 0, 63, 0
1, 96208, Note_on_c, 0, 74, 0
1, 96224, Control_c, 1, 64, 0
1, 96252, Note_on_c, 1, 72, 54
1, 96252, Note_on_c, 1, 51, 49
1, 96256, Note_on_c, 1, 60, 42
1, 96256, Note_on_c, 1, 66, 55
1, 96260, Note_on_c, 0, 62, 0
1, 96260, Note_on_c, 1, 63, 48
1, 96264, Note_on_c, 0, 63, 51
1, 96264, Control_c, 0, 64, 0
1, 96268, Note_on_c, 0, 72, 54
1, 96268, Note_on_c, 0, 66, 45
1, 96276, Note_on_c, 0, 60, 48
1, 96300, Note_on_c, 0, 60, 0
1, 96300, Note_on_c, 0, 66, 0
1, 96300, Note_on_c, 0, 63, 0
1, 96372, Note_on_c, 0, 72, 0
1, 96380, Control_c, 1, 64, 127
1, 96384, Control_c, 0, 64, 127
1, 96440, Note_on_c, 1, 60, 0
1, 96460, Note_on_c, 1, 63, 0
1, 96464, Note_on_c, 1, 72, 0
1, 96496, Note_on_c, 1, 51, 0
1, 96500, Note_on_c, 1, 66, 0
1, 96616, Control_c, 1, 64, 0
1, 96636, Note_on_c, 1, 72, 63
1, 96644, Note_on_c, 1, 50, 58
1, 96644, Note_on_c, 1, 60, 52
1, 96648, Note_on_c, 0, 58, 38
1, 96648, Note_on_c, 1, 65, 66
1, 96652, Note_on_c, 1, 62, 62
1, 96652, Note_on_c, 1, 69, 50
1, 96672, Control_c, 0, 64, 0
1, 96676, Note_on_c, 0, 59, 57
1, 96684, Note_on_c, 0, 58, 0
1, 96704, Note_on_c, 0, 72, 45
1, 96704, Note_on_c, 0, 84, 55
1, 96720, Note_on_c, 1, 60, 0
1, 96720, Note_on_c, 0, 81, 50
1, 96720, Note_on_c, 0, 77, 52
1, 96720, Note_on_c, 0, 60, 45
1, 96728, Control_c, 1, 64, 127
1, 96736, Note_on_c, 0, 59, 0
1, 96740, Note_on_c, 1, 62, 0
1, 96744, Note_on_c, 1, 69, 0
1, 96752, Note_on_c, 1, 65, 0
1, 96756, Note_on_c, 1, 72, 0
1, 96780, Note_on_c, 1, 50, 0
1, 96888, Note_on_c, 0, 81, 0
1, 96904, Note_on_c, 0, 84, 0
1, 96924, Note_on_c, 0, 77, 0
1, 96960, Note_on_c, 0, 72, 0
1, 97024, Control_c, 1, 64, 0
1, 97032, Note_on_c, 1, 69, 50
1, 97036, Note_on_c, 1, 62, 56
1, 97040, Note_on_c, 1, 60, 54
1, 97040, Note_on_c, 1, 50, 52
1, 97044, Note_on_c, 1, 57, 48
1, 97044, Note_on_c, 1, 65, 41
1, 97140, Note_on_c, 0, 60, 0
1, 97144, Note_on_c, 0, 57, 45
1, 97144, Note_on_c, 0, 81, 50
1, 97144, Note_on_c, 0, 72, 43
1, 97144, Control_c, 1, 64, 127
1, 97152, Note_on_c, 0, 77, 56
1, 97176, Note_on_c, 1, 57, 0
1, 97208, Note_on_c, 1, 50, 0
1, 97240, Note_on_c, 0, 81, 0
1, 97244, Note_on_c, 0, 72, 0
1, 97256, Note_on_c, 0, 77, 0
1, 97272, Note_on_c, 1, 60, 0
1, 97272, Note_on_c, 0, 57, 0
1, 97304, Note_on_c, 1, 65, 0
1, 97332, Note_on_c, 1, 62, 0
1, 97356, Note_on_c, 1, 69, 0
1, 97516, Control_c, 1, 64, 0
1, 97520, Note_on_c, 0, 79, 45
1, 97520, Note_on_c, 0, 74, 48
1, 97520, Note_on_c, 0, 55, 33
1, 97520, Note_on_c, 0, 67, 31
1, 97540, Note_on_c, 1, 43, 46
1, 97548, Note_on_c, 1, 59, 41
1, 97548, Note_on_c, 1, 62, 46
1, 97548, Note_on_c, 1, 67, 48
1, 97548, Note_on_c, 1, 53, 36
1, 97564, Note_on_c, 1, 64, 41
1, 97592, Note_on_c, 1, 53, 0
1, 97596, Note_on_c, 1, 43, 0
1, 97644, Control_c, 1, 64, 127
1, 97748, Note_on_c, 1, 59, 0
1, 97820, Note_on_c, 1, 62, 0
1, 97848, Note_on_c, 0, 67, 0
1, 97864, Control_c, 0, 64, 127
1, 97892, Control_c, 1, 64, 0
1, 97896, Note_on_c, 1, 64, 0
1, 97912, Note_on_c, 1, 55, 57
1, 97936, Note_on_c, 0, 55, 0
1, 97956, Control_c, 1, 64, 127
1, 97976, Note_on_c, 1, 67, 0
1, 98040, Note_on_c, 1, 55, 0
1, 98064, Note_on_c, 0, 74, 0
1, 98132, Note_on_c, 0, 79, 0
1, 98176, Note_on_c, 1, 47, 52
1, 98180, Note_on_c, 0, 76, 54
1, 98228, Note_on_c, 0, 76, 0
1, 98244, Control_c, 1, 64, 0
1, 98252, Note_on_c, 1, 47, 0
1, 98264, Control_c, 0, 64, 0
1, 98292, Note_on_c, 1, 40, 64
1, 98308, Control_c, 1, 64, 127
1, 98316, Note_on_c, 0, 62, 27
1, 98320, Note_on_c, 1, 40, 0
1, 98320, Note_on_c, 0, 55, 38
1, 98320, Note_on_c, 0, 83, 111
1, 98320, Note_on_c, 0, 59, 39
1, 98328, Note_on_c, 0, 52, 31
1, 98504, Note_on_c, 0, 59, 0
1, 98512, Note_on_c, 0, 62, 0
1, 98532, Control_c, 1, 64, 0
1, 98544, Note_on_c, 1, 71, 78
1, 98544, Note_on_c, 1, 64, 75
1, 98552, Note_on_c, 1, 59, 63
1, 98552, Note_on_c, 1, 62, 74
1, 98552, Note_on_c, 1, 52, 56
1, 98556, Note_on_c, 1, 55, 63
1, 98560, Note_on_c, 1, 67, 44
1, 98612, Control_c, 1, 64, 127
1, 98708, Note_on_c, 1, 59, 0
1, 98720, Note_on_c, 0, 62, 36
1, 98728, Note_on_c, 1, 55, 0
1, 98728, Note_on_c, 0, 59, 37
1, 98756, Note_on_c, 1, 52, 0
1, 98812, Note_on_c, 1, 71, 0
1, 98820, Note_on_c, 1, 67, 0
1, 98828, Note_on_c, 1, 62, 0
1, 98836, Note_on_c, 0, 52, 0
1, 98852, Note_on_c, 1, 64, 0
1, 98856, Note_on_c, 0, 59, 0
1, 98868, Note_on_c, 0, 55, 0
1, 98944, Note_on_c, 0, 83, 0
1, 98948, Note_on_c, 0, 62, 0
1, 98960, Note_on_c, 0, 71, 77
1, 99032, Control_c, 1, 64, 0
1, 99044, Note_on_c, 1, 45, 50
1, 99120, Note_on_c, 0, 61, 42
1, 99128, Note_on_c, 0, 65, 35
1, 99128, Control_c, 1, 64, 127
1, 99132, Note_on_c, 0, 71, 0
1, 99136, Note_on_c, 0, 55, 31
1, 99144, Note_on_c, 0, 70, 60
1, 99304, Note_on_c, 1, 58, 55
1, 99304, Note_on_c, 1, 66, 50
1, 99308, Control_c, 1, 64, 0
1, 99312, Note_on_c, 1, 61, 56
1, 99312, Note_on_c, 1, 51, 48
1, 99320, Note_on_c, 0, 65, 0
1, 99332, Note_on_c, 0, 61, 0
1, 99340, Note_on_c, 1, 45, 0
1, 99352, Note_on_c, 0, 55, 0
1, 99404, Note_on_c, 0, 61, 42
1, 99408, Note_on_c, 0, 65, 42
1, 99408, Note_on_c, 0, 55, 34
1, 99416, Control_c, 1, 64, 127
1, 99484, Note_on_c, 0, 65, 0
1, 99608, Note_on_c, 0, 55, 0
1, 99676, Note_on_c, 1, 66, 0
1, 99692, Note_on_c, 1, 58, 0
1, 99704, Note_on_c, 0, 61, 0
1, 99716, Note_on_c, 1, 49, 37
1, 99720, Note_on_c, 1, 61, 0
1, 99764, Note_on_c, 1, 51, 0
1, 99788, Control_c, 1, 64, 0
1, 99796, Note_on_c, 1, 49, 0
1, 99820, Note_on_c, 0, 60, 36
1, 99820, Note_on_c, 1, 57, 46
1, 99824, Note_on_c, 0, 64, 26
1, 99828, Note_on_c, 0, 53, 25
1, 99832, Note_on_c, 0, 57, 36
1, 99832, Note_on_c, 1, 60, 43
1, 99832, Note_on_c, 1, 50, 44
1, 99844, Note_on_c, 1, 65, 28
1, 99928, Note_on_c, 1, 65, 0
1, 99936, Note_on_c, 1, 60, 0
1, 99980, Note_on_c, 1, 57, 0
1, 100020, Note_on_c, 0, 70, 0
1, 100064, Note_on_c, 0, 64, 0
1, 100076, Note_on_c, 0, 60, 0
1, 100092, Note_on_c, 0, 69, 78
1, 100176, Note_on_c, 1, 50, 0
1, 100180, Note_on_c, 0, 60, 36
1, 100188, Note_on_c, 0, 64, 23
1, 100220, Note_on_c, 0, 69, 0
1, 100224, Note_on_c, 1, 53, 28
1, 100224, Note_on_c, 1, 60, 42
1, 100228, Note_on_c, 0, 68, 52
1, 100228, Note_on_c, 1, 45, 31
1, 100232, Note_on_c, 1, 57, 36
1, 100240, Note_on_c, 0, 64, 0
1, 100296, Note_on_c, 0, 60, 0
1, 100312, Note_on_c, 0, 53, 0
1, 100316, Note_on_c, 0, 68, 0
1, 100328, Note_on_c, 1, 53, 0
1, 100332, Note_on_c, 1, 45, 0
1, 100352, Note_on_c, 0, 57, 0
1, 100352, Note_on_c, 1, 60, 0
1, 100352, Note_on_c, 1, 57, 0
1, 100360, Note_on_c, 0, 69, 57
1, 100424, Note_on_c, 0, 69, 0
1, 100472, Note_on_c, 0, 73, 63
1, 100484, Note_on_c, 0, 72, 82
1, 100492, Note_on_c, 0, 73, 0
1, 100572, Note_on_c, 0, 72, 0
1, 100596, Note_on_c, 1, 56, 45
1, 100600, Note_on_c, 1, 43, 32
1, 100600, Note_on_c, 1, 53, 38
1, 100608, Note_on_c, 0, 59, 51
1, 100608, Note_on_c, 0, 64, 39
1, 100612, Note_on_c, 0, 76, 88
1, 100612, Note_on_c, 1, 59, 43
1, 100620, Note_on_c, 0, 53, 40
1, 100660, Note_on_c, 1, 53, 0
1, 100708, Note_on_c, 1, 56, 0
1, 100724, Note_on_c, 0, 76, 0
1, 100736, Note_on_c, 1, 59, 0
1, 100748, Note_on_c, 0, 79, 85
1, 100788, Note_on_c, 1, 43, 0
1, 100788, Note_on_c, 0, 64, 0
1, 100808, Note_on_c, 0, 53, 0
1, 100824, Note_on_c, 0, 59, 0
1, 100836, Note_on_c, 0, 79, 0
1, 100876, Note_on_c, 0, 77, 86
1, 100952, Note_on_c, 0, 77, 0
1, 100980, Note_on_c, 0, 59, 44
1, 100984, Note_on_c, 0, 64, 35
1, 100984, Note_on_c, 0, 53, 36
1, 100996, Note_on_c, 1, 41, 72
1, 101000, Note_on_c, 0, 75, 56
1, 101048, Note_on_c, 0, 76, 73
1, 101068, Note_on_c, 0, 75, 0
1, 101172, Note_on_c, 0, 64, 0
1, 101200, Note_on_c, 0, 76, 0
1, 101212, Note_on_c, 0, 59, 0
1, 101220, Note_on_c, 0, 53, 0
1, 101220, Note_on_c, 1, 41, 0
1, 101248, Note_on_c, 0, 74, 85
1, 101272, Note_on_c, 1, 40, 67
1, 101344, Note_on_c, 0, 62, 34
1, 101348, Note_on_c, 0, 59, 37
1, 101360, Note_on_c, 0, 55, 41
1, 101368, Note_on_c, 0, 52, 39
1, 101400, Note_on_c, 0, 74, 0
1, 101408, Control_c, 1, 64, 127
1, 101464, Note_on_c, 0, 71, 75
1, 101468, Note_on_c, 0, 62, 0
1, 101500, Control_c, 1, 64, 0
1, 101516, Note_on_c, 0, 59, 0
1, 101532, Note_on_c, 0, 55, 0
1, 101544, Note_on_c, 0, 71, 0
1, 101576, Note_on_c, 0, 67, 60
1, 101632, Note_on_c, 0, 67, 0
1, 101632, Note_on_c, 1, 28, 81
1, 101640, Note_on_c, 0, 52, 0
1, 101640, Note_on_c, 1, 62, 81
1, 101640, Note_on_c, 1, 71, 76
1, 101644, Note_on_c, 1, 67, 65
1, 101672, Note_on_c, 1, 62, 0
1, 101672, Note_on_c, 1, 40, 0
1, 101676, Note_on_c, 1, 28, 0
1, 101688, Note_on_c, 1, 71, 0
1, 101688, Note_on_c, 0, 62, 66
1, 101696, Note_on_c, 1, 67, 0
1, 101744, Note_on_c, 0, 52, 30
1, 101748, Note_on_c, 0, 55, 45
1, 101776, Note_on_c, 0, 62, 0
1, 101784, Note_on_c, 0, 55, 0
1, 101820, Note_on_c, 0, 59, 63
1, 101824, Note_on_c, 0, 52, 0
1, 102016, Note_on_c, 1, 70, 85
1, 102020, Note_on_c, 0, 59, 0
1, 102020, Note_on_c, 1, 61, 87
1, 102020, Note_on_c, 1, 66, 78
1, 102024, Note_on_c, 1, 55, 75
1, 102028, Note_on_c, 1, 45, 69
1, 102036, Note_on_c, 0, 60, 79
1, 102060, Note_on_c, 1, 61, 0
1, 102092, Note_on_c, 1, 45, 0
1, 102092, Note_on_c, 1, 55, 0
1, 102092, Note_on_c, 1, 70, 0
1, 102092, Note_on_c, 1, 66, 0
1, 102136, Note_on_c, 0, 60, 0
1, 102168, Note_on_c, 0, 55, 36
1, 102168, Note_on_c, 0, 45, 36
1, 102184, Note_on_c, 0, 61, 74
1, 102336, Note_on_c, 0, 55, 0
1, 102388, Note_on_c, 0, 61, 0
1, 102392, Note_on_c, 1, 55, 70
1, 102396, Note_on_c, 1, 70, 76
1, 102396, Note_on_c, 1, 61, 82
1, 102400, Note_on_c, 1, 66, 63
1, 102408, Note_on_c, 1, 45, 49
1, 102412, Note_on_c, 0, 63, 64
1, 102436, Note_on_c, 0, 61, 26
1, 102488, Note_on_c, 0, 61, 0
1, 102504, Note_on_c, 0, 63, 0
1, 102512, Control_c, 1, 64, 127
1, 102540, Note_on_c, 0, 64, 50
1, 102544, Note_on_c, 1, 55, 0
1, 102608, Note_on_c, 1, 45, 0
1, 102608, Note_on_c, 0, 45, 0
1, 102608, Note_on_c, 0, 64, 0
1, 102668, Note_on_c, 0, 65, 48
1, 102692, Note_on_c, 0, 65, 0
1, 102752, Control_c, 0, 64, 127
1, 102764, Note_on_c, 1, 61, 0
1, 102784, Note_on_c, 0, 39, 41
1, 102816, Note_on_c, 0, 39, 0
1, 102872, Note_on_c, 1, 70, 0
1, 102876, Note_on_c, 1, 66, 0
1, 102880, Control_c, 0, 64, 0
1, 102896, Control_c, 1, 64, 0
1, 102928, Note_on_c, 0, 38, 66
1, 102928, Note_on_c, 0, 77, 84
1, 102932, Note_on_c, 0, 72, 77
1, 102932, Note_on_c, 0, 65, 73
1, 102932, Note_on_c, 1, 38, 66
1, 102936, Note_on_c, 1, 60, 64
1, 102940, Note_on_c, 0, 26, 57
1, 102944, Note_on_c, 1, 69, 60
1, 102944, Note_on_c, 1, 65, 56
1, 103016, Note_on_c, 1, 65, 0
1, 103016, Note_on_c, 1, 60, 0
1, 103032, Note_on_c, 1, 69, 0
1, 103044, Control_c, 0, 64, 127
1, 103048, Note_on_c, 1, 38, 0
1, 103108, Note_on_c, 0, 77, 0
1, 103116, Note_on_c, 0, 65, 0
1, 103116, Note_on_c, 0, 26, 0
1, 103120, Note_on_c, 0, 72, 0
1, 103160, Note_on_c, 0, 38, 0
1, 103184, Note_on_c, 1, 40, 48
1, 103280, Control_c, 0, 64, 0
1, 103296, Note_on_c, 1, 40, 0
1, 103328, Note_on_c, 1, 41, 47
1, 103336, Note_on_c, 0, 76, 60
1, 103340, Note_on_c, 0, 40, 48
1, 103340, Note_on_c, 0, 28, 39
1, 103340, Note_on_c, 0, 64, 52
1, 103344, Note_on_c, 0, 71, 54
1, 103360, Note_on_c, 0, 73, 39
1, 103392, Note_on_c, 0, 73, 0
1, 103396, Control_c, 0, 64, 127
1, 103440, Note_on_c, 0, 76, 0
1, 103444, Note_on_c, 0, 28, 0
1, 103444, Note_on_c, 0, 71, 0
1, 103480, Note_on_c, 1, 41, 0
1, 103504, Note_on_c, 0, 40, 0
1, 103508, Note_on_c, 0, 64, 0
1, 103544, Control_c, 0, 64, 0
1, 103552, Note_on_c, 1, 42, 41
1, 103556, Control_c, 0, 64, 127
1, 103580, Note_on_c, 0, 41, 49
1, 103592, Note_on_c, 0, 29, 33
1, 103608, Note_on_c, 0, 41, 0
1, 103620, Note_on_c, 0, 29, 0
1, 103624, Control_c, 0, 64, 0
1, 103664, Note_on_c, 1, 42, 0
1, 103696, Note_on_c, 1, 53, 41
1, 103696, Note_on_c, 1, 60, 40
1, 103696, Note_on_c, 1, 43, 46
1, 103704, Note_on_c, 1, 57, 36
1, 103712, Note_on_c, 0, 43, 58
1, 103720, Note_on_c, 0, 72, 57
1, 103720, Note_on_c, 0, 60, 66
1, 103728, Note_on_c, 0, 69, 60
1, 103736, Note_on_c, 0, 31, 41
1, 103760, Note_on_c, 1, 53, 0
1, 103764, Note_on_c, 0, 31, 0
1, 103784, Note_on_c, 1, 57, 0
1, 103792, Note_on_c, 1, 60, 0
1, 103808, Note_on_c, 0, 69, 0
1, 103828, Note_on_c, 0, 72, 0
1, 103852, Note_on_c, 0, 60, 0
1, 103852, Note_on_c, 1, 43, 0
1, 103924, Note_on_c, 1, 31, 37
1, 103948, Note_on_c, 0, 43, 0
1, 103956, Note_on_c, 1, 31, 0
1, 103972, Note_on_c, 0, 31, 41
1, 104000, Note_on_c, 0, 31, 0
1, 104052, Note_on_c, 1, 56, 50
1, 104068, Note_on_c, 1, 35, 41
1, 104072, Note_on_c, 1, 63, 37
1, 104076, Note_on_c, 1, 53, 29
1, 104104, Note_on_c, 0, 68, 45
1, 104104, Control_c, 1, 64, 127
1, 104116, Note_on_c, 1, 53, 0
1, 104116, Note_on_c, 0, 63, 45
1, 104116, Note_on_c, 0, 59, 36
1, 104132, Control_c, 0, 64, 127
1, 104184, Note_on_c, 1, 56, 0
1, 104196, Control_c, 1, 64, 0
1, 104220, Note_on_c, 1, 63, 0
1, 104228, Note_on_c, 0, 59, 0
1, 104236, Note_on_c, 0, 68, 0
1, 104268, Note_on_c, 0, 63, 0
1, 104268, Note_on_c, 1, 35, 0
1, 104272, Control_c, 0, 64, 0
1, 104288, Note_on_c, 1, 36, 45
1, 104296, Note_on_c, 1, 55, 38
1, 104304, Note_on_c, 1, 60, 39
1, 104308, Note_on_c, 1, 57, 33
1, 104328, Note_on_c, 1, 55, 0
1, 104328, Note_on_c, 0, 67, 49
1, 104332, Note_on_c, 0, 57, 45
1, 104336, Note_on_c, 0, 62, 48
1, 104348, Note_on_c, 0, 48, 35
1, 104352, Note_on_c, 1, 57, 0
1, 104368, Note_on_c, 1, 60, 0
1, 104380, Control_c, 1, 64, 127
1, 104404, Control_c, 0, 64, 127
1, 104428, Note_on_c, 0, 57, 0
1, 104456, Note_on_c, 0, 62, 0
1, 104464, Note_on_c, 0, 48, 0
1, 104484, Note_on_c, 0, 67, 0
1, 104676, Note_on_c, 1, 36, 0
1, 104700, Note_on_c, 1, 30, 56
1, 104776, Control_c, 1, 64, 0
1, 104832, Note_on_c, 1, 30, 0
1, 104864, Note_on_c, 1, 31, 37
1, 104936, Control_c, 1, 64, 127
1, 105028, Control_c, 1, 64, 0
1, 105072, Note_on_c, 1, 31, 0
1, 105072, Note_on_c, 1, 96, 62
1, 105080, Note_on_c, 1, 24, 49
1, 105160, Control_c, 1, 64, 127
1, 105588, Note_on_c, 1, 24, 0
1, 105600, Note_on_c, 1, 96, 0
1, 105620, Control_c, 0, 64, 0
1, 105628, Note_on_c, 0, 108, 54
1, 105632, Note_on_c, 0, 24, 42
1, 105640, Note_on_c, 0, 36, 35
1, 106412, Control_c, 1, 64, 0
1, 106756, Note_on_c, 0, 108, 0
1, 106840, Note_on_c, 0, 24, 0
1, 106872, Note_on_c, 0, 36, 0
1, 106872, End_track
0, 0, End_of_file
