0, 0, Header, 1, 8, 120
1, 0, Start_track
1, 0, Title_t, "Since We Met"
1, 0, Text_t, "Bill Evans"
1, 0, Text_t, "dougmck@pipeline.com.au\012"
1, 0, Text_t, "Lead Sheet is in 'The New Real Book' Volume 3 page 339 (Sher Music)\012"
1, 0, Time_signature, 4, 2, 24, 8
1, 0, Key_signature, 0, "major"
1, 0, Tempo, 400000
1, 0, End_track
2, 0, Start_track
2, 0, Title_t, ""
2, 601, Control_c, 0, 64, 127
2, 651, Note_on_c, 0, 79, 38
2, 674, Note_on_c, 0, 80, 53
2, 690, Note_on_c, 0, 79, 0
2, 700, Note_on_c, 0, 81, 57
2, 727, Note_on_c, 0, 81, 0
2, 728, Note_on_c, 0, 53, 46
2, 729, Note_on_c, 0, 82, 76
2, 732, Control_c, 0, 64, 0
2, 735, Note_on_c, 0, 80, 0
2, 776, Control_c, 0, 64, 127
2, 855, Note_on_c, 0, 60, 30
2, 856, Note_on_c, 0, 80, 5
2, 863, Note_on_c, 0, 53, 0
2, 942, Note_on_c, 0, 82, 0
2, 958, Note_on_c, 0, 75, 38
2, 962, Note_on_c, 0, 80, 0
2, 963, Note_on_c, 0, 68, 36
2, 966, Note_on_c, 0, 67, 31
2, 1103, Note_on_c, 0, 67, 0
2, 1107, Note_on_c, 0, 79, 56
2, 1123, Note_on_c, 0, 60, 0
2, 1167, Note_on_c, 0, 79, 0
2, 1172, Note_on_c, 0, 75, 0
2, 1222, Note_on_c, 0, 68, 0
2, 1234, Note_on_c, 0, 75, 60
2, 1239, Note_on_c, 0, 46, 32
2, 1245, Control_c, 0, 64, 0
2, 1278, Control_c, 0, 64, 127
2, 1284, Note_on_c, 0, 46, 0
2, 1402, Note_on_c, 0, 68, 25
2, 1405, Note_on_c, 0, 63, 29
2, 1408, Note_on_c, 0, 61, 18
2, 1409, Note_on_c, 0, 72, 39
2, 1414, Note_on_c, 0, 65, 26
2, 1636, Note_on_c, 0, 72, 0
2, 1713, Note_on_c, 0, 65, 0
2, 1724, Note_on_c, 0, 63, 0
2, 1729, Note_on_c, 0, 72, 56
2, 1732, Note_on_c, 0, 75, 0
2, 1740, Note_on_c, 0, 61, 0
2, 1746, Note_on_c, 0, 68, 0
2, 1763, Note_on_c, 0, 72, 0
2, 1871, Note_on_c, 0, 80, 69
2, 1877, Note_on_c, 0, 39, 60
2, 1889, Control_c, 0, 64, 0
2, 1919, Control_c, 0, 64, 127
2, 1938, Note_on_c, 0, 80, 0
2, 1956, Note_on_c, 0, 46, 42
2, 1972, Note_on_c, 0, 39, 0
2, 2036, Note_on_c, 0, 54, 52
2, 2041, Note_on_c, 0, 46, 0
2, 2074, Note_on_c, 0, 54, 0
2, 2118, Note_on_c, 0, 56, 42
2, 2228, Note_on_c, 0, 61, 37
2, 2231, Note_on_c, 0, 58, 38
2, 2232, Note_on_c, 0, 65, 47
2, 2406, Note_on_c, 0, 65, 0
2, 2437, Note_on_c, 0, 61, 0
2, 2572, Note_on_c, 0, 78, 35
2, 2586, Note_on_c, 0, 78, 0
2, 2592, Note_on_c, 0, 77, 54
2, 2609, Note_on_c, 0, 58, 0
2, 2623, Note_on_c, 0, 56, 0
2, 2709, Note_on_c, 0, 77, 0
2, 3216, Note_on_c, 0, 73, 35
2, 3223, Note_on_c, 0, 66, 46
2, 3225, Note_on_c, 0, 44, 35
2, 3255, Control_c, 0, 64, 0
2, 3314, Control_c, 0, 64, 127
2, 3341, Note_on_c, 0, 51, 42
2, 3356, Note_on_c, 0, 44, 0
2, 3399, Note_on_c, 0, 66, 0
2, 3463, Note_on_c, 0, 66, 35
2, 3463, Note_on_c, 0, 61, 36
2, 3468, Note_on_c, 0, 60, 43
2, 3468, Note_on_c, 0, 70, 45
2, 3584, Note_on_c, 0, 60, 0
2, 3633, Note_on_c, 0, 60, 36
2, 3661, Note_on_c, 0, 61, 0
2, 3676, Note_on_c, 0, 70, 0
2, 3688, Note_on_c, 0, 60, 0
2, 3698, Note_on_c, 0, 66, 0
2, 3818, Note_on_c, 0, 61, 25
2, 3821, Note_on_c, 0, 66, 27
2, 3827, Note_on_c, 0, 60, 31
2, 3952, Note_on_c, 0, 51, 0
2, 3957, Note_on_c, 0, 61, 0
2, 4004, Note_on_c, 0, 66, 0
2, 4006, Note_on_c, 0, 51, 32
2, 4029, Note_on_c, 0, 73, 0
2, 4047, Note_on_c, 0, 60, 0
2, 4060, Note_on_c, 0, 51, 0
2, 4518, Note_on_c, 0, 78, 62
2, 4530, Note_on_c, 0, 75, 60
2, 4531, Note_on_c, 0, 68, 33
2, 4532, Note_on_c, 0, 66, 35
2, 4532, Note_on_c, 0, 64, 33
2, 4537, Note_on_c, 0, 71, 62
2, 4546, Control_c, 0, 64, 0
2, 4579, Control_c, 0, 64, 127
2, 4617, Note_on_c, 0, 71, 0
2, 4620, Note_on_c, 0, 68, 0
2, 4623, Note_on_c, 0, 64, 0
2, 4625, Note_on_c, 0, 78, 0
2, 4628, Note_on_c, 0, 75, 0
2, 4629, Note_on_c, 0, 66, 0
2, 4661, Note_on_c, 0, 78, 50
2, 4669, Note_on_c, 0, 75, 63
2, 4673, Note_on_c, 0, 68, 36
2, 4674, Note_on_c, 0, 71, 63
2, 4676, Note_on_c, 0, 66, 37
2, 4680, Note_on_c, 0, 64, 40
2, 4725, Note_on_c, 0, 64, 0
2, 4730, Note_on_c, 0, 66, 0
2, 4733, Note_on_c, 0, 68, 0
2, 4737, Note_on_c, 0, 78, 0
2, 4738, Note_on_c, 0, 71, 0
2, 4743, Note_on_c, 0, 75, 0
2, 4813, Note_on_c, 0, 78, 44
2, 4818, Note_on_c, 0, 75, 55
2, 4823, Note_on_c, 0, 68, 32
2, 4824, Note_on_c, 0, 71, 52
2, 4826, Note_on_c, 0, 64, 30
2, 4828, Note_on_c, 0, 66, 28
2, 5144, Note_on_c, 0, 68, 0
2, 5280, Note_on_c, 0, 78, 0
2, 5369, Note_on_c, 0, 71, 0
2, 5397, Note_on_c, 0, 75, 0
2, 5586, Note_on_c, 0, 64, 0
2, 5588, Note_on_c, 0, 66, 0
2, 5608, Note_on_c, 0, 87, 70
2, 5644, Note_on_c, 0, 87, 0
2, 5918, Note_on_c, 0, 76, 43
2, 5919, Note_on_c, 0, 83, 44
2, 5919, Note_on_c, 0, 54, 33
2, 5938, Control_c, 0, 64, 0
2, 5986, Control_c, 0, 64, 127
2, 6040, Note_on_c, 0, 61, 33
2, 6045, Note_on_c, 0, 76, 0
2, 6138, Note_on_c, 0, 61, 0
2, 6149, Note_on_c, 0, 54, 0
2, 6154, Note_on_c, 0, 71, 42
2, 6160, Note_on_c, 0, 76, 28
2, 6169, Note_on_c, 0, 64, 24
2, 6256, Note_on_c, 0, 64, 0
2, 6279, Note_on_c, 0, 71, 0
2, 6280, Note_on_c, 0, 68, 13
2, 6303, Note_on_c, 0, 76, 0
2, 6391, Note_on_c, 0, 71, 35
2, 6397, Note_on_c, 0, 83, 0
2, 6399, Note_on_c, 0, 76, 36
2, 6475, Note_on_c, 0, 68, 0
2, 6509, Note_on_c, 0, 76, 0
2, 6536, Note_on_c, 0, 71, 0
2, 6624, Note_on_c, 0, 80, 51
2, 6654, Note_on_c, 0, 80, 0
2, 6725, Control_c, 0, 64, 0
2, 6729, Note_on_c, 0, 47, 40
2, 6732, Note_on_c, 0, 76, 66
2, 6743, Note_on_c, 0, 47, 0
2, 6761, Control_c, 0, 64, 127
2, 6864, Note_on_c, 0, 73, 34
2, 6866, Note_on_c, 0, 69, 53
2, 6871, Note_on_c, 0, 62, 29
2, 6872, Note_on_c, 0, 64, 40
2, 6872, Note_on_c, 0, 66, 38
2, 6910, Note_on_c, 0, 66, 0
2, 6949, Note_on_c, 0, 62, 0
2, 6952, Note_on_c, 0, 64, 0
2, 6993, Note_on_c, 0, 69, 0
2, 7005, Note_on_c, 0, 73, 0
2, 7022, Note_on_c, 0, 76, 0
2, 7059, Note_on_c, 0, 66, 28
2, 7063, Note_on_c, 0, 73, 27
2, 7066, Note_on_c, 0, 76, 29
2, 7069, Note_on_c, 0, 64, 29
2, 7069, Note_on_c, 0, 69, 41
2, 7070, Note_on_c, 0, 62, 29
2, 7103, Note_on_c, 0, 76, 0
2, 7111, Note_on_c, 0, 73, 0
2, 7134, Note_on_c, 0, 66, 0
2, 7135, Note_on_c, 0, 64, 0
2, 7155, Note_on_c, 0, 62, 0
2, 7160, Note_on_c, 0, 69, 0
2, 7183, Note_on_c, 0, 73, 34
2, 7220, Note_on_c, 0, 73, 0
2, 7327, Note_on_c, 0, 52, 45
2, 7330, Note_on_c, 0, 69, 46
2, 7332, Note_on_c, 0, 66, 33
2, 7334, Note_on_c, 0, 62, 30
2, 7354, Control_c, 0, 64, 0
2, 7431, Control_c, 0, 64, 127
2, 7477, Note_on_c, 0, 66, 0
2, 7488, Note_on_c, 0, 59, 31
2, 7501, Note_on_c, 0, 62, 0
2, 7504, Note_on_c, 0, 69, 0
2, 7508, Note_on_c, 0, 59, 0
2, 7636, Note_on_c, 0, 62, 59
2, 7637, Note_on_c, 0, 66, 53
2, 7664, Note_on_c, 0, 62, 0
2, 7670, Note_on_c, 0, 52, 0
2, 7674, Note_on_c, 0, 66, 0
2, 7811, Note_on_c, 0, 33, 50
2, 7814, Control_c, 0, 64, 0
2, 7841, Note_on_c, 0, 33, 0
2, 7841, Control_c, 0, 64, 127
2, 7995, Note_on_c, 0, 86, 87
2, 7999, Note_on_c, 0, 83, 77
2, 8000, Note_on_c, 0, 74, 79
2, 8000, Note_on_c, 0, 79, 77
2, 8001, Note_on_c, 0, 64, 72
2, 8002, Note_on_c, 0, 60, 63
2, 8003, Note_on_c, 0, 55, 67
2, 8006, Note_on_c, 0, 59, 58
2, 8103, Note_on_c, 0, 55, 0
2, 8104, Note_on_c, 0, 59, 0
2, 8107, Note_on_c, 0, 86, 0
2, 8113, Note_on_c, 0, 83, 0
2, 8119, Note_on_c, 0, 64, 0
2, 8121, Note_on_c, 0, 79, 0
2, 8125, Note_on_c, 0, 60, 0
2, 8132, Note_on_c, 0, 74, 0
2, 8204, Note_on_c, 0, 83, 58
2, 8207, Note_on_c, 0, 64, 50
2, 8208, Note_on_c, 0, 76, 55
2, 8209, Note_on_c, 0, 79, 46
2, 8209, Note_on_c, 0, 60, 49
2, 8210, Note_on_c, 0, 55, 42
2, 8210, Note_on_c, 0, 71, 53
2, 8215, Note_on_c, 0, 59, 41
2, 8229, Note_on_c, 0, 59, 0
2, 8238, Note_on_c, 0, 64, 0
2, 8245, Note_on_c, 0, 60, 0
2, 8264, Note_on_c, 0, 55, 0
2, 8378, Note_on_c, 0, 83, 0
2, 8411, Note_on_c, 0, 71, 0
2, 8411, Note_on_c, 0, 76, 0
2, 8415, Note_on_c, 0, 79, 0
2, 8426, Note_on_c, 0, 26, 78
2, 8439, Control_c, 0, 64, 0
2, 8474, Control_c, 0, 64, 127
2, 8526, Note_on_c, 0, 26, 0
2, 8777, Note_on_c, 0, 79, 56
2, 8782, Note_on_c, 0, 76, 54
2, 8785, Note_on_c, 0, 72, 44
2, 8785, Note_on_c, 0, 69, 52
2, 8790, Note_on_c, 0, 64, 41
2, 8889, Note_on_c, 0, 64, 0
2, 8915, Note_on_c, 0, 79, 0
2, 8925, Note_on_c, 0, 76, 0
2, 8932, Note_on_c, 0, 72, 0
2, 8939, Note_on_c, 0, 69, 0
2, 9048, Note_on_c, 0, 76, 45
2, 9051, Note_on_c, 0, 69, 45
2, 9054, Note_on_c, 0, 65, 33
2, 9057, Note_on_c, 0, 60, 33
2, 9097, Note_on_c, 0, 60, 0
2, 9111, Note_on_c, 0, 76, 0
2, 9117, Note_on_c, 0, 69, 0
2, 9136, Note_on_c, 0, 65, 0
2, 9307, Note_on_c, 0, 72, 32
2, 9308, Note_on_c, 0, 43, 39
2, 9308, Note_on_c, 0, 65, 46
2, 9312, Note_on_c, 0, 53, 34
2, 9312, Note_on_c, 0, 58, 25
2, 9338, Control_c, 0, 64, 0
2, 9394, Control_c, 0, 64, 127
2, 9454, Note_on_c, 0, 53, 0
2, 9456, Note_on_c, 0, 65, 0
2, 9486, Note_on_c, 0, 58, 0
2, 9580, Note_on_c, 0, 72, 0
2, 9586, Note_on_c, 0, 65, 38
2, 9591, Note_on_c, 0, 58, 30
2, 9591, Note_on_c, 0, 53, 30
2, 9759, Note_on_c, 0, 65, 0
2, 9779, Note_on_c, 0, 58, 0
2, 9825, Note_on_c, 0, 53, 0
2, 9896, Note_on_c, 0, 43, 0
2, 9899, Note_on_c, 0, 58, 35
2, 9902, Note_on_c, 0, 69, 39
2, 9911, Note_on_c, 0, 65, 33
2, 9914, Note_on_c, 0, 53, 26
2, 9934, Note_on_c, 0, 53, 0
2, 9967, Note_on_c, 0, 69, 0
2, 9969, Note_on_c, 0, 65, 0
2, 10014, Note_on_c, 0, 58, 0
2, 10234, Note_on_c, 0, 65, 34
2, 10236, Note_on_c, 0, 58, 30
2, 10236, Note_on_c, 0, 24, 35
2, 10238, Note_on_c, 0, 53, 22
2, 10239, Note_on_c, 0, 62, 38
2, 10252, Control_c, 0, 64, 0
2, 10252, Note_on_c, 0, 36, 20
2, 10329, Control_c, 0, 64, 127
2, 10406, Note_on_c, 0, 36, 0
2, 10424, Note_on_c, 0, 53, 0
2, 10424, Note_on_c, 0, 62, 0
2, 10440, Note_on_c, 0, 58, 0
2, 10527, Note_on_c, 0, 65, 0
2, 10576, Note_on_c, 0, 62, 36
2, 10577, Note_on_c, 0, 58, 31
2, 10582, Note_on_c, 0, 53, 18
2, 10583, Note_on_c, 0, 36, 29
2, 10893, Note_on_c, 0, 53, 0
2, 10912, Note_on_c, 0, 62, 0
2, 10917, Note_on_c, 0, 58, 0
2, 10998, Note_on_c, 0, 24, 0
2, 11037, Note_on_c, 0, 36, 0
2, 11415, Control_c, 0, 64, 127
2, 11511, Control_c, 0, 64, 0
2, 11531, Control_c, 0, 64, 0
2, 11582, Control_c, 0, 64, 127
2, 11641, Control_c, 0, 64, 0
2, 11647, Note_on_c, 0, 82, 68
2, 11651, Note_on_c, 0, 70, 62
2, 11655, Note_on_c, 0, 67, 53
2, 11656, Note_on_c, 0, 63, 43
2, 11659, Note_on_c, 0, 56, 27
2, 11661, Note_on_c, 0, 60, 46
2, 11701, Control_c, 0, 64, 127
2, 11743, Note_on_c, 0, 67, 0
2, 11751, Note_on_c, 0, 82, 0
2, 11753, Note_on_c, 0, 63, 0
2, 11767, Note_on_c, 0, 56, 0
2, 11769, Note_on_c, 0, 60, 0
2, 11772, Note_on_c, 0, 70, 0
2, 11823, Note_on_c, 0, 65, 44
2, 11825, Note_on_c, 0, 75, 53
2, 11828, Control_c, 0, 64, 0
2, 11832, Note_on_c, 0, 61, 33
2, 11834, Note_on_c, 0, 56, 20
2, 11835, Note_on_c, 0, 60, 34
2, 11917, Control_c, 0, 64, 127
2, 11959, Note_on_c, 0, 60, 0
2, 11960, Note_on_c, 0, 61, 0
2, 11962, Note_on_c, 0, 65, 0
2, 11965, Note_on_c, 0, 56, 0
2, 12015, Note_on_c, 0, 65, 34
2, 12018, Note_on_c, 0, 61, 29
2, 12034, Note_on_c, 0, 65, 0
2, 12044, Note_on_c, 0, 61, 0
2, 12065, Note_on_c, 0, 75, 0
2, 12126, Note_on_c, 0, 72, 49
2, 12140, Note_on_c, 0, 72, 0
2, 12172, Control_c, 0, 64, 0
2, 12179, Note_on_c, 0, 58, 34
2, 12180, Note_on_c, 0, 54, 31
2, 12181, Note_on_c, 0, 65, 31
2, 12181, Note_on_c, 0, 80, 60
2, 12182, Note_on_c, 0, 61, 25
2, 12267, Control_c, 0, 64, 127
2, 12293, Note_on_c, 0, 61, 0
2, 12294, Note_on_c, 0, 58, 0
2, 12296, Note_on_c, 0, 65, 0
2, 12309, Note_on_c, 0, 54, 0
2, 12362, Note_on_c, 0, 65, 39
2, 12363, Note_on_c, 0, 54, 31
2, 12364, Note_on_c, 0, 58, 45
2, 12367, Note_on_c, 0, 61, 33
2, 12467, Note_on_c, 0, 65, 0
2, 12474, Note_on_c, 0, 61, 0
2, 12476, Note_on_c, 0, 54, 0
2, 12487, Note_on_c, 0, 77, 69
2, 12503, Note_on_c, 0, 58, 0
2, 12506, Note_on_c, 0, 80, 0
2, 12514, Control_c, 0, 64, 0
2, 12533, Note_on_c, 0, 77, 0
2, 12538, Note_on_c, 0, 54, 35
2, 12538, Note_on_c, 0, 65, 39
2, 12541, Note_on_c, 0, 73, 35
2, 12546, Note_on_c, 0, 60, 36
2, 12644, Control_c, 0, 64, 127
2, 12681, Note_on_c, 0, 65, 0
2, 12700, Note_on_c, 0, 60, 0
2, 12723, Note_on_c, 0, 73, 0
2, 12724, Note_on_c, 0, 70, 31
2, 12726, Note_on_c, 0, 60, 33
2, 12731, Note_on_c, 0, 65, 26
2, 12780, Note_on_c, 0, 60, 0
2, 12784, Note_on_c, 0, 70, 0
2, 12785, Note_on_c, 0, 65, 0
2, 12789, Note_on_c, 0, 54, 0
2, 12992, Control_c, 0, 64, 0
2, 13000, Note_on_c, 0, 68, 52
2, 13008, Note_on_c, 0, 59, 48
2, 13009, Note_on_c, 0, 64, 47
2, 13009, Note_on_c, 0, 63, 31
2, 13124, Note_on_c, 0, 78, 82
2, 13157, Note_on_c, 0, 59, 0
2, 13167, Note_on_c, 0, 64, 0
2, 13179, Note_on_c, 0, 63, 0
2, 13181, Note_on_c, 0, 68, 0
2, 13184, Note_on_c, 0, 78, 0
2, 13208, Note_on_c, 0, 76, 30
2, 13233, Note_on_c, 0, 76, 0
2, 13240, Note_on_c, 0, 68, 31
2, 13244, Note_on_c, 0, 58, 33
2, 13248, Note_on_c, 0, 64, 37
2, 13249, Note_on_c, 0, 63, 25
2, 13250, Note_on_c, 0, 78, 56
2, 13303, Note_on_c, 0, 78, 0
2, 13328, Note_on_c, 0, 83, 63
2, 13343, Note_on_c, 0, 64, 0
2, 13347, Note_on_c, 0, 68, 0
2, 13350, Note_on_c, 0, 83, 0
2, 13350, Note_on_c, 0, 63, 0
2, 13370, Note_on_c, 0, 58, 0
2, 13561, Note_on_c, 0, 61, 37
2, 13569, Note_on_c, 0, 62, 41
2, 13581, Note_on_c, 0, 62, 0
2, 13601, Note_on_c, 0, 74, 84
2, 13604, Note_on_c, 0, 61, 0
2, 13664, Note_on_c, 0, 74, 0
2, 13675, Note_on_c, 0, 76, 47
2, 13689, Note_on_c, 0, 62, 24
2, 13697, Note_on_c, 0, 74, 34
2, 13703, Note_on_c, 0, 76, 0
2, 13708, Note_on_c, 0, 62, 0
2, 13728, Note_on_c, 0, 74, 0
2, 13730, Note_on_c, 0, 73, 25
2, 13779, Note_on_c, 0, 73, 0
2, 13795, Note_on_c, 0, 74, 66
2, 13799, Note_on_c, 0, 66, 46
2, 13803, Note_on_c, 0, 61, 31
2, 13817, Note_on_c, 0, 66, 0
2, 13824, Note_on_c, 0, 74, 0
2, 13843, Note_on_c, 0, 61, 0
2, 13849, Note_on_c, 0, 75, 36
2, 13891, Note_on_c, 0, 75, 0
2, 13894, Control_c, 0, 64, 127
2, 13909, Note_on_c, 0, 76, 54
2, 13918, Note_on_c, 0, 62, 41
2, 13919, Note_on_c, 0, 66, 40
2, 13919, Note_on_c, 0, 56, 46
2, 13921, Control_c, 0, 64, 0
2, 13947, Note_on_c, 0, 66, 0
2, 13949, Note_on_c, 0, 76, 0
2, 13973, Note_on_c, 0, 78, 46
2, 13975, Note_on_c, 0, 62, 0
2, 13981, Note_on_c, 0, 56, 0
2, 14008, Note_on_c, 0, 78, 0
2, 14034, Note_on_c, 0, 81, 71
2, 14037, Note_on_c, 0, 66, 51
2, 14038, Note_on_c, 0, 62, 47
2, 14039, Note_on_c, 0, 56, 37
2, 14055, Note_on_c, 0, 62, 0
2, 14057, Note_on_c, 0, 66, 0
2, 14066, Note_on_c, 0, 56, 0
2, 14067, Note_on_c, 0, 81, 0
2, 14090, Note_on_c, 0, 86, 70
2, 14108, Control_c, 0, 64, 127
2, 14126, Note_on_c, 0, 86, 0
2, 14144, Note_on_c, 0, 66, 82
2, 14146, Note_on_c, 0, 56, 72
2, 14146, Note_on_c, 0, 62, 71
2, 14150, Note_on_c, 0, 90, 75
2, 14152, Control_c, 0, 64, 0
2, 14157, Note_on_c, 0, 86, 40
2, 14169, Note_on_c, 0, 86, 0
2, 14189, Note_on_c, 0, 90, 0
2, 14191, Note_on_c, 0, 62, 0
2, 14198, Note_on_c, 0, 66, 0
2, 14209, Control_c, 0, 64, 127
2, 14209, Note_on_c, 0, 91, 70
2, 14210, Note_on_c, 0, 93, 78
2, 14236, Note_on_c, 0, 56, 0
2, 14249, Note_on_c, 0, 91, 0
2, 14250, Note_on_c, 0, 93, 0
2, 14279, Note_on_c, 0, 95, 80
2, 14286, Note_on_c, 0, 93, 48
2, 14288, Note_on_c, 0, 64, 71
2, 14289, Note_on_c, 0, 55, 68
2, 14290, Note_on_c, 0, 60, 71
2, 14291, Note_on_c, 0, 59, 64
2, 14295, Control_c, 0, 64, 0
2, 14298, Note_on_c, 0, 93, 0
2, 14320, Note_on_c, 0, 95, 0
2, 14361, Note_on_c, 0, 95, 74
2, 14425, Note_on_c, 0, 95, 0
2, 14428, Control_c, 0, 64, 127
2, 14443, Note_on_c, 0, 91, 66
2, 14444, Note_on_c, 0, 59, 0
2, 14455, Note_on_c, 0, 60, 0
2, 14463, Note_on_c, 0, 55, 0
2, 14469, Note_on_c, 0, 64, 0
2, 14493, Note_on_c, 0, 91, 0
2, 14512, Note_on_c, 0, 64, 58
2, 14515, Note_on_c, 0, 60, 61
2, 14515, Note_on_c, 0, 88, 78
2, 14516, Note_on_c, 0, 55, 54
2, 14518, Note_on_c, 0, 59, 52
2, 14538, Control_c, 0, 64, 0
2, 14562, Note_on_c, 0, 88, 0
2, 14562, Control_c, 0, 64, 127
2, 14584, Note_on_c, 0, 88, 70
2, 14629, Note_on_c, 0, 59, 0
2, 14630, Note_on_c, 0, 60, 0
2, 14654, Note_on_c, 0, 64, 0
2, 14655, Note_on_c, 0, 55, 0
2, 14667, Note_on_c, 0, 88, 0
2, 14677, Note_on_c, 0, 83, 52
2, 14742, Note_on_c, 0, 83, 0
2, 14764, Note_on_c, 0, 53, 32
2, 14766, Note_on_c, 0, 88, 57
2, 14766, Note_on_c, 0, 60, 35
2, 14767, Note_on_c, 0, 64, 34
2, 14769, Note_on_c, 0, 57, 46
2, 14776, Control_c, 0, 64, 0
2, 14838, Control_c, 0, 64, 127
2, 14845, Note_on_c, 0, 88, 0
2, 14855, Note_on_c, 0, 84, 54
2, 14895, Note_on_c, 0, 84, 0
2, 14938, Note_on_c, 0, 76, 35
2, 14949, Note_on_c, 0, 64, 0
2, 14950, Note_on_c, 0, 57, 0
2, 14951, Note_on_c, 0, 60, 0
2, 14963, Note_on_c, 0, 53, 0
2, 14980, Note_on_c, 0, 76, 0
2, 15033, Note_on_c, 0, 53, 33
2, 15046, Control_c, 0, 64, 0
2, 15047, Note_on_c, 0, 62, 40
2, 15047, Note_on_c, 0, 58, 47
2, 15050, Note_on_c, 0, 57, 15
2, 15055, Note_on_c, 0, 72, 71
2, 15056, Note_on_c, 0, 84, 78
2, 15144, Control_c, 0, 64, 127
2, 15164, Note_on_c, 0, 84, 0
2, 15187, Note_on_c, 0, 62, 0
2, 15189, Note_on_c, 0, 72, 0
2, 15208, Note_on_c, 0, 58, 0
2, 15216, Note_on_c, 0, 53, 0
2, 15218, Note_on_c, 0, 57, 0
2, 15246, Note_on_c, 0, 80, 60
2, 15248, Control_c, 0, 64, 0
2, 15249, Note_on_c, 0, 68, 82
2, 15252, Note_on_c, 0, 58, 53
2, 15253, Note_on_c, 0, 81, 64
2, 15253, Note_on_c, 0, 62, 58
2, 15256, Note_on_c, 0, 74, 41
2, 15269, Note_on_c, 0, 74, 0
2, 15302, Note_on_c, 0, 69, 70
2, 15305, Control_c, 0, 64, 127
2, 15307, Note_on_c, 0, 68, 0
2, 15322, Note_on_c, 0, 58, 0
2, 15348, Note_on_c, 0, 80, 0
2, 15366, Note_on_c, 0, 81, 0
2, 15370, Note_on_c, 0, 62, 0
2, 15385, Note_on_c, 0, 69, 0
2, 15406, Control_c, 0, 64, 0
2, 15416, Note_on_c, 0, 77, 61
2, 15418, Note_on_c, 0, 65, 71
2, 15418, Note_on_c, 0, 73, 46
2, 15425, Note_on_c, 0, 62, 51
2, 15429, Note_on_c, 0, 58, 36
2, 15429, Note_on_c, 0, 75, 23
2, 15439, Note_on_c, 0, 75, 0
2, 15485, Note_on_c, 0, 74, 37
2, 15491, Note_on_c, 0, 73, 0
2, 15495, Note_on_c, 0, 62, 0
2, 15509, Control_c, 0, 64, 127
2, 15512, Note_on_c, 0, 58, 0
2, 15512, Note_on_c, 0, 74, 0
2, 15522, Note_on_c, 0, 77, 0
2, 15534, Note_on_c, 0, 65, 0
2, 15601, Control_c, 0, 64, 0
2, 15602, Note_on_c, 0, 48, 52
2, 15603, Note_on_c, 0, 64, 66
2, 15603, Note_on_c, 0, 76, 59
2, 15606, Note_on_c, 0, 58, 46
2, 15607, Note_on_c, 0, 72, 44
2, 15628, Note_on_c, 0, 48, 0
2, 15634, Control_c, 0, 64, 127
2, 15640, Note_on_c, 0, 64, 0
2, 15641, Note_on_c, 0, 58, 0
2, 15667, Note_on_c, 0, 72, 0
2, 15675, Note_on_c, 0, 76, 0
2, 15769, Note_on_c, 0, 56, 74
2, 15770, Note_on_c, 0, 63, 74
2, 15771, Control_c, 0, 64, 0
2, 15771, Note_on_c, 0, 94, 91
2, 15772, Note_on_c, 0, 60, 77
2, 15772, Note_on_c, 0, 82, 86
2, 15773, Note_on_c, 0, 67, 91
2, 15775, Note_on_c, 0, 87, 69
2, 15784, Note_on_c, 0, 87, 0
2, 15834, Control_c, 0, 64, 127
2, 15883, Note_on_c, 0, 94, 0
2, 15896, Note_on_c, 0, 82, 0
2, 15904, Note_on_c, 0, 60, 0
2, 15905, Note_on_c, 0, 67, 0
2, 15907, Note_on_c, 0, 56, 0
2, 15908, Note_on_c, 0, 63, 0
2, 15960, Note_on_c, 0, 91, 64
2, 15962, Note_on_c, 0, 86, 74
2, 15962, Note_on_c, 0, 79, 55
2, 15965, Note_on_c, 0, 67, 79
2, 15966, Note_on_c, 0, 63, 60
2, 15968, Note_on_c, 0, 56, 58
2, 15968, Note_on_c, 0, 60, 63
2, 16032, Note_on_c, 0, 91, 0
2, 16037, Note_on_c, 0, 86, 0
2, 16062, Note_on_c, 0, 63, 0
2, 16064, Note_on_c, 0, 79, 0
2, 16077, Note_on_c, 0, 67, 0
2, 16082, Note_on_c, 0, 56, 0
2, 16087, Note_on_c, 0, 60, 0
2, 16132, Note_on_c, 0, 87, 77
2, 16134, Control_c, 0, 64, 0
2, 16134, Note_on_c, 0, 56, 72
2, 16134, Note_on_c, 0, 60, 76
2, 16135, Note_on_c, 0, 61, 68
2, 16135, Note_on_c, 0, 65, 82
2, 16137, Note_on_c, 0, 75, 67
2, 16138, Note_on_c, 0, 82, 68
2, 16206, Control_c, 0, 64, 127
2, 16237, Note_on_c, 0, 82, 0
2, 16238, Note_on_c, 0, 87, 0
2, 16254, Note_on_c, 0, 75, 0
2, 16263, Note_on_c, 0, 61, 0
2, 16271, Note_on_c, 0, 60, 0
2, 16274, Note_on_c, 0, 65, 0
2, 16276, Note_on_c, 0, 56, 0
2, 16318, Control_c, 0, 64, 0
2, 16324, Note_on_c, 0, 84, 58
2, 16328, Note_on_c, 0, 79, 47
2, 16328, Note_on_c, 0, 65, 60
2, 16328, Note_on_c, 0, 56, 40
2, 16329, Note_on_c, 0, 61, 46
2, 16330, Note_on_c, 0, 72, 31
2, 16333, Note_on_c, 0, 60, 50
2, 16390, Note_on_c, 0, 60, 0
2, 16392, Note_on_c, 0, 72, 0
2, 16402, Note_on_c, 0, 84, 0
2, 16405, Note_on_c, 0, 79, 0
2, 16416, Note_on_c, 0, 65, 0
2, 16435, Note_on_c, 0, 61, 0
2, 16441, Note_on_c, 0, 56, 0
2, 16494, Control_c, 0, 64, 127
2, 16498, Note_on_c, 0, 65, 54
2, 16499, Note_on_c, 0, 54, 49
2, 16500, Note_on_c, 0, 58, 48
2, 16500, Note_on_c, 0, 92, 59
2, 16500, Note_on_c, 0, 61, 37
2, 16504, Note_on_c, 0, 87, 46
2, 16507, Note_on_c, 0, 80, 25
2, 16548, Note_on_c, 0, 65, 0
2, 16550, Note_on_c, 0, 54, 0
2, 16551, Note_on_c, 0, 87, 0
2, 16551, Note_on_c, 0, 80, 0
2, 16554, Note_on_c, 0, 92, 0
2, 16554, Note_on_c, 0, 61, 0
2, 16557, Note_on_c, 0, 58, 0
2, 16578, Note_on_c, 0, 94, 68
2, 16580, Note_on_c, 0, 82, 42
2, 16582, Note_on_c, 0, 65, 53
2, 16582, Note_on_c, 0, 54, 46
2, 16583, Note_on_c, 0, 58, 49
2, 16586, Note_on_c, 0, 61, 33
2, 16586, Note_on_c, 0, 87, 47
2, 16604, Note_on_c, 0, 82, 0
2, 16604, Note_on_c, 0, 94, 0
2, 16606, Note_on_c, 0, 65, 0
2, 16609, Note_on_c, 0, 87, 0
2, 16611, Note_on_c, 0, 54, 0
2, 16612, Note_on_c, 0, 61, 0
2, 16617, Note_on_c, 0, 58, 0
2, 16620, Control_c, 0, 64, 0
2, 16637, Note_on_c, 0, 92, 53
2, 16638, Note_on_c, 0, 65, 40
2, 16638, Note_on_c, 0, 54, 34
2, 16639, Note_on_c, 0, 61, 31
2, 16640, Note_on_c, 0, 58, 43
2, 16641, Note_on_c, 0, 87, 37
2, 16643, Note_on_c, 0, 80, 27
2, 16724, Control_c, 0, 64, 127
2, 16755, Note_on_c, 0, 92, 0
2, 16756, Note_on_c, 0, 87, 0
2, 16762, Note_on_c, 0, 65, 0
2, 16767, Note_on_c, 0, 80, 0
2, 16780, Note_on_c, 0, 61, 0
2, 16790, Note_on_c, 0, 54, 0
2, 16823, Note_on_c, 0, 58, 0
2, 16928, Control_c, 0, 64, 0
2, 16931, Note_on_c, 0, 75, 55
2, 16933, Note_on_c, 0, 54, 44
2, 16936, Note_on_c, 0, 64, 37
2, 16938, Note_on_c, 0, 82, 29
2, 16938, Note_on_c, 0, 60, 37
2, 16941, Note_on_c, 0, 75, 0
2, 16947, Note_on_c, 0, 82, 0
2, 16948, Note_on_c, 0, 64, 0
2, 16950, Note_on_c, 0, 60, 0
2, 16958, Note_on_c, 0, 54, 0
2, 17083, Control_c, 0, 64, 127
2, 17201, Control_c, 0, 64, 0
2, 17288, Control_c, 0, 64, 127
2, 17291, Control_c, 0, 64, 0
2, 17293, Note_on_c, 0, 68, 63
2, 17295, Note_on_c, 0, 63, 34
2, 17298, Note_on_c, 0, 64, 58
2, 17298, Note_on_c, 0, 59, 38
2, 17327, Note_on_c, 0, 78, 38
2, 17330, Note_on_c, 0, 79, 61
2, 17363, Note_on_c, 0, 79, 0
2, 17378, Note_on_c, 0, 78, 0
2, 17391, Note_on_c, 0, 64, 0
2, 17404, Note_on_c, 0, 71, 53
2, 17413, Note_on_c, 0, 64, 28
2, 17433, Note_on_c, 0, 71, 0
2, 17451, Note_on_c, 0, 73, 34
2, 17472, Note_on_c, 0, 59, 0
2, 17478, Note_on_c, 0, 68, 0
2, 17507, Control_c, 0, 64, 127
2, 17508, Note_on_c, 0, 73, 0
2, 17521, Note_on_c, 0, 78, 73
2, 17528, Note_on_c, 0, 68, 55
2, 17533, Note_on_c, 0, 58, 40
2, 17537, Control_c, 0, 64, 0
2, 17554, Note_on_c, 0, 78, 0
2, 17584, Note_on_c, 0, 73, 33
2, 17599, Note_on_c, 0, 64, 0
2, 17644, Note_on_c, 0, 73, 0
2, 17646, Note_on_c, 0, 68, 0
2, 17676, Control_c, 0, 64, 127
2, 17679, Note_on_c, 0, 73, 51
2, 17720, Note_on_c, 0, 63, 0
2, 17729, Note_on_c, 0, 58, 0
2, 17748, Note_on_c, 0, 68, 38
2, 17754, Note_on_c, 0, 58, 21
2, 17756, Note_on_c, 0, 64, 37
2, 17760, Note_on_c, 0, 68, 0
2, 17770, Note_on_c, 0, 64, 0
2, 17771, Control_c, 0, 64, 0
2, 17807, Note_on_c, 0, 58, 0
2, 17807, Control_c, 0, 64, 127
2, 17890, Note_on_c, 0, 73, 0
2, 17902, Control_c, 0, 64, 0
2, 17920, Note_on_c, 0, 66, 34
2, 17922, Note_on_c, 0, 62, 44
2, 17924, Note_on_c, 0, 75, 48
2, 17928, Note_on_c, 0, 57, 36
2, 17951, Note_on_c, 0, 75, 0
2, 17953, Note_on_c, 0, 76, 60
2, 18011, Note_on_c, 0, 76, 0
2, 18047, Note_on_c, 0, 75, 69
2, 18070, Note_on_c, 0, 62, 0
2, 18070, Note_on_c, 0, 76, 71
2, 18071, Note_on_c, 0, 75, 0
2, 18075, Note_on_c, 0, 66, 0
2, 18123, Note_on_c, 0, 66, 31
2, 18136, Note_on_c, 0, 62, 35
2, 18146, Note_on_c, 0, 66, 0
2, 18154, Control_c, 0, 64, 127
2, 18207, Note_on_c, 0, 57, 0
2, 18249, Note_on_c, 0, 76, 0
2, 18261, Note_on_c, 0, 62, 0
2, 18285, Control_c, 0, 64, 0
2, 18292, Note_on_c, 0, 56, 44
2, 18300, Note_on_c, 0, 62, 13
2, 18301, Note_on_c, 0, 66, 42
2, 18368, Control_c, 0, 64, 127
2, 18415, Note_on_c, 0, 56, 0
2, 18437, Note_on_c, 0, 62, 0
2, 18450, Note_on_c, 0, 66, 0
2, 18478, Note_on_c, 0, 56, 50
2, 18479, Note_on_c, 0, 62, 35
2, 18480, Note_on_c, 0, 69, 51
2, 18499, Note_on_c, 0, 62, 0
2, 18502, Note_on_c, 0, 69, 0
2, 18538, Note_on_c, 0, 56, 0
2, 18647, Control_c, 0, 64, 0
2, 18648, Note_on_c, 0, 90, 73
2, 18649, Note_on_c, 0, 95, 78
2, 18649, Note_on_c, 0, 60, 79
2, 18649, Note_on_c, 0, 83, 79
2, 18650, Note_on_c, 0, 55, 82
2, 18650, Note_on_c, 0, 64, 82
2, 18650, Note_on_c, 0, 59, 69
2, 18695, Control_c, 0, 64, 127
2, 18706, Note_on_c, 0, 91, 36
2, 18713, Note_on_c, 0, 90, 0
2, 18763, Note_on_c, 0, 91, 0
2, 18767, Note_on_c, 0, 95, 0
2, 18776, Note_on_c, 0, 83, 0
2, 18797, Note_on_c, 0, 59, 0
2, 18801, Note_on_c, 0, 64, 0
2, 18801, Note_on_c, 0, 55, 0
2, 18803, Note_on_c, 0, 60, 0
2, 18845, Note_on_c, 0, 91, 76
2, 18846, Note_on_c, 0, 64, 80
2, 18847, Note_on_c, 0, 60, 74
2, 18848, Note_on_c, 0, 79, 68
2, 18848, Note_on_c, 0, 55, 77
2, 18849, Note_on_c, 0, 86, 84
2, 18849, Note_on_c, 0, 59, 69
2, 18867, Control_c, 0, 64, 0
2, 18885, Control_c, 0, 64, 127
2, 18906, Note_on_c, 0, 64, 0
2, 18908, Note_on_c, 0, 59, 0
2, 18914, Note_on_c, 0, 60, 0
2, 18917, Note_on_c, 0, 55, 0
2, 18929, Note_on_c, 0, 86, 0
2, 18932, Note_on_c, 0, 91, 0
2, 18945, Note_on_c, 0, 79, 0
2, 19007, Control_c, 0, 64, 0
2, 19009, Note_on_c, 0, 50, 57
2, 19012, Note_on_c, 0, 88, 71
2, 19013, Note_on_c, 0, 57, 55
2, 19013, Note_on_c, 0, 53, 62
2, 19013, Note_on_c, 0, 60, 71
2, 19014, Note_on_c, 0, 83, 65
2, 19016, Note_on_c, 0, 76, 54
2, 19068, Control_c, 0, 64, 127
2, 19117, Note_on_c, 0, 83, 0
2, 19117, Note_on_c, 0, 88, 0
2, 19135, Note_on_c, 0, 76, 0
2, 19158, Note_on_c, 0, 60, 0
2, 19158, Note_on_c, 0, 57, 0
2, 19160, Note_on_c, 0, 53, 0
2, 19163, Note_on_c, 0, 50, 0
2, 19205, Note_on_c, 0, 84, 62
2, 19209, Note_on_c, 0, 50, 44
2, 19209, Note_on_c, 0, 72, 44
2, 19212, Note_on_c, 0, 79, 40
2, 19216, Note_on_c, 0, 60, 31
2, 19217, Note_on_c, 0, 53, 33
2, 19219, Note_on_c, 0, 57, 31
2, 19264, Note_on_c, 0, 53, 0
2, 19266, Note_on_c, 0, 50, 0
2, 19272, Note_on_c, 0, 57, 0
2, 19296, Note_on_c, 0, 79, 0
2, 19296, Note_on_c, 0, 60, 0
2, 19320, Note_on_c, 0, 84, 0
2, 19328, Note_on_c, 0, 72, 0
2, 19375, Note_on_c, 0, 53, 43
2, 19380, Control_c, 0, 64, 0
2, 19380, Note_on_c, 0, 77, 46
2, 19381, Note_on_c, 0, 84, 45
2, 19381, Note_on_c, 0, 62, 35
2, 19383, Note_on_c, 0, 72, 33
2, 19384, Note_on_c, 0, 57, 38
2, 19385, Note_on_c, 0, 58, 38
2, 19439, Control_c, 0, 64, 127
2, 19457, Note_on_c, 0, 84, 0
2, 19474, Note_on_c, 0, 77, 0
2, 19486, Note_on_c, 0, 72, 0
2, 19521, Note_on_c, 0, 58, 0
2, 19524, Note_on_c, 0, 62, 0
2, 19529, Note_on_c, 0, 57, 0
2, 19531, Note_on_c, 0, 53, 0
2, 19621, Note_on_c, 0, 81, 55
2, 19623, Note_on_c, 0, 74, 51
2, 19624, Note_on_c, 0, 69, 46
2, 19624, Note_on_c, 0, 62, 38
2, 19627, Note_on_c, 0, 57, 35
2, 19627, Note_on_c, 0, 58, 39
2, 19628, Note_on_c, 0, 77, 44
2, 19681, Note_on_c, 0, 57, 0
2, 19685, Note_on_c, 0, 81, 0
2, 19693, Note_on_c, 0, 74, 0
2, 19693, Note_on_c, 0, 77, 0
2, 19700, Note_on_c, 0, 62, 0
2, 19707, Note_on_c, 0, 69, 0
2, 19709, Note_on_c, 0, 58, 0
2, 19809, Note_on_c, 0, 77, 44
2, 19809, Note_on_c, 0, 70, 32
2, 19812, Note_on_c, 0, 74, 43
2, 19812, Note_on_c, 0, 58, 40
2, 19813, Control_c, 0, 64, 0
2, 19813, Note_on_c, 0, 65, 32
2, 19814, Note_on_c, 0, 64, 33
2, 19872, Control_c, 0, 64, 127
2, 19943, Note_on_c, 0, 65, 0
2, 19953, Note_on_c, 0, 64, 0
2, 19962, Note_on_c, 0, 74, 0
2, 19965, Note_on_c, 0, 58, 0
2, 19966, Note_on_c, 0, 70, 0
2, 19989, Note_on_c, 0, 77, 0
2, 20211, Note_on_c, 0, 86, 95
2, 20212, Note_on_c, 0, 50, 74
2, 20310, Note_on_c, 0, 86, 0
2, 20352, Note_on_c, 0, 50, 0
2, 20360, Note_on_c, 0, 89, 79
2, 20363, Note_on_c, 0, 53, 70
2, 20555, Note_on_c, 0, 89, 0
2, 20564, Control_c, 0, 64, 0
2, 20566, Note_on_c, 0, 52, 59
2, 20567, Note_on_c, 0, 88, 37
2, 20587, Note_on_c, 0, 53, 0
2, 20623, Control_c, 0, 64, 127
2, 20659, Control_c, 0, 64, 0
2, 20681, Note_on_c, 0, 52, 0
2, 20683, Note_on_c, 0, 88, 0
2, 20707, Note_on_c, 0, 88, 53
2, 20707, Control_c, 0, 64, 127
2, 20711, Note_on_c, 0, 52, 53
2, 20734, Control_c, 0, 64, 0
2, 20788, Control_c, 0, 64, 127
2, 20828, Note_on_c, 0, 60, 31
2, 20856, Note_on_c, 0, 88, 0
2, 20910, Note_on_c, 0, 65, 37
2, 20912, Note_on_c, 0, 64, 24
2, 20964, Note_on_c, 0, 52, 0
2, 20990, Note_on_c, 0, 65, 0
2, 20993, Note_on_c, 0, 68, 57
2, 21040, Note_on_c, 0, 68, 0
2, 21058, Note_on_c, 0, 71, 80
2, 21104, Note_on_c, 0, 71, 0
2, 21118, Note_on_c, 0, 64, 0
2, 21119, Note_on_c, 0, 74, 90
2, 21129, Note_on_c, 0, 73, 34
2, 21134, Note_on_c, 0, 60, 0
2, 21139, Note_on_c, 0, 73, 0
2, 21169, Note_on_c, 0, 74, 0
2, 21190, Note_on_c, 0, 72, 65
2, 21193, Note_on_c, 0, 64, 50
2, 21195, Note_on_c, 0, 69, 53
2, 21200, Note_on_c, 0, 60, 34
2, 21203, Control_c, 0, 64, 0
2, 21266, Control_c, 0, 64, 127
2, 21281, Note_on_c, 0, 64, 0
2, 21304, Note_on_c, 0, 69, 0
2, 21313, Note_on_c, 0, 72, 0
2, 21363, Note_on_c, 0, 69, 54
2, 21392, Note_on_c, 0, 69, 0
2, 21407, Note_on_c, 0, 60, 0
2, 21409, Note_on_c, 0, 72, 60
2, 21441, Note_on_c, 0, 72, 0
2, 21458, Note_on_c, 0, 76, 85
2, 21498, Note_on_c, 0, 76, 0
2, 21514, Note_on_c, 0, 79, 82
2, 21515, Note_on_c, 0, 74, 88
2, 21517, Note_on_c, 0, 69, 85
2, 21518, Note_on_c, 0, 64, 73
2, 21524, Control_c, 0, 64, 0
2, 21567, Note_on_c, 0, 79, 0
2, 21584, Note_on_c, 0, 74, 0
2, 21587, Note_on_c, 0, 69, 0
2, 21594, Note_on_c, 0, 78, 62
2, 21595, Note_on_c, 0, 63, 60
2, 21597, Note_on_c, 0, 64, 0
2, 21597, Note_on_c, 0, 69, 32
2, 21598, Control_c, 0, 64, 127
2, 21600, Note_on_c, 0, 74, 65
2, 21645, Note_on_c, 0, 78, 0
2, 21648, Note_on_c, 0, 69, 0
2, 21656, Note_on_c, 0, 74, 0
2, 21661, Note_on_c, 0, 63, 0
2, 21667, Note_on_c, 0, 77, 68
2, 21668, Note_on_c, 0, 62, 61
2, 21683, Note_on_c, 0, 62, 0
2, 21695, Note_on_c, 0, 77, 0
2, 21740, Note_on_c, 0, 76, 53
2, 21741, Note_on_c, 0, 77, 51
2, 21765, Note_on_c, 0, 77, 0
2, 21782, Note_on_c, 0, 76, 0
2, 21814, Note_on_c, 0, 76, 58
2, 21817, Note_on_c, 0, 47, 35
2, 21818, Control_c, 0, 64, 0
2, 21883, Note_on_c, 0, 57, 41
2, 21889, Control_c, 0, 64, 127
2, 21905, Note_on_c, 0, 76, 0
2, 21949, Note_on_c, 0, 62, 50
2, 21963, Note_on_c, 0, 57, 0
2, 21980, Note_on_c, 0, 62, 0
2, 21994, Note_on_c, 0, 47, 0
2, 22011, Note_on_c, 0, 69, 66
2, 22041, Note_on_c, 0, 69, 0
2, 22068, Note_on_c, 0, 72, 68
2, 22110, Note_on_c, 0, 72, 0
2, 22124, Note_on_c, 0, 74, 73
2, 22157, Note_on_c, 0, 74, 0
2, 22180, Note_on_c, 0, 76, 79
2, 22210, Note_on_c, 0, 76, 0
2, 22239, Note_on_c, 0, 77, 85
2, 22275, Note_on_c, 0, 77, 0
2, 22308, Control_c, 0, 64, 0
2, 22310, Note_on_c, 0, 28, 64
2, 22311, Note_on_c, 0, 79, 79
2, 22313, Note_on_c, 0, 75, 75
2, 22345, Note_on_c, 0, 76, 55
2, 22361, Control_c, 0, 64, 127
2, 22370, Note_on_c, 0, 75, 0
2, 22400, Note_on_c, 0, 79, 0
2, 22410, Note_on_c, 0, 76, 0
2, 22429, Note_on_c, 0, 79, 40
2, 22434, Note_on_c, 0, 56, 51
2, 22435, Note_on_c, 0, 74, 64
2, 22459, Note_on_c, 0, 28, 0
2, 22531, Note_on_c, 0, 74, 0
2, 22557, Note_on_c, 0, 76, 54
2, 22559, Note_on_c, 0, 72, 30
2, 22563, Control_c, 0, 64, 0
2, 22565, Note_on_c, 0, 62, 37
2, 22599, Control_c, 0, 64, 127
2, 22664, Note_on_c, 0, 72, 0
2, 22694, Note_on_c, 0, 79, 0
2, 22697, Note_on_c, 0, 76, 0
2, 22714, Note_on_c, 0, 67, 44
2, 22802, Note_on_c, 0, 67, 0
2, 22853, Note_on_c, 0, 62, 0
2, 22880, Note_on_c, 0, 56, 0
2, 22998, Note_on_c, 0, 65, 95
2, 23003, Note_on_c, 0, 52, 33
2, 23004, Note_on_c, 0, 53, 32
2, 23014, Control_c, 0, 64, 0
2, 23043, Note_on_c, 0, 52, 0
2, 23069, Note_on_c, 0, 65, 0
2, 23077, Note_on_c, 0, 67, 56
2, 23099, Note_on_c, 0, 65, 44
2, 23103, Control_c, 0, 64, 127
2, 23110, Note_on_c, 0, 67, 0
2, 23116, Note_on_c, 0, 53, 0
2, 23136, Note_on_c, 0, 52, 36
2, 23140, Note_on_c, 0, 65, 0
2, 23142, Control_c, 0, 64, 0
2, 23146, Note_on_c, 0, 64, 33
2, 23212, Note_on_c, 0, 53, 64
2, 23214, Note_on_c, 0, 64, 0
2, 23214, Note_on_c, 0, 52, 0
2, 23216, Note_on_c, 0, 65, 71
2, 23267, Note_on_c, 0, 53, 0
2, 23268, Note_on_c, 0, 65, 0
2, 23283, Note_on_c, 0, 68, 64
2, 23329, Note_on_c, 0, 68, 0
2, 23338, Note_on_c, 0, 56, 42
2, 23347, Note_on_c, 0, 71, 60
2, 23367, Control_c, 0, 64, 127
2, 23389, Note_on_c, 0, 71, 0
2, 23406, Control_c, 0, 64, 0
2, 23418, Note_on_c, 0, 59, 48
2, 23419, Note_on_c, 0, 74, 63
2, 23424, Control_c, 0, 64, 127
2, 23479, Note_on_c, 0, 74, 0
2, 23482, Note_on_c, 0, 59, 0
2, 23487, Note_on_c, 0, 62, 37
2, 23497, Note_on_c, 0, 56, 0
2, 23498, Note_on_c, 0, 76, 74
2, 23500, Note_on_c, 0, 62, 0
2, 23545, Note_on_c, 0, 76, 0
2, 23579, Note_on_c, 0, 74, 65
2, 23589, Note_on_c, 0, 45, 35
2, 23593, Control_c, 0, 64, 0
2, 23658, Control_c, 0, 64, 127
2, 23662, Note_on_c, 0, 52, 44
2, 23688, Note_on_c, 0, 74, 0
2, 23697, Note_on_c, 0, 45, 0
2, 23740, Note_on_c, 0, 59, 42
2, 23751, Note_on_c, 0, 60, 29
2, 23785, Note_on_c, 0, 60, 0
2, 23811, Note_on_c, 0, 59, 0
2, 23820, Note_on_c, 0, 74, 66
2, 23851, Note_on_c, 0, 74, 0
2, 23916, Note_on_c, 0, 71, 59
2, 23919, Note_on_c, 0, 58, 45
2, 23923, Note_on_c, 0, 64, 46
2, 23930, Note_on_c, 0, 60, 30
2, 23931, Control_c, 0, 64, 0
2, 23991, Note_on_c, 0, 52, 0
2, 24009, Control_c, 0, 64, 127
2, 24026, Note_on_c, 0, 52, 29
2, 24034, Note_on_c, 0, 60, 0
2, 24048, Note_on_c, 0, 64, 0
2, 24062, Note_on_c, 0, 58, 0
2, 24132, Note_on_c, 0, 64, 48
2, 24135, Note_on_c, 0, 60, 32
2, 24139, Note_on_c, 0, 57, 35
2, 24148, Control_c, 0, 64, 0
2, 24182, Note_on_c, 0, 52, 0
2, 24243, Control_c, 0, 64, 127
2, 24245, Note_on_c, 0, 52, 31
2, 24269, Note_on_c, 0, 60, 0
2, 24275, Note_on_c, 0, 57, 0
2, 24280, Note_on_c, 0, 64, 0
2, 24372, Note_on_c, 0, 64, 40
2, 24374, Control_c, 0, 64, 0
2, 24378, Note_on_c, 0, 60, 22
2, 24379, Note_on_c, 0, 45, 24
2, 24390, Note_on_c, 0, 52, 0
2, 24445, Control_c, 0, 64, 127
2, 24472, Note_on_c, 0, 64, 0
2, 24483, Note_on_c, 0, 71, 0
2, 24494, Note_on_c, 0, 63, 65
2, 24509, Note_on_c, 0, 52, 20
2, 24523, Note_on_c, 0, 60, 0
2, 24553, Note_on_c, 0, 63, 0
2, 24565, Note_on_c, 0, 64, 68
2, 24611, Note_on_c, 0, 64, 0
2, 24627, Note_on_c, 0, 67, 80
2, 24661, Note_on_c, 0, 67, 0
2, 24704, Note_on_c, 0, 71, 57
2, 24706, Control_c, 0, 64, 0
2, 24707, Note_on_c, 0, 60, 60
2, 24708, Note_on_c, 0, 64, 65
2, 24713, Note_on_c, 0, 56, 35
2, 24748, Note_on_c, 0, 60, 0
2, 24748, Control_c, 0, 64, 127
2, 24756, Note_on_c, 0, 71, 0
2, 24760, Note_on_c, 0, 64, 0
2, 24792, Note_on_c, 0, 74, 71
2, 24830, Note_on_c, 0, 74, 0
2, 24838, Note_on_c, 0, 56, 0
2, 24920, Control_c, 0, 64, 0
2, 24925, Note_on_c, 0, 55, 24
2, 24926, Note_on_c, 0, 72, 64
2, 24979, Control_c, 0, 64, 127
2, 24987, Note_on_c, 0, 45, 0
2, 25046, Note_on_c, 0, 45, 36
2, 25060, Note_on_c, 0, 72, 0
2, 25068, Note_on_c, 0, 52, 0
2, 25074, Note_on_c, 0, 55, 0
2, 25086, Note_on_c, 0, 45, 0
2, 25189, Note_on_c, 0, 71, 42
2, 25190, Control_c, 0, 64, 0
2, 25195, Note_on_c, 0, 42, 33
2, 25252, Control_c, 0, 64, 127
2, 25300, Note_on_c, 0, 52, 42
2, 25317, Note_on_c, 0, 42, 0
2, 25324, Note_on_c, 0, 52, 0
2, 25403, Note_on_c, 0, 71, 0
2, 25428, Note_on_c, 0, 71, 58
2, 25622, Note_on_c, 0, 64, 42
2, 25634, Note_on_c, 0, 71, 0
2, 25681, Note_on_c, 0, 64, 0
2, 25761, Note_on_c, 0, 64, 38
2, 25764, Note_on_c, 0, 60, 27
2, 25783, Note_on_c, 0, 59, 18
2, 25783, Note_on_c, 0, 57, 26
2, 25884, Note_on_c, 0, 66, 46
2, 25917, Note_on_c, 0, 59, 0
2, 25922, Note_on_c, 0, 57, 0
2, 25922, Note_on_c, 0, 60, 0
2, 25936, Note_on_c, 0, 66, 0
2, 25940, Note_on_c, 0, 64, 0
2, 25968, Note_on_c, 0, 66, 48
2, 26016, Note_on_c, 0, 66, 0
2, 26035, Note_on_c, 0, 67, 68
2, 26084, Note_on_c, 0, 67, 0
2, 26110, Note_on_c, 0, 67, 48
2, 26116, Note_on_c, 0, 60, 47
2, 26118, Note_on_c, 0, 41, 34
2, 26118, Note_on_c, 0, 50, 30
2, 26125, Control_c, 0, 64, 0
2, 26178, Control_c, 0, 64, 127
2, 26185, Note_on_c, 0, 41, 0
2, 26185, Note_on_c, 0, 60, 0
2, 26187, Note_on_c, 0, 67, 0
2, 26195, Note_on_c, 0, 68, 69
2, 26202, Note_on_c, 0, 50, 0
2, 26204, Note_on_c, 0, 65, 40
2, 26222, Note_on_c, 0, 65, 0
2, 26254, Note_on_c, 0, 68, 0
2, 26282, Note_on_c, 0, 68, 61
2, 26283, Note_on_c, 0, 65, 61
2, 26313, Note_on_c, 0, 65, 0
2, 26325, Note_on_c, 0, 68, 0
2, 26367, Note_on_c, 0, 72, 76
2, 26381, Note_on_c, 0, 60, 26
2, 26411, Note_on_c, 0, 72, 0
2, 26471, Note_on_c, 0, 72, 56
2, 26473, Note_on_c, 0, 60, 0
2, 26476, Note_on_c, 0, 65, 54
2, 26478, Note_on_c, 0, 68, 44
2, 26481, Note_on_c, 0, 62, 35
2, 26490, Control_c, 0, 64, 0
2, 26494, Note_on_c, 0, 53, 22
2, 26526, Control_c, 0, 64, 127
2, 26527, Note_on_c, 0, 72, 0
2, 26550, Note_on_c, 0, 68, 0
2, 26567, Note_on_c, 0, 74, 73
2, 26588, Note_on_c, 0, 62, 0
2, 26613, Note_on_c, 0, 74, 0
2, 26633, Note_on_c, 0, 65, 0
2, 26673, Note_on_c, 0, 75, 56
2, 26674, Note_on_c, 0, 63, 43
2, 26679, Note_on_c, 0, 68, 50
2, 26680, Control_c, 0, 64, 0
2, 26682, Note_on_c, 0, 65, 40
2, 26707, Control_c, 0, 64, 127
2, 26753, Note_on_c, 0, 75, 0
2, 26754, Note_on_c, 0, 63, 0
2, 26786, Note_on_c, 0, 74, 63
2, 26795, Note_on_c, 0, 62, 32
2, 26800, Note_on_c, 0, 65, 0
2, 26814, Note_on_c, 0, 68, 0
2, 26828, Note_on_c, 0, 53, 0
2, 26830, Note_on_c, 0, 74, 0
2, 26838, Note_on_c, 0, 72, 49
2, 26888, Note_on_c, 0, 72, 0
2, 26906, Control_c, 0, 64, 0
2, 26906, Note_on_c, 0, 71, 57
2, 26912, Note_on_c, 0, 52, 32
2, 26962, Control_c, 0, 64, 127
2, 26979, Note_on_c, 0, 62, 0
2, 27004, Note_on_c, 0, 71, 0
2, 27023, Note_on_c, 0, 72, 56
2, 27069, Note_on_c, 0, 72, 0
2, 27118, Note_on_c, 0, 52, 0
2, 27123, Note_on_c, 0, 76, 66
2, 27128, Control_c, 0, 64, 0
2, 27128, Note_on_c, 0, 62, 50
2, 27129, Note_on_c, 0, 72, 55
2, 27130, Note_on_c, 0, 67, 62
2, 27131, Note_on_c, 0, 56, 31
2, 27153, Note_on_c, 0, 56, 0
2, 27155, Control_c, 0, 64, 127
2, 27159, Note_on_c, 0, 67, 0
2, 27160, Note_on_c, 0, 72, 0
2, 27161, Note_on_c, 0, 62, 0
2, 27166, Note_on_c, 0, 76, 0
2, 27231, Note_on_c, 0, 79, 69
2, 27231, Note_on_c, 0, 72, 73
2, 27234, Note_on_c, 0, 56, 38
2, 27237, Note_on_c, 0, 67, 28
2, 27239, Note_on_c, 0, 62, 42
2, 27244, Control_c, 0, 64, 0
2, 27250, Control_c, 0, 64, 127
2, 27259, Note_on_c, 0, 67, 0
2, 27267, Note_on_c, 0, 62, 0
2, 27272, Note_on_c, 0, 72, 0
2, 27278, Note_on_c, 0, 79, 0
2, 27286, Note_on_c, 0, 56, 0
2, 27344, Note_on_c, 0, 57, 36
2, 27350, Note_on_c, 0, 80, 65
2, 27352, Note_on_c, 0, 64, 45
2, 27353, Note_on_c, 0, 68, 62
2, 27357, Control_c, 0, 64, 0
2, 27359, Note_on_c, 0, 60, 34
2, 27390, Control_c, 0, 64, 127
2, 27430, Note_on_c, 0, 64, 0
2, 27434, Note_on_c, 0, 80, 0
2, 27437, Note_on_c, 0, 68, 0
2, 27443, Note_on_c, 0, 57, 0
2, 27455, Control_c, 0, 64, 0
2, 27457, Note_on_c, 0, 56, 49
2, 27458, Note_on_c, 0, 81, 71
2, 27459, Note_on_c, 0, 69, 55
2, 27464, Note_on_c, 0, 64, 35
2, 27482, Control_c, 0, 64, 127
2, 27510, Note_on_c, 0, 69, 0
2, 27520, Note_on_c, 0, 81, 0
2, 27531, Note_on_c, 0, 64, 0
2, 27538, Note_on_c, 0, 56, 0
2, 27546, Note_on_c, 0, 60, 0
2, 27564, Control_c, 0, 64, 0
2, 27567, Note_on_c, 0, 83, 62
2, 27569, Note_on_c, 0, 71, 53
2, 27570, Note_on_c, 0, 55, 46
2, 27570, Note_on_c, 0, 76, 49
2, 27575, Note_on_c, 0, 60, 32
2, 27575, Note_on_c, 0, 64, 30
2, 27609, Control_c, 0, 64, 127
2, 27632, Note_on_c, 0, 76, 0
2, 27637, Note_on_c, 0, 71, 0
2, 27640, Note_on_c, 0, 83, 0
2, 27644, Note_on_c, 0, 64, 0
2, 27650, Note_on_c, 0, 60, 0
2, 27680, Note_on_c, 0, 84, 65
2, 27681, Note_on_c, 0, 72, 55
2, 27693, Note_on_c, 0, 64, 26
2, 27703, Note_on_c, 0, 60, 17
2, 27715, Note_on_c, 0, 64, 0
2, 27718, Note_on_c, 0, 60, 0
2, 27730, Note_on_c, 0, 72, 0
2, 27731, Note_on_c, 0, 55, 0
2, 27740, Note_on_c, 0, 84, 0
2, 27822, Note_on_c, 0, 50, 45
2, 27823, Control_c, 0, 64, 0
2, 27825, Note_on_c, 0, 86, 68
2, 27855, Control_c, 0, 64, 127
2, 27857, Note_on_c, 0, 86, 0
2, 27958, Note_on_c, 0, 61, 44
2, 27959, Note_on_c, 0, 76, 43
2, 27966, Note_on_c, 0, 65, 26
2, 27971, Note_on_c, 0, 69, 33
2, 27977, Control_c, 0, 64, 0
2, 28004, Control_c, 0, 64, 127
2, 28081, Note_on_c, 0, 61, 0
2, 28122, Note_on_c, 0, 76, 0
2, 28127, Note_on_c, 0, 74, 48
2, 28135, Control_c, 0, 64, 0
2, 28138, Note_on_c, 0, 60, 33
2, 28179, Control_c, 0, 64, 127
2, 28262, Note_on_c, 0, 65, 0
2, 28269, Note_on_c, 0, 69, 0
2, 28280, Note_on_c, 0, 74, 0
2, 28312, Note_on_c, 0, 69, 63
2, 28319, Control_c, 0, 64, 0
2, 28327, Note_on_c, 0, 70, 47
2, 28347, Note_on_c, 0, 69, 0
2, 28351, Note_on_c, 0, 70, 0
2, 28354, Note_on_c, 0, 71, 46
2, 28381, Note_on_c, 0, 50, 0
2, 28401, Note_on_c, 0, 71, 0
2, 28418, Note_on_c, 0, 60, 0
2, 28430, Note_on_c, 0, 69, 44
2, 28449, Control_c, 0, 64, 127
2, 28500, Note_on_c, 0, 69, 0
2, 28511, Note_on_c, 0, 67, 39
2, 28514, Note_on_c, 0, 53, 14
2, 28521, Control_c, 0, 64, 0
2, 28521, Note_on_c, 0, 64, 19
2, 28522, Note_on_c, 0, 59, 29
2, 28562, Control_c, 0, 64, 127
2, 28611, Note_on_c, 0, 79, 62
2, 28778, Note_on_c, 0, 79, 0
2, 28797, Note_on_c, 0, 64, 0
2, 28803, Note_on_c, 0, 59, 0
2, 28806, Note_on_c, 0, 67, 0
2, 28876, Note_on_c, 0, 76, 76
2, 28882, Note_on_c, 0, 68, 71
2, 28888, Note_on_c, 0, 65, 64
2, 28891, Note_on_c, 0, 64, 55
2, 28897, Control_c, 0, 64, 0
2, 28940, Note_on_c, 0, 64, 0
2, 28951, Control_c, 0, 64, 127
2, 28983, Note_on_c, 0, 63, 46
2, 28986, Control_c, 0, 64, 0
2, 29022, Control_c, 0, 64, 127
2, 29033, Note_on_c, 0, 63, 0
2, 29087, Note_on_c, 0, 62, 49
2, 29099, Control_c, 0, 64, 0
2, 29135, Control_c, 0, 64, 127
2, 29182, Note_on_c, 0, 65, 0
2, 29199, Note_on_c, 0, 76, 0
2, 29203, Control_c, 0, 64, 0
2, 29205, Note_on_c, 0, 65, 27
2, 29206, Note_on_c, 0, 74, 53
2, 29210, Note_on_c, 0, 56, 33
2, 29242, Control_c, 0, 64, 127
2, 29265, Note_on_c, 0, 65, 0
2, 29272, Note_on_c, 0, 53, 0
2, 29290, Note_on_c, 0, 68, 0
2, 29299, Note_on_c, 0, 74, 0
2, 29311, Note_on_c, 0, 62, 0
2, 29325, Note_on_c, 0, 56, 0
2, 29329, Note_on_c, 0, 67, 44
2, 29335, Note_on_c, 0, 52, 29
2, 29338, Note_on_c, 0, 62, 35
2, 29340, Control_c, 0, 64, 0
2, 29426, Control_c, 0, 64, 127
2, 29443, Note_on_c, 0, 59, 34
2, 29452, Note_on_c, 0, 62, 0
2, 29551, Note_on_c, 0, 62, 48
2, 29556, Note_on_c, 0, 67, 0
2, 29629, Note_on_c, 0, 62, 0
2, 29638, Note_on_c, 0, 59, 0
2, 29651, Note_on_c, 0, 52, 0
2, 29651, Note_on_c, 0, 72, 81
2, 29777, Note_on_c, 0, 28, 66
2, 29782, Control_c, 0, 64, 0
2, 29800, Note_on_c, 0, 72, 0
2, 29804, Note_on_c, 0, 28, 0
2, 29812, Control_c, 0, 64, 127
2, 29920, Note_on_c, 0, 76, 81
2, 29922, Note_on_c, 0, 56, 40
2, 29922, Note_on_c, 0, 72, 80
2, 29923, Note_on_c, 0, 67, 81
2, 30040, Note_on_c, 0, 62, 58
2, 30051, Note_on_c, 0, 67, 0
2, 30137, Note_on_c, 0, 72, 0
2, 30138, Note_on_c, 0, 76, 0
2, 30148, Note_on_c, 0, 62, 0
2, 30152, Note_on_c, 0, 79, 76
2, 30163, Note_on_c, 0, 56, 0
2, 30197, Note_on_c, 0, 79, 0
2, 30271, Note_on_c, 0, 56, 53
2, 30273, Note_on_c, 0, 80, 65
2, 30276, Note_on_c, 0, 68, 68
2, 30276, Note_on_c, 0, 64, 52
2, 30281, Note_on_c, 0, 60, 46
2, 30284, Control_c, 0, 64, 0
2, 30319, Control_c, 0, 64, 127
2, 30511, Note_on_c, 0, 64, 0
2, 30518, Note_on_c, 0, 60, 0
2, 30534, Note_on_c, 0, 56, 0
2, 30564, Note_on_c, 0, 68, 0
2, 30571, Note_on_c, 0, 80, 0
2, 30587, Note_on_c, 0, 81, 71
2, 30588, Note_on_c, 0, 64, 47
2, 30589, Note_on_c, 0, 57, 54
2, 30591, Note_on_c, 0, 69, 69
2, 30595, Control_c, 0, 64, 0
2, 30598, Note_on_c, 0, 60, 45
2, 30622, Control_c, 0, 64, 127
2, 30669, Note_on_c, 0, 69, 0
2, 30677, Note_on_c, 0, 81, 0
2, 30681, Note_on_c, 0, 64, 0
2, 30687, Note_on_c, 0, 57, 0
2, 30702, Control_c, 0, 64, 0
2, 30702, Note_on_c, 0, 56, 52
2, 30707, Note_on_c, 0, 83, 73
2, 30708, Note_on_c, 0, 71, 74
2, 30709, Note_on_c, 0, 64, 51
2, 30729, Control_c, 0, 64, 127
2, 30780, Note_on_c, 0, 71, 0
2, 30782, Note_on_c, 0, 83, 0
2, 30784, Note_on_c, 0, 64, 0
2, 30784, Note_on_c, 0, 56, 0
2, 30794, Note_on_c, 0, 60, 0
2, 30832, Note_on_c, 0, 72, 64
2, 30832, Note_on_c, 0, 55, 54
2, 30832, Note_on_c, 0, 64, 37
2, 30833, Note_on_c, 0, 84, 68
2, 30839, Control_c, 0, 64, 0
2, 30841, Note_on_c, 0, 60, 28
2, 30875, Control_c, 0, 64, 127
2, 30898, Note_on_c, 0, 72, 0
2, 30901, Note_on_c, 0, 55, 0
2, 30915, Note_on_c, 0, 84, 0
2, 30926, Note_on_c, 0, 64, 0
2, 30976, Control_c, 0, 64, 0
2, 30976, Note_on_c, 0, 77, 58
2, 30977, Note_on_c, 0, 86, 74
2, 30983, Note_on_c, 0, 82, 37
2, 30985, Note_on_c, 0, 60, 0
2, 30986, Note_on_c, 0, 54, 43
2, 31032, Control_c, 0, 64, 127
2, 31048, Note_on_c, 0, 77, 0
2, 31051, Note_on_c, 0, 86, 0
2, 31054, Note_on_c, 0, 82, 0
2, 31115, Note_on_c, 0, 98, 68
2, 31124, Note_on_c, 0, 60, 24
2, 31150, Note_on_c, 0, 98, 0
2, 31262, Note_on_c, 0, 94, 56
2, 31264, Note_on_c, 0, 65, 47
2, 31266, Note_on_c, 0, 86, 50
2, 31290, Note_on_c, 0, 94, 0
2, 31292, Note_on_c, 0, 86, 0
2, 31366, Note_on_c, 0, 54, 0
2, 31402, Note_on_c, 0, 65, 0
2, 31424, Note_on_c, 0, 54, 42
2, 31430, Note_on_c, 0, 86, 58
2, 31435, Note_on_c, 0, 82, 31
2, 31436, Note_on_c, 0, 77, 34
2, 31451, Note_on_c, 0, 60, 0
2, 31460, Note_on_c, 0, 86, 0
2, 31467, Note_on_c, 0, 82, 0
2, 31478, Note_on_c, 0, 77, 0
2, 31482, Note_on_c, 0, 54, 0
2, 31634, Note_on_c, 0, 53, 47
2, 31639, Note_on_c, 0, 31, 35
2, 31640, Note_on_c, 0, 57, 35
2, 31640, Note_on_c, 0, 43, 30
2, 31641, Note_on_c, 0, 60, 42
2, 31656, Control_c, 0, 64, 0
2, 31730, Control_c, 0, 64, 127
2, 31805, Note_on_c, 0, 60, 0
2, 31826, Note_on_c, 0, 31, 0
2, 31843, Note_on_c, 0, 60, 42
2, 31851, Note_on_c, 0, 43, 0
2, 31911, Note_on_c, 0, 57, 0
2, 31916, Note_on_c, 0, 60, 0
2, 31923, Note_on_c, 0, 53, 0
2, 32045, Note_on_c, 0, 56, 28
2, 32046, Note_on_c, 0, 59, 39
2, 32051, Control_c, 0, 64, 0
2, 32051, Note_on_c, 0, 43, 33
2, 32058, Note_on_c, 0, 53, 24
2, 32098, Control_c, 0, 64, 127
2, 32146, Note_on_c, 0, 56, 0
2, 32152, Note_on_c, 0, 59, 0
2, 32269, Note_on_c, 0, 43, 0
2, 32300, Note_on_c, 0, 53, 0
2, 32317, Note_on_c, 0, 71, 81
2, 32415, Note_on_c, 0, 71, 0
2, 32427, Note_on_c, 0, 74, 70
2, 32662, Note_on_c, 0, 74, 0
2, 32697, Note_on_c, 0, 65, 39
2, 32698, Note_on_c, 0, 72, 35
2, 32699, Note_on_c, 0, 70, 38
2, 32701, Note_on_c, 0, 62, 32
2, 32704, Note_on_c, 0, 58, 20
2, 32707, Note_on_c, 0, 60, 40
2, 32710, Control_c, 0, 64, 0
2, 32769, Control_c, 0, 64, 127
2, 32793, Note_on_c, 0, 60, 0
2, 32794, Note_on_c, 0, 62, 0
2, 32794, Note_on_c, 0, 58, 0
2, 32841, Note_on_c, 0, 62, 38
2, 32854, Note_on_c, 0, 58, 25
2, 32855, Note_on_c, 0, 60, 28
2, 32908, Note_on_c, 0, 60, 0
2, 32911, Note_on_c, 0, 62, 0
2, 32920, Note_on_c, 0, 58, 0
2, 32990, Note_on_c, 0, 62, 22
2, 32996, Note_on_c, 0, 58, 25
2, 32997, Note_on_c, 0, 60, 33
2, 32999, Note_on_c, 0, 65, 0
2, 33086, Note_on_c, 0, 72, 0
2, 33091, Note_on_c, 0, 69, 63
2, 33109, Note_on_c, 0, 70, 0
2, 33148, Note_on_c, 0, 70, 80
2, 33159, Note_on_c, 0, 69, 0
2, 33179, Note_on_c, 0, 70, 0
2, 33201, Note_on_c, 0, 73, 55
2, 33215, Note_on_c, 0, 74, 56
2, 33215, Note_on_c, 0, 72, 46
2, 33230, Note_on_c, 0, 72, 0
2, 33231, Note_on_c, 0, 74, 0
2, 33235, Note_on_c, 0, 73, 0
2, 33278, Note_on_c, 0, 77, 69
2, 33341, Note_on_c, 0, 77, 0
2, 33368, Note_on_c, 0, 81, 83
2, 33413, Note_on_c, 0, 81, 0
2, 33457, Note_on_c, 0, 81, 79
2, 33480, Note_on_c, 0, 60, 0
2, 33485, Note_on_c, 0, 62, 0
2, 33502, Note_on_c, 0, 58, 0
2, 33515, Note_on_c, 0, 81, 0
2, 33530, Note_on_c, 0, 77, 50
2, 33561, Note_on_c, 0, 77, 0
2, 33635, Note_on_c, 0, 80, 53
2, 33644, Note_on_c, 0, 73, 29
2, 33648, Control_c, 0, 64, 0
2, 33649, Note_on_c, 0, 58, 28
2, 33649, Note_on_c, 0, 68, 20
2, 33652, Note_on_c, 0, 64, 22
2, 33698, Control_c, 0, 64, 127
2, 33701, Note_on_c, 0, 64, 0
2, 33709, Note_on_c, 0, 58, 0
2, 33889, Note_on_c, 0, 58, 36
2, 33943, Note_on_c, 0, 68, 0
2, 33948, Note_on_c, 0, 73, 0
2, 33967, Note_on_c, 0, 64, 34
2, 34023, Note_on_c, 0, 68, 47
2, 34058, Note_on_c, 0, 80, 0
2, 34075, Note_on_c, 0, 73, 47
2, 34130, Note_on_c, 0, 80, 71
2, 34146, Note_on_c, 0, 64, 0
2, 34169, Note_on_c, 0, 80, 0
2, 34171, Note_on_c, 0, 68, 0
2, 34182, Note_on_c, 0, 73, 0
2, 34191, Note_on_c, 0, 79, 68
2, 34197, Note_on_c, 0, 58, 0
2, 34209, Note_on_c, 0, 53, 33
2, 34227, Control_c, 0, 64, 0
2, 34286, Control_c, 0, 64, 127
2, 34289, Note_on_c, 0, 60, 22
2, 34303, Note_on_c, 0, 53, 0
2, 34350, Note_on_c, 0, 67, 35
2, 34362, Note_on_c, 0, 68, 50
2, 34430, Note_on_c, 0, 79, 0
2, 34437, Note_on_c, 0, 72, 54
2, 34458, Note_on_c, 0, 67, 0
2, 34495, Note_on_c, 0, 68, 0
2, 34518, Note_on_c, 0, 77, 66
2, 34524, Note_on_c, 0, 68, 27
2, 34557, Note_on_c, 0, 68, 0
2, 34601, Note_on_c, 0, 68, 35
2, 34618, Note_on_c, 0, 77, 0
2, 34675, Note_on_c, 0, 72, 0
2, 34678, Note_on_c, 0, 68, 0
2, 34692, Note_on_c, 0, 75, 49
2, 34707, Note_on_c, 0, 63, 23
2, 34717, Note_on_c, 0, 68, 8
2, 34744, Note_on_c, 0, 68, 0
2, 34773, Note_on_c, 0, 75, 0
2, 34775, Note_on_c, 0, 67, 54
2, 34819, Note_on_c, 0, 67, 0
2, 34830, Note_on_c, 0, 68, 56
2, 34872, Note_on_c, 0, 68, 0
2, 34883, Note_on_c, 0, 72, 70
2, 34926, Note_on_c, 0, 72, 0
2, 34943, Note_on_c, 0, 75, 76
2, 34996, Note_on_c, 0, 75, 0
2, 35016, Note_on_c, 0, 77, 71
2, 35017, Note_on_c, 0, 63, 0
2, 35017, Note_on_c, 0, 60, 0
2, 35020, Note_on_c, 0, 53, 36
2, 35025, Control_c, 0, 64, 0
2, 35072, Control_c, 0, 64, 127
2, 35073, Note_on_c, 0, 77, 0
2, 35113, Note_on_c, 0, 79, 55
2, 35128, Note_on_c, 0, 60, 27
2, 35222, Note_on_c, 0, 63, 21
2, 35242, Note_on_c, 0, 63, 0
2, 35247, Note_on_c, 0, 60, 0
2, 35263, Note_on_c, 0, 53, 0
2, 35279, Note_on_c, 0, 79, 0
2, 35295, Note_on_c, 0, 67, 51
2, 35360, Note_on_c, 0, 67, 0
2, 35382, Note_on_c, 0, 46, 46
2, 35387, Note_on_c, 0, 78, 50
2, 35387, Control_c, 0, 64, 0
2, 35410, Note_on_c, 0, 46, 0
2, 35423, Control_c, 0, 64, 127
2, 35481, Note_on_c, 0, 56, 33
2, 35579, Note_on_c, 0, 78, 0
2, 35595, Note_on_c, 0, 66, 25
2, 35595, Note_on_c, 0, 70, 38
2, 35599, Note_on_c, 0, 62, 25
2, 35663, Note_on_c, 0, 62, 0
2, 35688, Note_on_c, 0, 66, 0
2, 35691, Note_on_c, 0, 56, 0
2, 35697, Note_on_c, 0, 77, 58
2, 35725, Note_on_c, 0, 70, 0
2, 35776, Note_on_c, 0, 77, 0
2, 35816, Note_on_c, 0, 77, 46
2, 35822, Note_on_c, 0, 39, 38
2, 35835, Control_c, 0, 64, 0
2, 35877, Control_c, 0, 64, 127
2, 35902, Note_on_c, 0, 39, 0
2, 35905, Note_on_c, 0, 46, 49
2, 35972, Note_on_c, 0, 46, 0
2, 35980, Note_on_c, 0, 70, 59
2, 35980, Note_on_c, 0, 66, 47
2, 35984, Control_c, 0, 64, 0
2, 35987, Note_on_c, 0, 53, 55
2, 36008, Control_c, 0, 64, 127
2, 36059, Note_on_c, 0, 54, 69
2, 36067, Note_on_c, 0, 66, 0
2, 36070, Note_on_c, 0, 53, 0
2, 36070, Note_on_c, 0, 70, 0
2, 36143, Note_on_c, 0, 70, 65
2, 36145, Note_on_c, 0, 66, 54
2, 36147, Control_c, 0, 64, 0
2, 36148, Note_on_c, 0, 58, 59
2, 36180, Control_c, 0, 64, 127
2, 36237, Note_on_c, 0, 54, 0
2, 36238, Note_on_c, 0, 58, 0
2, 36240, Note_on_c, 0, 60, 48
2, 36271, Note_on_c, 0, 70, 0
2, 36290, Note_on_c, 0, 66, 0
2, 36341, Note_on_c, 0, 66, 30
2, 36343, Note_on_c, 0, 70, 44
2, 36347, Note_on_c, 0, 63, 32
2, 36355, Note_on_c, 0, 77, 0
2, 36355, Note_on_c, 0, 60, 0
2, 36469, Note_on_c, 0, 66, 0
2, 36513, Note_on_c, 0, 70, 0
2, 36514, Note_on_c, 0, 66, 40
2, 36576, Note_on_c, 0, 70, 63
2, 36625, Note_on_c, 0, 66, 0
2, 36625, Note_on_c, 0, 63, 0
2, 36630, Note_on_c, 0, 70, 0
2, 36640, Note_on_c, 0, 73, 56
2, 36643, Note_on_c, 0, 66, 43
2, 36676, Note_on_c, 0, 66, 0
2, 36688, Note_on_c, 0, 73, 0
2, 36791, Note_on_c, 0, 77, 74
2, 36796, Note_on_c, 0, 70, 67
2, 36796, Note_on_c, 0, 39, 52
2, 36806, Control_c, 0, 64, 0
2, 36853, Control_c, 0, 64, 127
2, 36871, Note_on_c, 0, 46, 53
2, 36911, Note_on_c, 0, 70, 0
2, 36926, Note_on_c, 0, 39, 0
2, 36941, Note_on_c, 0, 77, 0
2, 36949, Note_on_c, 0, 66, 71
2, 36955, Note_on_c, 0, 46, 0
2, 37015, Note_on_c, 0, 66, 0
2, 37031, Note_on_c, 0, 77, 65
2, 37037, Note_on_c, 0, 60, 54
2, 37043, Note_on_c, 0, 66, 28
2, 37048, Note_on_c, 0, 60, 0
2, 37067, Note_on_c, 0, 66, 0
2, 37076, Note_on_c, 0, 77, 0
2, 37145, Note_on_c, 0, 76, 71
2, 37148, Note_on_c, 0, 44, 59
2, 37149, Note_on_c, 0, 69, 74
2, 37155, Note_on_c, 0, 64, 56
2, 37155, Note_on_c, 0, 62, 60
2, 37156, Control_c, 0, 64, 0
2, 37222, Control_c, 0, 64, 127
2, 37263, Note_on_c, 0, 54, 49
2, 37277, Note_on_c, 0, 44, 0
2, 37293, Note_on_c, 0, 54, 0
2, 37318, Note_on_c, 0, 62, 0
2, 37327, Note_on_c, 0, 64, 0
2, 37339, Note_on_c, 0, 69, 0
2, 37394, Note_on_c, 0, 64, 41
2, 37395, Note_on_c, 0, 69, 53
2, 37396, Note_on_c, 0, 54, 40
2, 37404, Note_on_c, 0, 60, 25
2, 37405, Control_c, 0, 64, 0
2, 37417, Note_on_c, 0, 64, 0
2, 37420, Note_on_c, 0, 60, 0
2, 37422, Note_on_c, 0, 69, 0
2, 37431, Note_on_c, 0, 54, 0
2, 37440, Note_on_c, 0, 76, 0
2, 37521, Note_on_c, 0, 76, 38
2, 37527, Note_on_c, 0, 64, 47
2, 37529, Note_on_c, 0, 69, 45
2, 37530, Control_c, 0, 64, 127
2, 37531, Note_on_c, 0, 54, 31
2, 37584, Note_on_c, 0, 64, 0
2, 37586, Note_on_c, 0, 54, 0
2, 37587, Note_on_c, 0, 69, 0
2, 37606, Note_on_c, 0, 76, 0
2, 37657, Note_on_c, 0, 76, 38
2, 37662, Note_on_c, 0, 69, 54
2, 37663, Note_on_c, 0, 64, 38
2, 37663, Note_on_c, 0, 54, 31
2, 37674, Note_on_c, 0, 60, 22
2, 37748, Note_on_c, 0, 74, 60
2, 37770, Note_on_c, 0, 76, 0
2, 37772, Note_on_c, 0, 69, 0
2, 37806, Note_on_c, 0, 64, 0
2, 37827, Note_on_c, 0, 60, 0
2, 37830, Note_on_c, 0, 69, 63
2, 37858, Note_on_c, 0, 54, 0
2, 37907, Note_on_c, 0, 64, 39
2, 37932, Note_on_c, 0, 69, 0
2, 37948, Note_on_c, 0, 74, 0
2, 37975, Note_on_c, 0, 64, 0
2, 37990, Note_on_c, 0, 75, 50
2, 37992, Note_on_c, 0, 37, 37
2, 37997, Note_on_c, 0, 68, 34
2, 38005, Control_c, 0, 64, 0
2, 38056, Control_c, 0, 64, 127
2, 38064, Note_on_c, 0, 37, 0
2, 38066, Note_on_c, 0, 44, 47
2, 38121, Note_on_c, 0, 44, 0
2, 38144, Note_on_c, 0, 75, 0
2, 38148, Note_on_c, 0, 53, 39
2, 38150, Note_on_c, 0, 72, 37
2, 38152, Note_on_c, 0, 65, 35
2, 38233, Note_on_c, 0, 56, 37
2, 38237, Note_on_c, 0, 53, 0
2, 38289, Note_on_c, 0, 65, 0
2, 38295, Note_on_c, 0, 68, 0
2, 38335, Note_on_c, 0, 68, 37
2, 38336, Note_on_c, 0, 60, 33
2, 38343, Note_on_c, 0, 65, 32
2, 38440, Note_on_c, 0, 63, 37
2, 38458, Note_on_c, 0, 65, 0
2, 38523, Note_on_c, 0, 72, 0
2, 38530, Note_on_c, 0, 56, 0
2, 38543, Note_on_c, 0, 65, 38
2, 38566, Note_on_c, 0, 68, 0
2, 38566, Note_on_c, 0, 63, 0
2, 38612, Note_on_c, 0, 60, 0
2, 38626, Note_on_c, 0, 65, 0
2, 38638, Note_on_c, 0, 56, 25
2, 38653, Note_on_c, 0, 56, 0
2, 38764, Note_on_c, 0, 62, 38
2, 38765, Note_on_c, 0, 65, 37
2, 38770, Note_on_c, 0, 48, 35
2, 38774, Control_c, 0, 64, 0
2, 38775, Note_on_c, 0, 58, 23
2, 38813, Control_c, 0, 64, 127
2, 38853, Note_on_c, 0, 48, 0
2, 38865, Note_on_c, 0, 62, 0
2, 38871, Note_on_c, 0, 65, 0
2, 38884, Note_on_c, 0, 58, 0
2, 38982, Note_on_c, 0, 74, 91
2, 38986, Note_on_c, 0, 62, 75
2, 39066, Note_on_c, 0, 74, 0
2, 39077, Note_on_c, 0, 62, 0
2, 39100, Note_on_c, 0, 77, 90
2, 39105, Note_on_c, 0, 65, 78
2, 39121, Control_c, 0, 64, 0
2, 39145, Control_c, 0, 64, 127
2, 39228, Note_on_c, 0, 77, 0
2, 39235, Note_on_c, 0, 65, 0
2, 39235, Note_on_c, 0, 76, 71
2, 39245, Note_on_c, 0, 64, 47
2, 39281, Note_on_c, 0, 64, 0
2, 39303, Note_on_c, 0, 76, 0
2, 39398, Note_on_c, 0, 76, 59
2, 39400, Note_on_c, 0, 68, 63
2, 39410, Note_on_c, 0, 65, 40
2, 39413, Note_on_c, 0, 64, 28
2, 39423, Note_on_c, 0, 65, 0
2, 39424, Control_c, 0, 64, 0
2, 39466, Note_on_c, 0, 65, 3
2, 39492, Control_c, 0, 64, 127
2, 39534, Note_on_c, 0, 53, 34
2, 39563, Note_on_c, 0, 65, 0
2, 39567, Note_on_c, 0, 64, 0
2, 39594, Note_on_c, 0, 68, 0
2, 39697, Note_on_c, 0, 68, 33
2, 39697, Note_on_c, 0, 65, 32
2, 39704, Note_on_c, 0, 64, 24
2, 39904, Note_on_c, 0, 68, 0
2, 39913, Note_on_c, 0, 65, 0
2, 39936, Note_on_c, 0, 76, 0
2, 40034, Note_on_c, 0, 68, 49
2, 40058, Note_on_c, 0, 68, 0
2, 40080, Note_on_c, 0, 71, 68
2, 40089, Control_c, 0, 64, 0
2, 40111, Note_on_c, 0, 71, 0
2, 40122, Control_c, 0, 64, 127
2, 40128, Note_on_c, 0, 74, 73
2, 40142, Note_on_c, 0, 53, 0
2, 40152, Note_on_c, 0, 64, 0
2, 40169, Note_on_c, 0, 74, 0
2, 40189, Note_on_c, 0, 72, 57
2, 40190, Control_c, 0, 64, 0
2, 40194, Note_on_c, 0, 53, 31
2, 40255, Control_c, 0, 64, 127
2, 40263, Note_on_c, 0, 72, 0
2, 40281, Note_on_c, 0, 69, 51
2, 40287, Note_on_c, 0, 60, 24
2, 40318, Note_on_c, 0, 69, 0
2, 40333, Note_on_c, 0, 72, 69
2, 40365, Note_on_c, 0, 72, 0
2, 40388, Note_on_c, 0, 60, 0
2, 40390, Note_on_c, 0, 53, 0
2, 40393, Note_on_c, 0, 76, 88
2, 40441, Note_on_c, 0, 76, 0
2, 40477, Note_on_c, 0, 79, 80
2, 40478, Control_c, 0, 64, 0
2, 40480, Note_on_c, 0, 74, 89
2, 40486, Note_on_c, 0, 67, 35
2, 40499, Note_on_c, 0, 63, 25
2, 40500, Note_on_c, 0, 61, 8
2, 40503, Note_on_c, 0, 57, 38
2, 40531, Control_c, 0, 64, 127
2, 40551, Note_on_c, 0, 61, 0
2, 40598, Note_on_c, 0, 79, 0
2, 40624, Note_on_c, 0, 78, 59
2, 40677, Note_on_c, 0, 67, 0
2, 40679, Note_on_c, 0, 78, 0
2, 40691, Note_on_c, 0, 63, 0
2, 40696, Note_on_c, 0, 57, 0
2, 40700, Note_on_c, 0, 74, 0
2, 40704, Note_on_c, 0, 77, 71
2, 40745, Note_on_c, 0, 77, 0
2, 40791, Note_on_c, 0, 76, 62
2, 40792, Note_on_c, 0, 47, 31
2, 40813, Control_c, 0, 64, 0
2, 40863, Control_c, 0, 64, 127
2, 40874, Note_on_c, 0, 57, 40
2, 40922, Note_on_c, 0, 76, 0
2, 40930, Note_on_c, 0, 62, 48
2, 40968, Note_on_c, 0, 62, 0
2, 40990, Note_on_c, 0, 69, 56
2, 41032, Note_on_c, 0, 69, 0
2, 41038, Note_on_c, 0, 76, 68
2, 41064, Note_on_c, 0, 76, 0
2, 41075, Note_on_c, 0, 47, 0
2, 41092, Note_on_c, 0, 57, 0
2, 41098, Note_on_c, 0, 81, 78
2, 41140, Note_on_c, 0, 81, 0
2, 41159, Note_on_c, 0, 88, 88
2, 41259, Note_on_c, 0, 56, 37
2, 41279, Control_c, 0, 64, 0
2, 41330, Control_c, 0, 64, 127
2, 41348, Note_on_c, 0, 86, 62
2, 41350, Note_on_c, 0, 62, 39
2, 41474, Note_on_c, 0, 86, 0
2, 41479, Note_on_c, 0, 84, 43
2, 41483, Note_on_c, 0, 67, 31
2, 41594, Note_on_c, 0, 67, 0
2, 41598, Note_on_c, 0, 83, 54
2, 41607, Note_on_c, 0, 84, 0
2, 41704, Note_on_c, 0, 77, 42
2, 41707, Note_on_c, 0, 83, 0
2, 41713, Note_on_c, 0, 65, 34
2, 41782, Note_on_c, 0, 77, 0
2, 41784, Note_on_c, 0, 62, 0
2, 41802, Note_on_c, 0, 88, 0
2, 41815, Note_on_c, 0, 76, 48
2, 41878, Note_on_c, 0, 76, 0
2, 41910, Note_on_c, 0, 77, 57
2, 41911, Note_on_c, 0, 62, 31
2, 41965, Note_on_c, 0, 77, 0
2, 41975, Note_on_c, 0, 80, 77
2, 42012, Note_on_c, 0, 65, 0
2, 42019, Note_on_c, 0, 62, 0
2, 42024, Note_on_c, 0, 80, 0
2, 42038, Note_on_c, 0, 56, 0
2, 42042, Note_on_c, 0, 83, 83
2, 42097, Note_on_c, 0, 83, 0
2, 42109, Note_on_c, 0, 86, 87
2, 42177, Note_on_c, 0, 86, 0
2, 42204, Note_on_c, 0, 86, 84
2, 42207, Note_on_c, 0, 45, 58
2, 42226, Control_c, 0, 64, 0
2, 42268, Control_c, 0, 64, 127
2, 42292, Note_on_c, 0, 52, 42
2, 42295, Note_on_c, 0, 45, 0
2, 42297, Note_on_c, 0, 84, 75
2, 42304, Note_on_c, 0, 52, 0
2, 42310, Note_on_c, 0, 86, 0
2, 42505, Note_on_c, 0, 84, 0
2, 42547, Note_on_c, 0, 76, 56
2, 42550, Note_on_c, 0, 56, 38
2, 42553, Note_on_c, 0, 60, 46
2, 42554, Note_on_c, 0, 64, 30
2, 42570, Control_c, 0, 64, 0
2, 42612, Control_c, 0, 64, 127
2, 42621, Note_on_c, 0, 60, 0
2, 42673, Note_on_c, 0, 60, 32
2, 42741, Note_on_c, 0, 64, 0
2, 42772, Note_on_c, 0, 76, 0
2, 42781, Note_on_c, 0, 60, 0
2, 42790, Note_on_c, 0, 56, 0
2, 42923, Note_on_c, 0, 71, 57
2, 42925, Note_on_c, 0, 76, 57
2, 42928, Note_on_c, 0, 64, 35
2, 42935, Note_on_c, 0, 55, 27
2, 42936, Control_c, 0, 64, 0
2, 42939, Note_on_c, 0, 60, 40
2, 42986, Control_c, 0, 64, 127
2, 43033, Note_on_c, 0, 60, 0
2, 43071, Note_on_c, 0, 76, 0
2, 43073, Note_on_c, 0, 60, 35
2, 43083, Note_on_c, 0, 64, 0
2, 43109, Note_on_c, 0, 71, 0
2, 43228, Note_on_c, 0, 64, 25
2, 43233, Note_on_c, 0, 63, 59
2, 43254, Note_on_c, 0, 64, 0
2, 43294, Note_on_c, 0, 63, 0
2, 43309, Note_on_c, 0, 64, 76
2, 43356, Note_on_c, 0, 64, 0
2, 43386, Note_on_c, 0, 67, 92
2, 43398, Note_on_c, 0, 64, 42
2, 43442, Note_on_c, 0, 67, 0
2, 43467, Note_on_c, 0, 71, 95
2, 43527, Note_on_c, 0, 71, 0
2, 43564, Note_on_c, 0, 74, 94
2, 43635, Note_on_c, 0, 64, 0
2, 43650, Note_on_c, 0, 74, 0
2, 43659, Note_on_c, 0, 55, 0
2, 43665, Note_on_c, 0, 72, 65
2, 43707, Note_on_c, 0, 72, 0
2, 43713, Note_on_c, 0, 60, 0
2, 43798, Note_on_c, 0, 54, 37
2, 43799, Note_on_c, 0, 71, 55
2, 43806, Note_on_c, 0, 66, 35
2, 43806, Note_on_c, 0, 64, 43
2, 43817, Control_c, 0, 64, 0
2, 43882, Control_c, 0, 64, 127
2, 43957, Note_on_c, 0, 60, 27
2, 44085, Note_on_c, 0, 54, 0
2, 44131, Note_on_c, 0, 54, 32
2, 44150, Note_on_c, 0, 64, 0
2, 44164, Note_on_c, 0, 66, 0
2, 44166, Note_on_c, 0, 60, 0
2, 44299, Note_on_c, 0, 71, 0
2, 44423, Note_on_c, 0, 71, 72
2, 44425, Note_on_c, 0, 68, 65
2, 44426, Note_on_c, 0, 64, 69
2, 44427, Note_on_c, 0, 59, 49
2, 44428, Note_on_c, 0, 57, 41
2, 44429, Note_on_c, 0, 60, 50
2, 44432, Control_c, 0, 64, 0
2, 44476, Control_c, 0, 64, 127
2, 44503, Note_on_c, 0, 71, 0
2, 44537, Note_on_c, 0, 71, 74
2, 44578, Note_on_c, 0, 59, 0
2, 44581, Note_on_c, 0, 57, 0
2, 44591, Note_on_c, 0, 60, 0
2, 44599, Note_on_c, 0, 68, 0
2, 44612, Note_on_c, 0, 71, 0
2, 44616, Note_on_c, 0, 69, 60
2, 44619, Note_on_c, 0, 54, 0
2, 44635, Note_on_c, 0, 64, 0
2, 44684, Note_on_c, 0, 69, 0
2, 44715, Note_on_c, 0, 67, 69
2, 44718, Note_on_c, 0, 56, 31
2, 44720, Note_on_c, 0, 63, 42
2, 44721, Note_on_c, 0, 58, 29
2, 44725, Note_on_c, 0, 60, 35
2, 44728, Control_c, 0, 64, 0
2, 44794, Control_c, 0, 64, 127
2, 44822, Note_on_c, 0, 70, 53
2, 44884, Note_on_c, 0, 70, 0
2, 44920, Note_on_c, 0, 60, 0
2, 44924, Note_on_c, 0, 67, 0
2, 44933, Note_on_c, 0, 58, 0
2, 44936, Note_on_c, 0, 70, 48
2, 44937, Note_on_c, 0, 56, 0
2, 45021, Note_on_c, 0, 70, 0
2, 45043, Note_on_c, 0, 63, 0
2, 45045, Note_on_c, 0, 48, 34
2, 45046, Note_on_c, 0, 68, 38
2, 45144, Note_on_c, 0, 68, 0
2, 45160, Note_on_c, 0, 48, 0
2, 45188, Note_on_c, 0, 67, 24
2, 45200, Note_on_c, 0, 63, 20
2, 45201, Note_on_c, 0, 60, 28
2, 45203, Note_on_c, 0, 41, 22
2, 45203, Control_c, 0, 64, 0
2, 45263, Control_c, 0, 64, 127
2, 45313, Note_on_c, 0, 48, 38
2, 45338, Note_on_c, 0, 63, 0
2, 45339, Note_on_c, 0, 60, 0
2, 45406, Note_on_c, 0, 67, 0
2, 45438, Note_on_c, 0, 65, 29
2, 45441, Note_on_c, 0, 60, 24
2, 45442, Note_on_c, 0, 63, 23
2, 45446, Note_on_c, 0, 53, 27
2, 45499, Note_on_c, 0, 60, 0
2, 45535, Note_on_c, 0, 65, 0
2, 45544, Note_on_c, 0, 60, 51
2, 45565, Note_on_c, 0, 63, 0
2, 45597, Note_on_c, 0, 60, 0
2, 45610, Note_on_c, 0, 62, 72
2, 45615, Note_on_c, 0, 60, 44
2, 45627, Note_on_c, 0, 60, 0
2, 45632, Note_on_c, 0, 53, 0
2, 45647, Note_on_c, 0, 48, 0
2, 45669, Note_on_c, 0, 62, 0
2, 45676, Note_on_c, 0, 63, 74
2, 45684, Note_on_c, 0, 41, 0
2, 45740, Note_on_c, 0, 63, 0
2, 45751, Note_on_c, 0, 62, 58
2, 45755, Note_on_c, 0, 40, 34
2, 45766, Note_on_c, 0, 50, 17
2, 45774, Control_c, 0, 64, 0
2, 45836, Control_c, 0, 64, 127
2, 45872, Note_on_c, 0, 62, 0
2, 45880, Note_on_c, 0, 59, 70
2, 45953, Note_on_c, 0, 59, 0
2, 45955, Note_on_c, 0, 40, 0
2, 45972, Note_on_c, 0, 60, 76
2, 45975, Note_on_c, 0, 50, 0
2, 46075, Note_on_c, 0, 60, 0
2, 46233, Note_on_c, 0, 60, 66
2, 46234, Note_on_c, 0, 64, 63
2, 46235, Note_on_c, 0, 40, 41
2, 46245, Control_c, 0, 64, 0
2, 46284, Control_c, 0, 64, 127
2, 46291, Note_on_c, 0, 60, 0
2, 46326, Note_on_c, 0, 64, 0
2, 46350, Note_on_c, 0, 67, 60
2, 46355, Note_on_c, 0, 40, 0
2, 46356, Note_on_c, 0, 62, 59
2, 46358, Note_on_c, 0, 52, 38
2, 46383, Note_on_c, 0, 52, 0
2, 46393, Note_on_c, 0, 62, 0
2, 46394, Note_on_c, 0, 67, 0
2, 46486, Note_on_c, 0, 68, 59
2, 46488, Note_on_c, 0, 56, 61
2, 46490, Note_on_c, 0, 64, 58
2, 46491, Note_on_c, 0, 60, 58
2, 46498, Control_c, 0, 64, 0
2, 46527, Control_c, 0, 64, 127
2, 46584, Note_on_c, 0, 60, 0
2, 46584, Note_on_c, 0, 64, 0
2, 46588, Note_on_c, 0, 56, 0
2, 46600, Note_on_c, 0, 68, 0
2, 46615, Note_on_c, 0, 69, 68
2, 46618, Note_on_c, 0, 64, 53
2, 46619, Note_on_c, 0, 57, 54
2, 46623, Note_on_c, 0, 60, 49
2, 46625, Control_c, 0, 64, 0
2, 46652, Control_c, 0, 64, 127
2, 46670, Note_on_c, 0, 69, 0
2, 46681, Note_on_c, 0, 57, 0
2, 46686, Note_on_c, 0, 64, 0
2, 46694, Note_on_c, 0, 60, 0
2, 46736, Note_on_c, 0, 71, 60
2, 46736, Note_on_c, 0, 56, 43
2, 46738, Control_c, 0, 64, 0
2, 46739, Note_on_c, 0, 64, 58
2, 46743, Note_on_c, 0, 60, 50
2, 46762, Control_c, 0, 64, 127
2, 46778, Note_on_c, 0, 60, 0
2, 46778, Note_on_c, 0, 64, 0
2, 46787, Note_on_c, 0, 71, 0
2, 46802, Note_on_c, 0, 56, 0
2, 46841, Note_on_c, 0, 62, 54
2, 46844, Note_on_c, 0, 72, 37
2, 46845, Note_on_c, 0, 67, 55
2, 46846, Control_c, 0, 64, 0
2, 46846, Note_on_c, 0, 55, 53
2, 46873, Control_c, 0, 64, 127
2, 46880, Note_on_c, 0, 62, 0
2, 46883, Note_on_c, 0, 55, 0
2, 46896, Note_on_c, 0, 72, 0
2, 46902, Note_on_c, 0, 67, 0
2, 46971, Note_on_c, 0, 74, 64
2, 46976, Note_on_c, 0, 64, 46
2, 46977, Note_on_c, 0, 67, 57
2, 46978, Note_on_c, 0, 69, 61
2, 46979, Note_on_c, 0, 60, 51
2, 46980, Note_on_c, 0, 50, 42
2, 46982, Control_c, 0, 64, 0
2, 47045, Control_c, 0, 64, 127
2, 47083, Note_on_c, 0, 57, 72
2, 47101, Note_on_c, 0, 60, 0
2, 47113, Note_on_c, 0, 67, 0
2, 47134, Note_on_c, 0, 64, 0
2, 47167, Note_on_c, 0, 69, 0
2, 47170, Note_on_c, 0, 74, 0
2, 47177, Note_on_c, 0, 67, 77
2, 47180, Note_on_c, 0, 60, 64
2, 47181, Note_on_c, 0, 64, 66
2, 47273, Note_on_c, 0, 64, 0
2, 47275, Note_on_c, 0, 60, 0
2, 47283, Note_on_c, 0, 67, 0
2, 47287, Note_on_c, 0, 72, 79
2, 47293, Note_on_c, 0, 57, 0
2, 47300, Note_on_c, 0, 50, 0
2, 47374, Note_on_c, 0, 72, 0
2, 47404, Note_on_c, 0, 70, 49
2, 47410, Note_on_c, 0, 65, 44
2, 47411, Note_on_c, 0, 60, 34
2, 47413, Note_on_c, 0, 54, 36
2, 47414, Note_on_c, 0, 44, 34
2, 47422, Control_c, 0, 64, 0
2, 47490, Control_c, 0, 64, 127
2, 47537, Note_on_c, 0, 51, 33
2, 47547, Note_on_c, 0, 54, 0
2, 47608, Note_on_c, 0, 60, 0
2, 47608, Note_on_c, 0, 65, 0
2, 47673, Note_on_c, 0, 54, 26
2, 47674, Note_on_c, 0, 68, 36
2, 47675, Note_on_c, 0, 65, 41
2, 47680, Note_on_c, 0, 60, 24
2, 47797, Note_on_c, 0, 51, 0
2, 47805, Note_on_c, 0, 54, 0
2, 47809, Note_on_c, 0, 70, 0
2, 47811, Note_on_c, 0, 65, 0
2, 47815, Note_on_c, 0, 44, 0
2, 47818, Note_on_c, 0, 68, 0
2, 47826, Note_on_c, 0, 60, 0
2, 47904, Note_on_c, 0, 67, 37
2, 47907, Note_on_c, 0, 60, 26
2, 47912, Note_on_c, 0, 64, 31
2, 47912, Control_c, 0, 64, 0
2, 47913, Note_on_c, 0, 55, 32
2, 47980, Control_c, 0, 64, 127
2, 47999, Note_on_c, 0, 60, 0
2, 48015, Note_on_c, 0, 64, 0
2, 48022, Note_on_c, 0, 67, 0
2, 48416, Note_on_c, 0, 55, 0
2, 48852, Note_on_c, 0, 43, 94
2, 48853, Note_on_c, 0, 31, 90
2, 48859, Control_c, 0, 64, 0
2, 49051, Note_on_c, 0, 38, 40
2, 49092, Note_on_c, 0, 38, 0
2, 49096, Note_on_c, 0, 55, 44
2, 49097, Note_on_c, 0, 64, 38
2, 49100, Note_on_c, 0, 60, 46
2, 49131, Note_on_c, 0, 64, 0
2, 49132, Note_on_c, 0, 55, 0
2, 49137, Note_on_c, 0, 60, 0
2, 49176, Note_on_c, 0, 55, 47
2, 49176, Note_on_c, 0, 64, 34
2, 49178, Note_on_c, 0, 60, 48
2, 49188, Note_on_c, 0, 55, 0
2, 49191, Note_on_c, 0, 60, 0
2, 49193, Note_on_c, 0, 64, 0
2, 49288, Note_on_c, 0, 38, 20
2, 49317, Note_on_c, 0, 38, 0
2, 49335, Note_on_c, 0, 31, 0
2, 49338, Note_on_c, 0, 64, 33
2, 49339, Note_on_c, 0, 57, 43
2, 49340, Note_on_c, 0, 53, 31
2, 49340, Note_on_c, 0, 60, 41
2, 49519, Note_on_c, 0, 60, 0
2, 49520, Note_on_c, 0, 57, 0
2, 49520, Note_on_c, 0, 64, 0
2, 49525, Note_on_c, 0, 53, 0
2, 49542, Note_on_c, 0, 39, 21
2, 49555, Note_on_c, 0, 39, 0
2, 49576, Note_on_c, 0, 53, 44
2, 49576, Note_on_c, 0, 64, 35
2, 49577, Note_on_c, 0, 57, 44
2, 49580, Note_on_c, 0, 60, 47
2, 49583, Note_on_c, 0, 43, 0
2, 49662, Note_on_c, 0, 43, 50
2, 49681, Note_on_c, 0, 43, 0
2, 49817, Note_on_c, 0, 43, 66
2, 49933, Note_on_c, 0, 53, 0
2, 49977, Note_on_c, 0, 57, 0
2, 49990, Note_on_c, 0, 60, 0
2, 49994, Note_on_c, 0, 64, 0
2, 50063, Note_on_c, 0, 64, 47
2, 50063, Note_on_c, 0, 55, 51
2, 50066, Note_on_c, 0, 60, 49
2, 50088, Note_on_c, 0, 55, 0
2, 50095, Note_on_c, 0, 64, 0
2, 50101, Note_on_c, 0, 60, 0
2, 50141, Note_on_c, 0, 55, 57
2, 50141, Note_on_c, 0, 64, 49
2, 50143, Note_on_c, 0, 60, 54
2, 50155, Note_on_c, 0, 55, 0
2, 50157, Note_on_c, 0, 60, 0
2, 50158, Note_on_c, 0, 64, 0
2, 50264, Note_on_c, 0, 42, 28
2, 50282, Note_on_c, 0, 42, 0
2, 50293, Note_on_c, 0, 64, 55
2, 50295, Note_on_c, 0, 58, 61
2, 50296, Note_on_c, 0, 53, 51
2, 50382, Note_on_c, 0, 43, 0
2, 50424, Control_c, 0, 64, 127
2, 50427, Control_c, 0, 64, 0
2, 50474, Control_c, 0, 64, 127
2, 50483, Control_c, 0, 64, 0
2, 50485, Note_on_c, 0, 64, 0
2, 50498, Note_on_c, 0, 53, 0
2, 50508, Note_on_c, 0, 58, 0
2, 50533, Note_on_c, 0, 61, 44
2, 50535, Note_on_c, 0, 58, 29
2, 50536, Note_on_c, 0, 42, 36
2, 50538, Note_on_c, 0, 56, 36
2, 50539, Note_on_c, 0, 52, 33
2, 50544, Note_on_c, 0, 49, 31
2, 50671, Note_on_c, 0, 52, 0
2, 50676, Note_on_c, 0, 49, 0
2, 50680, Note_on_c, 0, 58, 0
2, 50680, Note_on_c, 0, 56, 0
2, 50682, Note_on_c, 0, 42, 0
2, 50684, Note_on_c, 0, 61, 0
2, 50856, Note_on_c, 0, 76, 84
2, 50871, Note_on_c, 0, 76, 0
2, 51022, Note_on_c, 0, 64, 24
2, 51036, Note_on_c, 0, 64, 0
2, 51254, Note_on_c, 0, 53, 34
2, 51255, Note_on_c, 0, 64, 36
2, 51256, Note_on_c, 0, 57, 41
2, 51258, Note_on_c, 0, 60, 41
2, 51534, Note_on_c, 0, 69, 60
2, 51544, Note_on_c, 0, 69, 0
2, 51568, Note_on_c, 0, 72, 75
2, 51586, Note_on_c, 0, 72, 0
2, 51595, Note_on_c, 0, 53, 0
2, 51596, Note_on_c, 0, 57, 0
2, 51597, Note_on_c, 0, 60, 0
2, 51598, Note_on_c, 0, 64, 0
2, 51606, Note_on_c, 0, 75, 81
2, 51632, Note_on_c, 0, 75, 0
2, 51645, Note_on_c, 0, 79, 83
2, 51671, Note_on_c, 0, 79, 0
2, 51683, Note_on_c, 0, 77, 77
2, 51689, Note_on_c, 0, 79, 29
2, 51698, Note_on_c, 0, 79, 0
2, 51714, Note_on_c, 0, 77, 0
2, 51724, Note_on_c, 0, 62, 32
2, 51724, Note_on_c, 0, 57, 33
2, 51725, Note_on_c, 0, 76, 62
2, 51726, Note_on_c, 0, 64, 19
2, 51818, Note_on_c, 0, 76, 0
2, 51841, Note_on_c, 0, 74, 45
2, 51873, Note_on_c, 0, 74, 0
2, 51913, Note_on_c, 0, 74, 57
2, 52074, Note_on_c, 0, 64, 0
2, 52094, Note_on_c, 0, 62, 0
2, 52097, Note_on_c, 0, 57, 0
2, 52194, Note_on_c, 0, 74, 0
2, 52206, Note_on_c, 0, 65, 30
2, 52209, Note_on_c, 0, 56, 25
2, 52209, Note_on_c, 0, 62, 31
2, 52284, Note_on_c, 0, 67, 58
2, 52312, Note_on_c, 0, 65, 0
2, 52318, Note_on_c, 0, 67, 0
2, 52319, Note_on_c, 0, 68, 54
2, 52332, Note_on_c, 0, 56, 0
2, 52340, Note_on_c, 0, 62, 0
2, 52345, Note_on_c, 0, 68, 0
2, 52354, Note_on_c, 0, 70, 42
2, 52369, Note_on_c, 0, 70, 0
2, 52380, Note_on_c, 0, 71, 61
2, 52406, Note_on_c, 0, 71, 0
2, 52413, Note_on_c, 0, 73, 48
2, 52430, Note_on_c, 0, 73, 0
2, 52441, Note_on_c, 0, 74, 55
2, 52459, Note_on_c, 0, 74, 0
2, 52475, Note_on_c, 0, 76, 54
2, 52494, Note_on_c, 0, 76, 0
2, 52505, Note_on_c, 0, 77, 58
2, 52527, Note_on_c, 0, 77, 0
2, 52537, Note_on_c, 0, 79, 71
2, 52553, Note_on_c, 0, 62, 32
2, 52554, Note_on_c, 0, 79, 0
2, 52555, Note_on_c, 0, 56, 30
2, 52567, Note_on_c, 0, 62, 0
2, 52578, Note_on_c, 0, 82, 51
2, 52584, Note_on_c, 0, 56, 0
2, 52589, Note_on_c, 0, 82, 0
2, 52608, Note_on_c, 0, 82, 25
2, 52611, Note_on_c, 0, 83, 69
2, 52615, Note_on_c, 0, 82, 0
2, 52627, Note_on_c, 0, 83, 0
2, 52637, Note_on_c, 0, 86, 101
2, 52663, Note_on_c, 0, 86, 0
2, 52669, Note_on_c, 0, 83, 74
2, 52676, Note_on_c, 0, 64, 31
2, 52679, Note_on_c, 0, 60, 37
2, 52679, Note_on_c, 0, 57, 38
2, 52687, Note_on_c, 0, 83, 0
2, 52698, Note_on_c, 0, 84, 79
2, 52722, Note_on_c, 0, 84, 0
2, 52734, Note_on_c, 0, 80, 63
2, 52750, Note_on_c, 0, 80, 0
2, 52762, Note_on_c, 0, 83, 80
2, 52774, Note_on_c, 0, 64, 0
2, 52792, Note_on_c, 0, 83, 0
2, 52799, Note_on_c, 0, 80, 43
2, 52813, Note_on_c, 0, 80, 0
2, 52816, Note_on_c, 0, 60, 0
2, 52816, Note_on_c, 0, 57, 0
2, 52834, Note_on_c, 0, 81, 56
2, 52861, Note_on_c, 0, 81, 0
2, 52871, Note_on_c, 0, 76, 46
2, 52893, Note_on_c, 0, 76, 0
2, 52908, Note_on_c, 0, 74, 45
2, 52941, Note_on_c, 0, 74, 0
2, 52948, Note_on_c, 0, 72, 34
2, 52974, Note_on_c, 0, 72, 0
2, 52984, Note_on_c, 0, 71, 44
2, 53005, Note_on_c, 0, 71, 0
2, 53013, Note_on_c, 0, 74, 60
2, 53043, Note_on_c, 0, 74, 0
2, 53054, Note_on_c, 0, 71, 45
2, 53073, Note_on_c, 0, 71, 0
2, 53091, Note_on_c, 0, 72, 47
2, 53116, Note_on_c, 0, 72, 0
2, 53130, Note_on_c, 0, 69, 37
2, 53160, Note_on_c, 0, 69, 0
2, 53176, Note_on_c, 0, 64, 27
2, 53220, Note_on_c, 0, 64, 0
2, 53242, Note_on_c, 0, 64, 49
2, 53255, Note_on_c, 0, 64, 0
2, 53295, Note_on_c, 0, 64, 33
2, 53299, Note_on_c, 0, 56, 31
2, 53301, Note_on_c, 0, 60, 40
2, 53360, Note_on_c, 0, 60, 0
2, 53371, Note_on_c, 0, 64, 0
2, 53379, Note_on_c, 0, 56, 0
2, 53413, Note_on_c, 0, 55, 30
2, 53421, Note_on_c, 0, 64, 14
2, 53422, Note_on_c, 0, 60, 27
2, 53509, Note_on_c, 0, 60, 0
2, 53561, Note_on_c, 0, 64, 0
2, 53592, Note_on_c, 0, 55, 0
2, 53648, Note_on_c, 0, 83, 115
2, 53649, Note_on_c, 0, 54, 44
2, 53651, Note_on_c, 0, 64, 38
2, 53653, Note_on_c, 0, 60, 31
2, 53689, Note_on_c, 0, 84, 80
2, 53700, Note_on_c, 0, 83, 0
2, 53716, Note_on_c, 0, 84, 0
2, 53729, Note_on_c, 0, 86, 80
2, 53751, Note_on_c, 0, 86, 0
2, 53767, Note_on_c, 0, 64, 0
2, 53776, Note_on_c, 0, 78, 44
2, 53796, Note_on_c, 0, 78, 0
2, 53813, Note_on_c, 0, 79, 62
2, 53833, Note_on_c, 0, 79, 0
2, 53849, Note_on_c, 0, 81, 60
2, 53851, Note_on_c, 0, 60, 0
2, 53870, Note_on_c, 0, 81, 0
2, 53896, Note_on_c, 0, 74, 31
2, 53960, Note_on_c, 0, 74, 0
2, 54042, Note_on_c, 0, 54, 0
2, 54129, Note_on_c, 0, 56, 33
2, 54131, Note_on_c, 0, 53, 32
2, 54133, Note_on_c, 0, 60, 33
2, 54136, Note_on_c, 0, 62, 17
2, 54151, Note_on_c, 0, 60, 0
2, 54155, Note_on_c, 0, 62, 0
2, 54158, Note_on_c, 0, 53, 0
2, 54159, Note_on_c, 0, 56, 0
2, 54175, Note_on_c, 0, 79, 70
2, 54196, Note_on_c, 0, 79, 0
2, 54212, Note_on_c, 0, 80, 84
2, 54244, Note_on_c, 0, 80, 0
2, 54253, Note_on_c, 0, 82, 81
2, 54283, Note_on_c, 0, 82, 0
2, 54291, Note_on_c, 0, 80, 72
2, 54319, Note_on_c, 0, 80, 0
2, 54331, Note_on_c, 0, 79, 84
2, 54391, Note_on_c, 0, 79, 0
2, 54393, Note_on_c, 0, 80, 39
2, 54413, Note_on_c, 0, 79, 52
2, 54423, Note_on_c, 0, 80, 0
2, 54442, Note_on_c, 0, 77, 60
2, 54444, Note_on_c, 0, 79, 0
2, 54465, Note_on_c, 0, 77, 0
2, 54479, Note_on_c, 0, 76, 63
2, 54499, Note_on_c, 0, 76, 0
2, 54509, Note_on_c, 0, 79, 74
2, 54540, Note_on_c, 0, 79, 0
2, 54545, Note_on_c, 0, 76, 55
2, 54561, Note_on_c, 0, 76, 0
2, 54573, Note_on_c, 0, 77, 73
2, 54596, Note_on_c, 0, 77, 0
2, 54624, Note_on_c, 0, 76, 72
2, 54649, Note_on_c, 0, 76, 0
2, 54702, Note_on_c, 0, 74, 74
2, 54721, Note_on_c, 0, 74, 0
2, 54757, Note_on_c, 0, 71, 58
2, 54796, Note_on_c, 0, 71, 0
2, 54813, Note_on_c, 0, 67, 44
2, 54846, Note_on_c, 0, 67, 0
2, 54865, Note_on_c, 0, 68, 49
2, 54936, Note_on_c, 0, 62, 45
2, 54942, Note_on_c, 0, 56, 29
2, 54948, Note_on_c, 0, 62, 0
2, 54961, Note_on_c, 0, 56, 0
2, 55035, Note_on_c, 0, 68, 0
2, 55049, Note_on_c, 0, 71, 85
2, 55079, Note_on_c, 0, 71, 0
2, 55098, Note_on_c, 0, 74, 96
2, 55157, Note_on_c, 0, 74, 0
2, 55166, Note_on_c, 0, 71, 71
2, 55166, Note_on_c, 0, 57, 48
2, 55174, Note_on_c, 0, 60, 24
2, 55182, Note_on_c, 0, 60, 0
2, 55198, Note_on_c, 0, 57, 0
2, 55200, Note_on_c, 0, 71, 0
2, 55212, Note_on_c, 0, 72, 55
2, 55233, Note_on_c, 0, 72, 0
2, 55248, Note_on_c, 0, 76, 45
2, 55276, Note_on_c, 0, 76, 0
2, 55283, Note_on_c, 0, 79, 68
2, 55300, Note_on_c, 0, 79, 0
2, 55329, Note_on_c, 0, 83, 60
2, 55396, Note_on_c, 0, 83, 0
2, 55400, Note_on_c, 0, 86, 80
2, 55401, Note_on_c, 0, 64, 53
2, 55402, Note_on_c, 0, 74, 65
2, 55406, Note_on_c, 0, 56, 32
2, 55407, Note_on_c, 0, 60, 35
2, 55417, Note_on_c, 0, 60, 0
2, 55417, Note_on_c, 0, 64, 0
2, 55431, Note_on_c, 0, 56, 0
2, 55436, Note_on_c, 0, 86, 0
2, 55449, Note_on_c, 0, 74, 0
2, 55450, Note_on_c, 0, 85, 46
2, 55504, Note_on_c, 0, 85, 0
2, 55524, Note_on_c, 0, 60, 62
2, 55525, Note_on_c, 0, 84, 66
2, 55527, Note_on_c, 0, 53, 38
2, 55527, Note_on_c, 0, 57, 43
2, 55537, Note_on_c, 0, 57, 0
2, 55537, Note_on_c, 0, 60, 0
2, 55547, Note_on_c, 0, 53, 0
2, 55552, Note_on_c, 0, 84, 0
2, 55573, Note_on_c, 0, 81, 46
2, 55646, Note_on_c, 0, 81, 0
2, 55655, Note_on_c, 0, 76, 36
2, 55676, Note_on_c, 0, 76, 0
2, 55688, Note_on_c, 0, 79, 85
2, 55757, Note_on_c, 0, 79, 0
2, 55764, Note_on_c, 0, 78, 60
2, 55768, Note_on_c, 0, 60, 64
2, 55769, Note_on_c, 0, 57, 54
2, 55769, Note_on_c, 0, 53, 40
2, 55775, Note_on_c, 0, 60, 0
2, 55780, Note_on_c, 0, 57, 0
2, 55786, Note_on_c, 0, 53, 0
2, 55793, Note_on_c, 0, 78, 0
2, 55808, Note_on_c, 0, 77, 38
2, 55898, Note_on_c, 0, 72, 25
2, 55907, Note_on_c, 0, 77, 0
2, 55911, Note_on_c, 0, 72, 0
2, 55927, Note_on_c, 0, 76, 88
2, 56008, Note_on_c, 0, 76, 0
2, 56010, Note_on_c, 0, 75, 69
2, 56014, Note_on_c, 0, 64, 54
2, 56015, Note_on_c, 0, 59, 58
2, 56025, Note_on_c, 0, 64, 0
2, 56026, Note_on_c, 0, 59, 0
2, 56036, Note_on_c, 0, 75, 0
2, 56051, Note_on_c, 0, 74, 48
2, 56122, Note_on_c, 0, 74, 0
2, 56137, Note_on_c, 0, 65, 42
2, 56148, Note_on_c, 0, 65, 0
2, 56169, Note_on_c, 0, 67, 91
2, 56170, Note_on_c, 0, 74, 74
2, 56225, Note_on_c, 0, 67, 0
2, 56240, Note_on_c, 0, 68, 37
2, 56241, Note_on_c, 0, 74, 0
2, 56253, Note_on_c, 0, 67, 59
2, 56268, Note_on_c, 0, 68, 0
2, 56284, Note_on_c, 0, 67, 0
2, 56291, Note_on_c, 0, 65, 35
2, 56352, Note_on_c, 0, 65, 0
2, 56371, Note_on_c, 0, 64, 28
2, 56386, Note_on_c, 0, 64, 0
2, 56399, Note_on_c, 0, 67, 84
2, 56483, Note_on_c, 0, 64, 39
2, 56491, Note_on_c, 0, 62, 36
2, 56492, Note_on_c, 0, 65, 76
2, 56494, Note_on_c, 0, 64, 0
2, 56498, Note_on_c, 0, 55, 49
2, 56501, Note_on_c, 0, 67, 0
2, 56501, Note_on_c, 0, 62, 0
2, 56504, Note_on_c, 0, 59, 16
2, 56512, Note_on_c, 0, 59, 0
2, 56519, Note_on_c, 0, 55, 0
2, 56554, Note_on_c, 0, 65, 0
2, 56557, Note_on_c, 0, 64, 69
2, 56625, Note_on_c, 0, 64, 0
2, 56646, Note_on_c, 0, 57, 54
2, 56712, Note_on_c, 0, 57, 0
2, 56725, Note_on_c, 0, 57, 62
2, 56786, Note_on_c, 0, 56, 67
2, 56788, Note_on_c, 0, 57, 0
2, 56863, Note_on_c, 0, 56, 0
2, 56879, Note_on_c, 0, 56, 72
2, 56967, Note_on_c, 0, 56, 0
2, 56967, Note_on_c, 0, 55, 82
2, 57056, Note_on_c, 0, 55, 0
2, 57242, Note_on_c, 0, 56, 55
2, 57246, Note_on_c, 0, 64, 43
2, 57252, Note_on_c, 0, 60, 24
2, 57282, Note_on_c, 0, 60, 0
2, 57295, Note_on_c, 0, 56, 0
2, 57301, Note_on_c, 0, 64, 0
2, 57367, Note_on_c, 0, 55, 55
2, 57368, Note_on_c, 0, 64, 41
2, 57372, Note_on_c, 0, 60, 44
2, 57424, Note_on_c, 0, 55, 0
2, 57427, Note_on_c, 0, 60, 0
2, 57431, Note_on_c, 0, 64, 0
2, 57489, Note_on_c, 0, 65, 51
2, 57490, Note_on_c, 0, 54, 42
2, 57492, Note_on_c, 0, 60, 48
2, 57495, Note_on_c, 0, 58, 37
2, 57615, Note_on_c, 0, 74, 108
2, 57688, Note_on_c, 0, 73, 38
2, 57691, Note_on_c, 0, 74, 0
2, 57707, Note_on_c, 0, 73, 0
2, 57728, Note_on_c, 0, 74, 50
2, 57744, Note_on_c, 0, 65, 0
2, 57762, Note_on_c, 0, 58, 0
2, 57763, Note_on_c, 0, 54, 0
2, 57763, Note_on_c, 0, 60, 0
2, 57794, Note_on_c, 0, 74, 0
2, 57804, Note_on_c, 0, 77, 63
2, 57807, Note_on_c, 0, 54, 40
2, 57808, Note_on_c, 0, 65, 50
2, 57810, Note_on_c, 0, 58, 42
2, 57811, Note_on_c, 0, 60, 49
2, 57822, Note_on_c, 0, 77, 0
2, 57827, Note_on_c, 0, 65, 0
2, 57850, Note_on_c, 0, 82, 64
2, 57864, Note_on_c, 0, 60, 0
2, 57902, Note_on_c, 0, 54, 0
2, 57909, Note_on_c, 0, 58, 0
2, 57910, Note_on_c, 0, 82, 0
2, 57924, Note_on_c, 0, 86, 92
2, 57929, Note_on_c, 0, 62, 49
2, 57931, Note_on_c, 0, 53, 44
2, 57936, Note_on_c, 0, 59, 26
2, 57990, Note_on_c, 0, 86, 0
2, 57999, Note_on_c, 0, 59, 0
2, 58007, Note_on_c, 0, 83, 77
2, 58034, Note_on_c, 0, 83, 0
2, 58040, Note_on_c, 0, 62, 0
2, 58047, Note_on_c, 0, 80, 52
2, 58076, Note_on_c, 0, 80, 0
2, 58086, Note_on_c, 0, 53, 0
2, 58087, Note_on_c, 0, 77, 46
2, 58118, Note_on_c, 0, 77, 0
2, 58282, Note_on_c, 0, 62, 36
2, 58287, Note_on_c, 0, 59, 30
2, 58291, Note_on_c, 0, 62, 0
2, 58298, Note_on_c, 0, 59, 0
2, 58331, Note_on_c, 0, 67, 28
2, 58344, Note_on_c, 0, 67, 0
2, 58372, Note_on_c, 0, 72, 66
2, 58390, Note_on_c, 0, 72, 0
2, 58406, Note_on_c, 0, 74, 91
2, 58442, Note_on_c, 0, 74, 0
2, 58450, Note_on_c, 0, 72, 76
2, 58452, Note_on_c, 0, 62, 45
2, 58454, Note_on_c, 0, 58, 32
2, 58461, Note_on_c, 0, 62, 0
2, 58478, Note_on_c, 0, 58, 0
2, 58478, Note_on_c, 0, 72, 0
2, 58489, Note_on_c, 0, 70, 63
2, 58519, Note_on_c, 0, 70, 0
2, 58528, Note_on_c, 0, 69, 47
2, 58551, Note_on_c, 0, 69, 0
2, 58565, Note_on_c, 0, 66, 37
2, 58593, Note_on_c, 0, 66, 0
2, 58602, Note_on_c, 0, 69, 68
2, 58638, Note_on_c, 0, 69, 0
2, 58641, Note_on_c, 0, 66, 60
2, 58663, Note_on_c, 0, 62, 34
2, 58664, Note_on_c, 0, 66, 0
2, 58676, Note_on_c, 0, 62, 0
2, 58678, Note_on_c, 0, 67, 69
2, 58712, Note_on_c, 0, 67, 0
2, 58718, Note_on_c, 0, 65, 55
2, 58771, Note_on_c, 0, 65, 0
2, 58887, Note_on_c, 0, 62, 56
2, 58896, Note_on_c, 0, 62, 0
2, 58931, Note_on_c, 0, 65, 83
2, 58968, Note_on_c, 0, 65, 0
2, 58977, Note_on_c, 0, 67, 45
2, 58986, Note_on_c, 0, 65, 43
2, 58996, Note_on_c, 0, 67, 0
2, 59014, Note_on_c, 0, 65, 0
2, 59017, Note_on_c, 0, 62, 36
2, 59040, Note_on_c, 0, 62, 0
2, 59061, Note_on_c, 0, 63, 52
2, 59104, Note_on_c, 0, 63, 0
2, 59125, Note_on_c, 0, 64, 57
2, 59158, Note_on_c, 0, 64, 0
2, 59239, Note_on_c, 0, 63, 50
2, 59241, Note_on_c, 0, 58, 37
2, 59243, Note_on_c, 0, 52, 31
2, 59252, Note_on_c, 0, 63, 0
2, 59253, Note_on_c, 0, 52, 0
2, 59260, Note_on_c, 0, 58, 0
2, 59486, Note_on_c, 0, 53, 41
2, 59486, Note_on_c, 0, 63, 46
2, 59489, Note_on_c, 0, 60, 47
2, 59494, Note_on_c, 0, 63, 0
2, 59495, Note_on_c, 0, 56, 31
2, 59498, Note_on_c, 0, 60, 0
2, 59499, Note_on_c, 0, 53, 0
2, 59520, Note_on_c, 0, 56, 0
2, 59528, Note_on_c, 0, 91, 95
2, 59554, Note_on_c, 0, 91, 0
2, 59567, Note_on_c, 0, 89, 71
2, 59593, Note_on_c, 0, 89, 0
2, 59603, Note_on_c, 0, 84, 72
2, 59624, Note_on_c, 0, 84, 0
2, 59641, Note_on_c, 0, 80, 34
2, 59656, Note_on_c, 0, 80, 0
2, 59680, Note_on_c, 0, 79, 32
2, 59692, Note_on_c, 0, 79, 0
2, 59719, Note_on_c, 0, 82, 82
2, 59723, Note_on_c, 0, 68, 46
2, 59726, Note_on_c, 0, 63, 44
2, 59735, Note_on_c, 0, 60, 24
2, 59739, Note_on_c, 0, 68, 0
2, 59746, Note_on_c, 0, 82, 0
2, 59752, Note_on_c, 0, 60, 0
2, 59761, Note_on_c, 0, 80, 79
2, 59785, Note_on_c, 0, 80, 0
2, 59792, Note_on_c, 0, 82, 47
2, 59802, Note_on_c, 0, 63, 0
2, 59812, Note_on_c, 0, 80, 34
2, 59826, Note_on_c, 0, 82, 0
2, 59835, Note_on_c, 0, 79, 50
2, 59836, Note_on_c, 0, 80, 0
2, 59852, Note_on_c, 0, 79, 0
2, 59866, Note_on_c, 0, 77, 63
2, 59868, Note_on_c, 0, 68, 28
2, 59875, Note_on_c, 0, 63, 32
2, 59879, Note_on_c, 0, 68, 0
2, 59896, Note_on_c, 0, 77, 0
2, 59905, Note_on_c, 0, 76, 50
2, 59908, Note_on_c, 0, 63, 0
2, 59927, Note_on_c, 0, 76, 0
2, 59941, Note_on_c, 0, 79, 70
2, 59964, Note_on_c, 0, 79, 0
2, 59971, Note_on_c, 0, 76, 49
2, 59985, Note_on_c, 0, 76, 0
2, 59998, Note_on_c, 0, 68, 32
2, 60003, Note_on_c, 0, 77, 69
2, 60014, Note_on_c, 0, 68, 0
2, 60032, Note_on_c, 0, 77, 0
2, 60040, Note_on_c, 0, 72, 45
2, 60075, Note_on_c, 0, 72, 0
2, 60206, Note_on_c, 0, 63, 40
2, 60224, Note_on_c, 0, 63, 0
2, 60242, Note_on_c, 0, 68, 69
2, 60302, Note_on_c, 0, 68, 0
2, 60323, Note_on_c, 0, 56, 51
2, 60325, Note_on_c, 0, 70, 74
2, 60325, Note_on_c, 0, 46, 42
2, 60342, Note_on_c, 0, 46, 0
2, 60342, Note_on_c, 0, 56, 0
2, 60370, Note_on_c, 0, 70, 0
2, 60384, Note_on_c, 0, 66, 53
2, 60436, Note_on_c, 0, 66, 0
2, 60448, Note_on_c, 0, 65, 56
2, 60449, Note_on_c, 0, 61, 42
2, 60454, Note_on_c, 0, 54, 32
2, 60463, Note_on_c, 0, 61, 0
2, 60478, Note_on_c, 0, 65, 0
2, 60496, Note_on_c, 0, 54, 0
2, 60502, Note_on_c, 0, 68, 64
2, 60550, Note_on_c, 0, 68, 0
2, 60568, Note_on_c, 0, 66, 68
2, 60606, Note_on_c, 0, 66, 0
2, 60624, Note_on_c, 0, 65, 53
2, 60675, Note_on_c, 0, 65, 0
2, 60692, Note_on_c, 0, 70, 78
2, 60696, Note_on_c, 0, 61, 39
2, 60701, Note_on_c, 0, 54, 25
2, 60705, Note_on_c, 0, 61, 0
2, 60733, Note_on_c, 0, 54, 0
2, 60734, Note_on_c, 0, 70, 0
2, 60751, Note_on_c, 0, 66, 50
2, 60804, Note_on_c, 0, 66, 0
2, 60813, Note_on_c, 0, 65, 62
2, 60817, Note_on_c, 0, 61, 44
2, 60823, Note_on_c, 0, 54, 23
2, 60826, Note_on_c, 0, 61, 0
2, 60856, Note_on_c, 0, 54, 0
2, 60857, Note_on_c, 0, 65, 0
2, 60876, Note_on_c, 0, 75, 60
2, 60921, Note_on_c, 0, 75, 0
2, 61055, Note_on_c, 0, 61, 56
2, 61057, Note_on_c, 0, 54, 39
2, 61060, Note_on_c, 0, 58, 34
2, 61063, Note_on_c, 0, 61, 0
2, 61068, Note_on_c, 0, 58, 0
2, 61087, Note_on_c, 0, 54, 0
2, 61107, Note_on_c, 0, 65, 33
2, 61139, Note_on_c, 0, 65, 0
2, 61169, Note_on_c, 0, 66, 75
2, 61176, Note_on_c, 0, 60, 44
2, 61178, Note_on_c, 0, 54, 30
2, 61189, Note_on_c, 0, 60, 0
2, 61192, Note_on_c, 0, 54, 0
2, 61205, Note_on_c, 0, 66, 0
2, 61219, Note_on_c, 0, 68, 71
2, 61226, Note_on_c, 0, 54, 37
2, 61230, Note_on_c, 0, 60, 35
2, 61249, Note_on_c, 0, 54, 0
2, 61257, Note_on_c, 0, 60, 0
2, 61273, Note_on_c, 0, 68, 0
2, 61285, Note_on_c, 0, 72, 73
2, 61288, Note_on_c, 0, 54, 48
2, 61311, Note_on_c, 0, 54, 0
2, 61324, Note_on_c, 0, 72, 0
2, 61332, Note_on_c, 0, 63, 52
2, 61334, Note_on_c, 0, 68, 57
2, 61336, Note_on_c, 0, 60, 28
2, 61340, Note_on_c, 0, 56, 36
2, 61342, Note_on_c, 0, 53, 27
2, 61421, Note_on_c, 0, 63, 0
2, 61437, Note_on_c, 0, 68, 0
2, 61446, Note_on_c, 0, 53, 0
2, 61448, Note_on_c, 0, 65, 43
2, 61460, Note_on_c, 0, 60, 0
2, 61480, Note_on_c, 0, 56, 0
2, 61512, Note_on_c, 0, 65, 0
2, 61521, Note_on_c, 0, 75, 74
2, 61557, Note_on_c, 0, 75, 0
2, 61578, Note_on_c, 0, 72, 45
2, 61641, Note_on_c, 0, 63, 25
2, 61644, Note_on_c, 0, 56, 27
2, 61647, Note_on_c, 0, 68, 58
2, 61651, Note_on_c, 0, 60, 25
2, 61655, Note_on_c, 0, 63, 0
2, 61656, Note_on_c, 0, 72, 0
2, 61661, Note_on_c, 0, 60, 0
2, 61674, Note_on_c, 0, 68, 0
2, 61684, Note_on_c, 0, 56, 0
2, 61762, Note_on_c, 0, 65, 49
2, 61765, Note_on_c, 0, 62, 37
2, 61786, Note_on_c, 0, 62, 0
2, 61795, Note_on_c, 0, 65, 0
2, 61922, Note_on_c, 0, 72, 61
2, 61938, Note_on_c, 0, 73, 33
2, 61954, Note_on_c, 0, 73, 0
2, 61955, Note_on_c, 0, 74, 55
2, 61966, Note_on_c, 0, 72, 0
2, 61979, Note_on_c, 0, 74, 0
2, 62011, Note_on_c, 0, 77, 91
2, 62042, Note_on_c, 0, 77, 0
2, 62088, Note_on_c, 0, 77, 87
2, 62133, Note_on_c, 0, 77, 0
2, 62135, Note_on_c, 0, 65, 41
2, 62136, Note_on_c, 0, 62, 47
2, 62145, Note_on_c, 0, 62, 0
2, 62145, Note_on_c, 0, 65, 0
2, 62170, Note_on_c, 0, 76, 87
2, 62253, Note_on_c, 0, 72, 78
2, 62259, Note_on_c, 0, 76, 0
2, 62285, Note_on_c, 0, 72, 0
2, 62320, Note_on_c, 0, 68, 58
2, 62400, Note_on_c, 0, 68, 0
2, 62408, Note_on_c, 0, 65, 50
2, 62469, Note_on_c, 0, 65, 0
2, 62489, Note_on_c, 0, 62, 52
2, 62724, Note_on_c, 0, 62, 0
2, 62724, Note_on_c, 0, 59, 37
2, 62752, Note_on_c, 0, 59, 0
2, 62766, Note_on_c, 0, 60, 74
2, 62845, Note_on_c, 0, 41, 38
2, 62848, Note_on_c, 0, 60, 0
2, 62850, Note_on_c, 0, 57, 39
2, 62858, Note_on_c, 0, 41, 0
2, 62865, Note_on_c, 0, 57, 0
2, 62977, Note_on_c, 0, 76, 85
2, 63003, Note_on_c, 0, 76, 0
2, 63027, Note_on_c, 0, 79, 79
2, 63069, Note_on_c, 0, 79, 0
2, 63095, Note_on_c, 0, 78, 72
2, 63131, Note_on_c, 0, 78, 0
2, 63140, Note_on_c, 0, 77, 56
2, 63195, Note_on_c, 0, 77, 0
2, 63210, Note_on_c, 0, 76, 60
2, 63242, Note_on_c, 0, 76, 0
2, 63256, Note_on_c, 0, 57, 32
2, 63257, Note_on_c, 0, 74, 51
2, 63258, Note_on_c, 0, 64, 17
2, 63259, Note_on_c, 0, 62, 32
2, 63341, Note_on_c, 0, 74, 0
2, 63342, Note_on_c, 0, 69, 54
2, 63470, Control_c, 0, 64, 127
2, 63566, Note_on_c, 0, 69, 0
2, 63633, Note_on_c, 0, 62, 0
2, 63637, Note_on_c, 0, 57, 0
2, 63647, Note_on_c, 0, 64, 0
2, 63728, Note_on_c, 0, 65, 42
2, 63732, Note_on_c, 0, 62, 33
2, 63732, Control_c, 0, 64, 0
2, 63735, Note_on_c, 0, 56, 29
2, 63809, Note_on_c, 0, 68, 71
2, 63839, Note_on_c, 0, 68, 0
2, 63850, Note_on_c, 0, 65, 0
2, 63857, Note_on_c, 0, 70, 48
2, 63860, Note_on_c, 0, 56, 0
2, 63865, Note_on_c, 0, 62, 0
2, 63878, Note_on_c, 0, 70, 0
2, 63891, Note_on_c, 0, 71, 55
2, 63920, Note_on_c, 0, 71, 0
2, 63929, Note_on_c, 0, 73, 64
2, 63959, Note_on_c, 0, 73, 0
2, 63970, Note_on_c, 0, 74, 68
2, 63993, Note_on_c, 0, 74, 0
2, 64008, Note_on_c, 0, 75, 69
2, 64032, Note_on_c, 0, 75, 0
2, 64046, Note_on_c, 0, 76, 70
2, 64052, Note_on_c, 0, 56, 53
2, 64055, Note_on_c, 0, 62, 39
2, 64056, Note_on_c, 0, 65, 35
2, 64070, Note_on_c, 0, 65, 0
2, 64071, Note_on_c, 0, 62, 0
2, 64072, Note_on_c, 0, 76, 0
2, 64091, Note_on_c, 0, 79, 64
2, 64097, Note_on_c, 0, 56, 0
2, 64112, Note_on_c, 0, 79, 0
2, 64131, Note_on_c, 0, 83, 78
2, 64157, Note_on_c, 0, 83, 0
2, 64167, Note_on_c, 0, 86, 96
2, 64196, Note_on_c, 0, 86, 0
2, 64204, Note_on_c, 0, 64, 12
2, 64205, Note_on_c, 0, 57, 25
2, 64205, Note_on_c, 0, 60, 26
2, 64210, Note_on_c, 0, 59, 20
2, 64211, Note_on_c, 0, 84, 80
2, 64212, Note_on_c, 0, 86, 34
2, 64221, Note_on_c, 0, 86, 0
2, 64222, Note_on_c, 0, 59, 0
2, 64243, Note_on_c, 0, 84, 0
2, 64248, Note_on_c, 0, 80, 64
2, 64270, Note_on_c, 0, 80, 0
2, 64282, Note_on_c, 0, 83, 77
2, 64319, Note_on_c, 0, 64, 0
2, 64321, Note_on_c, 0, 83, 0
2, 64321, Note_on_c, 0, 80, 59
2, 64323, Note_on_c, 0, 57, 0
2, 64333, Note_on_c, 0, 60, 0
2, 64342, Note_on_c, 0, 80, 0
2, 64357, Note_on_c, 0, 81, 62
2, 64392, Note_on_c, 0, 81, 0
2, 64398, Note_on_c, 0, 76, 52
2, 64410, Note_on_c, 0, 60, 30
2, 64411, Note_on_c, 0, 64, 17
2, 64414, Note_on_c, 0, 57, 33
2, 64424, Note_on_c, 0, 76, 0
2, 64438, Note_on_c, 0, 74, 38
2, 64474, Note_on_c, 0, 74, 0
2, 64478, Note_on_c, 0, 72, 36
2, 64505, Note_on_c, 0, 72, 0
2, 64513, Note_on_c, 0, 71, 44
2, 64543, Note_on_c, 0, 71, 0
2, 64553, Note_on_c, 0, 74, 53
2, 64566, Note_on_c, 0, 64, 0
2, 64568, Note_on_c, 0, 57, 0
2, 64583, Note_on_c, 0, 74, 0
2, 64584, Note_on_c, 0, 60, 0
2, 64591, Note_on_c, 0, 71, 40
2, 64618, Note_on_c, 0, 71, 0
2, 64630, Note_on_c, 0, 72, 60
2, 64651, Note_on_c, 0, 72, 0
2, 64662, Note_on_c, 0, 60, 33
2, 64663, Note_on_c, 0, 64, 29
2, 64666, Note_on_c, 0, 56, 33
2, 64769, Note_on_c, 0, 60, 0
2, 64771, Note_on_c, 0, 64, 0
2, 64773, Note_on_c, 0, 56, 0
2, 64796, Note_on_c, 0, 64, 34
2, 64801, Note_on_c, 0, 55, 35
2, 64803, Note_on_c, 0, 60, 31
2, 64919, Note_on_c, 0, 60, 0
2, 64922, Control_c, 0, 64, 127
2, 65006, Note_on_c, 0, 60, 29
2, 65025, Control_c, 0, 64, 0
2, 65039, Note_on_c, 0, 64, 0
2, 65044, Note_on_c, 0, 81, 110
2, 65064, Note_on_c, 0, 55, 0
2, 65082, Note_on_c, 0, 83, 81
2, 65093, Note_on_c, 0, 60, 0
2, 65094, Note_on_c, 0, 81, 0
2, 65113, Note_on_c, 0, 83, 0
2, 65122, Note_on_c, 0, 84, 77
2, 65152, Note_on_c, 0, 84, 0
2, 65152, Note_on_c, 0, 60, 35
2, 65153, Note_on_c, 0, 64, 36
2, 65153, Note_on_c, 0, 54, 42
2, 65164, Note_on_c, 0, 76, 55
2, 65243, Note_on_c, 0, 76, 0
2, 65283, Note_on_c, 0, 76, 64
2, 65356, Note_on_c, 0, 76, 0
2, 65368, Note_on_c, 0, 64, 0
2, 65370, Note_on_c, 0, 60, 0
2, 65404, Note_on_c, 0, 76, 84
2, 65410, Note_on_c, 0, 64, 22
2, 65414, Note_on_c, 0, 60, 32
2, 65463, Control_c, 0, 64, 127
2, 65472, Note_on_c, 0, 64, 0
2, 65481, Note_on_c, 0, 74, 59
2, 65491, Note_on_c, 0, 76, 0
2, 65494, Note_on_c, 0, 60, 0
2, 65507, Note_on_c, 0, 54, 0
2, 65514, Control_c, 0, 64, 0
2, 65519, Note_on_c, 0, 74, 0
2, 65531, Note_on_c, 0, 72, 37
2, 65538, Control_c, 0, 64, 127
2, 65572, Note_on_c, 0, 72, 0
2, 65600, Note_on_c, 0, 70, 62
2, 65603, Control_c, 0, 64, 0
2, 65606, Note_on_c, 0, 62, 37
2, 65606, Note_on_c, 0, 60, 41
2, 65607, Note_on_c, 0, 56, 32
2, 65609, Note_on_c, 0, 53, 32
2, 65638, Note_on_c, 0, 70, 0
2, 65665, Note_on_c, 0, 68, 25
2, 65730, Note_on_c, 0, 68, 0
2, 65762, Note_on_c, 0, 60, 0
2, 65765, Note_on_c, 0, 62, 0
2, 65765, Note_on_c, 0, 56, 0
2, 65768, Note_on_c, 0, 67, 92
2, 65770, Note_on_c, 0, 53, 0
2, 65819, Note_on_c, 0, 67, 0
2, 65838, Note_on_c, 0, 68, 55
2, 65855, Note_on_c, 0, 67, 57
2, 65871, Note_on_c, 0, 68, 0
2, 65891, Note_on_c, 0, 67, 0
2, 65892, Note_on_c, 0, 65, 36
2, 65947, Note_on_c, 0, 65, 0
2, 65967, Note_on_c, 0, 62, 52
2, 65968, Note_on_c, 0, 64, 47
2, 65972, Note_on_c, 0, 60, 40
2, 65976, Note_on_c, 0, 62, 0
2, 65976, Note_on_c, 0, 56, 25
2, 65985, Note_on_c, 0, 60, 0
2, 65996, Note_on_c, 0, 64, 0
2, 65999, Note_on_c, 0, 56, 0
2, 66021, Note_on_c, 0, 65, 64
2, 66022, Note_on_c, 0, 66, 45
2, 66071, Note_on_c, 0, 66, 0
2, 66071, Note_on_c, 0, 65, 0
2, 66090, Note_on_c, 0, 66, 73
2, 66093, Note_on_c, 0, 62, 62
2, 66094, Note_on_c, 0, 59, 58
2, 66096, Note_on_c, 0, 55, 57
2, 66097, Note_on_c, 0, 52, 35
2, 66101, Note_on_c, 0, 62, 0
2, 66109, Note_on_c, 0, 52, 0
2, 66113, Note_on_c, 0, 59, 0
2, 66118, Note_on_c, 0, 55, 0
2, 66134, Note_on_c, 0, 66, 0
2, 66143, Note_on_c, 0, 67, 58
2, 66206, Note_on_c, 0, 67, 0
2, 66218, Note_on_c, 0, 64, 58
2, 66236, Note_on_c, 0, 64, 0
2, 66260, Note_on_c, 0, 67, 65
2, 66276, Note_on_c, 0, 67, 0
2, 66328, Note_on_c, 0, 72, 77
2, 66344, Note_on_c, 0, 72, 0
2, 66373, Note_on_c, 0, 76, 71
2, 66395, Note_on_c, 0, 76, 0
2, 66444, Note_on_c, 0, 79, 87
2, 66448, Note_on_c, 0, 62, 63
2, 66449, Note_on_c, 0, 67, 72
2, 66449, Note_on_c, 0, 56, 58
2, 66459, Note_on_c, 0, 67, 0
2, 66464, Note_on_c, 0, 62, 0
2, 66468, Note_on_c, 0, 79, 0
2, 66468, Note_on_c, 0, 56, 0
2, 66492, Note_on_c, 0, 74, 87
2, 66494, Note_on_c, 0, 79, 48
2, 66497, Note_on_c, 0, 67, 66
2, 66497, Note_on_c, 0, 62, 65
2, 66498, Note_on_c, 0, 56, 57
2, 66500, Note_on_c, 0, 75, 56
2, 66539, Note_on_c, 0, 74, 0
2, 66543, Note_on_c, 0, 76, 44
2, 66548, Note_on_c, 0, 75, 0
2, 66550, Note_on_c, 0, 62, 0
2, 66553, Note_on_c, 0, 67, 0
2, 66571, Note_on_c, 0, 79, 0
2, 66573, Note_on_c, 0, 76, 0
2, 66575, Note_on_c, 0, 56, 0
2, 66686, Note_on_c, 0, 64, 51
2, 66690, Note_on_c, 0, 57, 42
2, 66690, Note_on_c, 0, 60, 39
2, 66701, Note_on_c, 0, 60, 0
2, 66704, Note_on_c, 0, 64, 0
2, 66708, Note_on_c, 0, 57, 0
2, 66774, Note_on_c, 0, 74, 80
2, 66802, Note_on_c, 0, 74, 0
2, 66812, Note_on_c, 0, 72, 74
2, 66846, Note_on_c, 0, 72, 0
2, 66852, Note_on_c, 0, 56, 30
2, 66853, Note_on_c, 0, 64, 30
2, 66857, Note_on_c, 0, 71, 49
2, 66863, Note_on_c, 0, 60, 27
2, 66908, Note_on_c, 0, 71, 0
2, 66911, Note_on_c, 0, 64, 0
2, 66912, Note_on_c, 0, 60, 0
2, 66923, Note_on_c, 0, 56, 0
2, 67037, Control_c, 0, 64, 127
2, 67063, Control_c, 0, 64, 0
2, 67116, Control_c, 0, 64, 127
2, 67164, Note_on_c, 0, 54, 37
2, 67164, Note_on_c, 0, 60, 48
2, 67165, Note_on_c, 0, 64, 34
2, 67174, Note_on_c, 0, 60, 0
2, 67176, Note_on_c, 0, 64, 0
2, 67176, Note_on_c, 0, 54, 0
2, 67186, Control_c, 0, 64, 0
2, 67212, Note_on_c, 0, 81, 88
2, 67239, Note_on_c, 0, 81, 0
2, 67251, Note_on_c, 0, 79, 69
2, 67283, Note_on_c, 0, 79, 0
2, 67289, Note_on_c, 0, 78, 67
2, 67294, Note_on_c, 0, 64, 38
2, 67295, Note_on_c, 0, 60, 43
2, 67298, Note_on_c, 0, 54, 25
2, 67305, Note_on_c, 0, 64, 0
2, 67306, Note_on_c, 0, 60, 0
2, 67309, Note_on_c, 0, 78, 0
2, 67310, Note_on_c, 0, 54, 0
2, 67382, Note_on_c, 0, 86, 73
2, 67387, Note_on_c, 0, 84, 36
2, 67396, Note_on_c, 0, 84, 0
2, 67407, Note_on_c, 0, 86, 0
2, 67418, Note_on_c, 0, 84, 74
2, 67428, Note_on_c, 0, 64, 43
2, 67428, Note_on_c, 0, 60, 55
2, 67432, Note_on_c, 0, 54, 32
2, 67444, Note_on_c, 0, 64, 0
2, 67450, Note_on_c, 0, 84, 0
2, 67451, Note_on_c, 0, 60, 0
2, 67451, Note_on_c, 0, 54, 0
2, 67458, Note_on_c, 0, 83, 59
2, 67483, Note_on_c, 0, 83, 0
2, 67568, Note_on_c, 0, 65, 46
2, 67571, Note_on_c, 0, 60, 47
2, 67571, Note_on_c, 0, 54, 26
2, 67574, Note_on_c, 0, 58, 39
2, 67595, Note_on_c, 0, 65, 0
2, 67598, Note_on_c, 0, 60, 0
2, 67605, Note_on_c, 0, 54, 0
2, 67605, Note_on_c, 0, 58, 0
2, 67694, Control_c, 0, 64, 127
2, 67773, Note_on_c, 0, 65, 62
2, 67774, Note_on_c, 0, 54, 47
2, 67776, Note_on_c, 0, 60, 60
2, 67776, Note_on_c, 0, 58, 47
2, 67779, Control_c, 0, 64, 0
2, 67786, Note_on_c, 0, 65, 0
2, 67789, Note_on_c, 0, 54, 0
2, 67789, Note_on_c, 0, 60, 0
2, 67805, Note_on_c, 0, 58, 0
2, 67814, Note_on_c, 0, 86, 103
2, 67815, Note_on_c, 0, 74, 96
2, 67839, Control_c, 0, 64, 127
2, 67848, Note_on_c, 0, 85, 42
2, 67850, Note_on_c, 0, 86, 0
2, 67858, Note_on_c, 0, 74, 0
2, 67860, Note_on_c, 0, 85, 0
2, 67892, Note_on_c, 0, 87, 83
2, 67893, Note_on_c, 0, 75, 90
2, 67895, Note_on_c, 0, 58, 64
2, 67896, Note_on_c, 0, 54, 67
2, 67896, Note_on_c, 0, 65, 74
2, 67898, Note_on_c, 0, 60, 66
2, 67899, Note_on_c, 0, 85, 53
2, 67904, Control_c, 0, 64, 0
2, 67917, Note_on_c, 0, 65, 0
2, 67920, Note_on_c, 0, 75, 0
2, 67921, Note_on_c, 0, 87, 0
2, 67926, Note_on_c, 0, 85, 0
2, 67940, Note_on_c, 0, 88, 67
2, 67940, Note_on_c, 0, 76, 64
2, 67959, Note_on_c, 0, 76, 0
2, 67962, Note_on_c, 0, 88, 0
2, 67964, Note_on_c, 0, 60, 0
2, 67969, Note_on_c, 0, 54, 0
2, 67973, Note_on_c, 0, 58, 0
2, 68015, Note_on_c, 0, 54, 61
2, 68016, Note_on_c, 0, 93, 95
2, 68016, Note_on_c, 0, 81, 90
2, 68019, Note_on_c, 0, 58, 51
2, 68019, Note_on_c, 0, 65, 60
2, 68020, Control_c, 0, 64, 127
2, 68024, Note_on_c, 0, 60, 42
2, 68028, Note_on_c, 0, 65, 0
2, 68032, Note_on_c, 0, 81, 0
2, 68034, Note_on_c, 0, 60, 0
2, 68038, Note_on_c, 0, 93, 0
2, 68041, Control_c, 0, 64, 0
2, 68042, Note_on_c, 0, 54, 0
2, 68046, Note_on_c, 0, 58, 0
2, 68066, Note_on_c, 0, 60, 60
2, 68066, Note_on_c, 0, 55, 66
2, 68066, Note_on_c, 0, 91, 79
2, 68067, Note_on_c, 0, 64, 59
2, 68068, Note_on_c, 0, 79, 60
2, 68076, Note_on_c, 0, 64, 0
2, 68077, Note_on_c, 0, 60, 0
2, 68078, Note_on_c, 0, 55, 0
2, 68082, Note_on_c, 0, 79, 0
2, 68084, Note_on_c, 0, 91, 0
2, 68179, Note_on_c, 0, 87, 77
2, 68180, Note_on_c, 0, 75, 69
2, 68181, Note_on_c, 0, 64, 65
2, 68183, Note_on_c, 0, 55, 66
2, 68185, Note_on_c, 0, 60, 44
2, 68234, Note_on_c, 0, 75, 0
2, 68236, Note_on_c, 0, 76, 48
2, 68238, Note_on_c, 0, 87, 0
2, 68251, Note_on_c, 0, 55, 0
2, 68253, Note_on_c, 0, 60, 0
2, 68260, Note_on_c, 0, 64, 0
2, 68264, Note_on_c, 0, 76, 0
2, 68309, Note_on_c, 0, 84, 66
2, 68309, Note_on_c, 0, 72, 55
2, 68312, Note_on_c, 0, 64, 39
2, 68313, Note_on_c, 0, 55, 42
2, 68316, Note_on_c, 0, 60, 41
2, 68354, Note_on_c, 0, 84, 0
2, 68359, Note_on_c, 0, 55, 0
2, 68359, Note_on_c, 0, 60, 0
2, 68364, Note_on_c, 0, 64, 0
2, 68366, Note_on_c, 0, 72, 0
2, 68424, Control_c, 0, 64, 127
2, 68523, Control_c, 0, 64, 0
2, 68531, Note_on_c, 0, 55, 32
2, 68531, Note_on_c, 0, 57, 36
2, 68538, Note_on_c, 0, 65, 30
2, 68540, Note_on_c, 0, 60, 38
2, 68696, Note_on_c, 0, 60, 0
2, 68725, Note_on_c, 0, 60, 34
2, 68766, Note_on_c, 0, 79, 85
2, 68796, Note_on_c, 0, 79, 0
2, 68807, Note_on_c, 0, 77, 63
2, 68811, Note_on_c, 0, 65, 0
2, 68820, Note_on_c, 0, 60, 0
2, 68829, Note_on_c, 0, 77, 0
2, 68851, Note_on_c, 0, 79, 87
2, 68857, Note_on_c, 0, 65, 48
2, 68858, Note_on_c, 0, 60, 43
2, 68890, Note_on_c, 0, 79, 0
2, 68896, Note_on_c, 0, 77, 66
2, 68902, Note_on_c, 0, 65, 0
2, 68913, Control_c, 0, 64, 127
2, 68921, Note_on_c, 0, 55, 0
2, 68922, Control_c, 0, 64, 0
2, 68925, Note_on_c, 0, 60, 0
2, 68927, Note_on_c, 0, 57, 0
2, 68937, Note_on_c, 0, 76, 60
2, 68938, Note_on_c, 0, 77, 0
2, 68965, Note_on_c, 0, 76, 0
2, 68980, Note_on_c, 0, 72, 53
2, 68997, Note_on_c, 0, 55, 35
2, 69002, Note_on_c, 0, 60, 32
2, 69004, Note_on_c, 0, 64, 15
2, 69015, Note_on_c, 0, 72, 0
2, 69026, Note_on_c, 0, 67, 39
2, 69054, Note_on_c, 0, 64, 0
2, 69062, Note_on_c, 0, 67, 0
2, 69074, Note_on_c, 0, 65, 51
2, 69113, Note_on_c, 0, 65, 0
2, 69125, Note_on_c, 0, 64, 42
2, 69199, Control_c, 0, 64, 127
2, 69272, Note_on_c, 0, 60, 0
2, 69301, Note_on_c, 0, 55, 0
2, 69305, Note_on_c, 0, 64, 0
2, 69332, Note_on_c, 0, 55, 50
2, 69337, Note_on_c, 0, 60, 44
2, 69338, Note_on_c, 0, 64, 33
2, 69351, Note_on_c, 0, 64, 0
2, 69355, Note_on_c, 0, 60, 0
2, 69368, Note_on_c, 0, 55, 0
2, 69444, Note_on_c, 0, 57, 63
2, 69445, Note_on_c, 0, 62, 53
2, 69447, Note_on_c, 0, 58, 42
2, 69459, Control_c, 0, 64, 0
2, 69564, Note_on_c, 0, 69, 92
2, 69597, Note_on_c, 0, 69, 0
2, 69608, Note_on_c, 0, 62, 0
2, 69612, Note_on_c, 0, 57, 0
2, 69618, Note_on_c, 0, 66, 33
2, 69621, Note_on_c, 0, 58, 0
2, 69670, Note_on_c, 0, 66, 0
2, 69680, Note_on_c, 0, 67, 71
2, 69685, Note_on_c, 0, 58, 50
2, 69687, Note_on_c, 0, 60, 54
2, 69699, Note_on_c, 0, 60, 0
2, 69708, Note_on_c, 0, 58, 0
2, 69742, Note_on_c, 0, 69, 56
2, 69754, Note_on_c, 0, 67, 0
2, 69787, Note_on_c, 0, 69, 0
2, 69801, Note_on_c, 0, 70, 62
2, 69812, Note_on_c, 0, 58, 42
2, 69816, Note_on_c, 0, 60, 33
2, 69826, Note_on_c, 0, 60, 0
2, 69833, Note_on_c, 0, 58, 0
2, 69839, Note_on_c, 0, 70, 0
2, 69857, Note_on_c, 0, 72, 50
2, 69903, Note_on_c, 0, 72, 0
2, 69919, Control_c, 0, 64, 127
2, 69924, Note_on_c, 0, 74, 75
2, 69954, Note_on_c, 0, 74, 0
2, 69964, Control_c, 0, 64, 0
2, 69975, Note_on_c, 0, 62, 32
2, 69981, Note_on_c, 0, 59, 31
2, 69982, Note_on_c, 0, 75, 35
2, 69983, Note_on_c, 0, 56, 25
2, 69985, Note_on_c, 0, 53, 38
2, 70031, Note_on_c, 0, 75, 0
2, 70047, Note_on_c, 0, 76, 69
2, 70075, Note_on_c, 0, 76, 0
2, 70096, Note_on_c, 0, 79, 87
2, 70141, Note_on_c, 0, 62, 0
2, 70159, Note_on_c, 0, 79, 0
2, 70178, Note_on_c, 0, 76, 40
2, 70201, Note_on_c, 0, 76, 0
2, 70203, Note_on_c, 0, 59, 0
2, 70216, Note_on_c, 0, 56, 0
2, 70222, Note_on_c, 0, 77, 78
2, 70229, Note_on_c, 0, 53, 0
2, 70415, Control_c, 0, 64, 127
2, 70448, Control_c, 0, 64, 0
2, 70540, Note_on_c, 0, 64, 53
2, 70540, Note_on_c, 0, 57, 54
2, 70544, Note_on_c, 0, 60, 34
2, 70549, Note_on_c, 0, 64, 0
2, 70552, Note_on_c, 0, 57, 0
2, 70553, Note_on_c, 0, 60, 0
2, 70578, Note_on_c, 0, 76, 64
2, 70590, Note_on_c, 0, 77, 0
2, 70647, Note_on_c, 0, 76, 0
2, 70658, Note_on_c, 0, 72, 44
2, 70663, Note_on_c, 0, 63, 25
2, 70672, Note_on_c, 0, 63, 0
2, 70683, Note_on_c, 0, 72, 0
2, 70698, Note_on_c, 0, 75, 73
2, 70762, Note_on_c, 0, 75, 0
2, 70788, Note_on_c, 0, 63, 30
2, 70799, Note_on_c, 0, 63, 0
2, 70819, Note_on_c, 0, 74, 77
2, 70895, Note_on_c, 0, 74, 0
2, 70896, Note_on_c, 0, 73, 37
2, 70897, Note_on_c, 0, 65, 49
2, 70901, Note_on_c, 0, 62, 39
2, 70907, Note_on_c, 0, 57, 24
2, 70917, Note_on_c, 0, 62, 0
2, 70918, Note_on_c, 0, 65, 0
2, 70922, Note_on_c, 0, 57, 0
2, 70938, Note_on_c, 0, 73, 0
2, 70954, Note_on_c, 0, 72, 52
2, 71014, Note_on_c, 0, 72, 0
2, 71055, Note_on_c, 0, 69, 46
2, 71130, Note_on_c, 0, 77, 65
2, 71135, Note_on_c, 0, 65, 44
2, 71139, Note_on_c, 0, 62, 35
2, 71143, Note_on_c, 0, 69, 0
2, 71144, Note_on_c, 0, 57, 38
2, 71186, Note_on_c, 0, 77, 0
2, 71199, Note_on_c, 0, 57, 0
2, 71201, Note_on_c, 0, 65, 0
2, 71204, Note_on_c, 0, 62, 0
2, 71208, Note_on_c, 0, 76, 56
2, 71261, Note_on_c, 0, 57, 20
2, 71270, Note_on_c, 0, 76, 0
2, 71278, Note_on_c, 0, 57, 0
2, 71291, Note_on_c, 0, 69, 51
2, 71334, Control_c, 0, 64, 127
2, 71347, Note_on_c, 0, 69, 0
2, 71373, Note_on_c, 0, 65, 45
2, 71374, Note_on_c, 0, 62, 46
2, 71375, Control_c, 0, 64, 0
2, 71375, Note_on_c, 0, 83, 80
2, 71384, Note_on_c, 0, 65, 0
2, 71387, Note_on_c, 0, 62, 0
2, 71440, Note_on_c, 0, 83, 0
2, 71455, Note_on_c, 0, 81, 55
2, 71499, Note_on_c, 0, 81, 0
2, 71532, Note_on_c, 0, 80, 49
2, 71533, Control_c, 0, 64, 127
2, 71585, Note_on_c, 0, 80, 0
2, 71601, Control_c, 0, 64, 0
2, 71605, Note_on_c, 0, 77, 51
2, 71606, Note_on_c, 0, 62, 48
2, 71606, Note_on_c, 0, 65, 48
2, 71618, Note_on_c, 0, 65, 0
2, 71622, Note_on_c, 0, 62, 0
2, 71673, Note_on_c, 0, 77, 0
2, 71686, Note_on_c, 0, 76, 38
2, 71753, Note_on_c, 0, 76, 0
2, 71767, Note_on_c, 0, 74, 40
2, 71808, Control_c, 0, 64, 127
2, 71836, Note_on_c, 0, 74, 0
2, 71845, Note_on_c, 0, 72, 34
2, 71847, Note_on_c, 0, 64, 32
2, 71849, Control_c, 0, 64, 0
2, 71850, Note_on_c, 0, 57, 33
2, 71853, Note_on_c, 0, 60, 39
2, 71856, Note_on_c, 0, 59, 32
2, 71895, Note_on_c, 0, 72, 0
2, 71910, Note_on_c, 0, 71, 38
2, 72066, Note_on_c, 0, 72, 62
2, 72075, Note_on_c, 0, 71, 0
2, 72103, Note_on_c, 0, 73, 71
2, 72113, Note_on_c, 0, 72, 0
2, 72126, Note_on_c, 0, 59, 0
2, 72129, Note_on_c, 0, 57, 0
2, 72133, Note_on_c, 0, 64, 0
2, 72134, Note_on_c, 0, 73, 0
2, 72135, Note_on_c, 0, 60, 0
2, 72143, Note_on_c, 0, 74, 80
2, 72270, Note_on_c, 0, 73, 37
2, 72279, Note_on_c, 0, 74, 0
2, 72298, Note_on_c, 0, 73, 0
2, 72305, Note_on_c, 0, 72, 59
2, 72339, Note_on_c, 0, 71, 71
2, 72340, Note_on_c, 0, 72, 0
2, 72340, Note_on_c, 0, 64, 48
2, 72347, Note_on_c, 0, 60, 42
2, 72352, Note_on_c, 0, 59, 24
2, 72355, Note_on_c, 0, 57, 28
2, 72361, Note_on_c, 0, 60, 0
2, 72362, Note_on_c, 0, 64, 0
2, 72363, Note_on_c, 0, 59, 0
2, 72370, Note_on_c, 0, 57, 0
2, 72413, Note_on_c, 0, 72, 57
2, 72425, Note_on_c, 0, 71, 0
2, 72449, Note_on_c, 0, 73, 62
2, 72467, Note_on_c, 0, 72, 0
2, 72480, Note_on_c, 0, 73, 0
2, 72503, Note_on_c, 0, 74, 77
2, 72503, Note_on_c, 0, 56, 55
2, 72503, Note_on_c, 0, 64, 64
2, 72503, Note_on_c, 0, 60, 44
2, 72600, Note_on_c, 0, 60, 0
2, 72632, Note_on_c, 0, 64, 0
2, 72649, Note_on_c, 0, 56, 0
2, 72655, Note_on_c, 0, 73, 31
2, 72663, Note_on_c, 0, 74, 0
2, 72675, Note_on_c, 0, 72, 57
2, 72703, Note_on_c, 0, 73, 0
2, 72710, Note_on_c, 0, 72, 0
2, 72714, Note_on_c, 0, 71, 62
2, 72715, Note_on_c, 0, 64, 32
2, 72717, Note_on_c, 0, 60, 31
2, 72722, Note_on_c, 0, 55, 36
2, 72781, Note_on_c, 0, 72, 43
2, 72788, Note_on_c, 0, 64, 0
2, 72796, Note_on_c, 0, 60, 0
2, 72797, Note_on_c, 0, 55, 0
2, 72803, Note_on_c, 0, 71, 0
2, 72811, Note_on_c, 0, 73, 48
2, 72829, Note_on_c, 0, 72, 0
2, 72839, Note_on_c, 0, 73, 0
2, 72845, Note_on_c, 0, 74, 85
2, 72946, Note_on_c, 0, 74, 0
2, 72959, Note_on_c, 0, 64, 24
2, 72964, Note_on_c, 0, 54, 19
2, 72968, Note_on_c, 0, 60, 27
2, 72970, Note_on_c, 0, 72, 41
2, 72979, Note_on_c, 0, 64, 0
2, 72985, Note_on_c, 0, 60, 0
2, 72988, Note_on_c, 0, 54, 0
2, 73046, Note_on_c, 0, 69, 54
2, 73050, Note_on_c, 0, 72, 0
2, 73085, Note_on_c, 0, 69, 0
2, 73103, Note_on_c, 0, 64, 34
2, 73146, Note_on_c, 0, 64, 0
2, 73173, Note_on_c, 0, 64, 46
2, 73178, Note_on_c, 0, 54, 32
2, 73185, Note_on_c, 0, 64, 0
2, 73232, Note_on_c, 0, 54, 0
2, 73233, Control_c, 0, 64, 127
2, 73290, Control_c, 0, 64, 0
2, 73292, Note_on_c, 0, 56, 31
2, 73295, Note_on_c, 0, 62, 24
2, 73297, Note_on_c, 0, 60, 30
2, 73315, Note_on_c, 0, 60, 0
2, 73315, Note_on_c, 0, 62, 0
2, 73326, Note_on_c, 0, 56, 0
2, 73437, Control_c, 0, 64, 127
2, 73523, Note_on_c, 0, 64, 49
2, 73526, Note_on_c, 0, 56, 34
2, 73529, Note_on_c, 0, 60, 36
2, 73533, Note_on_c, 0, 64, 0
2, 73540, Note_on_c, 0, 60, 0
2, 73543, Control_c, 0, 64, 0
2, 73555, Note_on_c, 0, 56, 0
2, 73593, Note_on_c, 0, 87, 29
2, 73595, Note_on_c, 0, 75, 72
2, 73598, Note_on_c, 0, 88, 59
2, 73611, Note_on_c, 0, 87, 0
2, 73620, Note_on_c, 0, 75, 0
2, 73621, Note_on_c, 0, 76, 58
2, 73644, Note_on_c, 0, 76, 0
2, 73651, Note_on_c, 0, 88, 0
2, 73687, Note_on_c, 0, 90, 70
2, 73688, Note_on_c, 0, 78, 74
2, 73704, Note_on_c, 0, 91, 50
2, 73711, Note_on_c, 0, 89, 36
2, 73713, Note_on_c, 0, 78, 0
2, 73713, Note_on_c, 0, 79, 65
2, 73738, Note_on_c, 0, 91, 0
2, 73742, Note_on_c, 0, 79, 0
2, 73743, Note_on_c, 0, 90, 0
2, 73745, Note_on_c, 0, 89, 0
2, 73765, Note_on_c, 0, 62, 50
2, 73773, Note_on_c, 0, 59, 30
2, 73776, Note_on_c, 0, 62, 0
2, 73777, Note_on_c, 0, 55, 35
2, 73779, Note_on_c, 0, 87, 54
2, 73780, Note_on_c, 0, 73, 42
2, 73787, Note_on_c, 0, 87, 0
2, 73787, Note_on_c, 0, 85, 31
2, 73788, Note_on_c, 0, 59, 0
2, 73792, Note_on_c, 0, 55, 0
2, 73793, Note_on_c, 0, 86, 66
2, 73805, Note_on_c, 0, 74, 68
2, 73806, Note_on_c, 0, 73, 0
2, 73829, Note_on_c, 0, 86, 0
2, 73831, Note_on_c, 0, 85, 0
2, 73833, Note_on_c, 0, 74, 0
2, 73867, Note_on_c, 0, 70, 57
2, 73869, Note_on_c, 0, 82, 37
2, 73884, Note_on_c, 0, 70, 0
2, 73885, Note_on_c, 0, 83, 36
2, 73890, Note_on_c, 0, 71, 32
2, 73912, Note_on_c, 0, 83, 0
2, 73913, Note_on_c, 0, 71, 0
2, 73915, Note_on_c, 0, 82, 0
2, 73952, Note_on_c, 0, 66, 47
2, 73953, Note_on_c, 0, 78, 29
2, 73965, Note_on_c, 0, 79, 39
2, 73971, Note_on_c, 0, 66, 0
2, 73977, Note_on_c, 0, 67, 51
2, 73987, Note_on_c, 0, 78, 0
2, 74002, Note_on_c, 0, 79, 0
2, 74012, Note_on_c, 0, 67, 0
2, 74126, Note_on_c, 0, 62, 48
2, 74132, Note_on_c, 0, 55, 34
2, 74138, Note_on_c, 0, 62, 0
2, 74138, Note_on_c, 0, 59, 17
2, 74146, Note_on_c, 0, 55, 0
2, 74150, Note_on_c, 0, 59, 0
2, 74282, Note_on_c, 0, 64, 31
2, 74285, Note_on_c, 0, 56, 38
2, 74291, Note_on_c, 0, 60, 40
2, 74304, Note_on_c, 0, 60, 0
2, 74305, Note_on_c, 0, 64, 0
2, 74314, Note_on_c, 0, 56, 0
2, 74415, Note_on_c, 0, 78, 67
2, 74417, Note_on_c, 0, 68, 70
2, 74419, Note_on_c, 0, 79, 75
2, 74448, Note_on_c, 0, 79, 0
2, 74455, Note_on_c, 0, 78, 0
2, 74461, Note_on_c, 0, 68, 0
2, 74495, Note_on_c, 0, 81, 79
2, 74495, Note_on_c, 0, 69, 87
2, 74499, Note_on_c, 0, 64, 71
2, 74499, Note_on_c, 0, 80, 55
2, 74500, Note_on_c, 0, 60, 63
2, 74502, Note_on_c, 0, 56, 42
2, 74519, Note_on_c, 0, 64, 0
2, 74526, Note_on_c, 0, 69, 0
2, 74529, Note_on_c, 0, 81, 0
2, 74535, Note_on_c, 0, 80, 0
2, 74536, Note_on_c, 0, 56, 0
2, 74537, Note_on_c, 0, 60, 0
2, 74561, Note_on_c, 0, 82, 69
2, 74563, Note_on_c, 0, 70, 67
2, 74577, Note_on_c, 0, 76, 25
2, 74579, Note_on_c, 0, 83, 66
2, 74581, Note_on_c, 0, 82, 0
2, 74582, Note_on_c, 0, 70, 0
2, 74583, Note_on_c, 0, 71, 68
2, 74584, Note_on_c, 0, 81, 51
2, 74595, Note_on_c, 0, 81, 0
2, 74597, Control_c, 0, 64, 127
2, 74605, Control_c, 0, 64, 0
2, 74606, Note_on_c, 0, 71, 0
2, 74611, Note_on_c, 0, 76, 0
2, 74616, Note_on_c, 0, 83, 0
2, 74623, Note_on_c, 0, 64, 49
2, 74625, Note_on_c, 0, 56, 34
2, 74632, Note_on_c, 0, 64, 0
2, 74655, Note_on_c, 0, 56, 0
2, 74660, Note_on_c, 0, 72, 68
2, 74660, Note_on_c, 0, 84, 68
2, 74678, Note_on_c, 0, 84, 0
2, 74678, Note_on_c, 0, 72, 0
2, 74734, Note_on_c, 0, 85, 80
2, 74735, Note_on_c, 0, 73, 67
2, 74736, Note_on_c, 0, 60, 64
2, 74739, Note_on_c, 0, 57, 45
2, 74743, Note_on_c, 0, 53, 54
2, 74755, Note_on_c, 0, 60, 0
2, 74761, Note_on_c, 0, 73, 0
2, 74770, Note_on_c, 0, 85, 0
2, 74772, Note_on_c, 0, 57, 0
2, 74795, Note_on_c, 0, 53, 0
2, 74806, Note_on_c, 0, 85, 42
2, 74808, Note_on_c, 0, 73, 38
2, 74815, Note_on_c, 0, 86, 68
2, 74816, Note_on_c, 0, 73, 0
2, 74819, Note_on_c, 0, 80, 18
2, 74823, Note_on_c, 0, 74, 47
2, 74825, Note_on_c, 0, 85, 0
2, 74848, Note_on_c, 0, 86, 0
2, 74853, Note_on_c, 0, 80, 0
2, 74854, Note_on_c, 0, 74, 0
2, 74969, Note_on_c, 0, 60, 45
2, 74971, Note_on_c, 0, 57, 38
2, 74974, Note_on_c, 0, 53, 34
2, 74979, Note_on_c, 0, 60, 0
2, 74988, Note_on_c, 0, 53, 0
2, 74988, Note_on_c, 0, 57, 0
2, 75040, Note_on_c, 0, 81, 58
2, 75051, Note_on_c, 0, 82, 45
2, 75083, Note_on_c, 0, 81, 0
2, 75083, Note_on_c, 0, 83, 34
2, 75085, Note_on_c, 0, 82, 0
2, 75100, Note_on_c, 0, 83, 0
2, 75136, Note_on_c, 0, 81, 73
2, 75177, Note_on_c, 0, 81, 0
2, 75211, Note_on_c, 0, 79, 59
2, 75214, Note_on_c, 0, 64, 48
2, 75221, Note_on_c, 0, 59, 44
2, 75226, Note_on_c, 0, 53, 18
2, 75235, Note_on_c, 0, 59, 0
2, 75238, Note_on_c, 0, 64, 0
2, 75243, Note_on_c, 0, 79, 0
2, 75243, Note_on_c, 0, 53, 0
2, 75276, Note_on_c, 0, 74, 46
2, 75328, Note_on_c, 0, 74, 0
2, 75343, Note_on_c, 0, 74, 63
2, 75358, Note_on_c, 0, 74, 0
2, 75453, Note_on_c, 0, 56, 38
2, 75454, Note_on_c, 0, 62, 41
2, 75455, Note_on_c, 0, 60, 49
2, 75464, Note_on_c, 0, 62, 0
2, 75469, Note_on_c, 0, 60, 0
2, 75483, Note_on_c, 0, 56, 0
2, 75498, Note_on_c, 0, 75, 76
2, 75508, Note_on_c, 0, 76, 55
2, 75532, Note_on_c, 0, 76, 0
2, 75540, Note_on_c, 0, 75, 0
2, 75695, Note_on_c, 0, 59, 35
2, 75695, Note_on_c, 0, 62, 48
2, 75698, Note_on_c, 0, 55, 36
2, 75705, Note_on_c, 0, 62, 0
2, 75709, Note_on_c, 0, 59, 0
2, 75713, Note_on_c, 0, 55, 0
2, 75851, Control_c, 0, 64, 127
2, 75916, Note_on_c, 0, 55, 61
2, 75925, Note_on_c, 0, 55, 0
2, 75940, Control_c, 0, 64, 0
2, 75959, Note_on_c, 0, 70, 56
2, 75964, Note_on_c, 0, 58, 49
2, 76009, Note_on_c, 0, 70, 0
2, 76013, Control_c, 0, 64, 127
2, 76014, Note_on_c, 0, 58, 0
2, 76034, Note_on_c, 0, 59, 71
2, 76035, Note_on_c, 0, 71, 54
2, 76036, Note_on_c, 0, 55, 58
2, 76038, Note_on_c, 0, 52, 36
2, 76049, Note_on_c, 0, 55, 0
2, 76051, Note_on_c, 0, 52, 0
2, 76052, Note_on_c, 0, 59, 0
2, 76059, Note_on_c, 0, 71, 0
2, 76066, Control_c, 0, 64, 0
2, 76084, Note_on_c, 0, 74, 61
2, 76086, Note_on_c, 0, 60, 47
2, 76086, Note_on_c, 0, 72, 64
2, 76087, Note_on_c, 0, 62, 57
2, 76090, Control_c, 0, 64, 127
2, 76094, Note_on_c, 0, 60, 0
2, 76100, Note_on_c, 0, 62, 0
2, 76106, Note_on_c, 0, 72, 0
2, 76107, Note_on_c, 0, 74, 0
2, 76159, Note_on_c, 0, 76, 79
2, 76159, Note_on_c, 0, 64, 78
2, 76163, Note_on_c, 0, 57, 49
2, 76164, Note_on_c, 0, 55, 33
2, 76174, Note_on_c, 0, 55, 0
2, 76176, Note_on_c, 0, 64, 0
2, 76181, Note_on_c, 0, 76, 0
2, 76182, Note_on_c, 0, 57, 0
2, 76196, Control_c, 0, 64, 0
2, 76206, Note_on_c, 0, 57, 61
2, 76206, Note_on_c, 0, 55, 67
2, 76208, Note_on_c, 0, 64, 69
2, 76209, Note_on_c, 0, 60, 66
2, 76209, Note_on_c, 0, 79, 79
2, 76209, Note_on_c, 0, 67, 89
2, 76232, Control_c, 0, 64, 127
2, 76240, Note_on_c, 0, 64, 0
2, 76243, Note_on_c, 0, 79, 0
2, 76245, Note_on_c, 0, 67, 0
2, 76248, Note_on_c, 0, 55, 0
2, 76249, Note_on_c, 0, 57, 0
2, 76250, Note_on_c, 0, 60, 0
2, 76281, Note_on_c, 0, 80, 78
2, 76282, Note_on_c, 0, 55, 73
2, 76282, Note_on_c, 0, 68, 78
2, 76283, Note_on_c, 0, 64, 69
2, 76284, Note_on_c, 0, 57, 64
2, 76285, Note_on_c, 0, 60, 63
2, 76303, Note_on_c, 0, 64, 0
2, 76306, Note_on_c, 0, 55, 0
2, 76309, Note_on_c, 0, 60, 0
2, 76313, Note_on_c, 0, 68, 0
2, 76313, Note_on_c, 0, 57, 0
2, 76314, Note_on_c, 0, 80, 0
2, 76316, Control_c, 0, 64, 0
2, 76330, Note_on_c, 0, 64, 53
2, 76330, Note_on_c, 0, 60, 52
2, 76331, Note_on_c, 0, 81, 66
2, 76331, Note_on_c, 0, 69, 75
2, 76336, Note_on_c, 0, 55, 37
2, 76338, Note_on_c, 0, 57, 33
2, 76345, Note_on_c, 0, 64, 0
2, 76346, Note_on_c, 0, 55, 0
2, 76348, Note_on_c, 0, 57, 0
2, 76350, Note_on_c, 0, 60, 0
2, 76352, Note_on_c, 0, 69, 0
2, 76358, Note_on_c, 0, 81, 0
2, 76388, Control_c, 0, 64, 127
2, 76404, Note_on_c, 0, 56, 71
2, 76406, Note_on_c, 0, 64, 78
2, 76407, Note_on_c, 0, 82, 70
2, 76407, Note_on_c, 0, 60, 65
2, 76408, Note_on_c, 0, 70, 77
2, 76417, Note_on_c, 0, 80, 28
2, 76422, Control_c, 0, 64, 0
2, 76425, Note_on_c, 0, 64, 0
2, 76429, Note_on_c, 0, 70, 0
2, 76432, Note_on_c, 0, 82, 0
2, 76433, Note_on_c, 0, 60, 0
2, 76434, Note_on_c, 0, 56, 0
2, 76437, Note_on_c, 0, 80, 0
2, 76453, Note_on_c, 0, 83, 59
2, 76455, Note_on_c, 0, 71, 67
2, 76456, Control_c, 0, 64, 127
2, 76458, Note_on_c, 0, 55, 64
2, 76460, Note_on_c, 0, 60, 54
2, 76460, Note_on_c, 0, 64, 38
2, 76475, Note_on_c, 0, 64, 0
2, 76481, Note_on_c, 0, 71, 0
2, 76484, Note_on_c, 0, 60, 0
2, 76484, Note_on_c, 0, 55, 0
2, 76486, Note_on_c, 0, 83, 0
2, 76531, Note_on_c, 0, 84, 63
2, 76532, Note_on_c, 0, 72, 55
2, 76532, Note_on_c, 0, 60, 60
2, 76533, Note_on_c, 0, 64, 55
2, 76534, Note_on_c, 0, 55, 60
2, 76539, Note_on_c, 0, 84, 0
2, 76542, Note_on_c, 0, 64, 0
2, 76542, Note_on_c, 0, 72, 0
2, 76542, Note_on_c, 0, 60, 0
2, 76543, Note_on_c, 0, 55, 0
2, 76552, Control_c, 0, 64, 0
2, 76571, Note_on_c, 0, 85, 77
2, 76573, Note_on_c, 0, 73, 56
2, 76573, Note_on_c, 0, 64, 71
2, 76574, Note_on_c, 0, 55, 76
2, 76575, Note_on_c, 0, 60, 65
2, 76577, Control_c, 0, 64, 127
2, 76604, Note_on_c, 0, 55, 0
2, 76611, Note_on_c, 0, 73, 0
2, 76612, Note_on_c, 0, 64, 0
2, 76620, Note_on_c, 0, 60, 0
2, 76621, Note_on_c, 0, 85, 0
2, 76651, Note_on_c, 0, 86, 90
2, 76652, Note_on_c, 0, 74, 88
2, 76652, Note_on_c, 0, 82, 74
2, 76653, Note_on_c, 0, 54, 78
2, 76653, Note_on_c, 0, 65, 83
2, 76654, Note_on_c, 0, 58, 69
2, 76654, Note_on_c, 0, 60, 77
2, 76656, Control_c, 0, 64, 0
2, 76700, Control_c, 0, 64, 127
2, 76761, Note_on_c, 0, 74, 0
2, 76765, Note_on_c, 0, 82, 0
2, 76766, Note_on_c, 0, 86, 0
2, 76780, Note_on_c, 0, 65, 0
2, 76782, Note_on_c, 0, 58, 0
2, 76782, Note_on_c, 0, 60, 0
2, 76783, Note_on_c, 0, 54, 0
2, 76806, Control_c, 0, 64, 0
2, 76808, Note_on_c, 0, 89, 74
2, 76811, Note_on_c, 0, 54, 56
2, 76811, Note_on_c, 0, 77, 55
2, 76811, Note_on_c, 0, 65, 62
2, 76813, Note_on_c, 0, 58, 51
2, 76814, Note_on_c, 0, 60, 57
2, 76832, Control_c, 0, 64, 127
2, 76843, Note_on_c, 0, 89, 0
2, 76861, Note_on_c, 0, 77, 0
2, 76865, Note_on_c, 0, 65, 0
2, 76867, Note_on_c, 0, 54, 0
2, 76869, Note_on_c, 0, 60, 0
2, 76870, Note_on_c, 0, 58, 0
2, 76890, Note_on_c, 0, 86, 58
2, 76893, Note_on_c, 0, 74, 51
2, 76895, Control_c, 0, 64, 0
2, 76895, Note_on_c, 0, 54, 46
2, 76895, Note_on_c, 0, 65, 56
2, 76898, Note_on_c, 0, 58, 38
2, 76898, Note_on_c, 0, 60, 47
2, 76927, Note_on_c, 0, 74, 0
2, 76933, Control_c, 0, 64, 127
2, 76939, Note_on_c, 0, 65, 0
2, 76939, Note_on_c, 0, 86, 0
2, 76943, Note_on_c, 0, 60, 0
2, 76946, Note_on_c, 0, 54, 0
2, 76946, Note_on_c, 0, 58, 0
2, 76976, Note_on_c, 0, 89, 64
2, 76976, Note_on_c, 0, 54, 38
2, 76979, Note_on_c, 0, 65, 41
2, 76980, Note_on_c, 0, 77, 45
2, 76982, Note_on_c, 0, 58, 37
2, 76982, Note_on_c, 0, 60, 43
2, 77006, Note_on_c, 0, 89, 0
2, 77009, Note_on_c, 0, 65, 0
2, 77014, Note_on_c, 0, 77, 0
2, 77018, Note_on_c, 0, 60, 0
2, 77019, Note_on_c, 0, 58, 0
2, 77025, Note_on_c, 0, 54, 0
2, 77049, Control_c, 0, 64, 0
2, 77058, Note_on_c, 0, 54, 38
2, 77060, Note_on_c, 0, 65, 37
2, 77061, Note_on_c, 0, 74, 37
2, 77063, Control_c, 0, 64, 127
2, 77064, Note_on_c, 0, 86, 31
2, 77067, Note_on_c, 0, 58, 33
2, 77069, Note_on_c, 0, 60, 32
2, 77077, Note_on_c, 0, 65, 0
2, 77078, Note_on_c, 0, 74, 0
2, 77081, Note_on_c, 0, 60, 0
2, 77084, Note_on_c, 0, 86, 0
2, 77101, Note_on_c, 0, 58, 0
2, 77116, Note_on_c, 0, 54, 0
2, 77140, Note_on_c, 0, 64, 45
2, 77141, Note_on_c, 0, 88, 54
2, 77143, Note_on_c, 0, 59, 53
2, 77143, Note_on_c, 0, 53, 35
2, 77144, Note_on_c, 0, 81, 49
2, 77145, Control_c, 0, 64, 0
2, 77193, Control_c, 0, 64, 127
2, 77201, Note_on_c, 0, 64, 0
2, 77202, Note_on_c, 0, 59, 0
2, 77209, Note_on_c, 0, 81, 0
2, 77213, Note_on_c, 0, 88, 0
2, 77218, Note_on_c, 0, 85, 40
2, 77218, Note_on_c, 0, 76, 36
2, 77221, Note_on_c, 0, 64, 31
2, 77223, Note_on_c, 0, 59, 25
2, 77251, Note_on_c, 0, 59, 0
2, 77253, Note_on_c, 0, 85, 0
2, 77254, Note_on_c, 0, 64, 0
2, 77260, Note_on_c, 0, 76, 0
2, 77285, Note_on_c, 0, 53, 0
2, 77299, Control_c, 0, 64, 0
2, 77301, Note_on_c, 0, 62, 44
2, 77301, Note_on_c, 0, 53, 15
2, 77304, Note_on_c, 0, 83, 41
2, 77304, Note_on_c, 0, 56, 30
2, 77306, Note_on_c, 0, 76, 24
2, 77307, Note_on_c, 0, 80, 28
2, 77307, Note_on_c, 0, 59, 45
2, 77352, Control_c, 0, 64, 127
2, 77424, Note_on_c, 0, 62, 0
2, 77425, Note_on_c, 0, 59, 0
2, 77427, Note_on_c, 0, 83, 0
2, 77431, Note_on_c, 0, 56, 0
2, 77444, Note_on_c, 0, 80, 0
2, 77445, Note_on_c, 0, 53, 0
2, 77457, Note_on_c, 0, 76, 0
2, 77487, Note_on_c, 0, 62, 46
2, 77491, Note_on_c, 0, 59, 38
2, 77493, Note_on_c, 0, 56, 26
2, 77493, Note_on_c, 0, 53, 25
2, 77515, Note_on_c, 0, 62, 0
2, 77516, Note_on_c, 0, 59, 0
2, 77516, Note_on_c, 0, 53, 0
2, 77523, Note_on_c, 0, 56, 0
2, 77645, Note_on_c, 0, 62, 52
2, 77646, Control_c, 0, 64, 0
2, 77646, Note_on_c, 0, 58, 46
2, 77648, Note_on_c, 0, 72, 80
2, 77648, Note_on_c, 0, 60, 53
2, 77648, Note_on_c, 0, 69, 92
2, 77669, Note_on_c, 0, 62, 0
2, 77673, Note_on_c, 0, 60, 0
2, 77681, Note_on_c, 0, 69, 0
2, 77682, Note_on_c, 0, 58, 0
2, 77686, Note_on_c, 0, 72, 0
2, 77688, Note_on_c, 0, 65, 53
2, 77704, Note_on_c, 0, 65, 0
2, 77725, Note_on_c, 0, 69, 68
2, 77725, Note_on_c, 0, 72, 51
2, 77730, Note_on_c, 0, 62, 36
2, 77731, Note_on_c, 0, 58, 36
2, 77737, Note_on_c, 0, 60, 40
2, 77755, Note_on_c, 0, 60, 0
2, 77756, Note_on_c, 0, 72, 0
2, 77758, Note_on_c, 0, 69, 0
2, 77765, Note_on_c, 0, 62, 0
2, 77767, Note_on_c, 0, 65, 24
2, 77773, Note_on_c, 0, 58, 0
2, 77799, Note_on_c, 0, 65, 0
2, 77954, Note_on_c, 0, 62, 40
2, 77957, Note_on_c, 0, 58, 30
2, 77961, Note_on_c, 0, 60, 34
2, 77972, Note_on_c, 0, 60, 0
2, 77975, Note_on_c, 0, 62, 0
2, 77981, Note_on_c, 0, 58, 0
2, 78123, Control_c, 0, 64, 127
2, 78231, Control_c, 0, 64, 0
2, 78235, Note_on_c, 0, 80, 74
2, 78236, Note_on_c, 0, 58, 47
2, 78236, Note_on_c, 0, 61, 38
2, 78237, Note_on_c, 0, 64, 36
2, 78238, Note_on_c, 0, 73, 59
2, 78252, Note_on_c, 0, 64, 0
2, 78257, Note_on_c, 0, 73, 0
2, 78258, Note_on_c, 0, 61, 0
2, 78263, Note_on_c, 0, 80, 0
2, 78264, Note_on_c, 0, 58, 0
2, 78273, Note_on_c, 0, 68, 42
2, 78284, Note_on_c, 0, 77, 39
2, 78299, Note_on_c, 0, 68, 0
2, 78310, Note_on_c, 0, 77, 0
2, 78322, Note_on_c, 0, 80, 47
2, 78322, Note_on_c, 0, 73, 40
2, 78324, Note_on_c, 0, 58, 49
2, 78325, Note_on_c, 0, 64, 49
2, 78325, Note_on_c, 0, 61, 42
2, 78374, Note_on_c, 0, 61, 0
2, 78376, Note_on_c, 0, 73, 0
2, 78381, Note_on_c, 0, 64, 0
2, 78382, Note_on_c, 0, 58, 0
2, 78382, Note_on_c, 0, 80, 0
2, 78485, Note_on_c, 0, 61, 50
2, 78485, Note_on_c, 0, 84, 80
2, 78486, Note_on_c, 0, 64, 53
2, 78489, Note_on_c, 0, 58, 38
2, 78503, Note_on_c, 0, 64, 0
2, 78506, Note_on_c, 0, 58, 0
2, 78509, Note_on_c, 0, 61, 0
2, 78512, Note_on_c, 0, 84, 0
2, 78529, Note_on_c, 0, 80, 55
2, 78542, Control_c, 0, 64, 127
2, 78544, Note_on_c, 0, 58, 27
2, 78551, Note_on_c, 0, 80, 0
2, 78557, Note_on_c, 0, 58, 0
2, 78562, Control_c, 0, 64, 0
2, 78615, Note_on_c, 0, 82, 50
2, 78617, Note_on_c, 0, 63, 62
2, 78617, Note_on_c, 0, 75, 60
2, 78618, Note_on_c, 0, 53, 51
2, 78619, Note_on_c, 0, 70, 53
2, 78619, Note_on_c, 0, 79, 54
2, 78620, Note_on_c, 0, 60, 61
2, 78622, Note_on_c, 0, 56, 37
2, 78640, Note_on_c, 0, 70, 0
2, 78640, Note_on_c, 0, 63, 0
2, 78646, Note_on_c, 0, 79, 0
2, 78647, Note_on_c, 0, 75, 0
2, 78648, Note_on_c, 0, 60, 0
2, 78651, Note_on_c, 0, 53, 0
2, 78653, Note_on_c, 0, 56, 0
2, 78656, Note_on_c, 0, 82, 0
2, 78701, Note_on_c, 0, 82, 46
2, 78701, Note_on_c, 0, 63, 46
2, 78703, Note_on_c, 0, 53, 39
2, 78704, Note_on_c, 0, 60, 53
2, 78704, Note_on_c, 0, 75, 49
2, 78705, Note_on_c, 0, 79, 39
2, 78706, Note_on_c, 0, 56, 38
2, 78706, Note_on_c, 0, 70, 37
2, 78719, Note_on_c, 0, 63, 0
2, 78720, Note_on_c, 0, 53, 0
2, 78726, Note_on_c, 0, 70, 0
2, 78726, Note_on_c, 0, 79, 0
2, 78727, Note_on_c, 0, 75, 0
2, 78728, Note_on_c, 0, 60, 0
2, 78734, Note_on_c, 0, 56, 0
2, 78736, Note_on_c, 0, 82, 0
2, 78778, Note_on_c, 0, 80, 47
2, 78782, Note_on_c, 0, 75, 55
2, 78782, Note_on_c, 0, 63, 33
2, 78784, Note_on_c, 0, 60, 46
2, 78785, Note_on_c, 0, 68, 38
2, 78785, Note_on_c, 0, 56, 36
2, 78787, Note_on_c, 0, 53, 29
2, 78801, Note_on_c, 0, 63, 0
2, 78809, Note_on_c, 0, 53, 0
2, 78813, Note_on_c, 0, 60, 0
2, 78815, Note_on_c, 0, 75, 0
2, 78816, Control_c, 0, 64, 127
2, 78817, Note_on_c, 0, 80, 0
2, 78818, Note_on_c, 0, 68, 0
2, 78818, Note_on_c, 0, 56, 0
2, 78841, Control_c, 0, 64, 0
2, 78859, Note_on_c, 0, 79, 51
2, 78859, Note_on_c, 0, 75, 43
2, 78862, Note_on_c, 0, 67, 42
2, 78863, Note_on_c, 0, 63, 28
2, 78865, Note_on_c, 0, 53, 25
2, 78866, Note_on_c, 0, 56, 36
2, 78866, Note_on_c, 0, 60, 45
2, 78903, Control_c, 0, 64, 127
2, 78924, Note_on_c, 0, 79, 0
2, 78931, Note_on_c, 0, 75, 0
2, 78935, Note_on_c, 0, 63, 0
2, 78935, Note_on_c, 0, 60, 0
2, 78936, Note_on_c, 0, 53, 0
2, 78941, Note_on_c, 0, 56, 0
2, 78942, Note_on_c, 0, 67, 0
2, 79058, Note_on_c, 0, 75, 42
2, 79061, Note_on_c, 0, 63, 39
2, 79063, Note_on_c, 0, 68, 38
2, 79065, Note_on_c, 0, 56, 37
2, 79066, Note_on_c, 0, 53, 35
2, 79066, Note_on_c, 0, 60, 42
2, 79067, Control_c, 0, 64, 0
2, 79069, Note_on_c, 0, 72, 29
2, 79110, Control_c, 0, 64, 127
2, 79128, Note_on_c, 0, 63, 0
2, 79129, Note_on_c, 0, 72, 0
2, 79141, Note_on_c, 0, 68, 0
2, 79141, Note_on_c, 0, 60, 0
2, 79150, Note_on_c, 0, 53, 0
2, 79155, Note_on_c, 0, 56, 0
2, 79163, Note_on_c, 0, 75, 0
2, 79327, Note_on_c, 0, 66, 49
2, 79328, Note_on_c, 0, 90, 74
2, 79328, Note_on_c, 0, 62, 47
2, 79329, Note_on_c, 0, 82, 74
2, 79331, Note_on_c, 0, 56, 34
2, 79334, Control_c, 0, 64, 0
2, 79350, Note_on_c, 0, 82, 0
2, 79356, Note_on_c, 0, 66, 0
2, 79358, Note_on_c, 0, 90, 0
2, 79361, Note_on_c, 0, 56, 0
2, 79364, Note_on_c, 0, 62, 0
2, 79366, Note_on_c, 0, 78, 52
2, 79371, Note_on_c, 0, 85, 47
2, 79389, Note_on_c, 0, 78, 0
2, 79393, Note_on_c, 0, 85, 0
2, 79453, Note_on_c, 0, 90, 76
2, 79454, Note_on_c, 0, 82, 78
2, 79454, Note_on_c, 0, 66, 58
2, 79456, Note_on_c, 0, 56, 51
2, 79456, Note_on_c, 0, 62, 57
2, 79476, Note_on_c, 0, 66, 0
2, 79482, Note_on_c, 0, 56, 0
2, 79483, Note_on_c, 0, 90, 0
2, 79483, Note_on_c, 0, 82, 0
2, 79495, Note_on_c, 0, 85, 57
2, 79496, Note_on_c, 0, 78, 36
2, 79501, Note_on_c, 0, 66, 33
2, 79507, Note_on_c, 0, 56, 23
2, 79515, Note_on_c, 0, 78, 0
2, 79518, Note_on_c, 0, 85, 0
2, 79520, Note_on_c, 0, 62, 0
2, 79520, Note_on_c, 0, 66, 0
2, 79525, Note_on_c, 0, 56, 0
2, 79575, Note_on_c, 0, 82, 59
2, 79577, Note_on_c, 0, 65, 57
2, 79577, Note_on_c, 0, 89, 66
2, 79579, Note_on_c, 0, 77, 57
2, 79580, Note_on_c, 0, 54, 33
2, 79581, Note_on_c, 0, 61, 45
2, 79581, Note_on_c, 0, 58, 51
2, 79582, Note_on_c, 0, 85, 44
2, 79586, Note_on_c, 0, 88, 30
2, 79591, Note_on_c, 0, 85, 0
2, 79595, Note_on_c, 0, 88, 0
2, 79600, Note_on_c, 0, 65, 0
2, 79603, Note_on_c, 0, 82, 0
2, 79604, Note_on_c, 0, 54, 0
2, 79606, Note_on_c, 0, 61, 0
2, 79607, Note_on_c, 0, 89, 0
2, 79608, Note_on_c, 0, 77, 0
2, 79612, Note_on_c, 0, 58, 0
2, 79624, Note_on_c, 0, 85, 57
2, 79632, Note_on_c, 0, 85, 0
2, 79704, Note_on_c, 0, 89, 66
2, 79704, Note_on_c, 0, 65, 59
2, 79705, Note_on_c, 0, 77, 55
2, 79706, Note_on_c, 0, 54, 37
2, 79706, Note_on_c, 0, 82, 48
2, 79708, Note_on_c, 0, 61, 36
2, 79708, Note_on_c, 0, 58, 33
2, 79744, Note_on_c, 0, 82, 0
2, 79753, Note_on_c, 0, 89, 0
2, 79755, Note_on_c, 0, 77, 0
2, 79758, Note_on_c, 0, 61, 0
2, 79759, Note_on_c, 0, 65, 0
2, 79763, Note_on_c, 0, 58, 0
2, 79764, Note_on_c, 0, 54, 0
2, 79837, Control_c, 0, 64, 127
2, 79900, Control_c, 0, 64, 0
2, 79904, Note_on_c, 0, 77, 39
2, 79905, Note_on_c, 0, 82, 38
2, 79906, Note_on_c, 0, 54, 35
2, 79906, Note_on_c, 0, 65, 46
2, 79907, Note_on_c, 0, 85, 38
2, 79907, Note_on_c, 0, 61, 35
2, 79910, Note_on_c, 0, 58, 35
2, 79969, Control_c, 0, 64, 127
2, 79979, Note_on_c, 0, 61, 0
2, 79979, Note_on_c, 0, 65, 0
2, 79979, Note_on_c, 0, 82, 0
2, 79979, Note_on_c, 0, 85, 0
2, 79981, Note_on_c, 0, 54, 0
2, 79981, Note_on_c, 0, 58, 0
2, 79987, Note_on_c, 0, 77, 0
2, 79991, Control_c, 0, 64, 0
2, 80099, Control_c, 0, 64, 127
2, 80140, Control_c, 0, 64, 0
2, 80162, Control_c, 0, 64, 127
2, 80234, Note_on_c, 0, 61, 37
2, 80243, Note_on_c, 0, 61, 0
2, 80265, Control_c, 0, 64, 0
2, 80283, Note_on_c, 0, 88, 81
2, 80285, Note_on_c, 0, 81, 79
2, 80286, Note_on_c, 0, 76, 70
2, 80287, Note_on_c, 0, 54, 77
2, 80289, Note_on_c, 0, 64, 74
2, 80291, Note_on_c, 0, 60, 64
2, 80301, Note_on_c, 0, 60, 0
2, 80311, Note_on_c, 0, 81, 0
2, 80318, Note_on_c, 0, 76, 0
2, 80321, Note_on_c, 0, 64, 0
2, 80322, Note_on_c, 0, 88, 0
2, 80328, Note_on_c, 0, 54, 0
2, 80330, Note_on_c, 0, 86, 63
2, 80351, Note_on_c, 0, 86, 0
2, 80405, Note_on_c, 0, 88, 82
2, 80406, Note_on_c, 0, 54, 71
2, 80407, Note_on_c, 0, 64, 66
2, 80408, Note_on_c, 0, 76, 68
2, 80408, Note_on_c, 0, 81, 76
2, 80410, Note_on_c, 0, 60, 64
2, 80433, Note_on_c, 0, 81, 0
2, 80436, Control_c, 0, 64, 127
2, 80437, Note_on_c, 0, 76, 0
2, 80441, Note_on_c, 0, 64, 0
2, 80441, Note_on_c, 0, 88, 0
2, 80441, Note_on_c, 0, 60, 0
2, 80450, Note_on_c, 0, 86, 67
2, 80472, Note_on_c, 0, 86, 0
2, 80472, Note_on_c, 0, 54, 0
2, 80480, Control_c, 0, 64, 0
2, 80494, Note_on_c, 0, 87, 80
2, 80495, Note_on_c, 0, 75, 77
2, 80498, Note_on_c, 0, 80, 54
2, 80500, Note_on_c, 0, 56, 50
2, 80500, Note_on_c, 0, 60, 64
2, 80501, Note_on_c, 0, 63, 61
2, 80504, Note_on_c, 0, 53, 37
2, 80506, Note_on_c, 0, 80, 0
2, 80517, Note_on_c, 0, 63, 0
2, 80525, Note_on_c, 0, 75, 0
2, 80526, Note_on_c, 0, 60, 0
2, 80529, Note_on_c, 0, 87, 0
2, 80529, Note_on_c, 0, 53, 0
2, 80531, Note_on_c, 0, 56, 0
2, 80571, Note_on_c, 0, 84, 67
2, 80573, Note_on_c, 0, 72, 58
2, 80574, Note_on_c, 0, 80, 48
2, 80578, Note_on_c, 0, 63, 46
2, 80578, Note_on_c, 0, 53, 44
2, 80578, Note_on_c, 0, 60, 56
2, 80579, Note_on_c, 0, 78, 23
2, 80584, Note_on_c, 0, 56, 33
2, 80587, Note_on_c, 0, 78, 0
2, 80587, Note_on_c, 0, 63, 0
2, 80588, Control_c, 0, 64, 127
2, 80594, Note_on_c, 0, 84, 0
2, 80598, Note_on_c, 0, 72, 0
2, 80598, Note_on_c, 0, 53, 0
2, 80599, Note_on_c, 0, 80, 0
2, 80600, Note_on_c, 0, 60, 0
2, 80602, Note_on_c, 0, 56, 0
2, 80629, Control_c, 0, 64, 0
2, 80650, Note_on_c, 0, 80, 50
2, 80652, Note_on_c, 0, 63, 52
2, 80654, Note_on_c, 0, 53, 46
2, 80655, Note_on_c, 0, 68, 45
2, 80656, Note_on_c, 0, 60, 49
2, 80659, Note_on_c, 0, 56, 32
2, 80663, Control_c, 0, 64, 127
2, 80669, Note_on_c, 0, 60, 0
2, 80672, Note_on_c, 0, 63, 0
2, 80684, Note_on_c, 0, 80, 0
2, 80687, Note_on_c, 0, 56, 0
2, 80688, Note_on_c, 0, 53, 0
2, 80691, Note_on_c, 0, 68, 0
2, 80732, Control_c, 0, 64, 0
2, 80733, Note_on_c, 0, 77, 32
2, 80733, Note_on_c, 0, 53, 42
2, 80733, Note_on_c, 0, 63, 35
2, 80734, Note_on_c, 0, 65, 47
2, 80738, Note_on_c, 0, 60, 43
2, 80739, Note_on_c, 0, 56, 33
2, 80749, Note_on_c, 0, 60, 0
2, 80753, Note_on_c, 0, 63, 0
2, 80755, Note_on_c, 0, 65, 0
2, 80757, Note_on_c, 0, 77, 0
2, 80765, Note_on_c, 0, 53, 0
2, 80765, Note_on_c, 0, 56, 0
2, 80879, Control_c, 0, 64, 127
2, 81197, Note_on_c, 0, 74, 79
2, 81221, Note_on_c, 0, 74, 0
2, 81252, Control_c, 0, 64, 0
2, 81272, Note_on_c, 0, 76, 68
2, 81295, Note_on_c, 0, 77, 73
2, 81300, Note_on_c, 0, 76, 0
2, 81326, Note_on_c, 0, 77, 0
2, 81368, Note_on_c, 0, 77, 80
2, 81398, Note_on_c, 0, 77, 0
2, 81446, Note_on_c, 0, 76, 75
2, 81446, Note_on_c, 0, 63, 38
2, 81447, Note_on_c, 0, 67, 48
2, 81447, Note_on_c, 0, 62, 46
2, 81462, Note_on_c, 0, 67, 0
2, 81469, Note_on_c, 0, 76, 0
2, 81471, Note_on_c, 0, 62, 0
2, 81472, Note_on_c, 0, 63, 0
2, 81526, Note_on_c, 0, 76, 71
2, 81604, Note_on_c, 0, 71, 54
2, 81611, Note_on_c, 0, 76, 0
2, 81676, Note_on_c, 0, 71, 0
2, 81687, Note_on_c, 0, 56, 35
2, 81689, Note_on_c, 0, 62, 36
2, 81690, Note_on_c, 0, 74, 57
2, 81695, Note_on_c, 0, 59, 30
2, 81705, Note_on_c, 0, 62, 0
2, 81707, Note_on_c, 0, 59, 0
2, 81721, Note_on_c, 0, 56, 0
2, 81742, Note_on_c, 0, 74, 0
2, 81762, Note_on_c, 0, 72, 35
2, 81839, Note_on_c, 0, 72, 0
2, 81859, Note_on_c, 0, 69, 50
2, 81937, Note_on_c, 0, 69, 0
2, 81941, Note_on_c, 0, 64, 39
2, 81948, Note_on_c, 0, 57, 24
2, 81949, Note_on_c, 0, 53, 19
2, 81951, Note_on_c, 0, 60, 20
2, 81994, Note_on_c, 0, 60, 0
2, 82001, Note_on_c, 0, 57, 0
2, 82006, Note_on_c, 0, 53, 0
2, 82020, Control_c, 0, 64, 127
2, 82075, Note_on_c, 0, 64, 0
2, 82205, Control_c, 0, 64, 0
2, 82207, Note_on_c, 0, 63, 37
2, 82207, Note_on_c, 0, 79, 91
2, 82209, Note_on_c, 0, 67, 54
2, 82210, Note_on_c, 0, 62, 40
2, 82212, Note_on_c, 0, 57, 38
2, 82238, Note_on_c, 0, 79, 0
2, 82246, Note_on_c, 0, 78, 62
2, 82276, Note_on_c, 0, 78, 0
2, 82286, Note_on_c, 0, 77, 50
2, 82327, Note_on_c, 0, 77, 0
2, 82327, Note_on_c, 0, 76, 57
2, 82345, Note_on_c, 0, 67, 0
2, 82348, Note_on_c, 0, 62, 0
2, 82358, Note_on_c, 0, 76, 0
2, 82359, Note_on_c, 0, 63, 0
2, 82368, Note_on_c, 0, 57, 0
2, 82373, Note_on_c, 0, 79, 73
2, 82405, Note_on_c, 0, 79, 0
2, 82411, Note_on_c, 0, 78, 58
2, 82446, Note_on_c, 0, 78, 0
2, 82454, Note_on_c, 0, 77, 51
2, 82459, Note_on_c, 0, 62, 36
2, 82463, Note_on_c, 0, 65, 32
2, 82471, Note_on_c, 0, 56, 25
2, 82487, Note_on_c, 0, 77, 0
2, 82494, Note_on_c, 0, 76, 32
2, 82530, Note_on_c, 0, 76, 0
2, 82558, Note_on_c, 0, 62, 0
2, 82560, Note_on_c, 0, 65, 0
2, 82562, Note_on_c, 0, 56, 0
2, 82653, Note_on_c, 0, 65, 49
2, 82658, Note_on_c, 0, 62, 34
2, 82665, Note_on_c, 0, 65, 0
2, 82670, Note_on_c, 0, 62, 0
2, 82699, Note_on_c, 0, 77, 96
2, 82741, Note_on_c, 0, 76, 80
2, 82761, Note_on_c, 0, 77, 0
2, 82762, Note_on_c, 0, 62, 24
2, 82779, Note_on_c, 0, 75, 65
2, 82781, Note_on_c, 0, 76, 0
2, 82808, Note_on_c, 0, 62, 0
2, 82817, Note_on_c, 0, 75, 0
2, 82818, Note_on_c, 0, 74, 36
2, 82845, Note_on_c, 0, 74, 0
2, 82858, Note_on_c, 0, 76, 73
2, 82895, Note_on_c, 0, 75, 67
2, 82912, Note_on_c, 0, 76, 0
2, 82931, Note_on_c, 0, 75, 0
2, 82940, Note_on_c, 0, 74, 58
2, 82967, Note_on_c, 0, 74, 0
2, 82977, Note_on_c, 0, 73, 37
2, 83000, Control_c, 0, 64, 127
2, 83010, Note_on_c, 0, 73, 0
2, 83010, Control_c, 0, 64, 0
2, 83013, Note_on_c, 0, 72, 52
2, 83038, Note_on_c, 0, 72, 0
2, 83101, Note_on_c, 0, 67, 46
2, 83105, Note_on_c, 0, 62, 36
2, 83113, Note_on_c, 0, 56, 14
2, 83124, Note_on_c, 0, 67, 0
2, 83126, Note_on_c, 0, 62, 0
2, 83130, Note_on_c, 0, 56, 0
2, 83192, Note_on_c, 0, 74, 90
2, 83221, Note_on_c, 0, 62, 36
2, 83229, Note_on_c, 0, 73, 51
2, 83237, Note_on_c, 0, 74, 0
2, 83247, Note_on_c, 0, 62, 0
2, 83258, Note_on_c, 0, 73, 0
2, 83270, Note_on_c, 0, 72, 51
2, 83299, Note_on_c, 0, 72, 0
2, 83304, Note_on_c, 0, 71, 48
2, 83320, Control_c, 0, 64, 127
2, 83327, Note_on_c, 0, 62, 31
2, 83331, Note_on_c, 0, 56, 23
2, 83339, Note_on_c, 0, 62, 0
2, 83341, Note_on_c, 0, 71, 0
2, 83342, Control_c, 0, 64, 0
2, 83345, Note_on_c, 0, 70, 45
2, 83359, Note_on_c, 0, 56, 0
2, 83382, Note_on_c, 0, 70, 0
2, 83390, Note_on_c, 0, 69, 33
2, 83397, Control_c, 0, 64, 127
2, 83420, Note_on_c, 0, 69, 0
2, 83424, Note_on_c, 0, 68, 47
2, 83431, Control_c, 0, 64, 0
2, 83438, Note_on_c, 0, 57, 24
2, 83438, Note_on_c, 0, 64, 14
2, 83441, Note_on_c, 0, 60, 20
2, 83457, Note_on_c, 0, 68, 0
2, 83466, Note_on_c, 0, 71, 71
2, 83500, Note_on_c, 0, 71, 0
2, 83508, Note_on_c, 0, 68, 23
2, 83531, Note_on_c, 0, 64, 0
2, 83536, Note_on_c, 0, 68, 0
2, 83544, Note_on_c, 0, 69, 51
2, 83555, Note_on_c, 0, 57, 0
2, 83560, Note_on_c, 0, 60, 0
2, 83567, Note_on_c, 0, 69, 0
2, 83579, Note_on_c, 0, 64, 37
2, 83609, Note_on_c, 0, 64, 0
2, 83616, Note_on_c, 0, 62, 44
2, 83635, Control_c, 0, 64, 127
2, 83651, Note_on_c, 0, 62, 0
2, 83656, Note_on_c, 0, 60, 38
2, 83672, Control_c, 0, 64, 0
2, 83697, Note_on_c, 0, 60, 0
2, 83700, Note_on_c, 0, 59, 50
2, 83721, Note_on_c, 0, 59, 0
2, 83733, Note_on_c, 0, 62, 69
2, 83774, Note_on_c, 0, 62, 0
2, 83777, Note_on_c, 0, 59, 35
2, 83795, Note_on_c, 0, 59, 0
2, 83808, Note_on_c, 0, 60, 72
2, 83846, Note_on_c, 0, 60, 0
2, 83910, Control_c, 0, 64, 127
2, 84011, Control_c, 0, 64, 0
2, 84015, Note_on_c, 0, 64, 40
2, 84019, Note_on_c, 0, 56, 35
2, 84019, Note_on_c, 0, 60, 44
2, 84065, Note_on_c, 0, 60, 0
2, 84069, Note_on_c, 0, 64, 0
2, 84074, Note_on_c, 0, 56, 0
2, 84136, Control_c, 0, 64, 127
2, 84208, Note_on_c, 0, 64, 40
2, 84208, Control_c, 0, 64, 0
2, 84209, Note_on_c, 0, 55, 45
2, 84212, Note_on_c, 0, 60, 44
2, 84229, Note_on_c, 0, 60, 0
2, 84230, Note_on_c, 0, 64, 0
2, 84240, Note_on_c, 0, 55, 0
2, 84276, Control_c, 0, 64, 127
2, 84347, Note_on_c, 0, 54, 47
2, 84349, Note_on_c, 0, 64, 39
2, 84350, Control_c, 0, 64, 0
2, 84352, Note_on_c, 0, 60, 49
2, 84361, Note_on_c, 0, 64, 0
2, 84362, Note_on_c, 0, 60, 0
2, 84368, Note_on_c, 0, 82, 54
2, 84370, Note_on_c, 0, 54, 0
2, 84372, Note_on_c, 0, 70, 77
2, 84410, Note_on_c, 0, 82, 0
2, 84411, Note_on_c, 0, 70, 0
2, 84418, Note_on_c, 0, 71, 28
2, 84447, Note_on_c, 0, 71, 0
2, 84448, Note_on_c, 0, 83, 47
2, 84472, Note_on_c, 0, 71, 42
2, 84478, Note_on_c, 0, 83, 0
2, 84503, Note_on_c, 0, 71, 0
2, 84580, Note_on_c, 0, 64, 58
2, 84582, Note_on_c, 0, 54, 32
2, 84585, Note_on_c, 0, 60, 47
2, 84590, Note_on_c, 0, 64, 0
2, 84595, Note_on_c, 0, 60, 0
2, 84602, Note_on_c, 0, 54, 0
2, 84705, Note_on_c, 0, 69, 59
2, 84707, Note_on_c, 0, 81, 48
2, 84719, Note_on_c, 0, 69, 0
2, 84723, Note_on_c, 0, 81, 0
2, 84749, Note_on_c, 0, 83, 64
2, 84753, Note_on_c, 0, 71, 44
2, 84764, Note_on_c, 0, 71, 0
2, 84771, Note_on_c, 0, 83, 0
2, 84803, Control_c, 0, 64, 127
2, 84821, Note_on_c, 0, 56, 43
2, 84822, Note_on_c, 0, 60, 49
2, 84824, Note_on_c, 0, 62, 44
2, 84825, Note_on_c, 0, 72, 73
2, 84825, Note_on_c, 0, 84, 80
2, 84826, Note_on_c, 0, 53, 30
2, 84834, Note_on_c, 0, 72, 0
2, 84834, Note_on_c, 0, 62, 0
2, 84834, Note_on_c, 0, 60, 0
2, 84838, Note_on_c, 0, 53, 0
2, 84842, Note_on_c, 0, 84, 0
2, 84846, Note_on_c, 0, 56, 0
2, 84858, Control_c, 0, 64, 0
2, 84875, Note_on_c, 0, 56, 49
2, 84876, Note_on_c, 0, 53, 57
2, 84877, Note_on_c, 0, 60, 62
2, 84879, Note_on_c, 0, 62, 69
2, 84880, Note_on_c, 0, 76, 83
2, 84880, Note_on_c, 0, 88, 88
2, 84887, Control_c, 0, 64, 127
2, 84918, Note_on_c, 0, 76, 0
2, 84919, Note_on_c, 0, 62, 0
2, 84924, Note_on_c, 0, 53, 0
2, 84924, Note_on_c, 0, 88, 0
2, 84928, Note_on_c, 0, 56, 0
2, 84929, Note_on_c, 0, 60, 0
2, 84951, Note_on_c, 0, 53, 53
2, 84952, Note_on_c, 0, 56, 48
2, 84953, Note_on_c, 0, 64, 69
2, 84954, Note_on_c, 0, 60, 62
2, 84955, Note_on_c, 0, 91, 83
2, 84956, Note_on_c, 0, 79, 74
2, 84959, Control_c, 0, 64, 0
2, 84992, Note_on_c, 0, 64, 0
2, 84998, Note_on_c, 0, 60, 0
2, 84998, Control_c, 0, 64, 127
2, 84999, Note_on_c, 0, 91, 0
2, 85003, Note_on_c, 0, 53, 0
2, 85004, Note_on_c, 0, 79, 0
2, 85005, Note_on_c, 0, 56, 0
2, 85034, Control_c, 0, 64, 0
2, 85053, Note_on_c, 0, 56, 43
2, 85054, Note_on_c, 0, 64, 62
2, 85054, Note_on_c, 0, 89, 68
2, 85055, Note_on_c, 0, 53, 56
2, 85056, Note_on_c, 0, 60, 54
2, 85058, Note_on_c, 0, 77, 68
2, 85070, Control_c, 0, 64, 127
2, 85079, Note_on_c, 0, 64, 0
2, 85080, Note_on_c, 0, 89, 0
2, 85089, Note_on_c, 0, 60, 0
2, 85089, Note_on_c, 0, 77, 0
2, 85091, Note_on_c, 0, 53, 0
2, 85096, Note_on_c, 0, 56, 0
2, 85118, Note_on_c, 0, 88, 54
2, 85118, Note_on_c, 0, 62, 50
2, 85119, Note_on_c, 0, 53, 37
2, 85119, Note_on_c, 0, 56, 31
2, 85122, Note_on_c, 0, 60, 43
2, 85122, Note_on_c, 0, 76, 51
2, 85142, Note_on_c, 0, 88, 0
2, 85155, Note_on_c, 0, 76, 0
2, 85162, Note_on_c, 0, 62, 0
2, 85162, Note_on_c, 0, 60, 0
2, 85168, Note_on_c, 0, 56, 0
2, 85169, Note_on_c, 0, 53, 0
2, 85193, Control_c, 0, 64, 0
2, 85214, Note_on_c, 0, 53, 42
2, 85214, Control_c, 0, 64, 127
2, 85216, Note_on_c, 0, 56, 35
2, 85217, Note_on_c, 0, 84, 61
2, 85218, Note_on_c, 0, 62, 34
2, 85221, Note_on_c, 0, 60, 38
2, 85223, Note_on_c, 0, 72, 50
2, 85239, Note_on_c, 0, 60, 0
2, 85239, Note_on_c, 0, 84, 0
2, 85241, Note_on_c, 0, 62, 0
2, 85245, Note_on_c, 0, 53, 0
2, 85247, Note_on_c, 0, 72, 0
2, 85256, Note_on_c, 0, 56, 0
2, 85323, Control_c, 0, 64, 0
2, 85329, Note_on_c, 0, 52, 30
2, 85329, Note_on_c, 0, 62, 32
2, 85331, Note_on_c, 0, 59, 32
2, 85332, Note_on_c, 0, 83, 54
2, 85333, Note_on_c, 0, 55, 38
2, 85335, Note_on_c, 0, 71, 46
2, 85395, Control_c, 0, 64, 127
2, 85447, Note_on_c, 0, 83, 0
2, 85461, Note_on_c, 0, 62, 0
2, 85464, Note_on_c, 0, 59, 0
2, 85466, Note_on_c, 0, 71, 0
2, 85466, Note_on_c, 0, 55, 0
2, 85471, Note_on_c, 0, 52, 0
2, 85551, Control_c, 0, 64, 0
2, 85565, Note_on_c, 0, 79, 35
2, 85568, Note_on_c, 0, 52, 26
2, 85568, Note_on_c, 0, 62, 28
2, 85568, Note_on_c, 0, 67, 37
2, 85569, Note_on_c, 0, 55, 47
2, 85570, Note_on_c, 0, 59, 27
2, 85583, Control_c, 0, 64, 127
2, 85619, Note_on_c, 0, 67, 0
2, 85632, Note_on_c, 0, 79, 0
2, 85638, Note_on_c, 0, 52, 0
2, 85639, Note_on_c, 0, 59, 0
2, 85643, Note_on_c, 0, 62, 0
2, 85644, Note_on_c, 0, 55, 0
2, 85681, Note_on_c, 0, 72, 79
2, 85704, Note_on_c, 0, 72, 0
2, 85763, Note_on_c, 0, 74, 113
2, 85798, Note_on_c, 0, 74, 0
2, 85820, Note_on_c, 0, 68, 88
2, 85821, Note_on_c, 0, 45, 46
2, 85823, Note_on_c, 0, 64, 52
2, 85825, Note_on_c, 0, 60, 56
2, 85930, Note_on_c, 0, 68, 0
2, 85942, Note_on_c, 0, 69, 91
2, 86031, Control_c, 0, 64, 0
2, 86034, Note_on_c, 0, 45, 0
2, 86045, Note_on_c, 0, 69, 0
2, 86045, Note_on_c, 0, 64, 0
2, 86049, Note_on_c, 0, 60, 0
2, 86051, Control_c, 0, 64, 127
2, 86065, Note_on_c, 0, 44, 46
2, 86067, Note_on_c, 0, 60, 25
2, 86070, Note_on_c, 0, 64, 51
2, 86073, Note_on_c, 0, 56, 47
2, 86089, Note_on_c, 0, 71, 100
2, 86164, Note_on_c, 0, 56, 0
2, 86187, Note_on_c, 0, 60, 0
2, 86197, Note_on_c, 0, 72, 82
2, 86200, Note_on_c, 0, 64, 0
2, 86209, Note_on_c, 0, 71, 0
2, 86216, Note_on_c, 0, 55, 26
2, 86220, Note_on_c, 0, 43, 46
2, 86226, Note_on_c, 0, 55, 0
2, 86264, Note_on_c, 0, 72, 0
2, 86305, Note_on_c, 0, 44, 0
2, 86311, Control_c, 0, 64, 0
2, 86311, Control_c, 0, 64, 0
2, 86327, Note_on_c, 0, 74, 61
2, 86329, Note_on_c, 0, 68, 56
2, 86330, Note_on_c, 0, 64, 64
2, 86331, Note_on_c, 0, 71, 63
2, 86331, Note_on_c, 0, 60, 51
2, 86331, Note_on_c, 0, 50, 42
2, 86337, Note_on_c, 0, 54, 36
2, 86405, Control_c, 0, 64, 127
2, 86459, Note_on_c, 0, 60, 0
2, 86460, Note_on_c, 0, 43, 0
2, 86490, Note_on_c, 0, 50, 49
2, 86492, Note_on_c, 0, 38, 86
2, 86517, Note_on_c, 0, 68, 0
2, 86533, Note_on_c, 0, 64, 0
2, 86539, Note_on_c, 0, 74, 0
2, 86555, Note_on_c, 0, 71, 0
2, 86610, Note_on_c, 0, 68, 40
2, 86611, Note_on_c, 0, 60, 41
2, 86614, Note_on_c, 0, 64, 39
2, 86662, Note_on_c, 0, 60, 0
2, 86692, Note_on_c, 0, 64, 0
2, 86695, Note_on_c, 0, 68, 0
2, 86715, Note_on_c, 0, 54, 0
2, 86717, Note_on_c, 0, 50, 0
2, 86730, Note_on_c, 0, 50, 0
2, 86732, Note_on_c, 0, 38, 0
2, 86745, Note_on_c, 0, 72, 96
2, 86829, Note_on_c, 0, 72, 0
2, 86893, Note_on_c, 0, 70, 79
2, 86895, Control_c, 0, 64, 0
2, 86897, Note_on_c, 0, 60, 85
2, 86898, Note_on_c, 0, 44, 74
2, 86898, Note_on_c, 0, 32, 74
2, 86898, Note_on_c, 0, 65, 80
2, 86938, Note_on_c, 0, 32, 0
2, 86938, Control_c, 0, 64, 127
2, 86951, Note_on_c, 0, 60, 0
2, 86952, Note_on_c, 0, 44, 0
2, 86966, Note_on_c, 0, 65, 0
2, 86976, Note_on_c, 0, 70, 0
2, 87066, Note_on_c, 0, 82, 84
2, 87066, Note_on_c, 0, 77, 89
2, 87067, Note_on_c, 0, 72, 84
2, 87069, Note_on_c, 0, 65, 79
2, 87070, Note_on_c, 0, 54, 67
2, 87071, Note_on_c, 0, 58, 71
2, 87073, Note_on_c, 0, 60, 71
2, 87162, Note_on_c, 0, 60, 0
2, 87164, Note_on_c, 0, 58, 0
2, 87170, Note_on_c, 0, 54, 0
2, 87171, Note_on_c, 0, 65, 0
2, 87175, Note_on_c, 0, 72, 0
2, 87182, Note_on_c, 0, 82, 0
2, 87184, Note_on_c, 0, 77, 0
2, 87234, Note_on_c, 0, 82, 69
2, 87237, Note_on_c, 0, 77, 80
2, 87238, Note_on_c, 0, 65, 74
2, 87239, Note_on_c, 0, 58, 59
2, 87240, Note_on_c, 0, 54, 62
2, 87241, Note_on_c, 0, 60, 62
2, 87242, Note_on_c, 0, 72, 71
2, 87285, Note_on_c, 0, 82, 0
2, 87287, Note_on_c, 0, 54, 0
2, 87287, Note_on_c, 0, 65, 0
2, 87290, Note_on_c, 0, 72, 0
2, 87297, Note_on_c, 0, 60, 0
2, 87301, Note_on_c, 0, 77, 0
2, 87301, Note_on_c, 0, 58, 0
2, 87420, Note_on_c, 0, 80, 69
2, 87421, Note_on_c, 0, 65, 71
2, 87422, Note_on_c, 0, 54, 57
2, 87423, Note_on_c, 0, 68, 71
2, 87423, Note_on_c, 0, 75, 72
2, 87424, Note_on_c, 0, 58, 55
2, 87425, Note_on_c, 0, 60, 60
2, 87439, Note_on_c, 0, 65, 0
2, 87449, Note_on_c, 0, 60, 0
2, 87459, Note_on_c, 0, 58, 0
2, 87464, Note_on_c, 0, 54, 0
2, 87469, Note_on_c, 0, 80, 0
2, 87472, Note_on_c, 0, 68, 0
2, 87477, Note_on_c, 0, 75, 0
2, 87613, Note_on_c, 0, 31, 82
2, 87614, Note_on_c, 0, 79, 80
2, 87614, Note_on_c, 0, 43, 89
2, 87615, Note_on_c, 0, 76, 82
2, 87615, Note_on_c, 0, 72, 94
2, 87615, Note_on_c, 0, 67, 96
2, 87618, Control_c, 0, 64, 0
2, 87627, Note_on_c, 0, 77, 31
2, 87640, Note_on_c, 0, 77, 0
2, 87676, Control_c, 0, 64, 127
2, 87680, Note_on_c, 0, 31, 0
2, 87695, Note_on_c, 0, 43, 0
2, 87807, Note_on_c, 0, 64, 77
2, 87807, Note_on_c, 0, 55, 75
2, 87811, Note_on_c, 0, 60, 74
2, 87915, Note_on_c, 0, 55, 0
2, 87921, Note_on_c, 0, 60, 0
2, 87922, Note_on_c, 0, 64, 0
2, 87923, Note_on_c, 0, 79, 0
2, 87957, Note_on_c, 0, 76, 0
2, 87971, Note_on_c, 0, 72, 0
2, 87973, Note_on_c, 0, 67, 0
2, 87975, Note_on_c, 0, 64, 80
2, 87976, Note_on_c, 0, 55, 83
2, 87977, Note_on_c, 0, 60, 78
2, 88064, Note_on_c, 0, 55, 0
2, 88065, Note_on_c, 0, 64, 0
2, 88069, Note_on_c, 0, 60, 0
2, 88097, Note_on_c, 0, 69, 108
2, 88102, Note_on_c, 0, 64, 74
2, 88103, Note_on_c, 0, 55, 74
2, 88104, Note_on_c, 0, 60, 74
2, 88136, Note_on_c, 0, 64, 0
2, 88147, Note_on_c, 0, 69, 0
2, 88151, Note_on_c, 0, 60, 0
2, 88176, Note_on_c, 0, 55, 0
2, 88228, Note_on_c, 0, 72, 89
2, 88229, Note_on_c, 0, 69, 96
2, 88230, Note_on_c, 0, 65, 89
2, 88234, Note_on_c, 0, 55, 74
2, 88235, Control_c, 0, 64, 0
2, 88284, Control_c, 0, 64, 127
2, 88314, Note_on_c, 0, 72, 0
2, 88320, Note_on_c, 0, 65, 0
2, 88344, Note_on_c, 0, 69, 0
2, 88357, Note_on_c, 0, 72, 68
2, 88358, Note_on_c, 0, 69, 67
2, 88358, Note_on_c, 0, 76, 71
2, 88359, Note_on_c, 0, 65, 62
2, 88359, Note_on_c, 0, 60, 58
2, 88407, Note_on_c, 0, 69, 0
2, 88413, Note_on_c, 0, 72, 0
2, 88416, Note_on_c, 0, 76, 0
2, 88430, Note_on_c, 0, 65, 0
2, 88434, Note_on_c, 0, 60, 0
2, 88503, Note_on_c, 0, 65, 50
2, 88505, Note_on_c, 0, 79, 65
2, 88509, Note_on_c, 0, 76, 54
2, 88509, Note_on_c, 0, 72, 64
2, 88509, Note_on_c, 0, 60, 46
2, 88541, Note_on_c, 0, 76, 0
2, 88545, Note_on_c, 0, 79, 0
2, 88554, Note_on_c, 0, 72, 0
2, 88566, Note_on_c, 0, 55, 0
2, 88640, Note_on_c, 0, 55, 60
2, 88643, Note_on_c, 0, 76, 58
2, 88645, Note_on_c, 0, 69, 64
2, 88646, Note_on_c, 0, 65, 0
2, 88647, Note_on_c, 0, 72, 44
2, 88656, Note_on_c, 0, 60, 0
2, 88676, Note_on_c, 0, 55, 0
2, 88695, Note_on_c, 0, 76, 0
2, 88698, Note_on_c, 0, 69, 0
2, 88704, Note_on_c, 0, 72, 0
2, 88789, Note_on_c, 0, 74, 68
2, 88791, Note_on_c, 0, 43, 55
2, 88792, Note_on_c, 0, 67, 74
2, 88792, Note_on_c, 0, 71, 71
2, 88793, Note_on_c, 0, 55, 69
2, 88794, Note_on_c, 0, 64, 69
2, 88805, Control_c, 0, 64, 0
2, 88850, Control_c, 0, 64, 127
2, 88923, Note_on_c, 0, 43, 0
2, 88948, Note_on_c, 0, 71, 0
2, 88955, Note_on_c, 0, 74, 0
2, 88959, Note_on_c, 0, 67, 0
2, 88964, Note_on_c, 0, 43, 60
2, 88975, Note_on_c, 0, 64, 0
2, 89032, Note_on_c, 0, 55, 0
2, 89107, Note_on_c, 0, 71, 58
2, 89114, Note_on_c, 0, 64, 51
2, 89116, Note_on_c, 0, 62, 36
2, 89117, Note_on_c, 0, 55, 37
2, 89118, Note_on_c, 0, 67, 33
2, 89145, Note_on_c, 0, 64, 0
2, 89148, Note_on_c, 0, 67, 0
2, 89156, Note_on_c, 0, 71, 0
2, 89214, Note_on_c, 0, 55, 0
2, 89214, Note_on_c, 0, 72, 60
2, 89243, Note_on_c, 0, 62, 0
2, 89254, Note_on_c, 0, 72, 0
2, 89323, Note_on_c, 0, 76, 60
2, 89334, Note_on_c, 0, 43, 0
2, 89362, Note_on_c, 0, 76, 0
2, 89464, Note_on_c, 0, 79, 53
2, 89467, Note_on_c, 0, 57, 39
2, 89468, Note_on_c, 0, 67, 42
2, 89469, Note_on_c, 0, 74, 53
2, 89472, Note_on_c, 0, 62, 40
2, 89476, Note_on_c, 0, 58, 35
2, 89478, Control_c, 0, 64, 0
2, 89530, Control_c, 0, 64, 127
2, 89577, Note_on_c, 0, 79, 0
2, 89618, Note_on_c, 0, 67, 0
2, 89631, Note_on_c, 0, 81, 62
2, 89641, Note_on_c, 0, 62, 0
2, 89650, Note_on_c, 0, 57, 0
2, 89655, Note_on_c, 0, 58, 0
2, 89662, Note_on_c, 0, 74, 0
2, 89667, Note_on_c, 0, 81, 0
2, 89947, Note_on_c, 0, 60, 33
2, 89949, Note_on_c, 0, 58, 33
2, 89957, Note_on_c, 0, 48, 27
2, 89963, Control_c, 0, 64, 0
2, 90005, Control_c, 0, 64, 127
2, 90069, Note_on_c, 0, 64, 71
2, 90072, Note_on_c, 0, 60, 0
2, 90133, Note_on_c, 0, 64, 0
2, 90161, Note_on_c, 0, 48, 0
2, 90162, Note_on_c, 0, 64, 63
2, 90195, Note_on_c, 0, 58, 0
2, 90229, Note_on_c, 0, 64, 0
2, 90245, Note_on_c, 0, 67, 66
2, 90256, Note_on_c, 0, 67, 0
2, 90343, Note_on_c, 0, 82, 60
2, 90349, Note_on_c, 0, 53, 32
2, 90366, Control_c, 0, 64, 0
2, 90423, Control_c, 0, 64, 127
2, 90452, Note_on_c, 0, 60, 37
2, 90561, Note_on_c, 0, 67, 36
2, 90562, Note_on_c, 0, 82, 0
2, 90567, Note_on_c, 0, 75, 38
2, 90569, Note_on_c, 0, 68, 38
2, 90868, Note_on_c, 0, 67, 0
2, 90912, Note_on_c, 0, 60, 0
2, 90929, Note_on_c, 0, 53, 0
2, 90960, Note_on_c, 0, 79, 58
2, 90963, Note_on_c, 0, 75, 0
2, 90974, Note_on_c, 0, 68, 0
2, 90992, Note_on_c, 0, 79, 0
2, 91070, Note_on_c, 0, 46, 39
2, 91071, Note_on_c, 0, 75, 51
2, 91076, Control_c, 0, 64, 0
2, 91103, Control_c, 0, 64, 127
2, 91105, Note_on_c, 0, 46, 0
2, 91223, Note_on_c, 0, 68, 36
2, 91224, Note_on_c, 0, 61, 31
2, 91227, Note_on_c, 0, 72, 44
2, 91228, Note_on_c, 0, 63, 38
2, 91234, Note_on_c, 0, 65, 20
2, 91311, Note_on_c, 0, 63, 0
2, 91318, Note_on_c, 0, 65, 0
2, 91333, Note_on_c, 0, 61, 0
2, 91389, Note_on_c, 0, 61, 37
2, 91392, Note_on_c, 0, 63, 36
2, 91394, Note_on_c, 0, 65, 32
2, 91397, Note_on_c, 0, 72, 0
2, 91432, Note_on_c, 0, 65, 0
2, 91447, Note_on_c, 0, 63, 0
2, 91458, Note_on_c, 0, 68, 0
2, 91463, Note_on_c, 0, 61, 0
2, 91485, Note_on_c, 0, 72, 57
2, 91494, Note_on_c, 0, 75, 0
2, 91512, Note_on_c, 0, 72, 0
2, 91579, Note_on_c, 0, 27, 59
2, 91582, Note_on_c, 0, 39, 45
2, 91583, Note_on_c, 0, 80, 75
2, 91584, Note_on_c, 0, 73, 58
2, 91594, Control_c, 0, 64, 0
2, 91620, Note_on_c, 0, 27, 0
2, 91633, Note_on_c, 0, 39, 0
2, 91633, Control_c, 0, 64, 127
2, 91855, Note_on_c, 0, 65, 52
2, 91856, Note_on_c, 0, 61, 51
2, 91857, Note_on_c, 0, 54, 36
2, 91859, Note_on_c, 0, 58, 45
2, 91977, Note_on_c, 0, 58, 0
2, 91989, Note_on_c, 0, 61, 0
2, 91993, Note_on_c, 0, 54, 0
2, 91997, Note_on_c, 0, 65, 0
2, 92046, Note_on_c, 0, 80, 0
2, 92061, Note_on_c, 0, 65, 52
2, 92063, Note_on_c, 0, 54, 37
2, 92066, Note_on_c, 0, 61, 40
2, 92067, Note_on_c, 0, 73, 0
2, 92067, Note_on_c, 0, 58, 39
2, 92136, Note_on_c, 0, 65, 0
2, 92161, Note_on_c, 0, 61, 0
2, 92167, Note_on_c, 0, 58, 0
2, 92171, Note_on_c, 0, 77, 71
2, 92174, Note_on_c, 0, 54, 0
2, 92213, Note_on_c, 0, 77, 0
2, 92285, Note_on_c, 0, 44, 59
2, 92285, Note_on_c, 0, 73, 63
2, 92301, Control_c, 0, 64, 0
2, 92337, Control_c, 0, 64, 127
2, 92342, Note_on_c, 0, 44, 0
2, 92446, Note_on_c, 0, 65, 43
2, 92451, Note_on_c, 0, 58, 38
2, 92451, Note_on_c, 0, 54, 20
2, 92453, Note_on_c, 0, 60, 52
2, 92494, Note_on_c, 0, 60, 0
2, 92526, Note_on_c, 0, 54, 0
2, 92529, Note_on_c, 0, 58, 0
2, 92535, Note_on_c, 0, 65, 0
2, 92632, Note_on_c, 0, 70, 56
2, 92637, Note_on_c, 0, 65, 43
2, 92639, Note_on_c, 0, 58, 35
2, 92640, Note_on_c, 0, 60, 44
2, 92644, Note_on_c, 0, 54, 25
2, 92777, Note_on_c, 0, 60, 0
2, 92786, Note_on_c, 0, 65, 0
2, 92804, Note_on_c, 0, 58, 0
2, 92812, Note_on_c, 0, 70, 0
2, 92820, Note_on_c, 0, 73, 0
2, 92820, Note_on_c, 0, 54, 0
2, 92966, Note_on_c, 0, 78, 85
2, 92968, Note_on_c, 0, 75, 86
2, 92969, Note_on_c, 0, 71, 92
2, 92970, Note_on_c, 0, 68, 82
2, 92971, Note_on_c, 0, 66, 75
2, 92972, Note_on_c, 0, 64, 79
2, 92992, Control_c, 0, 64, 0
2, 93023, Control_c, 0, 64, 127
2, 93066, Note_on_c, 0, 68, 0
2, 93066, Note_on_c, 0, 71, 0
2, 93068, Note_on_c, 0, 64, 0
2, 93069, Note_on_c, 0, 78, 0
2, 93070, Note_on_c, 0, 75, 0
2, 93073, Note_on_c, 0, 66, 0
2, 93100, Note_on_c, 0, 78, 82
2, 93100, Note_on_c, 0, 75, 77
2, 93103, Note_on_c, 0, 71, 80
2, 93103, Note_on_c, 0, 68, 76
2, 93104, Note_on_c, 0, 66, 69
2, 93106, Note_on_c, 0, 64, 79
2, 93180, Note_on_c, 0, 64, 0
2, 93181, Note_on_c, 0, 71, 0
2, 93183, Note_on_c, 0, 68, 0
2, 93183, Note_on_c, 0, 75, 0
2, 93188, Note_on_c, 0, 66, 0
2, 93192, Note_on_c, 0, 78, 0
2, 93238, Note_on_c, 0, 78, 72
2, 93239, Note_on_c, 0, 75, 76
2, 93241, Note_on_c, 0, 71, 77
2, 93242, Note_on_c, 0, 68, 60
2, 93243, Note_on_c, 0, 66, 56
2, 93247, Note_on_c, 0, 64, 57
2, 93346, Note_on_c, 0, 71, 0
2, 93349, Note_on_c, 0, 75, 0
2, 93351, Note_on_c, 0, 78, 0
2, 93352, Note_on_c, 0, 68, 0
2, 93354, Note_on_c, 0, 64, 0
2, 93355, Note_on_c, 0, 66, 0
2, 93393, Note_on_c, 0, 78, 49
2, 93394, Note_on_c, 0, 75, 56
2, 93394, Note_on_c, 0, 68, 45
2, 93398, Note_on_c, 0, 71, 64
2, 93401, Note_on_c, 0, 66, 40
2, 93403, Note_on_c, 0, 64, 44
2, 93442, Note_on_c, 0, 78, 0
2, 93452, Note_on_c, 0, 75, 0
2, 93467, Note_on_c, 0, 68, 0
2, 93479, Note_on_c, 0, 64, 0
2, 93490, Note_on_c, 0, 66, 0
2, 93499, Note_on_c, 0, 71, 0
2, 93514, Note_on_c, 0, 75, 67
2, 93567, Note_on_c, 0, 75, 0
2, 93595, Note_on_c, 0, 75, 63
2, 93639, Note_on_c, 0, 75, 0
2, 93695, Note_on_c, 0, 64, 53
2, 93695, Note_on_c, 0, 68, 46
2, 93695, Note_on_c, 0, 71, 62
2, 93701, Note_on_c, 0, 59, 37
2, 93702, Note_on_c, 0, 61, 19
2, 93706, Note_on_c, 0, 57, 42
2, 93717, Control_c, 0, 64, 0
2, 93762, Control_c, 0, 64, 127
2, 93779, Note_on_c, 0, 71, 0
2, 93801, Note_on_c, 0, 71, 66
2, 93850, Note_on_c, 0, 71, 0
2, 93873, Note_on_c, 0, 61, 0
2, 93882, Note_on_c, 0, 64, 0
2, 93894, Note_on_c, 0, 59, 0
2, 93894, Note_on_c, 0, 71, 62
2, 93924, Note_on_c, 0, 57, 0
2, 93944, Note_on_c, 0, 68, 0
2, 93946, Note_on_c, 0, 71, 0
2, 93985, Note_on_c, 0, 71, 66
2, 94018, Note_on_c, 0, 71, 0
2, 94076, Note_on_c, 0, 68, 39
2, 94127, Note_on_c, 0, 68, 0
2, 94164, Note_on_c, 0, 68, 49
2, 94202, Note_on_c, 0, 68, 0
2, 94254, Note_on_c, 0, 47, 41
2, 94271, Control_c, 0, 64, 0
2, 94307, Control_c, 0, 64, 127
2, 94341, Note_on_c, 0, 57, 47
2, 94342, Note_on_c, 0, 47, 0
2, 94371, Note_on_c, 0, 57, 0
2, 94433, Note_on_c, 0, 69, 54
2, 94442, Note_on_c, 0, 62, 37
2, 94458, Note_on_c, 0, 62, 0
2, 94500, Note_on_c, 0, 69, 0
2, 94536, Note_on_c, 0, 76, 50
2, 94593, Note_on_c, 0, 76, 0
2, 94662, Note_on_c, 0, 66, 25
2, 94663, Note_on_c, 0, 73, 26
2, 94663, Note_on_c, 0, 76, 38
2, 94663, Note_on_c, 0, 64, 32
2, 94664, Note_on_c, 0, 69, 37
2, 94666, Note_on_c, 0, 62, 34
2, 94754, Note_on_c, 0, 73, 0
2, 94787, Note_on_c, 0, 76, 0
2, 94791, Note_on_c, 0, 66, 0
2, 94795, Note_on_c, 0, 64, 0
2, 94803, Note_on_c, 0, 62, 0
2, 94811, Note_on_c, 0, 73, 40
2, 94823, Note_on_c, 0, 69, 0
2, 94872, Note_on_c, 0, 73, 0
2, 95057, Note_on_c, 0, 40, 43
2, 95059, Note_on_c, 0, 69, 43
2, 95060, Note_on_c, 0, 66, 28
2, 95060, Note_on_c, 0, 62, 43
2, 95063, Note_on_c, 0, 28, 45
2, 95066, Note_on_c, 0, 57, 24
2, 95091, Control_c, 0, 64, 0
2, 95148, Control_c, 0, 64, 127
2, 95201, Note_on_c, 0, 28, 0
2, 95226, Note_on_c, 0, 28, 53
2, 95238, Note_on_c, 0, 57, 0
2, 95243, Note_on_c, 0, 62, 0
2, 95251, Note_on_c, 0, 66, 0
2, 95302, Note_on_c, 0, 40, 0
2, 95331, Note_on_c, 0, 69, 0
2, 95368, Note_on_c, 0, 66, 61
2, 95372, Note_on_c, 0, 62, 64
2, 95373, Note_on_c, 0, 57, 52
2, 95375, Note_on_c, 0, 40, 49
2, 95381, Note_on_c, 0, 28, 0
2, 95389, Note_on_c, 0, 57, 0
2, 95389, Note_on_c, 0, 40, 0
2, 95402, Note_on_c, 0, 62, 0
2, 95410, Note_on_c, 0, 66, 0
2, 95575, Control_c, 0, 64, 0
2, 95579, Note_on_c, 0, 33, 81
2, 95579, Note_on_c, 0, 45, 90
2, 95611, Control_c, 0, 64, 127
2, 95612, Note_on_c, 0, 33, 0
2, 95622, Note_on_c, 0, 45, 0
2, 95750, Note_on_c, 0, 55, 91
2, 95750, Note_on_c, 0, 64, 92
2, 95751, Note_on_c, 0, 59, 77
2, 95751, Note_on_c, 0, 60, 82
2, 95752, Note_on_c, 0, 86, 103
2, 95753, Note_on_c, 0, 79, 92
2, 95754, Note_on_c, 0, 74, 103
2, 95754, Note_on_c, 0, 83, 83
2, 95827, Note_on_c, 0, 83, 0
2, 95829, Note_on_c, 0, 86, 0
2, 95833, Note_on_c, 0, 79, 0
2, 95844, Note_on_c, 0, 59, 0
2, 95844, Note_on_c, 0, 55, 0
2, 95846, Note_on_c, 0, 74, 0
2, 95847, Note_on_c, 0, 60, 0
2, 95854, Note_on_c, 0, 64, 0
2, 95926, Note_on_c, 0, 83, 80
2, 95927, Note_on_c, 0, 60, 71
2, 95927, Note_on_c, 0, 79, 75
2, 95928, Note_on_c, 0, 76, 83
2, 95928, Note_on_c, 0, 64, 74
2, 95929, Note_on_c, 0, 55, 74
2, 95929, Note_on_c, 0, 71, 80
2, 95932, Note_on_c, 0, 59, 54
2, 95942, Note_on_c, 0, 59, 0
2, 95949, Note_on_c, 0, 64, 0
2, 95953, Note_on_c, 0, 60, 0
2, 95967, Note_on_c, 0, 55, 0
2, 96086, Note_on_c, 0, 83, 0
2, 96097, Note_on_c, 0, 79, 0
2, 96098, Note_on_c, 0, 76, 0
2, 96098, Note_on_c, 0, 71, 0
2, 96105, Note_on_c, 0, 38, 89
2, 96106, Note_on_c, 0, 26, 91
2, 96110, Control_c, 0, 64, 0
2, 96146, Control_c, 0, 64, 127
2, 96165, Note_on_c, 0, 26, 0
2, 96184, Note_on_c, 0, 38, 0
2, 96320, Note_on_c, 0, 79, 65
2, 96321, Note_on_c, 0, 76, 73
2, 96323, Note_on_c, 0, 72, 74
2, 96323, Note_on_c, 0, 55, 49
2, 96324, Note_on_c, 0, 67, 74
2, 96342, Note_on_c, 0, 60, 32
2, 96353, Note_on_c, 0, 55, 0
2, 96375, Note_on_c, 0, 60, 0
2, 96428, Note_on_c, 0, 79, 0
2, 96429, Note_on_c, 0, 76, 0
2, 96432, Note_on_c, 0, 72, 0
2, 96439, Note_on_c, 0, 67, 0
2, 96539, Note_on_c, 0, 76, 45
2, 96540, Note_on_c, 0, 64, 50
2, 96540, Note_on_c, 0, 69, 55
2, 96543, Note_on_c, 0, 60, 42
2, 96545, Note_on_c, 0, 57, 41
2, 96546, Note_on_c, 0, 72, 36
2, 96548, Note_on_c, 0, 53, 24
2, 96566, Note_on_c, 0, 60, 0
2, 96567, Note_on_c, 0, 57, 0
2, 96590, Note_on_c, 0, 53, 0
2, 96598, Note_on_c, 0, 72, 0
2, 96599, Note_on_c, 0, 69, 0
2, 96603, Note_on_c, 0, 76, 0
2, 96622, Note_on_c, 0, 64, 0
2, 96741, Note_on_c, 0, 72, 62
2, 96742, Note_on_c, 0, 65, 71
2, 96743, Note_on_c, 0, 43, 67
2, 96744, Note_on_c, 0, 31, 66
2, 96758, Control_c, 0, 64, 0
2, 96797, Control_c, 0, 64, 127
2, 96804, Note_on_c, 0, 31, 0
2, 96823, Note_on_c, 0, 43, 0
2, 96880, Note_on_c, 0, 65, 0
2, 96961, Note_on_c, 0, 72, 0
2, 96967, Note_on_c, 0, 65, 55
2, 96968, Note_on_c, 0, 55, 37
2, 96974, Note_on_c, 0, 58, 38
2, 97053, Note_on_c, 0, 55, 0
2, 97095, Note_on_c, 0, 58, 0
2, 97108, Note_on_c, 0, 65, 0
2, 97208, Note_on_c, 0, 58, 47
2, 97209, Note_on_c, 0, 69, 57
2, 97211, Note_on_c, 0, 65, 46
2, 97217, Note_on_c, 0, 55, 46
2, 97241, Note_on_c, 0, 55, 0
2, 97293, Note_on_c, 0, 69, 0
2, 97305, Note_on_c, 0, 65, 0
2, 97314, Note_on_c, 0, 58, 0
2, 97538, Note_on_c, 0, 65, 45
2, 97541, Note_on_c, 0, 58, 38
2, 97542, Note_on_c, 0, 53, 34
2, 97545, Note_on_c, 0, 24, 37
2, 97547, Note_on_c, 0, 62, 48
2, 97548, Note_on_c, 0, 36, 37
2, 97564, Control_c, 0, 64, 0
2, 97639, Control_c, 0, 64, 127
2, 97750, Note_on_c, 0, 53, 0
2, 97775, Note_on_c, 0, 62, 0
2, 97776, Note_on_c, 0, 24, 0
2, 97778, Note_on_c, 0, 58, 0
2, 97791, Note_on_c, 0, 36, 0
2, 97806, Note_on_c, 0, 65, 0
2, 98099, Note_on_c, 0, 86, 123
2, 98102, Note_on_c, 0, 62, 95
2, 98265, Note_on_c, 0, 86, 0
2, 98295, Note_on_c, 0, 62, 0
2, 98387, Note_on_c, 0, 62, 15
2, 98391, Note_on_c, 0, 63, 49
2, 98405, Note_on_c, 0, 88, 62
2, 98414, Note_on_c, 0, 62, 0
2, 98414, Note_on_c, 0, 64, 73
2, 98415, Note_on_c, 0, 63, 0
2, 98433, Note_on_c, 0, 65, 92
2, 98434, Note_on_c, 0, 89, 80
2, 98448, Note_on_c, 0, 64, 0
2, 98448, Note_on_c, 0, 88, 0
2, 98454, Control_c, 0, 64, 0
2, 98508, Control_c, 0, 64, 127
2, 98688, Note_on_c, 0, 65, 0
2, 98709, Note_on_c, 0, 89, 0
2, 98710, Note_on_c, 0, 88, 70
2, 98718, Note_on_c, 0, 64, 42
2, 98813, Note_on_c, 0, 88, 0
2, 98826, Note_on_c, 0, 64, 0
2, 99103, Note_on_c, 0, 76, 62
2, 99107, Note_on_c, 0, 53, 44
2, 99110, Note_on_c, 0, 68, 43
2, 99131, Control_c, 0, 64, 0
2, 99185, Control_c, 0, 64, 127
2, 99367, Note_on_c, 0, 56, 45
2, 99499, Note_on_c, 0, 76, 0
2, 99509, Note_on_c, 0, 68, 0
2, 99510, Note_on_c, 0, 59, 33
2, 99624, Note_on_c, 0, 62, 43
2, 99705, Note_on_c, 0, 64, 44
2, 99759, Note_on_c, 0, 64, 0
2, 99776, Note_on_c, 0, 65, 47
2, 99816, Note_on_c, 0, 65, 0
2, 99840, Note_on_c, 0, 67, 62
2, 99877, Note_on_c, 0, 67, 0
2, 99894, Note_on_c, 0, 68, 67
2, 99926, Note_on_c, 0, 68, 0
2, 99942, Note_on_c, 0, 70, 79
2, 99971, Note_on_c, 0, 70, 0
2, 99983, Note_on_c, 0, 71, 76
2, 100021, Note_on_c, 0, 71, 0
2, 100024, Note_on_c, 0, 73, 59
2, 100048, Note_on_c, 0, 73, 0
2, 100063, Note_on_c, 0, 74, 74
2, 100096, Note_on_c, 0, 76, 74
2, 100099, Note_on_c, 0, 74, 0
2, 100132, Note_on_c, 0, 77, 69
2, 100133, Note_on_c, 0, 76, 0
2, 100146, Note_on_c, 0, 77, 0
2, 100164, Note_on_c, 0, 79, 69
2, 100194, Note_on_c, 0, 79, 0
2, 100201, Note_on_c, 0, 80, 69
2, 100232, Note_on_c, 0, 80, 0
2, 100238, Note_on_c, 0, 82, 43
2, 100248, Note_on_c, 0, 82, 0
2, 100255, Note_on_c, 0, 83, 54
2, 100288, Note_on_c, 0, 83, 0
2, 100300, Note_on_c, 0, 85, 62
2, 100321, Note_on_c, 0, 85, 0
2, 100340, Note_on_c, 0, 86, 65
2, 100376, Note_on_c, 0, 88, 63
2, 100377, Note_on_c, 0, 86, 0
2, 100413, Note_on_c, 0, 88, 0
2, 100422, Note_on_c, 0, 89, 56
2, 100434, Note_on_c, 0, 89, 0
2, 100461, Note_on_c, 0, 91, 42
2, 100500, Note_on_c, 0, 91, 0
2, 100512, Note_on_c, 0, 92, 57
2, 100538, Note_on_c, 0, 92, 0
2, 100557, Note_on_c, 0, 94, 42
2, 100573, Note_on_c, 0, 94, 0
2, 100594, Note_on_c, 0, 95, 53
2, 100629, Note_on_c, 0, 95, 0
2, 100639, Note_on_c, 0, 96, 51
2, 100668, Note_on_c, 0, 59, 0
2, 100669, Note_on_c, 0, 96, 0
2, 100675, Note_on_c, 0, 97, 52
2, 100681, Note_on_c, 0, 53, 0
2, 100686, Note_on_c, 0, 56, 0
2, 100701, Note_on_c, 0, 97, 0
2, 100713, Note_on_c, 0, 98, 53
2, 100742, Note_on_c, 0, 98, 0
2, 100759, Note_on_c, 0, 62, 0
2, 100759, Note_on_c, 0, 99, 35
2, 100770, Note_on_c, 0, 99, 0
2, 100788, Note_on_c, 0, 100, 35
2, 100806, Note_on_c, 0, 100, 0
2, 100818, Note_on_c, 0, 101, 25
2, 100839, Note_on_c, 0, 102, 49
2, 100844, Note_on_c, 0, 101, 0
2, 100879, Note_on_c, 0, 102, 0
2, 100882, Note_on_c, 0, 103, 60
2, 100888, Note_on_c, 0, 53, 41
2, 100903, Control_c, 0, 64, 0
2, 100933, Control_c, 0, 64, 127
2, 100967, Note_on_c, 0, 103, 0
2, 101010, Note_on_c, 0, 60, 33
2, 101120, Note_on_c, 0, 79, 40
2, 101121, Note_on_c, 0, 60, 0
2, 101126, Note_on_c, 0, 74, 48
2, 101127, Note_on_c, 0, 69, 36
2, 101129, Note_on_c, 0, 53, 0
2, 101133, Note_on_c, 0, 64, 29
2, 101154, Note_on_c, 0, 69, 0
2, 101166, Note_on_c, 0, 74, 0
2, 101175, Note_on_c, 0, 79, 0
2, 101234, Note_on_c, 0, 64, 0
2, 101279, Note_on_c, 0, 67, 25
2, 101337, Note_on_c, 0, 67, 0
2, 101396, Note_on_c, 0, 69, 43
2, 101400, Note_on_c, 0, 91, 53
2, 101405, Note_on_c, 0, 84, 53
2, 101410, Note_on_c, 0, 88, 49
2, 101423, Note_on_c, 0, 88, 0
2, 101428, Note_on_c, 0, 84, 0
2, 101433, Note_on_c, 0, 91, 0
2, 101523, Note_on_c, 0, 69, 0
2, 101530, Note_on_c, 0, 88, 36
2, 101534, Note_on_c, 0, 81, 42
2, 101537, Note_on_c, 0, 72, 39
2, 101539, Note_on_c, 0, 84, 35
2, 101554, Note_on_c, 0, 81, 0
2, 101555, Note_on_c, 0, 84, 0
2, 101566, Note_on_c, 0, 88, 0
2, 101678, Note_on_c, 0, 72, 0
2, 101805, Note_on_c, 0, 96, 51
2, 101810, Note_on_c, 0, 91, 40
2, 101811, Note_on_c, 0, 86, 39
2, 101824, Note_on_c, 0, 79, 12
2, 101855, Note_on_c, 0, 86, 0
2, 101882, Note_on_c, 0, 91, 0
2, 101884, Note_on_c, 0, 96, 0
2, 101895, Note_on_c, 0, 79, 0
2, 101903, Note_on_c, 0, 86, 46
2, 101907, Note_on_c, 0, 93, 42
2, 101911, Note_on_c, 0, 81, 24
2, 101916, Note_on_c, 0, 86, 0
2, 101929, Note_on_c, 0, 93, 0
2, 101999, Note_on_c, 0, 81, 0
2, 102002, Note_on_c, 0, 84, 37
2, 102078, Note_on_c, 0, 84, 0
2, 102088, Note_on_c, 0, 103, 65
2, 102091, Note_on_c, 0, 100, 45
2, 102093, Note_on_c, 0, 93, 36
2, 102095, Note_on_c, 0, 96, 44
2, 102100, Note_on_c, 0, 88, 32
2, 102116, Note_on_c, 0, 100, 0
2, 102132, Note_on_c, 0, 96, 0
2, 102143, Note_on_c, 0, 93, 0
2, 102158, Note_on_c, 0, 103, 0
2, 102175, Note_on_c, 0, 100, 44
2, 102183, Note_on_c, 0, 88, 0
2, 102188, Note_on_c, 0, 100, 0
2, 102193, Note_on_c, 0, 91, 13
2, 102270, Note_on_c, 0, 91, 0
2, 102283, Note_on_c, 0, 100, 55
2, 102285, Note_on_c, 0, 107, 51
2, 102290, Note_on_c, 0, 103, 40
2, 102534, Note_on_c, 0, 103, 0
2, 102534, Note_on_c, 0, 100, 0
2, 102540, Note_on_c, 0, 107, 0
2, 102835, Note_on_c, 0, 29, 29
2, 102869, Note_on_c, 0, 29, 0
2, 103418, Control_c, 0, 64, 0
2, 103418, End_track
3, 0, Start_track
3, 0, Title_t, ""
3, 11447, Note_on_c, 1, 53, 88
3, 11690, Note_on_c, 1, 48, 56
3, 11698, Note_on_c, 1, 53, 0
3, 11703, Note_on_c, 1, 48, 0
3, 11770, Note_on_c, 1, 47, 45
3, 11792, Note_on_c, 1, 47, 0
3, 11810, Note_on_c, 1, 46, 62
3, 12008, Note_on_c, 1, 58, 68
3, 12071, Note_on_c, 1, 46, 0
3, 12246, Note_on_c, 1, 51, 51
3, 12256, Note_on_c, 1, 51, 0
3, 12279, Note_on_c, 1, 58, 0
3, 12294, Note_on_c, 1, 63, 74
3, 12482, Note_on_c, 1, 43, 51
3, 12501, Note_on_c, 1, 63, 0
3, 12511, Note_on_c, 1, 43, 0
3, 12527, Note_on_c, 1, 44, 56
3, 12630, Note_on_c, 1, 42, 31
3, 12644, Note_on_c, 1, 56, 85
3, 12655, Note_on_c, 1, 42, 0
3, 12661, Note_on_c, 1, 44, 0
3, 12844, Note_on_c, 1, 44, 26
3, 12849, Note_on_c, 1, 56, 0
3, 12870, Note_on_c, 1, 44, 0
3, 12875, Note_on_c, 1, 61, 67
3, 12963, Note_on_c, 1, 61, 0
3, 12986, Note_on_c, 1, 61, 60
3, 13204, Note_on_c, 1, 61, 0
3, 13236, Note_on_c, 1, 49, 83
3, 13284, Pitch_bend_c, 1, 8192
3, 13287, Pitch_bend_c, 1, 8192
3, 13289, Pitch_bend_c, 1, 8192
3, 13291, Pitch_bend_c, 1, 7680
3, 13292, Pitch_bend_c, 1, 7552
3, 13293, Pitch_bend_c, 1, 7296
3, 13295, Pitch_bend_c, 1, 7040
3, 13297, Pitch_bend_c, 1, 6912
3, 13298, Pitch_bend_c, 1, 6656
3, 13300, Pitch_bend_c, 1, 6400
3, 13301, Pitch_bend_c, 1, 6144
3, 13303, Pitch_bend_c, 1, 5888
3, 13305, Pitch_bend_c, 1, 5632
3, 13306, Pitch_bend_c, 1, 5376
3, 13308, Pitch_bend_c, 1, 4992
3, 13309, Pitch_bend_c, 1, 4736
3, 13311, Pitch_bend_c, 1, 4480
3, 13313, Pitch_bend_c, 1, 4224
3, 13314, Pitch_bend_c, 1, 3968
3, 13316, Pitch_bend_c, 1, 3712
3, 13317, Pitch_bend_c, 1, 3456
3, 13319, Pitch_bend_c, 1, 3200
3, 13320, Pitch_bend_c, 1, 2944
3, 13322, Pitch_bend_c, 1, 2688
3, 13324, Pitch_bend_c, 1, 2560
3, 13325, Pitch_bend_c, 1, 2304
3, 13327, Pitch_bend_c, 1, 2176
3, 13328, Pitch_bend_c, 1, 1920
3, 13330, Pitch_bend_c, 1, 1792
3, 13331, Pitch_bend_c, 1, 1664
3, 13333, Pitch_bend_c, 1, 1536
3, 13335, Pitch_bend_c, 1, 1280
3, 13336, Pitch_bend_c, 1, 1152
3, 13338, Pitch_bend_c, 1, 1024
3, 13339, Pitch_bend_c, 1, 768
3, 13341, Pitch_bend_c, 1, 640
3, 13342, Pitch_bend_c, 1, 512
3, 13344, Note_on_c, 1, 49, 0
3, 13344, Pitch_bend_c, 1, 384
3, 13346, Pitch_bend_c, 1, 256
3, 13347, Pitch_bend_c, 1, 128
3, 13375, Pitch_bend_c, 1, 640
3, 13377, Pitch_bend_c, 1, 1536
3, 13378, Pitch_bend_c, 1, 2816
3, 13380, Pitch_bend_c, 1, 4480
3, 13381, Pitch_bend_c, 1, 6144
3, 13383, Pitch_bend_c, 1, 7552
3, 13384, Pitch_bend_c, 1, 8192
3, 13611, Note_on_c, 1, 47, 74
3, 13625, Note_on_c, 1, 47, 0
3, 13685, Note_on_c, 1, 44, 80
3, 13710, Note_on_c, 1, 44, 0
3, 13721, Note_on_c, 1, 45, 58
3, 13778, Note_on_c, 1, 45, 0
3, 13792, Note_on_c, 1, 43, 60
3, 13812, Note_on_c, 1, 43, 0
3, 13826, Note_on_c, 1, 44, 53
3, 13885, Note_on_c, 1, 44, 0
3, 13902, Note_on_c, 1, 40, 47
3, 13911, Note_on_c, 1, 40, 0
3, 13942, Note_on_c, 1, 44, 59
3, 14012, Note_on_c, 1, 44, 0
3, 14016, Note_on_c, 1, 41, 61
3, 14046, Note_on_c, 1, 41, 0
3, 14062, Note_on_c, 1, 40, 56
3, 14271, Note_on_c, 1, 35, 53
3, 14274, Note_on_c, 1, 40, 0
3, 14303, Note_on_c, 1, 35, 0
3, 14310, Note_on_c, 1, 33, 55
3, 14428, Note_on_c, 1, 47, 92
3, 14436, Note_on_c, 1, 33, 0
3, 14551, Note_on_c, 1, 47, 0
3, 14557, Note_on_c, 1, 45, 63
3, 14669, Note_on_c, 1, 45, 0
3, 14680, Note_on_c, 1, 38, 56
3, 14884, Note_on_c, 1, 52, 89
3, 14900, Note_on_c, 1, 38, 0
3, 14913, Note_on_c, 1, 52, 0
3, 14928, Note_on_c, 1, 50, 65
3, 14992, Note_on_c, 1, 50, 0
3, 15009, Note_on_c, 1, 42, 52
3, 15045, Note_on_c, 1, 42, 0
3, 15051, Note_on_c, 1, 43, 54
3, 15162, Note_on_c, 1, 57, 92
3, 15170, Note_on_c, 1, 43, 0
3, 15331, Note_on_c, 1, 55, 55
3, 15339, Note_on_c, 1, 57, 0
3, 15348, Note_on_c, 1, 55, 0
3, 15363, Note_on_c, 1, 53, 66
3, 15385, Note_on_c, 1, 53, 0
3, 15411, Note_on_c, 1, 52, 55
3, 15478, Note_on_c, 1, 52, 0
3, 15482, Note_on_c, 1, 50, 60
3, 15505, Note_on_c, 1, 50, 0
3, 15530, Note_on_c, 1, 48, 58
3, 15714, Note_on_c, 1, 48, 0
3, 15762, Note_on_c, 1, 41, 62
3, 15881, Note_on_c, 1, 41, 0
3, 15882, Note_on_c, 1, 55, 92
3, 15898, Note_on_c, 1, 55, 0
3, 15957, Note_on_c, 1, 54, 77
3, 15986, Note_on_c, 1, 54, 0
3, 15998, Note_on_c, 1, 53, 60
3, 16018, Note_on_c, 1, 53, 0
3, 16080, Note_on_c, 1, 45, 57
3, 16091, Note_on_c, 1, 45, 0
3, 16124, Note_on_c, 1, 46, 72
3, 16197, Note_on_c, 1, 46, 0
3, 16246, Note_on_c, 1, 46, 69
3, 16467, Note_on_c, 1, 46, 0
3, 16506, Note_on_c, 1, 51, 85
3, 16528, Pitch_bend_c, 1, 8192
3, 16534, Pitch_bend_c, 1, 8192
3, 16539, Pitch_bend_c, 1, 8192
3, 16542, Pitch_bend_c, 1, 8192
3, 16546, Pitch_bend_c, 1, 7680
3, 16549, Pitch_bend_c, 1, 7424
3, 16552, Pitch_bend_c, 1, 7296
3, 16554, Pitch_bend_c, 1, 7168
3, 16555, Pitch_bend_c, 1, 6912
3, 16557, Pitch_bend_c, 1, 6784
3, 16558, Pitch_bend_c, 1, 6656
3, 16560, Pitch_bend_c, 1, 6528
3, 16561, Pitch_bend_c, 1, 6400
3, 16563, Pitch_bend_c, 1, 6272
3, 16565, Pitch_bend_c, 1, 6016
3, 16566, Pitch_bend_c, 1, 5888
3, 16568, Pitch_bend_c, 1, 5632
3, 16569, Pitch_bend_c, 1, 5504
3, 16571, Pitch_bend_c, 1, 5376
3, 16572, Pitch_bend_c, 1, 5120
3, 16574, Pitch_bend_c, 1, 4992
3, 16576, Pitch_bend_c, 1, 4736
3, 16577, Pitch_bend_c, 1, 4608
3, 16579, Pitch_bend_c, 1, 4480
3, 16580, Pitch_bend_c, 1, 4352
3, 16582, Pitch_bend_c, 1, 4224
3, 16583, Pitch_bend_c, 1, 4096
3, 16587, Pitch_bend_c, 1, 3968
3, 16589, Note_on_c, 1, 51, 0
3, 16599, Pitch_bend_c, 1, 4224
3, 16601, Pitch_bend_c, 1, 4480
3, 16602, Pitch_bend_c, 1, 4736
3, 16604, Pitch_bend_c, 1, 5120
3, 16605, Pitch_bend_c, 1, 5760
3, 16607, Pitch_bend_c, 1, 6528
3, 16609, Pitch_bend_c, 1, 7552
3, 16610, Pitch_bend_c, 1, 8192
3, 16697, Note_on_c, 1, 51, 85
3, 16714, Pitch_bend_c, 1, 8192
3, 16718, Pitch_bend_c, 1, 8192
3, 16720, Pitch_bend_c, 1, 8192
3, 16725, Pitch_bend_c, 1, 7680
3, 16728, Pitch_bend_c, 1, 7552
3, 16731, Pitch_bend_c, 1, 7296
3, 16735, Pitch_bend_c, 1, 7168
3, 16738, Pitch_bend_c, 1, 7040
3, 16742, Pitch_bend_c, 1, 6912
3, 16748, Pitch_bend_c, 1, 6784
3, 16753, Pitch_bend_c, 1, 6656
3, 16756, Pitch_bend_c, 1, 6528
3, 16758, Pitch_bend_c, 1, 6400
3, 16761, Pitch_bend_c, 1, 6272
3, 16763, Pitch_bend_c, 1, 6144
3, 16764, Pitch_bend_c, 1, 6016
3, 16768, Pitch_bend_c, 1, 5760
3, 16770, Pitch_bend_c, 1, 5632
3, 16773, Pitch_bend_c, 1, 5504
3, 16776, Pitch_bend_c, 1, 5376
3, 16778, Pitch_bend_c, 1, 5120
3, 16784, Note_on_c, 1, 51, 0
3, 16784, Pitch_bend_c, 1, 4992
3, 16795, Pitch_bend_c, 1, 5120
3, 16796, Pitch_bend_c, 1, 5376
3, 16798, Pitch_bend_c, 1, 5504
3, 16799, Pitch_bend_c, 1, 5760
3, 16801, Pitch_bend_c, 1, 6272
3, 16803, Pitch_bend_c, 1, 7296
3, 16804, Pitch_bend_c, 1, 8192
3, 16805, Pitch_bend_c, 1, 8192
3, 16919, Note_on_c, 1, 44, 74
3, 16952, Pitch_bend_c, 1, 8192
3, 16961, Pitch_bend_c, 1, 8192
3, 16968, Pitch_bend_c, 1, 8192
3, 16988, Pitch_bend_c, 1, 8192
3, 16996, Pitch_bend_c, 1, 7680
3, 16999, Pitch_bend_c, 1, 7552
3, 17002, Pitch_bend_c, 1, 7424
3, 17006, Pitch_bend_c, 1, 7296
3, 17008, Pitch_bend_c, 1, 7168
3, 17011, Pitch_bend_c, 1, 7040
3, 17015, Note_on_c, 1, 44, 0
3, 17015, Pitch_bend_c, 1, 6912
3, 17023, Pitch_bend_c, 1, 6784
3, 17031, Pitch_bend_c, 1, 7168
3, 17032, Pitch_bend_c, 1, 8192
3, 17033, Pitch_bend_c, 1, 8192
3, 17195, Note_on_c, 1, 49, 78
3, 17406, Note_on_c, 1, 49, 0
3, 17406, Note_on_c, 1, 47, 40
3, 17427, Note_on_c, 1, 47, 0
3, 17454, Note_on_c, 1, 49, 46
3, 17485, Note_on_c, 1, 49, 0
3, 17522, Note_on_c, 1, 52, 61
3, 17544, Note_on_c, 1, 52, 0
3, 17567, Note_on_c, 1, 54, 67
3, 17661, Note_on_c, 1, 54, 0
3, 17680, Note_on_c, 1, 54, 60
3, 17790, Note_on_c, 1, 54, 0
3, 17795, Note_on_c, 1, 49, 60
3, 17812, Note_on_c, 1, 49, 0
3, 17870, Note_on_c, 1, 46, 59
3, 17908, Note_on_c, 1, 46, 0
3, 17916, Note_on_c, 1, 47, 43
3, 17991, Note_on_c, 1, 59, 87
3, 17997, Note_on_c, 1, 47, 0
3, 18018, Note_on_c, 1, 59, 0
3, 18038, Note_on_c, 1, 57, 52
3, 18226, Note_on_c, 1, 57, 0
3, 18232, Note_on_c, 1, 55, 64
3, 18259, Note_on_c, 1, 55, 0
3, 18276, Note_on_c, 1, 56, 73
3, 18338, Note_on_c, 1, 56, 0
3, 18346, Note_on_c, 1, 53, 76
3, 18380, Note_on_c, 1, 53, 0
3, 18396, Note_on_c, 1, 52, 58
3, 18541, Note_on_c, 1, 52, 0
3, 18552, Note_on_c, 1, 50, 64
3, 18561, Note_on_c, 1, 50, 0
3, 18589, Note_on_c, 1, 47, 64
3, 18611, Note_on_c, 1, 47, 0
3, 18641, Note_on_c, 1, 45, 80
3, 18831, Note_on_c, 1, 40, 65
3, 18833, Note_on_c, 1, 45, 0
3, 18853, Note_on_c, 1, 40, 0
3, 18879, Note_on_c, 1, 36, 56
3, 19004, Note_on_c, 1, 36, 0
3, 19013, Note_on_c, 1, 38, 68
3, 19205, Note_on_c, 1, 50, 105
3, 19226, Note_on_c, 1, 38, 0
3, 19365, Note_on_c, 1, 50, 0
3, 19370, Note_on_c, 1, 43, 92
3, 19565, Note_on_c, 1, 38, 92
3, 19576, Note_on_c, 1, 43, 0
3, 19822, Note_on_c, 1, 36, 80
3, 19835, Note_on_c, 1, 38, 0
3, 20232, Note_on_c, 1, 48, 66
3, 20250, Note_on_c, 1, 36, 0
3, 20746, Note_on_c, 1, 41, 60
3, 20750, Note_on_c, 1, 48, 0
3, 21152, Note_on_c, 1, 41, 0
3, 48557, Note_on_c, 1, 43, 82
3, 48590, Note_on_c, 1, 43, 0
3, 48684, Note_on_c, 1, 43, 72
3, 48714, Note_on_c, 1, 43, 0
3, 48733, Note_on_c, 1, 31, 61
3, 48847, Note_on_c, 1, 31, 0
3, 48848, Note_on_c, 1, 43, 83
3, 49078, Note_on_c, 1, 43, 0
3, 49083, Note_on_c, 1, 31, 82
3, 49090, Note_on_c, 1, 55, 73
3, 49431, Note_on_c, 1, 55, 0
3, 49447, Note_on_c, 1, 43, 48
3, 49477, Note_on_c, 1, 43, 0
3, 49530, Note_on_c, 1, 55, 103
3, 49589, Pitch_bend_c, 1, 8192
3, 49589, Pitch_bend_c, 1, 8192
3, 49593, Pitch_bend_c, 1, 8192
3, 49597, Pitch_bend_c, 1, 7680
3, 49600, Pitch_bend_c, 1, 7552
3, 49602, Pitch_bend_c, 1, 7424
3, 49606, Pitch_bend_c, 1, 7296
3, 49609, Pitch_bend_c, 1, 7168
3, 49612, Pitch_bend_c, 1, 6912
3, 49615, Pitch_bend_c, 1, 6784
3, 49616, Pitch_bend_c, 1, 6656
3, 49620, Pitch_bend_c, 1, 6400
3, 49621, Pitch_bend_c, 1, 6272
3, 49623, Pitch_bend_c, 1, 6016
3, 49624, Pitch_bend_c, 1, 5888
3, 49626, Pitch_bend_c, 1, 5760
3, 49628, Pitch_bend_c, 1, 5632
3, 49629, Pitch_bend_c, 1, 5504
3, 49632, Pitch_bend_c, 1, 5120
3, 49634, Pitch_bend_c, 1, 4992
3, 49635, Pitch_bend_c, 1, 4864
3, 49637, Pitch_bend_c, 1, 4608
3, 49638, Pitch_bend_c, 1, 4480
3, 49642, Pitch_bend_c, 1, 4224
3, 49643, Pitch_bend_c, 1, 4096
3, 49645, Pitch_bend_c, 1, 3968
3, 49646, Pitch_bend_c, 1, 3840
3, 49648, Pitch_bend_c, 1, 3712
3, 49650, Pitch_bend_c, 1, 3584
3, 49653, Pitch_bend_c, 1, 3456
3, 49656, Pitch_bend_c, 1, 3328
3, 49659, Pitch_bend_c, 1, 3072
3, 49663, Pitch_bend_c, 1, 2944
3, 49667, Note_on_c, 1, 55, 0
3, 49667, Pitch_bend_c, 1, 2816
3, 49673, Pitch_bend_c, 1, 2688
3, 49682, Pitch_bend_c, 1, 2560
3, 49702, Pitch_bend_c, 1, 2944
3, 49704, Pitch_bend_c, 1, 3456
3, 49706, Pitch_bend_c, 1, 3968
3, 49707, Pitch_bend_c, 1, 4352
3, 49709, Pitch_bend_c, 1, 4608
3, 49710, Pitch_bend_c, 1, 4736
3, 49712, Pitch_bend_c, 1, 4864
3, 49714, Pitch_bend_c, 1, 4992
3, 49715, Pitch_bend_c, 1, 5120
3, 49718, Pitch_bend_c, 1, 5376
3, 49721, Pitch_bend_c, 1, 5504
3, 49725, Pitch_bend_c, 1, 5632
3, 49728, Pitch_bend_c, 1, 5888
3, 49730, Pitch_bend_c, 1, 6016
3, 49731, Pitch_bend_c, 1, 6144
3, 49733, Pitch_bend_c, 1, 6528
3, 49734, Pitch_bend_c, 1, 6912
3, 49736, Pitch_bend_c, 1, 7552
3, 49738, Pitch_bend_c, 1, 8192
3, 49738, Pitch_bend_c, 1, 8192
3, 49896, Note_on_c, 1, 31, 0
3, 49936, Note_on_c, 1, 55, 95
3, 49998, Note_on_c, 1, 55, 0
3, 50012, Note_on_c, 1, 55, 87
3, 50613, Note_on_c, 1, 48, 62
3, 50615, Note_on_c, 1, 55, 0
3, 50621, Note_on_c, 1, 48, 0
3, 50654, Note_on_c, 1, 40, 51
3, 50768, Note_on_c, 1, 40, 0
3, 50774, Note_on_c, 1, 41, 46
3, 51185, Note_on_c, 1, 47, 47
3, 51195, Note_on_c, 1, 47, 0
3, 51220, Note_on_c, 1, 50, 68
3, 51242, Note_on_c, 1, 50, 0
3, 51253, Note_on_c, 1, 41, 0
3, 51258, Note_on_c, 1, 48, 59
3, 51563, Note_on_c, 1, 40, 44
3, 51576, Note_on_c, 1, 48, 0
3, 51591, Note_on_c, 1, 40, 0
3, 51602, Note_on_c, 1, 41, 56
3, 51719, Note_on_c, 1, 41, 0
3, 51721, Note_on_c, 1, 47, 88
3, 52026, Note_on_c, 1, 47, 0
3, 52036, Note_on_c, 1, 41, 51
3, 52155, Note_on_c, 1, 51, 93
3, 52182, Note_on_c, 1, 41, 0
3, 52187, Note_on_c, 1, 51, 0
3, 52203, Note_on_c, 1, 52, 71
3, 52278, Note_on_c, 1, 52, 0
3, 52284, Note_on_c, 1, 49, 36
3, 52307, Note_on_c, 1, 49, 0
3, 52321, Note_on_c, 1, 50, 43
3, 52507, Note_on_c, 1, 50, 0
3, 52516, Note_on_c, 1, 47, 33
3, 52544, Note_on_c, 1, 47, 0
3, 52556, Note_on_c, 1, 48, 55
3, 52569, Note_on_c, 1, 48, 0
3, 52638, Note_on_c, 1, 46, 62
3, 52665, Note_on_c, 1, 46, 0
3, 52676, Note_on_c, 1, 45, 48
3, 52990, Note_on_c, 1, 40, 42
3, 53006, Note_on_c, 1, 45, 0
3, 53017, Note_on_c, 1, 40, 0
3, 53038, Note_on_c, 1, 33, 66
3, 53153, Note_on_c, 1, 33, 0
3, 53159, Note_on_c, 1, 32, 64
3, 53367, Note_on_c, 1, 44, 87
3, 53386, Note_on_c, 1, 32, 0
3, 53404, Note_on_c, 1, 44, 0
3, 53413, Note_on_c, 1, 43, 67
3, 53602, Note_on_c, 1, 32, 52
3, 53620, Note_on_c, 1, 32, 0
3, 53626, Note_on_c, 1, 43, 0
3, 53646, Note_on_c, 1, 42, 51
3, 53996, Note_on_c, 1, 42, 0
3, 54084, Note_on_c, 1, 52, 110
3, 54119, Note_on_c, 1, 52, 0
3, 54131, Note_on_c, 1, 53, 79
3, 54207, Note_on_c, 1, 53, 0
3, 54208, Note_on_c, 1, 50, 58
3, 54232, Note_on_c, 1, 50, 0
3, 54247, Note_on_c, 1, 51, 35
3, 54315, Note_on_c, 1, 51, 0
3, 54441, Note_on_c, 1, 48, 57
3, 54469, Note_on_c, 1, 48, 0
3, 54481, Note_on_c, 1, 50, 61
3, 54511, Note_on_c, 1, 50, 0
3, 54554, Note_on_c, 1, 46, 47
3, 54581, Note_on_c, 1, 46, 0
3, 54597, Note_on_c, 1, 47, 36
3, 54650, Note_on_c, 1, 47, 0
3, 54670, Note_on_c, 1, 43, 48
3, 54696, Note_on_c, 1, 43, 0
3, 54713, Note_on_c, 1, 40, 44
3, 54819, Note_on_c, 1, 40, 0
3, 54836, Note_on_c, 1, 44, 35
3, 55044, Note_on_c, 1, 44, 0
3, 55053, Note_on_c, 1, 46, 60
3, 55098, Note_on_c, 1, 46, 0
3, 55102, Note_on_c, 1, 45, 55
3, 55368, Note_on_c, 1, 40, 55
3, 55378, Note_on_c, 1, 45, 0
3, 55390, Note_on_c, 1, 40, 0
3, 55411, Note_on_c, 1, 36, 27
3, 55435, Note_on_c, 1, 36, 0
3, 55445, Note_on_c, 1, 37, 47
3, 55557, Note_on_c, 1, 37, 0
3, 55563, Note_on_c, 1, 38, 43
3, 55666, Note_on_c, 1, 38, 0
3, 55765, Note_on_c, 1, 50, 103
3, 55803, Pitch_bend_c, 1, 8192
3, 55804, Pitch_bend_c, 1, 8192
3, 55806, Pitch_bend_c, 1, 8192
3, 55809, Pitch_bend_c, 1, 8192
3, 55810, Pitch_bend_c, 1, 7680
3, 55812, Pitch_bend_c, 1, 7552
3, 55813, Pitch_bend_c, 1, 7296
3, 55815, Pitch_bend_c, 1, 7168
3, 55817, Pitch_bend_c, 1, 6912
3, 55818, Pitch_bend_c, 1, 6784
3, 55820, Pitch_bend_c, 1, 6528
3, 55821, Pitch_bend_c, 1, 6272
3, 55823, Pitch_bend_c, 1, 6144
3, 55824, Pitch_bend_c, 1, 5888
3, 55826, Pitch_bend_c, 1, 5632
3, 55828, Pitch_bend_c, 1, 5504
3, 55829, Pitch_bend_c, 1, 5376
3, 55831, Pitch_bend_c, 1, 5120
3, 55832, Pitch_bend_c, 1, 4992
3, 55834, Pitch_bend_c, 1, 4864
3, 55835, Pitch_bend_c, 1, 4736
3, 55839, Pitch_bend_c, 1, 4608
3, 55842, Pitch_bend_c, 1, 4480
3, 55845, Pitch_bend_c, 1, 4224
3, 55848, Pitch_bend_c, 1, 4096
3, 55851, Pitch_bend_c, 1, 3968
3, 55854, Pitch_bend_c, 1, 3840
3, 55858, Pitch_bend_c, 1, 3712
3, 55861, Pitch_bend_c, 1, 3584
3, 55865, Pitch_bend_c, 1, 3456
3, 55866, Pitch_bend_c, 1, 3328
3, 55867, Note_on_c, 1, 50, 0
3, 55870, Pitch_bend_c, 1, 3200
3, 55873, Pitch_bend_c, 1, 3072
3, 55879, Pitch_bend_c, 1, 2944
3, 55890, Pitch_bend_c, 1, 3072
3, 55894, Pitch_bend_c, 1, 3200
3, 55897, Pitch_bend_c, 1, 3328
3, 55899, Pitch_bend_c, 1, 3456
3, 55902, Pitch_bend_c, 1, 3712
3, 55904, Pitch_bend_c, 1, 3968
3, 55906, Pitch_bend_c, 1, 4736
3, 55907, Pitch_bend_c, 1, 5760
3, 55909, Pitch_bend_c, 1, 6528
3, 55910, Pitch_bend_c, 1, 7168
3, 55912, Pitch_bend_c, 1, 7680
3, 55914, Pitch_bend_c, 1, 8192
3, 55914, Pitch_bend_c, 1, 8192
3, 56243, Note_on_c, 1, 42, 70
3, 56272, Note_on_c, 1, 42, 0
3, 56284, Note_on_c, 1, 43, 48
3, 56358, Note_on_c, 1, 43, 0
3, 56367, Note_on_c, 1, 40, 26
3, 56395, Note_on_c, 1, 40, 0
3, 56405, Note_on_c, 1, 41, 45
3, 56456, Note_on_c, 1, 41, 0
3, 56475, Note_on_c, 1, 39, 39
3, 56503, Note_on_c, 1, 39, 0
3, 56512, Note_on_c, 1, 40, 35
3, 56931, Note_on_c, 1, 47, 64
3, 56947, Note_on_c, 1, 40, 0
3, 56955, Note_on_c, 1, 47, 0
3, 56970, Note_on_c, 1, 44, 35
3, 57002, Note_on_c, 1, 44, 0
3, 57009, Note_on_c, 1, 45, 53
3, 57203, Note_on_c, 1, 45, 0
3, 57204, Note_on_c, 1, 47, 53
3, 57248, Note_on_c, 1, 47, 0
3, 57252, Note_on_c, 1, 48, 54
3, 57483, Note_on_c, 1, 48, 0
3, 57484, Note_on_c, 1, 44, 43
3, 57782, Note_on_c, 1, 44, 0
3, 57920, Note_on_c, 1, 44, 77
3, 57960, Note_on_c, 1, 44, 0
3, 57966, Note_on_c, 1, 43, 60
3, 58003, Pitch_bend_c, 1, 8192
3, 58006, Pitch_bend_c, 1, 8192
3, 58009, Pitch_bend_c, 1, 7680
3, 58011, Pitch_bend_c, 1, 7552
3, 58013, Pitch_bend_c, 1, 7296
3, 58014, Pitch_bend_c, 1, 7040
3, 58016, Pitch_bend_c, 1, 6784
3, 58017, Pitch_bend_c, 1, 6528
3, 58019, Pitch_bend_c, 1, 6272
3, 58020, Pitch_bend_c, 1, 5888
3, 58022, Pitch_bend_c, 1, 5632
3, 58024, Pitch_bend_c, 1, 5376
3, 58025, Pitch_bend_c, 1, 4992
3, 58027, Pitch_bend_c, 1, 4608
3, 58028, Pitch_bend_c, 1, 4480
3, 58030, Pitch_bend_c, 1, 4096
3, 58031, Pitch_bend_c, 1, 3840
3, 58033, Pitch_bend_c, 1, 3584
3, 58035, Pitch_bend_c, 1, 3328
3, 58036, Pitch_bend_c, 1, 3072
3, 58038, Pitch_bend_c, 1, 2944
3, 58039, Pitch_bend_c, 1, 2688
3, 58041, Pitch_bend_c, 1, 2560
3, 58042, Pitch_bend_c, 1, 2432
3, 58046, Pitch_bend_c, 1, 2304
3, 58051, Pitch_bend_c, 1, 2432
3, 58053, Pitch_bend_c, 1, 2560
3, 58054, Pitch_bend_c, 1, 2816
3, 58056, Pitch_bend_c, 1, 3072
3, 58057, Pitch_bend_c, 1, 3328
3, 58059, Pitch_bend_c, 1, 3584
3, 58060, Pitch_bend_c, 1, 3968
3, 58062, Pitch_bend_c, 1, 4352
3, 58064, Pitch_bend_c, 1, 4736
3, 58065, Pitch_bend_c, 1, 5376
3, 58067, Pitch_bend_c, 1, 5760
3, 58068, Pitch_bend_c, 1, 6400
3, 58070, Pitch_bend_c, 1, 6784
3, 58072, Pitch_bend_c, 1, 7296
3, 58073, Pitch_bend_c, 1, 8192
3, 58074, Pitch_bend_c, 1, 8192
3, 58075, Pitch_bend_c, 1, 8192
3, 58075, Pitch_bend_c, 1, 8192
3, 58105, Pitch_bend_c, 1, 8192
3, 58107, Pitch_bend_c, 1, 8192
3, 58109, Pitch_bend_c, 1, 7680
3, 58110, Pitch_bend_c, 1, 7552
3, 58112, Pitch_bend_c, 1, 7296
3, 58113, Pitch_bend_c, 1, 7040
3, 58115, Pitch_bend_c, 1, 6912
3, 58117, Pitch_bend_c, 1, 6656
3, 58118, Pitch_bend_c, 1, 6528
3, 58120, Pitch_bend_c, 1, 6272
3, 58121, Pitch_bend_c, 1, 6016
3, 58123, Pitch_bend_c, 1, 5888
3, 58124, Pitch_bend_c, 1, 5632
3, 58126, Pitch_bend_c, 1, 5504
3, 58128, Pitch_bend_c, 1, 5376
3, 58129, Pitch_bend_c, 1, 5120
3, 58130, Pitch_bend_c, 1, 4864
3, 58132, Pitch_bend_c, 1, 4736
3, 58134, Pitch_bend_c, 1, 4480
3, 58135, Pitch_bend_c, 1, 4352
3, 58137, Pitch_bend_c, 1, 4224
3, 58138, Pitch_bend_c, 1, 4096
3, 58140, Pitch_bend_c, 1, 3968
3, 58142, Pitch_bend_c, 1, 3840
3, 58143, Pitch_bend_c, 1, 3712
3, 58153, Pitch_bend_c, 1, 3840
3, 58155, Pitch_bend_c, 1, 4096
3, 58156, Pitch_bend_c, 1, 4352
3, 58158, Pitch_bend_c, 1, 4608
3, 58160, Pitch_bend_c, 1, 4864
3, 58161, Pitch_bend_c, 1, 5376
3, 58163, Pitch_bend_c, 1, 5760
3, 58164, Pitch_bend_c, 1, 6400
3, 58166, Pitch_bend_c, 1, 6784
3, 58167, Pitch_bend_c, 1, 7296
3, 58169, Pitch_bend_c, 1, 8192
3, 58170, Pitch_bend_c, 1, 8192
3, 58171, Pitch_bend_c, 1, 8192
3, 58211, Pitch_bend_c, 1, 8192
3, 58214, Pitch_bend_c, 1, 8192
3, 58215, Pitch_bend_c, 1, 8192
3, 58218, Pitch_bend_c, 1, 7552
3, 58219, Pitch_bend_c, 1, 7296
3, 58221, Pitch_bend_c, 1, 7168
3, 58222, Pitch_bend_c, 1, 6912
3, 58224, Pitch_bend_c, 1, 6784
3, 58226, Pitch_bend_c, 1, 6528
3, 58227, Pitch_bend_c, 1, 6400
3, 58229, Pitch_bend_c, 1, 6144
3, 58230, Pitch_bend_c, 1, 5888
3, 58232, Pitch_bend_c, 1, 5632
3, 58233, Pitch_bend_c, 1, 5504
3, 58235, Pitch_bend_c, 1, 5376
3, 58237, Pitch_bend_c, 1, 5120
3, 58238, Pitch_bend_c, 1, 4992
3, 58240, Pitch_bend_c, 1, 4864
3, 58246, Pitch_bend_c, 1, 4736
3, 58250, Pitch_bend_c, 1, 4864
3, 58252, Pitch_bend_c, 1, 4992
3, 58254, Pitch_bend_c, 1, 5376
3, 58255, Pitch_bend_c, 1, 5632
3, 58257, Pitch_bend_c, 1, 5888
3, 58259, Pitch_bend_c, 1, 6272
3, 58260, Pitch_bend_c, 1, 6656
3, 58262, Pitch_bend_c, 1, 7168
3, 58263, Pitch_bend_c, 1, 7680
3, 58265, Pitch_bend_c, 1, 8192
3, 58266, Pitch_bend_c, 1, 8192
3, 58395, Note_on_c, 1, 42, 50
3, 58397, Note_on_c, 1, 43, 0
3, 58431, Note_on_c, 1, 42, 0
3, 58437, Note_on_c, 1, 43, 59
3, 58746, Note_on_c, 1, 43, 0
3, 58752, Note_on_c, 1, 46, 77
3, 58790, Note_on_c, 1, 46, 0
3, 58800, Note_on_c, 1, 43, 38
3, 58858, Note_on_c, 1, 43, 0
3, 58876, Note_on_c, 1, 50, 68
3, 58911, Note_on_c, 1, 50, 0
3, 58924, Note_on_c, 1, 48, 49
3, 59124, Note_on_c, 1, 48, 0
3, 59129, Note_on_c, 1, 36, 61
3, 59398, Note_on_c, 1, 36, 0
3, 59413, Note_on_c, 1, 44, 71
3, 59436, Note_on_c, 1, 44, 0
3, 59497, Note_on_c, 1, 41, 29
3, 59505, Note_on_c, 1, 41, 0
3, 59523, Note_on_c, 1, 43, 73
3, 59632, Note_on_c, 1, 43, 0
3, 59645, Note_on_c, 1, 41, 56
3, 59996, Note_on_c, 1, 41, 0
3, 60004, Note_on_c, 1, 29, 49
3, 60207, Note_on_c, 1, 34, 33
3, 60208, Note_on_c, 1, 29, 0
3, 60225, Note_on_c, 1, 34, 0
3, 60237, Note_on_c, 1, 46, 82
3, 60317, Note_on_c, 1, 38, 59
3, 60325, Note_on_c, 1, 46, 0
3, 60335, Note_on_c, 1, 38, 0
3, 60363, Note_on_c, 1, 39, 59
3, 60395, Note_on_c, 1, 39, 0
3, 60438, Note_on_c, 1, 42, 72
3, 60465, Note_on_c, 1, 42, 0
3, 60484, Note_on_c, 1, 41, 51
3, 60572, Note_on_c, 1, 41, 0
3, 60604, Note_on_c, 1, 39, 47
3, 61049, Note_on_c, 1, 42, 40
3, 61072, Note_on_c, 1, 42, 0
3, 61090, Note_on_c, 1, 39, 0
3, 61091, Note_on_c, 1, 44, 79
3, 61336, Note_on_c, 1, 37, 57
3, 61340, Note_on_c, 1, 44, 0
3, 61553, Note_on_c, 1, 37, 0
3, 61564, Note_on_c, 1, 49, 84
3, 61752, Note_on_c, 1, 49, 0
3, 61761, Note_on_c, 1, 47, 50
3, 61771, Note_on_c, 1, 47, 0
3, 61804, Note_on_c, 1, 48, 87
3, 61856, Pitch_bend_c, 1, 8192
3, 61858, Pitch_bend_c, 1, 8192
3, 61860, Pitch_bend_c, 1, 8192
3, 61863, Pitch_bend_c, 1, 8192
3, 61866, Pitch_bend_c, 1, 7680
3, 61868, Pitch_bend_c, 1, 7552
3, 61871, Pitch_bend_c, 1, 7424
3, 61874, Pitch_bend_c, 1, 7168
3, 61878, Pitch_bend_c, 1, 7040
3, 61881, Pitch_bend_c, 1, 6784
3, 61885, Pitch_bend_c, 1, 6656
3, 61886, Pitch_bend_c, 1, 6528
3, 61889, Pitch_bend_c, 1, 6400
3, 61892, Pitch_bend_c, 1, 6144
3, 61894, Pitch_bend_c, 1, 6016
3, 61898, Pitch_bend_c, 1, 5888
3, 61901, Pitch_bend_c, 1, 5760
3, 61904, Pitch_bend_c, 1, 5632
3, 61906, Pitch_bend_c, 1, 5504
3, 61909, Pitch_bend_c, 1, 5376
3, 61911, Pitch_bend_c, 1, 5120
3, 61914, Pitch_bend_c, 1, 4864
3, 61915, Pitch_bend_c, 1, 4736
3, 61920, Pitch_bend_c, 1, 4608
3, 61924, Pitch_bend_c, 1, 4352
3, 61927, Pitch_bend_c, 1, 4224
3, 61931, Note_on_c, 1, 48, 0
3, 61931, Pitch_bend_c, 1, 4096
3, 61935, Pitch_bend_c, 1, 3840
3, 61940, Pitch_bend_c, 1, 3712
3, 61945, Pitch_bend_c, 1, 3584
3, 61952, Pitch_bend_c, 1, 3456
3, 61986, Pitch_bend_c, 1, 3584
3, 61987, Pitch_bend_c, 1, 3712
3, 61989, Pitch_bend_c, 1, 3840
3, 61990, Pitch_bend_c, 1, 3968
3, 61992, Pitch_bend_c, 1, 4224
3, 61993, Pitch_bend_c, 1, 4480
3, 61995, Pitch_bend_c, 1, 4608
3, 61997, Pitch_bend_c, 1, 4864
3, 61998, Pitch_bend_c, 1, 4992
3, 62000, Pitch_bend_c, 1, 5376
3, 62001, Pitch_bend_c, 1, 5504
3, 62003, Pitch_bend_c, 1, 5632
3, 62004, Pitch_bend_c, 1, 5760
3, 62006, Pitch_bend_c, 1, 5888
3, 62008, Pitch_bend_c, 1, 6144
3, 62009, Pitch_bend_c, 1, 6400
3, 62011, Pitch_bend_c, 1, 6528
3, 62012, Pitch_bend_c, 1, 6784
3, 62014, Pitch_bend_c, 1, 7040
3, 62015, Pitch_bend_c, 1, 7424
3, 62017, Pitch_bend_c, 1, 8192
3, 62018, Pitch_bend_c, 1, 8192
3, 62241, Note_on_c, 1, 40, 48
3, 62276, Note_on_c, 1, 40, 0
3, 62287, Note_on_c, 1, 41, 30
3, 62360, Note_on_c, 1, 55, 68
3, 62377, Note_on_c, 1, 41, 0
3, 62387, Note_on_c, 1, 55, 0
3, 62406, Note_on_c, 1, 53, 49
3, 62717, Note_on_c, 1, 53, 0
3, 62723, Note_on_c, 1, 50, 55
3, 62760, Note_on_c, 1, 50, 0
3, 62770, Note_on_c, 1, 48, 48
3, 62960, Note_on_c, 1, 40, 26
3, 62982, Note_on_c, 1, 40, 0
3, 62988, Note_on_c, 1, 48, 0
3, 62996, Note_on_c, 1, 41, 39
3, 63208, Note_on_c, 1, 48, 78
3, 63212, Note_on_c, 1, 41, 0
3, 63233, Note_on_c, 1, 48, 0
3, 63252, Note_on_c, 1, 47, 45
3, 63535, Note_on_c, 1, 41, 58
3, 63549, Note_on_c, 1, 41, 0
3, 63561, Note_on_c, 1, 47, 0
3, 63569, Note_on_c, 1, 38, 50
3, 63592, Note_on_c, 1, 38, 0
3, 63605, Note_on_c, 1, 39, 50
3, 63711, Note_on_c, 1, 39, 0
3, 63721, Note_on_c, 1, 40, 40
3, 63905, Note_on_c, 1, 55, 52
3, 63920, Note_on_c, 1, 55, 0
3, 63940, Note_on_c, 1, 56, 48
3, 64167, Note_on_c, 1, 59, 71
3, 64169, Note_on_c, 1, 56, 0
3, 64194, Note_on_c, 1, 59, 0
3, 64197, Note_on_c, 1, 40, 0
3, 64212, Note_on_c, 1, 57, 57
3, 64389, Note_on_c, 1, 57, 0
3, 64398, Note_on_c, 1, 55, 47
3, 64424, Note_on_c, 1, 55, 0
3, 64439, Note_on_c, 1, 52, 49
3, 64512, Note_on_c, 1, 52, 0
3, 64518, Note_on_c, 1, 50, 50
3, 64551, Note_on_c, 1, 50, 0
3, 64565, Note_on_c, 1, 48, 36
3, 64655, Note_on_c, 1, 48, 0
3, 64679, Note_on_c, 1, 44, 42
3, 64767, Note_on_c, 1, 44, 0
3, 64796, Note_on_c, 1, 44, 39
3, 65041, Note_on_c, 1, 44, 0
3, 65044, Note_on_c, 1, 43, 59
3, 65156, Note_on_c, 1, 43, 0
3, 65165, Note_on_c, 1, 42, 50
3, 65526, Note_on_c, 1, 45, 45
3, 65541, Note_on_c, 1, 42, 0
3, 65552, Note_on_c, 1, 45, 0
3, 65562, Note_on_c, 1, 47, 51
3, 65588, Note_on_c, 1, 47, 0
3, 65599, Note_on_c, 1, 48, 60
3, 65620, Note_on_c, 1, 48, 0
3, 65643, Note_on_c, 1, 42, 48
3, 65759, Note_on_c, 1, 42, 0
3, 65762, Note_on_c, 1, 41, 53
3, 65863, Note_on_c, 1, 41, 0
3, 65884, Note_on_c, 1, 41, 43
3, 66041, Note_on_c, 1, 43, 47
3, 66068, Note_on_c, 1, 43, 0
3, 66083, Note_on_c, 1, 44, 49
3, 66092, Note_on_c, 1, 41, 0
3, 66106, Note_on_c, 1, 44, 0
3, 66125, Note_on_c, 1, 40, 47
3, 66232, Note_on_c, 1, 40, 0
3, 66249, Note_on_c, 1, 40, 57
3, 66444, Note_on_c, 1, 44, 77
3, 66445, Note_on_c, 1, 40, 0
3, 66575, Note_on_c, 1, 40, 34
3, 66587, Note_on_c, 1, 40, 0
3, 66588, Note_on_c, 1, 44, 0
3, 66608, Note_on_c, 1, 45, 58
3, 66806, Note_on_c, 1, 45, 0
3, 66809, Note_on_c, 1, 47, 47
3, 66843, Note_on_c, 1, 47, 0
3, 66855, Note_on_c, 1, 48, 61
3, 67027, Note_on_c, 1, 48, 0
3, 67048, Note_on_c, 1, 49, 56
3, 67074, Note_on_c, 1, 49, 0
3, 67092, Note_on_c, 1, 50, 34
3, 67155, Note_on_c, 1, 50, 0
3, 67159, Note_on_c, 1, 59, 68
3, 67204, Note_on_c, 1, 59, 0
3, 67209, Note_on_c, 1, 57, 55
3, 67486, Note_on_c, 1, 46, 52
3, 67507, Note_on_c, 1, 46, 0
3, 67525, Note_on_c, 1, 45, 59
3, 67551, Note_on_c, 1, 45, 0
3, 67558, Note_on_c, 1, 57, 0
3, 67566, Note_on_c, 1, 44, 62
3, 67928, Note_on_c, 1, 44, 0
3, 68019, Note_on_c, 1, 42, 68
3, 68042, Note_on_c, 1, 42, 0
3, 68059, Note_on_c, 1, 43, 48
3, 68074, Note_on_c, 1, 43, 0
3, 68136, Note_on_c, 1, 38, 55
3, 68156, Note_on_c, 1, 38, 0
3, 68181, Note_on_c, 1, 31, 55
3, 68383, Note_on_c, 1, 38, 48
3, 68392, Note_on_c, 1, 38, 0
3, 68410, Note_on_c, 1, 31, 0
3, 68417, Note_on_c, 1, 43, 69
3, 68518, Note_on_c, 1, 43, 0
3, 68543, Note_on_c, 1, 43, 57
3, 68758, Note_on_c, 1, 31, 65
3, 68773, Note_on_c, 1, 43, 0
3, 68859, Note_on_c, 1, 31, 0
3, 68879, Note_on_c, 1, 31, 76
3, 69119, Note_on_c, 1, 31, 0
3, 69126, Note_on_c, 1, 43, 92
3, 69200, Pitch_bend_c, 1, 8192
3, 69203, Pitch_bend_c, 1, 8192
3, 69207, Pitch_bend_c, 1, 7680
3, 69208, Pitch_bend_c, 1, 7552
3, 69211, Pitch_bend_c, 1, 7424
3, 69215, Pitch_bend_c, 1, 7168
3, 69218, Pitch_bend_c, 1, 7040
3, 69220, Pitch_bend_c, 1, 6912
3, 69222, Pitch_bend_c, 1, 6784
3, 69225, Pitch_bend_c, 1, 6656
3, 69226, Pitch_bend_c, 1, 6528
3, 69228, Pitch_bend_c, 1, 6400
3, 69229, Pitch_bend_c, 1, 6272
3, 69231, Pitch_bend_c, 1, 6144
3, 69233, Pitch_bend_c, 1, 6016
3, 69234, Pitch_bend_c, 1, 5888
3, 69236, Pitch_bend_c, 1, 5632
3, 69237, Pitch_bend_c, 1, 5504
3, 69239, Pitch_bend_c, 1, 5376
3, 69240, Pitch_bend_c, 1, 5120
3, 69242, Pitch_bend_c, 1, 4864
3, 69244, Pitch_bend_c, 1, 4608
3, 69245, Pitch_bend_c, 1, 4480
3, 69246, Note_on_c, 1, 43, 0
3, 69247, Pitch_bend_c, 1, 4224
3, 69249, Pitch_bend_c, 1, 3968
3, 69250, Pitch_bend_c, 1, 3840
3, 69252, Pitch_bend_c, 1, 3584
3, 69253, Pitch_bend_c, 1, 3456
3, 69255, Pitch_bend_c, 1, 3328
3, 69256, Pitch_bend_c, 1, 3072
3, 69258, Pitch_bend_c, 1, 2944
3, 69260, Pitch_bend_c, 1, 2816
3, 69262, Pitch_bend_c, 1, 2688
3, 69278, Pitch_bend_c, 1, 2944
3, 69280, Pitch_bend_c, 1, 3072
3, 69281, Pitch_bend_c, 1, 3200
3, 69283, Pitch_bend_c, 1, 3328
3, 69284, Pitch_bend_c, 1, 3456
3, 69286, Pitch_bend_c, 1, 3584
3, 69288, Pitch_bend_c, 1, 3840
3, 69289, Pitch_bend_c, 1, 3968
3, 69291, Pitch_bend_c, 1, 4224
3, 69292, Pitch_bend_c, 1, 4480
3, 69294, Pitch_bend_c, 1, 4608
3, 69295, Pitch_bend_c, 1, 4864
3, 69297, Pitch_bend_c, 1, 5376
3, 69299, Pitch_bend_c, 1, 5632
3, 69300, Pitch_bend_c, 1, 6016
3, 69302, Pitch_bend_c, 1, 6272
3, 69303, Pitch_bend_c, 1, 6656
3, 69305, Pitch_bend_c, 1, 7040
3, 69306, Pitch_bend_c, 1, 7424
3, 69308, Pitch_bend_c, 1, 7680
3, 69310, Pitch_bend_c, 1, 8192
3, 69310, Pitch_bend_c, 1, 8192
3, 69448, Note_on_c, 1, 43, 89
3, 69453, Note_on_c, 1, 45, 35
3, 69463, Note_on_c, 1, 45, 0
3, 69802, Note_on_c, 1, 48, 73
3, 69807, Note_on_c, 1, 43, 0
3, 69818, Note_on_c, 1, 48, 0
3, 69844, Note_on_c, 1, 40, 62
3, 69946, Note_on_c, 1, 39, 21
3, 69959, Note_on_c, 1, 39, 0
3, 69963, Note_on_c, 1, 40, 0
3, 69965, Note_on_c, 1, 41, 53
3, 70169, Note_on_c, 1, 47, 49
3, 70193, Note_on_c, 1, 47, 0
3, 70212, Note_on_c, 1, 50, 64
3, 70218, Note_on_c, 1, 41, 0
3, 70291, Note_on_c, 1, 41, 43
3, 70309, Note_on_c, 1, 41, 0
3, 70313, Note_on_c, 1, 50, 0
3, 70330, Note_on_c, 1, 49, 54
3, 70435, Note_on_c, 1, 49, 0
3, 70449, Note_on_c, 1, 48, 45
3, 70485, Note_on_c, 1, 48, 0
3, 70528, Note_on_c, 1, 45, 60
3, 70556, Note_on_c, 1, 45, 0
3, 70573, Note_on_c, 1, 40, 53
3, 70686, Note_on_c, 1, 40, 0
3, 70697, Note_on_c, 1, 41, 50
3, 70812, Note_on_c, 1, 41, 0
3, 70813, Note_on_c, 1, 36, 52
3, 70930, Note_on_c, 1, 36, 0
3, 70936, Note_on_c, 1, 35, 53
3, 71051, Note_on_c, 1, 50, 101
3, 71054, Note_on_c, 1, 35, 0
3, 71157, Note_on_c, 1, 50, 0
3, 71170, Note_on_c, 1, 47, 41
3, 71231, Note_on_c, 1, 47, 0
3, 71245, Note_on_c, 1, 41, 47
3, 71268, Note_on_c, 1, 41, 0
3, 71283, Note_on_c, 1, 39, 59
3, 71392, Note_on_c, 1, 39, 0
3, 71399, Note_on_c, 1, 40, 49
3, 71485, Note_on_c, 1, 53, 80
3, 71497, Note_on_c, 1, 40, 0
3, 71515, Note_on_c, 1, 53, 0
3, 71529, Note_on_c, 1, 52, 64
3, 71724, Note_on_c, 1, 47, 48
3, 71738, Note_on_c, 1, 47, 0
3, 71743, Note_on_c, 1, 52, 0
3, 71764, Note_on_c, 1, 44, 40
3, 71873, Note_on_c, 1, 44, 0
3, 71881, Note_on_c, 1, 45, 54
3, 72084, Note_on_c, 1, 50, 76
3, 72112, Note_on_c, 1, 50, 0
3, 72118, Note_on_c, 1, 45, 0
3, 72126, Note_on_c, 1, 48, 53
3, 72231, Note_on_c, 1, 48, 0
3, 72244, Note_on_c, 1, 45, 49
3, 72340, Note_on_c, 1, 45, 0
3, 72358, Note_on_c, 1, 44, 50
3, 72527, Note_on_c, 1, 44, 0
3, 72567, Note_on_c, 1, 44, 53
3, 72595, Note_on_c, 1, 44, 0
3, 72610, Note_on_c, 1, 43, 43
3, 72757, Note_on_c, 1, 43, 0
3, 72772, Note_on_c, 1, 44, 52
3, 72795, Note_on_c, 1, 44, 0
3, 72799, Note_on_c, 1, 43, 59
3, 72819, Note_on_c, 1, 43, 0
3, 72844, Note_on_c, 1, 42, 53
3, 73044, Note_on_c, 1, 45, 37
3, 73062, Note_on_c, 1, 45, 0
3, 73073, Note_on_c, 1, 42, 0
3, 73082, Note_on_c, 1, 48, 62
3, 73101, Note_on_c, 1, 48, 0
3, 73158, Note_on_c, 1, 39, 45
3, 73191, Note_on_c, 1, 39, 0
3, 73204, Note_on_c, 1, 40, 34
3, 73313, Note_on_c, 1, 40, 0
3, 73321, Note_on_c, 1, 41, 32
3, 73442, Note_on_c, 1, 52, 67
3, 73459, Note_on_c, 1, 41, 0
3, 73460, Note_on_c, 1, 52, 0
3, 73473, Note_on_c, 1, 53, 57
3, 73561, Note_on_c, 1, 53, 0
3, 73569, Note_on_c, 1, 50, 35
3, 73596, Note_on_c, 1, 50, 0
3, 73640, Note_on_c, 1, 51, 68
3, 73673, Note_on_c, 1, 51, 0
3, 73685, Note_on_c, 1, 48, 43
3, 73703, Note_on_c, 1, 48, 0
3, 73763, Note_on_c, 1, 46, 42
3, 73787, Note_on_c, 1, 46, 0
3, 73802, Note_on_c, 1, 47, 33
3, 73836, Note_on_c, 1, 47, 0
3, 73875, Note_on_c, 1, 43, 53
3, 73889, Note_on_c, 1, 43, 0
3, 73916, Note_on_c, 1, 40, 53
3, 74200, Note_on_c, 1, 40, 0
3, 74203, Note_on_c, 1, 35, 37
3, 74219, Note_on_c, 1, 35, 0
3, 74242, Note_on_c, 1, 34, 60
3, 74267, Note_on_c, 1, 34, 0
3, 74282, Note_on_c, 1, 33, 51
3, 74363, Note_on_c, 1, 47, 66
3, 74372, Note_on_c, 1, 33, 0
3, 74385, Note_on_c, 1, 47, 0
3, 74405, Note_on_c, 1, 45, 46
3, 74505, Note_on_c, 1, 45, 0
3, 74521, Note_on_c, 1, 40, 44
3, 74636, Note_on_c, 1, 40, 0
3, 74644, Note_on_c, 1, 39, 61
3, 74758, Note_on_c, 1, 39, 0
3, 74765, Note_on_c, 1, 38, 51
3, 74849, Note_on_c, 1, 39, 56
3, 74861, Note_on_c, 1, 38, 0
3, 74867, Note_on_c, 1, 39, 0
3, 74885, Note_on_c, 1, 52, 96
3, 74998, Note_on_c, 1, 52, 0
3, 75006, Note_on_c, 1, 50, 59
3, 75123, Note_on_c, 1, 50, 0
3, 75128, Note_on_c, 1, 44, 68
3, 75237, Note_on_c, 1, 44, 0
3, 75250, Note_on_c, 1, 43, 55
3, 75336, Note_on_c, 1, 42, 44
3, 75354, Note_on_c, 1, 43, 0
3, 75364, Note_on_c, 1, 55, 95
3, 75372, Note_on_c, 1, 42, 0
3, 75453, Note_on_c, 1, 41, 17
3, 75464, Note_on_c, 1, 41, 0
3, 75473, Note_on_c, 1, 55, 0
3, 75484, Note_on_c, 1, 53, 64
3, 75574, Note_on_c, 1, 41, 41
3, 75585, Note_on_c, 1, 41, 0
3, 75585, Note_on_c, 1, 53, 0
3, 75604, Note_on_c, 1, 51, 57
3, 75712, Note_on_c, 1, 51, 0
3, 75723, Note_on_c, 1, 52, 60
3, 75804, Note_on_c, 1, 40, 58
3, 75829, Note_on_c, 1, 52, 0
3, 75830, Note_on_c, 1, 40, 0
3, 75844, Note_on_c, 1, 28, 83
3, 76036, Note_on_c, 1, 28, 0
3, 76042, Note_on_c, 1, 35, 50
3, 76053, Note_on_c, 1, 35, 0
3, 76077, Note_on_c, 1, 34, 68
3, 76181, Note_on_c, 1, 34, 0
3, 76192, Note_on_c, 1, 33, 65
3, 76318, Note_on_c, 1, 33, 0
3, 76321, Note_on_c, 1, 35, 76
3, 76573, Note_on_c, 1, 36, 92
3, 76580, Note_on_c, 1, 35, 0
3, 76687, Note_on_c, 1, 44, 81
3, 76693, Note_on_c, 1, 36, 0
3, 76804, Note_on_c, 1, 32, 77
3, 76819, Note_on_c, 1, 44, 0
3, 76928, Note_on_c, 1, 48, 103
3, 77046, Note_on_c, 1, 48, 0
3, 77051, Note_on_c, 1, 44, 80
3, 77059, Note_on_c, 1, 32, 0
3, 77172, Note_on_c, 1, 31, 94
3, 77176, Note_on_c, 1, 44, 0
3, 77298, Note_on_c, 1, 47, 103
3, 77322, Note_on_c, 1, 31, 0
3, 77488, Note_on_c, 1, 33, 88
3, 77546, Note_on_c, 1, 33, 0
3, 77574, Note_on_c, 1, 47, 0
3, 77579, Note_on_c, 1, 32, 83
3, 77637, Note_on_c, 1, 32, 0
3, 77652, Note_on_c, 1, 31, 91
3, 77991, Note_on_c, 1, 31, 0
3, 78007, Note_on_c, 1, 38, 94
3, 78014, Note_on_c, 1, 32, 57
3, 78021, Note_on_c, 1, 32, 0
3, 78212, Note_on_c, 1, 35, 68
3, 78220, Note_on_c, 1, 38, 0
3, 78237, Note_on_c, 1, 35, 0
3, 78251, Note_on_c, 1, 36, 105
3, 78529, Note_on_c, 1, 31, 66
3, 78531, Note_on_c, 1, 36, 0
3, 78545, Note_on_c, 1, 31, 0
3, 78562, Note_on_c, 1, 30, 71
3, 78585, Note_on_c, 1, 30, 0
3, 78604, Note_on_c, 1, 29, 79
3, 78724, Note_on_c, 1, 43, 92
3, 78842, Note_on_c, 1, 43, 0
3, 78847, Note_on_c, 1, 41, 82
3, 78855, Note_on_c, 1, 29, 0
3, 79289, Note_on_c, 1, 36, 92
3, 79295, Note_on_c, 1, 41, 0
3, 79313, Note_on_c, 1, 36, 0
3, 79333, Note_on_c, 1, 34, 83
3, 79432, Note_on_c, 1, 34, 0
3, 79448, Note_on_c, 1, 34, 80
3, 79566, Note_on_c, 1, 34, 0
3, 79572, Note_on_c, 1, 39, 83
3, 79674, Note_on_c, 1, 39, 0
3, 79693, Note_on_c, 1, 39, 83
3, 79931, Note_on_c, 1, 39, 0
3, 79933, Note_on_c, 1, 34, 83
3, 80243, Note_on_c, 1, 39, 81
3, 80279, Note_on_c, 1, 39, 0
3, 80287, Note_on_c, 1, 34, 0
3, 80288, Note_on_c, 1, 39, 65
3, 80400, Note_on_c, 1, 39, 0
3, 80404, Note_on_c, 1, 32, 80
3, 80519, Note_on_c, 1, 32, 0
3, 80533, Note_on_c, 1, 37, 82
3, 80608, Note_on_c, 1, 37, 0
3, 80647, Note_on_c, 1, 37, 79
3, 80885, Note_on_c, 1, 44, 83
3, 80909, Note_on_c, 1, 37, 0
3, 80960, Note_on_c, 1, 37, 34
3, 80987, Note_on_c, 1, 44, 0
3, 80992, Note_on_c, 1, 37, 0
3, 81009, Note_on_c, 1, 48, 94
3, 81238, Note_on_c, 1, 48, 0
3, 81249, Note_on_c, 1, 47, 68
3, 81351, Note_on_c, 1, 38, 37
3, 81355, Note_on_c, 1, 47, 0
3, 81360, Note_on_c, 1, 38, 0
3, 81369, Note_on_c, 1, 48, 71
3, 81448, Note_on_c, 1, 40, 42
3, 81462, Note_on_c, 1, 48, 0
3, 81477, Note_on_c, 1, 40, 0
3, 81491, Note_on_c, 1, 41, 53
3, 81671, Note_on_c, 1, 41, 0
3, 81686, Note_on_c, 1, 35, 44
3, 81721, Note_on_c, 1, 35, 0
3, 81727, Note_on_c, 1, 36, 50
3, 81960, Note_on_c, 1, 36, 0
3, 81968, Note_on_c, 1, 29, 45
3, 82178, Note_on_c, 1, 36, 31
3, 82189, Note_on_c, 1, 36, 0
3, 82191, Note_on_c, 1, 29, 0
3, 82210, Note_on_c, 1, 41, 88
3, 82436, Note_on_c, 1, 41, 0
3, 82445, Note_on_c, 1, 47, 72
3, 82727, Note_on_c, 1, 41, 64
3, 82732, Note_on_c, 1, 47, 0
3, 82734, Note_on_c, 1, 41, 0
3, 82768, Note_on_c, 1, 38, 57
3, 82790, Note_on_c, 1, 38, 0
3, 82812, Note_on_c, 1, 39, 69
3, 82923, Note_on_c, 1, 39, 0
3, 82929, Note_on_c, 1, 40, 58
3, 83019, Note_on_c, 1, 39, 31
3, 83039, Note_on_c, 1, 39, 0
3, 83039, Note_on_c, 1, 40, 0
3, 83049, Note_on_c, 1, 47, 94
3, 83252, Note_on_c, 1, 39, 50
3, 83270, Note_on_c, 1, 39, 0
3, 83286, Note_on_c, 1, 47, 0
3, 83290, Note_on_c, 1, 44, 55
3, 83317, Note_on_c, 1, 44, 0
3, 83331, Note_on_c, 1, 46, 48
3, 83363, Note_on_c, 1, 44, 40
3, 83365, Note_on_c, 1, 46, 0
3, 83397, Note_on_c, 1, 44, 0
3, 83410, Note_on_c, 1, 45, 68
3, 83648, Note_on_c, 1, 45, 0
3, 83652, Note_on_c, 1, 40, 59
3, 84004, Note_on_c, 1, 40, 0
3, 84007, Note_on_c, 1, 36, 54
3, 84122, Note_on_c, 1, 36, 0
3, 84127, Note_on_c, 1, 32, 71
3, 84242, Note_on_c, 1, 32, 0
3, 84251, Note_on_c, 1, 31, 66
3, 84353, Note_on_c, 1, 31, 0
3, 84366, Note_on_c, 1, 30, 78
3, 84699, Note_on_c, 1, 30, 0
3, 84723, Note_on_c, 1, 30, 87
3, 84820, Note_on_c, 1, 30, 0
3, 84847, Note_on_c, 1, 29, 105
3, 85176, Note_on_c, 1, 36, 103
3, 85212, Note_on_c, 1, 29, 0
3, 85282, Note_on_c, 1, 36, 0
3, 85289, Note_on_c, 1, 29, 79
3, 85311, Note_on_c, 1, 29, 0
3, 85329, Note_on_c, 1, 28, 101
3, 85756, Note_on_c, 1, 28, 0
3, 85760, Note_on_c, 1, 32, 84
3, 85800, Note_on_c, 1, 32, 0
3, 85805, Note_on_c, 1, 33, 101
3, 86049, Note_on_c, 1, 33, 0
3, 86061, Note_on_c, 1, 36, 83
3, 86324, Note_on_c, 1, 38, 84
3, 86331, Note_on_c, 1, 36, 0
3, 87212, Note_on_c, 1, 32, 88
3, 87220, Note_on_c, 1, 38, 0
3, 87553, Note_on_c, 1, 32, 0
3, 87600, Note_on_c, 1, 31, 110
3, 87989, Note_on_c, 1, 43, 94
3, 88010, Note_on_c, 1, 31, 0
3, 88812, Note_on_c, 1, 31, 74
3, 88975, Note_on_c, 1, 43, 0
3, 89719, Note_on_c, 1, 31, 0
3, 89719, End_track
4, 0, Start_track
4, 0, Title_t, ""
4, 0, Program_c, 1, 32
4, 0, Control_c, 1, 7, 127
4, 0, End_track
5, 0, Start_track
5, 0, Title_t, ""
5, 0, Program_c, 9, 32
5, 0, Control_c, 9, 7, 84
5, 12844, Note_on_c, 9, 59, 48
5, 12858, Note_on_c, 9, 59, 0
5, 12898, Note_on_c, 9, 59, 55
5, 12930, Note_on_c, 9, 59, 0
5, 13004, Note_on_c, 9, 44, 44
5, 13033, Note_on_c, 9, 44, 0
5, 13092, Note_on_c, 9, 59, 55
5, 13102, Note_on_c, 9, 59, 0
5, 13125, Note_on_c, 9, 44, 43
5, 13131, Note_on_c, 9, 59, 81
5, 13161, Note_on_c, 9, 44, 0
5, 13194, Note_on_c, 9, 59, 0
5, 13364, Note_on_c, 9, 59, 91
5, 13367, Note_on_c, 9, 44, 35
5, 13385, Note_on_c, 9, 59, 0
5, 13392, Note_on_c, 9, 44, 0
5, 13440, Note_on_c, 9, 53, 79
5, 13470, Note_on_c, 9, 53, 0
5, 13484, Note_on_c, 9, 46, 43
5, 13503, Note_on_c, 9, 46, 0
5, 13685, Note_on_c, 9, 53, 56
5, 13697, Note_on_c, 9, 53, 0
5, 13724, Note_on_c, 9, 59, 83
5, 13725, Note_on_c, 9, 44, 33
5, 13750, Note_on_c, 9, 44, 0
5, 13779, Note_on_c, 9, 59, 0
5, 13801, Note_on_c, 9, 59, 62
5, 13826, Note_on_c, 9, 59, 0
5, 13915, Note_on_c, 9, 53, 59
5, 13929, Note_on_c, 9, 53, 0
5, 13956, Note_on_c, 9, 59, 68
5, 14009, Note_on_c, 9, 59, 0
5, 14041, Note_on_c, 9, 59, 56
5, 14053, Note_on_c, 9, 59, 0
5, 14070, Note_on_c, 9, 44, 33
5, 14091, Note_on_c, 9, 44, 0
5, 14190, Note_on_c, 9, 44, 38
5, 14194, Note_on_c, 9, 59, 67
5, 14209, Note_on_c, 9, 59, 0
5, 14211, Note_on_c, 9, 44, 0
5, 14272, Note_on_c, 9, 38, 26
5, 14278, Note_on_c, 9, 59, 50
5, 14290, Note_on_c, 9, 59, 0
5, 14291, Note_on_c, 9, 38, 0
5, 14310, Note_on_c, 9, 59, 64
5, 14326, Note_on_c, 9, 38, 30
5, 14357, Note_on_c, 9, 38, 0
5, 14367, Note_on_c, 9, 59, 0
5, 14427, Note_on_c, 9, 59, 88
5, 14427, Note_on_c, 9, 44, 34
5, 14452, Note_on_c, 9, 44, 0
5, 14460, Note_on_c, 9, 59, 0
5, 14552, Note_on_c, 9, 59, 96
5, 14608, Note_on_c, 9, 59, 0
5, 14677, Note_on_c, 9, 59, 32
5, 14715, Note_on_c, 9, 59, 0
5, 14761, Note_on_c, 9, 59, 60
5, 14776, Note_on_c, 9, 59, 0
5, 14793, Note_on_c, 9, 46, 51
5, 14804, Note_on_c, 9, 46, 0
5, 14805, Note_on_c, 9, 59, 91
5, 14877, Note_on_c, 9, 59, 0
5, 14923, Note_on_c, 9, 59, 103
5, 14999, Note_on_c, 9, 44, 37
5, 15001, Note_on_c, 9, 40, 55
5, 15007, Note_on_c, 9, 59, 0
5, 15013, Note_on_c, 9, 40, 0
5, 15017, Note_on_c, 9, 44, 0
5, 15052, Note_on_c, 9, 38, 27
5, 15067, Note_on_c, 9, 59, 32
5, 15084, Note_on_c, 9, 59, 0
5, 15102, Note_on_c, 9, 38, 0
5, 15139, Note_on_c, 9, 59, 95
5, 15214, Note_on_c, 9, 59, 0
5, 15240, Note_on_c, 9, 44, 52
5, 15257, Note_on_c, 9, 44, 0
5, 15264, Note_on_c, 9, 59, 54
5, 15274, Note_on_c, 9, 59, 0
5, 15301, Note_on_c, 9, 59, 89
5, 15363, Note_on_c, 9, 44, 63
5, 15382, Note_on_c, 9, 44, 0
5, 15387, Note_on_c, 9, 59, 0
5, 15483, Note_on_c, 9, 44, 53
5, 15489, Note_on_c, 9, 40, 43
5, 15501, Note_on_c, 9, 44, 0
5, 15502, Note_on_c, 9, 40, 0
5, 15502, Note_on_c, 9, 59, 48
5, 15513, Note_on_c, 9, 59, 0
5, 15540, Note_on_c, 9, 59, 75
5, 15563, Note_on_c, 9, 59, 0
5, 15600, Note_on_c, 9, 40, 48
5, 15605, Note_on_c, 9, 44, 52
5, 15613, Note_on_c, 9, 40, 0
5, 15623, Note_on_c, 9, 44, 0
5, 15655, Note_on_c, 9, 59, 108
5, 15684, Note_on_c, 9, 59, 0
5, 15718, Note_on_c, 9, 40, 53
5, 15725, Note_on_c, 9, 57, 70
5, 15727, Note_on_c, 9, 46, 52
5, 15728, Note_on_c, 9, 44, 39
5, 15730, Note_on_c, 9, 40, 0
5, 15732, Note_on_c, 9, 57, 0
5, 15739, Note_on_c, 9, 44, 0
5, 15741, Note_on_c, 9, 46, 0
5, 15764, Note_on_c, 9, 36, 45
5, 15775, Note_on_c, 9, 59, 99
5, 15782, Note_on_c, 9, 36, 0
5, 15814, Note_on_c, 9, 59, 0
5, 15899, Note_on_c, 9, 59, 59
5, 15913, Note_on_c, 9, 59, 0
5, 15968, Note_on_c, 9, 53, 82
5, 15997, Note_on_c, 9, 53, 0
5, 16013, Note_on_c, 9, 59, 63
5, 16051, Note_on_c, 9, 59, 0
5, 16076, Note_on_c, 9, 44, 36
5, 16088, Note_on_c, 9, 53, 78
5, 16100, Note_on_c, 9, 44, 0
5, 16119, Note_on_c, 9, 44, 35
5, 16125, Note_on_c, 9, 53, 0
5, 16145, Note_on_c, 9, 59, 66
5, 16154, Note_on_c, 9, 44, 0
5, 16191, Note_on_c, 9, 59, 0
5, 16251, Note_on_c, 9, 59, 62
5, 16277, Note_on_c, 9, 59, 0
5, 16316, Note_on_c, 9, 44, 32
5, 16337, Note_on_c, 9, 59, 84
5, 16341, Note_on_c, 9, 44, 0
5, 16362, Note_on_c, 9, 59, 0
5, 16455, Note_on_c, 9, 59, 53
5, 16467, Note_on_c, 9, 59, 0
5, 16493, Note_on_c, 9, 59, 76
5, 16551, Note_on_c, 9, 59, 0
5, 16610, Note_on_c, 9, 59, 54
5, 16623, Note_on_c, 9, 59, 0
5, 16686, Note_on_c, 9, 59, 84
5, 16696, Note_on_c, 9, 44, 37
5, 16710, Note_on_c, 9, 59, 0
5, 16718, Note_on_c, 9, 44, 0
5, 16742, Note_on_c, 9, 44, 27
5, 16805, Note_on_c, 9, 44, 0
5, 16813, Note_on_c, 9, 36, 30
5, 16834, Note_on_c, 9, 36, 0
5, 16871, Note_on_c, 9, 59, 85
5, 16930, Note_on_c, 9, 59, 0
5, 16987, Note_on_c, 9, 37, 63
5, 16988, Note_on_c, 9, 59, 50
5, 16999, Note_on_c, 9, 59, 0
5, 17024, Note_on_c, 9, 37, 0
5, 17041, Note_on_c, 9, 44, 54
5, 17067, Note_on_c, 9, 59, 92
5, 17068, Note_on_c, 9, 44, 0
5, 17089, Note_on_c, 9, 36, 27
5, 17093, Note_on_c, 9, 59, 0
5, 17106, Note_on_c, 9, 37, 69
5, 17119, Note_on_c, 9, 36, 0
5, 17154, Note_on_c, 9, 37, 0
5, 17159, Note_on_c, 9, 36, 46
5, 17189, Note_on_c, 9, 36, 0
5, 17193, Note_on_c, 9, 59, 55
5, 17206, Note_on_c, 9, 59, 0
5, 17239, Note_on_c, 9, 59, 92
5, 17291, Note_on_c, 9, 59, 0
5, 17342, Note_on_c, 9, 59, 58
5, 17355, Note_on_c, 9, 59, 0
5, 17410, Note_on_c, 9, 59, 69
5, 17420, Note_on_c, 9, 59, 0
5, 17522, Note_on_c, 9, 59, 66
5, 17536, Note_on_c, 9, 59, 0
5, 17561, Note_on_c, 9, 59, 75
5, 17615, Note_on_c, 9, 59, 0
5, 17686, Note_on_c, 9, 59, 64
5, 17712, Note_on_c, 9, 59, 0
5, 17794, Note_on_c, 9, 44, 37
5, 17802, Note_on_c, 9, 59, 72
5, 17828, Note_on_c, 9, 59, 0
5, 17828, Note_on_c, 9, 44, 0
5, 17877, Note_on_c, 9, 36, 32
5, 17879, Note_on_c, 9, 53, 69
5, 17891, Note_on_c, 9, 36, 0
5, 17904, Note_on_c, 9, 53, 0
5, 17923, Note_on_c, 9, 36, 36
5, 17925, Note_on_c, 9, 59, 54
5, 17985, Note_on_c, 9, 59, 0
5, 17989, Note_on_c, 9, 36, 0
5, 18034, Note_on_c, 9, 44, 45
5, 18041, Note_on_c, 9, 59, 38
5, 18073, Note_on_c, 9, 59, 0
5, 18076, Note_on_c, 9, 44, 0
5, 18151, Note_on_c, 9, 59, 56
5, 18157, Note_on_c, 9, 44, 46
5, 18181, Note_on_c, 9, 59, 0
5, 18190, Note_on_c, 9, 44, 0
5, 18238, Note_on_c, 9, 59, 50
5, 18252, Note_on_c, 9, 59, 0
5, 18282, Note_on_c, 9, 59, 50
5, 18293, Note_on_c, 9, 38, 64
5, 18308, Note_on_c, 9, 59, 0
5, 18320, Note_on_c, 9, 38, 0
5, 18367, Note_on_c, 9, 36, 31
5, 18381, Note_on_c, 9, 36, 0
5, 18393, Note_on_c, 9, 46, 37
5, 18404, Note_on_c, 9, 38, 51
5, 18408, Note_on_c, 9, 59, 44
5, 18413, Note_on_c, 9, 46, 0
5, 18422, Note_on_c, 9, 59, 0
5, 18452, Note_on_c, 9, 38, 0
5, 18481, Note_on_c, 9, 36, 48
5, 18500, Note_on_c, 9, 36, 0
5, 18519, Note_on_c, 9, 59, 57
5, 18538, Note_on_c, 9, 59, 0
5, 18614, Note_on_c, 9, 59, 48
5, 18627, Note_on_c, 9, 59, 0
5, 18654, Note_on_c, 9, 59, 69
5, 18680, Note_on_c, 9, 59, 0
5, 18766, Note_on_c, 9, 44, 55
5, 18773, Note_on_c, 9, 59, 88
5, 18782, Note_on_c, 9, 44, 0
5, 18812, Note_on_c, 9, 59, 0
5, 18837, Note_on_c, 9, 38, 47
5, 18845, Note_on_c, 9, 44, 51
5, 18848, Note_on_c, 9, 38, 0
5, 18864, Note_on_c, 9, 44, 0
5, 18885, Note_on_c, 9, 36, 35
5, 18888, Note_on_c, 9, 44, 59
5, 18898, Note_on_c, 9, 59, 99
5, 18907, Note_on_c, 9, 36, 0
5, 18915, Note_on_c, 9, 44, 0
5, 18967, Note_on_c, 9, 59, 0
5, 19022, Note_on_c, 9, 59, 41
5, 19051, Note_on_c, 9, 59, 0
5, 19093, Note_on_c, 9, 38, 51
5, 19094, Note_on_c, 9, 59, 73
5, 19103, Note_on_c, 9, 38, 0
5, 19111, Note_on_c, 9, 59, 0
5, 19130, Note_on_c, 9, 44, 34
5, 19143, Note_on_c, 9, 59, 92
5, 19144, Note_on_c, 9, 44, 0
5, 19144, Note_on_c, 9, 36, 36
5, 19160, Note_on_c, 9, 36, 0
5, 19206, Note_on_c, 9, 46, 61
5, 19207, Note_on_c, 9, 59, 0
5, 19228, Note_on_c, 9, 46, 0
5, 19250, Note_on_c, 9, 36, 50
5, 19259, Note_on_c, 9, 59, 96
5, 19275, Note_on_c, 9, 36, 0
5, 19321, Note_on_c, 9, 44, 46
5, 19330, Note_on_c, 9, 59, 0
5, 19341, Note_on_c, 9, 44, 0
5, 19380, Note_on_c, 9, 46, 68
5, 19404, Note_on_c, 9, 46, 0
5, 19453, Note_on_c, 9, 59, 71
5, 19486, Note_on_c, 9, 59, 0
5, 19492, Note_on_c, 9, 44, 43
5, 19505, Note_on_c, 9, 44, 0
5, 19569, Note_on_c, 9, 46, 74
5, 19572, Note_on_c, 9, 59, 55
5, 19587, Note_on_c, 9, 59, 0
5, 19600, Note_on_c, 9, 46, 0
5, 19614, Note_on_c, 9, 59, 62
5, 19648, Note_on_c, 9, 59, 0
5, 19696, Note_on_c, 9, 44, 32
5, 19714, Note_on_c, 9, 44, 0
5, 19744, Note_on_c, 9, 59, 80
5, 19762, Note_on_c, 9, 46, 52
5, 19793, Note_on_c, 9, 46, 0
5, 19888, Note_on_c, 9, 59, 0
5, 20774, Note_on_c, 9, 59, 29
5, 20854, Note_on_c, 9, 59, 0
5, 49051, Note_on_c, 9, 59, 58
5, 49066, Note_on_c, 9, 59, 0
5, 49105, Note_on_c, 9, 59, 57
5, 49130, Note_on_c, 9, 59, 0
5, 49294, Note_on_c, 9, 59, 54
5, 49307, Note_on_c, 9, 59, 0
5, 49340, Note_on_c, 9, 59, 64
5, 49369, Note_on_c, 9, 59, 0
5, 49661, Note_on_c, 9, 59, 52
5, 49673, Note_on_c, 9, 59, 0
5, 49705, Note_on_c, 9, 59, 57
5, 49716, Note_on_c, 9, 59, 0
5, 49817, Note_on_c, 9, 59, 90
5, 49839, Note_on_c, 9, 59, 0
5, 49926, Note_on_c, 9, 44, 59
5, 49940, Note_on_c, 9, 59, 94
5, 49965, Note_on_c, 9, 59, 0
5, 49965, Note_on_c, 9, 44, 0
5, 50161, Note_on_c, 9, 44, 55
5, 50201, Note_on_c, 9, 44, 0
5, 50255, Note_on_c, 9, 59, 43
5, 50269, Note_on_c, 9, 59, 0
5, 50294, Note_on_c, 9, 59, 62
5, 50320, Note_on_c, 9, 59, 0
5, 50381, Note_on_c, 9, 59, 89
5, 50398, Note_on_c, 9, 59, 0
5, 50399, Note_on_c, 9, 44, 56
5, 50447, Note_on_c, 9, 44, 0
5, 50495, Note_on_c, 9, 59, 94
5, 50515, Note_on_c, 9, 59, 0
5, 50616, Note_on_c, 9, 59, 77
5, 50640, Note_on_c, 9, 59, 0
5, 50645, Note_on_c, 9, 44, 50
5, 50679, Note_on_c, 9, 44, 0
5, 50733, Note_on_c, 9, 59, 44
5, 50746, Note_on_c, 9, 59, 0
5, 50767, Note_on_c, 9, 59, 69
5, 50813, Note_on_c, 9, 59, 0
5, 50882, Note_on_c, 9, 44, 63
5, 50907, Note_on_c, 9, 44, 0
5, 50974, Note_on_c, 9, 59, 51
5, 50991, Note_on_c, 9, 59, 0
5, 51020, Note_on_c, 9, 59, 54
5, 51055, Note_on_c, 9, 59, 0
5, 51099, Note_on_c, 9, 53, 68
5, 51123, Note_on_c, 9, 53, 0
5, 51128, Note_on_c, 9, 44, 62
5, 51146, Note_on_c, 9, 59, 46
5, 51159, Note_on_c, 9, 44, 0
5, 51184, Note_on_c, 9, 59, 0
5, 51262, Note_on_c, 9, 59, 54
5, 51294, Note_on_c, 9, 59, 0
5, 51363, Note_on_c, 9, 44, 56
5, 51369, Note_on_c, 9, 59, 57
5, 51390, Note_on_c, 9, 59, 0
5, 51392, Note_on_c, 9, 44, 0
5, 51484, Note_on_c, 9, 59, 60
5, 51509, Note_on_c, 9, 59, 0
5, 51559, Note_on_c, 9, 38, 68
5, 51586, Note_on_c, 9, 38, 0
5, 51608, Note_on_c, 9, 36, 50
5, 51649, Note_on_c, 9, 36, 0
5, 51685, Note_on_c, 9, 59, 46
5, 51700, Note_on_c, 9, 59, 0
5, 51728, Note_on_c, 9, 59, 51
5, 51766, Note_on_c, 9, 59, 0
5, 51839, Note_on_c, 9, 44, 55
5, 51873, Note_on_c, 9, 44, 0
5, 51923, Note_on_c, 9, 59, 50
5, 51937, Note_on_c, 9, 59, 0
5, 51971, Note_on_c, 9, 59, 50
5, 51989, Note_on_c, 9, 59, 0
5, 52028, Note_on_c, 9, 44, 52
5, 52046, Note_on_c, 9, 44, 0
5, 52075, Note_on_c, 9, 44, 48
5, 52086, Note_on_c, 9, 59, 34
5, 52095, Note_on_c, 9, 44, 0
5, 52118, Note_on_c, 9, 59, 0
5, 52154, Note_on_c, 9, 44, 42
5, 52168, Note_on_c, 9, 44, 0
5, 52206, Note_on_c, 9, 59, 28
5, 52240, Note_on_c, 9, 59, 0
5, 52268, Note_on_c, 9, 44, 40
5, 52270, Note_on_c, 9, 38, 54
5, 52292, Note_on_c, 9, 44, 0
5, 52299, Note_on_c, 9, 38, 0
5, 52312, Note_on_c, 9, 57, 54
5, 52321, Note_on_c, 9, 36, 54
5, 52325, Note_on_c, 9, 57, 0
5, 52328, Note_on_c, 9, 59, 38
5, 52344, Note_on_c, 9, 59, 0
5, 52350, Note_on_c, 9, 36, 0
5, 52399, Note_on_c, 9, 59, 32
5, 52412, Note_on_c, 9, 59, 0
5, 52439, Note_on_c, 9, 59, 36
5, 52453, Note_on_c, 9, 59, 0
5, 52511, Note_on_c, 9, 59, 76
5, 52527, Note_on_c, 9, 59, 0
5, 52559, Note_on_c, 9, 59, 60
5, 52573, Note_on_c, 9, 59, 0
5, 52662, Note_on_c, 9, 59, 66
5, 52673, Note_on_c, 9, 59, 0
5, 52805, Note_on_c, 9, 44, 63
5, 52834, Note_on_c, 9, 44, 0
5, 52872, Note_on_c, 9, 59, 34
5, 52887, Note_on_c, 9, 59, 0
5, 52910, Note_on_c, 9, 59, 43
5, 52941, Note_on_c, 9, 59, 0
5, 52983, Note_on_c, 9, 53, 82
5, 53003, Note_on_c, 9, 53, 0
5, 53041, Note_on_c, 9, 44, 57
5, 53079, Note_on_c, 9, 44, 0
5, 53235, Note_on_c, 9, 59, 48
5, 53249, Note_on_c, 9, 59, 0
5, 53280, Note_on_c, 9, 59, 48
5, 53282, Note_on_c, 9, 46, 51
5, 53300, Note_on_c, 9, 46, 0
5, 53316, Note_on_c, 9, 59, 0
5, 53357, Note_on_c, 9, 59, 81
5, 53415, Note_on_c, 9, 59, 0
5, 53489, Note_on_c, 9, 59, 38
5, 53508, Note_on_c, 9, 59, 0
5, 53525, Note_on_c, 9, 44, 53
5, 53538, Note_on_c, 9, 59, 44
5, 53551, Note_on_c, 9, 59, 0
5, 53551, Note_on_c, 9, 44, 0
5, 53609, Note_on_c, 9, 59, 87
5, 53636, Note_on_c, 9, 59, 0
5, 53765, Note_on_c, 9, 44, 61
5, 53794, Note_on_c, 9, 44, 0
5, 53843, Note_on_c, 9, 51, 62
5, 53867, Note_on_c, 9, 51, 0
5, 53998, Note_on_c, 9, 44, 64
5, 54022, Note_on_c, 9, 44, 0
5, 54090, Note_on_c, 9, 51, 59
5, 54091, Note_on_c, 9, 53, 68
5, 54114, Note_on_c, 9, 53, 0
5, 54115, Note_on_c, 9, 51, 0
5, 54138, Note_on_c, 9, 59, 65
5, 54174, Note_on_c, 9, 59, 0
5, 54241, Note_on_c, 9, 44, 46
5, 54270, Note_on_c, 9, 44, 0
5, 54436, Note_on_c, 9, 38, 69
5, 54450, Note_on_c, 9, 59, 64
5, 54462, Note_on_c, 9, 38, 0
5, 54463, Note_on_c, 9, 59, 0
5, 54487, Note_on_c, 9, 59, 67
5, 54533, Note_on_c, 9, 59, 0
5, 54555, Note_on_c, 9, 38, 69
5, 54586, Note_on_c, 9, 38, 0
5, 54600, Note_on_c, 9, 59, 110
5, 54614, Note_on_c, 9, 36, 52
5, 54641, Note_on_c, 9, 36, 0
5, 54669, Note_on_c, 9, 59, 0
5, 54723, Note_on_c, 9, 59, 75
5, 54760, Note_on_c, 9, 59, 0
5, 54811, Note_on_c, 9, 59, 51
5, 54828, Note_on_c, 9, 59, 0
5, 54851, Note_on_c, 9, 59, 62
5, 54907, Note_on_c, 9, 59, 0
5, 54930, Note_on_c, 9, 38, 52
5, 54960, Note_on_c, 9, 38, 0
5, 54973, Note_on_c, 9, 57, 66
5, 54977, Note_on_c, 9, 36, 44
5, 55000, Note_on_c, 9, 57, 0
5, 55018, Note_on_c, 9, 36, 0
5, 55054, Note_on_c, 9, 59, 57
5, 55068, Note_on_c, 9, 59, 0
5, 55099, Note_on_c, 9, 59, 57
5, 55154, Note_on_c, 9, 59, 0
5, 55218, Note_on_c, 9, 59, 91
5, 55275, Note_on_c, 9, 59, 0
5, 55344, Note_on_c, 9, 59, 32
5, 55358, Note_on_c, 9, 59, 0
5, 55411, Note_on_c, 9, 59, 71
5, 55437, Note_on_c, 9, 59, 0
5, 55455, Note_on_c, 9, 59, 78
5, 55523, Note_on_c, 9, 59, 0
5, 55578, Note_on_c, 9, 59, 90
5, 55627, Note_on_c, 9, 59, 0
5, 55643, Note_on_c, 9, 38, 44
5, 55655, Note_on_c, 9, 38, 0
5, 55692, Note_on_c, 9, 59, 77
5, 55742, Note_on_c, 9, 59, 0
5, 55764, Note_on_c, 9, 38, 55
5, 55775, Note_on_c, 9, 38, 0
5, 55813, Note_on_c, 9, 59, 71
5, 55855, Note_on_c, 9, 59, 0
5, 55881, Note_on_c, 9, 38, 43
5, 55884, Note_on_c, 9, 59, 46
5, 55895, Note_on_c, 9, 38, 0
5, 55907, Note_on_c, 9, 59, 0
5, 55996, Note_on_c, 9, 38, 58
5, 56003, Note_on_c, 9, 59, 64
5, 56015, Note_on_c, 9, 38, 0
5, 56025, Note_on_c, 9, 59, 0
5, 56121, Note_on_c, 9, 44, 51
5, 56146, Note_on_c, 9, 44, 0
5, 56159, Note_on_c, 9, 38, 39
5, 56163, Note_on_c, 9, 59, 55
5, 56187, Note_on_c, 9, 38, 0
5, 56192, Note_on_c, 9, 59, 0
5, 56237, Note_on_c, 9, 38, 54
5, 56254, Note_on_c, 9, 38, 0
5, 56355, Note_on_c, 9, 38, 63
5, 56355, Note_on_c, 9, 40, 50
5, 56363, Note_on_c, 9, 59, 50
5, 56368, Note_on_c, 9, 38, 0
5, 56369, Note_on_c, 9, 40, 0
5, 56378, Note_on_c, 9, 59, 0
5, 56411, Note_on_c, 9, 59, 38
5, 56429, Note_on_c, 9, 59, 0
5, 56469, Note_on_c, 9, 46, 45
5, 56471, Note_on_c, 9, 38, 55
5, 56482, Note_on_c, 9, 46, 0
5, 56500, Note_on_c, 9, 38, 0
5, 56519, Note_on_c, 9, 57, 58
5, 56521, Note_on_c, 9, 36, 54
5, 56524, Note_on_c, 9, 59, 39
5, 56550, Note_on_c, 9, 57, 0
5, 56558, Note_on_c, 9, 36, 0
5, 56571, Note_on_c, 9, 59, 0
5, 56636, Note_on_c, 9, 59, 58
5, 56661, Note_on_c, 9, 59, 0
5, 56723, Note_on_c, 9, 59, 54
5, 56736, Note_on_c, 9, 59, 0
5, 56763, Note_on_c, 9, 59, 43
5, 56804, Note_on_c, 9, 59, 0
5, 56961, Note_on_c, 9, 59, 66
5, 56973, Note_on_c, 9, 59, 0
5, 57088, Note_on_c, 9, 59, 70
5, 57098, Note_on_c, 9, 59, 0
5, 57206, Note_on_c, 9, 59, 58
5, 57219, Note_on_c, 9, 59, 0
5, 57246, Note_on_c, 9, 59, 62
5, 57288, Note_on_c, 9, 59, 0
5, 57360, Note_on_c, 9, 44, 64
5, 57366, Note_on_c, 9, 59, 68
5, 57388, Note_on_c, 9, 59, 0
5, 57403, Note_on_c, 9, 44, 0
5, 57448, Note_on_c, 9, 59, 72
5, 57470, Note_on_c, 9, 59, 0
5, 57497, Note_on_c, 9, 59, 34
5, 57518, Note_on_c, 9, 59, 0
5, 57602, Note_on_c, 9, 59, 85
5, 57607, Note_on_c, 9, 44, 76
5, 57641, Note_on_c, 9, 44, 0
5, 57664, Note_on_c, 9, 59, 0
5, 57725, Note_on_c, 9, 59, 55
5, 57741, Note_on_c, 9, 59, 0
5, 57805, Note_on_c, 9, 59, 79
5, 57834, Note_on_c, 9, 59, 0
5, 57837, Note_on_c, 9, 44, 71
5, 57877, Note_on_c, 9, 44, 0
5, 57921, Note_on_c, 9, 59, 64
5, 57929, Note_on_c, 9, 53, 71
5, 57935, Note_on_c, 9, 59, 0
5, 57949, Note_on_c, 9, 53, 0
5, 58041, Note_on_c, 9, 59, 80
5, 58077, Note_on_c, 9, 59, 0
5, 58083, Note_on_c, 9, 44, 69
5, 58115, Note_on_c, 9, 44, 0
5, 58147, Note_on_c, 9, 59, 68
5, 58172, Note_on_c, 9, 59, 0
5, 58205, Note_on_c, 9, 53, 77
5, 58206, Note_on_c, 9, 59, 74
5, 58258, Note_on_c, 9, 59, 0
5, 58287, Note_on_c, 9, 53, 0
5, 58327, Note_on_c, 9, 59, 58
5, 58329, Note_on_c, 9, 46, 69
5, 58343, Note_on_c, 9, 59, 0
5, 58367, Note_on_c, 9, 46, 0
5, 58403, Note_on_c, 9, 53, 70
5, 58408, Note_on_c, 9, 59, 64
5, 58422, Note_on_c, 9, 53, 0
5, 58431, Note_on_c, 9, 59, 0
5, 58536, Note_on_c, 9, 59, 54
5, 58552, Note_on_c, 9, 59, 0
5, 58562, Note_on_c, 9, 44, 63
5, 58593, Note_on_c, 9, 44, 0
5, 58795, Note_on_c, 9, 44, 56
5, 58826, Note_on_c, 9, 44, 0
5, 58900, Note_on_c, 9, 59, 64
5, 58915, Note_on_c, 9, 59, 0
5, 58944, Note_on_c, 9, 59, 55
5, 59001, Note_on_c, 9, 59, 0
5, 59035, Note_on_c, 9, 44, 44
5, 59054, Note_on_c, 9, 44, 0
5, 59118, Note_on_c, 9, 38, 58
5, 59137, Note_on_c, 9, 59, 61
5, 59147, Note_on_c, 9, 38, 0
5, 59151, Note_on_c, 9, 59, 0
5, 59179, Note_on_c, 9, 59, 56
5, 59229, Note_on_c, 9, 59, 0
5, 59241, Note_on_c, 9, 38, 69
5, 59249, Note_on_c, 9, 53, 69
5, 59268, Note_on_c, 9, 38, 0
5, 59291, Note_on_c, 9, 59, 46
5, 59300, Note_on_c, 9, 53, 0
5, 59339, Note_on_c, 9, 59, 0
5, 59365, Note_on_c, 9, 38, 68
5, 59371, Note_on_c, 9, 53, 55
5, 59391, Note_on_c, 9, 38, 0
5, 59409, Note_on_c, 9, 44, 46
5, 59414, Note_on_c, 9, 59, 63
5, 59415, Note_on_c, 9, 53, 0
5, 59438, Note_on_c, 9, 44, 0
5, 59466, Note_on_c, 9, 59, 0
5, 59495, Note_on_c, 9, 59, 50
5, 59520, Note_on_c, 9, 59, 0
5, 59542, Note_on_c, 9, 59, 66
5, 59576, Note_on_c, 9, 59, 0
5, 59652, Note_on_c, 9, 59, 80
5, 59700, Note_on_c, 9, 59, 0
5, 59761, Note_on_c, 9, 38, 46
5, 59771, Note_on_c, 9, 59, 69
5, 59777, Note_on_c, 9, 38, 0
5, 59819, Note_on_c, 9, 59, 0
5, 59882, Note_on_c, 9, 59, 54
5, 59936, Note_on_c, 9, 59, 0
5, 59961, Note_on_c, 9, 38, 51
5, 59979, Note_on_c, 9, 38, 0
5, 59991, Note_on_c, 9, 59, 51
5, 60003, Note_on_c, 9, 59, 0
5, 60077, Note_on_c, 9, 59, 58
5, 60090, Note_on_c, 9, 59, 0
5, 60198, Note_on_c, 9, 51, 67
5, 60199, Note_on_c, 9, 53, 70
5, 60199, Note_on_c, 9, 38, 60
5, 60220, Note_on_c, 9, 53, 0
5, 60221, Note_on_c, 9, 38, 0
5, 60223, Note_on_c, 9, 51, 0
5, 60241, Note_on_c, 9, 59, 55
5, 60255, Note_on_c, 9, 38, 42
5, 60270, Note_on_c, 9, 38, 0
5, 60281, Note_on_c, 9, 59, 0
5, 60317, Note_on_c, 9, 57, 59
5, 60322, Note_on_c, 9, 51, 75
5, 60322, Note_on_c, 9, 53, 81
5, 60322, Note_on_c, 9, 36, 58
5, 60328, Note_on_c, 9, 57, 0
5, 60333, Note_on_c, 9, 36, 0
5, 60350, Note_on_c, 9, 53, 0
5, 60354, Note_on_c, 9, 51, 0
5, 60372, Note_on_c, 9, 59, 55
5, 60420, Note_on_c, 9, 59, 0
5, 60451, Note_on_c, 9, 59, 40
5, 60468, Note_on_c, 9, 59, 0
5, 60567, Note_on_c, 9, 59, 77
5, 60584, Note_on_c, 9, 59, 0
5, 60612, Note_on_c, 9, 59, 74
5, 60658, Note_on_c, 9, 59, 0
5, 60697, Note_on_c, 9, 59, 76
5, 60716, Note_on_c, 9, 59, 0
5, 60819, Note_on_c, 9, 59, 66
5, 60832, Note_on_c, 9, 59, 0
5, 60861, Note_on_c, 9, 59, 75
5, 60904, Note_on_c, 9, 59, 0
5, 60938, Note_on_c, 9, 59, 70
5, 60958, Note_on_c, 9, 59, 0
5, 61063, Note_on_c, 9, 59, 76
5, 61088, Note_on_c, 9, 59, 0
5, 61109, Note_on_c, 9, 59, 74
5, 61157, Note_on_c, 9, 59, 0
5, 61190, Note_on_c, 9, 59, 77
5, 61201, Note_on_c, 9, 44, 62
5, 61212, Note_on_c, 9, 59, 0
5, 61235, Note_on_c, 9, 44, 0
5, 61305, Note_on_c, 9, 59, 71
5, 61330, Note_on_c, 9, 59, 0
5, 61349, Note_on_c, 9, 59, 61
5, 61357, Note_on_c, 9, 57, 36
5, 61368, Note_on_c, 9, 57, 0
5, 61376, Note_on_c, 9, 59, 0
5, 61445, Note_on_c, 9, 44, 62
5, 61458, Note_on_c, 9, 59, 99
5, 61478, Note_on_c, 9, 44, 0
5, 61528, Note_on_c, 9, 59, 0
5, 61654, Note_on_c, 9, 59, 60
5, 61666, Note_on_c, 9, 59, 0
5, 61678, Note_on_c, 9, 46, 57
5, 61696, Note_on_c, 9, 59, 66
5, 61708, Note_on_c, 9, 46, 0
5, 61720, Note_on_c, 9, 59, 0
5, 61768, Note_on_c, 9, 51, 62
5, 61769, Note_on_c, 9, 59, 79
5, 61771, Note_on_c, 9, 53, 60
5, 61785, Note_on_c, 9, 53, 0
5, 61792, Note_on_c, 9, 59, 0
5, 61798, Note_on_c, 9, 51, 0
5, 61888, Note_on_c, 9, 59, 66
5, 61901, Note_on_c, 9, 59, 0
5, 61922, Note_on_c, 9, 38, 56
5, 61943, Note_on_c, 9, 59, 84
5, 61944, Note_on_c, 9, 38, 0
5, 61944, Note_on_c, 9, 51, 69
5, 61947, Note_on_c, 9, 53, 71
5, 61984, Note_on_c, 9, 53, 0
5, 61987, Note_on_c, 9, 51, 0
5, 61991, Note_on_c, 9, 59, 0
5, 62057, Note_on_c, 9, 59, 58
5, 62068, Note_on_c, 9, 59, 0
5, 62128, Note_on_c, 9, 59, 79
5, 62130, Note_on_c, 9, 38, 64
5, 62151, Note_on_c, 9, 59, 0
5, 62152, Note_on_c, 9, 38, 0
5, 62253, Note_on_c, 9, 59, 64
5, 62266, Note_on_c, 9, 59, 0
5, 62292, Note_on_c, 9, 38, 68
5, 62299, Note_on_c, 9, 59, 71
5, 62300, Note_on_c, 9, 53, 62
5, 62318, Note_on_c, 9, 38, 0
5, 62324, Note_on_c, 9, 59, 0
5, 62328, Note_on_c, 9, 53, 0
5, 62482, Note_on_c, 9, 38, 65
5, 62496, Note_on_c, 9, 59, 71
5, 62503, Note_on_c, 9, 53, 60
5, 62510, Note_on_c, 9, 38, 0
5, 62514, Note_on_c, 9, 59, 0
5, 62527, Note_on_c, 9, 53, 0
5, 62624, Note_on_c, 9, 59, 51
5, 62636, Note_on_c, 9, 59, 0
5, 62650, Note_on_c, 9, 38, 67
5, 62659, Note_on_c, 9, 59, 57
5, 62676, Note_on_c, 9, 38, 0
5, 62685, Note_on_c, 9, 59, 0
5, 62744, Note_on_c, 9, 59, 85
5, 62766, Note_on_c, 9, 59, 0
5, 62972, Note_on_c, 9, 53, 70
5, 62984, Note_on_c, 9, 53, 0
5, 63042, Note_on_c, 9, 59, 30
5, 63054, Note_on_c, 9, 59, 0
5, 63219, Note_on_c, 9, 53, 60
5, 63232, Note_on_c, 9, 53, 0
5, 63264, Note_on_c, 9, 59, 58
5, 63318, Note_on_c, 9, 59, 0
5, 63379, Note_on_c, 9, 59, 71
5, 63436, Note_on_c, 9, 59, 0
5, 63506, Note_on_c, 9, 59, 74
5, 63551, Note_on_c, 9, 59, 0
5, 63582, Note_on_c, 9, 59, 62
5, 63598, Note_on_c, 9, 59, 0
5, 63603, Note_on_c, 9, 44, 62
5, 63636, Note_on_c, 9, 44, 0
5, 63698, Note_on_c, 9, 53, 63
5, 63712, Note_on_c, 9, 53, 0
5, 63825, Note_on_c, 9, 59, 60
5, 63837, Note_on_c, 9, 59, 0
5, 63844, Note_on_c, 9, 44, 64
5, 63870, Note_on_c, 9, 59, 58
5, 63880, Note_on_c, 9, 44, 0
5, 63888, Note_on_c, 9, 59, 0
5, 63940, Note_on_c, 9, 59, 68
5, 63953, Note_on_c, 9, 59, 0
5, 64081, Note_on_c, 9, 44, 57
5, 64114, Note_on_c, 9, 44, 0
5, 64160, Note_on_c, 9, 53, 55
5, 64171, Note_on_c, 9, 53, 0
5, 64201, Note_on_c, 9, 59, 58
5, 64244, Note_on_c, 9, 59, 0
5, 64321, Note_on_c, 9, 46, 57
5, 64347, Note_on_c, 9, 46, 0
5, 64403, Note_on_c, 9, 53, 39
5, 64417, Note_on_c, 9, 53, 0
5, 64441, Note_on_c, 9, 59, 65
5, 64478, Note_on_c, 9, 59, 0
5, 64557, Note_on_c, 9, 44, 45
5, 64585, Note_on_c, 9, 44, 0
5, 64625, Note_on_c, 9, 53, 61
5, 64636, Note_on_c, 9, 53, 0
5, 64669, Note_on_c, 9, 59, 53
5, 64684, Note_on_c, 9, 59, 0
5, 64708, Note_on_c, 9, 59, 58
5, 64726, Note_on_c, 9, 59, 0
5, 64790, Note_on_c, 9, 44, 37
5, 64799, Note_on_c, 9, 59, 64
5, 64807, Note_on_c, 9, 44, 0
5, 64824, Note_on_c, 9, 59, 0
5, 64908, Note_on_c, 9, 59, 71
5, 64931, Note_on_c, 9, 59, 0
5, 64944, Note_on_c, 9, 59, 79
5, 64963, Note_on_c, 9, 59, 0
5, 65008, Note_on_c, 9, 53, 30
5, 65021, Note_on_c, 9, 53, 0
5, 65027, Note_on_c, 9, 38, 43
5, 65042, Note_on_c, 9, 38, 0
5, 65047, Note_on_c, 9, 59, 88
5, 65067, Note_on_c, 9, 38, 57
5, 65069, Note_on_c, 9, 59, 0
5, 65079, Note_on_c, 9, 38, 0
5, 65144, Note_on_c, 9, 59, 47
5, 65157, Note_on_c, 9, 59, 0
5, 65358, Note_on_c, 9, 53, 58
5, 65368, Note_on_c, 9, 44, 31
5, 65372, Note_on_c, 9, 53, 0
5, 65381, Note_on_c, 9, 44, 0
5, 65398, Note_on_c, 9, 59, 62
5, 65411, Note_on_c, 9, 59, 0
5, 65432, Note_on_c, 9, 59, 72
5, 65446, Note_on_c, 9, 59, 0
5, 65493, Note_on_c, 9, 53, 43
5, 65506, Note_on_c, 9, 53, 0
5, 65518, Note_on_c, 9, 38, 40
5, 65530, Note_on_c, 9, 59, 73
5, 65535, Note_on_c, 9, 38, 0
5, 65552, Note_on_c, 9, 59, 0
5, 65558, Note_on_c, 9, 38, 62
5, 65566, Note_on_c, 9, 59, 64
5, 65569, Note_on_c, 9, 38, 0
5, 65577, Note_on_c, 9, 59, 0
5, 65602, Note_on_c, 9, 36, 61
5, 65619, Note_on_c, 9, 36, 0
5, 65620, Note_on_c, 9, 53, 51
5, 65633, Note_on_c, 9, 53, 0
5, 65661, Note_on_c, 9, 59, 66
5, 65671, Note_on_c, 9, 59, 0
5, 65711, Note_on_c, 9, 38, 55
5, 65722, Note_on_c, 9, 38, 0
5, 65751, Note_on_c, 9, 38, 49
5, 65777, Note_on_c, 9, 38, 0
5, 65844, Note_on_c, 9, 53, 77
5, 65867, Note_on_c, 9, 53, 0
5, 65892, Note_on_c, 9, 59, 66
5, 65923, Note_on_c, 9, 59, 0
5, 65956, Note_on_c, 9, 36, 38
5, 65959, Note_on_c, 9, 53, 68
5, 65970, Note_on_c, 9, 36, 0
5, 65975, Note_on_c, 9, 53, 0
5, 66002, Note_on_c, 9, 59, 84
5, 66006, Note_on_c, 9, 38, 49
5, 66018, Note_on_c, 9, 38, 0
5, 66040, Note_on_c, 9, 38, 61
5, 66057, Note_on_c, 9, 59, 0
5, 66065, Note_on_c, 9, 38, 0
5, 66072, Note_on_c, 9, 53, 73
5, 66082, Note_on_c, 9, 36, 64
5, 66095, Note_on_c, 9, 53, 0
5, 66103, Note_on_c, 9, 36, 0
5, 66119, Note_on_c, 9, 59, 60
5, 66174, Note_on_c, 9, 59, 0
5, 66192, Note_on_c, 9, 38, 60
5, 66205, Note_on_c, 9, 38, 0
5, 66227, Note_on_c, 9, 38, 74
5, 66238, Note_on_c, 9, 38, 0
5, 66250, Note_on_c, 9, 59, 92
5, 66268, Note_on_c, 9, 36, 63
5, 66295, Note_on_c, 9, 36, 0
5, 66321, Note_on_c, 9, 59, 0
5, 66377, Note_on_c, 9, 59, 62
5, 66418, Note_on_c, 9, 59, 0
5, 66495, Note_on_c, 9, 59, 91
5, 66538, Note_on_c, 9, 59, 0
5, 66584, Note_on_c, 9, 59, 58
5, 66601, Note_on_c, 9, 59, 0
5, 66623, Note_on_c, 9, 59, 81
5, 66666, Note_on_c, 9, 59, 0
5, 66743, Note_on_c, 9, 59, 95
5, 66806, Note_on_c, 9, 38, 55
5, 66818, Note_on_c, 9, 38, 0
5, 66823, Note_on_c, 9, 59, 0
5, 66922, Note_on_c, 9, 38, 62
5, 66936, Note_on_c, 9, 53, 69
5, 66947, Note_on_c, 9, 38, 0
5, 66962, Note_on_c, 9, 53, 0
5, 66976, Note_on_c, 9, 59, 48
5, 67009, Note_on_c, 9, 59, 0
5, 67043, Note_on_c, 9, 38, 45
5, 67050, Note_on_c, 9, 53, 75
5, 67076, Note_on_c, 9, 53, 0
5, 67078, Note_on_c, 9, 38, 0
5, 67094, Note_on_c, 9, 36, 32
5, 67104, Note_on_c, 9, 59, 62
5, 67111, Note_on_c, 9, 36, 0
5, 67133, Note_on_c, 9, 59, 0
5, 67214, Note_on_c, 9, 59, 72
5, 67251, Note_on_c, 9, 59, 0
5, 67297, Note_on_c, 9, 59, 71
5, 67310, Note_on_c, 9, 59, 0
5, 67339, Note_on_c, 9, 59, 71
5, 67358, Note_on_c, 9, 59, 0
5, 67445, Note_on_c, 9, 59, 96
5, 67448, Note_on_c, 9, 44, 70
5, 67473, Note_on_c, 9, 59, 0
5, 67480, Note_on_c, 9, 44, 0
5, 67647, Note_on_c, 9, 59, 59
5, 67660, Note_on_c, 9, 59, 0
5, 67689, Note_on_c, 9, 59, 55
5, 67692, Note_on_c, 9, 44, 72
5, 67724, Note_on_c, 9, 44, 0
5, 67728, Note_on_c, 9, 59, 0
5, 67775, Note_on_c, 9, 59, 71
5, 67776, Note_on_c, 9, 60, 79
5, 67814, Note_on_c, 9, 60, 0
5, 67821, Note_on_c, 9, 59, 0
5, 67896, Note_on_c, 9, 59, 61
5, 67921, Note_on_c, 9, 59, 0
5, 67928, Note_on_c, 9, 44, 67
5, 67938, Note_on_c, 9, 59, 66
5, 67958, Note_on_c, 9, 44, 0
5, 67973, Note_on_c, 9, 59, 0
5, 68011, Note_on_c, 9, 59, 88
5, 68115, Note_on_c, 9, 59, 0
5, 68135, Note_on_c, 9, 59, 54
5, 68152, Note_on_c, 9, 59, 0
5, 68177, Note_on_c, 9, 44, 67
5, 68178, Note_on_c, 9, 59, 65
5, 68215, Note_on_c, 9, 44, 0
5, 68250, Note_on_c, 9, 59, 0
5, 68304, Note_on_c, 9, 59, 79
5, 68355, Note_on_c, 9, 59, 0
5, 68430, Note_on_c, 9, 59, 78
5, 68472, Note_on_c, 9, 59, 0
5, 68514, Note_on_c, 9, 51, 78
5, 68516, Note_on_c, 9, 53, 76
5, 68544, Note_on_c, 9, 53, 0
5, 68558, Note_on_c, 9, 51, 0
5, 68575, Note_on_c, 9, 59, 48
5, 68595, Note_on_c, 9, 59, 0
5, 68659, Note_on_c, 9, 46, 63
5, 68669, Note_on_c, 9, 59, 63
5, 68685, Note_on_c, 9, 46, 0
5, 68700, Note_on_c, 9, 59, 0
5, 68754, Note_on_c, 9, 59, 80
5, 68760, Note_on_c, 9, 51, 76
5, 68761, Note_on_c, 9, 53, 76
5, 68787, Note_on_c, 9, 53, 0
5, 68802, Note_on_c, 9, 51, 0
5, 68806, Note_on_c, 9, 59, 0
5, 68876, Note_on_c, 9, 59, 47
5, 68891, Note_on_c, 9, 59, 0
5, 68921, Note_on_c, 9, 59, 62
5, 68957, Note_on_c, 9, 59, 0
5, 68998, Note_on_c, 9, 51, 75
5, 68999, Note_on_c, 9, 59, 74
5, 68999, Note_on_c, 9, 53, 78
5, 69029, Note_on_c, 9, 53, 0
5, 69035, Note_on_c, 9, 59, 0
5, 69040, Note_on_c, 9, 51, 0
5, 69127, Note_on_c, 9, 46, 67
5, 69166, Note_on_c, 9, 59, 58
5, 69167, Note_on_c, 9, 46, 0
5, 69195, Note_on_c, 9, 59, 0
5, 69233, Note_on_c, 9, 53, 74
5, 69234, Note_on_c, 9, 51, 62
5, 69234, Note_on_c, 9, 57, 62
5, 69234, Note_on_c, 9, 59, 69
5, 69254, Note_on_c, 9, 57, 0
5, 69257, Note_on_c, 9, 53, 0
5, 69259, Note_on_c, 9, 59, 0
5, 69262, Note_on_c, 9, 51, 0
5, 69419, Note_on_c, 9, 59, 36
5, 69433, Note_on_c, 9, 59, 0
5, 69470, Note_on_c, 9, 51, 74
5, 69471, Note_on_c, 9, 59, 80
5, 69471, Note_on_c, 9, 53, 74
5, 69501, Note_on_c, 9, 53, 0
5, 69502, Note_on_c, 9, 59, 0
5, 69508, Note_on_c, 9, 51, 0
5, 69591, Note_on_c, 9, 57, 33
5, 69604, Note_on_c, 9, 57, 0
5, 69605, Note_on_c, 9, 46, 71
5, 69625, Note_on_c, 9, 59, 61
5, 69638, Note_on_c, 9, 59, 0
5, 69638, Note_on_c, 9, 46, 0
5, 69685, Note_on_c, 9, 51, 71
5, 69687, Note_on_c, 9, 53, 72
5, 69691, Note_on_c, 9, 59, 78
5, 69712, Note_on_c, 9, 59, 0
5, 69712, Note_on_c, 9, 53, 0
5, 69715, Note_on_c, 9, 51, 0
5, 69803, Note_on_c, 9, 38, 66
5, 69827, Note_on_c, 9, 38, 0
5, 69830, Note_on_c, 9, 59, 58
5, 69841, Note_on_c, 9, 59, 0
5, 69866, Note_on_c, 9, 59, 61
5, 69888, Note_on_c, 9, 59, 0
5, 69920, Note_on_c, 9, 38, 53
5, 69932, Note_on_c, 9, 38, 0
5, 69934, Note_on_c, 9, 53, 71
5, 69934, Note_on_c, 9, 51, 60
5, 69946, Note_on_c, 9, 53, 0
5, 69955, Note_on_c, 9, 51, 0
5, 69984, Note_on_c, 9, 59, 69
5, 70010, Note_on_c, 9, 59, 0
5, 70037, Note_on_c, 9, 38, 33
5, 70052, Note_on_c, 9, 38, 0
5, 70087, Note_on_c, 9, 44, 39
5, 70089, Note_on_c, 9, 51, 62
5, 70112, Note_on_c, 9, 51, 0
5, 70123, Note_on_c, 9, 44, 0
5, 70211, Note_on_c, 9, 51, 60
5, 70265, Note_on_c, 9, 51, 0
5, 70324, Note_on_c, 9, 44, 71
5, 70333, Note_on_c, 9, 51, 88
5, 70357, Note_on_c, 9, 44, 0
5, 70373, Note_on_c, 9, 51, 0
5, 70424, Note_on_c, 9, 51, 59
5, 70446, Note_on_c, 9, 51, 0
5, 70461, Note_on_c, 9, 51, 77
5, 70513, Note_on_c, 9, 51, 0
5, 70569, Note_on_c, 9, 44, 75
5, 70580, Note_on_c, 9, 51, 88
5, 70598, Note_on_c, 9, 44, 0
5, 70632, Note_on_c, 9, 51, 0
5, 70701, Note_on_c, 9, 51, 87
5, 70738, Note_on_c, 9, 51, 0
5, 70783, Note_on_c, 9, 51, 57
5, 70803, Note_on_c, 9, 51, 0
5, 70816, Note_on_c, 9, 44, 68
5, 70820, Note_on_c, 9, 51, 79
5, 70847, Note_on_c, 9, 44, 0
5, 70871, Note_on_c, 9, 51, 0
5, 70941, Note_on_c, 9, 51, 86
5, 71000, Note_on_c, 9, 51, 0
5, 71052, Note_on_c, 9, 44, 61
5, 71061, Note_on_c, 9, 51, 83
5, 71084, Note_on_c, 9, 44, 0
5, 71103, Note_on_c, 9, 51, 0
5, 71153, Note_on_c, 9, 51, 46
5, 71167, Note_on_c, 9, 51, 0
5, 71186, Note_on_c, 9, 51, 68
5, 71225, Note_on_c, 9, 51, 0
5, 71261, Note_on_c, 9, 51, 73
5, 71265, Note_on_c, 9, 53, 71
5, 71294, Note_on_c, 9, 44, 61
5, 71330, Note_on_c, 9, 44, 0
5, 71339, Note_on_c, 9, 51, 0
5, 71352, Note_on_c, 9, 53, 0
5, 71378, Note_on_c, 9, 51, 54
5, 71393, Note_on_c, 9, 51, 0
5, 71426, Note_on_c, 9, 51, 83
5, 71501, Note_on_c, 9, 51, 0
5, 71535, Note_on_c, 9, 44, 54
5, 71541, Note_on_c, 9, 51, 74
5, 71563, Note_on_c, 9, 44, 0
5, 71602, Note_on_c, 9, 51, 0
5, 71625, Note_on_c, 9, 51, 57
5, 71648, Note_on_c, 9, 51, 0
5, 71662, Note_on_c, 9, 51, 67
5, 71727, Note_on_c, 9, 51, 0
5, 71766, Note_on_c, 9, 44, 63
5, 71782, Note_on_c, 9, 51, 68
5, 71795, Note_on_c, 9, 44, 0
5, 71848, Note_on_c, 9, 51, 0
5, 71857, Note_on_c, 9, 44, 60
5, 71890, Note_on_c, 9, 44, 0
5, 71901, Note_on_c, 9, 51, 40
5, 71965, Note_on_c, 9, 51, 0
5, 71980, Note_on_c, 9, 44, 43
5, 71991, Note_on_c, 9, 44, 56
5, 71999, Note_on_c, 9, 44, 0
5, 72017, Note_on_c, 9, 44, 0
5, 72028, Note_on_c, 9, 51, 39
5, 72079, Note_on_c, 9, 51, 0
5, 72099, Note_on_c, 9, 51, 51
5, 72119, Note_on_c, 9, 51, 0
5, 72139, Note_on_c, 9, 51, 68
5, 72194, Note_on_c, 9, 51, 0
5, 72200, Note_on_c, 9, 38, 43
5, 72213, Note_on_c, 9, 38, 0
5, 72253, Note_on_c, 9, 51, 93
5, 72308, Note_on_c, 9, 51, 0
5, 72362, Note_on_c, 9, 51, 56
5, 72384, Note_on_c, 9, 51, 0
5, 72452, Note_on_c, 9, 51, 57
5, 72470, Note_on_c, 9, 51, 0
5, 72485, Note_on_c, 9, 44, 67
5, 72492, Note_on_c, 9, 51, 75
5, 72518, Note_on_c, 9, 44, 0
5, 72556, Note_on_c, 9, 51, 0
5, 72612, Note_on_c, 9, 51, 87
5, 72670, Note_on_c, 9, 51, 0
5, 72686, Note_on_c, 9, 38, 54
5, 72701, Note_on_c, 9, 38, 0
5, 72727, Note_on_c, 9, 51, 83
5, 72728, Note_on_c, 9, 44, 51
5, 72760, Note_on_c, 9, 44, 0
5, 72767, Note_on_c, 9, 51, 0
5, 72810, Note_on_c, 9, 51, 56
5, 72829, Note_on_c, 9, 51, 0
5, 72846, Note_on_c, 9, 51, 77
5, 72896, Note_on_c, 9, 51, 0
5, 72963, Note_on_c, 9, 44, 63
5, 72966, Note_on_c, 9, 51, 74
5, 72993, Note_on_c, 9, 44, 0
5, 73014, Note_on_c, 9, 51, 0
5, 73046, Note_on_c, 9, 51, 51
5, 73069, Note_on_c, 9, 51, 0
5, 73088, Note_on_c, 9, 51, 62
5, 73128, Note_on_c, 9, 51, 0
5, 73201, Note_on_c, 9, 44, 65
5, 73204, Note_on_c, 9, 51, 85
5, 73230, Note_on_c, 9, 44, 0
5, 73239, Note_on_c, 9, 51, 0
5, 73314, Note_on_c, 9, 51, 67
5, 73336, Note_on_c, 9, 51, 0
5, 73412, Note_on_c, 9, 51, 73
5, 73439, Note_on_c, 9, 51, 0
5, 73442, Note_on_c, 9, 44, 68
5, 73471, Note_on_c, 9, 44, 0
5, 73528, Note_on_c, 9, 51, 57
5, 73548, Note_on_c, 9, 51, 0
5, 73567, Note_on_c, 9, 51, 71
5, 73621, Note_on_c, 9, 51, 0
5, 73678, Note_on_c, 9, 44, 67
5, 73691, Note_on_c, 9, 51, 86
5, 73714, Note_on_c, 9, 44, 0
5, 73724, Note_on_c, 9, 51, 0
5, 73778, Note_on_c, 9, 51, 54
5, 73789, Note_on_c, 9, 51, 0
5, 73811, Note_on_c, 9, 51, 54
5, 73847, Note_on_c, 9, 51, 0
5, 73919, Note_on_c, 9, 51, 71
5, 73922, Note_on_c, 9, 53, 68
5, 73927, Note_on_c, 9, 44, 61
5, 73942, Note_on_c, 9, 51, 0
5, 73949, Note_on_c, 9, 53, 0
5, 73964, Note_on_c, 9, 44, 0
5, 73998, Note_on_c, 9, 51, 68
5, 73999, Note_on_c, 9, 53, 67
5, 74025, Note_on_c, 9, 51, 0
5, 74033, Note_on_c, 9, 53, 0
5, 74090, Note_on_c, 9, 53, 72
5, 74091, Note_on_c, 9, 51, 58
5, 74117, Note_on_c, 9, 51, 0
5, 74124, Note_on_c, 9, 53, 0
5, 74173, Note_on_c, 9, 51, 71
5, 74175, Note_on_c, 9, 44, 68
5, 74179, Note_on_c, 9, 53, 65
5, 74202, Note_on_c, 9, 51, 0
5, 74209, Note_on_c, 9, 44, 0
5, 74221, Note_on_c, 9, 53, 0
5, 74262, Note_on_c, 9, 51, 75
5, 74306, Note_on_c, 9, 51, 0
5, 74375, Note_on_c, 9, 51, 78
5, 74398, Note_on_c, 9, 51, 0
5, 74415, Note_on_c, 9, 51, 69
5, 74419, Note_on_c, 9, 44, 64
5, 74454, Note_on_c, 9, 44, 0
5, 74471, Note_on_c, 9, 51, 0
5, 74533, Note_on_c, 9, 51, 83
5, 74593, Note_on_c, 9, 51, 0
5, 74651, Note_on_c, 9, 51, 74
5, 74651, Note_on_c, 9, 44, 67
5, 74687, Note_on_c, 9, 51, 0
5, 74689, Note_on_c, 9, 44, 0
5, 74743, Note_on_c, 9, 51, 62
5, 74755, Note_on_c, 9, 51, 0
5, 74782, Note_on_c, 9, 51, 61
5, 74826, Note_on_c, 9, 51, 0
5, 74892, Note_on_c, 9, 44, 68
5, 74897, Note_on_c, 9, 51, 83
5, 74929, Note_on_c, 9, 44, 0
5, 74948, Note_on_c, 9, 51, 0
5, 74990, Note_on_c, 9, 51, 56
5, 75003, Note_on_c, 9, 51, 0
5, 75023, Note_on_c, 9, 51, 67
5, 75049, Note_on_c, 9, 51, 0
5, 75126, Note_on_c, 9, 44, 71
5, 75135, Note_on_c, 9, 51, 86
5, 75167, Note_on_c, 9, 51, 0
5, 75168, Note_on_c, 9, 44, 0
5, 75232, Note_on_c, 9, 51, 39
5, 75242, Note_on_c, 9, 51, 0
5, 75330, Note_on_c, 9, 51, 78
5, 75366, Note_on_c, 9, 44, 65
5, 75367, Note_on_c, 9, 51, 0
5, 75378, Note_on_c, 9, 51, 59
5, 75404, Note_on_c, 9, 44, 0
5, 75411, Note_on_c, 9, 51, 0
5, 75492, Note_on_c, 9, 51, 71
5, 75552, Note_on_c, 9, 51, 0
5, 75598, Note_on_c, 9, 44, 68
5, 75616, Note_on_c, 9, 51, 74
5, 75637, Note_on_c, 9, 44, 0
5, 75671, Note_on_c, 9, 51, 0
5, 75698, Note_on_c, 9, 51, 49
5, 75720, Note_on_c, 9, 51, 0
5, 75737, Note_on_c, 9, 51, 71
5, 75785, Note_on_c, 9, 51, 0
5, 75839, Note_on_c, 9, 44, 71
5, 75854, Note_on_c, 9, 51, 80
5, 75874, Note_on_c, 9, 44, 0
5, 75886, Note_on_c, 9, 51, 0
5, 75976, Note_on_c, 9, 51, 78
5, 76013, Note_on_c, 9, 51, 0
5, 76085, Note_on_c, 9, 44, 73
5, 76104, Note_on_c, 9, 51, 37
5, 76115, Note_on_c, 9, 51, 0
5, 76130, Note_on_c, 9, 44, 0
5, 76176, Note_on_c, 9, 51, 73
5, 76198, Note_on_c, 9, 51, 0
5, 76215, Note_on_c, 9, 51, 67
5, 76246, Note_on_c, 9, 51, 0
5, 76286, Note_on_c, 9, 38, 66
5, 76299, Note_on_c, 9, 38, 0
5, 76328, Note_on_c, 9, 51, 62
5, 76334, Note_on_c, 9, 44, 47
5, 76355, Note_on_c, 9, 51, 0
5, 76378, Note_on_c, 9, 44, 0
5, 76413, Note_on_c, 9, 51, 39
5, 76427, Note_on_c, 9, 51, 0
5, 76450, Note_on_c, 9, 51, 56
5, 76495, Note_on_c, 9, 51, 0
5, 76524, Note_on_c, 9, 46, 62
5, 76567, Note_on_c, 9, 44, 62
5, 76570, Note_on_c, 9, 46, 0
5, 76571, Note_on_c, 9, 51, 42
5, 76596, Note_on_c, 9, 44, 0
5, 76634, Note_on_c, 9, 51, 0
5, 76646, Note_on_c, 9, 46, 70
5, 76685, Note_on_c, 9, 46, 0
5, 76693, Note_on_c, 9, 51, 50
5, 76746, Note_on_c, 9, 51, 0
5, 76768, Note_on_c, 9, 51, 48
5, 76769, Note_on_c, 9, 44, 62
5, 76790, Note_on_c, 9, 44, 0
5, 76791, Note_on_c, 9, 51, 0
5, 76813, Note_on_c, 9, 51, 64
5, 76863, Note_on_c, 9, 51, 0
5, 76933, Note_on_c, 9, 51, 74
5, 76984, Note_on_c, 9, 51, 0
5, 77008, Note_on_c, 9, 46, 59
5, 77033, Note_on_c, 9, 46, 0
5, 77050, Note_on_c, 9, 44, 60
5, 77069, Note_on_c, 9, 51, 30
5, 77077, Note_on_c, 9, 44, 0
5, 77083, Note_on_c, 9, 51, 0
5, 77172, Note_on_c, 9, 51, 20
5, 77182, Note_on_c, 9, 51, 0
5, 77243, Note_on_c, 9, 51, 83
5, 77282, Note_on_c, 9, 51, 0
5, 77285, Note_on_c, 9, 38, 63
5, 77295, Note_on_c, 9, 51, 51
5, 77305, Note_on_c, 9, 38, 0
5, 77317, Note_on_c, 9, 51, 0
5, 77362, Note_on_c, 9, 46, 44
5, 77378, Note_on_c, 9, 46, 0
5, 77410, Note_on_c, 9, 51, 71
5, 77458, Note_on_c, 9, 51, 0
5, 77477, Note_on_c, 9, 38, 68
5, 77487, Note_on_c, 9, 51, 37
5, 77496, Note_on_c, 9, 38, 0
5, 77507, Note_on_c, 9, 51, 0
5, 77528, Note_on_c, 9, 38, 38
5, 77529, Note_on_c, 9, 51, 57
5, 77541, Note_on_c, 9, 38, 0
5, 77562, Note_on_c, 9, 51, 0
5, 77608, Note_on_c, 9, 51, 77
5, 77610, Note_on_c, 9, 53, 72
5, 77616, Note_on_c, 9, 54, 39
5, 77626, Note_on_c, 9, 54, 0
5, 77701, Note_on_c, 9, 51, 0
5, 77718, Note_on_c, 9, 53, 0
5, 77731, Note_on_c, 9, 51, 40
5, 77754, Note_on_c, 9, 51, 0
5, 77765, Note_on_c, 9, 37, 75
5, 77779, Note_on_c, 9, 51, 33
5, 77790, Note_on_c, 9, 37, 0
5, 77796, Note_on_c, 9, 51, 0
5, 77843, Note_on_c, 9, 51, 83
5, 77847, Note_on_c, 9, 53, 74
5, 77916, Note_on_c, 9, 51, 0
5, 77926, Note_on_c, 9, 53, 0
5, 77962, Note_on_c, 9, 51, 56
5, 77985, Note_on_c, 9, 51, 0
5, 78008, Note_on_c, 9, 51, 71
5, 78009, Note_on_c, 9, 37, 77
5, 78014, Note_on_c, 9, 53, 72
5, 78039, Note_on_c, 9, 37, 0
5, 78082, Note_on_c, 9, 51, 0
5, 78094, Note_on_c, 9, 53, 0
5, 78126, Note_on_c, 9, 51, 46
5, 78164, Note_on_c, 9, 51, 0
5, 78206, Note_on_c, 9, 51, 63
5, 78227, Note_on_c, 9, 51, 0
5, 78246, Note_on_c, 9, 51, 55
5, 78249, Note_on_c, 9, 37, 73
5, 78278, Note_on_c, 9, 37, 0
5, 78302, Note_on_c, 9, 51, 0
5, 78358, Note_on_c, 9, 51, 84
5, 78404, Note_on_c, 9, 51, 0
5, 78484, Note_on_c, 9, 37, 74
5, 78486, Note_on_c, 9, 51, 72
5, 78518, Note_on_c, 9, 37, 0
5, 78521, Note_on_c, 9, 51, 0
5, 78573, Note_on_c, 9, 51, 54
5, 78586, Note_on_c, 9, 51, 0
5, 78606, Note_on_c, 9, 51, 69
5, 78653, Note_on_c, 9, 51, 0
5, 78727, Note_on_c, 9, 51, 76
5, 78728, Note_on_c, 9, 37, 74
5, 78757, Note_on_c, 9, 37, 0
5, 78779, Note_on_c, 9, 51, 0
5, 78820, Note_on_c, 9, 51, 53
5, 78837, Note_on_c, 9, 51, 0
5, 78856, Note_on_c, 9, 51, 68
5, 78906, Note_on_c, 9, 51, 0
5, 78933, Note_on_c, 9, 37, 69
5, 78958, Note_on_c, 9, 37, 0
5, 78976, Note_on_c, 9, 36, 58
5, 78987, Note_on_c, 9, 53, 65
5, 78987, Note_on_c, 9, 51, 49
5, 78998, Note_on_c, 9, 51, 0
5, 78999, Note_on_c, 9, 53, 0
5, 79007, Note_on_c, 9, 36, 0
5, 79024, Note_on_c, 9, 53, 60
5, 79028, Note_on_c, 9, 51, 47
5, 79041, Note_on_c, 9, 53, 0
5, 79044, Note_on_c, 9, 51, 0
5, 79113, Note_on_c, 9, 51, 70
5, 79116, Note_on_c, 9, 53, 64
5, 79136, Note_on_c, 9, 51, 0
5, 79144, Note_on_c, 9, 53, 0
5, 79160, Note_on_c, 9, 51, 44
5, 79168, Note_on_c, 9, 53, 48
5, 79180, Note_on_c, 9, 53, 0
5, 79186, Note_on_c, 9, 51, 0
5, 79218, Note_on_c, 9, 37, 71
5, 79241, Note_on_c, 9, 51, 74
5, 79250, Note_on_c, 9, 37, 0
5, 79284, Note_on_c, 9, 51, 0
5, 79360, Note_on_c, 9, 51, 69
5, 79387, Note_on_c, 9, 51, 0
5, 79444, Note_on_c, 9, 51, 83
5, 79452, Note_on_c, 9, 37, 70
5, 79472, Note_on_c, 9, 51, 0
5, 79485, Note_on_c, 9, 37, 0
5, 79551, Note_on_c, 9, 51, 59
5, 79573, Note_on_c, 9, 51, 0
5, 79593, Note_on_c, 9, 51, 72
5, 79649, Note_on_c, 9, 51, 0
5, 79697, Note_on_c, 9, 37, 69
5, 79712, Note_on_c, 9, 51, 72
5, 79727, Note_on_c, 9, 37, 0
5, 79757, Note_on_c, 9, 51, 0
5, 79831, Note_on_c, 9, 51, 76
5, 79866, Note_on_c, 9, 51, 0
5, 79938, Note_on_c, 9, 37, 69
5, 79943, Note_on_c, 9, 51, 51
5, 79943, Note_on_c, 9, 51, 0
5, 79969, Note_on_c, 9, 37, 0
5, 80034, Note_on_c, 9, 51, 87
5, 80060, Note_on_c, 9, 51, 0
5, 80152, Note_on_c, 9, 51, 62
5, 80172, Note_on_c, 9, 51, 0
5, 80181, Note_on_c, 9, 37, 68
5, 80197, Note_on_c, 9, 51, 52
5, 80208, Note_on_c, 9, 37, 0
5, 80225, Note_on_c, 9, 51, 0
5, 80276, Note_on_c, 9, 51, 87
5, 80320, Note_on_c, 9, 51, 0
5, 80388, Note_on_c, 9, 51, 49
5, 80402, Note_on_c, 9, 51, 0
5, 80408, Note_on_c, 9, 37, 70
5, 80425, Note_on_c, 9, 51, 67
5, 80437, Note_on_c, 9, 37, 0
5, 80470, Note_on_c, 9, 51, 0
5, 80542, Note_on_c, 9, 51, 83
5, 80593, Note_on_c, 9, 51, 0
5, 80650, Note_on_c, 9, 37, 71
5, 80661, Note_on_c, 9, 51, 73
5, 80683, Note_on_c, 9, 37, 0
5, 80702, Note_on_c, 9, 51, 0
5, 80744, Note_on_c, 9, 51, 59
5, 80765, Note_on_c, 9, 51, 0
5, 80784, Note_on_c, 9, 51, 70
5, 80829, Note_on_c, 9, 51, 0
5, 80901, Note_on_c, 9, 51, 77
5, 80901, Note_on_c, 9, 37, 74
5, 80931, Note_on_c, 9, 37, 0
5, 80933, Note_on_c, 9, 51, 0
5, 80980, Note_on_c, 9, 51, 63
5, 81002, Note_on_c, 9, 51, 0
5, 81019, Note_on_c, 9, 51, 74
5, 81054, Note_on_c, 9, 51, 0
5, 81129, Note_on_c, 9, 37, 71
5, 81137, Note_on_c, 9, 51, 85
5, 81156, Note_on_c, 9, 37, 0
5, 81170, Note_on_c, 9, 51, 0
5, 81229, Note_on_c, 9, 51, 65
5, 81239, Note_on_c, 9, 51, 0
5, 81268, Note_on_c, 9, 51, 59
5, 81291, Note_on_c, 9, 51, 0
5, 81363, Note_on_c, 9, 37, 73
5, 81389, Note_on_c, 9, 51, 83
5, 81393, Note_on_c, 9, 37, 0
5, 81416, Note_on_c, 9, 51, 0
5, 81513, Note_on_c, 9, 51, 81
5, 81550, Note_on_c, 9, 51, 0
5, 81621, Note_on_c, 9, 37, 73
5, 81639, Note_on_c, 9, 51, 75
5, 81653, Note_on_c, 9, 37, 0
5, 81664, Note_on_c, 9, 51, 0
5, 81760, Note_on_c, 9, 51, 75
5, 81791, Note_on_c, 9, 51, 0
5, 81864, Note_on_c, 9, 37, 71
5, 81884, Note_on_c, 9, 51, 75
5, 81896, Note_on_c, 9, 37, 0
5, 81905, Note_on_c, 9, 51, 0
5, 82094, Note_on_c, 9, 37, 70
5, 82123, Note_on_c, 9, 37, 0
5, 82207, Note_on_c, 9, 53, 75
5, 82213, Note_on_c, 9, 51, 59
5, 82220, Note_on_c, 9, 51, 0
5, 82242, Note_on_c, 9, 53, 0
5, 82298, Note_on_c, 9, 51, 58
5, 82305, Note_on_c, 9, 51, 0
5, 82331, Note_on_c, 9, 37, 68
5, 82360, Note_on_c, 9, 37, 0
5, 82407, Note_on_c, 9, 51, 51
5, 82416, Note_on_c, 9, 51, 0
5, 82441, Note_on_c, 9, 51, 57
5, 82470, Note_on_c, 9, 51, 0
5, 82577, Note_on_c, 9, 37, 71
5, 82609, Note_on_c, 9, 37, 0
5, 82642, Note_on_c, 9, 51, 54
5, 82664, Note_on_c, 9, 51, 0
5, 82683, Note_on_c, 9, 51, 57
5, 82748, Note_on_c, 9, 51, 0
5, 82806, Note_on_c, 9, 51, 76
5, 82815, Note_on_c, 9, 37, 69
5, 82849, Note_on_c, 9, 37, 0
5, 82856, Note_on_c, 9, 51, 0
5, 82928, Note_on_c, 9, 51, 54
5, 82929, Note_on_c, 9, 44, 70
5, 82946, Note_on_c, 9, 51, 0
5, 82966, Note_on_c, 9, 44, 0
5, 83008, Note_on_c, 9, 51, 44
5, 83018, Note_on_c, 9, 51, 0
5, 83046, Note_on_c, 9, 44, 65
5, 83047, Note_on_c, 9, 51, 68
5, 83063, Note_on_c, 9, 37, 67
5, 83088, Note_on_c, 9, 44, 0
5, 83090, Note_on_c, 9, 37, 0
5, 83099, Note_on_c, 9, 51, 0
5, 83165, Note_on_c, 9, 44, 67
5, 83193, Note_on_c, 9, 44, 0
5, 83228, Note_on_c, 9, 51, 55
5, 83236, Note_on_c, 9, 51, 0
5, 83261, Note_on_c, 9, 51, 62
5, 83279, Note_on_c, 9, 51, 0
5, 83300, Note_on_c, 9, 36, 60
5, 83310, Note_on_c, 9, 51, 76
5, 83315, Note_on_c, 9, 36, 0
5, 83326, Note_on_c, 9, 51, 0
5, 83380, Note_on_c, 9, 51, 80
5, 83396, Note_on_c, 9, 51, 0
5, 83518, Note_on_c, 9, 51, 48
5, 83530, Note_on_c, 9, 51, 0
5, 83540, Note_on_c, 9, 37, 69
5, 83567, Note_on_c, 9, 37, 0
5, 83602, Note_on_c, 9, 51, 55
5, 83625, Note_on_c, 9, 51, 0
5, 83643, Note_on_c, 9, 51, 47
5, 83655, Note_on_c, 9, 51, 0
5, 83780, Note_on_c, 9, 37, 64
5, 83808, Note_on_c, 9, 37, 0
5, 83844, Note_on_c, 9, 51, 54
5, 83856, Note_on_c, 9, 51, 0
5, 83883, Note_on_c, 9, 51, 34
5, 83937, Note_on_c, 9, 51, 0
5, 83960, Note_on_c, 9, 51, 63
5, 83974, Note_on_c, 9, 51, 0
5, 84007, Note_on_c, 9, 44, 53
5, 84007, Note_on_c, 9, 37, 60
5, 84029, Note_on_c, 9, 37, 0
5, 84035, Note_on_c, 9, 44, 0
5, 84088, Note_on_c, 9, 51, 36
5, 84110, Note_on_c, 9, 51, 0
5, 84132, Note_on_c, 9, 51, 51
5, 84196, Note_on_c, 9, 51, 0
5, 84210, Note_on_c, 9, 51, 67
5, 84219, Note_on_c, 9, 51, 0
5, 84243, Note_on_c, 9, 37, 60
5, 84244, Note_on_c, 9, 44, 49
5, 84271, Note_on_c, 9, 37, 0
5, 84273, Note_on_c, 9, 44, 0
5, 84327, Note_on_c, 9, 51, 74
5, 84328, Note_on_c, 9, 53, 73
5, 84343, Note_on_c, 9, 51, 0
5, 84345, Note_on_c, 9, 53, 0
5, 84490, Note_on_c, 9, 37, 64
5, 84492, Note_on_c, 9, 51, 71
5, 84509, Note_on_c, 9, 51, 0
5, 84516, Note_on_c, 9, 37, 0
5, 84565, Note_on_c, 9, 51, 76
5, 84566, Note_on_c, 9, 53, 81
5, 84586, Note_on_c, 9, 51, 0
5, 84597, Note_on_c, 9, 53, 0
5, 84614, Note_on_c, 9, 51, 41
5, 84653, Note_on_c, 9, 51, 0
5, 84687, Note_on_c, 9, 51, 64
5, 84691, Note_on_c, 9, 53, 81
5, 84706, Note_on_c, 9, 51, 0
5, 84733, Note_on_c, 9, 37, 63
5, 84737, Note_on_c, 9, 51, 40
5, 84744, Note_on_c, 9, 53, 0
5, 84759, Note_on_c, 9, 37, 0
5, 84764, Note_on_c, 9, 51, 0
5, 84803, Note_on_c, 9, 51, 40
5, 84817, Note_on_c, 9, 51, 0
5, 84849, Note_on_c, 9, 51, 54
5, 84894, Note_on_c, 9, 51, 0
5, 84969, Note_on_c, 9, 51, 63
5, 84973, Note_on_c, 9, 37, 65
5, 85000, Note_on_c, 9, 37, 0
5, 85006, Note_on_c, 9, 51, 0
5, 85059, Note_on_c, 9, 51, 61
5, 85080, Note_on_c, 9, 51, 0
5, 85096, Note_on_c, 9, 51, 62
5, 85116, Note_on_c, 9, 51, 0
5, 85210, Note_on_c, 9, 37, 67
5, 85216, Note_on_c, 9, 51, 72
5, 85236, Note_on_c, 9, 37, 0
5, 85241, Note_on_c, 9, 51, 0
5, 85296, Note_on_c, 9, 51, 45
5, 85299, Note_on_c, 9, 53, 67
5, 85306, Note_on_c, 9, 51, 0
5, 85333, Note_on_c, 9, 51, 49
5, 85352, Note_on_c, 9, 51, 0
5, 85408, Note_on_c, 9, 53, 0
5, 85409, Note_on_c, 9, 51, 58
5, 85417, Note_on_c, 9, 51, 0
5, 85453, Note_on_c, 9, 37, 61
5, 85477, Note_on_c, 9, 37, 0
5, 85529, Note_on_c, 9, 51, 27
5, 85539, Note_on_c, 9, 51, 0
5, 85559, Note_on_c, 9, 51, 46
5, 85585, Note_on_c, 9, 51, 73
5, 85600, Note_on_c, 9, 51, 0
5, 85638, Note_on_c, 9, 51, 0
5, 85646, Note_on_c, 9, 51, 73
5, 85654, Note_on_c, 9, 51, 0
5, 85687, Note_on_c, 9, 37, 59
5, 85708, Note_on_c, 9, 37, 0
5, 85709, Note_on_c, 9, 51, 50
5, 85728, Note_on_c, 9, 51, 0
5, 85759, Note_on_c, 9, 53, 80
5, 85760, Note_on_c, 9, 51, 70
5, 85773, Note_on_c, 9, 53, 0
5, 85779, Note_on_c, 9, 51, 0
5, 85782, Note_on_c, 9, 51, 86
5, 85805, Note_on_c, 9, 51, 53
5, 85852, Note_on_c, 9, 51, 0
5, 85853, Note_on_c, 9, 51, 0
5, 85886, Note_on_c, 9, 53, 71
5, 85887, Note_on_c, 9, 51, 62
5, 85894, Note_on_c, 9, 37, 62
5, 85908, Note_on_c, 9, 53, 0
5, 85914, Note_on_c, 9, 37, 0
5, 85917, Note_on_c, 9, 51, 0
5, 85947, Note_on_c, 9, 51, 69
5, 85958, Note_on_c, 9, 38, 32
5, 85981, Note_on_c, 9, 38, 0
5, 85995, Note_on_c, 9, 51, 0
5, 86078, Note_on_c, 9, 51, 75
5, 86109, Note_on_c, 9, 51, 0
5, 86144, Note_on_c, 9, 37, 67
5, 86165, Note_on_c, 9, 37, 0
5, 86188, Note_on_c, 9, 36, 54
5, 86208, Note_on_c, 9, 36, 0
5, 86211, Note_on_c, 9, 51, 48
5, 86255, Note_on_c, 9, 51, 0
5, 86308, Note_on_c, 9, 51, 57
5, 86338, Note_on_c, 9, 51, 0
5, 86361, Note_on_c, 9, 51, 62
5, 86457, Note_on_c, 9, 37, 62
5, 86478, Note_on_c, 9, 37, 0
5, 86564, Note_on_c, 9, 51, 0
5, 86653, Note_on_c, 9, 51, 67
5, 86812, Note_on_c, 9, 51, 0
5, 86883, Note_on_c, 9, 59, 54
5, 86915, Note_on_c, 9, 59, 0
5, 87249, Note_on_c, 9, 51, 74
5, 87250, Note_on_c, 9, 53, 74
5, 87422, Note_on_c, 9, 51, 0
5, 87425, Note_on_c, 9, 53, 0
5, 87632, Note_on_c, 9, 57, 91
5, 87632, Note_on_c, 9, 51, 82
5, 88186, Note_on_c, 9, 51, 0
5, 88399, Note_on_c, 9, 57, 0
5, 88399, End_track
6, 0, Start_track
6, 0, Title_t, ""
6, 0, Control_c, 9, 7, 70
6, 0, End_track
7, 0, Start_track
7, 0, Title_t, ""
7, 0, End_track
8, 0, Start_track
8, 0, Title_t, ""
8, 0, Program_c, 2, 43
8, 0, Control_c, 2, 7, 127
8, 0, End_track
0, 0, End_of_file
