0, 0, Header, 1, 7, 120
1, 0, Start_track
1, 0, Title_t, "Sixteen Going on Seventeen"
1, 0, Title_t, "(From The Sound of Music)"
1, 0, Text_t, "dougmck@tpg.com.au - improvised piano.\012"
1, 0, Time_signature, 4, 2, 24, 8
1, 0, Key_signature, -1, "major"
1, 0, Tempo, 545455
1, 2, Marker_t, "Melody played using various Block chord styles."
1, 5280, Marker_t, "On G7#11 arpeggiate an A triad"
1, 7680, Marker_t, "pseudo march rhythm - LH plays chords on beat"
1, 11515, Marker_t, "More or less perfect 4ths follow melody"
1, 15363, Marker_t, "Big stack of perfect 4ths"
1, 19200, Marker_t, "LH plays chromatic descending run linking RH chords"
1, 24000, Marker_t, "LH plays Bb pedal tone on 'ands' alternating with 3 note cluster chord"
1, 24960, Marker_t, "On Cm7b5, descending run begins as Db Maj scale, "
1, 25115, Marker_t, "then chromatically to target the note A, the 3rd of F7 "
1, 26393, Marker_t, "Series of even 8th note chords with displaced accents off the beat"
1, 27840, Marker_t, "Perfect 4ths harmonize melody"
1, 28619, Marker_t, "Breaks into syncopated stride - RH strikes notes ahead of LH stride"
1, 32519, Marker_t, "Drums and Bass in"
1, 32582, Marker_t, "Phrase made up of F triad with each note 'enclosed' with neighbours"
1, 33356, Marker_t, "Chromatic run lands on G (the 5th of C7) on the beat"
1, 33600, Marker_t, "Then encloses the 5th of FMaj7 and descends as an F arpeggio"
1, 35059, Marker_t, "On Am7, begins on 3rd, chromatically down to  neighbours of A, "
1, 38032, Marker_t, "Basically an A triad (on G7#11 chord)"
1, 38291, Marker_t, "Then, chromatically down to the 3rd of Gm7 (Bb)"
1, 38403, Marker_t, "Then some enclosing of the notes of Gm triad"
1, 39580, Marker_t, "RH plays chords shifting down by steps of a minor 3rd"
1, 39609, Marker_t, "LH plays chromatic scale underneath to link each RH chord"
1, 51360, Marker_t, "Descending pattern -diatonic (F Major) arpeggios on Am7b5/D7 Gm7/C7"
1, 52805, Marker_t, "F triad arpeggios begin with chromatic lower neighbour on each"
1, 64883, Marker_t, "Descending run DbMaj scale (= F# lydian)"
1, 65760, Marker_t, "Ascending run (Db Major) finishes on (resolves to) F"
1, 65760, End_track
2, 0, Start_track
2, 0, Title_t, "Track 1"
2, 0, Control_c, 0, 7, 101
2, 0, Control_c, 0, 10, 64
2, 0, End_track
3, 0, Start_track
3, 0, Title_t, "Track 2"
3, 0, Control_c, 0, 7, 100
3, 3, Note_on_c, 0, 64, 36
3, 3, Note_on_c, 0, 60, 40
3, 4, Note_on_c, 0, 53, 32
3, 5, Note_on_c, 0, 69, 48
3, 61, Control_c, 0, 64, 127
3, 101, Note_on_c, 0, 69, 0
3, 102, Note_on_c, 0, 60, 0
3, 109, Note_on_c, 0, 64, 0
3, 109, Control_c, 0, 64, 0
3, 119, Note_on_c, 0, 53, 0
3, 120, Note_on_c, 0, 52, 53
3, 122, Note_on_c, 0, 68, 60
3, 123, Note_on_c, 0, 64, 51
3, 123, Note_on_c, 0, 60, 49
3, 143, Control_c, 0, 64, 127
3, 152, Control_c, 0, 64, 0
3, 172, Control_c, 0, 64, 127
3, 201, Note_on_c, 0, 60, 0
3, 201, Note_on_c, 0, 64, 0
3, 212, Note_on_c, 0, 68, 0
3, 244, Note_on_c, 0, 52, 0
3, 244, Control_c, 0, 64, 0
3, 244, Note_on_c, 0, 64, 60
3, 245, Note_on_c, 0, 69, 64
3, 247, Note_on_c, 0, 60, 50
3, 250, Note_on_c, 0, 53, 46
3, 252, Control_c, 0, 64, 127
3, 291, Note_on_c, 0, 69, 0
3, 298, Note_on_c, 0, 64, 0
3, 301, Note_on_c, 0, 60, 0
3, 363, Control_c, 0, 64, 0
3, 366, Note_on_c, 0, 53, 0
3, 367, Note_on_c, 0, 70, 56
3, 369, Note_on_c, 0, 54, 47
3, 371, Note_on_c, 0, 62, 36
3, 372, Note_on_c, 0, 65, 48
3, 392, Control_c, 0, 64, 127
3, 409, Note_on_c, 0, 65, 0
3, 413, Note_on_c, 0, 70, 0
3, 413, Note_on_c, 0, 54, 0
3, 416, Note_on_c, 0, 62, 0
3, 483, Note_on_c, 0, 53, 45
3, 484, Control_c, 0, 64, 0
3, 486, Note_on_c, 0, 43, 33
3, 487, Note_on_c, 0, 60, 45
3, 488, Note_on_c, 0, 58, 39
3, 490, Note_on_c, 0, 50, 32
3, 525, Control_c, 0, 64, 127
3, 536, Note_on_c, 0, 60, 0
3, 538, Note_on_c, 0, 53, 0
3, 548, Note_on_c, 0, 58, 0
3, 554, Note_on_c, 0, 50, 0
3, 563, Note_on_c, 0, 58, 34
3, 565, Note_on_c, 0, 53, 52
3, 567, Note_on_c, 0, 60, 57
3, 605, Note_on_c, 0, 50, 41
3, 606, Note_on_c, 0, 43, 0
3, 613, Note_on_c, 0, 50, 0
3, 668, Note_on_c, 0, 60, 0
3, 682, Note_on_c, 0, 62, 62
3, 686, Note_on_c, 0, 53, 0
3, 697, Note_on_c, 0, 58, 0
3, 709, Note_on_c, 0, 62, 0
3, 730, Note_on_c, 0, 58, 48
3, 732, Note_on_c, 0, 52, 37
3, 732, Note_on_c, 0, 63, 33
3, 735, Note_on_c, 0, 43, 29
3, 736, Control_c, 0, 64, 0
3, 737, Note_on_c, 0, 36, 25
3, 769, Note_on_c, 0, 52, 0
3, 772, Control_c, 0, 64, 127
3, 794, Note_on_c, 0, 63, 0
3, 799, Note_on_c, 0, 58, 0
3, 809, Note_on_c, 0, 43, 0
3, 833, Note_on_c, 0, 36, 0
3, 839, Control_c, 0, 64, 0
3, 844, Note_on_c, 0, 52, 37
3, 845, Note_on_c, 0, 61, 33
3, 845, Note_on_c, 0, 55, 36
3, 845, Note_on_c, 0, 64, 40
3, 846, Note_on_c, 0, 58, 33
3, 859, Control_c, 0, 64, 127
3, 885, Note_on_c, 0, 52, 0
3, 888, Note_on_c, 0, 55, 0
3, 898, Note_on_c, 0, 64, 0
3, 901, Note_on_c, 0, 58, 0
3, 901, Note_on_c, 0, 61, 0
3, 963, Note_on_c, 0, 50, 41
3, 966, Note_on_c, 0, 60, 46
3, 967, Control_c, 0, 64, 0
3, 967, Note_on_c, 0, 65, 43
3, 967, Note_on_c, 0, 55, 37
3, 999, Control_c, 0, 64, 127
3, 1010, Note_on_c, 0, 50, 0
3, 1015, Note_on_c, 0, 65, 0
3, 1017, Note_on_c, 0, 55, 0
3, 1021, Note_on_c, 0, 60, 0
3, 1038, Note_on_c, 0, 55, 58
3, 1040, Note_on_c, 0, 50, 26
3, 1040, Note_on_c, 0, 65, 45
3, 1040, Note_on_c, 0, 60, 57
3, 1053, Note_on_c, 0, 65, 0
3, 1053, Note_on_c, 0, 55, 0
3, 1058, Note_on_c, 0, 60, 0
3, 1081, Note_on_c, 0, 51, 52
3, 1081, Note_on_c, 0, 66, 62
3, 1082, Note_on_c, 0, 56, 57
3, 1083, Note_on_c, 0, 61, 59
3, 1084, Control_c, 0, 64, 0
3, 1094, Note_on_c, 0, 50, 0
3, 1123, Control_c, 0, 64, 127
3, 1174, Note_on_c, 0, 61, 0
3, 1177, Note_on_c, 0, 56, 0
3, 1180, Note_on_c, 0, 66, 0
3, 1193, Note_on_c, 0, 51, 0
3, 1195, Control_c, 0, 64, 0
3, 1198, Note_on_c, 0, 67, 50
3, 1199, Note_on_c, 0, 57, 45
3, 1200, Note_on_c, 0, 62, 47
3, 1200, Note_on_c, 0, 52, 36
3, 1227, Control_c, 0, 64, 127
3, 1228, Note_on_c, 0, 57, 0
3, 1230, Note_on_c, 0, 67, 0
3, 1237, Note_on_c, 0, 62, 0
3, 1273, Note_on_c, 0, 52, 0
3, 1275, Note_on_c, 0, 68, 47
3, 1276, Note_on_c, 0, 63, 44
3, 1277, Note_on_c, 0, 53, 37
3, 1278, Note_on_c, 0, 59, 40
3, 1295, Note_on_c, 0, 59, 0
3, 1305, Note_on_c, 0, 68, 0
3, 1311, Control_c, 0, 64, 0
3, 1313, Note_on_c, 0, 53, 0
3, 1314, Note_on_c, 0, 63, 0
3, 1316, Note_on_c, 0, 54, 51
3, 1320, Note_on_c, 0, 69, 50
3, 1322, Note_on_c, 0, 64, 40
3, 1333, Control_c, 0, 64, 127
3, 1345, Note_on_c, 0, 64, 0
3, 1349, Note_on_c, 0, 69, 0
3, 1412, Note_on_c, 0, 54, 0
3, 1439, Control_c, 0, 64, 0
3, 1440, Note_on_c, 0, 73, 21
3, 1440, Note_on_c, 0, 76, 34
3, 1440, Note_on_c, 0, 59, 32
3, 1440, Note_on_c, 0, 69, 42
3, 1441, Note_on_c, 0, 64, 28
3, 1443, Note_on_c, 0, 53, 35
3, 1463, Control_c, 0, 64, 127
3, 1475, Note_on_c, 0, 59, 0
3, 1477, Note_on_c, 0, 64, 0
3, 1481, Note_on_c, 0, 69, 0
3, 1481, Note_on_c, 0, 53, 0
3, 1489, Note_on_c, 0, 73, 0
3, 1492, Note_on_c, 0, 76, 0
3, 1552, Note_on_c, 0, 43, 39
3, 1554, Note_on_c, 0, 81, 59
3, 1556, Note_on_c, 0, 88, 45
3, 1569, Note_on_c, 0, 43, 0
3, 1616, Note_on_c, 0, 81, 0
3, 1617, Note_on_c, 0, 88, 0
3, 1670, Note_on_c, 0, 59, 41
3, 1671, Note_on_c, 0, 85, 36
3, 1671, Note_on_c, 0, 53, 24
3, 1673, Note_on_c, 0, 64, 28
3, 1674, Note_on_c, 0, 81, 31
3, 1675, Note_on_c, 0, 76, 26
3, 1693, Control_c, 0, 64, 0
3, 1700, Control_c, 0, 64, 127
3, 1745, Note_on_c, 0, 85, 0
3, 1747, Note_on_c, 0, 81, 0
3, 1749, Note_on_c, 0, 64, 0
3, 1757, Note_on_c, 0, 59, 0
3, 1758, Note_on_c, 0, 76, 0
3, 1773, Note_on_c, 0, 53, 0
3, 1845, Note_on_c, 0, 62, 71
3, 1847, Note_on_c, 0, 64, 57
3, 1853, Note_on_c, 0, 64, 0
3, 1880, Note_on_c, 0, 61, 45
3, 1886, Note_on_c, 0, 62, 0
3, 1897, Note_on_c, 0, 60, 53
3, 1904, Note_on_c, 0, 61, 0
3, 1914, Note_on_c, 0, 60, 0
3, 1914, Note_on_c, 0, 59, 46
3, 1931, Note_on_c, 0, 59, 0
3, 1931, Note_on_c, 0, 53, 22
3, 1931, Note_on_c, 0, 43, 30
3, 1932, Note_on_c, 0, 58, 57
3, 1935, Control_c, 0, 64, 0
3, 1936, Note_on_c, 0, 50, 13
3, 1948, Note_on_c, 0, 50, 0
3, 1986, Control_c, 0, 64, 127
3, 2013, Note_on_c, 0, 58, 0
3, 2020, Note_on_c, 0, 43, 0
3, 2021, Note_on_c, 0, 53, 0
3, 2038, Note_on_c, 0, 67, 62
3, 2038, Note_on_c, 0, 58, 62
3, 2041, Control_c, 0, 64, 0
3, 2042, Note_on_c, 0, 62, 64
3, 2045, Note_on_c, 0, 57, 33
3, 2047, Note_on_c, 0, 55, 33
3, 2063, Control_c, 0, 64, 127
3, 2077, Note_on_c, 0, 55, 0
3, 2107, Note_on_c, 0, 57, 0
3, 2124, Note_on_c, 0, 58, 0
3, 2131, Note_on_c, 0, 62, 0
3, 2137, Note_on_c, 0, 67, 0
3, 2165, Control_c, 0, 64, 0
3, 2167, Note_on_c, 0, 62, 49
3, 2167, Note_on_c, 0, 67, 39
3, 2168, Note_on_c, 0, 48, 36
3, 2168, Note_on_c, 0, 55, 34
3, 2169, Note_on_c, 0, 58, 29
3, 2184, Control_c, 0, 64, 127
3, 2198, Note_on_c, 0, 58, 0
3, 2209, Note_on_c, 0, 48, 0
3, 2210, Note_on_c, 0, 62, 0
3, 2215, Note_on_c, 0, 67, 0
3, 2216, Note_on_c, 0, 55, 0
3, 2351, Note_on_c, 0, 73, 55
3, 2352, Note_on_c, 0, 79, 66
3, 2353, Note_on_c, 0, 67, 54
3, 2353, Note_on_c, 0, 64, 50
3, 2355, Note_on_c, 0, 58, 49
3, 2356, Control_c, 0, 64, 0
3, 2358, Control_c, 0, 64, 127
3, 2392, Note_on_c, 0, 79, 0
3, 2400, Note_on_c, 0, 64, 0
3, 2400, Note_on_c, 0, 67, 0
3, 2409, Note_on_c, 0, 73, 0
3, 2418, Note_on_c, 0, 58, 0
3, 2486, Note_on_c, 0, 72, 61
3, 2488, Note_on_c, 0, 67, 67
3, 2489, Note_on_c, 0, 57, 55
3, 2489, Note_on_c, 0, 62, 62
3, 2497, Control_c, 0, 64, 0
3, 2517, Note_on_c, 0, 62, 0
3, 2518, Control_c, 0, 64, 127
3, 2522, Note_on_c, 0, 57, 0
3, 2523, Note_on_c, 0, 67, 0
3, 2528, Note_on_c, 0, 72, 0
3, 2566, Control_c, 0, 64, 0
3, 2568, Note_on_c, 0, 72, 74
3, 2568, Note_on_c, 0, 77, 71
3, 2569, Note_on_c, 0, 67, 66
3, 2571, Note_on_c, 0, 60, 47
3, 2572, Note_on_c, 0, 55, 38
3, 2586, Note_on_c, 0, 60, 0
3, 2588, Note_on_c, 0, 55, 0
3, 2589, Note_on_c, 0, 72, 0
3, 2590, Note_on_c, 0, 67, 0
3, 2591, Note_on_c, 0, 77, 0
3, 2598, Control_c, 0, 64, 127
3, 2651, Control_c, 0, 64, 0
3, 2655, Note_on_c, 0, 70, 60
3, 2655, Note_on_c, 0, 77, 62
3, 2655, Note_on_c, 0, 65, 70
3, 2656, Note_on_c, 0, 54, 53
3, 2657, Note_on_c, 0, 50, 53
3, 2662, Note_on_c, 0, 74, 30
3, 2682, Control_c, 0, 64, 127
3, 2711, Note_on_c, 0, 50, 0
3, 2714, Note_on_c, 0, 54, 0
3, 2714, Note_on_c, 0, 74, 0
3, 2718, Note_on_c, 0, 77, 0
3, 2719, Note_on_c, 0, 70, 0
3, 2727, Note_on_c, 0, 65, 0
3, 2760, Note_on_c, 0, 54, 26
3, 2763, Note_on_c, 0, 44, 34
3, 2821, Note_on_c, 0, 54, 0
3, 2842, Note_on_c, 0, 44, 0
3, 2874, Control_c, 0, 64, 0
3, 2884, Note_on_c, 0, 43, 32
3, 2884, Note_on_c, 0, 53, 26
3, 2886, Note_on_c, 0, 50, 32
3, 2887, Note_on_c, 0, 62, 40
3, 2887, Note_on_c, 0, 58, 31
3, 2888, Control_c, 0, 64, 127
3, 2888, Note_on_c, 0, 57, 36
3, 2899, Note_on_c, 0, 57, 0
3, 2902, Note_on_c, 0, 43, 0
3, 2903, Note_on_c, 0, 62, 0
3, 2903, Note_on_c, 0, 58, 0
3, 2904, Note_on_c, 0, 50, 0
3, 2913, Note_on_c, 0, 53, 0
3, 2968, Note_on_c, 0, 65, 70
3, 2969, Note_on_c, 0, 62, 79
3, 2969, Note_on_c, 0, 72, 73
3, 2970, Note_on_c, 0, 57, 64
3, 2971, Note_on_c, 0, 69, 56
3, 2990, Note_on_c, 0, 69, 0
3, 2993, Note_on_c, 0, 65, 0
3, 2994, Note_on_c, 0, 62, 0
3, 2996, Note_on_c, 0, 72, 0
3, 3006, Note_on_c, 0, 57, 0
3, 3009, Control_c, 0, 64, 0
3, 3013, Note_on_c, 0, 70, 47
3, 3015, Note_on_c, 0, 62, 40
3, 3016, Note_on_c, 0, 65, 36
3, 3018, Note_on_c, 0, 55, 46
3, 3033, Control_c, 0, 64, 127
3, 3046, Note_on_c, 0, 70, 0
3, 3047, Note_on_c, 0, 65, 0
3, 3057, Note_on_c, 0, 62, 0
3, 3058, Note_on_c, 0, 55, 0
3, 3088, Note_on_c, 0, 69, 53
3, 3089, Note_on_c, 0, 58, 50
3, 3090, Note_on_c, 0, 55, 38
3, 3090, Note_on_c, 0, 61, 43
3, 3094, Note_on_c, 0, 64, 39
3, 3096, Control_c, 0, 64, 0
3, 3100, Note_on_c, 0, 55, 0
3, 3104, Note_on_c, 0, 69, 0
3, 3105, Note_on_c, 0, 64, 0
3, 3106, Note_on_c, 0, 58, 0
3, 3109, Note_on_c, 0, 61, 0
3, 3127, Control_c, 0, 64, 127
3, 3181, Note_on_c, 0, 58, 39
3, 3181, Note_on_c, 0, 55, 36
3, 3181, Note_on_c, 0, 61, 37
3, 3181, Note_on_c, 0, 48, 47
3, 3183, Control_c, 0, 64, 0
3, 3185, Note_on_c, 0, 64, 26
3, 3188, Note_on_c, 0, 55, 0
3, 3193, Note_on_c, 0, 48, 0
3, 3193, Note_on_c, 0, 58, 0
3, 3195, Note_on_c, 0, 64, 0
3, 3198, Note_on_c, 0, 61, 0
3, 3248, Note_on_c, 0, 48, 40
3, 3251, Note_on_c, 0, 58, 39
3, 3252, Note_on_c, 0, 61, 33
3, 3252, Note_on_c, 0, 64, 36
3, 3253, Note_on_c, 0, 55, 34
3, 3264, Note_on_c, 0, 55, 0
3, 3267, Note_on_c, 0, 48, 0
3, 3270, Control_c, 0, 64, 127
3, 3273, Note_on_c, 0, 58, 0
3, 3275, Note_on_c, 0, 61, 0
3, 3286, Note_on_c, 0, 64, 0
3, 3320, Note_on_c, 0, 61, 45
3, 3322, Note_on_c, 0, 48, 43
3, 3322, Note_on_c, 0, 64, 38
3, 3323, Note_on_c, 0, 58, 38
3, 3324, Note_on_c, 0, 55, 34
3, 3325, Note_on_c, 0, 47, 38
3, 3328, Control_c, 0, 64, 0
3, 3331, Note_on_c, 0, 47, 0
3, 3364, Control_c, 0, 64, 127
3, 3402, Note_on_c, 0, 48, 0
3, 3432, Note_on_c, 0, 48, 50
3, 3439, Note_on_c, 0, 47, 33
3, 3446, Note_on_c, 0, 47, 0
3, 3466, Control_c, 0, 64, 0
3, 3471, Note_on_c, 0, 55, 0
3, 3477, Control_c, 0, 64, 127
3, 3484, Note_on_c, 0, 58, 0
3, 3487, Note_on_c, 0, 61, 0
3, 3495, Note_on_c, 0, 64, 0
3, 3523, Note_on_c, 0, 48, 0
3, 3537, Note_on_c, 0, 36, 60
3, 3543, Note_on_c, 0, 36, 0
3, 3607, Note_on_c, 0, 75, 74
3, 3608, Note_on_c, 0, 63, 72
3, 3608, Note_on_c, 0, 68, 71
3, 3609, Note_on_c, 0, 64, 74
3, 3611, Note_on_c, 0, 70, 50
3, 3673, Note_on_c, 0, 70, 0
3, 3675, Note_on_c, 0, 68, 0
3, 3678, Note_on_c, 0, 64, 0
3, 3682, Note_on_c, 0, 63, 0
3, 3693, Note_on_c, 0, 75, 0
3, 3707, Control_c, 0, 64, 0
3, 3716, Note_on_c, 0, 73, 34
3, 3719, Note_on_c, 0, 64, 36
3, 3720, Note_on_c, 0, 68, 36
3, 3720, Note_on_c, 0, 58, 42
3, 3722, Note_on_c, 0, 70, 34
3, 3732, Control_c, 0, 64, 127
3, 3764, Note_on_c, 0, 64, 0
3, 3765, Note_on_c, 0, 70, 0
3, 3767, Note_on_c, 0, 73, 0
3, 3767, Note_on_c, 0, 68, 0
3, 3788, Note_on_c, 0, 58, 0
3, 3799, Note_on_c, 0, 57, 46
3, 3799, Note_on_c, 0, 72, 62
3, 3800, Note_on_c, 0, 67, 62
3, 3802, Note_on_c, 0, 62, 46
3, 3813, Note_on_c, 0, 67, 0
3, 3814, Note_on_c, 0, 72, 0
3, 3817, Note_on_c, 0, 62, 0
3, 3819, Note_on_c, 0, 57, 0
3, 3838, Control_c, 0, 64, 0
3, 3910, Control_c, 0, 64, 127
3, 3919, Note_on_c, 0, 53, 48
3, 3919, Note_on_c, 0, 69, 47
3, 3920, Note_on_c, 0, 60, 44
3, 3920, Note_on_c, 0, 64, 37
3, 3944, Note_on_c, 0, 69, 0
3, 3945, Note_on_c, 0, 64, 0
3, 3948, Note_on_c, 0, 60, 0
3, 3950, Note_on_c, 0, 53, 0
3, 4017, Control_c, 0, 64, 0
3, 4032, Note_on_c, 0, 62, 66
3, 4032, Note_on_c, 0, 52, 68
3, 4032, Note_on_c, 0, 68, 59
3, 4034, Note_on_c, 0, 59, 60
3, 4038, Control_c, 0, 64, 127
3, 4057, Note_on_c, 0, 59, 0
3, 4062, Note_on_c, 0, 62, 0
3, 4069, Note_on_c, 0, 68, 0
3, 4070, Control_c, 0, 64, 0
3, 4077, Note_on_c, 0, 52, 0
3, 4085, Note_on_c, 0, 62, 47
3, 4085, Note_on_c, 0, 69, 59
3, 4085, Note_on_c, 0, 53, 48
3, 4087, Note_on_c, 0, 60, 43
3, 4089, Note_on_c, 0, 65, 44
3, 4101, Control_c, 0, 64, 127
3, 4119, Note_on_c, 0, 62, 0
3, 4126, Note_on_c, 0, 60, 0
3, 4126, Note_on_c, 0, 65, 0
3, 4128, Note_on_c, 0, 69, 0
3, 4174, Note_on_c, 0, 53, 0
3, 4194, Note_on_c, 0, 70, 55
3, 4195, Control_c, 0, 64, 0
3, 4195, Note_on_c, 0, 55, 47
3, 4197, Note_on_c, 0, 65, 49
3, 4198, Note_on_c, 0, 62, 45
3, 4212, Control_c, 0, 64, 127
3, 4222, Note_on_c, 0, 55, 0
3, 4227, Note_on_c, 0, 65, 0
3, 4228, Note_on_c, 0, 70, 0
3, 4234, Note_on_c, 0, 62, 0
3, 4312, Control_c, 0, 64, 0
3, 4314, Note_on_c, 0, 43, 36
3, 4314, Note_on_c, 0, 53, 46
3, 4314, Note_on_c, 0, 58, 47
3, 4317, Note_on_c, 0, 50, 28
3, 4317, Note_on_c, 0, 60, 50
3, 4336, Control_c, 0, 64, 127
3, 4374, Note_on_c, 0, 53, 0
3, 4379, Note_on_c, 0, 50, 0
3, 4392, Note_on_c, 0, 58, 0
3, 4401, Note_on_c, 0, 60, 0
3, 4428, Note_on_c, 0, 58, 50
3, 4429, Note_on_c, 0, 62, 60
3, 4429, Note_on_c, 0, 53, 44
3, 4446, Note_on_c, 0, 43, 0
3, 4475, Note_on_c, 0, 53, 0
3, 4484, Note_on_c, 0, 62, 0
3, 4489, Note_on_c, 0, 58, 0
3, 4554, Note_on_c, 0, 63, 38
3, 4554, Note_on_c, 0, 58, 47
3, 4554, Control_c, 0, 64, 0
3, 4556, Note_on_c, 0, 36, 38
3, 4556, Note_on_c, 0, 52, 29
3, 4557, Note_on_c, 0, 24, 26
3, 4582, Control_c, 0, 64, 127
3, 4626, Note_on_c, 0, 36, 0
3, 4630, Note_on_c, 0, 52, 0
3, 4639, Note_on_c, 0, 24, 0
3, 4674, Note_on_c, 0, 63, 0
3, 4681, Note_on_c, 0, 58, 0
3, 4741, Note_on_c, 0, 57, 56
3, 4742, Control_c, 0, 64, 0
3, 4742, Note_on_c, 0, 48, 60
3, 4743, Note_on_c, 0, 64, 54
3, 4743, Note_on_c, 0, 58, 59
3, 4743, Note_on_c, 0, 61, 58
3, 4761, Control_c, 0, 64, 127
3, 4771, Note_on_c, 0, 48, 0
3, 4772, Note_on_c, 0, 58, 0
3, 4773, Note_on_c, 0, 57, 0
3, 4776, Note_on_c, 0, 40, 49
3, 4777, Note_on_c, 0, 64, 0
3, 4778, Note_on_c, 0, 61, 0
3, 4799, Note_on_c, 0, 40, 0
3, 4811, Control_c, 0, 64, 0
3, 4812, Note_on_c, 0, 65, 63
3, 4812, Note_on_c, 0, 60, 64
3, 4812, Note_on_c, 0, 55, 41
3, 4813, Note_on_c, 0, 41, 71
3, 4814, Note_on_c, 0, 29, 56
3, 4855, Control_c, 0, 64, 127
3, 4888, Note_on_c, 0, 29, 0
3, 4891, Note_on_c, 0, 55, 0
3, 4912, Note_on_c, 0, 60, 0
3, 4913, Note_on_c, 0, 65, 0
3, 4915, Note_on_c, 0, 41, 0
3, 5042, Control_c, 0, 64, 0
3, 5044, Note_on_c, 0, 52, 45
3, 5045, Note_on_c, 0, 67, 60
3, 5046, Note_on_c, 0, 58, 50
3, 5047, Note_on_c, 0, 61, 46
3, 5050, Note_on_c, 0, 64, 40
3, 5070, Control_c, 0, 64, 127
3, 5078, Note_on_c, 0, 67, 0
3, 5084, Note_on_c, 0, 61, 0
3, 5086, Note_on_c, 0, 64, 0
3, 5090, Note_on_c, 0, 58, 0
3, 5114, Note_on_c, 0, 52, 0
3, 5120, Note_on_c, 0, 53, 52
3, 5120, Note_on_c, 0, 68, 61
3, 5122, Note_on_c, 0, 62, 51
3, 5140, Note_on_c, 0, 53, 0
3, 5142, Note_on_c, 0, 62, 0
3, 5148, Note_on_c, 0, 68, 0
3, 5155, Control_c, 0, 64, 0
3, 5162, Note_on_c, 0, 54, 57
3, 5162, Note_on_c, 0, 69, 65
3, 5168, Note_on_c, 0, 62, 36
3, 5176, Note_on_c, 0, 62, 0
3, 5178, Note_on_c, 0, 54, 0
3, 5181, Note_on_c, 0, 69, 0
3, 5199, Control_c, 0, 64, 127
3, 5229, Note_on_c, 0, 61, 50
3, 5231, Note_on_c, 0, 59, 59
3, 5235, Note_on_c, 0, 53, 53
3, 5238, Note_on_c, 0, 43, 40
3, 5242, Control_c, 0, 64, 0
3, 5276, Control_c, 0, 64, 127
3, 5325, Note_on_c, 0, 59, 0
3, 5330, Note_on_c, 0, 63, 60
3, 5341, Note_on_c, 0, 61, 0
3, 5350, Note_on_c, 0, 63, 0
3, 5364, Note_on_c, 0, 64, 62
3, 5374, Note_on_c, 0, 43, 0
3, 5387, Note_on_c, 0, 64, 0
3, 5388, Note_on_c, 0, 53, 0
3, 5400, Note_on_c, 0, 69, 70
3, 5431, Note_on_c, 0, 73, 51
3, 5436, Note_on_c, 0, 69, 0
3, 5446, Note_on_c, 0, 73, 0
3, 5467, Note_on_c, 0, 76, 73
3, 5486, Note_on_c, 0, 76, 0
3, 5499, Note_on_c, 0, 81, 71
3, 5519, Note_on_c, 0, 81, 0
3, 5536, Note_on_c, 0, 85, 83
3, 5556, Note_on_c, 0, 85, 0
3, 5571, Note_on_c, 0, 88, 88
3, 5586, Control_c, 0, 64, 0
3, 5594, Note_on_c, 0, 88, 0
3, 5609, Note_on_c, 0, 83, 73
3, 5609, Note_on_c, 0, 59, 58
3, 5610, Note_on_c, 0, 64, 44
3, 5610, Note_on_c, 0, 53, 40
3, 5627, Note_on_c, 0, 83, 0
3, 5648, Note_on_c, 0, 85, 73
3, 5666, Note_on_c, 0, 85, 0
3, 5688, Note_on_c, 0, 81, 33
3, 5699, Note_on_c, 0, 81, 0
3, 5704, Control_c, 0, 64, 127
3, 5709, Note_on_c, 0, 64, 0
3, 5710, Note_on_c, 0, 59, 0
3, 5719, Note_on_c, 0, 84, 65
3, 5739, Note_on_c, 0, 84, 0
3, 5753, Note_on_c, 0, 57, 30
3, 5753, Control_c, 0, 64, 0
3, 5754, Note_on_c, 0, 62, 34
3, 5758, Note_on_c, 0, 58, 34
3, 5759, Note_on_c, 0, 82, 35
3, 5768, Note_on_c, 0, 82, 0
3, 5785, Note_on_c, 0, 53, 0
3, 5786, Control_c, 0, 64, 127
3, 5833, Note_on_c, 0, 57, 0
3, 5836, Note_on_c, 0, 62, 0
3, 5838, Note_on_c, 0, 53, 38
3, 5840, Note_on_c, 0, 58, 0
3, 5849, Note_on_c, 0, 53, 0
3, 5866, Control_c, 0, 64, 0
3, 5875, Note_on_c, 0, 58, 81
3, 5875, Note_on_c, 0, 62, 75
3, 5876, Note_on_c, 0, 65, 63
3, 5876, Note_on_c, 0, 69, 74
3, 5877, Note_on_c, 0, 57, 82
3, 5919, Control_c, 0, 64, 127
3, 5951, Note_on_c, 0, 62, 0
3, 5953, Note_on_c, 0, 65, 0
3, 5964, Note_on_c, 0, 58, 0
3, 5967, Note_on_c, 0, 69, 0
3, 5977, Note_on_c, 0, 57, 0
3, 5999, Note_on_c, 0, 67, 47
3, 5999, Control_c, 0, 64, 0
3, 5999, Note_on_c, 0, 58, 36
3, 6002, Note_on_c, 0, 55, 32
3, 6003, Note_on_c, 0, 61, 33
3, 6004, Note_on_c, 0, 48, 30
3, 6004, Note_on_c, 0, 64, 34
3, 6028, Control_c, 0, 64, 127
3, 6057, Note_on_c, 0, 55, 0
3, 6063, Note_on_c, 0, 48, 0
3, 6077, Note_on_c, 0, 58, 0
3, 6081, Note_on_c, 0, 67, 0
3, 6082, Note_on_c, 0, 61, 0
3, 6098, Note_on_c, 0, 64, 0
3, 6113, Control_c, 0, 64, 0
3, 6113, Note_on_c, 0, 46, 35
3, 6115, Note_on_c, 0, 61, 43
3, 6116, Note_on_c, 0, 58, 37
3, 6140, Control_c, 0, 64, 127
3, 6180, Note_on_c, 0, 58, 0
3, 6183, Note_on_c, 0, 46, 0
3, 6193, Note_on_c, 0, 52, 39
3, 6197, Note_on_c, 0, 61, 0
3, 6203, Note_on_c, 0, 52, 0
3, 6219, Control_c, 0, 64, 0
3, 6230, Note_on_c, 0, 60, 35
3, 6233, Note_on_c, 0, 55, 35
3, 6236, Control_c, 0, 64, 127
3, 6237, Note_on_c, 0, 52, 20
3, 6237, Note_on_c, 0, 45, 30
3, 6245, Note_on_c, 0, 45, 0
3, 6246, Note_on_c, 0, 55, 0
3, 6253, Note_on_c, 0, 52, 0
3, 6255, Note_on_c, 0, 60, 0
3, 6316, Note_on_c, 0, 77, 71
3, 6317, Note_on_c, 0, 69, 68
3, 6317, Note_on_c, 0, 64, 61
3, 6317, Note_on_c, 0, 72, 61
3, 6317, Note_on_c, 0, 55, 55
3, 6319, Note_on_c, 0, 57, 40
3, 6319, Note_on_c, 0, 60, 44
3, 6322, Note_on_c, 0, 69, 0
3, 6323, Note_on_c, 0, 72, 0
3, 6323, Note_on_c, 0, 64, 0
3, 6323, Control_c, 0, 64, 0
3, 6325, Note_on_c, 0, 60, 0
3, 6328, Note_on_c, 0, 55, 0
3, 6331, Note_on_c, 0, 77, 0
3, 6332, Note_on_c, 0, 57, 0
3, 6353, Control_c, 0, 64, 127
3, 6377, Control_c, 0, 64, 0
3, 6391, Note_on_c, 0, 77, 65
3, 6392, Note_on_c, 0, 64, 56
3, 6392, Note_on_c, 0, 55, 59
3, 6392, Note_on_c, 0, 72, 66
3, 6393, Note_on_c, 0, 69, 71
3, 6393, Control_c, 0, 64, 127
3, 6396, Note_on_c, 0, 57, 35
3, 6397, Note_on_c, 0, 60, 43
3, 6435, Note_on_c, 0, 69, 0
3, 6435, Note_on_c, 0, 72, 0
3, 6439, Note_on_c, 0, 55, 0
3, 6442, Note_on_c, 0, 64, 0
3, 6443, Note_on_c, 0, 57, 0
3, 6443, Note_on_c, 0, 60, 0
3, 6445, Note_on_c, 0, 77, 0
3, 6464, Control_c, 0, 64, 0
3, 6464, Note_on_c, 0, 77, 59
3, 6465, Note_on_c, 0, 70, 50
3, 6467, Note_on_c, 0, 74, 50
3, 6468, Note_on_c, 0, 54, 61
3, 6468, Note_on_c, 0, 65, 40
3, 6469, Note_on_c, 0, 60, 47
3, 6497, Control_c, 0, 64, 127
3, 6502, Note_on_c, 0, 65, 0
3, 6505, Note_on_c, 0, 70, 0
3, 6509, Note_on_c, 0, 60, 0
3, 6510, Note_on_c, 0, 77, 0
3, 6510, Note_on_c, 0, 54, 0
3, 6511, Note_on_c, 0, 74, 0
3, 6529, Control_c, 0, 64, 0
3, 6544, Note_on_c, 0, 77, 62
3, 6545, Note_on_c, 0, 54, 47
3, 6545, Note_on_c, 0, 70, 50
3, 6546, Note_on_c, 0, 74, 50
3, 6547, Note_on_c, 0, 65, 46
3, 6547, Note_on_c, 0, 60, 51
3, 6577, Control_c, 0, 64, 127
3, 6650, Note_on_c, 0, 77, 0
3, 6653, Note_on_c, 0, 74, 0
3, 6659, Note_on_c, 0, 65, 0
3, 6659, Note_on_c, 0, 60, 0
3, 6662, Note_on_c, 0, 70, 0
3, 6698, Note_on_c, 0, 54, 0
3, 6723, Control_c, 0, 64, 0
3, 6725, Note_on_c, 0, 72, 78
3, 6725, Note_on_c, 0, 60, 88
3, 6725, Note_on_c, 0, 65, 83
3, 6725, Note_on_c, 0, 69, 75
3, 6726, Note_on_c, 0, 62, 88
3, 6758, Control_c, 0, 64, 127
3, 6769, Note_on_c, 0, 69, 0
3, 6784, Note_on_c, 0, 62, 0
3, 6785, Note_on_c, 0, 65, 0
3, 6786, Note_on_c, 0, 72, 0
3, 6796, Note_on_c, 0, 60, 0
3, 6801, Note_on_c, 0, 70, 55
3, 6802, Note_on_c, 0, 62, 51
3, 6803, Note_on_c, 0, 58, 60
3, 6813, Note_on_c, 0, 70, 0
3, 6815, Note_on_c, 0, 62, 0
3, 6818, Note_on_c, 0, 58, 0
3, 6841, Control_c, 0, 64, 0
3, 6848, Note_on_c, 0, 61, 53
3, 6849, Note_on_c, 0, 69, 62
3, 6849, Note_on_c, 0, 58, 49
3, 6850, Note_on_c, 0, 57, 58
3, 6854, Note_on_c, 0, 64, 35
3, 6862, Note_on_c, 0, 57, 0
3, 6864, Note_on_c, 0, 58, 0
3, 6864, Note_on_c, 0, 64, 0
3, 6864, Note_on_c, 0, 61, 0
3, 6866, Note_on_c, 0, 69, 0
3, 6882, Control_c, 0, 64, 127
3, 6960, Control_c, 0, 64, 0
3, 6961, Note_on_c, 0, 64, 50
3, 6963, Note_on_c, 0, 56, 46
3, 6963, Note_on_c, 0, 61, 36
3, 6964, Note_on_c, 0, 52, 40
3, 6967, Note_on_c, 0, 48, 44
3, 7000, Control_c, 0, 64, 127
3, 7038, Note_on_c, 0, 36, 68
3, 7052, Control_c, 0, 64, 0
3, 7057, Note_on_c, 0, 52, 0
3, 7071, Control_c, 0, 64, 127
3, 7153, Note_on_c, 0, 61, 0
3, 7153, Note_on_c, 0, 56, 0
3, 7160, Note_on_c, 0, 48, 0
3, 7166, Note_on_c, 0, 64, 0
3, 7266, Note_on_c, 0, 65, 62
3, 7267, Note_on_c, 0, 36, 0
3, 7269, Note_on_c, 0, 60, 58
3, 7271, Note_on_c, 0, 57, 42
3, 7272, Control_c, 0, 64, 0
3, 7273, Note_on_c, 0, 48, 41
3, 7301, Control_c, 0, 64, 127
3, 7332, Note_on_c, 0, 60, 0
3, 7340, Note_on_c, 0, 65, 0
3, 7340, Note_on_c, 0, 57, 0
3, 7351, Note_on_c, 0, 48, 0
3, 7393, Note_on_c, 0, 35, 66
3, 7399, Control_c, 0, 64, 0
3, 7406, Note_on_c, 0, 35, 0
3, 7410, Control_c, 0, 64, 127
3, 7457, Note_on_c, 0, 68, 48
3, 7457, Note_on_c, 0, 51, 59
3, 7458, Note_on_c, 0, 61, 52
3, 7459, Note_on_c, 0, 56, 38
3, 7459, Note_on_c, 0, 57, 48
3, 7460, Note_on_c, 0, 65, 50
3, 7465, Control_c, 0, 64, 0
3, 7492, Control_c, 0, 64, 127
3, 7536, Note_on_c, 0, 56, 0
3, 7538, Note_on_c, 0, 57, 0
3, 7539, Note_on_c, 0, 65, 0
3, 7543, Note_on_c, 0, 61, 0
3, 7546, Note_on_c, 0, 47, 40
3, 7555, Note_on_c, 0, 47, 0
3, 7563, Note_on_c, 0, 68, 0
3, 7599, Note_on_c, 0, 51, 0
3, 7678, Note_on_c, 0, 65, 37
3, 7679, Note_on_c, 0, 46, 31
3, 7681, Note_on_c, 0, 57, 24
3, 7681, Note_on_c, 0, 53, 30
3, 7683, Note_on_c, 0, 62, 24
3, 7685, Control_c, 0, 64, 0
3, 7695, Note_on_c, 0, 57, 0
3, 7701, Note_on_c, 0, 53, 0
3, 7702, Note_on_c, 0, 62, 0
3, 7704, Note_on_c, 0, 65, 0
3, 7707, Note_on_c, 0, 46, 0
3, 7767, Control_c, 0, 64, 127
3, 7792, Control_c, 0, 64, 0
3, 7800, Note_on_c, 0, 46, 26
3, 7802, Note_on_c, 0, 64, 35
3, 7805, Note_on_c, 0, 60, 35
3, 7815, Note_on_c, 0, 60, 0
3, 7823, Note_on_c, 0, 64, 0
3, 7823, Note_on_c, 0, 46, 0
3, 7876, Note_on_c, 0, 65, 51
3, 7888, Note_on_c, 0, 65, 0
3, 7888, Control_c, 0, 64, 127
3, 7918, Control_c, 0, 64, 0
3, 7919, Note_on_c, 0, 58, 48
3, 7920, Note_on_c, 0, 53, 50
3, 7921, Note_on_c, 0, 70, 43
3, 7922, Note_on_c, 0, 62, 44
3, 7922, Note_on_c, 0, 46, 33
3, 7933, Note_on_c, 0, 62, 0
3, 7933, Note_on_c, 0, 58, 0
3, 7936, Note_on_c, 0, 53, 0
3, 7937, Note_on_c, 0, 70, 0
3, 7944, Note_on_c, 0, 46, 0
3, 8005, Control_c, 0, 64, 127
3, 8033, Control_c, 0, 64, 0
3, 8038, Note_on_c, 0, 46, 34
3, 8042, Note_on_c, 0, 53, 38
3, 8042, Note_on_c, 0, 58, 39
3, 8044, Note_on_c, 0, 62, 36
3, 8057, Note_on_c, 0, 53, 0
3, 8064, Note_on_c, 0, 58, 0
3, 8067, Note_on_c, 0, 46, 0
3, 8068, Note_on_c, 0, 62, 0
3, 8120, Control_c, 0, 64, 127
3, 8120, Note_on_c, 0, 63, 62
3, 8142, Note_on_c, 0, 63, 0
3, 8159, Control_c, 0, 64, 0
3, 8161, Note_on_c, 0, 46, 34
3, 8163, Note_on_c, 0, 64, 49
3, 8164, Note_on_c, 0, 55, 48
3, 8166, Note_on_c, 0, 60, 36
3, 8174, Note_on_c, 0, 55, 0
3, 8183, Note_on_c, 0, 60, 0
3, 8189, Note_on_c, 0, 64, 0
3, 8190, Note_on_c, 0, 46, 0
3, 8235, Control_c, 0, 64, 127
3, 8258, Control_c, 0, 64, 0
3, 8280, Note_on_c, 0, 46, 31
3, 8283, Note_on_c, 0, 60, 38
3, 8283, Note_on_c, 0, 64, 30
3, 8293, Note_on_c, 0, 60, 0
3, 8295, Control_c, 0, 64, 127
3, 8300, Control_c, 0, 64, 0
3, 8303, Note_on_c, 0, 64, 0
3, 8308, Note_on_c, 0, 46, 0
3, 8348, Control_c, 0, 64, 127
3, 8361, Note_on_c, 0, 76, 68
3, 8362, Note_on_c, 0, 67, 73
3, 8362, Note_on_c, 0, 58, 55
3, 8365, Note_on_c, 0, 72, 44
3, 8372, Note_on_c, 0, 72, 0
3, 8377, Note_on_c, 0, 67, 0
3, 8378, Note_on_c, 0, 76, 0
3, 8383, Note_on_c, 0, 58, 0
3, 8392, Control_c, 0, 64, 0
3, 8401, Note_on_c, 0, 46, 35
3, 8402, Note_on_c, 0, 58, 45
3, 8403, Note_on_c, 0, 72, 44
3, 8406, Note_on_c, 0, 67, 46
3, 8407, Note_on_c, 0, 64, 26
3, 8423, Control_c, 0, 64, 127
3, 8432, Note_on_c, 0, 67, 0
3, 8438, Note_on_c, 0, 72, 0
3, 8441, Note_on_c, 0, 58, 0
3, 8442, Note_on_c, 0, 64, 0
3, 8445, Control_c, 0, 64, 0
3, 8451, Note_on_c, 0, 46, 0
3, 8481, Control_c, 0, 64, 127
3, 8508, Control_c, 0, 64, 0
3, 8524, Note_on_c, 0, 58, 30
3, 8525, Note_on_c, 0, 67, 36
3, 8526, Note_on_c, 0, 64, 40
3, 8528, Note_on_c, 0, 60, 31
3, 8536, Control_c, 0, 64, 127
3, 8557, Note_on_c, 0, 64, 0
3, 8559, Note_on_c, 0, 67, 0
3, 8569, Note_on_c, 0, 60, 0
3, 8571, Note_on_c, 0, 58, 0
3, 8592, Note_on_c, 0, 46, 38
3, 8616, Note_on_c, 0, 46, 0
3, 8637, Note_on_c, 0, 66, 59
3, 8639, Note_on_c, 0, 58, 48
3, 8639, Note_on_c, 0, 63, 53
3, 8641, Control_c, 0, 64, 0
3, 8643, Note_on_c, 0, 48, 49
3, 8670, Control_c, 0, 64, 127
3, 8686, Note_on_c, 0, 48, 0
3, 8731, Note_on_c, 0, 58, 0
3, 8735, Note_on_c, 0, 63, 0
3, 8740, Note_on_c, 0, 66, 0
3, 8754, Note_on_c, 0, 30, 48
3, 8760, Control_c, 0, 64, 0
3, 8774, Control_c, 0, 64, 127
3, 8780, Note_on_c, 0, 30, 0
3, 8819, Control_c, 0, 64, 0
3, 8827, Control_c, 0, 64, 127
3, 8830, Note_on_c, 0, 29, 59
3, 8835, Note_on_c, 0, 29, 0
3, 8874, Note_on_c, 0, 61, 74
3, 8874, Note_on_c, 0, 68, 70
3, 8876, Note_on_c, 0, 63, 58
3, 8876, Note_on_c, 0, 57, 72
3, 8878, Note_on_c, 0, 56, 68
3, 8880, Control_c, 0, 64, 0
3, 8911, Control_c, 0, 64, 127
3, 8962, Note_on_c, 0, 57, 0
3, 8969, Note_on_c, 0, 63, 0
3, 8969, Note_on_c, 0, 61, 0
3, 8979, Note_on_c, 0, 68, 0
3, 8984, Note_on_c, 0, 56, 0
3, 8991, Control_c, 0, 64, 0
3, 8995, Note_on_c, 0, 66, 51
3, 8995, Note_on_c, 0, 54, 43
3, 8998, Note_on_c, 0, 61, 39
3, 9001, Note_on_c, 0, 63, 31
3, 9001, Note_on_c, 0, 57, 29
3, 9016, Control_c, 0, 64, 127
3, 9068, Note_on_c, 0, 57, 0
3, 9068, Note_on_c, 0, 61, 0
3, 9070, Note_on_c, 0, 54, 0
3, 9072, Note_on_c, 0, 66, 0
3, 9080, Note_on_c, 0, 63, 0
3, 9120, Note_on_c, 0, 46, 47
3, 9122, Control_c, 0, 64, 0
3, 9123, Note_on_c, 0, 53, 46
3, 9158, Control_c, 0, 64, 127
3, 9186, Note_on_c, 0, 67, 62
3, 9187, Note_on_c, 0, 57, 57
3, 9187, Note_on_c, 0, 60, 64
3, 9188, Note_on_c, 0, 64, 54
3, 9214, Note_on_c, 0, 64, 0
3, 9215, Note_on_c, 0, 57, 0
3, 9219, Note_on_c, 0, 60, 0
3, 9220, Note_on_c, 0, 67, 0
3, 9234, Note_on_c, 0, 53, 0
3, 9246, Control_c, 0, 64, 0
3, 9246, Note_on_c, 0, 57, 36
3, 9247, Note_on_c, 0, 55, 44
3, 9247, Note_on_c, 0, 62, 34
3, 9249, Note_on_c, 0, 65, 28
3, 9274, Control_c, 0, 64, 127
3, 9280, Note_on_c, 0, 57, 0
3, 9290, Note_on_c, 0, 46, 0
3, 9292, Note_on_c, 0, 62, 0
3, 9296, Note_on_c, 0, 65, 0
3, 9309, Note_on_c, 0, 46, 46
3, 9313, Note_on_c, 0, 55, 0
3, 9343, Note_on_c, 0, 46, 0
3, 9362, Note_on_c, 0, 46, 54
3, 9370, Note_on_c, 0, 69, 61
3, 9373, Note_on_c, 0, 61, 53
3, 9374, Note_on_c, 0, 65, 51
3, 9403, Note_on_c, 0, 65, 0
3, 9403, Note_on_c, 0, 61, 0
3, 9406, Note_on_c, 0, 69, 0
3, 9424, Note_on_c, 0, 72, 78
3, 9425, Note_on_c, 0, 61, 79
3, 9425, Note_on_c, 0, 57, 67
3, 9426, Note_on_c, 0, 65, 79
3, 9441, Control_c, 0, 64, 0
3, 9450, Note_on_c, 0, 57, 0
3, 9455, Note_on_c, 0, 61, 0
3, 9458, Note_on_c, 0, 65, 0
3, 9461, Note_on_c, 0, 72, 0
3, 9477, Note_on_c, 0, 70, 60
3, 9478, Control_c, 0, 64, 127
3, 9479, Note_on_c, 0, 65, 54
3, 9479, Note_on_c, 0, 62, 48
3, 9480, Note_on_c, 0, 55, 40
3, 9511, Note_on_c, 0, 46, 0
3, 9515, Note_on_c, 0, 65, 0
3, 9518, Note_on_c, 0, 62, 0
3, 9524, Note_on_c, 0, 70, 0
3, 9537, Note_on_c, 0, 55, 0
3, 9544, Note_on_c, 0, 46, 54
3, 9581, Note_on_c, 0, 46, 0
3, 9592, Note_on_c, 0, 46, 62
3, 9592, Note_on_c, 0, 77, 66
3, 9593, Control_c, 0, 64, 0
3, 9594, Note_on_c, 0, 72, 46
3, 9596, Note_on_c, 0, 69, 37
3, 9601, Note_on_c, 0, 72, 0
3, 9603, Note_on_c, 0, 69, 0
3, 9609, Note_on_c, 0, 77, 0
3, 9613, Note_on_c, 0, 46, 0
3, 9656, Control_c, 0, 64, 127
3, 9705, Control_c, 0, 64, 0
3, 9712, Note_on_c, 0, 46, 37
3, 9714, Note_on_c, 0, 58, 33
3, 9715, Note_on_c, 0, 53, 36
3, 9715, Note_on_c, 0, 67, 52
3, 9718, Note_on_c, 0, 76, 37
3, 9724, Note_on_c, 0, 67, 0
3, 9727, Note_on_c, 0, 58, 0
3, 9730, Note_on_c, 0, 53, 0
3, 9733, Note_on_c, 0, 76, 0
3, 9736, Note_on_c, 0, 46, 0
3, 9751, Control_c, 0, 64, 127
3, 9792, Note_on_c, 0, 77, 45
3, 9797, Note_on_c, 0, 69, 30
3, 9804, Note_on_c, 0, 69, 0
3, 9810, Note_on_c, 0, 77, 0
3, 9829, Note_on_c, 0, 58, 46
3, 9830, Control_c, 0, 64, 0
3, 9830, Note_on_c, 0, 46, 38
3, 9833, Note_on_c, 0, 82, 61
3, 9833, Note_on_c, 0, 53, 36
3, 9848, Note_on_c, 0, 82, 0
3, 9850, Note_on_c, 0, 58, 0
3, 9860, Note_on_c, 0, 46, 0
3, 9860, Note_on_c, 0, 53, 0
3, 9867, Control_c, 0, 64, 127
3, 9935, Control_c, 0, 64, 0
3, 9951, Note_on_c, 0, 46, 46
3, 9953, Note_on_c, 0, 58, 40
3, 9954, Note_on_c, 0, 53, 41
3, 9959, Control_c, 0, 64, 127
3, 9964, Note_on_c, 0, 53, 0
3, 9967, Note_on_c, 0, 58, 0
3, 9974, Note_on_c, 0, 46, 0
3, 10070, Note_on_c, 0, 74, 78
3, 10071, Note_on_c, 0, 62, 74
3, 10072, Note_on_c, 0, 67, 70
3, 10072, Note_on_c, 0, 70, 51
3, 10072, Note_on_c, 0, 58, 71
3, 10073, Control_c, 0, 64, 0
3, 10074, Note_on_c, 0, 52, 66
3, 10104, Control_c, 0, 64, 127
3, 10116, Note_on_c, 0, 62, 0
3, 10122, Note_on_c, 0, 67, 0
3, 10126, Note_on_c, 0, 74, 0
3, 10129, Note_on_c, 0, 70, 0
3, 10150, Note_on_c, 0, 58, 0
3, 10189, Control_c, 0, 64, 0
3, 10192, Note_on_c, 0, 76, 82
3, 10193, Note_on_c, 0, 70, 81
3, 10194, Note_on_c, 0, 58, 62
3, 10194, Note_on_c, 0, 62, 74
3, 10194, Note_on_c, 0, 65, 70
3, 10198, Note_on_c, 0, 67, 42
3, 10205, Note_on_c, 0, 67, 0
3, 10211, Control_c, 0, 64, 127
3, 10233, Note_on_c, 0, 62, 0
3, 10246, Note_on_c, 0, 58, 0
3, 10247, Note_on_c, 0, 76, 0
3, 10248, Note_on_c, 0, 70, 0
3, 10248, Note_on_c, 0, 65, 0
3, 10249, Note_on_c, 0, 52, 0
3, 10302, Control_c, 0, 64, 0
3, 10314, Note_on_c, 0, 45, 62
3, 10319, Note_on_c, 0, 45, 0
3, 10322, Control_c, 0, 64, 127
3, 10379, Note_on_c, 0, 76, 75
3, 10380, Note_on_c, 0, 70, 73
3, 10380, Note_on_c, 0, 55, 66
3, 10380, Note_on_c, 0, 64, 66
3, 10381, Note_on_c, 0, 61, 62
3, 10381, Note_on_c, 0, 73, 40
3, 10381, Note_on_c, 0, 67, 74
3, 10387, Control_c, 0, 64, 0
3, 10406, Control_c, 0, 64, 127
3, 10419, Note_on_c, 0, 76, 0
3, 10424, Note_on_c, 0, 64, 0
3, 10427, Note_on_c, 0, 67, 0
3, 10430, Note_on_c, 0, 61, 0
3, 10431, Note_on_c, 0, 73, 0
3, 10437, Note_on_c, 0, 76, 72
3, 10440, Note_on_c, 0, 64, 47
3, 10441, Note_on_c, 0, 67, 50
3, 10441, Note_on_c, 0, 61, 37
3, 10460, Note_on_c, 0, 55, 0
3, 10463, Note_on_c, 0, 67, 0
3, 10472, Note_on_c, 0, 70, 0
3, 10475, Note_on_c, 0, 76, 0
3, 10478, Note_on_c, 0, 64, 0
3, 10504, Note_on_c, 0, 55, 58
3, 10507, Note_on_c, 0, 61, 0
3, 10517, Note_on_c, 0, 70, 34
3, 10518, Note_on_c, 0, 55, 0
3, 10523, Note_on_c, 0, 70, 0
3, 10551, Note_on_c, 0, 69, 73
3, 10552, Note_on_c, 0, 63, 64
3, 10553, Note_on_c, 0, 60, 71
3, 10554, Note_on_c, 0, 67, 58
3, 10555, Note_on_c, 0, 57, 69
3, 10559, Control_c, 0, 64, 0
3, 10593, Control_c, 0, 64, 127
3, 10645, Note_on_c, 0, 57, 0
3, 10645, Note_on_c, 0, 69, 0
3, 10647, Note_on_c, 0, 60, 0
3, 10653, Note_on_c, 0, 63, 0
3, 10653, Note_on_c, 0, 67, 0
3, 10674, Note_on_c, 0, 63, 47
3, 10676, Note_on_c, 0, 69, 60
3, 10676, Note_on_c, 0, 57, 44
3, 10679, Note_on_c, 0, 60, 32
3, 10707, Note_on_c, 0, 60, 0
3, 10707, Note_on_c, 0, 57, 0
3, 10717, Note_on_c, 0, 69, 0
3, 10717, Note_on_c, 0, 63, 0
3, 10798, Note_on_c, 0, 72, 40
3, 10799, Note_on_c, 0, 68, 31
3, 10800, Note_on_c, 0, 60, 39
3, 10800, Note_on_c, 0, 65, 41
3, 10801, Note_on_c, 0, 54, 32
3, 10802, Note_on_c, 0, 50, 37
3, 10805, Control_c, 0, 64, 0
3, 10834, Control_c, 0, 64, 127
3, 10874, Note_on_c, 0, 50, 0
3, 10879, Note_on_c, 0, 60, 0
3, 10879, Note_on_c, 0, 65, 0
3, 10885, Note_on_c, 0, 68, 0
3, 10885, Note_on_c, 0, 54, 0
3, 10887, Note_on_c, 0, 72, 0
3, 10922, Note_on_c, 0, 72, 30
3, 10922, Note_on_c, 0, 54, 34
3, 10923, Note_on_c, 0, 68, 26
3, 10923, Note_on_c, 0, 60, 30
3, 10924, Note_on_c, 0, 65, 33
3, 10925, Note_on_c, 0, 50, 30
3, 10943, Note_on_c, 0, 54, 0
3, 10946, Note_on_c, 0, 72, 0
3, 10950, Note_on_c, 0, 65, 0
3, 10950, Note_on_c, 0, 50, 0
3, 10954, Note_on_c, 0, 68, 0
3, 10961, Note_on_c, 0, 60, 0
3, 11046, Note_on_c, 0, 53, 32
3, 11048, Note_on_c, 0, 64, 30
3, 11048, Note_on_c, 0, 57, 38
3, 11050, Note_on_c, 0, 43, 34
3, 11051, Note_on_c, 0, 50, 24
3, 11051, Note_on_c, 0, 59, 35
3, 11055, Control_c, 0, 64, 0
3, 11086, Control_c, 0, 64, 127
3, 11147, Note_on_c, 0, 53, 0
3, 11167, Note_on_c, 0, 53, 32
3, 11195, Note_on_c, 0, 50, 0
3, 11209, Note_on_c, 0, 57, 0
3, 11215, Note_on_c, 0, 53, 0
3, 11223, Note_on_c, 0, 43, 0
3, 11229, Note_on_c, 0, 59, 0
3, 11282, Note_on_c, 0, 52, 38
3, 11287, Note_on_c, 0, 48, 35
3, 11292, Control_c, 0, 64, 0
3, 11325, Control_c, 0, 64, 127
3, 11365, Note_on_c, 0, 52, 0
3, 11380, Note_on_c, 0, 48, 0
3, 11388, Control_c, 0, 64, 0
3, 11397, Note_on_c, 0, 36, 38
3, 11398, Note_on_c, 0, 52, 36
3, 11399, Note_on_c, 0, 64, 0
3, 11399, Note_on_c, 0, 58, 35
3, 11403, Control_c, 0, 64, 127
3, 11406, Note_on_c, 0, 36, 0
3, 11416, Note_on_c, 0, 52, 0
3, 11436, Note_on_c, 0, 58, 0
3, 11515, Note_on_c, 0, 72, 74
3, 11515, Note_on_c, 0, 67, 82
3, 11516, Note_on_c, 0, 62, 81
3, 11518, Note_on_c, 0, 57, 72
3, 11521, Control_c, 0, 64, 0
3, 11553, Control_c, 0, 64, 127
3, 11598, Note_on_c, 0, 67, 0
3, 11600, Note_on_c, 0, 62, 0
3, 11603, Note_on_c, 0, 72, 0
3, 11638, Note_on_c, 0, 71, 51
3, 11638, Note_on_c, 0, 56, 51
3, 11639, Note_on_c, 0, 61, 50
3, 11640, Note_on_c, 0, 57, 0
3, 11640, Control_c, 0, 64, 0
3, 11640, Note_on_c, 0, 66, 51
3, 11676, Control_c, 0, 64, 127
3, 11700, Note_on_c, 0, 61, 0
3, 11713, Note_on_c, 0, 71, 0
3, 11715, Note_on_c, 0, 66, 0
3, 11749, Control_c, 0, 64, 0
3, 11758, Note_on_c, 0, 72, 49
3, 11759, Note_on_c, 0, 56, 0
3, 11759, Note_on_c, 0, 67, 55
3, 11759, Note_on_c, 0, 62, 52
3, 11762, Note_on_c, 0, 57, 46
3, 11776, Control_c, 0, 64, 127
3, 11800, Note_on_c, 0, 62, 0
3, 11809, Note_on_c, 0, 67, 0
3, 11812, Note_on_c, 0, 72, 0
3, 11833, Note_on_c, 0, 57, 0
3, 11875, Note_on_c, 0, 74, 58
3, 11877, Control_c, 0, 64, 0
3, 11877, Note_on_c, 0, 68, 46
3, 11880, Note_on_c, 0, 64, 35
3, 11881, Note_on_c, 0, 58, 30
3, 11892, Control_c, 0, 64, 127
3, 11896, Note_on_c, 0, 58, 0
3, 11897, Note_on_c, 0, 74, 0
3, 11902, Note_on_c, 0, 68, 0
3, 11905, Note_on_c, 0, 64, 0
3, 11996, Control_c, 0, 64, 0
3, 12000, Note_on_c, 0, 58, 39
3, 12001, Note_on_c, 0, 48, 30
3, 12002, Note_on_c, 0, 64, 36
3, 12003, Note_on_c, 0, 55, 43
3, 12022, Control_c, 0, 64, 127
3, 12037, Note_on_c, 0, 48, 0
3, 12048, Note_on_c, 0, 55, 0
3, 12049, Note_on_c, 0, 64, 0
3, 12053, Note_on_c, 0, 58, 0
3, 12075, Note_on_c, 0, 55, 59
3, 12076, Note_on_c, 0, 48, 41
3, 12076, Note_on_c, 0, 58, 50
3, 12076, Note_on_c, 0, 64, 38
3, 12085, Note_on_c, 0, 64, 0
3, 12091, Note_on_c, 0, 55, 0
3, 12095, Note_on_c, 0, 58, 0
3, 12110, Note_on_c, 0, 48, 0
3, 12124, Note_on_c, 0, 65, 43
3, 12124, Note_on_c, 0, 50, 43
3, 12124, Control_c, 0, 64, 0
3, 12124, Note_on_c, 0, 59, 55
3, 12125, Note_on_c, 0, 56, 30
3, 12125, Note_on_c, 0, 62, 50
3, 12155, Control_c, 0, 64, 127
3, 12174, Note_on_c, 0, 59, 0
3, 12177, Note_on_c, 0, 62, 0
3, 12181, Note_on_c, 0, 65, 0
3, 12189, Note_on_c, 0, 56, 0
3, 12230, Note_on_c, 0, 50, 0
3, 12238, Control_c, 0, 64, 0
3, 12240, Note_on_c, 0, 51, 49
3, 12241, Note_on_c, 0, 66, 51
3, 12242, Note_on_c, 0, 57, 42
3, 12243, Note_on_c, 0, 63, 40
3, 12244, Note_on_c, 0, 60, 47
3, 12271, Control_c, 0, 64, 127
3, 12293, Note_on_c, 0, 60, 0
3, 12296, Note_on_c, 0, 57, 0
3, 12304, Note_on_c, 0, 63, 0
3, 12311, Note_on_c, 0, 66, 0
3, 12343, Note_on_c, 0, 51, 0
3, 12358, Note_on_c, 0, 67, 64
3, 12359, Note_on_c, 0, 62, 60
3, 12359, Note_on_c, 0, 52, 60
3, 12359, Note_on_c, 0, 59, 64
3, 12360, Control_c, 0, 64, 0
3, 12360, Note_on_c, 0, 64, 56
3, 12389, Control_c, 0, 64, 127
3, 12413, Note_on_c, 0, 59, 0
3, 12418, Note_on_c, 0, 52, 0
3, 12419, Note_on_c, 0, 62, 0
3, 12421, Note_on_c, 0, 67, 0
3, 12426, Note_on_c, 0, 64, 0
3, 12475, Note_on_c, 0, 53, 74
3, 12476, Control_c, 0, 64, 0
3, 12476, Note_on_c, 0, 69, 77
3, 12477, Note_on_c, 0, 64, 74
3, 12477, Note_on_c, 0, 60, 78
3, 12513, Control_c, 0, 64, 127
3, 12528, Note_on_c, 0, 53, 0
3, 12529, Note_on_c, 0, 69, 0
3, 12530, Note_on_c, 0, 60, 0
3, 12530, Control_c, 0, 64, 0
3, 12536, Note_on_c, 0, 64, 0
3, 12550, Note_on_c, 0, 53, 55
3, 12551, Note_on_c, 0, 69, 67
3, 12551, Note_on_c, 0, 64, 60
3, 12553, Note_on_c, 0, 60, 64
3, 12564, Control_c, 0, 64, 127
3, 12569, Control_c, 0, 64, 0
3, 12582, Control_c, 0, 64, 127
3, 12590, Note_on_c, 0, 60, 0
3, 12590, Note_on_c, 0, 69, 0
3, 12593, Note_on_c, 0, 64, 0
3, 12597, Note_on_c, 0, 53, 0
3, 12640, Control_c, 0, 64, 0
3, 12641, Note_on_c, 0, 70, 65
3, 12643, Note_on_c, 0, 62, 50
3, 12644, Note_on_c, 0, 65, 58
3, 12644, Note_on_c, 0, 55, 57
3, 12657, Control_c, 0, 64, 127
3, 12677, Note_on_c, 0, 65, 0
3, 12684, Note_on_c, 0, 62, 0
3, 12691, Note_on_c, 0, 70, 0
3, 12701, Note_on_c, 0, 55, 0
3, 12706, Control_c, 0, 64, 0
3, 12717, Note_on_c, 0, 71, 54
3, 12719, Note_on_c, 0, 56, 36
3, 12720, Note_on_c, 0, 65, 54
3, 12722, Note_on_c, 0, 62, 43
3, 12726, Control_c, 0, 64, 127
3, 12746, Note_on_c, 0, 62, 0
3, 12747, Note_on_c, 0, 65, 0
3, 12755, Note_on_c, 0, 71, 0
3, 12759, Note_on_c, 0, 56, 0
3, 12843, Note_on_c, 0, 67, 49
3, 12844, Note_on_c, 0, 72, 33
3, 12846, Note_on_c, 0, 57, 27
3, 12867, Note_on_c, 0, 57, 0
3, 12876, Note_on_c, 0, 67, 0
3, 12883, Note_on_c, 0, 72, 0
3, 12953, Control_c, 0, 64, 0
3, 12959, Note_on_c, 0, 65, 43
3, 12959, Note_on_c, 0, 59, 24
3, 12960, Note_on_c, 0, 73, 29
3, 12961, Note_on_c, 0, 53, 32
3, 12975, Control_c, 0, 64, 127
3, 13017, Note_on_c, 0, 69, 54
3, 13019, Note_on_c, 0, 65, 0
3, 13020, Note_on_c, 0, 73, 0
3, 13051, Note_on_c, 0, 73, 49
3, 13052, Note_on_c, 0, 69, 0
3, 13066, Note_on_c, 0, 73, 0
3, 13086, Note_on_c, 0, 77, 57
3, 13109, Note_on_c, 0, 77, 0
3, 13111, Note_on_c, 0, 53, 0
3, 13117, Note_on_c, 0, 59, 0
3, 13119, Note_on_c, 0, 81, 74
3, 13140, Note_on_c, 0, 81, 0
3, 13155, Note_on_c, 0, 85, 83
3, 13157, Note_on_c, 0, 82, 51
3, 13163, Note_on_c, 0, 82, 0
3, 13180, Note_on_c, 0, 85, 0
3, 13196, Note_on_c, 0, 88, 88
3, 13378, Note_on_c, 0, 88, 0
3, 13398, Note_on_c, 0, 85, 57
3, 13420, Note_on_c, 0, 85, 0
3, 13446, Note_on_c, 0, 48, 36
3, 13447, Note_on_c, 0, 84, 58
3, 13449, Note_on_c, 0, 57, 40
3, 13451, Note_on_c, 0, 72, 25
3, 13456, Control_c, 0, 64, 0
3, 13480, Control_c, 0, 64, 127
3, 13509, Note_on_c, 0, 84, 0
3, 13523, Note_on_c, 0, 72, 0
3, 13543, Note_on_c, 0, 48, 0
3, 13563, Note_on_c, 0, 48, 34
3, 13591, Note_on_c, 0, 57, 0
3, 13609, Note_on_c, 0, 65, 64
3, 13610, Note_on_c, 0, 69, 58
3, 13610, Note_on_c, 0, 57, 48
3, 13610, Note_on_c, 0, 60, 64
3, 13623, Note_on_c, 0, 60, 0
3, 13624, Note_on_c, 0, 69, 0
3, 13628, Note_on_c, 0, 65, 0
3, 13629, Note_on_c, 0, 57, 0
3, 13642, Note_on_c, 0, 68, 52
3, 13642, Note_on_c, 0, 56, 30
3, 13667, Note_on_c, 0, 68, 0
3, 13669, Control_c, 0, 64, 0
3, 13680, Note_on_c, 0, 56, 0
3, 13681, Note_on_c, 0, 69, 54
3, 13682, Note_on_c, 0, 65, 48
3, 13684, Note_on_c, 0, 57, 53
3, 13685, Note_on_c, 0, 60, 40
3, 13695, Control_c, 0, 64, 127
3, 13729, Note_on_c, 0, 60, 0
3, 13743, Note_on_c, 0, 57, 0
3, 13746, Note_on_c, 0, 65, 0
3, 13766, Note_on_c, 0, 69, 0
3, 13793, Note_on_c, 0, 70, 53
3, 13795, Control_c, 0, 64, 0
3, 13796, Note_on_c, 0, 58, 42
3, 13797, Note_on_c, 0, 62, 36
3, 13798, Note_on_c, 0, 65, 46
3, 13807, Control_c, 0, 64, 127
3, 13835, Note_on_c, 0, 65, 0
3, 13835, Note_on_c, 0, 58, 0
3, 13835, Note_on_c, 0, 62, 0
3, 13842, Note_on_c, 0, 48, 0
3, 13843, Note_on_c, 0, 70, 0
3, 13917, Note_on_c, 0, 67, 80
3, 13918, Note_on_c, 0, 72, 75
3, 13918, Note_on_c, 0, 55, 62
3, 13919, Note_on_c, 0, 60, 75
3, 13919, Note_on_c, 0, 45, 55
3, 13920, Control_c, 0, 64, 0
3, 13950, Control_c, 0, 64, 127
3, 13994, Note_on_c, 0, 60, 0
3, 13999, Note_on_c, 0, 72, 0
3, 14000, Note_on_c, 0, 55, 0
3, 14009, Note_on_c, 0, 67, 0
3, 14037, Note_on_c, 0, 74, 68
3, 14038, Note_on_c, 0, 67, 67
3, 14039, Control_c, 0, 64, 0
3, 14040, Note_on_c, 0, 62, 61
3, 14041, Note_on_c, 0, 55, 46
3, 14054, Note_on_c, 0, 55, 0
3, 14054, Control_c, 0, 64, 127
3, 14066, Note_on_c, 0, 45, 0
3, 14081, Note_on_c, 0, 67, 0
3, 14082, Note_on_c, 0, 62, 0
3, 14084, Note_on_c, 0, 74, 0
3, 14155, Control_c, 0, 64, 0
3, 14156, Note_on_c, 0, 26, 60
3, 14160, Note_on_c, 0, 75, 49
3, 14163, Note_on_c, 0, 70, 46
3, 14163, Note_on_c, 0, 63, 34
3, 14170, Note_on_c, 0, 26, 0
3, 14172, Control_c, 0, 64, 127
3, 14221, Note_on_c, 0, 63, 0
3, 14221, Note_on_c, 0, 70, 0
3, 14229, Note_on_c, 0, 75, 0
3, 14280, Note_on_c, 0, 54, 39
3, 14282, Note_on_c, 0, 60, 34
3, 14319, Note_on_c, 0, 60, 0
3, 14332, Note_on_c, 0, 54, 0
3, 14343, Note_on_c, 0, 70, 54
3, 14344, Note_on_c, 0, 76, 47
3, 14346, Note_on_c, 0, 64, 34
3, 14355, Note_on_c, 0, 64, 0
3, 14365, Note_on_c, 0, 76, 0
3, 14368, Note_on_c, 0, 70, 0
3, 14390, Control_c, 0, 64, 0
3, 14399, Note_on_c, 0, 50, 53
3, 14401, Note_on_c, 0, 77, 61
3, 14401, Note_on_c, 0, 57, 43
3, 14402, Note_on_c, 0, 60, 36
3, 14403, Note_on_c, 0, 72, 40
3, 14404, Note_on_c, 0, 65, 41
3, 14409, Control_c, 0, 64, 127
3, 14428, Note_on_c, 0, 65, 0
3, 14435, Note_on_c, 0, 50, 0
3, 14436, Note_on_c, 0, 57, 0
3, 14440, Note_on_c, 0, 72, 0
3, 14441, Note_on_c, 0, 60, 0
3, 14450, Note_on_c, 0, 77, 0
3, 14511, Note_on_c, 0, 86, 79
3, 14513, Note_on_c, 0, 74, 73
3, 14513, Note_on_c, 0, 81, 70
3, 14514, Note_on_c, 0, 65, 74
3, 14516, Note_on_c, 0, 60, 64
3, 14516, Note_on_c, 0, 55, 68
3, 14516, Note_on_c, 0, 57, 54
3, 14523, Control_c, 0, 64, 0
3, 14549, Control_c, 0, 64, 127
3, 14581, Note_on_c, 0, 65, 0
3, 14584, Note_on_c, 0, 60, 0
3, 14585, Note_on_c, 0, 55, 0
3, 14587, Note_on_c, 0, 57, 0
3, 14614, Note_on_c, 0, 86, 0
3, 14616, Note_on_c, 0, 74, 0
3, 14620, Note_on_c, 0, 81, 0
3, 14636, Control_c, 0, 64, 0
3, 14639, Note_on_c, 0, 59, 68
3, 14640, Note_on_c, 0, 64, 73
3, 14641, Note_on_c, 0, 53, 63
3, 14658, Control_c, 0, 64, 127
3, 14678, Note_on_c, 0, 64, 0
3, 14680, Note_on_c, 0, 59, 0
3, 14688, Note_on_c, 0, 53, 0
3, 14757, Note_on_c, 0, 53, 57
3, 14758, Note_on_c, 0, 65, 65
3, 14758, Note_on_c, 0, 43, 55
3, 14758, Control_c, 0, 64, 0
3, 14760, Note_on_c, 0, 60, 64
3, 14761, Note_on_c, 0, 57, 43
3, 14774, Note_on_c, 0, 53, 0
3, 14774, Control_c, 0, 64, 127
3, 14786, Note_on_c, 0, 43, 0
3, 14803, Note_on_c, 0, 57, 0
3, 14810, Note_on_c, 0, 60, 0
3, 14828, Note_on_c, 0, 65, 0
3, 14871, Control_c, 0, 64, 0
3, 14876, Note_on_c, 0, 24, 61
3, 14878, Note_on_c, 0, 36, 45
3, 14878, Note_on_c, 0, 58, 61
3, 14878, Note_on_c, 0, 64, 66
3, 14880, Note_on_c, 0, 55, 45
3, 14882, Note_on_c, 0, 53, 36
3, 14890, Note_on_c, 0, 53, 0
3, 14893, Note_on_c, 0, 24, 0
3, 14897, Control_c, 0, 64, 127
3, 14898, Note_on_c, 0, 55, 0
3, 14899, Note_on_c, 0, 36, 0
3, 14916, Note_on_c, 0, 58, 0
3, 14923, Note_on_c, 0, 64, 0
3, 14998, Note_on_c, 0, 73, 57
3, 15000, Note_on_c, 0, 69, 68
3, 15001, Note_on_c, 0, 58, 67
3, 15001, Note_on_c, 0, 64, 61
3, 15006, Control_c, 0, 64, 0
3, 15020, Note_on_c, 0, 64, 0
3, 15021, Note_on_c, 0, 69, 0
3, 15025, Note_on_c, 0, 58, 0
3, 15025, Note_on_c, 0, 73, 0
3, 15068, Note_on_c, 0, 73, 43
3, 15069, Note_on_c, 0, 58, 49
3, 15071, Note_on_c, 0, 69, 53
3, 15072, Note_on_c, 0, 64, 46
3, 15083, Note_on_c, 0, 64, 0
3, 15086, Note_on_c, 0, 69, 0
3, 15090, Note_on_c, 0, 58, 0
3, 15091, Note_on_c, 0, 73, 0
3, 15133, Note_on_c, 0, 73, 36
3, 15135, Note_on_c, 0, 58, 37
3, 15136, Note_on_c, 0, 64, 36
3, 15137, Note_on_c, 0, 69, 41
3, 15148, Note_on_c, 0, 64, 0
3, 15150, Note_on_c, 0, 58, 0
3, 15151, Note_on_c, 0, 69, 0
3, 15156, Note_on_c, 0, 73, 0
3, 15185, Control_c, 0, 64, 127
3, 15194, Note_on_c, 0, 73, 34
3, 15195, Note_on_c, 0, 58, 38
3, 15199, Note_on_c, 0, 64, 31
3, 15199, Note_on_c, 0, 69, 34
3, 15229, Note_on_c, 0, 64, 0
3, 15235, Note_on_c, 0, 58, 0
3, 15236, Note_on_c, 0, 69, 0
3, 15244, Note_on_c, 0, 73, 0
3, 15306, Note_on_c, 0, 76, 37
3, 15307, Note_on_c, 0, 64, 38
3, 15307, Note_on_c, 0, 68, 36
3, 15307, Note_on_c, 0, 58, 44
3, 15310, Note_on_c, 0, 73, 18
3, 15320, Note_on_c, 0, 64, 0
3, 15322, Note_on_c, 0, 68, 0
3, 15329, Note_on_c, 0, 76, 0
3, 15330, Note_on_c, 0, 73, 0
3, 15356, Note_on_c, 0, 58, 0
3, 15368, Control_c, 0, 64, 0
3, 15369, Note_on_c, 0, 67, 40
3, 15370, Note_on_c, 0, 77, 45
3, 15370, Note_on_c, 0, 62, 35
3, 15371, Note_on_c, 0, 72, 48
3, 15374, Note_on_c, 0, 57, 34
3, 15393, Control_c, 0, 64, 127
3, 15402, Note_on_c, 0, 67, 0
3, 15403, Note_on_c, 0, 72, 0
3, 15405, Note_on_c, 0, 77, 0
3, 15407, Note_on_c, 0, 57, 0
3, 15408, Note_on_c, 0, 62, 0
3, 15433, Note_on_c, 0, 77, 44
3, 15435, Note_on_c, 0, 72, 43
3, 15436, Note_on_c, 0, 67, 31
3, 15437, Note_on_c, 0, 57, 40
3, 15438, Note_on_c, 0, 62, 26
3, 15514, Note_on_c, 0, 72, 0
3, 15515, Note_on_c, 0, 67, 0
3, 15516, Note_on_c, 0, 57, 0
3, 15519, Note_on_c, 0, 62, 0
3, 15536, Note_on_c, 0, 77, 0
3, 15549, Note_on_c, 0, 67, 25
3, 15550, Note_on_c, 0, 72, 28
3, 15551, Note_on_c, 0, 62, 26
3, 15551, Note_on_c, 0, 57, 32
3, 15570, Note_on_c, 0, 67, 0
3, 15577, Note_on_c, 0, 72, 0
3, 15577, Note_on_c, 0, 62, 0
3, 15579, Note_on_c, 0, 57, 0
3, 15614, Note_on_c, 0, 77, 40
3, 15616, Control_c, 0, 64, 0
3, 15617, Note_on_c, 0, 67, 35
3, 15617, Note_on_c, 0, 57, 41
3, 15617, Note_on_c, 0, 62, 36
3, 15618, Note_on_c, 0, 72, 35
3, 15628, Control_c, 0, 64, 127
3, 15651, Note_on_c, 0, 72, 0
3, 15653, Note_on_c, 0, 67, 0
3, 15655, Note_on_c, 0, 62, 0
3, 15657, Note_on_c, 0, 57, 0
3, 15657, Note_on_c, 0, 77, 0
3, 15678, Note_on_c, 0, 77, 41
3, 15682, Note_on_c, 0, 72, 41
3, 15682, Note_on_c, 0, 62, 33
3, 15682, Note_on_c, 0, 67, 31
3, 15683, Note_on_c, 0, 57, 37
3, 15688, Control_c, 0, 64, 0
3, 15697, Control_c, 0, 64, 127
3, 15755, Note_on_c, 0, 57, 0
3, 15760, Note_on_c, 0, 67, 0
3, 15770, Note_on_c, 0, 72, 0
3, 15778, Note_on_c, 0, 77, 0
3, 15784, Note_on_c, 0, 62, 0
3, 15785, Note_on_c, 0, 57, 35
3, 15804, Note_on_c, 0, 57, 0
3, 15842, Note_on_c, 0, 77, 50
3, 15845, Control_c, 0, 64, 0
3, 15845, Note_on_c, 0, 58, 36
3, 15845, Note_on_c, 0, 65, 33
3, 15846, Note_on_c, 0, 74, 43
3, 15846, Note_on_c, 0, 70, 34
3, 15848, Note_on_c, 0, 62, 24
3, 15876, Control_c, 0, 64, 127
3, 15888, Note_on_c, 0, 65, 0
3, 15889, Note_on_c, 0, 70, 0
3, 15890, Note_on_c, 0, 62, 0
3, 15893, Note_on_c, 0, 74, 0
3, 15897, Note_on_c, 0, 77, 0
3, 15898, Note_on_c, 0, 58, 0
3, 15912, Note_on_c, 0, 77, 37
3, 15914, Note_on_c, 0, 58, 39
3, 15914, Note_on_c, 0, 74, 31
3, 15914, Note_on_c, 0, 62, 34
3, 15915, Note_on_c, 0, 70, 34
3, 15915, Note_on_c, 0, 65, 33
3, 15917, Control_c, 0, 64, 0
3, 15948, Control_c, 0, 64, 127
3, 15967, Note_on_c, 0, 62, 0
3, 15976, Note_on_c, 0, 74, 0
3, 15976, Note_on_c, 0, 58, 0
3, 15983, Note_on_c, 0, 65, 0
3, 15985, Note_on_c, 0, 70, 0
3, 16004, Note_on_c, 0, 77, 0
3, 16020, Note_on_c, 0, 74, 53
3, 16030, Note_on_c, 0, 65, 24
3, 16036, Note_on_c, 0, 65, 0
3, 16037, Note_on_c, 0, 74, 0
3, 16086, Note_on_c, 0, 76, 32
3, 16087, Note_on_c, 0, 64, 34
3, 16087, Note_on_c, 0, 24, 29
3, 16087, Note_on_c, 0, 73, 25
3, 16088, Note_on_c, 0, 36, 26
3, 16089, Note_on_c, 0, 68, 38
3, 16091, Control_c, 0, 64, 0
3, 16208, Note_on_c, 0, 68, 0
3, 16208, Note_on_c, 0, 64, 0
3, 16212, Note_on_c, 0, 73, 0
3, 16212, Note_on_c, 0, 24, 0
3, 16213, Note_on_c, 0, 76, 0
3, 16213, Note_on_c, 0, 36, 0
3, 16320, Control_c, 0, 64, 127
3, 16320, Control_c, 0, 64, 0
3, 16326, Note_on_c, 0, 69, 66
3, 16327, Note_on_c, 0, 64, 58
3, 16328, Note_on_c, 0, 60, 66
3, 16329, Note_on_c, 0, 53, 60
3, 16365, Control_c, 0, 64, 127
3, 16402, Note_on_c, 0, 64, 0
3, 16405, Note_on_c, 0, 60, 0
3, 16409, Note_on_c, 0, 69, 0
3, 16436, Note_on_c, 0, 53, 0
3, 16438, Note_on_c, 0, 68, 52
3, 16441, Control_c, 0, 64, 0
3, 16442, Note_on_c, 0, 59, 51
3, 16443, Note_on_c, 0, 52, 43
3, 16443, Note_on_c, 0, 63, 45
3, 16497, Control_c, 0, 64, 127
3, 16503, Note_on_c, 0, 59, 0
3, 16520, Note_on_c, 0, 63, 0
3, 16526, Note_on_c, 0, 68, 0
3, 16544, Control_c, 0, 64, 0
3, 16551, Note_on_c, 0, 52, 0
3, 16551, Note_on_c, 0, 69, 59
3, 16552, Note_on_c, 0, 60, 45
3, 16553, Note_on_c, 0, 64, 51
3, 16554, Note_on_c, 0, 53, 41
3, 16576, Control_c, 0, 64, 127
3, 16604, Note_on_c, 0, 69, 0
3, 16605, Note_on_c, 0, 60, 0
3, 16608, Note_on_c, 0, 64, 0
3, 16658, Note_on_c, 0, 53, 0
3, 16670, Note_on_c, 0, 70, 56
3, 16672, Control_c, 0, 64, 0
3, 16676, Note_on_c, 0, 62, 32
3, 16676, Note_on_c, 0, 65, 44
3, 16676, Note_on_c, 0, 55, 36
3, 16686, Control_c, 0, 64, 127
3, 16706, Note_on_c, 0, 65, 0
3, 16709, Note_on_c, 0, 55, 0
3, 16712, Note_on_c, 0, 70, 0
3, 16714, Note_on_c, 0, 62, 0
3, 16786, Control_c, 0, 64, 0
3, 16794, Note_on_c, 0, 60, 50
3, 16794, Note_on_c, 0, 58, 39
3, 16795, Note_on_c, 0, 53, 26
3, 16797, Note_on_c, 0, 43, 34
3, 16797, Note_on_c, 0, 50, 27
3, 16807, Control_c, 0, 64, 127
3, 16822, Note_on_c, 0, 43, 0
3, 16830, Note_on_c, 0, 50, 0
3, 16834, Note_on_c, 0, 53, 0
3, 16840, Note_on_c, 0, 60, 0
3, 16852, Note_on_c, 0, 58, 0
3, 16878, Note_on_c, 0, 58, 51
3, 16881, Note_on_c, 0, 60, 55
3, 16936, Note_on_c, 0, 58, 0
3, 16976, Note_on_c, 0, 60, 0
3, 16993, Note_on_c, 0, 62, 60
3, 17033, Note_on_c, 0, 62, 0
3, 17047, Control_c, 0, 64, 0
3, 17048, Note_on_c, 0, 48, 31
3, 17078, Control_c, 0, 64, 127
3, 17122, Note_on_c, 0, 63, 53
3, 17124, Note_on_c, 0, 58, 57
3, 17126, Note_on_c, 0, 52, 42
3, 17128, Note_on_c, 0, 61, 34
3, 17144, Note_on_c, 0, 52, 0
3, 17150, Note_on_c, 0, 58, 0
3, 17155, Note_on_c, 0, 61, 0
3, 17156, Note_on_c, 0, 48, 0
3, 17159, Note_on_c, 0, 63, 0
3, 17169, Note_on_c, 0, 58, 38
3, 17170, Note_on_c, 0, 48, 30
3, 17170, Control_c, 0, 64, 0
3, 17171, Note_on_c, 0, 64, 42
3, 17171, Note_on_c, 0, 60, 54
3, 17195, Control_c, 0, 64, 127
3, 17223, Note_on_c, 0, 48, 0
3, 17223, Note_on_c, 0, 58, 0
3, 17228, Note_on_c, 0, 60, 0
3, 17238, Note_on_c, 0, 64, 0
3, 17284, Note_on_c, 0, 65, 58
3, 17286, Control_c, 0, 64, 0
3, 17286, Note_on_c, 0, 60, 57
3, 17288, Note_on_c, 0, 50, 50
3, 17288, Note_on_c, 0, 55, 34
3, 17290, Note_on_c, 0, 57, 29
3, 17322, Control_c, 0, 64, 127
3, 17325, Note_on_c, 0, 55, 0
3, 17348, Note_on_c, 0, 60, 0
3, 17348, Note_on_c, 0, 57, 0
3, 17355, Note_on_c, 0, 65, 0
3, 17401, Note_on_c, 0, 50, 0
3, 17402, Note_on_c, 0, 67, 57
3, 17404, Note_on_c, 0, 62, 53
3, 17404, Note_on_c, 0, 59, 37
3, 17405, Note_on_c, 0, 52, 43
3, 17408, Control_c, 0, 64, 0
3, 17444, Control_c, 0, 64, 127
3, 17461, Note_on_c, 0, 59, 0
3, 17468, Note_on_c, 0, 67, 0
3, 17479, Note_on_c, 0, 62, 0
3, 17511, Note_on_c, 0, 52, 0
3, 17513, Control_c, 0, 64, 0
3, 17516, Note_on_c, 0, 53, 39
3, 17517, Note_on_c, 0, 68, 47
3, 17519, Note_on_c, 0, 62, 47
3, 17521, Note_on_c, 0, 60, 31
3, 17547, Control_c, 0, 64, 127
3, 17587, Note_on_c, 0, 60, 0
3, 17589, Note_on_c, 0, 62, 0
3, 17596, Note_on_c, 0, 68, 0
3, 17622, Note_on_c, 0, 53, 0
3, 17632, Control_c, 0, 64, 0
3, 17633, Note_on_c, 0, 55, 42
3, 17634, Note_on_c, 0, 69, 45
3, 17635, Note_on_c, 0, 62, 36
3, 17636, Note_on_c, 0, 65, 45
3, 17636, Note_on_c, 0, 60, 29
3, 17645, Note_on_c, 0, 55, 0
3, 17649, Control_c, 0, 64, 127
3, 17665, Note_on_c, 0, 60, 0
3, 17673, Note_on_c, 0, 62, 0
3, 17676, Note_on_c, 0, 65, 0
3, 17688, Note_on_c, 0, 69, 0
3, 17746, Control_c, 0, 64, 0
3, 17748, Note_on_c, 0, 76, 47
3, 17749, Note_on_c, 0, 73, 28
3, 17751, Note_on_c, 0, 53, 25
3, 17752, Note_on_c, 0, 59, 35
3, 17752, Note_on_c, 0, 69, 45
3, 17752, Note_on_c, 0, 64, 22
3, 17769, Control_c, 0, 64, 127
3, 17779, Note_on_c, 0, 69, 0
3, 17789, Note_on_c, 0, 73, 0
3, 17793, Note_on_c, 0, 76, 0
3, 17831, Note_on_c, 0, 88, 78
3, 17833, Note_on_c, 0, 81, 69
3, 17836, Note_on_c, 0, 64, 0
3, 17844, Note_on_c, 0, 59, 0
3, 17865, Note_on_c, 0, 81, 0
3, 17873, Control_c, 0, 64, 0
3, 17873, Note_on_c, 0, 85, 51
3, 17874, Note_on_c, 0, 64, 30
3, 17875, Note_on_c, 0, 59, 33
3, 17876, Control_c, 0, 64, 127
3, 17879, Note_on_c, 0, 76, 29
3, 17880, Note_on_c, 0, 88, 0
3, 17901, Note_on_c, 0, 85, 0
3, 17920, Note_on_c, 0, 76, 0
3, 17939, Note_on_c, 0, 64, 0
3, 17948, Note_on_c, 0, 53, 0
3, 17948, Note_on_c, 0, 81, 58
3, 17951, Note_on_c, 0, 73, 40
3, 17954, Note_on_c, 0, 59, 0
3, 17989, Note_on_c, 0, 53, 35
3, 17990, Note_on_c, 0, 62, 31
3, 17991, Note_on_c, 0, 59, 26
3, 18028, Note_on_c, 0, 81, 0
3, 18032, Note_on_c, 0, 76, 42
3, 18034, Note_on_c, 0, 69, 44
3, 18057, Note_on_c, 0, 76, 0
3, 18058, Note_on_c, 0, 62, 0
3, 18061, Note_on_c, 0, 73, 0
3, 18064, Note_on_c, 0, 53, 0
3, 18071, Note_on_c, 0, 69, 0
3, 18078, Note_on_c, 0, 59, 0
3, 18107, Note_on_c, 0, 53, 46
3, 18107, Note_on_c, 0, 59, 38
3, 18109, Note_on_c, 0, 62, 34
3, 18110, Note_on_c, 0, 64, 24
3, 18120, Note_on_c, 0, 62, 0
3, 18125, Note_on_c, 0, 59, 0
3, 18135, Note_on_c, 0, 53, 0
3, 18149, Note_on_c, 0, 64, 0
3, 18181, Note_on_c, 0, 54, 54
3, 18185, Note_on_c, 0, 44, 47
3, 18186, Note_on_c, 0, 59, 71
3, 18217, Note_on_c, 0, 54, 0
3, 18219, Control_c, 0, 64, 0
3, 18224, Note_on_c, 0, 59, 0
3, 18224, Note_on_c, 0, 44, 0
3, 18233, Note_on_c, 0, 58, 54
3, 18236, Note_on_c, 0, 43, 40
3, 18239, Note_on_c, 0, 53, 19
3, 18250, Control_c, 0, 64, 127
3, 18267, Note_on_c, 0, 53, 0
3, 18275, Note_on_c, 0, 58, 0
3, 18311, Note_on_c, 0, 49, 45
3, 18312, Note_on_c, 0, 62, 56
3, 18314, Note_on_c, 0, 55, 47
3, 18316, Note_on_c, 0, 58, 33
3, 18325, Note_on_c, 0, 49, 0
3, 18330, Note_on_c, 0, 55, 0
3, 18334, Note_on_c, 0, 58, 0
3, 18341, Note_on_c, 0, 62, 0
3, 18357, Note_on_c, 0, 53, 68
3, 18358, Control_c, 0, 64, 0
3, 18359, Note_on_c, 0, 58, 48
3, 18360, Note_on_c, 0, 55, 47
3, 18363, Note_on_c, 0, 62, 29
3, 18369, Note_on_c, 0, 55, 0
3, 18380, Note_on_c, 0, 58, 0
3, 18384, Note_on_c, 0, 62, 0
3, 18401, Note_on_c, 0, 53, 0
3, 18431, Note_on_c, 0, 58, 54
3, 18433, Note_on_c, 0, 55, 61
3, 18433, Note_on_c, 0, 53, 61
3, 18435, Note_on_c, 0, 62, 50
3, 18454, Note_on_c, 0, 55, 0
3, 18455, Note_on_c, 0, 58, 0
3, 18456, Note_on_c, 0, 62, 0
3, 18458, Note_on_c, 0, 43, 0
3, 18459, Note_on_c, 0, 53, 0
3, 18546, Note_on_c, 0, 58, 59
3, 18548, Note_on_c, 0, 55, 63
3, 18549, Note_on_c, 0, 48, 61
3, 18550, Note_on_c, 0, 67, 46
3, 18550, Note_on_c, 0, 62, 49
3, 18551, Note_on_c, 0, 47, 58
3, 18557, Note_on_c, 0, 47, 0
3, 18589, Note_on_c, 0, 62, 0
3, 18595, Note_on_c, 0, 58, 0
3, 18595, Note_on_c, 0, 55, 0
3, 18596, Control_c, 0, 64, 127
3, 18611, Note_on_c, 0, 67, 0
3, 18614, Note_on_c, 0, 48, 0
3, 18625, Control_c, 0, 64, 0
3, 18636, Note_on_c, 0, 48, 60
3, 18636, Note_on_c, 0, 61, 55
3, 18637, Note_on_c, 0, 67, 60
3, 18638, Note_on_c, 0, 58, 42
3, 18642, Note_on_c, 0, 64, 39
3, 18658, Control_c, 0, 64, 127
3, 18660, Note_on_c, 0, 48, 0
3, 18676, Note_on_c, 0, 64, 0
3, 18676, Note_on_c, 0, 65, 11
3, 18685, Note_on_c, 0, 61, 0
3, 18685, Note_on_c, 0, 58, 0
3, 18690, Note_on_c, 0, 67, 0
3, 18694, Note_on_c, 0, 65, 0
3, 18705, Control_c, 0, 64, 0
3, 18713, Note_on_c, 0, 60, 60
3, 18713, Note_on_c, 0, 45, 48
3, 18714, Note_on_c, 0, 57, 49
3, 18717, Note_on_c, 0, 52, 36
3, 18726, Control_c, 0, 64, 127
3, 18753, Note_on_c, 0, 57, 0
3, 18762, Note_on_c, 0, 52, 0
3, 18794, Note_on_c, 0, 60, 0
3, 18797, Note_on_c, 0, 45, 0
3, 18831, Note_on_c, 0, 51, 60
3, 18832, Note_on_c, 0, 39, 57
3, 18833, Note_on_c, 0, 65, 60
3, 18833, Note_on_c, 0, 60, 63
3, 18834, Note_on_c, 0, 57, 50
3, 18838, Control_c, 0, 64, 0
3, 18872, Control_c, 0, 64, 127
3, 18874, Note_on_c, 0, 51, 0
3, 18878, Note_on_c, 0, 60, 0
3, 18885, Note_on_c, 0, 39, 0
3, 18890, Note_on_c, 0, 65, 0
3, 18893, Note_on_c, 0, 57, 0
3, 18954, Control_c, 0, 64, 0
3, 18958, Note_on_c, 0, 54, 47
3, 18958, Note_on_c, 0, 65, 44
3, 18959, Note_on_c, 0, 38, 44
3, 18959, Note_on_c, 0, 58, 52
3, 18960, Note_on_c, 0, 50, 39
3, 18963, Note_on_c, 0, 60, 40
3, 18977, Control_c, 0, 64, 127
3, 18994, Note_on_c, 0, 54, 0
3, 18995, Note_on_c, 0, 38, 0
3, 19003, Note_on_c, 0, 60, 0
3, 19010, Note_on_c, 0, 50, 0
3, 19014, Note_on_c, 0, 58, 0
3, 19076, Note_on_c, 0, 54, 47
3, 19079, Note_on_c, 0, 44, 35
3, 19080, Control_c, 0, 64, 0
3, 19081, Note_on_c, 0, 60, 38
3, 19098, Control_c, 0, 64, 127
3, 19119, Note_on_c, 0, 44, 0
3, 19121, Note_on_c, 0, 60, 0
3, 19122, Note_on_c, 0, 65, 0
3, 19127, Note_on_c, 0, 54, 0
3, 19171, Note_on_c, 0, 54, 25
3, 19196, Note_on_c, 0, 56, 31
3, 19205, Note_on_c, 0, 57, 63
3, 19205, Note_on_c, 0, 72, 42
3, 19205, Note_on_c, 0, 65, 51
3, 19206, Note_on_c, 0, 62, 54
3, 19207, Note_on_c, 0, 56, 0
3, 19208, Note_on_c, 0, 54, 0
3, 19212, Control_c, 0, 64, 0
3, 19222, Note_on_c, 0, 65, 0
3, 19227, Note_on_c, 0, 72, 0
3, 19240, Note_on_c, 0, 62, 0
3, 19242, Note_on_c, 0, 57, 0
3, 19245, Note_on_c, 0, 56, 26
3, 19259, Control_c, 0, 64, 127
3, 19266, Note_on_c, 0, 56, 0
3, 19270, Note_on_c, 0, 55, 41
3, 19285, Note_on_c, 0, 55, 0
3, 19286, Note_on_c, 0, 54, 50
3, 19302, Note_on_c, 0, 58, 50
3, 19304, Control_c, 0, 64, 0
3, 19304, Note_on_c, 0, 66, 47
3, 19305, Note_on_c, 0, 62, 55
3, 19306, Note_on_c, 0, 54, 0
3, 19309, Note_on_c, 0, 53, 55
3, 19351, Control_c, 0, 64, 127
3, 19396, Note_on_c, 0, 58, 0
3, 19396, Note_on_c, 0, 66, 0
3, 19409, Note_on_c, 0, 58, 52
3, 19410, Control_c, 0, 64, 0
3, 19412, Note_on_c, 0, 65, 56
3, 19413, Note_on_c, 0, 50, 54
3, 19417, Note_on_c, 0, 53, 0
3, 19432, Control_c, 0, 64, 127
3, 19440, Note_on_c, 0, 65, 0
3, 19441, Note_on_c, 0, 62, 0
3, 19455, Note_on_c, 0, 58, 0
3, 19462, Note_on_c, 0, 50, 0
3, 19491, Control_c, 0, 64, 0
3, 19495, Note_on_c, 0, 58, 58
3, 19496, Note_on_c, 0, 55, 52
3, 19497, Note_on_c, 0, 48, 62
3, 19498, Note_on_c, 0, 64, 52
3, 19533, Control_c, 0, 64, 127
3, 19547, Note_on_c, 0, 55, 0
3, 19552, Note_on_c, 0, 58, 0
3, 19557, Control_c, 0, 64, 0
3, 19561, Note_on_c, 0, 64, 0
3, 19562, Note_on_c, 0, 36, 58
3, 19578, Control_c, 0, 64, 127
3, 19640, Note_on_c, 0, 48, 0
3, 19644, Note_on_c, 0, 36, 0
3, 19742, Control_c, 0, 64, 0
3, 19744, Note_on_c, 0, 64, 71
3, 19745, Note_on_c, 0, 60, 77
3, 19746, Note_on_c, 0, 45, 75
3, 19746, Note_on_c, 0, 55, 69
3, 19747, Note_on_c, 0, 33, 66
3, 19758, Note_on_c, 0, 55, 0
3, 19762, Note_on_c, 0, 33, 0
3, 19763, Note_on_c, 0, 45, 0
3, 19764, Note_on_c, 0, 60, 0
3, 19767, Note_on_c, 0, 64, 0
3, 19806, Note_on_c, 0, 44, 68
3, 19807, Note_on_c, 0, 32, 64
3, 19807, Note_on_c, 0, 54, 54
3, 19808, Note_on_c, 0, 63, 44
3, 19808, Note_on_c, 0, 59, 58
3, 19837, Note_on_c, 0, 59, 0
3, 19841, Note_on_c, 0, 44, 0
3, 19842, Note_on_c, 0, 32, 0
3, 19844, Note_on_c, 0, 54, 0
3, 19846, Note_on_c, 0, 63, 0
3, 19870, Note_on_c, 0, 62, 59
3, 19870, Note_on_c, 0, 43, 64
3, 19872, Note_on_c, 0, 53, 45
3, 19872, Note_on_c, 0, 58, 59
3, 19872, Note_on_c, 0, 31, 56
3, 19882, Note_on_c, 0, 53, 0
3, 19887, Note_on_c, 0, 62, 0
3, 19888, Note_on_c, 0, 43, 0
3, 19889, Note_on_c, 0, 31, 0
3, 19891, Note_on_c, 0, 58, 0
3, 19928, Note_on_c, 0, 65, 59
3, 19930, Note_on_c, 0, 30, 57
3, 19930, Note_on_c, 0, 42, 62
3, 19930, Note_on_c, 0, 58, 59
3, 19932, Note_on_c, 0, 61, 49
3, 19934, Note_on_c, 0, 53, 34
3, 19949, Note_on_c, 0, 61, 0
3, 19950, Note_on_c, 0, 58, 0
3, 19950, Note_on_c, 0, 53, 0
3, 19951, Note_on_c, 0, 42, 0
3, 19955, Note_on_c, 0, 30, 0
3, 19957, Note_on_c, 0, 65, 0
3, 19988, Note_on_c, 0, 30, 60
3, 19989, Note_on_c, 0, 42, 57
3, 19990, Note_on_c, 0, 65, 60
3, 19991, Note_on_c, 0, 58, 56
3, 19992, Note_on_c, 0, 61, 45
3, 19993, Note_on_c, 0, 53, 40
3, 20022, Note_on_c, 0, 53, 0
3, 20022, Note_on_c, 0, 42, 0
3, 20023, Note_on_c, 0, 61, 0
3, 20025, Note_on_c, 0, 58, 0
3, 20026, Note_on_c, 0, 30, 0
3, 20029, Note_on_c, 0, 65, 0
3, 20046, Note_on_c, 0, 65, 54
3, 20047, Note_on_c, 0, 42, 55
3, 20047, Note_on_c, 0, 30, 55
3, 20048, Note_on_c, 0, 58, 61
3, 20049, Note_on_c, 0, 61, 48
3, 20051, Note_on_c, 0, 53, 42
3, 20062, Control_c, 0, 64, 127
3, 20096, Note_on_c, 0, 53, 0
3, 20119, Note_on_c, 0, 58, 0
3, 20120, Note_on_c, 0, 42, 0
3, 20121, Note_on_c, 0, 61, 0
3, 20124, Note_on_c, 0, 30, 0
3, 20136, Note_on_c, 0, 65, 0
3, 20161, Control_c, 0, 64, 0
3, 20166, Note_on_c, 0, 60, 64
3, 20166, Note_on_c, 0, 29, 50
3, 20167, Note_on_c, 0, 41, 44
3, 20168, Note_on_c, 0, 55, 47
3, 20181, Note_on_c, 0, 55, 0
3, 20183, Control_c, 0, 64, 127
3, 20184, Note_on_c, 0, 29, 0
3, 20194, Note_on_c, 0, 60, 0
3, 20198, Note_on_c, 0, 41, 0
3, 20240, Note_on_c, 0, 53, 84
3, 20242, Note_on_c, 0, 69, 78
3, 20244, Note_on_c, 0, 60, 74
3, 20244, Note_on_c, 0, 64, 78
3, 20273, Note_on_c, 0, 64, 0
3, 20273, Note_on_c, 0, 69, 0
3, 20275, Note_on_c, 0, 60, 0
3, 20284, Control_c, 0, 64, 0
3, 20288, Note_on_c, 0, 52, 68
3, 20288, Note_on_c, 0, 68, 60
3, 20290, Note_on_c, 0, 64, 54
3, 20291, Note_on_c, 0, 60, 54
3, 20315, Control_c, 0, 64, 127
3, 20317, Note_on_c, 0, 53, 0
3, 20366, Note_on_c, 0, 64, 0
3, 20366, Note_on_c, 0, 60, 0
3, 20368, Note_on_c, 0, 68, 0
3, 20396, Control_c, 0, 64, 0
3, 20398, Note_on_c, 0, 52, 0
3, 20398, Note_on_c, 0, 69, 68
3, 20398, Note_on_c, 0, 53, 65
3, 20399, Note_on_c, 0, 64, 68
3, 20402, Note_on_c, 0, 60, 65
3, 20421, Control_c, 0, 64, 127
3, 20447, Note_on_c, 0, 53, 0
3, 20447, Note_on_c, 0, 69, 0
3, 20448, Note_on_c, 0, 60, 0
3, 20454, Note_on_c, 0, 64, 0
3, 20512, Note_on_c, 0, 70, 67
3, 20512, Note_on_c, 0, 55, 60
3, 20513, Control_c, 0, 64, 0
3, 20514, Note_on_c, 0, 65, 66
3, 20514, Note_on_c, 0, 62, 62
3, 20522, Control_c, 0, 64, 127
3, 20538, Note_on_c, 0, 55, 0
3, 20555, Note_on_c, 0, 62, 0
3, 20564, Note_on_c, 0, 65, 0
3, 20571, Note_on_c, 0, 70, 0
3, 20631, Note_on_c, 0, 72, 75
3, 20633, Note_on_c, 0, 66, 68
3, 20633, Note_on_c, 0, 64, 77
3, 20633, Note_on_c, 0, 68, 54
3, 20635, Note_on_c, 0, 58, 67
3, 20638, Control_c, 0, 64, 0
3, 20661, Control_c, 0, 64, 127
3, 20698, Note_on_c, 0, 58, 0
3, 20704, Note_on_c, 0, 72, 0
3, 20714, Note_on_c, 0, 68, 0
3, 20716, Note_on_c, 0, 66, 0
3, 20727, Note_on_c, 0, 64, 0
3, 20751, Note_on_c, 0, 74, 71
3, 20753, Control_c, 0, 64, 0
3, 20754, Note_on_c, 0, 66, 64
3, 20754, Note_on_c, 0, 64, 71
3, 20755, Note_on_c, 0, 68, 60
3, 20769, Control_c, 0, 64, 127
3, 20770, Note_on_c, 0, 55, 20
3, 20811, Note_on_c, 0, 68, 0
3, 20812, Note_on_c, 0, 66, 0
3, 20814, Note_on_c, 0, 74, 0
3, 20816, Note_on_c, 0, 64, 0
3, 20846, Note_on_c, 0, 55, 0
3, 20865, Control_c, 0, 64, 0
3, 20868, Note_on_c, 0, 75, 56
3, 20869, Note_on_c, 0, 68, 42
3, 20869, Note_on_c, 0, 48, 42
3, 20870, Note_on_c, 0, 72, 44
3, 20871, Note_on_c, 0, 58, 29
3, 20871, Note_on_c, 0, 64, 44
3, 20887, Control_c, 0, 64, 127
3, 20911, Note_on_c, 0, 48, 0
3, 20913, Note_on_c, 0, 58, 0
3, 20914, Note_on_c, 0, 72, 0
3, 20915, Note_on_c, 0, 64, 0
3, 20919, Note_on_c, 0, 68, 0
3, 20926, Note_on_c, 0, 75, 0
3, 20985, Note_on_c, 0, 46, 51
3, 20985, Note_on_c, 0, 56, 42
3, 20986, Control_c, 0, 64, 0
3, 20988, Note_on_c, 0, 76, 41
3, 20988, Note_on_c, 0, 73, 25
3, 20988, Note_on_c, 0, 68, 40
3, 20989, Note_on_c, 0, 64, 43
3, 21008, Control_c, 0, 64, 127
3, 21025, Note_on_c, 0, 64, 0
3, 21029, Note_on_c, 0, 68, 0
3, 21036, Note_on_c, 0, 73, 0
3, 21037, Note_on_c, 0, 76, 0
3, 21037, Note_on_c, 0, 56, 0
3, 21055, Note_on_c, 0, 46, 0
3, 21069, Note_on_c, 0, 52, 31
3, 21093, Note_on_c, 0, 52, 0
3, 21100, Control_c, 0, 64, 0
3, 21103, Note_on_c, 0, 77, 49
3, 21106, Note_on_c, 0, 72, 49
3, 21107, Note_on_c, 0, 65, 40
3, 21107, Note_on_c, 0, 55, 34
3, 21108, Note_on_c, 0, 45, 40
3, 21121, Note_on_c, 0, 45, 0
3, 21125, Control_c, 0, 64, 127
3, 21134, Note_on_c, 0, 55, 0
3, 21151, Note_on_c, 0, 65, 0
3, 21162, Note_on_c, 0, 72, 0
3, 21169, Note_on_c, 0, 77, 0
3, 21225, Note_on_c, 0, 55, 57
3, 21226, Note_on_c, 0, 79, 64
3, 21227, Note_on_c, 0, 72, 62
3, 21228, Control_c, 0, 64, 0
3, 21228, Note_on_c, 0, 64, 49
3, 21229, Note_on_c, 0, 67, 62
3, 21230, Note_on_c, 0, 60, 50
3, 21233, Note_on_c, 0, 57, 28
3, 21257, Control_c, 0, 64, 127
3, 21285, Note_on_c, 0, 60, 0
3, 21290, Note_on_c, 0, 57, 0
3, 21292, Note_on_c, 0, 64, 0
3, 21293, Note_on_c, 0, 72, 0
3, 21293, Note_on_c, 0, 55, 0
3, 21296, Note_on_c, 0, 79, 0
3, 21300, Note_on_c, 0, 67, 0
3, 21349, Note_on_c, 0, 80, 61
3, 21350, Note_on_c, 0, 68, 63
3, 21352, Note_on_c, 0, 57, 53
3, 21352, Note_on_c, 0, 75, 44
3, 21353, Note_on_c, 0, 65, 36
3, 21356, Note_on_c, 0, 60, 44
3, 21356, Control_c, 0, 64, 0
3, 21358, Note_on_c, 0, 75, 0
3, 21361, Note_on_c, 0, 74, 35
3, 21374, Control_c, 0, 64, 127
3, 21381, Note_on_c, 0, 74, 0
3, 21397, Note_on_c, 0, 65, 0
3, 21404, Note_on_c, 0, 57, 0
3, 21411, Note_on_c, 0, 60, 0
3, 21442, Note_on_c, 0, 68, 0
3, 21447, Note_on_c, 0, 80, 0
3, 21470, Control_c, 0, 64, 0
3, 21470, Note_on_c, 0, 81, 60
3, 21471, Note_on_c, 0, 54, 49
3, 21471, Note_on_c, 0, 65, 49
3, 21473, Note_on_c, 0, 69, 54
3, 21474, Note_on_c, 0, 60, 44
3, 21492, Control_c, 0, 64, 127
3, 21517, Note_on_c, 0, 69, 0
3, 21518, Note_on_c, 0, 60, 0
3, 21527, Note_on_c, 0, 65, 0
3, 21560, Note_on_c, 0, 54, 0
3, 21561, Note_on_c, 0, 81, 0
3, 21589, Note_on_c, 0, 71, 43
3, 21591, Note_on_c, 0, 73, 29
3, 21591, Note_on_c, 0, 76, 44
3, 21591, Note_on_c, 0, 64, 27
3, 21592, Note_on_c, 0, 53, 24
3, 21593, Note_on_c, 0, 59, 36
3, 21595, Control_c, 0, 64, 0
3, 21608, Note_on_c, 0, 71, 0
3, 21610, Note_on_c, 0, 64, 0
3, 21610, Note_on_c, 0, 59, 0
3, 21611, Note_on_c, 0, 73, 0
3, 21615, Note_on_c, 0, 53, 0
3, 21616, Note_on_c, 0, 76, 0
3, 21656, Note_on_c, 0, 71, 44
3, 21657, Note_on_c, 0, 73, 27
3, 21658, Note_on_c, 0, 76, 45
3, 21659, Note_on_c, 0, 59, 36
3, 21659, Note_on_c, 0, 53, 28
3, 21659, Note_on_c, 0, 64, 24
3, 21676, Note_on_c, 0, 73, 0
3, 21676, Note_on_c, 0, 71, 0
3, 21677, Note_on_c, 0, 59, 0
3, 21677, Note_on_c, 0, 64, 0
3, 21681, Note_on_c, 0, 53, 0
3, 21682, Note_on_c, 0, 76, 0
3, 21720, Note_on_c, 0, 71, 45
3, 21721, Note_on_c, 0, 73, 29
3, 21721, Note_on_c, 0, 64, 30
3, 21722, Note_on_c, 0, 76, 48
3, 21723, Control_c, 0, 64, 127
3, 21724, Note_on_c, 0, 59, 46
3, 21724, Note_on_c, 0, 53, 30
3, 21739, Note_on_c, 0, 59, 0
3, 21739, Note_on_c, 0, 64, 0
3, 21748, Note_on_c, 0, 53, 0
3, 21768, Note_on_c, 0, 73, 0
3, 21769, Note_on_c, 0, 76, 0
3, 21773, Note_on_c, 0, 71, 0
3, 21788, Note_on_c, 0, 43, 70
3, 21815, Control_c, 0, 64, 0
3, 21827, Note_on_c, 0, 43, 0
3, 21840, Control_c, 0, 64, 127
3, 21845, Note_on_c, 0, 43, 49
3, 21909, Note_on_c, 0, 53, 50
3, 21909, Note_on_c, 0, 61, 43
3, 21910, Note_on_c, 0, 64, 48
3, 21910, Note_on_c, 0, 59, 51
3, 21914, Control_c, 0, 64, 0
3, 21919, Note_on_c, 0, 59, 0
3, 21922, Note_on_c, 0, 61, 0
3, 21925, Note_on_c, 0, 53, 0
3, 21929, Note_on_c, 0, 64, 0
3, 21965, Control_c, 0, 64, 127
3, 21965, Note_on_c, 0, 61, 51
3, 21967, Note_on_c, 0, 53, 49
3, 21968, Note_on_c, 0, 59, 56
3, 21969, Note_on_c, 0, 64, 44
3, 21994, Note_on_c, 0, 43, 0
3, 22005, Note_on_c, 0, 59, 0
3, 22010, Note_on_c, 0, 64, 0
3, 22015, Note_on_c, 0, 61, 0
3, 22024, Note_on_c, 0, 53, 0
3, 22029, Note_on_c, 0, 43, 63
3, 22086, Control_c, 0, 64, 0
3, 22090, Note_on_c, 0, 62, 73
3, 22091, Note_on_c, 0, 53, 81
3, 22091, Note_on_c, 0, 50, 82
3, 22092, Note_on_c, 0, 58, 62
3, 22092, Note_on_c, 0, 55, 75
3, 22107, Note_on_c, 0, 43, 0
3, 22113, Control_c, 0, 64, 127
3, 22114, Note_on_c, 0, 55, 0
3, 22115, Note_on_c, 0, 53, 0
3, 22121, Note_on_c, 0, 62, 0
3, 22123, Note_on_c, 0, 58, 0
3, 22137, Note_on_c, 0, 50, 0
3, 22156, Note_on_c, 0, 51, 25
3, 22163, Note_on_c, 0, 51, 0
3, 22166, Note_on_c, 0, 55, 85
3, 22166, Note_on_c, 0, 67, 76
3, 22168, Note_on_c, 0, 58, 78
3, 22169, Note_on_c, 0, 61, 49
3, 22180, Control_c, 0, 64, 0
3, 22181, Note_on_c, 0, 58, 0
3, 22185, Note_on_c, 0, 55, 0
3, 22187, Note_on_c, 0, 67, 0
3, 22193, Note_on_c, 0, 61, 0
3, 22221, Control_c, 0, 64, 127
3, 22229, Control_c, 0, 64, 0
3, 22270, Control_c, 0, 64, 127
3, 22272, Note_on_c, 0, 58, 59
3, 22274, Note_on_c, 0, 50, 51
3, 22274, Note_on_c, 0, 55, 55
3, 22281, Note_on_c, 0, 55, 0
3, 22286, Note_on_c, 0, 50, 0
3, 22288, Note_on_c, 0, 58, 0
3, 22326, Note_on_c, 0, 58, 65
3, 22327, Note_on_c, 0, 67, 68
3, 22328, Control_c, 0, 64, 0
3, 22329, Note_on_c, 0, 61, 50
3, 22329, Note_on_c, 0, 64, 60
3, 22331, Note_on_c, 0, 57, 57
3, 22332, Note_on_c, 0, 52, 24
3, 22340, Note_on_c, 0, 52, 0
3, 22351, Note_on_c, 0, 57, 0
3, 22362, Control_c, 0, 64, 127
3, 22385, Note_on_c, 0, 64, 0
3, 22388, Note_on_c, 0, 61, 0
3, 22394, Note_on_c, 0, 67, 0
3, 22395, Note_on_c, 0, 58, 0
3, 22441, Note_on_c, 0, 46, 45
3, 22441, Note_on_c, 0, 54, 35
3, 22442, Note_on_c, 0, 62, 58
3, 22442, Note_on_c, 0, 58, 57
3, 22449, Control_c, 0, 64, 0
3, 22463, Note_on_c, 0, 46, 0
3, 22472, Control_c, 0, 64, 127
3, 22484, Note_on_c, 0, 54, 0
3, 22502, Note_on_c, 0, 58, 0
3, 22542, Note_on_c, 0, 62, 0
3, 22559, Note_on_c, 0, 57, 43
3, 22559, Note_on_c, 0, 45, 60
3, 22559, Note_on_c, 0, 60, 56
3, 22562, Control_c, 0, 64, 0
3, 22581, Note_on_c, 0, 52, 2
3, 22584, Control_c, 0, 64, 127
3, 22590, Note_on_c, 0, 57, 0
3, 22594, Note_on_c, 0, 45, 0
3, 22603, Note_on_c, 0, 60, 0
3, 22603, Note_on_c, 0, 52, 0
3, 22681, Note_on_c, 0, 65, 61
3, 22682, Note_on_c, 0, 77, 80
3, 22682, Note_on_c, 0, 72, 91
3, 22685, Note_on_c, 0, 60, 49
3, 22687, Control_c, 0, 64, 0
3, 22691, Note_on_c, 0, 54, 25
3, 22703, Control_c, 0, 64, 127
3, 22718, Note_on_c, 0, 65, 0
3, 22722, Note_on_c, 0, 60, 0
3, 22730, Note_on_c, 0, 54, 0
3, 22738, Note_on_c, 0, 72, 0
3, 22763, Note_on_c, 0, 77, 0
3, 22796, Note_on_c, 0, 54, 42
3, 22796, Note_on_c, 0, 60, 44
3, 22798, Note_on_c, 0, 77, 55
3, 22799, Note_on_c, 0, 74, 47
3, 22799, Note_on_c, 0, 70, 47
3, 22800, Note_on_c, 0, 65, 53
3, 22801, Control_c, 0, 64, 0
3, 22824, Control_c, 0, 64, 127
3, 22855, Note_on_c, 0, 54, 0
3, 22862, Note_on_c, 0, 60, 0
3, 22864, Note_on_c, 0, 65, 0
3, 22884, Note_on_c, 0, 74, 0
3, 22913, Note_on_c, 0, 65, 50
3, 22917, Note_on_c, 0, 70, 0
3, 22918, Note_on_c, 0, 54, 35
3, 22919, Note_on_c, 0, 60, 39
3, 22935, Note_on_c, 0, 77, 0
3, 22982, Note_on_c, 0, 60, 0
3, 22983, Note_on_c, 0, 65, 0
3, 22996, Note_on_c, 0, 84, 80
3, 22998, Note_on_c, 0, 77, 69
3, 22999, Note_on_c, 0, 72, 64
3, 23011, Note_on_c, 0, 54, 0
3, 23015, Control_c, 0, 64, 0
3, 23026, Note_on_c, 0, 62, 32
3, 23031, Note_on_c, 0, 53, 26
3, 23037, Control_c, 0, 64, 127
3, 23040, Note_on_c, 0, 58, 14
3, 23044, Note_on_c, 0, 84, 0
3, 23053, Note_on_c, 0, 72, 0
3, 23061, Note_on_c, 0, 55, 5
3, 23067, Note_on_c, 0, 53, 0
3, 23086, Note_on_c, 0, 77, 0
3, 23089, Note_on_c, 0, 55, 0
3, 23103, Note_on_c, 0, 58, 0
3, 23104, Note_on_c, 0, 62, 0
3, 23112, Note_on_c, 0, 82, 49
3, 23114, Note_on_c, 0, 70, 59
3, 23118, Note_on_c, 0, 76, 46
3, 23139, Note_on_c, 0, 70, 0
3, 23140, Note_on_c, 0, 76, 0
3, 23143, Note_on_c, 0, 62, 38
3, 23144, Control_c, 0, 64, 0
3, 23146, Note_on_c, 0, 82, 0
3, 23148, Note_on_c, 0, 55, 27
3, 23149, Note_on_c, 0, 58, 33
3, 23165, Note_on_c, 0, 62, 0
3, 23169, Control_c, 0, 64, 127
3, 23172, Note_on_c, 0, 55, 0
3, 23185, Note_on_c, 0, 58, 0
3, 23192, Note_on_c, 0, 81, 51
3, 23196, Note_on_c, 0, 69, 44
3, 23197, Note_on_c, 0, 76, 40
3, 23206, Note_on_c, 0, 76, 0
3, 23208, Note_on_c, 0, 81, 0
3, 23210, Note_on_c, 0, 69, 0
3, 23231, Note_on_c, 0, 52, 44
3, 23238, Note_on_c, 0, 52, 0
3, 23265, Note_on_c, 0, 76, 51
3, 23266, Note_on_c, 0, 61, 69
3, 23268, Control_c, 0, 64, 0
3, 23269, Note_on_c, 0, 68, 33
3, 23272, Note_on_c, 0, 64, 37
3, 23274, Note_on_c, 0, 73, 18
3, 23293, Control_c, 0, 64, 127
3, 23343, Note_on_c, 0, 64, 0
3, 23343, Note_on_c, 0, 68, 0
3, 23352, Note_on_c, 0, 73, 0
3, 23354, Note_on_c, 0, 61, 0
3, 23358, Note_on_c, 0, 76, 0
3, 23387, Control_c, 0, 64, 0
3, 23388, Note_on_c, 0, 73, 31
3, 23388, Note_on_c, 0, 76, 42
3, 23388, Note_on_c, 0, 61, 33
3, 23389, Note_on_c, 0, 68, 42
3, 23390, Note_on_c, 0, 64, 39
3, 23405, Control_c, 0, 64, 127
3, 23432, Note_on_c, 0, 64, 0
3, 23442, Note_on_c, 0, 68, 0
3, 23445, Note_on_c, 0, 61, 0
3, 23450, Note_on_c, 0, 76, 0
3, 23451, Note_on_c, 0, 73, 0
3, 23510, Note_on_c, 0, 77, 46
3, 23512, Note_on_c, 0, 67, 33
3, 23513, Note_on_c, 0, 72, 30
3, 23513, Note_on_c, 0, 62, 34
3, 23514, Control_c, 0, 64, 0
3, 23564, Control_c, 0, 64, 127
3, 23583, Note_on_c, 0, 67, 0
3, 23588, Note_on_c, 0, 72, 0
3, 23600, Note_on_c, 0, 62, 0
3, 23601, Note_on_c, 0, 77, 0
3, 23626, Note_on_c, 0, 77, 46
3, 23630, Note_on_c, 0, 62, 39
3, 23631, Note_on_c, 0, 72, 40
3, 23633, Note_on_c, 0, 67, 35
3, 23649, Note_on_c, 0, 62, 0
3, 23656, Note_on_c, 0, 77, 0
3, 23658, Note_on_c, 0, 72, 0
3, 23664, Note_on_c, 0, 67, 0
3, 23748, Note_on_c, 0, 68, 33
3, 23750, Note_on_c, 0, 51, 34
3, 23750, Note_on_c, 0, 65, 49
3, 23752, Note_on_c, 0, 57, 27
3, 23753, Note_on_c, 0, 47, 31
3, 23758, Control_c, 0, 64, 0
3, 23799, Control_c, 0, 64, 127
3, 23823, Note_on_c, 0, 65, 0
3, 23828, Note_on_c, 0, 57, 0
3, 23830, Note_on_c, 0, 51, 0
3, 23837, Note_on_c, 0, 68, 0
3, 23869, Note_on_c, 0, 68, 32
3, 23869, Note_on_c, 0, 61, 26
3, 23871, Note_on_c, 0, 57, 33
3, 23871, Note_on_c, 0, 51, 29
3, 23873, Note_on_c, 0, 65, 37
3, 23880, Note_on_c, 0, 47, 0
3, 23888, Note_on_c, 0, 51, 0
3, 23891, Note_on_c, 0, 57, 0
3, 23895, Note_on_c, 0, 61, 0
3, 23903, Note_on_c, 0, 65, 0
3, 23910, Note_on_c, 0, 68, 0
3, 23993, Note_on_c, 0, 65, 45
3, 23996, Note_on_c, 0, 62, 36
3, 24002, Control_c, 0, 64, 0
3, 24003, Note_on_c, 0, 60, 34
3, 24022, Control_c, 0, 64, 127
3, 24065, Note_on_c, 0, 58, 32
3, 24073, Note_on_c, 0, 60, 0
3, 24076, Note_on_c, 0, 65, 0
3, 24085, Note_on_c, 0, 62, 0
3, 24120, Note_on_c, 0, 79, 72
3, 24121, Note_on_c, 0, 58, 0
3, 24122, Note_on_c, 0, 65, 30
3, 24123, Note_on_c, 0, 60, 36
3, 24123, Note_on_c, 0, 62, 31
3, 24161, Note_on_c, 0, 79, 0
3, 24174, Note_on_c, 0, 77, 57
3, 24193, Note_on_c, 0, 77, 0
3, 24198, Note_on_c, 0, 60, 0
3, 24199, Note_on_c, 0, 79, 55
3, 24202, Note_on_c, 0, 62, 0
3, 24203, Note_on_c, 0, 58, 42
3, 24205, Note_on_c, 0, 65, 0
3, 24211, Note_on_c, 0, 79, 0
3, 24220, Control_c, 0, 64, 0
3, 24229, Note_on_c, 0, 82, 78
3, 24232, Note_on_c, 0, 58, 0
3, 24232, Note_on_c, 0, 65, 59
3, 24234, Note_on_c, 0, 62, 38
3, 24240, Control_c, 0, 64, 127
3, 24249, Note_on_c, 0, 60, 18
3, 24290, Note_on_c, 0, 82, 0
3, 24294, Note_on_c, 0, 58, 44
3, 24295, Note_on_c, 0, 60, 0
3, 24305, Note_on_c, 0, 65, 0
3, 24310, Note_on_c, 0, 62, 0
3, 24350, Note_on_c, 0, 74, 60
3, 24352, Note_on_c, 0, 62, 39
3, 24353, Note_on_c, 0, 65, 28
3, 24354, Note_on_c, 0, 58, 0
3, 24356, Note_on_c, 0, 60, 40
3, 24411, Note_on_c, 0, 74, 0
3, 24419, Note_on_c, 0, 58, 43
3, 24428, Note_on_c, 0, 60, 0
3, 24429, Note_on_c, 0, 65, 0
3, 24434, Note_on_c, 0, 62, 0
3, 24474, Note_on_c, 0, 67, 62
3, 24474, Note_on_c, 0, 72, 55
3, 24474, Note_on_c, 0, 76, 57
3, 24475, Note_on_c, 0, 64, 37
3, 24483, Note_on_c, 0, 60, 42
3, 24484, Control_c, 0, 64, 0
3, 24516, Control_c, 0, 64, 127
3, 24519, Note_on_c, 0, 58, 0
3, 24536, Note_on_c, 0, 58, 42
3, 24538, Note_on_c, 0, 60, 0
3, 24539, Note_on_c, 0, 67, 0
3, 24542, Note_on_c, 0, 72, 0
3, 24547, Note_on_c, 0, 64, 0
3, 24592, Note_on_c, 0, 67, 44
3, 24593, Note_on_c, 0, 72, 44
3, 24596, Note_on_c, 0, 64, 27
3, 24598, Note_on_c, 0, 60, 38
3, 24636, Note_on_c, 0, 58, 0
3, 24652, Note_on_c, 0, 67, 0
3, 24657, Note_on_c, 0, 60, 0
3, 24657, Note_on_c, 0, 58, 56
3, 24659, Note_on_c, 0, 72, 0
3, 24667, Note_on_c, 0, 64, 0
3, 24715, Note_on_c, 0, 60, 56
3, 24716, Note_on_c, 0, 64, 43
3, 24716, Control_c, 0, 64, 0
3, 24727, Control_c, 0, 64, 127
3, 24742, Note_on_c, 0, 58, 0
3, 24772, Note_on_c, 0, 58, 55
3, 24777, Note_on_c, 0, 60, 0
3, 24778, Note_on_c, 0, 64, 0
3, 24830, Note_on_c, 0, 72, 42
3, 24832, Note_on_c, 0, 64, 33
3, 24832, Note_on_c, 0, 60, 41
3, 24833, Note_on_c, 0, 67, 26
3, 24838, Note_on_c, 0, 58, 0
3, 24840, Note_on_c, 0, 67, 0
3, 24850, Note_on_c, 0, 72, 0
3, 24862, Note_on_c, 0, 76, 0
3, 24893, Note_on_c, 0, 58, 55
3, 24897, Note_on_c, 0, 64, 0
3, 24903, Note_on_c, 0, 60, 0
3, 24933, Note_on_c, 0, 58, 0
3, 24945, Note_on_c, 0, 58, 37
3, 24946, Note_on_c, 0, 65, 56
3, 24947, Note_on_c, 0, 54, 45
3, 24951, Control_c, 0, 64, 0
3, 24966, Note_on_c, 0, 106, 51
3, 24983, Control_c, 0, 64, 127
3, 24984, Note_on_c, 0, 104, 36
3, 24990, Note_on_c, 0, 65, 0
3, 24992, Note_on_c, 0, 102, 50
3, 24993, Note_on_c, 0, 106, 0
3, 24998, Note_on_c, 0, 104, 0
3, 25007, Note_on_c, 0, 102, 0
3, 25015, Note_on_c, 0, 100, 24
3, 25021, Note_on_c, 0, 100, 0
3, 25033, Note_on_c, 0, 99, 48
3, 25044, Note_on_c, 0, 97, 51
3, 25047, Note_on_c, 0, 99, 0
3, 25057, Note_on_c, 0, 97, 0
3, 25060, Note_on_c, 0, 96, 52
3, 25061, Control_c, 0, 64, 0
3, 25066, Note_on_c, 0, 96, 0
3, 25070, Note_on_c, 0, 65, 32
3, 25081, Note_on_c, 0, 94, 53
3, 25093, Note_on_c, 0, 65, 0
3, 25093, Note_on_c, 0, 92, 37
3, 25104, Note_on_c, 0, 90, 52
3, 25105, Note_on_c, 0, 94, 0
3, 25110, Note_on_c, 0, 92, 0
3, 25118, Note_on_c, 0, 90, 0
3, 25123, Note_on_c, 0, 89, 46
3, 25131, Note_on_c, 0, 89, 0
3, 25138, Note_on_c, 0, 87, 48
3, 25139, Note_on_c, 0, 58, 0
3, 25141, Note_on_c, 0, 54, 0
3, 25152, Note_on_c, 0, 87, 0
3, 25157, Note_on_c, 0, 86, 44
3, 25159, Control_c, 0, 64, 127
3, 25175, Note_on_c, 0, 86, 0
3, 25178, Note_on_c, 0, 85, 57
3, 25191, Control_c, 0, 64, 0
3, 25198, Note_on_c, 0, 85, 0
3, 25200, Note_on_c, 0, 63, 17
3, 25201, Note_on_c, 0, 84, 51
3, 25206, Note_on_c, 0, 53, 17
3, 25213, Note_on_c, 0, 84, 0
3, 25214, Note_on_c, 0, 83, 57
3, 25235, Note_on_c, 0, 83, 0
3, 25244, Note_on_c, 0, 82, 54
3, 25257, Note_on_c, 0, 82, 0
3, 25264, Note_on_c, 0, 81, 43
3, 25294, Control_c, 0, 64, 127
3, 25296, Note_on_c, 0, 81, 0
3, 25302, Note_on_c, 0, 84, 74
3, 25303, Note_on_c, 0, 63, 0
3, 25324, Note_on_c, 0, 84, 0
3, 25331, Note_on_c, 0, 63, 35
3, 25334, Note_on_c, 0, 81, 65
3, 25341, Control_c, 0, 64, 0
3, 25347, Note_on_c, 0, 60, 17
3, 25354, Note_on_c, 0, 81, 0
3, 25355, Note_on_c, 0, 53, 0
3, 25361, Control_c, 0, 64, 127
3, 25365, Note_on_c, 0, 63, 0
3, 25368, Note_on_c, 0, 77, 32
3, 25371, Note_on_c, 0, 76, 33
3, 25384, Note_on_c, 0, 76, 0
3, 25386, Note_on_c, 0, 77, 0
3, 25399, Note_on_c, 0, 72, 34
3, 25403, Note_on_c, 0, 53, 36
3, 25409, Note_on_c, 0, 60, 0
3, 25417, Note_on_c, 0, 72, 0
3, 25419, Note_on_c, 0, 53, 0
3, 25426, Note_on_c, 0, 70, 47
3, 25445, Note_on_c, 0, 70, 0
3, 25453, Note_on_c, 0, 46, 46
3, 25453, Note_on_c, 0, 69, 50
3, 25456, Note_on_c, 0, 57, 37
3, 25456, Control_c, 0, 64, 0
3, 25482, Note_on_c, 0, 69, 0
3, 25487, Note_on_c, 0, 72, 40
3, 25498, Note_on_c, 0, 57, 0
3, 25505, Note_on_c, 0, 72, 0
3, 25518, Note_on_c, 0, 69, 43
3, 25523, Control_c, 0, 64, 127
3, 25534, Note_on_c, 0, 69, 0
3, 25544, Note_on_c, 0, 65, 58
3, 25558, Note_on_c, 0, 65, 0
3, 25573, Note_on_c, 0, 62, 50
3, 25576, Control_c, 0, 64, 0
3, 25586, Note_on_c, 0, 53, 1
3, 25593, Note_on_c, 0, 62, 0
3, 25606, Note_on_c, 0, 58, 37
3, 25608, Note_on_c, 0, 46, 0
3, 25630, Control_c, 0, 64, 127
3, 25632, Note_on_c, 0, 58, 0
3, 25634, Note_on_c, 0, 57, 44
3, 25650, Note_on_c, 0, 57, 0
3, 25666, Note_on_c, 0, 60, 74
3, 25680, Note_on_c, 0, 46, 34
3, 25688, Control_c, 0, 64, 0
3, 25721, Note_on_c, 0, 53, 0
3, 25722, Note_on_c, 0, 59, 60
3, 25730, Note_on_c, 0, 60, 0
3, 25734, Note_on_c, 0, 58, 54
3, 25738, Note_on_c, 0, 59, 0
3, 25746, Note_on_c, 0, 58, 0
3, 25751, Note_on_c, 0, 57, 13
3, 25769, Control_c, 0, 64, 127
3, 25781, Note_on_c, 0, 57, 0
3, 25789, Note_on_c, 0, 65, 73
3, 25796, Control_c, 0, 64, 0
3, 25797, Note_on_c, 0, 53, 35
3, 25834, Control_c, 0, 64, 127
3, 25840, Note_on_c, 0, 46, 0
3, 25843, Note_on_c, 0, 62, 54
3, 25850, Note_on_c, 0, 65, 0
3, 25862, Note_on_c, 0, 60, 36
3, 25866, Note_on_c, 0, 62, 0
3, 25877, Note_on_c, 0, 57, 37
3, 25880, Note_on_c, 0, 60, 0
3, 25900, Note_on_c, 0, 57, 0
3, 25901, Note_on_c, 0, 53, 0
3, 25904, Control_c, 0, 64, 0
3, 25908, Note_on_c, 0, 65, 70
3, 25912, Note_on_c, 0, 46, 46
3, 25931, Control_c, 0, 64, 127
3, 25984, Note_on_c, 0, 65, 0
3, 26031, Note_on_c, 0, 67, 67
3, 26035, Note_on_c, 0, 55, 45
3, 26036, Control_c, 0, 64, 0
3, 26037, Note_on_c, 0, 60, 47
3, 26039, Note_on_c, 0, 57, 28
3, 26055, Note_on_c, 0, 57, 0
3, 26075, Note_on_c, 0, 60, 0
3, 26078, Note_on_c, 0, 55, 0
3, 26089, Note_on_c, 0, 67, 0
3, 26097, Control_c, 0, 64, 127
3, 26097, Note_on_c, 0, 65, 50
3, 26100, Note_on_c, 0, 53, 42
3, 26111, Note_on_c, 0, 65, 0
3, 26135, Note_on_c, 0, 53, 0
3, 26144, Control_c, 0, 64, 0
3, 26145, Note_on_c, 0, 70, 60
3, 26146, Note_on_c, 0, 65, 53
3, 26147, Note_on_c, 0, 60, 49
3, 26149, Note_on_c, 0, 55, 39
3, 26154, Note_on_c, 0, 60, 0
3, 26157, Note_on_c, 0, 65, 0
3, 26157, Note_on_c, 0, 55, 0
3, 26160, Note_on_c, 0, 70, 0
3, 26170, Note_on_c, 0, 46, 0
3, 26209, Control_c, 0, 64, 127
3, 26263, Control_c, 0, 64, 0
3, 26265, Note_on_c, 0, 46, 38
3, 26266, Note_on_c, 0, 58, 52
3, 26266, Note_on_c, 0, 62, 56
3, 26267, Note_on_c, 0, 55, 50
3, 26294, Control_c, 0, 64, 127
3, 26331, Note_on_c, 0, 55, 0
3, 26356, Note_on_c, 0, 58, 0
3, 26357, Note_on_c, 0, 62, 0
3, 26361, Note_on_c, 0, 46, 0
3, 26394, Note_on_c, 0, 55, 55
3, 26394, Note_on_c, 0, 64, 46
3, 26395, Note_on_c, 0, 58, 43
3, 26396, Note_on_c, 0, 62, 44
3, 26396, Note_on_c, 0, 52, 44
3, 26402, Control_c, 0, 64, 0
3, 26408, Note_on_c, 0, 55, 0
3, 26410, Note_on_c, 0, 58, 0
3, 26416, Note_on_c, 0, 62, 0
3, 26418, Note_on_c, 0, 64, 0
3, 26462, Note_on_c, 0, 58, 45
3, 26462, Note_on_c, 0, 55, 51
3, 26463, Note_on_c, 0, 64, 37
3, 26464, Note_on_c, 0, 62, 44
3, 26472, Note_on_c, 0, 55, 0
3, 26476, Note_on_c, 0, 58, 0
3, 26480, Note_on_c, 0, 64, 0
3, 26481, Note_on_c, 0, 62, 0
3, 26492, Note_on_c, 0, 52, 0
3, 26525, Note_on_c, 0, 58, 39
3, 26525, Note_on_c, 0, 55, 44
3, 26525, Note_on_c, 0, 62, 43
3, 26527, Note_on_c, 0, 64, 32
3, 26533, Note_on_c, 0, 55, 0
3, 26537, Note_on_c, 0, 58, 0
3, 26538, Note_on_c, 0, 62, 0
3, 26539, Note_on_c, 0, 64, 0
3, 26580, Note_on_c, 0, 45, 58
3, 26582, Note_on_c, 0, 64, 49
3, 26582, Note_on_c, 0, 55, 62
3, 26582, Note_on_c, 0, 58, 49
3, 26583, Note_on_c, 0, 61, 52
3, 26584, Note_on_c, 0, 33, 35
3, 26593, Note_on_c, 0, 33, 0
3, 26593, Note_on_c, 0, 55, 0
3, 26597, Note_on_c, 0, 58, 0
3, 26598, Note_on_c, 0, 45, 0
3, 26605, Note_on_c, 0, 61, 0
3, 26608, Note_on_c, 0, 64, 0
3, 26641, Note_on_c, 0, 61, 39
3, 26641, Note_on_c, 0, 55, 51
3, 26643, Note_on_c, 0, 58, 37
3, 26644, Note_on_c, 0, 64, 36
3, 26657, Note_on_c, 0, 55, 0
3, 26662, Note_on_c, 0, 58, 0
3, 26670, Note_on_c, 0, 61, 0
3, 26671, Note_on_c, 0, 64, 0
3, 26698, Note_on_c, 0, 55, 83
3, 26699, Note_on_c, 0, 61, 56
3, 26700, Note_on_c, 0, 58, 59
3, 26701, Note_on_c, 0, 64, 58
3, 26717, Note_on_c, 0, 58, 0
3, 26729, Note_on_c, 0, 61, 0
3, 26732, Note_on_c, 0, 64, 0
3, 26756, Note_on_c, 0, 61, 39
3, 26759, Note_on_c, 0, 58, 38
3, 26760, Note_on_c, 0, 64, 35
3, 26772, Note_on_c, 0, 58, 0
3, 26776, Note_on_c, 0, 61, 0
3, 26777, Note_on_c, 0, 64, 0
3, 26808, Note_on_c, 0, 55, 0
3, 26817, Note_on_c, 0, 61, 31
3, 26818, Note_on_c, 0, 58, 36
3, 26819, Note_on_c, 0, 64, 39
3, 26821, Note_on_c, 0, 52, 40
3, 26828, Control_c, 0, 64, 127
3, 26838, Note_on_c, 0, 61, 0
3, 26846, Note_on_c, 0, 58, 0
3, 26851, Note_on_c, 0, 52, 0
3, 26861, Note_on_c, 0, 64, 0
3, 26866, Control_c, 0, 64, 0
3, 26876, Note_on_c, 0, 63, 47
3, 26877, Note_on_c, 0, 45, 44
3, 26879, Note_on_c, 0, 60, 53
3, 26879, Note_on_c, 0, 51, 38
3, 26879, Note_on_c, 0, 55, 37
3, 26888, Note_on_c, 0, 55, 0
3, 26890, Control_c, 0, 64, 127
3, 26894, Note_on_c, 0, 60, 0
3, 26896, Note_on_c, 0, 45, 0
3, 26899, Note_on_c, 0, 63, 0
3, 26899, Note_on_c, 0, 51, 0
3, 26939, Note_on_c, 0, 81, 67
3, 26939, Note_on_c, 0, 69, 71
3, 26965, Note_on_c, 0, 69, 0
3, 26966, Note_on_c, 0, 81, 0
3, 26995, Note_on_c, 0, 81, 66
3, 26996, Note_on_c, 0, 55, 50
3, 26997, Note_on_c, 0, 63, 44
3, 26997, Note_on_c, 0, 69, 66
3, 27001, Note_on_c, 0, 60, 29
3, 27006, Note_on_c, 0, 57, 26
3, 27027, Note_on_c, 0, 69, 0
3, 27031, Note_on_c, 0, 81, 0
3, 27048, Note_on_c, 0, 60, 0
3, 27056, Note_on_c, 0, 81, 68
3, 27058, Note_on_c, 0, 69, 57
3, 27071, Note_on_c, 0, 55, 0
3, 27071, Note_on_c, 0, 57, 0
3, 27072, Note_on_c, 0, 69, 0
3, 27074, Note_on_c, 0, 63, 0
3, 27079, Note_on_c, 0, 81, 0
3, 27113, Note_on_c, 0, 54, 72
3, 27113, Note_on_c, 0, 65, 78
3, 27114, Note_on_c, 0, 84, 81
3, 27114, Control_c, 0, 64, 0
3, 27114, Note_on_c, 0, 80, 59
3, 27115, Note_on_c, 0, 72, 76
3, 27115, Note_on_c, 0, 58, 62
3, 27115, Note_on_c, 0, 60, 67
3, 27115, Note_on_c, 0, 77, 67
3, 27143, Control_c, 0, 64, 127
3, 27196, Note_on_c, 0, 65, 0
3, 27197, Note_on_c, 0, 72, 0
3, 27197, Note_on_c, 0, 60, 0
3, 27202, Note_on_c, 0, 77, 0
3, 27202, Note_on_c, 0, 54, 0
3, 27204, Note_on_c, 0, 58, 0
3, 27205, Note_on_c, 0, 84, 0
3, 27206, Note_on_c, 0, 80, 0
3, 27234, Note_on_c, 0, 84, 73
3, 27235, Note_on_c, 0, 54, 63
3, 27236, Note_on_c, 0, 58, 60
3, 27236, Note_on_c, 0, 80, 46
3, 27236, Note_on_c, 0, 65, 69
3, 27236, Note_on_c, 0, 77, 61
3, 27237, Note_on_c, 0, 72, 58
3, 27237, Note_on_c, 0, 60, 62
3, 27272, Note_on_c, 0, 72, 0
3, 27281, Note_on_c, 0, 60, 0
3, 27282, Note_on_c, 0, 77, 0
3, 27283, Note_on_c, 0, 80, 0
3, 27287, Note_on_c, 0, 84, 0
3, 27289, Note_on_c, 0, 65, 0
3, 27324, Note_on_c, 0, 54, 0
3, 27327, Note_on_c, 0, 58, 0
3, 27355, Note_on_c, 0, 64, 83
3, 27355, Note_on_c, 0, 88, 83
3, 27356, Note_on_c, 0, 59, 78
3, 27356, Note_on_c, 0, 81, 84
3, 27356, Note_on_c, 0, 53, 81
3, 27357, Note_on_c, 0, 76, 74
3, 27360, Control_c, 0, 64, 0
3, 27387, Control_c, 0, 64, 127
3, 27496, Note_on_c, 0, 64, 0
3, 27501, Note_on_c, 0, 59, 0
3, 27513, Note_on_c, 0, 53, 0
3, 27589, Note_on_c, 0, 76, 0
3, 27591, Note_on_c, 0, 81, 0
3, 27595, Note_on_c, 0, 36, 84
3, 27596, Note_on_c, 0, 24, 89
3, 27598, Note_on_c, 0, 88, 0
3, 27611, Control_c, 0, 64, 0
3, 27631, Control_c, 0, 64, 127
3, 27636, Note_on_c, 0, 24, 0
3, 27648, Note_on_c, 0, 36, 0
3, 27714, Note_on_c, 0, 58, 92
3, 27715, Note_on_c, 0, 73, 64
3, 27715, Note_on_c, 0, 68, 84
3, 27717, Note_on_c, 0, 64, 74
3, 27720, Note_on_c, 0, 70, 26
3, 27720, Note_on_c, 0, 65, 66
3, 27722, Note_on_c, 0, 71, 48
3, 27726, Note_on_c, 0, 65, 0
3, 27726, Control_c, 0, 64, 0
3, 27740, Note_on_c, 0, 71, 0
3, 27745, Note_on_c, 0, 70, 0
3, 27748, Control_c, 0, 64, 127
3, 27814, Note_on_c, 0, 64, 0
3, 27821, Note_on_c, 0, 58, 0
3, 27821, Note_on_c, 0, 73, 0
3, 27827, Note_on_c, 0, 68, 0
3, 27840, Note_on_c, 0, 67, 69
3, 27840, Note_on_c, 0, 72, 65
3, 27840, Note_on_c, 0, 62, 61
3, 27840, Note_on_c, 0, 57, 66
3, 27847, Control_c, 0, 64, 0
3, 27880, Control_c, 0, 64, 127
3, 27921, Note_on_c, 0, 67, 0
3, 27922, Note_on_c, 0, 62, 0
3, 27928, Note_on_c, 0, 72, 0
3, 27958, Note_on_c, 0, 71, 44
3, 27958, Note_on_c, 0, 66, 52
3, 27960, Note_on_c, 0, 61, 38
3, 27962, Note_on_c, 0, 57, 0
3, 27964, Note_on_c, 0, 56, 42
3, 27967, Control_c, 0, 64, 0
3, 28003, Control_c, 0, 64, 127
3, 28025, Note_on_c, 0, 61, 0
3, 28038, Note_on_c, 0, 66, 0
3, 28053, Note_on_c, 0, 71, 0
3, 28077, Control_c, 0, 64, 0
3, 28077, Note_on_c, 0, 72, 50
3, 28079, Note_on_c, 0, 57, 49
3, 28080, Note_on_c, 0, 62, 42
3, 28080, Note_on_c, 0, 67, 52
3, 28088, Note_on_c, 0, 56, 0
3, 28093, Control_c, 0, 64, 127
3, 28125, Note_on_c, 0, 62, 0
3, 28131, Note_on_c, 0, 72, 0
3, 28133, Note_on_c, 0, 57, 0
3, 28141, Note_on_c, 0, 67, 0
3, 28194, Note_on_c, 0, 74, 56
3, 28196, Control_c, 0, 64, 0
3, 28196, Note_on_c, 0, 54, 49
3, 28196, Note_on_c, 0, 44, 46
3, 28197, Note_on_c, 0, 67, 47
3, 28198, Note_on_c, 0, 70, 35
3, 28202, Note_on_c, 0, 64, 26
3, 28219, Control_c, 0, 64, 127
3, 28230, Note_on_c, 0, 74, 0
3, 28235, Note_on_c, 0, 67, 0
3, 28238, Note_on_c, 0, 70, 0
3, 28240, Note_on_c, 0, 64, 0
3, 28254, Note_on_c, 0, 54, 0
3, 28282, Note_on_c, 0, 44, 0
3, 28320, Note_on_c, 0, 64, 51
3, 28322, Note_on_c, 0, 58, 47
3, 28322, Note_on_c, 0, 50, 43
3, 28324, Note_on_c, 0, 43, 36
3, 28325, Note_on_c, 0, 55, 35
3, 28326, Control_c, 0, 64, 0
3, 28351, Control_c, 0, 64, 127
3, 28380, Note_on_c, 0, 64, 0
3, 28393, Note_on_c, 0, 55, 0
3, 28396, Note_on_c, 0, 58, 0
3, 28432, Note_on_c, 0, 50, 0
3, 28436, Note_on_c, 0, 65, 48
3, 28437, Note_on_c, 0, 58, 45
3, 28438, Note_on_c, 0, 62, 45
3, 28439, Note_on_c, 0, 52, 35
3, 28440, Note_on_c, 0, 43, 0
3, 28440, Note_on_c, 0, 55, 41
3, 28446, Control_c, 0, 64, 0
3, 28461, Control_c, 0, 64, 127
3, 28468, Note_on_c, 0, 52, 0
3, 28487, Note_on_c, 0, 55, 0
3, 28492, Note_on_c, 0, 62, 0
3, 28495, Note_on_c, 0, 58, 0
3, 28498, Note_on_c, 0, 65, 0
3, 28557, Control_c, 0, 64, 0
3, 28557, Note_on_c, 0, 36, 36
3, 28557, Note_on_c, 0, 66, 49
3, 28559, Note_on_c, 0, 52, 36
3, 28559, Note_on_c, 0, 62, 46
3, 28561, Note_on_c, 0, 57, 36
3, 28572, Note_on_c, 0, 36, 0
3, 28580, Control_c, 0, 64, 127
3, 28598, Note_on_c, 0, 52, 0
3, 28609, Note_on_c, 0, 62, 0
3, 28610, Note_on_c, 0, 57, 0
3, 28635, Note_on_c, 0, 66, 0
3, 28650, Note_on_c, 0, 61, 60
3, 28650, Note_on_c, 0, 58, 49
3, 28650, Note_on_c, 0, 67, 52
3, 28657, Note_on_c, 0, 58, 0
3, 28660, Note_on_c, 0, 61, 0
3, 28661, Note_on_c, 0, 67, 0
3, 28672, Control_c, 0, 64, 0
3, 28674, Note_on_c, 0, 46, 59
3, 28694, Control_c, 0, 64, 127
3, 28758, Note_on_c, 0, 69, 66
3, 28760, Note_on_c, 0, 64, 57
3, 28762, Note_on_c, 0, 46, 0
3, 28769, Note_on_c, 0, 64, 0
3, 28773, Control_c, 0, 64, 0
3, 28778, Note_on_c, 0, 69, 0
3, 28780, Note_on_c, 0, 45, 49
3, 28786, Note_on_c, 0, 55, 25
3, 28791, Control_c, 0, 64, 127
3, 28806, Note_on_c, 0, 45, 0
3, 28822, Note_on_c, 0, 55, 0
3, 28874, Note_on_c, 0, 82, 76
3, 28875, Note_on_c, 0, 75, 76
3, 28875, Note_on_c, 0, 70, 76
3, 28881, Note_on_c, 0, 78, 25
3, 28892, Control_c, 0, 64, 0
3, 28900, Note_on_c, 0, 65, 30
3, 28900, Note_on_c, 0, 55, 44
3, 28907, Note_on_c, 0, 65, 0
3, 28924, Note_on_c, 0, 55, 0
3, 28925, Control_c, 0, 64, 127
3, 28973, Note_on_c, 0, 75, 0
3, 28974, Note_on_c, 0, 70, 0
3, 28979, Note_on_c, 0, 82, 0
3, 28981, Note_on_c, 0, 78, 0
3, 28992, Note_on_c, 0, 83, 66
3, 28993, Note_on_c, 0, 79, 55
3, 28993, Note_on_c, 0, 71, 71
3, 28994, Note_on_c, 0, 76, 71
3, 28998, Note_on_c, 0, 81, 44
3, 29005, Control_c, 0, 64, 0
3, 29008, Note_on_c, 0, 81, 0
3, 29013, Note_on_c, 0, 71, 0
3, 29019, Note_on_c, 0, 76, 0
3, 29020, Note_on_c, 0, 79, 0
3, 29022, Note_on_c, 0, 83, 0
3, 29025, Note_on_c, 0, 47, 40
3, 29026, Note_on_c, 0, 48, 53
3, 29034, Note_on_c, 0, 47, 0
3, 29034, Control_c, 0, 64, 127
3, 29077, Note_on_c, 0, 48, 0
3, 29109, Note_on_c, 0, 84, 71
3, 29109, Note_on_c, 0, 77, 66
3, 29110, Note_on_c, 0, 72, 63
3, 29110, Note_on_c, 0, 81, 56
3, 29120, Note_on_c, 0, 72, 0
3, 29128, Control_c, 0, 64, 0
3, 29130, Note_on_c, 0, 77, 0
3, 29131, Note_on_c, 0, 81, 0
3, 29135, Note_on_c, 0, 84, 0
3, 29139, Note_on_c, 0, 44, 35
3, 29141, Note_on_c, 0, 54, 29
3, 29146, Control_c, 0, 64, 127
3, 29225, Note_on_c, 0, 50, 49
3, 29226, Note_on_c, 0, 54, 0
3, 29245, Note_on_c, 0, 44, 0
3, 29253, Note_on_c, 0, 50, 0
3, 29261, Control_c, 0, 64, 0
3, 29262, Note_on_c, 0, 85, 70
3, 29263, Note_on_c, 0, 43, 60
3, 29264, Note_on_c, 0, 74, 57
3, 29264, Note_on_c, 0, 53, 54
3, 29285, Control_c, 0, 64, 127
3, 29294, Note_on_c, 0, 43, 0
3, 29306, Note_on_c, 0, 53, 0
3, 29385, Note_on_c, 0, 64, 57
3, 29387, Note_on_c, 0, 59, 62
3, 29387, Note_on_c, 0, 53, 48
3, 29391, Note_on_c, 0, 85, 0
3, 29411, Note_on_c, 0, 74, 0
3, 29427, Note_on_c, 0, 53, 0
3, 29429, Note_on_c, 0, 59, 0
3, 29438, Note_on_c, 0, 64, 0
3, 29507, Note_on_c, 0, 82, 82
3, 29508, Note_on_c, 0, 67, 84
3, 29509, Note_on_c, 0, 73, 71
3, 29510, Control_c, 0, 64, 0
3, 29510, Note_on_c, 0, 76, 74
3, 29513, Note_on_c, 0, 79, 43
3, 29537, Control_c, 0, 64, 127
3, 29544, Note_on_c, 0, 79, 0
3, 29552, Note_on_c, 0, 82, 0
3, 29557, Note_on_c, 0, 76, 0
3, 29571, Note_on_c, 0, 73, 0
3, 29610, Note_on_c, 0, 67, 0
3, 29625, Note_on_c, 0, 73, 48
3, 29625, Note_on_c, 0, 79, 61
3, 29626, Note_on_c, 0, 70, 55
3, 29629, Control_c, 0, 64, 0
3, 29631, Note_on_c, 0, 64, 43
3, 29633, Control_c, 0, 64, 127
3, 29676, Note_on_c, 0, 79, 0
3, 29681, Note_on_c, 0, 70, 0
3, 29683, Note_on_c, 0, 73, 0
3, 29743, Note_on_c, 0, 64, 0
3, 29749, Note_on_c, 0, 81, 66
3, 29751, Note_on_c, 0, 72, 52
3, 29751, Note_on_c, 0, 76, 58
3, 29752, Control_c, 0, 64, 0
3, 29752, Note_on_c, 0, 65, 43
3, 29785, Control_c, 0, 64, 127
3, 29842, Note_on_c, 0, 76, 0
3, 29843, Note_on_c, 0, 72, 0
3, 29844, Note_on_c, 0, 81, 0
3, 29866, Note_on_c, 0, 80, 59
3, 29870, Note_on_c, 0, 72, 40
3, 29871, Control_c, 0, 64, 0
3, 29872, Note_on_c, 0, 65, 0
3, 29872, Note_on_c, 0, 64, 41
3, 29872, Note_on_c, 0, 76, 44
3, 29906, Control_c, 0, 64, 127
3, 29941, Note_on_c, 0, 72, 0
3, 29945, Note_on_c, 0, 76, 0
3, 29960, Note_on_c, 0, 80, 0
3, 29985, Control_c, 0, 64, 0
3, 29988, Note_on_c, 0, 65, 57
3, 29990, Note_on_c, 0, 81, 54
3, 29992, Note_on_c, 0, 72, 42
3, 29993, Note_on_c, 0, 76, 46
3, 29999, Control_c, 0, 64, 127
3, 30000, Note_on_c, 0, 64, 0
3, 30025, Note_on_c, 0, 65, 0
3, 30034, Note_on_c, 0, 72, 0
3, 30039, Note_on_c, 0, 81, 0
3, 30040, Note_on_c, 0, 76, 0
3, 30063, Note_on_c, 0, 81, 55
3, 30065, Note_on_c, 0, 65, 36
3, 30065, Note_on_c, 0, 72, 45
3, 30065, Note_on_c, 0, 76, 58
3, 30079, Note_on_c, 0, 81, 0
3, 30086, Note_on_c, 0, 72, 0
3, 30088, Note_on_c, 0, 76, 0
3, 30113, Note_on_c, 0, 82, 67
3, 30113, Note_on_c, 0, 67, 65
3, 30114, Note_on_c, 0, 65, 0
3, 30114, Note_on_c, 0, 77, 49
3, 30114, Note_on_c, 0, 74, 52
3, 30115, Control_c, 0, 64, 0
3, 30123, Note_on_c, 0, 74, 0
3, 30126, Note_on_c, 0, 82, 0
3, 30126, Note_on_c, 0, 67, 0
3, 30127, Note_on_c, 0, 77, 0
3, 30156, Control_c, 0, 64, 127
3, 30228, Note_on_c, 0, 45, 62
3, 30297, Note_on_c, 0, 60, 66
3, 30298, Note_on_c, 0, 55, 62
3, 30299, Note_on_c, 0, 57, 53
3, 30302, Note_on_c, 0, 52, 47
3, 30314, Note_on_c, 0, 52, 0
3, 30320, Note_on_c, 0, 45, 0
3, 30328, Note_on_c, 0, 55, 0
3, 30330, Note_on_c, 0, 57, 0
3, 30341, Note_on_c, 0, 60, 0
3, 30353, Control_c, 0, 64, 0
3, 30357, Note_on_c, 0, 51, 69
3, 30359, Note_on_c, 0, 62, 66
3, 30361, Note_on_c, 0, 55, 62
3, 30361, Note_on_c, 0, 57, 59
3, 30367, Note_on_c, 0, 55, 0
3, 30369, Note_on_c, 0, 57, 0
3, 30377, Note_on_c, 0, 51, 0
3, 30379, Note_on_c, 0, 62, 0
3, 30422, Note_on_c, 0, 38, 78
3, 30424, Control_c, 0, 64, 127
3, 30467, Note_on_c, 0, 38, 0
3, 30480, Control_c, 0, 64, 0
3, 30481, Note_on_c, 0, 63, 63
3, 30483, Note_on_c, 0, 58, 64
3, 30484, Note_on_c, 0, 54, 67
3, 30487, Note_on_c, 0, 52, 28
3, 30488, Note_on_c, 0, 60, 51
3, 30494, Note_on_c, 0, 52, 0
3, 30525, Control_c, 0, 64, 127
3, 30547, Note_on_c, 0, 33, 44
3, 30550, Note_on_c, 0, 37, 25
3, 30554, Note_on_c, 0, 33, 0
3, 30556, Note_on_c, 0, 37, 0
3, 30559, Note_on_c, 0, 60, 0
3, 30564, Note_on_c, 0, 54, 0
3, 30579, Note_on_c, 0, 58, 0
3, 30579, Note_on_c, 0, 63, 0
3, 30595, Control_c, 0, 64, 0
3, 30603, Note_on_c, 0, 64, 50
3, 30604, Note_on_c, 0, 58, 37
3, 30605, Note_on_c, 0, 55, 57
3, 30606, Note_on_c, 0, 44, 37
3, 30608, Note_on_c, 0, 42, 25
3, 30609, Note_on_c, 0, 60, 41
3, 30615, Note_on_c, 0, 42, 0
3, 30624, Note_on_c, 0, 44, 0
3, 30626, Control_c, 0, 64, 127
3, 30659, Note_on_c, 0, 55, 0
3, 30661, Note_on_c, 0, 60, 0
3, 30665, Note_on_c, 0, 39, 53
3, 30666, Note_on_c, 0, 64, 0
3, 30675, Note_on_c, 0, 58, 0
3, 30698, Note_on_c, 0, 39, 0
3, 30716, Control_c, 0, 64, 0
3, 30720, Note_on_c, 0, 31, 74
3, 30721, Note_on_c, 0, 65, 70
3, 30721, Note_on_c, 0, 43, 52
3, 30722, Note_on_c, 0, 60, 76
3, 30723, Note_on_c, 0, 45, 50
3, 30724, Note_on_c, 0, 57, 68
3, 30731, Note_on_c, 0, 45, 0
3, 30739, Control_c, 0, 64, 127
3, 30742, Note_on_c, 0, 31, 0
3, 30752, Note_on_c, 0, 57, 0
3, 30754, Note_on_c, 0, 43, 0
3, 30764, Note_on_c, 0, 60, 0
3, 30768, Note_on_c, 0, 65, 0
3, 30840, Note_on_c, 0, 74, 89
3, 30841, Note_on_c, 0, 65, 79
3, 30841, Note_on_c, 0, 69, 94
3, 30845, Note_on_c, 0, 64, 57
3, 30851, Note_on_c, 0, 64, 0
3, 30889, Note_on_c, 0, 69, 0
3, 30890, Note_on_c, 0, 74, 0
3, 30894, Note_on_c, 0, 65, 0
3, 30963, Note_on_c, 0, 59, 56
3, 30965, Note_on_c, 0, 53, 53
3, 30965, Note_on_c, 0, 57, 57
3, 30980, Control_c, 0, 64, 0
3, 31003, Control_c, 0, 64, 127
3, 31073, Note_on_c, 0, 43, 64
3, 31096, Note_on_c, 0, 43, 0
3, 31105, Note_on_c, 0, 57, 0
3, 31105, Note_on_c, 0, 53, 0
3, 31110, Note_on_c, 0, 59, 0
3, 31191, Control_c, 0, 64, 0
3, 31194, Note_on_c, 0, 64, 66
3, 31194, Note_on_c, 0, 48, 58
3, 31196, Note_on_c, 0, 58, 69
3, 31209, Control_c, 0, 64, 127
3, 31212, Note_on_c, 0, 48, 0
3, 31214, Note_on_c, 0, 58, 0
3, 31222, Note_on_c, 0, 64, 0
3, 31261, Note_on_c, 0, 73, 50
3, 31261, Note_on_c, 0, 58, 59
3, 31264, Note_on_c, 0, 64, 59
3, 31266, Note_on_c, 0, 69, 54
3, 31279, Note_on_c, 0, 64, 0
3, 31286, Note_on_c, 0, 69, 0
3, 31293, Note_on_c, 0, 73, 0
3, 31322, Note_on_c, 0, 88, 80
3, 31322, Note_on_c, 0, 81, 70
3, 31323, Note_on_c, 0, 64, 36
3, 31364, Note_on_c, 0, 64, 0
3, 31371, Note_on_c, 0, 88, 0
3, 31374, Note_on_c, 0, 81, 0
3, 31381, Note_on_c, 0, 85, 56
3, 31385, Note_on_c, 0, 64, 36
3, 31385, Note_on_c, 0, 76, 49
3, 31393, Note_on_c, 0, 85, 0
3, 31400, Note_on_c, 0, 76, 0
3, 31409, Note_on_c, 0, 64, 0
3, 31443, Note_on_c, 0, 81, 54
3, 31445, Note_on_c, 0, 73, 33
3, 31450, Note_on_c, 0, 64, 31
3, 31477, Note_on_c, 0, 64, 0
3, 31479, Note_on_c, 0, 81, 0
3, 31486, Note_on_c, 0, 73, 0
3, 31502, Note_on_c, 0, 76, 47
3, 31504, Note_on_c, 0, 69, 55
3, 31510, Note_on_c, 0, 64, 28
3, 31513, Note_on_c, 0, 76, 0
3, 31523, Note_on_c, 0, 69, 0
3, 31526, Note_on_c, 0, 64, 0
3, 31548, Note_on_c, 0, 58, 0
3, 31564, Note_on_c, 0, 73, 28
3, 31565, Note_on_c, 0, 69, 42
3, 31566, Note_on_c, 0, 58, 26
3, 31567, Note_on_c, 0, 64, 31
3, 31592, Note_on_c, 0, 64, 0
3, 31595, Note_on_c, 0, 58, 0
3, 31610, Note_on_c, 0, 69, 0
3, 31625, Note_on_c, 0, 73, 0
3, 31628, Note_on_c, 0, 58, 32
3, 31676, Note_on_c, 0, 58, 0
3, 31682, Note_on_c, 0, 67, 51
3, 31683, Note_on_c, 0, 72, 37
3, 31684, Note_on_c, 0, 62, 34
3, 31685, Control_c, 0, 64, 0
3, 31744, Note_on_c, 0, 57, 42
3, 31766, Note_on_c, 0, 57, 0
3, 31799, Control_c, 0, 64, 127
3, 31804, Note_on_c, 0, 57, 44
3, 31861, Note_on_c, 0, 48, 53
3, 31898, Note_on_c, 0, 48, 0
3, 31916, Note_on_c, 0, 67, 0
3, 31921, Note_on_c, 0, 48, 43
3, 31925, Note_on_c, 0, 72, 0
3, 31936, Note_on_c, 0, 57, 0
3, 31940, Note_on_c, 0, 62, 0
3, 31986, Note_on_c, 0, 57, 40
3, 31987, Note_on_c, 0, 69, 43
3, 31988, Note_on_c, 0, 60, 28
3, 31988, Note_on_c, 0, 65, 34
3, 32008, Note_on_c, 0, 60, 0
3, 32008, Note_on_c, 0, 57, 0
3, 32011, Note_on_c, 0, 65, 0
3, 32019, Note_on_c, 0, 69, 0
3, 32046, Note_on_c, 0, 57, 39
3, 32048, Note_on_c, 0, 65, 43
3, 32050, Note_on_c, 0, 60, 31
3, 32050, Note_on_c, 0, 69, 42
3, 32065, Note_on_c, 0, 48, 0
3, 32090, Note_on_c, 0, 60, 0
3, 32100, Note_on_c, 0, 65, 0
3, 32101, Note_on_c, 0, 69, 0
3, 32103, Note_on_c, 0, 48, 48
3, 32112, Note_on_c, 0, 57, 0
3, 32165, Note_on_c, 0, 62, 44
3, 32165, Note_on_c, 0, 65, 47
3, 32168, Note_on_c, 0, 58, 31
3, 32171, Control_c, 0, 64, 0
3, 32196, Control_c, 0, 64, 127
3, 32209, Note_on_c, 0, 48, 0
3, 32222, Note_on_c, 0, 72, 58
3, 32227, Note_on_c, 0, 48, 44
3, 32254, Note_on_c, 0, 72, 0
3, 32270, Note_on_c, 0, 62, 0
3, 32281, Note_on_c, 0, 72, 56
3, 32295, Note_on_c, 0, 48, 0
3, 32323, Note_on_c, 0, 65, 0
3, 32325, Note_on_c, 0, 72, 0
3, 32335, Note_on_c, 0, 58, 0
3, 32342, Note_on_c, 0, 48, 37
3, 32400, Note_on_c, 0, 61, 29
3, 32402, Note_on_c, 0, 64, 45
3, 32403, Note_on_c, 0, 68, 31
3, 32404, Note_on_c, 0, 58, 29
3, 32407, Control_c, 0, 64, 0
3, 32433, Note_on_c, 0, 48, 0
3, 32438, Control_c, 0, 64, 127
3, 32466, Note_on_c, 0, 61, 0
3, 32467, Note_on_c, 0, 48, 37
3, 32470, Note_on_c, 0, 64, 0
3, 32493, Note_on_c, 0, 58, 0
3, 32494, Note_on_c, 0, 68, 0
3, 32500, Note_on_c, 0, 48, 0
3, 32584, Note_on_c, 0, 86, 80
3, 32605, Note_on_c, 0, 86, 0
3, 32623, Note_on_c, 0, 84, 74
3, 32642, Note_on_c, 0, 84, 0
3, 32655, Note_on_c, 0, 41, 27
3, 32660, Note_on_c, 0, 80, 53
3, 32662, Note_on_c, 0, 57, 28
3, 32663, Note_on_c, 0, 48, 29
3, 32664, Control_c, 0, 64, 0
3, 32685, Note_on_c, 0, 80, 0
3, 32691, Note_on_c, 0, 82, 62
3, 32713, Note_on_c, 0, 82, 0
3, 32724, Note_on_c, 0, 81, 61
3, 32742, Note_on_c, 0, 57, 0
3, 32745, Note_on_c, 0, 81, 0
3, 32756, Note_on_c, 0, 76, 40
3, 32771, Note_on_c, 0, 76, 0
3, 32781, Note_on_c, 0, 79, 69
3, 32811, Note_on_c, 0, 77, 62
3, 32822, Note_on_c, 0, 79, 0
3, 32831, Note_on_c, 0, 77, 0
3, 32838, Note_on_c, 0, 72, 47
3, 32841, Control_c, 0, 64, 127
3, 32852, Note_on_c, 0, 72, 0
3, 32873, Note_on_c, 0, 69, 39
3, 32891, Note_on_c, 0, 69, 0
3, 32897, Control_c, 0, 64, 0
3, 32900, Note_on_c, 0, 65, 38
3, 32911, Control_c, 0, 64, 127
3, 32935, Note_on_c, 0, 41, 0
3, 32970, Note_on_c, 0, 41, 64
3, 32976, Note_on_c, 0, 65, 0
3, 33048, Note_on_c, 0, 41, 0
3, 33086, Note_on_c, 0, 41, 46
3, 33100, Note_on_c, 0, 41, 0
3, 33108, Note_on_c, 0, 48, 0
3, 33132, Note_on_c, 0, 58, 27
3, 33133, Note_on_c, 0, 43, 52
3, 33134, Note_on_c, 0, 53, 45
3, 33135, Note_on_c, 0, 57, 44
3, 33139, Control_c, 0, 64, 0
3, 33188, Note_on_c, 0, 57, 0
3, 33191, Note_on_c, 0, 58, 0
3, 33193, Control_c, 0, 64, 127
3, 33209, Note_on_c, 0, 58, 54
3, 33215, Note_on_c, 0, 53, 0
3, 33231, Note_on_c, 0, 57, 47
3, 33232, Note_on_c, 0, 58, 0
3, 33246, Note_on_c, 0, 57, 0
3, 33252, Note_on_c, 0, 53, 33
3, 33252, Note_on_c, 0, 58, 37
3, 33265, Control_c, 0, 64, 0
3, 33267, Note_on_c, 0, 58, 0
3, 33280, Note_on_c, 0, 60, 35
3, 33290, Note_on_c, 0, 60, 0
3, 33304, Note_on_c, 0, 43, 0
3, 33306, Note_on_c, 0, 62, 59
3, 33320, Note_on_c, 0, 62, 0
3, 33326, Note_on_c, 0, 53, 0
3, 33335, Note_on_c, 0, 66, 37
3, 33335, Note_on_c, 0, 65, 58
3, 33336, Note_on_c, 0, 67, 64
3, 33349, Note_on_c, 0, 67, 0
3, 33349, Note_on_c, 0, 66, 0
3, 33354, Note_on_c, 0, 65, 0
3, 33370, Note_on_c, 0, 63, 52
3, 33388, Note_on_c, 0, 63, 0
3, 33398, Note_on_c, 0, 64, 58
3, 33415, Note_on_c, 0, 64, 0
3, 33425, Note_on_c, 0, 65, 57
3, 33442, Note_on_c, 0, 65, 0
3, 33455, Note_on_c, 0, 66, 69
3, 33467, Control_c, 0, 64, 127
3, 33475, Note_on_c, 0, 66, 0
3, 33483, Note_on_c, 0, 67, 68
3, 33485, Note_on_c, 0, 60, 26
3, 33486, Note_on_c, 0, 58, 31
3, 33486, Note_on_c, 0, 52, 32
3, 33487, Control_c, 0, 64, 0
3, 33501, Note_on_c, 0, 67, 0
3, 33515, Note_on_c, 0, 68, 50
3, 33532, Note_on_c, 0, 68, 0
3, 33543, Note_on_c, 0, 69, 55
3, 33549, Note_on_c, 0, 52, 0
3, 33560, Note_on_c, 0, 69, 0
3, 33562, Note_on_c, 0, 58, 0
3, 33563, Note_on_c, 0, 60, 0
3, 33567, Note_on_c, 0, 70, 45
3, 33574, Control_c, 0, 64, 127
3, 33589, Note_on_c, 0, 70, 0
3, 33598, Note_on_c, 0, 71, 50
3, 33602, Control_c, 0, 64, 0
3, 33617, Note_on_c, 0, 71, 0
3, 33629, Note_on_c, 0, 53, 5
3, 33630, Note_on_c, 0, 74, 80
3, 33649, Note_on_c, 0, 74, 0
3, 33660, Note_on_c, 0, 72, 67
3, 33677, Note_on_c, 0, 53, 0
3, 33679, Note_on_c, 0, 72, 0
3, 33684, Control_c, 0, 64, 127
3, 33692, Note_on_c, 0, 69, 64
3, 33708, Note_on_c, 0, 69, 0
3, 33722, Note_on_c, 0, 65, 55
3, 33725, Note_on_c, 0, 53, 25
3, 33727, Control_c, 0, 64, 0
3, 33743, Note_on_c, 0, 65, 0
3, 33752, Note_on_c, 0, 53, 0
3, 33755, Note_on_c, 0, 60, 47
3, 33772, Note_on_c, 0, 60, 0
3, 33787, Note_on_c, 0, 59, 29
3, 33788, Control_c, 0, 64, 127
3, 33811, Note_on_c, 0, 59, 0
3, 33824, Note_on_c, 0, 57, 43
3, 33841, Note_on_c, 0, 57, 0
3, 33852, Note_on_c, 0, 50, 24
3, 33854, Note_on_c, 0, 41, 24
3, 33854, Note_on_c, 0, 60, 26
3, 33855, Control_c, 0, 64, 0
3, 33877, Note_on_c, 0, 60, 0
3, 33910, Note_on_c, 0, 50, 0
3, 33912, Note_on_c, 0, 58, 48
3, 33927, Control_c, 0, 64, 127
3, 33941, Note_on_c, 0, 58, 0
3, 33949, Note_on_c, 0, 57, 61
3, 33967, Control_c, 0, 64, 0
3, 33970, Note_on_c, 0, 50, 27
3, 33973, Note_on_c, 0, 57, 0
3, 33996, Note_on_c, 0, 41, 0
3, 34016, Control_c, 0, 64, 127
3, 34019, Note_on_c, 0, 41, 63
3, 34049, Note_on_c, 0, 41, 0
3, 34062, Note_on_c, 0, 41, 72
3, 34081, Note_on_c, 0, 50, 0
3, 34083, Note_on_c, 0, 41, 0
3, 34101, Control_c, 0, 64, 0
3, 34103, Note_on_c, 0, 43, 65
3, 34119, Control_c, 0, 64, 127
3, 34127, Note_on_c, 0, 43, 0
3, 34139, Note_on_c, 0, 65, 55
3, 34156, Note_on_c, 0, 65, 0
3, 34176, Note_on_c, 0, 69, 57
3, 34203, Control_c, 0, 64, 0
3, 34205, Note_on_c, 0, 69, 0
3, 34211, Note_on_c, 0, 64, 35
3, 34211, Note_on_c, 0, 73, 38
3, 34214, Note_on_c, 0, 53, 24
3, 34217, Note_on_c, 0, 59, 34
3, 34225, Note_on_c, 0, 73, 0
3, 34250, Control_c, 0, 64, 127
3, 34251, Note_on_c, 0, 76, 36
3, 34265, Note_on_c, 0, 76, 0
3, 34285, Note_on_c, 0, 81, 77
3, 34304, Note_on_c, 0, 64, 0
3, 34304, Note_on_c, 0, 53, 0
3, 34306, Note_on_c, 0, 81, 0
3, 34309, Note_on_c, 0, 59, 0
3, 34319, Control_c, 0, 64, 0
3, 34325, Note_on_c, 0, 59, 55
3, 34326, Note_on_c, 0, 64, 60
3, 34326, Note_on_c, 0, 85, 85
3, 34326, Note_on_c, 0, 53, 50
3, 34345, Note_on_c, 0, 64, 0
3, 34346, Control_c, 0, 64, 127
3, 34347, Note_on_c, 0, 85, 0
3, 34348, Note_on_c, 0, 53, 0
3, 34352, Control_c, 0, 64, 0
3, 34354, Note_on_c, 0, 59, 0
3, 34362, Note_on_c, 0, 88, 83
3, 34363, Note_on_c, 0, 64, 71
3, 34363, Note_on_c, 0, 59, 66
3, 34364, Note_on_c, 0, 53, 74
3, 34364, Note_on_c, 0, 85, 57
3, 34364, Note_on_c, 0, 81, 71
3, 34365, Note_on_c, 0, 76, 69
3, 34382, Control_c, 0, 64, 127
3, 34424, Note_on_c, 0, 53, 0
3, 34425, Note_on_c, 0, 76, 0
3, 34427, Note_on_c, 0, 88, 0
3, 34427, Note_on_c, 0, 81, 0
3, 34428, Note_on_c, 0, 64, 0
3, 34433, Note_on_c, 0, 59, 0
3, 34434, Note_on_c, 0, 85, 0
3, 34442, Control_c, 0, 64, 0
3, 34445, Note_on_c, 0, 89, 72
3, 34445, Note_on_c, 0, 53, 61
3, 34445, Note_on_c, 0, 59, 74
3, 34446, Note_on_c, 0, 64, 59
3, 34447, Note_on_c, 0, 77, 57
3, 34448, Note_on_c, 0, 84, 62
3, 34458, Control_c, 0, 64, 127
3, 34485, Note_on_c, 0, 84, 0
3, 34487, Note_on_c, 0, 77, 0
3, 34493, Note_on_c, 0, 89, 0
3, 34494, Note_on_c, 0, 53, 0
3, 34497, Note_on_c, 0, 64, 0
3, 34510, Note_on_c, 0, 59, 0
3, 34521, Note_on_c, 0, 91, 75
3, 34521, Note_on_c, 0, 59, 46
3, 34522, Note_on_c, 0, 86, 72
3, 34523, Note_on_c, 0, 53, 60
3, 34523, Note_on_c, 0, 64, 50
3, 34524, Note_on_c, 0, 79, 49
3, 34540, Note_on_c, 0, 64, 0
3, 34541, Note_on_c, 0, 59, 0
3, 34542, Note_on_c, 0, 79, 0
3, 34546, Note_on_c, 0, 86, 0
3, 34549, Note_on_c, 0, 91, 0
3, 34552, Note_on_c, 0, 53, 0
3, 34561, Control_c, 0, 64, 0
3, 34562, Note_on_c, 0, 53, 34
3, 34564, Note_on_c, 0, 62, 59
3, 34565, Note_on_c, 0, 57, 52
3, 34566, Note_on_c, 0, 58, 51
3, 34683, Note_on_c, 0, 98, 87
3, 34683, Note_on_c, 0, 86, 81
3, 34689, Note_on_c, 0, 88, 39
3, 34696, Note_on_c, 0, 88, 0
3, 34711, Note_on_c, 0, 86, 0
3, 34712, Note_on_c, 0, 98, 0
3, 34738, Note_on_c, 0, 98, 79
3, 34740, Note_on_c, 0, 86, 78
3, 34760, Note_on_c, 0, 98, 0
3, 34761, Note_on_c, 0, 86, 0
3, 34767, Note_on_c, 0, 62, 0
3, 34781, Note_on_c, 0, 96, 64
3, 34783, Note_on_c, 0, 84, 62
3, 34796, Note_on_c, 0, 84, 0
3, 34803, Note_on_c, 0, 96, 0
3, 34804, Note_on_c, 0, 57, 0
3, 34805, Note_on_c, 0, 58, 0
3, 34807, Note_on_c, 0, 53, 0
3, 34831, Note_on_c, 0, 98, 75
3, 34832, Note_on_c, 0, 86, 66
3, 34846, Note_on_c, 0, 86, 0
3, 34846, Note_on_c, 0, 98, 0
3, 34873, Note_on_c, 0, 96, 71
3, 34875, Note_on_c, 0, 62, 50
3, 34876, Note_on_c, 0, 52, 51
3, 34876, Note_on_c, 0, 84, 64
3, 34877, Note_on_c, 0, 58, 35
3, 34909, Control_c, 0, 64, 127
3, 34911, Note_on_c, 0, 96, 0
3, 34912, Note_on_c, 0, 84, 0
3, 34923, Note_on_c, 0, 62, 0
3, 34927, Note_on_c, 0, 52, 0
3, 34931, Note_on_c, 0, 58, 0
3, 34940, Note_on_c, 0, 81, 53
3, 34941, Note_on_c, 0, 93, 47
3, 34943, Note_on_c, 0, 62, 46
3, 34944, Note_on_c, 0, 52, 53
3, 34944, Note_on_c, 0, 58, 25
3, 34965, Note_on_c, 0, 93, 0
3, 34983, Note_on_c, 0, 81, 0
3, 34987, Note_on_c, 0, 52, 0
3, 35002, Note_on_c, 0, 58, 0
3, 35005, Note_on_c, 0, 62, 0
3, 35054, Note_on_c, 0, 84, 84
3, 35054, Note_on_c, 0, 64, 42
3, 35056, Note_on_c, 0, 57, 44
3, 35057, Note_on_c, 0, 55, 36
3, 35058, Note_on_c, 0, 60, 40
3, 35059, Control_c, 0, 64, 0
3, 35082, Note_on_c, 0, 83, 58
3, 35088, Note_on_c, 0, 84, 0
3, 35097, Note_on_c, 0, 82, 55
3, 35101, Note_on_c, 0, 83, 0
3, 35119, Note_on_c, 0, 81, 61
3, 35127, Note_on_c, 0, 82, 0
3, 35128, Control_c, 0, 64, 127
3, 35133, Control_c, 0, 64, 0
3, 35134, Note_on_c, 0, 64, 0
3, 35138, Note_on_c, 0, 81, 0
3, 35143, Note_on_c, 0, 60, 0
3, 35149, Note_on_c, 0, 80, 56
3, 35168, Note_on_c, 0, 80, 0
3, 35176, Note_on_c, 0, 83, 74
3, 35182, Note_on_c, 0, 64, 25
3, 35207, Note_on_c, 0, 83, 0
3, 35209, Note_on_c, 0, 81, 67
3, 35229, Note_on_c, 0, 81, 0
3, 35237, Note_on_c, 0, 76, 48
3, 35245, Note_on_c, 0, 64, 0
3, 35255, Note_on_c, 0, 76, 0
3, 35259, Control_c, 0, 64, 127
3, 35261, Note_on_c, 0, 55, 0
3, 35265, Note_on_c, 0, 57, 0
3, 35267, Note_on_c, 0, 74, 60
3, 35292, Note_on_c, 0, 74, 0
3, 35299, Control_c, 0, 64, 0
3, 35300, Note_on_c, 0, 54, 37
3, 35300, Note_on_c, 0, 60, 27
3, 35305, Note_on_c, 0, 64, 25
3, 35306, Note_on_c, 0, 72, 31
3, 35339, Note_on_c, 0, 72, 0
3, 35347, Note_on_c, 0, 69, 68
3, 35354, Note_on_c, 0, 64, 0
3, 35373, Control_c, 0, 64, 127
3, 35375, Note_on_c, 0, 69, 0
3, 35376, Note_on_c, 0, 60, 0
3, 35385, Note_on_c, 0, 67, 47
3, 35418, Control_c, 0, 64, 0
3, 35419, Note_on_c, 0, 66, 44
3, 35420, Note_on_c, 0, 67, 0
3, 35426, Note_on_c, 0, 60, 20
3, 35450, Note_on_c, 0, 66, 0
3, 35454, Note_on_c, 0, 60, 0
3, 35455, Note_on_c, 0, 69, 62
3, 35480, Note_on_c, 0, 69, 0
3, 35483, Note_on_c, 0, 54, 0
3, 35492, Control_c, 0, 64, 127
3, 35495, Note_on_c, 0, 65, 68
3, 35522, Note_on_c, 0, 65, 0
3, 35528, Control_c, 0, 64, 0
3, 35532, Note_on_c, 0, 62, 68
3, 35558, Note_on_c, 0, 62, 0
3, 35567, Note_on_c, 0, 58, 47
3, 35600, Note_on_c, 0, 57, 60
3, 35610, Note_on_c, 0, 53, 45
3, 35611, Note_on_c, 0, 58, 0
3, 35613, Control_c, 0, 64, 127
3, 35613, Note_on_c, 0, 43, 32
3, 35631, Note_on_c, 0, 57, 0
3, 35640, Note_on_c, 0, 60, 68
3, 35644, Control_c, 0, 64, 0
3, 35675, Note_on_c, 0, 60, 0
3, 35676, Note_on_c, 0, 53, 0
3, 35677, Note_on_c, 0, 58, 49
3, 35678, Control_c, 0, 64, 127
3, 35685, Note_on_c, 0, 50, 31
3, 35695, Note_on_c, 0, 50, 0
3, 35711, Note_on_c, 0, 58, 0
3, 35712, Note_on_c, 0, 53, 53
3, 35717, Note_on_c, 0, 43, 0
3, 35721, Note_on_c, 0, 53, 0
3, 35751, Note_on_c, 0, 36, 62
3, 35756, Control_c, 0, 64, 0
3, 35763, Note_on_c, 0, 36, 0
3, 35783, Control_c, 0, 64, 127
3, 35831, Note_on_c, 0, 87, 81
3, 35840, Note_on_c, 0, 63, 37
3, 35843, Note_on_c, 0, 52, 34
3, 35851, Control_c, 0, 64, 0
3, 35857, Note_on_c, 0, 85, 55
3, 35862, Note_on_c, 0, 87, 0
3, 35867, Note_on_c, 0, 82, 38
3, 35869, Note_on_c, 0, 63, 0
3, 35881, Note_on_c, 0, 80, 49
3, 35883, Note_on_c, 0, 85, 0
3, 35892, Note_on_c, 0, 82, 0
3, 35898, Control_c, 0, 64, 127
3, 35900, Note_on_c, 0, 80, 0
3, 35904, Control_c, 0, 64, 0
3, 35906, Note_on_c, 0, 76, 34
3, 35911, Note_on_c, 0, 58, 1
3, 35917, Note_on_c, 0, 76, 0
3, 35920, Note_on_c, 0, 75, 47
3, 35921, Note_on_c, 0, 52, 0
3, 35938, Note_on_c, 0, 75, 0
3, 35940, Note_on_c, 0, 58, 0
3, 35940, Note_on_c, 0, 74, 57
3, 35959, Note_on_c, 0, 74, 0
3, 35961, Note_on_c, 0, 73, 32
3, 35976, Control_c, 0, 64, 127
3, 35978, Note_on_c, 0, 73, 0
3, 35984, Note_on_c, 0, 72, 22
3, 35990, Note_on_c, 0, 72, 0
3, 35991, Note_on_c, 0, 71, 58
3, 36007, Note_on_c, 0, 70, 58
3, 36009, Note_on_c, 0, 71, 0
3, 36018, Control_c, 0, 64, 0
3, 36020, Note_on_c, 0, 70, 0
3, 36025, Note_on_c, 0, 69, 55
3, 36026, Note_on_c, 0, 55, 32
3, 36028, Note_on_c, 0, 45, 29
3, 36051, Note_on_c, 0, 69, 0
3, 36055, Note_on_c, 0, 72, 65
3, 36076, Note_on_c, 0, 72, 0
3, 36082, Note_on_c, 0, 55, 0
3, 36084, Note_on_c, 0, 60, 64
3, 36100, Note_on_c, 0, 60, 0
3, 36119, Note_on_c, 0, 60, 64
3, 36134, Note_on_c, 0, 60, 0
3, 36150, Note_on_c, 0, 60, 54
3, 36154, Note_on_c, 0, 45, 0
3, 36164, Control_c, 0, 64, 127
3, 36177, Note_on_c, 0, 60, 0
3, 36187, Note_on_c, 0, 51, 59
3, 36189, Note_on_c, 0, 65, 58
3, 36191, Note_on_c, 0, 39, 39
3, 36193, Control_c, 0, 64, 0
3, 36198, Note_on_c, 0, 59, 33
3, 36200, Note_on_c, 0, 57, 22
3, 36208, Note_on_c, 0, 57, 0
3, 36218, Note_on_c, 0, 39, 0
3, 36225, Control_c, 0, 64, 127
3, 36229, Note_on_c, 0, 59, 0
3, 36229, Note_on_c, 0, 51, 0
3, 36230, Note_on_c, 0, 65, 0
3, 36251, Control_c, 0, 64, 0
3, 36256, Note_on_c, 0, 65, 45
3, 36257, Note_on_c, 0, 58, 56
3, 36258, Note_on_c, 0, 50, 30
3, 36258, Note_on_c, 0, 38, 27
3, 36276, Control_c, 0, 64, 127
3, 36304, Note_on_c, 0, 50, 0
3, 36310, Note_on_c, 0, 58, 0
3, 36335, Note_on_c, 0, 65, 0
3, 36343, Note_on_c, 0, 38, 0
3, 36358, Note_on_c, 0, 58, 49
3, 36358, Note_on_c, 0, 62, 59
3, 36360, Note_on_c, 0, 61, 30
3, 36361, Note_on_c, 0, 53, 33
3, 36364, Note_on_c, 0, 43, 49
3, 36368, Control_c, 0, 64, 0
3, 36385, Note_on_c, 0, 43, 0
3, 36393, Control_c, 0, 64, 127
3, 36414, Note_on_c, 0, 53, 0
3, 36427, Note_on_c, 0, 58, 0
3, 36429, Note_on_c, 0, 61, 0
3, 36438, Note_on_c, 0, 62, 0
3, 36439, Note_on_c, 0, 48, 51
3, 36463, Note_on_c, 0, 48, 0
3, 36472, Control_c, 0, 64, 0
3, 36477, Note_on_c, 0, 41, 50
3, 36480, Note_on_c, 0, 57, 44
3, 36480, Note_on_c, 0, 52, 47
3, 36480, Note_on_c, 0, 60, 53
3, 36493, Note_on_c, 0, 57, 0
3, 36495, Note_on_c, 0, 41, 0
3, 36499, Note_on_c, 0, 60, 0
3, 36503, Note_on_c, 0, 52, 0
3, 36521, Control_c, 0, 64, 127
3, 36556, Note_on_c, 0, 55, 44
3, 36557, Note_on_c, 0, 69, 68
3, 36558, Note_on_c, 0, 60, 57
3, 36558, Note_on_c, 0, 64, 64
3, 36564, Note_on_c, 0, 55, 0
3, 36566, Note_on_c, 0, 60, 0
3, 36572, Note_on_c, 0, 64, 0
3, 36576, Note_on_c, 0, 69, 0
3, 36609, Note_on_c, 0, 73, 60
3, 36610, Control_c, 0, 64, 0
3, 36611, Note_on_c, 0, 68, 71
3, 36613, Note_on_c, 0, 58, 68
3, 36644, Control_c, 0, 64, 127
3, 36656, Note_on_c, 0, 68, 0
3, 36660, Note_on_c, 0, 73, 0
3, 36664, Note_on_c, 0, 58, 0
3, 36664, Control_c, 0, 64, 0
3, 36680, Control_c, 0, 64, 127
3, 36681, Note_on_c, 0, 72, 61
3, 36683, Note_on_c, 0, 64, 55
3, 36684, Note_on_c, 0, 67, 64
3, 36684, Note_on_c, 0, 57, 54
3, 36691, Note_on_c, 0, 64, 0
3, 36698, Note_on_c, 0, 57, 0
3, 36699, Note_on_c, 0, 67, 0
3, 36701, Note_on_c, 0, 72, 0
3, 36736, Control_c, 0, 64, 0
3, 36740, Note_on_c, 0, 74, 66
3, 36741, Note_on_c, 0, 62, 68
3, 36743, Note_on_c, 0, 69, 68
3, 36743, Note_on_c, 0, 65, 58
3, 36758, Note_on_c, 0, 65, 0
3, 36764, Note_on_c, 0, 69, 0
3, 36765, Control_c, 0, 64, 127
3, 36767, Note_on_c, 0, 74, 0
3, 36772, Note_on_c, 0, 62, 0
3, 36797, Control_c, 0, 64, 0
3, 36806, Note_on_c, 0, 77, 66
3, 36807, Note_on_c, 0, 72, 63
3, 36808, Note_on_c, 0, 65, 50
3, 36809, Note_on_c, 0, 69, 63
3, 36816, Control_c, 0, 64, 127
3, 36823, Note_on_c, 0, 69, 0
3, 36827, Note_on_c, 0, 65, 0
3, 36828, Note_on_c, 0, 72, 0
3, 36832, Note_on_c, 0, 77, 0
3, 36848, Control_c, 0, 64, 0
3, 36854, Note_on_c, 0, 67, 60
3, 36856, Note_on_c, 0, 81, 68
3, 36857, Note_on_c, 0, 72, 63
3, 36858, Note_on_c, 0, 77, 51
3, 36858, Note_on_c, 0, 74, 52
3, 36867, Note_on_c, 0, 67, 0
3, 36871, Control_c, 0, 64, 127
3, 36878, Note_on_c, 0, 72, 0
3, 36880, Note_on_c, 0, 74, 0
3, 36882, Note_on_c, 0, 81, 0
3, 36883, Note_on_c, 0, 77, 0
3, 36900, Control_c, 0, 64, 0
3, 36913, Control_c, 0, 64, 127
3, 36921, Note_on_c, 0, 78, 55
3, 36923, Note_on_c, 0, 68, 62
3, 36923, Note_on_c, 0, 54, 46
3, 36947, Note_on_c, 0, 68, 0
3, 36947, Note_on_c, 0, 78, 0
3, 36948, Note_on_c, 0, 54, 0
3, 36956, Control_c, 0, 64, 0
3, 36969, Note_on_c, 0, 62, 47
3, 36969, Note_on_c, 0, 77, 41
3, 36969, Note_on_c, 0, 53, 39
3, 36970, Note_on_c, 0, 70, 39
3, 36972, Note_on_c, 0, 65, 40
3, 36972, Note_on_c, 0, 74, 43
3, 36975, Note_on_c, 0, 58, 30
3, 36975, Note_on_c, 0, 57, 36
3, 36978, Control_c, 0, 64, 127
3, 36982, Note_on_c, 0, 65, 0
3, 36988, Note_on_c, 0, 70, 0
3, 36991, Note_on_c, 0, 74, 0
3, 36992, Note_on_c, 0, 57, 0
3, 36994, Note_on_c, 0, 62, 0
3, 36997, Note_on_c, 0, 77, 0
3, 36997, Note_on_c, 0, 53, 0
3, 37003, Note_on_c, 0, 58, 0
3, 37030, Control_c, 0, 64, 0
3, 37043, Control_c, 0, 64, 127
3, 37045, Note_on_c, 0, 58, 56
3, 37045, Note_on_c, 0, 62, 58
3, 37045, Note_on_c, 0, 83, 63
3, 37046, Note_on_c, 0, 84, 72
3, 37047, Note_on_c, 0, 72, 60
3, 37052, Note_on_c, 0, 76, 28
3, 37059, Note_on_c, 0, 76, 0
3, 37060, Note_on_c, 0, 84, 0
3, 37063, Note_on_c, 0, 72, 0
3, 37064, Note_on_c, 0, 83, 0
3, 37068, Note_on_c, 0, 62, 0
3, 37077, Control_c, 0, 64, 0
3, 37087, Note_on_c, 0, 81, 56
3, 37088, Note_on_c, 0, 62, 41
3, 37090, Note_on_c, 0, 77, 54
3, 37090, Note_on_c, 0, 74, 55
3, 37091, Note_on_c, 0, 69, 52
3, 37093, Note_on_c, 0, 57, 53
3, 37106, Note_on_c, 0, 62, 0
3, 37109, Note_on_c, 0, 57, 0
3, 37111, Note_on_c, 0, 74, 0
3, 37111, Control_c, 0, 64, 127
3, 37113, Note_on_c, 0, 58, 0
3, 37114, Note_on_c, 0, 81, 0
3, 37115, Note_on_c, 0, 69, 0
3, 37116, Note_on_c, 0, 77, 0
3, 37129, Control_c, 0, 64, 0
3, 37158, Control_c, 0, 64, 127
3, 37189, Control_c, 0, 64, 0
3, 37202, Note_on_c, 0, 63, 76
3, 37203, Note_on_c, 0, 76, 66
3, 37204, Note_on_c, 0, 73, 37
3, 37205, Note_on_c, 0, 68, 56
3, 37205, Note_on_c, 0, 64, 66
3, 37214, Control_c, 0, 64, 127
3, 37226, Note_on_c, 0, 63, 0
3, 37241, Note_on_c, 0, 76, 0
3, 37259, Note_on_c, 0, 64, 0
3, 37261, Note_on_c, 0, 68, 0
3, 37263, Note_on_c, 0, 73, 0
3, 37312, Control_c, 0, 64, 0
3, 37314, Note_on_c, 0, 73, 45
3, 37315, Note_on_c, 0, 68, 58
3, 37316, Note_on_c, 0, 46, 50
3, 37318, Note_on_c, 0, 64, 40
3, 37322, Note_on_c, 0, 56, 17
3, 37335, Control_c, 0, 64, 127
3, 37356, Note_on_c, 0, 56, 0
3, 37361, Note_on_c, 0, 64, 0
3, 37370, Note_on_c, 0, 73, 0
3, 37378, Note_on_c, 0, 46, 0
3, 37392, Note_on_c, 0, 68, 0
3, 37433, Control_c, 0, 64, 0
3, 37435, Note_on_c, 0, 45, 39
3, 37435, Note_on_c, 0, 72, 36
3, 37436, Note_on_c, 0, 67, 51
3, 37437, Note_on_c, 0, 55, 32
3, 37438, Note_on_c, 0, 60, 33
3, 37454, Control_c, 0, 64, 127
3, 37477, Note_on_c, 0, 67, 0
3, 37477, Note_on_c, 0, 72, 0
3, 37497, Note_on_c, 0, 55, 0
3, 37501, Note_on_c, 0, 60, 0
3, 37554, Note_on_c, 0, 53, 51
3, 37556, Note_on_c, 0, 69, 57
3, 37556, Note_on_c, 0, 64, 55
3, 37557, Note_on_c, 0, 60, 45
3, 37614, Note_on_c, 0, 69, 0
3, 37617, Note_on_c, 0, 60, 0
3, 37620, Note_on_c, 0, 64, 0
3, 37628, Control_c, 0, 64, 127
3, 37633, Note_on_c, 0, 68, 56
3, 37634, Note_on_c, 0, 53, 0
3, 37637, Note_on_c, 0, 52, 40
3, 37639, Note_on_c, 0, 60, 26
3, 37650, Note_on_c, 0, 60, 0
3, 37665, Note_on_c, 0, 68, 0
3, 37667, Control_c, 0, 64, 0
3, 37678, Note_on_c, 0, 52, 0
3, 37678, Note_on_c, 0, 69, 64
3, 37678, Note_on_c, 0, 53, 51
3, 37680, Note_on_c, 0, 60, 41
3, 37680, Note_on_c, 0, 64, 51
3, 37694, Control_c, 0, 64, 127
3, 37708, Note_on_c, 0, 69, 0
3, 37709, Note_on_c, 0, 45, 0
3, 37718, Note_on_c, 0, 60, 0
3, 37722, Note_on_c, 0, 64, 0
3, 37750, Note_on_c, 0, 54, 52
3, 37752, Note_on_c, 0, 53, 0
3, 37753, Note_on_c, 0, 70, 57
3, 37757, Note_on_c, 0, 64, 42
3, 37757, Note_on_c, 0, 60, 35
3, 37771, Note_on_c, 0, 60, 0
3, 37777, Note_on_c, 0, 64, 0
3, 37782, Note_on_c, 0, 70, 0
3, 37787, Note_on_c, 0, 54, 0
3, 37787, Control_c, 0, 64, 0
3, 37797, Note_on_c, 0, 71, 60
3, 37798, Note_on_c, 0, 55, 56
3, 37799, Note_on_c, 0, 64, 44
3, 37812, Control_c, 0, 64, 127
3, 37813, Note_on_c, 0, 64, 0
3, 37822, Note_on_c, 0, 71, 0
3, 37863, Note_on_c, 0, 55, 0
3, 37876, Note_on_c, 0, 76, 60
3, 37877, Note_on_c, 0, 73, 35
3, 37878, Note_on_c, 0, 64, 53
3, 37879, Note_on_c, 0, 69, 54
3, 37880, Note_on_c, 0, 57, 51
3, 37881, Control_c, 0, 64, 0
3, 37911, Control_c, 0, 64, 127
3, 37930, Note_on_c, 0, 57, 0
3, 37958, Note_on_c, 0, 64, 0
3, 37958, Note_on_c, 0, 59, 54
3, 37963, Note_on_c, 0, 69, 0
3, 37996, Note_on_c, 0, 73, 0
3, 38003, Note_on_c, 0, 76, 0
3, 38031, Note_on_c, 0, 64, 50
3, 38058, Note_on_c, 0, 71, 57
3, 38063, Control_c, 0, 64, 0
3, 38076, Note_on_c, 0, 71, 0
3, 38077, Note_on_c, 0, 73, 38
3, 38087, Note_on_c, 0, 73, 0
3, 38108, Note_on_c, 0, 77, 30
3, 38123, Note_on_c, 0, 77, 0
3, 38127, Note_on_c, 0, 81, 27
3, 38135, Note_on_c, 0, 85, 52
3, 38140, Note_on_c, 0, 81, 0
3, 38156, Note_on_c, 0, 85, 0
3, 38156, Note_on_c, 0, 88, 66
3, 38178, Note_on_c, 0, 85, 51
3, 38182, Note_on_c, 0, 88, 0
3, 38189, Note_on_c, 0, 53, 29
3, 38196, Note_on_c, 0, 85, 0
3, 38209, Note_on_c, 0, 81, 60
3, 38226, Note_on_c, 0, 81, 0
3, 38229, Note_on_c, 0, 64, 0
3, 38234, Note_on_c, 0, 76, 42
3, 38249, Note_on_c, 0, 76, 0
3, 38260, Note_on_c, 0, 73, 31
3, 38280, Note_on_c, 0, 72, 43
3, 38291, Note_on_c, 0, 72, 0
3, 38291, Note_on_c, 0, 73, 0
3, 38299, Note_on_c, 0, 76, 59
3, 38304, Note_on_c, 0, 62, 26
3, 38315, Note_on_c, 0, 62, 0
3, 38323, Note_on_c, 0, 75, 54
3, 38329, Note_on_c, 0, 59, 0
3, 38330, Note_on_c, 0, 76, 0
3, 38332, Note_on_c, 0, 75, 0
3, 38338, Note_on_c, 0, 74, 30
3, 38360, Note_on_c, 0, 74, 0
3, 38363, Note_on_c, 0, 73, 29
3, 38371, Note_on_c, 0, 73, 0
3, 38381, Note_on_c, 0, 72, 25
3, 38393, Note_on_c, 0, 72, 0
3, 38394, Note_on_c, 0, 71, 59
3, 38410, Note_on_c, 0, 53, 0
3, 38411, Note_on_c, 0, 71, 0
3, 38414, Note_on_c, 0, 70, 40
3, 38423, Note_on_c, 0, 62, 36
3, 38426, Note_on_c, 0, 58, 32
3, 38429, Note_on_c, 0, 57, 22
3, 38431, Note_on_c, 0, 70, 0
3, 38443, Note_on_c, 0, 69, 33
3, 38460, Note_on_c, 0, 69, 0
3, 38467, Note_on_c, 0, 72, 48
3, 38489, Note_on_c, 0, 72, 0
3, 38490, Note_on_c, 0, 70, 43
3, 38498, Note_on_c, 0, 62, 0
3, 38512, Note_on_c, 0, 58, 0
3, 38513, Note_on_c, 0, 70, 0
3, 38526, Note_on_c, 0, 66, 39
3, 38533, Note_on_c, 0, 66, 0
3, 38541, Note_on_c, 0, 62, 33
3, 38544, Note_on_c, 0, 58, 29
3, 38546, Note_on_c, 0, 69, 60
3, 38565, Note_on_c, 0, 62, 0
3, 38567, Note_on_c, 0, 69, 0
3, 38567, Note_on_c, 0, 66, 51
3, 38581, Note_on_c, 0, 66, 0
3, 38586, Note_on_c, 0, 57, 0
3, 38589, Note_on_c, 0, 58, 0
3, 38589, Note_on_c, 0, 67, 66
3, 38611, Note_on_c, 0, 67, 0
3, 38612, Note_on_c, 0, 66, 30
3, 38624, Note_on_c, 0, 66, 0
3, 38634, Note_on_c, 0, 65, 26
3, 38652, Note_on_c, 0, 65, 0
3, 38654, Note_on_c, 0, 64, 53
3, 38668, Note_on_c, 0, 58, 32
3, 38669, Note_on_c, 0, 48, 41
3, 38705, Note_on_c, 0, 58, 0
3, 38710, Note_on_c, 0, 64, 0
3, 38712, Note_on_c, 0, 48, 0
3, 38722, Note_on_c, 0, 60, 47
3, 38725, Control_c, 0, 64, 127
3, 38784, Note_on_c, 0, 58, 53
3, 38785, Note_on_c, 0, 60, 0
3, 38785, Note_on_c, 0, 46, 36
3, 38794, Control_c, 0, 64, 0
3, 38821, Control_c, 0, 64, 127
3, 38848, Note_on_c, 0, 58, 0
3, 38849, Note_on_c, 0, 52, 47
3, 38854, Note_on_c, 0, 46, 0
3, 38857, Note_on_c, 0, 57, 60
3, 38879, Control_c, 0, 64, 0
3, 38880, Note_on_c, 0, 52, 0
3, 38884, Note_on_c, 0, 57, 0
3, 38891, Note_on_c, 0, 45, 50
3, 38897, Control_c, 0, 64, 127
3, 38902, Note_on_c, 0, 45, 0
3, 38965, Note_on_c, 0, 72, 60
3, 38966, Note_on_c, 0, 67, 63
3, 38978, Note_on_c, 0, 67, 0
3, 38982, Note_on_c, 0, 72, 0
3, 38998, Note_on_c, 0, 55, 45
3, 39002, Note_on_c, 0, 64, 40
3, 39003, Control_c, 0, 64, 0
3, 39004, Note_on_c, 0, 79, 72
3, 39004, Note_on_c, 0, 67, 66
3, 39006, Note_on_c, 0, 57, 28
3, 39009, Note_on_c, 0, 72, 36
3, 39009, Note_on_c, 0, 60, 32
3, 39045, Note_on_c, 0, 72, 0
3, 39048, Control_c, 0, 64, 127
3, 39052, Note_on_c, 0, 67, 0
3, 39057, Note_on_c, 0, 79, 0
3, 39060, Note_on_c, 0, 64, 0
3, 39068, Note_on_c, 0, 60, 0
3, 39073, Note_on_c, 0, 55, 0
3, 39076, Note_on_c, 0, 79, 47
3, 39077, Note_on_c, 0, 57, 0
3, 39079, Note_on_c, 0, 67, 51
3, 39082, Note_on_c, 0, 72, 40
3, 39085, Note_on_c, 0, 76, 24
3, 39087, Note_on_c, 0, 67, 0
3, 39091, Note_on_c, 0, 72, 0
3, 39095, Note_on_c, 0, 79, 0
3, 39096, Note_on_c, 0, 76, 0
3, 39111, Control_c, 0, 64, 0
3, 39113, Note_on_c, 0, 54, 52
3, 39114, Note_on_c, 0, 81, 50
3, 39116, Note_on_c, 0, 64, 33
3, 39116, Note_on_c, 0, 74, 37
3, 39116, Note_on_c, 0, 69, 41
3, 39118, Note_on_c, 0, 60, 30
3, 39120, Note_on_c, 0, 77, 28
3, 39137, Control_c, 0, 64, 127
3, 39152, Note_on_c, 0, 69, 0
3, 39156, Note_on_c, 0, 74, 0
3, 39162, Note_on_c, 0, 81, 0
3, 39164, Note_on_c, 0, 77, 0
3, 39182, Note_on_c, 0, 64, 0
3, 39183, Note_on_c, 0, 60, 0
3, 39191, Note_on_c, 0, 54, 0
3, 39195, Note_on_c, 0, 84, 64
3, 39196, Note_on_c, 0, 72, 57
3, 39197, Note_on_c, 0, 77, 46
3, 39199, Note_on_c, 0, 81, 42
3, 39207, Note_on_c, 0, 72, 0
3, 39209, Control_c, 0, 64, 0
3, 39211, Note_on_c, 0, 77, 0
3, 39217, Note_on_c, 0, 84, 0
3, 39217, Note_on_c, 0, 81, 0
3, 39224, Note_on_c, 0, 54, 43
3, 39229, Note_on_c, 0, 60, 32
3, 39231, Control_c, 0, 64, 127
3, 39232, Note_on_c, 0, 64, 14
3, 39274, Note_on_c, 0, 64, 0
3, 39278, Note_on_c, 0, 60, 0
3, 39280, Note_on_c, 0, 54, 0
3, 39317, Note_on_c, 0, 57, 24
3, 39323, Note_on_c, 0, 57, 0
3, 39342, Note_on_c, 0, 53, 63
3, 39343, Note_on_c, 0, 85, 73
3, 39343, Note_on_c, 0, 58, 60
3, 39343, Note_on_c, 0, 77, 71
3, 39343, Note_on_c, 0, 89, 71
3, 39343, Note_on_c, 0, 62, 68
3, 39344, Note_on_c, 0, 57, 57
3, 39345, Control_c, 0, 64, 0
3, 39379, Note_on_c, 0, 86, 44
3, 39382, Note_on_c, 0, 85, 0
3, 39386, Note_on_c, 0, 86, 0
3, 39388, Note_on_c, 0, 89, 0
3, 39391, Note_on_c, 0, 77, 0
3, 39399, Note_on_c, 0, 62, 0
3, 39405, Note_on_c, 0, 58, 0
3, 39409, Note_on_c, 0, 57, 0
3, 39409, Note_on_c, 0, 53, 0
3, 39423, Control_c, 0, 64, 127
3, 39436, Control_c, 0, 64, 0
3, 39464, Note_on_c, 0, 80, 56
3, 39464, Note_on_c, 0, 62, 48
3, 39465, Note_on_c, 0, 84, 66
3, 39467, Note_on_c, 0, 53, 39
3, 39467, Note_on_c, 0, 72, 49
3, 39467, Note_on_c, 0, 57, 35
3, 39468, Note_on_c, 0, 58, 43
3, 39497, Note_on_c, 0, 83, 14
3, 39498, Note_on_c, 0, 80, 0
3, 39499, Note_on_c, 0, 81, 42
3, 39500, Note_on_c, 0, 72, 0
3, 39509, Note_on_c, 0, 84, 0
3, 39510, Note_on_c, 0, 81, 0
3, 39511, Note_on_c, 0, 83, 0
3, 39515, Note_on_c, 0, 62, 0
3, 39515, Control_c, 0, 64, 127
3, 39520, Note_on_c, 0, 57, 0
3, 39522, Note_on_c, 0, 53, 0
3, 39531, Note_on_c, 0, 58, 0
3, 39588, Note_on_c, 0, 75, 58
3, 39589, Note_on_c, 0, 68, 57
3, 39590, Note_on_c, 0, 63, 72
3, 39590, Note_on_c, 0, 64, 64
3, 39590, Note_on_c, 0, 72, 48
3, 39602, Note_on_c, 0, 72, 0
3, 39602, Control_c, 0, 64, 0
3, 39606, Note_on_c, 0, 64, 0
3, 39609, Note_on_c, 0, 75, 0
3, 39611, Note_on_c, 0, 68, 0
3, 39614, Note_on_c, 0, 63, 0
3, 39622, Note_on_c, 0, 62, 38
3, 39632, Note_on_c, 0, 61, 54
3, 39634, Note_on_c, 0, 62, 0
3, 39651, Note_on_c, 0, 61, 0
3, 39659, Note_on_c, 0, 72, 52
3, 39659, Note_on_c, 0, 60, 65
3, 39662, Note_on_c, 0, 61, 38
3, 39664, Note_on_c, 0, 64, 29
3, 39673, Note_on_c, 0, 72, 0
3, 39674, Note_on_c, 0, 64, 0
3, 39679, Note_on_c, 0, 60, 0
3, 39685, Note_on_c, 0, 61, 0
3, 39691, Note_on_c, 0, 59, 45
3, 39697, Control_c, 0, 64, 127
3, 39701, Control_c, 0, 64, 0
3, 39706, Note_on_c, 0, 59, 0
3, 39707, Note_on_c, 0, 58, 51
3, 39715, Note_on_c, 0, 58, 0
3, 39718, Note_on_c, 0, 61, 59
3, 39719, Note_on_c, 0, 69, 59
3, 39720, Note_on_c, 0, 58, 32
3, 39723, Note_on_c, 0, 57, 60
3, 39725, Note_on_c, 0, 64, 36
3, 39740, Note_on_c, 0, 69, 0
3, 39744, Note_on_c, 0, 64, 0
3, 39746, Note_on_c, 0, 61, 0
3, 39746, Note_on_c, 0, 57, 0
3, 39750, Note_on_c, 0, 58, 0
3, 39753, Note_on_c, 0, 55, 42
3, 39769, Note_on_c, 0, 55, 0
3, 39770, Note_on_c, 0, 54, 62
3, 39772, Note_on_c, 0, 57, 34
3, 39782, Note_on_c, 0, 66, 8
3, 39788, Note_on_c, 0, 54, 0
3, 39788, Note_on_c, 0, 59, 17
3, 39792, Note_on_c, 0, 57, 0
3, 39795, Control_c, 0, 64, 127
3, 39802, Note_on_c, 0, 59, 0
3, 39812, Note_on_c, 0, 66, 0
3, 39818, Note_on_c, 0, 50, 37
3, 39831, Control_c, 0, 64, 0
3, 39835, Note_on_c, 0, 50, 0
3, 39838, Note_on_c, 0, 63, 37
3, 39838, Note_on_c, 0, 57, 51
3, 39840, Note_on_c, 0, 67, 48
3, 39841, Note_on_c, 0, 55, 63
3, 39844, Note_on_c, 0, 60, 41
3, 39865, Note_on_c, 0, 67, 0
3, 39868, Note_on_c, 0, 55, 0
3, 39871, Note_on_c, 0, 57, 0
3, 39874, Note_on_c, 0, 60, 0
3, 39880, Note_on_c, 0, 57, 40
3, 39880, Note_on_c, 0, 65, 61
3, 39880, Note_on_c, 0, 60, 29
3, 39884, Note_on_c, 0, 53, 58
3, 39917, Control_c, 0, 64, 127
3, 39938, Note_on_c, 0, 57, 0
3, 39938, Note_on_c, 0, 63, 0
3, 39941, Note_on_c, 0, 60, 0
3, 39946, Note_on_c, 0, 53, 0
3, 39949, Note_on_c, 0, 65, 0
3, 39955, Control_c, 0, 64, 0
3, 39959, Note_on_c, 0, 48, 49
3, 39961, Note_on_c, 0, 60, 47
3, 39962, Note_on_c, 0, 57, 34
3, 39988, Control_c, 0, 64, 127
3, 39989, Note_on_c, 0, 57, 0
3, 39996, Note_on_c, 0, 60, 0
3, 40006, Note_on_c, 0, 48, 0
3, 40026, Note_on_c, 0, 41, 67
3, 40034, Note_on_c, 0, 41, 0
3, 40068, Note_on_c, 0, 61, 68
3, 40068, Note_on_c, 0, 68, 59
3, 40069, Note_on_c, 0, 51, 50
3, 40069, Control_c, 0, 64, 0
3, 40069, Note_on_c, 0, 57, 64
3, 40070, Note_on_c, 0, 65, 62
3, 40074, Note_on_c, 0, 47, 31
3, 40103, Control_c, 0, 64, 127
3, 40144, Note_on_c, 0, 57, 0
3, 40147, Note_on_c, 0, 65, 0
3, 40149, Note_on_c, 0, 51, 0
3, 40157, Note_on_c, 0, 61, 0
3, 40184, Note_on_c, 0, 68, 0
3, 40184, Note_on_c, 0, 47, 0
3, 40192, Control_c, 0, 64, 0
3, 40193, Note_on_c, 0, 61, 42
3, 40195, Note_on_c, 0, 65, 46
3, 40196, Note_on_c, 0, 51, 35
3, 40199, Note_on_c, 0, 57, 33
3, 40212, Control_c, 0, 64, 127
3, 40216, Note_on_c, 0, 61, 0
3, 40227, Note_on_c, 0, 65, 0
3, 40250, Note_on_c, 0, 57, 0
3, 40280, Note_on_c, 0, 53, 48
3, 40291, Note_on_c, 0, 51, 0
3, 40303, Note_on_c, 0, 53, 0
3, 40313, Note_on_c, 0, 46, 46
3, 40315, Control_c, 0, 64, 0
3, 40319, Note_on_c, 0, 84, 71
3, 40334, Note_on_c, 0, 46, 0
3, 40335, Control_c, 0, 64, 127
3, 40337, Note_on_c, 0, 84, 0
3, 40358, Note_on_c, 0, 84, 68
3, 40378, Note_on_c, 0, 84, 0
3, 40395, Note_on_c, 0, 77, 50
3, 40416, Note_on_c, 0, 77, 0
3, 40427, Control_c, 0, 64, 0
3, 40432, Note_on_c, 0, 77, 64
3, 40438, Note_on_c, 0, 62, 30
3, 40441, Note_on_c, 0, 65, 16
3, 40443, Note_on_c, 0, 60, 33
3, 40452, Note_on_c, 0, 77, 0
3, 40465, Note_on_c, 0, 65, 0
3, 40466, Control_c, 0, 64, 127
3, 40471, Note_on_c, 0, 81, 63
3, 40487, Note_on_c, 0, 81, 0
3, 40507, Note_on_c, 0, 81, 62
3, 40530, Note_on_c, 0, 81, 0
3, 40545, Note_on_c, 0, 74, 50
3, 40546, Note_on_c, 0, 53, 36
3, 40549, Control_c, 0, 64, 0
3, 40561, Note_on_c, 0, 74, 0
3, 40574, Control_c, 0, 64, 127
3, 40583, Note_on_c, 0, 74, 42
3, 40595, Note_on_c, 0, 60, 0
3, 40598, Note_on_c, 0, 62, 0
3, 40600, Note_on_c, 0, 74, 0
3, 40626, Note_on_c, 0, 77, 56
3, 40667, Control_c, 0, 64, 0
3, 40671, Note_on_c, 0, 62, 42
3, 40671, Note_on_c, 0, 65, 48
3, 40674, Note_on_c, 0, 60, 37
3, 40677, Control_c, 0, 64, 127
3, 40692, Note_on_c, 0, 65, 0
3, 40705, Note_on_c, 0, 53, 0
3, 40733, Note_on_c, 0, 60, 0
3, 40742, Note_on_c, 0, 62, 0
3, 40755, Note_on_c, 0, 53, 25
3, 40780, Note_on_c, 0, 77, 0
3, 40791, Control_c, 0, 64, 0
3, 40796, Note_on_c, 0, 67, 48
3, 40797, Note_on_c, 0, 76, 42
3, 40798, Note_on_c, 0, 72, 44
3, 40800, Note_on_c, 0, 64, 20
3, 40810, Note_on_c, 0, 60, 17
3, 40813, Control_c, 0, 64, 127
3, 40814, Note_on_c, 0, 53, 0
3, 40815, Note_on_c, 0, 58, 13
3, 40870, Note_on_c, 0, 58, 0
3, 40873, Note_on_c, 0, 67, 0
3, 40874, Note_on_c, 0, 64, 0
3, 40881, Note_on_c, 0, 53, 44
3, 40891, Note_on_c, 0, 76, 0
3, 40894, Note_on_c, 0, 60, 0
3, 40896, Note_on_c, 0, 72, 0
3, 40905, Note_on_c, 0, 53, 0
3, 40976, Note_on_c, 0, 76, 73
3, 40977, Note_on_c, 0, 67, 79
3, 40978, Note_on_c, 0, 72, 71
3, 40979, Control_c, 0, 64, 0
3, 40979, Note_on_c, 0, 62, 68
3, 40981, Note_on_c, 0, 57, 64
3, 40990, Note_on_c, 0, 67, 0
3, 40992, Note_on_c, 0, 72, 0
3, 40994, Note_on_c, 0, 62, 0
3, 40995, Note_on_c, 0, 57, 0
3, 40998, Note_on_c, 0, 76, 0
3, 41017, Note_on_c, 0, 76, 62
3, 41017, Note_on_c, 0, 67, 69
3, 41018, Note_on_c, 0, 72, 63
3, 41019, Note_on_c, 0, 57, 60
3, 41020, Note_on_c, 0, 62, 65
3, 41029, Note_on_c, 0, 62, 0
3, 41029, Note_on_c, 0, 72, 0
3, 41030, Note_on_c, 0, 67, 0
3, 41032, Note_on_c, 0, 57, 0
3, 41034, Note_on_c, 0, 76, 0
3, 41077, Note_on_c, 0, 62, 66
3, 41078, Note_on_c, 0, 57, 57
3, 41078, Note_on_c, 0, 76, 73
3, 41079, Note_on_c, 0, 72, 72
3, 41080, Note_on_c, 0, 67, 75
3, 41091, Control_c, 0, 64, 127
3, 41140, Note_on_c, 0, 53, 51
3, 41166, Note_on_c, 0, 67, 0
3, 41166, Note_on_c, 0, 62, 0
3, 41167, Note_on_c, 0, 57, 0
3, 41170, Note_on_c, 0, 72, 0
3, 41218, Note_on_c, 0, 62, 58
3, 41219, Control_c, 0, 64, 0
3, 41222, Note_on_c, 0, 57, 36
3, 41224, Control_c, 0, 64, 127
3, 41232, Note_on_c, 0, 57, 0
3, 41234, Note_on_c, 0, 62, 0
3, 41239, Note_on_c, 0, 53, 0
3, 41253, Note_on_c, 0, 76, 0
3, 41253, Note_on_c, 0, 62, 59
3, 41256, Note_on_c, 0, 53, 37
3, 41256, Note_on_c, 0, 57, 46
3, 41263, Note_on_c, 0, 57, 0
3, 41266, Note_on_c, 0, 53, 0
3, 41268, Note_on_c, 0, 62, 0
3, 41289, Control_c, 0, 64, 0
3, 41316, Control_c, 0, 64, 127
3, 41329, Control_c, 0, 64, 0
3, 41334, Note_on_c, 0, 75, 57
3, 41337, Note_on_c, 0, 70, 56
3, 41337, Note_on_c, 0, 66, 57
3, 41337, Note_on_c, 0, 65, 60
3, 41339, Note_on_c, 0, 72, 47
3, 41341, Note_on_c, 0, 54, 35
3, 41343, Note_on_c, 0, 60, 37
3, 41343, Note_on_c, 0, 58, 30
3, 41365, Control_c, 0, 64, 127
3, 41371, Note_on_c, 0, 65, 0
3, 41376, Note_on_c, 0, 60, 0
3, 41383, Note_on_c, 0, 72, 0
3, 41384, Note_on_c, 0, 54, 0
3, 41386, Note_on_c, 0, 58, 0
3, 41391, Note_on_c, 0, 66, 0
3, 41393, Note_on_c, 0, 75, 0
3, 41396, Note_on_c, 0, 70, 0
3, 41404, Note_on_c, 0, 73, 48
3, 41404, Note_on_c, 0, 66, 46
3, 41422, Note_on_c, 0, 66, 0
3, 41427, Note_on_c, 0, 73, 0
3, 41459, Note_on_c, 0, 41, 53
3, 41465, Note_on_c, 0, 41, 0
3, 41511, Control_c, 0, 64, 0
3, 41518, Note_on_c, 0, 61, 60
3, 41518, Note_on_c, 0, 68, 57
3, 41519, Note_on_c, 0, 63, 50
3, 41519, Note_on_c, 0, 54, 63
3, 41521, Note_on_c, 0, 57, 57
3, 41566, Note_on_c, 0, 57, 0
3, 41570, Note_on_c, 0, 63, 0
3, 41570, Note_on_c, 0, 61, 0
3, 41573, Note_on_c, 0, 68, 0
3, 41580, Note_on_c, 0, 66, 51
3, 41582, Note_on_c, 0, 54, 0
3, 41583, Note_on_c, 0, 61, 43
3, 41583, Note_on_c, 0, 57, 40
3, 41584, Note_on_c, 0, 63, 46
3, 41586, Note_on_c, 0, 53, 62
3, 41602, Control_c, 0, 64, 127
3, 41621, Note_on_c, 0, 66, 0
3, 41624, Note_on_c, 0, 57, 0
3, 41628, Note_on_c, 0, 61, 0
3, 41631, Control_c, 0, 64, 0
3, 41635, Note_on_c, 0, 63, 0
3, 41644, Note_on_c, 0, 65, 58
3, 41645, Note_on_c, 0, 61, 25
3, 41645, Note_on_c, 0, 57, 43
3, 41647, Note_on_c, 0, 51, 50
3, 41648, Note_on_c, 0, 53, 0
3, 41658, Control_c, 0, 64, 127
3, 41681, Note_on_c, 0, 57, 0
3, 41681, Note_on_c, 0, 51, 0
3, 41681, Note_on_c, 0, 61, 0
3, 41698, Note_on_c, 0, 65, 0
3, 41704, Note_on_c, 0, 51, 36
3, 41706, Note_on_c, 0, 63, 47
3, 41708, Note_on_c, 0, 57, 37
3, 41725, Note_on_c, 0, 57, 0
3, 41730, Note_on_c, 0, 51, 0
3, 41747, Note_on_c, 0, 63, 0
3, 41824, Note_on_c, 0, 61, 63
3, 41827, Note_on_c, 0, 46, 50
3, 41831, Control_c, 0, 64, 0
3, 41831, Note_on_c, 0, 53, 43
3, 41858, Control_c, 0, 64, 127
3, 41865, Note_on_c, 0, 66, 36
3, 41867, Control_c, 0, 64, 0
3, 41871, Note_on_c, 0, 69, 33
3, 41874, Note_on_c, 0, 67, 31
3, 41883, Control_c, 0, 64, 127
3, 41884, Note_on_c, 0, 67, 0
3, 41886, Note_on_c, 0, 69, 0
3, 41891, Note_on_c, 0, 53, 0
3, 41892, Note_on_c, 0, 66, 0
3, 41893, Note_on_c, 0, 46, 0
3, 41893, Note_on_c, 0, 61, 0
3, 41915, Note_on_c, 0, 62, 53
3, 41916, Control_c, 0, 64, 0
3, 41917, Note_on_c, 0, 57, 42
3, 41917, Note_on_c, 0, 46, 37
3, 41918, Note_on_c, 0, 53, 38
3, 41950, Control_c, 0, 64, 127
3, 41951, Note_on_c, 0, 57, 0
3, 41962, Note_on_c, 0, 62, 0
3, 41969, Note_on_c, 0, 46, 0
3, 41974, Note_on_c, 0, 53, 0
3, 41977, Control_c, 0, 64, 0
3, 41988, Control_c, 0, 64, 127
3, 42002, Note_on_c, 0, 46, 47
3, 42008, Note_on_c, 0, 66, 27
3, 42008, Note_on_c, 0, 65, 40
3, 42008, Note_on_c, 0, 53, 40
3, 42009, Note_on_c, 0, 69, 36
3, 42016, Note_on_c, 0, 66, 0
3, 42019, Note_on_c, 0, 65, 0
3, 42022, Note_on_c, 0, 69, 0
3, 42037, Note_on_c, 0, 72, 73
3, 42041, Note_on_c, 0, 53, 0
3, 42046, Note_on_c, 0, 57, 42
3, 42046, Control_c, 0, 64, 0
3, 42054, Note_on_c, 0, 57, 0
3, 42059, Note_on_c, 0, 72, 0
3, 42076, Note_on_c, 0, 61, 52
3, 42077, Note_on_c, 0, 69, 60
3, 42078, Note_on_c, 0, 65, 58
3, 42081, Note_on_c, 0, 55, 34
3, 42086, Control_c, 0, 64, 127
3, 42133, Note_on_c, 0, 65, 0
3, 42137, Note_on_c, 0, 61, 0
3, 42154, Note_on_c, 0, 55, 0
3, 42164, Note_on_c, 0, 61, 50
3, 42164, Note_on_c, 0, 65, 54
3, 42167, Note_on_c, 0, 53, 40
3, 42168, Note_on_c, 0, 69, 0
3, 42173, Note_on_c, 0, 65, 0
3, 42178, Note_on_c, 0, 61, 0
3, 42182, Note_on_c, 0, 46, 0
3, 42185, Note_on_c, 0, 53, 0
3, 42202, Note_on_c, 0, 53, 35
3, 42203, Note_on_c, 0, 46, 46
3, 42219, Note_on_c, 0, 46, 0
3, 42224, Note_on_c, 0, 53, 0
3, 42239, Note_on_c, 0, 46, 46
3, 42239, Note_on_c, 0, 65, 56
3, 42240, Note_on_c, 0, 53, 47
3, 42241, Note_on_c, 0, 62, 51
3, 42241, Note_on_c, 0, 60, 58
3, 42241, Control_c, 0, 64, 0
3, 42242, Note_on_c, 0, 57, 49
3, 42279, Control_c, 0, 64, 127
3, 42306, Note_on_c, 0, 53, 0
3, 42334, Note_on_c, 0, 57, 0
3, 42340, Note_on_c, 0, 60, 0
3, 42344, Note_on_c, 0, 65, 0
3, 42350, Note_on_c, 0, 62, 0
3, 42362, Control_c, 0, 64, 0
3, 42363, Note_on_c, 0, 52, 44
3, 42364, Note_on_c, 0, 57, 38
3, 42367, Note_on_c, 0, 64, 44
3, 42367, Note_on_c, 0, 60, 28
3, 42386, Control_c, 0, 64, 127
3, 42396, Note_on_c, 0, 52, 0
3, 42403, Note_on_c, 0, 57, 0
3, 42404, Note_on_c, 0, 60, 0
3, 42414, Note_on_c, 0, 64, 0
3, 42429, Note_on_c, 0, 53, 42
3, 42461, Note_on_c, 0, 53, 0
3, 42477, Note_on_c, 0, 55, 59
3, 42477, Note_on_c, 0, 70, 59
3, 42477, Note_on_c, 0, 65, 62
3, 42478, Control_c, 0, 64, 0
3, 42479, Note_on_c, 0, 62, 55
3, 42509, Control_c, 0, 64, 127
3, 42538, Note_on_c, 0, 46, 0
3, 42595, Control_c, 0, 64, 0
3, 42596, Note_on_c, 0, 46, 42
3, 42608, Control_c, 0, 64, 127
3, 42617, Note_on_c, 0, 46, 0
3, 42620, Note_on_c, 0, 55, 0
3, 42665, Note_on_c, 0, 62, 0
3, 42683, Note_on_c, 0, 65, 0
3, 42717, Note_on_c, 0, 62, 49
3, 42720, Note_on_c, 0, 57, 41
3, 42721, Note_on_c, 0, 58, 37
3, 42722, Note_on_c, 0, 52, 27
3, 42724, Note_on_c, 0, 70, 0
3, 42725, Control_c, 0, 64, 0
3, 42751, Control_c, 0, 64, 127
3, 42769, Note_on_c, 0, 67, 40
3, 42790, Note_on_c, 0, 67, 0
3, 42798, Note_on_c, 0, 58, 0
3, 42805, Note_on_c, 0, 69, 54
3, 42807, Note_on_c, 0, 62, 0
3, 42809, Note_on_c, 0, 57, 0
3, 42819, Note_on_c, 0, 69, 0
3, 42835, Note_on_c, 0, 70, 63
3, 42840, Note_on_c, 0, 62, 38
3, 42842, Note_on_c, 0, 57, 26
3, 42844, Control_c, 0, 64, 0
3, 42849, Note_on_c, 0, 70, 0
3, 42868, Note_on_c, 0, 74, 60
3, 42878, Note_on_c, 0, 74, 0
3, 42891, Note_on_c, 0, 52, 0
3, 42893, Note_on_c, 0, 57, 0
3, 42896, Note_on_c, 0, 78, 75
3, 42911, Control_c, 0, 64, 127
3, 42913, Note_on_c, 0, 62, 0
3, 42914, Note_on_c, 0, 78, 0
3, 42929, Note_on_c, 0, 81, 88
3, 42954, Note_on_c, 0, 81, 0
3, 42960, Note_on_c, 0, 78, 69
3, 42962, Control_c, 0, 64, 0
3, 42962, Note_on_c, 0, 65, 49
3, 42964, Note_on_c, 0, 61, 40
3, 42966, Note_on_c, 0, 55, 37
3, 42982, Note_on_c, 0, 78, 0
3, 42991, Note_on_c, 0, 79, 53
3, 43013, Note_on_c, 0, 79, 0
3, 43022, Note_on_c, 0, 81, 46
3, 43036, Note_on_c, 0, 65, 0
3, 43038, Note_on_c, 0, 81, 0
3, 43045, Note_on_c, 0, 55, 0
3, 43047, Control_c, 0, 64, 127
3, 43053, Note_on_c, 0, 61, 0
3, 43056, Note_on_c, 0, 82, 48
3, 43064, Note_on_c, 0, 82, 0
3, 43094, Note_on_c, 0, 66, 50
3, 43096, Note_on_c, 0, 61, 39
3, 43097, Control_c, 0, 64, 0
3, 43101, Note_on_c, 0, 55, 34
3, 43102, Note_on_c, 0, 83, 67
3, 43114, Note_on_c, 0, 66, 0
3, 43121, Note_on_c, 0, 83, 0
3, 43121, Note_on_c, 0, 84, 27
3, 43128, Note_on_c, 0, 85, 65
3, 43135, Note_on_c, 0, 84, 0
3, 43135, Note_on_c, 0, 55, 0
3, 43155, Note_on_c, 0, 61, 0
3, 43165, Note_on_c, 0, 85, 0
3, 43178, Note_on_c, 0, 81, 60
3, 43182, Note_on_c, 0, 66, 35
3, 43184, Note_on_c, 0, 61, 35
3, 43190, Note_on_c, 0, 82, 55
3, 43190, Note_on_c, 0, 55, 20
3, 43200, Note_on_c, 0, 81, 0
3, 43202, Note_on_c, 0, 66, 0
3, 43208, Note_on_c, 0, 55, 0
3, 43211, Note_on_c, 0, 83, 46
3, 43217, Note_on_c, 0, 82, 0
3, 43222, Note_on_c, 0, 83, 0
3, 43225, Note_on_c, 0, 84, 60
3, 43227, Control_c, 0, 64, 127
3, 43231, Note_on_c, 0, 61, 0
3, 43240, Control_c, 0, 64, 0
3, 43246, Note_on_c, 0, 84, 0
3, 43248, Note_on_c, 0, 81, 63
3, 43282, Note_on_c, 0, 81, 0
3, 43287, Note_on_c, 0, 77, 57
3, 43316, Note_on_c, 0, 77, 0
3, 43326, Note_on_c, 0, 79, 62
3, 43355, Note_on_c, 0, 79, 0
3, 43359, Note_on_c, 0, 75, 68
3, 43384, Note_on_c, 0, 75, 0
3, 43392, Note_on_c, 0, 72, 45
3, 43404, Control_c, 0, 64, 127
3, 43407, Note_on_c, 0, 72, 0
3, 43420, Note_on_c, 0, 77, 67
3, 43424, Control_c, 0, 64, 0
3, 43424, Note_on_c, 0, 65, 50
3, 43427, Note_on_c, 0, 54, 32
3, 43430, Note_on_c, 0, 60, 35
3, 43455, Control_c, 0, 64, 127
3, 43461, Note_on_c, 0, 65, 0
3, 43483, Note_on_c, 0, 60, 0
3, 43483, Note_on_c, 0, 65, 64
3, 43493, Note_on_c, 0, 54, 0
3, 43535, Note_on_c, 0, 77, 0
3, 43550, Note_on_c, 0, 65, 0
3, 43552, Note_on_c, 0, 54, 39
3, 43552, Note_on_c, 0, 44, 55
3, 43619, Note_on_c, 0, 54, 0
3, 43641, Note_on_c, 0, 50, 26
3, 43645, Note_on_c, 0, 44, 0
3, 43663, Note_on_c, 0, 50, 0
3, 43676, Note_on_c, 0, 53, 53
3, 43677, Note_on_c, 0, 43, 45
3, 43679, Note_on_c, 0, 57, 44
3, 43679, Note_on_c, 0, 59, 49
3, 43680, Note_on_c, 0, 64, 24
3, 43682, Control_c, 0, 64, 0
3, 43692, Note_on_c, 0, 53, 0
3, 43703, Note_on_c, 0, 57, 0
3, 43706, Note_on_c, 0, 64, 0
3, 43706, Note_on_c, 0, 59, 0
3, 43710, Note_on_c, 0, 53, 36
3, 43725, Note_on_c, 0, 53, 0
3, 43729, Note_on_c, 0, 57, 28
3, 43744, Note_on_c, 0, 57, 0
3, 43747, Note_on_c, 0, 53, 39
3, 43756, Control_c, 0, 64, 127
3, 43764, Note_on_c, 0, 53, 0
3, 43767, Note_on_c, 0, 57, 34
3, 43769, Note_on_c, 0, 59, 38
3, 43779, Note_on_c, 0, 59, 0
3, 43782, Note_on_c, 0, 57, 0
3, 43784, Note_on_c, 0, 53, 34
3, 43789, Control_c, 0, 64, 0
3, 43800, Note_on_c, 0, 53, 0
3, 43803, Note_on_c, 0, 57, 35
3, 43808, Note_on_c, 0, 59, 30
3, 43816, Note_on_c, 0, 59, 0
3, 43819, Note_on_c, 0, 57, 0
3, 43820, Note_on_c, 0, 53, 35
3, 43837, Note_on_c, 0, 53, 0
3, 43840, Note_on_c, 0, 57, 36
3, 43843, Note_on_c, 0, 59, 34
3, 43852, Note_on_c, 0, 59, 0
3, 43856, Note_on_c, 0, 57, 0
3, 43856, Note_on_c, 0, 53, 44
3, 43859, Control_c, 0, 64, 127
3, 43872, Note_on_c, 0, 43, 0
3, 43874, Note_on_c, 0, 53, 0
3, 43874, Note_on_c, 0, 57, 34
3, 43875, Note_on_c, 0, 59, 40
3, 43879, Note_on_c, 0, 50, 29
3, 43880, Note_on_c, 0, 52, 60
3, 43886, Note_on_c, 0, 59, 0
3, 43887, Note_on_c, 0, 57, 0
3, 43887, Note_on_c, 0, 50, 0
3, 43892, Note_on_c, 0, 53, 42
3, 43899, Control_c, 0, 64, 0
3, 43906, Note_on_c, 0, 53, 0
3, 43908, Control_c, 0, 64, 127
3, 43910, Note_on_c, 0, 59, 35
3, 43919, Note_on_c, 0, 59, 0
3, 43923, Note_on_c, 0, 52, 0
3, 43932, Note_on_c, 0, 46, 34
3, 43934, Note_on_c, 0, 53, 12
3, 43938, Control_c, 0, 64, 0
3, 43939, Note_on_c, 0, 64, 1
3, 43941, Note_on_c, 0, 58, 52
3, 43941, Note_on_c, 0, 62, 44
3, 43945, Note_on_c, 0, 46, 0
3, 43946, Note_on_c, 0, 48, 61
3, 43980, Control_c, 0, 64, 127
3, 43988, Note_on_c, 0, 62, 0
3, 44020, Note_on_c, 0, 53, 0
3, 44042, Note_on_c, 0, 58, 0
3, 44049, Note_on_c, 0, 64, 0
3, 44054, Note_on_c, 0, 36, 57
3, 44061, Note_on_c, 0, 48, 0
3, 44064, Note_on_c, 0, 36, 0
3, 44090, Control_c, 0, 64, 0
3, 44122, Control_c, 0, 64, 127
3, 44131, Note_on_c, 0, 73, 51
3, 44133, Note_on_c, 0, 58, 51
3, 44133, Note_on_c, 0, 63, 60
3, 44134, Note_on_c, 0, 68, 61
3, 44153, Note_on_c, 0, 58, 0
3, 44155, Note_on_c, 0, 73, 0
3, 44155, Note_on_c, 0, 63, 0
3, 44162, Note_on_c, 0, 68, 0
3, 44166, Control_c, 0, 64, 0
3, 44176, Note_on_c, 0, 72, 46
3, 44178, Note_on_c, 0, 67, 49
3, 44180, Note_on_c, 0, 57, 38
3, 44180, Note_on_c, 0, 62, 34
3, 44205, Control_c, 0, 64, 127
3, 44257, Note_on_c, 0, 67, 0
3, 44275, Note_on_c, 0, 62, 0
3, 44279, Note_on_c, 0, 72, 0
3, 44288, Control_c, 0, 64, 0
3, 44321, Control_c, 0, 64, 127
3, 44357, Note_on_c, 0, 71, 60
3, 44358, Note_on_c, 0, 61, 58
3, 44360, Note_on_c, 0, 66, 45
3, 44362, Note_on_c, 0, 57, 0
3, 44362, Note_on_c, 0, 56, 42
3, 44377, Note_on_c, 0, 61, 0
3, 44385, Note_on_c, 0, 66, 0
3, 44386, Note_on_c, 0, 71, 0
3, 44386, Control_c, 0, 64, 0
3, 44399, Note_on_c, 0, 56, 0
3, 44400, Note_on_c, 0, 72, 52
3, 44402, Note_on_c, 0, 62, 40
3, 44404, Note_on_c, 0, 67, 47
3, 44405, Note_on_c, 0, 57, 46
3, 44409, Control_c, 0, 64, 127
3, 44410, Note_on_c, 0, 71, 20
3, 44431, Note_on_c, 0, 62, 0
3, 44442, Note_on_c, 0, 72, 0
3, 44452, Note_on_c, 0, 67, 0
3, 44456, Note_on_c, 0, 71, 0
3, 44507, Note_on_c, 0, 57, 0
3, 44512, Control_c, 0, 64, 0
3, 44515, Note_on_c, 0, 74, 57
3, 44517, Note_on_c, 0, 58, 36
3, 44517, Note_on_c, 0, 70, 36
3, 44519, Note_on_c, 0, 67, 35
3, 44521, Note_on_c, 0, 64, 20
3, 44536, Control_c, 0, 64, 127
3, 44562, Note_on_c, 0, 64, 0
3, 44563, Note_on_c, 0, 67, 0
3, 44570, Note_on_c, 0, 74, 0
3, 44575, Note_on_c, 0, 70, 0
3, 44630, Control_c, 0, 64, 0
3, 44632, Note_on_c, 0, 76, 63
3, 44634, Note_on_c, 0, 70, 53
3, 44634, Note_on_c, 0, 67, 54
3, 44634, Note_on_c, 0, 60, 45
3, 44645, Note_on_c, 0, 58, 0
3, 44653, Control_c, 0, 64, 127
3, 44694, Note_on_c, 0, 76, 0
3, 44695, Note_on_c, 0, 70, 0
3, 44717, Note_on_c, 0, 67, 0
3, 44751, Note_on_c, 0, 60, 0
3, 44753, Note_on_c, 0, 62, 51
3, 44753, Note_on_c, 0, 77, 54
3, 44754, Note_on_c, 0, 74, 52
3, 44754, Note_on_c, 0, 70, 49
3, 44756, Note_on_c, 0, 67, 52
3, 44756, Control_c, 0, 64, 0
3, 44774, Control_c, 0, 64, 127
3, 44804, Note_on_c, 0, 70, 0
3, 44805, Note_on_c, 0, 74, 0
3, 44806, Note_on_c, 0, 67, 0
3, 44819, Note_on_c, 0, 77, 0
3, 44865, Note_on_c, 0, 62, 0
3, 44872, Control_c, 0, 64, 0
3, 44874, Note_on_c, 0, 78, 53
3, 44875, Note_on_c, 0, 74, 56
3, 44875, Note_on_c, 0, 63, 55
3, 44876, Note_on_c, 0, 69, 57
3, 44888, Control_c, 0, 64, 127
3, 44926, Note_on_c, 0, 63, 0
3, 44936, Note_on_c, 0, 74, 0
3, 44939, Note_on_c, 0, 69, 0
3, 44948, Note_on_c, 0, 78, 0
3, 44993, Control_c, 0, 64, 0
3, 44993, Note_on_c, 0, 79, 47
3, 44994, Note_on_c, 0, 70, 52
3, 44995, Note_on_c, 0, 64, 35
3, 44997, Note_on_c, 0, 73, 28
3, 45003, Control_c, 0, 64, 127
3, 45030, Note_on_c, 0, 64, 0
3, 45031, Note_on_c, 0, 79, 0
3, 45038, Note_on_c, 0, 70, 0
3, 45040, Note_on_c, 0, 73, 0
3, 45110, Control_c, 0, 64, 0
3, 45112, Note_on_c, 0, 81, 58
3, 45112, Note_on_c, 0, 76, 50
3, 45114, Note_on_c, 0, 63, 38
3, 45114, Note_on_c, 0, 67, 44
3, 45116, Note_on_c, 0, 72, 37
3, 45119, Note_on_c, 0, 57, 32
3, 45126, Control_c, 0, 64, 127
3, 45134, Note_on_c, 0, 67, 0
3, 45145, Note_on_c, 0, 63, 0
3, 45146, Note_on_c, 0, 57, 0
3, 45152, Note_on_c, 0, 76, 0
3, 45154, Note_on_c, 0, 72, 0
3, 45161, Note_on_c, 0, 81, 0
3, 45230, Note_on_c, 0, 48, 48
3, 45233, Note_on_c, 0, 82, 48
3, 45234, Note_on_c, 0, 74, 39
3, 45237, Note_on_c, 0, 77, 44
3, 45238, Control_c, 0, 64, 0
3, 45256, Control_c, 0, 64, 127
3, 45273, Note_on_c, 0, 74, 0
3, 45278, Note_on_c, 0, 82, 0
3, 45281, Note_on_c, 0, 77, 0
3, 45318, Note_on_c, 0, 48, 0
3, 45318, Note_on_c, 0, 83, 41
3, 45319, Note_on_c, 0, 71, 44
3, 45322, Note_on_c, 0, 76, 50
3, 45341, Control_c, 0, 64, 0
3, 45349, Note_on_c, 0, 71, 0
3, 45349, Note_on_c, 0, 41, 29
3, 45350, Note_on_c, 0, 57, 47
3, 45354, Note_on_c, 0, 76, 0
3, 45361, Control_c, 0, 64, 127
3, 45365, Note_on_c, 0, 83, 0
3, 45372, Note_on_c, 0, 41, 0
3, 45389, Note_on_c, 0, 57, 0
3, 45429, Note_on_c, 0, 84, 53
3, 45429, Note_on_c, 0, 72, 45
3, 45430, Note_on_c, 0, 77, 48
3, 45434, Note_on_c, 0, 81, 32
3, 45438, Note_on_c, 0, 72, 0
3, 45443, Note_on_c, 0, 81, 0
3, 45445, Note_on_c, 0, 77, 0
3, 45450, Note_on_c, 0, 84, 0
3, 45453, Control_c, 0, 64, 0
3, 45458, Note_on_c, 0, 54, 46
3, 45458, Note_on_c, 0, 44, 57
3, 45467, Control_c, 0, 64, 127
3, 45544, Note_on_c, 0, 85, 69
3, 45546, Note_on_c, 0, 54, 0
3, 45546, Note_on_c, 0, 81, 58
3, 45548, Note_on_c, 0, 76, 51
3, 45555, Note_on_c, 0, 44, 0
3, 45563, Control_c, 0, 64, 0
3, 45579, Note_on_c, 0, 43, 40
3, 45584, Note_on_c, 0, 53, 33
3, 45585, Control_c, 0, 64, 127
3, 45599, Note_on_c, 0, 43, 0
3, 45606, Note_on_c, 0, 53, 0
3, 45636, Note_on_c, 0, 81, 0
3, 45638, Note_on_c, 0, 76, 0
3, 45647, Note_on_c, 0, 85, 0
3, 45674, Note_on_c, 0, 88, 82
3, 45675, Note_on_c, 0, 81, 84
3, 45698, Control_c, 0, 64, 0
3, 45703, Note_on_c, 0, 88, 0
3, 45707, Note_on_c, 0, 81, 0
3, 45708, Note_on_c, 0, 53, 28
3, 45710, Note_on_c, 0, 59, 33
3, 45710, Note_on_c, 0, 64, 19
3, 45713, Control_c, 0, 64, 127
3, 45714, Note_on_c, 0, 85, 55
3, 45718, Note_on_c, 0, 76, 36
3, 45742, Note_on_c, 0, 85, 0
3, 45757, Note_on_c, 0, 76, 0
3, 45766, Note_on_c, 0, 59, 0
3, 45772, Note_on_c, 0, 53, 0
3, 45779, Note_on_c, 0, 64, 0
3, 45788, Note_on_c, 0, 73, 50
3, 45788, Note_on_c, 0, 81, 65
3, 45818, Note_on_c, 0, 81, 0
3, 45821, Control_c, 0, 64, 0
3, 45825, Note_on_c, 0, 54, 32
3, 45828, Note_on_c, 0, 65, 24
3, 45831, Note_on_c, 0, 69, 47
3, 45831, Note_on_c, 0, 76, 24
3, 45832, Note_on_c, 0, 60, 34
3, 45844, Note_on_c, 0, 73, 0
3, 45846, Control_c, 0, 64, 127
3, 45849, Note_on_c, 0, 76, 0
3, 45858, Note_on_c, 0, 65, 0
3, 45866, Note_on_c, 0, 60, 0
3, 45874, Note_on_c, 0, 69, 0
3, 45894, Note_on_c, 0, 54, 0
3, 45906, Note_on_c, 0, 73, 52
3, 45908, Note_on_c, 0, 69, 62
3, 45934, Note_on_c, 0, 69, 0
3, 45944, Note_on_c, 0, 64, 24
3, 45949, Note_on_c, 0, 73, 0
3, 45949, Note_on_c, 0, 59, 39
3, 45951, Note_on_c, 0, 53, 31
3, 45955, Control_c, 0, 64, 0
3, 45960, Note_on_c, 0, 59, 0
3, 45969, Control_c, 0, 64, 127
3, 45972, Note_on_c, 0, 53, 0
3, 46007, Note_on_c, 0, 64, 0
3, 46029, Note_on_c, 0, 44, 36
3, 46029, Note_on_c, 0, 54, 30
3, 46049, Note_on_c, 0, 54, 0
3, 46053, Note_on_c, 0, 44, 0
3, 46073, Note_on_c, 0, 53, 57
3, 46074, Note_on_c, 0, 62, 48
3, 46077, Note_on_c, 0, 69, 29
3, 46077, Control_c, 0, 64, 0
3, 46088, Note_on_c, 0, 62, 0
3, 46090, Note_on_c, 0, 53, 0
3, 46097, Note_on_c, 0, 69, 0
3, 46149, Note_on_c, 0, 69, 61
3, 46151, Note_on_c, 0, 48, 40
3, 46151, Note_on_c, 0, 64, 50
3, 46153, Note_on_c, 0, 60, 44
3, 46153, Control_c, 0, 64, 127
3, 46165, Note_on_c, 0, 57, 14
3, 46171, Note_on_c, 0, 60, 0
3, 46174, Note_on_c, 0, 64, 0
3, 46176, Note_on_c, 0, 69, 0
3, 46184, Control_c, 0, 64, 0
3, 46194, Note_on_c, 0, 57, 0
3, 46198, Note_on_c, 0, 68, 34
3, 46199, Note_on_c, 0, 56, 35
3, 46199, Note_on_c, 0, 60, 28
3, 46201, Note_on_c, 0, 64, 34
3, 46211, Note_on_c, 0, 60, 0
3, 46214, Note_on_c, 0, 64, 0
3, 46220, Note_on_c, 0, 48, 0
3, 46222, Note_on_c, 0, 56, 0
3, 46225, Note_on_c, 0, 68, 0
3, 46263, Control_c, 0, 64, 127
3, 46273, Note_on_c, 0, 68, 49
3, 46277, Note_on_c, 0, 56, 45
3, 46278, Note_on_c, 0, 48, 53
3, 46280, Note_on_c, 0, 60, 42
3, 46280, Note_on_c, 0, 64, 35
3, 46291, Note_on_c, 0, 60, 0
3, 46295, Note_on_c, 0, 64, 0
3, 46301, Control_c, 0, 64, 0
3, 46305, Note_on_c, 0, 68, 0
3, 46310, Note_on_c, 0, 56, 0
3, 46319, Note_on_c, 0, 69, 59
3, 46320, Note_on_c, 0, 57, 49
3, 46322, Note_on_c, 0, 64, 51
3, 46323, Note_on_c, 0, 60, 35
3, 46335, Control_c, 0, 64, 127
3, 46355, Note_on_c, 0, 60, 0
3, 46359, Note_on_c, 0, 57, 0
3, 46360, Note_on_c, 0, 64, 0
3, 46363, Note_on_c, 0, 69, 0
3, 46369, Note_on_c, 0, 48, 0
3, 46395, Note_on_c, 0, 69, 61
3, 46398, Note_on_c, 0, 48, 36
3, 46399, Note_on_c, 0, 64, 51
3, 46401, Note_on_c, 0, 60, 48
3, 46401, Note_on_c, 0, 57, 31
3, 46410, Note_on_c, 0, 57, 0
3, 46410, Note_on_c, 0, 69, 0
3, 46415, Note_on_c, 0, 48, 0
3, 46415, Note_on_c, 0, 60, 0
3, 46423, Note_on_c, 0, 64, 0
3, 46437, Control_c, 0, 64, 0
3, 46441, Note_on_c, 0, 64, 55
3, 46441, Note_on_c, 0, 70, 62
3, 46443, Note_on_c, 0, 58, 43
3, 46443, Note_on_c, 0, 49, 45
3, 46444, Note_on_c, 0, 60, 44
3, 46449, Control_c, 0, 64, 127
3, 46479, Note_on_c, 0, 49, 0
3, 46480, Note_on_c, 0, 64, 0
3, 46483, Note_on_c, 0, 58, 0
3, 46488, Note_on_c, 0, 60, 0
3, 46496, Note_on_c, 0, 70, 0
3, 46554, Control_c, 0, 64, 0
3, 46559, Note_on_c, 0, 45, 65
3, 46560, Note_on_c, 0, 72, 63
3, 46562, Note_on_c, 0, 69, 51
3, 46562, Note_on_c, 0, 60, 69
3, 46562, Note_on_c, 0, 65, 64
3, 46562, Note_on_c, 0, 55, 42
3, 46569, Note_on_c, 0, 71, 31
3, 46577, Control_c, 0, 64, 127
3, 46596, Note_on_c, 0, 45, 0
3, 46606, Note_on_c, 0, 60, 0
3, 46607, Note_on_c, 0, 55, 0
3, 46608, Note_on_c, 0, 65, 0
3, 46616, Note_on_c, 0, 69, 0
3, 46619, Note_on_c, 0, 72, 0
3, 46624, Note_on_c, 0, 71, 0
3, 46677, Note_on_c, 0, 74, 68
3, 46679, Note_on_c, 0, 69, 62
3, 46680, Note_on_c, 0, 62, 69
3, 46681, Note_on_c, 0, 61, 70
3, 46681, Note_on_c, 0, 65, 57
3, 46682, Note_on_c, 0, 67, 59
3, 46683, Note_on_c, 0, 51, 49
3, 46686, Control_c, 0, 64, 0
3, 46688, Note_on_c, 0, 67, 0
3, 46707, Control_c, 0, 64, 127
3, 46734, Note_on_c, 0, 65, 0
3, 46735, Note_on_c, 0, 62, 0
3, 46739, Note_on_c, 0, 61, 0
3, 46741, Note_on_c, 0, 69, 0
3, 46743, Note_on_c, 0, 74, 0
3, 46744, Note_on_c, 0, 51, 0
3, 46801, Control_c, 0, 64, 0
3, 46802, Note_on_c, 0, 75, 51
3, 46802, Note_on_c, 0, 50, 60
3, 46803, Note_on_c, 0, 60, 60
3, 46804, Note_on_c, 0, 63, 55
3, 46804, Note_on_c, 0, 68, 57
3, 46804, Note_on_c, 0, 54, 38
3, 46805, Note_on_c, 0, 72, 50
3, 46825, Control_c, 0, 64, 127
3, 46853, Note_on_c, 0, 60, 0
3, 46859, Note_on_c, 0, 50, 0
3, 46861, Note_on_c, 0, 68, 0
3, 46861, Note_on_c, 0, 72, 0
3, 46865, Note_on_c, 0, 54, 0
3, 46869, Note_on_c, 0, 63, 0
3, 46880, Note_on_c, 0, 75, 0
3, 46921, Note_on_c, 0, 54, 60
3, 46921, Note_on_c, 0, 72, 59
3, 46922, Note_on_c, 0, 76, 45
3, 46922, Note_on_c, 0, 44, 56
3, 46923, Note_on_c, 0, 64, 63
3, 46924, Control_c, 0, 64, 0
3, 46946, Control_c, 0, 64, 127
3, 46961, Note_on_c, 0, 64, 0
3, 46973, Note_on_c, 0, 72, 0
3, 46983, Note_on_c, 0, 54, 0
3, 46986, Note_on_c, 0, 44, 0
3, 46987, Note_on_c, 0, 76, 0
3, 47006, Note_on_c, 0, 50, 37
3, 47025, Note_on_c, 0, 50, 0
3, 47036, Control_c, 0, 64, 0
3, 47041, Note_on_c, 0, 77, 61
3, 47041, Note_on_c, 0, 43, 51
3, 47042, Note_on_c, 0, 72, 64
3, 47044, Note_on_c, 0, 65, 55
3, 47045, Note_on_c, 0, 55, 47
3, 47056, Control_c, 0, 64, 127
3, 47060, Note_on_c, 0, 43, 0
3, 47061, Note_on_c, 0, 65, 0
3, 47067, Note_on_c, 0, 55, 0
3, 47074, Note_on_c, 0, 72, 0
3, 47086, Note_on_c, 0, 77, 0
3, 47154, Note_on_c, 0, 86, 83
3, 47156, Note_on_c, 0, 74, 79
3, 47156, Note_on_c, 0, 79, 72
3, 47157, Note_on_c, 0, 65, 71
3, 47158, Note_on_c, 0, 55, 64
3, 47158, Note_on_c, 0, 57, 53
3, 47158, Note_on_c, 0, 60, 61
3, 47161, Control_c, 0, 64, 0
3, 47188, Control_c, 0, 64, 127
3, 47220, Note_on_c, 0, 60, 0
3, 47223, Note_on_c, 0, 65, 0
3, 47224, Note_on_c, 0, 57, 0
3, 47225, Note_on_c, 0, 55, 0
3, 47275, Note_on_c, 0, 53, 91
3, 47276, Note_on_c, 0, 64, 91
3, 47276, Note_on_c, 0, 59, 83
3, 47280, Control_c, 0, 64, 0
3, 47307, Control_c, 0, 64, 127
3, 47308, Note_on_c, 0, 86, 0
3, 47309, Note_on_c, 0, 79, 0
3, 47330, Note_on_c, 0, 74, 0
3, 47394, Note_on_c, 0, 77, 95
3, 47430, Note_on_c, 0, 64, 0
3, 47431, Note_on_c, 0, 53, 0
3, 47434, Note_on_c, 0, 77, 0
3, 47435, Note_on_c, 0, 59, 0
3, 47512, Control_c, 0, 64, 0
3, 47515, Note_on_c, 0, 73, 44
3, 47515, Note_on_c, 0, 76, 63
3, 47516, Note_on_c, 0, 64, 74
3, 47518, Note_on_c, 0, 58, 60
3, 47522, Note_on_c, 0, 74, 33
3, 47531, Note_on_c, 0, 74, 0
3, 47536, Control_c, 0, 64, 127
3, 47541, Note_on_c, 0, 64, 0
3, 47553, Note_on_c, 0, 73, 0
3, 47557, Note_on_c, 0, 76, 0
3, 47586, Note_on_c, 0, 64, 48
3, 47591, Note_on_c, 0, 88, 80
3, 47595, Note_on_c, 0, 82, 51
3, 47601, Note_on_c, 0, 82, 0
3, 47618, Note_on_c, 0, 64, 0
3, 47629, Note_on_c, 0, 88, 0
3, 47636, Note_on_c, 0, 58, 0
3, 47646, Note_on_c, 0, 85, 65
3, 47646, Note_on_c, 0, 76, 45
3, 47665, Note_on_c, 0, 85, 0
3, 47674, Note_on_c, 0, 76, 0
3, 47699, Note_on_c, 0, 36, 58
3, 47707, Note_on_c, 0, 36, 0
3, 47757, Note_on_c, 0, 58, 44
3, 47759, Note_on_c, 0, 73, 44
3, 47761, Note_on_c, 0, 69, 57
3, 47763, Note_on_c, 0, 64, 47
3, 47831, Note_on_c, 0, 58, 0
3, 47832, Note_on_c, 0, 64, 0
3, 47835, Note_on_c, 0, 69, 0
3, 47850, Note_on_c, 0, 73, 0
3, 47875, Note_on_c, 0, 73, 30
3, 47880, Note_on_c, 0, 58, 39
3, 47881, Note_on_c, 0, 69, 32
3, 47882, Note_on_c, 0, 64, 30
3, 47913, Note_on_c, 0, 69, 0
3, 47922, Note_on_c, 0, 73, 0
3, 47930, Note_on_c, 0, 58, 0
3, 47930, Note_on_c, 0, 64, 0
3, 47997, Note_on_c, 0, 67, 49
3, 47997, Note_on_c, 0, 62, 31
3, 47998, Note_on_c, 0, 72, 34
3, 48000, Note_on_c, 0, 57, 41
3, 48007, Control_c, 0, 64, 0
3, 48010, Note_on_c, 0, 62, 0
3, 48013, Note_on_c, 0, 67, 0
3, 48013, Note_on_c, 0, 72, 0
3, 48013, Note_on_c, 0, 57, 0
3, 48059, Note_on_c, 0, 72, 48
3, 48062, Note_on_c, 0, 62, 36
3, 48064, Note_on_c, 0, 67, 41
3, 48066, Note_on_c, 0, 57, 22
3, 48077, Note_on_c, 0, 62, 0
3, 48078, Note_on_c, 0, 67, 0
3, 48081, Note_on_c, 0, 72, 0
3, 48084, Note_on_c, 0, 57, 0
3, 48097, Note_on_c, 0, 56, 33
3, 48100, Note_on_c, 0, 71, 37
3, 48117, Note_on_c, 0, 71, 0
3, 48123, Note_on_c, 0, 56, 0
3, 48126, Note_on_c, 0, 72, 37
3, 48126, Note_on_c, 0, 62, 33
3, 48129, Note_on_c, 0, 67, 35
3, 48130, Note_on_c, 0, 57, 32
3, 48139, Note_on_c, 0, 67, 0
3, 48139, Note_on_c, 0, 62, 0
3, 48143, Note_on_c, 0, 57, 0
3, 48144, Note_on_c, 0, 72, 0
3, 48184, Note_on_c, 0, 72, 46
3, 48187, Note_on_c, 0, 62, 34
3, 48189, Note_on_c, 0, 57, 30
3, 48190, Note_on_c, 0, 67, 40
3, 48204, Note_on_c, 0, 62, 0
3, 48205, Note_on_c, 0, 67, 0
3, 48206, Note_on_c, 0, 72, 0
3, 48211, Note_on_c, 0, 57, 0
3, 48222, Note_on_c, 0, 71, 38
3, 48223, Note_on_c, 0, 56, 27
3, 48240, Note_on_c, 0, 71, 0
3, 48247, Note_on_c, 0, 56, 0
3, 48247, Note_on_c, 0, 72, 37
3, 48248, Note_on_c, 0, 62, 33
3, 48251, Note_on_c, 0, 57, 32
3, 48254, Note_on_c, 0, 67, 24
3, 48261, Note_on_c, 0, 67, 0
3, 48263, Note_on_c, 0, 62, 0
3, 48265, Note_on_c, 0, 57, 0
3, 48268, Note_on_c, 0, 72, 0
3, 48303, Note_on_c, 0, 72, 49
3, 48309, Note_on_c, 0, 62, 26
3, 48309, Note_on_c, 0, 57, 24
3, 48312, Note_on_c, 0, 67, 32
3, 48321, Note_on_c, 0, 57, 0
3, 48322, Note_on_c, 0, 67, 0
3, 48324, Note_on_c, 0, 72, 0
3, 48325, Note_on_c, 0, 62, 0
3, 48337, Note_on_c, 0, 71, 44
3, 48339, Note_on_c, 0, 56, 25
3, 48357, Note_on_c, 0, 71, 0
3, 48361, Note_on_c, 0, 56, 0
3, 48364, Control_c, 0, 64, 127
3, 48368, Note_on_c, 0, 57, 29
3, 48371, Note_on_c, 0, 72, 25
3, 48377, Note_on_c, 0, 71, 32
3, 48382, Note_on_c, 0, 72, 0
3, 48386, Note_on_c, 0, 71, 0
3, 48404, Note_on_c, 0, 77, 62
3, 48447, Note_on_c, 0, 77, 0
3, 48468, Note_on_c, 0, 57, 0
3, 48492, Note_on_c, 0, 70, 64
3, 48493, Note_on_c, 0, 62, 49
3, 48497, Note_on_c, 0, 65, 30
3, 48498, Control_c, 0, 64, 0
3, 48499, Note_on_c, 0, 57, 36
3, 48502, Note_on_c, 0, 62, 0
3, 48505, Note_on_c, 0, 65, 0
3, 48508, Note_on_c, 0, 57, 0
3, 48512, Note_on_c, 0, 70, 0
3, 48554, Control_c, 0, 64, 127
3, 48559, Note_on_c, 0, 70, 58
3, 48559, Note_on_c, 0, 62, 52
3, 48562, Note_on_c, 0, 57, 51
3, 48563, Note_on_c, 0, 65, 44
3, 48658, Note_on_c, 0, 62, 0
3, 48662, Note_on_c, 0, 57, 0
3, 48666, Note_on_c, 0, 65, 0
3, 48676, Note_on_c, 0, 57, 32
3, 48679, Note_on_c, 0, 70, 0
3, 48680, Note_on_c, 0, 69, 35
3, 48697, Note_on_c, 0, 57, 0
3, 48699, Note_on_c, 0, 69, 0
3, 48727, Note_on_c, 0, 70, 33
3, 48728, Note_on_c, 0, 48, 45
3, 48729, Note_on_c, 0, 65, 42
3, 48730, Note_on_c, 0, 62, 39
3, 48731, Note_on_c, 0, 58, 35
3, 48734, Control_c, 0, 64, 0
3, 48758, Control_c, 0, 64, 127
3, 48789, Note_on_c, 0, 58, 0
3, 48793, Note_on_c, 0, 65, 0
3, 48811, Note_on_c, 0, 62, 0
3, 48844, Note_on_c, 0, 58, 40
3, 48846, Note_on_c, 0, 62, 30
3, 48846, Note_on_c, 0, 65, 35
3, 48855, Note_on_c, 0, 58, 0
3, 48863, Note_on_c, 0, 48, 0
3, 48890, Note_on_c, 0, 65, 0
3, 48894, Note_on_c, 0, 70, 0
3, 48898, Note_on_c, 0, 62, 0
3, 48924, Note_on_c, 0, 48, 39
3, 48948, Note_on_c, 0, 48, 0
3, 48957, Control_c, 0, 64, 0
3, 48961, Note_on_c, 0, 64, 44
3, 48961, Note_on_c, 0, 60, 37
3, 48963, Note_on_c, 0, 41, 42
3, 48964, Note_on_c, 0, 50, 24
3, 48975, Control_c, 0, 64, 127
3, 48976, Note_on_c, 0, 60, 0
3, 48982, Note_on_c, 0, 41, 0
3, 48983, Note_on_c, 0, 64, 0
3, 48991, Note_on_c, 0, 50, 0
3, 49039, Note_on_c, 0, 81, 64
3, 49041, Note_on_c, 0, 69, 57
3, 49067, Note_on_c, 0, 81, 0
3, 49071, Note_on_c, 0, 69, 0
3, 49071, Note_on_c, 0, 62, 56
3, 49075, Note_on_c, 0, 53, 36
3, 49078, Note_on_c, 0, 62, 0
3, 49078, Note_on_c, 0, 60, 30
3, 49083, Control_c, 0, 64, 0
3, 49085, Note_on_c, 0, 60, 0
3, 49085, Note_on_c, 0, 80, 42
3, 49098, Note_on_c, 0, 53, 0
3, 49135, Note_on_c, 0, 80, 0
3, 49135, Control_c, 0, 64, 127
3, 49154, Note_on_c, 0, 81, 59
3, 49154, Note_on_c, 0, 69, 56
3, 49156, Note_on_c, 0, 78, 31
3, 49166, Control_c, 0, 64, 0
3, 49188, Note_on_c, 0, 36, 37
3, 49193, Control_c, 0, 64, 127
3, 49194, Note_on_c, 0, 48, 15
3, 49205, Note_on_c, 0, 36, 0
3, 49211, Note_on_c, 0, 48, 0
3, 49232, Note_on_c, 0, 81, 0
3, 49240, Note_on_c, 0, 69, 0
3, 49243, Note_on_c, 0, 78, 0
3, 49277, Note_on_c, 0, 82, 55
3, 49279, Note_on_c, 0, 70, 47
3, 49283, Note_on_c, 0, 75, 28
3, 49292, Note_on_c, 0, 75, 0
3, 49298, Note_on_c, 0, 70, 0
3, 49303, Note_on_c, 0, 82, 0
3, 49308, Control_c, 0, 64, 0
3, 49316, Note_on_c, 0, 65, 34
3, 49317, Note_on_c, 0, 54, 37
3, 49317, Note_on_c, 0, 83, 46
3, 49319, Note_on_c, 0, 71, 39
3, 49319, Note_on_c, 0, 60, 32
3, 49323, Note_on_c, 0, 76, 35
3, 49330, Control_c, 0, 64, 127
3, 49349, Note_on_c, 0, 83, 0
3, 49350, Note_on_c, 0, 76, 0
3, 49351, Note_on_c, 0, 65, 0
3, 49357, Note_on_c, 0, 60, 0
3, 49364, Note_on_c, 0, 71, 0
3, 49382, Note_on_c, 0, 54, 0
3, 49403, Note_on_c, 0, 55, 37
3, 49416, Note_on_c, 0, 55, 0
3, 49435, Control_c, 0, 64, 0
3, 49435, Note_on_c, 0, 70, 60
3, 49437, Note_on_c, 0, 65, 60
3, 49437, Note_on_c, 0, 72, 61
3, 49438, Note_on_c, 0, 55, 47
3, 49438, Note_on_c, 0, 62, 59
3, 49440, Note_on_c, 0, 58, 50
3, 49452, Note_on_c, 0, 62, 0
3, 49458, Control_c, 0, 64, 127
3, 49462, Note_on_c, 0, 55, 0
3, 49466, Note_on_c, 0, 58, 0
3, 49476, Note_on_c, 0, 72, 0
3, 49481, Note_on_c, 0, 70, 0
3, 49487, Note_on_c, 0, 65, 0
3, 49520, Note_on_c, 0, 43, 33
3, 49520, Note_on_c, 0, 41, 32
3, 49528, Note_on_c, 0, 41, 0
3, 49537, Note_on_c, 0, 43, 0
3, 49553, Note_on_c, 0, 60, 62
3, 49554, Note_on_c, 0, 58, 54
3, 49556, Note_on_c, 0, 53, 45
3, 49557, Note_on_c, 0, 50, 46
3, 49558, Control_c, 0, 64, 0
3, 49598, Note_on_c, 0, 50, 0
3, 49610, Control_c, 0, 64, 127
3, 49612, Note_on_c, 0, 53, 0
3, 49615, Note_on_c, 0, 58, 0
3, 49620, Note_on_c, 0, 60, 0
3, 49630, Note_on_c, 0, 62, 65
3, 49633, Note_on_c, 0, 43, 58
3, 49635, Note_on_c, 0, 58, 20
3, 49655, Note_on_c, 0, 58, 0
3, 49667, Note_on_c, 0, 62, 0
3, 49671, Note_on_c, 0, 43, 0
3, 49677, Control_c, 0, 64, 0
3, 49681, Note_on_c, 0, 61, 43
3, 49682, Note_on_c, 0, 36, 36
3, 49684, Note_on_c, 0, 64, 44
3, 49686, Note_on_c, 0, 48, 24
3, 49687, Note_on_c, 0, 58, 31
3, 49694, Note_on_c, 0, 55, 12
3, 49707, Note_on_c, 0, 36, 0
3, 49709, Control_c, 0, 64, 127
3, 49742, Note_on_c, 0, 64, 0
3, 49754, Note_on_c, 0, 48, 0
3, 49756, Note_on_c, 0, 55, 0
3, 49761, Note_on_c, 0, 61, 0
3, 49764, Note_on_c, 0, 58, 0
3, 49876, Note_on_c, 0, 70, 69
3, 49878, Note_on_c, 0, 61, 69
3, 49878, Note_on_c, 0, 56, 62
3, 49905, Note_on_c, 0, 61, 0
3, 49906, Note_on_c, 0, 70, 0
3, 49908, Note_on_c, 0, 56, 0
3, 49920, Control_c, 0, 64, 0
3, 49926, Note_on_c, 0, 69, 61
3, 49927, Note_on_c, 0, 64, 47
3, 49933, Note_on_c, 0, 57, 49
3, 49934, Note_on_c, 0, 60, 36
3, 49946, Control_c, 0, 64, 127
3, 49947, Note_on_c, 0, 60, 0
3, 49955, Note_on_c, 0, 64, 0
3, 49957, Note_on_c, 0, 69, 0
3, 49969, Note_on_c, 0, 57, 0
3, 49991, Control_c, 0, 64, 0
3, 49996, Control_c, 0, 64, 127
3, 50001, Note_on_c, 0, 73, 49
3, 50002, Note_on_c, 0, 58, 53
3, 50004, Note_on_c, 0, 68, 60
3, 50004, Note_on_c, 0, 63, 48
3, 50032, Note_on_c, 0, 58, 0
3, 50034, Note_on_c, 0, 68, 0
3, 50035, Note_on_c, 0, 73, 0
3, 50035, Note_on_c, 0, 63, 0
3, 50038, Control_c, 0, 64, 0
3, 50049, Note_on_c, 0, 72, 51
3, 50052, Note_on_c, 0, 67, 46
3, 50054, Note_on_c, 0, 57, 47
3, 50056, Note_on_c, 0, 62, 24
3, 50063, Control_c, 0, 64, 127
3, 50069, Note_on_c, 0, 62, 0
3, 50080, Note_on_c, 0, 57, 0
3, 50080, Note_on_c, 0, 67, 0
3, 50083, Note_on_c, 0, 72, 0
3, 50121, Note_on_c, 0, 61, 52
3, 50122, Note_on_c, 0, 74, 68
3, 50123, Control_c, 0, 64, 0
3, 50125, Note_on_c, 0, 65, 55
3, 50125, Note_on_c, 0, 68, 49
3, 50142, Control_c, 0, 64, 127
3, 50145, Note_on_c, 0, 61, 0
3, 50152, Note_on_c, 0, 65, 0
3, 50153, Note_on_c, 0, 74, 0
3, 50158, Note_on_c, 0, 68, 0
3, 50164, Control_c, 0, 64, 0
3, 50171, Note_on_c, 0, 72, 50
3, 50174, Note_on_c, 0, 67, 48
3, 50176, Note_on_c, 0, 64, 46
3, 50176, Note_on_c, 0, 58, 34
3, 50184, Control_c, 0, 64, 127
3, 50190, Note_on_c, 0, 67, 0
3, 50196, Note_on_c, 0, 72, 0
3, 50200, Note_on_c, 0, 64, 0
3, 50214, Note_on_c, 0, 58, 0
3, 50234, Note_on_c, 0, 57, 44
3, 50237, Note_on_c, 0, 66, 38
3, 50240, Note_on_c, 0, 69, 51
3, 50244, Note_on_c, 0, 68, 27
3, 50247, Note_on_c, 0, 60, 24
3, 50248, Note_on_c, 0, 62, 28
3, 50249, Note_on_c, 0, 66, 0
3, 50250, Note_on_c, 0, 68, 0
3, 50256, Note_on_c, 0, 62, 0
3, 50258, Note_on_c, 0, 69, 0
3, 50263, Note_on_c, 0, 60, 0
3, 50265, Note_on_c, 0, 57, 0
3, 50274, Control_c, 0, 64, 0
3, 50280, Note_on_c, 0, 53, 48
3, 50288, Note_on_c, 0, 60, 27
3, 50288, Note_on_c, 0, 65, 29
3, 50292, Note_on_c, 0, 62, 24
3, 50298, Control_c, 0, 64, 127
3, 50332, Note_on_c, 0, 60, 0
3, 50337, Note_on_c, 0, 62, 0
3, 50342, Note_on_c, 0, 53, 0
3, 50360, Note_on_c, 0, 50, 42
3, 50370, Note_on_c, 0, 50, 0
3, 50383, Note_on_c, 0, 65, 0
3, 50401, Note_on_c, 0, 53, 36
3, 50404, Note_on_c, 0, 59, 35
3, 50405, Note_on_c, 0, 43, 35
3, 50408, Control_c, 0, 64, 0
3, 50416, Note_on_c, 0, 59, 0
3, 50445, Note_on_c, 0, 57, 62
3, 50464, Note_on_c, 0, 57, 0
3, 50479, Note_on_c, 0, 59, 63
3, 50509, Note_on_c, 0, 59, 0
3, 50544, Note_on_c, 0, 62, 70
3, 50569, Note_on_c, 0, 62, 0
3, 50574, Note_on_c, 0, 59, 51
3, 50597, Note_on_c, 0, 59, 0
3, 50603, Note_on_c, 0, 60, 51
3, 50623, Note_on_c, 0, 60, 0
3, 50633, Note_on_c, 0, 64, 50
3, 50653, Note_on_c, 0, 60, 42
3, 50656, Note_on_c, 0, 64, 0
3, 50679, Note_on_c, 0, 61, 69
3, 50685, Note_on_c, 0, 60, 0
3, 50699, Note_on_c, 0, 61, 0
3, 50710, Note_on_c, 0, 65, 64
3, 50714, Note_on_c, 0, 53, 0
3, 50732, Note_on_c, 0, 65, 0
3, 50739, Note_on_c, 0, 62, 58
3, 50750, Note_on_c, 0, 53, 28
3, 50764, Note_on_c, 0, 62, 0
3, 50765, Note_on_c, 0, 63, 53
3, 50770, Note_on_c, 0, 43, 0
3, 50783, Note_on_c, 0, 53, 0
3, 50788, Note_on_c, 0, 63, 0
3, 50797, Note_on_c, 0, 64, 39
3, 50810, Control_c, 0, 64, 127
3, 50818, Note_on_c, 0, 64, 0
3, 50821, Note_on_c, 0, 65, 49
3, 50841, Note_on_c, 0, 65, 0
3, 50868, Note_on_c, 0, 72, 65
3, 50877, Control_c, 0, 64, 0
3, 50879, Note_on_c, 0, 58, 34
3, 50881, Note_on_c, 0, 62, 34
3, 50894, Note_on_c, 0, 62, 0
3, 50900, Note_on_c, 0, 69, 53
3, 50905, Note_on_c, 0, 58, 0
3, 50915, Note_on_c, 0, 72, 0
3, 50919, Control_c, 0, 64, 127
3, 50928, Note_on_c, 0, 69, 0
3, 50942, Note_on_c, 0, 62, 48
3, 50971, Note_on_c, 0, 62, 0
3, 50993, Note_on_c, 0, 58, 31
3, 50994, Note_on_c, 0, 50, 37
3, 50994, Note_on_c, 0, 53, 34
3, 50998, Control_c, 0, 64, 0
3, 51004, Note_on_c, 0, 53, 0
3, 51009, Note_on_c, 0, 50, 0
3, 51028, Note_on_c, 0, 58, 0
3, 51030, Note_on_c, 0, 57, 44
3, 51034, Control_c, 0, 64, 127
3, 51043, Note_on_c, 0, 57, 0
3, 51069, Note_on_c, 0, 58, 59
3, 51069, Note_on_c, 0, 64, 49
3, 51096, Note_on_c, 0, 58, 0
3, 51098, Note_on_c, 0, 64, 0
3, 51099, Control_c, 0, 64, 0
3, 51102, Note_on_c, 0, 36, 47
3, 51121, Control_c, 0, 64, 127
3, 51129, Note_on_c, 0, 36, 0
3, 51227, Note_on_c, 0, 46, 49
3, 51228, Note_on_c, 0, 56, 38
3, 51229, Control_c, 0, 64, 0
3, 51249, Control_c, 0, 64, 127
3, 51290, Note_on_c, 0, 56, 0
3, 51312, Note_on_c, 0, 52, 48
3, 51319, Note_on_c, 0, 46, 0
3, 51338, Note_on_c, 0, 52, 0
3, 51343, Control_c, 0, 64, 0
3, 51344, Note_on_c, 0, 45, 50
3, 51349, Note_on_c, 0, 55, 33
3, 51354, Note_on_c, 0, 93, 64
3, 51358, Note_on_c, 0, 45, 0
3, 51360, Note_on_c, 0, 93, 0
3, 51363, Control_c, 0, 64, 127
3, 51365, Note_on_c, 0, 55, 0
3, 51371, Note_on_c, 0, 96, 58
3, 51387, Note_on_c, 0, 93, 37
3, 51401, Note_on_c, 0, 96, 0
3, 51407, Note_on_c, 0, 89, 36
3, 51409, Note_on_c, 0, 93, 0
3, 51423, Note_on_c, 0, 89, 0
3, 51433, Note_on_c, 0, 84, 50
3, 51441, Note_on_c, 0, 84, 0
3, 51463, Note_on_c, 0, 64, 36
3, 51467, Control_c, 0, 64, 0
3, 51468, Note_on_c, 0, 91, 69
3, 51469, Note_on_c, 0, 60, 28
3, 51474, Note_on_c, 0, 64, 0
3, 51481, Note_on_c, 0, 60, 0
3, 51482, Note_on_c, 0, 91, 0
3, 51490, Note_on_c, 0, 94, 49
3, 51499, Note_on_c, 0, 91, 32
3, 51505, Control_c, 0, 64, 127
3, 51517, Note_on_c, 0, 91, 0
3, 51517, Note_on_c, 0, 88, 44
3, 51520, Note_on_c, 0, 94, 0
3, 51524, Note_on_c, 0, 88, 0
3, 51534, Note_on_c, 0, 82, 38
3, 51552, Note_on_c, 0, 82, 0
3, 51557, Note_on_c, 0, 89, 59
3, 51569, Note_on_c, 0, 89, 0
3, 51576, Note_on_c, 0, 93, 66
3, 51590, Note_on_c, 0, 38, 41
3, 51592, Control_c, 0, 64, 0
3, 51597, Note_on_c, 0, 38, 0
3, 51598, Note_on_c, 0, 93, 0
3, 51615, Control_c, 0, 64, 127
3, 51617, Note_on_c, 0, 81, 41
3, 51633, Note_on_c, 0, 81, 0
3, 51635, Note_on_c, 0, 88, 57
3, 51650, Note_on_c, 0, 88, 0
3, 51654, Note_on_c, 0, 91, 61
3, 51669, Note_on_c, 0, 88, 30
3, 51681, Note_on_c, 0, 84, 53
3, 51683, Note_on_c, 0, 91, 0
3, 51688, Note_on_c, 0, 88, 0
3, 51693, Note_on_c, 0, 84, 0
3, 51700, Note_on_c, 0, 79, 38
3, 51710, Note_on_c, 0, 79, 0
3, 51711, Note_on_c, 0, 65, 36
3, 51715, Note_on_c, 0, 54, 33
3, 51717, Note_on_c, 0, 60, 34
3, 51718, Control_c, 0, 64, 0
3, 51718, Note_on_c, 0, 86, 60
3, 51732, Note_on_c, 0, 86, 0
3, 51740, Note_on_c, 0, 89, 56
3, 51750, Note_on_c, 0, 86, 22
3, 51751, Control_c, 0, 64, 127
3, 51760, Note_on_c, 0, 86, 0
3, 51760, Note_on_c, 0, 82, 48
3, 51761, Note_on_c, 0, 89, 0
3, 51763, Note_on_c, 0, 65, 0
3, 51770, Note_on_c, 0, 60, 0
3, 51776, Note_on_c, 0, 82, 0
3, 51779, Note_on_c, 0, 79, 39
3, 51794, Note_on_c, 0, 54, 0
3, 51796, Note_on_c, 0, 79, 0
3, 51797, Note_on_c, 0, 84, 50
3, 51809, Note_on_c, 0, 84, 0
3, 51813, Note_on_c, 0, 88, 60
3, 51827, Note_on_c, 0, 58, 32
3, 51830, Control_c, 0, 64, 0
3, 51830, Note_on_c, 0, 62, 24
3, 51834, Note_on_c, 0, 88, 0
3, 51835, Note_on_c, 0, 57, 24
3, 51870, Note_on_c, 0, 82, 57
3, 51873, Note_on_c, 0, 62, 0
3, 51881, Control_c, 0, 64, 127
3, 51885, Note_on_c, 0, 82, 0
3, 51889, Note_on_c, 0, 86, 63
3, 51891, Note_on_c, 0, 58, 0
3, 51896, Note_on_c, 0, 57, 0
3, 51899, Note_on_c, 0, 82, 37
3, 51907, Note_on_c, 0, 86, 0
3, 51925, Note_on_c, 0, 82, 0
3, 51927, Note_on_c, 0, 76, 43
3, 51936, Note_on_c, 0, 76, 0
3, 51949, Note_on_c, 0, 81, 53
3, 51949, Note_on_c, 0, 62, 39
3, 51954, Note_on_c, 0, 58, 34
3, 51955, Control_c, 0, 64, 0
3, 51958, Note_on_c, 0, 57, 24
3, 51969, Note_on_c, 0, 81, 0
3, 51970, Note_on_c, 0, 62, 0
3, 51970, Note_on_c, 0, 84, 50
3, 51984, Note_on_c, 0, 81, 28
3, 51986, Note_on_c, 0, 57, 0
3, 51989, Control_c, 0, 64, 127
3, 51990, Note_on_c, 0, 84, 0
3, 51996, Note_on_c, 0, 81, 0
3, 52006, Note_on_c, 0, 58, 0
3, 52017, Note_on_c, 0, 72, 32
3, 52024, Note_on_c, 0, 72, 0
3, 52025, Note_on_c, 0, 78, 59
3, 52033, Note_on_c, 0, 78, 0
3, 52034, Note_on_c, 0, 79, 49
3, 52051, Note_on_c, 0, 79, 0
3, 52057, Note_on_c, 0, 83, 49
3, 52068, Note_on_c, 0, 63, 29
3, 52069, Note_on_c, 0, 79, 27
3, 52072, Control_c, 0, 64, 0
3, 52076, Note_on_c, 0, 58, 25
3, 52077, Note_on_c, 0, 83, 0
3, 52079, Note_on_c, 0, 75, 39
3, 52087, Note_on_c, 0, 79, 0
3, 52089, Note_on_c, 0, 63, 0
3, 52096, Note_on_c, 0, 71, 50
3, 52099, Note_on_c, 0, 75, 0
3, 52107, Note_on_c, 0, 71, 0
3, 52115, Note_on_c, 0, 58, 0
3, 52124, Note_on_c, 0, 81, 74
3, 52143, Control_c, 0, 64, 127
3, 52147, Note_on_c, 0, 81, 0
3, 52153, Note_on_c, 0, 79, 68
3, 52173, Note_on_c, 0, 79, 0
3, 52185, Note_on_c, 0, 77, 60
3, 52188, Note_on_c, 0, 79, 26
3, 52191, Note_on_c, 0, 58, 29
3, 52191, Note_on_c, 0, 48, 43
3, 52196, Note_on_c, 0, 79, 0
3, 52200, Control_c, 0, 64, 0
3, 52201, Note_on_c, 0, 77, 0
3, 52219, Note_on_c, 0, 76, 66
3, 52234, Note_on_c, 0, 76, 0
3, 52249, Note_on_c, 0, 48, 0
3, 52252, Note_on_c, 0, 58, 0
3, 52258, Note_on_c, 0, 74, 32
3, 52258, Control_c, 0, 64, 127
3, 52264, Note_on_c, 0, 74, 0
3, 52281, Note_on_c, 0, 74, 57
3, 52299, Note_on_c, 0, 74, 0
3, 52311, Note_on_c, 0, 73, 48
3, 52322, Note_on_c, 0, 73, 0
3, 52322, Note_on_c, 0, 45, 38
3, 52327, Control_c, 0, 64, 0
3, 52338, Note_on_c, 0, 72, 62
3, 52348, Note_on_c, 0, 55, 1
3, 52361, Control_c, 0, 64, 127
3, 52403, Note_on_c, 0, 45, 0
3, 52406, Note_on_c, 0, 55, 0
3, 52424, Note_on_c, 0, 72, 0
3, 52436, Note_on_c, 0, 71, 63
3, 52436, Note_on_c, 0, 66, 52
3, 52438, Note_on_c, 0, 54, 37
3, 52439, Control_c, 0, 64, 0
3, 52440, Note_on_c, 0, 44, 46
3, 52471, Control_c, 0, 64, 127
3, 52499, Note_on_c, 0, 66, 0
3, 52519, Note_on_c, 0, 54, 0
3, 52521, Note_on_c, 0, 50, 44
3, 52531, Note_on_c, 0, 44, 0
3, 52542, Note_on_c, 0, 50, 0
3, 52542, Note_on_c, 0, 71, 0
3, 52552, Control_c, 0, 64, 0
3, 52555, Note_on_c, 0, 43, 46
3, 52557, Note_on_c, 0, 70, 43
3, 52557, Note_on_c, 0, 65, 51
3, 52558, Note_on_c, 0, 53, 40
3, 52574, Control_c, 0, 64, 127
3, 52581, Note_on_c, 0, 65, 0
3, 52601, Note_on_c, 0, 70, 0
3, 52623, Note_on_c, 0, 53, 0
3, 52624, Note_on_c, 0, 43, 0
3, 52644, Note_on_c, 0, 63, 35
3, 52645, Note_on_c, 0, 69, 53
3, 52650, Note_on_c, 0, 63, 0
3, 52656, Note_on_c, 0, 69, 0
3, 52668, Control_c, 0, 64, 0
3, 52670, Note_on_c, 0, 42, 47
3, 52673, Note_on_c, 0, 52, 28
3, 52695, Control_c, 0, 64, 127
3, 52740, Note_on_c, 0, 52, 0
3, 52760, Note_on_c, 0, 49, 40
3, 52781, Note_on_c, 0, 42, 0
3, 52790, Note_on_c, 0, 49, 0
3, 52800, Note_on_c, 0, 41, 54
3, 52802, Note_on_c, 0, 88, 80
3, 52803, Control_c, 0, 64, 0
3, 52805, Note_on_c, 0, 50, 25
3, 52815, Note_on_c, 0, 41, 0
3, 52821, Note_on_c, 0, 88, 0
3, 52822, Note_on_c, 0, 50, 0
3, 52832, Note_on_c, 0, 89, 68
3, 52854, Control_c, 0, 64, 127
3, 52859, Note_on_c, 0, 89, 0
3, 52863, Note_on_c, 0, 84, 66
3, 52884, Note_on_c, 0, 84, 0
3, 52891, Note_on_c, 0, 81, 47
3, 52906, Note_on_c, 0, 81, 0
3, 52921, Note_on_c, 0, 53, 33
3, 52921, Note_on_c, 0, 62, 37
3, 52921, Note_on_c, 0, 85, 75
3, 52925, Note_on_c, 0, 60, 37
3, 52928, Control_c, 0, 64, 0
3, 52928, Note_on_c, 0, 57, 30
3, 52939, Note_on_c, 0, 85, 0
3, 52946, Note_on_c, 0, 60, 0
3, 52946, Note_on_c, 0, 62, 0
3, 52952, Note_on_c, 0, 86, 66
3, 52957, Note_on_c, 0, 57, 0
3, 52980, Note_on_c, 0, 86, 0
3, 52980, Control_c, 0, 64, 127
3, 52981, Note_on_c, 0, 81, 58
3, 52983, Note_on_c, 0, 53, 0
3, 53005, Note_on_c, 0, 81, 0
3, 53010, Note_on_c, 0, 77, 49
3, 53026, Note_on_c, 0, 77, 0
3, 53041, Note_on_c, 0, 62, 31
3, 53041, Note_on_c, 0, 82, 63
3, 53043, Control_c, 0, 64, 0
3, 53048, Note_on_c, 0, 62, 0
3, 53058, Note_on_c, 0, 82, 0
3, 53073, Note_on_c, 0, 84, 57
3, 53088, Note_on_c, 0, 84, 0
3, 53101, Control_c, 0, 64, 127
3, 53105, Note_on_c, 0, 81, 32
3, 53125, Note_on_c, 0, 81, 0
3, 53136, Note_on_c, 0, 77, 58
3, 53158, Note_on_c, 0, 77, 0
3, 53163, Note_on_c, 0, 74, 58
3, 53164, Control_c, 0, 64, 0
3, 53174, Note_on_c, 0, 62, 12
3, 53175, Note_on_c, 0, 53, 13
3, 53176, Note_on_c, 0, 60, 26
3, 53183, Note_on_c, 0, 74, 0
3, 53197, Note_on_c, 0, 70, 53
3, 53198, Control_c, 0, 64, 127
3, 53205, Note_on_c, 0, 62, 0
3, 53214, Note_on_c, 0, 60, 0
3, 53221, Note_on_c, 0, 70, 0
3, 53229, Note_on_c, 0, 53, 0
3, 53235, Note_on_c, 0, 69, 22
3, 53246, Note_on_c, 0, 69, 0
3, 53288, Note_on_c, 0, 62, 50
3, 53290, Note_on_c, 0, 72, 70
3, 53292, Note_on_c, 0, 58, 47
3, 53292, Note_on_c, 0, 57, 32
3, 53296, Control_c, 0, 64, 0
3, 53312, Note_on_c, 0, 62, 0
3, 53319, Note_on_c, 0, 72, 0
3, 53322, Note_on_c, 0, 57, 0
3, 53325, Note_on_c, 0, 69, 59
3, 53328, Note_on_c, 0, 58, 0
3, 53342, Note_on_c, 0, 69, 0
3, 53355, Note_on_c, 0, 70, 39
3, 53363, Control_c, 0, 64, 127
3, 53371, Note_on_c, 0, 70, 0
3, 53387, Note_on_c, 0, 71, 79
3, 53406, Note_on_c, 0, 71, 0
3, 53408, Control_c, 0, 64, 0
3, 53414, Note_on_c, 0, 72, 68
3, 53416, Note_on_c, 0, 53, 49
3, 53417, Note_on_c, 0, 43, 49
3, 53434, Note_on_c, 0, 53, 0
3, 53434, Note_on_c, 0, 72, 0
3, 53439, Control_c, 0, 64, 127
3, 53442, Note_on_c, 0, 43, 0
3, 53446, Note_on_c, 0, 69, 66
3, 53466, Note_on_c, 0, 69, 0
3, 53477, Control_c, 0, 64, 0
3, 53478, Note_on_c, 0, 65, 55
3, 53482, Control_c, 0, 64, 127
3, 53500, Note_on_c, 0, 65, 0
3, 53512, Note_on_c, 0, 62, 51
3, 53513, Note_on_c, 0, 36, 48
3, 53527, Note_on_c, 0, 43, 15
3, 53530, Note_on_c, 0, 62, 0
3, 53535, Note_on_c, 0, 36, 0
3, 53541, Note_on_c, 0, 63, 57
3, 53543, Note_on_c, 0, 52, 46
3, 53549, Control_c, 0, 64, 0
3, 53561, Note_on_c, 0, 43, 0
3, 53565, Note_on_c, 0, 63, 0
3, 53576, Note_on_c, 0, 64, 47
3, 53579, Note_on_c, 0, 52, 0
3, 53592, Note_on_c, 0, 64, 0
3, 53603, Note_on_c, 0, 65, 65
3, 53610, Control_c, 0, 64, 127
3, 53620, Note_on_c, 0, 65, 0
3, 53633, Note_on_c, 0, 66, 68
3, 53652, Note_on_c, 0, 66, 0
3, 53657, Control_c, 0, 64, 0
3, 53658, Note_on_c, 0, 49, 42
3, 53660, Note_on_c, 0, 59, 36
3, 53660, Note_on_c, 0, 67, 63
3, 53662, Note_on_c, 0, 56, 31
3, 53669, Note_on_c, 0, 59, 0
3, 53675, Note_on_c, 0, 56, 0
3, 53676, Note_on_c, 0, 49, 0
3, 53682, Note_on_c, 0, 67, 0
3, 53690, Note_on_c, 0, 64, 68
3, 53707, Note_on_c, 0, 64, 0
3, 53713, Control_c, 0, 64, 127
3, 53717, Note_on_c, 0, 60, 53
3, 53739, Note_on_c, 0, 60, 0
3, 53746, Note_on_c, 0, 58, 51
3, 53751, Note_on_c, 0, 46, 30
3, 53768, Note_on_c, 0, 58, 0
3, 53769, Note_on_c, 0, 46, 0
3, 53771, Control_c, 0, 64, 0
3, 53776, Note_on_c, 0, 57, 59
3, 53778, Note_on_c, 0, 45, 53
3, 53786, Note_on_c, 0, 55, 25
3, 53798, Control_c, 0, 64, 127
3, 53820, Note_on_c, 0, 55, 0
3, 53842, Note_on_c, 0, 57, 0
3, 53886, Note_on_c, 0, 52, 35
3, 53887, Note_on_c, 0, 57, 44
3, 53887, Note_on_c, 0, 55, 43
3, 53894, Control_c, 0, 64, 0
3, 53915, Control_c, 0, 64, 127
3, 53936, Note_on_c, 0, 55, 0
3, 53938, Note_on_c, 0, 57, 0
3, 53945, Note_on_c, 0, 52, 0
3, 53972, Note_on_c, 0, 49, 27
3, 54006, Note_on_c, 0, 52, 49
3, 54007, Note_on_c, 0, 62, 53
3, 54008, Note_on_c, 0, 67, 50
3, 54009, Note_on_c, 0, 49, 0
3, 54009, Note_on_c, 0, 57, 45
3, 54013, Control_c, 0, 64, 0
3, 54071, Note_on_c, 0, 67, 0
3, 54073, Note_on_c, 0, 57, 0
3, 54082, Note_on_c, 0, 52, 0
3, 54082, Control_c, 0, 64, 127
3, 54083, Note_on_c, 0, 62, 0
3, 54087, Note_on_c, 0, 51, 35
3, 54105, Control_c, 0, 64, 0
3, 54119, Note_on_c, 0, 66, 46
3, 54124, Note_on_c, 0, 52, 41
3, 54124, Note_on_c, 0, 62, 45
3, 54125, Note_on_c, 0, 51, 0
3, 54125, Note_on_c, 0, 57, 32
3, 54132, Control_c, 0, 64, 127
3, 54135, Note_on_c, 0, 57, 0
3, 54136, Note_on_c, 0, 45, 0
3, 54145, Note_on_c, 0, 62, 0
3, 54148, Note_on_c, 0, 52, 0
3, 54152, Note_on_c, 0, 66, 0
3, 54202, Note_on_c, 0, 76, 55
3, 54203, Note_on_c, 0, 69, 53
3, 54211, Note_on_c, 0, 64, 57
3, 54217, Note_on_c, 0, 53, 20
3, 54218, Note_on_c, 0, 59, 37
3, 54229, Note_on_c, 0, 64, 0
3, 54231, Control_c, 0, 64, 0
3, 54232, Note_on_c, 0, 59, 0
3, 54249, Note_on_c, 0, 53, 0
3, 54263, Note_on_c, 0, 76, 0
3, 54267, Note_on_c, 0, 69, 0
3, 54271, Note_on_c, 0, 73, 37
3, 54272, Note_on_c, 0, 65, 61
3, 54284, Control_c, 0, 64, 127
3, 54289, Note_on_c, 0, 65, 0
3, 54293, Control_c, 0, 64, 0
3, 54294, Note_on_c, 0, 73, 0
3, 54312, Note_on_c, 0, 50, 27
3, 54328, Note_on_c, 0, 50, 0
3, 54346, Note_on_c, 0, 54, 39
3, 54347, Control_c, 0, 64, 127
3, 54348, Note_on_c, 0, 44, 33
3, 54356, Note_on_c, 0, 54, 0
3, 54361, Note_on_c, 0, 61, 63
3, 54363, Note_on_c, 0, 59, 65
3, 54366, Note_on_c, 0, 44, 0
3, 54376, Control_c, 0, 64, 0
3, 54376, Note_on_c, 0, 43, 41
3, 54379, Note_on_c, 0, 53, 25
3, 54396, Control_c, 0, 64, 127
3, 54414, Note_on_c, 0, 59, 0
3, 54419, Note_on_c, 0, 53, 0
3, 54420, Note_on_c, 0, 61, 0
3, 54436, Note_on_c, 0, 61, 52
3, 54438, Note_on_c, 0, 59, 59
3, 54438, Note_on_c, 0, 53, 51
3, 54442, Control_c, 0, 64, 0
3, 54524, Control_c, 0, 64, 127
3, 54543, Note_on_c, 0, 53, 0
3, 54556, Note_on_c, 0, 43, 0
3, 54565, Note_on_c, 0, 50, 31
3, 54566, Note_on_c, 0, 61, 0
3, 54567, Note_on_c, 0, 59, 0
3, 54589, Note_on_c, 0, 50, 0
3, 54596, Control_c, 0, 64, 0
3, 54599, Note_on_c, 0, 61, 46
3, 54602, Note_on_c, 0, 59, 47
3, 54602, Note_on_c, 0, 54, 49
3, 54604, Note_on_c, 0, 50, 24
3, 54643, Control_c, 0, 64, 127
3, 54645, Note_on_c, 0, 61, 0
3, 54648, Note_on_c, 0, 59, 0
3, 54652, Note_on_c, 0, 54, 0
3, 54661, Note_on_c, 0, 50, 0
3, 54679, Note_on_c, 0, 62, 57
3, 54680, Note_on_c, 0, 53, 40
3, 54681, Note_on_c, 0, 43, 36
3, 54682, Note_on_c, 0, 57, 45
3, 54682, Note_on_c, 0, 58, 48
3, 54686, Control_c, 0, 64, 0
3, 54726, Control_c, 0, 64, 127
3, 54770, Note_on_c, 0, 43, 0
3, 54775, Note_on_c, 0, 57, 0
3, 54787, Note_on_c, 0, 62, 0
3, 54788, Note_on_c, 0, 58, 0
3, 54803, Note_on_c, 0, 43, 44
3, 54810, Note_on_c, 0, 43, 0
3, 54813, Note_on_c, 0, 53, 0
3, 54845, Note_on_c, 0, 58, 67
3, 54847, Note_on_c, 0, 62, 56
3, 54847, Note_on_c, 0, 57, 44
3, 54848, Note_on_c, 0, 69, 35
3, 54851, Control_c, 0, 64, 0
3, 54855, Note_on_c, 0, 62, 0
3, 54858, Note_on_c, 0, 58, 0
3, 54865, Note_on_c, 0, 57, 0
3, 54865, Note_on_c, 0, 69, 0
3, 54886, Note_on_c, 0, 55, 46
3, 54910, Note_on_c, 0, 55, 0
3, 54916, Note_on_c, 0, 58, 57
3, 54916, Note_on_c, 0, 62, 59
3, 54919, Note_on_c, 0, 57, 62
3, 54923, Note_on_c, 0, 62, 0
3, 54926, Note_on_c, 0, 58, 0
3, 54935, Note_on_c, 0, 57, 0
3, 54943, Control_c, 0, 64, 127
3, 54948, Control_c, 0, 64, 0
3, 54960, Note_on_c, 0, 72, 60
3, 54961, Note_on_c, 0, 60, 64
3, 54961, Note_on_c, 0, 62, 50
3, 54964, Note_on_c, 0, 65, 30
3, 54972, Note_on_c, 0, 65, 0
3, 54973, Note_on_c, 0, 62, 0
3, 54977, Note_on_c, 0, 72, 0
3, 54979, Note_on_c, 0, 60, 0
3, 55000, Note_on_c, 0, 58, 46
3, 55004, Control_c, 0, 64, 127
3, 55012, Control_c, 0, 64, 0
3, 55031, Note_on_c, 0, 72, 54
3, 55031, Note_on_c, 0, 62, 70
3, 55032, Note_on_c, 0, 58, 0
3, 55035, Note_on_c, 0, 60, 62
3, 55045, Note_on_c, 0, 62, 0
3, 55047, Note_on_c, 0, 72, 0
3, 55048, Note_on_c, 0, 60, 0
3, 55068, Note_on_c, 0, 68, 64
3, 55071, Note_on_c, 0, 75, 64
3, 55072, Note_on_c, 0, 63, 67
3, 55072, Note_on_c, 0, 64, 60
3, 55078, Note_on_c, 0, 64, 0
3, 55086, Note_on_c, 0, 63, 0
3, 55090, Note_on_c, 0, 68, 0
3, 55091, Note_on_c, 0, 75, 0
3, 55108, Note_on_c, 0, 58, 52
3, 55123, Note_on_c, 0, 58, 0
3, 55141, Note_on_c, 0, 75, 64
3, 55144, Note_on_c, 0, 64, 60
3, 55145, Note_on_c, 0, 70, 49
3, 55146, Note_on_c, 0, 56, 42
3, 55146, Note_on_c, 0, 46, 47
3, 55149, Note_on_c, 0, 67, 43
3, 55149, Control_c, 0, 64, 127
3, 55155, Note_on_c, 0, 56, 0
3, 55157, Note_on_c, 0, 67, 0
3, 55159, Note_on_c, 0, 75, 0
3, 55161, Note_on_c, 0, 64, 0
3, 55162, Note_on_c, 0, 70, 0
3, 55164, Note_on_c, 0, 46, 0
3, 55174, Control_c, 0, 64, 0
3, 55185, Note_on_c, 0, 67, 60
3, 55185, Note_on_c, 0, 72, 49
3, 55188, Note_on_c, 0, 60, 48
3, 55189, Note_on_c, 0, 55, 50
3, 55195, Note_on_c, 0, 60, 0
3, 55196, Note_on_c, 0, 55, 0
3, 55205, Note_on_c, 0, 72, 0
3, 55205, Note_on_c, 0, 67, 0
3, 55227, Note_on_c, 0, 52, 40
3, 55239, Note_on_c, 0, 52, 0
3, 55259, Note_on_c, 0, 72, 60
3, 55260, Note_on_c, 0, 67, 63
3, 55261, Note_on_c, 0, 60, 55
3, 55261, Note_on_c, 0, 55, 61
3, 55269, Note_on_c, 0, 67, 0
3, 55271, Note_on_c, 0, 55, 0
3, 55272, Note_on_c, 0, 72, 0
3, 55278, Note_on_c, 0, 60, 0
3, 55300, Note_on_c, 0, 67, 53
3, 55303, Note_on_c, 0, 52, 62
3, 55304, Note_on_c, 0, 59, 27
3, 55306, Note_on_c, 0, 60, 26
3, 55311, Note_on_c, 0, 59, 0
3, 55313, Note_on_c, 0, 60, 0
3, 55313, Note_on_c, 0, 52, 0
3, 55318, Note_on_c, 0, 67, 0
3, 55346, Note_on_c, 0, 51, 26
3, 55353, Note_on_c, 0, 51, 0
3, 55379, Note_on_c, 0, 64, 67
3, 55380, Note_on_c, 0, 55, 64
3, 55381, Note_on_c, 0, 60, 63
3, 55384, Note_on_c, 0, 51, 57
3, 55388, Note_on_c, 0, 55, 0
3, 55392, Note_on_c, 0, 60, 0
3, 55397, Note_on_c, 0, 64, 0
3, 55398, Note_on_c, 0, 51, 0
3, 55423, Note_on_c, 0, 54, 69
3, 55426, Note_on_c, 0, 50, 51
3, 55433, Note_on_c, 0, 38, 30
3, 55447, Control_c, 0, 64, 127
3, 55528, Note_on_c, 0, 50, 0
3, 55534, Note_on_c, 0, 54, 0
3, 55539, Note_on_c, 0, 38, 0
3, 55549, Note_on_c, 0, 50, 43
3, 55551, Note_on_c, 0, 40, 36
3, 55552, Control_c, 0, 64, 0
3, 55552, Note_on_c, 0, 55, 61
3, 55562, Note_on_c, 0, 50, 0
3, 55572, Note_on_c, 0, 55, 0
3, 55575, Note_on_c, 0, 40, 0
3, 55583, Note_on_c, 0, 56, 37
3, 55587, Note_on_c, 0, 41, 30
3, 55607, Note_on_c, 0, 56, 0
3, 55615, Note_on_c, 0, 41, 0
3, 55624, Note_on_c, 0, 54, 60
3, 55626, Note_on_c, 0, 57, 65
3, 55627, Note_on_c, 0, 42, 49
3, 55654, Note_on_c, 0, 54, 0
3, 55655, Note_on_c, 0, 57, 0
3, 55670, Note_on_c, 0, 42, 0
3, 55672, Note_on_c, 0, 53, 62
3, 55673, Note_on_c, 0, 60, 64
3, 55674, Note_on_c, 0, 43, 55
3, 55675, Note_on_c, 0, 57, 44
3, 55692, Control_c, 0, 64, 127
3, 55695, Note_on_c, 0, 57, 0
3, 55726, Note_on_c, 0, 53, 0
3, 55737, Note_on_c, 0, 60, 0
3, 55759, Note_on_c, 0, 31, 50
3, 55765, Note_on_c, 0, 31, 0
3, 55765, Note_on_c, 0, 43, 0
3, 55790, Control_c, 0, 64, 0
3, 55795, Note_on_c, 0, 72, 70
3, 55796, Note_on_c, 0, 69, 65
3, 55796, Note_on_c, 0, 65, 68
3, 55796, Note_on_c, 0, 62, 78
3, 55799, Note_on_c, 0, 59, 73
3, 55820, Control_c, 0, 64, 127
3, 55846, Note_on_c, 0, 69, 0
3, 55851, Note_on_c, 0, 72, 0
3, 55858, Note_on_c, 0, 59, 0
3, 55865, Note_on_c, 0, 65, 0
3, 55870, Note_on_c, 0, 62, 0
3, 55921, Control_c, 0, 64, 0
3, 55922, Note_on_c, 0, 69, 54
3, 55922, Note_on_c, 0, 61, 53
3, 55922, Note_on_c, 0, 58, 42
3, 55924, Note_on_c, 0, 48, 46
3, 55925, Note_on_c, 0, 64, 49
3, 55927, Note_on_c, 0, 55, 24
3, 55952, Control_c, 0, 64, 127
3, 55967, Note_on_c, 0, 58, 0
3, 55975, Note_on_c, 0, 64, 0
3, 55975, Note_on_c, 0, 61, 0
3, 55976, Note_on_c, 0, 69, 0
3, 56015, Note_on_c, 0, 48, 0
3, 56037, Note_on_c, 0, 55, 0
3, 56040, Note_on_c, 0, 48, 24
3, 56043, Note_on_c, 0, 73, 44
3, 56045, Note_on_c, 0, 68, 49
3, 56046, Control_c, 0, 64, 0
3, 56047, Note_on_c, 0, 64, 40
3, 56048, Note_on_c, 0, 58, 39
3, 56075, Control_c, 0, 64, 127
3, 56110, Note_on_c, 0, 58, 0
3, 56113, Note_on_c, 0, 64, 0
3, 56124, Note_on_c, 0, 73, 0
3, 56126, Note_on_c, 0, 68, 0
3, 56160, Control_c, 0, 64, 0
3, 56166, Note_on_c, 0, 72, 48
3, 56167, Note_on_c, 0, 67, 52
3, 56169, Note_on_c, 0, 57, 36
3, 56180, Control_c, 0, 64, 127
3, 56186, Note_on_c, 0, 48, 0
3, 56195, Note_on_c, 0, 57, 0
3, 56196, Note_on_c, 0, 67, 0
3, 56199, Note_on_c, 0, 72, 0
3, 56280, Note_on_c, 0, 79, 59
3, 56283, Note_on_c, 0, 72, 49
3, 56283, Note_on_c, 0, 63, 39
3, 56284, Control_c, 0, 64, 0
3, 56286, Note_on_c, 0, 69, 42
3, 56286, Note_on_c, 0, 75, 38
3, 56306, Control_c, 0, 64, 127
3, 56329, Note_on_c, 0, 63, 0
3, 56330, Note_on_c, 0, 79, 0
3, 56337, Note_on_c, 0, 72, 0
3, 56337, Note_on_c, 0, 69, 0
3, 56371, Note_on_c, 0, 75, 0
3, 56396, Control_c, 0, 64, 0
3, 56401, Note_on_c, 0, 77, 58
3, 56402, Note_on_c, 0, 63, 38
3, 56405, Note_on_c, 0, 53, 30
3, 56407, Note_on_c, 0, 69, 36
3, 56416, Note_on_c, 0, 63, 0
3, 56420, Note_on_c, 0, 69, 0
3, 56423, Note_on_c, 0, 77, 0
3, 56427, Note_on_c, 0, 53, 0
3, 56427, Control_c, 0, 64, 127
3, 56525, Note_on_c, 0, 61, 39
3, 56526, Note_on_c, 0, 57, 39
3, 56528, Control_c, 0, 64, 0
3, 56528, Note_on_c, 0, 68, 31
3, 56528, Note_on_c, 0, 51, 31
3, 56529, Note_on_c, 0, 65, 46
3, 56530, Note_on_c, 0, 47, 29
3, 56554, Note_on_c, 0, 65, 0
3, 56558, Note_on_c, 0, 57, 0
3, 56562, Control_c, 0, 64, 127
3, 56566, Note_on_c, 0, 61, 0
3, 56586, Note_on_c, 0, 47, 0
3, 56609, Note_on_c, 0, 68, 0
3, 56623, Note_on_c, 0, 51, 0
3, 56642, Control_c, 0, 64, 0
3, 56645, Note_on_c, 0, 62, 48
3, 56645, Note_on_c, 0, 65, 42
3, 56646, Note_on_c, 0, 57, 24
3, 56647, Note_on_c, 0, 46, 33
3, 56649, Note_on_c, 0, 53, 32
3, 56652, Note_on_c, 0, 57, 0
3, 56660, Note_on_c, 0, 62, 0
3, 56663, Note_on_c, 0, 65, 0
3, 56667, Control_c, 0, 64, 127
3, 56728, Note_on_c, 0, 77, 68
3, 56742, Note_on_c, 0, 46, 0
3, 56746, Note_on_c, 0, 53, 0
3, 56753, Note_on_c, 0, 77, 0
3, 56764, Note_on_c, 0, 46, 31
3, 56770, Control_c, 0, 64, 0
3, 56771, Note_on_c, 0, 65, 39
3, 56773, Note_on_c, 0, 53, 14
3, 56795, Note_on_c, 0, 65, 0
3, 56809, Note_on_c, 0, 67, 50
3, 56826, Note_on_c, 0, 67, 0
3, 56827, Control_c, 0, 64, 127
3, 56844, Note_on_c, 0, 46, 0
3, 56847, Note_on_c, 0, 69, 72
3, 56871, Note_on_c, 0, 69, 0
3, 56878, Note_on_c, 0, 46, 26
3, 56880, Control_c, 0, 64, 0
3, 56880, Note_on_c, 0, 70, 52
3, 56898, Note_on_c, 0, 70, 0
3, 56914, Note_on_c, 0, 72, 47
3, 56930, Note_on_c, 0, 72, 0
3, 56940, Control_c, 0, 64, 127
3, 56941, Note_on_c, 0, 46, 0
3, 56942, Note_on_c, 0, 74, 34
3, 56972, Note_on_c, 0, 74, 0
3, 56972, Note_on_c, 0, 76, 57
3, 56986, Note_on_c, 0, 76, 0
3, 56997, Note_on_c, 0, 77, 62
3, 57003, Control_c, 0, 64, 0
3, 57004, Note_on_c, 0, 57, 24
3, 57004, Note_on_c, 0, 46, 25
3, 57018, Note_on_c, 0, 57, 0
3, 57020, Note_on_c, 0, 77, 0
3, 57027, Note_on_c, 0, 79, 44
3, 57028, Control_c, 0, 64, 127
3, 57046, Note_on_c, 0, 46, 0
3, 57052, Note_on_c, 0, 81, 50
3, 57053, Note_on_c, 0, 79, 0
3, 57073, Note_on_c, 0, 81, 0
3, 57078, Note_on_c, 0, 82, 45
3, 57092, Note_on_c, 0, 82, 0
3, 57104, Note_on_c, 0, 84, 49
3, 57108, Note_on_c, 0, 53, 0
3, 57120, Control_c, 0, 64, 0
3, 57121, Note_on_c, 0, 84, 0
3, 57123, Note_on_c, 0, 46, 32
3, 57126, Note_on_c, 0, 56, 31
3, 57130, Note_on_c, 0, 86, 60
3, 57145, Control_c, 0, 64, 127
3, 57158, Note_on_c, 0, 86, 0
3, 57160, Note_on_c, 0, 88, 60
3, 57169, Note_on_c, 0, 88, 0
3, 57182, Note_on_c, 0, 56, 0
3, 57185, Note_on_c, 0, 89, 64
3, 57191, Note_on_c, 0, 46, 0
3, 57205, Note_on_c, 0, 89, 0
3, 57212, Note_on_c, 0, 91, 68
3, 57240, Note_on_c, 0, 91, 0
3, 57240, Note_on_c, 0, 93, 76
3, 57241, Control_c, 0, 64, 0
3, 57243, Note_on_c, 0, 56, 48
3, 57247, Note_on_c, 0, 46, 37
3, 57257, Control_c, 0, 64, 127
3, 57258, Note_on_c, 0, 93, 0
3, 57268, Note_on_c, 0, 94, 61
3, 57279, Note_on_c, 0, 94, 0
3, 57297, Note_on_c, 0, 96, 66
3, 57308, Note_on_c, 0, 46, 0
3, 57313, Note_on_c, 0, 96, 0
3, 57317, Note_on_c, 0, 56, 0
3, 57325, Note_on_c, 0, 98, 67
3, 57344, Note_on_c, 0, 98, 0
3, 57357, Note_on_c, 0, 103, 79
3, 57360, Note_on_c, 0, 96, 77
3, 57360, Note_on_c, 0, 46, 37
3, 57361, Note_on_c, 0, 56, 36
3, 57369, Control_c, 0, 64, 0
3, 57387, Control_c, 0, 64, 127
3, 57392, Note_on_c, 0, 103, 0
3, 57397, Note_on_c, 0, 100, 62
3, 57398, Note_on_c, 0, 91, 57
3, 57408, Note_on_c, 0, 96, 0
3, 57419, Note_on_c, 0, 56, 0
3, 57427, Note_on_c, 0, 91, 0
3, 57428, Note_on_c, 0, 100, 0
3, 57444, Note_on_c, 0, 46, 0
3, 57481, Note_on_c, 0, 46, 60
3, 57532, Note_on_c, 0, 46, 0
3, 57559, Note_on_c, 0, 46, 36
3, 57578, Note_on_c, 0, 46, 0
3, 57600, Note_on_c, 0, 66, 55
3, 57603, Note_on_c, 0, 48, 52
3, 57603, Note_on_c, 0, 58, 53
3, 57608, Note_on_c, 0, 62, 34
3, 57611, Control_c, 0, 64, 0
3, 57619, Note_on_c, 0, 62, 0
3, 57667, Control_c, 0, 64, 127
3, 57668, Note_on_c, 0, 58, 0
3, 57670, Note_on_c, 0, 66, 0
3, 57680, Note_on_c, 0, 48, 0
3, 57685, Note_on_c, 0, 68, 48
3, 57685, Note_on_c, 0, 63, 62
3, 57685, Note_on_c, 0, 58, 61
3, 57708, Note_on_c, 0, 68, 0
3, 57713, Note_on_c, 0, 58, 0
3, 57716, Note_on_c, 0, 63, 0
3, 57727, Note_on_c, 0, 66, 57
3, 57730, Note_on_c, 0, 58, 46
3, 57730, Control_c, 0, 64, 0
3, 57730, Note_on_c, 0, 54, 40
3, 57748, Note_on_c, 0, 58, 0
3, 57758, Note_on_c, 0, 66, 0
3, 57762, Note_on_c, 0, 68, 61
3, 57764, Note_on_c, 0, 58, 58
3, 57770, Note_on_c, 0, 54, 0
3, 57773, Note_on_c, 0, 63, 25
3, 57773, Note_on_c, 0, 61, 25
3, 57776, Note_on_c, 0, 56, 31
3, 57811, Control_c, 0, 64, 127
3, 57817, Note_on_c, 0, 68, 0
3, 57818, Note_on_c, 0, 61, 0
3, 57821, Note_on_c, 0, 56, 0
3, 57823, Note_on_c, 0, 63, 0
3, 57823, Note_on_c, 0, 58, 0
3, 57847, Note_on_c, 0, 66, 40
3, 57849, Control_c, 0, 64, 0
3, 57849, Note_on_c, 0, 61, 42
3, 57850, Note_on_c, 0, 63, 40
3, 57850, Note_on_c, 0, 57, 46
3, 57900, Note_on_c, 0, 57, 0
3, 57905, Note_on_c, 0, 66, 0
3, 57909, Note_on_c, 0, 61, 0
3, 57914, Note_on_c, 0, 63, 0
3, 57929, Note_on_c, 0, 56, 51
3, 57930, Note_on_c, 0, 68, 60
3, 57930, Note_on_c, 0, 61, 51
3, 57930, Note_on_c, 0, 63, 38
3, 57932, Note_on_c, 0, 57, 60
3, 57938, Control_c, 0, 64, 127
3, 57950, Note_on_c, 0, 68, 0
3, 57953, Note_on_c, 0, 57, 0
3, 57956, Note_on_c, 0, 61, 0
3, 57959, Note_on_c, 0, 56, 0
3, 57960, Note_on_c, 0, 63, 0
3, 57968, Control_c, 0, 64, 0
3, 57972, Note_on_c, 0, 66, 40
3, 57973, Note_on_c, 0, 54, 36
3, 57979, Note_on_c, 0, 57, 31
3, 57987, Note_on_c, 0, 57, 0
3, 57996, Note_on_c, 0, 66, 0
3, 58003, Note_on_c, 0, 54, 0
3, 58008, Note_on_c, 0, 68, 55
3, 58009, Note_on_c, 0, 56, 46
3, 58010, Note_on_c, 0, 61, 34
3, 58011, Note_on_c, 0, 63, 37
3, 58012, Note_on_c, 0, 57, 46
3, 58052, Note_on_c, 0, 68, 0
3, 58055, Control_c, 0, 64, 127
3, 58057, Note_on_c, 0, 56, 0
3, 58068, Note_on_c, 0, 57, 0
3, 58073, Note_on_c, 0, 63, 0
3, 58074, Note_on_c, 0, 61, 0
3, 58086, Control_c, 0, 64, 0
3, 58087, Note_on_c, 0, 53, 51
3, 58090, Note_on_c, 0, 65, 39
3, 58091, Note_on_c, 0, 57, 34
3, 58092, Note_on_c, 0, 62, 36
3, 58092, Note_on_c, 0, 60, 45
3, 58130, Note_on_c, 0, 65, 0
3, 58140, Note_on_c, 0, 57, 0
3, 58143, Note_on_c, 0, 62, 0
3, 58144, Note_on_c, 0, 60, 0
3, 58144, Note_on_c, 0, 53, 0
3, 58163, Note_on_c, 0, 55, 60
3, 58165, Note_on_c, 0, 67, 62
3, 58165, Control_c, 0, 64, 127
3, 58166, Note_on_c, 0, 57, 58
3, 58166, Note_on_c, 0, 60, 57
3, 58168, Note_on_c, 0, 62, 40
3, 58183, Note_on_c, 0, 67, 0
3, 58190, Note_on_c, 0, 60, 0
3, 58190, Note_on_c, 0, 55, 0
3, 58190, Note_on_c, 0, 57, 0
3, 58190, Note_on_c, 0, 62, 0
3, 58194, Control_c, 0, 64, 0
3, 58202, Note_on_c, 0, 53, 47
3, 58206, Note_on_c, 0, 65, 50
3, 58207, Note_on_c, 0, 57, 34
3, 58221, Note_on_c, 0, 65, 0
3, 58223, Note_on_c, 0, 57, 0
3, 58231, Note_on_c, 0, 53, 0
3, 58244, Note_on_c, 0, 52, 30
3, 58269, Note_on_c, 0, 52, 0
3, 58274, Note_on_c, 0, 65, 53
3, 58275, Note_on_c, 0, 62, 53
3, 58276, Note_on_c, 0, 60, 61
3, 58277, Note_on_c, 0, 53, 64
3, 58277, Note_on_c, 0, 57, 54
3, 58311, Control_c, 0, 64, 127
3, 58389, Note_on_c, 0, 60, 0
3, 58390, Note_on_c, 0, 57, 0
3, 58395, Note_on_c, 0, 62, 0
3, 58401, Note_on_c, 0, 53, 0
3, 58428, Note_on_c, 0, 65, 0
3, 58441, Note_on_c, 0, 62, 40
3, 58444, Note_on_c, 0, 57, 31
3, 58444, Note_on_c, 0, 53, 33
3, 58445, Note_on_c, 0, 60, 43
3, 58491, Note_on_c, 0, 57, 0
3, 58499, Note_on_c, 0, 60, 0
3, 58502, Note_on_c, 0, 53, 0
3, 58515, Note_on_c, 0, 62, 0
3, 58561, Note_on_c, 0, 41, 44
3, 58562, Note_on_c, 0, 53, 37
3, 58569, Control_c, 0, 64, 0
3, 58578, Note_on_c, 0, 41, 0
3, 58634, Note_on_c, 0, 53, 0
3, 58637, Note_on_c, 0, 46, 67
3, 58656, Control_c, 0, 64, 127
3, 58674, Control_c, 0, 64, 0
3, 58684, Note_on_c, 0, 62, 53
3, 58684, Note_on_c, 0, 53, 58
3, 58686, Note_on_c, 0, 57, 38
3, 58688, Note_on_c, 0, 58, 32
3, 58698, Note_on_c, 0, 57, 0
3, 58705, Note_on_c, 0, 58, 0
3, 58710, Note_on_c, 0, 62, 0
3, 58724, Note_on_c, 0, 53, 0
3, 58734, Control_c, 0, 64, 127
3, 58750, Control_c, 0, 64, 0
3, 58761, Note_on_c, 0, 52, 42
3, 58763, Note_on_c, 0, 62, 60
3, 58767, Note_on_c, 0, 58, 38
3, 58768, Note_on_c, 0, 57, 34
3, 58777, Note_on_c, 0, 57, 0
3, 58781, Control_c, 0, 64, 127
3, 58784, Note_on_c, 0, 58, 0
3, 58789, Note_on_c, 0, 62, 0
3, 58800, Note_on_c, 0, 52, 0
3, 58813, Control_c, 0, 64, 0
3, 58829, Control_c, 0, 64, 127
3, 58871, Control_c, 0, 64, 0
3, 58879, Note_on_c, 0, 70, 69
3, 58880, Note_on_c, 0, 65, 64
3, 58882, Note_on_c, 0, 60, 59
3, 58883, Note_on_c, 0, 55, 58
3, 58893, Note_on_c, 0, 60, 0
3, 58898, Note_on_c, 0, 65, 0
3, 58900, Note_on_c, 0, 55, 0
3, 58902, Note_on_c, 0, 70, 0
3, 58941, Note_on_c, 0, 70, 67
3, 58944, Note_on_c, 0, 55, 49
3, 58945, Note_on_c, 0, 65, 61
3, 58946, Note_on_c, 0, 60, 54
3, 58953, Note_on_c, 0, 60, 0
3, 58954, Note_on_c, 0, 65, 0
3, 58957, Note_on_c, 0, 46, 0
3, 58964, Note_on_c, 0, 70, 0
3, 58981, Note_on_c, 0, 46, 51
3, 58985, Control_c, 0, 64, 127
3, 58997, Note_on_c, 0, 55, 0
3, 59057, Note_on_c, 0, 70, 67
3, 59058, Note_on_c, 0, 67, 68
3, 59059, Control_c, 0, 64, 0
3, 59059, Note_on_c, 0, 62, 62
3, 59060, Note_on_c, 0, 58, 47
3, 59098, Note_on_c, 0, 46, 0
3, 59098, Control_c, 0, 64, 127
3, 59140, Note_on_c, 0, 58, 0
3, 59149, Note_on_c, 0, 62, 0
3, 59158, Note_on_c, 0, 67, 0
3, 59161, Note_on_c, 0, 70, 0
3, 59178, Control_c, 0, 64, 0
3, 59178, Note_on_c, 0, 67, 71
3, 59179, Note_on_c, 0, 70, 65
3, 59180, Note_on_c, 0, 62, 63
3, 59182, Note_on_c, 0, 50, 36
3, 59183, Note_on_c, 0, 52, 36
3, 59207, Note_on_c, 0, 50, 0
3, 59207, Control_c, 0, 64, 127
3, 59214, Note_on_c, 0, 62, 0
3, 59224, Note_on_c, 0, 52, 0
3, 59231, Note_on_c, 0, 70, 0
3, 59243, Note_on_c, 0, 67, 0
3, 59295, Note_on_c, 0, 70, 75
3, 59297, Note_on_c, 0, 67, 79
3, 59297, Note_on_c, 0, 74, 65
3, 59298, Note_on_c, 0, 62, 67
3, 59299, Note_on_c, 0, 58, 56
3, 59300, Note_on_c, 0, 52, 60
3, 59302, Control_c, 0, 64, 0
3, 59311, Note_on_c, 0, 67, 0
3, 59318, Control_c, 0, 64, 127
3, 59324, Note_on_c, 0, 52, 0
3, 59326, Note_on_c, 0, 70, 0
3, 59329, Note_on_c, 0, 74, 0
3, 59344, Note_on_c, 0, 58, 0
3, 59353, Note_on_c, 0, 62, 0
3, 59410, Note_on_c, 0, 61, 78
3, 59411, Control_c, 0, 64, 0
3, 59411, Note_on_c, 0, 65, 82
3, 59411, Note_on_c, 0, 55, 85
3, 59411, Note_on_c, 0, 84, 80
3, 59412, Note_on_c, 0, 77, 79
3, 59413, Note_on_c, 0, 81, 70
3, 59413, Note_on_c, 0, 72, 84
3, 59440, Control_c, 0, 64, 127
3, 59471, Note_on_c, 0, 72, 0
3, 59473, Note_on_c, 0, 65, 0
3, 59478, Note_on_c, 0, 55, 0
3, 59482, Note_on_c, 0, 77, 0
3, 59487, Note_on_c, 0, 84, 0
3, 59488, Note_on_c, 0, 81, 0
3, 59491, Note_on_c, 0, 61, 0
3, 59528, Note_on_c, 0, 63, 77
3, 59530, Control_c, 0, 64, 0
3, 59531, Note_on_c, 0, 60, 57
3, 59531, Note_on_c, 0, 57, 54
3, 59532, Note_on_c, 0, 55, 56
3, 59533, Note_on_c, 0, 75, 79
3, 59533, Note_on_c, 0, 87, 75
3, 59554, Control_c, 0, 64, 127
3, 59579, Note_on_c, 0, 75, 0
3, 59582, Note_on_c, 0, 87, 0
3, 59604, Note_on_c, 0, 57, 0
3, 59604, Note_on_c, 0, 55, 0
3, 59612, Note_on_c, 0, 60, 0
3, 59615, Note_on_c, 0, 63, 0
3, 59640, Control_c, 0, 64, 0
3, 59645, Note_on_c, 0, 63, 55
3, 59645, Note_on_c, 0, 93, 67
3, 59646, Note_on_c, 0, 55, 55
3, 59647, Note_on_c, 0, 88, 53
3, 59649, Note_on_c, 0, 81, 32
3, 59651, Note_on_c, 0, 60, 33
3, 59656, Note_on_c, 0, 57, 25
3, 59660, Control_c, 0, 64, 127
3, 59683, Note_on_c, 0, 60, 0
3, 59690, Note_on_c, 0, 57, 0
3, 59691, Note_on_c, 0, 63, 0
3, 59691, Note_on_c, 0, 55, 0
3, 59701, Note_on_c, 0, 93, 0
3, 59706, Note_on_c, 0, 88, 0
3, 59708, Note_on_c, 0, 81, 0
3, 59765, Control_c, 0, 64, 0
3, 59766, Note_on_c, 0, 92, 53
3, 59766, Note_on_c, 0, 65, 61
3, 59767, Note_on_c, 0, 54, 51
3, 59768, Note_on_c, 0, 78, 43
3, 59770, Note_on_c, 0, 87, 46
3, 59771, Note_on_c, 0, 60, 45
3, 59772, Note_on_c, 0, 58, 37
3, 59805, Control_c, 0, 64, 127
3, 59851, Note_on_c, 0, 65, 0
3, 59854, Note_on_c, 0, 78, 0
3, 59855, Note_on_c, 0, 54, 0
3, 59855, Note_on_c, 0, 60, 0
3, 59856, Note_on_c, 0, 87, 0
3, 59858, Note_on_c, 0, 58, 0
3, 59859, Note_on_c, 0, 92, 0
3, 59886, Control_c, 0, 64, 0
3, 59886, Note_on_c, 0, 54, 42
3, 59886, Note_on_c, 0, 65, 47
3, 59888, Note_on_c, 0, 92, 57
3, 59888, Note_on_c, 0, 58, 35
3, 59889, Note_on_c, 0, 78, 43
3, 59890, Note_on_c, 0, 87, 47
3, 59892, Note_on_c, 0, 60, 39
3, 59893, Control_c, 0, 64, 127
3, 59928, Note_on_c, 0, 60, 0
3, 59928, Note_on_c, 0, 78, 0
3, 59929, Note_on_c, 0, 65, 0
3, 59934, Note_on_c, 0, 87, 0
3, 59939, Note_on_c, 0, 92, 0
3, 59953, Note_on_c, 0, 54, 0
3, 59972, Note_on_c, 0, 58, 0
3, 60008, Note_on_c, 0, 59, 55
3, 60008, Note_on_c, 0, 64, 42
3, 60009, Control_c, 0, 64, 0
3, 60009, Note_on_c, 0, 86, 40
3, 60009, Note_on_c, 0, 53, 47
3, 60010, Note_on_c, 0, 88, 37
3, 60011, Note_on_c, 0, 100, 37
3, 60012, Note_on_c, 0, 98, 34
3, 60028, Control_c, 0, 64, 127
3, 60035, Note_on_c, 0, 64, 0
3, 60038, Note_on_c, 0, 59, 0
3, 60047, Note_on_c, 0, 53, 0
3, 60047, Note_on_c, 0, 100, 0
3, 60048, Note_on_c, 0, 98, 0
3, 60054, Note_on_c, 0, 88, 0
3, 60056, Note_on_c, 0, 86, 0
3, 60077, Note_on_c, 0, 43, 63
3, 60130, Note_on_c, 0, 76, 70
3, 60132, Note_on_c, 0, 69, 69
3, 60145, Note_on_c, 0, 43, 0
3, 60176, Note_on_c, 0, 69, 0
3, 60181, Note_on_c, 0, 76, 0
3, 60185, Note_on_c, 0, 73, 33
3, 60190, Note_on_c, 0, 64, 34
3, 60217, Note_on_c, 0, 64, 0
3, 60231, Note_on_c, 0, 73, 0
3, 60250, Note_on_c, 0, 76, 60
3, 60251, Note_on_c, 0, 48, 37
3, 60252, Note_on_c, 0, 68, 49
3, 60253, Note_on_c, 0, 72, 41
3, 60254, Note_on_c, 0, 58, 32
3, 60254, Note_on_c, 0, 64, 43
3, 60261, Control_c, 0, 64, 0
3, 60291, Note_on_c, 0, 48, 0
3, 60296, Control_c, 0, 64, 127
3, 60303, Note_on_c, 0, 72, 0
3, 60308, Note_on_c, 0, 58, 0
3, 60309, Note_on_c, 0, 64, 0
3, 60311, Note_on_c, 0, 68, 0
3, 60312, Note_on_c, 0, 48, 45
3, 60360, Note_on_c, 0, 76, 0
3, 60367, Note_on_c, 0, 73, 32
3, 60371, Note_on_c, 0, 64, 36
3, 60372, Note_on_c, 0, 69, 41
3, 60373, Note_on_c, 0, 58, 37
3, 60395, Note_on_c, 0, 48, 0
3, 60413, Note_on_c, 0, 69, 0
3, 60426, Note_on_c, 0, 64, 0
3, 60429, Note_on_c, 0, 73, 0
3, 60429, Note_on_c, 0, 48, 44
3, 60431, Note_on_c, 0, 58, 0
3, 60488, Note_on_c, 0, 67, 54
3, 60488, Note_on_c, 0, 62, 44
3, 60489, Note_on_c, 0, 72, 39
3, 60490, Note_on_c, 0, 57, 42
3, 60492, Control_c, 0, 64, 0
3, 60521, Control_c, 0, 64, 127
3, 60624, Note_on_c, 0, 62, 0
3, 60627, Note_on_c, 0, 72, 0
3, 60627, Note_on_c, 0, 67, 0
3, 60652, Note_on_c, 0, 48, 0
3, 60672, Note_on_c, 0, 57, 0
3, 60783, Note_on_c, 0, 54, 57
3, 60786, Note_on_c, 0, 83, 65
3, 60787, Control_c, 0, 64, 0
3, 60788, Note_on_c, 0, 71, 64
3, 60788, Note_on_c, 0, 59, 55
3, 60788, Note_on_c, 0, 76, 51
3, 60789, Note_on_c, 0, 64, 38
3, 60797, Control_c, 0, 64, 127
3, 60803, Note_on_c, 0, 64, 0
3, 60809, Note_on_c, 0, 59, 0
3, 60812, Note_on_c, 0, 71, 0
3, 60812, Note_on_c, 0, 76, 0
3, 60814, Note_on_c, 0, 54, 0
3, 60824, Note_on_c, 0, 83, 0
3, 60837, Control_c, 0, 64, 0
3, 60844, Note_on_c, 0, 55, 54
3, 60844, Note_on_c, 0, 84, 71
3, 60844, Note_on_c, 0, 72, 62
3, 60845, Note_on_c, 0, 65, 44
3, 60846, Note_on_c, 0, 79, 50
3, 60850, Note_on_c, 0, 60, 33
3, 60855, Control_c, 0, 64, 127
3, 60857, Note_on_c, 0, 65, 0
3, 60858, Note_on_c, 0, 60, 0
3, 60863, Note_on_c, 0, 55, 0
3, 60867, Note_on_c, 0, 72, 0
3, 60876, Note_on_c, 0, 84, 0
3, 60876, Note_on_c, 0, 79, 0
3, 60902, Control_c, 0, 64, 0
3, 60906, Note_on_c, 0, 86, 74
3, 60906, Note_on_c, 0, 61, 57
3, 60909, Note_on_c, 0, 74, 52
3, 60909, Note_on_c, 0, 79, 55
3, 60912, Note_on_c, 0, 65, 33
3, 60913, Control_c, 0, 64, 127
3, 60919, Note_on_c, 0, 65, 0
3, 60923, Note_on_c, 0, 74, 0
3, 60926, Note_on_c, 0, 79, 0
3, 60926, Note_on_c, 0, 61, 0
3, 60934, Note_on_c, 0, 86, 0
3, 60974, Control_c, 0, 64, 0
3, 60990, Control_c, 0, 64, 127
3, 61029, Control_c, 0, 64, 0
3, 61037, Note_on_c, 0, 62, 47
3, 61038, Note_on_c, 0, 58, 44
3, 61039, Note_on_c, 0, 53, 39
3, 61040, Note_on_c, 0, 88, 66
3, 61040, Note_on_c, 0, 57, 47
3, 61042, Note_on_c, 0, 76, 58
3, 61044, Note_on_c, 0, 82, 37
3, 61048, Control_c, 0, 64, 127
3, 61066, Note_on_c, 0, 76, 0
3, 61070, Note_on_c, 0, 82, 0
3, 61080, Note_on_c, 0, 88, 0
3, 61085, Note_on_c, 0, 53, 0
3, 61085, Note_on_c, 0, 62, 0
3, 61089, Note_on_c, 0, 57, 0
3, 61090, Note_on_c, 0, 58, 0
3, 61122, Control_c, 0, 64, 0
3, 61125, Note_on_c, 0, 62, 63
3, 61125, Note_on_c, 0, 58, 55
3, 61125, Note_on_c, 0, 53, 60
3, 61126, Note_on_c, 0, 89, 67
3, 61126, Note_on_c, 0, 57, 56
3, 61127, Note_on_c, 0, 77, 60
3, 61129, Note_on_c, 0, 84, 58
3, 61137, Control_c, 0, 64, 127
3, 61166, Note_on_c, 0, 84, 0
3, 61167, Note_on_c, 0, 62, 0
3, 61168, Note_on_c, 0, 57, 0
3, 61168, Note_on_c, 0, 77, 0
3, 61170, Note_on_c, 0, 89, 0
3, 61172, Note_on_c, 0, 53, 0
3, 61182, Note_on_c, 0, 58, 0
3, 61200, Control_c, 0, 64, 0
3, 61207, Note_on_c, 0, 63, 69
3, 61207, Note_on_c, 0, 90, 52
3, 61209, Note_on_c, 0, 78, 48
3, 61209, Note_on_c, 0, 85, 62
3, 61209, Note_on_c, 0, 58, 46
3, 61210, Note_on_c, 0, 52, 50
3, 61222, Control_c, 0, 64, 127
3, 61231, Note_on_c, 0, 63, 0
3, 61240, Note_on_c, 0, 52, 0
3, 61259, Note_on_c, 0, 58, 0
3, 61269, Note_on_c, 0, 85, 0
3, 61273, Note_on_c, 0, 78, 0
3, 61280, Note_on_c, 0, 90, 0
3, 61319, Control_c, 0, 64, 0
3, 61325, Note_on_c, 0, 58, 44
3, 61326, Note_on_c, 0, 48, 45
3, 61327, Note_on_c, 0, 91, 55
3, 61328, Note_on_c, 0, 86, 57
3, 61328, Note_on_c, 0, 79, 47
3, 61339, Control_c, 0, 64, 127
3, 61340, Note_on_c, 0, 58, 0
3, 61343, Note_on_c, 0, 48, 0
3, 61360, Note_on_c, 0, 79, 0
3, 61365, Note_on_c, 0, 86, 0
3, 61371, Note_on_c, 0, 91, 0
3, 61431, Note_on_c, 0, 41, 24
3, 61433, Control_c, 0, 64, 0
3, 61439, Note_on_c, 0, 93, 63
3, 61439, Note_on_c, 0, 81, 53
3, 61440, Note_on_c, 0, 88, 57
3, 61442, Note_on_c, 0, 57, 42
3, 61453, Note_on_c, 0, 41, 0
3, 61453, Control_c, 0, 64, 127
3, 61464, Note_on_c, 0, 57, 0
3, 61494, Note_on_c, 0, 93, 0
3, 61498, Note_on_c, 0, 88, 0
3, 61503, Note_on_c, 0, 81, 0
3, 61629, Note_on_c, 0, 63, 62
3, 61629, Note_on_c, 0, 57, 71
3, 61629, Note_on_c, 0, 67, 72
3, 61631, Note_on_c, 0, 94, 81
3, 61631, Note_on_c, 0, 82, 75
3, 61634, Note_on_c, 0, 88, 58
3, 61642, Note_on_c, 0, 88, 0
3, 61656, Note_on_c, 0, 67, 0
3, 61659, Note_on_c, 0, 57, 0
3, 61667, Note_on_c, 0, 63, 0
3, 61674, Note_on_c, 0, 82, 0
3, 61677, Note_on_c, 0, 94, 0
3, 61691, Control_c, 0, 64, 0
3, 61692, Note_on_c, 0, 66, 69
3, 61692, Note_on_c, 0, 61, 60
3, 61694, Note_on_c, 0, 55, 66
3, 61694, Note_on_c, 0, 95, 58
3, 61694, Note_on_c, 0, 88, 65
3, 61696, Note_on_c, 0, 83, 50
3, 61699, Note_on_c, 0, 91, 40
3, 61707, Control_c, 0, 64, 127
3, 61734, Note_on_c, 0, 88, 0
3, 61737, Note_on_c, 0, 91, 0
3, 61746, Note_on_c, 0, 55, 0
3, 61747, Note_on_c, 0, 61, 0
3, 61748, Note_on_c, 0, 83, 0
3, 61750, Note_on_c, 0, 66, 0
3, 61753, Note_on_c, 0, 95, 0
3, 61801, Note_on_c, 0, 64, 55
3, 61801, Note_on_c, 0, 55, 62
3, 61803, Note_on_c, 0, 96, 59
3, 61803, Note_on_c, 0, 91, 60
3, 61806, Note_on_c, 0, 84, 40
3, 61807, Note_on_c, 0, 60, 44
3, 61825, Note_on_c, 0, 84, 0
3, 61832, Note_on_c, 0, 64, 0
3, 61834, Note_on_c, 0, 60, 0
3, 61835, Note_on_c, 0, 91, 0
3, 61836, Note_on_c, 0, 96, 0
3, 61837, Note_on_c, 0, 55, 0
3, 61913, Control_c, 0, 64, 0
3, 61921, Note_on_c, 0, 59, 50
3, 61921, Note_on_c, 0, 64, 46
3, 61922, Note_on_c, 0, 53, 44
3, 61923, Note_on_c, 0, 97, 62
3, 61925, Note_on_c, 0, 85, 59
3, 61935, Control_c, 0, 64, 127
3, 61941, Note_on_c, 0, 64, 0
3, 61946, Note_on_c, 0, 59, 0
3, 61955, Note_on_c, 0, 53, 0
3, 61989, Note_on_c, 0, 43, 56
3, 62000, Note_on_c, 0, 43, 0
3, 62000, Note_on_c, 0, 85, 0
3, 62004, Note_on_c, 0, 97, 0
3, 62161, Note_on_c, 0, 70, 64
3, 62163, Note_on_c, 0, 63, 70
3, 62163, Note_on_c, 0, 59, 71
3, 62163, Note_on_c, 0, 49, 59
3, 62164, Note_on_c, 0, 53, 70
3, 62164, Note_on_c, 0, 67, 65
3, 62164, Note_on_c, 0, 58, 70
3, 62175, Control_c, 0, 64, 0
3, 62211, Control_c, 0, 64, 127
3, 62253, Note_on_c, 0, 59, 0
3, 62258, Note_on_c, 0, 67, 0
3, 62260, Note_on_c, 0, 49, 0
3, 62260, Note_on_c, 0, 58, 0
3, 62263, Note_on_c, 0, 53, 0
3, 62266, Note_on_c, 0, 63, 0
3, 62267, Note_on_c, 0, 70, 0
3, 62282, Note_on_c, 0, 68, 56
3, 62283, Note_on_c, 0, 49, 46
3, 62284, Note_on_c, 0, 63, 47
3, 62284, Note_on_c, 0, 53, 48
3, 62285, Note_on_c, 0, 59, 32
3, 62285, Note_on_c, 0, 58, 52
3, 62293, Control_c, 0, 64, 0
3, 62301, Control_c, 0, 64, 127
3, 62305, Note_on_c, 0, 59, 0
3, 62333, Note_on_c, 0, 58, 0
3, 62337, Note_on_c, 0, 53, 0
3, 62338, Note_on_c, 0, 49, 0
3, 62342, Note_on_c, 0, 63, 0
3, 62371, Note_on_c, 0, 68, 0
3, 62401, Note_on_c, 0, 65, 41
3, 62402, Note_on_c, 0, 60, 41
3, 62402, Note_on_c, 0, 48, 44
3, 62403, Control_c, 0, 64, 0
3, 62403, Note_on_c, 0, 69, 48
3, 62405, Note_on_c, 0, 57, 30
3, 62456, Note_on_c, 0, 60, 0
3, 62468, Note_on_c, 0, 68, 60
3, 62469, Note_on_c, 0, 69, 0
3, 62474, Note_on_c, 0, 57, 0
3, 62474, Note_on_c, 0, 56, 29
3, 62494, Note_on_c, 0, 65, 0
3, 62495, Control_c, 0, 64, 127
3, 62512, Note_on_c, 0, 68, 0
3, 62513, Control_c, 0, 64, 0
3, 62521, Note_on_c, 0, 56, 0
3, 62527, Note_on_c, 0, 57, 40
3, 62527, Note_on_c, 0, 69, 54
3, 62530, Note_on_c, 0, 60, 32
3, 62532, Note_on_c, 0, 65, 37
3, 62543, Control_c, 0, 64, 127
3, 62565, Note_on_c, 0, 65, 0
3, 62571, Note_on_c, 0, 60, 0
3, 62572, Note_on_c, 0, 69, 0
3, 62576, Note_on_c, 0, 57, 0
3, 62576, Control_c, 0, 64, 0
3, 62585, Note_on_c, 0, 56, 35
3, 62585, Note_on_c, 0, 68, 37
3, 62588, Control_c, 0, 64, 127
3, 62624, Note_on_c, 0, 68, 0
3, 62626, Note_on_c, 0, 56, 0
3, 62630, Control_c, 0, 64, 0
3, 62644, Note_on_c, 0, 57, 33
3, 62644, Note_on_c, 0, 69, 48
3, 62646, Note_on_c, 0, 60, 42
3, 62649, Note_on_c, 0, 65, 37
3, 62657, Note_on_c, 0, 48, 0
3, 62657, Control_c, 0, 64, 127
3, 62680, Note_on_c, 0, 60, 0
3, 62687, Note_on_c, 0, 69, 0
3, 62688, Note_on_c, 0, 65, 0
3, 62704, Note_on_c, 0, 70, 43
3, 62710, Note_on_c, 0, 58, 30
3, 62726, Note_on_c, 0, 58, 0
3, 62726, Note_on_c, 0, 57, 0
3, 62739, Note_on_c, 0, 70, 0
3, 62756, Control_c, 0, 64, 0
3, 62758, Note_on_c, 0, 71, 54
3, 62762, Note_on_c, 0, 60, 34
3, 62762, Note_on_c, 0, 65, 44
3, 62764, Note_on_c, 0, 59, 41
3, 62774, Control_c, 0, 64, 127
3, 62776, Note_on_c, 0, 59, 0
3, 62787, Note_on_c, 0, 60, 0
3, 62795, Note_on_c, 0, 65, 0
3, 62809, Note_on_c, 0, 71, 0
3, 62820, Note_on_c, 0, 48, 41
3, 62876, Control_c, 0, 64, 0
3, 62877, Note_on_c, 0, 72, 53
3, 62878, Note_on_c, 0, 67, 53
3, 62879, Note_on_c, 0, 69, 50
3, 62879, Note_on_c, 0, 64, 47
3, 62880, Note_on_c, 0, 60, 58
3, 62882, Note_on_c, 0, 57, 44
3, 62904, Control_c, 0, 64, 127
3, 62927, Note_on_c, 0, 48, 0
3, 62931, Note_on_c, 0, 60, 0
3, 62931, Note_on_c, 0, 57, 0
3, 62936, Note_on_c, 0, 69, 0
3, 62937, Note_on_c, 0, 72, 0
3, 62939, Note_on_c, 0, 48, 54
3, 62940, Note_on_c, 0, 67, 0
3, 62941, Note_on_c, 0, 71, 44
3, 62955, Note_on_c, 0, 64, 0
3, 62977, Note_on_c, 0, 71, 0
3, 62993, Control_c, 0, 64, 0
3, 62995, Note_on_c, 0, 72, 59
3, 62997, Note_on_c, 0, 67, 55
3, 62998, Note_on_c, 0, 64, 45
3, 62998, Note_on_c, 0, 60, 39
3, 62998, Note_on_c, 0, 57, 45
3, 63004, Control_c, 0, 64, 127
3, 63021, Note_on_c, 0, 72, 0
3, 63024, Note_on_c, 0, 60, 0
3, 63031, Note_on_c, 0, 48, 0
3, 63042, Note_on_c, 0, 64, 0
3, 63047, Note_on_c, 0, 67, 0
3, 63052, Note_on_c, 0, 57, 0
3, 63057, Note_on_c, 0, 48, 46
3, 63058, Note_on_c, 0, 74, 62
3, 63078, Note_on_c, 0, 74, 0
3, 63114, Control_c, 0, 64, 0
3, 63118, Note_on_c, 0, 75, 57
3, 63120, Note_on_c, 0, 54, 35
3, 63122, Note_on_c, 0, 60, 53
3, 63122, Note_on_c, 0, 63, 51
3, 63123, Note_on_c, 0, 69, 55
3, 63145, Control_c, 0, 64, 127
3, 63159, Note_on_c, 0, 60, 0
3, 63171, Note_on_c, 0, 48, 0
3, 63174, Note_on_c, 0, 54, 0
3, 63174, Note_on_c, 0, 69, 0
3, 63183, Note_on_c, 0, 63, 0
3, 63191, Note_on_c, 0, 75, 0
3, 63235, Note_on_c, 0, 44, 52
3, 63236, Note_on_c, 0, 54, 46
3, 63237, Control_c, 0, 64, 0
3, 63237, Note_on_c, 0, 76, 47
3, 63238, Note_on_c, 0, 70, 44
3, 63239, Note_on_c, 0, 64, 42
3, 63241, Note_on_c, 0, 73, 23
3, 63264, Control_c, 0, 64, 127
3, 63282, Note_on_c, 0, 54, 0
3, 63285, Note_on_c, 0, 64, 0
3, 63286, Note_on_c, 0, 44, 0
3, 63291, Note_on_c, 0, 76, 0
3, 63293, Note_on_c, 0, 70, 0
3, 63294, Note_on_c, 0, 73, 0
3, 63361, Control_c, 0, 64, 0
3, 63362, Note_on_c, 0, 77, 53
3, 63363, Note_on_c, 0, 69, 68
3, 63364, Note_on_c, 0, 65, 59
3, 63365, Note_on_c, 0, 50, 66
3, 63366, Note_on_c, 0, 72, 49
3, 63366, Note_on_c, 0, 62, 36
3, 63368, Note_on_c, 0, 60, 47
3, 63381, Note_on_c, 0, 62, 0
3, 63392, Control_c, 0, 64, 127
3, 63394, Note_on_c, 0, 65, 0
3, 63399, Note_on_c, 0, 50, 0
3, 63402, Note_on_c, 0, 60, 0
3, 63406, Note_on_c, 0, 69, 0
3, 63411, Note_on_c, 0, 72, 0
3, 63421, Note_on_c, 0, 77, 0
3, 63478, Note_on_c, 0, 86, 80
3, 63479, Note_on_c, 0, 55, 75
3, 63480, Note_on_c, 0, 81, 80
3, 63480, Note_on_c, 0, 65, 72
3, 63481, Note_on_c, 0, 60, 66
3, 63481, Note_on_c, 0, 74, 73
3, 63483, Control_c, 0, 64, 0
3, 63519, Control_c, 0, 64, 127
3, 63539, Note_on_c, 0, 60, 0
3, 63540, Note_on_c, 0, 65, 0
3, 63543, Note_on_c, 0, 55, 0
3, 63552, Note_on_c, 0, 86, 0
3, 63559, Note_on_c, 0, 74, 0
3, 63559, Note_on_c, 0, 81, 0
3, 63600, Control_c, 0, 64, 0
3, 63604, Note_on_c, 0, 64, 77
3, 63605, Note_on_c, 0, 53, 72
3, 63605, Note_on_c, 0, 59, 67
3, 63627, Control_c, 0, 64, 127
3, 63710, Note_on_c, 0, 64, 0
3, 63725, Note_on_c, 0, 65, 110
3, 63729, Note_on_c, 0, 59, 0
3, 63747, Note_on_c, 0, 53, 0
3, 63768, Note_on_c, 0, 65, 0
3, 63772, Note_on_c, 0, 67, 57
3, 63787, Note_on_c, 0, 65, 51
3, 63794, Note_on_c, 0, 67, 0
3, 63809, Note_on_c, 0, 62, 50
3, 63811, Note_on_c, 0, 65, 0
3, 63834, Note_on_c, 0, 62, 0
3, 63837, Note_on_c, 0, 63, 59
3, 63855, Note_on_c, 0, 63, 0
3, 63861, Note_on_c, 0, 64, 62
3, 63862, Note_on_c, 0, 48, 48
3, 63863, Note_on_c, 0, 58, 37
3, 63863, Control_c, 0, 64, 0
3, 63905, Note_on_c, 0, 73, 52
3, 63939, Control_c, 0, 64, 127
3, 63965, Note_on_c, 0, 48, 0
3, 63971, Note_on_c, 0, 73, 0
3, 63971, Note_on_c, 0, 69, 60
3, 63972, Note_on_c, 0, 64, 0
3, 63987, Note_on_c, 0, 58, 0
3, 64004, Note_on_c, 0, 69, 0
3, 64007, Note_on_c, 0, 73, 44
3, 64020, Note_on_c, 0, 73, 0
3, 64037, Note_on_c, 0, 76, 33
3, 64051, Note_on_c, 0, 76, 0
3, 64065, Note_on_c, 0, 81, 66
3, 64089, Note_on_c, 0, 85, 64
3, 64091, Note_on_c, 0, 81, 0
3, 64099, Note_on_c, 0, 64, 22
3, 64099, Note_on_c, 0, 58, 31
3, 64103, Note_on_c, 0, 85, 0
3, 64108, Note_on_c, 0, 64, 0
3, 64120, Note_on_c, 0, 88, 70
3, 64123, Note_on_c, 0, 58, 0
3, 64145, Note_on_c, 0, 88, 0
3, 64154, Note_on_c, 0, 93, 36
3, 64155, Note_on_c, 0, 91, 36
3, 64155, Note_on_c, 0, 92, 25
3, 64167, Note_on_c, 0, 91, 0
3, 64168, Note_on_c, 0, 93, 0
3, 64180, Note_on_c, 0, 97, 58
3, 64187, Note_on_c, 0, 92, 0
3, 64195, Note_on_c, 0, 97, 0
3, 64215, Note_on_c, 0, 98, 41
3, 64219, Note_on_c, 0, 100, 34
3, 64228, Note_on_c, 0, 100, 0
3, 64231, Note_on_c, 0, 98, 0
3, 64245, Note_on_c, 0, 103, 50
3, 64262, Note_on_c, 0, 103, 0
3, 64276, Note_on_c, 0, 106, 14
3, 64296, Note_on_c, 0, 106, 0
3, 64298, Note_on_c, 0, 108, 65
3, 64318, Note_on_c, 0, 108, 0
3, 64329, Note_on_c, 0, 48, 39
3, 64331, Note_on_c, 0, 57, 51
3, 64332, Note_on_c, 0, 41, 24
3, 64340, Control_c, 0, 64, 0
3, 64367, Note_on_c, 0, 57, 0
3, 64431, Note_on_c, 0, 48, 0
3, 64446, Note_on_c, 0, 48, 63
3, 64545, Note_on_c, 0, 48, 0
3, 64556, Control_c, 0, 64, 127
3, 64563, Note_on_c, 0, 48, 54
3, 64593, Note_on_c, 0, 41, 0
3, 64676, Note_on_c, 0, 41, 45
3, 64740, Note_on_c, 0, 41, 0
3, 64750, Note_on_c, 0, 48, 0
3, 64793, Note_on_c, 0, 42, 49
3, 64795, Control_c, 0, 64, 0
3, 64809, Note_on_c, 0, 42, 0
3, 64813, Control_c, 0, 64, 127
3, 64873, Note_on_c, 0, 65, 42
3, 64873, Note_on_c, 0, 54, 33
3, 64876, Note_on_c, 0, 58, 35
3, 64880, Note_on_c, 0, 60, 33
3, 64906, Note_on_c, 0, 106, 49
3, 64922, Note_on_c, 0, 104, 42
3, 64932, Note_on_c, 0, 106, 0
3, 64934, Note_on_c, 0, 102, 45
3, 64939, Note_on_c, 0, 104, 0
3, 64948, Note_on_c, 0, 102, 0
3, 64953, Note_on_c, 0, 101, 30
3, 64960, Note_on_c, 0, 101, 0
3, 64973, Note_on_c, 0, 99, 49
3, 64985, Note_on_c, 0, 65, 0
3, 64985, Note_on_c, 0, 97, 53
3, 64987, Note_on_c, 0, 99, 0
3, 64998, Note_on_c, 0, 97, 0
3, 65003, Note_on_c, 0, 96, 73
3, 65008, Note_on_c, 0, 58, 0
3, 65019, Note_on_c, 0, 96, 0
3, 65021, Note_on_c, 0, 94, 62
3, 65029, Note_on_c, 0, 60, 0
3, 65036, Note_on_c, 0, 92, 33
3, 65044, Note_on_c, 0, 92, 0
3, 65044, Note_on_c, 0, 90, 52
3, 65049, Note_on_c, 0, 94, 0
3, 65060, Note_on_c, 0, 90, 0
3, 65066, Note_on_c, 0, 89, 34
3, 65074, Note_on_c, 0, 89, 0
3, 65081, Note_on_c, 0, 87, 52
3, 65095, Note_on_c, 0, 85, 45
3, 65098, Note_on_c, 0, 87, 0
3, 65106, Note_on_c, 0, 65, 17
3, 65106, Note_on_c, 0, 60, 27
3, 65108, Note_on_c, 0, 85, 0
3, 65111, Note_on_c, 0, 58, 20
3, 65114, Note_on_c, 0, 84, 36
3, 65121, Note_on_c, 0, 84, 0
3, 65135, Note_on_c, 0, 82, 27
3, 65144, Note_on_c, 0, 80, 37
3, 65152, Note_on_c, 0, 82, 0
3, 65155, Note_on_c, 0, 65, 0
3, 65160, Note_on_c, 0, 80, 0
3, 65163, Note_on_c, 0, 79, 44
3, 65185, Note_on_c, 0, 79, 0
3, 65186, Note_on_c, 0, 78, 51
3, 65193, Note_on_c, 0, 54, 0
3, 65200, Note_on_c, 0, 60, 0
3, 65202, Note_on_c, 0, 78, 0
3, 65208, Note_on_c, 0, 58, 0
3, 65209, Note_on_c, 0, 77, 20
3, 65221, Note_on_c, 0, 77, 0
3, 65222, Note_on_c, 0, 76, 33
3, 65236, Note_on_c, 0, 75, 47
3, 65237, Note_on_c, 0, 76, 0
3, 65250, Note_on_c, 0, 75, 0
3, 65256, Note_on_c, 0, 74, 55
3, 65277, Note_on_c, 0, 73, 44
3, 65278, Note_on_c, 0, 74, 0
3, 65295, Note_on_c, 0, 73, 0
3, 65295, Note_on_c, 0, 60, 46
3, 65295, Note_on_c, 0, 65, 42
3, 65298, Note_on_c, 0, 53, 33
3, 65298, Note_on_c, 0, 72, 44
3, 65299, Note_on_c, 0, 57, 41
3, 65304, Control_c, 0, 64, 0
3, 65326, Note_on_c, 0, 70, 59
3, 65329, Note_on_c, 0, 72, 0
3, 65340, Note_on_c, 0, 65, 0
3, 65346, Note_on_c, 0, 70, 0
3, 65352, Note_on_c, 0, 69, 47
3, 65381, Control_c, 0, 64, 127
3, 65409, Note_on_c, 0, 60, 0
3, 65422, Note_on_c, 0, 69, 0
3, 65422, Note_on_c, 0, 70, 64
3, 65434, Note_on_c, 0, 60, 32
3, 65438, Note_on_c, 0, 70, 0
3, 65439, Note_on_c, 0, 71, 59
3, 65446, Control_c, 0, 64, 0
3, 65459, Note_on_c, 0, 71, 0
3, 65460, Note_on_c, 0, 72, 62
3, 65475, Note_on_c, 0, 60, 0
3, 65485, Note_on_c, 0, 69, 39
3, 65487, Note_on_c, 0, 72, 0
3, 65501, Note_on_c, 0, 69, 0
3, 65515, Note_on_c, 0, 57, 0
3, 65520, Note_on_c, 0, 64, 53
3, 65534, Note_on_c, 0, 53, 0
3, 65538, Note_on_c, 0, 64, 0
3, 65546, Note_on_c, 0, 67, 64
3, 65568, Note_on_c, 0, 49, 20
3, 65571, Note_on_c, 0, 65, 58
3, 65574, Note_on_c, 0, 49, 0
3, 65578, Note_on_c, 0, 67, 0
3, 65593, Note_on_c, 0, 65, 0
3, 65602, Note_on_c, 0, 60, 64
3, 65611, Note_on_c, 0, 60, 0
3, 65635, Note_on_c, 0, 57, 55
3, 65653, Note_on_c, 0, 57, 0
3, 65663, Note_on_c, 0, 55, 62
3, 65674, Note_on_c, 0, 55, 0
3, 65686, Note_on_c, 0, 48, 29
3, 65687, Note_on_c, 0, 41, 38
3, 65691, Note_on_c, 0, 60, 58
3, 65714, Note_on_c, 0, 60, 0
3, 65721, Note_on_c, 0, 57, 64
3, 65739, Note_on_c, 0, 57, 0
3, 65748, Note_on_c, 0, 58, 53
3, 65759, Note_on_c, 0, 41, 0
3, 65761, Control_c, 0, 64, 127
3, 65766, Note_on_c, 0, 58, 0
3, 65772, Note_on_c, 0, 60, 25
3, 65780, Note_on_c, 0, 48, 0
3, 65791, Note_on_c, 0, 42, 45
3, 65795, Note_on_c, 0, 53, 28
3, 65796, Note_on_c, 0, 60, 0
3, 65800, Control_c, 0, 64, 0
3, 65801, Note_on_c, 0, 61, 45
3, 65828, Note_on_c, 0, 61, 0
3, 65830, Note_on_c, 0, 63, 50
3, 65840, Control_c, 0, 64, 127
3, 65842, Note_on_c, 0, 63, 0
3, 65850, Note_on_c, 0, 65, 57
3, 65864, Note_on_c, 0, 65, 0
3, 65867, Note_on_c, 0, 66, 52
3, 65879, Note_on_c, 0, 49, 25
3, 65886, Note_on_c, 0, 66, 0
3, 65886, Note_on_c, 0, 68, 28
3, 65896, Note_on_c, 0, 68, 0
3, 65896, Note_on_c, 0, 70, 38
3, 65903, Note_on_c, 0, 70, 0
3, 65910, Note_on_c, 0, 49, 0
3, 65915, Note_on_c, 0, 72, 41
3, 65924, Note_on_c, 0, 72, 0
3, 65927, Note_on_c, 0, 73, 38
3, 65941, Note_on_c, 0, 75, 46
3, 65942, Note_on_c, 0, 73, 0
3, 65950, Note_on_c, 0, 75, 0
3, 65955, Note_on_c, 0, 42, 0
3, 65959, Note_on_c, 0, 77, 47
3, 65972, Note_on_c, 0, 78, 42
3, 65974, Note_on_c, 0, 77, 0
3, 65987, Note_on_c, 0, 80, 36
3, 65988, Note_on_c, 0, 78, 0
3, 65994, Note_on_c, 0, 80, 0
3, 66016, Note_on_c, 0, 84, 50
3, 66024, Note_on_c, 0, 84, 0
3, 66024, Note_on_c, 0, 42, 51
3, 66026, Control_c, 0, 64, 0
3, 66030, Note_on_c, 0, 85, 51
3, 66044, Note_on_c, 0, 85, 0
3, 66046, Note_on_c, 0, 87, 45
3, 66053, Note_on_c, 0, 87, 0
3, 66064, Note_on_c, 0, 89, 48
3, 66069, Control_c, 0, 64, 127
3, 66078, Note_on_c, 0, 89, 0
3, 66078, Note_on_c, 0, 90, 48
3, 66093, Note_on_c, 0, 92, 42
3, 66099, Note_on_c, 0, 90, 0
3, 66102, Note_on_c, 0, 92, 0
3, 66105, Note_on_c, 0, 94, 37
3, 66111, Note_on_c, 0, 94, 0
3, 66119, Note_on_c, 0, 49, 30
3, 66120, Note_on_c, 0, 53, 0
3, 66126, Note_on_c, 0, 96, 48
3, 66132, Note_on_c, 0, 96, 0
3, 66132, Note_on_c, 0, 42, 0
3, 66135, Note_on_c, 0, 49, 0
3, 66141, Note_on_c, 0, 97, 43
3, 66150, Note_on_c, 0, 97, 0
3, 66165, Note_on_c, 0, 99, 29
3, 66181, Note_on_c, 0, 100, 29
3, 66185, Note_on_c, 0, 99, 0
3, 66200, Note_on_c, 0, 102, 29
3, 66201, Note_on_c, 0, 100, 0
3, 66214, Note_on_c, 0, 103, 44
3, 66216, Note_on_c, 0, 30, 33
3, 66220, Note_on_c, 0, 102, 0
3, 66221, Note_on_c, 0, 42, 1
3, 66229, Note_on_c, 0, 42, 0
3, 66235, Note_on_c, 0, 30, 0
3, 66242, Note_on_c, 0, 103, 0
3, 66248, Note_on_c, 0, 29, 61
3, 66249, Note_on_c, 0, 41, 62
3, 66253, Note_on_c, 0, 108, 73
3, 66253, Note_on_c, 0, 107, 48
3, 66262, Note_on_c, 0, 107, 0
3, 66298, Control_c, 0, 64, 0
3, 66303, Note_on_c, 0, 108, 0
3, 66973, Note_on_c, 0, 41, 0
3, 67082, Note_on_c, 0, 29, 0
3, 67082, End_track
4, 0, Start_track
4, 0, Title_t, "Track 3"
4, 0, Control_c, 1, 0, 0
4, 0, Control_c, 1, 7, 107
4, 0, Program_c, 1, 32
4, 32640, Note_on_c, 1, 41, 46
4, 32876, Note_on_c, 1, 41, 0
4, 32896, Note_on_c, 1, 36, 42
4, 33100, Note_on_c, 1, 45, 68
4, 33116, Note_on_c, 1, 36, 0
4, 33120, Note_on_c, 1, 45, 0
4, 33140, Note_on_c, 1, 43, 46
4, 33151, Note_on_c, 1, 43, 0
4, 33216, Note_on_c, 1, 38, 52
4, 33238, Note_on_c, 1, 38, 0
4, 33254, Note_on_c, 1, 35, 57
4, 33362, Note_on_c, 1, 35, 0
4, 33372, Note_on_c, 1, 36, 45
4, 33567, Note_on_c, 1, 34, 35
4, 33590, Note_on_c, 1, 36, 0
4, 33598, Note_on_c, 1, 34, 0
4, 33607, Note_on_c, 1, 41, 55
4, 33712, Note_on_c, 1, 41, 0
4, 33723, Note_on_c, 1, 36, 59
4, 33833, Note_on_c, 1, 36, 0
4, 33838, Note_on_c, 1, 33, 58
4, 33952, Note_on_c, 1, 33, 0
4, 33962, Note_on_c, 1, 32, 64
4, 34068, Note_on_c, 1, 32, 0
4, 34080, Note_on_c, 1, 31, 48
4, 34295, Note_on_c, 1, 38, 49
4, 34306, Note_on_c, 1, 38, 0
4, 34331, Note_on_c, 1, 43, 61
4, 34410, Note_on_c, 1, 42, 45
4, 34411, Note_on_c, 1, 43, 0
4, 34412, Note_on_c, 1, 38, 32
4, 34423, Note_on_c, 1, 38, 0
4, 34431, Note_on_c, 1, 42, 0
4, 34444, Note_on_c, 1, 43, 40
4, 34536, Note_on_c, 1, 38, 49
4, 34548, Note_on_c, 1, 38, 0
4, 34552, Note_on_c, 1, 43, 0
4, 34561, Note_on_c, 1, 31, 0
4, 34565, Note_on_c, 1, 43, 70
4, 34729, Note_on_c, 1, 43, 0
4, 34731, Note_on_c, 1, 38, 55
4, 34752, Note_on_c, 1, 38, 0
4, 34769, Note_on_c, 1, 37, 51
4, 34786, Note_on_c, 1, 37, 0
4, 34804, Note_on_c, 1, 36, 58
4, 34956, Note_on_c, 1, 36, 0
4, 34958, Note_on_c, 1, 35, 64
4, 34979, Note_on_c, 1, 35, 0
4, 35000, Note_on_c, 1, 34, 63
4, 35018, Note_on_c, 1, 34, 0
4, 35040, Note_on_c, 1, 33, 67
4, 35261, Note_on_c, 1, 37, 35
4, 35270, Note_on_c, 1, 33, 0
4, 35284, Note_on_c, 1, 37, 0
4, 35293, Note_on_c, 1, 38, 57
4, 35499, Note_on_c, 1, 34, 39
4, 35511, Note_on_c, 1, 38, 0
4, 35527, Note_on_c, 1, 34, 0
4, 35531, Note_on_c, 1, 43, 46
4, 35594, Note_on_c, 1, 43, 0
4, 35614, Note_on_c, 1, 38, 56
4, 35636, Note_on_c, 1, 38, 0
4, 35649, Note_on_c, 1, 34, 62
4, 35826, Note_on_c, 1, 34, 0
4, 35835, Note_on_c, 1, 35, 61
4, 35866, Note_on_c, 1, 35, 0
4, 35876, Note_on_c, 1, 36, 39
4, 35957, Note_on_c, 1, 34, 40
4, 35977, Note_on_c, 1, 36, 0
4, 35986, Note_on_c, 1, 34, 0
4, 35987, Note_on_c, 1, 50, 68
4, 36073, Note_on_c, 1, 36, 29
4, 36086, Note_on_c, 1, 50, 0
4, 36092, Note_on_c, 1, 36, 0
4, 36103, Note_on_c, 1, 49, 60
4, 36199, Note_on_c, 1, 36, 20
4, 36214, Note_on_c, 1, 36, 0
4, 36218, Note_on_c, 1, 49, 0
4, 36230, Note_on_c, 1, 48, 45
4, 36317, Note_on_c, 1, 36, 33
4, 36326, Note_on_c, 1, 36, 0
4, 36344, Note_on_c, 1, 48, 0
4, 36347, Note_on_c, 1, 45, 58
4, 36437, Note_on_c, 1, 40, 37
4, 36440, Note_on_c, 1, 45, 0
4, 36467, Note_on_c, 1, 40, 0
4, 36475, Note_on_c, 1, 41, 53
4, 36640, Note_on_c, 1, 34, 34
4, 36641, Note_on_c, 1, 41, 0
4, 36661, Note_on_c, 1, 34, 0
4, 36679, Note_on_c, 1, 35, 50
4, 36711, Note_on_c, 1, 35, 0
4, 36722, Note_on_c, 1, 36, 49
4, 36835, Note_on_c, 1, 36, 0
4, 36840, Note_on_c, 1, 33, 49
4, 36862, Note_on_c, 1, 33, 0
4, 36885, Note_on_c, 1, 32, 69
4, 36903, Note_on_c, 1, 32, 0
4, 36938, Note_on_c, 1, 29, 25
4, 36947, Note_on_c, 1, 29, 0
4, 36971, Note_on_c, 1, 31, 75
4, 37169, Note_on_c, 1, 43, 41
4, 37188, Note_on_c, 1, 43, 0
4, 37193, Note_on_c, 1, 31, 0
4, 37210, Note_on_c, 1, 48, 71
4, 37406, Note_on_c, 1, 40, 53
4, 37416, Note_on_c, 1, 48, 0
4, 37434, Note_on_c, 1, 40, 0
4, 37441, Note_on_c, 1, 41, 50
4, 37556, Note_on_c, 1, 45, 53
4, 37558, Note_on_c, 1, 41, 0
4, 37640, Note_on_c, 1, 40, 35
4, 37666, Note_on_c, 1, 40, 0
4, 37667, Note_on_c, 1, 45, 0
4, 37677, Note_on_c, 1, 48, 47
4, 37840, Note_on_c, 1, 41, 50
4, 37844, Note_on_c, 1, 48, 0
4, 37858, Note_on_c, 1, 41, 0
4, 37875, Note_on_c, 1, 42, 49
4, 37892, Note_on_c, 1, 42, 0
4, 37912, Note_on_c, 1, 43, 41
4, 38118, Note_on_c, 1, 39, 32
4, 38138, Note_on_c, 1, 43, 0
4, 38150, Note_on_c, 1, 39, 0
4, 38154, Note_on_c, 1, 51, 65
4, 38345, Note_on_c, 1, 42, 42
4, 38356, Note_on_c, 1, 42, 0
4, 38367, Note_on_c, 1, 51, 0
4, 38382, Note_on_c, 1, 50, 49
4, 38467, Note_on_c, 1, 43, 19
4, 38477, Note_on_c, 1, 43, 0
4, 38493, Note_on_c, 1, 50, 0
4, 38506, Note_on_c, 1, 46, 47
4, 38591, Note_on_c, 1, 42, 33
4, 38599, Note_on_c, 1, 42, 0
4, 38608, Note_on_c, 1, 46, 0
4, 38623, Note_on_c, 1, 48, 49
4, 38825, Note_on_c, 1, 36, 47
4, 38845, Note_on_c, 1, 48, 0
4, 38848, Note_on_c, 1, 36, 0
4, 38859, Note_on_c, 1, 45, 57
4, 38981, Note_on_c, 1, 40, 50
4, 38997, Note_on_c, 1, 45, 0
4, 39089, Note_on_c, 1, 37, 38
4, 39090, Note_on_c, 1, 40, 0
4, 39113, Note_on_c, 1, 37, 0
4, 39119, Note_on_c, 1, 38, 51
4, 39312, Note_on_c, 1, 32, 42
4, 39328, Note_on_c, 1, 38, 0
4, 39337, Note_on_c, 1, 32, 0
4, 39350, Note_on_c, 1, 31, 42
4, 39585, Note_on_c, 1, 31, 0
4, 39589, Note_on_c, 1, 36, 56
4, 39828, Note_on_c, 1, 36, 0
4, 39829, Note_on_c, 1, 41, 54
4, 40043, Note_on_c, 1, 36, 49
4, 40057, Note_on_c, 1, 41, 0
4, 40063, Note_on_c, 1, 36, 0
4, 40084, Note_on_c, 1, 35, 48
4, 40084, Note_on_c, 1, 33, 47
4, 40116, Note_on_c, 1, 33, 0
4, 40307, Note_on_c, 1, 35, 0
4, 40313, Note_on_c, 1, 34, 45
4, 40436, Note_on_c, 1, 46, 31
4, 40508, Note_on_c, 1, 46, 0
4, 40558, Note_on_c, 1, 46, 38
4, 40591, Note_on_c, 1, 34, 0
4, 40671, Note_on_c, 1, 46, 0
4, 40681, Note_on_c, 1, 34, 51
4, 40784, Note_on_c, 1, 34, 0
4, 40805, Note_on_c, 1, 34, 53
4, 40924, Note_on_c, 1, 46, 56
4, 41021, Note_on_c, 1, 46, 0
4, 41048, Note_on_c, 1, 46, 47
4, 41060, Note_on_c, 1, 34, 0
4, 41161, Note_on_c, 1, 34, 51
4, 41163, Note_on_c, 1, 46, 0
4, 41281, Note_on_c, 1, 48, 49
4, 41285, Note_on_c, 1, 34, 0
4, 41382, Note_on_c, 1, 48, 0
4, 41399, Note_on_c, 1, 48, 55
4, 41517, Note_on_c, 1, 48, 0
4, 41523, Note_on_c, 1, 36, 47
4, 41724, Note_on_c, 1, 41, 44
4, 41738, Note_on_c, 1, 36, 0
4, 41749, Note_on_c, 1, 41, 0
4, 41764, Note_on_c, 1, 46, 49
4, 41883, Note_on_c, 1, 46, 0
4, 41883, Note_on_c, 1, 41, 44
4, 41973, Note_on_c, 1, 36, 20
4, 41982, Note_on_c, 1, 41, 0
4, 41983, Note_on_c, 1, 36, 0
4, 42000, Note_on_c, 1, 34, 54
4, 42105, Note_on_c, 1, 34, 0
4, 42128, Note_on_c, 1, 33, 65
4, 42237, Note_on_c, 1, 33, 0
4, 42241, Note_on_c, 1, 34, 49
4, 42361, Note_on_c, 1, 34, 0
4, 42362, Note_on_c, 1, 46, 45
4, 42445, Note_on_c, 1, 34, 21
4, 42459, Note_on_c, 1, 46, 0
4, 42464, Note_on_c, 1, 34, 0
4, 42486, Note_on_c, 1, 46, 57
4, 42595, Note_on_c, 1, 46, 0
4, 42601, Note_on_c, 1, 39, 53
4, 42710, Note_on_c, 1, 39, 0
4, 42718, Note_on_c, 1, 40, 47
4, 42879, Note_on_c, 1, 40, 0
4, 42884, Note_on_c, 1, 35, 41
4, 42897, Note_on_c, 1, 35, 0
4, 42918, Note_on_c, 1, 34, 57
4, 42934, Note_on_c, 1, 34, 0
4, 42958, Note_on_c, 1, 33, 50
4, 43166, Note_on_c, 1, 46, 63
4, 43183, Note_on_c, 1, 33, 0
4, 43184, Note_on_c, 1, 46, 0
4, 43207, Note_on_c, 1, 45, 62
4, 43318, Note_on_c, 1, 45, 0
4, 43331, Note_on_c, 1, 39, 53
4, 43450, Note_on_c, 1, 44, 59
4, 43457, Note_on_c, 1, 39, 0
4, 43645, Note_on_c, 1, 42, 35
4, 43645, Note_on_c, 1, 39, 25
4, 43653, Note_on_c, 1, 39, 0
4, 43657, Note_on_c, 1, 44, 0
4, 43668, Note_on_c, 1, 42, 0
4, 43683, Note_on_c, 1, 43, 32
4, 43843, Note_on_c, 1, 38, 48
4, 43861, Note_on_c, 1, 38, 0
4, 43873, Note_on_c, 1, 43, 0
4, 43883, Note_on_c, 1, 37, 47
4, 43901, Note_on_c, 1, 37, 0
4, 43925, Note_on_c, 1, 36, 51
4, 44105, Note_on_c, 1, 36, 0
4, 44131, Note_on_c, 1, 28, 50
4, 44165, Note_on_c, 1, 28, 0
4, 44180, Note_on_c, 1, 29, 39
4, 44383, Note_on_c, 1, 27, 31
4, 44405, Note_on_c, 1, 29, 0
4, 44411, Note_on_c, 1, 27, 0
4, 44420, Note_on_c, 1, 33, 45
4, 44616, Note_on_c, 1, 32, 46
4, 44623, Note_on_c, 1, 33, 0
4, 44638, Note_on_c, 1, 32, 0
4, 44651, Note_on_c, 1, 31, 42
4, 44729, Note_on_c, 1, 30, 37
4, 44748, Note_on_c, 1, 30, 0
4, 44771, Note_on_c, 1, 31, 0
4, 44775, Note_on_c, 1, 43, 38
4, 44859, Note_on_c, 1, 36, 36
4, 44880, Note_on_c, 1, 43, 0
4, 44880, Note_on_c, 1, 36, 0
4, 44892, Note_on_c, 1, 40, 41
4, 44975, Note_on_c, 1, 36, 38
4, 44990, Note_on_c, 1, 36, 0
4, 44990, Note_on_c, 1, 40, 0
4, 45007, Note_on_c, 1, 48, 49
4, 45088, Note_on_c, 1, 38, 46
4, 45107, Note_on_c, 1, 38, 0
4, 45111, Note_on_c, 1, 48, 0
4, 45119, Note_on_c, 1, 41, 47
4, 45319, Note_on_c, 1, 34, 42
4, 45338, Note_on_c, 1, 41, 0
4, 45341, Note_on_c, 1, 34, 0
4, 45354, Note_on_c, 1, 36, 48
4, 45546, Note_on_c, 1, 32, 28
4, 45563, Note_on_c, 1, 36, 0
4, 45569, Note_on_c, 1, 32, 0
4, 45581, Note_on_c, 1, 31, 45
4, 45789, Note_on_c, 1, 38, 52
4, 45801, Note_on_c, 1, 38, 0
4, 45820, Note_on_c, 1, 43, 43
4, 45900, Note_on_c, 1, 43, 0
4, 45911, Note_on_c, 1, 42, 37
4, 45911, Note_on_c, 1, 38, 22
4, 45923, Note_on_c, 1, 38, 0
4, 45933, Note_on_c, 1, 42, 0
4, 45945, Note_on_c, 1, 43, 40
4, 45969, Note_on_c, 1, 31, 0
4, 46030, Note_on_c, 1, 38, 50
4, 46044, Note_on_c, 1, 43, 0
4, 46049, Note_on_c, 1, 38, 0
4, 46072, Note_on_c, 1, 36, 55
4, 46095, Note_on_c, 1, 36, 0
4, 46187, Note_on_c, 1, 48, 81
4, 46283, Note_on_c, 1, 48, 0
4, 46311, Note_on_c, 1, 48, 68
4, 46437, Note_on_c, 1, 48, 0
4, 46438, Note_on_c, 1, 36, 80
4, 46683, Note_on_c, 1, 45, 76
4, 46696, Note_on_c, 1, 36, 0
4, 46775, Note_on_c, 1, 45, 0
4, 46776, Note_on_c, 1, 37, 47
4, 46804, Note_on_c, 1, 37, 0
4, 46810, Note_on_c, 1, 38, 59
4, 46918, Note_on_c, 1, 38, 0
4, 46928, Note_on_c, 1, 30, 57
4, 47039, Note_on_c, 1, 30, 0
4, 47046, Note_on_c, 1, 31, 57
4, 47247, Note_on_c, 1, 38, 37
4, 47261, Note_on_c, 1, 38, 0
4, 47280, Note_on_c, 1, 45, 43
4, 47288, Note_on_c, 1, 31, 0
4, 47366, Note_on_c, 1, 36, 32
4, 47387, Note_on_c, 1, 36, 0
4, 47387, Note_on_c, 1, 45, 0
4, 47397, Note_on_c, 1, 44, 44
4, 47501, Note_on_c, 1, 44, 0
4, 47509, Note_on_c, 1, 43, 29
4, 47629, Note_on_c, 1, 43, 0
4, 47630, Note_on_c, 1, 36, 62
4, 47753, Note_on_c, 1, 48, 81
4, 47760, Note_on_c, 1, 36, 0
4, 48115, Note_on_c, 1, 36, 55
4, 48116, Note_on_c, 1, 48, 0
4, 48351, Note_on_c, 1, 48, 60
4, 48375, Note_on_c, 1, 36, 0
4, 48596, Note_on_c, 1, 36, 51
4, 48599, Note_on_c, 1, 48, 0
4, 48796, Note_on_c, 1, 48, 63
4, 48797, Note_on_c, 1, 36, 0
4, 48808, Note_on_c, 1, 48, 0
4, 48837, Note_on_c, 1, 40, 49
4, 48945, Note_on_c, 1, 40, 0
4, 48957, Note_on_c, 1, 41, 45
4, 49018, Note_on_c, 1, 41, 0
4, 49041, Note_on_c, 1, 36, 51
4, 49057, Note_on_c, 1, 36, 0
4, 49077, Note_on_c, 1, 33, 44
4, 49190, Note_on_c, 1, 33, 0
4, 49200, Note_on_c, 1, 36, 39
4, 49302, Note_on_c, 1, 36, 0
4, 49311, Note_on_c, 1, 32, 49
4, 49420, Note_on_c, 1, 32, 0
4, 49427, Note_on_c, 1, 31, 38
4, 49511, Note_on_c, 1, 31, 0
4, 49526, Note_on_c, 1, 31, 40
4, 49554, Note_on_c, 1, 31, 0
4, 49557, Note_on_c, 1, 38, 59
4, 49666, Note_on_c, 1, 38, 0
4, 49673, Note_on_c, 1, 36, 44
4, 49784, Note_on_c, 1, 36, 0
4, 49788, Note_on_c, 1, 28, 49
4, 49900, Note_on_c, 1, 28, 0
4, 49901, Note_on_c, 1, 29, 49
4, 50001, Note_on_c, 1, 27, 28
4, 50023, Note_on_c, 1, 27, 0
4, 50026, Note_on_c, 1, 31, 45
4, 50028, Note_on_c, 1, 29, 0
4, 50120, Note_on_c, 1, 30, 40
4, 50123, Note_on_c, 1, 31, 0
4, 50152, Note_on_c, 1, 33, 41
4, 50161, Note_on_c, 1, 30, 0
4, 50243, Note_on_c, 1, 32, 42
4, 50257, Note_on_c, 1, 33, 0
4, 50275, Note_on_c, 1, 32, 0
4, 50276, Note_on_c, 1, 36, 35
4, 50368, Note_on_c, 1, 33, 38
4, 50380, Note_on_c, 1, 33, 0
4, 50384, Note_on_c, 1, 36, 0
4, 50395, Note_on_c, 1, 43, 34
4, 50486, Note_on_c, 1, 38, 32
4, 50496, Note_on_c, 1, 43, 0
4, 50499, Note_on_c, 1, 38, 0
4, 50511, Note_on_c, 1, 43, 56
4, 50622, Note_on_c, 1, 43, 0
4, 50626, Note_on_c, 1, 31, 35
4, 50716, Note_on_c, 1, 38, 47
4, 50739, Note_on_c, 1, 31, 0
4, 50739, Note_on_c, 1, 38, 0
4, 50746, Note_on_c, 1, 42, 73
4, 50835, Note_on_c, 1, 38, 41
4, 50854, Note_on_c, 1, 38, 0
4, 50855, Note_on_c, 1, 42, 0
4, 50865, Note_on_c, 1, 43, 61
4, 50979, Note_on_c, 1, 43, 0
4, 50983, Note_on_c, 1, 38, 58
4, 51076, Note_on_c, 1, 34, 32
4, 51079, Note_on_c, 1, 38, 0
4, 51103, Note_on_c, 1, 34, 0
4, 51106, Note_on_c, 1, 36, 36
4, 51197, Note_on_c, 1, 34, 49
4, 51217, Note_on_c, 1, 36, 0
4, 51224, Note_on_c, 1, 46, 86
4, 51231, Note_on_c, 1, 34, 0
4, 51310, Note_on_c, 1, 37, 33
4, 51330, Note_on_c, 1, 37, 0
4, 51334, Note_on_c, 1, 46, 0
4, 51341, Note_on_c, 1, 45, 64
4, 51414, Note_on_c, 1, 45, 0
4, 51427, Note_on_c, 1, 40, 55
4, 51451, Note_on_c, 1, 40, 0
4, 51461, Note_on_c, 1, 37, 60
4, 51548, Note_on_c, 1, 34, 32
4, 51573, Note_on_c, 1, 37, 0
4, 51576, Note_on_c, 1, 34, 0
4, 51579, Note_on_c, 1, 38, 53
4, 51673, Note_on_c, 1, 37, 56
4, 51692, Note_on_c, 1, 38, 0
4, 51700, Note_on_c, 1, 48, 94
4, 51701, Note_on_c, 1, 37, 0
4, 51791, Note_on_c, 1, 42, 40
4, 51807, Note_on_c, 1, 48, 0
4, 51817, Note_on_c, 1, 42, 0
4, 51821, Note_on_c, 1, 43, 43
4, 51934, Note_on_c, 1, 43, 0
4, 51940, Note_on_c, 1, 38, 71
4, 52039, Note_on_c, 1, 34, 42
4, 52048, Note_on_c, 1, 38, 0
4, 52060, Note_on_c, 1, 34, 0
4, 52063, Note_on_c, 1, 36, 51
4, 52154, Note_on_c, 1, 34, 31
4, 52180, Note_on_c, 1, 50, 76
4, 52185, Note_on_c, 1, 34, 0
4, 52194, Note_on_c, 1, 36, 0
4, 52274, Note_on_c, 1, 36, 46
4, 52292, Note_on_c, 1, 50, 0
4, 52297, Note_on_c, 1, 36, 0
4, 52304, Note_on_c, 1, 48, 59
4, 52391, Note_on_c, 1, 36, 42
4, 52409, Note_on_c, 1, 36, 0
4, 52427, Note_on_c, 1, 43, 51
4, 52534, Note_on_c, 1, 43, 0
4, 52549, Note_on_c, 1, 48, 0
4, 52553, Note_on_c, 1, 33, 47
4, 52670, Note_on_c, 1, 33, 0
4, 52672, Note_on_c, 1, 42, 62
4, 52766, Note_on_c, 1, 36, 47
4, 52784, Note_on_c, 1, 36, 0
4, 52785, Note_on_c, 1, 42, 0
4, 52797, Note_on_c, 1, 41, 48
4, 52874, Note_on_c, 1, 41, 0
4, 52882, Note_on_c, 1, 36, 55
4, 52900, Note_on_c, 1, 36, 0
4, 52916, Note_on_c, 1, 33, 53
4, 53031, Note_on_c, 1, 33, 0
4, 53039, Note_on_c, 1, 36, 47
4, 53151, Note_on_c, 1, 36, 0
4, 53158, Note_on_c, 1, 32, 59
4, 53276, Note_on_c, 1, 31, 59
4, 53287, Note_on_c, 1, 32, 0
4, 53372, Note_on_c, 1, 35, 55
4, 53404, Note_on_c, 1, 43, 61
4, 53405, Note_on_c, 1, 31, 0
4, 53407, Note_on_c, 1, 35, 0
4, 53501, Note_on_c, 1, 36, 45
4, 53514, Note_on_c, 1, 36, 0
4, 53517, Note_on_c, 1, 43, 0
4, 53524, Note_on_c, 1, 48, 73
4, 53640, Note_on_c, 1, 48, 0
4, 53645, Note_on_c, 1, 40, 67
4, 53763, Note_on_c, 1, 40, 0
4, 53769, Note_on_c, 1, 41, 64
4, 53880, Note_on_c, 1, 41, 0
4, 53890, Note_on_c, 1, 35, 68
4, 54003, Note_on_c, 1, 35, 0
4, 54012, Note_on_c, 1, 36, 61
4, 54117, Note_on_c, 1, 36, 0
4, 54124, Note_on_c, 1, 32, 69
4, 54232, Note_on_c, 1, 32, 0
4, 54243, Note_on_c, 1, 31, 55
4, 54336, Note_on_c, 1, 32, 37
4, 54343, Note_on_c, 1, 32, 0
4, 54363, Note_on_c, 1, 42, 64
4, 54370, Note_on_c, 1, 31, 0
4, 54455, Note_on_c, 1, 38, 25
4, 54474, Note_on_c, 1, 38, 0
4, 54481, Note_on_c, 1, 42, 0
4, 54481, Note_on_c, 1, 43, 48
4, 54570, Note_on_c, 1, 38, 53
4, 54590, Note_on_c, 1, 43, 0
4, 54591, Note_on_c, 1, 38, 0
4, 54597, Note_on_c, 1, 50, 69
4, 54691, Note_on_c, 1, 38, 50
4, 54710, Note_on_c, 1, 38, 0
4, 54712, Note_on_c, 1, 50, 0
4, 54721, Note_on_c, 1, 43, 42
4, 54811, Note_on_c, 1, 38, 45
4, 54824, Note_on_c, 1, 43, 0
4, 54831, Note_on_c, 1, 38, 0
4, 54837, Note_on_c, 1, 49, 71
4, 54951, Note_on_c, 1, 49, 0
4, 54953, Note_on_c, 1, 48, 59
4, 55034, Note_on_c, 1, 40, 36
4, 55055, Note_on_c, 1, 40, 0
4, 55065, Note_on_c, 1, 48, 0
4, 55068, Note_on_c, 1, 43, 37
4, 55159, Note_on_c, 1, 40, 52
4, 55166, Note_on_c, 1, 43, 0
4, 55170, Note_on_c, 1, 40, 0
4, 55183, Note_on_c, 1, 45, 72
4, 55289, Note_on_c, 1, 45, 0
4, 55301, Note_on_c, 1, 40, 49
4, 55355, Note_on_c, 1, 40, 0
4, 55380, Note_on_c, 1, 39, 65
4, 55399, Note_on_c, 1, 39, 0
4, 55418, Note_on_c, 1, 38, 55
4, 55533, Note_on_c, 1, 38, 0
4, 55536, Note_on_c, 1, 33, 57
4, 55618, Note_on_c, 1, 33, 0
4, 55626, Note_on_c, 1, 30, 53
4, 55644, Note_on_c, 1, 30, 0
4, 55662, Note_on_c, 1, 31, 59
4, 55766, Note_on_c, 1, 31, 0
4, 55786, Note_on_c, 1, 37, 67
4, 55876, Note_on_c, 1, 34, 50
4, 55886, Note_on_c, 1, 34, 0
4, 55901, Note_on_c, 1, 37, 0
4, 55913, Note_on_c, 1, 36, 51
4, 56001, Note_on_c, 1, 34, 52
4, 56016, Note_on_c, 1, 34, 0
4, 56020, Note_on_c, 1, 36, 0
4, 56034, Note_on_c, 1, 43, 43
4, 56147, Note_on_c, 1, 43, 0
4, 56158, Note_on_c, 1, 41, 54
4, 56281, Note_on_c, 1, 41, 0
4, 56287, Note_on_c, 1, 36, 55
4, 56399, Note_on_c, 1, 36, 0
4, 56405, Note_on_c, 1, 35, 61
4, 56487, Note_on_c, 1, 34, 50
4, 56505, Note_on_c, 1, 34, 0
4, 56528, Note_on_c, 1, 47, 96
4, 56530, Note_on_c, 1, 35, 0
4, 56612, Note_on_c, 1, 35, 49
4, 56634, Note_on_c, 1, 35, 0
4, 56637, Note_on_c, 1, 47, 0
4, 56645, Note_on_c, 1, 46, 59
4, 56751, Note_on_c, 1, 46, 0
4, 56769, Note_on_c, 1, 46, 63
4, 56878, Note_on_c, 1, 46, 0
4, 56883, Note_on_c, 1, 41, 50
4, 56988, Note_on_c, 1, 41, 0
4, 57003, Note_on_c, 1, 41, 62
4, 57085, Note_on_c, 1, 37, 27
4, 57115, Note_on_c, 1, 41, 0
4, 57120, Note_on_c, 1, 46, 69
4, 57123, Note_on_c, 1, 37, 0
4, 57214, Note_on_c, 1, 37, 19
4, 57220, Note_on_c, 1, 46, 0
4, 57232, Note_on_c, 1, 37, 0
4, 57240, Note_on_c, 1, 46, 64
4, 57350, Note_on_c, 1, 46, 0
4, 57357, Note_on_c, 1, 36, 48
4, 57478, Note_on_c, 1, 48, 58
4, 57479, Note_on_c, 1, 36, 0
4, 57566, Note_on_c, 1, 36, 38
4, 57589, Note_on_c, 1, 36, 0
4, 57592, Note_on_c, 1, 48, 0
4, 57605, Note_on_c, 1, 49, 64
4, 57694, Note_on_c, 1, 36, 39
4, 57708, Note_on_c, 1, 49, 0
4, 57708, Note_on_c, 1, 36, 0
4, 57716, Note_on_c, 1, 48, 63
4, 57807, Note_on_c, 1, 42, 51
4, 57812, Note_on_c, 1, 48, 0
4, 57826, Note_on_c, 1, 42, 0
4, 57839, Note_on_c, 1, 41, 50
4, 57946, Note_on_c, 1, 41, 0
4, 57963, Note_on_c, 1, 36, 64
4, 58069, Note_on_c, 1, 36, 0
4, 58081, Note_on_c, 1, 34, 50
4, 58156, Note_on_c, 1, 34, 0
4, 58176, Note_on_c, 1, 38, 42
4, 58196, Note_on_c, 1, 38, 0
4, 58201, Note_on_c, 1, 41, 53
4, 58291, Note_on_c, 1, 38, 48
4, 58309, Note_on_c, 1, 41, 0
4, 58312, Note_on_c, 1, 38, 0
4, 58317, Note_on_c, 1, 50, 61
4, 58410, Note_on_c, 1, 38, 50
4, 58425, Note_on_c, 1, 50, 0
4, 58430, Note_on_c, 1, 38, 0
4, 58437, Note_on_c, 1, 48, 67
4, 58529, Note_on_c, 1, 38, 38
4, 58547, Note_on_c, 1, 38, 0
4, 58547, Note_on_c, 1, 48, 0
4, 58558, Note_on_c, 1, 46, 56
4, 58682, Note_on_c, 1, 40, 42
4, 58777, Note_on_c, 1, 46, 0
4, 58784, Note_on_c, 1, 40, 0
4, 58803, Note_on_c, 1, 41, 55
4, 58915, Note_on_c, 1, 41, 0
4, 58919, Note_on_c, 1, 39, 64
4, 59002, Note_on_c, 1, 37, 36
4, 59029, Note_on_c, 1, 39, 0
4, 59034, Note_on_c, 1, 37, 0
4, 59038, Note_on_c, 1, 40, 49
4, 59132, Note_on_c, 1, 39, 48
4, 59142, Note_on_c, 1, 40, 0
4, 59151, Note_on_c, 1, 39, 0
4, 59155, Note_on_c, 1, 46, 62
4, 59275, Note_on_c, 1, 46, 0
4, 59277, Note_on_c, 1, 45, 67
4, 59367, Note_on_c, 1, 39, 42
4, 59387, Note_on_c, 1, 39, 0
4, 59393, Note_on_c, 1, 45, 0
4, 59403, Note_on_c, 1, 51, 67
4, 59528, Note_on_c, 1, 50, 49
4, 59609, Note_on_c, 1, 42, 33
4, 59613, Note_on_c, 1, 50, 0
4, 59630, Note_on_c, 1, 42, 0
4, 59641, Note_on_c, 1, 51, 0
4, 59653, Note_on_c, 1, 44, 55
4, 59756, Note_on_c, 1, 44, 0
4, 59762, Note_on_c, 1, 48, 62
4, 59867, Note_on_c, 1, 48, 0
4, 59882, Note_on_c, 1, 44, 52
4, 59991, Note_on_c, 1, 44, 0
4, 60003, Note_on_c, 1, 43, 32
4, 60120, Note_on_c, 1, 31, 59
4, 60140, Note_on_c, 1, 43, 0
4, 60227, Note_on_c, 1, 31, 0
4, 60241, Note_on_c, 1, 36, 60
4, 60363, Note_on_c, 1, 48, 71
4, 60365, Note_on_c, 1, 36, 0
4, 60465, Note_on_c, 1, 48, 0
4, 60484, Note_on_c, 1, 48, 54
4, 60598, Note_on_c, 1, 48, 0
4, 60604, Note_on_c, 1, 41, 62
4, 60713, Note_on_c, 1, 41, 0
4, 60727, Note_on_c, 1, 41, 64
4, 60808, Note_on_c, 1, 37, 36
4, 60842, Note_on_c, 1, 41, 0
4, 60843, Note_on_c, 1, 42, 61
4, 60854, Note_on_c, 1, 37, 0
4, 60924, Note_on_c, 1, 38, 46
4, 60946, Note_on_c, 1, 38, 0
4, 60948, Note_on_c, 1, 42, 0
4, 60954, Note_on_c, 1, 43, 42
4, 61046, Note_on_c, 1, 38, 51
4, 61068, Note_on_c, 1, 38, 0
4, 61073, Note_on_c, 1, 43, 0
4, 61076, Note_on_c, 1, 46, 64
4, 61166, Note_on_c, 1, 38, 48
4, 61186, Note_on_c, 1, 38, 0
4, 61186, Note_on_c, 1, 46, 0
4, 61196, Note_on_c, 1, 48, 54
4, 61307, Note_on_c, 1, 48, 0
4, 61314, Note_on_c, 1, 40, 51
4, 61407, Note_on_c, 1, 39, 32
4, 61430, Note_on_c, 1, 40, 0
4, 61431, Note_on_c, 1, 39, 0
4, 61435, Note_on_c, 1, 41, 54
4, 61527, Note_on_c, 1, 39, 37
4, 61545, Note_on_c, 1, 41, 0
4, 61552, Note_on_c, 1, 50, 61
4, 61558, Note_on_c, 1, 39, 0
4, 61626, Note_on_c, 1, 39, 25
4, 61650, Note_on_c, 1, 39, 0
4, 61661, Note_on_c, 1, 50, 0
4, 61673, Note_on_c, 1, 48, 53
4, 61789, Note_on_c, 1, 41, 49
4, 61896, Note_on_c, 1, 48, 0
4, 61897, Note_on_c, 1, 41, 0
4, 61913, Note_on_c, 1, 43, 40
4, 62001, Note_on_c, 1, 38, 31
4, 62015, Note_on_c, 1, 43, 0
4, 62033, Note_on_c, 1, 43, 44
4, 62036, Note_on_c, 1, 38, 0
4, 62140, Note_on_c, 1, 43, 0
4, 62156, Note_on_c, 1, 31, 49
4, 62255, Note_on_c, 1, 31, 0
4, 62277, Note_on_c, 1, 31, 30
4, 62372, Note_on_c, 1, 38, 35
4, 62400, Note_on_c, 1, 31, 0
4, 62402, Note_on_c, 1, 48, 62
4, 62402, Note_on_c, 1, 38, 0
4, 62449, Note_on_c, 1, 48, 0
4, 62467, Note_on_c, 1, 48, 58
4, 62502, Note_on_c, 1, 48, 0
4, 62523, Note_on_c, 1, 48, 57
4, 62688, Note_on_c, 1, 48, 0
4, 62704, Note_on_c, 1, 48, 62
4, 62722, Note_on_c, 1, 48, 0
4, 62765, Note_on_c, 1, 48, 50
4, 62948, Note_on_c, 1, 45, 51
4, 62961, Note_on_c, 1, 48, 0
4, 62971, Note_on_c, 1, 45, 0
4, 63004, Note_on_c, 1, 45, 56
4, 63180, Note_on_c, 1, 45, 0
4, 63184, Note_on_c, 1, 38, 58
4, 63221, Note_on_c, 1, 38, 0
4, 63241, Note_on_c, 1, 38, 43
4, 63441, Note_on_c, 1, 43, 28
4, 63463, Note_on_c, 1, 43, 0
4, 63472, Note_on_c, 1, 38, 0
4, 63473, Note_on_c, 1, 50, 53
4, 63566, Note_on_c, 1, 42, 30
4, 63580, Note_on_c, 1, 50, 0
4, 63593, Note_on_c, 1, 42, 0
4, 63599, Note_on_c, 1, 43, 36
4, 63761, Note_on_c, 1, 43, 0
4, 63766, Note_on_c, 1, 38, 53
4, 63788, Note_on_c, 1, 38, 0
4, 63806, Note_on_c, 1, 37, 50
4, 63821, Note_on_c, 1, 37, 0
4, 63840, Note_on_c, 1, 36, 62
4, 64073, Note_on_c, 1, 36, 0
4, 64084, Note_on_c, 1, 48, 49
4, 64320, Note_on_c, 1, 48, 0
4, 64329, Note_on_c, 1, 41, 41
4, 64801, Note_on_c, 1, 42, 45
4, 64801, Note_on_c, 1, 41, 0
4, 64896, Note_on_c, 1, 42, 0
4, 64919, Note_on_c, 1, 48, 42
4, 65021, Note_on_c, 1, 48, 0
4, 65028, Note_on_c, 1, 49, 52
4, 65236, Note_on_c, 1, 36, 31
4, 65259, Note_on_c, 1, 36, 0
4, 65265, Note_on_c, 1, 49, 0
4, 65274, Note_on_c, 1, 41, 40
4, 65364, Note_on_c, 1, 41, 0
4, 65398, Note_on_c, 1, 41, 40
4, 65627, Note_on_c, 1, 41, 0
4, 65631, Note_on_c, 1, 29, 34
4, 65746, Note_on_c, 1, 42, 39
4, 65747, Note_on_c, 1, 29, 0
4, 66180, Note_on_c, 1, 42, 0
4, 66192, Note_on_c, 1, 29, 33
4, 67187, Note_on_c, 1, 29, 0
4, 67187, End_track
5, 0, Start_track
5, 0, Title_t, "Drums"
5, 0, Control_c, 9, 7, 88
5, 32584, Note_on_c, 9, 36, 33
5, 32584, Note_on_c, 9, 59, 39
5, 32600, Note_on_c, 9, 36, 0
5, 32602, Note_on_c, 9, 59, 0
5, 32623, Note_on_c, 9, 36, 25
5, 32623, Note_on_c, 9, 59, 25
5, 32670, Note_on_c, 9, 36, 0
5, 32760, Note_on_c, 9, 44, 46
5, 32787, Note_on_c, 9, 59, 0
5, 32800, Note_on_c, 9, 44, 0
5, 32855, Note_on_c, 9, 59, 33
5, 32882, Note_on_c, 9, 59, 0
5, 32893, Note_on_c, 9, 59, 15
5, 33003, Note_on_c, 9, 59, 0
5, 33106, Note_on_c, 9, 59, 36
5, 33119, Note_on_c, 9, 59, 0
5, 33142, Note_on_c, 9, 59, 37
5, 33194, Note_on_c, 9, 59, 0
5, 33240, Note_on_c, 9, 44, 26
5, 33258, Note_on_c, 9, 59, 44
5, 33319, Note_on_c, 9, 44, 0
5, 33436, Note_on_c, 9, 59, 0
5, 33445, Note_on_c, 9, 59, 24
5, 33459, Note_on_c, 9, 59, 0
5, 33480, Note_on_c, 9, 44, 29
5, 33484, Note_on_c, 9, 37, 45
5, 33485, Note_on_c, 9, 59, 67
5, 33524, Note_on_c, 9, 44, 0
5, 33531, Note_on_c, 9, 37, 0
5, 33568, Note_on_c, 9, 59, 0
5, 33605, Note_on_c, 9, 59, 66
5, 33682, Note_on_c, 9, 59, 0
5, 33720, Note_on_c, 9, 44, 31
5, 33725, Note_on_c, 9, 59, 71
5, 33760, Note_on_c, 9, 44, 0
5, 33802, Note_on_c, 9, 59, 0
5, 33922, Note_on_c, 9, 59, 43
5, 33939, Note_on_c, 9, 59, 0
5, 33960, Note_on_c, 9, 59, 66
5, 33960, Note_on_c, 9, 44, 35
5, 34031, Note_on_c, 9, 44, 0
5, 34051, Note_on_c, 9, 59, 0
5, 34074, Note_on_c, 9, 59, 68
5, 34200, Note_on_c, 9, 44, 34
5, 34235, Note_on_c, 9, 59, 0
5, 34242, Note_on_c, 9, 44, 0
5, 34252, Note_on_c, 9, 59, 31
5, 34263, Note_on_c, 9, 59, 0
5, 34286, Note_on_c, 9, 59, 57
5, 34313, Note_on_c, 9, 59, 0
5, 34334, Note_on_c, 9, 59, 37
5, 34354, Note_on_c, 9, 59, 0
5, 34372, Note_on_c, 9, 53, 44
5, 34382, Note_on_c, 9, 53, 0
5, 34440, Note_on_c, 9, 46, 43
5, 34458, Note_on_c, 9, 59, 71
5, 34502, Note_on_c, 9, 46, 0
5, 34515, Note_on_c, 9, 59, 0
5, 34530, Note_on_c, 9, 36, 53
5, 34532, Note_on_c, 9, 59, 51
5, 34555, Note_on_c, 9, 59, 0
5, 34562, Note_on_c, 9, 36, 0
5, 34575, Note_on_c, 9, 59, 53
5, 34576, Note_on_c, 9, 36, 15
5, 34632, Note_on_c, 9, 36, 0
5, 34680, Note_on_c, 9, 44, 25
5, 34714, Note_on_c, 9, 44, 0
5, 34737, Note_on_c, 9, 59, 0
5, 34762, Note_on_c, 9, 59, 36
5, 34784, Note_on_c, 9, 59, 0
5, 34803, Note_on_c, 9, 59, 38
5, 34892, Note_on_c, 9, 59, 0
5, 34908, Note_on_c, 9, 59, 58
5, 34920, Note_on_c, 9, 44, 30
5, 34956, Note_on_c, 9, 44, 0
5, 34998, Note_on_c, 9, 36, 38
5, 34999, Note_on_c, 9, 59, 0
5, 35015, Note_on_c, 9, 36, 0
5, 35033, Note_on_c, 9, 59, 29
5, 35044, Note_on_c, 9, 36, 27
5, 35074, Note_on_c, 9, 36, 0
5, 35128, Note_on_c, 9, 59, 0
5, 35152, Note_on_c, 9, 59, 68
5, 35160, Note_on_c, 9, 44, 32
5, 35195, Note_on_c, 9, 44, 0
5, 35246, Note_on_c, 9, 59, 0
5, 35270, Note_on_c, 9, 59, 34
5, 35363, Note_on_c, 9, 59, 0
5, 35394, Note_on_c, 9, 59, 37
5, 35400, Note_on_c, 9, 44, 23
5, 35431, Note_on_c, 9, 44, 0
5, 35469, Note_on_c, 9, 59, 0
5, 35475, Note_on_c, 9, 53, 32
5, 35485, Note_on_c, 9, 38, 23
5, 35495, Note_on_c, 9, 38, 0
5, 35506, Note_on_c, 9, 53, 0
5, 35516, Note_on_c, 9, 59, 32
5, 35532, Note_on_c, 9, 36, 40
5, 35566, Note_on_c, 9, 36, 0
5, 35605, Note_on_c, 9, 59, 0
5, 35610, Note_on_c, 9, 36, 26
5, 35624, Note_on_c, 9, 36, 0
5, 35637, Note_on_c, 9, 59, 45
5, 35640, Note_on_c, 9, 44, 33
5, 35653, Note_on_c, 9, 36, 22
5, 35662, Note_on_c, 9, 44, 0
5, 35707, Note_on_c, 9, 36, 0
5, 35729, Note_on_c, 9, 59, 0
5, 35759, Note_on_c, 9, 59, 33
5, 35820, Note_on_c, 9, 59, 0
5, 35837, Note_on_c, 9, 59, 47
5, 35847, Note_on_c, 9, 59, 0
5, 35873, Note_on_c, 9, 59, 64
5, 35880, Note_on_c, 9, 46, 34
5, 35894, Note_on_c, 9, 59, 0
5, 35903, Note_on_c, 9, 46, 0
5, 35950, Note_on_c, 9, 59, 66
5, 35958, Note_on_c, 9, 59, 0
5, 35991, Note_on_c, 9, 59, 74
5, 36120, Note_on_c, 9, 44, 33
5, 36136, Note_on_c, 9, 59, 0
5, 36146, Note_on_c, 9, 44, 0
5, 36153, Note_on_c, 9, 59, 52
5, 36162, Note_on_c, 9, 59, 0
5, 36188, Note_on_c, 9, 59, 54
5, 36200, Note_on_c, 9, 59, 0
5, 36229, Note_on_c, 9, 59, 83
5, 36266, Note_on_c, 9, 38, 15
5, 36292, Note_on_c, 9, 38, 0
5, 36317, Note_on_c, 9, 59, 0
5, 36346, Note_on_c, 9, 59, 45
5, 36355, Note_on_c, 9, 38, 25
5, 36360, Note_on_c, 9, 44, 28
5, 36362, Note_on_c, 9, 59, 0
5, 36377, Note_on_c, 9, 38, 0
5, 36386, Note_on_c, 9, 59, 35
5, 36391, Note_on_c, 9, 44, 0
5, 36395, Note_on_c, 9, 38, 19
5, 36398, Note_on_c, 9, 59, 0
5, 36415, Note_on_c, 9, 38, 0
5, 36434, Note_on_c, 9, 59, 84
5, 36438, Note_on_c, 9, 36, 42
5, 36455, Note_on_c, 9, 36, 0
5, 36574, Note_on_c, 9, 59, 0
5, 36593, Note_on_c, 9, 59, 61
5, 36600, Note_on_c, 9, 44, 33
5, 36632, Note_on_c, 9, 44, 0
5, 36668, Note_on_c, 9, 59, 0
5, 36686, Note_on_c, 9, 59, 54
5, 36686, Note_on_c, 9, 38, 23
5, 36701, Note_on_c, 9, 38, 0
5, 36705, Note_on_c, 9, 59, 0
5, 36718, Note_on_c, 9, 59, 53
5, 36734, Note_on_c, 9, 38, 19
5, 36769, Note_on_c, 9, 38, 0
5, 36807, Note_on_c, 9, 36, 30
5, 36823, Note_on_c, 9, 36, 0
5, 36840, Note_on_c, 9, 44, 29
5, 36853, Note_on_c, 9, 36, 32
5, 36870, Note_on_c, 9, 44, 0
5, 36899, Note_on_c, 9, 36, 0
5, 36912, Note_on_c, 9, 59, 0
5, 36924, Note_on_c, 9, 36, 35
5, 36929, Note_on_c, 9, 59, 49
5, 36943, Note_on_c, 9, 59, 0
5, 36957, Note_on_c, 9, 36, 0
5, 36964, Note_on_c, 9, 59, 47
5, 37043, Note_on_c, 9, 59, 0
5, 37053, Note_on_c, 9, 59, 25
5, 37066, Note_on_c, 9, 59, 0
5, 37080, Note_on_c, 9, 44, 21
5, 37086, Note_on_c, 9, 59, 69
5, 37104, Note_on_c, 9, 44, 0
5, 37184, Note_on_c, 9, 59, 0
5, 37210, Note_on_c, 9, 59, 37
5, 37278, Note_on_c, 9, 59, 0
5, 37289, Note_on_c, 9, 59, 40
5, 37308, Note_on_c, 9, 59, 0
5, 37320, Note_on_c, 9, 44, 33
5, 37323, Note_on_c, 9, 59, 75
5, 37351, Note_on_c, 9, 44, 0
5, 37425, Note_on_c, 9, 59, 0
5, 37446, Note_on_c, 9, 59, 50
5, 37529, Note_on_c, 9, 59, 0
5, 37560, Note_on_c, 9, 44, 30
5, 37563, Note_on_c, 9, 59, 64
5, 37591, Note_on_c, 9, 44, 0
5, 37643, Note_on_c, 9, 59, 0
5, 37676, Note_on_c, 9, 59, 50
5, 37747, Note_on_c, 9, 59, 0
5, 37756, Note_on_c, 9, 53, 61
5, 37796, Note_on_c, 9, 53, 0
5, 37796, Note_on_c, 9, 59, 30
5, 37800, Note_on_c, 9, 44, 33
5, 37829, Note_on_c, 9, 44, 0
5, 37861, Note_on_c, 9, 59, 0
5, 37873, Note_on_c, 9, 53, 32
5, 37914, Note_on_c, 9, 53, 0
5, 37919, Note_on_c, 9, 59, 56
5, 37987, Note_on_c, 9, 59, 0
5, 37998, Note_on_c, 9, 59, 41
5, 38021, Note_on_c, 9, 59, 0
5, 38038, Note_on_c, 9, 59, 62
5, 38040, Note_on_c, 9, 46, 38
5, 38122, Note_on_c, 9, 46, 0
5, 38129, Note_on_c, 9, 59, 0
5, 38149, Note_on_c, 9, 59, 67
5, 38239, Note_on_c, 9, 59, 0
5, 38268, Note_on_c, 9, 59, 70
5, 38343, Note_on_c, 9, 59, 0
5, 38348, Note_on_c, 9, 36, 44
5, 38358, Note_on_c, 9, 59, 45
5, 38370, Note_on_c, 9, 59, 0
5, 38371, Note_on_c, 9, 36, 0
5, 38386, Note_on_c, 9, 59, 75
5, 38394, Note_on_c, 9, 36, 24
5, 38455, Note_on_c, 9, 36, 0
5, 38480, Note_on_c, 9, 44, 32
5, 38485, Note_on_c, 9, 59, 0
5, 38506, Note_on_c, 9, 59, 67
5, 38508, Note_on_c, 9, 44, 0
5, 38597, Note_on_c, 9, 59, 0
5, 38624, Note_on_c, 9, 59, 70
5, 38688, Note_on_c, 9, 59, 0
5, 38712, Note_on_c, 9, 59, 30
5, 38725, Note_on_c, 9, 59, 0
5, 38740, Note_on_c, 9, 59, 71
5, 38760, Note_on_c, 9, 44, 26
5, 38791, Note_on_c, 9, 44, 0
5, 38832, Note_on_c, 9, 59, 0
5, 38857, Note_on_c, 9, 59, 64
5, 38960, Note_on_c, 9, 44, 34
5, 38997, Note_on_c, 9, 44, 0
5, 39027, Note_on_c, 9, 59, 0
5, 39050, Note_on_c, 9, 59, 47
5, 39070, Note_on_c, 9, 59, 0
5, 39090, Note_on_c, 9, 59, 52
5, 39191, Note_on_c, 9, 59, 0
5, 39224, Note_on_c, 9, 59, 60
5, 39240, Note_on_c, 9, 44, 34
5, 39280, Note_on_c, 9, 44, 0
5, 39302, Note_on_c, 9, 59, 0
5, 39310, Note_on_c, 9, 53, 51
5, 39331, Note_on_c, 9, 53, 0
5, 39348, Note_on_c, 9, 59, 32
5, 39411, Note_on_c, 9, 59, 0
5, 39429, Note_on_c, 9, 59, 49
5, 39443, Note_on_c, 9, 59, 0
5, 39466, Note_on_c, 9, 59, 48
5, 39480, Note_on_c, 9, 44, 31
5, 39513, Note_on_c, 9, 44, 0
5, 39532, Note_on_c, 9, 59, 0
5, 39556, Note_on_c, 9, 59, 30
5, 39571, Note_on_c, 9, 59, 0
5, 39592, Note_on_c, 9, 59, 62
5, 39686, Note_on_c, 9, 59, 0
5, 39713, Note_on_c, 9, 59, 62
5, 39720, Note_on_c, 9, 44, 35
5, 39746, Note_on_c, 9, 44, 0
5, 39807, Note_on_c, 9, 59, 0
5, 39834, Note_on_c, 9, 59, 59
5, 39923, Note_on_c, 9, 59, 0
5, 39956, Note_on_c, 9, 59, 61
5, 39960, Note_on_c, 9, 44, 36
5, 39985, Note_on_c, 9, 44, 0
5, 40045, Note_on_c, 9, 59, 0
5, 40078, Note_on_c, 9, 59, 67
5, 40137, Note_on_c, 9, 59, 0
5, 40161, Note_on_c, 9, 59, 42
5, 40179, Note_on_c, 9, 59, 0
5, 40198, Note_on_c, 9, 59, 55
5, 40200, Note_on_c, 9, 44, 40
5, 40228, Note_on_c, 9, 44, 0
5, 40266, Note_on_c, 9, 59, 0
5, 40280, Note_on_c, 9, 53, 68
5, 40302, Note_on_c, 9, 53, 0
5, 40332, Note_on_c, 9, 59, 15
5, 40394, Note_on_c, 9, 59, 0
5, 40399, Note_on_c, 9, 53, 62
5, 40434, Note_on_c, 9, 53, 0
5, 40440, Note_on_c, 9, 44, 32
5, 40442, Note_on_c, 9, 36, 34
5, 40444, Note_on_c, 9, 59, 46
5, 40462, Note_on_c, 9, 44, 0
5, 40467, Note_on_c, 9, 36, 0
5, 40501, Note_on_c, 9, 59, 0
5, 40519, Note_on_c, 9, 59, 44
5, 40547, Note_on_c, 9, 59, 0
5, 40563, Note_on_c, 9, 59, 63
5, 40647, Note_on_c, 9, 59, 0
5, 40672, Note_on_c, 9, 59, 66
5, 40680, Note_on_c, 9, 44, 29
5, 40708, Note_on_c, 9, 44, 0
5, 40753, Note_on_c, 9, 59, 0
5, 40874, Note_on_c, 9, 59, 54
5, 40879, Note_on_c, 9, 36, 30
5, 40894, Note_on_c, 9, 59, 0
5, 40905, Note_on_c, 9, 36, 0
5, 40915, Note_on_c, 9, 59, 60
5, 40920, Note_on_c, 9, 44, 37
5, 40922, Note_on_c, 9, 36, 24
5, 40950, Note_on_c, 9, 44, 0
5, 40973, Note_on_c, 9, 36, 0
5, 41003, Note_on_c, 9, 59, 0
5, 41006, Note_on_c, 9, 36, 55
5, 41039, Note_on_c, 9, 59, 67
5, 41062, Note_on_c, 9, 36, 0
5, 41108, Note_on_c, 9, 59, 0
5, 41154, Note_on_c, 9, 59, 57
5, 41160, Note_on_c, 9, 44, 49
5, 41196, Note_on_c, 9, 44, 0
5, 41230, Note_on_c, 9, 59, 0
5, 41233, Note_on_c, 9, 53, 62
5, 41264, Note_on_c, 9, 53, 0
5, 41276, Note_on_c, 9, 59, 44
5, 41350, Note_on_c, 9, 59, 0
5, 41392, Note_on_c, 9, 59, 60
5, 41400, Note_on_c, 9, 44, 37
5, 41437, Note_on_c, 9, 44, 0
5, 41466, Note_on_c, 9, 59, 0
5, 41514, Note_on_c, 9, 59, 64
5, 41587, Note_on_c, 9, 59, 0
5, 41637, Note_on_c, 9, 59, 71
5, 41640, Note_on_c, 9, 46, 35
5, 41669, Note_on_c, 9, 46, 0
5, 41697, Note_on_c, 9, 59, 0
5, 41726, Note_on_c, 9, 59, 48
5, 41743, Note_on_c, 9, 59, 0
5, 41760, Note_on_c, 9, 59, 71
5, 41841, Note_on_c, 9, 59, 0
5, 41880, Note_on_c, 9, 44, 35
5, 41883, Note_on_c, 9, 59, 76
5, 41911, Note_on_c, 9, 44, 0
5, 41961, Note_on_c, 9, 59, 0
5, 42003, Note_on_c, 9, 59, 71
5, 42081, Note_on_c, 9, 59, 0
5, 42120, Note_on_c, 9, 44, 36
5, 42120, Note_on_c, 9, 59, 72
5, 42156, Note_on_c, 9, 44, 0
5, 42186, Note_on_c, 9, 59, 0
5, 42208, Note_on_c, 9, 59, 46
5, 42230, Note_on_c, 9, 59, 0
5, 42242, Note_on_c, 9, 59, 49
5, 42324, Note_on_c, 9, 59, 0
5, 42360, Note_on_c, 9, 44, 36
5, 42364, Note_on_c, 9, 59, 67
5, 42393, Note_on_c, 9, 44, 0
5, 42437, Note_on_c, 9, 59, 0
5, 42467, Note_on_c, 9, 59, 68
5, 42477, Note_on_c, 9, 59, 0
5, 42493, Note_on_c, 9, 59, 78
5, 42572, Note_on_c, 9, 59, 0
5, 42600, Note_on_c, 9, 44, 34
5, 42601, Note_on_c, 9, 59, 73
5, 42627, Note_on_c, 9, 44, 0
5, 42666, Note_on_c, 9, 59, 0
5, 42685, Note_on_c, 9, 59, 48
5, 42706, Note_on_c, 9, 59, 0
5, 42722, Note_on_c, 9, 59, 68
5, 42799, Note_on_c, 9, 59, 0
5, 42838, Note_on_c, 9, 59, 71
5, 42840, Note_on_c, 9, 44, 35
5, 42867, Note_on_c, 9, 44, 0
5, 42910, Note_on_c, 9, 59, 0
5, 42952, Note_on_c, 9, 59, 74
5, 43021, Note_on_c, 9, 59, 0
5, 43070, Note_on_c, 9, 59, 69
5, 43080, Note_on_c, 9, 44, 33
5, 43106, Note_on_c, 9, 44, 0
5, 43131, Note_on_c, 9, 59, 0
5, 43158, Note_on_c, 9, 59, 36
5, 43168, Note_on_c, 9, 59, 0
5, 43188, Note_on_c, 9, 59, 59
5, 43267, Note_on_c, 9, 59, 0
5, 43311, Note_on_c, 9, 59, 72
5, 43320, Note_on_c, 9, 44, 46
5, 43361, Note_on_c, 9, 44, 0
5, 43388, Note_on_c, 9, 59, 0
5, 43435, Note_on_c, 9, 59, 71
5, 43506, Note_on_c, 9, 59, 0
5, 43554, Note_on_c, 9, 59, 68
5, 43560, Note_on_c, 9, 44, 43
5, 43610, Note_on_c, 9, 44, 0
5, 43621, Note_on_c, 9, 59, 0
5, 43646, Note_on_c, 9, 59, 47
5, 43663, Note_on_c, 9, 59, 0
5, 43679, Note_on_c, 9, 59, 67
5, 43756, Note_on_c, 9, 59, 0
5, 43799, Note_on_c, 9, 59, 69
5, 43800, Note_on_c, 9, 44, 40
5, 43834, Note_on_c, 9, 44, 0
5, 43878, Note_on_c, 9, 59, 0
5, 43916, Note_on_c, 9, 59, 71
5, 43994, Note_on_c, 9, 59, 0
5, 43997, Note_on_c, 9, 47, 68
5, 44023, Note_on_c, 9, 47, 0
5, 44038, Note_on_c, 9, 59, 69
5, 44040, Note_on_c, 9, 46, 33
5, 44117, Note_on_c, 9, 59, 0
5, 44127, Note_on_c, 9, 43, 45
5, 44142, Note_on_c, 9, 46, 0
5, 44148, Note_on_c, 9, 43, 0
5, 44165, Note_on_c, 9, 36, 24
5, 44168, Note_on_c, 9, 59, 73
5, 44212, Note_on_c, 9, 36, 0
5, 44214, Note_on_c, 9, 59, 0
5, 44256, Note_on_c, 9, 36, 41
5, 44265, Note_on_c, 9, 59, 37
5, 44275, Note_on_c, 9, 59, 0
5, 44279, Note_on_c, 9, 36, 0
5, 44280, Note_on_c, 9, 44, 37
5, 44295, Note_on_c, 9, 59, 59
5, 44299, Note_on_c, 9, 36, 43
5, 44315, Note_on_c, 9, 44, 0
5, 44348, Note_on_c, 9, 36, 0
5, 44370, Note_on_c, 9, 59, 0
5, 44415, Note_on_c, 9, 59, 70
5, 44418, Note_on_c, 9, 36, 34
5, 44490, Note_on_c, 9, 59, 0
5, 44493, Note_on_c, 9, 36, 0
5, 44520, Note_on_c, 9, 44, 35
5, 44537, Note_on_c, 9, 59, 68
5, 44557, Note_on_c, 9, 44, 0
5, 44591, Note_on_c, 9, 59, 0
5, 44624, Note_on_c, 9, 59, 44
5, 44636, Note_on_c, 9, 59, 0
5, 44658, Note_on_c, 9, 59, 60
5, 44724, Note_on_c, 9, 59, 0
5, 44772, Note_on_c, 9, 59, 75
5, 44824, Note_on_c, 9, 59, 0
5, 44857, Note_on_c, 9, 59, 43
5, 44868, Note_on_c, 9, 59, 0
5, 44888, Note_on_c, 9, 59, 60
5, 44958, Note_on_c, 9, 59, 0
5, 45000, Note_on_c, 9, 44, 37
5, 45005, Note_on_c, 9, 59, 72
5, 45029, Note_on_c, 9, 44, 0
5, 45059, Note_on_c, 9, 59, 0
5, 45079, Note_on_c, 9, 38, 18
5, 45090, Note_on_c, 9, 59, 44
5, 45092, Note_on_c, 9, 38, 0
5, 45106, Note_on_c, 9, 59, 0
5, 45121, Note_on_c, 9, 36, 33
5, 45123, Note_on_c, 9, 59, 67
5, 45146, Note_on_c, 9, 36, 0
5, 45191, Note_on_c, 9, 59, 0
5, 45192, Note_on_c, 9, 38, 24
5, 45219, Note_on_c, 9, 38, 0
5, 45233, Note_on_c, 9, 36, 25
5, 45238, Note_on_c, 9, 59, 74
5, 45264, Note_on_c, 9, 36, 0
5, 45304, Note_on_c, 9, 59, 0
5, 45317, Note_on_c, 9, 36, 20
5, 45329, Note_on_c, 9, 36, 0
5, 45355, Note_on_c, 9, 36, 30
5, 45358, Note_on_c, 9, 59, 78
5, 45414, Note_on_c, 9, 59, 0
5, 45422, Note_on_c, 9, 36, 0
5, 45438, Note_on_c, 9, 59, 49
5, 45455, Note_on_c, 9, 59, 0
5, 45473, Note_on_c, 9, 59, 71
5, 45480, Note_on_c, 9, 44, 47
5, 45513, Note_on_c, 9, 44, 0
5, 45536, Note_on_c, 9, 59, 0
5, 45589, Note_on_c, 9, 59, 76
5, 45653, Note_on_c, 9, 59, 0
5, 45672, Note_on_c, 9, 59, 43
5, 45684, Note_on_c, 9, 59, 0
5, 45709, Note_on_c, 9, 59, 64
5, 45720, Note_on_c, 9, 46, 32
5, 45759, Note_on_c, 9, 46, 0
5, 45783, Note_on_c, 9, 59, 0
5, 45793, Note_on_c, 9, 53, 34
5, 45820, Note_on_c, 9, 53, 0
5, 45832, Note_on_c, 9, 59, 38
5, 45901, Note_on_c, 9, 38, 19
5, 45906, Note_on_c, 9, 59, 0
5, 45911, Note_on_c, 9, 38, 0
5, 45911, Note_on_c, 9, 53, 53
5, 45950, Note_on_c, 9, 59, 35
5, 45952, Note_on_c, 9, 53, 0
5, 45960, Note_on_c, 9, 44, 40
5, 45966, Note_on_c, 9, 38, 27
5, 45984, Note_on_c, 9, 38, 0
5, 45997, Note_on_c, 9, 44, 0
5, 46019, Note_on_c, 9, 59, 0
5, 46029, Note_on_c, 9, 53, 58
5, 46032, Note_on_c, 9, 38, 25
5, 46051, Note_on_c, 9, 38, 0
5, 46055, Note_on_c, 9, 53, 0
5, 46070, Note_on_c, 9, 59, 49
5, 46074, Note_on_c, 9, 38, 26
5, 46089, Note_on_c, 9, 38, 0
5, 46111, Note_on_c, 9, 38, 18
5, 46121, Note_on_c, 9, 38, 0
5, 46126, Note_on_c, 9, 59, 0
5, 46146, Note_on_c, 9, 36, 36
5, 46146, Note_on_c, 9, 59, 38
5, 46164, Note_on_c, 9, 59, 0
5, 46183, Note_on_c, 9, 36, 0
5, 46185, Note_on_c, 9, 59, 67
5, 46200, Note_on_c, 9, 44, 37
5, 46262, Note_on_c, 9, 59, 0
5, 46308, Note_on_c, 9, 59, 71
5, 46320, Note_on_c, 9, 44, 0
5, 46348, Note_on_c, 9, 59, 0
5, 46350, Note_on_c, 9, 38, 20
5, 46367, Note_on_c, 9, 38, 0
5, 46391, Note_on_c, 9, 36, 50
5, 46394, Note_on_c, 9, 59, 40
5, 46405, Note_on_c, 9, 59, 0
5, 46429, Note_on_c, 9, 59, 63
5, 46434, Note_on_c, 9, 36, 0
5, 46440, Note_on_c, 9, 44, 35
5, 46498, Note_on_c, 9, 44, 0
5, 46509, Note_on_c, 9, 36, 46
5, 46514, Note_on_c, 9, 59, 0
5, 46524, Note_on_c, 9, 36, 0
5, 46551, Note_on_c, 9, 59, 51
5, 46553, Note_on_c, 9, 38, 18
5, 46576, Note_on_c, 9, 38, 0
5, 46578, Note_on_c, 9, 59, 0
5, 46591, Note_on_c, 9, 38, 21
5, 46607, Note_on_c, 9, 38, 0
5, 46633, Note_on_c, 9, 36, 51
5, 46646, Note_on_c, 9, 59, 36
5, 46660, Note_on_c, 9, 59, 0
5, 46663, Note_on_c, 9, 36, 0
5, 46680, Note_on_c, 9, 46, 34
5, 46683, Note_on_c, 9, 59, 75
5, 46721, Note_on_c, 9, 38, 28
5, 46733, Note_on_c, 9, 38, 0
5, 46758, Note_on_c, 9, 38, 22
5, 46771, Note_on_c, 9, 38, 0
5, 46774, Note_on_c, 9, 59, 0
5, 46800, Note_on_c, 9, 36, 41
5, 46807, Note_on_c, 9, 59, 38
5, 46812, Note_on_c, 9, 46, 0
5, 46817, Note_on_c, 9, 59, 0
5, 46831, Note_on_c, 9, 36, 0
5, 46886, Note_on_c, 9, 59, 84
5, 46920, Note_on_c, 9, 46, 36
5, 46965, Note_on_c, 9, 46, 0
5, 46983, Note_on_c, 9, 59, 0
5, 47007, Note_on_c, 9, 59, 39
5, 47020, Note_on_c, 9, 59, 0
5, 47055, Note_on_c, 9, 59, 82
5, 47123, Note_on_c, 9, 38, 22
5, 47129, Note_on_c, 9, 59, 0
5, 47142, Note_on_c, 9, 38, 0
5, 47160, Note_on_c, 9, 44, 38
5, 47172, Note_on_c, 9, 38, 18
5, 47194, Note_on_c, 9, 38, 0
5, 47205, Note_on_c, 9, 44, 0
5, 47242, Note_on_c, 9, 36, 48
5, 47243, Note_on_c, 9, 59, 81
5, 47271, Note_on_c, 9, 36, 0
5, 47273, Note_on_c, 9, 59, 0
5, 47291, Note_on_c, 9, 38, 17
5, 47291, Note_on_c, 9, 59, 39
5, 47333, Note_on_c, 9, 38, 0
5, 47341, Note_on_c, 9, 59, 0
5, 47359, Note_on_c, 9, 36, 44
5, 47365, Note_on_c, 9, 59, 64
5, 47385, Note_on_c, 9, 36, 0
5, 47389, Note_on_c, 9, 59, 0
5, 47400, Note_on_c, 9, 44, 29
5, 47406, Note_on_c, 9, 36, 27
5, 47408, Note_on_c, 9, 59, 42
5, 47439, Note_on_c, 9, 44, 0
5, 47442, Note_on_c, 9, 36, 0
5, 47476, Note_on_c, 9, 36, 38
5, 47481, Note_on_c, 9, 59, 0
5, 47493, Note_on_c, 9, 36, 0
5, 47521, Note_on_c, 9, 59, 68
5, 47524, Note_on_c, 9, 36, 32
5, 47538, Note_on_c, 9, 59, 0
5, 47554, Note_on_c, 9, 36, 0
5, 47595, Note_on_c, 9, 59, 40
5, 47605, Note_on_c, 9, 59, 0
5, 47633, Note_on_c, 9, 59, 58
5, 47640, Note_on_c, 9, 44, 33
5, 47678, Note_on_c, 9, 44, 0
5, 47690, Note_on_c, 9, 59, 0
5, 47708, Note_on_c, 9, 59, 53
5, 47725, Note_on_c, 9, 59, 0
5, 47750, Note_on_c, 9, 59, 48
5, 47829, Note_on_c, 9, 59, 0
5, 47830, Note_on_c, 9, 51, 25
5, 47842, Note_on_c, 9, 51, 0
5, 47873, Note_on_c, 9, 59, 44
5, 47880, Note_on_c, 9, 44, 28
5, 47908, Note_on_c, 9, 44, 0
5, 47909, Note_on_c, 9, 59, 0
5, 47947, Note_on_c, 9, 59, 34
5, 47968, Note_on_c, 9, 59, 0
5, 47997, Note_on_c, 9, 59, 24
5, 48057, Note_on_c, 9, 53, 24
5, 48059, Note_on_c, 9, 59, 0
5, 48074, Note_on_c, 9, 53, 0
5, 48114, Note_on_c, 9, 53, 25
5, 48120, Note_on_c, 9, 44, 30
5, 48201, Note_on_c, 9, 44, 0
5, 48229, Note_on_c, 9, 53, 0
5, 48299, Note_on_c, 9, 36, 22
5, 48301, Note_on_c, 9, 53, 29
5, 48321, Note_on_c, 9, 36, 0
5, 48321, Note_on_c, 9, 53, 0
5, 48360, Note_on_c, 9, 44, 35
5, 48360, Note_on_c, 9, 53, 24
5, 48362, Note_on_c, 9, 36, 32
5, 48394, Note_on_c, 9, 53, 0
5, 48398, Note_on_c, 9, 44, 0
5, 48414, Note_on_c, 9, 59, 49
5, 48440, Note_on_c, 9, 59, 0
5, 48449, Note_on_c, 9, 36, 0
5, 48476, Note_on_c, 9, 59, 34
5, 48517, Note_on_c, 9, 59, 0
5, 48545, Note_on_c, 9, 36, 31
5, 48548, Note_on_c, 9, 53, 17
5, 48562, Note_on_c, 9, 53, 0
5, 48564, Note_on_c, 9, 36, 0
5, 48600, Note_on_c, 9, 44, 33
5, 48607, Note_on_c, 9, 53, 28
5, 48610, Note_on_c, 9, 36, 44
5, 48628, Note_on_c, 9, 44, 0
5, 48675, Note_on_c, 9, 36, 0
5, 48724, Note_on_c, 9, 36, 48
5, 48739, Note_on_c, 9, 53, 0
5, 48789, Note_on_c, 9, 36, 0
5, 48804, Note_on_c, 9, 53, 31
5, 48816, Note_on_c, 9, 53, 0
5, 48840, Note_on_c, 9, 44, 37
5, 48845, Note_on_c, 9, 36, 48
5, 48850, Note_on_c, 9, 53, 32
5, 48869, Note_on_c, 9, 44, 0
5, 48870, Note_on_c, 9, 53, 0
5, 48923, Note_on_c, 9, 53, 51
5, 48933, Note_on_c, 9, 53, 0
5, 48941, Note_on_c, 9, 36, 0
5, 48964, Note_on_c, 9, 51, 54
5, 49028, Note_on_c, 9, 51, 0
5, 49079, Note_on_c, 9, 51, 83
5, 49080, Note_on_c, 9, 44, 21
5, 49101, Note_on_c, 9, 44, 0
5, 49133, Note_on_c, 9, 51, 0
5, 49168, Note_on_c, 9, 51, 48
5, 49185, Note_on_c, 9, 51, 0
5, 49200, Note_on_c, 9, 51, 65
5, 49277, Note_on_c, 9, 51, 0
5, 49318, Note_on_c, 9, 51, 79
5, 49320, Note_on_c, 9, 46, 19
5, 49336, Note_on_c, 9, 46, 0
5, 49381, Note_on_c, 9, 51, 0
5, 49406, Note_on_c, 9, 51, 48
5, 49423, Note_on_c, 9, 51, 0
5, 49439, Note_on_c, 9, 51, 62
5, 49512, Note_on_c, 9, 51, 0
5, 49556, Note_on_c, 9, 51, 73
5, 49560, Note_on_c, 9, 44, 33
5, 49586, Note_on_c, 9, 44, 0
5, 49627, Note_on_c, 9, 51, 0
5, 49673, Note_on_c, 9, 51, 72
5, 49736, Note_on_c, 9, 51, 0
5, 49787, Note_on_c, 9, 51, 72
5, 49800, Note_on_c, 9, 44, 35
5, 49826, Note_on_c, 9, 44, 0
5, 49854, Note_on_c, 9, 51, 0
5, 49878, Note_on_c, 9, 51, 46
5, 49894, Note_on_c, 9, 51, 0
5, 49908, Note_on_c, 9, 51, 69
5, 49985, Note_on_c, 9, 51, 0
5, 50028, Note_on_c, 9, 51, 77
5, 50040, Note_on_c, 9, 44, 32
5, 50063, Note_on_c, 9, 44, 0
5, 50099, Note_on_c, 9, 51, 0
5, 50115, Note_on_c, 9, 51, 52
5, 50132, Note_on_c, 9, 51, 0
5, 50146, Note_on_c, 9, 51, 64
5, 50226, Note_on_c, 9, 51, 0
5, 50236, Note_on_c, 9, 38, 12
5, 50244, Note_on_c, 9, 38, 0
5, 50266, Note_on_c, 9, 51, 73
5, 50280, Note_on_c, 9, 44, 32
5, 50302, Note_on_c, 9, 44, 0
5, 50330, Note_on_c, 9, 51, 0
5, 50355, Note_on_c, 9, 51, 46
5, 50355, Note_on_c, 9, 38, 22
5, 50367, Note_on_c, 9, 38, 0
5, 50368, Note_on_c, 9, 51, 0
5, 50386, Note_on_c, 9, 51, 57
5, 50469, Note_on_c, 9, 51, 0
5, 50508, Note_on_c, 9, 51, 67
5, 50582, Note_on_c, 9, 51, 0
5, 50625, Note_on_c, 9, 51, 70
5, 50696, Note_on_c, 9, 51, 0
5, 50709, Note_on_c, 9, 38, 20
5, 50719, Note_on_c, 9, 38, 0
5, 50744, Note_on_c, 9, 51, 72
5, 50760, Note_on_c, 9, 44, 26
5, 50789, Note_on_c, 9, 44, 0
5, 50814, Note_on_c, 9, 51, 0
5, 50827, Note_on_c, 9, 38, 31
5, 50848, Note_on_c, 9, 38, 0
5, 50857, Note_on_c, 9, 51, 71
5, 50866, Note_on_c, 9, 36, 24
5, 50916, Note_on_c, 9, 36, 0
5, 50924, Note_on_c, 9, 51, 0
5, 50948, Note_on_c, 9, 36, 31
5, 50973, Note_on_c, 9, 51, 72
5, 51032, Note_on_c, 9, 51, 0
5, 51037, Note_on_c, 9, 36, 0
5, 51070, Note_on_c, 9, 51, 47
5, 51084, Note_on_c, 9, 51, 0
5, 51101, Note_on_c, 9, 51, 64
5, 51107, Note_on_c, 9, 36, 28
5, 51171, Note_on_c, 9, 51, 0
5, 51178, Note_on_c, 9, 36, 0
5, 51200, Note_on_c, 9, 44, 25
5, 51217, Note_on_c, 9, 51, 74
5, 51224, Note_on_c, 9, 44, 0
5, 51279, Note_on_c, 9, 51, 0
5, 51306, Note_on_c, 9, 51, 37
5, 51316, Note_on_c, 9, 51, 0
5, 51342, Note_on_c, 9, 51, 60
5, 51410, Note_on_c, 9, 51, 0
5, 51440, Note_on_c, 9, 44, 32
5, 51459, Note_on_c, 9, 51, 69
5, 51470, Note_on_c, 9, 44, 0
5, 51529, Note_on_c, 9, 51, 0
5, 51573, Note_on_c, 9, 53, 47
5, 51573, Note_on_c, 9, 51, 62
5, 51656, Note_on_c, 9, 53, 0
5, 51657, Note_on_c, 9, 51, 0
5, 51680, Note_on_c, 9, 44, 31
5, 51694, Note_on_c, 9, 51, 69
5, 51714, Note_on_c, 9, 44, 0
5, 51766, Note_on_c, 9, 51, 0
5, 51783, Note_on_c, 9, 51, 43
5, 51797, Note_on_c, 9, 51, 0
5, 51813, Note_on_c, 9, 51, 65
5, 51894, Note_on_c, 9, 51, 0
5, 51920, Note_on_c, 9, 44, 30
5, 51932, Note_on_c, 9, 51, 71
5, 51952, Note_on_c, 9, 44, 0
5, 52011, Note_on_c, 9, 51, 0
5, 52026, Note_on_c, 9, 51, 55
5, 52041, Note_on_c, 9, 51, 0
5, 52057, Note_on_c, 9, 51, 64
5, 52149, Note_on_c, 9, 51, 0
5, 52160, Note_on_c, 9, 44, 31
5, 52178, Note_on_c, 9, 51, 69
5, 52189, Note_on_c, 9, 44, 0
5, 52267, Note_on_c, 9, 51, 0
5, 52299, Note_on_c, 9, 51, 69
5, 52377, Note_on_c, 9, 51, 0
5, 52377, Note_on_c, 9, 38, 18
5, 52389, Note_on_c, 9, 38, 0
5, 52421, Note_on_c, 9, 51, 71
5, 52431, Note_on_c, 9, 38, 16
5, 52440, Note_on_c, 9, 46, 35
5, 52452, Note_on_c, 9, 38, 0
5, 52475, Note_on_c, 9, 46, 0
5, 52493, Note_on_c, 9, 51, 0
5, 52510, Note_on_c, 9, 51, 44
5, 52511, Note_on_c, 9, 36, 29
5, 52527, Note_on_c, 9, 36, 0
5, 52529, Note_on_c, 9, 51, 0
5, 52546, Note_on_c, 9, 51, 53
5, 52562, Note_on_c, 9, 38, 15
5, 52615, Note_on_c, 9, 38, 0
5, 52634, Note_on_c, 9, 51, 0
5, 52636, Note_on_c, 9, 36, 24
5, 52656, Note_on_c, 9, 36, 0
5, 52671, Note_on_c, 9, 51, 72
5, 52675, Note_on_c, 9, 38, 15
5, 52735, Note_on_c, 9, 38, 0
5, 52746, Note_on_c, 9, 51, 0
5, 52758, Note_on_c, 9, 36, 25
5, 52760, Note_on_c, 9, 51, 54
5, 52772, Note_on_c, 9, 36, 0
5, 52777, Note_on_c, 9, 51, 0
5, 52799, Note_on_c, 9, 51, 51
5, 52799, Note_on_c, 9, 36, 33
5, 52800, Note_on_c, 9, 44, 21
5, 52832, Note_on_c, 9, 44, 0
5, 52845, Note_on_c, 9, 51, 0
5, 52857, Note_on_c, 9, 36, 0
5, 52880, Note_on_c, 9, 51, 59
5, 52888, Note_on_c, 9, 51, 0
5, 52917, Note_on_c, 9, 51, 72
5, 52920, Note_on_c, 9, 44, 30
5, 52958, Note_on_c, 9, 44, 0
5, 53010, Note_on_c, 9, 51, 0
5, 53038, Note_on_c, 9, 51, 68
5, 53040, Note_on_c, 9, 44, 29
5, 53077, Note_on_c, 9, 44, 0
5, 53119, Note_on_c, 9, 51, 0
5, 53159, Note_on_c, 9, 51, 75
5, 53160, Note_on_c, 9, 44, 26
5, 53185, Note_on_c, 9, 44, 0
5, 53233, Note_on_c, 9, 51, 0
5, 53279, Note_on_c, 9, 51, 69
5, 53280, Note_on_c, 9, 44, 30
5, 53302, Note_on_c, 9, 44, 0
5, 53305, Note_on_c, 9, 51, 0
5, 53319, Note_on_c, 9, 51, 63
5, 53351, Note_on_c, 9, 51, 0
5, 53400, Note_on_c, 9, 44, 25
5, 53404, Note_on_c, 9, 51, 74
5, 53425, Note_on_c, 9, 44, 0
5, 53488, Note_on_c, 9, 51, 0
5, 53520, Note_on_c, 9, 44, 25
5, 53524, Note_on_c, 9, 51, 70
5, 53545, Note_on_c, 9, 44, 0
5, 53600, Note_on_c, 9, 51, 0
5, 53640, Note_on_c, 9, 44, 25
5, 53646, Note_on_c, 9, 37, 67
5, 53646, Note_on_c, 9, 51, 71
5, 53666, Note_on_c, 9, 44, 0
5, 53730, Note_on_c, 9, 37, 0
5, 53732, Note_on_c, 9, 51, 0
5, 53760, Note_on_c, 9, 44, 30
5, 53767, Note_on_c, 9, 51, 72
5, 53794, Note_on_c, 9, 44, 0
5, 53860, Note_on_c, 9, 51, 0
5, 53880, Note_on_c, 9, 44, 33
5, 53887, Note_on_c, 9, 36, 24
5, 53893, Note_on_c, 9, 51, 68
5, 53908, Note_on_c, 9, 44, 0
5, 53913, Note_on_c, 9, 51, 0
5, 53919, Note_on_c, 9, 36, 0
5, 53925, Note_on_c, 9, 51, 65
5, 53946, Note_on_c, 9, 51, 0
5, 54000, Note_on_c, 9, 44, 21
5, 54015, Note_on_c, 9, 51, 74
5, 54024, Note_on_c, 9, 44, 0
5, 54103, Note_on_c, 9, 51, 0
5, 54120, Note_on_c, 9, 44, 19
5, 54130, Note_on_c, 9, 51, 64
5, 54141, Note_on_c, 9, 37, 37
5, 54149, Note_on_c, 9, 44, 0
5, 54153, Note_on_c, 9, 37, 0
5, 54169, Note_on_c, 9, 51, 0
5, 54212, Note_on_c, 9, 37, 74
5, 54218, Note_on_c, 9, 51, 48
5, 54228, Note_on_c, 9, 51, 0
5, 54240, Note_on_c, 9, 44, 25
5, 54243, Note_on_c, 9, 37, 0
5, 54253, Note_on_c, 9, 51, 57
5, 54267, Note_on_c, 9, 44, 0
5, 54339, Note_on_c, 9, 51, 0
5, 54360, Note_on_c, 9, 44, 20
5, 54369, Note_on_c, 9, 51, 68
5, 54377, Note_on_c, 9, 36, 36
5, 54392, Note_on_c, 9, 44, 0
5, 54426, Note_on_c, 9, 36, 0
5, 54438, Note_on_c, 9, 51, 0
5, 54449, Note_on_c, 9, 36, 28
5, 54455, Note_on_c, 9, 51, 53
5, 54470, Note_on_c, 9, 51, 0
5, 54480, Note_on_c, 9, 44, 18
5, 54485, Note_on_c, 9, 36, 0
5, 54488, Note_on_c, 9, 51, 57
5, 54509, Note_on_c, 9, 44, 0
5, 54571, Note_on_c, 9, 51, 0
5, 54600, Note_on_c, 9, 44, 32
5, 54607, Note_on_c, 9, 51, 67
5, 54633, Note_on_c, 9, 44, 0
5, 54678, Note_on_c, 9, 38, 27
5, 54681, Note_on_c, 9, 51, 0
5, 54689, Note_on_c, 9, 38, 0
5, 54696, Note_on_c, 9, 51, 46
5, 54704, Note_on_c, 9, 51, 0
5, 54721, Note_on_c, 9, 51, 39
5, 54799, Note_on_c, 9, 51, 0
5, 54800, Note_on_c, 9, 36, 29
5, 54814, Note_on_c, 9, 51, 63
5, 54819, Note_on_c, 9, 36, 0
5, 54829, Note_on_c, 9, 51, 0
5, 54836, Note_on_c, 9, 36, 24
5, 54840, Note_on_c, 9, 44, 30
5, 54848, Note_on_c, 9, 51, 40
5, 54867, Note_on_c, 9, 44, 0
5, 54887, Note_on_c, 9, 36, 0
5, 54927, Note_on_c, 9, 51, 0
5, 54962, Note_on_c, 9, 36, 34
5, 54964, Note_on_c, 9, 51, 63
5, 55001, Note_on_c, 9, 36, 0
5, 55051, Note_on_c, 9, 51, 0
5, 55080, Note_on_c, 9, 46, 30
5, 55081, Note_on_c, 9, 51, 64
5, 55119, Note_on_c, 9, 46, 0
5, 55148, Note_on_c, 9, 51, 0
5, 55164, Note_on_c, 9, 51, 44
5, 55172, Note_on_c, 9, 51, 0
5, 55194, Note_on_c, 9, 51, 52
5, 55273, Note_on_c, 9, 51, 0
5, 55309, Note_on_c, 9, 51, 69
5, 55320, Note_on_c, 9, 44, 33
5, 55352, Note_on_c, 9, 44, 0
5, 55380, Note_on_c, 9, 51, 0
5, 55383, Note_on_c, 9, 38, 25
5, 55409, Note_on_c, 9, 38, 0
5, 55425, Note_on_c, 9, 51, 67
5, 55430, Note_on_c, 9, 36, 24
5, 55457, Note_on_c, 9, 36, 0
5, 55489, Note_on_c, 9, 51, 0
5, 55494, Note_on_c, 9, 36, 34
5, 55505, Note_on_c, 9, 51, 37
5, 55510, Note_on_c, 9, 36, 0
5, 55516, Note_on_c, 9, 51, 0
5, 55520, Note_on_c, 9, 44, 40
5, 55539, Note_on_c, 9, 51, 57
5, 55540, Note_on_c, 9, 36, 25
5, 55542, Note_on_c, 9, 44, 0
5, 55560, Note_on_c, 9, 44, 25
5, 55593, Note_on_c, 9, 36, 0
5, 55594, Note_on_c, 9, 44, 0
5, 55620, Note_on_c, 9, 51, 0
5, 55661, Note_on_c, 9, 51, 70
5, 55664, Note_on_c, 9, 36, 41
5, 55733, Note_on_c, 9, 36, 0
5, 55737, Note_on_c, 9, 51, 0
5, 55788, Note_on_c, 9, 51, 63
5, 55800, Note_on_c, 9, 46, 35
5, 55842, Note_on_c, 9, 46, 0
5, 55852, Note_on_c, 9, 51, 0
5, 55882, Note_on_c, 9, 51, 37
5, 55898, Note_on_c, 9, 51, 0
5, 55914, Note_on_c, 9, 51, 63
5, 55999, Note_on_c, 9, 51, 0
5, 56034, Note_on_c, 9, 51, 61
5, 56040, Note_on_c, 9, 44, 28
5, 56065, Note_on_c, 9, 44, 0
5, 56107, Note_on_c, 9, 51, 0
5, 56124, Note_on_c, 9, 51, 50
5, 56134, Note_on_c, 9, 51, 0
5, 56159, Note_on_c, 9, 51, 48
5, 56232, Note_on_c, 9, 51, 0
5, 56280, Note_on_c, 9, 44, 28
5, 56281, Note_on_c, 9, 51, 78
5, 56313, Note_on_c, 9, 44, 0
5, 56365, Note_on_c, 9, 51, 0
5, 56404, Note_on_c, 9, 51, 71
5, 56458, Note_on_c, 9, 51, 0
5, 56488, Note_on_c, 9, 51, 45
5, 56507, Note_on_c, 9, 51, 0
5, 56520, Note_on_c, 9, 44, 34
5, 56523, Note_on_c, 9, 51, 53
5, 56567, Note_on_c, 9, 51, 0
5, 56592, Note_on_c, 9, 44, 0
5, 56608, Note_on_c, 9, 51, 78
5, 56610, Note_on_c, 9, 53, 55
5, 56635, Note_on_c, 9, 51, 0
5, 56638, Note_on_c, 9, 53, 0
5, 56658, Note_on_c, 9, 51, 43
5, 56718, Note_on_c, 9, 51, 0
5, 56720, Note_on_c, 9, 44, 35
5, 56736, Note_on_c, 9, 51, 67
5, 56738, Note_on_c, 9, 44, 0
5, 56758, Note_on_c, 9, 51, 0
5, 56760, Note_on_c, 9, 44, 29
5, 56765, Note_on_c, 9, 45, 33
5, 56773, Note_on_c, 9, 51, 49
5, 56831, Note_on_c, 9, 45, 0
5, 56850, Note_on_c, 9, 45, 62
5, 56860, Note_on_c, 9, 44, 0
5, 56861, Note_on_c, 9, 51, 0
5, 56892, Note_on_c, 9, 51, 69
5, 56966, Note_on_c, 9, 51, 0
5, 56984, Note_on_c, 9, 51, 33
5, 56985, Note_on_c, 9, 45, 0
5, 56992, Note_on_c, 9, 51, 0
5, 57000, Note_on_c, 9, 44, 42
5, 57003, Note_on_c, 9, 37, 50
5, 57008, Note_on_c, 9, 51, 53
5, 57063, Note_on_c, 9, 44, 0
5, 57078, Note_on_c, 9, 37, 0
5, 57088, Note_on_c, 9, 51, 0
5, 57120, Note_on_c, 9, 51, 70
5, 57207, Note_on_c, 9, 51, 0
5, 57208, Note_on_c, 9, 37, 30
5, 57232, Note_on_c, 9, 37, 0
5, 57240, Note_on_c, 9, 44, 33
5, 57240, Note_on_c, 9, 45, 45
5, 57240, Note_on_c, 9, 51, 67
5, 57268, Note_on_c, 9, 44, 0
5, 57305, Note_on_c, 9, 45, 0
5, 57314, Note_on_c, 9, 51, 0
5, 57324, Note_on_c, 9, 45, 56
5, 57329, Note_on_c, 9, 51, 44
5, 57337, Note_on_c, 9, 51, 0
5, 57359, Note_on_c, 9, 51, 50
5, 57440, Note_on_c, 9, 45, 0
5, 57445, Note_on_c, 9, 51, 0
5, 57480, Note_on_c, 9, 46, 31
5, 57482, Note_on_c, 9, 51, 73
5, 57565, Note_on_c, 9, 51, 0
5, 57571, Note_on_c, 9, 46, 0
5, 57577, Note_on_c, 9, 51, 46
5, 57587, Note_on_c, 9, 51, 0
5, 57609, Note_on_c, 9, 51, 53
5, 57696, Note_on_c, 9, 51, 0
5, 57720, Note_on_c, 9, 44, 38
5, 57728, Note_on_c, 9, 51, 71
5, 57768, Note_on_c, 9, 44, 0
5, 57797, Note_on_c, 9, 51, 0
5, 57813, Note_on_c, 9, 51, 50
5, 57828, Note_on_c, 9, 51, 0
5, 57843, Note_on_c, 9, 51, 67
5, 57937, Note_on_c, 9, 51, 0
5, 57960, Note_on_c, 9, 44, 35
5, 57967, Note_on_c, 9, 51, 75
5, 58002, Note_on_c, 9, 44, 0
5, 58047, Note_on_c, 9, 36, 22
5, 58057, Note_on_c, 9, 36, 0
5, 58059, Note_on_c, 9, 51, 0
5, 58090, Note_on_c, 9, 51, 74
5, 58114, Note_on_c, 9, 51, 0
5, 58124, Note_on_c, 9, 51, 60
5, 58159, Note_on_c, 9, 51, 0
5, 58200, Note_on_c, 9, 44, 34
5, 58213, Note_on_c, 9, 51, 72
5, 58274, Note_on_c, 9, 44, 0
5, 58291, Note_on_c, 9, 51, 0
5, 58324, Note_on_c, 9, 51, 74
5, 58384, Note_on_c, 9, 36, 33
5, 58403, Note_on_c, 9, 36, 0
5, 58413, Note_on_c, 9, 51, 0
5, 58423, Note_on_c, 9, 36, 27
5, 58431, Note_on_c, 9, 36, 0
5, 58440, Note_on_c, 9, 46, 42
5, 58444, Note_on_c, 9, 51, 71
5, 58514, Note_on_c, 9, 51, 0
5, 58521, Note_on_c, 9, 36, 29
5, 58529, Note_on_c, 9, 36, 0
5, 58530, Note_on_c, 9, 51, 51
5, 58539, Note_on_c, 9, 46, 0
5, 58547, Note_on_c, 9, 51, 0
5, 58563, Note_on_c, 9, 51, 60
5, 58642, Note_on_c, 9, 51, 0
5, 58680, Note_on_c, 9, 44, 44
5, 58681, Note_on_c, 9, 51, 72
5, 58743, Note_on_c, 9, 51, 0
5, 58766, Note_on_c, 9, 36, 33
5, 58771, Note_on_c, 9, 51, 43
5, 58777, Note_on_c, 9, 36, 0
5, 58785, Note_on_c, 9, 44, 0
5, 58785, Note_on_c, 9, 51, 0
5, 58806, Note_on_c, 9, 51, 50
5, 58807, Note_on_c, 9, 36, 18
5, 58853, Note_on_c, 9, 36, 0
5, 58855, Note_on_c, 9, 51, 0
5, 58920, Note_on_c, 9, 44, 36
5, 58920, Note_on_c, 9, 51, 74
5, 58923, Note_on_c, 9, 53, 45
5, 59017, Note_on_c, 9, 51, 0
5, 59022, Note_on_c, 9, 44, 0
5, 59029, Note_on_c, 9, 53, 0
5, 59042, Note_on_c, 9, 51, 45
5, 59116, Note_on_c, 9, 51, 0
5, 59134, Note_on_c, 9, 51, 35
5, 59148, Note_on_c, 9, 51, 0
5, 59160, Note_on_c, 9, 44, 37
5, 59164, Note_on_c, 9, 51, 55
5, 59231, Note_on_c, 9, 44, 0
5, 59247, Note_on_c, 9, 38, 18
5, 59250, Note_on_c, 9, 51, 0
5, 59257, Note_on_c, 9, 38, 0
5, 59282, Note_on_c, 9, 51, 67
5, 59365, Note_on_c, 9, 38, 21
5, 59368, Note_on_c, 9, 51, 0
5, 59387, Note_on_c, 9, 38, 0
5, 59400, Note_on_c, 9, 44, 35
5, 59404, Note_on_c, 9, 51, 62
5, 59453, Note_on_c, 9, 44, 0
5, 59472, Note_on_c, 9, 51, 0
5, 59490, Note_on_c, 9, 36, 36
5, 59492, Note_on_c, 9, 51, 44
5, 59509, Note_on_c, 9, 51, 0
5, 59512, Note_on_c, 9, 36, 0
5, 59525, Note_on_c, 9, 51, 56
5, 59534, Note_on_c, 9, 36, 41
5, 59592, Note_on_c, 9, 36, 0
5, 59606, Note_on_c, 9, 51, 0
5, 59640, Note_on_c, 9, 44, 35
5, 59647, Note_on_c, 9, 51, 64
5, 59681, Note_on_c, 9, 44, 0
5, 59709, Note_on_c, 9, 51, 0
5, 59726, Note_on_c, 9, 38, 21
5, 59729, Note_on_c, 9, 51, 55
5, 59744, Note_on_c, 9, 51, 0
5, 59744, Note_on_c, 9, 38, 0
5, 59765, Note_on_c, 9, 51, 54
5, 59768, Note_on_c, 9, 36, 26
5, 59802, Note_on_c, 9, 36, 0
5, 59836, Note_on_c, 9, 51, 0
5, 59846, Note_on_c, 9, 36, 35
5, 59866, Note_on_c, 9, 36, 0
5, 59880, Note_on_c, 9, 46, 35
5, 59882, Note_on_c, 9, 51, 72
5, 59885, Note_on_c, 9, 36, 31
5, 59950, Note_on_c, 9, 51, 0
5, 59967, Note_on_c, 9, 36, 0
5, 59971, Note_on_c, 9, 51, 42
5, 59982, Note_on_c, 9, 51, 0
5, 60004, Note_on_c, 9, 51, 57
5, 60011, Note_on_c, 9, 36, 43
5, 60027, Note_on_c, 9, 46, 0
5, 60065, Note_on_c, 9, 51, 0
5, 60085, Note_on_c, 9, 36, 0
5, 60120, Note_on_c, 9, 44, 35
5, 60122, Note_on_c, 9, 51, 76
5, 60200, Note_on_c, 9, 51, 0
5, 60209, Note_on_c, 9, 44, 0
5, 60243, Note_on_c, 9, 51, 62
5, 60267, Note_on_c, 9, 51, 0
5, 60327, Note_on_c, 9, 51, 63
5, 60343, Note_on_c, 9, 51, 0
5, 60360, Note_on_c, 9, 44, 34
5, 60368, Note_on_c, 9, 51, 55
5, 60416, Note_on_c, 9, 44, 0
5, 60432, Note_on_c, 9, 51, 0
5, 60479, Note_on_c, 9, 51, 52
5, 60489, Note_on_c, 9, 53, 20
5, 60566, Note_on_c, 9, 53, 0
5, 60568, Note_on_c, 9, 51, 0
5, 60600, Note_on_c, 9, 44, 32
5, 60614, Note_on_c, 9, 51, 60
5, 60617, Note_on_c, 9, 53, 44
5, 60638, Note_on_c, 9, 44, 0
5, 60705, Note_on_c, 9, 51, 0
5, 60717, Note_on_c, 9, 53, 0
5, 60740, Note_on_c, 9, 51, 33
5, 60820, Note_on_c, 9, 51, 0
5, 60840, Note_on_c, 9, 44, 35
5, 60846, Note_on_c, 9, 51, 47
5, 60850, Note_on_c, 9, 53, 38
5, 60878, Note_on_c, 9, 44, 0
5, 60927, Note_on_c, 9, 53, 0
5, 60935, Note_on_c, 9, 51, 0
5, 60966, Note_on_c, 9, 51, 55
5, 61041, Note_on_c, 9, 51, 0
5, 61074, Note_on_c, 9, 51, 46
5, 61076, Note_on_c, 9, 53, 36
5, 61080, Note_on_c, 9, 44, 34
5, 61116, Note_on_c, 9, 44, 0
5, 61164, Note_on_c, 9, 51, 0
5, 61164, Note_on_c, 9, 53, 0
5, 61195, Note_on_c, 9, 51, 46
5, 61274, Note_on_c, 9, 51, 0
5, 61317, Note_on_c, 9, 51, 57
5, 61317, Note_on_c, 9, 53, 39
5, 61320, Note_on_c, 9, 44, 27
5, 61356, Note_on_c, 9, 44, 0
5, 61403, Note_on_c, 9, 51, 0
5, 61407, Note_on_c, 9, 53, 0
5, 61408, Note_on_c, 9, 36, 24
5, 61419, Note_on_c, 9, 36, 0
5, 61437, Note_on_c, 9, 51, 32
5, 61449, Note_on_c, 9, 36, 27
5, 61505, Note_on_c, 9, 36, 0
5, 61520, Note_on_c, 9, 51, 0
5, 61525, Note_on_c, 9, 36, 29
5, 61541, Note_on_c, 9, 36, 0
5, 61550, Note_on_c, 9, 51, 57
5, 61552, Note_on_c, 9, 53, 38
5, 61560, Note_on_c, 9, 44, 27
5, 61594, Note_on_c, 9, 44, 0
5, 61609, Note_on_c, 9, 51, 0
5, 61642, Note_on_c, 9, 53, 0
5, 61662, Note_on_c, 9, 51, 37
5, 61681, Note_on_c, 9, 36, 27
5, 61728, Note_on_c, 9, 36, 0
5, 61749, Note_on_c, 9, 51, 0
5, 61783, Note_on_c, 9, 51, 60
5, 61785, Note_on_c, 9, 53, 39
5, 61800, Note_on_c, 9, 44, 32
5, 61830, Note_on_c, 9, 44, 0
5, 61862, Note_on_c, 9, 51, 0
5, 61867, Note_on_c, 9, 53, 0
5, 61902, Note_on_c, 9, 51, 42
5, 61982, Note_on_c, 9, 51, 0
5, 62027, Note_on_c, 9, 51, 60
5, 62029, Note_on_c, 9, 53, 40
5, 62040, Note_on_c, 9, 44, 34
5, 62067, Note_on_c, 9, 44, 0
5, 62110, Note_on_c, 9, 51, 0
5, 62121, Note_on_c, 9, 53, 0
5, 62151, Note_on_c, 9, 51, 44
5, 62221, Note_on_c, 9, 51, 0
5, 62272, Note_on_c, 9, 51, 64
5, 62273, Note_on_c, 9, 53, 44
5, 62280, Note_on_c, 9, 46, 34
5, 62310, Note_on_c, 9, 46, 0
5, 62311, Note_on_c, 9, 53, 0
5, 62331, Note_on_c, 9, 51, 0
5, 62370, Note_on_c, 9, 51, 34
5, 62391, Note_on_c, 9, 51, 0
5, 62408, Note_on_c, 9, 51, 43
5, 62448, Note_on_c, 9, 51, 0
5, 62489, Note_on_c, 9, 51, 40
5, 62499, Note_on_c, 9, 51, 0
5, 62520, Note_on_c, 9, 44, 34
5, 62525, Note_on_c, 9, 51, 59
5, 62551, Note_on_c, 9, 44, 0
5, 62671, Note_on_c, 9, 51, 0
5, 62704, Note_on_c, 9, 51, 46
5, 62715, Note_on_c, 9, 36, 22
5, 62722, Note_on_c, 9, 51, 0
5, 62742, Note_on_c, 9, 36, 0
5, 62760, Note_on_c, 9, 44, 30
5, 62762, Note_on_c, 9, 51, 52
5, 62787, Note_on_c, 9, 44, 0
5, 62837, Note_on_c, 9, 36, 33
5, 62851, Note_on_c, 9, 36, 0
5, 62882, Note_on_c, 9, 36, 31
5, 62907, Note_on_c, 9, 51, 0
5, 62936, Note_on_c, 9, 51, 47
5, 62969, Note_on_c, 9, 51, 0
5, 62996, Note_on_c, 9, 36, 0
5, 63002, Note_on_c, 9, 51, 39
5, 63004, Note_on_c, 9, 53, 30
5, 63136, Note_on_c, 9, 53, 0
5, 63139, Note_on_c, 9, 51, 0
5, 63173, Note_on_c, 9, 51, 29
5, 63202, Note_on_c, 9, 51, 0
5, 63236, Note_on_c, 9, 51, 48
5, 63238, Note_on_c, 9, 53, 36
5, 63240, Note_on_c, 9, 44, 29
5, 63272, Note_on_c, 9, 44, 0
5, 63313, Note_on_c, 9, 53, 0
5, 63325, Note_on_c, 9, 51, 0
5, 63359, Note_on_c, 9, 51, 28
5, 63392, Note_on_c, 9, 51, 0
5, 63424, Note_on_c, 9, 51, 36
5, 63447, Note_on_c, 9, 51, 0
5, 63480, Note_on_c, 9, 44, 29
5, 63483, Note_on_c, 9, 51, 42
5, 63488, Note_on_c, 9, 53, 31
5, 63559, Note_on_c, 9, 44, 0
5, 63561, Note_on_c, 9, 51, 0
5, 63565, Note_on_c, 9, 53, 0
5, 63603, Note_on_c, 9, 51, 32
5, 63636, Note_on_c, 9, 51, 0
5, 63666, Note_on_c, 9, 51, 48
5, 63685, Note_on_c, 9, 51, 0
5, 63720, Note_on_c, 9, 44, 37
5, 63726, Note_on_c, 9, 51, 73
5, 63760, Note_on_c, 9, 44, 0
5, 63813, Note_on_c, 9, 51, 0
5, 63844, Note_on_c, 9, 51, 28
5, 63862, Note_on_c, 9, 51, 0
5, 63962, Note_on_c, 9, 51, 37
5, 64012, Note_on_c, 9, 51, 0
5, 64083, Note_on_c, 9, 51, 28
5, 64090, Note_on_c, 9, 53, 20
5, 64121, Note_on_c, 9, 53, 0
5, 64125, Note_on_c, 9, 51, 0
5, 64199, Note_on_c, 9, 51, 23
5, 64200, Note_on_c, 9, 44, 37
5, 64202, Note_on_c, 9, 53, 20
5, 64236, Note_on_c, 9, 44, 0
5, 64241, Note_on_c, 9, 51, 0
5, 64247, Note_on_c, 9, 53, 0
5, 64249, Note_on_c, 9, 38, 16
5, 64258, Note_on_c, 9, 38, 0
5, 64280, Note_on_c, 9, 38, 22
5, 64296, Note_on_c, 9, 38, 0
5, 64317, Note_on_c, 9, 51, 18
5, 64325, Note_on_c, 9, 36, 37
5, 64361, Note_on_c, 9, 51, 0
5, 64389, Note_on_c, 9, 36, 0
5, 64439, Note_on_c, 9, 51, 15
5, 64440, Note_on_c, 9, 44, 29
5, 64446, Note_on_c, 9, 36, 37
5, 64465, Note_on_c, 9, 44, 0
5, 64489, Note_on_c, 9, 51, 0
5, 64528, Note_on_c, 9, 36, 0
5, 64560, Note_on_c, 9, 51, 18
5, 64565, Note_on_c, 9, 53, 18
5, 64566, Note_on_c, 9, 36, 37
5, 64621, Note_on_c, 9, 53, 0
5, 64622, Note_on_c, 9, 51, 0
5, 64685, Note_on_c, 9, 36, 0
5, 64686, Note_on_c, 9, 51, 21
5, 64689, Note_on_c, 9, 53, 22
5, 64744, Note_on_c, 9, 51, 0
5, 64747, Note_on_c, 9, 53, 0
5, 64799, Note_on_c, 9, 51, 38
5, 64864, Note_on_c, 9, 51, 0
5, 64913, Note_on_c, 9, 51, 25
5, 64919, Note_on_c, 9, 53, 24
5, 64960, Note_on_c, 9, 53, 0
5, 64970, Note_on_c, 9, 51, 0
5, 65028, Note_on_c, 9, 51, 23
5, 65034, Note_on_c, 9, 53, 20
5, 65081, Note_on_c, 9, 53, 0
5, 65085, Note_on_c, 9, 51, 0
5, 65146, Note_on_c, 9, 51, 21
5, 65151, Note_on_c, 9, 53, 24
5, 65209, Note_on_c, 9, 51, 0
5, 65209, Note_on_c, 9, 53, 0
5, 65216, Note_on_c, 9, 38, 20
5, 65236, Note_on_c, 9, 38, 0
5, 65262, Note_on_c, 9, 36, 29
5, 65306, Note_on_c, 9, 36, 0
5, 65340, Note_on_c, 9, 51, 25
5, 65360, Note_on_c, 9, 51, 0
5, 65390, Note_on_c, 9, 51, 28
5, 65399, Note_on_c, 9, 53, 24
5, 65457, Note_on_c, 9, 53, 0
5, 65458, Note_on_c, 9, 51, 0
5, 65509, Note_on_c, 9, 36, 24
5, 65514, Note_on_c, 9, 51, 23
5, 65518, Note_on_c, 9, 53, 24
5, 65560, Note_on_c, 9, 51, 0
5, 65561, Note_on_c, 9, 53, 0
5, 65583, Note_on_c, 9, 36, 0
5, 65634, Note_on_c, 9, 51, 25
5, 65642, Note_on_c, 9, 53, 16
5, 65781, Note_on_c, 9, 53, 0
5, 65782, Note_on_c, 9, 51, 0
5, 65817, Note_on_c, 9, 51, 29
5, 65832, Note_on_c, 9, 51, 0
5, 65867, Note_on_c, 9, 51, 23
5, 65872, Note_on_c, 9, 53, 22
5, 65910, Note_on_c, 9, 51, 0
5, 65910, Note_on_c, 9, 53, 0
5, 65990, Note_on_c, 9, 51, 21
5, 65997, Note_on_c, 9, 53, 17
5, 66034, Note_on_c, 9, 53, 0
5, 66044, Note_on_c, 9, 51, 0
5, 66108, Note_on_c, 9, 51, 33
5, 66138, Note_on_c, 9, 51, 0
5, 66221, Note_on_c, 9, 51, 31
5, 66226, Note_on_c, 9, 57, 28
5, 66243, Note_on_c, 9, 36, 26
5, 66339, Note_on_c, 9, 36, 0
5, 67278, Note_on_c, 9, 51, 0
5, 67293, Note_on_c, 9, 57, 0
5, 67293, End_track
6, 0, Start_track
6, 0, Title_t, "Trilogy 1 Primary Out"
6, 0, Control_c, 0, 7, 105
6, 0, Control_c, 0, 10, 64
6, 0, End_track
7, 0, Start_track
7, 0, Title_t, "Trilogy 1"
7, 0, End_track
0, 0, End_of_file
