0, 0, Header, 1, 2, 120
1, 0, Start_track
1, 0, Title_t, "Skylark (Joynny Mercer and Hoagy Carmichael"
1, 0, Text_t, "Doug McKenzie dougmck@pipeline.com.au\012"
1, 0, Text_t, "Played in real time. Markers will show up when played in 'Cakewalk'\012"
1, 0, Time_signature, 4, 2, 24, 8
1, 0, Key_signature, -3, "major"
1, 0, Tempo, 869565
1, 3330, Marker_t, "On C7 chord, root note (C) rises chromatically to its tritone (Gb)"
1, 7020, Marker_t, "Stacked 4ths with root (melody note) on top "
1, 7890, Marker_t, "On Bb13b9#11, LH plays 2 blacknotes (Ab&Bb) while RH plays white note cluster B,D,E,G"
1, 8368, Marker_t, "C/Bb"
1, 8569, Marker_t, "Ab/Bb"
1, 8758, Marker_t, "Eb/Bb"
1, 9039, Marker_t, "G/Bb"
1, 9923, Marker_t, "AbMaj7 add D"
1, 10440, Marker_t, "Gb13 #11"
1, 10767, Marker_t, "F9 #11"
1, 11520, Marker_t, "Slide off Black notes to adjacent white notes"
1, 18245, Marker_t, "On Bb13b9#11, same as Marker 3 but made into a run"
1, 19777, Marker_t, "'So What' voicings on each melody note (i.e. perfect 4ths with major 3rd on top)"
1, 22583, Marker_t, "In tempo on turnaround"
1, 43911, Marker_t, "On A7 chord diminished scale (Whole step,half step)"
1, 61440, Marker_t, "Basically stacked 4ths from within the parent scale (Eb) - note there are no accidentals "
1, 61440, End_track
2, 0, Start_track
2, 0, Title_t, ""
2, 0, Program_c, 0, 0
2, 0, Control_c, 0, 64, 127
2, 0, Control_c, 0, 64, 0
2, 0, Control_c, 0, 64, 127
2, 21, Control_c, 0, 64, 0
2, 21, Note_on_c, 0, 39, 48
2, 39, Control_c, 0, 64, 127
2, 50, Note_on_c, 0, 46, 55
2, 54, Note_on_c, 0, 39, 0
2, 75, Note_on_c, 0, 46, 0
2, 79, Note_on_c, 0, 55, 63
2, 107, Note_on_c, 0, 58, 51
2, 108, Note_on_c, 0, 62, 74
2, 113, Note_on_c, 0, 55, 0
2, 131, Note_on_c, 0, 62, 0
2, 133, Note_on_c, 0, 67, 68
2, 143, Note_on_c, 0, 62, 35
2, 158, Note_on_c, 0, 70, 72
2, 167, Note_on_c, 0, 67, 0
2, 181, Note_on_c, 0, 70, 0
2, 186, Note_on_c, 0, 74, 75
2, 192, Note_on_c, 0, 65, 32
2, 195, Note_on_c, 0, 74, 0
2, 208, Note_on_c, 0, 62, 0
2, 213, Note_on_c, 0, 65, 0
2, 216, Note_on_c, 0, 79, 71
2, 220, Note_on_c, 0, 58, 0
2, 238, Note_on_c, 0, 79, 0
2, 257, Note_on_c, 0, 74, 50
2, 258, Note_on_c, 0, 82, 33
2, 260, Note_on_c, 0, 60, 41
2, 260, Note_on_c, 0, 78, 40
2, 262, Note_on_c, 0, 63, 43
2, 263, Note_on_c, 0, 68, 20
2, 274, Control_c, 0, 64, 0
2, 308, Control_c, 0, 64, 127
2, 327, Note_on_c, 0, 58, 42
2, 333, Note_on_c, 0, 60, 0
2, 345, Note_on_c, 0, 63, 0
2, 345, Note_on_c, 0, 68, 0
2, 348, Note_on_c, 0, 58, 0
2, 397, Note_on_c, 0, 46, 25
2, 428, Note_on_c, 0, 74, 0
2, 435, Note_on_c, 0, 78, 0
2, 441, Note_on_c, 0, 82, 0
2, 484, Note_on_c, 0, 34, 36
2, 525, Note_on_c, 0, 34, 0
2, 531, Note_on_c, 0, 46, 0
2, 601, Note_on_c, 0, 39, 50
2, 610, Control_c, 0, 64, 0
2, 630, Control_c, 0, 64, 127
2, 637, Note_on_c, 0, 46, 54
2, 644, Note_on_c, 0, 39, 0
2, 668, Note_on_c, 0, 46, 0
2, 673, Note_on_c, 0, 55, 51
2, 706, Note_on_c, 0, 60, 58
2, 709, Note_on_c, 0, 55, 0
2, 710, Note_on_c, 0, 58, 31
2, 724, Note_on_c, 0, 60, 0
2, 735, Note_on_c, 0, 62, 54
2, 743, Note_on_c, 0, 62, 0
2, 760, Note_on_c, 0, 65, 69
2, 775, Note_on_c, 0, 65, 0
2, 782, Note_on_c, 0, 67, 79
2, 784, Note_on_c, 0, 62, 26
2, 803, Note_on_c, 0, 70, 81
2, 807, Note_on_c, 0, 62, 0
2, 808, Note_on_c, 0, 67, 0
2, 819, Note_on_c, 0, 70, 0
2, 820, Note_on_c, 0, 58, 0
2, 827, Note_on_c, 0, 72, 76
2, 844, Note_on_c, 0, 72, 0
2, 849, Note_on_c, 0, 74, 76
2, 864, Note_on_c, 0, 74, 0
2, 876, Note_on_c, 0, 77, 51
2, 901, Note_on_c, 0, 77, 0
2, 907, Note_on_c, 0, 78, 39
2, 924, Note_on_c, 0, 78, 0
2, 941, Note_on_c, 0, 82, 47
2, 944, Note_on_c, 0, 78, 47
2, 945, Note_on_c, 0, 71, 48
2, 948, Note_on_c, 0, 70, 39
2, 961, Control_c, 0, 64, 0
2, 970, Control_c, 0, 64, 127
2, 1005, Note_on_c, 0, 68, 34
2, 1007, Note_on_c, 0, 70, 0
2, 1022, Note_on_c, 0, 68, 0
2, 1061, Note_on_c, 0, 75, 31
2, 1114, Note_on_c, 0, 53, 44
2, 1162, Note_on_c, 0, 53, 0
2, 1170, Note_on_c, 0, 46, 31
2, 1182, Note_on_c, 0, 46, 0
2, 1222, Note_on_c, 0, 46, 29
2, 1237, Note_on_c, 0, 46, 0
2, 1278, Note_on_c, 0, 34, 30
2, 1325, Note_on_c, 0, 75, 0
2, 1328, Note_on_c, 0, 78, 0
2, 1334, Note_on_c, 0, 82, 0
2, 1346, Note_on_c, 0, 71, 0
2, 1346, Note_on_c, 0, 22, 34
2, 1347, Note_on_c, 0, 34, 0
2, 1361, Note_on_c, 0, 22, 0
2, 1609, Note_on_c, 0, 53, 39
2, 1616, Note_on_c, 0, 39, 31
2, 1621, Control_c, 0, 64, 0
2, 1644, Control_c, 0, 64, 127
2, 1648, Note_on_c, 0, 55, 60
2, 1651, Note_on_c, 0, 53, 0
2, 1653, Note_on_c, 0, 46, 38
2, 1663, Note_on_c, 0, 39, 0
2, 1672, Note_on_c, 0, 55, 0
2, 1677, Note_on_c, 0, 58, 69
2, 1688, Note_on_c, 0, 46, 0
2, 1698, Note_on_c, 0, 58, 0
2, 1699, Note_on_c, 0, 55, 29
2, 1705, Note_on_c, 0, 60, 75
2, 1723, Note_on_c, 0, 60, 0
2, 1730, Note_on_c, 0, 62, 76
2, 1733, Note_on_c, 0, 58, 35
2, 1735, Note_on_c, 0, 55, 0
2, 1748, Note_on_c, 0, 62, 0
2, 1757, Note_on_c, 0, 65, 76
2, 1767, Note_on_c, 0, 62, 22
2, 1777, Note_on_c, 0, 65, 0
2, 1790, Note_on_c, 0, 67, 77
2, 1812, Note_on_c, 0, 62, 0
2, 1815, Note_on_c, 0, 67, 0
2, 1818, Note_on_c, 0, 58, 0
2, 1821, Note_on_c, 0, 70, 76
2, 1858, Note_on_c, 0, 70, 0
2, 1859, Note_on_c, 0, 71, 73
2, 1867, Control_c, 0, 64, 0
2, 1877, Control_c, 0, 64, 127
2, 1896, Note_on_c, 0, 72, 67
2, 1899, Note_on_c, 0, 71, 0
2, 1928, Note_on_c, 0, 72, 0
2, 1929, Note_on_c, 0, 75, 56
2, 1933, Note_on_c, 0, 68, 25
2, 1935, Note_on_c, 0, 63, 39
2, 1940, Note_on_c, 0, 60, 19
2, 1960, Note_on_c, 0, 75, 0
2, 1963, Note_on_c, 0, 77, 55
2, 1998, Note_on_c, 0, 77, 0
2, 2000, Note_on_c, 0, 80, 54
2, 2002, Note_on_c, 0, 58, 27
2, 2019, Control_c, 0, 64, 0
2, 2038, Note_on_c, 0, 82, 46
2, 2044, Note_on_c, 0, 80, 0
2, 2065, Control_c, 0, 64, 127
2, 2069, Note_on_c, 0, 82, 0
2, 2077, Note_on_c, 0, 84, 38
2, 2089, Note_on_c, 0, 68, 0
2, 2090, Note_on_c, 0, 63, 0
2, 2094, Note_on_c, 0, 60, 0
2, 2102, Note_on_c, 0, 58, 0
2, 2113, Note_on_c, 0, 84, 0
2, 2118, Note_on_c, 0, 87, 60
2, 2164, Note_on_c, 0, 87, 0
2, 2166, Note_on_c, 0, 39, 37
2, 2167, Note_on_c, 0, 86, 57
2, 2173, Control_c, 0, 64, 0
2, 2204, Note_on_c, 0, 46, 42
2, 2205, Control_c, 0, 64, 127
2, 2208, Note_on_c, 0, 39, 0
2, 2209, Note_on_c, 0, 86, 0
2, 2211, Note_on_c, 0, 91, 44
2, 2230, Note_on_c, 0, 91, 0
2, 2237, Note_on_c, 0, 46, 0
2, 2251, Note_on_c, 0, 55, 32
2, 2256, Note_on_c, 0, 94, 43
2, 2270, Note_on_c, 0, 94, 0
2, 2292, Note_on_c, 0, 55, 0
2, 2294, Note_on_c, 0, 58, 23
2, 2297, Note_on_c, 0, 101, 47
2, 2324, Note_on_c, 0, 101, 0
2, 2339, Note_on_c, 0, 91, 24
2, 2339, Note_on_c, 0, 62, 36
2, 2340, Note_on_c, 0, 98, 34
2, 2343, Note_on_c, 0, 94, 20
2, 2349, Note_on_c, 0, 94, 0
2, 2365, Note_on_c, 0, 91, 0
2, 2365, Note_on_c, 0, 98, 0
2, 2374, Note_on_c, 0, 62, 0
2, 2381, Note_on_c, 0, 65, 32
2, 2382, Note_on_c, 0, 103, 33
2, 2390, Note_on_c, 0, 103, 0
2, 2424, Note_on_c, 0, 65, 0
2, 2428, Note_on_c, 0, 106, 42
2, 2428, Note_on_c, 0, 94, 36
2, 2431, Note_on_c, 0, 62, 20
2, 2446, Note_on_c, 0, 94, 0
2, 2449, Note_on_c, 0, 106, 0
2, 2475, Note_on_c, 0, 108, 57
2, 2477, Note_on_c, 0, 65, 22
2, 2483, Note_on_c, 0, 62, 0
2, 2485, Note_on_c, 0, 65, 0
2, 2492, Note_on_c, 0, 58, 0
2, 2497, Note_on_c, 0, 108, 0
2, 2529, Note_on_c, 0, 106, 43
2, 2530, Note_on_c, 0, 60, 38
2, 2531, Note_on_c, 0, 63, 36
2, 2532, Note_on_c, 0, 94, 29
2, 2534, Control_c, 0, 64, 0
2, 2534, Note_on_c, 0, 68, 15
2, 2570, Control_c, 0, 64, 127
2, 2578, Note_on_c, 0, 68, 0
2, 2579, Note_on_c, 0, 58, 33
2, 2581, Note_on_c, 0, 60, 0
2, 2583, Note_on_c, 0, 63, 0
2, 2593, Note_on_c, 0, 58, 0
2, 2636, Note_on_c, 0, 46, 31
2, 2684, Note_on_c, 0, 46, 0
2, 2689, Note_on_c, 0, 41, 38
2, 2694, Note_on_c, 0, 41, 0
2, 2755, Note_on_c, 0, 34, 43
2, 2756, Note_on_c, 0, 22, 48
2, 2757, Note_on_c, 0, 94, 0
2, 2772, Note_on_c, 0, 106, 0
2, 2858, Note_on_c, 0, 22, 0
2, 2863, Note_on_c, 0, 34, 0
2, 3039, Note_on_c, 0, 72, 91
2, 3116, Note_on_c, 0, 72, 0
2, 3140, Note_on_c, 0, 72, 71
2, 3141, Note_on_c, 0, 70, 73
2, 3142, Note_on_c, 0, 46, 54
2, 3143, Note_on_c, 0, 62, 80
2, 3143, Note_on_c, 0, 67, 77
2, 3146, Control_c, 0, 64, 0
2, 3176, Control_c, 0, 64, 127
2, 3213, Note_on_c, 0, 72, 0
2, 3244, Note_on_c, 0, 70, 0
2, 3249, Note_on_c, 0, 67, 0
2, 3252, Note_on_c, 0, 72, 70
2, 3257, Note_on_c, 0, 70, 34
2, 3295, Note_on_c, 0, 46, 0
2, 3298, Note_on_c, 0, 62, 0
2, 3322, Note_on_c, 0, 72, 0
2, 3326, Note_on_c, 0, 70, 0
2, 3344, Note_on_c, 0, 72, 79
2, 3344, Note_on_c, 0, 68, 80
2, 3344, Note_on_c, 0, 64, 88
2, 3345, Note_on_c, 0, 48, 80
2, 3356, Control_c, 0, 64, 0
2, 3370, Note_on_c, 0, 48, 0
2, 3373, Note_on_c, 0, 49, 62
2, 3389, Note_on_c, 0, 49, 0
2, 3393, Note_on_c, 0, 50, 58
2, 3409, Note_on_c, 0, 51, 57
2, 3410, Note_on_c, 0, 50, 0
2, 3427, Note_on_c, 0, 52, 50
2, 3433, Note_on_c, 0, 51, 0
2, 3441, Note_on_c, 0, 52, 0
2, 3444, Note_on_c, 0, 53, 56
2, 3466, Note_on_c, 0, 54, 60
2, 3467, Note_on_c, 0, 53, 0
2, 3503, Control_c, 0, 64, 127
2, 3523, Note_on_c, 0, 64, 0
2, 3531, Note_on_c, 0, 72, 0
2, 3531, Note_on_c, 0, 68, 0
2, 3567, Note_on_c, 0, 68, 37
2, 3567, Note_on_c, 0, 75, 48
2, 3569, Note_on_c, 0, 72, 32
2, 3570, Note_on_c, 0, 64, 42
2, 3570, Note_on_c, 0, 60, 33
2, 3662, Note_on_c, 0, 60, 0
2, 3670, Note_on_c, 0, 54, 0
2, 3670, Note_on_c, 0, 72, 0
2, 3672, Note_on_c, 0, 75, 0
2, 3680, Note_on_c, 0, 64, 0
2, 3681, Note_on_c, 0, 68, 0
2, 3858, Note_on_c, 0, 70, 36
2, 3860, Note_on_c, 0, 63, 39
2, 3861, Note_on_c, 0, 56, 33
2, 3861, Note_on_c, 0, 41, 37
2, 3862, Note_on_c, 0, 48, 38
2, 3863, Control_c, 0, 64, 0
2, 3899, Control_c, 0, 64, 127
2, 3932, Note_on_c, 0, 56, 0
2, 3933, Note_on_c, 0, 41, 0
2, 3934, Note_on_c, 0, 48, 0
2, 3955, Note_on_c, 0, 63, 0
2, 3983, Note_on_c, 0, 70, 0
2, 4000, Note_on_c, 0, 63, 29
2, 4001, Note_on_c, 0, 60, 46
2, 4003, Note_on_c, 0, 56, 32
2, 4004, Note_on_c, 0, 53, 20
2, 4040, Note_on_c, 0, 70, 93
2, 4063, Note_on_c, 0, 53, 0
2, 4063, Note_on_c, 0, 63, 0
2, 4066, Note_on_c, 0, 60, 0
2, 4070, Note_on_c, 0, 70, 0
2, 4074, Note_on_c, 0, 56, 0
2, 4076, Note_on_c, 0, 75, 86
2, 4099, Note_on_c, 0, 75, 0
2, 4132, Note_on_c, 0, 74, 71
2, 4133, Note_on_c, 0, 66, 67
2, 4135, Note_on_c, 0, 62, 60
2, 4138, Note_on_c, 0, 56, 37
2, 4138, Note_on_c, 0, 46, 36
2, 4140, Control_c, 0, 64, 0
2, 4147, Note_on_c, 0, 66, 0
2, 4147, Note_on_c, 0, 67, 49
2, 4175, Control_c, 0, 64, 127
2, 4317, Note_on_c, 0, 74, 0
2, 4339, Note_on_c, 0, 72, 53
2, 4386, Note_on_c, 0, 72, 0
2, 4392, Note_on_c, 0, 70, 60
2, 4404, Note_on_c, 0, 67, 0
2, 4465, Note_on_c, 0, 62, 0
2, 4470, Note_on_c, 0, 56, 0
2, 4472, Note_on_c, 0, 68, 35
2, 4477, Note_on_c, 0, 70, 0
2, 4484, Note_on_c, 0, 46, 0
2, 4487, Note_on_c, 0, 68, 0
2, 4552, Note_on_c, 0, 67, 57
2, 4554, Note_on_c, 0, 40, 43
2, 4554, Note_on_c, 0, 59, 47
2, 4554, Note_on_c, 0, 50, 32
2, 4558, Note_on_c, 0, 55, 33
2, 4559, Control_c, 0, 64, 0
2, 4585, Note_on_c, 0, 50, 0
2, 4586, Control_c, 0, 64, 127
2, 4594, Note_on_c, 0, 55, 0
2, 4594, Note_on_c, 0, 47, 43
2, 4606, Note_on_c, 0, 59, 0
2, 4614, Note_on_c, 0, 40, 0
2, 4619, Note_on_c, 0, 67, 0
2, 4631, Note_on_c, 0, 55, 52
2, 4631, Note_on_c, 0, 59, 60
2, 4640, Note_on_c, 0, 55, 0
2, 4640, Note_on_c, 0, 47, 0
2, 4667, Note_on_c, 0, 67, 66
2, 4670, Note_on_c, 0, 59, 0
2, 4679, Note_on_c, 0, 67, 0
2, 4710, Note_on_c, 0, 70, 52
2, 4711, Note_on_c, 0, 61, 52
2, 4712, Note_on_c, 0, 66, 50
2, 4713, Note_on_c, 0, 55, 35
2, 4713, Note_on_c, 0, 45, 39
2, 4721, Control_c, 0, 64, 0
2, 4755, Control_c, 0, 64, 127
2, 4762, Note_on_c, 0, 52, 36
2, 4779, Note_on_c, 0, 55, 0
2, 4800, Note_on_c, 0, 52, 0
2, 4808, Note_on_c, 0, 70, 0
2, 4813, Note_on_c, 0, 61, 0
2, 4820, Note_on_c, 0, 66, 0
2, 4888, Note_on_c, 0, 45, 0
2, 4897, Note_on_c, 0, 68, 59
2, 4946, Note_on_c, 0, 68, 0
2, 4959, Note_on_c, 0, 67, 51
2, 4960, Note_on_c, 0, 60, 36
2, 4961, Note_on_c, 0, 63, 34
2, 4962, Note_on_c, 0, 44, 37
2, 4964, Control_c, 0, 64, 0
2, 4996, Control_c, 0, 64, 127
2, 5011, Note_on_c, 0, 51, 45
2, 5012, Note_on_c, 0, 60, 0
2, 5024, Note_on_c, 0, 63, 0
2, 5026, Note_on_c, 0, 67, 0
2, 5084, Note_on_c, 0, 65, 45
2, 5088, Note_on_c, 0, 55, 30
2, 5109, Note_on_c, 0, 65, 0
2, 5145, Note_on_c, 0, 72, 91
2, 5179, Note_on_c, 0, 72, 0
2, 5209, Note_on_c, 0, 70, 87
2, 5212, Note_on_c, 0, 55, 0
2, 5227, Note_on_c, 0, 51, 0
2, 5241, Note_on_c, 0, 44, 0
2, 5264, Note_on_c, 0, 70, 0
2, 5312, Note_on_c, 0, 67, 60
2, 5344, Note_on_c, 0, 67, 0
2, 5428, Note_on_c, 0, 63, 32
2, 5429, Note_on_c, 0, 30, 33
2, 5430, Note_on_c, 0, 52, 35
2, 5430, Note_on_c, 0, 58, 44
2, 5431, Note_on_c, 0, 42, 25
2, 5438, Control_c, 0, 64, 0
2, 5491, Control_c, 0, 64, 127
2, 5570, Note_on_c, 0, 30, 0
2, 5577, Note_on_c, 0, 42, 0
2, 5599, Note_on_c, 0, 52, 0
2, 5609, Note_on_c, 0, 63, 0
2, 5616, Note_on_c, 0, 60, 49
2, 5623, Note_on_c, 0, 58, 0
2, 5689, Note_on_c, 0, 60, 0
2, 5842, Control_c, 0, 64, 0
2, 5842, Note_on_c, 0, 63, 43
2, 5844, Note_on_c, 0, 57, 40
2, 5844, Note_on_c, 0, 62, 57
2, 5844, Note_on_c, 0, 59, 47
2, 5845, Note_on_c, 0, 41, 37
2, 5860, Control_c, 0, 64, 127
2, 5871, Note_on_c, 0, 57, 0
2, 5873, Note_on_c, 0, 59, 0
2, 5877, Note_on_c, 0, 62, 0
2, 5880, Note_on_c, 0, 63, 0
2, 5904, Note_on_c, 0, 41, 0
2, 5911, Note_on_c, 0, 74, 74
2, 5945, Note_on_c, 0, 74, 0
2, 5969, Note_on_c, 0, 74, 67
2, 5975, Note_on_c, 0, 71, 51
2, 5975, Note_on_c, 0, 67, 64
2, 5976, Note_on_c, 0, 63, 49
2, 5978, Note_on_c, 0, 62, 50
2, 6011, Note_on_c, 0, 74, 0
2, 6028, Note_on_c, 0, 63, 0
2, 6030, Note_on_c, 0, 71, 0
2, 6034, Note_on_c, 0, 75, 67
2, 6039, Note_on_c, 0, 67, 0
2, 6039, Note_on_c, 0, 62, 0
2, 6071, Note_on_c, 0, 75, 0
2, 6098, Note_on_c, 0, 74, 64
2, 6101, Note_on_c, 0, 53, 45
2, 6102, Note_on_c, 0, 67, 52
2, 6103, Note_on_c, 0, 63, 39
2, 6110, Control_c, 0, 64, 0
2, 6146, Control_c, 0, 64, 127
2, 6167, Note_on_c, 0, 63, 0
2, 6170, Note_on_c, 0, 60, 34
2, 6182, Note_on_c, 0, 67, 0
2, 6236, Note_on_c, 0, 74, 0
2, 6243, Note_on_c, 0, 67, 37
2, 6248, Note_on_c, 0, 62, 18
2, 6248, Note_on_c, 0, 63, 19
2, 6262, Note_on_c, 0, 62, 0
2, 6284, Note_on_c, 0, 67, 0
2, 6328, Note_on_c, 0, 72, 52
2, 6353, Note_on_c, 0, 53, 0
2, 6356, Note_on_c, 0, 60, 0
2, 6365, Note_on_c, 0, 74, 79
2, 6371, Note_on_c, 0, 63, 0
2, 6378, Note_on_c, 0, 72, 0
2, 6392, Note_on_c, 0, 74, 0
2, 6396, Note_on_c, 0, 75, 80
2, 6427, Note_on_c, 0, 75, 0
2, 6437, Note_on_c, 0, 75, 68
2, 6438, Note_on_c, 0, 63, 37
2, 6438, Note_on_c, 0, 68, 33
2, 6442, Note_on_c, 0, 60, 40
2, 6445, Control_c, 0, 64, 0
2, 6478, Control_c, 0, 64, 127
2, 6489, Note_on_c, 0, 58, 58
2, 6527, Note_on_c, 0, 75, 0
2, 6530, Note_on_c, 0, 68, 0
2, 6533, Note_on_c, 0, 77, 75
2, 6541, Note_on_c, 0, 60, 0
2, 6546, Note_on_c, 0, 63, 0
2, 6555, Note_on_c, 0, 58, 0
2, 6565, Note_on_c, 0, 77, 0
2, 6575, Note_on_c, 0, 75, 67
2, 6592, Note_on_c, 0, 75, 0
2, 6605, Note_on_c, 0, 73, 32
2, 6624, Note_on_c, 0, 73, 0
2, 6641, Note_on_c, 0, 74, 60
2, 6642, Note_on_c, 0, 71, 49
2, 6643, Note_on_c, 0, 67, 54
2, 6645, Note_on_c, 0, 62, 40
2, 6647, Control_c, 0, 64, 0
2, 6647, Note_on_c, 0, 46, 33
2, 6647, Note_on_c, 0, 56, 28
2, 6686, Control_c, 0, 64, 127
2, 6703, Note_on_c, 0, 62, 0
2, 6715, Note_on_c, 0, 67, 0
2, 6722, Note_on_c, 0, 71, 0
2, 6723, Note_on_c, 0, 74, 0
2, 6743, Note_on_c, 0, 53, 39
2, 6751, Note_on_c, 0, 56, 0
2, 6808, Note_on_c, 0, 53, 0
2, 6831, Note_on_c, 0, 80, 81
2, 6835, Note_on_c, 0, 56, 32
2, 6890, Note_on_c, 0, 80, 0
2, 6892, Note_on_c, 0, 72, 56
2, 6924, Note_on_c, 0, 46, 0
2, 6933, Note_on_c, 0, 56, 0
2, 6938, Note_on_c, 0, 72, 0
2, 6939, Note_on_c, 0, 74, 62
2, 6961, Note_on_c, 0, 74, 0
2, 7034, Note_on_c, 0, 75, 61
2, 7036, Note_on_c, 0, 70, 58
2, 7036, Note_on_c, 0, 65, 49
2, 7038, Note_on_c, 0, 60, 32
2, 7043, Control_c, 0, 64, 0
2, 7073, Control_c, 0, 64, 127
2, 7091, Note_on_c, 0, 75, 0
2, 7104, Note_on_c, 0, 75, 55
2, 7112, Note_on_c, 0, 65, 0
2, 7126, Note_on_c, 0, 70, 0
2, 7132, Note_on_c, 0, 75, 0
2, 7160, Note_on_c, 0, 79, 68
2, 7161, Note_on_c, 0, 63, 47
2, 7161, Note_on_c, 0, 70, 67
2, 7162, Note_on_c, 0, 60, 0
2, 7163, Control_c, 0, 64, 0
2, 7174, Control_c, 0, 64, 127
2, 7177, Note_on_c, 0, 79, 0
2, 7178, Note_on_c, 0, 70, 0
2, 7228, Note_on_c, 0, 82, 51
2, 7241, Note_on_c, 0, 63, 0
2, 7250, Note_on_c, 0, 82, 0
2, 7349, Note_on_c, 0, 57, 47
2, 7353, Note_on_c, 0, 62, 46
2, 7355, Note_on_c, 0, 74, 58
2, 7359, Note_on_c, 0, 79, 56
2, 7360, Note_on_c, 0, 63, 36
2, 7362, Note_on_c, 0, 83, 60
2, 7365, Note_on_c, 0, 67, 51
2, 7367, Control_c, 0, 64, 0
2, 7369, Note_on_c, 0, 86, 81
2, 7399, Control_c, 0, 64, 127
2, 7438, Note_on_c, 0, 86, 0
2, 7440, Note_on_c, 0, 74, 0
2, 7445, Note_on_c, 0, 83, 0
2, 7447, Note_on_c, 0, 79, 0
2, 7452, Note_on_c, 0, 84, 63
2, 7455, Note_on_c, 0, 72, 39
2, 7466, Note_on_c, 0, 63, 0
2, 7473, Note_on_c, 0, 67, 0
2, 7480, Note_on_c, 0, 84, 0
2, 7487, Note_on_c, 0, 72, 0
2, 7506, Note_on_c, 0, 86, 74
2, 7507, Note_on_c, 0, 79, 50
2, 7507, Note_on_c, 0, 63, 45
2, 7508, Note_on_c, 0, 74, 53
2, 7509, Note_on_c, 0, 67, 42
2, 7524, Note_on_c, 0, 86, 0
2, 7529, Note_on_c, 0, 74, 0
2, 7542, Note_on_c, 0, 79, 0
2, 7548, Note_on_c, 0, 57, 0
2, 7549, Note_on_c, 0, 67, 0
2, 7550, Note_on_c, 0, 87, 78
2, 7553, Note_on_c, 0, 62, 0
2, 7560, Note_on_c, 0, 63, 0
2, 7562, Note_on_c, 0, 87, 0
2, 7606, Note_on_c, 0, 77, 60
2, 7606, Note_on_c, 0, 68, 49
2, 7606, Note_on_c, 0, 84, 62
2, 7606, Note_on_c, 0, 63, 37
2, 7607, Note_on_c, 0, 72, 54
2, 7607, Note_on_c, 0, 80, 53
2, 7609, Note_on_c, 0, 60, 42
2, 7612, Control_c, 0, 64, 0
2, 7648, Control_c, 0, 64, 127
2, 7658, Note_on_c, 0, 58, 43
2, 7661, Note_on_c, 0, 60, 0
2, 7661, Note_on_c, 0, 68, 0
2, 7664, Note_on_c, 0, 63, 0
2, 7673, Note_on_c, 0, 58, 0
2, 7715, Note_on_c, 0, 56, 62
2, 7723, Note_on_c, 0, 56, 0
2, 7773, Note_on_c, 0, 46, 47
2, 7775, Note_on_c, 0, 84, 0
2, 7780, Note_on_c, 0, 77, 0
2, 7782, Note_on_c, 0, 80, 0
2, 7788, Note_on_c, 0, 72, 0
2, 7834, Control_c, 0, 64, 0
2, 7843, Note_on_c, 0, 34, 53
2, 7852, Control_c, 0, 64, 127
2, 7859, Note_on_c, 0, 34, 0
2, 7863, Note_on_c, 0, 46, 0
2, 7920, Note_on_c, 0, 67, 50
2, 7929, Note_on_c, 0, 64, 58
2, 7929, Note_on_c, 0, 59, 52
2, 7931, Note_on_c, 0, 62, 54
2, 7931, Note_on_c, 0, 56, 34
2, 7934, Note_on_c, 0, 58, 29
2, 7935, Control_c, 0, 64, 0
2, 7948, Control_c, 0, 64, 127
2, 7962, Note_on_c, 0, 58, 0
2, 7962, Note_on_c, 0, 59, 0
2, 7962, Note_on_c, 0, 56, 0
2, 7964, Note_on_c, 0, 64, 0
2, 7964, Note_on_c, 0, 62, 0
2, 8016, Note_on_c, 0, 79, 45
2, 8017, Note_on_c, 0, 71, 44
2, 8019, Note_on_c, 0, 74, 44
2, 8020, Note_on_c, 0, 76, 52
2, 8020, Note_on_c, 0, 70, 29
2, 8022, Note_on_c, 0, 68, 32
2, 8036, Note_on_c, 0, 68, 0
2, 8036, Note_on_c, 0, 70, 0
2, 8040, Note_on_c, 0, 67, 0
2, 8042, Note_on_c, 0, 71, 0
2, 8047, Note_on_c, 0, 74, 0
2, 8051, Note_on_c, 0, 76, 0
2, 8053, Note_on_c, 0, 79, 0
2, 8133, Note_on_c, 0, 91, 44
2, 8135, Note_on_c, 0, 82, 31
2, 8137, Note_on_c, 0, 88, 45
2, 8137, Note_on_c, 0, 86, 48
2, 8137, Note_on_c, 0, 80, 34
2, 8138, Note_on_c, 0, 83, 20
2, 8161, Note_on_c, 0, 80, 0
2, 8161, Note_on_c, 0, 86, 0
2, 8163, Note_on_c, 0, 82, 0
2, 8165, Note_on_c, 0, 91, 0
2, 8168, Note_on_c, 0, 88, 0
2, 8174, Note_on_c, 0, 83, 0
2, 8373, Note_on_c, 0, 72, 60
2, 8375, Note_on_c, 0, 58, 49
2, 8378, Control_c, 0, 64, 0
2, 8379, Note_on_c, 0, 64, 45
2, 8379, Note_on_c, 0, 67, 45
2, 8399, Control_c, 0, 64, 127
2, 8424, Note_on_c, 0, 58, 0
2, 8443, Note_on_c, 0, 58, 36
2, 8460, Note_on_c, 0, 64, 0
2, 8461, Note_on_c, 0, 67, 0
2, 8494, Note_on_c, 0, 67, 56
2, 8496, Note_on_c, 0, 64, 42
2, 8509, Note_on_c, 0, 72, 0
2, 8509, Note_on_c, 0, 58, 0
2, 8539, Note_on_c, 0, 58, 42
2, 8540, Note_on_c, 0, 64, 0
2, 8573, Note_on_c, 0, 67, 0
2, 8576, Note_on_c, 0, 58, 0
2, 8580, Note_on_c, 0, 68, 74
2, 8580, Note_on_c, 0, 72, 55
2, 8581, Note_on_c, 0, 63, 59
2, 8583, Note_on_c, 0, 58, 46
2, 8589, Control_c, 0, 64, 0
2, 8612, Control_c, 0, 64, 127
2, 8616, Note_on_c, 0, 58, 0
2, 8629, Note_on_c, 0, 58, 65
2, 8665, Note_on_c, 0, 63, 0
2, 8677, Note_on_c, 0, 68, 0
2, 8696, Note_on_c, 0, 58, 0
2, 8726, Note_on_c, 0, 58, 46
2, 8763, Note_on_c, 0, 58, 0
2, 8764, Note_on_c, 0, 72, 0
2, 8782, Note_on_c, 0, 63, 52
2, 8783, Note_on_c, 0, 72, 38
2, 8784, Note_on_c, 0, 70, 46
2, 8785, Note_on_c, 0, 67, 54
2, 8786, Note_on_c, 0, 58, 29
2, 8788, Control_c, 0, 64, 0
2, 8809, Control_c, 0, 64, 127
2, 8820, Note_on_c, 0, 58, 0
2, 8835, Note_on_c, 0, 67, 0
2, 8837, Note_on_c, 0, 58, 49
2, 8840, Note_on_c, 0, 72, 0
2, 8842, Note_on_c, 0, 70, 0
2, 8864, Note_on_c, 0, 63, 0
2, 8883, Note_on_c, 0, 63, 56
2, 8885, Note_on_c, 0, 70, 58
2, 8917, Note_on_c, 0, 58, 0
2, 8928, Note_on_c, 0, 70, 0
2, 8928, Note_on_c, 0, 63, 0
2, 8934, Note_on_c, 0, 75, 71
2, 8936, Note_on_c, 0, 58, 34
2, 8937, Note_on_c, 0, 63, 42
2, 8939, Note_on_c, 0, 70, 33
2, 8945, Note_on_c, 0, 70, 0
2, 8950, Note_on_c, 0, 75, 0
2, 8959, Note_on_c, 0, 63, 0
2, 8960, Note_on_c, 0, 58, 0
2, 9049, Note_on_c, 0, 74, 69
2, 9052, Note_on_c, 0, 58, 47
2, 9052, Note_on_c, 0, 67, 52
2, 9053, Note_on_c, 0, 71, 57
2, 9056, Note_on_c, 0, 62, 60
2, 9057, Control_c, 0, 64, 0
2, 9082, Control_c, 0, 64, 127
2, 9095, Note_on_c, 0, 74, 0
2, 9101, Note_on_c, 0, 72, 55
2, 9138, Note_on_c, 0, 72, 0
2, 9139, Note_on_c, 0, 71, 0
2, 9148, Note_on_c, 0, 70, 58
2, 9168, Note_on_c, 0, 70, 0
2, 9176, Note_on_c, 0, 62, 0
2, 9186, Note_on_c, 0, 67, 0
2, 9193, Note_on_c, 0, 58, 0
2, 9198, Note_on_c, 0, 68, 45
2, 9237, Note_on_c, 0, 68, 0
2, 9342, Note_on_c, 0, 67, 55
2, 9343, Note_on_c, 0, 58, 46
2, 9343, Note_on_c, 0, 43, 48
2, 9345, Control_c, 0, 64, 0
2, 9346, Note_on_c, 0, 62, 45
2, 9347, Note_on_c, 0, 55, 26
2, 9369, Control_c, 0, 64, 127
2, 9380, Note_on_c, 0, 67, 0
2, 9388, Note_on_c, 0, 55, 0
2, 9393, Note_on_c, 0, 43, 0
2, 9394, Note_on_c, 0, 62, 0
2, 9398, Note_on_c, 0, 67, 64
2, 9399, Note_on_c, 0, 58, 0
2, 9412, Note_on_c, 0, 67, 0
2, 9450, Note_on_c, 0, 67, 57
2, 9451, Note_on_c, 0, 63, 42
2, 9452, Note_on_c, 0, 58, 30
2, 9453, Note_on_c, 0, 48, 31
2, 9454, Control_c, 0, 64, 0
2, 9482, Note_on_c, 0, 67, 0
2, 9485, Control_c, 0, 64, 127
2, 9506, Note_on_c, 0, 67, 60
2, 9520, Note_on_c, 0, 58, 0
2, 9525, Note_on_c, 0, 67, 0
2, 9534, Note_on_c, 0, 63, 0
2, 9563, Note_on_c, 0, 48, 0
2, 9569, Note_on_c, 0, 67, 46
2, 9570, Note_on_c, 0, 46, 30
2, 9571, Note_on_c, 0, 61, 37
2, 9571, Note_on_c, 0, 56, 25
2, 9572, Control_c, 0, 64, 0
2, 9607, Note_on_c, 0, 67, 0
2, 9608, Control_c, 0, 64, 127
2, 9639, Note_on_c, 0, 46, 0
2, 9642, Note_on_c, 0, 67, 45
2, 9651, Note_on_c, 0, 56, 0
2, 9663, Note_on_c, 0, 61, 0
2, 9664, Note_on_c, 0, 66, 10
2, 9666, Note_on_c, 0, 67, 0
2, 9685, Note_on_c, 0, 66, 0
2, 9717, Note_on_c, 0, 67, 43
2, 9718, Note_on_c, 0, 61, 20
2, 9722, Note_on_c, 0, 59, 37
2, 9723, Note_on_c, 0, 45, 28
2, 9724, Note_on_c, 0, 55, 24
2, 9724, Control_c, 0, 64, 0
2, 9725, Note_on_c, 0, 33, 33
2, 9762, Control_c, 0, 64, 127
2, 9781, Note_on_c, 0, 67, 0
2, 9803, Note_on_c, 0, 67, 48
2, 9808, Note_on_c, 0, 55, 0
2, 9808, Note_on_c, 0, 59, 0
2, 9825, Note_on_c, 0, 33, 0
2, 9826, Note_on_c, 0, 45, 0
2, 9828, Note_on_c, 0, 61, 0
2, 9846, Note_on_c, 0, 67, 0
2, 9941, Note_on_c, 0, 67, 38
2, 9942, Note_on_c, 0, 62, 38
2, 9943, Note_on_c, 0, 44, 31
2, 9943, Control_c, 0, 64, 0
2, 9943, Note_on_c, 0, 60, 35
2, 9943, Note_on_c, 0, 32, 32
2, 9945, Note_on_c, 0, 55, 29
2, 9995, Control_c, 0, 64, 127
2, 10059, Note_on_c, 0, 55, 0
2, 10069, Note_on_c, 0, 32, 0
2, 10076, Note_on_c, 0, 62, 0
2, 10076, Note_on_c, 0, 60, 0
2, 10078, Note_on_c, 0, 44, 0
2, 10088, Note_on_c, 0, 67, 0
2, 10145, Note_on_c, 0, 65, 80
2, 10149, Note_on_c, 0, 53, 33
2, 10182, Note_on_c, 0, 65, 0
2, 10212, Note_on_c, 0, 53, 0
2, 10219, Note_on_c, 0, 72, 92
2, 10280, Note_on_c, 0, 72, 0
2, 10285, Note_on_c, 0, 70, 85
2, 10291, Note_on_c, 0, 72, 28
2, 10296, Note_on_c, 0, 72, 0
2, 10352, Note_on_c, 0, 67, 66
2, 10396, Note_on_c, 0, 70, 0
2, 10397, Note_on_c, 0, 67, 0
2, 10438, Note_on_c, 0, 54, 69
2, 10445, Note_on_c, 0, 75, 44
2, 10447, Note_on_c, 0, 72, 52
2, 10449, Note_on_c, 0, 68, 43
2, 10450, Note_on_c, 0, 58, 42
2, 10450, Note_on_c, 0, 64, 50
2, 10458, Control_c, 0, 64, 0
2, 10495, Control_c, 0, 64, 127
2, 10519, Note_on_c, 0, 72, 0
2, 10558, Note_on_c, 0, 54, 0
2, 10593, Note_on_c, 0, 72, 44
2, 10616, Note_on_c, 0, 64, 0
2, 10627, Note_on_c, 0, 58, 0
2, 10637, Note_on_c, 0, 68, 0
2, 10665, Note_on_c, 0, 75, 0
2, 10676, Note_on_c, 0, 72, 0
2, 10767, Note_on_c, 0, 75, 50
2, 10768, Control_c, 0, 64, 0
2, 10768, Note_on_c, 0, 71, 54
2, 10768, Note_on_c, 0, 65, 43
2, 10769, Note_on_c, 0, 63, 35
2, 10771, Note_on_c, 0, 53, 36
2, 10787, Control_c, 0, 64, 127
2, 10795, Note_on_c, 0, 65, 0
2, 10802, Note_on_c, 0, 71, 0
2, 10805, Note_on_c, 0, 75, 0
2, 10828, Note_on_c, 0, 63, 0
2, 10831, Note_on_c, 0, 86, 89
2, 10832, Note_on_c, 0, 53, 0
2, 10833, Note_on_c, 0, 60, 32
2, 10838, Note_on_c, 0, 60, 0
2, 10885, Note_on_c, 0, 86, 0
2, 10887, Note_on_c, 0, 83, 75
2, 10890, Note_on_c, 0, 63, 46
2, 10890, Note_on_c, 0, 62, 34
2, 10891, Note_on_c, 0, 67, 44
2, 10936, Note_on_c, 0, 84, 87
2, 10940, Note_on_c, 0, 83, 0
2, 10946, Note_on_c, 0, 62, 0
2, 10973, Note_on_c, 0, 67, 0
2, 10978, Note_on_c, 0, 84, 0
2, 10981, Note_on_c, 0, 67, 37
2, 10981, Note_on_c, 0, 79, 71
2, 10986, Note_on_c, 0, 57, 24
2, 10986, Control_c, 0, 64, 0
2, 10990, Note_on_c, 0, 63, 0
2, 11011, Control_c, 0, 64, 127
2, 11035, Note_on_c, 0, 63, 32
2, 11035, Note_on_c, 0, 75, 60
2, 11041, Note_on_c, 0, 67, 0
2, 11048, Note_on_c, 0, 79, 0
2, 11078, Note_on_c, 0, 75, 0
2, 11093, Note_on_c, 0, 74, 54
2, 11095, Note_on_c, 0, 67, 39
2, 11150, Note_on_c, 0, 77, 65
2, 11154, Note_on_c, 0, 67, 0
2, 11157, Note_on_c, 0, 57, 0
2, 11167, Note_on_c, 0, 63, 0
2, 11179, Note_on_c, 0, 74, 0
2, 11204, Note_on_c, 0, 77, 0
2, 11208, Note_on_c, 0, 75, 42
2, 11210, Note_on_c, 0, 68, 35
2, 11210, Note_on_c, 0, 72, 40
2, 11213, Note_on_c, 0, 63, 29
2, 11216, Note_on_c, 0, 60, 33
2, 11220, Control_c, 0, 64, 0
2, 11246, Control_c, 0, 64, 127
2, 11263, Note_on_c, 0, 60, 0
2, 11269, Note_on_c, 0, 68, 0
2, 11279, Note_on_c, 0, 58, 46
2, 11285, Note_on_c, 0, 63, 0
2, 11294, Note_on_c, 0, 58, 0
2, 11304, Note_on_c, 0, 72, 0
2, 11312, Note_on_c, 0, 75, 0
2, 11355, Note_on_c, 0, 56, 35
2, 11355, Note_on_c, 0, 75, 47
2, 11356, Note_on_c, 0, 46, 32
2, 11357, Note_on_c, 0, 63, 37
2, 11361, Control_c, 0, 64, 0
2, 11372, Control_c, 0, 64, 127
2, 11385, Note_on_c, 0, 75, 0
2, 11389, Note_on_c, 0, 63, 0
2, 11398, Note_on_c, 0, 77, 58
2, 11416, Note_on_c, 0, 77, 0
2, 11433, Note_on_c, 0, 75, 67
2, 11435, Note_on_c, 0, 56, 0
2, 11436, Note_on_c, 0, 63, 47
2, 11437, Note_on_c, 0, 46, 0
2, 11450, Note_on_c, 0, 75, 0
2, 11454, Note_on_c, 0, 63, 0
2, 11514, Note_on_c, 0, 73, 28
2, 11514, Note_on_c, 0, 61, 60
2, 11519, Note_on_c, 0, 56, 28
2, 11520, Note_on_c, 0, 46, 30
2, 11522, Control_c, 0, 64, 0
2, 11527, Note_on_c, 0, 61, 0
2, 11531, Note_on_c, 0, 67, 18
2, 11533, Note_on_c, 0, 74, 42
2, 11533, Note_on_c, 0, 62, 32
2, 11537, Note_on_c, 0, 73, 0
2, 11562, Control_c, 0, 64, 127
2, 11591, Note_on_c, 0, 62, 0
2, 11593, Note_on_c, 0, 67, 0
2, 11601, Note_on_c, 0, 74, 0
2, 11633, Note_on_c, 0, 56, 0
2, 11655, Note_on_c, 0, 80, 44
2, 11658, Note_on_c, 0, 68, 25
2, 11685, Note_on_c, 0, 80, 0
2, 11716, Note_on_c, 0, 68, 0
2, 11751, Note_on_c, 0, 46, 0
2, 11896, Note_on_c, 0, 63, 55
2, 11897, Note_on_c, 0, 72, 47
2, 11897, Control_c, 0, 64, 0
2, 11898, Note_on_c, 0, 58, 30
2, 11899, Note_on_c, 0, 68, 39
2, 11911, Control_c, 0, 64, 127
2, 11923, Note_on_c, 0, 72, 0
2, 11931, Note_on_c, 0, 68, 0
2, 11933, Note_on_c, 0, 63, 0
2, 12014, Note_on_c, 0, 74, 63
2, 12016, Note_on_c, 0, 70, 51
2, 12017, Note_on_c, 0, 65, 45
2, 12019, Note_on_c, 0, 60, 34
2, 12027, Note_on_c, 0, 58, 0
2, 12038, Note_on_c, 0, 74, 0
2, 12040, Note_on_c, 0, 65, 0
2, 12051, Note_on_c, 0, 70, 0
2, 12077, Note_on_c, 0, 75, 65
2, 12078, Note_on_c, 0, 60, 0
2, 12080, Control_c, 0, 64, 0
2, 12081, Note_on_c, 0, 67, 55
2, 12081, Note_on_c, 0, 70, 51
2, 12082, Note_on_c, 0, 51, 52
2, 12099, Control_c, 0, 64, 127
2, 12120, Note_on_c, 0, 75, 0
2, 12121, Note_on_c, 0, 70, 0
2, 12131, Note_on_c, 0, 67, 0
2, 12140, Note_on_c, 0, 62, 71
2, 12145, Note_on_c, 0, 51, 0
2, 12169, Note_on_c, 0, 62, 0
2, 12191, Note_on_c, 0, 79, 64
2, 12191, Note_on_c, 0, 67, 72
2, 12194, Note_on_c, 0, 72, 48
2, 12203, Note_on_c, 0, 67, 0
2, 12205, Note_on_c, 0, 72, 0
2, 12209, Note_on_c, 0, 79, 0
2, 12246, Note_on_c, 0, 82, 73
2, 12246, Note_on_c, 0, 70, 70
2, 12261, Note_on_c, 0, 70, 0
2, 12265, Note_on_c, 0, 82, 0
2, 12297, Control_c, 0, 64, 0
2, 12302, Note_on_c, 0, 46, 67
2, 12312, Control_c, 0, 64, 127
2, 12315, Note_on_c, 0, 46, 0
2, 12371, Note_on_c, 0, 85, 74
2, 12373, Note_on_c, 0, 73, 60
2, 12374, Note_on_c, 0, 62, 58
2, 12374, Note_on_c, 0, 66, 61
2, 12375, Note_on_c, 0, 78, 56
2, 12375, Note_on_c, 0, 82, 48
2, 12375, Note_on_c, 0, 56, 56
2, 12423, Note_on_c, 0, 56, 0
2, 12425, Note_on_c, 0, 73, 0
2, 12425, Note_on_c, 0, 66, 0
2, 12426, Note_on_c, 0, 78, 0
2, 12428, Note_on_c, 0, 62, 0
2, 12431, Note_on_c, 0, 82, 0
2, 12431, Note_on_c, 0, 85, 0
2, 12474, Note_on_c, 0, 85, 67
2, 12474, Note_on_c, 0, 73, 47
2, 12476, Note_on_c, 0, 78, 39
2, 12477, Note_on_c, 0, 66, 35
2, 12478, Note_on_c, 0, 62, 36
2, 12478, Note_on_c, 0, 82, 30
2, 12481, Note_on_c, 0, 56, 25
2, 12518, Note_on_c, 0, 85, 0
2, 12529, Note_on_c, 0, 82, 0
2, 12537, Note_on_c, 0, 84, 72
2, 12572, Note_on_c, 0, 66, 0
2, 12573, Note_on_c, 0, 84, 0
2, 12579, Note_on_c, 0, 78, 0
2, 12582, Note_on_c, 0, 82, 64
2, 12583, Note_on_c, 0, 62, 0
2, 12592, Note_on_c, 0, 73, 0
2, 12593, Note_on_c, 0, 56, 0
2, 12611, Note_on_c, 0, 80, 46
2, 12613, Note_on_c, 0, 82, 0
2, 12643, Note_on_c, 0, 80, 0
2, 12648, Note_on_c, 0, 51, 42
2, 12648, Note_on_c, 0, 82, 48
2, 12653, Control_c, 0, 64, 0
2, 12676, Control_c, 0, 64, 127
2, 12682, Note_on_c, 0, 82, 0
2, 12688, Note_on_c, 0, 58, 34
2, 12735, Note_on_c, 0, 62, 52
2, 12736, Note_on_c, 0, 65, 40
2, 12756, Note_on_c, 0, 65, 0
2, 12785, Note_on_c, 0, 67, 67
2, 12808, Note_on_c, 0, 62, 0
2, 12823, Note_on_c, 0, 67, 0
2, 12833, Note_on_c, 0, 58, 0
2, 12844, Note_on_c, 0, 67, 68
2, 12844, Note_on_c, 0, 58, 23
2, 12844, Note_on_c, 0, 62, 52
2, 12856, Note_on_c, 0, 62, 0
2, 12888, Note_on_c, 0, 67, 0
2, 12904, Note_on_c, 0, 74, 68
2, 12905, Note_on_c, 0, 67, 57
2, 12905, Note_on_c, 0, 62, 58
2, 12910, Note_on_c, 0, 70, 35
2, 12927, Note_on_c, 0, 67, 0
2, 12929, Note_on_c, 0, 74, 0
2, 12935, Note_on_c, 0, 62, 0
2, 12944, Note_on_c, 0, 70, 0
2, 12971, Note_on_c, 0, 75, 71
2, 12972, Note_on_c, 0, 58, 0
2, 12973, Note_on_c, 0, 70, 65
2, 12973, Note_on_c, 0, 65, 62
2, 12974, Note_on_c, 0, 60, 45
2, 13025, Note_on_c, 0, 51, 0
2, 13066, Note_on_c, 0, 51, 60
2, 13085, Note_on_c, 0, 60, 0
2, 13098, Note_on_c, 0, 51, 0
2, 13104, Note_on_c, 0, 65, 0
2, 13106, Note_on_c, 0, 70, 0
2, 13126, Note_on_c, 0, 75, 0
2, 13147, Note_on_c, 0, 75, 61
2, 13149, Note_on_c, 0, 48, 58
2, 13150, Note_on_c, 0, 58, 48
2, 13151, Note_on_c, 0, 63, 65
2, 13151, Note_on_c, 0, 67, 68
2, 13155, Control_c, 0, 64, 0
2, 13181, Control_c, 0, 64, 127
2, 13207, Note_on_c, 0, 48, 0
2, 13208, Note_on_c, 0, 55, 70
2, 13213, Note_on_c, 0, 58, 0
2, 13222, Note_on_c, 0, 67, 0
2, 13237, Note_on_c, 0, 63, 0
2, 13255, Note_on_c, 0, 55, 0
2, 13262, Note_on_c, 0, 75, 0
2, 13266, Note_on_c, 0, 63, 76
2, 13266, Note_on_c, 0, 67, 80
2, 13268, Note_on_c, 0, 75, 28
2, 13322, Note_on_c, 0, 62, 110
2, 13344, Note_on_c, 0, 67, 0
2, 13354, Note_on_c, 0, 63, 0
2, 13391, Note_on_c, 0, 63, 69
2, 13392, Note_on_c, 0, 67, 68
2, 13404, Note_on_c, 0, 62, 0
2, 13453, Note_on_c, 0, 60, 61
2, 13460, Note_on_c, 0, 60, 0
2, 13465, Note_on_c, 0, 67, 0
2, 13467, Note_on_c, 0, 63, 0
2, 13497, Note_on_c, 0, 75, 0
2, 13537, Note_on_c, 0, 75, 53
2, 13537, Note_on_c, 0, 66, 55
2, 13537, Note_on_c, 0, 63, 44
2, 13538, Note_on_c, 0, 47, 48
2, 13539, Note_on_c, 0, 57, 47
2, 13543, Control_c, 0, 64, 0
2, 13570, Control_c, 0, 64, 127
2, 13590, Note_on_c, 0, 75, 0
2, 13606, Note_on_c, 0, 63, 0
2, 13610, Note_on_c, 0, 57, 0
2, 13610, Note_on_c, 0, 54, 27
2, 13610, Note_on_c, 0, 75, 50
2, 13613, Note_on_c, 0, 66, 0
2, 13617, Note_on_c, 0, 47, 0
2, 13629, Note_on_c, 0, 54, 0
2, 13644, Note_on_c, 0, 75, 0
2, 13704, Note_on_c, 0, 75, 36
2, 13705, Note_on_c, 0, 61, 35
2, 13706, Control_c, 0, 64, 0
2, 13707, Note_on_c, 0, 56, 34
2, 13707, Note_on_c, 0, 68, 37
2, 13709, Note_on_c, 0, 46, 33
2, 13734, Control_c, 0, 64, 127
2, 13768, Note_on_c, 0, 56, 0
2, 13777, Note_on_c, 0, 61, 0
2, 13777, Note_on_c, 0, 53, 46
2, 13789, Note_on_c, 0, 46, 0
2, 13790, Note_on_c, 0, 53, 0
2, 13796, Note_on_c, 0, 68, 0
2, 13804, Note_on_c, 0, 75, 0
2, 13933, Note_on_c, 0, 77, 67
2, 13935, Note_on_c, 0, 68, 53
2, 13935, Note_on_c, 0, 73, 40
2, 13936, Note_on_c, 0, 63, 44
2, 13939, Control_c, 0, 64, 0
2, 13948, Control_c, 0, 64, 127
2, 13971, Note_on_c, 0, 68, 0
2, 13972, Note_on_c, 0, 73, 0
2, 13980, Note_on_c, 0, 77, 0
2, 13988, Note_on_c, 0, 63, 0
2, 13988, Note_on_c, 0, 75, 59
2, 13990, Note_on_c, 0, 71, 66
2, 13990, Note_on_c, 0, 61, 44
2, 13990, Note_on_c, 0, 66, 50
2, 13992, Control_c, 0, 64, 0
2, 14006, Control_c, 0, 64, 127
2, 14009, Note_on_c, 0, 71, 0
2, 14010, Note_on_c, 0, 66, 0
2, 14016, Note_on_c, 0, 75, 0
2, 14035, Note_on_c, 0, 61, 0
2, 14039, Note_on_c, 0, 73, 50
2, 14040, Note_on_c, 0, 70, 62
2, 14040, Note_on_c, 0, 65, 68
2, 14040, Note_on_c, 0, 60, 51
2, 14048, Note_on_c, 0, 60, 0
2, 14055, Note_on_c, 0, 70, 0
2, 14057, Note_on_c, 0, 65, 0
2, 14064, Note_on_c, 0, 73, 0
2, 14100, Note_on_c, 0, 73, 38
2, 14101, Note_on_c, 0, 61, 50
2, 14101, Note_on_c, 0, 65, 62
2, 14104, Note_on_c, 0, 56, 33
2, 14113, Control_c, 0, 64, 0
2, 14157, Control_c, 0, 64, 127
2, 14166, Note_on_c, 0, 46, 42
2, 14201, Note_on_c, 0, 65, 0
2, 14218, Note_on_c, 0, 61, 0
2, 14219, Note_on_c, 0, 73, 0
2, 14225, Note_on_c, 0, 56, 0
2, 14261, Note_on_c, 0, 46, 0
2, 14370, Note_on_c, 0, 55, 48
2, 14371, Note_on_c, 0, 63, 39
2, 14372, Note_on_c, 0, 61, 33
2, 14374, Note_on_c, 0, 45, 35
2, 14378, Control_c, 0, 64, 0
2, 14398, Control_c, 0, 64, 127
2, 14421, Note_on_c, 0, 55, 0
2, 14436, Note_on_c, 0, 63, 0
2, 14437, Note_on_c, 0, 61, 0
2, 14475, Note_on_c, 0, 67, 53
2, 14485, Note_on_c, 0, 45, 0
2, 14539, Note_on_c, 0, 67, 0
2, 14578, Note_on_c, 0, 73, 36
2, 14604, Note_on_c, 0, 73, 0
2, 14652, Note_on_c, 0, 72, 47
2, 14653, Note_on_c, 0, 44, 42
2, 14661, Control_c, 0, 64, 0
2, 14700, Note_on_c, 0, 52, 47
2, 14709, Control_c, 0, 64, 127
2, 14747, Note_on_c, 0, 52, 0
2, 14748, Note_on_c, 0, 64, 40
2, 14748, Note_on_c, 0, 55, 53
2, 14750, Note_on_c, 0, 60, 26
2, 14752, Control_c, 0, 64, 0
2, 14797, Note_on_c, 0, 52, 43
2, 14799, Note_on_c, 0, 64, 0
2, 14800, Note_on_c, 0, 55, 0
2, 14803, Control_c, 0, 64, 127
2, 14804, Note_on_c, 0, 60, 0
2, 14847, Note_on_c, 0, 72, 0
2, 14847, Note_on_c, 0, 52, 0
2, 14851, Note_on_c, 0, 63, 29
2, 14853, Note_on_c, 0, 60, 35
2, 14853, Control_c, 0, 64, 0
2, 14853, Note_on_c, 0, 53, 32
2, 14897, Control_c, 0, 64, 127
2, 14904, Note_on_c, 0, 51, 56
2, 14911, Note_on_c, 0, 60, 0
2, 14954, Note_on_c, 0, 60, 57
2, 14959, Note_on_c, 0, 44, 0
2, 15000, Note_on_c, 0, 60, 0
2, 15002, Note_on_c, 0, 44, 38
2, 15008, Note_on_c, 0, 63, 0
2, 15014, Note_on_c, 0, 51, 0
2, 15035, Note_on_c, 0, 44, 0
2, 15036, Note_on_c, 0, 53, 0
2, 15062, Control_c, 0, 64, 0
2, 15062, Note_on_c, 0, 61, 51
2, 15063, Note_on_c, 0, 43, 49
2, 15064, Note_on_c, 0, 65, 59
2, 15066, Note_on_c, 0, 53, 36
2, 15077, Control_c, 0, 64, 127
2, 15091, Note_on_c, 0, 43, 0
2, 15091, Note_on_c, 0, 61, 0
2, 15093, Note_on_c, 0, 65, 0
2, 15099, Note_on_c, 0, 53, 0
2, 15174, Note_on_c, 0, 73, 60
2, 15175, Note_on_c, 0, 69, 79
2, 15176, Note_on_c, 0, 64, 67
2, 15177, Note_on_c, 0, 60, 65
2, 15181, Control_c, 0, 64, 0
2, 15196, Control_c, 0, 64, 127
2, 15220, Note_on_c, 0, 64, 0
2, 15224, Note_on_c, 0, 69, 0
2, 15225, Note_on_c, 0, 73, 0
2, 15244, Note_on_c, 0, 63, 56
2, 15245, Note_on_c, 0, 68, 54
2, 15245, Note_on_c, 0, 72, 47
2, 15247, Note_on_c, 0, 60, 0
2, 15247, Note_on_c, 0, 58, 49
2, 15250, Control_c, 0, 64, 0
2, 15268, Control_c, 0, 64, 127
2, 15287, Note_on_c, 0, 72, 0
2, 15289, Note_on_c, 0, 68, 0
2, 15296, Note_on_c, 0, 63, 0
2, 15314, Note_on_c, 0, 70, 60
2, 15314, Note_on_c, 0, 66, 57
2, 15315, Note_on_c, 0, 58, 0
2, 15315, Note_on_c, 0, 61, 55
2, 15339, Note_on_c, 0, 66, 0
2, 15339, Note_on_c, 0, 70, 0
2, 15351, Note_on_c, 0, 61, 0
2, 15380, Note_on_c, 0, 58, 53
2, 15381, Note_on_c, 0, 68, 44
2, 15383, Note_on_c, 0, 61, 52
2, 15384, Note_on_c, 0, 48, 46
2, 15388, Note_on_c, 0, 64, 42
2, 15389, Control_c, 0, 64, 0
2, 15420, Control_c, 0, 64, 127
2, 15441, Note_on_c, 0, 55, 49
2, 15446, Note_on_c, 0, 55, 0
2, 15455, Note_on_c, 0, 48, 0
2, 15474, Note_on_c, 0, 64, 0
2, 15476, Note_on_c, 0, 58, 0
2, 15478, Note_on_c, 0, 61, 0
2, 15478, Note_on_c, 0, 68, 0
2, 15516, Note_on_c, 0, 36, 62
2, 15516, Note_on_c, 0, 67, 55
2, 15517, Note_on_c, 0, 55, 58
2, 15518, Note_on_c, 0, 63, 46
2, 15523, Control_c, 0, 64, 0
2, 15559, Control_c, 0, 64, 127
2, 15586, Note_on_c, 0, 24, 68
2, 15590, Note_on_c, 0, 55, 0
2, 15591, Note_on_c, 0, 36, 0
2, 15599, Note_on_c, 0, 24, 0
2, 15639, Note_on_c, 0, 67, 0
2, 15654, Note_on_c, 0, 63, 0
2, 15679, Note_on_c, 0, 65, 79
2, 15680, Note_on_c, 0, 41, 74
2, 15681, Note_on_c, 0, 56, 79
2, 15681, Note_on_c, 0, 51, 75
2, 15681, Note_on_c, 0, 63, 64
2, 15682, Note_on_c, 0, 60, 80
2, 15682, Control_c, 0, 64, 0
2, 15710, Control_c, 0, 64, 127
2, 15749, Note_on_c, 0, 56, 0
2, 15758, Note_on_c, 0, 60, 0
2, 15772, Note_on_c, 0, 65, 0
2, 15782, Note_on_c, 0, 63, 0
2, 15802, Note_on_c, 0, 41, 0
2, 15827, Note_on_c, 0, 51, 0
2, 15850, Note_on_c, 0, 68, 80
2, 15877, Note_on_c, 0, 68, 0
2, 15887, Note_on_c, 0, 72, 71
2, 15956, Note_on_c, 0, 72, 0
2, 15961, Note_on_c, 0, 70, 57
2, 15968, Note_on_c, 0, 53, 41
2, 15968, Note_on_c, 0, 59, 47
2, 15970, Note_on_c, 0, 64, 35
2, 15973, Note_on_c, 0, 71, 62
2, 15977, Note_on_c, 0, 70, 0
2, 15977, Control_c, 0, 64, 0
2, 16032, Note_on_c, 0, 71, 0
2, 16036, Note_on_c, 0, 70, 47
2, 16066, Note_on_c, 0, 70, 0
2, 16072, Note_on_c, 0, 68, 35
2, 16107, Note_on_c, 0, 68, 0
2, 16110, Control_c, 0, 64, 127
2, 16110, Note_on_c, 0, 65, 60
2, 16223, Note_on_c, 0, 53, 0
2, 16225, Note_on_c, 0, 59, 0
2, 16229, Note_on_c, 0, 65, 0
2, 16236, Note_on_c, 0, 64, 0
2, 16351, Note_on_c, 0, 72, 96
2, 16352, Note_on_c, 0, 65, 72
2, 16352, Note_on_c, 0, 56, 56
2, 16353, Note_on_c, 0, 61, 52
2, 16353, Note_on_c, 0, 60, 64
2, 16359, Control_c, 0, 64, 0
2, 16380, Control_c, 0, 64, 127
2, 16392, Note_on_c, 0, 72, 0
2, 16399, Note_on_c, 0, 75, 84
2, 16425, Note_on_c, 0, 60, 0
2, 16430, Note_on_c, 0, 65, 0
2, 16436, Note_on_c, 0, 61, 0
2, 16438, Note_on_c, 0, 56, 0
2, 16440, Note_on_c, 0, 75, 0
2, 16454, Note_on_c, 0, 61, 48
2, 16454, Note_on_c, 0, 65, 43
2, 16454, Note_on_c, 0, 55, 55
2, 16454, Note_on_c, 0, 77, 68
2, 16460, Control_c, 0, 64, 0
2, 16482, Control_c, 0, 64, 127
2, 16509, Note_on_c, 0, 65, 0
2, 16510, Note_on_c, 0, 71, 51
2, 16523, Note_on_c, 0, 61, 0
2, 16523, Note_on_c, 0, 77, 0
2, 16523, Note_on_c, 0, 55, 0
2, 16583, Note_on_c, 0, 71, 0
2, 16594, Note_on_c, 0, 75, 25
2, 16595, Note_on_c, 0, 44, 31
2, 16601, Control_c, 0, 64, 0
2, 16625, Control_c, 0, 64, 127
2, 16642, Note_on_c, 0, 51, 52
2, 16651, Note_on_c, 0, 44, 0
2, 16654, Note_on_c, 0, 51, 0
2, 16691, Note_on_c, 0, 70, 43
2, 16692, Note_on_c, 0, 58, 37
2, 16694, Note_on_c, 0, 65, 34
2, 16699, Note_on_c, 0, 65, 0
2, 16706, Note_on_c, 0, 70, 0
2, 16708, Note_on_c, 0, 75, 0
2, 16742, Note_on_c, 0, 60, 49
2, 16745, Note_on_c, 0, 82, 50
2, 16758, Note_on_c, 0, 82, 0
2, 16778, Note_on_c, 0, 60, 0
2, 16794, Note_on_c, 0, 87, 64
2, 16794, Note_on_c, 0, 82, 43
2, 16795, Note_on_c, 0, 58, 0
2, 16795, Note_on_c, 0, 65, 29
2, 16800, Note_on_c, 0, 77, 24
2, 16816, Note_on_c, 0, 77, 0
2, 16817, Note_on_c, 0, 87, 0
2, 16817, Note_on_c, 0, 82, 0
2, 16845, Note_on_c, 0, 89, 51
2, 16846, Note_on_c, 0, 65, 0
2, 16848, Note_on_c, 0, 84, 45
2, 16852, Note_on_c, 0, 72, 25
2, 16853, Note_on_c, 0, 84, 0
2, 16854, Note_on_c, 0, 71, 24
2, 16858, Note_on_c, 0, 89, 0
2, 16862, Note_on_c, 0, 71, 0
2, 16905, Note_on_c, 0, 94, 45
2, 16906, Note_on_c, 0, 75, 37
2, 16911, Note_on_c, 0, 94, 0
2, 16973, Note_on_c, 0, 99, 52
2, 16975, Note_on_c, 0, 77, 37
2, 16977, Note_on_c, 0, 89, 28
2, 16978, Note_on_c, 0, 94, 38
2, 16993, Note_on_c, 0, 89, 0
2, 17000, Note_on_c, 0, 99, 0
2, 17000, Note_on_c, 0, 94, 0
2, 17003, Note_on_c, 0, 77, 0
2, 17005, Note_on_c, 0, 72, 0
2, 17010, Note_on_c, 0, 75, 0
2, 17136, Note_on_c, 0, 69, 51
2, 17141, Note_on_c, 0, 43, 45
2, 17143, Note_on_c, 0, 50, 32
2, 17147, Note_on_c, 0, 70, 37
2, 17150, Control_c, 0, 64, 0
2, 17154, Note_on_c, 0, 70, 0
2, 17155, Note_on_c, 0, 71, 53
2, 17156, Note_on_c, 0, 69, 0
2, 17179, Note_on_c, 0, 71, 0
2, 17180, Control_c, 0, 64, 127
2, 17182, Note_on_c, 0, 74, 74
2, 17185, Note_on_c, 0, 59, 32
2, 17202, Note_on_c, 0, 74, 0
2, 17222, Note_on_c, 0, 76, 83
2, 17232, Note_on_c, 0, 59, 0
2, 17232, Note_on_c, 0, 50, 0
2, 17238, Note_on_c, 0, 43, 0
2, 17279, Note_on_c, 0, 41, 53
2, 17288, Control_c, 0, 64, 0
2, 17294, Note_on_c, 0, 41, 0
2, 17294, Control_c, 0, 64, 127
2, 17335, Note_on_c, 0, 76, 0
2, 17341, Note_on_c, 0, 40, 37
2, 17344, Note_on_c, 0, 71, 52
2, 17346, Note_on_c, 0, 67, 40
2, 17352, Control_c, 0, 64, 0
2, 17393, Control_c, 0, 64, 127
2, 17400, Note_on_c, 0, 67, 0
2, 17400, Note_on_c, 0, 47, 44
2, 17430, Note_on_c, 0, 71, 0
2, 17453, Note_on_c, 0, 67, 56
2, 17456, Note_on_c, 0, 62, 27
2, 17458, Note_on_c, 0, 64, 29
2, 17458, Note_on_c, 0, 55, 29
2, 17461, Control_c, 0, 64, 0
2, 17470, Control_c, 0, 64, 127
2, 17509, Note_on_c, 0, 64, 0
2, 17529, Note_on_c, 0, 62, 0
2, 17538, Note_on_c, 0, 64, 59
2, 17543, Note_on_c, 0, 40, 0
2, 17544, Note_on_c, 0, 67, 0
2, 17548, Note_on_c, 0, 47, 0
2, 17556, Note_on_c, 0, 55, 0
2, 17752, Note_on_c, 0, 64, 0
2, 17755, Note_on_c, 0, 62, 41
2, 17782, Note_on_c, 0, 62, 0
2, 17876, Note_on_c, 0, 61, 73
2, 17876, Note_on_c, 0, 66, 85
2, 17876, Note_on_c, 0, 78, 78
2, 17876, Note_on_c, 0, 55, 82
2, 17877, Note_on_c, 0, 83, 80
2, 17877, Note_on_c, 0, 71, 91
2, 17879, Control_c, 0, 64, 0
2, 17881, Note_on_c, 0, 81, 41
2, 17886, Note_on_c, 0, 81, 0
2, 17899, Note_on_c, 0, 78, 0
2, 17899, Note_on_c, 0, 79, 46
2, 17903, Control_c, 0, 64, 127
2, 17934, Note_on_c, 0, 83, 0
2, 17938, Note_on_c, 0, 71, 0
2, 17946, Note_on_c, 0, 79, 0
2, 17960, Note_on_c, 0, 82, 75
2, 17974, Note_on_c, 0, 55, 0
2, 17978, Note_on_c, 0, 66, 0
2, 17986, Note_on_c, 0, 82, 0
2, 17999, Note_on_c, 0, 61, 0
2, 18017, Note_on_c, 0, 81, 65
2, 18018, Note_on_c, 0, 69, 58
2, 18018, Note_on_c, 0, 54, 43
2, 18019, Note_on_c, 0, 65, 53
2, 18019, Note_on_c, 0, 60, 51
2, 18023, Control_c, 0, 64, 0
2, 18043, Control_c, 0, 64, 127
2, 18081, Note_on_c, 0, 65, 0
2, 18083, Note_on_c, 0, 81, 0
2, 18084, Note_on_c, 0, 60, 0
2, 18094, Note_on_c, 0, 69, 0
2, 18102, Note_on_c, 0, 54, 0
2, 18154, Note_on_c, 0, 67, 53
2, 18154, Note_on_c, 0, 79, 44
2, 18155, Control_c, 0, 64, 0
2, 18156, Note_on_c, 0, 74, 40
2, 18157, Note_on_c, 0, 59, 36
2, 18158, Note_on_c, 0, 53, 25
2, 18158, Note_on_c, 0, 64, 20
2, 18173, Control_c, 0, 64, 127
2, 18187, Note_on_c, 0, 64, 0
2, 18190, Note_on_c, 0, 59, 0
2, 18196, Note_on_c, 0, 53, 0
2, 18224, Note_on_c, 0, 79, 0
2, 18232, Note_on_c, 0, 74, 0
2, 18242, Note_on_c, 0, 67, 0
2, 18243, Note_on_c, 0, 34, 58
2, 18248, Control_c, 0, 64, 0
2, 18252, Control_c, 0, 64, 127
2, 18257, Note_on_c, 0, 34, 0
2, 18293, Note_on_c, 0, 56, 49
2, 18307, Note_on_c, 0, 58, 64
2, 18311, Note_on_c, 0, 56, 0
2, 18321, Note_on_c, 0, 58, 0
2, 18321, Note_on_c, 0, 59, 51
2, 18330, Note_on_c, 0, 62, 57
2, 18338, Note_on_c, 0, 59, 0
2, 18341, Note_on_c, 0, 64, 52
2, 18352, Note_on_c, 0, 62, 0
2, 18352, Note_on_c, 0, 67, 62
2, 18354, Note_on_c, 0, 64, 0
2, 18356, Note_on_c, 0, 67, 0
2, 18366, Note_on_c, 0, 70, 31
2, 18367, Control_c, 0, 64, 0
2, 18368, Note_on_c, 0, 71, 83
2, 18372, Note_on_c, 0, 70, 0
2, 18381, Control_c, 0, 64, 127
2, 18383, Note_on_c, 0, 74, 67
2, 18385, Note_on_c, 0, 71, 0
2, 18391, Note_on_c, 0, 76, 53
2, 18396, Note_on_c, 0, 74, 0
2, 18397, Note_on_c, 0, 76, 0
2, 18397, Note_on_c, 0, 79, 56
2, 18401, Note_on_c, 0, 79, 0
2, 18404, Note_on_c, 0, 80, 36
2, 18409, Note_on_c, 0, 80, 0
2, 18413, Note_on_c, 0, 83, 64
2, 18424, Note_on_c, 0, 86, 64
2, 18426, Note_on_c, 0, 83, 0
2, 18433, Note_on_c, 0, 88, 40
2, 18434, Note_on_c, 0, 86, 0
2, 18437, Note_on_c, 0, 91, 45
2, 18439, Note_on_c, 0, 88, 0
2, 18442, Note_on_c, 0, 91, 0
2, 18453, Note_on_c, 0, 93, 33
2, 18455, Note_on_c, 0, 95, 32
2, 18461, Note_on_c, 0, 93, 0
2, 18466, Note_on_c, 0, 98, 40
2, 18473, Note_on_c, 0, 95, 0
2, 18473, Note_on_c, 0, 100, 58
2, 18488, Note_on_c, 0, 103, 72
2, 18544, Note_on_c, 0, 103, 0
2, 18554, Note_on_c, 0, 98, 0
2, 18559, Note_on_c, 0, 100, 0
2, 18697, Note_on_c, 0, 72, 68
2, 18802, Note_on_c, 0, 72, 0
2, 18843, Note_on_c, 0, 72, 48
2, 18846, Note_on_c, 0, 51, 45
2, 18849, Note_on_c, 0, 67, 47
2, 18851, Note_on_c, 0, 60, 26
2, 18853, Control_c, 0, 64, 0
2, 18876, Control_c, 0, 64, 127
2, 18895, Note_on_c, 0, 72, 0
2, 18906, Note_on_c, 0, 72, 55
2, 18908, Note_on_c, 0, 60, 0
2, 18911, Note_on_c, 0, 58, 33
2, 18935, Note_on_c, 0, 72, 0
2, 18958, Note_on_c, 0, 72, 60
2, 18979, Note_on_c, 0, 51, 0
2, 18982, Note_on_c, 0, 72, 0
2, 18986, Note_on_c, 0, 58, 0
2, 19005, Note_on_c, 0, 72, 53
2, 19023, Note_on_c, 0, 67, 0
2, 19045, Note_on_c, 0, 72, 0
2, 19064, Note_on_c, 0, 68, 67
2, 19064, Note_on_c, 0, 72, 62
2, 19065, Note_on_c, 0, 64, 70
2, 19066, Note_on_c, 0, 58, 60
2, 19069, Control_c, 0, 64, 0
2, 19089, Control_c, 0, 64, 127
2, 19097, Note_on_c, 0, 58, 0
2, 19141, Note_on_c, 0, 30, 67
2, 19174, Note_on_c, 0, 30, 0
2, 19202, Note_on_c, 0, 64, 0
2, 19204, Note_on_c, 0, 68, 0
2, 19205, Note_on_c, 0, 72, 0
2, 19252, Note_on_c, 0, 75, 46
2, 19254, Note_on_c, 0, 68, 37
2, 19255, Note_on_c, 0, 72, 36
2, 19257, Note_on_c, 0, 64, 38
2, 19258, Note_on_c, 0, 58, 33
2, 19328, Note_on_c, 0, 75, 0
2, 19354, Note_on_c, 0, 75, 42
2, 19359, Note_on_c, 0, 58, 0
2, 19379, Note_on_c, 0, 75, 0
2, 19379, Note_on_c, 0, 72, 0
2, 19387, Note_on_c, 0, 68, 0
2, 19391, Note_on_c, 0, 64, 0
2, 19493, Note_on_c, 0, 48, 32
2, 19493, Note_on_c, 0, 56, 35
2, 19494, Note_on_c, 0, 70, 37
2, 19494, Note_on_c, 0, 63, 36
2, 19494, Note_on_c, 0, 41, 42
2, 19499, Control_c, 0, 64, 0
2, 19499, Note_on_c, 0, 55, 33
2, 19538, Control_c, 0, 64, 127
2, 19571, Note_on_c, 0, 56, 0
2, 19589, Note_on_c, 0, 63, 0
2, 19597, Note_on_c, 0, 70, 0
2, 19630, Note_on_c, 0, 41, 0
2, 19636, Note_on_c, 0, 48, 0
2, 19642, Note_on_c, 0, 55, 0
2, 19645, Note_on_c, 0, 70, 72
2, 19673, Note_on_c, 0, 70, 0
2, 19683, Note_on_c, 0, 75, 80
2, 19705, Note_on_c, 0, 75, 0
2, 19800, Note_on_c, 0, 74, 58
2, 19800, Note_on_c, 0, 65, 55
2, 19801, Note_on_c, 0, 70, 53
2, 19805, Note_on_c, 0, 60, 36
2, 19810, Control_c, 0, 64, 0
2, 19830, Control_c, 0, 64, 127
2, 19849, Note_on_c, 0, 65, 0
2, 19855, Note_on_c, 0, 74, 0
2, 19858, Note_on_c, 0, 70, 0
2, 19866, Control_c, 0, 64, 0
2, 19867, Note_on_c, 0, 60, 0
2, 19867, Note_on_c, 0, 68, 60
2, 19868, Note_on_c, 0, 72, 46
2, 19869, Note_on_c, 0, 58, 48
2, 19873, Note_on_c, 0, 63, 25
2, 19891, Control_c, 0, 64, 127
2, 19913, Note_on_c, 0, 63, 0
2, 19914, Note_on_c, 0, 72, 0
2, 19915, Note_on_c, 0, 68, 0
2, 19940, Note_on_c, 0, 61, 56
2, 19940, Note_on_c, 0, 70, 53
2, 19942, Note_on_c, 0, 58, 0
2, 19942, Note_on_c, 0, 66, 43
2, 19945, Note_on_c, 0, 56, 32
2, 19946, Control_c, 0, 64, 0
2, 19963, Control_c, 0, 64, 127
2, 19980, Note_on_c, 0, 70, 0
2, 19983, Note_on_c, 0, 66, 0
2, 19988, Note_on_c, 0, 61, 0
2, 20003, Note_on_c, 0, 56, 0
2, 20037, Note_on_c, 0, 54, 50
2, 20039, Note_on_c, 0, 68, 34
2, 20040, Note_on_c, 0, 64, 40
2, 20040, Note_on_c, 0, 59, 40
2, 20085, Note_on_c, 0, 64, 0
2, 20090, Note_on_c, 0, 59, 0
2, 20093, Note_on_c, 0, 68, 0
2, 20140, Note_on_c, 0, 67, 40
2, 20140, Control_c, 0, 64, 0
2, 20141, Note_on_c, 0, 59, 40
2, 20142, Note_on_c, 0, 62, 37
2, 20143, Note_on_c, 0, 40, 35
2, 20144, Note_on_c, 0, 55, 17
2, 20154, Note_on_c, 0, 55, 0
2, 20156, Control_c, 0, 64, 127
2, 20157, Note_on_c, 0, 54, 0
2, 20158, Note_on_c, 0, 59, 0
2, 20160, Note_on_c, 0, 62, 0
2, 20169, Note_on_c, 0, 67, 0
2, 20189, Note_on_c, 0, 40, 0
2, 20190, Note_on_c, 0, 47, 37
2, 20194, Note_on_c, 0, 79, 73
2, 20195, Note_on_c, 0, 47, 0
2, 20240, Note_on_c, 0, 67, 58
2, 20241, Note_on_c, 0, 59, 40
2, 20247, Note_on_c, 0, 59, 0
2, 20297, Note_on_c, 0, 33, 68
2, 20310, Control_c, 0, 64, 0
2, 20311, Note_on_c, 0, 33, 0
2, 20324, Control_c, 0, 64, 127
2, 20347, Note_on_c, 0, 67, 0
2, 20358, Note_on_c, 0, 55, 55
2, 20359, Note_on_c, 0, 61, 58
2, 20362, Note_on_c, 0, 66, 56
2, 20363, Note_on_c, 0, 79, 0
2, 20412, Note_on_c, 0, 55, 0
2, 20412, Note_on_c, 0, 66, 0
2, 20418, Note_on_c, 0, 61, 0
2, 20421, Note_on_c, 0, 55, 44
2, 20421, Note_on_c, 0, 84, 84
2, 20422, Note_on_c, 0, 77, 77
2, 20422, Note_on_c, 0, 65, 62
2, 20422, Note_on_c, 0, 72, 68
2, 20422, Note_on_c, 0, 61, 27
2, 20429, Control_c, 0, 64, 0
2, 20433, Control_c, 0, 64, 127
2, 20466, Note_on_c, 0, 65, 0
2, 20473, Note_on_c, 0, 72, 0
2, 20477, Note_on_c, 0, 77, 0
2, 20482, Note_on_c, 0, 84, 0
2, 20491, Note_on_c, 0, 81, 62
2, 20492, Note_on_c, 0, 77, 57
2, 20492, Note_on_c, 0, 72, 43
2, 20492, Note_on_c, 0, 64, 50
2, 20500, Note_on_c, 0, 55, 0
2, 20543, Note_on_c, 0, 64, 0
2, 20546, Note_on_c, 0, 55, 56
2, 20549, Note_on_c, 0, 81, 0
2, 20553, Note_on_c, 0, 61, 0
2, 20555, Note_on_c, 0, 55, 0
2, 20560, Note_on_c, 0, 77, 0
2, 20576, Note_on_c, 0, 72, 0
2, 20603, Note_on_c, 0, 79, 53
2, 20604, Note_on_c, 0, 75, 46
2, 20604, Note_on_c, 0, 72, 41
2, 20605, Control_c, 0, 64, 0
2, 20605, Note_on_c, 0, 44, 53
2, 20606, Note_on_c, 0, 55, 49
2, 20620, Note_on_c, 0, 72, 0
2, 20620, Note_on_c, 0, 75, 0
2, 20624, Note_on_c, 0, 79, 0
2, 20624, Control_c, 0, 64, 127
2, 20653, Note_on_c, 0, 87, 87
2, 20653, Note_on_c, 0, 51, 55
2, 20660, Note_on_c, 0, 44, 0
2, 20661, Note_on_c, 0, 55, 0
2, 20667, Note_on_c, 0, 51, 0
2, 20671, Note_on_c, 0, 87, 0
2, 20703, Note_on_c, 0, 84, 78
2, 20705, Note_on_c, 0, 72, 59
2, 20705, Note_on_c, 0, 79, 66
2, 20705, Note_on_c, 0, 60, 68
2, 20740, Note_on_c, 0, 72, 0
2, 20746, Note_on_c, 0, 60, 0
2, 20750, Note_on_c, 0, 79, 0
2, 20752, Note_on_c, 0, 84, 0
2, 20753, Note_on_c, 0, 63, 60
2, 20754, Note_on_c, 0, 60, 51
2, 20759, Note_on_c, 0, 60, 0
2, 20760, Note_on_c, 0, 63, 0
2, 20803, Control_c, 0, 64, 0
2, 20806, Note_on_c, 0, 42, 74
2, 20806, Note_on_c, 0, 30, 71
2, 20817, Note_on_c, 0, 30, 0
2, 20821, Note_on_c, 0, 42, 0
2, 20821, Control_c, 0, 64, 127
2, 20874, Note_on_c, 0, 87, 77
2, 20876, Note_on_c, 0, 80, 64
2, 20876, Note_on_c, 0, 64, 66
2, 20876, Note_on_c, 0, 76, 68
2, 20877, Note_on_c, 0, 58, 62
2, 20878, Note_on_c, 0, 84, 63
2, 20914, Note_on_c, 0, 64, 0
2, 20922, Note_on_c, 0, 84, 0
2, 20932, Note_on_c, 0, 80, 0
2, 20935, Note_on_c, 0, 76, 0
2, 20946, Note_on_c, 0, 87, 0
2, 20956, Note_on_c, 0, 84, 58
2, 20956, Note_on_c, 0, 64, 45
2, 20957, Note_on_c, 0, 76, 46
2, 20957, Note_on_c, 0, 80, 37
2, 20975, Note_on_c, 0, 84, 0
2, 20986, Note_on_c, 0, 80, 0
2, 20996, Note_on_c, 0, 64, 0
2, 21016, Note_on_c, 0, 76, 0
2, 21059, Note_on_c, 0, 79, 54
2, 21062, Note_on_c, 0, 75, 37
2, 21062, Note_on_c, 0, 72, 35
2, 21063, Note_on_c, 0, 64, 31
2, 21093, Note_on_c, 0, 79, 0
2, 21099, Note_on_c, 0, 64, 0
2, 21109, Note_on_c, 0, 75, 0
2, 21120, Note_on_c, 0, 72, 0
2, 21149, Note_on_c, 0, 58, 0
2, 21182, Note_on_c, 0, 74, 54
2, 21183, Note_on_c, 0, 71, 47
2, 21183, Note_on_c, 0, 69, 39
2, 21184, Note_on_c, 0, 63, 35
2, 21185, Control_c, 0, 64, 0
2, 21186, Note_on_c, 0, 53, 35
2, 21203, Control_c, 0, 64, 127
2, 21207, Note_on_c, 0, 69, 0
2, 21210, Note_on_c, 0, 71, 0
2, 21211, Note_on_c, 0, 74, 0
2, 21235, Note_on_c, 0, 63, 0
2, 21238, Note_on_c, 0, 60, 48
2, 21239, Note_on_c, 0, 53, 0
2, 21239, Note_on_c, 0, 86, 81
2, 21244, Note_on_c, 0, 60, 0
2, 21262, Note_on_c, 0, 86, 0
2, 21298, Note_on_c, 0, 62, 57
2, 21298, Note_on_c, 0, 87, 77
2, 21300, Note_on_c, 0, 79, 68
2, 21300, Note_on_c, 0, 75, 58
2, 21302, Note_on_c, 0, 67, 57
2, 21344, Note_on_c, 0, 87, 0
2, 21354, Note_on_c, 0, 62, 0
2, 21359, Note_on_c, 0, 63, 48
2, 21359, Note_on_c, 0, 87, 81
2, 21367, Note_on_c, 0, 85, 23
2, 21373, Note_on_c, 0, 85, 0
2, 21376, Note_on_c, 0, 67, 0
2, 21388, Note_on_c, 0, 79, 0
2, 21396, Note_on_c, 0, 75, 0
2, 21400, Note_on_c, 0, 87, 0
2, 21417, Note_on_c, 0, 87, 65
2, 21419, Note_on_c, 0, 67, 58
2, 21419, Note_on_c, 0, 75, 64
2, 21422, Note_on_c, 0, 60, 42
2, 21426, Control_c, 0, 64, 0
2, 21445, Control_c, 0, 64, 127
2, 21473, Note_on_c, 0, 60, 0
2, 21478, Note_on_c, 0, 59, 62
2, 21506, Note_on_c, 0, 63, 0
2, 21509, Note_on_c, 0, 75, 0
2, 21516, Note_on_c, 0, 67, 0
2, 21522, Note_on_c, 0, 59, 0
2, 21525, Note_on_c, 0, 87, 0
2, 21549, Note_on_c, 0, 87, 62
2, 21550, Note_on_c, 0, 63, 33
2, 21550, Note_on_c, 0, 67, 41
2, 21551, Note_on_c, 0, 58, 37
2, 21552, Note_on_c, 0, 75, 38
2, 21553, Note_on_c, 0, 79, 47
2, 21553, Control_c, 0, 64, 0
2, 21570, Control_c, 0, 64, 127
2, 21610, Note_on_c, 0, 58, 0
2, 21615, Note_on_c, 0, 79, 0
2, 21618, Note_on_c, 0, 87, 0
2, 21624, Note_on_c, 0, 57, 38
2, 21626, Note_on_c, 0, 75, 0
2, 21630, Note_on_c, 0, 67, 0
2, 21640, Note_on_c, 0, 63, 0
2, 21642, Note_on_c, 0, 57, 0
2, 21703, Note_on_c, 0, 68, 38
2, 21705, Note_on_c, 0, 60, 35
2, 21705, Note_on_c, 0, 56, 36
2, 21705, Note_on_c, 0, 63, 29
2, 21707, Note_on_c, 0, 46, 31
2, 21714, Control_c, 0, 64, 0
2, 21737, Control_c, 0, 64, 127
2, 21779, Note_on_c, 0, 53, 47
2, 21790, Note_on_c, 0, 56, 0
2, 21794, Note_on_c, 0, 68, 0
2, 21817, Note_on_c, 0, 60, 0
2, 21823, Note_on_c, 0, 63, 0
2, 21843, Note_on_c, 0, 63, 83
2, 21845, Note_on_c, 0, 60, 85
2, 21847, Note_on_c, 0, 56, 35
2, 21879, Note_on_c, 0, 60, 0
2, 21888, Note_on_c, 0, 63, 0
2, 21888, Note_on_c, 0, 65, 73
2, 21921, Note_on_c, 0, 65, 0
2, 21930, Note_on_c, 0, 63, 76
2, 21931, Note_on_c, 0, 56, 0
2, 21944, Note_on_c, 0, 46, 0
2, 21953, Note_on_c, 0, 53, 0
2, 21968, Note_on_c, 0, 63, 0
2, 21993, Note_on_c, 0, 62, 64
2, 21993, Note_on_c, 0, 46, 34
2, 21995, Note_on_c, 0, 59, 54
2, 21996, Control_c, 0, 64, 0
2, 21997, Note_on_c, 0, 56, 27
2, 22020, Control_c, 0, 64, 127
2, 22085, Note_on_c, 0, 68, 58
2, 22090, Note_on_c, 0, 56, 0
2, 22100, Note_on_c, 0, 46, 0
2, 22205, Note_on_c, 0, 59, 0
2, 22222, Note_on_c, 0, 62, 0
2, 22231, Note_on_c, 0, 68, 0
2, 22312, Note_on_c, 0, 72, 44
2, 22316, Note_on_c, 0, 67, 56
2, 22317, Note_on_c, 0, 46, 29
2, 22318, Note_on_c, 0, 62, 53
2, 22318, Note_on_c, 0, 56, 27
2, 22322, Control_c, 0, 64, 0
2, 22346, Control_c, 0, 64, 127
2, 22397, Note_on_c, 0, 72, 0
2, 22438, Note_on_c, 0, 74, 62
2, 22443, Note_on_c, 0, 62, 0
2, 22448, Note_on_c, 0, 56, 0
2, 22463, Note_on_c, 0, 46, 0
2, 22464, Note_on_c, 0, 67, 0
2, 22479, Note_on_c, 0, 74, 0
2, 22551, Note_on_c, 0, 75, 54
2, 22552, Control_c, 0, 64, 0
2, 22552, Note_on_c, 0, 39, 34
2, 22554, Note_on_c, 0, 70, 42
2, 22554, Note_on_c, 0, 65, 39
2, 22555, Note_on_c, 0, 46, 26
2, 22566, Control_c, 0, 64, 127
2, 22592, Note_on_c, 0, 39, 0
2, 22596, Note_on_c, 0, 46, 0
2, 22626, Note_on_c, 0, 65, 0
2, 22653, Note_on_c, 0, 70, 0
2, 22671, Note_on_c, 0, 75, 0
2, 22695, Note_on_c, 0, 63, 18
2, 22699, Note_on_c, 0, 60, 29
2, 22702, Note_on_c, 0, 58, 25
2, 22705, Note_on_c, 0, 60, 0
2, 22707, Note_on_c, 0, 63, 0
2, 22709, Note_on_c, 0, 58, 0
2, 22743, Note_on_c, 0, 79, 62
2, 22761, Note_on_c, 0, 79, 0
2, 22785, Note_on_c, 0, 82, 56
2, 22798, Note_on_c, 0, 82, 0
2, 22828, Note_on_c, 0, 85, 58
2, 22829, Note_on_c, 0, 73, 34
2, 22830, Note_on_c, 0, 78, 38
2, 22831, Control_c, 0, 64, 0
2, 22831, Note_on_c, 0, 46, 38
2, 22832, Note_on_c, 0, 56, 33
2, 22832, Note_on_c, 0, 82, 34
2, 22853, Control_c, 0, 64, 127
2, 22869, Note_on_c, 0, 46, 0
2, 22876, Note_on_c, 0, 56, 0
2, 22918, Note_on_c, 0, 78, 0
2, 22918, Note_on_c, 0, 73, 0
2, 22918, Note_on_c, 0, 82, 0
2, 22925, Note_on_c, 0, 85, 0
2, 22963, Note_on_c, 0, 86, 61
2, 22966, Note_on_c, 0, 67, 49
2, 22967, Note_on_c, 0, 79, 47
2, 22969, Note_on_c, 0, 56, 27
2, 22969, Note_on_c, 0, 62, 35
2, 22969, Note_on_c, 0, 74, 40
2, 22992, Note_on_c, 0, 67, 0
2, 23004, Note_on_c, 0, 62, 0
2, 23019, Note_on_c, 0, 56, 0
2, 23063, Note_on_c, 0, 74, 0
2, 23064, Note_on_c, 0, 86, 0
2, 23066, Note_on_c, 0, 79, 0
2, 23106, Control_c, 0, 64, 0
2, 23107, Note_on_c, 0, 51, 46
2, 23108, Note_on_c, 0, 87, 52
2, 23110, Note_on_c, 0, 75, 38
2, 23112, Note_on_c, 0, 58, 37
2, 23127, Control_c, 0, 64, 127
2, 23159, Note_on_c, 0, 87, 0
2, 23162, Note_on_c, 0, 51, 0
2, 23174, Note_on_c, 0, 75, 0
2, 23177, Note_on_c, 0, 58, 0
2, 23326, Note_on_c, 0, 68, 51
2, 23326, Note_on_c, 0, 42, 48
2, 23327, Note_on_c, 0, 58, 64
2, 23327, Note_on_c, 0, 61, 53
2, 23328, Note_on_c, 0, 64, 56
2, 23334, Control_c, 0, 64, 0
2, 23341, Control_c, 0, 64, 127
2, 23342, Note_on_c, 0, 42, 0
2, 23361, Note_on_c, 0, 64, 0
2, 23371, Note_on_c, 0, 68, 0
2, 23376, Note_on_c, 0, 58, 0
2, 23385, Note_on_c, 0, 61, 0
2, 23406, Note_on_c, 0, 67, 61
2, 23406, Control_c, 0, 64, 0
2, 23407, Note_on_c, 0, 56, 37
2, 23409, Note_on_c, 0, 60, 55
2, 23409, Note_on_c, 0, 41, 55
2, 23409, Note_on_c, 0, 63, 42
2, 23410, Note_on_c, 0, 51, 38
2, 23431, Control_c, 0, 64, 127
2, 23459, Note_on_c, 0, 41, 0
2, 23460, Note_on_c, 0, 56, 0
2, 23463, Note_on_c, 0, 60, 0
2, 23473, Note_on_c, 0, 67, 0
2, 23475, Note_on_c, 0, 51, 0
2, 23485, Note_on_c, 0, 63, 0
2, 23551, Note_on_c, 0, 71, 55
2, 23551, Note_on_c, 0, 62, 58
2, 23552, Note_on_c, 0, 56, 47
2, 23552, Note_on_c, 0, 67, 59
2, 23557, Control_c, 0, 64, 0
2, 23579, Control_c, 0, 64, 127
2, 23632, Note_on_c, 0, 71, 0
2, 23639, Note_on_c, 0, 62, 0
2, 23640, Note_on_c, 0, 56, 0
2, 23647, Note_on_c, 0, 67, 0
2, 23694, Note_on_c, 0, 70, 40
2, 23695, Control_c, 0, 64, 0
2, 23697, Note_on_c, 0, 63, 32
2, 23697, Note_on_c, 0, 67, 47
2, 23698, Note_on_c, 0, 55, 39
2, 23699, Note_on_c, 0, 46, 26
2, 23700, Note_on_c, 0, 60, 35
2, 23723, Control_c, 0, 64, 127
2, 23730, Note_on_c, 0, 60, 0
2, 23736, Note_on_c, 0, 67, 0
2, 23742, Note_on_c, 0, 63, 0
2, 23750, Note_on_c, 0, 70, 0
2, 23754, Note_on_c, 0, 46, 0
2, 23757, Note_on_c, 0, 55, 0
2, 23791, Note_on_c, 0, 84, 79
2, 23812, Note_on_c, 0, 84, 0
2, 23836, Note_on_c, 0, 63, 47
2, 23841, Note_on_c, 0, 84, 64
2, 23841, Note_on_c, 0, 60, 41
2, 23843, Note_on_c, 0, 79, 44
2, 23844, Note_on_c, 0, 72, 30
2, 23848, Note_on_c, 0, 60, 0
2, 23849, Note_on_c, 0, 63, 0
2, 23868, Note_on_c, 0, 84, 0
2, 23877, Note_on_c, 0, 79, 0
2, 23880, Note_on_c, 0, 72, 0
2, 23887, Note_on_c, 0, 84, 62
2, 23905, Note_on_c, 0, 84, 0
2, 23931, Note_on_c, 0, 84, 58
2, 23948, Note_on_c, 0, 84, 0
2, 23978, Control_c, 0, 64, 0
2, 23978, Note_on_c, 0, 76, 36
2, 23979, Note_on_c, 0, 84, 38
2, 23980, Note_on_c, 0, 36, 41
2, 23981, Note_on_c, 0, 80, 34
2, 23997, Note_on_c, 0, 36, 0
2, 23998, Control_c, 0, 64, 127
2, 24006, Note_on_c, 0, 84, 0
2, 24007, Note_on_c, 0, 76, 0
2, 24009, Note_on_c, 0, 80, 0
2, 24116, Note_on_c, 0, 63, 26
2, 24118, Note_on_c, 0, 90, 42
2, 24118, Note_on_c, 0, 75, 33
2, 24120, Note_on_c, 0, 58, 34
2, 24121, Note_on_c, 0, 52, 37
2, 24123, Control_c, 0, 64, 0
2, 24133, Note_on_c, 0, 90, 0
2, 24134, Note_on_c, 0, 75, 0
2, 24137, Note_on_c, 0, 52, 0
2, 24138, Note_on_c, 0, 63, 0
2, 24140, Note_on_c, 0, 58, 0
2, 24176, Control_c, 0, 64, 127
2, 24206, Note_on_c, 0, 42, 37
2, 24207, Note_on_c, 0, 52, 30
2, 24219, Note_on_c, 0, 52, 0
2, 24230, Note_on_c, 0, 42, 0
2, 24256, Control_c, 0, 64, 0
2, 24258, Note_on_c, 0, 56, 34
2, 24260, Note_on_c, 0, 41, 38
2, 24260, Note_on_c, 0, 51, 32
2, 24261, Note_on_c, 0, 63, 31
2, 24264, Note_on_c, 0, 60, 33
2, 24270, Control_c, 0, 64, 127
2, 24287, Note_on_c, 0, 56, 0
2, 24291, Note_on_c, 0, 41, 0
2, 24293, Note_on_c, 0, 60, 0
2, 24304, Note_on_c, 0, 51, 0
2, 24319, Note_on_c, 0, 63, 0
2, 24399, Note_on_c, 0, 63, 29
2, 24402, Note_on_c, 0, 60, 36
2, 24403, Note_on_c, 0, 56, 33
2, 24403, Note_on_c, 0, 53, 24
2, 24422, Note_on_c, 0, 60, 0
2, 24423, Note_on_c, 0, 53, 0
2, 24432, Note_on_c, 0, 56, 0
2, 24432, Note_on_c, 0, 63, 0
2, 24446, Note_on_c, 0, 82, 91
2, 24452, Note_on_c, 0, 83, 31
2, 24466, Note_on_c, 0, 83, 0
2, 24470, Note_on_c, 0, 82, 0
2, 24491, Note_on_c, 0, 87, 90
2, 24516, Note_on_c, 0, 87, 0
2, 24522, Note_on_c, 0, 87, 81
2, 24544, Note_on_c, 0, 87, 0
2, 24546, Note_on_c, 0, 66, 40
2, 24548, Note_on_c, 0, 62, 41
2, 24549, Control_c, 0, 64, 0
2, 24550, Note_on_c, 0, 86, 71
2, 24550, Note_on_c, 0, 56, 38
2, 24567, Note_on_c, 0, 86, 0
2, 24578, Note_on_c, 0, 86, 73
2, 24578, Control_c, 0, 64, 127
2, 24598, Note_on_c, 0, 86, 0
2, 24598, Note_on_c, 0, 66, 0
2, 24599, Note_on_c, 0, 62, 0
2, 24603, Note_on_c, 0, 84, 62
2, 24606, Note_on_c, 0, 56, 0
2, 24619, Note_on_c, 0, 84, 0
2, 24632, Note_on_c, 0, 84, 64
2, 24650, Note_on_c, 0, 84, 0
2, 24667, Note_on_c, 0, 82, 49
2, 24685, Note_on_c, 0, 82, 0
2, 24692, Control_c, 0, 64, 0
2, 24693, Note_on_c, 0, 82, 63
2, 24694, Note_on_c, 0, 56, 34
2, 24695, Note_on_c, 0, 46, 33
2, 24715, Control_c, 0, 64, 127
2, 24723, Note_on_c, 0, 82, 0
2, 24724, Note_on_c, 0, 80, 55
2, 24741, Note_on_c, 0, 80, 0
2, 24751, Note_on_c, 0, 56, 0
2, 24753, Note_on_c, 0, 80, 52
2, 24755, Note_on_c, 0, 46, 0
2, 24771, Note_on_c, 0, 80, 0
2, 24790, Note_on_c, 0, 79, 45
2, 24803, Note_on_c, 0, 79, 0
2, 24815, Note_on_c, 0, 79, 53
2, 24832, Note_on_c, 0, 79, 0
2, 24836, Control_c, 0, 64, 0
2, 24837, Note_on_c, 0, 40, 35
2, 24845, Note_on_c, 0, 79, 44
2, 24850, Control_c, 0, 64, 127
2, 24861, Note_on_c, 0, 40, 0
2, 24870, Note_on_c, 0, 79, 0
2, 24881, Note_on_c, 0, 67, 55
2, 24908, Note_on_c, 0, 67, 0
2, 24920, Note_on_c, 0, 67, 58
2, 24961, Note_on_c, 0, 67, 0
2, 24971, Note_on_c, 0, 62, 25
2, 24971, Note_on_c, 0, 59, 25
2, 24972, Note_on_c, 0, 55, 35
2, 24973, Note_on_c, 0, 52, 25
2, 24995, Note_on_c, 0, 59, 0
2, 24996, Note_on_c, 0, 55, 0
2, 25000, Note_on_c, 0, 62, 0
2, 25005, Note_on_c, 0, 52, 0
2, 25050, Note_on_c, 0, 45, 66
2, 25061, Note_on_c, 0, 45, 0
2, 25107, Note_on_c, 0, 69, 78
2, 25107, Note_on_c, 0, 55, 73
2, 25107, Note_on_c, 0, 61, 64
2, 25108, Note_on_c, 0, 81, 56
2, 25108, Note_on_c, 0, 83, 60
2, 25109, Note_on_c, 0, 65, 62
2, 25109, Note_on_c, 0, 75, 37
2, 25111, Note_on_c, 0, 80, 40
2, 25112, Control_c, 0, 64, 0
2, 25115, Note_on_c, 0, 80, 0
2, 25115, Note_on_c, 0, 75, 0
2, 25126, Note_on_c, 0, 83, 0
2, 25135, Control_c, 0, 64, 127
2, 25164, Note_on_c, 0, 69, 0
2, 25171, Note_on_c, 0, 81, 0
2, 25182, Note_on_c, 0, 65, 0
2, 25201, Note_on_c, 0, 61, 0
2, 25243, Note_on_c, 0, 76, 52
2, 25243, Note_on_c, 0, 82, 44
2, 25243, Note_on_c, 0, 88, 47
2, 25245, Note_on_c, 0, 61, 36
2, 25261, Note_on_c, 0, 82, 0
2, 25262, Note_on_c, 0, 61, 0
2, 25264, Note_on_c, 0, 55, 0
2, 25274, Note_on_c, 0, 88, 0
2, 25283, Note_on_c, 0, 76, 0
2, 25330, Note_on_c, 0, 45, 35
2, 25342, Note_on_c, 0, 45, 0
2, 25381, Note_on_c, 0, 63, 42
2, 25384, Note_on_c, 0, 55, 45
2, 25385, Note_on_c, 0, 51, 32
2, 25386, Note_on_c, 0, 44, 31
2, 25387, Control_c, 0, 64, 0
2, 25387, Note_on_c, 0, 60, 44
2, 25410, Control_c, 0, 64, 127
2, 25422, Note_on_c, 0, 55, 0
2, 25433, Note_on_c, 0, 60, 0
2, 25441, Note_on_c, 0, 63, 0
2, 25450, Note_on_c, 0, 44, 0
2, 25456, Note_on_c, 0, 51, 0
2, 25527, Note_on_c, 0, 63, 53
2, 25531, Note_on_c, 0, 60, 48
2, 25531, Note_on_c, 0, 56, 31
2, 25536, Note_on_c, 0, 60, 0
2, 25536, Note_on_c, 0, 63, 0
2, 25543, Note_on_c, 0, 56, 0
2, 25570, Control_c, 0, 64, 0
2, 25578, Note_on_c, 0, 65, 80
2, 25582, Control_c, 0, 64, 127
2, 25588, Note_on_c, 0, 65, 0
2, 25603, Control_c, 0, 64, 0
2, 25615, Control_c, 0, 64, 127
2, 25620, Note_on_c, 0, 72, 90
2, 25636, Note_on_c, 0, 72, 0
2, 25664, Note_on_c, 0, 70, 53
2, 25667, Note_on_c, 0, 63, 48
2, 25668, Note_on_c, 0, 53, 37
2, 25668, Control_c, 0, 64, 0
2, 25668, Note_on_c, 0, 67, 46
2, 25669, Note_on_c, 0, 43, 39
2, 25669, Note_on_c, 0, 58, 46
2, 25689, Note_on_c, 0, 67, 0
2, 25689, Control_c, 0, 64, 127
2, 25693, Note_on_c, 0, 70, 0
2, 25705, Note_on_c, 0, 63, 0
2, 25731, Note_on_c, 0, 53, 0
2, 25744, Note_on_c, 0, 58, 0
2, 25744, Note_on_c, 0, 43, 0
2, 25755, Note_on_c, 0, 67, 63
2, 25762, Note_on_c, 0, 67, 0
2, 25805, Note_on_c, 0, 63, 53
2, 25807, Note_on_c, 0, 48, 43
2, 25809, Note_on_c, 0, 36, 33
2, 25810, Note_on_c, 0, 52, 27
2, 25812, Control_c, 0, 64, 0
2, 25813, Note_on_c, 0, 56, 21
2, 25845, Control_c, 0, 64, 127
2, 25846, Note_on_c, 0, 52, 0
2, 25850, Note_on_c, 0, 63, 0
2, 25852, Note_on_c, 0, 60, 52
2, 25887, Note_on_c, 0, 36, 0
2, 25897, Note_on_c, 0, 48, 0
2, 25898, Note_on_c, 0, 56, 0
2, 25905, Note_on_c, 0, 63, 23
2, 25906, Note_on_c, 0, 60, 0
2, 25921, Note_on_c, 0, 63, 0
2, 25958, Note_on_c, 0, 59, 40
2, 25959, Note_on_c, 0, 60, 41
2, 25959, Note_on_c, 0, 51, 42
2, 25962, Note_on_c, 0, 41, 40
2, 25962, Note_on_c, 0, 55, 35
2, 25964, Control_c, 0, 64, 0
2, 25995, Note_on_c, 0, 60, 0
2, 25999, Control_c, 0, 64, 127
2, 26000, Note_on_c, 0, 55, 0
2, 26004, Note_on_c, 0, 62, 62
2, 26008, Note_on_c, 0, 59, 0
2, 26009, Note_on_c, 0, 51, 0
2, 26016, Note_on_c, 0, 62, 0
2, 26032, Note_on_c, 0, 41, 0
2, 26045, Note_on_c, 0, 74, 82
2, 26049, Note_on_c, 0, 67, 65
2, 26076, Note_on_c, 0, 74, 0
2, 26082, Note_on_c, 0, 67, 0
2, 26091, Note_on_c, 0, 71, 47
2, 26092, Note_on_c, 0, 67, 40
2, 26093, Note_on_c, 0, 63, 35
2, 26095, Note_on_c, 0, 62, 45
2, 26098, Control_c, 0, 64, 0
2, 26139, Note_on_c, 0, 60, 48
2, 26141, Note_on_c, 0, 62, 0
2, 26141, Note_on_c, 0, 72, 37
2, 26144, Control_c, 0, 64, 127
2, 26146, Note_on_c, 0, 71, 0
2, 26191, Note_on_c, 0, 72, 0
2, 26207, Note_on_c, 0, 63, 0
2, 26209, Note_on_c, 0, 67, 0
2, 26229, Note_on_c, 0, 75, 44
2, 26230, Note_on_c, 0, 67, 40
2, 26231, Note_on_c, 0, 63, 30
2, 26231, Note_on_c, 0, 53, 33
2, 26235, Control_c, 0, 64, 0
2, 26252, Control_c, 0, 64, 127
2, 26293, Note_on_c, 0, 73, 1
2, 26294, Note_on_c, 0, 60, 0
2, 26314, Note_on_c, 0, 63, 0
2, 26314, Note_on_c, 0, 67, 0
2, 26364, Note_on_c, 0, 63, 38
2, 26366, Note_on_c, 0, 67, 48
2, 26369, Note_on_c, 0, 60, 31
2, 26380, Note_on_c, 0, 67, 0
2, 26380, Note_on_c, 0, 63, 0
2, 26390, Note_on_c, 0, 75, 0
2, 26393, Note_on_c, 0, 73, 0
2, 26415, Note_on_c, 0, 79, 70
2, 26451, Note_on_c, 0, 79, 0
2, 26455, Note_on_c, 0, 75, 51
2, 26457, Note_on_c, 0, 53, 0
2, 26457, Note_on_c, 0, 68, 50
2, 26458, Note_on_c, 0, 72, 44
2, 26501, Note_on_c, 0, 63, 50
2, 26502, Note_on_c, 0, 60, 0
2, 26505, Control_c, 0, 64, 0
2, 26513, Note_on_c, 0, 72, 0
2, 26519, Note_on_c, 0, 75, 0
2, 26528, Note_on_c, 0, 68, 0
2, 26529, Control_c, 0, 64, 127
2, 26546, Note_on_c, 0, 68, 47
2, 26552, Note_on_c, 0, 64, 22
2, 26562, Note_on_c, 0, 64, 0
2, 26576, Note_on_c, 0, 63, 0
2, 26577, Note_on_c, 0, 68, 0
2, 26591, Note_on_c, 0, 62, 68
2, 26607, Control_c, 0, 64, 0
2, 26636, Note_on_c, 0, 53, 44
2, 26637, Control_c, 0, 64, 127
2, 26655, Note_on_c, 0, 53, 0
2, 26678, Note_on_c, 0, 62, 0
2, 26680, Note_on_c, 0, 68, 61
2, 26716, Note_on_c, 0, 68, 0
2, 26726, Note_on_c, 0, 65, 45
2, 26726, Note_on_c, 0, 62, 50
2, 26737, Note_on_c, 0, 65, 0
2, 26746, Note_on_c, 0, 62, 0
2, 26778, Note_on_c, 0, 59, 47
2, 26779, Note_on_c, 0, 46, 30
2, 26780, Note_on_c, 0, 56, 26
2, 26781, Note_on_c, 0, 62, 41
2, 26782, Control_c, 0, 64, 0
2, 26804, Control_c, 0, 64, 127
2, 26866, Note_on_c, 0, 59, 0
2, 26875, Note_on_c, 0, 62, 0
2, 26880, Note_on_c, 0, 56, 0
2, 26924, Note_on_c, 0, 59, 42
2, 26924, Note_on_c, 0, 62, 38
2, 26924, Note_on_c, 0, 56, 29
2, 26926, Control_c, 0, 64, 0
2, 26942, Control_c, 0, 64, 127
2, 26952, Note_on_c, 0, 46, 0
2, 26972, Note_on_c, 0, 46, 46
2, 26996, Note_on_c, 0, 56, 0
2, 27006, Note_on_c, 0, 62, 0
2, 27015, Note_on_c, 0, 59, 0
2, 27026, Note_on_c, 0, 46, 0
2, 27063, Note_on_c, 0, 63, 47
2, 27066, Note_on_c, 0, 58, 37
2, 27066, Note_on_c, 0, 46, 32
2, 27066, Note_on_c, 0, 55, 36
2, 27068, Control_c, 0, 64, 0
2, 27090, Control_c, 0, 64, 127
2, 27098, Note_on_c, 0, 55, 0
2, 27122, Note_on_c, 0, 58, 0
2, 27134, Note_on_c, 0, 63, 0
2, 27215, Note_on_c, 0, 55, 54
2, 27263, Note_on_c, 0, 46, 0
2, 27265, Note_on_c, 0, 72, 57
2, 27271, Note_on_c, 0, 55, 0
2, 27293, Note_on_c, 0, 72, 0
2, 27305, Note_on_c, 0, 73, 59
2, 27334, Note_on_c, 0, 73, 0
2, 27346, Note_on_c, 0, 75, 64
2, 27350, Note_on_c, 0, 63, 55
2, 27351, Note_on_c, 0, 68, 50
2, 27351, Note_on_c, 0, 72, 40
2, 27353, Note_on_c, 0, 64, 56
2, 27356, Control_c, 0, 64, 0
2, 27380, Note_on_c, 0, 64, 0
2, 27380, Note_on_c, 0, 72, 0
2, 27383, Note_on_c, 0, 75, 0
2, 27384, Note_on_c, 0, 68, 0
2, 27386, Note_on_c, 0, 63, 0
2, 27388, Note_on_c, 0, 61, 37
2, 27390, Note_on_c, 0, 73, 25
2, 27404, Note_on_c, 0, 73, 0
2, 27417, Note_on_c, 0, 75, 56
2, 27418, Note_on_c, 0, 61, 0
2, 27419, Note_on_c, 0, 68, 37
2, 27419, Note_on_c, 0, 63, 37
2, 27419, Note_on_c, 0, 72, 37
2, 27420, Note_on_c, 0, 64, 40
2, 27445, Control_c, 0, 64, 127
2, 27473, Note_on_c, 0, 72, 0
2, 27474, Note_on_c, 0, 68, 0
2, 27474, Note_on_c, 0, 64, 0
2, 27483, Note_on_c, 0, 75, 0
2, 27489, Note_on_c, 0, 73, 39
2, 27490, Note_on_c, 0, 63, 0
2, 27491, Note_on_c, 0, 68, 51
2, 27492, Note_on_c, 0, 64, 39
2, 27492, Note_on_c, 0, 61, 43
2, 27556, Note_on_c, 0, 61, 0
2, 27557, Note_on_c, 0, 68, 0
2, 27560, Note_on_c, 0, 64, 0
2, 27592, Note_on_c, 0, 73, 0
2, 27592, Note_on_c, 0, 68, 56
2, 27619, Note_on_c, 0, 68, 0
2, 27630, Note_on_c, 0, 48, 40
2, 27639, Note_on_c, 0, 71, 63
2, 27640, Note_on_c, 0, 63, 52
2, 27641, Note_on_c, 0, 67, 66
2, 27642, Note_on_c, 0, 57, 47
2, 27643, Control_c, 0, 64, 0
2, 27677, Note_on_c, 0, 74, 68
2, 27686, Control_c, 0, 64, 127
2, 27700, Note_on_c, 0, 74, 0
2, 27705, Note_on_c, 0, 71, 0
2, 27708, Note_on_c, 0, 57, 0
2, 27712, Note_on_c, 0, 72, 56
2, 27733, Note_on_c, 0, 63, 0
2, 27735, Note_on_c, 0, 67, 0
2, 27777, Note_on_c, 0, 67, 60
2, 27778, Note_on_c, 0, 63, 47
2, 27779, Note_on_c, 0, 72, 0
2, 27780, Note_on_c, 0, 57, 55
2, 27807, Note_on_c, 0, 57, 0
2, 27855, Note_on_c, 0, 67, 0
2, 27860, Note_on_c, 0, 48, 0
2, 27869, Note_on_c, 0, 63, 0
2, 27928, Note_on_c, 0, 67, 54
2, 27929, Note_on_c, 0, 63, 37
2, 27929, Note_on_c, 0, 56, 34
2, 27930, Note_on_c, 0, 46, 33
2, 27932, Note_on_c, 0, 60, 33
2, 27933, Control_c, 0, 64, 0
2, 27967, Note_on_c, 0, 67, 0
2, 27967, Note_on_c, 0, 70, 64
2, 27975, Control_c, 0, 64, 127
2, 27986, Note_on_c, 0, 60, 0
2, 27994, Note_on_c, 0, 63, 0
2, 27999, Note_on_c, 0, 56, 0
2, 28001, Note_on_c, 0, 70, 0
2, 28013, Note_on_c, 0, 68, 69
2, 28014, Note_on_c, 0, 59, 72
2, 28014, Note_on_c, 0, 56, 42
2, 28015, Note_on_c, 0, 63, 67
2, 28019, Control_c, 0, 64, 0
2, 28041, Control_c, 0, 64, 127
2, 28088, Note_on_c, 0, 59, 0
2, 28095, Note_on_c, 0, 46, 0
2, 28100, Note_on_c, 0, 63, 0
2, 28107, Note_on_c, 0, 68, 0
2, 28109, Note_on_c, 0, 56, 0
2, 28120, Note_on_c, 0, 63, 39
2, 28121, Note_on_c, 0, 56, 35
2, 28122, Note_on_c, 0, 46, 35
2, 28123, Note_on_c, 0, 59, 35
2, 28149, Note_on_c, 0, 59, 0
2, 28151, Note_on_c, 0, 46, 0
2, 28162, Note_on_c, 0, 68, 53
2, 28165, Note_on_c, 0, 46, 42
2, 28184, Note_on_c, 0, 56, 0
2, 28185, Note_on_c, 0, 46, 0
2, 28189, Note_on_c, 0, 63, 0
2, 28192, Note_on_c, 0, 68, 0
2, 28206, Note_on_c, 0, 67, 56
2, 28208, Note_on_c, 0, 46, 39
2, 28209, Note_on_c, 0, 64, 43
2, 28210, Note_on_c, 0, 60, 24
2, 28211, Control_c, 0, 64, 0
2, 28212, Note_on_c, 0, 55, 42
2, 28239, Control_c, 0, 64, 127
2, 28260, Note_on_c, 0, 46, 0
2, 28270, Note_on_c, 0, 46, 37
2, 28290, Note_on_c, 0, 64, 0
2, 28313, Note_on_c, 0, 60, 0
2, 28331, Note_on_c, 0, 46, 0
2, 28342, Note_on_c, 0, 67, 0
2, 28347, Note_on_c, 0, 55, 0
2, 28356, Note_on_c, 0, 46, 44
2, 28407, Note_on_c, 0, 46, 0
2, 28416, Note_on_c, 0, 46, 47
2, 28461, Note_on_c, 0, 60, 65
2, 28461, Note_on_c, 0, 55, 66
2, 28474, Note_on_c, 0, 46, 0
2, 28478, Note_on_c, 0, 55, 0
2, 28484, Note_on_c, 0, 60, 0
2, 28484, Note_on_c, 0, 46, 58
2, 28503, Note_on_c, 0, 46, 0
2, 28514, Note_on_c, 0, 63, 68
2, 28514, Note_on_c, 0, 56, 77
2, 28514, Note_on_c, 0, 46, 63
2, 28515, Note_on_c, 0, 60, 82
2, 28519, Control_c, 0, 64, 0
2, 28543, Control_c, 0, 64, 127
2, 28555, Note_on_c, 0, 46, 0
2, 28563, Note_on_c, 0, 46, 54
2, 28588, Note_on_c, 0, 46, 0
2, 28645, Note_on_c, 0, 56, 0
2, 28646, Note_on_c, 0, 60, 0
2, 28661, Note_on_c, 0, 46, 31
2, 28661, Note_on_c, 0, 56, 36
2, 28664, Note_on_c, 0, 60, 37
2, 28705, Note_on_c, 0, 34, 43
2, 28727, Note_on_c, 0, 34, 0
2, 28758, Note_on_c, 0, 56, 0
2, 28758, Note_on_c, 0, 34, 39
2, 28759, Note_on_c, 0, 60, 0
2, 28768, Note_on_c, 0, 34, 0
2, 28780, Note_on_c, 0, 34, 52
2, 28782, Note_on_c, 0, 63, 0
2, 28787, Note_on_c, 0, 46, 0
2, 28803, Note_on_c, 0, 46, 54
2, 28807, Note_on_c, 0, 58, 71
2, 28807, Note_on_c, 0, 55, 74
2, 28808, Note_on_c, 0, 65, 66
2, 28808, Note_on_c, 0, 62, 72
2, 28815, Control_c, 0, 64, 0
2, 28843, Control_c, 0, 64, 127
2, 28859, Note_on_c, 0, 46, 0
2, 28866, Note_on_c, 0, 46, 53
2, 28890, Note_on_c, 0, 55, 0
2, 28910, Note_on_c, 0, 46, 0
2, 28913, Note_on_c, 0, 62, 0
2, 28915, Note_on_c, 0, 58, 0
2, 28952, Note_on_c, 0, 62, 47
2, 28953, Note_on_c, 0, 58, 35
2, 28953, Note_on_c, 0, 46, 33
2, 28956, Note_on_c, 0, 55, 38
2, 28983, Note_on_c, 0, 34, 0
2, 28999, Note_on_c, 0, 34, 37
2, 29034, Note_on_c, 0, 34, 0
2, 29037, Note_on_c, 0, 62, 0
2, 29043, Note_on_c, 0, 55, 0
2, 29047, Note_on_c, 0, 65, 0
2, 29055, Note_on_c, 0, 34, 50
2, 29063, Note_on_c, 0, 58, 0
2, 29068, Note_on_c, 0, 34, 0
2, 29080, Note_on_c, 0, 34, 57
2, 29082, Note_on_c, 0, 46, 0
2, 29104, Note_on_c, 0, 63, 64
2, 29105, Note_on_c, 0, 56, 71
2, 29105, Note_on_c, 0, 60, 76
2, 29106, Note_on_c, 0, 55, 81
2, 29106, Note_on_c, 0, 46, 65
2, 29113, Control_c, 0, 64, 0
2, 29140, Control_c, 0, 64, 127
2, 29212, Note_on_c, 0, 46, 0
2, 29222, Note_on_c, 0, 55, 0
2, 29223, Note_on_c, 0, 56, 0
2, 29226, Note_on_c, 0, 60, 0
2, 29236, Note_on_c, 0, 63, 0
2, 29256, Note_on_c, 0, 63, 43
2, 29257, Note_on_c, 0, 56, 35
2, 29258, Note_on_c, 0, 46, 34
2, 29258, Note_on_c, 0, 55, 49
2, 29258, Note_on_c, 0, 60, 51
2, 29283, Note_on_c, 0, 34, 0
2, 29305, Note_on_c, 0, 34, 54
2, 29332, Note_on_c, 0, 34, 0
2, 29366, Note_on_c, 0, 46, 0
2, 29368, Note_on_c, 0, 34, 44
2, 29382, Note_on_c, 0, 34, 0
2, 29383, Note_on_c, 0, 55, 0
2, 29387, Note_on_c, 0, 34, 29
2, 29390, Note_on_c, 0, 56, 0
2, 29391, Note_on_c, 0, 46, 25
2, 29403, Note_on_c, 0, 60, 0
2, 29404, Note_on_c, 0, 63, 0
2, 29405, Note_on_c, 0, 46, 0
2, 29408, Note_on_c, 0, 34, 0
2, 29416, Note_on_c, 0, 44, 46
2, 29416, Note_on_c, 0, 53, 54
2, 29417, Note_on_c, 0, 63, 58
2, 29418, Note_on_c, 0, 32, 46
2, 29418, Note_on_c, 0, 58, 44
2, 29421, Control_c, 0, 64, 0
2, 29442, Control_c, 0, 64, 127
2, 29451, Note_on_c, 0, 32, 0
2, 29465, Note_on_c, 0, 53, 0
2, 29468, Note_on_c, 0, 44, 0
2, 29476, Note_on_c, 0, 63, 0
2, 29488, Note_on_c, 0, 58, 0
2, 29570, Note_on_c, 0, 58, 55
2, 29571, Note_on_c, 0, 48, 51
2, 29586, Note_on_c, 0, 58, 0
2, 29594, Note_on_c, 0, 48, 0
2, 29624, Note_on_c, 0, 67, 71
2, 29624, Note_on_c, 0, 58, 76
2, 29624, Note_on_c, 0, 63, 67
2, 29649, Note_on_c, 0, 67, 0
2, 29664, Note_on_c, 0, 58, 0
2, 29666, Note_on_c, 0, 63, 0
2, 29671, Note_on_c, 0, 67, 68
2, 29693, Note_on_c, 0, 67, 0
2, 29719, Note_on_c, 0, 67, 69
2, 29720, Note_on_c, 0, 61, 57
2, 29720, Note_on_c, 0, 46, 44
2, 29720, Note_on_c, 0, 56, 47
2, 29724, Control_c, 0, 64, 0
2, 29749, Control_c, 0, 64, 127
2, 29756, Note_on_c, 0, 67, 0
2, 29770, Note_on_c, 0, 67, 47
2, 29779, Note_on_c, 0, 46, 0
2, 29791, Note_on_c, 0, 67, 0
2, 29803, Note_on_c, 0, 56, 0
2, 29807, Note_on_c, 0, 67, 43
2, 29815, Note_on_c, 0, 61, 0
2, 29821, Note_on_c, 0, 67, 0
2, 29835, Note_on_c, 0, 67, 44
2, 29850, Note_on_c, 0, 67, 0
2, 29869, Note_on_c, 0, 67, 51
2, 29870, Note_on_c, 0, 39, 48
2, 29872, Note_on_c, 0, 61, 43
2, 29873, Note_on_c, 0, 55, 46
2, 29877, Control_c, 0, 64, 0
2, 29903, Control_c, 0, 64, 127
2, 29911, Note_on_c, 0, 67, 0
2, 29921, Note_on_c, 0, 67, 46
2, 29924, Note_on_c, 0, 39, 0
2, 29939, Note_on_c, 0, 67, 0
2, 29946, Note_on_c, 0, 55, 0
2, 29952, Note_on_c, 0, 67, 65
2, 29966, Note_on_c, 0, 67, 0
2, 29973, Note_on_c, 0, 61, 0
2, 29980, Note_on_c, 0, 67, 51
2, 29999, Note_on_c, 0, 67, 0
2, 30015, Note_on_c, 0, 67, 40
2, 30016, Note_on_c, 0, 60, 57
2, 30017, Note_on_c, 0, 44, 45
2, 30018, Note_on_c, 0, 52, 36
2, 30026, Control_c, 0, 64, 0
2, 30053, Note_on_c, 0, 52, 0
2, 30053, Note_on_c, 0, 55, 62
2, 30073, Note_on_c, 0, 55, 0
2, 30093, Note_on_c, 0, 53, 62
2, 30110, Control_c, 0, 64, 127
2, 30140, Note_on_c, 0, 44, 0
2, 30148, Note_on_c, 0, 60, 0
2, 30149, Note_on_c, 0, 53, 0
2, 30167, Note_on_c, 0, 55, 61
2, 30168, Note_on_c, 0, 60, 52
2, 30220, Note_on_c, 0, 55, 0
2, 30221, Note_on_c, 0, 44, 72
2, 30228, Note_on_c, 0, 60, 0
2, 30241, Note_on_c, 0, 67, 0
2, 30282, Note_on_c, 0, 44, 0
2, 30299, Note_on_c, 0, 70, 80
2, 30299, Note_on_c, 0, 43, 68
2, 30300, Note_on_c, 0, 62, 89
2, 30301, Note_on_c, 0, 53, 72
2, 30301, Note_on_c, 0, 58, 79
2, 30301, Control_c, 0, 64, 0
2, 30325, Control_c, 0, 64, 127
2, 30356, Note_on_c, 0, 70, 0
2, 30364, Note_on_c, 0, 58, 0
2, 30367, Note_on_c, 0, 62, 0
2, 30372, Note_on_c, 0, 67, 76
2, 30381, Note_on_c, 0, 53, 0
2, 30387, Note_on_c, 0, 43, 0
2, 30393, Note_on_c, 0, 67, 0
2, 30445, Note_on_c, 0, 63, 53
2, 30445, Note_on_c, 0, 42, 57
2, 30447, Note_on_c, 0, 58, 60
2, 30449, Note_on_c, 0, 52, 52
2, 30451, Control_c, 0, 64, 0
2, 30488, Control_c, 0, 64, 127
2, 30520, Note_on_c, 0, 52, 0
2, 30526, Note_on_c, 0, 63, 0
2, 30530, Note_on_c, 0, 42, 0
2, 30530, Note_on_c, 0, 60, 58
2, 30560, Note_on_c, 0, 58, 0
2, 30567, Note_on_c, 0, 60, 0
2, 30602, Note_on_c, 0, 63, 45
2, 30602, Note_on_c, 0, 57, 54
2, 30603, Note_on_c, 0, 51, 38
2, 30603, Note_on_c, 0, 59, 60
2, 30604, Control_c, 0, 64, 0
2, 30605, Note_on_c, 0, 41, 41
2, 30627, Note_on_c, 0, 57, 0
2, 30627, Control_c, 0, 64, 127
2, 30633, Note_on_c, 0, 59, 0
2, 30638, Note_on_c, 0, 63, 0
2, 30645, Note_on_c, 0, 41, 0
2, 30655, Note_on_c, 0, 51, 0
2, 30679, Note_on_c, 0, 75, 67
2, 30713, Note_on_c, 0, 70, 26
2, 30722, Note_on_c, 0, 70, 0
2, 30743, Note_on_c, 0, 75, 0
2, 30745, Note_on_c, 0, 71, 72
2, 30746, Note_on_c, 0, 69, 71
2, 30746, Note_on_c, 0, 63, 56
2, 30816, Note_on_c, 0, 75, 61
2, 30823, Note_on_c, 0, 69, 0
2, 30824, Note_on_c, 0, 71, 0
2, 30862, Note_on_c, 0, 63, 0
2, 30870, Note_on_c, 0, 75, 0
2, 30886, Note_on_c, 0, 75, 57
2, 30887, Note_on_c, 0, 63, 43
2, 30960, Note_on_c, 0, 69, 49
2, 30960, Note_on_c, 0, 72, 34
2, 30962, Note_on_c, 0, 65, 37
2, 31006, Note_on_c, 0, 72, 0
2, 31006, Note_on_c, 0, 69, 0
2, 31010, Note_on_c, 0, 65, 0
2, 31022, Note_on_c, 0, 63, 0
2, 31033, Note_on_c, 0, 72, 39
2, 31034, Note_on_c, 0, 69, 48
2, 31058, Note_on_c, 0, 75, 0
2, 31080, Note_on_c, 0, 69, 0
2, 31080, Note_on_c, 0, 75, 53
2, 31091, Note_on_c, 0, 72, 0
2, 31126, Note_on_c, 0, 68, 46
2, 31127, Note_on_c, 0, 72, 43
2, 31138, Note_on_c, 0, 75, 0
2, 31155, Note_on_c, 0, 75, 57
2, 31162, Note_on_c, 0, 72, 0
2, 31169, Note_on_c, 0, 68, 0
2, 31182, Note_on_c, 0, 63, 43
2, 31185, Note_on_c, 0, 53, 39
2, 31185, Note_on_c, 0, 56, 42
2, 31186, Note_on_c, 0, 65, 50
2, 31189, Note_on_c, 0, 68, 35
2, 31190, Control_c, 0, 64, 0
2, 31221, Control_c, 0, 64, 127
2, 31246, Note_on_c, 0, 65, 0
2, 31250, Note_on_c, 0, 68, 0
2, 31259, Note_on_c, 0, 75, 0
2, 31261, Note_on_c, 0, 63, 0
2, 31288, Note_on_c, 0, 56, 0
2, 31291, Note_on_c, 0, 72, 50
2, 31307, Note_on_c, 0, 72, 0
2, 31315, Note_on_c, 0, 79, 71
2, 31332, Note_on_c, 0, 79, 0
2, 31340, Note_on_c, 0, 63, 37
2, 31341, Note_on_c, 0, 72, 46
2, 31344, Note_on_c, 0, 56, 32
2, 31345, Note_on_c, 0, 75, 31
2, 31345, Control_c, 0, 64, 0
2, 31345, Note_on_c, 0, 60, 44
2, 31346, Note_on_c, 0, 68, 36
2, 31366, Control_c, 0, 64, 127
2, 31374, Note_on_c, 0, 72, 0
2, 31376, Note_on_c, 0, 68, 0
2, 31387, Note_on_c, 0, 75, 0
2, 31412, Note_on_c, 0, 60, 0
2, 31418, Note_on_c, 0, 53, 0
2, 31424, Note_on_c, 0, 79, 51
2, 31426, Note_on_c, 0, 56, 0
2, 31431, Note_on_c, 0, 63, 0
2, 31441, Note_on_c, 0, 79, 0
2, 31450, Note_on_c, 0, 82, 56
2, 31485, Note_on_c, 0, 82, 0
2, 31489, Note_on_c, 0, 66, 37
2, 31490, Note_on_c, 0, 79, 44
2, 31490, Note_on_c, 0, 74, 45
2, 31494, Note_on_c, 0, 56, 29
2, 31495, Control_c, 0, 64, 0
2, 31495, Note_on_c, 0, 62, 33
2, 31517, Control_c, 0, 64, 127
2, 31529, Note_on_c, 0, 66, 0
2, 31531, Note_on_c, 0, 62, 0
2, 31536, Note_on_c, 0, 56, 0
2, 31600, Note_on_c, 0, 74, 0
2, 31615, Note_on_c, 0, 79, 0
2, 31631, Note_on_c, 0, 56, 32
2, 31632, Note_on_c, 0, 46, 31
2, 31666, Note_on_c, 0, 56, 0
2, 31677, Note_on_c, 0, 46, 0
2, 31683, Note_on_c, 0, 84, 51
2, 31722, Note_on_c, 0, 84, 0
2, 31726, Note_on_c, 0, 86, 74
2, 31769, Note_on_c, 0, 86, 0
2, 31777, Note_on_c, 0, 39, 38
2, 31778, Note_on_c, 0, 46, 34
2, 31778, Note_on_c, 0, 87, 55
2, 31778, Control_c, 0, 64, 0
2, 31796, Control_c, 0, 64, 127
2, 31813, Note_on_c, 0, 87, 0
2, 31819, Note_on_c, 0, 39, 0
2, 31825, Note_on_c, 0, 46, 0
2, 31875, Note_on_c, 0, 91, 73
2, 31894, Note_on_c, 0, 91, 0
2, 31923, Note_on_c, 0, 66, 55
2, 31925, Note_on_c, 0, 94, 83
2, 31926, Note_on_c, 0, 82, 74
2, 31936, Note_on_c, 0, 66, 0
2, 31979, Note_on_c, 0, 94, 0
2, 31981, Note_on_c, 0, 82, 0
2, 32022, Note_on_c, 0, 82, 37
2, 32034, Note_on_c, 0, 82, 0
2, 32067, Note_on_c, 0, 66, 27
2, 32070, Note_on_c, 0, 97, 58
2, 32070, Note_on_c, 0, 62, 35
2, 32071, Note_on_c, 0, 82, 36
2, 32072, Note_on_c, 0, 56, 31
2, 32076, Control_c, 0, 64, 0
2, 32095, Note_on_c, 0, 97, 0
2, 32097, Note_on_c, 0, 82, 0
2, 32112, Note_on_c, 0, 66, 0
2, 32112, Note_on_c, 0, 62, 0
2, 32113, Note_on_c, 0, 94, 38
2, 32114, Note_on_c, 0, 56, 0
2, 32123, Note_on_c, 0, 94, 0
2, 32145, Note_on_c, 0, 97, 53
2, 32147, Note_on_c, 0, 82, 30
2, 32164, Note_on_c, 0, 82, 0
2, 32165, Note_on_c, 0, 97, 0
2, 32184, Note_on_c, 0, 97, 53
2, 32188, Note_on_c, 0, 82, 33
2, 32192, Control_c, 0, 64, 127
2, 32200, Note_on_c, 0, 82, 0
2, 32201, Note_on_c, 0, 97, 0
2, 32213, Control_c, 0, 64, 0
2, 32214, Note_on_c, 0, 66, 34
2, 32216, Note_on_c, 0, 94, 49
2, 32216, Note_on_c, 0, 62, 42
2, 32219, Note_on_c, 0, 56, 29
2, 32239, Note_on_c, 0, 94, 0
2, 32239, Control_c, 0, 64, 127
2, 32256, Note_on_c, 0, 97, 55
2, 32258, Note_on_c, 0, 82, 34
2, 32263, Note_on_c, 0, 66, 0
2, 32264, Note_on_c, 0, 62, 0
2, 32273, Note_on_c, 0, 82, 0
2, 32273, Note_on_c, 0, 56, 0
2, 32274, Note_on_c, 0, 97, 0
2, 32285, Note_on_c, 0, 94, 49
2, 32304, Note_on_c, 0, 94, 0
2, 32328, Note_on_c, 0, 97, 64
2, 32330, Note_on_c, 0, 82, 39
2, 32340, Note_on_c, 0, 97, 0
2, 32348, Note_on_c, 0, 82, 0
2, 32355, Control_c, 0, 64, 0
2, 32356, Note_on_c, 0, 39, 35
2, 32357, Note_on_c, 0, 46, 32
2, 32359, Note_on_c, 0, 94, 42
2, 32362, Note_on_c, 0, 82, 25
2, 32371, Control_c, 0, 64, 127
2, 32390, Note_on_c, 0, 94, 0
2, 32394, Note_on_c, 0, 39, 0
2, 32398, Note_on_c, 0, 82, 0
2, 32399, Note_on_c, 0, 46, 0
2, 32500, Note_on_c, 0, 63, 29
2, 32501, Note_on_c, 0, 70, 44
2, 32502, Note_on_c, 0, 67, 49
2, 32503, Note_on_c, 0, 60, 40
2, 32508, Note_on_c, 0, 58, 25
2, 32521, Note_on_c, 0, 60, 0
2, 32527, Note_on_c, 0, 63, 0
2, 32532, Note_on_c, 0, 58, 0
2, 32535, Note_on_c, 0, 67, 0
2, 32540, Note_on_c, 0, 70, 0
2, 32658, Note_on_c, 0, 56, 75
2, 32658, Note_on_c, 0, 41, 62
2, 32666, Control_c, 0, 64, 0
2, 32683, Control_c, 0, 64, 127
2, 32725, Note_on_c, 0, 56, 0
2, 32729, Note_on_c, 0, 41, 0
2, 32730, Note_on_c, 0, 42, 71
2, 32731, Control_c, 0, 64, 0
2, 32732, Note_on_c, 0, 57, 74
2, 32750, Control_c, 0, 64, 127
2, 32789, Note_on_c, 0, 57, 0
2, 32793, Control_c, 0, 64, 0
2, 32796, Note_on_c, 0, 42, 0
2, 32803, Note_on_c, 0, 43, 59
2, 32804, Note_on_c, 0, 58, 75
2, 32816, Control_c, 0, 64, 127
2, 32870, Note_on_c, 0, 43, 0
2, 32881, Note_on_c, 0, 46, 60
2, 32899, Note_on_c, 0, 46, 0
2, 32906, Note_on_c, 0, 58, 0
2, 32911, Note_on_c, 0, 47, 41
2, 32943, Note_on_c, 0, 47, 0
2, 32944, Control_c, 0, 64, 0
2, 32948, Note_on_c, 0, 63, 51
2, 32950, Note_on_c, 0, 48, 40
2, 32962, Control_c, 0, 64, 127
2, 32974, Note_on_c, 0, 63, 0
2, 32989, Note_on_c, 0, 48, 0
2, 33001, Note_on_c, 0, 75, 70
2, 33010, Note_on_c, 0, 75, 0
2, 33049, Note_on_c, 0, 63, 37
2, 33053, Note_on_c, 0, 75, 29
2, 33073, Note_on_c, 0, 75, 0
2, 33078, Note_on_c, 0, 63, 0
2, 33091, Note_on_c, 0, 63, 45
2, 33094, Note_on_c, 0, 60, 34
2, 33103, Control_c, 0, 64, 0
2, 33110, Control_c, 0, 64, 127
2, 33134, Note_on_c, 0, 75, 58
2, 33135, Note_on_c, 0, 60, 0
2, 33159, Note_on_c, 0, 75, 0
2, 33173, Note_on_c, 0, 63, 0
2, 33179, Note_on_c, 0, 75, 52
2, 33204, Note_on_c, 0, 75, 0
2, 33227, Note_on_c, 0, 75, 52
2, 33228, Note_on_c, 0, 63, 35
2, 33230, Note_on_c, 0, 47, 35
2, 33230, Note_on_c, 0, 66, 36
2, 33230, Note_on_c, 0, 57, 37
2, 33234, Control_c, 0, 64, 0
2, 33256, Control_c, 0, 64, 127
2, 33295, Note_on_c, 0, 57, 0
2, 33332, Note_on_c, 0, 66, 0
2, 33333, Note_on_c, 0, 63, 0
2, 33379, Note_on_c, 0, 63, 39
2, 33379, Note_on_c, 0, 66, 37
2, 33390, Note_on_c, 0, 47, 0
2, 33424, Note_on_c, 0, 58, 64
2, 33435, Control_c, 0, 64, 0
2, 33456, Control_c, 0, 64, 127
2, 33458, Note_on_c, 0, 58, 0
2, 33467, Note_on_c, 0, 75, 0
2, 33469, Note_on_c, 0, 57, 59
2, 33477, Note_on_c, 0, 47, 24
2, 33478, Note_on_c, 0, 63, 0
2, 33486, Note_on_c, 0, 66, 0
2, 33486, Note_on_c, 0, 47, 0
2, 33495, Note_on_c, 0, 57, 0
2, 33519, Control_c, 0, 64, 0
2, 33520, Note_on_c, 0, 61, 44
2, 33522, Note_on_c, 0, 56, 43
2, 33523, Note_on_c, 0, 46, 36
2, 33523, Note_on_c, 0, 65, 49
2, 33536, Control_c, 0, 64, 127
2, 33554, Note_on_c, 0, 61, 0
2, 33560, Note_on_c, 0, 65, 0
2, 33567, Note_on_c, 0, 46, 0
2, 33573, Note_on_c, 0, 56, 0
2, 33617, Note_on_c, 0, 77, 90
2, 33662, Note_on_c, 0, 61, 34
2, 33663, Note_on_c, 0, 56, 27
2, 33663, Note_on_c, 0, 65, 27
2, 33664, Note_on_c, 0, 60, 33
2, 33666, Control_c, 0, 64, 0
2, 33686, Control_c, 0, 64, 127
2, 33708, Note_on_c, 0, 75, 68
2, 33720, Note_on_c, 0, 77, 0
2, 33743, Note_on_c, 0, 60, 0
2, 33751, Note_on_c, 0, 65, 0
2, 33751, Note_on_c, 0, 75, 0
2, 33755, Note_on_c, 0, 61, 0
2, 33755, Note_on_c, 0, 74, 72
2, 33766, Note_on_c, 0, 56, 0
2, 33797, Note_on_c, 0, 74, 0
2, 33800, Control_c, 0, 64, 0
2, 33803, Note_on_c, 0, 73, 36
2, 33805, Note_on_c, 0, 61, 28
2, 33805, Note_on_c, 0, 65, 24
2, 33806, Note_on_c, 0, 55, 35
2, 33817, Control_c, 0, 64, 127
2, 33827, Note_on_c, 0, 65, 0
2, 33836, Note_on_c, 0, 61, 0
2, 33837, Note_on_c, 0, 55, 0
2, 33886, Note_on_c, 0, 73, 0
2, 33897, Note_on_c, 0, 63, 44
2, 33942, Note_on_c, 0, 27, 53
2, 33943, Control_c, 0, 64, 0
2, 33944, Note_on_c, 0, 39, 38
2, 33947, Note_on_c, 0, 27, 0
2, 33949, Note_on_c, 0, 39, 0
2, 33988, Note_on_c, 0, 45, 63
2, 34011, Control_c, 0, 64, 127
2, 34025, Note_on_c, 0, 45, 0
2, 34090, Control_c, 0, 64, 0
2, 34093, Note_on_c, 0, 32, 55
2, 34094, Note_on_c, 0, 44, 47
2, 34102, Control_c, 0, 64, 127
2, 34104, Note_on_c, 0, 32, 0
2, 34106, Note_on_c, 0, 63, 0
2, 34109, Note_on_c, 0, 44, 0
2, 34186, Note_on_c, 0, 52, 71
2, 34187, Note_on_c, 0, 72, 71
2, 34187, Note_on_c, 0, 44, 59
2, 34188, Note_on_c, 0, 67, 75
2, 34188, Note_on_c, 0, 60, 83
2, 34191, Control_c, 0, 64, 0
2, 34215, Control_c, 0, 64, 127
2, 34240, Note_on_c, 0, 72, 0
2, 34241, Note_on_c, 0, 60, 0
2, 34246, Note_on_c, 0, 67, 0
2, 34252, Note_on_c, 0, 72, 54
2, 34253, Control_c, 0, 64, 0
2, 34254, Note_on_c, 0, 60, 67
2, 34254, Note_on_c, 0, 67, 78
2, 34254, Note_on_c, 0, 55, 80
2, 34259, Note_on_c, 0, 52, 0
2, 34272, Control_c, 0, 64, 127
2, 34327, Note_on_c, 0, 55, 0
2, 34329, Note_on_c, 0, 52, 45
2, 34336, Note_on_c, 0, 67, 0
2, 34371, Note_on_c, 0, 60, 0
2, 34384, Note_on_c, 0, 72, 0
2, 34390, Control_c, 0, 64, 0
2, 34397, Note_on_c, 0, 52, 0
2, 34398, Note_on_c, 0, 65, 55
2, 34399, Note_on_c, 0, 60, 49
2, 34400, Note_on_c, 0, 72, 35
2, 34401, Note_on_c, 0, 53, 54
2, 34411, Control_c, 0, 64, 127
2, 34458, Note_on_c, 0, 44, 0
2, 34474, Note_on_c, 0, 44, 59
2, 34478, Note_on_c, 0, 65, 0
2, 34500, Note_on_c, 0, 60, 0
2, 34508, Note_on_c, 0, 53, 0
2, 34542, Note_on_c, 0, 64, 60
2, 34544, Note_on_c, 0, 60, 49
2, 34587, Note_on_c, 0, 44, 0
2, 34593, Note_on_c, 0, 72, 0
2, 34598, Note_on_c, 0, 64, 0
2, 34607, Note_on_c, 0, 60, 0
2, 34616, Note_on_c, 0, 63, 56
2, 34617, Note_on_c, 0, 44, 37
2, 34618, Note_on_c, 0, 60, 44
2, 34620, Note_on_c, 0, 54, 30
2, 34637, Note_on_c, 0, 60, 0
2, 34651, Note_on_c, 0, 63, 0
2, 34656, Note_on_c, 0, 54, 0
2, 34671, Note_on_c, 0, 44, 0
2, 34689, Note_on_c, 0, 61, 51
2, 34690, Note_on_c, 0, 43, 40
2, 34690, Note_on_c, 0, 58, 42
2, 34691, Control_c, 0, 64, 0
2, 34691, Note_on_c, 0, 53, 38
2, 34708, Control_c, 0, 64, 127
2, 34738, Note_on_c, 0, 43, 0
2, 34743, Note_on_c, 0, 58, 0
2, 34744, Note_on_c, 0, 53, 0
2, 34754, Note_on_c, 0, 61, 0
2, 34837, Note_on_c, 0, 73, 50
2, 34840, Note_on_c, 0, 65, 59
2, 34840, Note_on_c, 0, 60, 55
2, 34841, Note_on_c, 0, 68, 51
2, 34846, Control_c, 0, 64, 0
2, 34869, Note_on_c, 0, 73, 0
2, 34873, Note_on_c, 0, 65, 0
2, 34875, Note_on_c, 0, 68, 0
2, 34880, Note_on_c, 0, 60, 0
2, 34884, Note_on_c, 0, 58, 49
2, 34884, Note_on_c, 0, 72, 53
2, 34887, Note_on_c, 0, 65, 42
2, 34893, Note_on_c, 0, 65, 0
2, 34895, Note_on_c, 0, 58, 0
2, 34897, Note_on_c, 0, 72, 0
2, 34915, Control_c, 0, 64, 127
2, 34926, Note_on_c, 0, 70, 59
2, 34928, Note_on_c, 0, 49, 52
2, 34931, Note_on_c, 0, 62, 32
2, 34937, Note_on_c, 0, 62, 0
2, 34940, Note_on_c, 0, 70, 0
2, 34948, Note_on_c, 0, 49, 0
2, 34976, Note_on_c, 0, 68, 40
2, 34977, Note_on_c, 0, 58, 37
2, 34977, Note_on_c, 0, 48, 43
2, 34978, Note_on_c, 0, 61, 46
2, 34978, Control_c, 0, 64, 0
2, 34980, Note_on_c, 0, 55, 46
2, 34981, Note_on_c, 0, 64, 43
2, 34996, Control_c, 0, 64, 127
2, 34999, Note_on_c, 0, 55, 0
2, 35010, Note_on_c, 0, 48, 0
2, 35041, Note_on_c, 0, 48, 71
2, 35087, Note_on_c, 0, 64, 0
2, 35089, Note_on_c, 0, 68, 0
2, 35098, Note_on_c, 0, 58, 0
2, 35098, Note_on_c, 0, 61, 0
2, 35123, Note_on_c, 0, 58, 56
2, 35123, Note_on_c, 0, 61, 52
2, 35123, Note_on_c, 0, 67, 61
2, 35126, Note_on_c, 0, 64, 49
2, 35128, Control_c, 0, 64, 0
2, 35173, Note_on_c, 0, 36, 68
2, 35179, Note_on_c, 0, 48, 0
2, 35186, Control_c, 0, 64, 127
2, 35189, Note_on_c, 0, 36, 0
2, 35219, Note_on_c, 0, 36, 67
2, 35229, Note_on_c, 0, 64, 0
2, 35242, Note_on_c, 0, 58, 0
2, 35243, Note_on_c, 0, 61, 0
2, 35248, Note_on_c, 0, 67, 0
2, 35264, Note_on_c, 0, 36, 0
2, 35266, Control_c, 0, 64, 0
2, 35267, Note_on_c, 0, 56, 55
2, 35268, Note_on_c, 0, 29, 66
2, 35269, Note_on_c, 0, 65, 62
2, 35271, Note_on_c, 0, 60, 50
2, 35281, Control_c, 0, 64, 127
2, 35292, Note_on_c, 0, 56, 0
2, 35293, Note_on_c, 0, 29, 0
2, 35298, Note_on_c, 0, 60, 0
2, 35307, Note_on_c, 0, 65, 0
2, 35420, Note_on_c, 0, 63, 54
2, 35421, Note_on_c, 0, 60, 60
2, 35423, Note_on_c, 0, 56, 47
2, 35425, Note_on_c, 0, 63, 0
2, 35426, Note_on_c, 0, 60, 0
2, 35428, Control_c, 0, 64, 0
2, 35432, Note_on_c, 0, 56, 0
2, 35468, Control_c, 0, 64, 127
2, 35472, Note_on_c, 0, 68, 51
2, 35491, Note_on_c, 0, 68, 0
2, 35513, Note_on_c, 0, 72, 57
2, 35537, Note_on_c, 0, 72, 0
2, 35559, Note_on_c, 0, 70, 39
2, 35564, Note_on_c, 0, 49, 31
2, 35567, Note_on_c, 0, 59, 24
2, 35569, Control_c, 0, 64, 0
2, 35571, Note_on_c, 0, 71, 64
2, 35572, Note_on_c, 0, 70, 0
2, 35591, Note_on_c, 0, 70, 52
2, 35594, Note_on_c, 0, 71, 0
2, 35609, Note_on_c, 0, 68, 25
2, 35610, Note_on_c, 0, 70, 0
2, 35623, Note_on_c, 0, 65, 37
2, 35628, Note_on_c, 0, 68, 0
2, 35634, Note_on_c, 0, 65, 0
2, 35642, Note_on_c, 0, 70, 57
2, 35664, Note_on_c, 0, 49, 0
2, 35665, Control_c, 0, 64, 127
2, 35673, Note_on_c, 0, 59, 0
2, 35709, Control_c, 0, 64, 0
2, 35713, Note_on_c, 0, 63, 43
2, 35714, Note_on_c, 0, 53, 28
2, 35714, Note_on_c, 0, 59, 47
2, 35715, Control_c, 0, 64, 127
2, 35718, Note_on_c, 0, 56, 28
2, 35768, Note_on_c, 0, 68, 63
2, 35774, Note_on_c, 0, 63, 0
2, 35805, Note_on_c, 0, 59, 0
2, 35813, Note_on_c, 0, 53, 0
2, 35814, Note_on_c, 0, 56, 0
2, 35814, Note_on_c, 0, 65, 48
2, 35822, Note_on_c, 0, 70, 0
2, 35825, Note_on_c, 0, 65, 0
2, 35826, Note_on_c, 0, 68, 0
2, 35861, Note_on_c, 0, 72, 65
2, 35862, Note_on_c, 0, 46, 46
2, 35863, Note_on_c, 0, 61, 68
2, 35863, Note_on_c, 0, 56, 47
2, 35863, Note_on_c, 0, 65, 71
2, 35865, Control_c, 0, 64, 0
2, 35866, Note_on_c, 0, 68, 42
2, 35883, Control_c, 0, 64, 127
2, 35908, Note_on_c, 0, 72, 0
2, 35911, Note_on_c, 0, 65, 0
2, 35911, Note_on_c, 0, 61, 0
2, 35915, Note_on_c, 0, 68, 0
2, 35945, Note_on_c, 0, 46, 0
2, 35948, Note_on_c, 0, 56, 0
2, 35961, Note_on_c, 0, 75, 74
2, 35983, Note_on_c, 0, 75, 0
2, 36055, Control_c, 0, 64, 0
2, 36064, Note_on_c, 0, 77, 67
2, 36064, Note_on_c, 0, 70, 70
2, 36064, Note_on_c, 0, 67, 73
2, 36065, Note_on_c, 0, 73, 34
2, 36065, Note_on_c, 0, 64, 52
2, 36066, Note_on_c, 0, 61, 34
2, 36067, Note_on_c, 0, 58, 42
2, 36071, Note_on_c, 0, 64, 0
2, 36072, Note_on_c, 0, 73, 0
2, 36072, Note_on_c, 0, 61, 0
2, 36073, Note_on_c, 0, 70, 0
2, 36074, Note_on_c, 0, 67, 0
2, 36075, Note_on_c, 0, 77, 0
2, 36078, Note_on_c, 0, 58, 0
2, 36106, Control_c, 0, 64, 127
2, 36114, Note_on_c, 0, 71, 58
2, 36114, Note_on_c, 0, 45, 39
2, 36114, Note_on_c, 0, 55, 41
2, 36129, Note_on_c, 0, 55, 0
2, 36131, Note_on_c, 0, 45, 0
2, 36143, Note_on_c, 0, 71, 0
2, 36159, Control_c, 0, 64, 0
2, 36165, Note_on_c, 0, 51, 31
2, 36165, Note_on_c, 0, 44, 48
2, 36167, Note_on_c, 0, 72, 38
2, 36168, Note_on_c, 0, 67, 50
2, 36168, Note_on_c, 0, 60, 48
2, 36180, Control_c, 0, 64, 127
2, 36196, Note_on_c, 0, 51, 0
2, 36207, Note_on_c, 0, 52, 51
2, 36214, Control_c, 0, 64, 0
2, 36221, Note_on_c, 0, 67, 0
2, 36227, Control_c, 0, 64, 127
2, 36254, Note_on_c, 0, 60, 0
2, 36300, Note_on_c, 0, 52, 0
2, 36308, Note_on_c, 0, 55, 56
2, 36309, Note_on_c, 0, 60, 39
2, 36310, Note_on_c, 0, 64, 39
2, 36315, Control_c, 0, 64, 0
2, 36341, Control_c, 0, 64, 127
2, 36343, Note_on_c, 0, 55, 0
2, 36357, Note_on_c, 0, 53, 57
2, 36385, Note_on_c, 0, 64, 0
2, 36386, Note_on_c, 0, 44, 0
2, 36386, Note_on_c, 0, 72, 0
2, 36397, Note_on_c, 0, 60, 0
2, 36399, Note_on_c, 0, 44, 39
2, 36403, Note_on_c, 0, 51, 38
2, 36426, Note_on_c, 0, 53, 0
2, 36440, Note_on_c, 0, 44, 0
2, 36444, Note_on_c, 0, 51, 0
2, 36450, Note_on_c, 0, 57, 48
2, 36451, Control_c, 0, 64, 0
2, 36451, Note_on_c, 0, 62, 59
2, 36452, Note_on_c, 0, 59, 53
2, 36453, Note_on_c, 0, 43, 45
2, 36454, Note_on_c, 0, 50, 36
2, 36462, Control_c, 0, 64, 127
2, 36479, Note_on_c, 0, 57, 0
2, 36483, Note_on_c, 0, 59, 0
2, 36486, Note_on_c, 0, 62, 0
2, 36486, Note_on_c, 0, 43, 0
2, 36489, Note_on_c, 0, 50, 0
2, 36538, Note_on_c, 0, 71, 72
2, 36539, Note_on_c, 0, 64, 75
2, 36539, Note_on_c, 0, 62, 78
2, 36539, Note_on_c, 0, 67, 69
2, 36540, Note_on_c, 0, 55, 74
2, 36555, Note_on_c, 0, 62, 0
2, 36557, Note_on_c, 0, 64, 0
2, 36560, Note_on_c, 0, 67, 0
2, 36563, Note_on_c, 0, 71, 0
2, 36594, Control_c, 0, 64, 0
2, 36594, Note_on_c, 0, 74, 73
2, 36595, Note_on_c, 0, 67, 87
2, 36595, Note_on_c, 0, 64, 84
2, 36595, Note_on_c, 0, 71, 80
2, 36596, Note_on_c, 0, 59, 74
2, 36597, Note_on_c, 0, 55, 0
2, 36608, Control_c, 0, 64, 127
2, 36627, Note_on_c, 0, 64, 0
2, 36630, Note_on_c, 0, 67, 0
2, 36634, Note_on_c, 0, 74, 0
2, 36637, Note_on_c, 0, 71, 0
2, 36637, Note_on_c, 0, 59, 0
2, 36682, Note_on_c, 0, 76, 83
2, 36684, Note_on_c, 0, 71, 85
2, 36685, Note_on_c, 0, 67, 83
2, 36699, Note_on_c, 0, 71, 0
2, 36700, Note_on_c, 0, 76, 0
2, 36701, Note_on_c, 0, 67, 0
2, 36742, Note_on_c, 0, 71, 62
2, 36743, Note_on_c, 0, 67, 66
2, 36743, Note_on_c, 0, 66, 48
2, 36744, Note_on_c, 0, 62, 45
2, 36745, Control_c, 0, 64, 0
2, 36745, Note_on_c, 0, 52, 44
2, 36747, Note_on_c, 0, 59, 41
2, 36768, Control_c, 0, 64, 127
2, 36782, Note_on_c, 0, 59, 0
2, 36788, Note_on_c, 0, 52, 0
2, 36887, Note_on_c, 0, 40, 46
2, 36890, Note_on_c, 0, 47, 48
2, 36892, Note_on_c, 0, 55, 73
2, 36895, Control_c, 0, 64, 0
2, 36904, Note_on_c, 0, 67, 0
2, 36920, Control_c, 0, 64, 127
2, 36925, Note_on_c, 0, 66, 0
2, 36947, Note_on_c, 0, 62, 0
2, 36952, Note_on_c, 0, 40, 0
2, 36962, Note_on_c, 0, 71, 0
2, 36963, Note_on_c, 0, 47, 0
2, 36972, Note_on_c, 0, 55, 0
2, 36987, Note_on_c, 0, 67, 75
2, 37001, Note_on_c, 0, 67, 0
2, 37019, Note_on_c, 0, 56, 33
2, 37031, Note_on_c, 0, 56, 0
2, 37046, Note_on_c, 0, 56, 20
2, 37047, Note_on_c, 0, 75, 78
2, 37048, Note_on_c, 0, 63, 64
2, 37048, Note_on_c, 0, 78, 71
2, 37048, Note_on_c, 0, 83, 77
2, 37049, Note_on_c, 0, 71, 82
2, 37050, Note_on_c, 0, 56, 0
2, 37052, Note_on_c, 0, 68, 44
2, 37053, Note_on_c, 0, 81, 38
2, 37053, Control_c, 0, 64, 0
2, 37055, Note_on_c, 0, 57, 24
2, 37065, Note_on_c, 0, 78, 0
2, 37071, Note_on_c, 0, 76, 40
2, 37073, Note_on_c, 0, 75, 0
2, 37079, Note_on_c, 0, 79, 22
2, 37081, Note_on_c, 0, 57, 0
2, 37081, Control_c, 0, 64, 127
2, 37082, Note_on_c, 0, 68, 0
2, 37084, Note_on_c, 0, 63, 0
2, 37089, Note_on_c, 0, 76, 0
2, 37091, Note_on_c, 0, 79, 0
2, 37097, Control_c, 0, 64, 0
2, 37104, Note_on_c, 0, 71, 0
2, 37106, Note_on_c, 0, 83, 0
2, 37112, Note_on_c, 0, 81, 0
2, 37134, Note_on_c, 0, 75, 60
2, 37135, Note_on_c, 0, 78, 42
2, 37135, Note_on_c, 0, 71, 65
2, 37136, Note_on_c, 0, 83, 60
2, 37136, Note_on_c, 0, 61, 48
2, 37137, Note_on_c, 0, 66, 48
2, 37138, Note_on_c, 0, 55, 59
2, 37139, Control_c, 0, 64, 127
2, 37151, Note_on_c, 0, 75, 0
2, 37152, Note_on_c, 0, 76, 43
2, 37159, Note_on_c, 0, 55, 0
2, 37160, Note_on_c, 0, 71, 0
2, 37162, Note_on_c, 0, 83, 0
2, 37163, Note_on_c, 0, 78, 0
2, 37171, Note_on_c, 0, 66, 0
2, 37171, Note_on_c, 0, 76, 0
2, 37175, Note_on_c, 0, 61, 0
2, 37183, Control_c, 0, 64, 0
2, 37188, Note_on_c, 0, 82, 53
2, 37189, Note_on_c, 0, 65, 44
2, 37189, Note_on_c, 0, 70, 50
2, 37190, Note_on_c, 0, 54, 29
2, 37191, Note_on_c, 0, 76, 45
2, 37191, Note_on_c, 0, 60, 48
2, 37201, Control_c, 0, 64, 127
2, 37233, Note_on_c, 0, 76, 0
2, 37236, Note_on_c, 0, 82, 0
2, 37239, Note_on_c, 0, 70, 0
2, 37242, Note_on_c, 0, 65, 0
2, 37250, Note_on_c, 0, 54, 0
2, 37252, Note_on_c, 0, 60, 0
2, 37277, Note_on_c, 0, 54, 35
2, 37278, Note_on_c, 0, 81, 40
2, 37281, Note_on_c, 0, 76, 35
2, 37282, Note_on_c, 0, 69, 41
2, 37290, Note_on_c, 0, 76, 0
2, 37293, Note_on_c, 0, 81, 0
2, 37305, Note_on_c, 0, 69, 0
2, 37308, Note_on_c, 0, 54, 0
2, 37331, Control_c, 0, 64, 0
2, 37334, Note_on_c, 0, 64, 35
2, 37334, Note_on_c, 0, 79, 36
2, 37336, Note_on_c, 0, 53, 31
2, 37337, Note_on_c, 0, 59, 38
2, 37337, Note_on_c, 0, 67, 24
2, 37339, Note_on_c, 0, 74, 32
2, 37347, Control_c, 0, 64, 127
2, 37355, Note_on_c, 0, 59, 0
2, 37355, Note_on_c, 0, 64, 0
2, 37359, Note_on_c, 0, 53, 0
2, 37378, Note_on_c, 0, 79, 0
2, 37380, Note_on_c, 0, 74, 0
2, 37397, Note_on_c, 0, 67, 0
2, 37429, Note_on_c, 0, 46, 38
2, 37480, Note_on_c, 0, 56, 38
2, 37482, Control_c, 0, 64, 0
2, 37497, Control_c, 0, 64, 127
2, 37528, Note_on_c, 0, 70, 43
2, 37530, Note_on_c, 0, 82, 28
2, 37544, Note_on_c, 0, 56, 0
2, 37553, Note_on_c, 0, 46, 0
2, 37585, Note_on_c, 0, 70, 0
2, 37587, Note_on_c, 0, 82, 0
2, 37589, Note_on_c, 0, 46, 19
2, 37605, Note_on_c, 0, 46, 0
2, 37627, Control_c, 0, 64, 0
2, 37628, Note_on_c, 0, 79, 37
2, 37629, Note_on_c, 0, 84, 44
2, 37629, Note_on_c, 0, 46, 28
2, 37629, Note_on_c, 0, 39, 35
2, 37632, Note_on_c, 0, 72, 16
2, 37640, Control_c, 0, 64, 127
2, 37659, Note_on_c, 0, 39, 0
2, 37665, Note_on_c, 0, 46, 0
2, 37680, Note_on_c, 0, 84, 0
2, 37692, Note_on_c, 0, 72, 0
2, 37695, Note_on_c, 0, 79, 0
2, 37719, Note_on_c, 0, 84, 61
2, 37770, Note_on_c, 0, 63, 38
2, 37776, Note_on_c, 0, 84, 0
2, 37776, Note_on_c, 0, 60, 33
2, 37780, Note_on_c, 0, 58, 23
2, 37788, Note_on_c, 0, 60, 0
2, 37801, Note_on_c, 0, 63, 0
2, 37806, Note_on_c, 0, 58, 0
2, 37915, Note_on_c, 0, 75, 62
2, 37918, Control_c, 0, 64, 0
2, 37920, Note_on_c, 0, 72, 53
2, 37921, Note_on_c, 0, 68, 67
2, 37922, Note_on_c, 0, 48, 45
2, 37923, Note_on_c, 0, 58, 39
2, 37924, Note_on_c, 0, 64, 61
2, 37936, Control_c, 0, 64, 127
2, 37938, Note_on_c, 0, 64, 0
2, 37944, Note_on_c, 0, 68, 0
2, 37947, Note_on_c, 0, 72, 0
2, 37950, Note_on_c, 0, 75, 0
2, 37954, Note_on_c, 0, 48, 0
2, 37969, Note_on_c, 0, 58, 0
2, 37979, Note_on_c, 0, 87, 74
2, 37994, Note_on_c, 0, 87, 0
2, 38070, Note_on_c, 0, 68, 44
2, 38070, Note_on_c, 0, 72, 41
2, 38072, Note_on_c, 0, 64, 41
2, 38075, Note_on_c, 0, 58, 33
2, 38103, Note_on_c, 0, 58, 0
2, 38108, Note_on_c, 0, 64, 0
2, 38110, Note_on_c, 0, 68, 0
2, 38115, Note_on_c, 0, 72, 0
2, 38125, Note_on_c, 0, 68, 39
2, 38146, Note_on_c, 0, 68, 0
2, 38219, Note_on_c, 0, 63, 37
2, 38219, Note_on_c, 0, 56, 27
2, 38220, Note_on_c, 0, 41, 36
2, 38221, Note_on_c, 0, 48, 27
2, 38221, Note_on_c, 0, 53, 33
2, 38223, Control_c, 0, 64, 0
2, 38243, Control_c, 0, 64, 127
2, 38277, Note_on_c, 0, 56, 0
2, 38282, Note_on_c, 0, 48, 0
2, 38282, Note_on_c, 0, 41, 0
2, 38283, Note_on_c, 0, 53, 0
2, 38290, Note_on_c, 0, 70, 57
2, 38300, Note_on_c, 0, 63, 0
2, 38351, Note_on_c, 0, 70, 0
2, 38365, Note_on_c, 0, 63, 45
2, 38367, Note_on_c, 0, 56, 37
2, 38368, Note_on_c, 0, 53, 38
2, 38369, Note_on_c, 0, 60, 42
2, 38409, Note_on_c, 0, 70, 90
2, 38434, Note_on_c, 0, 63, 0
2, 38446, Note_on_c, 0, 53, 0
2, 38450, Note_on_c, 0, 70, 0
2, 38451, Note_on_c, 0, 60, 0
2, 38456, Note_on_c, 0, 75, 85
2, 38462, Note_on_c, 0, 56, 0
2, 38476, Note_on_c, 0, 75, 0
2, 38485, Note_on_c, 0, 75, 65
2, 38502, Note_on_c, 0, 75, 0
2, 38517, Note_on_c, 0, 74, 67
2, 38518, Note_on_c, 0, 65, 40
2, 38519, Note_on_c, 0, 56, 46
2, 38519, Note_on_c, 0, 70, 60
2, 38527, Control_c, 0, 64, 0
2, 38555, Control_c, 0, 64, 127
2, 38564, Note_on_c, 0, 46, 51
2, 38595, Note_on_c, 0, 74, 0
2, 38608, Note_on_c, 0, 65, 0
2, 38613, Note_on_c, 0, 70, 0
2, 38614, Note_on_c, 0, 56, 0
2, 38629, Note_on_c, 0, 72, 54
2, 38631, Note_on_c, 0, 67, 68
2, 38635, Note_on_c, 0, 62, 47
2, 38651, Note_on_c, 0, 67, 0
2, 38656, Note_on_c, 0, 72, 0
2, 38657, Note_on_c, 0, 62, 0
2, 38671, Note_on_c, 0, 70, 56
2, 38671, Note_on_c, 0, 67, 57
2, 38672, Note_on_c, 0, 56, 45
2, 38674, Control_c, 0, 64, 0
2, 38674, Note_on_c, 0, 62, 55
2, 38697, Note_on_c, 0, 46, 0
2, 38697, Control_c, 0, 64, 127
2, 38713, Note_on_c, 0, 56, 0
2, 38720, Note_on_c, 0, 56, 29
2, 38721, Note_on_c, 0, 44, 56
2, 38727, Note_on_c, 0, 67, 0
2, 38755, Note_on_c, 0, 70, 0
2, 38772, Note_on_c, 0, 44, 0
2, 38775, Note_on_c, 0, 62, 0
2, 38787, Note_on_c, 0, 44, 48
2, 38795, Note_on_c, 0, 56, 0
2, 38817, Note_on_c, 0, 44, 0
2, 38826, Note_on_c, 0, 58, 37
2, 38827, Note_on_c, 0, 43, 42
2, 38827, Note_on_c, 0, 67, 41
2, 38828, Note_on_c, 0, 53, 38
2, 38828, Note_on_c, 0, 62, 46
2, 38829, Control_c, 0, 64, 0
2, 38851, Control_c, 0, 64, 127
2, 38871, Note_on_c, 0, 67, 0
2, 38883, Note_on_c, 0, 67, 64
2, 38904, Note_on_c, 0, 67, 0
2, 38920, Note_on_c, 0, 67, 58
2, 38941, Note_on_c, 0, 67, 0
2, 38944, Note_on_c, 0, 58, 0
2, 38946, Note_on_c, 0, 62, 0
2, 38951, Note_on_c, 0, 67, 74
2, 38964, Note_on_c, 0, 43, 0
2, 38973, Note_on_c, 0, 67, 0
2, 38977, Note_on_c, 0, 53, 0
2, 38983, Note_on_c, 0, 67, 70
2, 38986, Note_on_c, 0, 58, 68
2, 38986, Note_on_c, 0, 48, 47
2, 38986, Note_on_c, 0, 63, 64
2, 38987, Control_c, 0, 64, 0
2, 39005, Control_c, 0, 64, 127
2, 39013, Note_on_c, 0, 67, 0
2, 39024, Note_on_c, 0, 67, 67
2, 39048, Note_on_c, 0, 67, 0
2, 39059, Note_on_c, 0, 67, 63
2, 39075, Note_on_c, 0, 48, 0
2, 39079, Note_on_c, 0, 67, 0
2, 39093, Note_on_c, 0, 58, 0
2, 39094, Note_on_c, 0, 63, 0
2, 39097, Note_on_c, 0, 67, 64
2, 39129, Note_on_c, 0, 67, 0
2, 39133, Note_on_c, 0, 67, 20
2, 39137, Note_on_c, 0, 46, 38
2, 39137, Note_on_c, 0, 61, 64
2, 39137, Note_on_c, 0, 56, 59
2, 39143, Control_c, 0, 64, 0
2, 39165, Note_on_c, 0, 67, 0
2, 39171, Control_c, 0, 64, 127
2, 39177, Note_on_c, 0, 67, 73
2, 39200, Note_on_c, 0, 67, 0
2, 39207, Note_on_c, 0, 61, 0
2, 39208, Note_on_c, 0, 56, 0
2, 39212, Note_on_c, 0, 67, 66
2, 39213, Note_on_c, 0, 46, 0
2, 39231, Note_on_c, 0, 67, 0
2, 39249, Note_on_c, 0, 67, 50
2, 39260, Note_on_c, 0, 67, 0
2, 39292, Note_on_c, 0, 67, 56
2, 39293, Note_on_c, 0, 45, 46
2, 39293, Note_on_c, 0, 59, 54
2, 39294, Note_on_c, 0, 33, 48
2, 39301, Control_c, 0, 64, 0
2, 39326, Note_on_c, 0, 67, 0
2, 39329, Control_c, 0, 64, 127
2, 39338, Note_on_c, 0, 67, 59
2, 39358, Note_on_c, 0, 67, 0
2, 39375, Note_on_c, 0, 67, 62
2, 39380, Note_on_c, 0, 45, 0
2, 39382, Note_on_c, 0, 59, 0
2, 39383, Note_on_c, 0, 33, 0
2, 39392, Note_on_c, 0, 67, 0
2, 39411, Note_on_c, 0, 67, 60
2, 39429, Note_on_c, 0, 67, 0
2, 39450, Control_c, 0, 64, 0
2, 39451, Note_on_c, 0, 67, 42
2, 39453, Note_on_c, 0, 55, 41
2, 39454, Note_on_c, 0, 60, 56
2, 39455, Note_on_c, 0, 32, 49
2, 39455, Note_on_c, 0, 63, 34
2, 39458, Note_on_c, 0, 44, 23
2, 39468, Control_c, 0, 64, 127
2, 39471, Note_on_c, 0, 55, 0
2, 39479, Note_on_c, 0, 60, 0
2, 39489, Note_on_c, 0, 63, 0
2, 39495, Note_on_c, 0, 32, 0
2, 39497, Note_on_c, 0, 67, 0
2, 39505, Note_on_c, 0, 44, 0
2, 39514, Note_on_c, 0, 65, 74
2, 39536, Note_on_c, 0, 65, 0
2, 39552, Note_on_c, 0, 65, 70
2, 39572, Note_on_c, 0, 65, 0
2, 39603, Note_on_c, 0, 72, 74
2, 39603, Note_on_c, 0, 65, 80
2, 39606, Note_on_c, 0, 55, 49
2, 39634, Note_on_c, 0, 55, 0
2, 39635, Note_on_c, 0, 72, 0
2, 39651, Note_on_c, 0, 65, 0
2, 39655, Note_on_c, 0, 72, 66
2, 39656, Note_on_c, 0, 65, 30
2, 39683, Note_on_c, 0, 72, 0
2, 39691, Note_on_c, 0, 65, 0
2, 39699, Note_on_c, 0, 70, 64
2, 39713, Note_on_c, 0, 51, 28
2, 39717, Note_on_c, 0, 70, 0
2, 39725, Note_on_c, 0, 51, 0
2, 39807, Note_on_c, 0, 67, 64
2, 39808, Note_on_c, 0, 43, 50
2, 39810, Note_on_c, 0, 63, 54
2, 39810, Control_c, 0, 64, 0
2, 39830, Control_c, 0, 64, 127
2, 39853, Note_on_c, 0, 43, 0
2, 39854, Note_on_c, 0, 67, 0
2, 39864, Note_on_c, 0, 63, 0
2, 39950, Note_on_c, 0, 63, 56
2, 39952, Note_on_c, 0, 52, 57
2, 39952, Note_on_c, 0, 56, 50
2, 39953, Note_on_c, 0, 42, 49
2, 39956, Control_c, 0, 64, 0
2, 39978, Control_c, 0, 64, 127
2, 39983, Note_on_c, 0, 52, 0
2, 39988, Note_on_c, 0, 63, 0
2, 39993, Note_on_c, 0, 60, 57
2, 40002, Note_on_c, 0, 56, 0
2, 40015, Note_on_c, 0, 60, 0
2, 40024, Note_on_c, 0, 42, 0
2, 40086, Control_c, 0, 64, 0
2, 40089, Note_on_c, 0, 63, 44
2, 40091, Note_on_c, 0, 57, 69
2, 40092, Note_on_c, 0, 41, 46
2, 40092, Note_on_c, 0, 51, 38
2, 40104, Note_on_c, 0, 59, 20
2, 40111, Note_on_c, 0, 59, 0
2, 40115, Control_c, 0, 64, 127
2, 40119, Note_on_c, 0, 57, 0
2, 40127, Note_on_c, 0, 63, 0
2, 40132, Note_on_c, 0, 41, 0
2, 40141, Note_on_c, 0, 51, 0
2, 40168, Note_on_c, 0, 75, 62
2, 40207, Note_on_c, 0, 69, 49
2, 40208, Note_on_c, 0, 71, 60
2, 40250, Note_on_c, 0, 63, 46
2, 40256, Note_on_c, 0, 71, 0
2, 40256, Note_on_c, 0, 75, 0
2, 40273, Note_on_c, 0, 69, 0
2, 40290, Note_on_c, 0, 63, 0
2, 40295, Note_on_c, 0, 79, 65
2, 40339, Note_on_c, 0, 65, 45
2, 40378, Note_on_c, 0, 65, 0
2, 40386, Note_on_c, 0, 75, 62
2, 40386, Note_on_c, 0, 71, 51
2, 40391, Note_on_c, 0, 79, 0
2, 40426, Note_on_c, 0, 63, 42
2, 40434, Note_on_c, 0, 71, 0
2, 40454, Note_on_c, 0, 63, 0
2, 40472, Note_on_c, 0, 60, 46
2, 40476, Note_on_c, 0, 75, 0
2, 40506, Note_on_c, 0, 60, 0
2, 40516, Note_on_c, 0, 53, 36
2, 40523, Note_on_c, 0, 53, 0
2, 40564, Note_on_c, 0, 68, 36
2, 40564, Note_on_c, 0, 56, 33
2, 40564, Note_on_c, 0, 46, 42
2, 40565, Note_on_c, 0, 65, 35
2, 40566, Note_on_c, 0, 72, 29
2, 40567, Control_c, 0, 64, 0
2, 40588, Control_c, 0, 64, 127
2, 40603, Note_on_c, 0, 65, 0
2, 40612, Note_on_c, 0, 68, 0
2, 40616, Note_on_c, 0, 72, 0
2, 40616, Note_on_c, 0, 46, 0
2, 40620, Note_on_c, 0, 56, 0
2, 40660, Note_on_c, 0, 75, 85
2, 40757, Note_on_c, 0, 75, 0
2, 40759, Note_on_c, 0, 67, 71
2, 40760, Note_on_c, 0, 77, 72
2, 40761, Note_on_c, 0, 63, 48
2, 40763, Note_on_c, 0, 56, 25
2, 40794, Note_on_c, 0, 56, 0
2, 40795, Note_on_c, 0, 67, 0
2, 40801, Note_on_c, 0, 77, 0
2, 40802, Note_on_c, 0, 63, 0
2, 40802, Note_on_c, 0, 75, 79
2, 40841, Note_on_c, 0, 75, 0
2, 40843, Control_c, 0, 64, 0
2, 40846, Note_on_c, 0, 74, 60
2, 40846, Note_on_c, 0, 66, 42
2, 40847, Note_on_c, 0, 62, 46
2, 40851, Note_on_c, 0, 56, 23
2, 40862, Control_c, 0, 64, 127
2, 40882, Note_on_c, 0, 66, 0
2, 40884, Note_on_c, 0, 62, 0
2, 40889, Note_on_c, 0, 74, 0
2, 40889, Note_on_c, 0, 80, 55
2, 40894, Note_on_c, 0, 56, 0
2, 40989, Note_on_c, 0, 46, 55
2, 40990, Note_on_c, 0, 56, 56
2, 41013, Note_on_c, 0, 56, 0
2, 41014, Note_on_c, 0, 80, 0
2, 41015, Note_on_c, 0, 46, 0
2, 41037, Note_on_c, 0, 72, 32
2, 41070, Note_on_c, 0, 72, 0
2, 41082, Note_on_c, 0, 74, 50
2, 41114, Note_on_c, 0, 74, 0
2, 41133, Control_c, 0, 64, 0
2, 41135, Note_on_c, 0, 75, 47
2, 41136, Note_on_c, 0, 46, 37
2, 41137, Note_on_c, 0, 39, 32
2, 41151, Control_c, 0, 64, 127
2, 41169, Note_on_c, 0, 75, 0
2, 41176, Note_on_c, 0, 39, 0
2, 41179, Note_on_c, 0, 46, 0
2, 41232, Note_on_c, 0, 79, 83
2, 41275, Note_on_c, 0, 79, 0
2, 41284, Note_on_c, 0, 66, 45
2, 41285, Note_on_c, 0, 82, 64
2, 41287, Note_on_c, 0, 62, 49
2, 41297, Note_on_c, 0, 66, 0
2, 41300, Note_on_c, 0, 62, 0
2, 41342, Note_on_c, 0, 82, 0
2, 41386, Note_on_c, 0, 85, 85
2, 41387, Note_on_c, 0, 73, 77
2, 41387, Note_on_c, 0, 78, 73
2, 41388, Note_on_c, 0, 82, 59
2, 41427, Control_c, 0, 64, 0
2, 41432, Note_on_c, 0, 46, 43
2, 41432, Note_on_c, 0, 56, 36
2, 41451, Control_c, 0, 64, 127
2, 41477, Note_on_c, 0, 82, 0
2, 41483, Note_on_c, 0, 46, 0
2, 41489, Note_on_c, 0, 56, 0
2, 41507, Note_on_c, 0, 73, 0
2, 41508, Note_on_c, 0, 78, 0
2, 41519, Note_on_c, 0, 85, 0
2, 41532, Note_on_c, 0, 73, 15
2, 41534, Note_on_c, 0, 82, 27
2, 41552, Note_on_c, 0, 82, 0
2, 41555, Note_on_c, 0, 73, 0
2, 41583, Note_on_c, 0, 86, 56
2, 41584, Note_on_c, 0, 66, 36
2, 41584, Note_on_c, 0, 74, 35
2, 41585, Control_c, 0, 64, 0
2, 41585, Note_on_c, 0, 82, 31
2, 41585, Note_on_c, 0, 79, 39
2, 41585, Note_on_c, 0, 62, 39
2, 41587, Note_on_c, 0, 56, 26
2, 41607, Control_c, 0, 64, 127
2, 41627, Note_on_c, 0, 66, 0
2, 41628, Note_on_c, 0, 62, 0
2, 41636, Note_on_c, 0, 56, 0
2, 41640, Note_on_c, 0, 74, 0
2, 41668, Note_on_c, 0, 79, 0
2, 41673, Note_on_c, 0, 86, 0
2, 41679, Note_on_c, 0, 74, 47
2, 41684, Note_on_c, 0, 82, 0
2, 41689, Note_on_c, 0, 74, 0
2, 41729, Control_c, 0, 64, 0
2, 41730, Note_on_c, 0, 87, 55
2, 41730, Note_on_c, 0, 75, 37
2, 41730, Note_on_c, 0, 39, 35
2, 41731, Note_on_c, 0, 46, 31
2, 41732, Note_on_c, 0, 79, 36
2, 41747, Control_c, 0, 64, 127
2, 41763, Note_on_c, 0, 87, 0
2, 41765, Note_on_c, 0, 79, 0
2, 41777, Note_on_c, 0, 75, 0
2, 41803, Note_on_c, 0, 39, 0
2, 41804, Note_on_c, 0, 46, 0
2, 41893, Note_on_c, 0, 63, 63
2, 41893, Note_on_c, 0, 58, 71
2, 41893, Note_on_c, 0, 42, 63
2, 41894, Note_on_c, 0, 52, 69
2, 41895, Note_on_c, 0, 30, 46
2, 41900, Control_c, 0, 64, 0
2, 41928, Control_c, 0, 64, 127
2, 41981, Note_on_c, 0, 42, 0
2, 41983, Note_on_c, 0, 30, 0
2, 42002, Note_on_c, 0, 52, 0
2, 42015, Note_on_c, 0, 58, 0
2, 42016, Note_on_c, 0, 63, 0
2, 42062, Note_on_c, 0, 63, 46
2, 42064, Control_c, 0, 64, 0
2, 42064, Note_on_c, 0, 51, 39
2, 42064, Note_on_c, 0, 41, 38
2, 42064, Note_on_c, 0, 56, 47
2, 42065, Note_on_c, 0, 29, 36
2, 42090, Control_c, 0, 64, 127
2, 42111, Note_on_c, 0, 51, 0
2, 42118, Note_on_c, 0, 29, 0
2, 42128, Note_on_c, 0, 41, 0
2, 42132, Note_on_c, 0, 56, 0
2, 42141, Note_on_c, 0, 63, 0
2, 42214, Note_on_c, 0, 71, 46
2, 42215, Note_on_c, 0, 62, 45
2, 42215, Note_on_c, 0, 67, 49
2, 42215, Note_on_c, 0, 46, 29
2, 42216, Note_on_c, 0, 56, 28
2, 42219, Control_c, 0, 64, 0
2, 42234, Control_c, 0, 64, 127
2, 42250, Note_on_c, 0, 56, 0
2, 42255, Note_on_c, 0, 62, 0
2, 42259, Note_on_c, 0, 46, 0
2, 42268, Note_on_c, 0, 67, 0
2, 42275, Note_on_c, 0, 71, 0
2, 42364, Note_on_c, 0, 39, 34
2, 42364, Note_on_c, 0, 46, 33
2, 42365, Note_on_c, 0, 84, 47
2, 42367, Note_on_c, 0, 72, 24
2, 42370, Control_c, 0, 64, 0
2, 42378, Note_on_c, 0, 84, 0
2, 42379, Note_on_c, 0, 72, 0
2, 42379, Note_on_c, 0, 39, 0
2, 42380, Note_on_c, 0, 46, 0
2, 42442, Note_on_c, 0, 84, 48
2, 42445, Note_on_c, 0, 72, 25
2, 42469, Note_on_c, 0, 84, 0
2, 42473, Note_on_c, 0, 72, 0
2, 42494, Note_on_c, 0, 82, 40
2, 42508, Note_on_c, 0, 82, 0
2, 42513, Note_on_c, 0, 63, 32
2, 42518, Note_on_c, 0, 72, 27
2, 42519, Note_on_c, 0, 84, 36
2, 42519, Note_on_c, 0, 58, 31
2, 42523, Note_on_c, 0, 63, 0
2, 42532, Note_on_c, 0, 72, 0
2, 42532, Note_on_c, 0, 84, 0
2, 42535, Note_on_c, 0, 58, 0
2, 42593, Note_on_c, 0, 84, 33
2, 42593, Note_on_c, 0, 72, 25
2, 42617, Note_on_c, 0, 84, 0
2, 42619, Note_on_c, 0, 72, 0
2, 42645, Note_on_c, 0, 82, 34
2, 42661, Note_on_c, 0, 82, 0
2, 42667, Note_on_c, 0, 41, 44
2, 42668, Note_on_c, 0, 51, 33
2, 42669, Note_on_c, 0, 72, 31
2, 42670, Note_on_c, 0, 84, 37
2, 42702, Note_on_c, 0, 84, 0
2, 42704, Note_on_c, 0, 41, 0
2, 42707, Note_on_c, 0, 72, 0
2, 42715, Note_on_c, 0, 51, 0
2, 42720, Note_on_c, 0, 72, 37
2, 42722, Note_on_c, 0, 84, 48
2, 42728, Note_on_c, 0, 84, 0
2, 42732, Note_on_c, 0, 72, 0
2, 42824, Note_on_c, 0, 63, 37
2, 42826, Note_on_c, 0, 53, 35
2, 42826, Note_on_c, 0, 60, 41
2, 42826, Note_on_c, 0, 56, 43
2, 42833, Note_on_c, 0, 60, 0
2, 42835, Note_on_c, 0, 63, 0
2, 42835, Note_on_c, 0, 53, 0
2, 42842, Note_on_c, 0, 56, 0
2, 42902, Note_on_c, 0, 82, 92
2, 42918, Note_on_c, 0, 82, 0
2, 42928, Note_on_c, 0, 84, 83
2, 42941, Note_on_c, 0, 84, 0
2, 42955, Note_on_c, 0, 85, 91
2, 42962, Control_c, 0, 64, 127
2, 42973, Note_on_c, 0, 85, 0
2, 42979, Control_c, 0, 64, 0
2, 42984, Note_on_c, 0, 73, 63
2, 42985, Note_on_c, 0, 43, 58
2, 42985, Note_on_c, 0, 85, 38
2, 42990, Note_on_c, 0, 86, 63
2, 42996, Note_on_c, 0, 85, 0
2, 42997, Note_on_c, 0, 73, 0
2, 42999, Note_on_c, 0, 74, 55
2, 42999, Note_on_c, 0, 84, 15
2, 43009, Note_on_c, 0, 43, 0
2, 43012, Note_on_c, 0, 86, 0
2, 43013, Note_on_c, 0, 84, 0
2, 43016, Note_on_c, 0, 74, 0
2, 43034, Note_on_c, 0, 82, 38
2, 43036, Note_on_c, 0, 70, 55
2, 43047, Note_on_c, 0, 70, 0
2, 43048, Note_on_c, 0, 82, 0
2, 43068, Note_on_c, 0, 79, 37
2, 43070, Note_on_c, 0, 67, 51
2, 43084, Note_on_c, 0, 67, 0
2, 43086, Note_on_c, 0, 79, 0
2, 43088, Control_c, 0, 64, 127
2, 43094, Note_on_c, 0, 75, 46
2, 43106, Note_on_c, 0, 75, 0
2, 43116, Note_on_c, 0, 67, 66
2, 43118, Note_on_c, 0, 79, 53
2, 43120, Control_c, 0, 64, 0
2, 43127, Note_on_c, 0, 67, 0
2, 43130, Note_on_c, 0, 79, 0
2, 43144, Note_on_c, 0, 62, 38
2, 43144, Note_on_c, 0, 58, 40
2, 43147, Control_c, 0, 64, 127
2, 43180, Note_on_c, 0, 62, 0
2, 43191, Note_on_c, 0, 58, 0
2, 43305, Note_on_c, 0, 44, 34
2, 43305, Note_on_c, 0, 55, 36
2, 43317, Control_c, 0, 64, 0
2, 43357, Note_on_c, 0, 60, 20
2, 43362, Note_on_c, 0, 60, 0
2, 43364, Note_on_c, 0, 63, 37
2, 43368, Note_on_c, 0, 44, 0
2, 43373, Note_on_c, 0, 55, 0
2, 43377, Note_on_c, 0, 67, 51
2, 43386, Note_on_c, 0, 63, 0
2, 43389, Note_on_c, 0, 67, 0
2, 43389, Note_on_c, 0, 70, 64
2, 43402, Note_on_c, 0, 70, 0
2, 43404, Note_on_c, 0, 67, 60
2, 43412, Note_on_c, 0, 67, 0
2, 43419, Note_on_c, 0, 68, 37
2, 43431, Note_on_c, 0, 68, 0
2, 43436, Note_on_c, 0, 70, 47
2, 43441, Note_on_c, 0, 70, 0
2, 43448, Control_c, 0, 64, 127
2, 43452, Note_on_c, 0, 72, 60
2, 43461, Control_c, 0, 64, 0
2, 43461, Note_on_c, 0, 63, 34
2, 43462, Note_on_c, 0, 72, 0
2, 43465, Note_on_c, 0, 60, 38
2, 43466, Note_on_c, 0, 56, 32
2, 43477, Note_on_c, 0, 74, 68
2, 43493, Note_on_c, 0, 74, 0
2, 43504, Note_on_c, 0, 75, 69
2, 43516, Note_on_c, 0, 75, 0
2, 43523, Note_on_c, 0, 63, 0
2, 43527, Note_on_c, 0, 77, 59
2, 43534, Control_c, 0, 64, 127
2, 43536, Note_on_c, 0, 60, 0
2, 43542, Note_on_c, 0, 77, 0
2, 43548, Note_on_c, 0, 56, 0
2, 43549, Note_on_c, 0, 79, 44
2, 43559, Note_on_c, 0, 79, 0
2, 43563, Note_on_c, 0, 80, 52
2, 43571, Note_on_c, 0, 80, 0
2, 43577, Note_on_c, 0, 81, 36
2, 43592, Note_on_c, 0, 81, 0
2, 43592, Note_on_c, 0, 82, 75
2, 43611, Note_on_c, 0, 82, 0
2, 43614, Note_on_c, 0, 52, 45
2, 43614, Note_on_c, 0, 62, 53
2, 43615, Note_on_c, 0, 59, 43
2, 43615, Note_on_c, 0, 79, 71
2, 43618, Control_c, 0, 64, 0
2, 43653, Control_c, 0, 64, 127
2, 43659, Note_on_c, 0, 79, 0
2, 43661, Note_on_c, 0, 76, 74
2, 43675, Note_on_c, 0, 76, 0
2, 43691, Note_on_c, 0, 71, 73
2, 43701, Note_on_c, 0, 52, 0
2, 43702, Note_on_c, 0, 59, 0
2, 43707, Note_on_c, 0, 62, 0
2, 43719, Note_on_c, 0, 71, 0
2, 43725, Note_on_c, 0, 67, 67
2, 43735, Note_on_c, 0, 67, 0
2, 43760, Note_on_c, 0, 71, 26
2, 43762, Note_on_c, 0, 64, 48
2, 43762, Note_on_c, 0, 67, 47
2, 43765, Note_on_c, 0, 62, 42
2, 43765, Note_on_c, 0, 59, 52
2, 43768, Control_c, 0, 64, 0
2, 43776, Note_on_c, 0, 62, 0
2, 43781, Note_on_c, 0, 59, 0
2, 43804, Note_on_c, 0, 56, 64
2, 43812, Control_c, 0, 64, 127
2, 43825, Note_on_c, 0, 56, 0
2, 43827, Note_on_c, 0, 67, 0
2, 43829, Note_on_c, 0, 71, 0
2, 43830, Note_on_c, 0, 64, 0
2, 43844, Note_on_c, 0, 46, 50
2, 43881, Note_on_c, 0, 46, 0
2, 43886, Note_on_c, 0, 55, 74
2, 43887, Note_on_c, 0, 45, 72
2, 43912, Control_c, 0, 64, 0
2, 43923, Note_on_c, 0, 57, 63
2, 43947, Note_on_c, 0, 57, 0
2, 43955, Note_on_c, 0, 58, 52
2, 43972, Note_on_c, 0, 58, 0
2, 43975, Note_on_c, 0, 60, 56
2, 43987, Note_on_c, 0, 60, 0
2, 43992, Note_on_c, 0, 61, 51
2, 44004, Note_on_c, 0, 61, 0
2, 44010, Note_on_c, 0, 63, 51
2, 44013, Note_on_c, 0, 55, 0
2, 44018, Note_on_c, 0, 63, 0
2, 44027, Note_on_c, 0, 64, 36
2, 44034, Note_on_c, 0, 64, 0
2, 44041, Note_on_c, 0, 66, 42
2, 44050, Control_c, 0, 64, 127
2, 44052, Note_on_c, 0, 66, 0
2, 44058, Note_on_c, 0, 67, 60
2, 44070, Control_c, 0, 64, 0
2, 44072, Note_on_c, 0, 55, 43
2, 44073, Note_on_c, 0, 67, 0
2, 44075, Note_on_c, 0, 69, 56
2, 44090, Note_on_c, 0, 69, 0
2, 44096, Note_on_c, 0, 70, 38
2, 44101, Note_on_c, 0, 70, 0
2, 44103, Control_c, 0, 64, 127
2, 44110, Note_on_c, 0, 72, 46
2, 44122, Note_on_c, 0, 72, 0
2, 44123, Note_on_c, 0, 73, 35
2, 44133, Note_on_c, 0, 45, 0
2, 44141, Note_on_c, 0, 73, 0
2, 44143, Note_on_c, 0, 75, 36
2, 44144, Note_on_c, 0, 55, 0
2, 44153, Note_on_c, 0, 75, 0
2, 44156, Note_on_c, 0, 76, 47
2, 44165, Note_on_c, 0, 76, 0
2, 44173, Note_on_c, 0, 81, 57
2, 44173, Note_on_c, 0, 79, 56
2, 44185, Note_on_c, 0, 79, 0
2, 44185, Note_on_c, 0, 81, 0
2, 44189, Note_on_c, 0, 78, 60
2, 44201, Note_on_c, 0, 78, 0
2, 44207, Note_on_c, 0, 77, 47
2, 44225, Note_on_c, 0, 77, 0
2, 44227, Note_on_c, 0, 76, 59
2, 44234, Note_on_c, 0, 44, 42
2, 44234, Control_c, 0, 64, 0
2, 44235, Note_on_c, 0, 55, 41
2, 44241, Note_on_c, 0, 76, 0
2, 44241, Note_on_c, 0, 75, 45
2, 44254, Control_c, 0, 64, 127
2, 44284, Note_on_c, 0, 72, 58
2, 44288, Note_on_c, 0, 75, 0
2, 44288, Note_on_c, 0, 44, 0
2, 44290, Note_on_c, 0, 55, 0
2, 44299, Note_on_c, 0, 72, 0
2, 44386, Note_on_c, 0, 63, 27
2, 44388, Note_on_c, 0, 60, 42
2, 44388, Note_on_c, 0, 56, 35
2, 44419, Note_on_c, 0, 60, 0
2, 44426, Note_on_c, 0, 63, 0
2, 44436, Note_on_c, 0, 67, 80
2, 44455, Note_on_c, 0, 56, 0
2, 44474, Note_on_c, 0, 67, 0
2, 44483, Note_on_c, 0, 70, 82
2, 44516, Note_on_c, 0, 70, 0
2, 44536, Note_on_c, 0, 65, 70
2, 44536, Note_on_c, 0, 58, 67
2, 44536, Note_on_c, 0, 53, 49
2, 44546, Control_c, 0, 64, 0
2, 44578, Control_c, 0, 64, 127
2, 44588, Note_on_c, 0, 43, 57
2, 44632, Note_on_c, 0, 43, 0
2, 44632, Note_on_c, 0, 53, 0
2, 44641, Note_on_c, 0, 65, 0
2, 44666, Note_on_c, 0, 58, 0
2, 44696, Note_on_c, 0, 58, 49
2, 44697, Note_on_c, 0, 64, 55
2, 44699, Note_on_c, 0, 42, 39
2, 44699, Note_on_c, 0, 52, 35
2, 44701, Control_c, 0, 64, 0
2, 44719, Control_c, 0, 64, 127
2, 44762, Note_on_c, 0, 42, 0
2, 44778, Note_on_c, 0, 64, 0
2, 44791, Note_on_c, 0, 42, 39
2, 44794, Note_on_c, 0, 58, 0
2, 44805, Note_on_c, 0, 52, 0
2, 44821, Note_on_c, 0, 42, 0
2, 44846, Control_c, 0, 64, 0
2, 44849, Note_on_c, 0, 62, 44
2, 44850, Note_on_c, 0, 57, 30
2, 44851, Note_on_c, 0, 41, 37
2, 44852, Note_on_c, 0, 51, 25
2, 44861, Control_c, 0, 64, 127
2, 44864, Note_on_c, 0, 57, 0
2, 44871, Note_on_c, 0, 62, 0
2, 44879, Note_on_c, 0, 41, 0
2, 44891, Note_on_c, 0, 51, 0
2, 44900, Note_on_c, 0, 74, 72
2, 44928, Note_on_c, 0, 74, 0
2, 44946, Note_on_c, 0, 71, 53
2, 44947, Note_on_c, 0, 63, 47
2, 44948, Note_on_c, 0, 67, 58
2, 44951, Note_on_c, 0, 62, 48
2, 44958, Note_on_c, 0, 63, 0
2, 44961, Note_on_c, 0, 67, 0
2, 44968, Note_on_c, 0, 71, 0
2, 44979, Note_on_c, 0, 62, 0
2, 44996, Note_on_c, 0, 86, 96
2, 45025, Note_on_c, 0, 86, 0
2, 45038, Note_on_c, 0, 74, 48
2, 45039, Note_on_c, 0, 79, 46
2, 45042, Note_on_c, 0, 63, 37
2, 45042, Note_on_c, 0, 67, 46
2, 45043, Note_on_c, 0, 62, 44
2, 45047, Control_c, 0, 64, 0
2, 45065, Control_c, 0, 64, 127
2, 45072, Note_on_c, 0, 62, 0
2, 45072, Note_on_c, 0, 74, 0
2, 45072, Note_on_c, 0, 67, 0
2, 45075, Note_on_c, 0, 79, 0
2, 45080, Note_on_c, 0, 63, 0
2, 45080, Note_on_c, 0, 83, 66
2, 45102, Note_on_c, 0, 83, 0
2, 45123, Note_on_c, 0, 53, 57
2, 45165, Note_on_c, 0, 74, 69
2, 45166, Note_on_c, 0, 71, 65
2, 45198, Note_on_c, 0, 71, 0
2, 45200, Note_on_c, 0, 74, 0
2, 45206, Note_on_c, 0, 79, 69
2, 45222, Note_on_c, 0, 79, 0
2, 45254, Note_on_c, 0, 71, 57
2, 45254, Note_on_c, 0, 74, 57
2, 45255, Note_on_c, 0, 67, 57
2, 45257, Control_c, 0, 64, 0
2, 45257, Note_on_c, 0, 63, 36
2, 45280, Note_on_c, 0, 53, 0
2, 45282, Control_c, 0, 64, 127
2, 45302, Note_on_c, 0, 72, 48
2, 45305, Note_on_c, 0, 53, 27
2, 45309, Note_on_c, 0, 71, 0
2, 45314, Note_on_c, 0, 53, 0
2, 45319, Note_on_c, 0, 74, 0
2, 45321, Note_on_c, 0, 67, 0
2, 45340, Note_on_c, 0, 72, 0
2, 45347, Note_on_c, 0, 53, 58
2, 45357, Note_on_c, 0, 63, 0
2, 45378, Note_on_c, 0, 53, 0
2, 45397, Note_on_c, 0, 70, 50
2, 45397, Note_on_c, 0, 67, 61
2, 45400, Note_on_c, 0, 53, 43
2, 45402, Control_c, 0, 64, 0
2, 45403, Note_on_c, 0, 60, 43
2, 45420, Control_c, 0, 64, 127
2, 45425, Note_on_c, 0, 67, 0
2, 45427, Note_on_c, 0, 60, 0
2, 45434, Note_on_c, 0, 53, 0
2, 45449, Note_on_c, 0, 70, 0
2, 45453, Note_on_c, 0, 67, 68
2, 45455, Note_on_c, 0, 60, 64
2, 45456, Note_on_c, 0, 63, 52
2, 45457, Note_on_c, 0, 56, 56
2, 45458, Control_c, 0, 64, 0
2, 45477, Control_c, 0, 64, 127
2, 45522, Note_on_c, 0, 63, 0
2, 45523, Note_on_c, 0, 60, 0
2, 45529, Note_on_c, 0, 56, 0
2, 45544, Note_on_c, 0, 63, 56
2, 45546, Note_on_c, 0, 56, 36
2, 45547, Note_on_c, 0, 60, 50
2, 45548, Control_c, 0, 64, 0
2, 45566, Control_c, 0, 64, 127
2, 45598, Note_on_c, 0, 46, 62
2, 45612, Note_on_c, 0, 60, 0
2, 45618, Note_on_c, 0, 67, 0
2, 45619, Note_on_c, 0, 46, 0
2, 45621, Note_on_c, 0, 56, 0
2, 45624, Note_on_c, 0, 63, 0
2, 45685, Note_on_c, 0, 85, 86
2, 45685, Note_on_c, 0, 56, 79
2, 45686, Note_on_c, 0, 66, 87
2, 45686, Note_on_c, 0, 73, 77
2, 45686, Note_on_c, 0, 78, 77
2, 45686, Note_on_c, 0, 82, 68
2, 45687, Note_on_c, 0, 62, 74
2, 45688, Control_c, 0, 64, 0
2, 45703, Control_c, 0, 64, 127
2, 45714, Note_on_c, 0, 85, 0
2, 45717, Note_on_c, 0, 78, 0
2, 45718, Note_on_c, 0, 73, 0
2, 45718, Note_on_c, 0, 66, 0
2, 45720, Note_on_c, 0, 82, 0
2, 45723, Note_on_c, 0, 56, 0
2, 45729, Note_on_c, 0, 62, 0
2, 45737, Note_on_c, 0, 82, 53
2, 45738, Control_c, 0, 64, 0
2, 45738, Note_on_c, 0, 66, 64
2, 45738, Note_on_c, 0, 75, 59
2, 45739, Note_on_c, 0, 56, 62
2, 45740, Note_on_c, 0, 70, 44
2, 45740, Note_on_c, 0, 62, 57
2, 45756, Control_c, 0, 64, 127
2, 45788, Note_on_c, 0, 66, 0
2, 45790, Note_on_c, 0, 82, 0
2, 45795, Note_on_c, 0, 75, 0
2, 45796, Note_on_c, 0, 70, 0
2, 45800, Note_on_c, 0, 56, 0
2, 45815, Note_on_c, 0, 62, 0
2, 45838, Note_on_c, 0, 78, 43
2, 45840, Note_on_c, 0, 73, 36
2, 45840, Note_on_c, 0, 66, 37
2, 45843, Note_on_c, 0, 62, 42
2, 45871, Note_on_c, 0, 66, 0
2, 45884, Note_on_c, 0, 73, 0
2, 45890, Note_on_c, 0, 78, 0
2, 45891, Note_on_c, 0, 56, 48
2, 45896, Note_on_c, 0, 62, 0
2, 45906, Note_on_c, 0, 56, 0
2, 45981, Control_c, 0, 64, 0
2, 45983, Note_on_c, 0, 89, 48
2, 45983, Note_on_c, 0, 39, 36
2, 45985, Note_on_c, 0, 86, 42
2, 45987, Note_on_c, 0, 82, 29
2, 45987, Note_on_c, 0, 46, 29
2, 45989, Note_on_c, 0, 77, 35
2, 45999, Control_c, 0, 64, 127
2, 46011, Note_on_c, 0, 39, 0
2, 46019, Note_on_c, 0, 46, 0
2, 46021, Note_on_c, 0, 89, 0
2, 46022, Note_on_c, 0, 86, 0
2, 46034, Note_on_c, 0, 82, 0
2, 46037, Note_on_c, 0, 77, 0
2, 46081, Note_on_c, 0, 86, 57
2, 46084, Note_on_c, 0, 82, 27
2, 46086, Note_on_c, 0, 74, 17
2, 46087, Note_on_c, 0, 79, 24
2, 46110, Note_on_c, 0, 79, 0
2, 46115, Note_on_c, 0, 74, 0
2, 46117, Note_on_c, 0, 82, 0
2, 46118, Note_on_c, 0, 86, 0
2, 46133, Note_on_c, 0, 62, 53
2, 46135, Note_on_c, 0, 86, 51
2, 46137, Note_on_c, 0, 82, 29
2, 46137, Note_on_c, 0, 58, 33
2, 46137, Note_on_c, 0, 74, 30
2, 46138, Note_on_c, 0, 79, 33
2, 46147, Note_on_c, 0, 62, 0
2, 46155, Note_on_c, 0, 58, 0
2, 46186, Note_on_c, 0, 79, 0
2, 46187, Note_on_c, 0, 74, 0
2, 46191, Note_on_c, 0, 82, 0
2, 46194, Note_on_c, 0, 86, 0
2, 46228, Note_on_c, 0, 74, 49
2, 46228, Note_on_c, 0, 86, 50
2, 46230, Note_on_c, 0, 79, 40
2, 46231, Note_on_c, 0, 82, 33
2, 46237, Note_on_c, 0, 86, 0
2, 46240, Note_on_c, 0, 74, 0
2, 46242, Note_on_c, 0, 79, 0
2, 46249, Note_on_c, 0, 82, 0
2, 46283, Note_on_c, 0, 48, 48
2, 46283, Note_on_c, 0, 87, 61
2, 46284, Note_on_c, 0, 58, 36
2, 46284, Note_on_c, 0, 75, 46
2, 46286, Control_c, 0, 64, 0
2, 46308, Control_c, 0, 64, 127
2, 46337, Note_on_c, 0, 48, 0
2, 46348, Note_on_c, 0, 87, 0
2, 46350, Note_on_c, 0, 58, 0
2, 46350, Note_on_c, 0, 75, 0
2, 46379, Note_on_c, 0, 87, 59
2, 46380, Note_on_c, 0, 75, 46
2, 46430, Note_on_c, 0, 63, 32
2, 46435, Note_on_c, 0, 58, 31
2, 46435, Note_on_c, 0, 60, 39
2, 46439, Note_on_c, 0, 75, 0
2, 46441, Note_on_c, 0, 87, 0
2, 46471, Note_on_c, 0, 60, 0
2, 46483, Note_on_c, 0, 58, 0
2, 46485, Note_on_c, 0, 63, 0
2, 46542, Note_on_c, 0, 95, 108
2, 46570, Note_on_c, 0, 96, 65
2, 46587, Note_on_c, 0, 97, 74
2, 46589, Note_on_c, 0, 96, 0
2, 46589, Note_on_c, 0, 95, 0
2, 46599, Note_on_c, 0, 67, 35
2, 46599, Note_on_c, 0, 57, 50
2, 46600, Note_on_c, 0, 62, 53
2, 46600, Note_on_c, 0, 63, 27
2, 46601, Note_on_c, 0, 97, 0
2, 46601, Note_on_c, 0, 98, 77
2, 46603, Control_c, 0, 64, 0
2, 46623, Note_on_c, 0, 98, 0
2, 46631, Note_on_c, 0, 91, 75
2, 46655, Note_on_c, 0, 93, 54
2, 46662, Note_on_c, 0, 91, 0
2, 46666, Note_on_c, 0, 94, 61
2, 46671, Note_on_c, 0, 93, 0
2, 46681, Note_on_c, 0, 94, 0
2, 46682, Note_on_c, 0, 95, 66
2, 46686, Note_on_c, 0, 63, 0
2, 46690, Note_on_c, 0, 67, 0
2, 46694, Note_on_c, 0, 62, 0
2, 46696, Note_on_c, 0, 95, 0
2, 46696, Control_c, 0, 64, 127
2, 46700, Note_on_c, 0, 86, 71
2, 46718, Note_on_c, 0, 87, 52
2, 46724, Note_on_c, 0, 86, 0
2, 46730, Note_on_c, 0, 88, 55
2, 46735, Note_on_c, 0, 87, 0
2, 46742, Note_on_c, 0, 89, 64
2, 46743, Note_on_c, 0, 88, 0
2, 46748, Note_on_c, 0, 63, 45
2, 46749, Note_on_c, 0, 62, 30
2, 46749, Note_on_c, 0, 67, 43
2, 46752, Control_c, 0, 64, 0
2, 46755, Note_on_c, 0, 89, 0
2, 46759, Note_on_c, 0, 83, 54
2, 46787, Control_c, 0, 64, 127
2, 46798, Note_on_c, 0, 86, 87
2, 46803, Note_on_c, 0, 83, 0
2, 46826, Note_on_c, 0, 67, 0
2, 46827, Note_on_c, 0, 62, 0
2, 46832, Note_on_c, 0, 84, 82
2, 46840, Note_on_c, 0, 57, 0
2, 46840, Note_on_c, 0, 63, 0
2, 46851, Note_on_c, 0, 86, 0
2, 46853, Note_on_c, 0, 84, 0
2, 46863, Note_on_c, 0, 82, 69
2, 46886, Note_on_c, 0, 82, 0
2, 46893, Note_on_c, 0, 68, 36
2, 46894, Note_on_c, 0, 63, 38
2, 46897, Note_on_c, 0, 80, 53
2, 46897, Note_on_c, 0, 60, 47
2, 46901, Control_c, 0, 64, 0
2, 46927, Note_on_c, 0, 80, 0
2, 46932, Note_on_c, 0, 82, 55
2, 46960, Control_c, 0, 64, 127
2, 46964, Note_on_c, 0, 79, 60
2, 46969, Note_on_c, 0, 82, 0
2, 46991, Note_on_c, 0, 79, 0
2, 46994, Note_on_c, 0, 68, 0
2, 46997, Note_on_c, 0, 80, 60
2, 47003, Note_on_c, 0, 60, 0
2, 47017, Note_on_c, 0, 63, 0
2, 47030, Note_on_c, 0, 80, 0
2, 47032, Note_on_c, 0, 78, 68
2, 47034, Note_on_c, 0, 67, 58
2, 47036, Note_on_c, 0, 56, 34
2, 47037, Note_on_c, 0, 62, 44
2, 47039, Control_c, 0, 64, 0
2, 47068, Control_c, 0, 64, 127
2, 47075, Note_on_c, 0, 80, 63
2, 47083, Note_on_c, 0, 78, 0
2, 47093, Note_on_c, 0, 67, 0
2, 47094, Note_on_c, 0, 62, 0
2, 47103, Note_on_c, 0, 80, 0
2, 47109, Note_on_c, 0, 77, 51
2, 47111, Note_on_c, 0, 56, 0
2, 47143, Note_on_c, 0, 77, 0
2, 47145, Note_on_c, 0, 79, 59
2, 47169, Note_on_c, 0, 79, 0
2, 47178, Note_on_c, 0, 65, 45
2, 47179, Note_on_c, 0, 62, 32
2, 47180, Control_c, 0, 64, 0
2, 47182, Note_on_c, 0, 58, 26
2, 47183, Note_on_c, 0, 74, 52
2, 47197, Control_c, 0, 64, 127
2, 47223, Note_on_c, 0, 74, 0
2, 47227, Note_on_c, 0, 65, 0
2, 47235, Note_on_c, 0, 62, 0
2, 47244, Note_on_c, 0, 55, 51
2, 47248, Note_on_c, 0, 58, 0
2, 47251, Note_on_c, 0, 55, 0
2, 47315, Note_on_c, 0, 67, 57
2, 47316, Note_on_c, 0, 64, 55
2, 47317, Note_on_c, 0, 60, 60
2, 47317, Note_on_c, 0, 55, 43
2, 47320, Control_c, 0, 64, 0
2, 47350, Control_c, 0, 64, 127
2, 47388, Note_on_c, 0, 46, 54
2, 47398, Note_on_c, 0, 60, 0
2, 47414, Note_on_c, 0, 67, 0
2, 47417, Note_on_c, 0, 64, 0
2, 47429, Note_on_c, 0, 55, 0
2, 47461, Note_on_c, 0, 72, 79
2, 47461, Note_on_c, 0, 56, 62
2, 47461, Note_on_c, 0, 68, 73
2, 47461, Note_on_c, 0, 63, 85
2, 47465, Control_c, 0, 64, 0
2, 47483, Control_c, 0, 64, 127
2, 47509, Note_on_c, 0, 46, 0
2, 47533, Note_on_c, 0, 46, 50
2, 47536, Note_on_c, 0, 63, 0
2, 47549, Note_on_c, 0, 68, 0
2, 47572, Note_on_c, 0, 56, 0
2, 47594, Note_on_c, 0, 72, 0
2, 47602, Note_on_c, 0, 68, 43
2, 47605, Note_on_c, 0, 60, 42
2, 47605, Note_on_c, 0, 63, 32
2, 47608, Note_on_c, 0, 58, 39
2, 47637, Note_on_c, 0, 46, 0
2, 47678, Note_on_c, 0, 46, 57
2, 47679, Note_on_c, 0, 60, 0
2, 47684, Note_on_c, 0, 63, 0
2, 47692, Note_on_c, 0, 68, 0
2, 47694, Note_on_c, 0, 58, 0
2, 47738, Note_on_c, 0, 46, 0
2, 47747, Note_on_c, 0, 74, 80
2, 47750, Note_on_c, 0, 70, 76
2, 47751, Note_on_c, 0, 62, 88
2, 47751, Note_on_c, 0, 67, 87
2, 47752, Note_on_c, 0, 63, 85
2, 47754, Control_c, 0, 64, 0
2, 47777, Control_c, 0, 64, 127
2, 47785, Note_on_c, 0, 62, 0
2, 47827, Note_on_c, 0, 46, 56
2, 47841, Note_on_c, 0, 46, 0
2, 47858, Note_on_c, 0, 67, 0
2, 47875, Note_on_c, 0, 63, 0
2, 47891, Note_on_c, 0, 74, 0
2, 47904, Note_on_c, 0, 63, 47
2, 47905, Note_on_c, 0, 67, 58
2, 47971, Note_on_c, 0, 63, 0
2, 47975, Note_on_c, 0, 74, 72
2, 47976, Note_on_c, 0, 46, 46
2, 47986, Note_on_c, 0, 67, 0
2, 48004, Note_on_c, 0, 46, 0
2, 48006, Note_on_c, 0, 70, 0
2, 48009, Note_on_c, 0, 74, 0
2, 48044, Note_on_c, 0, 72, 76
2, 48046, Note_on_c, 0, 68, 73
2, 48049, Note_on_c, 0, 67, 70
2, 48049, Note_on_c, 0, 56, 34
2, 48052, Control_c, 0, 64, 0
2, 48071, Control_c, 0, 64, 127
2, 48118, Note_on_c, 0, 46, 44
2, 48120, Note_on_c, 0, 68, 0
2, 48123, Note_on_c, 0, 72, 0
2, 48125, Note_on_c, 0, 56, 0
2, 48126, Note_on_c, 0, 67, 0
2, 48196, Note_on_c, 0, 63, 36
2, 48196, Note_on_c, 0, 67, 49
2, 48198, Note_on_c, 0, 60, 39
2, 48198, Note_on_c, 0, 56, 25
2, 48225, Note_on_c, 0, 46, 0
2, 48227, Note_on_c, 0, 60, 0
2, 48233, Note_on_c, 0, 67, 0
2, 48235, Note_on_c, 0, 63, 0
2, 48266, Note_on_c, 0, 46, 36
2, 48267, Note_on_c, 0, 72, 71
2, 48276, Note_on_c, 0, 56, 0
2, 48283, Note_on_c, 0, 46, 0
2, 48306, Note_on_c, 0, 72, 0
2, 48336, Note_on_c, 0, 40, 43
2, 48342, Note_on_c, 0, 62, 68
2, 48343, Note_on_c, 0, 71, 61
2, 48343, Note_on_c, 0, 67, 66
2, 48348, Control_c, 0, 64, 0
2, 48373, Control_c, 0, 64, 127
2, 48396, Note_on_c, 0, 67, 0
2, 48403, Note_on_c, 0, 62, 0
2, 48406, Note_on_c, 0, 71, 0
2, 48410, Note_on_c, 0, 47, 46
2, 48428, Note_on_c, 0, 40, 0
2, 48481, Note_on_c, 0, 67, 46
2, 48482, Note_on_c, 0, 59, 51
2, 48483, Note_on_c, 0, 62, 47
2, 48484, Note_on_c, 0, 55, 28
2, 48494, Note_on_c, 0, 67, 0
2, 48496, Note_on_c, 0, 59, 0
2, 48500, Note_on_c, 0, 62, 0
2, 48517, Note_on_c, 0, 47, 0
2, 48541, Note_on_c, 0, 55, 0
2, 48553, Note_on_c, 0, 71, 65
2, 48560, Note_on_c, 0, 64, 29
2, 48572, Note_on_c, 0, 64, 0
2, 48573, Note_on_c, 0, 71, 0
2, 48622, Note_on_c, 0, 61, 50
2, 48622, Note_on_c, 0, 66, 46
2, 48623, Note_on_c, 0, 70, 43
2, 48624, Note_on_c, 0, 55, 51
2, 48625, Note_on_c, 0, 45, 42
2, 48630, Control_c, 0, 64, 0
2, 48655, Control_c, 0, 64, 127
2, 48678, Note_on_c, 0, 45, 0
2, 48695, Note_on_c, 0, 45, 41
2, 48708, Note_on_c, 0, 55, 0
2, 48722, Note_on_c, 0, 66, 0
2, 48725, Note_on_c, 0, 61, 0
2, 48765, Note_on_c, 0, 70, 0
2, 48765, Note_on_c, 0, 66, 46
2, 48766, Note_on_c, 0, 61, 34
2, 48769, Note_on_c, 0, 55, 44
2, 48803, Note_on_c, 0, 45, 0
2, 48841, Note_on_c, 0, 45, 40
2, 48864, Note_on_c, 0, 45, 0
2, 48867, Note_on_c, 0, 55, 0
2, 48884, Note_on_c, 0, 66, 0
2, 48885, Note_on_c, 0, 45, 44
2, 48887, Note_on_c, 0, 61, 0
2, 48893, Note_on_c, 0, 45, 0
2, 48918, Note_on_c, 0, 67, 42
2, 48918, Note_on_c, 0, 44, 54
2, 48918, Note_on_c, 0, 63, 34
2, 48919, Note_on_c, 0, 60, 36
2, 48920, Control_c, 0, 64, 0
2, 48921, Note_on_c, 0, 55, 44
2, 48939, Control_c, 0, 64, 127
2, 48949, Note_on_c, 0, 60, 0
2, 48965, Note_on_c, 0, 44, 0
2, 48966, Note_on_c, 0, 67, 0
2, 48966, Note_on_c, 0, 63, 0
2, 48972, Note_on_c, 0, 55, 0
2, 49064, Note_on_c, 0, 63, 40
2, 49068, Note_on_c, 0, 60, 48
2, 49070, Note_on_c, 0, 56, 34
2, 49109, Note_on_c, 0, 77, 96
2, 49116, Note_on_c, 0, 63, 0
2, 49118, Note_on_c, 0, 60, 0
2, 49125, Note_on_c, 0, 56, 0
2, 49134, Note_on_c, 0, 77, 0
2, 49158, Note_on_c, 0, 84, 101
2, 49176, Note_on_c, 0, 84, 0
2, 49197, Note_on_c, 0, 75, 23
2, 49197, Note_on_c, 0, 75, 0
2, 49210, Note_on_c, 0, 82, 71
2, 49212, Note_on_c, 0, 74, 65
2, 49213, Note_on_c, 0, 70, 55
2, 49214, Note_on_c, 0, 62, 48
2, 49215, Note_on_c, 0, 65, 48
2, 49216, Control_c, 0, 64, 0
2, 49216, Note_on_c, 0, 55, 41
2, 49218, Note_on_c, 0, 58, 33
2, 49235, Control_c, 0, 64, 127
2, 49274, Note_on_c, 0, 82, 0
2, 49277, Note_on_c, 0, 74, 0
2, 49279, Note_on_c, 0, 70, 0
2, 49284, Note_on_c, 0, 80, 44
2, 49285, Note_on_c, 0, 65, 0
2, 49289, Note_on_c, 0, 79, 57
2, 49290, Note_on_c, 0, 62, 0
2, 49296, Note_on_c, 0, 55, 0
2, 49300, Note_on_c, 0, 58, 0
2, 49301, Note_on_c, 0, 79, 0
2, 49307, Note_on_c, 0, 80, 0
2, 49360, Note_on_c, 0, 54, 36
2, 49361, Note_on_c, 0, 75, 57
2, 49363, Note_on_c, 0, 68, 42
2, 49363, Note_on_c, 0, 72, 35
2, 49364, Note_on_c, 0, 58, 37
2, 49365, Note_on_c, 0, 64, 38
2, 49365, Control_c, 0, 64, 0
2, 49367, Note_on_c, 0, 62, 24
2, 49379, Note_on_c, 0, 62, 0
2, 49394, Control_c, 0, 64, 127
2, 49399, Note_on_c, 0, 75, 0
2, 49416, Note_on_c, 0, 75, 63
2, 49417, Note_on_c, 0, 72, 0
2, 49444, Note_on_c, 0, 64, 0
2, 49454, Note_on_c, 0, 68, 0
2, 49454, Note_on_c, 0, 75, 0
2, 49459, Note_on_c, 0, 58, 0
2, 49462, Note_on_c, 0, 54, 0
2, 49463, Note_on_c, 0, 72, 33
2, 49490, Note_on_c, 0, 72, 0
2, 49508, Note_on_c, 0, 75, 46
2, 49509, Note_on_c, 0, 69, 54
2, 49511, Note_on_c, 0, 71, 57
2, 49513, Note_on_c, 0, 63, 33
2, 49516, Note_on_c, 0, 53, 32
2, 49518, Control_c, 0, 64, 0
2, 49548, Control_c, 0, 64, 127
2, 49578, Note_on_c, 0, 63, 0
2, 49586, Note_on_c, 0, 60, 35
2, 49605, Note_on_c, 0, 69, 0
2, 49629, Note_on_c, 0, 71, 0
2, 49655, Note_on_c, 0, 75, 0
2, 49660, Note_on_c, 0, 72, 50
2, 49661, Note_on_c, 0, 69, 53
2, 49662, Note_on_c, 0, 63, 37
2, 49663, Note_on_c, 0, 60, 0
2, 49666, Control_c, 0, 64, 0
2, 49677, Control_c, 0, 64, 127
2, 49732, Note_on_c, 0, 69, 0
2, 49733, Note_on_c, 0, 60, 53
2, 49735, Note_on_c, 0, 72, 0
2, 49758, Note_on_c, 0, 63, 0
2, 49770, Note_on_c, 0, 73, 61
2, 49770, Note_on_c, 0, 70, 78
2, 49794, Note_on_c, 0, 73, 0
2, 49795, Note_on_c, 0, 70, 0
2, 49804, Note_on_c, 0, 60, 0
2, 49805, Note_on_c, 0, 74, 73
2, 49806, Note_on_c, 0, 63, 47
2, 49806, Note_on_c, 0, 71, 80
2, 49807, Control_c, 0, 64, 0
2, 49821, Note_on_c, 0, 74, 0
2, 49823, Note_on_c, 0, 71, 0
2, 49843, Note_on_c, 0, 66, 73
2, 49844, Note_on_c, 0, 70, 52
2, 49856, Note_on_c, 0, 63, 0
2, 49871, Note_on_c, 0, 66, 0
2, 49874, Note_on_c, 0, 70, 0
2, 49877, Note_on_c, 0, 71, 55
2, 49880, Note_on_c, 0, 67, 45
2, 49881, Note_on_c, 0, 53, 0
2, 49908, Note_on_c, 0, 67, 0
2, 49908, Note_on_c, 0, 71, 0
2, 49909, Control_c, 0, 64, 127
2, 49918, Note_on_c, 0, 53, 48
2, 49918, Note_on_c, 0, 62, 45
2, 49941, Note_on_c, 0, 62, 0
2, 49948, Control_c, 0, 64, 0
2, 49955, Note_on_c, 0, 62, 63
2, 49955, Note_on_c, 0, 67, 62
2, 49960, Note_on_c, 0, 53, 0
2, 49980, Note_on_c, 0, 62, 0
2, 49981, Note_on_c, 0, 67, 0
2, 49990, Control_c, 0, 64, 127
2, 49991, Note_on_c, 0, 67, 46
2, 49994, Note_on_c, 0, 62, 63
2, 50030, Note_on_c, 0, 48, 32
2, 50031, Note_on_c, 0, 59, 33
2, 50039, Note_on_c, 0, 62, 0
2, 50064, Note_on_c, 0, 59, 0
2, 50064, Note_on_c, 0, 48, 0
2, 50066, Note_on_c, 0, 41, 35
2, 50084, Note_on_c, 0, 67, 0
2, 50085, Note_on_c, 0, 41, 0
2, 50103, Control_c, 0, 64, 0
2, 50103, Note_on_c, 0, 56, 39
2, 50104, Note_on_c, 0, 63, 35
2, 50105, Note_on_c, 0, 46, 51
2, 50105, Note_on_c, 0, 60, 53
2, 50125, Control_c, 0, 64, 127
2, 50147, Note_on_c, 0, 56, 0
2, 50150, Note_on_c, 0, 63, 0
2, 50151, Note_on_c, 0, 60, 0
2, 50184, Note_on_c, 0, 46, 0
2, 50197, Note_on_c, 0, 63, 33
2, 50198, Note_on_c, 0, 60, 47
2, 50221, Note_on_c, 0, 60, 0
2, 50231, Note_on_c, 0, 63, 0
2, 50298, Note_on_c, 0, 65, 58
2, 50300, Note_on_c, 0, 60, 48
2, 50318, Control_c, 0, 64, 0
2, 50320, Note_on_c, 0, 60, 0
2, 50324, Note_on_c, 0, 65, 0
2, 50342, Note_on_c, 0, 63, 36
2, 50369, Note_on_c, 0, 63, 0
2, 50385, Note_on_c, 0, 59, 45
2, 50388, Note_on_c, 0, 62, 38
2, 50389, Note_on_c, 0, 46, 26
2, 50393, Note_on_c, 0, 59, 0
2, 50393, Note_on_c, 0, 56, 13
2, 50400, Note_on_c, 0, 62, 0
2, 50402, Note_on_c, 0, 56, 0
2, 50407, Note_on_c, 0, 46, 0
2, 50448, Note_on_c, 0, 80, 51
2, 50450, Note_on_c, 0, 68, 25
2, 50473, Note_on_c, 0, 68, 0
2, 50475, Control_c, 0, 64, 127
2, 50480, Note_on_c, 0, 80, 0
2, 50518, Control_c, 0, 64, 0
2, 50533, Note_on_c, 0, 67, 35
2, 50534, Note_on_c, 0, 56, 29
2, 50536, Note_on_c, 0, 62, 47
2, 50546, Note_on_c, 0, 67, 0
2, 50550, Note_on_c, 0, 62, 0
2, 50554, Note_on_c, 0, 56, 0
2, 50629, Note_on_c, 0, 72, 28
2, 50630, Control_c, 0, 64, 127
2, 50639, Note_on_c, 0, 72, 0
2, 50652, Note_on_c, 0, 74, 60
2, 50664, Note_on_c, 0, 74, 0
2, 50676, Control_c, 0, 64, 0
2, 50676, Note_on_c, 0, 75, 67
2, 50681, Note_on_c, 0, 46, 44
2, 50682, Note_on_c, 0, 39, 43
2, 50690, Note_on_c, 0, 75, 0
2, 50695, Note_on_c, 0, 39, 0
2, 50696, Note_on_c, 0, 46, 0
2, 50719, Note_on_c, 0, 79, 51
2, 50731, Note_on_c, 0, 79, 0
2, 50752, Note_on_c, 0, 82, 47
2, 50764, Note_on_c, 0, 82, 0
2, 50784, Note_on_c, 0, 85, 73
2, 50785, Note_on_c, 0, 73, 46
2, 50794, Control_c, 0, 64, 127
2, 50805, Note_on_c, 0, 73, 0
2, 50805, Note_on_c, 0, 85, 0
2, 50821, Note_on_c, 0, 85, 54
2, 50822, Note_on_c, 0, 73, 36
2, 50822, Note_on_c, 0, 66, 52
2, 50823, Control_c, 0, 64, 0
2, 50823, Note_on_c, 0, 62, 59
2, 50833, Note_on_c, 0, 66, 0
2, 50837, Note_on_c, 0, 85, 0
2, 50841, Note_on_c, 0, 73, 0
2, 50841, Note_on_c, 0, 62, 0
2, 50853, Note_on_c, 0, 85, 64
2, 50856, Note_on_c, 0, 73, 19
2, 50867, Note_on_c, 0, 73, 0
2, 50870, Note_on_c, 0, 85, 0
2, 50878, Note_on_c, 0, 82, 35
2, 50884, Note_on_c, 0, 82, 0
2, 50897, Note_on_c, 0, 85, 64
2, 50898, Note_on_c, 0, 73, 44
2, 50909, Note_on_c, 0, 73, 0
2, 50912, Note_on_c, 0, 85, 0
2, 50956, Note_on_c, 0, 56, 34
2, 50958, Note_on_c, 0, 46, 31
2, 50983, Note_on_c, 0, 56, 0
2, 50984, Note_on_c, 0, 46, 0
2, 51066, Control_c, 0, 64, 127
2, 51111, Control_c, 0, 64, 0
2, 51111, Note_on_c, 0, 66, 50
2, 51113, Note_on_c, 0, 62, 55
2, 51114, Note_on_c, 0, 56, 35
2, 51123, Note_on_c, 0, 66, 0
2, 51125, Note_on_c, 0, 56, 0
2, 51127, Note_on_c, 0, 62, 0
2, 51145, Note_on_c, 0, 86, 75
2, 51185, Note_on_c, 0, 87, 35
2, 51196, Note_on_c, 0, 86, 0
2, 51201, Note_on_c, 0, 88, 53
2, 51202, Control_c, 0, 64, 127
2, 51208, Note_on_c, 0, 88, 0
2, 51208, Note_on_c, 0, 87, 0
2, 51217, Note_on_c, 0, 89, 78
2, 51238, Control_c, 0, 64, 0
2, 51244, Note_on_c, 0, 89, 0
2, 51251, Note_on_c, 0, 86, 81
2, 51252, Control_c, 0, 64, 127
2, 51252, Note_on_c, 0, 46, 46
2, 51252, Note_on_c, 0, 39, 42
2, 51293, Note_on_c, 0, 39, 0
2, 51299, Note_on_c, 0, 46, 0
2, 51303, Note_on_c, 0, 82, 52
2, 51306, Note_on_c, 0, 86, 0
2, 51340, Note_on_c, 0, 82, 0
2, 51402, Note_on_c, 0, 82, 49
2, 51402, Note_on_c, 0, 62, 50
2, 51403, Note_on_c, 0, 79, 50
2, 51405, Note_on_c, 0, 58, 42
2, 51441, Note_on_c, 0, 82, 0
2, 51442, Note_on_c, 0, 79, 0
2, 51466, Note_on_c, 0, 58, 0
2, 51469, Note_on_c, 0, 62, 0
2, 51478, Note_on_c, 0, 58, 80
2, 51551, Note_on_c, 0, 67, 74
2, 51552, Note_on_c, 0, 63, 65
2, 51553, Note_on_c, 0, 62, 69
2, 51555, Note_on_c, 0, 58, 0
2, 51622, Note_on_c, 0, 55, 88
2, 51661, Note_on_c, 0, 55, 0
2, 51674, Note_on_c, 0, 62, 0
2, 51678, Note_on_c, 0, 63, 0
2, 51681, Note_on_c, 0, 67, 0
2, 51699, Note_on_c, 0, 67, 71
2, 51700, Note_on_c, 0, 63, 60
2, 51701, Note_on_c, 0, 62, 80
2, 51728, Note_on_c, 0, 67, 0
2, 51738, Note_on_c, 0, 62, 0
2, 51742, Note_on_c, 0, 63, 0
2, 51768, Note_on_c, 0, 37, 53
2, 51769, Note_on_c, 0, 49, 37
2, 51788, Note_on_c, 0, 49, 0
2, 51790, Note_on_c, 0, 37, 0
2, 51830, Control_c, 0, 64, 0
2, 51838, Note_on_c, 0, 58, 45
2, 51839, Note_on_c, 0, 63, 46
2, 51840, Note_on_c, 0, 48, 44
2, 51842, Note_on_c, 0, 36, 38
2, 51848, Control_c, 0, 64, 127
2, 51860, Note_on_c, 0, 58, 0
2, 51871, Note_on_c, 0, 63, 0
2, 51875, Note_on_c, 0, 36, 0
2, 51882, Note_on_c, 0, 48, 0
2, 51913, Note_on_c, 0, 87, 67
2, 51914, Note_on_c, 0, 75, 55
2, 51928, Note_on_c, 0, 75, 0
2, 51934, Note_on_c, 0, 87, 0
2, 51958, Note_on_c, 0, 87, 71
2, 51960, Note_on_c, 0, 75, 59
2, 51972, Note_on_c, 0, 75, 0
2, 51974, Note_on_c, 0, 87, 0
2, 51985, Note_on_c, 0, 87, 53
2, 51986, Note_on_c, 0, 67, 48
2, 51987, Note_on_c, 0, 62, 54
2, 51987, Note_on_c, 0, 75, 43
2, 51987, Note_on_c, 0, 63, 34
2, 51989, Note_on_c, 0, 58, 23
2, 51993, Note_on_c, 0, 67, 0
2, 51998, Note_on_c, 0, 62, 0
2, 51998, Control_c, 0, 64, 0
2, 51999, Note_on_c, 0, 63, 0
2, 52001, Note_on_c, 0, 58, 0
2, 52007, Note_on_c, 0, 75, 0
2, 52014, Note_on_c, 0, 87, 0
2, 52027, Control_c, 0, 64, 127
2, 52029, Note_on_c, 0, 86, 51
2, 52044, Note_on_c, 0, 86, 0
2, 52055, Note_on_c, 0, 87, 62
2, 52057, Note_on_c, 0, 75, 33
2, 52076, Note_on_c, 0, 87, 0
2, 52079, Note_on_c, 0, 75, 0
2, 52096, Note_on_c, 0, 87, 60
2, 52097, Note_on_c, 0, 75, 44
2, 52111, Note_on_c, 0, 87, 0
2, 52112, Note_on_c, 0, 75, 0
2, 52123, Note_on_c, 0, 47, 43
2, 52124, Note_on_c, 0, 35, 50
2, 52124, Note_on_c, 0, 75, 37
2, 52124, Note_on_c, 0, 87, 47
2, 52124, Control_c, 0, 64, 0
2, 52140, Control_c, 0, 64, 127
2, 52148, Note_on_c, 0, 35, 0
2, 52156, Note_on_c, 0, 87, 0
2, 52158, Note_on_c, 0, 75, 0
2, 52158, Note_on_c, 0, 47, 0
2, 52166, Note_on_c, 0, 87, 57
2, 52169, Note_on_c, 0, 75, 40
2, 52182, Note_on_c, 0, 75, 0
2, 52185, Note_on_c, 0, 87, 0
2, 52195, Note_on_c, 0, 87, 49
2, 52197, Note_on_c, 0, 75, 25
2, 52209, Note_on_c, 0, 75, 0
2, 52213, Note_on_c, 0, 87, 0
2, 52236, Note_on_c, 0, 87, 77
2, 52238, Note_on_c, 0, 75, 69
2, 52250, Note_on_c, 0, 75, 0
2, 52253, Note_on_c, 0, 87, 0
2, 52262, Note_on_c, 0, 66, 87
2, 52264, Note_on_c, 0, 87, 79
2, 52264, Note_on_c, 0, 61, 71
2, 52264, Note_on_c, 0, 57, 74
2, 52264, Note_on_c, 0, 63, 67
2, 52265, Note_on_c, 0, 75, 82
2, 52265, Note_on_c, 0, 82, 77
2, 52270, Control_c, 0, 64, 0
2, 52284, Note_on_c, 0, 57, 0
2, 52284, Note_on_c, 0, 66, 0
2, 52290, Note_on_c, 0, 61, 0
2, 52293, Note_on_c, 0, 63, 0
2, 52299, Note_on_c, 0, 87, 0
2, 52302, Note_on_c, 0, 75, 0
2, 52303, Note_on_c, 0, 82, 0
2, 52305, Control_c, 0, 64, 127
2, 52311, Note_on_c, 0, 86, 54
2, 52328, Note_on_c, 0, 86, 0
2, 52338, Note_on_c, 0, 87, 61
2, 52339, Note_on_c, 0, 75, 42
2, 52355, Note_on_c, 0, 75, 0
2, 52355, Note_on_c, 0, 87, 0
2, 52381, Note_on_c, 0, 87, 57
2, 52382, Note_on_c, 0, 75, 46
2, 52387, Note_on_c, 0, 82, 33
2, 52395, Note_on_c, 0, 75, 0
2, 52397, Note_on_c, 0, 87, 0
2, 52400, Note_on_c, 0, 82, 0
2, 52409, Note_on_c, 0, 56, 40
2, 52409, Note_on_c, 0, 46, 45
2, 52411, Note_on_c, 0, 77, 50
2, 52411, Note_on_c, 0, 82, 34
2, 52412, Note_on_c, 0, 89, 42
2, 52413, Control_c, 0, 64, 0
2, 52428, Note_on_c, 0, 82, 0
2, 52430, Note_on_c, 0, 46, 0
2, 52431, Note_on_c, 0, 89, 0
2, 52433, Note_on_c, 0, 77, 0
2, 52434, Note_on_c, 0, 56, 0
2, 52449, Note_on_c, 0, 89, 48
2, 52450, Note_on_c, 0, 77, 48
2, 52453, Note_on_c, 0, 82, 42
2, 52461, Note_on_c, 0, 89, 0
2, 52463, Note_on_c, 0, 77, 0
2, 52467, Control_c, 0, 64, 127
2, 52468, Note_on_c, 0, 82, 0
2, 52478, Note_on_c, 0, 87, 35
2, 52478, Note_on_c, 0, 82, 30
2, 52479, Note_on_c, 0, 75, 35
2, 52496, Note_on_c, 0, 82, 0
2, 52499, Note_on_c, 0, 75, 0
2, 52504, Note_on_c, 0, 87, 0
2, 52518, Note_on_c, 0, 87, 55
2, 52520, Note_on_c, 0, 75, 38
2, 52523, Note_on_c, 0, 82, 42
2, 52533, Note_on_c, 0, 87, 0
2, 52534, Note_on_c, 0, 75, 0
2, 52538, Note_on_c, 0, 82, 0
2, 52548, Note_on_c, 0, 61, 35
2, 52548, Note_on_c, 0, 85, 30
2, 52548, Note_on_c, 0, 65, 28
2, 52549, Note_on_c, 0, 56, 21
2, 52550, Note_on_c, 0, 60, 32
2, 52552, Note_on_c, 0, 73, 14
2, 52554, Control_c, 0, 64, 0
2, 52554, Note_on_c, 0, 80, 27
2, 52582, Control_c, 0, 64, 127
2, 52589, Note_on_c, 0, 85, 0
2, 52591, Note_on_c, 0, 80, 0
2, 52592, Note_on_c, 0, 73, 0
2, 52618, Note_on_c, 0, 85, 65
2, 52619, Note_on_c, 0, 73, 46
2, 52622, Note_on_c, 0, 80, 47
2, 52644, Note_on_c, 0, 60, 0
2, 52651, Note_on_c, 0, 65, 0
2, 52663, Note_on_c, 0, 61, 0
2, 52664, Note_on_c, 0, 80, 0
2, 52669, Note_on_c, 0, 85, 0
2, 52673, Note_on_c, 0, 73, 0
2, 52674, Note_on_c, 0, 56, 0
2, 52688, Control_c, 0, 64, 0
2, 52689, Note_on_c, 0, 61, 34
2, 52689, Note_on_c, 0, 84, 55
2, 52690, Note_on_c, 0, 72, 42
2, 52691, Note_on_c, 0, 79, 51
2, 52691, Note_on_c, 0, 64, 30
2, 52691, Note_on_c, 0, 55, 43
2, 52705, Control_c, 0, 64, 127
2, 52728, Note_on_c, 0, 64, 0
2, 52730, Note_on_c, 0, 84, 0
2, 52732, Note_on_c, 0, 79, 0
2, 52732, Note_on_c, 0, 61, 0
2, 52734, Note_on_c, 0, 55, 0
2, 52740, Note_on_c, 0, 72, 0
2, 52762, Note_on_c, 0, 82, 55
2, 52765, Note_on_c, 0, 70, 60
2, 52766, Note_on_c, 0, 75, 46
2, 52766, Note_on_c, 0, 79, 44
2, 52782, Note_on_c, 0, 79, 0
2, 52786, Note_on_c, 0, 75, 0
2, 52786, Note_on_c, 0, 82, 0
2, 52790, Note_on_c, 0, 70, 0
2, 52831, Note_on_c, 0, 59, 62
2, 52832, Note_on_c, 0, 61, 32
2, 52835, Note_on_c, 0, 45, 53
2, 52839, Control_c, 0, 64, 0
2, 52849, Note_on_c, 0, 64, 34
2, 52866, Control_c, 0, 64, 127
2, 52891, Note_on_c, 0, 45, 0
2, 52891, Note_on_c, 0, 61, 0
2, 52892, Note_on_c, 0, 59, 0
2, 52899, Note_on_c, 0, 64, 0
2, 52903, Note_on_c, 0, 61, 45
2, 52908, Note_on_c, 0, 55, 53
2, 52908, Note_on_c, 0, 45, 35
2, 52909, Note_on_c, 0, 59, 31
2, 52927, Note_on_c, 0, 59, 0
2, 52929, Note_on_c, 0, 45, 0
2, 52948, Note_on_c, 0, 55, 0
2, 52948, Note_on_c, 0, 61, 0
2, 52978, Note_on_c, 0, 44, 44
2, 52980, Note_on_c, 0, 51, 35
2, 52981, Note_on_c, 0, 58, 49
2, 52982, Control_c, 0, 64, 0
2, 52982, Note_on_c, 0, 60, 52
2, 52983, Note_on_c, 0, 55, 49
2, 52993, Control_c, 0, 64, 127
2, 52994, Note_on_c, 0, 60, 0
2, 52997, Note_on_c, 0, 55, 0
2, 52998, Note_on_c, 0, 58, 0
2, 53001, Note_on_c, 0, 51, 0
2, 53032, Note_on_c, 0, 48, 46
2, 53037, Control_c, 0, 64, 0
2, 53040, Note_on_c, 0, 48, 0
2, 53042, Note_on_c, 0, 51, 44
2, 53057, Note_on_c, 0, 55, 47
2, 53058, Note_on_c, 0, 51, 0
2, 53070, Note_on_c, 0, 55, 0
2, 53071, Note_on_c, 0, 58, 62
2, 53085, Note_on_c, 0, 58, 0
2, 53087, Note_on_c, 0, 55, 69
2, 53095, Note_on_c, 0, 55, 0
2, 53100, Note_on_c, 0, 51, 28
2, 53102, Note_on_c, 0, 44, 0
2, 53107, Note_on_c, 0, 56, 20
2, 53118, Note_on_c, 0, 56, 0
2, 53120, Note_on_c, 0, 58, 43
2, 53129, Note_on_c, 0, 58, 0
2, 53141, Note_on_c, 0, 60, 38
2, 53156, Note_on_c, 0, 51, 0
2, 53158, Note_on_c, 0, 60, 0
2, 53172, Note_on_c, 0, 62, 64
2, 53183, Note_on_c, 0, 62, 0
2, 53193, Note_on_c, 0, 63, 59
2, 53202, Note_on_c, 0, 63, 0
2, 53211, Note_on_c, 0, 65, 53
2, 53228, Note_on_c, 0, 65, 0
2, 53229, Note_on_c, 0, 67, 59
2, 53230, Control_c, 0, 64, 127
2, 53245, Note_on_c, 0, 67, 0
2, 53246, Note_on_c, 0, 68, 42
2, 53249, Control_c, 0, 64, 0
2, 53257, Note_on_c, 0, 55, 22
2, 53260, Note_on_c, 0, 68, 0
2, 53263, Note_on_c, 0, 70, 54
2, 53267, Note_on_c, 0, 55, 0
2, 53279, Note_on_c, 0, 70, 0
2, 53292, Note_on_c, 0, 72, 48
2, 53303, Note_on_c, 0, 72, 0
2, 53322, Note_on_c, 0, 73, 42
2, 53332, Note_on_c, 0, 73, 0
2, 53342, Control_c, 0, 64, 127
2, 53355, Note_on_c, 0, 75, 64
2, 53372, Note_on_c, 0, 75, 0
2, 53387, Note_on_c, 0, 63, 47
2, 53390, Note_on_c, 0, 77, 54
2, 53392, Control_c, 0, 64, 0
2, 53392, Note_on_c, 0, 56, 25
2, 53392, Note_on_c, 0, 60, 32
2, 53400, Note_on_c, 0, 60, 0
2, 53400, Note_on_c, 0, 63, 0
2, 53406, Note_on_c, 0, 56, 0
2, 53407, Note_on_c, 0, 77, 0
2, 53426, Note_on_c, 0, 79, 48
2, 53430, Control_c, 0, 64, 127
2, 53439, Note_on_c, 0, 79, 0
2, 53456, Note_on_c, 0, 80, 48
2, 53471, Note_on_c, 0, 80, 0
2, 53489, Note_on_c, 0, 82, 56
2, 53509, Note_on_c, 0, 82, 0
2, 53523, Note_on_c, 0, 43, 50
2, 53525, Note_on_c, 0, 72, 31
2, 53525, Note_on_c, 0, 84, 36
2, 53525, Note_on_c, 0, 55, 46
2, 53529, Control_c, 0, 64, 0
2, 53530, Note_on_c, 0, 43, 0
2, 53532, Note_on_c, 0, 55, 0
2, 53536, Note_on_c, 0, 84, 0
2, 53540, Note_on_c, 0, 72, 0
2, 53562, Note_on_c, 0, 85, 45
2, 53562, Note_on_c, 0, 73, 28
2, 53574, Note_on_c, 0, 85, 0
2, 53575, Note_on_c, 0, 73, 0
2, 53595, Note_on_c, 0, 87, 71
2, 53596, Note_on_c, 0, 75, 53
2, 53608, Note_on_c, 0, 75, 0
2, 53608, Note_on_c, 0, 87, 0
2, 53620, Control_c, 0, 64, 127
2, 53629, Note_on_c, 0, 85, 69
2, 53630, Note_on_c, 0, 73, 57
2, 53645, Note_on_c, 0, 85, 0
2, 53650, Note_on_c, 0, 73, 0
2, 53657, Note_on_c, 0, 61, 40
2, 53658, Note_on_c, 0, 53, 38
2, 53659, Note_on_c, 0, 84, 63
2, 53660, Control_c, 0, 64, 0
2, 53661, Note_on_c, 0, 72, 49
2, 53662, Note_on_c, 0, 55, 44
2, 53670, Note_on_c, 0, 55, 0
2, 53670, Note_on_c, 0, 61, 0
2, 53671, Note_on_c, 0, 53, 0
2, 53677, Note_on_c, 0, 72, 0
2, 53678, Note_on_c, 0, 84, 0
2, 53693, Note_on_c, 0, 82, 64
2, 53718, Note_on_c, 0, 80, 47
2, 53726, Note_on_c, 0, 82, 0
2, 53733, Note_on_c, 0, 80, 0
2, 53733, Note_on_c, 0, 78, 37
2, 53745, Note_on_c, 0, 78, 0
2, 53749, Note_on_c, 0, 76, 43
2, 53756, Note_on_c, 0, 76, 0
2, 53761, Note_on_c, 0, 75, 38
2, 53762, Control_c, 0, 64, 127
2, 53771, Note_on_c, 0, 75, 0
2, 53775, Note_on_c, 0, 74, 34
2, 53787, Note_on_c, 0, 58, 27
2, 53788, Note_on_c, 0, 48, 33
2, 53790, Note_on_c, 0, 74, 0
2, 53795, Note_on_c, 0, 72, 37
2, 53796, Control_c, 0, 64, 0
2, 53800, Note_on_c, 0, 58, 0
2, 53802, Note_on_c, 0, 72, 0
2, 53806, Note_on_c, 0, 48, 0
2, 53813, Note_on_c, 0, 70, 48
2, 53826, Note_on_c, 0, 68, 25
2, 53827, Note_on_c, 0, 70, 0
2, 53833, Note_on_c, 0, 68, 0
2, 53833, Note_on_c, 0, 66, 51
2, 53841, Note_on_c, 0, 66, 0
2, 53849, Note_on_c, 0, 64, 40
2, 53855, Note_on_c, 0, 64, 0
2, 53870, Note_on_c, 0, 62, 31
2, 53883, Note_on_c, 0, 62, 0
2, 53884, Note_on_c, 0, 61, 49
2, 53899, Note_on_c, 0, 61, 0
2, 53901, Control_c, 0, 64, 127
2, 53902, Note_on_c, 0, 60, 48
2, 53907, Note_on_c, 0, 60, 0
2, 53917, Note_on_c, 0, 58, 55
2, 53919, Note_on_c, 0, 48, 34
2, 53927, Note_on_c, 0, 48, 0
2, 53930, Control_c, 0, 64, 0
2, 53933, Note_on_c, 0, 56, 51
2, 53936, Note_on_c, 0, 58, 0
2, 53945, Note_on_c, 0, 54, 49
2, 53949, Note_on_c, 0, 56, 0
2, 53961, Note_on_c, 0, 54, 0
2, 53962, Note_on_c, 0, 52, 53
2, 53976, Note_on_c, 0, 52, 0
2, 53985, Note_on_c, 0, 51, 42
2, 54000, Note_on_c, 0, 51, 0
2, 54004, Note_on_c, 0, 50, 32
2, 54012, Note_on_c, 0, 50, 0
2, 54014, Control_c, 0, 64, 127
2, 54015, Note_on_c, 0, 49, 53
2, 54028, Note_on_c, 0, 49, 0
2, 54032, Note_on_c, 0, 48, 34
2, 54035, Note_on_c, 0, 47, 57
2, 54037, Note_on_c, 0, 48, 0
2, 54050, Note_on_c, 0, 47, 0
2, 54058, Note_on_c, 0, 44, 74
2, 54060, Control_c, 0, 64, 0
2, 54062, Note_on_c, 0, 41, 54
2, 54072, Note_on_c, 0, 43, 36
2, 54080, Note_on_c, 0, 43, 0
2, 54088, Note_on_c, 0, 44, 0
2, 54095, Control_c, 0, 64, 127
2, 54099, Note_on_c, 0, 29, 62
2, 54114, Note_on_c, 0, 41, 0
2, 54116, Note_on_c, 0, 29, 0
2, 54212, Note_on_c, 0, 63, 60
2, 54213, Note_on_c, 0, 60, 64
2, 54213, Note_on_c, 0, 53, 49
2, 54214, Note_on_c, 0, 56, 49
2, 54255, Note_on_c, 0, 65, 90
2, 54273, Note_on_c, 0, 65, 0
2, 54279, Note_on_c, 0, 60, 0
2, 54280, Note_on_c, 0, 63, 0
2, 54282, Note_on_c, 0, 68, 58
2, 54284, Note_on_c, 0, 69, 88
2, 54288, Note_on_c, 0, 53, 0
2, 54298, Note_on_c, 0, 69, 0
2, 54299, Note_on_c, 0, 56, 0
2, 54302, Note_on_c, 0, 68, 0
2, 54309, Note_on_c, 0, 72, 74
2, 54323, Note_on_c, 0, 72, 0
2, 54337, Note_on_c, 0, 70, 90
2, 54338, Note_on_c, 0, 80, 71
2, 54341, Note_on_c, 0, 81, 59
2, 54346, Note_on_c, 0, 81, 0
2, 54349, Note_on_c, 0, 70, 0
2, 54351, Note_on_c, 0, 80, 0
2, 54368, Note_on_c, 0, 82, 83
2, 54368, Note_on_c, 0, 70, 83
2, 54369, Note_on_c, 0, 75, 60
2, 54371, Note_on_c, 0, 64, 67
2, 54371, Note_on_c, 0, 59, 72
2, 54373, Note_on_c, 0, 54, 55
2, 54374, Note_on_c, 0, 75, 0
2, 54376, Note_on_c, 0, 76, 34
2, 54378, Note_on_c, 0, 83, 53
2, 54378, Control_c, 0, 64, 0
2, 54381, Note_on_c, 0, 79, 28
2, 54382, Note_on_c, 0, 71, 76
2, 54383, Note_on_c, 0, 70, 0
2, 54414, Control_c, 0, 64, 127
2, 54423, Note_on_c, 0, 82, 0
2, 54424, Note_on_c, 0, 83, 0
2, 54434, Note_on_c, 0, 71, 0
2, 54441, Note_on_c, 0, 76, 0
2, 54443, Note_on_c, 0, 79, 0
2, 54462, Note_on_c, 0, 82, 59
2, 54463, Note_on_c, 0, 70, 70
2, 54466, Note_on_c, 0, 76, 55
2, 54469, Note_on_c, 0, 79, 30
2, 54477, Note_on_c, 0, 64, 0
2, 54484, Note_on_c, 0, 59, 0
2, 54487, Note_on_c, 0, 79, 0
2, 54491, Note_on_c, 0, 76, 0
2, 54497, Note_on_c, 0, 82, 0
2, 54497, Note_on_c, 0, 54, 0
2, 54500, Note_on_c, 0, 70, 0
2, 54527, Note_on_c, 0, 59, 44
2, 54528, Control_c, 0, 64, 0
2, 54528, Note_on_c, 0, 53, 48
2, 54528, Note_on_c, 0, 63, 49
2, 54529, Note_on_c, 0, 80, 40
2, 54530, Note_on_c, 0, 75, 50
2, 54532, Note_on_c, 0, 68, 30
2, 54546, Control_c, 0, 64, 127
2, 54567, Note_on_c, 0, 75, 0
2, 54571, Note_on_c, 0, 80, 0
2, 54572, Note_on_c, 0, 68, 0
2, 54581, Note_on_c, 0, 53, 0
2, 54589, Note_on_c, 0, 63, 0
2, 54606, Note_on_c, 0, 59, 0
2, 54621, Note_on_c, 0, 53, 54
2, 54629, Note_on_c, 0, 53, 0
2, 54685, Note_on_c, 0, 49, 30
2, 54690, Note_on_c, 0, 49, 0
2, 54730, Control_c, 0, 64, 0
2, 54735, Note_on_c, 0, 41, 74
2, 54736, Note_on_c, 0, 80, 69
2, 54736, Note_on_c, 0, 84, 81
2, 54736, Note_on_c, 0, 72, 83
2, 54744, Control_c, 0, 64, 127
2, 54755, Note_on_c, 0, 72, 0
2, 54757, Note_on_c, 0, 84, 0
2, 54759, Note_on_c, 0, 80, 0
2, 54767, Note_on_c, 0, 41, 0
2, 54779, Note_on_c, 0, 87, 78
2, 54779, Note_on_c, 0, 75, 75
2, 54796, Note_on_c, 0, 87, 0
2, 54801, Note_on_c, 0, 75, 0
2, 54829, Note_on_c, 0, 56, 44
2, 54830, Note_on_c, 0, 65, 48
2, 54830, Note_on_c, 0, 61, 37
2, 54830, Note_on_c, 0, 60, 55
2, 54831, Note_on_c, 0, 89, 71
2, 54832, Control_c, 0, 64, 0
2, 54832, Note_on_c, 0, 77, 56
2, 54833, Note_on_c, 0, 84, 58
2, 54850, Control_c, 0, 64, 127
2, 54860, Note_on_c, 0, 89, 0
2, 54861, Note_on_c, 0, 84, 0
2, 54869, Note_on_c, 0, 77, 0
2, 54876, Note_on_c, 0, 60, 0
2, 54884, Note_on_c, 0, 65, 0
2, 54888, Note_on_c, 0, 61, 0
2, 54895, Note_on_c, 0, 56, 0
2, 54915, Note_on_c, 0, 83, 51
2, 54915, Note_on_c, 0, 71, 50
2, 54915, Note_on_c, 0, 61, 40
2, 54919, Note_on_c, 0, 55, 35
2, 54925, Note_on_c, 0, 55, 0
2, 54929, Note_on_c, 0, 71, 0
2, 54930, Note_on_c, 0, 83, 0
2, 54935, Note_on_c, 0, 61, 0
2, 54962, Control_c, 0, 64, 0
2, 54967, Note_on_c, 0, 72, 42
2, 54968, Note_on_c, 0, 60, 49
2, 54968, Note_on_c, 0, 63, 40
2, 54969, Note_on_c, 0, 84, 45
2, 54971, Note_on_c, 0, 58, 34
2, 54973, Note_on_c, 0, 53, 24
2, 54973, Note_on_c, 0, 77, 25
2, 54982, Control_c, 0, 64, 127
2, 54993, Note_on_c, 0, 77, 0
2, 54995, Note_on_c, 0, 72, 0
2, 54998, Note_on_c, 0, 84, 0
2, 55000, Note_on_c, 0, 63, 0
2, 55001, Note_on_c, 0, 60, 0
2, 55001, Note_on_c, 0, 53, 0
2, 55011, Note_on_c, 0, 58, 0
2, 55020, Note_on_c, 0, 75, 42
2, 55021, Note_on_c, 0, 87, 48
2, 55029, Note_on_c, 0, 75, 0
2, 55031, Note_on_c, 0, 87, 0
2, 55108, Note_on_c, 0, 44, 37
2, 55130, Note_on_c, 0, 44, 0
2, 55245, Note_on_c, 0, 69, 49
2, 55247, Note_on_c, 0, 43, 35
2, 55250, Note_on_c, 0, 70, 46
2, 55251, Note_on_c, 0, 50, 26
2, 55253, Note_on_c, 0, 69, 0
2, 55263, Note_on_c, 0, 70, 0
2, 55263, Control_c, 0, 64, 0
2, 55265, Note_on_c, 0, 71, 44
2, 55284, Note_on_c, 0, 71, 0
2, 55294, Note_on_c, 0, 74, 55
2, 55314, Note_on_c, 0, 74, 0
2, 55325, Control_c, 0, 64, 127
2, 55326, Note_on_c, 0, 76, 66
2, 55341, Note_on_c, 0, 76, 0
2, 55342, Note_on_c, 0, 50, 0
2, 55346, Note_on_c, 0, 43, 0
2, 55360, Note_on_c, 0, 79, 63
2, 55373, Note_on_c, 0, 79, 0
2, 55394, Note_on_c, 0, 41, 45
2, 55399, Note_on_c, 0, 82, 70
2, 55400, Note_on_c, 0, 57, 40
2, 55404, Control_c, 0, 64, 0
2, 55413, Note_on_c, 0, 83, 50
2, 55416, Note_on_c, 0, 82, 0
2, 55435, Note_on_c, 0, 83, 0
2, 55440, Note_on_c, 0, 86, 90
2, 55441, Control_c, 0, 64, 127
2, 55448, Note_on_c, 0, 57, 0
2, 55454, Note_on_c, 0, 41, 0
2, 55463, Note_on_c, 0, 86, 0
2, 55474, Note_on_c, 0, 86, 76
2, 55493, Note_on_c, 0, 86, 0
2, 55506, Note_on_c, 0, 86, 79
2, 55524, Note_on_c, 0, 86, 0
2, 55534, Note_on_c, 0, 40, 49
2, 55539, Note_on_c, 0, 82, 48
2, 55539, Control_c, 0, 64, 0
2, 55541, Note_on_c, 0, 86, 28
2, 55546, Note_on_c, 0, 82, 0
2, 55547, Note_on_c, 0, 83, 48
2, 55574, Note_on_c, 0, 83, 0
2, 55579, Control_c, 0, 64, 127
2, 55580, Note_on_c, 0, 76, 41
2, 55590, Note_on_c, 0, 40, 0
2, 55617, Note_on_c, 0, 76, 0
2, 55620, Note_on_c, 0, 79, 54
2, 55641, Note_on_c, 0, 86, 0
2, 55678, Note_on_c, 0, 62, 58
2, 55680, Note_on_c, 0, 59, 41
2, 55683, Control_c, 0, 64, 0
2, 55683, Note_on_c, 0, 55, 50
2, 55685, Note_on_c, 0, 52, 34
2, 55696, Control_c, 0, 64, 127
2, 55720, Note_on_c, 0, 52, 0
2, 55722, Note_on_c, 0, 55, 0
2, 55723, Note_on_c, 0, 59, 0
2, 55731, Note_on_c, 0, 62, 0
2, 55732, Note_on_c, 0, 79, 0
2, 55777, Note_on_c, 0, 86, 80
2, 55778, Note_on_c, 0, 84, 81
2, 55786, Note_on_c, 0, 84, 0
2, 55789, Note_on_c, 0, 86, 0
2, 55826, Note_on_c, 0, 66, 90
2, 55826, Note_on_c, 0, 55, 88
2, 55826, Note_on_c, 0, 61, 79
2, 55828, Note_on_c, 0, 87, 84
2, 55828, Note_on_c, 0, 83, 85
2, 55828, Note_on_c, 0, 95, 80
2, 55829, Note_on_c, 0, 90, 71
2, 55830, Note_on_c, 0, 93, 70
2, 55833, Control_c, 0, 64, 0
2, 55834, Note_on_c, 0, 93, 0
2, 55836, Note_on_c, 0, 87, 0
2, 55840, Note_on_c, 0, 90, 0
2, 55846, Note_on_c, 0, 93, 15
2, 55855, Control_c, 0, 64, 127
2, 55882, Note_on_c, 0, 95, 0
2, 55888, Note_on_c, 0, 93, 0
2, 55894, Note_on_c, 0, 83, 0
2, 55921, Note_on_c, 0, 94, 74
2, 55923, Note_on_c, 0, 82, 67
2, 55947, Note_on_c, 0, 55, 0
2, 55953, Note_on_c, 0, 94, 0
2, 55960, Note_on_c, 0, 82, 0
2, 55963, Note_on_c, 0, 66, 0
2, 55964, Note_on_c, 0, 61, 0
2, 55976, Note_on_c, 0, 54, 47
2, 55976, Note_on_c, 0, 65, 52
2, 55977, Note_on_c, 0, 93, 67
2, 55977, Note_on_c, 0, 60, 55
2, 55978, Control_c, 0, 64, 0
2, 55979, Note_on_c, 0, 81, 50
2, 55995, Control_c, 0, 64, 127
2, 56057, Note_on_c, 0, 60, 0
2, 56058, Note_on_c, 0, 65, 0
2, 56070, Note_on_c, 0, 93, 0
2, 56079, Note_on_c, 0, 54, 0
2, 56083, Note_on_c, 0, 81, 0
2, 56118, Control_c, 0, 64, 0
2, 56121, Note_on_c, 0, 91, 39
2, 56121, Note_on_c, 0, 64, 37
2, 56122, Note_on_c, 0, 79, 39
2, 56122, Note_on_c, 0, 86, 57
2, 56123, Note_on_c, 0, 59, 50
2, 56129, Control_c, 0, 64, 127
2, 56144, Note_on_c, 0, 86, 0
2, 56144, Note_on_c, 0, 91, 0
2, 56152, Note_on_c, 0, 64, 0
2, 56156, Note_on_c, 0, 79, 0
2, 56156, Note_on_c, 0, 59, 0
2, 56215, Note_on_c, 0, 46, 48
2, 56262, Control_c, 0, 64, 0
2, 56265, Note_on_c, 0, 71, 35
2, 56268, Note_on_c, 0, 62, 44
2, 56268, Note_on_c, 0, 66, 47
2, 56269, Note_on_c, 0, 56, 38
2, 56281, Control_c, 0, 64, 127
2, 56320, Note_on_c, 0, 46, 0
2, 56361, Note_on_c, 0, 46, 38
2, 56364, Note_on_c, 0, 62, 0
2, 56368, Note_on_c, 0, 71, 0
2, 56377, Note_on_c, 0, 66, 0
2, 56383, Note_on_c, 0, 56, 0
2, 56415, Note_on_c, 0, 46, 0
2, 56482, Note_on_c, 0, 72, 61
2, 56483, Note_on_c, 0, 63, 72
2, 56483, Note_on_c, 0, 51, 47
2, 56483, Note_on_c, 0, 70, 64
2, 56485, Control_c, 0, 64, 0
2, 56485, Note_on_c, 0, 67, 66
2, 56487, Note_on_c, 0, 55, 49
2, 56507, Control_c, 0, 64, 127
2, 56516, Note_on_c, 0, 72, 0
2, 56528, Note_on_c, 0, 70, 0
2, 56531, Note_on_c, 0, 72, 60
2, 56536, Note_on_c, 0, 70, 25
2, 56541, Note_on_c, 0, 55, 0
2, 56549, Note_on_c, 0, 51, 0
2, 56553, Note_on_c, 0, 72, 0
2, 56560, Note_on_c, 0, 70, 0
2, 56561, Note_on_c, 0, 63, 0
2, 56563, Note_on_c, 0, 67, 0
2, 56573, Note_on_c, 0, 72, 67
2, 56596, Note_on_c, 0, 72, 0
2, 56616, Note_on_c, 0, 72, 70
2, 56633, Note_on_c, 0, 72, 0
2, 56657, Note_on_c, 0, 72, 71
2, 56678, Note_on_c, 0, 72, 0
2, 56700, Note_on_c, 0, 54, 72
2, 56701, Note_on_c, 0, 72, 72
2, 56702, Note_on_c, 0, 68, 81
2, 56702, Note_on_c, 0, 64, 90
2, 56704, Control_c, 0, 64, 0
2, 56724, Control_c, 0, 64, 127
2, 56735, Note_on_c, 0, 54, 0
2, 56774, Note_on_c, 0, 30, 63
2, 56788, Note_on_c, 0, 30, 0
2, 56833, Note_on_c, 0, 68, 0
2, 56837, Note_on_c, 0, 64, 0
2, 56849, Note_on_c, 0, 72, 0
2, 56854, Note_on_c, 0, 68, 53
2, 56857, Note_on_c, 0, 64, 49
2, 56857, Note_on_c, 0, 58, 49
2, 56865, Note_on_c, 0, 58, 0
2, 56924, Note_on_c, 0, 64, 0
2, 56995, Note_on_c, 0, 68, 0
2, 57006, Note_on_c, 0, 70, 57
2, 57006, Note_on_c, 0, 67, 71
2, 57007, Note_on_c, 0, 63, 62
2, 57036, Control_c, 0, 64, 0
2, 57052, Note_on_c, 0, 41, 76
2, 57063, Control_c, 0, 64, 127
2, 57082, Note_on_c, 0, 41, 0
2, 57096, Note_on_c, 0, 63, 0
2, 57122, Note_on_c, 0, 67, 0
2, 57134, Note_on_c, 0, 70, 0
2, 57155, Note_on_c, 0, 53, 44
2, 57155, Note_on_c, 0, 60, 57
2, 57155, Note_on_c, 0, 63, 53
2, 57158, Note_on_c, 0, 56, 38
2, 57231, Note_on_c, 0, 53, 0
2, 57233, Note_on_c, 0, 60, 0
2, 57241, Note_on_c, 0, 63, 0
2, 57244, Note_on_c, 0, 56, 0
2, 57251, Note_on_c, 0, 87, 88
2, 57252, Note_on_c, 0, 75, 94
2, 57272, Note_on_c, 0, 87, 0
2, 57277, Note_on_c, 0, 75, 0
2, 57302, Note_on_c, 0, 85, 51
2, 57304, Note_on_c, 0, 73, 51
2, 57305, Note_on_c, 0, 79, 57
2, 57306, Note_on_c, 0, 82, 34
2, 57307, Note_on_c, 0, 67, 66
2, 57308, Note_on_c, 0, 56, 55
2, 57308, Control_c, 0, 64, 0
2, 57309, Note_on_c, 0, 86, 53
2, 57309, Note_on_c, 0, 62, 47
2, 57328, Note_on_c, 0, 73, 0
2, 57328, Note_on_c, 0, 74, 45
2, 57336, Note_on_c, 0, 85, 0
2, 57337, Control_c, 0, 64, 127
2, 57371, Note_on_c, 0, 86, 0
2, 57374, Note_on_c, 0, 74, 0
2, 57378, Note_on_c, 0, 67, 0
2, 57380, Note_on_c, 0, 79, 0
2, 57380, Note_on_c, 0, 82, 0
2, 57385, Note_on_c, 0, 62, 0
2, 57393, Note_on_c, 0, 56, 0
2, 57404, Note_on_c, 0, 84, 47
2, 57405, Note_on_c, 0, 72, 38
2, 57408, Note_on_c, 0, 79, 25
2, 57413, Note_on_c, 0, 84, 0
2, 57415, Note_on_c, 0, 79, 0
2, 57425, Note_on_c, 0, 72, 0
2, 57458, Note_on_c, 0, 46, 33
2, 57458, Note_on_c, 0, 56, 25
2, 57460, Note_on_c, 0, 82, 23
2, 57460, Note_on_c, 0, 70, 40
2, 57465, Control_c, 0, 64, 0
2, 57470, Note_on_c, 0, 77, 30
2, 57484, Control_c, 0, 64, 127
2, 57490, Note_on_c, 0, 77, 0
2, 57493, Note_on_c, 0, 82, 0
2, 57501, Note_on_c, 0, 70, 0
2, 57530, Note_on_c, 0, 56, 0
2, 57534, Note_on_c, 0, 46, 0
2, 57550, Note_on_c, 0, 68, 34
2, 57560, Note_on_c, 0, 68, 0
2, 57665, Note_on_c, 0, 79, 61
2, 57665, Note_on_c, 0, 70, 50
2, 57667, Note_on_c, 0, 67, 50
2, 57667, Note_on_c, 0, 74, 60
2, 57671, Control_c, 0, 64, 0
2, 57672, Note_on_c, 0, 55, 27
2, 57680, Note_on_c, 0, 55, 0
2, 57686, Control_c, 0, 64, 127
2, 57704, Note_on_c, 0, 67, 0
2, 57707, Note_on_c, 0, 74, 0
2, 57710, Note_on_c, 0, 70, 0
2, 57718, Note_on_c, 0, 79, 0
2, 57749, Note_on_c, 0, 79, 53
2, 57749, Note_on_c, 0, 75, 50
2, 57750, Note_on_c, 0, 58, 35
2, 57750, Note_on_c, 0, 70, 39
2, 57756, Control_c, 0, 64, 0
2, 57771, Control_c, 0, 64, 127
2, 57794, Note_on_c, 0, 79, 0
2, 57799, Note_on_c, 0, 48, 58
2, 57810, Note_on_c, 0, 75, 0
2, 57816, Note_on_c, 0, 58, 0
2, 57821, Note_on_c, 0, 70, 0
2, 57824, Note_on_c, 0, 48, 0
2, 57944, Note_on_c, 0, 63, 46
2, 57944, Note_on_c, 0, 61, 46
2, 57944, Note_on_c, 0, 57, 42
2, 57945, Note_on_c, 0, 59, 48
2, 57945, Note_on_c, 0, 45, 55
2, 57952, Control_c, 0, 64, 0
2, 57955, Note_on_c, 0, 57, 0
2, 57956, Note_on_c, 0, 59, 0
2, 57959, Note_on_c, 0, 63, 0
2, 57959, Note_on_c, 0, 61, 0
2, 57959, Note_on_c, 0, 45, 0
2, 57993, Note_on_c, 0, 57, 50
2, 57993, Note_on_c, 0, 61, 42
2, 57994, Note_on_c, 0, 63, 45
2, 57995, Note_on_c, 0, 45, 49
2, 57995, Note_on_c, 0, 59, 51
2, 58004, Note_on_c, 0, 59, 0
2, 58005, Note_on_c, 0, 57, 0
2, 58009, Note_on_c, 0, 61, 0
2, 58009, Note_on_c, 0, 63, 0
2, 58009, Note_on_c, 0, 45, 0
2, 58073, Note_on_c, 0, 45, 61
2, 58074, Control_c, 0, 64, 127
2, 58074, Note_on_c, 0, 57, 60
2, 58075, Note_on_c, 0, 63, 47
2, 58076, Note_on_c, 0, 61, 36
2, 58079, Note_on_c, 0, 59, 32
2, 58087, Note_on_c, 0, 45, 0
2, 58088, Note_on_c, 0, 57, 0
2, 58088, Note_on_c, 0, 59, 0
2, 58091, Note_on_c, 0, 61, 0
2, 58092, Note_on_c, 0, 63, 0
2, 58107, Note_on_c, 0, 63, 47
2, 58107, Note_on_c, 0, 57, 50
2, 58108, Note_on_c, 0, 61, 37
2, 58108, Note_on_c, 0, 59, 55
2, 58108, Note_on_c, 0, 45, 65
2, 58121, Note_on_c, 0, 59, 0
2, 58124, Note_on_c, 0, 61, 0
2, 58124, Note_on_c, 0, 45, 0
2, 58127, Note_on_c, 0, 57, 0
2, 58134, Note_on_c, 0, 63, 0
2, 58146, Control_c, 0, 64, 0
2, 58148, Note_on_c, 0, 63, 56
2, 58149, Note_on_c, 0, 55, 74
2, 58149, Note_on_c, 0, 60, 66
2, 58150, Note_on_c, 0, 58, 60
2, 58151, Note_on_c, 0, 44, 49
2, 58152, Note_on_c, 0, 51, 53
2, 58162, Control_c, 0, 64, 127
2, 58177, Note_on_c, 0, 55, 0
2, 58181, Note_on_c, 0, 60, 0
2, 58185, Note_on_c, 0, 63, 0
2, 58189, Note_on_c, 0, 58, 0
2, 58231, Note_on_c, 0, 60, 89
2, 58232, Note_on_c, 0, 65, 74
2, 58235, Note_on_c, 0, 51, 0
2, 58235, Note_on_c, 0, 53, 66
2, 58237, Note_on_c, 0, 44, 0
2, 58242, Note_on_c, 0, 60, 0
2, 58244, Note_on_c, 0, 65, 0
2, 58248, Note_on_c, 0, 53, 0
2, 58286, Note_on_c, 0, 72, 77
2, 58286, Note_on_c, 0, 63, 91
2, 58286, Note_on_c, 0, 68, 77
2, 58287, Note_on_c, 0, 56, 67
2, 58291, Note_on_c, 0, 66, 26
2, 58296, Note_on_c, 0, 66, 0
2, 58339, Note_on_c, 0, 68, 0
2, 58340, Note_on_c, 0, 72, 0
2, 58344, Note_on_c, 0, 56, 0
2, 58347, Note_on_c, 0, 63, 0
2, 58372, Note_on_c, 0, 72, 59
2, 58374, Note_on_c, 0, 63, 67
2, 58375, Note_on_c, 0, 68, 55
2, 58384, Note_on_c, 0, 72, 0
2, 58390, Note_on_c, 0, 68, 0
2, 58396, Note_on_c, 0, 63, 0
2, 58422, Control_c, 0, 64, 0
2, 58425, Note_on_c, 0, 70, 60
2, 58426, Note_on_c, 0, 62, 60
2, 58427, Note_on_c, 0, 65, 59
2, 58428, Note_on_c, 0, 43, 48
2, 58429, Note_on_c, 0, 67, 50
2, 58429, Note_on_c, 0, 53, 44
2, 58442, Control_c, 0, 64, 127
2, 58459, Note_on_c, 0, 67, 0
2, 58482, Note_on_c, 0, 65, 0
2, 58497, Note_on_c, 0, 62, 0
2, 58497, Note_on_c, 0, 53, 0
2, 58507, Note_on_c, 0, 70, 0
2, 58512, Note_on_c, 0, 43, 0
2, 58523, Note_on_c, 0, 67, 67
2, 58534, Note_on_c, 0, 67, 0
2, 58612, Note_on_c, 0, 63, 60
2, 58614, Control_c, 0, 64, 0
2, 58614, Note_on_c, 0, 30, 38
2, 58614, Note_on_c, 0, 52, 41
2, 58614, Note_on_c, 0, 42, 35
2, 58615, Note_on_c, 0, 58, 52
2, 58631, Control_c, 0, 64, 127
2, 58644, Note_on_c, 0, 52, 0
2, 58648, Note_on_c, 0, 63, 0
2, 58657, Note_on_c, 0, 60, 55
2, 58661, Note_on_c, 0, 42, 0
2, 58662, Note_on_c, 0, 30, 0
2, 58672, Note_on_c, 0, 58, 0
2, 58675, Note_on_c, 0, 60, 0
2, 58711, Control_c, 0, 64, 0
2, 58715, Note_on_c, 0, 29, 33
2, 58717, Note_on_c, 0, 63, 30
2, 58764, Control_c, 0, 64, 127
2, 58772, Note_on_c, 0, 59, 48
2, 58772, Note_on_c, 0, 57, 40
2, 58776, Note_on_c, 0, 41, 43
2, 58783, Note_on_c, 0, 57, 0
2, 58787, Note_on_c, 0, 29, 0
2, 58788, Note_on_c, 0, 59, 0
2, 58795, Note_on_c, 0, 63, 0
2, 58797, Note_on_c, 0, 41, 0
2, 58861, Note_on_c, 0, 74, 60
2, 58864, Note_on_c, 0, 67, 55
2, 58864, Note_on_c, 0, 63, 45
2, 58866, Note_on_c, 0, 62, 41
2, 58866, Note_on_c, 0, 71, 36
2, 58920, Note_on_c, 0, 63, 0
2, 58921, Note_on_c, 0, 71, 0
2, 58922, Note_on_c, 0, 67, 0
2, 58926, Note_on_c, 0, 74, 0
2, 58935, Note_on_c, 0, 62, 0
2, 58937, Note_on_c, 0, 63, 49
2, 58937, Note_on_c, 0, 72, 53
2, 58938, Note_on_c, 0, 60, 51
2, 58939, Note_on_c, 0, 67, 39
2, 58945, Note_on_c, 0, 60, 0
2, 58974, Note_on_c, 0, 67, 0
2, 58974, Note_on_c, 0, 72, 0
2, 58983, Note_on_c, 0, 63, 0
2, 59006, Note_on_c, 0, 71, 72
2, 59007, Note_on_c, 0, 63, 62
2, 59008, Note_on_c, 0, 53, 39
2, 59009, Note_on_c, 0, 67, 63
2, 59009, Note_on_c, 0, 59, 47
2, 59010, Control_c, 0, 64, 0
2, 59028, Control_c, 0, 64, 127
2, 59042, Note_on_c, 0, 59, 0
2, 59059, Note_on_c, 0, 63, 0
2, 59060, Note_on_c, 0, 67, 0
2, 59065, Note_on_c, 0, 71, 0
2, 59081, Note_on_c, 0, 74, 76
2, 59082, Note_on_c, 0, 63, 69
2, 59082, Note_on_c, 0, 67, 73
2, 59085, Note_on_c, 0, 62, 69
2, 59135, Note_on_c, 0, 67, 0
2, 59135, Note_on_c, 0, 63, 0
2, 59141, Note_on_c, 0, 74, 0
2, 59144, Note_on_c, 0, 62, 0
2, 59151, Control_c, 0, 64, 0
2, 59156, Note_on_c, 0, 63, 62
2, 59156, Note_on_c, 0, 72, 55
2, 59156, Note_on_c, 0, 67, 74
2, 59159, Note_on_c, 0, 60, 64
2, 59160, Note_on_c, 0, 53, 0
2, 59162, Control_c, 0, 64, 127
2, 59229, Note_on_c, 0, 72, 0
2, 59232, Note_on_c, 0, 53, 52
2, 59233, Note_on_c, 0, 67, 0
2, 59234, Note_on_c, 0, 60, 0
2, 59246, Note_on_c, 0, 63, 0
2, 59248, Note_on_c, 0, 53, 0
2, 59325, Note_on_c, 0, 63, 69
2, 59327, Control_c, 0, 64, 0
2, 59327, Note_on_c, 0, 60, 73
2, 59327, Note_on_c, 0, 56, 75
2, 59328, Note_on_c, 0, 46, 74
2, 59328, Note_on_c, 0, 34, 71
2, 59329, Note_on_c, 0, 53, 71
2, 59349, Control_c, 0, 64, 127
2, 59384, Note_on_c, 0, 34, 0
2, 59388, Note_on_c, 0, 53, 0
2, 59392, Note_on_c, 0, 46, 0
2, 59398, Note_on_c, 0, 60, 0
2, 59399, Note_on_c, 0, 56, 0
2, 59405, Note_on_c, 0, 63, 0
2, 59435, Note_on_c, 0, 63, 75
2, 59435, Note_on_c, 0, 56, 82
2, 59436, Note_on_c, 0, 60, 83
2, 59438, Note_on_c, 0, 46, 62
2, 59461, Note_on_c, 0, 56, 0
2, 59473, Note_on_c, 0, 60, 0
2, 59482, Note_on_c, 0, 63, 0
2, 59505, Note_on_c, 0, 65, 81
2, 59505, Note_on_c, 0, 60, 96
2, 59506, Note_on_c, 0, 58, 71
2, 59537, Note_on_c, 0, 60, 0
2, 59541, Note_on_c, 0, 46, 0
2, 59549, Note_on_c, 0, 65, 0
2, 59570, Note_on_c, 0, 58, 0
2, 59572, Note_on_c, 0, 60, 91
2, 59573, Note_on_c, 0, 46, 51
2, 59573, Note_on_c, 0, 63, 78
2, 59598, Note_on_c, 0, 46, 0
2, 59619, Note_on_c, 0, 60, 0
2, 59620, Note_on_c, 0, 63, 0
2, 59658, Note_on_c, 0, 59, 75
2, 59658, Note_on_c, 0, 46, 48
2, 59658, Note_on_c, 0, 62, 73
2, 59659, Note_on_c, 0, 57, 72
2, 59661, Note_on_c, 0, 56, 49
2, 59661, Control_c, 0, 64, 0
2, 59681, Control_c, 0, 64, 127
2, 59706, Note_on_c, 0, 62, 0
2, 59709, Note_on_c, 0, 59, 0
2, 59711, Note_on_c, 0, 57, 0
2, 59731, Note_on_c, 0, 46, 0
2, 59751, Note_on_c, 0, 68, 74
2, 59752, Note_on_c, 0, 46, 56
2, 59778, Note_on_c, 0, 56, 0
2, 59800, Note_on_c, 0, 46, 0
2, 59803, Note_on_c, 0, 68, 0
2, 59847, Note_on_c, 0, 56, 43
2, 59847, Note_on_c, 0, 46, 37
2, 59848, Note_on_c, 0, 53, 44
2, 59849, Note_on_c, 0, 60, 60
2, 59859, Control_c, 0, 64, 0
2, 59883, Control_c, 0, 64, 127
2, 59932, Note_on_c, 0, 53, 0
2, 59944, Note_on_c, 0, 60, 0
2, 59948, Note_on_c, 0, 56, 0
2, 59955, Note_on_c, 0, 46, 0
2, 60036, Note_on_c, 0, 56, 55
2, 60037, Note_on_c, 0, 62, 51
2, 60038, Control_c, 0, 64, 0
2, 60038, Note_on_c, 0, 46, 33
2, 60051, Control_c, 0, 64, 127
2, 60099, Note_on_c, 0, 46, 0
2, 60109, Note_on_c, 0, 62, 0
2, 60124, Note_on_c, 0, 56, 0
2, 60168, Note_on_c, 0, 63, 47
2, 60170, Note_on_c, 0, 58, 36
2, 60172, Note_on_c, 0, 55, 35
2, 60172, Note_on_c, 0, 39, 46
2, 60173, Control_c, 0, 64, 0
2, 60186, Control_c, 0, 64, 127
2, 60193, Note_on_c, 0, 55, 0
2, 60212, Note_on_c, 0, 58, 0
2, 60215, Note_on_c, 0, 46, 53
2, 60217, Note_on_c, 0, 39, 0
2, 60219, Note_on_c, 0, 63, 0
2, 60259, Note_on_c, 0, 46, 0
2, 60266, Note_on_c, 0, 67, 80
2, 60267, Note_on_c, 0, 55, 49
2, 60320, Note_on_c, 0, 67, 0
2, 60327, Note_on_c, 0, 70, 71
2, 60328, Note_on_c, 0, 55, 0
2, 60330, Note_on_c, 0, 58, 32
2, 60355, Note_on_c, 0, 58, 0
2, 60373, Note_on_c, 0, 70, 0
2, 60411, Control_c, 0, 64, 0
2, 60415, Note_on_c, 0, 73, 35
2, 60416, Note_on_c, 0, 61, 38
2, 60417, Note_on_c, 0, 66, 43
2, 60418, Note_on_c, 0, 46, 31
2, 60419, Note_on_c, 0, 70, 36
2, 60420, Note_on_c, 0, 56, 27
2, 60425, Control_c, 0, 64, 127
2, 60431, Note_on_c, 0, 61, 0
2, 60434, Note_on_c, 0, 46, 0
2, 60440, Note_on_c, 0, 66, 0
2, 60440, Note_on_c, 0, 56, 0
2, 60442, Note_on_c, 0, 70, 0
2, 60446, Note_on_c, 0, 73, 0
2, 60516, Note_on_c, 0, 66, 28
2, 60516, Note_on_c, 0, 85, 54
2, 60518, Note_on_c, 0, 62, 35
2, 60518, Note_on_c, 0, 73, 31
2, 60519, Note_on_c, 0, 78, 37
2, 60519, Note_on_c, 0, 82, 38
2, 60521, Note_on_c, 0, 56, 25
2, 60653, Note_on_c, 0, 66, 0
2, 60656, Note_on_c, 0, 62, 0
2, 60663, Note_on_c, 0, 56, 0
2, 60808, Control_c, 0, 64, 0
2, 60810, Note_on_c, 0, 28, 69
2, 60815, Note_on_c, 0, 78, 0
2, 60816, Control_c, 0, 64, 127
2, 60817, Note_on_c, 0, 73, 0
2, 60819, Note_on_c, 0, 82, 0
2, 60828, Note_on_c, 0, 85, 0
2, 60830, Note_on_c, 0, 28, 0
2, 60934, Note_on_c, 0, 86, 63
2, 60938, Note_on_c, 0, 81, 53
2, 60938, Note_on_c, 0, 78, 30
2, 60938, Note_on_c, 0, 66, 37
2, 60939, Note_on_c, 0, 74, 40
2, 60939, Note_on_c, 0, 62, 43
2, 60942, Note_on_c, 0, 56, 30
2, 61039, Note_on_c, 0, 62, 0
2, 61039, Note_on_c, 0, 66, 0
2, 61055, Note_on_c, 0, 56, 0
2, 61063, Note_on_c, 0, 74, 0
2, 61069, Note_on_c, 0, 78, 0
2, 61089, Note_on_c, 0, 81, 0
2, 61093, Note_on_c, 0, 86, 0
2, 61217, Control_c, 0, 64, 0
2, 61219, Note_on_c, 0, 87, 55
2, 61220, Note_on_c, 0, 39, 46
2, 61220, Note_on_c, 0, 27, 53
2, 61221, Note_on_c, 0, 82, 39
2, 61222, Note_on_c, 0, 77, 32
2, 61227, Control_c, 0, 64, 127
2, 61249, Note_on_c, 0, 27, 0
2, 61258, Note_on_c, 0, 39, 0
2, 61285, Note_on_c, 0, 77, 0
2, 61288, Note_on_c, 0, 82, 0
2, 61296, Note_on_c, 0, 87, 0
2, 61491, Note_on_c, 0, 86, 56
2, 61493, Note_on_c, 0, 101, 50
2, 61493, Note_on_c, 0, 91, 32
2, 61494, Note_on_c, 0, 96, 45
2, 61519, Note_on_c, 0, 86, 0
2, 61526, Note_on_c, 0, 101, 0
2, 61527, Note_on_c, 0, 96, 0
2, 61529, Note_on_c, 0, 91, 0
2, 61562, Note_on_c, 0, 99, 58
2, 61564, Note_on_c, 0, 94, 50
2, 61565, Note_on_c, 0, 89, 35
2, 61565, Note_on_c, 0, 84, 40
2, 61578, Note_on_c, 0, 84, 0
2, 61579, Note_on_c, 0, 94, 0
2, 61580, Note_on_c, 0, 99, 0
2, 61589, Note_on_c, 0, 89, 0
2, 61627, Note_on_c, 0, 86, 53
2, 61628, Note_on_c, 0, 91, 46
2, 61628, Note_on_c, 0, 80, 37
2, 61628, Note_on_c, 0, 96, 43
2, 61642, Note_on_c, 0, 91, 0
2, 61643, Note_on_c, 0, 96, 0
2, 61643, Note_on_c, 0, 80, 0
2, 61653, Note_on_c, 0, 86, 0
2, 61716, Note_on_c, 0, 94, 50
2, 61718, Note_on_c, 0, 79, 40
2, 61718, Note_on_c, 0, 89, 40
2, 61718, Note_on_c, 0, 84, 31
2, 61748, Note_on_c, 0, 94, 0
2, 61750, Note_on_c, 0, 79, 0
2, 61752, Note_on_c, 0, 89, 0
2, 61759, Note_on_c, 0, 84, 0
2, 61800, Note_on_c, 0, 87, 54
2, 61801, Note_on_c, 0, 82, 46
2, 61802, Note_on_c, 0, 77, 29
2, 61804, Note_on_c, 0, 72, 26
2, 61816, Note_on_c, 0, 72, 0
2, 61824, Note_on_c, 0, 87, 0
2, 61829, Note_on_c, 0, 82, 0
2, 61835, Note_on_c, 0, 77, 0
2, 61879, Note_on_c, 0, 68, 36
2, 61880, Note_on_c, 0, 84, 31
2, 61880, Note_on_c, 0, 74, 26
2, 61880, Note_on_c, 0, 79, 39
2, 61898, Note_on_c, 0, 79, 0
2, 61898, Note_on_c, 0, 84, 0
2, 61909, Note_on_c, 0, 74, 0
2, 61913, Note_on_c, 0, 68, 0
2, 61959, Note_on_c, 0, 82, 25
2, 61961, Note_on_c, 0, 72, 18
2, 61963, Note_on_c, 0, 67, 25
2, 61964, Note_on_c, 0, 77, 27
2, 61979, Note_on_c, 0, 82, 0
2, 61982, Note_on_c, 0, 77, 0
2, 61982, Note_on_c, 0, 67, 0
2, 61991, Note_on_c, 0, 72, 0
2, 62041, Note_on_c, 0, 77, 30
2, 62041, Note_on_c, 0, 67, 31
2, 62041, Note_on_c, 0, 72, 31
2, 62045, Note_on_c, 0, 58, 25
2, 62051, Note_on_c, 0, 77, 0
2, 62056, Note_on_c, 0, 67, 0
2, 62057, Note_on_c, 0, 58, 0
2, 62059, Note_on_c, 0, 72, 0
2, 62114, Note_on_c, 0, 75, 33
2, 62116, Note_on_c, 0, 70, 42
2, 62119, Note_on_c, 0, 65, 28
2, 62120, Note_on_c, 0, 55, 32
2, 62122, Note_on_c, 0, 75, 0
2, 62128, Note_on_c, 0, 70, 0
2, 62128, Note_on_c, 0, 65, 0
2, 62128, Note_on_c, 0, 55, 0
2, 62193, Note_on_c, 0, 62, 33
2, 62194, Note_on_c, 0, 67, 35
2, 62198, Note_on_c, 0, 51, 21
2, 62205, Note_on_c, 0, 67, 0
2, 62206, Note_on_c, 0, 51, 0
2, 62213, Note_on_c, 0, 62, 0
2, 62281, Note_on_c, 0, 60, 42
2, 62281, Note_on_c, 0, 65, 31
2, 62282, Note_on_c, 0, 55, 24
2, 62282, Note_on_c, 0, 46, 29
2, 62294, Note_on_c, 0, 46, 0
2, 62299, Note_on_c, 0, 60, 0
2, 62308, Note_on_c, 0, 55, 0
2, 62339, Note_on_c, 0, 65, 0
2, 62396, Note_on_c, 0, 63, 29
2, 62399, Note_on_c, 0, 53, 24
2, 62400, Note_on_c, 0, 48, 30
2, 62400, Note_on_c, 0, 58, 38
2, 62400, Note_on_c, 0, 39, 37
2, 62433, Control_c, 0, 64, 0
2, 62472, Control_c, 0, 64, 127
2, 62720, Note_on_c, 0, 27, 36
2, 62776, Note_on_c, 0, 53, 0
2, 62777, Note_on_c, 0, 58, 0
2, 62779, Note_on_c, 0, 63, 0
2, 62805, Note_on_c, 0, 39, 0
2, 62880, Note_on_c, 0, 48, 0
2, 63080, Note_on_c, 0, 27, 0
2, 63360, Control_c, 0, 64, 0
2, 63360, End_track
0, 0, End_of_file
