0, 0, Header, 1, 6, 384
1, 0, Start_track
1, 0, Title_t, "So In Love"
1, 0, Title_t, "Cole Porter"
1, 0, Text_t, "dougmck@pipeline.com.au   Listen to the great version by Chick Corea on his 'Akoustic Band' album. This is a very pale imitation of some of the rhythmic ideas. He also plays a solo piano version on his latest ""Standards' album. I have also posted a solo \012"
1, 0, Text_t, "          \012"
1, 0, SMPTE_offset, 96, 0, 3, 0, 0
1, 0, System_exclusive, 5, 126, 127, 9, 1, 247
1, 0, System_exclusive, 8, 67, 115, 1, 17, 15, 89, 3, 247
1, 0, Time_signature, 4, 2, 24, 8
1, 0, Key_signature, -3, "major"
1, 0, Tempo, 512821
1, 0, Marker_t, "You may need to balance some of the volumes on the instruments."
1, 0, End_track
2, 0, Start_track
2, 0, Title_t, "So In Love "
2, 0, Program_c, 0, 4
2, 7, Note_on_c, 0, 63, 81
2, 8, Note_on_c, 0, 55, 90
2, 14, Note_on_c, 0, 48, 68
2, 261, Note_on_c, 0, 63, 0
2, 307, Note_on_c, 0, 56, 58
2, 314, Note_on_c, 0, 63, 45
2, 541, Note_on_c, 0, 55, 0
2, 1309, Note_on_c, 0, 56, 0
2, 1320, Note_on_c, 0, 55, 72
2, 1333, Note_on_c, 0, 63, 0
2, 1378, Note_on_c, 0, 48, 0
2, 1418, Note_on_c, 0, 55, 0
2, 1421, Note_on_c, 0, 54, 53
2, 1502, Note_on_c, 0, 54, 0
2, 1507, Note_on_c, 0, 55, 58
2, 1520, Note_on_c, 0, 47, 46
2, 2055, Control_c, 0, 64, 127
2, 2088, Control_c, 0, 64, 0
2, 2104, Note_on_c, 0, 62, 54
2, 2107, Note_on_c, 0, 56, 49
2, 2497, Control_c, 0, 64, 127
2, 2571, Note_on_c, 0, 55, 0
2, 2821, Control_c, 0, 64, 0
2, 2822, Note_on_c, 0, 62, 0
2, 2829, Note_on_c, 0, 56, 0
2, 2842, Note_on_c, 0, 55, 81
2, 2945, Control_c, 0, 64, 127
2, 3011, Note_on_c, 0, 55, 0
2, 3049, Note_on_c, 0, 46, 71
2, 3050, Note_on_c, 0, 55, 90
2, 3052, Control_c, 0, 64, 0
2, 3065, Note_on_c, 0, 47, 0
2, 3295, Control_c, 0, 64, 127
2, 3321, Note_on_c, 0, 55, 0
2, 3466, Note_on_c, 0, 46, 0
2, 3660, Note_on_c, 0, 74, 89
2, 3674, Note_on_c, 0, 67, 84
2, 3688, Note_on_c, 0, 63, 67
2, 3690, Note_on_c, 0, 70, 44
2, 3691, Note_on_c, 0, 62, 78
2, 3699, Control_c, 0, 64, 0
2, 3756, Note_on_c, 0, 70, 0
2, 3844, Control_c, 0, 64, 127
2, 4119, Note_on_c, 0, 62, 0
2, 4192, Note_on_c, 0, 74, 0
2, 4205, Note_on_c, 0, 63, 0
2, 4208, Note_on_c, 0, 67, 0
2, 4350, Note_on_c, 0, 63, 62
2, 4355, Note_on_c, 0, 67, 57
2, 4356, Note_on_c, 0, 72, 59
2, 4366, Note_on_c, 0, 60, 62
2, 4379, Control_c, 0, 64, 0
2, 4443, Control_c, 0, 64, 127
2, 4448, Note_on_c, 0, 60, 0
2, 4460, Note_on_c, 0, 63, 0
2, 4460, Note_on_c, 0, 67, 0
2, 4535, Note_on_c, 0, 72, 0
2, 4621, Note_on_c, 0, 63, 34
2, 4626, Control_c, 0, 64, 0
2, 4627, Note_on_c, 0, 72, 54
2, 4628, Note_on_c, 0, 56, 35
2, 4632, Note_on_c, 0, 68, 53
2, 4635, Note_on_c, 0, 60, 40
2, 4636, Note_on_c, 0, 65, 49
2, 4718, Control_c, 0, 64, 127
2, 4743, Note_on_c, 0, 65, 0
2, 4773, Note_on_c, 0, 68, 0
2, 4789, Note_on_c, 0, 60, 0
2, 4810, Note_on_c, 0, 63, 0
2, 4816, Note_on_c, 0, 56, 0
2, 4823, Note_on_c, 0, 72, 0
2, 5191, Note_on_c, 0, 91, 80
2, 5191, Note_on_c, 0, 63, 70
2, 5192, Note_on_c, 0, 84, 82
2, 5194, Note_on_c, 0, 79, 75
2, 5195, Note_on_c, 0, 56, 67
2, 5196, Note_on_c, 0, 87, 74
2, 5198, Note_on_c, 0, 60, 74
2, 5198, Note_on_c, 0, 67, 71
2, 5220, Control_c, 0, 64, 0
2, 5322, Control_c, 0, 64, 127
2, 5610, Note_on_c, 0, 91, 0
2, 5611, Note_on_c, 0, 67, 0
2, 5612, Note_on_c, 0, 60, 0
2, 5624, Note_on_c, 0, 79, 0
2, 5633, Note_on_c, 0, 56, 0
2, 5641, Note_on_c, 0, 84, 0
2, 5656, Note_on_c, 0, 63, 0
2, 5668, Note_on_c, 0, 87, 0
2, 5747, Note_on_c, 0, 89, 64
2, 5750, Note_on_c, 0, 63, 45
2, 5753, Note_on_c, 0, 56, 40
2, 5754, Note_on_c, 0, 67, 48
2, 5754, Note_on_c, 0, 77, 52
2, 5755, Note_on_c, 0, 60, 56
2, 5758, Note_on_c, 0, 84, 60
2, 5774, Control_c, 0, 64, 0
2, 5887, Control_c, 0, 64, 127
2, 5971, Note_on_c, 0, 84, 0
2, 5984, Note_on_c, 0, 67, 0
2, 5988, Note_on_c, 0, 77, 0
2, 5990, Note_on_c, 0, 89, 0
2, 5994, Note_on_c, 0, 56, 0
2, 6011, Note_on_c, 0, 63, 0
2, 6011, Note_on_c, 0, 60, 0
2, 6129, Note_on_c, 0, 89, 51
2, 6131, Note_on_c, 0, 77, 41
2, 6135, Note_on_c, 0, 62, 44
2, 6139, Note_on_c, 0, 56, 43
2, 6140, Note_on_c, 0, 67, 33
2, 6163, Control_c, 0, 64, 0
2, 6313, Control_c, 0, 64, 127
2, 6406, Note_on_c, 0, 67, 0
2, 6442, Note_on_c, 0, 62, 0
2, 6535, Note_on_c, 0, 65, 29
2, 6545, Note_on_c, 0, 89, 0
2, 6545, Note_on_c, 0, 62, 28
2, 6593, Note_on_c, 0, 77, 0
2, 6648, Note_on_c, 0, 65, 0
2, 6659, Note_on_c, 0, 62, 0
2, 6706, Note_on_c, 0, 56, 0
2, 7112, Note_on_c, 0, 68, 88
2, 7114, Note_on_c, 0, 62, 89
2, 7117, Note_on_c, 0, 65, 80
2, 7117, Note_on_c, 0, 59, 88
2, 7122, Note_on_c, 0, 47, 68
2, 7123, Note_on_c, 0, 56, 73
2, 7143, Control_c, 0, 64, 0
2, 7283, Control_c, 0, 64, 127
2, 7403, Note_on_c, 0, 56, 0
2, 7414, Note_on_c, 0, 59, 0
2, 7428, Note_on_c, 0, 62, 0
2, 7439, Note_on_c, 0, 65, 0
2, 7444, Note_on_c, 0, 68, 0
2, 7450, Note_on_c, 0, 67, 64
2, 7458, Note_on_c, 0, 56, 36
2, 7459, Note_on_c, 0, 59, 64
2, 7465, Note_on_c, 0, 62, 20
2, 7467, Control_c, 0, 64, 0
2, 7489, Note_on_c, 0, 62, 0
2, 7502, Note_on_c, 0, 67, 0
2, 7512, Note_on_c, 0, 59, 0
2, 7554, Note_on_c, 0, 47, 0
2, 7594, Note_on_c, 0, 56, 0
2, 7634, Control_c, 0, 64, 127
2, 7693, Note_on_c, 0, 46, 34
2, 7699, Control_c, 0, 64, 0
2, 7699, Note_on_c, 0, 67, 51
2, 7700, Note_on_c, 0, 63, 53
2, 7702, Note_on_c, 0, 55, 32
2, 7703, Note_on_c, 0, 58, 45
2, 7903, Control_c, 0, 64, 127
2, 8115, Note_on_c, 0, 55, 0
2, 8152, Note_on_c, 0, 58, 0
2, 8182, Note_on_c, 0, 63, 0
2, 8203, Note_on_c, 0, 46, 0
2, 8213, Note_on_c, 0, 67, 0
2, 8238, Note_on_c, 0, 67, 39
2, 8241, Note_on_c, 0, 55, 80
2, 8243, Control_c, 0, 64, 0
2, 8243, Note_on_c, 0, 61, 75
2, 8249, Note_on_c, 0, 63, 57
2, 8250, Note_on_c, 0, 45, 66
2, 8523, Control_c, 0, 64, 127
2, 8812, Note_on_c, 0, 67, 0
2, 8870, Note_on_c, 0, 63, 0
2, 8870, Note_on_c, 0, 61, 0
2, 8914, Note_on_c, 0, 55, 0
2, 8952, Note_on_c, 0, 45, 0
2, 9007, Note_on_c, 0, 65, 61
2, 9055, Note_on_c, 0, 65, 0
2, 9103, Note_on_c, 0, 63, 48
2, 9155, Note_on_c, 0, 63, 0
2, 9191, Control_c, 0, 64, 0
2, 9201, Note_on_c, 0, 55, 53
2, 9201, Note_on_c, 0, 44, 38
2, 9202, Note_on_c, 0, 65, 55
2, 9203, Note_on_c, 0, 60, 51
2, 9207, Note_on_c, 0, 51, 37
2, 9407, Control_c, 0, 64, 127
2, 9462, Note_on_c, 0, 60, 0
2, 9476, Note_on_c, 0, 55, 0
2, 9595, Note_on_c, 0, 65, 0
2, 9597, Note_on_c, 0, 60, 50
2, 9602, Note_on_c, 0, 55, 33
2, 9613, Note_on_c, 0, 51, 0
2, 9623, Note_on_c, 0, 44, 0
2, 9645, Note_on_c, 0, 55, 0
2, 9698, Note_on_c, 0, 60, 0
2, 9965, Note_on_c, 0, 75, 91
2, 9967, Note_on_c, 0, 66, 93
2, 9968, Note_on_c, 0, 69, 92
2, 9974, Note_on_c, 0, 60, 96
2, 9984, Control_c, 0, 64, 0
2, 10070, Control_c, 0, 64, 127
2, 10103, Note_on_c, 0, 69, 0
2, 10103, Note_on_c, 0, 75, 0
2, 10122, Note_on_c, 0, 60, 0
2, 10134, Note_on_c, 0, 66, 0
2, 10140, Note_on_c, 0, 59, 34
2, 10149, Note_on_c, 0, 58, 64
2, 10160, Note_on_c, 0, 59, 0
2, 10189, Note_on_c, 0, 66, 64
2, 10190, Note_on_c, 0, 63, 71
2, 10195, Note_on_c, 0, 72, 69
2, 10199, Control_c, 0, 64, 0
2, 10206, Note_on_c, 0, 58, 0
2, 10215, Note_on_c, 0, 57, 70
2, 10356, Control_c, 0, 64, 127
2, 10400, Note_on_c, 0, 72, 0
2, 10419, Note_on_c, 0, 66, 0
2, 10434, Note_on_c, 0, 63, 0
2, 10555, Control_c, 0, 64, 0
2, 10560, Note_on_c, 0, 69, 53
2, 10566, Note_on_c, 0, 57, 0
2, 10566, Note_on_c, 0, 54, 52
2, 10568, Note_on_c, 0, 60, 49
2, 10570, Note_on_c, 0, 63, 39
2, 10571, Note_on_c, 0, 66, 42
2, 10613, Note_on_c, 0, 69, 0
2, 10615, Note_on_c, 0, 60, 0
2, 10619, Control_c, 0, 64, 127
2, 10646, Note_on_c, 0, 63, 0
2, 10670, Note_on_c, 0, 66, 0
2, 10744, Control_c, 0, 64, 0
2, 10754, Note_on_c, 0, 66, 56
2, 10756, Note_on_c, 0, 54, 0
2, 10756, Note_on_c, 0, 71, 66
2, 10760, Note_on_c, 0, 62, 60
2, 10774, Note_on_c, 0, 55, 45
2, 10895, Control_c, 0, 64, 127
2, 10919, Note_on_c, 0, 71, 0
2, 10950, Note_on_c, 0, 66, 0
2, 11029, Note_on_c, 0, 62, 0
2, 11081, Note_on_c, 0, 55, 0
2, 11340, Note_on_c, 0, 66, 79
2, 11345, Note_on_c, 0, 59, 87
2, 11345, Note_on_c, 0, 62, 78
2, 11349, Note_on_c, 0, 57, 87
2, 11352, Note_on_c, 0, 54, 95
2, 11390, Control_c, 0, 64, 0
2, 11503, Control_c, 0, 64, 127
2, 11747, Note_on_c, 0, 54, 0
2, 11761, Note_on_c, 0, 66, 0
2, 11791, Note_on_c, 0, 57, 0
2, 11796, Note_on_c, 0, 62, 0
2, 11814, Note_on_c, 0, 59, 0
2, 11925, Note_on_c, 0, 65, 60
2, 11926, Note_on_c, 0, 59, 64
2, 11930, Note_on_c, 0, 53, 55
2, 11931, Note_on_c, 0, 62, 48
2, 11932, Note_on_c, 0, 56, 44
2, 11940, Control_c, 0, 64, 0
2, 12061, Note_on_c, 0, 53, 0
2, 12114, Note_on_c, 0, 50, 63
2, 12148, Note_on_c, 0, 56, 0
2, 12193, Control_c, 0, 64, 127
2, 12199, Note_on_c, 0, 59, 0
2, 12232, Note_on_c, 0, 65, 0
2, 12261, Note_on_c, 0, 62, 0
2, 12262, Note_on_c, 0, 50, 0
2, 12305, Note_on_c, 0, 55, 58
2, 12307, Note_on_c, 0, 63, 53
2, 12311, Note_on_c, 0, 60, 57
2, 12313, Control_c, 0, 64, 0
2, 12317, Note_on_c, 0, 48, 60
2, 12469, Control_c, 0, 64, 127
2, 12582, Note_on_c, 0, 60, 0
2, 12587, Note_on_c, 0, 55, 0
2, 12688, Note_on_c, 0, 55, 73
2, 12694, Control_c, 0, 64, 0
2, 12715, Note_on_c, 0, 63, 0
2, 12732, Control_c, 0, 64, 127
2, 12870, Note_on_c, 0, 55, 0
2, 12880, Note_on_c, 0, 63, 79
2, 12883, Note_on_c, 0, 56, 87
2, 12889, Control_c, 0, 64, 0
2, 13152, Control_c, 0, 64, 127
2, 13233, Control_c, 0, 64, 0
2, 13309, Control_c, 0, 64, 127
2, 13412, Control_c, 0, 64, 0
2, 13428, Note_on_c, 0, 63, 0
2, 13430, Note_on_c, 0, 56, 0
2, 13432, Note_on_c, 0, 55, 60
2, 13526, Note_on_c, 0, 55, 0
2, 13528, Note_on_c, 0, 63, 73
2, 13531, Note_on_c, 0, 56, 76
2, 13603, Note_on_c, 0, 63, 0
2, 13630, Note_on_c, 0, 55, 57
2, 13633, Note_on_c, 0, 56, 0
2, 13723, Note_on_c, 0, 55, 0
2, 13730, Note_on_c, 0, 63, 69
2, 13734, Note_on_c, 0, 56, 75
2, 13741, Control_c, 0, 64, 127
2, 13787, Note_on_c, 0, 63, 0
2, 13791, Note_on_c, 0, 56, 0
2, 13800, Control_c, 0, 64, 0
2, 13806, Note_on_c, 0, 48, 0
2, 13815, Note_on_c, 0, 55, 34
2, 13820, Note_on_c, 0, 47, 38
2, 14042, Control_c, 0, 64, 127
2, 14188, Note_on_c, 0, 56, 59
2, 14193, Control_c, 0, 64, 0
2, 14194, Note_on_c, 0, 62, 53
2, 14228, Note_on_c, 0, 55, 0
2, 14365, Control_c, 0, 64, 127
2, 14563, Note_on_c, 0, 56, 0
2, 14585, Note_on_c, 0, 55, 37
2, 14591, Note_on_c, 0, 62, 0
2, 14612, Note_on_c, 0, 55, 0
2, 14666, Note_on_c, 0, 47, 0
2, 15067, Note_on_c, 0, 74, 73
2, 15075, Note_on_c, 0, 68, 73
2, 15076, Note_on_c, 0, 65, 77
2, 15079, Note_on_c, 0, 59, 71
2, 15082, Control_c, 0, 64, 0
2, 15176, Note_on_c, 0, 65, 0
2, 15176, Note_on_c, 0, 68, 0
2, 15179, Control_c, 0, 64, 127
2, 15211, Note_on_c, 0, 74, 0
2, 15222, Note_on_c, 0, 56, 51
2, 15225, Note_on_c, 0, 65, 44
2, 15228, Note_on_c, 0, 59, 0
2, 15228, Note_on_c, 0, 71, 48
2, 15230, Note_on_c, 0, 68, 35
2, 15250, Note_on_c, 0, 71, 0
2, 15265, Note_on_c, 0, 65, 0
2, 15287, Note_on_c, 0, 68, 0
2, 15313, Note_on_c, 0, 56, 0
2, 15353, Note_on_c, 0, 63, 64
2, 15356, Note_on_c, 0, 67, 65
2, 15360, Note_on_c, 0, 58, 44
2, 15363, Control_c, 0, 64, 0
2, 15492, Control_c, 0, 64, 127
2, 15571, Note_on_c, 0, 58, 0
2, 15675, Note_on_c, 0, 63, 0
2, 15687, Note_on_c, 0, 67, 0
2, 15704, Note_on_c, 0, 46, 49
2, 15721, Note_on_c, 0, 55, 40
2, 15744, Note_on_c, 0, 55, 0
2, 15747, Note_on_c, 0, 46, 0
2, 16113, Note_on_c, 0, 63, 60
2, 16114, Note_on_c, 0, 67, 72
2, 16115, Note_on_c, 0, 86, 82
2, 16116, Note_on_c, 0, 62, 58
2, 16117, Note_on_c, 0, 74, 76
2, 16117, Note_on_c, 0, 79, 77
2, 16118, Note_on_c, 0, 58, 52
2, 16129, Control_c, 0, 64, 0
2, 16132, Note_on_c, 0, 67, 0
2, 16134, Note_on_c, 0, 74, 0
2, 16134, Note_on_c, 0, 62, 0
2, 16135, Note_on_c, 0, 79, 0
2, 16135, Note_on_c, 0, 58, 0
2, 16151, Note_on_c, 0, 63, 0
2, 16152, Note_on_c, 0, 86, 0
2, 16356, Control_c, 0, 64, 127
2, 16412, Note_on_c, 0, 84, 71
2, 16412, Note_on_c, 0, 62, 56
2, 16415, Note_on_c, 0, 72, 59
2, 16416, Note_on_c, 0, 79, 62
2, 16418, Note_on_c, 0, 63, 37
2, 16430, Note_on_c, 0, 84, 0
2, 16431, Note_on_c, 0, 62, 0
2, 16433, Note_on_c, 0, 72, 0
2, 16434, Note_on_c, 0, 79, 0
2, 16438, Note_on_c, 0, 63, 0
2, 16447, Control_c, 0, 64, 0
2, 16491, Note_on_c, 0, 62, 58
2, 16492, Note_on_c, 0, 63, 60
2, 16493, Note_on_c, 0, 67, 70
2, 16494, Note_on_c, 0, 58, 74
2, 16496, Note_on_c, 0, 79, 74
2, 16497, Note_on_c, 0, 72, 81
2, 16497, Note_on_c, 0, 84, 91
2, 16534, Control_c, 0, 64, 127
2, 16685, Note_on_c, 0, 62, 0
2, 16694, Note_on_c, 0, 67, 0
2, 16695, Note_on_c, 0, 79, 0
2, 16719, Note_on_c, 0, 63, 0
2, 16723, Note_on_c, 0, 58, 0
2, 16749, Note_on_c, 0, 72, 0
2, 16756, Note_on_c, 0, 84, 0
2, 16877, Note_on_c, 0, 80, 61
2, 16878, Control_c, 0, 64, 0
2, 16880, Note_on_c, 0, 72, 67
2, 16881, Note_on_c, 0, 63, 55
2, 16881, Note_on_c, 0, 84, 72
2, 16886, Note_on_c, 0, 77, 54
2, 16890, Note_on_c, 0, 56, 60
2, 16890, Note_on_c, 0, 67, 60
2, 16895, Note_on_c, 0, 60, 62
2, 16971, Control_c, 0, 64, 127
2, 17012, Note_on_c, 0, 72, 0
2, 17021, Note_on_c, 0, 77, 0
2, 17041, Note_on_c, 0, 80, 0
2, 17041, Note_on_c, 0, 67, 0
2, 17043, Note_on_c, 0, 60, 0
2, 17047, Note_on_c, 0, 84, 0
2, 17053, Note_on_c, 0, 56, 0
2, 17119, Note_on_c, 0, 63, 0
2, 17188, Note_on_c, 0, 87, 61
2, 17189, Note_on_c, 0, 91, 67
2, 17190, Note_on_c, 0, 84, 63
2, 17192, Note_on_c, 0, 79, 53
2, 17195, Note_on_c, 0, 63, 59
2, 17198, Note_on_c, 0, 67, 57
2, 17202, Note_on_c, 0, 56, 43
2, 17205, Note_on_c, 0, 60, 62
2, 17208, Note_on_c, 0, 84, 0
2, 17212, Note_on_c, 0, 79, 0
2, 17218, Note_on_c, 0, 67, 0
2, 17219, Note_on_c, 0, 87, 0
2, 17221, Note_on_c, 0, 56, 0
2, 17223, Note_on_c, 0, 60, 0
2, 17223, Control_c, 0, 64, 0
2, 17232, Note_on_c, 0, 91, 0
2, 17238, Note_on_c, 0, 63, 0
2, 17463, Note_on_c, 0, 84, 81
2, 17463, Note_on_c, 0, 63, 60
2, 17464, Note_on_c, 0, 79, 74
2, 17464, Note_on_c, 0, 91, 77
2, 17465, Note_on_c, 0, 87, 63
2, 17468, Note_on_c, 0, 56, 57
2, 17473, Note_on_c, 0, 67, 60
2, 17475, Note_on_c, 0, 60, 67
2, 17509, Control_c, 0, 64, 127
2, 18137, Note_on_c, 0, 67, 0
2, 18140, Note_on_c, 0, 91, 0
2, 18144, Note_on_c, 0, 79, 0
2, 18165, Note_on_c, 0, 84, 0
2, 18166, Note_on_c, 0, 63, 0
2, 18167, Note_on_c, 0, 87, 0
2, 18177, Note_on_c, 0, 60, 0
2, 18211, Note_on_c, 0, 84, 60
2, 18212, Note_on_c, 0, 77, 61
2, 18212, Note_on_c, 0, 63, 54
2, 18213, Note_on_c, 0, 67, 40
2, 18215, Note_on_c, 0, 89, 60
2, 18225, Note_on_c, 0, 60, 42
2, 18230, Note_on_c, 0, 84, 0
2, 18231, Note_on_c, 0, 77, 0
2, 18234, Note_on_c, 0, 67, 0
2, 18235, Note_on_c, 0, 89, 0
2, 18241, Control_c, 0, 64, 0
2, 18248, Note_on_c, 0, 60, 0
2, 18250, Note_on_c, 0, 56, 0
2, 18258, Note_on_c, 0, 63, 0
2, 18395, Note_on_c, 0, 56, 67
2, 18400, Note_on_c, 0, 62, 53
2, 18401, Note_on_c, 0, 77, 71
2, 18402, Note_on_c, 0, 65, 59
2, 18402, Note_on_c, 0, 84, 74
2, 18403, Note_on_c, 0, 89, 75
2, 18425, Control_c, 0, 64, 127
2, 18636, Note_on_c, 0, 89, 0
2, 18659, Note_on_c, 0, 84, 0
2, 18721, Note_on_c, 0, 77, 0
2, 18768, Note_on_c, 0, 65, 0
2, 18793, Note_on_c, 0, 62, 0
2, 18861, Note_on_c, 0, 56, 0
2, 19139, Note_on_c, 0, 56, 37
2, 19163, Note_on_c, 0, 56, 0
2, 19183, Note_on_c, 0, 70, 71
2, 19185, Note_on_c, 0, 62, 71
2, 19190, Note_on_c, 0, 59, 71
2, 19191, Note_on_c, 0, 65, 67
2, 19192, Note_on_c, 0, 58, 79
2, 19207, Control_c, 0, 64, 0
2, 19281, Note_on_c, 0, 59, 0
2, 19283, Note_on_c, 0, 65, 0
2, 19294, Note_on_c, 0, 70, 0
2, 19302, Note_on_c, 0, 62, 0
2, 19303, Note_on_c, 0, 56, 50
2, 19304, Note_on_c, 0, 58, 0
2, 19369, Note_on_c, 0, 56, 0
2, 19384, Note_on_c, 0, 70, 72
2, 19385, Note_on_c, 0, 62, 68
2, 19386, Note_on_c, 0, 58, 79
2, 19389, Note_on_c, 0, 59, 68
2, 19392, Note_on_c, 0, 65, 63
2, 19557, Control_c, 0, 64, 127
2, 19664, Note_on_c, 0, 65, 0
2, 19666, Note_on_c, 0, 59, 0
2, 19678, Note_on_c, 0, 62, 0
2, 19709, Note_on_c, 0, 70, 0
2, 19762, Control_c, 0, 64, 0
2, 19763, Note_on_c, 0, 59, 57
2, 19764, Note_on_c, 0, 68, 57
2, 19772, Note_on_c, 0, 56, 37
2, 19778, Note_on_c, 0, 65, 36
2, 19782, Note_on_c, 0, 58, 0
2, 19806, Note_on_c, 0, 65, 0
2, 19824, Note_on_c, 0, 68, 0
2, 19830, Note_on_c, 0, 59, 0
2, 19831, Note_on_c, 0, 56, 0
2, 19832, Control_c, 0, 64, 127
2, 19959, Note_on_c, 0, 68, 69
2, 19962, Control_c, 0, 64, 0
2, 19965, Note_on_c, 0, 63, 55
2, 19965, Note_on_c, 0, 51, 55
2, 19966, Note_on_c, 0, 59, 58
2, 19966, Note_on_c, 0, 65, 64
2, 20140, Control_c, 0, 64, 127
2, 20743, Note_on_c, 0, 65, 0
2, 20749, Note_on_c, 0, 68, 0
2, 20761, Note_on_c, 0, 63, 0
2, 20782, Note_on_c, 0, 59, 0
2, 20783, Note_on_c, 0, 51, 0
2, 20793, Control_c, 0, 64, 0
2, 20947, Note_on_c, 0, 63, 50
2, 20948, Note_on_c, 0, 55, 54
2, 20951, Note_on_c, 0, 61, 44
2, 20953, Note_on_c, 0, 59, 50
2, 20957, Note_on_c, 0, 45, 44
2, 20965, Note_on_c, 0, 52, 35
2, 21078, Control_c, 0, 64, 127
2, 21111, Note_on_c, 0, 59, 0
2, 21139, Note_on_c, 0, 55, 0
2, 21171, Note_on_c, 0, 61, 0
2, 21198, Note_on_c, 0, 63, 0
2, 21236, Note_on_c, 0, 60, 74
2, 21238, Note_on_c, 0, 67, 69
2, 21248, Note_on_c, 0, 52, 0
2, 21249, Note_on_c, 0, 55, 53
2, 21249, Note_on_c, 0, 63, 33
2, 21267, Note_on_c, 0, 63, 0
2, 21294, Note_on_c, 0, 55, 0
2, 21308, Note_on_c, 0, 67, 0
2, 21315, Note_on_c, 0, 60, 0
2, 21315, Note_on_c, 0, 45, 0
2, 21408, Note_on_c, 0, 66, 58
2, 21458, Note_on_c, 0, 66, 0
2, 21494, Control_c, 0, 64, 0
2, 21499, Note_on_c, 0, 63, 56
2, 21502, Note_on_c, 0, 60, 62
2, 21504, Note_on_c, 0, 55, 57
2, 21506, Note_on_c, 0, 44, 36
2, 21509, Note_on_c, 0, 67, 58
2, 21511, Note_on_c, 0, 51, 36
2, 21687, Control_c, 0, 64, 127
2, 21722, Note_on_c, 0, 55, 0
2, 21761, Note_on_c, 0, 60, 0
2, 21779, Note_on_c, 0, 63, 0
2, 21794, Note_on_c, 0, 51, 0
2, 21881, Note_on_c, 0, 63, 47
2, 21882, Note_on_c, 0, 67, 0
2, 21890, Note_on_c, 0, 55, 44
2, 21891, Note_on_c, 0, 60, 54
2, 21892, Note_on_c, 0, 51, 36
2, 22042, Note_on_c, 0, 55, 0
2, 22056, Note_on_c, 0, 44, 0
2, 22078, Note_on_c, 0, 51, 0
2, 22111, Note_on_c, 0, 60, 0
2, 22144, Note_on_c, 0, 63, 0
2, 22255, Note_on_c, 0, 56, 84
2, 22256, Note_on_c, 0, 60, 87
2, 22257, Note_on_c, 0, 63, 64
2, 22258, Note_on_c, 0, 46, 67
2, 22258, Note_on_c, 0, 65, 78
2, 22263, Note_on_c, 0, 53, 64
2, 22269, Control_c, 0, 64, 0
2, 22404, Control_c, 0, 64, 127
2, 22552, Note_on_c, 0, 60, 0
2, 22559, Note_on_c, 0, 56, 0
2, 22563, Note_on_c, 0, 65, 0
2, 22568, Note_on_c, 0, 53, 0
2, 22583, Note_on_c, 0, 63, 0
2, 22630, Control_c, 0, 64, 0
2, 22637, Note_on_c, 0, 63, 62
2, 22640, Note_on_c, 0, 56, 65
2, 22644, Note_on_c, 0, 60, 69
2, 22652, Note_on_c, 0, 53, 63
2, 22663, Control_c, 0, 64, 127
2, 22707, Note_on_c, 0, 53, 0
2, 22807, Note_on_c, 0, 60, 0
2, 22813, Note_on_c, 0, 63, 0
2, 22830, Note_on_c, 0, 62, 55
2, 22865, Note_on_c, 0, 56, 0
2, 22888, Note_on_c, 0, 62, 0
2, 22955, Note_on_c, 0, 63, 65
2, 22961, Note_on_c, 0, 58, 65
2, 22962, Note_on_c, 0, 55, 66
2, 22981, Control_c, 0, 64, 0
2, 22982, Note_on_c, 0, 46, 0
2, 23150, Note_on_c, 0, 46, 63
2, 23191, Note_on_c, 0, 46, 0
2, 23402, Note_on_c, 0, 46, 68
2, 23563, Control_c, 0, 64, 127
2, 23591, Note_on_c, 0, 55, 0
2, 23613, Note_on_c, 0, 58, 0
2, 23784, Control_c, 0, 64, 0
2, 23784, Note_on_c, 0, 58, 57
2, 23787, Note_on_c, 0, 55, 55
2, 23806, Note_on_c, 0, 55, 0
2, 23824, Note_on_c, 0, 58, 0
2, 23974, Note_on_c, 0, 58, 63
2, 23977, Note_on_c, 0, 55, 65
2, 24108, Control_c, 0, 64, 127
2, 24122, Note_on_c, 0, 55, 0
2, 24164, Note_on_c, 0, 58, 0
2, 24178, Note_on_c, 0, 46, 0
2, 24206, Note_on_c, 0, 63, 0
2, 24530, Note_on_c, 0, 63, 27
2, 24536, Note_on_c, 0, 77, 50
2, 24538, Note_on_c, 0, 56, 35
2, 24541, Note_on_c, 0, 72, 47
2, 24544, Note_on_c, 0, 65, 36
2, 24546, Note_on_c, 0, 60, 47
2, 24549, Control_c, 0, 64, 0
2, 24641, Control_c, 0, 64, 127
2, 24702, Note_on_c, 0, 65, 0
2, 24736, Note_on_c, 0, 72, 0
2, 24744, Note_on_c, 0, 77, 0
2, 24759, Note_on_c, 0, 60, 0
2, 24766, Note_on_c, 0, 56, 0
2, 24822, Note_on_c, 0, 63, 0
2, 24918, Note_on_c, 0, 79, 64
2, 24923, Note_on_c, 0, 63, 42
2, 24926, Note_on_c, 0, 72, 59
2, 24929, Note_on_c, 0, 67, 41
2, 24932, Note_on_c, 0, 60, 49
2, 24940, Note_on_c, 0, 56, 34
2, 25031, Note_on_c, 0, 72, 0
2, 25062, Note_on_c, 0, 79, 0
2, 25170, Note_on_c, 0, 67, 0
2, 25184, Note_on_c, 0, 56, 0
2, 25207, Note_on_c, 0, 63, 0
2, 25246, Note_on_c, 0, 80, 74
2, 25252, Note_on_c, 0, 60, 0
2, 25298, Note_on_c, 0, 80, 0
2, 25339, Note_on_c, 0, 82, 93
2, 25340, Note_on_c, 0, 62, 68
2, 25342, Note_on_c, 0, 66, 76
2, 25344, Note_on_c, 0, 56, 71
2, 25363, Control_c, 0, 64, 0
2, 25476, Control_c, 0, 64, 127
2, 25614, Note_on_c, 0, 56, 0
2, 25631, Note_on_c, 0, 62, 0
2, 25643, Note_on_c, 0, 66, 0
2, 25726, Note_on_c, 0, 62, 43
2, 25727, Note_on_c, 0, 65, 50
2, 25728, Note_on_c, 0, 56, 46
2, 25869, Note_on_c, 0, 82, 0
2, 25999, Note_on_c, 0, 65, 0
2, 26010, Note_on_c, 0, 62, 0
2, 26024, Note_on_c, 0, 83, 82
2, 26043, Note_on_c, 0, 84, 79
2, 26060, Note_on_c, 0, 56, 0
2, 26080, Note_on_c, 0, 83, 0
2, 26115, Note_on_c, 0, 84, 0
2, 26141, Note_on_c, 0, 62, 33
2, 26143, Note_on_c, 0, 60, 47
2, 26146, Note_on_c, 0, 55, 60
2, 26146, Note_on_c, 0, 65, 52
2, 26151, Note_on_c, 0, 83, 73
2, 26176, Control_c, 0, 64, 0
2, 26184, Note_on_c, 0, 84, 71
2, 26210, Note_on_c, 0, 83, 0
2, 26295, Note_on_c, 0, 84, 0
2, 26320, Note_on_c, 0, 82, 60
2, 26397, Note_on_c, 0, 82, 0
2, 26496, Note_on_c, 0, 80, 62
2, 26543, Control_c, 0, 64, 127
2, 26584, Note_on_c, 0, 80, 0
2, 26658, Note_on_c, 0, 65, 0
2, 26670, Note_on_c, 0, 62, 0
2, 26685, Note_on_c, 0, 60, 0
2, 26700, Note_on_c, 0, 55, 0
2, 26783, Note_on_c, 0, 78, 65
2, 26798, Note_on_c, 0, 79, 73
2, 26832, Note_on_c, 0, 78, 0
2, 26840, Control_c, 0, 64, 0
2, 26861, Note_on_c, 0, 79, 0
2, 27039, Note_on_c, 0, 75, 68
2, 27046, Note_on_c, 0, 63, 53
2, 27047, Note_on_c, 0, 76, 69
2, 27048, Note_on_c, 0, 58, 42
2, 27058, Note_on_c, 0, 52, 43
2, 27087, Note_on_c, 0, 75, 0
2, 27180, Control_c, 0, 64, 127
2, 27247, Note_on_c, 0, 63, 0
2, 27261, Note_on_c, 0, 58, 0
2, 27289, Note_on_c, 0, 76, 0
2, 27313, Note_on_c, 0, 73, 69
2, 27341, Note_on_c, 0, 63, 47
2, 27345, Note_on_c, 0, 58, 36
2, 27373, Control_c, 0, 64, 0
2, 27383, Note_on_c, 0, 73, 0
2, 27409, Note_on_c, 0, 72, 41
2, 27438, Note_on_c, 0, 52, 0
2, 27470, Control_c, 0, 64, 127
2, 27478, Note_on_c, 0, 72, 0
2, 27481, Note_on_c, 0, 58, 0
2, 27519, Note_on_c, 0, 63, 0
2, 27521, Note_on_c, 0, 70, 60
2, 27587, Note_on_c, 0, 70, 0
2, 27596, Note_on_c, 0, 63, 35
2, 27613, Note_on_c, 0, 68, 57
2, 27617, Note_on_c, 0, 60, 40
2, 27619, Note_on_c, 0, 56, 33
2, 27621, Control_c, 0, 64, 0
2, 27623, Note_on_c, 0, 53, 34
2, 27769, Note_on_c, 0, 68, 0
2, 27819, Note_on_c, 0, 67, 54
2, 27869, Control_c, 0, 64, 127
2, 28081, Note_on_c, 0, 63, 0
2, 28090, Note_on_c, 0, 60, 0
2, 28103, Note_on_c, 0, 65, 70
2, 28135, Note_on_c, 0, 67, 0
2, 28158, Note_on_c, 0, 63, 33
2, 28164, Note_on_c, 0, 60, 40
2, 28177, Note_on_c, 0, 63, 0
2, 28189, Note_on_c, 0, 65, 0
2, 28189, Note_on_c, 0, 60, 0
2, 28215, Note_on_c, 0, 53, 0
2, 28238, Note_on_c, 0, 56, 0
2, 28275, Note_on_c, 0, 63, 70
2, 28349, Note_on_c, 0, 63, 0
2, 28397, Note_on_c, 0, 46, 46
2, 28398, Note_on_c, 0, 56, 34
2, 28402, Note_on_c, 0, 62, 74
2, 28435, Control_c, 0, 64, 0
2, 28559, Control_c, 0, 64, 127
2, 28714, Note_on_c, 0, 53, 11
2, 28719, Note_on_c, 0, 56, 0
2, 28782, Note_on_c, 0, 62, 0
2, 28785, Note_on_c, 0, 53, 0
2, 28790, Note_on_c, 0, 56, 34
2, 28797, Note_on_c, 0, 60, 61
2, 28967, Note_on_c, 0, 56, 0
2, 29036, Note_on_c, 0, 46, 0
2, 29128, Note_on_c, 0, 60, 0
2, 29149, Note_on_c, 0, 39, 56
2, 29157, Note_on_c, 0, 46, 36
2, 29168, Note_on_c, 0, 58, 61
2, 29195, Control_c, 0, 64, 0
2, 29314, Control_c, 0, 64, 127
2, 29553, Note_on_c, 0, 55, 66
2, 29565, Note_on_c, 0, 51, 39
2, 29628, Note_on_c, 0, 39, 0
2, 29657, Note_on_c, 0, 46, 0
2, 29669, Note_on_c, 0, 51, 0
2, 29712, Note_on_c, 0, 55, 0
2, 29768, Note_on_c, 0, 58, 0
2, 29932, Note_on_c, 0, 58, 83
2, 29932, Note_on_c, 0, 60, 80
2, 29939, Control_c, 0, 64, 0
2, 29940, Note_on_c, 0, 48, 74
2, 30051, Control_c, 0, 64, 127
2, 30069, Note_on_c, 0, 58, 0
2, 30084, Note_on_c, 0, 60, 0
2, 30109, Note_on_c, 0, 48, 0
2, 30317, Note_on_c, 0, 75, 80
2, 30319, Note_on_c, 0, 68, 87
2, 30320, Note_on_c, 0, 72, 81
2, 30321, Note_on_c, 0, 63, 85
2, 30326, Note_on_c, 0, 64, 87
2, 30328, Control_c, 0, 64, 0
2, 30420, Control_c, 0, 64, 127
2, 30470, Note_on_c, 0, 75, 0
2, 30479, Note_on_c, 0, 72, 0
2, 30493, Note_on_c, 0, 63, 0
2, 30504, Note_on_c, 0, 64, 0
2, 30515, Note_on_c, 0, 73, 74
2, 30538, Note_on_c, 0, 60, 55
2, 30605, Note_on_c, 0, 68, 0
2, 30612, Note_on_c, 0, 73, 0
2, 30659, Note_on_c, 0, 60, 0
2, 30717, Note_on_c, 0, 63, 47
2, 30721, Control_c, 0, 64, 0
2, 30722, Note_on_c, 0, 72, 59
2, 30727, Note_on_c, 0, 60, 44
2, 30730, Note_on_c, 0, 68, 45
2, 30732, Note_on_c, 0, 65, 42
2, 30734, Note_on_c, 0, 56, 36
2, 30736, Note_on_c, 0, 53, 33
2, 30824, Control_c, 0, 64, 127
2, 30854, Note_on_c, 0, 65, 0
2, 30890, Note_on_c, 0, 68, 0
2, 30909, Note_on_c, 0, 53, 0
2, 30912, Note_on_c, 0, 72, 0
2, 30917, Note_on_c, 0, 63, 0
2, 30917, Note_on_c, 0, 60, 0
2, 30949, Note_on_c, 0, 56, 0
2, 31182, Note_on_c, 0, 56, 46
2, 31183, Note_on_c, 0, 60, 63
2, 31184, Note_on_c, 0, 79, 69
2, 31185, Note_on_c, 0, 75, 71
2, 31186, Note_on_c, 0, 63, 47
2, 31189, Note_on_c, 0, 67, 66
2, 31210, Note_on_c, 0, 77, 30
2, 31220, Note_on_c, 0, 67, 0
2, 31228, Note_on_c, 0, 63, 0
2, 31232, Note_on_c, 0, 79, 0
2, 31233, Note_on_c, 0, 77, 0
2, 31234, Note_on_c, 0, 60, 0
2, 31235, Note_on_c, 0, 56, 0
2, 31247, Note_on_c, 0, 75, 0
2, 31279, Note_on_c, 0, 63, 52
2, 31285, Note_on_c, 0, 60, 61
2, 31287, Note_on_c, 0, 56, 36
2, 31291, Note_on_c, 0, 68, 72
2, 31298, Note_on_c, 0, 80, 55
2, 31316, Note_on_c, 0, 80, 0
2, 31322, Note_on_c, 0, 68, 0
2, 31334, Note_on_c, 0, 63, 0
2, 31337, Note_on_c, 0, 60, 0
2, 31342, Note_on_c, 0, 56, 0
2, 31392, Note_on_c, 0, 63, 50
2, 31394, Note_on_c, 0, 56, 52
2, 31402, Note_on_c, 0, 60, 64
2, 31405, Note_on_c, 0, 82, 92
2, 31405, Note_on_c, 0, 70, 95
2, 31441, Note_on_c, 0, 70, 0
2, 31454, Note_on_c, 0, 56, 0
2, 31458, Note_on_c, 0, 82, 0
2, 31470, Note_on_c, 0, 63, 0
2, 31474, Note_on_c, 0, 60, 0
2, 31515, Note_on_c, 0, 70, 88
2, 31518, Note_on_c, 0, 56, 68
2, 31518, Note_on_c, 0, 82, 75
2, 31520, Note_on_c, 0, 67, 73
2, 31522, Note_on_c, 0, 62, 64
2, 31530, Control_c, 0, 64, 0
2, 31532, Note_on_c, 0, 76, 43
2, 31541, Note_on_c, 0, 83, 61
2, 31554, Note_on_c, 0, 70, 0
2, 31558, Note_on_c, 0, 71, 68
2, 31567, Note_on_c, 0, 82, 0
2, 31570, Note_on_c, 0, 81, 38
2, 31659, Control_c, 0, 64, 127
2, 31768, Note_on_c, 0, 76, 0
2, 31774, Note_on_c, 0, 83, 0
2, 31795, Note_on_c, 0, 81, 0
2, 31799, Note_on_c, 0, 56, 0
2, 31801, Note_on_c, 0, 71, 0
2, 31803, Note_on_c, 0, 67, 0
2, 31830, Note_on_c, 0, 62, 0
2, 31877, Note_on_c, 0, 82, 51
2, 31880, Control_c, 0, 64, 0
2, 31880, Note_on_c, 0, 56, 52
2, 31884, Note_on_c, 0, 62, 57
2, 31888, Note_on_c, 0, 70, 48
2, 31889, Note_on_c, 0, 79, 45
2, 31891, Note_on_c, 0, 67, 45
2, 31893, Note_on_c, 0, 76, 50
2, 31999, Control_c, 0, 64, 127
2, 32043, Note_on_c, 0, 76, 0
2, 32079, Note_on_c, 0, 67, 0
2, 32113, Note_on_c, 0, 62, 0
2, 32129, Note_on_c, 0, 56, 0
2, 32131, Note_on_c, 0, 82, 0
2, 32141, Note_on_c, 0, 70, 0
2, 32194, Note_on_c, 0, 79, 0
2, 32265, Note_on_c, 0, 82, 56
2, 32267, Note_on_c, 0, 62, 31
2, 32268, Control_c, 0, 64, 0
2, 32270, Note_on_c, 0, 65, 44
2, 32275, Note_on_c, 0, 70, 46
2, 32276, Note_on_c, 0, 55, 37
2, 32278, Note_on_c, 0, 77, 55
2, 32280, Note_on_c, 0, 60, 42
2, 32387, Control_c, 0, 64, 127
2, 32517, Note_on_c, 0, 60, 0
2, 32518, Note_on_c, 0, 65, 0
2, 32522, Note_on_c, 0, 55, 0
2, 32524, Note_on_c, 0, 82, 0
2, 32528, Note_on_c, 0, 77, 0
2, 32536, Note_on_c, 0, 62, 0
2, 32538, Note_on_c, 0, 70, 0
2, 32637, Note_on_c, 0, 80, 49
2, 32645, Note_on_c, 0, 65, 48
2, 32645, Note_on_c, 0, 62, 43
2, 32646, Note_on_c, 0, 75, 57
2, 32649, Note_on_c, 0, 60, 47
2, 32651, Note_on_c, 0, 68, 36
2, 32652, Note_on_c, 0, 55, 42
2, 32663, Control_c, 0, 64, 0
2, 32771, Control_c, 0, 64, 127
2, 32785, Note_on_c, 0, 62, 0
2, 32794, Note_on_c, 0, 65, 0
2, 32808, Note_on_c, 0, 60, 0
2, 32852, Note_on_c, 0, 55, 0
2, 32857, Note_on_c, 0, 68, 0
2, 32869, Note_on_c, 0, 80, 0
2, 32876, Note_on_c, 0, 75, 0
2, 32906, Control_c, 0, 64, 0
2, 33024, Control_c, 0, 64, 127
2, 33196, Note_on_c, 0, 75, 70
2, 33199, Note_on_c, 0, 79, 72
2, 33201, Note_on_c, 0, 71, 82
2, 33202, Control_c, 0, 64, 0
2, 33203, Note_on_c, 0, 53, 73
2, 33204, Note_on_c, 0, 63, 77
2, 33204, Note_on_c, 0, 59, 72
2, 33205, Note_on_c, 0, 67, 73
2, 33220, Note_on_c, 0, 77, 29
2, 33238, Note_on_c, 0, 77, 0
2, 33338, Control_c, 0, 64, 127
2, 33383, Note_on_c, 0, 53, 0
2, 33389, Note_on_c, 0, 79, 0
2, 33402, Note_on_c, 0, 63, 0
2, 33411, Note_on_c, 0, 67, 0
2, 33414, Note_on_c, 0, 71, 0
2, 33419, Note_on_c, 0, 59, 0
2, 33423, Note_on_c, 0, 75, 0
2, 33480, Note_on_c, 0, 77, 71
2, 33485, Note_on_c, 0, 63, 69
2, 33489, Note_on_c, 0, 59, 58
2, 33491, Note_on_c, 0, 65, 64
2, 33492, Note_on_c, 0, 71, 58
2, 33492, Note_on_c, 0, 53, 62
2, 33516, Control_c, 0, 64, 0
2, 33539, Note_on_c, 0, 71, 0
2, 33546, Note_on_c, 0, 53, 0
2, 33548, Note_on_c, 0, 63, 0
2, 33550, Note_on_c, 0, 59, 0
2, 33572, Note_on_c, 0, 65, 0
2, 33577, Note_on_c, 0, 77, 0
2, 33619, Control_c, 0, 64, 127
2, 33680, Note_on_c, 0, 75, 64
2, 33722, Note_on_c, 0, 75, 0
2, 33775, Control_c, 0, 64, 0
2, 33781, Note_on_c, 0, 62, 62
2, 33783, Note_on_c, 0, 75, 77
2, 33789, Note_on_c, 0, 51, 46
2, 33790, Note_on_c, 0, 55, 59
2, 33791, Note_on_c, 0, 57, 54
2, 33938, Control_c, 0, 64, 127
2, 34035, Note_on_c, 0, 62, 0
2, 34061, Note_on_c, 0, 57, 0
2, 34122, Note_on_c, 0, 75, 0
2, 34155, Note_on_c, 0, 74, 74
2, 34158, Note_on_c, 0, 62, 56
2, 34164, Control_c, 0, 64, 0
2, 34166, Note_on_c, 0, 57, 41
2, 34282, Control_c, 0, 64, 127
2, 34324, Note_on_c, 0, 57, 0
2, 34331, Note_on_c, 0, 55, 0
2, 34332, Note_on_c, 0, 51, 0
2, 34374, Note_on_c, 0, 62, 0
2, 34533, Note_on_c, 0, 74, 0
2, 34568, Note_on_c, 0, 60, 36
2, 34570, Note_on_c, 0, 63, 46
2, 34576, Note_on_c, 0, 55, 45
2, 34589, Note_on_c, 0, 72, 62
2, 34600, Note_on_c, 0, 57, 24
2, 34602, Control_c, 0, 64, 0
2, 34724, Control_c, 0, 64, 127
2, 34830, Note_on_c, 0, 55, 0
2, 34835, Note_on_c, 0, 57, 0
2, 34842, Note_on_c, 0, 60, 0
2, 34866, Note_on_c, 0, 63, 0
2, 34964, Note_on_c, 0, 64, 62
2, 34967, Control_c, 0, 64, 0
2, 34968, Note_on_c, 0, 54, 64
2, 34969, Note_on_c, 0, 60, 64
2, 35107, Control_c, 0, 64, 127
2, 35132, Note_on_c, 0, 72, 0
2, 35231, Note_on_c, 0, 64, 0
2, 35245, Note_on_c, 0, 60, 0
2, 35254, Note_on_c, 0, 74, 72
2, 35262, Note_on_c, 0, 54, 0
2, 35321, Note_on_c, 0, 74, 0
2, 35339, Note_on_c, 0, 62, 54
2, 35345, Control_c, 0, 64, 0
2, 35352, Note_on_c, 0, 54, 37
2, 35353, Note_on_c, 0, 59, 49
2, 35354, Note_on_c, 0, 71, 48
2, 35468, Control_c, 0, 64, 127
2, 35519, Note_on_c, 0, 71, 0
2, 35619, Note_on_c, 0, 62, 0
2, 35655, Note_on_c, 0, 59, 0
2, 35683, Note_on_c, 0, 54, 0
2, 35716, Note_on_c, 0, 66, 59
2, 36061, Note_on_c, 0, 66, 0
2, 36093, Note_on_c, 0, 62, 49
2, 36094, Note_on_c, 0, 59, 44
2, 36100, Note_on_c, 0, 53, 44
2, 36121, Control_c, 0, 64, 0
2, 36212, Control_c, 0, 64, 127
2, 36240, Note_on_c, 0, 62, 0
2, 36296, Note_on_c, 0, 59, 0
2, 36362, Note_on_c, 0, 53, 0
2, 36393, Note_on_c, 0, 50, 36
2, 36434, Note_on_c, 0, 50, 0
2, 36465, Note_on_c, 0, 47, 57
2, 36471, Note_on_c, 0, 56, 64
2, 36472, Note_on_c, 0, 65, 64
2, 36474, Note_on_c, 0, 62, 62
2, 36474, Note_on_c, 0, 59, 68
2, 36498, Control_c, 0, 64, 0
2, 36654, Control_c, 0, 64, 127
2, 36686, Note_on_c, 0, 59, 0
2, 36755, Note_on_c, 0, 65, 0
2, 36767, Note_on_c, 0, 62, 0
2, 36786, Note_on_c, 0, 56, 0
2, 36804, Note_on_c, 0, 46, 21
2, 36839, Note_on_c, 0, 47, 0
2, 36861, Note_on_c, 0, 48, 51
2, 36863, Note_on_c, 0, 55, 49
2, 36867, Note_on_c, 0, 63, 45
2, 36875, Note_on_c, 0, 46, 0
2, 36875, Note_on_c, 0, 60, 52
2, 36886, Control_c, 0, 64, 0
2, 37005, Control_c, 0, 64, 127
2, 37032, Note_on_c, 0, 60, 0
2, 37118, Note_on_c, 0, 63, 0
2, 37128, Note_on_c, 0, 55, 0
2, 37248, Note_on_c, 0, 55, 81
2, 37263, Control_c, 0, 64, 0
2, 37351, Note_on_c, 0, 63, 67
2, 37354, Note_on_c, 0, 56, 75
2, 37356, Note_on_c, 0, 55, 0
2, 37537, Note_on_c, 0, 56, 0
2, 37541, Note_on_c, 0, 63, 0
2, 37550, Note_on_c, 0, 55, 57
2, 37579, Note_on_c, 0, 55, 0
2, 37626, Note_on_c, 0, 63, 49
2, 37628, Note_on_c, 0, 56, 62
2, 37867, Control_c, 0, 64, 127
2, 37876, Note_on_c, 0, 63, 0
2, 37914, Note_on_c, 0, 56, 0
2, 37925, Note_on_c, 0, 63, 45
2, 37934, Note_on_c, 0, 55, 52
2, 37937, Control_c, 0, 64, 0
2, 38061, Control_c, 0, 64, 127
2, 38161, Note_on_c, 0, 48, 0
2, 38200, Control_c, 0, 64, 0
2, 38220, Note_on_c, 0, 47, 77
2, 38386, Note_on_c, 0, 63, 0
2, 38486, Control_c, 0, 64, 127
2, 38529, Control_c, 0, 64, 0
2, 38633, Control_c, 0, 64, 127
2, 38665, Note_on_c, 0, 55, 0
2, 38794, Control_c, 0, 64, 0
2, 38799, Note_on_c, 0, 55, 49
2, 38907, Note_on_c, 0, 55, 0
2, 38909, Note_on_c, 0, 56, 68
2, 38911, Note_on_c, 0, 63, 62
2, 38944, Note_on_c, 0, 63, 0
2, 38950, Note_on_c, 0, 56, 0
2, 39112, Note_on_c, 0, 55, 55
2, 39139, Note_on_c, 0, 55, 0
2, 39187, Note_on_c, 0, 62, 66
2, 39187, Note_on_c, 0, 56, 71
2, 39413, Control_c, 0, 64, 127
2, 39463, Note_on_c, 0, 56, 0
2, 39477, Note_on_c, 0, 55, 47
2, 39479, Control_c, 0, 64, 0
2, 39639, Note_on_c, 0, 47, 0
2, 39662, Control_c, 0, 64, 127
2, 39678, Control_c, 0, 64, 0
2, 39722, Note_on_c, 0, 47, 58
2, 39774, Note_on_c, 0, 47, 0
2, 39920, Note_on_c, 0, 46, 60
2, 39942, Note_on_c, 0, 55, 0
2, 39955, Note_on_c, 0, 62, 0
2, 40017, Control_c, 0, 64, 127
2, 40504, Note_on_c, 0, 55, 62
2, 40524, Note_on_c, 0, 55, 0
2, 40558, Note_on_c, 0, 46, 0
2, 40796, Note_on_c, 0, 74, 84
2, 40799, Note_on_c, 0, 67, 87
2, 40800, Note_on_c, 0, 70, 77
2, 40801, Note_on_c, 0, 63, 91
2, 40802, Note_on_c, 0, 62, 89
2, 40821, Control_c, 0, 64, 0
2, 40950, Control_c, 0, 64, 127
2, 41026, Note_on_c, 0, 63, 0
2, 41026, Note_on_c, 0, 74, 0
2, 41027, Note_on_c, 0, 67, 0
2, 41030, Note_on_c, 0, 70, 0
2, 41078, Note_on_c, 0, 63, 75
2, 41079, Note_on_c, 0, 67, 63
2, 41080, Note_on_c, 0, 72, 72
2, 41085, Note_on_c, 0, 70, 53
2, 41087, Note_on_c, 0, 62, 0
2, 41087, Note_on_c, 0, 60, 71
2, 41198, Note_on_c, 0, 60, 0
2, 41260, Note_on_c, 0, 67, 0
2, 41281, Note_on_c, 0, 72, 0
2, 41282, Note_on_c, 0, 70, 0
2, 41282, Note_on_c, 0, 63, 0
2, 41645, Control_c, 0, 64, 0
2, 41649, Note_on_c, 0, 56, 47
2, 41656, Note_on_c, 0, 60, 60
2, 41657, Note_on_c, 0, 51, 46
2, 41659, Note_on_c, 0, 44, 43
2, 41753, Control_c, 0, 64, 127
2, 41755, Note_on_c, 0, 56, 0
2, 41773, Note_on_c, 0, 60, 0
2, 41786, Note_on_c, 0, 44, 0
2, 41813, Note_on_c, 0, 51, 0
2, 42042, Note_on_c, 0, 79, 81
2, 42043, Note_on_c, 0, 75, 67
2, 42044, Note_on_c, 0, 72, 71
2, 42045, Note_on_c, 0, 67, 75
2, 42045, Note_on_c, 0, 63, 58
2, 42050, Note_on_c, 0, 56, 53
2, 42053, Note_on_c, 0, 60, 64
2, 42070, Control_c, 0, 64, 0
2, 42162, Control_c, 0, 64, 127
2, 42255, Note_on_c, 0, 67, 0
2, 42296, Note_on_c, 0, 72, 0
2, 42315, Note_on_c, 0, 75, 0
2, 42341, Note_on_c, 0, 79, 0
2, 42345, Note_on_c, 0, 63, 0
2, 42351, Note_on_c, 0, 60, 0
2, 42424, Note_on_c, 0, 79, 68
2, 42426, Note_on_c, 0, 67, 61
2, 42429, Note_on_c, 0, 63, 49
2, 42429, Note_on_c, 0, 75, 53
2, 42437, Note_on_c, 0, 72, 52
2, 42438, Note_on_c, 0, 60, 58
2, 42442, Note_on_c, 0, 73, 34
2, 42458, Control_c, 0, 64, 0
2, 42468, Note_on_c, 0, 73, 0
2, 42540, Control_c, 0, 64, 127
2, 42585, Note_on_c, 0, 79, 0
2, 42596, Note_on_c, 0, 67, 0
2, 42602, Note_on_c, 0, 72, 0
2, 42608, Note_on_c, 0, 60, 0
2, 42624, Note_on_c, 0, 56, 0
2, 42631, Note_on_c, 0, 63, 0
2, 42632, Note_on_c, 0, 75, 0
2, 42716, Note_on_c, 0, 77, 66
2, 42720, Note_on_c, 0, 72, 76
2, 42723, Note_on_c, 0, 63, 59
2, 42726, Note_on_c, 0, 56, 54
2, 42727, Note_on_c, 0, 67, 59
2, 42732, Note_on_c, 0, 60, 59
2, 42762, Note_on_c, 0, 72, 0
2, 42768, Note_on_c, 0, 67, 0
2, 42770, Note_on_c, 0, 77, 0
2, 42776, Control_c, 0, 64, 0
2, 42800, Note_on_c, 0, 67, 17
2, 42814, Note_on_c, 0, 77, 56
2, 42815, Note_on_c, 0, 72, 48
2, 42862, Note_on_c, 0, 72, 0
2, 42872, Note_on_c, 0, 77, 0
2, 42885, Note_on_c, 0, 67, 0
2, 42900, Note_on_c, 0, 56, 0
2, 42929, Note_on_c, 0, 60, 0
2, 42933, Control_c, 0, 64, 127
2, 42937, Note_on_c, 0, 63, 0
2, 42982, Control_c, 0, 64, 0
2, 43002, Note_on_c, 0, 67, 60
2, 43003, Note_on_c, 0, 62, 55
2, 43005, Note_on_c, 0, 77, 62
2, 43005, Note_on_c, 0, 56, 46
2, 43005, Note_on_c, 0, 72, 61
2, 43024, Note_on_c, 0, 72, 0
2, 43025, Note_on_c, 0, 67, 0
2, 43030, Note_on_c, 0, 77, 0
2, 43036, Note_on_c, 0, 62, 0
2, 43040, Note_on_c, 0, 56, 0
2, 43201, Note_on_c, 0, 62, 56
2, 43204, Note_on_c, 0, 56, 56
2, 43205, Note_on_c, 0, 77, 60
2, 43206, Note_on_c, 0, 67, 62
2, 43207, Note_on_c, 0, 72, 58
2, 43225, Note_on_c, 0, 72, 0
2, 43225, Note_on_c, 0, 67, 0
2, 43228, Note_on_c, 0, 77, 0
2, 43243, Note_on_c, 0, 62, 0
2, 43244, Note_on_c, 0, 56, 0
2, 43386, Control_c, 0, 64, 127
2, 43494, Note_on_c, 0, 72, 85
2, 43495, Note_on_c, 0, 62, 70
2, 43497, Note_on_c, 0, 77, 74
2, 43497, Note_on_c, 0, 56, 69
2, 43502, Note_on_c, 0, 67, 67
2, 43527, Note_on_c, 0, 67, 0
2, 43529, Note_on_c, 0, 72, 0
2, 43540, Note_on_c, 0, 77, 0
2, 43547, Control_c, 0, 64, 0
2, 43549, Note_on_c, 0, 62, 0
2, 43585, Note_on_c, 0, 62, 38
2, 43589, Note_on_c, 0, 72, 67
2, 43591, Note_on_c, 0, 77, 51
2, 43612, Control_c, 0, 64, 127
2, 43622, Note_on_c, 0, 72, 0
2, 43632, Note_on_c, 0, 62, 0
2, 43634, Note_on_c, 0, 77, 0
2, 43642, Note_on_c, 0, 56, 0
2, 43704, Control_c, 0, 64, 0
2, 43712, Note_on_c, 0, 67, 81
2, 43714, Note_on_c, 0, 76, 82
2, 43715, Note_on_c, 0, 56, 61
2, 43715, Note_on_c, 0, 83, 90
2, 43717, Note_on_c, 0, 63, 57
2, 43719, Note_on_c, 0, 60, 68
2, 43733, Note_on_c, 0, 76, 0
2, 43738, Note_on_c, 0, 60, 0
2, 43746, Note_on_c, 0, 67, 0
2, 43747, Note_on_c, 0, 83, 0
2, 43753, Note_on_c, 0, 63, 0
2, 43757, Note_on_c, 0, 56, 0
2, 43888, Note_on_c, 0, 84, 85
2, 43889, Note_on_c, 0, 77, 85
2, 43894, Note_on_c, 0, 63, 67
2, 43899, Note_on_c, 0, 67, 62
2, 43902, Note_on_c, 0, 60, 59
2, 43902, Note_on_c, 0, 56, 42
2, 43916, Note_on_c, 0, 67, 0
2, 43920, Note_on_c, 0, 60, 0
2, 43920, Note_on_c, 0, 77, 0
2, 43922, Note_on_c, 0, 56, 0
2, 43924, Note_on_c, 0, 84, 0
2, 43931, Note_on_c, 0, 63, 0
2, 44038, Control_c, 0, 64, 127
2, 44072, Note_on_c, 0, 63, 75
2, 44075, Note_on_c, 0, 77, 89
2, 44075, Note_on_c, 0, 84, 84
2, 44079, Note_on_c, 0, 56, 58
2, 44080, Note_on_c, 0, 60, 67
2, 44081, Note_on_c, 0, 67, 66
2, 44097, Note_on_c, 0, 56, 0
2, 44098, Note_on_c, 0, 60, 0
2, 44099, Note_on_c, 0, 67, 0
2, 44108, Note_on_c, 0, 77, 0
2, 44111, Note_on_c, 0, 84, 0
2, 44112, Note_on_c, 0, 63, 0
2, 44137, Control_c, 0, 64, 0
2, 44156, Note_on_c, 0, 63, 64
2, 44156, Note_on_c, 0, 56, 59
2, 44162, Note_on_c, 0, 60, 71
2, 44163, Note_on_c, 0, 67, 63
2, 44171, Note_on_c, 0, 84, 84
2, 44171, Note_on_c, 0, 77, 85
2, 44201, Control_c, 0, 64, 127
2, 44250, Note_on_c, 0, 77, 0
2, 44266, Note_on_c, 0, 67, 0
2, 44291, Note_on_c, 0, 56, 0
2, 44298, Note_on_c, 0, 84, 0
2, 44319, Note_on_c, 0, 63, 0
2, 44326, Note_on_c, 0, 60, 0
2, 44330, Control_c, 0, 64, 0
2, 44348, Note_on_c, 0, 83, 82
2, 44350, Note_on_c, 0, 74, 78
2, 44353, Note_on_c, 0, 78, 74
2, 44354, Note_on_c, 0, 56, 67
2, 44356, Note_on_c, 0, 62, 65
2, 44356, Note_on_c, 0, 66, 77
2, 44367, Note_on_c, 0, 60, 52
2, 44411, Control_c, 0, 64, 127
2, 44418, Note_on_c, 0, 79, 46
2, 44420, Note_on_c, 0, 78, 0
2, 44436, Note_on_c, 0, 60, 0
2, 44463, Note_on_c, 0, 83, 0
2, 44468, Note_on_c, 0, 62, 0
2, 44469, Note_on_c, 0, 74, 0
2, 44477, Note_on_c, 0, 79, 0
2, 44482, Note_on_c, 0, 66, 0
2, 44503, Note_on_c, 0, 56, 0
2, 44544, Note_on_c, 0, 73, 74
2, 44545, Note_on_c, 0, 82, 73
2, 44546, Note_on_c, 0, 65, 71
2, 44547, Control_c, 0, 64, 0
2, 44550, Note_on_c, 0, 61, 59
2, 44550, Note_on_c, 0, 58, 52
2, 44553, Note_on_c, 0, 55, 57
2, 44682, Control_c, 0, 64, 127
2, 44791, Note_on_c, 0, 61, 0
2, 44802, Note_on_c, 0, 65, 0
2, 44813, Note_on_c, 0, 73, 0
2, 44860, Note_on_c, 0, 58, 0
2, 44915, Note_on_c, 0, 73, 44
2, 44920, Note_on_c, 0, 58, 14
2, 44921, Note_on_c, 0, 61, 51
2, 44924, Note_on_c, 0, 77, 32
2, 44929, Note_on_c, 0, 65, 50
2, 45020, Note_on_c, 0, 65, 0
2, 45041, Note_on_c, 0, 82, 0
2, 45042, Note_on_c, 0, 77, 0
2, 45060, Note_on_c, 0, 73, 0
2, 45067, Note_on_c, 0, 61, 0
2, 45088, Note_on_c, 0, 55, 0
2, 45089, Note_on_c, 0, 58, 0
2, 45429, Note_on_c, 0, 55, 33
2, 45502, Note_on_c, 0, 68, 83
2, 45504, Note_on_c, 0, 58, 92
2, 45505, Note_on_c, 0, 61, 84
2, 45508, Note_on_c, 0, 56, 97
2, 45509, Note_on_c, 0, 64, 79
2, 45528, Note_on_c, 0, 55, 0
2, 45549, Control_c, 0, 64, 0
2, 45663, Control_c, 0, 64, 127
2, 45739, Note_on_c, 0, 64, 0
2, 45740, Note_on_c, 0, 68, 0
2, 45741, Note_on_c, 0, 66, 11
2, 45755, Note_on_c, 0, 61, 0
2, 45758, Note_on_c, 0, 56, 0
2, 45760, Note_on_c, 0, 58, 0
2, 45761, Note_on_c, 0, 66, 0
2, 45819, Note_on_c, 0, 58, 54
2, 45820, Note_on_c, 0, 61, 47
2, 45820, Note_on_c, 0, 67, 56
2, 45834, Note_on_c, 0, 64, 41
2, 45836, Note_on_c, 0, 55, 56
2, 45841, Control_c, 0, 64, 0
2, 45916, Control_c, 0, 64, 127
2, 45917, Note_on_c, 0, 64, 0
2, 45940, Note_on_c, 0, 67, 0
2, 45994, Note_on_c, 0, 58, 0
2, 46011, Note_on_c, 0, 55, 0
2, 46013, Note_on_c, 0, 51, 45
2, 46020, Note_on_c, 0, 61, 0
2, 46076, Note_on_c, 0, 68, 60
2, 46080, Note_on_c, 0, 51, 0
2, 46083, Note_on_c, 0, 60, 65
2, 46086, Note_on_c, 0, 56, 51
2, 46086, Note_on_c, 0, 63, 49
2, 46097, Note_on_c, 0, 53, 48
2, 46100, Control_c, 0, 64, 0
2, 46272, Control_c, 0, 64, 127
2, 46338, Note_on_c, 0, 60, 0
2, 46349, Note_on_c, 0, 63, 0
2, 46369, Note_on_c, 0, 56, 0
2, 46446, Note_on_c, 0, 68, 0
2, 46461, Note_on_c, 0, 53, 0
2, 46464, Note_on_c, 0, 56, 49
2, 46464, Note_on_c, 0, 63, 46
2, 46474, Note_on_c, 0, 60, 59
2, 46499, Note_on_c, 0, 51, 23
2, 46625, Note_on_c, 0, 56, 0
2, 46626, Note_on_c, 0, 51, 0
2, 46627, Note_on_c, 0, 60, 0
2, 46799, Note_on_c, 0, 63, 0
2, 46832, Control_c, 0, 64, 0
2, 46841, Note_on_c, 0, 59, 51
2, 46842, Note_on_c, 0, 44, 43
2, 46855, Note_on_c, 0, 53, 38
2, 46919, Control_c, 0, 64, 127
2, 46944, Note_on_c, 0, 44, 0
2, 46969, Note_on_c, 0, 59, 0
2, 46972, Note_on_c, 0, 53, 0
2, 47216, Note_on_c, 0, 63, 69
2, 47219, Note_on_c, 0, 59, 61
2, 47221, Note_on_c, 0, 79, 80
2, 47221, Note_on_c, 0, 67, 78
2, 47222, Note_on_c, 0, 54, 62
2, 47229, Note_on_c, 0, 58, 46
2, 47255, Note_on_c, 0, 67, 0
2, 47258, Note_on_c, 0, 79, 0
2, 47263, Control_c, 0, 64, 0
2, 47277, Note_on_c, 0, 63, 0
2, 47363, Note_on_c, 0, 63, 46
2, 47372, Note_on_c, 0, 79, 74
2, 47373, Note_on_c, 0, 67, 71
2, 47398, Note_on_c, 0, 79, 0
2, 47404, Note_on_c, 0, 63, 0
2, 47409, Note_on_c, 0, 67, 0
2, 47452, Control_c, 0, 64, 127
2, 47454, Note_on_c, 0, 59, 0
2, 47501, Note_on_c, 0, 63, 29
2, 47519, Note_on_c, 0, 78, 59
2, 47522, Note_on_c, 0, 66, 60
2, 47531, Note_on_c, 0, 63, 0
2, 47547, Note_on_c, 0, 66, 0
2, 47552, Note_on_c, 0, 78, 0
2, 47569, Note_on_c, 0, 58, 0
2, 47577, Note_on_c, 0, 54, 0
2, 47621, Note_on_c, 0, 66, 71
2, 47622, Note_on_c, 0, 78, 63
2, 47632, Note_on_c, 0, 53, 63
2, 47642, Note_on_c, 0, 59, 28
2, 47651, Control_c, 0, 64, 0
2, 47652, Note_on_c, 0, 79, 67
2, 47660, Note_on_c, 0, 66, 0
2, 47664, Note_on_c, 0, 78, 0
2, 47664, Note_on_c, 0, 67, 70
2, 47687, Note_on_c, 0, 77, 22
2, 47787, Control_c, 0, 64, 127
2, 47828, Note_on_c, 0, 59, 0
2, 47847, Note_on_c, 0, 53, 0
2, 48012, Note_on_c, 0, 59, 61
2, 48013, Control_c, 0, 64, 0
2, 48014, Note_on_c, 0, 63, 70
2, 48016, Note_on_c, 0, 53, 64
2, 48142, Control_c, 0, 64, 127
2, 48207, Note_on_c, 0, 59, 0
2, 48237, Note_on_c, 0, 53, 0
2, 48278, Note_on_c, 0, 63, 0
2, 48384, Note_on_c, 0, 58, 58
2, 48384, Note_on_c, 0, 63, 67
2, 48390, Control_c, 0, 64, 0
2, 48391, Note_on_c, 0, 52, 67
2, 48498, Control_c, 0, 64, 127
2, 48549, Note_on_c, 0, 79, 0
2, 48605, Note_on_c, 0, 67, 0
2, 48606, Note_on_c, 0, 52, 0
2, 48617, Note_on_c, 0, 63, 0
2, 48620, Note_on_c, 0, 77, 0
2, 48641, Note_on_c, 0, 58, 0
2, 48671, Note_on_c, 0, 78, 73
2, 48675, Note_on_c, 0, 66, 73
2, 48679, Note_on_c, 0, 63, 60
2, 48681, Control_c, 0, 64, 0
2, 48681, Note_on_c, 0, 58, 54
2, 48682, Note_on_c, 0, 52, 67
2, 48784, Control_c, 0, 64, 127
2, 48814, Note_on_c, 0, 58, 0
2, 48860, Note_on_c, 0, 58, 35
2, 48868, Note_on_c, 0, 63, 0
2, 48898, Note_on_c, 0, 78, 0
2, 48913, Note_on_c, 0, 66, 0
2, 48929, Control_c, 0, 64, 0
2, 48948, Note_on_c, 0, 63, 34
2, 48957, Note_on_c, 0, 77, 48
2, 48970, Note_on_c, 0, 65, 44
2, 48986, Note_on_c, 0, 52, 0
2, 49004, Control_c, 0, 64, 127
2, 49009, Note_on_c, 0, 77, 0
2, 49024, Note_on_c, 0, 65, 0
2, 49044, Note_on_c, 0, 58, 0
2, 49072, Note_on_c, 0, 63, 0
2, 49137, Note_on_c, 0, 63, 46
2, 49140, Note_on_c, 0, 54, 60
2, 49144, Note_on_c, 0, 66, 57
2, 49145, Note_on_c, 0, 78, 58
2, 49151, Note_on_c, 0, 60, 57
2, 49162, Control_c, 0, 64, 0
2, 49259, Control_c, 0, 64, 127
2, 49305, Note_on_c, 0, 63, 0
2, 49307, Note_on_c, 0, 78, 0
2, 49314, Note_on_c, 0, 60, 0
2, 49359, Note_on_c, 0, 66, 0
2, 49377, Note_on_c, 0, 54, 0
2, 49689, Note_on_c, 0, 72, 57
2, 49691, Note_on_c, 0, 63, 55
2, 49695, Note_on_c, 0, 66, 58
2, 49700, Note_on_c, 0, 57, 55
2, 49722, Control_c, 0, 64, 0
2, 49803, Control_c, 0, 64, 127
2, 49835, Note_on_c, 0, 72, 0
2, 49866, Note_on_c, 0, 66, 0
2, 49891, Note_on_c, 0, 63, 0
2, 49960, Note_on_c, 0, 57, 0
2, 49988, Note_on_c, 0, 69, 57
2, 49995, Note_on_c, 0, 60, 51
2, 49995, Note_on_c, 0, 63, 46
2, 49996, Note_on_c, 0, 54, 44
2, 50014, Control_c, 0, 64, 0
2, 50043, Note_on_c, 0, 69, 0
2, 50057, Control_c, 0, 64, 127
2, 50067, Note_on_c, 0, 63, 0
2, 50107, Note_on_c, 0, 60, 0
2, 50240, Note_on_c, 0, 54, 0
2, 50249, Note_on_c, 0, 57, 41
2, 50251, Note_on_c, 0, 66, 33
2, 50255, Note_on_c, 0, 51, 36
2, 50261, Note_on_c, 0, 60, 48
2, 50273, Note_on_c, 0, 63, 26
2, 50283, Note_on_c, 0, 60, 0
2, 50291, Note_on_c, 0, 63, 0
2, 50295, Note_on_c, 0, 57, 0
2, 50305, Control_c, 0, 64, 0
2, 50340, Note_on_c, 0, 66, 0
2, 50387, Note_on_c, 0, 51, 0
2, 50445, Note_on_c, 0, 57, 50
2, 50452, Note_on_c, 0, 48, 40
2, 50453, Note_on_c, 0, 63, 35
2, 50490, Note_on_c, 0, 57, 0
2, 50496, Note_on_c, 0, 48, 0
2, 50553, Note_on_c, 0, 63, 0
2, 50655, Control_c, 0, 64, 127
2, 50655, Note_on_c, 0, 63, 43
2, 50657, Note_on_c, 0, 56, 50
2, 50657, Note_on_c, 0, 46, 40
2, 50658, Note_on_c, 0, 65, 53
2, 50667, Note_on_c, 0, 60, 57
2, 50831, Note_on_c, 0, 56, 0
2, 50940, Note_on_c, 0, 60, 0
2, 51043, Note_on_c, 0, 58, 87
2, 51289, Note_on_c, 0, 46, 0
2, 51342, Note_on_c, 0, 63, 0
2, 51363, Note_on_c, 0, 46, 38
2, 51364, Note_on_c, 0, 65, 0
2, 51373, Note_on_c, 0, 58, 0
2, 51441, Note_on_c, 0, 56, 58
2, 51442, Note_on_c, 0, 67, 46
2, 51442, Note_on_c, 0, 59, 52
2, 51445, Note_on_c, 0, 64, 42
2, 51448, Note_on_c, 0, 62, 55
2, 51469, Control_c, 0, 64, 0
2, 51577, Control_c, 0, 64, 127
2, 51676, Note_on_c, 0, 46, 0
2, 51820, Note_on_c, 0, 46, 75
2, 51827, Note_on_c, 0, 59, 0
2, 51860, Note_on_c, 0, 62, 0
2, 51882, Note_on_c, 0, 64, 0
2, 51884, Note_on_c, 0, 67, 0
2, 51989, Note_on_c, 0, 46, 0
2, 52030, Note_on_c, 0, 46, 63
2, 52107, Note_on_c, 0, 56, 0
2, 52139, Note_on_c, 0, 60, 77
2, 52140, Note_on_c, 0, 70, 82
2, 52141, Note_on_c, 0, 65, 80
2, 52148, Note_on_c, 0, 62, 74
2, 52162, Note_on_c, 0, 55, 85
2, 52165, Note_on_c, 0, 62, 0
2, 52180, Control_c, 0, 64, 0
2, 52367, Note_on_c, 0, 46, 0
2, 52427, Note_on_c, 0, 46, 82
2, 52563, Control_c, 0, 64, 127
2, 52749, Note_on_c, 0, 46, 0
2, 52819, Note_on_c, 0, 46, 80
2, 52822, Control_c, 0, 64, 0
2, 52897, Control_c, 0, 64, 127
2, 53065, Note_on_c, 0, 46, 0
2, 53211, Note_on_c, 0, 46, 75
2, 53226, Note_on_c, 0, 65, 0
2, 53238, Note_on_c, 0, 70, 0
2, 53248, Note_on_c, 0, 55, 0
2, 53305, Note_on_c, 0, 46, 0
2, 53309, Note_on_c, 0, 60, 0
2, 53511, Note_on_c, 0, 43, 48
2, 53531, Note_on_c, 0, 65, 54
2, 53532, Note_on_c, 0, 56, 60
2, 53533, Note_on_c, 0, 62, 60
2, 53533, Note_on_c, 0, 59, 64
2, 53534, Note_on_c, 0, 53, 74
2, 53583, Control_c, 0, 64, 0
2, 53719, Note_on_c, 0, 59, 0
2, 53743, Note_on_c, 0, 65, 0
2, 53746, Note_on_c, 0, 53, 0
2, 53752, Note_on_c, 0, 62, 0
2, 53755, Note_on_c, 0, 56, 0
2, 53760, Note_on_c, 0, 55, 44
2, 53760, Note_on_c, 0, 79, 51
2, 53767, Note_on_c, 0, 43, 0
2, 54072, Note_on_c, 0, 79, 0
2, 54108, Note_on_c, 0, 55, 0
2, 54112, Note_on_c, 0, 80, 37
2, 54132, Note_on_c, 0, 56, 32
2, 54448, Note_on_c, 0, 56, 0
2, 54980, Note_on_c, 0, 80, 0
2, 55016, Note_on_c, 0, 79, 74
2, 55080, Note_on_c, 0, 79, 0
2, 55084, Note_on_c, 0, 78, 49
2, 55204, Note_on_c, 0, 78, 0
2, 55284, Note_on_c, 0, 62, 45
2, 55288, Note_on_c, 0, 56, 29
2, 55292, Note_on_c, 0, 79, 60
2, 55296, Note_on_c, 0, 59, 47
2, 55496, Note_on_c, 0, 59, 0
2, 55580, Note_on_c, 0, 79, 0
2, 55596, Note_on_c, 0, 80, 51
2, 55648, Note_on_c, 0, 80, 0
2, 55648, Note_on_c, 0, 62, 0
2, 55688, Note_on_c, 0, 56, 0
2, 56060, Note_on_c, 0, 62, 34
2, 56060, Note_on_c, 0, 56, 28
2, 56072, Note_on_c, 0, 59, 28
2, 56088, Note_on_c, 0, 62, 0
2, 56096, Note_on_c, 0, 59, 0
2, 56108, Note_on_c, 0, 56, 0
2, 56372, Note_on_c, 0, 62, 49
2, 56376, Note_on_c, 0, 56, 33
2, 56384, Note_on_c, 0, 59, 32
2, 56396, Note_on_c, 0, 62, 0
2, 56408, Note_on_c, 0, 59, 0
2, 56412, Note_on_c, 0, 56, 0
2, 56436, Note_on_c, 0, 74, 118
2, 56528, Note_on_c, 0, 74, 0
2, 56544, Note_on_c, 0, 71, 66
2, 56604, Note_on_c, 0, 71, 0
2, 56644, Note_on_c, 0, 72, 67
2, 56736, Note_on_c, 0, 74, 77
2, 56748, Note_on_c, 0, 72, 0
2, 56760, Note_on_c, 0, 63, 25
2, 56784, Note_on_c, 0, 63, 0
2, 56796, Note_on_c, 0, 74, 0
2, 56828, Note_on_c, 0, 75, 55
2, 56868, Note_on_c, 0, 75, 0
2, 57020, Note_on_c, 0, 83, 36
2, 57068, Note_on_c, 0, 83, 0
2, 57116, Note_on_c, 0, 86, 80
2, 57120, Note_on_c, 0, 74, 76
2, 57144, Note_on_c, 0, 67, 42
2, 57152, Note_on_c, 0, 63, 38
2, 57160, Note_on_c, 0, 58, 25
2, 57168, Note_on_c, 0, 74, 0
2, 57168, Note_on_c, 0, 86, 0
2, 57180, Note_on_c, 0, 67, 0
2, 57212, Note_on_c, 0, 86, 64
2, 57212, Note_on_c, 0, 74, 67
2, 57244, Note_on_c, 0, 58, 0
2, 57288, Note_on_c, 0, 74, 0
2, 57300, Note_on_c, 0, 86, 0
2, 57332, Note_on_c, 0, 84, 53
2, 57348, Note_on_c, 0, 63, 0
2, 57384, Note_on_c, 0, 84, 0
2, 57492, Note_on_c, 0, 86, 79
2, 57500, Note_on_c, 0, 74, 68
2, 57500, Note_on_c, 0, 67, 43
2, 57504, Note_on_c, 0, 63, 34
2, 57528, Note_on_c, 0, 67, 0
2, 57548, Note_on_c, 0, 74, 0
2, 57556, Note_on_c, 0, 63, 0
2, 57568, Note_on_c, 0, 86, 0
2, 57676, Note_on_c, 0, 84, 80
2, 57748, Note_on_c, 0, 84, 0
2, 57768, Note_on_c, 0, 79, 46
2, 57856, Note_on_c, 0, 79, 0
2, 57972, Note_on_c, 0, 55, 39
2, 57972, Note_on_c, 0, 63, 36
2, 57984, Note_on_c, 0, 60, 34
2, 58000, Note_on_c, 0, 57, 28
2, 58192, Note_on_c, 0, 57, 0
2, 58192, Note_on_c, 0, 55, 0
2, 58236, Note_on_c, 0, 60, 0
2, 58236, Note_on_c, 0, 63, 0
2, 58364, Note_on_c, 0, 63, 37
2, 58380, Note_on_c, 0, 60, 37
2, 58388, Note_on_c, 0, 58, 28
2, 58432, Note_on_c, 0, 53, 17
2, 58568, Note_on_c, 0, 60, 0
2, 58676, Note_on_c, 0, 63, 0
2, 58684, Note_on_c, 0, 60, 40
2, 58740, Note_on_c, 0, 67, 113
2, 58828, Note_on_c, 0, 60, 0
2, 58832, Note_on_c, 0, 67, 0
2, 58868, Note_on_c, 0, 63, 56
2, 58932, Note_on_c, 0, 63, 0
2, 58940, Note_on_c, 0, 58, 0
2, 59048, Note_on_c, 0, 65, 95
2, 59136, Note_on_c, 0, 65, 0
2, 59172, Note_on_c, 0, 53, 0
2, 59248, Note_on_c, 0, 60, 50
2, 59248, Note_on_c, 0, 53, 32
2, 59268, Note_on_c, 0, 60, 0
2, 59316, Note_on_c, 0, 63, 74
2, 59452, Note_on_c, 0, 53, 0
2, 59488, Note_on_c, 0, 63, 0
2, 59624, Note_on_c, 0, 60, 61
2, 59672, Note_on_c, 0, 60, 0
2, 59792, Note_on_c, 0, 55, 54
2, 59820, Note_on_c, 0, 55, 0
2, 59824, Note_on_c, 0, 46, 25
2, 59852, Note_on_c, 0, 46, 0
2, 59880, Note_on_c, 0, 62, 64
2, 60028, Note_on_c, 0, 62, 0
2, 60068, Note_on_c, 0, 58, 47
2, 60200, Note_on_c, 0, 58, 0
2, 60260, Note_on_c, 0, 53, 38
2, 60324, Note_on_c, 0, 53, 0
2, 60452, Note_on_c, 0, 65, 101
2, 60616, Note_on_c, 0, 65, 0
2, 60640, Note_on_c, 0, 56, 37
2, 60652, Note_on_c, 0, 62, 71
2, 60652, Note_on_c, 0, 47, 36
2, 60688, Note_on_c, 0, 56, 0
2, 60732, Note_on_c, 0, 62, 0
2, 60760, Note_on_c, 0, 59, 44
2, 60816, Note_on_c, 0, 47, 0
2, 60832, Note_on_c, 0, 59, 0
2, 60840, Note_on_c, 0, 56, 48
2, 60932, Note_on_c, 0, 56, 0
2, 61148, Note_on_c, 0, 56, 59
2, 61148, Note_on_c, 0, 47, 59
2, 61180, Note_on_c, 0, 47, 0
2, 61192, Note_on_c, 0, 56, 0
2, 61336, Note_on_c, 0, 70, 92
2, 61392, Note_on_c, 0, 46, 36
2, 61440, Note_on_c, 0, 67, 66
2, 61444, Note_on_c, 0, 70, 0
2, 61452, Note_on_c, 0, 46, 0
2, 61504, Note_on_c, 0, 67, 0
2, 61532, Note_on_c, 0, 62, 60
2, 61588, Note_on_c, 0, 62, 0
2, 61620, Note_on_c, 0, 58, 50
2, 61708, Note_on_c, 0, 58, 0
2, 61780, Note_on_c, 0, 46, 37
2, 61788, Note_on_c, 0, 55, 34
2, 61808, Note_on_c, 0, 55, 0
2, 61824, Note_on_c, 0, 46, 0
2, 62120, Note_on_c, 0, 61, 56
2, 62120, Note_on_c, 0, 55, 58
2, 62124, Note_on_c, 0, 64, 53
2, 62128, Note_on_c, 0, 65, 36
2, 62148, Note_on_c, 0, 65, 0
2, 62148, Note_on_c, 0, 64, 0
2, 62172, Note_on_c, 0, 55, 0
2, 62192, Note_on_c, 0, 61, 0
2, 62300, Note_on_c, 0, 67, 48
2, 62328, Note_on_c, 0, 67, 0
2, 62392, Note_on_c, 0, 69, 64
2, 62460, Note_on_c, 0, 69, 0
2, 62492, Note_on_c, 0, 70, 78
2, 62508, Note_on_c, 0, 61, 53
2, 62516, Note_on_c, 0, 55, 48
2, 62520, Note_on_c, 0, 64, 31
2, 62540, Note_on_c, 0, 64, 0
2, 62556, Note_on_c, 0, 55, 0
2, 62556, Note_on_c, 0, 70, 0
2, 62564, Note_on_c, 0, 61, 0
2, 62588, Note_on_c, 0, 72, 68
2, 62656, Note_on_c, 0, 72, 0
2, 62688, Note_on_c, 0, 73, 81
2, 62748, Note_on_c, 0, 73, 0
2, 62776, Note_on_c, 0, 75, 71
2, 62844, Note_on_c, 0, 75, 0
2, 62880, Note_on_c, 0, 79, 83
2, 62908, Note_on_c, 0, 63, 40
2, 62912, Note_on_c, 0, 60, 38
2, 62924, Note_on_c, 0, 63, 0
2, 62936, Note_on_c, 0, 60, 0
2, 62952, Note_on_c, 0, 79, 0
2, 62980, Note_on_c, 0, 75, 67
2, 63048, Note_on_c, 0, 75, 0
2, 63080, Note_on_c, 0, 72, 60
2, 63132, Note_on_c, 0, 72, 0
2, 63264, Note_on_c, 0, 75, 80
2, 63300, Note_on_c, 0, 60, 17
2, 63332, Note_on_c, 0, 60, 0
2, 63332, Note_on_c, 0, 75, 0
2, 63340, Note_on_c, 0, 73, 71
2, 63360, Note_on_c, 0, 73, 0
2, 63364, Note_on_c, 0, 72, 64
2, 63420, Note_on_c, 0, 72, 0
2, 63452, Note_on_c, 0, 68, 68
2, 63484, Note_on_c, 0, 60, 33
2, 63516, Note_on_c, 0, 60, 0
2, 63528, Note_on_c, 0, 68, 0
2, 63552, Note_on_c, 0, 67, 35
2, 63588, Note_on_c, 0, 67, 0
2, 63640, Note_on_c, 0, 74, 89
2, 63664, Note_on_c, 0, 60, 32
2, 63696, Note_on_c, 0, 60, 0
2, 63712, Note_on_c, 0, 74, 0
2, 63736, Note_on_c, 0, 69, 71
2, 63808, Note_on_c, 0, 69, 0
2, 63836, Note_on_c, 0, 66, 61
2, 63880, Note_on_c, 0, 66, 0
2, 63928, Note_on_c, 0, 64, 24
2, 63984, Note_on_c, 0, 64, 0
2, 64016, Note_on_c, 0, 69, 81
2, 64024, Note_on_c, 0, 54, 30
2, 64056, Note_on_c, 0, 54, 0
2, 64084, Note_on_c, 0, 69, 0
2, 64104, Note_on_c, 0, 66, 59
2, 64228, Note_on_c, 0, 66, 0
2, 64288, Note_on_c, 0, 60, 31
2, 64356, Note_on_c, 0, 60, 0
2, 64448, Note_on_c, 0, 54, 42
2, 64460, Note_on_c, 0, 50, 40
2, 64468, Note_on_c, 0, 54, 0
2, 64484, Note_on_c, 0, 50, 0
2, 64520, Note_on_c, 0, 66, 90
2, 64608, Note_on_c, 0, 66, 0
2, 64624, Note_on_c, 0, 62, 74
2, 64704, Note_on_c, 0, 62, 0
2, 64728, Note_on_c, 0, 59, 28
2, 64792, Note_on_c, 0, 59, 0
2, 64824, Note_on_c, 0, 57, 58
2, 64880, Note_on_c, 0, 57, 0
2, 64904, Note_on_c, 0, 54, 31
2, 64948, Note_on_c, 0, 54, 0
2, 65036, Note_on_c, 0, 50, 57
2, 65064, Note_on_c, 0, 50, 0
2, 65064, Note_on_c, 0, 48, 40
2, 65084, Note_on_c, 0, 48, 0
2, 65104, Note_on_c, 0, 54, 80
2, 65196, Note_on_c, 0, 54, 0
2, 65232, Note_on_c, 0, 50, 28
2, 65256, Note_on_c, 0, 50, 0
2, 65312, Note_on_c, 0, 52, 62
2, 65384, Note_on_c, 0, 52, 0
2, 65408, Note_on_c, 0, 54, 68
2, 65480, Note_on_c, 0, 54, 0
2, 65500, Note_on_c, 0, 55, 69
2, 65564, Note_on_c, 0, 55, 0
2, 65612, Note_on_c, 0, 58, 45
2, 65664, Note_on_c, 0, 58, 0
2, 65704, Note_on_c, 0, 57, 65
2, 65784, Note_on_c, 0, 58, 71
2, 65788, Note_on_c, 0, 57, 0
2, 65844, Note_on_c, 0, 58, 0
2, 65872, Note_on_c, 0, 62, 75
2, 65960, Note_on_c, 0, 62, 0
2, 65980, Note_on_c, 0, 59, 62
2, 66020, Note_on_c, 0, 59, 0
2, 66068, Note_on_c, 0, 60, 64
2, 66164, Note_on_c, 0, 62, 68
2, 66176, Note_on_c, 0, 60, 0
2, 66176, Note_on_c, 0, 55, 37
2, 66200, Note_on_c, 0, 55, 0
2, 66220, Note_on_c, 0, 62, 0
2, 66236, Note_on_c, 0, 63, 53
2, 66300, Note_on_c, 0, 63, 0
2, 66344, Note_on_c, 0, 67, 66
2, 66392, Note_on_c, 0, 67, 0
2, 66440, Note_on_c, 0, 71, 50
2, 66504, Note_on_c, 0, 71, 0
2, 66536, Note_on_c, 0, 67, 48
2, 66540, Note_on_c, 0, 74, 90
2, 66548, Note_on_c, 0, 63, 32
2, 66560, Note_on_c, 0, 67, 0
2, 66584, Note_on_c, 0, 74, 0
2, 66608, Note_on_c, 0, 63, 0
2, 66628, Note_on_c, 0, 74, 83
2, 66708, Note_on_c, 0, 74, 0
2, 66820, Note_on_c, 0, 74, 99
2, 66876, Note_on_c, 0, 74, 0
2, 66928, Note_on_c, 0, 74, 88
2, 66928, Note_on_c, 0, 63, 25
2, 66960, Note_on_c, 0, 63, 0
2, 67012, Note_on_c, 0, 71, 65
2, 67020, Note_on_c, 0, 74, 0
2, 67064, Note_on_c, 0, 71, 0
2, 67116, Note_on_c, 0, 63, 27
2, 67120, Note_on_c, 0, 74, 91
2, 67168, Note_on_c, 0, 74, 0
2, 67172, Note_on_c, 0, 63, 0
2, 67212, Note_on_c, 0, 74, 85
2, 67300, Note_on_c, 0, 74, 0
2, 67304, Note_on_c, 0, 71, 71
2, 67348, Note_on_c, 0, 71, 0
2, 67388, Note_on_c, 0, 74, 90
2, 67444, Note_on_c, 0, 74, 0
2, 67496, Note_on_c, 0, 74, 90
2, 67508, Note_on_c, 0, 62, 49
2, 67516, Note_on_c, 0, 59, 40
2, 67548, Note_on_c, 0, 59, 0
2, 67548, Note_on_c, 0, 62, 0
2, 67588, Note_on_c, 0, 74, 0
2, 67608, Note_on_c, 0, 71, 37
2, 67644, Note_on_c, 0, 71, 0
2, 67676, Note_on_c, 0, 74, 87
2, 67756, Note_on_c, 0, 74, 0
2, 67772, Note_on_c, 0, 70, 62
2, 67844, Note_on_c, 0, 70, 0
2, 67872, Note_on_c, 0, 71, 73
2, 67884, Note_on_c, 0, 62, 41
2, 67912, Note_on_c, 0, 62, 0
2, 67948, Note_on_c, 0, 71, 0
2, 67972, Note_on_c, 0, 73, 62
2, 68036, Note_on_c, 0, 73, 0
2, 68068, Note_on_c, 0, 74, 78
2, 68076, Note_on_c, 0, 62, 43
2, 68108, Note_on_c, 0, 62, 0
2, 68132, Note_on_c, 0, 74, 0
2, 68192, Note_on_c, 0, 76, 37
2, 68216, Note_on_c, 0, 76, 0
2, 68260, Note_on_c, 0, 79, 76
2, 68264, Note_on_c, 0, 62, 36
2, 68284, Note_on_c, 0, 59, 29
2, 68312, Note_on_c, 0, 59, 0
2, 68320, Note_on_c, 0, 62, 0
2, 68324, Note_on_c, 0, 79, 0
2, 68348, Note_on_c, 0, 80, 51
2, 68416, Note_on_c, 0, 80, 0
2, 68448, Note_on_c, 0, 81, 69
2, 68464, Note_on_c, 0, 62, 49
2, 68484, Note_on_c, 0, 59, 32
2, 68500, Note_on_c, 0, 81, 0
2, 68516, Note_on_c, 0, 59, 0
2, 68524, Note_on_c, 0, 62, 0
2, 68636, Note_on_c, 0, 83, 43
2, 68688, Note_on_c, 0, 83, 0
2, 68720, Note_on_c, 0, 86, 82
2, 68720, Note_on_c, 0, 76, 82
2, 68804, Note_on_c, 0, 86, 0
2, 68816, Note_on_c, 0, 76, 0
2, 68908, Note_on_c, 0, 86, 87
2, 68912, Note_on_c, 0, 74, 87
2, 68972, Note_on_c, 0, 74, 0
2, 68972, Note_on_c, 0, 86, 0
2, 69024, Note_on_c, 0, 86, 72
2, 69028, Note_on_c, 0, 74, 77
2, 69076, Note_on_c, 0, 74, 0
2, 69084, Note_on_c, 0, 67, 32
2, 69088, Note_on_c, 0, 63, 30
2, 69092, Note_on_c, 0, 86, 0
2, 69108, Note_on_c, 0, 67, 0
2, 69152, Note_on_c, 0, 63, 0
2, 69508, Note_on_c, 0, 63, 45
2, 69512, Note_on_c, 0, 67, 46
2, 69536, Note_on_c, 0, 67, 0
2, 69536, Note_on_c, 0, 60, 24
2, 69560, Note_on_c, 0, 60, 0
2, 69572, Note_on_c, 0, 63, 0
2, 70088, Note_on_c, 0, 63, 44
2, 70088, Note_on_c, 0, 55, 37
2, 70092, Note_on_c, 0, 57, 41
2, 70096, Note_on_c, 0, 60, 48
2, 70428, Note_on_c, 0, 55, 0
2, 70432, Note_on_c, 0, 57, 0
2, 70456, Note_on_c, 0, 63, 0
2, 70496, Note_on_c, 0, 60, 0
2, 70640, Note_on_c, 0, 63, 45
2, 70644, Note_on_c, 0, 60, 42
2, 70660, Note_on_c, 0, 56, 35
2, 70664, Note_on_c, 0, 53, 28
2, 70832, Note_on_c, 0, 60, 0
2, 70956, Note_on_c, 0, 60, 36
2, 70964, Note_on_c, 0, 63, 0
2, 71016, Note_on_c, 0, 67, 115
2, 71108, Note_on_c, 0, 67, 0
2, 71144, Note_on_c, 0, 65, 42
2, 71184, Note_on_c, 0, 65, 0
2, 71196, Note_on_c, 0, 60, 0
2, 71212, Note_on_c, 0, 67, 38
2, 71276, Note_on_c, 0, 67, 0
2, 71308, Note_on_c, 0, 68, 83
2, 71312, Note_on_c, 0, 67, 50
2, 71332, Note_on_c, 0, 67, 0
2, 71332, Note_on_c, 0, 63, 23
2, 71336, Note_on_c, 0, 60, 34
2, 71368, Note_on_c, 0, 60, 0
2, 71484, Note_on_c, 0, 68, 0
2, 71484, Note_on_c, 0, 63, 0
2, 71588, Note_on_c, 0, 68, 64
2, 71644, Note_on_c, 0, 56, 0
2, 71696, Note_on_c, 0, 70, 80
2, 71724, Note_on_c, 0, 68, 0
2, 71728, Note_on_c, 0, 60, 33
2, 71756, Note_on_c, 0, 60, 0
2, 71836, Note_on_c, 0, 53, 0
2, 71852, Note_on_c, 0, 56, 1
2, 71856, Note_on_c, 0, 60, 47
2, 71868, Note_on_c, 0, 70, 0
2, 71896, Note_on_c, 0, 60, 0
2, 71904, Note_on_c, 0, 72, 71
2, 71932, Note_on_c, 0, 56, 0
2, 71992, Note_on_c, 0, 72, 0
2, 72044, Note_on_c, 0, 73, 85
2, 72096, Note_on_c, 0, 62, 43
2, 72100, Note_on_c, 0, 73, 0
2, 72132, Note_on_c, 0, 62, 0
2, 72148, Note_on_c, 0, 73, 62
2, 72200, Note_on_c, 0, 73, 0
2, 72204, Note_on_c, 0, 74, 74
2, 72276, Note_on_c, 0, 74, 0
2, 72304, Note_on_c, 0, 77, 79
2, 72364, Note_on_c, 0, 77, 0
2, 72436, Note_on_c, 0, 77, 85
2, 72488, Note_on_c, 0, 77, 0
2, 72536, Note_on_c, 0, 77, 74
2, 72608, Note_on_c, 0, 77, 0
2, 72628, Note_on_c, 0, 74, 73
2, 72696, Note_on_c, 0, 74, 0
2, 72752, Note_on_c, 0, 70, 61
2, 72796, Note_on_c, 0, 70, 0
2, 73168, Note_on_c, 0, 62, 62
2, 73172, Note_on_c, 0, 59, 50
2, 73172, Note_on_c, 0, 56, 36
2, 73180, Note_on_c, 0, 53, 37
2, 73192, Note_on_c, 0, 62, 0
2, 73200, Note_on_c, 0, 59, 0
2, 73212, Note_on_c, 0, 53, 0
2, 73244, Note_on_c, 0, 56, 0
2, 73480, Note_on_c, 0, 56, 40
2, 73480, Note_on_c, 0, 59, 57
2, 73480, Note_on_c, 0, 62, 44
2, 73504, Note_on_c, 0, 62, 0
2, 73516, Note_on_c, 0, 59, 0
2, 73528, Note_on_c, 0, 56, 0
2, 73572, Note_on_c, 0, 71, 33
2, 73600, Note_on_c, 0, 71, 0
2, 73668, Note_on_c, 0, 74, 73
2, 73716, Note_on_c, 0, 74, 0
2, 73756, Note_on_c, 0, 77, 68
2, 73820, Note_on_c, 0, 77, 0
2, 73852, Note_on_c, 0, 80, 57
2, 73860, Note_on_c, 0, 68, 60
2, 73868, Note_on_c, 0, 63, 43
2, 73888, Note_on_c, 0, 63, 0
2, 73888, Note_on_c, 0, 58, 29
2, 73896, Note_on_c, 0, 68, 0
2, 73896, Note_on_c, 0, 80, 0
2, 73940, Note_on_c, 0, 70, 73
2, 73944, Note_on_c, 0, 82, 83
2, 73960, Note_on_c, 0, 58, 0
2, 74064, Note_on_c, 0, 82, 0
2, 74064, Note_on_c, 0, 70, 0
2, 74124, Note_on_c, 0, 82, 72
2, 74132, Note_on_c, 0, 70, 77
2, 74228, Note_on_c, 0, 82, 0
2, 74236, Note_on_c, 0, 70, 0
2, 74268, Note_on_c, 0, 58, 28
2, 74304, Note_on_c, 0, 80, 62
2, 74308, Note_on_c, 0, 68, 69
2, 74344, Note_on_c, 0, 58, 0
2, 74416, Note_on_c, 0, 68, 0
2, 74420, Note_on_c, 0, 80, 0
2, 74488, Note_on_c, 0, 81, 81
2, 74572, Note_on_c, 0, 81, 0
2, 74604, Note_on_c, 0, 80, 73
2, 74636, Note_on_c, 0, 61, 28
2, 74672, Note_on_c, 0, 80, 0
2, 74688, Note_on_c, 0, 61, 0
2, 74708, Note_on_c, 0, 79, 66
2, 74788, Note_on_c, 0, 79, 0
2, 74800, Note_on_c, 0, 78, 55
2, 74852, Note_on_c, 0, 78, 0
2, 74888, Note_on_c, 0, 76, 44
2, 74948, Note_on_c, 0, 76, 0
2, 74980, Note_on_c, 0, 75, 59
2, 74984, Note_on_c, 0, 61, 40
2, 75068, Note_on_c, 0, 75, 0
2, 75076, Note_on_c, 0, 73, 31
2, 75096, Note_on_c, 0, 61, 0
2, 75176, Note_on_c, 0, 63, 28
2, 75180, Note_on_c, 0, 73, 0
2, 75184, Note_on_c, 0, 71, 40
2, 75188, Note_on_c, 0, 60, 38
2, 75196, Note_on_c, 0, 63, 0
2, 75204, Note_on_c, 0, 58, 20
2, 75208, Note_on_c, 0, 71, 0
2, 75216, Note_on_c, 0, 60, 0
2, 75256, Note_on_c, 0, 75, 77
2, 75320, Note_on_c, 0, 58, 0
2, 75344, Note_on_c, 0, 75, 0
2, 75368, Note_on_c, 0, 72, 70
2, 75440, Note_on_c, 0, 72, 0
2, 75476, Note_on_c, 0, 70, 32
2, 75536, Note_on_c, 0, 70, 0
2, 75564, Note_on_c, 0, 67, 69
2, 75616, Note_on_c, 0, 67, 0
2, 75656, Note_on_c, 0, 63, 35
2, 75740, Note_on_c, 0, 63, 0
2, 75764, Note_on_c, 0, 60, 40
2, 75792, Note_on_c, 0, 60, 0
2, 75840, Note_on_c, 0, 62, 60
2, 75904, Note_on_c, 0, 62, 0
2, 75944, Note_on_c, 0, 63, 78
2, 75996, Note_on_c, 0, 63, 0
2, 76032, Note_on_c, 0, 65, 75
2, 76104, Note_on_c, 0, 65, 0
2, 76136, Note_on_c, 0, 62, 69
2, 76156, Note_on_c, 0, 46, 20
2, 76180, Note_on_c, 0, 62, 0
2, 76192, Note_on_c, 0, 46, 0
2, 76328, Note_on_c, 0, 55, 49
2, 76348, Note_on_c, 0, 55, 0
2, 76396, Note_on_c, 0, 58, 69
2, 76484, Note_on_c, 0, 58, 0
2, 76508, Note_on_c, 0, 55, 61
2, 76532, Note_on_c, 0, 55, 0
2, 76608, Note_on_c, 0, 56, 45
2, 76668, Note_on_c, 0, 56, 0
2, 76696, Note_on_c, 0, 58, 73
2, 76792, Note_on_c, 0, 55, 61
2, 76796, Note_on_c, 0, 58, 0
2, 76884, Note_on_c, 0, 55, 0
2, 76940, Note_on_c, 0, 46, 25
2, 76956, Note_on_c, 0, 54, 61
2, 76964, Note_on_c, 0, 46, 0
2, 76992, Note_on_c, 0, 55, 74
2, 77008, Note_on_c, 0, 54, 0
2, 77120, Note_on_c, 0, 55, 0
2, 77168, Note_on_c, 0, 55, 79
2, 77288, Note_on_c, 0, 51, 59
2, 77292, Note_on_c, 0, 55, 0
2, 77360, Note_on_c, 0, 51, 0
2, 77452, Note_on_c, 0, 51, 62
2, 78152, Note_on_c, 0, 51, 0
2, 78256, Note_on_c, 0, 48, 29
2, 78272, Note_on_c, 0, 48, 0
2, 78320, Note_on_c, 0, 55, 110
2, 78404, Note_on_c, 0, 55, 0
2, 78456, Note_on_c, 0, 52, 44
2, 78504, Note_on_c, 0, 52, 0
2, 78536, Note_on_c, 0, 53, 37
2, 78608, Note_on_c, 0, 53, 0
2, 78632, Note_on_c, 0, 55, 67
2, 78692, Note_on_c, 0, 55, 0
2, 78716, Note_on_c, 0, 56, 60
2, 78816, Note_on_c, 0, 56, 0
2, 78836, Note_on_c, 0, 53, 24
2, 78880, Note_on_c, 0, 53, 0
2, 78908, Note_on_c, 0, 55, 53
2, 79004, Note_on_c, 0, 55, 0
2, 79004, Note_on_c, 0, 56, 64
2, 79068, Note_on_c, 0, 56, 0
2, 79096, Note_on_c, 0, 58, 47
2, 79164, Note_on_c, 0, 58, 0
2, 79192, Note_on_c, 0, 59, 65
2, 79268, Note_on_c, 0, 59, 0
2, 79288, Note_on_c, 0, 60, 49
2, 79368, Note_on_c, 0, 60, 0
2, 79392, Note_on_c, 0, 61, 69
2, 79448, Note_on_c, 0, 61, 0
2, 79504, Note_on_c, 0, 62, 47
2, 79512, Note_on_c, 0, 64, 35
2, 79536, Note_on_c, 0, 64, 0
2, 79544, Note_on_c, 0, 62, 0
2, 79588, Note_on_c, 0, 67, 71
2, 79612, Note_on_c, 0, 60, 35
2, 79660, Note_on_c, 0, 60, 0
2, 79660, Note_on_c, 0, 67, 0
2, 79672, Note_on_c, 0, 71, 57
2, 79748, Note_on_c, 0, 71, 0
2, 79772, Note_on_c, 0, 74, 91
2, 79792, Note_on_c, 0, 62, 36
2, 79800, Note_on_c, 0, 60, 44
2, 79824, Note_on_c, 0, 60, 0
2, 79840, Note_on_c, 0, 62, 0
2, 79864, Note_on_c, 0, 72, 68
2, 79884, Note_on_c, 0, 74, 0
2, 79952, Note_on_c, 0, 72, 0
2, 79956, Note_on_c, 0, 70, 67
2, 80032, Note_on_c, 0, 70, 0
2, 80080, Note_on_c, 0, 67, 17
2, 80120, Note_on_c, 0, 67, 0
2, 80148, Note_on_c, 0, 65, 67
2, 80220, Note_on_c, 0, 65, 0
2, 80252, Note_on_c, 0, 63, 29
2, 80332, Note_on_c, 0, 63, 0
2, 80344, Note_on_c, 0, 60, 57
2, 80388, Note_on_c, 0, 60, 0
2, 80424, Note_on_c, 0, 63, 72
2, 80488, Note_on_c, 0, 63, 0
2, 80532, Note_on_c, 0, 64, 80
2, 80552, Note_on_c, 0, 58, 47
2, 80604, Note_on_c, 0, 58, 0
2, 80620, Note_on_c, 0, 64, 0
2, 80624, Note_on_c, 0, 63, 69
2, 80724, Note_on_c, 0, 61, 59
2, 80744, Note_on_c, 0, 63, 0
2, 80804, Note_on_c, 0, 61, 0
2, 80828, Note_on_c, 0, 60, 31
2, 80892, Note_on_c, 0, 60, 0
2, 80900, Note_on_c, 0, 58, 59
2, 80972, Note_on_c, 0, 58, 0
2, 81088, Note_on_c, 0, 56, 60
2, 81132, Note_on_c, 0, 56, 0
2, 81168, Note_on_c, 0, 55, 33
2, 81236, Note_on_c, 0, 55, 0
2, 81284, Note_on_c, 0, 48, 29
2, 81340, Note_on_c, 0, 48, 0
2, 81352, Note_on_c, 0, 51, 40
2, 81360, Note_on_c, 0, 56, 69
2, 81412, Note_on_c, 0, 51, 0
2, 81504, Note_on_c, 0, 56, 0
2, 81524, Note_on_c, 0, 52, 46
2, 81560, Note_on_c, 0, 52, 0
2, 81600, Note_on_c, 0, 53, 45
2, 81632, Note_on_c, 0, 55, 70
2, 81636, Note_on_c, 0, 53, 0
2, 81680, Note_on_c, 0, 51, 27
2, 81692, Note_on_c, 0, 55, 0
2, 81712, Note_on_c, 0, 56, 35
2, 81716, Note_on_c, 0, 51, 0
2, 81828, Note_on_c, 0, 56, 0
2, 82324, Note_on_c, 0, 55, 74
2, 82360, Note_on_c, 0, 55, 0
2, 82388, Note_on_c, 0, 56, 57
2, 82456, Note_on_c, 0, 56, 0
2, 82464, Note_on_c, 0, 58, 34
2, 82484, Note_on_c, 0, 58, 0
2, 82512, Note_on_c, 0, 59, 44
2, 82544, Note_on_c, 0, 59, 0
2, 82564, Note_on_c, 0, 60, 61
2, 82608, Note_on_c, 0, 60, 0
2, 82620, Note_on_c, 0, 61, 40
2, 82664, Note_on_c, 0, 61, 0
2, 82672, Note_on_c, 0, 62, 55
2, 82732, Note_on_c, 0, 62, 0
2, 82752, Note_on_c, 0, 65, 88
2, 82760, Note_on_c, 0, 63, 53
2, 82780, Note_on_c, 0, 63, 0
2, 82780, Note_on_c, 0, 53, 31
2, 82812, Note_on_c, 0, 53, 0
2, 82824, Note_on_c, 0, 62, 77
2, 82828, Note_on_c, 0, 65, 0
2, 82936, Note_on_c, 0, 62, 0
2, 83652, Note_on_c, 0, 58, 39
2, 83672, Note_on_c, 0, 58, 0
2, 83712, Note_on_c, 0, 60, 40
2, 83744, Note_on_c, 0, 60, 0
2, 83764, Note_on_c, 0, 61, 43
2, 83808, Note_on_c, 0, 61, 0
2, 83816, Note_on_c, 0, 63, 50
2, 83836, Note_on_c, 0, 63, 0
2, 83864, Note_on_c, 0, 64, 66
2, 83892, Note_on_c, 0, 64, 0
2, 83916, Note_on_c, 0, 66, 60
2, 83940, Note_on_c, 0, 66, 0
2, 83980, Note_on_c, 0, 67, 66
2, 84028, Note_on_c, 0, 67, 0
2, 84040, Note_on_c, 0, 69, 66
2, 84092, Note_on_c, 0, 70, 71
2, 84100, Note_on_c, 0, 69, 0
2, 84136, Note_on_c, 0, 70, 0
2, 84160, Note_on_c, 0, 72, 73
2, 84204, Note_on_c, 0, 72, 0
2, 84204, Note_on_c, 0, 73, 51
2, 84216, Note_on_c, 0, 58, 19
2, 84224, Note_on_c, 0, 73, 0
2, 84256, Note_on_c, 0, 74, 22
2, 84264, Note_on_c, 0, 58, 0
2, 84268, Note_on_c, 0, 75, 50
2, 84280, Note_on_c, 0, 74, 0
2, 84336, Note_on_c, 0, 75, 0
2, 84336, Note_on_c, 0, 76, 40
2, 84368, Note_on_c, 0, 76, 0
2, 84384, Note_on_c, 0, 79, 81
2, 84472, Note_on_c, 0, 77, 74
2, 84508, Note_on_c, 0, 79, 0
2, 84584, Note_on_c, 0, 77, 0
2, 84660, Note_on_c, 0, 72, 58
2, 84752, Note_on_c, 0, 72, 0
2, 84776, Note_on_c, 0, 68, 63
2, 84828, Note_on_c, 0, 68, 0
2, 85248, Note_on_c, 0, 67, 35
2, 85252, Note_on_c, 0, 62, 49
2, 85260, Note_on_c, 0, 56, 19
2, 85276, Note_on_c, 0, 67, 0
2, 85280, Note_on_c, 0, 62, 0
2, 85288, Note_on_c, 0, 56, 0
2, 85556, Note_on_c, 0, 65, 57
2, 85564, Note_on_c, 0, 62, 46
2, 85576, Note_on_c, 0, 65, 0
2, 85576, Note_on_c, 0, 60, 34
2, 85596, Note_on_c, 0, 62, 0
2, 85624, Note_on_c, 0, 60, 0
2, 85640, Note_on_c, 0, 83, 118
2, 85736, Note_on_c, 0, 83, 0
2, 85744, Note_on_c, 0, 86, 90
2, 85752, Note_on_c, 0, 62, 49
2, 85780, Note_on_c, 0, 62, 0
2, 85824, Note_on_c, 0, 86, 0
2, 85840, Note_on_c, 0, 83, 76
2, 85928, Note_on_c, 0, 83, 0
2, 85952, Note_on_c, 0, 79, 65
2, 85968, Note_on_c, 0, 62, 20
2, 85972, Note_on_c, 0, 60, 28
2, 86000, Note_on_c, 0, 60, 0
2, 86004, Note_on_c, 0, 62, 0
2, 86004, Note_on_c, 0, 79, 0
2, 86044, Note_on_c, 0, 74, 39
2, 86124, Note_on_c, 0, 74, 0
2, 86144, Note_on_c, 0, 62, 25
2, 86168, Note_on_c, 0, 62, 0
2, 86200, Note_on_c, 0, 80, 79
2, 86264, Note_on_c, 0, 80, 0
2, 86312, Note_on_c, 0, 84, 99
2, 86324, Note_on_c, 0, 62, 34
2, 86348, Note_on_c, 0, 60, 24
2, 86364, Note_on_c, 0, 62, 0
2, 86372, Note_on_c, 0, 60, 0
2, 86384, Note_on_c, 0, 84, 0
2, 86392, Note_on_c, 0, 80, 67
2, 86476, Note_on_c, 0, 80, 0
2, 86504, Note_on_c, 0, 77, 68
2, 86552, Note_on_c, 0, 77, 0
2, 86588, Note_on_c, 0, 74, 49
2, 86684, Note_on_c, 0, 74, 0
2, 87080, Note_on_c, 0, 64, 58
2, 87080, Note_on_c, 0, 59, 64
2, 87100, Note_on_c, 0, 64, 0
2, 87136, Note_on_c, 0, 59, 0
2, 87172, Note_on_c, 0, 79, 96
2, 87228, Note_on_c, 0, 79, 0
2, 87272, Note_on_c, 0, 83, 83
2, 87344, Note_on_c, 0, 83, 0
2, 87360, Note_on_c, 0, 79, 68
2, 87440, Note_on_c, 0, 79, 0
2, 87464, Note_on_c, 0, 75, 73
2, 87484, Note_on_c, 0, 67, 42
2, 87492, Note_on_c, 0, 62, 36
2, 87496, Note_on_c, 0, 58, 23
2, 87504, Note_on_c, 0, 67, 0
2, 87512, Note_on_c, 0, 63, 21
2, 87528, Note_on_c, 0, 58, 0
2, 87536, Note_on_c, 0, 63, 0
2, 87540, Note_on_c, 0, 75, 0
2, 87564, Note_on_c, 0, 74, 63
2, 87576, Note_on_c, 0, 62, 0
2, 87636, Note_on_c, 0, 74, 0
2, 87672, Note_on_c, 0, 73, 60
2, 87692, Note_on_c, 0, 73, 0
2, 87860, Note_on_c, 0, 69, 50
2, 87872, Note_on_c, 0, 67, 42
2, 87888, Note_on_c, 0, 69, 0
2, 87892, Note_on_c, 0, 67, 0
2, 87896, Note_on_c, 0, 63, 32
2, 87900, Note_on_c, 0, 62, 35
2, 87932, Note_on_c, 0, 62, 0
2, 87932, Note_on_c, 0, 63, 0
2, 87944, Note_on_c, 0, 72, 76
2, 88032, Note_on_c, 0, 72, 0
2, 88064, Note_on_c, 0, 67, 52
2, 88088, Note_on_c, 0, 67, 0
2, 88144, Note_on_c, 0, 70, 38
2, 88192, Note_on_c, 0, 70, 0
2, 88236, Note_on_c, 0, 72, 68
2, 88240, Note_on_c, 0, 63, 58
2, 88252, Note_on_c, 0, 60, 40
2, 88268, Note_on_c, 0, 55, 28
2, 88276, Note_on_c, 0, 60, 0
2, 88284, Note_on_c, 0, 63, 0
2, 88296, Note_on_c, 0, 72, 0
2, 88296, Note_on_c, 0, 55, 0
2, 88320, Note_on_c, 0, 74, 64
2, 88380, Note_on_c, 0, 74, 0
2, 88396, Note_on_c, 0, 60, 25
2, 88396, Note_on_c, 0, 55, 17
2, 88432, Note_on_c, 0, 75, 81
2, 88436, Note_on_c, 0, 55, 0
2, 88472, Note_on_c, 0, 60, 0
2, 88508, Note_on_c, 0, 75, 0
2, 88528, Note_on_c, 0, 74, 67
2, 88600, Note_on_c, 0, 74, 0
2, 88624, Note_on_c, 0, 72, 77
2, 88628, Note_on_c, 0, 60, 33
2, 88680, Note_on_c, 0, 72, 0
2, 88688, Note_on_c, 0, 60, 0
2, 88732, Note_on_c, 0, 70, 50
2, 88812, Note_on_c, 0, 70, 0
2, 88820, Note_on_c, 0, 69, 71
2, 88840, Note_on_c, 0, 60, 33
2, 88840, Note_on_c, 0, 62, 28
2, 88844, Note_on_c, 0, 58, 25
2, 88848, Note_on_c, 0, 54, 26
2, 88864, Note_on_c, 0, 62, 0
2, 88868, Note_on_c, 0, 60, 0
2, 88876, Note_on_c, 0, 69, 0
2, 88892, Note_on_c, 0, 58, 0
2, 88916, Note_on_c, 0, 54, 0
2, 88928, Note_on_c, 0, 67, 29
2, 88992, Note_on_c, 0, 67, 0
2, 89012, Note_on_c, 0, 56, 26
2, 89028, Note_on_c, 0, 55, 60
2, 89028, Note_on_c, 0, 59, 53
2, 89032, Note_on_c, 0, 56, 0
2, 89052, Note_on_c, 0, 59, 0
2, 89088, Note_on_c, 0, 55, 0
2, 89096, Note_on_c, 0, 71, 82
2, 89156, Note_on_c, 0, 71, 0
2, 89216, Note_on_c, 0, 66, 53
2, 89272, Note_on_c, 0, 66, 0
2, 89368, Note_on_c, 0, 48, 32
2, 89400, Note_on_c, 0, 48, 0
2, 89404, Note_on_c, 0, 49, 47
2, 89412, Note_on_c, 0, 62, 54
2, 89432, Note_on_c, 0, 62, 0
2, 89432, Note_on_c, 0, 50, 37
2, 89452, Note_on_c, 0, 49, 0
2, 89480, Note_on_c, 0, 66, 76
2, 89584, Note_on_c, 0, 66, 0
2, 89608, Note_on_c, 0, 62, 33
2, 89632, Note_on_c, 0, 62, 0
2, 89664, Note_on_c, 0, 64, 80
2, 89776, Note_on_c, 0, 64, 0
2, 89792, Note_on_c, 0, 62, 56
2, 89840, Note_on_c, 0, 62, 0
2, 89844, Note_on_c, 0, 50, 0
2, 89868, Note_on_c, 0, 59, 39
2, 89956, Note_on_c, 0, 59, 0
2, 89968, Note_on_c, 0, 56, 62
2, 90004, Note_on_c, 0, 56, 0
2, 90044, Note_on_c, 0, 55, 35
2, 90100, Note_on_c, 0, 55, 0
2, 90180, Note_on_c, 0, 50, 29
2, 90204, Note_on_c, 0, 50, 0
2, 90228, Note_on_c, 0, 58, 69
2, 90304, Note_on_c, 0, 58, 0
2, 90352, Note_on_c, 0, 50, 34
2, 90380, Note_on_c, 0, 50, 0
2, 90420, Note_on_c, 0, 56, 72
2, 90516, Note_on_c, 0, 56, 0
2, 90548, Note_on_c, 0, 52, 49
2, 90568, Note_on_c, 0, 52, 0
2, 90620, Note_on_c, 0, 55, 71
2, 90744, Note_on_c, 0, 55, 0
2, 90804, Note_on_c, 0, 48, 53
2, 90884, Note_on_c, 0, 48, 0
2, 90928, Note_on_c, 0, 48, 64
2, 91036, Note_on_c, 0, 48, 0
2, 91496, Note_on_c, 0, 55, 79
2, 91580, Note_on_c, 0, 55, 0
2, 91644, Note_on_c, 0, 56, 79
2, 91720, Note_on_c, 0, 56, 0
2, 91776, Note_on_c, 0, 56, 82
2, 91952, Note_on_c, 0, 56, 0
2, 91964, Note_on_c, 0, 55, 84
2, 92028, Note_on_c, 0, 55, 0
2, 92080, Note_on_c, 0, 55, 75
2, 92132, Note_on_c, 0, 55, 0
2, 92192, Note_on_c, 0, 55, 73
2, 92348, Note_on_c, 0, 55, 0
2, 92356, Note_on_c, 0, 54, 46
2, 92444, Note_on_c, 0, 54, 0
2, 92476, Note_on_c, 0, 55, 74
2, 92664, Note_on_c, 0, 56, 69
2, 92676, Note_on_c, 0, 55, 0
2, 92744, Note_on_c, 0, 56, 0
2, 92780, Note_on_c, 0, 56, 71
2, 92884, Note_on_c, 0, 56, 0
2, 93988, Note_on_c, 0, 63, 38
2, 94008, Note_on_c, 0, 63, 0
2, 94056, Note_on_c, 0, 67, 108
2, 94128, Note_on_c, 0, 67, 0
2, 94172, Note_on_c, 0, 66, 50
2, 94220, Note_on_c, 0, 66, 0
2, 94256, Note_on_c, 0, 67, 36
2, 94312, Note_on_c, 0, 67, 0
2, 94356, Note_on_c, 0, 74, 89
2, 94440, Note_on_c, 0, 74, 0
2, 94636, Note_on_c, 0, 67, 85
2, 94708, Note_on_c, 0, 67, 0
2, 94752, Note_on_c, 0, 66, 49
2, 94796, Note_on_c, 0, 66, 0
2, 94844, Note_on_c, 0, 67, 27
2, 94884, Note_on_c, 0, 67, 0
2, 94940, Note_on_c, 0, 55, 58
2, 94940, Note_on_c, 0, 75, 72
2, 94952, Note_on_c, 0, 63, 37
2, 94956, Note_on_c, 0, 60, 31
2, 94980, Note_on_c, 0, 75, 0
2, 95056, Note_on_c, 0, 55, 0
2, 95068, Note_on_c, 0, 60, 0
2, 95072, Note_on_c, 0, 63, 0
2, 95200, Note_on_c, 0, 63, 50
2, 95220, Note_on_c, 0, 60, 44
2, 95224, Note_on_c, 0, 56, 37
2, 95260, Note_on_c, 0, 63, 0
2, 95280, Note_on_c, 0, 60, 0
2, 95316, Note_on_c, 0, 56, 0
2, 95544, Note_on_c, 0, 63, 29
2, 95544, Note_on_c, 0, 60, 44
2, 95556, Note_on_c, 0, 56, 27
2, 95564, Note_on_c, 0, 63, 0
2, 95568, Note_on_c, 0, 60, 0
2, 95604, Note_on_c, 0, 67, 94
2, 95684, Note_on_c, 0, 67, 0
2, 95728, Note_on_c, 0, 56, 0
2, 95744, Note_on_c, 0, 64, 26
2, 95776, Note_on_c, 0, 64, 0
2, 95908, Note_on_c, 0, 63, 46
2, 95924, Note_on_c, 0, 67, 74
2, 95928, Note_on_c, 0, 60, 34
2, 95944, Note_on_c, 0, 56, 25
2, 95968, Note_on_c, 0, 67, 0
2, 95996, Note_on_c, 0, 60, 0
2, 96032, Note_on_c, 0, 63, 0
2, 96112, Note_on_c, 0, 60, 15
2, 96112, Note_on_c, 0, 65, 77
2, 96132, Note_on_c, 0, 53, 1
2, 96160, Note_on_c, 0, 65, 0
2, 96168, Note_on_c, 0, 60, 0
2, 96200, Note_on_c, 0, 67, 64
2, 96220, Note_on_c, 0, 53, 0
2, 96244, Note_on_c, 0, 56, 0
2, 96252, Note_on_c, 0, 67, 0
2, 96288, Note_on_c, 0, 68, 69
2, 96328, Note_on_c, 0, 60, 37
2, 96348, Note_on_c, 0, 56, 20
2, 96352, Note_on_c, 0, 68, 0
2, 96380, Note_on_c, 0, 70, 50
2, 96404, Note_on_c, 0, 60, 0
2, 96436, Note_on_c, 0, 70, 0
2, 96448, Note_on_c, 0, 60, 13
2, 96468, Note_on_c, 0, 72, 72
2, 96532, Note_on_c, 0, 60, 0
2, 96548, Note_on_c, 0, 72, 0
2, 96548, Note_on_c, 0, 56, 0
2, 96568, Note_on_c, 0, 74, 42
2, 96656, Note_on_c, 0, 74, 0
2, 96668, Note_on_c, 0, 75, 74
2, 96732, Note_on_c, 0, 75, 0
2, 96764, Note_on_c, 0, 77, 50
2, 96848, Note_on_c, 0, 77, 0
2, 97064, Note_on_c, 0, 67, 57
2, 97076, Note_on_c, 0, 60, 35
2, 97076, Note_on_c, 0, 62, 38
2, 97080, Note_on_c, 0, 56, 31
2, 97160, Note_on_c, 0, 60, 0
2, 97164, Note_on_c, 0, 62, 0
2, 97180, Note_on_c, 0, 67, 0
2, 97220, Note_on_c, 0, 56, 0
2, 97452, Note_on_c, 0, 67, 46
2, 97464, Note_on_c, 0, 62, 36
2, 97472, Note_on_c, 0, 67, 0
2, 97500, Note_on_c, 0, 62, 0
2, 97524, Note_on_c, 0, 79, 105
2, 97608, Note_on_c, 0, 79, 0
2, 97644, Note_on_c, 0, 77, 45
2, 97680, Note_on_c, 0, 77, 0
2, 97728, Note_on_c, 0, 79, 61
2, 97780, Note_on_c, 0, 79, 0
2, 97836, Note_on_c, 0, 84, 95
2, 97888, Note_on_c, 0, 84, 0
2, 97936, Note_on_c, 0, 84, 90
2, 98016, Note_on_c, 0, 84, 0
2, 98032, Note_on_c, 0, 56, 25
2, 98064, Note_on_c, 0, 82, 72
2, 98104, Note_on_c, 0, 56, 0
2, 98116, Note_on_c, 0, 82, 0
2, 98232, Note_on_c, 0, 58, 39
2, 98232, Note_on_c, 0, 55, 37
2, 98236, Note_on_c, 0, 65, 52
2, 98240, Note_on_c, 0, 61, 48
2, 98540, Note_on_c, 0, 61, 0
2, 98600, Note_on_c, 0, 65, 0
2, 98600, Note_on_c, 0, 61, 30
2, 98624, Note_on_c, 0, 79, 26
2, 98640, Note_on_c, 0, 79, 0
2, 98652, Note_on_c, 0, 61, 0
2, 98652, Note_on_c, 0, 80, 57
2, 98704, Note_on_c, 0, 80, 0
2, 98708, Note_on_c, 0, 82, 56
2, 98736, Note_on_c, 0, 82, 0
2, 98760, Note_on_c, 0, 84, 82
2, 98808, Note_on_c, 0, 84, 0
2, 98844, Note_on_c, 0, 55, 0
2, 98844, Note_on_c, 0, 58, 0
2, 98876, Note_on_c, 0, 85, 90
2, 98916, Note_on_c, 0, 85, 0
2, 98964, Note_on_c, 0, 87, 90
2, 99012, Note_on_c, 0, 87, 0
2, 99060, Note_on_c, 0, 88, 89
2, 99108, Note_on_c, 0, 88, 0
2, 99144, Note_on_c, 0, 89, 85
2, 99204, Note_on_c, 0, 89, 0
2, 99236, Note_on_c, 0, 90, 83
2, 99292, Note_on_c, 0, 90, 0
2, 99336, Note_on_c, 0, 91, 68
2, 99384, Note_on_c, 0, 91, 0
2, 99428, Note_on_c, 0, 92, 80
2, 99448, Note_on_c, 0, 63, 37
2, 99452, Note_on_c, 0, 58, 36
2, 99472, Note_on_c, 0, 52, 25
2, 99512, Note_on_c, 0, 92, 0
2, 99524, Note_on_c, 0, 93, 67
2, 99564, Note_on_c, 0, 93, 0
2, 99612, Note_on_c, 0, 94, 77
2, 99688, Note_on_c, 0, 94, 0
2, 99700, Note_on_c, 0, 95, 62
2, 99724, Note_on_c, 0, 52, 0
2, 99744, Note_on_c, 0, 95, 0
2, 99760, Note_on_c, 0, 63, 0
2, 99764, Note_on_c, 0, 58, 0
2, 99784, Note_on_c, 0, 96, 81
2, 99836, Note_on_c, 0, 96, 0
2, 99844, Note_on_c, 0, 63, 36
2, 99872, Note_on_c, 0, 60, 35
2, 99880, Note_on_c, 0, 94, 65
2, 99904, Note_on_c, 0, 56, 17
2, 99972, Note_on_c, 0, 63, 0
2, 99984, Note_on_c, 0, 92, 67
2, 99988, Note_on_c, 0, 94, 0
2, 100044, Note_on_c, 0, 92, 0
2, 100068, Note_on_c, 0, 91, 32
2, 100100, Note_on_c, 0, 60, 0
2, 100112, Note_on_c, 0, 56, 0
2, 100132, Note_on_c, 0, 91, 0
2, 100188, Note_on_c, 0, 60, 42
2, 100244, Note_on_c, 0, 94, 88
2, 100252, Note_on_c, 0, 60, 0
2, 100316, Note_on_c, 0, 94, 0
2, 100432, Note_on_c, 0, 92, 77
2, 100504, Note_on_c, 0, 92, 0
2, 100540, Note_on_c, 0, 91, 64
2, 100584, Note_on_c, 0, 91, 0
2, 100636, Note_on_c, 0, 63, 38
2, 100648, Note_on_c, 0, 54, 31
2, 100652, Note_on_c, 0, 95, 89
2, 100652, Note_on_c, 0, 58, 31
2, 100652, Note_on_c, 0, 59, 49
2, 100764, Note_on_c, 0, 94, 83
2, 100776, Note_on_c, 0, 95, 0
2, 100788, Note_on_c, 0, 63, 0
2, 100792, Note_on_c, 0, 59, 0
2, 100824, Note_on_c, 0, 94, 0
2, 100844, Note_on_c, 0, 58, 0
2, 100860, Note_on_c, 0, 92, 65
2, 100932, Note_on_c, 0, 92, 0
2, 101040, Note_on_c, 0, 94, 78
2, 101060, Note_on_c, 0, 59, 44
2, 101068, Note_on_c, 0, 58, 1
2, 101112, Note_on_c, 0, 59, 0
2, 101116, Note_on_c, 0, 94, 0
2, 101132, Note_on_c, 0, 92, 67
2, 101184, Note_on_c, 0, 63, 27
2, 101208, Note_on_c, 0, 92, 0
2, 101208, Note_on_c, 0, 91, 39
2, 101220, Note_on_c, 0, 63, 0
2, 101252, Note_on_c, 0, 58, 0
2, 101272, Note_on_c, 0, 91, 0
2, 101308, Note_on_c, 0, 54, 0
2, 101352, Note_on_c, 0, 58, 21
2, 101364, Note_on_c, 0, 53, 16
2, 101392, Note_on_c, 0, 93, 87
2, 101396, Note_on_c, 0, 58, 0
2, 101428, Note_on_c, 0, 53, 0
2, 101472, Note_on_c, 0, 93, 0
2, 101524, Note_on_c, 0, 89, 68
2, 101572, Note_on_c, 0, 89, 0
2, 101680, Note_on_c, 0, 86, 67
2, 101696, Note_on_c, 0, 58, 35
2, 101696, Note_on_c, 0, 62, 34
2, 101720, Note_on_c, 0, 53, 24
2, 101740, Note_on_c, 0, 86, 0
2, 101792, Note_on_c, 0, 81, 40
2, 101844, Note_on_c, 0, 81, 0
2, 101876, Note_on_c, 0, 53, 0
2, 101876, Note_on_c, 0, 62, 0
2, 101968, Note_on_c, 0, 58, 0
2, 102072, Note_on_c, 0, 63, 48
2, 102084, Note_on_c, 0, 56, 32
2, 102088, Note_on_c, 0, 58, 28
2, 102096, Note_on_c, 0, 63, 0
2, 102112, Note_on_c, 0, 58, 0
2, 102124, Note_on_c, 0, 56, 0
2, 102480, Note_on_c, 0, 90, 76
2, 102484, Note_on_c, 0, 78, 68
2, 102484, Note_on_c, 0, 85, 71
2, 102516, Note_on_c, 0, 78, 0
2, 102520, Note_on_c, 0, 90, 0
2, 102528, Note_on_c, 0, 85, 0
2, 102608, Note_on_c, 0, 90, 76
2, 102612, Note_on_c, 0, 78, 71
2, 102616, Note_on_c, 0, 61, 51
2, 102620, Note_on_c, 0, 85, 63
2, 102628, Note_on_c, 0, 58, 38
2, 102636, Note_on_c, 0, 52, 33
2, 102640, Note_on_c, 0, 56, 31
2, 102660, Note_on_c, 0, 52, 0
2, 102664, Note_on_c, 0, 78, 0
2, 102668, Note_on_c, 0, 90, 0
2, 102668, Note_on_c, 0, 61, 0
2, 102672, Note_on_c, 0, 85, 0
2, 102676, Note_on_c, 0, 56, 0
2, 102700, Note_on_c, 0, 58, 0
2, 102780, Note_on_c, 0, 87, 51
2, 102796, Note_on_c, 0, 75, 23
2, 102808, Note_on_c, 0, 87, 0
2, 102812, Note_on_c, 0, 75, 0
2, 102896, Note_on_c, 0, 90, 77
2, 102900, Note_on_c, 0, 78, 43
2, 102904, Note_on_c, 0, 80, 49
2, 102960, Note_on_c, 0, 80, 0
2, 102980, Note_on_c, 0, 90, 0
2, 102984, Note_on_c, 0, 78, 0
2, 103080, Note_on_c, 0, 87, 39
2, 103084, Note_on_c, 0, 75, 56
2, 103132, Note_on_c, 0, 75, 0
2, 103144, Note_on_c, 0, 87, 0
2, 103200, Note_on_c, 0, 87, 46
2, 103204, Note_on_c, 0, 75, 58
2, 103256, Note_on_c, 0, 75, 0
2, 103272, Note_on_c, 0, 87, 0
2, 103648, Note_on_c, 0, 63, 52
2, 103652, Note_on_c, 0, 54, 45
2, 103660, Note_on_c, 0, 60, 47
2, 103672, Note_on_c, 0, 63, 0
2, 103676, Note_on_c, 0, 57, 32
2, 103692, Note_on_c, 0, 60, 0
2, 103712, Note_on_c, 0, 57, 0
2, 103728, Note_on_c, 0, 54, 0
2, 103932, Note_on_c, 0, 63, 64
2, 103936, Note_on_c, 0, 54, 44
2, 103940, Note_on_c, 0, 57, 46
2, 103944, Note_on_c, 0, 60, 57
2, 104216, Note_on_c, 0, 60, 0
2, 104216, Note_on_c, 0, 57, 0
2, 104272, Note_on_c, 0, 54, 0
2, 104356, Note_on_c, 0, 63, 0
2, 104432, Note_on_c, 0, 63, 35
2, 104440, Note_on_c, 0, 65, 73
2, 104444, Note_on_c, 0, 56, 33
2, 104452, Note_on_c, 0, 60, 45
2, 104504, Note_on_c, 0, 65, 0
2, 104552, Note_on_c, 0, 67, 59
2, 104620, Note_on_c, 0, 67, 0
2, 104624, Note_on_c, 0, 68, 63
2, 104656, Note_on_c, 0, 60, 0
2, 104664, Note_on_c, 0, 56, 0
2, 104696, Note_on_c, 0, 63, 0
2, 104704, Note_on_c, 0, 68, 0
2, 104740, Note_on_c, 0, 63, 46
2, 104744, Note_on_c, 0, 70, 77
2, 104748, Note_on_c, 0, 56, 49
2, 104752, Note_on_c, 0, 67, 56
2, 104756, Note_on_c, 0, 60, 45
2, 104884, Note_on_c, 0, 70, 0
2, 104924, Note_on_c, 0, 67, 0
2, 104932, Note_on_c, 0, 72, 74
2, 104980, Note_on_c, 0, 72, 0
2, 105012, Note_on_c, 0, 74, 73
2, 105024, Note_on_c, 0, 67, 37
2, 105060, Note_on_c, 0, 67, 0
2, 105076, Note_on_c, 0, 74, 0
2, 105080, Note_on_c, 0, 56, 0
2, 105112, Note_on_c, 0, 63, 0
2, 105128, Note_on_c, 0, 75, 87
2, 105136, Note_on_c, 0, 56, 46
2, 105140, Note_on_c, 0, 62, 68
2, 105144, Note_on_c, 0, 66, 68
2, 105216, Note_on_c, 0, 66, 0
2, 105240, Note_on_c, 0, 75, 0
2, 105244, Note_on_c, 0, 60, 0
2, 105244, Note_on_c, 0, 56, 0
2, 105244, Note_on_c, 0, 62, 0
2, 105324, Note_on_c, 0, 77, 68
2, 105396, Note_on_c, 0, 66, 53
2, 105400, Note_on_c, 0, 56, 46
2, 105404, Note_on_c, 0, 62, 47
2, 105416, Note_on_c, 0, 60, 42
2, 105416, Note_on_c, 0, 78, 62
2, 105424, Note_on_c, 0, 77, 0
2, 105444, Note_on_c, 0, 60, 0
2, 105464, Note_on_c, 0, 66, 0
2, 105464, Note_on_c, 0, 78, 0
2, 105480, Note_on_c, 0, 62, 0
2, 105484, Note_on_c, 0, 56, 0
2, 105588, Note_on_c, 0, 79, 74
2, 105596, Note_on_c, 0, 66, 55
2, 105596, Note_on_c, 0, 56, 52
2, 105608, Note_on_c, 0, 62, 44
2, 105640, Note_on_c, 0, 62, 0
2, 105640, Note_on_c, 0, 79, 0
2, 105648, Note_on_c, 0, 66, 0
2, 105676, Note_on_c, 0, 56, 0
2, 105784, Note_on_c, 0, 66, 48
2, 105788, Note_on_c, 0, 56, 50
2, 105824, Note_on_c, 0, 66, 0
2, 105856, Note_on_c, 0, 56, 0
2, 105981, Note_on_c, 0, 65, 72
2, 105984, Note_on_c, 0, 70, 73
2, 105985, Note_on_c, 0, 60, 62
2, 105986, Note_on_c, 0, 62, 67
2, 105997, Note_on_c, 0, 55, 74
2, 106136, Control_c, 0, 64, 127
2, 106215, Note_on_c, 0, 70, 0
2, 106221, Note_on_c, 0, 65, 0
2, 106241, Note_on_c, 0, 62, 0
2, 106247, Note_on_c, 0, 60, 0
2, 106394, Note_on_c, 0, 67, 68
2, 106394, Note_on_c, 0, 58, 70
2, 106396, Note_on_c, 0, 63, 69
2, 106401, Note_on_c, 0, 55, 0
2, 106406, Note_on_c, 0, 51, 62
2, 106417, Control_c, 0, 64, 0
2, 106513, Control_c, 0, 64, 127
2, 106571, Note_on_c, 0, 51, 0
2, 106571, Note_on_c, 0, 67, 0
2, 106633, Note_on_c, 0, 58, 0
2, 106635, Note_on_c, 0, 63, 0
2, 106782, Control_c, 0, 64, 0
2, 106783, Note_on_c, 0, 58, 79
2, 106791, Note_on_c, 0, 65, 73
2, 106795, Note_on_c, 0, 53, 64
2, 106797, Note_on_c, 0, 43, 49
2, 106801, Note_on_c, 0, 59, 77
2, 106802, Note_on_c, 0, 58, 0
2, 106804, Note_on_c, 0, 56, 56
2, 106902, Control_c, 0, 64, 127
2, 106963, Note_on_c, 0, 53, 0
2, 107055, Note_on_c, 0, 65, 0
2, 107069, Note_on_c, 0, 56, 0
2, 107089, Note_on_c, 0, 59, 0
2, 107150, Note_on_c, 0, 43, 0
2, 107153, Note_on_c, 0, 59, 84
2, 107155, Note_on_c, 0, 63, 83
2, 107157, Note_on_c, 0, 56, 83
2, 107158, Control_c, 0, 64, 0
2, 107159, Note_on_c, 0, 47, 87
2, 107480, Note_on_c, 0, 59, 0
2, 107483, Note_on_c, 0, 47, 0
2, 107484, Note_on_c, 0, 56, 0
2, 107489, Note_on_c, 0, 63, 0
2, 107523, Note_on_c, 0, 74, 105
2, 107547, Note_on_c, 0, 74, 103
2, 107586, Note_on_c, 0, 74, 0
2, 107616, Note_on_c, 0, 74, 0
2, 107723, Note_on_c, 0, 75, 88
2, 107767, Note_on_c, 0, 75, 0
2, 107915, Note_on_c, 0, 77, 81
2, 107963, Note_on_c, 0, 77, 0
2, 108015, Note_on_c, 0, 75, 77
2, 108054, Note_on_c, 0, 75, 0
2, 108202, Note_on_c, 0, 74, 85
2, 108240, Note_on_c, 0, 74, 0
2, 108383, Note_on_c, 0, 72, 74
2, 108436, Note_on_c, 0, 72, 0
2, 108477, Note_on_c, 0, 67, 42
2, 108514, Note_on_c, 0, 67, 0
2, 108580, Note_on_c, 0, 65, 67
2, 108621, Note_on_c, 0, 65, 0
2, 108667, Note_on_c, 0, 63, 65
2, 108813, Note_on_c, 0, 55, 33
2, 108823, Note_on_c, 0, 63, 0
2, 108833, Note_on_c, 0, 55, 0
2, 108862, Note_on_c, 0, 62, 79
2, 109045, Note_on_c, 0, 62, 0
2, 109071, Note_on_c, 0, 60, 72
2, 109188, Note_on_c, 0, 60, 0
2, 109252, Note_on_c, 0, 59, 78
2, 109412, Note_on_c, 0, 59, 0
2, 109448, Note_on_c, 0, 62, 89
2, 109597, Note_on_c, 0, 62, 0
2, 109644, Note_on_c, 0, 56, 48
2, 109734, Note_on_c, 0, 56, 0
2, 109757, Note_on_c, 0, 55, 57
2, 110083, Note_on_c, 0, 55, 0
2, 110140, Control_c, 0, 64, 127
2, 110309, Note_on_c, 0, 56, 45
2, 110317, Note_on_c, 0, 62, 49
2, 110330, Note_on_c, 0, 56, 0
2, 110330, Control_c, 0, 64, 0
2, 110344, Note_on_c, 0, 62, 0
2, 110417, Note_on_c, 0, 65, 49
2, 110437, Note_on_c, 0, 65, 0
2, 110510, Note_on_c, 0, 70, 77
2, 110557, Note_on_c, 0, 70, 0
2, 110590, Note_on_c, 0, 55, 57
2, 110591, Note_on_c, 0, 46, 40
2, 110605, Note_on_c, 0, 71, 66
2, 110680, Note_on_c, 0, 71, 0
2, 110712, Note_on_c, 0, 74, 95
2, 110765, Note_on_c, 0, 55, 0
2, 110776, Note_on_c, 0, 46, 0
2, 110800, Note_on_c, 0, 72, 74
2, 110830, Note_on_c, 0, 74, 0
2, 110911, Note_on_c, 0, 67, 67
2, 110927, Note_on_c, 0, 72, 0
2, 110966, Note_on_c, 0, 67, 0
2, 111020, Note_on_c, 0, 65, 25
2, 111081, Note_on_c, 0, 65, 0
2, 111087, Note_on_c, 0, 63, 62
2, 111159, Note_on_c, 0, 63, 0
2, 111182, Note_on_c, 0, 62, 35
2, 111260, Note_on_c, 0, 62, 0
2, 111298, Note_on_c, 0, 60, 40
2, 111317, Note_on_c, 0, 60, 0
2, 111374, Note_on_c, 0, 63, 79
2, 111466, Note_on_c, 0, 63, 0
2, 111571, Note_on_c, 0, 62, 55
2, 111641, Note_on_c, 0, 62, 0
2, 111673, Note_on_c, 0, 63, 71
2, 111744, Note_on_c, 0, 63, 0
2, 111780, Note_on_c, 0, 62, 32
2, 111838, Note_on_c, 0, 62, 0
2, 111863, Note_on_c, 0, 60, 62
2, 111904, Note_on_c, 0, 45, 28
2, 111907, Note_on_c, 0, 60, 0
2, 111942, Note_on_c, 0, 45, 0
2, 111981, Note_on_c, 0, 58, 18
2, 112034, Note_on_c, 0, 58, 0
2, 112052, Note_on_c, 0, 55, 53
2, 112074, Note_on_c, 0, 55, 0
2, 112128, Note_on_c, 0, 58, 73
2, 112207, Note_on_c, 0, 58, 0
2, 112427, Note_on_c, 0, 48, 83
2, 112480, Note_on_c, 0, 48, 0
2, 112512, Note_on_c, 0, 51, 60
2, 112565, Note_on_c, 0, 51, 0
2, 112603, Note_on_c, 0, 55, 71
2, 112662, Note_on_c, 0, 55, 0
2, 112688, Note_on_c, 0, 58, 55
2, 112700, Note_on_c, 0, 59, 74
2, 112722, Note_on_c, 0, 59, 0
2, 112735, Note_on_c, 0, 58, 0
2, 112784, Note_on_c, 0, 55, 64
2, 112863, Note_on_c, 0, 55, 0
2, 112872, Note_on_c, 0, 56, 46
2, 112972, Note_on_c, 0, 56, 0
2, 112987, Note_on_c, 0, 58, 52
2, 113015, Note_on_c, 0, 58, 0
2, 113062, Note_on_c, 0, 60, 53
2, 113134, Note_on_c, 0, 60, 0
2, 113260, Note_on_c, 0, 67, 39
2, 113349, Note_on_c, 0, 67, 0
2, 113371, Note_on_c, 0, 68, 62
2, 113419, Note_on_c, 0, 68, 0
2, 113482, Note_on_c, 0, 72, 26
2, 113526, Note_on_c, 0, 72, 0
2, 113572, Note_on_c, 0, 73, 74
2, 113636, Note_on_c, 0, 73, 0
2, 113667, Note_on_c, 0, 74, 55
2, 113741, Note_on_c, 0, 74, 0
2, 114162, Note_on_c, 0, 67, 59
2, 114207, Note_on_c, 0, 67, 0
2, 114248, Note_on_c, 0, 68, 29
2, 114325, Note_on_c, 0, 68, 0
2, 114344, Note_on_c, 0, 70, 64
2, 114402, Note_on_c, 0, 70, 0
2, 114436, Note_on_c, 0, 72, 64
2, 114491, Note_on_c, 0, 72, 0
2, 114539, Note_on_c, 0, 74, 71
2, 114589, Note_on_c, 0, 74, 0
2, 114635, Note_on_c, 0, 75, 55
2, 114681, Note_on_c, 0, 75, 0
2, 114731, Note_on_c, 0, 77, 59
2, 114809, Note_on_c, 0, 77, 0
2, 114830, Note_on_c, 0, 78, 39
2, 114904, Note_on_c, 0, 78, 0
2, 114938, Note_on_c, 0, 79, 48
2, 114972, Note_on_c, 0, 79, 0
2, 115010, Note_on_c, 0, 82, 40
2, 115039, Note_on_c, 0, 82, 0
2, 115128, Note_on_c, 0, 84, 58
2, 115167, Note_on_c, 0, 84, 0
2, 115211, Note_on_c, 0, 86, 89
2, 115216, Note_on_c, 0, 62, 39
2, 115217, Note_on_c, 0, 65, 46
2, 115219, Note_on_c, 0, 60, 50
2, 115220, Note_on_c, 0, 55, 57
2, 115288, Note_on_c, 0, 86, 0
2, 115417, Note_on_c, 0, 86, 91
2, 115528, Note_on_c, 0, 82, 68
2, 115536, Note_on_c, 0, 86, 0
2, 115563, Note_on_c, 0, 65, 0
2, 115584, Note_on_c, 0, 62, 0
2, 115589, Note_on_c, 0, 82, 0
2, 115597, Note_on_c, 0, 55, 0
2, 115610, Note_on_c, 0, 60, 0
2, 115612, Note_on_c, 0, 79, 50
2, 115644, Control_c, 0, 64, 127
2, 115687, Note_on_c, 0, 79, 0
2, 115731, Note_on_c, 0, 74, 33
2, 115757, Note_on_c, 0, 74, 0
2, 115768, Control_c, 0, 64, 0
2, 115784, Note_on_c, 0, 61, 49
2, 115793, Note_on_c, 0, 65, 53
2, 115795, Note_on_c, 0, 55, 59
2, 115799, Note_on_c, 0, 84, 89
2, 115859, Note_on_c, 0, 84, 0
2, 115977, Note_on_c, 0, 84, 99
2, 116019, Note_on_c, 0, 61, 0
2, 116062, Note_on_c, 0, 65, 0
2, 116069, Note_on_c, 0, 61, 38
2, 116075, Note_on_c, 0, 84, 0
2, 116076, Note_on_c, 0, 82, 69
2, 116106, Note_on_c, 0, 61, 0
2, 116131, Note_on_c, 0, 82, 0
2, 116160, Note_on_c, 0, 77, 57
2, 116176, Note_on_c, 0, 55, 0
2, 116242, Note_on_c, 0, 77, 0
2, 116256, Note_on_c, 0, 73, 65
2, 116291, Note_on_c, 0, 61, 38
2, 116312, Note_on_c, 0, 73, 0
2, 116334, Note_on_c, 0, 61, 0
2, 116362, Note_on_c, 0, 72, 35
2, 116458, Note_on_c, 0, 72, 0
2, 116460, Note_on_c, 0, 70, 56
2, 116469, Note_on_c, 0, 61, 42
2, 116490, Note_on_c, 0, 55, 24
2, 116496, Note_on_c, 0, 70, 0
2, 116516, Note_on_c, 0, 55, 0
2, 116538, Note_on_c, 0, 61, 0
2, 116649, Note_on_c, 0, 68, 30
2, 116702, Note_on_c, 0, 68, 0
2, 116736, Note_on_c, 0, 60, 50
2, 116739, Note_on_c, 0, 70, 62
2, 116745, Note_on_c, 0, 53, 29
2, 116746, Note_on_c, 0, 58, 37
2, 116747, Note_on_c, 0, 63, 29
2, 116781, Note_on_c, 0, 63, 0
2, 116784, Note_on_c, 0, 60, 0
2, 116788, Note_on_c, 0, 53, 0
2, 116808, Note_on_c, 0, 58, 0
2, 116879, Note_on_c, 0, 70, 0
2, 116932, Note_on_c, 0, 67, 54
2, 117003, Note_on_c, 0, 67, 0
2, 117044, Note_on_c, 0, 63, 62
2, 117095, Note_on_c, 0, 63, 0
2, 117108, Control_c, 0, 64, 127
2, 117226, Note_on_c, 0, 60, 57
2, 117244, Note_on_c, 0, 60, 0
2, 117254, Control_c, 0, 64, 0
2, 117337, Note_on_c, 0, 75, 74
2, 117471, Note_on_c, 0, 75, 0
2, 117522, Note_on_c, 0, 72, 36
2, 117528, Note_on_c, 0, 71, 27
2, 117559, Note_on_c, 0, 71, 0
2, 117581, Note_on_c, 0, 72, 0
2, 117647, Note_on_c, 0, 69, 33
2, 117714, Note_on_c, 0, 69, 0
2, 117785, Control_c, 0, 64, 127
2, 117807, Note_on_c, 0, 66, 48
2, 117818, Control_c, 0, 64, 0
2, 117826, Note_on_c, 0, 66, 0
2, 117953, Note_on_c, 0, 64, 7
2, 118037, Note_on_c, 0, 51, 26
2, 118041, Note_on_c, 0, 64, 0
2, 118056, Note_on_c, 0, 51, 0
2, 118076, Note_on_c, 0, 71, 75
2, 118161, Note_on_c, 0, 71, 0
2, 118185, Note_on_c, 0, 66, 71
2, 118235, Note_on_c, 0, 54, 37
2, 118237, Note_on_c, 0, 43, 32
2, 118263, Note_on_c, 0, 66, 0
2, 118280, Note_on_c, 0, 64, 38
2, 118336, Note_on_c, 0, 64, 0
2, 118338, Control_c, 0, 64, 127
2, 118363, Note_on_c, 0, 54, 0
2, 118377, Note_on_c, 0, 59, 45
2, 118409, Note_on_c, 0, 59, 0
2, 118411, Control_c, 0, 64, 0
2, 118571, Note_on_c, 0, 50, 50
2, 118619, Note_on_c, 0, 50, 0
2, 118657, Note_on_c, 0, 54, 70
2, 118661, Note_on_c, 0, 43, 0
2, 118833, Note_on_c, 0, 54, 0
2, 118869, Note_on_c, 0, 52, 44
2, 118956, Note_on_c, 0, 52, 0
2, 118983, Note_on_c, 0, 54, 67
2, 119049, Note_on_c, 0, 54, 0
2, 119164, Note_on_c, 0, 55, 60
2, 119167, Note_on_c, 0, 43, 41
2, 119193, Note_on_c, 0, 43, 0
2, 119223, Note_on_c, 0, 55, 0
2, 119256, Note_on_c, 0, 56, 37
2, 119332, Note_on_c, 0, 56, 0
2, 119363, Note_on_c, 0, 58, 60
2, 119413, Note_on_c, 0, 58, 0
2, 119445, Note_on_c, 0, 59, 38
2, 119517, Note_on_c, 0, 59, 0
2, 119555, Note_on_c, 0, 61, 56
2, 119600, Note_on_c, 0, 61, 0
2, 119632, Note_on_c, 0, 62, 38
2, 119715, Note_on_c, 0, 62, 0
2, 119740, Note_on_c, 0, 63, 65
2, 119787, Note_on_c, 0, 63, 0
2, 119812, Note_on_c, 0, 66, 61
2, 119827, Note_on_c, 0, 58, 30
2, 119832, Note_on_c, 0, 48, 39
2, 119892, Note_on_c, 0, 66, 0
2, 120014, Note_on_c, 0, 62, 53
2, 120066, Note_on_c, 0, 62, 0
2, 120122, Note_on_c, 0, 65, 68
2, 120277, Note_on_c, 0, 65, 0
2, 120301, Note_on_c, 0, 62, 36
2, 120305, Note_on_c, 0, 58, 0
2, 120337, Note_on_c, 0, 48, 0
2, 120339, Note_on_c, 0, 62, 0
2, 120383, Note_on_c, 0, 63, 74
2, 120535, Note_on_c, 0, 63, 0
2, 120571, Note_on_c, 0, 59, 36
2, 120666, Note_on_c, 0, 59, 0
2, 120694, Note_on_c, 0, 62, 62
2, 120775, Note_on_c, 0, 62, 0
2, 120972, Note_on_c, 0, 62, 73
2, 121120, Note_on_c, 0, 48, 28
2, 121121, Note_on_c, 0, 62, 0
2, 121147, Note_on_c, 0, 48, 0
2, 121150, Note_on_c, 0, 60, 64
2, 121184, Control_c, 0, 64, 127
2, 121226, Note_on_c, 0, 60, 0
2, 121280, Control_c, 0, 64, 0
2, 121359, Note_on_c, 0, 59, 40
2, 121362, Note_on_c, 0, 55, 34
2, 121366, Note_on_c, 0, 47, 34
2, 121426, Control_c, 0, 64, 127
2, 121547, Note_on_c, 0, 59, 0
2, 121618, Note_on_c, 0, 47, 0
2, 121634, Note_on_c, 0, 55, 0
2, 121861, Note_on_c, 0, 55, 65
2, 121887, Note_on_c, 0, 55, 0
2, 121917, Control_c, 0, 64, 0
2, 121930, Note_on_c, 0, 56, 39
2, 121961, Note_on_c, 0, 56, 0
2, 121979, Note_on_c, 0, 58, 44
2, 122001, Note_on_c, 0, 58, 0
2, 122031, Note_on_c, 0, 59, 58
2, 122064, Note_on_c, 0, 59, 0
2, 122086, Note_on_c, 0, 61, 63
2, 122135, Note_on_c, 0, 61, 0
2, 122235, Note_on_c, 0, 62, 62
2, 122253, Note_on_c, 0, 62, 0
2, 122309, Note_on_c, 0, 64, 64
2, 122328, Note_on_c, 0, 64, 0
2, 122423, Note_on_c, 0, 65, 51
2, 122431, Note_on_c, 0, 67, 42
2, 122446, Note_on_c, 0, 65, 0
2, 122450, Note_on_c, 0, 67, 0
2, 122575, Note_on_c, 0, 67, 53
2, 122603, Note_on_c, 0, 67, 0
2, 122651, Note_on_c, 0, 68, 63
2, 122689, Note_on_c, 0, 68, 0
2, 122788, Note_on_c, 0, 70, 73
2, 122827, Note_on_c, 0, 70, 0
2, 122881, Note_on_c, 0, 71, 71
2, 122920, Note_on_c, 0, 71, 0
2, 122995, Note_on_c, 0, 74, 92
2, 123046, Note_on_c, 0, 74, 0
2, 123088, Note_on_c, 0, 72, 64
2, 123136, Note_on_c, 0, 72, 0
2, 123205, Note_on_c, 0, 67, 71
2, 123226, Note_on_c, 0, 46, 40
2, 123238, Note_on_c, 0, 55, 24
2, 123254, Note_on_c, 0, 67, 0
2, 123257, Note_on_c, 0, 55, 0
2, 123281, Note_on_c, 0, 46, 0
2, 123306, Note_on_c, 0, 65, 52
2, 123313, Control_c, 0, 64, 127
2, 123367, Note_on_c, 0, 65, 0
2, 123404, Note_on_c, 0, 63, 32
2, 123420, Control_c, 0, 64, 0
2, 123423, Note_on_c, 0, 63, 0
2, 123583, Note_on_c, 0, 60, 40
2, 123601, Note_on_c, 0, 60, 0
2, 123658, Note_on_c, 0, 46, 34
2, 123659, Note_on_c, 0, 67, 57
2, 123663, Note_on_c, 0, 62, 61
2, 123671, Note_on_c, 0, 55, 24
2, 123823, Note_on_c, 0, 62, 0
2, 123839, Note_on_c, 0, 55, 0
2, 123856, Note_on_c, 0, 63, 47
2, 123866, Note_on_c, 0, 46, 0
2, 123926, Note_on_c, 0, 67, 0
2, 123963, Note_on_c, 0, 63, 0
2, 123981, Note_on_c, 0, 60, 44
2, 124051, Note_on_c, 0, 60, 0
2, 124143, Note_on_c, 0, 45, 57
2, 124180, Note_on_c, 0, 45, 0
2, 124306, Control_c, 0, 64, 127
2, 124346, Control_c, 0, 64, 0
2, 124412, Note_on_c, 0, 56, 33
2, 124419, Note_on_c, 0, 44, 31
2, 124421, Note_on_c, 0, 63, 34
2, 124424, Note_on_c, 0, 60, 47
2, 124428, Note_on_c, 0, 51, 28
2, 124475, Control_c, 0, 64, 127
2, 124479, Note_on_c, 0, 56, 0
2, 124500, Note_on_c, 0, 60, 0
2, 124527, Note_on_c, 0, 44, 0
2, 124546, Note_on_c, 0, 51, 0
2, 124562, Note_on_c, 0, 63, 0
2, 124973, Note_on_c, 0, 63, 29
2, 124975, Note_on_c, 0, 79, 49
2, 124987, Note_on_c, 0, 67, 35
2, 124992, Note_on_c, 0, 60, 36
2, 125017, Note_on_c, 0, 60, 0
2, 125022, Note_on_c, 0, 67, 0
2, 125024, Note_on_c, 0, 79, 0
2, 125035, Note_on_c, 0, 63, 0
2, 125095, Note_on_c, 0, 68, 73
2, 125095, Note_on_c, 0, 63, 45
2, 125096, Note_on_c, 0, 80, 71
2, 125106, Note_on_c, 0, 56, 36
2, 125109, Note_on_c, 0, 60, 47
2, 125111, Note_on_c, 0, 67, 37
2, 125142, Note_on_c, 0, 68, 0
2, 125144, Note_on_c, 0, 67, 0
2, 125146, Note_on_c, 0, 60, 0
2, 125161, Note_on_c, 0, 56, 0
2, 125162, Note_on_c, 0, 80, 0
2, 125204, Note_on_c, 0, 63, 0
2, 125204, Control_c, 0, 64, 0
2, 125234, Note_on_c, 0, 63, 53
2, 125236, Note_on_c, 0, 70, 83
2, 125237, Note_on_c, 0, 82, 83
2, 125240, Note_on_c, 0, 56, 61
2, 125244, Note_on_c, 0, 60, 64
2, 125245, Note_on_c, 0, 67, 68
2, 125272, Control_c, 0, 64, 127
2, 125325, Note_on_c, 0, 67, 0
2, 125326, Note_on_c, 0, 70, 0
2, 125331, Note_on_c, 0, 56, 0
2, 125334, Note_on_c, 0, 82, 0
2, 125339, Note_on_c, 0, 60, 0
2, 125354, Note_on_c, 0, 63, 0
2, 125379, Note_on_c, 0, 63, 45
2, 125381, Note_on_c, 0, 67, 44
2, 125382, Note_on_c, 0, 56, 42
2, 125385, Note_on_c, 0, 84, 74
2, 125393, Note_on_c, 0, 60, 58
2, 125393, Note_on_c, 0, 72, 48
2, 125412, Note_on_c, 0, 60, 0
2, 125420, Note_on_c, 0, 67, 0
2, 125424, Control_c, 0, 64, 0
2, 125428, Note_on_c, 0, 84, 0
2, 125428, Note_on_c, 0, 56, 0
2, 125433, Note_on_c, 0, 72, 0
2, 125442, Note_on_c, 0, 63, 0
2, 125531, Note_on_c, 0, 82, 59
2, 125531, Note_on_c, 0, 70, 61
2, 125532, Note_on_c, 0, 63, 63
2, 125539, Note_on_c, 0, 67, 47
2, 125549, Note_on_c, 0, 60, 41
2, 125558, Note_on_c, 0, 67, 0
2, 125568, Note_on_c, 0, 70, 0
2, 125568, Note_on_c, 0, 60, 0
2, 125570, Note_on_c, 0, 82, 0
2, 125577, Note_on_c, 0, 63, 0
2, 125721, Note_on_c, 0, 80, 64
2, 125722, Note_on_c, 0, 68, 63
2, 125736, Note_on_c, 0, 63, 36
2, 125738, Note_on_c, 0, 67, 36
2, 125743, Note_on_c, 0, 60, 35
2, 125756, Note_on_c, 0, 63, 0
2, 125757, Note_on_c, 0, 67, 0
2, 125762, Note_on_c, 0, 60, 0
2, 125762, Note_on_c, 0, 68, 0
2, 125766, Note_on_c, 0, 80, 0
2, 125897, Note_on_c, 0, 78, 57
2, 125898, Note_on_c, 0, 63, 36
2, 125900, Control_c, 0, 64, 127
2, 125900, Note_on_c, 0, 66, 51
2, 125902, Note_on_c, 0, 56, 33
2, 125908, Note_on_c, 0, 60, 36
2, 125934, Note_on_c, 0, 66, 0
2, 125935, Note_on_c, 0, 60, 0
2, 125948, Note_on_c, 0, 78, 0
2, 125953, Note_on_c, 0, 56, 0
2, 125961, Note_on_c, 0, 63, 0
2, 125968, Control_c, 0, 64, 0
2, 125986, Note_on_c, 0, 56, 29
2, 125999, Note_on_c, 0, 79, 58
2, 126000, Note_on_c, 0, 62, 53
2, 126002, Note_on_c, 0, 67, 46
2, 126199, Control_c, 0, 64, 127
2, 126498, Note_on_c, 0, 79, 0
2, 126511, Note_on_c, 0, 67, 0
2, 126543, Note_on_c, 0, 62, 0
2, 126551, Note_on_c, 0, 77, 71
2, 126563, Note_on_c, 0, 65, 58
2, 126566, Control_c, 0, 64, 0
2, 126581, Note_on_c, 0, 56, 0
2, 126601, Note_on_c, 0, 65, 0
2, 126613, Note_on_c, 0, 77, 0
2, 126923, Note_on_c, 0, 74, 69
2, 126924, Note_on_c, 0, 67, 61
2, 126929, Note_on_c, 0, 56, 36
2, 126930, Note_on_c, 0, 62, 62
2, 126934, Note_on_c, 0, 47, 41
2, 127091, Control_c, 0, 64, 127
2, 127174, Note_on_c, 0, 74, 0
2, 127191, Note_on_c, 0, 62, 0
2, 127192, Note_on_c, 0, 67, 0
2, 127193, Note_on_c, 0, 56, 0
2, 127237, Note_on_c, 0, 53, 34
2, 127273, Note_on_c, 0, 53, 0
2, 127289, Note_on_c, 0, 71, 64
2, 127295, Note_on_c, 0, 67, 50
2, 127295, Note_on_c, 0, 62, 55
2, 127300, Control_c, 0, 64, 0
2, 127303, Note_on_c, 0, 56, 40
2, 127313, Note_on_c, 0, 67, 0
2, 127324, Note_on_c, 0, 62, 0
2, 127335, Note_on_c, 0, 47, 0
2, 127335, Note_on_c, 0, 71, 0
2, 127359, Note_on_c, 0, 56, 0
2, 127488, Note_on_c, 0, 68, 60
2, 127495, Note_on_c, 0, 59, 57
2, 127501, Note_on_c, 0, 63, 52
2, 127502, Note_on_c, 0, 58, 56
2, 127511, Note_on_c, 0, 65, 46
2, 127684, Control_c, 0, 64, 127
2, 127744, Note_on_c, 0, 65, 0
2, 127750, Note_on_c, 0, 59, 0
2, 127754, Note_on_c, 0, 68, 0
2, 127766, Note_on_c, 0, 58, 0
2, 127776, Note_on_c, 0, 63, 0
2, 127799, Note_on_c, 0, 63, 30
2, 127804, Note_on_c, 0, 70, 62
2, 127805, Note_on_c, 0, 59, 66
2, 127816, Note_on_c, 0, 65, 16
2, 127820, Note_on_c, 0, 58, 42
2, 127842, Note_on_c, 0, 65, 0
2, 127842, Control_c, 0, 64, 0
2, 127851, Note_on_c, 0, 59, 0
2, 127861, Note_on_c, 0, 70, 0
2, 127878, Note_on_c, 0, 63, 0
2, 127894, Note_on_c, 0, 58, 0
2, 127897, Note_on_c, 0, 68, 56
2, 127906, Note_on_c, 0, 56, 37
2, 127912, Note_on_c, 0, 63, 18
2, 127916, Note_on_c, 0, 59, 36
2, 127956, Note_on_c, 0, 59, 0
2, 127978, Note_on_c, 0, 68, 0
2, 127991, Note_on_c, 0, 63, 0
2, 128012, Note_on_c, 0, 56, 0
2, 128283, Control_c, 0, 64, 127
2, 128480, Control_c, 0, 64, 0
2, 128565, Note_on_c, 0, 57, 74
2, 128614, Note_on_c, 0, 57, 0
2, 128682, Note_on_c, 0, 58, 33
2, 128739, Note_on_c, 0, 58, 0
2, 128762, Note_on_c, 0, 60, 64
2, 128790, Note_on_c, 0, 51, 27
2, 128806, Note_on_c, 0, 60, 0
2, 128812, Note_on_c, 0, 51, 0
2, 128846, Note_on_c, 0, 61, 40
2, 128926, Note_on_c, 0, 61, 0
2, 128949, Note_on_c, 0, 63, 55
2, 128987, Note_on_c, 0, 63, 0
2, 129042, Note_on_c, 0, 44, 37
2, 129140, Note_on_c, 0, 44, 0
2, 129171, Note_on_c, 0, 67, 20
2, 129197, Control_c, 0, 64, 127
2, 129234, Note_on_c, 0, 67, 0
2, 129256, Note_on_c, 0, 70, 51
2, 129306, Note_on_c, 0, 70, 0
2, 129347, Note_on_c, 0, 72, 66
2, 129366, Control_c, 0, 64, 0
2, 129383, Note_on_c, 0, 58, 45
2, 129384, Note_on_c, 0, 63, 39
2, 129386, Note_on_c, 0, 53, 30
2, 129400, Note_on_c, 0, 72, 0
2, 129441, Note_on_c, 0, 75, 38
2, 129493, Note_on_c, 0, 75, 0
2, 129520, Note_on_c, 0, 77, 50
2, 129534, Note_on_c, 0, 53, 0
2, 129548, Note_on_c, 0, 58, 0
2, 129561, Note_on_c, 0, 63, 0
2, 129562, Note_on_c, 0, 77, 0
2, 129595, Note_on_c, 0, 79, 55
2, 129621, Note_on_c, 0, 79, 0
2, 129683, Control_c, 0, 64, 127
2, 129684, Note_on_c, 0, 80, 77
2, 129711, Control_c, 0, 64, 0
2, 129736, Note_on_c, 0, 80, 0
2, 129760, Note_on_c, 0, 62, 44
2, 129765, Note_on_c, 0, 67, 35
2, 129767, Note_on_c, 0, 56, 34
2, 129777, Note_on_c, 0, 82, 65
2, 129875, Note_on_c, 0, 82, 0
2, 129929, Note_on_c, 0, 84, 61
2, 129935, Note_on_c, 0, 72, 44
2, 129937, Note_on_c, 0, 67, 0
2, 129969, Note_on_c, 0, 72, 0
2, 129973, Note_on_c, 0, 84, 0
2, 129987, Note_on_c, 0, 56, 0
2, 130017, Note_on_c, 0, 62, 0
2, 130061, Note_on_c, 0, 73, 69
2, 130062, Note_on_c, 0, 85, 72
2, 130066, Note_on_c, 0, 62, 44
2, 130067, Note_on_c, 0, 66, 53
2, 130068, Note_on_c, 0, 56, 52
2, 130097, Note_on_c, 0, 73, 0
2, 130111, Note_on_c, 0, 85, 0
2, 130123, Note_on_c, 0, 66, 0
2, 130164, Note_on_c, 0, 85, 50
2, 130169, Note_on_c, 0, 73, 64
2, 130177, Note_on_c, 0, 66, 56
2, 130183, Note_on_c, 0, 79, 39
2, 130193, Note_on_c, 0, 82, 30
2, 130194, Note_on_c, 0, 86, 64
2, 130200, Note_on_c, 0, 73, 0
2, 130204, Note_on_c, 0, 74, 62
2, 130213, Note_on_c, 0, 85, 0
2, 130219, Note_on_c, 0, 84, 28
2, 130244, Note_on_c, 0, 84, 0
2, 130263, Note_on_c, 0, 74, 0
2, 130264, Note_on_c, 0, 86, 0
2, 130274, Note_on_c, 0, 66, 0
2, 130288, Note_on_c, 0, 56, 0
2, 130297, Note_on_c, 0, 79, 0
2, 130300, Note_on_c, 0, 82, 0
2, 130337, Note_on_c, 0, 56, 48
2, 130339, Note_on_c, 0, 66, 50
2, 130344, Note_on_c, 0, 84, 58
2, 130356, Note_on_c, 0, 72, 44
2, 130392, Note_on_c, 0, 84, 0
2, 130401, Note_on_c, 0, 66, 0
2, 130406, Control_c, 0, 64, 127
2, 130408, Note_on_c, 0, 72, 0
2, 130425, Note_on_c, 0, 62, 0
2, 130433, Note_on_c, 0, 56, 0
2, 130473, Control_c, 0, 64, 0
2, 130480, Note_on_c, 0, 62, 31
2, 130484, Note_on_c, 0, 82, 54
2, 130486, Note_on_c, 0, 65, 52
2, 130486, Note_on_c, 0, 70, 47
2, 130497, Note_on_c, 0, 60, 44
2, 130504, Note_on_c, 0, 55, 48
2, 130744, Control_c, 0, 64, 127
2, 130974, Note_on_c, 0, 82, 0
2, 130992, Note_on_c, 0, 60, 0
2, 130992, Note_on_c, 0, 65, 0
2, 131004, Note_on_c, 0, 70, 0
2, 131013, Note_on_c, 0, 62, 0
2, 131033, Note_on_c, 0, 55, 0
2, 131129, Note_on_c, 0, 79, 48
2, 131130, Note_on_c, 0, 67, 38
2, 131133, Control_c, 0, 64, 0
2, 131135, Note_on_c, 0, 62, 38
2, 131137, Note_on_c, 0, 65, 47
2, 131141, Note_on_c, 0, 60, 48
2, 131149, Note_on_c, 0, 55, 25
2, 131343, Control_c, 0, 64, 127
2, 131529, Note_on_c, 0, 79, 0
2, 131536, Note_on_c, 0, 65, 0
2, 131566, Note_on_c, 0, 60, 0
2, 131592, Note_on_c, 0, 67, 0
2, 131595, Note_on_c, 0, 62, 0
2, 131720, Note_on_c, 0, 75, 48
2, 131721, Note_on_c, 0, 62, 29
2, 131723, Note_on_c, 0, 70, 44
2, 131724, Note_on_c, 0, 67, 30
2, 131724, Note_on_c, 0, 65, 38
2, 131744, Note_on_c, 0, 60, 26
2, 131796, Note_on_c, 0, 67, 0
2, 131823, Note_on_c, 0, 70, 0
2, 131849, Note_on_c, 0, 65, 0
2, 131850, Note_on_c, 0, 75, 0
2, 131867, Note_on_c, 0, 55, 0
2, 131872, Note_on_c, 0, 62, 0
2, 131876, Note_on_c, 0, 60, 0
2, 132102, Note_on_c, 0, 63, 40
2, 132108, Note_on_c, 0, 91, 45
2, 132110, Note_on_c, 0, 79, 46
2, 132110, Note_on_c, 0, 87, 33
2, 132111, Note_on_c, 0, 67, 31
2, 132112, Control_c, 0, 64, 0
2, 132113, Note_on_c, 0, 84, 46
2, 132121, Note_on_c, 0, 56, 30
2, 132187, Note_on_c, 0, 60, 14
2, 132264, Control_c, 0, 64, 127
2, 132433, Note_on_c, 0, 79, 0
2, 132446, Note_on_c, 0, 84, 0
2, 132490, Note_on_c, 0, 87, 0
2, 132492, Note_on_c, 0, 91, 0
2, 132539, Note_on_c, 0, 67, 0
2, 132541, Note_on_c, 0, 60, 0
2, 132570, Note_on_c, 0, 63, 0
2, 132570, Note_on_c, 0, 56, 0
2, 132688, Note_on_c, 0, 94, 88
2, 132694, Control_c, 0, 64, 0
2, 132991, Note_on_c, 0, 62, 40
2, 132992, Note_on_c, 0, 66, 55
2, 132993, Note_on_c, 0, 91, 65
2, 133001, Note_on_c, 0, 56, 37
2, 133030, Note_on_c, 0, 94, 0
2, 133209, Note_on_c, 0, 91, 0
2, 133260, Note_on_c, 0, 89, 55
2, 133298, Note_on_c, 0, 89, 0
2, 133332, Note_on_c, 0, 66, 0
2, 133410, Note_on_c, 0, 62, 0
2, 133435, Note_on_c, 0, 66, 42
2, 133443, Note_on_c, 0, 87, 74
2, 133494, Note_on_c, 0, 87, 0
2, 133499, Note_on_c, 0, 66, 0
2, 133541, Note_on_c, 0, 56, 0
2, 133623, Note_on_c, 0, 62, 24
2, 133625, Note_on_c, 0, 65, 38
2, 133631, Note_on_c, 0, 86, 76
2, 133641, Note_on_c, 0, 55, 37
2, 133644, Note_on_c, 0, 60, 31
2, 133677, Note_on_c, 0, 86, 0
2, 133742, Note_on_c, 0, 87, 60
2, 133747, Note_on_c, 0, 65, 0
2, 133787, Note_on_c, 0, 87, 0
2, 133804, Note_on_c, 0, 55, 0
2, 133805, Note_on_c, 0, 60, 0
2, 133821, Note_on_c, 0, 89, 56
2, 133833, Note_on_c, 0, 62, 0
2, 133883, Note_on_c, 0, 89, 0
2, 133925, Note_on_c, 0, 62, 32
2, 133933, Note_on_c, 0, 86, 66
2, 133958, Note_on_c, 0, 86, 0
2, 133977, Note_on_c, 0, 62, 0
2, 134109, Note_on_c, 0, 82, 62
2, 134177, Note_on_c, 0, 82, 0
2, 134195, Note_on_c, 0, 79, 38
2, 134344, Note_on_c, 0, 79, 0
2, 134383, Note_on_c, 0, 63, 29
2, 134387, Note_on_c, 0, 58, 42
2, 134394, Note_on_c, 0, 52, 31
2, 134427, Note_on_c, 0, 52, 0
2, 134437, Note_on_c, 0, 63, 0
2, 134447, Note_on_c, 0, 58, 0
2, 134678, Note_on_c, 0, 63, 46
2, 134701, Note_on_c, 0, 58, 48
2, 134702, Note_on_c, 0, 52, 19
2, 134705, Note_on_c, 0, 63, 0
2, 134720, Note_on_c, 0, 52, 0
2, 134736, Note_on_c, 0, 58, 0
2, 134867, Note_on_c, 0, 87, 62
2, 134913, Note_on_c, 0, 87, 0
2, 134953, Note_on_c, 0, 88, 76
2, 135020, Note_on_c, 0, 88, 0
2, 135058, Note_on_c, 0, 87, 76
2, 135063, Note_on_c, 0, 67, 43
2, 135065, Note_on_c, 0, 63, 51
2, 135073, Note_on_c, 0, 56, 31
2, 135077, Note_on_c, 0, 60, 51
2, 135095, Note_on_c, 0, 60, 0
2, 135103, Note_on_c, 0, 67, 0
2, 135117, Note_on_c, 0, 56, 0
2, 135120, Note_on_c, 0, 87, 0
2, 135130, Note_on_c, 0, 63, 0
2, 135166, Note_on_c, 0, 85, 45
2, 135245, Note_on_c, 0, 85, 0
2, 135266, Note_on_c, 0, 84, 55
2, 135301, Note_on_c, 0, 84, 0
2, 135356, Note_on_c, 0, 82, 32
2, 135449, Note_on_c, 0, 82, 0
2, 135460, Note_on_c, 0, 80, 62
2, 135502, Note_on_c, 0, 80, 0
2, 135511, Note_on_c, 0, 63, 30
2, 135527, Note_on_c, 0, 67, 17
2, 135534, Note_on_c, 0, 56, 29
2, 135537, Note_on_c, 0, 60, 33
2, 135569, Note_on_c, 0, 79, 31
2, 135630, Note_on_c, 0, 79, 0
2, 135642, Note_on_c, 0, 67, 0
2, 135669, Note_on_c, 0, 56, 0
2, 135717, Note_on_c, 0, 63, 0
2, 135748, Note_on_c, 0, 82, 83
2, 135773, Note_on_c, 0, 60, 0
2, 135854, Note_on_c, 0, 82, 0
2, 135936, Note_on_c, 0, 62, 40
2, 135945, Note_on_c, 0, 79, 66
2, 135945, Note_on_c, 0, 66, 37
2, 135951, Note_on_c, 0, 56, 40
2, 136023, Note_on_c, 0, 79, 0
2, 136054, Note_on_c, 0, 66, 0
2, 136064, Note_on_c, 0, 77, 36
2, 136096, Note_on_c, 0, 77, 0
2, 136099, Note_on_c, 0, 56, 0
2, 136145, Note_on_c, 0, 62, 0
2, 136232, Note_on_c, 0, 75, 75
2, 136238, Note_on_c, 0, 62, 49
2, 136251, Note_on_c, 0, 66, 49
2, 136254, Note_on_c, 0, 56, 42
2, 136295, Note_on_c, 0, 75, 0
2, 136363, Note_on_c, 0, 74, 60
2, 136479, Note_on_c, 0, 74, 0
2, 136513, Note_on_c, 0, 66, 0
2, 136558, Note_on_c, 0, 62, 0
2, 136558, Note_on_c, 0, 77, 62
2, 136583, Note_on_c, 0, 77, 0
2, 136590, Note_on_c, 0, 56, 0
2, 136630, Note_on_c, 0, 62, 22
2, 136633, Note_on_c, 0, 65, 33
2, 136637, Note_on_c, 0, 74, 60
2, 136649, Note_on_c, 0, 55, 36
2, 136657, Note_on_c, 0, 60, 29
2, 136681, Note_on_c, 0, 74, 0
2, 136682, Note_on_c, 0, 60, 0
2, 136687, Note_on_c, 0, 65, 0
2, 136724, Note_on_c, 0, 62, 0
2, 136755, Note_on_c, 0, 55, 0
2, 136797, Note_on_c, 0, 70, 68
2, 136821, Note_on_c, 0, 62, 7
2, 136852, Note_on_c, 0, 70, 0
2, 136918, Note_on_c, 0, 62, 0
2, 137009, Note_on_c, 0, 62, 15
2, 137014, Note_on_c, 0, 60, 42
2, 137068, Note_on_c, 0, 70, 86
2, 137104, Note_on_c, 0, 62, 0
2, 137124, Note_on_c, 0, 60, 0
2, 137259, Note_on_c, 0, 67, 56
2, 137262, Note_on_c, 0, 70, 0
2, 137328, Note_on_c, 0, 67, 0
2, 137447, Note_on_c, 0, 66, 60
2, 137459, Note_on_c, 0, 58, 33
2, 137460, Note_on_c, 0, 63, 35
2, 137466, Note_on_c, 0, 52, 36
2, 137485, Note_on_c, 0, 67, 48
2, 137509, Note_on_c, 0, 66, 0
2, 137533, Note_on_c, 0, 67, 0
2, 137548, Note_on_c, 0, 63, 0
2, 137623, Note_on_c, 0, 58, 0
2, 137638, Note_on_c, 0, 52, 0
2, 137650, Note_on_c, 0, 64, 50
2, 137730, Note_on_c, 0, 64, 0
2, 137840, Note_on_c, 0, 63, 51
2, 137916, Note_on_c, 0, 63, 0
2, 137949, Note_on_c, 0, 61, 53
2, 137970, Note_on_c, 0, 42, 32
2, 138017, Note_on_c, 0, 61, 0
2, 138042, Note_on_c, 0, 60, 37
2, 138101, Note_on_c, 0, 42, 0
2, 138109, Control_c, 0, 64, 127
2, 138132, Note_on_c, 0, 60, 0
2, 138137, Note_on_c, 0, 58, 52
2, 138189, Control_c, 0, 64, 0
2, 138235, Note_on_c, 0, 58, 0
2, 138237, Note_on_c, 0, 41, 34
2, 138239, Note_on_c, 0, 56, 57
2, 138299, Note_on_c, 0, 51, 1
2, 138671, Note_on_c, 0, 51, 0
2, 138707, Note_on_c, 0, 56, 0
2, 138714, Note_on_c, 0, 41, 0
2, 138722, Note_on_c, 0, 53, 67
2, 138781, Note_on_c, 0, 53, 0
2, 138831, Note_on_c, 0, 55, 35
2, 138867, Note_on_c, 0, 55, 0
2, 138918, Note_on_c, 0, 56, 75
2, 138984, Note_on_c, 0, 56, 0
2, 139018, Note_on_c, 0, 58, 69
2, 139034, Note_on_c, 0, 46, 34
2, 139110, Note_on_c, 0, 58, 0
2, 139126, Note_on_c, 0, 55, 51
2, 139208, Note_on_c, 0, 55, 0
2, 139226, Note_on_c, 0, 56, 32
2, 139302, Note_on_c, 0, 56, 0
2, 139316, Note_on_c, 0, 58, 52
2, 139383, Note_on_c, 0, 58, 0
2, 139409, Note_on_c, 0, 60, 33
2, 139451, Note_on_c, 0, 46, 0
2, 139484, Note_on_c, 0, 60, 0
2, 139514, Note_on_c, 0, 61, 31
2, 139553, Note_on_c, 0, 61, 0
2, 139586, Note_on_c, 0, 62, 38
2, 139634, Note_on_c, 0, 62, 0
2, 139697, Note_on_c, 0, 65, 55
2, 139744, Note_on_c, 0, 62, 17
2, 139753, Control_c, 0, 64, 127
2, 139765, Note_on_c, 0, 65, 0
2, 139795, Note_on_c, 0, 70, 52
2, 139805, Note_on_c, 0, 62, 0
2, 139815, Control_c, 0, 64, 0
2, 139839, Note_on_c, 0, 70, 0
2, 139873, Note_on_c, 0, 62, 28
2, 139894, Note_on_c, 0, 72, 41
2, 139900, Note_on_c, 0, 74, 47
2, 139935, Note_on_c, 0, 72, 0
2, 139948, Note_on_c, 0, 74, 0
2, 139989, Note_on_c, 0, 77, 50
2, 140005, Note_on_c, 0, 62, 0
2, 140082, Note_on_c, 0, 82, 70
2, 140085, Note_on_c, 0, 77, 0
2, 140102, Note_on_c, 0, 62, 33
2, 140115, Note_on_c, 0, 65, 39
2, 140120, Note_on_c, 0, 82, 0
2, 140127, Note_on_c, 0, 60, 24
2, 140137, Note_on_c, 0, 65, 0
2, 140159, Note_on_c, 0, 60, 0
2, 140173, Note_on_c, 0, 84, 65
2, 140224, Note_on_c, 0, 62, 0
2, 140239, Note_on_c, 0, 84, 0
2, 140270, Note_on_c, 0, 89, 59
2, 140320, Note_on_c, 0, 89, 0
2, 140353, Note_on_c, 0, 94, 60
2, 140430, Note_on_c, 0, 94, 0
2, 140460, Note_on_c, 0, 96, 82
2, 140552, Note_on_c, 0, 94, 69
2, 140554, Note_on_c, 0, 96, 0
2, 140632, Note_on_c, 0, 94, 0
2, 140741, Note_on_c, 0, 63, 37
2, 140755, Note_on_c, 0, 58, 36
2, 140761, Note_on_c, 0, 52, 44
2, 140970, Note_on_c, 0, 52, 0
2, 140976, Note_on_c, 0, 63, 0
2, 140987, Note_on_c, 0, 58, 0
2, 141031, Note_on_c, 0, 58, 29
2, 141037, Note_on_c, 0, 62, 37
2, 141059, Note_on_c, 0, 62, 0
2, 141090, Note_on_c, 0, 58, 0
2, 141317, Control_c, 0, 64, 127
2, 141496, Note_on_c, 0, 60, 58
2, 141501, Note_on_c, 0, 87, 57
2, 141503, Note_on_c, 0, 63, 59
2, 141504, Note_on_c, 0, 91, 64
2, 141505, Note_on_c, 0, 84, 66
2, 141505, Note_on_c, 0, 79, 66
2, 141507, Note_on_c, 0, 55, 47
2, 141526, Note_on_c, 0, 57, 36
2, 141531, Control_c, 0, 64, 0
2, 141621, Note_on_c, 0, 79, 0
2, 141623, Note_on_c, 0, 84, 0
2, 141627, Control_c, 0, 64, 127
2, 141638, Note_on_c, 0, 87, 0
2, 141656, Note_on_c, 0, 91, 0
2, 141665, Note_on_c, 0, 57, 0
2, 141675, Note_on_c, 0, 63, 0
2, 141686, Note_on_c, 0, 55, 0
2, 141710, Note_on_c, 0, 60, 0
2, 141800, Note_on_c, 0, 96, 78
2, 141804, Note_on_c, 0, 63, 69
2, 141806, Note_on_c, 0, 55, 64
2, 141807, Note_on_c, 0, 91, 66
2, 141811, Note_on_c, 0, 84, 67
2, 141813, Note_on_c, 0, 60, 60
2, 141820, Control_c, 0, 64, 0
2, 141891, Note_on_c, 0, 84, 0
2, 141893, Control_c, 0, 64, 127
2, 141908, Note_on_c, 0, 91, 0
2, 141922, Note_on_c, 0, 55, 0
2, 141924, Note_on_c, 0, 96, 0
2, 141938, Note_on_c, 0, 63, 0
2, 141950, Note_on_c, 0, 60, 0
2, 142071, Note_on_c, 0, 87, 78
2, 142071, Note_on_c, 0, 99, 78
2, 142072, Note_on_c, 0, 65, 72
2, 142074, Note_on_c, 0, 60, 66
2, 142076, Note_on_c, 0, 94, 69
2, 142078, Note_on_c, 0, 54, 65
2, 142079, Note_on_c, 0, 58, 52
2, 142090, Control_c, 0, 64, 0
2, 142204, Control_c, 0, 64, 127
2, 142253, Note_on_c, 0, 94, 0
2, 142265, Note_on_c, 0, 87, 0
2, 142279, Note_on_c, 0, 99, 0
2, 142288, Note_on_c, 0, 65, 0
2, 142301, Note_on_c, 0, 54, 0
2, 142309, Note_on_c, 0, 60, 0
2, 142314, Note_on_c, 0, 58, 0
2, 142374, Note_on_c, 0, 101, 79
2, 142378, Note_on_c, 0, 58, 54
2, 142379, Note_on_c, 0, 96, 71
2, 142381, Note_on_c, 0, 65, 72
2, 142382, Note_on_c, 0, 89, 55
2, 142382, Note_on_c, 0, 60, 65
2, 142384, Note_on_c, 0, 54, 67
2, 142387, Note_on_c, 0, 99, 46
2, 142412, Control_c, 0, 64, 0
2, 142445, Note_on_c, 0, 99, 0
2, 142468, Note_on_c, 0, 101, 0
2, 142483, Note_on_c, 0, 96, 0
2, 142523, Note_on_c, 0, 89, 0
2, 142536, Control_c, 0, 64, 127
2, 142544, Note_on_c, 0, 65, 0
2, 142547, Note_on_c, 0, 60, 0
2, 142606, Note_on_c, 0, 54, 0
2, 142611, Note_on_c, 0, 58, 0
2, 142650, Control_c, 0, 64, 0
2, 142660, Note_on_c, 0, 98, 75
2, 142661, Note_on_c, 0, 86, 69
2, 142664, Note_on_c, 0, 95, 71
2, 142668, Note_on_c, 0, 59, 66
2, 142668, Note_on_c, 0, 62, 66
2, 142675, Note_on_c, 0, 54, 58
2, 142813, Control_c, 0, 64, 127
2, 142842, Note_on_c, 0, 98, 0
2, 142882, Note_on_c, 0, 95, 0
2, 142904, Note_on_c, 0, 86, 0
2, 142946, Note_on_c, 0, 62, 0
2, 142956, Note_on_c, 0, 54, 0
2, 142961, Note_on_c, 0, 59, 0
2, 143043, Note_on_c, 0, 90, 60
2, 143044, Note_on_c, 0, 95, 74
2, 143045, Note_on_c, 0, 83, 66
2, 143049, Note_on_c, 0, 59, 62
2, 143050, Note_on_c, 0, 62, 64
2, 143052, Note_on_c, 0, 54, 64
2, 143072, Control_c, 0, 64, 0
2, 143166, Note_on_c, 0, 95, 0
2, 143176, Note_on_c, 0, 90, 0
2, 143180, Control_c, 0, 64, 127
2, 143215, Note_on_c, 0, 83, 0
2, 143251, Note_on_c, 0, 54, 0
2, 143256, Note_on_c, 0, 62, 0
2, 143258, Note_on_c, 0, 59, 0
2, 143350, Note_on_c, 0, 90, 60
2, 143354, Note_on_c, 0, 78, 52
2, 143356, Note_on_c, 0, 54, 64
2, 143359, Note_on_c, 0, 62, 57
2, 143362, Note_on_c, 0, 59, 55
2, 143389, Control_c, 0, 64, 0
2, 143444, Note_on_c, 0, 90, 0
2, 143445, Note_on_c, 0, 78, 0
2, 143462, Control_c, 0, 64, 127
2, 143522, Note_on_c, 0, 62, 0
2, 143556, Note_on_c, 0, 59, 0
2, 143597, Note_on_c, 0, 54, 0
2, 143795, Control_c, 0, 64, 0
2, 143802, Note_on_c, 0, 63, 76
2, 143805, Note_on_c, 0, 70, 73
2, 143811, Note_on_c, 0, 59, 74
2, 143813, Note_on_c, 0, 58, 90
2, 143814, Note_on_c, 0, 65, 64
2, 143965, Control_c, 0, 64, 127
2, 144032, Note_on_c, 0, 65, 0
2, 144038, Note_on_c, 0, 59, 0
2, 144043, Note_on_c, 0, 63, 0
2, 144071, Note_on_c, 0, 70, 0
2, 144094, Note_on_c, 0, 58, 0
2, 144103, Note_on_c, 0, 68, 51
2, 144106, Note_on_c, 0, 59, 51
2, 144108, Note_on_c, 0, 63, 38
2, 144110, Note_on_c, 0, 56, 52
2, 144119, Note_on_c, 0, 65, 32
2, 144129, Control_c, 0, 64, 0
2, 144191, Control_c, 0, 64, 127
2, 144215, Note_on_c, 0, 65, 0
2, 144215, Note_on_c, 0, 68, 0
2, 144272, Note_on_c, 0, 63, 0
2, 144288, Note_on_c, 0, 59, 0
2, 144291, Note_on_c, 0, 56, 0
2, 144372, Note_on_c, 0, 55, 42
2, 144376, Note_on_c, 0, 67, 41
2, 144378, Control_c, 0, 64, 0
2, 144379, Note_on_c, 0, 62, 44
2, 144381, Note_on_c, 0, 58, 45
2, 144385, Note_on_c, 0, 48, 44
2, 144391, Note_on_c, 0, 63, 42
2, 144666, Note_on_c, 0, 62, 0
2, 144703, Note_on_c, 0, 67, 0
2, 144723, Note_on_c, 0, 63, 0
2, 144779, Note_on_c, 0, 65, 56
2, 144782, Note_on_c, 0, 62, 48
2, 144849, Note_on_c, 0, 62, 0
2, 144858, Note_on_c, 0, 65, 0
2, 144896, Note_on_c, 0, 63, 30
2, 144940, Note_on_c, 0, 63, 0
2, 145032, Note_on_c, 0, 55, 0
2, 145070, Note_on_c, 0, 62, 53
2, 145073, Note_on_c, 0, 65, 46
2, 145106, Note_on_c, 0, 62, 0
2, 145118, Note_on_c, 0, 65, 0
2, 145194, Note_on_c, 0, 58, 0
2, 145250, Note_on_c, 0, 55, 19
2, 145265, Note_on_c, 0, 62, 66
2, 145275, Note_on_c, 0, 65, 53
2, 145277, Note_on_c, 0, 58, 34
2, 145282, Note_on_c, 0, 55, 0
2, 145298, Note_on_c, 0, 65, 0
2, 145308, Note_on_c, 0, 62, 0
2, 145341, Note_on_c, 0, 58, 0
2, 145434, Note_on_c, 0, 63, 49
2, 145451, Note_on_c, 0, 55, 41
2, 145458, Note_on_c, 0, 60, 33
2, 145477, Note_on_c, 0, 60, 0
2, 145485, Note_on_c, 0, 63, 0
2, 145533, Note_on_c, 0, 62, 60
2, 145533, Note_on_c, 0, 58, 45
2, 145535, Note_on_c, 0, 55, 0
2, 145536, Note_on_c, 0, 65, 51
2, 145571, Note_on_c, 0, 48, 0
2, 145619, Note_on_c, 0, 58, 0
2, 145683, Note_on_c, 0, 65, 0
2, 145687, Note_on_c, 0, 62, 0
2, 145725, Note_on_c, 0, 48, 44
2, 145730, Note_on_c, 0, 60, 37
2, 145734, Note_on_c, 0, 63, 39
2, 145754, Note_on_c, 0, 48, 0
2, 145805, Note_on_c, 0, 60, 0
2, 145875, Note_on_c, 0, 63, 0
2, 145917, Note_on_c, 0, 62, 32
2, 145928, Note_on_c, 0, 47, 29
2, 145928, Note_on_c, 0, 59, 36
2, 145929, Note_on_c, 0, 55, 35
2, 146036, Note_on_c, 0, 59, 0
2, 146093, Control_c, 0, 64, 127
2, 146099, Note_on_c, 0, 62, 0
2, 146171, Note_on_c, 0, 47, 0
2, 146191, Note_on_c, 0, 55, 0
2, 146415, Control_c, 0, 64, 0
2, 146428, Note_on_c, 0, 56, 34
2, 146430, Note_on_c, 0, 62, 26
2, 146438, Note_on_c, 0, 59, 35
2, 146448, Note_on_c, 0, 53, 22
2, 146772, Note_on_c, 0, 65, 55
2, 146804, Note_on_c, 0, 65, 0
2, 146830, Note_on_c, 0, 62, 0
2, 146863, Note_on_c, 0, 68, 43
2, 146880, Note_on_c, 0, 59, 0
2, 146937, Note_on_c, 0, 68, 0
2, 146957, Note_on_c, 0, 70, 52
2, 146997, Note_on_c, 0, 70, 0
2, 147031, Note_on_c, 0, 62, 18
2, 147038, Note_on_c, 0, 71, 41
2, 147064, Note_on_c, 0, 71, 0
2, 147073, Note_on_c, 0, 62, 0
2, 147141, Note_on_c, 0, 74, 53
2, 147165, Note_on_c, 0, 74, 0
2, 147177, Note_on_c, 0, 53, 0
2, 147196, Note_on_c, 0, 56, 0
2, 147247, Note_on_c, 0, 77, 30
2, 147273, Note_on_c, 0, 77, 0
2, 147337, Note_on_c, 0, 80, 57
2, 147378, Note_on_c, 0, 80, 0
2, 147450, Note_on_c, 0, 83, 43
2, 147471, Note_on_c, 0, 83, 0
2, 147538, Note_on_c, 0, 74, 68
2, 147540, Note_on_c, 0, 86, 64
2, 147551, Note_on_c, 0, 84, 51
2, 147576, Note_on_c, 0, 84, 0
2, 147579, Note_on_c, 0, 86, 0
2, 147581, Note_on_c, 0, 74, 0
2, 147631, Note_on_c, 0, 73, 67
2, 147665, Note_on_c, 0, 85, 15
2, 147669, Note_on_c, 0, 86, 35
2, 147679, Note_on_c, 0, 84, 15
2, 147692, Note_on_c, 0, 85, 0
2, 147702, Note_on_c, 0, 74, 70
2, 147703, Note_on_c, 0, 73, 0
2, 147774, Note_on_c, 0, 86, 0
2, 147776, Note_on_c, 0, 74, 0
2, 147804, Note_on_c, 0, 63, 23
2, 147809, Note_on_c, 0, 84, 0
2, 147839, Note_on_c, 0, 63, 0
2, 147847, Note_on_c, 0, 73, 53
2, 147864, Note_on_c, 0, 86, 48
2, 147871, Note_on_c, 0, 84, 31
2, 147888, Note_on_c, 0, 73, 0
2, 147890, Note_on_c, 0, 74, 65
2, 147970, Note_on_c, 0, 86, 0
2, 147974, Note_on_c, 0, 84, 0
2, 147985, Note_on_c, 0, 63, 25
2, 147990, Note_on_c, 0, 74, 0
2, 147996, Note_on_c, 0, 62, 25
2, 148010, Note_on_c, 0, 63, 0
2, 148027, Note_on_c, 0, 62, 0
2, 148041, Note_on_c, 0, 84, 59
2, 148054, Note_on_c, 0, 72, 49
2, 148123, Note_on_c, 0, 72, 0
2, 148124, Note_on_c, 0, 84, 0
2, 148236, Note_on_c, 0, 63, 31
2, 148240, Note_on_c, 0, 67, 24
2, 148240, Note_on_c, 0, 84, 66
2, 148244, Note_on_c, 0, 58, 27
2, 148245, Note_on_c, 0, 62, 27
2, 148249, Note_on_c, 0, 72, 41
2, 148414, Note_on_c, 0, 62, 0
2, 148432, Note_on_c, 0, 67, 0
2, 148441, Note_on_c, 0, 72, 0
2, 148443, Note_on_c, 0, 58, 0
2, 148444, Note_on_c, 0, 63, 0
2, 148448, Note_on_c, 0, 84, 0
2, 148450, Control_c, 0, 64, 127
2, 148521, Note_on_c, 0, 84, 40
2, 148524, Note_on_c, 0, 72, 56
2, 148533, Note_on_c, 0, 58, 37
2, 148536, Note_on_c, 0, 63, 32
2, 148536, Note_on_c, 0, 67, 34
2, 148566, Note_on_c, 0, 67, 0
2, 148586, Note_on_c, 0, 63, 0
2, 148601, Note_on_c, 0, 58, 0
2, 148794, Control_c, 0, 64, 0
2, 148823, Note_on_c, 0, 63, 39
2, 148825, Note_on_c, 0, 60, 30
2, 148851, Note_on_c, 0, 60, 0
2, 148890, Control_c, 0, 64, 127
2, 148894, Note_on_c, 0, 63, 0
2, 148986, Control_c, 0, 64, 0
2, 149007, Note_on_c, 0, 60, 53
2, 149008, Note_on_c, 0, 63, 43
2, 149016, Note_on_c, 0, 56, 38
2, 149021, Note_on_c, 0, 84, 0
2, 149028, Note_on_c, 0, 53, 29
2, 149053, Note_on_c, 0, 72, 0
2, 149155, Control_c, 0, 64, 127
2, 149298, Note_on_c, 0, 63, 0
2, 149342, Note_on_c, 0, 60, 0
2, 149396, Note_on_c, 0, 56, 0
2, 149487, Note_on_c, 0, 53, 0
2, 149503, Note_on_c, 0, 55, 66
2, 149546, Note_on_c, 0, 55, 0
2, 149571, Note_on_c, 0, 56, 44
2, 149584, Control_c, 0, 64, 0
2, 149597, Note_on_c, 0, 56, 0
2, 149644, Note_on_c, 0, 60, 70
2, 149688, Note_on_c, 0, 60, 0
2, 149703, Note_on_c, 0, 63, 77
2, 149742, Note_on_c, 0, 63, 0
2, 149780, Note_on_c, 0, 66, 75
2, 149801, Note_on_c, 0, 67, 70
2, 149807, Note_on_c, 0, 66, 0
2, 149829, Note_on_c, 0, 67, 0
2, 149914, Note_on_c, 0, 68, 83
2, 149978, Note_on_c, 0, 68, 0
2, 150056, Note_on_c, 0, 70, 82
2, 150113, Note_on_c, 0, 70, 0
2, 150132, Control_c, 0, 64, 127
2, 150175, Note_on_c, 0, 72, 70
2, 150243, Note_on_c, 0, 72, 0
2, 150274, Note_on_c, 0, 63, 46
2, 150285, Control_c, 0, 64, 0
2, 150307, Note_on_c, 0, 56, 23
2, 150315, Note_on_c, 0, 63, 0
2, 150322, Note_on_c, 0, 70, 52
2, 150330, Note_on_c, 0, 56, 0
2, 150384, Note_on_c, 0, 70, 0
2, 150440, Note_on_c, 0, 68, 74
2, 150456, Note_on_c, 0, 62, 35
2, 150469, Note_on_c, 0, 56, 25
2, 150504, Note_on_c, 0, 68, 0
2, 150537, Note_on_c, 0, 56, 0
2, 150571, Note_on_c, 0, 67, 50
2, 150607, Control_c, 0, 64, 127
2, 150635, Note_on_c, 0, 62, 0
2, 150640, Control_c, 0, 64, 0
2, 150674, Note_on_c, 0, 67, 0
2, 150711, Note_on_c, 0, 68, 63
2, 150780, Note_on_c, 0, 68, 0
2, 150842, Note_on_c, 0, 65, 54
2, 150945, Control_c, 0, 64, 127
2, 151005, Note_on_c, 0, 62, 60
2, 151013, Control_c, 0, 64, 0
2, 151025, Note_on_c, 0, 56, 30
2, 151026, Note_on_c, 0, 62, 0
2, 151061, Note_on_c, 0, 56, 0
2, 151199, Control_c, 0, 64, 127
2, 151208, Note_on_c, 0, 68, 74
2, 151234, Note_on_c, 0, 65, 0
2, 151277, Note_on_c, 0, 68, 0
2, 151302, Control_c, 0, 64, 0
2, 151321, Note_on_c, 0, 56, 23
2, 151329, Note_on_c, 0, 67, 61
2, 151331, Note_on_c, 0, 47, 34
2, 151468, Note_on_c, 0, 67, 0
2, 151510, Note_on_c, 0, 68, 47
2, 151539, Note_on_c, 0, 56, 0
2, 151579, Note_on_c, 0, 68, 0
2, 151626, Note_on_c, 0, 65, 53
2, 151652, Note_on_c, 0, 56, 25
2, 151679, Control_c, 0, 64, 127
2, 151795, Note_on_c, 0, 47, 0
2, 151797, Control_c, 0, 64, 0
2, 151811, Note_on_c, 0, 68, 78
2, 151822, Note_on_c, 0, 56, 0
2, 151839, Note_on_c, 0, 65, 0
2, 151890, Note_on_c, 0, 68, 0
2, 151916, Note_on_c, 0, 67, 55
2, 152047, Note_on_c, 0, 67, 0
2, 152097, Note_on_c, 0, 70, 81
2, 152110, Note_on_c, 0, 43, 26
2, 152136, Note_on_c, 0, 43, 0
2, 152184, Note_on_c, 0, 70, 0
2, 152383, Note_on_c, 0, 55, 60
2, 152401, Note_on_c, 0, 55, 0
2, 152567, Note_on_c, 0, 61, 50
2, 152617, Note_on_c, 0, 61, 0
2, 152669, Note_on_c, 0, 65, 37
2, 152706, Control_c, 0, 64, 127
2, 152728, Note_on_c, 0, 65, 0
2, 152764, Note_on_c, 0, 67, 62
2, 152797, Control_c, 0, 64, 0
2, 152822, Note_on_c, 0, 67, 0
2, 152843, Note_on_c, 0, 58, 32
2, 152855, Note_on_c, 0, 48, 41
2, 152878, Note_on_c, 0, 65, 49
2, 152891, Note_on_c, 0, 58, 0
2, 152927, Note_on_c, 0, 65, 0
2, 153034, Note_on_c, 0, 48, 0
2, 153123, Note_on_c, 0, 64, 76
2, 153226, Note_on_c, 0, 64, 0
2, 153307, Note_on_c, 0, 61, 58
2, 153308, Note_on_c, 0, 48, 38
2, 153347, Note_on_c, 0, 48, 0
2, 153367, Note_on_c, 0, 61, 0
2, 153398, Note_on_c, 0, 60, 49
2, 153455, Note_on_c, 0, 60, 0
2, 153458, Control_c, 0, 64, 127
2, 153498, Note_on_c, 0, 58, 56
2, 153541, Note_on_c, 0, 48, 13
2, 153565, Control_c, 0, 64, 0
2, 153575, Note_on_c, 0, 48, 0
2, 153592, Note_on_c, 0, 41, 38
2, 153593, Note_on_c, 0, 51, 32
2, 153594, Note_on_c, 0, 58, 0
2, 153602, Note_on_c, 0, 56, 59
2, 153734, Note_on_c, 0, 51, 0
2, 153896, Note_on_c, 0, 51, 56
2, 153927, Note_on_c, 0, 51, 0
2, 153937, Control_c, 0, 64, 127
2, 153939, Note_on_c, 0, 41, 0
2, 154044, Note_on_c, 0, 56, 0
2, 154064, Note_on_c, 0, 53, 61
2, 154079, Control_c, 0, 64, 0
2, 154118, Note_on_c, 0, 53, 0
2, 154169, Note_on_c, 0, 55, 53
2, 154210, Note_on_c, 0, 55, 0
2, 154261, Note_on_c, 0, 56, 61
2, 154333, Note_on_c, 0, 53, 36
2, 154338, Note_on_c, 0, 56, 0
2, 154343, Note_on_c, 0, 44, 27
2, 154355, Control_c, 0, 64, 127
2, 154359, Note_on_c, 0, 58, 38
2, 154379, Note_on_c, 0, 58, 0
2, 154412, Control_c, 0, 64, 0
2, 154456, Note_on_c, 0, 59, 27
2, 154509, Note_on_c, 0, 59, 0
2, 154533, Note_on_c, 0, 44, 0
2, 154536, Note_on_c, 0, 61, 46
2, 154558, Note_on_c, 0, 53, 0
2, 154563, Note_on_c, 0, 61, 0
2, 154653, Note_on_c, 0, 64, 26
2, 154655, Note_on_c, 0, 65, 29
2, 154675, Note_on_c, 0, 64, 0
2, 154706, Note_on_c, 0, 65, 0
2, 154725, Note_on_c, 0, 66, 42
2, 154837, Note_on_c, 0, 66, 0
2, 154840, Note_on_c, 0, 70, 68
2, 154888, Note_on_c, 0, 70, 0
2, 154920, Note_on_c, 0, 63, 37
2, 154939, Note_on_c, 0, 59, 36
2, 154943, Note_on_c, 0, 58, 25
2, 154945, Note_on_c, 0, 71, 29
2, 154953, Note_on_c, 0, 54, 30
2, 154982, Note_on_c, 0, 59, 0
2, 154988, Note_on_c, 0, 71, 0
2, 155019, Note_on_c, 0, 63, 0
2, 155019, Note_on_c, 0, 54, 0
2, 155029, Note_on_c, 0, 73, 57
2, 155036, Note_on_c, 0, 58, 0
2, 155075, Note_on_c, 0, 73, 0
2, 155115, Note_on_c, 0, 62, 48
2, 155125, Note_on_c, 0, 60, 34
2, 155134, Note_on_c, 0, 55, 46
2, 155192, Note_on_c, 0, 60, 0
2, 155245, Note_on_c, 0, 62, 0
2, 155251, Note_on_c, 0, 74, 55
2, 155253, Note_on_c, 0, 76, 64
2, 155280, Note_on_c, 0, 76, 0
2, 155287, Note_on_c, 0, 74, 0
2, 155296, Note_on_c, 0, 55, 0
2, 155405, Note_on_c, 0, 77, 71
2, 155459, Note_on_c, 0, 77, 0
2, 155508, Note_on_c, 0, 62, 33
2, 155511, Note_on_c, 0, 58, 35
2, 155512, Note_on_c, 0, 77, 68
2, 155518, Note_on_c, 0, 65, 66
2, 155529, Note_on_c, 0, 55, 40
2, 155618, Note_on_c, 0, 65, 0
2, 155625, Note_on_c, 0, 77, 0
2, 155625, Note_on_c, 0, 62, 0
2, 155655, Note_on_c, 0, 55, 0
2, 155664, Note_on_c, 0, 58, 0
2, 155664, Note_on_c, 0, 74, 40
2, 155697, Note_on_c, 0, 74, 0
2, 155788, Note_on_c, 0, 78, 59
2, 155789, Note_on_c, 0, 66, 60
2, 155790, Note_on_c, 0, 58, 51
2, 155796, Note_on_c, 0, 63, 36
2, 155815, Note_on_c, 0, 63, 0
2, 155829, Note_on_c, 0, 66, 0
2, 155835, Note_on_c, 0, 58, 0
2, 155852, Note_on_c, 0, 78, 0
2, 155984, Note_on_c, 0, 68, 74
2, 155986, Note_on_c, 0, 80, 71
2, 156001, Note_on_c, 0, 63, 48
2, 156005, Note_on_c, 0, 58, 42
2, 156006, Note_on_c, 0, 52, 50
2, 156083, Control_c, 0, 64, 127
2, 156197, Note_on_c, 0, 52, 0
2, 156220, Note_on_c, 0, 63, 0
2, 156225, Note_on_c, 0, 80, 0
2, 156239, Note_on_c, 0, 68, 0
2, 156250, Note_on_c, 0, 58, 0
2, 156287, Note_on_c, 0, 67, 55
2, 156289, Note_on_c, 0, 79, 59
2, 156290, Note_on_c, 0, 63, 46
2, 156293, Control_c, 0, 64, 0
2, 156294, Note_on_c, 0, 58, 33
2, 156296, Note_on_c, 0, 52, 48
2, 156400, Note_on_c, 0, 63, 0
2, 156414, Note_on_c, 0, 67, 0
2, 156429, Note_on_c, 0, 79, 0
2, 156470, Note_on_c, 0, 63, 36
2, 156477, Note_on_c, 0, 75, 50
2, 156490, Note_on_c, 0, 52, 0
2, 156514, Note_on_c, 0, 75, 0
2, 156534, Note_on_c, 0, 58, 0
2, 156577, Note_on_c, 0, 63, 0
2, 156666, Note_on_c, 0, 63, 44
2, 156676, Note_on_c, 0, 75, 46
2, 156677, Note_on_c, 0, 78, 36
2, 156677, Note_on_c, 0, 81, 53
2, 156679, Note_on_c, 0, 69, 48
2, 156682, Control_c, 0, 64, 127
2, 156686, Note_on_c, 0, 54, 35
2, 156687, Note_on_c, 0, 60, 39
2, 156690, Note_on_c, 0, 57, 44
2, 157053, Note_on_c, 0, 81, 0
2, 157073, Note_on_c, 0, 78, 0
2, 157074, Note_on_c, 0, 69, 0
2, 157078, Note_on_c, 0, 75, 0
2, 157129, Note_on_c, 0, 63, 0
2, 157146, Note_on_c, 0, 60, 0
2, 157147, Note_on_c, 0, 57, 0
2, 157454, Note_on_c, 0, 75, 84
2, 157455, Note_on_c, 0, 66, 86
2, 157465, Note_on_c, 0, 60, 65
2, 157472, Control_c, 0, 64, 0
2, 157557, Control_c, 0, 64, 127
2, 157586, Note_on_c, 0, 66, 0
2, 157598, Note_on_c, 0, 75, 0
2, 157655, Note_on_c, 0, 60, 0
2, 157750, Note_on_c, 0, 78, 75
2, 157755, Note_on_c, 0, 63, 75
2, 157760, Note_on_c, 0, 69, 75
2, 157772, Control_c, 0, 64, 0
2, 157811, Control_c, 0, 64, 127
2, 157854, Note_on_c, 0, 78, 0
2, 157914, Note_on_c, 0, 69, 0
2, 157933, Note_on_c, 0, 63, 0
2, 157965, Note_on_c, 0, 54, 0
2, 158034, Note_on_c, 0, 68, 73
2, 158042, Note_on_c, 0, 63, 48
2, 158043, Control_c, 0, 64, 0
2, 158044, Note_on_c, 0, 60, 52
2, 158052, Note_on_c, 0, 56, 43
2, 158053, Note_on_c, 0, 53, 36
2, 158053, Note_on_c, 0, 72, 51
2, 158230, Control_c, 0, 64, 127
2, 158406, Note_on_c, 0, 68, 0
2, 158415, Note_on_c, 0, 72, 0
2, 158429, Note_on_c, 0, 60, 0
2, 158445, Note_on_c, 0, 53, 0
2, 158445, Note_on_c, 0, 63, 0
2, 158454, Note_on_c, 0, 56, 0
2, 158700, Note_on_c, 0, 63, 34
2, 158710, Note_on_c, 0, 67, 22
2, 158710, Note_on_c, 0, 79, 57
2, 158713, Note_on_c, 0, 87, 42
2, 158721, Note_on_c, 0, 91, 31
2, 158731, Note_on_c, 0, 67, 0
2, 158733, Note_on_c, 0, 79, 0
2, 158747, Note_on_c, 0, 91, 0
2, 158749, Note_on_c, 0, 63, 0
2, 158761, Note_on_c, 0, 87, 0
2, 158772, Control_c, 0, 64, 0
2, 158852, Control_c, 0, 64, 127
2, 158869, Note_on_c, 0, 63, 42
2, 158870, Note_on_c, 0, 92, 60
2, 158876, Note_on_c, 0, 80, 37
2, 158877, Note_on_c, 0, 67, 32
2, 158877, Note_on_c, 0, 56, 30
2, 158880, Note_on_c, 0, 60, 43
2, 158897, Note_on_c, 0, 67, 0
2, 158897, Note_on_c, 0, 80, 0
2, 158906, Note_on_c, 0, 56, 0
2, 158913, Note_on_c, 0, 92, 0
2, 158915, Note_on_c, 0, 63, 0
2, 158923, Note_on_c, 0, 60, 0
2, 158976, Control_c, 0, 64, 0
2, 158984, Note_on_c, 0, 82, 67
2, 158985, Note_on_c, 0, 94, 75
2, 158989, Note_on_c, 0, 56, 50
2, 158994, Note_on_c, 0, 89, 60
2, 158995, Note_on_c, 0, 62, 56
2, 158997, Note_on_c, 0, 67, 61
2, 159117, Control_c, 0, 64, 127
2, 159146, Note_on_c, 0, 89, 0
2, 159153, Note_on_c, 0, 94, 0
2, 159185, Note_on_c, 0, 82, 0
2, 159202, Note_on_c, 0, 67, 0
2, 159237, Note_on_c, 0, 56, 0
2, 159261, Note_on_c, 0, 62, 0
2, 159362, Note_on_c, 0, 85, 72
2, 159363, Note_on_c, 0, 62, 43
2, 159367, Note_on_c, 0, 56, 57
2, 159368, Note_on_c, 0, 66, 61
2, 159369, Note_on_c, 0, 79, 66
2, 159369, Note_on_c, 0, 91, 63
2, 159376, Control_c, 0, 64, 0
2, 159426, Note_on_c, 0, 85, 0
2, 159456, Note_on_c, 0, 86, 28
2, 159518, Control_c, 0, 64, 127
2, 159553, Note_on_c, 0, 66, 0
2, 159554, Note_on_c, 0, 86, 0
2, 159555, Note_on_c, 0, 91, 0
2, 159570, Note_on_c, 0, 62, 0
2, 159626, Note_on_c, 0, 79, 0
2, 159634, Note_on_c, 0, 56, 0
2, 159749, Control_c, 0, 64, 0
2, 159751, Note_on_c, 0, 62, 36
2, 159756, Note_on_c, 0, 77, 53
2, 159758, Note_on_c, 0, 65, 53
2, 159758, Note_on_c, 0, 89, 55
2, 159760, Note_on_c, 0, 86, 49
2, 159763, Note_on_c, 0, 60, 45
2, 159767, Note_on_c, 0, 55, 43
2, 159913, Control_c, 0, 64, 127
2, 159933, Note_on_c, 0, 89, 0
2, 159954, Note_on_c, 0, 86, 0
2, 159985, Note_on_c, 0, 77, 0
2, 159993, Note_on_c, 0, 60, 0
2, 160006, Note_on_c, 0, 55, 0
2, 160013, Note_on_c, 0, 65, 0
2, 160024, Note_on_c, 0, 62, 0
2, 160133, Control_c, 0, 64, 0
2, 160137, Note_on_c, 0, 62, 47
2, 160137, Note_on_c, 0, 87, 67
2, 160139, Note_on_c, 0, 75, 56
2, 160146, Note_on_c, 0, 65, 60
2, 160153, Note_on_c, 0, 82, 47
2, 160153, Note_on_c, 0, 60, 49
2, 160167, Note_on_c, 0, 55, 25
2, 160241, Control_c, 0, 64, 127
2, 160302, Note_on_c, 0, 62, 0
2, 160303, Note_on_c, 0, 65, 0
2, 160307, Note_on_c, 0, 60, 0
2, 160315, Note_on_c, 0, 87, 0
2, 160329, Note_on_c, 0, 82, 0
2, 160334, Note_on_c, 0, 75, 0
2, 160342, Note_on_c, 0, 55, 0
2, 160522, Control_c, 0, 64, 0
2, 160524, Note_on_c, 0, 86, 61
2, 160526, Note_on_c, 0, 74, 56
2, 160527, Note_on_c, 0, 81, 60
2, 160528, Note_on_c, 0, 59, 53
2, 160533, Note_on_c, 0, 64, 46
2, 160534, Note_on_c, 0, 53, 48
2, 160630, Control_c, 0, 64, 127
2, 160676, Note_on_c, 0, 86, 0
2, 160690, Note_on_c, 0, 81, 0
2, 160730, Note_on_c, 0, 74, 0
2, 160734, Note_on_c, 0, 64, 0
2, 160757, Note_on_c, 0, 59, 0
2, 160785, Note_on_c, 0, 53, 0
2, 160904, Note_on_c, 0, 62, 57
2, 160906, Control_c, 0, 64, 0
2, 160910, Note_on_c, 0, 71, 63
2, 160912, Note_on_c, 0, 83, 59
2, 160914, Note_on_c, 0, 59, 47
2, 160916, Note_on_c, 0, 80, 45
2, 160917, Note_on_c, 0, 53, 50
2, 160920, Note_on_c, 0, 56, 33
2, 160985, Control_c, 0, 64, 127
2, 161070, Control_c, 0, 64, 0
2, 161117, Note_on_c, 0, 71, 0
2, 161134, Note_on_c, 0, 80, 0
2, 161136, Note_on_c, 0, 83, 0
2, 161157, Note_on_c, 0, 53, 0
2, 161162, Note_on_c, 0, 59, 0
2, 161164, Note_on_c, 0, 62, 0
2, 161167, Note_on_c, 0, 56, 0
2, 161280, Note_on_c, 0, 67, 63
2, 161290, Note_on_c, 0, 48, 60
2, 161310, Note_on_c, 0, 48, 0
2, 161433, Control_c, 0, 64, 127
2, 161660, Note_on_c, 0, 68, 65
2, 161664, Note_on_c, 0, 67, 0
2, 161686, Note_on_c, 0, 56, 45
2, 161689, Control_c, 0, 64, 0
2, 161881, Control_c, 0, 64, 127
2, 162208, Note_on_c, 0, 56, 0
2, 162425, Note_on_c, 0, 63, 46
2, 162435, Note_on_c, 0, 58, 49
2, 162438, Note_on_c, 0, 53, 42
2, 162451, Control_c, 0, 64, 0
2, 162544, Control_c, 0, 64, 127
2, 162732, Note_on_c, 0, 53, 0
2, 162736, Note_on_c, 0, 67, 81
2, 162755, Note_on_c, 0, 58, 0
2, 162758, Note_on_c, 0, 68, 0
2, 162761, Note_on_c, 0, 63, 0
2, 162806, Note_on_c, 0, 67, 0
2, 162835, Control_c, 0, 64, 0
2, 162835, Note_on_c, 0, 67, 97
2, 162899, Control_c, 0, 64, 127
2, 162992, Control_c, 0, 64, 0
2, 163001, Note_on_c, 0, 67, 0
2, 163020, Note_on_c, 0, 68, 89
2, 163078, Control_c, 0, 64, 127
2, 163228, Note_on_c, 0, 68, 0
2, 163401, Note_on_c, 0, 70, 79
2, 163404, Note_on_c, 0, 59, 72
2, 163408, Note_on_c, 0, 65, 66
2, 163411, Control_c, 0, 64, 0
2, 163500, Control_c, 0, 64, 127
2, 163562, Note_on_c, 0, 65, 0
2, 163570, Note_on_c, 0, 59, 0
2, 163583, Note_on_c, 0, 70, 0
2, 163772, Control_c, 0, 64, 0
2, 163785, Note_on_c, 0, 67, 59
2, 163788, Note_on_c, 0, 62, 57
2, 163788, Note_on_c, 0, 56, 51
2, 163923, Note_on_c, 0, 67, 0
2, 163929, Note_on_c, 0, 62, 0
2, 163936, Control_c, 0, 64, 127
2, 163961, Note_on_c, 0, 56, 0
2, 164080, Note_on_c, 0, 64, 51
2, 164083, Note_on_c, 0, 53, 45
2, 164086, Note_on_c, 0, 59, 60
2, 164092, Control_c, 0, 64, 0
2, 164163, Control_c, 0, 64, 127
2, 164179, Note_on_c, 0, 59, 0
2, 164182, Note_on_c, 0, 53, 0
2, 164192, Note_on_c, 0, 64, 0
2, 164348, Control_c, 0, 64, 0
2, 164348, Note_on_c, 0, 62, 43
2, 164352, Note_on_c, 0, 51, 35
2, 164368, Note_on_c, 0, 51, 0
2, 164370, Note_on_c, 0, 62, 0
2, 164528, Note_on_c, 0, 63, 52
2, 164537, Note_on_c, 0, 53, 40
2, 164537, Note_on_c, 0, 58, 50
2, 164726, Control_c, 0, 64, 127
2, 164902, Control_c, 0, 64, 0
2, 164905, Note_on_c, 0, 67, 77
2, 164940, Note_on_c, 0, 67, 0
2, 165004, Note_on_c, 0, 67, 76
2, 165046, Note_on_c, 0, 67, 0
2, 165094, Note_on_c, 0, 73, 88
2, 165120, Note_on_c, 0, 74, 66
2, 165152, Note_on_c, 0, 73, 0
2, 165235, Note_on_c, 0, 74, 0
2, 165299, Note_on_c, 0, 73, 61
2, 165308, Note_on_c, 0, 74, 85
2, 165331, Note_on_c, 0, 73, 0
2, 165468, Note_on_c, 0, 53, 0
2, 165491, Control_c, 0, 64, 127
2, 165497, Note_on_c, 0, 58, 0
2, 165514, Note_on_c, 0, 63, 0
2, 165622, Note_on_c, 0, 63, 76
2, 165625, Note_on_c, 0, 72, 89
2, 165628, Note_on_c, 0, 55, 68
2, 165632, Note_on_c, 0, 60, 76
2, 165644, Control_c, 0, 64, 0
2, 165663, Note_on_c, 0, 74, 0
2, 165737, Control_c, 0, 64, 127
2, 165759, Note_on_c, 0, 55, 0
2, 165763, Note_on_c, 0, 60, 0
2, 165801, Note_on_c, 0, 63, 0
2, 165855, Note_on_c, 0, 72, 0
2, 165894, Control_c, 0, 64, 0
2, 165894, Note_on_c, 0, 67, 59
2, 165897, Note_on_c, 0, 72, 69
2, 165904, Note_on_c, 0, 63, 50
2, 165904, Note_on_c, 0, 56, 45
2, 165952, Note_on_c, 0, 60, 59
2, 166028, Control_c, 0, 64, 127
2, 166163, Note_on_c, 0, 67, 0
2, 166170, Note_on_c, 0, 60, 0
2, 166182, Note_on_c, 0, 63, 0
2, 166186, Note_on_c, 0, 56, 0
2, 166207, Note_on_c, 0, 72, 0
2, 166646, Note_on_c, 0, 63, 41
2, 166646, Control_c, 0, 64, 0
2, 166649, Note_on_c, 0, 67, 39
2, 166652, Note_on_c, 0, 91, 47
2, 166652, Note_on_c, 0, 79, 44
2, 166656, Note_on_c, 0, 56, 35
2, 166659, Note_on_c, 0, 87, 34
2, 166662, Note_on_c, 0, 60, 54
2, 166662, Note_on_c, 0, 84, 55
2, 166672, Control_c, 0, 64, 127
2, 166706, Note_on_c, 0, 79, 0
2, 166713, Note_on_c, 0, 91, 0
2, 166720, Note_on_c, 0, 84, 0
2, 166723, Note_on_c, 0, 60, 0
2, 166726, Note_on_c, 0, 87, 0
2, 166729, Note_on_c, 0, 67, 0
2, 166730, Note_on_c, 0, 56, 0
2, 166739, Note_on_c, 0, 63, 0
2, 166761, Note_on_c, 0, 67, 40
2, 166764, Note_on_c, 0, 89, 43
2, 166764, Note_on_c, 0, 63, 35
2, 166768, Note_on_c, 0, 77, 32
2, 166771, Note_on_c, 0, 87, 31
2, 166771, Note_on_c, 0, 56, 32
2, 166780, Note_on_c, 0, 84, 32
2, 166780, Note_on_c, 0, 60, 42
2, 166780, Control_c, 0, 64, 0
2, 166796, Note_on_c, 0, 60, 0
2, 166797, Note_on_c, 0, 77, 0
2, 166799, Note_on_c, 0, 89, 0
2, 166799, Note_on_c, 0, 84, 0
2, 166809, Note_on_c, 0, 87, 0
2, 166809, Note_on_c, 0, 67, 0
2, 166813, Note_on_c, 0, 56, 0
2, 166822, Note_on_c, 0, 63, 0
2, 166844, Note_on_c, 0, 67, 40
2, 166848, Note_on_c, 0, 63, 40
2, 166851, Note_on_c, 0, 79, 41
2, 166851, Note_on_c, 0, 91, 34
2, 166867, Note_on_c, 0, 79, 0
2, 166870, Note_on_c, 0, 91, 0
2, 166879, Note_on_c, 0, 67, 0
2, 166886, Note_on_c, 0, 63, 0
2, 167049, Control_c, 0, 64, 127
2, 167206, Control_c, 0, 64, 0
2, 167228, Note_on_c, 0, 67, 59
2, 167228, Note_on_c, 0, 91, 67
2, 167228, Note_on_c, 0, 63, 54
2, 167228, Note_on_c, 0, 84, 64
2, 167232, Note_on_c, 0, 79, 58
2, 167232, Note_on_c, 0, 56, 44
2, 167235, Note_on_c, 0, 60, 61
2, 167238, Note_on_c, 0, 87, 50
2, 167263, Note_on_c, 0, 84, 0
2, 167270, Note_on_c, 0, 87, 0
2, 167273, Note_on_c, 0, 91, 0
2, 167274, Note_on_c, 0, 79, 0
2, 167283, Note_on_c, 0, 56, 0
2, 167283, Note_on_c, 0, 60, 0
2, 167286, Note_on_c, 0, 67, 0
2, 167289, Note_on_c, 0, 63, 0
2, 167328, Note_on_c, 0, 67, 49
2, 167331, Note_on_c, 0, 63, 45
2, 167334, Note_on_c, 0, 87, 50
2, 167340, Note_on_c, 0, 60, 43
2, 167344, Note_on_c, 0, 56, 25
2, 167350, Note_on_c, 0, 87, 0
2, 167373, Note_on_c, 0, 67, 0
2, 167376, Note_on_c, 0, 56, 0
2, 167398, Note_on_c, 0, 60, 0
2, 167401, Note_on_c, 0, 63, 0
2, 167430, Note_on_c, 0, 89, 68
2, 167430, Note_on_c, 0, 77, 64
2, 167446, Note_on_c, 0, 77, 0
2, 167446, Note_on_c, 0, 66, 36
2, 167446, Note_on_c, 0, 62, 37
2, 167449, Note_on_c, 0, 89, 0
2, 167459, Note_on_c, 0, 66, 0
2, 167462, Note_on_c, 0, 62, 0
2, 167619, Note_on_c, 0, 77, 66
2, 167622, Note_on_c, 0, 89, 64
2, 167628, Note_on_c, 0, 56, 39
2, 167628, Note_on_c, 0, 62, 41
2, 167628, Note_on_c, 0, 86, 53
2, 167632, Note_on_c, 0, 65, 28
2, 167644, Note_on_c, 0, 86, 0
2, 167654, Note_on_c, 0, 89, 0
2, 167654, Note_on_c, 0, 77, 0
2, 167658, Note_on_c, 0, 65, 0
2, 167660, Note_on_c, 0, 62, 0
2, 167670, Note_on_c, 0, 56, 0
2, 167856, Control_c, 0, 64, 127
2, 168566, Note_on_c, 0, 55, 75
2, 168582, Control_c, 0, 64, 0
2, 168582, Note_on_c, 0, 68, 85
2, 168585, Note_on_c, 0, 62, 88
2, 168592, Note_on_c, 0, 65, 78
2, 168592, Note_on_c, 0, 59, 82
2, 168592, Note_on_c, 0, 56, 80
2, 168595, Note_on_c, 0, 55, 0
2, 168700, Control_c, 0, 64, 127
2, 168707, Note_on_c, 0, 56, 0
2, 168707, Note_on_c, 0, 54, 58
2, 168710, Note_on_c, 0, 59, 0
2, 168720, Note_on_c, 0, 65, 0
2, 168726, Note_on_c, 0, 62, 0
2, 168736, Note_on_c, 0, 68, 0
2, 168742, Control_c, 0, 64, 0
2, 168777, Note_on_c, 0, 54, 0
2, 168777, Note_on_c, 0, 68, 59
2, 168784, Note_on_c, 0, 62, 57
2, 168787, Note_on_c, 0, 59, 71
2, 168787, Note_on_c, 0, 56, 73
2, 168787, Note_on_c, 0, 65, 64
2, 168835, Control_c, 0, 64, 127
2, 168870, Note_on_c, 0, 59, 0
2, 168874, Note_on_c, 0, 62, 0
2, 168886, Note_on_c, 0, 65, 0
2, 168905, Note_on_c, 0, 68, 0
2, 168931, Note_on_c, 0, 56, 0
2, 168969, Control_c, 0, 64, 0
2, 168969, Note_on_c, 0, 70, 56
2, 168976, Note_on_c, 0, 60, 56
2, 168982, Note_on_c, 0, 55, 60
2, 168985, Note_on_c, 0, 65, 64
2, 169043, Note_on_c, 0, 65, 0
2, 169046, Note_on_c, 0, 70, 0
2, 169050, Note_on_c, 0, 60, 0
2, 169088, Note_on_c, 0, 55, 0
2, 169104, Note_on_c, 0, 54, 38
2, 169171, Note_on_c, 0, 54, 0
2, 169180, Note_on_c, 0, 70, 53
2, 169180, Note_on_c, 0, 55, 59
2, 169184, Note_on_c, 0, 60, 55
2, 169184, Note_on_c, 0, 65, 62
2, 169350, Control_c, 0, 64, 127
2, 169376, Note_on_c, 0, 60, 0
2, 169398, Note_on_c, 0, 65, 0
2, 169398, Note_on_c, 0, 55, 0
2, 169414, Note_on_c, 0, 70, 0
2, 169548, Note_on_c, 0, 77, 98
2, 169548, Note_on_c, 0, 84, 98
2, 169548, Note_on_c, 0, 61, 80
2, 169552, Note_on_c, 0, 66, 82
2, 169552, Control_c, 0, 64, 0
2, 169555, Note_on_c, 0, 55, 67
2, 169634, Note_on_c, 0, 84, 0
2, 169651, Note_on_c, 0, 66, 0
2, 169654, Note_on_c, 0, 77, 0
2, 169654, Note_on_c, 0, 55, 0
2, 169670, Note_on_c, 0, 81, 80
2, 169673, Note_on_c, 0, 55, 44
2, 169676, Note_on_c, 0, 66, 71
2, 169676, Note_on_c, 0, 73, 65
2, 169686, Note_on_c, 0, 77, 30
2, 169702, Note_on_c, 0, 77, 0
2, 169702, Control_c, 0, 64, 127
2, 169904, Note_on_c, 0, 81, 0
2, 169922, Note_on_c, 0, 66, 0
2, 169935, Note_on_c, 0, 73, 0
2, 169939, Note_on_c, 0, 55, 0
2, 169996, Note_on_c, 0, 61, 0
2, 170118, Note_on_c, 0, 66, 57
2, 170121, Note_on_c, 0, 73, 65
2, 170124, Note_on_c, 0, 61, 52
2, 170124, Note_on_c, 0, 67, 50
2, 170128, Control_c, 0, 64, 0
2, 170140, Note_on_c, 0, 67, 0
2, 170147, Note_on_c, 0, 66, 0
2, 170156, Note_on_c, 0, 73, 0
2, 170162, Note_on_c, 0, 61, 0
2, 170304, Note_on_c, 0, 66, 43
2, 170307, Note_on_c, 0, 70, 54
2, 170307, Note_on_c, 0, 61, 50
2, 170313, Note_on_c, 0, 67, 41
2, 170342, Note_on_c, 0, 66, 0
2, 170352, Control_c, 0, 64, 127
2, 170358, Note_on_c, 0, 70, 0
2, 170364, Note_on_c, 0, 67, 0
2, 170371, Note_on_c, 0, 61, 0
2, 170496, Note_on_c, 0, 63, 40
2, 170502, Note_on_c, 0, 67, 39
2, 170502, Control_c, 0, 64, 0
2, 170508, Note_on_c, 0, 60, 53
2, 170512, Note_on_c, 0, 58, 36
2, 170515, Note_on_c, 0, 53, 40
2, 170617, Control_c, 0, 64, 127
2, 170681, Note_on_c, 0, 67, 0
2, 170786, Note_on_c, 0, 60, 0
2, 170819, Note_on_c, 0, 53, 0
2, 170842, Note_on_c, 0, 58, 0
2, 170877, Note_on_c, 0, 63, 0
2, 170976, Control_c, 0, 64, 0
2, 170979, Note_on_c, 0, 70, 89
2, 170979, Note_on_c, 0, 77, 86
2, 170979, Note_on_c, 0, 63, 73
2, 170979, Note_on_c, 0, 67, 85
2, 170985, Note_on_c, 0, 53, 63
2, 170988, Note_on_c, 0, 58, 59
2, 171049, Control_c, 0, 64, 127
2, 171088, Note_on_c, 0, 77, 0
2, 171117, Note_on_c, 0, 67, 0
2, 171126, Note_on_c, 0, 75, 81
2, 171142, Note_on_c, 0, 53, 0
2, 171165, Note_on_c, 0, 70, 0
2, 171174, Note_on_c, 0, 58, 0
2, 171193, Note_on_c, 0, 63, 0
2, 171200, Note_on_c, 0, 75, 0
2, 171267, Note_on_c, 0, 66, 68
2, 171270, Note_on_c, 0, 65, 51
2, 171273, Note_on_c, 0, 75, 67
2, 171276, Note_on_c, 0, 54, 54
2, 171276, Control_c, 0, 64, 0
2, 171276, Note_on_c, 0, 72, 63
2, 171286, Note_on_c, 0, 60, 60
2, 171372, Control_c, 0, 64, 127
2, 171517, Note_on_c, 0, 66, 0
2, 171586, Note_on_c, 0, 72, 0
2, 171587, Note_on_c, 0, 75, 0
2, 171644, Note_on_c, 0, 77, 94
2, 171651, Control_c, 0, 64, 0
2, 171705, Control_c, 0, 64, 127
2, 171708, Note_on_c, 0, 77, 0
2, 171753, Note_on_c, 0, 75, 46
2, 171782, Note_on_c, 0, 75, 0
2, 171824, Control_c, 0, 64, 0
2, 171836, Note_on_c, 0, 65, 0
2, 171840, Note_on_c, 0, 77, 86
2, 171859, Note_on_c, 0, 60, 0
2, 171917, Note_on_c, 0, 77, 0
2, 171929, Control_c, 0, 64, 127
2, 171932, Note_on_c, 0, 54, 0
2, 171942, Note_on_c, 0, 75, 56
2, 172035, Note_on_c, 0, 75, 0
2, 172041, Note_on_c, 0, 71, 45
2, 172041, Control_c, 0, 64, 0
2, 172102, Note_on_c, 0, 71, 0
2, 172140, Note_on_c, 0, 66, 54
2, 172156, Note_on_c, 0, 62, 38
2, 172169, Note_on_c, 0, 54, 39
2, 172185, Note_on_c, 0, 66, 0
2, 172201, Note_on_c, 0, 62, 0
2, 172243, Note_on_c, 0, 54, 0
2, 172246, Note_on_c, 0, 64, 34
2, 172355, Control_c, 0, 64, 127
2, 172371, Note_on_c, 0, 64, 0
2, 172384, Control_c, 0, 64, 0
2, 172425, Note_on_c, 0, 49, 42
2, 172428, Note_on_c, 0, 64, 52
2, 172432, Note_on_c, 0, 50, 54
2, 172460, Note_on_c, 0, 49, 0
2, 172825, Control_c, 0, 64, 127
2, 172886, Note_on_c, 0, 64, 0
2, 172892, Note_on_c, 0, 62, 66
2, 172988, Note_on_c, 0, 59, 39
2, 172998, Note_on_c, 0, 50, 0
2, 173052, Note_on_c, 0, 62, 0
2, 173081, Note_on_c, 0, 59, 0
2, 173094, Note_on_c, 0, 43, 36
2, 173142, Note_on_c, 0, 43, 0
2, 173158, Control_c, 0, 64, 0
2, 173180, Note_on_c, 0, 68, 68
2, 173180, Note_on_c, 0, 62, 55
2, 173180, Note_on_c, 0, 59, 61
2, 173187, Note_on_c, 0, 53, 65
2, 173187, Note_on_c, 0, 65, 59
2, 173270, Control_c, 0, 64, 127
2, 173331, Control_c, 0, 64, 0
2, 173334, Note_on_c, 0, 59, 0
2, 173343, Note_on_c, 0, 68, 0
2, 173347, Note_on_c, 0, 53, 0
2, 173353, Note_on_c, 0, 65, 0
2, 173372, Note_on_c, 0, 59, 42
2, 173376, Note_on_c, 0, 67, 49
2, 173385, Note_on_c, 0, 47, 43
2, 173427, Control_c, 0, 64, 127
2, 173450, Note_on_c, 0, 67, 0
2, 173478, Note_on_c, 0, 59, 0
2, 173513, Note_on_c, 0, 62, 0
2, 173564, Note_on_c, 0, 47, 0
2, 173574, Control_c, 0, 64, 0
2, 173580, Note_on_c, 0, 48, 42
2, 173584, Note_on_c, 0, 67, 64
2, 173600, Note_on_c, 0, 55, 48
2, 173660, Control_c, 0, 64, 127
2, 173760, Note_on_c, 0, 55, 0
2, 173782, Note_on_c, 0, 36, 63
2, 173794, Note_on_c, 0, 48, 0
2, 173798, Note_on_c, 0, 36, 0
2, 173818, Note_on_c, 0, 67, 0
2, 174144, Note_on_c, 0, 55, 93
2, 174147, Note_on_c, 0, 91, 89
2, 174150, Note_on_c, 0, 79, 91
2, 174336, Note_on_c, 0, 79, 0
2, 174342, Note_on_c, 0, 91, 0
2, 174438, Note_on_c, 0, 55, 0
2, 174444, Note_on_c, 0, 92, 83
2, 174444, Note_on_c, 0, 80, 75
2, 174451, Note_on_c, 0, 56, 75
2, 174457, Control_c, 0, 64, 0
2, 174700, Note_on_c, 0, 80, 0
2, 174700, Note_on_c, 0, 92, 0
2, 174723, Note_on_c, 0, 56, 0
2, 174732, Note_on_c, 0, 91, 72
2, 174732, Note_on_c, 0, 55, 69
2, 174732, Note_on_c, 0, 79, 74
2, 174812, Control_c, 0, 64, 127
2, 174882, Note_on_c, 0, 55, 0
2, 175014, Note_on_c, 0, 79, 0
2, 175014, Note_on_c, 0, 91, 0
2, 175104, Note_on_c, 0, 56, 39
2, 175110, Note_on_c, 0, 62, 43
2, 175110, Control_c, 0, 64, 0
2, 175113, Note_on_c, 0, 91, 55
2, 175113, Note_on_c, 0, 53, 37
2, 175113, Note_on_c, 0, 59, 42
2, 175116, Note_on_c, 0, 79, 48
2, 175273, Control_c, 0, 64, 127
2, 175311, Note_on_c, 0, 91, 0
2, 175321, Note_on_c, 0, 79, 0
2, 175347, Note_on_c, 0, 53, 0
2, 175347, Note_on_c, 0, 59, 0
2, 175350, Note_on_c, 0, 62, 0
2, 175363, Note_on_c, 0, 56, 0
2, 175414, Note_on_c, 0, 92, 70
2, 175414, Note_on_c, 0, 80, 61
2, 175420, Note_on_c, 0, 62, 55
2, 175424, Note_on_c, 0, 56, 41
2, 175433, Control_c, 0, 64, 0
2, 175433, Note_on_c, 0, 59, 33
2, 175436, Note_on_c, 0, 80, 0
2, 175442, Note_on_c, 0, 62, 0
2, 175443, Note_on_c, 0, 92, 0
2, 175449, Note_on_c, 0, 59, 0
2, 175459, Note_on_c, 0, 56, 0
2, 175878, Note_on_c, 0, 75, 75
2, 175881, Note_on_c, 0, 68, 65
2, 175884, Note_on_c, 0, 71, 65
2, 175884, Note_on_c, 0, 63, 58
2, 175888, Note_on_c, 0, 65, 64
2, 175970, Note_on_c, 0, 71, 0
2, 175974, Note_on_c, 0, 63, 0
2, 175974, Note_on_c, 0, 75, 0
2, 175974, Note_on_c, 0, 68, 0
2, 175974, Note_on_c, 0, 65, 0
2, 175980, Note_on_c, 0, 61, 43
2, 176063, Note_on_c, 0, 61, 0
2, 176076, Note_on_c, 0, 68, 48
2, 176076, Note_on_c, 0, 65, 56
2, 176080, Note_on_c, 0, 62, 57
2, 176080, Note_on_c, 0, 74, 55
2, 176086, Note_on_c, 0, 71, 41
2, 176124, Control_c, 0, 64, 127
2, 176144, Note_on_c, 0, 71, 0
2, 176154, Note_on_c, 0, 74, 0
2, 176162, Note_on_c, 0, 68, 0
2, 176170, Note_on_c, 0, 62, 0
2, 176175, Note_on_c, 0, 65, 0
2, 176224, Control_c, 0, 64, 0
2, 176256, Note_on_c, 0, 71, 41
2, 176259, Note_on_c, 0, 62, 43
2, 176262, Note_on_c, 0, 68, 42
2, 176262, Note_on_c, 0, 65, 46
2, 176265, Note_on_c, 0, 59, 39
2, 176275, Control_c, 0, 64, 127
2, 176304, Note_on_c, 0, 65, 0
2, 176304, Note_on_c, 0, 68, 0
2, 176310, Note_on_c, 0, 71, 0
2, 176329, Note_on_c, 0, 62, 0
2, 176380, Note_on_c, 0, 59, 0
2, 176419, Control_c, 0, 64, 0
2, 176438, Note_on_c, 0, 68, 45
2, 176441, Note_on_c, 0, 56, 45
2, 176457, Note_on_c, 0, 62, 30
2, 176457, Note_on_c, 0, 59, 20
2, 176457, Note_on_c, 0, 65, 41
2, 176470, Control_c, 0, 64, 127
2, 176489, Note_on_c, 0, 56, 0
2, 176505, Note_on_c, 0, 59, 0
2, 176505, Note_on_c, 0, 62, 0
2, 176543, Note_on_c, 0, 65, 0
2, 176563, Note_on_c, 0, 68, 0
2, 176630, Note_on_c, 0, 58, 37
2, 176630, Note_on_c, 0, 63, 43
2, 176633, Control_c, 0, 64, 0
2, 176636, Note_on_c, 0, 67, 39
2, 176640, Note_on_c, 0, 55, 39
2, 176640, Note_on_c, 0, 46, 36
2, 176812, Control_c, 0, 64, 127
2, 176819, Note_on_c, 0, 55, 0
2, 176896, Note_on_c, 0, 58, 0
2, 176921, Note_on_c, 0, 67, 0
2, 176944, Note_on_c, 0, 63, 0
2, 177017, Note_on_c, 0, 55, 45
2, 177046, Note_on_c, 0, 55, 0
2, 177110, Note_on_c, 0, 46, 0
2, 177225, Note_on_c, 0, 74, 95
2, 177292, Note_on_c, 0, 74, 0
2, 177337, Note_on_c, 0, 74, 72
2, 177372, Control_c, 0, 64, 0
2, 177414, Note_on_c, 0, 74, 0
2, 177443, Note_on_c, 0, 74, 85
2, 177456, Note_on_c, 0, 73, 34
2, 177465, Note_on_c, 0, 67, 66
2, 177468, Note_on_c, 0, 62, 61
2, 177469, Note_on_c, 0, 73, 0
2, 177475, Note_on_c, 0, 70, 42
2, 177497, Note_on_c, 0, 63, 44
2, 177577, Note_on_c, 0, 63, 0
2, 177580, Note_on_c, 0, 67, 0
2, 177587, Note_on_c, 0, 70, 0
2, 177609, Note_on_c, 0, 63, 60
2, 177612, Control_c, 0, 64, 127
2, 177616, Note_on_c, 0, 74, 0
2, 177638, Note_on_c, 0, 62, 0
2, 177654, Note_on_c, 0, 63, 0
2, 177715, Note_on_c, 0, 74, 93
2, 177721, Control_c, 0, 64, 0
2, 177779, Note_on_c, 0, 74, 0
2, 177814, Note_on_c, 0, 74, 81
2, 177827, Control_c, 0, 64, 127
2, 177836, Note_on_c, 0, 62, 53
2, 177840, Note_on_c, 0, 67, 73
2, 177859, Note_on_c, 0, 70, 31
2, 177859, Note_on_c, 0, 63, 52
2, 177917, Note_on_c, 0, 70, 0
2, 177926, Control_c, 0, 64, 0
2, 177929, Note_on_c, 0, 63, 0
2, 177952, Note_on_c, 0, 67, 0
2, 177958, Note_on_c, 0, 62, 0
2, 177980, Note_on_c, 0, 74, 0
2, 177987, Control_c, 0, 64, 127
2, 177987, Note_on_c, 0, 67, 51
2, 177990, Note_on_c, 0, 63, 44
2, 178048, Note_on_c, 0, 63, 0
2, 178051, Note_on_c, 0, 74, 22
2, 178061, Note_on_c, 0, 67, 0
2, 178125, Note_on_c, 0, 74, 0
2, 178176, Note_on_c, 0, 65, 51
2, 178182, Note_on_c, 0, 63, 31
2, 178185, Control_c, 0, 64, 0
2, 178185, Note_on_c, 0, 68, 44
2, 178195, Note_on_c, 0, 56, 31
2, 178195, Note_on_c, 0, 60, 41
2, 178201, Note_on_c, 0, 53, 39
2, 178316, Control_c, 0, 64, 127
2, 178355, Note_on_c, 0, 65, 0
2, 178380, Note_on_c, 0, 68, 0
2, 178393, Note_on_c, 0, 60, 0
2, 178403, Note_on_c, 0, 53, 0
2, 178438, Note_on_c, 0, 63, 0
2, 178438, Note_on_c, 0, 56, 0
2, 178736, Note_on_c, 0, 63, 50
2, 178739, Note_on_c, 0, 67, 55
2, 178739, Note_on_c, 0, 84, 78
2, 178742, Note_on_c, 0, 91, 73
2, 178745, Note_on_c, 0, 56, 45
2, 178745, Note_on_c, 0, 79, 69
2, 178745, Note_on_c, 0, 87, 57
2, 178745, Note_on_c, 0, 60, 61
2, 178752, Control_c, 0, 64, 0
2, 178867, Control_c, 0, 64, 127
2, 179007, Note_on_c, 0, 60, 0
2, 179014, Note_on_c, 0, 67, 0
2, 179030, Note_on_c, 0, 63, 0
2, 179065, Note_on_c, 0, 56, 0
2, 179171, Note_on_c, 0, 79, 0
2, 179184, Note_on_c, 0, 84, 0
2, 179200, Note_on_c, 0, 91, 0
2, 179203, Note_on_c, 0, 87, 0
2, 179276, Control_c, 0, 64, 0
2, 179321, Note_on_c, 0, 91, 84
2, 179321, Note_on_c, 0, 63, 65
2, 179324, Note_on_c, 0, 67, 74
2, 179324, Note_on_c, 0, 79, 85
2, 179324, Note_on_c, 0, 87, 74
2, 179324, Note_on_c, 0, 56, 70
2, 179324, Note_on_c, 0, 84, 84
2, 179331, Note_on_c, 0, 60, 74
2, 179378, Note_on_c, 0, 79, 0
2, 179379, Note_on_c, 0, 91, 0
2, 179401, Note_on_c, 0, 67, 0
2, 179401, Note_on_c, 0, 84, 0
2, 179404, Note_on_c, 0, 56, 0
2, 179407, Note_on_c, 0, 87, 0
2, 179408, Note_on_c, 0, 60, 0
2, 179411, Note_on_c, 0, 63, 0
2, 179433, Note_on_c, 0, 90, 73
2, 179433, Note_on_c, 0, 67, 62
2, 179436, Note_on_c, 0, 78, 63
2, 179436, Note_on_c, 0, 84, 55
2, 179436, Note_on_c, 0, 56, 37
2, 179440, Note_on_c, 0, 63, 42
2, 179440, Note_on_c, 0, 87, 57
2, 179446, Note_on_c, 0, 60, 69
2, 179484, Note_on_c, 0, 84, 0
2, 179491, Note_on_c, 0, 67, 0
2, 179494, Note_on_c, 0, 90, 0
2, 179498, Note_on_c, 0, 87, 0
2, 179500, Note_on_c, 0, 78, 0
2, 179523, Note_on_c, 0, 67, 38
2, 179532, Note_on_c, 0, 84, 55
2, 179536, Note_on_c, 0, 89, 54
2, 179558, Note_on_c, 0, 89, 0
2, 179561, Note_on_c, 0, 84, 0
2, 179602, Note_on_c, 0, 56, 0
2, 179603, Note_on_c, 0, 67, 0
2, 179606, Note_on_c, 0, 63, 0
2, 179625, Note_on_c, 0, 60, 0
2, 179715, Note_on_c, 0, 67, 52
2, 179718, Note_on_c, 0, 89, 53
2, 179718, Note_on_c, 0, 77, 46
2, 179724, Note_on_c, 0, 62, 42
2, 179724, Note_on_c, 0, 60, 46
2, 179731, Note_on_c, 0, 56, 36
2, 179763, Note_on_c, 0, 89, 0
2, 179766, Note_on_c, 0, 77, 0
2, 179772, Note_on_c, 0, 60, 0
2, 179775, Note_on_c, 0, 62, 0
2, 179776, Note_on_c, 0, 67, 0
2, 179785, Note_on_c, 0, 56, 0
2, 179907, Note_on_c, 0, 67, 39
2, 179907, Note_on_c, 0, 89, 61
2, 179910, Note_on_c, 0, 77, 42
2, 179913, Note_on_c, 0, 62, 38
2, 179913, Note_on_c, 0, 60, 52
2, 179913, Note_on_c, 0, 56, 44
2, 179996, Note_on_c, 0, 77, 0
2, 179999, Note_on_c, 0, 60, 0
2, 180000, Note_on_c, 0, 89, 0
2, 180003, Note_on_c, 0, 67, 0
2, 180009, Note_on_c, 0, 56, 0
2, 180009, Note_on_c, 0, 62, 0
2, 180204, Note_on_c, 0, 89, 57
2, 180211, Note_on_c, 0, 77, 37
2, 180211, Note_on_c, 0, 67, 32
2, 180214, Note_on_c, 0, 56, 36
2, 180214, Note_on_c, 0, 62, 38
2, 180217, Note_on_c, 0, 60, 50
2, 180281, Note_on_c, 0, 77, 0
2, 180284, Note_on_c, 0, 89, 0
2, 180287, Note_on_c, 0, 60, 0
2, 180294, Note_on_c, 0, 67, 0
2, 180297, Note_on_c, 0, 62, 0
2, 180307, Note_on_c, 0, 56, 0
2, 180473, Note_on_c, 0, 67, 51
2, 180480, Note_on_c, 0, 89, 64
2, 180483, Note_on_c, 0, 62, 39
2, 180483, Note_on_c, 0, 77, 44
2, 180486, Note_on_c, 0, 56, 37
2, 180486, Note_on_c, 0, 60, 48
2, 180557, Note_on_c, 0, 89, 0
2, 180569, Note_on_c, 0, 67, 0
2, 180573, Note_on_c, 0, 62, 0
2, 180576, Note_on_c, 0, 60, 0
2, 180585, Note_on_c, 0, 77, 0
2, 180614, Note_on_c, 0, 56, 0
2, 180736, Control_c, 0, 64, 127
2, 180835, Control_c, 0, 64, 0
2, 180841, Note_on_c, 0, 56, 13
2, 180870, Note_on_c, 0, 62, 75
2, 180870, Note_on_c, 0, 70, 79
2, 180873, Note_on_c, 0, 65, 68
2, 180876, Note_on_c, 0, 59, 69
2, 180876, Note_on_c, 0, 58, 68
2, 180886, Note_on_c, 0, 56, 0
2, 180911, Note_on_c, 0, 59, 0
2, 180924, Note_on_c, 0, 65, 0
2, 180931, Note_on_c, 0, 62, 0
2, 180947, Note_on_c, 0, 70, 0
2, 180969, Note_on_c, 0, 58, 0
2, 181056, Note_on_c, 0, 68, 66
2, 181059, Note_on_c, 0, 56, 58
2, 181062, Note_on_c, 0, 62, 57
2, 181065, Note_on_c, 0, 59, 59
2, 181072, Note_on_c, 0, 65, 46
2, 181110, Note_on_c, 0, 62, 0
2, 181120, Note_on_c, 0, 56, 0
2, 181123, Control_c, 0, 64, 127
2, 181132, Note_on_c, 0, 59, 0
2, 181142, Note_on_c, 0, 65, 0
2, 181149, Note_on_c, 0, 68, 0
2, 181251, Control_c, 0, 64, 0
2, 181254, Note_on_c, 0, 68, 73
2, 181257, Note_on_c, 0, 65, 72
2, 181257, Note_on_c, 0, 63, 66
2, 181257, Note_on_c, 0, 59, 71
2, 181475, Control_c, 0, 64, 127
2, 181740, Note_on_c, 0, 59, 0
2, 181814, Control_c, 0, 64, 0
2, 181820, Note_on_c, 0, 63, 0
2, 181824, Note_on_c, 0, 45, 93
2, 181839, Note_on_c, 0, 65, 0
2, 181888, Control_c, 0, 64, 127
2, 181945, Note_on_c, 0, 68, 0
2, 181962, Note_on_c, 0, 45, 0
2, 182070, Note_on_c, 0, 54, 43
2, 182086, Note_on_c, 0, 54, 0
2, 182134, Note_on_c, 0, 73, 86
2, 182134, Note_on_c, 0, 55, 86
2, 182137, Note_on_c, 0, 76, 81
2, 182137, Note_on_c, 0, 81, 81
2, 182137, Note_on_c, 0, 61, 77
2, 182140, Note_on_c, 0, 69, 87
2, 182140, Note_on_c, 0, 66, 80
2, 182147, Note_on_c, 0, 79, 56
2, 182160, Control_c, 0, 64, 0
2, 182163, Note_on_c, 0, 79, 0
2, 182220, Control_c, 0, 64, 127
2, 182284, Note_on_c, 0, 69, 0
2, 182297, Note_on_c, 0, 73, 0
2, 182297, Note_on_c, 0, 55, 0
2, 182303, Note_on_c, 0, 76, 0
2, 182313, Note_on_c, 0, 66, 0
2, 182319, Note_on_c, 0, 81, 0
2, 182329, Note_on_c, 0, 61, 0
2, 182396, Control_c, 0, 64, 0
2, 182396, Note_on_c, 0, 66, 88
2, 182396, Note_on_c, 0, 61, 80
2, 182396, Note_on_c, 0, 84, 86
2, 182400, Note_on_c, 0, 72, 67
2, 182403, Note_on_c, 0, 55, 86
2, 182441, Control_c, 0, 64, 127
2, 182486, Note_on_c, 0, 72, 0
2, 182524, Note_on_c, 0, 84, 0
2, 182534, Note_on_c, 0, 55, 0
2, 182543, Note_on_c, 0, 66, 0
2, 182572, Note_on_c, 0, 61, 0
2, 182681, Note_on_c, 0, 87, 64
2, 182681, Note_on_c, 0, 91, 63
2, 182684, Note_on_c, 0, 53, 80
2, 182684, Note_on_c, 0, 63, 76
2, 182684, Note_on_c, 0, 79, 63
2, 182691, Note_on_c, 0, 58, 66
2, 182700, Control_c, 0, 64, 0
2, 182764, Control_c, 0, 64, 127
2, 182790, Note_on_c, 0, 79, 0
2, 182806, Note_on_c, 0, 91, 0
2, 182809, Note_on_c, 0, 53, 0
2, 182815, Note_on_c, 0, 87, 0
2, 182845, Note_on_c, 0, 58, 0
2, 182866, Note_on_c, 0, 63, 0
2, 182963, Note_on_c, 0, 94, 68
2, 182966, Note_on_c, 0, 65, 69
2, 182972, Note_on_c, 0, 55, 63
2, 182972, Note_on_c, 0, 82, 42
2, 182972, Note_on_c, 0, 87, 58
2, 182976, Note_on_c, 0, 60, 63
2, 182979, Control_c, 0, 64, 0
2, 183097, Control_c, 0, 64, 127
2, 183126, Note_on_c, 0, 55, 0
2, 183132, Note_on_c, 0, 87, 0
2, 183132, Note_on_c, 0, 65, 0
2, 183136, Note_on_c, 0, 94, 0
2, 183142, Note_on_c, 0, 60, 0
2, 183158, Note_on_c, 0, 82, 0
2, 183276, Note_on_c, 0, 63, 59
2, 183280, Note_on_c, 0, 91, 61
2, 183283, Note_on_c, 0, 87, 57
2, 183286, Note_on_c, 0, 53, 47
2, 183286, Note_on_c, 0, 79, 46
2, 183289, Note_on_c, 0, 58, 53
2, 183305, Control_c, 0, 64, 0
2, 183356, Control_c, 0, 64, 127
2, 183385, Note_on_c, 0, 53, 0
2, 183401, Note_on_c, 0, 58, 0
2, 183414, Note_on_c, 0, 91, 0
2, 183430, Note_on_c, 0, 63, 0
2, 183446, Note_on_c, 0, 87, 0
2, 183446, Note_on_c, 0, 79, 0
2, 183545, Note_on_c, 0, 66, 52
2, 183548, Note_on_c, 0, 89, 58
2, 183548, Note_on_c, 0, 62, 52
2, 183548, Note_on_c, 0, 77, 44
2, 183552, Note_on_c, 0, 56, 41
2, 183561, Control_c, 0, 64, 0
2, 183689, Control_c, 0, 64, 127
2, 183824, Note_on_c, 0, 56, 0
2, 183826, Note_on_c, 0, 62, 0
2, 183830, Note_on_c, 0, 66, 0
2, 183836, Note_on_c, 0, 89, 0
2, 183839, Note_on_c, 0, 77, 0
2, 184041, Note_on_c, 0, 66, 68
2, 184041, Note_on_c, 0, 94, 70
2, 184044, Note_on_c, 0, 62, 56
2, 184044, Note_on_c, 0, 82, 68
2, 184051, Note_on_c, 0, 56, 43
2, 184063, Note_on_c, 0, 62, 0
2, 184064, Control_c, 0, 64, 0
2, 184070, Note_on_c, 0, 82, 0
2, 184073, Note_on_c, 0, 66, 0
2, 184073, Note_on_c, 0, 94, 0
2, 184089, Note_on_c, 0, 56, 0
2, 184153, Control_c, 0, 64, 127
2, 184195, Note_on_c, 0, 89, 59
2, 184198, Note_on_c, 0, 66, 54
2, 184198, Note_on_c, 0, 56, 55
2, 184201, Note_on_c, 0, 77, 40
2, 184201, Note_on_c, 0, 62, 40
2, 184237, Note_on_c, 0, 89, 0
2, 184249, Note_on_c, 0, 77, 0
2, 184252, Note_on_c, 0, 66, 0
2, 184262, Note_on_c, 0, 62, 0
2, 184272, Note_on_c, 0, 56, 0
2, 184326, Note_on_c, 0, 65, 61
2, 184329, Note_on_c, 0, 62, 42
2, 184332, Note_on_c, 0, 87, 57
2, 184336, Note_on_c, 0, 60, 54
2, 184339, Note_on_c, 0, 55, 65
2, 184342, Note_on_c, 0, 75, 48
2, 184345, Control_c, 0, 64, 0
2, 184499, Control_c, 0, 64, 127
2, 184601, Note_on_c, 0, 87, 0
2, 184614, Note_on_c, 0, 65, 0
2, 184617, Note_on_c, 0, 75, 0
2, 184623, Note_on_c, 0, 62, 0
2, 184643, Note_on_c, 0, 60, 0
2, 184669, Note_on_c, 0, 55, 0
2, 184790, Note_on_c, 0, 70, 52
2, 184793, Note_on_c, 0, 65, 62
2, 184793, Note_on_c, 0, 60, 59
2, 184796, Note_on_c, 0, 55, 46
2, 184851, Note_on_c, 0, 60, 0
2, 184851, Note_on_c, 0, 70, 0
2, 184851, Note_on_c, 0, 65, 0
2, 184860, Note_on_c, 0, 55, 0
2, 184876, Note_on_c, 0, 54, 48
2, 184892, Control_c, 0, 64, 0
2, 184985, Note_on_c, 0, 70, 62
2, 184992, Note_on_c, 0, 60, 48
2, 184998, Note_on_c, 0, 54, 0
2, 184998, Note_on_c, 0, 65, 60
2, 185004, Note_on_c, 0, 55, 59
2, 185136, Note_on_c, 0, 60, 0
2, 185139, Note_on_c, 0, 65, 0
2, 185142, Note_on_c, 0, 70, 0
2, 185142, Note_on_c, 0, 55, 0
2, 185177, Note_on_c, 0, 70, 64
2, 185184, Note_on_c, 0, 60, 60
2, 185187, Note_on_c, 0, 55, 51
2, 185190, Note_on_c, 0, 65, 55
2, 185235, Note_on_c, 0, 65, 0
2, 185238, Note_on_c, 0, 70, 0
2, 185242, Note_on_c, 0, 60, 0
2, 185251, Note_on_c, 0, 55, 0
2, 185270, Note_on_c, 0, 54, 32
2, 185369, Note_on_c, 0, 70, 62
2, 185372, Note_on_c, 0, 54, 0
2, 185376, Note_on_c, 0, 60, 50
2, 185379, Note_on_c, 0, 55, 60
2, 185379, Note_on_c, 0, 65, 63
2, 185488, Control_c, 0, 64, 127
2, 185523, Note_on_c, 0, 65, 0
2, 185523, Note_on_c, 0, 60, 0
2, 185552, Note_on_c, 0, 55, 0
2, 185555, Note_on_c, 0, 70, 0
2, 185577, Note_on_c, 0, 54, 42
2, 185619, Control_c, 0, 64, 0
2, 185651, Note_on_c, 0, 70, 65
2, 185654, Note_on_c, 0, 54, 0
2, 185664, Note_on_c, 0, 60, 61
2, 185664, Note_on_c, 0, 65, 57
2, 185664, Note_on_c, 0, 55, 60
2, 185693, Note_on_c, 0, 65, 0
2, 185699, Note_on_c, 0, 70, 0
2, 185708, Control_c, 0, 64, 127
2, 185728, Note_on_c, 0, 60, 0
2, 185786, Note_on_c, 0, 55, 0
2, 185843, Note_on_c, 0, 56, 58
2, 185846, Control_c, 0, 64, 0
2, 185849, Note_on_c, 0, 65, 50
2, 185852, Note_on_c, 0, 60, 58
2, 185852, Note_on_c, 0, 53, 51
2, 185856, Note_on_c, 0, 63, 43
2, 185868, Note_on_c, 0, 60, 0
2, 185891, Note_on_c, 0, 60, 24
2, 186028, Control_c, 0, 64, 127
2, 186179, Note_on_c, 0, 60, 0
2, 186211, Note_on_c, 0, 56, 0
2, 186218, Note_on_c, 0, 63, 0
2, 186249, Note_on_c, 0, 65, 0
2, 186306, Note_on_c, 0, 53, 0
2, 186320, Note_on_c, 0, 67, 66
2, 186323, Note_on_c, 0, 56, 68
2, 186326, Note_on_c, 0, 60, 78
2, 186332, Control_c, 0, 64, 0
2, 186336, Note_on_c, 0, 52, 52
2, 186365, Note_on_c, 0, 67, 0
2, 186403, Control_c, 0, 64, 127
2, 186416, Note_on_c, 0, 56, 0
2, 186454, Note_on_c, 0, 52, 0
2, 186480, Note_on_c, 0, 68, 77
2, 186486, Note_on_c, 0, 60, 0
2, 186528, Note_on_c, 0, 68, 0
2, 186624, Note_on_c, 0, 70, 71
2, 186624, Note_on_c, 0, 58, 48
2, 186627, Note_on_c, 0, 62, 54
2, 186630, Control_c, 0, 64, 0
2, 186630, Note_on_c, 0, 50, 61
2, 186630, Note_on_c, 0, 65, 65
2, 186755, Control_c, 0, 64, 127
2, 186758, Note_on_c, 0, 50, 0
2, 186781, Note_on_c, 0, 62, 0
2, 186787, Note_on_c, 0, 58, 0
2, 186803, Note_on_c, 0, 65, 0
2, 186858, Note_on_c, 0, 70, 0
2, 186998, Note_on_c, 0, 67, 64
2, 187001, Note_on_c, 0, 56, 51
2, 187004, Control_c, 0, 64, 0
2, 187004, Note_on_c, 0, 62, 52
2, 187088, Control_c, 0, 64, 127
2, 187158, Control_c, 0, 64, 0
2, 187184, Control_c, 0, 64, 127
2, 187250, Note_on_c, 0, 62, 0
2, 187251, Note_on_c, 0, 67, 0
2, 187292, Note_on_c, 0, 82, 76
2, 187311, Note_on_c, 0, 56, 0
2, 187343, Note_on_c, 0, 82, 0
2, 187356, Note_on_c, 0, 80, 58
2, 187382, Control_c, 0, 64, 0
2, 187391, Note_on_c, 0, 80, 0
2, 187417, Note_on_c, 0, 60, 44
2, 187417, Note_on_c, 0, 65, 47
2, 187417, Note_on_c, 0, 61, 42
2, 187424, Note_on_c, 0, 82, 82
2, 187427, Note_on_c, 0, 55, 45
2, 187561, Control_c, 0, 64, 127
2, 187753, Note_on_c, 0, 65, 0
2, 187782, Note_on_c, 0, 60, 0
2, 187785, Note_on_c, 0, 61, 0
2, 187808, Note_on_c, 0, 55, 0
2, 187834, Note_on_c, 0, 82, 0
2, 187881, Note_on_c, 0, 80, 74
2, 187939, Note_on_c, 0, 80, 0
2, 187961, Control_c, 0, 64, 0
2, 187964, Note_on_c, 0, 78, 56
2, 187971, Note_on_c, 0, 63, 48
2, 187980, Note_on_c, 0, 58, 43
2, 187980, Note_on_c, 0, 52, 46
2, 187990, Note_on_c, 0, 79, 68
2, 188009, Note_on_c, 0, 78, 0
2, 188047, Note_on_c, 0, 52, 0
2, 188060, Note_on_c, 0, 58, 0
2, 188064, Note_on_c, 0, 63, 0
2, 188070, Note_on_c, 0, 79, 0
2, 188332, Note_on_c, 0, 69, 57
2, 188339, Note_on_c, 0, 58, 38
2, 188355, Note_on_c, 0, 64, 43
2, 188406, Note_on_c, 0, 69, 0
2, 188409, Note_on_c, 0, 64, 0
2, 188435, Note_on_c, 0, 58, 0
2, 188636, Note_on_c, 0, 63, 41
2, 188636, Note_on_c, 0, 52, 53
2, 188643, Note_on_c, 0, 58, 45
2, 188796, Note_on_c, 0, 52, 0
2, 188845, Note_on_c, 0, 58, 0
2, 188847, Note_on_c, 0, 63, 0
2, 188908, Note_on_c, 0, 63, 40
2, 188918, Note_on_c, 0, 56, 43
2, 188928, Note_on_c, 0, 60, 46
2, 188931, Note_on_c, 0, 53, 32
2, 188950, Note_on_c, 0, 60, 0
2, 188976, Note_on_c, 0, 53, 0
2, 188982, Note_on_c, 0, 63, 0
2, 189014, Note_on_c, 0, 56, 0
2, 189123, Note_on_c, 0, 77, 70
2, 189126, Note_on_c, 0, 65, 63
2, 189177, Note_on_c, 0, 65, 0
2, 189187, Note_on_c, 0, 77, 0
2, 189228, Note_on_c, 0, 75, 39
2, 189254, Note_on_c, 0, 75, 0
2, 189318, Note_on_c, 0, 65, 80
2, 189321, Note_on_c, 0, 77, 82
2, 189324, Note_on_c, 0, 63, 44
2, 189344, Note_on_c, 0, 56, 31
2, 189382, Note_on_c, 0, 77, 0
2, 189395, Note_on_c, 0, 65, 0
2, 189420, Note_on_c, 0, 63, 0
2, 189424, Note_on_c, 0, 77, 52
2, 189440, Note_on_c, 0, 65, 46
2, 189472, Note_on_c, 0, 65, 0
2, 189485, Note_on_c, 0, 56, 0
2, 189488, Note_on_c, 0, 77, 0
2, 189532, Note_on_c, 0, 75, 31
2, 189577, Note_on_c, 0, 75, 0
2, 189616, Note_on_c, 0, 75, 66
2, 189693, Note_on_c, 0, 75, 0
2, 189712, Note_on_c, 0, 67, 30
2, 189712, Note_on_c, 0, 56, 31
2, 189712, Note_on_c, 0, 74, 61
2, 189715, Note_on_c, 0, 62, 39
2, 189763, Note_on_c, 0, 74, 0
2, 189808, Note_on_c, 0, 74, 52
2, 189875, Note_on_c, 0, 74, 0
2, 189907, Note_on_c, 0, 72, 28
2, 189917, Note_on_c, 0, 67, 0
2, 189923, Note_on_c, 0, 62, 0
2, 189923, Note_on_c, 0, 56, 0
2, 189949, Note_on_c, 0, 72, 0
2, 190003, Note_on_c, 0, 72, 62
2, 190051, Note_on_c, 0, 72, 0
2, 190092, Note_on_c, 0, 67, 33
2, 190096, Note_on_c, 0, 56, 31
2, 190096, Note_on_c, 0, 70, 56
2, 190105, Note_on_c, 0, 62, 34
2, 190172, Note_on_c, 0, 67, 0
2, 190176, Control_c, 0, 64, 127
2, 190185, Note_on_c, 0, 62, 0
2, 190192, Note_on_c, 0, 56, 0
2, 190220, Control_c, 0, 64, 0
2, 190259, Note_on_c, 0, 70, 0
2, 190275, Note_on_c, 0, 69, 56
2, 190284, Note_on_c, 0, 66, 32
2, 190284, Note_on_c, 0, 56, 32
2, 190294, Note_on_c, 0, 62, 21
2, 190297, Control_c, 0, 64, 127
2, 190351, Note_on_c, 0, 66, 0
2, 190352, Note_on_c, 0, 62, 0
2, 190367, Note_on_c, 0, 56, 0
2, 190377, Note_on_c, 0, 69, 0
2, 190400, Note_on_c, 0, 70, 53
2, 190403, Note_on_c, 0, 65, 39
2, 190403, Control_c, 0, 64, 0
2, 190412, Note_on_c, 0, 62, 41
2, 190422, Note_on_c, 0, 60, 40
2, 190428, Note_on_c, 0, 55, 44
2, 190499, Control_c, 0, 64, 127
2, 190601, Control_c, 0, 64, 0
2, 190620, Control_c, 0, 64, 127
2, 190691, Note_on_c, 0, 60, 0
2, 190703, Note_on_c, 0, 62, 0
2, 190717, Note_on_c, 0, 65, 0
2, 190730, Note_on_c, 0, 70, 0
2, 190892, Note_on_c, 0, 55, 0
2, 190947, Note_on_c, 0, 72, 70
2, 190963, Control_c, 0, 64, 0
2, 190989, Note_on_c, 0, 72, 0
2, 191043, Note_on_c, 0, 77, 38
2, 191117, Note_on_c, 0, 77, 0
2, 191139, Note_on_c, 0, 82, 73
2, 191197, Note_on_c, 0, 82, 0
2, 191228, Note_on_c, 0, 63, 48
2, 191228, Note_on_c, 0, 58, 43
2, 191232, Note_on_c, 0, 52, 56
2, 191235, Note_on_c, 0, 84, 86
2, 191286, Note_on_c, 0, 84, 0
2, 191331, Note_on_c, 0, 82, 43
2, 191373, Note_on_c, 0, 82, 0
2, 191424, Note_on_c, 0, 84, 87
2, 191427, Note_on_c, 0, 72, 86
2, 191586, Note_on_c, 0, 63, 0
2, 191590, Note_on_c, 0, 84, 0
2, 191606, Note_on_c, 0, 72, 0
2, 191625, Note_on_c, 0, 82, 56
2, 191654, Note_on_c, 0, 52, 0
2, 191673, Note_on_c, 0, 58, 0
2, 191711, Note_on_c, 0, 82, 0
2, 191731, Note_on_c, 0, 77, 42
2, 191734, Note_on_c, 0, 63, 41
2, 191740, Note_on_c, 0, 58, 38
2, 191747, Note_on_c, 0, 52, 35
2, 191885, Note_on_c, 0, 52, 0
2, 191910, Note_on_c, 0, 58, 0
2, 191926, Note_on_c, 0, 63, 0
2, 191993, Note_on_c, 0, 63, 32
2, 192009, Note_on_c, 0, 60, 46
2, 192012, Note_on_c, 0, 53, 30
2, 192016, Note_on_c, 0, 56, 33
2, 192153, Note_on_c, 0, 77, 0
2, 192182, Control_c, 0, 64, 127
2, 192255, Note_on_c, 0, 60, 0
2, 192265, Note_on_c, 0, 63, 0
2, 192300, Note_on_c, 0, 77, 72
2, 192304, Note_on_c, 0, 65, 70
2, 192316, Note_on_c, 0, 60, 46
2, 192354, Note_on_c, 0, 60, 0
2, 192358, Note_on_c, 0, 65, 0
2, 192364, Note_on_c, 0, 77, 0
2, 192422, Note_on_c, 0, 56, 0
2, 192434, Note_on_c, 0, 53, 0
2, 192480, Note_on_c, 0, 79, 89
2, 192480, Note_on_c, 0, 67, 94
2, 192483, Note_on_c, 0, 63, 60
2, 192489, Note_on_c, 0, 60, 46
2, 192492, Note_on_c, 0, 56, 26
2, 192508, Note_on_c, 0, 60, 0
2, 192544, Note_on_c, 0, 67, 0
2, 192547, Note_on_c, 0, 79, 0
2, 192576, Note_on_c, 0, 63, 0
2, 192594, Note_on_c, 0, 56, 0
2, 192624, Note_on_c, 0, 68, 92
2, 192624, Note_on_c, 0, 80, 84
2, 192672, Note_on_c, 0, 68, 0
2, 192685, Note_on_c, 0, 80, 0
2, 192764, Note_on_c, 0, 82, 73
2, 192777, Note_on_c, 0, 70, 82
2, 192780, Note_on_c, 0, 56, 61
2, 192784, Note_on_c, 0, 62, 54
2, 192784, Note_on_c, 0, 67, 58
2, 192790, Control_c, 0, 64, 0
2, 192838, Note_on_c, 0, 82, 0
2, 192844, Note_on_c, 0, 70, 0
2, 192848, Note_on_c, 0, 71, 54
2, 192906, Note_on_c, 0, 71, 0
2, 192918, Note_on_c, 0, 83, 61
2, 192963, Note_on_c, 0, 71, 38
2, 192976, Note_on_c, 0, 83, 0
2, 193001, Note_on_c, 0, 71, 0
2, 193002, Note_on_c, 0, 67, 0
2, 193018, Note_on_c, 0, 62, 0
2, 193030, Note_on_c, 0, 56, 0
2, 193260, Note_on_c, 0, 82, 70
2, 193264, Note_on_c, 0, 56, 53
2, 193270, Note_on_c, 0, 70, 45
2, 193270, Note_on_c, 0, 67, 40
2, 193276, Note_on_c, 0, 62, 37
2, 193286, Note_on_c, 0, 70, 0
2, 193289, Note_on_c, 0, 67, 0
2, 193302, Note_on_c, 0, 62, 0
2, 193302, Note_on_c, 0, 82, 0
2, 193322, Note_on_c, 0, 56, 0
2, 193446, Note_on_c, 0, 56, 56
2, 193449, Note_on_c, 0, 66, 45
2, 193452, Note_on_c, 0, 70, 43
2, 193462, Note_on_c, 0, 81, 45
2, 193481, Note_on_c, 0, 70, 0
2, 193491, Note_on_c, 0, 66, 0
2, 193510, Note_on_c, 0, 56, 0
2, 193513, Note_on_c, 0, 81, 0
2, 193548, Note_on_c, 0, 65, 50
2, 193552, Note_on_c, 0, 82, 62
2, 193555, Note_on_c, 0, 70, 52
2, 193558, Note_on_c, 0, 61, 44
2, 193558, Note_on_c, 0, 60, 43
2, 193577, Note_on_c, 0, 55, 38
2, 193740, Control_c, 0, 64, 127
2, 193894, Note_on_c, 0, 82, 0
2, 193907, Note_on_c, 0, 70, 0
2, 193913, Note_on_c, 0, 55, 0
2, 193919, Note_on_c, 0, 65, 0
2, 193923, Note_on_c, 0, 61, 0
2, 193939, Note_on_c, 0, 60, 0
2, 194019, Note_on_c, 0, 68, 50
2, 194025, Note_on_c, 0, 80, 31
2, 194025, Note_on_c, 0, 61, 31
2, 194054, Note_on_c, 0, 61, 0
2, 194063, Note_on_c, 0, 80, 0
2, 194073, Note_on_c, 0, 68, 0
2, 194115, Note_on_c, 0, 55, 40
2, 194118, Note_on_c, 0, 65, 40
2, 194121, Note_on_c, 0, 61, 42
2, 194121, Note_on_c, 0, 79, 58
2, 194124, Control_c, 0, 64, 0
2, 194124, Note_on_c, 0, 67, 36
2, 194160, Note_on_c, 0, 65, 0
2, 194162, Note_on_c, 0, 67, 0
2, 194169, Note_on_c, 0, 79, 0
2, 194172, Note_on_c, 0, 61, 0
2, 194185, Note_on_c, 0, 55, 0
2, 194307, Control_c, 0, 64, 127
2, 194672, Control_c, 0, 64, 0
2, 194684, Note_on_c, 0, 79, 90
2, 194684, Note_on_c, 0, 85, 88
2, 194684, Note_on_c, 0, 91, 84
2, 194691, Note_on_c, 0, 62, 77
2, 194691, Note_on_c, 0, 56, 46
2, 194694, Note_on_c, 0, 53, 68
2, 194694, Note_on_c, 0, 59, 57
2, 194796, Note_on_c, 0, 85, 0
2, 194803, Note_on_c, 0, 86, 45
2, 194806, Note_on_c, 0, 79, 0
2, 194809, Note_on_c, 0, 62, 0
2, 194815, Note_on_c, 0, 91, 0
2, 194816, Note_on_c, 0, 59, 0
2, 194819, Note_on_c, 0, 86, 0
2, 194819, Note_on_c, 0, 53, 0
2, 194825, Note_on_c, 0, 56, 0
2, 194886, Control_c, 0, 64, 127
2, 194947, Control_c, 0, 64, 0
2, 194988, Note_on_c, 0, 77, 80
2, 194988, Note_on_c, 0, 89, 83
2, 194988, Note_on_c, 0, 85, 80
2, 194988, Note_on_c, 0, 56, 49
2, 194992, Note_on_c, 0, 53, 72
2, 194992, Note_on_c, 0, 62, 61
2, 194995, Note_on_c, 0, 59, 60
2, 195069, Note_on_c, 0, 53, 0
2, 195071, Note_on_c, 0, 85, 0
2, 195072, Note_on_c, 0, 59, 0
2, 195078, Note_on_c, 0, 86, 56
2, 195081, Note_on_c, 0, 56, 0
2, 195081, Note_on_c, 0, 89, 0
2, 195084, Note_on_c, 0, 77, 0
2, 195094, Note_on_c, 0, 86, 0
2, 195101, Note_on_c, 0, 62, 0
2, 195270, Note_on_c, 0, 75, 83
2, 195270, Note_on_c, 0, 87, 88
2, 195273, Note_on_c, 0, 67, 64
2, 195276, Note_on_c, 0, 63, 57
2, 195276, Note_on_c, 0, 60, 63
2, 195283, Note_on_c, 0, 58, 52
2, 195420, Control_c, 0, 64, 127
2, 195564, Note_on_c, 0, 67, 0
2, 195568, Note_on_c, 0, 87, 0
2, 195577, Note_on_c, 0, 63, 0
2, 195577, Note_on_c, 0, 75, 0
2, 195577, Note_on_c, 0, 60, 0
2, 195597, Note_on_c, 0, 58, 0
2, 195769, Note_on_c, 0, 74, 67
2, 195769, Note_on_c, 0, 86, 61
2, 195791, Note_on_c, 0, 86, 0
2, 195804, Note_on_c, 0, 74, 0
2, 195859, Control_c, 0, 64, 0
2, 195862, Note_on_c, 0, 84, 57
2, 195865, Note_on_c, 0, 63, 44
2, 195865, Note_on_c, 0, 72, 55
2, 195865, Note_on_c, 0, 60, 42
2, 195881, Note_on_c, 0, 55, 24
2, 195900, Note_on_c, 0, 72, 0
2, 195904, Note_on_c, 0, 84, 0
2, 195910, Note_on_c, 0, 55, 0
2, 195913, Note_on_c, 0, 63, 0
2, 195929, Note_on_c, 0, 60, 0
2, 196044, Note_on_c, 0, 84, 76
2, 196044, Note_on_c, 0, 60, 60
2, 196044, Note_on_c, 0, 63, 65
2, 196048, Note_on_c, 0, 72, 64
2, 196054, Note_on_c, 0, 55, 46
2, 196057, Note_on_c, 0, 57, 46
2, 196198, Control_c, 0, 64, 127
2, 196271, Note_on_c, 0, 63, 0
2, 196300, Note_on_c, 0, 57, 0
2, 196306, Note_on_c, 0, 60, 0
2, 196307, Note_on_c, 0, 72, 0
2, 196313, Note_on_c, 0, 55, 0
2, 196313, Note_on_c, 0, 84, 0
2, 196537, Note_on_c, 0, 86, 66
2, 196537, Note_on_c, 0, 74, 68
2, 196563, Note_on_c, 0, 86, 0
2, 196566, Note_on_c, 0, 74, 0
2, 196640, Control_c, 0, 64, 0
2, 196646, Note_on_c, 0, 54, 43
2, 196646, Note_on_c, 0, 86, 73
2, 196649, Note_on_c, 0, 59, 52
2, 196649, Note_on_c, 0, 74, 68
2, 196649, Note_on_c, 0, 62, 40
2, 196758, Note_on_c, 0, 86, 0
2, 196761, Control_c, 0, 64, 127
2, 196787, Note_on_c, 0, 74, 0
2, 196819, Note_on_c, 0, 62, 0
2, 196819, Note_on_c, 0, 59, 0
2, 196832, Note_on_c, 0, 54, 0
2, 196905, Note_on_c, 0, 54, 55
2, 196905, Note_on_c, 0, 83, 61
2, 196908, Control_c, 0, 64, 0
2, 196908, Note_on_c, 0, 71, 55
2, 196908, Note_on_c, 0, 62, 45
2, 196915, Note_on_c, 0, 59, 39
2, 196969, Note_on_c, 0, 83, 0
2, 196969, Control_c, 0, 64, 127
2, 196994, Note_on_c, 0, 71, 0
2, 197033, Note_on_c, 0, 54, 0
2, 197039, Note_on_c, 0, 62, 0
2, 197053, Note_on_c, 0, 59, 0
2, 197174, Note_on_c, 0, 78, 59
2, 197180, Note_on_c, 0, 62, 49
2, 197180, Note_on_c, 0, 66, 45
2, 197184, Note_on_c, 0, 59, 43
2, 197187, Note_on_c, 0, 54, 46
2, 197187, Control_c, 0, 64, 0
2, 197273, Control_c, 0, 64, 127
2, 197318, Note_on_c, 0, 62, 0
2, 197328, Note_on_c, 0, 78, 0
2, 197331, Note_on_c, 0, 59, 0
2, 197353, Note_on_c, 0, 66, 0
2, 197366, Note_on_c, 0, 54, 0
2, 197571, Note_on_c, 0, 68, 55
2, 197577, Note_on_c, 0, 62, 36
2, 197580, Note_on_c, 0, 59, 41
2, 197587, Note_on_c, 0, 53, 50
2, 197587, Note_on_c, 0, 65, 42
2, 197628, Control_c, 0, 64, 0
2, 197689, Note_on_c, 0, 68, 0
2, 197693, Note_on_c, 0, 65, 0
2, 197696, Control_c, 0, 64, 127
2, 197699, Note_on_c, 0, 62, 0
2, 197730, Note_on_c, 0, 59, 0
2, 197801, Note_on_c, 0, 53, 0
2, 197859, Note_on_c, 0, 56, 45
2, 197865, Note_on_c, 0, 62, 42
2, 197868, Note_on_c, 0, 65, 46
2, 197875, Note_on_c, 0, 59, 43
2, 197878, Control_c, 0, 64, 0
2, 197884, Note_on_c, 0, 50, 41
2, 197936, Note_on_c, 0, 59, 0
2, 197939, Control_c, 0, 64, 127
2, 198038, Note_on_c, 0, 62, 0
2, 198060, Note_on_c, 0, 65, 0
2, 198083, Note_on_c, 0, 56, 0
2, 198118, Note_on_c, 0, 50, 0
2, 198134, Control_c, 0, 64, 0
2, 198134, Note_on_c, 0, 63, 39
2, 198144, Note_on_c, 0, 55, 41
2, 198147, Note_on_c, 0, 60, 43
2, 198160, Note_on_c, 0, 48, 30
2, 198211, Control_c, 0, 64, 127
2, 198250, Note_on_c, 0, 55, 0
2, 198278, Note_on_c, 0, 60, 0
2, 198291, Note_on_c, 0, 48, 0
2, 198326, Note_on_c, 0, 63, 0
2, 198630, Note_on_c, 0, 79, 72
2, 198633, Note_on_c, 0, 55, 64
2, 198697, Note_on_c, 0, 79, 0
2, 198697, Control_c, 0, 64, 0
2, 198719, Note_on_c, 0, 55, 0
2, 198729, Note_on_c, 0, 56, 86
2, 198729, Note_on_c, 0, 80, 75
2, 198774, Control_c, 0, 64, 127
2, 198879, Note_on_c, 0, 80, 0
2, 198886, Note_on_c, 0, 56, 0
2, 199110, Control_c, 0, 64, 0
2, 199113, Note_on_c, 0, 53, 76
2, 199116, Note_on_c, 0, 63, 77
2, 199120, Note_on_c, 0, 58, 71
2, 199241, Control_c, 0, 64, 127
2, 199263, Note_on_c, 0, 53, 0
2, 199308, Note_on_c, 0, 63, 0
2, 199334, Note_on_c, 0, 58, 0
2, 199401, Note_on_c, 0, 51, 61
2, 199401, Note_on_c, 0, 62, 64
2, 199408, Note_on_c, 0, 57, 59
2, 199433, Control_c, 0, 64, 0
2, 199491, Control_c, 0, 64, 127
2, 199546, Note_on_c, 0, 57, 0
2, 199567, Note_on_c, 0, 51, 0
2, 199599, Note_on_c, 0, 62, 0
2, 199676, Note_on_c, 0, 67, 60
2, 199676, Note_on_c, 0, 53, 50
2, 199680, Note_on_c, 0, 63, 48
2, 199686, Note_on_c, 0, 59, 52
2, 199699, Control_c, 0, 64, 0
2, 199817, Control_c, 0, 64, 127
2, 199868, Note_on_c, 0, 53, 0
2, 199872, Note_on_c, 0, 59, 0
2, 199904, Note_on_c, 0, 63, 0
2, 199919, Note_on_c, 0, 67, 0
2, 199945, Note_on_c, 0, 68, 73
2, 200044, Note_on_c, 0, 68, 0
2, 200252, Note_on_c, 0, 70, 84
2, 200256, Note_on_c, 0, 59, 78
2, 200256, Note_on_c, 0, 65, 74
2, 200265, Control_c, 0, 64, 0
2, 200342, Control_c, 0, 64, 127
2, 200374, Note_on_c, 0, 59, 0
2, 200378, Note_on_c, 0, 65, 0
2, 200386, Note_on_c, 0, 70, 0
2, 200560, Note_on_c, 0, 67, 68
2, 200560, Note_on_c, 0, 62, 65
2, 200563, Note_on_c, 0, 56, 66
2, 200579, Control_c, 0, 64, 0
2, 200640, Control_c, 0, 64, 127
2, 200656, Note_on_c, 0, 67, 0
2, 200659, Note_on_c, 0, 62, 0
2, 200691, Note_on_c, 0, 56, 0
2, 200851, Control_c, 0, 64, 0
2, 200867, Note_on_c, 0, 64, 33
2, 200883, Note_on_c, 0, 64, 0
2, 201030, Note_on_c, 0, 63, 61
2, 201033, Note_on_c, 0, 59, 56
2, 201040, Note_on_c, 0, 53, 42
2, 201056, Control_c, 0, 64, 127
2, 201069, Note_on_c, 0, 53, 0
2, 201075, Note_on_c, 0, 59, 0
2, 201116, Note_on_c, 0, 63, 0
2, 201216, Note_on_c, 0, 62, 47
2, 201216, Note_on_c, 0, 51, 40
2, 201228, Note_on_c, 0, 55, 48
2, 201241, Control_c, 0, 64, 0
2, 201398, Control_c, 0, 64, 127
2, 201593, Note_on_c, 0, 67, 65
2, 201602, Note_on_c, 0, 55, 0
2, 201616, Note_on_c, 0, 62, 0
2, 201616, Note_on_c, 0, 51, 0
2, 201721, Note_on_c, 0, 74, 81
2, 201731, Note_on_c, 0, 63, 66
2, 201750, Control_c, 0, 64, 0
2, 201865, Note_on_c, 0, 58, 83
2, 201926, Control_c, 0, 64, 127
2, 201974, Note_on_c, 0, 58, 0
2, 201990, Control_c, 0, 64, 0
2, 202006, Note_on_c, 0, 58, 77
2, 202044, Control_c, 0, 64, 127
2, 202045, Note_on_c, 0, 63, 0
2, 202073, Note_on_c, 0, 67, 0
2, 202147, Note_on_c, 0, 67, 46
2, 202147, Note_on_c, 0, 63, 55
2, 202150, Control_c, 0, 64, 0
2, 202176, Control_c, 0, 64, 127
2, 202320, Note_on_c, 0, 62, 97
2, 202332, Control_c, 0, 64, 0
2, 202380, Control_c, 0, 64, 127
2, 202416, Note_on_c, 0, 58, 0
2, 202602, Note_on_c, 0, 62, 0
2, 202621, Note_on_c, 0, 63, 0
2, 202623, Note_on_c, 0, 74, 0
2, 202672, Note_on_c, 0, 72, 56
2, 202685, Note_on_c, 0, 67, 0
2, 202720, Note_on_c, 0, 72, 0
2, 202768, Note_on_c, 0, 65, 50
2, 202768, Note_on_c, 0, 63, 40
2, 202774, Note_on_c, 0, 60, 51
2, 202777, Note_on_c, 0, 53, 38
2, 202780, Note_on_c, 0, 72, 42
2, 202784, Control_c, 0, 64, 0
2, 202787, Note_on_c, 0, 56, 39
2, 202902, Control_c, 0, 64, 127
2, 202956, Note_on_c, 0, 60, 0
2, 202959, Note_on_c, 0, 53, 0
2, 202960, Note_on_c, 0, 65, 0
2, 202982, Note_on_c, 0, 63, 0
2, 203017, Note_on_c, 0, 72, 0
2, 203017, Note_on_c, 0, 56, 0
2, 203305, Note_on_c, 0, 91, 79
2, 203315, Note_on_c, 0, 87, 77
2, 203334, Note_on_c, 0, 84, 60
2, 203344, Control_c, 0, 64, 0
2, 203350, Note_on_c, 0, 56, 48
2, 203350, Note_on_c, 0, 63, 44
2, 203356, Note_on_c, 0, 67, 38
2, 203363, Note_on_c, 0, 60, 55
2, 203388, Note_on_c, 0, 79, 61
2, 203440, Control_c, 0, 64, 127
2, 203663, Note_on_c, 0, 91, 0
2, 203664, Note_on_c, 0, 84, 0
2, 203673, Note_on_c, 0, 87, 0
2, 203705, Note_on_c, 0, 79, 0
2, 203791, Note_on_c, 0, 67, 0
2, 203811, Note_on_c, 0, 60, 0
2, 203820, Note_on_c, 0, 63, 0
2, 203852, Note_on_c, 0, 56, 0
2, 204073, Note_on_c, 0, 67, 57
2, 204083, Note_on_c, 0, 56, 60
2, 204086, Note_on_c, 0, 60, 63
2, 204086, Note_on_c, 0, 55, 61
2, 204099, Note_on_c, 0, 63, 34
2, 204108, Control_c, 0, 64, 0
2, 204156, Note_on_c, 0, 67, 0
2, 204166, Note_on_c, 0, 60, 0
2, 204182, Note_on_c, 0, 55, 0
2, 204185, Note_on_c, 0, 56, 0
2, 204192, Note_on_c, 0, 54, 43
2, 204195, Note_on_c, 0, 63, 0
2, 204259, Note_on_c, 0, 54, 0
2, 204272, Note_on_c, 0, 56, 38
2, 204281, Note_on_c, 0, 65, 48
2, 204284, Note_on_c, 0, 53, 39
2, 204284, Note_on_c, 0, 60, 57
2, 204288, Note_on_c, 0, 63, 40
2, 204662, Control_c, 0, 64, 127
2, 204682, Note_on_c, 0, 56, 0
2, 204687, Note_on_c, 0, 60, 0
2, 204710, Note_on_c, 0, 65, 0
2, 204735, Note_on_c, 0, 53, 0
2, 204736, Note_on_c, 0, 63, 0
2, 205251, Note_on_c, 0, 72, 93
2, 205251, Note_on_c, 0, 62, 87
2, 205254, Note_on_c, 0, 65, 87
2, 205254, Note_on_c, 0, 60, 89
2, 205254, Note_on_c, 0, 66, 36
2, 205260, Note_on_c, 0, 56, 83
2, 205280, Control_c, 0, 64, 0
2, 205385, Control_c, 0, 64, 127
2, 205472, Note_on_c, 0, 66, 0
2, 205475, Note_on_c, 0, 60, 0
2, 205478, Note_on_c, 0, 62, 0
2, 205481, Note_on_c, 0, 56, 0
2, 205488, Note_on_c, 0, 65, 0
2, 205507, Note_on_c, 0, 72, 0
2, 205548, Note_on_c, 0, 70, 73
2, 205555, Note_on_c, 0, 65, 55
2, 205558, Note_on_c, 0, 60, 37
2, 205558, Note_on_c, 0, 62, 41
2, 205558, Note_on_c, 0, 56, 57
2, 205580, Control_c, 0, 64, 0
2, 205625, Control_c, 0, 64, 127
2, 205641, Note_on_c, 0, 60, 0
2, 205644, Note_on_c, 0, 62, 0
2, 205709, Note_on_c, 0, 65, 0
2, 205730, Note_on_c, 0, 70, 0
2, 205737, Note_on_c, 0, 56, 0
2, 205811, Control_c, 0, 64, 0
2, 205814, Note_on_c, 0, 61, 49
2, 205817, Note_on_c, 0, 70, 58
2, 205824, Note_on_c, 0, 55, 53
2, 205824, Note_on_c, 0, 65, 53
2, 205894, Control_c, 0, 64, 127
2, 206032, Note_on_c, 0, 61, 0
2, 206038, Note_on_c, 0, 65, 0
2, 206054, Note_on_c, 0, 55, 0
2, 206124, Note_on_c, 0, 70, 0
2, 206396, Note_on_c, 0, 79, 88
2, 206396, Note_on_c, 0, 53, 64
2, 206400, Note_on_c, 0, 75, 81
2, 206400, Note_on_c, 0, 70, 85
2, 206400, Note_on_c, 0, 64, 63
2, 206403, Note_on_c, 0, 59, 61
2, 206409, Control_c, 0, 64, 0
2, 206521, Control_c, 0, 64, 127
2, 206553, Note_on_c, 0, 79, 0
2, 206563, Note_on_c, 0, 64, 0
2, 206569, Note_on_c, 0, 53, 0
2, 206573, Note_on_c, 0, 59, 0
2, 206579, Note_on_c, 0, 75, 0
2, 206586, Note_on_c, 0, 70, 0
2, 206694, Note_on_c, 0, 80, 73
2, 206697, Note_on_c, 0, 70, 70
2, 206700, Note_on_c, 0, 63, 65
2, 206700, Note_on_c, 0, 76, 56
2, 206704, Note_on_c, 0, 73, 61
2, 206707, Note_on_c, 0, 58, 54
2, 206707, Note_on_c, 0, 52, 60
2, 206716, Control_c, 0, 64, 0
2, 206803, Control_c, 0, 64, 127
2, 206819, Note_on_c, 0, 73, 0
2, 206822, Note_on_c, 0, 76, 0
2, 206841, Note_on_c, 0, 80, 0
2, 206844, Note_on_c, 0, 70, 0
2, 206867, Note_on_c, 0, 52, 0
2, 206889, Note_on_c, 0, 63, 0
2, 206889, Note_on_c, 0, 58, 0
2, 206969, Note_on_c, 0, 63, 63
2, 206972, Note_on_c, 0, 58, 55
2, 206976, Note_on_c, 0, 80, 58
2, 206976, Note_on_c, 0, 84, 72
2, 206976, Note_on_c, 0, 72, 70
2, 206979, Note_on_c, 0, 52, 56
2, 206979, Control_c, 0, 64, 0
2, 207078, Control_c, 0, 64, 127
2, 207082, Note_on_c, 0, 72, 0
2, 207110, Note_on_c, 0, 80, 0
2, 207114, Note_on_c, 0, 84, 0
2, 207123, Note_on_c, 0, 52, 0
2, 207132, Note_on_c, 0, 58, 0
2, 207155, Note_on_c, 0, 63, 0
2, 207270, Note_on_c, 0, 92, 69
2, 207273, Note_on_c, 0, 56, 43
2, 207273, Note_on_c, 0, 80, 48
2, 207276, Note_on_c, 0, 67, 45
2, 207276, Note_on_c, 0, 87, 62
2, 207280, Note_on_c, 0, 63, 44
2, 207280, Note_on_c, 0, 60, 60
2, 207289, Control_c, 0, 64, 0
2, 207376, Control_c, 0, 64, 127
2, 207478, Note_on_c, 0, 87, 0
2, 207478, Note_on_c, 0, 80, 0
2, 207478, Note_on_c, 0, 56, 0
2, 207482, Note_on_c, 0, 60, 0
2, 207484, Note_on_c, 0, 92, 0
2, 207484, Note_on_c, 0, 67, 0
2, 207494, Note_on_c, 0, 63, 0
2, 207539, Note_on_c, 0, 92, 63
2, 207545, Note_on_c, 0, 80, 43
2, 207545, Note_on_c, 0, 67, 42
2, 207545, Note_on_c, 0, 63, 41
2, 207548, Note_on_c, 0, 87, 58
2, 207552, Note_on_c, 0, 56, 36
2, 207558, Note_on_c, 0, 60, 48
2, 207564, Control_c, 0, 64, 0
2, 207667, Control_c, 0, 64, 127
2, 207728, Note_on_c, 0, 60, 0
2, 207737, Note_on_c, 0, 67, 0
2, 207740, Note_on_c, 0, 63, 0
2, 207747, Note_on_c, 0, 80, 0
2, 207750, Note_on_c, 0, 56, 0
2, 207750, Note_on_c, 0, 87, 0
2, 207763, Note_on_c, 0, 92, 0
2, 207856, Note_on_c, 0, 92, 55
2, 207856, Note_on_c, 0, 63, 44
2, 207859, Note_on_c, 0, 67, 48
2, 207865, Note_on_c, 0, 80, 37
2, 207865, Note_on_c, 0, 56, 40
2, 207868, Note_on_c, 0, 87, 53
2, 207872, Note_on_c, 0, 60, 47
2, 207881, Control_c, 0, 64, 0
2, 207916, Control_c, 0, 64, 127
2, 207939, Note_on_c, 0, 67, 0
2, 207952, Note_on_c, 0, 60, 0
2, 207955, Note_on_c, 0, 63, 0
2, 207964, Note_on_c, 0, 80, 0
2, 207977, Note_on_c, 0, 87, 0
2, 207983, Note_on_c, 0, 56, 0
2, 207984, Note_on_c, 0, 92, 0
2, 208121, Note_on_c, 0, 63, 43
2, 208121, Note_on_c, 0, 95, 64
2, 208128, Note_on_c, 0, 58, 49
2, 208128, Note_on_c, 0, 59, 49
2, 208131, Note_on_c, 0, 83, 47
2, 208131, Note_on_c, 0, 87, 40
2, 208134, Note_on_c, 0, 54, 41
2, 208140, Control_c, 0, 64, 0
2, 208252, Control_c, 0, 64, 127
2, 208374, Note_on_c, 0, 83, 0
2, 208377, Note_on_c, 0, 95, 0
2, 208387, Note_on_c, 0, 59, 0
2, 208393, Note_on_c, 0, 63, 0
2, 208397, Note_on_c, 0, 87, 0
2, 208403, Note_on_c, 0, 58, 0
2, 208438, Note_on_c, 0, 54, 0
2, 208624, Note_on_c, 0, 63, 64
2, 208624, Note_on_c, 0, 94, 83
2, 208624, Note_on_c, 0, 82, 76
2, 208630, Note_on_c, 0, 87, 74
2, 208630, Note_on_c, 0, 59, 63
2, 208630, Note_on_c, 0, 54, 53
2, 208633, Note_on_c, 0, 58, 43
2, 208636, Control_c, 0, 64, 0
2, 208688, Control_c, 0, 64, 127
2, 208697, Note_on_c, 0, 59, 0
2, 208700, Note_on_c, 0, 87, 0
2, 208700, Note_on_c, 0, 54, 0
2, 208701, Note_on_c, 0, 94, 0
2, 208701, Note_on_c, 0, 63, 0
2, 208704, Note_on_c, 0, 82, 0
2, 208710, Note_on_c, 0, 58, 0
2, 208777, Note_on_c, 0, 92, 59
2, 208777, Note_on_c, 0, 63, 49
2, 208780, Note_on_c, 0, 87, 61
2, 208784, Note_on_c, 0, 80, 43
2, 208784, Note_on_c, 0, 54, 59
2, 208793, Note_on_c, 0, 58, 38
2, 208800, Note_on_c, 0, 59, 33
2, 208819, Note_on_c, 0, 59, 0
2, 208847, Note_on_c, 0, 63, 0
2, 208847, Note_on_c, 0, 58, 0
2, 208851, Note_on_c, 0, 92, 0
2, 208863, Note_on_c, 0, 87, 0
2, 208864, Note_on_c, 0, 80, 0
2, 208880, Note_on_c, 0, 54, 0
2, 208918, Note_on_c, 0, 62, 42
2, 208921, Note_on_c, 0, 91, 50
2, 208924, Note_on_c, 0, 58, 43
2, 208924, Note_on_c, 0, 53, 33
2, 208924, Note_on_c, 0, 79, 31
2, 208928, Note_on_c, 0, 86, 50
2, 208931, Note_on_c, 0, 55, 47
2, 208937, Control_c, 0, 64, 0
2, 209056, Control_c, 0, 64, 127
2, 209110, Note_on_c, 0, 53, 0
2, 209113, Note_on_c, 0, 62, 0
2, 209116, Note_on_c, 0, 58, 0
2, 209120, Note_on_c, 0, 55, 0
2, 209196, Note_on_c, 0, 62, 59
2, 209200, Note_on_c, 0, 58, 55
2, 209200, Control_c, 0, 64, 0
2, 209203, Note_on_c, 0, 55, 48
2, 209206, Note_on_c, 0, 53, 40
2, 209219, Note_on_c, 0, 55, 0
2, 209225, Note_on_c, 0, 62, 0
2, 209225, Note_on_c, 0, 53, 0
2, 209235, Note_on_c, 0, 58, 0
2, 209302, Note_on_c, 0, 58, 43
2, 209302, Note_on_c, 0, 62, 42
2, 209302, Note_on_c, 0, 55, 47
2, 209337, Note_on_c, 0, 62, 0
2, 209340, Control_c, 0, 64, 127
2, 209353, Note_on_c, 0, 55, 0
2, 209353, Control_c, 0, 64, 0
2, 209356, Note_on_c, 0, 58, 0
2, 209427, Note_on_c, 0, 62, 50
2, 209427, Note_on_c, 0, 58, 53
2, 209433, Note_on_c, 0, 55, 40
2, 209443, Note_on_c, 0, 62, 0
2, 209449, Note_on_c, 0, 55, 0
2, 209469, Note_on_c, 0, 58, 0
2, 209584, Note_on_c, 0, 58, 57
2, 209587, Note_on_c, 0, 63, 54
2, 209590, Note_on_c, 0, 52, 46
2, 209600, Note_on_c, 0, 63, 0
2, 209609, Note_on_c, 0, 52, 0
2, 209619, Note_on_c, 0, 58, 0
2, 209657, Note_on_c, 0, 91, 0
2, 209663, Note_on_c, 0, 79, 0
2, 209667, Note_on_c, 0, 86, 0
2, 209718, Control_c, 0, 64, 127
2, 209846, Note_on_c, 0, 90, 87
2, 209849, Note_on_c, 0, 63, 88
2, 209849, Note_on_c, 0, 78, 82
2, 209849, Note_on_c, 0, 58, 76
2, 209852, Control_c, 0, 64, 0
2, 209852, Note_on_c, 0, 52, 84
2, 209856, Note_on_c, 0, 87, 77
2, 209968, Control_c, 0, 64, 127
2, 210050, Note_on_c, 0, 52, 0
2, 210060, Note_on_c, 0, 58, 0
2, 210067, Note_on_c, 0, 63, 0
2, 210083, Note_on_c, 0, 87, 0
2, 210086, Note_on_c, 0, 90, 0
2, 210102, Note_on_c, 0, 78, 0
2, 210150, Note_on_c, 0, 63, 57
2, 210150, Note_on_c, 0, 89, 74
2, 210153, Note_on_c, 0, 58, 54
2, 210156, Note_on_c, 0, 52, 54
2, 210156, Note_on_c, 0, 77, 56
2, 210166, Control_c, 0, 64, 0
2, 210230, Control_c, 0, 64, 127
2, 210239, Note_on_c, 0, 52, 0
2, 210265, Note_on_c, 0, 89, 0
2, 210281, Note_on_c, 0, 77, 0
2, 210291, Note_on_c, 0, 58, 0
2, 210336, Note_on_c, 0, 63, 0
2, 210406, Note_on_c, 0, 63, 45
2, 210416, Note_on_c, 0, 54, 53
2, 210419, Control_c, 0, 64, 0
2, 210425, Note_on_c, 0, 90, 68
2, 210425, Note_on_c, 0, 78, 56
2, 210428, Note_on_c, 0, 57, 49
2, 210428, Note_on_c, 0, 60, 50
2, 210508, Control_c, 0, 64, 127
2, 210579, Note_on_c, 0, 90, 0
2, 210633, Note_on_c, 0, 78, 0
2, 210723, Note_on_c, 0, 63, 0
2, 210738, Note_on_c, 0, 60, 0
2, 210751, Note_on_c, 0, 57, 0
2, 211004, Note_on_c, 0, 74, 89
2, 211008, Note_on_c, 0, 66, 81
2, 211008, Note_on_c, 0, 63, 81
2, 211011, Note_on_c, 0, 69, 74
2, 211014, Note_on_c, 0, 60, 89
2, 211020, Control_c, 0, 64, 0
2, 211104, Control_c, 0, 64, 127
2, 211151, Note_on_c, 0, 74, 0
2, 211161, Note_on_c, 0, 60, 0
2, 211171, Note_on_c, 0, 69, 0
2, 211194, Note_on_c, 0, 54, 0
2, 211197, Note_on_c, 0, 66, 0
2, 211203, Note_on_c, 0, 63, 0
2, 211308, Note_on_c, 0, 69, 55
2, 211308, Note_on_c, 0, 57, 59
2, 211308, Note_on_c, 0, 63, 55
2, 211308, Note_on_c, 0, 60, 61
2, 211312, Note_on_c, 0, 66, 44
2, 211321, Control_c, 0, 64, 0
2, 211366, Control_c, 0, 64, 127
2, 211385, Note_on_c, 0, 69, 0
2, 211405, Note_on_c, 0, 66, 0
2, 211407, Note_on_c, 0, 63, 0
2, 211417, Note_on_c, 0, 57, 0
2, 211430, Note_on_c, 0, 60, 0
2, 211577, Note_on_c, 0, 66, 44
2, 211584, Note_on_c, 0, 63, 40
2, 211587, Note_on_c, 0, 57, 31
2, 211590, Note_on_c, 0, 60, 49
2, 211593, Note_on_c, 0, 54, 43
2, 211593, Control_c, 0, 64, 0
2, 211660, Control_c, 0, 64, 127
2, 211708, Note_on_c, 0, 54, 0
2, 211721, Control_c, 0, 64, 0
2, 211763, Note_on_c, 0, 42, 56
2, 211772, Control_c, 0, 64, 127
2, 211792, Note_on_c, 0, 57, 0
2, 211827, Note_on_c, 0, 60, 0
2, 211843, Note_on_c, 0, 63, 0
2, 211891, Note_on_c, 0, 42, 0
2, 211894, Note_on_c, 0, 66, 0
2, 211958, Note_on_c, 0, 56, 41
2, 211958, Note_on_c, 0, 63, 43
2, 211964, Note_on_c, 0, 51, 45
2, 211964, Note_on_c, 0, 60, 58
2, 211971, Note_on_c, 0, 41, 43
2, 211993, Control_c, 0, 64, 0
2, 212112, Control_c, 0, 64, 127
2, 212313, Note_on_c, 0, 60, 0
2, 212339, Note_on_c, 0, 56, 0
2, 212416, Note_on_c, 0, 41, 0
2, 212422, Note_on_c, 0, 51, 0
2, 212470, Note_on_c, 0, 63, 0
2, 212544, Control_c, 0, 64, 0
2, 212544, Note_on_c, 0, 56, 50
2, 212547, Note_on_c, 0, 46, 58
2, 212547, Note_on_c, 0, 60, 70
2, 212550, Note_on_c, 0, 53, 46
2, 212716, Control_c, 0, 64, 127
2, 212720, Note_on_c, 0, 53, 0
2, 212742, Note_on_c, 0, 56, 0
2, 212749, Note_on_c, 0, 60, 0
2, 212937, Note_on_c, 0, 65, 60
2, 212940, Note_on_c, 0, 62, 52
2, 212940, Note_on_c, 0, 57, 55
2, 212944, Note_on_c, 0, 60, 61
2, 212947, Note_on_c, 0, 56, 51
2, 212960, Control_c, 0, 64, 0
2, 213097, Control_c, 0, 64, 127
2, 213103, Note_on_c, 0, 57, 0
2, 213117, Note_on_c, 0, 60, 0
2, 213126, Note_on_c, 0, 62, 0
2, 213135, Note_on_c, 0, 65, 0
2, 213203, Note_on_c, 0, 56, 0
2, 213238, Note_on_c, 0, 70, 68
2, 213244, Note_on_c, 0, 60, 63
2, 213244, Note_on_c, 0, 65, 68
2, 213251, Note_on_c, 0, 56, 53
2, 213260, Control_c, 0, 64, 0
2, 213337, Control_c, 0, 64, 127
2, 213474, Note_on_c, 0, 65, 0
2, 213481, Note_on_c, 0, 70, 0
2, 213494, Note_on_c, 0, 60, 0
2, 213539, Note_on_c, 0, 56, 0
2, 213875, Note_on_c, 0, 65, 52
2, 213875, Note_on_c, 0, 55, 56
2, 213881, Note_on_c, 0, 60, 60
2, 213894, Note_on_c, 0, 60, 0
2, 213897, Note_on_c, 0, 55, 0
2, 213897, Note_on_c, 0, 65, 0
2, 213907, Control_c, 0, 64, 0
2, 214067, Note_on_c, 0, 63, 57
2, 214083, Note_on_c, 0, 58, 35
2, 214115, Note_on_c, 0, 58, 0
2, 214134, Note_on_c, 0, 63, 0
2, 214262, Note_on_c, 0, 65, 50
2, 214268, Note_on_c, 0, 60, 61
2, 214268, Note_on_c, 0, 55, 37
2, 214297, Note_on_c, 0, 46, 0
2, 214303, Note_on_c, 0, 55, 0
2, 214303, Note_on_c, 0, 60, 0
2, 214310, Note_on_c, 0, 65, 0
2, 214457, Note_on_c, 0, 63, 60
2, 214457, Note_on_c, 0, 44, 45
2, 214460, Note_on_c, 0, 58, 53
2, 214464, Note_on_c, 0, 53, 45
2, 214493, Note_on_c, 0, 53, 0
2, 214499, Note_on_c, 0, 44, 0
2, 214508, Note_on_c, 0, 58, 0
2, 214524, Note_on_c, 0, 63, 0
2, 214656, Note_on_c, 0, 62, 54
2, 214662, Note_on_c, 0, 43, 33
2, 214665, Note_on_c, 0, 56, 45
2, 214665, Note_on_c, 0, 53, 49
2, 214665, Note_on_c, 0, 59, 52
2, 214870, Note_on_c, 0, 53, 0
2, 214879, Note_on_c, 0, 56, 0
2, 214883, Note_on_c, 0, 62, 0
2, 214886, Note_on_c, 0, 59, 0
2, 214921, Note_on_c, 0, 43, 0
2, 215043, Note_on_c, 0, 74, 105
2, 215136, Note_on_c, 0, 74, 0
2, 215155, Note_on_c, 0, 75, 75
2, 215219, Note_on_c, 0, 75, 0
2, 215235, Note_on_c, 0, 74, 47
2, 215312, Note_on_c, 0, 74, 0
2, 215334, Note_on_c, 0, 67, 73
2, 215372, Note_on_c, 0, 67, 0
2, 215433, Note_on_c, 0, 65, 70
2, 215558, Note_on_c, 0, 65, 0
2, 215600, Note_on_c, 0, 63, 55
2, 215770, Note_on_c, 0, 63, 0
2, 215795, Note_on_c, 0, 62, 55
2, 215897, Note_on_c, 0, 62, 0
2, 215907, Note_on_c, 0, 63, 50
2, 215981, Note_on_c, 0, 63, 0
2, 215993, Note_on_c, 0, 62, 50
2, 216198, Note_on_c, 0, 62, 0
2, 216198, Note_on_c, 0, 63, 52
2, 216204, Note_on_c, 0, 53, 39
2, 216211, Note_on_c, 0, 58, 42
2, 216255, Note_on_c, 0, 53, 0
2, 216268, Note_on_c, 0, 63, 0
2, 216275, Note_on_c, 0, 58, 0
2, 216393, Note_on_c, 0, 62, 49
2, 216403, Note_on_c, 0, 51, 40
2, 216416, Note_on_c, 0, 57, 39
2, 216445, Note_on_c, 0, 57, 0
2, 216447, Note_on_c, 0, 62, 0
2, 216448, Note_on_c, 0, 51, 0
2, 216768, Note_on_c, 0, 59, 73
2, 216771, Note_on_c, 0, 56, 53
2, 216771, Note_on_c, 0, 50, 62
2, 216832, Note_on_c, 0, 50, 0
2, 216838, Note_on_c, 0, 59, 0
2, 216857, Note_on_c, 0, 56, 0
2, 217068, Note_on_c, 0, 62, 53
2, 217068, Note_on_c, 0, 56, 45
2, 217075, Note_on_c, 0, 59, 47
2, 217107, Note_on_c, 0, 59, 0
2, 217110, Note_on_c, 0, 62, 0
2, 217126, Note_on_c, 0, 56, 0
2, 217545, Note_on_c, 0, 71, 85
2, 217648, Note_on_c, 0, 72, 64
2, 217667, Note_on_c, 0, 71, 0
2, 217712, Note_on_c, 0, 72, 0
2, 217737, Note_on_c, 0, 73, 34
2, 217811, Note_on_c, 0, 73, 0
2, 217833, Note_on_c, 0, 74, 66
2, 217852, Note_on_c, 0, 62, 37
2, 217871, Note_on_c, 0, 62, 0
2, 217910, Note_on_c, 0, 74, 0
2, 217929, Note_on_c, 0, 71, 38
2, 218022, Note_on_c, 0, 72, 70
2, 218025, Note_on_c, 0, 71, 0
2, 218073, Note_on_c, 0, 72, 0
2, 218112, Note_on_c, 0, 73, 33
2, 218211, Note_on_c, 0, 73, 0
2, 218224, Note_on_c, 0, 74, 61
2, 218272, Note_on_c, 0, 74, 0
2, 218310, Note_on_c, 0, 75, 68
2, 218323, Note_on_c, 0, 58, 34
2, 218323, Note_on_c, 0, 67, 30
2, 218326, Note_on_c, 0, 63, 32
2, 218332, Note_on_c, 0, 62, 35
2, 218354, Note_on_c, 0, 62, 0
2, 218374, Note_on_c, 0, 67, 0
2, 218384, Note_on_c, 0, 63, 0
2, 218384, Note_on_c, 0, 58, 0
2, 218403, Note_on_c, 0, 75, 0
2, 218409, Note_on_c, 0, 71, 42
2, 218470, Note_on_c, 0, 71, 0
2, 218515, Note_on_c, 0, 72, 28
2, 218601, Note_on_c, 0, 74, 77
2, 218617, Note_on_c, 0, 72, 0
2, 218668, Note_on_c, 0, 74, 0
2, 218697, Note_on_c, 0, 75, 51
2, 218751, Note_on_c, 0, 75, 0
2, 218790, Note_on_c, 0, 79, 71
2, 218806, Note_on_c, 0, 67, 39
2, 218825, Note_on_c, 0, 67, 0
2, 218860, Note_on_c, 0, 79, 0
2, 218880, Note_on_c, 0, 83, 95
2, 218960, Note_on_c, 0, 83, 0
2, 218979, Note_on_c, 0, 86, 98
2, 219062, Note_on_c, 0, 84, 70
2, 219078, Note_on_c, 0, 86, 0
2, 219158, Note_on_c, 0, 84, 0
2, 219161, Note_on_c, 0, 79, 66
2, 219225, Note_on_c, 0, 79, 0
2, 219264, Note_on_c, 0, 77, 40
2, 219325, Note_on_c, 0, 77, 0
2, 219356, Note_on_c, 0, 75, 66
2, 219410, Note_on_c, 0, 75, 0
2, 219446, Note_on_c, 0, 74, 37
2, 219529, Note_on_c, 0, 74, 0
2, 219561, Note_on_c, 0, 72, 41
2, 219609, Note_on_c, 0, 72, 0
2, 219641, Note_on_c, 0, 63, 39
2, 219644, Note_on_c, 0, 60, 44
2, 219644, Note_on_c, 0, 75, 63
2, 219660, Note_on_c, 0, 56, 32
2, 219766, Note_on_c, 0, 72, 41
2, 219785, Note_on_c, 0, 75, 0
2, 219808, Note_on_c, 0, 72, 0
2, 219849, Note_on_c, 0, 68, 52
2, 219900, Note_on_c, 0, 68, 0
2, 219964, Note_on_c, 0, 67, 40
2, 220012, Note_on_c, 0, 67, 0
2, 220038, Note_on_c, 0, 70, 94
2, 220082, Note_on_c, 0, 60, 0
2, 220140, Note_on_c, 0, 70, 0
2, 220166, Note_on_c, 0, 63, 0
2, 220230, Note_on_c, 0, 68, 79
2, 220243, Note_on_c, 0, 53, 7
2, 220297, Note_on_c, 0, 68, 0
2, 220329, Note_on_c, 0, 70, 53
2, 220361, Note_on_c, 0, 68, 65
2, 220393, Note_on_c, 0, 70, 0
2, 220422, Note_on_c, 0, 67, 62
2, 220425, Note_on_c, 0, 68, 0
2, 220489, Note_on_c, 0, 67, 0
2, 220512, Note_on_c, 0, 53, 0
2, 220534, Note_on_c, 0, 56, 0
2, 220534, Note_on_c, 0, 66, 62
2, 220582, Note_on_c, 0, 66, 0
2, 220604, Note_on_c, 0, 65, 62
2, 220668, Note_on_c, 0, 65, 0
2, 220707, Note_on_c, 0, 63, 62
2, 220774, Note_on_c, 0, 63, 0
2, 220790, Note_on_c, 0, 60, 62
2, 220905, Note_on_c, 0, 61, 62
2, 220908, Note_on_c, 0, 60, 0
2, 220995, Note_on_c, 0, 62, 62
2, 220998, Note_on_c, 0, 61, 0
2, 221564, Note_on_c, 0, 67, 55
2, 221574, Note_on_c, 0, 56, 54
2, 221606, Note_on_c, 0, 67, 0
2, 221606, Note_on_c, 0, 62, 0
2, 221625, Note_on_c, 0, 56, 0
2, 221756, Note_on_c, 0, 62, 50
2, 221760, Note_on_c, 0, 67, 50
2, 221763, Note_on_c, 0, 56, 50
2, 221818, Note_on_c, 0, 67, 0
2, 221842, Note_on_c, 0, 62, 0
2, 221856, Note_on_c, 0, 56, 0
2, 221948, Note_on_c, 0, 65, 49
2, 221961, Note_on_c, 0, 56, 49
2, 221961, Note_on_c, 0, 62, 49
2, 221964, Note_on_c, 0, 59, 49
2, 222051, Note_on_c, 0, 62, 0
2, 222057, Note_on_c, 0, 65, 0
2, 222060, Note_on_c, 0, 59, 0
2, 222086, Note_on_c, 0, 56, 0
2, 222259, Note_on_c, 0, 65, 49
2, 222265, Note_on_c, 0, 59, 49
2, 222265, Note_on_c, 0, 62, 49
2, 222265, Note_on_c, 0, 56, 49
2, 222448, Note_on_c, 0, 71, 42
2, 222480, Note_on_c, 0, 71, 0
2, 222547, Note_on_c, 0, 74, 42
2, 222572, Note_on_c, 0, 59, 0
2, 222582, Note_on_c, 0, 62, 0
2, 222614, Note_on_c, 0, 65, 0
2, 222624, Note_on_c, 0, 74, 0
2, 222652, Note_on_c, 0, 77, 42
2, 222659, Note_on_c, 0, 56, 0
2, 222739, Note_on_c, 0, 62, 42
2, 222742, Note_on_c, 0, 75, 42
2, 222742, Note_on_c, 0, 65, 42
2, 222742, Note_on_c, 0, 60, 42
2, 222748, Note_on_c, 0, 55, 42
2, 222754, Note_on_c, 0, 77, 0
2, 222838, Note_on_c, 0, 75, 0
2, 222857, Note_on_c, 0, 70, 39
2, 222902, Note_on_c, 0, 70, 0
2, 222934, Note_on_c, 0, 74, 39
2, 223011, Note_on_c, 0, 65, 0
2, 223014, Note_on_c, 0, 74, 0
2, 223033, Note_on_c, 0, 67, 36
2, 223091, Note_on_c, 0, 67, 0
2, 223126, Note_on_c, 0, 67, 36
2, 223158, Note_on_c, 0, 62, 0
2, 223244, Note_on_c, 0, 60, 0
2, 223248, Note_on_c, 0, 67, 0
2, 223286, Note_on_c, 0, 55, 0
2, 223296, Note_on_c, 0, 67, 36
2, 223517, Note_on_c, 0, 67, 0
2, 223686, Note_on_c, 0, 66, 33
2, 223689, Note_on_c, 0, 55, 33
2, 223692, Note_on_c, 0, 61, 33
2, 223753, Note_on_c, 0, 55, 0
2, 223763, Note_on_c, 0, 66, 0
2, 223769, Note_on_c, 0, 61, 0
2, 223872, Note_on_c, 0, 66, 28
2, 223878, Note_on_c, 0, 61, 28
2, 223884, Note_on_c, 0, 55, 27
2, 223922, Note_on_c, 0, 55, 0
2, 223949, Note_on_c, 0, 66, 0
2, 223952, Note_on_c, 0, 61, 0
2, 223987, Note_on_c, 0, 66, 26
2, 224000, Note_on_c, 0, 61, 26
2, 224009, Note_on_c, 0, 55, 26
2, 224031, Note_on_c, 0, 55, 0
2, 224061, Note_on_c, 0, 61, 0
2, 224070, Note_on_c, 0, 66, 0
2, 224265, Note_on_c, 0, 63, 17
2, 224281, Note_on_c, 0, 58, 18
2, 224281, Note_on_c, 0, 53, 18
2, 224313, Note_on_c, 0, 53, 0
2, 224332, Note_on_c, 0, 63, 0
2, 224335, Note_on_c, 0, 58, 0
2, 224454, Note_on_c, 0, 63, 22
2, 224470, Note_on_c, 0, 58, 22
2, 224473, Note_on_c, 0, 53, 22
2, 224543, Note_on_c, 0, 53, 0
2, 224547, Note_on_c, 0, 58, 0
2, 224547, Note_on_c, 0, 63, 0
2, 224755, Note_on_c, 0, 63, 21
2, 224768, Note_on_c, 0, 58, 21
2, 224774, Note_on_c, 0, 53, 21
2, 224828, Note_on_c, 0, 53, 0
2, 224842, Note_on_c, 0, 58, 0
2, 224861, Note_on_c, 0, 63, 0
2, 224950, Note_on_c, 0, 84, 13
2, 224950, Note_on_c, 0, 72, 13
2, 224982, Note_on_c, 0, 72, 0
2, 224992, Note_on_c, 0, 84, 0
2, 225049, Note_on_c, 0, 64, 13
2, 225059, Note_on_c, 0, 85, 13
2, 225059, Note_on_c, 0, 73, 13
2, 225062, Note_on_c, 0, 54, 13
2, 225062, Note_on_c, 0, 59, 13
2, 225132, Note_on_c, 0, 86, 13
2, 225139, Note_on_c, 0, 73, 0
2, 225139, Note_on_c, 0, 74, 13
2, 225155, Note_on_c, 0, 85, 0
2, 225174, Note_on_c, 0, 86, 0
2, 225197, Note_on_c, 0, 74, 0
2, 225203, Note_on_c, 0, 54, 0
2, 225209, Note_on_c, 0, 59, 0
2, 225212, Note_on_c, 0, 64, 0
2, 225350, Note_on_c, 0, 64, 7
2, 225363, Note_on_c, 0, 54, 7
2, 225363, Note_on_c, 0, 59, 7
2, 225385, Note_on_c, 0, 59, 0
2, 225385, Note_on_c, 0, 64, 0
2, 225392, Note_on_c, 0, 54, 0
2, 225606, Note_on_c, 0, 54, 8
2, 225609, Note_on_c, 0, 62, 8
2, 225616, Note_on_c, 0, 59, 8
2, 225706, Note_on_c, 0, 59, 0
2, 225708, Note_on_c, 0, 62, 0
2, 225744, Note_on_c, 0, 54, 0
2, 225744, End_track
3, 0, Start_track
3, 0, Title_t, "By Cole Porter"
3, 0, Program_c, 1, 35
3, 0, Control_c, 1, 7, 110
3, 0, Note_on_c, 1, 48, 78
3, 564, Note_on_c, 1, 48, 0
3, 569, Note_on_c, 1, 43, 71
3, 1128, Note_on_c, 1, 36, 68
3, 1141, Note_on_c, 1, 43, 0
3, 1503, Note_on_c, 1, 47, 88
3, 1512, Note_on_c, 1, 36, 0
3, 2073, Note_on_c, 1, 41, 66
3, 2096, Note_on_c, 1, 47, 0
3, 2471, Note_on_c, 1, 35, 63
3, 2553, Note_on_c, 1, 41, 0
3, 2674, Note_on_c, 1, 41, 71
3, 2703, Note_on_c, 1, 41, 0
3, 2713, Note_on_c, 1, 35, 0
3, 2867, Note_on_c, 1, 41, 74
3, 3053, Note_on_c, 1, 34, 77
3, 3054, Note_on_c, 1, 41, 0
3, 3645, Note_on_c, 1, 50, 79
3, 3696, Note_on_c, 1, 50, 0
3, 3732, Note_on_c, 1, 48, 65
3, 3766, Note_on_c, 1, 48, 0
3, 3841, Note_on_c, 1, 50, 75
3, 4255, Note_on_c, 1, 34, 0
3, 4323, Note_on_c, 1, 48, 69
3, 4330, Note_on_c, 1, 50, 0
3, 4340, Note_on_c, 1, 48, 0
3, 4418, Note_on_c, 1, 33, 67
3, 4602, Note_on_c, 1, 33, 0
3, 4615, Note_on_c, 1, 32, 69
3, 5097, Note_on_c, 1, 39, 60
3, 5114, Note_on_c, 1, 39, 0
3, 5117, Note_on_c, 1, 32, 0
3, 5393, Note_on_c, 1, 39, 64
3, 5451, Note_on_c, 1, 39, 0
3, 5482, Note_on_c, 1, 39, 18
3, 5603, Note_on_c, 1, 39, 0
3, 5669, Note_on_c, 1, 39, 55
3, 5705, Note_on_c, 1, 39, 0
3, 5746, Note_on_c, 1, 46, 61
3, 5779, Note_on_c, 1, 46, 0
3, 5884, Note_on_c, 1, 39, 51
3, 5918, Note_on_c, 1, 39, 0
3, 5941, Note_on_c, 1, 48, 113
3, 6089, Note_on_c, 1, 48, 0
3, 6116, Note_on_c, 1, 46, 73
3, 6619, Note_on_c, 1, 41, 44
3, 6649, Note_on_c, 1, 41, 0
3, 6661, Note_on_c, 1, 46, 0
3, 6704, Note_on_c, 1, 34, 73
3, 7036, Note_on_c, 1, 34, 0
3, 7041, Note_on_c, 1, 41, 60
3, 7077, Note_on_c, 1, 41, 0
3, 7106, Note_on_c, 1, 35, 81
3, 7420, Note_on_c, 1, 35, 0
3, 7420, Note_on_c, 1, 41, 59
3, 7440, Note_on_c, 1, 41, 0
3, 7498, Note_on_c, 1, 35, 80
3, 7790, Note_on_c, 1, 35, 0
3, 7801, Note_on_c, 1, 41, 63
3, 7821, Note_on_c, 1, 41, 0
3, 7872, Note_on_c, 1, 36, 78
3, 8173, Note_on_c, 1, 36, 0
3, 8176, Note_on_c, 1, 41, 58
3, 8198, Note_on_c, 1, 41, 0
3, 8251, Note_on_c, 1, 36, 64
3, 8303, Note_on_c, 1, 36, 0
3, 8631, Note_on_c, 1, 45, 91
3, 8892, Note_on_c, 1, 45, 0
3, 8903, Note_on_c, 1, 40, 47
3, 8939, Note_on_c, 1, 40, 0
3, 8980, Note_on_c, 1, 33, 70
3, 9094, Note_on_c, 1, 33, 0
3, 9190, Note_on_c, 1, 32, 64
3, 9568, Note_on_c, 1, 32, 0
3, 9586, Note_on_c, 1, 39, 67
3, 9906, Note_on_c, 1, 51, 62
3, 9930, Note_on_c, 1, 39, 0
3, 9950, Note_on_c, 1, 51, 0
3, 9973, Note_on_c, 1, 50, 82
3, 10057, Note_on_c, 1, 50, 0
3, 10164, Note_on_c, 1, 50, 99
3, 10540, Note_on_c, 1, 50, 0
3, 10561, Note_on_c, 1, 48, 65
3, 10591, Note_on_c, 1, 48, 0
3, 10745, Note_on_c, 1, 47, 80
3, 10838, Pitch_bend_c, 1, 8192
3, 10840, Pitch_bend_c, 1, 8192
3, 10847, Pitch_bend_c, 1, 8842
3, 10850, Pitch_bend_c, 1, 9102
3, 10854, Pitch_bend_c, 1, 9362
3, 10857, Pitch_bend_c, 1, 9752
3, 10861, Pitch_bend_c, 1, 10012
3, 10865, Pitch_bend_c, 1, 10272
3, 10868, Pitch_bend_c, 1, 10662
3, 10872, Pitch_bend_c, 1, 10922
3, 10875, Pitch_bend_c, 1, 11312
3, 10880, Pitch_bend_c, 1, 11442
3, 10883, Pitch_bend_c, 1, 11702
3, 10887, Pitch_bend_c, 1, 11832
3, 10891, Pitch_bend_c, 1, 11962
3, 10894, Pitch_bend_c, 1, 12092
3, 10910, Pitch_bend_c, 1, 11832
3, 10913, Pitch_bend_c, 1, 11572
3, 10917, Pitch_bend_c, 1, 11312
3, 10922, Pitch_bend_c, 1, 10792
3, 10925, Pitch_bend_c, 1, 10272
3, 10929, Pitch_bend_c, 1, 9882
3, 10932, Pitch_bend_c, 1, 9232
3, 10936, Pitch_bend_c, 1, 8712
3, 10939, Pitch_bend_c, 1, 8192
3, 10941, Pitch_bend_c, 1, 8192
3, 11030, Pitch_bend_c, 1, 8192
3, 11034, Pitch_bend_c, 1, 8712
3, 11037, Pitch_bend_c, 1, 9232
3, 11041, Pitch_bend_c, 1, 9622
3, 11044, Pitch_bend_c, 1, 10142
3, 11048, Pitch_bend_c, 1, 10532
3, 11053, Pitch_bend_c, 1, 10922
3, 11056, Pitch_bend_c, 1, 11442
3, 11060, Pitch_bend_c, 1, 11702
3, 11063, Pitch_bend_c, 1, 11962
3, 11067, Pitch_bend_c, 1, 12092
3, 11070, Pitch_bend_c, 1, 12222
3, 11074, Pitch_bend_c, 1, 12352
3, 11081, Pitch_bend_c, 1, 12482
3, 11094, Pitch_bend_c, 1, 12352
3, 11098, Pitch_bend_c, 1, 12222
3, 11102, Pitch_bend_c, 1, 11962
3, 11105, Pitch_bend_c, 1, 11572
3, 11109, Pitch_bend_c, 1, 11312
3, 11112, Pitch_bend_c, 1, 10662
3, 11116, Pitch_bend_c, 1, 10142
3, 11119, Pitch_bend_c, 1, 9622
3, 11123, Pitch_bend_c, 1, 8972
3, 11127, Pitch_bend_c, 1, 8192
3, 11128, Pitch_bend_c, 1, 8192
3, 11701, Note_on_c, 1, 47, 0
3, 11715, Note_on_c, 1, 43, 62
3, 12033, Note_on_c, 1, 38, 41
3, 12054, Note_on_c, 1, 38, 0
3, 12094, Note_on_c, 1, 43, 0
3, 12110, Note_on_c, 1, 35, 60
3, 12308, Note_on_c, 1, 35, 0
3, 12320, Note_on_c, 1, 36, 66
3, 12699, Note_on_c, 1, 36, 0
3, 12715, Note_on_c, 1, 38, 60
3, 13049, Note_on_c, 1, 38, 0
3, 13078, Note_on_c, 1, 39, 49
3, 13368, Note_on_c, 1, 39, 0
3, 13376, Note_on_c, 1, 38, 60
3, 13427, Note_on_c, 1, 38, 0
3, 13461, Note_on_c, 1, 36, 62
3, 13516, Note_on_c, 1, 36, 0
3, 13632, Note_on_c, 1, 36, 78
3, 13771, Note_on_c, 1, 36, 0
3, 13800, Note_on_c, 1, 35, 73
3, 14274, Note_on_c, 1, 47, 61
3, 14291, Note_on_c, 1, 47, 0
3, 14357, Note_on_c, 1, 50, 85
3, 14382, Note_on_c, 1, 50, 0
3, 14542, Note_on_c, 1, 50, 110
3, 14686, Note_on_c, 1, 50, 0
3, 14734, Note_on_c, 1, 47, 73
3, 14777, Note_on_c, 1, 47, 0
3, 14914, Note_on_c, 1, 35, 0
3, 14936, Note_on_c, 1, 43, 42
3, 14956, Note_on_c, 1, 43, 0
3, 15041, Note_on_c, 1, 38, 55
3, 15058, Note_on_c, 1, 38, 0
3, 15115, Note_on_c, 1, 35, 82
3, 15293, Note_on_c, 1, 35, 0
3, 15314, Note_on_c, 1, 34, 67
3, 15931, Note_on_c, 1, 50, 96
3, 15969, Note_on_c, 1, 50, 0
3, 16123, Note_on_c, 1, 48, 91
3, 16152, Note_on_c, 1, 34, 0
3, 16401, Note_on_c, 1, 48, 0
3, 16428, Note_on_c, 1, 43, 54
3, 16446, Note_on_c, 1, 43, 0
3, 16512, Note_on_c, 1, 33, 69
3, 16583, Note_on_c, 1, 33, 0
3, 16695, Note_on_c, 1, 33, 72
3, 16777, Note_on_c, 1, 33, 0
3, 16886, Note_on_c, 1, 32, 71
3, 17410, Note_on_c, 1, 39, 37
3, 17430, Note_on_c, 1, 39, 0
3, 17473, Note_on_c, 1, 51, 60
3, 17497, Note_on_c, 1, 51, 0
3, 17655, Note_on_c, 1, 51, 82
3, 17846, Note_on_c, 1, 50, 67
3, 17847, Note_on_c, 1, 51, 0
3, 17870, Note_on_c, 1, 50, 0
3, 18037, Note_on_c, 1, 50, 84
3, 18197, Note_on_c, 1, 50, 0
3, 18220, Note_on_c, 1, 32, 0
3, 18220, Note_on_c, 1, 48, 71
3, 18231, Note_on_c, 1, 48, 0
3, 18405, Note_on_c, 1, 48, 88
3, 18567, Note_on_c, 1, 48, 0
3, 18584, Note_on_c, 1, 46, 44
3, 18606, Note_on_c, 1, 46, 0
3, 18782, Note_on_c, 1, 46, 67
3, 19566, Note_on_c, 1, 46, 0
3, 19589, Note_on_c, 1, 44, 69
3, 19978, Note_on_c, 1, 39, 64
3, 19993, Note_on_c, 1, 44, 0
3, 20019, Note_on_c, 1, 38, 24
3, 20323, Note_on_c, 1, 38, 0
3, 20570, Note_on_c, 1, 45, 96
3, 20588, Note_on_c, 1, 39, 0
3, 21088, Note_on_c, 1, 39, 62
3, 21105, Note_on_c, 1, 39, 0
3, 21136, Note_on_c, 1, 45, 0
3, 21163, Note_on_c, 1, 33, 64
3, 21222, Note_on_c, 1, 33, 0
3, 21344, Note_on_c, 1, 33, 63
3, 21472, Note_on_c, 1, 33, 0
3, 21528, Note_on_c, 1, 32, 59
3, 21889, Note_on_c, 1, 39, 68
3, 22216, Note_on_c, 1, 32, 0
3, 22259, Note_on_c, 1, 39, 0
3, 22272, Note_on_c, 1, 34, 60
3, 22668, Note_on_c, 1, 46, 51
3, 22689, Note_on_c, 1, 46, 0
3, 22775, Note_on_c, 1, 34, 0
3, 22776, Note_on_c, 1, 46, 74
3, 22832, Note_on_c, 1, 46, 0
3, 22846, Note_on_c, 1, 34, 70
3, 23219, Note_on_c, 1, 46, 62
3, 23250, Note_on_c, 1, 46, 0
3, 23316, Note_on_c, 1, 34, 0
3, 23318, Note_on_c, 1, 46, 75
3, 23363, Note_on_c, 1, 46, 0
3, 23405, Note_on_c, 1, 34, 69
3, 23775, Note_on_c, 1, 46, 60
3, 23804, Note_on_c, 1, 46, 0
3, 23888, Note_on_c, 1, 46, 64
3, 23904, Note_on_c, 1, 34, 0
3, 23925, Note_on_c, 1, 46, 0
3, 23968, Note_on_c, 1, 34, 73
3, 24265, Note_on_c, 1, 39, 59
3, 24282, Note_on_c, 1, 34, 0
3, 24310, Note_on_c, 1, 39, 0
3, 24349, Note_on_c, 1, 40, 57
3, 24510, Note_on_c, 1, 40, 0
3, 24535, Note_on_c, 1, 41, 62
3, 24853, Note_on_c, 1, 39, 31
3, 24895, Note_on_c, 1, 41, 0
3, 24926, Note_on_c, 1, 48, 84
3, 24927, Note_on_c, 1, 39, 0
3, 25443, Note_on_c, 1, 41, 39
3, 25464, Note_on_c, 1, 41, 0
3, 25498, Note_on_c, 1, 48, 0
3, 25520, Note_on_c, 1, 46, 64
3, 25844, Note_on_c, 1, 41, 31
3, 25864, Note_on_c, 1, 41, 0
3, 25915, Note_on_c, 1, 34, 60
3, 25954, Note_on_c, 1, 46, 0
3, 26098, Note_on_c, 1, 34, 0
3, 26112, Note_on_c, 1, 39, 63
3, 26700, Note_on_c, 1, 55, 94
3, 26719, Note_on_c, 1, 39, 0
3, 27031, Note_on_c, 1, 44, 23
3, 27047, Note_on_c, 1, 55, 0
3, 27049, Note_on_c, 1, 44, 0
3, 27073, Note_on_c, 1, 52, 72
3, 27365, Note_on_c, 1, 52, 0
3, 27372, Note_on_c, 1, 48, 72
3, 27389, Note_on_c, 1, 48, 0
3, 27457, Note_on_c, 1, 40, 65
3, 27645, Note_on_c, 1, 40, 0
3, 27671, Note_on_c, 1, 41, 55
3, 27998, Note_on_c, 1, 41, 0
3, 28004, Note_on_c, 1, 36, 64
3, 28376, Note_on_c, 1, 36, 0
3, 28381, Note_on_c, 1, 34, 59
3, 28792, Note_on_c, 1, 46, 86
3, 28822, Note_on_c, 1, 34, 0
3, 29300, Note_on_c, 1, 41, 50
3, 29320, Note_on_c, 1, 41, 0
3, 29378, Note_on_c, 1, 34, 76
3, 29634, Note_on_c, 1, 46, 0
3, 29774, Note_on_c, 1, 46, 84
3, 30259, Note_on_c, 1, 41, 59
3, 30268, Note_on_c, 1, 46, 0
3, 30285, Note_on_c, 1, 34, 0
3, 30310, Note_on_c, 1, 41, 0
3, 30317, Note_on_c, 1, 48, 73
3, 30381, Note_on_c, 1, 48, 0
3, 30502, Note_on_c, 1, 40, 60
3, 30572, Note_on_c, 1, 40, 0
3, 30707, Note_on_c, 1, 41, 68
3, 31206, Note_on_c, 1, 43, 60
3, 31244, Note_on_c, 1, 43, 0
3, 31255, Note_on_c, 1, 41, 0
3, 31295, Note_on_c, 1, 44, 58
3, 31337, Note_on_c, 1, 44, 0
3, 31389, Note_on_c, 1, 45, 64
3, 31417, Note_on_c, 1, 45, 0
3, 31474, Note_on_c, 1, 46, 75
3, 31984, Note_on_c, 1, 41, 61
3, 32004, Note_on_c, 1, 41, 0
3, 32042, Note_on_c, 1, 46, 0
3, 32070, Note_on_c, 1, 38, 49
3, 32243, Note_on_c, 1, 38, 0
3, 32262, Note_on_c, 1, 39, 65
3, 32848, Note_on_c, 1, 51, 86
3, 32864, Note_on_c, 1, 39, 0
3, 33340, Note_on_c, 1, 43, 45
3, 33359, Note_on_c, 1, 43, 0
3, 33383, Note_on_c, 1, 51, 0
3, 33409, Note_on_c, 1, 50, 69
3, 33470, Note_on_c, 1, 50, 0
3, 33545, Note_on_c, 1, 43, 48
3, 33564, Note_on_c, 1, 43, 0
3, 33591, Note_on_c, 1, 47, 64
3, 33755, Note_on_c, 1, 47, 0
3, 33776, Note_on_c, 1, 48, 70
3, 34152, Note_on_c, 1, 48, 0
3, 34157, Note_on_c, 1, 43, 66
3, 34515, Note_on_c, 1, 43, 0
3, 34530, Note_on_c, 1, 51, 75
3, 34896, Note_on_c, 1, 51, 0
3, 34913, Note_on_c, 1, 50, 66
3, 35286, Note_on_c, 1, 50, 0
3, 35311, Note_on_c, 1, 47, 61
3, 35687, Note_on_c, 1, 47, 0
3, 35714, Note_on_c, 1, 43, 51
3, 36252, Note_on_c, 1, 43, 0
3, 36299, Note_on_c, 1, 47, 82
3, 36415, Pitch_bend_c, 1, 8192
3, 36416, Pitch_bend_c, 1, 8192
3, 36420, Pitch_bend_c, 1, 8712
3, 36424, Pitch_bend_c, 1, 8972
3, 36427, Pitch_bend_c, 1, 9362
3, 36431, Pitch_bend_c, 1, 9752
3, 36434, Pitch_bend_c, 1, 10012
3, 36439, Pitch_bend_c, 1, 10142
3, 36442, Pitch_bend_c, 1, 10402
3, 36446, Pitch_bend_c, 1, 10532
3, 36450, Pitch_bend_c, 1, 10662
3, 36465, Pitch_bend_c, 1, 10532
3, 36469, Pitch_bend_c, 1, 10272
3, 36472, Pitch_bend_c, 1, 10142
3, 36476, Pitch_bend_c, 1, 9882
3, 36480, Pitch_bend_c, 1, 9622
3, 36484, Pitch_bend_c, 1, 9232
3, 36488, Pitch_bend_c, 1, 8972
3, 36491, Pitch_bend_c, 1, 8192
3, 36493, Pitch_bend_c, 1, 8192
3, 36495, Pitch_bend_c, 1, 8192
3, 36589, Pitch_bend_c, 1, 8192
3, 36591, Pitch_bend_c, 1, 8192
3, 36595, Pitch_bend_c, 1, 8842
3, 36598, Pitch_bend_c, 1, 9232
3, 36602, Pitch_bend_c, 1, 9622
3, 36605, Pitch_bend_c, 1, 9882
3, 36610, Pitch_bend_c, 1, 10272
3, 36613, Pitch_bend_c, 1, 10792
3, 36617, Pitch_bend_c, 1, 11052
3, 36621, Pitch_bend_c, 1, 11442
3, 36624, Pitch_bend_c, 1, 11702
3, 36628, Pitch_bend_c, 1, 11962
3, 36631, Pitch_bend_c, 1, 12222
3, 36635, Pitch_bend_c, 1, 12352
3, 36639, Pitch_bend_c, 1, 12482
3, 36642, Pitch_bend_c, 1, 12612
3, 36664, Pitch_bend_c, 1, 12352
3, 36668, Pitch_bend_c, 1, 12222
3, 36671, Pitch_bend_c, 1, 11962
3, 36675, Pitch_bend_c, 1, 11702
3, 36678, Pitch_bend_c, 1, 11312
3, 36682, Pitch_bend_c, 1, 10792
3, 36685, Pitch_bend_c, 1, 10402
3, 36689, Pitch_bend_c, 1, 9882
3, 36694, Pitch_bend_c, 1, 9362
3, 36697, Pitch_bend_c, 1, 8842
3, 36701, Pitch_bend_c, 1, 8192
3, 36703, Pitch_bend_c, 1, 8192
3, 36773, Pitch_bend_c, 1, 8192
3, 36775, Pitch_bend_c, 1, 8192
3, 36780, Pitch_bend_c, 1, 8712
3, 36783, Pitch_bend_c, 1, 9102
3, 36787, Pitch_bend_c, 1, 9362
3, 36790, Pitch_bend_c, 1, 9882
3, 36794, Pitch_bend_c, 1, 10142
3, 36797, Pitch_bend_c, 1, 10532
3, 36801, Pitch_bend_c, 1, 10922
3, 36805, Pitch_bend_c, 1, 11442
3, 36808, Pitch_bend_c, 1, 11702
3, 36812, Pitch_bend_c, 1, 11962
3, 36815, Pitch_bend_c, 1, 12222
3, 36819, Pitch_bend_c, 1, 12482
3, 36823, Pitch_bend_c, 1, 12742
3, 36827, Pitch_bend_c, 1, 12872
3, 36831, Pitch_bend_c, 1, 13002
3, 36838, Pitch_bend_c, 1, 13132
3, 36853, Pitch_bend_c, 1, 12872
3, 36857, Pitch_bend_c, 1, 12742
3, 36860, Pitch_bend_c, 1, 12482
3, 36865, Pitch_bend_c, 1, 12092
3, 36869, Pitch_bend_c, 1, 11052
3, 36872, Pitch_bend_c, 1, 9882
3, 36877, Pitch_bend_c, 1, 8192
3, 36878, Pitch_bend_c, 1, 8192
3, 37218, Note_on_c, 1, 47, 0
3, 37240, Note_on_c, 1, 43, 49
3, 37415, Note_on_c, 1, 43, 0
3, 37430, Note_on_c, 1, 48, 83
3, 37831, Note_on_c, 1, 50, 25
3, 37908, Note_on_c, 1, 50, 0
3, 38199, Note_on_c, 1, 51, 83
3, 38208, Note_on_c, 1, 48, 0
3, 38364, Note_on_c, 1, 51, 0
3, 38396, Note_on_c, 1, 50, 71
3, 38887, Note_on_c, 1, 50, 0
3, 38887, Note_on_c, 1, 47, 55
3, 38940, Note_on_c, 1, 47, 0
3, 38992, Note_on_c, 1, 43, 56
3, 39658, Note_on_c, 1, 50, 77
3, 39682, Note_on_c, 1, 43, 0
3, 39700, Note_on_c, 1, 50, 0
3, 39739, Note_on_c, 1, 47, 55
3, 39845, Note_on_c, 1, 47, 0
3, 39856, Note_on_c, 1, 43, 69
3, 39893, Note_on_c, 1, 43, 0
3, 39923, Note_on_c, 1, 46, 71
3, 40374, Note_on_c, 1, 43, 59
3, 40385, Note_on_c, 1, 46, 0
3, 40397, Note_on_c, 1, 43, 0
3, 40478, Note_on_c, 1, 36, 47
3, 40724, Note_on_c, 1, 46, 18
3, 40751, Note_on_c, 1, 46, 0
3, 41072, Note_on_c, 1, 46, 60
3, 41105, Note_on_c, 1, 36, 0
3, 41111, Note_on_c, 1, 46, 0
3, 41265, Note_on_c, 1, 45, 53
3, 41283, Note_on_c, 1, 45, 0
3, 41437, Note_on_c, 1, 44, 73
3, 42013, Note_on_c, 1, 44, 0
3, 42027, Note_on_c, 1, 43, 58
3, 42044, Note_on_c, 1, 43, 0
3, 42213, Note_on_c, 1, 41, 64
3, 42625, Note_on_c, 1, 41, 0
3, 42681, Note_on_c, 1, 41, 12
3, 42769, Note_on_c, 1, 41, 0
3, 42779, Note_on_c, 1, 50, 73
3, 42812, Note_on_c, 1, 50, 0
3, 42896, Note_on_c, 1, 48, 71
3, 42937, Note_on_c, 1, 48, 0
3, 42984, Note_on_c, 1, 46, 63
3, 43921, Note_on_c, 1, 46, 0
3, 43939, Note_on_c, 1, 44, 64
3, 44105, Note_on_c, 1, 44, 0
3, 44124, Note_on_c, 1, 43, 64
3, 44887, Note_on_c, 1, 43, 0
3, 44913, Note_on_c, 1, 48, 64
3, 44938, Note_on_c, 1, 48, 0
3, 45038, Note_on_c, 1, 49, 74
3, 45074, Note_on_c, 1, 49, 0
3, 45218, Note_on_c, 1, 51, 83
3, 45272, Note_on_c, 1, 51, 0
3, 45408, Note_on_c, 1, 49, 64
3, 45476, Note_on_c, 1, 49, 0
3, 45491, Note_on_c, 1, 48, 71
3, 45811, Note_on_c, 1, 46, 71
3, 45834, Note_on_c, 1, 48, 0
3, 45860, Note_on_c, 1, 46, 0
3, 46065, Note_on_c, 1, 44, 71
3, 46446, Note_on_c, 1, 44, 0
3, 46454, Note_on_c, 1, 41, 60
3, 46818, Note_on_c, 1, 41, 0
3, 46837, Note_on_c, 1, 47, 68
3, 47135, Note_on_c, 1, 41, 24
3, 47153, Note_on_c, 1, 41, 0
3, 47209, Note_on_c, 1, 47, 0
3, 47216, Note_on_c, 1, 44, 62
3, 47577, Note_on_c, 1, 44, 0
3, 47599, Note_on_c, 1, 49, 71
3, 47917, Note_on_c, 1, 42, 31
3, 47938, Note_on_c, 1, 42, 0
3, 47959, Note_on_c, 1, 49, 0
3, 48002, Note_on_c, 1, 51, 64
3, 48370, Note_on_c, 1, 51, 0
3, 48392, Note_on_c, 1, 48, 67
3, 48727, Note_on_c, 1, 43, 65
3, 48742, Note_on_c, 1, 48, 0
3, 48770, Note_on_c, 1, 43, 0
3, 48807, Note_on_c, 1, 40, 54
3, 48829, Note_on_c, 1, 40, 0
3, 48968, Note_on_c, 1, 41, 74
3, 49015, Note_on_c, 1, 41, 0
3, 49152, Note_on_c, 1, 42, 70
3, 50252, Note_on_c, 1, 42, 0
3, 50274, Note_on_c, 1, 44, 46
3, 50343, Note_on_c, 1, 44, 0
3, 50373, Note_on_c, 1, 45, 50
3, 50407, Note_on_c, 1, 45, 0
3, 50461, Note_on_c, 1, 47, 53
3, 50497, Note_on_c, 1, 47, 0
3, 50639, Note_on_c, 1, 48, 80
3, 50997, Note_on_c, 1, 48, 0
3, 51017, Note_on_c, 1, 44, 49
3, 51310, Note_on_c, 1, 41, 32
3, 51330, Note_on_c, 1, 41, 0
3, 51395, Note_on_c, 1, 44, 0
3, 51400, Note_on_c, 1, 46, 61
3, 51716, Note_on_c, 1, 41, 50
3, 51761, Note_on_c, 1, 41, 0
3, 51797, Note_on_c, 1, 34, 63
3, 51805, Note_on_c, 1, 46, 0
3, 51874, Note_on_c, 1, 34, 0
3, 52000, Note_on_c, 1, 34, 50
3, 52174, Note_on_c, 1, 34, 0
3, 52205, Note_on_c, 1, 39, 72
3, 52800, Note_on_c, 1, 46, 81
3, 52810, Note_on_c, 1, 39, 0
3, 53475, Note_on_c, 1, 39, 51
3, 53510, Note_on_c, 1, 39, 0
3, 53551, Note_on_c, 1, 46, 0
3, 53568, Note_on_c, 1, 43, 64
3, 53665, Note_on_c, 1, 43, 0
3, 53760, Note_on_c, 1, 36, 62
3, 55292, Note_on_c, 1, 36, 0
3, 55308, Note_on_c, 1, 35, 40
3, 55984, Note_on_c, 1, 47, 48
3, 56004, Note_on_c, 1, 47, 0
3, 56040, Note_on_c, 1, 50, 62
3, 56060, Note_on_c, 1, 35, 0
3, 56084, Note_on_c, 1, 50, 0
3, 56228, Note_on_c, 1, 48, 70
3, 56264, Note_on_c, 1, 48, 0
3, 56412, Note_on_c, 1, 47, 68
3, 56456, Note_on_c, 1, 47, 0
3, 56516, Note_on_c, 1, 43, 58
3, 56536, Note_on_c, 1, 43, 0
3, 56596, Note_on_c, 1, 35, 50
3, 56780, Note_on_c, 1, 35, 0
3, 56796, Note_on_c, 1, 34, 42
3, 57592, Note_on_c, 1, 46, 58
3, 57620, Note_on_c, 1, 46, 0
3, 57672, Note_on_c, 1, 34, 0
3, 57792, Note_on_c, 1, 45, 101
3, 58132, Note_on_c, 1, 45, 0
3, 58172, Note_on_c, 1, 33, 52
3, 58320, Note_on_c, 1, 33, 0
3, 58368, Note_on_c, 1, 32, 42
3, 59264, Note_on_c, 1, 51, 71
3, 59304, Note_on_c, 1, 51, 0
3, 59396, Note_on_c, 1, 53, 60
3, 59432, Note_on_c, 1, 53, 0
3, 59508, Note_on_c, 1, 55, 79
3, 59560, Note_on_c, 1, 55, 0
3, 59644, Note_on_c, 1, 53, 68
3, 59672, Note_on_c, 1, 53, 0
3, 59716, Note_on_c, 1, 32, 0
3, 59784, Note_on_c, 1, 51, 70
3, 59848, Note_on_c, 1, 51, 0
3, 59912, Note_on_c, 1, 50, 42
3, 60224, Note_on_c, 1, 50, 0
3, 60276, Note_on_c, 1, 46, 45
3, 60628, Note_on_c, 1, 46, 0
3, 60656, Note_on_c, 1, 44, 57
3, 61148, Note_on_c, 1, 41, 48
3, 61160, Note_on_c, 1, 44, 0
3, 61168, Note_on_c, 1, 41, 0
3, 61236, Note_on_c, 1, 38, 59
3, 61404, Note_on_c, 1, 38, 0
3, 61428, Note_on_c, 1, 39, 43
3, 61924, Note_on_c, 1, 46, 61
3, 61928, Note_on_c, 1, 39, 0
3, 61956, Note_on_c, 1, 46, 0
3, 61996, Note_on_c, 1, 39, 56
3, 62068, Note_on_c, 1, 39, 0
3, 62188, Note_on_c, 1, 45, 80
3, 62220, Note_on_c, 1, 45, 0
3, 62380, Note_on_c, 1, 33, 60
3, 62756, Note_on_c, 1, 40, 53
3, 62784, Note_on_c, 1, 40, 0
3, 62784, Note_on_c, 1, 33, 0
3, 62960, Note_on_c, 1, 32, 60
3, 63944, Note_on_c, 1, 38, 67
3, 63964, Note_on_c, 1, 32, 0
3, 64140, Note_on_c, 1, 50, 82
3, 64180, Note_on_c, 1, 50, 0
3, 64336, Note_on_c, 1, 54, 77
3, 64408, Note_on_c, 1, 54, 0
3, 64536, Note_on_c, 1, 55, 89
3, 64608, Note_on_c, 1, 38, 0
3, 64856, Note_on_c, 1, 55, 0
3, 64920, Note_on_c, 1, 50, 34
3, 65244, Note_on_c, 1, 50, 0
3, 65284, Note_on_c, 1, 57, 54
3, 65320, Note_on_c, 1, 57, 0
3, 65468, Note_on_c, 1, 55, 74
3, 65720, Note_on_c, 1, 55, 0
3, 65752, Note_on_c, 1, 54, 49
3, 65816, Note_on_c, 1, 54, 0
3, 65844, Note_on_c, 1, 53, 36
3, 65896, Note_on_c, 1, 53, 0
3, 65956, Note_on_c, 1, 50, 31
3, 65980, Note_on_c, 1, 50, 0
3, 66044, Note_on_c, 1, 51, 39
3, 66176, Note_on_c, 1, 51, 0
3, 66248, Note_on_c, 1, 50, 17
3, 66324, Note_on_c, 1, 50, 0
3, 66452, Note_on_c, 1, 48, 35
3, 66632, Note_on_c, 1, 43, 40
3, 66684, Note_on_c, 1, 48, 0
3, 66716, Note_on_c, 1, 43, 0
3, 66828, Note_on_c, 1, 36, 51
3, 67772, Note_on_c, 1, 47, 88
3, 67820, Note_on_c, 1, 47, 0
3, 67952, Note_on_c, 1, 36, 0
3, 67952, Note_on_c, 1, 50, 88
3, 68516, Note_on_c, 1, 50, 0
3, 68520, Note_on_c, 1, 35, 55
3, 68712, Note_on_c, 1, 47, 54
3, 69012, Note_on_c, 1, 35, 0
3, 69088, Note_on_c, 1, 47, 0
3, 69100, Note_on_c, 1, 34, 55
3, 69304, Note_on_c, 1, 50, 74
3, 69344, Note_on_c, 1, 50, 0
3, 69504, Note_on_c, 1, 46, 64
3, 69832, Note_on_c, 1, 46, 0
3, 69840, Note_on_c, 1, 34, 0
3, 69884, Note_on_c, 1, 33, 71
3, 70380, Note_on_c, 1, 45, 53
3, 70400, Note_on_c, 1, 33, 0
3, 70404, Note_on_c, 1, 45, 0
3, 70448, Note_on_c, 1, 33, 56
3, 70580, Note_on_c, 1, 33, 0
3, 70640, Note_on_c, 1, 32, 65
3, 70648, Note_on_c, 1, 48, 27
3, 70668, Note_on_c, 1, 48, 0
3, 71128, Note_on_c, 1, 48, 31
3, 71148, Note_on_c, 1, 48, 0
3, 71196, Note_on_c, 1, 51, 59
3, 71224, Note_on_c, 1, 51, 0
3, 71376, Note_on_c, 1, 56, 84
3, 71616, Note_on_c, 1, 56, 0
3, 71680, Note_on_c, 1, 55, 68
3, 71716, Note_on_c, 1, 55, 0
3, 71784, Note_on_c, 1, 53, 38
3, 71808, Note_on_c, 1, 53, 0
3, 71952, Note_on_c, 1, 32, 0
3, 71972, Note_on_c, 1, 51, 56
3, 72028, Note_on_c, 1, 51, 0
3, 72176, Note_on_c, 1, 50, 52
3, 72432, Note_on_c, 1, 50, 0
3, 72468, Note_on_c, 1, 48, 47
3, 72492, Note_on_c, 1, 48, 0
3, 72564, Note_on_c, 1, 46, 49
3, 72880, Note_on_c, 1, 46, 0
3, 72888, Note_on_c, 1, 45, 32
3, 72924, Note_on_c, 1, 45, 0
3, 72976, Note_on_c, 1, 44, 53
3, 73516, Note_on_c, 1, 44, 0
3, 73556, Note_on_c, 1, 44, 19
3, 73612, Note_on_c, 1, 44, 0
3, 73764, Note_on_c, 1, 43, 38
3, 74268, Note_on_c, 1, 43, 0
3, 74292, Note_on_c, 1, 43, 24
3, 74364, Note_on_c, 1, 43, 0
3, 74484, Note_on_c, 1, 43, 64
3, 74504, Note_on_c, 1, 43, 0
3, 74676, Note_on_c, 1, 45, 81
3, 74944, Note_on_c, 1, 40, 55
3, 74976, Note_on_c, 1, 40, 0
3, 74976, Note_on_c, 1, 45, 0
3, 75040, Note_on_c, 1, 33, 61
3, 75180, Note_on_c, 1, 33, 0
3, 75252, Note_on_c, 1, 32, 62
3, 75776, Note_on_c, 1, 32, 0
3, 75828, Note_on_c, 1, 32, 57
3, 75880, Note_on_c, 1, 32, 0
3, 76020, Note_on_c, 1, 34, 59
3, 76288, Note_on_c, 1, 46, 56
3, 76512, Note_on_c, 1, 34, 0
3, 76588, Note_on_c, 1, 34, 53
3, 76624, Note_on_c, 1, 46, 0
3, 76644, Note_on_c, 1, 34, 0
3, 76776, Note_on_c, 1, 34, 59
3, 77044, Note_on_c, 1, 46, 59
3, 77260, Note_on_c, 1, 34, 0
3, 77348, Note_on_c, 1, 34, 49
3, 77372, Note_on_c, 1, 34, 0
3, 77404, Note_on_c, 1, 46, 0
3, 77528, Note_on_c, 1, 34, 64
3, 77824, Note_on_c, 1, 46, 67
3, 77864, Note_on_c, 1, 46, 0
3, 77908, Note_on_c, 1, 34, 0
3, 77916, Note_on_c, 1, 46, 53
3, 77952, Note_on_c, 1, 46, 0
3, 78028, Note_on_c, 1, 39, 52
3, 78076, Note_on_c, 1, 39, 0
3, 78120, Note_on_c, 1, 40, 29
3, 78284, Note_on_c, 1, 40, 0
3, 78308, Note_on_c, 1, 41, 41
3, 78900, Note_on_c, 1, 48, 81
3, 79248, Note_on_c, 1, 48, 0
3, 79280, Note_on_c, 1, 46, 67
3, 79576, Note_on_c, 1, 53, 72
3, 79588, Note_on_c, 1, 46, 0
3, 79592, Note_on_c, 1, 51, 33
3, 79612, Note_on_c, 1, 51, 0
3, 79804, Note_on_c, 1, 39, 36
3, 79808, Note_on_c, 1, 53, 0
3, 79812, Note_on_c, 1, 41, 0
3, 79848, Note_on_c, 1, 51, 70
3, 79856, Note_on_c, 1, 39, 0
3, 80132, Note_on_c, 1, 46, 59
3, 80136, Note_on_c, 1, 51, 0
3, 80368, Note_on_c, 1, 39, 30
3, 80376, Note_on_c, 1, 46, 0
3, 80396, Note_on_c, 1, 39, 0
3, 80416, Note_on_c, 1, 48, 71
3, 80688, Note_on_c, 1, 48, 0
3, 80708, Note_on_c, 1, 46, 57
3, 80728, Note_on_c, 1, 46, 0
3, 80796, Note_on_c, 1, 43, 55
3, 80984, Note_on_c, 1, 43, 0
3, 81004, Note_on_c, 1, 36, 55
3, 81184, Note_on_c, 1, 36, 0
3, 81196, Note_on_c, 1, 40, 54
3, 81352, Note_on_c, 1, 40, 0
3, 81388, Note_on_c, 1, 41, 57
3, 81876, Note_on_c, 1, 36, 58
3, 81888, Note_on_c, 1, 41, 0
3, 81896, Note_on_c, 1, 36, 0
3, 81952, Note_on_c, 1, 33, 54
3, 82316, Note_on_c, 1, 33, 0
3, 82332, Note_on_c, 1, 34, 56
3, 82612, Note_on_c, 1, 34, 0
3, 82632, Note_on_c, 1, 36, 58
3, 82688, Note_on_c, 1, 36, 0
3, 82708, Note_on_c, 1, 38, 78
3, 82880, Note_on_c, 1, 38, 0
3, 82908, Note_on_c, 1, 39, 67
3, 83472, Note_on_c, 1, 51, 76
3, 83508, Note_on_c, 1, 51, 0
3, 83652, Note_on_c, 1, 39, 0
3, 83672, Note_on_c, 1, 49, 77
3, 83976, Note_on_c, 1, 38, 27
3, 84004, Note_on_c, 1, 38, 0
3, 84028, Note_on_c, 1, 49, 0
3, 84060, Note_on_c, 1, 48, 54
3, 84268, Note_on_c, 1, 40, 46
3, 84284, Note_on_c, 1, 48, 0
3, 84428, Note_on_c, 1, 40, 0
3, 84472, Note_on_c, 1, 41, 43
3, 84776, Note_on_c, 1, 43, 52
3, 84800, Note_on_c, 1, 43, 0
3, 84808, Note_on_c, 1, 41, 0
3, 84860, Note_on_c, 1, 44, 64
3, 85168, Note_on_c, 1, 44, 0
3, 85184, Note_on_c, 1, 45, 61
3, 85224, Note_on_c, 1, 45, 0
3, 85272, Note_on_c, 1, 46, 42
3, 86204, Note_on_c, 1, 34, 38
3, 86252, Note_on_c, 1, 34, 0
3, 86388, Note_on_c, 1, 34, 58
3, 86652, Note_on_c, 1, 46, 0
3, 86672, Note_on_c, 1, 39, 36
3, 86740, Note_on_c, 1, 39, 0
3, 86764, Note_on_c, 1, 46, 58
3, 86792, Note_on_c, 1, 34, 0
3, 86812, Note_on_c, 1, 46, 0
3, 86960, Note_on_c, 1, 44, 70
3, 87000, Note_on_c, 1, 44, 0
3, 87160, Note_on_c, 1, 43, 64
3, 87192, Note_on_c, 1, 43, 0
3, 87280, Note_on_c, 1, 38, 57
3, 87312, Note_on_c, 1, 38, 0
3, 87356, Note_on_c, 1, 35, 51
3, 87536, Note_on_c, 1, 35, 0
3, 87552, Note_on_c, 1, 36, 54
3, 88248, Note_on_c, 1, 51, 55
3, 88308, Note_on_c, 1, 51, 0
3, 88320, Note_on_c, 1, 36, 0
3, 88328, Note_on_c, 1, 48, 60
3, 88476, Note_on_c, 1, 48, 0
3, 88516, Note_on_c, 1, 43, 40
3, 88620, Note_on_c, 1, 43, 0
3, 88700, Note_on_c, 1, 50, 64
3, 88864, Note_on_c, 1, 50, 0
3, 88884, Note_on_c, 1, 38, 54
3, 89012, Note_on_c, 1, 38, 0
3, 89080, Note_on_c, 1, 47, 52
3, 89400, Note_on_c, 1, 49, 17
3, 89412, Note_on_c, 1, 47, 0
3, 89452, Note_on_c, 1, 42, 51
3, 89456, Note_on_c, 1, 49, 0
3, 89812, Note_on_c, 1, 42, 0
3, 89832, Note_on_c, 1, 41, 53
3, 90432, Note_on_c, 1, 38, 49
3, 90460, Note_on_c, 1, 41, 0
3, 90584, Note_on_c, 1, 38, 0
3, 90616, Note_on_c, 1, 39, 56
3, 90904, Note_on_c, 1, 38, 56
3, 90920, Note_on_c, 1, 39, 0
3, 90932, Note_on_c, 1, 38, 0
3, 90996, Note_on_c, 1, 36, 68
3, 91584, Note_on_c, 1, 31, 50
3, 91592, Note_on_c, 1, 36, 0
3, 91884, Note_on_c, 1, 36, 50
3, 91896, Note_on_c, 1, 31, 0
3, 91908, Note_on_c, 1, 36, 0
3, 91964, Note_on_c, 1, 48, 41
3, 92136, Note_on_c, 1, 48, 0
3, 92164, Note_on_c, 1, 47, 49
3, 92996, Note_on_c, 1, 47, 0
3, 93004, Note_on_c, 1, 43, 54
3, 93024, Note_on_c, 1, 43, 0
3, 93100, Note_on_c, 1, 40, 51
3, 93144, Note_on_c, 1, 40, 0
3, 93276, Note_on_c, 1, 38, 60
3, 93360, Note_on_c, 1, 38, 0
3, 93460, Note_on_c, 1, 35, 44
3, 93576, Note_on_c, 1, 35, 0
3, 93660, Note_on_c, 1, 34, 49
3, 94240, Note_on_c, 1, 50, 75
3, 94284, Note_on_c, 1, 50, 0
3, 94444, Note_on_c, 1, 48, 71
3, 94784, Note_on_c, 1, 46, 59
3, 94788, Note_on_c, 1, 48, 0
3, 94816, Note_on_c, 1, 46, 0
3, 94948, Note_on_c, 1, 34, 0
3, 94960, Note_on_c, 1, 45, 61
3, 94980, Note_on_c, 1, 45, 0
3, 95112, Note_on_c, 1, 33, 62
3, 95164, Note_on_c, 1, 33, 0
3, 95212, Note_on_c, 1, 32, 69
3, 95696, Note_on_c, 1, 44, 51
3, 95736, Note_on_c, 1, 44, 0
3, 95796, Note_on_c, 1, 51, 59
3, 95840, Note_on_c, 1, 51, 0
3, 95976, Note_on_c, 1, 51, 74
3, 96212, Note_on_c, 1, 51, 0
3, 96264, Note_on_c, 1, 50, 47
3, 96300, Note_on_c, 1, 50, 0
3, 96360, Note_on_c, 1, 50, 52
3, 96532, Note_on_c, 1, 50, 0
3, 96556, Note_on_c, 1, 48, 56
3, 96736, Note_on_c, 1, 48, 0
3, 96764, Note_on_c, 1, 32, 0
3, 96764, Note_on_c, 1, 46, 50
3, 97164, Note_on_c, 1, 46, 0
3, 97164, Note_on_c, 1, 41, 45
3, 97496, Note_on_c, 1, 41, 0
3, 97532, Note_on_c, 1, 44, 47
3, 97856, Note_on_c, 1, 38, 13
3, 97904, Note_on_c, 1, 38, 0
3, 97904, Note_on_c, 1, 44, 0
3, 97920, Note_on_c, 1, 35, 54
3, 98256, Note_on_c, 1, 35, 0
3, 98300, Note_on_c, 1, 31, 63
3, 98584, Note_on_c, 1, 38, 36
3, 98608, Note_on_c, 1, 38, 0
3, 98668, Note_on_c, 1, 43, 59
3, 98992, Note_on_c, 1, 38, 37
3, 99000, Note_on_c, 1, 43, 0
3, 99016, Note_on_c, 1, 38, 0
3, 99028, Note_on_c, 1, 31, 0
3, 99064, Note_on_c, 1, 48, 61
3, 99368, Note_on_c, 1, 48, 0
3, 99368, Note_on_c, 1, 46, 53
3, 99404, Note_on_c, 1, 46, 0
3, 99440, Note_on_c, 1, 36, 58
3, 99608, Note_on_c, 1, 36, 0
3, 99624, Note_on_c, 1, 40, 60
3, 99780, Note_on_c, 1, 40, 0
3, 99816, Note_on_c, 1, 41, 55
3, 100144, Note_on_c, 1, 40, 35
3, 100172, Note_on_c, 1, 40, 0
3, 100192, Note_on_c, 1, 41, 0
3, 100204, Note_on_c, 1, 44, 60
3, 100484, Note_on_c, 1, 39, 38
3, 100508, Note_on_c, 1, 39, 0
3, 100552, Note_on_c, 1, 44, 0
3, 100580, Note_on_c, 1, 47, 67
3, 100980, Note_on_c, 1, 39, 25
3, 101024, Note_on_c, 1, 39, 0
3, 101100, Note_on_c, 1, 46, 55
3, 101104, Note_on_c, 1, 47, 0
3, 101144, Note_on_c, 1, 46, 0
3, 101176, Note_on_c, 1, 44, 60
3, 101344, Note_on_c, 1, 44, 0
3, 101384, Note_on_c, 1, 43, 56
3, 101724, Note_on_c, 1, 43, 0
3, 101752, Note_on_c, 1, 50, 64
3, 101976, Note_on_c, 1, 50, 0
3, 102032, Note_on_c, 1, 48, 61
3, 102268, Note_on_c, 1, 48, 0
3, 102332, Note_on_c, 1, 36, 60
3, 102688, Note_on_c, 1, 48, 74
3, 102712, Note_on_c, 1, 48, 0
3, 102932, Note_on_c, 1, 36, 0
3, 102984, Note_on_c, 1, 45, 56
3, 103036, Note_on_c, 1, 45, 0
3, 103060, Note_on_c, 1, 42, 69
3, 103172, Note_on_c, 1, 42, 0
3, 103260, Note_on_c, 1, 42, 58
3, 103448, Note_on_c, 1, 42, 0
3, 103456, Note_on_c, 1, 39, 49
3, 103504, Note_on_c, 1, 39, 0
3, 103644, Note_on_c, 1, 39, 54
3, 103808, Note_on_c, 1, 39, 0
3, 103840, Note_on_c, 1, 36, 56
3, 103892, Note_on_c, 1, 36, 0
3, 104044, Note_on_c, 1, 36, 54
3, 104420, Note_on_c, 1, 36, 0
3, 104424, Note_on_c, 1, 41, 53
3, 104464, Note_on_c, 1, 41, 0
3, 104528, Note_on_c, 1, 46, 54
3, 104572, Note_on_c, 1, 46, 0
3, 104812, Note_on_c, 1, 46, 49
3, 104884, Note_on_c, 1, 46, 0
3, 105004, Note_on_c, 1, 34, 52
3, 105052, Note_on_c, 1, 34, 0
3, 105116, Note_on_c, 1, 34, 49
3, 105192, Note_on_c, 1, 34, 0
3, 105356, Note_on_c, 1, 34, 27
3, 105376, Note_on_c, 1, 34, 0
3, 105396, Note_on_c, 1, 46, 67
3, 105472, Note_on_c, 1, 46, 0
3, 105588, Note_on_c, 1, 46, 69
3, 105792, Note_on_c, 1, 34, 37
3, 105872, Note_on_c, 1, 34, 0
3, 105980, Note_on_c, 1, 46, 0
3, 105994, Note_on_c, 1, 39, 67
3, 106569, Note_on_c, 1, 46, 72
3, 106590, Note_on_c, 1, 39, 0
3, 106619, Note_on_c, 1, 46, 0
3, 106763, Note_on_c, 1, 43, 79
3, 107098, Note_on_c, 1, 43, 0
3, 107117, Note_on_c, 1, 35, 70
3, 107392, Note_on_c, 1, 35, 0
3, 107559, Note_on_c, 1, 48, 71
3, 107812, Note_on_c, 1, 48, 0
3, 107819, Note_on_c, 1, 43, 58
3, 108081, Note_on_c, 1, 36, 61
3, 108092, Note_on_c, 1, 43, 0
3, 108590, Note_on_c, 1, 43, 68
3, 108606, Note_on_c, 1, 36, 0
3, 108866, Note_on_c, 1, 43, 0
3, 108874, Note_on_c, 1, 47, 75
3, 109354, Note_on_c, 1, 43, 59
3, 109376, Note_on_c, 1, 47, 0
3, 109630, Note_on_c, 1, 43, 0
3, 109634, Note_on_c, 1, 35, 55
3, 110132, Note_on_c, 1, 43, 65
3, 110245, Note_on_c, 1, 35, 0
3, 110390, Note_on_c, 1, 43, 0
3, 110405, Note_on_c, 1, 46, 58
3, 110901, Note_on_c, 1, 43, 54
3, 110978, Note_on_c, 1, 46, 0
3, 111163, Note_on_c, 1, 34, 59
3, 111164, Note_on_c, 1, 43, 0
3, 111647, Note_on_c, 1, 45, 60
3, 111807, Note_on_c, 1, 34, 0
3, 111854, Note_on_c, 1, 39, 27
3, 111874, Note_on_c, 1, 39, 0
3, 111894, Note_on_c, 1, 45, 0
3, 111910, Note_on_c, 1, 44, 58
3, 112407, Note_on_c, 1, 39, 54
3, 112420, Note_on_c, 1, 44, 0
3, 112680, Note_on_c, 1, 39, 0
3, 112695, Note_on_c, 1, 32, 50
3, 113189, Note_on_c, 1, 39, 50
3, 113229, Note_on_c, 1, 39, 0
3, 113277, Note_on_c, 1, 39, 50
3, 113290, Note_on_c, 1, 32, 0
3, 113463, Note_on_c, 1, 46, 59
3, 113464, Note_on_c, 1, 39, 0
3, 113962, Note_on_c, 1, 41, 45
3, 113984, Note_on_c, 1, 41, 0
3, 114032, Note_on_c, 1, 46, 0
3, 114042, Note_on_c, 1, 41, 50
3, 114228, Note_on_c, 1, 47, 68
3, 114246, Note_on_c, 1, 41, 0
3, 114701, Note_on_c, 1, 41, 54
3, 114726, Note_on_c, 1, 41, 0
3, 114748, Note_on_c, 1, 47, 0
3, 114807, Note_on_c, 1, 41, 58
3, 114863, Note_on_c, 1, 41, 0
3, 114998, Note_on_c, 1, 39, 57
3, 115503, Note_on_c, 1, 51, 51
3, 115546, Note_on_c, 1, 51, 0
3, 115556, Note_on_c, 1, 39, 0
3, 115598, Note_on_c, 1, 51, 51
3, 115654, Note_on_c, 1, 51, 0
3, 115799, Note_on_c, 1, 45, 49
3, 116250, Note_on_c, 1, 40, 50
3, 116274, Note_on_c, 1, 40, 0
3, 116308, Note_on_c, 1, 45, 0
3, 116343, Note_on_c, 1, 33, 45
3, 116416, Note_on_c, 1, 33, 0
3, 116539, Note_on_c, 1, 34, 44
3, 116844, Note_on_c, 1, 34, 0
3, 116905, Note_on_c, 1, 39, 52
3, 116956, Note_on_c, 1, 39, 0
3, 117108, Note_on_c, 1, 39, 57
3, 117285, Note_on_c, 1, 39, 0
3, 117293, Note_on_c, 1, 38, 57
3, 117757, Note_on_c, 1, 38, 0
3, 117803, Note_on_c, 1, 45, 43
3, 117825, Note_on_c, 1, 45, 0
3, 117883, Note_on_c, 1, 45, 41
3, 117916, Note_on_c, 1, 45, 0
3, 118074, Note_on_c, 1, 43, 60
3, 118546, Note_on_c, 1, 38, 45
3, 118566, Note_on_c, 1, 38, 0
3, 118582, Note_on_c, 1, 43, 0
3, 118639, Note_on_c, 1, 38, 54
3, 118660, Note_on_c, 1, 38, 0
3, 118840, Note_on_c, 1, 35, 44
3, 119304, Note_on_c, 1, 35, 0
3, 119308, Note_on_c, 1, 31, 52
3, 119354, Note_on_c, 1, 31, 0
3, 119404, Note_on_c, 1, 31, 49
3, 119520, Note_on_c, 1, 31, 0
3, 119604, Note_on_c, 1, 36, 63
3, 120103, Note_on_c, 1, 43, 41
3, 120131, Note_on_c, 1, 43, 0
3, 120153, Note_on_c, 1, 36, 0
3, 120186, Note_on_c, 1, 43, 41
3, 120236, Note_on_c, 1, 43, 0
3, 120383, Note_on_c, 1, 48, 63
3, 120833, Note_on_c, 1, 48, 0
3, 120862, Note_on_c, 1, 51, 43
3, 120901, Note_on_c, 1, 51, 0
3, 120959, Note_on_c, 1, 51, 46
3, 121011, Note_on_c, 1, 51, 0
3, 121151, Note_on_c, 1, 48, 60
3, 121218, Note_on_c, 1, 48, 0
3, 121351, Note_on_c, 1, 47, 49
3, 121632, Note_on_c, 1, 47, 0
3, 121641, Note_on_c, 1, 43, 49
3, 121669, Note_on_c, 1, 43, 0
3, 121726, Note_on_c, 1, 43, 49
3, 121766, Note_on_c, 1, 43, 0
3, 121936, Note_on_c, 1, 35, 54
3, 122416, Note_on_c, 1, 43, 47
3, 122436, Note_on_c, 1, 43, 0
3, 122449, Note_on_c, 1, 35, 0
3, 122499, Note_on_c, 1, 43, 47
3, 122525, Note_on_c, 1, 43, 0
3, 122687, Note_on_c, 1, 43, 59
3, 123144, Note_on_c, 1, 43, 0
3, 123153, Note_on_c, 1, 46, 57
3, 123215, Note_on_c, 1, 46, 0
3, 123246, Note_on_c, 1, 46, 35
3, 123290, Note_on_c, 1, 46, 0
3, 123439, Note_on_c, 1, 43, 56
3, 123931, Note_on_c, 1, 34, 50
3, 123949, Note_on_c, 1, 43, 0
3, 123977, Note_on_c, 1, 34, 0
3, 124015, Note_on_c, 1, 33, 57
3, 124118, Note_on_c, 1, 33, 0
3, 124223, Note_on_c, 1, 32, 60
3, 124730, Note_on_c, 1, 39, 51
3, 124767, Note_on_c, 1, 32, 0
3, 124770, Note_on_c, 1, 39, 0
3, 124818, Note_on_c, 1, 39, 39
3, 125092, Note_on_c, 1, 48, 56
3, 125130, Note_on_c, 1, 48, 0
3, 125134, Note_on_c, 1, 39, 0
3, 125181, Note_on_c, 1, 48, 59
3, 125445, Note_on_c, 1, 48, 0
3, 125470, Note_on_c, 1, 39, 62
3, 125691, Note_on_c, 1, 39, 0
3, 125728, Note_on_c, 1, 34, 58
3, 125808, Note_on_c, 1, 35, 45
3, 125866, Note_on_c, 1, 35, 0
3, 126277, Note_on_c, 1, 46, 47
3, 126316, Note_on_c, 1, 46, 0
3, 126331, Note_on_c, 1, 34, 0
3, 126374, Note_on_c, 1, 46, 50
3, 126411, Note_on_c, 1, 46, 0
3, 126545, Note_on_c, 1, 47, 69
3, 127080, Note_on_c, 1, 47, 0
3, 127098, Note_on_c, 1, 41, 52
3, 127130, Note_on_c, 1, 41, 0
3, 127288, Note_on_c, 1, 41, 49
3, 127435, Note_on_c, 1, 41, 0
3, 127480, Note_on_c, 1, 39, 57
3, 127769, Note_on_c, 1, 39, 0
3, 127785, Note_on_c, 1, 34, 48
3, 127839, Note_on_c, 1, 34, 0
3, 127868, Note_on_c, 1, 34, 57
3, 127974, Note_on_c, 1, 34, 0
3, 128072, Note_on_c, 1, 33, 64
3, 128560, Note_on_c, 1, 45, 50
3, 128580, Note_on_c, 1, 45, 0
3, 128609, Note_on_c, 1, 33, 0
3, 128639, Note_on_c, 1, 45, 51
3, 128682, Note_on_c, 1, 45, 0
3, 128823, Note_on_c, 1, 44, 62
3, 129350, Note_on_c, 1, 39, 55
3, 129368, Note_on_c, 1, 44, 0
3, 129581, Note_on_c, 1, 39, 0
3, 129602, Note_on_c, 1, 34, 51
3, 130071, Note_on_c, 1, 46, 49
3, 130115, Note_on_c, 1, 34, 0
3, 130351, Note_on_c, 1, 39, 59
3, 130363, Note_on_c, 1, 46, 0
3, 130910, Note_on_c, 1, 46, 45
3, 130911, Note_on_c, 1, 39, 0
3, 130933, Note_on_c, 1, 46, 0
3, 131110, Note_on_c, 1, 46, 55
3, 131613, Note_on_c, 1, 34, 46
3, 131642, Note_on_c, 1, 46, 0
3, 131660, Note_on_c, 1, 34, 0
3, 131706, Note_on_c, 1, 34, 37
3, 131900, Note_on_c, 1, 41, 58
3, 131918, Note_on_c, 1, 34, 0
3, 132400, Note_on_c, 1, 46, 47
3, 132407, Note_on_c, 1, 41, 0
3, 132474, Note_on_c, 1, 46, 0
3, 132664, Note_on_c, 1, 34, 49
3, 133158, Note_on_c, 1, 46, 45
3, 133190, Note_on_c, 1, 34, 0
3, 133194, Note_on_c, 1, 46, 0
3, 133245, Note_on_c, 1, 46, 45
3, 133285, Note_on_c, 1, 46, 0
3, 133425, Note_on_c, 1, 39, 56
3, 133919, Note_on_c, 1, 46, 49
3, 133943, Note_on_c, 1, 46, 0
3, 133972, Note_on_c, 1, 39, 0
3, 134006, Note_on_c, 1, 46, 46
3, 134025, Note_on_c, 1, 46, 0
3, 134189, Note_on_c, 1, 48, 67
3, 134675, Note_on_c, 1, 36, 57
3, 134726, Note_on_c, 1, 36, 0
3, 134871, Note_on_c, 1, 36, 26
3, 134878, Note_on_c, 1, 48, 0
3, 134893, Note_on_c, 1, 36, 0
3, 134933, Note_on_c, 1, 41, 54
3, 135454, Note_on_c, 1, 36, 55
3, 135473, Note_on_c, 1, 41, 0
3, 135734, Note_on_c, 1, 34, 56
3, 135744, Note_on_c, 1, 36, 0
3, 136218, Note_on_c, 1, 46, 45
3, 136239, Note_on_c, 1, 34, 0
3, 136252, Note_on_c, 1, 46, 0
3, 136296, Note_on_c, 1, 46, 46
3, 136340, Note_on_c, 1, 46, 0
3, 136507, Note_on_c, 1, 39, 58
3, 136984, Note_on_c, 1, 49, 58
3, 137027, Note_on_c, 1, 49, 0
3, 137031, Note_on_c, 1, 39, 0
3, 137076, Note_on_c, 1, 48, 39
3, 137113, Note_on_c, 1, 48, 0
3, 137269, Note_on_c, 1, 43, 60
3, 137562, Note_on_c, 1, 43, 0
3, 137571, Note_on_c, 1, 36, 59
3, 137937, Note_on_c, 1, 43, 56
3, 137966, Note_on_c, 1, 36, 0
3, 137983, Note_on_c, 1, 43, 0
3, 138028, Note_on_c, 1, 42, 52
3, 138186, Note_on_c, 1, 42, 0
3, 138220, Note_on_c, 1, 41, 52
3, 138526, Note_on_c, 1, 41, 0
3, 138526, Note_on_c, 1, 36, 53
3, 138545, Note_on_c, 1, 36, 0
3, 138614, Note_on_c, 1, 36, 57
3, 138804, Note_on_c, 1, 36, 0
3, 138825, Note_on_c, 1, 34, 60
3, 139321, Note_on_c, 1, 46, 45
3, 139321, Note_on_c, 1, 46, 0
3, 139353, Note_on_c, 1, 34, 0
3, 139386, Note_on_c, 1, 46, 52
3, 139426, Note_on_c, 1, 46, 0
3, 139581, Note_on_c, 1, 43, 59
3, 140030, Note_on_c, 1, 43, 0
3, 140050, Note_on_c, 1, 39, 46
3, 140093, Note_on_c, 1, 39, 0
3, 140134, Note_on_c, 1, 39, 45
3, 140214, Note_on_c, 1, 39, 0
3, 140339, Note_on_c, 1, 43, 61
3, 140815, Note_on_c, 1, 38, 50
3, 140839, Note_on_c, 1, 38, 0
3, 140859, Note_on_c, 1, 43, 0
3, 140903, Note_on_c, 1, 35, 49
3, 141083, Note_on_c, 1, 35, 0
3, 141117, Note_on_c, 1, 36, 69
3, 141617, Note_on_c, 1, 49, 50
3, 141637, Note_on_c, 1, 49, 0
3, 141645, Note_on_c, 1, 48, 32
3, 141667, Note_on_c, 1, 48, 0
3, 141672, Note_on_c, 1, 36, 0
3, 141709, Note_on_c, 1, 48, 58
3, 141751, Note_on_c, 1, 48, 0
3, 141898, Note_on_c, 1, 45, 56
3, 141899, Note_on_c, 1, 47, 62
3, 141939, Note_on_c, 1, 47, 0
3, 142337, Note_on_c, 1, 45, 0
3, 142365, Note_on_c, 1, 50, 55
3, 142394, Note_on_c, 1, 50, 0
3, 142446, Note_on_c, 1, 50, 55
3, 142493, Note_on_c, 1, 50, 0
3, 142650, Note_on_c, 1, 43, 54
3, 143128, Note_on_c, 1, 38, 58
3, 143136, Note_on_c, 1, 43, 0
3, 143173, Note_on_c, 1, 38, 0
3, 143222, Note_on_c, 1, 38, 41
3, 143267, Note_on_c, 1, 38, 0
3, 143404, Note_on_c, 1, 31, 60
3, 143720, Note_on_c, 1, 31, 0
3, 143724, Note_on_c, 1, 35, 60
3, 143814, Note_on_c, 1, 35, 0
3, 143991, Note_on_c, 1, 38, 69
3, 144321, Note_on_c, 1, 38, 0
3, 144385, Note_on_c, 1, 36, 48
3, 144671, Note_on_c, 1, 43, 49
3, 144683, Note_on_c, 1, 36, 0
3, 144730, Note_on_c, 1, 43, 0
3, 144950, Note_on_c, 1, 48, 71
3, 145369, Note_on_c, 1, 48, 0
3, 145407, Note_on_c, 1, 43, 51
3, 145439, Note_on_c, 1, 43, 0
3, 145497, Note_on_c, 1, 36, 44
3, 145560, Note_on_c, 1, 36, 0
3, 145712, Note_on_c, 1, 35, 50
3, 146196, Note_on_c, 1, 43, 41
3, 146218, Note_on_c, 1, 43, 0
3, 146277, Note_on_c, 1, 35, 0
3, 146288, Note_on_c, 1, 43, 36
3, 146313, Note_on_c, 1, 43, 0
3, 146488, Note_on_c, 1, 47, 55
3, 146934, Note_on_c, 1, 43, 50
3, 146941, Note_on_c, 1, 47, 0
3, 146963, Note_on_c, 1, 43, 0
3, 147035, Note_on_c, 1, 35, 43
3, 147113, Note_on_c, 1, 35, 0
3, 147227, Note_on_c, 1, 34, 56
3, 147753, Note_on_c, 1, 43, 51
3, 147779, Note_on_c, 1, 43, 0
3, 147799, Note_on_c, 1, 34, 0
3, 147834, Note_on_c, 1, 43, 31
3, 147871, Note_on_c, 1, 43, 0
3, 148025, Note_on_c, 1, 46, 55
3, 148517, Note_on_c, 1, 45, 32
3, 148520, Note_on_c, 1, 46, 0
3, 148539, Note_on_c, 1, 45, 0
3, 148592, Note_on_c, 1, 45, 38
3, 148658, Note_on_c, 1, 45, 0
3, 148799, Note_on_c, 1, 44, 49
3, 149273, Note_on_c, 1, 39, 48
3, 149308, Note_on_c, 1, 44, 0
3, 149311, Note_on_c, 1, 39, 0
3, 149362, Note_on_c, 1, 39, 41
3, 149555, Note_on_c, 1, 39, 0
3, 149561, Note_on_c, 1, 32, 58
3, 150044, Note_on_c, 1, 39, 51
3, 150089, Note_on_c, 1, 39, 0
3, 150135, Note_on_c, 1, 39, 35
3, 150170, Note_on_c, 1, 32, 0
3, 150194, Note_on_c, 1, 39, 0
3, 150329, Note_on_c, 1, 34, 49
3, 150822, Note_on_c, 1, 46, 42
3, 150849, Note_on_c, 1, 34, 0
3, 150855, Note_on_c, 1, 46, 0
3, 150907, Note_on_c, 1, 46, 43
3, 150951, Note_on_c, 1, 46, 0
3, 151111, Note_on_c, 1, 47, 60
3, 151578, Note_on_c, 1, 35, 48
3, 151588, Note_on_c, 1, 41, 22
3, 151602, Note_on_c, 1, 35, 0
3, 151607, Note_on_c, 1, 41, 0
3, 151656, Note_on_c, 1, 35, 51
3, 151669, Note_on_c, 1, 47, 0
3, 151854, Note_on_c, 1, 42, 60
3, 151887, Note_on_c, 1, 35, 0
3, 151959, Note_on_c, 1, 42, 0
3, 152061, Note_on_c, 1, 43, 58
3, 152397, Note_on_c, 1, 37, 50
3, 152403, Note_on_c, 1, 43, 0
3, 152439, Note_on_c, 1, 37, 0
3, 152481, Note_on_c, 1, 37, 47
3, 152775, Note_on_c, 1, 37, 0
3, 152790, Note_on_c, 1, 36, 60
3, 152814, Note_on_c, 1, 36, 0
3, 152868, Note_on_c, 1, 36, 55
3, 153146, Note_on_c, 1, 48, 52
3, 153170, Note_on_c, 1, 36, 0
3, 153173, Note_on_c, 1, 48, 0
3, 153230, Note_on_c, 1, 48, 54
3, 153287, Note_on_c, 1, 48, 0
3, 153423, Note_on_c, 1, 41, 43
3, 153539, Note_on_c, 1, 41, 0
3, 153591, Note_on_c, 1, 41, 55
3, 153895, Note_on_c, 1, 41, 0
3, 153903, Note_on_c, 1, 36, 59
3, 153943, Note_on_c, 1, 36, 0
3, 153991, Note_on_c, 1, 36, 47
3, 154271, Note_on_c, 1, 32, 45
3, 154293, Note_on_c, 1, 36, 0
3, 154304, Note_on_c, 1, 32, 0
3, 154359, Note_on_c, 1, 32, 54
3, 154659, Note_on_c, 1, 46, 41
3, 154691, Note_on_c, 1, 46, 0
3, 154748, Note_on_c, 1, 46, 51
3, 154751, Note_on_c, 1, 32, 0
3, 154872, Note_on_c, 1, 46, 0
3, 154884, Note_on_c, 1, 32, 26
3, 154930, Note_on_c, 1, 44, 56
3, 154931, Note_on_c, 1, 32, 0
3, 155095, Note_on_c, 1, 44, 0
3, 155130, Note_on_c, 1, 43, 52
3, 155529, Note_on_c, 1, 37, 27
3, 155535, Note_on_c, 1, 36, 56
3, 155545, Note_on_c, 1, 43, 0
3, 155658, Note_on_c, 1, 36, 0
3, 155805, Note_on_c, 1, 34, 38
3, 155826, Note_on_c, 1, 37, 0
3, 155891, Note_on_c, 1, 34, 0
3, 155893, Note_on_c, 1, 36, 60
3, 156178, Note_on_c, 1, 34, 20
3, 156187, Note_on_c, 1, 48, 54
3, 156218, Note_on_c, 1, 36, 0
3, 156224, Note_on_c, 1, 48, 0
3, 156265, Note_on_c, 1, 34, 0
3, 156272, Note_on_c, 1, 48, 55
3, 156318, Note_on_c, 1, 48, 0
3, 156469, Note_on_c, 1, 36, 60
3, 156565, Note_on_c, 1, 36, 0
3, 156672, Note_on_c, 1, 42, 65
3, 157063, Note_on_c, 1, 39, 50
3, 157066, Note_on_c, 1, 42, 0
3, 157372, Note_on_c, 1, 39, 0
3, 157451, Note_on_c, 1, 36, 63
3, 157755, Note_on_c, 1, 33, 36
3, 157756, Note_on_c, 1, 36, 0
3, 157778, Note_on_c, 1, 33, 0
3, 157819, Note_on_c, 1, 33, 49
3, 158181, Note_on_c, 1, 33, 0
3, 158197, Note_on_c, 1, 41, 57
3, 158502, Note_on_c, 1, 36, 55
3, 158527, Note_on_c, 1, 41, 0
3, 158554, Note_on_c, 1, 36, 0
3, 158592, Note_on_c, 1, 29, 47
3, 158933, Note_on_c, 1, 29, 0
3, 158953, Note_on_c, 1, 34, 58
3, 159282, Note_on_c, 1, 46, 45
3, 159313, Note_on_c, 1, 46, 0
3, 159366, Note_on_c, 1, 46, 54
3, 159372, Note_on_c, 1, 34, 0
3, 159416, Note_on_c, 1, 46, 0
3, 159549, Note_on_c, 1, 46, 60
3, 159716, Note_on_c, 1, 46, 0
3, 159757, Note_on_c, 1, 39, 60
3, 160061, Note_on_c, 1, 46, 49
3, 160087, Note_on_c, 1, 46, 0
3, 160130, Note_on_c, 1, 39, 0
3, 160144, Note_on_c, 1, 46, 46
3, 160185, Note_on_c, 1, 46, 0
3, 160343, Note_on_c, 1, 43, 73
3, 160613, Note_on_c, 1, 38, 71
3, 160631, Note_on_c, 1, 43, 0
3, 160898, Note_on_c, 1, 38, 0
3, 160902, Note_on_c, 1, 35, 52
3, 160967, Note_on_c, 1, 35, 0
3, 161094, Note_on_c, 1, 35, 60
3, 161168, Note_on_c, 1, 35, 0
3, 161302, Note_on_c, 1, 36, 60
3, 161670, Note_on_c, 1, 43, 74
3, 161692, Note_on_c, 1, 36, 0
3, 161856, Note_on_c, 1, 43, 0
3, 161878, Note_on_c, 1, 31, 44
3, 162035, Note_on_c, 1, 31, 0
3, 162048, Note_on_c, 1, 36, 66
3, 162336, Note_on_c, 1, 43, 81
3, 162355, Note_on_c, 1, 36, 0
3, 162621, Note_on_c, 1, 43, 0
3, 162630, Note_on_c, 1, 31, 37
3, 162793, Note_on_c, 1, 31, 0
3, 162816, Note_on_c, 1, 35, 59
3, 163107, Note_on_c, 1, 43, 74
3, 163309, Note_on_c, 1, 35, 0
3, 163392, Note_on_c, 1, 35, 71
3, 163523, Note_on_c, 1, 35, 0
3, 163584, Note_on_c, 1, 35, 80
3, 163629, Note_on_c, 1, 43, 0
3, 163881, Note_on_c, 1, 43, 79
3, 163923, Note_on_c, 1, 35, 0
3, 164147, Note_on_c, 1, 35, 53
3, 164195, Note_on_c, 1, 35, 0
3, 164342, Note_on_c, 1, 43, 0
3, 164361, Note_on_c, 1, 34, 57
3, 164630, Note_on_c, 1, 43, 72
3, 164924, Note_on_c, 1, 51, 59
3, 164963, Note_on_c, 1, 34, 0
3, 164978, Note_on_c, 1, 51, 0
3, 165120, Note_on_c, 1, 43, 0
3, 165120, Note_on_c, 1, 34, 70
3, 165404, Note_on_c, 1, 43, 64
3, 165469, Note_on_c, 1, 34, 0
3, 165696, Note_on_c, 1, 33, 62
3, 165750, Note_on_c, 1, 33, 0
3, 165865, Note_on_c, 1, 43, 0
3, 165891, Note_on_c, 1, 32, 67
3, 166150, Note_on_c, 1, 39, 49
3, 166169, Note_on_c, 1, 39, 0
3, 166214, Note_on_c, 1, 32, 0
3, 166262, Note_on_c, 1, 48, 61
3, 166448, Note_on_c, 1, 39, 55
3, 166460, Note_on_c, 1, 48, 0
3, 166512, Note_on_c, 1, 39, 0
3, 166550, Note_on_c, 1, 32, 69
3, 166950, Note_on_c, 1, 39, 46
3, 166972, Note_on_c, 1, 39, 0
3, 166998, Note_on_c, 1, 32, 0
3, 167033, Note_on_c, 1, 48, 53
3, 167075, Note_on_c, 1, 48, 0
3, 167241, Note_on_c, 1, 33, 71
3, 167398, Note_on_c, 1, 33, 0
3, 167424, Note_on_c, 1, 34, 62
3, 167715, Note_on_c, 1, 46, 58
3, 167830, Note_on_c, 1, 34, 0
3, 167955, Note_on_c, 1, 46, 0
3, 167993, Note_on_c, 1, 35, 71
3, 168496, Note_on_c, 1, 47, 80
3, 168566, Note_on_c, 1, 35, 0
3, 168659, Note_on_c, 1, 47, 0
3, 168665, Note_on_c, 1, 35, 55
3, 168691, Note_on_c, 1, 35, 0
3, 168764, Note_on_c, 1, 35, 55
3, 168962, Note_on_c, 1, 35, 0
3, 168963, Note_on_c, 1, 39, 59
3, 169248, Note_on_c, 1, 37, 25
3, 169312, Note_on_c, 1, 39, 0
3, 169328, Note_on_c, 1, 51, 46
3, 169347, Note_on_c, 1, 37, 0
3, 169466, Note_on_c, 1, 51, 0
3, 169529, Note_on_c, 1, 45, 82
3, 169808, Note_on_c, 1, 40, 70
3, 169836, Note_on_c, 1, 45, 0
3, 169850, Note_on_c, 1, 40, 0
3, 169929, Note_on_c, 1, 33, 73
3, 170224, Note_on_c, 1, 39, 52
3, 170243, Note_on_c, 1, 33, 0
3, 170246, Note_on_c, 1, 39, 0
3, 170313, Note_on_c, 1, 33, 64
3, 170358, Note_on_c, 1, 33, 0
3, 170496, Note_on_c, 1, 32, 62
3, 170771, Note_on_c, 1, 39, 49
3, 170793, Note_on_c, 1, 39, 0
3, 170860, Note_on_c, 1, 39, 49
3, 170867, Note_on_c, 1, 32, 0
3, 171039, Note_on_c, 1, 39, 0
3, 171068, Note_on_c, 1, 37, 40
3, 171244, Note_on_c, 1, 37, 0
3, 171369, Note_on_c, 1, 38, 64
3, 171481, Note_on_c, 1, 45, 37
3, 171555, Note_on_c, 1, 45, 0
3, 171555, Note_on_c, 1, 38, 0
3, 171571, Note_on_c, 1, 54, 76
3, 171731, Note_on_c, 1, 54, 0
3, 171756, Note_on_c, 1, 42, 47
3, 171794, Note_on_c, 1, 42, 0
3, 171833, Note_on_c, 1, 42, 40
3, 171932, Note_on_c, 1, 42, 0
3, 171948, Note_on_c, 1, 47, 60
3, 172012, Note_on_c, 1, 47, 0
3, 172044, Note_on_c, 1, 42, 32
3, 172137, Note_on_c, 1, 42, 0
3, 172169, Note_on_c, 1, 38, 31
3, 172188, Note_on_c, 1, 38, 0
3, 172243, Note_on_c, 1, 40, 63
3, 172381, Note_on_c, 1, 40, 0
3, 172406, Note_on_c, 1, 31, 65
3, 172713, Note_on_c, 1, 38, 55
3, 172732, Note_on_c, 1, 38, 0
3, 172758, Note_on_c, 1, 31, 0
3, 172793, Note_on_c, 1, 43, 55
3, 172883, Note_on_c, 1, 43, 0
3, 172902, Note_on_c, 1, 43, 42
3, 172956, Note_on_c, 1, 43, 0
3, 173100, Note_on_c, 1, 38, 68
3, 173138, Note_on_c, 1, 38, 0
3, 173280, Note_on_c, 1, 34, 60
3, 173331, Note_on_c, 1, 34, 0
3, 173369, Note_on_c, 1, 35, 59
3, 173539, Note_on_c, 1, 35, 0
3, 173571, Note_on_c, 1, 36, 57
3, 173856, Note_on_c, 1, 43, 43
3, 173875, Note_on_c, 1, 43, 0
3, 173945, Note_on_c, 1, 36, 0
3, 173948, Note_on_c, 1, 48, 55
3, 174252, Note_on_c, 1, 35, 38
3, 174284, Note_on_c, 1, 35, 0
3, 174316, Note_on_c, 1, 48, 0
3, 174342, Note_on_c, 1, 36, 60
3, 174643, Note_on_c, 1, 43, 36
3, 174665, Note_on_c, 1, 43, 0
3, 174732, Note_on_c, 1, 50, 63
3, 174790, Note_on_c, 1, 50, 0
3, 174835, Note_on_c, 1, 48, 66
3, 174870, Note_on_c, 1, 36, 0
3, 174902, Note_on_c, 1, 48, 0
3, 174928, Note_on_c, 1, 43, 35
3, 174979, Note_on_c, 1, 43, 0
3, 175040, Note_on_c, 1, 36, 61
3, 175091, Note_on_c, 1, 36, 0
3, 175136, Note_on_c, 1, 35, 53
3, 175414, Note_on_c, 1, 47, 65
3, 175469, Note_on_c, 1, 35, 0
3, 175702, Note_on_c, 1, 35, 60
3, 175705, Note_on_c, 1, 47, 0
3, 175939, Note_on_c, 1, 43, 47
3, 175961, Note_on_c, 1, 43, 0
3, 176041, Note_on_c, 1, 47, 32
3, 176111, Note_on_c, 1, 47, 0
3, 176128, Note_on_c, 1, 35, 0
3, 176156, Note_on_c, 1, 50, 74
3, 176198, Note_on_c, 1, 50, 0
3, 176256, Note_on_c, 1, 47, 43
3, 176285, Note_on_c, 1, 47, 0
3, 176345, Note_on_c, 1, 43, 63
3, 176371, Note_on_c, 1, 43, 0
3, 176448, Note_on_c, 1, 35, 46
3, 176534, Note_on_c, 1, 35, 0
3, 176560, Note_on_c, 1, 43, 58
3, 176618, Note_on_c, 1, 43, 0
3, 176652, Note_on_c, 1, 34, 62
3, 177004, Note_on_c, 1, 34, 0
3, 177033, Note_on_c, 1, 48, 78
3, 177299, Note_on_c, 1, 48, 0
3, 177312, Note_on_c, 1, 43, 54
3, 177340, Note_on_c, 1, 34, 69
3, 177357, Note_on_c, 1, 43, 0
3, 177551, Note_on_c, 1, 34, 0
3, 177587, Note_on_c, 1, 34, 69
3, 177856, Note_on_c, 1, 34, 0
3, 177888, Note_on_c, 1, 33, 72
3, 178115, Note_on_c, 1, 33, 0
3, 178176, Note_on_c, 1, 32, 71
3, 178444, Note_on_c, 1, 39, 50
3, 178466, Note_on_c, 1, 39, 0
3, 178493, Note_on_c, 1, 32, 0
3, 178547, Note_on_c, 1, 48, 71
3, 178851, Note_on_c, 1, 39, 40
3, 178867, Note_on_c, 1, 39, 0
3, 178889, Note_on_c, 1, 48, 0
3, 178934, Note_on_c, 1, 32, 71
3, 179238, Note_on_c, 1, 39, 50
3, 179260, Note_on_c, 1, 32, 0
3, 179267, Note_on_c, 1, 39, 0
3, 179321, Note_on_c, 1, 48, 55
3, 179340, Note_on_c, 1, 48, 0
3, 179443, Note_on_c, 1, 33, 67
3, 179795, Note_on_c, 1, 33, 0
3, 179808, Note_on_c, 1, 34, 74
3, 180067, Note_on_c, 1, 34, 0
3, 180089, Note_on_c, 1, 46, 59
3, 180595, Note_on_c, 1, 38, 47
3, 180614, Note_on_c, 1, 38, 0
3, 180675, Note_on_c, 1, 35, 62
3, 180687, Note_on_c, 1, 46, 0
3, 180944, Note_on_c, 1, 35, 0
3, 180966, Note_on_c, 1, 38, 69
3, 181219, Note_on_c, 1, 38, 0
3, 181251, Note_on_c, 1, 39, 73
3, 181702, Note_on_c, 1, 39, 0
3, 181715, Note_on_c, 1, 34, 52
3, 181750, Note_on_c, 1, 34, 0
3, 181808, Note_on_c, 1, 33, 67
3, 182102, Note_on_c, 1, 45, 70
3, 182422, Note_on_c, 1, 33, 0
3, 182476, Note_on_c, 1, 51, 71
3, 182489, Note_on_c, 1, 45, 0
3, 182540, Note_on_c, 1, 51, 0
3, 182563, Note_on_c, 1, 45, 37
3, 182589, Note_on_c, 1, 45, 0
3, 182694, Note_on_c, 1, 33, 46
3, 182745, Note_on_c, 1, 33, 0
3, 182774, Note_on_c, 1, 44, 56
3, 183059, Note_on_c, 1, 39, 57
3, 183101, Note_on_c, 1, 39, 0
3, 183126, Note_on_c, 1, 44, 0
3, 183164, Note_on_c, 1, 32, 60
3, 183254, Note_on_c, 1, 32, 0
3, 183356, Note_on_c, 1, 33, 68
3, 183590, Note_on_c, 1, 33, 0
3, 183635, Note_on_c, 1, 34, 64
3, 183926, Note_on_c, 1, 34, 0
3, 183926, Note_on_c, 1, 46, 64
3, 184220, Note_on_c, 1, 38, 58
3, 184230, Note_on_c, 1, 46, 0
3, 184274, Note_on_c, 1, 38, 0
3, 184316, Note_on_c, 1, 39, 56
3, 184601, Note_on_c, 1, 43, 45
3, 184604, Note_on_c, 1, 39, 0
3, 184860, Note_on_c, 1, 43, 0
3, 184899, Note_on_c, 1, 34, 51
3, 185046, Note_on_c, 1, 34, 0
3, 185084, Note_on_c, 1, 39, 55
3, 185372, Note_on_c, 1, 46, 60
3, 185446, Note_on_c, 1, 39, 0
3, 185776, Note_on_c, 1, 40, 37
3, 185785, Note_on_c, 1, 46, 0
3, 185805, Note_on_c, 1, 40, 0
3, 185859, Note_on_c, 1, 41, 58
3, 186125, Note_on_c, 1, 41, 0
3, 186156, Note_on_c, 1, 36, 60
3, 186454, Note_on_c, 1, 46, 45
3, 186460, Note_on_c, 1, 36, 0
3, 186460, Note_on_c, 1, 48, 78
3, 186470, Note_on_c, 1, 46, 0
3, 186719, Note_on_c, 1, 48, 0
3, 186736, Note_on_c, 1, 46, 64
3, 186950, Note_on_c, 1, 46, 0
3, 187001, Note_on_c, 1, 38, 56
3, 187270, Note_on_c, 1, 39, 71
3, 187273, Note_on_c, 1, 38, 0
3, 187657, Note_on_c, 1, 39, 0
3, 187673, Note_on_c, 1, 34, 38
3, 187705, Note_on_c, 1, 34, 0
3, 187769, Note_on_c, 1, 34, 50
3, 187939, Note_on_c, 1, 34, 0
3, 187952, Note_on_c, 1, 35, 51
3, 188125, Note_on_c, 1, 35, 0
3, 188134, Note_on_c, 1, 36, 55
3, 188438, Note_on_c, 1, 48, 65
3, 188486, Note_on_c, 1, 36, 0
3, 188620, Note_on_c, 1, 48, 0
3, 188640, Note_on_c, 1, 34, 45
3, 188678, Note_on_c, 1, 34, 0
3, 188726, Note_on_c, 1, 42, 53
3, 188908, Note_on_c, 1, 42, 0
3, 188924, Note_on_c, 1, 41, 55
3, 189222, Note_on_c, 1, 36, 43
3, 189244, Note_on_c, 1, 36, 0
3, 189282, Note_on_c, 1, 41, 0
3, 189318, Note_on_c, 1, 34, 70
3, 189475, Note_on_c, 1, 34, 0
3, 189516, Note_on_c, 1, 34, 69
3, 189929, Note_on_c, 1, 34, 0
3, 190016, Note_on_c, 1, 46, 59
3, 190080, Note_on_c, 1, 46, 0
3, 190256, Note_on_c, 1, 39, 62
3, 190745, Note_on_c, 1, 46, 42
3, 190778, Note_on_c, 1, 39, 0
3, 190806, Note_on_c, 1, 46, 0
3, 191017, Note_on_c, 1, 48, 74
3, 191523, Note_on_c, 1, 36, 57
3, 191545, Note_on_c, 1, 48, 0
3, 191782, Note_on_c, 1, 36, 0
3, 191801, Note_on_c, 1, 41, 74
3, 192371, Note_on_c, 1, 35, 48
3, 192387, Note_on_c, 1, 41, 0
3, 192557, Note_on_c, 1, 35, 0
3, 192572, Note_on_c, 1, 34, 61
3, 193110, Note_on_c, 1, 34, 0
3, 193148, Note_on_c, 1, 46, 50
3, 193212, Note_on_c, 1, 46, 0
3, 193241, Note_on_c, 1, 37, 60
3, 193321, Note_on_c, 1, 37, 0
3, 193334, Note_on_c, 1, 38, 64
3, 193507, Note_on_c, 1, 38, 0
3, 193536, Note_on_c, 1, 39, 63
3, 193846, Note_on_c, 1, 43, 57
3, 193859, Note_on_c, 1, 43, 0
3, 193866, Note_on_c, 1, 39, 0
3, 194016, Note_on_c, 1, 39, 47
3, 194038, Note_on_c, 1, 39, 0
3, 194099, Note_on_c, 1, 42, 57
3, 194368, Note_on_c, 1, 42, 0
3, 194384, Note_on_c, 1, 43, 63
3, 194419, Note_on_c, 1, 43, 0
3, 194476, Note_on_c, 1, 38, 68
3, 194649, Note_on_c, 1, 38, 0
3, 194684, Note_on_c, 1, 35, 62
3, 194850, Note_on_c, 1, 35, 0
3, 194867, Note_on_c, 1, 38, 54
3, 194953, Note_on_c, 1, 38, 0
3, 194982, Note_on_c, 1, 35, 54
3, 195017, Note_on_c, 1, 35, 0
3, 195078, Note_on_c, 1, 36, 72
3, 195555, Note_on_c, 1, 50, 64
3, 195597, Note_on_c, 1, 50, 0
3, 195654, Note_on_c, 1, 46, 38
3, 195680, Note_on_c, 1, 46, 0
3, 195827, Note_on_c, 1, 36, 0
3, 195843, Note_on_c, 1, 45, 73
3, 196137, Note_on_c, 1, 45, 0
3, 196144, Note_on_c, 1, 38, 65
3, 196348, Note_on_c, 1, 37, 44
3, 196371, Note_on_c, 1, 38, 0
3, 196383, Note_on_c, 1, 37, 0
3, 196422, Note_on_c, 1, 43, 68
3, 196896, Note_on_c, 1, 38, 62
3, 196905, Note_on_c, 1, 43, 0
3, 197165, Note_on_c, 1, 38, 0
3, 197184, Note_on_c, 1, 31, 71
3, 197645, Note_on_c, 1, 31, 0
3, 197654, Note_on_c, 1, 35, 68
3, 197942, Note_on_c, 1, 35, 0
3, 197948, Note_on_c, 1, 36, 80
3, 198419, Note_on_c, 1, 43, 59
3, 198434, Note_on_c, 1, 36, 0
3, 198713, Note_on_c, 1, 43, 0
3, 198732, Note_on_c, 1, 36, 73
3, 199308, Note_on_c, 1, 43, 66
3, 199314, Note_on_c, 1, 36, 0
3, 199583, Note_on_c, 1, 43, 0
3, 199584, Note_on_c, 1, 35, 71
3, 200169, Note_on_c, 1, 43, 74
3, 200211, Note_on_c, 1, 35, 0
3, 200441, Note_on_c, 1, 43, 0
3, 200451, Note_on_c, 1, 35, 71
3, 200934, Note_on_c, 1, 43, 70
3, 201005, Note_on_c, 1, 35, 0
3, 201216, Note_on_c, 1, 43, 0
3, 201232, Note_on_c, 1, 34, 71
3, 201705, Note_on_c, 1, 43, 83
3, 201795, Note_on_c, 1, 34, 0
3, 201961, Note_on_c, 1, 43, 0
3, 201984, Note_on_c, 1, 34, 70
3, 202348, Note_on_c, 1, 43, 61
3, 202362, Note_on_c, 1, 34, 0
3, 202386, Note_on_c, 1, 43, 0
3, 202460, Note_on_c, 1, 45, 74
3, 202560, Note_on_c, 1, 34, 39
3, 202578, Note_on_c, 1, 45, 0
3, 202579, Note_on_c, 1, 34, 0
3, 202582, Note_on_c, 1, 33, 53
3, 202633, Note_on_c, 1, 33, 0
3, 202768, Note_on_c, 1, 32, 80
3, 203222, Note_on_c, 1, 39, 49
3, 203229, Note_on_c, 1, 32, 0
3, 203260, Note_on_c, 1, 39, 0
3, 203315, Note_on_c, 1, 48, 54
3, 203382, Note_on_c, 1, 48, 0
3, 203420, Note_on_c, 1, 48, 68
3, 203586, Note_on_c, 1, 48, 0
3, 203612, Note_on_c, 1, 39, 59
3, 203647, Note_on_c, 1, 39, 0
3, 203705, Note_on_c, 1, 32, 59
3, 203916, Note_on_c, 1, 32, 0
3, 203993, Note_on_c, 1, 32, 59
3, 204070, Note_on_c, 1, 32, 0
3, 204076, Note_on_c, 1, 33, 61
3, 204262, Note_on_c, 1, 33, 0
3, 204294, Note_on_c, 1, 34, 56
3, 204579, Note_on_c, 1, 34, 0
3, 204588, Note_on_c, 1, 41, 36
3, 204614, Note_on_c, 1, 41, 0
3, 204678, Note_on_c, 1, 41, 56
3, 204950, Note_on_c, 1, 41, 0
3, 204972, Note_on_c, 1, 34, 36
3, 205001, Note_on_c, 1, 34, 0
3, 205056, Note_on_c, 1, 34, 59
3, 205344, Note_on_c, 1, 41, 48
3, 205366, Note_on_c, 1, 41, 0
3, 205427, Note_on_c, 1, 34, 0
3, 205436, Note_on_c, 1, 41, 56
3, 205455, Note_on_c, 1, 41, 0
3, 205536, Note_on_c, 1, 34, 42
3, 205584, Note_on_c, 1, 34, 0
3, 205619, Note_on_c, 1, 42, 55
3, 205763, Note_on_c, 1, 34, 15
3, 205785, Note_on_c, 1, 34, 0
3, 205811, Note_on_c, 1, 42, 0
3, 205824, Note_on_c, 1, 43, 61
3, 206108, Note_on_c, 1, 34, 43
3, 206162, Note_on_c, 1, 34, 0
3, 206179, Note_on_c, 1, 43, 0
3, 206204, Note_on_c, 1, 37, 63
3, 206460, Note_on_c, 1, 37, 0
3, 206483, Note_on_c, 1, 36, 68
3, 206883, Note_on_c, 1, 48, 65
3, 206918, Note_on_c, 1, 36, 0
3, 207068, Note_on_c, 1, 40, 31
3, 207090, Note_on_c, 1, 40, 0
3, 207097, Note_on_c, 1, 48, 0
3, 207155, Note_on_c, 1, 41, 73
3, 207696, Note_on_c, 1, 41, 0
3, 207731, Note_on_c, 1, 36, 60
3, 207910, Note_on_c, 1, 32, 73
3, 207942, Note_on_c, 1, 36, 0
3, 208505, Note_on_c, 1, 39, 51
3, 208524, Note_on_c, 1, 32, 0
3, 208540, Note_on_c, 1, 39, 0
3, 208675, Note_on_c, 1, 43, 68
3, 209203, Note_on_c, 1, 38, 70
3, 209251, Note_on_c, 1, 43, 0
3, 209277, Note_on_c, 1, 38, 0
3, 209372, Note_on_c, 1, 35, 52
3, 209430, Note_on_c, 1, 35, 0
3, 209456, Note_on_c, 1, 36, 72
3, 209932, Note_on_c, 1, 35, 47
3, 209993, Note_on_c, 1, 35, 0
3, 210028, Note_on_c, 1, 48, 64
3, 210045, Note_on_c, 1, 36, 0
3, 210082, Note_on_c, 1, 48, 0
3, 210217, Note_on_c, 1, 43, 69
3, 210316, Note_on_c, 1, 43, 0
3, 210409, Note_on_c, 1, 42, 67
3, 210732, Pitch_bend_c, 1, 8192
3, 210739, Pitch_bend_c, 1, 8192
3, 210742, Pitch_bend_c, 1, 8842
3, 210742, Pitch_bend_c, 1, 9362
3, 210748, Pitch_bend_c, 1, 9882
3, 210752, Pitch_bend_c, 1, 10272
3, 210755, Pitch_bend_c, 1, 10792
3, 210761, Pitch_bend_c, 1, 11052
3, 210764, Pitch_bend_c, 1, 11572
3, 210768, Pitch_bend_c, 1, 12092
3, 210768, Pitch_bend_c, 1, 11832
3, 210774, Pitch_bend_c, 1, 12352
3, 210777, Pitch_bend_c, 1, 12612
3, 210780, Pitch_bend_c, 1, 12872
3, 210787, Pitch_bend_c, 1, 13002
3, 210806, Pitch_bend_c, 1, 12872
3, 210812, Pitch_bend_c, 1, 12612
3, 210816, Pitch_bend_c, 1, 12222
3, 210819, Pitch_bend_c, 1, 11962
3, 210822, Pitch_bend_c, 1, 11572
3, 210825, Pitch_bend_c, 1, 11052
3, 210828, Pitch_bend_c, 1, 10532
3, 210832, Pitch_bend_c, 1, 10012
3, 210838, Pitch_bend_c, 1, 9492
3, 210841, Pitch_bend_c, 1, 8972
3, 210844, Pitch_bend_c, 1, 8192
3, 210844, Pitch_bend_c, 1, 8192
3, 210896, Pitch_bend_c, 1, 8192
3, 210899, Pitch_bend_c, 1, 8192
3, 210902, Pitch_bend_c, 1, 8842
3, 210905, Pitch_bend_c, 1, 9362
3, 210908, Pitch_bend_c, 1, 9882
3, 210912, Pitch_bend_c, 1, 10532
3, 210915, Pitch_bend_c, 1, 11052
3, 210918, Pitch_bend_c, 1, 11702
3, 210924, Pitch_bend_c, 1, 12612
3, 210924, Pitch_bend_c, 1, 12222
3, 210931, Pitch_bend_c, 1, 13002
3, 210934, Pitch_bend_c, 1, 13392
3, 210937, Pitch_bend_c, 1, 13782
3, 210940, Pitch_bend_c, 1, 13912
3, 210940, Pitch_bend_c, 1, 14042
3, 210953, Pitch_bend_c, 1, 12872
3, 210956, Pitch_bend_c, 1, 10922
3, 210960, Pitch_bend_c, 1, 8712
3, 210963, Pitch_bend_c, 1, 8192
3, 211676, Note_on_c, 1, 36, 54
3, 211698, Note_on_c, 1, 36, 0
3, 211715, Note_on_c, 1, 42, 0
3, 211769, Note_on_c, 1, 39, 38
3, 211827, Note_on_c, 1, 39, 0
3, 211875, Note_on_c, 1, 40, 57
3, 211917, Note_on_c, 1, 40, 0
3, 211968, Note_on_c, 1, 41, 71
3, 212054, Note_on_c, 1, 41, 0
3, 212150, Note_on_c, 1, 36, 74
3, 212448, Note_on_c, 1, 41, 71
3, 212451, Note_on_c, 1, 36, 0
3, 212499, Note_on_c, 1, 41, 0
3, 212595, Control_c, 1, 1, 4
3, 212598, Control_c, 1, 1, 5
3, 212598, Control_c, 1, 1, 8
3, 212601, Control_c, 1, 1, 11
3, 212601, Control_c, 1, 1, 10
3, 212604, Control_c, 1, 1, 13
3, 212608, Control_c, 1, 1, 14
3, 212608, Control_c, 1, 1, 16
3, 212611, Control_c, 1, 1, 17
3, 212611, Control_c, 1, 1, 19
3, 212611, Control_c, 1, 1, 20
3, 212614, Control_c, 1, 1, 21
3, 212617, Control_c, 1, 1, 22
3, 212620, Control_c, 1, 1, 24
3, 212620, Control_c, 1, 1, 23
3, 212630, Control_c, 1, 1, 26
3, 212636, Control_c, 1, 1, 27
3, 212732, Note_on_c, 1, 46, 83
3, 212758, Control_c, 1, 1, 30
3, 212758, Control_c, 1, 1, 29
3, 212761, Control_c, 1, 1, 31
3, 212764, Control_c, 1, 1, 32
3, 212768, Control_c, 1, 1, 34
3, 212768, Control_c, 1, 1, 33
3, 212771, Control_c, 1, 1, 35
3, 212774, Control_c, 1, 1, 38
3, 212777, Control_c, 1, 1, 39
3, 212780, Control_c, 1, 1, 42
3, 212780, Control_c, 1, 1, 41
3, 212784, Control_c, 1, 1, 47
3, 212784, Control_c, 1, 1, 45
3, 212784, Control_c, 1, 1, 43
3, 212790, Control_c, 1, 1, 48
3, 212790, Control_c, 1, 1, 50
3, 212793, Control_c, 1, 1, 54
3, 212793, Control_c, 1, 1, 52
3, 212796, Control_c, 1, 1, 55
3, 212800, Control_c, 1, 1, 59
3, 212800, Control_c, 1, 1, 57
3, 212803, Control_c, 1, 1, 62
3, 212803, Control_c, 1, 1, 60
3, 212806, Control_c, 1, 1, 63
3, 212809, Control_c, 1, 1, 65
3, 212809, Control_c, 1, 1, 64
3, 212812, Control_c, 1, 1, 68
3, 212812, Control_c, 1, 1, 67
3, 212816, Control_c, 1, 1, 71
3, 212816, Control_c, 1, 1, 69
3, 212819, Control_c, 1, 1, 72
3, 212822, Control_c, 1, 1, 75
3, 212822, Control_c, 1, 1, 74
3, 212825, Control_c, 1, 1, 78
3, 212825, Control_c, 1, 1, 76
3, 212828, Control_c, 1, 1, 80
3, 212828, Control_c, 1, 1, 79
3, 212832, Control_c, 1, 1, 81
3, 212835, Control_c, 1, 1, 84
3, 212835, Control_c, 1, 1, 83
3, 212838, Control_c, 1, 1, 85
3, 212838, Control_c, 1, 1, 87
3, 212841, Control_c, 1, 1, 88
3, 212844, Control_c, 1, 1, 90
3, 212844, Control_c, 1, 1, 89
3, 212848, Control_c, 1, 1, 92
3, 212848, Control_c, 1, 1, 91
3, 212851, Control_c, 1, 1, 94
3, 212851, Control_c, 1, 1, 93
3, 212857, Control_c, 1, 1, 97
3, 212860, Control_c, 1, 1, 98
3, 212867, Control_c, 1, 1, 100
3, 212867, Control_c, 1, 1, 103
3, 212876, Control_c, 1, 1, 105
3, 212880, Control_c, 1, 1, 106
3, 212883, Control_c, 1, 1, 107
3, 212889, Control_c, 1, 1, 109
3, 212892, Control_c, 1, 1, 110
3, 212899, Control_c, 1, 1, 112
3, 212902, Control_c, 1, 1, 113
3, 212912, Control_c, 1, 1, 114
3, 212918, Control_c, 1, 1, 116
3, 212924, Control_c, 1, 1, 117
3, 212934, Control_c, 1, 1, 118
3, 212960, Control_c, 1, 1, 116
3, 212960, Control_c, 1, 1, 117
3, 212963, Control_c, 1, 1, 113
3, 212966, Control_c, 1, 1, 112
3, 212969, Control_c, 1, 1, 110
3, 212972, Control_c, 1, 1, 109
3, 212972, Control_c, 1, 1, 107
3, 212976, Control_c, 1, 1, 106
3, 212976, Control_c, 1, 1, 104
3, 212979, Control_c, 1, 1, 100
3, 212979, Control_c, 1, 1, 102
3, 212982, Control_c, 1, 1, 98
3, 212985, Control_c, 1, 1, 94
3, 212985, Control_c, 1, 1, 96
3, 212988, Control_c, 1, 1, 91
3, 212992, Control_c, 1, 1, 87
3, 212992, Control_c, 1, 1, 90
3, 212995, Control_c, 1, 1, 85
3, 212995, Control_c, 1, 1, 83
3, 212998, Control_c, 1, 1, 80
3, 213001, Control_c, 1, 1, 78
3, 213001, Control_c, 1, 1, 76
3, 213004, Control_c, 1, 1, 71
3, 213004, Control_c, 1, 1, 73
3, 213008, Control_c, 1, 1, 66
3, 213008, Control_c, 1, 1, 63
3, 213008, Control_c, 1, 1, 68
3, 213014, Control_c, 1, 1, 60
3, 213014, Control_c, 1, 1, 57
3, 213017, Control_c, 1, 1, 55
3, 213020, Control_c, 1, 1, 49
3, 213020, Control_c, 1, 1, 52
3, 213024, Control_c, 1, 1, 46
3, 213024, Control_c, 1, 1, 43
3, 213027, Control_c, 1, 1, 40
3, 213027, Control_c, 1, 1, 37
3, 213030, Control_c, 1, 1, 34
3, 213033, Control_c, 1, 1, 27
3, 213033, Control_c, 1, 1, 30
3, 213036, Control_c, 1, 1, 24
3, 213040, Control_c, 1, 1, 20
3, 213040, Control_c, 1, 1, 17
3, 213043, Control_c, 1, 1, 13
3, 213043, Control_c, 1, 1, 9
3, 213043, Control_c, 1, 1, 6
3, 213046, Control_c, 1, 1, 3
3, 213049, Control_c, 1, 1, 1
3, 213305, Note_on_c, 1, 41, 54
3, 213311, Note_on_c, 1, 46, 0
3, 213353, Note_on_c, 1, 41, 0
3, 213510, Note_on_c, 1, 39, 65
3, 214739, Note_on_c, 1, 39, 0
3, 214739, Note_on_c, 1, 34, 49
3, 214787, Note_on_c, 1, 34, 0
3, 214822, Note_on_c, 1, 35, 36
3, 215020, Note_on_c, 1, 35, 0
3, 215043, Note_on_c, 1, 36, 42
3, 215293, Note_on_c, 1, 36, 0
3, 215321, Note_on_c, 1, 43, 50
3, 215359, Note_on_c, 1, 43, 0
3, 215408, Note_on_c, 1, 43, 38
3, 215456, Note_on_c, 1, 43, 0
3, 215606, Note_on_c, 1, 31, 42
3, 215753, Note_on_c, 1, 31, 0
3, 215798, Note_on_c, 1, 36, 48
3, 216096, Note_on_c, 1, 34, 21
3, 216118, Note_on_c, 1, 34, 0
3, 216153, Note_on_c, 1, 36, 0
3, 216188, Note_on_c, 1, 43, 38
3, 216249, Note_on_c, 1, 43, 0
3, 216291, Note_on_c, 1, 48, 72
3, 216349, Note_on_c, 1, 48, 0
3, 216380, Note_on_c, 1, 43, 34
3, 216447, Note_on_c, 1, 43, 0
3, 216489, Note_on_c, 1, 36, 61
3, 216534, Note_on_c, 1, 36, 0
3, 216588, Note_on_c, 1, 35, 47
3, 216899, Note_on_c, 1, 38, 26
3, 216921, Note_on_c, 1, 38, 0
3, 216927, Note_on_c, 1, 35, 0
3, 216966, Note_on_c, 1, 47, 66
3, 217027, Note_on_c, 1, 47, 0
3, 217158, Note_on_c, 1, 43, 46
3, 217209, Note_on_c, 1, 43, 0
3, 217260, Note_on_c, 1, 38, 44
3, 217282, Note_on_c, 1, 38, 0
3, 217360, Note_on_c, 1, 35, 55
3, 217833, Note_on_c, 1, 47, 61
3, 217846, Note_on_c, 1, 35, 0
3, 217884, Note_on_c, 1, 47, 0
3, 217926, Note_on_c, 1, 48, 57
3, 217961, Note_on_c, 1, 48, 0
3, 218022, Note_on_c, 1, 35, 53
3, 218073, Note_on_c, 1, 35, 0
3, 218118, Note_on_c, 1, 46, 74
3, 218585, Note_on_c, 1, 43, 37
3, 218592, Note_on_c, 1, 46, 0
3, 218604, Note_on_c, 1, 43, 0
3, 218678, Note_on_c, 1, 34, 49
3, 218979, Note_on_c, 1, 46, 56
3, 219021, Note_on_c, 1, 46, 0
3, 219046, Note_on_c, 1, 34, 0
3, 219177, Note_on_c, 1, 34, 42
3, 219199, Note_on_c, 1, 34, 0
3, 219254, Note_on_c, 1, 45, 76
3, 219436, Note_on_c, 1, 45, 0
3, 219456, Note_on_c, 1, 33, 48
3, 219581, Note_on_c, 1, 33, 0
3, 219648, Note_on_c, 1, 32, 49
3, 219932, Note_on_c, 1, 39, 40
3, 220038, Note_on_c, 1, 39, 0
3, 220067, Note_on_c, 1, 32, 0
3, 220217, Note_on_c, 1, 48, 83
3, 220220, Control_c, 1, 1, 6
3, 220220, Control_c, 1, 1, 4
3, 220224, Control_c, 1, 1, 9
3, 220227, Control_c, 1, 1, 13
3, 220227, Control_c, 1, 1, 11
3, 220230, Control_c, 1, 1, 17
3, 220230, Control_c, 1, 1, 15
3, 220233, Control_c, 1, 1, 20
3, 220236, Control_c, 1, 1, 24
3, 220236, Control_c, 1, 1, 22
3, 220240, Control_c, 1, 1, 28
3, 220240, Control_c, 1, 1, 26
3, 220243, Control_c, 1, 1, 34
3, 220243, Control_c, 1, 1, 30
3, 220243, Control_c, 1, 1, 32
3, 220246, Control_c, 1, 1, 35
3, 220249, Control_c, 1, 1, 37
3, 220252, Control_c, 1, 1, 39
3, 220256, Control_c, 1, 1, 41
3, 220256, Control_c, 1, 1, 43
3, 220259, Control_c, 1, 1, 46
3, 220259, Control_c, 1, 1, 50
3, 220259, Control_c, 1, 1, 47
3, 220262, Control_c, 1, 1, 52
3, 220265, Control_c, 1, 1, 54
3, 220268, Control_c, 1, 1, 56
3, 220268, Control_c, 1, 1, 59
3, 220272, Control_c, 1, 1, 61
3, 220275, Control_c, 1, 1, 68
3, 220275, Control_c, 1, 1, 63
3, 220275, Control_c, 1, 1, 66
3, 220275, Control_c, 1, 1, 71
3, 220281, Control_c, 1, 1, 73
3, 220281, Control_c, 1, 1, 75
3, 220284, Control_c, 1, 1, 77
3, 220288, Control_c, 1, 1, 80
3, 220288, Control_c, 1, 1, 79
3, 220291, Control_c, 1, 1, 82
3, 220291, Control_c, 1, 1, 84
3, 220294, Control_c, 1, 1, 85
3, 220297, Control_c, 1, 1, 89
3, 220297, Control_c, 1, 1, 87
3, 220300, Control_c, 1, 1, 91
3, 220300, Control_c, 1, 1, 90
3, 220304, Control_c, 1, 1, 94
3, 220304, Control_c, 1, 1, 93
3, 220307, Control_c, 1, 1, 95
3, 220310, Control_c, 1, 1, 97
3, 220310, Control_c, 1, 1, 96
3, 220313, Control_c, 1, 1, 98
3, 220316, Control_c, 1, 1, 99
3, 220316, Control_c, 1, 1, 100
3, 220316, Control_c, 1, 1, 101
3, 220323, Control_c, 1, 1, 104
3, 220326, Control_c, 1, 1, 105
3, 220332, Control_c, 1, 1, 106
3, 220332, Control_c, 1, 1, 107
3, 220339, Control_c, 1, 1, 109
3, 220345, Control_c, 1, 1, 110
3, 220352, Control_c, 1, 1, 111
3, 220358, Control_c, 1, 1, 112
3, 220374, Control_c, 1, 1, 113
3, 220409, Control_c, 1, 1, 112
3, 220416, Control_c, 1, 1, 111
3, 220422, Control_c, 1, 1, 110
3, 220428, Control_c, 1, 1, 109
3, 220435, Control_c, 1, 1, 107
3, 220435, Control_c, 1, 1, 108
3, 220441, Control_c, 1, 1, 106
3, 220448, Control_c, 1, 1, 105
3, 220451, Control_c, 1, 1, 104
3, 220454, Control_c, 1, 1, 102
3, 220460, Control_c, 1, 1, 101
3, 220460, Control_c, 1, 1, 100
3, 220467, Control_c, 1, 1, 98
3, 220473, Control_c, 1, 1, 96
3, 220473, Control_c, 1, 1, 95
3, 220476, Control_c, 1, 1, 92
3, 220483, Control_c, 1, 1, 90
3, 220483, Control_c, 1, 1, 91
3, 220489, Control_c, 1, 1, 87
3, 220492, Control_c, 1, 1, 86
3, 220492, Control_c, 1, 1, 85
3, 220496, Control_c, 1, 1, 84
3, 220496, Control_c, 1, 1, 83
3, 220499, Control_c, 1, 1, 81
3, 220502, Control_c, 1, 1, 78
3, 220502, Control_c, 1, 1, 80
3, 220505, Control_c, 1, 1, 76
3, 220505, Control_c, 1, 1, 75
3, 220508, Control_c, 1, 1, 73
3, 220512, Control_c, 1, 1, 70
3, 220512, Control_c, 1, 1, 71
3, 220515, Control_c, 1, 1, 66
3, 220515, Control_c, 1, 1, 68
3, 220515, Control_c, 1, 1, 64
3, 220518, Control_c, 1, 1, 62
3, 220521, Control_c, 1, 1, 60
3, 220524, Control_c, 1, 1, 57
3, 220524, Control_c, 1, 1, 54
3, 220528, Control_c, 1, 1, 52
3, 220531, Control_c, 1, 1, 47
3, 220531, Control_c, 1, 1, 41
3, 220531, Control_c, 1, 1, 44
3, 220531, Control_c, 1, 1, 49
3, 220537, Control_c, 1, 1, 35
3, 220537, Control_c, 1, 1, 38
3, 220540, Control_c, 1, 1, 32
3, 220544, Control_c, 1, 1, 25
3, 220544, Control_c, 1, 1, 29
3, 220547, Control_c, 1, 1, 21
3, 220547, Control_c, 1, 1, 18
3, 220550, Control_c, 1, 1, 10
3, 220550, Control_c, 1, 1, 14
3, 220553, Control_c, 1, 1, 7
3, 220556, Control_c, 1, 1, 4
3, 220556, Control_c, 1, 1, 1
3, 220579, Note_on_c, 1, 48, 0
3, 220595, Note_on_c, 1, 44, 40
3, 220662, Note_on_c, 1, 44, 0
3, 220905, Note_on_c, 1, 39, 44
3, 220924, Note_on_c, 1, 39, 0
3, 220985, Note_on_c, 1, 34, 28
3, 221094, Note_on_c, 1, 39, 17
3, 221116, Note_on_c, 1, 34, 0
3, 221139, Note_on_c, 1, 39, 0
3, 221299, Note_on_c, 1, 34, 57
3, 221561, Note_on_c, 1, 46, 61
3, 221571, Note_on_c, 1, 34, 0
3, 221852, Note_on_c, 1, 34, 49
3, 221862, Note_on_c, 1, 46, 0
3, 221881, Note_on_c, 1, 34, 0
3, 221948, Note_on_c, 1, 44, 40
3, 222028, Note_on_c, 1, 44, 0
3, 222092, Note_on_c, 1, 46, 39
3, 222134, Note_on_c, 1, 46, 0
3, 222275, Note_on_c, 1, 47, 36
3, 222374, Note_on_c, 1, 47, 0
3, 222441, Note_on_c, 1, 50, 36
3, 222489, Note_on_c, 1, 50, 0
3, 222521, Note_on_c, 1, 35, 35
3, 222582, Note_on_c, 1, 35, 0
3, 222646, Note_on_c, 1, 36, 34
3, 222668, Note_on_c, 1, 36, 0
3, 222720, Note_on_c, 1, 39, 33
3, 223056, Note_on_c, 1, 39, 0
3, 223088, Note_on_c, 1, 34, 31
3, 223389, Note_on_c, 1, 34, 0
3, 223401, Note_on_c, 1, 33, 27
3, 223427, Note_on_c, 1, 33, 0
3, 223481, Note_on_c, 1, 33, 24
3, 223859, Note_on_c, 1, 45, 22
3, 223894, Note_on_c, 1, 33, 0
3, 224169, Note_on_c, 1, 33, 15
3, 224185, Note_on_c, 1, 33, 0
3, 224224, Note_on_c, 1, 45, 0
3, 224262, Note_on_c, 1, 44, 14
3, 224556, Note_on_c, 1, 44, 0
3, 224556, Note_on_c, 1, 39, 11
3, 224601, Note_on_c, 1, 39, 0
3, 224643, Note_on_c, 1, 39, 11
3, 224694, Note_on_c, 1, 39, 0
3, 224755, Note_on_c, 1, 37, 11
3, 224790, Note_on_c, 1, 37, 0
3, 224844, Note_on_c, 1, 37, 11
3, 224998, Note_on_c, 1, 37, 0
3, 225027, Note_on_c, 1, 38, 11
3, 225283, Note_on_c, 1, 38, 0
3, 225318, Note_on_c, 1, 32, 10
3, 225561, Note_on_c, 1, 32, 0
3, 225593, Note_on_c, 1, 31, 8
3, 226092, Note_on_c, 1, 31, 0
3, 226092, End_track
4, 0, Start_track
4, 0, Title_t, "Sequence by Doug McKenzie"
4, 0, End_track
5, 0, Start_track
5, 0, Title_t, "dougmck@pipeline.com.au"
5, 0, End_track
6, 0, Start_track
6, 0, Title_t, ""
6, 0, Program_c, 9, 32
6, 0, Program_c, 9, 32
6, 0, Note_on_c, 9, 35, 44
6, 15, Note_on_c, 9, 59, 68
6, 17, Note_on_c, 9, 35, 0
6, 34, Note_on_c, 9, 59, 0
6, 209, Note_on_c, 9, 59, 76
6, 229, Note_on_c, 9, 59, 0
6, 408, Note_on_c, 9, 59, 74
6, 434, Note_on_c, 9, 59, 0
6, 716, Note_on_c, 9, 44, 42
6, 740, Note_on_c, 9, 44, 0
6, 779, Note_on_c, 9, 59, 62
6, 783, Note_on_c, 9, 44, 35
6, 797, Note_on_c, 9, 59, 0
6, 814, Note_on_c, 9, 44, 0
6, 1073, Note_on_c, 9, 59, 71
6, 1093, Note_on_c, 9, 59, 0
6, 1146, Note_on_c, 9, 59, 67
6, 1185, Note_on_c, 9, 59, 0
6, 1263, Note_on_c, 9, 35, 43
6, 1284, Note_on_c, 9, 35, 0
6, 1336, Note_on_c, 9, 35, 38
6, 1383, Note_on_c, 9, 35, 0
6, 1523, Note_on_c, 9, 59, 69
6, 1525, Note_on_c, 9, 35, 43
6, 1543, Note_on_c, 9, 59, 0
6, 1554, Note_on_c, 9, 35, 0
6, 1816, Note_on_c, 9, 59, 61
6, 1835, Note_on_c, 9, 59, 0
6, 1891, Note_on_c, 9, 59, 66
6, 1919, Note_on_c, 9, 59, 0
6, 2082, Note_on_c, 9, 53, 72
6, 2106, Note_on_c, 9, 53, 0
6, 2583, Note_on_c, 9, 59, 73
6, 2589, Note_on_c, 9, 35, 34
6, 2613, Note_on_c, 9, 59, 0
6, 2615, Note_on_c, 9, 35, 0
6, 2667, Note_on_c, 9, 59, 64
6, 2668, Note_on_c, 9, 46, 47
6, 2700, Note_on_c, 9, 59, 0
6, 2734, Note_on_c, 9, 46, 0
6, 2759, Note_on_c, 9, 59, 76
6, 2793, Note_on_c, 9, 59, 0
6, 2853, Note_on_c, 9, 53, 64
6, 2907, Note_on_c, 9, 53, 0
6, 3035, Note_on_c, 9, 53, 74
6, 3078, Note_on_c, 9, 53, 0
6, 3247, Note_on_c, 9, 59, 47
6, 3277, Note_on_c, 9, 59, 0
6, 3344, Note_on_c, 9, 59, 71
6, 3372, Note_on_c, 9, 59, 0
6, 3435, Note_on_c, 9, 59, 80
6, 3490, Note_on_c, 9, 59, 0
6, 3737, Note_on_c, 9, 59, 60
6, 3786, Note_on_c, 9, 59, 0
6, 3833, Note_on_c, 9, 59, 67
6, 3834, Note_on_c, 9, 44, 47
6, 3865, Note_on_c, 9, 44, 0
6, 3890, Note_on_c, 9, 59, 0
6, 3932, Note_on_c, 9, 44, 34
6, 3956, Note_on_c, 9, 44, 0
6, 4015, Note_on_c, 9, 35, 43
6, 4076, Note_on_c, 9, 35, 0
6, 4236, Note_on_c, 9, 59, 83
6, 4270, Note_on_c, 9, 59, 0
6, 4332, Note_on_c, 9, 44, 42
6, 4379, Note_on_c, 9, 44, 0
6, 4416, Note_on_c, 9, 35, 40
6, 4448, Note_on_c, 9, 35, 0
6, 4552, Note_on_c, 9, 59, 72
6, 4593, Note_on_c, 9, 59, 0
6, 4625, Note_on_c, 9, 59, 79
6, 4660, Note_on_c, 9, 59, 0
6, 4931, Note_on_c, 9, 59, 66
6, 4949, Note_on_c, 9, 59, 0
6, 5011, Note_on_c, 9, 59, 76
6, 5048, Note_on_c, 9, 59, 0
6, 5373, Note_on_c, 9, 59, 89
6, 5408, Note_on_c, 9, 59, 0
6, 5779, Note_on_c, 9, 59, 75
6, 5815, Note_on_c, 9, 59, 0
6, 5850, Note_on_c, 9, 59, 82
6, 5884, Note_on_c, 9, 59, 0
6, 5890, Note_on_c, 9, 46, 72
6, 5930, Note_on_c, 9, 46, 0
6, 6015, Note_on_c, 9, 46, 77
6, 6061, Note_on_c, 9, 46, 0
6, 6118, Note_on_c, 9, 46, 84
6, 6137, Note_on_c, 9, 59, 88
6, 6167, Note_on_c, 9, 46, 0
6, 6173, Note_on_c, 9, 59, 0
6, 6253, Note_on_c, 9, 35, 51
6, 6289, Note_on_c, 9, 35, 0
6, 6407, Note_on_c, 9, 35, 49
6, 6435, Note_on_c, 9, 35, 0
6, 6504, Note_on_c, 9, 35, 61
6, 6518, Note_on_c, 9, 59, 85
6, 6548, Note_on_c, 9, 59, 0
6, 6613, Note_on_c, 9, 35, 0
6, 6827, Note_on_c, 9, 59, 62
6, 6861, Note_on_c, 9, 59, 0
6, 6900, Note_on_c, 9, 59, 80
6, 6938, Note_on_c, 9, 59, 0
6, 7086, Note_on_c, 9, 44, 25
6, 7132, Note_on_c, 9, 44, 0
6, 7192, Note_on_c, 9, 44, 37
6, 7212, Note_on_c, 9, 59, 65
6, 7214, Note_on_c, 9, 44, 0
6, 7237, Note_on_c, 9, 59, 0
6, 7287, Note_on_c, 9, 59, 68
6, 7331, Note_on_c, 9, 59, 0
6, 7401, Note_on_c, 9, 51, 81
6, 7461, Note_on_c, 9, 51, 0
6, 7657, Note_on_c, 9, 59, 74
6, 7689, Note_on_c, 9, 59, 0
6, 8052, Note_on_c, 9, 59, 77
6, 8097, Note_on_c, 9, 59, 0
6, 8356, Note_on_c, 9, 59, 60
6, 8381, Note_on_c, 9, 59, 0
6, 8430, Note_on_c, 9, 59, 66
6, 8465, Note_on_c, 9, 59, 0
6, 8524, Note_on_c, 9, 51, 73
6, 8544, Note_on_c, 9, 44, 33
6, 8562, Note_on_c, 9, 44, 0
6, 8565, Note_on_c, 9, 51, 0
6, 8626, Note_on_c, 9, 35, 31
6, 8653, Note_on_c, 9, 35, 0
6, 8908, Note_on_c, 9, 59, 79
6, 8925, Note_on_c, 9, 44, 36
6, 8940, Note_on_c, 9, 59, 0
6, 8942, Note_on_c, 9, 44, 0
6, 8999, Note_on_c, 9, 51, 62
6, 9000, Note_on_c, 9, 35, 27
6, 9025, Note_on_c, 9, 35, 0
6, 9039, Note_on_c, 9, 51, 0
6, 9173, Note_on_c, 9, 51, 71
6, 9207, Note_on_c, 9, 51, 0
6, 9508, Note_on_c, 9, 59, 50
6, 9530, Note_on_c, 9, 59, 0
6, 9588, Note_on_c, 9, 59, 62
6, 9656, Note_on_c, 9, 59, 0
6, 9906, Note_on_c, 9, 59, 60
6, 9928, Note_on_c, 9, 59, 0
6, 9984, Note_on_c, 9, 59, 60
6, 10010, Note_on_c, 9, 59, 0
6, 10090, Note_on_c, 9, 53, 74
6, 10128, Note_on_c, 9, 53, 0
6, 10360, Note_on_c, 9, 53, 84
6, 10408, Note_on_c, 9, 53, 0
6, 10559, Note_on_c, 9, 35, 25
6, 10611, Note_on_c, 9, 35, 0
6, 10757, Note_on_c, 9, 59, 74
6, 10798, Note_on_c, 9, 59, 0
6, 10848, Note_on_c, 9, 59, 68
6, 10884, Note_on_c, 9, 59, 0
6, 10935, Note_on_c, 9, 53, 56
6, 10955, Note_on_c, 9, 53, 0
6, 11311, Note_on_c, 9, 44, 52
6, 11313, Note_on_c, 9, 35, 18
6, 11321, Note_on_c, 9, 59, 64
6, 11334, Note_on_c, 9, 35, 0
6, 11344, Note_on_c, 9, 59, 0
6, 11344, Note_on_c, 9, 44, 0
6, 11413, Note_on_c, 9, 59, 56
6, 11432, Note_on_c, 9, 59, 0
6, 11522, Note_on_c, 9, 53, 29
6, 11539, Note_on_c, 9, 53, 0
6, 11623, Note_on_c, 9, 59, 80
6, 11635, Note_on_c, 9, 35, 26
6, 11662, Note_on_c, 9, 35, 0
6, 11663, Note_on_c, 9, 59, 0
6, 11818, Note_on_c, 9, 53, 62
6, 11823, Note_on_c, 9, 44, 38
6, 11835, Note_on_c, 9, 53, 0
6, 11841, Note_on_c, 9, 44, 0
6, 11901, Note_on_c, 9, 44, 49
6, 11908, Note_on_c, 9, 59, 67
6, 11933, Note_on_c, 9, 59, 0
6, 11940, Note_on_c, 9, 44, 0
6, 12004, Note_on_c, 9, 51, 84
6, 12010, Note_on_c, 9, 46, 55
6, 12047, Note_on_c, 9, 46, 0
6, 12102, Note_on_c, 9, 35, 39
6, 12183, Note_on_c, 9, 35, 0
6, 12263, Note_on_c, 9, 51, 0
6, 12288, Note_on_c, 9, 35, 57
6, 12294, Note_on_c, 9, 53, 72
6, 12346, Note_on_c, 9, 35, 0
6, 12350, Note_on_c, 9, 53, 0
6, 12674, Note_on_c, 9, 59, 71
6, 12720, Note_on_c, 9, 59, 0
6, 13018, Note_on_c, 9, 59, 31
6, 13040, Note_on_c, 9, 59, 0
6, 13077, Note_on_c, 9, 59, 66
6, 13130, Note_on_c, 9, 59, 0
6, 13559, Note_on_c, 9, 59, 64
6, 13578, Note_on_c, 9, 59, 0
6, 13640, Note_on_c, 9, 59, 64
6, 13657, Note_on_c, 9, 59, 0
6, 13808, Note_on_c, 9, 59, 80
6, 13839, Note_on_c, 9, 59, 0
6, 14126, Note_on_c, 9, 35, 32
6, 14158, Note_on_c, 9, 35, 0
6, 14278, Note_on_c, 9, 59, 58
6, 14296, Note_on_c, 9, 59, 0
6, 14359, Note_on_c, 9, 59, 51
6, 14406, Note_on_c, 9, 59, 0
6, 14554, Note_on_c, 9, 59, 83
6, 14585, Note_on_c, 9, 59, 0
6, 14871, Note_on_c, 9, 59, 66
6, 14891, Note_on_c, 9, 59, 0
6, 14935, Note_on_c, 9, 59, 65
6, 14980, Note_on_c, 9, 59, 0
6, 15048, Note_on_c, 9, 35, 42
6, 15075, Note_on_c, 9, 35, 0
6, 15322, Note_on_c, 9, 59, 82
6, 15325, Note_on_c, 9, 35, 42
6, 15346, Note_on_c, 9, 35, 0
6, 15360, Note_on_c, 9, 59, 0
6, 15726, Note_on_c, 9, 59, 80
6, 15758, Note_on_c, 9, 59, 0
6, 16124, Note_on_c, 9, 59, 81
6, 16163, Note_on_c, 9, 59, 0
6, 16456, Note_on_c, 9, 59, 71
6, 16489, Note_on_c, 9, 59, 0
6, 16530, Note_on_c, 9, 59, 66
6, 16562, Note_on_c, 9, 59, 0
6, 16817, Note_on_c, 9, 44, 56
6, 16821, Note_on_c, 9, 59, 65
6, 16838, Note_on_c, 9, 44, 0
6, 16848, Note_on_c, 9, 59, 0
6, 16891, Note_on_c, 9, 59, 68
6, 16927, Note_on_c, 9, 59, 0
6, 17212, Note_on_c, 9, 59, 63
6, 17212, Note_on_c, 9, 59, 0
6, 17267, Note_on_c, 9, 59, 59
6, 17308, Note_on_c, 9, 59, 0
6, 17453, Note_on_c, 9, 44, 43
6, 17471, Note_on_c, 9, 44, 0
6, 17550, Note_on_c, 9, 44, 54
6, 17579, Note_on_c, 9, 44, 0
6, 17582, Note_on_c, 9, 59, 62
6, 17615, Note_on_c, 9, 59, 0
6, 17645, Note_on_c, 9, 35, 36
6, 17658, Note_on_c, 9, 59, 62
6, 17672, Note_on_c, 9, 35, 0
6, 17687, Note_on_c, 9, 59, 0
6, 17760, Note_on_c, 9, 53, 66
6, 17801, Note_on_c, 9, 53, 0
6, 17838, Note_on_c, 9, 59, 54
6, 17855, Note_on_c, 9, 44, 39
6, 17873, Note_on_c, 9, 44, 0
6, 17925, Note_on_c, 9, 59, 0
6, 17943, Note_on_c, 9, 44, 52
6, 17975, Note_on_c, 9, 44, 0
6, 18035, Note_on_c, 9, 35, 39
6, 18039, Note_on_c, 9, 59, 68
6, 18059, Note_on_c, 9, 35, 0
6, 18088, Note_on_c, 9, 59, 0
6, 18145, Note_on_c, 9, 53, 76
6, 18199, Note_on_c, 9, 53, 0
6, 18233, Note_on_c, 9, 44, 34
6, 18251, Note_on_c, 9, 59, 66
6, 18254, Note_on_c, 9, 44, 0
6, 18290, Note_on_c, 9, 59, 0
6, 18329, Note_on_c, 9, 44, 57
6, 18358, Note_on_c, 9, 44, 0
6, 18415, Note_on_c, 9, 59, 69
6, 18415, Note_on_c, 9, 35, 25
6, 18435, Note_on_c, 9, 35, 0
6, 18461, Note_on_c, 9, 59, 0
6, 18504, Note_on_c, 9, 53, 73
6, 18563, Note_on_c, 9, 53, 0
6, 18595, Note_on_c, 9, 59, 55
6, 18630, Note_on_c, 9, 59, 0
6, 18786, Note_on_c, 9, 59, 76
6, 18824, Note_on_c, 9, 59, 0
6, 19169, Note_on_c, 9, 59, 81
6, 19210, Note_on_c, 9, 59, 0
6, 19574, Note_on_c, 9, 59, 80
6, 19611, Note_on_c, 9, 59, 0
6, 19886, Note_on_c, 9, 35, 42
6, 19896, Note_on_c, 9, 59, 62
6, 19913, Note_on_c, 9, 35, 0
6, 19931, Note_on_c, 9, 59, 0
6, 19968, Note_on_c, 9, 59, 77
6, 19975, Note_on_c, 9, 35, 28
6, 20006, Note_on_c, 9, 35, 0
6, 20010, Note_on_c, 9, 59, 0
6, 20168, Note_on_c, 9, 59, 88
6, 20198, Note_on_c, 9, 59, 0
6, 20366, Note_on_c, 9, 59, 87
6, 20407, Note_on_c, 9, 59, 0
6, 20463, Note_on_c, 9, 44, 56
6, 20467, Note_on_c, 9, 59, 66
6, 20482, Note_on_c, 9, 44, 0
6, 20507, Note_on_c, 9, 59, 0
6, 20547, Note_on_c, 9, 35, 31
6, 20574, Note_on_c, 9, 35, 0
6, 20744, Note_on_c, 9, 44, 49
6, 20751, Note_on_c, 9, 59, 87
6, 20764, Note_on_c, 9, 44, 0
6, 20788, Note_on_c, 9, 59, 0
6, 20843, Note_on_c, 9, 35, 39
6, 20866, Note_on_c, 9, 35, 0
6, 21043, Note_on_c, 9, 44, 55
6, 21062, Note_on_c, 9, 59, 69
6, 21066, Note_on_c, 9, 44, 0
6, 21101, Note_on_c, 9, 59, 0
6, 21139, Note_on_c, 9, 59, 74
6, 21142, Note_on_c, 9, 35, 28
6, 21171, Note_on_c, 9, 35, 0
6, 21182, Note_on_c, 9, 59, 0
6, 21236, Note_on_c, 9, 51, 75
6, 21280, Note_on_c, 9, 51, 0
6, 21534, Note_on_c, 9, 59, 76
6, 21574, Note_on_c, 9, 59, 0
6, 21807, Note_on_c, 9, 59, 64
6, 21836, Note_on_c, 9, 59, 0
6, 21887, Note_on_c, 9, 59, 68
6, 21926, Note_on_c, 9, 59, 0
6, 22087, Note_on_c, 9, 35, 25
6, 22110, Note_on_c, 9, 35, 0
6, 22271, Note_on_c, 9, 35, 48
6, 22273, Note_on_c, 9, 59, 78
6, 22292, Note_on_c, 9, 35, 0
6, 22318, Note_on_c, 9, 59, 0
6, 22362, Note_on_c, 9, 59, 67
6, 22401, Note_on_c, 9, 59, 0
6, 22646, Note_on_c, 9, 37, 49
6, 22650, Note_on_c, 9, 59, 81
6, 22682, Note_on_c, 9, 37, 0
6, 22686, Note_on_c, 9, 59, 0
6, 23140, Note_on_c, 9, 59, 64
6, 23142, Note_on_c, 9, 46, 48
6, 23167, Note_on_c, 9, 46, 0
6, 23175, Note_on_c, 9, 59, 0
6, 23222, Note_on_c, 9, 59, 65
6, 23234, Note_on_c, 9, 35, 36
6, 23259, Note_on_c, 9, 59, 0
6, 23263, Note_on_c, 9, 35, 0
6, 23415, Note_on_c, 9, 59, 79
6, 23417, Note_on_c, 9, 46, 54
6, 23438, Note_on_c, 9, 46, 0
6, 23443, Note_on_c, 9, 59, 0
6, 23591, Note_on_c, 9, 51, 76
6, 23643, Note_on_c, 9, 51, 0
6, 23713, Note_on_c, 9, 46, 51
6, 23733, Note_on_c, 9, 46, 0
6, 23784, Note_on_c, 9, 35, 51
6, 23829, Note_on_c, 9, 35, 0
6, 23897, Note_on_c, 9, 59, 70
6, 23919, Note_on_c, 9, 59, 0
6, 23970, Note_on_c, 9, 46, 55
6, 24004, Note_on_c, 9, 46, 0
6, 24088, Note_on_c, 9, 59, 66
6, 24114, Note_on_c, 9, 59, 0
6, 24165, Note_on_c, 9, 59, 74
6, 24202, Note_on_c, 9, 59, 0
6, 24261, Note_on_c, 9, 46, 56
6, 24298, Note_on_c, 9, 46, 0
6, 24341, Note_on_c, 9, 35, 40
6, 24366, Note_on_c, 9, 35, 0
6, 24463, Note_on_c, 9, 51, 62
6, 24479, Note_on_c, 9, 37, 55
6, 24499, Note_on_c, 9, 51, 0
6, 24507, Note_on_c, 9, 37, 0
6, 24534, Note_on_c, 9, 35, 54
6, 24537, Note_on_c, 9, 51, 61
6, 24555, Note_on_c, 9, 57, 67
6, 24571, Note_on_c, 9, 57, 0
6, 24576, Note_on_c, 9, 35, 0
6, 24592, Note_on_c, 9, 51, 0
6, 24920, Note_on_c, 9, 51, 70
6, 24956, Note_on_c, 9, 51, 0
6, 25222, Note_on_c, 9, 35, 43
6, 25248, Note_on_c, 9, 35, 0
6, 25318, Note_on_c, 9, 51, 71
6, 25320, Note_on_c, 9, 35, 28
6, 25353, Note_on_c, 9, 35, 0
6, 25357, Note_on_c, 9, 51, 0
6, 25432, Note_on_c, 9, 51, 54
6, 25469, Note_on_c, 9, 51, 0
6, 25504, Note_on_c, 9, 51, 64
6, 25574, Note_on_c, 9, 51, 0
6, 25713, Note_on_c, 9, 51, 76
6, 25752, Note_on_c, 9, 51, 0
6, 25826, Note_on_c, 9, 35, 51
6, 25874, Note_on_c, 9, 35, 0
6, 25925, Note_on_c, 9, 35, 22
6, 25951, Note_on_c, 9, 35, 0
6, 26049, Note_on_c, 9, 51, 68
6, 26082, Note_on_c, 9, 51, 0
6, 26107, Note_on_c, 9, 35, 46
6, 26116, Note_on_c, 9, 51, 71
6, 26134, Note_on_c, 9, 35, 0
6, 26166, Note_on_c, 9, 51, 0
6, 26489, Note_on_c, 9, 51, 82
6, 26525, Note_on_c, 9, 51, 0
6, 26810, Note_on_c, 9, 35, 28
6, 26823, Note_on_c, 9, 51, 70
6, 26835, Note_on_c, 9, 35, 0
6, 26856, Note_on_c, 9, 51, 0
6, 26896, Note_on_c, 9, 51, 58
6, 26957, Note_on_c, 9, 51, 0
6, 27067, Note_on_c, 9, 53, 85
6, 27083, Note_on_c, 9, 35, 50
6, 27117, Note_on_c, 9, 53, 0
6, 27132, Note_on_c, 9, 35, 0
6, 27361, Note_on_c, 9, 51, 64
6, 27380, Note_on_c, 9, 51, 0
6, 27449, Note_on_c, 9, 51, 50
6, 27491, Note_on_c, 9, 51, 0
6, 27574, Note_on_c, 9, 35, 45
6, 27594, Note_on_c, 9, 35, 0
6, 27628, Note_on_c, 9, 51, 78
6, 27651, Note_on_c, 9, 35, 49
6, 27673, Note_on_c, 9, 51, 0
6, 27711, Note_on_c, 9, 35, 0
6, 28019, Note_on_c, 9, 51, 77
6, 28057, Note_on_c, 9, 51, 0
6, 28318, Note_on_c, 9, 35, 45
6, 28389, Note_on_c, 9, 51, 77
6, 28426, Note_on_c, 9, 51, 0
6, 28479, Note_on_c, 9, 35, 0
6, 28803, Note_on_c, 9, 51, 73
6, 28844, Note_on_c, 9, 51, 0
6, 28916, Note_on_c, 9, 51, 58
6, 28958, Note_on_c, 9, 51, 0
6, 28995, Note_on_c, 9, 53, 66
6, 29000, Note_on_c, 9, 35, 42
6, 29020, Note_on_c, 9, 35, 0
6, 29053, Note_on_c, 9, 53, 0
6, 29192, Note_on_c, 9, 35, 43
6, 29212, Note_on_c, 9, 35, 0
6, 29307, Note_on_c, 9, 51, 71
6, 29341, Note_on_c, 9, 51, 0
6, 29479, Note_on_c, 9, 51, 67
6, 29518, Note_on_c, 9, 51, 0
6, 29578, Note_on_c, 9, 53, 81
6, 29637, Note_on_c, 9, 53, 0
6, 29669, Note_on_c, 9, 44, 65
6, 29689, Note_on_c, 9, 44, 0
6, 29757, Note_on_c, 9, 35, 36
6, 29793, Note_on_c, 9, 35, 0
6, 29876, Note_on_c, 9, 51, 74
6, 29919, Note_on_c, 9, 51, 0
6, 29962, Note_on_c, 9, 44, 65
6, 29994, Note_on_c, 9, 44, 0
6, 30055, Note_on_c, 9, 35, 38
6, 30073, Note_on_c, 9, 51, 54
6, 30098, Note_on_c, 9, 51, 0
6, 30105, Note_on_c, 9, 35, 0
6, 30156, Note_on_c, 9, 53, 74
6, 30220, Note_on_c, 9, 53, 0
6, 30259, Note_on_c, 9, 44, 60
6, 30293, Note_on_c, 9, 44, 0
6, 30348, Note_on_c, 9, 35, 39
6, 30409, Note_on_c, 9, 35, 0
6, 30439, Note_on_c, 9, 51, 63
6, 30458, Note_on_c, 9, 51, 0
6, 30508, Note_on_c, 9, 51, 46
6, 30523, Note_on_c, 9, 44, 55
6, 30540, Note_on_c, 9, 44, 0
6, 30542, Note_on_c, 9, 51, 0
6, 30631, Note_on_c, 9, 35, 48
6, 30659, Note_on_c, 9, 35, 0
6, 30698, Note_on_c, 9, 51, 78
6, 30737, Note_on_c, 9, 51, 0
6, 30839, Note_on_c, 9, 35, 43
6, 30861, Note_on_c, 9, 35, 0
6, 30911, Note_on_c, 9, 51, 77
6, 30919, Note_on_c, 9, 35, 48
6, 30948, Note_on_c, 9, 51, 0
6, 30975, Note_on_c, 9, 35, 0
6, 31109, Note_on_c, 9, 35, 46
6, 31115, Note_on_c, 9, 51, 74
6, 31139, Note_on_c, 9, 35, 0
6, 31172, Note_on_c, 9, 51, 0
6, 31215, Note_on_c, 9, 51, 56
6, 31251, Note_on_c, 9, 51, 0
6, 31305, Note_on_c, 9, 51, 53
6, 31331, Note_on_c, 9, 51, 0
6, 31494, Note_on_c, 9, 51, 76
6, 31532, Note_on_c, 9, 51, 0
6, 31878, Note_on_c, 9, 51, 76
6, 31915, Note_on_c, 9, 51, 0
6, 32085, Note_on_c, 9, 35, 26
6, 32105, Note_on_c, 9, 35, 0
6, 32201, Note_on_c, 9, 51, 64
6, 32236, Note_on_c, 9, 51, 0
6, 32268, Note_on_c, 9, 51, 71
6, 32276, Note_on_c, 9, 35, 48
6, 32301, Note_on_c, 9, 35, 0
6, 32316, Note_on_c, 9, 51, 0
6, 32661, Note_on_c, 9, 51, 76
6, 32701, Note_on_c, 9, 51, 0
6, 32959, Note_on_c, 9, 51, 64
6, 32993, Note_on_c, 9, 51, 0
6, 33042, Note_on_c, 9, 51, 55
6, 33080, Note_on_c, 9, 51, 0
6, 33154, Note_on_c, 9, 51, 76
6, 33188, Note_on_c, 9, 51, 0
6, 33226, Note_on_c, 9, 51, 65
6, 33263, Note_on_c, 9, 51, 0
6, 33415, Note_on_c, 9, 51, 80
6, 33455, Note_on_c, 9, 51, 0
6, 33529, Note_on_c, 9, 46, 44
6, 33547, Note_on_c, 9, 46, 0
6, 33607, Note_on_c, 9, 35, 32
6, 33632, Note_on_c, 9, 35, 0
6, 33726, Note_on_c, 9, 51, 67
6, 33761, Note_on_c, 9, 51, 0
6, 33791, Note_on_c, 9, 51, 74
6, 33794, Note_on_c, 9, 35, 36
6, 33817, Note_on_c, 9, 35, 0
6, 33834, Note_on_c, 9, 51, 0
6, 34192, Note_on_c, 9, 51, 62
6, 34235, Note_on_c, 9, 51, 0
6, 34295, Note_on_c, 9, 53, 71
6, 34362, Note_on_c, 9, 35, 40
6, 34384, Note_on_c, 9, 35, 0
6, 34411, Note_on_c, 9, 53, 0
6, 34562, Note_on_c, 9, 35, 36
6, 34568, Note_on_c, 9, 51, 78
6, 34584, Note_on_c, 9, 35, 0
6, 34612, Note_on_c, 9, 51, 0
6, 34934, Note_on_c, 9, 51, 60
6, 34970, Note_on_c, 9, 51, 0
6, 35046, Note_on_c, 9, 53, 84
6, 35140, Note_on_c, 9, 35, 30
6, 35164, Note_on_c, 9, 35, 0
6, 35212, Note_on_c, 9, 53, 0
6, 35337, Note_on_c, 9, 35, 39
6, 35338, Note_on_c, 9, 51, 79
6, 35358, Note_on_c, 9, 35, 0
6, 35381, Note_on_c, 9, 51, 0
6, 35725, Note_on_c, 9, 51, 73
6, 35761, Note_on_c, 9, 51, 0
6, 35828, Note_on_c, 9, 46, 60
6, 35830, Note_on_c, 9, 51, 69
6, 35864, Note_on_c, 9, 46, 0
6, 35867, Note_on_c, 9, 51, 0
6, 35914, Note_on_c, 9, 53, 79
6, 35918, Note_on_c, 9, 35, 43
6, 35944, Note_on_c, 9, 35, 0
6, 35972, Note_on_c, 9, 53, 0
6, 36221, Note_on_c, 9, 46, 57
6, 36225, Note_on_c, 9, 51, 71
6, 36239, Note_on_c, 9, 46, 0
6, 36264, Note_on_c, 9, 51, 0
6, 36310, Note_on_c, 9, 35, 48
6, 36338, Note_on_c, 9, 35, 0
6, 36398, Note_on_c, 9, 51, 62
6, 36442, Note_on_c, 9, 51, 0
6, 36494, Note_on_c, 9, 53, 65
6, 36501, Note_on_c, 9, 46, 53
6, 36518, Note_on_c, 9, 46, 0
6, 36531, Note_on_c, 9, 53, 0
6, 36602, Note_on_c, 9, 35, 48
6, 36631, Note_on_c, 9, 35, 0
6, 36675, Note_on_c, 9, 51, 74
6, 36709, Note_on_c, 9, 51, 0
6, 36786, Note_on_c, 9, 46, 52
6, 36805, Note_on_c, 9, 46, 0
6, 36862, Note_on_c, 9, 35, 50
6, 36877, Note_on_c, 9, 51, 71
6, 36913, Note_on_c, 9, 51, 0
6, 36924, Note_on_c, 9, 35, 0
6, 37269, Note_on_c, 9, 51, 70
6, 37306, Note_on_c, 9, 51, 0
6, 37456, Note_on_c, 9, 35, 39
6, 37478, Note_on_c, 9, 35, 0
6, 37629, Note_on_c, 9, 51, 68
6, 37640, Note_on_c, 9, 35, 51
6, 37667, Note_on_c, 9, 35, 0
6, 37667, Note_on_c, 9, 51, 0
6, 37730, Note_on_c, 9, 51, 60
6, 37768, Note_on_c, 9, 51, 0
6, 38018, Note_on_c, 9, 51, 72
6, 38055, Note_on_c, 9, 51, 0
6, 38396, Note_on_c, 9, 57, 43
6, 38401, Note_on_c, 9, 51, 67
6, 38418, Note_on_c, 9, 57, 0
6, 38435, Note_on_c, 9, 51, 0
6, 38781, Note_on_c, 9, 51, 69
6, 38817, Note_on_c, 9, 51, 0
6, 39093, Note_on_c, 9, 35, 39
6, 39096, Note_on_c, 9, 51, 55
6, 39116, Note_on_c, 9, 35, 0
6, 39126, Note_on_c, 9, 51, 0
6, 39172, Note_on_c, 9, 51, 61
6, 39172, Note_on_c, 9, 35, 46
6, 39231, Note_on_c, 9, 35, 0
6, 39231, Note_on_c, 9, 51, 0
6, 39279, Note_on_c, 9, 51, 53
6, 39306, Note_on_c, 9, 51, 0
6, 39375, Note_on_c, 9, 35, 48
6, 39423, Note_on_c, 9, 35, 0
6, 39561, Note_on_c, 9, 51, 65
6, 39587, Note_on_c, 9, 51, 0
6, 39751, Note_on_c, 9, 51, 64
6, 39774, Note_on_c, 9, 51, 0
6, 39855, Note_on_c, 9, 51, 68
6, 39886, Note_on_c, 9, 51, 0
6, 39945, Note_on_c, 9, 51, 49
6, 39966, Note_on_c, 9, 51, 0
6, 40248, Note_on_c, 9, 51, 53
6, 40267, Note_on_c, 9, 51, 0
6, 40322, Note_on_c, 9, 51, 60
6, 40359, Note_on_c, 9, 51, 0
6, 40501, Note_on_c, 9, 35, 58
6, 40558, Note_on_c, 9, 35, 0
6, 40621, Note_on_c, 9, 51, 67
6, 40654, Note_on_c, 9, 51, 0
6, 40698, Note_on_c, 9, 51, 51
6, 40739, Note_on_c, 9, 51, 0
6, 40989, Note_on_c, 9, 35, 49
6, 40993, Note_on_c, 9, 51, 69
6, 41021, Note_on_c, 9, 35, 0
6, 41025, Note_on_c, 9, 51, 0
6, 41072, Note_on_c, 9, 51, 49
6, 41104, Note_on_c, 9, 35, 55
6, 41108, Note_on_c, 9, 51, 0
6, 41135, Note_on_c, 9, 35, 0
6, 41181, Note_on_c, 9, 51, 52
6, 41200, Note_on_c, 9, 51, 0
6, 41262, Note_on_c, 9, 51, 83
6, 41335, Note_on_c, 9, 51, 0
6, 41483, Note_on_c, 9, 51, 35
6, 41500, Note_on_c, 9, 51, 0
6, 41580, Note_on_c, 9, 51, 39
6, 41603, Note_on_c, 9, 51, 0
6, 41652, Note_on_c, 9, 51, 78
6, 41751, Note_on_c, 9, 51, 0
6, 41858, Note_on_c, 9, 51, 28
6, 41875, Note_on_c, 9, 51, 0
6, 41937, Note_on_c, 9, 44, 46
6, 41952, Note_on_c, 9, 51, 69
6, 41955, Note_on_c, 9, 44, 0
6, 41991, Note_on_c, 9, 51, 0
6, 42021, Note_on_c, 9, 35, 27
6, 42055, Note_on_c, 9, 35, 0
6, 42143, Note_on_c, 9, 51, 27
6, 42160, Note_on_c, 9, 51, 0
6, 42214, Note_on_c, 9, 44, 56
6, 42221, Note_on_c, 9, 51, 76
6, 42233, Note_on_c, 9, 44, 0
6, 42302, Note_on_c, 9, 51, 0
6, 42340, Note_on_c, 9, 35, 38
6, 42364, Note_on_c, 9, 35, 0
6, 42426, Note_on_c, 9, 51, 55
6, 42450, Note_on_c, 9, 51, 0
6, 42524, Note_on_c, 9, 51, 78
6, 42526, Note_on_c, 9, 35, 45
6, 42557, Note_on_c, 9, 51, 0
6, 42578, Note_on_c, 9, 35, 0
6, 42599, Note_on_c, 9, 35, 18
6, 42660, Note_on_c, 9, 35, 0
6, 42721, Note_on_c, 9, 51, 52
6, 42744, Note_on_c, 9, 51, 0
6, 42805, Note_on_c, 9, 51, 87
6, 42806, Note_on_c, 9, 35, 50
6, 42875, Note_on_c, 9, 51, 0
6, 42890, Note_on_c, 9, 35, 0
6, 43097, Note_on_c, 9, 51, 77
6, 43133, Note_on_c, 9, 51, 0
6, 43297, Note_on_c, 9, 51, 25
6, 43315, Note_on_c, 9, 51, 0
6, 43371, Note_on_c, 9, 51, 82
6, 43439, Note_on_c, 9, 51, 0
6, 43564, Note_on_c, 9, 51, 74
6, 43603, Note_on_c, 9, 51, 0
6, 43760, Note_on_c, 9, 35, 51
6, 43773, Note_on_c, 9, 51, 61
6, 43791, Note_on_c, 9, 51, 0
6, 43826, Note_on_c, 9, 35, 0
6, 43879, Note_on_c, 9, 51, 59
6, 43896, Note_on_c, 9, 51, 0
6, 43966, Note_on_c, 9, 53, 79
6, 44043, Note_on_c, 9, 53, 0
6, 44061, Note_on_c, 9, 35, 48
6, 44085, Note_on_c, 9, 35, 0
6, 44249, Note_on_c, 9, 51, 69
6, 44284, Note_on_c, 9, 51, 0
6, 44345, Note_on_c, 9, 35, 54
6, 44383, Note_on_c, 9, 35, 0
6, 44441, Note_on_c, 9, 51, 56
6, 44471, Note_on_c, 9, 51, 0
6, 44530, Note_on_c, 9, 53, 82
6, 44596, Note_on_c, 9, 53, 0
6, 44823, Note_on_c, 9, 51, 62
6, 44858, Note_on_c, 9, 51, 0
6, 44917, Note_on_c, 9, 51, 65
6, 44965, Note_on_c, 9, 51, 0
6, 45204, Note_on_c, 9, 35, 39
6, 45226, Note_on_c, 9, 35, 0
6, 45278, Note_on_c, 9, 51, 46
6, 45283, Note_on_c, 9, 35, 50
6, 45295, Note_on_c, 9, 51, 0
6, 45337, Note_on_c, 9, 35, 0
6, 45385, Note_on_c, 9, 51, 67
6, 45413, Note_on_c, 9, 51, 0
6, 45603, Note_on_c, 9, 51, 52
6, 45626, Note_on_c, 9, 51, 0
6, 45694, Note_on_c, 9, 51, 69
6, 45738, Note_on_c, 9, 51, 0
6, 45881, Note_on_c, 9, 51, 73
6, 45923, Note_on_c, 9, 51, 0
6, 46077, Note_on_c, 9, 51, 78
6, 46119, Note_on_c, 9, 51, 0
6, 46372, Note_on_c, 9, 51, 62
6, 46390, Note_on_c, 9, 35, 19
6, 46405, Note_on_c, 9, 51, 0
6, 46407, Note_on_c, 9, 35, 0
6, 46452, Note_on_c, 9, 35, 39
6, 46458, Note_on_c, 9, 51, 62
6, 46505, Note_on_c, 9, 35, 0
6, 46510, Note_on_c, 9, 51, 0
6, 46662, Note_on_c, 9, 35, 49
6, 46703, Note_on_c, 9, 35, 0
6, 46849, Note_on_c, 9, 51, 67
6, 46882, Note_on_c, 9, 51, 0
6, 46952, Note_on_c, 9, 51, 74
6, 46983, Note_on_c, 9, 51, 0
6, 47157, Note_on_c, 9, 51, 47
6, 47174, Note_on_c, 9, 51, 0
6, 47245, Note_on_c, 9, 53, 74
6, 47342, Note_on_c, 9, 53, 0
6, 47417, Note_on_c, 9, 51, 54
6, 47437, Note_on_c, 9, 51, 0
6, 47524, Note_on_c, 9, 51, 59
6, 47550, Note_on_c, 9, 51, 0
6, 47718, Note_on_c, 9, 51, 59
6, 47753, Note_on_c, 9, 51, 0
6, 47803, Note_on_c, 9, 53, 78
6, 47872, Note_on_c, 9, 53, 0
6, 47988, Note_on_c, 9, 51, 60
6, 48024, Note_on_c, 9, 51, 0
6, 48094, Note_on_c, 9, 44, 50
6, 48107, Note_on_c, 9, 51, 51
6, 48111, Note_on_c, 9, 44, 0
6, 48142, Note_on_c, 9, 51, 0
6, 48274, Note_on_c, 9, 44, 55
6, 48300, Note_on_c, 9, 44, 0
6, 48304, Note_on_c, 9, 51, 48
6, 48323, Note_on_c, 9, 51, 0
6, 48389, Note_on_c, 9, 51, 60
6, 48423, Note_on_c, 9, 44, 58
6, 48428, Note_on_c, 9, 51, 0
6, 48449, Note_on_c, 9, 44, 0
6, 48557, Note_on_c, 9, 35, 43
6, 48579, Note_on_c, 9, 35, 0
6, 48585, Note_on_c, 9, 51, 80
6, 48622, Note_on_c, 9, 51, 0
6, 48716, Note_on_c, 9, 35, 54
6, 48752, Note_on_c, 9, 35, 0
6, 48794, Note_on_c, 9, 51, 75
6, 48831, Note_on_c, 9, 51, 0
6, 48845, Note_on_c, 9, 35, 63
6, 48892, Note_on_c, 9, 35, 0
6, 48903, Note_on_c, 9, 51, 65
6, 48933, Note_on_c, 9, 51, 0
6, 48982, Note_on_c, 9, 51, 46
6, 49015, Note_on_c, 9, 51, 0
6, 49166, Note_on_c, 9, 51, 75
6, 49202, Note_on_c, 9, 51, 0
6, 49355, Note_on_c, 9, 51, 74
6, 49387, Note_on_c, 9, 51, 0
6, 49554, Note_on_c, 9, 51, 71
6, 49592, Note_on_c, 9, 51, 0
6, 49849, Note_on_c, 9, 51, 49
6, 49870, Note_on_c, 9, 51, 0
6, 49929, Note_on_c, 9, 51, 62
6, 49967, Note_on_c, 9, 51, 0
6, 50036, Note_on_c, 9, 51, 70
6, 50036, Note_on_c, 9, 35, 34
6, 50059, Note_on_c, 9, 35, 0
6, 50068, Note_on_c, 9, 51, 0
6, 50287, Note_on_c, 9, 35, 46
6, 50310, Note_on_c, 9, 35, 0
6, 50313, Note_on_c, 9, 51, 75
6, 50349, Note_on_c, 9, 51, 0
6, 50661, Note_on_c, 9, 35, 18
6, 50679, Note_on_c, 9, 35, 0
6, 50695, Note_on_c, 9, 51, 76
6, 50730, Note_on_c, 9, 51, 0
6, 50944, Note_on_c, 9, 44, 42
6, 50964, Note_on_c, 9, 44, 0
6, 51026, Note_on_c, 9, 44, 52
6, 51051, Note_on_c, 9, 44, 0
6, 51055, Note_on_c, 9, 51, 77
6, 51089, Note_on_c, 9, 51, 0
6, 51367, Note_on_c, 9, 51, 65
6, 51402, Note_on_c, 9, 51, 0
6, 51436, Note_on_c, 9, 51, 64
6, 51476, Note_on_c, 9, 51, 0
6, 51566, Note_on_c, 9, 53, 79
6, 51603, Note_on_c, 9, 53, 0
6, 51718, Note_on_c, 9, 44, 55
6, 51741, Note_on_c, 9, 44, 0
6, 51804, Note_on_c, 9, 35, 39
6, 51827, Note_on_c, 9, 53, 82
6, 51828, Note_on_c, 9, 35, 0
6, 51861, Note_on_c, 9, 53, 0
6, 51937, Note_on_c, 9, 57, 31
6, 51956, Note_on_c, 9, 57, 0
6, 52000, Note_on_c, 9, 35, 50
6, 52045, Note_on_c, 9, 35, 0
6, 52141, Note_on_c, 9, 51, 56
6, 52158, Note_on_c, 9, 51, 0
6, 52221, Note_on_c, 9, 51, 57
6, 52253, Note_on_c, 9, 51, 0
6, 52322, Note_on_c, 9, 46, 50
6, 52331, Note_on_c, 9, 53, 76
6, 52339, Note_on_c, 9, 46, 0
6, 52381, Note_on_c, 9, 53, 0
6, 52395, Note_on_c, 9, 35, 40
6, 52445, Note_on_c, 9, 35, 0
6, 52604, Note_on_c, 9, 35, 46
6, 52607, Note_on_c, 9, 53, 83
6, 52628, Note_on_c, 9, 35, 0
6, 52643, Note_on_c, 9, 53, 0
6, 52899, Note_on_c, 9, 46, 50
6, 52917, Note_on_c, 9, 46, 0
6, 52922, Note_on_c, 9, 51, 67
6, 52952, Note_on_c, 9, 51, 0
6, 52979, Note_on_c, 9, 35, 43
6, 53003, Note_on_c, 9, 35, 0
6, 53008, Note_on_c, 9, 51, 63
6, 53046, Note_on_c, 9, 51, 0
6, 53113, Note_on_c, 9, 53, 85
6, 53181, Note_on_c, 9, 35, 54
6, 53212, Note_on_c, 9, 35, 0
6, 53249, Note_on_c, 9, 53, 0
6, 53381, Note_on_c, 9, 53, 87
6, 53426, Note_on_c, 9, 53, 0
6, 53488, Note_on_c, 9, 46, 48
6, 53510, Note_on_c, 9, 46, 0
6, 53553, Note_on_c, 9, 35, 49
6, 53578, Note_on_c, 9, 35, 0
6, 53738, Note_on_c, 9, 57, 71
6, 53755, Note_on_c, 9, 57, 0
6, 53760, Note_on_c, 9, 51, 28
6, 53760, Note_on_c, 9, 35, 28
6, 53771, Note_on_c, 9, 59, 54
6, 53772, Note_on_c, 9, 51, 0
6, 53788, Note_on_c, 9, 35, 0
6, 53790, Note_on_c, 9, 59, 0
6, 53790, Note_on_c, 9, 35, 55
6, 53808, Note_on_c, 9, 35, 0
6, 54212, Note_on_c, 9, 51, 54
6, 54232, Note_on_c, 9, 51, 0
6, 54464, Note_on_c, 9, 59, 48
6, 54491, Note_on_c, 9, 59, 0
6, 54549, Note_on_c, 9, 59, 60
6, 54583, Note_on_c, 9, 59, 0
6, 54676, Note_on_c, 9, 51, 47
6, 54704, Note_on_c, 9, 35, 49
6, 54752, Note_on_c, 9, 51, 0
6, 54796, Note_on_c, 9, 35, 0
6, 54920, Note_on_c, 9, 59, 75
6, 54951, Note_on_c, 9, 59, 0
6, 55164, Note_on_c, 9, 51, 49
6, 55208, Note_on_c, 9, 51, 0
6, 55222, Note_on_c, 9, 59, 61
6, 55242, Note_on_c, 9, 59, 0
6, 55290, Note_on_c, 9, 59, 74
6, 55296, Note_on_c, 9, 35, 39
6, 55320, Note_on_c, 9, 35, 0
6, 55336, Note_on_c, 9, 59, 0
6, 55491, Note_on_c, 9, 59, 67
6, 55512, Note_on_c, 9, 59, 0
6, 55596, Note_on_c, 9, 35, 39
6, 55620, Note_on_c, 9, 35, 0
6, 55686, Note_on_c, 9, 59, 74
6, 55707, Note_on_c, 9, 59, 0
6, 56072, Note_on_c, 9, 35, 30
6, 56076, Note_on_c, 9, 51, 53
6, 56096, Note_on_c, 9, 51, 0
6, 56100, Note_on_c, 9, 35, 0
6, 56258, Note_on_c, 9, 59, 61
6, 56278, Note_on_c, 9, 59, 0
6, 56445, Note_on_c, 9, 59, 66
6, 56471, Note_on_c, 9, 59, 0
6, 56543, Note_on_c, 9, 59, 63
6, 56567, Note_on_c, 9, 59, 0
6, 56812, Note_on_c, 9, 59, 71
6, 56828, Note_on_c, 9, 35, 44
6, 56832, Note_on_c, 9, 59, 0
6, 56836, Note_on_c, 9, 51, 55
6, 56856, Note_on_c, 9, 51, 0
6, 56880, Note_on_c, 9, 35, 0
6, 57124, Note_on_c, 9, 35, 48
6, 57152, Note_on_c, 9, 35, 0
6, 57221, Note_on_c, 9, 59, 43
6, 57244, Note_on_c, 9, 59, 0
6, 57248, Note_on_c, 9, 51, 55
6, 57268, Note_on_c, 9, 51, 0
6, 57532, Note_on_c, 9, 35, 43
6, 57552, Note_on_c, 9, 35, 0
6, 57556, Note_on_c, 9, 51, 60
6, 57592, Note_on_c, 9, 51, 0
6, 57594, Note_on_c, 9, 59, 57
6, 57612, Note_on_c, 9, 59, 0
6, 57612, Note_on_c, 9, 35, 43
6, 57636, Note_on_c, 9, 51, 44
6, 57648, Note_on_c, 9, 35, 0
6, 57688, Note_on_c, 9, 51, 0
6, 57893, Note_on_c, 9, 59, 57
6, 57915, Note_on_c, 9, 59, 0
6, 57970, Note_on_c, 9, 59, 51
6, 57992, Note_on_c, 9, 51, 64
6, 58004, Note_on_c, 9, 59, 0
6, 58032, Note_on_c, 9, 51, 0
6, 58180, Note_on_c, 9, 59, 69
6, 58202, Note_on_c, 9, 59, 0
6, 58288, Note_on_c, 9, 35, 31
6, 58312, Note_on_c, 9, 35, 0
6, 58356, Note_on_c, 9, 35, 39
6, 58384, Note_on_c, 9, 59, 66
6, 58388, Note_on_c, 9, 51, 63
6, 58403, Note_on_c, 9, 59, 0
6, 58404, Note_on_c, 9, 35, 0
6, 58432, Note_on_c, 9, 51, 0
6, 58768, Note_on_c, 9, 51, 63
6, 58808, Note_on_c, 9, 51, 0
6, 58936, Note_on_c, 9, 35, 31
6, 58948, Note_on_c, 9, 59, 67
6, 58964, Note_on_c, 9, 35, 0
6, 58968, Note_on_c, 9, 59, 0
6, 59100, Note_on_c, 9, 51, 55
6, 59116, Note_on_c, 9, 35, 39
6, 59120, Note_on_c, 9, 51, 0
6, 59148, Note_on_c, 9, 35, 0
6, 59156, Note_on_c, 9, 51, 57
6, 59200, Note_on_c, 9, 51, 0
6, 59455, Note_on_c, 9, 59, 62
6, 59490, Note_on_c, 9, 59, 0
6, 59516, Note_on_c, 9, 51, 70
6, 59520, Note_on_c, 9, 59, 48
6, 59552, Note_on_c, 9, 51, 0
6, 59596, Note_on_c, 9, 59, 0
6, 59704, Note_on_c, 9, 59, 59
6, 59775, Note_on_c, 9, 59, 0
6, 59844, Note_on_c, 9, 51, 55
6, 59864, Note_on_c, 9, 51, 0
6, 59900, Note_on_c, 9, 51, 49
6, 59912, Note_on_c, 9, 35, 38
6, 59940, Note_on_c, 9, 51, 0
6, 59964, Note_on_c, 9, 35, 0
6, 60216, Note_on_c, 9, 35, 48
6, 60248, Note_on_c, 9, 35, 0
6, 60265, Note_on_c, 9, 59, 41
6, 60288, Note_on_c, 9, 59, 0
6, 60288, Note_on_c, 9, 51, 69
6, 60312, Note_on_c, 9, 35, 43
6, 60328, Note_on_c, 9, 51, 0
6, 60356, Note_on_c, 9, 35, 0
6, 60668, Note_on_c, 9, 51, 59
6, 60708, Note_on_c, 9, 51, 0
6, 60776, Note_on_c, 9, 53, 64
6, 60816, Note_on_c, 9, 53, 0
6, 60868, Note_on_c, 9, 51, 32
6, 60908, Note_on_c, 9, 51, 0
6, 61060, Note_on_c, 9, 51, 62
6, 61104, Note_on_c, 9, 51, 0
6, 61428, Note_on_c, 9, 35, 54
6, 61436, Note_on_c, 9, 51, 63
6, 61480, Note_on_c, 9, 51, 0
6, 61508, Note_on_c, 9, 35, 0
6, 61620, Note_on_c, 9, 35, 57
6, 61712, Note_on_c, 9, 35, 0
6, 61808, Note_on_c, 9, 51, 60
6, 61844, Note_on_c, 9, 51, 0
6, 62092, Note_on_c, 9, 51, 59
6, 62112, Note_on_c, 9, 51, 0
6, 62288, Note_on_c, 9, 59, 65
6, 62308, Note_on_c, 9, 59, 0
6, 62360, Note_on_c, 9, 51, 58
6, 62408, Note_on_c, 9, 51, 0
6, 62496, Note_on_c, 9, 35, 50
6, 62516, Note_on_c, 9, 35, 0
6, 62576, Note_on_c, 9, 35, 50
6, 62576, Note_on_c, 9, 59, 76
6, 62616, Note_on_c, 9, 59, 0
6, 62628, Note_on_c, 9, 35, 0
6, 62688, Note_on_c, 9, 51, 37
6, 62720, Note_on_c, 9, 51, 0
6, 62880, Note_on_c, 9, 59, 79
6, 62888, Note_on_c, 9, 35, 34
6, 62908, Note_on_c, 9, 35, 0
6, 62924, Note_on_c, 9, 59, 0
6, 62960, Note_on_c, 9, 51, 52
6, 62968, Note_on_c, 9, 35, 54
6, 63012, Note_on_c, 9, 35, 0
6, 63012, Note_on_c, 9, 51, 0
6, 63164, Note_on_c, 9, 59, 73
6, 63184, Note_on_c, 9, 59, 0
6, 63268, Note_on_c, 9, 51, 59
6, 63316, Note_on_c, 9, 51, 0
6, 63460, Note_on_c, 9, 35, 37
6, 63468, Note_on_c, 9, 59, 77
6, 63484, Note_on_c, 9, 35, 0
6, 63496, Note_on_c, 9, 59, 0
6, 63544, Note_on_c, 9, 35, 55
6, 63552, Note_on_c, 9, 51, 55
6, 63608, Note_on_c, 9, 51, 0
6, 63648, Note_on_c, 9, 35, 0
6, 63748, Note_on_c, 9, 59, 82
6, 63792, Note_on_c, 9, 59, 0
6, 63864, Note_on_c, 9, 51, 81
6, 63868, Note_on_c, 9, 53, 84
6, 63904, Note_on_c, 9, 53, 0
6, 63920, Note_on_c, 9, 51, 0
6, 64036, Note_on_c, 9, 35, 42
6, 64048, Note_on_c, 9, 59, 79
6, 64056, Note_on_c, 9, 35, 0
6, 64092, Note_on_c, 9, 59, 0
6, 64124, Note_on_c, 9, 35, 54
6, 64140, Note_on_c, 9, 46, 74
6, 64140, Note_on_c, 9, 53, 89
6, 64140, Note_on_c, 9, 51, 71
6, 64176, Note_on_c, 9, 53, 0
6, 64188, Note_on_c, 9, 35, 0
6, 64200, Note_on_c, 9, 51, 0
6, 64208, Note_on_c, 9, 46, 0
6, 64320, Note_on_c, 9, 59, 76
6, 64348, Note_on_c, 9, 59, 0
6, 64428, Note_on_c, 9, 51, 81
6, 64428, Note_on_c, 9, 46, 78
6, 64432, Note_on_c, 9, 53, 89
6, 64440, Note_on_c, 9, 49, 33
6, 64460, Note_on_c, 9, 49, 0
6, 64464, Note_on_c, 9, 53, 0
6, 64464, Note_on_c, 9, 46, 0
6, 64492, Note_on_c, 9, 51, 0
6, 64512, Note_on_c, 9, 35, 57
6, 64560, Note_on_c, 9, 35, 0
6, 64616, Note_on_c, 9, 59, 74
6, 64648, Note_on_c, 9, 59, 0
6, 64708, Note_on_c, 9, 51, 84
6, 64708, Note_on_c, 9, 53, 95
6, 64712, Note_on_c, 9, 46, 80
6, 64724, Note_on_c, 9, 49, 40
6, 64740, Note_on_c, 9, 49, 0
6, 64752, Note_on_c, 9, 53, 0
6, 64784, Note_on_c, 9, 46, 0
6, 64796, Note_on_c, 9, 51, 0
6, 64904, Note_on_c, 9, 59, 77
6, 64944, Note_on_c, 9, 59, 0
6, 65016, Note_on_c, 9, 51, 81
6, 65016, Note_on_c, 9, 46, 81
6, 65016, Note_on_c, 9, 53, 92
6, 65028, Note_on_c, 9, 49, 39
6, 65048, Note_on_c, 9, 49, 0
6, 65056, Note_on_c, 9, 46, 0
6, 65064, Note_on_c, 9, 53, 0
6, 65104, Note_on_c, 9, 51, 0
6, 65212, Note_on_c, 9, 59, 78
6, 65252, Note_on_c, 9, 59, 0
6, 65304, Note_on_c, 9, 51, 76
6, 65308, Note_on_c, 9, 46, 76
6, 65308, Note_on_c, 9, 53, 82
6, 65324, Note_on_c, 9, 49, 31
6, 65344, Note_on_c, 9, 49, 0
6, 65348, Note_on_c, 9, 53, 0
6, 65368, Note_on_c, 9, 46, 0
6, 65368, Note_on_c, 9, 51, 0
6, 65480, Note_on_c, 9, 29, 30
6, 65620, Note_on_c, 9, 53, 74
6, 65624, Note_on_c, 9, 51, 50
6, 65628, Note_on_c, 9, 46, 44
6, 65640, Note_on_c, 9, 53, 0
6, 65648, Note_on_c, 9, 46, 0
6, 65656, Note_on_c, 9, 51, 0
6, 65684, Note_on_c, 9, 59, 74
6, 65736, Note_on_c, 9, 59, 0
6, 65872, Note_on_c, 9, 53, 66
6, 65884, Note_on_c, 9, 51, 27
6, 65892, Note_on_c, 9, 53, 0
6, 65904, Note_on_c, 9, 51, 0
6, 65960, Note_on_c, 9, 29, 0
6, 65992, Note_on_c, 9, 29, 78
6, 66032, Note_on_c, 9, 29, 0
6, 66060, Note_on_c, 9, 53, 75
6, 66064, Note_on_c, 9, 51, 50
6, 66068, Note_on_c, 9, 46, 48
6, 66072, Note_on_c, 9, 35, 45
6, 66088, Note_on_c, 9, 46, 0
6, 66092, Note_on_c, 9, 51, 0
6, 66096, Note_on_c, 9, 53, 0
6, 66200, Note_on_c, 9, 35, 0
6, 66624, Note_on_c, 9, 35, 39
6, 66692, Note_on_c, 9, 35, 0
6, 66816, Note_on_c, 9, 35, 38
6, 66872, Note_on_c, 9, 35, 0
6, 67124, Note_on_c, 9, 51, 48
6, 67144, Note_on_c, 9, 51, 0
6, 67208, Note_on_c, 9, 51, 36
6, 67240, Note_on_c, 9, 51, 0
6, 67488, Note_on_c, 9, 35, 44
6, 67516, Note_on_c, 9, 51, 32
6, 67536, Note_on_c, 9, 51, 0
6, 67536, Note_on_c, 9, 35, 0
6, 67576, Note_on_c, 9, 35, 43
6, 67584, Note_on_c, 9, 51, 36
6, 67616, Note_on_c, 9, 51, 0
6, 67656, Note_on_c, 9, 35, 0
6, 67684, Note_on_c, 9, 35, 46
6, 67744, Note_on_c, 9, 35, 0
6, 67780, Note_on_c, 9, 35, 49
6, 67852, Note_on_c, 9, 35, 0
6, 67960, Note_on_c, 9, 35, 63
6, 68076, Note_on_c, 9, 35, 0
6, 68688, Note_on_c, 9, 53, 48
6, 68708, Note_on_c, 9, 53, 0
6, 68744, Note_on_c, 9, 53, 75
6, 68788, Note_on_c, 9, 53, 0
6, 69028, Note_on_c, 9, 53, 64
6, 69048, Note_on_c, 9, 53, 0
6, 69108, Note_on_c, 9, 35, 48
6, 69120, Note_on_c, 9, 53, 37
6, 69144, Note_on_c, 9, 53, 0
6, 69156, Note_on_c, 9, 35, 0
6, 69200, Note_on_c, 9, 38, 45
6, 69240, Note_on_c, 9, 38, 0
6, 69296, Note_on_c, 9, 38, 55
6, 69344, Note_on_c, 9, 38, 0
6, 69624, Note_on_c, 9, 59, 79
6, 69672, Note_on_c, 9, 59, 0
6, 69804, Note_on_c, 9, 59, 94
6, 69848, Note_on_c, 9, 59, 0
6, 69996, Note_on_c, 9, 59, 94
6, 70036, Note_on_c, 9, 59, 0
6, 70176, Note_on_c, 9, 59, 89
6, 70208, Note_on_c, 9, 59, 0
6, 70268, Note_on_c, 9, 59, 64
6, 70304, Note_on_c, 9, 59, 0
6, 70364, Note_on_c, 9, 51, 74
6, 70420, Note_on_c, 9, 51, 0
6, 70464, Note_on_c, 9, 53, 64
6, 70500, Note_on_c, 9, 53, 0
6, 70572, Note_on_c, 9, 46, 69
6, 70576, Note_on_c, 9, 35, 45
6, 70576, Note_on_c, 9, 51, 70
6, 70596, Note_on_c, 9, 35, 0
6, 70628, Note_on_c, 9, 51, 0
6, 70636, Note_on_c, 9, 46, 0
6, 70644, Note_on_c, 9, 35, 38
6, 70660, Note_on_c, 9, 53, 74
6, 70684, Note_on_c, 9, 53, 0
6, 70692, Note_on_c, 9, 35, 0
6, 71212, Note_on_c, 9, 44, 71
6, 71256, Note_on_c, 9, 44, 0
6, 71688, Note_on_c, 9, 35, 52
6, 71720, Note_on_c, 9, 35, 0
6, 71788, Note_on_c, 9, 35, 28
6, 71816, Note_on_c, 9, 35, 0
6, 71884, Note_on_c, 9, 46, 39
6, 71888, Note_on_c, 9, 51, 38
6, 71904, Note_on_c, 9, 51, 0
6, 71904, Note_on_c, 9, 46, 0
6, 71968, Note_on_c, 9, 51, 36
6, 71988, Note_on_c, 9, 51, 0
6, 72068, Note_on_c, 9, 35, 39
6, 72092, Note_on_c, 9, 35, 0
6, 72144, Note_on_c, 9, 35, 37
6, 72164, Note_on_c, 9, 49, 56
6, 72168, Note_on_c, 9, 46, 44
6, 72168, Note_on_c, 9, 51, 55
6, 72188, Note_on_c, 9, 35, 0
6, 72192, Note_on_c, 9, 51, 0
6, 72192, Note_on_c, 9, 46, 0
6, 72216, Note_on_c, 9, 49, 0
6, 72340, Note_on_c, 9, 35, 44
6, 72396, Note_on_c, 9, 35, 0
6, 72744, Note_on_c, 9, 53, 77
6, 72800, Note_on_c, 9, 53, 0
6, 72824, Note_on_c, 9, 35, 38
6, 72844, Note_on_c, 9, 35, 0
6, 73768, Note_on_c, 9, 53, 83
6, 73804, Note_on_c, 9, 53, 0
6, 74044, Note_on_c, 9, 35, 44
6, 74068, Note_on_c, 9, 35, 0
6, 74072, Note_on_c, 9, 53, 55
6, 74092, Note_on_c, 9, 53, 0
6, 74136, Note_on_c, 9, 44, 44
6, 74144, Note_on_c, 9, 53, 60
6, 74164, Note_on_c, 9, 44, 0
6, 74184, Note_on_c, 9, 53, 0
6, 74232, Note_on_c, 9, 44, 57
6, 74268, Note_on_c, 9, 44, 0
6, 74332, Note_on_c, 9, 35, 30
6, 74384, Note_on_c, 9, 35, 0
6, 74480, Note_on_c, 9, 53, 75
6, 74500, Note_on_c, 9, 53, 0
6, 74544, Note_on_c, 9, 53, 65
6, 74580, Note_on_c, 9, 53, 0
6, 74876, Note_on_c, 9, 53, 75
6, 74896, Note_on_c, 9, 53, 0
6, 75184, Note_on_c, 9, 53, 75
6, 75204, Note_on_c, 9, 53, 0
6, 75260, Note_on_c, 9, 35, 50
6, 75264, Note_on_c, 9, 53, 60
6, 75292, Note_on_c, 9, 53, 0
6, 75296, Note_on_c, 9, 35, 0
6, 75440, Note_on_c, 9, 35, 55
6, 75512, Note_on_c, 9, 35, 0
6, 75556, Note_on_c, 9, 53, 74
6, 75576, Note_on_c, 9, 53, 0
6, 75632, Note_on_c, 9, 53, 66
6, 75668, Note_on_c, 9, 53, 0
6, 75836, Note_on_c, 9, 35, 51
6, 75920, Note_on_c, 9, 35, 0
6, 76024, Note_on_c, 9, 53, 74
6, 76044, Note_on_c, 9, 53, 0
6, 76224, Note_on_c, 9, 53, 83
6, 76244, Note_on_c, 9, 53, 0
6, 76332, Note_on_c, 9, 35, 44
6, 76368, Note_on_c, 9, 35, 0
6, 76408, Note_on_c, 9, 35, 42
6, 76420, Note_on_c, 9, 53, 75
6, 76444, Note_on_c, 9, 53, 0
6, 76476, Note_on_c, 9, 35, 0
6, 76516, Note_on_c, 9, 53, 59
6, 76540, Note_on_c, 9, 53, 0
6, 76592, Note_on_c, 9, 44, 77
6, 76656, Note_on_c, 9, 44, 0
6, 76796, Note_on_c, 9, 35, 34
6, 76832, Note_on_c, 9, 35, 0
6, 77092, Note_on_c, 9, 53, 60
6, 77116, Note_on_c, 9, 53, 0
6, 77176, Note_on_c, 9, 53, 60
6, 77184, Note_on_c, 9, 44, 75
6, 77196, Note_on_c, 9, 53, 0
6, 77232, Note_on_c, 9, 44, 0
6, 77447, Note_on_c, 9, 29, 60
6, 77480, Note_on_c, 9, 35, 46
6, 77500, Note_on_c, 9, 35, 0
6, 77500, Note_on_c, 9, 53, 51
6, 77520, Note_on_c, 9, 53, 0
6, 77556, Note_on_c, 9, 35, 48
6, 77564, Note_on_c, 9, 53, 60
6, 77592, Note_on_c, 9, 53, 0
6, 77608, Note_on_c, 9, 35, 0
6, 77832, Note_on_c, 9, 35, 54
6, 77848, Note_on_c, 9, 35, 0
6, 77872, Note_on_c, 9, 53, 57
6, 77892, Note_on_c, 9, 53, 0
6, 77916, Note_on_c, 9, 44, 77
6, 77944, Note_on_c, 9, 53, 46
6, 77960, Note_on_c, 9, 44, 0
6, 77964, Note_on_c, 9, 53, 0
6, 78012, Note_on_c, 9, 44, 74
6, 78048, Note_on_c, 9, 44, 0
6, 78092, Note_on_c, 9, 35, 48
6, 78160, Note_on_c, 9, 35, 0
6, 78204, Note_on_c, 9, 34, 47
6, 78263, Note_on_c, 9, 29, 0
6, 78284, Note_on_c, 9, 53, 53
6, 78304, Note_on_c, 9, 53, 0
6, 78307, Note_on_c, 9, 49, 46
6, 78316, Note_on_c, 9, 35, 79
6, 78368, Note_on_c, 9, 35, 0
6, 78704, Note_on_c, 9, 53, 57
6, 78720, Note_on_c, 9, 44, 73
6, 78724, Note_on_c, 9, 53, 0
6, 78761, Note_on_c, 9, 34, 65
6, 78764, Note_on_c, 9, 44, 0
6, 78813, Note_on_c, 9, 34, 0
6, 78865, Note_on_c, 9, 49, 47
6, 78934, Note_on_c, 9, 35, 65
6, 78986, Note_on_c, 9, 35, 0
6, 79020, Note_on_c, 9, 34, 0
6, 79036, Note_on_c, 9, 53, 37
6, 79060, Note_on_c, 9, 53, 0
6, 79096, Note_on_c, 9, 53, 69
6, 79108, Note_on_c, 9, 35, 49
6, 79123, Note_on_c, 9, 49, 0
6, 79132, Note_on_c, 9, 53, 0
6, 79144, Note_on_c, 9, 35, 0
6, 79432, Note_on_c, 9, 53, 45
6, 79456, Note_on_c, 9, 53, 0
6, 79492, Note_on_c, 9, 53, 70
6, 79496, Note_on_c, 9, 44, 77
6, 79512, Note_on_c, 9, 53, 0
6, 79548, Note_on_c, 9, 44, 0
6, 79681, Note_on_c, 9, 49, 0
6, 79784, Note_on_c, 9, 35, 46
6, 79808, Note_on_c, 9, 35, 0
6, 79808, Note_on_c, 9, 53, 57
6, 79828, Note_on_c, 9, 53, 0
6, 79864, Note_on_c, 9, 35, 45
6, 79864, Note_on_c, 9, 53, 65
6, 79884, Note_on_c, 9, 53, 0
6, 79912, Note_on_c, 9, 35, 0
6, 80152, Note_on_c, 9, 51, 53
6, 80172, Note_on_c, 9, 51, 0
6, 80232, Note_on_c, 9, 51, 55
6, 80236, Note_on_c, 9, 44, 76
6, 80268, Note_on_c, 9, 51, 0
6, 80288, Note_on_c, 9, 44, 0
6, 80628, Note_on_c, 9, 51, 46
6, 80628, Note_on_c, 9, 35, 36
6, 80660, Note_on_c, 9, 51, 0
6, 80668, Note_on_c, 9, 35, 0
6, 80912, Note_on_c, 9, 51, 67
6, 80924, Note_on_c, 9, 53, 50
6, 80932, Note_on_c, 9, 51, 0
6, 80944, Note_on_c, 9, 53, 0
6, 80992, Note_on_c, 9, 53, 45
6, 81008, Note_on_c, 9, 44, 69
6, 81020, Note_on_c, 9, 53, 0
6, 81048, Note_on_c, 9, 44, 0
6, 81300, Note_on_c, 9, 35, 45
6, 81300, Note_on_c, 9, 51, 49
6, 81308, Note_on_c, 9, 53, 54
6, 81320, Note_on_c, 9, 51, 0
6, 81324, Note_on_c, 9, 35, 0
6, 81328, Note_on_c, 9, 53, 0
6, 81380, Note_on_c, 9, 51, 49
6, 81388, Note_on_c, 9, 35, 32
6, 81388, Note_on_c, 9, 53, 37
6, 81408, Note_on_c, 9, 53, 0
6, 81412, Note_on_c, 9, 51, 0
6, 81444, Note_on_c, 9, 35, 0
6, 81700, Note_on_c, 9, 51, 46
6, 81720, Note_on_c, 9, 51, 0
6, 81776, Note_on_c, 9, 51, 70
6, 81780, Note_on_c, 9, 53, 67
6, 81784, Note_on_c, 9, 46, 59
6, 81816, Note_on_c, 9, 53, 0
6, 81824, Note_on_c, 9, 51, 0
6, 81856, Note_on_c, 9, 46, 0
6, 82076, Note_on_c, 9, 51, 47
6, 82096, Note_on_c, 9, 51, 0
6, 82164, Note_on_c, 9, 51, 60
6, 82164, Note_on_c, 9, 35, 28
6, 82164, Note_on_c, 9, 53, 71
6, 82168, Note_on_c, 9, 46, 52
6, 82196, Note_on_c, 9, 35, 0
6, 82196, Note_on_c, 9, 51, 0
6, 82204, Note_on_c, 9, 53, 0
6, 82228, Note_on_c, 9, 46, 0
6, 82488, Note_on_c, 9, 51, 67
6, 82512, Note_on_c, 9, 51, 0
6, 82552, Note_on_c, 9, 44, 64
6, 82560, Note_on_c, 9, 46, 55
6, 82564, Note_on_c, 9, 51, 70
6, 82568, Note_on_c, 9, 53, 66
6, 82588, Note_on_c, 9, 53, 0
6, 82592, Note_on_c, 9, 44, 0
6, 82600, Note_on_c, 9, 51, 0
6, 82616, Note_on_c, 9, 46, 0
6, 82880, Note_on_c, 9, 35, 39
6, 82912, Note_on_c, 9, 35, 0
6, 82956, Note_on_c, 9, 35, 46
6, 82956, Note_on_c, 9, 51, 67
6, 82960, Note_on_c, 9, 46, 51
6, 82960, Note_on_c, 9, 53, 70
6, 82980, Note_on_c, 9, 53, 0
6, 82984, Note_on_c, 9, 51, 0
6, 83004, Note_on_c, 9, 46, 0
6, 83020, Note_on_c, 9, 35, 0
6, 83332, Note_on_c, 9, 44, 74
6, 83388, Note_on_c, 9, 44, 0
6, 83704, Note_on_c, 9, 35, 48
6, 83748, Note_on_c, 9, 35, 0
6, 84044, Note_on_c, 9, 53, 65
6, 84064, Note_on_c, 9, 53, 0
6, 84112, Note_on_c, 9, 44, 79
6, 84112, Note_on_c, 9, 53, 66
6, 84152, Note_on_c, 9, 53, 0
6, 84168, Note_on_c, 9, 44, 0
6, 84396, Note_on_c, 9, 53, 47
6, 84400, Note_on_c, 9, 35, 54
6, 84416, Note_on_c, 9, 53, 0
6, 84440, Note_on_c, 9, 35, 0
6, 84460, Note_on_c, 9, 53, 68
6, 84476, Note_on_c, 9, 35, 54
6, 84516, Note_on_c, 9, 53, 0
6, 84536, Note_on_c, 9, 35, 0
6, 84856, Note_on_c, 9, 44, 80
6, 84912, Note_on_c, 9, 44, 0
6, 84980, Note_on_c, 9, 53, 68
6, 85000, Note_on_c, 9, 53, 0
6, 85048, Note_on_c, 9, 53, 54
6, 85096, Note_on_c, 9, 53, 0
6, 85156, Note_on_c, 9, 35, 61
6, 85216, Note_on_c, 9, 35, 0
6, 85244, Note_on_c, 9, 53, 76
6, 85264, Note_on_c, 9, 53, 0
6, 85544, Note_on_c, 9, 53, 58
6, 85564, Note_on_c, 9, 53, 0
6, 85624, Note_on_c, 9, 53, 60
6, 85648, Note_on_c, 9, 44, 85
6, 85672, Note_on_c, 9, 53, 0
6, 85700, Note_on_c, 9, 44, 0
6, 85732, Note_on_c, 9, 44, 68
6, 85772, Note_on_c, 9, 44, 0
6, 85828, Note_on_c, 9, 35, 42
6, 85832, Note_on_c, 9, 53, 83
6, 85832, Note_on_c, 9, 59, 76
6, 85868, Note_on_c, 9, 53, 0
6, 85880, Note_on_c, 9, 35, 0
6, 85884, Note_on_c, 9, 59, 0
6, 86032, Note_on_c, 9, 35, 48
6, 86080, Note_on_c, 9, 35, 0
6, 86144, Note_on_c, 9, 53, 38
6, 86168, Note_on_c, 9, 53, 0
6, 86208, Note_on_c, 9, 53, 71
6, 86256, Note_on_c, 9, 53, 0
6, 86404, Note_on_c, 9, 44, 84
6, 86408, Note_on_c, 9, 53, 94
6, 86412, Note_on_c, 9, 59, 76
6, 86448, Note_on_c, 9, 53, 0
6, 86464, Note_on_c, 9, 59, 0
6, 86468, Note_on_c, 9, 44, 0
6, 86696, Note_on_c, 9, 53, 64
6, 86700, Note_on_c, 9, 35, 40
6, 86720, Note_on_c, 9, 53, 0
6, 86732, Note_on_c, 9, 35, 0
6, 86776, Note_on_c, 9, 53, 51
6, 86784, Note_on_c, 9, 35, 32
6, 86796, Note_on_c, 9, 53, 0
6, 86832, Note_on_c, 9, 35, 0
6, 86952, Note_on_c, 9, 53, 96
6, 86960, Note_on_c, 9, 46, 70
6, 86960, Note_on_c, 9, 59, 77
6, 87004, Note_on_c, 9, 53, 0
6, 87016, Note_on_c, 9, 59, 0
6, 87052, Note_on_c, 9, 46, 0
6, 87076, Note_on_c, 9, 35, 28
6, 87100, Note_on_c, 9, 35, 0
6, 87144, Note_on_c, 9, 53, 44
6, 87160, Note_on_c, 9, 44, 83
6, 87168, Note_on_c, 9, 53, 0
6, 87212, Note_on_c, 9, 44, 0
6, 87252, Note_on_c, 9, 44, 64
6, 87268, Note_on_c, 9, 59, 77
6, 87272, Note_on_c, 9, 53, 90
6, 87276, Note_on_c, 9, 44, 0
6, 87276, Note_on_c, 9, 46, 70
6, 87348, Note_on_c, 9, 53, 0
6, 87352, Note_on_c, 9, 59, 0
6, 87352, Note_on_c, 9, 35, 34
6, 87372, Note_on_c, 9, 46, 0
6, 87388, Note_on_c, 9, 35, 0
6, 87488, Note_on_c, 9, 53, 48
6, 87508, Note_on_c, 9, 53, 0
6, 87552, Note_on_c, 9, 35, 45
6, 87568, Note_on_c, 9, 46, 72
6, 87572, Note_on_c, 9, 53, 84
6, 87576, Note_on_c, 9, 59, 74
6, 87592, Note_on_c, 9, 35, 0
6, 87640, Note_on_c, 9, 53, 0
6, 87644, Note_on_c, 9, 59, 0
6, 87660, Note_on_c, 9, 46, 0
6, 87772, Note_on_c, 9, 53, 53
6, 87792, Note_on_c, 9, 53, 0
6, 87872, Note_on_c, 9, 53, 82
6, 87872, Note_on_c, 9, 46, 75
6, 87876, Note_on_c, 9, 59, 79
6, 87880, Note_on_c, 9, 52, 68
6, 87900, Note_on_c, 9, 52, 0
6, 87928, Note_on_c, 9, 53, 0
6, 87928, Note_on_c, 9, 44, 75
6, 87948, Note_on_c, 9, 59, 0
6, 87952, Note_on_c, 9, 46, 0
6, 87976, Note_on_c, 9, 44, 0
6, 88088, Note_on_c, 9, 53, 69
6, 88108, Note_on_c, 9, 53, 0
6, 88160, Note_on_c, 9, 46, 78
6, 88168, Note_on_c, 9, 53, 85
6, 88172, Note_on_c, 9, 59, 76
6, 88248, Note_on_c, 9, 59, 0
6, 88252, Note_on_c, 9, 53, 0
6, 88292, Note_on_c, 9, 46, 0
6, 88336, Note_on_c, 9, 35, 38
6, 88368, Note_on_c, 9, 52, 35
6, 88372, Note_on_c, 9, 35, 0
6, 88392, Note_on_c, 9, 52, 0
6, 88440, Note_on_c, 9, 46, 74
6, 88444, Note_on_c, 9, 53, 85
6, 88452, Note_on_c, 9, 59, 69
6, 88500, Note_on_c, 9, 53, 0
6, 88508, Note_on_c, 9, 59, 0
6, 88524, Note_on_c, 9, 46, 0
6, 88628, Note_on_c, 9, 53, 57
6, 88644, Note_on_c, 9, 53, 0
6, 88712, Note_on_c, 9, 46, 73
6, 88716, Note_on_c, 9, 44, 77
6, 88716, Note_on_c, 9, 59, 74
6, 88716, Note_on_c, 9, 53, 84
6, 88768, Note_on_c, 9, 53, 0
6, 88768, Note_on_c, 9, 44, 0
6, 88776, Note_on_c, 9, 59, 0
6, 88788, Note_on_c, 9, 46, 0
6, 89100, Note_on_c, 9, 35, 43
6, 89144, Note_on_c, 9, 35, 0
6, 89208, Note_on_c, 9, 53, 48
6, 89232, Note_on_c, 9, 53, 0
6, 89280, Note_on_c, 9, 53, 78
6, 89280, Note_on_c, 9, 46, 60
6, 89284, Note_on_c, 9, 59, 78
6, 89368, Note_on_c, 9, 59, 0
6, 89368, Note_on_c, 9, 53, 0
6, 89388, Note_on_c, 9, 46, 0
6, 89476, Note_on_c, 9, 44, 72
6, 89484, Note_on_c, 9, 46, 69
6, 89484, Note_on_c, 9, 53, 94
6, 89484, Note_on_c, 9, 59, 84
6, 89528, Note_on_c, 9, 44, 0
6, 89548, Note_on_c, 9, 53, 0
6, 89552, Note_on_c, 9, 59, 0
6, 89572, Note_on_c, 9, 46, 0
6, 89776, Note_on_c, 9, 35, 50
6, 89784, Note_on_c, 9, 53, 78
6, 89788, Note_on_c, 9, 59, 74
6, 89788, Note_on_c, 9, 46, 70
6, 89800, Note_on_c, 9, 35, 0
6, 89848, Note_on_c, 9, 53, 0
6, 89856, Note_on_c, 9, 59, 0
6, 89864, Note_on_c, 9, 35, 44
6, 89868, Note_on_c, 9, 46, 0
6, 89916, Note_on_c, 9, 35, 0
6, 90056, Note_on_c, 9, 46, 73
6, 90060, Note_on_c, 9, 53, 82
6, 90064, Note_on_c, 9, 59, 72
6, 90132, Note_on_c, 9, 59, 0
6, 90132, Note_on_c, 9, 53, 0
6, 90156, Note_on_c, 9, 35, 55
6, 90160, Note_on_c, 9, 46, 0
6, 90204, Note_on_c, 9, 35, 0
6, 90244, Note_on_c, 9, 44, 76
6, 90292, Note_on_c, 9, 44, 0
6, 90356, Note_on_c, 9, 35, 55
6, 90360, Note_on_c, 9, 59, 78
6, 90360, Note_on_c, 9, 53, 92
6, 90364, Note_on_c, 9, 46, 77
6, 90404, Note_on_c, 9, 35, 0
6, 90416, Note_on_c, 9, 53, 0
6, 90428, Note_on_c, 9, 59, 0
6, 90436, Note_on_c, 9, 46, 0
6, 90628, Note_on_c, 9, 46, 73
6, 90628, Note_on_c, 9, 35, 55
6, 90628, Note_on_c, 9, 53, 89
6, 90636, Note_on_c, 9, 59, 74
6, 90672, Note_on_c, 9, 35, 0
6, 90676, Note_on_c, 9, 53, 0
6, 90692, Note_on_c, 9, 59, 0
6, 90696, Note_on_c, 9, 46, 0
6, 90928, Note_on_c, 9, 35, 51
6, 90964, Note_on_c, 9, 35, 0
6, 91016, Note_on_c, 9, 44, 80
6, 91060, Note_on_c, 9, 44, 0
6, 91124, Note_on_c, 9, 35, 63
6, 91180, Note_on_c, 9, 35, 0
6, 91316, Note_on_c, 9, 53, 70
6, 91336, Note_on_c, 9, 53, 0
6, 91412, Note_on_c, 9, 59, 72
6, 91416, Note_on_c, 9, 53, 85
6, 91448, Note_on_c, 9, 53, 0
6, 91460, Note_on_c, 9, 59, 0
6, 91708, Note_on_c, 9, 53, 77
6, 91728, Note_on_c, 9, 53, 0
6, 91800, Note_on_c, 9, 59, 74
6, 91804, Note_on_c, 9, 53, 89
6, 91840, Note_on_c, 9, 53, 0
6, 91860, Note_on_c, 9, 59, 0
6, 92080, Note_on_c, 9, 35, 42
6, 92080, Note_on_c, 9, 53, 80
6, 92100, Note_on_c, 9, 53, 0
6, 92108, Note_on_c, 9, 35, 0
6, 92168, Note_on_c, 9, 35, 45
6, 92176, Note_on_c, 9, 59, 78
6, 92180, Note_on_c, 9, 53, 83
6, 92208, Note_on_c, 9, 35, 0
6, 92212, Note_on_c, 9, 53, 0
6, 92220, Note_on_c, 9, 59, 0
6, 92272, Note_on_c, 9, 35, 55
6, 92332, Note_on_c, 9, 35, 0
6, 92368, Note_on_c, 9, 44, 67
6, 92440, Note_on_c, 9, 44, 0
6, 92484, Note_on_c, 9, 59, 55
6, 92484, Note_on_c, 9, 53, 55
6, 92504, Note_on_c, 9, 53, 0
6, 92504, Note_on_c, 9, 59, 0
6, 92568, Note_on_c, 9, 59, 59
6, 92568, Note_on_c, 9, 53, 73
6, 92596, Note_on_c, 9, 53, 0
6, 92608, Note_on_c, 9, 59, 0
6, 92672, Note_on_c, 9, 35, 54
6, 92708, Note_on_c, 9, 35, 0
6, 92756, Note_on_c, 9, 44, 67
6, 92848, Note_on_c, 9, 44, 0
6, 92860, Note_on_c, 9, 53, 56
6, 92868, Note_on_c, 9, 59, 37
6, 92880, Note_on_c, 9, 53, 0
6, 92892, Note_on_c, 9, 59, 0
6, 92944, Note_on_c, 9, 59, 58
6, 92944, Note_on_c, 9, 53, 74
6, 92976, Note_on_c, 9, 53, 0
6, 92996, Note_on_c, 9, 59, 0
6, 93044, Note_on_c, 9, 35, 54
6, 93080, Note_on_c, 9, 35, 0
6, 93124, Note_on_c, 9, 44, 67
6, 93192, Note_on_c, 9, 44, 0
6, 93308, Note_on_c, 9, 44, 73
6, 93388, Note_on_c, 9, 44, 0
6, 93680, Note_on_c, 9, 35, 50
6, 93684, Note_on_c, 9, 51, 48
6, 93688, Note_on_c, 9, 59, 47
6, 93712, Note_on_c, 9, 59, 0
6, 93728, Note_on_c, 9, 51, 0
6, 93736, Note_on_c, 9, 35, 0
6, 93968, Note_on_c, 9, 59, 73
6, 93984, Note_on_c, 9, 51, 50
6, 93988, Note_on_c, 9, 59, 0
6, 93992, Note_on_c, 9, 35, 48
6, 94008, Note_on_c, 9, 51, 0
6, 94024, Note_on_c, 9, 35, 0
6, 94084, Note_on_c, 9, 35, 57
6, 94120, Note_on_c, 9, 35, 0
6, 94276, Note_on_c, 9, 51, 38
6, 94280, Note_on_c, 9, 59, 59
6, 94296, Note_on_c, 9, 59, 0
6, 94304, Note_on_c, 9, 51, 0
6, 94556, Note_on_c, 9, 51, 48
6, 94580, Note_on_c, 9, 51, 0
6, 94632, Note_on_c, 9, 51, 57
6, 94644, Note_on_c, 9, 59, 62
6, 94672, Note_on_c, 9, 59, 0
6, 94684, Note_on_c, 9, 51, 0
6, 94748, Note_on_c, 9, 35, 40
6, 94768, Note_on_c, 9, 35, 0
6, 94836, Note_on_c, 9, 35, 36
6, 94836, Note_on_c, 9, 59, 69
6, 94836, Note_on_c, 9, 51, 60
6, 94860, Note_on_c, 9, 59, 0
6, 94860, Note_on_c, 9, 35, 0
6, 94876, Note_on_c, 9, 51, 0
6, 94928, Note_on_c, 9, 35, 54
6, 94964, Note_on_c, 9, 35, 0
6, 95024, Note_on_c, 9, 44, 68
6, 95080, Note_on_c, 9, 44, 0
6, 95132, Note_on_c, 9, 35, 50
6, 95156, Note_on_c, 9, 35, 0
6, 95210, Note_on_c, 9, 59, 69
6, 95228, Note_on_c, 9, 35, 43
6, 95244, Note_on_c, 9, 59, 0
6, 95256, Note_on_c, 9, 35, 0
6, 95610, Note_on_c, 9, 59, 74
6, 95657, Note_on_c, 9, 59, 0
6, 95716, Note_on_c, 9, 35, 45
6, 95736, Note_on_c, 9, 35, 0
6, 95800, Note_on_c, 9, 44, 55
6, 95848, Note_on_c, 9, 44, 0
6, 95908, Note_on_c, 9, 44, 51
6, 95948, Note_on_c, 9, 44, 0
6, 95987, Note_on_c, 9, 59, 74
6, 96027, Note_on_c, 9, 59, 0
6, 96100, Note_on_c, 9, 59, 80
6, 96108, Note_on_c, 9, 35, 51
6, 96148, Note_on_c, 9, 35, 0
6, 96148, Note_on_c, 9, 59, 0
6, 96184, Note_on_c, 9, 46, 60
6, 96188, Note_on_c, 9, 44, 60
6, 96188, Note_on_c, 9, 51, 62
6, 96244, Note_on_c, 9, 44, 0
6, 96256, Note_on_c, 9, 51, 0
6, 96260, Note_on_c, 9, 46, 0
6, 96392, Note_on_c, 9, 59, 87
6, 96444, Note_on_c, 9, 59, 0
6, 96480, Note_on_c, 9, 35, 39
6, 96496, Note_on_c, 9, 46, 65
6, 96496, Note_on_c, 9, 51, 69
6, 96500, Note_on_c, 9, 35, 0
6, 96548, Note_on_c, 9, 51, 0
6, 96552, Note_on_c, 9, 46, 0
6, 96556, Note_on_c, 9, 44, 52
6, 96596, Note_on_c, 9, 44, 0
6, 96672, Note_on_c, 9, 35, 51
6, 96676, Note_on_c, 9, 59, 75
6, 96688, Note_on_c, 9, 35, 0
6, 96720, Note_on_c, 9, 59, 0
6, 96760, Note_on_c, 9, 35, 54
6, 96764, Note_on_c, 9, 51, 77
6, 96764, Note_on_c, 9, 46, 69
6, 96804, Note_on_c, 9, 35, 0
6, 96852, Note_on_c, 9, 46, 0
6, 96852, Note_on_c, 9, 51, 0
6, 96960, Note_on_c, 9, 35, 51
6, 96964, Note_on_c, 9, 59, 64
6, 97000, Note_on_c, 9, 59, 0
6, 97012, Note_on_c, 9, 35, 0
6, 97060, Note_on_c, 9, 46, 82
6, 97060, Note_on_c, 9, 51, 85
6, 97140, Note_on_c, 9, 51, 0
6, 97156, Note_on_c, 9, 46, 0
6, 97256, Note_on_c, 9, 59, 72
6, 97256, Note_on_c, 9, 35, 44
6, 97292, Note_on_c, 9, 35, 0
6, 97300, Note_on_c, 9, 59, 0
6, 97336, Note_on_c, 9, 46, 83
6, 97340, Note_on_c, 9, 51, 82
6, 97352, Note_on_c, 9, 44, 52
6, 97396, Note_on_c, 9, 44, 0
6, 97460, Note_on_c, 9, 51, 0
6, 97460, Note_on_c, 9, 46, 0
6, 97468, Note_on_c, 9, 35, 56
6, 97516, Note_on_c, 9, 35, 0
6, 97524, Note_on_c, 9, 59, 71
6, 97568, Note_on_c, 9, 59, 0
6, 97640, Note_on_c, 9, 51, 83
6, 97640, Note_on_c, 9, 46, 79
6, 97720, Note_on_c, 9, 46, 0
6, 97720, Note_on_c, 9, 51, 0
6, 97840, Note_on_c, 9, 59, 72
6, 97888, Note_on_c, 9, 59, 0
6, 97932, Note_on_c, 9, 51, 82
6, 97932, Note_on_c, 9, 46, 77
6, 98000, Note_on_c, 9, 51, 0
6, 98004, Note_on_c, 9, 46, 0
6, 98318, Note_on_c, 9, 59, 76
6, 98360, Note_on_c, 9, 59, 0
6, 98513, Note_on_c, 9, 59, 83
6, 98551, Note_on_c, 9, 59, 0
6, 98632, Note_on_c, 9, 35, 24
6, 98656, Note_on_c, 9, 35, 0
6, 98708, Note_on_c, 9, 35, 28
6, 98744, Note_on_c, 9, 35, 0
6, 98888, Note_on_c, 9, 59, 69
6, 98936, Note_on_c, 9, 59, 0
6, 98988, Note_on_c, 9, 59, 80
6, 99008, Note_on_c, 9, 35, 22
6, 99028, Note_on_c, 9, 35, 0
6, 99037, Note_on_c, 9, 59, 0
6, 99080, Note_on_c, 9, 35, 30
6, 99120, Note_on_c, 9, 35, 0
6, 99364, Note_on_c, 9, 35, 39
6, 99396, Note_on_c, 9, 35, 0
6, 99441, Note_on_c, 9, 59, 87
6, 99452, Note_on_c, 9, 35, 36
6, 99476, Note_on_c, 9, 59, 0
6, 99492, Note_on_c, 9, 35, 0
6, 99584, Note_on_c, 9, 46, 53
6, 99588, Note_on_c, 9, 51, 58
6, 99628, Note_on_c, 9, 51, 0
6, 99632, Note_on_c, 9, 46, 0
6, 99732, Note_on_c, 9, 35, 30
6, 99760, Note_on_c, 9, 35, 0
6, 99816, Note_on_c, 9, 35, 32
6, 99852, Note_on_c, 9, 46, 54
6, 99856, Note_on_c, 9, 35, 0
6, 99856, Note_on_c, 9, 51, 57
6, 99884, Note_on_c, 9, 51, 0
6, 99896, Note_on_c, 9, 46, 0
6, 100208, Note_on_c, 9, 51, 57
6, 100208, Note_on_c, 9, 46, 51
6, 100216, Note_on_c, 9, 35, 38
6, 100252, Note_on_c, 9, 35, 0
6, 100252, Note_on_c, 9, 46, 0
6, 100256, Note_on_c, 9, 51, 0
6, 100524, Note_on_c, 9, 51, 59
6, 100528, Note_on_c, 9, 46, 46
6, 100568, Note_on_c, 9, 46, 0
6, 100572, Note_on_c, 9, 51, 0
6, 100624, Note_on_c, 9, 35, 44
6, 100664, Note_on_c, 9, 35, 0
6, 100916, Note_on_c, 9, 51, 69
6, 100952, Note_on_c, 9, 51, 0
6, 101004, Note_on_c, 9, 51, 48
6, 101016, Note_on_c, 9, 46, 37
6, 101028, Note_on_c, 9, 51, 0
6, 101052, Note_on_c, 9, 46, 0
6, 101356, Note_on_c, 9, 51, 56
6, 101380, Note_on_c, 9, 51, 0
6, 101388, Note_on_c, 9, 35, 43
6, 101416, Note_on_c, 9, 35, 0
6, 101692, Note_on_c, 9, 51, 62
6, 101716, Note_on_c, 9, 51, 0
6, 101764, Note_on_c, 9, 51, 52
6, 101796, Note_on_c, 9, 51, 0
6, 102064, Note_on_c, 9, 51, 56
6, 102072, Note_on_c, 9, 35, 36
6, 102084, Note_on_c, 9, 51, 0
6, 102092, Note_on_c, 9, 35, 0
6, 102128, Note_on_c, 9, 51, 59
6, 102140, Note_on_c, 9, 35, 44
6, 102164, Note_on_c, 9, 51, 0
6, 102200, Note_on_c, 9, 35, 0
6, 102344, Note_on_c, 9, 35, 42
6, 102392, Note_on_c, 9, 35, 0
6, 102444, Note_on_c, 9, 51, 69
6, 102480, Note_on_c, 9, 51, 0
6, 102516, Note_on_c, 9, 51, 62
6, 102540, Note_on_c, 9, 51, 0
6, 102540, Note_on_c, 9, 35, 51
6, 102592, Note_on_c, 9, 35, 0
6, 102656, Note_on_c, 9, 35, 28
6, 102688, Note_on_c, 9, 35, 0
6, 102704, Note_on_c, 9, 51, 70
6, 102728, Note_on_c, 9, 51, 0
6, 102892, Note_on_c, 9, 51, 74
6, 102896, Note_on_c, 9, 35, 43
6, 102928, Note_on_c, 9, 51, 0
6, 102936, Note_on_c, 9, 35, 0
6, 103272, Note_on_c, 9, 51, 74
6, 103312, Note_on_c, 9, 51, 0
6, 103580, Note_on_c, 9, 35, 46
6, 103584, Note_on_c, 9, 51, 29
6, 103604, Note_on_c, 9, 51, 0
6, 103612, Note_on_c, 9, 35, 0
6, 103644, Note_on_c, 9, 51, 60
6, 103664, Note_on_c, 9, 35, 48
6, 103696, Note_on_c, 9, 51, 0
6, 103716, Note_on_c, 9, 35, 0
6, 104032, Note_on_c, 9, 51, 62
6, 104060, Note_on_c, 9, 51, 0
6, 104140, Note_on_c, 9, 35, 32
6, 104164, Note_on_c, 9, 35, 0
6, 104232, Note_on_c, 9, 35, 34
6, 104276, Note_on_c, 9, 35, 0
6, 104336, Note_on_c, 9, 51, 47
6, 104356, Note_on_c, 9, 51, 0
6, 104420, Note_on_c, 9, 51, 68
6, 104432, Note_on_c, 9, 35, 43
6, 104460, Note_on_c, 9, 51, 0
6, 104480, Note_on_c, 9, 35, 0
6, 104528, Note_on_c, 9, 51, 71
6, 104564, Note_on_c, 9, 51, 0
6, 104736, Note_on_c, 9, 35, 50
6, 104772, Note_on_c, 9, 35, 0
6, 104808, Note_on_c, 9, 51, 77
6, 104852, Note_on_c, 9, 51, 0
6, 105124, Note_on_c, 9, 51, 48
6, 105136, Note_on_c, 9, 35, 45
6, 105148, Note_on_c, 9, 51, 0
6, 105156, Note_on_c, 9, 35, 0
6, 105200, Note_on_c, 9, 51, 61
6, 105212, Note_on_c, 9, 35, 49
6, 105252, Note_on_c, 9, 35, 0
6, 105252, Note_on_c, 9, 51, 0
6, 105308, Note_on_c, 9, 51, 64
6, 105348, Note_on_c, 9, 51, 0
6, 105508, Note_on_c, 9, 51, 78
6, 105512, Note_on_c, 9, 35, 43
6, 105532, Note_on_c, 9, 35, 0
6, 105548, Note_on_c, 9, 51, 0
6, 105596, Note_on_c, 9, 35, 44
6, 105636, Note_on_c, 9, 35, 0
6, 105712, Note_on_c, 9, 51, 57
6, 105748, Note_on_c, 9, 51, 0
6, 105792, Note_on_c, 9, 51, 60
6, 105836, Note_on_c, 9, 51, 0
6, 105886, Note_on_c, 9, 59, 61
6, 105908, Note_on_c, 9, 59, 0
6, 105908, Note_on_c, 9, 35, 26
6, 105928, Note_on_c, 9, 35, 0
6, 105973, Note_on_c, 9, 59, 68
6, 106000, Note_on_c, 9, 35, 75
6, 106016, Note_on_c, 9, 59, 0
6, 106030, Note_on_c, 9, 35, 0
6, 106290, Note_on_c, 9, 35, 53
6, 106313, Note_on_c, 9, 35, 0
6, 106376, Note_on_c, 9, 59, 96
6, 106406, Note_on_c, 9, 59, 0
6, 106700, Note_on_c, 9, 59, 78
6, 106727, Note_on_c, 9, 59, 0
6, 106775, Note_on_c, 9, 59, 94
6, 106819, Note_on_c, 9, 59, 0
6, 107079, Note_on_c, 9, 59, 73
6, 107099, Note_on_c, 9, 59, 0
6, 107159, Note_on_c, 9, 59, 85
6, 107191, Note_on_c, 9, 59, 0
6, 107344, Note_on_c, 9, 35, 63
6, 107346, Note_on_c, 9, 57, 123
6, 107347, Note_on_c, 9, 59, 99
6, 107357, Note_on_c, 9, 57, 71
6, 107368, Note_on_c, 9, 35, 0
6, 107376, Note_on_c, 9, 57, 0
6, 107465, Note_on_c, 9, 59, 0
6, 107479, Note_on_c, 9, 57, 0
6, 107523, Note_on_c, 9, 32, 64
6, 107526, Note_on_c, 9, 35, 57
6, 107526, Note_on_c, 9, 59, 85
6, 107532, Note_on_c, 9, 59, 0
6, 107532, Note_on_c, 9, 35, 0
6, 107593, Note_on_c, 9, 32, 0
6, 107712, Note_on_c, 9, 44, 79
6, 107712, Note_on_c, 9, 59, 83
6, 107718, Note_on_c, 9, 59, 0
6, 107718, Note_on_c, 9, 44, 0
6, 107808, Note_on_c, 9, 51, 74
6, 107814, Note_on_c, 9, 51, 0
6, 107814, Note_on_c, 9, 35, 48
6, 107820, Note_on_c, 9, 35, 0
6, 107904, Note_on_c, 9, 59, 67
6, 107910, Note_on_c, 9, 59, 0
6, 108096, Note_on_c, 9, 44, 79
6, 108096, Note_on_c, 9, 59, 88
6, 108099, Note_on_c, 9, 35, 45
6, 108102, Note_on_c, 9, 59, 0
6, 108102, Note_on_c, 9, 44, 0
6, 108105, Note_on_c, 9, 35, 0
6, 108192, Note_on_c, 9, 59, 76
6, 108198, Note_on_c, 9, 59, 0
6, 108291, Note_on_c, 9, 35, 51
6, 108291, Note_on_c, 9, 59, 74
6, 108297, Note_on_c, 9, 59, 0
6, 108297, Note_on_c, 9, 35, 0
6, 108473, Note_on_c, 9, 44, 79
6, 108479, Note_on_c, 9, 44, 0
6, 108480, Note_on_c, 9, 59, 88
6, 108486, Note_on_c, 9, 59, 0
6, 108576, Note_on_c, 9, 59, 79
6, 108579, Note_on_c, 9, 35, 51
6, 108582, Note_on_c, 9, 59, 0
6, 108585, Note_on_c, 9, 35, 0
6, 108678, Note_on_c, 9, 59, 80
6, 108684, Note_on_c, 9, 59, 0
6, 108860, Note_on_c, 9, 44, 79
6, 108864, Note_on_c, 9, 35, 48
6, 108864, Note_on_c, 9, 59, 87
6, 108866, Note_on_c, 9, 44, 0
6, 108870, Note_on_c, 9, 59, 0
6, 108870, Note_on_c, 9, 35, 0
6, 108871, Note_on_c, 9, 40, 26
6, 108903, Note_on_c, 9, 40, 0
6, 108960, Note_on_c, 9, 59, 80
6, 108966, Note_on_c, 9, 59, 0
6, 108974, Note_on_c, 9, 40, 41
6, 109008, Note_on_c, 9, 40, 0
6, 109062, Note_on_c, 9, 59, 83
6, 109068, Note_on_c, 9, 59, 0
6, 109244, Note_on_c, 9, 44, 79
6, 109250, Note_on_c, 9, 44, 0
6, 109254, Note_on_c, 9, 59, 89
6, 109260, Note_on_c, 9, 59, 0
6, 109347, Note_on_c, 9, 35, 49
6, 109347, Note_on_c, 9, 59, 81
6, 109353, Note_on_c, 9, 59, 0
6, 109353, Note_on_c, 9, 35, 0
6, 109443, Note_on_c, 9, 59, 83
6, 109449, Note_on_c, 9, 59, 0
6, 109628, Note_on_c, 9, 44, 79
6, 109632, Note_on_c, 9, 35, 48
6, 109634, Note_on_c, 9, 44, 0
6, 109638, Note_on_c, 9, 35, 0
6, 109638, Note_on_c, 9, 59, 85
6, 109644, Note_on_c, 9, 59, 0
6, 109731, Note_on_c, 9, 59, 82
6, 109737, Note_on_c, 9, 59, 0
6, 109827, Note_on_c, 9, 59, 80
6, 109833, Note_on_c, 9, 59, 0
6, 110009, Note_on_c, 9, 44, 79
6, 110015, Note_on_c, 9, 44, 0
6, 110019, Note_on_c, 9, 59, 88
6, 110025, Note_on_c, 9, 59, 0
6, 110112, Note_on_c, 9, 59, 80
6, 110115, Note_on_c, 9, 35, 51
6, 110118, Note_on_c, 9, 59, 0
6, 110121, Note_on_c, 9, 35, 0
6, 110208, Note_on_c, 9, 59, 80
6, 110214, Note_on_c, 9, 59, 0
6, 110396, Note_on_c, 9, 44, 79
6, 110400, Note_on_c, 9, 35, 49
6, 110402, Note_on_c, 9, 44, 0
6, 110403, Note_on_c, 9, 59, 88
6, 110406, Note_on_c, 9, 35, 0
6, 110409, Note_on_c, 9, 59, 0
6, 110496, Note_on_c, 9, 59, 79
6, 110502, Note_on_c, 9, 59, 0
6, 110592, Note_on_c, 9, 59, 80
6, 110598, Note_on_c, 9, 59, 0
6, 110777, Note_on_c, 9, 44, 79
6, 110783, Note_on_c, 9, 44, 0
6, 110787, Note_on_c, 9, 59, 85
6, 110793, Note_on_c, 9, 59, 0
6, 110880, Note_on_c, 9, 51, 78
6, 110883, Note_on_c, 9, 35, 54
6, 110886, Note_on_c, 9, 51, 0
6, 110889, Note_on_c, 9, 35, 0
6, 110976, Note_on_c, 9, 59, 68
6, 110982, Note_on_c, 9, 59, 0
6, 111161, Note_on_c, 9, 44, 79
6, 111167, Note_on_c, 9, 44, 0
6, 111168, Note_on_c, 9, 35, 49
6, 111171, Note_on_c, 9, 59, 88
6, 111174, Note_on_c, 9, 35, 0
6, 111177, Note_on_c, 9, 59, 0
6, 111264, Note_on_c, 9, 59, 77
6, 111270, Note_on_c, 9, 59, 0
6, 111363, Note_on_c, 9, 59, 75
6, 111369, Note_on_c, 9, 59, 0
6, 111440, Note_on_c, 9, 40, 19
6, 111478, Note_on_c, 9, 40, 0
6, 111548, Note_on_c, 9, 44, 79
6, 111554, Note_on_c, 9, 44, 0
6, 111555, Note_on_c, 9, 59, 88
6, 111561, Note_on_c, 9, 59, 0
6, 111648, Note_on_c, 9, 35, 55
6, 111648, Note_on_c, 9, 59, 79
6, 111654, Note_on_c, 9, 59, 0
6, 111654, Note_on_c, 9, 35, 0
6, 111731, Note_on_c, 9, 40, 36
6, 111747, Note_on_c, 9, 59, 77
6, 111753, Note_on_c, 9, 59, 0
6, 111757, Note_on_c, 9, 40, 0
6, 111932, Note_on_c, 9, 44, 79
6, 111936, Note_on_c, 9, 35, 49
6, 111938, Note_on_c, 9, 44, 0
6, 111939, Note_on_c, 9, 59, 81
6, 111942, Note_on_c, 9, 35, 0
6, 111945, Note_on_c, 9, 59, 0
6, 112035, Note_on_c, 9, 59, 79
6, 112041, Note_on_c, 9, 59, 0
6, 112128, Note_on_c, 9, 59, 80
6, 112134, Note_on_c, 9, 59, 0
6, 112206, Note_on_c, 9, 40, 35
6, 112235, Note_on_c, 9, 40, 0
6, 112313, Note_on_c, 9, 44, 79
6, 112319, Note_on_c, 9, 44, 0
6, 112323, Note_on_c, 9, 59, 84
6, 112329, Note_on_c, 9, 59, 0
6, 112416, Note_on_c, 9, 35, 57
6, 112416, Note_on_c, 9, 59, 77
6, 112422, Note_on_c, 9, 59, 0
6, 112422, Note_on_c, 9, 35, 0
6, 112497, Note_on_c, 9, 40, 34
6, 112512, Note_on_c, 9, 59, 80
6, 112518, Note_on_c, 9, 59, 0
6, 112519, Note_on_c, 9, 40, 0
6, 112704, Note_on_c, 9, 35, 50
6, 112704, Note_on_c, 9, 44, 79
6, 112707, Note_on_c, 9, 59, 83
6, 112710, Note_on_c, 9, 44, 0
6, 112710, Note_on_c, 9, 35, 0
6, 112713, Note_on_c, 9, 59, 0
6, 112800, Note_on_c, 9, 59, 72
6, 112806, Note_on_c, 9, 59, 0
6, 112896, Note_on_c, 9, 59, 77
6, 112902, Note_on_c, 9, 59, 0
6, 113088, Note_on_c, 9, 44, 79
6, 113088, Note_on_c, 9, 59, 83
6, 113094, Note_on_c, 9, 59, 0
6, 113094, Note_on_c, 9, 44, 0
6, 113180, Note_on_c, 9, 59, 82
6, 113186, Note_on_c, 9, 59, 0
6, 113187, Note_on_c, 9, 35, 53
6, 113193, Note_on_c, 9, 35, 0
6, 113273, Note_on_c, 9, 59, 83
6, 113279, Note_on_c, 9, 59, 0
6, 113472, Note_on_c, 9, 35, 49
6, 113472, Note_on_c, 9, 44, 79
6, 113475, Note_on_c, 9, 59, 79
6, 113478, Note_on_c, 9, 44, 0
6, 113478, Note_on_c, 9, 35, 0
6, 113481, Note_on_c, 9, 59, 0
6, 113568, Note_on_c, 9, 59, 77
6, 113574, Note_on_c, 9, 59, 0
6, 113664, Note_on_c, 9, 59, 82
6, 113670, Note_on_c, 9, 59, 0
6, 113852, Note_on_c, 9, 44, 79
6, 113858, Note_on_c, 9, 44, 0
6, 113862, Note_on_c, 9, 59, 85
6, 113868, Note_on_c, 9, 59, 0
6, 113932, Note_on_c, 9, 40, 32
6, 113952, Note_on_c, 9, 51, 75
6, 113955, Note_on_c, 9, 35, 54
6, 113958, Note_on_c, 9, 51, 0
6, 113960, Note_on_c, 9, 40, 0
6, 113961, Note_on_c, 9, 35, 0
6, 114031, Note_on_c, 9, 46, 32
6, 114048, Note_on_c, 9, 53, 65
6, 114054, Note_on_c, 9, 53, 0
6, 114085, Note_on_c, 9, 46, 0
6, 114243, Note_on_c, 9, 35, 51
6, 114243, Note_on_c, 9, 44, 79
6, 114246, Note_on_c, 9, 59, 84
6, 114249, Note_on_c, 9, 44, 0
6, 114249, Note_on_c, 9, 35, 0
6, 114252, Note_on_c, 9, 59, 0
6, 114339, Note_on_c, 9, 59, 69
6, 114345, Note_on_c, 9, 59, 0
6, 114435, Note_on_c, 9, 59, 79
6, 114441, Note_on_c, 9, 59, 0
6, 114531, Note_on_c, 9, 40, 39
6, 114551, Note_on_c, 9, 40, 0
6, 114623, Note_on_c, 9, 46, 56
6, 114627, Note_on_c, 9, 44, 79
6, 114627, Note_on_c, 9, 59, 83
6, 114633, Note_on_c, 9, 59, 0
6, 114633, Note_on_c, 9, 44, 0
6, 114666, Note_on_c, 9, 46, 0
6, 114720, Note_on_c, 9, 35, 54
6, 114723, Note_on_c, 9, 59, 72
6, 114726, Note_on_c, 9, 35, 0
6, 114729, Note_on_c, 9, 59, 0
6, 114819, Note_on_c, 9, 59, 74
6, 114825, Note_on_c, 9, 59, 0
6, 115008, Note_on_c, 9, 35, 52
6, 115008, Note_on_c, 9, 44, 79
6, 115014, Note_on_c, 9, 44, 0
6, 115014, Note_on_c, 9, 35, 0
6, 115014, Note_on_c, 9, 59, 85
6, 115020, Note_on_c, 9, 59, 0
6, 115104, Note_on_c, 9, 51, 76
6, 115110, Note_on_c, 9, 51, 0
6, 115126, Note_on_c, 9, 40, 43
6, 115147, Note_on_c, 9, 40, 0
6, 115199, Note_on_c, 9, 40, 43
6, 115203, Note_on_c, 9, 35, 53
6, 115203, Note_on_c, 9, 59, 72
6, 115209, Note_on_c, 9, 59, 0
6, 115209, Note_on_c, 9, 35, 0
6, 115244, Note_on_c, 9, 40, 0
6, 115395, Note_on_c, 9, 44, 79
6, 115398, Note_on_c, 9, 59, 83
6, 115401, Note_on_c, 9, 44, 0
6, 115404, Note_on_c, 9, 59, 0
6, 115488, Note_on_c, 9, 35, 54
6, 115491, Note_on_c, 9, 59, 79
6, 115494, Note_on_c, 9, 35, 0
6, 115497, Note_on_c, 9, 59, 0
6, 115587, Note_on_c, 9, 59, 77
6, 115593, Note_on_c, 9, 59, 0
6, 115776, Note_on_c, 9, 44, 79
6, 115779, Note_on_c, 9, 35, 48
6, 115782, Note_on_c, 9, 44, 0
6, 115782, Note_on_c, 9, 59, 85
6, 115785, Note_on_c, 9, 35, 0
6, 115788, Note_on_c, 9, 59, 0
6, 115875, Note_on_c, 9, 59, 80
6, 115881, Note_on_c, 9, 59, 0
6, 115971, Note_on_c, 9, 59, 79
6, 115977, Note_on_c, 9, 59, 0
6, 116156, Note_on_c, 9, 44, 79
6, 116162, Note_on_c, 9, 44, 0
6, 116163, Note_on_c, 9, 59, 87
6, 116169, Note_on_c, 9, 59, 0
6, 116256, Note_on_c, 9, 35, 55
6, 116259, Note_on_c, 9, 59, 80
6, 116262, Note_on_c, 9, 35, 0
6, 116265, Note_on_c, 9, 59, 0
6, 116355, Note_on_c, 9, 59, 81
6, 116361, Note_on_c, 9, 59, 0
6, 116544, Note_on_c, 9, 35, 51
6, 116544, Note_on_c, 9, 44, 79
6, 116547, Note_on_c, 9, 59, 88
6, 116550, Note_on_c, 9, 44, 0
6, 116550, Note_on_c, 9, 35, 0
6, 116553, Note_on_c, 9, 59, 0
6, 116640, Note_on_c, 9, 59, 79
6, 116646, Note_on_c, 9, 59, 0
6, 116736, Note_on_c, 9, 59, 80
6, 116742, Note_on_c, 9, 59, 0
6, 116924, Note_on_c, 9, 44, 79
6, 116930, Note_on_c, 9, 44, 0
6, 116931, Note_on_c, 9, 59, 82
6, 116937, Note_on_c, 9, 59, 0
6, 117027, Note_on_c, 9, 35, 61
6, 117027, Note_on_c, 9, 59, 74
6, 117033, Note_on_c, 9, 59, 0
6, 117033, Note_on_c, 9, 35, 0
6, 117120, Note_on_c, 9, 59, 77
6, 117126, Note_on_c, 9, 59, 0
6, 117312, Note_on_c, 9, 44, 79
6, 117315, Note_on_c, 9, 35, 51
6, 117315, Note_on_c, 9, 59, 85
6, 117318, Note_on_c, 9, 44, 0
6, 117321, Note_on_c, 9, 59, 0
6, 117321, Note_on_c, 9, 35, 0
6, 117411, Note_on_c, 9, 59, 76
6, 117417, Note_on_c, 9, 59, 0
6, 117507, Note_on_c, 9, 59, 77
6, 117513, Note_on_c, 9, 59, 0
6, 117695, Note_on_c, 9, 40, 14
6, 117696, Note_on_c, 9, 44, 79
6, 117702, Note_on_c, 9, 44, 0
6, 117702, Note_on_c, 9, 59, 88
6, 117708, Note_on_c, 9, 59, 0
6, 117721, Note_on_c, 9, 40, 0
6, 117792, Note_on_c, 9, 35, 57
6, 117795, Note_on_c, 9, 59, 77
6, 117798, Note_on_c, 9, 35, 0
6, 117801, Note_on_c, 9, 59, 0
6, 117891, Note_on_c, 9, 59, 71
6, 117897, Note_on_c, 9, 59, 0
6, 117982, Note_on_c, 9, 40, 24
6, 118027, Note_on_c, 9, 40, 0
6, 118080, Note_on_c, 9, 35, 49
6, 118083, Note_on_c, 9, 44, 79
6, 118083, Note_on_c, 9, 59, 83
6, 118085, Note_on_c, 9, 40, 26
6, 118086, Note_on_c, 9, 35, 0
6, 118089, Note_on_c, 9, 44, 0
6, 118089, Note_on_c, 9, 59, 0
6, 118117, Note_on_c, 9, 40, 0
6, 118179, Note_on_c, 9, 59, 80
6, 118185, Note_on_c, 9, 59, 0
6, 118269, Note_on_c, 9, 40, 38
6, 118272, Note_on_c, 9, 59, 79
6, 118278, Note_on_c, 9, 59, 0
6, 118297, Note_on_c, 9, 40, 0
6, 118456, Note_on_c, 9, 40, 42
6, 118460, Note_on_c, 9, 44, 79
6, 118464, Note_on_c, 9, 59, 87
6, 118466, Note_on_c, 9, 44, 0
6, 118470, Note_on_c, 9, 59, 0
6, 118495, Note_on_c, 9, 40, 0
6, 118560, Note_on_c, 9, 35, 58
6, 118560, Note_on_c, 9, 59, 80
6, 118566, Note_on_c, 9, 59, 0
6, 118566, Note_on_c, 9, 35, 0
6, 118652, Note_on_c, 9, 59, 83
6, 118658, Note_on_c, 9, 59, 0
6, 118848, Note_on_c, 9, 35, 46
6, 118848, Note_on_c, 9, 44, 79
6, 118851, Note_on_c, 9, 59, 82
6, 118854, Note_on_c, 9, 44, 0
6, 118854, Note_on_c, 9, 35, 0
6, 118857, Note_on_c, 9, 59, 0
6, 118944, Note_on_c, 9, 59, 75
6, 118950, Note_on_c, 9, 59, 0
6, 118951, Note_on_c, 9, 40, 34
6, 118978, Note_on_c, 9, 40, 0
6, 119039, Note_on_c, 9, 40, 20
6, 119040, Note_on_c, 9, 59, 77
6, 119046, Note_on_c, 9, 59, 0
6, 119077, Note_on_c, 9, 40, 0
6, 119232, Note_on_c, 9, 44, 79
6, 119232, Note_on_c, 9, 59, 88
6, 119238, Note_on_c, 9, 59, 0
6, 119238, Note_on_c, 9, 44, 0
6, 119242, Note_on_c, 9, 40, 48
6, 119262, Note_on_c, 9, 40, 0
6, 119328, Note_on_c, 9, 35, 61
6, 119328, Note_on_c, 9, 59, 74
6, 119334, Note_on_c, 9, 59, 0
6, 119334, Note_on_c, 9, 35, 0
6, 119424, Note_on_c, 9, 47, 84
6, 119424, Note_on_c, 9, 59, 76
6, 119430, Note_on_c, 9, 59, 0
6, 119430, Note_on_c, 9, 47, 0
6, 119530, Note_on_c, 9, 40, 55
6, 119568, Note_on_c, 9, 40, 0
6, 119608, Note_on_c, 9, 35, 68
6, 119616, Note_on_c, 9, 35, 53
6, 119616, Note_on_c, 9, 44, 79
6, 119617, Note_on_c, 9, 33, 36
6, 119619, Note_on_c, 9, 59, 83
6, 119622, Note_on_c, 9, 44, 0
6, 119622, Note_on_c, 9, 35, 0
6, 119625, Note_on_c, 9, 59, 0
6, 119642, Note_on_c, 9, 33, 0
6, 119669, Note_on_c, 9, 35, 0
6, 119712, Note_on_c, 9, 47, 109
6, 119712, Note_on_c, 9, 51, 80
6, 119718, Note_on_c, 9, 51, 0
6, 119718, Note_on_c, 9, 47, 0
6, 119808, Note_on_c, 9, 59, 80
6, 119814, Note_on_c, 9, 59, 0
6, 119996, Note_on_c, 9, 44, 79
6, 120002, Note_on_c, 9, 44, 0
6, 120003, Note_on_c, 9, 59, 77
6, 120009, Note_on_c, 9, 59, 0
6, 120096, Note_on_c, 9, 59, 76
6, 120099, Note_on_c, 9, 35, 59
6, 120102, Note_on_c, 9, 59, 0
6, 120105, Note_on_c, 9, 35, 0
6, 120192, Note_on_c, 9, 59, 75
6, 120198, Note_on_c, 9, 59, 0
6, 120278, Note_on_c, 9, 40, 49
6, 120299, Note_on_c, 9, 40, 0
6, 120367, Note_on_c, 9, 35, 47
6, 120384, Note_on_c, 9, 35, 53
6, 120387, Note_on_c, 9, 44, 79
6, 120387, Note_on_c, 9, 59, 85
6, 120390, Note_on_c, 9, 35, 0
6, 120393, Note_on_c, 9, 59, 0
6, 120393, Note_on_c, 9, 44, 0
6, 120417, Note_on_c, 9, 35, 0
6, 120483, Note_on_c, 9, 59, 77
6, 120489, Note_on_c, 9, 59, 0
6, 120579, Note_on_c, 9, 59, 75
6, 120585, Note_on_c, 9, 59, 0
6, 120768, Note_on_c, 9, 44, 79
6, 120771, Note_on_c, 9, 59, 83
6, 120774, Note_on_c, 9, 44, 0
6, 120777, Note_on_c, 9, 59, 0
6, 120867, Note_on_c, 9, 35, 57
6, 120867, Note_on_c, 9, 59, 77
6, 120873, Note_on_c, 9, 59, 0
6, 120873, Note_on_c, 9, 35, 0
6, 120963, Note_on_c, 9, 59, 75
6, 120969, Note_on_c, 9, 59, 0
6, 121155, Note_on_c, 9, 35, 55
6, 121155, Note_on_c, 9, 44, 79
6, 121158, Note_on_c, 9, 59, 85
6, 121161, Note_on_c, 9, 44, 0
6, 121161, Note_on_c, 9, 35, 0
6, 121164, Note_on_c, 9, 59, 0
6, 121251, Note_on_c, 9, 59, 76
6, 121257, Note_on_c, 9, 59, 0
6, 121347, Note_on_c, 9, 59, 77
6, 121353, Note_on_c, 9, 59, 0
6, 121539, Note_on_c, 9, 44, 79
6, 121539, Note_on_c, 9, 59, 85
6, 121545, Note_on_c, 9, 59, 0
6, 121545, Note_on_c, 9, 44, 0
6, 121635, Note_on_c, 9, 35, 57
6, 121635, Note_on_c, 9, 59, 77
6, 121641, Note_on_c, 9, 59, 0
6, 121641, Note_on_c, 9, 35, 0
6, 121731, Note_on_c, 9, 59, 74
6, 121737, Note_on_c, 9, 59, 0
6, 121916, Note_on_c, 9, 44, 79
6, 121922, Note_on_c, 9, 44, 0
6, 121923, Note_on_c, 9, 35, 48
6, 121923, Note_on_c, 9, 59, 85
6, 121929, Note_on_c, 9, 59, 0
6, 121929, Note_on_c, 9, 35, 0
6, 122014, Note_on_c, 9, 40, 39
6, 122019, Note_on_c, 9, 59, 80
6, 122025, Note_on_c, 9, 59, 0
6, 122058, Note_on_c, 9, 40, 0
6, 122115, Note_on_c, 9, 59, 79
6, 122121, Note_on_c, 9, 59, 0
6, 122294, Note_on_c, 9, 40, 40
6, 122300, Note_on_c, 9, 44, 79
6, 122304, Note_on_c, 9, 59, 88
6, 122306, Note_on_c, 9, 44, 0
6, 122310, Note_on_c, 9, 59, 0
6, 122324, Note_on_c, 9, 40, 0
6, 122400, Note_on_c, 9, 59, 79
6, 122403, Note_on_c, 9, 35, 54
6, 122406, Note_on_c, 9, 59, 0
6, 122409, Note_on_c, 9, 35, 0
6, 122496, Note_on_c, 9, 59, 77
6, 122502, Note_on_c, 9, 59, 0
6, 122600, Note_on_c, 9, 40, 29
6, 122626, Note_on_c, 9, 40, 0
6, 122684, Note_on_c, 9, 35, 49
6, 122684, Note_on_c, 9, 44, 79
6, 122686, Note_on_c, 9, 40, 27
6, 122690, Note_on_c, 9, 44, 0
6, 122690, Note_on_c, 9, 35, 0
6, 122691, Note_on_c, 9, 59, 86
6, 122697, Note_on_c, 9, 59, 0
6, 122723, Note_on_c, 9, 40, 0
6, 122787, Note_on_c, 9, 59, 77
6, 122793, Note_on_c, 9, 59, 0
6, 122853, Note_on_c, 9, 40, 39
6, 122874, Note_on_c, 9, 40, 0
6, 122880, Note_on_c, 9, 59, 80
6, 122886, Note_on_c, 9, 59, 0
6, 123068, Note_on_c, 9, 44, 79
6, 123072, Note_on_c, 9, 59, 83
6, 123074, Note_on_c, 9, 44, 0
6, 123078, Note_on_c, 9, 59, 0
6, 123168, Note_on_c, 9, 35, 62
6, 123168, Note_on_c, 9, 59, 79
6, 123174, Note_on_c, 9, 59, 0
6, 123174, Note_on_c, 9, 35, 0
6, 123264, Note_on_c, 9, 59, 77
6, 123270, Note_on_c, 9, 59, 0
6, 123449, Note_on_c, 9, 44, 79
6, 123452, Note_on_c, 9, 35, 54
6, 123455, Note_on_c, 9, 44, 0
6, 123458, Note_on_c, 9, 35, 0
6, 123459, Note_on_c, 9, 59, 86
6, 123465, Note_on_c, 9, 59, 0
6, 123555, Note_on_c, 9, 59, 76
6, 123561, Note_on_c, 9, 59, 0
6, 123651, Note_on_c, 9, 59, 79
6, 123657, Note_on_c, 9, 59, 0
6, 123833, Note_on_c, 9, 44, 79
6, 123839, Note_on_c, 9, 44, 0
6, 123840, Note_on_c, 9, 59, 85
6, 123846, Note_on_c, 9, 59, 0
6, 123936, Note_on_c, 9, 35, 60
6, 123936, Note_on_c, 9, 59, 79
6, 123942, Note_on_c, 9, 59, 0
6, 123942, Note_on_c, 9, 35, 0
6, 124028, Note_on_c, 9, 59, 80
6, 124034, Note_on_c, 9, 59, 0
6, 124217, Note_on_c, 9, 44, 79
6, 124220, Note_on_c, 9, 35, 54
6, 124223, Note_on_c, 9, 44, 0
6, 124224, Note_on_c, 9, 59, 83
6, 124226, Note_on_c, 9, 35, 0
6, 124230, Note_on_c, 9, 59, 0
6, 124320, Note_on_c, 9, 59, 77
6, 124326, Note_on_c, 9, 59, 0
6, 124416, Note_on_c, 9, 59, 74
6, 124422, Note_on_c, 9, 59, 0
6, 124604, Note_on_c, 9, 44, 79
6, 124610, Note_on_c, 9, 44, 0
6, 124611, Note_on_c, 9, 59, 83
6, 124617, Note_on_c, 9, 59, 0
6, 124704, Note_on_c, 9, 59, 77
6, 124707, Note_on_c, 9, 35, 60
6, 124710, Note_on_c, 9, 59, 0
6, 124713, Note_on_c, 9, 35, 0
6, 124803, Note_on_c, 9, 59, 69
6, 124809, Note_on_c, 9, 59, 0
6, 124988, Note_on_c, 9, 35, 54
6, 124988, Note_on_c, 9, 44, 79
6, 124992, Note_on_c, 9, 59, 88
6, 124994, Note_on_c, 9, 44, 0
6, 124994, Note_on_c, 9, 35, 0
6, 124998, Note_on_c, 9, 59, 0
6, 125076, Note_on_c, 9, 40, 48
6, 125088, Note_on_c, 9, 59, 84
6, 125094, Note_on_c, 9, 59, 0
6, 125107, Note_on_c, 9, 40, 0
6, 125157, Note_on_c, 9, 46, 54
6, 125180, Note_on_c, 9, 59, 80
6, 125186, Note_on_c, 9, 59, 0
6, 125205, Note_on_c, 9, 46, 0
6, 125372, Note_on_c, 9, 44, 79
6, 125372, Note_on_c, 9, 59, 86
6, 125378, Note_on_c, 9, 59, 0
6, 125378, Note_on_c, 9, 44, 0
6, 125456, Note_on_c, 9, 40, 49
6, 125465, Note_on_c, 9, 59, 82
6, 125471, Note_on_c, 9, 59, 0
6, 125472, Note_on_c, 9, 35, 59
6, 125475, Note_on_c, 9, 40, 0
6, 125478, Note_on_c, 9, 35, 0
6, 125564, Note_on_c, 9, 59, 83
6, 125570, Note_on_c, 9, 59, 0
6, 125649, Note_on_c, 9, 40, 53
6, 125671, Note_on_c, 9, 40, 0
6, 125733, Note_on_c, 9, 46, 60
6, 125756, Note_on_c, 9, 35, 51
6, 125756, Note_on_c, 9, 44, 79
6, 125756, Note_on_c, 9, 59, 85
6, 125762, Note_on_c, 9, 59, 0
6, 125762, Note_on_c, 9, 46, 0
6, 125762, Note_on_c, 9, 35, 0
6, 125762, Note_on_c, 9, 44, 0
6, 125856, Note_on_c, 9, 59, 83
6, 125862, Note_on_c, 9, 59, 0
6, 125948, Note_on_c, 9, 59, 83
6, 125954, Note_on_c, 9, 59, 0
6, 126140, Note_on_c, 9, 44, 79
6, 126144, Note_on_c, 9, 59, 82
6, 126146, Note_on_c, 9, 44, 0
6, 126150, Note_on_c, 9, 59, 0
6, 126236, Note_on_c, 9, 59, 82
6, 126240, Note_on_c, 9, 35, 58
6, 126242, Note_on_c, 9, 59, 0
6, 126246, Note_on_c, 9, 35, 0
6, 126329, Note_on_c, 9, 59, 85
6, 126335, Note_on_c, 9, 59, 0
6, 126524, Note_on_c, 9, 44, 79
6, 126524, Note_on_c, 9, 59, 86
6, 126528, Note_on_c, 9, 35, 51
6, 126530, Note_on_c, 9, 59, 0
6, 126530, Note_on_c, 9, 44, 0
6, 126534, Note_on_c, 9, 35, 0
6, 126624, Note_on_c, 9, 59, 80
6, 126630, Note_on_c, 9, 59, 0
6, 126716, Note_on_c, 9, 59, 84
6, 126722, Note_on_c, 9, 59, 0
6, 126902, Note_on_c, 9, 44, 79
6, 126908, Note_on_c, 9, 44, 0
6, 126908, Note_on_c, 9, 59, 84
6, 126914, Note_on_c, 9, 59, 0
6, 127004, Note_on_c, 9, 59, 83
6, 127010, Note_on_c, 9, 59, 0
6, 127011, Note_on_c, 9, 35, 61
6, 127017, Note_on_c, 9, 35, 0
6, 127100, Note_on_c, 9, 59, 83
6, 127106, Note_on_c, 9, 59, 0
6, 127286, Note_on_c, 9, 44, 79
6, 127292, Note_on_c, 9, 44, 0
6, 127292, Note_on_c, 9, 59, 87
6, 127296, Note_on_c, 9, 35, 56
6, 127298, Note_on_c, 9, 59, 0
6, 127302, Note_on_c, 9, 35, 0
6, 127388, Note_on_c, 9, 59, 85
6, 127394, Note_on_c, 9, 59, 0
6, 127481, Note_on_c, 9, 59, 83
6, 127487, Note_on_c, 9, 59, 0
6, 127673, Note_on_c, 9, 44, 79
6, 127679, Note_on_c, 9, 44, 0
6, 127680, Note_on_c, 9, 59, 85
6, 127686, Note_on_c, 9, 59, 0
6, 127772, Note_on_c, 9, 35, 54
6, 127772, Note_on_c, 9, 59, 82
6, 127778, Note_on_c, 9, 59, 0
6, 127778, Note_on_c, 9, 35, 0
6, 127872, Note_on_c, 9, 59, 81
6, 127878, Note_on_c, 9, 59, 0
6, 128044, Note_on_c, 9, 40, 46
6, 128057, Note_on_c, 9, 44, 79
6, 128060, Note_on_c, 9, 35, 51
6, 128063, Note_on_c, 9, 44, 0
6, 128064, Note_on_c, 9, 40, 0
6, 128066, Note_on_c, 9, 35, 0
6, 128067, Note_on_c, 9, 59, 85
6, 128073, Note_on_c, 9, 59, 0
6, 128160, Note_on_c, 9, 59, 79
6, 128166, Note_on_c, 9, 59, 0
6, 128256, Note_on_c, 9, 59, 84
6, 128262, Note_on_c, 9, 59, 0
6, 128437, Note_on_c, 9, 40, 43
6, 128438, Note_on_c, 9, 44, 79
6, 128444, Note_on_c, 9, 44, 0
6, 128451, Note_on_c, 9, 59, 88
6, 128457, Note_on_c, 9, 59, 0
6, 128459, Note_on_c, 9, 40, 0
6, 128540, Note_on_c, 9, 35, 62
6, 128544, Note_on_c, 9, 59, 82
6, 128546, Note_on_c, 9, 35, 0
6, 128550, Note_on_c, 9, 59, 0
6, 128637, Note_on_c, 9, 40, 33
6, 128640, Note_on_c, 9, 59, 82
6, 128646, Note_on_c, 9, 59, 0
6, 128664, Note_on_c, 9, 40, 0
6, 128737, Note_on_c, 9, 40, 43
6, 128769, Note_on_c, 9, 40, 0
6, 128828, Note_on_c, 9, 44, 79
6, 128832, Note_on_c, 9, 35, 52
6, 128834, Note_on_c, 9, 44, 0
6, 128835, Note_on_c, 9, 59, 85
6, 128838, Note_on_c, 9, 35, 0
6, 128841, Note_on_c, 9, 59, 0
6, 129027, Note_on_c, 9, 59, 80
6, 129033, Note_on_c, 9, 59, 0
6, 129212, Note_on_c, 9, 44, 79
6, 129216, Note_on_c, 9, 59, 87
6, 129218, Note_on_c, 9, 44, 0
6, 129222, Note_on_c, 9, 59, 0
6, 129312, Note_on_c, 9, 59, 77
6, 129315, Note_on_c, 9, 35, 59
6, 129318, Note_on_c, 9, 59, 0
6, 129321, Note_on_c, 9, 35, 0
6, 129408, Note_on_c, 9, 59, 74
6, 129414, Note_on_c, 9, 59, 0
6, 129596, Note_on_c, 9, 44, 79
6, 129600, Note_on_c, 9, 35, 51
6, 129600, Note_on_c, 9, 59, 85
6, 129602, Note_on_c, 9, 44, 0
6, 129606, Note_on_c, 9, 59, 0
6, 129606, Note_on_c, 9, 35, 0
6, 129699, Note_on_c, 9, 59, 80
6, 129705, Note_on_c, 9, 59, 0
6, 129792, Note_on_c, 9, 59, 76
6, 129798, Note_on_c, 9, 59, 0
6, 129972, Note_on_c, 9, 40, 33
6, 129977, Note_on_c, 9, 44, 79
6, 129983, Note_on_c, 9, 44, 0
6, 129984, Note_on_c, 9, 59, 85
6, 129990, Note_on_c, 9, 59, 0
6, 129996, Note_on_c, 9, 40, 0
6, 130065, Note_on_c, 9, 35, 64
6, 130080, Note_on_c, 9, 35, 56
6, 130080, Note_on_c, 9, 59, 80
6, 130086, Note_on_c, 9, 59, 0
6, 130086, Note_on_c, 9, 35, 0
6, 130111, Note_on_c, 9, 35, 0
6, 130176, Note_on_c, 9, 59, 77
6, 130182, Note_on_c, 9, 59, 0
6, 130269, Note_on_c, 9, 40, 44
6, 130290, Note_on_c, 9, 40, 0
6, 130358, Note_on_c, 9, 35, 49
6, 130364, Note_on_c, 9, 35, 52
6, 130364, Note_on_c, 9, 44, 79
6, 130368, Note_on_c, 9, 59, 85
6, 130370, Note_on_c, 9, 44, 0
6, 130370, Note_on_c, 9, 35, 0
6, 130374, Note_on_c, 9, 59, 0
6, 130430, Note_on_c, 9, 35, 0
6, 130464, Note_on_c, 9, 59, 77
6, 130470, Note_on_c, 9, 59, 0
6, 130560, Note_on_c, 9, 59, 77
6, 130566, Note_on_c, 9, 59, 0
6, 130575, Note_on_c, 9, 40, 41
6, 130597, Note_on_c, 9, 40, 0
6, 130745, Note_on_c, 9, 44, 79
6, 130751, Note_on_c, 9, 44, 0
6, 130755, Note_on_c, 9, 59, 83
6, 130761, Note_on_c, 9, 59, 0
6, 130848, Note_on_c, 9, 59, 80
6, 130851, Note_on_c, 9, 35, 58
6, 130854, Note_on_c, 9, 59, 0
6, 130857, Note_on_c, 9, 35, 0
6, 130944, Note_on_c, 9, 59, 82
6, 130950, Note_on_c, 9, 59, 0
6, 131136, Note_on_c, 9, 35, 45
6, 131139, Note_on_c, 9, 44, 79
6, 131139, Note_on_c, 9, 59, 85
6, 131142, Note_on_c, 9, 35, 0
6, 131145, Note_on_c, 9, 59, 0
6, 131145, Note_on_c, 9, 44, 0
6, 131232, Note_on_c, 9, 59, 83
6, 131238, Note_on_c, 9, 59, 0
6, 131328, Note_on_c, 9, 59, 79
6, 131334, Note_on_c, 9, 59, 0
6, 131517, Note_on_c, 9, 40, 28
6, 131520, Note_on_c, 9, 44, 79
6, 131520, Note_on_c, 9, 59, 82
6, 131526, Note_on_c, 9, 59, 0
6, 131526, Note_on_c, 9, 44, 0
6, 131545, Note_on_c, 9, 40, 0
6, 131616, Note_on_c, 9, 59, 75
6, 131619, Note_on_c, 9, 35, 58
6, 131620, Note_on_c, 9, 40, 44
6, 131622, Note_on_c, 9, 59, 0
6, 131625, Note_on_c, 9, 35, 0
6, 131645, Note_on_c, 9, 40, 0
6, 131708, Note_on_c, 9, 59, 76
6, 131714, Note_on_c, 9, 59, 0
6, 131805, Note_on_c, 9, 40, 55
6, 131847, Note_on_c, 9, 40, 0
6, 131897, Note_on_c, 9, 44, 79
6, 131903, Note_on_c, 9, 44, 0
6, 131904, Note_on_c, 9, 59, 79
6, 131910, Note_on_c, 9, 59, 0
6, 131993, Note_on_c, 9, 42, 42
6, 131993, Note_on_c, 9, 55, 77
6, 131999, Note_on_c, 9, 55, 0
6, 131999, Note_on_c, 9, 42, 0
6, 132000, Note_on_c, 9, 35, 55
6, 132006, Note_on_c, 9, 35, 0
6, 132086, Note_on_c, 9, 40, 41
6, 132089, Note_on_c, 9, 59, 77
6, 132095, Note_on_c, 9, 59, 0
6, 132098, Note_on_c, 9, 57, 73
6, 132138, Note_on_c, 9, 57, 0
6, 132201, Note_on_c, 9, 44, 79
6, 132205, Note_on_c, 9, 40, 0
6, 132207, Note_on_c, 9, 44, 0
6, 132281, Note_on_c, 9, 59, 80
6, 132287, Note_on_c, 9, 59, 0
6, 132377, Note_on_c, 9, 35, 59
6, 132383, Note_on_c, 9, 35, 0
6, 132384, Note_on_c, 9, 51, 77
6, 132390, Note_on_c, 9, 51, 0
6, 132480, Note_on_c, 9, 53, 65
6, 132486, Note_on_c, 9, 53, 0
6, 132662, Note_on_c, 9, 44, 79
6, 132665, Note_on_c, 9, 35, 49
6, 132668, Note_on_c, 9, 44, 0
6, 132668, Note_on_c, 9, 59, 82
6, 132671, Note_on_c, 9, 35, 0
6, 132674, Note_on_c, 9, 59, 0
6, 132764, Note_on_c, 9, 59, 77
6, 132770, Note_on_c, 9, 59, 0
6, 132857, Note_on_c, 9, 35, 49
6, 132860, Note_on_c, 9, 59, 77
6, 132863, Note_on_c, 9, 35, 0
6, 132866, Note_on_c, 9, 59, 0
6, 133046, Note_on_c, 9, 44, 79
6, 133052, Note_on_c, 9, 44, 0
6, 133052, Note_on_c, 9, 59, 82
6, 133058, Note_on_c, 9, 59, 0
6, 133148, Note_on_c, 9, 35, 48
6, 133148, Note_on_c, 9, 59, 80
6, 133154, Note_on_c, 9, 59, 0
6, 133154, Note_on_c, 9, 35, 0
6, 133244, Note_on_c, 9, 59, 74
6, 133250, Note_on_c, 9, 59, 0
6, 133430, Note_on_c, 9, 44, 79
6, 133433, Note_on_c, 9, 35, 51
6, 133436, Note_on_c, 9, 44, 0
6, 133436, Note_on_c, 9, 59, 83
6, 133439, Note_on_c, 9, 35, 0
6, 133442, Note_on_c, 9, 59, 0
6, 133528, Note_on_c, 9, 40, 38
6, 133536, Note_on_c, 9, 51, 77
6, 133542, Note_on_c, 9, 51, 0
6, 133589, Note_on_c, 9, 40, 0
6, 133631, Note_on_c, 9, 40, 49
6, 133632, Note_on_c, 9, 59, 77
6, 133638, Note_on_c, 9, 59, 0
6, 133650, Note_on_c, 9, 40, 0
6, 133817, Note_on_c, 9, 44, 79
6, 133820, Note_on_c, 9, 59, 85
6, 133823, Note_on_c, 9, 44, 0
6, 133826, Note_on_c, 9, 59, 0
6, 133913, Note_on_c, 9, 35, 51
6, 133916, Note_on_c, 9, 59, 82
6, 133919, Note_on_c, 9, 35, 0
6, 133922, Note_on_c, 9, 59, 0
6, 134012, Note_on_c, 9, 59, 77
6, 134018, Note_on_c, 9, 59, 0
6, 134201, Note_on_c, 9, 35, 49
6, 134201, Note_on_c, 9, 44, 79
6, 134204, Note_on_c, 9, 59, 84
6, 134207, Note_on_c, 9, 44, 0
6, 134207, Note_on_c, 9, 35, 0
6, 134210, Note_on_c, 9, 59, 0
6, 134300, Note_on_c, 9, 59, 81
6, 134306, Note_on_c, 9, 59, 0
6, 134396, Note_on_c, 9, 59, 78
6, 134402, Note_on_c, 9, 59, 0
6, 134585, Note_on_c, 9, 44, 79
6, 134591, Note_on_c, 9, 44, 0
6, 134592, Note_on_c, 9, 59, 84
6, 134598, Note_on_c, 9, 59, 0
6, 134684, Note_on_c, 9, 35, 54
6, 134684, Note_on_c, 9, 59, 80
6, 134690, Note_on_c, 9, 59, 0
6, 134690, Note_on_c, 9, 35, 0
6, 134780, Note_on_c, 9, 59, 83
6, 134786, Note_on_c, 9, 59, 0
6, 134860, Note_on_c, 9, 40, 41
6, 134879, Note_on_c, 9, 40, 0
6, 134931, Note_on_c, 9, 34, 29
6, 134972, Note_on_c, 9, 35, 49
6, 134972, Note_on_c, 9, 44, 79
6, 134976, Note_on_c, 9, 59, 85
6, 134978, Note_on_c, 9, 44, 0
6, 134978, Note_on_c, 9, 35, 0
6, 134982, Note_on_c, 9, 59, 0
6, 134999, Note_on_c, 9, 34, 0
6, 135017, Note_on_c, 9, 35, 40
6, 135040, Note_on_c, 9, 35, 0
6, 135072, Note_on_c, 9, 59, 77
6, 135078, Note_on_c, 9, 59, 0
6, 135168, Note_on_c, 9, 59, 80
6, 135174, Note_on_c, 9, 59, 0
6, 135353, Note_on_c, 9, 44, 79
6, 135359, Note_on_c, 9, 44, 0
6, 135363, Note_on_c, 9, 59, 85
6, 135369, Note_on_c, 9, 59, 0
6, 135456, Note_on_c, 9, 35, 55
6, 135456, Note_on_c, 9, 51, 81
6, 135462, Note_on_c, 9, 51, 0
6, 135462, Note_on_c, 9, 35, 0
6, 135552, Note_on_c, 9, 53, 68
6, 135558, Note_on_c, 9, 53, 0
6, 135740, Note_on_c, 9, 35, 52
6, 135740, Note_on_c, 9, 44, 79
6, 135744, Note_on_c, 9, 59, 85
6, 135746, Note_on_c, 9, 44, 0
6, 135746, Note_on_c, 9, 35, 0
6, 135750, Note_on_c, 9, 59, 0
6, 135840, Note_on_c, 9, 59, 80
6, 135846, Note_on_c, 9, 59, 0
6, 135936, Note_on_c, 9, 59, 77
6, 135942, Note_on_c, 9, 59, 0
6, 136124, Note_on_c, 9, 44, 79
6, 136130, Note_on_c, 9, 44, 0
6, 136131, Note_on_c, 9, 59, 88
6, 136137, Note_on_c, 9, 59, 0
6, 136224, Note_on_c, 9, 59, 80
6, 136227, Note_on_c, 9, 35, 53
6, 136230, Note_on_c, 9, 59, 0
6, 136233, Note_on_c, 9, 35, 0
6, 136323, Note_on_c, 9, 59, 79
6, 136329, Note_on_c, 9, 59, 0
6, 136512, Note_on_c, 9, 35, 51
6, 136512, Note_on_c, 9, 44, 79
6, 136518, Note_on_c, 9, 44, 0
6, 136518, Note_on_c, 9, 35, 0
6, 136518, Note_on_c, 9, 59, 85
6, 136524, Note_on_c, 9, 59, 0
6, 136608, Note_on_c, 9, 51, 83
6, 136614, Note_on_c, 9, 51, 0
6, 136704, Note_on_c, 9, 59, 83
6, 136710, Note_on_c, 9, 59, 0
6, 136815, Note_on_c, 9, 40, 36
6, 136837, Note_on_c, 9, 40, 0
6, 136896, Note_on_c, 9, 44, 79
6, 136899, Note_on_c, 9, 59, 84
6, 136902, Note_on_c, 9, 44, 0
6, 136905, Note_on_c, 9, 59, 0
6, 136992, Note_on_c, 9, 59, 81
6, 136995, Note_on_c, 9, 35, 54
6, 136998, Note_on_c, 9, 59, 0
6, 137001, Note_on_c, 9, 35, 0
6, 137081, Note_on_c, 9, 40, 46
6, 137091, Note_on_c, 9, 59, 82
6, 137097, Note_on_c, 9, 59, 0
6, 137098, Note_on_c, 9, 40, 0
6, 137280, Note_on_c, 9, 35, 51
6, 137280, Note_on_c, 9, 44, 79
6, 137283, Note_on_c, 9, 59, 86
6, 137286, Note_on_c, 9, 44, 0
6, 137286, Note_on_c, 9, 35, 0
6, 137289, Note_on_c, 9, 59, 0
6, 137379, Note_on_c, 9, 59, 82
6, 137385, Note_on_c, 9, 59, 0
6, 137460, Note_on_c, 9, 40, 32
6, 137472, Note_on_c, 9, 35, 58
6, 137475, Note_on_c, 9, 59, 83
6, 137478, Note_on_c, 9, 35, 0
6, 137481, Note_on_c, 9, 59, 0
6, 137484, Note_on_c, 9, 40, 0
6, 137642, Note_on_c, 9, 40, 45
6, 137660, Note_on_c, 9, 44, 79
6, 137661, Note_on_c, 9, 40, 0
6, 137666, Note_on_c, 9, 44, 0
6, 137667, Note_on_c, 9, 59, 85
6, 137673, Note_on_c, 9, 59, 0
6, 137763, Note_on_c, 9, 35, 65
6, 137766, Note_on_c, 9, 59, 77
6, 137769, Note_on_c, 9, 35, 0
6, 137772, Note_on_c, 9, 59, 0
6, 137859, Note_on_c, 9, 59, 80
6, 137865, Note_on_c, 9, 59, 0
6, 137950, Note_on_c, 9, 40, 35
6, 137973, Note_on_c, 9, 40, 0
6, 138026, Note_on_c, 9, 40, 21
6, 138048, Note_on_c, 9, 44, 79
6, 138051, Note_on_c, 9, 35, 58
6, 138054, Note_on_c, 9, 44, 0
6, 138054, Note_on_c, 9, 59, 83
6, 138057, Note_on_c, 9, 35, 0
6, 138060, Note_on_c, 9, 59, 0
6, 138071, Note_on_c, 9, 40, 0
6, 138144, Note_on_c, 9, 43, 57
6, 138150, Note_on_c, 9, 43, 0
6, 138150, Note_on_c, 9, 59, 79
6, 138156, Note_on_c, 9, 59, 0
6, 138246, Note_on_c, 9, 59, 80
6, 138252, Note_on_c, 9, 59, 0
6, 138336, Note_on_c, 9, 43, 73
6, 138342, Note_on_c, 9, 43, 0
6, 138428, Note_on_c, 9, 44, 79
6, 138432, Note_on_c, 9, 43, 92
6, 138434, Note_on_c, 9, 44, 0
6, 138435, Note_on_c, 9, 59, 85
6, 138438, Note_on_c, 9, 43, 0
6, 138441, Note_on_c, 9, 59, 0
6, 138528, Note_on_c, 9, 35, 66
6, 138534, Note_on_c, 9, 35, 0
6, 138534, Note_on_c, 9, 59, 83
6, 138540, Note_on_c, 9, 59, 0
6, 138630, Note_on_c, 9, 59, 83
6, 138636, Note_on_c, 9, 59, 0
6, 138812, Note_on_c, 9, 44, 79
6, 138818, Note_on_c, 9, 44, 0
6, 138819, Note_on_c, 9, 35, 51
6, 138819, Note_on_c, 9, 59, 85
6, 138821, Note_on_c, 9, 40, 22
6, 138825, Note_on_c, 9, 59, 0
6, 138825, Note_on_c, 9, 35, 0
6, 138851, Note_on_c, 9, 40, 0
6, 138908, Note_on_c, 9, 40, 31
6, 138912, Note_on_c, 9, 59, 81
6, 138918, Note_on_c, 9, 59, 0
6, 138947, Note_on_c, 9, 40, 0
6, 139004, Note_on_c, 9, 59, 83
6, 139010, Note_on_c, 9, 59, 0
6, 139120, Note_on_c, 9, 40, 29
6, 139147, Note_on_c, 9, 40, 0
6, 139193, Note_on_c, 9, 44, 79
6, 139199, Note_on_c, 9, 44, 0
6, 139200, Note_on_c, 9, 59, 81
6, 139206, Note_on_c, 9, 59, 0
6, 139232, Note_on_c, 9, 40, 19
6, 139252, Note_on_c, 9, 40, 0
6, 139296, Note_on_c, 9, 35, 54
6, 139296, Note_on_c, 9, 59, 75
6, 139302, Note_on_c, 9, 59, 0
6, 139302, Note_on_c, 9, 35, 0
6, 139392, Note_on_c, 9, 59, 77
6, 139398, Note_on_c, 9, 59, 0
6, 139580, Note_on_c, 9, 44, 79
6, 139584, Note_on_c, 9, 35, 51
6, 139584, Note_on_c, 9, 59, 84
6, 139586, Note_on_c, 9, 44, 0
6, 139590, Note_on_c, 9, 59, 0
6, 139590, Note_on_c, 9, 35, 0
6, 139680, Note_on_c, 9, 59, 82
6, 139686, Note_on_c, 9, 59, 0
6, 139776, Note_on_c, 9, 59, 80
6, 139782, Note_on_c, 9, 59, 0
6, 139871, Note_on_c, 9, 40, 33
6, 139897, Note_on_c, 9, 40, 0
6, 139964, Note_on_c, 9, 44, 79
6, 139968, Note_on_c, 9, 59, 85
6, 139970, Note_on_c, 9, 44, 0
6, 139974, Note_on_c, 9, 59, 0
6, 140060, Note_on_c, 9, 35, 58
6, 140060, Note_on_c, 9, 59, 80
6, 140066, Note_on_c, 9, 59, 0
6, 140066, Note_on_c, 9, 35, 0
6, 140155, Note_on_c, 9, 40, 38
6, 140156, Note_on_c, 9, 59, 82
6, 140162, Note_on_c, 9, 59, 0
6, 140181, Note_on_c, 9, 40, 0
6, 140352, Note_on_c, 9, 35, 51
6, 140352, Note_on_c, 9, 44, 79
6, 140355, Note_on_c, 9, 59, 85
6, 140358, Note_on_c, 9, 44, 0
6, 140358, Note_on_c, 9, 35, 0
6, 140361, Note_on_c, 9, 59, 0
6, 140451, Note_on_c, 9, 59, 80
6, 140457, Note_on_c, 9, 59, 0
6, 140540, Note_on_c, 9, 59, 82
6, 140546, Note_on_c, 9, 59, 0
6, 140729, Note_on_c, 9, 44, 79
6, 140735, Note_on_c, 9, 44, 0
6, 140739, Note_on_c, 9, 59, 85
6, 140745, Note_on_c, 9, 59, 0
6, 140832, Note_on_c, 9, 59, 80
6, 140835, Note_on_c, 9, 35, 60
6, 140838, Note_on_c, 9, 59, 0
6, 140841, Note_on_c, 9, 35, 0
6, 140931, Note_on_c, 9, 59, 83
6, 140937, Note_on_c, 9, 59, 0
6, 141116, Note_on_c, 9, 44, 79
6, 141120, Note_on_c, 9, 35, 51
6, 141122, Note_on_c, 9, 44, 0
6, 141123, Note_on_c, 9, 59, 85
6, 141126, Note_on_c, 9, 35, 0
6, 141129, Note_on_c, 9, 59, 0
6, 141219, Note_on_c, 9, 59, 83
6, 141225, Note_on_c, 9, 59, 0
6, 141315, Note_on_c, 9, 59, 75
6, 141321, Note_on_c, 9, 59, 0
6, 141500, Note_on_c, 9, 44, 79
6, 141506, Note_on_c, 9, 44, 0
6, 141507, Note_on_c, 9, 59, 85
6, 141513, Note_on_c, 9, 59, 0
6, 141603, Note_on_c, 9, 35, 57
6, 141603, Note_on_c, 9, 59, 84
6, 141609, Note_on_c, 9, 59, 0
6, 141609, Note_on_c, 9, 35, 0
6, 141699, Note_on_c, 9, 59, 84
6, 141705, Note_on_c, 9, 59, 0
6, 141891, Note_on_c, 9, 35, 54
6, 141891, Note_on_c, 9, 44, 79
6, 141891, Note_on_c, 9, 59, 83
6, 141897, Note_on_c, 9, 59, 0
6, 141897, Note_on_c, 9, 44, 0
6, 141897, Note_on_c, 9, 35, 0
6, 141987, Note_on_c, 9, 59, 79
6, 141993, Note_on_c, 9, 59, 0
6, 142080, Note_on_c, 9, 59, 77
6, 142086, Note_on_c, 9, 59, 0
6, 142272, Note_on_c, 9, 44, 79
6, 142278, Note_on_c, 9, 44, 0
6, 142278, Note_on_c, 9, 59, 80
6, 142280, Note_on_c, 9, 40, 25
6, 142284, Note_on_c, 9, 59, 0
6, 142310, Note_on_c, 9, 40, 0
6, 142371, Note_on_c, 9, 35, 57
6, 142371, Note_on_c, 9, 59, 74
6, 142377, Note_on_c, 9, 59, 0
6, 142377, Note_on_c, 9, 35, 0
6, 142390, Note_on_c, 9, 40, 50
6, 142409, Note_on_c, 9, 40, 0
6, 142467, Note_on_c, 9, 59, 77
6, 142473, Note_on_c, 9, 59, 0
6, 142474, Note_on_c, 9, 40, 28
6, 142497, Note_on_c, 9, 40, 0
6, 142659, Note_on_c, 9, 35, 49
6, 142659, Note_on_c, 9, 44, 79
6, 142659, Note_on_c, 9, 59, 85
6, 142665, Note_on_c, 9, 59, 0
6, 142665, Note_on_c, 9, 44, 0
6, 142665, Note_on_c, 9, 35, 0
6, 142755, Note_on_c, 9, 59, 80
6, 142761, Note_on_c, 9, 59, 0
6, 142848, Note_on_c, 9, 35, 63
6, 142851, Note_on_c, 9, 59, 80
6, 142854, Note_on_c, 9, 35, 0
6, 142857, Note_on_c, 9, 59, 0
6, 142944, Note_on_c, 9, 48, 40
6, 142950, Note_on_c, 9, 48, 0
6, 143040, Note_on_c, 9, 44, 79
6, 143040, Note_on_c, 9, 48, 49
6, 143040, Note_on_c, 9, 59, 83
6, 143046, Note_on_c, 9, 59, 0
6, 143046, Note_on_c, 9, 48, 0
6, 143046, Note_on_c, 9, 44, 0
6, 143128, Note_on_c, 9, 40, 42
6, 143136, Note_on_c, 9, 35, 58
6, 143139, Note_on_c, 9, 59, 74
6, 143142, Note_on_c, 9, 35, 0
6, 143145, Note_on_c, 9, 59, 0
6, 143150, Note_on_c, 9, 40, 0
6, 143228, Note_on_c, 9, 48, 60
6, 143232, Note_on_c, 9, 59, 79
6, 143234, Note_on_c, 9, 48, 0
6, 143238, Note_on_c, 9, 59, 0
6, 143417, Note_on_c, 9, 35, 51
6, 143420, Note_on_c, 9, 44, 79
6, 143420, Note_on_c, 9, 48, 75
6, 143420, Note_on_c, 9, 59, 85
6, 143423, Note_on_c, 9, 35, 0
6, 143424, Note_on_c, 9, 40, 49
6, 143426, Note_on_c, 9, 44, 0
6, 143426, Note_on_c, 9, 59, 0
6, 143426, Note_on_c, 9, 48, 0
6, 143450, Note_on_c, 9, 40, 0
6, 143473, Note_on_c, 9, 29, 65
6, 143612, Note_on_c, 9, 48, 88
6, 143612, Note_on_c, 9, 59, 91
6, 143618, Note_on_c, 9, 59, 0
6, 143618, Note_on_c, 9, 48, 0
6, 143724, Note_on_c, 9, 40, 47
6, 143744, Note_on_c, 9, 40, 0
6, 143801, Note_on_c, 9, 59, 79
6, 143804, Note_on_c, 9, 44, 79
6, 143807, Note_on_c, 9, 59, 0
6, 143810, Note_on_c, 9, 44, 0
6, 143894, Note_on_c, 9, 59, 82
6, 143900, Note_on_c, 9, 59, 0
6, 143900, Note_on_c, 9, 35, 61
6, 143906, Note_on_c, 9, 35, 0
6, 143990, Note_on_c, 9, 59, 83
6, 143996, Note_on_c, 9, 59, 0
6, 144018, Note_on_c, 9, 40, 31
6, 144043, Note_on_c, 9, 40, 0
6, 144119, Note_on_c, 9, 46, 78
6, 144150, Note_on_c, 9, 46, 0
6, 144182, Note_on_c, 9, 44, 79
6, 144188, Note_on_c, 9, 44, 0
6, 144188, Note_on_c, 9, 59, 83
6, 144194, Note_on_c, 9, 59, 0
6, 144281, Note_on_c, 9, 35, 78
6, 144281, Note_on_c, 9, 55, 89
6, 144281, Note_on_c, 9, 59, 83
6, 144287, Note_on_c, 9, 59, 0
6, 144287, Note_on_c, 9, 55, 0
6, 144287, Note_on_c, 9, 35, 0
6, 144377, Note_on_c, 9, 59, 77
6, 144383, Note_on_c, 9, 59, 0
6, 144389, Note_on_c, 9, 29, 0
6, 144400, Note_on_c, 9, 40, 41
6, 144420, Note_on_c, 9, 40, 0
6, 144563, Note_on_c, 9, 44, 79
6, 144569, Note_on_c, 9, 44, 0
6, 144572, Note_on_c, 9, 59, 85
6, 144578, Note_on_c, 9, 59, 0
6, 144666, Note_on_c, 9, 40, 45
6, 144672, Note_on_c, 9, 35, 58
6, 144672, Note_on_c, 9, 51, 82
6, 144678, Note_on_c, 9, 51, 0
6, 144678, Note_on_c, 9, 35, 0
6, 144688, Note_on_c, 9, 40, 0
6, 144768, Note_on_c, 9, 53, 68
6, 144774, Note_on_c, 9, 53, 0
6, 144953, Note_on_c, 9, 44, 79
6, 144959, Note_on_c, 9, 44, 0
6, 144960, Note_on_c, 9, 35, 45
6, 144960, Note_on_c, 9, 59, 87
6, 144966, Note_on_c, 9, 59, 0
6, 144966, Note_on_c, 9, 35, 0
6, 144972, Note_on_c, 9, 40, 27
6, 144996, Note_on_c, 9, 40, 0
6, 145052, Note_on_c, 9, 59, 82
6, 145058, Note_on_c, 9, 59, 0
6, 145148, Note_on_c, 9, 59, 83
6, 145154, Note_on_c, 9, 59, 0
6, 145340, Note_on_c, 9, 44, 79
6, 145344, Note_on_c, 9, 59, 85
6, 145346, Note_on_c, 9, 44, 0
6, 145350, Note_on_c, 9, 59, 0
6, 145440, Note_on_c, 9, 35, 54
6, 145440, Note_on_c, 9, 59, 80
6, 145446, Note_on_c, 9, 59, 0
6, 145446, Note_on_c, 9, 35, 0
6, 145536, Note_on_c, 9, 59, 82
6, 145542, Note_on_c, 9, 59, 0
6, 145724, Note_on_c, 9, 35, 51
6, 145724, Note_on_c, 9, 44, 79
6, 145728, Note_on_c, 9, 59, 81
6, 145730, Note_on_c, 9, 44, 0
6, 145730, Note_on_c, 9, 35, 0
6, 145734, Note_on_c, 9, 59, 0
6, 145824, Note_on_c, 9, 51, 73
6, 145830, Note_on_c, 9, 51, 0
6, 145916, Note_on_c, 9, 35, 56
6, 145918, Note_on_c, 9, 40, 44
6, 145920, Note_on_c, 9, 59, 79
6, 145922, Note_on_c, 9, 35, 0
6, 145926, Note_on_c, 9, 59, 0
6, 145949, Note_on_c, 9, 40, 0
6, 146105, Note_on_c, 9, 44, 79
6, 146111, Note_on_c, 9, 44, 0
6, 146112, Note_on_c, 9, 59, 85
6, 146118, Note_on_c, 9, 59, 0
6, 146208, Note_on_c, 9, 35, 57
6, 146208, Note_on_c, 9, 59, 77
6, 146214, Note_on_c, 9, 59, 0
6, 146214, Note_on_c, 9, 35, 0
6, 146304, Note_on_c, 9, 59, 75
6, 146310, Note_on_c, 9, 59, 0
6, 146492, Note_on_c, 9, 44, 79
6, 146496, Note_on_c, 9, 35, 51
6, 146496, Note_on_c, 9, 59, 82
6, 146498, Note_on_c, 9, 44, 0
6, 146502, Note_on_c, 9, 59, 0
6, 146502, Note_on_c, 9, 35, 0
6, 146588, Note_on_c, 9, 59, 80
6, 146594, Note_on_c, 9, 59, 0
6, 146684, Note_on_c, 9, 59, 77
6, 146688, Note_on_c, 9, 35, 55
6, 146690, Note_on_c, 9, 59, 0
6, 146694, Note_on_c, 9, 35, 0
6, 146876, Note_on_c, 9, 44, 79
6, 146880, Note_on_c, 9, 59, 85
6, 146882, Note_on_c, 9, 44, 0
6, 146886, Note_on_c, 9, 59, 0
6, 146969, Note_on_c, 9, 59, 82
6, 146972, Note_on_c, 9, 35, 51
6, 146975, Note_on_c, 9, 59, 0
6, 146978, Note_on_c, 9, 35, 0
6, 147066, Note_on_c, 9, 57, 47
6, 147068, Note_on_c, 9, 59, 79
6, 147074, Note_on_c, 9, 59, 0
6, 147102, Note_on_c, 9, 57, 0
6, 147260, Note_on_c, 9, 44, 79
6, 147264, Note_on_c, 9, 35, 53
6, 147266, Note_on_c, 9, 44, 0
6, 147267, Note_on_c, 9, 59, 85
6, 147270, Note_on_c, 9, 35, 0
6, 147273, Note_on_c, 9, 59, 0
6, 147360, Note_on_c, 9, 59, 83
6, 147361, Note_on_c, 9, 40, 43
6, 147366, Note_on_c, 9, 59, 0
6, 147382, Note_on_c, 9, 40, 0
6, 147456, Note_on_c, 9, 59, 82
6, 147462, Note_on_c, 9, 59, 0
6, 147525, Note_on_c, 9, 40, 46
6, 147545, Note_on_c, 9, 40, 0
6, 147612, Note_on_c, 9, 57, 46
6, 147634, Note_on_c, 9, 57, 0
6, 147644, Note_on_c, 9, 44, 79
6, 147650, Note_on_c, 9, 44, 0
6, 147651, Note_on_c, 9, 59, 85
6, 147657, Note_on_c, 9, 59, 0
6, 147744, Note_on_c, 9, 59, 80
6, 147747, Note_on_c, 9, 35, 52
6, 147750, Note_on_c, 9, 59, 0
6, 147753, Note_on_c, 9, 35, 0
6, 147843, Note_on_c, 9, 59, 80
6, 147849, Note_on_c, 9, 59, 0
6, 148032, Note_on_c, 9, 35, 49
6, 148032, Note_on_c, 9, 44, 79
6, 148038, Note_on_c, 9, 44, 0
6, 148038, Note_on_c, 9, 35, 0
6, 148038, Note_on_c, 9, 59, 87
6, 148044, Note_on_c, 9, 59, 0
6, 148131, Note_on_c, 9, 59, 83
6, 148137, Note_on_c, 9, 59, 0
6, 148230, Note_on_c, 9, 59, 85
6, 148236, Note_on_c, 9, 59, 0
6, 148416, Note_on_c, 9, 44, 79
6, 148422, Note_on_c, 9, 44, 0
6, 148422, Note_on_c, 9, 59, 89
6, 148428, Note_on_c, 9, 59, 0
6, 148515, Note_on_c, 9, 59, 84
6, 148518, Note_on_c, 9, 35, 51
6, 148521, Note_on_c, 9, 59, 0
6, 148524, Note_on_c, 9, 35, 0
6, 148614, Note_on_c, 9, 59, 84
6, 148620, Note_on_c, 9, 59, 0
6, 148723, Note_on_c, 9, 40, 36
6, 148746, Note_on_c, 9, 40, 0
6, 148800, Note_on_c, 9, 35, 48
6, 148800, Note_on_c, 9, 44, 79
6, 148806, Note_on_c, 9, 44, 0
6, 148806, Note_on_c, 9, 35, 0
6, 148806, Note_on_c, 9, 59, 90
6, 148812, Note_on_c, 9, 59, 0
6, 148813, Note_on_c, 9, 40, 26
6, 148841, Note_on_c, 9, 40, 0
6, 148899, Note_on_c, 9, 59, 85
6, 148905, Note_on_c, 9, 59, 0
6, 148995, Note_on_c, 9, 59, 86
6, 149001, Note_on_c, 9, 59, 0
6, 149184, Note_on_c, 9, 44, 79
6, 149187, Note_on_c, 9, 59, 89
6, 149190, Note_on_c, 9, 44, 0
6, 149193, Note_on_c, 9, 59, 0
6, 149280, Note_on_c, 9, 59, 84
6, 149283, Note_on_c, 9, 35, 54
6, 149286, Note_on_c, 9, 59, 0
6, 149289, Note_on_c, 9, 35, 0
6, 149379, Note_on_c, 9, 59, 83
6, 149385, Note_on_c, 9, 59, 0
6, 149568, Note_on_c, 9, 35, 49
6, 149571, Note_on_c, 9, 44, 79
6, 149571, Note_on_c, 9, 59, 86
6, 149574, Note_on_c, 9, 35, 0
6, 149577, Note_on_c, 9, 59, 0
6, 149577, Note_on_c, 9, 44, 0
6, 149667, Note_on_c, 9, 59, 79
6, 149673, Note_on_c, 9, 59, 0
6, 149763, Note_on_c, 9, 59, 83
6, 149769, Note_on_c, 9, 59, 0
6, 149865, Note_on_c, 9, 40, 42
6, 149885, Note_on_c, 9, 40, 0
6, 149952, Note_on_c, 9, 44, 79
6, 149958, Note_on_c, 9, 44, 0
6, 149958, Note_on_c, 9, 59, 88
6, 149964, Note_on_c, 9, 59, 0
6, 150051, Note_on_c, 9, 35, 62
6, 150051, Note_on_c, 9, 59, 86
6, 150057, Note_on_c, 9, 59, 0
6, 150057, Note_on_c, 9, 35, 0
6, 150086, Note_on_c, 9, 40, 29
6, 150111, Note_on_c, 9, 40, 0
6, 150147, Note_on_c, 9, 59, 85
6, 150153, Note_on_c, 9, 59, 0
6, 150153, Note_on_c, 9, 40, 37
6, 150180, Note_on_c, 9, 40, 0
6, 150336, Note_on_c, 9, 44, 79
6, 150339, Note_on_c, 9, 35, 46
6, 150342, Note_on_c, 9, 44, 0
6, 150342, Note_on_c, 9, 59, 89
6, 150345, Note_on_c, 9, 35, 0
6, 150348, Note_on_c, 9, 59, 0
6, 150435, Note_on_c, 9, 40, 36
6, 150435, Note_on_c, 9, 59, 85
6, 150441, Note_on_c, 9, 59, 0
6, 150456, Note_on_c, 9, 40, 0
6, 150534, Note_on_c, 9, 59, 93
6, 150540, Note_on_c, 9, 59, 0
6, 150620, Note_on_c, 9, 40, 31
6, 150649, Note_on_c, 9, 40, 0
6, 150713, Note_on_c, 9, 40, 30
6, 150713, Note_on_c, 9, 44, 79
6, 150719, Note_on_c, 9, 44, 0
6, 150726, Note_on_c, 9, 59, 85
6, 150732, Note_on_c, 9, 59, 0
6, 150743, Note_on_c, 9, 40, 0
6, 150816, Note_on_c, 9, 51, 83
6, 150819, Note_on_c, 9, 35, 58
6, 150822, Note_on_c, 9, 51, 0
6, 150825, Note_on_c, 9, 35, 0
6, 150912, Note_on_c, 9, 53, 72
6, 150918, Note_on_c, 9, 53, 0
6, 151097, Note_on_c, 9, 44, 79
6, 151100, Note_on_c, 9, 35, 49
6, 151103, Note_on_c, 9, 44, 0
6, 151106, Note_on_c, 9, 35, 0
6, 151107, Note_on_c, 9, 59, 88
6, 151113, Note_on_c, 9, 59, 0
6, 151200, Note_on_c, 9, 59, 83
6, 151206, Note_on_c, 9, 59, 0
6, 151296, Note_on_c, 9, 59, 85
6, 151302, Note_on_c, 9, 59, 0
6, 151478, Note_on_c, 9, 44, 79
6, 151484, Note_on_c, 9, 44, 0
6, 151488, Note_on_c, 9, 59, 88
6, 151494, Note_on_c, 9, 59, 0
6, 151580, Note_on_c, 9, 35, 62
6, 151580, Note_on_c, 9, 59, 83
6, 151586, Note_on_c, 9, 59, 0
6, 151586, Note_on_c, 9, 35, 0
6, 151601, Note_on_c, 9, 40, 31
6, 151625, Note_on_c, 9, 40, 0
6, 151676, Note_on_c, 9, 59, 83
6, 151682, Note_on_c, 9, 59, 0
6, 151865, Note_on_c, 9, 44, 79
6, 151868, Note_on_c, 9, 35, 45
6, 151871, Note_on_c, 9, 44, 0
6, 151872, Note_on_c, 9, 59, 88
6, 151874, Note_on_c, 9, 35, 0
6, 151878, Note_on_c, 9, 59, 0
6, 151968, Note_on_c, 9, 51, 80
6, 151974, Note_on_c, 9, 51, 0
6, 152060, Note_on_c, 9, 59, 85
6, 152066, Note_on_c, 9, 59, 0
6, 152249, Note_on_c, 9, 44, 79
6, 152255, Note_on_c, 9, 44, 0
6, 152256, Note_on_c, 9, 59, 86
6, 152262, Note_on_c, 9, 59, 0
6, 152348, Note_on_c, 9, 59, 80
6, 152352, Note_on_c, 9, 35, 57
6, 152354, Note_on_c, 9, 59, 0
6, 152358, Note_on_c, 9, 35, 0
6, 152448, Note_on_c, 9, 59, 83
6, 152454, Note_on_c, 9, 59, 0
6, 152555, Note_on_c, 9, 40, 33
6, 152577, Note_on_c, 9, 40, 0
6, 152636, Note_on_c, 9, 35, 48
6, 152642, Note_on_c, 9, 35, 0
6, 152643, Note_on_c, 9, 44, 79
6, 152643, Note_on_c, 9, 59, 88
6, 152649, Note_on_c, 9, 59, 0
6, 152649, Note_on_c, 9, 44, 0
6, 152736, Note_on_c, 9, 59, 85
6, 152742, Note_on_c, 9, 59, 0
6, 152832, Note_on_c, 9, 59, 85
6, 152835, Note_on_c, 9, 35, 51
6, 152838, Note_on_c, 9, 59, 0
6, 152841, Note_on_c, 9, 35, 0
6, 153024, Note_on_c, 9, 44, 79
6, 153024, Note_on_c, 9, 59, 90
6, 153030, Note_on_c, 9, 59, 0
6, 153030, Note_on_c, 9, 44, 0
6, 153116, Note_on_c, 9, 59, 85
6, 153120, Note_on_c, 9, 35, 58
6, 153122, Note_on_c, 9, 59, 0
6, 153126, Note_on_c, 9, 35, 0
6, 153216, Note_on_c, 9, 59, 82
6, 153222, Note_on_c, 9, 59, 0
6, 153328, Note_on_c, 9, 40, 34
6, 153350, Note_on_c, 9, 40, 0
6, 153401, Note_on_c, 9, 35, 48
6, 153407, Note_on_c, 9, 35, 0
6, 153408, Note_on_c, 9, 59, 89
6, 153411, Note_on_c, 9, 44, 79
6, 153414, Note_on_c, 9, 59, 0
6, 153417, Note_on_c, 9, 44, 0
6, 153504, Note_on_c, 9, 59, 84
6, 153510, Note_on_c, 9, 59, 0
6, 153593, Note_on_c, 9, 35, 58
6, 153599, Note_on_c, 9, 35, 0
6, 153599, Note_on_c, 9, 40, 36
6, 153603, Note_on_c, 9, 59, 85
6, 153609, Note_on_c, 9, 59, 0
6, 153620, Note_on_c, 9, 40, 0
6, 153785, Note_on_c, 9, 44, 79
6, 153791, Note_on_c, 9, 44, 0
6, 153795, Note_on_c, 9, 40, 46
6, 153795, Note_on_c, 9, 59, 91
6, 153801, Note_on_c, 9, 59, 0
6, 153814, Note_on_c, 9, 40, 0
6, 153888, Note_on_c, 9, 35, 57
6, 153891, Note_on_c, 9, 59, 77
6, 153894, Note_on_c, 9, 35, 0
6, 153897, Note_on_c, 9, 59, 0
6, 153984, Note_on_c, 9, 59, 86
6, 153990, Note_on_c, 9, 59, 0
6, 154172, Note_on_c, 9, 35, 49
6, 154172, Note_on_c, 9, 44, 79
6, 154178, Note_on_c, 9, 44, 0
6, 154178, Note_on_c, 9, 35, 0
6, 154179, Note_on_c, 9, 59, 93
6, 154185, Note_on_c, 9, 59, 0
6, 154275, Note_on_c, 9, 59, 79
6, 154281, Note_on_c, 9, 59, 0
6, 154371, Note_on_c, 9, 35, 55
6, 154374, Note_on_c, 9, 59, 88
6, 154377, Note_on_c, 9, 35, 0
6, 154380, Note_on_c, 9, 59, 0
6, 154560, Note_on_c, 9, 44, 79
6, 154566, Note_on_c, 9, 44, 0
6, 154566, Note_on_c, 9, 59, 92
6, 154572, Note_on_c, 9, 59, 0
6, 154659, Note_on_c, 9, 35, 62
6, 154662, Note_on_c, 9, 59, 83
6, 154665, Note_on_c, 9, 35, 0
6, 154668, Note_on_c, 9, 59, 0
6, 154758, Note_on_c, 9, 59, 91
6, 154764, Note_on_c, 9, 59, 0
6, 154849, Note_on_c, 9, 40, 28
6, 154874, Note_on_c, 9, 40, 0
6, 154944, Note_on_c, 9, 35, 51
6, 154944, Note_on_c, 9, 44, 79
6, 154950, Note_on_c, 9, 44, 0
6, 154950, Note_on_c, 9, 35, 0
6, 154950, Note_on_c, 9, 59, 91
6, 154956, Note_on_c, 9, 59, 0
6, 155043, Note_on_c, 9, 59, 80
6, 155049, Note_on_c, 9, 59, 0
6, 155139, Note_on_c, 9, 35, 60
6, 155139, Note_on_c, 9, 59, 88
6, 155145, Note_on_c, 9, 59, 0
6, 155145, Note_on_c, 9, 35, 0
6, 155321, Note_on_c, 9, 44, 79
6, 155327, Note_on_c, 9, 44, 0
6, 155331, Note_on_c, 9, 59, 92
6, 155337, Note_on_c, 9, 59, 0
6, 155416, Note_on_c, 9, 40, 32
6, 155424, Note_on_c, 9, 59, 79
6, 155427, Note_on_c, 9, 35, 61
6, 155430, Note_on_c, 9, 59, 0
6, 155433, Note_on_c, 9, 35, 0
6, 155439, Note_on_c, 9, 40, 0
6, 155523, Note_on_c, 9, 59, 85
6, 155529, Note_on_c, 9, 59, 0
6, 155708, Note_on_c, 9, 35, 49
6, 155714, Note_on_c, 9, 35, 0
6, 155715, Note_on_c, 9, 44, 79
6, 155715, Note_on_c, 9, 59, 89
6, 155721, Note_on_c, 9, 59, 0
6, 155721, Note_on_c, 9, 44, 0
6, 155808, Note_on_c, 9, 59, 82
6, 155814, Note_on_c, 9, 59, 0
6, 155900, Note_on_c, 9, 35, 60
6, 155904, Note_on_c, 9, 59, 84
6, 155906, Note_on_c, 9, 35, 0
6, 155910, Note_on_c, 9, 59, 0
6, 156096, Note_on_c, 9, 44, 79
6, 156096, Note_on_c, 9, 59, 91
6, 156102, Note_on_c, 9, 59, 0
6, 156102, Note_on_c, 9, 44, 0
6, 156185, Note_on_c, 9, 59, 85
6, 156188, Note_on_c, 9, 35, 60
6, 156191, Note_on_c, 9, 59, 0
6, 156194, Note_on_c, 9, 35, 0
6, 156281, Note_on_c, 9, 59, 85
6, 156284, Note_on_c, 9, 47, 58
6, 156287, Note_on_c, 9, 59, 0
6, 156290, Note_on_c, 9, 47, 0
6, 156384, Note_on_c, 9, 47, 70
6, 156390, Note_on_c, 9, 47, 0
6, 156473, Note_on_c, 9, 35, 48
6, 156479, Note_on_c, 9, 35, 0
6, 156480, Note_on_c, 9, 44, 79
6, 156480, Note_on_c, 9, 59, 80
6, 156486, Note_on_c, 9, 59, 0
6, 156486, Note_on_c, 9, 44, 0
6, 156572, Note_on_c, 9, 47, 127
6, 156572, Note_on_c, 9, 59, 84
6, 156578, Note_on_c, 9, 59, 0
6, 156578, Note_on_c, 9, 47, 0
6, 156678, Note_on_c, 9, 35, 57
6, 156678, Note_on_c, 9, 59, 85
6, 156684, Note_on_c, 9, 59, 0
6, 156684, Note_on_c, 9, 35, 0
6, 156864, Note_on_c, 9, 44, 79
6, 156870, Note_on_c, 9, 44, 0
6, 156870, Note_on_c, 9, 59, 83
6, 156876, Note_on_c, 9, 59, 0
6, 156946, Note_on_c, 9, 40, 45
6, 156964, Note_on_c, 9, 40, 0
6, 156966, Note_on_c, 9, 35, 48
6, 156966, Note_on_c, 9, 59, 74
6, 156972, Note_on_c, 9, 59, 0
6, 156972, Note_on_c, 9, 35, 0
6, 157036, Note_on_c, 9, 57, 34
6, 157060, Note_on_c, 9, 57, 0
6, 157062, Note_on_c, 9, 59, 79
6, 157068, Note_on_c, 9, 59, 0
6, 157248, Note_on_c, 9, 44, 79
6, 157251, Note_on_c, 9, 35, 45
6, 157254, Note_on_c, 9, 44, 0
6, 157254, Note_on_c, 9, 59, 88
6, 157257, Note_on_c, 9, 35, 0
6, 157260, Note_on_c, 9, 59, 0
6, 157347, Note_on_c, 9, 59, 76
6, 157353, Note_on_c, 9, 59, 0
6, 157443, Note_on_c, 9, 35, 51
6, 157443, Note_on_c, 9, 59, 74
6, 157449, Note_on_c, 9, 59, 0
6, 157449, Note_on_c, 9, 35, 0
6, 157625, Note_on_c, 9, 44, 79
6, 157631, Note_on_c, 9, 44, 0
6, 157638, Note_on_c, 9, 59, 88
6, 157644, Note_on_c, 9, 59, 0
6, 157731, Note_on_c, 9, 35, 51
6, 157734, Note_on_c, 9, 59, 79
6, 157737, Note_on_c, 9, 35, 0
6, 157738, Note_on_c, 9, 40, 31
6, 157740, Note_on_c, 9, 59, 0
6, 157763, Note_on_c, 9, 40, 0
6, 157830, Note_on_c, 9, 59, 80
6, 157836, Note_on_c, 9, 59, 0
6, 157966, Note_on_c, 9, 40, 24
6, 157988, Note_on_c, 9, 40, 0
6, 158012, Note_on_c, 9, 44, 79
6, 158016, Note_on_c, 9, 35, 48
6, 158018, Note_on_c, 9, 44, 0
6, 158022, Note_on_c, 9, 35, 0
6, 158022, Note_on_c, 9, 59, 87
6, 158028, Note_on_c, 9, 59, 0
6, 158118, Note_on_c, 9, 59, 80
6, 158124, Note_on_c, 9, 59, 0
6, 158211, Note_on_c, 9, 35, 52
6, 158214, Note_on_c, 9, 59, 83
6, 158217, Note_on_c, 9, 35, 0
6, 158220, Note_on_c, 9, 59, 0
6, 158229, Note_on_c, 9, 57, 36
6, 158250, Note_on_c, 9, 57, 0
6, 158396, Note_on_c, 9, 44, 79
6, 158402, Note_on_c, 9, 44, 0
6, 158406, Note_on_c, 9, 59, 89
6, 158412, Note_on_c, 9, 59, 0
6, 158499, Note_on_c, 9, 35, 49
6, 158499, Note_on_c, 9, 59, 81
6, 158505, Note_on_c, 9, 59, 0
6, 158505, Note_on_c, 9, 35, 0
6, 158595, Note_on_c, 9, 59, 83
6, 158601, Note_on_c, 9, 59, 0
6, 158707, Note_on_c, 9, 40, 52
6, 158726, Note_on_c, 9, 40, 0
6, 158780, Note_on_c, 9, 44, 79
6, 158784, Note_on_c, 9, 35, 48
6, 158786, Note_on_c, 9, 44, 0
6, 158788, Note_on_c, 9, 40, 52
6, 158790, Note_on_c, 9, 35, 0
6, 158790, Note_on_c, 9, 59, 85
6, 158796, Note_on_c, 9, 59, 0
6, 158830, Note_on_c, 9, 40, 0
6, 158883, Note_on_c, 9, 59, 82
6, 158889, Note_on_c, 9, 59, 0
6, 158976, Note_on_c, 9, 35, 54
6, 158978, Note_on_c, 9, 40, 64
6, 158979, Note_on_c, 9, 59, 80
6, 158982, Note_on_c, 9, 35, 0
6, 158985, Note_on_c, 9, 59, 0
6, 159015, Note_on_c, 9, 40, 0
6, 159161, Note_on_c, 9, 44, 79
6, 159167, Note_on_c, 9, 44, 0
6, 159171, Note_on_c, 9, 59, 88
6, 159173, Note_on_c, 9, 40, 54
6, 159177, Note_on_c, 9, 59, 0
6, 159217, Note_on_c, 9, 40, 0
6, 159264, Note_on_c, 9, 59, 80
6, 159267, Note_on_c, 9, 35, 51
6, 159270, Note_on_c, 9, 59, 0
6, 159273, Note_on_c, 9, 35, 0
6, 159360, Note_on_c, 9, 59, 80
6, 159366, Note_on_c, 9, 59, 0
6, 159548, Note_on_c, 9, 44, 79
6, 159552, Note_on_c, 9, 35, 49
6, 159554, Note_on_c, 9, 44, 0
6, 159555, Note_on_c, 9, 59, 88
6, 159558, Note_on_c, 9, 35, 0
6, 159561, Note_on_c, 9, 59, 0
6, 159648, Note_on_c, 9, 59, 79
6, 159651, Note_on_c, 9, 40, 51
6, 159654, Note_on_c, 9, 59, 0
6, 159674, Note_on_c, 9, 40, 0
6, 159744, Note_on_c, 9, 35, 52
6, 159744, Note_on_c, 9, 59, 80
6, 159750, Note_on_c, 9, 59, 0
6, 159750, Note_on_c, 9, 35, 0
6, 159757, Note_on_c, 9, 40, 24
6, 159802, Note_on_c, 9, 40, 0
6, 159929, Note_on_c, 9, 44, 79
6, 159935, Note_on_c, 9, 44, 0
6, 159939, Note_on_c, 9, 59, 85
6, 159941, Note_on_c, 9, 40, 52
6, 159945, Note_on_c, 9, 59, 0
6, 159992, Note_on_c, 9, 40, 0
6, 160032, Note_on_c, 9, 59, 78
6, 160035, Note_on_c, 9, 35, 54
6, 160038, Note_on_c, 9, 59, 0
6, 160041, Note_on_c, 9, 35, 0
6, 160128, Note_on_c, 9, 59, 80
6, 160134, Note_on_c, 9, 59, 0
6, 160313, Note_on_c, 9, 44, 79
6, 160319, Note_on_c, 9, 44, 0
6, 160320, Note_on_c, 9, 35, 49
6, 160323, Note_on_c, 9, 59, 88
6, 160326, Note_on_c, 9, 35, 0
6, 160329, Note_on_c, 9, 59, 0
6, 160413, Note_on_c, 9, 40, 54
6, 160416, Note_on_c, 9, 59, 77
6, 160422, Note_on_c, 9, 59, 0
6, 160435, Note_on_c, 9, 40, 0
6, 160512, Note_on_c, 9, 35, 55
6, 160515, Note_on_c, 9, 59, 75
6, 160518, Note_on_c, 9, 35, 0
6, 160521, Note_on_c, 9, 59, 0
6, 160619, Note_on_c, 9, 40, 56
6, 160653, Note_on_c, 9, 40, 0
6, 160700, Note_on_c, 9, 44, 79
6, 160706, Note_on_c, 9, 44, 0
6, 160707, Note_on_c, 9, 59, 88
6, 160713, Note_on_c, 9, 59, 0
6, 160800, Note_on_c, 9, 35, 55
6, 160800, Note_on_c, 9, 59, 79
6, 160806, Note_on_c, 9, 59, 0
6, 160806, Note_on_c, 9, 35, 0
6, 160818, Note_on_c, 9, 40, 66
6, 160857, Note_on_c, 9, 40, 0
6, 160899, Note_on_c, 9, 59, 77
6, 160905, Note_on_c, 9, 59, 0
6, 161024, Note_on_c, 9, 40, 65
6, 161084, Note_on_c, 9, 44, 79
6, 161088, Note_on_c, 9, 35, 49
6, 161090, Note_on_c, 9, 44, 0
6, 161091, Note_on_c, 9, 59, 81
6, 161094, Note_on_c, 9, 35, 0
6, 161097, Note_on_c, 9, 59, 0
6, 161154, Note_on_c, 9, 40, 0
6, 161187, Note_on_c, 9, 59, 79
6, 161193, Note_on_c, 9, 59, 0
6, 161251, Note_on_c, 9, 59, 85
6, 161257, Note_on_c, 9, 59, 0
6, 161280, Note_on_c, 9, 35, 55
6, 161280, Note_on_c, 9, 59, 80
6, 161286, Note_on_c, 9, 59, 0
6, 161286, Note_on_c, 9, 35, 0
6, 161437, Note_on_c, 9, 44, 79
6, 161437, Note_on_c, 9, 59, 83
6, 161443, Note_on_c, 9, 59, 0
6, 161443, Note_on_c, 9, 44, 0
6, 161533, Note_on_c, 9, 51, 74
6, 161539, Note_on_c, 9, 51, 0
6, 161539, Note_on_c, 9, 35, 57
6, 161545, Note_on_c, 9, 35, 0
6, 161629, Note_on_c, 9, 59, 67
6, 161635, Note_on_c, 9, 59, 0
6, 161821, Note_on_c, 9, 44, 79
6, 161821, Note_on_c, 9, 59, 88
6, 161824, Note_on_c, 9, 35, 54
6, 161827, Note_on_c, 9, 59, 0
6, 161827, Note_on_c, 9, 44, 0
6, 161830, Note_on_c, 9, 35, 0
6, 161917, Note_on_c, 9, 59, 76
6, 161923, Note_on_c, 9, 59, 0
6, 162016, Note_on_c, 9, 35, 61
6, 162016, Note_on_c, 9, 59, 74
6, 162022, Note_on_c, 9, 59, 0
6, 162022, Note_on_c, 9, 35, 0
6, 162198, Note_on_c, 9, 44, 79
6, 162204, Note_on_c, 9, 44, 0
6, 162205, Note_on_c, 9, 59, 88
6, 162211, Note_on_c, 9, 59, 0
6, 162301, Note_on_c, 9, 59, 79
6, 162304, Note_on_c, 9, 35, 61
6, 162307, Note_on_c, 9, 59, 0
6, 162310, Note_on_c, 9, 35, 0
6, 162403, Note_on_c, 9, 59, 80
6, 162409, Note_on_c, 9, 59, 0
6, 162585, Note_on_c, 9, 44, 79
6, 162589, Note_on_c, 9, 35, 57
6, 162589, Note_on_c, 9, 59, 87
6, 162591, Note_on_c, 9, 44, 0
6, 162595, Note_on_c, 9, 59, 0
6, 162595, Note_on_c, 9, 35, 0
6, 162685, Note_on_c, 9, 59, 80
6, 162691, Note_on_c, 9, 59, 0
6, 162784, Note_on_c, 9, 35, 62
6, 162787, Note_on_c, 9, 59, 83
6, 162790, Note_on_c, 9, 35, 0
6, 162793, Note_on_c, 9, 59, 0
6, 162969, Note_on_c, 9, 44, 79
6, 162975, Note_on_c, 9, 44, 0
6, 162979, Note_on_c, 9, 59, 89
6, 162985, Note_on_c, 9, 59, 0
6, 163072, Note_on_c, 9, 35, 58
6, 163072, Note_on_c, 9, 59, 81
6, 163078, Note_on_c, 9, 59, 0
6, 163078, Note_on_c, 9, 35, 0
6, 163168, Note_on_c, 9, 59, 83
6, 163174, Note_on_c, 9, 59, 0
6, 163353, Note_on_c, 9, 44, 79
6, 163357, Note_on_c, 9, 35, 57
6, 163359, Note_on_c, 9, 44, 0
6, 163363, Note_on_c, 9, 35, 0
6, 163363, Note_on_c, 9, 59, 85
6, 163369, Note_on_c, 9, 59, 0
6, 163456, Note_on_c, 9, 59, 82
6, 163462, Note_on_c, 9, 59, 0
6, 163549, Note_on_c, 9, 35, 64
6, 163552, Note_on_c, 9, 59, 80
6, 163555, Note_on_c, 9, 35, 0
6, 163558, Note_on_c, 9, 59, 0
6, 163734, Note_on_c, 9, 44, 79
6, 163740, Note_on_c, 9, 44, 0
6, 163744, Note_on_c, 9, 59, 88
6, 163750, Note_on_c, 9, 59, 0
6, 163837, Note_on_c, 9, 59, 80
6, 163840, Note_on_c, 9, 35, 61
6, 163843, Note_on_c, 9, 59, 0
6, 163846, Note_on_c, 9, 35, 0
6, 163933, Note_on_c, 9, 59, 80
6, 163939, Note_on_c, 9, 59, 0
6, 164121, Note_on_c, 9, 44, 79
6, 164125, Note_on_c, 9, 35, 58
6, 164127, Note_on_c, 9, 44, 0
6, 164128, Note_on_c, 9, 59, 88
6, 164131, Note_on_c, 9, 35, 0
6, 164134, Note_on_c, 9, 59, 0
6, 164221, Note_on_c, 9, 59, 79
6, 164224, Note_on_c, 9, 40, 82
6, 164227, Note_on_c, 9, 59, 0
6, 164230, Note_on_c, 9, 40, 0
6, 164317, Note_on_c, 9, 35, 62
6, 164317, Note_on_c, 9, 59, 80
6, 164323, Note_on_c, 9, 59, 0
6, 164323, Note_on_c, 9, 35, 0
6, 164502, Note_on_c, 9, 44, 79
6, 164508, Note_on_c, 9, 44, 0
6, 164512, Note_on_c, 9, 59, 85
6, 164518, Note_on_c, 9, 59, 0
6, 164605, Note_on_c, 9, 51, 78
6, 164608, Note_on_c, 9, 35, 64
6, 164611, Note_on_c, 9, 51, 0
6, 164614, Note_on_c, 9, 35, 0
6, 164701, Note_on_c, 9, 59, 68
6, 164707, Note_on_c, 9, 59, 0
6, 164886, Note_on_c, 9, 44, 79
6, 164892, Note_on_c, 9, 44, 0
6, 164893, Note_on_c, 9, 35, 58
6, 164896, Note_on_c, 9, 59, 88
6, 164899, Note_on_c, 9, 35, 0
6, 164902, Note_on_c, 9, 59, 0
6, 164989, Note_on_c, 9, 59, 77
6, 164995, Note_on_c, 9, 59, 0
6, 165085, Note_on_c, 9, 35, 66
6, 165088, Note_on_c, 9, 59, 75
6, 165091, Note_on_c, 9, 35, 0
6, 165094, Note_on_c, 9, 59, 0
6, 165273, Note_on_c, 9, 44, 79
6, 165279, Note_on_c, 9, 44, 0
6, 165280, Note_on_c, 9, 59, 88
6, 165286, Note_on_c, 9, 59, 0
6, 165373, Note_on_c, 9, 35, 66
6, 165373, Note_on_c, 9, 59, 79
6, 165379, Note_on_c, 9, 59, 0
6, 165379, Note_on_c, 9, 35, 0
6, 165472, Note_on_c, 9, 59, 77
6, 165478, Note_on_c, 9, 59, 0
6, 165657, Note_on_c, 9, 44, 79
6, 165661, Note_on_c, 9, 35, 58
6, 165663, Note_on_c, 9, 44, 0
6, 165664, Note_on_c, 9, 59, 81
6, 165667, Note_on_c, 9, 35, 0
6, 165670, Note_on_c, 9, 59, 0
6, 165760, Note_on_c, 9, 59, 79
6, 165766, Note_on_c, 9, 59, 0
6, 165853, Note_on_c, 9, 35, 66
6, 165853, Note_on_c, 9, 59, 80
6, 165859, Note_on_c, 9, 59, 0
6, 165859, Note_on_c, 9, 35, 0
6, 166038, Note_on_c, 9, 44, 79
6, 166044, Note_on_c, 9, 44, 0
6, 166048, Note_on_c, 9, 59, 84
6, 166054, Note_on_c, 9, 59, 0
6, 166141, Note_on_c, 9, 35, 68
6, 166141, Note_on_c, 9, 59, 77
6, 166147, Note_on_c, 9, 59, 0
6, 166147, Note_on_c, 9, 35, 0
6, 166237, Note_on_c, 9, 59, 80
6, 166243, Note_on_c, 9, 59, 0
6, 166429, Note_on_c, 9, 35, 60
6, 166429, Note_on_c, 9, 44, 79
6, 166432, Note_on_c, 9, 59, 83
6, 166435, Note_on_c, 9, 44, 0
6, 166435, Note_on_c, 9, 35, 0
6, 166438, Note_on_c, 9, 59, 0
6, 166525, Note_on_c, 9, 59, 72
6, 166531, Note_on_c, 9, 59, 0
6, 166621, Note_on_c, 9, 35, 63
6, 166621, Note_on_c, 9, 59, 77
6, 166627, Note_on_c, 9, 59, 0
6, 166627, Note_on_c, 9, 35, 0
6, 166813, Note_on_c, 9, 44, 79
6, 166813, Note_on_c, 9, 59, 83
6, 166819, Note_on_c, 9, 59, 0
6, 166819, Note_on_c, 9, 44, 0
6, 166905, Note_on_c, 9, 59, 82
6, 166911, Note_on_c, 9, 59, 0
6, 166912, Note_on_c, 9, 35, 63
6, 166918, Note_on_c, 9, 35, 0
6, 166998, Note_on_c, 9, 59, 83
6, 167004, Note_on_c, 9, 59, 0
6, 167014, Note_on_c, 9, 40, 60
6, 167020, Note_on_c, 9, 40, 0
6, 167059, Note_on_c, 9, 40, 45
6, 167065, Note_on_c, 9, 40, 0
6, 167101, Note_on_c, 9, 40, 34
6, 167107, Note_on_c, 9, 40, 0
6, 167136, Note_on_c, 9, 40, 32
6, 167142, Note_on_c, 9, 40, 0
6, 167197, Note_on_c, 9, 35, 58
6, 167197, Note_on_c, 9, 44, 79
6, 167200, Note_on_c, 9, 59, 79
6, 167203, Note_on_c, 9, 44, 0
6, 167203, Note_on_c, 9, 35, 0
6, 167206, Note_on_c, 9, 59, 0
6, 167293, Note_on_c, 9, 59, 77
6, 167299, Note_on_c, 9, 59, 0
6, 167302, Note_on_c, 9, 40, 91
6, 167308, Note_on_c, 9, 40, 0
6, 167389, Note_on_c, 9, 35, 64
6, 167389, Note_on_c, 9, 59, 82
6, 167395, Note_on_c, 9, 59, 0
6, 167395, Note_on_c, 9, 35, 0
6, 167577, Note_on_c, 9, 44, 79
6, 167583, Note_on_c, 9, 44, 0
6, 167587, Note_on_c, 9, 59, 85
6, 167593, Note_on_c, 9, 59, 0
6, 167677, Note_on_c, 9, 51, 75
6, 167680, Note_on_c, 9, 35, 64
6, 167683, Note_on_c, 9, 51, 0
6, 167686, Note_on_c, 9, 35, 0
6, 167773, Note_on_c, 9, 53, 65
6, 167779, Note_on_c, 9, 53, 0
6, 167968, Note_on_c, 9, 35, 61
6, 167968, Note_on_c, 9, 44, 79
6, 167971, Note_on_c, 9, 59, 84
6, 167974, Note_on_c, 9, 44, 0
6, 167974, Note_on_c, 9, 35, 0
6, 167977, Note_on_c, 9, 59, 0
6, 168064, Note_on_c, 9, 59, 69
6, 168070, Note_on_c, 9, 59, 0
6, 168160, Note_on_c, 9, 35, 67
6, 168160, Note_on_c, 9, 59, 79
6, 168166, Note_on_c, 9, 59, 0
6, 168166, Note_on_c, 9, 35, 0
6, 168352, Note_on_c, 9, 44, 79
6, 168352, Note_on_c, 9, 59, 83
6, 168358, Note_on_c, 9, 59, 0
6, 168358, Note_on_c, 9, 44, 0
6, 168445, Note_on_c, 9, 35, 64
6, 168448, Note_on_c, 9, 59, 72
6, 168451, Note_on_c, 9, 35, 0
6, 168454, Note_on_c, 9, 59, 0
6, 168544, Note_on_c, 9, 59, 74
6, 168550, Note_on_c, 9, 59, 0
6, 168733, Note_on_c, 9, 35, 62
6, 168733, Note_on_c, 9, 44, 79
6, 168739, Note_on_c, 9, 44, 0
6, 168739, Note_on_c, 9, 35, 0
6, 168739, Note_on_c, 9, 59, 85
6, 168745, Note_on_c, 9, 59, 0
6, 168829, Note_on_c, 9, 51, 76
6, 168835, Note_on_c, 9, 51, 0
6, 168928, Note_on_c, 9, 35, 63
6, 168928, Note_on_c, 9, 59, 72
6, 168934, Note_on_c, 9, 59, 0
6, 168934, Note_on_c, 9, 35, 0
6, 169120, Note_on_c, 9, 44, 79
6, 169123, Note_on_c, 9, 59, 83
6, 169126, Note_on_c, 9, 44, 0
6, 169129, Note_on_c, 9, 59, 0
6, 169213, Note_on_c, 9, 35, 64
6, 169216, Note_on_c, 9, 59, 79
6, 169219, Note_on_c, 9, 35, 0
6, 169222, Note_on_c, 9, 59, 0
6, 169312, Note_on_c, 9, 59, 77
6, 169318, Note_on_c, 9, 59, 0
6, 169501, Note_on_c, 9, 44, 79
6, 169504, Note_on_c, 9, 35, 57
6, 169507, Note_on_c, 9, 44, 0
6, 169507, Note_on_c, 9, 59, 85
6, 169510, Note_on_c, 9, 35, 0
6, 169513, Note_on_c, 9, 59, 0
6, 169600, Note_on_c, 9, 59, 80
6, 169606, Note_on_c, 9, 59, 0
6, 169696, Note_on_c, 9, 35, 61
6, 169696, Note_on_c, 9, 59, 79
6, 169702, Note_on_c, 9, 59, 0
6, 169702, Note_on_c, 9, 35, 0
6, 169881, Note_on_c, 9, 44, 79
6, 169887, Note_on_c, 9, 44, 0
6, 169888, Note_on_c, 9, 59, 87
6, 169894, Note_on_c, 9, 59, 0
6, 169981, Note_on_c, 9, 35, 66
6, 169984, Note_on_c, 9, 59, 80
6, 169987, Note_on_c, 9, 35, 0
6, 169990, Note_on_c, 9, 59, 0
6, 170080, Note_on_c, 9, 59, 81
6, 170086, Note_on_c, 9, 59, 0
6, 170176, Note_on_c, 9, 40, 40
6, 170182, Note_on_c, 9, 40, 0
6, 170269, Note_on_c, 9, 35, 61
6, 170269, Note_on_c, 9, 44, 79
6, 170272, Note_on_c, 9, 59, 88
6, 170275, Note_on_c, 9, 44, 0
6, 170275, Note_on_c, 9, 35, 0
6, 170278, Note_on_c, 9, 59, 0
6, 170365, Note_on_c, 9, 59, 79
6, 170371, Note_on_c, 9, 59, 0
6, 170461, Note_on_c, 9, 35, 69
6, 170461, Note_on_c, 9, 59, 80
6, 170467, Note_on_c, 9, 59, 0
6, 170467, Note_on_c, 9, 35, 0
6, 170563, Note_on_c, 9, 40, 90
6, 170569, Note_on_c, 9, 40, 0
6, 170649, Note_on_c, 9, 44, 79
6, 170655, Note_on_c, 9, 44, 0
6, 170656, Note_on_c, 9, 59, 82
6, 170662, Note_on_c, 9, 59, 0
6, 170752, Note_on_c, 9, 35, 73
6, 170752, Note_on_c, 9, 59, 74
6, 170758, Note_on_c, 9, 59, 0
6, 170758, Note_on_c, 9, 35, 0
6, 170845, Note_on_c, 9, 59, 77
6, 170851, Note_on_c, 9, 59, 0
6, 171037, Note_on_c, 9, 44, 79
6, 171040, Note_on_c, 9, 35, 61
6, 171040, Note_on_c, 9, 59, 85
6, 171043, Note_on_c, 9, 44, 0
6, 171046, Note_on_c, 9, 59, 0
6, 171046, Note_on_c, 9, 35, 0
6, 171136, Note_on_c, 9, 59, 76
6, 171142, Note_on_c, 9, 59, 0
6, 171229, Note_on_c, 9, 35, 64
6, 171232, Note_on_c, 9, 59, 77
6, 171235, Note_on_c, 9, 35, 0
6, 171238, Note_on_c, 9, 59, 0
6, 171331, Note_on_c, 9, 40, 40
6, 171337, Note_on_c, 9, 40, 0
6, 171421, Note_on_c, 9, 44, 79
6, 171427, Note_on_c, 9, 44, 0
6, 171427, Note_on_c, 9, 59, 88
6, 171433, Note_on_c, 9, 59, 0
6, 171517, Note_on_c, 9, 35, 68
6, 171520, Note_on_c, 9, 59, 77
6, 171523, Note_on_c, 9, 35, 0
6, 171526, Note_on_c, 9, 59, 0
6, 171616, Note_on_c, 9, 59, 71
6, 171622, Note_on_c, 9, 59, 0
6, 171805, Note_on_c, 9, 35, 58
6, 171808, Note_on_c, 9, 44, 79
6, 171808, Note_on_c, 9, 59, 83
6, 171811, Note_on_c, 9, 35, 0
6, 171814, Note_on_c, 9, 59, 0
6, 171814, Note_on_c, 9, 44, 0
6, 171904, Note_on_c, 9, 59, 80
6, 171910, Note_on_c, 9, 59, 0
6, 171993, Note_on_c, 9, 35, 68
6, 171997, Note_on_c, 9, 59, 79
6, 171999, Note_on_c, 9, 35, 0
6, 172003, Note_on_c, 9, 59, 0
6, 172093, Note_on_c, 9, 40, 40
6, 172099, Note_on_c, 9, 40, 0
6, 172185, Note_on_c, 9, 44, 79
6, 172189, Note_on_c, 9, 59, 87
6, 172191, Note_on_c, 9, 44, 0
6, 172195, Note_on_c, 9, 59, 0
6, 172285, Note_on_c, 9, 35, 69
6, 172285, Note_on_c, 9, 59, 80
6, 172291, Note_on_c, 9, 59, 0
6, 172291, Note_on_c, 9, 35, 0
6, 172377, Note_on_c, 9, 59, 83
6, 172383, Note_on_c, 9, 59, 0
6, 172390, Note_on_c, 9, 40, 94
6, 172396, Note_on_c, 9, 40, 0
6, 172573, Note_on_c, 9, 35, 55
6, 172573, Note_on_c, 9, 44, 79
6, 172576, Note_on_c, 9, 59, 82
6, 172579, Note_on_c, 9, 44, 0
6, 172579, Note_on_c, 9, 35, 0
6, 172582, Note_on_c, 9, 59, 0
6, 172669, Note_on_c, 9, 59, 75
6, 172675, Note_on_c, 9, 59, 0
6, 172765, Note_on_c, 9, 35, 69
6, 172765, Note_on_c, 9, 59, 77
6, 172771, Note_on_c, 9, 59, 0
6, 172771, Note_on_c, 9, 35, 0
6, 172861, Note_on_c, 9, 40, 40
6, 172867, Note_on_c, 9, 40, 0
6, 172957, Note_on_c, 9, 44, 79
6, 172957, Note_on_c, 9, 59, 88
6, 172963, Note_on_c, 9, 59, 0
6, 172963, Note_on_c, 9, 44, 0
6, 173053, Note_on_c, 9, 35, 73
6, 173053, Note_on_c, 9, 59, 74
6, 173059, Note_on_c, 9, 59, 0
6, 173059, Note_on_c, 9, 35, 0
6, 173149, Note_on_c, 9, 47, 84
6, 173149, Note_on_c, 9, 59, 76
6, 173155, Note_on_c, 9, 59, 0
6, 173155, Note_on_c, 9, 47, 0
6, 173341, Note_on_c, 9, 35, 63
6, 173341, Note_on_c, 9, 40, 113
6, 173341, Note_on_c, 9, 44, 79
6, 173344, Note_on_c, 9, 59, 83
6, 173347, Note_on_c, 9, 44, 0
6, 173347, Note_on_c, 9, 35, 0
6, 173347, Note_on_c, 9, 40, 0
6, 173350, Note_on_c, 9, 59, 0
6, 173437, Note_on_c, 9, 47, 109
6, 173437, Note_on_c, 9, 51, 80
6, 173443, Note_on_c, 9, 51, 0
6, 173443, Note_on_c, 9, 47, 0
6, 173533, Note_on_c, 9, 35, 72
6, 173533, Note_on_c, 9, 59, 80
6, 173539, Note_on_c, 9, 59, 0
6, 173539, Note_on_c, 9, 35, 0
6, 173721, Note_on_c, 9, 44, 79
6, 173727, Note_on_c, 9, 44, 0
6, 173728, Note_on_c, 9, 59, 77
6, 173734, Note_on_c, 9, 59, 0
6, 173821, Note_on_c, 9, 59, 76
6, 173824, Note_on_c, 9, 35, 70
6, 173827, Note_on_c, 9, 59, 0
6, 173830, Note_on_c, 9, 35, 0
6, 173917, Note_on_c, 9, 59, 75
6, 173923, Note_on_c, 9, 59, 0
6, 174013, Note_on_c, 9, 40, 41
6, 174019, Note_on_c, 9, 40, 0
6, 174109, Note_on_c, 9, 35, 63
6, 174112, Note_on_c, 9, 44, 79
6, 174112, Note_on_c, 9, 59, 85
6, 174115, Note_on_c, 9, 35, 0
6, 174118, Note_on_c, 9, 59, 0
6, 174118, Note_on_c, 9, 44, 0
6, 174208, Note_on_c, 9, 59, 77
6, 174214, Note_on_c, 9, 59, 0
6, 174301, Note_on_c, 9, 35, 72
6, 174304, Note_on_c, 9, 59, 75
6, 174307, Note_on_c, 9, 35, 0
6, 174310, Note_on_c, 9, 59, 0
6, 174493, Note_on_c, 9, 44, 79
6, 174496, Note_on_c, 9, 59, 83
6, 174499, Note_on_c, 9, 44, 0
6, 174502, Note_on_c, 9, 59, 0
6, 174592, Note_on_c, 9, 35, 68
6, 174592, Note_on_c, 9, 59, 77
6, 174598, Note_on_c, 9, 59, 0
6, 174598, Note_on_c, 9, 35, 0
6, 174688, Note_on_c, 9, 59, 75
6, 174694, Note_on_c, 9, 59, 0
6, 174880, Note_on_c, 9, 35, 66
6, 174880, Note_on_c, 9, 44, 79
6, 174883, Note_on_c, 9, 59, 85
6, 174886, Note_on_c, 9, 44, 0
6, 174886, Note_on_c, 9, 35, 0
6, 174889, Note_on_c, 9, 59, 0
6, 174976, Note_on_c, 9, 59, 76
6, 174982, Note_on_c, 9, 59, 0
6, 175072, Note_on_c, 9, 35, 69
6, 175072, Note_on_c, 9, 59, 77
6, 175078, Note_on_c, 9, 59, 0
6, 175078, Note_on_c, 9, 35, 0
6, 175264, Note_on_c, 9, 44, 79
6, 175264, Note_on_c, 9, 59, 85
6, 175270, Note_on_c, 9, 59, 0
6, 175270, Note_on_c, 9, 44, 0
6, 175360, Note_on_c, 9, 35, 68
6, 175360, Note_on_c, 9, 59, 77
6, 175366, Note_on_c, 9, 59, 0
6, 175366, Note_on_c, 9, 35, 0
6, 175456, Note_on_c, 9, 59, 74
6, 175462, Note_on_c, 9, 59, 0
6, 175641, Note_on_c, 9, 44, 79
6, 175647, Note_on_c, 9, 44, 0
6, 175648, Note_on_c, 9, 35, 57
6, 175648, Note_on_c, 9, 59, 85
6, 175654, Note_on_c, 9, 59, 0
6, 175654, Note_on_c, 9, 35, 0
6, 175744, Note_on_c, 9, 59, 80
6, 175750, Note_on_c, 9, 59, 0
6, 175840, Note_on_c, 9, 35, 64
6, 175840, Note_on_c, 9, 59, 79
6, 175846, Note_on_c, 9, 59, 0
6, 175846, Note_on_c, 9, 35, 0
6, 176025, Note_on_c, 9, 44, 79
6, 176029, Note_on_c, 9, 59, 88
6, 176031, Note_on_c, 9, 44, 0
6, 176035, Note_on_c, 9, 59, 0
6, 176125, Note_on_c, 9, 59, 79
6, 176128, Note_on_c, 9, 35, 64
6, 176131, Note_on_c, 9, 59, 0
6, 176134, Note_on_c, 9, 35, 0
6, 176221, Note_on_c, 9, 59, 77
6, 176227, Note_on_c, 9, 59, 0
6, 176409, Note_on_c, 9, 35, 58
6, 176409, Note_on_c, 9, 44, 79
6, 176415, Note_on_c, 9, 44, 0
6, 176415, Note_on_c, 9, 35, 0
6, 176416, Note_on_c, 9, 59, 86
6, 176422, Note_on_c, 9, 59, 0
6, 176512, Note_on_c, 9, 59, 77
6, 176518, Note_on_c, 9, 59, 0
6, 176605, Note_on_c, 9, 35, 70
6, 176605, Note_on_c, 9, 59, 80
6, 176611, Note_on_c, 9, 59, 0
6, 176611, Note_on_c, 9, 35, 0
6, 176685, Note_on_c, 9, 40, 43
6, 176691, Note_on_c, 9, 40, 0
6, 176742, Note_on_c, 9, 40, 35
6, 176748, Note_on_c, 9, 40, 0
6, 176793, Note_on_c, 9, 44, 79
6, 176797, Note_on_c, 9, 59, 83
6, 176799, Note_on_c, 9, 44, 0
6, 176803, Note_on_c, 9, 59, 0
6, 176893, Note_on_c, 9, 35, 74
6, 176893, Note_on_c, 9, 59, 79
6, 176899, Note_on_c, 9, 59, 0
6, 176899, Note_on_c, 9, 35, 0
6, 176989, Note_on_c, 9, 59, 77
6, 176995, Note_on_c, 9, 59, 0
6, 177085, Note_on_c, 9, 40, 33
6, 177091, Note_on_c, 9, 40, 0
6, 177174, Note_on_c, 9, 44, 79
6, 177177, Note_on_c, 9, 35, 64
6, 177180, Note_on_c, 9, 44, 0
6, 177183, Note_on_c, 9, 35, 0
6, 177184, Note_on_c, 9, 59, 86
6, 177190, Note_on_c, 9, 59, 0
6, 177270, Note_on_c, 9, 40, 81
6, 177276, Note_on_c, 9, 40, 0
6, 177280, Note_on_c, 9, 59, 76
6, 177286, Note_on_c, 9, 59, 0
6, 177369, Note_on_c, 9, 35, 69
6, 177375, Note_on_c, 9, 35, 0
6, 177376, Note_on_c, 9, 59, 79
6, 177382, Note_on_c, 9, 59, 0
6, 177481, Note_on_c, 9, 40, 34
6, 177487, Note_on_c, 9, 40, 0
6, 177558, Note_on_c, 9, 44, 79
6, 177564, Note_on_c, 9, 44, 0
6, 177565, Note_on_c, 9, 59, 85
6, 177571, Note_on_c, 9, 59, 0
6, 177661, Note_on_c, 9, 35, 72
6, 177661, Note_on_c, 9, 59, 79
6, 177667, Note_on_c, 9, 59, 0
6, 177667, Note_on_c, 9, 35, 0
6, 177753, Note_on_c, 9, 59, 80
6, 177759, Note_on_c, 9, 59, 0
6, 177840, Note_on_c, 9, 40, 41
6, 177846, Note_on_c, 9, 40, 0
6, 177942, Note_on_c, 9, 44, 79
6, 177945, Note_on_c, 9, 35, 64
6, 177948, Note_on_c, 9, 44, 0
6, 177949, Note_on_c, 9, 59, 83
6, 177951, Note_on_c, 9, 35, 0
6, 177955, Note_on_c, 9, 59, 0
6, 178045, Note_on_c, 9, 59, 77
6, 178051, Note_on_c, 9, 59, 0
6, 178141, Note_on_c, 9, 35, 66
6, 178141, Note_on_c, 9, 59, 74
6, 178147, Note_on_c, 9, 59, 0
6, 178147, Note_on_c, 9, 35, 0
6, 178237, Note_on_c, 9, 40, 39
6, 178243, Note_on_c, 9, 40, 0
6, 178329, Note_on_c, 9, 44, 79
6, 178335, Note_on_c, 9, 44, 0
6, 178336, Note_on_c, 9, 59, 83
6, 178342, Note_on_c, 9, 59, 0
6, 178429, Note_on_c, 9, 59, 77
6, 178432, Note_on_c, 9, 35, 72
6, 178435, Note_on_c, 9, 59, 0
6, 178438, Note_on_c, 9, 35, 0
6, 178528, Note_on_c, 9, 59, 69
6, 178534, Note_on_c, 9, 59, 0
6, 178624, Note_on_c, 9, 40, 34
6, 178630, Note_on_c, 9, 40, 0
6, 178713, Note_on_c, 9, 35, 64
6, 178713, Note_on_c, 9, 44, 79
6, 178717, Note_on_c, 9, 59, 88
6, 178719, Note_on_c, 9, 44, 0
6, 178719, Note_on_c, 9, 35, 0
6, 178723, Note_on_c, 9, 59, 0
6, 178813, Note_on_c, 9, 59, 84
6, 178819, Note_on_c, 9, 59, 0
6, 178905, Note_on_c, 9, 35, 74
6, 178905, Note_on_c, 9, 59, 80
6, 178911, Note_on_c, 9, 59, 0
6, 178911, Note_on_c, 9, 35, 0
6, 178998, Note_on_c, 9, 40, 75
6, 179004, Note_on_c, 9, 40, 0
6, 179097, Note_on_c, 9, 44, 79
6, 179097, Note_on_c, 9, 59, 86
6, 179103, Note_on_c, 9, 59, 0
6, 179103, Note_on_c, 9, 44, 0
6, 179190, Note_on_c, 9, 59, 82
6, 179196, Note_on_c, 9, 59, 0
6, 179197, Note_on_c, 9, 35, 70
6, 179203, Note_on_c, 9, 35, 0
6, 179289, Note_on_c, 9, 59, 83
6, 179295, Note_on_c, 9, 59, 0
6, 179296, Note_on_c, 9, 40, 49
6, 179302, Note_on_c, 9, 40, 0
6, 179395, Note_on_c, 9, 40, 45
6, 179401, Note_on_c, 9, 40, 0
6, 179481, Note_on_c, 9, 59, 85
6, 179481, Note_on_c, 9, 35, 61
6, 179481, Note_on_c, 9, 44, 79
6, 179487, Note_on_c, 9, 44, 0
6, 179487, Note_on_c, 9, 35, 0
6, 179487, Note_on_c, 9, 59, 0
6, 179568, Note_on_c, 9, 40, 88
6, 179574, Note_on_c, 9, 40, 0
6, 179581, Note_on_c, 9, 59, 83
6, 179587, Note_on_c, 9, 59, 0
6, 179673, Note_on_c, 9, 59, 83
6, 179677, Note_on_c, 9, 35, 66
6, 179679, Note_on_c, 9, 59, 0
6, 179683, Note_on_c, 9, 35, 0
6, 179766, Note_on_c, 9, 40, 37
6, 179772, Note_on_c, 9, 40, 0
6, 179865, Note_on_c, 9, 44, 79
6, 179869, Note_on_c, 9, 59, 82
6, 179871, Note_on_c, 9, 44, 0
6, 179875, Note_on_c, 9, 59, 0
6, 179961, Note_on_c, 9, 59, 82
6, 179965, Note_on_c, 9, 35, 69
6, 179967, Note_on_c, 9, 59, 0
6, 179971, Note_on_c, 9, 35, 0
6, 180054, Note_on_c, 9, 59, 85
6, 180060, Note_on_c, 9, 59, 0
6, 180147, Note_on_c, 9, 40, 37
6, 180153, Note_on_c, 9, 40, 0
6, 180249, Note_on_c, 9, 44, 79
6, 180249, Note_on_c, 9, 59, 86
6, 180253, Note_on_c, 9, 35, 61
6, 180255, Note_on_c, 9, 59, 0
6, 180255, Note_on_c, 9, 44, 0
6, 180259, Note_on_c, 9, 35, 0
6, 180349, Note_on_c, 9, 59, 80
6, 180355, Note_on_c, 9, 59, 0
6, 180441, Note_on_c, 9, 59, 84
6, 180445, Note_on_c, 9, 35, 66
6, 180447, Note_on_c, 9, 59, 0
6, 180451, Note_on_c, 9, 35, 0
6, 180512, Note_on_c, 9, 40, 62
6, 180518, Note_on_c, 9, 40, 0
6, 180566, Note_on_c, 9, 40, 56
6, 180572, Note_on_c, 9, 40, 0
6, 180627, Note_on_c, 9, 44, 79
6, 180633, Note_on_c, 9, 44, 0
6, 180633, Note_on_c, 9, 59, 84
6, 180639, Note_on_c, 9, 59, 0
6, 180729, Note_on_c, 9, 59, 83
6, 180735, Note_on_c, 9, 59, 0
6, 180736, Note_on_c, 9, 35, 73
6, 180742, Note_on_c, 9, 35, 0
6, 180825, Note_on_c, 9, 59, 83
6, 180831, Note_on_c, 9, 59, 0
6, 180899, Note_on_c, 9, 40, 47
6, 180905, Note_on_c, 9, 40, 0
6, 181011, Note_on_c, 9, 44, 79
6, 181017, Note_on_c, 9, 44, 0
6, 181017, Note_on_c, 9, 59, 87
6, 181021, Note_on_c, 9, 35, 67
6, 181023, Note_on_c, 9, 59, 0
6, 181027, Note_on_c, 9, 35, 0
6, 181113, Note_on_c, 9, 59, 85
6, 181119, Note_on_c, 9, 59, 0
6, 181206, Note_on_c, 9, 59, 83
6, 181212, Note_on_c, 9, 59, 0
6, 181213, Note_on_c, 9, 35, 66
6, 181219, Note_on_c, 9, 35, 0
6, 181302, Note_on_c, 9, 40, 37
6, 181308, Note_on_c, 9, 40, 0
6, 181398, Note_on_c, 9, 44, 79
6, 181404, Note_on_c, 9, 44, 0
6, 181405, Note_on_c, 9, 59, 85
6, 181411, Note_on_c, 9, 59, 0
6, 181497, Note_on_c, 9, 35, 64
6, 181497, Note_on_c, 9, 59, 82
6, 181503, Note_on_c, 9, 59, 0
6, 181503, Note_on_c, 9, 35, 0
6, 181597, Note_on_c, 9, 59, 81
6, 181603, Note_on_c, 9, 59, 0
6, 181782, Note_on_c, 9, 44, 79
6, 181785, Note_on_c, 9, 35, 61
6, 181788, Note_on_c, 9, 44, 0
6, 181791, Note_on_c, 9, 35, 0
6, 181792, Note_on_c, 9, 59, 85
6, 181798, Note_on_c, 9, 59, 0
6, 181885, Note_on_c, 9, 59, 79
6, 181891, Note_on_c, 9, 59, 0
6, 181981, Note_on_c, 9, 35, 66
6, 181981, Note_on_c, 9, 59, 84
6, 181987, Note_on_c, 9, 59, 0
6, 181987, Note_on_c, 9, 35, 0
6, 182067, Note_on_c, 9, 40, 37
6, 182073, Note_on_c, 9, 40, 0
6, 182118, Note_on_c, 9, 40, 37
6, 182124, Note_on_c, 9, 40, 0
6, 182163, Note_on_c, 9, 44, 79
6, 182169, Note_on_c, 9, 44, 0
6, 182176, Note_on_c, 9, 59, 88
6, 182182, Note_on_c, 9, 59, 0
6, 182265, Note_on_c, 9, 35, 74
6, 182269, Note_on_c, 9, 59, 82
6, 182271, Note_on_c, 9, 35, 0
6, 182275, Note_on_c, 9, 59, 0
6, 182365, Note_on_c, 9, 59, 82
6, 182371, Note_on_c, 9, 59, 0
6, 182473, Note_on_c, 9, 40, 37
6, 182479, Note_on_c, 9, 40, 0
6, 182553, Note_on_c, 9, 44, 79
6, 182557, Note_on_c, 9, 35, 62
6, 182559, Note_on_c, 9, 44, 0
6, 182560, Note_on_c, 9, 59, 85
6, 182563, Note_on_c, 9, 35, 0
6, 182566, Note_on_c, 9, 59, 0
6, 182749, Note_on_c, 9, 35, 69
6, 182752, Note_on_c, 9, 59, 80
6, 182755, Note_on_c, 9, 35, 0
6, 182758, Note_on_c, 9, 59, 0
6, 182848, Note_on_c, 9, 40, 37
6, 182854, Note_on_c, 9, 40, 0
6, 182937, Note_on_c, 9, 44, 79
6, 182941, Note_on_c, 9, 59, 87
6, 182943, Note_on_c, 9, 44, 0
6, 182947, Note_on_c, 9, 59, 0
6, 183037, Note_on_c, 9, 59, 77
6, 183040, Note_on_c, 9, 35, 70
6, 183043, Note_on_c, 9, 59, 0
6, 183046, Note_on_c, 9, 35, 0
6, 183133, Note_on_c, 9, 59, 74
6, 183139, Note_on_c, 9, 59, 0
6, 183235, Note_on_c, 9, 40, 37
6, 183241, Note_on_c, 9, 40, 0
6, 183321, Note_on_c, 9, 44, 79
6, 183325, Note_on_c, 9, 35, 61
6, 183325, Note_on_c, 9, 59, 85
6, 183327, Note_on_c, 9, 44, 0
6, 183331, Note_on_c, 9, 59, 0
6, 183331, Note_on_c, 9, 35, 0
6, 183424, Note_on_c, 9, 59, 80
6, 183430, Note_on_c, 9, 59, 0
6, 183517, Note_on_c, 9, 35, 68
6, 183517, Note_on_c, 9, 59, 76
6, 183523, Note_on_c, 9, 59, 0
6, 183523, Note_on_c, 9, 35, 0
6, 183613, Note_on_c, 9, 40, 37
6, 183619, Note_on_c, 9, 40, 0
6, 183702, Note_on_c, 9, 44, 79
6, 183708, Note_on_c, 9, 44, 0
6, 183709, Note_on_c, 9, 59, 85
6, 183715, Note_on_c, 9, 59, 0
6, 183805, Note_on_c, 9, 35, 67
6, 183805, Note_on_c, 9, 59, 80
6, 183811, Note_on_c, 9, 59, 0
6, 183811, Note_on_c, 9, 35, 0
6, 183901, Note_on_c, 9, 59, 77
6, 183907, Note_on_c, 9, 59, 0
6, 184000, Note_on_c, 9, 40, 37
6, 184006, Note_on_c, 9, 40, 0
6, 184089, Note_on_c, 9, 35, 62
6, 184089, Note_on_c, 9, 44, 79
6, 184093, Note_on_c, 9, 59, 85
6, 184095, Note_on_c, 9, 44, 0
6, 184095, Note_on_c, 9, 35, 0
6, 184099, Note_on_c, 9, 59, 0
6, 184189, Note_on_c, 9, 59, 77
6, 184195, Note_on_c, 9, 59, 0
6, 184285, Note_on_c, 9, 35, 72
6, 184285, Note_on_c, 9, 59, 77
6, 184291, Note_on_c, 9, 59, 0
6, 184291, Note_on_c, 9, 35, 0
6, 184381, Note_on_c, 9, 40, 92
6, 184387, Note_on_c, 9, 40, 0
6, 184470, Note_on_c, 9, 44, 79
6, 184476, Note_on_c, 9, 44, 0
6, 184480, Note_on_c, 9, 59, 83
6, 184486, Note_on_c, 9, 59, 0
6, 184573, Note_on_c, 9, 59, 80
6, 184576, Note_on_c, 9, 35, 69
6, 184579, Note_on_c, 9, 59, 0
6, 184582, Note_on_c, 9, 35, 0
6, 184669, Note_on_c, 9, 59, 82
6, 184675, Note_on_c, 9, 59, 0
6, 184777, Note_on_c, 9, 40, 32
6, 184783, Note_on_c, 9, 40, 0
6, 184861, Note_on_c, 9, 35, 54
6, 184864, Note_on_c, 9, 44, 79
6, 184864, Note_on_c, 9, 59, 85
6, 184867, Note_on_c, 9, 35, 0
6, 184870, Note_on_c, 9, 59, 0
6, 184870, Note_on_c, 9, 44, 0
6, 184957, Note_on_c, 9, 59, 83
6, 184963, Note_on_c, 9, 59, 0
6, 185053, Note_on_c, 9, 35, 70
6, 185053, Note_on_c, 9, 59, 79
6, 185056, Note_on_c, 9, 40, 53
6, 185059, Note_on_c, 9, 59, 0
6, 185059, Note_on_c, 9, 35, 0
6, 185062, Note_on_c, 9, 40, 0
6, 185152, Note_on_c, 9, 40, 44
6, 185158, Note_on_c, 9, 40, 0
6, 185245, Note_on_c, 9, 44, 79
6, 185245, Note_on_c, 9, 59, 82
6, 185251, Note_on_c, 9, 59, 0
6, 185251, Note_on_c, 9, 44, 0
6, 185341, Note_on_c, 9, 40, 79
6, 185341, Note_on_c, 9, 59, 75
6, 185344, Note_on_c, 9, 35, 69
6, 185347, Note_on_c, 9, 59, 0
6, 185347, Note_on_c, 9, 40, 0
6, 185350, Note_on_c, 9, 35, 0
6, 185433, Note_on_c, 9, 59, 76
6, 185439, Note_on_c, 9, 59, 0
6, 185526, Note_on_c, 9, 40, 78
6, 185532, Note_on_c, 9, 40, 0
6, 185622, Note_on_c, 9, 44, 79
6, 185628, Note_on_c, 9, 44, 0
6, 185629, Note_on_c, 9, 59, 79
6, 185635, Note_on_c, 9, 59, 0
6, 185718, Note_on_c, 9, 42, 42
6, 185718, Note_on_c, 9, 55, 77
6, 185724, Note_on_c, 9, 55, 0
6, 185724, Note_on_c, 9, 42, 0
6, 185725, Note_on_c, 9, 35, 66
6, 185731, Note_on_c, 9, 35, 0
6, 185814, Note_on_c, 9, 59, 77
6, 185820, Note_on_c, 9, 59, 0
6, 185926, Note_on_c, 9, 44, 79
6, 185932, Note_on_c, 9, 44, 0
6, 186006, Note_on_c, 9, 59, 80
6, 186012, Note_on_c, 9, 59, 0
6, 186102, Note_on_c, 9, 35, 70
6, 186108, Note_on_c, 9, 35, 0
6, 186109, Note_on_c, 9, 51, 77
6, 186115, Note_on_c, 9, 51, 0
6, 186205, Note_on_c, 9, 53, 65
6, 186211, Note_on_c, 9, 53, 0
6, 186294, Note_on_c, 9, 40, 39
6, 186300, Note_on_c, 9, 40, 0
6, 186387, Note_on_c, 9, 44, 79
6, 186390, Note_on_c, 9, 35, 58
6, 186393, Note_on_c, 9, 44, 0
6, 186393, Note_on_c, 9, 59, 82
6, 186396, Note_on_c, 9, 35, 0
6, 186399, Note_on_c, 9, 59, 0
6, 186489, Note_on_c, 9, 59, 77
6, 186495, Note_on_c, 9, 59, 0
6, 186582, Note_on_c, 9, 35, 58
6, 186585, Note_on_c, 9, 59, 77
6, 186588, Note_on_c, 9, 35, 0
6, 186591, Note_on_c, 9, 59, 0
6, 186675, Note_on_c, 9, 40, 39
6, 186681, Note_on_c, 9, 40, 0
6, 186771, Note_on_c, 9, 44, 79
6, 186777, Note_on_c, 9, 44, 0
6, 186777, Note_on_c, 9, 59, 82
6, 186783, Note_on_c, 9, 59, 0
6, 186873, Note_on_c, 9, 35, 57
6, 186873, Note_on_c, 9, 59, 80
6, 186879, Note_on_c, 9, 59, 0
6, 186879, Note_on_c, 9, 35, 0
6, 186969, Note_on_c, 9, 59, 74
6, 186975, Note_on_c, 9, 59, 0
6, 187046, Note_on_c, 9, 40, 39
6, 187052, Note_on_c, 9, 40, 0
6, 187155, Note_on_c, 9, 44, 79
6, 187158, Note_on_c, 9, 35, 61
6, 187161, Note_on_c, 9, 44, 0
6, 187161, Note_on_c, 9, 59, 83
6, 187164, Note_on_c, 9, 35, 0
6, 187167, Note_on_c, 9, 59, 0
6, 187261, Note_on_c, 9, 51, 77
6, 187267, Note_on_c, 9, 51, 0
6, 187353, Note_on_c, 9, 35, 66
6, 187357, Note_on_c, 9, 59, 77
6, 187359, Note_on_c, 9, 35, 0
6, 187363, Note_on_c, 9, 59, 0
6, 187437, Note_on_c, 9, 40, 39
6, 187443, Note_on_c, 9, 40, 0
6, 187542, Note_on_c, 9, 44, 79
6, 187545, Note_on_c, 9, 59, 85
6, 187548, Note_on_c, 9, 44, 0
6, 187551, Note_on_c, 9, 59, 0
6, 187638, Note_on_c, 9, 35, 61
6, 187641, Note_on_c, 9, 59, 82
6, 187644, Note_on_c, 9, 35, 0
6, 187647, Note_on_c, 9, 59, 0
6, 187737, Note_on_c, 9, 59, 77
6, 187743, Note_on_c, 9, 59, 0
6, 187827, Note_on_c, 9, 40, 39
6, 187833, Note_on_c, 9, 40, 0
6, 187926, Note_on_c, 9, 35, 58
6, 187926, Note_on_c, 9, 44, 79
6, 187929, Note_on_c, 9, 59, 84
6, 187932, Note_on_c, 9, 44, 0
6, 187932, Note_on_c, 9, 35, 0
6, 187935, Note_on_c, 9, 59, 0
6, 188025, Note_on_c, 9, 59, 81
6, 188031, Note_on_c, 9, 59, 0
6, 188118, Note_on_c, 9, 35, 68
6, 188121, Note_on_c, 9, 59, 78
6, 188124, Note_on_c, 9, 35, 0
6, 188127, Note_on_c, 9, 59, 0
6, 188221, Note_on_c, 9, 40, 39
6, 188227, Note_on_c, 9, 40, 0
6, 188310, Note_on_c, 9, 44, 79
6, 188316, Note_on_c, 9, 44, 0
6, 188317, Note_on_c, 9, 59, 84
6, 188323, Note_on_c, 9, 59, 0
6, 188409, Note_on_c, 9, 35, 64
6, 188409, Note_on_c, 9, 59, 80
6, 188415, Note_on_c, 9, 59, 0
6, 188415, Note_on_c, 9, 35, 0
6, 188505, Note_on_c, 9, 59, 83
6, 188511, Note_on_c, 9, 59, 0
6, 188605, Note_on_c, 9, 40, 39
6, 188611, Note_on_c, 9, 40, 0
6, 188697, Note_on_c, 9, 35, 58
6, 188697, Note_on_c, 9, 44, 79
6, 188701, Note_on_c, 9, 59, 85
6, 188703, Note_on_c, 9, 44, 0
6, 188703, Note_on_c, 9, 35, 0
6, 188707, Note_on_c, 9, 59, 0
6, 188797, Note_on_c, 9, 59, 77
6, 188803, Note_on_c, 9, 59, 0
6, 188889, Note_on_c, 9, 35, 66
6, 188893, Note_on_c, 9, 59, 80
6, 188895, Note_on_c, 9, 35, 0
6, 188899, Note_on_c, 9, 59, 0
6, 188989, Note_on_c, 9, 40, 39
6, 188995, Note_on_c, 9, 40, 0
6, 189078, Note_on_c, 9, 44, 79
6, 189084, Note_on_c, 9, 44, 0
6, 189088, Note_on_c, 9, 59, 85
6, 189094, Note_on_c, 9, 59, 0
6, 189181, Note_on_c, 9, 35, 66
6, 189181, Note_on_c, 9, 51, 81
6, 189187, Note_on_c, 9, 51, 0
6, 189187, Note_on_c, 9, 35, 0
6, 189277, Note_on_c, 9, 53, 68
6, 189283, Note_on_c, 9, 53, 0
6, 189360, Note_on_c, 9, 40, 39
6, 189366, Note_on_c, 9, 40, 0
6, 189465, Note_on_c, 9, 35, 62
6, 189465, Note_on_c, 9, 44, 79
6, 189469, Note_on_c, 9, 59, 85
6, 189471, Note_on_c, 9, 44, 0
6, 189471, Note_on_c, 9, 35, 0
6, 189475, Note_on_c, 9, 59, 0
6, 189565, Note_on_c, 9, 59, 80
6, 189571, Note_on_c, 9, 59, 0
6, 189661, Note_on_c, 9, 35, 58
6, 189661, Note_on_c, 9, 59, 77
6, 189667, Note_on_c, 9, 59, 0
6, 189667, Note_on_c, 9, 35, 0
6, 189763, Note_on_c, 9, 40, 43
6, 189769, Note_on_c, 9, 40, 0
6, 189849, Note_on_c, 9, 44, 79
6, 189855, Note_on_c, 9, 44, 0
6, 189856, Note_on_c, 9, 59, 88
6, 189862, Note_on_c, 9, 59, 0
6, 189949, Note_on_c, 9, 59, 80
6, 189952, Note_on_c, 9, 35, 63
6, 189955, Note_on_c, 9, 59, 0
6, 189958, Note_on_c, 9, 35, 0
6, 190048, Note_on_c, 9, 59, 79
6, 190054, Note_on_c, 9, 59, 0
6, 190147, Note_on_c, 9, 40, 39
6, 190153, Note_on_c, 9, 40, 0
6, 190237, Note_on_c, 9, 35, 61
6, 190237, Note_on_c, 9, 44, 79
6, 190243, Note_on_c, 9, 44, 0
6, 190243, Note_on_c, 9, 35, 0
6, 190243, Note_on_c, 9, 59, 85
6, 190249, Note_on_c, 9, 59, 0
6, 190333, Note_on_c, 9, 51, 83
6, 190339, Note_on_c, 9, 51, 0
6, 190429, Note_on_c, 9, 59, 83
6, 190432, Note_on_c, 9, 35, 68
6, 190435, Note_on_c, 9, 59, 0
6, 190438, Note_on_c, 9, 35, 0
6, 190544, Note_on_c, 9, 40, 39
6, 190550, Note_on_c, 9, 40, 0
6, 190621, Note_on_c, 9, 44, 79
6, 190624, Note_on_c, 9, 59, 84
6, 190627, Note_on_c, 9, 44, 0
6, 190630, Note_on_c, 9, 59, 0
6, 190717, Note_on_c, 9, 59, 81
6, 190720, Note_on_c, 9, 35, 64
6, 190723, Note_on_c, 9, 59, 0
6, 190726, Note_on_c, 9, 35, 0
6, 190816, Note_on_c, 9, 59, 82
6, 190822, Note_on_c, 9, 59, 0
6, 190928, Note_on_c, 9, 40, 32
6, 190934, Note_on_c, 9, 40, 0
6, 191005, Note_on_c, 9, 35, 61
6, 191005, Note_on_c, 9, 44, 79
6, 191008, Note_on_c, 9, 59, 86
6, 191011, Note_on_c, 9, 44, 0
6, 191011, Note_on_c, 9, 35, 0
6, 191014, Note_on_c, 9, 59, 0
6, 191104, Note_on_c, 9, 59, 82
6, 191110, Note_on_c, 9, 59, 0
6, 191197, Note_on_c, 9, 35, 69
6, 191200, Note_on_c, 9, 59, 83
6, 191203, Note_on_c, 9, 35, 0
6, 191206, Note_on_c, 9, 59, 0
6, 191296, Note_on_c, 9, 40, 47
6, 191302, Note_on_c, 9, 40, 0
6, 191347, Note_on_c, 9, 40, 45
6, 191353, Note_on_c, 9, 40, 0
6, 191385, Note_on_c, 9, 44, 79
6, 191391, Note_on_c, 9, 44, 0
6, 191392, Note_on_c, 9, 59, 85
6, 191398, Note_on_c, 9, 59, 0
6, 191488, Note_on_c, 9, 35, 78
6, 191491, Note_on_c, 9, 59, 77
6, 191494, Note_on_c, 9, 35, 0
6, 191497, Note_on_c, 9, 59, 0
6, 191584, Note_on_c, 9, 59, 80
6, 191590, Note_on_c, 9, 59, 0
6, 191699, Note_on_c, 9, 40, 70
6, 191705, Note_on_c, 9, 40, 0
6, 191773, Note_on_c, 9, 44, 79
6, 191776, Note_on_c, 9, 35, 69
6, 191779, Note_on_c, 9, 44, 0
6, 191779, Note_on_c, 9, 59, 83
6, 191782, Note_on_c, 9, 35, 0
6, 191785, Note_on_c, 9, 59, 0
6, 191869, Note_on_c, 9, 43, 57
6, 191875, Note_on_c, 9, 43, 0
6, 191875, Note_on_c, 9, 59, 79
6, 191881, Note_on_c, 9, 59, 0
6, 191965, Note_on_c, 9, 35, 68
6, 191971, Note_on_c, 9, 35, 0
6, 191971, Note_on_c, 9, 59, 80
6, 191977, Note_on_c, 9, 59, 0
6, 192061, Note_on_c, 9, 43, 73
6, 192067, Note_on_c, 9, 43, 0
6, 192153, Note_on_c, 9, 44, 79
6, 192157, Note_on_c, 9, 43, 92
6, 192159, Note_on_c, 9, 44, 0
6, 192160, Note_on_c, 9, 59, 85
6, 192163, Note_on_c, 9, 43, 0
6, 192166, Note_on_c, 9, 59, 0
6, 192253, Note_on_c, 9, 35, 79
6, 192259, Note_on_c, 9, 35, 0
6, 192259, Note_on_c, 9, 59, 83
6, 192265, Note_on_c, 9, 59, 0
6, 192355, Note_on_c, 9, 59, 83
6, 192361, Note_on_c, 9, 59, 0
6, 192457, Note_on_c, 9, 40, 33
6, 192463, Note_on_c, 9, 40, 0
6, 192537, Note_on_c, 9, 44, 79
6, 192543, Note_on_c, 9, 44, 0
6, 192544, Note_on_c, 9, 35, 61
6, 192544, Note_on_c, 9, 59, 85
6, 192550, Note_on_c, 9, 59, 0
6, 192550, Note_on_c, 9, 35, 0
6, 192637, Note_on_c, 9, 59, 81
6, 192643, Note_on_c, 9, 59, 0
6, 192729, Note_on_c, 9, 59, 83
6, 192733, Note_on_c, 9, 35, 68
6, 192735, Note_on_c, 9, 59, 0
6, 192739, Note_on_c, 9, 35, 0
6, 192918, Note_on_c, 9, 44, 79
6, 192924, Note_on_c, 9, 44, 0
6, 192925, Note_on_c, 9, 59, 81
6, 192931, Note_on_c, 9, 59, 0
6, 193021, Note_on_c, 9, 35, 64
6, 193021, Note_on_c, 9, 59, 75
6, 193027, Note_on_c, 9, 59, 0
6, 193027, Note_on_c, 9, 35, 0
6, 193117, Note_on_c, 9, 59, 77
6, 193123, Note_on_c, 9, 59, 0
6, 193305, Note_on_c, 9, 44, 79
6, 193309, Note_on_c, 9, 35, 61
6, 193309, Note_on_c, 9, 59, 84
6, 193311, Note_on_c, 9, 44, 0
6, 193315, Note_on_c, 9, 59, 0
6, 193315, Note_on_c, 9, 35, 0
6, 193405, Note_on_c, 9, 59, 82
6, 193411, Note_on_c, 9, 59, 0
6, 193501, Note_on_c, 9, 35, 68
6, 193501, Note_on_c, 9, 59, 80
6, 193507, Note_on_c, 9, 59, 0
6, 193507, Note_on_c, 9, 35, 0
6, 193597, Note_on_c, 9, 40, 32
6, 193603, Note_on_c, 9, 40, 0
6, 193689, Note_on_c, 9, 44, 79
6, 193693, Note_on_c, 9, 59, 85
6, 193695, Note_on_c, 9, 44, 0
6, 193699, Note_on_c, 9, 59, 0
6, 193785, Note_on_c, 9, 35, 69
6, 193785, Note_on_c, 9, 59, 80
6, 193791, Note_on_c, 9, 59, 0
6, 193791, Note_on_c, 9, 35, 0
6, 193881, Note_on_c, 9, 59, 82
6, 193887, Note_on_c, 9, 59, 0
6, 193891, Note_on_c, 9, 40, 84
6, 193897, Note_on_c, 9, 40, 0
6, 194077, Note_on_c, 9, 35, 61
6, 194077, Note_on_c, 9, 44, 79
6, 194080, Note_on_c, 9, 59, 85
6, 194083, Note_on_c, 9, 44, 0
6, 194083, Note_on_c, 9, 35, 0
6, 194086, Note_on_c, 9, 59, 0
6, 194176, Note_on_c, 9, 59, 80
6, 194182, Note_on_c, 9, 59, 0
6, 194265, Note_on_c, 9, 59, 82
6, 194269, Note_on_c, 9, 35, 75
6, 194271, Note_on_c, 9, 59, 0
6, 194275, Note_on_c, 9, 35, 0
6, 194361, Note_on_c, 9, 40, 90
6, 194367, Note_on_c, 9, 40, 0
6, 194454, Note_on_c, 9, 44, 79
6, 194460, Note_on_c, 9, 44, 0
6, 194464, Note_on_c, 9, 59, 85
6, 194470, Note_on_c, 9, 59, 0
6, 194557, Note_on_c, 9, 59, 80
6, 194560, Note_on_c, 9, 35, 72
6, 194563, Note_on_c, 9, 59, 0
6, 194566, Note_on_c, 9, 35, 0
6, 194656, Note_on_c, 9, 59, 83
6, 194662, Note_on_c, 9, 59, 0
6, 194841, Note_on_c, 9, 44, 79
6, 194845, Note_on_c, 9, 35, 61
6, 194847, Note_on_c, 9, 44, 0
6, 194848, Note_on_c, 9, 59, 85
6, 194851, Note_on_c, 9, 35, 0
6, 194854, Note_on_c, 9, 59, 0
6, 194925, Note_on_c, 9, 40, 98
6, 194931, Note_on_c, 9, 40, 0
6, 194944, Note_on_c, 9, 59, 83
6, 194950, Note_on_c, 9, 59, 0
6, 195037, Note_on_c, 9, 35, 66
6, 195040, Note_on_c, 9, 59, 75
6, 195043, Note_on_c, 9, 35, 0
6, 195046, Note_on_c, 9, 59, 0
6, 195225, Note_on_c, 9, 44, 79
6, 195231, Note_on_c, 9, 44, 0
6, 195232, Note_on_c, 9, 59, 85
6, 195238, Note_on_c, 9, 59, 0
6, 195328, Note_on_c, 9, 35, 68
6, 195328, Note_on_c, 9, 59, 84
6, 195334, Note_on_c, 9, 59, 0
6, 195334, Note_on_c, 9, 35, 0
6, 195424, Note_on_c, 9, 59, 84
6, 195430, Note_on_c, 9, 59, 0
6, 195616, Note_on_c, 9, 59, 83
6, 195616, Note_on_c, 9, 35, 64
6, 195616, Note_on_c, 9, 44, 79
6, 195622, Note_on_c, 9, 44, 0
6, 195622, Note_on_c, 9, 35, 0
6, 195622, Note_on_c, 9, 59, 0
6, 195712, Note_on_c, 9, 59, 79
6, 195718, Note_on_c, 9, 59, 0
6, 195805, Note_on_c, 9, 59, 77
6, 195808, Note_on_c, 9, 35, 68
6, 195811, Note_on_c, 9, 59, 0
6, 195814, Note_on_c, 9, 35, 0
6, 195917, Note_on_c, 9, 40, 32
6, 195923, Note_on_c, 9, 40, 0
6, 195997, Note_on_c, 9, 44, 79
6, 196003, Note_on_c, 9, 44, 0
6, 196003, Note_on_c, 9, 59, 80
6, 196009, Note_on_c, 9, 59, 0
6, 196096, Note_on_c, 9, 35, 68
6, 196096, Note_on_c, 9, 59, 74
6, 196102, Note_on_c, 9, 59, 0
6, 196102, Note_on_c, 9, 35, 0
6, 196192, Note_on_c, 9, 59, 77
6, 196198, Note_on_c, 9, 59, 0
6, 196297, Note_on_c, 9, 40, 32
6, 196303, Note_on_c, 9, 40, 0
6, 196384, Note_on_c, 9, 59, 85
6, 196384, Note_on_c, 9, 35, 58
6, 196384, Note_on_c, 9, 44, 79
6, 196390, Note_on_c, 9, 44, 0
6, 196390, Note_on_c, 9, 35, 0
6, 196390, Note_on_c, 9, 59, 0
6, 196480, Note_on_c, 9, 59, 80
6, 196486, Note_on_c, 9, 59, 0
6, 196573, Note_on_c, 9, 35, 75
6, 196576, Note_on_c, 9, 59, 80
6, 196579, Note_on_c, 9, 35, 0
6, 196582, Note_on_c, 9, 59, 0
6, 196669, Note_on_c, 9, 48, 40
6, 196675, Note_on_c, 9, 48, 0
6, 196765, Note_on_c, 9, 44, 79
6, 196765, Note_on_c, 9, 48, 49
6, 196765, Note_on_c, 9, 59, 83
6, 196771, Note_on_c, 9, 59, 0
6, 196771, Note_on_c, 9, 48, 0
6, 196771, Note_on_c, 9, 44, 0
6, 196861, Note_on_c, 9, 35, 69
6, 196864, Note_on_c, 9, 59, 74
6, 196867, Note_on_c, 9, 35, 0
6, 196870, Note_on_c, 9, 59, 0
6, 196953, Note_on_c, 9, 48, 60
6, 196957, Note_on_c, 9, 59, 79
6, 196959, Note_on_c, 9, 48, 0
6, 196963, Note_on_c, 9, 59, 0
6, 197142, Note_on_c, 9, 35, 61
6, 197145, Note_on_c, 9, 59, 85
6, 197145, Note_on_c, 9, 44, 79
6, 197145, Note_on_c, 9, 48, 75
6, 197148, Note_on_c, 9, 35, 0
6, 197151, Note_on_c, 9, 59, 0
6, 197151, Note_on_c, 9, 44, 0
6, 197151, Note_on_c, 9, 48, 0
6, 197337, Note_on_c, 9, 59, 91
6, 197337, Note_on_c, 9, 35, 80
6, 197337, Note_on_c, 9, 48, 88
6, 197343, Note_on_c, 9, 48, 0
6, 197343, Note_on_c, 9, 35, 0
6, 197343, Note_on_c, 9, 59, 0
6, 197526, Note_on_c, 9, 59, 79
6, 197529, Note_on_c, 9, 44, 79
6, 197532, Note_on_c, 9, 59, 0
6, 197535, Note_on_c, 9, 44, 0
6, 197619, Note_on_c, 9, 59, 82
6, 197625, Note_on_c, 9, 59, 0
6, 197625, Note_on_c, 9, 35, 73
6, 197631, Note_on_c, 9, 35, 0
6, 197715, Note_on_c, 9, 59, 83
6, 197718, Note_on_c, 9, 40, 99
6, 197721, Note_on_c, 9, 59, 0
6, 197724, Note_on_c, 9, 40, 0
6, 197907, Note_on_c, 9, 44, 79
6, 197913, Note_on_c, 9, 44, 0
6, 197913, Note_on_c, 9, 59, 83
6, 197919, Note_on_c, 9, 59, 0
6, 198006, Note_on_c, 9, 59, 83
6, 198006, Note_on_c, 9, 35, 93
6, 198006, Note_on_c, 9, 55, 89
6, 198012, Note_on_c, 9, 55, 0
6, 198012, Note_on_c, 9, 35, 0
6, 198012, Note_on_c, 9, 59, 0
6, 198102, Note_on_c, 9, 59, 77
6, 198108, Note_on_c, 9, 59, 0
6, 198288, Note_on_c, 9, 44, 79
6, 198294, Note_on_c, 9, 44, 0
6, 198297, Note_on_c, 9, 59, 85
6, 198303, Note_on_c, 9, 59, 0
6, 198397, Note_on_c, 9, 35, 69
6, 198397, Note_on_c, 9, 51, 82
6, 198403, Note_on_c, 9, 51, 0
6, 198403, Note_on_c, 9, 35, 0
6, 198493, Note_on_c, 9, 53, 68
6, 198499, Note_on_c, 9, 53, 0
6, 198582, Note_on_c, 9, 40, 35
6, 198588, Note_on_c, 9, 40, 0
6, 198678, Note_on_c, 9, 44, 79
6, 198684, Note_on_c, 9, 44, 0
6, 198685, Note_on_c, 9, 35, 54
6, 198685, Note_on_c, 9, 59, 87
6, 198691, Note_on_c, 9, 59, 0
6, 198691, Note_on_c, 9, 35, 0
6, 198777, Note_on_c, 9, 59, 82
6, 198783, Note_on_c, 9, 59, 0
6, 198873, Note_on_c, 9, 59, 83
6, 198877, Note_on_c, 9, 35, 64
6, 198879, Note_on_c, 9, 59, 0
6, 198883, Note_on_c, 9, 35, 0
6, 198979, Note_on_c, 9, 40, 35
6, 198985, Note_on_c, 9, 40, 0
6, 199065, Note_on_c, 9, 44, 79
6, 199069, Note_on_c, 9, 59, 85
6, 199071, Note_on_c, 9, 44, 0
6, 199075, Note_on_c, 9, 59, 0
6, 199165, Note_on_c, 9, 35, 64
6, 199165, Note_on_c, 9, 59, 80
6, 199171, Note_on_c, 9, 59, 0
6, 199171, Note_on_c, 9, 35, 0
6, 199261, Note_on_c, 9, 59, 82
6, 199267, Note_on_c, 9, 59, 0
6, 199449, Note_on_c, 9, 35, 61
6, 199449, Note_on_c, 9, 44, 79
6, 199453, Note_on_c, 9, 59, 81
6, 199455, Note_on_c, 9, 44, 0
6, 199455, Note_on_c, 9, 35, 0
6, 199459, Note_on_c, 9, 59, 0
6, 199549, Note_on_c, 9, 51, 73
6, 199555, Note_on_c, 9, 51, 0
6, 199641, Note_on_c, 9, 35, 67
6, 199645, Note_on_c, 9, 59, 79
6, 199647, Note_on_c, 9, 35, 0
6, 199651, Note_on_c, 9, 59, 0
6, 199747, Note_on_c, 9, 40, 35
6, 199753, Note_on_c, 9, 40, 0
6, 199830, Note_on_c, 9, 44, 79
6, 199836, Note_on_c, 9, 44, 0
6, 199837, Note_on_c, 9, 59, 85
6, 199843, Note_on_c, 9, 59, 0
6, 199933, Note_on_c, 9, 35, 68
6, 199933, Note_on_c, 9, 59, 77
6, 199939, Note_on_c, 9, 59, 0
6, 199939, Note_on_c, 9, 35, 0
6, 200029, Note_on_c, 9, 59, 75
6, 200035, Note_on_c, 9, 59, 0
6, 200115, Note_on_c, 9, 40, 35
6, 200121, Note_on_c, 9, 40, 0
6, 200217, Note_on_c, 9, 44, 79
6, 200221, Note_on_c, 9, 35, 61
6, 200221, Note_on_c, 9, 59, 82
6, 200223, Note_on_c, 9, 44, 0
6, 200227, Note_on_c, 9, 59, 0
6, 200227, Note_on_c, 9, 35, 0
6, 200313, Note_on_c, 9, 59, 80
6, 200319, Note_on_c, 9, 59, 0
6, 200409, Note_on_c, 9, 59, 77
6, 200413, Note_on_c, 9, 35, 66
6, 200415, Note_on_c, 9, 59, 0
6, 200419, Note_on_c, 9, 35, 0
6, 200502, Note_on_c, 9, 40, 35
6, 200508, Note_on_c, 9, 40, 0
6, 200601, Note_on_c, 9, 44, 79
6, 200605, Note_on_c, 9, 59, 85
6, 200607, Note_on_c, 9, 44, 0
6, 200611, Note_on_c, 9, 59, 0
6, 200694, Note_on_c, 9, 59, 82
6, 200697, Note_on_c, 9, 35, 61
6, 200700, Note_on_c, 9, 59, 0
6, 200703, Note_on_c, 9, 35, 0
6, 200793, Note_on_c, 9, 59, 79
6, 200799, Note_on_c, 9, 59, 0
6, 200985, Note_on_c, 9, 44, 79
6, 200989, Note_on_c, 9, 35, 63
6, 200991, Note_on_c, 9, 44, 0
6, 200992, Note_on_c, 9, 59, 85
6, 200995, Note_on_c, 9, 35, 0
6, 200998, Note_on_c, 9, 59, 0
6, 201085, Note_on_c, 9, 59, 83
6, 201091, Note_on_c, 9, 59, 0
6, 201181, Note_on_c, 9, 35, 64
6, 201181, Note_on_c, 9, 59, 82
6, 201187, Note_on_c, 9, 59, 0
6, 201187, Note_on_c, 9, 35, 0
6, 201299, Note_on_c, 9, 40, 35
6, 201305, Note_on_c, 9, 40, 0
6, 201369, Note_on_c, 9, 44, 79
6, 201375, Note_on_c, 9, 44, 0
6, 201376, Note_on_c, 9, 59, 85
6, 201382, Note_on_c, 9, 59, 0
6, 201469, Note_on_c, 9, 59, 80
6, 201472, Note_on_c, 9, 35, 62
6, 201475, Note_on_c, 9, 59, 0
6, 201478, Note_on_c, 9, 35, 0
6, 201568, Note_on_c, 9, 59, 80
6, 201574, Note_on_c, 9, 59, 0
6, 201757, Note_on_c, 9, 35, 58
6, 201757, Note_on_c, 9, 44, 79
6, 201763, Note_on_c, 9, 44, 0
6, 201763, Note_on_c, 9, 35, 0
6, 201763, Note_on_c, 9, 59, 87
6, 201769, Note_on_c, 9, 59, 0
6, 201856, Note_on_c, 9, 59, 83
6, 201862, Note_on_c, 9, 59, 0
6, 201952, Note_on_c, 9, 35, 62
6, 201955, Note_on_c, 9, 59, 85
6, 201958, Note_on_c, 9, 35, 0
6, 201961, Note_on_c, 9, 59, 0
6, 202070, Note_on_c, 9, 40, 35
6, 202076, Note_on_c, 9, 40, 0
6, 202141, Note_on_c, 9, 44, 79
6, 202147, Note_on_c, 9, 44, 0
6, 202147, Note_on_c, 9, 59, 89
6, 202153, Note_on_c, 9, 59, 0
6, 202240, Note_on_c, 9, 59, 84
6, 202243, Note_on_c, 9, 35, 61
6, 202246, Note_on_c, 9, 59, 0
6, 202249, Note_on_c, 9, 35, 0
6, 202339, Note_on_c, 9, 59, 84
6, 202345, Note_on_c, 9, 59, 0
6, 202457, Note_on_c, 9, 40, 35
6, 202463, Note_on_c, 9, 40, 0
6, 202525, Note_on_c, 9, 35, 57
6, 202525, Note_on_c, 9, 44, 79
6, 202531, Note_on_c, 9, 44, 0
6, 202531, Note_on_c, 9, 35, 0
6, 202531, Note_on_c, 9, 59, 90
6, 202537, Note_on_c, 9, 59, 0
6, 202624, Note_on_c, 9, 59, 85
6, 202630, Note_on_c, 9, 59, 0
6, 202717, Note_on_c, 9, 35, 63
6, 202720, Note_on_c, 9, 59, 86
6, 202723, Note_on_c, 9, 35, 0
6, 202726, Note_on_c, 9, 59, 0
6, 202835, Note_on_c, 9, 40, 35
6, 202841, Note_on_c, 9, 40, 0
6, 202909, Note_on_c, 9, 44, 79
6, 202912, Note_on_c, 9, 59, 89
6, 202915, Note_on_c, 9, 44, 0
6, 202918, Note_on_c, 9, 59, 0
6, 203005, Note_on_c, 9, 59, 84
6, 203008, Note_on_c, 9, 35, 64
6, 203011, Note_on_c, 9, 59, 0
6, 203014, Note_on_c, 9, 35, 0
6, 203104, Note_on_c, 9, 59, 83
6, 203110, Note_on_c, 9, 59, 0
6, 203216, Note_on_c, 9, 40, 32
6, 203222, Note_on_c, 9, 40, 0
6, 203293, Note_on_c, 9, 35, 58
6, 203296, Note_on_c, 9, 44, 79
6, 203296, Note_on_c, 9, 59, 86
6, 203299, Note_on_c, 9, 35, 0
6, 203302, Note_on_c, 9, 59, 0
6, 203302, Note_on_c, 9, 44, 0
6, 203392, Note_on_c, 9, 59, 79
6, 203398, Note_on_c, 9, 59, 0
6, 203485, Note_on_c, 9, 35, 72
6, 203488, Note_on_c, 9, 59, 83
6, 203491, Note_on_c, 9, 35, 0
6, 203494, Note_on_c, 9, 59, 0
6, 203587, Note_on_c, 9, 40, 53
6, 203593, Note_on_c, 9, 40, 0
6, 203638, Note_on_c, 9, 40, 42
6, 203644, Note_on_c, 9, 40, 0
6, 203677, Note_on_c, 9, 44, 79
6, 203683, Note_on_c, 9, 44, 0
6, 203683, Note_on_c, 9, 59, 88
6, 203689, Note_on_c, 9, 59, 0
6, 203776, Note_on_c, 9, 35, 74
6, 203776, Note_on_c, 9, 59, 86
6, 203782, Note_on_c, 9, 59, 0
6, 203782, Note_on_c, 9, 35, 0
6, 203872, Note_on_c, 9, 59, 85
6, 203878, Note_on_c, 9, 59, 0
6, 203997, Note_on_c, 9, 40, 36
6, 204003, Note_on_c, 9, 40, 0
6, 204061, Note_on_c, 9, 44, 79
6, 204064, Note_on_c, 9, 35, 55
6, 204067, Note_on_c, 9, 44, 0
6, 204067, Note_on_c, 9, 59, 89
6, 204070, Note_on_c, 9, 35, 0
6, 204073, Note_on_c, 9, 59, 0
6, 204160, Note_on_c, 9, 59, 85
6, 204166, Note_on_c, 9, 59, 0
6, 204169, Note_on_c, 9, 40, 98
6, 204175, Note_on_c, 9, 40, 0
6, 204259, Note_on_c, 9, 35, 63
6, 204259, Note_on_c, 9, 59, 93
6, 204265, Note_on_c, 9, 59, 0
6, 204265, Note_on_c, 9, 35, 0
6, 204438, Note_on_c, 9, 44, 79
6, 204444, Note_on_c, 9, 44, 0
6, 204451, Note_on_c, 9, 59, 85
6, 204457, Note_on_c, 9, 59, 0
6, 204541, Note_on_c, 9, 51, 83
6, 204544, Note_on_c, 9, 35, 69
6, 204547, Note_on_c, 9, 51, 0
6, 204550, Note_on_c, 9, 35, 0
6, 204637, Note_on_c, 9, 53, 72
6, 204643, Note_on_c, 9, 53, 0
6, 204822, Note_on_c, 9, 44, 79
6, 204825, Note_on_c, 9, 35, 58
6, 204828, Note_on_c, 9, 44, 0
6, 204831, Note_on_c, 9, 35, 0
6, 204832, Note_on_c, 9, 59, 88
6, 204838, Note_on_c, 9, 59, 0
6, 204925, Note_on_c, 9, 59, 83
6, 204931, Note_on_c, 9, 59, 0
6, 205014, Note_on_c, 9, 35, 67
6, 205020, Note_on_c, 9, 35, 0
6, 205021, Note_on_c, 9, 59, 85
6, 205027, Note_on_c, 9, 59, 0
6, 205203, Note_on_c, 9, 44, 79
6, 205209, Note_on_c, 9, 44, 0
6, 205213, Note_on_c, 9, 59, 88
6, 205219, Note_on_c, 9, 59, 0
6, 205305, Note_on_c, 9, 35, 74
6, 205305, Note_on_c, 9, 59, 83
6, 205311, Note_on_c, 9, 59, 0
6, 205311, Note_on_c, 9, 35, 0
6, 205401, Note_on_c, 9, 59, 83
6, 205407, Note_on_c, 9, 59, 0
6, 205590, Note_on_c, 9, 44, 79
6, 205593, Note_on_c, 9, 35, 54
6, 205596, Note_on_c, 9, 44, 0
6, 205597, Note_on_c, 9, 59, 88
6, 205599, Note_on_c, 9, 35, 0
6, 205603, Note_on_c, 9, 59, 0
6, 205693, Note_on_c, 9, 51, 80
6, 205699, Note_on_c, 9, 51, 0
6, 205785, Note_on_c, 9, 35, 64
6, 205785, Note_on_c, 9, 59, 85
6, 205791, Note_on_c, 9, 59, 0
6, 205791, Note_on_c, 9, 35, 0
6, 205974, Note_on_c, 9, 44, 79
6, 205980, Note_on_c, 9, 44, 0
6, 205981, Note_on_c, 9, 59, 86
6, 205987, Note_on_c, 9, 59, 0
6, 206073, Note_on_c, 9, 59, 80
6, 206077, Note_on_c, 9, 35, 68
6, 206079, Note_on_c, 9, 59, 0
6, 206083, Note_on_c, 9, 35, 0
6, 206173, Note_on_c, 9, 59, 83
6, 206179, Note_on_c, 9, 59, 0
6, 206361, Note_on_c, 9, 35, 57
6, 206367, Note_on_c, 9, 35, 0
6, 206368, Note_on_c, 9, 44, 79
6, 206368, Note_on_c, 9, 59, 88
6, 206374, Note_on_c, 9, 59, 0
6, 206374, Note_on_c, 9, 44, 0
6, 206461, Note_on_c, 9, 59, 85
6, 206467, Note_on_c, 9, 59, 0
6, 206557, Note_on_c, 9, 59, 85
6, 206560, Note_on_c, 9, 35, 61
6, 206563, Note_on_c, 9, 59, 0
6, 206566, Note_on_c, 9, 35, 0
6, 206643, Note_on_c, 9, 40, 111
6, 206649, Note_on_c, 9, 40, 0
6, 206749, Note_on_c, 9, 44, 79
6, 206749, Note_on_c, 9, 59, 90
6, 206755, Note_on_c, 9, 59, 0
6, 206755, Note_on_c, 9, 44, 0
6, 206841, Note_on_c, 9, 59, 85
6, 206845, Note_on_c, 9, 35, 69
6, 206847, Note_on_c, 9, 59, 0
6, 206851, Note_on_c, 9, 35, 0
6, 206941, Note_on_c, 9, 59, 82
6, 206947, Note_on_c, 9, 59, 0
6, 207030, Note_on_c, 9, 40, 51
6, 207036, Note_on_c, 9, 40, 0
6, 207126, Note_on_c, 9, 35, 57
6, 207132, Note_on_c, 9, 35, 0
6, 207133, Note_on_c, 9, 59, 89
6, 207136, Note_on_c, 9, 44, 79
6, 207139, Note_on_c, 9, 59, 0
6, 207142, Note_on_c, 9, 44, 0
6, 207213, Note_on_c, 9, 40, 103
6, 207219, Note_on_c, 9, 40, 0
6, 207229, Note_on_c, 9, 59, 84
6, 207235, Note_on_c, 9, 59, 0
6, 207318, Note_on_c, 9, 35, 69
6, 207324, Note_on_c, 9, 35, 0
6, 207328, Note_on_c, 9, 59, 85
6, 207334, Note_on_c, 9, 59, 0
6, 207430, Note_on_c, 9, 40, 32
6, 207436, Note_on_c, 9, 40, 0
6, 207510, Note_on_c, 9, 44, 79
6, 207516, Note_on_c, 9, 44, 0
6, 207520, Note_on_c, 9, 59, 91
6, 207526, Note_on_c, 9, 59, 0
6, 207613, Note_on_c, 9, 35, 68
6, 207616, Note_on_c, 9, 59, 77
6, 207619, Note_on_c, 9, 35, 0
6, 207622, Note_on_c, 9, 59, 0
6, 207709, Note_on_c, 9, 59, 86
6, 207715, Note_on_c, 9, 59, 0
6, 207811, Note_on_c, 9, 40, 124
6, 207817, Note_on_c, 9, 40, 0
6, 207897, Note_on_c, 9, 35, 58
6, 207897, Note_on_c, 9, 44, 79
6, 207903, Note_on_c, 9, 44, 0
6, 207903, Note_on_c, 9, 35, 0
6, 207904, Note_on_c, 9, 59, 93
6, 207910, Note_on_c, 9, 59, 0
6, 208000, Note_on_c, 9, 59, 79
6, 208006, Note_on_c, 9, 59, 0
6, 208096, Note_on_c, 9, 35, 66
6, 208099, Note_on_c, 9, 59, 88
6, 208102, Note_on_c, 9, 35, 0
6, 208105, Note_on_c, 9, 59, 0
6, 208285, Note_on_c, 9, 44, 79
6, 208291, Note_on_c, 9, 44, 0
6, 208291, Note_on_c, 9, 59, 92
6, 208297, Note_on_c, 9, 59, 0
6, 208384, Note_on_c, 9, 35, 74
6, 208387, Note_on_c, 9, 59, 83
6, 208390, Note_on_c, 9, 35, 0
6, 208393, Note_on_c, 9, 59, 0
6, 208480, Note_on_c, 9, 40, 111
6, 208483, Note_on_c, 9, 59, 91
6, 208486, Note_on_c, 9, 40, 0
6, 208489, Note_on_c, 9, 59, 0
6, 208669, Note_on_c, 9, 35, 61
6, 208669, Note_on_c, 9, 44, 79
6, 208675, Note_on_c, 9, 44, 0
6, 208675, Note_on_c, 9, 35, 0
6, 208675, Note_on_c, 9, 59, 91
6, 208681, Note_on_c, 9, 59, 0
6, 208768, Note_on_c, 9, 59, 80
6, 208771, Note_on_c, 9, 40, 118
6, 208774, Note_on_c, 9, 59, 0
6, 208777, Note_on_c, 9, 40, 0
6, 208864, Note_on_c, 9, 35, 72
6, 208864, Note_on_c, 9, 59, 88
6, 208870, Note_on_c, 9, 59, 0
6, 208870, Note_on_c, 9, 35, 0
6, 209046, Note_on_c, 9, 44, 79
6, 209052, Note_on_c, 9, 44, 0
6, 209056, Note_on_c, 9, 59, 92
6, 209062, Note_on_c, 9, 59, 0
6, 209149, Note_on_c, 9, 59, 79
6, 209152, Note_on_c, 9, 35, 73
6, 209155, Note_on_c, 9, 59, 0
6, 209158, Note_on_c, 9, 35, 0
6, 209248, Note_on_c, 9, 59, 85
6, 209254, Note_on_c, 9, 59, 0
6, 209433, Note_on_c, 9, 35, 58
6, 209439, Note_on_c, 9, 35, 0
6, 209440, Note_on_c, 9, 44, 79
6, 209440, Note_on_c, 9, 59, 89
6, 209446, Note_on_c, 9, 59, 0
6, 209446, Note_on_c, 9, 44, 0
6, 209533, Note_on_c, 9, 59, 82
6, 209539, Note_on_c, 9, 59, 0
6, 209625, Note_on_c, 9, 35, 72
6, 209629, Note_on_c, 9, 59, 84
6, 209631, Note_on_c, 9, 35, 0
6, 209635, Note_on_c, 9, 59, 0
6, 209821, Note_on_c, 9, 44, 79
6, 209821, Note_on_c, 9, 59, 91
6, 209827, Note_on_c, 9, 59, 0
6, 209827, Note_on_c, 9, 44, 0
6, 209910, Note_on_c, 9, 59, 85
6, 209913, Note_on_c, 9, 35, 72
6, 209916, Note_on_c, 9, 59, 0
6, 209919, Note_on_c, 9, 35, 0
6, 210006, Note_on_c, 9, 59, 85
6, 210009, Note_on_c, 9, 47, 58
6, 210012, Note_on_c, 9, 59, 0
6, 210015, Note_on_c, 9, 47, 0
6, 210109, Note_on_c, 9, 47, 70
6, 210115, Note_on_c, 9, 47, 0
6, 210198, Note_on_c, 9, 35, 57
6, 210204, Note_on_c, 9, 35, 0
6, 210205, Note_on_c, 9, 44, 79
6, 210205, Note_on_c, 9, 59, 80
6, 210211, Note_on_c, 9, 59, 0
6, 210211, Note_on_c, 9, 44, 0
6, 210297, Note_on_c, 9, 47, 127
6, 210297, Note_on_c, 9, 59, 84
6, 210303, Note_on_c, 9, 59, 0
6, 210303, Note_on_c, 9, 47, 0
6, 210403, Note_on_c, 9, 35, 68
6, 210403, Note_on_c, 9, 59, 85
6, 210409, Note_on_c, 9, 59, 0
6, 210409, Note_on_c, 9, 35, 0
6, 210589, Note_on_c, 9, 44, 79
6, 210595, Note_on_c, 9, 44, 0
6, 210595, Note_on_c, 9, 59, 83
6, 210601, Note_on_c, 9, 59, 0
6, 210691, Note_on_c, 9, 35, 57
6, 210691, Note_on_c, 9, 59, 74
6, 210697, Note_on_c, 9, 59, 0
6, 210697, Note_on_c, 9, 35, 0
6, 210787, Note_on_c, 9, 59, 79
6, 210793, Note_on_c, 9, 59, 0
6, 210973, Note_on_c, 9, 44, 79
6, 210976, Note_on_c, 9, 35, 54
6, 210979, Note_on_c, 9, 44, 0
6, 210979, Note_on_c, 9, 59, 88
6, 210982, Note_on_c, 9, 35, 0
6, 210985, Note_on_c, 9, 59, 0
6, 211072, Note_on_c, 9, 59, 76
6, 211078, Note_on_c, 9, 59, 0
6, 211168, Note_on_c, 9, 35, 61
6, 211168, Note_on_c, 9, 59, 74
6, 211174, Note_on_c, 9, 59, 0
6, 211174, Note_on_c, 9, 35, 0
6, 211350, Note_on_c, 9, 44, 79
6, 211356, Note_on_c, 9, 44, 0
6, 211363, Note_on_c, 9, 59, 88
6, 211369, Note_on_c, 9, 59, 0
6, 211456, Note_on_c, 9, 35, 61
6, 211459, Note_on_c, 9, 59, 79
6, 211462, Note_on_c, 9, 35, 0
6, 211465, Note_on_c, 9, 59, 0
6, 211555, Note_on_c, 9, 59, 80
6, 211561, Note_on_c, 9, 59, 0
6, 211737, Note_on_c, 9, 44, 79
6, 211741, Note_on_c, 9, 35, 57
6, 211743, Note_on_c, 9, 44, 0
6, 211747, Note_on_c, 9, 35, 0
6, 211747, Note_on_c, 9, 59, 87
6, 211753, Note_on_c, 9, 59, 0
6, 211843, Note_on_c, 9, 59, 80
6, 211849, Note_on_c, 9, 59, 0
6, 211936, Note_on_c, 9, 35, 62
6, 211939, Note_on_c, 9, 59, 83
6, 211942, Note_on_c, 9, 35, 0
6, 211945, Note_on_c, 9, 59, 0
6, 212121, Note_on_c, 9, 44, 79
6, 212127, Note_on_c, 9, 44, 0
6, 212131, Note_on_c, 9, 59, 89
6, 212137, Note_on_c, 9, 59, 0
6, 212224, Note_on_c, 9, 35, 58
6, 212224, Note_on_c, 9, 59, 81
6, 212230, Note_on_c, 9, 59, 0
6, 212230, Note_on_c, 9, 35, 0
6, 212320, Note_on_c, 9, 59, 83
6, 212326, Note_on_c, 9, 59, 0
6, 212505, Note_on_c, 9, 44, 79
6, 212509, Note_on_c, 9, 35, 57
6, 212511, Note_on_c, 9, 44, 0
6, 212515, Note_on_c, 9, 35, 0
6, 212515, Note_on_c, 9, 59, 85
6, 212521, Note_on_c, 9, 59, 0
6, 212608, Note_on_c, 9, 59, 82
6, 212614, Note_on_c, 9, 59, 0
6, 212701, Note_on_c, 9, 35, 64
6, 212704, Note_on_c, 9, 59, 80
6, 212707, Note_on_c, 9, 35, 0
6, 212710, Note_on_c, 9, 59, 0
6, 212886, Note_on_c, 9, 44, 79
6, 212892, Note_on_c, 9, 44, 0
6, 212896, Note_on_c, 9, 59, 88
6, 212902, Note_on_c, 9, 59, 0
6, 212989, Note_on_c, 9, 59, 80
6, 212992, Note_on_c, 9, 35, 61
6, 212995, Note_on_c, 9, 59, 0
6, 212998, Note_on_c, 9, 35, 0
6, 213085, Note_on_c, 9, 59, 80
6, 213091, Note_on_c, 9, 59, 0
6, 213273, Note_on_c, 9, 44, 79
6, 213277, Note_on_c, 9, 35, 58
6, 213279, Note_on_c, 9, 44, 0
6, 213280, Note_on_c, 9, 59, 88
6, 213283, Note_on_c, 9, 35, 0
6, 213286, Note_on_c, 9, 59, 0
6, 213373, Note_on_c, 9, 59, 79
6, 213376, Note_on_c, 9, 40, 82
6, 213379, Note_on_c, 9, 59, 0
6, 213382, Note_on_c, 9, 40, 0
6, 213469, Note_on_c, 9, 35, 62
6, 213469, Note_on_c, 9, 59, 80
6, 213475, Note_on_c, 9, 59, 0
6, 213475, Note_on_c, 9, 35, 0
6, 213654, Note_on_c, 9, 44, 79
6, 213660, Note_on_c, 9, 44, 0
6, 213664, Note_on_c, 9, 59, 85
6, 213670, Note_on_c, 9, 59, 0
6, 213757, Note_on_c, 9, 59, 78
6, 213760, Note_on_c, 9, 35, 64
6, 213763, Note_on_c, 9, 59, 0
6, 213766, Note_on_c, 9, 35, 0
6, 213853, Note_on_c, 9, 59, 80
6, 213859, Note_on_c, 9, 59, 0
6, 214038, Note_on_c, 9, 44, 79
6, 214044, Note_on_c, 9, 44, 0
6, 214045, Note_on_c, 9, 35, 58
6, 214048, Note_on_c, 9, 59, 88
6, 214051, Note_on_c, 9, 35, 0
6, 214054, Note_on_c, 9, 59, 0
6, 214141, Note_on_c, 9, 59, 77
6, 214147, Note_on_c, 9, 59, 0
6, 214237, Note_on_c, 9, 35, 66
6, 214240, Note_on_c, 9, 59, 75
6, 214243, Note_on_c, 9, 35, 0
6, 214246, Note_on_c, 9, 59, 0
6, 214425, Note_on_c, 9, 44, 79
6, 214431, Note_on_c, 9, 44, 0
6, 214432, Note_on_c, 9, 59, 88
6, 214438, Note_on_c, 9, 59, 0
6, 214525, Note_on_c, 9, 35, 66
6, 214525, Note_on_c, 9, 59, 79
6, 214531, Note_on_c, 9, 59, 0
6, 214531, Note_on_c, 9, 35, 0
6, 214624, Note_on_c, 9, 59, 77
6, 214630, Note_on_c, 9, 59, 0
6, 214809, Note_on_c, 9, 44, 79
6, 214813, Note_on_c, 9, 35, 58
6, 214815, Note_on_c, 9, 44, 0
6, 214816, Note_on_c, 9, 59, 81
6, 214819, Note_on_c, 9, 35, 0
6, 214822, Note_on_c, 9, 59, 0
6, 214912, Note_on_c, 9, 59, 79
6, 214918, Note_on_c, 9, 59, 0
6, 215005, Note_on_c, 9, 35, 66
6, 215005, Note_on_c, 9, 59, 80
6, 215011, Note_on_c, 9, 59, 0
6, 215011, Note_on_c, 9, 35, 0
6, 215225, Note_on_c, 9, 44, 79
6, 215231, Note_on_c, 9, 44, 0
6, 215235, Note_on_c, 9, 59, 84
6, 215241, Note_on_c, 9, 59, 0
6, 215328, Note_on_c, 9, 35, 57
6, 215328, Note_on_c, 9, 59, 77
6, 215334, Note_on_c, 9, 59, 0
6, 215334, Note_on_c, 9, 35, 0
6, 215424, Note_on_c, 9, 59, 80
6, 215430, Note_on_c, 9, 59, 0
6, 215616, Note_on_c, 9, 35, 50
6, 215616, Note_on_c, 9, 44, 79
6, 215619, Note_on_c, 9, 59, 83
6, 215622, Note_on_c, 9, 44, 0
6, 215622, Note_on_c, 9, 35, 0
6, 215625, Note_on_c, 9, 59, 0
6, 215712, Note_on_c, 9, 59, 72
6, 215718, Note_on_c, 9, 59, 0
6, 215808, Note_on_c, 9, 35, 53
6, 215808, Note_on_c, 9, 59, 77
6, 215814, Note_on_c, 9, 59, 0
6, 215814, Note_on_c, 9, 35, 0
6, 216000, Note_on_c, 9, 44, 79
6, 216000, Note_on_c, 9, 59, 83
6, 216006, Note_on_c, 9, 59, 0
6, 216006, Note_on_c, 9, 44, 0
6, 216092, Note_on_c, 9, 59, 82
6, 216098, Note_on_c, 9, 59, 0
6, 216099, Note_on_c, 9, 35, 53
6, 216105, Note_on_c, 9, 35, 0
6, 216185, Note_on_c, 9, 59, 83
6, 216191, Note_on_c, 9, 59, 0
6, 216384, Note_on_c, 9, 35, 49
6, 216384, Note_on_c, 9, 44, 79
6, 216387, Note_on_c, 9, 59, 79
6, 216390, Note_on_c, 9, 44, 0
6, 216390, Note_on_c, 9, 35, 0
6, 216393, Note_on_c, 9, 59, 0
6, 216480, Note_on_c, 9, 59, 77
6, 216486, Note_on_c, 9, 59, 0
6, 216576, Note_on_c, 9, 35, 54
6, 216576, Note_on_c, 9, 59, 82
6, 216582, Note_on_c, 9, 59, 0
6, 216582, Note_on_c, 9, 35, 0
6, 216764, Note_on_c, 9, 44, 79
6, 216770, Note_on_c, 9, 44, 0
6, 216774, Note_on_c, 9, 59, 85
6, 216780, Note_on_c, 9, 59, 0
6, 216867, Note_on_c, 9, 35, 54
6, 216867, Note_on_c, 9, 59, 75
6, 216873, Note_on_c, 9, 59, 0
6, 216873, Note_on_c, 9, 35, 0
6, 216963, Note_on_c, 9, 59, 77
6, 216969, Note_on_c, 9, 59, 0
6, 217155, Note_on_c, 9, 35, 51
6, 217155, Note_on_c, 9, 44, 79
6, 217158, Note_on_c, 9, 59, 84
6, 217161, Note_on_c, 9, 44, 0
6, 217161, Note_on_c, 9, 35, 0
6, 217164, Note_on_c, 9, 59, 0
6, 217251, Note_on_c, 9, 59, 69
6, 217257, Note_on_c, 9, 59, 0
6, 217347, Note_on_c, 9, 35, 56
6, 217347, Note_on_c, 9, 59, 79
6, 217353, Note_on_c, 9, 59, 0
6, 217353, Note_on_c, 9, 35, 0
6, 217539, Note_on_c, 9, 44, 79
6, 217539, Note_on_c, 9, 59, 83
6, 217545, Note_on_c, 9, 59, 0
6, 217545, Note_on_c, 9, 44, 0
6, 217632, Note_on_c, 9, 35, 54
6, 217635, Note_on_c, 9, 59, 72
6, 217638, Note_on_c, 9, 35, 0
6, 217641, Note_on_c, 9, 59, 0
6, 217731, Note_on_c, 9, 59, 74
6, 217737, Note_on_c, 9, 59, 0
6, 217920, Note_on_c, 9, 35, 52
6, 217920, Note_on_c, 9, 44, 79
6, 217926, Note_on_c, 9, 44, 0
6, 217926, Note_on_c, 9, 35, 0
6, 217926, Note_on_c, 9, 59, 85
6, 217932, Note_on_c, 9, 59, 0
6, 218019, Note_on_c, 9, 59, 93
6, 218025, Note_on_c, 9, 59, 0
6, 218115, Note_on_c, 9, 35, 93
6, 218115, Note_on_c, 9, 59, 93
6, 218121, Note_on_c, 9, 59, 0
6, 218121, Note_on_c, 9, 35, 0
6, 218307, Note_on_c, 9, 44, 92
6, 218310, Note_on_c, 9, 59, 92
6, 218313, Note_on_c, 9, 44, 0
6, 218316, Note_on_c, 9, 59, 0
6, 218400, Note_on_c, 9, 35, 92
6, 218403, Note_on_c, 9, 59, 92
6, 218406, Note_on_c, 9, 35, 0
6, 218409, Note_on_c, 9, 59, 0
6, 218499, Note_on_c, 9, 59, 92
6, 218505, Note_on_c, 9, 59, 0
6, 218688, Note_on_c, 9, 44, 91
6, 218691, Note_on_c, 9, 35, 91
6, 218694, Note_on_c, 9, 44, 0
6, 218694, Note_on_c, 9, 59, 91
6, 218697, Note_on_c, 9, 35, 0
6, 218700, Note_on_c, 9, 59, 0
6, 218787, Note_on_c, 9, 59, 91
6, 218793, Note_on_c, 9, 59, 0
6, 218883, Note_on_c, 9, 35, 91
6, 218883, Note_on_c, 9, 59, 91
6, 218889, Note_on_c, 9, 59, 0
6, 218889, Note_on_c, 9, 35, 0
6, 219068, Note_on_c, 9, 44, 91
6, 219074, Note_on_c, 9, 44, 0
6, 219075, Note_on_c, 9, 59, 91
6, 219081, Note_on_c, 9, 59, 0
6, 219168, Note_on_c, 9, 35, 90
6, 219171, Note_on_c, 9, 59, 90
6, 219174, Note_on_c, 9, 35, 0
6, 219177, Note_on_c, 9, 59, 0
6, 219267, Note_on_c, 9, 59, 88
6, 219273, Note_on_c, 9, 59, 0
6, 219456, Note_on_c, 9, 35, 85
6, 219456, Note_on_c, 9, 44, 85
6, 219459, Note_on_c, 9, 59, 85
6, 219462, Note_on_c, 9, 44, 0
6, 219462, Note_on_c, 9, 35, 0
6, 219465, Note_on_c, 9, 59, 0
6, 219552, Note_on_c, 9, 59, 83
6, 219558, Note_on_c, 9, 59, 0
6, 219648, Note_on_c, 9, 35, 83
6, 219648, Note_on_c, 9, 59, 83
6, 219654, Note_on_c, 9, 59, 0
6, 219654, Note_on_c, 9, 35, 0
6, 219836, Note_on_c, 9, 44, 81
6, 219842, Note_on_c, 9, 44, 0
6, 219843, Note_on_c, 9, 59, 81
6, 219849, Note_on_c, 9, 59, 0
6, 219939, Note_on_c, 9, 35, 80
6, 219939, Note_on_c, 9, 59, 80
6, 219945, Note_on_c, 9, 59, 0
6, 219945, Note_on_c, 9, 35, 0
6, 220032, Note_on_c, 9, 59, 80
6, 220038, Note_on_c, 9, 59, 0
6, 220224, Note_on_c, 9, 44, 80
6, 220227, Note_on_c, 9, 35, 80
6, 220227, Note_on_c, 9, 59, 80
6, 220230, Note_on_c, 9, 44, 0
6, 220233, Note_on_c, 9, 59, 0
6, 220233, Note_on_c, 9, 35, 0
6, 220323, Note_on_c, 9, 59, 80
6, 220329, Note_on_c, 9, 59, 0
6, 220416, Note_on_c, 9, 35, 80
6, 220419, Note_on_c, 9, 59, 80
6, 220422, Note_on_c, 9, 35, 0
6, 220425, Note_on_c, 9, 59, 0
6, 220608, Note_on_c, 9, 44, 80
6, 220614, Note_on_c, 9, 44, 0
6, 220614, Note_on_c, 9, 59, 80
6, 220620, Note_on_c, 9, 59, 0
6, 220704, Note_on_c, 9, 35, 80
6, 220707, Note_on_c, 9, 59, 80
6, 220710, Note_on_c, 9, 35, 0
6, 220713, Note_on_c, 9, 59, 0
6, 220803, Note_on_c, 9, 59, 80
6, 220809, Note_on_c, 9, 59, 0
6, 220992, Note_on_c, 9, 35, 80
6, 220995, Note_on_c, 9, 44, 80
6, 220995, Note_on_c, 9, 59, 80
6, 220998, Note_on_c, 9, 35, 0
6, 221001, Note_on_c, 9, 59, 0
6, 221001, Note_on_c, 9, 44, 0
6, 221091, Note_on_c, 9, 59, 80
6, 221097, Note_on_c, 9, 59, 0
6, 221180, Note_on_c, 9, 35, 80
6, 221184, Note_on_c, 9, 59, 80
6, 221186, Note_on_c, 9, 35, 0
6, 221190, Note_on_c, 9, 59, 0
6, 221372, Note_on_c, 9, 44, 80
6, 221376, Note_on_c, 9, 59, 80
6, 221378, Note_on_c, 9, 44, 0
6, 221382, Note_on_c, 9, 59, 0
6, 221472, Note_on_c, 9, 35, 80
6, 221472, Note_on_c, 9, 59, 80
6, 221478, Note_on_c, 9, 59, 0
6, 221478, Note_on_c, 9, 35, 0
6, 221564, Note_on_c, 9, 59, 80
6, 221570, Note_on_c, 9, 59, 0
6, 221760, Note_on_c, 9, 35, 79
6, 221760, Note_on_c, 9, 44, 79
6, 221763, Note_on_c, 9, 59, 79
6, 221766, Note_on_c, 9, 44, 0
6, 221766, Note_on_c, 9, 35, 0
6, 221769, Note_on_c, 9, 59, 0
6, 221856, Note_on_c, 9, 59, 78
6, 221862, Note_on_c, 9, 59, 0
6, 221952, Note_on_c, 9, 35, 72
6, 221952, Note_on_c, 9, 59, 72
6, 221958, Note_on_c, 9, 59, 0
6, 221958, Note_on_c, 9, 35, 0
6, 222144, Note_on_c, 9, 44, 65
6, 222144, Note_on_c, 9, 59, 65
6, 222150, Note_on_c, 9, 59, 0
6, 222150, Note_on_c, 9, 44, 0
6, 222240, Note_on_c, 9, 35, 65
6, 222240, Note_on_c, 9, 59, 65
6, 222246, Note_on_c, 9, 59, 0
6, 222246, Note_on_c, 9, 35, 0
6, 222336, Note_on_c, 9, 47, 66
6, 222336, Note_on_c, 9, 59, 66
6, 222342, Note_on_c, 9, 59, 0
6, 222342, Note_on_c, 9, 47, 0
6, 222528, Note_on_c, 9, 35, 64
6, 222528, Note_on_c, 9, 44, 64
6, 222531, Note_on_c, 9, 59, 64
6, 222534, Note_on_c, 9, 44, 0
6, 222534, Note_on_c, 9, 35, 0
6, 222537, Note_on_c, 9, 59, 0
6, 222624, Note_on_c, 9, 47, 63
6, 222627, Note_on_c, 9, 59, 63
6, 222630, Note_on_c, 9, 47, 0
6, 222633, Note_on_c, 9, 59, 0
6, 222720, Note_on_c, 9, 35, 61
6, 222720, Note_on_c, 9, 59, 61
6, 222726, Note_on_c, 9, 59, 0
6, 222726, Note_on_c, 9, 35, 0
6, 222908, Note_on_c, 9, 44, 58
6, 222914, Note_on_c, 9, 44, 0
6, 222915, Note_on_c, 9, 59, 58
6, 222921, Note_on_c, 9, 59, 0
6, 223008, Note_on_c, 9, 59, 58
6, 223011, Note_on_c, 9, 35, 58
6, 223014, Note_on_c, 9, 59, 0
6, 223017, Note_on_c, 9, 35, 0
6, 223104, Note_on_c, 9, 59, 57
6, 223110, Note_on_c, 9, 59, 0
6, 223296, Note_on_c, 9, 35, 56
6, 223299, Note_on_c, 9, 44, 56
6, 223299, Note_on_c, 9, 59, 56
6, 223302, Note_on_c, 9, 35, 0
6, 223305, Note_on_c, 9, 59, 0
6, 223305, Note_on_c, 9, 44, 0
6, 223395, Note_on_c, 9, 59, 56
6, 223401, Note_on_c, 9, 59, 0
6, 223488, Note_on_c, 9, 35, 54
6, 223491, Note_on_c, 9, 59, 54
6, 223494, Note_on_c, 9, 35, 0
6, 223497, Note_on_c, 9, 59, 0
6, 223680, Note_on_c, 9, 44, 49
6, 223683, Note_on_c, 9, 59, 49
6, 223686, Note_on_c, 9, 44, 0
6, 223689, Note_on_c, 9, 59, 0
6, 223779, Note_on_c, 9, 35, 49
6, 223779, Note_on_c, 9, 59, 49
6, 223785, Note_on_c, 9, 59, 0
6, 223785, Note_on_c, 9, 35, 0
6, 223875, Note_on_c, 9, 59, 47
6, 223881, Note_on_c, 9, 59, 0
6, 224067, Note_on_c, 9, 35, 46
6, 224067, Note_on_c, 9, 44, 46
6, 224070, Note_on_c, 9, 59, 46
6, 224073, Note_on_c, 9, 44, 0
6, 224073, Note_on_c, 9, 35, 0
6, 224076, Note_on_c, 9, 59, 0
6, 224163, Note_on_c, 9, 59, 46
6, 224169, Note_on_c, 9, 59, 0
6, 224259, Note_on_c, 9, 35, 45
6, 224259, Note_on_c, 9, 59, 45
6, 224265, Note_on_c, 9, 59, 0
6, 224265, Note_on_c, 9, 35, 0
6, 224451, Note_on_c, 9, 44, 42
6, 224451, Note_on_c, 9, 59, 42
6, 224457, Note_on_c, 9, 59, 0
6, 224457, Note_on_c, 9, 44, 0
6, 224547, Note_on_c, 9, 35, 42
6, 224547, Note_on_c, 9, 59, 42
6, 224553, Note_on_c, 9, 59, 0
6, 224553, Note_on_c, 9, 35, 0
6, 224643, Note_on_c, 9, 59, 46
6, 224649, Note_on_c, 9, 59, 0
6, 224828, Note_on_c, 9, 44, 43
6, 224834, Note_on_c, 9, 44, 0
6, 224835, Note_on_c, 9, 35, 32
6, 224835, Note_on_c, 9, 59, 43
6, 224841, Note_on_c, 9, 59, 0
6, 224841, Note_on_c, 9, 35, 0
6, 224931, Note_on_c, 9, 59, 42
6, 224937, Note_on_c, 9, 59, 0
6, 225027, Note_on_c, 9, 35, 31
6, 225027, Note_on_c, 9, 59, 42
6, 225033, Note_on_c, 9, 59, 0
6, 225033, Note_on_c, 9, 35, 0
6, 225212, Note_on_c, 9, 44, 24
6, 225216, Note_on_c, 9, 59, 24
6, 225218, Note_on_c, 9, 44, 0
6, 225222, Note_on_c, 9, 59, 0
6, 225312, Note_on_c, 9, 59, 23
6, 225315, Note_on_c, 9, 35, 17
6, 225318, Note_on_c, 9, 59, 0
6, 225321, Note_on_c, 9, 35, 0
6, 225408, Note_on_c, 9, 59, 21
6, 225414, Note_on_c, 9, 59, 0
6, 225596, Note_on_c, 9, 35, 10
6, 225596, Note_on_c, 9, 44, 14
6, 225602, Note_on_c, 9, 44, 0
6, 225602, Note_on_c, 9, 35, 0
6, 225603, Note_on_c, 9, 59, 14
6, 225609, Note_on_c, 9, 59, 0
6, 225699, Note_on_c, 9, 59, 10
6, 225705, Note_on_c, 9, 59, 0
6, 225792, Note_on_c, 9, 35, 4
6, 225792, Note_on_c, 9, 59, 6
6, 225798, Note_on_c, 9, 59, 0
6, 225798, Note_on_c, 9, 35, 0
6, 225798, End_track
0, 0, End_of_file
