0, 0, Header, 1, 2, 120
1, 0, Start_track
1, 0, Title_t, "So In Love"
1, 0, Text_t, " Cole Porter"
1, 0, Text_t, "dougmck@pipeline.com.au  Solo piano played in real time.\012"
1, 0, Text_t, "'Inspired' by Chick Corea's version on the new solo album 'Standards'. His is THE one to listen to!\012"
1, 0, Time_signature, 4, 2, 24, 8
1, 0, Key_signature, -4, "major"
1, 0, Tempo, 600000
1, 39540, Marker_t, "2nd chorus"
1, 40381, Marker_t, "chorus 2"
1, 40381, End_track
2, 0, Start_track
2, 0, Title_t, "dougmck@pipeline.com.au"
2, 0, Program_c, 0, 0
2, 35, Note_on_c, 0, 72, 65
2, 81, Control_c, 0, 64, 127
2, 122, Note_on_c, 0, 53, 30
2, 194, Note_on_c, 0, 60, 30
2, 257, Note_on_c, 0, 65, 24
2, 326, Note_on_c, 0, 73, 35
2, 330, Note_on_c, 0, 72, 0
2, 365, Note_on_c, 0, 60, 0
2, 383, Note_on_c, 0, 65, 0
2, 394, Note_on_c, 0, 60, 22
2, 443, Note_on_c, 0, 65, 51
2, 478, Note_on_c, 0, 73, 0
2, 480, Note_on_c, 0, 60, 0
2, 499, Note_on_c, 0, 73, 68
2, 550, Note_on_c, 0, 73, 0
2, 563, Note_on_c, 0, 73, 32
2, 566, Note_on_c, 0, 61, 39
2, 582, Control_c, 0, 64, 0
2, 583, Note_on_c, 0, 65, 0
2, 620, Control_c, 0, 64, 127
2, 651, Note_on_c, 0, 65, 39
2, 670, Note_on_c, 0, 65, 0
2, 741, Note_on_c, 0, 65, 32
2, 819, Note_on_c, 0, 73, 0
2, 833, Note_on_c, 0, 72, 85
2, 847, Note_on_c, 0, 65, 0
2, 898, Note_on_c, 0, 72, 0
2, 924, Note_on_c, 0, 72, 74
2, 970, Note_on_c, 0, 72, 0
2, 998, Note_on_c, 0, 53, 0
2, 1013, Note_on_c, 0, 72, 71
2, 1061, Note_on_c, 0, 72, 0
2, 1151, Note_on_c, 0, 61, 0
2, 1230, Note_on_c, 0, 72, 66
2, 1230, Note_on_c, 0, 52, 47
2, 1250, Control_c, 0, 64, 0
2, 1280, Control_c, 0, 64, 127
2, 1290, Note_on_c, 0, 60, 44
2, 1338, Note_on_c, 0, 72, 0
2, 1342, Note_on_c, 0, 64, 54
2, 1384, Note_on_c, 0, 64, 0
2, 1398, Note_on_c, 0, 72, 63
2, 1433, Note_on_c, 0, 52, 0
2, 1460, Note_on_c, 0, 72, 0
2, 1468, Note_on_c, 0, 60, 0
2, 1472, Note_on_c, 0, 73, 62
2, 1489, Note_on_c, 0, 52, 55
2, 1493, Control_c, 0, 64, 0
2, 1527, Control_c, 0, 64, 127
2, 1568, Note_on_c, 0, 60, 34
2, 1642, Note_on_c, 0, 67, 53
2, 1644, Note_on_c, 0, 64, 32
2, 1647, Note_on_c, 0, 73, 0
2, 1676, Note_on_c, 0, 60, 0
2, 1704, Note_on_c, 0, 64, 0
2, 1713, Note_on_c, 0, 73, 44
2, 1716, Note_on_c, 0, 67, 0
2, 1718, Note_on_c, 0, 63, 25
2, 1731, Note_on_c, 0, 73, 0
2, 1761, Note_on_c, 0, 63, 0
2, 1795, Note_on_c, 0, 81, 59
2, 1796, Note_on_c, 0, 73, 35
2, 1808, Note_on_c, 0, 64, 15
2, 1853, Note_on_c, 0, 73, 0
2, 1853, Note_on_c, 0, 81, 0
2, 1862, Note_on_c, 0, 64, 0
2, 1873, Note_on_c, 0, 69, 31
2, 1878, Note_on_c, 0, 61, 26
2, 1879, Note_on_c, 0, 76, 32
2, 1882, Note_on_c, 0, 69, 0
2, 1890, Note_on_c, 0, 76, 0
2, 1972, Note_on_c, 0, 93, 46
2, 1974, Note_on_c, 0, 85, 32
2, 1980, Note_on_c, 0, 64, 22
2, 2030, Note_on_c, 0, 61, 0
2, 2082, Note_on_c, 0, 85, 0
2, 2164, Note_on_c, 0, 93, 0
2, 2310, Note_on_c, 0, 72, 99
2, 2312, Note_on_c, 0, 52, 0
2, 2329, Note_on_c, 0, 64, 0
2, 2364, Note_on_c, 0, 73, 34
2, 2366, Note_on_c, 0, 72, 0
2, 2385, Note_on_c, 0, 73, 0
2, 2403, Note_on_c, 0, 73, 36
2, 2424, Note_on_c, 0, 73, 0
2, 2426, Note_on_c, 0, 72, 40
2, 2440, Note_on_c, 0, 72, 0
2, 2443, Note_on_c, 0, 73, 31
2, 2460, Note_on_c, 0, 72, 40
2, 2467, Note_on_c, 0, 73, 0
2, 2477, Note_on_c, 0, 72, 0
2, 2477, Note_on_c, 0, 71, 47
2, 2495, Note_on_c, 0, 71, 0
2, 2508, Note_on_c, 0, 72, 68
2, 2513, Note_on_c, 0, 53, 26
2, 2526, Control_c, 0, 64, 0
2, 2566, Control_c, 0, 64, 127
2, 2597, Note_on_c, 0, 60, 24
2, 2697, Note_on_c, 0, 65, 34
2, 2941, Note_on_c, 0, 79, 65
2, 2955, Note_on_c, 0, 60, 0
2, 2958, Note_on_c, 0, 65, 0
2, 2978, Note_on_c, 0, 79, 0
2, 2991, Note_on_c, 0, 72, 0
2, 3013, Note_on_c, 0, 53, 0
2, 3229, Note_on_c, 0, 63, 45
2, 3229, Note_on_c, 0, 67, 62
2, 3229, Note_on_c, 0, 58, 50
2, 3231, Note_on_c, 0, 53, 46
2, 3252, Control_c, 0, 64, 0
2, 3296, Control_c, 0, 64, 127
2, 3385, Note_on_c, 0, 53, 0
2, 3431, Note_on_c, 0, 58, 0
2, 3456, Note_on_c, 0, 63, 0
2, 3467, Note_on_c, 0, 67, 0
2, 3501, Note_on_c, 0, 61, 44
2, 3502, Note_on_c, 0, 65, 51
2, 3503, Note_on_c, 0, 51, 37
2, 3504, Note_on_c, 0, 57, 30
2, 3506, Note_on_c, 0, 41, 41
2, 3517, Note_on_c, 0, 61, 0
2, 3517, Control_c, 0, 64, 0
2, 3520, Note_on_c, 0, 62, 49
2, 3566, Note_on_c, 0, 62, 0
2, 3592, Note_on_c, 0, 61, 48
2, 3601, Control_c, 0, 64, 127
2, 3638, Note_on_c, 0, 61, 0
2, 3652, Note_on_c, 0, 57, 0
2, 3658, Note_on_c, 0, 65, 0
2, 3668, Note_on_c, 0, 60, 27
2, 3679, Note_on_c, 0, 60, 0
2, 3710, Note_on_c, 0, 41, 0
2, 3721, Note_on_c, 0, 72, 75
2, 3731, Note_on_c, 0, 51, 0
2, 3764, Note_on_c, 0, 72, 0
2, 3796, Note_on_c, 0, 72, 57
2, 3799, Note_on_c, 0, 61, 35
2, 3799, Note_on_c, 0, 46, 37
2, 3800, Note_on_c, 0, 65, 53
2, 3810, Control_c, 0, 64, 0
2, 3862, Note_on_c, 0, 53, 40
2, 3866, Control_c, 0, 64, 127
2, 3889, Note_on_c, 0, 61, 0
2, 3896, Note_on_c, 0, 65, 0
2, 3920, Note_on_c, 0, 53, 0
2, 3921, Note_on_c, 0, 61, 34
2, 3921, Note_on_c, 0, 65, 48
2, 3924, Note_on_c, 0, 57, 37
2, 3927, Note_on_c, 0, 46, 0
2, 3953, Note_on_c, 0, 57, 0
2, 3975, Note_on_c, 0, 61, 0
2, 3980, Note_on_c, 0, 60, 76
2, 3986, Note_on_c, 0, 65, 0
2, 4022, Note_on_c, 0, 72, 0
2, 4053, Note_on_c, 0, 72, 38
2, 4053, Note_on_c, 0, 61, 38
2, 4055, Note_on_c, 0, 65, 50
2, 4103, Control_c, 0, 64, 0
2, 4119, Note_on_c, 0, 58, 59
2, 4130, Note_on_c, 0, 65, 0
2, 4149, Note_on_c, 0, 61, 0
2, 4149, Note_on_c, 0, 60, 0
2, 4169, Control_c, 0, 64, 127
2, 4194, Note_on_c, 0, 61, 42
2, 4198, Note_on_c, 0, 65, 44
2, 4272, Note_on_c, 0, 65, 0
2, 4272, Note_on_c, 0, 58, 0
2, 4272, Note_on_c, 0, 57, 53
2, 4285, Control_c, 0, 64, 0
2, 4293, Note_on_c, 0, 61, 0
2, 4323, Control_c, 0, 64, 127
2, 4348, Note_on_c, 0, 61, 35
2, 4353, Note_on_c, 0, 65, 39
2, 4400, Note_on_c, 0, 57, 0
2, 4421, Note_on_c, 0, 58, 39
2, 4427, Note_on_c, 0, 57, 24
2, 4441, Note_on_c, 0, 57, 0
2, 4442, Note_on_c, 0, 59, 54
2, 4443, Note_on_c, 0, 58, 0
2, 4458, Note_on_c, 0, 59, 0
2, 4461, Note_on_c, 0, 60, 49
2, 4462, Control_c, 0, 64, 0
2, 4508, Control_c, 0, 64, 127
2, 4514, Note_on_c, 0, 61, 0
2, 4526, Note_on_c, 0, 65, 0
2, 4538, Note_on_c, 0, 61, 27
2, 4559, Note_on_c, 0, 61, 0
2, 4628, Note_on_c, 0, 60, 0
2, 4628, Note_on_c, 0, 61, 27
2, 4631, Note_on_c, 0, 65, 40
2, 4634, Control_c, 0, 64, 0
2, 4635, Note_on_c, 0, 58, 32
2, 4666, Control_c, 0, 64, 127
2, 4714, Note_on_c, 0, 61, 0
2, 4745, Note_on_c, 0, 61, 28
2, 4754, Note_on_c, 0, 65, 0
2, 4765, Note_on_c, 0, 72, 0
2, 4842, Note_on_c, 0, 61, 0
2, 4843, Note_on_c, 0, 70, 68
2, 4916, Note_on_c, 0, 70, 0
2, 4943, Note_on_c, 0, 70, 48
2, 5011, Note_on_c, 0, 70, 0
2, 5038, Note_on_c, 0, 70, 48
2, 5087, Note_on_c, 0, 70, 0
2, 5131, Note_on_c, 0, 70, 47
2, 5190, Note_on_c, 0, 70, 0
2, 5249, Note_on_c, 0, 58, 0
2, 5256, Note_on_c, 0, 70, 50
2, 5257, Note_on_c, 0, 51, 33
2, 5270, Control_c, 0, 64, 0
2, 5298, Control_c, 0, 64, 127
2, 5415, Note_on_c, 0, 64, 50
2, 5416, Note_on_c, 0, 63, 36
2, 5417, Note_on_c, 0, 68, 40
2, 5487, Note_on_c, 0, 68, 0
2, 5490, Note_on_c, 0, 64, 0
2, 5503, Note_on_c, 0, 63, 0
2, 5521, Note_on_c, 0, 64, 41
2, 5523, Note_on_c, 0, 68, 34
2, 5525, Note_on_c, 0, 63, 31
2, 5584, Note_on_c, 0, 63, 0
2, 5613, Note_on_c, 0, 63, 35
2, 5650, Note_on_c, 0, 63, 0
2, 5672, Note_on_c, 0, 64, 0
2, 5678, Note_on_c, 0, 63, 37
2, 5713, Note_on_c, 0, 51, 0
2, 5721, Note_on_c, 0, 51, 28
2, 5738, Note_on_c, 0, 68, 0
2, 5746, Note_on_c, 0, 70, 0
2, 5767, Note_on_c, 0, 63, 0
2, 5786, Note_on_c, 0, 73, 48
2, 5790, Note_on_c, 0, 63, 62
2, 5791, Note_on_c, 0, 64, 66
2, 5791, Note_on_c, 0, 70, 64
2, 5792, Note_on_c, 0, 67, 58
2, 5801, Control_c, 0, 64, 0
2, 5844, Control_c, 0, 64, 127
2, 5862, Note_on_c, 0, 63, 0
2, 5879, Note_on_c, 0, 63, 35
2, 5923, Note_on_c, 0, 63, 0
2, 5974, Note_on_c, 0, 63, 33
2, 6002, Note_on_c, 0, 73, 0
2, 6035, Note_on_c, 0, 51, 0
2, 6057, Note_on_c, 0, 67, 0
2, 6061, Note_on_c, 0, 63, 0
2, 6062, Note_on_c, 0, 70, 0
2, 6067, Note_on_c, 0, 51, 29
2, 6069, Note_on_c, 0, 72, 50
2, 6070, Note_on_c, 0, 64, 0
2, 6103, Note_on_c, 0, 51, 0
2, 6114, Note_on_c, 0, 72, 0
2, 6227, Note_on_c, 0, 44, 38
2, 6228, Note_on_c, 0, 72, 39
2, 6229, Note_on_c, 0, 64, 42
2, 6229, Note_on_c, 0, 67, 47
2, 6231, Note_on_c, 0, 60, 34
2, 6236, Note_on_c, 0, 52, 27
2, 6239, Control_c, 0, 64, 0
2, 6275, Control_c, 0, 64, 127
2, 6341, Note_on_c, 0, 55, 51
2, 6342, Note_on_c, 0, 52, 0
2, 6397, Note_on_c, 0, 64, 0
2, 6409, Note_on_c, 0, 60, 0
2, 6412, Note_on_c, 0, 55, 0
2, 6431, Note_on_c, 0, 67, 0
2, 6442, Note_on_c, 0, 53, 45
2, 6447, Note_on_c, 0, 65, 30
2, 6449, Note_on_c, 0, 60, 24
2, 6451, Control_c, 0, 64, 0
2, 6473, Control_c, 0, 64, 127
2, 6504, Note_on_c, 0, 44, 0
2, 6508, Note_on_c, 0, 72, 0
2, 6522, Note_on_c, 0, 65, 0
2, 6531, Note_on_c, 0, 44, 46
2, 6536, Note_on_c, 0, 53, 0
2, 6536, Note_on_c, 0, 60, 0
2, 6562, Note_on_c, 0, 44, 0
2, 6644, Control_c, 0, 64, 0
2, 6647, Note_on_c, 0, 39, 42
2, 6647, Note_on_c, 0, 27, 49
2, 6647, Note_on_c, 0, 54, 37
2, 6648, Note_on_c, 0, 61, 36
2, 6649, Note_on_c, 0, 65, 35
2, 6649, Note_on_c, 0, 58, 49
2, 6666, Control_c, 0, 64, 127
2, 6669, Note_on_c, 0, 54, 0
2, 6675, Note_on_c, 0, 58, 0
2, 6678, Note_on_c, 0, 61, 0
2, 6681, Note_on_c, 0, 65, 0
2, 6683, Note_on_c, 0, 27, 0
2, 6692, Note_on_c, 0, 39, 0
2, 6773, Note_on_c, 0, 65, 66
2, 6774, Note_on_c, 0, 54, 49
2, 6774, Note_on_c, 0, 77, 71
2, 6775, Note_on_c, 0, 70, 71
2, 6776, Note_on_c, 0, 73, 42
2, 6776, Note_on_c, 0, 66, 74
2, 6776, Note_on_c, 0, 61, 44
2, 6776, Note_on_c, 0, 58, 47
2, 6854, Note_on_c, 0, 77, 0
2, 6855, Note_on_c, 0, 65, 0
2, 6866, Note_on_c, 0, 66, 0
2, 6867, Note_on_c, 0, 61, 0
2, 6868, Note_on_c, 0, 73, 0
2, 6871, Note_on_c, 0, 70, 0
2, 6873, Note_on_c, 0, 58, 0
2, 6877, Note_on_c, 0, 54, 0
2, 6987, Note_on_c, 0, 74, 53
2, 6989, Note_on_c, 0, 66, 35
2, 6990, Note_on_c, 0, 69, 56
2, 6991, Note_on_c, 0, 62, 41
2, 6991, Note_on_c, 0, 54, 43
2, 6991, Note_on_c, 0, 44, 38
2, 6999, Control_c, 0, 64, 0
2, 7055, Control_c, 0, 64, 127
2, 7158, Note_on_c, 0, 51, 33
2, 7172, Note_on_c, 0, 54, 0
2, 7251, Note_on_c, 0, 74, 0
2, 7252, Note_on_c, 0, 69, 0
2, 7271, Note_on_c, 0, 62, 0
2, 7345, Note_on_c, 0, 66, 0
2, 7406, Note_on_c, 0, 44, 0
2, 7414, Note_on_c, 0, 51, 0
2, 7427, Note_on_c, 0, 70, 57
2, 7452, Note_on_c, 0, 68, 49
2, 7454, Note_on_c, 0, 70, 0
2, 7474, Note_on_c, 0, 68, 0
2, 7485, Note_on_c, 0, 70, 74
2, 7491, Control_c, 0, 64, 0
2, 7497, Note_on_c, 0, 49, 47
2, 7529, Control_c, 0, 64, 127
2, 7550, Note_on_c, 0, 70, 0
2, 7558, Note_on_c, 0, 49, 0
2, 7608, Note_on_c, 0, 82, 65
2, 7639, Note_on_c, 0, 77, 51
2, 7654, Note_on_c, 0, 82, 0
2, 7668, Note_on_c, 0, 77, 0
2, 7679, Note_on_c, 0, 73, 40
2, 7683, Note_on_c, 0, 63, 21
2, 7685, Note_on_c, 0, 53, 27
2, 7685, Note_on_c, 0, 60, 33
2, 7686, Control_c, 0, 64, 0
2, 7687, Note_on_c, 0, 56, 28
2, 7727, Control_c, 0, 64, 127
2, 7789, Note_on_c, 0, 73, 0
2, 7818, Note_on_c, 0, 63, 0
2, 7831, Note_on_c, 0, 60, 0
2, 7832, Note_on_c, 0, 53, 0
2, 7834, Note_on_c, 0, 72, 51
2, 7841, Note_on_c, 0, 56, 0
2, 7876, Note_on_c, 0, 72, 0
2, 7914, Note_on_c, 0, 70, 64
2, 7962, Note_on_c, 0, 70, 0
2, 8037, Note_on_c, 0, 69, 91
2, 8045, Note_on_c, 0, 71, 38
2, 8054, Note_on_c, 0, 71, 0
2, 8091, Note_on_c, 0, 69, 0
2, 8094, Note_on_c, 0, 68, 36
2, 8101, Note_on_c, 0, 68, 0
2, 8107, Note_on_c, 0, 67, 36
2, 8132, Note_on_c, 0, 67, 0
2, 8142, Note_on_c, 0, 66, 44
2, 8160, Note_on_c, 0, 66, 0
2, 8170, Note_on_c, 0, 67, 55
2, 8173, Note_on_c, 0, 43, 36
2, 8175, Control_c, 0, 64, 0
2, 8178, Note_on_c, 0, 53, 20
2, 8215, Control_c, 0, 64, 127
2, 8264, Note_on_c, 0, 59, 48
2, 8329, Note_on_c, 0, 67, 0
2, 8357, Note_on_c, 0, 68, 68
2, 8402, Note_on_c, 0, 53, 0
2, 8413, Note_on_c, 0, 59, 0
2, 8428, Note_on_c, 0, 68, 0
2, 8455, Note_on_c, 0, 68, 45
2, 8461, Note_on_c, 0, 64, 49
2, 8461, Note_on_c, 0, 59, 44
2, 8462, Note_on_c, 0, 53, 35
2, 8467, Control_c, 0, 64, 0
2, 8496, Control_c, 0, 64, 127
2, 8598, Note_on_c, 0, 68, 0
2, 8619, Note_on_c, 0, 67, 58
2, 8644, Note_on_c, 0, 43, 0
2, 8661, Note_on_c, 0, 64, 0
2, 8684, Note_on_c, 0, 53, 0
2, 8706, Note_on_c, 0, 59, 0
2, 8726, Note_on_c, 0, 67, 0
2, 8954, Note_on_c, 0, 53, 43
2, 8955, Note_on_c, 0, 58, 44
2, 8955, Note_on_c, 0, 63, 50
2, 8955, Note_on_c, 0, 67, 58
2, 8957, Note_on_c, 0, 59, 35
2, 8962, Note_on_c, 0, 49, 23
2, 8963, Note_on_c, 0, 58, 0
2, 8963, Control_c, 0, 64, 0
2, 8966, Note_on_c, 0, 63, 0
2, 8968, Note_on_c, 0, 59, 0
2, 8972, Note_on_c, 0, 67, 0
2, 8974, Note_on_c, 0, 53, 0
2, 8976, Note_on_c, 0, 49, 0
2, 9038, Note_on_c, 0, 67, 52
2, 9039, Note_on_c, 0, 63, 46
2, 9040, Note_on_c, 0, 53, 47
2, 9041, Note_on_c, 0, 58, 29
2, 9042, Note_on_c, 0, 49, 32
2, 9045, Note_on_c, 0, 59, 26
2, 9052, Note_on_c, 0, 58, 0
2, 9056, Note_on_c, 0, 59, 0
2, 9057, Note_on_c, 0, 63, 0
2, 9061, Note_on_c, 0, 67, 0
2, 9064, Note_on_c, 0, 53, 0
2, 9066, Note_on_c, 0, 49, 0
2, 9130, Note_on_c, 0, 67, 48
2, 9131, Note_on_c, 0, 53, 35
2, 9131, Note_on_c, 0, 49, 33
2, 9132, Control_c, 0, 64, 127
2, 9132, Note_on_c, 0, 58, 30
2, 9133, Note_on_c, 0, 63, 38
2, 9137, Note_on_c, 0, 59, 24
2, 9169, Note_on_c, 0, 58, 0
2, 9174, Note_on_c, 0, 63, 0
2, 9178, Note_on_c, 0, 67, 0
2, 9223, Note_on_c, 0, 79, 62
2, 9296, Note_on_c, 0, 79, 0
2, 9297, Note_on_c, 0, 59, 0
2, 9301, Note_on_c, 0, 53, 0
2, 9305, Note_on_c, 0, 49, 0
2, 9321, Note_on_c, 0, 75, 43
2, 9322, Note_on_c, 0, 48, 48
2, 9330, Control_c, 0, 64, 0
2, 9365, Control_c, 0, 64, 127
2, 9378, Note_on_c, 0, 60, 38
2, 9400, Note_on_c, 0, 75, 0
2, 9424, Note_on_c, 0, 64, 53
2, 9460, Note_on_c, 0, 64, 0
2, 9473, Note_on_c, 0, 66, 58
2, 9492, Note_on_c, 0, 48, 0
2, 9509, Note_on_c, 0, 60, 0
2, 9511, Note_on_c, 0, 66, 0
2, 9518, Note_on_c, 0, 70, 60
2, 9538, Note_on_c, 0, 70, 0
2, 9552, Note_on_c, 0, 72, 64
2, 9571, Note_on_c, 0, 72, 0
2, 9581, Note_on_c, 0, 73, 45
2, 9601, Note_on_c, 0, 73, 0
2, 9609, Note_on_c, 0, 75, 50
2, 9625, Note_on_c, 0, 75, 0
2, 9627, Note_on_c, 0, 63, 25
2, 9628, Note_on_c, 0, 52, 36
2, 9630, Note_on_c, 0, 58, 36
2, 9631, Control_c, 0, 64, 0
2, 9639, Note_on_c, 0, 76, 40
2, 9656, Note_on_c, 0, 76, 0
2, 9669, Note_on_c, 0, 78, 37
2, 9688, Note_on_c, 0, 78, 0
2, 9700, Note_on_c, 0, 82, 38
2, 9712, Note_on_c, 0, 82, 0
2, 9734, Note_on_c, 0, 84, 62
2, 9740, Note_on_c, 0, 84, 0
2, 9771, Note_on_c, 0, 85, 46
2, 9779, Note_on_c, 0, 85, 0
2, 9808, Note_on_c, 0, 87, 50
2, 9823, Note_on_c, 0, 87, 0
2, 9844, Note_on_c, 0, 88, 46
2, 9853, Note_on_c, 0, 88, 0
2, 9873, Note_on_c, 0, 91, 60
2, 9890, Note_on_c, 0, 91, 0
2, 9902, Note_on_c, 0, 88, 49
2, 9913, Note_on_c, 0, 88, 0
2, 9964, Note_on_c, 0, 91, 48
2, 9974, Note_on_c, 0, 91, 0
2, 10007, Note_on_c, 0, 92, 37
2, 10014, Note_on_c, 0, 92, 0
2, 10053, Note_on_c, 0, 94, 71
2, 10071, Note_on_c, 0, 94, 0
2, 10107, Note_on_c, 0, 92, 83
2, 10125, Note_on_c, 0, 92, 0
2, 10134, Note_on_c, 0, 94, 49
2, 10153, Note_on_c, 0, 92, 46
2, 10159, Note_on_c, 0, 94, 0
2, 10173, Note_on_c, 0, 92, 0
2, 10174, Note_on_c, 0, 91, 57
2, 10187, Note_on_c, 0, 91, 0
2, 10203, Note_on_c, 0, 89, 45
2, 10219, Control_c, 0, 64, 127
2, 10224, Note_on_c, 0, 89, 0
2, 10228, Note_on_c, 0, 88, 48
2, 10242, Note_on_c, 0, 88, 0
2, 10243, Control_c, 0, 64, 0
2, 10256, Note_on_c, 0, 91, 73
2, 10277, Note_on_c, 0, 91, 0
2, 10283, Note_on_c, 0, 88, 57
2, 10292, Note_on_c, 0, 88, 0
2, 10336, Note_on_c, 0, 84, 65
2, 10347, Note_on_c, 0, 84, 0
2, 10380, Note_on_c, 0, 80, 55
2, 10394, Note_on_c, 0, 80, 0
2, 10417, Note_on_c, 0, 79, 50
2, 10432, Note_on_c, 0, 79, 0
2, 10447, Note_on_c, 0, 82, 55
2, 10472, Note_on_c, 0, 82, 0
2, 10479, Note_on_c, 0, 80, 50
2, 10495, Note_on_c, 0, 80, 0
2, 10515, Note_on_c, 0, 79, 51
2, 10538, Note_on_c, 0, 79, 0
2, 10559, Note_on_c, 0, 72, 39
2, 10568, Control_c, 0, 64, 127
2, 10608, Note_on_c, 0, 72, 0
2, 10610, Note_on_c, 0, 79, 60
2, 10640, Note_on_c, 0, 52, 0
2, 10654, Note_on_c, 0, 58, 0
2, 10658, Note_on_c, 0, 63, 0
2, 10679, Note_on_c, 0, 77, 58
2, 10684, Note_on_c, 0, 53, 48
2, 10689, Note_on_c, 0, 79, 0
2, 10698, Control_c, 0, 64, 0
2, 10730, Control_c, 0, 64, 127
2, 10747, Note_on_c, 0, 68, 25
2, 10752, Note_on_c, 0, 60, 34
2, 10804, Note_on_c, 0, 68, 0
2, 10810, Note_on_c, 0, 77, 0
2, 10820, Note_on_c, 0, 65, 33
2, 10826, Note_on_c, 0, 67, 34
2, 10873, Note_on_c, 0, 60, 0
2, 10887, Note_on_c, 0, 67, 0
2, 10900, Note_on_c, 0, 72, 76
2, 10909, Note_on_c, 0, 60, 30
2, 10931, Note_on_c, 0, 72, 0
2, 10939, Note_on_c, 0, 53, 0
2, 10965, Note_on_c, 0, 72, 94
2, 10966, Note_on_c, 0, 53, 30
2, 10998, Note_on_c, 0, 60, 0
2, 11005, Note_on_c, 0, 65, 0
2, 11010, Note_on_c, 0, 72, 0
2, 11020, Note_on_c, 0, 73, 71
2, 11065, Note_on_c, 0, 73, 0
2, 11084, Note_on_c, 0, 73, 62
2, 11086, Note_on_c, 0, 61, 42
2, 11097, Control_c, 0, 64, 0
2, 11121, Control_c, 0, 64, 127
2, 11149, Note_on_c, 0, 65, 49
2, 11165, Note_on_c, 0, 65, 0
2, 11184, Note_on_c, 0, 73, 0
2, 11199, Note_on_c, 0, 72, 74
2, 11229, Note_on_c, 0, 72, 0
2, 11238, Note_on_c, 0, 53, 0
2, 11252, Note_on_c, 0, 72, 89
2, 11255, Note_on_c, 0, 53, 53
2, 11270, Note_on_c, 0, 61, 0
2, 11288, Note_on_c, 0, 72, 0
2, 11299, Note_on_c, 0, 53, 0
2, 11315, Note_on_c, 0, 72, 74
2, 11315, Note_on_c, 0, 70, 64
2, 11316, Note_on_c, 0, 65, 72
2, 11319, Note_on_c, 0, 53, 57
2, 11324, Control_c, 0, 64, 0
2, 11358, Control_c, 0, 64, 127
2, 11383, Note_on_c, 0, 73, 64
2, 11384, Note_on_c, 0, 72, 0
2, 11430, Note_on_c, 0, 73, 0
2, 11440, Note_on_c, 0, 65, 0
2, 11441, Note_on_c, 0, 70, 0
2, 11446, Note_on_c, 0, 73, 53
2, 11450, Note_on_c, 0, 61, 35
2, 11452, Note_on_c, 0, 70, 27
2, 11500, Note_on_c, 0, 70, 0
2, 11510, Note_on_c, 0, 65, 59
2, 11538, Note_on_c, 0, 65, 0
2, 11540, Note_on_c, 0, 61, 0
2, 11554, Note_on_c, 0, 53, 0
2, 11590, Note_on_c, 0, 64, 70
2, 11590, Note_on_c, 0, 67, 74
2, 11595, Note_on_c, 0, 53, 45
2, 11603, Control_c, 0, 64, 0
2, 11637, Control_c, 0, 64, 127
2, 11667, Note_on_c, 0, 73, 0
2, 11690, Note_on_c, 0, 72, 53
2, 11734, Note_on_c, 0, 67, 0
2, 11743, Note_on_c, 0, 64, 0
2, 11796, Note_on_c, 0, 67, 39
2, 11798, Note_on_c, 0, 64, 26
2, 11809, Note_on_c, 0, 60, 24
2, 11835, Note_on_c, 0, 60, 0
2, 11860, Note_on_c, 0, 64, 0
2, 11867, Note_on_c, 0, 67, 0
2, 11871, Note_on_c, 0, 72, 0
2, 11931, Note_on_c, 0, 53, 0
2, 11941, Note_on_c, 0, 60, 25
2, 12006, Note_on_c, 0, 60, 0
2, 12089, Note_on_c, 0, 41, 35
2, 12096, Note_on_c, 0, 60, 32
2, 12100, Control_c, 0, 64, 0
2, 12124, Control_c, 0, 64, 127
2, 12167, Note_on_c, 0, 48, 48
2, 12350, Note_on_c, 0, 60, 0
2, 12389, Note_on_c, 0, 48, 0
2, 12393, Note_on_c, 0, 63, 68
2, 12394, Note_on_c, 0, 52, 55
2, 12395, Note_on_c, 0, 67, 71
2, 12395, Note_on_c, 0, 58, 72
2, 12415, Control_c, 0, 64, 0
2, 12463, Control_c, 0, 64, 127
2, 12551, Note_on_c, 0, 52, 0
2, 12557, Note_on_c, 0, 58, 0
2, 12617, Note_on_c, 0, 63, 0
2, 12683, Note_on_c, 0, 67, 0
2, 12725, Note_on_c, 0, 66, 52
2, 12727, Note_on_c, 0, 57, 40
2, 12728, Note_on_c, 0, 62, 49
2, 12728, Note_on_c, 0, 51, 31
2, 12729, Control_c, 0, 64, 0
2, 12755, Control_c, 0, 64, 127
2, 12758, Note_on_c, 0, 41, 0
2, 12774, Note_on_c, 0, 51, 0
2, 12785, Note_on_c, 0, 57, 0
2, 12794, Note_on_c, 0, 62, 0
2, 12807, Note_on_c, 0, 66, 0
2, 12839, Note_on_c, 0, 65, 58
2, 12839, Note_on_c, 0, 61, 51
2, 12841, Note_on_c, 0, 56, 35
2, 12841, Note_on_c, 0, 46, 34
2, 12843, Control_c, 0, 64, 0
2, 12877, Control_c, 0, 64, 127
2, 12898, Note_on_c, 0, 56, 0
2, 12907, Note_on_c, 0, 65, 0
2, 12918, Note_on_c, 0, 61, 0
2, 12921, Note_on_c, 0, 53, 37
2, 12969, Note_on_c, 0, 57, 48
2, 12990, Note_on_c, 0, 53, 0
2, 12998, Note_on_c, 0, 46, 0
2, 13001, Note_on_c, 0, 61, 62
2, 13021, Note_on_c, 0, 61, 0
2, 13023, Note_on_c, 0, 57, 0
2, 13035, Note_on_c, 0, 65, 68
2, 13059, Note_on_c, 0, 65, 0
2, 13070, Note_on_c, 0, 72, 72
2, 13083, Note_on_c, 0, 72, 0
2, 13108, Note_on_c, 0, 77, 71
2, 13127, Note_on_c, 0, 77, 0
2, 13151, Note_on_c, 0, 84, 87
2, 13184, Note_on_c, 0, 84, 0
2, 13231, Note_on_c, 0, 84, 75
2, 13235, Note_on_c, 0, 65, 35
2, 13236, Note_on_c, 0, 61, 28
2, 13239, Note_on_c, 0, 60, 44
2, 13242, Control_c, 0, 64, 0
2, 13264, Control_c, 0, 64, 127
2, 13311, Note_on_c, 0, 84, 0
2, 13332, Note_on_c, 0, 84, 60
2, 13344, Note_on_c, 0, 60, 0
2, 13362, Note_on_c, 0, 65, 0
2, 13389, Note_on_c, 0, 84, 0
2, 13393, Note_on_c, 0, 61, 0
2, 13444, Note_on_c, 0, 57, 33
2, 13445, Note_on_c, 0, 84, 55
2, 13446, Note_on_c, 0, 61, 21
2, 13448, Note_on_c, 0, 65, 27
2, 13457, Control_c, 0, 64, 0
2, 13458, Control_c, 0, 64, 127
2, 13555, Note_on_c, 0, 84, 0
2, 13588, Note_on_c, 0, 57, 0
2, 13598, Note_on_c, 0, 56, 36
2, 13601, Note_on_c, 0, 82, 54
2, 13638, Note_on_c, 0, 65, 0
2, 13648, Note_on_c, 0, 61, 0
2, 13658, Note_on_c, 0, 56, 0
2, 13706, Note_on_c, 0, 82, 0
2, 14050, Note_on_c, 0, 61, 36
2, 14051, Note_on_c, 0, 70, 37
2, 14053, Note_on_c, 0, 65, 49
2, 14056, Note_on_c, 0, 58, 30
2, 14068, Control_c, 0, 64, 0
2, 14102, Control_c, 0, 64, 127
2, 14127, Note_on_c, 0, 51, 43
2, 14188, Note_on_c, 0, 51, 0
2, 14194, Note_on_c, 0, 61, 0
2, 14205, Note_on_c, 0, 51, 38
2, 14223, Note_on_c, 0, 65, 0
2, 14253, Note_on_c, 0, 51, 0
2, 14283, Note_on_c, 0, 51, 46
2, 14288, Note_on_c, 0, 70, 0
2, 14293, Note_on_c, 0, 58, 0
2, 14364, Note_on_c, 0, 75, 79
2, 14371, Note_on_c, 0, 51, 0
2, 14371, Note_on_c, 0, 63, 70
2, 14374, Note_on_c, 0, 64, 70
2, 14379, Control_c, 0, 64, 0
2, 14415, Control_c, 0, 64, 127
2, 14459, Note_on_c, 0, 64, 0
2, 14469, Note_on_c, 0, 75, 0
2, 14476, Note_on_c, 0, 63, 0
2, 14502, Note_on_c, 0, 75, 56
2, 14515, Note_on_c, 0, 64, 62
2, 14515, Note_on_c, 0, 63, 50
2, 14586, Note_on_c, 0, 63, 0
2, 14597, Note_on_c, 0, 64, 0
2, 14602, Note_on_c, 0, 75, 0
2, 14641, Note_on_c, 0, 75, 37
2, 14653, Note_on_c, 0, 63, 36
2, 14654, Note_on_c, 0, 64, 46
2, 14716, Note_on_c, 0, 75, 0
2, 14742, Note_on_c, 0, 63, 0
2, 14792, Note_on_c, 0, 64, 0
2, 14794, Note_on_c, 0, 73, 35
2, 14955, Note_on_c, 0, 73, 0
2, 15001, Note_on_c, 0, 73, 33
2, 15011, Note_on_c, 0, 49, 25
2, 15013, Note_on_c, 0, 64, 32
2, 15021, Control_c, 0, 64, 0
2, 15024, Note_on_c, 0, 59, 26
2, 15051, Control_c, 0, 64, 127
2, 15081, Note_on_c, 0, 49, 0
2, 15103, Note_on_c, 0, 49, 36
2, 15104, Note_on_c, 0, 59, 0
2, 15110, Note_on_c, 0, 64, 0
2, 15125, Note_on_c, 0, 73, 0
2, 15172, Note_on_c, 0, 59, 46
2, 15173, Note_on_c, 0, 64, 63
2, 15183, Note_on_c, 0, 59, 0
2, 15205, Note_on_c, 0, 49, 0
2, 15212, Note_on_c, 0, 64, 0
2, 15227, Note_on_c, 0, 73, 49
2, 15275, Note_on_c, 0, 73, 0
2, 15289, Note_on_c, 0, 73, 35
2, 15290, Note_on_c, 0, 30, 56
2, 15296, Control_c, 0, 64, 0
2, 15312, Note_on_c, 0, 30, 0
2, 15318, Control_c, 0, 64, 127
2, 15370, Note_on_c, 0, 58, 54
2, 15453, Note_on_c, 0, 68, 50
2, 15453, Note_on_c, 0, 72, 47
2, 15455, Note_on_c, 0, 63, 36
2, 15456, Note_on_c, 0, 64, 42
2, 15554, Note_on_c, 0, 72, 0
2, 15558, Note_on_c, 0, 73, 0
2, 15573, Note_on_c, 0, 68, 0
2, 15636, Note_on_c, 0, 64, 0
2, 15651, Note_on_c, 0, 63, 0
2, 15678, Note_on_c, 0, 72, 53
2, 15695, Note_on_c, 0, 58, 0
2, 15706, Note_on_c, 0, 72, 0
2, 15711, Note_on_c, 0, 71, 57
2, 15747, Note_on_c, 0, 71, 0
2, 15757, Note_on_c, 0, 72, 64
2, 15757, Note_on_c, 0, 65, 48
2, 15760, Note_on_c, 0, 60, 45
2, 15761, Note_on_c, 0, 61, 25
2, 15767, Control_c, 0, 64, 0
2, 15793, Control_c, 0, 64, 127
2, 15830, Note_on_c, 0, 65, 0
2, 15838, Note_on_c, 0, 60, 0
2, 15842, Note_on_c, 0, 61, 0
2, 15925, Note_on_c, 0, 72, 0
2, 15961, Note_on_c, 0, 72, 80
2, 15962, Note_on_c, 0, 34, 59
2, 15963, Note_on_c, 0, 68, 71
2, 15964, Note_on_c, 0, 46, 56
2, 15964, Note_on_c, 0, 63, 74
2, 15972, Control_c, 0, 64, 0
2, 15974, Control_c, 0, 64, 127
2, 15992, Note_on_c, 0, 34, 0
2, 15996, Note_on_c, 0, 46, 0
2, 15997, Note_on_c, 0, 68, 0
2, 15999, Note_on_c, 0, 72, 0
2, 16007, Note_on_c, 0, 63, 0
2, 16042, Note_on_c, 0, 70, 61
2, 16045, Note_on_c, 0, 67, 67
2, 16045, Note_on_c, 0, 48, 57
2, 16046, Control_c, 0, 64, 0
2, 16047, Note_on_c, 0, 63, 53
2, 16048, Note_on_c, 0, 36, 40
2, 16068, Control_c, 0, 64, 127
2, 16077, Note_on_c, 0, 67, 0
2, 16082, Note_on_c, 0, 63, 0
2, 16090, Note_on_c, 0, 36, 0
2, 16095, Note_on_c, 0, 48, 0
2, 16112, Note_on_c, 0, 70, 0
2, 16138, Note_on_c, 0, 68, 49
2, 16139, Note_on_c, 0, 61, 47
2, 16140, Control_c, 0, 64, 0
2, 16141, Note_on_c, 0, 49, 46
2, 16141, Note_on_c, 0, 65, 52
2, 16141, Note_on_c, 0, 37, 40
2, 16178, Control_c, 0, 64, 127
2, 16243, Note_on_c, 0, 61, 0
2, 16270, Note_on_c, 0, 61, 31
2, 16313, Note_on_c, 0, 65, 0
2, 16327, Note_on_c, 0, 68, 0
2, 16333, Note_on_c, 0, 61, 0
2, 16355, Note_on_c, 0, 37, 0
2, 16374, Note_on_c, 0, 49, 0
2, 16506, Note_on_c, 0, 39, 36
2, 16506, Note_on_c, 0, 61, 36
2, 16507, Note_on_c, 0, 67, 54
2, 16509, Control_c, 0, 64, 0
2, 16510, Note_on_c, 0, 59, 54
2, 16510, Note_on_c, 0, 55, 42
2, 16514, Note_on_c, 0, 51, 23
2, 16539, Control_c, 0, 64, 127
2, 16565, Note_on_c, 0, 39, 0
2, 16576, Note_on_c, 0, 67, 0
2, 16587, Note_on_c, 0, 55, 0
2, 16596, Note_on_c, 0, 51, 0
2, 16599, Note_on_c, 0, 67, 55
2, 16603, Note_on_c, 0, 59, 0
2, 16604, Note_on_c, 0, 61, 0
2, 16667, Note_on_c, 0, 67, 0
2, 16709, Note_on_c, 0, 67, 53
2, 16717, Note_on_c, 0, 44, 33
2, 16718, Control_c, 0, 64, 0
2, 16750, Control_c, 0, 64, 127
2, 16783, Note_on_c, 0, 44, 0
2, 16785, Note_on_c, 0, 55, 44
2, 16786, Note_on_c, 0, 67, 0
2, 16800, Note_on_c, 0, 55, 0
2, 16844, Note_on_c, 0, 58, 43
2, 16848, Note_on_c, 0, 67, 48
2, 16909, Note_on_c, 0, 79, 64
2, 16915, Note_on_c, 0, 60, 35
2, 16953, Note_on_c, 0, 67, 0
2, 16960, Note_on_c, 0, 60, 0
2, 16961, Note_on_c, 0, 79, 0
2, 16989, Note_on_c, 0, 67, 33
2, 16989, Note_on_c, 0, 63, 27
2, 16989, Note_on_c, 0, 72, 42
2, 17067, Note_on_c, 0, 63, 0
2, 17070, Note_on_c, 0, 72, 0
2, 17081, Note_on_c, 0, 67, 0
2, 17132, Note_on_c, 0, 63, 26
2, 17167, Note_on_c, 0, 67, 44
2, 17185, Note_on_c, 0, 67, 0
2, 17197, Note_on_c, 0, 68, 37
2, 17215, Note_on_c, 0, 68, 0
2, 17221, Note_on_c, 0, 70, 46
2, 17236, Note_on_c, 0, 70, 0
2, 17250, Note_on_c, 0, 72, 54
2, 17268, Note_on_c, 0, 72, 0
2, 17269, Note_on_c, 0, 73, 39
2, 17301, Note_on_c, 0, 73, 0
2, 17303, Note_on_c, 0, 75, 32
2, 17311, Note_on_c, 0, 75, 0
2, 17323, Note_on_c, 0, 76, 41
2, 17333, Note_on_c, 0, 76, 0
2, 17358, Note_on_c, 0, 77, 54
2, 17362, Note_on_c, 0, 63, 0
2, 17381, Note_on_c, 0, 77, 0
2, 17404, Note_on_c, 0, 78, 59
2, 17423, Note_on_c, 0, 78, 0
2, 17437, Note_on_c, 0, 79, 65
2, 17465, Note_on_c, 0, 80, 57
2, 17466, Note_on_c, 0, 79, 0
2, 17479, Note_on_c, 0, 58, 0
2, 17500, Note_on_c, 0, 81, 44
2, 17505, Note_on_c, 0, 80, 0
2, 17517, Note_on_c, 0, 81, 0
2, 17531, Note_on_c, 0, 86, 55
2, 17531, Note_on_c, 0, 84, 54
2, 17548, Note_on_c, 0, 86, 0
2, 17576, Note_on_c, 0, 84, 0
2, 17576, Note_on_c, 0, 81, 54
2, 17607, Note_on_c, 0, 81, 0
2, 17617, Note_on_c, 0, 83, 65
2, 17656, Note_on_c, 0, 83, 0
2, 17656, Note_on_c, 0, 81, 50
2, 17688, Note_on_c, 0, 81, 0
2, 17699, Note_on_c, 0, 61, 40
2, 17700, Note_on_c, 0, 51, 60
2, 17703, Note_on_c, 0, 82, 52
2, 17705, Note_on_c, 0, 56, 41
2, 17715, Control_c, 0, 64, 0
2, 17749, Control_c, 0, 64, 127
2, 17786, Note_on_c, 0, 56, 0
2, 17790, Note_on_c, 0, 73, 26
2, 17819, Note_on_c, 0, 61, 0
2, 17820, Note_on_c, 0, 51, 0
2, 17851, Note_on_c, 0, 73, 0
2, 17873, Note_on_c, 0, 73, 25
2, 17876, Note_on_c, 0, 77, 38
2, 17877, Note_on_c, 0, 63, 42
2, 17931, Note_on_c, 0, 82, 0
2, 17934, Note_on_c, 0, 63, 0
2, 17935, Note_on_c, 0, 77, 0
2, 17946, Note_on_c, 0, 73, 0
2, 17955, Note_on_c, 0, 63, 45
2, 17972, Note_on_c, 0, 63, 0
2, 18043, Note_on_c, 0, 61, 30
2, 18047, Note_on_c, 0, 65, 48
2, 18053, Note_on_c, 0, 51, 27
2, 18057, Note_on_c, 0, 70, 19
2, 18060, Control_c, 0, 64, 0
2, 18086, Control_c, 0, 64, 127
2, 18139, Note_on_c, 0, 58, 30
2, 18163, Note_on_c, 0, 61, 0
2, 18185, Note_on_c, 0, 65, 0
2, 18199, Note_on_c, 0, 70, 0
2, 18211, Note_on_c, 0, 72, 62
2, 18236, Note_on_c, 0, 72, 0
2, 18256, Note_on_c, 0, 73, 64
2, 18286, Note_on_c, 0, 73, 0
2, 18319, Note_on_c, 0, 58, 0
2, 18344, Note_on_c, 0, 75, 62
2, 18350, Note_on_c, 0, 70, 56
2, 18353, Note_on_c, 0, 67, 53
2, 18355, Note_on_c, 0, 63, 43
2, 18362, Control_c, 0, 64, 0
2, 18368, Note_on_c, 0, 64, 11
2, 18404, Control_c, 0, 64, 127
2, 18414, Note_on_c, 0, 63, 0
2, 18420, Note_on_c, 0, 67, 0
2, 18440, Note_on_c, 0, 63, 39
2, 18480, Note_on_c, 0, 63, 0
2, 18488, Note_on_c, 0, 51, 0
2, 18525, Note_on_c, 0, 63, 37
2, 18526, Note_on_c, 0, 64, 0
2, 18538, Note_on_c, 0, 70, 0
2, 18566, Note_on_c, 0, 63, 0
2, 18574, Note_on_c, 0, 75, 0
2, 18621, Note_on_c, 0, 63, 36
2, 18665, Note_on_c, 0, 63, 0
2, 18702, Note_on_c, 0, 87, 67
2, 18709, Note_on_c, 0, 63, 36
2, 18716, Note_on_c, 0, 76, 44
2, 18731, Note_on_c, 0, 87, 0
2, 18737, Note_on_c, 0, 76, 0
2, 18748, Note_on_c, 0, 63, 0
2, 18806, Note_on_c, 0, 75, 55
2, 18815, Note_on_c, 0, 63, 42
2, 18819, Note_on_c, 0, 64, 55
2, 18879, Note_on_c, 0, 64, 0
2, 18881, Note_on_c, 0, 63, 0
2, 18887, Note_on_c, 0, 75, 0
2, 18906, Note_on_c, 0, 75, 60
2, 18917, Note_on_c, 0, 63, 43
2, 18922, Note_on_c, 0, 64, 61
2, 18958, Note_on_c, 0, 63, 0
2, 18978, Note_on_c, 0, 75, 0
2, 18988, Note_on_c, 0, 64, 0
2, 19002, Note_on_c, 0, 73, 33
2, 19006, Note_on_c, 0, 63, 40
2, 19034, Note_on_c, 0, 63, 0
2, 19055, Note_on_c, 0, 73, 0
2, 19081, Note_on_c, 0, 72, 60
2, 19082, Note_on_c, 0, 63, 40
2, 19096, Control_c, 0, 64, 0
2, 19121, Control_c, 0, 64, 127
2, 19148, Note_on_c, 0, 63, 0
2, 19162, Note_on_c, 0, 67, 40
2, 19165, Note_on_c, 0, 60, 27
2, 19165, Note_on_c, 0, 63, 34
2, 19221, Note_on_c, 0, 63, 0
2, 19253, Note_on_c, 0, 60, 0
2, 19256, Note_on_c, 0, 67, 0
2, 19259, Note_on_c, 0, 63, 34
2, 19311, Note_on_c, 0, 63, 0
2, 19343, Note_on_c, 0, 63, 31
2, 19396, Note_on_c, 0, 63, 0
2, 19431, Note_on_c, 0, 63, 34
2, 19434, Note_on_c, 0, 72, 0
2, 19500, Note_on_c, 0, 63, 0
2, 19535, Note_on_c, 0, 63, 32
2, 19588, Note_on_c, 0, 63, 0
2, 19638, Note_on_c, 0, 63, 32
2, 19739, Note_on_c, 0, 63, 0
2, 19756, Note_on_c, 0, 82, 63
2, 19764, Note_on_c, 0, 63, 45
2, 19765, Note_on_c, 0, 79, 55
2, 19765, Note_on_c, 0, 75, 61
2, 19770, Note_on_c, 0, 72, 57
2, 19818, Note_on_c, 0, 63, 0
2, 19850, Note_on_c, 0, 63, 37
2, 19882, Note_on_c, 0, 72, 0
2, 19898, Note_on_c, 0, 63, 0
2, 19923, Note_on_c, 0, 79, 0
2, 19933, Note_on_c, 0, 82, 0
2, 19933, Note_on_c, 0, 63, 51
2, 19943, Note_on_c, 0, 75, 0
2, 19979, Note_on_c, 0, 63, 0
2, 20001, Note_on_c, 0, 63, 60
2, 20023, Note_on_c, 0, 63, 0
2, 20074, Note_on_c, 0, 68, 76
2, 20075, Note_on_c, 0, 65, 80
2, 20076, Note_on_c, 0, 61, 78
2, 20076, Note_on_c, 0, 54, 59
2, 20077, Note_on_c, 0, 58, 63
2, 20078, Note_on_c, 0, 56, 64
2, 20089, Control_c, 0, 64, 0
2, 20117, Control_c, 0, 64, 127
2, 20162, Note_on_c, 0, 65, 0
2, 20163, Note_on_c, 0, 58, 0
2, 20166, Note_on_c, 0, 61, 0
2, 20167, Note_on_c, 0, 68, 0
2, 20170, Note_on_c, 0, 56, 0
2, 20172, Note_on_c, 0, 54, 0
2, 20181, Note_on_c, 0, 57, 74
2, 20182, Note_on_c, 0, 64, 78
2, 20182, Note_on_c, 0, 67, 78
2, 20183, Note_on_c, 0, 60, 78
2, 20184, Note_on_c, 0, 53, 66
2, 20184, Note_on_c, 0, 55, 71
2, 20190, Control_c, 0, 64, 0
2, 20214, Control_c, 0, 64, 127
2, 20239, Note_on_c, 0, 55, 0
2, 20251, Note_on_c, 0, 53, 0
2, 20252, Note_on_c, 0, 57, 0
2, 20260, Note_on_c, 0, 60, 0
2, 20262, Note_on_c, 0, 67, 0
2, 20267, Note_on_c, 0, 64, 0
2, 20292, Note_on_c, 0, 54, 57
2, 20294, Note_on_c, 0, 63, 71
2, 20294, Note_on_c, 0, 66, 67
2, 20295, Note_on_c, 0, 56, 51
2, 20295, Note_on_c, 0, 59, 74
2, 20296, Note_on_c, 0, 52, 54
2, 20302, Control_c, 0, 64, 0
2, 20338, Control_c, 0, 64, 127
2, 20363, Note_on_c, 0, 52, 0
2, 20371, Note_on_c, 0, 56, 0
2, 20373, Note_on_c, 0, 59, 0
2, 20378, Note_on_c, 0, 66, 0
2, 20380, Note_on_c, 0, 54, 0
2, 20389, Note_on_c, 0, 63, 0
2, 20432, Note_on_c, 0, 58, 53
2, 20434, Note_on_c, 0, 62, 55
2, 20436, Note_on_c, 0, 65, 53
2, 20437, Note_on_c, 0, 55, 47
2, 20438, Note_on_c, 0, 51, 31
2, 20440, Control_c, 0, 64, 0
2, 20441, Note_on_c, 0, 53, 48
2, 20484, Control_c, 0, 64, 127
2, 20629, Note_on_c, 0, 58, 0
2, 20670, Note_on_c, 0, 62, 0
2, 20693, Note_on_c, 0, 58, 44
2, 20719, Note_on_c, 0, 55, 0
2, 20728, Note_on_c, 0, 53, 0
2, 20736, Note_on_c, 0, 51, 0
2, 20747, Note_on_c, 0, 62, 55
2, 20751, Note_on_c, 0, 65, 0
2, 20777, Note_on_c, 0, 58, 0
2, 20791, Note_on_c, 0, 65, 51
2, 20793, Note_on_c, 0, 62, 0
2, 20830, Note_on_c, 0, 65, 0
2, 20843, Note_on_c, 0, 57, 43
2, 20845, Note_on_c, 0, 61, 37
2, 20845, Note_on_c, 0, 63, 37
2, 20847, Note_on_c, 0, 41, 36
2, 20848, Note_on_c, 0, 51, 18
2, 20853, Control_c, 0, 64, 0
2, 20883, Note_on_c, 0, 57, 0
2, 20883, Control_c, 0, 64, 127
2, 20895, Note_on_c, 0, 61, 0
2, 20901, Note_on_c, 0, 63, 0
2, 20905, Note_on_c, 0, 51, 0
2, 20907, Note_on_c, 0, 48, 48
2, 20915, Note_on_c, 0, 41, 0
2, 20924, Note_on_c, 0, 48, 0
2, 20974, Note_on_c, 0, 69, 66
2, 20975, Note_on_c, 0, 61, 37
2, 21032, Note_on_c, 0, 69, 0
2, 21041, Note_on_c, 0, 79, 69
2, 21044, Note_on_c, 0, 65, 44
2, 21044, Note_on_c, 0, 69, 28
2, 21132, Note_on_c, 0, 77, 64
2, 21145, Note_on_c, 0, 79, 0
2, 21199, Note_on_c, 0, 65, 0
2, 21203, Note_on_c, 0, 69, 0
2, 21207, Note_on_c, 0, 77, 0
2, 21239, Note_on_c, 0, 69, 74
2, 21299, Note_on_c, 0, 69, 0
2, 21324, Note_on_c, 0, 69, 73
2, 21361, Note_on_c, 0, 61, 0
2, 21387, Note_on_c, 0, 69, 0
2, 21398, Note_on_c, 0, 69, 69
2, 21450, Note_on_c, 0, 69, 0
2, 21472, Note_on_c, 0, 70, 75
2, 21473, Note_on_c, 0, 65, 45
2, 21473, Note_on_c, 0, 61, 37
2, 21477, Note_on_c, 0, 60, 47
2, 21484, Control_c, 0, 64, 0
2, 21520, Control_c, 0, 64, 127
2, 21538, Note_on_c, 0, 65, 0
2, 21547, Note_on_c, 0, 60, 0
2, 21551, Note_on_c, 0, 61, 0
2, 21679, Note_on_c, 0, 51, 61
2, 21776, Note_on_c, 0, 51, 0
2, 21783, Note_on_c, 0, 70, 0
2, 21792, Note_on_c, 0, 61, 44
2, 21792, Note_on_c, 0, 51, 42
2, 21793, Note_on_c, 0, 65, 58
2, 21829, Note_on_c, 0, 61, 0
2, 21842, Note_on_c, 0, 65, 0
2, 21877, Note_on_c, 0, 72, 75
2, 21880, Note_on_c, 0, 68, 60
2, 21881, Note_on_c, 0, 63, 63
2, 21909, Note_on_c, 0, 63, 0
2, 21910, Note_on_c, 0, 72, 0
2, 21932, Note_on_c, 0, 68, 0
2, 21943, Note_on_c, 0, 73, 61
2, 21976, Note_on_c, 0, 73, 0
2, 22191, Note_on_c, 0, 75, 76
2, 22196, Note_on_c, 0, 63, 72
2, 22199, Note_on_c, 0, 64, 84
2, 22212, Control_c, 0, 64, 0
2, 22213, Note_on_c, 0, 51, 0
2, 22246, Control_c, 0, 64, 127
2, 22296, Note_on_c, 0, 63, 0
2, 22348, Note_on_c, 0, 63, 39
2, 22393, Note_on_c, 0, 63, 0
2, 22414, Note_on_c, 0, 64, 0
2, 22425, Note_on_c, 0, 75, 0
2, 22449, Note_on_c, 0, 76, 77
2, 22453, Note_on_c, 0, 63, 63
2, 22455, Note_on_c, 0, 64, 84
2, 22551, Note_on_c, 0, 63, 0
2, 22592, Note_on_c, 0, 63, 39
2, 22655, Note_on_c, 0, 63, 0
2, 22694, Note_on_c, 0, 63, 31
2, 22710, Note_on_c, 0, 76, 0
2, 22742, Note_on_c, 0, 63, 0
2, 22754, Note_on_c, 0, 64, 0
2, 22760, Note_on_c, 0, 75, 58
2, 22862, Note_on_c, 0, 75, 0
2, 22884, Note_on_c, 0, 75, 51
2, 22887, Note_on_c, 0, 51, 25
2, 22888, Note_on_c, 0, 70, 46
2, 22891, Note_on_c, 0, 65, 19
2, 22896, Control_c, 0, 64, 0
2, 22918, Control_c, 0, 64, 127
2, 22956, Note_on_c, 0, 75, 0
2, 22957, Note_on_c, 0, 70, 0
2, 22959, Note_on_c, 0, 58, 30
2, 22968, Note_on_c, 0, 65, 0
2, 23019, Note_on_c, 0, 58, 0
2, 23020, Note_on_c, 0, 63, 33
2, 23028, Note_on_c, 0, 60, 19
2, 23087, Note_on_c, 0, 72, 64
2, 23164, Note_on_c, 0, 51, 0
2, 23175, Note_on_c, 0, 72, 0
2, 23181, Note_on_c, 0, 60, 0
2, 23188, Note_on_c, 0, 70, 57
2, 23190, Note_on_c, 0, 63, 0
2, 23193, Note_on_c, 0, 52, 42
2, 23225, Control_c, 0, 64, 0
2, 23253, Note_on_c, 0, 58, 30
2, 23283, Control_c, 0, 64, 127
2, 23295, Note_on_c, 0, 61, 44
2, 23335, Note_on_c, 0, 64, 40
2, 23342, Note_on_c, 0, 70, 0
2, 23354, Note_on_c, 0, 64, 0
2, 23366, Note_on_c, 0, 67, 32
2, 23391, Note_on_c, 0, 52, 0
2, 23394, Note_on_c, 0, 70, 67
2, 23400, Note_on_c, 0, 67, 0
2, 23413, Note_on_c, 0, 70, 0
2, 23416, Note_on_c, 0, 58, 0
2, 23416, Note_on_c, 0, 61, 0
2, 23428, Note_on_c, 0, 72, 80
2, 23449, Note_on_c, 0, 72, 0
2, 23463, Note_on_c, 0, 70, 78
2, 23488, Note_on_c, 0, 70, 0
2, 23502, Note_on_c, 0, 68, 70
2, 23524, Note_on_c, 0, 68, 0
2, 23541, Note_on_c, 0, 67, 68
2, 23551, Note_on_c, 0, 60, 32
2, 23552, Note_on_c, 0, 53, 24
2, 23554, Control_c, 0, 64, 0
2, 23566, Note_on_c, 0, 67, 0
2, 23573, Note_on_c, 0, 68, 36
2, 23592, Note_on_c, 0, 67, 52
2, 23602, Note_on_c, 0, 68, 0
2, 23616, Note_on_c, 0, 67, 0
2, 23619, Note_on_c, 0, 65, 53
2, 23637, Note_on_c, 0, 65, 0
2, 23650, Note_on_c, 0, 64, 33
2, 23667, Note_on_c, 0, 64, 0
2, 23677, Note_on_c, 0, 67, 55
2, 23702, Note_on_c, 0, 67, 0
2, 23705, Note_on_c, 0, 64, 44
2, 23716, Note_on_c, 0, 64, 0
2, 23740, Note_on_c, 0, 65, 64
2, 23752, Note_on_c, 0, 60, 0
2, 23804, Control_c, 0, 64, 127
2, 23806, Note_on_c, 0, 65, 0
2, 23806, Note_on_c, 0, 63, 51
2, 23830, Note_on_c, 0, 53, 0
2, 23847, Note_on_c, 0, 63, 0
2, 23856, Note_on_c, 0, 60, 53
2, 23883, Note_on_c, 0, 60, 0
2, 23904, Note_on_c, 0, 58, 55
2, 23946, Note_on_c, 0, 58, 0
2, 23959, Note_on_c, 0, 56, 49
2, 23963, Note_on_c, 0, 43, 38
2, 23973, Control_c, 0, 64, 0
2, 23986, Note_on_c, 0, 56, 0
2, 24002, Note_on_c, 0, 58, 25
2, 24011, Note_on_c, 0, 56, 35
2, 24028, Note_on_c, 0, 58, 0
2, 24042, Note_on_c, 0, 56, 0
2, 24043, Note_on_c, 0, 55, 36
2, 24075, Note_on_c, 0, 55, 0
2, 24079, Note_on_c, 0, 54, 51
2, 24099, Note_on_c, 0, 54, 0
2, 24111, Note_on_c, 0, 56, 55
2, 24151, Note_on_c, 0, 56, 0
2, 24152, Note_on_c, 0, 54, 43
2, 24170, Note_on_c, 0, 54, 0
2, 24189, Note_on_c, 0, 55, 34
2, 24246, Note_on_c, 0, 55, 0
2, 24249, Note_on_c, 0, 50, 53
2, 24270, Control_c, 0, 64, 127
2, 24308, Note_on_c, 0, 50, 0
2, 24328, Note_on_c, 0, 50, 53
2, 24390, Note_on_c, 0, 50, 0
2, 24406, Note_on_c, 0, 53, 39
2, 24451, Note_on_c, 0, 53, 0
2, 24468, Note_on_c, 0, 53, 46
2, 24487, Note_on_c, 0, 43, 0
2, 24511, Note_on_c, 0, 53, 0
2, 24518, Note_on_c, 0, 55, 69
2, 24551, Note_on_c, 0, 55, 0
2, 24577, Note_on_c, 0, 55, 66
2, 24579, Note_on_c, 0, 36, 44
2, 24588, Control_c, 0, 64, 0
2, 24616, Control_c, 0, 64, 127
2, 24620, Note_on_c, 0, 55, 0
2, 24624, Note_on_c, 0, 43, 40
2, 24654, Note_on_c, 0, 52, 39
2, 24655, Note_on_c, 0, 36, 0
2, 24681, Note_on_c, 0, 55, 56
2, 24692, Note_on_c, 0, 55, 0
2, 24704, Note_on_c, 0, 57, 55
2, 24711, Note_on_c, 0, 57, 0
2, 24731, Note_on_c, 0, 60, 58
2, 24745, Note_on_c, 0, 60, 0
2, 24745, Note_on_c, 0, 62, 66
2, 24749, Note_on_c, 0, 43, 0
2, 24762, Note_on_c, 0, 62, 0
2, 24765, Note_on_c, 0, 52, 0
2, 24770, Note_on_c, 0, 64, 45
2, 24778, Note_on_c, 0, 64, 0
2, 24786, Note_on_c, 0, 67, 73
2, 24806, Note_on_c, 0, 67, 0
2, 24806, Note_on_c, 0, 69, 68
2, 24813, Note_on_c, 0, 69, 0
2, 24830, Note_on_c, 0, 72, 62
2, 24845, Note_on_c, 0, 74, 59
2, 24847, Note_on_c, 0, 72, 0
2, 24863, Note_on_c, 0, 76, 55
2, 24866, Note_on_c, 0, 74, 0
2, 24880, Note_on_c, 0, 76, 0
2, 24885, Note_on_c, 0, 79, 45
2, 24892, Note_on_c, 0, 79, 0
2, 24914, Note_on_c, 0, 81, 33
2, 24923, Note_on_c, 0, 81, 0
2, 24983, Note_on_c, 0, 67, 26
2, 24989, Note_on_c, 0, 62, 19
2, 24990, Note_on_c, 0, 64, 27
2, 25033, Note_on_c, 0, 84, 33
2, 25041, Note_on_c, 0, 67, 0
2, 25046, Note_on_c, 0, 84, 0
2, 25047, Note_on_c, 0, 64, 0
2, 25049, Note_on_c, 0, 86, 49
2, 25054, Note_on_c, 0, 62, 0
2, 25072, Note_on_c, 0, 86, 0
2, 25073, Note_on_c, 0, 88, 34
2, 25083, Note_on_c, 0, 91, 64
2, 25084, Note_on_c, 0, 88, 0
2, 25097, Note_on_c, 0, 91, 0
2, 25119, Note_on_c, 0, 96, 77
2, 25120, Note_on_c, 0, 95, 77
2, 25136, Note_on_c, 0, 95, 0
2, 25138, Note_on_c, 0, 96, 0
2, 25163, Note_on_c, 0, 94, 81
2, 25193, Note_on_c, 0, 94, 0
2, 25200, Note_on_c, 0, 92, 67
2, 25221, Note_on_c, 0, 90, 44
2, 25223, Note_on_c, 0, 92, 0
2, 25247, Note_on_c, 0, 90, 0
2, 25252, Note_on_c, 0, 88, 36
2, 25261, Note_on_c, 0, 88, 0
2, 25273, Note_on_c, 0, 87, 25
2, 25291, Note_on_c, 0, 87, 0
2, 25295, Note_on_c, 0, 86, 49
2, 25309, Note_on_c, 0, 86, 0
2, 25317, Note_on_c, 0, 85, 34
2, 25330, Note_on_c, 0, 85, 0
2, 25340, Note_on_c, 0, 84, 54
2, 25347, Note_on_c, 0, 84, 0
2, 25351, Note_on_c, 0, 61, 33
2, 25351, Note_on_c, 0, 66, 21
2, 25355, Note_on_c, 0, 55, 34
2, 25368, Note_on_c, 0, 82, 37
2, 25375, Control_c, 0, 64, 0
2, 25401, Note_on_c, 0, 82, 0
2, 25407, Note_on_c, 0, 78, 38
2, 25425, Note_on_c, 0, 78, 0
2, 25467, Note_on_c, 0, 75, 37
2, 25488, Note_on_c, 0, 55, 0
2, 25488, Note_on_c, 0, 66, 0
2, 25489, Control_c, 0, 64, 127
2, 25490, Note_on_c, 0, 75, 0
2, 25497, Note_on_c, 0, 73, 35
2, 25502, Note_on_c, 0, 61, 0
2, 25527, Note_on_c, 0, 73, 0
2, 25536, Note_on_c, 0, 72, 47
2, 25549, Note_on_c, 0, 72, 0
2, 25579, Note_on_c, 0, 70, 55
2, 25602, Note_on_c, 0, 70, 0
2, 25653, Note_on_c, 0, 64, 37
2, 25700, Note_on_c, 0, 64, 0
2, 25712, Note_on_c, 0, 61, 45
2, 25751, Note_on_c, 0, 61, 0
2, 25764, Note_on_c, 0, 60, 34
2, 25790, Note_on_c, 0, 60, 0
2, 25822, Note_on_c, 0, 58, 49
2, 25827, Note_on_c, 0, 30, 33
2, 25828, Note_on_c, 0, 42, 31
2, 25854, Control_c, 0, 64, 0
2, 25890, Note_on_c, 0, 54, 45
2, 25899, Note_on_c, 0, 58, 0
2, 25940, Control_c, 0, 64, 127
2, 25957, Note_on_c, 0, 52, 36
2, 25959, Note_on_c, 0, 54, 0
2, 26029, Control_c, 0, 64, 0
2, 26035, Control_c, 0, 64, 127
2, 26036, Note_on_c, 0, 51, 33
2, 26044, Note_on_c, 0, 52, 0
2, 26109, Control_c, 0, 64, 0
2, 26132, Note_on_c, 0, 49, 25
2, 26133, Note_on_c, 0, 51, 0
2, 26143, Control_c, 0, 64, 127
2, 26231, Note_on_c, 0, 49, 0
2, 26241, Note_on_c, 0, 30, 0
2, 26280, Note_on_c, 0, 30, 33
2, 26342, Note_on_c, 0, 30, 0
2, 26353, Note_on_c, 0, 42, 0
2, 26372, Note_on_c, 0, 72, 48
2, 26406, Note_on_c, 0, 72, 0
2, 26413, Note_on_c, 0, 79, 63
2, 26445, Note_on_c, 0, 79, 0
2, 26455, Note_on_c, 0, 72, 45
2, 26456, Note_on_c, 0, 53, 28
2, 26464, Control_c, 0, 64, 0
2, 26494, Control_c, 0, 64, 127
2, 26523, Note_on_c, 0, 60, 18
2, 26560, Note_on_c, 0, 72, 0
2, 26562, Note_on_c, 0, 65, 34
2, 26580, Note_on_c, 0, 65, 0
2, 26627, Note_on_c, 0, 72, 49
2, 26632, Note_on_c, 0, 53, 0
2, 26649, Note_on_c, 0, 72, 0
2, 26653, Note_on_c, 0, 79, 61
2, 26675, Note_on_c, 0, 60, 0
2, 26682, Note_on_c, 0, 73, 44
2, 26687, Note_on_c, 0, 53, 27
2, 26692, Note_on_c, 0, 79, 0
2, 26694, Control_c, 0, 64, 0
2, 26728, Control_c, 0, 64, 127
2, 26733, Note_on_c, 0, 61, 33
2, 26764, Note_on_c, 0, 73, 0
2, 26778, Note_on_c, 0, 65, 16
2, 26788, Note_on_c, 0, 65, 0
2, 26806, Note_on_c, 0, 73, 33
2, 26831, Note_on_c, 0, 73, 0
2, 26846, Note_on_c, 0, 53, 0
2, 26892, Note_on_c, 0, 53, 30
2, 26901, Note_on_c, 0, 61, 0
2, 26947, Note_on_c, 0, 61, 31
2, 26985, Note_on_c, 0, 72, 63
2, 27002, Note_on_c, 0, 73, 46
2, 27005, Note_on_c, 0, 72, 0
2, 27020, Note_on_c, 0, 73, 0
2, 27021, Note_on_c, 0, 53, 0
2, 27022, Note_on_c, 0, 72, 40
2, 27035, Note_on_c, 0, 72, 0
2, 27037, Note_on_c, 0, 73, 35
2, 27052, Note_on_c, 0, 73, 0
2, 27055, Note_on_c, 0, 72, 27
2, 27064, Note_on_c, 0, 72, 0
2, 27068, Note_on_c, 0, 73, 36
2, 27089, Note_on_c, 0, 72, 36
2, 27095, Note_on_c, 0, 73, 0
2, 27108, Note_on_c, 0, 72, 0
2, 27109, Note_on_c, 0, 71, 62
2, 27119, Note_on_c, 0, 71, 0
2, 27123, Note_on_c, 0, 61, 0
2, 27130, Note_on_c, 0, 73, 31
2, 27133, Note_on_c, 0, 53, 49
2, 27135, Note_on_c, 0, 72, 66
2, 27138, Note_on_c, 0, 73, 0
2, 27144, Control_c, 0, 64, 0
2, 27178, Control_c, 0, 64, 127
2, 27207, Note_on_c, 0, 53, 0
2, 27279, Note_on_c, 0, 53, 60
2, 27337, Note_on_c, 0, 65, 61
2, 27364, Note_on_c, 0, 72, 0
2, 27365, Note_on_c, 0, 65, 0
2, 27379, Note_on_c, 0, 70, 69
2, 27404, Note_on_c, 0, 53, 0
2, 27408, Note_on_c, 0, 70, 0
2, 27431, Note_on_c, 0, 67, 68
2, 27431, Note_on_c, 0, 53, 39
2, 27432, Note_on_c, 0, 64, 61
2, 27440, Control_c, 0, 64, 0
2, 27477, Control_c, 0, 64, 127
2, 27489, Note_on_c, 0, 64, 0
2, 27491, Note_on_c, 0, 60, 35
2, 27493, Note_on_c, 0, 67, 0
2, 27547, Note_on_c, 0, 72, 62
2, 27547, Note_on_c, 0, 67, 66
2, 27550, Note_on_c, 0, 64, 44
2, 27581, Note_on_c, 0, 60, 0
2, 27604, Note_on_c, 0, 79, 74
2, 27614, Note_on_c, 0, 60, 40
2, 27645, Note_on_c, 0, 79, 0
2, 27648, Note_on_c, 0, 53, 0
2, 27653, Note_on_c, 0, 67, 0
2, 27663, Note_on_c, 0, 60, 0
2, 27665, Note_on_c, 0, 77, 63
2, 27668, Note_on_c, 0, 64, 0
2, 27669, Note_on_c, 0, 53, 57
2, 27675, Control_c, 0, 64, 0
2, 27711, Control_c, 0, 64, 127
2, 27729, Note_on_c, 0, 60, 50
2, 27785, Note_on_c, 0, 65, 47
2, 27787, Note_on_c, 0, 68, 63
2, 27838, Note_on_c, 0, 68, 0
2, 27839, Note_on_c, 0, 77, 0
2, 27851, Note_on_c, 0, 53, 0
2, 27855, Note_on_c, 0, 72, 0
2, 27862, Note_on_c, 0, 79, 68
2, 27923, Note_on_c, 0, 79, 0
2, 27950, Note_on_c, 0, 79, 64
2, 27953, Note_on_c, 0, 65, 0
2, 27954, Note_on_c, 0, 53, 40
2, 28014, Note_on_c, 0, 53, 0
2, 28019, Note_on_c, 0, 79, 0
2, 28046, Note_on_c, 0, 53, 54
2, 28050, Note_on_c, 0, 60, 0
2, 28076, Note_on_c, 0, 53, 0
2, 28279, Note_on_c, 0, 67, 82
2, 28280, Note_on_c, 0, 63, 72
2, 28281, Note_on_c, 0, 58, 83
2, 28281, Note_on_c, 0, 52, 79
2, 28297, Control_c, 0, 64, 0
2, 28331, Control_c, 0, 64, 127
2, 28649, Note_on_c, 0, 58, 0
2, 28659, Note_on_c, 0, 52, 0
2, 28676, Note_on_c, 0, 63, 0
2, 28685, Note_on_c, 0, 67, 0
2, 28717, Note_on_c, 0, 65, 59
2, 28717, Note_on_c, 0, 61, 55
2, 28718, Note_on_c, 0, 52, 36
2, 28720, Note_on_c, 0, 56, 37
2, 28726, Control_c, 0, 64, 0
2, 28746, Note_on_c, 0, 52, 0
2, 28748, Control_c, 0, 64, 127
2, 28777, Note_on_c, 0, 56, 0
2, 28789, Note_on_c, 0, 65, 0
2, 28800, Note_on_c, 0, 61, 0
2, 28827, Note_on_c, 0, 65, 49
2, 28830, Note_on_c, 0, 56, 36
2, 28830, Note_on_c, 0, 60, 57
2, 28831, Note_on_c, 0, 46, 35
2, 28836, Control_c, 0, 64, 0
2, 28862, Control_c, 0, 64, 127
2, 28877, Note_on_c, 0, 65, 0
2, 28878, Note_on_c, 0, 60, 0
2, 28889, Note_on_c, 0, 56, 0
2, 28897, Note_on_c, 0, 53, 40
2, 28944, Note_on_c, 0, 53, 0
2, 28946, Note_on_c, 0, 57, 51
2, 28984, Note_on_c, 0, 61, 63
2, 28987, Note_on_c, 0, 46, 0
2, 29005, Note_on_c, 0, 61, 0
2, 29011, Note_on_c, 0, 57, 0
2, 29021, Note_on_c, 0, 65, 70
2, 29054, Note_on_c, 0, 65, 0
2, 29063, Note_on_c, 0, 72, 70
2, 29093, Note_on_c, 0, 72, 0
2, 29105, Note_on_c, 0, 65, 42
2, 29107, Note_on_c, 0, 72, 64
2, 29107, Note_on_c, 0, 60, 40
2, 29112, Note_on_c, 0, 61, 27
2, 29114, Control_c, 0, 64, 0
2, 29150, Control_c, 0, 64, 127
2, 29151, Note_on_c, 0, 72, 0
2, 29162, Note_on_c, 0, 69, 39
2, 29174, Note_on_c, 0, 60, 0
2, 29184, Note_on_c, 0, 69, 0
2, 29187, Note_on_c, 0, 65, 0
2, 29205, Note_on_c, 0, 70, 55
2, 29205, Note_on_c, 0, 57, 48
2, 29207, Note_on_c, 0, 65, 31
2, 29208, Control_c, 0, 64, 0
2, 29226, Note_on_c, 0, 70, 0
2, 29247, Note_on_c, 0, 72, 54
2, 29257, Note_on_c, 0, 65, 0
2, 29262, Note_on_c, 0, 61, 0
2, 29268, Note_on_c, 0, 72, 0
2, 29281, Note_on_c, 0, 73, 33
2, 29300, Note_on_c, 0, 73, 0
2, 29315, Note_on_c, 0, 75, 48
2, 29324, Control_c, 0, 64, 127
2, 29331, Note_on_c, 0, 75, 0
2, 29350, Note_on_c, 0, 77, 47
2, 29354, Note_on_c, 0, 65, 36
2, 29356, Control_c, 0, 64, 0
2, 29359, Note_on_c, 0, 61, 19
2, 29366, Note_on_c, 0, 77, 0
2, 29375, Note_on_c, 0, 65, 0
2, 29384, Note_on_c, 0, 79, 45
2, 29403, Note_on_c, 0, 79, 0
2, 29422, Note_on_c, 0, 81, 51
2, 29435, Note_on_c, 0, 61, 0
2, 29439, Note_on_c, 0, 81, 0
2, 29440, Note_on_c, 0, 57, 0
2, 29457, Note_on_c, 0, 82, 59
2, 29476, Note_on_c, 0, 82, 0
2, 29496, Note_on_c, 0, 84, 62
2, 29511, Note_on_c, 0, 84, 0
2, 29534, Note_on_c, 0, 85, 63
2, 29553, Note_on_c, 0, 85, 0
2, 29565, Control_c, 0, 64, 127
2, 29587, Note_on_c, 0, 85, 51
2, 29630, Note_on_c, 0, 85, 0
2, 29644, Note_on_c, 0, 87, 59
2, 29666, Note_on_c, 0, 87, 0
2, 29697, Note_on_c, 0, 87, 59
2, 29734, Note_on_c, 0, 87, 0
2, 29750, Note_on_c, 0, 84, 68
2, 29778, Note_on_c, 0, 84, 0
2, 29813, Note_on_c, 0, 84, 61
2, 29815, Note_on_c, 0, 51, 42
2, 29816, Control_c, 0, 64, 0
2, 29834, Control_c, 0, 64, 127
2, 29837, Note_on_c, 0, 51, 0
2, 29866, Note_on_c, 0, 84, 0
2, 29869, Note_on_c, 0, 83, 58
2, 29905, Note_on_c, 0, 83, 0
2, 29929, Note_on_c, 0, 83, 50
2, 29933, Note_on_c, 0, 65, 35
2, 29934, Note_on_c, 0, 61, 36
2, 29936, Note_on_c, 0, 60, 34
2, 29983, Note_on_c, 0, 83, 0
2, 29992, Note_on_c, 0, 82, 53
2, 30013, Note_on_c, 0, 65, 0
2, 30039, Note_on_c, 0, 82, 0
2, 30067, Note_on_c, 0, 82, 60
2, 30067, Note_on_c, 0, 65, 43
2, 30154, Note_on_c, 0, 82, 0
2, 30180, Note_on_c, 0, 65, 0
2, 30184, Note_on_c, 0, 79, 38
2, 30193, Note_on_c, 0, 60, 0
2, 30196, Note_on_c, 0, 61, 0
2, 30208, Note_on_c, 0, 79, 0
2, 30496, Control_c, 0, 64, 0
2, 30497, Note_on_c, 0, 49, 64
2, 30516, Control_c, 0, 64, 127
2, 30546, Note_on_c, 0, 49, 0
2, 30602, Note_on_c, 0, 77, 68
2, 30605, Note_on_c, 0, 71, 80
2, 30608, Note_on_c, 0, 65, 75
2, 30609, Note_on_c, 0, 63, 56
2, 30681, Note_on_c, 0, 77, 0
2, 30683, Note_on_c, 0, 63, 0
2, 30699, Note_on_c, 0, 77, 67
2, 30703, Note_on_c, 0, 63, 42
2, 30731, Note_on_c, 0, 63, 0
2, 30741, Note_on_c, 0, 77, 0
2, 30759, Note_on_c, 0, 65, 0
2, 30764, Note_on_c, 0, 71, 0
2, 30767, Note_on_c, 0, 75, 69
2, 30808, Note_on_c, 0, 75, 0
2, 30847, Note_on_c, 0, 75, 47
2, 30849, Note_on_c, 0, 58, 32
2, 30852, Note_on_c, 0, 48, 32
2, 30853, Note_on_c, 0, 70, 46
2, 30854, Note_on_c, 0, 63, 25
2, 30859, Control_c, 0, 64, 0
2, 30893, Control_c, 0, 64, 127
2, 30923, Note_on_c, 0, 58, 0
2, 30927, Note_on_c, 0, 54, 39
2, 30930, Note_on_c, 0, 70, 0
2, 30930, Note_on_c, 0, 75, 0
2, 30934, Note_on_c, 0, 63, 0
2, 30975, Note_on_c, 0, 58, 46
2, 31009, Note_on_c, 0, 60, 40
2, 31019, Note_on_c, 0, 60, 0
2, 31023, Note_on_c, 0, 61, 38
2, 31035, Control_c, 0, 64, 0
2, 31047, Note_on_c, 0, 61, 0
2, 31047, Note_on_c, 0, 63, 42
2, 31057, Note_on_c, 0, 63, 0
2, 31059, Note_on_c, 0, 48, 0
2, 31068, Note_on_c, 0, 65, 54
2, 31075, Note_on_c, 0, 54, 0
2, 31077, Note_on_c, 0, 65, 0
2, 31080, Note_on_c, 0, 58, 0
2, 31087, Note_on_c, 0, 66, 40
2, 31105, Note_on_c, 0, 66, 0
2, 31109, Note_on_c, 0, 68, 38
2, 31131, Note_on_c, 0, 68, 0
2, 31201, Note_on_c, 0, 62, 44
2, 31205, Note_on_c, 0, 51, 25
2, 31209, Note_on_c, 0, 57, 33
2, 31243, Note_on_c, 0, 65, 53
2, 31262, Note_on_c, 0, 65, 0
2, 31269, Note_on_c, 0, 66, 45
2, 31289, Note_on_c, 0, 66, 0
2, 31293, Note_on_c, 0, 68, 46
2, 31310, Note_on_c, 0, 68, 0
2, 31325, Note_on_c, 0, 69, 55
2, 31334, Note_on_c, 0, 69, 0
2, 31349, Note_on_c, 0, 71, 66
2, 31364, Note_on_c, 0, 71, 0
2, 31385, Note_on_c, 0, 72, 63
2, 31400, Note_on_c, 0, 72, 0
2, 31423, Note_on_c, 0, 74, 67
2, 31441, Note_on_c, 0, 74, 0
2, 31466, Note_on_c, 0, 75, 71
2, 31489, Note_on_c, 0, 75, 0
2, 31511, Note_on_c, 0, 72, 38
2, 31522, Note_on_c, 0, 72, 0
2, 31540, Note_on_c, 0, 74, 63
2, 31556, Note_on_c, 0, 74, 0
2, 31571, Note_on_c, 0, 75, 60
2, 31585, Note_on_c, 0, 75, 0
2, 31601, Note_on_c, 0, 77, 47
2, 31622, Note_on_c, 0, 77, 0
2, 31631, Note_on_c, 0, 78, 52
2, 31647, Note_on_c, 0, 78, 0
2, 31667, Note_on_c, 0, 80, 50
2, 31681, Control_c, 0, 64, 127
2, 31682, Note_on_c, 0, 80, 0
2, 31704, Note_on_c, 0, 81, 22
2, 31722, Note_on_c, 0, 81, 0
2, 31726, Note_on_c, 0, 57, 0
2, 31730, Note_on_c, 0, 51, 0
2, 31733, Note_on_c, 0, 82, 59
2, 31748, Note_on_c, 0, 62, 0
2, 31756, Note_on_c, 0, 82, 0
2, 31772, Note_on_c, 0, 83, 50
2, 31793, Note_on_c, 0, 83, 0
2, 31812, Note_on_c, 0, 86, 76
2, 31845, Note_on_c, 0, 86, 0
2, 31853, Note_on_c, 0, 83, 54
2, 31883, Note_on_c, 0, 83, 0
2, 31895, Note_on_c, 0, 84, 72
2, 31926, Note_on_c, 0, 84, 0
2, 31942, Note_on_c, 0, 85, 64
2, 31944, Note_on_c, 0, 61, 30
2, 31949, Note_on_c, 0, 65, 24
2, 31949, Note_on_c, 0, 60, 36
2, 31954, Control_c, 0, 64, 0
2, 31976, Note_on_c, 0, 60, 0
2, 31978, Control_c, 0, 64, 127
2, 32005, Note_on_c, 0, 57, 51
2, 32015, Note_on_c, 0, 65, 0
2, 32033, Note_on_c, 0, 61, 0
2, 32057, Note_on_c, 0, 85, 0
2, 32060, Note_on_c, 0, 73, 31
2, 32068, Note_on_c, 0, 61, 19
2, 32070, Note_on_c, 0, 65, 22
2, 32095, Note_on_c, 0, 57, 0
2, 32119, Note_on_c, 0, 65, 0
2, 32120, Note_on_c, 0, 77, 44
2, 32123, Note_on_c, 0, 57, 40
2, 32133, Note_on_c, 0, 61, 0
2, 32138, Note_on_c, 0, 57, 0
2, 32139, Note_on_c, 0, 73, 0
2, 32140, Note_on_c, 0, 77, 0
2, 32211, Note_on_c, 0, 49, 32
2, 32231, Control_c, 0, 64, 0
2, 32271, Control_c, 0, 64, 127
2, 32284, Note_on_c, 0, 59, 28
2, 32288, Note_on_c, 0, 64, 40
2, 32318, Note_on_c, 0, 59, 0
2, 32344, Note_on_c, 0, 64, 0
2, 32386, Note_on_c, 0, 61, 29
2, 32386, Note_on_c, 0, 73, 39
2, 32389, Note_on_c, 0, 68, 46
2, 32389, Note_on_c, 0, 64, 47
2, 32431, Note_on_c, 0, 61, 0
2, 32449, Note_on_c, 0, 73, 0
2, 32470, Note_on_c, 0, 68, 0
2, 32475, Note_on_c, 0, 64, 0
2, 32612, Note_on_c, 0, 72, 59
2, 32644, Note_on_c, 0, 72, 0
2, 32665, Note_on_c, 0, 49, 0
2, 32689, Note_on_c, 0, 70, 69
2, 32717, Note_on_c, 0, 70, 0
2, 32740, Note_on_c, 0, 72, 76
2, 32742, Note_on_c, 0, 48, 49
2, 32762, Control_c, 0, 64, 0
2, 32794, Note_on_c, 0, 58, 39
2, 32798, Control_c, 0, 64, 127
2, 32816, Note_on_c, 0, 72, 0
2, 32846, Note_on_c, 0, 63, 45
2, 32851, Note_on_c, 0, 60, 36
2, 32878, Note_on_c, 0, 60, 0
2, 32891, Note_on_c, 0, 48, 0
2, 32893, Note_on_c, 0, 58, 0
2, 32894, Note_on_c, 0, 63, 0
2, 32900, Note_on_c, 0, 67, 62
2, 32921, Note_on_c, 0, 67, 0
2, 32971, Note_on_c, 0, 68, 51
2, 32973, Note_on_c, 0, 61, 49
2, 32974, Note_on_c, 0, 41, 51
2, 32974, Note_on_c, 0, 57, 42
2, 32976, Note_on_c, 0, 63, 39
2, 32977, Control_c, 0, 64, 0
2, 33001, Control_c, 0, 64, 127
2, 33005, Note_on_c, 0, 41, 0
2, 33039, Note_on_c, 0, 57, 0
2, 33042, Note_on_c, 0, 63, 0
2, 33042, Note_on_c, 0, 61, 0
2, 33046, Note_on_c, 0, 68, 0
2, 33056, Note_on_c, 0, 66, 64
2, 33057, Note_on_c, 0, 61, 55
2, 33057, Note_on_c, 0, 57, 47
2, 33059, Note_on_c, 0, 56, 39
2, 33061, Note_on_c, 0, 63, 31
2, 33069, Control_c, 0, 64, 0
2, 33077, Control_c, 0, 64, 127
2, 33102, Note_on_c, 0, 56, 0
2, 33127, Note_on_c, 0, 57, 0
2, 33128, Note_on_c, 0, 66, 0
2, 33129, Note_on_c, 0, 61, 0
2, 33146, Note_on_c, 0, 63, 0
2, 33159, Note_on_c, 0, 61, 45
2, 33160, Note_on_c, 0, 65, 48
2, 33161, Control_c, 0, 64, 0
2, 33163, Note_on_c, 0, 57, 28
2, 33163, Note_on_c, 0, 54, 33
2, 33171, Control_c, 0, 64, 127
2, 33193, Note_on_c, 0, 65, 0
2, 33200, Note_on_c, 0, 57, 0
2, 33215, Note_on_c, 0, 61, 0
2, 33256, Note_on_c, 0, 71, 66
2, 33292, Note_on_c, 0, 71, 0
2, 33346, Note_on_c, 0, 70, 58
2, 33389, Note_on_c, 0, 70, 0
2, 33414, Note_on_c, 0, 54, 0
2, 33420, Note_on_c, 0, 47, 33
2, 33422, Note_on_c, 0, 71, 59
2, 33440, Control_c, 0, 64, 0
2, 33478, Control_c, 0, 64, 127
2, 33478, Note_on_c, 0, 57, 32
2, 33529, Note_on_c, 0, 62, 43
2, 33530, Note_on_c, 0, 57, 0
2, 33543, Note_on_c, 0, 47, 0
2, 33570, Note_on_c, 0, 62, 0
2, 33578, Note_on_c, 0, 66, 47
2, 33585, Note_on_c, 0, 71, 0
2, 33620, Note_on_c, 0, 66, 0
2, 33637, Note_on_c, 0, 28, 55
2, 33647, Control_c, 0, 64, 0
2, 33653, Note_on_c, 0, 28, 0
2, 33663, Control_c, 0, 64, 127
2, 33707, Note_on_c, 0, 59, 50
2, 33714, Note_on_c, 0, 59, 0
2, 33784, Note_on_c, 0, 64, 49
2, 33790, Note_on_c, 0, 56, 30
2, 33859, Note_on_c, 0, 64, 0
2, 33864, Note_on_c, 0, 68, 46
2, 33866, Note_on_c, 0, 62, 33
2, 33877, Note_on_c, 0, 62, 0
2, 33891, Note_on_c, 0, 56, 0
2, 33950, Note_on_c, 0, 68, 0
2, 33986, Note_on_c, 0, 70, 67
2, 33987, Note_on_c, 0, 61, 69
2, 33988, Note_on_c, 0, 65, 71
2, 33989, Note_on_c, 0, 57, 63
2, 34001, Control_c, 0, 64, 0
2, 34046, Control_c, 0, 64, 127
2, 34062, Note_on_c, 0, 57, 0
2, 34082, Note_on_c, 0, 56, 59
2, 34090, Control_c, 0, 64, 0
2, 34108, Control_c, 0, 64, 127
2, 34143, Note_on_c, 0, 61, 0
2, 34144, Note_on_c, 0, 65, 0
2, 34176, Note_on_c, 0, 61, 33
2, 34178, Note_on_c, 0, 65, 44
2, 34243, Note_on_c, 0, 56, 0
2, 34273, Note_on_c, 0, 56, 31
2, 34297, Note_on_c, 0, 56, 0
2, 34345, Note_on_c, 0, 65, 0
2, 34351, Note_on_c, 0, 61, 0
2, 34412, Note_on_c, 0, 61, 32
2, 34417, Note_on_c, 0, 64, 45
2, 34418, Note_on_c, 0, 39, 29
2, 34420, Note_on_c, 0, 27, 36
2, 34427, Control_c, 0, 64, 0
2, 34461, Control_c, 0, 64, 127
2, 34471, Note_on_c, 0, 27, 0
2, 34484, Note_on_c, 0, 39, 0
2, 34551, Note_on_c, 0, 58, 40
2, 34569, Note_on_c, 0, 61, 0
2, 34594, Note_on_c, 0, 64, 0
2, 34620, Note_on_c, 0, 58, 0
2, 34669, Note_on_c, 0, 61, 26
2, 34674, Note_on_c, 0, 58, 29
2, 34675, Note_on_c, 0, 64, 35
2, 34736, Note_on_c, 0, 70, 0
2, 34776, Note_on_c, 0, 68, 48
2, 34781, Note_on_c, 0, 64, 0
2, 34798, Note_on_c, 0, 58, 0
2, 34843, Note_on_c, 0, 68, 0
2, 34867, Note_on_c, 0, 61, 0
2, 34870, Note_on_c, 0, 68, 43
2, 34980, Note_on_c, 0, 68, 0
2, 34980, Note_on_c, 0, 67, 40
2, 35032, Note_on_c, 0, 67, 0
2, 35131, Note_on_c, 0, 68, 35
2, 35136, Note_on_c, 0, 63, 38
2, 35139, Note_on_c, 0, 59, 35
2, 35140, Note_on_c, 0, 44, 25
2, 35140, Note_on_c, 0, 56, 20
2, 35145, Control_c, 0, 64, 0
2, 35171, Control_c, 0, 64, 127
2, 35180, Note_on_c, 0, 56, 0
2, 35211, Note_on_c, 0, 56, 30
2, 35228, Note_on_c, 0, 44, 0
2, 35242, Note_on_c, 0, 56, 0
2, 35281, Note_on_c, 0, 56, 34
2, 35311, Note_on_c, 0, 59, 0
2, 35317, Note_on_c, 0, 56, 0
2, 35343, Note_on_c, 0, 56, 35
2, 35389, Note_on_c, 0, 56, 0
2, 35403, Note_on_c, 0, 63, 0
2, 35410, Note_on_c, 0, 56, 39
2, 35416, Note_on_c, 0, 59, 36
2, 35447, Note_on_c, 0, 56, 0
2, 35482, Note_on_c, 0, 56, 39
2, 35511, Note_on_c, 0, 56, 0
2, 35558, Note_on_c, 0, 56, 32
2, 35577, Note_on_c, 0, 68, 0
2, 35586, Note_on_c, 0, 56, 0
2, 35628, Note_on_c, 0, 59, 0
2, 35639, Note_on_c, 0, 56, 23
2, 35651, Note_on_c, 0, 56, 0
2, 35722, Note_on_c, 0, 59, 44
2, 35727, Note_on_c, 0, 51, 35
2, 35727, Note_on_c, 0, 56, 30
2, 35729, Note_on_c, 0, 52, 22
2, 35736, Control_c, 0, 64, 0
2, 35754, Control_c, 0, 64, 127
2, 35773, Note_on_c, 0, 52, 0
2, 35778, Note_on_c, 0, 59, 0
2, 35785, Note_on_c, 0, 64, 60
2, 35788, Note_on_c, 0, 56, 0
2, 35806, Note_on_c, 0, 64, 0
2, 35836, Note_on_c, 0, 51, 0
2, 35842, Note_on_c, 0, 68, 77
2, 35875, Note_on_c, 0, 68, 0
2, 35887, Note_on_c, 0, 76, 82
2, 35890, Note_on_c, 0, 63, 74
2, 35934, Note_on_c, 0, 76, 0
2, 35940, Note_on_c, 0, 71, 58
2, 35942, Note_on_c, 0, 64, 60
2, 35944, Note_on_c, 0, 68, 38
2, 36019, Note_on_c, 0, 76, 58
2, 36060, Note_on_c, 0, 76, 0
2, 36078, Note_on_c, 0, 64, 0
2, 36090, Note_on_c, 0, 75, 62
2, 36096, Note_on_c, 0, 71, 0
2, 36105, Note_on_c, 0, 68, 0
2, 36226, Note_on_c, 0, 63, 0
2, 36236, Note_on_c, 0, 71, 57
2, 36405, Note_on_c, 0, 71, 0
2, 36448, Note_on_c, 0, 75, 0
2, 36458, Note_on_c, 0, 72, 38
2, 36459, Note_on_c, 0, 67, 34
2, 36460, Note_on_c, 0, 63, 34
2, 36465, Note_on_c, 0, 70, 29
2, 36474, Control_c, 0, 64, 0
2, 36492, Control_c, 0, 64, 127
2, 36510, Note_on_c, 0, 63, 0
2, 36523, Note_on_c, 0, 67, 0
2, 36528, Note_on_c, 0, 63, 35
2, 36533, Note_on_c, 0, 70, 0
2, 36534, Note_on_c, 0, 72, 0
2, 36583, Note_on_c, 0, 87, 74
2, 36609, Note_on_c, 0, 87, 0
2, 36609, Note_on_c, 0, 63, 0
2, 36631, Note_on_c, 0, 63, 35
2, 36667, Note_on_c, 0, 63, 0
2, 36684, Note_on_c, 0, 75, 44
2, 36686, Note_on_c, 0, 70, 46
2, 36692, Note_on_c, 0, 63, 30
2, 36717, Note_on_c, 0, 63, 0
2, 36744, Note_on_c, 0, 63, 27
2, 36777, Note_on_c, 0, 70, 0
2, 36783, Note_on_c, 0, 63, 0
2, 36801, Note_on_c, 0, 67, 50
2, 36806, Note_on_c, 0, 63, 19
2, 36811, Note_on_c, 0, 70, 20
2, 36823, Note_on_c, 0, 75, 0
2, 36839, Note_on_c, 0, 63, 0
2, 36867, Note_on_c, 0, 70, 0
2, 36869, Note_on_c, 0, 63, 20
2, 36878, Note_on_c, 0, 67, 0
2, 36912, Note_on_c, 0, 63, 0
2, 36934, Note_on_c, 0, 71, 45
2, 36935, Note_on_c, 0, 68, 32
2, 36937, Note_on_c, 0, 63, 26
2, 36938, Note_on_c, 0, 64, 28
2, 36954, Control_c, 0, 64, 0
2, 36970, Control_c, 0, 64, 127
2, 36981, Note_on_c, 0, 63, 0
2, 37004, Note_on_c, 0, 63, 32
2, 37035, Note_on_c, 0, 64, 0
2, 37055, Note_on_c, 0, 63, 0
2, 37057, Note_on_c, 0, 71, 0
2, 37064, Note_on_c, 0, 75, 72
2, 37068, Note_on_c, 0, 63, 59
2, 37076, Note_on_c, 0, 68, 0
2, 37102, Note_on_c, 0, 73, 50
2, 37117, Note_on_c, 0, 63, 0
2, 37117, Note_on_c, 0, 75, 0
2, 37143, Note_on_c, 0, 68, 65
2, 37148, Note_on_c, 0, 63, 53
2, 37178, Note_on_c, 0, 73, 0
2, 37188, Note_on_c, 0, 63, 0
2, 37189, Note_on_c, 0, 64, 42
2, 37210, Note_on_c, 0, 68, 0
2, 37227, Note_on_c, 0, 63, 57
2, 37229, Note_on_c, 0, 71, 64
2, 37303, Note_on_c, 0, 63, 0
2, 37341, Note_on_c, 0, 63, 46
2, 37385, Note_on_c, 0, 63, 0
2, 37405, Note_on_c, 0, 64, 0
2, 37415, Note_on_c, 0, 70, 63
2, 37415, Note_on_c, 0, 63, 38
2, 37424, Note_on_c, 0, 71, 0
2, 37457, Note_on_c, 0, 70, 0
2, 37461, Note_on_c, 0, 63, 0
2, 37465, Note_on_c, 0, 68, 67
2, 37509, Note_on_c, 0, 68, 0
2, 37530, Note_on_c, 0, 66, 71
2, 37531, Note_on_c, 0, 63, 52
2, 37547, Control_c, 0, 64, 0
2, 37552, Control_c, 0, 64, 127
2, 37602, Note_on_c, 0, 64, 50
2, 37608, Note_on_c, 0, 63, 0
2, 37629, Note_on_c, 0, 66, 0
2, 37644, Note_on_c, 0, 64, 0
2, 37669, Note_on_c, 0, 63, 38
2, 37671, Note_on_c, 0, 64, 51
2, 37688, Note_on_c, 0, 63, 0
2, 37723, Note_on_c, 0, 64, 0
2, 37731, Note_on_c, 0, 63, 44
2, 37761, Note_on_c, 0, 63, 0
2, 37797, Note_on_c, 0, 63, 42
2, 37878, Note_on_c, 0, 44, 34
2, 37953, Note_on_c, 0, 58, 44
2, 37956, Note_on_c, 0, 53, 31
2, 37961, Note_on_c, 0, 55, 25
2, 37968, Note_on_c, 0, 55, 0
2, 37977, Note_on_c, 0, 53, 0
2, 37990, Note_on_c, 0, 63, 0
2, 37995, Note_on_c, 0, 58, 0
2, 38004, Note_on_c, 0, 51, 44
2, 38050, Note_on_c, 0, 44, 0
2, 38052, Note_on_c, 0, 51, 0
2, 38056, Note_on_c, 0, 55, 46
2, 38057, Note_on_c, 0, 63, 35
2, 38057, Note_on_c, 0, 67, 55
2, 38060, Note_on_c, 0, 60, 30
2, 38077, Note_on_c, 0, 60, 0
2, 38094, Note_on_c, 0, 55, 0
2, 38094, Note_on_c, 0, 63, 0
2, 38095, Note_on_c, 0, 67, 0
2, 38106, Note_on_c, 0, 58, 50
2, 38156, Note_on_c, 0, 70, 59
2, 38160, Note_on_c, 0, 67, 56
2, 38204, Note_on_c, 0, 67, 0
2, 38207, Note_on_c, 0, 75, 71
2, 38209, Note_on_c, 0, 63, 50
2, 38237, Note_on_c, 0, 70, 0
2, 38241, Note_on_c, 0, 63, 0
2, 38260, Note_on_c, 0, 75, 0
2, 38264, Note_on_c, 0, 71, 47
2, 38269, Note_on_c, 0, 64, 50
2, 38269, Note_on_c, 0, 63, 53
2, 38271, Note_on_c, 0, 68, 46
2, 38278, Note_on_c, 0, 58, 0
2, 38284, Control_c, 0, 64, 0
2, 38316, Control_c, 0, 64, 127
2, 38318, Note_on_c, 0, 63, 0
2, 38332, Note_on_c, 0, 64, 0
2, 38334, Note_on_c, 0, 63, 36
2, 38341, Note_on_c, 0, 68, 0
2, 38344, Note_on_c, 0, 71, 0
2, 38398, Note_on_c, 0, 87, 72
2, 38418, Note_on_c, 0, 63, 0
2, 38431, Note_on_c, 0, 87, 0
2, 38460, Note_on_c, 0, 63, 34
2, 38499, Note_on_c, 0, 63, 0
2, 38516, Note_on_c, 0, 71, 44
2, 38521, Note_on_c, 0, 68, 25
2, 38521, Note_on_c, 0, 64, 29
2, 38526, Note_on_c, 0, 63, 18
2, 38573, Note_on_c, 0, 75, 60
2, 38602, Note_on_c, 0, 63, 0
2, 38610, Note_on_c, 0, 71, 0
2, 38620, Note_on_c, 0, 75, 0
2, 38628, Note_on_c, 0, 64, 0
2, 38629, Note_on_c, 0, 68, 0
2, 38632, Note_on_c, 0, 73, 44
2, 38633, Note_on_c, 0, 63, 29
2, 38656, Note_on_c, 0, 63, 0
2, 38686, Note_on_c, 0, 73, 0
2, 38698, Note_on_c, 0, 70, 48
2, 38762, Note_on_c, 0, 70, 0
2, 38775, Note_on_c, 0, 67, 33
2, 38780, Note_on_c, 0, 60, 25
2, 38784, Note_on_c, 0, 44, 20
2, 38795, Control_c, 0, 64, 0
2, 38841, Control_c, 0, 64, 127
2, 38845, Note_on_c, 0, 51, 42
2, 38868, Note_on_c, 0, 67, 0
2, 38871, Note_on_c, 0, 60, 0
2, 38916, Note_on_c, 0, 44, 0
2, 38924, Note_on_c, 0, 51, 0
2, 38924, Note_on_c, 0, 55, 35
2, 38927, Note_on_c, 0, 60, 31
2, 38981, Note_on_c, 0, 55, 0
2, 39001, Note_on_c, 0, 58, 35
2, 39075, Note_on_c, 0, 63, 36
2, 39113, Note_on_c, 0, 60, 0
2, 39125, Note_on_c, 0, 63, 0
2, 39138, Note_on_c, 0, 72, 64
2, 39173, Note_on_c, 0, 72, 0
2, 39189, Note_on_c, 0, 58, 0
2, 39197, Note_on_c, 0, 63, 67
2, 39242, Note_on_c, 0, 63, 0
2, 39252, Note_on_c, 0, 60, 51
2, 39300, Note_on_c, 0, 60, 0
2, 39313, Note_on_c, 0, 43, 35
2, 39315, Note_on_c, 0, 58, 42
2, 39327, Control_c, 0, 64, 0
2, 39369, Control_c, 0, 64, 127
2, 39378, Note_on_c, 0, 53, 38
2, 39444, Note_on_c, 0, 58, 0
2, 39447, Note_on_c, 0, 60, 60
2, 39487, Note_on_c, 0, 53, 0
2, 39503, Note_on_c, 0, 43, 0
2, 39518, Note_on_c, 0, 60, 0
2, 39522, Note_on_c, 0, 61, 59
2, 39595, Note_on_c, 0, 61, 0
2, 39632, Note_on_c, 0, 63, 32
2, 39632, Note_on_c, 0, 58, 37
2, 39636, Note_on_c, 0, 24, 32
2, 39642, Note_on_c, 0, 36, 20
2, 39647, Control_c, 0, 64, 0
2, 39700, Control_c, 0, 64, 127
2, 39735, Note_on_c, 0, 63, 0
2, 39737, Note_on_c, 0, 61, 44
2, 39762, Note_on_c, 0, 36, 0
2, 39779, Note_on_c, 0, 58, 0
2, 39788, Note_on_c, 0, 61, 0
2, 39879, Note_on_c, 0, 52, 33
2, 39881, Note_on_c, 0, 60, 40
2, 39883, Note_on_c, 0, 36, 32
2, 39890, Control_c, 0, 64, 0
2, 39914, Control_c, 0, 64, 127
2, 39932, Note_on_c, 0, 52, 0
2, 39946, Note_on_c, 0, 60, 0
2, 39976, Note_on_c, 0, 24, 0
2, 39986, Note_on_c, 0, 36, 0
2, 40467, Control_c, 0, 64, 0
2, 40513, Note_on_c, 0, 72, 34
2, 40521, Note_on_c, 0, 53, 22
2, 40533, Control_c, 0, 64, 127
2, 40552, Note_on_c, 0, 60, 1
2, 40559, Note_on_c, 0, 72, 0
2, 40649, Note_on_c, 0, 60, 0
2, 40659, Note_on_c, 0, 73, 29
2, 40661, Note_on_c, 0, 61, 30
2, 40666, Note_on_c, 0, 65, 28
2, 40675, Note_on_c, 0, 61, 0
2, 40683, Note_on_c, 0, 53, 0
2, 40804, Note_on_c, 0, 49, 32
2, 40806, Note_on_c, 0, 41, 45
2, 40812, Control_c, 0, 64, 0
2, 40868, Control_c, 0, 64, 127
2, 40906, Note_on_c, 0, 49, 0
2, 40919, Note_on_c, 0, 41, 0
2, 40930, Note_on_c, 0, 65, 0
2, 40941, Note_on_c, 0, 73, 0
2, 40948, Note_on_c, 0, 41, 43
2, 40950, Control_c, 0, 64, 0
2, 40953, Note_on_c, 0, 48, 43
2, 40962, Control_c, 0, 64, 127
2, 41041, Note_on_c, 0, 41, 0
2, 41043, Note_on_c, 0, 48, 0
2, 41091, Note_on_c, 0, 43, 53
2, 41091, Note_on_c, 0, 60, 64
2, 41092, Note_on_c, 0, 58, 57
2, 41093, Control_c, 0, 64, 0
2, 41119, Control_c, 0, 64, 127
2, 41136, Note_on_c, 0, 43, 0
2, 41177, Note_on_c, 0, 58, 0
2, 41177, Note_on_c, 0, 60, 0
2, 41233, Note_on_c, 0, 61, 51
2, 41236, Note_on_c, 0, 53, 42
2, 41236, Note_on_c, 0, 49, 34
2, 41236, Note_on_c, 0, 58, 37
2, 41237, Control_c, 0, 64, 0
2, 41262, Note_on_c, 0, 49, 0
2, 41271, Control_c, 0, 64, 127
2, 41307, Note_on_c, 0, 53, 0
2, 41332, Note_on_c, 0, 58, 0
2, 41333, Note_on_c, 0, 61, 0
2, 41365, Control_c, 0, 64, 0
2, 41371, Note_on_c, 0, 36, 42
2, 41374, Note_on_c, 0, 52, 41
2, 41383, Control_c, 0, 64, 127
2, 41396, Note_on_c, 0, 36, 0
2, 41420, Note_on_c, 0, 52, 0
2, 41514, Note_on_c, 0, 64, 34
2, 41514, Note_on_c, 0, 58, 43
2, 41518, Control_c, 0, 64, 0
2, 41523, Note_on_c, 0, 58, 0
2, 41523, Note_on_c, 0, 64, 0
2, 41554, Control_c, 0, 64, 127
2, 41587, Note_on_c, 0, 72, 65
2, 41618, Note_on_c, 0, 72, 0
2, 41627, Note_on_c, 0, 71, 40
2, 41650, Control_c, 0, 64, 0
2, 41651, Note_on_c, 0, 71, 0
2, 41660, Note_on_c, 0, 72, 49
2, 41661, Note_on_c, 0, 41, 40
2, 41672, Control_c, 0, 64, 127
2, 41674, Note_on_c, 0, 41, 0
2, 41710, Control_c, 0, 64, 0
2, 41718, Control_c, 0, 64, 127
2, 41722, Note_on_c, 0, 72, 0
2, 41734, Note_on_c, 0, 79, 52
2, 41750, Note_on_c, 0, 79, 0
2, 41797, Control_c, 0, 64, 0
2, 41805, Note_on_c, 0, 67, 39
2, 41806, Note_on_c, 0, 62, 35
2, 41807, Note_on_c, 0, 60, 38
2, 41808, Note_on_c, 0, 56, 25
2, 41815, Note_on_c, 0, 67, 0
2, 41817, Note_on_c, 0, 56, 0
2, 41818, Note_on_c, 0, 62, 0
2, 41825, Note_on_c, 0, 60, 0
2, 41878, Note_on_c, 0, 68, 37
2, 41885, Note_on_c, 0, 68, 0
2, 41897, Control_c, 0, 64, 127
2, 41935, Note_on_c, 0, 41, 31
2, 41946, Note_on_c, 0, 41, 0
2, 41957, Note_on_c, 0, 57, 73
2, 41959, Note_on_c, 0, 66, 48
2, 41959, Note_on_c, 0, 61, 52
2, 41961, Control_c, 0, 64, 0
2, 41964, Note_on_c, 0, 53, 37
2, 41965, Note_on_c, 0, 63, 33
2, 42009, Control_c, 0, 64, 127
2, 42065, Note_on_c, 0, 66, 0
2, 42065, Note_on_c, 0, 57, 0
2, 42073, Note_on_c, 0, 61, 0
2, 42082, Note_on_c, 0, 63, 0
2, 42086, Note_on_c, 0, 53, 0
2, 42094, Note_on_c, 0, 61, 42
2, 42097, Note_on_c, 0, 57, 42
2, 42098, Note_on_c, 0, 65, 45
2, 42099, Note_on_c, 0, 51, 31
2, 42100, Control_c, 0, 64, 0
2, 42127, Note_on_c, 0, 51, 0
2, 42139, Control_c, 0, 64, 127
2, 42162, Note_on_c, 0, 57, 0
2, 42169, Note_on_c, 0, 53, 43
2, 42189, Note_on_c, 0, 61, 0
2, 42192, Note_on_c, 0, 65, 0
2, 42228, Control_c, 0, 64, 0
2, 42229, Note_on_c, 0, 53, 0
2, 42243, Note_on_c, 0, 56, 36
2, 42248, Note_on_c, 0, 46, 31
2, 42250, Control_c, 0, 64, 127
2, 42276, Note_on_c, 0, 46, 0
2, 42281, Note_on_c, 0, 56, 0
2, 42319, Note_on_c, 0, 65, 40
2, 42329, Note_on_c, 0, 65, 0
2, 42358, Note_on_c, 0, 72, 71
2, 42374, Note_on_c, 0, 72, 0
2, 42390, Note_on_c, 0, 73, 71
2, 42390, Control_c, 0, 64, 0
2, 42393, Note_on_c, 0, 61, 39
2, 42394, Note_on_c, 0, 65, 48
2, 42396, Note_on_c, 0, 60, 38
2, 42419, Note_on_c, 0, 73, 0
2, 42421, Note_on_c, 0, 60, 0
2, 42426, Note_on_c, 0, 65, 0
2, 42428, Note_on_c, 0, 75, 68
2, 42446, Note_on_c, 0, 75, 0
2, 42455, Note_on_c, 0, 61, 0
2, 42470, Note_on_c, 0, 72, 35
2, 42486, Control_c, 0, 64, 127
2, 42490, Note_on_c, 0, 72, 0
2, 42513, Control_c, 0, 64, 0
2, 42531, Note_on_c, 0, 65, 33
2, 42535, Note_on_c, 0, 57, 37
2, 42537, Note_on_c, 0, 61, 11
2, 42593, Control_c, 0, 64, 127
2, 42604, Note_on_c, 0, 65, 0
2, 42605, Note_on_c, 0, 70, 40
2, 42654, Note_on_c, 0, 57, 0
2, 42669, Note_on_c, 0, 56, 43
2, 42669, Control_c, 0, 64, 0
2, 42673, Note_on_c, 0, 65, 32
2, 42695, Control_c, 0, 64, 127
2, 42696, Note_on_c, 0, 70, 0
2, 42751, Note_on_c, 0, 56, 0
2, 42766, Note_on_c, 0, 65, 0
2, 42776, Note_on_c, 0, 61, 0
2, 42815, Control_c, 0, 64, 0
2, 42819, Note_on_c, 0, 55, 49
2, 42822, Note_on_c, 0, 61, 34
2, 42824, Note_on_c, 0, 70, 25
2, 42824, Note_on_c, 0, 65, 32
2, 42854, Control_c, 0, 64, 127
2, 42862, Note_on_c, 0, 55, 0
2, 42871, Note_on_c, 0, 65, 0
2, 42874, Control_c, 0, 64, 0
2, 42875, Note_on_c, 0, 61, 0
2, 42878, Control_c, 0, 64, 127
2, 42884, Note_on_c, 0, 70, 0
2, 42899, Note_on_c, 0, 61, 49
2, 42900, Note_on_c, 0, 72, 47
2, 42901, Note_on_c, 0, 65, 53
2, 42906, Note_on_c, 0, 61, 0
2, 42908, Note_on_c, 0, 65, 0
2, 42910, Note_on_c, 0, 72, 0
2, 42944, Control_c, 0, 64, 0
2, 42972, Note_on_c, 0, 61, 59
2, 42974, Note_on_c, 0, 51, 46
2, 42974, Note_on_c, 0, 72, 46
2, 42974, Note_on_c, 0, 65, 54
2, 42979, Note_on_c, 0, 61, 0
2, 42981, Note_on_c, 0, 65, 0
2, 42983, Note_on_c, 0, 72, 0
2, 42997, Note_on_c, 0, 51, 0
2, 43048, Control_c, 0, 64, 127
2, 43098, Note_on_c, 0, 27, 72
2, 43110, Control_c, 0, 64, 0
2, 43118, Note_on_c, 0, 27, 0
2, 43122, Control_c, 0, 64, 127
2, 43200, Note_on_c, 0, 63, 83
2, 43200, Note_on_c, 0, 75, 72
2, 43201, Note_on_c, 0, 70, 75
2, 43201, Note_on_c, 0, 67, 83
2, 43202, Note_on_c, 0, 64, 87
2, 43209, Control_c, 0, 64, 0
2, 43249, Control_c, 0, 64, 127
2, 43269, Note_on_c, 0, 63, 0
2, 43280, Note_on_c, 0, 67, 0
2, 43290, Note_on_c, 0, 75, 0
2, 43307, Note_on_c, 0, 64, 0
2, 43313, Note_on_c, 0, 70, 0
2, 43344, Note_on_c, 0, 73, 46
2, 43348, Note_on_c, 0, 64, 56
2, 43363, Note_on_c, 0, 64, 0
2, 43373, Note_on_c, 0, 73, 0
2, 43426, Note_on_c, 0, 72, 62
2, 43426, Note_on_c, 0, 64, 66
2, 43427, Note_on_c, 0, 44, 55
2, 43428, Note_on_c, 0, 60, 61
2, 43429, Note_on_c, 0, 52, 49
2, 43431, Control_c, 0, 64, 0
2, 43475, Control_c, 0, 64, 127
2, 43512, Note_on_c, 0, 64, 0
2, 43535, Note_on_c, 0, 60, 0
2, 43580, Note_on_c, 0, 52, 0
2, 43582, Note_on_c, 0, 65, 45
2, 43583, Note_on_c, 0, 60, 34
2, 43584, Control_c, 0, 64, 0
2, 43584, Note_on_c, 0, 53, 47
2, 43612, Control_c, 0, 64, 127
2, 43649, Note_on_c, 0, 53, 0
2, 43651, Note_on_c, 0, 60, 0
2, 43658, Note_on_c, 0, 65, 0
2, 43660, Note_on_c, 0, 44, 0
2, 43715, Note_on_c, 0, 72, 0
2, 43725, Note_on_c, 0, 39, 42
2, 43730, Note_on_c, 0, 66, 45
2, 43730, Note_on_c, 0, 61, 32
2, 43730, Note_on_c, 0, 54, 25
2, 43738, Control_c, 0, 64, 0
2, 43766, Control_c, 0, 64, 127
2, 43774, Note_on_c, 0, 39, 0
2, 43823, Note_on_c, 0, 54, 0
2, 43824, Note_on_c, 0, 61, 0
2, 43852, Note_on_c, 0, 66, 0
2, 43871, Note_on_c, 0, 54, 43
2, 43872, Note_on_c, 0, 65, 38
2, 43874, Control_c, 0, 64, 0
2, 43875, Note_on_c, 0, 60, 39
2, 43876, Note_on_c, 0, 44, 28
2, 43909, Control_c, 0, 64, 127
2, 43951, Note_on_c, 0, 44, 0
2, 43953, Note_on_c, 0, 54, 0
2, 43959, Note_on_c, 0, 65, 0
2, 43971, Note_on_c, 0, 60, 0
2, 44013, Control_c, 0, 64, 0
2, 44017, Note_on_c, 0, 65, 44
2, 44021, Note_on_c, 0, 56, 27
2, 44022, Note_on_c, 0, 60, 34
2, 44023, Note_on_c, 0, 49, 36
2, 44049, Control_c, 0, 64, 127
2, 44079, Note_on_c, 0, 56, 0
2, 44082, Note_on_c, 0, 60, 0
2, 44094, Note_on_c, 0, 65, 0
2, 44178, Note_on_c, 0, 70, 74
2, 44179, Note_on_c, 0, 58, 57
2, 44180, Note_on_c, 0, 60, 74
2, 44181, Note_on_c, 0, 65, 70
2, 44187, Control_c, 0, 64, 0
2, 44193, Note_on_c, 0, 65, 0
2, 44196, Note_on_c, 0, 49, 0
2, 44196, Note_on_c, 0, 60, 0
2, 44199, Note_on_c, 0, 58, 0
2, 44203, Note_on_c, 0, 70, 0
2, 44229, Note_on_c, 0, 68, 44
2, 44235, Note_on_c, 0, 54, 32
2, 44245, Note_on_c, 0, 54, 0
2, 44247, Note_on_c, 0, 68, 0
2, 44288, Control_c, 0, 64, 127
2, 44291, Note_on_c, 0, 44, 46
2, 44313, Note_on_c, 0, 44, 0
2, 44318, Control_c, 0, 64, 0
2, 44324, Note_on_c, 0, 68, 52
2, 44326, Note_on_c, 0, 63, 49
2, 44327, Note_on_c, 0, 59, 44
2, 44329, Note_on_c, 0, 53, 57
2, 44390, Control_c, 0, 64, 127
2, 44433, Note_on_c, 0, 59, 0
2, 44438, Note_on_c, 0, 63, 0
2, 44450, Note_on_c, 0, 68, 0
2, 44466, Note_on_c, 0, 43, 31
2, 44466, Control_c, 0, 64, 0
2, 44470, Note_on_c, 0, 59, 50
2, 44471, Note_on_c, 0, 63, 39
2, 44473, Note_on_c, 0, 67, 51
2, 44496, Control_c, 0, 64, 127
2, 44535, Note_on_c, 0, 43, 0
2, 44560, Note_on_c, 0, 59, 0
2, 44575, Note_on_c, 0, 53, 0
2, 44579, Note_on_c, 0, 63, 0
2, 44587, Note_on_c, 0, 67, 0
2, 44624, Note_on_c, 0, 67, 77
2, 44624, Note_on_c, 0, 63, 74
2, 44624, Note_on_c, 0, 58, 83
2, 44625, Note_on_c, 0, 59, 55
2, 44627, Note_on_c, 0, 53, 69
2, 44627, Note_on_c, 0, 49, 49
2, 44630, Control_c, 0, 64, 0
2, 44709, Control_c, 0, 64, 127
2, 44741, Note_on_c, 0, 53, 0
2, 44741, Note_on_c, 0, 59, 0
2, 44747, Note_on_c, 0, 58, 0
2, 44751, Note_on_c, 0, 63, 0
2, 44786, Note_on_c, 0, 59, 43
2, 44787, Note_on_c, 0, 63, 39
2, 44788, Note_on_c, 0, 58, 36
2, 44794, Note_on_c, 0, 59, 0
2, 44800, Note_on_c, 0, 49, 0
2, 44877, Note_on_c, 0, 58, 0
2, 44887, Note_on_c, 0, 63, 0
2, 44892, Note_on_c, 0, 67, 0
2, 44904, Note_on_c, 0, 58, 58
2, 44907, Note_on_c, 0, 64, 63
2, 44916, Note_on_c, 0, 64, 0
2, 44919, Note_on_c, 0, 58, 0
2, 44953, Control_c, 0, 64, 0
2, 44982, Note_on_c, 0, 48, 53
2, 44984, Note_on_c, 0, 50, 43
2, 44986, Note_on_c, 0, 36, 32
2, 44989, Note_on_c, 0, 43, 24
2, 44992, Note_on_c, 0, 50, 0
2, 44998, Note_on_c, 0, 48, 0
2, 45013, Note_on_c, 0, 49, 49
2, 45050, Note_on_c, 0, 49, 0
2, 45052, Note_on_c, 0, 51, 52
2, 45080, Note_on_c, 0, 52, 63
2, 45081, Note_on_c, 0, 51, 0
2, 45104, Note_on_c, 0, 52, 0
2, 45109, Note_on_c, 0, 36, 0
2, 45120, Note_on_c, 0, 54, 57
2, 45130, Note_on_c, 0, 43, 0
2, 45138, Note_on_c, 0, 52, 6
2, 45141, Note_on_c, 0, 54, 0
2, 45156, Note_on_c, 0, 55, 51
2, 45180, Note_on_c, 0, 55, 0
2, 45193, Note_on_c, 0, 56, 68
2, 45198, Note_on_c, 0, 52, 0
2, 45211, Note_on_c, 0, 56, 0
2, 45220, Note_on_c, 0, 48, 24
2, 45226, Note_on_c, 0, 41, 36
2, 45228, Note_on_c, 0, 58, 56
2, 45253, Note_on_c, 0, 58, 0
2, 45266, Note_on_c, 0, 60, 42
2, 45286, Note_on_c, 0, 60, 0
2, 45290, Note_on_c, 0, 41, 0
2, 45296, Note_on_c, 0, 48, 0
2, 45301, Note_on_c, 0, 61, 25
2, 45327, Note_on_c, 0, 61, 0
2, 45344, Note_on_c, 0, 62, 18
2, 45352, Note_on_c, 0, 62, 0
2, 45368, Note_on_c, 0, 67, 74
2, 45403, Note_on_c, 0, 67, 0
2, 45433, Note_on_c, 0, 56, 21
2, 45435, Note_on_c, 0, 53, 20
2, 45437, Note_on_c, 0, 65, 47
2, 45441, Note_on_c, 0, 60, 15
2, 45460, Note_on_c, 0, 65, 0
2, 45477, Note_on_c, 0, 67, 60
2, 45478, Note_on_c, 0, 60, 0
2, 45494, Note_on_c, 0, 56, 0
2, 45495, Note_on_c, 0, 67, 0
2, 45506, Note_on_c, 0, 53, 0
2, 45516, Note_on_c, 0, 68, 36
2, 45531, Note_on_c, 0, 68, 0
2, 45549, Note_on_c, 0, 72, 71
2, 45558, Note_on_c, 0, 56, 23
2, 45561, Note_on_c, 0, 60, 22
2, 45564, Note_on_c, 0, 53, 13
2, 45565, Note_on_c, 0, 72, 0
2, 45573, Note_on_c, 0, 60, 0
2, 45580, Note_on_c, 0, 75, 42
2, 45583, Note_on_c, 0, 56, 0
2, 45597, Note_on_c, 0, 75, 0
2, 45616, Note_on_c, 0, 76, 74
2, 45633, Note_on_c, 0, 76, 0
2, 45650, Note_on_c, 0, 79, 87
2, 45650, Note_on_c, 0, 56, 18
2, 45669, Note_on_c, 0, 53, 0
2, 45672, Note_on_c, 0, 56, 0
2, 45672, Note_on_c, 0, 79, 0
2, 45685, Note_on_c, 0, 77, 57
2, 45706, Note_on_c, 0, 77, 0
2, 45720, Note_on_c, 0, 73, 27
2, 45750, Note_on_c, 0, 73, 0
2, 45756, Note_on_c, 0, 72, 54
2, 45773, Note_on_c, 0, 72, 0
2, 45778, Note_on_c, 0, 61, 34
2, 45790, Note_on_c, 0, 70, 36
2, 45812, Note_on_c, 0, 70, 0
2, 45818, Note_on_c, 0, 61, 0
2, 45829, Note_on_c, 0, 65, 54
2, 45855, Note_on_c, 0, 65, 0
2, 45891, Note_on_c, 0, 62, 42
2, 45911, Note_on_c, 0, 62, 0
2, 45931, Note_on_c, 0, 63, 49
2, 45952, Control_c, 0, 64, 127
2, 45972, Note_on_c, 0, 63, 0
2, 45982, Note_on_c, 0, 64, 51
2, 46024, Control_c, 0, 64, 0
2, 46031, Note_on_c, 0, 48, 41
2, 46038, Note_on_c, 0, 58, 27
2, 46053, Control_c, 0, 64, 127
2, 46080, Note_on_c, 0, 48, 0
2, 46085, Note_on_c, 0, 58, 0
2, 46096, Note_on_c, 0, 64, 0
2, 46096, Note_on_c, 0, 50, 37
2, 46096, Note_on_c, 0, 65, 62
2, 46097, Note_on_c, 0, 58, 18
2, 46103, Control_c, 0, 64, 0
2, 46112, Note_on_c, 0, 65, 0
2, 46115, Note_on_c, 0, 58, 0
2, 46140, Note_on_c, 0, 50, 0
2, 46155, Note_on_c, 0, 51, 43
2, 46156, Note_on_c, 0, 66, 51
2, 46156, Note_on_c, 0, 58, 30
2, 46173, Note_on_c, 0, 58, 0
2, 46178, Note_on_c, 0, 66, 0
2, 46179, Note_on_c, 0, 51, 0
2, 46187, Note_on_c, 0, 58, 26
2, 46188, Note_on_c, 0, 67, 60
2, 46190, Note_on_c, 0, 52, 35
2, 46197, Control_c, 0, 64, 127
2, 46229, Note_on_c, 0, 58, 0
2, 46249, Note_on_c, 0, 52, 0
2, 46260, Note_on_c, 0, 48, 51
2, 46265, Note_on_c, 0, 60, 46
2, 46266, Note_on_c, 0, 67, 0
2, 46267, Note_on_c, 0, 48, 0
2, 46275, Note_on_c, 0, 60, 0
2, 46331, Control_c, 0, 64, 0
2, 46335, Note_on_c, 0, 53, 40
2, 46416, Note_on_c, 0, 60, 26
2, 46450, Note_on_c, 0, 68, 46
2, 46466, Note_on_c, 0, 68, 0
2, 46483, Note_on_c, 0, 72, 62
2, 46501, Note_on_c, 0, 72, 0
2, 46524, Note_on_c, 0, 76, 69
2, 46541, Note_on_c, 0, 76, 0
2, 46557, Note_on_c, 0, 64, 59
2, 46558, Note_on_c, 0, 79, 87
2, 46566, Note_on_c, 0, 60, 0
2, 46585, Note_on_c, 0, 79, 0
2, 46598, Note_on_c, 0, 64, 0
2, 46599, Note_on_c, 0, 78, 60
2, 46602, Note_on_c, 0, 53, 0
2, 46622, Note_on_c, 0, 78, 0
2, 46630, Note_on_c, 0, 77, 40
2, 46656, Note_on_c, 0, 77, 0
2, 46670, Note_on_c, 0, 75, 57
2, 46675, Note_on_c, 0, 65, 34
2, 46675, Note_on_c, 0, 63, 39
2, 46677, Note_on_c, 0, 57, 30
2, 46699, Note_on_c, 0, 65, 0
2, 46712, Note_on_c, 0, 63, 0
2, 46713, Note_on_c, 0, 57, 0
2, 46735, Note_on_c, 0, 73, 36
2, 46742, Note_on_c, 0, 75, 0
2, 46763, Note_on_c, 0, 73, 0
2, 46778, Note_on_c, 0, 71, 46
2, 46787, Control_c, 0, 64, 127
2, 46820, Note_on_c, 0, 53, 29
2, 46822, Note_on_c, 0, 71, 0
2, 46827, Control_c, 0, 64, 0
2, 46845, Note_on_c, 0, 53, 0
2, 46853, Control_c, 0, 64, 127
2, 46856, Note_on_c, 0, 69, 41
2, 46878, Note_on_c, 0, 69, 0
2, 46897, Note_on_c, 0, 72, 71
2, 46901, Control_c, 0, 64, 0
2, 46913, Note_on_c, 0, 46, 30
2, 46929, Note_on_c, 0, 72, 0
2, 46960, Note_on_c, 0, 70, 55
2, 46983, Note_on_c, 0, 70, 0
2, 47008, Note_on_c, 0, 61, 50
2, 47019, Control_c, 0, 64, 127
2, 47037, Control_c, 0, 64, 0
2, 47044, Note_on_c, 0, 61, 0
2, 47060, Note_on_c, 0, 57, 35
2, 47062, Note_on_c, 0, 69, 49
2, 47069, Control_c, 0, 64, 127
2, 47085, Control_c, 0, 64, 0
2, 47086, Note_on_c, 0, 57, 0
2, 47101, Note_on_c, 0, 69, 0
2, 47117, Note_on_c, 0, 65, 50
2, 47124, Note_on_c, 0, 69, 28
2, 47137, Note_on_c, 0, 65, 0
2, 47170, Control_c, 0, 64, 127
2, 47173, Note_on_c, 0, 61, 47
2, 47174, Note_on_c, 0, 56, 29
2, 47210, Control_c, 0, 64, 0
2, 47215, Note_on_c, 0, 61, 0
2, 47219, Note_on_c, 0, 69, 0
2, 47222, Control_c, 0, 64, 127
2, 47233, Note_on_c, 0, 56, 0
2, 47233, Note_on_c, 0, 60, 53
2, 47269, Note_on_c, 0, 46, 0
2, 47287, Note_on_c, 0, 46, 39
2, 47296, Control_c, 0, 64, 0
2, 47314, Control_c, 0, 64, 127
2, 47351, Note_on_c, 0, 60, 0
2, 47359, Note_on_c, 0, 61, 60
2, 47360, Control_c, 0, 64, 0
2, 47362, Note_on_c, 0, 55, 38
2, 47376, Note_on_c, 0, 55, 0
2, 47380, Control_c, 0, 64, 127
2, 47413, Note_on_c, 0, 61, 0
2, 47420, Note_on_c, 0, 63, 62
2, 47427, Note_on_c, 0, 55, 49
2, 47428, Control_c, 0, 64, 0
2, 47441, Note_on_c, 0, 63, 0
2, 47443, Note_on_c, 0, 55, 0
2, 47444, Note_on_c, 0, 46, 0
2, 47450, Control_c, 0, 64, 127
2, 47455, Note_on_c, 0, 64, 38
2, 47477, Note_on_c, 0, 64, 0
2, 47492, Note_on_c, 0, 65, 51
2, 47498, Note_on_c, 0, 56, 29
2, 47510, Note_on_c, 0, 65, 0
2, 47511, Note_on_c, 0, 56, 0
2, 47522, Note_on_c, 0, 61, 67
2, 47523, Control_c, 0, 64, 0
2, 47524, Note_on_c, 0, 70, 56
2, 47525, Note_on_c, 0, 65, 69
2, 47595, Note_on_c, 0, 58, 57
2, 47612, Note_on_c, 0, 58, 0
2, 47671, Note_on_c, 0, 51, 36
2, 47688, Note_on_c, 0, 51, 0
2, 47715, Note_on_c, 0, 51, 40
2, 47715, Control_c, 0, 64, 127
2, 47735, Note_on_c, 0, 51, 0
2, 47750, Note_on_c, 0, 61, 0
2, 47752, Note_on_c, 0, 65, 0
2, 47779, Note_on_c, 0, 51, 54
2, 47780, Note_on_c, 0, 70, 0
2, 47844, Note_on_c, 0, 75, 53
2, 47845, Note_on_c, 0, 63, 52
2, 47846, Control_c, 0, 64, 0
2, 47847, Note_on_c, 0, 70, 43
2, 47848, Note_on_c, 0, 64, 44
2, 47852, Note_on_c, 0, 68, 23
2, 47858, Note_on_c, 0, 64, 0
2, 47859, Note_on_c, 0, 68, 0
2, 47862, Note_on_c, 0, 75, 0
2, 47863, Note_on_c, 0, 63, 0
2, 47864, Note_on_c, 0, 70, 0
2, 47903, Note_on_c, 0, 75, 49
2, 47905, Note_on_c, 0, 68, 35
2, 47905, Note_on_c, 0, 70, 42
2, 47906, Note_on_c, 0, 64, 45
2, 47909, Note_on_c, 0, 63, 31
2, 47914, Note_on_c, 0, 64, 0
2, 47915, Note_on_c, 0, 68, 0
2, 47917, Note_on_c, 0, 70, 0
2, 47919, Note_on_c, 0, 75, 0
2, 47919, Note_on_c, 0, 63, 0
2, 47954, Control_c, 0, 64, 127
2, 47959, Note_on_c, 0, 75, 54
2, 47962, Note_on_c, 0, 63, 37
2, 47963, Note_on_c, 0, 68, 36
2, 47964, Note_on_c, 0, 64, 41
2, 47965, Note_on_c, 0, 70, 36
2, 47998, Note_on_c, 0, 51, 0
2, 48011, Note_on_c, 0, 64, 0
2, 48011, Note_on_c, 0, 75, 0
2, 48014, Note_on_c, 0, 70, 0
2, 48026, Note_on_c, 0, 51, 32
2, 48026, Note_on_c, 0, 73, 33
2, 48029, Note_on_c, 0, 63, 0
2, 48036, Note_on_c, 0, 68, 0
2, 48043, Note_on_c, 0, 51, 0
2, 48058, Note_on_c, 0, 73, 0
2, 48077, Note_on_c, 0, 75, 51
2, 48077, Control_c, 0, 64, 0
2, 48079, Note_on_c, 0, 64, 53
2, 48080, Note_on_c, 0, 68, 36
2, 48081, Note_on_c, 0, 49, 37
2, 48082, Note_on_c, 0, 71, 40
2, 48110, Note_on_c, 0, 49, 0
2, 48113, Control_c, 0, 64, 127
2, 48144, Note_on_c, 0, 63, 49
2, 48147, Control_c, 0, 64, 0
2, 48160, Note_on_c, 0, 63, 0
2, 48167, Control_c, 0, 64, 127
2, 48191, Note_on_c, 0, 64, 0
2, 48204, Note_on_c, 0, 71, 0
2, 48205, Note_on_c, 0, 61, 59
2, 48215, Control_c, 0, 64, 0
2, 48230, Note_on_c, 0, 68, 0
2, 48231, Note_on_c, 0, 75, 0
2, 48234, Note_on_c, 0, 61, 0
2, 48247, Control_c, 0, 64, 127
2, 48248, Note_on_c, 0, 73, 33
2, 48252, Note_on_c, 0, 68, 30
2, 48252, Note_on_c, 0, 64, 35
2, 48311, Note_on_c, 0, 42, 60
2, 48318, Note_on_c, 0, 42, 0
2, 48323, Note_on_c, 0, 64, 0
2, 48324, Note_on_c, 0, 68, 0
2, 48326, Note_on_c, 0, 73, 0
2, 48435, Note_on_c, 0, 66, 51
2, 48437, Note_on_c, 0, 64, 46
2, 48439, Note_on_c, 0, 58, 42
2, 48448, Control_c, 0, 64, 0
2, 48456, Control_c, 0, 64, 127
2, 48508, Note_on_c, 0, 58, 0
2, 48549, Note_on_c, 0, 64, 0
2, 48554, Note_on_c, 0, 66, 0
2, 48569, Note_on_c, 0, 72, 69
2, 48597, Note_on_c, 0, 72, 0
2, 48622, Note_on_c, 0, 71, 67
2, 48643, Note_on_c, 0, 71, 0
2, 48660, Control_c, 0, 64, 0
2, 48666, Note_on_c, 0, 72, 78
2, 48678, Control_c, 0, 64, 127
2, 48718, Note_on_c, 0, 46, 47
2, 48735, Control_c, 0, 64, 0
2, 48745, Note_on_c, 0, 72, 0
2, 48751, Control_c, 0, 64, 127
2, 48775, Note_on_c, 0, 56, 39
2, 48813, Control_c, 0, 64, 0
2, 48815, Note_on_c, 0, 60, 37
2, 48817, Control_c, 0, 64, 127
2, 48833, Control_c, 0, 64, 0
2, 48847, Note_on_c, 0, 46, 0
2, 48852, Note_on_c, 0, 60, 0
2, 48854, Note_on_c, 0, 56, 0
2, 48855, Control_c, 0, 64, 127
2, 48863, Note_on_c, 0, 61, 55
2, 48891, Note_on_c, 0, 61, 0
2, 48907, Control_c, 0, 64, 0
2, 48911, Note_on_c, 0, 63, 57
2, 48926, Note_on_c, 0, 63, 0
2, 48931, Control_c, 0, 64, 127
2, 48951, Control_c, 0, 64, 0
2, 48956, Note_on_c, 0, 61, 47
2, 48957, Note_on_c, 0, 70, 46
2, 48959, Note_on_c, 0, 65, 46
2, 48961, Note_on_c, 0, 58, 36
2, 48962, Note_on_c, 0, 51, 33
2, 48968, Note_on_c, 0, 65, 0
2, 48969, Note_on_c, 0, 61, 0
2, 48975, Note_on_c, 0, 58, 0
2, 48979, Note_on_c, 0, 51, 0
2, 48979, Note_on_c, 0, 70, 0
2, 49005, Control_c, 0, 64, 127
2, 49084, Note_on_c, 0, 61, 38
2, 49085, Note_on_c, 0, 51, 37
2, 49086, Control_c, 0, 64, 0
2, 49089, Note_on_c, 0, 64, 46
2, 49090, Note_on_c, 0, 59, 33
2, 49090, Note_on_c, 0, 68, 46
2, 49110, Control_c, 0, 64, 127
2, 49165, Note_on_c, 0, 59, 0
2, 49180, Note_on_c, 0, 51, 0
2, 49189, Note_on_c, 0, 68, 0
2, 49191, Note_on_c, 0, 64, 0
2, 49196, Note_on_c, 0, 61, 0
2, 49247, Note_on_c, 0, 44, 53
2, 49266, Control_c, 0, 64, 0
2, 49323, Note_on_c, 0, 64, 39
2, 49323, Note_on_c, 0, 59, 51
2, 49326, Note_on_c, 0, 56, 31
2, 49326, Note_on_c, 0, 52, 31
2, 49358, Note_on_c, 0, 56, 0
2, 49372, Note_on_c, 0, 52, 0
2, 49372, Note_on_c, 0, 56, 23
2, 49373, Note_on_c, 0, 55, 54
2, 49375, Note_on_c, 0, 67, 43
2, 49390, Note_on_c, 0, 59, 0
2, 49393, Note_on_c, 0, 55, 0
2, 49394, Note_on_c, 0, 64, 0
2, 49405, Note_on_c, 0, 67, 0
2, 49406, Note_on_c, 0, 56, 0
2, 49437, Control_c, 0, 64, 127
2, 49438, Note_on_c, 0, 51, 38
2, 49451, Control_c, 0, 64, 0
2, 49468, Note_on_c, 0, 51, 0
2, 49472, Note_on_c, 0, 56, 43
2, 49475, Note_on_c, 0, 65, 51
2, 49478, Note_on_c, 0, 60, 54
2, 49485, Note_on_c, 0, 53, 45
2, 49499, Control_c, 0, 64, 127
2, 49511, Control_c, 0, 64, 0
2, 49547, Note_on_c, 0, 44, 0
2, 49551, Control_c, 0, 64, 127
2, 49557, Note_on_c, 0, 56, 0
2, 49573, Note_on_c, 0, 60, 0
2, 49582, Note_on_c, 0, 65, 0
2, 49594, Note_on_c, 0, 44, 58
2, 49659, Note_on_c, 0, 44, 0
2, 49690, Note_on_c, 0, 44, 57
2, 49712, Note_on_c, 0, 44, 0
2, 49714, Note_on_c, 0, 53, 0
2, 49841, Note_on_c, 0, 75, 57
2, 49844, Control_c, 0, 64, 0
2, 49844, Note_on_c, 0, 70, 44
2, 49844, Note_on_c, 0, 68, 46
2, 49845, Note_on_c, 0, 63, 42
2, 49904, Note_on_c, 0, 51, 34
2, 49916, Control_c, 0, 64, 127
2, 49957, Note_on_c, 0, 63, 0
2, 49986, Note_on_c, 0, 68, 0
2, 49988, Note_on_c, 0, 75, 0
2, 49991, Note_on_c, 0, 70, 0
2, 49997, Note_on_c, 0, 64, 44
2, 50009, Note_on_c, 0, 63, 8
2, 50038, Note_on_c, 0, 64, 0
2, 50043, Note_on_c, 0, 66, 30
2, 50063, Note_on_c, 0, 66, 0
2, 50072, Note_on_c, 0, 68, 61
2, 50093, Note_on_c, 0, 51, 0
2, 50104, Note_on_c, 0, 68, 0
2, 50116, Note_on_c, 0, 70, 78
2, 50119, Note_on_c, 0, 51, 44
2, 50121, Control_c, 0, 64, 0
2, 50151, Control_c, 0, 64, 127
2, 50161, Note_on_c, 0, 63, 0
2, 50176, Note_on_c, 0, 70, 0
2, 50188, Note_on_c, 0, 72, 70
2, 50191, Control_c, 0, 64, 0
2, 50192, Note_on_c, 0, 63, 38
2, 50209, Control_c, 0, 64, 127
2, 50242, Note_on_c, 0, 72, 0
2, 50250, Note_on_c, 0, 73, 52
2, 50253, Note_on_c, 0, 63, 0
2, 50275, Note_on_c, 0, 73, 0
2, 50277, Control_c, 0, 64, 0
2, 50289, Control_c, 0, 64, 127
2, 50289, Note_on_c, 0, 75, 57
2, 50290, Note_on_c, 0, 61, 35
2, 50338, Note_on_c, 0, 51, 0
2, 50341, Note_on_c, 0, 75, 0
2, 50356, Note_on_c, 0, 77, 51
2, 50361, Note_on_c, 0, 51, 36
2, 50369, Note_on_c, 0, 61, 0
2, 50385, Note_on_c, 0, 77, 0
2, 50399, Note_on_c, 0, 79, 66
2, 50424, Note_on_c, 0, 79, 0
2, 50435, Control_c, 0, 64, 0
2, 50436, Note_on_c, 0, 82, 83
2, 50437, Note_on_c, 0, 60, 66
2, 50441, Note_on_c, 0, 63, 50
2, 50490, Note_on_c, 0, 82, 0
2, 50492, Control_c, 0, 64, 127
2, 50496, Note_on_c, 0, 51, 0
2, 50500, Note_on_c, 0, 63, 0
2, 50514, Note_on_c, 0, 75, 27
2, 50522, Note_on_c, 0, 75, 0
2, 50542, Control_c, 0, 64, 0
2, 50551, Note_on_c, 0, 51, 37
2, 50552, Note_on_c, 0, 72, 40
2, 50560, Control_c, 0, 64, 127
2, 50583, Note_on_c, 0, 60, 0
2, 50602, Note_on_c, 0, 72, 0
2, 50620, Note_on_c, 0, 70, 43
2, 50620, Note_on_c, 0, 60, 26
2, 50624, Note_on_c, 0, 63, 20
2, 50655, Note_on_c, 0, 51, 0
2, 50665, Note_on_c, 0, 63, 0
2, 50685, Note_on_c, 0, 67, 46
2, 50686, Control_c, 0, 64, 0
2, 50688, Note_on_c, 0, 51, 38
2, 50710, Control_c, 0, 64, 127
2, 50721, Note_on_c, 0, 60, 0
2, 50754, Note_on_c, 0, 63, 31
2, 50762, Note_on_c, 0, 60, 22
2, 50770, Note_on_c, 0, 63, 0
2, 50776, Note_on_c, 0, 60, 0
2, 50780, Control_c, 0, 64, 0
2, 50806, Control_c, 0, 64, 127
2, 50818, Note_on_c, 0, 63, 36
2, 50824, Note_on_c, 0, 60, 37
2, 50833, Note_on_c, 0, 63, 0
2, 50833, Control_c, 0, 64, 0
2, 50840, Note_on_c, 0, 60, 0
2, 50857, Control_c, 0, 64, 127
2, 50859, Note_on_c, 0, 63, 33
2, 50864, Note_on_c, 0, 60, 43
2, 50885, Note_on_c, 0, 51, 0
2, 50925, Note_on_c, 0, 67, 0
2, 50926, Note_on_c, 0, 70, 0
2, 50929, Note_on_c, 0, 63, 0
2, 50930, Note_on_c, 0, 51, 51
2, 50963, Note_on_c, 0, 60, 0
2, 50974, Note_on_c, 0, 51, 0
2, 51002, Note_on_c, 0, 75, 67
2, 51002, Note_on_c, 0, 63, 53
2, 51004, Note_on_c, 0, 70, 71
2, 51004, Note_on_c, 0, 72, 68
2, 51005, Note_on_c, 0, 58, 56
2, 51007, Note_on_c, 0, 67, 73
2, 51009, Control_c, 0, 64, 0
2, 51011, Note_on_c, 0, 60, 38
2, 51030, Note_on_c, 0, 63, 0
2, 51045, Control_c, 0, 64, 127
2, 51055, Note_on_c, 0, 51, 56
2, 51076, Note_on_c, 0, 67, 0
2, 51086, Note_on_c, 0, 51, 0
2, 51087, Note_on_c, 0, 72, 0
2, 51089, Note_on_c, 0, 70, 0
2, 51104, Note_on_c, 0, 75, 0
2, 51106, Note_on_c, 0, 58, 0
2, 51106, Note_on_c, 0, 60, 0
2, 51128, Note_on_c, 0, 52, 35
2, 51137, Note_on_c, 0, 52, 0
2, 51191, Note_on_c, 0, 77, 74
2, 51192, Note_on_c, 0, 80, 71
2, 51192, Note_on_c, 0, 68, 63
2, 51192, Note_on_c, 0, 73, 67
2, 51194, Note_on_c, 0, 66, 59
2, 51196, Note_on_c, 0, 71, 55
2, 51198, Note_on_c, 0, 69, 54
2, 51200, Control_c, 0, 64, 0
2, 51211, Note_on_c, 0, 71, 0
2, 51224, Control_c, 0, 64, 127
2, 51258, Note_on_c, 0, 69, 0
2, 51269, Note_on_c, 0, 68, 0
2, 51271, Note_on_c, 0, 73, 0
2, 51273, Note_on_c, 0, 66, 0
2, 51281, Note_on_c, 0, 80, 0
2, 51282, Note_on_c, 0, 77, 0
2, 51294, Note_on_c, 0, 79, 62
2, 51295, Note_on_c, 0, 67, 59
2, 51296, Note_on_c, 0, 69, 56
2, 51296, Note_on_c, 0, 76, 67
2, 51297, Note_on_c, 0, 72, 58
2, 51298, Control_c, 0, 64, 0
2, 51298, Note_on_c, 0, 65, 51
2, 51330, Control_c, 0, 64, 127
2, 51348, Note_on_c, 0, 67, 0
2, 51351, Note_on_c, 0, 69, 0
2, 51352, Note_on_c, 0, 65, 0
2, 51356, Note_on_c, 0, 76, 0
2, 51357, Note_on_c, 0, 79, 0
2, 51369, Note_on_c, 0, 72, 0
2, 51398, Note_on_c, 0, 68, 53
2, 51401, Note_on_c, 0, 78, 53
2, 51401, Note_on_c, 0, 75, 62
2, 51404, Note_on_c, 0, 66, 39
2, 51404, Note_on_c, 0, 71, 58
2, 51409, Note_on_c, 0, 64, 32
2, 51411, Control_c, 0, 64, 0
2, 51431, Control_c, 0, 64, 127
2, 51437, Note_on_c, 0, 64, 0
2, 51450, Note_on_c, 0, 68, 0
2, 51450, Note_on_c, 0, 71, 0
2, 51451, Note_on_c, 0, 78, 0
2, 51451, Note_on_c, 0, 66, 0
2, 51471, Note_on_c, 0, 75, 0
2, 51504, Note_on_c, 0, 77, 50
2, 51504, Note_on_c, 0, 67, 49
2, 51504, Note_on_c, 0, 70, 50
2, 51505, Note_on_c, 0, 74, 43
2, 51506, Note_on_c, 0, 63, 30
2, 51507, Control_c, 0, 64, 0
2, 51509, Note_on_c, 0, 65, 40
2, 51551, Control_c, 0, 64, 127
2, 51582, Note_on_c, 0, 65, 0
2, 51607, Note_on_c, 0, 67, 0
2, 51608, Note_on_c, 0, 63, 0
2, 51610, Note_on_c, 0, 74, 0
2, 51617, Note_on_c, 0, 70, 0
2, 51628, Note_on_c, 0, 77, 0
2, 51641, Note_on_c, 0, 63, 44
2, 51642, Note_on_c, 0, 67, 40
2, 51652, Note_on_c, 0, 67, 0
2, 51665, Note_on_c, 0, 63, 0
2, 51715, Note_on_c, 0, 75, 55
2, 51719, Note_on_c, 0, 73, 34
2, 51720, Note_on_c, 0, 69, 50
2, 51724, Note_on_c, 0, 63, 25
2, 51746, Control_c, 0, 64, 0
2, 51755, Note_on_c, 0, 63, 0
2, 51768, Note_on_c, 0, 60, 45
2, 51771, Note_on_c, 0, 73, 0
2, 51773, Note_on_c, 0, 75, 0
2, 51779, Note_on_c, 0, 69, 0
2, 51798, Control_c, 0, 64, 127
2, 51812, Control_c, 0, 64, 0
2, 51828, Note_on_c, 0, 60, 0
2, 51832, Note_on_c, 0, 53, 34
2, 51854, Note_on_c, 0, 53, 0
2, 51876, Control_c, 0, 64, 127
2, 51878, Control_c, 0, 64, 0
2, 51895, Note_on_c, 0, 57, 44
2, 51896, Note_on_c, 0, 69, 57
2, 51897, Note_on_c, 0, 61, 37
2, 51898, Note_on_c, 0, 65, 54
2, 51932, Control_c, 0, 64, 127
2, 51957, Note_on_c, 0, 57, 0
2, 51961, Note_on_c, 0, 51, 33
2, 51968, Control_c, 0, 64, 0
2, 51980, Note_on_c, 0, 51, 0
2, 52004, Control_c, 0, 64, 127
2, 52073, Note_on_c, 0, 41, 22
2, 52080, Note_on_c, 0, 41, 0
2, 52085, Note_on_c, 0, 65, 0
2, 52098, Note_on_c, 0, 61, 0
2, 52119, Note_on_c, 0, 69, 0
2, 52131, Note_on_c, 0, 61, 39
2, 52131, Note_on_c, 0, 65, 63
2, 52149, Control_c, 0, 64, 0
2, 52195, Note_on_c, 0, 39, 67
2, 52221, Control_c, 0, 64, 127
2, 52260, Note_on_c, 0, 65, 0
2, 52261, Note_on_c, 0, 61, 0
2, 52280, Note_on_c, 0, 39, 0
2, 52299, Note_on_c, 0, 61, 50
2, 52300, Note_on_c, 0, 65, 60
2, 52337, Note_on_c, 0, 61, 0
2, 52348, Note_on_c, 0, 51, 70
2, 52367, Note_on_c, 0, 65, 0
2, 52399, Note_on_c, 0, 51, 0
2, 52414, Note_on_c, 0, 70, 69
2, 52415, Note_on_c, 0, 61, 74
2, 52415, Note_on_c, 0, 65, 79
2, 52419, Control_c, 0, 64, 0
2, 52419, Note_on_c, 0, 51, 58
2, 52450, Control_c, 0, 64, 127
2, 52479, Note_on_c, 0, 51, 0
2, 52507, Note_on_c, 0, 51, 53
2, 52536, Note_on_c, 0, 51, 0
2, 52549, Note_on_c, 0, 61, 0
2, 52554, Note_on_c, 0, 65, 0
2, 52574, Note_on_c, 0, 70, 0
2, 52581, Note_on_c, 0, 61, 60
2, 52584, Note_on_c, 0, 65, 59
2, 52587, Note_on_c, 0, 68, 45
2, 52591, Note_on_c, 0, 58, 35
2, 52603, Note_on_c, 0, 58, 0
2, 52608, Note_on_c, 0, 61, 0
2, 52611, Note_on_c, 0, 65, 0
2, 52622, Note_on_c, 0, 68, 0
2, 52631, Note_on_c, 0, 51, 64
2, 52632, Control_c, 0, 64, 0
2, 52658, Control_c, 0, 64, 127
2, 52700, Note_on_c, 0, 51, 0
2, 52728, Note_on_c, 0, 51, 64
2, 52798, Note_on_c, 0, 75, 80
2, 52800, Note_on_c, 0, 70, 75
2, 52801, Note_on_c, 0, 60, 63
2, 52801, Note_on_c, 0, 72, 66
2, 52802, Note_on_c, 0, 67, 69
2, 52803, Control_c, 0, 64, 0
2, 52804, Note_on_c, 0, 63, 59
2, 52849, Control_c, 0, 64, 127
2, 52868, Note_on_c, 0, 51, 0
2, 52888, Note_on_c, 0, 67, 0
2, 52891, Note_on_c, 0, 70, 0
2, 52894, Note_on_c, 0, 72, 0
2, 52895, Note_on_c, 0, 63, 0
2, 52896, Note_on_c, 0, 75, 0
2, 52912, Note_on_c, 0, 70, 56
2, 52912, Note_on_c, 0, 73, 45
2, 52914, Note_on_c, 0, 51, 50
2, 52915, Note_on_c, 0, 67, 57
2, 52920, Note_on_c, 0, 60, 0
2, 52921, Control_c, 0, 64, 0
2, 52923, Control_c, 0, 64, 127
2, 52925, Control_c, 0, 64, 0
2, 52927, Control_c, 0, 64, 127
2, 52957, Note_on_c, 0, 70, 0
2, 52958, Note_on_c, 0, 67, 0
2, 52961, Note_on_c, 0, 73, 0
2, 52964, Note_on_c, 0, 51, 0
2, 53011, Note_on_c, 0, 73, 45
2, 53013, Note_on_c, 0, 67, 65
2, 53015, Note_on_c, 0, 64, 57
2, 53016, Note_on_c, 0, 52, 55
2, 53019, Control_c, 0, 64, 0
2, 53022, Note_on_c, 0, 61, 28
2, 53069, Control_c, 0, 64, 127
2, 53116, Note_on_c, 0, 61, 0
2, 53124, Note_on_c, 0, 64, 0
2, 53128, Note_on_c, 0, 73, 0
2, 53130, Note_on_c, 0, 67, 0
2, 53157, Note_on_c, 0, 72, 53
2, 53158, Note_on_c, 0, 61, 35
2, 53165, Note_on_c, 0, 58, 25
2, 53217, Note_on_c, 0, 52, 0
2, 53220, Note_on_c, 0, 72, 0
2, 53224, Note_on_c, 0, 58, 0
2, 53225, Note_on_c, 0, 61, 0
2, 53227, Note_on_c, 0, 70, 47
2, 53264, Note_on_c, 0, 68, 52
2, 53272, Note_on_c, 0, 70, 0
2, 53291, Note_on_c, 0, 68, 0
2, 53296, Control_c, 0, 64, 0
2, 53298, Note_on_c, 0, 56, 30
2, 53298, Note_on_c, 0, 60, 38
2, 53300, Note_on_c, 0, 67, 57
2, 53300, Note_on_c, 0, 53, 30
2, 53338, Note_on_c, 0, 67, 0
2, 53348, Note_on_c, 0, 68, 45
2, 53388, Note_on_c, 0, 68, 0
2, 53403, Note_on_c, 0, 65, 45
2, 53412, Control_c, 0, 64, 127
2, 53426, Note_on_c, 0, 53, 0
2, 53451, Note_on_c, 0, 56, 0
2, 53469, Note_on_c, 0, 53, 40
2, 53470, Note_on_c, 0, 56, 15
2, 53474, Note_on_c, 0, 60, 0
2, 53488, Note_on_c, 0, 56, 0
2, 53497, Note_on_c, 0, 53, 0
2, 53522, Note_on_c, 0, 65, 0
2, 53530, Note_on_c, 0, 68, 60
2, 53557, Note_on_c, 0, 68, 0
2, 53567, Control_c, 0, 64, 0
2, 53569, Note_on_c, 0, 67, 52
2, 53570, Note_on_c, 0, 43, 44
2, 53572, Note_on_c, 0, 53, 43
2, 53601, Note_on_c, 0, 67, 0
2, 53612, Note_on_c, 0, 68, 54
2, 53641, Note_on_c, 0, 53, 0
2, 53647, Control_c, 0, 64, 127
2, 53667, Control_c, 0, 64, 0
2, 53672, Note_on_c, 0, 59, 62
2, 53675, Note_on_c, 0, 68, 0
2, 53679, Note_on_c, 0, 53, 36
2, 53699, Control_c, 0, 64, 127
2, 53707, Note_on_c, 0, 43, 0
2, 53741, Note_on_c, 0, 43, 50
2, 53750, Note_on_c, 0, 43, 0
2, 53765, Note_on_c, 0, 53, 0
2, 53787, Note_on_c, 0, 59, 0
2, 53805, Note_on_c, 0, 65, 61
2, 53832, Note_on_c, 0, 65, 0
2, 53844, Note_on_c, 0, 48, 37
2, 53844, Control_c, 0, 64, 0
2, 53847, Note_on_c, 0, 64, 53
2, 53914, Control_c, 0, 64, 127
2, 53915, Note_on_c, 0, 62, 39
2, 53917, Note_on_c, 0, 64, 0
2, 53948, Control_c, 0, 64, 0
2, 53954, Note_on_c, 0, 62, 0
2, 53962, Note_on_c, 0, 60, 51
2, 53970, Control_c, 0, 64, 127
2, 54000, Note_on_c, 0, 48, 0
2, 54017, Note_on_c, 0, 48, 53
2, 54020, Note_on_c, 0, 60, 0
2, 54026, Note_on_c, 0, 48, 0
2, 54085, Note_on_c, 0, 68, 71
2, 54085, Note_on_c, 0, 75, 69
2, 54087, Note_on_c, 0, 63, 64
2, 54088, Control_c, 0, 64, 0
2, 54091, Note_on_c, 0, 52, 51
2, 54094, Note_on_c, 0, 58, 39
2, 54098, Note_on_c, 0, 52, 0
2, 54101, Note_on_c, 0, 63, 0
2, 54109, Note_on_c, 0, 58, 0
2, 54116, Control_c, 0, 64, 127
2, 54181, Note_on_c, 0, 30, 55
2, 54186, Control_c, 0, 64, 0
2, 54195, Control_c, 0, 64, 127
2, 54200, Note_on_c, 0, 30, 0
2, 54270, Note_on_c, 0, 68, 0
2, 54285, Note_on_c, 0, 75, 0
2, 54399, Note_on_c, 0, 72, 82
2, 54400, Note_on_c, 0, 53, 44
2, 54403, Control_c, 0, 64, 0
2, 54404, Note_on_c, 0, 60, 33
2, 54435, Note_on_c, 0, 72, 0
2, 54439, Note_on_c, 0, 73, 30
2, 54465, Note_on_c, 0, 73, 0
2, 54468, Note_on_c, 0, 72, 34
2, 54503, Note_on_c, 0, 72, 0
2, 54510, Note_on_c, 0, 71, 45
2, 54522, Note_on_c, 0, 71, 0
2, 54538, Note_on_c, 0, 72, 56
2, 54541, Note_on_c, 0, 65, 39
2, 54553, Note_on_c, 0, 72, 0
2, 54597, Note_on_c, 0, 53, 0
2, 54608, Note_on_c, 0, 72, 69
2, 54622, Note_on_c, 0, 60, 0
2, 54638, Note_on_c, 0, 72, 0
2, 54640, Control_c, 0, 64, 127
2, 54643, Note_on_c, 0, 65, 0
2, 54646, Note_on_c, 0, 71, 50
2, 54666, Note_on_c, 0, 71, 0
2, 54676, Note_on_c, 0, 72, 49
2, 54676, Control_c, 0, 64, 0
2, 54678, Note_on_c, 0, 61, 37
2, 54679, Note_on_c, 0, 65, 24
2, 54681, Note_on_c, 0, 53, 26
2, 54711, Note_on_c, 0, 72, 0
2, 54723, Note_on_c, 0, 73, 33
2, 54747, Note_on_c, 0, 73, 0
2, 54782, Control_c, 0, 64, 127
2, 54790, Control_c, 0, 64, 0
2, 54803, Note_on_c, 0, 61, 0
2, 54804, Note_on_c, 0, 65, 0
2, 54823, Note_on_c, 0, 65, 24
2, 54826, Note_on_c, 0, 60, 76
2, 54836, Control_c, 0, 64, 127
2, 54846, Control_c, 0, 64, 0
2, 54886, Control_c, 0, 64, 127
2, 54901, Note_on_c, 0, 53, 0
2, 54914, Note_on_c, 0, 60, 0
2, 54923, Note_on_c, 0, 65, 0
2, 54967, Control_c, 0, 64, 0
2, 54968, Note_on_c, 0, 61, 28
2, 54970, Note_on_c, 0, 65, 32
2, 54970, Note_on_c, 0, 72, 85
2, 54974, Note_on_c, 0, 55, 25
2, 55002, Note_on_c, 0, 72, 0
2, 55010, Note_on_c, 0, 73, 27
2, 55024, Note_on_c, 0, 72, 33
2, 55032, Note_on_c, 0, 65, 0
2, 55033, Note_on_c, 0, 73, 0
2, 55045, Note_on_c, 0, 72, 0
2, 55047, Note_on_c, 0, 71, 34
2, 55066, Note_on_c, 0, 61, 0
2, 55077, Note_on_c, 0, 71, 0
2, 55085, Note_on_c, 0, 72, 64
2, 55101, Note_on_c, 0, 61, 30
2, 55102, Note_on_c, 0, 65, 24
2, 55107, Note_on_c, 0, 72, 0
2, 55115, Control_c, 0, 64, 127
2, 55119, Note_on_c, 0, 73, 32
2, 55140, Note_on_c, 0, 73, 0
2, 55141, Control_c, 0, 64, 0
2, 55155, Note_on_c, 0, 74, 44
2, 55158, Note_on_c, 0, 76, 44
2, 55168, Note_on_c, 0, 65, 0
2, 55170, Note_on_c, 0, 74, 0
2, 55171, Note_on_c, 0, 76, 0
2, 55177, Note_on_c, 0, 55, 0
2, 55182, Note_on_c, 0, 61, 0
2, 55185, Note_on_c, 0, 79, 61
2, 55207, Control_c, 0, 64, 127
2, 55208, Note_on_c, 0, 79, 0
2, 55221, Note_on_c, 0, 82, 67
2, 55230, Note_on_c, 0, 83, 42
2, 55237, Control_c, 0, 64, 0
2, 55238, Note_on_c, 0, 83, 0
2, 55238, Note_on_c, 0, 82, 0
2, 55247, Note_on_c, 0, 63, 34
2, 55251, Note_on_c, 0, 52, 31
2, 55254, Note_on_c, 0, 58, 31
2, 55260, Note_on_c, 0, 84, 54
2, 55274, Note_on_c, 0, 63, 0
2, 55279, Note_on_c, 0, 52, 0
2, 55290, Note_on_c, 0, 84, 0
2, 55291, Note_on_c, 0, 58, 0
2, 55296, Note_on_c, 0, 85, 53
2, 55314, Note_on_c, 0, 85, 0
2, 55327, Note_on_c, 0, 87, 37
2, 55346, Note_on_c, 0, 87, 0
2, 55357, Note_on_c, 0, 88, 63
2, 55377, Note_on_c, 0, 58, 32
2, 55378, Note_on_c, 0, 48, 36
2, 55380, Note_on_c, 0, 88, 0
2, 55394, Note_on_c, 0, 91, 45
2, 55405, Note_on_c, 0, 91, 0
2, 55428, Note_on_c, 0, 94, 64
2, 55437, Note_on_c, 0, 48, 0
2, 55441, Note_on_c, 0, 94, 0
2, 55448, Note_on_c, 0, 58, 0
2, 55454, Control_c, 0, 64, 127
2, 55461, Note_on_c, 0, 96, 62
2, 55478, Note_on_c, 0, 96, 0
2, 55495, Note_on_c, 0, 99, 74
2, 55502, Note_on_c, 0, 100, 66
2, 55504, Control_c, 0, 64, 0
2, 55505, Note_on_c, 0, 99, 0
2, 55519, Note_on_c, 0, 100, 0
2, 55519, Note_on_c, 0, 60, 35
2, 55522, Note_on_c, 0, 53, 34
2, 55533, Note_on_c, 0, 103, 80
2, 55567, Note_on_c, 0, 103, 0
2, 55586, Note_on_c, 0, 101, 68
2, 55600, Note_on_c, 0, 60, 0
2, 55609, Note_on_c, 0, 101, 0
2, 55613, Note_on_c, 0, 53, 0
2, 55629, Note_on_c, 0, 96, 51
2, 55633, Note_on_c, 0, 53, 17
2, 55637, Note_on_c, 0, 60, 32
2, 55639, Note_on_c, 0, 64, 26
2, 55641, Note_on_c, 0, 56, 25
2, 55647, Note_on_c, 0, 96, 0
2, 55657, Control_c, 0, 64, 127
2, 55670, Note_on_c, 0, 92, 49
2, 55691, Note_on_c, 0, 92, 0
2, 55709, Note_on_c, 0, 60, 0
2, 55710, Note_on_c, 0, 53, 0
2, 55712, Note_on_c, 0, 56, 0
2, 55719, Note_on_c, 0, 64, 0
2, 55721, Note_on_c, 0, 91, 45
2, 55739, Note_on_c, 0, 91, 0
2, 55769, Note_on_c, 0, 94, 78
2, 55771, Control_c, 0, 64, 0
2, 55771, Note_on_c, 0, 57, 49
2, 55774, Note_on_c, 0, 63, 35
2, 55775, Note_on_c, 0, 65, 33
2, 55799, Control_c, 0, 64, 127
2, 55810, Note_on_c, 0, 94, 0
2, 55817, Control_c, 0, 64, 0
2, 55835, Note_on_c, 0, 92, 78
2, 55859, Note_on_c, 0, 65, 0
2, 55859, Control_c, 0, 64, 127
2, 55862, Note_on_c, 0, 92, 0
2, 55867, Note_on_c, 0, 63, 0
2, 55871, Note_on_c, 0, 57, 0
2, 55875, Control_c, 0, 64, 0
2, 55881, Note_on_c, 0, 94, 51
2, 55888, Note_on_c, 0, 92, 63
2, 55917, Control_c, 0, 64, 127
2, 55918, Note_on_c, 0, 94, 0
2, 55918, Note_on_c, 0, 57, 32
2, 55920, Note_on_c, 0, 63, 18
2, 55920, Note_on_c, 0, 91, 49
2, 55923, Note_on_c, 0, 92, 0
2, 55948, Note_on_c, 0, 63, 0
2, 55950, Note_on_c, 0, 91, 0
2, 55961, Control_c, 0, 64, 0
2, 55962, Note_on_c, 0, 90, 60
2, 55963, Note_on_c, 0, 63, 29
2, 55964, Note_on_c, 0, 65, 48
2, 55970, Note_on_c, 0, 90, 0
2, 55984, Note_on_c, 0, 65, 0
2, 55986, Control_c, 0, 64, 127
2, 55991, Note_on_c, 0, 57, 0
2, 55992, Note_on_c, 0, 63, 0
2, 56000, Note_on_c, 0, 89, 24
2, 56019, Note_on_c, 0, 89, 0
2, 56028, Note_on_c, 0, 87, 64
2, 56050, Control_c, 0, 64, 0
2, 56051, Note_on_c, 0, 87, 0
2, 56054, Note_on_c, 0, 65, 22
2, 56055, Note_on_c, 0, 60, 34
2, 56055, Note_on_c, 0, 61, 37
2, 56060, Note_on_c, 0, 89, 73
2, 56076, Control_c, 0, 64, 127
2, 56106, Note_on_c, 0, 89, 0
2, 56123, Note_on_c, 0, 84, 50
2, 56130, Note_on_c, 0, 84, 0
2, 56171, Note_on_c, 0, 65, 0
2, 56174, Note_on_c, 0, 56, 27
2, 56175, Note_on_c, 0, 60, 0
2, 56180, Note_on_c, 0, 61, 0
2, 56197, Note_on_c, 0, 56, 0
2, 56230, Note_on_c, 0, 72, 46
2, 56231, Note_on_c, 0, 61, 57
2, 56234, Note_on_c, 0, 65, 51
2, 56235, Note_on_c, 0, 57, 46
2, 56240, Control_c, 0, 64, 0
2, 56266, Control_c, 0, 64, 127
2, 56307, Note_on_c, 0, 65, 0
2, 56309, Note_on_c, 0, 61, 0
2, 56314, Note_on_c, 0, 72, 0
2, 56329, Note_on_c, 0, 57, 0
2, 56333, Note_on_c, 0, 61, 46
2, 56334, Note_on_c, 0, 70, 52
2, 56335, Note_on_c, 0, 56, 42
2, 56337, Note_on_c, 0, 65, 54
2, 56347, Control_c, 0, 64, 0
2, 56381, Control_c, 0, 64, 127
2, 56421, Note_on_c, 0, 61, 0
2, 56424, Note_on_c, 0, 65, 0
2, 56449, Note_on_c, 0, 70, 0
2, 56465, Note_on_c, 0, 56, 0
2, 56472, Note_on_c, 0, 61, 46
2, 56473, Note_on_c, 0, 55, 45
2, 56474, Note_on_c, 0, 69, 50
2, 56474, Note_on_c, 0, 65, 54
2, 56505, Control_c, 0, 64, 0
2, 56508, Note_on_c, 0, 69, 0
2, 56508, Note_on_c, 0, 61, 0
2, 56510, Note_on_c, 0, 55, 0
2, 56522, Note_on_c, 0, 70, 51
2, 56522, Note_on_c, 0, 61, 31
2, 56523, Note_on_c, 0, 54, 42
2, 56538, Note_on_c, 0, 54, 0
2, 56540, Note_on_c, 0, 65, 0
2, 56545, Control_c, 0, 64, 127
2, 56547, Note_on_c, 0, 61, 0
2, 56557, Note_on_c, 0, 70, 0
2, 56589, Note_on_c, 0, 51, 62
2, 56595, Control_c, 0, 64, 0
2, 56615, Control_c, 0, 64, 127
2, 56665, Note_on_c, 0, 51, 0
2, 56681, Note_on_c, 0, 51, 46
2, 56749, Note_on_c, 0, 51, 0
2, 56777, Note_on_c, 0, 56, 67
2, 56777, Note_on_c, 0, 51, 58
2, 56778, Note_on_c, 0, 61, 64
2, 56779, Note_on_c, 0, 65, 54
2, 56781, Note_on_c, 0, 68, 33
2, 56786, Control_c, 0, 64, 0
2, 56794, Note_on_c, 0, 56, 0
2, 56797, Note_on_c, 0, 68, 0
2, 56801, Note_on_c, 0, 61, 0
2, 56803, Note_on_c, 0, 65, 0
2, 56807, Note_on_c, 0, 51, 0
2, 56849, Note_on_c, 0, 56, 77
2, 56850, Note_on_c, 0, 68, 50
2, 56850, Note_on_c, 0, 51, 68
2, 56850, Note_on_c, 0, 61, 65
2, 56851, Note_on_c, 0, 65, 55
2, 56860, Note_on_c, 0, 65, 0
2, 56862, Note_on_c, 0, 56, 0
2, 56863, Note_on_c, 0, 68, 0
2, 56865, Note_on_c, 0, 61, 0
2, 56871, Note_on_c, 0, 51, 0
2, 56895, Note_on_c, 0, 56, 74
2, 56896, Note_on_c, 0, 61, 67
2, 56896, Note_on_c, 0, 68, 60
2, 56897, Control_c, 0, 64, 127
2, 56898, Note_on_c, 0, 51, 67
2, 56904, Note_on_c, 0, 65, 30
2, 56909, Note_on_c, 0, 56, 0
2, 56915, Note_on_c, 0, 65, 0
2, 56916, Note_on_c, 0, 61, 0
2, 56925, Note_on_c, 0, 68, 0
2, 57082, Note_on_c, 0, 77, 74
2, 57084, Note_on_c, 0, 70, 69
2, 57085, Note_on_c, 0, 63, 56
2, 57089, Control_c, 0, 64, 0
2, 57089, Note_on_c, 0, 73, 30
2, 57107, Note_on_c, 0, 73, 0
2, 57109, Control_c, 0, 64, 127
2, 57118, Note_on_c, 0, 63, 0
2, 57127, Note_on_c, 0, 77, 0
2, 57128, Note_on_c, 0, 70, 0
2, 57133, Note_on_c, 0, 51, 0
2, 57139, Note_on_c, 0, 75, 62
2, 57169, Note_on_c, 0, 75, 0
2, 57185, Note_on_c, 0, 75, 46
2, 57185, Control_c, 0, 64, 0
2, 57187, Note_on_c, 0, 70, 56
2, 57188, Note_on_c, 0, 58, 42
2, 57188, Note_on_c, 0, 48, 44
2, 57222, Control_c, 0, 64, 127
2, 57233, Note_on_c, 0, 58, 0
2, 57243, Note_on_c, 0, 54, 44
2, 57290, Note_on_c, 0, 70, 0
2, 57298, Note_on_c, 0, 58, 51
2, 57299, Note_on_c, 0, 75, 0
2, 57353, Note_on_c, 0, 60, 51
2, 57372, Note_on_c, 0, 48, 0
2, 57382, Note_on_c, 0, 58, 0
2, 57388, Note_on_c, 0, 54, 0
2, 57399, Note_on_c, 0, 60, 0
2, 57400, Note_on_c, 0, 61, 62
2, 57404, Control_c, 0, 64, 0
2, 57419, Note_on_c, 0, 61, 0
2, 57424, Note_on_c, 0, 63, 51
2, 57430, Note_on_c, 0, 63, 0
2, 57445, Note_on_c, 0, 65, 51
2, 57456, Note_on_c, 0, 65, 0
2, 57463, Note_on_c, 0, 66, 40
2, 57480, Note_on_c, 0, 66, 0
2, 57508, Note_on_c, 0, 69, 33
2, 57520, Note_on_c, 0, 69, 0
2, 57523, Note_on_c, 0, 70, 56
2, 57544, Note_on_c, 0, 62, 28
2, 57545, Note_on_c, 0, 51, 36
2, 57548, Note_on_c, 0, 69, 67
2, 57549, Note_on_c, 0, 57, 49
2, 57554, Note_on_c, 0, 70, 0
2, 57608, Note_on_c, 0, 57, 0
2, 57624, Note_on_c, 0, 57, 19
2, 57625, Note_on_c, 0, 66, 50
2, 57629, Control_c, 0, 64, 127
2, 57638, Note_on_c, 0, 69, 0
2, 57640, Note_on_c, 0, 62, 0
2, 57667, Note_on_c, 0, 57, 0
2, 57679, Note_on_c, 0, 62, 32
2, 57687, Note_on_c, 0, 66, 0
2, 57688, Note_on_c, 0, 62, 0
2, 57692, Note_on_c, 0, 65, 48
2, 57703, Note_on_c, 0, 51, 0
2, 57721, Note_on_c, 0, 65, 0
2, 57740, Note_on_c, 0, 63, 32
2, 57752, Note_on_c, 0, 63, 0
2, 57769, Control_c, 0, 64, 0
2, 57771, Note_on_c, 0, 46, 31
2, 57772, Note_on_c, 0, 72, 51
2, 57827, Note_on_c, 0, 57, 28
2, 57835, Control_c, 0, 64, 127
2, 57856, Note_on_c, 0, 57, 0
2, 57871, Control_c, 0, 64, 0
2, 57889, Note_on_c, 0, 61, 35
2, 57891, Note_on_c, 0, 65, 47
2, 57891, Note_on_c, 0, 56, 31
2, 57899, Control_c, 0, 64, 127
2, 57930, Note_on_c, 0, 46, 0
2, 57953, Note_on_c, 0, 46, 38
2, 57954, Note_on_c, 0, 65, 0
2, 57964, Note_on_c, 0, 72, 0
2, 57973, Note_on_c, 0, 61, 0
2, 57981, Note_on_c, 0, 46, 0
2, 57985, Note_on_c, 0, 56, 0
2, 58023, Note_on_c, 0, 64, 51
2, 58024, Note_on_c, 0, 58, 36
2, 58024, Note_on_c, 0, 49, 37
2, 58024, Control_c, 0, 64, 0
2, 58050, Control_c, 0, 64, 127
2, 58089, Note_on_c, 0, 56, 34
2, 58112, Note_on_c, 0, 58, 0
2, 58147, Note_on_c, 0, 64, 0
2, 58152, Note_on_c, 0, 58, 51
2, 58157, Note_on_c, 0, 56, 0
2, 58170, Note_on_c, 0, 58, 0
2, 58188, Note_on_c, 0, 64, 63
2, 58217, Note_on_c, 0, 64, 0
2, 58230, Note_on_c, 0, 49, 0
2, 58250, Note_on_c, 0, 49, 34
2, 58253, Note_on_c, 0, 67, 80
2, 58256, Note_on_c, 0, 56, 30
2, 58280, Note_on_c, 0, 56, 0
2, 58286, Note_on_c, 0, 49, 0
2, 58311, Note_on_c, 0, 67, 0
2, 58325, Note_on_c, 0, 58, 48
2, 58328, Note_on_c, 0, 63, 65
2, 58331, Note_on_c, 0, 48, 33
2, 58333, Control_c, 0, 64, 0
2, 58353, Note_on_c, 0, 58, 0
2, 58371, Control_c, 0, 64, 127
2, 58375, Note_on_c, 0, 58, 53
2, 58420, Note_on_c, 0, 63, 0
2, 58436, Note_on_c, 0, 60, 62
2, 58442, Note_on_c, 0, 60, 0
2, 58443, Note_on_c, 0, 58, 0
2, 58486, Note_on_c, 0, 58, 61
2, 58547, Note_on_c, 0, 48, 0
2, 58558, Note_on_c, 0, 84, 105
2, 58559, Note_on_c, 0, 58, 0
2, 58586, Note_on_c, 0, 84, 0
2, 58592, Note_on_c, 0, 87, 69
2, 58610, Note_on_c, 0, 84, 36
2, 58630, Note_on_c, 0, 81, 52
2, 58632, Note_on_c, 0, 84, 0
2, 58632, Note_on_c, 0, 87, 0
2, 58644, Control_c, 0, 64, 0
2, 58658, Note_on_c, 0, 81, 0
2, 58674, Note_on_c, 0, 80, 60
2, 58680, Note_on_c, 0, 65, 41
2, 58682, Note_on_c, 0, 63, 30
2, 58683, Note_on_c, 0, 57, 38
2, 58700, Note_on_c, 0, 80, 0
2, 58709, Note_on_c, 0, 79, 38
2, 58733, Note_on_c, 0, 79, 0
2, 58741, Note_on_c, 0, 65, 0
2, 58747, Note_on_c, 0, 78, 39
2, 58770, Note_on_c, 0, 78, 0
2, 58781, Note_on_c, 0, 77, 19
2, 58799, Note_on_c, 0, 77, 0
2, 58814, Note_on_c, 0, 75, 52
2, 58815, Note_on_c, 0, 65, 37
2, 58828, Note_on_c, 0, 65, 0
2, 58839, Note_on_c, 0, 75, 0
2, 58847, Note_on_c, 0, 63, 0
2, 58850, Note_on_c, 0, 57, 0
2, 58852, Note_on_c, 0, 72, 38
2, 58863, Control_c, 0, 64, 127
2, 58883, Note_on_c, 0, 72, 0
2, 58896, Note_on_c, 0, 71, 35
2, 58905, Note_on_c, 0, 71, 0
2, 58922, Note_on_c, 0, 74, 71
2, 58923, Control_c, 0, 64, 0
2, 58974, Note_on_c, 0, 69, 62
2, 58976, Note_on_c, 0, 74, 0
2, 58983, Control_c, 0, 64, 127
2, 58990, Note_on_c, 0, 69, 0
2, 59032, Note_on_c, 0, 47, 60
2, 59057, Note_on_c, 0, 47, 0
2, 59081, Note_on_c, 0, 57, 36
2, 59117, Note_on_c, 0, 57, 0
2, 59132, Note_on_c, 0, 62, 53
2, 59161, Note_on_c, 0, 62, 0
2, 59186, Note_on_c, 0, 56, 42
2, 59191, Note_on_c, 0, 40, 32
2, 59191, Note_on_c, 0, 62, 31
2, 59192, Control_c, 0, 64, 0
2, 59251, Note_on_c, 0, 28, 45
2, 59274, Note_on_c, 0, 28, 0
2, 59317, Note_on_c, 0, 28, 51
2, 59332, Note_on_c, 0, 28, 0
2, 59348, Control_c, 0, 64, 127
2, 59355, Note_on_c, 0, 28, 36
2, 59369, Note_on_c, 0, 28, 0
2, 59412, Note_on_c, 0, 62, 0
2, 59416, Note_on_c, 0, 40, 0
2, 59418, Control_c, 0, 64, 0
2, 59424, Note_on_c, 0, 56, 0
2, 59428, Control_c, 0, 64, 127
2, 59497, Note_on_c, 0, 46, 44
2, 59498, Note_on_c, 0, 34, 34
2, 59500, Control_c, 0, 64, 0
2, 59501, Note_on_c, 0, 61, 51
2, 59502, Note_on_c, 0, 63, 39
2, 59507, Note_on_c, 0, 34, 0
2, 59510, Note_on_c, 0, 46, 0
2, 59511, Note_on_c, 0, 61, 0
2, 59515, Note_on_c, 0, 63, 0
2, 59572, Note_on_c, 0, 46, 42
2, 59574, Note_on_c, 0, 61, 57
2, 59575, Note_on_c, 0, 56, 59
2, 59575, Note_on_c, 0, 63, 47
2, 59583, Note_on_c, 0, 56, 0
2, 59586, Note_on_c, 0, 63, 0
2, 59588, Note_on_c, 0, 61, 0
2, 59589, Note_on_c, 0, 46, 0
2, 59652, Note_on_c, 0, 56, 69
2, 59652, Note_on_c, 0, 63, 50
2, 59653, Note_on_c, 0, 61, 50
2, 59656, Note_on_c, 0, 46, 25
2, 59664, Note_on_c, 0, 46, 0
2, 59665, Note_on_c, 0, 56, 0
2, 59670, Note_on_c, 0, 61, 0
2, 59671, Note_on_c, 0, 63, 0
2, 59697, Note_on_c, 0, 39, 36
2, 59737, Control_c, 0, 64, 127
2, 59771, Note_on_c, 0, 39, 0
2, 59791, Control_c, 0, 64, 0
2, 59799, Note_on_c, 0, 39, 50
2, 59805, Control_c, 0, 64, 127
2, 59914, Note_on_c, 0, 51, 34
2, 59926, Note_on_c, 0, 51, 0
2, 59926, Control_c, 0, 64, 0
2, 59948, Note_on_c, 0, 51, 34
2, 59948, Note_on_c, 0, 64, 40
2, 59949, Note_on_c, 0, 58, 50
2, 59950, Control_c, 0, 64, 127
2, 59951, Note_on_c, 0, 61, 31
2, 59951, Note_on_c, 0, 52, 30
2, 59965, Note_on_c, 0, 52, 0
2, 59966, Note_on_c, 0, 51, 0
2, 59978, Note_on_c, 0, 64, 0
2, 59980, Note_on_c, 0, 58, 0
2, 59982, Note_on_c, 0, 61, 0
2, 60002, Note_on_c, 0, 51, 31
2, 60021, Note_on_c, 0, 51, 0
2, 60037, Note_on_c, 0, 39, 0
2, 60056, Control_c, 0, 64, 0
2, 60059, Note_on_c, 0, 63, 49
2, 60063, Note_on_c, 0, 55, 47
2, 60064, Note_on_c, 0, 58, 36
2, 60064, Note_on_c, 0, 44, 46
2, 60067, Note_on_c, 0, 60, 38
2, 60084, Control_c, 0, 64, 127
2, 60087, Note_on_c, 0, 55, 0
2, 60116, Note_on_c, 0, 60, 0
2, 60155, Note_on_c, 0, 63, 0
2, 60171, Note_on_c, 0, 44, 0
2, 60174, Note_on_c, 0, 58, 0
2, 60196, Note_on_c, 0, 44, 60
2, 60224, Note_on_c, 0, 44, 0
2, 60241, Note_on_c, 0, 44, 44
2, 60267, Note_on_c, 0, 44, 0
2, 60297, Note_on_c, 0, 44, 42
2, 60319, Note_on_c, 0, 44, 0
2, 60350, Note_on_c, 0, 44, 59
2, 60381, Note_on_c, 0, 44, 0
2, 60419, Note_on_c, 0, 44, 51
2, 60446, Note_on_c, 0, 44, 0
2, 60484, Note_on_c, 0, 44, 48
2, 60505, Note_on_c, 0, 44, 0
2, 60526, Note_on_c, 0, 44, 56
2, 60580, Note_on_c, 0, 44, 0
2, 60599, Note_on_c, 0, 56, 74
2, 60648, Note_on_c, 0, 56, 0
2, 60679, Note_on_c, 0, 75, 62
2, 60681, Note_on_c, 0, 68, 64
2, 60682, Note_on_c, 0, 64, 64
2, 60682, Note_on_c, 0, 71, 69
2, 60685, Note_on_c, 0, 63, 74
2, 60696, Control_c, 0, 64, 0
2, 60722, Control_c, 0, 64, 127
2, 60736, Note_on_c, 0, 63, 0
2, 60759, Note_on_c, 0, 63, 25
2, 60782, Note_on_c, 0, 63, 0
2, 60830, Note_on_c, 0, 63, 42
2, 60880, Note_on_c, 0, 51, 29
2, 60912, Note_on_c, 0, 51, 0
2, 60922, Note_on_c, 0, 63, 0
2, 60960, Note_on_c, 0, 63, 25
2, 60979, Note_on_c, 0, 63, 0
2, 61023, Note_on_c, 0, 64, 0
2, 61025, Note_on_c, 0, 63, 40
2, 61052, Note_on_c, 0, 63, 0
2, 61091, Note_on_c, 0, 63, 34
2, 61113, Note_on_c, 0, 68, 0
2, 61127, Note_on_c, 0, 64, 35
2, 61146, Note_on_c, 0, 71, 0
2, 61149, Note_on_c, 0, 75, 0
2, 61150, Note_on_c, 0, 64, 0
2, 61166, Note_on_c, 0, 68, 46
2, 61171, Note_on_c, 0, 63, 0
2, 61192, Note_on_c, 0, 68, 0
2, 61199, Note_on_c, 0, 71, 51
2, 61228, Note_on_c, 0, 71, 0
2, 61236, Note_on_c, 0, 75, 70
2, 61262, Note_on_c, 0, 75, 0
2, 61271, Note_on_c, 0, 63, 26
2, 61273, Control_c, 0, 64, 0
2, 61275, Note_on_c, 0, 72, 60
2, 61281, Note_on_c, 0, 60, 35
2, 61285, Note_on_c, 0, 56, 26
2, 61309, Note_on_c, 0, 60, 0
2, 61312, Control_c, 0, 64, 127
2, 61325, Note_on_c, 0, 72, 0
2, 61330, Note_on_c, 0, 67, 47
2, 61335, Note_on_c, 0, 63, 0
2, 61344, Note_on_c, 0, 67, 0
2, 61381, Note_on_c, 0, 79, 54
2, 61400, Note_on_c, 0, 79, 0
2, 61431, Note_on_c, 0, 82, 67
2, 61484, Note_on_c, 0, 79, 38
2, 61485, Note_on_c, 0, 63, 23
2, 61487, Note_on_c, 0, 82, 0
2, 61491, Note_on_c, 0, 60, 33
2, 61494, Note_on_c, 0, 79, 0
2, 61533, Note_on_c, 0, 87, 73
2, 61534, Note_on_c, 0, 60, 0
2, 61541, Note_on_c, 0, 63, 0
2, 61552, Note_on_c, 0, 56, 0
2, 61567, Note_on_c, 0, 87, 0
2, 61578, Note_on_c, 0, 84, 52
2, 61621, Note_on_c, 0, 84, 0
2, 61632, Note_on_c, 0, 79, 36
2, 61651, Note_on_c, 0, 79, 0
2, 61674, Note_on_c, 0, 51, 42
2, 61693, Note_on_c, 0, 51, 0
2, 61713, Note_on_c, 0, 51, 30
2, 61740, Note_on_c, 0, 51, 0
2, 61771, Note_on_c, 0, 51, 35
2, 61779, Note_on_c, 0, 51, 0
2, 61820, Note_on_c, 0, 51, 38
2, 61880, Note_on_c, 0, 75, 53
2, 61883, Note_on_c, 0, 68, 57
2, 61887, Note_on_c, 0, 63, 30
2, 61901, Control_c, 0, 64, 0
2, 61908, Note_on_c, 0, 75, 0
2, 61917, Note_on_c, 0, 71, 47
2, 61923, Control_c, 0, 64, 127
2, 61924, Note_on_c, 0, 64, 26
2, 61928, Note_on_c, 0, 63, 0
2, 61965, Note_on_c, 0, 64, 0
2, 61969, Note_on_c, 0, 63, 37
2, 61976, Note_on_c, 0, 68, 0
2, 61980, Note_on_c, 0, 71, 0
2, 61992, Note_on_c, 0, 63, 0
2, 62031, Note_on_c, 0, 80, 67
2, 62032, Note_on_c, 0, 87, 62
2, 62038, Note_on_c, 0, 63, 33
2, 62048, Control_c, 0, 64, 0
2, 62053, Note_on_c, 0, 63, 0
2, 62066, Note_on_c, 0, 87, 0
2, 62066, Note_on_c, 0, 83, 55
2, 62072, Note_on_c, 0, 63, 25
2, 62076, Control_c, 0, 64, 127
2, 62077, Note_on_c, 0, 80, 0
2, 62080, Note_on_c, 0, 76, 20
2, 62087, Note_on_c, 0, 63, 0
2, 62089, Note_on_c, 0, 83, 0
2, 62104, Note_on_c, 0, 76, 0
2, 62116, Note_on_c, 0, 63, 32
2, 62140, Note_on_c, 0, 63, 0
2, 62165, Note_on_c, 0, 68, 58
2, 62167, Note_on_c, 0, 75, 50
2, 62173, Note_on_c, 0, 63, 28
2, 62184, Note_on_c, 0, 63, 0
2, 62186, Control_c, 0, 64, 0
2, 62190, Note_on_c, 0, 68, 0
2, 62196, Control_c, 0, 64, 127
2, 62207, Note_on_c, 0, 75, 0
2, 62220, Control_c, 0, 64, 0
2, 62226, Note_on_c, 0, 64, 47
2, 62227, Note_on_c, 0, 71, 50
2, 62230, Note_on_c, 0, 68, 25
2, 62232, Note_on_c, 0, 63, 27
2, 62244, Note_on_c, 0, 68, 0
2, 62247, Note_on_c, 0, 64, 0
2, 62256, Note_on_c, 0, 63, 0
2, 62259, Note_on_c, 0, 71, 0
2, 62264, Control_c, 0, 64, 127
2, 62268, Note_on_c, 0, 75, 42
2, 62273, Note_on_c, 0, 68, 33
2, 62301, Note_on_c, 0, 68, 0
2, 62306, Note_on_c, 0, 51, 0
2, 62307, Note_on_c, 0, 75, 0
2, 62319, Note_on_c, 0, 64, 40
2, 62320, Note_on_c, 0, 71, 51
2, 62324, Note_on_c, 0, 51, 38
2, 62328, Note_on_c, 0, 64, 0
2, 62351, Note_on_c, 0, 71, 0
2, 62371, Note_on_c, 0, 75, 51
2, 62374, Note_on_c, 0, 70, 46
2, 62377, Note_on_c, 0, 67, 46
2, 62377, Control_c, 0, 64, 0
2, 62391, Note_on_c, 0, 60, 41
2, 62422, Note_on_c, 0, 51, 0
2, 62423, Control_c, 0, 64, 127
2, 62436, Note_on_c, 0, 60, 0
2, 62437, Note_on_c, 0, 51, 53
2, 62451, Note_on_c, 0, 70, 0
2, 62453, Note_on_c, 0, 75, 0
2, 62463, Note_on_c, 0, 67, 0
2, 62483, Note_on_c, 0, 51, 0
2, 62502, Note_on_c, 0, 51, 38
2, 62536, Note_on_c, 0, 70, 43
2, 62538, Note_on_c, 0, 63, 40
2, 62539, Note_on_c, 0, 67, 52
2, 62551, Control_c, 0, 64, 0
2, 62577, Note_on_c, 0, 51, 0
2, 62609, Note_on_c, 0, 51, 37
2, 62613, Control_c, 0, 64, 127
2, 62647, Note_on_c, 0, 51, 0
2, 62667, Control_c, 0, 64, 0
2, 62676, Note_on_c, 0, 51, 50
2, 62681, Control_c, 0, 64, 127
2, 62708, Note_on_c, 0, 51, 0
2, 62711, Control_c, 0, 64, 0
2, 62744, Note_on_c, 0, 51, 47
2, 62748, Control_c, 0, 64, 127
2, 62761, Note_on_c, 0, 67, 0
2, 62776, Note_on_c, 0, 51, 0
2, 62779, Note_on_c, 0, 63, 0
2, 62811, Note_on_c, 0, 70, 0
2, 62816, Note_on_c, 0, 67, 32
2, 62818, Note_on_c, 0, 58, 38
2, 62819, Note_on_c, 0, 63, 32
2, 62830, Note_on_c, 0, 51, 31
2, 62840, Control_c, 0, 64, 0
2, 62861, Note_on_c, 0, 67, 0
2, 62866, Note_on_c, 0, 39, 48
2, 62868, Note_on_c, 0, 63, 0
2, 62883, Note_on_c, 0, 58, 0
2, 62890, Control_c, 0, 64, 127
2, 62898, Note_on_c, 0, 51, 0
2, 62929, Note_on_c, 0, 51, 36
2, 62952, Note_on_c, 0, 51, 0
2, 63000, Note_on_c, 0, 52, 42
2, 63001, Note_on_c, 0, 56, 33
2, 63001, Note_on_c, 0, 51, 31
2, 63003, Note_on_c, 0, 59, 41
2, 63007, Note_on_c, 0, 63, 17
2, 63008, Control_c, 0, 64, 0
2, 63022, Note_on_c, 0, 51, 0
2, 63065, Note_on_c, 0, 51, 34
2, 63082, Note_on_c, 0, 51, 0
2, 63108, Note_on_c, 0, 51, 31
2, 63137, Note_on_c, 0, 51, 0
2, 63177, Control_c, 0, 64, 127
2, 63194, Note_on_c, 0, 52, 0
2, 63197, Note_on_c, 0, 63, 0
2, 63201, Note_on_c, 0, 59, 0
2, 63205, Note_on_c, 0, 56, 0
2, 63221, Note_on_c, 0, 61, 35
2, 63247, Note_on_c, 0, 61, 0
2, 63257, Control_c, 0, 64, 0
2, 63257, Note_on_c, 0, 52, 37
2, 63259, Note_on_c, 0, 63, 32
2, 63260, Note_on_c, 0, 51, 28
2, 63264, Note_on_c, 0, 56, 32
2, 63272, Note_on_c, 0, 59, 24
2, 63329, Control_c, 0, 64, 127
2, 63351, Note_on_c, 0, 51, 0
2, 63372, Note_on_c, 0, 63, 0
2, 63372, Note_on_c, 0, 52, 0
2, 63374, Note_on_c, 0, 39, 0
2, 63374, Note_on_c, 0, 61, 42
2, 63382, Note_on_c, 0, 59, 0
2, 63394, Note_on_c, 0, 56, 0
2, 63397, Note_on_c, 0, 61, 0
2, 63415, Note_on_c, 0, 63, 29
2, 63416, Note_on_c, 0, 52, 36
2, 63418, Note_on_c, 0, 56, 31
2, 63480, Note_on_c, 0, 63, 0
2, 63494, Note_on_c, 0, 61, 37
2, 63502, Note_on_c, 0, 52, 0
2, 63523, Note_on_c, 0, 56, 0
2, 63567, Note_on_c, 0, 61, 0
2, 63613, Note_on_c, 0, 44, 30
2, 63614, Note_on_c, 0, 63, 27
2, 63614, Control_c, 0, 64, 0
2, 63615, Note_on_c, 0, 55, 39
2, 63615, Note_on_c, 0, 32, 37
2, 63617, Note_on_c, 0, 60, 36
2, 63617, Note_on_c, 0, 58, 33
2, 63646, Control_c, 0, 64, 127
2, 63648, Note_on_c, 0, 55, 0
2, 63664, Note_on_c, 0, 60, 0
2, 63670, Note_on_c, 0, 32, 0
2, 63679, Note_on_c, 0, 58, 0
2, 63682, Note_on_c, 0, 44, 0
2, 63684, Note_on_c, 0, 63, 0
2, 63940, Note_on_c, 0, 79, 58
2, 63941, Note_on_c, 0, 55, 51
2, 63963, Note_on_c, 0, 79, 0
2, 63982, Note_on_c, 0, 55, 0
2, 64002, Note_on_c, 0, 84, 57
2, 64005, Note_on_c, 0, 60, 30
2, 64018, Note_on_c, 0, 84, 0
2, 64039, Note_on_c, 0, 60, 0
2, 64055, Note_on_c, 0, 91, 69
2, 64056, Note_on_c, 0, 67, 49
2, 64089, Note_on_c, 0, 91, 0
2, 64092, Note_on_c, 0, 67, 0
2, 64103, Note_on_c, 0, 63, 36
2, 64107, Note_on_c, 0, 87, 52
2, 64122, Note_on_c, 0, 87, 0
2, 64125, Note_on_c, 0, 63, 0
2, 64157, Note_on_c, 0, 70, 50
2, 64157, Note_on_c, 0, 94, 60
2, 64184, Note_on_c, 0, 70, 0
2, 64197, Note_on_c, 0, 94, 0
2, 64199, Note_on_c, 0, 92, 55
2, 64204, Note_on_c, 0, 67, 47
2, 64213, Note_on_c, 0, 67, 0
2, 64216, Note_on_c, 0, 92, 0
2, 64266, Note_on_c, 0, 75, 53
2, 64307, Note_on_c, 0, 75, 0
2, 64336, Note_on_c, 0, 105, 31
2, 64336, Note_on_c, 0, 79, 29
2, 64338, Note_on_c, 0, 103, 27
2, 64348, Note_on_c, 0, 105, 0
2, 64386, Note_on_c, 0, 79, 0
2, 64394, Note_on_c, 0, 103, 0
2, 64396, Note_on_c, 0, 99, 53
2, 64398, Note_on_c, 0, 75, 37
2, 64420, Note_on_c, 0, 99, 0
2, 64424, Note_on_c, 0, 75, 0
2, 64470, Note_on_c, 0, 106, 53
2, 64474, Note_on_c, 0, 84, 49
2, 64530, Note_on_c, 0, 84, 0
2, 64536, Note_on_c, 0, 106, 0
2, 64546, Note_on_c, 0, 80, 37
2, 64546, Note_on_c, 0, 104, 48
2, 64607, Note_on_c, 0, 80, 0
2, 64608, Note_on_c, 0, 104, 0
2, 64616, Note_on_c, 0, 79, 41
2, 64620, Note_on_c, 0, 103, 46
2, 64666, Note_on_c, 0, 103, 0
2, 64668, Note_on_c, 0, 79, 0
2, 64682, Note_on_c, 0, 75, 30
2, 64683, Note_on_c, 0, 99, 47
2, 64738, Note_on_c, 0, 99, 0
2, 64743, Note_on_c, 0, 75, 0
2, 64752, Note_on_c, 0, 96, 33
2, 64754, Note_on_c, 0, 72, 29
2, 64774, Note_on_c, 0, 72, 0
2, 64810, Note_on_c, 0, 96, 0
2, 64823, Note_on_c, 0, 101, 45
2, 64827, Note_on_c, 0, 68, 27
2, 64900, Note_on_c, 0, 68, 0
2, 64901, Note_on_c, 0, 101, 0
2, 65408, Control_c, 0, 64, 0
2, 65408, End_track
0, 0, End_of_file
