0, 0, Header, 1, 5, 960
1, 0, Start_track
1, 0, Title_t, "Something Wonderful"
1, 0, Text_t, "dougmck@pipeline.com.au  From 'The King and I'. You will need a good brush kit.\012"
1, 0, Time_signature, 4, 2, 24, 8
1, 0, Key_signature, 0, "major"
1, 0, Tempo, 882353
1, 0, End_track
2, 0, Start_track
2, 0, Title_t, "(Electric) Piano"
2, 0, Control_c, 0, 7, 87
2, 0, Control_c, 0, 64, 127
2, 27, Control_c, 0, 64, 0
2, 61, Note_on_c, 0, 79, 63
2, 92, Note_on_c, 0, 71, 60
2, 95, Note_on_c, 0, 62, 28
2, 104, Note_on_c, 0, 67, 24
2, 115, Note_on_c, 0, 64, 28
2, 213, Control_c, 0, 64, 127
2, 440, Note_on_c, 0, 64, 0
2, 693, Note_on_c, 0, 79, 0
2, 854, Note_on_c, 0, 71, 0
2, 1052, Note_on_c, 0, 67, 0
2, 1229, Note_on_c, 0, 62, 0
2, 1647, Note_on_c, 0, 76, 62
2, 1682, Note_on_c, 0, 67, 66
2, 1783, Note_on_c, 0, 67, 0
2, 1791, Note_on_c, 0, 76, 0
2, 2166, Note_on_c, 0, 74, 50
2, 2187, Note_on_c, 0, 67, 56
2, 2214, Note_on_c, 0, 64, 47
2, 2222, Note_on_c, 0, 59, 30
2, 2566, Note_on_c, 0, 74, 0
2, 2593, Note_on_c, 0, 67, 0
2, 2720, Note_on_c, 0, 59, 0
2, 2763, Note_on_c, 0, 55, 30
2, 2772, Note_on_c, 0, 64, 0
2, 3511, Note_on_c, 0, 55, 0
2, 3780, Note_on_c, 0, 71, 52
2, 3807, Note_on_c, 0, 62, 41
2, 3995, Note_on_c, 0, 62, 0
2, 4128, Note_on_c, 0, 71, 0
2, 4292, Note_on_c, 0, 69, 48
2, 4303, Note_on_c, 0, 60, 38
2, 4310, Note_on_c, 0, 65, 36
2, 4684, Control_c, 0, 64, 0
2, 4827, Note_on_c, 0, 48, 29
2, 4988, Control_c, 0, 64, 127
2, 5226, Note_on_c, 0, 48, 0
2, 5861, Note_on_c, 0, 48, 33
2, 6560, Note_on_c, 0, 48, 0
2, 6923, Note_on_c, 0, 48, 34
2, 6925, Note_on_c, 0, 60, 0
2, 7321, Note_on_c, 0, 69, 0
2, 7340, Note_on_c, 0, 65, 0
2, 7425, Note_on_c, 0, 64, 49
2, 7600, Note_on_c, 0, 64, 0
2, 7663, Note_on_c, 0, 65, 63
2, 7791, Note_on_c, 0, 65, 0
2, 7893, Note_on_c, 0, 69, 89
2, 8087, Note_on_c, 0, 69, 0
2, 8115, Note_on_c, 0, 72, 71
2, 8130, Note_on_c, 0, 48, 0
2, 8255, Note_on_c, 0, 72, 0
2, 8370, Control_c, 0, 64, 0
2, 8373, Note_on_c, 0, 67, 44
2, 8379, Note_on_c, 0, 71, 54
2, 8383, Note_on_c, 0, 48, 37
2, 8395, Note_on_c, 0, 64, 45
2, 8401, Note_on_c, 0, 62, 31
2, 8719, Control_c, 0, 64, 127
2, 8860, Note_on_c, 0, 62, 0
2, 8864, Note_on_c, 0, 55, 35
2, 9171, Note_on_c, 0, 64, 0
2, 9174, Note_on_c, 0, 67, 0
2, 9377, Note_on_c, 0, 64, 41
2, 9387, Note_on_c, 0, 67, 35
2, 9394, Note_on_c, 0, 62, 30
2, 9456, Note_on_c, 0, 62, 0
2, 9509, Note_on_c, 0, 64, 0
2, 9542, Note_on_c, 0, 67, 0
2, 9633, Note_on_c, 0, 71, 0
2, 12102, Note_on_c, 0, 60, 25
2, 12226, Note_on_c, 0, 60, 0
2, 12229, Note_on_c, 0, 55, 0
2, 12301, Note_on_c, 0, 48, 0
2, 12701, Control_c, 0, 64, 0
2, 12723, Note_on_c, 0, 60, 40
2, 12726, Note_on_c, 0, 43, 30
2, 12730, Note_on_c, 0, 53, 24
2, 12736, Note_on_c, 0, 57, 28
2, 12764, Note_on_c, 0, 50, 35
2, 13006, Control_c, 0, 64, 127
2, 14213, Note_on_c, 0, 50, 0
2, 14225, Note_on_c, 0, 43, 0
2, 14535, Note_on_c, 0, 62, 50
2, 14901, Note_on_c, 0, 57, 0
2, 14936, Note_on_c, 0, 53, 0
2, 14940, Note_on_c, 0, 60, 0
2, 15025, Note_on_c, 0, 62, 0
2, 15436, Control_c, 0, 64, 0
2, 15455, Note_on_c, 0, 64, 31
2, 15466, Note_on_c, 0, 56, 33
2, 15481, Note_on_c, 0, 60, 37
2, 15486, Note_on_c, 0, 31, 34
2, 15488, Note_on_c, 0, 53, 22
2, 15538, Note_on_c, 0, 43, 10
2, 15874, Control_c, 0, 64, 127
2, 16200, Note_on_c, 0, 53, 0
2, 16246, Note_on_c, 0, 31, 0
2, 16254, Note_on_c, 0, 64, 0
2, 16265, Note_on_c, 0, 43, 0
2, 16284, Note_on_c, 0, 60, 0
2, 16286, Note_on_c, 0, 56, 0
2, 17367, Control_c, 0, 64, 0
2, 17368, Note_on_c, 0, 56, 29
2, 17370, Note_on_c, 0, 65, 31
2, 17371, Note_on_c, 0, 31, 31
2, 17390, Note_on_c, 0, 43, 19
2, 17398, Note_on_c, 0, 60, 46
2, 17618, Control_c, 0, 64, 127
2, 17722, Note_on_c, 0, 31, 0
2, 17824, Note_on_c, 0, 43, 0
2, 17955, Note_on_c, 0, 60, 0
2, 17964, Note_on_c, 0, 56, 0
2, 18005, Note_on_c, 0, 65, 0
2, 18960, Control_c, 0, 64, 0
2, 19200, Note_on_c, 0, 59, 34
2, 19200, Control_c, 0, 64, 127
2, 19200, Control_c, 0, 64, 0
2, 19241, Note_on_c, 0, 67, 46
2, 19255, Note_on_c, 0, 64, 34
2, 19260, Note_on_c, 0, 62, 37
2, 19445, Control_c, 0, 64, 127
2, 20143, Note_on_c, 0, 67, 0
2, 20247, Note_on_c, 0, 88, 74
2, 20254, Note_on_c, 0, 67, 45
2, 20731, Note_on_c, 0, 78, 59
2, 20880, Note_on_c, 0, 67, 0
2, 21031, Note_on_c, 0, 78, 0
2, 21188, Note_on_c, 0, 78, 42
2, 21208, Note_on_c, 0, 67, 27
2, 21672, Note_on_c, 0, 67, 0
2, 21764, Note_on_c, 0, 64, 0
2, 21780, Note_on_c, 0, 62, 0
2, 22080, Note_on_c, 0, 59, 0
2, 22134, Note_on_c, 0, 64, 28
2, 22152, Note_on_c, 0, 62, 31
2, 22162, Note_on_c, 0, 67, 20
2, 22165, Note_on_c, 0, 88, 0
2, 22199, Note_on_c, 0, 78, 0
2, 22424, Note_on_c, 0, 67, 0
2, 22439, Note_on_c, 0, 64, 0
2, 22477, Note_on_c, 0, 62, 0
2, 22834, Note_on_c, 0, 79, 49
2, 22929, Note_on_c, 0, 79, 0
2, 23198, Note_on_c, 0, 84, 57
2, 23209, Note_on_c, 0, 77, 36
2, 23212, Note_on_c, 0, 83, 57
2, 23235, Note_on_c, 0, 72, 32
2, 23252, Control_c, 0, 64, 0
2, 23386, Note_on_c, 0, 83, 0
2, 23549, Control_c, 0, 64, 127
2, 23699, Note_on_c, 0, 48, 50
2, 23856, Note_on_c, 0, 84, 0
2, 23882, Note_on_c, 0, 77, 0
2, 23952, Note_on_c, 0, 72, 0
2, 24150, Note_on_c, 0, 55, 52
2, 24593, Note_on_c, 0, 64, 89
2, 24613, Note_on_c, 0, 55, 0
2, 24614, Note_on_c, 0, 57, 66
2, 24636, Control_c, 0, 64, 0
2, 24823, Control_c, 0, 64, 127
2, 25039, Note_on_c, 0, 64, 0
2, 25063, Note_on_c, 0, 60, 57
2, 25064, Note_on_c, 0, 65, 70
2, 25386, Note_on_c, 0, 57, 0
2, 25486, Note_on_c, 0, 69, 68
2, 25515, Note_on_c, 0, 57, 33
2, 25602, Note_on_c, 0, 65, 0
2, 25638, Note_on_c, 0, 69, 0
2, 25787, Note_on_c, 0, 57, 0
2, 25799, Note_on_c, 0, 60, 0
2, 25940, Note_on_c, 0, 72, 48
2, 25950, Note_on_c, 0, 65, 43
2, 25959, Note_on_c, 0, 60, 37
2, 25979, Note_on_c, 0, 57, 28
2, 26041, Note_on_c, 0, 60, 0
2, 26066, Note_on_c, 0, 65, 0
2, 26102, Note_on_c, 0, 72, 0
2, 26266, Note_on_c, 0, 48, 0
2, 26403, Note_on_c, 0, 76, 66
2, 26431, Note_on_c, 0, 57, 0
2, 26465, Note_on_c, 0, 48, 30
2, 26853, Note_on_c, 0, 76, 0
2, 26864, Note_on_c, 0, 71, 48
2, 26866, Note_on_c, 0, 67, 42
2, 26873, Note_on_c, 0, 62, 30
2, 26875, Note_on_c, 0, 55, 32
2, 26906, Control_c, 0, 64, 0
2, 27092, Control_c, 0, 64, 127
2, 27172, Note_on_c, 0, 62, 0
2, 27190, Note_on_c, 0, 67, 0
2, 27370, Note_on_c, 0, 67, 42
2, 27375, Note_on_c, 0, 64, 37
2, 27603, Note_on_c, 0, 64, 0
2, 27697, Note_on_c, 0, 67, 0
2, 27745, Note_on_c, 0, 71, 0
2, 27863, Note_on_c, 0, 64, 35
2, 28288, Note_on_c, 0, 64, 0
2, 28352, Note_on_c, 0, 88, 87
2, 28390, Note_on_c, 0, 79, 82
2, 28532, Note_on_c, 0, 88, 0
2, 28535, Note_on_c, 0, 79, 0
2, 28872, Note_on_c, 0, 78, 58
2, 28892, Note_on_c, 0, 69, 47
2, 28916, Note_on_c, 0, 55, 0
2, 29240, Note_on_c, 0, 69, 0
2, 29253, Note_on_c, 0, 78, 0
2, 29371, Note_on_c, 0, 78, 38
2, 29390, Note_on_c, 0, 69, 35
2, 29528, Note_on_c, 0, 69, 0
2, 29612, Note_on_c, 0, 78, 0
2, 30103, Note_on_c, 0, 48, 0
2, 30270, Note_on_c, 0, 79, 50
2, 30293, Note_on_c, 0, 71, 46
2, 30380, Note_on_c, 0, 71, 0
2, 30394, Note_on_c, 0, 79, 0
2, 30737, Note_on_c, 0, 84, 67
2, 30745, Note_on_c, 0, 77, 64
2, 30751, Note_on_c, 0, 48, 35
2, 30779, Note_on_c, 0, 60, 27
2, 30785, Control_c, 0, 64, 0
2, 31027, Control_c, 0, 64, 127
2, 31256, Note_on_c, 0, 77, 0
2, 31317, Note_on_c, 0, 60, 0
2, 31321, Note_on_c, 0, 84, 0
2, 31326, Note_on_c, 0, 81, 43
2, 31333, Note_on_c, 0, 57, 36
2, 31417, Note_on_c, 0, 81, 0
2, 31862, Note_on_c, 0, 69, 35
2, 31865, Note_on_c, 0, 77, 36
2, 31901, Note_on_c, 0, 60, 27
2, 32271, Note_on_c, 0, 69, 0
2, 32303, Note_on_c, 0, 60, 0
2, 32609, Note_on_c, 0, 77, 0
2, 32718, Note_on_c, 0, 72, 31
2, 32724, Note_on_c, 0, 69, 35
2, 32725, Note_on_c, 0, 65, 24
2, 32733, Note_on_c, 0, 60, 32
2, 33454, Note_on_c, 0, 69, 0
2, 33568, Note_on_c, 0, 69, 36
2, 33738, Note_on_c, 0, 48, 0
2, 33942, Note_on_c, 0, 72, 0
2, 33977, Note_on_c, 0, 69, 0
2, 34029, Note_on_c, 0, 65, 0
2, 34033, Note_on_c, 0, 48, 38
2, 34060, Note_on_c, 0, 57, 0
2, 34082, Note_on_c, 0, 60, 0
2, 34155, Note_on_c, 0, 48, 0
2, 34484, Note_on_c, 0, 48, 28
2, 34502, Note_on_c, 0, 67, 36
2, 34509, Note_on_c, 0, 62, 22
2, 34516, Note_on_c, 0, 64, 40
2, 34525, Control_c, 0, 64, 0
2, 34528, Note_on_c, 0, 55, 28
2, 34542, Note_on_c, 0, 60, 35
2, 34794, Control_c, 0, 64, 127
2, 35463, Note_on_c, 0, 62, 0
2, 35478, Note_on_c, 0, 60, 0
2, 35543, Note_on_c, 0, 64, 0
2, 35616, Note_on_c, 0, 67, 0
2, 36055, Note_on_c, 0, 64, 103
2, 36228, Note_on_c, 0, 64, 0
2, 36286, Note_on_c, 0, 64, 85
2, 36414, Note_on_c, 0, 64, 0
2, 36531, Note_on_c, 0, 67, 87
2, 36559, Note_on_c, 0, 60, 33
2, 36578, Note_on_c, 0, 55, 0
2, 36737, Note_on_c, 0, 67, 0
2, 36790, Note_on_c, 0, 67, 70
2, 36903, Note_on_c, 0, 67, 0
2, 37051, Note_on_c, 0, 72, 96
2, 37427, Note_on_c, 0, 48, 0
2, 37497, Note_on_c, 0, 72, 0
2, 37551, Note_on_c, 0, 72, 71
2, 37579, Note_on_c, 0, 60, 0
2, 38231, Note_on_c, 0, 74, 56
2, 38305, Note_on_c, 0, 72, 0
2, 38466, Note_on_c, 0, 60, 36
2, 38468, Note_on_c, 0, 76, 55
2, 38469, Note_on_c, 0, 74, 0
2, 38471, Control_c, 0, 64, 0
2, 38478, Note_on_c, 0, 64, 24
2, 38511, Note_on_c, 0, 59, 32
2, 38720, Control_c, 0, 64, 127
2, 38972, Note_on_c, 0, 64, 0
2, 39023, Note_on_c, 0, 59, 0
2, 39072, Note_on_c, 0, 60, 0
2, 39397, Note_on_c, 0, 64, 29
2, 39420, Note_on_c, 0, 60, 27
2, 39421, Note_on_c, 0, 59, 32
2, 39736, Note_on_c, 0, 59, 0
2, 39742, Note_on_c, 0, 60, 0
2, 39806, Note_on_c, 0, 64, 0
2, 39930, Note_on_c, 0, 76, 0
2, 40796, Note_on_c, 0, 55, 44
2, 40798, Note_on_c, 0, 89, 75
2, 40799, Note_on_c, 0, 60, 52
2, 40809, Note_on_c, 0, 61, 69
2, 40812, Note_on_c, 0, 84, 81
2, 40813, Control_c, 0, 64, 0
2, 40816, Note_on_c, 0, 81, 72
2, 40827, Note_on_c, 0, 77, 73
2, 40835, Note_on_c, 0, 65, 72
2, 40839, Note_on_c, 0, 58, 35
2, 41018, Control_c, 0, 64, 127
2, 41146, Note_on_c, 0, 55, 0
2, 41171, Note_on_c, 0, 77, 0
2, 41172, Note_on_c, 0, 81, 0
2, 41177, Note_on_c, 0, 58, 0
2, 41182, Note_on_c, 0, 65, 0
2, 41195, Note_on_c, 0, 84, 0
2, 41199, Note_on_c, 0, 60, 0
2, 41205, Note_on_c, 0, 89, 0
2, 41215, Note_on_c, 0, 61, 0
2, 41288, Note_on_c, 0, 89, 57
2, 41294, Note_on_c, 0, 61, 48
2, 41296, Note_on_c, 0, 84, 68
2, 41297, Note_on_c, 0, 81, 70
2, 41300, Control_c, 0, 64, 0
2, 41301, Note_on_c, 0, 77, 66
2, 41305, Note_on_c, 0, 55, 61
2, 41307, Note_on_c, 0, 60, 63
2, 41308, Note_on_c, 0, 65, 66
2, 41413, Control_c, 0, 64, 127
2, 41602, Note_on_c, 0, 55, 0
2, 41615, Note_on_c, 0, 81, 0
2, 41617, Note_on_c, 0, 77, 0
2, 41618, Note_on_c, 0, 65, 0
2, 41629, Note_on_c, 0, 60, 0
2, 41645, Note_on_c, 0, 84, 0
2, 41650, Note_on_c, 0, 89, 0
2, 41661, Note_on_c, 0, 61, 0
2, 41773, Note_on_c, 0, 81, 67
2, 41774, Note_on_c, 0, 84, 62
2, 41777, Note_on_c, 0, 89, 64
2, 41778, Note_on_c, 0, 77, 62
2, 41783, Note_on_c, 0, 61, 59
2, 41792, Note_on_c, 0, 65, 64
2, 41792, Note_on_c, 0, 55, 64
2, 41795, Note_on_c, 0, 60, 60
2, 41932, Note_on_c, 0, 77, 0
2, 41942, Note_on_c, 0, 81, 0
2, 41959, Note_on_c, 0, 60, 0
2, 41963, Note_on_c, 0, 84, 0
2, 41994, Note_on_c, 0, 65, 0
2, 42014, Note_on_c, 0, 89, 0
2, 42022, Note_on_c, 0, 55, 0
2, 42079, Note_on_c, 0, 61, 0
2, 42283, Note_on_c, 0, 84, 80
2, 42284, Note_on_c, 0, 91, 79
2, 42288, Note_on_c, 0, 53, 60
2, 42289, Note_on_c, 0, 79, 72
2, 42290, Note_on_c, 0, 88, 69
2, 42291, Note_on_c, 0, 60, 62
2, 42293, Note_on_c, 0, 64, 69
2, 42295, Note_on_c, 0, 57, 66
2, 42298, Control_c, 0, 64, 0
2, 42503, Control_c, 0, 64, 127
2, 42629, Note_on_c, 0, 88, 0
2, 42630, Note_on_c, 0, 91, 0
2, 42642, Note_on_c, 0, 84, 0
2, 42668, Note_on_c, 0, 79, 0
2, 42759, Note_on_c, 0, 57, 0
2, 42773, Note_on_c, 0, 60, 0
2, 42790, Note_on_c, 0, 64, 0
2, 42806, Note_on_c, 0, 53, 0
2, 43759, Note_on_c, 0, 77, 30
2, 43763, Note_on_c, 0, 72, 40
2, 43772, Note_on_c, 0, 81, 48
2, 43776, Note_on_c, 0, 64, 46
2, 43786, Note_on_c, 0, 57, 44
2, 43790, Note_on_c, 0, 69, 27
2, 43793, Note_on_c, 0, 60, 40
2, 43799, Note_on_c, 0, 53, 32
2, 44036, Note_on_c, 0, 69, 0
2, 44044, Note_on_c, 0, 72, 0
2, 44057, Note_on_c, 0, 81, 0
2, 44062, Note_on_c, 0, 57, 0
2, 44063, Note_on_c, 0, 64, 0
2, 44065, Note_on_c, 0, 53, 0
2, 44080, Note_on_c, 0, 60, 0
2, 44081, Note_on_c, 0, 77, 0
2, 44221, Note_on_c, 0, 72, 36
2, 44222, Note_on_c, 0, 77, 44
2, 44223, Note_on_c, 0, 81, 38
2, 44226, Control_c, 0, 64, 0
2, 44238, Note_on_c, 0, 69, 33
2, 44239, Note_on_c, 0, 53, 34
2, 44240, Note_on_c, 0, 64, 28
2, 44242, Note_on_c, 0, 57, 34
2, 44258, Note_on_c, 0, 60, 32
2, 44429, Control_c, 0, 64, 127
2, 44880, Note_on_c, 0, 81, 0
2, 44921, Note_on_c, 0, 77, 0
2, 44962, Note_on_c, 0, 72, 0
2, 44989, Note_on_c, 0, 69, 0
2, 45073, Note_on_c, 0, 64, 0
2, 45083, Note_on_c, 0, 53, 0
2, 45124, Note_on_c, 0, 57, 0
2, 45127, Note_on_c, 0, 60, 0
2, 45214, Note_on_c, 0, 76, 68
2, 45218, Note_on_c, 0, 69, 68
2, 45223, Note_on_c, 0, 65, 66
2, 45226, Note_on_c, 0, 72, 60
2, 45234, Note_on_c, 0, 64, 71
2, 45257, Control_c, 0, 64, 0
2, 45358, Note_on_c, 0, 72, 0
2, 45391, Note_on_c, 0, 69, 0
2, 45405, Note_on_c, 0, 65, 0
2, 45417, Note_on_c, 0, 76, 0
2, 45429, Note_on_c, 0, 64, 0
2, 45443, Note_on_c, 0, 62, 46
2, 45444, Note_on_c, 0, 74, 34
2, 45489, Control_c, 0, 64, 127
2, 45527, Control_c, 0, 64, 0
2, 45568, Note_on_c, 0, 74, 0
2, 45628, Note_on_c, 0, 76, 47
2, 45629, Note_on_c, 0, 65, 48
2, 45637, Note_on_c, 0, 69, 53
2, 45642, Note_on_c, 0, 72, 47
2, 45643, Note_on_c, 0, 62, 0
2, 45658, Note_on_c, 0, 64, 50
2, 45945, Control_c, 0, 64, 127
2, 46464, Note_on_c, 0, 65, 0
2, 46477, Note_on_c, 0, 69, 0
2, 46513, Note_on_c, 0, 72, 0
2, 46570, Note_on_c, 0, 76, 0
2, 46611, Note_on_c, 0, 64, 0
2, 46614, Note_on_c, 0, 65, 30
2, 46616, Note_on_c, 0, 74, 36
2, 46619, Note_on_c, 0, 69, 44
2, 46632, Note_on_c, 0, 62, 31
2, 46793, Note_on_c, 0, 62, 0
2, 46815, Note_on_c, 0, 74, 0
2, 46821, Note_on_c, 0, 69, 0
2, 46850, Note_on_c, 0, 65, 0
2, 47134, Note_on_c, 0, 58, 47
2, 47144, Note_on_c, 0, 63, 53
2, 47149, Note_on_c, 0, 67, 35
2, 47153, Note_on_c, 0, 53, 29
2, 47172, Control_c, 0, 64, 0
2, 47195, Note_on_c, 0, 59, 27
2, 47508, Control_c, 0, 64, 127
2, 47760, Note_on_c, 0, 59, 0
2, 47980, Note_on_c, 0, 58, 0
2, 47987, Note_on_c, 0, 63, 0
2, 48169, Note_on_c, 0, 58, 32
2, 48170, Note_on_c, 0, 63, 36
2, 48226, Note_on_c, 0, 59, 20
2, 48660, Note_on_c, 0, 58, 0
2, 48696, Note_on_c, 0, 59, 0
2, 48742, Note_on_c, 0, 53, 0
2, 48847, Note_on_c, 0, 63, 0
2, 48956, Note_on_c, 0, 67, 0
2, 49060, Note_on_c, 0, 63, 25
2, 49078, Note_on_c, 0, 58, 27
2, 49082, Note_on_c, 0, 67, 12
2, 49130, Note_on_c, 0, 53, 19
2, 49350, Note_on_c, 0, 53, 0
2, 49438, Note_on_c, 0, 58, 0
2, 49771, Note_on_c, 0, 63, 0
2, 49777, Note_on_c, 0, 67, 0
2, 49990, Control_c, 0, 64, 0
2, 49995, Note_on_c, 0, 67, 27
2, 50024, Note_on_c, 0, 62, 28
2, 50028, Note_on_c, 0, 59, 18
2, 50040, Note_on_c, 0, 55, 17
2, 50053, Note_on_c, 0, 48, 31
2, 50233, Control_c, 0, 64, 127
2, 50235, Note_on_c, 0, 59, 0
2, 50348, Note_on_c, 0, 48, 0
2, 50350, Note_on_c, 0, 55, 0
2, 50356, Note_on_c, 0, 62, 0
2, 50406, Note_on_c, 0, 67, 0
2, 50991, Note_on_c, 0, 64, 17
2, 50999, Note_on_c, 0, 59, 20
2, 51004, Note_on_c, 0, 60, 29
2, 51286, Note_on_c, 0, 88, 74
2, 51339, Note_on_c, 0, 79, 66
2, 51479, Note_on_c, 0, 64, 0
2, 51498, Note_on_c, 0, 60, 0
2, 51511, Note_on_c, 0, 88, 0
2, 51514, Note_on_c, 0, 79, 0
2, 51613, Note_on_c, 0, 88, 55
2, 51665, Note_on_c, 0, 79, 55
2, 51743, Note_on_c, 0, 88, 0
2, 51776, Note_on_c, 0, 79, 0
2, 51896, Note_on_c, 0, 64, 27
2, 51927, Note_on_c, 0, 60, 20
2, 52118, Note_on_c, 0, 78, 49
2, 52145, Note_on_c, 0, 69, 35
2, 52203, Note_on_c, 0, 64, 0
2, 52273, Note_on_c, 0, 69, 0
2, 52283, Note_on_c, 0, 60, 0
2, 52286, Note_on_c, 0, 78, 0
2, 52392, Note_on_c, 0, 78, 48
2, 52436, Note_on_c, 0, 69, 35
2, 52507, Note_on_c, 0, 69, 0
2, 52551, Note_on_c, 0, 78, 0
2, 52824, Note_on_c, 0, 79, 49
2, 52836, Note_on_c, 0, 71, 51
2, 52846, Note_on_c, 0, 64, 28
2, 52864, Note_on_c, 0, 60, 24
2, 52978, Note_on_c, 0, 79, 0
2, 53015, Note_on_c, 0, 71, 0
2, 53122, Note_on_c, 0, 71, 51
2, 53130, Note_on_c, 0, 79, 51
2, 53206, Note_on_c, 0, 71, 0
2, 53218, Note_on_c, 0, 79, 0
2, 53410, Note_on_c, 0, 84, 77
2, 53418, Note_on_c, 0, 77, 66
2, 53514, Note_on_c, 0, 64, 0
2, 53544, Note_on_c, 0, 60, 0
2, 53574, Note_on_c, 0, 59, 0
2, 53619, Note_on_c, 0, 84, 0
2, 53663, Note_on_c, 0, 72, 43
2, 53664, Note_on_c, 0, 81, 51
2, 53726, Note_on_c, 0, 77, 0
2, 53809, Note_on_c, 0, 72, 0
2, 53847, Note_on_c, 0, 81, 0
2, 53894, Note_on_c, 0, 77, 44
2, 53896, Note_on_c, 0, 84, 57
2, 53903, Note_on_c, 0, 57, 33
2, 53907, Control_c, 0, 64, 0
2, 53916, Note_on_c, 0, 48, 29
2, 54159, Control_c, 0, 64, 127
2, 54222, Note_on_c, 0, 57, 0
2, 54270, Note_on_c, 0, 77, 0
2, 54375, Note_on_c, 0, 84, 0
2, 54395, Note_on_c, 0, 81, 37
2, 54398, Note_on_c, 0, 72, 36
2, 54605, Note_on_c, 0, 72, 0
2, 54743, Note_on_c, 0, 81, 0
2, 54824, Note_on_c, 0, 72, 36
2, 54827, Note_on_c, 0, 77, 38
2, 54877, Note_on_c, 0, 60, 17
2, 54880, Note_on_c, 0, 57, 18
2, 55200, Note_on_c, 0, 57, 0
2, 55370, Note_on_c, 0, 77, 0
2, 55423, Note_on_c, 0, 72, 0
2, 55543, Note_on_c, 0, 60, 0
2, 55765, Note_on_c, 0, 57, 28
2, 55957, Note_on_c, 0, 65, 36
2, 56056, Note_on_c, 0, 65, 0
2, 56098, Note_on_c, 0, 67, 28
2, 56147, Note_on_c, 0, 67, 0
2, 56193, Note_on_c, 0, 69, 34
2, 56230, Note_on_c, 0, 69, 0
2, 56267, Note_on_c, 0, 72, 67
2, 56366, Note_on_c, 0, 72, 0
2, 56371, Note_on_c, 0, 74, 71
2, 56414, Note_on_c, 0, 74, 0
2, 56494, Note_on_c, 0, 77, 69
2, 56588, Note_on_c, 0, 79, 45
2, 56601, Note_on_c, 0, 77, 0
2, 56677, Note_on_c, 0, 79, 0
2, 56683, Note_on_c, 0, 81, 54
2, 56717, Note_on_c, 0, 81, 0
2, 56795, Note_on_c, 0, 84, 57
2, 56883, Note_on_c, 0, 84, 0
2, 56886, Note_on_c, 0, 86, 52
2, 56972, Note_on_c, 0, 86, 0
2, 57116, Note_on_c, 0, 57, 0
2, 57178, Note_on_c, 0, 91, 34
2, 57199, Note_on_c, 0, 48, 0
2, 57282, Note_on_c, 0, 91, 0
2, 57304, Note_on_c, 0, 93, 48
2, 57411, Note_on_c, 0, 96, 57
2, 57419, Note_on_c, 0, 93, 0
2, 57493, Note_on_c, 0, 96, 0
2, 57562, Note_on_c, 0, 98, 74
2, 57701, Note_on_c, 0, 98, 0
2, 57745, Note_on_c, 0, 95, 50
2, 57748, Note_on_c, 0, 96, 44
2, 57763, Note_on_c, 0, 48, 44
2, 57771, Note_on_c, 0, 55, 34
2, 57790, Note_on_c, 0, 64, 26
2, 57819, Note_on_c, 0, 96, 0
2, 57852, Control_c, 0, 64, 0
2, 58063, Note_on_c, 0, 91, 46
2, 58064, Note_on_c, 0, 95, 0
2, 58092, Control_c, 0, 64, 127
2, 58199, Note_on_c, 0, 91, 0
2, 58288, Note_on_c, 0, 88, 35
2, 58369, Note_on_c, 0, 88, 0
2, 58482, Note_on_c, 0, 64, 0
2, 58748, Note_on_c, 0, 76, 52
2, 58768, Note_on_c, 0, 64, 41
2, 58787, Note_on_c, 0, 67, 64
2, 58841, Note_on_c, 0, 64, 0
2, 58972, Note_on_c, 0, 55, 0
2, 59036, Note_on_c, 0, 48, 0
2, 59148, Note_on_c, 0, 76, 0
2, 59191, Note_on_c, 0, 67, 0
2, 59597, Note_on_c, 0, 66, 67
2, 59626, Note_on_c, 0, 57, 74
2, 59635, Note_on_c, 0, 48, 49
2, 59674, Control_c, 0, 64, 0
2, 59925, Control_c, 0, 64, 127
2, 60055, Note_on_c, 0, 48, 0
2, 60359, Note_on_c, 0, 57, 0
2, 60738, Note_on_c, 0, 66, 0
2, 60960, Note_on_c, 0, 67, 58
2, 60983, Note_on_c, 0, 59, 42
2, 61067, Note_on_c, 0, 59, 0
2, 61114, Note_on_c, 0, 67, 0
2, 61478, Note_on_c, 0, 72, 60
2, 61485, Note_on_c, 0, 57, 31
2, 61485, Note_on_c, 0, 65, 63
2, 61504, Note_on_c, 0, 48, 36
2, 61516, Control_c, 0, 64, 0
2, 61803, Control_c, 0, 64, 127
2, 61856, Note_on_c, 0, 65, 0
2, 61973, Note_on_c, 0, 65, 52
2, 61988, Note_on_c, 0, 60, 48
2, 62150, Note_on_c, 0, 57, 0
2, 62203, Note_on_c, 0, 65, 0
2, 62243, Note_on_c, 0, 60, 0
2, 62458, Note_on_c, 0, 65, 43
2, 62469, Note_on_c, 0, 60, 39
2, 62478, Note_on_c, 0, 57, 28
2, 62912, Note_on_c, 0, 48, 0
2, 62986, Note_on_c, 0, 48, 58
2, 62988, Note_on_c, 0, 60, 0
2, 63191, Note_on_c, 0, 57, 0
2, 63402, Note_on_c, 0, 72, 0
2, 63432, Note_on_c, 0, 64, 89
2, 63450, Control_c, 0, 64, 0
2, 63451, Note_on_c, 0, 57, 57
2, 63485, Note_on_c, 0, 65, 0
2, 63684, Control_c, 0, 64, 127
2, 63823, Note_on_c, 0, 64, 0
2, 63861, Note_on_c, 0, 65, 82
2, 63891, Note_on_c, 0, 64, 51
2, 63925, Note_on_c, 0, 64, 0
2, 64033, Note_on_c, 0, 65, 0
2, 64058, Note_on_c, 0, 57, 0
2, 64132, Note_on_c, 0, 68, 29
2, 64177, Note_on_c, 0, 68, 0
2, 64344, Note_on_c, 0, 76, 80
2, 64348, Note_on_c, 0, 69, 87
2, 64384, Note_on_c, 0, 57, 31
2, 64720, Note_on_c, 0, 48, 0
2, 64780, Note_on_c, 0, 76, 0
2, 64807, Note_on_c, 0, 74, 53
2, 64893, Note_on_c, 0, 48, 17
2, 64913, Note_on_c, 0, 57, 0
2, 65002, Note_on_c, 0, 48, 0
2, 65009, Note_on_c, 0, 69, 0
2, 65119, Note_on_c, 0, 74, 0
2, 65304, Note_on_c, 0, 67, 38
2, 65317, Note_on_c, 0, 71, 50
2, 65332, Note_on_c, 0, 55, 31
2, 65333, Note_on_c, 0, 48, 28
2, 65357, Control_c, 0, 64, 0
2, 65365, Note_on_c, 0, 60, 22
2, 65553, Control_c, 0, 64, 127
2, 65572, Note_on_c, 0, 67, 0
2, 65575, Note_on_c, 0, 71, 0
2, 65658, Note_on_c, 0, 60, 0
2, 65825, Note_on_c, 0, 67, 40
2, 66327, Note_on_c, 0, 67, 0
2, 66343, Note_on_c, 0, 64, 35
2, 66345, Note_on_c, 0, 62, 28
2, 66356, Note_on_c, 0, 60, 29
2, 66679, Note_on_c, 0, 60, 0
2, 66855, Note_on_c, 0, 55, 0
2, 66878, Note_on_c, 0, 64, 0
2, 66912, Note_on_c, 0, 62, 0
2, 66950, Note_on_c, 0, 48, 0
2, 67264, Control_c, 0, 64, 0
2, 67270, Note_on_c, 0, 63, 29
2, 67271, Note_on_c, 0, 58, 46
2, 67273, Note_on_c, 0, 51, 35
2, 67285, Note_on_c, 0, 54, 18
2, 67432, Control_c, 0, 64, 127
2, 67558, Note_on_c, 0, 54, 0
2, 67584, Note_on_c, 0, 63, 0
2, 67610, Note_on_c, 0, 58, 0
2, 67646, Control_c, 0, 64, 0
2, 67675, Note_on_c, 0, 51, 0
2, 67682, Note_on_c, 0, 64, 65
2, 67685, Note_on_c, 0, 55, 68
2, 67689, Note_on_c, 0, 52, 46
2, 67696, Note_on_c, 0, 59, 68
2, 67823, Control_c, 0, 64, 127
2, 67827, Note_on_c, 0, 55, 0
2, 67842, Note_on_c, 0, 64, 0
2, 67852, Note_on_c, 0, 59, 0
2, 68092, Control_c, 0, 64, 0
2, 68119, Note_on_c, 0, 67, 71
2, 68120, Note_on_c, 0, 52, 0
2, 68126, Note_on_c, 0, 62, 74
2, 68129, Note_on_c, 0, 59, 69
2, 68150, Note_on_c, 0, 55, 55
2, 68199, Note_on_c, 0, 59, 0
2, 68227, Note_on_c, 0, 62, 0
2, 68231, Control_c, 0, 64, 127
2, 68239, Note_on_c, 0, 67, 0
2, 68571, Note_on_c, 0, 72, 67
2, 68577, Note_on_c, 0, 67, 74
2, 68582, Note_on_c, 0, 64, 73
2, 68589, Note_on_c, 0, 69, 68
2, 68593, Note_on_c, 0, 55, 0
2, 68599, Note_on_c, 0, 60, 53
2, 68680, Note_on_c, 0, 60, 0
2, 68698, Note_on_c, 0, 64, 0
2, 68751, Note_on_c, 0, 67, 0
2, 68752, Note_on_c, 0, 69, 0
2, 68762, Note_on_c, 0, 72, 0
2, 69003, Control_c, 0, 64, 0
2, 69039, Note_on_c, 0, 45, 66
2, 69039, Note_on_c, 0, 76, 78
2, 69043, Note_on_c, 0, 72, 79
2, 69170, Note_on_c, 0, 45, 0
2, 69226, Control_c, 0, 64, 127
2, 69593, Note_on_c, 0, 64, 38
2, 69607, Note_on_c, 0, 59, 37
2, 69611, Note_on_c, 0, 60, 45
2, 69837, Note_on_c, 0, 60, 0
2, 69844, Note_on_c, 0, 59, 0
2, 69910, Note_on_c, 0, 64, 0
2, 70081, Note_on_c, 0, 64, 30
2, 70104, Note_on_c, 0, 59, 32
2, 70106, Note_on_c, 0, 60, 41
2, 70275, Note_on_c, 0, 60, 0
2, 70282, Note_on_c, 0, 59, 0
2, 70312, Note_on_c, 0, 64, 0
2, 70579, Note_on_c, 0, 64, 28
2, 70590, Note_on_c, 0, 60, 34
2, 70592, Note_on_c, 0, 59, 29
2, 70703, Note_on_c, 0, 60, 0
2, 70726, Note_on_c, 0, 59, 0
2, 70738, Note_on_c, 0, 76, 0
2, 70752, Note_on_c, 0, 64, 0
2, 70781, Note_on_c, 0, 72, 0
2, 71047, Note_on_c, 0, 77, 50
2, 71049, Note_on_c, 0, 65, 30
2, 71051, Note_on_c, 0, 61, 29
2, 71055, Note_on_c, 0, 72, 40
2, 71060, Control_c, 0, 64, 0
2, 71062, Note_on_c, 0, 55, 35
2, 71062, Note_on_c, 0, 69, 37
2, 71250, Note_on_c, 0, 60, 1
2, 71274, Control_c, 0, 64, 127
2, 71335, Note_on_c, 0, 55, 0
2, 71366, Note_on_c, 0, 65, 0
2, 71373, Note_on_c, 0, 60, 0
2, 71385, Note_on_c, 0, 61, 0
2, 71521, Note_on_c, 0, 65, 46
2, 71526, Note_on_c, 0, 61, 39
2, 71532, Note_on_c, 0, 55, 45
2, 71535, Note_on_c, 0, 60, 48
2, 71806, Note_on_c, 0, 55, 0
2, 71843, Note_on_c, 0, 60, 0
2, 71852, Note_on_c, 0, 65, 0
2, 71886, Note_on_c, 0, 61, 0
2, 71975, Note_on_c, 0, 61, 40
2, 71985, Note_on_c, 0, 65, 64
2, 71988, Note_on_c, 0, 60, 65
2, 71989, Note_on_c, 0, 55, 62
2, 72260, Note_on_c, 0, 55, 0
2, 72307, Note_on_c, 0, 65, 0
2, 72310, Note_on_c, 0, 60, 0
2, 72368, Note_on_c, 0, 61, 0
2, 72454, Note_on_c, 0, 69, 0
2, 72464, Note_on_c, 0, 72, 0
2, 72473, Note_on_c, 0, 61, 38
2, 72481, Note_on_c, 0, 77, 0
2, 72485, Note_on_c, 0, 65, 57
2, 72492, Note_on_c, 0, 55, 60
2, 72495, Note_on_c, 0, 60, 51
2, 72642, Note_on_c, 0, 60, 0
2, 72643, Note_on_c, 0, 55, 0
2, 72699, Note_on_c, 0, 65, 0
2, 72809, Note_on_c, 0, 61, 0
2, 72938, Note_on_c, 0, 78, 60
2, 72941, Note_on_c, 0, 64, 59
2, 72948, Note_on_c, 0, 69, 67
2, 72951, Note_on_c, 0, 60, 58
2, 72953, Note_on_c, 0, 54, 49
2, 72957, Control_c, 0, 64, 0
2, 72958, Note_on_c, 0, 59, 54
2, 73114, Control_c, 0, 64, 127
2, 73258, Note_on_c, 0, 59, 0
2, 73286, Note_on_c, 0, 64, 0
2, 73304, Note_on_c, 0, 60, 0
2, 73314, Note_on_c, 0, 78, 0
2, 73343, Note_on_c, 0, 54, 0
2, 73364, Note_on_c, 0, 69, 0
2, 73470, Note_on_c, 0, 54, 27
2, 73474, Note_on_c, 0, 64, 35
2, 73498, Note_on_c, 0, 60, 40
2, 73509, Note_on_c, 0, 59, 40
2, 73726, Note_on_c, 0, 59, 0
2, 73760, Note_on_c, 0, 64, 0
2, 73777, Note_on_c, 0, 60, 0
2, 73796, Note_on_c, 0, 54, 0
2, 73958, Note_on_c, 0, 64, 24
2, 73963, Note_on_c, 0, 54, 25
2, 73985, Note_on_c, 0, 60, 33
2, 73986, Note_on_c, 0, 59, 36
2, 74167, Note_on_c, 0, 64, 0
2, 74181, Note_on_c, 0, 59, 0
2, 74183, Note_on_c, 0, 60, 0
2, 74211, Note_on_c, 0, 54, 0
2, 74440, Note_on_c, 0, 64, 29
2, 74461, Note_on_c, 0, 54, 21
2, 74475, Note_on_c, 0, 59, 24
2, 74550, Note_on_c, 0, 59, 0
2, 74571, Note_on_c, 0, 64, 0
2, 74632, Note_on_c, 0, 54, 0
2, 74896, Note_on_c, 0, 74, 79
2, 74902, Control_c, 0, 64, 0
2, 74921, Note_on_c, 0, 70, 73
2, 74940, Note_on_c, 0, 65, 68
2, 74944, Note_on_c, 0, 54, 48
2, 74947, Note_on_c, 0, 60, 37
2, 75059, Control_c, 0, 64, 127
2, 75085, Note_on_c, 0, 65, 0
2, 75117, Note_on_c, 0, 60, 0
2, 75132, Note_on_c, 0, 70, 0
2, 75143, Note_on_c, 0, 74, 0
2, 75413, Note_on_c, 0, 86, 71
2, 75433, Note_on_c, 0, 82, 73
2, 75445, Note_on_c, 0, 77, 71
2, 75452, Note_on_c, 0, 60, 56
2, 75534, Note_on_c, 0, 77, 0
2, 75577, Note_on_c, 0, 82, 0
2, 75590, Note_on_c, 0, 86, 0
2, 75696, Note_on_c, 0, 60, 0
2, 75897, Note_on_c, 0, 98, 72
2, 75916, Note_on_c, 0, 60, 60
2, 75917, Note_on_c, 0, 94, 78
2, 75920, Note_on_c, 0, 65, 58
2, 75921, Note_on_c, 0, 89, 80
2, 76180, Note_on_c, 0, 60, 0
2, 76197, Note_on_c, 0, 94, 0
2, 76201, Note_on_c, 0, 65, 0
2, 76207, Note_on_c, 0, 89, 0
2, 76244, Note_on_c, 0, 98, 0
2, 76284, Note_on_c, 0, 54, 0
2, 76354, Note_on_c, 0, 94, 67
2, 76359, Note_on_c, 0, 98, 68
2, 76365, Note_on_c, 0, 54, 49
2, 76368, Note_on_c, 0, 89, 61
2, 76369, Note_on_c, 0, 65, 45
2, 76387, Note_on_c, 0, 60, 53
2, 76455, Note_on_c, 0, 89, 0
2, 76505, Note_on_c, 0, 94, 0
2, 76514, Note_on_c, 0, 98, 0
2, 76518, Note_on_c, 0, 54, 0
2, 76529, Note_on_c, 0, 60, 0
2, 76548, Note_on_c, 0, 65, 0
2, 76815, Note_on_c, 0, 55, 64
2, 76818, Note_on_c, 0, 103, 81
2, 76820, Note_on_c, 0, 96, 76
2, 76823, Note_on_c, 0, 65, 65
2, 76829, Note_on_c, 0, 91, 70
2, 76830, Note_on_c, 0, 60, 71
2, 76838, Note_on_c, 0, 57, 59
2, 76854, Control_c, 0, 64, 0
2, 77078, Control_c, 0, 64, 127
2, 77383, Note_on_c, 0, 103, 0
2, 77418, Note_on_c, 0, 96, 0
2, 77432, Note_on_c, 0, 91, 0
2, 77446, Note_on_c, 0, 60, 0
2, 77485, Note_on_c, 0, 65, 0
2, 77498, Note_on_c, 0, 57, 0
2, 77548, Note_on_c, 0, 55, 0
2, 77797, Note_on_c, 0, 98, 60
2, 77812, Note_on_c, 0, 65, 35
2, 77814, Note_on_c, 0, 86, 37
2, 77815, Note_on_c, 0, 55, 36
2, 77817, Note_on_c, 0, 91, 43
2, 77826, Note_on_c, 0, 60, 37
2, 77828, Note_on_c, 0, 57, 39
2, 78073, Note_on_c, 0, 98, 0
2, 78153, Note_on_c, 0, 91, 0
2, 78209, Note_on_c, 0, 86, 0
2, 78244, Note_on_c, 0, 60, 0
2, 78259, Note_on_c, 0, 65, 0
2, 78330, Note_on_c, 0, 55, 0
2, 78336, Note_on_c, 0, 57, 0
2, 78760, Note_on_c, 0, 95, 45
2, 78782, Note_on_c, 0, 59, 28
2, 78783, Note_on_c, 0, 64, 38
2, 78786, Note_on_c, 0, 88, 39
2, 78791, Note_on_c, 0, 83, 31
2, 78798, Note_on_c, 0, 53, 33
2, 78855, Control_c, 0, 64, 0
2, 79105, Control_c, 0, 64, 127
2, 79305, Note_on_c, 0, 64, 0
2, 79357, Note_on_c, 0, 59, 0
2, 79410, Note_on_c, 0, 95, 0
2, 79504, Note_on_c, 0, 88, 0
2, 79555, Note_on_c, 0, 83, 0
2, 80029, Note_on_c, 0, 53, 0
2, 80653, Note_on_c, 0, 63, 27
2, 80663, Note_on_c, 0, 60, 33
2, 80668, Control_c, 0, 64, 0
2, 80689, Note_on_c, 0, 55, 36
2, 80696, Note_on_c, 0, 57, 39
2, 80919, Control_c, 0, 64, 127
2, 81495, Note_on_c, 0, 60, 0
2, 81512, Note_on_c, 0, 57, 0
2, 81520, Note_on_c, 0, 63, 0
2, 81687, Note_on_c, 0, 63, 20
2, 81697, Note_on_c, 0, 57, 18
2, 81706, Note_on_c, 0, 60, 38
2, 82031, Note_on_c, 0, 67, 105
2, 82103, Note_on_c, 0, 67, 0
2, 82149, Note_on_c, 0, 55, 0
2, 82157, Note_on_c, 0, 60, 0
2, 82171, Note_on_c, 0, 63, 0
2, 82194, Note_on_c, 0, 57, 0
2, 82203, Control_c, 0, 64, 0
2, 82324, Note_on_c, 0, 69, 105
2, 82522, Note_on_c, 0, 69, 0
2, 82623, Note_on_c, 0, 60, 38
2, 82624, Note_on_c, 0, 63, 36
2, 82636, Note_on_c, 0, 54, 44
2, 82637, Note_on_c, 0, 70, 72
2, 83497, Note_on_c, 0, 63, 0
2, 83587, Note_on_c, 0, 69, 55
2, 83588, Note_on_c, 0, 63, 25
2, 83589, Note_on_c, 0, 70, 0
2, 84116, Note_on_c, 0, 60, 0
2, 84164, Note_on_c, 0, 63, 0
2, 84235, Note_on_c, 0, 69, 0
2, 84262, Note_on_c, 0, 67, 27
2, 84347, Note_on_c, 0, 67, 0
2, 84373, Note_on_c, 0, 54, 0
2, 84406, Note_on_c, 0, 69, 53
2, 84512, Note_on_c, 0, 69, 0
2, 84565, Note_on_c, 0, 55, 29
2, 84566, Note_on_c, 0, 58, 33
2, 84569, Note_on_c, 0, 70, 59
2, 84570, Note_on_c, 0, 57, 42
2, 84570, Note_on_c, 0, 62, 27
2, 85363, Note_on_c, 0, 62, 0
2, 85382, Note_on_c, 0, 57, 0
2, 85421, Note_on_c, 0, 58, 0
2, 85433, Note_on_c, 0, 55, 0
2, 85545, Note_on_c, 0, 55, 33
2, 85552, Note_on_c, 0, 62, 32
2, 85559, Note_on_c, 0, 58, 33
2, 85605, Note_on_c, 0, 62, 0
2, 85625, Note_on_c, 0, 58, 0
2, 85626, Note_on_c, 0, 55, 0
2, 86062, Note_on_c, 0, 58, 30
2, 86069, Note_on_c, 0, 57, 34
2, 86088, Note_on_c, 0, 55, 26
2, 86119, Note_on_c, 0, 57, 0
2, 86134, Note_on_c, 0, 58, 0
2, 86136, Note_on_c, 0, 55, 0
2, 86555, Note_on_c, 0, 58, 28
2, 86562, Note_on_c, 0, 57, 33
2, 86568, Note_on_c, 0, 55, 34
2, 86657, Note_on_c, 0, 58, 0
2, 86662, Note_on_c, 0, 57, 0
2, 86672, Note_on_c, 0, 55, 0
2, 87028, Note_on_c, 0, 58, 32
2, 87033, Note_on_c, 0, 57, 32
2, 87039, Note_on_c, 0, 62, 25
2, 87040, Note_on_c, 0, 55, 34
2, 87496, Control_c, 0, 64, 127
2, 87891, Note_on_c, 0, 57, 0
2, 87909, Note_on_c, 0, 55, 0
2, 87952, Note_on_c, 0, 58, 0
2, 87980, Note_on_c, 0, 62, 0
2, 88166, Note_on_c, 0, 69, 60
2, 88312, Note_on_c, 0, 70, 0
2, 88318, Note_on_c, 0, 69, 0
2, 88370, Control_c, 0, 64, 0
2, 88371, Note_on_c, 0, 60, 36
2, 88372, Note_on_c, 0, 67, 46
2, 88382, Note_on_c, 0, 55, 36
2, 88383, Note_on_c, 0, 63, 33
2, 88398, Note_on_c, 0, 57, 35
2, 88722, Control_c, 0, 64, 127
2, 88952, Note_on_c, 0, 57, 0
2, 88968, Note_on_c, 0, 63, 0
2, 89027, Note_on_c, 0, 60, 0
2, 89313, Note_on_c, 0, 63, 30
2, 89322, Note_on_c, 0, 57, 33
2, 89340, Note_on_c, 0, 60, 34
2, 89835, Note_on_c, 0, 55, 0
2, 89846, Note_on_c, 0, 68, 80
2, 89868, Note_on_c, 0, 63, 0
2, 89881, Note_on_c, 0, 60, 0
2, 89886, Note_on_c, 0, 67, 0
2, 89897, Note_on_c, 0, 57, 0
2, 90246, Note_on_c, 0, 68, 0
2, 90275, Note_on_c, 0, 69, 74
2, 90286, Note_on_c, 0, 60, 39
2, 90289, Note_on_c, 0, 54, 49
2, 90294, Control_c, 0, 64, 0
2, 90297, Note_on_c, 0, 64, 43
2, 90537, Control_c, 0, 64, 127
2, 90759, Note_on_c, 0, 81, 81
2, 90822, Note_on_c, 0, 64, 0
2, 90846, Note_on_c, 0, 60, 0
2, 91073, Note_on_c, 0, 81, 0
2, 91245, Note_on_c, 0, 81, 75
2, 91256, Note_on_c, 0, 64, 33
2, 91264, Note_on_c, 0, 60, 36
2, 91697, Note_on_c, 0, 69, 0
2, 91749, Note_on_c, 0, 60, 0
2, 91762, Note_on_c, 0, 64, 0
2, 91884, Note_on_c, 0, 54, 0
2, 91945, Note_on_c, 0, 71, 68
2, 92140, Note_on_c, 0, 71, 0
2, 92175, Note_on_c, 0, 81, 0
2, 92212, Note_on_c, 0, 71, 67
2, 92221, Note_on_c, 0, 62, 43
2, 92230, Note_on_c, 0, 54, 35
2, 92234, Note_on_c, 0, 59, 25
2, 92249, Control_c, 0, 64, 0
2, 92517, Control_c, 0, 64, 127
2, 92689, Note_on_c, 0, 79, 78
2, 92877, Note_on_c, 0, 62, 0
2, 92973, Note_on_c, 0, 59, 0
2, 93012, Note_on_c, 0, 79, 0
2, 93116, Note_on_c, 0, 71, 0
2, 93155, Note_on_c, 0, 79, 66
2, 93181, Note_on_c, 0, 62, 28
2, 93200, Note_on_c, 0, 59, 24
2, 93630, Note_on_c, 0, 71, 57
2, 93641, Note_on_c, 0, 59, 0
2, 93704, Note_on_c, 0, 54, 0
2, 93759, Note_on_c, 0, 62, 0
2, 93942, Note_on_c, 0, 71, 0
2, 94121, Note_on_c, 0, 71, 58
2, 94162, Note_on_c, 0, 67, 44
2, 94549, Note_on_c, 0, 67, 0
2, 94642, Note_on_c, 0, 71, 0
2, 94645, Note_on_c, 0, 55, 34
2, 94706, Note_on_c, 0, 79, 0
2, 95098, Note_on_c, 0, 65, 43
2, 95099, Note_on_c, 0, 71, 38
2, 95137, Note_on_c, 0, 62, 22
2, 95482, Note_on_c, 0, 62, 0
2, 95504, Note_on_c, 0, 65, 0
2, 95527, Note_on_c, 0, 55, 0
2, 95562, Note_on_c, 0, 71, 0
2, 95803, Note_on_c, 0, 68, 56
2, 95804, Note_on_c, 0, 74, 66
2, 95813, Note_on_c, 0, 71, 58
2, 95827, Note_on_c, 0, 59, 51
2, 95895, Note_on_c, 0, 68, 0
2, 95928, Note_on_c, 0, 71, 0
2, 95930, Note_on_c, 0, 74, 0
2, 95946, Note_on_c, 0, 77, 66
2, 95967, Note_on_c, 0, 68, 37
2, 96072, Note_on_c, 0, 77, 0
2, 96098, Note_on_c, 0, 68, 0
2, 96107, Control_c, 0, 64, 0
2, 96108, Note_on_c, 0, 59, 0
2, 96110, Note_on_c, 0, 67, 67
2, 96112, Note_on_c, 0, 75, 67
2, 96153, Note_on_c, 0, 60, 50
2, 96396, Control_c, 0, 64, 127
2, 96495, Note_on_c, 0, 48, 56
2, 96580, Note_on_c, 0, 48, 0
2, 96596, Note_on_c, 0, 67, 0
2, 96635, Note_on_c, 0, 60, 0
2, 96959, Note_on_c, 0, 67, 58
2, 96978, Note_on_c, 0, 63, 43
2, 96982, Note_on_c, 0, 60, 48
2, 97033, Note_on_c, 0, 75, 0
2, 97299, Note_on_c, 0, 67, 0
2, 97315, Note_on_c, 0, 60, 0
2, 97340, Note_on_c, 0, 63, 0
2, 97422, Note_on_c, 0, 63, 39
2, 97427, Note_on_c, 0, 67, 57
2, 97428, Note_on_c, 0, 60, 54
2, 97777, Note_on_c, 0, 67, 0
2, 97823, Note_on_c, 0, 60, 0
2, 97852, Note_on_c, 0, 63, 0
2, 97888, Note_on_c, 0, 63, 46
2, 97898, Note_on_c, 0, 67, 73
2, 97900, Note_on_c, 0, 59, 74
2, 97941, Control_c, 0, 64, 0
2, 98100, Control_c, 0, 64, 127
2, 98314, Note_on_c, 0, 59, 0
2, 98339, Note_on_c, 0, 67, 0
2, 98373, Note_on_c, 0, 63, 0
2, 98412, Note_on_c, 0, 67, 69
2, 98417, Note_on_c, 0, 72, 95
2, 98418, Note_on_c, 0, 63, 49
2, 98419, Note_on_c, 0, 59, 71
2, 98721, Note_on_c, 0, 72, 0
2, 98736, Note_on_c, 0, 59, 0
2, 98758, Note_on_c, 0, 67, 0
2, 98811, Note_on_c, 0, 63, 0
2, 98867, Note_on_c, 0, 74, 110
2, 98869, Note_on_c, 0, 63, 64
2, 98870, Note_on_c, 0, 67, 71
2, 98873, Control_c, 0, 64, 0
2, 98874, Note_on_c, 0, 59, 72
2, 99057, Control_c, 0, 64, 127
2, 99204, Note_on_c, 0, 59, 0
2, 99215, Note_on_c, 0, 67, 0
2, 99297, Note_on_c, 0, 63, 0
2, 99301, Note_on_c, 0, 74, 0
2, 99343, Note_on_c, 0, 75, 85
2, 99349, Note_on_c, 0, 63, 31
2, 99350, Note_on_c, 0, 59, 64
2, 99356, Note_on_c, 0, 67, 57
2, 99603, Note_on_c, 0, 59, 0
2, 99633, Note_on_c, 0, 67, 0
2, 99775, Note_on_c, 0, 63, 0
2, 99821, Note_on_c, 0, 75, 0
2, 99823, Note_on_c, 0, 72, 79
2, 99830, Control_c, 0, 64, 0
2, 99831, Note_on_c, 0, 63, 37
2, 99831, Note_on_c, 0, 58, 68
2, 99840, Note_on_c, 0, 67, 53
2, 100043, Control_c, 0, 64, 127
2, 100188, Note_on_c, 0, 67, 0
2, 100191, Note_on_c, 0, 58, 0
2, 100224, Note_on_c, 0, 63, 0
2, 100287, Note_on_c, 0, 72, 0
2, 100300, Note_on_c, 0, 67, 40
2, 100303, Note_on_c, 0, 74, 68
2, 100308, Note_on_c, 0, 58, 45
2, 100309, Note_on_c, 0, 63, 36
2, 100553, Note_on_c, 0, 58, 0
2, 100553, Note_on_c, 0, 67, 0
2, 100570, Note_on_c, 0, 63, 0
2, 100689, Note_on_c, 0, 74, 0
2, 100784, Note_on_c, 0, 75, 47
2, 100798, Note_on_c, 0, 67, 41
2, 100801, Note_on_c, 0, 58, 45
2, 100808, Note_on_c, 0, 63, 40
2, 100815, Control_c, 0, 64, 0
2, 100927, Control_c, 0, 64, 127
2, 101384, Note_on_c, 0, 67, 0
2, 101412, Note_on_c, 0, 63, 0
2, 101775, Note_on_c, 0, 63, 28
2, 101778, Note_on_c, 0, 72, 39
2, 101790, Note_on_c, 0, 67, 27
2, 102175, Note_on_c, 0, 67, 0
2, 102251, Note_on_c, 0, 63, 0
2, 102255, Note_on_c, 0, 72, 0
2, 102300, Note_on_c, 0, 75, 0
2, 102701, Note_on_c, 0, 67, 31
2, 102703, Note_on_c, 0, 63, 34
2, 102867, Note_on_c, 0, 67, 0
2, 102907, Note_on_c, 0, 58, 0
2, 102979, Note_on_c, 0, 63, 0
2, 103489, Note_on_c, 0, 86, 65
2, 103504, Note_on_c, 0, 74, 46
2, 103613, Note_on_c, 0, 86, 0
2, 103642, Note_on_c, 0, 74, 0
2, 103709, Control_c, 0, 64, 0
2, 103713, Note_on_c, 0, 63, 37
2, 103720, Note_on_c, 0, 84, 64
2, 103721, Note_on_c, 0, 60, 35
2, 103722, Note_on_c, 0, 72, 54
2, 103730, Note_on_c, 0, 55, 43
2, 103732, Note_on_c, 0, 57, 48
2, 103941, Control_c, 0, 64, 127
2, 104093, Note_on_c, 0, 55, 0
2, 104104, Note_on_c, 0, 57, 0
2, 104108, Note_on_c, 0, 60, 0
2, 104132, Note_on_c, 0, 84, 0
2, 104166, Note_on_c, 0, 63, 0
2, 104205, Note_on_c, 0, 72, 0
2, 105170, Note_on_c, 0, 55, 70
2, 105174, Note_on_c, 0, 63, 77
2, 105177, Note_on_c, 0, 86, 82
2, 105183, Note_on_c, 0, 74, 89
2, 105185, Note_on_c, 0, 57, 64
2, 105199, Note_on_c, 0, 60, 54
2, 105215, Note_on_c, 0, 80, 29
2, 105241, Note_on_c, 0, 60, 0
2, 105250, Note_on_c, 0, 80, 0
2, 105387, Note_on_c, 0, 55, 0
2, 105401, Note_on_c, 0, 74, 0
2, 105408, Note_on_c, 0, 57, 0
2, 105410, Note_on_c, 0, 86, 0
2, 105437, Note_on_c, 0, 63, 0
2, 105642, Note_on_c, 0, 58, 75
2, 105643, Note_on_c, 0, 87, 79
2, 105646, Note_on_c, 0, 75, 84
2, 105648, Note_on_c, 0, 65, 79
2, 105655, Note_on_c, 0, 54, 69
2, 105656, Note_on_c, 0, 60, 68
2, 105670, Control_c, 0, 64, 0
2, 105865, Control_c, 0, 64, 127
2, 106244, Note_on_c, 0, 60, 0
2, 106284, Note_on_c, 0, 54, 0
2, 106307, Note_on_c, 0, 75, 0
2, 106330, Note_on_c, 0, 65, 0
2, 106362, Note_on_c, 0, 87, 0
2, 106459, Note_on_c, 0, 58, 0
2, 107262, Note_on_c, 0, 89, 64
2, 107271, Note_on_c, 0, 77, 37
2, 107281, Note_on_c, 0, 58, 36
2, 107283, Note_on_c, 0, 84, 47
2, 107285, Note_on_c, 0, 65, 32
2, 107286, Note_on_c, 0, 54, 35
2, 107321, Note_on_c, 0, 84, 0
2, 107344, Note_on_c, 0, 89, 0
2, 107345, Note_on_c, 0, 77, 0
2, 107357, Note_on_c, 0, 65, 0
2, 107360, Note_on_c, 0, 54, 0
2, 107390, Note_on_c, 0, 58, 0
2, 107647, Note_on_c, 0, 86, 63
2, 107649, Note_on_c, 0, 77, 45
2, 107657, Note_on_c, 0, 74, 50
2, 107659, Note_on_c, 0, 81, 56
2, 107678, Note_on_c, 0, 67, 41
2, 107689, Control_c, 0, 64, 0
2, 107930, Control_c, 0, 64, 127
2, 108097, Note_on_c, 0, 86, 0
2, 108113, Note_on_c, 0, 55, 44
2, 108123, Note_on_c, 0, 67, 0
2, 108136, Note_on_c, 0, 81, 0
2, 108145, Note_on_c, 0, 77, 0
2, 108180, Note_on_c, 0, 74, 0
2, 108625, Note_on_c, 0, 65, 38
2, 108645, Note_on_c, 0, 69, 50
2, 108712, Note_on_c, 0, 62, 11
2, 108955, Note_on_c, 0, 62, 0
2, 109040, Note_on_c, 0, 55, 0
2, 109102, Note_on_c, 0, 72, 42
2, 109169, Note_on_c, 0, 69, 0
2, 109177, Note_on_c, 0, 72, 0
2, 109220, Note_on_c, 0, 65, 0
2, 109556, Note_on_c, 0, 71, 39
2, 109561, Note_on_c, 0, 68, 40
2, 109572, Note_on_c, 0, 63, 30
2, 109576, Note_on_c, 0, 55, 41
2, 109587, Control_c, 0, 64, 0
2, 109597, Note_on_c, 0, 59, 37
2, 109633, Note_on_c, 0, 55, 0
2, 110011, Note_on_c, 0, 43, 36
2, 110015, Control_c, 0, 64, 127
2, 110260, Note_on_c, 0, 59, 0
2, 110335, Note_on_c, 0, 63, 0
2, 110357, Note_on_c, 0, 71, 0
2, 110381, Note_on_c, 0, 68, 0
2, 110493, Note_on_c, 0, 68, 34
2, 110494, Note_on_c, 0, 59, 35
2, 110505, Note_on_c, 0, 63, 35
2, 110554, Note_on_c, 0, 53, 15
2, 110777, Note_on_c, 0, 43, 0
2, 110859, Note_on_c, 0, 59, 0
2, 110922, Note_on_c, 0, 43, 40
2, 110996, Note_on_c, 0, 53, 0
2, 111022, Note_on_c, 0, 43, 0
2, 111087, Note_on_c, 0, 68, 0
2, 111180, Note_on_c, 0, 63, 0
2, 111409, Control_c, 0, 64, 0
2, 111413, Note_on_c, 0, 67, 43
2, 111421, Note_on_c, 0, 59, 32
2, 111432, Note_on_c, 0, 62, 43
2, 111433, Note_on_c, 0, 64, 48
2, 111443, Note_on_c, 0, 48, 31
2, 111465, Note_on_c, 0, 55, 25
2, 111679, Control_c, 0, 64, 127
2, 111703, Note_on_c, 0, 59, 0
2, 111746, Note_on_c, 0, 48, 0
2, 111794, Note_on_c, 0, 55, 0
2, 111823, Note_on_c, 0, 62, 0
2, 111873, Note_on_c, 0, 64, 0
2, 111905, Note_on_c, 0, 67, 0
2, 112480, Note_on_c, 0, 67, 30
2, 112486, Note_on_c, 0, 62, 32
2, 112487, Note_on_c, 0, 64, 25
2, 112958, Note_on_c, 0, 88, 87
2, 112988, Note_on_c, 0, 79, 82
2, 113031, Note_on_c, 0, 67, 0
2, 113068, Note_on_c, 0, 64, 0
2, 113143, Note_on_c, 0, 88, 0
2, 113164, Note_on_c, 0, 79, 0
2, 113810, Note_on_c, 0, 78, 53
2, 113816, Note_on_c, 0, 64, 30
2, 113832, Note_on_c, 0, 69, 51
2, 114018, Note_on_c, 0, 64, 0
2, 114100, Note_on_c, 0, 69, 0
2, 114102, Note_on_c, 0, 78, 0
2, 114254, Note_on_c, 0, 64, 26
2, 114255, Note_on_c, 0, 78, 44
2, 114268, Note_on_c, 0, 69, 48
2, 114340, Note_on_c, 0, 64, 0
2, 114368, Note_on_c, 0, 69, 0
2, 114387, Note_on_c, 0, 78, 0
2, 114390, Note_on_c, 0, 62, 0
2, 114709, Note_on_c, 0, 79, 50
2, 114714, Note_on_c, 0, 71, 50
2, 114813, Note_on_c, 0, 71, 0
2, 114835, Note_on_c, 0, 79, 0
2, 115194, Note_on_c, 0, 84, 59
2, 115206, Note_on_c, 0, 77, 39
2, 115215, Note_on_c, 0, 72, 30
2, 115228, Note_on_c, 0, 57, 26
2, 115241, Control_c, 0, 64, 0
2, 115243, Note_on_c, 0, 48, 39
2, 115418, Control_c, 0, 64, 127
2, 115469, Note_on_c, 0, 84, 0
2, 115473, Note_on_c, 0, 57, 0
2, 115495, Note_on_c, 0, 77, 0
2, 115545, Note_on_c, 0, 72, 0
2, 115708, Note_on_c, 0, 77, 54
2, 115717, Note_on_c, 0, 57, 40
2, 116179, Note_on_c, 0, 72, 37
2, 116186, Note_on_c, 0, 69, 37
2, 116188, Note_on_c, 0, 65, 41
2, 116484, Note_on_c, 0, 48, 0
2, 116675, Note_on_c, 0, 64, 55
2, 117032, Note_on_c, 0, 64, 0
2, 117040, Note_on_c, 0, 65, 0
2, 117069, Note_on_c, 0, 69, 0
2, 117151, Note_on_c, 0, 65, 36
2, 117152, Note_on_c, 0, 69, 31
2, 117167, Note_on_c, 0, 62, 43
2, 117185, Control_c, 0, 64, 0
2, 117362, Control_c, 0, 64, 127
2, 117488, Note_on_c, 0, 62, 0
2, 117614, Note_on_c, 0, 60, 45
2, 117863, Note_on_c, 0, 65, 0
2, 117893, Note_on_c, 0, 72, 0
2, 117896, Note_on_c, 0, 69, 0
2, 118087, Note_on_c, 0, 65, 35
2, 118095, Note_on_c, 0, 69, 38
2, 118171, Note_on_c, 0, 57, 0
2, 118563, Note_on_c, 0, 57, 41
2, 118616, Note_on_c, 0, 60, 0
2, 118651, Note_on_c, 0, 65, 0
2, 118661, Note_on_c, 0, 77, 0
2, 118674, Note_on_c, 0, 57, 0
2, 118681, Note_on_c, 0, 69, 0
2, 119040, Note_on_c, 0, 71, 50
2, 119046, Note_on_c, 0, 64, 35
2, 119062, Note_on_c, 0, 48, 37
2, 119084, Control_c, 0, 64, 0
2, 119085, Note_on_c, 0, 59, 28
2, 119325, Control_c, 0, 64, 127
2, 119528, Note_on_c, 0, 55, 36
2, 119559, Note_on_c, 0, 71, 0
2, 119690, Note_on_c, 0, 64, 0
2, 119716, Note_on_c, 0, 59, 0
2, 119997, Note_on_c, 0, 64, 43
2, 120001, Note_on_c, 0, 62, 31
2, 120013, Note_on_c, 0, 59, 24
2, 120392, Note_on_c, 0, 55, 0
2, 120497, Note_on_c, 0, 62, 0
2, 120505, Note_on_c, 0, 55, 40
2, 120546, Note_on_c, 0, 64, 0
2, 120631, Note_on_c, 0, 59, 0
2, 120964, Note_on_c, 0, 76, 91
2, 120989, Note_on_c, 0, 67, 92
2, 121004, Note_on_c, 0, 75, 39
2, 121029, Note_on_c, 0, 60, 28
2, 121034, Note_on_c, 0, 75, 0
2, 121067, Note_on_c, 0, 55, 0
2, 121173, Note_on_c, 0, 60, 0
2, 121434, Note_on_c, 0, 76, 0
2, 121462, Note_on_c, 0, 55, 38
2, 121480, Note_on_c, 0, 67, 0
2, 121933, Note_on_c, 0, 57, 58
2, 121938, Note_on_c, 0, 66, 58
2, 121943, Note_on_c, 0, 62, 48
2, 122284, Note_on_c, 0, 48, 0
2, 122393, Note_on_c, 0, 48, 22
2, 122533, Note_on_c, 0, 48, 0
2, 122560, Note_on_c, 0, 57, 0
2, 122567, Note_on_c, 0, 62, 0
2, 122599, Note_on_c, 0, 66, 0
2, 122670, Note_on_c, 0, 67, 59
2, 122701, Note_on_c, 0, 62, 29
2, 122741, Note_on_c, 0, 62, 0
2, 122787, Note_on_c, 0, 67, 0
2, 122907, Note_on_c, 0, 55, 0
2, 122918, Note_on_c, 0, 65, 66
2, 122928, Note_on_c, 0, 72, 64
2, 122948, Note_on_c, 0, 48, 32
2, 122952, Note_on_c, 0, 57, 25
2, 122971, Control_c, 0, 64, 0
2, 123213, Control_c, 0, 64, 127
2, 123298, Note_on_c, 0, 65, 0
2, 123311, Note_on_c, 0, 57, 0
2, 123439, Note_on_c, 0, 65, 48
2, 123455, Note_on_c, 0, 60, 40
2, 123474, Note_on_c, 0, 57, 30
2, 123592, Note_on_c, 0, 65, 0
2, 123653, Note_on_c, 0, 60, 0
2, 123660, Note_on_c, 0, 57, 0
2, 123939, Note_on_c, 0, 65, 40
2, 123945, Note_on_c, 0, 60, 38
2, 123947, Note_on_c, 0, 57, 29
2, 124237, Note_on_c, 0, 48, 0
2, 124413, Note_on_c, 0, 48, 33
2, 124425, Note_on_c, 0, 60, 0
2, 124431, Note_on_c, 0, 65, 0
2, 124489, Note_on_c, 0, 57, 0
2, 124813, Note_on_c, 0, 72, 0
2, 124883, Note_on_c, 0, 65, 40
2, 124887, Note_on_c, 0, 57, 33
2, 124892, Note_on_c, 0, 60, 34
2, 124965, Note_on_c, 0, 60, 0
2, 124973, Note_on_c, 0, 57, 0
2, 124981, Note_on_c, 0, 48, 0
2, 124992, Note_on_c, 0, 65, 0
2, 125447, Note_on_c, 0, 50, 32
2, 125501, Note_on_c, 0, 50, 0
2, 125533, Note_on_c, 0, 52, 33
2, 125604, Note_on_c, 0, 52, 0
2, 125633, Note_on_c, 0, 53, 40
2, 125688, Control_c, 0, 64, 0
2, 125690, Note_on_c, 0, 53, 0
2, 125714, Note_on_c, 0, 55, 41
2, 125776, Note_on_c, 0, 55, 0
2, 125801, Note_on_c, 0, 57, 41
2, 125868, Note_on_c, 0, 57, 0
2, 125884, Note_on_c, 0, 59, 36
2, 125948, Note_on_c, 0, 59, 0
2, 125969, Note_on_c, 0, 60, 47
2, 126030, Note_on_c, 0, 60, 0
2, 126041, Note_on_c, 0, 62, 46
2, 126099, Note_on_c, 0, 62, 0
2, 126117, Note_on_c, 0, 64, 40
2, 126169, Note_on_c, 0, 64, 0
2, 126177, Note_on_c, 0, 65, 55
2, 126239, Note_on_c, 0, 65, 0
2, 126240, Note_on_c, 0, 67, 53
2, 126300, Note_on_c, 0, 67, 0
2, 126307, Note_on_c, 0, 69, 44
2, 126340, Control_c, 0, 64, 127
2, 126352, Note_on_c, 0, 69, 0
2, 126367, Note_on_c, 0, 71, 41
2, 126407, Note_on_c, 0, 71, 0
2, 126437, Note_on_c, 0, 72, 44
2, 126471, Note_on_c, 0, 72, 0
2, 126481, Note_on_c, 0, 74, 48
2, 126513, Note_on_c, 0, 74, 0
2, 126532, Note_on_c, 0, 76, 38
2, 126564, Note_on_c, 0, 76, 0
2, 126582, Note_on_c, 0, 77, 41
2, 126621, Note_on_c, 0, 77, 0
2, 126631, Note_on_c, 0, 79, 47
2, 126664, Note_on_c, 0, 79, 0
2, 126680, Note_on_c, 0, 81, 42
2, 126714, Note_on_c, 0, 81, 0
2, 126727, Note_on_c, 0, 83, 45
2, 126765, Note_on_c, 0, 83, 0
2, 126781, Note_on_c, 0, 84, 47
2, 126814, Note_on_c, 0, 84, 0
2, 126837, Note_on_c, 0, 86, 42
2, 126872, Note_on_c, 0, 86, 0
2, 126876, Note_on_c, 0, 88, 62
2, 126900, Note_on_c, 0, 64, 38
2, 126901, Note_on_c, 0, 67, 37
2, 126910, Note_on_c, 0, 62, 39
2, 126962, Control_c, 0, 64, 0
2, 127269, Control_c, 0, 64, 127
2, 127432, Note_on_c, 0, 67, 0
2, 127450, Note_on_c, 0, 64, 0
2, 127680, Note_on_c, 0, 64, 30
2, 127680, Note_on_c, 0, 67, 24
2, 128161, Note_on_c, 0, 67, 0
2, 128169, Note_on_c, 0, 64, 0
2, 128232, Note_on_c, 0, 88, 0
2, 128608, Note_on_c, 0, 64, 25
2, 128618, Note_on_c, 0, 67, 34
2, 129042, Note_on_c, 0, 67, 0
2, 129070, Note_on_c, 0, 64, 0
2, 129081, Note_on_c, 0, 62, 0
2, 129115, Note_on_c, 0, 79, 80
2, 129380, Note_on_c, 0, 79, 0
2, 129549, Note_on_c, 0, 64, 45
2, 129562, Note_on_c, 0, 79, 81
2, 129564, Note_on_c, 0, 60, 46
2, 129574, Note_on_c, 0, 59, 40
2, 129908, Note_on_c, 0, 64, 0
2, 129921, Note_on_c, 0, 79, 0
2, 129942, Note_on_c, 0, 60, 0
2, 129977, Note_on_c, 0, 59, 0
2, 130067, Note_on_c, 0, 84, 87
2, 130213, Note_on_c, 0, 84, 0
2, 130540, Note_on_c, 0, 88, 72
2, 130556, Note_on_c, 0, 76, 64
2, 130562, Control_c, 0, 64, 0
2, 130563, Note_on_c, 0, 60, 41
2, 130565, Note_on_c, 0, 64, 40
2, 130576, Note_on_c, 0, 59, 30
2, 130590, Note_on_c, 0, 55, 42
2, 130775, Control_c, 0, 64, 127
2, 130913, Note_on_c, 0, 60, 0
2, 130925, Note_on_c, 0, 64, 0
2, 130963, Note_on_c, 0, 59, 0
2, 131161, Note_on_c, 0, 60, 33
2, 131162, Note_on_c, 0, 59, 26
2, 131166, Note_on_c, 0, 64, 26
2, 131450, Note_on_c, 0, 60, 0
2, 131470, Note_on_c, 0, 64, 0
2, 131691, Note_on_c, 0, 59, 0
2, 131806, Note_on_c, 0, 55, 0
2, 131956, Note_on_c, 0, 64, 45
2, 131962, Note_on_c, 0, 59, 37
2, 131966, Note_on_c, 0, 60, 47
2, 132037, Note_on_c, 0, 64, 0
2, 132051, Note_on_c, 0, 60, 0
2, 132081, Note_on_c, 0, 59, 0
2, 132183, Note_on_c, 0, 64, 44
2, 132194, Note_on_c, 0, 59, 31
2, 132195, Note_on_c, 0, 60, 47
2, 132228, Note_on_c, 0, 76, 0
2, 132246, Note_on_c, 0, 88, 0
2, 132272, Note_on_c, 0, 60, 0
2, 132281, Note_on_c, 0, 64, 0
2, 132287, Note_on_c, 0, 59, 0
2, 132451, Note_on_c, 0, 60, 60
2, 132457, Note_on_c, 0, 65, 69
2, 132458, Note_on_c, 0, 89, 71
2, 132463, Note_on_c, 0, 61, 60
2, 132466, Note_on_c, 0, 55, 70
2, 132467, Note_on_c, 0, 77, 74
2, 132470, Control_c, 0, 64, 0
2, 132484, Note_on_c, 0, 84, 73
2, 132496, Note_on_c, 0, 58, 36
2, 132537, Note_on_c, 0, 58, 0
2, 132639, Control_c, 0, 64, 127
2, 132861, Note_on_c, 0, 55, 0
2, 132878, Note_on_c, 0, 65, 0
2, 132895, Note_on_c, 0, 60, 0
2, 132898, Note_on_c, 0, 61, 0
2, 132989, Note_on_c, 0, 61, 54
2, 132994, Note_on_c, 0, 60, 58
2, 132995, Note_on_c, 0, 65, 64
2, 133002, Note_on_c, 0, 55, 59
2, 133477, Note_on_c, 0, 55, 0
2, 133568, Note_on_c, 0, 65, 0
2, 133616, Note_on_c, 0, 60, 0
2, 133641, Note_on_c, 0, 61, 0
2, 134018, Note_on_c, 0, 61, 26
2, 134019, Note_on_c, 0, 65, 49
2, 134039, Note_on_c, 0, 55, 35
2, 134095, Note_on_c, 0, 65, 0
2, 134101, Note_on_c, 0, 89, 0
2, 134112, Note_on_c, 0, 84, 0
2, 134115, Note_on_c, 0, 77, 0
2, 134135, Note_on_c, 0, 55, 0
2, 134138, Note_on_c, 0, 61, 0
2, 134508, Control_c, 0, 64, 0
2, 134527, Note_on_c, 0, 90, 61
2, 134528, Note_on_c, 0, 54, 50
2, 134537, Note_on_c, 0, 60, 32
2, 134538, Note_on_c, 0, 64, 46
2, 134539, Note_on_c, 0, 78, 39
2, 134704, Control_c, 0, 64, 127
2, 134948, Note_on_c, 0, 90, 0
2, 134949, Note_on_c, 0, 78, 0
2, 135015, Note_on_c, 0, 90, 39
2, 135031, Note_on_c, 0, 78, 37
2, 135163, Note_on_c, 0, 90, 0
2, 135189, Note_on_c, 0, 78, 0
2, 135204, Note_on_c, 0, 64, 0
2, 135249, Note_on_c, 0, 60, 0
2, 135284, Note_on_c, 0, 54, 0
2, 135970, Note_on_c, 0, 82, 83
2, 135972, Note_on_c, 0, 86, 80
2, 135975, Note_on_c, 0, 74, 88
2, 135983, Note_on_c, 0, 58, 75
2, 135986, Control_c, 0, 64, 0
2, 135988, Note_on_c, 0, 65, 80
2, 135990, Note_on_c, 0, 54, 75
2, 135993, Note_on_c, 0, 60, 76
2, 136165, Control_c, 0, 64, 127
2, 136298, Note_on_c, 0, 74, 0
2, 136352, Note_on_c, 0, 86, 0
2, 136354, Note_on_c, 0, 82, 0
2, 136355, Note_on_c, 0, 65, 0
2, 136357, Note_on_c, 0, 54, 0
2, 136386, Note_on_c, 0, 60, 0
2, 136404, Note_on_c, 0, 58, 0
2, 136494, Note_on_c, 0, 82, 84
2, 136496, Note_on_c, 0, 86, 81
2, 136500, Control_c, 0, 64, 0
2, 136501, Note_on_c, 0, 74, 87
2, 136508, Note_on_c, 0, 58, 73
2, 136512, Note_on_c, 0, 65, 80
2, 136513, Note_on_c, 0, 54, 74
2, 136515, Note_on_c, 0, 60, 68
2, 136694, Control_c, 0, 64, 127
2, 137046, Note_on_c, 0, 54, 0
2, 137072, Note_on_c, 0, 65, 0
2, 137174, Note_on_c, 0, 58, 0
2, 137175, Note_on_c, 0, 60, 0
2, 137184, Note_on_c, 0, 74, 0
2, 137243, Note_on_c, 0, 82, 0
2, 137264, Note_on_c, 0, 86, 0
2, 137420, Note_on_c, 0, 86, 57
2, 137421, Note_on_c, 0, 82, 49
2, 137423, Note_on_c, 0, 74, 54
2, 137425, Note_on_c, 0, 65, 50
2, 137429, Note_on_c, 0, 58, 46
2, 137437, Note_on_c, 0, 54, 36
2, 137449, Note_on_c, 0, 60, 45
2, 137736, Note_on_c, 0, 86, 0
2, 137813, Note_on_c, 0, 82, 0
2, 137844, Note_on_c, 0, 74, 0
2, 137853, Note_on_c, 0, 60, 0
2, 137858, Note_on_c, 0, 65, 0
2, 137911, Note_on_c, 0, 58, 0
2, 137916, Note_on_c, 0, 54, 0
2, 138297, Note_on_c, 0, 79, 51
2, 138303, Control_c, 0, 64, 0
2, 138311, Note_on_c, 0, 74, 41
2, 138314, Note_on_c, 0, 71, 41
2, 138317, Note_on_c, 0, 69, 26
2, 138326, Note_on_c, 0, 62, 43
2, 138329, Note_on_c, 0, 66, 43
2, 138345, Note_on_c, 0, 55, 30
2, 138498, Control_c, 0, 64, 127
2, 138517, Note_on_c, 0, 66, 0
2, 138539, Note_on_c, 0, 55, 0
2, 138540, Note_on_c, 0, 62, 0
2, 138558, Note_on_c, 0, 79, 0
2, 138586, Note_on_c, 0, 74, 0
2, 138621, Note_on_c, 0, 71, 0
2, 138663, Note_on_c, 0, 69, 0
2, 139222, Note_on_c, 0, 54, 37
2, 139227, Note_on_c, 0, 71, 46
2, 139229, Note_on_c, 0, 66, 48
2, 139234, Note_on_c, 0, 62, 39
2, 139488, Note_on_c, 0, 54, 0
2, 139494, Note_on_c, 0, 71, 0
2, 139571, Note_on_c, 0, 66, 0
2, 139634, Note_on_c, 0, 62, 0
2, 140198, Note_on_c, 0, 57, 28
2, 140203, Note_on_c, 0, 62, 34
2, 140206, Note_on_c, 0, 59, 35
2, 140228, Control_c, 0, 64, 0
2, 140229, Note_on_c, 0, 43, 29
2, 140251, Note_on_c, 0, 50, 30
2, 140470, Control_c, 0, 64, 127
2, 140736, Note_on_c, 0, 50, 0
2, 140741, Note_on_c, 0, 57, 0
2, 140833, Note_on_c, 0, 59, 0
2, 140914, Note_on_c, 0, 62, 0
2, 141192, Note_on_c, 0, 57, 33
2, 141194, Note_on_c, 0, 50, 35
2, 141203, Note_on_c, 0, 62, 32
2, 141229, Note_on_c, 0, 59, 26
2, 141234, Note_on_c, 0, 43, 0
2, 141350, Note_on_c, 0, 57, 0
2, 141363, Note_on_c, 0, 59, 0
2, 141394, Note_on_c, 0, 62, 0
2, 141500, Note_on_c, 0, 50, 0
2, 142136, Note_on_c, 0, 68, 69
2, 142144, Control_c, 0, 64, 0
2, 142150, Note_on_c, 0, 64, 72
2, 142155, Note_on_c, 0, 59, 68
2, 142157, Note_on_c, 0, 62, 68
2, 142170, Note_on_c, 0, 52, 54
2, 142386, Control_c, 0, 64, 127
2, 142546, Note_on_c, 0, 59, 0
2, 142601, Note_on_c, 0, 62, 0
2, 142641, Note_on_c, 0, 64, 0
2, 142668, Note_on_c, 0, 68, 0
2, 142739, Note_on_c, 0, 52, 0
2, 143566, Note_on_c, 0, 76, 71
2, 143575, Note_on_c, 0, 65, 66
2, 143576, Note_on_c, 0, 71, 69
2, 143579, Note_on_c, 0, 69, 66
2, 143588, Note_on_c, 0, 64, 64
2, 143633, Control_c, 0, 64, 0
2, 143688, Control_c, 0, 64, 127
2, 143779, Note_on_c, 0, 64, 0
2, 143822, Note_on_c, 0, 69, 0
2, 143839, Note_on_c, 0, 71, 0
2, 143874, Note_on_c, 0, 65, 0
2, 143942, Note_on_c, 0, 76, 0
2, 144092, Note_on_c, 0, 76, 68
2, 144103, Note_on_c, 0, 70, 57
2, 144108, Note_on_c, 0, 65, 55
2, 144113, Note_on_c, 0, 68, 47
2, 144120, Note_on_c, 0, 56, 44
2, 144121, Note_on_c, 0, 62, 36
2, 144135, Control_c, 0, 64, 0
2, 144396, Control_c, 0, 64, 127
2, 144619, Note_on_c, 0, 62, 0
2, 144795, Note_on_c, 0, 65, 0
2, 144867, Note_on_c, 0, 70, 0
2, 144881, Note_on_c, 0, 68, 0
2, 145055, Note_on_c, 0, 76, 0
2, 145067, Note_on_c, 0, 70, 26
2, 145081, Note_on_c, 0, 68, 30
2, 145091, Note_on_c, 0, 65, 39
2, 145104, Note_on_c, 0, 62, 26
2, 145428, Note_on_c, 0, 56, 0
2, 145469, Note_on_c, 0, 65, 0
2, 145504, Note_on_c, 0, 70, 0
2, 145505, Note_on_c, 0, 62, 0
2, 145579, Note_on_c, 0, 68, 0
2, 145703, Note_on_c, 0, 71, 55
2, 145843, Note_on_c, 0, 71, 0
2, 145868, Note_on_c, 0, 74, 70
2, 146047, Note_on_c, 0, 71, 52
2, 146048, Note_on_c, 0, 74, 0
2, 146048, Note_on_c, 0, 57, 30
2, 146055, Note_on_c, 0, 64, 25
2, 146060, Control_c, 0, 64, 0
2, 146065, Note_on_c, 0, 59, 33
2, 146077, Note_on_c, 0, 60, 42
2, 146228, Note_on_c, 0, 71, 0
2, 146261, Note_on_c, 0, 72, 48
2, 146460, Note_on_c, 0, 72, 0
2, 146465, Note_on_c, 0, 69, 46
2, 146590, Note_on_c, 0, 69, 0
2, 146655, Control_c, 0, 64, 127
2, 146702, Note_on_c, 0, 64, 0
2, 146737, Note_on_c, 0, 69, 51
2, 146739, Note_on_c, 0, 60, 0
2, 146754, Note_on_c, 0, 59, 0
2, 146899, Note_on_c, 0, 69, 0
2, 146957, Note_on_c, 0, 64, 49
2, 147069, Note_on_c, 0, 64, 0
2, 147140, Note_on_c, 0, 60, 1
2, 147228, Note_on_c, 0, 64, 47
2, 147331, Note_on_c, 0, 64, 0
2, 147620, Note_on_c, 0, 60, 0
2, 147843, Note_on_c, 0, 64, 27
2, 147854, Note_on_c, 0, 60, 25
2, 147865, Note_on_c, 0, 59, 32
2, 148143, Note_on_c, 0, 76, 51
2, 148239, Note_on_c, 0, 76, 0
2, 148358, Note_on_c, 0, 64, 0
2, 148407, Note_on_c, 0, 88, 95
2, 148416, Note_on_c, 0, 60, 0
2, 148417, Note_on_c, 0, 59, 0
2, 148653, Note_on_c, 0, 81, 80
2, 148733, Note_on_c, 0, 88, 0
2, 148852, Note_on_c, 0, 81, 0
2, 148888, Note_on_c, 0, 64, 36
2, 148903, Note_on_c, 0, 60, 33
2, 148919, Note_on_c, 0, 81, 76
2, 149148, Note_on_c, 0, 81, 0
2, 149156, Note_on_c, 0, 60, 0
2, 149169, Note_on_c, 0, 86, 79
2, 149181, Note_on_c, 0, 64, 0
2, 149231, Note_on_c, 0, 57, 0
2, 149352, Note_on_c, 0, 86, 0
2, 149415, Note_on_c, 0, 86, 66
2, 149659, Note_on_c, 0, 81, 54
2, 149684, Note_on_c, 0, 58, 32
2, 149697, Note_on_c, 0, 62, 28
2, 149697, Note_on_c, 0, 57, 32
2, 149706, Control_c, 0, 64, 0
2, 149710, Note_on_c, 0, 53, 28
2, 149804, Note_on_c, 0, 81, 0
2, 149922, Note_on_c, 0, 81, 56
2, 149948, Control_c, 0, 64, 127
2, 150080, Note_on_c, 0, 86, 0
2, 150115, Note_on_c, 0, 81, 0
2, 150151, Note_on_c, 0, 82, 50
2, 150250, Note_on_c, 0, 62, 0
2, 150320, Note_on_c, 0, 58, 0
2, 150724, Note_on_c, 0, 74, 42
2, 150747, Note_on_c, 0, 58, 28
2, 150757, Note_on_c, 0, 62, 24
2, 150800, Note_on_c, 0, 82, 0
2, 150836, Note_on_c, 0, 74, 0
2, 151235, Note_on_c, 0, 88, 96
2, 151269, Note_on_c, 0, 87, 47
2, 151273, Note_on_c, 0, 57, 0
2, 151301, Note_on_c, 0, 87, 0
2, 151322, Note_on_c, 0, 53, 0
2, 151324, Note_on_c, 0, 62, 0
2, 151340, Note_on_c, 0, 58, 0
2, 151356, Note_on_c, 0, 88, 0
2, 151696, Note_on_c, 0, 58, 52
2, 151707, Control_c, 0, 64, 0
2, 151708, Note_on_c, 0, 84, 71
2, 151713, Note_on_c, 0, 64, 42
2, 151714, Note_on_c, 0, 72, 51
2, 151893, Control_c, 0, 64, 127
2, 152006, Note_on_c, 0, 84, 0
2, 152114, Note_on_c, 0, 58, 0
2, 152169, Note_on_c, 0, 72, 0
2, 152183, Note_on_c, 0, 64, 0
2, 152222, Note_on_c, 0, 58, 49
2, 152408, Note_on_c, 0, 58, 0
2, 152682, Note_on_c, 0, 76, 67
2, 152685, Note_on_c, 0, 73, 50
2, 152691, Note_on_c, 0, 68, 59
2, 152692, Note_on_c, 0, 64, 71
2, 152725, Note_on_c, 0, 58, 55
2, 153024, Note_on_c, 0, 58, 0
2, 153204, Note_on_c, 0, 58, 47
2, 153245, Note_on_c, 0, 64, 0
2, 153297, Note_on_c, 0, 73, 0
2, 153300, Note_on_c, 0, 76, 0
2, 153323, Note_on_c, 0, 68, 0
2, 153469, Note_on_c, 0, 58, 0
2, 153695, Note_on_c, 0, 77, 62
2, 153706, Note_on_c, 0, 69, 57
2, 153710, Note_on_c, 0, 65, 52
2, 153715, Note_on_c, 0, 72, 48
2, 153717, Control_c, 0, 64, 0
2, 153732, Note_on_c, 0, 64, 62
2, 153752, Note_on_c, 0, 53, 40
2, 153985, Control_c, 0, 64, 127
2, 154036, Note_on_c, 0, 64, 0
2, 154200, Note_on_c, 0, 62, 49
2, 154328, Note_on_c, 0, 77, 0
2, 154411, Note_on_c, 0, 69, 0
2, 154415, Note_on_c, 0, 72, 0
2, 154421, Note_on_c, 0, 65, 0
2, 154550, Note_on_c, 0, 62, 0
2, 154708, Note_on_c, 0, 65, 31
2, 154709, Note_on_c, 0, 69, 44
2, 154711, Note_on_c, 0, 72, 36
2, 154720, Control_c, 0, 64, 0
2, 154724, Note_on_c, 0, 60, 35
2, 154905, Control_c, 0, 64, 127
2, 155029, Note_on_c, 0, 53, 0
2, 155083, Note_on_c, 0, 60, 0
2, 155116, Note_on_c, 0, 69, 0
2, 155130, Note_on_c, 0, 72, 0
2, 155168, Note_on_c, 0, 59, 43
2, 155172, Note_on_c, 0, 65, 0
2, 155214, Note_on_c, 0, 59, 0
2, 155627, Note_on_c, 0, 55, 45
2, 155629, Note_on_c, 0, 64, 47
2, 155637, Note_on_c, 0, 57, 31
2, 155639, Note_on_c, 0, 60, 45
2, 155659, Control_c, 0, 64, 0
2, 155939, Control_c, 0, 64, 127
2, 156016, Note_on_c, 0, 55, 0
2, 156110, Note_on_c, 0, 53, 35
2, 156160, Note_on_c, 0, 64, 0
2, 156178, Note_on_c, 0, 53, 0
2, 156199, Note_on_c, 0, 60, 0
2, 156278, Note_on_c, 0, 57, 0
2, 156322, Note_on_c, 0, 61, 32
2, 156373, Note_on_c, 0, 61, 0
2, 156595, Note_on_c, 0, 52, 34
2, 156596, Note_on_c, 0, 60, 43
2, 156600, Note_on_c, 0, 53, 24
2, 156602, Note_on_c, 0, 57, 33
2, 156619, Control_c, 0, 64, 0
2, 156776, Control_c, 0, 64, 127
2, 156809, Note_on_c, 0, 52, 0
2, 157052, Note_on_c, 0, 43, 41
2, 157119, Note_on_c, 0, 57, 0
2, 157166, Note_on_c, 0, 53, 0
2, 157332, Note_on_c, 0, 60, 0
2, 157511, Note_on_c, 0, 43, 0
2, 157557, Control_c, 0, 64, 0
2, 157563, Note_on_c, 0, 36, 56
2, 157762, Control_c, 0, 64, 127
2, 157855, Note_on_c, 0, 36, 0
2, 158494, Note_on_c, 0, 76, 83
2, 158522, Note_on_c, 0, 67, 88
2, 158937, Note_on_c, 0, 60, 63
2, 158965, Note_on_c, 0, 76, 0
2, 159001, Note_on_c, 0, 67, 0
2, 159033, Note_on_c, 0, 60, 0
2, 159415, Note_on_c, 0, 66, 79
2, 159423, Note_on_c, 0, 57, 71
2, 159441, Note_on_c, 0, 55, 40
2, 159446, Control_c, 0, 64, 0
2, 159556, Note_on_c, 0, 55, 0
2, 159613, Control_c, 0, 64, 127
2, 159899, Note_on_c, 0, 55, 41
2, 160020, Note_on_c, 0, 55, 0
2, 160138, Note_on_c, 0, 57, 0
2, 160320, Note_on_c, 0, 66, 0
2, 160353, Note_on_c, 0, 59, 53
2, 160358, Note_on_c, 0, 67, 51
2, 160381, Note_on_c, 0, 55, 30
2, 160792, Note_on_c, 0, 59, 0
2, 160825, Note_on_c, 0, 48, 26
2, 160873, Note_on_c, 0, 67, 0
2, 160969, Note_on_c, 0, 48, 0
2, 161055, Note_on_c, 0, 55, 0
2, 161313, Note_on_c, 0, 72, 46
2, 161323, Note_on_c, 0, 65, 47
2, 161327, Note_on_c, 0, 60, 41
2, 161353, Note_on_c, 0, 57, 27
2, 161356, Note_on_c, 0, 48, 32
2, 161370, Control_c, 0, 64, 0
2, 161613, Control_c, 0, 64, 127
2, 161720, Note_on_c, 0, 65, 0
2, 161758, Note_on_c, 0, 57, 0
2, 161773, Note_on_c, 0, 60, 0
2, 161899, Note_on_c, 0, 65, 44
2, 161914, Note_on_c, 0, 60, 40
2, 161928, Note_on_c, 0, 57, 28
2, 162164, Note_on_c, 0, 65, 0
2, 162172, Note_on_c, 0, 60, 0
2, 162186, Note_on_c, 0, 57, 0
2, 162398, Note_on_c, 0, 65, 38
2, 162399, Note_on_c, 0, 60, 44
2, 162407, Note_on_c, 0, 57, 35
2, 162650, Note_on_c, 0, 65, 0
2, 162655, Note_on_c, 0, 60, 0
2, 162673, Note_on_c, 0, 57, 0
2, 162843, Note_on_c, 0, 65, 32
2, 162861, Note_on_c, 0, 57, 28
2, 162867, Note_on_c, 0, 60, 30
2, 163057, Note_on_c, 0, 57, 0
2, 163065, Note_on_c, 0, 65, 0
2, 163068, Note_on_c, 0, 60, 0
2, 163323, Note_on_c, 0, 65, 36
2, 163328, Note_on_c, 0, 60, 35
2, 163334, Note_on_c, 0, 57, 37
2, 163822, Note_on_c, 0, 60, 0
2, 163856, Note_on_c, 0, 57, 0
2, 163864, Note_on_c, 0, 65, 0
2, 164228, Note_on_c, 0, 65, 33
2, 164230, Note_on_c, 0, 60, 28
2, 164232, Note_on_c, 0, 57, 27
2, 164319, Note_on_c, 0, 48, 0
2, 164332, Note_on_c, 0, 57, 0
2, 164468, Note_on_c, 0, 72, 0
2, 164542, Note_on_c, 0, 65, 0
2, 164626, Note_on_c, 0, 60, 0
2, 165094, Note_on_c, 0, 36, 34
2, 165104, Note_on_c, 0, 43, 34
2, 165120, Note_on_c, 0, 64, 41
2, 165135, Note_on_c, 0, 52, 31
2, 165137, Control_c, 0, 64, 0
2, 165142, Note_on_c, 0, 59, 31
2, 165149, Note_on_c, 0, 55, 15
2, 165408, Control_c, 0, 64, 127
2, 165787, Note_on_c, 0, 52, 0
2, 166275, Note_on_c, 0, 55, 0
2, 166418, Note_on_c, 0, 36, 0
2, 166554, Note_on_c, 0, 36, 24
2, 166581, Note_on_c, 0, 59, 0
2, 166653, Note_on_c, 0, 43, 0
2, 166691, Note_on_c, 0, 64, 0
2, 167045, Note_on_c, 0, 67, 58
2, 167060, Note_on_c, 0, 62, 52
2, 167061, Note_on_c, 0, 57, 51
2, 167082, Note_on_c, 0, 52, 28
2, 167470, Note_on_c, 0, 52, 0
2, 167663, Note_on_c, 0, 57, 0
2, 167683, Note_on_c, 0, 62, 0
2, 167721, Note_on_c, 0, 36, 0
2, 168038, Note_on_c, 0, 62, 46
2, 168066, Note_on_c, 0, 57, 20
2, 168207, Note_on_c, 0, 57, 0
2, 168389, Note_on_c, 0, 67, 0
2, 168403, Note_on_c, 0, 62, 0
2, 169001, Note_on_c, 0, 72, 69
2, 169053, Control_c, 0, 64, 0
2, 169426, Control_c, 0, 64, 127
2, 169504, Note_on_c, 0, 51, 46
2, 169992, Note_on_c, 0, 67, 46
2, 170002, Note_on_c, 0, 58, 34
2, 170018, Note_on_c, 0, 63, 29
2, 170047, Note_on_c, 0, 72, 0
2, 170103, Note_on_c, 0, 58, 0
2, 170152, Note_on_c, 0, 51, 0
2, 170324, Note_on_c, 0, 63, 0
2, 170328, Note_on_c, 0, 67, 0
2, 170405, Note_on_c, 0, 51, 66
2, 170458, Control_c, 0, 64, 0
2, 170616, Control_c, 0, 64, 127
2, 170823, Note_on_c, 0, 51, 0
2, 171023, Note_on_c, 0, 72, 59
2, 171028, Note_on_c, 0, 65, 58
2, 171037, Note_on_c, 0, 49, 50
2, 171045, Control_c, 0, 64, 0
2, 171046, Note_on_c, 0, 60, 53
2, 171053, Note_on_c, 0, 56, 36
2, 171325, Control_c, 0, 64, 127
2, 171480, Note_on_c, 0, 60, 0
2, 171546, Note_on_c, 0, 65, 0
2, 171649, Note_on_c, 0, 56, 0
2, 171928, Note_on_c, 0, 65, 43
2, 171940, Note_on_c, 0, 60, 34
2, 171951, Note_on_c, 0, 56, 20
2, 172059, Note_on_c, 0, 72, 0
2, 172260, Note_on_c, 0, 60, 0
2, 172366, Note_on_c, 0, 49, 0
2, 172405, Note_on_c, 0, 72, 41
2, 172472, Note_on_c, 0, 56, 0
2, 172585, Note_on_c, 0, 65, 0
2, 172632, Note_on_c, 0, 72, 0
2, 172867, Control_c, 0, 64, 0
2, 172882, Note_on_c, 0, 71, 44
2, 172891, Note_on_c, 0, 48, 34
2, 172906, Note_on_c, 0, 62, 25
2, 172907, Note_on_c, 0, 67, 35
2, 172921, Note_on_c, 0, 64, 36
2, 173004, Note_on_c, 0, 62, 0
2, 173053, Control_c, 0, 64, 127
2, 173066, Note_on_c, 0, 64, 0
2, 173086, Note_on_c, 0, 67, 0
2, 173120, Note_on_c, 0, 71, 0
2, 173245, Note_on_c, 0, 48, 0
2, 173392, Note_on_c, 0, 88, 49
2, 173414, Note_on_c, 0, 76, 51
2, 173540, Note_on_c, 0, 76, 0
2, 173592, Note_on_c, 0, 88, 0
2, 173866, Note_on_c, 0, 91, 58
2, 173872, Note_on_c, 0, 62, 16
2, 173873, Note_on_c, 0, 79, 42
2, 173875, Note_on_c, 0, 67, 24
2, 173886, Note_on_c, 0, 64, 26
2, 173983, Note_on_c, 0, 79, 0
2, 174027, Note_on_c, 0, 91, 0
2, 174196, Note_on_c, 0, 64, 0
2, 174196, Note_on_c, 0, 67, 0
2, 174213, Note_on_c, 0, 62, 0
2, 174333, Note_on_c, 0, 98, 53
2, 174364, Note_on_c, 0, 67, 33
2, 174366, Note_on_c, 0, 62, 24
2, 174378, Note_on_c, 0, 64, 27
2, 174380, Note_on_c, 0, 86, 57
2, 174474, Note_on_c, 0, 98, 0
2, 174495, Note_on_c, 0, 86, 0
2, 174500, Note_on_c, 0, 64, 0
2, 174511, Note_on_c, 0, 67, 0
2, 174532, Note_on_c, 0, 62, 0
2, 174806, Note_on_c, 0, 95, 51
2, 174820, Note_on_c, 0, 67, 29
2, 174827, Note_on_c, 0, 83, 31
2, 174834, Note_on_c, 0, 64, 26
2, 174836, Note_on_c, 0, 62, 24
2, 175008, Note_on_c, 0, 95, 0
2, 175055, Note_on_c, 0, 83, 0
2, 175085, Note_on_c, 0, 67, 0
2, 175118, Note_on_c, 0, 64, 0
2, 175318, Note_on_c, 0, 91, 38
2, 175319, Note_on_c, 0, 67, 33
2, 175321, Note_on_c, 0, 79, 34
2, 175334, Note_on_c, 0, 64, 25
2, 175610, Note_on_c, 0, 67, 0
2, 175618, Note_on_c, 0, 64, 0
2, 175722, Note_on_c, 0, 91, 0
2, 175729, Note_on_c, 0, 79, 0
2, 175738, Note_on_c, 0, 62, 0
2, 176326, Note_on_c, 0, 91, 29
2, 176352, Note_on_c, 0, 79, 18
2, 176510, Note_on_c, 0, 91, 0
2, 176553, Note_on_c, 0, 79, 0
2, 176794, Note_on_c, 0, 77, 35
2, 176795, Note_on_c, 0, 89, 37
2, 176811, Control_c, 0, 64, 0
2, 176829, Note_on_c, 0, 48, 31
2, 176883, Note_on_c, 0, 57, 6
2, 177007, Control_c, 0, 64, 127
2, 177023, Note_on_c, 0, 89, 0
2, 177078, Note_on_c, 0, 57, 0
2, 177119, Note_on_c, 0, 77, 0
2, 177272, Note_on_c, 0, 84, 49
2, 177276, Note_on_c, 0, 77, 53
2, 177290, Note_on_c, 0, 57, 34
2, 177598, Note_on_c, 0, 77, 0
2, 177606, Note_on_c, 0, 84, 0
2, 177678, Note_on_c, 0, 72, 32
2, 177679, Note_on_c, 0, 81, 45
2, 177691, Note_on_c, 0, 77, 27
2, 177708, Note_on_c, 0, 60, 26
2, 177871, Note_on_c, 0, 57, 0
2, 177919, Note_on_c, 0, 81, 0
2, 177962, Note_on_c, 0, 77, 0
2, 178059, Note_on_c, 0, 72, 0
2, 178125, Note_on_c, 0, 57, 27
2, 178219, Note_on_c, 0, 60, 0
2, 178552, Control_c, 0, 64, 0
2, 178555, Note_on_c, 0, 65, 48
2, 178555, Note_on_c, 0, 72, 40
2, 178567, Note_on_c, 0, 60, 32
2, 178681, Control_c, 0, 64, 127
2, 178737, Note_on_c, 0, 60, 0
2, 178811, Note_on_c, 0, 57, 0
2, 178914, Note_on_c, 0, 65, 0
2, 178973, Note_on_c, 0, 72, 0
2, 179036, Note_on_c, 0, 69, 50
2, 179038, Note_on_c, 0, 60, 38
2, 179067, Note_on_c, 0, 65, 24
2, 179081, Note_on_c, 0, 48, 0
2, 179150, Note_on_c, 0, 69, 0
2, 179153, Note_on_c, 0, 65, 0
2, 179230, Note_on_c, 0, 60, 0
2, 179507, Note_on_c, 0, 65, 40
2, 179508, Note_on_c, 0, 57, 41
2, 179533, Note_on_c, 0, 60, 44
2, 180095, Note_on_c, 0, 57, 0
2, 180114, Control_c, 0, 64, 0
2, 180126, Note_on_c, 0, 60, 0
2, 180141, Note_on_c, 0, 65, 0
2, 180522, Note_on_c, 0, 67, 30
2, 180530, Note_on_c, 0, 59, 30
2, 180545, Note_on_c, 0, 48, 35
2, 180547, Note_on_c, 0, 64, 44
2, 180553, Note_on_c, 0, 62, 40
2, 182035, Note_on_c, 0, 59, 0
2, 182066, Note_on_c, 0, 48, 0
2, 182094, Note_on_c, 0, 64, 0
2, 182113, Note_on_c, 0, 67, 0
2, 182135, Note_on_c, 0, 62, 0
2, 182894, Note_on_c, 0, 67, 38
2, 182920, Note_on_c, 0, 62, 31
2, 182921, Note_on_c, 0, 64, 32
2, 183371, Note_on_c, 0, 77, 103
2, 183481, Note_on_c, 0, 67, 0
2, 183617, Note_on_c, 0, 76, 71
2, 183632, Note_on_c, 0, 64, 0
2, 183680, Note_on_c, 0, 77, 0
2, 183680, Note_on_c, 0, 62, 0
2, 183831, Note_on_c, 0, 72, 58
2, 184025, Note_on_c, 0, 76, 0
2, 184049, Note_on_c, 0, 72, 0
2, 184139, Note_on_c, 0, 65, 30
2, 184235, Note_on_c, 0, 65, 0
2, 184287, Note_on_c, 0, 72, 50
2, 184298, Note_on_c, 0, 57, 31
2, 184305, Note_on_c, 0, 71, 52
2, 184309, Note_on_c, 0, 48, 33
2, 184360, Note_on_c, 0, 71, 0
2, 184557, Note_on_c, 0, 72, 0
2, 184617, Note_on_c, 0, 69, 49
2, 184745, Note_on_c, 0, 69, 0
2, 184810, Note_on_c, 0, 65, 46
2, 185115, Note_on_c, 0, 65, 0
2, 185314, Note_on_c, 0, 62, 27
2, 185995, Note_on_c, 0, 62, 0
2, 186120, Note_on_c, 0, 55, 32
2, 186201, Note_on_c, 0, 55, 0
2, 186258, Note_on_c, 0, 60, 70
2, 186483, Note_on_c, 0, 60, 0
2, 186548, Note_on_c, 0, 62, 53
2, 186598, Note_on_c, 0, 60, 52
2, 186658, Note_on_c, 0, 62, 0
2, 186748, Note_on_c, 0, 60, 0
2, 186778, Note_on_c, 0, 59, 33
2, 186795, Note_on_c, 0, 57, 0
2, 186960, Note_on_c, 0, 59, 0
2, 187060, Note_on_c, 0, 60, 40
2, 187113, Note_on_c, 0, 60, 0
2, 187162, Note_on_c, 0, 57, 24
2, 187228, Note_on_c, 0, 64, 88
2, 187456, Note_on_c, 0, 64, 0
2, 187502, Note_on_c, 0, 65, 66
2, 187533, Note_on_c, 0, 55, 35
2, 187596, Note_on_c, 0, 65, 0
2, 187635, Note_on_c, 0, 57, 0
2, 187695, Note_on_c, 0, 66, 71
2, 187723, Note_on_c, 0, 48, 0
2, 187824, Note_on_c, 0, 55, 0
2, 187943, Note_on_c, 0, 66, 0
2, 187983, Note_on_c, 0, 67, 67
2, 188149, Note_on_c, 0, 67, 0
2, 188179, Note_on_c, 0, 64, 48
2, 188182, Note_on_c, 0, 48, 35
2, 188449, Note_on_c, 0, 64, 0
2, 188484, Note_on_c, 0, 59, 47
2, 188577, Note_on_c, 0, 59, 0
2, 188654, Note_on_c, 0, 59, 51
2, 188682, Note_on_c, 0, 48, 0
2, 188981, Note_on_c, 0, 59, 0
2, 189110, Note_on_c, 0, 59, 54
2, 189384, Note_on_c, 0, 59, 0
2, 189481, Note_on_c, 0, 55, 12
2, 189531, Note_on_c, 0, 55, 0
2, 189589, Note_on_c, 0, 55, 29
2, 189891, Note_on_c, 0, 55, 0
2, 190554, Note_on_c, 0, 64, 30
2, 190586, Note_on_c, 0, 60, 38
2, 190590, Note_on_c, 0, 59, 34
2, 191036, Note_on_c, 0, 71, 45
2, 191228, Note_on_c, 0, 71, 0
2, 191333, Note_on_c, 0, 72, 62
2, 191353, Note_on_c, 0, 64, 0
2, 191401, Note_on_c, 0, 59, 0
2, 191403, Note_on_c, 0, 60, 0
2, 191461, Note_on_c, 0, 72, 0
2, 191561, Note_on_c, 0, 76, 60
2, 191656, Note_on_c, 0, 76, 0
2, 191823, Note_on_c, 0, 81, 82
2, 191964, Note_on_c, 0, 81, 0
2, 192070, Note_on_c, 0, 57, 44
2, 192073, Note_on_c, 0, 50, 53
2, 192075, Note_on_c, 0, 77, 83
2, 192078, Note_on_c, 0, 60, 42
2, 192080, Note_on_c, 0, 84, 90
2, 192085, Note_on_c, 0, 53, 54
2, 192291, Note_on_c, 0, 84, 0
2, 192346, Note_on_c, 0, 81, 62
2, 192356, Note_on_c, 0, 72, 60
2, 192424, Note_on_c, 0, 77, 0
2, 192469, Note_on_c, 0, 72, 0
2, 192534, Note_on_c, 0, 81, 0
2, 192582, Note_on_c, 0, 77, 68
2, 192584, Note_on_c, 0, 84, 81
2, 192789, Note_on_c, 0, 84, 0
2, 192834, Note_on_c, 0, 81, 46
2, 192840, Note_on_c, 0, 72, 38
2, 192922, Note_on_c, 0, 77, 0
2, 192957, Note_on_c, 0, 72, 0
2, 193004, Note_on_c, 0, 81, 0
2, 193057, Note_on_c, 0, 77, 45
2, 193060, Note_on_c, 0, 84, 64
2, 193251, Note_on_c, 0, 84, 0
2, 193307, Note_on_c, 0, 81, 48
2, 193336, Note_on_c, 0, 77, 0
2, 193337, Note_on_c, 0, 72, 33
2, 193377, Note_on_c, 0, 81, 0
2, 193432, Note_on_c, 0, 72, 0
2, 193554, Note_on_c, 0, 77, 43
2, 193566, Note_on_c, 0, 69, 46
2, 194694, Note_on_c, 0, 60, 0
2, 194845, Note_on_c, 0, 53, 0
2, 194886, Note_on_c, 0, 57, 0
2, 194888, Note_on_c, 0, 50, 0
2, 195777, Note_on_c, 0, 69, 0
2, 195893, Note_on_c, 0, 64, 31
2, 195928, Note_on_c, 0, 59, 31
2, 195940, Note_on_c, 0, 60, 33
2, 195948, Note_on_c, 0, 77, 0
2, 196971, Note_on_c, 0, 76, 101
2, 197193, Note_on_c, 0, 76, 0
2, 197214, Note_on_c, 0, 77, 51
2, 197303, Note_on_c, 0, 77, 0
2, 197312, Note_on_c, 0, 76, 51
2, 197460, Note_on_c, 0, 75, 64
2, 197515, Note_on_c, 0, 76, 0
2, 197628, Note_on_c, 0, 75, 0
2, 197745, Note_on_c, 0, 76, 73
2, 197909, Note_on_c, 0, 76, 0
2, 198060, Note_on_c, 0, 79, 80
2, 198254, Note_on_c, 0, 79, 0
2, 198360, Note_on_c, 0, 83, 85
2, 198539, Note_on_c, 0, 83, 0
2, 198747, Note_on_c, 0, 88, 90
2, 199003, Note_on_c, 0, 88, 0
2, 199074, Note_on_c, 0, 87, 74
2, 199263, Note_on_c, 0, 87, 0
2, 199276, Note_on_c, 0, 59, 0
2, 199316, Note_on_c, 0, 64, 0
2, 199344, Note_on_c, 0, 86, 83
2, 199359, Note_on_c, 0, 60, 0
2, 199519, Note_on_c, 0, 86, 0
2, 199578, Note_on_c, 0, 84, 82
2, 199606, Note_on_c, 0, 86, 33
2, 199653, Note_on_c, 0, 86, 0
2, 199728, Note_on_c, 0, 84, 0
2, 199740, Note_on_c, 0, 64, 32
2, 199758, Note_on_c, 0, 57, 37
2, 199768, Note_on_c, 0, 60, 37
2, 199879, Note_on_c, 0, 83, 68
2, 200224, Note_on_c, 0, 83, 0
2, 200260, Note_on_c, 0, 84, 72
2, 200518, Note_on_c, 0, 84, 0
2, 200551, Note_on_c, 0, 81, 62
2, 201384, Note_on_c, 0, 57, 0
2, 201392, Note_on_c, 0, 60, 0
2, 201469, Note_on_c, 0, 64, 0
2, 201497, Note_on_c, 0, 81, 0
2, 201559, Note_on_c, 0, 84, 81
2, 201746, Note_on_c, 0, 84, 0
2, 201801, Note_on_c, 0, 61, 37
2, 201803, Note_on_c, 0, 65, 36
2, 201805, Note_on_c, 0, 60, 34
2, 201813, Note_on_c, 0, 55, 45
2, 201832, Note_on_c, 0, 85, 74
2, 202590, Note_on_c, 0, 65, 0
2, 202592, Note_on_c, 0, 61, 0
2, 202694, Note_on_c, 0, 65, 40
2, 202698, Note_on_c, 0, 61, 33
2, 203045, Note_on_c, 0, 85, 0
2, 203313, Note_on_c, 0, 60, 0
2, 203419, Note_on_c, 0, 88, 96
2, 203427, Note_on_c, 0, 55, 0
2, 203430, Note_on_c, 0, 65, 0
2, 203530, Note_on_c, 0, 61, 0
2, 203570, Note_on_c, 0, 88, 0
2, 203630, Note_on_c, 0, 60, 50
2, 203632, Note_on_c, 0, 57, 64
2, 203635, Note_on_c, 0, 53, 58
2, 203637, Note_on_c, 0, 64, 60
2, 203654, Note_on_c, 0, 91, 90
2, 203658, Note_on_c, 0, 79, 84
2, 203815, Note_on_c, 0, 91, 0
2, 203832, Note_on_c, 0, 90, 21
2, 203847, Note_on_c, 0, 79, 0
2, 203872, Note_on_c, 0, 90, 0
2, 203946, Note_on_c, 0, 90, 68
2, 203951, Note_on_c, 0, 78, 59
2, 204080, Note_on_c, 0, 78, 0
2, 204093, Note_on_c, 0, 90, 0
2, 204138, Note_on_c, 0, 89, 53
2, 204150, Note_on_c, 0, 77, 46
2, 204182, Note_on_c, 0, 88, 32
2, 204311, Note_on_c, 0, 89, 0
2, 204328, Note_on_c, 0, 88, 0
2, 204348, Note_on_c, 0, 77, 0
2, 204400, Note_on_c, 0, 64, 0
2, 204424, Note_on_c, 0, 88, 43
2, 204453, Note_on_c, 0, 76, 68
2, 204544, Note_on_c, 0, 88, 0
2, 204575, Note_on_c, 0, 76, 0
2, 204693, Note_on_c, 0, 64, 29
2, 204695, Note_on_c, 0, 84, 72
2, 204726, Note_on_c, 0, 72, 25
2, 204738, Note_on_c, 0, 74, 28
2, 204828, Note_on_c, 0, 74, 0
2, 204850, Note_on_c, 0, 84, 0
2, 204920, Note_on_c, 0, 72, 0
2, 204955, Note_on_c, 0, 64, 0
2, 205062, Note_on_c, 0, 64, 35
2, 205065, Note_on_c, 0, 81, 62
2, 205091, Note_on_c, 0, 69, 27
2, 205206, Note_on_c, 0, 81, 0
2, 205283, Note_on_c, 0, 69, 0
2, 205285, Note_on_c, 0, 64, 0
2, 205394, Note_on_c, 0, 60, 0
2, 205522, Note_on_c, 0, 77, 44
2, 205527, Note_on_c, 0, 64, 45
2, 205533, Note_on_c, 0, 60, 24
2, 205552, Note_on_c, 0, 65, 25
2, 205557, Note_on_c, 0, 72, 41
2, 205688, Note_on_c, 0, 72, 0
2, 206101, Note_on_c, 0, 60, 0
2, 206110, Note_on_c, 0, 77, 0
2, 206127, Note_on_c, 0, 64, 0
2, 206366, Note_on_c, 0, 65, 0
2, 206499, Note_on_c, 0, 68, 57
2, 206514, Note_on_c, 0, 60, 25
2, 206522, Note_on_c, 0, 64, 35
2, 206573, Note_on_c, 0, 69, 64
2, 206584, Note_on_c, 0, 68, 0
2, 206709, Note_on_c, 0, 69, 0
2, 206789, Note_on_c, 0, 72, 82
2, 206909, Note_on_c, 0, 72, 0
2, 206944, Note_on_c, 0, 53, 0
2, 206951, Note_on_c, 0, 64, 0
2, 206980, Note_on_c, 0, 74, 94
2, 206988, Note_on_c, 0, 57, 0
2, 206989, Note_on_c, 0, 60, 0
2, 207188, Note_on_c, 0, 74, 0
2, 207247, Note_on_c, 0, 72, 57
2, 207379, Note_on_c, 0, 72, 0
2, 207426, Note_on_c, 0, 65, 60
2, 207440, Note_on_c, 0, 76, 64
2, 207442, Note_on_c, 0, 69, 63
2, 207450, Note_on_c, 0, 72, 57
2, 207586, Note_on_c, 0, 72, 0
2, 207593, Note_on_c, 0, 65, 0
2, 207598, Note_on_c, 0, 69, 0
2, 207614, Note_on_c, 0, 76, 0
2, 207876, Note_on_c, 0, 72, 54
2, 207885, Note_on_c, 0, 65, 60
2, 207898, Note_on_c, 0, 69, 56
2, 207907, Note_on_c, 0, 64, 44
2, 207946, Note_on_c, 0, 69, 0
2, 207949, Note_on_c, 0, 64, 0
2, 208019, Note_on_c, 0, 72, 0
2, 208025, Note_on_c, 0, 65, 0
2, 208342, Note_on_c, 0, 55, 51
2, 208349, Note_on_c, 0, 69, 51
2, 208350, Note_on_c, 0, 65, 53
2, 208364, Note_on_c, 0, 60, 43
2, 208529, Note_on_c, 0, 69, 0
2, 208662, Note_on_c, 0, 65, 0
2, 208691, Note_on_c, 0, 55, 0
2, 208753, Note_on_c, 0, 60, 0
2, 208849, Note_on_c, 0, 43, 54
2, 208984, Note_on_c, 0, 43, 0
2, 209239, Note_on_c, 0, 68, 84
2, 209241, Note_on_c, 0, 63, 92
2, 209246, Note_on_c, 0, 59, 89
2, 209266, Note_on_c, 0, 53, 60
2, 210377, Note_on_c, 0, 43, 44
2, 210680, Note_on_c, 0, 63, 0
2, 210768, Note_on_c, 0, 59, 0
2, 210867, Note_on_c, 0, 63, 49
2, 211050, Note_on_c, 0, 68, 0
2, 211128, Note_on_c, 0, 53, 0
2, 211141, Note_on_c, 0, 59, 29
2, 211158, Note_on_c, 0, 50, 46
2, 211201, Note_on_c, 0, 59, 0
2, 211222, Note_on_c, 0, 63, 0
2, 211318, Note_on_c, 0, 62, 55
2, 211320, Note_on_c, 0, 67, 46
2, 211321, Note_on_c, 0, 57, 45
2, 211322, Note_on_c, 0, 50, 0
2, 211345, Note_on_c, 0, 52, 38
2, 211352, Note_on_c, 0, 43, 0
2, 211580, Note_on_c, 0, 52, 0
2, 212368, Note_on_c, 0, 57, 0
2, 212691, Note_on_c, 0, 62, 0
2, 212713, Note_on_c, 0, 59, 51
2, 212714, Note_on_c, 0, 67, 0
2, 212954, Note_on_c, 0, 60, 64
2, 212956, Note_on_c, 0, 59, 0
2, 213128, Note_on_c, 0, 60, 0
2, 213169, Note_on_c, 0, 67, 72
2, 213327, Note_on_c, 0, 67, 0
2, 213388, Note_on_c, 0, 70, 52
2, 213405, Note_on_c, 0, 71, 83
2, 213424, Note_on_c, 0, 70, 0
2, 213576, Note_on_c, 0, 71, 0
2, 213610, Note_on_c, 0, 74, 92
2, 213673, Note_on_c, 0, 72, 29
2, 213710, Note_on_c, 0, 72, 0
2, 213885, Note_on_c, 0, 71, 47
2, 213898, Note_on_c, 0, 74, 0
2, 214031, Note_on_c, 0, 71, 0
2, 214080, Note_on_c, 0, 72, 73
2, 214357, Note_on_c, 0, 69, 50
2, 214467, Note_on_c, 0, 72, 0
2, 214590, Note_on_c, 0, 65, 33
2, 214844, Note_on_c, 0, 65, 0
2, 214857, Note_on_c, 0, 64, 44
2, 215033, Note_on_c, 0, 64, 0
2, 215066, Note_on_c, 0, 65, 54
2, 215371, Note_on_c, 0, 65, 0
2, 215374, Note_on_c, 0, 64, 36
2, 215485, Note_on_c, 0, 64, 0
2, 215563, Note_on_c, 0, 65, 45
2, 215586, Note_on_c, 0, 60, 31
2, 216024, Note_on_c, 0, 64, 36
2, 216025, Note_on_c, 0, 65, 0
2, 216190, Note_on_c, 0, 69, 0
2, 216288, Note_on_c, 0, 65, 45
2, 216334, Note_on_c, 0, 64, 0
2, 216468, Note_on_c, 0, 65, 0
2, 216520, Note_on_c, 0, 69, 57
2, 216535, Note_on_c, 0, 65, 13
2, 217804, Note_on_c, 0, 60, 0
2, 218015, Note_on_c, 0, 65, 0
2, 218940, Note_on_c, 0, 64, 49
2, 218966, Note_on_c, 0, 59, 42
2, 218971, Note_on_c, 0, 60, 46
2, 219049, Note_on_c, 0, 69, 0
2, 219880, Note_on_c, 0, 83, 88
2, 219886, Note_on_c, 0, 76, 90
2, 220113, Note_on_c, 0, 83, 0
2, 220144, Note_on_c, 0, 79, 47
2, 220183, Note_on_c, 0, 76, 0
2, 220189, Note_on_c, 0, 72, 37
2, 220285, Note_on_c, 0, 72, 0
2, 220328, Note_on_c, 0, 79, 0
2, 220383, Note_on_c, 0, 83, 71
2, 220384, Note_on_c, 0, 76, 65
2, 220577, Note_on_c, 0, 83, 0
2, 220654, Note_on_c, 0, 79, 53
2, 220717, Note_on_c, 0, 76, 0
2, 220837, Note_on_c, 0, 79, 0
2, 220870, Note_on_c, 0, 76, 28
2, 221081, Note_on_c, 0, 76, 0
2, 221136, Note_on_c, 0, 72, 44
2, 221255, Note_on_c, 0, 72, 0
2, 221328, Note_on_c, 0, 71, 39
2, 221528, Note_on_c, 0, 64, 0
2, 221558, Note_on_c, 0, 60, 0
2, 221625, Note_on_c, 0, 71, 0
2, 221803, Note_on_c, 0, 64, 34
2, 221811, Note_on_c, 0, 74, 54
2, 221813, Note_on_c, 0, 60, 31
2, 222019, Note_on_c, 0, 74, 0
2, 222085, Note_on_c, 0, 71, 51
2, 222174, Note_on_c, 0, 64, 0
2, 222250, Note_on_c, 0, 71, 0
2, 222269, Note_on_c, 0, 67, 38
2, 222361, Note_on_c, 0, 60, 0
2, 222390, Note_on_c, 0, 59, 0
2, 222535, Note_on_c, 0, 67, 0
2, 222559, Note_on_c, 0, 64, 32
2, 222657, Note_on_c, 0, 64, 0
2, 222727, Note_on_c, 0, 65, 49
2, 222732, Note_on_c, 0, 72, 40
2, 222735, Note_on_c, 0, 57, 45
2, 222760, Note_on_c, 0, 48, 36
2, 223130, Note_on_c, 0, 65, 0
2, 223189, Note_on_c, 0, 72, 0
2, 223229, Note_on_c, 0, 65, 29
2, 223231, Note_on_c, 0, 60, 40
2, 223232, Note_on_c, 0, 69, 41
2, 223602, Note_on_c, 0, 65, 0
2, 223619, Note_on_c, 0, 60, 0
2, 223714, Note_on_c, 0, 65, 38
2, 223749, Note_on_c, 0, 60, 40
2, 223792, Control_c, 0, 64, 127
2, 224248, Control_c, 0, 64, 0
2, 224579, Note_on_c, 0, 57, 0
2, 225353, Note_on_c, 0, 60, 0
2, 225438, Note_on_c, 0, 65, 0
2, 225570, Note_on_c, 0, 65, 33
2, 225581, Note_on_c, 0, 60, 32
2, 225603, Note_on_c, 0, 57, 28
2, 225646, Control_c, 0, 64, 127
2, 225973, Note_on_c, 0, 48, 0
2, 225990, Note_on_c, 0, 60, 0
2, 226062, Note_on_c, 0, 69, 0
2, 226092, Note_on_c, 0, 48, 26
2, 226101, Note_on_c, 0, 65, 0
2, 226115, Note_on_c, 0, 60, 13
2, 226186, Note_on_c, 0, 60, 0
2, 226331, Note_on_c, 0, 48, 0
2, 226456, Note_on_c, 0, 57, 0
2, 226518, Control_c, 0, 64, 0
2, 226564, Note_on_c, 0, 64, 36
2, 226570, Note_on_c, 0, 59, 29
2, 226599, Note_on_c, 0, 48, 27
2, 226609, Note_on_c, 0, 55, 28
2, 227020, Control_c, 0, 64, 127
2, 227062, Note_on_c, 0, 59, 0
2, 227278, Note_on_c, 0, 48, 0
2, 227311, Note_on_c, 0, 55, 0
2, 227320, Note_on_c, 0, 64, 0
2, 228034, Note_on_c, 0, 64, 34
2, 228056, Note_on_c, 0, 60, 44
2, 228058, Note_on_c, 0, 59, 34
2, 228219, Control_c, 0, 64, 0
2, 229037, Note_on_c, 0, 75, 47
2, 229251, Note_on_c, 0, 75, 0
2, 229300, Note_on_c, 0, 76, 58
2, 229427, Note_on_c, 0, 76, 0
2, 229532, Note_on_c, 0, 79, 81
2, 229696, Note_on_c, 0, 79, 0
2, 229789, Note_on_c, 0, 83, 89
2, 229933, Note_on_c, 0, 83, 0
2, 229989, Note_on_c, 0, 86, 92
2, 230078, Note_on_c, 0, 59, 0
2, 230095, Note_on_c, 0, 64, 0
2, 230150, Note_on_c, 0, 60, 0
2, 230240, Note_on_c, 0, 86, 0
2, 230245, Note_on_c, 0, 83, 68
2, 230386, Note_on_c, 0, 83, 0
2, 230451, Note_on_c, 0, 84, 80
2, 230457, Note_on_c, 0, 64, 32
2, 230475, Note_on_c, 0, 57, 32
2, 230485, Note_on_c, 0, 60, 35
2, 230662, Note_on_c, 0, 84, 0
2, 230729, Note_on_c, 0, 81, 53
2, 230856, Note_on_c, 0, 81, 0
2, 230961, Note_on_c, 0, 74, 18
2, 231078, Note_on_c, 0, 74, 0
2, 231239, Note_on_c, 0, 60, 0
2, 231250, Note_on_c, 0, 64, 0
2, 231414, Note_on_c, 0, 76, 47
2, 231421, Note_on_c, 0, 64, 29
2, 231438, Note_on_c, 0, 60, 28
2, 231763, Control_c, 0, 64, 127
2, 231837, Note_on_c, 0, 60, 0
2, 231864, Note_on_c, 0, 57, 0
2, 231899, Note_on_c, 0, 64, 0
2, 232319, Control_c, 0, 64, 0
2, 232377, Note_on_c, 0, 61, 33
2, 232387, Note_on_c, 0, 65, 32
2, 232389, Note_on_c, 0, 76, 0
2, 232395, Note_on_c, 0, 55, 40
2, 232398, Note_on_c, 0, 60, 29
2, 232932, Note_on_c, 0, 77, 57
2, 233074, Note_on_c, 0, 55, 0
2, 233084, Note_on_c, 0, 65, 0
2, 233102, Note_on_c, 0, 61, 0
2, 233105, Note_on_c, 0, 60, 0
2, 233116, Control_c, 0, 64, 127
2, 233160, Note_on_c, 0, 78, 76
2, 233184, Note_on_c, 0, 77, 0
2, 233288, Note_on_c, 0, 78, 0
2, 233378, Note_on_c, 0, 65, 64
2, 233379, Note_on_c, 0, 61, 53
2, 233389, Note_on_c, 0, 60, 66
2, 233398, Note_on_c, 0, 84, 87
2, 233400, Note_on_c, 0, 55, 60
2, 233565, Note_on_c, 0, 84, 0
2, 233646, Note_on_c, 0, 89, 79
2, 233776, Note_on_c, 0, 60, 0
2, 233791, Note_on_c, 0, 65, 0
2, 233806, Note_on_c, 0, 89, 0
2, 233835, Note_on_c, 0, 55, 0
2, 233848, Note_on_c, 0, 61, 0
2, 233854, Note_on_c, 0, 93, 87
2, 234078, Note_on_c, 0, 93, 0
2, 234091, Note_on_c, 0, 96, 77
2, 234249, Control_c, 0, 64, 0
2, 234261, Note_on_c, 0, 96, 0
2, 234306, Note_on_c, 0, 92, 67
2, 234317, Note_on_c, 0, 64, 45
2, 234323, Note_on_c, 0, 60, 41
2, 234333, Note_on_c, 0, 54, 40
2, 234525, Note_on_c, 0, 92, 0
2, 234577, Note_on_c, 0, 93, 60
2, 234761, Note_on_c, 0, 93, 0
2, 234782, Note_on_c, 0, 89, 53
2, 234986, Note_on_c, 0, 89, 0
2, 235038, Note_on_c, 0, 86, 51
2, 235163, Note_on_c, 0, 86, 0
2, 235246, Note_on_c, 0, 89, 58
2, 235263, Control_c, 0, 64, 127
2, 235368, Note_on_c, 0, 89, 0
2, 235461, Note_on_c, 0, 64, 0
2, 235474, Note_on_c, 0, 60, 0
2, 235522, Note_on_c, 0, 54, 0
2, 235666, Control_c, 0, 64, 0
2, 235714, Note_on_c, 0, 54, 71
2, 235715, Note_on_c, 0, 65, 71
2, 235718, Note_on_c, 0, 60, 69
2, 235737, Note_on_c, 0, 84, 58
2, 235738, Note_on_c, 0, 76, 63
2, 235806, Note_on_c, 0, 84, 0
2, 235812, Note_on_c, 0, 76, 0
2, 235910, Note_on_c, 0, 60, 0
2, 235913, Note_on_c, 0, 65, 0
2, 235914, Note_on_c, 0, 54, 0
2, 236195, Note_on_c, 0, 82, 86
2, 236200, Note_on_c, 0, 77, 87
2, 236201, Note_on_c, 0, 86, 84
2, 236214, Note_on_c, 0, 54, 84
2, 236218, Note_on_c, 0, 65, 82
2, 236220, Note_on_c, 0, 60, 77
2, 236449, Note_on_c, 0, 77, 0
2, 236472, Note_on_c, 0, 82, 0
2, 236474, Note_on_c, 0, 86, 0
2, 236493, Note_on_c, 0, 54, 0
2, 236496, Note_on_c, 0, 65, 0
2, 236503, Note_on_c, 0, 60, 0
2, 236692, Note_on_c, 0, 82, 84
2, 236693, Note_on_c, 0, 54, 81
2, 236694, Note_on_c, 0, 65, 77
2, 236703, Note_on_c, 0, 60, 72
2, 236705, Note_on_c, 0, 77, 73
2, 236706, Note_on_c, 0, 86, 80
2, 237129, Control_c, 0, 64, 127
2, 237409, Note_on_c, 0, 65, 0
2, 237435, Note_on_c, 0, 54, 0
2, 237440, Note_on_c, 0, 86, 0
2, 237486, Note_on_c, 0, 60, 0
2, 237539, Note_on_c, 0, 77, 0
2, 237550, Note_on_c, 0, 82, 0
2, 237629, Note_on_c, 0, 54, 35
2, 237659, Note_on_c, 0, 60, 47
2, 237668, Note_on_c, 0, 65, 32
2, 237791, Note_on_c, 0, 54, 0
2, 237802, Note_on_c, 0, 60, 0
2, 237831, Note_on_c, 0, 65, 0
2, 237979, Control_c, 0, 64, 0
2, 238115, Note_on_c, 0, 72, 59
2, 238115, Note_on_c, 0, 79, 53
2, 238124, Note_on_c, 0, 77, 52
2, 238126, Note_on_c, 0, 69, 59
2, 238127, Note_on_c, 0, 65, 55
2, 238129, Note_on_c, 0, 55, 58
2, 238209, Control_c, 0, 64, 127
2, 238390, Note_on_c, 0, 79, 0
2, 238400, Note_on_c, 0, 65, 0
2, 238428, Note_on_c, 0, 77, 0
2, 238462, Note_on_c, 0, 72, 0
2, 238469, Note_on_c, 0, 69, 0
2, 238536, Note_on_c, 0, 55, 0
2, 239114, Control_c, 0, 64, 0
2, 239133, Note_on_c, 0, 67, 50
2, 239141, Note_on_c, 0, 62, 47
2, 239145, Note_on_c, 0, 59, 44
2, 239162, Note_on_c, 0, 53, 31
2, 239165, Note_on_c, 0, 43, 37
2, 239539, Control_c, 0, 64, 127
2, 239763, Note_on_c, 0, 53, 0
2, 239874, Note_on_c, 0, 62, 0
2, 239880, Note_on_c, 0, 59, 0
2, 240064, Note_on_c, 0, 67, 0
2, 240117, Note_on_c, 0, 59, 44
2, 240118, Note_on_c, 0, 62, 44
2, 240129, Note_on_c, 0, 53, 31
2, 240562, Note_on_c, 0, 43, 0
2, 240564, Note_on_c, 0, 53, 0
2, 240599, Note_on_c, 0, 62, 0
2, 240658, Note_on_c, 0, 59, 0
2, 240967, Control_c, 0, 64, 0
2, 240983, Note_on_c, 0, 56, 80
2, 241017, Note_on_c, 0, 44, 42
2, 241024, Note_on_c, 0, 53, 34
2, 241189, Note_on_c, 0, 56, 0
2, 241249, Note_on_c, 0, 59, 74
2, 241382, Note_on_c, 0, 59, 0
2, 241463, Note_on_c, 0, 62, 101
2, 241680, Note_on_c, 0, 62, 0
2, 241734, Note_on_c, 0, 65, 82
2, 241796, Note_on_c, 0, 44, 0
2, 241877, Note_on_c, 0, 65, 0
2, 241896, Note_on_c, 0, 53, 0
2, 241946, Note_on_c, 0, 45, 46
2, 241962, Note_on_c, 0, 63, 62
2, 242430, Note_on_c, 0, 55, 49
2, 242585, Note_on_c, 0, 55, 0
2, 242683, Note_on_c, 0, 63, 0
2, 242737, Note_on_c, 0, 60, 37
2, 242850, Note_on_c, 0, 60, 0
2, 242915, Note_on_c, 0, 55, 34
2, 242933, Note_on_c, 0, 63, 59
2, 243012, Note_on_c, 0, 45, 0
2, 243134, Note_on_c, 0, 55, 0
2, 243434, Note_on_c, 0, 60, 37
2, 243445, Note_on_c, 0, 63, 0
2, 243645, Note_on_c, 0, 60, 0
2, 243720, Note_on_c, 0, 63, 49
2, 243894, Note_on_c, 0, 54, 34
2, 243900, Note_on_c, 0, 63, 0
2, 243905, Note_on_c, 0, 60, 24
2, 243912, Note_on_c, 0, 50, 35
2, 243918, Note_on_c, 0, 62, 48
2, 244014, Note_on_c, 0, 50, 0
2, 244024, Note_on_c, 0, 60, 0
2, 244068, Note_on_c, 0, 54, 0
2, 244210, Note_on_c, 0, 62, 0
2, 244377, Note_on_c, 0, 63, 48
2, 244675, Note_on_c, 0, 63, 0
2, 244857, Note_on_c, 0, 66, 64
2, 244867, Note_on_c, 0, 54, 37
2, 244869, Note_on_c, 0, 60, 27
2, 244927, Note_on_c, 0, 60, 0
2, 245047, Note_on_c, 0, 54, 0
2, 245085, Note_on_c, 0, 66, 0
2, 245174, Note_on_c, 0, 62, 18
2, 245258, Note_on_c, 0, 62, 0
2, 245342, Note_on_c, 0, 63, 33
2, 245582, Note_on_c, 0, 63, 0
2, 245635, Note_on_c, 0, 66, 70
2, 245672, Note_on_c, 0, 43, 58
2, 245762, Note_on_c, 0, 66, 0
2, 245765, Note_on_c, 0, 43, 0
2, 245884, Note_on_c, 0, 69, 44
2, 246060, Note_on_c, 0, 69, 0
2, 246112, Note_on_c, 0, 70, 59
2, 246192, Note_on_c, 0, 70, 0
2, 246293, Note_on_c, 0, 74, 64
2, 246476, Note_on_c, 0, 74, 0
2, 246572, Note_on_c, 0, 77, 62
2, 246682, Note_on_c, 0, 77, 0
2, 246758, Note_on_c, 0, 62, 39
2, 246765, Note_on_c, 0, 58, 48
2, 246766, Note_on_c, 0, 57, 33
2, 246769, Note_on_c, 0, 84, 91
2, 247016, Note_on_c, 0, 84, 0
2, 247070, Note_on_c, 0, 81, 34
2, 247154, Note_on_c, 0, 81, 0
2, 247229, Note_on_c, 0, 82, 73
2, 247239, Note_on_c, 0, 62, 0
2, 247447, Note_on_c, 0, 57, 0
2, 247502, Note_on_c, 0, 82, 0
2, 247540, Note_on_c, 0, 78, 33
2, 247655, Note_on_c, 0, 78, 0
2, 247681, Note_on_c, 0, 62, 33
2, 247688, Note_on_c, 0, 55, 32
2, 247704, Note_on_c, 0, 81, 53
2, 247993, Note_on_c, 0, 81, 0
2, 247997, Note_on_c, 0, 78, 30
2, 248057, Note_on_c, 0, 62, 0
2, 248101, Note_on_c, 0, 78, 0
2, 248161, Note_on_c, 0, 55, 0
2, 248171, Note_on_c, 0, 79, 55
2, 248192, Note_on_c, 0, 58, 0
2, 248425, Note_on_c, 0, 79, 0
2, 248467, Note_on_c, 0, 74, 42
2, 248577, Note_on_c, 0, 74, 0
2, 248685, Note_on_c, 0, 74, 43
2, 248884, Note_on_c, 0, 74, 0
2, 249147, Note_on_c, 0, 74, 49
2, 249155, Note_on_c, 0, 62, 27
2, 249168, Note_on_c, 0, 58, 28
2, 249219, Note_on_c, 0, 62, 0
2, 249244, Note_on_c, 0, 58, 0
2, 249440, Note_on_c, 0, 74, 0
2, 249602, Note_on_c, 0, 63, 44
2, 249624, Note_on_c, 0, 60, 35
2, 249658, Note_on_c, 0, 57, 33
2, 249758, Note_on_c, 0, 63, 0
2, 249784, Note_on_c, 0, 60, 0
2, 249785, Note_on_c, 0, 57, 0
2, 250099, Note_on_c, 0, 84, 89
2, 250109, Note_on_c, 0, 72, 83
2, 250326, Note_on_c, 0, 72, 0
2, 250360, Note_on_c, 0, 84, 0
2, 250605, Note_on_c, 0, 63, 43
2, 250607, Note_on_c, 0, 84, 77
2, 250611, Note_on_c, 0, 57, 50
2, 250616, Note_on_c, 0, 60, 44
2, 250620, Note_on_c, 0, 72, 75
2, 250630, Note_on_c, 0, 55, 43
2, 250682, Note_on_c, 0, 83, 24
2, 250819, Note_on_c, 0, 72, 0
2, 250826, Note_on_c, 0, 84, 0
2, 250843, Note_on_c, 0, 83, 0
2, 250855, Note_on_c, 0, 63, 0
2, 250857, Note_on_c, 0, 60, 0
2, 250894, Note_on_c, 0, 57, 0
2, 250952, Note_on_c, 0, 85, 61
2, 250956, Note_on_c, 0, 73, 52
2, 251013, Note_on_c, 0, 82, 19
2, 251020, Note_on_c, 0, 79, 22
2, 251055, Note_on_c, 0, 73, 0
2, 251065, Note_on_c, 0, 74, 68
2, 251084, Note_on_c, 0, 86, 8
2, 251099, Note_on_c, 0, 55, 0
2, 251152, Note_on_c, 0, 85, 0
2, 251154, Note_on_c, 0, 79, 0
2, 251166, Note_on_c, 0, 74, 0
2, 251198, Note_on_c, 0, 86, 0
2, 251224, Note_on_c, 0, 82, 0
2, 251580, Note_on_c, 0, 54, 35
2, 251586, Note_on_c, 0, 60, 37
2, 251691, Note_on_c, 0, 60, 0
2, 251745, Note_on_c, 0, 54, 0
2, 252397, Note_on_c, 0, 64, 60
2, 252407, Note_on_c, 0, 54, 42
2, 252408, Note_on_c, 0, 60, 53
2, 252442, Note_on_c, 0, 64, 0
2, 252462, Note_on_c, 0, 60, 0
2, 252530, Note_on_c, 0, 54, 0
2, 252569, Note_on_c, 0, 81, 105
2, 252803, Note_on_c, 0, 81, 0
2, 252875, Note_on_c, 0, 84, 95
2, 253059, Note_on_c, 0, 83, 82
2, 253111, Note_on_c, 0, 84, 0
2, 253245, Note_on_c, 0, 83, 0
2, 253324, Note_on_c, 0, 78, 65
2, 253360, Note_on_c, 0, 62, 44
2, 253368, Note_on_c, 0, 59, 38
2, 253377, Note_on_c, 0, 54, 33
2, 253480, Note_on_c, 0, 78, 0
2, 253590, Note_on_c, 0, 74, 24
2, 253713, Note_on_c, 0, 74, 0
2, 253805, Note_on_c, 0, 62, 0
2, 253829, Note_on_c, 0, 71, 28
2, 253839, Note_on_c, 0, 72, 24
2, 253882, Note_on_c, 0, 72, 0
2, 253962, Note_on_c, 0, 71, 0
2, 254003, Note_on_c, 0, 66, 38
2, 254040, Note_on_c, 0, 59, 0
2, 254187, Note_on_c, 0, 66, 0
2, 254472, Note_on_c, 0, 64, 41
2, 254480, Note_on_c, 0, 66, 43
2, 254499, Note_on_c, 0, 59, 26
2, 254546, Note_on_c, 0, 62, 6
2, 254645, Note_on_c, 0, 59, 0
2, 254655, Note_on_c, 0, 62, 0
2, 254685, Note_on_c, 0, 64, 0
2, 254708, Note_on_c, 0, 54, 0
2, 254716, Note_on_c, 0, 66, 0
2, 254959, Note_on_c, 0, 64, 43
2, 254962, Note_on_c, 0, 66, 38
2, 255190, Note_on_c, 0, 64, 0
2, 255350, Note_on_c, 0, 66, 0
2, 255424, Note_on_c, 0, 54, 34
2, 255427, Note_on_c, 0, 62, 36
2, 255435, Note_on_c, 0, 65, 40
2, 255447, Note_on_c, 0, 59, 22
2, 255613, Note_on_c, 0, 65, 0
2, 255627, Note_on_c, 0, 62, 0
2, 255654, Note_on_c, 0, 59, 0
2, 255676, Note_on_c, 0, 54, 0
2, 255916, Note_on_c, 0, 65, 46
2, 255918, Note_on_c, 0, 62, 30
2, 256018, Note_on_c, 0, 62, 0
2, 256132, Note_on_c, 0, 65, 0
2, 256395, Note_on_c, 0, 59, 34
2, 256401, Note_on_c, 0, 62, 31
2, 256411, Note_on_c, 0, 54, 29
2, 256509, Note_on_c, 0, 59, 0
2, 256529, Note_on_c, 0, 54, 0
2, 256556, Note_on_c, 0, 62, 0
2, 256863, Note_on_c, 0, 83, 84
2, 256865, Note_on_c, 0, 71, 94
2, 256873, Note_on_c, 0, 81, 75
2, 256910, Note_on_c, 0, 81, 0
2, 257032, Note_on_c, 0, 71, 0
2, 257068, Note_on_c, 0, 83, 0
2, 257158, Note_on_c, 0, 84, 90
2, 257159, Note_on_c, 0, 72, 83
2, 257190, Note_on_c, 0, 80, 37
2, 257232, Note_on_c, 0, 80, 0
2, 257313, Note_on_c, 0, 67, 34
2, 257321, Note_on_c, 0, 63, 33
2, 257328, Note_on_c, 0, 84, 0
2, 257331, Note_on_c, 0, 58, 33
2, 257332, Note_on_c, 0, 72, 0
2, 257362, Note_on_c, 0, 62, 31
2, 257501, Note_on_c, 0, 86, 70
2, 257504, Note_on_c, 0, 74, 63
2, 257509, Note_on_c, 0, 79, 52
2, 257511, Note_on_c, 0, 82, 43
2, 257695, Note_on_c, 0, 74, 0
2, 257709, Note_on_c, 0, 86, 0
2, 257714, Note_on_c, 0, 79, 0
2, 257727, Note_on_c, 0, 67, 0
2, 257754, Note_on_c, 0, 62, 0
2, 257758, Note_on_c, 0, 63, 0
2, 257759, Note_on_c, 0, 82, 0
2, 257832, Note_on_c, 0, 84, 57
2, 257836, Note_on_c, 0, 67, 43
2, 257839, Note_on_c, 0, 72, 54
2, 257857, Note_on_c, 0, 63, 21
2, 257862, Note_on_c, 0, 62, 22
2, 257972, Note_on_c, 0, 72, 0
2, 257982, Note_on_c, 0, 84, 0
2, 258018, Note_on_c, 0, 67, 0
2, 258029, Note_on_c, 0, 62, 0
2, 258041, Note_on_c, 0, 58, 0
2, 258055, Note_on_c, 0, 63, 0
2, 258124, Note_on_c, 0, 86, 70
2, 258127, Note_on_c, 0, 74, 64
2, 258134, Note_on_c, 0, 67, 36
2, 258148, Note_on_c, 0, 82, 31
2, 258149, Note_on_c, 0, 63, 31
2, 258152, Note_on_c, 0, 58, 33
2, 258154, Note_on_c, 0, 79, 48
2, 258160, Note_on_c, 0, 62, 44
2, 258243, Note_on_c, 0, 86, 0
2, 258255, Note_on_c, 0, 74, 0
2, 258267, Note_on_c, 0, 67, 0
2, 258277, Note_on_c, 0, 58, 0
2, 258285, Note_on_c, 0, 62, 0
2, 258300, Note_on_c, 0, 79, 0
2, 258307, Note_on_c, 0, 63, 0
2, 258321, Note_on_c, 0, 82, 0
2, 258326, Control_c, 0, 64, 127
2, 258362, Note_on_c, 0, 84, 42
2, 258376, Note_on_c, 0, 67, 31
2, 258393, Note_on_c, 0, 72, 36
2, 258397, Note_on_c, 0, 58, 20
2, 258399, Note_on_c, 0, 63, 23
2, 258403, Note_on_c, 0, 62, 32
2, 258407, Note_on_c, 0, 79, 29
2, 258554, Note_on_c, 0, 84, 0
2, 258587, Note_on_c, 0, 72, 0
2, 258602, Note_on_c, 0, 58, 0
2, 258620, Note_on_c, 0, 79, 0
2, 258621, Note_on_c, 0, 67, 0
2, 258623, Note_on_c, 0, 62, 0
2, 258628, Note_on_c, 0, 63, 0
2, 258778, Note_on_c, 0, 86, 70
2, 258782, Note_on_c, 0, 79, 63
2, 258784, Note_on_c, 0, 82, 56
2, 258785, Note_on_c, 0, 67, 60
2, 258786, Note_on_c, 0, 74, 73
2, 258788, Control_c, 0, 64, 0
2, 258791, Note_on_c, 0, 63, 50
2, 258800, Note_on_c, 0, 58, 49
2, 258801, Note_on_c, 0, 62, 51
2, 258940, Control_c, 0, 64, 127
2, 258948, Note_on_c, 0, 74, 0
2, 258963, Note_on_c, 0, 58, 0
2, 258968, Note_on_c, 0, 86, 0
2, 259039, Note_on_c, 0, 62, 0
2, 259070, Note_on_c, 0, 79, 0
2, 259073, Note_on_c, 0, 82, 0
2, 259074, Note_on_c, 0, 67, 0
2, 259098, Note_on_c, 0, 63, 0
2, 259170, Control_c, 0, 64, 0
2, 259250, Note_on_c, 0, 87, 76
2, 259256, Note_on_c, 0, 82, 67
2, 259257, Note_on_c, 0, 75, 72
2, 259258, Note_on_c, 0, 79, 68
2, 259260, Note_on_c, 0, 63, 67
2, 259261, Note_on_c, 0, 62, 72
2, 259262, Note_on_c, 0, 67, 75
2, 259265, Note_on_c, 0, 58, 72
2, 259396, Control_c, 0, 64, 127
2, 259601, Note_on_c, 0, 75, 0
2, 259608, Note_on_c, 0, 79, 0
2, 259620, Note_on_c, 0, 58, 0
2, 259634, Note_on_c, 0, 67, 0
2, 259637, Note_on_c, 0, 87, 0
2, 259667, Note_on_c, 0, 62, 0
2, 259690, Note_on_c, 0, 63, 0
2, 259697, Note_on_c, 0, 82, 0
2, 259757, Note_on_c, 0, 87, 69
2, 259762, Note_on_c, 0, 67, 66
2, 259764, Note_on_c, 0, 75, 65
2, 259764, Note_on_c, 0, 63, 60
2, 259765, Note_on_c, 0, 58, 67
2, 259775, Note_on_c, 0, 82, 59
2, 259776, Note_on_c, 0, 62, 67
2, 259778, Note_on_c, 0, 79, 62
2, 260000, Note_on_c, 0, 79, 0
2, 260024, Note_on_c, 0, 75, 0
2, 260035, Note_on_c, 0, 58, 0
2, 260036, Note_on_c, 0, 87, 0
2, 260057, Note_on_c, 0, 62, 0
2, 260081, Note_on_c, 0, 82, 0
2, 260087, Note_on_c, 0, 67, 0
2, 260099, Note_on_c, 0, 63, 0
2, 260183, Control_c, 0, 64, 0
2, 260249, Note_on_c, 0, 86, 79
2, 260250, Note_on_c, 0, 82, 72
2, 260254, Note_on_c, 0, 67, 80
2, 260255, Note_on_c, 0, 63, 72
2, 260256, Note_on_c, 0, 79, 74
2, 260257, Note_on_c, 0, 74, 76
2, 260261, Note_on_c, 0, 62, 75
2, 260267, Note_on_c, 0, 58, 67
2, 260444, Control_c, 0, 64, 127
2, 260591, Note_on_c, 0, 74, 0
2, 260607, Note_on_c, 0, 79, 0
2, 260618, Note_on_c, 0, 58, 0
2, 260627, Note_on_c, 0, 86, 0
2, 260629, Note_on_c, 0, 67, 0
2, 260645, Note_on_c, 0, 82, 0
2, 260657, Note_on_c, 0, 62, 0
2, 260678, Note_on_c, 0, 63, 0
2, 261230, Control_c, 0, 64, 0
2, 261636, Note_on_c, 0, 67, 80
2, 261637, Note_on_c, 0, 63, 68
2, 261639, Note_on_c, 0, 84, 91
2, 261640, Note_on_c, 0, 79, 81
2, 261641, Note_on_c, 0, 62, 74
2, 261642, Note_on_c, 0, 58, 79
2, 261643, Note_on_c, 0, 72, 85
2, 261644, Note_on_c, 0, 82, 63
2, 261655, Note_on_c, 0, 74, 75
2, 261688, Note_on_c, 0, 74, 0
2, 261690, Note_on_c, 0, 82, 0
2, 261811, Note_on_c, 0, 72, 0
2, 261819, Note_on_c, 0, 84, 0
2, 261834, Note_on_c, 0, 67, 0
2, 261840, Note_on_c, 0, 58, 0
2, 261845, Note_on_c, 0, 79, 0
2, 261856, Note_on_c, 0, 62, 0
2, 261872, Note_on_c, 0, 63, 0
2, 262115, Note_on_c, 0, 67, 82
2, 262117, Note_on_c, 0, 79, 83
2, 262119, Note_on_c, 0, 84, 88
2, 262121, Note_on_c, 0, 63, 64
2, 262122, Note_on_c, 0, 62, 74
2, 262123, Note_on_c, 0, 58, 76
2, 262123, Note_on_c, 0, 72, 87
2, 262266, Control_c, 0, 64, 127
2, 262412, Note_on_c, 0, 72, 0
2, 262430, Note_on_c, 0, 84, 0
2, 262445, Note_on_c, 0, 58, 0
2, 262448, Note_on_c, 0, 79, 0
2, 262462, Note_on_c, 0, 67, 0
2, 262467, Note_on_c, 0, 62, 0
2, 262503, Note_on_c, 0, 63, 0
2, 262570, Note_on_c, 0, 86, 78
2, 262574, Note_on_c, 0, 79, 72
2, 262575, Note_on_c, 0, 62, 66
2, 262576, Note_on_c, 0, 67, 68
2, 262578, Note_on_c, 0, 74, 77
2, 262586, Note_on_c, 0, 63, 61
2, 262587, Note_on_c, 0, 58, 69
2, 262613, Note_on_c, 0, 82, 28
2, 262659, Note_on_c, 0, 82, 0
2, 262777, Note_on_c, 0, 74, 0
2, 262792, Note_on_c, 0, 86, 0
2, 262821, Note_on_c, 0, 58, 0
2, 262833, Note_on_c, 0, 62, 0
2, 262857, Note_on_c, 0, 67, 0
2, 262875, Note_on_c, 0, 63, 0
2, 262876, Note_on_c, 0, 79, 0
2, 262969, Control_c, 0, 64, 0
2, 263028, Note_on_c, 0, 87, 72
2, 263029, Note_on_c, 0, 75, 72
2, 263030, Note_on_c, 0, 79, 71
2, 263031, Note_on_c, 0, 67, 79
2, 263040, Note_on_c, 0, 62, 73
2, 263041, Note_on_c, 0, 63, 62
2, 263042, Note_on_c, 0, 58, 69
2, 263055, Note_on_c, 0, 82, 33
2, 263107, Note_on_c, 0, 82, 0
2, 263158, Note_on_c, 0, 75, 0
2, 263161, Note_on_c, 0, 79, 0
2, 263173, Note_on_c, 0, 87, 0
2, 263177, Note_on_c, 0, 58, 0
2, 263180, Note_on_c, 0, 67, 0
2, 263188, Note_on_c, 0, 62, 0
2, 263199, Note_on_c, 0, 63, 0
2, 263500, Note_on_c, 0, 67, 78
2, 263501, Note_on_c, 0, 63, 67
2, 263504, Note_on_c, 0, 87, 82
2, 263505, Note_on_c, 0, 75, 83
2, 263506, Note_on_c, 0, 62, 71
2, 263508, Note_on_c, 0, 58, 70
2, 263515, Note_on_c, 0, 79, 75
2, 263518, Note_on_c, 0, 80, 29
2, 263563, Note_on_c, 0, 80, 0
2, 263820, Note_on_c, 0, 79, 0
2, 263821, Note_on_c, 0, 75, 0
2, 263832, Note_on_c, 0, 58, 0
2, 263834, Note_on_c, 0, 62, 0
2, 263838, Note_on_c, 0, 67, 0
2, 263867, Note_on_c, 0, 87, 0
2, 263904, Note_on_c, 0, 63, 0
2, 263974, Control_c, 0, 64, 127
2, 263990, Note_on_c, 0, 86, 74
2, 263993, Note_on_c, 0, 79, 65
2, 263995, Note_on_c, 0, 74, 66
2, 263996, Note_on_c, 0, 67, 69
2, 264000, Note_on_c, 0, 63, 60
2, 264001, Note_on_c, 0, 58, 62
2, 264006, Note_on_c, 0, 62, 63
2, 264018, Note_on_c, 0, 82, 43
2, 264287, Note_on_c, 0, 62, 0
2, 264362, Note_on_c, 0, 67, 0
2, 264441, Note_on_c, 0, 63, 0
2, 264473, Note_on_c, 0, 79, 0
2, 264485, Note_on_c, 0, 86, 0
2, 264496, Note_on_c, 0, 58, 0
2, 264595, Note_on_c, 0, 82, 0
2, 264645, Note_on_c, 0, 74, 0
2, 264965, Note_on_c, 0, 63, 57
2, 264972, Note_on_c, 0, 77, 77
2, 264973, Note_on_c, 0, 84, 81
2, 264977, Note_on_c, 0, 72, 75
2, 264981, Control_c, 0, 64, 0
2, 264982, Note_on_c, 0, 60, 45
2, 264984, Note_on_c, 0, 55, 54
2, 264992, Note_on_c, 0, 57, 53
2, 265209, Control_c, 0, 64, 127
2, 265625, Note_on_c, 0, 57, 0
2, 265686, Note_on_c, 0, 63, 0
2, 265701, Note_on_c, 0, 60, 0
2, 265968, Note_on_c, 0, 63, 29
2, 265998, Note_on_c, 0, 57, 30
2, 266002, Note_on_c, 0, 60, 44
2, 266036, Note_on_c, 0, 72, 0
2, 266086, Note_on_c, 0, 77, 0
2, 266234, Note_on_c, 0, 84, 0
2, 266403, Note_on_c, 0, 60, 0
2, 266437, Note_on_c, 0, 57, 0
2, 266443, Note_on_c, 0, 63, 0
2, 266488, Note_on_c, 0, 55, 0
2, 266766, Note_on_c, 0, 86, 51
2, 266770, Note_on_c, 0, 74, 49
2, 266828, Note_on_c, 0, 74, 0
2, 266840, Note_on_c, 0, 86, 0
2, 266889, Control_c, 0, 64, 0
2, 266958, Note_on_c, 0, 58, 37
2, 266960, Note_on_c, 0, 65, 44
2, 266974, Note_on_c, 0, 75, 49
2, 266975, Note_on_c, 0, 54, 42
2, 266976, Note_on_c, 0, 87, 60
2, 266996, Note_on_c, 0, 60, 43
2, 267214, Note_on_c, 0, 87, 0
2, 267217, Note_on_c, 0, 75, 0
2, 267290, Note_on_c, 0, 77, 44
2, 267292, Note_on_c, 0, 89, 43
2, 267368, Note_on_c, 0, 77, 0
2, 267386, Note_on_c, 0, 89, 0
2, 267548, Note_on_c, 0, 58, 0
2, 267557, Note_on_c, 0, 60, 0
2, 267581, Note_on_c, 0, 65, 0
2, 267936, Note_on_c, 0, 65, 33
2, 267947, Note_on_c, 0, 58, 32
2, 267958, Note_on_c, 0, 89, 54
2, 267969, Note_on_c, 0, 77, 36
2, 267973, Control_c, 0, 64, 127
2, 267976, Note_on_c, 0, 60, 36
2, 268307, Note_on_c, 0, 89, 0
2, 268355, Note_on_c, 0, 60, 0
2, 268377, Note_on_c, 0, 54, 0
2, 268381, Note_on_c, 0, 77, 0
2, 268416, Note_on_c, 0, 58, 0
2, 268462, Note_on_c, 0, 65, 0
2, 268846, Control_c, 0, 64, 0
2, 268908, Note_on_c, 0, 55, 36
2, 268922, Note_on_c, 0, 65, 36
2, 268931, Note_on_c, 0, 57, 42
2, 268935, Note_on_c, 0, 80, 62
2, 268938, Note_on_c, 0, 86, 59
2, 268948, Note_on_c, 0, 60, 33
2, 269081, Note_on_c, 0, 80, 0
2, 269100, Note_on_c, 0, 81, 44
2, 269298, Note_on_c, 0, 81, 0
2, 269314, Note_on_c, 0, 86, 0
2, 269406, Note_on_c, 0, 74, 41
2, 269755, Note_on_c, 0, 65, 0
2, 269787, Note_on_c, 0, 60, 0
2, 269844, Note_on_c, 0, 74, 0
2, 269878, Note_on_c, 0, 65, 32
2, 269893, Note_on_c, 0, 60, 22
2, 269903, Note_on_c, 0, 77, 52
2, 269911, Control_c, 0, 64, 127
2, 270287, Note_on_c, 0, 65, 0
2, 270352, Note_on_c, 0, 60, 0
2, 270376, Note_on_c, 0, 79, 68
2, 270381, Note_on_c, 0, 57, 0
2, 270399, Note_on_c, 0, 55, 0
2, 270427, Note_on_c, 0, 77, 0
2, 270614, Note_on_c, 0, 79, 0
2, 270795, Control_c, 0, 64, 0
2, 270839, Note_on_c, 0, 80, 57
2, 270848, Note_on_c, 0, 71, 57
2, 270852, Note_on_c, 0, 59, 38
2, 270855, Note_on_c, 0, 53, 33
2, 270856, Note_on_c, 0, 75, 51
2, 271221, Control_c, 0, 64, 127
2, 271232, Note_on_c, 0, 71, 0
2, 271246, Note_on_c, 0, 80, 0
2, 271284, Note_on_c, 0, 75, 0
2, 271314, Note_on_c, 0, 82, 75
2, 271318, Note_on_c, 0, 53, 0
2, 271335, Note_on_c, 0, 75, 36
2, 271367, Note_on_c, 0, 59, 0
2, 271471, Note_on_c, 0, 75, 0
2, 271516, Note_on_c, 0, 82, 0
2, 271734, Control_c, 0, 64, 0
2, 271801, Note_on_c, 0, 63, 42
2, 271802, Note_on_c, 0, 79, 52
2, 271805, Note_on_c, 0, 71, 50
2, 271810, Note_on_c, 0, 75, 37
2, 271815, Note_on_c, 0, 56, 38
2, 271940, Control_c, 0, 64, 127
2, 272070, Note_on_c, 0, 63, 0
2, 272072, Note_on_c, 0, 56, 0
2, 272152, Note_on_c, 0, 79, 0
2, 272235, Note_on_c, 0, 75, 0
2, 272342, Note_on_c, 0, 71, 0
2, 272482, Note_on_c, 0, 77, 49
2, 272644, Note_on_c, 0, 77, 0
2, 272705, Control_c, 0, 64, 0
2, 272740, Note_on_c, 0, 76, 44
2, 273118, Control_c, 0, 64, 127
2, 273161, Note_on_c, 0, 60, 44
2, 273224, Note_on_c, 0, 60, 0
2, 273559, Note_on_c, 0, 76, 0
2, 273668, Note_on_c, 0, 55, 18
2, 273992, Note_on_c, 0, 55, 0
2, 274158, Note_on_c, 0, 48, 20
2, 274623, Control_c, 0, 64, 0
2, 274648, Note_on_c, 0, 55, 33
2, 274666, Control_c, 0, 64, 127
2, 275228, Note_on_c, 0, 55, 0
2, 275561, Control_c, 0, 64, 0
2, 275618, Note_on_c, 0, 66, 62
2, 275628, Note_on_c, 0, 55, 31
2, 275769, Control_c, 0, 64, 127
2, 275806, Note_on_c, 0, 66, 0
2, 275888, Note_on_c, 0, 67, 50
2, 276018, Note_on_c, 0, 67, 0
2, 276103, Note_on_c, 0, 72, 63
2, 276199, Note_on_c, 0, 72, 0
2, 276258, Note_on_c, 0, 48, 0
2, 276362, Note_on_c, 0, 77, 91
2, 276531, Control_c, 0, 64, 0
2, 276532, Note_on_c, 0, 77, 0
2, 276567, Note_on_c, 0, 55, 0
2, 276601, Note_on_c, 0, 77, 64
2, 276611, Note_on_c, 0, 57, 28
2, 276614, Note_on_c, 0, 48, 32
2, 276630, Note_on_c, 0, 76, 65
2, 276976, Note_on_c, 0, 77, 0
2, 277036, Note_on_c, 0, 76, 0
2, 277045, Note_on_c, 0, 72, 54
2, 277092, Note_on_c, 0, 77, 18
2, 277453, Note_on_c, 0, 72, 0
2, 277467, Note_on_c, 0, 77, 0
2, 277492, Note_on_c, 0, 65, 46
2, 277612, Control_c, 0, 64, 127
2, 277789, Note_on_c, 0, 48, 0
2, 277974, Note_on_c, 0, 65, 0
2, 277993, Note_on_c, 0, 48, 30
2, 278173, Note_on_c, 0, 57, 0
2, 278462, Control_c, 0, 64, 0
2, 278473, Note_on_c, 0, 65, 41
2, 278490, Note_on_c, 0, 60, 37
2, 278496, Note_on_c, 0, 57, 33
2, 278878, Control_c, 0, 64, 127
2, 279149, Note_on_c, 0, 60, 0
2, 279362, Note_on_c, 0, 48, 0
2, 279406, Note_on_c, 0, 65, 0
2, 279441, Note_on_c, 0, 57, 0
2, 280359, Control_c, 0, 64, 0
2, 280368, Note_on_c, 0, 67, 32
2, 280388, Note_on_c, 0, 62, 30
2, 280409, Note_on_c, 0, 64, 22
2, 280857, Note_on_c, 0, 89, 89
2, 281015, Note_on_c, 0, 89, 0
2, 281073, Note_on_c, 0, 67, 0
2, 281090, Note_on_c, 0, 64, 0
2, 281101, Note_on_c, 0, 62, 0
2, 281153, Note_on_c, 0, 88, 68
2, 281266, Note_on_c, 0, 88, 0
2, 281605, Note_on_c, 0, 84, 71
2, 281607, Note_on_c, 0, 64, 26
2, 281661, Note_on_c, 0, 60, 20
2, 281723, Note_on_c, 0, 84, 0
2, 281727, Note_on_c, 0, 64, 0
2, 281733, Note_on_c, 0, 60, 0
2, 281845, Note_on_c, 0, 79, 30
2, 282009, Note_on_c, 0, 79, 0
2, 282062, Note_on_c, 0, 86, 70
2, 282207, Note_on_c, 0, 86, 0
2, 282291, Note_on_c, 0, 84, 62
2, 282422, Note_on_c, 0, 84, 0
2, 282534, Note_on_c, 0, 83, 65
2, 282558, Note_on_c, 0, 64, 32
2, 282597, Note_on_c, 0, 60, 26
2, 282603, Note_on_c, 0, 59, 25
2, 282648, Note_on_c, 0, 83, 0
2, 282769, Note_on_c, 0, 79, 31
2, 282785, Note_on_c, 0, 59, 0
2, 282812, Note_on_c, 0, 60, 0
2, 282858, Note_on_c, 0, 64, 0
2, 282970, Note_on_c, 0, 79, 0
2, 283003, Note_on_c, 0, 76, 56
2, 283127, Note_on_c, 0, 76, 0
2, 283240, Note_on_c, 0, 71, 24
2, 283451, Note_on_c, 0, 71, 0
2, 283477, Note_on_c, 0, 74, 74
2, 283687, Note_on_c, 0, 72, 67
2, 283960, Note_on_c, 0, 69, 54
2, 284006, Note_on_c, 0, 74, 0
2, 284034, Note_on_c, 0, 72, 0
2, 284148, Note_on_c, 0, 69, 0
2, 284206, Note_on_c, 0, 65, 52
2, 284208, Note_on_c, 0, 57, 32
2, 284244, Note_on_c, 0, 48, 32
2, 284426, Note_on_c, 0, 57, 0
2, 284647, Note_on_c, 0, 65, 0
2, 284660, Note_on_c, 0, 60, 38
2, 284663, Note_on_c, 0, 57, 34
2, 284676, Note_on_c, 0, 64, 44
2, 285370, Note_on_c, 0, 64, 0
2, 285419, Note_on_c, 0, 65, 62
2, 285624, Note_on_c, 0, 65, 0
2, 285630, Note_on_c, 0, 67, 59
2, 285769, Note_on_c, 0, 67, 0
2, 285795, Note_on_c, 0, 69, 59
2, 285860, Note_on_c, 0, 69, 0
2, 285933, Note_on_c, 0, 72, 58
2, 286056, Note_on_c, 0, 74, 69
2, 286060, Note_on_c, 0, 72, 0
2, 286136, Note_on_c, 0, 74, 0
2, 286172, Control_c, 0, 64, 127
2, 286211, Note_on_c, 0, 77, 59
2, 286254, Note_on_c, 0, 60, 0
2, 286343, Note_on_c, 0, 79, 56
2, 286363, Note_on_c, 0, 77, 0
2, 286478, Note_on_c, 0, 81, 66
2, 286499, Note_on_c, 0, 79, 0
2, 286582, Note_on_c, 0, 81, 0
2, 286597, Note_on_c, 0, 84, 94
2, 286685, Control_c, 0, 64, 0
2, 286765, Note_on_c, 0, 81, 77
2, 286773, Note_on_c, 0, 60, 35
2, 287295, Control_c, 0, 64, 127
2, 287406, Note_on_c, 0, 57, 0
2, 287420, Note_on_c, 0, 60, 0
2, 287542, Note_on_c, 0, 48, 0
2, 287558, Note_on_c, 0, 79, 44
2, 287609, Note_on_c, 0, 81, 0
2, 287610, Note_on_c, 0, 84, 0
2, 287689, Note_on_c, 0, 79, 0
2, 287707, Note_on_c, 0, 77, 46
2, 287809, Note_on_c, 0, 77, 0
2, 287842, Note_on_c, 0, 83, 70
2, 287873, Control_c, 0, 64, 0
2, 287939, Note_on_c, 0, 55, 29
2, 287943, Note_on_c, 0, 48, 35
2, 287969, Note_on_c, 0, 60, 17
2, 288004, Note_on_c, 0, 79, 56
2, 288030, Note_on_c, 0, 83, 0
2, 288189, Note_on_c, 0, 83, 7
2, 288458, Note_on_c, 0, 76, 43
2, 288956, Note_on_c, 0, 71, 48
2, 288963, Control_c, 0, 64, 127
2, 289816, Note_on_c, 0, 71, 0
2, 289859, Note_on_c, 0, 55, 0
2, 289861, Note_on_c, 0, 48, 0
2, 289880, Note_on_c, 0, 60, 0
2, 289934, Note_on_c, 0, 76, 0
2, 289960, Note_on_c, 0, 71, 37
2, 290365, Note_on_c, 0, 83, 0
2, 290404, Note_on_c, 0, 71, 0
2, 290593, Note_on_c, 0, 79, 0
2, 291887, Control_c, 0, 64, 0
2, 291954, Note_on_c, 0, 64, 24
2, 291956, Note_on_c, 0, 88, 53
2, 291957, Note_on_c, 0, 76, 53
2, 291959, Note_on_c, 0, 60, 30
2, 291972, Note_on_c, 0, 55, 40
2, 291978, Note_on_c, 0, 59, 44
2, 292324, Control_c, 0, 64, 127
2, 292801, Note_on_c, 0, 76, 0
2, 292935, Note_on_c, 0, 76, 33
2, 293051, Note_on_c, 0, 88, 0
2, 293060, Note_on_c, 0, 76, 0
2, 293216, Note_on_c, 0, 83, 36
2, 293309, Note_on_c, 0, 55, 0
2, 293316, Note_on_c, 0, 83, 0
2, 293340, Note_on_c, 0, 59, 0
2, 293341, Note_on_c, 0, 60, 0
2, 293373, Note_on_c, 0, 88, 80
2, 293460, Note_on_c, 0, 64, 0
2, 293569, Note_on_c, 0, 88, 0
2, 293805, Control_c, 0, 64, 0
2, 293814, Note_on_c, 0, 60, 74
2, 293815, Note_on_c, 0, 61, 67
2, 293816, Note_on_c, 0, 65, 78
2, 293818, Note_on_c, 0, 89, 87
2, 293820, Note_on_c, 0, 77, 90
2, 293821, Note_on_c, 0, 84, 94
2, 293835, Note_on_c, 0, 55, 68
2, 293860, Note_on_c, 0, 58, 31
2, 294292, Control_c, 0, 64, 127
2, 294641, Note_on_c, 0, 61, 0
2, 294650, Note_on_c, 0, 65, 0
2, 294689, Note_on_c, 0, 77, 0
2, 294702, Note_on_c, 0, 60, 0
2, 294771, Note_on_c, 0, 84, 0
2, 294800, Note_on_c, 0, 61, 33
2, 294807, Note_on_c, 0, 77, 40
2, 294817, Note_on_c, 0, 60, 18
2, 294820, Note_on_c, 0, 65, 39
2, 294979, Note_on_c, 0, 77, 0
2, 295024, Note_on_c, 0, 89, 0
2, 295120, Note_on_c, 0, 84, 49
2, 295190, Note_on_c, 0, 65, 0
2, 295215, Note_on_c, 0, 60, 0
2, 295261, Note_on_c, 0, 61, 0
2, 295275, Note_on_c, 0, 58, 0
2, 295292, Note_on_c, 0, 89, 60
2, 295300, Note_on_c, 0, 55, 0
2, 295397, Note_on_c, 0, 84, 0
2, 295444, Note_on_c, 0, 89, 0
2, 295666, Control_c, 0, 64, 0
2, 295743, Note_on_c, 0, 64, 34
2, 295746, Note_on_c, 0, 91, 57
2, 295749, Note_on_c, 0, 57, 39
2, 295760, Note_on_c, 0, 79, 36
2, 295763, Note_on_c, 0, 55, 30
2, 295763, Note_on_c, 0, 84, 44
2, 295765, Note_on_c, 0, 88, 32
2, 295772, Note_on_c, 0, 60, 50
2, 295824, Note_on_c, 0, 79, 0
2, 295825, Note_on_c, 0, 84, 0
2, 295826, Note_on_c, 0, 60, 0
2, 295827, Note_on_c, 0, 88, 0
2, 295828, Note_on_c, 0, 55, 0
2, 295844, Note_on_c, 0, 64, 0
2, 295857, Note_on_c, 0, 91, 0
2, 295875, Note_on_c, 0, 57, 0
2, 296239, Note_on_c, 0, 64, 41
2, 296249, Note_on_c, 0, 55, 34
2, 296252, Note_on_c, 0, 91, 53
2, 296257, Note_on_c, 0, 57, 40
2, 296260, Note_on_c, 0, 79, 38
2, 296268, Note_on_c, 0, 88, 29
2, 296269, Note_on_c, 0, 60, 35
2, 296278, Note_on_c, 0, 84, 37
2, 296330, Note_on_c, 0, 60, 0
2, 296331, Note_on_c, 0, 84, 0
2, 296332, Note_on_c, 0, 88, 0
2, 296346, Note_on_c, 0, 79, 0
2, 296353, Note_on_c, 0, 55, 0
2, 296356, Note_on_c, 0, 64, 0
2, 296368, Note_on_c, 0, 91, 0
2, 296380, Note_on_c, 0, 57, 0
2, 296745, Note_on_c, 0, 60, 42
2, 296746, Note_on_c, 0, 78, 55
2, 296748, Note_on_c, 0, 90, 62
2, 296750, Note_on_c, 0, 64, 45
2, 296759, Note_on_c, 0, 54, 35
2, 296795, Control_c, 0, 64, 127
2, 297192, Note_on_c, 0, 78, 0
2, 297275, Note_on_c, 0, 90, 0
2, 297428, Note_on_c, 0, 64, 0
2, 297459, Note_on_c, 0, 60, 0
2, 297623, Control_c, 0, 64, 0
2, 297678, Note_on_c, 0, 60, 26
2, 297681, Note_on_c, 0, 89, 72
2, 297685, Note_on_c, 0, 64, 24
2, 297772, Note_on_c, 0, 89, 0
2, 297779, Note_on_c, 0, 90, 67
2, 297927, Note_on_c, 0, 90, 0
2, 297932, Note_on_c, 0, 64, 0
2, 297935, Note_on_c, 0, 88, 67
2, 298016, Note_on_c, 0, 88, 0
2, 298099, Note_on_c, 0, 87, 55
2, 298228, Note_on_c, 0, 87, 0
2, 298411, Note_on_c, 0, 60, 0
2, 298425, Note_on_c, 0, 84, 51
2, 298435, Note_on_c, 0, 83, 43
2, 298483, Note_on_c, 0, 83, 0
2, 298496, Note_on_c, 0, 84, 0
2, 298644, Note_on_c, 0, 81, 48
2, 298722, Note_on_c, 0, 60, 18
2, 298751, Note_on_c, 0, 81, 0
2, 298895, Note_on_c, 0, 78, 52
2, 298960, Note_on_c, 0, 60, 0
2, 299022, Note_on_c, 0, 78, 0
2, 299076, Note_on_c, 0, 76, 35
2, 299258, Note_on_c, 0, 76, 0
2, 299344, Note_on_c, 0, 83, 71
2, 299471, Note_on_c, 0, 83, 0
2, 299565, Note_on_c, 0, 78, 47
2, 299610, Note_on_c, 0, 54, 0
2, 299700, Note_on_c, 0, 78, 0
2, 299805, Note_on_c, 0, 74, 57
2, 299896, Note_on_c, 0, 59, 22
2, 299936, Note_on_c, 0, 74, 0
2, 300015, Note_on_c, 0, 71, 37
2, 300098, Note_on_c, 0, 59, 0
2, 300159, Note_on_c, 0, 71, 0
2, 300501, Note_on_c, 0, 62, 34
2, 300690, Note_on_c, 0, 62, 0
2, 300775, Note_on_c, 0, 64, 71
2, 300868, Note_on_c, 0, 64, 0
2, 300954, Note_on_c, 0, 66, 81
2, 301177, Note_on_c, 0, 66, 0
2, 301231, Note_on_c, 0, 69, 71
2, 301324, Note_on_c, 0, 50, 1
2, 301368, Note_on_c, 0, 69, 0
2, 301441, Note_on_c, 0, 50, 0
2, 301479, Note_on_c, 0, 66, 52
2, 301736, Note_on_c, 0, 62, 56
2, 301763, Note_on_c, 0, 50, 28
2, 301823, Note_on_c, 0, 66, 0
2, 301832, Note_on_c, 0, 50, 0
2, 301854, Note_on_c, 0, 62, 0
2, 301871, Note_on_c, 0, 55, 17
2, 301941, Control_c, 0, 64, 127
2, 302192, Note_on_c, 0, 55, 0
2, 302246, Note_on_c, 0, 50, 36
2, 302268, Control_c, 0, 64, 0
2, 302407, Note_on_c, 0, 50, 0
2, 302408, Note_on_c, 0, 59, 46
2, 302440, Note_on_c, 0, 55, 28
2, 302476, Control_c, 0, 64, 127
2, 302808, Note_on_c, 0, 55, 0
2, 302879, Note_on_c, 0, 59, 0
2, 302895, Note_on_c, 0, 50, 36
2, 303229, Control_c, 0, 64, 0
2, 303272, Note_on_c, 0, 50, 0
2, 303351, Note_on_c, 0, 52, 35
2, 303360, Note_on_c, 0, 64, 44
2, 303363, Note_on_c, 0, 57, 26
2, 303390, Note_on_c, 0, 59, 26
2, 303436, Control_c, 0, 64, 127
2, 303534, Note_on_c, 0, 57, 0
2, 303576, Note_on_c, 0, 59, 0
2, 303637, Note_on_c, 0, 52, 0
2, 303685, Note_on_c, 0, 64, 0
2, 303900, Note_on_c, 0, 64, 45
2, 304023, Note_on_c, 0, 64, 0
2, 304165, Note_on_c, 0, 65, 84
2, 304333, Note_on_c, 0, 65, 0
2, 304351, Control_c, 0, 64, 0
2, 304412, Note_on_c, 0, 67, 83
2, 304424, Note_on_c, 0, 62, 35
2, 304435, Note_on_c, 0, 56, 37
2, 304616, Note_on_c, 0, 67, 0
2, 304671, Note_on_c, 0, 68, 72
2, 304720, Note_on_c, 0, 56, 0
2, 304773, Note_on_c, 0, 62, 0
2, 304811, Note_on_c, 0, 68, 0
2, 304875, Control_c, 0, 64, 127
2, 304881, Note_on_c, 0, 70, 78
2, 305067, Note_on_c, 0, 70, 0
2, 305136, Note_on_c, 0, 71, 77
2, 305247, Control_c, 0, 64, 0
2, 305314, Note_on_c, 0, 71, 0
2, 305329, Note_on_c, 0, 67, 36
2, 305346, Note_on_c, 0, 56, 37
2, 305359, Note_on_c, 0, 73, 49
2, 305365, Note_on_c, 0, 62, 40
2, 305588, Note_on_c, 0, 73, 0
2, 305623, Note_on_c, 0, 74, 69
2, 305772, Note_on_c, 0, 74, 0
2, 305934, Note_on_c, 0, 67, 0
2, 305944, Note_on_c, 0, 62, 0
2, 306103, Note_on_c, 0, 75, 71
2, 306155, Note_on_c, 0, 67, 40
2, 306176, Note_on_c, 0, 62, 36
2, 306258, Note_on_c, 0, 75, 0
2, 306298, Note_on_c, 0, 67, 0
2, 306330, Note_on_c, 0, 76, 44
2, 306393, Note_on_c, 0, 62, 0
2, 306429, Note_on_c, 0, 76, 0
2, 306474, Note_on_c, 0, 79, 53
2, 306479, Control_c, 0, 64, 127
2, 306575, Note_on_c, 0, 79, 0
2, 306613, Note_on_c, 0, 56, 0
2, 306636, Note_on_c, 0, 83, 74
2, 306711, Note_on_c, 0, 83, 0
2, 306760, Note_on_c, 0, 86, 91
2, 306858, Control_c, 0, 64, 0
2, 306921, Note_on_c, 0, 86, 0
2, 306924, Note_on_c, 0, 83, 71
2, 307007, Note_on_c, 0, 83, 0
2, 307053, Note_on_c, 0, 84, 80
2, 307186, Note_on_c, 0, 84, 0
2, 307195, Note_on_c, 0, 80, 51
2, 307264, Note_on_c, 0, 64, 15
2, 307289, Note_on_c, 0, 60, 32
2, 307290, Note_on_c, 0, 59, 22
2, 307294, Note_on_c, 0, 57, 32
2, 307303, Note_on_c, 0, 80, 0
2, 307348, Note_on_c, 0, 83, 62
2, 307492, Note_on_c, 0, 83, 0
2, 307509, Note_on_c, 0, 80, 36
2, 307601, Note_on_c, 0, 80, 0
2, 307646, Note_on_c, 0, 81, 51
2, 307736, Note_on_c, 0, 81, 0
2, 307769, Note_on_c, 0, 76, 50
2, 307870, Note_on_c, 0, 76, 0
2, 307921, Note_on_c, 0, 74, 46
2, 308054, Note_on_c, 0, 74, 0
2, 308091, Note_on_c, 0, 72, 31
2, 308204, Note_on_c, 0, 72, 0
2, 308222, Note_on_c, 0, 71, 36
2, 308308, Note_on_c, 0, 71, 0
2, 308352, Note_on_c, 0, 74, 49
2, 308493, Note_on_c, 0, 74, 0
2, 308508, Note_on_c, 0, 71, 36
2, 308608, Note_on_c, 0, 71, 0
2, 308648, Note_on_c, 0, 72, 56
2, 308740, Note_on_c, 0, 64, 0
2, 308770, Note_on_c, 0, 72, 0
2, 308817, Note_on_c, 0, 69, 31
2, 308914, Note_on_c, 0, 69, 0
2, 308917, Note_on_c, 0, 59, 0
2, 308922, Note_on_c, 0, 60, 0
2, 309032, Note_on_c, 0, 64, 36
2, 309081, Note_on_c, 0, 64, 0
2, 309231, Note_on_c, 0, 64, 36
2, 309314, Note_on_c, 0, 64, 0
2, 309491, Note_on_c, 0, 64, 46
2, 309590, Note_on_c, 0, 64, 0
2, 309702, Note_on_c, 0, 64, 43
2, 309818, Note_on_c, 0, 64, 0
2, 309934, Note_on_c, 0, 64, 40
2, 309982, Note_on_c, 0, 60, 22
2, 310040, Note_on_c, 0, 64, 0
2, 310145, Note_on_c, 0, 64, 41
2, 310160, Note_on_c, 0, 60, 0
2, 310163, Control_c, 0, 64, 127
2, 310260, Note_on_c, 0, 57, 0
2, 310370, Note_on_c, 0, 64, 0
2, 311014, Control_c, 0, 64, 0
2, 311107, Note_on_c, 0, 58, 34
2, 311119, Note_on_c, 0, 57, 34
2, 311121, Note_on_c, 0, 62, 30
2, 311145, Note_on_c, 0, 53, 28
2, 311199, Control_c, 0, 64, 127
2, 311575, Note_on_c, 0, 62, 0
2, 311586, Note_on_c, 0, 57, 0
2, 311605, Note_on_c, 0, 58, 0
2, 311718, Note_on_c, 0, 53, 0
2, 312101, Note_on_c, 0, 62, 34
2, 312114, Note_on_c, 0, 58, 35
2, 312126, Note_on_c, 0, 57, 36
2, 312145, Note_on_c, 0, 53, 31
2, 312581, Note_on_c, 0, 57, 0
2, 312640, Note_on_c, 0, 62, 0
2, 312672, Note_on_c, 0, 53, 0
2, 312677, Note_on_c, 0, 58, 0
2, 312858, Note_on_c, 0, 88, 85
2, 312870, Note_on_c, 0, 76, 73
2, 312882, Note_on_c, 0, 77, 73
2, 312919, Note_on_c, 0, 77, 0
2, 312939, Note_on_c, 0, 76, 0
2, 312950, Note_on_c, 0, 88, 0
2, 313032, Control_c, 0, 64, 0
2, 313092, Note_on_c, 0, 61, 44
2, 313095, Note_on_c, 0, 58, 56
2, 313104, Note_on_c, 0, 64, 45
2, 313109, Note_on_c, 0, 84, 64
2, 313120, Note_on_c, 0, 72, 49
2, 313148, Note_on_c, 0, 64, 0
2, 313165, Note_on_c, 0, 72, 0
2, 313179, Note_on_c, 0, 61, 0
2, 313193, Note_on_c, 0, 84, 0
2, 313202, Note_on_c, 0, 58, 0
2, 313742, Control_c, 0, 64, 127
2, 313764, Control_c, 0, 64, 0
2, 313959, Control_c, 0, 64, 127
2, 314166, Control_c, 0, 64, 0
2, 314256, Note_on_c, 0, 61, 56
2, 314259, Note_on_c, 0, 64, 57
2, 314262, Note_on_c, 0, 88, 72
2, 314263, Note_on_c, 0, 82, 73
2, 314264, Note_on_c, 0, 76, 74
2, 314265, Note_on_c, 0, 58, 56
2, 314362, Note_on_c, 0, 82, 0
2, 314374, Note_on_c, 0, 83, 37
2, 314378, Note_on_c, 0, 64, 0
2, 314415, Note_on_c, 0, 61, 0
2, 314416, Note_on_c, 0, 88, 0
2, 314428, Note_on_c, 0, 58, 0
2, 314429, Note_on_c, 0, 76, 0
2, 314437, Note_on_c, 0, 83, 0
2, 314529, Control_c, 0, 64, 127
2, 314575, Note_on_c, 0, 82, 62
2, 314582, Note_on_c, 0, 76, 60
2, 314584, Note_on_c, 0, 88, 57
2, 314586, Note_on_c, 0, 61, 50
2, 314596, Note_on_c, 0, 58, 52
2, 314607, Note_on_c, 0, 64, 41
2, 314701, Note_on_c, 0, 82, 0
2, 314712, Note_on_c, 0, 83, 32
2, 314759, Note_on_c, 0, 76, 0
2, 314760, Note_on_c, 0, 64, 0
2, 314774, Note_on_c, 0, 83, 0
2, 314782, Note_on_c, 0, 88, 0
2, 314836, Control_c, 0, 64, 0
2, 314865, Note_on_c, 0, 61, 0
2, 314872, Note_on_c, 0, 58, 0
2, 314923, Note_on_c, 0, 89, 68
2, 314923, Note_on_c, 0, 77, 55
2, 314926, Note_on_c, 0, 84, 60
2, 314928, Note_on_c, 0, 57, 50
2, 314929, Note_on_c, 0, 64, 53
2, 314930, Note_on_c, 0, 60, 47
2, 314955, Note_on_c, 0, 53, 35
2, 315032, Control_c, 0, 64, 127
2, 315365, Note_on_c, 0, 89, 0
2, 315428, Note_on_c, 0, 84, 0
2, 315483, Note_on_c, 0, 77, 0
2, 315542, Note_on_c, 0, 64, 0
2, 315639, Note_on_c, 0, 57, 0
2, 315657, Note_on_c, 0, 60, 0
2, 315883, Control_c, 0, 64, 0
2, 315930, Note_on_c, 0, 74, 46
2, 315932, Note_on_c, 0, 84, 49
2, 315937, Note_on_c, 0, 64, 35
2, 315942, Note_on_c, 0, 57, 29
2, 315943, Note_on_c, 0, 60, 31
2, 315945, Note_on_c, 0, 79, 46
2, 316046, Control_c, 0, 64, 127
2, 316248, Note_on_c, 0, 84, 0
2, 316322, Note_on_c, 0, 79, 0
2, 316387, Note_on_c, 0, 74, 0
2, 316531, Note_on_c, 0, 64, 0
2, 316571, Note_on_c, 0, 60, 0
2, 316597, Note_on_c, 0, 57, 0
2, 316800, Note_on_c, 0, 53, 0
2, 317148, Control_c, 0, 64, 0
2, 317184, Note_on_c, 0, 72, 53
2, 317194, Note_on_c, 0, 62, 55
2, 317195, Note_on_c, 0, 57, 54
2, 317197, Note_on_c, 0, 67, 54
2, 317283, Note_on_c, 0, 62, 0
2, 317303, Note_on_c, 0, 67, 0
2, 317308, Note_on_c, 0, 72, 0
2, 317329, Note_on_c, 0, 57, 0
2, 317501, Note_on_c, 0, 71, 53
2, 317514, Note_on_c, 0, 61, 46
2, 317523, Note_on_c, 0, 66, 54
2, 317525, Note_on_c, 0, 56, 51
2, 317692, Note_on_c, 0, 61, 0
2, 317708, Note_on_c, 0, 66, 0
2, 317756, Note_on_c, 0, 71, 0
2, 317813, Note_on_c, 0, 56, 0
2, 317845, Note_on_c, 0, 72, 54
2, 317850, Note_on_c, 0, 57, 48
2, 317857, Control_c, 0, 64, 127
2, 317864, Note_on_c, 0, 62, 38
2, 317865, Note_on_c, 0, 67, 51
2, 318219, Note_on_c, 0, 57, 0
2, 318227, Note_on_c, 0, 62, 0
2, 318256, Note_on_c, 0, 72, 0
2, 318276, Note_on_c, 0, 67, 0
2, 318833, Note_on_c, 0, 60, 62
2, 318839, Note_on_c, 0, 64, 57
2, 318840, Note_on_c, 0, 52, 41
2, 318845, Note_on_c, 0, 43, 38
2, 318851, Control_c, 0, 64, 0
2, 319133, Control_c, 0, 64, 127
2, 319359, Note_on_c, 0, 55, 63
2, 319371, Note_on_c, 0, 64, 0
2, 319430, Note_on_c, 0, 55, 0
2, 319455, Note_on_c, 0, 60, 0
2, 319489, Note_on_c, 0, 52, 0
2, 319569, Note_on_c, 0, 43, 0
2, 320273, Note_on_c, 0, 76, 87
2, 320290, Note_on_c, 0, 67, 90
2, 320293, Note_on_c, 0, 60, 57
2, 320333, Note_on_c, 0, 60, 0
2, 320429, Note_on_c, 0, 76, 0
2, 320441, Note_on_c, 0, 67, 0
2, 320801, Control_c, 0, 64, 0
2, 320807, Note_on_c, 0, 66, 69
2, 320820, Note_on_c, 0, 57, 68
2, 320832, Note_on_c, 0, 52, 45
2, 320833, Note_on_c, 0, 43, 41
2, 321099, Control_c, 0, 64, 127
2, 321213, Note_on_c, 0, 52, 0
2, 321523, Note_on_c, 0, 43, 0
2, 321542, Note_on_c, 0, 57, 0
2, 321675, Note_on_c, 0, 66, 0
2, 321731, Control_c, 0, 64, 0
2, 321746, Note_on_c, 0, 67, 70
2, 321750, Note_on_c, 0, 59, 70
2, 321896, Control_c, 0, 64, 127
2, 322234, Note_on_c, 0, 48, 75
2, 322275, Note_on_c, 0, 59, 0
2, 322318, Note_on_c, 0, 67, 0
2, 322540, Note_on_c, 0, 48, 0
2, 322690, Control_c, 0, 64, 0
2, 322701, Note_on_c, 0, 48, 60
2, 322703, Note_on_c, 0, 72, 74
2, 322714, Note_on_c, 0, 65, 78
2, 322727, Note_on_c, 0, 60, 80
2, 322732, Note_on_c, 0, 57, 70
2, 322749, Note_on_c, 0, 71, 46
2, 322975, Control_c, 0, 64, 127
2, 323299, Note_on_c, 0, 57, 0
2, 323369, Note_on_c, 0, 65, 0
2, 323427, Note_on_c, 0, 60, 0
2, 323466, Note_on_c, 0, 72, 0
2, 323485, Note_on_c, 0, 71, 0
2, 323699, Note_on_c, 0, 60, 55
2, 323704, Note_on_c, 0, 65, 59
2, 323706, Control_c, 0, 64, 0
2, 323719, Note_on_c, 0, 57, 44
2, 323946, Control_c, 0, 64, 127
2, 324161, Note_on_c, 0, 65, 0
2, 324194, Note_on_c, 0, 60, 0
2, 324257, Note_on_c, 0, 57, 0
2, 324326, Note_on_c, 0, 48, 0
2, 324655, Control_c, 0, 64, 0
2, 324657, Note_on_c, 0, 65, 44
2, 324668, Note_on_c, 0, 60, 42
2, 324675, Note_on_c, 0, 57, 32
2, 324697, Note_on_c, 0, 48, 29
2, 324917, Control_c, 0, 64, 127
2, 325140, Note_on_c, 0, 57, 0
2, 325215, Note_on_c, 0, 60, 0
2, 325552, Note_on_c, 0, 60, 43
2, 325553, Note_on_c, 0, 57, 32
2, 325861, Note_on_c, 0, 48, 0
2, 326044, Note_on_c, 0, 48, 28
2, 326078, Note_on_c, 0, 57, 0
2, 326120, Note_on_c, 0, 65, 0
2, 326123, Note_on_c, 0, 48, 0
2, 326148, Note_on_c, 0, 60, 0
2, 326508, Control_c, 0, 64, 0
2, 326530, Note_on_c, 0, 55, 35
2, 326548, Note_on_c, 0, 64, 50
2, 326560, Note_on_c, 0, 59, 40
2, 326562, Note_on_c, 0, 48, 35
2, 326869, Control_c, 0, 64, 127
2, 327156, Note_on_c, 0, 59, 0
2, 327458, Note_on_c, 0, 64, 0
2, 327468, Note_on_c, 0, 60, 26
2, 327882, Note_on_c, 0, 60, 0
2, 328416, Control_c, 0, 64, 0
2, 328417, Note_on_c, 0, 55, 0
2, 328421, Note_on_c, 0, 64, 57
2, 328427, Note_on_c, 0, 60, 49
2, 328689, Control_c, 0, 64, 127
2, 328958, Note_on_c, 0, 60, 0
2, 329075, Note_on_c, 0, 64, 0
2, 329384, Note_on_c, 0, 57, 41
2, 329576, Note_on_c, 0, 57, 0
2, 329583, Note_on_c, 0, 48, 0
2, 329852, Note_on_c, 0, 67, 91
2, 330047, Note_on_c, 0, 67, 0
2, 330357, Control_c, 0, 64, 0
2, 330397, Note_on_c, 0, 72, 64
2, 330412, Note_on_c, 0, 51, 42
2, 330416, Note_on_c, 0, 67, 61
2, 330425, Note_on_c, 0, 58, 39
2, 330432, Note_on_c, 0, 62, 49
2, 330749, Control_c, 0, 64, 127
2, 331001, Note_on_c, 0, 58, 0
2, 331012, Note_on_c, 0, 62, 0
2, 331023, Note_on_c, 0, 67, 0
2, 331329, Note_on_c, 0, 72, 0
2, 331343, Note_on_c, 0, 58, 27
2, 331345, Note_on_c, 0, 67, 44
2, 331360, Note_on_c, 0, 62, 26
2, 331704, Note_on_c, 0, 58, 0
2, 331756, Note_on_c, 0, 67, 0
2, 331764, Note_on_c, 0, 62, 0
2, 331806, Note_on_c, 0, 51, 0
2, 332244, Control_c, 0, 64, 0
2, 332275, Note_on_c, 0, 72, 46
2, 332279, Note_on_c, 0, 65, 44
2, 332299, Note_on_c, 0, 60, 46
2, 332307, Note_on_c, 0, 49, 35
2, 332334, Note_on_c, 0, 56, 35
2, 332758, Control_c, 0, 64, 127
2, 332809, Note_on_c, 0, 65, 0
2, 332830, Note_on_c, 0, 56, 0
2, 332842, Note_on_c, 0, 60, 0
2, 333160, Note_on_c, 0, 72, 0
2, 333209, Note_on_c, 0, 65, 34
2, 333226, Note_on_c, 0, 60, 24
2, 333250, Note_on_c, 0, 56, 30
2, 333304, Note_on_c, 0, 60, 0
2, 333351, Note_on_c, 0, 65, 0
2, 333410, Note_on_c, 0, 49, 0
2, 333416, Note_on_c, 0, 56, 0
2, 333718, Note_on_c, 0, 79, 49
2, 334170, Note_on_c, 0, 79, 0
2, 334172, Note_on_c, 0, 71, 44
2, 334177, Control_c, 0, 64, 0
2, 334183, Note_on_c, 0, 67, 20
2, 334185, Note_on_c, 0, 62, 29
2, 334198, Note_on_c, 0, 64, 28
2, 334436, Control_c, 0, 64, 127
2, 334468, Note_on_c, 0, 67, 0
2, 334615, Note_on_c, 0, 71, 0
2, 334630, Note_on_c, 0, 72, 45
2, 335036, Control_c, 0, 64, 0
2, 335045, Note_on_c, 0, 72, 0
2, 335111, Note_on_c, 0, 67, 40
2, 335165, Note_on_c, 0, 55, 14
2, 335222, Control_c, 0, 64, 127
2, 335511, Note_on_c, 0, 67, 0
2, 335755, Note_on_c, 0, 64, 0
2, 335836, Note_on_c, 0, 79, 47
2, 335844, Note_on_c, 0, 62, 0
2, 336073, Control_c, 0, 64, 0
2, 336095, Note_on_c, 0, 71, 53
2, 336109, Note_on_c, 0, 67, 24
2, 336122, Note_on_c, 0, 64, 27
2, 336144, Note_on_c, 0, 62, 11
2, 336322, Control_c, 0, 64, 127
2, 336535, Note_on_c, 0, 71, 0
2, 336555, Note_on_c, 0, 67, 0
2, 336560, Note_on_c, 0, 72, 41
2, 336587, Note_on_c, 0, 64, 0
2, 336597, Note_on_c, 0, 79, 0
2, 336626, Note_on_c, 0, 62, 0
2, 337056, Note_on_c, 0, 67, 44
2, 337152, Note_on_c, 0, 72, 0
2, 337235, Note_on_c, 0, 64, 1
2, 337462, Note_on_c, 0, 64, 0
2, 337666, Note_on_c, 0, 67, 0
2, 337838, Note_on_c, 0, 79, 35
2, 338026, Note_on_c, 0, 65, 26
2, 338031, Note_on_c, 0, 57, 32
2, 338035, Control_c, 0, 64, 0
2, 338047, Note_on_c, 0, 72, 47
2, 338065, Note_on_c, 0, 60, 34
2, 338414, Note_on_c, 0, 79, 0
2, 338522, Note_on_c, 0, 74, 51
2, 338580, Note_on_c, 0, 72, 0
2, 338602, Control_c, 0, 64, 127
2, 338743, Note_on_c, 0, 65, 0
2, 338939, Control_c, 0, 64, 0
2, 338977, Note_on_c, 0, 65, 30
2, 338998, Note_on_c, 0, 69, 47
2, 339125, Control_c, 0, 64, 127
2, 339358, Note_on_c, 0, 55, 0
2, 339472, Note_on_c, 0, 74, 0
2, 339766, Note_on_c, 0, 69, 0
2, 339924, Note_on_c, 0, 55, 47
2, 340568, Note_on_c, 0, 65, 0
2, 340573, Note_on_c, 0, 60, 0
2, 340695, Note_on_c, 0, 89, 94
2, 340882, Note_on_c, 0, 89, 0
2, 340921, Note_on_c, 0, 88, 74
2, 340935, Control_c, 0, 64, 0
2, 340945, Note_on_c, 0, 65, 32
2, 340970, Note_on_c, 0, 60, 27
2, 341155, Note_on_c, 0, 88, 0
2, 341161, Note_on_c, 0, 84, 74
2, 341182, Note_on_c, 0, 65, 0
2, 341187, Control_c, 0, 64, 127
2, 341214, Note_on_c, 0, 60, 0
2, 341266, Note_on_c, 0, 57, 0
2, 341314, Note_on_c, 0, 84, 0
2, 341394, Note_on_c, 0, 79, 42
2, 341528, Note_on_c, 0, 79, 0
2, 341625, Note_on_c, 0, 77, 50
2, 341808, Control_c, 0, 64, 0
2, 341824, Note_on_c, 0, 77, 0
2, 341842, Note_on_c, 0, 64, 30
2, 341855, Note_on_c, 0, 67, 25
2, 341865, Note_on_c, 0, 62, 19
2, 341879, Note_on_c, 0, 76, 32
2, 342272, Note_on_c, 0, 76, 0
2, 342288, Control_c, 0, 64, 127
2, 342330, Note_on_c, 0, 77, 37
2, 342495, Note_on_c, 0, 67, 0
2, 342533, Note_on_c, 0, 64, 0
2, 342545, Note_on_c, 0, 62, 0
2, 342728, Note_on_c, 0, 77, 0
2, 342765, Note_on_c, 0, 72, 37
2, 342771, Note_on_c, 0, 64, 24
2, 342787, Note_on_c, 0, 67, 20
2, 342810, Note_on_c, 0, 62, 13
2, 343280, Note_on_c, 0, 67, 0
2, 343468, Note_on_c, 0, 64, 0
2, 343481, Note_on_c, 0, 62, 0
2, 343834, Note_on_c, 0, 64, 20
2, 343854, Note_on_c, 0, 67, 24
2, 344212, Note_on_c, 0, 64, 0
2, 344285, Note_on_c, 0, 67, 0
2, 344546, Note_on_c, 0, 72, 0
2, 344775, Note_on_c, 0, 67, 29
2, 344788, Note_on_c, 0, 64, 30
2, 345045, Note_on_c, 0, 67, 0
2, 345091, Note_on_c, 0, 64, 0
2, 345232, Note_on_c, 0, 79, 47
2, 345495, Note_on_c, 0, 79, 0
2, 345724, Control_c, 0, 64, 0
2, 345730, Note_on_c, 0, 78, 47
2, 345774, Note_on_c, 0, 57, 17
2, 345799, Note_on_c, 0, 65, 15
2, 345879, Note_on_c, 0, 60, 16
2, 345889, Note_on_c, 0, 69, 5
2, 345997, Control_c, 0, 64, 127
2, 346090, Note_on_c, 0, 55, 0
2, 346181, Note_on_c, 0, 69, 0
2, 346299, Note_on_c, 0, 55, 24
2, 346308, Note_on_c, 0, 69, 32
2, 346321, Note_on_c, 0, 78, 0
2, 346385, Note_on_c, 0, 65, 0
2, 346392, Note_on_c, 0, 69, 0
2, 346398, Note_on_c, 0, 60, 0
2, 346477, Note_on_c, 0, 57, 0
2, 346514, Note_on_c, 0, 55, 0
2, 346763, Note_on_c, 0, 66, 47
2, 346781, Note_on_c, 0, 62, 32
2, 346788, Note_on_c, 0, 55, 38
2, 347134, Note_on_c, 0, 66, 0
2, 347209, Note_on_c, 0, 62, 0
2, 347595, Note_on_c, 0, 55, 0
2, 347664, Control_c, 0, 64, 0
2, 347674, Note_on_c, 0, 57, 24
2, 347687, Note_on_c, 0, 43, 29
2, 347713, Note_on_c, 0, 62, 17
2, 347817, Control_c, 0, 64, 127
2, 347964, Note_on_c, 0, 43, 0
2, 348297, Note_on_c, 0, 57, 0
2, 348359, Note_on_c, 0, 62, 0
2, 348633, Note_on_c, 0, 57, 26
2, 348650, Note_on_c, 0, 31, 22
2, 348790, Note_on_c, 0, 31, 0
2, 349122, Note_on_c, 0, 57, 0
2, 349508, Control_c, 0, 64, 0
2, 349577, Note_on_c, 0, 24, 27
2, 349580, Note_on_c, 0, 36, 26
2, 349812, Control_c, 0, 64, 127
2, 351209, Control_c, 0, 64, 0
2, 353184, Note_on_c, 0, 24, 0
2, 353267, Note_on_c, 0, 36, 0
2, 353267, End_track
3, 0, Start_track
3, 0, Title_t, "Bass"
3, 0, Program_c, 1, 32
3, 6, Note_on_c, 1, 48, 60
3, 314, Note_on_c, 1, 50, 57
3, 337, Note_on_c, 1, 48, 0
3, 479, Note_on_c, 1, 50, 0
3, 525, Note_on_c, 1, 48, 56
3, 1548, Note_on_c, 1, 36, 41
3, 2148, Note_on_c, 1, 48, 0
3, 4305, Note_on_c, 1, 48, 59
3, 4371, Note_on_c, 1, 36, 0
3, 7437, Note_on_c, 1, 48, 0
3, 7438, Note_on_c, 1, 53, 84
3, 7677, Note_on_c, 1, 52, 48
3, 7686, Note_on_c, 1, 53, 0
3, 7842, Note_on_c, 1, 52, 0
3, 7899, Note_on_c, 1, 48, 56
3, 8055, Note_on_c, 1, 48, 0
3, 8145, Note_on_c, 1, 43, 47
3, 8332, Note_on_c, 1, 43, 0
3, 8400, Note_on_c, 1, 36, 58
3, 8931, Note_on_c, 1, 36, 0
3, 8975, Note_on_c, 1, 36, 50
3, 12052, Note_on_c, 1, 48, 49
3, 12445, Note_on_c, 1, 48, 0
3, 12577, Note_on_c, 1, 48, 40
3, 12703, Note_on_c, 1, 36, 0
3, 15028, Note_on_c, 1, 48, 0
3, 15440, Note_on_c, 1, 48, 50
3, 17479, Note_on_c, 1, 43, 35
3, 17697, Note_on_c, 1, 48, 0
3, 19217, Note_on_c, 1, 43, 0
3, 19251, Note_on_c, 1, 36, 87
3, 21141, Note_on_c, 1, 48, 97
3, 21221, Note_on_c, 1, 36, 0
3, 23065, Note_on_c, 1, 48, 0
3, 23127, Note_on_c, 1, 48, 75
3, 23622, Note_on_c, 1, 48, 0
3, 23680, Note_on_c, 1, 48, 77
3, 26421, Note_on_c, 1, 36, 65
3, 26826, Note_on_c, 1, 36, 0
3, 26921, Note_on_c, 1, 36, 83
3, 27695, Note_on_c, 1, 48, 0
3, 27903, Note_on_c, 1, 48, 80
3, 30720, Note_on_c, 1, 48, 94
3, 30872, Note_on_c, 1, 48, 0
3, 30898, Note_on_c, 1, 36, 0
3, 31181, Note_on_c, 1, 48, 0
3, 31320, Note_on_c, 1, 48, 89
3, 31729, Note_on_c, 1, 48, 0
3, 31886, Note_on_c, 1, 48, 80
3, 32351, Note_on_c, 1, 36, 64
3, 32784, Note_on_c, 1, 36, 0
3, 32846, Note_on_c, 1, 36, 66
3, 33247, Note_on_c, 1, 48, 0
3, 34576, Note_on_c, 1, 48, 115
3, 35023, Note_on_c, 1, 48, 0
3, 35077, Note_on_c, 1, 48, 85
3, 35477, Note_on_c, 1, 48, 0
3, 35542, Note_on_c, 1, 48, 81
3, 35696, Note_on_c, 1, 36, 0
3, 37959, Note_on_c, 1, 47, 79
3, 37999, Note_on_c, 1, 48, 0
3, 38407, Note_on_c, 1, 47, 0
3, 38433, Note_on_c, 1, 45, 69
3, 38870, Note_on_c, 1, 40, 66
3, 39231, Note_on_c, 1, 45, 0
3, 39308, Note_on_c, 1, 40, 0
3, 39319, Note_on_c, 1, 33, 79
3, 41346, Note_on_c, 1, 45, 97
3, 41734, Note_on_c, 1, 33, 0
3, 41849, Note_on_c, 1, 33, 85
3, 42336, Note_on_c, 1, 45, 0
3, 42346, Note_on_c, 1, 33, 0
3, 42359, Note_on_c, 1, 38, 93
3, 45626, Note_on_c, 1, 45, 87
3, 45690, Note_on_c, 1, 38, 0
3, 46123, Note_on_c, 1, 43, 73
3, 46139, Note_on_c, 1, 45, 0
3, 47166, Note_on_c, 1, 31, 74
3, 47179, Note_on_c, 1, 43, 0
3, 49055, Note_on_c, 1, 31, 0
3, 49058, Note_on_c, 1, 37, 90
3, 49995, Note_on_c, 1, 37, 0
3, 50029, Note_on_c, 1, 36, 79
3, 52016, Note_on_c, 1, 50, 85
3, 52385, Note_on_c, 1, 48, 77
3, 52434, Note_on_c, 1, 50, 0
3, 52874, Note_on_c, 1, 48, 0
3, 52959, Note_on_c, 1, 48, 57
3, 53406, Note_on_c, 1, 43, 70
3, 53612, Note_on_c, 1, 36, 0
3, 53871, Note_on_c, 1, 36, 82
3, 53891, Note_on_c, 1, 48, 0
3, 53895, Note_on_c, 1, 43, 0
3, 55757, Note_on_c, 1, 53, 105
3, 56261, Note_on_c, 1, 52, 82
3, 56318, Note_on_c, 1, 53, 0
3, 56722, Note_on_c, 1, 48, 71
3, 56758, Note_on_c, 1, 52, 0
3, 57190, Note_on_c, 1, 43, 80
3, 57193, Note_on_c, 1, 36, 0
3, 57245, Note_on_c, 1, 48, 0
3, 57245, Note_on_c, 1, 36, 82
3, 57701, Note_on_c, 1, 43, 0
3, 60960, Note_on_c, 1, 48, 85
3, 60971, Note_on_c, 1, 36, 0
3, 61417, Note_on_c, 1, 48, 0
3, 61466, Note_on_c, 1, 48, 92
3, 61945, Note_on_c, 1, 36, 76
3, 62352, Note_on_c, 1, 36, 0
3, 62434, Note_on_c, 1, 36, 77
3, 64875, Note_on_c, 1, 50, 73
3, 64892, Note_on_c, 1, 48, 0
3, 64957, Note_on_c, 1, 36, 0
3, 65110, Note_on_c, 1, 47, 57
3, 65312, Note_on_c, 1, 50, 0
3, 65347, Note_on_c, 1, 47, 0
3, 65373, Note_on_c, 1, 48, 80
3, 65873, Note_on_c, 1, 36, 83
3, 66150, Note_on_c, 1, 48, 0
3, 66275, Note_on_c, 1, 36, 0
3, 66332, Note_on_c, 1, 36, 75
3, 68154, Note_on_c, 1, 36, 0
3, 68177, Note_on_c, 1, 35, 85
3, 68185, Note_on_c, 1, 36, 65
3, 68253, Note_on_c, 1, 36, 0
3, 69116, Note_on_c, 1, 35, 0
3, 69153, Note_on_c, 1, 33, 91
3, 69185, Note_on_c, 1, 35, 38
3, 69230, Note_on_c, 1, 35, 0
3, 72117, Note_on_c, 1, 40, 72
3, 72150, Note_on_c, 1, 33, 0
3, 72525, Note_on_c, 1, 39, 89
3, 72570, Note_on_c, 1, 40, 0
3, 72972, Note_on_c, 1, 39, 0
3, 72994, Note_on_c, 1, 38, 86
3, 74928, Note_on_c, 1, 32, 88
3, 74981, Note_on_c, 1, 38, 0
3, 76277, Note_on_c, 1, 30, 73
3, 76334, Note_on_c, 1, 32, 0
3, 76401, Note_on_c, 1, 30, 0
3, 76545, Note_on_c, 1, 30, 82
3, 76813, Note_on_c, 1, 30, 0
3, 76856, Note_on_c, 1, 31, 66
3, 76859, Note_on_c, 1, 29, 78
3, 76982, Note_on_c, 1, 29, 0
3, 77830, Note_on_c, 1, 43, 97
3, 77886, Note_on_c, 1, 31, 0
3, 80064, Note_on_c, 1, 31, 73
3, 80212, Note_on_c, 1, 43, 0
3, 80217, Note_on_c, 1, 31, 0
3, 80379, Note_on_c, 1, 32, 81
3, 80651, Note_on_c, 1, 32, 0
3, 80687, Note_on_c, 1, 33, 85
3, 82419, Note_on_c, 1, 39, 81
3, 82476, Note_on_c, 1, 33, 0
3, 82534, Note_on_c, 1, 39, 0
3, 82606, Note_on_c, 1, 38, 76
3, 83614, Note_on_c, 1, 50, 97
3, 84595, Note_on_c, 1, 46, 77
3, 84610, Note_on_c, 1, 50, 0
3, 84634, Note_on_c, 1, 38, 0
3, 85347, Note_on_c, 1, 46, 0
3, 85360, Note_on_c, 1, 45, 64
3, 85510, Note_on_c, 1, 45, 0
3, 85565, Note_on_c, 1, 43, 65
3, 86301, Note_on_c, 1, 38, 58
3, 86401, Note_on_c, 1, 43, 0
3, 86449, Note_on_c, 1, 38, 0
3, 86493, Note_on_c, 1, 31, 76
3, 88367, Note_on_c, 1, 33, 94
3, 88419, Note_on_c, 1, 31, 0
3, 89315, Note_on_c, 1, 39, 93
3, 89375, Note_on_c, 1, 33, 0
3, 91218, Note_on_c, 1, 39, 0
3, 91261, Note_on_c, 1, 38, 85
3, 91752, Note_on_c, 1, 30, 77
3, 91780, Note_on_c, 1, 38, 0
3, 92212, Note_on_c, 1, 30, 0
3, 92255, Note_on_c, 1, 31, 89
3, 95039, Note_on_c, 1, 31, 0
3, 95062, Note_on_c, 1, 35, 73
3, 95988, Note_on_c, 1, 36, 93
3, 96032, Note_on_c, 1, 35, 0
3, 97978, Note_on_c, 1, 48, 98
3, 97983, Note_on_c, 1, 36, 0
3, 99471, Note_on_c, 1, 48, 0
3, 99474, Note_on_c, 1, 47, 85
3, 99899, Note_on_c, 1, 47, 0
3, 99946, Note_on_c, 1, 46, 81
3, 100427, Note_on_c, 1, 34, 71
3, 100852, Note_on_c, 1, 34, 0
3, 100898, Note_on_c, 1, 46, 0
3, 100902, Note_on_c, 1, 34, 79
3, 103248, Note_on_c, 1, 46, 79
3, 103274, Note_on_c, 1, 34, 0
3, 103468, Note_on_c, 1, 34, 71
3, 103634, Note_on_c, 1, 46, 0
3, 103697, Note_on_c, 1, 34, 0
3, 103719, Note_on_c, 1, 45, 82
3, 104224, Note_on_c, 1, 33, 86
3, 104226, Note_on_c, 1, 45, 0
3, 104653, Note_on_c, 1, 33, 0
3, 104702, Note_on_c, 1, 33, 92
3, 105642, Note_on_c, 1, 38, 89
3, 105644, Note_on_c, 1, 33, 0
3, 107542, Note_on_c, 1, 38, 0
3, 107627, Note_on_c, 1, 38, 77
3, 107680, Note_on_c, 1, 40, 28
3, 107714, Note_on_c, 1, 40, 0
3, 109037, Note_on_c, 1, 32, 88
3, 109066, Note_on_c, 1, 38, 0
3, 109570, Note_on_c, 1, 32, 0
3, 109577, Note_on_c, 1, 31, 78
3, 111071, Note_on_c, 1, 43, 78
3, 111433, Note_on_c, 1, 48, 87
3, 111584, Note_on_c, 1, 43, 0
3, 111624, Note_on_c, 1, 31, 0
3, 111965, Note_on_c, 1, 48, 0
3, 112053, Note_on_c, 1, 36, 79
3, 112489, Note_on_c, 1, 36, 0
3, 112536, Note_on_c, 1, 36, 92
3, 114807, Note_on_c, 1, 50, 89
3, 114863, Note_on_c, 1, 36, 0
3, 115049, Note_on_c, 1, 50, 0
3, 115052, Note_on_c, 1, 48, 78
3, 115318, Note_on_c, 1, 36, 84
3, 115327, Note_on_c, 1, 48, 0
3, 115777, Note_on_c, 1, 36, 0
3, 115814, Note_on_c, 1, 36, 72
3, 118099, Note_on_c, 1, 53, 97
3, 118190, Note_on_c, 1, 36, 0
3, 118573, Note_on_c, 1, 52, 76
3, 118619, Note_on_c, 1, 53, 0
3, 119034, Note_on_c, 1, 48, 75
3, 119083, Note_on_c, 1, 52, 0
3, 119499, Note_on_c, 1, 43, 70
3, 119541, Note_on_c, 1, 48, 0
3, 119959, Note_on_c, 1, 36, 78
3, 119995, Note_on_c, 1, 43, 0
3, 122864, Note_on_c, 1, 36, 0
3, 122953, Note_on_c, 1, 36, 80
3, 123454, Note_on_c, 1, 48, 76
3, 123522, Note_on_c, 1, 36, 0
3, 123894, Note_on_c, 1, 48, 0
3, 123949, Note_on_c, 1, 48, 83
3, 126456, Note_on_c, 1, 35, 44
3, 126565, Note_on_c, 1, 35, 0
3, 126640, Note_on_c, 1, 48, 0
3, 126642, Note_on_c, 1, 36, 77
3, 129599, Note_on_c, 1, 35, 83
3, 129629, Note_on_c, 1, 36, 0
3, 130559, Note_on_c, 1, 33, 78
3, 130606, Note_on_c, 1, 35, 0
3, 133573, Note_on_c, 1, 45, 91
3, 133628, Note_on_c, 1, 33, 0
3, 134029, Note_on_c, 1, 39, 83
3, 134067, Note_on_c, 1, 45, 0
3, 134492, Note_on_c, 1, 39, 0
3, 134496, Note_on_c, 1, 45, 72
3, 135491, Note_on_c, 1, 38, 86
3, 135500, Note_on_c, 1, 45, 0
3, 136439, Note_on_c, 1, 38, 0
3, 136448, Note_on_c, 1, 50, 93
3, 138299, Note_on_c, 1, 43, 82
3, 138309, Note_on_c, 1, 50, 0
3, 139727, Note_on_c, 1, 43, 0
3, 139727, Note_on_c, 1, 38, 78
3, 140238, Note_on_c, 1, 31, 79
3, 140244, Note_on_c, 1, 38, 0
3, 141494, Note_on_c, 1, 33, 73
3, 141549, Note_on_c, 1, 31, 0
3, 141822, Note_on_c, 1, 34, 85
3, 141878, Note_on_c, 1, 33, 0
3, 142100, Note_on_c, 1, 34, 0
3, 142159, Note_on_c, 1, 35, 71
3, 142628, Note_on_c, 1, 35, 0
3, 142633, Note_on_c, 1, 40, 85
3, 143051, Note_on_c, 1, 40, 0
3, 143121, Note_on_c, 1, 40, 76
3, 144100, Note_on_c, 1, 28, 92
3, 144163, Note_on_c, 1, 40, 0
3, 145976, Note_on_c, 1, 28, 0
3, 145982, Note_on_c, 1, 33, 93
3, 147275, Note_on_c, 1, 34, 57
3, 147347, Note_on_c, 1, 33, 0
3, 147489, Note_on_c, 1, 34, 0
3, 147574, Note_on_c, 1, 35, 79
3, 147916, Note_on_c, 1, 35, 0
3, 147942, Note_on_c, 1, 36, 85
3, 149255, Note_on_c, 1, 33, 68
3, 149292, Note_on_c, 1, 36, 0
3, 149429, Note_on_c, 1, 33, 0
3, 149486, Note_on_c, 1, 32, 81
3, 149720, Note_on_c, 1, 32, 0
3, 149771, Note_on_c, 1, 31, 89
3, 150732, Note_on_c, 1, 43, 93
3, 150743, Note_on_c, 1, 31, 0
3, 151696, Note_on_c, 1, 43, 0
3, 151698, Note_on_c, 1, 36, 89
3, 152733, Note_on_c, 1, 30, 84
3, 152758, Note_on_c, 1, 36, 0
3, 153677, Note_on_c, 1, 30, 0
3, 153718, Note_on_c, 1, 29, 82
3, 155624, Note_on_c, 1, 41, 85
3, 155648, Note_on_c, 1, 29, 0
3, 157036, Note_on_c, 1, 29, 68
3, 157472, Note_on_c, 1, 29, 0
3, 157485, Note_on_c, 1, 36, 90
3, 157523, Note_on_c, 1, 41, 0
3, 158444, Note_on_c, 1, 48, 103
3, 158906, Note_on_c, 1, 48, 0
3, 158960, Note_on_c, 1, 48, 82
3, 159389, Note_on_c, 1, 48, 0
3, 159457, Note_on_c, 1, 48, 78
3, 160872, Note_on_c, 1, 36, 0
3, 160901, Note_on_c, 1, 35, 62
3, 161039, Note_on_c, 1, 35, 0
3, 161120, Note_on_c, 1, 35, 52
3, 161352, Note_on_c, 1, 35, 0
3, 161376, Note_on_c, 1, 36, 86
3, 161431, Note_on_c, 1, 48, 0
3, 162862, Note_on_c, 1, 48, 92
3, 163258, Note_on_c, 1, 48, 0
3, 163318, Note_on_c, 1, 48, 82
3, 164089, Note_on_c, 1, 48, 0
3, 164164, Note_on_c, 1, 48, 70
3, 164654, Note_on_c, 1, 36, 0
3, 164694, Note_on_c, 1, 34, 60
3, 164847, Note_on_c, 1, 34, 0
3, 164909, Note_on_c, 1, 35, 69
3, 165107, Note_on_c, 1, 48, 0
3, 165122, Note_on_c, 1, 35, 0
3, 165144, Note_on_c, 1, 36, 86
3, 167006, Note_on_c, 1, 48, 84
3, 167171, Note_on_c, 1, 36, 0
3, 167947, Note_on_c, 1, 48, 0
3, 168008, Note_on_c, 1, 48, 82
3, 169015, Note_on_c, 1, 39, 87
3, 169081, Note_on_c, 1, 48, 0
3, 169948, Note_on_c, 1, 39, 0
3, 169951, Note_on_c, 1, 39, 81
3, 170938, Note_on_c, 1, 37, 84
3, 170966, Note_on_c, 1, 39, 0
3, 171869, Note_on_c, 1, 37, 0
3, 171928, Note_on_c, 1, 37, 80
3, 172852, Note_on_c, 1, 37, 0
3, 172888, Note_on_c, 1, 36, 82
3, 174769, Note_on_c, 1, 48, 86
3, 177304, Note_on_c, 1, 36, 0
3, 178126, Note_on_c, 1, 43, 79
3, 178147, Note_on_c, 1, 48, 0
3, 179088, Note_on_c, 1, 31, 72
3, 179501, Note_on_c, 1, 31, 0
3, 179571, Note_on_c, 1, 31, 66
3, 179977, Note_on_c, 1, 31, 0
3, 180039, Note_on_c, 1, 31, 70
3, 180090, Note_on_c, 1, 43, 0
3, 180513, Note_on_c, 1, 36, 79
3, 180517, Note_on_c, 1, 31, 0
3, 182124, Note_on_c, 1, 36, 0
3, 182216, Note_on_c, 1, 50, 60
3, 182283, Note_on_c, 1, 50, 0
3, 182382, Note_on_c, 1, 48, 57
3, 182851, Note_on_c, 1, 48, 0
3, 182898, Note_on_c, 1, 43, 41
3, 183367, Note_on_c, 1, 43, 0
3, 183394, Note_on_c, 1, 36, 45
3, 184196, Note_on_c, 1, 43, 57
3, 184238, Note_on_c, 1, 43, 0
3, 184308, Note_on_c, 1, 36, 0
3, 184360, Note_on_c, 1, 48, 93
3, 184717, Note_on_c, 1, 48, 0
3, 184849, Note_on_c, 1, 48, 90
3, 185629, Note_on_c, 1, 42, 48
3, 185685, Note_on_c, 1, 48, 0
3, 185749, Note_on_c, 1, 42, 0
3, 185831, Note_on_c, 1, 43, 36
3, 186235, Note_on_c, 1, 43, 0
3, 186289, Note_on_c, 1, 36, 83
3, 186693, Note_on_c, 1, 36, 0
3, 186752, Note_on_c, 1, 36, 87
3, 187510, Note_on_c, 1, 34, 61
3, 187516, Note_on_c, 1, 36, 0
3, 187615, Note_on_c, 1, 34, 0
3, 187671, Note_on_c, 1, 35, 62
3, 188129, Note_on_c, 1, 35, 0
3, 188154, Note_on_c, 1, 36, 68
3, 188939, Note_on_c, 1, 50, 103
3, 189092, Note_on_c, 1, 50, 0
3, 189136, Note_on_c, 1, 48, 97
3, 189176, Note_on_c, 1, 36, 0
3, 189594, Note_on_c, 1, 36, 93
3, 190040, Note_on_c, 1, 36, 0
3, 190087, Note_on_c, 1, 48, 0
3, 190091, Note_on_c, 1, 36, 91
3, 190530, Note_on_c, 1, 34, 29
3, 190548, Note_on_c, 1, 36, 0
3, 190587, Note_on_c, 1, 34, 0
3, 190601, Note_on_c, 1, 36, 91
3, 191814, Note_on_c, 1, 35, 57
3, 191825, Note_on_c, 1, 36, 0
3, 191968, Note_on_c, 1, 35, 0
3, 191996, Note_on_c, 1, 36, 68
3, 192301, Note_on_c, 1, 53, 83
3, 192444, Note_on_c, 1, 36, 0
3, 192457, Note_on_c, 1, 53, 0
3, 192512, Note_on_c, 1, 52, 54
3, 192915, Note_on_c, 1, 52, 0
3, 192944, Note_on_c, 1, 48, 69
3, 193420, Note_on_c, 1, 36, 87
3, 193446, Note_on_c, 1, 48, 0
3, 194854, Note_on_c, 1, 36, 0
3, 194876, Note_on_c, 1, 35, 64
3, 195413, Note_on_c, 1, 35, 0
3, 195415, Note_on_c, 1, 34, 57
3, 195667, Note_on_c, 1, 34, 0
3, 195703, Note_on_c, 1, 35, 57
3, 195880, Note_on_c, 1, 35, 0
3, 195900, Note_on_c, 1, 36, 76
3, 196751, Note_on_c, 1, 34, 31
3, 196775, Note_on_c, 1, 36, 0
3, 196861, Note_on_c, 1, 38, 83
3, 196908, Note_on_c, 1, 34, 0
3, 197666, Note_on_c, 1, 36, 58
3, 197682, Note_on_c, 1, 38, 0
3, 197803, Note_on_c, 1, 36, 0
3, 197812, Note_on_c, 1, 40, 78
3, 198175, Note_on_c, 1, 36, 60
3, 198195, Note_on_c, 1, 40, 0
3, 198714, Note_on_c, 1, 36, 0
3, 198735, Note_on_c, 1, 32, 71
3, 199202, Note_on_c, 1, 32, 0
3, 199238, Note_on_c, 1, 33, 82
3, 201150, Note_on_c, 1, 39, 64
3, 201343, Note_on_c, 1, 39, 0
3, 201443, Note_on_c, 1, 33, 0
3, 201444, Note_on_c, 1, 40, 78
3, 201599, Note_on_c, 1, 40, 0
3, 201651, Note_on_c, 1, 45, 80
3, 202054, Note_on_c, 1, 40, 34
3, 202107, Note_on_c, 1, 40, 0
3, 202107, Note_on_c, 1, 49, 74
3, 202112, Note_on_c, 1, 45, 0
3, 202571, Note_on_c, 1, 49, 0
3, 202585, Note_on_c, 1, 39, 71
3, 203043, Note_on_c, 1, 39, 0
3, 203063, Note_on_c, 1, 37, 71
3, 203516, Note_on_c, 1, 37, 0
3, 203556, Note_on_c, 1, 38, 70
3, 203850, Note_on_c, 1, 33, 58
3, 203881, Note_on_c, 1, 38, 0
3, 203942, Note_on_c, 1, 33, 0
3, 204065, Note_on_c, 1, 29, 82
3, 205007, Note_on_c, 1, 30, 80
3, 205009, Note_on_c, 1, 29, 0
3, 205986, Note_on_c, 1, 32, 87
3, 206049, Note_on_c, 1, 30, 0
3, 206944, Note_on_c, 1, 30, 74
3, 206978, Note_on_c, 1, 32, 0
3, 207406, Note_on_c, 1, 31, 82
3, 207419, Note_on_c, 1, 30, 0
3, 207897, Note_on_c, 1, 43, 97
3, 207899, Note_on_c, 1, 45, 98
3, 208411, Note_on_c, 1, 45, 0
3, 208744, Note_on_c, 1, 31, 0
3, 208903, Note_on_c, 1, 37, 85
3, 208916, Note_on_c, 1, 38, 101
3, 209088, Note_on_c, 1, 38, 0
3, 209351, Note_on_c, 1, 37, 0
3, 209403, Note_on_c, 1, 37, 96
3, 209825, Note_on_c, 1, 37, 0
3, 209881, Note_on_c, 1, 37, 89
3, 209958, Note_on_c, 1, 43, 0
3, 210767, Note_on_c, 1, 37, 0
3, 210804, Note_on_c, 1, 34, 57
3, 211023, Note_on_c, 1, 34, 0
3, 211054, Note_on_c, 1, 35, 64
3, 211252, Note_on_c, 1, 35, 0
3, 211275, Note_on_c, 1, 36, 66
3, 211541, Note_on_c, 1, 45, 64
3, 211717, Note_on_c, 1, 45, 0
3, 211750, Note_on_c, 1, 43, 57
3, 212047, Note_on_c, 1, 36, 0
3, 212215, Note_on_c, 1, 36, 68
3, 212294, Note_on_c, 1, 36, 0
3, 212680, Note_on_c, 1, 36, 84
3, 214051, Note_on_c, 1, 43, 0
3, 214590, Note_on_c, 1, 34, 58
3, 214622, Note_on_c, 1, 36, 0
3, 214777, Note_on_c, 1, 34, 0
3, 214827, Note_on_c, 1, 35, 70
3, 215040, Note_on_c, 1, 35, 0
3, 215062, Note_on_c, 1, 36, 79
3, 215583, Note_on_c, 1, 53, 94
3, 216027, Note_on_c, 1, 53, 0
3, 216045, Note_on_c, 1, 52, 66
3, 216496, Note_on_c, 1, 36, 0
3, 216536, Note_on_c, 1, 48, 70
3, 216961, Note_on_c, 1, 52, 0
3, 217008, Note_on_c, 1, 41, 59
3, 217342, Note_on_c, 1, 48, 0
3, 217411, Note_on_c, 1, 41, 0
3, 217511, Note_on_c, 1, 41, 65
3, 217999, Note_on_c, 1, 35, 74
3, 218010, Note_on_c, 1, 41, 0
3, 218495, Note_on_c, 1, 36, 96
3, 218542, Note_on_c, 1, 35, 0
3, 219953, Note_on_c, 1, 50, 105
3, 220044, Note_on_c, 1, 36, 0
3, 220218, Note_on_c, 1, 48, 58
3, 220245, Note_on_c, 1, 50, 0
3, 220408, Note_on_c, 1, 48, 0
3, 220446, Note_on_c, 1, 50, 82
3, 221168, Note_on_c, 1, 48, 66
3, 221210, Note_on_c, 1, 50, 0
3, 221280, Note_on_c, 1, 48, 0
3, 221371, Note_on_c, 1, 43, 65
3, 221807, Note_on_c, 1, 43, 0
3, 221863, Note_on_c, 1, 36, 60
3, 222274, Note_on_c, 1, 36, 0
3, 222335, Note_on_c, 1, 36, 83
3, 223051, Note_on_c, 1, 35, 60
3, 223058, Note_on_c, 1, 36, 0
3, 223223, Note_on_c, 1, 35, 0
3, 223265, Note_on_c, 1, 36, 86
3, 223722, Note_on_c, 1, 53, 94
3, 224002, Note_on_c, 1, 52, 59
3, 224021, Note_on_c, 1, 53, 0
3, 224337, Note_on_c, 1, 52, 0
3, 224419, Note_on_c, 1, 48, 75
3, 224754, Note_on_c, 1, 36, 0
3, 224878, Note_on_c, 1, 36, 47
3, 224980, Note_on_c, 1, 36, 0
3, 225048, Note_on_c, 1, 48, 0
3, 225064, Note_on_c, 1, 45, 69
3, 225359, Note_on_c, 1, 36, 37
3, 225443, Note_on_c, 1, 36, 0
3, 225553, Note_on_c, 1, 45, 0
3, 225561, Note_on_c, 1, 41, 60
3, 225888, Note_on_c, 1, 34, 66
3, 225918, Note_on_c, 1, 41, 0
3, 226010, Note_on_c, 1, 34, 0
3, 226057, Note_on_c, 1, 35, 64
3, 226541, Note_on_c, 1, 35, 0
3, 226549, Note_on_c, 1, 36, 83
3, 227508, Note_on_c, 1, 36, 0
3, 227578, Note_on_c, 1, 36, 82
3, 228479, Note_on_c, 1, 36, 0
3, 228523, Note_on_c, 1, 35, 71
3, 228987, Note_on_c, 1, 35, 0
3, 229035, Note_on_c, 1, 35, 76
3, 229445, Note_on_c, 1, 35, 0
3, 229491, Note_on_c, 1, 34, 72
3, 230004, Note_on_c, 1, 34, 0
3, 230014, Note_on_c, 1, 33, 83
3, 232205, Note_on_c, 1, 40, 50
3, 232300, Note_on_c, 1, 33, 0
3, 232351, Note_on_c, 1, 40, 0
3, 232411, Note_on_c, 1, 49, 85
3, 232877, Note_on_c, 1, 45, 85
3, 232952, Note_on_c, 1, 49, 0
3, 233383, Note_on_c, 1, 40, 69
3, 233411, Note_on_c, 1, 45, 0
3, 233790, Note_on_c, 1, 40, 0
3, 233845, Note_on_c, 1, 37, 73
3, 234331, Note_on_c, 1, 37, 0
3, 234349, Note_on_c, 1, 38, 83
3, 236032, Note_on_c, 1, 37, 57
3, 236148, Note_on_c, 1, 38, 0
3, 236157, Note_on_c, 1, 37, 0
3, 236188, Note_on_c, 1, 45, 90
3, 236477, Note_on_c, 1, 45, 0
3, 236662, Note_on_c, 1, 38, 68
3, 237100, Note_on_c, 1, 38, 0
3, 237112, Note_on_c, 1, 32, 76
3, 237558, Note_on_c, 1, 32, 0
3, 237620, Note_on_c, 1, 31, 78
3, 239830, Note_on_c, 1, 38, 55
3, 239976, Note_on_c, 1, 38, 0
3, 239978, Note_on_c, 1, 31, 0
3, 240015, Note_on_c, 1, 43, 79
3, 240453, Note_on_c, 1, 43, 0
3, 240473, Note_on_c, 1, 32, 89
3, 241386, Note_on_c, 1, 32, 0
3, 241452, Note_on_c, 1, 33, 97
3, 242939, Note_on_c, 1, 33, 0
3, 242943, Note_on_c, 1, 39, 87
3, 243713, Note_on_c, 1, 37, 71
3, 243733, Note_on_c, 1, 39, 0
3, 243847, Note_on_c, 1, 37, 0
3, 243886, Note_on_c, 1, 38, 79
3, 244677, Note_on_c, 1, 37, 49
3, 244798, Note_on_c, 1, 38, 0
3, 244816, Note_on_c, 1, 37, 0
3, 244835, Note_on_c, 1, 54, 79
3, 245140, Note_on_c, 1, 41, 58
3, 245180, Note_on_c, 1, 54, 0
3, 245252, Note_on_c, 1, 41, 0
3, 245304, Note_on_c, 1, 42, 62
3, 245762, Note_on_c, 1, 42, 0
3, 245766, Note_on_c, 1, 43, 71
3, 246727, Note_on_c, 1, 42, 64
3, 246731, Note_on_c, 1, 43, 0
3, 247564, Note_on_c, 1, 37, 33
3, 247582, Note_on_c, 1, 42, 0
3, 247646, Note_on_c, 1, 37, 0
3, 247674, Note_on_c, 1, 38, 73
3, 248602, Note_on_c, 1, 38, 0
3, 248632, Note_on_c, 1, 34, 69
3, 248908, Note_on_c, 1, 34, 0
3, 248950, Note_on_c, 1, 31, 56
3, 249080, Note_on_c, 1, 31, 0
3, 249083, Note_on_c, 1, 32, 73
3, 249591, Note_on_c, 1, 32, 0
3, 249604, Note_on_c, 1, 33, 62
3, 250081, Note_on_c, 1, 33, 0
3, 250095, Note_on_c, 1, 39, 84
3, 250554, Note_on_c, 1, 39, 0
3, 250601, Note_on_c, 1, 45, 76
3, 251067, Note_on_c, 1, 37, 73
3, 251091, Note_on_c, 1, 45, 0
3, 251546, Note_on_c, 1, 37, 0
3, 251549, Note_on_c, 1, 38, 76
3, 252505, Note_on_c, 1, 30, 85
3, 252516, Note_on_c, 1, 38, 0
3, 253443, Note_on_c, 1, 30, 0
3, 253489, Note_on_c, 1, 31, 84
3, 254440, Note_on_c, 1, 33, 90
3, 254500, Note_on_c, 1, 31, 0
3, 255253, Note_on_c, 1, 31, 57
3, 255285, Note_on_c, 1, 33, 0
3, 255392, Note_on_c, 1, 31, 0
3, 255395, Note_on_c, 1, 35, 81
3, 256163, Note_on_c, 1, 31, 55
3, 256299, Note_on_c, 1, 35, 0
3, 256303, Note_on_c, 1, 31, 0
3, 256315, Note_on_c, 1, 43, 73
3, 256604, Note_on_c, 1, 43, 0
3, 256658, Note_on_c, 1, 34, 70
3, 256773, Note_on_c, 1, 34, 0
3, 256804, Note_on_c, 1, 35, 73
3, 257212, Note_on_c, 1, 34, 39
3, 257270, Note_on_c, 1, 34, 0
3, 257304, Note_on_c, 1, 35, 0
3, 257355, Note_on_c, 1, 48, 85
3, 258303, Note_on_c, 1, 48, 0
3, 258314, Note_on_c, 1, 43, 74
3, 259283, Note_on_c, 1, 36, 66
3, 259284, Note_on_c, 1, 43, 0
3, 260171, Note_on_c, 1, 36, 0
3, 260240, Note_on_c, 1, 36, 74
3, 261044, Note_on_c, 1, 35, 71
3, 261061, Note_on_c, 1, 36, 0
3, 261173, Note_on_c, 1, 35, 0
3, 261225, Note_on_c, 1, 34, 76
3, 262190, Note_on_c, 1, 46, 85
3, 262354, Note_on_c, 1, 34, 0
3, 263090, Note_on_c, 1, 46, 0
3, 263103, Note_on_c, 1, 34, 77
3, 264011, Note_on_c, 1, 34, 0
3, 264013, Note_on_c, 1, 46, 73
3, 264376, Note_on_c, 1, 46, 0
3, 264482, Note_on_c, 1, 46, 80
3, 264891, Note_on_c, 1, 46, 0
3, 264963, Note_on_c, 1, 45, 82
3, 265864, Note_on_c, 1, 45, 0
3, 265978, Note_on_c, 1, 39, 85
3, 266759, Note_on_c, 1, 37, 67
3, 266779, Note_on_c, 1, 39, 0
3, 266919, Note_on_c, 1, 37, 0
3, 266944, Note_on_c, 1, 38, 76
3, 267885, Note_on_c, 1, 38, 0
3, 267945, Note_on_c, 1, 38, 80
3, 268341, Note_on_c, 1, 37, 31
3, 268377, Note_on_c, 1, 37, 0
3, 268872, Note_on_c, 1, 38, 0
3, 268881, Note_on_c, 1, 43, 81
3, 269783, Note_on_c, 1, 43, 0
3, 269805, Note_on_c, 1, 32, 80
3, 270586, Note_on_c, 1, 43, 60
3, 270630, Note_on_c, 1, 32, 0
3, 270701, Note_on_c, 1, 43, 0
3, 270747, Note_on_c, 1, 31, 73
3, 271802, Note_on_c, 1, 43, 66
3, 271831, Note_on_c, 1, 31, 0
3, 271906, Note_on_c, 1, 43, 0
3, 272166, Note_on_c, 1, 35, 67
3, 272594, Note_on_c, 1, 35, 0
3, 272740, Note_on_c, 1, 36, 70
3, 274474, Note_on_c, 1, 50, 76
3, 274654, Note_on_c, 1, 50, 0
3, 274696, Note_on_c, 1, 48, 65
3, 275395, Note_on_c, 1, 34, 56
3, 275464, Note_on_c, 1, 36, 0
3, 275504, Note_on_c, 1, 34, 0
3, 275619, Note_on_c, 1, 35, 69
3, 275748, Note_on_c, 1, 35, 0
3, 276084, Note_on_c, 1, 36, 89
3, 278099, Note_on_c, 1, 48, 0
3, 278261, Note_on_c, 1, 53, 87
3, 278763, Note_on_c, 1, 52, 77
3, 278780, Note_on_c, 1, 53, 0
3, 278919, Note_on_c, 1, 52, 0
3, 279228, Note_on_c, 1, 48, 73
3, 279375, Note_on_c, 1, 48, 0
3, 279460, Note_on_c, 1, 43, 41
3, 279842, Note_on_c, 1, 43, 0
3, 279889, Note_on_c, 1, 41, 66
3, 279966, Note_on_c, 1, 36, 0
3, 280322, Note_on_c, 1, 41, 0
3, 280363, Note_on_c, 1, 40, 49
3, 280838, Note_on_c, 1, 36, 72
3, 280913, Note_on_c, 1, 40, 0
3, 281283, Note_on_c, 1, 36, 0
3, 281346, Note_on_c, 1, 36, 79
3, 283021, Note_on_c, 1, 36, 0
3, 283025, Note_on_c, 1, 35, 68
3, 283175, Note_on_c, 1, 35, 0
3, 283200, Note_on_c, 1, 36, 70
3, 283427, Note_on_c, 1, 36, 0
3, 283506, Note_on_c, 1, 36, 75
3, 283631, Note_on_c, 1, 36, 0
3, 283695, Note_on_c, 1, 35, 59
3, 284111, Note_on_c, 1, 35, 0
3, 284167, Note_on_c, 1, 36, 71
3, 284981, Note_on_c, 1, 48, 72
3, 285012, Note_on_c, 1, 36, 0
3, 285612, Note_on_c, 1, 48, 0
3, 285679, Note_on_c, 1, 48, 81
3, 287340, Note_on_c, 1, 48, 0
3, 287389, Note_on_c, 1, 34, 71
3, 287529, Note_on_c, 1, 34, 0
3, 287543, Note_on_c, 1, 35, 56
3, 288015, Note_on_c, 1, 35, 0
3, 288039, Note_on_c, 1, 36, 69
3, 289795, Note_on_c, 1, 43, 45
3, 289850, Note_on_c, 1, 36, 0
3, 289912, Note_on_c, 1, 43, 0
3, 289981, Note_on_c, 1, 48, 86
3, 290880, Note_on_c, 1, 48, 0
3, 290959, Note_on_c, 1, 47, 70
3, 291412, Note_on_c, 1, 47, 0
3, 291427, Note_on_c, 1, 46, 74
3, 291876, Note_on_c, 1, 46, 0
3, 291901, Note_on_c, 1, 45, 70
3, 292634, Note_on_c, 1, 40, 56
3, 292649, Note_on_c, 1, 45, 0
3, 292799, Note_on_c, 1, 40, 0
3, 292829, Note_on_c, 1, 33, 76
3, 293263, Note_on_c, 1, 33, 0
3, 293340, Note_on_c, 1, 33, 81
3, 295253, Note_on_c, 1, 40, 64
3, 295488, Note_on_c, 1, 33, 0
3, 296699, Note_on_c, 1, 40, 0
3, 296723, Note_on_c, 1, 38, 64
3, 297202, Note_on_c, 1, 50, 96
3, 297494, Note_on_c, 1, 50, 0
3, 297494, Note_on_c, 1, 49, 57
3, 297625, Note_on_c, 1, 49, 0
3, 297676, Note_on_c, 1, 50, 58
3, 298148, Note_on_c, 1, 38, 0
3, 298170, Note_on_c, 1, 45, 89
3, 299071, Note_on_c, 1, 44, 69
3, 299099, Note_on_c, 1, 45, 0
3, 299287, Note_on_c, 1, 50, 0
3, 299299, Note_on_c, 1, 44, 0
3, 299359, Note_on_c, 1, 42, 60
3, 299547, Note_on_c, 1, 42, 0
3, 299566, Note_on_c, 1, 43, 74
3, 300316, Note_on_c, 1, 38, 62
3, 300346, Note_on_c, 1, 43, 0
3, 300447, Note_on_c, 1, 38, 0
3, 300508, Note_on_c, 1, 34, 72
3, 300989, Note_on_c, 1, 34, 0
3, 301000, Note_on_c, 1, 35, 73
3, 301972, Note_on_c, 1, 31, 84
3, 302027, Note_on_c, 1, 35, 0
3, 302653, Note_on_c, 1, 35, 70
3, 302682, Note_on_c, 1, 31, 0
3, 302769, Note_on_c, 1, 35, 0
3, 302884, Note_on_c, 1, 38, 78
3, 303038, Note_on_c, 1, 38, 0
3, 303132, Note_on_c, 1, 39, 81
3, 303307, Note_on_c, 1, 39, 0
3, 303363, Note_on_c, 1, 40, 85
3, 304434, Note_on_c, 1, 35, 58
3, 304531, Note_on_c, 1, 35, 0
3, 304895, Note_on_c, 1, 35, 84
3, 304961, Note_on_c, 1, 40, 0
3, 305362, Note_on_c, 1, 34, 85
3, 305398, Note_on_c, 1, 35, 0
3, 306603, Note_on_c, 1, 31, 53
3, 306616, Note_on_c, 1, 34, 0
3, 306888, Note_on_c, 1, 31, 0
3, 306893, Note_on_c, 1, 32, 85
3, 307199, Note_on_c, 1, 32, 0
3, 307206, Note_on_c, 1, 33, 84
3, 308709, Note_on_c, 1, 40, 62
3, 308732, Note_on_c, 1, 33, 0
3, 309199, Note_on_c, 1, 48, 103
3, 309270, Note_on_c, 1, 40, 0
3, 309686, Note_on_c, 1, 47, 89
3, 309735, Note_on_c, 1, 48, 0
3, 310184, Note_on_c, 1, 45, 76
3, 310254, Note_on_c, 1, 47, 0
3, 310636, Note_on_c, 1, 45, 0
3, 310659, Note_on_c, 1, 44, 76
3, 311145, Note_on_c, 1, 43, 78
3, 311216, Note_on_c, 1, 44, 0
3, 311629, Note_on_c, 1, 38, 71
3, 311639, Note_on_c, 1, 43, 0
3, 312115, Note_on_c, 1, 34, 76
3, 312177, Note_on_c, 1, 38, 0
3, 312540, Note_on_c, 1, 34, 0
3, 312574, Note_on_c, 1, 31, 71
3, 313059, Note_on_c, 1, 36, 85
3, 313060, Note_on_c, 1, 31, 0
3, 313992, Note_on_c, 1, 30, 79
3, 314018, Note_on_c, 1, 36, 0
3, 314904, Note_on_c, 1, 30, 0
3, 314926, Note_on_c, 1, 29, 59
3, 316693, Note_on_c, 1, 36, 60
3, 316883, Note_on_c, 1, 36, 0
3, 316901, Note_on_c, 1, 41, 83
3, 317349, Note_on_c, 1, 29, 0
3, 318336, Note_on_c, 1, 34, 46
3, 318375, Note_on_c, 1, 41, 0
3, 318525, Note_on_c, 1, 34, 0
3, 318566, Note_on_c, 1, 35, 66
3, 318803, Note_on_c, 1, 36, 87
3, 318823, Note_on_c, 1, 35, 0
3, 320524, Note_on_c, 1, 50, 85
3, 320706, Note_on_c, 1, 50, 0
3, 320748, Note_on_c, 1, 48, 78
3, 321157, Note_on_c, 1, 48, 0
3, 321243, Note_on_c, 1, 48, 74
3, 321343, Note_on_c, 1, 36, 0
3, 321720, Note_on_c, 1, 36, 55
3, 322069, Note_on_c, 1, 36, 0
3, 322195, Note_on_c, 1, 36, 77
3, 322610, Note_on_c, 1, 36, 0
3, 322688, Note_on_c, 1, 36, 75
3, 322763, Note_on_c, 1, 48, 0
3, 324552, Note_on_c, 1, 48, 76
3, 324957, Note_on_c, 1, 48, 0
3, 325043, Note_on_c, 1, 48, 83
3, 325836, Note_on_c, 1, 36, 0
3, 325956, Note_on_c, 1, 34, 48
3, 326132, Note_on_c, 1, 34, 0
3, 326213, Note_on_c, 1, 35, 60
3, 326415, Note_on_c, 1, 35, 0
3, 326453, Note_on_c, 1, 48, 0
3, 326535, Note_on_c, 1, 36, 87
3, 328387, Note_on_c, 1, 48, 79
3, 330278, Note_on_c, 1, 48, 0
3, 330287, Note_on_c, 1, 39, 67
3, 330297, Note_on_c, 1, 55, 65
3, 330408, Note_on_c, 1, 36, 0
3, 332223, Note_on_c, 1, 55, 0
3, 332246, Note_on_c, 1, 37, 47
3, 332248, Note_on_c, 1, 53, 51
3, 332256, Note_on_c, 1, 39, 0
3, 334034, Note_on_c, 1, 53, 0
3, 334103, Note_on_c, 1, 37, 0
3, 334133, Note_on_c, 1, 36, 60
3, 337034, Note_on_c, 1, 48, 54
3, 337424, Note_on_c, 1, 48, 0
3, 337544, Note_on_c, 1, 48, 52
3, 339036, Note_on_c, 1, 36, 0
3, 340459, Note_on_c, 1, 36, 37
3, 340598, Note_on_c, 1, 36, 0
3, 341371, Note_on_c, 1, 36, 40
3, 341550, Note_on_c, 1, 36, 0
3, 341882, Note_on_c, 1, 36, 52
3, 342199, Note_on_c, 1, 48, 0
3, 345008, Note_on_c, 1, 36, 0
3, 345008, End_track
4, 0, Start_track
4, 0, Title_t, "Brush swirl"
4, 0, Program_c, 9, 40
4, 0, Control_c, 9, 7, 97
4, 19200, Note_on_c, 9, 40, 12
4, 19992, Note_on_c, 9, 40, 0
4, 20204, Note_on_c, 9, 40, 6
4, 21127, Note_on_c, 9, 40, 0
4, 21219, Note_on_c, 9, 40, 12
4, 22082, Note_on_c, 9, 40, 0
4, 22173, Note_on_c, 9, 40, 13
4, 23051, Note_on_c, 9, 40, 0
4, 23164, Note_on_c, 9, 40, 9
4, 24012, Note_on_c, 9, 40, 0
4, 24109, Note_on_c, 9, 40, 11
4, 24852, Note_on_c, 9, 40, 0
4, 24920, Note_on_c, 9, 40, 9
4, 25034, Note_on_c, 9, 40, 0
4, 25111, Note_on_c, 9, 40, 8
4, 25902, Note_on_c, 9, 40, 0
4, 25956, Note_on_c, 9, 40, 7
4, 26667, Note_on_c, 9, 40, 0
4, 26757, Note_on_c, 9, 40, 10
4, 27706, Note_on_c, 9, 40, 0
4, 27815, Note_on_c, 9, 40, 9
4, 28548, Note_on_c, 9, 40, 0
4, 28616, Note_on_c, 9, 40, 12
4, 28723, Note_on_c, 9, 40, 0
4, 28817, Note_on_c, 9, 40, 9
4, 29803, Note_on_c, 9, 40, 0
4, 29856, Note_on_c, 9, 40, 9
4, 30759, Note_on_c, 9, 40, 0
4, 30817, Note_on_c, 9, 40, 11
4, 31198, Note_on_c, 9, 40, 0
4, 31294, Note_on_c, 9, 40, 15
4, 31755, Note_on_c, 9, 40, 0
4, 31812, Note_on_c, 9, 40, 10
4, 32664, Note_on_c, 9, 40, 0
4, 32773, Note_on_c, 9, 40, 15
4, 33652, Note_on_c, 9, 40, 0
4, 33728, Note_on_c, 9, 40, 7
4, 34184, Note_on_c, 9, 38, 18
4, 34337, Note_on_c, 9, 38, 0
4, 35111, Note_on_c, 9, 40, 0
4, 35153, Note_on_c, 9, 40, 6
4, 35468, Note_on_c, 9, 40, 0
4, 35540, Note_on_c, 9, 40, 11
4, 36475, Note_on_c, 9, 40, 0
4, 36553, Note_on_c, 9, 40, 9
4, 37423, Note_on_c, 9, 40, 0
4, 37520, Note_on_c, 9, 40, 18
4, 38307, Note_on_c, 9, 40, 0
4, 38370, Note_on_c, 9, 40, 14
4, 38472, Note_on_c, 9, 40, 0
4, 38544, Note_on_c, 9, 40, 20
4, 39311, Note_on_c, 9, 40, 0
4, 39449, Note_on_c, 9, 40, 12
4, 40191, Note_on_c, 9, 40, 0
4, 40235, Note_on_c, 9, 40, 7
4, 40343, Note_on_c, 9, 40, 0
4, 40416, Note_on_c, 9, 40, 13
4, 41199, Note_on_c, 9, 40, 0
4, 41324, Note_on_c, 9, 40, 13
4, 42134, Note_on_c, 9, 40, 0
4, 42266, Note_on_c, 9, 40, 13
4, 42767, Note_on_c, 9, 40, 0
4, 42828, Note_on_c, 9, 40, 4
4, 43252, Note_on_c, 9, 40, 0
4, 43318, Note_on_c, 9, 40, 24
4, 44152, Note_on_c, 9, 40, 0
4, 44189, Note_on_c, 9, 40, 4
4, 44644, Note_on_c, 9, 40, 0
4, 44722, Note_on_c, 9, 40, 10
4, 45157, Note_on_c, 9, 40, 0
4, 45235, Note_on_c, 9, 40, 13
4, 45636, Note_on_c, 9, 40, 0
4, 45705, Note_on_c, 9, 40, 11
4, 46528, Note_on_c, 9, 40, 0
4, 46627, Note_on_c, 9, 40, 10
4, 46978, Note_on_c, 9, 40, 0
4, 47068, Note_on_c, 9, 40, 13
4, 47801, Note_on_c, 9, 40, 0
4, 48098, Note_on_c, 9, 40, 19
4, 48917, Note_on_c, 9, 40, 0
4, 49061, Note_on_c, 9, 40, 13
4, 49752, Note_on_c, 9, 40, 0
4, 49810, Note_on_c, 9, 40, 11
4, 49874, Note_on_c, 9, 40, 0
4, 49974, Note_on_c, 9, 40, 11
4, 50822, Note_on_c, 9, 40, 0
4, 50954, Note_on_c, 9, 40, 13
4, 51743, Note_on_c, 9, 40, 0
4, 51896, Note_on_c, 9, 40, 16
4, 52291, Note_on_c, 9, 40, 0
4, 52381, Note_on_c, 9, 40, 9
4, 52804, Note_on_c, 9, 40, 0
4, 52902, Note_on_c, 9, 40, 12
4, 53675, Note_on_c, 9, 40, 0
4, 53780, Note_on_c, 9, 40, 10
4, 54731, Note_on_c, 9, 40, 0
4, 54822, Note_on_c, 9, 40, 12
4, 55563, Note_on_c, 9, 40, 0
4, 55635, Note_on_c, 9, 40, 13
4, 55731, Note_on_c, 9, 40, 0
4, 55809, Note_on_c, 9, 40, 11
4, 56581, Note_on_c, 9, 40, 0
4, 56694, Note_on_c, 9, 40, 10
4, 57419, Note_on_c, 9, 40, 0
4, 57493, Note_on_c, 9, 40, 7
4, 57573, Note_on_c, 9, 40, 0
4, 57642, Note_on_c, 9, 40, 12
4, 58546, Note_on_c, 9, 40, 0
4, 58687, Note_on_c, 9, 40, 12
4, 59595, Note_on_c, 9, 40, 0
4, 59682, Note_on_c, 9, 40, 11
4, 60040, Note_on_c, 9, 40, 0
4, 60121, Note_on_c, 9, 40, 15
4, 60903, Note_on_c, 9, 40, 0
4, 60998, Note_on_c, 9, 40, 11
4, 61112, Note_on_c, 9, 40, 0
4, 61200, Note_on_c, 9, 40, 14
4, 61363, Note_on_c, 9, 40, 0
4, 61513, Note_on_c, 9, 40, 18
4, 61955, Note_on_c, 9, 40, 0
4, 62030, Note_on_c, 9, 40, 18
4, 62818, Note_on_c, 9, 40, 0
4, 62941, Note_on_c, 9, 40, 9
4, 63348, Note_on_c, 9, 40, 0
4, 63441, Note_on_c, 9, 40, 11
4, 64256, Note_on_c, 9, 40, 0
4, 64352, Note_on_c, 9, 40, 13
4, 65053, Note_on_c, 9, 40, 0
4, 65128, Note_on_c, 9, 40, 12
4, 65252, Note_on_c, 9, 40, 0
4, 65318, Note_on_c, 9, 40, 10
4, 66148, Note_on_c, 9, 40, 0
4, 66245, Note_on_c, 9, 40, 12
4, 67176, Note_on_c, 9, 40, 0
4, 67287, Note_on_c, 9, 40, 15
4, 68020, Note_on_c, 9, 40, 0
4, 68244, Note_on_c, 9, 40, 16
4, 68625, Note_on_c, 9, 40, 0
4, 68693, Note_on_c, 9, 40, 11
4, 69007, Note_on_c, 9, 40, 0
4, 69117, Note_on_c, 9, 40, 15
4, 69518, Note_on_c, 9, 40, 0
4, 69596, Note_on_c, 9, 40, 2
4, 69971, Note_on_c, 9, 40, 0
4, 70065, Note_on_c, 9, 40, 13
4, 71025, Note_on_c, 9, 40, 0
4, 71080, Note_on_c, 9, 40, 13
4, 71509, Note_on_c, 9, 40, 0
4, 71555, Note_on_c, 9, 40, 4
4, 71695, Note_on_c, 9, 40, 0
4, 71761, Note_on_c, 9, 40, 1
4, 71931, Note_on_c, 9, 40, 0
4, 72028, Note_on_c, 9, 40, 9
4, 72834, Note_on_c, 9, 40, 0
4, 72989, Note_on_c, 9, 40, 15
4, 73416, Note_on_c, 9, 40, 0
4, 73467, Note_on_c, 9, 40, 1
4, 74183, Note_on_c, 9, 40, 0
4, 74419, Note_on_c, 9, 40, 12
4, 74815, Note_on_c, 9, 40, 0
4, 74928, Note_on_c, 9, 40, 13
4, 75347, Note_on_c, 9, 40, 0
4, 75397, Note_on_c, 9, 40, 3
4, 75805, Note_on_c, 9, 40, 0
4, 75878, Note_on_c, 9, 40, 12
4, 76476, Note_on_c, 9, 40, 0
4, 76625, Note_on_c, 9, 40, 21
4, 76746, Note_on_c, 9, 40, 0
4, 76849, Note_on_c, 9, 40, 8
4, 77218, Note_on_c, 9, 40, 0
4, 77308, Note_on_c, 9, 40, 4
4, 77755, Note_on_c, 9, 40, 0
4, 77863, Note_on_c, 9, 40, 11
4, 78671, Note_on_c, 9, 40, 0
4, 78769, Note_on_c, 9, 40, 9
4, 79658, Note_on_c, 9, 40, 0
4, 79753, Note_on_c, 9, 40, 9
4, 80451, Note_on_c, 9, 40, 0
4, 80536, Note_on_c, 9, 40, 12
4, 80637, Note_on_c, 9, 40, 0
4, 80718, Note_on_c, 9, 40, 20
4, 81611, Note_on_c, 9, 40, 0
4, 81713, Note_on_c, 9, 40, 8
4, 82569, Note_on_c, 9, 40, 0
4, 82682, Note_on_c, 9, 40, 9
4, 83544, Note_on_c, 9, 40, 0
4, 83638, Note_on_c, 9, 40, 9
4, 84488, Note_on_c, 9, 40, 0
4, 84628, Note_on_c, 9, 40, 4
4, 85455, Note_on_c, 9, 40, 0
4, 85561, Note_on_c, 9, 40, 6
4, 86307, Note_on_c, 9, 40, 0
4, 86433, Note_on_c, 9, 40, 6
4, 86485, Note_on_c, 9, 40, 0
4, 86579, Note_on_c, 9, 40, 10
4, 87442, Note_on_c, 9, 40, 0
4, 87533, Note_on_c, 9, 40, 11
4, 88383, Note_on_c, 9, 40, 0
4, 88487, Note_on_c, 9, 40, 6
4, 89250, Note_on_c, 9, 40, 0
4, 89349, Note_on_c, 9, 40, 11
4, 90148, Note_on_c, 9, 40, 0
4, 90286, Note_on_c, 9, 40, 7
4, 91077, Note_on_c, 9, 40, 0
4, 91234, Note_on_c, 9, 40, 21
4, 91927, Note_on_c, 9, 40, 0
4, 92013, Note_on_c, 9, 40, 15
4, 92120, Note_on_c, 9, 40, 0
4, 92205, Note_on_c, 9, 40, 13
4, 92997, Note_on_c, 9, 40, 0
4, 93148, Note_on_c, 9, 40, 18
4, 93985, Note_on_c, 9, 40, 0
4, 94107, Note_on_c, 9, 40, 17
4, 94509, Note_on_c, 9, 40, 0
4, 94592, Note_on_c, 9, 40, 20
4, 95455, Note_on_c, 9, 40, 0
4, 95541, Note_on_c, 9, 40, 15
4, 95918, Note_on_c, 9, 40, 0
4, 95989, Note_on_c, 9, 40, 9
4, 96338, Note_on_c, 9, 40, 0
4, 96487, Note_on_c, 9, 40, 13
4, 96923, Note_on_c, 9, 40, 0
4, 97007, Note_on_c, 9, 40, 21
4, 97761, Note_on_c, 9, 40, 0
4, 97918, Note_on_c, 9, 40, 19
4, 98763, Note_on_c, 9, 40, 0
4, 98874, Note_on_c, 9, 40, 11
4, 99556, Note_on_c, 9, 40, 0
4, 99603, Note_on_c, 9, 40, 7
4, 99722, Note_on_c, 9, 40, 0
4, 99793, Note_on_c, 9, 40, 14
4, 100680, Note_on_c, 9, 40, 0
4, 100783, Note_on_c, 9, 40, 15
4, 101169, Note_on_c, 9, 40, 0
4, 101253, Note_on_c, 9, 40, 18
4, 101689, Note_on_c, 9, 40, 0
4, 101755, Note_on_c, 9, 40, 11
4, 102640, Note_on_c, 9, 40, 0
4, 102716, Note_on_c, 9, 40, 21
4, 103415, Note_on_c, 9, 40, 0
4, 103498, Note_on_c, 9, 40, 16
4, 103603, Note_on_c, 9, 40, 0
4, 103686, Note_on_c, 9, 40, 10
4, 104117, Note_on_c, 9, 40, 0
4, 104201, Note_on_c, 9, 40, 17
4, 104668, Note_on_c, 9, 40, 0
4, 104726, Note_on_c, 9, 40, 9
4, 105114, Note_on_c, 9, 40, 0
4, 105184, Note_on_c, 9, 40, 20
4, 106016, Note_on_c, 9, 40, 0
4, 106131, Note_on_c, 9, 40, 9
4, 106516, Note_on_c, 9, 40, 0
4, 106609, Note_on_c, 9, 40, 9
4, 106963, Note_on_c, 9, 40, 0
4, 107092, Note_on_c, 9, 40, 18
4, 107471, Note_on_c, 9, 40, 0
4, 107570, Note_on_c, 9, 40, 13
4, 107949, Note_on_c, 9, 40, 0
4, 108070, Note_on_c, 9, 40, 11
4, 108469, Note_on_c, 9, 40, 0
4, 108580, Note_on_c, 9, 40, 9
4, 109010, Note_on_c, 9, 40, 0
4, 109067, Note_on_c, 9, 40, 5
4, 109944, Note_on_c, 9, 40, 0
4, 110034, Note_on_c, 9, 40, 13
4, 110843, Note_on_c, 9, 40, 0
4, 110954, Note_on_c, 9, 40, 12
4, 111337, Note_on_c, 9, 40, 0
4, 111417, Note_on_c, 9, 40, 19
4, 111786, Note_on_c, 9, 40, 0
4, 111905, Note_on_c, 9, 40, 10
4, 112292, Note_on_c, 9, 40, 0
4, 112404, Note_on_c, 9, 40, 9
4, 113376, Note_on_c, 9, 40, 0
4, 113474, Note_on_c, 9, 40, 9
4, 114303, Note_on_c, 9, 40, 0
4, 114395, Note_on_c, 9, 40, 11
4, 115155, Note_on_c, 9, 40, 0
4, 115294, Note_on_c, 9, 40, 14
4, 116092, Note_on_c, 9, 40, 0
4, 116204, Note_on_c, 9, 40, 11
4, 117129, Note_on_c, 9, 40, 0
4, 117192, Note_on_c, 9, 40, 15
4, 117552, Note_on_c, 9, 40, 0
4, 117642, Note_on_c, 9, 40, 15
4, 118069, Note_on_c, 9, 40, 0
4, 118136, Note_on_c, 9, 40, 9
4, 118530, Note_on_c, 9, 40, 0
4, 118578, Note_on_c, 9, 40, 12
4, 118966, Note_on_c, 9, 40, 0
4, 119066, Note_on_c, 9, 40, 12
4, 119705, Note_on_c, 9, 40, 0
4, 119793, Note_on_c, 9, 40, 14
4, 119915, Note_on_c, 9, 40, 0
4, 119999, Note_on_c, 9, 40, 11
4, 120877, Note_on_c, 9, 40, 0
4, 120978, Note_on_c, 9, 40, 15
4, 121858, Note_on_c, 9, 40, 0
4, 121956, Note_on_c, 9, 40, 11
4, 122633, Note_on_c, 9, 40, 0
4, 122734, Note_on_c, 9, 40, 13
4, 122834, Note_on_c, 9, 40, 0
4, 122918, Note_on_c, 9, 40, 15
4, 123279, Note_on_c, 9, 40, 0
4, 123400, Note_on_c, 9, 40, 13
4, 124114, Note_on_c, 9, 40, 0
4, 124186, Note_on_c, 9, 40, 11
4, 124254, Note_on_c, 9, 40, 0
4, 124367, Note_on_c, 9, 40, 8
4, 124801, Note_on_c, 9, 40, 0
4, 124901, Note_on_c, 9, 40, 12
4, 125715, Note_on_c, 9, 40, 0
4, 125833, Note_on_c, 9, 40, 13
4, 126570, Note_on_c, 9, 40, 0
4, 126668, Note_on_c, 9, 40, 13
4, 126733, Note_on_c, 9, 40, 0
4, 126806, Note_on_c, 9, 40, 19
4, 127671, Note_on_c, 9, 40, 0
4, 127787, Note_on_c, 9, 40, 13
4, 128447, Note_on_c, 9, 40, 0
4, 128536, Note_on_c, 9, 40, 15
4, 128620, Note_on_c, 9, 40, 0
4, 128694, Note_on_c, 9, 40, 6
4, 129484, Note_on_c, 9, 40, 0
4, 129585, Note_on_c, 9, 40, 11
4, 130275, Note_on_c, 9, 40, 0
4, 130392, Note_on_c, 9, 40, 17
4, 130488, Note_on_c, 9, 40, 0
4, 130550, Note_on_c, 9, 40, 9
4, 131402, Note_on_c, 9, 40, 0
4, 131516, Note_on_c, 9, 40, 13
4, 132351, Note_on_c, 9, 40, 0
4, 132467, Note_on_c, 9, 40, 12
4, 133309, Note_on_c, 9, 40, 0
4, 133435, Note_on_c, 9, 40, 11
4, 134159, Note_on_c, 9, 40, 0
4, 134260, Note_on_c, 9, 40, 15
4, 134330, Note_on_c, 9, 40, 0
4, 134435, Note_on_c, 9, 40, 11
4, 134847, Note_on_c, 9, 40, 0
4, 135001, Note_on_c, 9, 40, 15
4, 135767, Note_on_c, 9, 40, 0
4, 135929, Note_on_c, 9, 40, 15
4, 136345, Note_on_c, 9, 40, 0
4, 136435, Note_on_c, 9, 40, 12
4, 137350, Note_on_c, 9, 40, 0
4, 137420, Note_on_c, 9, 40, 19
4, 137534, Note_on_c, 9, 40, 0
4, 137688, Note_on_c, 9, 40, 9
4, 137821, Note_on_c, 9, 40, 0
4, 137902, Note_on_c, 9, 40, 18
4, 138324, Note_on_c, 9, 40, 0
4, 138392, Note_on_c, 9, 40, 21
4, 139126, Note_on_c, 9, 40, 0
4, 139239, Note_on_c, 9, 40, 17
4, 140083, Note_on_c, 9, 40, 0
4, 140176, Note_on_c, 9, 40, 10
4, 141066, Note_on_c, 9, 40, 0
4, 141163, Note_on_c, 9, 40, 15
4, 142136, Note_on_c, 9, 40, 0
4, 142217, Note_on_c, 9, 40, 18
4, 143068, Note_on_c, 9, 40, 0
4, 143158, Note_on_c, 9, 40, 11
4, 143995, Note_on_c, 9, 40, 0
4, 144090, Note_on_c, 9, 40, 10
4, 144969, Note_on_c, 9, 40, 0
4, 145057, Note_on_c, 9, 40, 10
4, 145781, Note_on_c, 9, 40, 0
4, 145871, Note_on_c, 9, 40, 11
4, 145966, Note_on_c, 9, 40, 0
4, 146057, Note_on_c, 9, 40, 14
4, 146852, Note_on_c, 9, 40, 0
4, 146949, Note_on_c, 9, 40, 9
4, 147778, Note_on_c, 9, 40, 0
4, 147894, Note_on_c, 9, 40, 5
4, 148740, Note_on_c, 9, 40, 0
4, 148877, Note_on_c, 9, 40, 11
4, 149611, Note_on_c, 9, 40, 0
4, 149710, Note_on_c, 9, 40, 7
4, 149762, Note_on_c, 9, 40, 0
4, 149856, Note_on_c, 9, 40, 10
4, 150602, Note_on_c, 9, 40, 0
4, 150708, Note_on_c, 9, 40, 6
4, 151414, Note_on_c, 9, 40, 0
4, 151542, Note_on_c, 9, 40, 9
4, 151600, Note_on_c, 9, 40, 0
4, 151698, Note_on_c, 9, 40, 10
4, 152600, Note_on_c, 9, 40, 0
4, 152686, Note_on_c, 9, 40, 12
4, 153576, Note_on_c, 9, 40, 0
4, 153670, Note_on_c, 9, 40, 12
4, 154614, Note_on_c, 9, 40, 0
4, 154694, Note_on_c, 9, 40, 18
4, 155539, Note_on_c, 9, 40, 0
4, 155685, Note_on_c, 9, 40, 12
4, 156531, Note_on_c, 9, 40, 0
4, 156617, Note_on_c, 9, 40, 17
4, 157359, Note_on_c, 9, 40, 0
4, 157461, Note_on_c, 9, 40, 5
4, 157525, Note_on_c, 9, 40, 0
4, 157613, Note_on_c, 9, 40, 11
4, 158431, Note_on_c, 9, 40, 0
4, 158526, Note_on_c, 9, 40, 7
4, 159345, Note_on_c, 9, 40, 0
4, 159481, Note_on_c, 9, 40, 6
4, 160314, Note_on_c, 9, 40, 0
4, 160413, Note_on_c, 9, 40, 11
4, 161275, Note_on_c, 9, 40, 0
4, 161367, Note_on_c, 9, 40, 7
4, 161630, Note_on_c, 9, 40, 0
4, 161828, Note_on_c, 9, 40, 9
4, 162271, Note_on_c, 9, 40, 0
4, 162359, Note_on_c, 9, 40, 15
4, 163208, Note_on_c, 9, 40, 0
4, 163322, Note_on_c, 9, 40, 8
4, 164161, Note_on_c, 9, 40, 0
4, 164259, Note_on_c, 9, 40, 9
4, 164917, Note_on_c, 9, 40, 0
4, 165006, Note_on_c, 9, 40, 12
4, 165084, Note_on_c, 9, 40, 0
4, 165181, Note_on_c, 9, 40, 11
4, 165997, Note_on_c, 9, 40, 0
4, 166085, Note_on_c, 9, 40, 16
4, 166995, Note_on_c, 9, 40, 0
4, 167091, Note_on_c, 9, 40, 11
4, 167923, Note_on_c, 9, 40, 0
4, 168017, Note_on_c, 9, 40, 11
4, 168911, Note_on_c, 9, 40, 0
4, 169004, Note_on_c, 9, 40, 14
4, 169961, Note_on_c, 9, 40, 0
4, 170046, Note_on_c, 9, 40, 13
4, 170700, Note_on_c, 9, 40, 0
4, 170785, Note_on_c, 9, 40, 13
4, 170865, Note_on_c, 9, 40, 0
4, 170964, Note_on_c, 9, 40, 13
4, 171792, Note_on_c, 9, 40, 0
4, 171884, Note_on_c, 9, 40, 9
4, 172741, Note_on_c, 9, 40, 0
4, 172850, Note_on_c, 9, 40, 6
4, 173726, Note_on_c, 9, 40, 0
4, 173854, Note_on_c, 9, 40, 4
4, 174706, Note_on_c, 9, 40, 0
4, 174813, Note_on_c, 9, 40, 6
4, 175672, Note_on_c, 9, 40, 0
4, 175769, Note_on_c, 9, 40, 12
4, 176704, Note_on_c, 9, 40, 0
4, 176780, Note_on_c, 9, 40, 6
4, 177178, Note_on_c, 9, 40, 0
4, 177279, Note_on_c, 9, 40, 10
4, 178115, Note_on_c, 9, 40, 0
4, 178227, Note_on_c, 9, 40, 9
4, 178922, Note_on_c, 9, 40, 0
4, 179072, Note_on_c, 9, 40, 8
4, 179408, Note_on_c, 9, 40, 0
4, 179520, Note_on_c, 9, 40, 9
4, 180359, Note_on_c, 9, 40, 0
4, 180458, Note_on_c, 9, 40, 8
4, 180868, Note_on_c, 9, 40, 0
4, 180975, Note_on_c, 9, 40, 9
4, 181947, Note_on_c, 9, 59, 26
4, 181993, Note_on_c, 9, 59, 0
4, 182204, Note_on_c, 9, 40, 0
4, 182410, Note_on_c, 9, 59, 46
4, 183054, Note_on_c, 9, 59, 0
4, 183151, Note_on_c, 9, 59, 28
4, 183202, Note_on_c, 9, 59, 0
4, 183325, Note_on_c, 9, 59, 46
4, 183958, Note_on_c, 9, 59, 0
4, 184119, Note_on_c, 9, 59, 29
4, 184179, Note_on_c, 9, 59, 0
4, 184280, Note_on_c, 9, 59, 36
4, 184571, Note_on_c, 9, 59, 0
4, 184771, Note_on_c, 9, 59, 54
4, 185282, Note_on_c, 9, 59, 0
4, 185567, Note_on_c, 9, 59, 26
4, 185637, Note_on_c, 9, 59, 0
4, 185762, Note_on_c, 9, 59, 27
4, 186013, Note_on_c, 9, 59, 0
4, 186706, Note_on_c, 9, 59, 42
4, 186950, Note_on_c, 9, 59, 0
4, 187066, Note_on_c, 9, 59, 48
4, 187155, Note_on_c, 9, 59, 0
4, 187208, Note_on_c, 9, 59, 37
4, 187850, Note_on_c, 9, 59, 0
4, 187973, Note_on_c, 9, 59, 26
4, 188086, Note_on_c, 9, 59, 0
4, 188150, Note_on_c, 9, 59, 33
4, 188806, Note_on_c, 9, 59, 0
4, 188961, Note_on_c, 9, 59, 34
4, 189065, Note_on_c, 9, 59, 0
4, 189107, Note_on_c, 9, 59, 29
4, 189414, Note_on_c, 9, 59, 0
4, 189596, Note_on_c, 9, 59, 27
4, 189737, Note_on_c, 9, 59, 0
4, 189917, Note_on_c, 9, 59, 22
4, 189997, Note_on_c, 9, 59, 0
4, 190087, Note_on_c, 9, 59, 29
4, 190475, Note_on_c, 9, 59, 0
4, 190878, Note_on_c, 9, 59, 25
4, 190941, Note_on_c, 9, 59, 0
4, 191035, Note_on_c, 9, 59, 27
4, 191451, Note_on_c, 9, 59, 0
4, 191836, Note_on_c, 9, 59, 22
4, 191912, Note_on_c, 9, 59, 0
4, 192009, Note_on_c, 9, 59, 23
4, 192678, Note_on_c, 9, 59, 0
4, 192825, Note_on_c, 9, 59, 27
4, 192927, Note_on_c, 9, 59, 0
4, 192999, Note_on_c, 9, 59, 32
4, 193672, Note_on_c, 9, 59, 0
4, 193770, Note_on_c, 9, 59, 32
4, 193861, Note_on_c, 9, 59, 0
4, 193931, Note_on_c, 9, 59, 28
4, 194571, Note_on_c, 9, 59, 0
4, 194710, Note_on_c, 9, 59, 41
4, 194764, Note_on_c, 9, 59, 0
4, 194876, Note_on_c, 9, 59, 37
4, 195118, Note_on_c, 9, 59, 0
4, 195329, Note_on_c, 9, 59, 55
4, 195643, Note_on_c, 9, 59, 0
4, 195810, Note_on_c, 9, 59, 51
4, 196250, Note_on_c, 9, 59, 0
4, 196647, Note_on_c, 9, 59, 19
4, 196695, Note_on_c, 9, 59, 0
4, 196810, Note_on_c, 9, 59, 39
4, 197087, Note_on_c, 9, 59, 0
4, 197311, Note_on_c, 9, 59, 46
4, 197551, Note_on_c, 9, 59, 0
4, 197831, Note_on_c, 9, 59, 47
4, 198508, Note_on_c, 9, 59, 0
4, 198616, Note_on_c, 9, 59, 18
4, 198698, Note_on_c, 9, 59, 0
4, 198790, Note_on_c, 9, 59, 48
4, 199422, Note_on_c, 9, 59, 0
4, 199508, Note_on_c, 9, 59, 40
4, 199612, Note_on_c, 9, 59, 0
4, 199697, Note_on_c, 9, 59, 31
4, 200510, Note_on_c, 9, 59, 0
4, 200633, Note_on_c, 9, 59, 47
4, 201297, Note_on_c, 9, 59, 0
4, 201424, Note_on_c, 9, 59, 30
4, 201534, Note_on_c, 9, 59, 0
4, 201602, Note_on_c, 9, 59, 19
4, 201888, Note_on_c, 9, 59, 0
4, 202059, Note_on_c, 9, 59, 48
4, 202830, Note_on_c, 9, 59, 0
4, 202888, Note_on_c, 9, 59, 40
4, 202948, Note_on_c, 9, 59, 0
4, 203051, Note_on_c, 9, 59, 28
4, 203439, Note_on_c, 9, 59, 0
4, 203529, Note_on_c, 9, 59, 44
4, 203888, Note_on_c, 9, 59, 0
4, 204086, Note_on_c, 9, 59, 50
4, 204447, Note_on_c, 9, 59, 0
4, 204588, Note_on_c, 9, 59, 53
4, 205298, Note_on_c, 9, 59, 0
4, 205383, Note_on_c, 9, 59, 37
4, 205460, Note_on_c, 9, 59, 0
4, 205539, Note_on_c, 9, 59, 34
4, 205887, Note_on_c, 9, 59, 0
4, 206022, Note_on_c, 9, 59, 50
4, 206749, Note_on_c, 9, 59, 0
4, 206787, Note_on_c, 9, 59, 25
4, 206852, Note_on_c, 9, 59, 0
4, 206955, Note_on_c, 9, 59, 48
4, 207284, Note_on_c, 9, 59, 0
4, 207450, Note_on_c, 9, 59, 57
4, 208283, Note_on_c, 9, 59, 0
4, 208378, Note_on_c, 9, 59, 38
4, 208596, Note_on_c, 9, 59, 0
4, 208696, Note_on_c, 9, 59, 44
4, 208780, Note_on_c, 9, 59, 0
4, 209178, Note_on_c, 9, 59, 48
4, 209228, Note_on_c, 9, 59, 0
4, 209621, Note_on_c, 9, 59, 49
4, 209699, Note_on_c, 9, 59, 0
4, 209805, Note_on_c, 9, 59, 49
4, 210161, Note_on_c, 9, 59, 0
4, 210331, Note_on_c, 9, 59, 55
4, 211004, Note_on_c, 9, 59, 0
4, 211140, Note_on_c, 9, 59, 35
4, 211258, Note_on_c, 9, 59, 0
4, 211342, Note_on_c, 9, 59, 35
4, 211555, Note_on_c, 9, 59, 0
4, 211809, Note_on_c, 9, 59, 49
4, 212952, Note_on_c, 9, 59, 0
4, 213062, Note_on_c, 9, 59, 35
4, 213160, Note_on_c, 9, 59, 0
4, 213216, Note_on_c, 9, 59, 30
4, 213770, Note_on_c, 9, 59, 0
4, 213915, Note_on_c, 9, 59, 50
4, 214011, Note_on_c, 9, 59, 0
4, 214064, Note_on_c, 9, 59, 37
4, 214340, Note_on_c, 9, 59, 0
4, 215052, Note_on_c, 9, 59, 59
4, 215166, Note_on_c, 9, 59, 0
4, 215839, Note_on_c, 9, 59, 39
4, 215933, Note_on_c, 9, 59, 0
4, 216024, Note_on_c, 9, 59, 33
4, 216262, Note_on_c, 9, 59, 0
4, 216801, Note_on_c, 9, 59, 30
4, 216857, Note_on_c, 9, 59, 0
4, 216975, Note_on_c, 9, 59, 35
4, 217291, Note_on_c, 9, 59, 0
4, 217783, Note_on_c, 9, 59, 41
4, 217871, Note_on_c, 9, 59, 0
4, 217949, Note_on_c, 9, 59, 29
4, 218167, Note_on_c, 9, 59, 0
4, 218430, Note_on_c, 9, 59, 69
4, 218645, Note_on_c, 9, 59, 0
4, 218743, Note_on_c, 9, 59, 34
4, 218826, Note_on_c, 9, 59, 0
4, 218924, Note_on_c, 9, 59, 49
4, 219202, Note_on_c, 9, 59, 0
4, 219734, Note_on_c, 9, 59, 30
4, 219837, Note_on_c, 9, 59, 0
4, 219925, Note_on_c, 9, 59, 43
4, 220099, Note_on_c, 9, 59, 0
4, 220227, Note_on_c, 9, 59, 33
4, 220288, Note_on_c, 9, 59, 0
4, 220679, Note_on_c, 9, 59, 58
4, 220768, Note_on_c, 9, 59, 0
4, 220863, Note_on_c, 9, 59, 30
4, 221063, Note_on_c, 9, 59, 0
4, 221307, Note_on_c, 9, 59, 48
4, 221496, Note_on_c, 9, 59, 0
4, 221768, Note_on_c, 9, 59, 40
4, 222116, Note_on_c, 9, 59, 0
4, 222549, Note_on_c, 9, 59, 29
4, 222640, Note_on_c, 9, 59, 0
4, 222725, Note_on_c, 9, 59, 25
4, 223012, Note_on_c, 9, 59, 0
4, 223213, Note_on_c, 9, 59, 40
4, 223413, Note_on_c, 9, 59, 0
4, 223551, Note_on_c, 9, 59, 21
4, 223658, Note_on_c, 9, 59, 0
4, 223726, Note_on_c, 9, 59, 28
4, 224032, Note_on_c, 9, 59, 0
4, 224486, Note_on_c, 9, 59, 39
4, 224551, Note_on_c, 9, 59, 0
4, 224671, Note_on_c, 9, 59, 25
4, 224901, Note_on_c, 9, 59, 0
4, 225444, Note_on_c, 9, 59, 53
4, 225483, Note_on_c, 9, 59, 0
4, 225601, Note_on_c, 9, 59, 45
4, 225841, Note_on_c, 9, 59, 0
4, 226067, Note_on_c, 9, 59, 47
4, 226326, Note_on_c, 9, 59, 0
4, 226561, Note_on_c, 9, 59, 49
4, 226826, Note_on_c, 9, 59, 0
4, 227075, Note_on_c, 9, 59, 13
4, 227236, Note_on_c, 9, 59, 0
4, 227346, Note_on_c, 9, 59, 29
4, 227439, Note_on_c, 9, 59, 0
4, 227536, Note_on_c, 9, 59, 41
4, 227807, Note_on_c, 9, 59, 0
4, 228305, Note_on_c, 9, 59, 23
4, 228393, Note_on_c, 9, 59, 0
4, 228497, Note_on_c, 9, 59, 41
4, 228834, Note_on_c, 9, 59, 0
4, 228978, Note_on_c, 9, 59, 24
4, 229037, Note_on_c, 9, 59, 0
4, 229313, Note_on_c, 9, 59, 30
4, 229373, Note_on_c, 9, 59, 0
4, 229480, Note_on_c, 9, 59, 30
4, 229743, Note_on_c, 9, 59, 0
4, 229945, Note_on_c, 9, 59, 47
4, 229989, Note_on_c, 9, 59, 0
4, 230270, Note_on_c, 9, 59, 51
4, 230377, Note_on_c, 9, 59, 0
4, 230467, Note_on_c, 9, 59, 41
4, 230750, Note_on_c, 9, 59, 0
4, 231193, Note_on_c, 9, 59, 40
4, 231248, Note_on_c, 9, 59, 0
4, 231391, Note_on_c, 9, 59, 26
4, 231562, Note_on_c, 9, 59, 0
4, 231712, Note_on_c, 9, 59, 45
4, 231817, Note_on_c, 9, 59, 0
4, 232192, Note_on_c, 9, 59, 31
4, 232259, Note_on_c, 9, 59, 0
4, 232369, Note_on_c, 9, 59, 34
4, 232594, Note_on_c, 9, 59, 0
4, 232699, Note_on_c, 9, 59, 41
4, 232791, Note_on_c, 9, 59, 0
4, 233180, Note_on_c, 9, 59, 72
4, 233555, Note_on_c, 9, 59, 0
4, 233698, Note_on_c, 9, 59, 33
4, 233747, Note_on_c, 9, 59, 0
4, 233885, Note_on_c, 9, 59, 20
4, 234015, Note_on_c, 9, 59, 0
4, 234141, Note_on_c, 9, 59, 54
4, 234227, Note_on_c, 9, 59, 0
4, 234324, Note_on_c, 9, 59, 48
4, 234639, Note_on_c, 9, 59, 0
4, 234797, Note_on_c, 9, 59, 35
4, 234958, Note_on_c, 9, 59, 0
4, 235096, Note_on_c, 9, 59, 15
4, 235163, Note_on_c, 9, 59, 0
4, 235248, Note_on_c, 9, 59, 37
4, 235582, Note_on_c, 9, 59, 0
4, 235734, Note_on_c, 9, 59, 21
4, 235920, Note_on_c, 9, 59, 0
4, 236052, Note_on_c, 9, 59, 19
4, 236124, Note_on_c, 9, 59, 0
4, 236207, Note_on_c, 9, 59, 33
4, 236539, Note_on_c, 9, 59, 0
4, 236687, Note_on_c, 9, 59, 36
4, 236871, Note_on_c, 9, 59, 0
4, 237002, Note_on_c, 9, 59, 26
4, 237099, Note_on_c, 9, 59, 0
4, 237191, Note_on_c, 9, 59, 46
4, 237526, Note_on_c, 9, 59, 0
4, 237942, Note_on_c, 9, 59, 45
4, 238139, Note_on_c, 9, 59, 0
4, 238437, Note_on_c, 9, 59, 28
4, 238511, Note_on_c, 9, 59, 0
4, 238602, Note_on_c, 9, 59, 46
4, 238816, Note_on_c, 9, 59, 0
4, 239072, Note_on_c, 9, 59, 56
4, 239367, Note_on_c, 9, 59, 0
4, 239569, Note_on_c, 9, 59, 31
4, 239617, Note_on_c, 9, 59, 0
4, 239855, Note_on_c, 9, 59, 65
4, 240098, Note_on_c, 9, 59, 0
4, 240371, Note_on_c, 9, 59, 27
4, 240421, Note_on_c, 9, 59, 0
4, 240582, Note_on_c, 9, 59, 38
4, 240630, Note_on_c, 9, 59, 0
4, 240862, Note_on_c, 9, 59, 72
4, 240968, Note_on_c, 9, 59, 0
4, 241061, Note_on_c, 9, 59, 62
4, 241273, Note_on_c, 9, 59, 0
4, 241772, Note_on_c, 9, 59, 42
4, 241818, Note_on_c, 9, 59, 0
4, 241942, Note_on_c, 9, 59, 65
4, 242609, Note_on_c, 9, 59, 0
4, 242747, Note_on_c, 9, 59, 37
4, 242794, Note_on_c, 9, 59, 0
4, 242917, Note_on_c, 9, 59, 53
4, 243234, Note_on_c, 9, 59, 0
4, 243391, Note_on_c, 9, 59, 31
4, 243438, Note_on_c, 9, 59, 0
4, 243873, Note_on_c, 9, 59, 31
4, 244222, Note_on_c, 9, 59, 0
4, 244697, Note_on_c, 9, 59, 41
4, 244751, Note_on_c, 9, 59, 0
4, 244867, Note_on_c, 9, 59, 27
4, 245089, Note_on_c, 9, 59, 0
4, 245298, Note_on_c, 9, 59, 1
4, 245545, Note_on_c, 9, 59, 0
4, 245637, Note_on_c, 9, 59, 32
4, 245706, Note_on_c, 9, 59, 0
4, 245806, Note_on_c, 9, 59, 39
4, 246092, Note_on_c, 9, 59, 0
4, 246277, Note_on_c, 9, 59, 39
4, 246494, Note_on_c, 9, 59, 0
4, 246610, Note_on_c, 9, 59, 18
4, 246678, Note_on_c, 9, 59, 0
4, 246754, Note_on_c, 9, 59, 37
4, 247113, Note_on_c, 9, 59, 0
4, 247246, Note_on_c, 9, 59, 17
4, 247383, Note_on_c, 9, 59, 0
4, 247548, Note_on_c, 9, 59, 34
4, 247606, Note_on_c, 9, 59, 0
4, 247717, Note_on_c, 9, 59, 39
4, 248001, Note_on_c, 9, 59, 0
4, 248149, Note_on_c, 9, 59, 41
4, 248288, Note_on_c, 9, 59, 0
4, 248478, Note_on_c, 9, 59, 36
4, 248560, Note_on_c, 9, 59, 0
4, 248658, Note_on_c, 9, 59, 41
4, 248974, Note_on_c, 9, 59, 0
4, 249404, Note_on_c, 9, 59, 42
4, 249475, Note_on_c, 9, 59, 0
4, 249581, Note_on_c, 9, 59, 35
4, 249820, Note_on_c, 9, 59, 0
4, 249911, Note_on_c, 9, 59, 42
4, 249965, Note_on_c, 9, 59, 0
4, 250417, Note_on_c, 9, 59, 39
4, 250471, Note_on_c, 9, 59, 0
4, 250584, Note_on_c, 9, 59, 39
4, 250854, Note_on_c, 9, 59, 0
4, 251377, Note_on_c, 9, 59, 71
4, 251706, Note_on_c, 9, 59, 0
4, 251899, Note_on_c, 9, 59, 28
4, 251951, Note_on_c, 9, 59, 0
4, 252049, Note_on_c, 9, 59, 48
4, 252415, Note_on_c, 9, 59, 0
4, 252533, Note_on_c, 9, 59, 48
4, 252764, Note_on_c, 9, 59, 0
4, 252879, Note_on_c, 9, 59, 15
4, 252928, Note_on_c, 9, 59, 0
4, 253321, Note_on_c, 9, 59, 50
4, 253433, Note_on_c, 9, 59, 0
4, 253507, Note_on_c, 9, 59, 45
4, 253712, Note_on_c, 9, 59, 0
4, 253837, Note_on_c, 9, 59, 27
4, 253895, Note_on_c, 9, 59, 0
4, 253971, Note_on_c, 9, 59, 40
4, 254026, Note_on_c, 9, 59, 0
4, 254074, Note_on_c, 9, 59, 11
4, 254200, Note_on_c, 9, 59, 0
4, 254309, Note_on_c, 9, 59, 55
4, 254708, Note_on_c, 9, 59, 0
4, 254778, Note_on_c, 9, 59, 29
4, 254828, Note_on_c, 9, 59, 0
4, 254924, Note_on_c, 9, 59, 39
4, 255212, Note_on_c, 9, 59, 0
4, 255420, Note_on_c, 9, 59, 52
4, 255632, Note_on_c, 9, 59, 0
4, 255890, Note_on_c, 9, 59, 43
4, 256118, Note_on_c, 9, 59, 0
4, 256222, Note_on_c, 9, 59, 35
4, 256289, Note_on_c, 9, 59, 0
4, 256381, Note_on_c, 9, 59, 31
4, 256627, Note_on_c, 9, 59, 0
4, 256848, Note_on_c, 9, 59, 78
4, 257257, Note_on_c, 9, 59, 0
4, 257352, Note_on_c, 9, 59, 29
4, 257403, Note_on_c, 9, 59, 0
4, 257633, Note_on_c, 9, 59, 39
4, 257685, Note_on_c, 9, 59, 0
4, 257797, Note_on_c, 9, 59, 35
4, 258080, Note_on_c, 9, 59, 0
4, 258282, Note_on_c, 9, 59, 53
4, 258552, Note_on_c, 9, 59, 0
4, 258777, Note_on_c, 9, 59, 24
4, 258889, Note_on_c, 9, 59, 0
4, 259093, Note_on_c, 9, 59, 56
4, 259464, Note_on_c, 9, 59, 0
4, 259565, Note_on_c, 9, 59, 23
4, 259639, Note_on_c, 9, 59, 0
4, 259737, Note_on_c, 9, 59, 41
4, 259928, Note_on_c, 9, 59, 0
4, 260050, Note_on_c, 9, 59, 40
4, 260155, Note_on_c, 9, 59, 0
4, 260231, Note_on_c, 9, 59, 39
4, 260455, Note_on_c, 9, 59, 0
4, 260709, Note_on_c, 9, 59, 44
4, 260918, Note_on_c, 9, 59, 0
4, 261024, Note_on_c, 9, 59, 28
4, 261088, Note_on_c, 9, 59, 0
4, 261209, Note_on_c, 9, 59, 48
4, 261491, Note_on_c, 9, 59, 0
4, 261669, Note_on_c, 9, 59, 60
4, 261906, Note_on_c, 9, 59, 0
4, 261995, Note_on_c, 9, 59, 31
4, 262083, Note_on_c, 9, 59, 0
4, 262156, Note_on_c, 9, 59, 51
4, 262434, Note_on_c, 9, 59, 0
4, 262897, Note_on_c, 9, 59, 28
4, 262970, Note_on_c, 9, 59, 0
4, 263060, Note_on_c, 9, 59, 42
4, 263275, Note_on_c, 9, 59, 0
4, 263545, Note_on_c, 9, 59, 44
4, 263709, Note_on_c, 9, 59, 0
4, 263816, Note_on_c, 9, 59, 32
4, 263879, Note_on_c, 9, 59, 0
4, 264007, Note_on_c, 9, 59, 49
4, 264227, Note_on_c, 9, 59, 0
4, 264771, Note_on_c, 9, 59, 46
4, 264858, Note_on_c, 9, 59, 0
4, 264943, Note_on_c, 9, 59, 49
4, 265156, Note_on_c, 9, 59, 0
4, 265431, Note_on_c, 9, 59, 73
4, 265895, Note_on_c, 9, 59, 0
4, 266226, Note_on_c, 9, 59, 44
4, 266328, Note_on_c, 9, 59, 0
4, 266416, Note_on_c, 9, 59, 41
4, 266661, Note_on_c, 9, 59, 0
4, 266933, Note_on_c, 9, 59, 65
4, 267152, Note_on_c, 9, 59, 0
4, 267415, Note_on_c, 9, 59, 46
4, 267538, Note_on_c, 9, 59, 0
4, 267715, Note_on_c, 9, 59, 52
4, 267864, Note_on_c, 9, 59, 0
4, 268205, Note_on_c, 9, 59, 45
4, 268318, Note_on_c, 9, 59, 0
4, 268415, Note_on_c, 9, 59, 30
4, 268586, Note_on_c, 9, 59, 0
4, 268912, Note_on_c, 9, 59, 69
4, 269194, Note_on_c, 9, 59, 0
4, 269714, Note_on_c, 9, 59, 59
4, 269872, Note_on_c, 9, 59, 0
4, 270355, Note_on_c, 9, 59, 50
4, 270620, Note_on_c, 9, 59, 0
4, 270835, Note_on_c, 9, 59, 22
4, 270879, Note_on_c, 9, 59, 0
4, 271137, Note_on_c, 9, 59, 53
4, 271314, Note_on_c, 9, 59, 0
4, 271601, Note_on_c, 9, 59, 33
4, 271679, Note_on_c, 9, 59, 0
4, 271791, Note_on_c, 9, 59, 49
4, 272037, Note_on_c, 9, 59, 0
4, 272243, Note_on_c, 9, 59, 36
4, 272286, Note_on_c, 9, 59, 0
4, 272545, Note_on_c, 9, 59, 72
4, 272656, Note_on_c, 9, 59, 0
4, 272749, Note_on_c, 9, 59, 45
4, 272950, Note_on_c, 9, 59, 0
4, 273197, Note_on_c, 9, 59, 35
4, 273373, Note_on_c, 9, 59, 0
4, 273691, Note_on_c, 9, 59, 35
4, 273853, Note_on_c, 9, 59, 0
4, 274465, Note_on_c, 9, 59, 21
4, 274565, Note_on_c, 9, 59, 0
4, 274630, Note_on_c, 9, 59, 28
4, 274794, Note_on_c, 9, 59, 0
4, 275449, Note_on_c, 9, 59, 17
4, 275532, Note_on_c, 9, 59, 0
4, 275620, Note_on_c, 9, 59, 25
4, 275883, Note_on_c, 9, 59, 0
4, 276400, Note_on_c, 9, 59, 38
4, 276458, Note_on_c, 9, 59, 0
4, 276584, Note_on_c, 9, 59, 43
4, 276800, Note_on_c, 9, 59, 0
4, 277812, Note_on_c, 9, 59, 39
4, 277872, Note_on_c, 9, 59, 0
4, 278015, Note_on_c, 9, 59, 22
4, 278237, Note_on_c, 9, 59, 0
4, 278488, Note_on_c, 9, 59, 46
4, 278643, Note_on_c, 9, 59, 0
4, 278767, Note_on_c, 9, 59, 29
4, 278834, Note_on_c, 9, 59, 0
4, 278963, Note_on_c, 9, 59, 26
4, 279085, Note_on_c, 9, 59, 0
4, 279434, Note_on_c, 9, 59, 55
4, 279715, Note_on_c, 9, 59, 0
4, 279898, Note_on_c, 9, 59, 37
4, 279963, Note_on_c, 9, 59, 0
4, 280188, Note_on_c, 9, 59, 40
4, 280302, Note_on_c, 9, 59, 0
4, 280386, Note_on_c, 9, 59, 42
4, 280462, Note_on_c, 9, 59, 0
4, 280855, Note_on_c, 9, 59, 56
4, 280932, Note_on_c, 9, 59, 0
4, 281347, Note_on_c, 9, 59, 32
4, 281630, Note_on_c, 9, 59, 0
4, 282305, Note_on_c, 9, 59, 23
4, 282352, Note_on_c, 9, 59, 0
4, 282592, Note_on_c, 9, 59, 49
4, 282669, Note_on_c, 9, 59, 0
4, 282800, Note_on_c, 9, 59, 43
4, 282906, Note_on_c, 9, 59, 0
4, 283245, Note_on_c, 9, 59, 46
4, 283561, Note_on_c, 9, 59, 0
4, 283952, Note_on_c, 9, 59, 41
4, 284012, Note_on_c, 9, 59, 0
4, 284160, Note_on_c, 9, 59, 23
4, 284333, Note_on_c, 9, 59, 0
4, 284415, Note_on_c, 9, 59, 27
4, 284511, Note_on_c, 9, 59, 0
4, 284612, Note_on_c, 9, 59, 30
4, 284898, Note_on_c, 9, 59, 0
4, 285136, Note_on_c, 9, 59, 46
4, 285798, Note_on_c, 9, 59, 0
4, 285888, Note_on_c, 9, 59, 33
4, 285978, Note_on_c, 9, 59, 0
4, 286098, Note_on_c, 9, 59, 31
4, 286750, Note_on_c, 9, 59, 0
4, 286873, Note_on_c, 9, 59, 42
4, 286973, Note_on_c, 9, 59, 0
4, 287069, Note_on_c, 9, 59, 38
4, 287437, Note_on_c, 9, 59, 0
4, 287576, Note_on_c, 9, 59, 48
4, 287904, Note_on_c, 9, 59, 0
4, 288052, Note_on_c, 9, 59, 49
4, 288733, Note_on_c, 9, 59, 0
4, 288956, Note_on_c, 9, 59, 49
4, 289163, Note_on_c, 9, 59, 0
4, 289263, Note_on_c, 9, 59, 22
4, 289376, Note_on_c, 9, 59, 0
4, 289471, Note_on_c, 9, 59, 41
4, 289777, Note_on_c, 9, 59, 0
4, 289958, Note_on_c, 9, 59, 51
4, 290625, Note_on_c, 9, 59, 0
4, 290754, Note_on_c, 9, 59, 40
4, 290861, Note_on_c, 9, 59, 0
4, 290962, Note_on_c, 9, 59, 30
4, 291175, Note_on_c, 9, 59, 0
4, 291245, Note_on_c, 9, 59, 32
4, 291304, Note_on_c, 9, 59, 0
4, 291436, Note_on_c, 9, 59, 30
4, 291720, Note_on_c, 9, 59, 0
4, 291931, Note_on_c, 9, 59, 48
4, 292584, Note_on_c, 9, 59, 0
4, 292721, Note_on_c, 9, 59, 33
4, 292776, Note_on_c, 9, 59, 0
4, 292947, Note_on_c, 9, 59, 25
4, 293063, Note_on_c, 9, 59, 0
4, 293633, Note_on_c, 9, 59, 40
4, 293701, Note_on_c, 9, 59, 0
4, 293834, Note_on_c, 9, 59, 21
4, 294159, Note_on_c, 9, 59, 0
4, 294564, Note_on_c, 9, 59, 36
4, 294621, Note_on_c, 9, 59, 0
4, 294780, Note_on_c, 9, 59, 28
4, 294962, Note_on_c, 9, 59, 0
4, 295087, Note_on_c, 9, 59, 32
4, 295155, Note_on_c, 9, 59, 0
4, 295317, Note_on_c, 9, 59, 15
4, 295510, Note_on_c, 9, 59, 0
4, 295781, Note_on_c, 9, 59, 60
4, 295936, Note_on_c, 9, 59, 0
4, 296071, Note_on_c, 9, 59, 23
4, 296133, Note_on_c, 9, 59, 0
4, 296256, Note_on_c, 9, 59, 30
4, 296459, Note_on_c, 9, 59, 0
4, 296748, Note_on_c, 9, 59, 65
4, 297024, Note_on_c, 9, 59, 0
4, 297237, Note_on_c, 9, 59, 26
4, 297286, Note_on_c, 9, 59, 0
4, 297493, Note_on_c, 9, 59, 64
4, 297562, Note_on_c, 9, 59, 0
4, 297987, Note_on_c, 9, 59, 59
4, 298053, Note_on_c, 9, 59, 0
4, 298174, Note_on_c, 9, 59, 70
4, 298457, Note_on_c, 9, 59, 0
4, 298643, Note_on_c, 9, 59, 32
4, 298686, Note_on_c, 9, 59, 0
4, 298908, Note_on_c, 9, 59, 65
4, 299019, Note_on_c, 9, 59, 0
4, 299115, Note_on_c, 9, 59, 22
4, 299256, Note_on_c, 9, 59, 0
4, 299785, Note_on_c, 9, 59, 51
4, 299871, Note_on_c, 9, 59, 0
4, 299990, Note_on_c, 9, 59, 29
4, 300239, Note_on_c, 9, 59, 0
4, 300484, Note_on_c, 9, 59, 56
4, 300665, Note_on_c, 9, 59, 0
4, 300762, Note_on_c, 9, 59, 26
4, 300822, Note_on_c, 9, 59, 0
4, 300980, Note_on_c, 9, 59, 23
4, 301139, Note_on_c, 9, 59, 0
4, 301436, Note_on_c, 9, 59, 60
4, 302061, Note_on_c, 9, 59, 0
4, 302241, Note_on_c, 9, 59, 37
4, 302344, Note_on_c, 9, 59, 0
4, 302442, Note_on_c, 9, 59, 24
4, 302728, Note_on_c, 9, 59, 0
4, 302887, Note_on_c, 9, 59, 44
4, 303079, Note_on_c, 9, 59, 0
4, 303223, Note_on_c, 9, 59, 28
4, 303287, Note_on_c, 9, 59, 0
4, 303381, Note_on_c, 9, 59, 25
4, 303703, Note_on_c, 9, 59, 0
4, 303871, Note_on_c, 9, 59, 26
4, 304083, Note_on_c, 9, 59, 0
4, 304214, Note_on_c, 9, 59, 22
4, 304276, Note_on_c, 9, 59, 0
4, 304368, Note_on_c, 9, 59, 48
4, 305062, Note_on_c, 9, 59, 0
4, 305159, Note_on_c, 9, 59, 36
4, 305255, Note_on_c, 9, 59, 0
4, 305343, Note_on_c, 9, 59, 41
4, 306037, Note_on_c, 9, 59, 0
4, 306135, Note_on_c, 9, 59, 37
4, 306195, Note_on_c, 9, 59, 0
4, 306308, Note_on_c, 9, 59, 38
4, 306514, Note_on_c, 9, 59, 0
4, 306612, Note_on_c, 9, 59, 36
4, 306659, Note_on_c, 9, 59, 0
4, 306775, Note_on_c, 9, 59, 52
4, 307092, Note_on_c, 9, 59, 0
4, 307272, Note_on_c, 9, 59, 55
4, 307736, Note_on_c, 9, 59, 0
4, 308052, Note_on_c, 9, 59, 27
4, 308114, Note_on_c, 9, 59, 0
4, 308225, Note_on_c, 9, 59, 42
4, 308909, Note_on_c, 9, 59, 0
4, 308998, Note_on_c, 9, 59, 32
4, 309066, Note_on_c, 9, 59, 0
4, 309180, Note_on_c, 9, 59, 37
4, 309425, Note_on_c, 9, 59, 0
4, 309660, Note_on_c, 9, 59, 55
4, 309884, Note_on_c, 9, 59, 0
4, 309975, Note_on_c, 9, 59, 28
4, 310042, Note_on_c, 9, 59, 0
4, 310126, Note_on_c, 9, 59, 52
4, 310453, Note_on_c, 9, 59, 0
4, 310580, Note_on_c, 9, 59, 61
4, 310867, Note_on_c, 9, 59, 0
4, 311082, Note_on_c, 9, 59, 40
4, 311267, Note_on_c, 9, 59, 0
4, 311421, Note_on_c, 9, 59, 21
4, 311522, Note_on_c, 9, 59, 0
4, 311607, Note_on_c, 9, 59, 42
4, 311867, Note_on_c, 9, 59, 0
4, 312101, Note_on_c, 9, 59, 58
4, 312431, Note_on_c, 9, 59, 0
4, 312901, Note_on_c, 9, 59, 56
4, 313025, Note_on_c, 9, 59, 0
4, 313109, Note_on_c, 9, 59, 37
4, 313152, Note_on_c, 9, 59, 0
4, 313400, Note_on_c, 9, 59, 57
4, 313491, Note_on_c, 9, 59, 0
4, 313833, Note_on_c, 9, 59, 56
4, 313908, Note_on_c, 9, 59, 0
4, 314003, Note_on_c, 9, 59, 46
4, 314284, Note_on_c, 9, 59, 0
4, 314732, Note_on_c, 9, 59, 45
4, 314780, Note_on_c, 9, 59, 0
4, 314899, Note_on_c, 9, 59, 42
4, 315183, Note_on_c, 9, 59, 0
4, 315441, Note_on_c, 9, 59, 6
4, 315579, Note_on_c, 9, 59, 0
4, 315708, Note_on_c, 9, 59, 37
4, 315765, Note_on_c, 9, 59, 0
4, 315886, Note_on_c, 9, 59, 41
4, 316177, Note_on_c, 9, 59, 0
4, 316671, Note_on_c, 9, 59, 54
4, 316775, Note_on_c, 9, 59, 0
4, 316868, Note_on_c, 9, 59, 28
4, 317018, Note_on_c, 9, 59, 0
4, 317170, Note_on_c, 9, 59, 47
4, 317263, Note_on_c, 9, 59, 0
4, 317353, Note_on_c, 9, 59, 22
4, 317569, Note_on_c, 9, 59, 0
4, 317849, Note_on_c, 9, 59, 59
4, 318151, Note_on_c, 9, 59, 0
4, 318314, Note_on_c, 9, 59, 27
4, 318364, Note_on_c, 9, 59, 0
4, 318627, Note_on_c, 9, 59, 44
4, 318722, Note_on_c, 9, 59, 0
4, 318812, Note_on_c, 9, 59, 45
4, 319058, Note_on_c, 9, 59, 0
4, 319309, Note_on_c, 9, 59, 49
4, 319467, Note_on_c, 9, 59, 0
4, 319637, Note_on_c, 9, 59, 33
4, 319698, Note_on_c, 9, 59, 0
4, 319816, Note_on_c, 9, 59, 50
4, 320095, Note_on_c, 9, 59, 0
4, 320312, Note_on_c, 9, 59, 76
4, 320702, Note_on_c, 9, 59, 0
4, 321071, Note_on_c, 9, 59, 40
4, 321130, Note_on_c, 9, 59, 0
4, 321262, Note_on_c, 9, 59, 43
4, 321497, Note_on_c, 9, 59, 0
4, 321736, Note_on_c, 9, 59, 68
4, 322064, Note_on_c, 9, 59, 0
4, 322223, Note_on_c, 9, 59, 27
4, 322277, Note_on_c, 9, 59, 0
4, 322494, Note_on_c, 9, 59, 49
4, 322569, Note_on_c, 9, 59, 0
4, 322701, Note_on_c, 9, 59, 56
4, 322950, Note_on_c, 9, 59, 0
4, 323483, Note_on_c, 9, 59, 34
4, 323552, Note_on_c, 9, 59, 0
4, 323703, Note_on_c, 9, 59, 42
4, 323922, Note_on_c, 9, 59, 0
4, 324161, Note_on_c, 9, 59, 26
4, 324278, Note_on_c, 9, 59, 0
4, 324463, Note_on_c, 9, 59, 35
4, 324563, Note_on_c, 9, 59, 0
4, 324910, Note_on_c, 9, 59, 30
4, 324979, Note_on_c, 9, 59, 0
4, 325136, Note_on_c, 9, 59, 29
4, 325351, Note_on_c, 9, 59, 0
4, 325585, Note_on_c, 9, 59, 32
4, 325828, Note_on_c, 9, 59, 0
4, 326048, Note_on_c, 9, 59, 28
4, 326166, Note_on_c, 9, 59, 0
4, 326288, Note_on_c, 9, 59, 23
4, 326368, Note_on_c, 9, 59, 0
4, 326490, Note_on_c, 9, 59, 32
4, 326718, Note_on_c, 9, 59, 0
4, 327006, Note_on_c, 9, 59, 22
4, 327134, Note_on_c, 9, 59, 0
4, 327238, Note_on_c, 9, 59, 25
4, 327350, Note_on_c, 9, 59, 0
4, 327464, Note_on_c, 9, 59, 40
4, 327759, Note_on_c, 9, 59, 0
4, 328185, Note_on_c, 9, 59, 34
4, 328284, Note_on_c, 9, 59, 0
4, 328405, Note_on_c, 9, 59, 26
4, 328566, Note_on_c, 9, 59, 0
4, 328667, Note_on_c, 9, 59, 36
4, 328752, Note_on_c, 9, 59, 0
4, 328892, Note_on_c, 9, 59, 46
4, 329171, Note_on_c, 9, 59, 0
4, 329379, Note_on_c, 9, 59, 43
4, 330039, Note_on_c, 9, 59, 0
4, 330141, Note_on_c, 9, 59, 31
4, 330251, Note_on_c, 9, 59, 0
4, 330357, Note_on_c, 9, 59, 27
4, 330629, Note_on_c, 9, 59, 0
4, 330858, Note_on_c, 9, 59, 34
4, 331031, Note_on_c, 9, 59, 0
4, 331357, Note_on_c, 9, 59, 32
4, 331512, Note_on_c, 9, 59, 0
4, 331602, Note_on_c, 9, 59, 26
4, 331682, Note_on_c, 9, 59, 0
4, 331800, Note_on_c, 9, 59, 25
4, 332041, Note_on_c, 9, 59, 0
4, 332550, Note_on_c, 9, 59, 24
4, 332664, Note_on_c, 9, 59, 0
4, 332773, Note_on_c, 9, 59, 36
4, 332981, Note_on_c, 9, 59, 0
4, 333276, Note_on_c, 9, 59, 28
4, 333750, Note_on_c, 9, 59, 0
4, 334200, Note_on_c, 9, 59, 23
4, 334267, Note_on_c, 9, 59, 0
4, 334444, Note_on_c, 9, 59, 27
4, 334549, Note_on_c, 9, 59, 0
4, 334656, Note_on_c, 9, 59, 25
4, 334794, Note_on_c, 9, 59, 0
4, 335125, Note_on_c, 9, 59, 10
4, 335230, Note_on_c, 9, 59, 0
4, 335572, Note_on_c, 9, 59, 19
4, 337660, Note_on_c, 9, 59, 0
4, 337782, Note_on_c, 9, 59, 28
4, 337884, Note_on_c, 9, 59, 0
4, 338016, Note_on_c, 9, 59, 15
4, 338195, Note_on_c, 9, 59, 0
4, 338522, Note_on_c, 9, 59, 20
4, 339512, Note_on_c, 9, 59, 0
4, 339750, Note_on_c, 9, 59, 23
4, 339835, Note_on_c, 9, 59, 0
4, 339963, Note_on_c, 9, 59, 18
4, 341542, Note_on_c, 9, 59, 0
4, 341643, Note_on_c, 9, 59, 26
4, 341746, Note_on_c, 9, 59, 0
4, 341864, Note_on_c, 9, 59, 21
4, 343487, Note_on_c, 9, 59, 0
4, 343757, Note_on_c, 9, 59, 20
4, 344000, Note_on_c, 9, 59, 0
4, 344285, Note_on_c, 9, 59, 13
4, 345596, Note_on_c, 9, 59, 0
4, 346774, Note_on_c, 9, 59, 13
4, 346977, Note_on_c, 9, 59, 0
4, 347255, Note_on_c, 9, 59, 15
4, 349168, Note_on_c, 9, 59, 0
4, 349168, End_track
5, 0, Start_track
5, 0, Title_t, "Hits"
5, 0, Program_c, 9, 40
5, 0, Control_c, 9, 7, 97
5, 80, Note_on_c, 9, 59, 33
5, 217, Note_on_c, 9, 59, 0
5, 347, Note_on_c, 9, 59, 25
5, 464, Note_on_c, 9, 59, 0
5, 549, Note_on_c, 9, 59, 20
5, 714, Note_on_c, 9, 59, 0
5, 997, Note_on_c, 9, 59, 26
5, 3931, Note_on_c, 9, 59, 0
5, 4329, Note_on_c, 9, 59, 39
5, 4435, Note_on_c, 9, 59, 0
5, 4856, Note_on_c, 9, 59, 36
5, 4949, Note_on_c, 9, 59, 0
5, 5366, Note_on_c, 9, 59, 33
5, 7980, Note_on_c, 9, 59, 0
5, 8129, Note_on_c, 9, 53, 26
5, 8282, Note_on_c, 9, 53, 0
5, 8406, Note_on_c, 9, 59, 28
5, 8704, Note_on_c, 9, 59, 0
5, 8916, Note_on_c, 9, 59, 28
5, 9253, Note_on_c, 9, 59, 0
5, 9421, Note_on_c, 9, 59, 29
5, 12059, Note_on_c, 9, 59, 0
5, 12586, Note_on_c, 9, 59, 35
5, 12707, Note_on_c, 9, 59, 0
5, 13151, Note_on_c, 9, 59, 23
5, 13392, Note_on_c, 9, 59, 0
5, 13747, Note_on_c, 9, 59, 25
5, 14042, Note_on_c, 9, 59, 0
5, 14344, Note_on_c, 9, 59, 17
5, 14638, Note_on_c, 9, 59, 0
5, 15455, Note_on_c, 9, 59, 20
5, 16771, Note_on_c, 9, 59, 0
5, 17288, Note_on_c, 9, 59, 17
5, 18078, Note_on_c, 9, 59, 0
5, 18214, Note_on_c, 9, 53, 21
5, 18587, Note_on_c, 9, 53, 0
5, 20263, Note_on_c, 9, 44, 31
5, 21871, Note_on_c, 9, 44, 0
5, 22463, Note_on_c, 9, 38, 34
5, 22520, Note_on_c, 9, 38, 0
5, 22651, Note_on_c, 9, 38, 19
5, 22750, Note_on_c, 9, 38, 0
5, 23653, Note_on_c, 9, 44, 32
5, 24430, Note_on_c, 9, 39, 25
5, 24473, Note_on_c, 9, 39, 0
5, 26025, Note_on_c, 9, 44, 0
5, 26027, Note_on_c, 9, 46, 14
5, 26877, Note_on_c, 9, 36, 12
5, 26978, Note_on_c, 9, 46, 0
5, 27035, Note_on_c, 9, 36, 0
5, 27350, Note_on_c, 9, 36, 11
5, 27607, Note_on_c, 9, 36, 0
5, 27839, Note_on_c, 9, 44, 28
5, 29636, Note_on_c, 9, 44, 0
5, 29862, Note_on_c, 9, 44, 30
5, 32145, Note_on_c, 9, 44, 0
5, 33753, Note_on_c, 9, 44, 26
5, 34051, Note_on_c, 9, 39, 18
5, 34093, Note_on_c, 9, 39, 0
5, 34506, Note_on_c, 9, 39, 16
5, 34549, Note_on_c, 9, 39, 0
5, 35210, Note_on_c, 9, 44, 0
5, 35546, Note_on_c, 9, 44, 29
5, 37712, Note_on_c, 9, 44, 0
5, 39018, Note_on_c, 9, 44, 19
5, 40482, Note_on_c, 9, 44, 0
5, 40897, Note_on_c, 9, 44, 28
5, 42382, Note_on_c, 9, 44, 0
5, 42783, Note_on_c, 9, 44, 30
5, 42961, Note_on_c, 9, 44, 0
5, 43033, Note_on_c, 9, 38, 19
5, 43141, Note_on_c, 9, 38, 0
5, 43232, Note_on_c, 9, 38, 19
5, 43244, Note_on_c, 9, 44, 26
5, 43387, Note_on_c, 9, 38, 0
5, 46778, Note_on_c, 9, 44, 0
5, 47100, Note_on_c, 9, 44, 28
5, 47370, Note_on_c, 9, 38, 29
5, 47438, Note_on_c, 9, 38, 0
5, 48060, Note_on_c, 9, 38, 27
5, 48121, Note_on_c, 9, 38, 0
5, 48857, Note_on_c, 9, 38, 36
5, 48910, Note_on_c, 9, 38, 0
5, 49057, Note_on_c, 9, 39, 18
5, 49153, Note_on_c, 9, 39, 0
5, 49237, Note_on_c, 9, 44, 0
5, 49335, Note_on_c, 9, 38, 44
5, 49391, Note_on_c, 9, 38, 0
5, 49797, Note_on_c, 9, 38, 40
5, 49919, Note_on_c, 9, 38, 0
5, 50015, Note_on_c, 9, 57, 1
5, 50050, Note_on_c, 9, 36, 8
5, 50898, Note_on_c, 9, 57, 0
5, 50988, Note_on_c, 9, 44, 24
5, 51411, Note_on_c, 9, 36, 0
5, 52887, Note_on_c, 9, 44, 0
5, 52926, Note_on_c, 9, 46, 9
5, 54515, Note_on_c, 9, 46, 0
5, 54839, Note_on_c, 9, 39, 16
5, 54859, Note_on_c, 9, 44, 28
5, 55000, Note_on_c, 9, 39, 0
5, 55120, Note_on_c, 9, 39, 10
5, 55190, Note_on_c, 9, 39, 0
5, 55305, Note_on_c, 9, 39, 6
5, 55407, Note_on_c, 9, 39, 0
5, 55580, Note_on_c, 9, 38, 42
5, 55703, Note_on_c, 9, 38, 0
5, 55795, Note_on_c, 9, 38, 26
5, 55986, Note_on_c, 9, 38, 0
5, 56273, Note_on_c, 9, 36, 10
5, 56361, Note_on_c, 9, 36, 0
5, 57747, Note_on_c, 9, 44, 0
5, 58688, Note_on_c, 9, 44, 33
5, 60583, Note_on_c, 9, 38, 28
5, 60680, Note_on_c, 9, 38, 0
5, 60849, Note_on_c, 9, 38, 24
5, 60899, Note_on_c, 9, 38, 0
5, 61739, Note_on_c, 9, 44, 0
5, 62052, Note_on_c, 9, 44, 21
5, 63154, Note_on_c, 9, 38, 24
5, 63290, Note_on_c, 9, 38, 0
5, 63345, Note_on_c, 9, 38, 13
5, 63494, Note_on_c, 9, 38, 0
5, 64193, Note_on_c, 9, 38, 25
5, 64246, Note_on_c, 9, 38, 0
5, 64336, Note_on_c, 9, 38, 29
5, 64397, Note_on_c, 9, 38, 0
5, 64654, Note_on_c, 9, 38, 41
5, 64702, Note_on_c, 9, 44, 0
5, 64737, Note_on_c, 9, 38, 0
5, 65125, Note_on_c, 9, 36, 17
5, 65189, Note_on_c, 9, 36, 0
5, 65305, Note_on_c, 9, 36, 28
5, 65593, Note_on_c, 9, 36, 0
5, 66301, Note_on_c, 9, 44, 26
5, 66585, Note_on_c, 9, 39, 18
5, 66622, Note_on_c, 9, 39, 0
5, 67268, Note_on_c, 9, 39, 16
5, 67642, Note_on_c, 9, 39, 0
5, 68223, Note_on_c, 9, 46, 17
5, 68226, Note_on_c, 9, 44, 0
5, 69267, Note_on_c, 9, 46, 0
5, 70097, Note_on_c, 9, 44, 32
5, 71173, Note_on_c, 9, 44, 0
5, 71849, Note_on_c, 9, 45, 18
5, 71931, Note_on_c, 9, 45, 0
5, 72035, Note_on_c, 9, 44, 35
5, 72040, Note_on_c, 9, 45, 16
5, 72216, Note_on_c, 9, 45, 0
5, 72341, Note_on_c, 9, 39, 16
5, 72387, Note_on_c, 9, 39, 0
5, 72525, Note_on_c, 9, 43, 17
5, 72617, Note_on_c, 9, 43, 0
5, 72800, Note_on_c, 9, 38, 43
5, 72846, Note_on_c, 9, 38, 0
5, 73009, Note_on_c, 9, 36, 21
5, 73149, Note_on_c, 9, 36, 0
5, 73460, Note_on_c, 9, 36, 18
5, 73599, Note_on_c, 9, 36, 0
5, 74053, Note_on_c, 9, 44, 0
5, 75890, Note_on_c, 9, 44, 35
5, 76867, Note_on_c, 9, 39, 10
5, 76925, Note_on_c, 9, 44, 0
5, 76933, Note_on_c, 9, 39, 0
5, 77330, Note_on_c, 9, 39, 18
5, 77361, Note_on_c, 9, 44, 27
5, 77421, Note_on_c, 9, 39, 0
5, 78912, Note_on_c, 9, 44, 0
5, 79054, Note_on_c, 9, 38, 19
5, 79128, Note_on_c, 9, 38, 0
5, 79264, Note_on_c, 9, 44, 26
5, 79292, Note_on_c, 9, 38, 18
5, 79513, Note_on_c, 9, 38, 0
5, 79790, Note_on_c, 9, 38, 19
5, 79837, Note_on_c, 9, 38, 0
5, 80042, Note_on_c, 9, 38, 36
5, 80109, Note_on_c, 9, 38, 0
5, 80162, Note_on_c, 9, 44, 0
5, 80210, Note_on_c, 9, 46, 13
5, 80293, Note_on_c, 9, 46, 0
5, 80513, Note_on_c, 9, 38, 20
5, 80584, Note_on_c, 9, 38, 0
5, 80740, Note_on_c, 9, 38, 30
5, 81191, Note_on_c, 9, 44, 30
5, 81370, Note_on_c, 9, 44, 0
5, 81664, Note_on_c, 9, 38, 0
5, 83897, Note_on_c, 9, 39, 26
5, 83940, Note_on_c, 9, 39, 0
5, 84076, Note_on_c, 9, 39, 18
5, 84113, Note_on_c, 9, 39, 0
5, 84389, Note_on_c, 9, 38, 37
5, 84487, Note_on_c, 9, 38, 0
5, 84600, Note_on_c, 9, 38, 26
5, 84905, Note_on_c, 9, 38, 0
5, 85044, Note_on_c, 9, 38, 24
5, 85049, Note_on_c, 9, 44, 29
5, 85198, Note_on_c, 9, 44, 0
5, 85573, Note_on_c, 9, 38, 0
5, 87349, Note_on_c, 9, 38, 22
5, 87396, Note_on_c, 9, 38, 0
5, 87531, Note_on_c, 9, 38, 10
5, 87757, Note_on_c, 9, 38, 0
5, 87862, Note_on_c, 9, 38, 19
5, 87905, Note_on_c, 9, 38, 0
5, 88498, Note_on_c, 9, 36, 17
5, 88565, Note_on_c, 9, 36, 0
5, 88884, Note_on_c, 9, 44, 24
5, 89037, Note_on_c, 9, 44, 0
5, 89631, Note_on_c, 9, 38, 29
5, 89681, Note_on_c, 9, 38, 0
5, 89768, Note_on_c, 9, 46, 14
5, 89815, Note_on_c, 9, 36, 9
5, 89915, Note_on_c, 9, 36, 0
5, 89939, Note_on_c, 9, 46, 0
5, 90315, Note_on_c, 9, 36, 12
5, 90431, Note_on_c, 9, 36, 0
5, 92709, Note_on_c, 9, 44, 26
5, 92866, Note_on_c, 9, 44, 0
5, 93449, Note_on_c, 9, 39, 29
5, 93533, Note_on_c, 9, 39, 0
5, 93635, Note_on_c, 9, 38, 29
5, 93683, Note_on_c, 9, 38, 0
5, 95076, Note_on_c, 9, 45, 35
5, 95299, Note_on_c, 9, 45, 0
5, 95368, Note_on_c, 9, 45, 36
5, 95514, Note_on_c, 9, 45, 0
5, 95844, Note_on_c, 9, 38, 51
5, 95886, Note_on_c, 9, 38, 0
5, 96115, Note_on_c, 9, 38, 35
5, 96166, Note_on_c, 9, 38, 0
5, 96521, Note_on_c, 9, 44, 30
5, 96645, Note_on_c, 9, 44, 0
5, 99189, Note_on_c, 9, 39, 13
5, 99230, Note_on_c, 9, 39, 0
5, 99637, Note_on_c, 9, 38, 35
5, 99695, Note_on_c, 9, 38, 0
5, 99872, Note_on_c, 9, 38, 17
5, 100006, Note_on_c, 9, 38, 0
5, 100352, Note_on_c, 9, 44, 32
5, 100503, Note_on_c, 9, 44, 0
5, 100806, Note_on_c, 9, 39, 16
5, 101000, Note_on_c, 9, 39, 0
5, 101111, Note_on_c, 9, 38, 17
5, 101165, Note_on_c, 9, 38, 0
5, 102722, Note_on_c, 9, 39, 25
5, 102947, Note_on_c, 9, 39, 0
5, 103189, Note_on_c, 9, 38, 27
5, 103259, Note_on_c, 9, 38, 0
5, 103466, Note_on_c, 9, 38, 51
5, 103528, Note_on_c, 9, 38, 0
5, 104175, Note_on_c, 9, 44, 39
5, 104332, Note_on_c, 9, 44, 0
5, 104992, Note_on_c, 9, 38, 26
5, 105042, Note_on_c, 9, 38, 0
5, 106121, Note_on_c, 9, 44, 25
5, 106198, Note_on_c, 9, 44, 0
5, 106903, Note_on_c, 9, 38, 51
5, 106942, Note_on_c, 9, 38, 0
5, 107075, Note_on_c, 9, 46, 9
5, 107247, Note_on_c, 9, 46, 0
5, 107404, Note_on_c, 9, 38, 24
5, 107462, Note_on_c, 9, 38, 0
5, 108087, Note_on_c, 9, 44, 24
5, 108213, Note_on_c, 9, 44, 0
5, 108356, Note_on_c, 9, 38, 29
5, 108407, Note_on_c, 9, 38, 0
5, 108587, Note_on_c, 9, 45, 6
5, 108751, Note_on_c, 9, 45, 0
5, 108881, Note_on_c, 9, 45, 25
5, 108934, Note_on_c, 9, 45, 0
5, 109605, Note_on_c, 9, 43, 15
5, 109748, Note_on_c, 9, 43, 0
5, 109896, Note_on_c, 9, 43, 12
5, 109941, Note_on_c, 9, 43, 0
5, 110080, Note_on_c, 9, 44, 30
5, 110202, Note_on_c, 9, 44, 0
5, 110562, Note_on_c, 9, 43, 14
5, 110612, Note_on_c, 9, 43, 0
5, 110840, Note_on_c, 9, 39, 28
5, 110915, Note_on_c, 9, 39, 0
5, 111005, Note_on_c, 9, 44, 26
5, 111155, Note_on_c, 9, 44, 0
5, 111333, Note_on_c, 9, 38, 20
5, 111376, Note_on_c, 9, 38, 0
5, 111412, Note_on_c, 9, 52, 5
5, 111526, Note_on_c, 9, 38, 22
5, 112342, Note_on_c, 9, 52, 0
5, 112462, Note_on_c, 9, 44, 36
5, 112736, Note_on_c, 9, 44, 0
5, 113258, Note_on_c, 9, 38, 0
5, 116277, Note_on_c, 9, 44, 32
5, 116792, Note_on_c, 9, 44, 0
5, 117182, Note_on_c, 9, 39, 9
5, 117240, Note_on_c, 9, 39, 0
5, 117464, Note_on_c, 9, 39, 13
5, 117541, Note_on_c, 9, 39, 0
5, 117684, Note_on_c, 9, 39, 2
5, 117790, Note_on_c, 9, 39, 0
5, 118152, Note_on_c, 9, 44, 30
5, 118380, Note_on_c, 9, 39, 23
5, 118442, Note_on_c, 9, 39, 0
5, 118580, Note_on_c, 9, 39, 15
5, 118689, Note_on_c, 9, 44, 0
5, 118690, Note_on_c, 9, 39, 0
5, 118850, Note_on_c, 9, 36, 16
5, 118953, Note_on_c, 9, 36, 0
5, 119056, Note_on_c, 9, 36, 24
5, 119425, Note_on_c, 9, 36, 0
5, 119539, Note_on_c, 9, 36, 15
5, 121067, Note_on_c, 9, 36, 0
5, 123875, Note_on_c, 9, 44, 31
5, 124175, Note_on_c, 9, 44, 0
5, 125647, Note_on_c, 9, 39, 14
5, 125753, Note_on_c, 9, 39, 0
5, 125869, Note_on_c, 9, 46, 14
5, 125891, Note_on_c, 9, 39, 13
5, 126258, Note_on_c, 9, 39, 0
5, 126367, Note_on_c, 9, 36, 7
5, 126490, Note_on_c, 9, 36, 0
5, 126769, Note_on_c, 9, 46, 0
5, 126806, Note_on_c, 9, 36, 13
5, 128022, Note_on_c, 9, 36, 0
5, 129567, Note_on_c, 9, 44, 28
5, 130485, Note_on_c, 9, 44, 0
5, 131860, Note_on_c, 9, 38, 33
5, 131945, Note_on_c, 9, 38, 0
5, 132170, Note_on_c, 9, 38, 34
5, 132292, Note_on_c, 9, 38, 0
5, 132426, Note_on_c, 9, 38, 28
5, 132739, Note_on_c, 9, 38, 0
5, 132775, Note_on_c, 9, 36, 13
5, 132939, Note_on_c, 9, 36, 0
5, 133112, Note_on_c, 9, 36, 15
5, 133318, Note_on_c, 9, 36, 0
5, 133482, Note_on_c, 9, 36, 15
5, 133636, Note_on_c, 9, 36, 0
5, 133848, Note_on_c, 9, 38, 27
5, 133899, Note_on_c, 9, 38, 0
5, 134245, Note_on_c, 9, 38, 36
5, 134355, Note_on_c, 9, 38, 0
5, 134463, Note_on_c, 9, 38, 28
5, 134776, Note_on_c, 9, 38, 0
5, 134993, Note_on_c, 9, 36, 9
5, 135089, Note_on_c, 9, 36, 0
5, 135476, Note_on_c, 9, 36, 14
5, 135508, Note_on_c, 9, 44, 32
5, 135744, Note_on_c, 9, 36, 0
5, 136015, Note_on_c, 9, 44, 0
5, 137439, Note_on_c, 9, 46, 16
5, 138155, Note_on_c, 9, 46, 0
5, 138879, Note_on_c, 9, 44, 35
5, 140279, Note_on_c, 9, 44, 0
5, 140559, Note_on_c, 9, 45, 12
5, 140612, Note_on_c, 9, 45, 0
5, 140878, Note_on_c, 9, 45, 24
5, 140973, Note_on_c, 9, 45, 0
5, 141161, Note_on_c, 9, 44, 32
5, 141191, Note_on_c, 9, 45, 25
5, 141266, Note_on_c, 9, 45, 0
5, 141511, Note_on_c, 9, 38, 41
5, 141614, Note_on_c, 9, 38, 0
5, 141841, Note_on_c, 9, 38, 47
5, 141975, Note_on_c, 9, 38, 0
5, 142156, Note_on_c, 9, 37, 35
5, 142170, Note_on_c, 9, 52, 39
5, 142223, Note_on_c, 9, 44, 0
5, 143161, Note_on_c, 9, 44, 43
5, 143295, Note_on_c, 9, 52, 0
5, 143760, Note_on_c, 9, 37, 0
5, 144246, Note_on_c, 9, 44, 0
5, 144865, Note_on_c, 9, 38, 51
5, 144946, Note_on_c, 9, 38, 0
5, 145071, Note_on_c, 9, 38, 36
5, 145096, Note_on_c, 9, 44, 45
5, 145398, Note_on_c, 9, 38, 0
5, 145552, Note_on_c, 9, 36, 12
5, 145820, Note_on_c, 9, 36, 0
5, 146074, Note_on_c, 9, 44, 0
5, 147042, Note_on_c, 9, 44, 39
5, 148080, Note_on_c, 9, 44, 0
5, 148903, Note_on_c, 9, 44, 40
5, 149515, Note_on_c, 9, 44, 0
5, 149663, Note_on_c, 9, 39, 16
5, 149710, Note_on_c, 9, 39, 0
5, 149864, Note_on_c, 9, 39, 17
5, 150114, Note_on_c, 9, 39, 0
5, 150135, Note_on_c, 9, 36, 15
5, 150249, Note_on_c, 9, 36, 0
5, 150355, Note_on_c, 9, 36, 7
5, 150570, Note_on_c, 9, 36, 0
5, 150798, Note_on_c, 9, 36, 13
5, 151058, Note_on_c, 9, 36, 0
5, 152258, Note_on_c, 9, 44, 43
5, 152732, Note_on_c, 9, 38, 19
5, 152829, Note_on_c, 9, 38, 0
5, 152976, Note_on_c, 9, 38, 27
5, 153070, Note_on_c, 9, 38, 0
5, 153173, Note_on_c, 9, 38, 30
5, 153277, Note_on_c, 9, 44, 0
5, 153440, Note_on_c, 9, 38, 0
5, 154719, Note_on_c, 9, 44, 35
5, 155089, Note_on_c, 9, 44, 0
5, 158533, Note_on_c, 9, 44, 36
5, 158928, Note_on_c, 9, 44, 0
5, 161205, Note_on_c, 9, 38, 29
5, 161303, Note_on_c, 9, 38, 0
5, 161437, Note_on_c, 9, 38, 10
5, 161620, Note_on_c, 9, 38, 0
5, 161867, Note_on_c, 9, 44, 26
5, 161871, Note_on_c, 9, 36, 11
5, 161957, Note_on_c, 9, 36, 0
5, 162146, Note_on_c, 9, 44, 0
5, 162868, Note_on_c, 9, 46, 11
5, 164553, Note_on_c, 9, 39, 23
5, 164598, Note_on_c, 9, 46, 0
5, 164648, Note_on_c, 9, 39, 0
5, 164974, Note_on_c, 9, 38, 36
5, 165107, Note_on_c, 9, 38, 0
5, 165218, Note_on_c, 9, 36, 18
5, 165403, Note_on_c, 9, 36, 0
5, 165676, Note_on_c, 9, 36, 13
5, 166130, Note_on_c, 9, 44, 26
5, 167085, Note_on_c, 9, 36, 0
5, 167208, Note_on_c, 9, 44, 0
5, 168011, Note_on_c, 9, 44, 29
5, 168069, Note_on_c, 9, 38, 30
5, 168502, Note_on_c, 9, 36, 15
5, 168574, Note_on_c, 9, 38, 0
5, 168832, Note_on_c, 9, 36, 0
5, 168999, Note_on_c, 9, 44, 0
5, 169763, Note_on_c, 9, 39, 25
5, 169881, Note_on_c, 9, 39, 0
5, 169987, Note_on_c, 9, 39, 14
5, 170004, Note_on_c, 9, 44, 29
5, 170404, Note_on_c, 9, 39, 0
5, 170466, Note_on_c, 9, 36, 11
5, 170573, Note_on_c, 9, 44, 0
5, 170836, Note_on_c, 9, 36, 0
5, 171736, Note_on_c, 9, 39, 16
5, 171844, Note_on_c, 9, 39, 0
5, 171881, Note_on_c, 9, 46, 10
5, 171956, Note_on_c, 9, 39, 9
5, 172254, Note_on_c, 9, 39, 0
5, 172292, Note_on_c, 9, 46, 0
5, 172416, Note_on_c, 9, 36, 8
5, 172478, Note_on_c, 9, 36, 0
5, 172653, Note_on_c, 9, 36, 21
5, 172723, Note_on_c, 9, 36, 0
5, 172900, Note_on_c, 9, 36, 24
5, 173098, Note_on_c, 9, 36, 0
5, 173377, Note_on_c, 9, 36, 16
5, 173860, Note_on_c, 9, 44, 24
5, 173874, Note_on_c, 9, 36, 0
5, 174084, Note_on_c, 9, 44, 0
5, 174370, Note_on_c, 9, 44, 24
5, 174939, Note_on_c, 9, 44, 0
5, 176084, Note_on_c, 9, 39, 39
5, 176169, Note_on_c, 9, 39, 0
5, 176230, Note_on_c, 9, 44, 29
5, 176515, Note_on_c, 9, 39, 26
5, 176523, Note_on_c, 9, 44, 0
5, 176627, Note_on_c, 9, 39, 0
5, 176766, Note_on_c, 9, 36, 14
5, 177116, Note_on_c, 9, 36, 0
5, 177297, Note_on_c, 9, 36, 14
5, 178514, Note_on_c, 9, 36, 0
5, 179995, Note_on_c, 9, 39, 21
5, 180117, Note_on_c, 9, 39, 0
5, 180257, Note_on_c, 9, 39, 14
5, 180379, Note_on_c, 9, 39, 0
5, 180498, Note_on_c, 9, 52, 26
5, 180507, Note_on_c, 9, 36, 15
5, 181005, Note_on_c, 9, 52, 0
5, 181330, Note_on_c, 9, 36, 0
5, 181474, Note_on_c, 9, 44, 27
5, 181762, Note_on_c, 9, 44, 0
5, 183171, Note_on_c, 9, 36, 19
5, 183237, Note_on_c, 9, 36, 0
5, 183348, Note_on_c, 9, 36, 10
5, 183767, Note_on_c, 9, 36, 0
5, 185735, Note_on_c, 9, 44, 24
5, 185887, Note_on_c, 9, 44, 0
5, 186041, Note_on_c, 9, 45, 20
5, 186122, Note_on_c, 9, 45, 0
5, 186223, Note_on_c, 9, 45, 26
5, 186612, Note_on_c, 9, 45, 0
5, 186714, Note_on_c, 9, 46, 10
5, 187491, Note_on_c, 9, 43, 23
5, 187527, Note_on_c, 9, 43, 0
5, 187540, Note_on_c, 9, 46, 0
5, 187980, Note_on_c, 9, 38, 53
5, 188052, Note_on_c, 9, 38, 0
5, 188218, Note_on_c, 9, 36, 11
5, 188276, Note_on_c, 9, 36, 0
5, 188605, Note_on_c, 9, 44, 30
5, 188636, Note_on_c, 9, 36, 14
5, 188754, Note_on_c, 9, 44, 0
5, 189098, Note_on_c, 9, 36, 0
5, 189563, Note_on_c, 9, 44, 24
5, 189711, Note_on_c, 9, 44, 0
5, 191342, Note_on_c, 9, 38, 49
5, 191419, Note_on_c, 9, 38, 0
5, 191540, Note_on_c, 9, 38, 20
5, 191618, Note_on_c, 9, 38, 0
5, 191783, Note_on_c, 9, 38, 28
5, 191945, Note_on_c, 9, 38, 0
5, 191974, Note_on_c, 9, 52, 31
5, 191994, Note_on_c, 9, 36, 26
5, 192992, Note_on_c, 9, 52, 0
5, 193444, Note_on_c, 9, 36, 0
5, 195155, Note_on_c, 9, 38, 44
5, 195215, Note_on_c, 9, 38, 0
5, 195605, Note_on_c, 9, 38, 44
5, 195733, Note_on_c, 9, 38, 0
5, 195793, Note_on_c, 9, 36, 17
5, 196021, Note_on_c, 9, 36, 0
5, 196368, Note_on_c, 9, 44, 24
5, 196582, Note_on_c, 9, 44, 0
5, 197335, Note_on_c, 9, 46, 10
5, 198358, Note_on_c, 9, 46, 0
5, 199493, Note_on_c, 9, 37, 53
5, 199560, Note_on_c, 9, 37, 0
5, 199671, Note_on_c, 9, 36, 21
5, 199788, Note_on_c, 9, 36, 0
5, 200008, Note_on_c, 9, 36, 15
5, 200122, Note_on_c, 9, 36, 0
5, 200689, Note_on_c, 9, 37, 26
5, 200729, Note_on_c, 9, 44, 27
5, 200837, Note_on_c, 9, 37, 0
5, 201011, Note_on_c, 9, 44, 0
5, 204539, Note_on_c, 9, 44, 22
5, 204726, Note_on_c, 9, 44, 0
5, 206483, Note_on_c, 9, 45, 17
5, 206630, Note_on_c, 9, 45, 0
5, 206779, Note_on_c, 9, 45, 24
5, 206842, Note_on_c, 9, 45, 0
5, 208212, Note_on_c, 9, 45, 41
5, 208299, Note_on_c, 9, 45, 0
5, 208372, Note_on_c, 9, 45, 35
5, 208406, Note_on_c, 9, 44, 25
5, 208620, Note_on_c, 9, 45, 0
5, 208639, Note_on_c, 9, 44, 0
5, 209138, Note_on_c, 9, 43, 24
5, 209183, Note_on_c, 9, 43, 0
5, 209310, Note_on_c, 9, 43, 21
5, 209535, Note_on_c, 9, 43, 0
5, 209817, Note_on_c, 9, 46, 18
5, 210303, Note_on_c, 9, 45, 32
5, 210389, Note_on_c, 9, 45, 0
5, 210619, Note_on_c, 9, 38, 48
5, 210705, Note_on_c, 9, 38, 0
5, 210841, Note_on_c, 9, 46, 0
5, 211102, Note_on_c, 9, 38, 40
5, 211163, Note_on_c, 9, 38, 0
5, 211290, Note_on_c, 9, 36, 22
5, 211299, Note_on_c, 9, 52, 52
5, 212288, Note_on_c, 9, 44, 22
5, 212484, Note_on_c, 9, 44, 0
5, 213001, Note_on_c, 9, 52, 0
5, 213089, Note_on_c, 9, 39, 32
5, 213161, Note_on_c, 9, 36, 0
5, 213175, Note_on_c, 9, 39, 0
5, 213267, Note_on_c, 9, 39, 23
5, 213559, Note_on_c, 9, 39, 0
5, 213603, Note_on_c, 9, 44, 26
5, 213613, Note_on_c, 9, 36, 30
5, 213733, Note_on_c, 9, 36, 0
5, 213835, Note_on_c, 9, 44, 0
5, 214162, Note_on_c, 9, 36, 27
5, 215533, Note_on_c, 9, 44, 22
5, 215782, Note_on_c, 9, 44, 0
5, 216019, Note_on_c, 9, 36, 0
5, 216472, Note_on_c, 9, 44, 29
5, 216699, Note_on_c, 9, 44, 0
5, 218257, Note_on_c, 9, 45, 21
5, 218304, Note_on_c, 9, 45, 0
5, 218446, Note_on_c, 9, 44, 30
5, 218624, Note_on_c, 9, 44, 0
5, 218783, Note_on_c, 9, 36, 22
5, 218878, Note_on_c, 9, 36, 0
5, 218995, Note_on_c, 9, 36, 15
5, 219167, Note_on_c, 9, 36, 0
5, 223221, Note_on_c, 9, 44, 26
5, 223385, Note_on_c, 9, 44, 0
5, 223691, Note_on_c, 9, 53, 18
5, 223841, Note_on_c, 9, 53, 0
5, 224190, Note_on_c, 9, 46, 13
5, 224199, Note_on_c, 9, 36, 15
5, 224262, Note_on_c, 9, 36, 0
5, 225186, Note_on_c, 9, 46, 0
5, 226340, Note_on_c, 9, 53, 26
5, 226396, Note_on_c, 9, 53, 0
5, 226821, Note_on_c, 9, 53, 28
5, 226873, Note_on_c, 9, 53, 0
5, 227287, Note_on_c, 9, 53, 31
5, 227388, Note_on_c, 9, 53, 0
5, 227500, Note_on_c, 9, 53, 27
5, 227551, Note_on_c, 9, 44, 29
5, 227632, Note_on_c, 9, 53, 0
5, 227782, Note_on_c, 9, 44, 0
5, 229508, Note_on_c, 9, 44, 30
5, 229771, Note_on_c, 9, 44, 0
5, 231381, Note_on_c, 9, 44, 30
5, 231578, Note_on_c, 9, 44, 0
5, 232864, Note_on_c, 9, 46, 14
5, 233090, Note_on_c, 9, 46, 0
5, 233625, Note_on_c, 9, 36, 17
5, 233731, Note_on_c, 9, 36, 0
5, 234772, Note_on_c, 9, 44, 30
5, 234953, Note_on_c, 9, 44, 0
5, 235068, Note_on_c, 9, 53, 23
5, 235110, Note_on_c, 9, 53, 0
5, 235539, Note_on_c, 9, 53, 44
5, 235581, Note_on_c, 9, 53, 0
5, 236204, Note_on_c, 9, 36, 9
5, 236270, Note_on_c, 9, 36, 0
5, 236675, Note_on_c, 9, 36, 18
5, 236803, Note_on_c, 9, 36, 0
5, 237154, Note_on_c, 9, 44, 42
5, 237257, Note_on_c, 9, 44, 0
5, 237622, Note_on_c, 9, 44, 28
5, 237867, Note_on_c, 9, 44, 0
5, 239077, Note_on_c, 9, 46, 9
5, 240040, Note_on_c, 9, 46, 0
5, 241030, Note_on_c, 9, 44, 30
5, 241204, Note_on_c, 9, 44, 0
5, 241319, Note_on_c, 9, 37, 35
5, 241362, Note_on_c, 9, 37, 0
5, 241762, Note_on_c, 9, 37, 30
5, 241869, Note_on_c, 9, 37, 0
5, 241935, Note_on_c, 9, 57, 9
5, 241948, Note_on_c, 9, 36, 22
5, 242918, Note_on_c, 9, 44, 35
5, 243164, Note_on_c, 9, 44, 0
5, 243209, Note_on_c, 9, 57, 0
5, 243487, Note_on_c, 9, 36, 0
5, 244830, Note_on_c, 9, 44, 28
5, 245089, Note_on_c, 9, 44, 0
5, 245831, Note_on_c, 9, 53, 18
5, 245986, Note_on_c, 9, 53, 0
5, 246759, Note_on_c, 9, 44, 28
5, 246918, Note_on_c, 9, 44, 0
5, 247050, Note_on_c, 9, 53, 38
5, 247097, Note_on_c, 9, 53, 0
5, 247510, Note_on_c, 9, 38, 44
5, 247583, Note_on_c, 9, 38, 0
5, 247983, Note_on_c, 9, 38, 45
5, 248066, Note_on_c, 9, 38, 0
5, 248482, Note_on_c, 9, 36, 25
5, 248522, Note_on_c, 9, 36, 0
5, 248610, Note_on_c, 9, 46, 12
5, 248642, Note_on_c, 9, 36, 21
5, 248939, Note_on_c, 9, 36, 0
5, 248945, Note_on_c, 9, 46, 0
5, 249421, Note_on_c, 9, 38, 37
5, 249471, Note_on_c, 9, 38, 0
5, 249599, Note_on_c, 9, 38, 21
5, 249788, Note_on_c, 9, 38, 0
5, 249921, Note_on_c, 9, 36, 21
5, 250010, Note_on_c, 9, 36, 0
5, 250541, Note_on_c, 9, 44, 35
5, 250563, Note_on_c, 9, 36, 18
5, 250646, Note_on_c, 9, 36, 0
5, 250718, Note_on_c, 9, 44, 0
5, 252313, Note_on_c, 9, 45, 24
5, 252365, Note_on_c, 9, 45, 0
5, 252496, Note_on_c, 9, 44, 26
5, 252529, Note_on_c, 9, 45, 15
5, 252629, Note_on_c, 9, 45, 0
5, 252667, Note_on_c, 9, 44, 0
5, 252788, Note_on_c, 9, 36, 26
5, 252858, Note_on_c, 9, 36, 0
5, 253005, Note_on_c, 9, 46, 16
5, 253486, Note_on_c, 9, 45, 22
5, 253635, Note_on_c, 9, 45, 0
5, 253698, Note_on_c, 9, 46, 0
5, 253784, Note_on_c, 9, 36, 18
5, 253847, Note_on_c, 9, 36, 0
5, 254478, Note_on_c, 9, 36, 18
5, 254550, Note_on_c, 9, 36, 0
5, 254889, Note_on_c, 9, 44, 33
5, 255094, Note_on_c, 9, 44, 0
5, 255890, Note_on_c, 9, 44, 32
5, 256164, Note_on_c, 9, 44, 0
5, 256225, Note_on_c, 9, 45, 36
5, 256310, Note_on_c, 9, 45, 0
5, 256405, Note_on_c, 9, 45, 20
5, 256538, Note_on_c, 9, 45, 0
5, 256699, Note_on_c, 9, 36, 23
5, 256756, Note_on_c, 9, 36, 0
5, 256856, Note_on_c, 9, 44, 35
5, 256885, Note_on_c, 9, 43, 16
5, 257009, Note_on_c, 9, 43, 0
5, 257090, Note_on_c, 9, 44, 0
5, 257227, Note_on_c, 9, 36, 24
5, 257283, Note_on_c, 9, 36, 0
5, 257369, Note_on_c, 9, 36, 35
5, 257620, Note_on_c, 9, 36, 0
5, 257800, Note_on_c, 9, 44, 38
5, 258024, Note_on_c, 9, 44, 0
5, 258597, Note_on_c, 9, 45, 29
5, 258652, Note_on_c, 9, 45, 0
5, 258754, Note_on_c, 9, 36, 15
5, 258775, Note_on_c, 9, 44, 42
5, 258934, Note_on_c, 9, 44, 0
5, 259001, Note_on_c, 9, 36, 0
5, 259283, Note_on_c, 9, 36, 19
5, 259404, Note_on_c, 9, 36, 0
5, 259750, Note_on_c, 9, 44, 37
5, 259902, Note_on_c, 9, 44, 0
5, 260735, Note_on_c, 9, 46, 14
5, 261128, Note_on_c, 9, 46, 0
5, 261680, Note_on_c, 9, 44, 37
5, 262038, Note_on_c, 9, 44, 0
5, 262607, Note_on_c, 9, 44, 41
5, 262820, Note_on_c, 9, 44, 0
5, 262909, Note_on_c, 9, 45, 14
5, 262962, Note_on_c, 9, 45, 0
5, 263345, Note_on_c, 9, 45, 26
5, 263383, Note_on_c, 9, 45, 0
5, 263542, Note_on_c, 9, 44, 39
5, 263699, Note_on_c, 9, 44, 0
5, 263789, Note_on_c, 9, 45, 28
5, 263835, Note_on_c, 9, 45, 0
5, 263992, Note_on_c, 9, 36, 9
5, 264087, Note_on_c, 9, 36, 0
5, 264466, Note_on_c, 9, 36, 24
5, 264471, Note_on_c, 9, 46, 18
5, 264624, Note_on_c, 9, 46, 0
5, 264768, Note_on_c, 9, 36, 0
5, 264954, Note_on_c, 9, 36, 22
5, 265291, Note_on_c, 9, 36, 0
5, 265444, Note_on_c, 9, 44, 31
5, 265652, Note_on_c, 9, 44, 0
5, 267447, Note_on_c, 9, 44, 29
5, 267604, Note_on_c, 9, 44, 0
5, 269404, Note_on_c, 9, 44, 23
5, 269540, Note_on_c, 9, 44, 0
5, 270351, Note_on_c, 9, 46, 10
5, 271177, Note_on_c, 9, 46, 0
5, 271348, Note_on_c, 9, 44, 23
5, 271467, Note_on_c, 9, 44, 0
5, 272099, Note_on_c, 9, 45, 14
5, 272148, Note_on_c, 9, 45, 0
5, 272566, Note_on_c, 9, 38, 36
5, 272654, Note_on_c, 9, 38, 0
5, 272740, Note_on_c, 9, 36, 21
5, 272740, Note_on_c, 9, 57, 6
5, 273674, Note_on_c, 9, 44, 32
5, 273901, Note_on_c, 9, 44, 0
5, 274304, Note_on_c, 9, 57, 0
5, 274880, Note_on_c, 9, 36, 0
5, 277555, Note_on_c, 9, 44, 24
5, 277697, Note_on_c, 9, 44, 0
5, 277824, Note_on_c, 9, 53, 19
5, 277881, Note_on_c, 9, 53, 0
5, 278121, Note_on_c, 9, 53, 35
5, 278326, Note_on_c, 9, 53, 0
5, 278513, Note_on_c, 9, 53, 28
5, 278721, Note_on_c, 9, 53, 0
5, 278959, Note_on_c, 9, 46, 11
5, 279219, Note_on_c, 9, 36, 22
5, 279328, Note_on_c, 9, 36, 0
5, 279431, Note_on_c, 9, 36, 21
5, 279783, Note_on_c, 9, 36, 0
5, 279920, Note_on_c, 9, 46, 0
5, 280195, Note_on_c, 9, 36, 17
5, 280259, Note_on_c, 9, 36, 0
5, 280423, Note_on_c, 9, 36, 7
5, 280573, Note_on_c, 9, 36, 0
5, 280863, Note_on_c, 9, 44, 18
5, 281045, Note_on_c, 9, 44, 0
5, 281306, Note_on_c, 9, 53, 15
5, 281516, Note_on_c, 9, 53, 0
5, 281574, Note_on_c, 9, 53, 22
5, 281655, Note_on_c, 9, 53, 0
5, 281763, Note_on_c, 9, 53, 34
5, 282028, Note_on_c, 9, 53, 0
5, 282725, Note_on_c, 9, 44, 29
5, 282887, Note_on_c, 9, 44, 0
5, 283668, Note_on_c, 9, 46, 8
5, 284747, Note_on_c, 9, 46, 0
5, 287036, Note_on_c, 9, 44, 37
5, 287108, Note_on_c, 9, 39, 6
5, 287154, Note_on_c, 9, 39, 0
5, 287343, Note_on_c, 9, 44, 0
5, 287826, Note_on_c, 9, 39, 28
5, 287950, Note_on_c, 9, 39, 0
5, 288057, Note_on_c, 9, 36, 21
5, 288064, Note_on_c, 9, 53, 18
5, 288931, Note_on_c, 9, 46, 14
5, 289132, Note_on_c, 9, 46, 0
5, 289830, Note_on_c, 9, 36, 0
5, 289900, Note_on_c, 9, 53, 0
5, 290919, Note_on_c, 9, 39, 18
5, 290927, Note_on_c, 9, 44, 19
5, 291000, Note_on_c, 9, 39, 0
5, 291181, Note_on_c, 9, 44, 0
5, 291188, Note_on_c, 9, 39, 16
5, 291291, Note_on_c, 9, 39, 0
5, 291405, Note_on_c, 9, 36, 5
5, 291624, Note_on_c, 9, 36, 0
5, 291901, Note_on_c, 9, 36, 15
5, 292139, Note_on_c, 9, 36, 0
5, 292420, Note_on_c, 9, 36, 9
5, 293100, Note_on_c, 9, 36, 0
5, 294622, Note_on_c, 9, 53, 23
5, 294674, Note_on_c, 9, 53, 0
5, 294771, Note_on_c, 9, 44, 36
5, 294800, Note_on_c, 9, 53, 22
5, 294907, Note_on_c, 9, 53, 0
5, 295009, Note_on_c, 9, 44, 0
5, 295106, Note_on_c, 9, 36, 16
5, 295232, Note_on_c, 9, 36, 0
5, 296733, Note_on_c, 9, 53, 19
5, 296898, Note_on_c, 9, 53, 0
5, 297045, Note_on_c, 9, 36, 16
5, 297121, Note_on_c, 9, 36, 0
5, 298577, Note_on_c, 9, 44, 42
5, 298756, Note_on_c, 9, 44, 0
5, 299972, Note_on_c, 9, 44, 38
5, 300109, Note_on_c, 9, 44, 0
5, 300754, Note_on_c, 9, 53, 23
5, 300804, Note_on_c, 9, 53, 0
5, 300917, Note_on_c, 9, 53, 25
5, 300927, Note_on_c, 9, 46, 17
5, 300968, Note_on_c, 9, 53, 0
5, 301210, Note_on_c, 9, 36, 15
5, 301284, Note_on_c, 9, 36, 0
5, 301930, Note_on_c, 9, 46, 0
5, 302191, Note_on_c, 9, 36, 8
5, 302263, Note_on_c, 9, 36, 0
5, 302349, Note_on_c, 9, 53, 37
5, 302523, Note_on_c, 9, 53, 0
5, 302844, Note_on_c, 9, 44, 28
5, 303050, Note_on_c, 9, 44, 0
5, 303138, Note_on_c, 9, 53, 43
5, 303186, Note_on_c, 9, 53, 0
5, 303351, Note_on_c, 9, 36, 4
5, 303427, Note_on_c, 9, 36, 0
5, 303803, Note_on_c, 9, 36, 19
5, 304242, Note_on_c, 9, 36, 0
5, 304330, Note_on_c, 9, 44, 26
5, 304601, Note_on_c, 9, 44, 0
5, 308252, Note_on_c, 9, 44, 31
5, 308502, Note_on_c, 9, 44, 0
5, 310192, Note_on_c, 9, 53, 30
5, 310242, Note_on_c, 9, 53, 0
5, 310447, Note_on_c, 9, 53, 50
5, 310500, Note_on_c, 9, 53, 0
5, 310672, Note_on_c, 9, 53, 43
5, 310716, Note_on_c, 9, 53, 0
5, 310899, Note_on_c, 9, 39, 18
5, 310977, Note_on_c, 9, 39, 0
5, 311139, Note_on_c, 9, 53, 44
5, 311162, Note_on_c, 9, 36, 20
5, 311393, Note_on_c, 9, 53, 0
5, 311398, Note_on_c, 9, 36, 0
5, 311622, Note_on_c, 9, 53, 41
5, 311632, Note_on_c, 9, 36, 20
5, 312111, Note_on_c, 9, 44, 32
5, 312413, Note_on_c, 9, 44, 0
5, 313094, Note_on_c, 9, 53, 0
5, 314274, Note_on_c, 9, 36, 0
5, 315846, Note_on_c, 9, 44, 36
5, 316036, Note_on_c, 9, 44, 0
5, 316829, Note_on_c, 9, 47, 21
5, 316890, Note_on_c, 9, 47, 0
5, 317119, Note_on_c, 9, 47, 38
5, 317204, Note_on_c, 9, 47, 0
5, 317325, Note_on_c, 9, 45, 13
5, 317524, Note_on_c, 9, 45, 0
5, 317838, Note_on_c, 9, 46, 12
5, 318303, Note_on_c, 9, 45, 24
5, 318345, Note_on_c, 9, 45, 0
5, 318588, Note_on_c, 9, 39, 28
5, 318665, Note_on_c, 9, 39, 0
5, 318728, Note_on_c, 9, 46, 0
5, 318782, Note_on_c, 9, 57, 7
5, 318801, Note_on_c, 9, 36, 21
5, 319314, Note_on_c, 9, 44, 30
5, 319508, Note_on_c, 9, 44, 0
5, 320443, Note_on_c, 9, 57, 0
5, 320926, Note_on_c, 9, 36, 0
5, 321286, Note_on_c, 9, 44, 37
5, 321452, Note_on_c, 9, 44, 0
5, 322036, Note_on_c, 9, 39, 28
5, 322110, Note_on_c, 9, 39, 0
5, 322214, Note_on_c, 9, 46, 12
5, 322261, Note_on_c, 9, 39, 21
5, 322340, Note_on_c, 9, 39, 0
5, 322529, Note_on_c, 9, 36, 27
5, 322636, Note_on_c, 9, 36, 0
5, 322750, Note_on_c, 9, 53, 42
5, 322776, Note_on_c, 9, 36, 20
5, 322811, Note_on_c, 9, 46, 0
5, 323054, Note_on_c, 9, 36, 0
5, 323055, Note_on_c, 9, 53, 0
5, 323255, Note_on_c, 9, 53, 36
5, 323263, Note_on_c, 9, 36, 24
5, 323690, Note_on_c, 9, 44, 29
5, 324005, Note_on_c, 9, 44, 0
5, 324485, Note_on_c, 9, 53, 0
5, 325192, Note_on_c, 9, 36, 0
5, 325426, Note_on_c, 9, 53, 34
5, 325536, Note_on_c, 9, 53, 0
5, 325661, Note_on_c, 9, 53, 27
5, 325918, Note_on_c, 9, 53, 0
5, 326342, Note_on_c, 9, 39, 18
5, 326450, Note_on_c, 9, 39, 0
5, 326570, Note_on_c, 9, 53, 41
5, 326612, Note_on_c, 9, 36, 12
5, 326850, Note_on_c, 9, 36, 0
5, 326881, Note_on_c, 9, 53, 0
5, 327038, Note_on_c, 9, 53, 28
5, 327054, Note_on_c, 9, 36, 13
5, 327397, Note_on_c, 9, 53, 0
5, 327406, Note_on_c, 9, 36, 0
5, 327494, Note_on_c, 9, 44, 19
5, 327722, Note_on_c, 9, 44, 0
5, 329369, Note_on_c, 9, 39, 18
5, 329461, Note_on_c, 9, 39, 0
5, 329636, Note_on_c, 9, 39, 25
5, 329734, Note_on_c, 9, 39, 0
5, 329849, Note_on_c, 9, 39, 23
5, 330009, Note_on_c, 9, 39, 0
5, 330124, Note_on_c, 9, 36, 16
5, 330193, Note_on_c, 9, 36, 0
5, 330364, Note_on_c, 9, 36, 15
5, 330548, Note_on_c, 9, 36, 0
5, 330867, Note_on_c, 9, 36, 14
5, 331124, Note_on_c, 9, 36, 0
5, 331337, Note_on_c, 9, 45, 14
5, 331377, Note_on_c, 9, 44, 22
5, 331514, Note_on_c, 9, 45, 0
5, 331533, Note_on_c, 9, 44, 0
5, 331609, Note_on_c, 9, 39, 20
5, 331746, Note_on_c, 9, 39, 0
5, 331821, Note_on_c, 9, 44, 22
5, 331848, Note_on_c, 9, 39, 15
5, 331936, Note_on_c, 9, 39, 0
5, 332093, Note_on_c, 9, 44, 0
5, 332124, Note_on_c, 9, 39, 1
5, 332232, Note_on_c, 9, 39, 0
5, 332381, Note_on_c, 9, 36, 15
5, 332588, Note_on_c, 9, 36, 0
5, 332864, Note_on_c, 9, 36, 15
5, 333223, Note_on_c, 9, 46, 9
5, 333797, Note_on_c, 9, 36, 0
5, 333877, Note_on_c, 9, 46, 0
5, 335083, Note_on_c, 9, 44, 25
5, 335278, Note_on_c, 9, 44, 0
5, 336518, Note_on_c, 9, 53, 24
5, 336660, Note_on_c, 9, 53, 0
5, 337023, Note_on_c, 9, 53, 19
5, 337145, Note_on_c, 9, 53, 0
5, 337520, Note_on_c, 9, 44, 20
5, 337572, Note_on_c, 9, 36, 13
5, 337639, Note_on_c, 9, 36, 0
5, 337683, Note_on_c, 9, 44, 0
5, 338855, Note_on_c, 9, 53, 33
5, 338949, Note_on_c, 9, 53, 0
5, 339425, Note_on_c, 9, 46, 7
5, 339475, Note_on_c, 9, 36, 10
5, 339645, Note_on_c, 9, 36, 0
5, 340921, Note_on_c, 9, 46, 0
5, 342282, Note_on_c, 9, 44, 45
5, 342420, Note_on_c, 9, 44, 0
5, 343248, Note_on_c, 9, 53, 17
5, 343438, Note_on_c, 9, 53, 0
5, 343754, Note_on_c, 9, 53, 21
5, 343917, Note_on_c, 9, 53, 0
5, 344744, Note_on_c, 9, 36, 10
5, 344887, Note_on_c, 9, 36, 0
5, 345236, Note_on_c, 9, 36, 10
5, 345518, Note_on_c, 9, 36, 0
5, 345518, End_track
0, 0, End_of_file
