0, 0, Header, 0, 1, 384
1, 0, Start_track
1, 0, Title_t, "untitled"
1, 0, System_exclusive, 5, 126, 127, 9, 1, 247
1, 0, Time_signature, 4, 2, 24, 8
1, 0, Key_signature, 0, "major"
1, 0, Tempo, 600000
1, 2, Tempo, 368098
1, 2, Sequencer_specific, 21, 67, 115, 10, 0, 5, 75, 90, 79, 79, 79, 79, 79, 79, 79, 90, 79, 79, 79, 79, 79, 79
1, 2, Sequencer_specific, 6, 67, 115, 10, 0, 4, 1
1, 2, Sequencer_specific, 9, 67, 123, 0, 88, 70, 48, 50, 0, 0
1, 2, Control_c, 0, 11, 127
1, 2, Control_c, 0, 94, 0
1, 2, Control_c, 0, 101, 0
1, 3, Control_c, 0, 100, 1
1, 4, Control_c, 0, 6, 64
1, 5, Control_c, 0, 38, 0
1, 5, Control_c, 0, 71, 43
1, 5, Control_c, 0, 74, 46
1, 5, Control_c, 0, 64, 127
1, 384, Control_c, 0, 0, 0
1, 384, Control_c, 0, 32, 0
1, 384, Program_c, 0, 0
1, 385, Control_c, 0, 7, 107
1, 385, Control_c, 0, 10, 64
1, 385, Control_c, 0, 91, 10
1, 385, Control_c, 0, 93, 0
1, 386, Control_c, 1, 0, 0
1, 386, Control_c, 1, 32, 0
1, 386, Program_c, 1, 32
1, 387, Control_c, 1, 7, 127
1, 387, Control_c, 1, 10, 64
1, 387, Control_c, 1, 91, 16
1, 387, Control_c, 1, 93, 0
1, 403, Control_c, 9, 7, 91
1, 403, Control_c, 9, 10, 64
1, 403, Control_c, 9, 91, 0
1, 403, Control_c, 9, 93, 0
1, 2306, Note_on_c, 0, 82, 85
1, 2770, Note_on_c, 0, 75, 65
1, 3306, Note_on_c, 0, 75, 0
1, 3310, Note_on_c, 0, 74, 57
1, 3318, Note_on_c, 0, 82, 0
1, 3682, Note_on_c, 0, 82, 54
1, 3750, Note_on_c, 0, 74, 0
1, 3954, Note_on_c, 0, 75, 53
1, 4070, Note_on_c, 0, 82, 0
1, 4174, Note_on_c, 0, 74, 48
1, 4190, Note_on_c, 0, 75, 0
1, 4382, Note_on_c, 0, 82, 54
1, 4398, Note_on_c, 0, 74, 0
1, 4450, Note_on_c, 0, 48, 49
1, 4608, Time_signature, 3, 2, 24, 8
1, 4626, Note_on_c, 0, 75, 48
1, 4718, Note_on_c, 0, 82, 0
1, 4766, Note_on_c, 0, 55, 49
1, 4858, Note_on_c, 0, 75, 0
1, 4858, Note_on_c, 0, 74, 49
1, 4970, Note_on_c, 0, 48, 0
1, 5030, Note_on_c, 0, 82, 59
1, 5046, Note_on_c, 0, 55, 0
1, 5050, Note_on_c, 0, 74, 0
1, 5074, Note_on_c, 0, 62, 43
1, 5226, Note_on_c, 0, 75, 45
1, 5294, Note_on_c, 0, 82, 0
1, 5394, Note_on_c, 0, 74, 61
1, 5398, Note_on_c, 0, 63, 43
1, 5410, Note_on_c, 0, 75, 0
1, 5434, Note_on_c, 0, 62, 0
1, 5538, Note_on_c, 0, 82, 59
1, 5562, Note_on_c, 0, 74, 0
1, 5738, Note_on_c, 0, 75, 40
1, 5762, Note_on_c, 0, 67, 44
1, 5766, Note_on_c, 0, 82, 0
1, 5894, Note_on_c, 0, 74, 49
1, 5902, Note_on_c, 0, 75, 0
1, 6046, Note_on_c, 0, 74, 0
1, 6046, Note_on_c, 0, 82, 51
1, 6110, Note_on_c, 0, 63, 0
1, 6118, Note_on_c, 0, 70, 38
1, 6138, Note_on_c, 0, 67, 0
1, 6226, Note_on_c, 0, 75, 42
1, 6274, Note_on_c, 0, 82, 0
1, 6342, Note_on_c, 0, 70, 0
1, 6406, Note_on_c, 0, 74, 48
1, 6410, Note_on_c, 0, 75, 0
1, 6514, Note_on_c, 0, 74, 0
1, 6530, Note_on_c, 0, 82, 58
1, 6634, Note_on_c, 0, 74, 40
1, 6750, Note_on_c, 0, 75, 40
1, 6786, Note_on_c, 0, 74, 0
1, 6842, Note_on_c, 0, 82, 0
1, 6942, Note_on_c, 0, 75, 0
1, 6954, Note_on_c, 0, 74, 31
1, 7390, Note_on_c, 0, 82, 57
1, 7414, Note_on_c, 0, 74, 0
1, 7582, Note_on_c, 0, 75, 49
1, 7630, Note_on_c, 0, 82, 0
1, 7782, Note_on_c, 0, 75, 0
1, 7802, Note_on_c, 0, 74, 45
1, 8726, Note_on_c, 0, 82, 62
1, 9050, Note_on_c, 0, 74, 0
1, 9066, Note_on_c, 0, 75, 56
1, 9282, Note_on_c, 0, 82, 0
1, 9370, Note_on_c, 0, 74, 63
1, 9386, Note_on_c, 0, 75, 0
1, 9646, Note_on_c, 0, 82, 82
1, 9698, Note_on_c, 0, 74, 0
1, 9838, Note_on_c, 0, 75, 73
1, 9934, Note_on_c, 0, 82, 0
1, 10042, Note_on_c, 0, 74, 71
1, 10066, Note_on_c, 0, 75, 0
1, 10242, Note_on_c, 0, 82, 72
1, 10270, Note_on_c, 0, 74, 0
1, 10474, Note_on_c, 0, 75, 66
1, 10626, Note_on_c, 0, 82, 0
1, 10678, Note_on_c, 0, 73, 64
1, 10706, Note_on_c, 0, 75, 0
1, 10870, Note_on_c, 0, 82, 63
1, 10886, Note_on_c, 0, 73, 0
1, 10970, Note_on_c, 0, 47, 33
1, 11050, Control_c, 0, 64, 88
1, 11054, Control_c, 0, 64, 0
1, 11094, Note_on_c, 0, 75, 68
1, 11194, Control_c, 0, 64, 127
1, 11294, Note_on_c, 0, 82, 0
1, 11298, Note_on_c, 0, 73, 63
1, 11322, Note_on_c, 0, 75, 0
1, 11322, Note_on_c, 0, 54, 50
1, 11518, Note_on_c, 0, 47, 0
1, 11526, Note_on_c, 0, 82, 75
1, 11534, Note_on_c, 0, 73, 0
1, 11606, Note_on_c, 0, 58, 50
1, 11626, Note_on_c, 0, 54, 0
1, 11774, Note_on_c, 0, 75, 57
1, 11930, Note_on_c, 0, 82, 0
1, 11970, Note_on_c, 0, 73, 58
1, 11990, Note_on_c, 0, 75, 0
1, 11990, Note_on_c, 0, 58, 0
1, 12010, Note_on_c, 0, 61, 41
1, 12258, Note_on_c, 0, 82, 58
1, 12274, Note_on_c, 0, 73, 0
1, 12310, Note_on_c, 0, 63, 39
1, 12498, Note_on_c, 0, 75, 51
1, 12562, Note_on_c, 0, 82, 0
1, 12698, Note_on_c, 0, 75, 0
1, 12710, Note_on_c, 0, 61, 0
1, 12714, Note_on_c, 0, 63, 0
1, 12718, Note_on_c, 0, 73, 41
1, 12762, Note_on_c, 0, 66, 39
1, 12918, Note_on_c, 0, 73, 0
1, 12922, Note_on_c, 0, 82, 31
1, 13066, Note_on_c, 0, 66, 0
1, 13070, Note_on_c, 0, 75, 45
1, 13122, Note_on_c, 0, 82, 0
1, 13138, Note_on_c, 0, 68, 37
1, 13246, Note_on_c, 0, 75, 0
1, 13246, Note_on_c, 0, 73, 50
1, 13406, Note_on_c, 0, 70, 41
1, 13418, Note_on_c, 0, 82, 56
1, 13422, Note_on_c, 0, 68, 0
1, 13430, Note_on_c, 0, 73, 0
1, 13594, Note_on_c, 0, 75, 46
1, 13606, Note_on_c, 0, 82, 0
1, 13730, Note_on_c, 0, 75, 0
1, 13746, Note_on_c, 0, 73, 46
1, 13830, Note_on_c, 0, 73, 0
1, 13890, Note_on_c, 0, 82, 48
1, 13906, Note_on_c, 0, 70, 0
1, 13942, Note_on_c, 0, 73, 38
1, 14030, Note_on_c, 0, 73, 0
1, 14098, Note_on_c, 0, 75, 41
1, 14106, Note_on_c, 0, 82, 0
1, 14242, Note_on_c, 0, 75, 0
1, 14254, Note_on_c, 0, 73, 37
1, 14410, Note_on_c, 0, 73, 0
1, 14446, Note_on_c, 0, 82, 35
1, 14562, Note_on_c, 0, 75, 39
1, 14634, Note_on_c, 0, 82, 0
1, 14750, Note_on_c, 0, 75, 0
1, 14790, Note_on_c, 0, 73, 32
1, 16390, Note_on_c, 0, 73, 0
1, 17462, Note_on_c, 0, 81, 66
1, 17998, Note_on_c, 0, 74, 48
1, 18486, Note_on_c, 0, 72, 40
1, 18558, Note_on_c, 0, 81, 0
1, 18582, Note_on_c, 0, 74, 0
1, 18878, Note_on_c, 0, 81, 56
1, 18894, Note_on_c, 0, 72, 0
1, 19226, Note_on_c, 0, 74, 47
1, 19246, Note_on_c, 0, 34, 48
1, 19798, Note_on_c, 0, 74, 0
1, 19806, Note_on_c, 0, 34, 0
1, 19838, Note_on_c, 0, 72, 50
1, 20222, Note_on_c, 0, 81, 0
1, 20346, Note_on_c, 0, 81, 55
1, 20370, Note_on_c, 0, 48, 41
1, 20414, Note_on_c, 0, 72, 0
1, 20666, Note_on_c, 0, 48, 0
1, 20670, Note_on_c, 0, 74, 55
1, 20702, Note_on_c, 0, 50, 41
1, 20878, Note_on_c, 0, 81, 0
1, 20938, Note_on_c, 0, 50, 0
1, 20990, Note_on_c, 0, 74, 0
1, 21002, Note_on_c, 0, 53, 46
1, 21014, Note_on_c, 0, 72, 39
1, 21298, Note_on_c, 0, 53, 0
1, 21374, Note_on_c, 0, 81, 46
1, 21442, Note_on_c, 0, 57, 31
1, 21634, Note_on_c, 0, 72, 0
1, 21814, Note_on_c, 0, 74, 38
1, 21822, Note_on_c, 0, 57, 0
1, 21846, Note_on_c, 0, 58, 35
1, 21858, Note_on_c, 0, 81, 0
1, 22194, Note_on_c, 0, 74, 0
1, 22218, Note_on_c, 0, 58, 0
1, 22222, Note_on_c, 0, 72, 37
1, 22362, Note_on_c, 0, 62, 4
1, 22598, Note_on_c, 0, 62, 0
1, 22618, Note_on_c, 0, 72, 0
1, 22634, Note_on_c, 0, 77, 73
1, 22702, Note_on_c, 0, 65, 39
1, 23246, Note_on_c, 0, 69, 36
1, 23906, Note_on_c, 0, 72, 39
1, 23958, Note_on_c, 0, 77, 0
1, 24246, Note_on_c, 0, 65, 0
1, 24338, Note_on_c, 0, 69, 0
1, 24518, Note_on_c, 0, 77, 56
1, 24786, Note_on_c, 0, 72, 0
1, 24966, Note_on_c, 0, 77, 0
1, 25494, Note_on_c, 0, 82, 53
1, 25546, Note_on_c, 0, 52, 40
1, 25546, Note_on_c, 0, 78, 56
1, 25586, Note_on_c, 0, 56, 21
1, 25598, Note_on_c, 0, 73, 48
1, 25602, Note_on_c, 0, 62, 39
1, 25614, Control_c, 0, 64, 0
1, 25690, Note_on_c, 0, 56, 0
1, 25866, Control_c, 0, 64, 127
1, 26242, Note_on_c, 0, 78, 0
1, 26306, Note_on_c, 0, 56, 48
1, 26534, Note_on_c, 0, 82, 0
1, 26614, Note_on_c, 0, 73, 0
1, 26654, Note_on_c, 0, 52, 0
1, 26658, Note_on_c, 0, 62, 0
1, 26670, Note_on_c, 0, 78, 66
1, 26734, Note_on_c, 0, 56, 0
1, 26926, Note_on_c, 0, 78, 0
1, 27122, Note_on_c, 0, 81, 53
1, 27142, Note_on_c, 0, 74, 51
1, 27162, Note_on_c, 0, 67, 41
1, 27170, Note_on_c, 0, 69, 40
1, 27170, Note_on_c, 0, 39, 45
1, 27186, Control_c, 0, 64, 0
1, 27354, Control_c, 0, 64, 127
1, 27454, Note_on_c, 0, 39, 0
1, 27550, Note_on_c, 0, 46, 48
1, 27658, Note_on_c, 0, 81, 0
1, 27854, Note_on_c, 0, 69, 0
1, 27886, Note_on_c, 0, 67, 0
1, 27946, Note_on_c, 0, 55, 53
1, 27954, Note_on_c, 0, 79, 71
1, 27970, Note_on_c, 0, 46, 0
1, 28038, Note_on_c, 0, 55, 0
1, 28254, Note_on_c, 0, 74, 0
1, 28262, Note_on_c, 0, 79, 0
1, 28546, Note_on_c, 0, 71, 41
1, 28566, Note_on_c, 0, 63, 37
1, 28566, Note_on_c, 0, 75, 55
1, 28566, Note_on_c, 0, 79, 43
1, 28586, Note_on_c, 0, 59, 41
1, 28602, Note_on_c, 0, 53, 37
1, 28602, Control_c, 0, 64, 0
1, 28966, Control_c, 0, 64, 127
1, 29982, Note_on_c, 0, 75, 0
1, 30114, Note_on_c, 0, 71, 0
1, 30178, Note_on_c, 0, 74, 62
1, 30198, Note_on_c, 0, 79, 0
1, 30298, Note_on_c, 0, 74, 0
1, 30334, Control_c, 0, 64, 0
1, 30390, Note_on_c, 0, 75, 66
1, 30494, Note_on_c, 0, 75, 0
1, 30510, Note_on_c, 0, 53, 0
1, 30526, Note_on_c, 0, 59, 0
1, 30562, Note_on_c, 0, 76, 62
1, 30670, Note_on_c, 0, 76, 0
1, 30678, Note_on_c, 0, 63, 0
1, 30766, Note_on_c, 0, 77, 63
1, 30858, Note_on_c, 0, 77, 0
1, 30986, Note_on_c, 0, 78, 65
1, 31170, Note_on_c, 0, 78, 0
1, 31242, Note_on_c, 0, 79, 48
1, 31274, Note_on_c, 0, 60, 42
1, 31514, Note_on_c, 0, 79, 0
1, 31774, Note_on_c, 0, 72, 44
1, 31802, Note_on_c, 0, 63, 35
1, 31818, Note_on_c, 0, 67, 32
1, 31854, Control_c, 0, 64, 127
1, 32334, Note_on_c, 0, 67, 0
1, 32386, Note_on_c, 0, 63, 0
1, 32430, Note_on_c, 0, 75, 57
1, 32434, Note_on_c, 0, 60, 0
1, 32494, Note_on_c, 0, 72, 0
1, 32818, Note_on_c, 0, 75, 0
1, 32854, Control_c, 0, 64, 0
1, 32862, Note_on_c, 0, 71, 45
1, 32862, Note_on_c, 0, 63, 35
1, 32890, Note_on_c, 0, 59, 38
1, 32906, Note_on_c, 0, 53, 26
1, 32978, Control_c, 0, 64, 127
1, 33002, Note_on_c, 0, 63, 0
1, 33014, Note_on_c, 0, 59, 0
1, 33042, Note_on_c, 0, 53, 0
1, 33302, Note_on_c, 0, 67, 43
1, 33306, Note_on_c, 0, 71, 0
1, 33314, Note_on_c, 0, 43, 46
1, 33370, Note_on_c, 0, 43, 0
1, 33378, Note_on_c, 0, 67, 0
1, 33874, Note_on_c, 0, 87, 57
1, 33898, Note_on_c, 0, 75, 37
1, 33906, Note_on_c, 0, 63, 33
1, 33934, Control_c, 0, 64, 0
1, 33950, Note_on_c, 0, 59, 33
1, 33978, Note_on_c, 0, 53, 14
1, 34018, Control_c, 0, 64, 127
1, 34494, Note_on_c, 0, 53, 0
1, 34518, Note_on_c, 0, 75, 0
1, 34518, Note_on_c, 0, 59, 0
1, 34622, Note_on_c, 0, 63, 0
1, 34734, Note_on_c, 0, 87, 0
1, 34954, Note_on_c, 0, 83, 82
1, 35214, Note_on_c, 0, 83, 0
1, 35218, Note_on_c, 0, 84, 50
1, 35326, Note_on_c, 0, 85, 52
1, 35334, Note_on_c, 0, 84, 0
1, 35490, Note_on_c, 0, 85, 0
1, 35518, Note_on_c, 0, 86, 43
1, 35654, Note_on_c, 0, 86, 0
1, 35666, Note_on_c, 0, 89, 85
1, 35762, Control_c, 0, 64, 0
1, 35826, Note_on_c, 0, 89, 0
1, 35826, Note_on_c, 0, 86, 74
1, 35886, Note_on_c, 0, 67, 46
1, 35894, Note_on_c, 0, 60, 50
1, 35894, Note_on_c, 0, 63, 41
1, 36098, Note_on_c, 0, 86, 0
1, 36098, Note_on_c, 0, 87, 80
1, 36422, Note_on_c, 0, 87, 0
1, 36422, Note_on_c, 0, 79, 56
1, 36562, Control_c, 0, 64, 127
1, 36742, Note_on_c, 0, 79, 0
1, 36766, Note_on_c, 0, 82, 82
1, 36994, Note_on_c, 0, 82, 0
1, 37018, Note_on_c, 0, 86, 85
1, 37150, Note_on_c, 0, 67, 0
1, 37174, Note_on_c, 0, 60, 0
1, 37246, Note_on_c, 0, 86, 0
1, 37258, Note_on_c, 0, 63, 0
1, 37278, Note_on_c, 0, 84, 72
1, 37582, Note_on_c, 0, 80, 59
1, 37846, Note_on_c, 0, 84, 0
1, 37886, Note_on_c, 0, 80, 0
1, 37950, Note_on_c, 0, 66, 35
1, 37966, Control_c, 0, 64, 0
1, 37970, Note_on_c, 0, 63, 39
1, 37982, Note_on_c, 0, 57, 36
1, 37982, Note_on_c, 0, 81, 56
1, 38234, Control_c, 0, 64, 72
1, 38238, Control_c, 0, 64, 127
1, 38302, Note_on_c, 0, 81, 0
1, 38358, Note_on_c, 0, 84, 58
1, 38390, Note_on_c, 0, 72, 41
1, 38490, Note_on_c, 0, 72, 0
1, 38498, Note_on_c, 0, 84, 0
1, 38694, Note_on_c, 0, 86, 68
1, 38710, Note_on_c, 0, 74, 56
1, 38842, Note_on_c, 0, 86, 0
1, 38850, Note_on_c, 0, 74, 0
1, 38994, Note_on_c, 0, 87, 75
1, 39014, Note_on_c, 0, 75, 52
1, 39154, Note_on_c, 0, 75, 0
1, 39162, Note_on_c, 0, 87, 0
1, 39246, Note_on_c, 0, 66, 0
1, 39266, Note_on_c, 0, 57, 0
1, 39314, Note_on_c, 0, 63, 0
1, 39322, Note_on_c, 0, 88, 68
1, 39330, Note_on_c, 0, 76, 73
1, 39422, Note_on_c, 0, 76, 0
1, 39466, Note_on_c, 0, 88, 0
1, 39658, Note_on_c, 0, 91, 60
1, 39686, Note_on_c, 0, 79, 49
1, 39778, Note_on_c, 0, 91, 0
1, 39830, Note_on_c, 0, 79, 0
1, 40046, Control_c, 0, 64, 0
1, 40050, Note_on_c, 0, 89, 48
1, 40054, Note_on_c, 0, 50, 47
1, 40054, Note_on_c, 0, 77, 42
1, 40066, Note_on_c, 0, 60, 39
1, 40066, Note_on_c, 0, 84, 52
1, 40234, Control_c, 0, 64, 127
1, 40286, Note_on_c, 0, 89, 0
1, 40326, Note_on_c, 0, 84, 0
1, 40410, Note_on_c, 0, 77, 0
1, 40454, Note_on_c, 0, 60, 0
1, 40474, Note_on_c, 0, 57, 50
1, 40498, Note_on_c, 0, 50, 0
1, 40718, Note_on_c, 0, 57, 0
1, 40898, Note_on_c, 0, 77, 75
1, 40926, Note_on_c, 0, 72, 61
1, 40926, Note_on_c, 0, 69, 69
1, 41282, Note_on_c, 0, 65, 85
1, 41338, Control_c, 0, 64, 0
1, 41398, Control_c, 0, 64, 127
1, 41546, Note_on_c, 0, 69, 0
1, 41570, Note_on_c, 0, 77, 0
1, 41570, Note_on_c, 0, 72, 0
1, 41642, Note_on_c, 0, 65, 0
1, 41642, Note_on_c, 0, 64, 73
1, 41646, Control_c, 0, 64, 0
1, 41650, Note_on_c, 0, 77, 70
1, 41658, Note_on_c, 0, 72, 59
1, 41658, Note_on_c, 0, 69, 56
1, 41910, Control_c, 0, 64, 127
1, 41986, Note_on_c, 0, 64, 0
1, 42018, Note_on_c, 0, 62, 63
1, 42022, Note_on_c, 0, 77, 0
1, 42126, Note_on_c, 0, 72, 0
1, 42218, Note_on_c, 0, 69, 0
1, 42374, Control_c, 0, 64, 0
1, 42386, Note_on_c, 0, 61, 77
1, 42418, Note_on_c, 0, 62, 0
1, 42518, Control_c, 0, 64, 127
1, 42754, Note_on_c, 0, 69, 55
1, 42758, Note_on_c, 0, 81, 75
1, 42774, Note_on_c, 0, 70, 55
1, 42774, Note_on_c, 0, 73, 54
1, 42810, Control_c, 0, 64, 0
1, 42822, Note_on_c, 0, 76, 39
1, 42998, Note_on_c, 0, 81, 0
1, 43002, Note_on_c, 0, 69, 0
1, 43066, Note_on_c, 0, 70, 0
1, 43078, Control_c, 0, 64, 127
1, 43090, Note_on_c, 0, 76, 0
1, 43102, Note_on_c, 0, 73, 0
1, 43174, Note_on_c, 0, 81, 75
1, 43178, Note_on_c, 0, 70, 50
1, 43178, Note_on_c, 0, 73, 51
1, 43182, Note_on_c, 0, 69, 61
1, 43366, Note_on_c, 0, 69, 0
1, 43542, Note_on_c, 0, 68, 57
1, 43550, Control_c, 0, 64, 0
1, 43630, Control_c, 0, 64, 127
1, 43750, Note_on_c, 0, 70, 0
1, 43766, Note_on_c, 0, 73, 0
1, 43810, Note_on_c, 0, 68, 0
1, 43842, Note_on_c, 0, 81, 0
1, 43914, Note_on_c, 0, 70, 49
1, 43922, Note_on_c, 0, 67, 54
1, 43938, Note_on_c, 0, 73, 49
1, 43954, Note_on_c, 0, 76, 48
1, 44130, Note_on_c, 0, 61, 0
1, 44154, Note_on_c, 0, 76, 0
1, 44218, Note_on_c, 0, 70, 0
1, 44334, Note_on_c, 0, 67, 0
1, 44334, Note_on_c, 0, 79, 57
1, 44338, Note_on_c, 0, 61, 36
1, 44402, Note_on_c, 0, 61, 0
1, 44410, Note_on_c, 0, 73, 0
1, 44470, Note_on_c, 0, 79, 0
1, 45070, Control_c, 0, 64, 0
1, 45122, Note_on_c, 0, 58, 44
1, 45126, Note_on_c, 0, 77, 59
1, 45138, Note_on_c, 0, 70, 48
1, 45146, Note_on_c, 0, 48, 35
1, 45162, Note_on_c, 0, 67, 31
1, 45182, Control_c, 0, 64, 127
1, 45306, Note_on_c, 0, 67, 0
1, 45326, Note_on_c, 0, 77, 0
1, 45426, Note_on_c, 0, 70, 0
1, 45602, Note_on_c, 0, 60, 32
1, 45654, Note_on_c, 0, 60, 0
1, 45778, Note_on_c, 0, 65, 57
1, 45890, Note_on_c, 0, 65, 0
1, 45922, Note_on_c, 0, 70, 81
1, 46002, Note_on_c, 0, 70, 0
1, 46086, Note_on_c, 0, 72, 76
1, 46198, Note_on_c, 0, 72, 0
1, 46222, Note_on_c, 0, 48, 0
1, 46246, Note_on_c, 0, 77, 82
1, 46378, Note_on_c, 0, 77, 0
1, 46382, Note_on_c, 0, 58, 0
1, 46390, Note_on_c, 0, 82, 83
1, 46490, Note_on_c, 0, 82, 0
1, 46554, Note_on_c, 0, 84, 83
1, 46666, Note_on_c, 0, 84, 0
1, 46714, Note_on_c, 0, 89, 86
1, 46862, Note_on_c, 0, 89, 0
1, 46886, Note_on_c, 0, 94, 85
1, 47030, Note_on_c, 0, 94, 0
1, 47074, Note_on_c, 0, 96, 80
1, 47234, Note_on_c, 0, 96, 0
1, 47298, Note_on_c, 0, 93, 70
1, 47298, Note_on_c, 0, 62, 48
1, 47314, Control_c, 0, 64, 0
1, 47318, Note_on_c, 0, 57, 47
1, 47322, Note_on_c, 0, 51, 41
1, 47598, Note_on_c, 0, 90, 58
1, 47730, Note_on_c, 0, 93, 0
1, 47862, Note_on_c, 0, 90, 0
1, 47922, Control_c, 0, 64, 127
1, 47922, Note_on_c, 0, 89, 49
1, 48366, Note_on_c, 0, 87, 60
1, 48414, Note_on_c, 0, 89, 0
1, 48698, Note_on_c, 0, 87, 0
1, 48766, Note_on_c, 0, 86, 50
1, 49058, Note_on_c, 0, 62, 0
1, 49058, Note_on_c, 0, 57, 0
1, 49126, Note_on_c, 0, 86, 0
1, 49126, Note_on_c, 0, 87, 52
1, 49170, Note_on_c, 0, 51, 0
1, 49210, Note_on_c, 0, 87, 0
1, 49214, Note_on_c, 0, 88, 69
1, 49298, Note_on_c, 0, 88, 0
1, 49346, Note_on_c, 0, 89, 96
1, 49482, Note_on_c, 0, 89, 0
1, 49570, Note_on_c, 0, 89, 102
1, 49734, Note_on_c, 0, 89, 0
1, 49834, Note_on_c, 0, 89, 81
1, 49842, Control_c, 0, 64, 0
1, 49858, Note_on_c, 0, 50, 55
1, 50058, Control_c, 0, 64, 127
1, 50178, Note_on_c, 0, 77, 50
1, 50182, Note_on_c, 0, 89, 0
1, 50182, Note_on_c, 0, 60, 39
1, 50334, Note_on_c, 0, 77, 0
1, 50410, Note_on_c, 0, 50, 0
1, 50414, Note_on_c, 0, 60, 0
1, 50526, Note_on_c, 0, 77, 48
1, 51066, Note_on_c, 0, 77, 0
1, 51266, Note_on_c, 0, 77, 48
1, 51618, Note_on_c, 0, 77, 0
1, 51894, Note_on_c, 0, 93, 59
1, 51922, Note_on_c, 0, 81, 41
1, 52034, Note_on_c, 0, 81, 0
1, 52114, Note_on_c, 0, 93, 0
1, 52418, Note_on_c, 0, 93, 58
1, 52442, Control_c, 0, 64, 0
1, 52442, Note_on_c, 0, 81, 39
1, 52450, Note_on_c, 0, 55, 43
1, 52606, Control_c, 0, 64, 127
1, 52726, Note_on_c, 0, 93, 0
1, 52818, Note_on_c, 0, 81, 0
1, 52846, Note_on_c, 0, 61, 47
1, 53210, Note_on_c, 0, 64, 46
1, 53518, Note_on_c, 0, 69, 31
1, 53570, Note_on_c, 0, 69, 0
1, 53590, Note_on_c, 0, 70, 61
1, 53618, Control_c, 0, 64, 0
1, 53622, Note_on_c, 0, 70, 0
1, 53678, Note_on_c, 0, 72, 72
1, 53742, Note_on_c, 0, 72, 0
1, 53798, Note_on_c, 0, 73, 42
1, 53838, Note_on_c, 0, 75, 57
1, 53846, Note_on_c, 0, 73, 0
1, 53874, Note_on_c, 0, 75, 0
1, 53938, Note_on_c, 0, 76, 70
1, 53982, Note_on_c, 0, 76, 0
1, 54138, Note_on_c, 0, 79, 44
1, 54190, Note_on_c, 0, 79, 0
1, 54242, Note_on_c, 0, 81, 38
1, 54290, Note_on_c, 0, 81, 0
1, 54314, Note_on_c, 0, 82, 57
1, 54350, Note_on_c, 0, 82, 0
1, 54394, Note_on_c, 0, 84, 66
1, 54482, Note_on_c, 0, 84, 0
1, 54510, Note_on_c, 0, 85, 52
1, 54562, Note_on_c, 0, 85, 0
1, 54590, Note_on_c, 0, 87, 50
1, 54634, Note_on_c, 0, 87, 0
1, 54690, Note_on_c, 0, 88, 60
1, 54750, Note_on_c, 0, 88, 0
1, 54946, Note_on_c, 0, 89, 43
1, 54998, Note_on_c, 0, 89, 0
1, 55122, Note_on_c, 0, 90, 65
1, 55186, Note_on_c, 0, 90, 0
1, 55266, Note_on_c, 0, 91, 51
1, 55326, Note_on_c, 0, 91, 0
1, 55394, Note_on_c, 0, 92, 56
1, 55430, Note_on_c, 0, 92, 0
1, 55514, Note_on_c, 0, 55, 0
1, 55538, Note_on_c, 0, 61, 0
1, 55550, Note_on_c, 0, 93, 55
1, 55598, Note_on_c, 0, 93, 0
1, 55634, Note_on_c, 0, 64, 0
1, 56078, Note_on_c, 0, 94, 68
1, 56166, Note_on_c, 0, 94, 0
1, 56210, Note_on_c, 0, 95, 61
1, 56314, Note_on_c, 0, 95, 0
1, 56322, Note_on_c, 0, 96, 56
1, 56426, Note_on_c, 0, 96, 0
1, 56426, Note_on_c, 0, 97, 63
1, 56554, Note_on_c, 0, 98, 54
1, 56558, Note_on_c, 0, 97, 0
1, 56642, Note_on_c, 0, 99, 65
1, 56682, Note_on_c, 0, 98, 0
1, 56706, Note_on_c, 0, 99, 0
1, 56718, Note_on_c, 0, 100, 49
1, 56770, Note_on_c, 0, 100, 0
1, 56838, Note_on_c, 0, 101, 87
1, 56878, Note_on_c, 0, 67, 36
1, 56882, Note_on_c, 0, 58, 50
1, 56882, Note_on_c, 0, 60, 48
1, 56882, Note_on_c, 0, 63, 51
1, 57038, Note_on_c, 0, 101, 0
1, 57102, Note_on_c, 0, 98, 78
1, 57230, Note_on_c, 0, 98, 0
1, 57330, Note_on_c, 0, 99, 81
1, 57506, Control_c, 0, 64, 127
1, 57550, Note_on_c, 0, 99, 0
1, 57558, Note_on_c, 0, 95, 69
1, 57766, Note_on_c, 0, 95, 0
1, 57810, Note_on_c, 0, 98, 81
1, 57914, Note_on_c, 0, 63, 0
1, 57942, Note_on_c, 0, 67, 0
1, 57950, Note_on_c, 0, 58, 0
1, 57982, Note_on_c, 0, 60, 0
1, 58050, Note_on_c, 0, 97, 76
1, 58126, Note_on_c, 0, 98, 0
1, 58270, Note_on_c, 0, 97, 0
1, 58338, Control_c, 0, 64, 0
1, 58338, Note_on_c, 0, 96, 74
1, 58378, Note_on_c, 0, 41, 36
1, 58450, Control_c, 0, 64, 127
1, 58494, Note_on_c, 0, 41, 0
1, 58618, Note_on_c, 0, 96, 0
1, 58650, Note_on_c, 0, 95, 75
1, 58906, Note_on_c, 0, 95, 0
1, 58946, Note_on_c, 0, 94, 61
1, 58950, Control_c, 0, 64, 24
1, 58954, Control_c, 0, 64, 0
1, 58966, Note_on_c, 0, 62, 38
1, 58974, Note_on_c, 0, 51, 33
1, 59006, Note_on_c, 0, 57, 37
1, 59078, Control_c, 0, 64, 127
1, 59234, Note_on_c, 0, 93, 59
1, 59238, Note_on_c, 0, 94, 0
1, 59246, Note_on_c, 0, 62, 0
1, 59282, Note_on_c, 0, 57, 0
1, 59422, Note_on_c, 0, 93, 0
1, 59518, Note_on_c, 0, 92, 66
1, 59554, Note_on_c, 0, 62, 36
1, 59702, Note_on_c, 0, 92, 0
1, 59706, Note_on_c, 0, 51, 0
1, 59802, Note_on_c, 0, 62, 0
1, 59834, Note_on_c, 0, 91, 63
1, 59954, Note_on_c, 0, 91, 0
1, 59982, Note_on_c, 0, 90, 71
1, 60138, Note_on_c, 0, 90, 0
1, 60166, Note_on_c, 0, 89, 77
1, 60190, Note_on_c, 0, 62, 43
1, 60198, Note_on_c, 0, 65, 38
1, 60210, Control_c, 0, 64, 0
1, 60222, Note_on_c, 0, 60, 43
1, 60354, Control_c, 0, 64, 127
1, 60382, Note_on_c, 0, 65, 0
1, 60466, Note_on_c, 0, 89, 0
1, 60550, Note_on_c, 0, 89, 79
1, 60818, Note_on_c, 0, 89, 0
1, 60866, Note_on_c, 0, 53, 44
1, 60874, Note_on_c, 0, 88, 68
1, 60906, Control_c, 0, 64, 56
1, 60910, Control_c, 0, 64, 0
1, 61018, Control_c, 0, 64, 127
1, 61062, Note_on_c, 0, 88, 0
1, 61146, Note_on_c, 0, 89, 75
1, 61386, Note_on_c, 0, 89, 0
1, 61426, Note_on_c, 0, 91, 82
1, 61470, Note_on_c, 0, 53, 0
1, 61582, Note_on_c, 0, 62, 0
1, 61634, Note_on_c, 0, 60, 0
1, 61646, Note_on_c, 0, 91, 0
1, 61710, Note_on_c, 0, 93, 83
1, 61902, Note_on_c, 0, 93, 0
1, 61994, Note_on_c, 0, 66, 50
1, 62002, Note_on_c, 0, 94, 78
1, 62018, Note_on_c, 0, 62, 42
1, 62030, Note_on_c, 0, 56, 46
1, 62030, Note_on_c, 0, 82, 54
1, 62066, Control_c, 0, 64, 0
1, 62222, Control_c, 0, 64, 127
1, 62378, Note_on_c, 0, 66, 0
1, 62406, Note_on_c, 0, 62, 0
1, 62470, Note_on_c, 0, 56, 0
1, 63374, Note_on_c, 0, 38, 68
1, 63930, Note_on_c, 0, 38, 0
1, 64122, Note_on_c, 0, 94, 0
1, 64230, Note_on_c, 0, 82, 0
1, 64558, Note_on_c, 0, 90, 75
1, 64818, Note_on_c, 0, 90, 0
1, 64986, Control_c, 0, 64, 0
1, 65042, Note_on_c, 0, 93, 85
1, 65054, Note_on_c, 0, 46, 68
1, 65054, Note_on_c, 0, 79, 61
1, 65054, Note_on_c, 0, 86, 72
1, 65054, Note_on_c, 0, 39, 68
1, 65054, Note_on_c, 0, 81, 69
1, 65054, Note_on_c, 0, 89, 61
1, 65162, Control_c, 0, 64, 127
1, 65286, Note_on_c, 0, 39, 0
1, 65322, Note_on_c, 0, 46, 0
1, 65414, Note_on_c, 0, 81, 0
1, 65438, Note_on_c, 0, 79, 0
1, 65546, Note_on_c, 0, 89, 0
1, 65558, Note_on_c, 0, 86, 0
1, 65558, Note_on_c, 0, 93, 0
1, 65754, Note_on_c, 0, 93, 87
1, 65762, Note_on_c, 0, 86, 77
1, 65762, Note_on_c, 0, 65, 75
1, 65766, Note_on_c, 0, 60, 71
1, 65766, Note_on_c, 0, 89, 71
1, 65774, Note_on_c, 0, 81, 68
1, 65774, Note_on_c, 0, 79, 68
1, 65774, Note_on_c, 0, 55, 66
1, 65814, Note_on_c, 0, 91, 30
1, 66086, Note_on_c, 0, 79, 0
1, 66094, Note_on_c, 0, 91, 0
1, 66094, Note_on_c, 0, 81, 0
1, 66102, Note_on_c, 0, 93, 0
1, 66106, Note_on_c, 0, 89, 0
1, 66110, Note_on_c, 0, 55, 0
1, 66118, Note_on_c, 0, 60, 0
1, 66118, Note_on_c, 0, 65, 0
1, 66130, Note_on_c, 0, 86, 0
1, 66310, Note_on_c, 0, 91, 84
1, 66318, Note_on_c, 0, 86, 82
1, 66326, Note_on_c, 0, 79, 66
1, 66338, Note_on_c, 0, 65, 72
1, 66342, Note_on_c, 0, 60, 66
1, 66346, Note_on_c, 0, 55, 57
1, 66374, Note_on_c, 0, 65, 0
1, 66454, Note_on_c, 0, 60, 0
1, 66494, Note_on_c, 0, 55, 0
1, 66550, Note_on_c, 0, 86, 0
1, 66566, Note_on_c, 0, 79, 0
1, 66622, Note_on_c, 0, 91, 0
1, 66862, Control_c, 0, 64, 0
1, 66886, Note_on_c, 0, 31, 81
1, 66894, Note_on_c, 0, 43, 81
1, 66970, Control_c, 0, 64, 127
1, 67038, Note_on_c, 0, 31, 0
1, 67082, Note_on_c, 0, 43, 0
1, 67510, Note_on_c, 0, 91, 88
1, 67514, Note_on_c, 0, 87, 82
1, 67514, Note_on_c, 0, 63, 81
1, 67514, Note_on_c, 0, 53, 75
1, 67514, Note_on_c, 0, 79, 89
1, 67514, Note_on_c, 0, 83, 85
1, 67526, Note_on_c, 0, 59, 70
1, 67538, Note_on_c, 0, 89, 48
1, 67582, Note_on_c, 0, 89, 0
1, 67838, Note_on_c, 0, 53, 0
1, 67890, Note_on_c, 0, 79, 0
1, 67898, Note_on_c, 0, 63, 0
1, 67906, Note_on_c, 0, 59, 0
1, 67914, Note_on_c, 0, 83, 0
1, 67922, Note_on_c, 0, 91, 0
1, 67926, Note_on_c, 0, 87, 0
1, 68098, Note_on_c, 0, 87, 80
1, 68098, Note_on_c, 0, 91, 86
1, 68106, Note_on_c, 0, 83, 83
1, 68106, Note_on_c, 0, 63, 76
1, 68106, Note_on_c, 0, 79, 78
1, 68106, Note_on_c, 0, 59, 68
1, 68126, Note_on_c, 0, 53, 51
1, 68210, Note_on_c, 0, 63, 0
1, 68226, Note_on_c, 0, 59, 0
1, 68258, Note_on_c, 0, 53, 0
1, 68554, Note_on_c, 0, 91, 0
1, 68574, Note_on_c, 0, 79, 0
1, 68586, Note_on_c, 0, 83, 0
1, 68626, Note_on_c, 0, 87, 0
1, 68646, Control_c, 0, 64, 0
1, 68674, Note_on_c, 0, 48, 98
1, 68674, Note_on_c, 0, 36, 94
1, 68778, Control_c, 0, 64, 127
1, 68830, Note_on_c, 0, 36, 0
1, 68882, Note_on_c, 0, 48, 0
1, 69306, Note_on_c, 0, 91, 117
1, 69306, Note_on_c, 0, 82, 115
1, 69306, Note_on_c, 0, 58, 82
1, 69306, Note_on_c, 0, 87, 90
1, 69318, Note_on_c, 0, 67, 89
1, 69318, Note_on_c, 0, 63, 76
1, 69326, Note_on_c, 0, 90, 31
1, 69326, Note_on_c, 0, 62, 75
1, 69374, Note_on_c, 0, 90, 0
1, 69706, Note_on_c, 0, 62, 0
1, 69714, Note_on_c, 0, 91, 0
1, 69718, Note_on_c, 0, 63, 0
1, 69726, Note_on_c, 0, 82, 0
1, 69734, Note_on_c, 0, 67, 0
1, 69738, Note_on_c, 0, 58, 0
1, 69738, Note_on_c, 0, 87, 0
1, 69994, Note_on_c, 0, 87, 85
1, 69994, Note_on_c, 0, 91, 94
1, 69994, Note_on_c, 0, 82, 87
1, 69994, Note_on_c, 0, 67, 75
1, 69994, Note_on_c, 0, 63, 63
1, 69994, Note_on_c, 0, 58, 63
1, 69994, Note_on_c, 0, 62, 66
1, 70214, Note_on_c, 0, 91, 0
1, 70286, Note_on_c, 0, 62, 0
1, 70306, Note_on_c, 0, 63, 0
1, 70318, Note_on_c, 0, 58, 0
1, 70326, Note_on_c, 0, 82, 0
1, 70326, Note_on_c, 0, 87, 0
1, 70338, Note_on_c, 0, 67, 0
1, 71378, Control_c, 0, 64, 0
1, 71382, Note_on_c, 0, 87, 73
1, 71394, Note_on_c, 0, 73, 60
1, 71394, Note_on_c, 0, 79, 57
1, 71406, Note_on_c, 0, 83, 54
1, 71466, Control_c, 0, 64, 127
1, 71486, Note_on_c, 0, 83, 0
1, 71626, Note_on_c, 0, 79, 0
1, 71642, Note_on_c, 0, 87, 0
1, 71670, Note_on_c, 0, 73, 0
1, 71734, Note_on_c, 0, 85, 63
1, 71750, Note_on_c, 0, 71, 41
1, 71758, Note_on_c, 0, 77, 54
1, 71766, Note_on_c, 0, 81, 41
1, 71814, Note_on_c, 0, 81, 0
1, 71858, Note_on_c, 0, 85, 0
1, 71866, Note_on_c, 0, 77, 0
1, 71914, Note_on_c, 0, 71, 0
1, 72058, Control_c, 0, 64, 0
1, 72066, Note_on_c, 0, 83, 59
1, 72066, Note_on_c, 0, 75, 57
1, 72066, Note_on_c, 0, 69, 47
1, 72102, Note_on_c, 0, 79, 52
1, 72110, Control_c, 0, 64, 127
1, 72134, Note_on_c, 0, 79, 0
1, 72170, Note_on_c, 0, 83, 0
1, 72254, Note_on_c, 0, 75, 0
1, 72302, Note_on_c, 0, 69, 0
1, 72370, Control_c, 0, 64, 0
1, 72398, Note_on_c, 0, 73, 54
1, 72410, Control_c, 0, 64, 127
1, 72418, Note_on_c, 0, 81, 57
1, 72426, Note_on_c, 0, 77, 63
1, 72434, Note_on_c, 0, 67, 52
1, 72522, Note_on_c, 0, 81, 0
1, 72534, Note_on_c, 0, 73, 0
1, 72538, Note_on_c, 0, 77, 0
1, 72682, Note_on_c, 0, 67, 0
1, 72758, Note_on_c, 0, 65, 46
1, 72782, Note_on_c, 0, 75, 45
1, 72790, Note_on_c, 0, 79, 48
1, 72790, Note_on_c, 0, 71, 36
1, 72874, Note_on_c, 0, 79, 0
1, 72882, Note_on_c, 0, 71, 0
1, 72958, Note_on_c, 0, 75, 0
1, 73034, Note_on_c, 0, 65, 0
1, 73082, Control_c, 0, 64, 0
1, 73094, Control_c, 0, 64, 127
1, 73106, Note_on_c, 0, 74, 58
1, 73110, Note_on_c, 0, 63, 47
1, 73110, Note_on_c, 0, 77, 58
1, 73190, Note_on_c, 0, 74, 0
1, 73218, Note_on_c, 0, 77, 0
1, 73422, Note_on_c, 0, 63, 0
1, 73430, Control_c, 0, 64, 0
1, 73466, Note_on_c, 0, 75, 49
1, 73478, Note_on_c, 0, 70, 50
1, 73478, Note_on_c, 0, 62, 50
1, 73478, Note_on_c, 0, 67, 33
1, 73534, Control_c, 0, 64, 127
1, 73610, Note_on_c, 0, 75, 0
1, 73650, Note_on_c, 0, 70, 0
1, 73650, Note_on_c, 0, 67, 0
1, 73790, Note_on_c, 0, 62, 0
1, 73814, Control_c, 0, 64, 0
1, 73822, Note_on_c, 0, 67, 57
1, 73822, Note_on_c, 0, 63, 59
1, 73834, Note_on_c, 0, 59, 55
1, 73926, Control_c, 0, 64, 127
1, 74094, Note_on_c, 0, 63, 0
1, 74118, Note_on_c, 0, 67, 0
1, 74170, Note_on_c, 0, 59, 0
1, 74186, Control_c, 0, 64, 0
1, 74194, Note_on_c, 0, 74, 65
1, 74206, Note_on_c, 0, 63, 45
1, 74214, Note_on_c, 0, 67, 56
1, 74218, Note_on_c, 0, 62, 57
1, 74386, Control_c, 0, 64, 127
1, 74498, Note_on_c, 0, 62, 0
1, 74502, Note_on_c, 0, 67, 0
1, 74502, Note_on_c, 0, 63, 0
1, 74526, Note_on_c, 0, 74, 0
1, 74574, Control_c, 0, 64, 0
1, 74590, Note_on_c, 0, 63, 53
1, 74598, Note_on_c, 0, 72, 58
1, 74602, Note_on_c, 0, 60, 56
1, 74606, Note_on_c, 0, 67, 45
1, 74662, Control_c, 0, 64, 127
1, 74762, Note_on_c, 0, 67, 0
1, 74870, Note_on_c, 0, 63, 0
1, 74930, Control_c, 0, 64, 0
1, 74942, Note_on_c, 0, 60, 0
1, 74974, Note_on_c, 0, 63, 42
1, 74982, Note_on_c, 0, 67, 57
1, 74986, Note_on_c, 0, 58, 51
1, 75030, Control_c, 0, 64, 127
1, 75070, Note_on_c, 0, 58, 0
1, 75178, Note_on_c, 0, 67, 0
1, 75198, Note_on_c, 0, 63, 0
1, 75322, Control_c, 0, 64, 0
1, 75342, Note_on_c, 0, 72, 0
1, 75386, Control_c, 0, 64, 127
1, 75386, Note_on_c, 0, 63, 52
1, 75386, Note_on_c, 0, 66, 61
1, 75746, Note_on_c, 0, 66, 0
1, 75774, Note_on_c, 0, 63, 0
1, 75850, Note_on_c, 0, 65, 55
1, 75854, Control_c, 0, 64, 0
1, 75854, Note_on_c, 0, 51, 39
1, 75858, Note_on_c, 0, 41, 45
1, 75890, Note_on_c, 0, 62, 36
1, 76058, Control_c, 0, 64, 127
1, 76090, Note_on_c, 0, 62, 0
1, 76146, Note_on_c, 0, 65, 0
1, 76258, Note_on_c, 0, 61, 46
1, 76258, Note_on_c, 0, 64, 63
1, 76262, Note_on_c, 0, 51, 0
1, 76262, Control_c, 0, 64, 0
1, 76286, Note_on_c, 0, 48, 46
1, 76314, Control_c, 0, 64, 127
1, 76510, Note_on_c, 0, 64, 0
1, 76550, Note_on_c, 0, 61, 0
1, 76718, Note_on_c, 0, 48, 0
1, 76722, Control_c, 0, 64, 0
1, 76738, Note_on_c, 0, 63, 48
1, 76750, Note_on_c, 0, 60, 42
1, 76758, Note_on_c, 0, 51, 40
1, 76886, Control_c, 0, 64, 127
1, 76926, Note_on_c, 0, 60, 0
1, 77118, Note_on_c, 0, 63, 0
1, 77142, Note_on_c, 0, 51, 0
1, 77170, Control_c, 0, 64, 0
1, 77174, Note_on_c, 0, 64, 64
1, 77174, Note_on_c, 0, 61, 61
1, 77230, Note_on_c, 0, 51, 33
1, 77278, Control_c, 0, 64, 127
1, 77426, Note_on_c, 0, 61, 0
1, 77434, Note_on_c, 0, 51, 0
1, 77458, Note_on_c, 0, 64, 0
1, 77562, Note_on_c, 0, 62, 57
1, 77562, Note_on_c, 0, 65, 66
1, 77570, Note_on_c, 0, 51, 41
1, 77706, Note_on_c, 0, 41, 0
1, 77794, Note_on_c, 0, 62, 0
1, 77814, Note_on_c, 0, 51, 0
1, 77850, Note_on_c, 0, 65, 0
1, 77926, Note_on_c, 0, 63, 67
1, 77930, Note_on_c, 0, 66, 66
1, 77950, Note_on_c, 0, 51, 35
1, 77998, Note_on_c, 0, 51, 0
1, 78214, Note_on_c, 0, 66, 0
1, 78226, Note_on_c, 0, 63, 0
1, 78270, Control_c, 0, 64, 0
1, 78322, Note_on_c, 0, 65, 60
1, 78330, Note_on_c, 0, 60, 52
1, 78330, Note_on_c, 0, 62, 56
1, 78350, Note_on_c, 0, 46, 55
1, 78406, Control_c, 0, 64, 127
1, 78426, Note_on_c, 0, 60, 0
1, 78458, Note_on_c, 0, 62, 0
1, 78486, Note_on_c, 0, 65, 0
1, 78698, Note_on_c, 0, 77, 85
1, 78730, Note_on_c, 0, 53, 46
1, 78758, Note_on_c, 0, 46, 0
1, 78770, Note_on_c, 0, 53, 0
1, 78974, Note_on_c, 0, 77, 0
1, 79138, Note_on_c, 0, 60, 57
1, 79146, Note_on_c, 0, 77, 77
1, 79422, Note_on_c, 0, 77, 0
1, 79570, Note_on_c, 0, 77, 62
1, 79586, Note_on_c, 0, 62, 42
1, 79826, Note_on_c, 0, 77, 0
1, 80054, Note_on_c, 0, 77, 55
1, 80066, Note_on_c, 0, 65, 34
1, 80282, Note_on_c, 0, 77, 0
1, 80314, Note_on_c, 0, 62, 0
1, 80558, Note_on_c, 0, 65, 0
1, 80566, Note_on_c, 0, 77, 54
1, 80590, Note_on_c, 0, 62, 24
1, 80670, Note_on_c, 0, 62, 0
1, 80678, Note_on_c, 0, 60, 0
1, 80786, Note_on_c, 0, 77, 0
1, 81146, Note_on_c, 0, 58, 46
1, 81154, Note_on_c, 0, 84, 68
1, 81198, Note_on_c, 0, 80, 57
1, 81198, Note_on_c, 0, 60, 43
1, 81234, Note_on_c, 0, 77, 49
1, 81270, Control_c, 0, 64, 0
1, 81282, Note_on_c, 0, 63, 36
1, 81338, Note_on_c, 0, 68, 38
1, 81346, Note_on_c, 0, 72, 57
1, 81578, Control_c, 0, 64, 127
1, 83054, Note_on_c, 0, 72, 0
1, 83078, Note_on_c, 0, 77, 0
1, 83142, Note_on_c, 0, 84, 0
1, 83154, Note_on_c, 0, 80, 0
1, 83390, Note_on_c, 0, 68, 0
1, 83454, Note_on_c, 0, 60, 0
1, 83498, Note_on_c, 0, 63, 0
1, 83510, Note_on_c, 0, 58, 0
1, 83702, Note_on_c, 0, 86, 63
1, 83806, Note_on_c, 0, 86, 0
1, 84242, Note_on_c, 0, 83, 62
1, 84258, Note_on_c, 0, 39, 45
1, 84266, Control_c, 0, 64, 0
1, 84282, Note_on_c, 0, 74, 44
1, 84434, Control_c, 0, 64, 127
1, 84574, Note_on_c, 0, 39, 0
1, 84618, Note_on_c, 0, 46, 50
1, 84642, Note_on_c, 0, 83, 0
1, 84714, Note_on_c, 0, 74, 0
1, 84930, Note_on_c, 0, 46, 0
1, 84962, Note_on_c, 0, 84, 56
1, 84998, Note_on_c, 0, 75, 43
1, 85014, Note_on_c, 0, 55, 46
1, 85378, Note_on_c, 0, 58, 36
1, 85402, Note_on_c, 0, 55, 0
1, 85474, Note_on_c, 0, 84, 0
1, 85782, Note_on_c, 0, 75, 0
1, 85814, Note_on_c, 0, 62, 42
1, 86770, Note_on_c, 0, 85, 58
1, 86990, Note_on_c, 0, 85, 0
1, 87018, Note_on_c, 0, 86, 57
1, 87126, Note_on_c, 0, 86, 0
1, 87146, Note_on_c, 0, 62, 0
1, 87174, Note_on_c, 0, 87, 62
1, 87254, Note_on_c, 0, 87, 0
1, 87302, Note_on_c, 0, 58, 0
1, 87310, Note_on_c, 0, 88, 60
1, 87406, Note_on_c, 0, 88, 0
1, 87414, Note_on_c, 0, 89, 57
1, 87518, Note_on_c, 0, 90, 63
1, 87530, Note_on_c, 0, 89, 0
1, 87574, Note_on_c, 0, 90, 0
1, 87626, Note_on_c, 0, 91, 52
1, 87666, Note_on_c, 0, 91, 0
1, 87726, Note_on_c, 0, 92, 36
1, 87826, Note_on_c, 0, 92, 0
1, 87890, Note_on_c, 0, 61, 53
1, 87910, Control_c, 0, 64, 0
1, 87910, Note_on_c, 0, 93, 56
1, 87918, Note_on_c, 0, 52, 53
1, 88134, Control_c, 0, 64, 127
1, 88274, Note_on_c, 0, 93, 0
1, 88274, Note_on_c, 0, 61, 0
1, 88342, Note_on_c, 0, 52, 0
1, 88350, Note_on_c, 0, 58, 48
1, 88398, Note_on_c, 0, 58, 0
1, 88794, Note_on_c, 0, 70, 43
1, 88834, Note_on_c, 0, 64, 35
1, 89686, Note_on_c, 0, 70, 0
1, 89706, Note_on_c, 0, 79, 58
1, 90058, Note_on_c, 0, 64, 0
1, 90178, Note_on_c, 0, 79, 0
1, 90554, Note_on_c, 0, 77, 50
1, 90562, Note_on_c, 0, 65, 24
1, 90570, Control_c, 0, 64, 0
1, 90598, Note_on_c, 0, 60, 31
1, 90638, Note_on_c, 0, 62, 27
1, 90666, Note_on_c, 0, 77, 0
1, 90722, Note_on_c, 0, 65, 0
1, 90754, Note_on_c, 0, 79, 45
1, 90814, Note_on_c, 0, 79, 0
1, 90842, Note_on_c, 0, 77, 49
1, 90942, Note_on_c, 0, 77, 0
1, 90962, Note_on_c, 0, 76, 52
1, 91014, Note_on_c, 0, 76, 0
1, 91054, Note_on_c, 0, 53, 39
1, 91102, Note_on_c, 0, 77, 57
1, 91146, Note_on_c, 0, 77, 0
1, 91338, Note_on_c, 0, 79, 54
1, 91426, Note_on_c, 0, 79, 0
1, 91522, Note_on_c, 0, 81, 46
1, 91586, Note_on_c, 0, 81, 0
1, 91618, Note_on_c, 0, 60, 0
1, 91642, Note_on_c, 0, 62, 0
1, 91710, Note_on_c, 0, 82, 57
1, 91814, Note_on_c, 0, 82, 0
1, 91926, Note_on_c, 0, 84, 61
1, 91930, Note_on_c, 0, 58, 39
1, 91938, Note_on_c, 0, 63, 39
1, 91958, Note_on_c, 0, 65, 37
1, 91982, Note_on_c, 0, 84, 0
1, 92110, Note_on_c, 0, 86, 56
1, 92166, Note_on_c, 0, 86, 0
1, 92234, Note_on_c, 0, 58, 0
1, 92242, Note_on_c, 0, 53, 0
1, 92242, Note_on_c, 0, 63, 0
1, 92290, Note_on_c, 0, 87, 63
1, 92350, Note_on_c, 0, 87, 0
1, 92362, Note_on_c, 0, 53, 46
1, 92474, Note_on_c, 0, 89, 50
1, 92546, Note_on_c, 0, 89, 0
1, 92594, Note_on_c, 0, 65, 0
1, 92642, Note_on_c, 0, 91, 68
1, 92730, Note_on_c, 0, 91, 0
1, 92834, Note_on_c, 0, 93, 66
1, 92922, Note_on_c, 0, 93, 0
1, 93034, Note_on_c, 0, 94, 56
1, 93038, Note_on_c, 0, 65, 30
1, 93066, Note_on_c, 0, 62, 35
1, 93070, Note_on_c, 0, 60, 32
1, 93118, Note_on_c, 0, 94, 0
1, 93226, Note_on_c, 0, 96, 61
1, 93254, Note_on_c, 0, 53, 0
1, 93290, Note_on_c, 0, 96, 0
1, 93422, Note_on_c, 0, 98, 66
1, 93478, Note_on_c, 0, 53, 39
1, 93502, Note_on_c, 0, 98, 0
1, 93618, Note_on_c, 0, 99, 59
1, 93690, Note_on_c, 0, 99, 0
1, 93702, Note_on_c, 0, 60, 0
1, 93702, Note_on_c, 0, 62, 0
1, 93742, Note_on_c, 0, 65, 0
1, 93814, Note_on_c, 0, 100, 56
1, 93914, Note_on_c, 0, 100, 0
1, 94030, Note_on_c, 0, 101, 56
1, 94142, Note_on_c, 0, 101, 0
1, 94290, Note_on_c, 0, 101, 46
1, 94294, Note_on_c, 0, 58, 36
1, 94298, Note_on_c, 0, 63, 31
1, 94306, Note_on_c, 0, 65, 27
1, 94338, Control_c, 0, 64, 127
1, 94554, Note_on_c, 0, 101, 0
1, 94754, Note_on_c, 0, 58, 0
1, 94762, Note_on_c, 0, 63, 0
1, 94810, Note_on_c, 0, 101, 48
1, 94822, Note_on_c, 0, 53, 0
1, 95354, Note_on_c, 0, 53, 32
1, 95506, Note_on_c, 0, 101, 0
1, 95822, Note_on_c, 0, 65, 0
1, 96890, Control_c, 0, 64, 0
1, 96918, Note_on_c, 0, 74, 57
1, 96926, Note_on_c, 0, 70, 52
1, 96930, Note_on_c, 0, 65, 44
1, 96946, Note_on_c, 0, 62, 29
1, 96982, Note_on_c, 0, 60, 22
1, 97034, Control_c, 0, 64, 127
1, 97166, Note_on_c, 0, 53, 0
1, 97198, Note_on_c, 0, 65, 0
1, 97218, Note_on_c, 0, 74, 0
1, 97326, Note_on_c, 0, 70, 0
1, 97382, Control_c, 0, 64, 0
1, 97402, Note_on_c, 0, 75, 66
1, 97430, Note_on_c, 0, 53, 37
1, 97434, Note_on_c, 0, 66, 48
1, 97458, Note_on_c, 0, 71, 43
1, 97506, Control_c, 0, 64, 127
1, 97542, Note_on_c, 0, 60, 0
1, 97542, Note_on_c, 0, 62, 0
1, 97594, Note_on_c, 0, 71, 0
1, 97662, Note_on_c, 0, 66, 0
1, 97714, Note_on_c, 0, 75, 0
1, 97782, Control_c, 0, 64, 0
1, 97826, Note_on_c, 0, 76, 72
1, 97826, Note_on_c, 0, 65, 49
1, 97842, Note_on_c, 0, 67, 63
1, 97842, Note_on_c, 0, 72, 60
1, 97858, Control_c, 0, 64, 127
1, 97858, Note_on_c, 0, 62, 40
1, 97874, Note_on_c, 0, 60, 35
1, 97958, Note_on_c, 0, 76, 0
1, 98026, Note_on_c, 0, 67, 0
1, 98030, Note_on_c, 0, 65, 0
1, 98074, Note_on_c, 0, 72, 0
1, 98078, Note_on_c, 0, 53, 0
1, 98222, Control_c, 0, 64, 0
1, 98262, Note_on_c, 0, 53, 45
1, 98262, Note_on_c, 0, 66, 50
1, 98266, Note_on_c, 0, 75, 48
1, 98294, Note_on_c, 0, 71, 56
1, 98386, Note_on_c, 0, 60, 0
1, 98418, Control_c, 0, 64, 127
1, 98438, Note_on_c, 0, 62, 0
1, 98494, Note_on_c, 0, 71, 0
1, 98562, Note_on_c, 0, 75, 0
1, 98566, Note_on_c, 0, 66, 0
1, 98690, Note_on_c, 0, 74, 47
1, 98698, Note_on_c, 0, 70, 43
1, 98698, Note_on_c, 0, 62, 36
1, 98698, Note_on_c, 0, 65, 38
1, 98718, Note_on_c, 0, 60, 34
1, 98878, Note_on_c, 0, 65, 0
1, 98878, Note_on_c, 0, 53, 0
1, 98910, Note_on_c, 0, 74, 0
1, 98954, Note_on_c, 0, 70, 0
1, 99110, Control_c, 0, 64, 0
1, 99130, Note_on_c, 0, 73, 57
1, 99138, Note_on_c, 0, 53, 47
1, 99142, Note_on_c, 0, 64, 45
1, 99158, Note_on_c, 0, 69, 47
1, 99226, Control_c, 0, 64, 127
1, 99286, Note_on_c, 0, 64, 0
1, 99294, Note_on_c, 0, 73, 0
1, 99310, Note_on_c, 0, 69, 0
1, 99394, Note_on_c, 0, 53, 0
1, 99474, Note_on_c, 0, 62, 0
1, 99486, Note_on_c, 0, 60, 0
1, 99574, Control_c, 0, 64, 0
1, 99606, Note_on_c, 0, 62, 40
1, 99622, Note_on_c, 0, 63, 45
1, 99622, Note_on_c, 0, 72, 49
1, 99622, Note_on_c, 0, 68, 54
1, 99702, Control_c, 0, 64, 127
1, 99838, Note_on_c, 0, 72, 0
1, 99926, Note_on_c, 0, 68, 0
1, 99926, Note_on_c, 0, 63, 0
1, 100010, Note_on_c, 0, 62, 0
1, 100090, Control_c, 0, 64, 0
1, 100098, Note_on_c, 0, 71, 52
1, 100098, Note_on_c, 0, 53, 42
1, 100118, Note_on_c, 0, 62, 24
1, 100126, Note_on_c, 0, 67, 39
1, 100170, Control_c, 0, 64, 127
1, 100206, Note_on_c, 0, 53, 0
1, 100250, Note_on_c, 0, 71, 0
1, 100254, Note_on_c, 0, 62, 0
1, 100282, Note_on_c, 0, 67, 0
1, 100582, Control_c, 0, 64, 0
1, 100602, Note_on_c, 0, 53, 41
1, 100606, Note_on_c, 0, 66, 50
1, 100610, Note_on_c, 0, 61, 39
1, 100630, Note_on_c, 0, 70, 39
1, 100670, Control_c, 0, 64, 24
1, 100674, Control_c, 0, 64, 127
1, 100826, Note_on_c, 0, 70, 0
1, 100882, Note_on_c, 0, 66, 0
1, 100898, Note_on_c, 0, 61, 0
1, 101066, Control_c, 0, 64, 0
1, 101118, Note_on_c, 0, 53, 0
1, 101126, Note_on_c, 0, 41, 49
1, 101142, Note_on_c, 0, 65, 48
1, 101142, Note_on_c, 0, 60, 38
1, 101142, Note_on_c, 0, 69, 38
1, 101158, Control_c, 0, 64, 127
1, 101258, Note_on_c, 0, 41, 0
1, 101262, Note_on_c, 0, 69, 0
1, 101326, Note_on_c, 0, 65, 0
1, 101366, Note_on_c, 0, 60, 0
1, 101762, Control_c, 0, 64, 24
1, 101766, Control_c, 0, 64, 0
1, 101770, Note_on_c, 0, 68, 50
1, 101782, Note_on_c, 0, 64, 46
1, 101794, Note_on_c, 0, 59, 29
1, 101806, Note_on_c, 0, 41, 22
1, 101894, Control_c, 0, 64, 127
1, 102110, Note_on_c, 0, 59, 0
1, 102118, Note_on_c, 0, 41, 0
1, 102118, Note_on_c, 0, 64, 0
1, 102190, Note_on_c, 0, 68, 0
1, 102686, Control_c, 0, 64, 0
1, 102694, Note_on_c, 0, 58, 45
1, 102706, Note_on_c, 0, 67, 42
1, 102710, Note_on_c, 0, 63, 47
1, 102722, Note_on_c, 0, 41, 21
1, 102738, Note_on_c, 0, 29, 23
1, 102806, Note_on_c, 0, 29, 0
1, 102806, Note_on_c, 0, 63, 0
1, 102806, Note_on_c, 0, 58, 0
1, 102806, Note_on_c, 0, 67, 0
1, 102806, Note_on_c, 0, 41, 0
1, 102806, Control_c, 0, 64, 127
1, 103412, Note_on_c, 9, 59, 75
1, 103422, Control_c, 0, 64, 0
1, 103424, Note_on_c, 1, 34, 84
1, 103478, Note_on_c, 0, 89, 66
1, 103510, Note_on_c, 0, 53, 49
1, 103560, Note_on_c, 9, 59, 0
1, 104064, Note_on_c, 9, 59, 62
1, 104098, Note_on_c, 9, 59, 0
1, 104174, Note_on_c, 9, 59, 56
1, 104266, Note_on_c, 9, 59, 0
1, 104266, Note_on_c, 1, 34, 0
1, 104346, Note_on_c, 1, 36, 67
1, 104416, Note_on_c, 1, 36, 0
1, 104452, Note_on_c, 1, 37, 58
1, 104498, Note_on_c, 0, 89, 0
1, 104520, Note_on_c, 9, 59, 82
1, 104552, Note_on_c, 1, 37, 0
1, 104584, Note_on_c, 1, 38, 79
1, 104704, Note_on_c, 9, 59, 0
1, 104726, Note_on_c, 0, 53, 0
1, 104790, Tempo, 342857
1, 105010, Note_on_c, 0, 94, 94
1, 105026, Note_on_c, 0, 62, 75
1, 105026, Note_on_c, 0, 56, 76
1, 105038, Note_on_c, 0, 66, 75
1, 105038, Control_c, 9, 0, 127
1, 105038, Control_c, 9, 32, 0
1, 105038, Control_c, 9, 94, 0
1, 105038, Control_c, 9, 101, 0
1, 105039, Control_c, 9, 100, 1
1, 105040, Control_c, 9, 6, 64
1, 105041, Control_c, 9, 38, 0
1, 105042, Pitch_bend_c, 9, 8192
1, 105042, Control_c, 9, 0, 127
1, 105042, Control_c, 9, 32, 0
1, 105042, Control_c, 9, 7, 112
1, 105042, Control_c, 9, 10, 64
1, 105042, Control_c, 9, 11, 127
1, 105042, Control_c, 9, 91, 0
1, 105042, Control_c, 9, 0, 127
1, 105042, Control_c, 9, 32, 0
1, 105042, Program_c, 9, 32
1, 105042, Control_c, 9, 93, 0
1, 105124, Note_on_c, 9, 59, 50
1, 105156, Note_on_c, 9, 59, 0
1, 105252, Note_on_c, 9, 59, 50
1, 105412, Note_on_c, 9, 59, 0
1, 105500, Note_on_c, 1, 37, 55
1, 105524, Note_on_c, 1, 38, 0
1, 105542, Note_on_c, 0, 66, 0
1, 105594, Note_on_c, 0, 90, 65
1, 105600, Note_on_c, 1, 37, 0
1, 105602, Note_on_c, 0, 62, 0
1, 105606, Note_on_c, 0, 56, 0
1, 105624, Note_on_c, 1, 39, 68
1, 105638, Note_on_c, 0, 94, 0
1, 105644, Note_on_c, 9, 59, 71
1, 105730, Note_on_c, 0, 62, 33
1, 105738, Note_on_c, 0, 90, 0
1, 105738, Note_on_c, 0, 65, 52
1, 105766, Note_on_c, 0, 93, 67
1, 105778, Note_on_c, 0, 55, 41
1, 105786, Note_on_c, 0, 60, 39
1, 105888, Note_on_c, 9, 59, 0
1, 105942, Note_on_c, 0, 93, 0
1, 106040, Note_on_c, 9, 59, 55
1, 106080, Note_on_c, 9, 59, 0
1, 106110, Note_on_c, 0, 93, 63
1, 106222, Note_on_c, 0, 93, 0
1, 106296, Note_on_c, 9, 59, 57
1, 106324, Note_on_c, 9, 59, 0
1, 106366, Note_on_c, 0, 65, 0
1, 106404, Note_on_c, 9, 59, 58
1, 106410, Note_on_c, 0, 62, 0
1, 106434, Note_on_c, 0, 60, 0
1, 106518, Note_on_c, 0, 55, 0
1, 106540, Note_on_c, 1, 41, 55
1, 106576, Note_on_c, 1, 41, 0
1, 106620, Note_on_c, 9, 59, 0
1, 106644, Note_on_c, 1, 39, 0
1, 106688, Note_on_c, 1, 42, 47
1, 106706, Note_on_c, 0, 91, 60
1, 106728, Note_on_c, 1, 42, 0
1, 106776, Note_on_c, 9, 59, 63
1, 106798, Note_on_c, 0, 91, 0
1, 106820, Note_on_c, 1, 43, 51
1, 106850, Note_on_c, 0, 59, 39
1, 106850, Note_on_c, 0, 63, 29
1, 106852, Note_on_c, 1, 43, 0
1, 106890, Note_on_c, 0, 53, 31
1, 106890, Note_on_c, 0, 91, 58
1, 106964, Note_on_c, 1, 38, 70
1, 107040, Note_on_c, 1, 38, 0
1, 107044, Note_on_c, 9, 59, 0
1, 107088, Note_on_c, 1, 32, 65
1, 107112, Note_on_c, 9, 35, 41
1, 107126, Note_on_c, 0, 91, 0
1, 107164, Note_on_c, 9, 59, 61
1, 107180, Note_on_c, 1, 32, 0
1, 107200, Note_on_c, 1, 31, 80
1, 107228, Note_on_c, 9, 35, 0
1, 107246, Note_on_c, 0, 63, 0
1, 107246, Note_on_c, 0, 53, 0
1, 107264, Note_on_c, 9, 59, 0
1, 107278, Note_on_c, 0, 59, 0
1, 107444, Note_on_c, 9, 59, 54
1, 107476, Note_on_c, 9, 59, 0
1, 107490, Note_on_c, 0, 63, 46
1, 107502, Note_on_c, 0, 59, 45
1, 107524, Note_on_c, 1, 31, 0
1, 107528, Note_on_c, 9, 44, 43
1, 107542, Note_on_c, 0, 59, 0
1, 107548, Note_on_c, 9, 59, 54
1, 107560, Note_on_c, 1, 35, 85
1, 107562, Note_on_c, 0, 63, 0
1, 107768, Note_on_c, 9, 59, 0
1, 107808, Note_on_c, 9, 44, 0
1, 107848, Note_on_c, 1, 34, 43
1, 107892, Note_on_c, 1, 34, 0
1, 107904, Note_on_c, 1, 35, 0
1, 107928, Note_on_c, 9, 44, 45
1, 107940, Note_on_c, 1, 36, 68
1, 107940, Note_on_c, 9, 59, 50
1, 107990, Note_on_c, 0, 58, 43
1, 107994, Note_on_c, 0, 63, 43
1, 108046, Note_on_c, 0, 62, 26
1, 108138, Note_on_c, 0, 62, 0
1, 108142, Note_on_c, 0, 58, 0
1, 108142, Note_on_c, 0, 63, 0
1, 108196, Note_on_c, 9, 59, 0
1, 108344, Note_on_c, 9, 59, 32
1, 108384, Note_on_c, 9, 59, 0
1, 108404, Note_on_c, 9, 44, 0
1, 108572, Note_on_c, 9, 59, 60
1, 108608, Note_on_c, 9, 59, 0
1, 108614, Note_on_c, 0, 63, 54
1, 108614, Note_on_c, 0, 58, 50
1, 108614, Note_on_c, 0, 67, 48
1, 108620, Note_on_c, 1, 34, 42
1, 108622, Note_on_c, 0, 62, 40
1, 108662, Note_on_c, 0, 67, 0
1, 108670, Note_on_c, 0, 62, 0
1, 108692, Note_on_c, 9, 59, 43
1, 108704, Note_on_c, 1, 48, 105
1, 108708, Note_on_c, 9, 44, 48
1, 108710, Note_on_c, 0, 63, 0
1, 108726, Note_on_c, 0, 58, 0
1, 108736, Note_on_c, 1, 34, 0
1, 108758, Note_on_c, 0, 91, 115
1, 108764, Note_on_c, 1, 36, 0
1, 108772, Note_on_c, 9, 44, 0
1, 108900, Note_on_c, 9, 59, 0
1, 108962, Note_on_c, 0, 91, 0
1, 108994, Note_on_c, 0, 90, 68
1, 109076, Note_on_c, 9, 46, 50
1, 109118, Note_on_c, 0, 90, 0
1, 109138, Note_on_c, 0, 59, 50
1, 109146, Note_on_c, 0, 63, 48
1, 109150, Note_on_c, 0, 91, 81
1, 109170, Note_on_c, 0, 53, 40
1, 109328, Note_on_c, 9, 59, 55
1, 109334, Note_on_c, 0, 91, 0
1, 109360, Note_on_c, 1, 42, 55
1, 109372, Note_on_c, 9, 59, 0
1, 109378, Note_on_c, 0, 53, 0
1, 109406, Note_on_c, 0, 87, 63
1, 109420, Note_on_c, 1, 48, 0
1, 109422, Note_on_c, 0, 63, 0
1, 109452, Note_on_c, 9, 59, 53
1, 109456, Note_on_c, 1, 42, 0
1, 109488, Note_on_c, 1, 43, 70
1, 109494, Note_on_c, 0, 87, 0
1, 109510, Note_on_c, 0, 59, 0
1, 109692, Note_on_c, 9, 59, 0
1, 109778, Note_on_c, 0, 63, 54
1, 109786, Note_on_c, 0, 59, 45
1, 109818, Note_on_c, 0, 63, 0
1, 109826, Note_on_c, 0, 59, 0
1, 109860, Note_on_c, 9, 46, 0
1, 109860, Note_on_c, 9, 44, 46
1, 109968, Note_on_c, 9, 44, 0
1, 109996, Note_on_c, 1, 38, 58
1, 110000, Note_on_c, 1, 43, 0
1, 110108, Note_on_c, 1, 38, 0
1, 110128, Note_on_c, 1, 35, 64
1, 110132, Note_on_c, 9, 59, 41
1, 110168, Note_on_c, 9, 59, 0
1, 110190, Note_on_c, 0, 67, 46
1, 110202, Note_on_c, 0, 63, 46
1, 110220, Note_on_c, 1, 35, 0
1, 110228, Note_on_c, 9, 59, 58
1, 110234, Note_on_c, 0, 58, 26
1, 110242, Note_on_c, 0, 67, 0
1, 110244, Note_on_c, 1, 36, 80
1, 110258, Note_on_c, 0, 63, 0
1, 110294, Note_on_c, 0, 58, 0
1, 110302, Note_on_c, 0, 86, 85
1, 110412, Note_on_c, 9, 59, 0
1, 110454, Note_on_c, 0, 86, 0
1, 110510, Note_on_c, 0, 87, 89
1, 110512, Note_on_c, 9, 53, 85
1, 110554, Note_on_c, 0, 63, 37
1, 110570, Note_on_c, 0, 62, 34
1, 110610, Note_on_c, 0, 63, 0
1, 110626, Note_on_c, 0, 62, 0
1, 110640, Note_on_c, 1, 48, 120
1, 110670, Note_on_c, 0, 87, 0
1, 110684, Note_on_c, 1, 36, 0
1, 110694, Note_on_c, 0, 86, 61
1, 110790, Note_on_c, 0, 86, 0
1, 110884, Note_on_c, 9, 53, 0
1, 110894, Note_on_c, 0, 67, 44
1, 110908, Note_on_c, 9, 59, 42
1, 110930, Note_on_c, 0, 63, 34
1, 110944, Note_on_c, 9, 59, 0
1, 110946, Note_on_c, 0, 67, 0
1, 110994, Note_on_c, 0, 63, 0
1, 111008, Note_on_c, 1, 42, 70
1, 111008, Note_on_c, 9, 44, 40
1, 111028, Note_on_c, 9, 59, 35
1, 111032, Note_on_c, 1, 48, 0
1, 111096, Note_on_c, 9, 44, 0
1, 111216, Note_on_c, 9, 59, 0
1, 111280, Note_on_c, 9, 59, 66
1, 111292, Note_on_c, 1, 39, 51
1, 111306, Note_on_c, 0, 63, 35
1, 111328, Note_on_c, 9, 59, 0
1, 111352, Note_on_c, 1, 42, 0
1, 111370, Note_on_c, 0, 63, 0
1, 111372, Note_on_c, 1, 39, 0
1, 111384, Note_on_c, 1, 41, 69
1, 111388, Note_on_c, 9, 46, 55
1, 111416, Note_on_c, 9, 59, 43
1, 111624, Note_on_c, 9, 59, 0
1, 111654, Note_on_c, 0, 67, 40
1, 111658, Note_on_c, 0, 63, 46
1, 111706, Note_on_c, 0, 57, 29
1, 111710, Note_on_c, 0, 67, 0
1, 111762, Note_on_c, 0, 57, 0
1, 111772, Note_on_c, 9, 59, 53
1, 111778, Note_on_c, 0, 63, 0
1, 111800, Note_on_c, 9, 59, 0
1, 111854, Note_on_c, 0, 84, 47
1, 111906, Note_on_c, 0, 84, 0
1, 112024, Note_on_c, 1, 40, 77
1, 112024, Note_on_c, 9, 59, 51
1, 112040, Note_on_c, 1, 41, 0
1, 112042, Note_on_c, 0, 86, 86
1, 112058, Note_on_c, 0, 63, 56
1, 112082, Note_on_c, 0, 57, 45
1, 112084, Note_on_c, 9, 59, 0
1, 112098, Note_on_c, 0, 63, 0
1, 112100, Note_on_c, 1, 40, 0
1, 112112, Note_on_c, 9, 46, 0
1, 112126, Note_on_c, 0, 57, 0
1, 112134, Note_on_c, 0, 86, 0
1, 112144, Note_on_c, 1, 39, 82
1, 112152, Note_on_c, 9, 59, 50
1, 112156, Note_on_c, 9, 44, 49
1, 112210, Note_on_c, 0, 87, 87
1, 112224, Note_on_c, 1, 39, 0
1, 112308, Note_on_c, 9, 44, 0
1, 112326, Note_on_c, 0, 87, 0
1, 112352, Note_on_c, 9, 59, 0
1, 112404, Note_on_c, 1, 37, 76
1, 112408, Note_on_c, 9, 59, 56
1, 112434, Note_on_c, 0, 88, 94
1, 112448, Note_on_c, 9, 59, 0
1, 112462, Note_on_c, 0, 86, 52
1, 112476, Note_on_c, 1, 37, 0
1, 112494, Note_on_c, 0, 60, 74
1, 112502, Note_on_c, 0, 86, 0
1, 112502, Note_on_c, 0, 50, 56
1, 112502, Note_on_c, 0, 57, 63
1, 112502, Note_on_c, 0, 53, 54
1, 112530, Note_on_c, 0, 88, 0
1, 112536, Note_on_c, 1, 38, 76
1, 112556, Note_on_c, 9, 59, 43
1, 112622, Note_on_c, 0, 89, 117
1, 112642, Note_on_c, 0, 88, 61
1, 112682, Note_on_c, 0, 88, 0
1, 112692, Note_on_c, 9, 59, 0
1, 112786, Note_on_c, 0, 57, 0
1, 112798, Note_on_c, 0, 89, 0
1, 112808, Note_on_c, 1, 37, 53
1, 112844, Note_on_c, 1, 38, 0
1, 112904, Note_on_c, 1, 37, 0
1, 112926, Note_on_c, 0, 57, 36
1, 112928, Note_on_c, 1, 45, 91
1, 112928, Note_on_c, 9, 59, 52
1, 112946, Note_on_c, 0, 60, 0
1, 112970, Note_on_c, 0, 89, 94
1, 112982, Note_on_c, 0, 77, 89
1, 113010, Note_on_c, 0, 57, 0
1, 113112, Note_on_c, 9, 59, 0
1, 113154, Note_on_c, 0, 89, 0
1, 113162, Note_on_c, 0, 77, 0
1, 113194, Note_on_c, 0, 53, 0
1, 113200, Note_on_c, 0, 88, 66
1, 113200, Note_on_c, 9, 59, 55
1, 113218, Note_on_c, 0, 50, 0
1, 113228, Note_on_c, 9, 59, 0
1, 113230, Note_on_c, 0, 60, 38
1, 113278, Note_on_c, 0, 60, 0
1, 113306, Note_on_c, 0, 88, 0
1, 113324, Note_on_c, 9, 44, 42
1, 113344, Note_on_c, 9, 59, 56
1, 113354, Note_on_c, 0, 89, 99
1, 113358, Note_on_c, 0, 77, 85
1, 113504, Note_on_c, 1, 40, 71
1, 113532, Note_on_c, 1, 40, 0
1, 113542, Note_on_c, 0, 89, 0
1, 113556, Note_on_c, 9, 59, 0
1, 113602, Note_on_c, 0, 88, 57
1, 113616, Note_on_c, 1, 38, 76
1, 113618, Note_on_c, 0, 77, 0
1, 113680, Note_on_c, 1, 38, 0
1, 113692, Note_on_c, 1, 45, 0
1, 113714, Note_on_c, 0, 88, 0
1, 113726, Note_on_c, 0, 64, 61
1, 113730, Note_on_c, 0, 89, 81
1, 113738, Note_on_c, 0, 61, 48
1, 113744, Note_on_c, 1, 37, 91
1, 113746, Note_on_c, 0, 58, 48
1, 113754, Note_on_c, 0, 77, 61
1, 113754, Note_on_c, 0, 55, 38
1, 113866, Note_on_c, 0, 77, 0
1, 113882, Note_on_c, 0, 88, 4
1, 113902, Note_on_c, 0, 89, 0
1, 113934, Note_on_c, 0, 88, 0
1, 113988, Note_on_c, 9, 59, 36
1, 114010, Note_on_c, 0, 93, 107
1, 114018, Note_on_c, 0, 81, 85
1, 114022, Note_on_c, 0, 87, 63
1, 114024, Note_on_c, 9, 59, 0
1, 114050, Note_on_c, 0, 91, 45
1, 114058, Note_on_c, 0, 87, 0
1, 114084, Note_on_c, 9, 44, 0
1, 114092, Note_on_c, 0, 91, 0
1, 114092, Note_on_c, 9, 59, 49
1, 114110, Note_on_c, 0, 81, 0
1, 114134, Note_on_c, 0, 93, 0
1, 114134, Note_on_c, 0, 64, 0
1, 114142, Note_on_c, 0, 61, 0
1, 114154, Note_on_c, 0, 58, 0
1, 114162, Note_on_c, 0, 55, 0
1, 114348, Note_on_c, 9, 59, 0
1, 114352, Note_on_c, 1, 40, 59
1, 114366, Note_on_c, 0, 93, 122
1, 114382, Note_on_c, 0, 81, 78
1, 114390, Note_on_c, 0, 58, 57
1, 114390, Note_on_c, 0, 61, 63
1, 114390, Note_on_c, 0, 64, 75
1, 114390, Note_on_c, 0, 55, 66
1, 114390, Note_on_c, 0, 83, 79
1, 114390, Note_on_c, 0, 90, 58
1, 114434, Note_on_c, 0, 90, 0
1, 114434, Note_on_c, 0, 83, 0
1, 114436, Note_on_c, 1, 40, 0
1, 114458, Note_on_c, 0, 81, 0
1, 114468, Note_on_c, 1, 49, 88
1, 114474, Note_on_c, 0, 64, 0
1, 114488, Note_on_c, 1, 37, 0
1, 114488, Note_on_c, 0, 93, 0
1, 114488, Note_on_c, 9, 59, 46
1, 114526, Note_on_c, 0, 61, 0
1, 114550, Note_on_c, 0, 58, 0
1, 114560, Note_on_c, 9, 59, 0
1, 114590, Note_on_c, 0, 55, 0
1, 114726, Note_on_c, 0, 93, 87
1, 114730, Note_on_c, 0, 61, 60
1, 114734, Note_on_c, 0, 64, 62
1, 114736, Note_on_c, 9, 59, 59
1, 114740, Note_on_c, 9, 53, 65
1, 114746, Note_on_c, 0, 90, 63
1, 114752, Note_on_c, 1, 37, 46
1, 114758, Note_on_c, 0, 81, 50
1, 114762, Note_on_c, 0, 93, 0
1, 114774, Note_on_c, 0, 64, 0
1, 114774, Note_on_c, 0, 61, 0
1, 114786, Note_on_c, 0, 90, 0
1, 114796, Note_on_c, 1, 37, 0
1, 114798, Note_on_c, 0, 81, 0
1, 114812, Note_on_c, 1, 49, 0
1, 114840, Note_on_c, 1, 48, 67
1, 114898, Note_on_c, 0, 89, 87
1, 114906, Note_on_c, 0, 58, 65
1, 114922, Note_on_c, 0, 67, 60
1, 114926, Note_on_c, 0, 77, 57
1, 114934, Note_on_c, 0, 65, 66
1, 114938, Note_on_c, 0, 79, 50
1, 114946, Note_on_c, 0, 85, 30
1, 114946, Note_on_c, 0, 84, 45
1, 114954, Note_on_c, 0, 63, 40
1, 114958, Note_on_c, 0, 60, 46
1, 114974, Note_on_c, 0, 79, 0
1, 114974, Note_on_c, 0, 65, 0
1, 114984, Note_on_c, 9, 59, 0
1, 115006, Note_on_c, 0, 85, 0
1, 115058, Note_on_c, 0, 63, 0
1, 115068, Note_on_c, 9, 53, 0
1, 115086, Note_on_c, 0, 67, 0
1, 115096, Note_on_c, 1, 43, 75
1, 115104, Note_on_c, 0, 84, 0
1, 115104, Note_on_c, 9, 59, 63
1, 115114, Note_on_c, 0, 77, 0
1, 115140, Note_on_c, 1, 48, 0
1, 115140, Note_on_c, 9, 59, 0
1, 115154, Note_on_c, 0, 58, 0
1, 115158, Note_on_c, 0, 89, 0
1, 115174, Note_on_c, 0, 60, 0
1, 115176, Note_on_c, 1, 43, 0
1, 115220, Note_on_c, 1, 37, 81
1, 115256, Note_on_c, 9, 59, 52
1, 115256, Note_on_c, 9, 53, 53
1, 115262, Note_on_c, 0, 89, 66
1, 115266, Note_on_c, 0, 67, 63
1, 115270, Note_on_c, 0, 58, 44
1, 115286, Control_c, 0, 64, 127
1, 115286, Note_on_c, 0, 63, 51
1, 115290, Note_on_c, 0, 60, 48
1, 115290, Note_on_c, 0, 84, 58
1, 115290, Note_on_c, 0, 77, 61
1, 115342, Note_on_c, 0, 60, 0
1, 115346, Note_on_c, 0, 77, 0
1, 115354, Note_on_c, 0, 84, 0
1, 115378, Note_on_c, 0, 58, 0
1, 115378, Note_on_c, 0, 67, 0
1, 115382, Note_on_c, 0, 89, 0
1, 115438, Note_on_c, 0, 63, 0
1, 115496, Note_on_c, 9, 59, 0
1, 115510, Note_on_c, 0, 89, 66
1, 115530, Note_on_c, 0, 77, 66
1, 115530, Note_on_c, 0, 67, 66
1, 115542, Note_on_c, 0, 84, 58
1, 115548, Note_on_c, 1, 37, 0
1, 115550, Note_on_c, 0, 58, 49
1, 115558, Note_on_c, 0, 63, 41
1, 115560, Note_on_c, 9, 53, 0
1, 115562, Control_c, 0, 64, 0
1, 115578, Note_on_c, 0, 77, 0
1, 115578, Note_on_c, 0, 84, 0
1, 115582, Note_on_c, 0, 60, 39
1, 115592, Note_on_c, 1, 35, 74
1, 115598, Note_on_c, 0, 58, 0
1, 115610, Note_on_c, 0, 63, 0
1, 115614, Note_on_c, 0, 67, 0
1, 115620, Note_on_c, 0, 89, 0
1, 115620, Note_on_c, 9, 44, 43
1, 115630, Note_on_c, 0, 60, 0
1, 115650, Note_on_c, 0, 89, 47
1, 115674, Note_on_c, 0, 84, 55
1, 115678, Note_on_c, 0, 77, 66
1, 115678, Note_on_c, 0, 58, 46
1, 115690, Note_on_c, 0, 67, 49
1, 115734, Note_on_c, 0, 63, 41
1, 115746, Note_on_c, 0, 77, 0
1, 115774, Note_on_c, 0, 84, 0
1, 115782, Note_on_c, 0, 89, 0
1, 115786, Note_on_c, 0, 63, 0
1, 115790, Note_on_c, 0, 67, 0
1, 115808, Note_on_c, 9, 44, 0
1, 115814, Note_on_c, 0, 58, 0
1, 115844, Note_on_c, 9, 53, 65
1, 115848, Note_on_c, 9, 59, 65
1, 115890, Note_on_c, 0, 89, 66
1, 115902, Note_on_c, 0, 58, 35
1, 115902, Note_on_c, 0, 84, 66
1, 115910, Note_on_c, 0, 63, 45
1, 115928, Note_on_c, 1, 35, 0
1, 115930, Note_on_c, 0, 89, 0
1, 115938, Note_on_c, 0, 61, 39
1, 115946, Note_on_c, 0, 84, 0
1, 115954, Note_on_c, 0, 58, 0
1, 115972, Note_on_c, 1, 41, 77
1, 115974, Note_on_c, 0, 63, 0
1, 115990, Note_on_c, 0, 61, 0
1, 115996, Note_on_c, 9, 44, 41
1, 116042, Note_on_c, 0, 66, 85
1, 116054, Note_on_c, 0, 57, 72
1, 116062, Note_on_c, 0, 92, 94
1, 116062, Note_on_c, 0, 80, 87
1, 116062, Note_on_c, 0, 63, 66
1, 116062, Note_on_c, 0, 87, 87
1, 116062, Note_on_c, 0, 61, 61
1, 116128, Note_on_c, 9, 59, 0
1, 116200, Note_on_c, 9, 53, 0
1, 116220, Note_on_c, 9, 59, 52
1, 116238, Note_on_c, 0, 80, 0
1, 116258, Note_on_c, 0, 92, 0
1, 116262, Note_on_c, 0, 61, 0
1, 116266, Note_on_c, 0, 66, 0
1, 116270, Note_on_c, 0, 87, 0
1, 116278, Note_on_c, 0, 57, 0
1, 116282, Note_on_c, 0, 63, 0
1, 116300, Note_on_c, 9, 59, 0
1, 116310, Note_on_c, 0, 92, 70
1, 116326, Note_on_c, 0, 80, 60
1, 116326, Note_on_c, 0, 66, 66
1, 116326, Note_on_c, 0, 57, 35
1, 116334, Control_c, 0, 64, 127
1, 116338, Note_on_c, 0, 87, 68
1, 116344, Note_on_c, 9, 44, 0
1, 116364, Note_on_c, 1, 41, 0
1, 116370, Note_on_c, 0, 63, 62
1, 116376, Note_on_c, 9, 59, 47
1, 116382, Note_on_c, 0, 61, 51
1, 116384, Note_on_c, 1, 29, 78
1, 116388, Note_on_c, 9, 53, 65
1, 116430, Note_on_c, 0, 61, 0
1, 116444, Note_on_c, 9, 59, 0
1, 116466, Note_on_c, 0, 92, 0
1, 116486, Note_on_c, 0, 57, 0
1, 116502, Note_on_c, 0, 66, 0
1, 116518, Note_on_c, 0, 80, 0
1, 116524, Note_on_c, 9, 53, 0
1, 116530, Note_on_c, 0, 63, 0
1, 116538, Note_on_c, 0, 87, 0
1, 116624, Note_on_c, 9, 59, 57
1, 116646, Note_on_c, 0, 90, 76
1, 116662, Note_on_c, 0, 66, 75
1, 116662, Note_on_c, 0, 85, 75
1, 116668, Note_on_c, 9, 59, 0
1, 116674, Note_on_c, 0, 78, 63
1, 116690, Note_on_c, 0, 63, 48
1, 116690, Note_on_c, 0, 57, 45
1, 116738, Note_on_c, 0, 57, 0
1, 116738, Note_on_c, 0, 61, 28
1, 116742, Note_on_c, 0, 63, 0
1, 116758, Note_on_c, 0, 66, 0
1, 116768, Note_on_c, 9, 44, 47
1, 116784, Note_on_c, 9, 59, 40
1, 116794, Note_on_c, 0, 61, 0
1, 116832, Note_on_c, 9, 59, 0
1, 116926, Note_on_c, 0, 78, 0
1, 116934, Note_on_c, 0, 85, 0
1, 116974, Note_on_c, 0, 90, 0
1, 117000, Note_on_c, 9, 59, 65
1, 117016, Note_on_c, 1, 34, 67
1, 117040, Note_on_c, 1, 29, 0
1, 117052, Note_on_c, 9, 59, 0
1, 117116, Note_on_c, 1, 34, 0
1, 117132, Note_on_c, 9, 59, 58
1, 117140, Note_on_c, 9, 44, 0
1, 117156, Note_on_c, 1, 38, 69
1, 117166, Note_on_c, 0, 60, 58
1, 117166, Note_on_c, 0, 89, 68
1, 117182, Note_on_c, 0, 77, 57
1, 117182, Note_on_c, 0, 57, 49
1, 117182, Note_on_c, 0, 50, 41
1, 117190, Note_on_c, 0, 84, 56
1, 117198, Control_c, 0, 64, 0
1, 117198, Note_on_c, 0, 53, 48
1, 117408, Note_on_c, 9, 59, 0
1, 117438, Control_c, 0, 64, 127
1, 117524, Note_on_c, 9, 59, 42
1, 117536, Note_on_c, 1, 50, 81
1, 117570, Note_on_c, 0, 60, 0
1, 117582, Note_on_c, 0, 53, 0
1, 117582, Note_on_c, 0, 57, 0
1, 117590, Note_on_c, 0, 50, 0
1, 117798, Note_on_c, 0, 60, 60
1, 117800, Note_on_c, 1, 50, 0
1, 117804, Note_on_c, 1, 49, 55
1, 117806, Note_on_c, 0, 57, 47
1, 117810, Note_on_c, 0, 50, 33
1, 117822, Note_on_c, 0, 89, 0
1, 117862, Note_on_c, 0, 50, 0
1, 117862, Note_on_c, 0, 84, 0
1, 117880, Note_on_c, 1, 49, 0
1, 117886, Note_on_c, 0, 57, 0
1, 117922, Note_on_c, 0, 60, 0
1, 117924, Note_on_c, 1, 50, 65
1, 117924, Note_on_c, 9, 44, 68
1, 117954, Note_on_c, 0, 77, 0
1, 118036, Note_on_c, 9, 59, 0
1, 118044, Note_on_c, 9, 44, 0
1, 118200, Note_on_c, 9, 59, 53
1, 118232, Note_on_c, 9, 59, 0
1, 118300, Note_on_c, 1, 50, 0
1, 118310, Note_on_c, 0, 84, 85
1, 118312, Note_on_c, 9, 44, 60
1, 118316, Note_on_c, 1, 49, 65
1, 118322, Note_on_c, 0, 73, 87
1, 118322, Note_on_c, 0, 76, 82
1, 118330, Note_on_c, 0, 72, 94
1, 118332, Note_on_c, 9, 59, 42
1, 118334, Note_on_c, 0, 82, 66
1, 118354, Control_c, 0, 64, 0
1, 118374, Note_on_c, 0, 82, 0
1, 118508, Note_on_c, 9, 44, 0
1, 118536, Note_on_c, 9, 59, 0
1, 118538, Note_on_c, 0, 84, 0
1, 118548, Note_on_c, 1, 38, 0
1, 118572, Note_on_c, 9, 59, 64
1, 118586, Note_on_c, 0, 82, 71
1, 118614, Note_on_c, 0, 70, 69
1, 118618, Note_on_c, 0, 72, 0
1, 118634, Note_on_c, 0, 76, 0
1, 118708, Note_on_c, 1, 37, 107
1, 118714, Note_on_c, 0, 82, 0
1, 118784, Note_on_c, 1, 49, 0
1, 118786, Note_on_c, 0, 73, 0
1, 118878, Note_on_c, 0, 70, 0
1, 118932, Note_on_c, 9, 59, 0
1, 118942, Note_on_c, 0, 81, 82
1, 118962, Note_on_c, 0, 70, 64
1, 118962, Note_on_c, 0, 73, 64
1, 118962, Note_on_c, 0, 69, 67
1, 118972, Note_on_c, 9, 59, 47
1, 119004, Note_on_c, 9, 59, 0
1, 119026, Note_on_c, 0, 76, 29
1, 119066, Control_c, 0, 64, 127
1, 119072, Note_on_c, 9, 44, 69
1, 119112, Note_on_c, 9, 59, 73
1, 119122, Note_on_c, 0, 76, 0
1, 119162, Note_on_c, 0, 81, 0
1, 119192, Note_on_c, 9, 44, 0
1, 119206, Note_on_c, 0, 69, 0
1, 119230, Note_on_c, 0, 73, 0
1, 119270, Note_on_c, 0, 67, 58
1, 119340, Note_on_c, 1, 37, 0
1, 119350, Note_on_c, 0, 70, 0
1, 119352, Note_on_c, 1, 35, 70
1, 119412, Note_on_c, 9, 59, 0
1, 119438, Note_on_c, 0, 67, 0
1, 119460, Note_on_c, 9, 59, 38
1, 119468, Note_on_c, 1, 35, 0
1, 119492, Note_on_c, 1, 36, 77
1, 119530, Control_c, 0, 64, 0
1, 119546, Note_on_c, 0, 79, 81
1, 119562, Note_on_c, 0, 70, 75
1, 119562, Note_on_c, 0, 65, 65
1, 119578, Note_on_c, 0, 75, 63
1, 119640, Note_on_c, 9, 59, 0
1, 119720, Note_on_c, 9, 59, 71
1, 119842, Note_on_c, 0, 79, 0
1, 119850, Note_on_c, 0, 65, 0
1, 119850, Note_on_c, 0, 75, 0
1, 119854, Note_on_c, 0, 77, 61
1, 119856, Note_on_c, 1, 36, 0
1, 119860, Note_on_c, 1, 48, 111
1, 119878, Note_on_c, 0, 63, 50
1, 119970, Note_on_c, 0, 70, 0
1, 120002, Note_on_c, 0, 77, 0
1, 120040, Note_on_c, 9, 59, 0
1, 120058, Note_on_c, 0, 63, 0
1, 120100, Note_on_c, 9, 59, 47
1, 120136, Note_on_c, 9, 59, 0
1, 120166, Note_on_c, 0, 77, 55
1, 120170, Note_on_c, 0, 62, 57
1, 120170, Note_on_c, 0, 69, 64
1, 120182, Note_on_c, 0, 74, 49
1, 120212, Note_on_c, 1, 48, 0
1, 120222, Note_on_c, 0, 74, 0
1, 120228, Note_on_c, 1, 42, 78
1, 120252, Note_on_c, 9, 44, 57
1, 120256, Note_on_c, 9, 59, 63
1, 120270, Note_on_c, 0, 77, 0
1, 120294, Note_on_c, 0, 69, 0
1, 120328, Note_on_c, 9, 59, 0
1, 120332, Note_on_c, 9, 44, 0
1, 120338, Note_on_c, 0, 62, 0
1, 120480, Note_on_c, 0, 67, 48
1, 120480, Note_on_c, 0, 61, 55
1, 120480, Note_on_c, 9, 59, 51
1, 120530, Note_on_c, 0, 67, 0
1, 120536, Note_on_c, 9, 59, 0
1, 120580, Note_on_c, 1, 42, 0
1, 120592, Note_on_c, 1, 41, 82
1, 120608, Note_on_c, 9, 46, 57
1, 120630, Note_on_c, 0, 61, 0
1, 120632, Note_on_c, 9, 53, 45
1, 120696, Note_on_c, 9, 53, 0
1, 120722, Note_on_c, 0, 74, 80
1, 120722, Note_on_c, 0, 66, 58
1, 120726, Note_on_c, 0, 63, 60
1, 120730, Note_on_c, 0, 60, 63
1, 120848, Note_on_c, 9, 59, 53
1, 120896, Note_on_c, 9, 59, 0
1, 120930, Note_on_c, 0, 74, 0
1, 121010, Note_on_c, 0, 66, 0
1, 121018, Note_on_c, 0, 63, 0
1, 121030, Note_on_c, 0, 60, 0
1, 121042, Note_on_c, 0, 58, 57
1, 121228, Note_on_c, 9, 59, 79
1, 121242, Note_on_c, 0, 58, 0
1, 121270, Note_on_c, 0, 72, 65
1, 121286, Note_on_c, 0, 63, 61
1, 121298, Note_on_c, 0, 66, 60
1, 121314, Note_on_c, 0, 57, 58
1, 121316, Note_on_c, 9, 59, 0
1, 121348, Note_on_c, 9, 46, 0
1, 121376, Note_on_c, 9, 53, 61
1, 121404, Note_on_c, 9, 44, 43
1, 121414, Note_on_c, 0, 63, 0
1, 121438, Control_c, 0, 64, 127
1, 121442, Note_on_c, 0, 72, 0
1, 121446, Note_on_c, 0, 66, 0
1, 121482, Note_on_c, 0, 57, 0
1, 121504, Note_on_c, 9, 44, 0
1, 121592, Note_on_c, 9, 53, 0
1, 121616, Note_on_c, 9, 59, 79
1, 121638, Note_on_c, 0, 56, 49
1, 121654, Note_on_c, 0, 63, 63
1, 121654, Note_on_c, 0, 69, 58
1, 121664, Note_on_c, 1, 33, 60
1, 121670, Note_on_c, 0, 66, 57
1, 121672, Note_on_c, 1, 41, 0
1, 121682, Note_on_c, 0, 56, 0
1, 121710, Note_on_c, 0, 66, 0
1, 121758, Note_on_c, 0, 69, 0
1, 121760, Note_on_c, 9, 59, 0
1, 121774, Note_on_c, 0, 63, 0
1, 121784, Note_on_c, 1, 33, 0
1, 121800, Note_on_c, 1, 34, 68
1, 121862, Control_c, 0, 64, 0
1, 121870, Note_on_c, 0, 62, 65
1, 121870, Note_on_c, 0, 65, 72
1, 121870, Note_on_c, 0, 57, 49
1, 121886, Note_on_c, 0, 53, 50
1, 121914, Note_on_c, 0, 46, 43
1, 122154, Control_c, 0, 64, 127
1, 122176, Note_on_c, 9, 59, 50
1, 122266, Note_on_c, 0, 57, 0
1, 122318, Note_on_c, 0, 62, 0
1, 122326, Note_on_c, 0, 65, 0
1, 122342, Note_on_c, 0, 53, 0
1, 122388, Note_on_c, 9, 59, 0
1, 122402, Control_c, 0, 64, 0
1, 122450, Control_c, 0, 64, 127
1, 122454, Note_on_c, 0, 65, 57
1, 122470, Note_on_c, 0, 62, 59
1, 122478, Note_on_c, 0, 57, 55
1, 122494, Note_on_c, 0, 53, 40
1, 122536, Note_on_c, 0, 46, 0
1, 122536, Note_on_c, 9, 44, 47
1, 122538, Note_on_c, 0, 53, 0
1, 122552, Note_on_c, 9, 59, 49
1, 122614, Note_on_c, 0, 57, 0
1, 122624, Note_on_c, 9, 44, 0
1, 122642, Note_on_c, 0, 62, 0
1, 122646, Note_on_c, 0, 65, 0
1, 122672, Note_on_c, 1, 34, 0
1, 122692, Note_on_c, 1, 36, 62
1, 122764, Note_on_c, 1, 36, 0
1, 122816, Note_on_c, 1, 37, 64
1, 122888, Note_on_c, 9, 59, 0
1, 122892, Note_on_c, 1, 37, 0
1, 122908, Note_on_c, 9, 44, 50
1, 122956, Note_on_c, 1, 38, 78
1, 122982, Control_c, 0, 64, 0
1, 122982, Note_on_c, 0, 70, 81
1, 122990, Note_on_c, 0, 60, 68
1, 122990, Note_on_c, 0, 66, 81
1, 122998, Note_on_c, 0, 54, 55
1, 123010, Note_on_c, 0, 50, 51
1, 123196, Note_on_c, 9, 59, 52
1, 123210, Control_c, 0, 64, 127
1, 123232, Note_on_c, 9, 59, 0
1, 123312, Note_on_c, 9, 59, 47
1, 123338, Note_on_c, 0, 60, 0
1, 123366, Note_on_c, 0, 66, 0
1, 123370, Note_on_c, 0, 50, 0
1, 123400, Note_on_c, 9, 44, 0
1, 123418, Note_on_c, 0, 54, 0
1, 123432, Note_on_c, 9, 59, 0
1, 123556, Note_on_c, 9, 59, 70
1, 123560, Note_on_c, 9, 53, 75
1, 123574, Note_on_c, 0, 66, 67
1, 123590, Note_on_c, 0, 54, 46
1, 123590, Note_on_c, 0, 50, 45
1, 123598, Note_on_c, 0, 60, 51
1, 123614, Note_on_c, 0, 62, 48
1, 123662, Note_on_c, 0, 50, 0
1, 123690, Note_on_c, 0, 62, 0
1, 123750, Note_on_c, 0, 60, 0
1, 123770, Note_on_c, 0, 70, 0
1, 123844, Note_on_c, 9, 59, 0
1, 123854, Note_on_c, 0, 66, 0
1, 123862, Note_on_c, 0, 54, 0
1, 123896, Note_on_c, 9, 53, 0
1, 123960, Note_on_c, 9, 59, 30
1, 124000, Note_on_c, 9, 59, 0
1, 124034, Control_c, 0, 64, 0
1, 124072, Note_on_c, 9, 44, 44
1, 124076, Note_on_c, 1, 39, 65
1, 124084, Note_on_c, 1, 38, 0
1, 124104, Note_on_c, 9, 53, 64
1, 124108, Note_on_c, 9, 59, 69
1, 124114, Note_on_c, 0, 65, 50
1, 124114, Note_on_c, 0, 62, 48
1, 124114, Note_on_c, 0, 69, 50
1, 124122, Note_on_c, 0, 58, 51
1, 124126, Note_on_c, 0, 51, 50
1, 124132, Note_on_c, 9, 44, 0
1, 124226, Note_on_c, 0, 62, 0
1, 124274, Control_c, 0, 64, 127
1, 124302, Note_on_c, 0, 65, 0
1, 124322, Note_on_c, 0, 69, 0
1, 124348, Note_on_c, 9, 59, 0
1, 124384, Note_on_c, 9, 53, 0
1, 124426, Note_on_c, 0, 58, 0
1, 124460, Note_on_c, 1, 55, 60
1, 124472, Note_on_c, 9, 59, 46
1, 124548, Note_on_c, 1, 55, 0
1, 124564, Note_on_c, 9, 59, 0
1, 124580, Note_on_c, 1, 54, 46
1, 124642, Note_on_c, 0, 51, 0
1, 124708, Note_on_c, 1, 54, 0
1, 124722, Note_on_c, 0, 51, 17
1, 124730, Note_on_c, 0, 81, 66
1, 124736, Note_on_c, 0, 58, 55
1, 124736, Note_on_c, 0, 74, 56
1, 124736, Note_on_c, 0, 69, 55
1, 124736, Note_on_c, 1, 55, 64
1, 124740, Note_on_c, 9, 59, 51
1, 124754, Note_on_c, 0, 62, 47
1, 124770, Note_on_c, 0, 77, 43
1, 124796, Note_on_c, 9, 59, 0
1, 124802, Note_on_c, 0, 51, 0
1, 124820, Note_on_c, 9, 44, 47
1, 124826, Note_on_c, 0, 62, 0
1, 124864, Note_on_c, 9, 59, 60
1, 124886, Note_on_c, 0, 58, 0
1, 124888, Note_on_c, 9, 44, 0
1, 124896, Note_on_c, 9, 59, 0
1, 124930, Note_on_c, 0, 77, 0
1, 124942, Note_on_c, 0, 81, 0
1, 124954, Note_on_c, 0, 69, 0
1, 124966, Note_on_c, 0, 74, 0
1, 124996, Note_on_c, 1, 39, 0
1, 125020, Note_on_c, 1, 41, 68
1, 125100, Note_on_c, 1, 41, 0
1, 125112, Note_on_c, 1, 55, 0
1, 125152, Note_on_c, 1, 42, 46
1, 125188, Note_on_c, 1, 42, 0
1, 125212, Note_on_c, 1, 43, 87
1, 125212, Note_on_c, 9, 44, 50
1, 125290, Note_on_c, 0, 79, 60
1, 125294, Note_on_c, 0, 75, 51
1, 125302, Note_on_c, 0, 63, 48
1, 125304, Note_on_c, 9, 44, 0
1, 125306, Note_on_c, 0, 71, 55
1, 125310, Control_c, 0, 64, 0
1, 125314, Note_on_c, 0, 59, 50
1, 125326, Note_on_c, 0, 67, 39
1, 125330, Note_on_c, 0, 53, 39
1, 125480, Note_on_c, 9, 59, 65
1, 125512, Note_on_c, 9, 59, 0
1, 125526, Control_c, 0, 64, 127
1, 125598, Note_on_c, 0, 53, 0
1, 125608, Note_on_c, 9, 59, 55
1, 125658, Note_on_c, 0, 63, 0
1, 125682, Note_on_c, 0, 67, 0
1, 125694, Note_on_c, 0, 79, 0
1, 125730, Note_on_c, 0, 59, 0
1, 125734, Note_on_c, 0, 71, 0
1, 125766, Note_on_c, 0, 75, 0
1, 125844, Note_on_c, 9, 59, 0
1, 125852, Note_on_c, 1, 38, 79
1, 125870, Note_on_c, 0, 63, 63
1, 125880, Note_on_c, 1, 43, 0
1, 125886, Note_on_c, 0, 59, 56
1, 125926, Note_on_c, 0, 59, 0
1, 125932, Note_on_c, 1, 38, 0
1, 125976, Note_on_c, 9, 59, 76
1, 125984, Note_on_c, 1, 35, 88
1, 126022, Note_on_c, 0, 63, 0
1, 126188, Note_on_c, 9, 59, 0
1, 126272, Note_on_c, 9, 59, 38
1, 126312, Note_on_c, 9, 59, 0
1, 126340, Note_on_c, 1, 35, 0
1, 126368, Note_on_c, 1, 36, 80
1, 126368, Note_on_c, 9, 59, 68
1, 126402, Note_on_c, 0, 67, 49
1, 126406, Note_on_c, 0, 63, 48
1, 126414, Note_on_c, 0, 62, 47
1, 126418, Note_on_c, 0, 58, 41
1, 126450, Control_c, 0, 64, 0
1, 126616, Note_on_c, 9, 44, 45
1, 126628, Note_on_c, 9, 59, 0
1, 126664, Note_on_c, 9, 44, 0
1, 126748, Note_on_c, 9, 59, 68
1, 126770, Note_on_c, 0, 79, 72
1, 126780, Note_on_c, 9, 44, 31
1, 126782, Note_on_c, 0, 75, 63
1, 126794, Note_on_c, 0, 67, 0
1, 126882, Note_on_c, 0, 63, 0
1, 126908, Note_on_c, 9, 44, 0
1, 126912, Note_on_c, 9, 59, 0
1, 126914, Note_on_c, 0, 75, 0
1, 126914, Note_on_c, 0, 79, 0
1, 127016, Note_on_c, 1, 34, 61
1, 127020, Note_on_c, 9, 59, 48
1, 127026, Note_on_c, 0, 74, 37
1, 127048, Note_on_c, 9, 59, 0
1, 127058, Note_on_c, 0, 63, 42
1, 127094, Note_on_c, 0, 74, 0
1, 127098, Note_on_c, 0, 62, 0
1, 127104, Note_on_c, 1, 36, 0
1, 127132, Note_on_c, 9, 59, 51
1, 127136, Note_on_c, 1, 39, 67
1, 127142, Note_on_c, 0, 63, 0
1, 127160, Note_on_c, 1, 34, 0
1, 127160, Note_on_c, 9, 44, 42
1, 127178, Note_on_c, 0, 58, 0
1, 127178, Note_on_c, 0, 75, 61
1, 127178, Note_on_c, 0, 79, 66
1, 127400, Note_on_c, 1, 38, 70
1, 127402, Note_on_c, 0, 79, 0
1, 127408, Note_on_c, 9, 59, 0
1, 127418, Note_on_c, 0, 75, 0
1, 127444, Note_on_c, 1, 38, 0
1, 127476, Note_on_c, 1, 39, 0
1, 127528, Note_on_c, 1, 43, 89
1, 127562, Note_on_c, 0, 63, 46
1, 127594, Note_on_c, 0, 59, 43
1, 127598, Note_on_c, 0, 53, 36
1, 127606, Note_on_c, 0, 77, 38
1, 127658, Note_on_c, 0, 77, 0
1, 127694, Note_on_c, 0, 63, 0
1, 127730, Note_on_c, 0, 53, 0
1, 127808, Note_on_c, 9, 59, 58
1, 127808, Note_on_c, 9, 53, 62
1, 127904, Note_on_c, 1, 43, 0
1, 127906, Note_on_c, 0, 59, 0
1, 127908, Note_on_c, 1, 38, 94
1, 128064, Note_on_c, 9, 59, 0
1, 128080, Note_on_c, 9, 44, 0
1, 128132, Note_on_c, 9, 53, 0
1, 128164, Note_on_c, 9, 59, 50
1, 128186, Note_on_c, 0, 63, 48
1, 128186, Note_on_c, 0, 59, 53
1, 128200, Note_on_c, 9, 59, 0
1, 128230, Note_on_c, 0, 63, 0
1, 128272, Note_on_c, 1, 35, 88
1, 128276, Note_on_c, 1, 38, 0
1, 128310, Note_on_c, 0, 59, 0
1, 128312, Note_on_c, 9, 44, 43
1, 128314, Note_on_c, 0, 73, 60
1, 128316, Note_on_c, 9, 53, 62
1, 128318, Note_on_c, 0, 77, 64
1, 128320, Note_on_c, 9, 59, 62
1, 128436, Note_on_c, 9, 44, 0
1, 128466, Note_on_c, 0, 73, 0
1, 128474, Note_on_c, 0, 77, 0
1, 128544, Note_on_c, 9, 53, 0
1, 128552, Note_on_c, 9, 59, 0
1, 128628, Note_on_c, 1, 35, 0
1, 128668, Note_on_c, 1, 36, 80
1, 128700, Note_on_c, 9, 44, 48
1, 128712, Note_on_c, 9, 59, 44
1, 128734, Note_on_c, 0, 77, 58
1, 128754, Note_on_c, 0, 73, 45
1, 128796, Note_on_c, 9, 59, 0
1, 128850, Note_on_c, 0, 77, 0
1, 128864, Note_on_c, 9, 44, 0
1, 128870, Note_on_c, 0, 73, 0
1, 128932, Note_on_c, 9, 59, 53
1, 128942, Note_on_c, 0, 67, 41
1, 128944, Note_on_c, 1, 34, 68
1, 128966, Note_on_c, 0, 58, 31
1, 128966, Note_on_c, 0, 63, 43
1, 128976, Note_on_c, 1, 36, 0
1, 128988, Note_on_c, 9, 59, 0
1, 128994, Note_on_c, 0, 67, 0
1, 129030, Note_on_c, 0, 63, 0
1, 129030, Note_on_c, 0, 58, 0
1, 129036, Note_on_c, 1, 34, 0
1, 129040, Note_on_c, 1, 38, 72
1, 129308, Note_on_c, 1, 36, 76
1, 129328, Note_on_c, 1, 38, 0
1, 129376, Note_on_c, 1, 36, 0
1, 129428, Note_on_c, 1, 39, 75
1, 129456, Note_on_c, 9, 44, 44
1, 129524, Note_on_c, 9, 44, 0
1, 129650, Note_on_c, 0, 67, 59
1, 129670, Note_on_c, 0, 63, 45
1, 129690, Note_on_c, 0, 67, 0
1, 129696, Note_on_c, 9, 59, 47
1, 129704, Note_on_c, 1, 36, 57
1, 129728, Note_on_c, 9, 59, 0
1, 129742, Note_on_c, 0, 63, 0
1, 129748, Note_on_c, 1, 36, 0
1, 129756, Note_on_c, 1, 39, 0
1, 129796, Note_on_c, 1, 41, 76
1, 129808, Note_on_c, 9, 59, 43
1, 129826, Note_on_c, 0, 70, 76
1, 129826, Note_on_c, 0, 74, 74
1, 129828, Note_on_c, 9, 46, 48
1, 129900, Note_on_c, 9, 46, 0
1, 129990, Note_on_c, 0, 70, 0
1, 129998, Note_on_c, 0, 74, 0
1, 130052, Note_on_c, 9, 59, 0
1, 130072, Note_on_c, 1, 36, 46
1, 130120, Note_on_c, 1, 36, 0
1, 130136, Note_on_c, 1, 41, 0
1, 130200, Note_on_c, 1, 45, 87
1, 130224, Note_on_c, 9, 59, 45
1, 130250, Note_on_c, 0, 72, 75
1, 130262, Note_on_c, 0, 69, 50
1, 130292, Note_on_c, 9, 59, 0
1, 130358, Note_on_c, 0, 69, 0
1, 130418, Note_on_c, 0, 72, 0
1, 130474, Note_on_c, 0, 63, 42
1, 130476, Note_on_c, 9, 59, 40
1, 130486, Note_on_c, 0, 60, 44
1, 130512, Note_on_c, 1, 38, 37
1, 130516, Note_on_c, 9, 59, 0
1, 130522, Note_on_c, 0, 63, 0
1, 130532, Note_on_c, 1, 45, 0
1, 130542, Note_on_c, 0, 60, 0
1, 130554, Control_c, 0, 64, 127
1, 130556, Note_on_c, 1, 38, 0
1, 130584, Note_on_c, 1, 45, 80
1, 130588, Note_on_c, 9, 59, 53
1, 130588, Note_on_c, 9, 44, 46
1, 130634, Note_on_c, 0, 70, 60
1, 130676, Note_on_c, 9, 44, 0
1, 130780, Note_on_c, 9, 59, 0
1, 130842, Note_on_c, 0, 70, 0
1, 130972, Note_on_c, 9, 59, 69
1, 130984, Note_on_c, 1, 45, 0
1, 130984, Note_on_c, 1, 34, 83
1, 131006, Note_on_c, 0, 56, 40
1, 131010, Note_on_c, 0, 63, 51
1, 131018, Note_on_c, 0, 68, 57
1, 131026, Note_on_c, 0, 65, 51
1, 131026, Control_c, 0, 64, 0
1, 131030, Note_on_c, 0, 72, 50
1, 131042, Note_on_c, 0, 60, 47
1, 131192, Note_on_c, 9, 59, 0
1, 131286, Control_c, 0, 64, 127
1, 131346, Note_on_c, 0, 65, 0
1, 131356, Note_on_c, 9, 59, 55
1, 131380, Note_on_c, 1, 50, 113
1, 131394, Note_on_c, 0, 68, 0
1, 131406, Note_on_c, 0, 56, 0
1, 131426, Note_on_c, 0, 60, 0
1, 131434, Note_on_c, 0, 72, 0
1, 131442, Note_on_c, 0, 63, 0
1, 131532, Note_on_c, 9, 59, 0
1, 131594, Note_on_c, 0, 74, 77
1, 131602, Note_on_c, 0, 68, 80
1, 131606, Note_on_c, 0, 63, 60
1, 131614, Note_on_c, 0, 56, 54
1, 131624, Note_on_c, 9, 59, 51
1, 131642, Note_on_c, 0, 60, 49
1, 131660, Note_on_c, 9, 59, 0
1, 131736, Note_on_c, 9, 59, 58
1, 131740, Note_on_c, 9, 44, 52
1, 131824, Note_on_c, 9, 44, 0
1, 131850, Note_on_c, 0, 68, 0
1, 131858, Note_on_c, 0, 56, 0
1, 131874, Note_on_c, 0, 63, 0
1, 131966, Note_on_c, 0, 60, 0
1, 131980, Note_on_c, 9, 59, 0
1, 131990, Note_on_c, 0, 74, 0
1, 132118, Control_c, 0, 64, 0
1, 132152, Note_on_c, 9, 59, 51
1, 132162, Note_on_c, 0, 66, 68
1, 132166, Note_on_c, 0, 56, 57
1, 132170, Note_on_c, 0, 62, 56
1, 132178, Note_on_c, 0, 68, 68
1, 132178, Note_on_c, 0, 75, 58
1, 132178, Note_on_c, 0, 72, 57
1, 132336, Note_on_c, 9, 59, 0
1, 132342, Control_c, 0, 64, 127
1, 132366, Note_on_c, 0, 68, 0
1, 132374, Note_on_c, 0, 72, 0
1, 132426, Note_on_c, 0, 75, 0
1, 132458, Note_on_c, 0, 66, 0
1, 132512, Note_on_c, 9, 59, 66
1, 132534, Note_on_c, 0, 56, 0
1, 132566, Note_on_c, 0, 62, 0
1, 132676, Note_on_c, 9, 59, 0
1, 132700, Note_on_c, 1, 34, 0
1, 132756, Note_on_c, 1, 38, 107
1, 132762, Note_on_c, 0, 77, 66
1, 132770, Note_on_c, 0, 56, 57
1, 132774, Note_on_c, 0, 72, 60
1, 132774, Note_on_c, 0, 65, 54
1, 132774, Note_on_c, 0, 66, 62
1, 132796, Note_on_c, 9, 59, 49
1, 132806, Note_on_c, 0, 62, 44
1, 132828, Note_on_c, 9, 59, 0
1, 132846, Note_on_c, 0, 65, 0
1, 132858, Note_on_c, 0, 62, 0
1, 132864, Note_on_c, 1, 50, 0
1, 132892, Note_on_c, 9, 59, 62
1, 132896, Note_on_c, 9, 44, 38
1, 132906, Note_on_c, 0, 72, 0
1, 132914, Note_on_c, 0, 66, 0
1, 132918, Note_on_c, 0, 77, 0
1, 132936, Note_on_c, 1, 50, 25
1, 132952, Note_on_c, 9, 44, 0
1, 133124, Note_on_c, 9, 59, 0
1, 133138, Note_on_c, 0, 56, 0
1, 133248, Note_on_c, 1, 50, 0
1, 133280, Note_on_c, 1, 38, 0
1, 133284, Note_on_c, 9, 59, 71
1, 133290, Note_on_c, 0, 83, 58
1, 133298, Control_c, 0, 64, 40
1, 133300, Note_on_c, 1, 39, 87
1, 133302, Note_on_c, 0, 71, 58
1, 133302, Note_on_c, 0, 65, 57
1, 133302, Note_on_c, 0, 62, 45
1, 133310, Control_c, 0, 64, 0
1, 133322, Note_on_c, 0, 55, 46
1, 133322, Note_on_c, 0, 60, 51
1, 133460, Note_on_c, 9, 59, 0
1, 133498, Control_c, 0, 64, 127
1, 133550, Note_on_c, 0, 71, 0
1, 133598, Note_on_c, 0, 83, 0
1, 133622, Note_on_c, 0, 55, 0
1, 133630, Note_on_c, 0, 60, 0
1, 133638, Note_on_c, 0, 65, 0
1, 133656, Note_on_c, 9, 59, 70
1, 133674, Note_on_c, 0, 62, 0
1, 133776, Note_on_c, 9, 59, 0
1, 133878, Control_c, 0, 64, 0
1, 133910, Note_on_c, 0, 84, 57
1, 133910, Note_on_c, 0, 60, 54
1, 133910, Note_on_c, 0, 65, 52
1, 133918, Note_on_c, 0, 62, 48
1, 133922, Note_on_c, 0, 72, 39
1, 133934, Note_on_c, 0, 79, 49
1, 133944, Note_on_c, 9, 59, 50
1, 133976, Note_on_c, 9, 59, 0
1, 133990, Note_on_c, 0, 72, 0
1, 134002, Control_c, 0, 64, 127
1, 134026, Note_on_c, 0, 65, 0
1, 134038, Note_on_c, 0, 79, 0
1, 134048, Note_on_c, 9, 59, 58
1, 134054, Note_on_c, 0, 62, 0
1, 134064, Note_on_c, 9, 44, 47
1, 134066, Note_on_c, 0, 60, 0
1, 134078, Note_on_c, 0, 84, 0
1, 134164, Note_on_c, 9, 44, 0
1, 134172, Note_on_c, 1, 39, 0
1, 134192, Note_on_c, 1, 38, 73
1, 134260, Note_on_c, 9, 59, 0
1, 134284, Note_on_c, 1, 38, 0
1, 134320, Note_on_c, 1, 39, 76
1, 134376, Note_on_c, 1, 39, 0
1, 134428, Note_on_c, 9, 59, 68
1, 134452, Note_on_c, 1, 40, 83
1, 134454, Note_on_c, 0, 87, 48
1, 134466, Control_c, 0, 64, 0
1, 134470, Note_on_c, 0, 93, 75
1, 134486, Note_on_c, 0, 81, 54
1, 134486, Note_on_c, 0, 64, 57
1, 134486, Note_on_c, 0, 61, 54
1, 134494, Note_on_c, 0, 87, 0
1, 134494, Note_on_c, 0, 58, 51
1, 134494, Note_on_c, 0, 88, 50
1, 134518, Note_on_c, 0, 55, 39
1, 134620, Note_on_c, 9, 59, 0
1, 134662, Control_c, 0, 64, 127
1, 134664, Note_on_c, 9, 35, 45
1, 134732, Note_on_c, 9, 35, 0
1, 134794, Note_on_c, 0, 55, 0
1, 134820, Note_on_c, 0, 64, 0
1, 134820, Note_on_c, 9, 59, 59
1, 134822, Note_on_c, 0, 58, 0
1, 134824, Note_on_c, 9, 35, 47
1, 134854, Note_on_c, 0, 61, 0
1, 134938, Note_on_c, 0, 88, 0
1, 134942, Note_on_c, 0, 93, 0
1, 134948, Note_on_c, 9, 35, 0
1, 135024, Note_on_c, 9, 59, 0
1, 135038, Note_on_c, 0, 81, 0
1, 135062, Note_on_c, 0, 61, 56
1, 135074, Note_on_c, 0, 64, 56
1, 135078, Note_on_c, 0, 55, 48
1, 135092, Note_on_c, 9, 37, 41
1, 135094, Note_on_c, 0, 58, 41
1, 135114, Note_on_c, 0, 64, 0
1, 135126, Note_on_c, 0, 55, 0
1, 135132, Note_on_c, 9, 37, 0
1, 135142, Note_on_c, 0, 58, 0
1, 135186, Note_on_c, 0, 61, 0
1, 135204, Note_on_c, 1, 43, 64
1, 135228, Note_on_c, 9, 44, 46
1, 135236, Note_on_c, 1, 40, 0
1, 135240, Note_on_c, 9, 59, 37
1, 135424, Note_on_c, 9, 44, 0
1, 135440, Note_on_c, 9, 59, 0
1, 135468, Note_on_c, 1, 43, 0
1, 135468, Note_on_c, 9, 37, 65
1, 135472, Note_on_c, 1, 40, 66
1, 135478, Note_on_c, 0, 91, 81
1, 135504, Note_on_c, 9, 37, 0
1, 135558, Note_on_c, 0, 65, 47
1, 135576, Note_on_c, 1, 40, 0
1, 135602, Note_on_c, 0, 62, 42
1, 135604, Note_on_c, 1, 41, 64
1, 135610, Note_on_c, 0, 91, 0
1, 135610, Note_on_c, 0, 60, 37
1, 135612, Note_on_c, 9, 59, 47
1, 135620, Note_on_c, 9, 44, 44
1, 135622, Control_c, 0, 64, 0
1, 135690, Note_on_c, 0, 65, 0
1, 135690, Note_on_c, 0, 89, 42
1, 135746, Note_on_c, 0, 89, 0
1, 135804, Note_on_c, 9, 59, 0
1, 135944, Note_on_c, 9, 44, 0
1, 135976, Note_on_c, 1, 53, 82
1, 135980, Note_on_c, 9, 59, 51
1, 136018, Note_on_c, 0, 89, 66
1, 136078, Note_on_c, 0, 89, 0
1, 136148, Note_on_c, 9, 59, 0
1, 136220, Note_on_c, 1, 53, 0
1, 136232, Note_on_c, 1, 52, 62
1, 136258, Note_on_c, 0, 88, 72
1, 136260, Note_on_c, 9, 59, 50
1, 136292, Note_on_c, 9, 59, 0
1, 136338, Note_on_c, 0, 88, 0
1, 136340, Note_on_c, 1, 52, 0
1, 136352, Note_on_c, 1, 53, 62
1, 136364, Note_on_c, 9, 59, 55
1, 136376, Note_on_c, 9, 44, 34
1, 136414, Note_on_c, 0, 89, 77
1, 136434, Note_on_c, 0, 53, 47
1, 136468, Note_on_c, 9, 44, 0
1, 136494, Note_on_c, 0, 89, 0
1, 136600, Note_on_c, 9, 59, 0
1, 136610, Note_on_c, 0, 60, 0
1, 136638, Note_on_c, 0, 62, 0
1, 136752, Note_on_c, 9, 59, 55
1, 136770, Note_on_c, 0, 89, 87
1, 136870, Note_on_c, 0, 89, 0
1, 136984, Note_on_c, 9, 59, 0
1, 136984, Note_on_c, 9, 37, 60
1, 136996, Note_on_c, 1, 53, 0
1, 137004, Note_on_c, 1, 52, 58
1, 137040, Note_on_c, 9, 37, 0
1, 137096, Note_on_c, 9, 35, 45
1, 137120, Note_on_c, 1, 52, 0
1, 137138, Note_on_c, 0, 89, 84
1, 137140, Note_on_c, 1, 53, 70
1, 137290, Note_on_c, 0, 89, 0
1, 137342, Note_on_c, 0, 88, 60
1, 137372, Note_on_c, 9, 35, 0
1, 137384, Note_on_c, 1, 29, 87
1, 137418, Note_on_c, 0, 88, 0
1, 137502, Note_on_c, 0, 63, 52
1, 137502, Note_on_c, 0, 89, 77
1, 137504, Note_on_c, 9, 35, 42
1, 137514, Note_on_c, 0, 58, 47
1, 137514, Note_on_c, 0, 65, 55
1, 137540, Note_on_c, 1, 53, 0
1, 137614, Note_on_c, 0, 89, 0
1, 137732, Note_on_c, 9, 35, 0
1, 137756, Note_on_c, 9, 59, 71
1, 137848, Note_on_c, 9, 59, 0
1, 137868, Note_on_c, 9, 44, 40
1, 137894, Note_on_c, 0, 89, 85
1, 137912, Note_on_c, 9, 59, 30
1, 137978, Note_on_c, 0, 89, 0
1, 138004, Note_on_c, 9, 44, 0
1, 138008, Note_on_c, 1, 41, 0
1, 138044, Note_on_c, 9, 59, 0
1, 138124, Note_on_c, 1, 41, 93
1, 138232, Note_on_c, 1, 29, 0
1, 138258, Note_on_c, 0, 89, 88
1, 138276, Note_on_c, 9, 59, 51
1, 138390, Note_on_c, 0, 58, 0
1, 138410, Note_on_c, 0, 89, 0
1, 138420, Note_on_c, 9, 59, 0
1, 138488, Note_on_c, 0, 88, 51
1, 138488, Note_on_c, 1, 36, 61
1, 138532, Note_on_c, 9, 59, 67
1, 138538, Note_on_c, 0, 88, 0
1, 138558, Note_on_c, 0, 63, 0
1, 138558, Note_on_c, 0, 65, 0
1, 138604, Note_on_c, 1, 36, 0
1, 138612, Note_on_c, 9, 46, 50
1, 138632, Note_on_c, 1, 53, 122
1, 138646, Note_on_c, 0, 89, 69
1, 138666, Note_on_c, 0, 63, 39
1, 138676, Note_on_c, 9, 59, 0
1, 138678, Note_on_c, 0, 58, 39
1, 138678, Note_on_c, 0, 65, 39
1, 138712, Note_on_c, 9, 46, 0
1, 138750, Note_on_c, 0, 89, 0
1, 138872, Note_on_c, 9, 59, 62
1, 138898, Note_on_c, 0, 89, 102
1, 138912, Note_on_c, 9, 59, 0
1, 139018, Note_on_c, 0, 89, 0
1, 139024, Note_on_c, 9, 59, 43
1, 139110, Note_on_c, 0, 65, 0
1, 139122, Note_on_c, 0, 58, 0
1, 139124, Note_on_c, 9, 59, 0
1, 139126, Note_on_c, 0, 63, 0
1, 139264, Note_on_c, 9, 59, 62
1, 139268, Note_on_c, 9, 53, 69
1, 139278, Note_on_c, 0, 89, 96
1, 139302, Note_on_c, 0, 65, 50
1, 139302, Note_on_c, 0, 63, 50
1, 139342, Note_on_c, 0, 58, 33
1, 139378, Note_on_c, 0, 89, 0
1, 139398, Note_on_c, 0, 65, 0
1, 139462, Note_on_c, 0, 63, 0
1, 139526, Note_on_c, 0, 58, 0
1, 139560, Note_on_c, 9, 59, 0
1, 139604, Note_on_c, 9, 53, 0
1, 139666, Note_on_c, 0, 88, 51
1, 139668, Note_on_c, 1, 52, 79
1, 139668, Note_on_c, 9, 59, 52
1, 139700, Note_on_c, 1, 53, 0
1, 139706, Note_on_c, 0, 88, 0
1, 139706, Note_on_c, 0, 63, 31
1, 139708, Note_on_c, 9, 59, 0
1, 139732, Note_on_c, 1, 52, 0
1, 139754, Note_on_c, 0, 65, 28
1, 139786, Note_on_c, 0, 89, 79
1, 139788, Note_on_c, 1, 33, 84
1, 139792, Note_on_c, 9, 44, 47
1, 139808, Note_on_c, 9, 59, 60
1, 139808, Note_on_c, 9, 53, 68
1, 139828, Note_on_c, 1, 41, 0
1, 139830, Note_on_c, 0, 65, 0
1, 139874, Note_on_c, 0, 63, 0
1, 139938, Note_on_c, 0, 89, 0
1, 139940, Note_on_c, 9, 59, 0
1, 139968, Note_on_c, 9, 44, 0
1, 140002, Note_on_c, 0, 91, 77
1, 140004, Note_on_c, 9, 53, 0
1, 140052, Note_on_c, 9, 59, 52
1, 140088, Note_on_c, 9, 59, 0
1, 140138, Note_on_c, 0, 91, 0
1, 140164, Note_on_c, 9, 59, 66
1, 140168, Note_on_c, 1, 33, 0
1, 140174, Note_on_c, 0, 89, 75
1, 140176, Note_on_c, 1, 34, 84
1, 140182, Note_on_c, 0, 65, 43
1, 140184, Note_on_c, 9, 44, 44
1, 140186, Note_on_c, 0, 62, 49
1, 140190, Note_on_c, 0, 60, 44
1, 140276, Note_on_c, 9, 44, 0
1, 140432, Note_on_c, 9, 35, 40
1, 140436, Note_on_c, 9, 59, 0
1, 140482, Control_c, 0, 64, 127
1, 140496, Note_on_c, 9, 35, 0
1, 140498, Note_on_c, 0, 65, 0
1, 140568, Note_on_c, 9, 35, 13
1, 140596, Note_on_c, 9, 59, 41
1, 140614, Note_on_c, 0, 53, 0
1, 140630, Note_on_c, 0, 60, 0
1, 140656, Note_on_c, 9, 59, 0
1, 140696, Note_on_c, 9, 35, 0
1, 140706, Note_on_c, 0, 62, 0
1, 140786, Note_on_c, 0, 89, 0
1, 140798, Note_on_c, 0, 53, 67
1, 140828, Note_on_c, 9, 59, 60
1, 140860, Note_on_c, 9, 59, 0
1, 140918, Note_on_c, 0, 53, 0
1, 140964, Note_on_c, 9, 59, 56
1, 140988, Note_on_c, 9, 44, 35
1, 141012, Note_on_c, 9, 59, 0
1, 141108, Note_on_c, 1, 34, 0
1, 141112, Note_on_c, 1, 36, 76
1, 141204, Note_on_c, 9, 44, 0
1, 141212, Note_on_c, 1, 36, 0
1, 141228, Note_on_c, 9, 59, 60
1, 141244, Note_on_c, 1, 37, 77
1, 141256, Note_on_c, 9, 59, 0
1, 141324, Note_on_c, 1, 37, 0
1, 141334, Control_c, 0, 64, 0
1, 141352, Note_on_c, 9, 59, 55
1, 141358, Note_on_c, 0, 94, 90
1, 141358, Note_on_c, 0, 56, 80
1, 141358, Note_on_c, 0, 66, 85
1, 141364, Note_on_c, 9, 44, 45
1, 141370, Note_on_c, 0, 62, 67
1, 141370, Note_on_c, 0, 87, 87
1, 141370, Note_on_c, 0, 90, 78
1, 141370, Note_on_c, 0, 82, 81
1, 141384, Note_on_c, 1, 38, 76
1, 141390, Note_on_c, 0, 60, 52
1, 141410, Note_on_c, 0, 82, 0
1, 141410, Note_on_c, 0, 90, 0
1, 141450, Note_on_c, 0, 90, 34
1, 141454, Note_on_c, 0, 82, 31
1, 141530, Control_c, 0, 64, 127
1, 141588, Note_on_c, 9, 59, 0
1, 141684, Note_on_c, 9, 44, 0
1, 141730, Note_on_c, 0, 94, 0
1, 141732, Note_on_c, 9, 59, 60
1, 141738, Note_on_c, 0, 82, 0
1, 141786, Note_on_c, 0, 66, 0
1, 141790, Note_on_c, 0, 60, 0
1, 141790, Note_on_c, 0, 90, 0
1, 141798, Note_on_c, 0, 56, 0
1, 141814, Note_on_c, 0, 87, 0
1, 141842, Note_on_c, 0, 62, 0
1, 141944, Note_on_c, 9, 59, 0
1, 141968, Note_on_c, 1, 37, 64
1, 141978, Note_on_c, 0, 90, 67
1, 141992, Note_on_c, 1, 38, 0
1, 141994, Note_on_c, 0, 78, 58
1, 142002, Note_on_c, 0, 66, 73
1, 142002, Note_on_c, 0, 85, 63
1, 142002, Note_on_c, 0, 56, 64
1, 142018, Note_on_c, 0, 62, 53
1, 142082, Note_on_c, 0, 60, 30
1, 142100, Note_on_c, 9, 44, 37
1, 142104, Note_on_c, 1, 37, 0
1, 142108, Note_on_c, 9, 59, 64
1, 142120, Note_on_c, 1, 38, 65
1, 142188, Note_on_c, 9, 44, 0
1, 142210, Note_on_c, 0, 90, 0
1, 142230, Note_on_c, 0, 66, 0
1, 142238, Note_on_c, 0, 60, 0
1, 142252, Note_on_c, 9, 59, 0
1, 142282, Note_on_c, 0, 78, 0
1, 142290, Note_on_c, 0, 85, 0
1, 142366, Note_on_c, 0, 56, 0
1, 142384, Note_on_c, 9, 59, 53
1, 142390, Note_on_c, 0, 62, 0
1, 142412, Note_on_c, 9, 59, 0
1, 142464, Note_on_c, 1, 38, 0
1, 142476, Note_on_c, 1, 39, 67
1, 142488, Note_on_c, 9, 59, 51
1, 142488, Note_on_c, 9, 44, 42
1, 142526, Control_c, 0, 64, 88
1, 142526, Note_on_c, 0, 62, 68
1, 142526, Note_on_c, 0, 55, 72
1, 142530, Control_c, 0, 64, 0
1, 142534, Note_on_c, 0, 93, 86
1, 142538, Note_on_c, 0, 65, 78
1, 142538, Note_on_c, 0, 86, 77
1, 142542, Note_on_c, 0, 60, 72
1, 142546, Note_on_c, 0, 81, 72
1, 142550, Note_on_c, 0, 89, 61
1, 142614, Note_on_c, 0, 91, 23
1, 142656, Note_on_c, 9, 44, 0
1, 142690, Note_on_c, 0, 91, 0
1, 142692, Note_on_c, 9, 59, 0
1, 142738, Control_c, 0, 64, 127
1, 142748, Note_on_c, 9, 37, 44
1, 142784, Note_on_c, 9, 37, 0
1, 142864, Note_on_c, 1, 43, 63
1, 142880, Note_on_c, 9, 59, 80
1, 142902, Note_on_c, 0, 65, 0
1, 142918, Note_on_c, 0, 55, 0
1, 142918, Note_on_c, 0, 93, 0
1, 142938, Note_on_c, 0, 81, 0
1, 142950, Note_on_c, 0, 60, 0
1, 142970, Note_on_c, 0, 89, 0
1, 142982, Note_on_c, 0, 62, 0
1, 142990, Note_on_c, 0, 86, 0
1, 143028, Note_on_c, 1, 43, 0
1, 143072, Note_on_c, 9, 59, 0
1, 143088, Note_on_c, 1, 39, 0
1, 143112, Note_on_c, 1, 37, 47
1, 143126, Note_on_c, 0, 91, 67
1, 143138, Note_on_c, 0, 86, 76
1, 143140, Note_on_c, 9, 37, 58
1, 143146, Note_on_c, 0, 62, 63
1, 143156, Note_on_c, 1, 39, 54
1, 143158, Note_on_c, 0, 55, 60
1, 143158, Note_on_c, 0, 60, 55
1, 143158, Note_on_c, 0, 65, 67
1, 143158, Note_on_c, 0, 79, 60
1, 143196, Note_on_c, 1, 37, 0
1, 143202, Note_on_c, 0, 65, 0
1, 143212, Note_on_c, 9, 37, 0
1, 143244, Note_on_c, 1, 39, 0
1, 143252, Note_on_c, 1, 46, 64
1, 143266, Note_on_c, 0, 62, 0
1, 143282, Note_on_c, 0, 60, 0
1, 143292, Note_on_c, 9, 59, 72
1, 143318, Note_on_c, 0, 86, 0
1, 143342, Note_on_c, 0, 55, 0
1, 143424, Note_on_c, 9, 59, 0
1, 143442, Note_on_c, 0, 91, 0
1, 143458, Note_on_c, 0, 79, 0
1, 143508, Note_on_c, 1, 39, 64
1, 143524, Note_on_c, 9, 37, 60
1, 143540, Note_on_c, 1, 39, 0
1, 143592, Note_on_c, 1, 46, 0
1, 143608, Note_on_c, 9, 37, 0
1, 143652, Note_on_c, 1, 43, 63
1, 143666, Control_c, 0, 64, 0
1, 143668, Note_on_c, 9, 59, 58
1, 143672, Note_on_c, 9, 44, 43
1, 143678, Note_on_c, 0, 63, 82
1, 143682, Note_on_c, 0, 91, 68
1, 143686, Note_on_c, 0, 87, 73
1, 143702, Note_on_c, 0, 79, 57
1, 143706, Note_on_c, 0, 59, 58
1, 143710, Note_on_c, 0, 53, 48
1, 143718, Note_on_c, 0, 91, 0
1, 143720, Note_on_c, 1, 43, 0
1, 143726, Note_on_c, 0, 63, 0
1, 143738, Note_on_c, 0, 59, 0
1, 143742, Note_on_c, 0, 79, 0
1, 143748, Note_on_c, 9, 44, 0
1, 143750, Note_on_c, 0, 53, 0
1, 143770, Note_on_c, 0, 87, 0
1, 143880, Note_on_c, 9, 59, 0
1, 143904, Note_on_c, 1, 38, 65
1, 143908, Note_on_c, 9, 37, 80
1, 143948, Note_on_c, 9, 37, 0
1, 143984, Note_on_c, 1, 38, 0
1, 144032, Note_on_c, 9, 59, 60
1, 144040, Note_on_c, 1, 31, 83
1, 144066, Note_on_c, 0, 43, 72
1, 144142, Note_on_c, 0, 43, 0
1, 144260, Note_on_c, 9, 59, 0
1, 144326, Note_on_c, 0, 67, 67
1, 144330, Note_on_c, 0, 59, 68
1, 144330, Note_on_c, 0, 63, 66
1, 144354, Note_on_c, 0, 53, 61
1, 144384, Note_on_c, 1, 31, 0
1, 144408, Note_on_c, 9, 44, 51
1, 144416, Note_on_c, 1, 35, 82
1, 144422, Note_on_c, 0, 53, 0
1, 144422, Note_on_c, 0, 59, 0
1, 144426, Note_on_c, 0, 67, 0
1, 144428, Note_on_c, 9, 59, 48
1, 144446, Note_on_c, 0, 63, 0
1, 144564, Note_on_c, 9, 44, 0
1, 144648, Note_on_c, 9, 59, 0
1, 144676, Note_on_c, 1, 34, 55
1, 144682, Note_on_c, 0, 47, 49
1, 144684, Note_on_c, 9, 53, 71
1, 144764, Note_on_c, 1, 35, 0
1, 144786, Note_on_c, 0, 47, 0
1, 144788, Note_on_c, 1, 34, 0
1, 144804, Note_on_c, 1, 36, 77
1, 144804, Note_on_c, 9, 44, 41
1, 144812, Note_on_c, 9, 59, 42
1, 144854, Note_on_c, 0, 65, 69
1, 144858, Note_on_c, 0, 58, 64
1, 144862, Note_on_c, 0, 53, 66
1, 144862, Note_on_c, 0, 55, 67
1, 144874, Note_on_c, 0, 62, 57
1, 144904, Note_on_c, 9, 44, 0
1, 144948, Note_on_c, 9, 53, 0
1, 145024, Note_on_c, 9, 59, 0
1, 145054, Note_on_c, 0, 62, 0
1, 145058, Note_on_c, 0, 55, 0
1, 145060, Note_on_c, 9, 53, 67
1, 145094, Note_on_c, 0, 65, 0
1, 145142, Note_on_c, 0, 53, 0
1, 145146, Note_on_c, 0, 58, 0
1, 145184, Note_on_c, 1, 43, 69
1, 145190, Note_on_c, 0, 58, 31
1, 145198, Note_on_c, 0, 63, 56
1, 145202, Note_on_c, 0, 51, 55
1, 145204, Note_on_c, 9, 59, 43
1, 145234, Note_on_c, 0, 55, 38
1, 145264, Note_on_c, 9, 53, 0
1, 145268, Note_on_c, 1, 43, 0
1, 145298, Note_on_c, 0, 55, 0
1, 145362, Note_on_c, 0, 58, 0
1, 145398, Note_on_c, 0, 51, 0
1, 145410, Note_on_c, 0, 63, 0
1, 145448, Note_on_c, 9, 59, 0
1, 145456, Note_on_c, 0, 50, 57
1, 145456, Note_on_c, 0, 58, 50
1, 145456, Note_on_c, 9, 53, 76
1, 145470, Note_on_c, 0, 55, 48
1, 145476, Note_on_c, 0, 62, 50
1, 145476, Note_on_c, 1, 34, 49
1, 145486, Note_on_c, 0, 61, 37
1, 145544, Note_on_c, 1, 36, 0
1, 145550, Note_on_c, 0, 61, 0
1, 145554, Note_on_c, 0, 62, 0
1, 145556, Note_on_c, 9, 44, 48
1, 145570, Note_on_c, 0, 55, 0
1, 145572, Note_on_c, 1, 49, 77
1, 145588, Note_on_c, 9, 53, 0
1, 145588, Note_on_c, 9, 59, 61
1, 145598, Note_on_c, 0, 58, 0
1, 145608, Note_on_c, 1, 34, 0
1, 145632, Note_on_c, 9, 44, 0
1, 145714, Note_on_c, 0, 50, 0
1, 145760, Note_on_c, 9, 59, 0
1, 145798, Note_on_c, 0, 51, 61
1, 145820, Note_on_c, 9, 59, 60
1, 145826, Note_on_c, 0, 58, 32
1, 145826, Note_on_c, 0, 63, 44
1, 145836, Note_on_c, 1, 38, 55
1, 145874, Note_on_c, 0, 63, 0
1, 145884, Note_on_c, 9, 59, 0
1, 145886, Note_on_c, 0, 58, 0
1, 145900, Note_on_c, 1, 38, 0
1, 145902, Note_on_c, 0, 51, 0
1, 145948, Note_on_c, 1, 43, 67
1, 145960, Note_on_c, 9, 59, 62
1, 145998, Note_on_c, 0, 63, 49
1, 146010, Note_on_c, 0, 59, 65
1, 146018, Note_on_c, 0, 51, 63
1, 146248, Note_on_c, 9, 59, 0
1, 146254, Note_on_c, 0, 59, 0
1, 146254, Note_on_c, 0, 51, 0
1, 146280, Note_on_c, 1, 43, 0
1, 146284, Note_on_c, 1, 49, 0
1, 146332, Note_on_c, 1, 38, 79
1, 146336, Note_on_c, 9, 59, 57
1, 146346, Note_on_c, 0, 43, 57
1, 146358, Note_on_c, 0, 56, 46
1, 146362, Note_on_c, 0, 59, 49
1, 146474, Note_on_c, 0, 63, 0
1, 146526, Note_on_c, 0, 56, 0
1, 146538, Note_on_c, 0, 59, 0
1, 146560, Note_on_c, 9, 59, 0
1, 146608, Note_on_c, 9, 59, 64
1, 146610, Note_on_c, 0, 51, 63
1, 146618, Note_on_c, 0, 56, 56
1, 146630, Note_on_c, 0, 63, 52
1, 146636, Note_on_c, 9, 59, 0
1, 146642, Note_on_c, 0, 59, 52
1, 146678, Note_on_c, 0, 59, 0
1, 146686, Note_on_c, 0, 63, 0
1, 146688, Note_on_c, 1, 38, 0
1, 146690, Note_on_c, 0, 56, 0
1, 146694, Note_on_c, 0, 51, 0
1, 146704, Note_on_c, 1, 31, 83
1, 146716, Note_on_c, 9, 44, 43
1, 146724, Note_on_c, 9, 59, 60
1, 146750, Note_on_c, 0, 43, 0
1, 146764, Note_on_c, 9, 44, 0
1, 146962, Note_on_c, 0, 47, 51
1, 147012, Note_on_c, 9, 59, 0
1, 147064, Note_on_c, 1, 31, 0
1, 147086, Note_on_c, 0, 47, 0
1, 147092, Note_on_c, 9, 59, 51
1, 147092, Note_on_c, 9, 46, 44
1, 147096, Note_on_c, 1, 36, 80
1, 147126, Note_on_c, 0, 48, 56
1, 147134, Note_on_c, 0, 58, 51
1, 147138, Note_on_c, 0, 55, 50
1, 147138, Note_on_c, 0, 62, 50
1, 147178, Note_on_c, 0, 55, 0
1, 147258, Note_on_c, 0, 58, 0
1, 147294, Note_on_c, 0, 62, 0
1, 147372, Note_on_c, 9, 59, 0
1, 147394, Control_c, 0, 64, 127
1, 147462, Note_on_c, 0, 48, 0
1, 147480, Note_on_c, 9, 59, 90
1, 147628, Note_on_c, 1, 48, 73
1, 147660, Note_on_c, 1, 48, 0
1, 147668, Note_on_c, 1, 36, 0
1, 147670, Control_c, 0, 64, 0
1, 147730, Note_on_c, 0, 67, 61
1, 147748, Note_on_c, 1, 36, 68
1, 147756, Note_on_c, 9, 59, 0
1, 147778, Note_on_c, 0, 67, 0
1, 147828, Note_on_c, 9, 46, 0
1, 147856, Note_on_c, 1, 36, 0
1, 147856, Note_on_c, 9, 59, 60
1, 147878, Note_on_c, 0, 69, 48
1, 147888, Note_on_c, 1, 43, 89
1, 147920, Note_on_c, 1, 44, 41
1, 147956, Note_on_c, 1, 44, 0
1, 147970, Note_on_c, 0, 69, 0
1, 148002, Note_on_c, 0, 70, 55
1, 148038, Note_on_c, 0, 70, 0
1, 148044, Note_on_c, 9, 59, 0
1, 148106, Note_on_c, 0, 72, 66
1, 148112, Note_on_c, 9, 59, 61
1, 148124, Note_on_c, 1, 42, 76
1, 148148, Note_on_c, 9, 59, 0
1, 148164, Note_on_c, 1, 46, 29
1, 148180, Note_on_c, 1, 43, 0
1, 148210, Note_on_c, 0, 72, 0
1, 148216, Note_on_c, 1, 46, 0
1, 148228, Note_on_c, 9, 59, 60
1, 148238, Note_on_c, 0, 74, 73
1, 148240, Note_on_c, 1, 42, 0
1, 148268, Note_on_c, 1, 41, 70
1, 148338, Note_on_c, 0, 74, 0
1, 148386, Note_on_c, 0, 75, 57
1, 148408, Note_on_c, 1, 41, 0
1, 148422, Note_on_c, 0, 75, 0
1, 148484, Note_on_c, 9, 59, 0
1, 148498, Note_on_c, 0, 77, 70
1, 148516, Note_on_c, 1, 36, 74
1, 148584, Note_on_c, 1, 36, 0
1, 148590, Note_on_c, 0, 77, 0
1, 148616, Note_on_c, 9, 59, 76
1, 148638, Note_on_c, 0, 79, 63
1, 148640, Note_on_c, 1, 29, 85
1, 148746, Note_on_c, 0, 79, 0
1, 148766, Note_on_c, 0, 81, 57
1, 148846, Note_on_c, 0, 81, 0
1, 148856, Note_on_c, 9, 59, 0
1, 148940, Note_on_c, 1, 29, 0
1, 148996, Note_on_c, 1, 39, 94
1, 149008, Note_on_c, 9, 59, 75
1, 149008, Note_on_c, 9, 44, 46
1, 149014, Note_on_c, 0, 84, 37
1, 149086, Note_on_c, 0, 84, 0
1, 149086, Note_on_c, 0, 86, 71
1, 149168, Note_on_c, 9, 44, 0
1, 149216, Note_on_c, 9, 59, 0
1, 149226, Note_on_c, 0, 87, 63
1, 149250, Note_on_c, 0, 86, 0
1, 149310, Note_on_c, 0, 88, 54
1, 149314, Note_on_c, 0, 87, 0
1, 149344, Note_on_c, 1, 39, 0
1, 149366, Note_on_c, 0, 88, 0
1, 149384, Note_on_c, 1, 38, 76
1, 149384, Note_on_c, 9, 59, 66
1, 149406, Note_on_c, 0, 89, 84
1, 149478, Note_on_c, 0, 60, 52
1, 149526, Note_on_c, 0, 57, 43
1, 149526, Note_on_c, 0, 53, 33
1, 149534, Note_on_c, 0, 50, 41
1, 149554, Note_on_c, 0, 86, 70
1, 149576, Note_on_c, 9, 59, 0
1, 149598, Note_on_c, 0, 89, 0
1, 149656, Note_on_c, 9, 59, 54
1, 149694, Note_on_c, 0, 86, 0
1, 149700, Note_on_c, 9, 59, 0
1, 149726, Note_on_c, 0, 57, 0
1, 149772, Note_on_c, 1, 45, 84
1, 149780, Note_on_c, 9, 59, 66
1, 149790, Note_on_c, 0, 60, 0
1, 149822, Note_on_c, 0, 53, 0
1, 149858, Note_on_c, 0, 79, 50
1, 149906, Note_on_c, 0, 79, 0
1, 150028, Note_on_c, 9, 59, 0
1, 150038, Note_on_c, 0, 50, 0
1, 150104, Note_on_c, 1, 37, 36
1, 150126, Note_on_c, 0, 77, 57
1, 150126, Note_on_c, 0, 60, 50
1, 150136, Note_on_c, 1, 45, 0
1, 150170, Note_on_c, 0, 60, 0
1, 150172, Note_on_c, 1, 37, 0
1, 150172, Note_on_c, 9, 59, 60
1, 150176, Note_on_c, 9, 44, 47
1, 150180, Note_on_c, 1, 50, 85
1, 150186, Note_on_c, 0, 77, 0
1, 150360, Note_on_c, 9, 44, 0
1, 150416, Note_on_c, 9, 59, 0
1, 150422, Note_on_c, 0, 77, 51
1, 150436, Note_on_c, 9, 35, 54
1, 150464, Note_on_c, 0, 77, 0
1, 150464, Note_on_c, 1, 37, 49
1, 150476, Note_on_c, 9, 35, 0
1, 150520, Note_on_c, 1, 37, 0
1, 150528, Note_on_c, 1, 38, 0
1, 150532, Note_on_c, 1, 50, 0
1, 150560, Note_on_c, 1, 49, 80
1, 150568, Note_on_c, 9, 59, 51
1, 150630, Note_on_c, 0, 77, 50
1, 150718, Note_on_c, 0, 77, 0
1, 150800, Note_on_c, 9, 59, 0
1, 150812, Note_on_c, 9, 44, 43
1, 150856, Note_on_c, 9, 44, 0
1, 150948, Note_on_c, 9, 59, 64
1, 150970, Note_on_c, 0, 49, 56
1, 150970, Note_on_c, 0, 58, 47
1, 151050, Note_on_c, 0, 55, 30
1, 151126, Note_on_c, 0, 55, 0
1, 151130, Note_on_c, 0, 49, 0
1, 151146, Note_on_c, 0, 58, 0
1, 151208, Note_on_c, 9, 59, 0
1, 151208, Note_on_c, 1, 43, 55
1, 151240, Note_on_c, 1, 43, 0
1, 151328, Note_on_c, 9, 59, 67
1, 151340, Note_on_c, 1, 49, 0
1, 151356, Note_on_c, 1, 37, 65
1, 151544, Note_on_c, 9, 59, 0
1, 151608, Note_on_c, 9, 59, 51
1, 151616, Note_on_c, 1, 34, 70
1, 151628, Note_on_c, 1, 37, 0
1, 151640, Note_on_c, 9, 59, 0
1, 151656, Note_on_c, 1, 34, 0
1, 151712, Note_on_c, 9, 59, 56
1, 151720, Note_on_c, 9, 44, 49
1, 151724, Note_on_c, 1, 36, 84
1, 151808, Note_on_c, 9, 44, 0
1, 151964, Note_on_c, 9, 59, 0
1, 151982, Note_on_c, 0, 58, 59
1, 152002, Note_on_c, 0, 48, 39
1, 152022, Note_on_c, 0, 58, 0
1, 152054, Note_on_c, 0, 48, 0
1, 152092, Note_on_c, 1, 48, 105
1, 152112, Note_on_c, 1, 36, 0
1, 152112, Note_on_c, 9, 59, 52
1, 152276, Note_on_c, 1, 50, 35
1, 152312, Note_on_c, 1, 50, 0
1, 152320, Note_on_c, 9, 59, 0
1, 152360, Note_on_c, 9, 35, 53
1, 152368, Note_on_c, 1, 48, 0
1, 152368, Note_on_c, 1, 38, 71
1, 152394, Note_on_c, 0, 58, 41
1, 152396, Note_on_c, 9, 35, 0
1, 152398, Note_on_c, 0, 67, 50
1, 152406, Note_on_c, 0, 63, 43
1, 152410, Note_on_c, 0, 62, 46
1, 152422, Note_on_c, 0, 71, 31
1, 152438, Note_on_c, 0, 67, 0
1, 152454, Note_on_c, 0, 58, 0
1, 152458, Note_on_c, 0, 62, 0
1, 152470, Note_on_c, 0, 71, 0
1, 152472, Note_on_c, 1, 42, 73
1, 152476, Note_on_c, 1, 38, 0
1, 152478, Note_on_c, 0, 63, 0
1, 152480, Note_on_c, 9, 46, 38
1, 152488, Note_on_c, 9, 59, 47
1, 152530, Note_on_c, 0, 74, 85
1, 152672, Note_on_c, 9, 59, 0
1, 152698, Note_on_c, 0, 74, 0
1, 152752, Note_on_c, 9, 59, 33
1, 152758, Note_on_c, 0, 62, 45
1, 152782, Note_on_c, 0, 71, 43
1, 152800, Note_on_c, 9, 59, 0
1, 152810, Note_on_c, 0, 62, 0
1, 152834, Note_on_c, 0, 71, 0
1, 152872, Note_on_c, 9, 59, 61
1, 152946, Note_on_c, 0, 72, 35
1, 153042, Note_on_c, 0, 72, 0
1, 153100, Note_on_c, 9, 46, 0
1, 153100, Note_on_c, 1, 41, 83
1, 153104, Note_on_c, 1, 46, 12
1, 153116, Note_on_c, 9, 59, 0
1, 153128, Note_on_c, 1, 42, 0
1, 153130, Note_on_c, 0, 74, 75
1, 153136, Note_on_c, 1, 41, 0
1, 153152, Note_on_c, 1, 46, 0
1, 153178, Note_on_c, 0, 63, 45
1, 153222, Note_on_c, 0, 74, 0
1, 153236, Note_on_c, 0, 63, 0
1, 153236, Note_on_c, 1, 36, 42
1, 153236, Note_on_c, 9, 59, 57
1, 153302, Note_on_c, 0, 75, 59
1, 153390, Note_on_c, 0, 75, 0
1, 153436, Note_on_c, 9, 59, 0
1, 153498, Note_on_c, 0, 77, 75
1, 153506, Note_on_c, 0, 63, 60
1, 153546, Note_on_c, 0, 63, 0
1, 153578, Note_on_c, 0, 77, 0
1, 153612, Note_on_c, 1, 36, 0
1, 153616, Note_on_c, 9, 59, 65
1, 153628, Note_on_c, 1, 33, 66
1, 153670, Note_on_c, 0, 79, 52
1, 153750, Note_on_c, 0, 79, 0
1, 153784, Note_on_c, 9, 59, 0
1, 153850, Note_on_c, 0, 80, 75
1, 153884, Note_on_c, 9, 59, 50
1, 153912, Note_on_c, 9, 59, 0
1, 153946, Note_on_c, 0, 60, 37
1, 153950, Note_on_c, 0, 53, 54
1, 153962, Note_on_c, 0, 80, 0
1, 153966, Note_on_c, 0, 57, 39
1, 153966, Note_on_c, 0, 50, 27
1, 153992, Note_on_c, 1, 33, 0
1, 153998, Note_on_c, 0, 60, 0
1, 154000, Note_on_c, 9, 59, 50
1, 154016, Note_on_c, 1, 38, 65
1, 154040, Note_on_c, 9, 44, 31
1, 154046, Note_on_c, 0, 57, 0
1, 154050, Note_on_c, 0, 81, 62
1, 154054, Note_on_c, 0, 50, 0
1, 154114, Note_on_c, 0, 53, 0
1, 154120, Note_on_c, 9, 44, 0
1, 154170, Note_on_c, 0, 81, 0
1, 154254, Note_on_c, 0, 86, 79
1, 154264, Note_on_c, 9, 59, 0
1, 154352, Note_on_c, 0, 86, 0
1, 154352, Note_on_c, 1, 38, 0
1, 154400, Note_on_c, 9, 59, 92
1, 154412, Note_on_c, 1, 38, 73
1, 154442, Note_on_c, 0, 86, 66
1, 154538, Note_on_c, 0, 86, 0
1, 154628, Note_on_c, 9, 59, 0
1, 154638, Note_on_c, 0, 86, 75
1, 154642, Note_on_c, 0, 60, 38
1, 154672, Note_on_c, 1, 37, 60
1, 154680, Note_on_c, 1, 38, 0
1, 154694, Note_on_c, 0, 60, 0
1, 154696, Note_on_c, 9, 59, 42
1, 154702, Note_on_c, 0, 57, 31
1, 154732, Note_on_c, 9, 59, 0
1, 154762, Note_on_c, 0, 57, 0
1, 154762, Note_on_c, 0, 86, 0
1, 154780, Note_on_c, 1, 37, 0
1, 154796, Note_on_c, 9, 59, 56
1, 154800, Note_on_c, 1, 38, 64
1, 154838, Note_on_c, 0, 84, 58
1, 154946, Note_on_c, 0, 84, 0
1, 154956, Note_on_c, 9, 59, 0
1, 155056, Note_on_c, 9, 59, 92
1, 155172, Note_on_c, 1, 38, 0
1, 155176, Note_on_c, 1, 37, 64
1, 155396, Note_on_c, 9, 59, 0
1, 155402, Note_on_c, 0, 64, 57
1, 155418, Note_on_c, 0, 61, 50
1, 155434, Note_on_c, 0, 58, 49
1, 155470, Note_on_c, 0, 55, 23
1, 155518, Note_on_c, 0, 64, 0
1, 155534, Note_on_c, 0, 55, 0
1, 155566, Note_on_c, 0, 61, 0
1, 155574, Note_on_c, 0, 58, 0
1, 155576, Note_on_c, 1, 40, 61
1, 155584, Note_on_c, 9, 59, 81
1, 155616, Note_on_c, 1, 37, 0
1, 155814, Note_on_c, 0, 64, 59
1, 155826, Note_on_c, 0, 61, 49
1, 155826, Note_on_c, 0, 58, 48
1, 155828, Note_on_c, 9, 59, 0
1, 155832, Note_on_c, 1, 37, 64
1, 155850, Note_on_c, 0, 64, 0
1, 155882, Note_on_c, 0, 61, 0
1, 155888, Note_on_c, 1, 40, 0
1, 155894, Note_on_c, 0, 58, 0
1, 155920, Note_on_c, 9, 44, 42
1, 155924, Note_on_c, 1, 37, 0
1, 155930, Note_on_c, 0, 85, 79
1, 155932, Note_on_c, 1, 43, 65
1, 155932, Note_on_c, 9, 59, 60
1, 155946, Note_on_c, 0, 73, 66
1, 155952, Note_on_c, 9, 53, 45
1, 156092, Note_on_c, 9, 44, 0
1, 156112, Note_on_c, 9, 59, 0
1, 156120, Note_on_c, 9, 53, 0
1, 156168, Note_on_c, 1, 34, 64
1, 156204, Note_on_c, 9, 59, 71
1, 156204, Note_on_c, 9, 53, 73
1, 156212, Note_on_c, 1, 43, 0
1, 156238, Note_on_c, 0, 73, 0
1, 156250, Note_on_c, 0, 85, 0
1, 156256, Note_on_c, 1, 34, 0
1, 156292, Note_on_c, 1, 36, 70
1, 156320, Note_on_c, 9, 44, 46
1, 156330, Note_on_c, 0, 67, 58
1, 156346, Note_on_c, 0, 84, 61
1, 156358, Note_on_c, 0, 58, 40
1, 156362, Note_on_c, 0, 72, 56
1, 156362, Note_on_c, 0, 63, 50
1, 156394, Note_on_c, 0, 60, 39
1, 156420, Note_on_c, 9, 44, 0
1, 156448, Note_on_c, 9, 59, 0
1, 156520, Note_on_c, 9, 53, 0
1, 156564, Note_on_c, 9, 59, 60
1, 156600, Note_on_c, 1, 34, 56
1, 156612, Note_on_c, 9, 59, 0
1, 156622, Control_c, 0, 64, 127
1, 156644, Note_on_c, 1, 36, 0
1, 156682, Note_on_c, 0, 67, 0
1, 156696, Note_on_c, 1, 39, 70
1, 156720, Note_on_c, 1, 34, 0
1, 156724, Note_on_c, 9, 59, 89
1, 156726, Note_on_c, 0, 58, 0
1, 156728, Note_on_c, 9, 53, 84
1, 156734, Note_on_c, 0, 60, 0
1, 156754, Note_on_c, 0, 63, 0
1, 156818, Note_on_c, 0, 72, 0
1, 156846, Note_on_c, 0, 84, 0
1, 156936, Note_on_c, 9, 59, 0
1, 156962, Note_on_c, 0, 67, 71
1, 156964, Note_on_c, 1, 36, 62
1, 156970, Note_on_c, 0, 63, 56
1, 156974, Note_on_c, 0, 58, 52
1, 157020, Note_on_c, 9, 53, 0
1, 157024, Note_on_c, 1, 39, 0
1, 157036, Note_on_c, 1, 36, 0
1, 157042, Note_on_c, 0, 67, 0
1, 157076, Note_on_c, 1, 43, 80
1, 157076, Note_on_c, 9, 59, 54
1, 157080, Note_on_c, 9, 44, 42
1, 157144, Note_on_c, 9, 59, 0
1, 157158, Note_on_c, 0, 63, 0
1, 157160, Note_on_c, 9, 44, 0
1, 157274, Note_on_c, 0, 58, 0
1, 157324, Note_on_c, 9, 59, 76
1, 157328, Note_on_c, 1, 36, 64
1, 157328, Note_on_c, 9, 53, 76
1, 157360, Note_on_c, 1, 43, 0
1, 157404, Note_on_c, 1, 36, 0
1, 157448, Note_on_c, 1, 29, 77
1, 157480, Note_on_c, 9, 44, 42
1, 157510, Note_on_c, 0, 63, 52
1, 157518, Note_on_c, 0, 57, 54
1, 157526, Control_c, 0, 64, 0
1, 157572, Note_on_c, 9, 44, 0
1, 157672, Note_on_c, 9, 59, 0
1, 157692, Note_on_c, 9, 53, 0
1, 157702, Note_on_c, 9, 38, 40
1, 157734, Note_on_c, 9, 38, 0
1, 157774, Note_on_c, 0, 65, 62
1, 157784, Note_on_c, 1, 29, 0
1, 157818, Note_on_c, 0, 65, 0
1, 157844, Note_on_c, 1, 31, 85
1, 157860, Note_on_c, 9, 59, 42
1, 157860, Note_on_c, 9, 53, 38
1, 157866, Note_on_c, 0, 66, 50
1, 157882, Note_on_c, 0, 63, 0
1, 157906, Note_on_c, 0, 66, 0
1, 157978, Note_on_c, 0, 67, 72
1, 158064, Note_on_c, 9, 59, 0
1, 158080, Note_on_c, 9, 53, 0
1, 158082, Note_on_c, 0, 70, 61
1, 158094, Note_on_c, 0, 67, 0
1, 158098, Note_on_c, 9, 38, 40
1, 158104, Note_on_c, 1, 32, 89
1, 158108, Note_on_c, 9, 44, 50
1, 158118, Note_on_c, 0, 63, 39
1, 158132, Note_on_c, 1, 31, 0
1, 158134, Note_on_c, 9, 38, 0
1, 158152, Note_on_c, 9, 44, 0
1, 158176, Note_on_c, 1, 32, 0
1, 158182, Note_on_c, 0, 63, 0
1, 158186, Note_on_c, 0, 70, 0
1, 158194, Note_on_c, 0, 74, 66
1, 158224, Note_on_c, 1, 33, 87
1, 158240, Note_on_c, 0, 57, 0
1, 158240, Note_on_c, 9, 59, 44
1, 158240, Note_on_c, 9, 53, 49
1, 158256, Note_on_c, 9, 59, 38
1, 158306, Note_on_c, 0, 77, 66
1, 158322, Note_on_c, 0, 74, 0
1, 158414, Note_on_c, 0, 72, 72
1, 158418, Note_on_c, 0, 77, 0
1, 158456, Note_on_c, 9, 59, 0
1, 158464, Note_on_c, 9, 53, 0
1, 158480, Note_on_c, 9, 35, 83
1, 158498, Note_on_c, 0, 72, 0
1, 158526, Note_on_c, 0, 63, 35
1, 158526, Note_on_c, 0, 73, 66
1, 158540, Note_on_c, 9, 59, 0
1, 158560, Note_on_c, 9, 35, 0
1, 158574, Note_on_c, 0, 73, 0
1, 158578, Note_on_c, 0, 63, 0
1, 158588, Note_on_c, 1, 33, 0
1, 158612, Note_on_c, 1, 34, 80
1, 158612, Note_on_c, 9, 53, 42
1, 158628, Note_on_c, 9, 59, 53
1, 158634, Note_on_c, 0, 74, 71
1, 158782, Note_on_c, 0, 77, 47
1, 158786, Note_on_c, 0, 74, 0
1, 158826, Note_on_c, 0, 81, 66
1, 158838, Note_on_c, 0, 77, 0
1, 158880, Note_on_c, 9, 59, 0
1, 158880, Note_on_c, 9, 44, 42
1, 158888, Note_on_c, 9, 53, 0
1, 158928, Note_on_c, 9, 44, 0
1, 158942, Note_on_c, 0, 84, 72
1, 158962, Note_on_c, 0, 81, 0
1, 159008, Note_on_c, 9, 44, 48
1, 159016, Note_on_c, 9, 59, 53
1, 159016, Note_on_c, 9, 53, 50
1, 159054, Note_on_c, 0, 77, 61
1, 159074, Note_on_c, 0, 84, 0
1, 159136, Note_on_c, 1, 34, 0
1, 159144, Note_on_c, 1, 36, 68
1, 159174, Note_on_c, 0, 77, 0
1, 159174, Note_on_c, 0, 78, 68
1, 159214, Note_on_c, 0, 78, 0
1, 159224, Note_on_c, 9, 44, 0
1, 159244, Note_on_c, 9, 53, 0
1, 159252, Note_on_c, 9, 59, 0
1, 159276, Note_on_c, 1, 37, 81
1, 159286, Note_on_c, 0, 79, 73
1, 159292, Note_on_c, 1, 36, 0
1, 159348, Note_on_c, 1, 37, 0
1, 159374, Note_on_c, 0, 82, 48
1, 159392, Note_on_c, 9, 44, 44
1, 159396, Note_on_c, 0, 79, 0
1, 159396, Note_on_c, 9, 53, 65
1, 159400, Note_on_c, 9, 59, 57
1, 159412, Note_on_c, 1, 37, 85
1, 159414, Note_on_c, 0, 82, 0
1, 159442, Note_on_c, 0, 86, 65
1, 159582, Note_on_c, 0, 89, 68
1, 159594, Note_on_c, 0, 86, 0
1, 159612, Note_on_c, 9, 59, 0
1, 159620, Note_on_c, 9, 53, 0
1, 159676, Note_on_c, 9, 44, 0
1, 159678, Note_on_c, 0, 89, 0
1, 159680, Note_on_c, 9, 59, 50
1, 159686, Note_on_c, 0, 61, 37
1, 159686, Note_on_c, 0, 84, 61
1, 159708, Note_on_c, 9, 59, 0
1, 159734, Note_on_c, 0, 61, 0
1, 159768, Note_on_c, 9, 59, 61
1, 159780, Note_on_c, 1, 37, 0
1, 159792, Note_on_c, 1, 38, 79
1, 159798, Note_on_c, 0, 84, 0
1, 159802, Note_on_c, 0, 85, 68
1, 159846, Note_on_c, 0, 85, 0
1, 159934, Note_on_c, 0, 86, 61
1, 159978, Note_on_c, 0, 88, 34
1, 160042, Note_on_c, 0, 88, 0
1, 160042, Note_on_c, 0, 86, 0
1, 160058, Note_on_c, 0, 89, 48
1, 160064, Note_on_c, 9, 59, 0
1, 160072, Note_on_c, 1, 37, 53
1, 160134, Note_on_c, 0, 93, 68
1, 160142, Note_on_c, 0, 89, 0
1, 160164, Note_on_c, 9, 59, 62
1, 160168, Note_on_c, 1, 37, 0
1, 160172, Note_on_c, 1, 50, 99
1, 160214, Note_on_c, 0, 93, 0
1, 160246, Note_on_c, 0, 96, 102
1, 160400, Note_on_c, 9, 59, 0
1, 160498, Note_on_c, 0, 96, 0
1, 160516, Note_on_c, 9, 44, 50
1, 160552, Note_on_c, 9, 59, 58
1, 160558, Note_on_c, 0, 94, 79
1, 160560, Note_on_c, 9, 44, 0
1, 160692, Note_on_c, 9, 59, 0
1, 160746, Note_on_c, 0, 94, 0
1, 160804, Note_on_c, 1, 37, 64
1, 160812, Note_on_c, 9, 59, 55
1, 160836, Note_on_c, 1, 38, 0
1, 160844, Note_on_c, 9, 59, 0
1, 160874, Note_on_c, 0, 90, 68
1, 160896, Note_on_c, 1, 37, 0
1, 160896, Note_on_c, 1, 50, 0
1, 160916, Note_on_c, 9, 44, 48
1, 160920, Note_on_c, 1, 39, 87
1, 160976, Note_on_c, 9, 44, 0
1, 160986, Note_on_c, 0, 90, 0
1, 161038, Note_on_c, 0, 93, 76
1, 161202, Note_on_c, 0, 93, 0
1, 161290, Note_on_c, 0, 86, 56
1, 161296, Note_on_c, 9, 59, 60
1, 161332, Note_on_c, 1, 51, 87
1, 161360, Note_on_c, 1, 39, 0
1, 161418, Note_on_c, 0, 86, 0
1, 161484, Note_on_c, 9, 59, 0
1, 161582, Note_on_c, 0, 62, 45
1, 161614, Note_on_c, 0, 55, 30
1, 161630, Note_on_c, 0, 62, 0
1, 161686, Note_on_c, 0, 55, 0
1, 161692, Note_on_c, 9, 59, 46
1, 161696, Note_on_c, 9, 44, 36
1, 161812, Note_on_c, 9, 44, 0
1, 161884, Note_on_c, 9, 59, 0
1, 161956, Note_on_c, 1, 42, 75
1, 161956, Note_on_c, 9, 40, 100
1, 161984, Note_on_c, 1, 51, 0
1, 161992, Note_on_c, 9, 40, 0
1, 162032, Note_on_c, 1, 42, 0
1, 162076, Note_on_c, 9, 59, 40
1, 162086, Note_on_c, 0, 63, 53
1, 162088, Note_on_c, 1, 43, 58
1, 162090, Note_on_c, 0, 59, 51
1, 162114, Note_on_c, 0, 53, 41
1, 162272, Note_on_c, 9, 59, 0
1, 162312, Note_on_c, 1, 43, 0
1, 162316, Note_on_c, 9, 59, 36
1, 162332, Note_on_c, 1, 38, 76
1, 162376, Note_on_c, 9, 59, 0
1, 162402, Note_on_c, 0, 53, 0
1, 162404, Note_on_c, 1, 38, 0
1, 162418, Note_on_c, 0, 63, 0
1, 162460, Note_on_c, 9, 59, 58
1, 162462, Note_on_c, 0, 91, 127
1, 162468, Note_on_c, 1, 35, 76
1, 162476, Note_on_c, 9, 35, 39
1, 162558, Note_on_c, 0, 59, 0
1, 162594, Note_on_c, 0, 91, 0
1, 162600, Note_on_c, 9, 35, 0
1, 162682, Note_on_c, 0, 90, 87
1, 162686, Note_on_c, 0, 59, 57
1, 162686, Note_on_c, 0, 63, 63
1, 162748, Note_on_c, 9, 59, 0
1, 162790, Note_on_c, 0, 59, 0
1, 162802, Note_on_c, 0, 63, 0
1, 162812, Note_on_c, 1, 35, 0
1, 162826, Note_on_c, 0, 90, 0
1, 162848, Note_on_c, 1, 38, 74
1, 162856, Note_on_c, 9, 59, 60
1, 162870, Note_on_c, 0, 89, 74
1, 163052, Note_on_c, 9, 59, 0
1, 163082, Note_on_c, 0, 61, 22
1, 163090, Note_on_c, 0, 87, 85
1, 163100, Note_on_c, 1, 38, 0
1, 163112, Note_on_c, 1, 35, 61
1, 163120, Note_on_c, 9, 59, 48
1, 163126, Note_on_c, 0, 89, 0
1, 163138, Note_on_c, 0, 63, 54
1, 163156, Note_on_c, 9, 59, 0
1, 163186, Note_on_c, 0, 67, 31
1, 163200, Note_on_c, 1, 35, 0
1, 163214, Note_on_c, 0, 65, 22
1, 163220, Note_on_c, 9, 59, 70
1, 163228, Note_on_c, 1, 36, 58
1, 163250, Note_on_c, 0, 87, 0
1, 163282, Note_on_c, 0, 65, 0
1, 163282, Note_on_c, 0, 86, 56
1, 163290, Note_on_c, 0, 67, 0
1, 163370, Note_on_c, 0, 62, 1
1, 163402, Note_on_c, 0, 61, 0
1, 163466, Note_on_c, 0, 86, 0
1, 163492, Note_on_c, 1, 34, 57
1, 163496, Note_on_c, 9, 59, 0
1, 163516, Note_on_c, 1, 36, 0
1, 163590, Note_on_c, 0, 62, 0
1, 163592, Note_on_c, 1, 34, 0
1, 163602, Note_on_c, 0, 89, 98
1, 163604, Note_on_c, 1, 38, 67
1, 163610, Note_on_c, 0, 63, 0
1, 163612, Note_on_c, 9, 59, 91
1, 163794, Note_on_c, 0, 89, 0
1, 163830, Note_on_c, 0, 86, 73
1, 163834, Note_on_c, 0, 67, 43
1, 163850, Note_on_c, 0, 63, 42
1, 163860, Note_on_c, 9, 59, 0
1, 163880, Note_on_c, 1, 36, 52
1, 163886, Note_on_c, 0, 67, 0
1, 163910, Note_on_c, 0, 63, 0
1, 163910, Note_on_c, 0, 86, 0
1, 163932, Note_on_c, 1, 38, 0
1, 163936, Note_on_c, 1, 36, 0
1, 163988, Note_on_c, 1, 39, 66
1, 163988, Note_on_c, 9, 44, 48
1, 164000, Note_on_c, 0, 87, 79
1, 164000, Note_on_c, 9, 59, 76
1, 164178, Note_on_c, 0, 87, 0
1, 164226, Note_on_c, 0, 79, 62
1, 164256, Note_on_c, 9, 59, 0
1, 164260, Note_on_c, 9, 44, 0
1, 164264, Note_on_c, 1, 36, 58
1, 164286, Note_on_c, 0, 59, 53
1, 164286, Note_on_c, 0, 63, 46
1, 164308, Note_on_c, 1, 36, 0
1, 164318, Note_on_c, 0, 53, 43
1, 164328, Note_on_c, 1, 39, 0
1, 164342, Note_on_c, 0, 79, 0
1, 164368, Note_on_c, 9, 59, 67
1, 164380, Note_on_c, 1, 43, 70
1, 164384, Note_on_c, 9, 44, 44
1, 164414, Note_on_c, 0, 87, 88
1, 164418, Note_on_c, 0, 63, 0
1, 164434, Note_on_c, 0, 59, 0
1, 164482, Note_on_c, 0, 53, 0
1, 164604, Note_on_c, 9, 44, 0
1, 164618, Note_on_c, 0, 87, 0
1, 164628, Note_on_c, 1, 35, 54
1, 164638, Note_on_c, 0, 59, 30
1, 164668, Note_on_c, 9, 59, 0
1, 164680, Note_on_c, 1, 35, 0
1, 164726, Note_on_c, 0, 59, 0
1, 164728, Note_on_c, 1, 43, 0
1, 164734, Note_on_c, 0, 82, 72
1, 164760, Note_on_c, 1, 39, 66
1, 164768, Note_on_c, 9, 59, 64
1, 164770, Note_on_c, 0, 82, 0
1, 164790, Note_on_c, 0, 83, 63
1, 164902, Note_on_c, 0, 83, 0
1, 164932, Note_on_c, 9, 59, 0
1, 165006, Note_on_c, 0, 79, 61
1, 165010, Note_on_c, 0, 63, 52
1, 165034, Note_on_c, 0, 59, 47
1, 165054, Note_on_c, 0, 63, 0
1, 165078, Note_on_c, 0, 59, 0
1, 165114, Note_on_c, 0, 79, 0
1, 165128, Note_on_c, 1, 39, 0
1, 165136, Note_on_c, 1, 35, 75
1, 165144, Note_on_c, 9, 59, 60
1, 165164, Note_on_c, 9, 44, 80
1, 165170, Note_on_c, 0, 85, 81
1, 165240, Note_on_c, 9, 44, 0
1, 165256, Note_on_c, 9, 59, 0
1, 165330, Note_on_c, 0, 81, 69
1, 165366, Note_on_c, 0, 85, 0
1, 165404, Note_on_c, 9, 59, 62
1, 165436, Note_on_c, 1, 34, 51
1, 165458, Note_on_c, 0, 81, 0
1, 165508, Note_on_c, 1, 35, 0
1, 165508, Note_on_c, 9, 59, 0
1, 165510, Note_on_c, 0, 77, 58
1, 165528, Note_on_c, 1, 34, 0
1, 165532, Note_on_c, 1, 36, 70
1, 165532, Note_on_c, 9, 59, 66
1, 165630, Note_on_c, 0, 77, 0
1, 165704, Note_on_c, 9, 59, 0
1, 165776, Note_on_c, 9, 59, 59
1, 165800, Note_on_c, 9, 59, 0
1, 165822, Note_on_c, 0, 83, 54
1, 165826, Note_on_c, 0, 84, 56
1, 165844, Note_on_c, 1, 34, 29
1, 165866, Note_on_c, 0, 84, 0
1, 165886, Note_on_c, 0, 63, 22
1, 165896, Note_on_c, 1, 36, 0
1, 165904, Note_on_c, 9, 59, 54
1, 165908, Note_on_c, 1, 34, 0
1, 165920, Note_on_c, 1, 38, 67
1, 165930, Note_on_c, 0, 79, 66
1, 165942, Note_on_c, 0, 63, 0
1, 165954, Note_on_c, 0, 83, 0
1, 166046, Note_on_c, 0, 79, 0
1, 166062, Note_on_c, 0, 75, 63
1, 166068, Note_on_c, 9, 59, 0
1, 166136, Note_on_c, 1, 38, 0
1, 166156, Note_on_c, 1, 39, 71
1, 166166, Note_on_c, 0, 75, 0
1, 166176, Note_on_c, 9, 44, 60
1, 166184, Note_on_c, 9, 59, 77
1, 166204, Note_on_c, 9, 44, 0
1, 166248, Note_on_c, 1, 39, 0
1, 166252, Note_on_c, 9, 59, 0
1, 166296, Note_on_c, 1, 40, 61
1, 166312, Note_on_c, 9, 44, 57
1, 166324, Note_on_c, 9, 59, 57
1, 166396, Note_on_c, 9, 44, 0
1, 166556, Note_on_c, 1, 36, 60
1, 166588, Note_on_c, 1, 36, 0
1, 166592, Note_on_c, 9, 59, 0
1, 166620, Note_on_c, 1, 40, 0
1, 166648, Note_on_c, 1, 41, 77
1, 166676, Note_on_c, 9, 59, 56
1, 166680, Note_on_c, 9, 46, 67
1, 166694, Note_on_c, 0, 72, 81
1, 166698, Note_on_c, 0, 84, 78
1, 166702, Note_on_c, 0, 67, 64
1, 166702, Note_on_c, 0, 86, 75
1, 166734, Note_on_c, 0, 63, 45
1, 166734, Note_on_c, 0, 58, 44
1, 166742, Note_on_c, 0, 86, 0
1, 166754, Note_on_c, 0, 62, 37
1, 166900, Note_on_c, 9, 59, 0
1, 166922, Control_c, 0, 64, 127
1, 166924, Note_on_c, 1, 36, 56
1, 166976, Note_on_c, 1, 41, 0
1, 167016, Note_on_c, 1, 36, 0
1, 167046, Note_on_c, 0, 67, 0
1, 167054, Note_on_c, 0, 62, 0
1, 167056, Note_on_c, 9, 59, 77
1, 167064, Note_on_c, 1, 33, 81
1, 167118, Note_on_c, 0, 84, 0
1, 167134, Note_on_c, 0, 63, 0
1, 167158, Note_on_c, 0, 72, 0
1, 167186, Note_on_c, 0, 58, 0
1, 167260, Note_on_c, 9, 59, 0
1, 167328, Note_on_c, 9, 59, 62
1, 167338, Note_on_c, 0, 74, 81
1, 167338, Note_on_c, 0, 86, 84
1, 167346, Control_c, 0, 64, 0
1, 167350, Note_on_c, 0, 57, 78
1, 167358, Note_on_c, 0, 63, 66
1, 167358, Note_on_c, 0, 67, 71
1, 167358, Note_on_c, 0, 85, 66
1, 167360, Note_on_c, 9, 59, 0
1, 167364, Note_on_c, 1, 33, 0
1, 167364, Note_on_c, 9, 46, 0
1, 167432, Note_on_c, 1, 33, 73
1, 167440, Note_on_c, 9, 59, 65
1, 167456, Note_on_c, 9, 44, 42
1, 167470, Control_c, 0, 64, 127
1, 167506, Note_on_c, 0, 85, 0
1, 167580, Note_on_c, 9, 44, 0
1, 167606, Note_on_c, 0, 86, 0
1, 167610, Note_on_c, 0, 67, 0
1, 167638, Note_on_c, 0, 57, 0
1, 167650, Note_on_c, 0, 74, 0
1, 167676, Note_on_c, 9, 59, 0
1, 167734, Note_on_c, 0, 63, 0
1, 167788, Note_on_c, 1, 33, 0
1, 167816, Note_on_c, 9, 59, 87
1, 167824, Note_on_c, 1, 34, 70
1, 167846, Control_c, 0, 64, 0
1, 167850, Note_on_c, 0, 87, 80
1, 167854, Note_on_c, 0, 56, 70
1, 167854, Note_on_c, 0, 85, 73
1, 167854, Note_on_c, 0, 63, 61
1, 167854, Note_on_c, 0, 67, 80
1, 167854, Note_on_c, 0, 75, 82
1, 167882, Note_on_c, 0, 60, 64
1, 168038, Control_c, 0, 64, 127
1, 168068, Note_on_c, 9, 59, 0
1, 168130, Note_on_c, 0, 85, 0
1, 168206, Note_on_c, 0, 87, 0
1, 168208, Note_on_c, 9, 59, 78
1, 168210, Note_on_c, 0, 75, 0
1, 168228, Note_on_c, 1, 34, 0
1, 168228, Note_on_c, 1, 41, 83
1, 168242, Note_on_c, 0, 67, 0
1, 168246, Note_on_c, 0, 56, 0
1, 168278, Note_on_c, 0, 60, 0
1, 168318, Note_on_c, 0, 63, 0
1, 168392, Note_on_c, 9, 59, 0
1, 168466, Note_on_c, 0, 89, 88
1, 168466, Note_on_c, 0, 56, 75
1, 168474, Note_on_c, 0, 84, 75
1, 168474, Note_on_c, 0, 67, 84
1, 168478, Note_on_c, 0, 63, 75
1, 168478, Note_on_c, 0, 77, 74
1, 168478, Note_on_c, 0, 60, 66
1, 168490, Note_on_c, 0, 87, 49
1, 168496, Note_on_c, 1, 34, 59
1, 168500, Note_on_c, 9, 59, 53
1, 168528, Note_on_c, 9, 59, 0
1, 168534, Note_on_c, 0, 87, 0
1, 168592, Note_on_c, 9, 59, 67
1, 168604, Note_on_c, 1, 34, 0
1, 168628, Note_on_c, 1, 50, 98
1, 168632, Note_on_c, 9, 44, 43
1, 168752, Note_on_c, 9, 44, 0
1, 168778, Note_on_c, 0, 84, 0
1, 168810, Note_on_c, 0, 77, 0
1, 168826, Note_on_c, 0, 89, 0
1, 168830, Note_on_c, 0, 67, 0
1, 168830, Note_on_c, 0, 56, 0
1, 168832, Note_on_c, 9, 59, 0
1, 168934, Note_on_c, 0, 63, 0
1, 168942, Note_on_c, 0, 60, 0
1, 168984, Note_on_c, 9, 59, 93
1, 169042, Note_on_c, 0, 66, 89
1, 169046, Control_c, 0, 64, 0
1, 169050, Note_on_c, 0, 87, 77
1, 169050, Note_on_c, 0, 60, 59
1, 169050, Note_on_c, 0, 91, 84
1, 169050, Note_on_c, 0, 56, 66
1, 169058, Note_on_c, 0, 79, 83
1, 169058, Note_on_c, 0, 84, 72
1, 169058, Note_on_c, 0, 62, 70
1, 169058, Note_on_c, 0, 90, 58
1, 169070, Note_on_c, 0, 85, 50
1, 169204, Note_on_c, 9, 59, 0
1, 169226, Control_c, 0, 64, 127
1, 169318, Note_on_c, 0, 84, 0
1, 169326, Note_on_c, 0, 85, 0
1, 169360, Note_on_c, 9, 59, 83
1, 169374, Note_on_c, 0, 91, 0
1, 169384, Note_on_c, 1, 41, 0
1, 169386, Note_on_c, 0, 79, 0
1, 169430, Note_on_c, 0, 90, 0
1, 169438, Note_on_c, 0, 56, 0
1, 169446, Note_on_c, 0, 60, 0
1, 169458, Note_on_c, 0, 66, 0
1, 169478, Note_on_c, 0, 87, 0
1, 169506, Note_on_c, 0, 62, 0
1, 169552, Note_on_c, 9, 59, 0
1, 169628, Note_on_c, 9, 59, 60
1, 169636, Note_on_c, 0, 92, 69
1, 169636, Note_on_c, 1, 38, 93
1, 169638, Control_c, 0, 64, 0
1, 169646, Note_on_c, 0, 87, 72
1, 169654, Note_on_c, 0, 66, 75
1, 169654, Note_on_c, 0, 80, 60
1, 169662, Note_on_c, 0, 56, 59
1, 169664, Note_on_c, 9, 59, 0
1, 169670, Note_on_c, 0, 62, 51
1, 169722, Note_on_c, 0, 60, 33
1, 169730, Control_c, 0, 64, 127
1, 169736, Note_on_c, 9, 59, 64
1, 169788, Note_on_c, 9, 44, 44
1, 169870, Note_on_c, 0, 90, 23
1, 169882, Note_on_c, 0, 60, 0
1, 169940, Note_on_c, 9, 44, 0
1, 169942, Note_on_c, 0, 87, 0
1, 169946, Note_on_c, 0, 66, 0
1, 169958, Note_on_c, 0, 62, 0
1, 169960, Note_on_c, 9, 59, 0
1, 169970, Note_on_c, 0, 80, 0
1, 169990, Note_on_c, 0, 92, 0
1, 170010, Note_on_c, 0, 56, 0
1, 170052, Note_on_c, 1, 37, 58
1, 170068, Note_on_c, 1, 38, 0
1, 170094, Note_on_c, 0, 90, 0
1, 170120, Note_on_c, 1, 50, 0
1, 170132, Note_on_c, 9, 59, 85
1, 170156, Note_on_c, 1, 37, 0
1, 170156, Note_on_c, 9, 44, 49
1, 170176, Note_on_c, 1, 39, 81
1, 170178, Note_on_c, 0, 65, 67
1, 170178, Note_on_c, 0, 93, 68
1, 170186, Control_c, 0, 64, 0
1, 170186, Note_on_c, 0, 87, 60
1, 170202, Note_on_c, 0, 55, 46
1, 170202, Note_on_c, 0, 81, 49
1, 170202, Note_on_c, 0, 62, 49
1, 170202, Note_on_c, 0, 60, 49
1, 170280, Note_on_c, 9, 44, 0
1, 170332, Note_on_c, 9, 59, 0
1, 170362, Control_c, 0, 64, 127
1, 170458, Note_on_c, 0, 93, 0
1, 170474, Note_on_c, 0, 81, 0
1, 170510, Note_on_c, 0, 55, 0
1, 170512, Note_on_c, 0, 65, 0
1, 170512, Note_on_c, 9, 59, 68
1, 170522, Note_on_c, 0, 60, 0
1, 170554, Note_on_c, 0, 87, 0
1, 170578, Note_on_c, 0, 62, 0
1, 170684, Note_on_c, 9, 59, 0
1, 170760, Note_on_c, 9, 59, 53
1, 170766, Note_on_c, 0, 94, 66
1, 170770, Control_c, 0, 64, 0
1, 170790, Note_on_c, 0, 82, 58
1, 170790, Note_on_c, 0, 65, 60
1, 170790, Note_on_c, 0, 62, 48
1, 170794, Note_on_c, 0, 60, 51
1, 170796, Note_on_c, 1, 37, 55
1, 170812, Note_on_c, 1, 43, 81
1, 170818, Note_on_c, 0, 55, 45
1, 170828, Note_on_c, 9, 59, 0
1, 170832, Note_on_c, 1, 39, 0
1, 170900, Note_on_c, 9, 59, 72
1, 170902, Control_c, 0, 64, 127
1, 170904, Note_on_c, 1, 37, 0
1, 170904, Note_on_c, 9, 44, 55
1, 171004, Note_on_c, 9, 44, 0
1, 171014, Note_on_c, 0, 62, 0
1, 171026, Note_on_c, 0, 65, 0
1, 171026, Note_on_c, 0, 60, 0
1, 171054, Note_on_c, 0, 82, 0
1, 171066, Note_on_c, 0, 94, 0
1, 171096, Note_on_c, 9, 59, 0
1, 171138, Note_on_c, 0, 55, 0
1, 171176, Note_on_c, 9, 59, 58
1, 171188, Note_on_c, 1, 39, 68
1, 171204, Note_on_c, 9, 59, 0
1, 171256, Note_on_c, 1, 43, 0
1, 171276, Note_on_c, 1, 39, 0
1, 171280, Note_on_c, 9, 59, 70
1, 171308, Note_on_c, 1, 40, 78
1, 171330, Note_on_c, 0, 95, 53
1, 171338, Control_c, 0, 64, 0
1, 171350, Note_on_c, 0, 83, 45
1, 171350, Note_on_c, 0, 64, 53
1, 171350, Note_on_c, 0, 58, 51
1, 171350, Note_on_c, 0, 87, 46
1, 171362, Note_on_c, 0, 61, 48
1, 171370, Note_on_c, 0, 90, 44
1, 171378, Note_on_c, 0, 55, 39
1, 171522, Control_c, 0, 64, 127
1, 171560, Note_on_c, 9, 59, 0
1, 171578, Note_on_c, 0, 90, 0
1, 171586, Note_on_c, 0, 87, 0
1, 171618, Note_on_c, 0, 95, 0
1, 171622, Note_on_c, 0, 83, 0
1, 171626, Note_on_c, 0, 55, 0
1, 171654, Note_on_c, 0, 61, 0
1, 171654, Note_on_c, 0, 58, 0
1, 171658, Note_on_c, 0, 64, 0
1, 171668, Note_on_c, 9, 59, 82
1, 171856, Note_on_c, 9, 59, 0
1, 171890, Control_c, 0, 64, 0
1, 171922, Note_on_c, 0, 96, 67
1, 171932, Note_on_c, 9, 59, 52
1, 171938, Note_on_c, 0, 61, 48
1, 171946, Note_on_c, 0, 64, 52
1, 171946, Note_on_c, 0, 84, 48
1, 171950, Note_on_c, 0, 55, 50
1, 171952, Note_on_c, 1, 39, 60
1, 171954, Note_on_c, 0, 91, 50
1, 171954, Note_on_c, 0, 58, 46
1, 171968, Note_on_c, 9, 59, 0
1, 172016, Note_on_c, 1, 40, 0
1, 172022, Control_c, 0, 64, 127
1, 172028, Note_on_c, 1, 39, 0
1, 172044, Note_on_c, 9, 59, 66
1, 172056, Note_on_c, 1, 43, 80
1, 172056, Note_on_c, 9, 44, 51
1, 172128, Note_on_c, 9, 44, 0
1, 172138, Note_on_c, 0, 61, 0
1, 172138, Note_on_c, 0, 55, 0
1, 172146, Note_on_c, 0, 58, 0
1, 172150, Note_on_c, 0, 91, 0
1, 172162, Note_on_c, 0, 84, 0
1, 172190, Note_on_c, 0, 64, 0
1, 172202, Note_on_c, 0, 96, 0
1, 172224, Note_on_c, 9, 59, 0
1, 172332, Note_on_c, 1, 39, 65
1, 172340, Note_on_c, 9, 59, 56
1, 172344, Note_on_c, 1, 43, 0
1, 172364, Note_on_c, 9, 59, 0
1, 172428, Note_on_c, 1, 39, 0
1, 172428, Note_on_c, 9, 59, 67
1, 172452, Note_on_c, 9, 44, 47
1, 172456, Note_on_c, 1, 41, 67
1, 172478, Note_on_c, 0, 97, 57
1, 172486, Control_c, 0, 64, 0
1, 172486, Note_on_c, 0, 65, 53
1, 172506, Note_on_c, 0, 62, 50
1, 172514, Note_on_c, 0, 60, 46
1, 172518, Note_on_c, 0, 85, 30
1, 172530, Note_on_c, 0, 94, 42
1, 172534, Note_on_c, 0, 91, 41
1, 172592, Note_on_c, 9, 44, 0
1, 172654, Control_c, 0, 64, 127
1, 172692, Note_on_c, 9, 59, 0
1, 172712, Note_on_c, 1, 29, 80
1, 172714, Note_on_c, 0, 91, 0
1, 172726, Note_on_c, 0, 94, 0
1, 172730, Note_on_c, 0, 65, 0
1, 172790, Note_on_c, 0, 85, 0
1, 172800, Note_on_c, 1, 29, 0
1, 172824, Note_on_c, 0, 97, 0
1, 172824, Note_on_c, 9, 59, 76
1, 172856, Note_on_c, 1, 29, 73
1, 173074, Control_c, 0, 64, 0
1, 173078, Note_on_c, 0, 98, 66
1, 173080, Note_on_c, 9, 59, 0
1, 173102, Note_on_c, 0, 53, 46
1, 173106, Note_on_c, 0, 86, 43
1, 173106, Note_on_c, 0, 94, 43
1, 173138, Note_on_c, 0, 91, 41
1, 173168, Note_on_c, 1, 29, 0
1, 173212, Note_on_c, 9, 59, 62
1, 173214, Control_c, 0, 64, 127
1, 173216, Note_on_c, 1, 29, 101
1, 173224, Note_on_c, 9, 53, 67
1, 173230, Note_on_c, 0, 91, 0
1, 173240, Note_on_c, 9, 44, 45
1, 173270, Note_on_c, 0, 60, 0
1, 173286, Note_on_c, 0, 62, 0
1, 173298, Note_on_c, 0, 86, 0
1, 173310, Note_on_c, 0, 98, 0
1, 173332, Note_on_c, 9, 44, 0
1, 173338, Note_on_c, 0, 94, 0
1, 173392, Note_on_c, 9, 59, 0
1, 173428, Note_on_c, 9, 53, 0
1, 173484, Note_on_c, 9, 59, 65
1, 173674, Note_on_c, 0, 99, 58
1, 173682, Note_on_c, 0, 87, 54
1, 173682, Note_on_c, 0, 65, 49
1, 173694, Note_on_c, 0, 94, 57
1, 173694, Note_on_c, 0, 62, 42
1, 173698, Control_c, 0, 64, 0
1, 173722, Note_on_c, 0, 60, 41
1, 173744, Note_on_c, 9, 59, 0
1, 173852, Note_on_c, 9, 59, 69
1, 173852, Note_on_c, 9, 53, 76
1, 173886, Control_c, 0, 64, 127
1, 173946, Note_on_c, 0, 60, 0
1, 174014, Note_on_c, 0, 65, 0
1, 174020, Note_on_c, 1, 41, 0
1, 174030, Note_on_c, 0, 94, 0
1, 174034, Note_on_c, 0, 62, 0
1, 174082, Note_on_c, 0, 87, 0
1, 174114, Note_on_c, 0, 99, 0
1, 174148, Note_on_c, 9, 59, 0
1, 174208, Note_on_c, 9, 53, 0
1, 174232, Note_on_c, 1, 41, 85
1, 174238, Control_c, 0, 64, 0
1, 174256, Note_on_c, 9, 59, 62
1, 174270, Note_on_c, 0, 65, 46
1, 174282, Note_on_c, 0, 100, 56
1, 174282, Note_on_c, 0, 58, 55
1, 174290, Note_on_c, 0, 94, 52
1, 174298, Note_on_c, 0, 63, 46
1, 174306, Note_on_c, 0, 88, 43
1, 174312, Note_on_c, 1, 41, 0
1, 174316, Note_on_c, 9, 59, 0
1, 174380, Note_on_c, 9, 44, 39
1, 174388, Note_on_c, 1, 41, 64
1, 174404, Note_on_c, 9, 53, 78
1, 174408, Note_on_c, 9, 59, 72
1, 174414, Control_c, 0, 64, 127
1, 174460, Note_on_c, 9, 44, 0
1, 174518, Note_on_c, 0, 88, 0
1, 174538, Note_on_c, 0, 58, 0
1, 174566, Note_on_c, 0, 94, 0
1, 174578, Note_on_c, 0, 100, 0
1, 174596, Note_on_c, 1, 41, 0
1, 174610, Note_on_c, 0, 63, 0
1, 174618, Note_on_c, 0, 65, 0
1, 174652, Note_on_c, 9, 59, 0
1, 174716, Note_on_c, 9, 53, 0
1, 174764, Note_on_c, 1, 41, 91
1, 174764, Note_on_c, 9, 59, 56
1, 174830, Note_on_c, 0, 65, 58
1, 174830, Note_on_c, 0, 101, 71
1, 174846, Note_on_c, 0, 89, 45
1, 174866, Note_on_c, 0, 96, 43
1, 174866, Control_c, 0, 64, 0
1, 174882, Note_on_c, 0, 62, 40
1, 174908, Note_on_c, 9, 59, 0
1, 175020, Note_on_c, 9, 59, 71
1, 175024, Note_on_c, 9, 53, 77
1, 175054, Control_c, 0, 64, 127
1, 175126, Note_on_c, 0, 62, 0
1, 175154, Note_on_c, 0, 65, 0
1, 175154, Note_on_c, 0, 89, 0
1, 175178, Note_on_c, 0, 96, 0
1, 175180, Note_on_c, 1, 29, 0
1, 175250, Note_on_c, 0, 101, 0
1, 175268, Note_on_c, 9, 59, 0
1, 175332, Note_on_c, 9, 53, 0
1, 175384, Note_on_c, 1, 29, 104
1, 175384, Note_on_c, 9, 59, 59
1, 175414, Control_c, 0, 64, 0
1, 175426, Note_on_c, 0, 103, 69
1, 175428, Note_on_c, 9, 59, 0
1, 175434, Note_on_c, 0, 65, 56
1, 175446, Note_on_c, 0, 98, 61
1, 175454, Note_on_c, 0, 62, 52
1, 175454, Note_on_c, 0, 91, 45
1, 175520, Note_on_c, 9, 44, 42
1, 175528, Note_on_c, 9, 59, 76
1, 175528, Note_on_c, 9, 53, 81
1, 175534, Control_c, 0, 64, 127
1, 175582, Note_on_c, 0, 65, 0
1, 175592, Note_on_c, 9, 44, 0
1, 175686, Note_on_c, 0, 103, 0
1, 175734, Note_on_c, 0, 91, 0
1, 175766, Note_on_c, 0, 53, 0
1, 175798, Note_on_c, 0, 98, 0
1, 175816, Note_on_c, 9, 59, 0
1, 175864, Note_on_c, 9, 53, 0
1, 175896, Note_on_c, 9, 59, 56
1, 175896, Note_on_c, 9, 44, 47
1, 175972, Note_on_c, 9, 44, 0
1, 175974, Note_on_c, 0, 53, 55
1, 175974, Control_c, 0, 64, 0
1, 175990, Note_on_c, 0, 104, 71
1, 175998, Note_on_c, 0, 92, 57
1, 176010, Note_on_c, 0, 98, 57
1, 176060, Note_on_c, 9, 59, 0
1, 176134, Note_on_c, 0, 53, 0
1, 176138, Control_c, 0, 64, 127
1, 176156, Note_on_c, 9, 59, 77
1, 176160, Note_on_c, 9, 53, 85
1, 176178, Note_on_c, 0, 62, 0
1, 176192, Note_on_c, 1, 41, 0
1, 176258, Note_on_c, 0, 98, 0
1, 176280, Note_on_c, 1, 41, 80
1, 176322, Note_on_c, 0, 104, 0
1, 176342, Note_on_c, 0, 92, 0
1, 176352, Note_on_c, 1, 29, 0
1, 176376, Note_on_c, 9, 59, 0
1, 176440, Note_on_c, 9, 53, 0
1, 176504, Note_on_c, 9, 59, 60
1, 176536, Note_on_c, 1, 32, 76
1, 176554, Note_on_c, 0, 66, 58
1, 176554, Note_on_c, 0, 56, 56
1, 176556, Note_on_c, 9, 59, 0
1, 176558, Note_on_c, 0, 105, 56
1, 176558, Note_on_c, 0, 98, 50
1, 176576, Note_on_c, 1, 32, 0
1, 176576, Note_on_c, 0, 93, 50
1, 176594, Note_on_c, 0, 101, 37
1, 176602, Note_on_c, 0, 62, 29
1, 176636, Note_on_c, 9, 59, 70
1, 176636, Note_on_c, 9, 53, 81
1, 176664, Note_on_c, 1, 33, 79
1, 176702, Note_on_c, 0, 101, 0
1, 176702, Note_on_c, 0, 105, 0
1, 176726, Note_on_c, 0, 98, 0
1, 176764, Note_on_c, 9, 59, 0
1, 176792, Note_on_c, 9, 53, 0
1, 176794, Note_on_c, 0, 93, 0
1, 176810, Note_on_c, 0, 66, 0
1, 176892, Note_on_c, 9, 59, 64
1, 176938, Note_on_c, 0, 56, 0
1, 176942, Note_on_c, 0, 62, 0
1, 176976, Note_on_c, 1, 41, 0
1, 176976, Note_on_c, 9, 59, 0
1, 177008, Note_on_c, 1, 33, 0
1, 177036, Note_on_c, 9, 59, 64
1, 177040, Note_on_c, 1, 34, 77
1, 177054, Note_on_c, 0, 65, 65
1, 177062, Control_c, 0, 64, 0
1, 177074, Note_on_c, 0, 96, 82
1, 177074, Note_on_c, 0, 62, 46
1, 177098, Note_on_c, 0, 55, 40
1, 177110, Note_on_c, 0, 60, 42
1, 177170, Note_on_c, 0, 65, 0
1, 177178, Note_on_c, 0, 60, 0
1, 177192, Note_on_c, 9, 59, 0
1, 177222, Note_on_c, 0, 96, 0
1, 177274, Note_on_c, 0, 55, 0
1, 177312, Note_on_c, 9, 44, 37
1, 177342, Note_on_c, 0, 93, 69
1, 177356, Note_on_c, 9, 44, 0
1, 177434, Note_on_c, 0, 62, 0
1, 177440, Note_on_c, 9, 59, 53
1, 177450, Note_on_c, 0, 93, 0
1, 177472, Note_on_c, 9, 59, 0
1, 177472, Note_on_c, 9, 44, 32
1, 177514, Note_on_c, 0, 89, 48
1, 177650, Note_on_c, 0, 89, 0
1, 177652, Note_on_c, 9, 44, 0
1, 177734, Note_on_c, 0, 65, 41
1, 177738, Note_on_c, 0, 86, 37
1, 177746, Note_on_c, 0, 62, 45
1, 177786, Note_on_c, 0, 86, 0
1, 177786, Note_on_c, 0, 65, 0
1, 177798, Note_on_c, 0, 62, 0
1, 177812, Note_on_c, 1, 36, 70
1, 177820, Note_on_c, 1, 34, 0
1, 177836, Note_on_c, 9, 59, 50
1, 177866, Note_on_c, 0, 96, 80
1, 177980, Note_on_c, 9, 59, 0
1, 178030, Note_on_c, 0, 96, 0
1, 178080, Note_on_c, 1, 37, 69
1, 178096, Note_on_c, 1, 36, 0
1, 178096, Note_on_c, 9, 59, 52
1, 178106, Note_on_c, 0, 93, 56
1, 178128, Note_on_c, 9, 59, 0
1, 178142, Note_on_c, 0, 93, 0
1, 178216, Note_on_c, 1, 37, 0
1, 178220, Note_on_c, 1, 38, 75
1, 178228, Note_on_c, 9, 59, 45
1, 178258, Note_on_c, 0, 94, 72
1, 178430, Note_on_c, 0, 94, 0
1, 178440, Note_on_c, 9, 59, 0
1, 178490, Note_on_c, 0, 90, 66
1, 178570, Note_on_c, 0, 90, 0
1, 178572, Note_on_c, 1, 42, 84
1, 178612, Note_on_c, 9, 59, 46
1, 178670, Note_on_c, 0, 86, 52
1, 178726, Note_on_c, 0, 86, 0
1, 178820, Note_on_c, 9, 59, 0
1, 178840, Note_on_c, 9, 44, 31
1, 178852, Note_on_c, 9, 35, 51
1, 178888, Note_on_c, 9, 35, 0
1, 178888, Note_on_c, 9, 44, 0
1, 178930, Note_on_c, 0, 63, 46
1, 178950, Note_on_c, 0, 54, 36
1, 178972, Note_on_c, 9, 46, 45
1, 178986, Note_on_c, 0, 63, 0
1, 178988, Note_on_c, 9, 59, 40
1, 179022, Note_on_c, 0, 54, 0
1, 179044, Note_on_c, 9, 46, 0
1, 179092, Note_on_c, 9, 59, 0
1, 179132, Note_on_c, 1, 42, 0
1, 179152, Note_on_c, 1, 45, 76
1, 179240, Note_on_c, 9, 59, 51
1, 179256, Note_on_c, 1, 45, 0
1, 179268, Note_on_c, 1, 42, 48
1, 179296, Note_on_c, 9, 59, 0
1, 179316, Note_on_c, 1, 42, 0
1, 179364, Note_on_c, 1, 38, 0
1, 179366, Note_on_c, 0, 93, 83
1, 179368, Note_on_c, 9, 59, 62
1, 179376, Note_on_c, 1, 46, 83
1, 179390, Note_on_c, 0, 81, 67
1, 179514, Note_on_c, 0, 81, 0
1, 179526, Note_on_c, 0, 93, 0
1, 179618, Note_on_c, 0, 89, 37
1, 179656, Note_on_c, 9, 59, 0
1, 179666, Note_on_c, 0, 89, 0
1, 179696, Note_on_c, 1, 46, 0
1, 179748, Note_on_c, 1, 39, 72
1, 179754, Note_on_c, 0, 93, 83
1, 179772, Note_on_c, 9, 59, 47
1, 179786, Note_on_c, 0, 81, 66
1, 179878, Note_on_c, 0, 81, 0
1, 179894, Note_on_c, 0, 93, 0
1, 179980, Note_on_c, 9, 44, 64
1, 179994, Note_on_c, 0, 89, 71
1, 179996, Note_on_c, 9, 59, 0
1, 180006, Note_on_c, 0, 62, 51
1, 180012, Note_on_c, 9, 44, 0
1, 180026, Note_on_c, 0, 60, 49
1, 180058, Note_on_c, 0, 62, 0
1, 180066, Note_on_c, 0, 60, 0
1, 180102, Note_on_c, 0, 89, 0
1, 180108, Note_on_c, 1, 39, 0
1, 180112, Note_on_c, 1, 32, 76
1, 180124, Note_on_c, 9, 46, 53
1, 180160, Note_on_c, 9, 59, 49
1, 180170, Note_on_c, 0, 86, 26
1, 180312, Note_on_c, 9, 59, 0
1, 180354, Note_on_c, 0, 86, 0
1, 180374, Note_on_c, 0, 81, 52
1, 180388, Note_on_c, 9, 35, 58
1, 180420, Note_on_c, 9, 35, 0
1, 180450, Note_on_c, 0, 81, 0
1, 180478, Note_on_c, 0, 63, 51
1, 180488, Note_on_c, 1, 32, 0
1, 180504, Note_on_c, 1, 31, 84
1, 180506, Note_on_c, 0, 59, 52
1, 180536, Note_on_c, 0, 53, 31
1, 180536, Note_on_c, 0, 91, 82
1, 180536, Note_on_c, 9, 59, 51
1, 180562, Note_on_c, 0, 63, 0
1, 180602, Note_on_c, 0, 53, 0
1, 180682, Note_on_c, 0, 91, 0
1, 180712, Note_on_c, 9, 59, 0
1, 180760, Note_on_c, 9, 35, 50
1, 180766, Note_on_c, 0, 87, 45
1, 180796, Note_on_c, 9, 59, 45
1, 180800, Note_on_c, 9, 35, 0
1, 180818, Note_on_c, 0, 87, 0
1, 180828, Note_on_c, 9, 59, 0
1, 180836, Note_on_c, 9, 46, 0
1, 180874, Note_on_c, 0, 59, 0
1, 180900, Note_on_c, 1, 38, 80
1, 180900, Note_on_c, 9, 59, 53
1, 180904, Note_on_c, 9, 35, 33
1, 180914, Note_on_c, 0, 91, 96
1, 180948, Note_on_c, 1, 31, 0
1, 181028, Note_on_c, 9, 35, 0
1, 181078, Note_on_c, 0, 91, 0
1, 181118, Note_on_c, 0, 63, 60
1, 181134, Note_on_c, 0, 59, 53
1, 181150, Note_on_c, 0, 87, 70
1, 181168, Note_on_c, 9, 59, 0
1, 181174, Note_on_c, 0, 59, 0
1, 181214, Note_on_c, 0, 63, 0
1, 181256, Note_on_c, 1, 38, 0
1, 181276, Note_on_c, 1, 35, 82
1, 181296, Note_on_c, 9, 59, 68
1, 181300, Note_on_c, 9, 44, 36
1, 181342, Note_on_c, 0, 87, 0
1, 181500, Note_on_c, 9, 59, 0
1, 181536, Note_on_c, 9, 44, 0
1, 181538, Note_on_c, 0, 67, 45
1, 181542, Note_on_c, 0, 58, 42
1, 181550, Note_on_c, 0, 63, 43
1, 181550, Note_on_c, 0, 79, 55
1, 181562, Note_on_c, 0, 62, 42
1, 181584, Note_on_c, 9, 59, 46
1, 181586, Note_on_c, 0, 67, 0
1, 181590, Note_on_c, 0, 79, 0
1, 181612, Note_on_c, 9, 59, 0
1, 181646, Note_on_c, 0, 58, 0
1, 181648, Note_on_c, 1, 35, 0
1, 181660, Note_on_c, 1, 36, 75
1, 181672, Note_on_c, 9, 59, 66
1, 181674, Note_on_c, 0, 63, 0
1, 181674, Note_on_c, 0, 89, 83
1, 181690, Note_on_c, 0, 62, 0
1, 181846, Note_on_c, 0, 89, 0
1, 181894, Note_on_c, 0, 63, 39
1, 181906, Note_on_c, 0, 86, 49
1, 181926, Note_on_c, 0, 62, 39
1, 181938, Note_on_c, 0, 63, 0
1, 181942, Note_on_c, 0, 86, 0
1, 181952, Note_on_c, 1, 34, 58
1, 181956, Note_on_c, 9, 59, 0
1, 181982, Note_on_c, 0, 62, 0
1, 182020, Note_on_c, 1, 36, 0
1, 182036, Note_on_c, 1, 43, 74
1, 182058, Note_on_c, 0, 87, 85
1, 182064, Note_on_c, 9, 59, 67
1, 182080, Note_on_c, 1, 34, 0
1, 182226, Note_on_c, 0, 87, 0
1, 182278, Note_on_c, 0, 86, 69
1, 182304, Note_on_c, 1, 38, 53
1, 182310, Note_on_c, 0, 67, 40
1, 182318, Note_on_c, 0, 63, 46
1, 182328, Note_on_c, 9, 59, 0
1, 182330, Note_on_c, 0, 58, 36
1, 182366, Note_on_c, 0, 67, 0
1, 182392, Note_on_c, 1, 38, 0
1, 182414, Note_on_c, 0, 86, 0
1, 182414, Note_on_c, 0, 63, 0
1, 182424, Note_on_c, 1, 51, 76
1, 182430, Note_on_c, 0, 58, 0
1, 182430, Note_on_c, 0, 82, 55
1, 182440, Note_on_c, 1, 43, 0
1, 182452, Note_on_c, 9, 59, 60
1, 182674, Note_on_c, 0, 82, 0
1, 182686, Note_on_c, 0, 79, 46
1, 182720, Note_on_c, 9, 59, 0
1, 182728, Note_on_c, 1, 42, 76
1, 182734, Note_on_c, 0, 79, 0
1, 182752, Note_on_c, 1, 42, 0
1, 182772, Note_on_c, 1, 51, 0
1, 182812, Note_on_c, 1, 43, 80
1, 182834, Note_on_c, 0, 87, 76
1, 182844, Note_on_c, 9, 59, 56
1, 182962, Note_on_c, 0, 87, 0
1, 183088, Note_on_c, 9, 59, 0
1, 183092, Note_on_c, 9, 35, 33
1, 183128, Note_on_c, 9, 35, 0
1, 183142, Note_on_c, 0, 63, 68
1, 183158, Note_on_c, 0, 59, 57
1, 183174, Note_on_c, 0, 53, 49
1, 183192, Note_on_c, 9, 59, 39
1, 183208, Note_on_c, 1, 38, 83
1, 183212, Note_on_c, 1, 43, 0
1, 183408, Note_on_c, 9, 59, 0
1, 183468, Note_on_c, 9, 35, 40
1, 183504, Note_on_c, 9, 35, 0
1, 183548, Note_on_c, 1, 38, 0
1, 183568, Note_on_c, 1, 35, 80
1, 183582, Note_on_c, 0, 59, 0
1, 183592, Note_on_c, 9, 59, 48
1, 183646, Note_on_c, 0, 53, 0
1, 183722, Note_on_c, 0, 63, 0
1, 183792, Note_on_c, 9, 59, 0
1, 183844, Note_on_c, 9, 59, 42
1, 183874, Note_on_c, 0, 62, 61
1, 183884, Note_on_c, 9, 59, 0
1, 183886, Note_on_c, 0, 51, 54
1, 183886, Note_on_c, 0, 57, 57
1, 183912, Note_on_c, 1, 35, 0
1, 183944, Note_on_c, 1, 36, 75
1, 183960, Note_on_c, 9, 59, 55
1, 184226, Note_on_c, 0, 86, 107
1, 184244, Note_on_c, 9, 59, 0
1, 184256, Note_on_c, 1, 34, 50
1, 184314, Note_on_c, 0, 62, 0
1, 184328, Note_on_c, 1, 36, 0
1, 184328, Note_on_c, 1, 43, 101
1, 184334, Note_on_c, 0, 51, 0
1, 184364, Note_on_c, 9, 59, 56
1, 184382, Note_on_c, 0, 85, 63
1, 184390, Note_on_c, 0, 86, 0
1, 184404, Note_on_c, 1, 34, 0
1, 184490, Note_on_c, 0, 57, 0
1, 184510, Note_on_c, 0, 84, 41
1, 184548, Note_on_c, 9, 59, 0
1, 184570, Note_on_c, 0, 85, 0
1, 184608, Note_on_c, 9, 59, 40
1, 184626, Note_on_c, 0, 83, 58
1, 184628, Note_on_c, 1, 36, 46
1, 184634, Note_on_c, 0, 84, 0
1, 184648, Note_on_c, 9, 59, 0
1, 184650, Note_on_c, 0, 57, 49
1, 184668, Note_on_c, 1, 36, 0
1, 184686, Note_on_c, 0, 62, 22
1, 184692, Note_on_c, 1, 43, 0
1, 184694, Note_on_c, 0, 83, 0
1, 184694, Note_on_c, 0, 51, 39
1, 184708, Note_on_c, 1, 42, 78
1, 184728, Note_on_c, 9, 59, 62
1, 184746, Note_on_c, 0, 62, 0
1, 184754, Note_on_c, 0, 89, 111
1, 184870, Note_on_c, 0, 51, 0
1, 184906, Note_on_c, 0, 57, 0
1, 184954, Note_on_c, 0, 89, 0
1, 184970, Note_on_c, 0, 86, 63
1, 185004, Note_on_c, 9, 59, 0
1, 185012, Note_on_c, 9, 44, 61
1, 185054, Note_on_c, 0, 86, 0
1, 185076, Note_on_c, 9, 44, 0
1, 185080, Note_on_c, 1, 42, 0
1, 185092, Note_on_c, 1, 41, 81
1, 185112, Note_on_c, 9, 59, 76
1, 185126, Note_on_c, 0, 87, 85
1, 185270, Note_on_c, 0, 87, 0
1, 185346, Note_on_c, 0, 86, 72
1, 185368, Note_on_c, 9, 59, 0
1, 185392, Note_on_c, 9, 35, 49
1, 185440, Note_on_c, 9, 35, 0
1, 185462, Note_on_c, 0, 86, 0
1, 185484, Note_on_c, 1, 36, 76
1, 185492, Note_on_c, 9, 59, 61
1, 185498, Note_on_c, 0, 84, 52
1, 185686, Note_on_c, 0, 84, 0
1, 185696, Note_on_c, 9, 59, 0
1, 185710, Note_on_c, 0, 83, 75
1, 185734, Note_on_c, 0, 63, 52
1, 185746, Note_on_c, 0, 65, 43
1, 185758, Note_on_c, 0, 57, 45
1, 185790, Note_on_c, 0, 65, 0
1, 185798, Note_on_c, 0, 83, 0
1, 185800, Note_on_c, 1, 41, 0
1, 185826, Note_on_c, 0, 63, 0
1, 185858, Note_on_c, 0, 57, 0
1, 185872, Note_on_c, 1, 37, 86
1, 185884, Note_on_c, 9, 59, 65
1, 185890, Note_on_c, 0, 82, 39
1, 185920, Note_on_c, 9, 44, 56
1, 185980, Note_on_c, 1, 36, 0
1, 186066, Note_on_c, 0, 82, 0
1, 186100, Note_on_c, 9, 59, 0
1, 186108, Note_on_c, 9, 44, 0
1, 186176, Note_on_c, 9, 59, 48
1, 186208, Note_on_c, 9, 59, 0
1, 186234, Note_on_c, 0, 50, 35
1, 186246, Note_on_c, 0, 60, 27
1, 186250, Note_on_c, 0, 57, 38
1, 186250, Note_on_c, 0, 53, 42
1, 186266, Note_on_c, 0, 80, 56
1, 186272, Note_on_c, 1, 38, 84
1, 186284, Note_on_c, 1, 37, 0
1, 186284, Note_on_c, 9, 59, 51
1, 186346, Note_on_c, 0, 60, 0
1, 186398, Note_on_c, 0, 80, 0
1, 186486, Note_on_c, 0, 81, 68
1, 186540, Note_on_c, 9, 37, 47
1, 186574, Note_on_c, 0, 57, 0
1, 186576, Note_on_c, 9, 59, 0
1, 186576, Note_on_c, 9, 37, 0
1, 186590, Note_on_c, 0, 81, 0
1, 186610, Note_on_c, 0, 50, 0
1, 186614, Note_on_c, 0, 53, 0
1, 186652, Note_on_c, 1, 38, 0
1, 186652, Note_on_c, 1, 33, 65
1, 186674, Note_on_c, 0, 77, 41
1, 186708, Note_on_c, 9, 59, 34
1, 186822, Note_on_c, 0, 77, 0
1, 186856, Note_on_c, 9, 59, 0
1, 186874, Note_on_c, 0, 74, 70
1, 186904, Note_on_c, 9, 37, 66
1, 186964, Note_on_c, 9, 37, 0
1, 186974, Note_on_c, 0, 74, 0
1, 187024, Note_on_c, 1, 33, 0
1, 187032, Note_on_c, 1, 38, 79
1, 187048, Note_on_c, 9, 44, 46
1, 187054, Note_on_c, 0, 70, 48
1, 187068, Note_on_c, 9, 59, 55
1, 187136, Note_on_c, 9, 44, 0
1, 187218, Note_on_c, 0, 70, 0
1, 187272, Note_on_c, 9, 59, 0
1, 187288, Note_on_c, 1, 31, 69
1, 187292, Note_on_c, 9, 37, 65
1, 187310, Note_on_c, 0, 65, 39
1, 187312, Note_on_c, 1, 38, 0
1, 187340, Note_on_c, 9, 37, 0
1, 187360, Note_on_c, 1, 31, 0
1, 187362, Note_on_c, 0, 65, 0
1, 187404, Note_on_c, 1, 37, 80
1, 187448, Note_on_c, 9, 59, 56
1, 187620, Note_on_c, 9, 59, 0
1, 187688, Note_on_c, 9, 59, 56
1, 187716, Note_on_c, 9, 59, 0
1, 187794, Note_on_c, 0, 64, 42
1, 187794, Note_on_c, 0, 61, 58
1, 187808, Note_on_c, 9, 59, 54
1, 187812, Note_on_c, 1, 37, 0
1, 187816, Note_on_c, 1, 40, 80
1, 187818, Note_on_c, 0, 58, 48
1, 187850, Note_on_c, 0, 64, 0
1, 187878, Note_on_c, 0, 55, 29
1, 187914, Note_on_c, 0, 61, 0
1, 187946, Note_on_c, 0, 55, 0
1, 187954, Note_on_c, 0, 58, 0
1, 188054, Note_on_c, 0, 60, 59
1, 188076, Note_on_c, 1, 37, 67
1, 188088, Note_on_c, 9, 59, 0
1, 188110, Note_on_c, 0, 60, 0
1, 188120, Note_on_c, 1, 40, 0
1, 188170, Note_on_c, 0, 61, 55
1, 188180, Note_on_c, 1, 37, 0
1, 188184, Note_on_c, 1, 46, 83
1, 188188, Note_on_c, 9, 59, 70
1, 188224, Note_on_c, 9, 44, 30
1, 188278, Note_on_c, 0, 61, 0
1, 188290, Note_on_c, 0, 63, 48
1, 188326, Note_on_c, 0, 63, 0
1, 188348, Note_on_c, 9, 44, 0
1, 188374, Note_on_c, 0, 64, 66
1, 188380, Note_on_c, 9, 59, 0
1, 188414, Note_on_c, 0, 64, 0
1, 188464, Note_on_c, 9, 59, 39
1, 188478, Note_on_c, 0, 66, 54
1, 188484, Note_on_c, 1, 38, 58
1, 188504, Note_on_c, 9, 59, 0
1, 188504, Note_on_c, 1, 46, 0
1, 188518, Note_on_c, 0, 66, 0
1, 188536, Note_on_c, 1, 38, 0
1, 188568, Note_on_c, 9, 59, 66
1, 188572, Note_on_c, 1, 48, 76
1, 188578, Note_on_c, 0, 67, 70
1, 188686, Note_on_c, 0, 67, 0
1, 188794, Note_on_c, 0, 70, 57
1, 188836, Note_on_c, 9, 59, 0
1, 188858, Note_on_c, 0, 70, 0
1, 188886, Note_on_c, 0, 71, 46
1, 188956, Note_on_c, 1, 43, 74
1, 188960, Note_on_c, 9, 59, 71
1, 188972, Note_on_c, 1, 48, 0
1, 188978, Note_on_c, 0, 71, 0
1, 188994, Note_on_c, 0, 74, 81
1, 189050, Note_on_c, 0, 67, 36
1, 189090, Note_on_c, 0, 63, 32
1, 189106, Note_on_c, 0, 74, 0
1, 189110, Note_on_c, 0, 67, 0
1, 189142, Note_on_c, 0, 71, 43
1, 189162, Note_on_c, 0, 63, 0
1, 189176, Note_on_c, 9, 59, 0
1, 189200, Note_on_c, 9, 44, 43
1, 189242, Note_on_c, 0, 71, 0
1, 189244, Note_on_c, 9, 44, 0
1, 189246, Note_on_c, 0, 72, 49
1, 189328, Note_on_c, 1, 42, 70
1, 189340, Note_on_c, 1, 43, 0
1, 189344, Note_on_c, 9, 59, 60
1, 189344, Note_on_c, 9, 46, 39
1, 189354, Note_on_c, 0, 74, 57
1, 189362, Note_on_c, 0, 72, 0
1, 189406, Note_on_c, 0, 63, 42
1, 189438, Note_on_c, 0, 74, 0
1, 189450, Note_on_c, 0, 75, 49
1, 189470, Note_on_c, 0, 63, 0
1, 189476, Note_on_c, 9, 46, 0
1, 189494, Note_on_c, 0, 75, 0
1, 189550, Note_on_c, 0, 76, 50
1, 189556, Note_on_c, 9, 59, 0
1, 189590, Note_on_c, 0, 76, 0
1, 189672, Note_on_c, 1, 42, 0
1, 189704, Note_on_c, 1, 41, 67
1, 189716, Note_on_c, 9, 59, 64
1, 189874, Note_on_c, 0, 63, 53
1, 189878, Note_on_c, 0, 67, 39
1, 189902, Note_on_c, 0, 57, 46
1, 189948, Note_on_c, 9, 59, 0
1, 190076, Note_on_c, 1, 41, 0
1, 190076, Note_on_c, 1, 36, 76
1, 190096, Note_on_c, 9, 59, 60
1, 190266, Note_on_c, 0, 67, 0
1, 190326, Note_on_c, 0, 57, 0
1, 190344, Note_on_c, 9, 59, 0
1, 190360, Note_on_c, 9, 44, 41
1, 190386, Note_on_c, 0, 63, 0
1, 190400, Note_on_c, 9, 44, 0
1, 190444, Note_on_c, 1, 36, 0
1, 190466, Note_on_c, 0, 63, 66
1, 190468, Note_on_c, 1, 33, 76
1, 190470, Note_on_c, 0, 66, 69
1, 190482, Note_on_c, 0, 56, 55
1, 190490, Note_on_c, 0, 61, 48
1, 190492, Note_on_c, 9, 59, 73
1, 190728, Note_on_c, 9, 59, 0
1, 190770, Note_on_c, 0, 66, 0
1, 190786, Note_on_c, 0, 56, 0
1, 190790, Note_on_c, 0, 61, 0
1, 190790, Note_on_c, 0, 63, 0
1, 190840, Note_on_c, 1, 33, 0
1, 190848, Note_on_c, 1, 38, 77
1, 190862, Note_on_c, 0, 65, 50
1, 190888, Note_on_c, 9, 59, 39
1, 190898, Note_on_c, 0, 62, 49
1, 190906, Note_on_c, 0, 60, 47
1, 190954, Note_on_c, 0, 55, 46
1, 191030, Note_on_c, 0, 65, 0
1, 191032, Note_on_c, 9, 59, 0
1, 191146, Note_on_c, 0, 55, 0
1, 191166, Note_on_c, 0, 60, 0
1, 191182, Note_on_c, 0, 62, 0
1, 191208, Note_on_c, 1, 38, 0
1, 191248, Note_on_c, 1, 38, 77
1, 191250, Note_on_c, 0, 77, 85
1, 191256, Note_on_c, 9, 59, 60
1, 191258, Note_on_c, 0, 65, 72
1, 191358, Note_on_c, 0, 65, 0
1, 191394, Note_on_c, 0, 77, 0
1, 191496, Note_on_c, 9, 59, 0
1, 191530, Note_on_c, 0, 74, 61
1, 191530, Note_on_c, 0, 60, 39
1, 191578, Note_on_c, 0, 60, 0
1, 191610, Note_on_c, 0, 74, 0
1, 191628, Note_on_c, 1, 33, 80
1, 191640, Note_on_c, 1, 38, 0
1, 191644, Note_on_c, 9, 59, 60
1, 191662, Note_on_c, 0, 77, 72
1, 191674, Note_on_c, 0, 65, 60
1, 191762, Note_on_c, 0, 77, 0
1, 191774, Note_on_c, 0, 65, 0
1, 191836, Note_on_c, 9, 59, 0
1, 191902, Note_on_c, 0, 77, 56
1, 191902, Note_on_c, 0, 65, 42
1, 191954, Note_on_c, 0, 65, 0
1, 191954, Note_on_c, 0, 77, 0
1, 192000, Note_on_c, 1, 33, 0
1, 192020, Note_on_c, 1, 37, 78
1, 192024, Note_on_c, 9, 59, 51
1, 192058, Note_on_c, 0, 64, 54
1, 192066, Note_on_c, 0, 61, 50
1, 192074, Note_on_c, 0, 58, 48
1, 192082, Note_on_c, 0, 55, 43
1, 192086, Note_on_c, 0, 81, 81
1, 192102, Note_on_c, 0, 69, 58
1, 192230, Note_on_c, 0, 81, 0
1, 192238, Note_on_c, 0, 69, 0
1, 192244, Note_on_c, 9, 59, 0
1, 192286, Note_on_c, 0, 64, 0
1, 192294, Note_on_c, 0, 55, 0
1, 192296, Note_on_c, 9, 35, 55
1, 192298, Note_on_c, 0, 61, 0
1, 192322, Note_on_c, 0, 58, 0
1, 192344, Note_on_c, 9, 35, 0
1, 192350, Note_on_c, 0, 81, 64
1, 192358, Note_on_c, 0, 69, 58
1, 192382, Note_on_c, 0, 64, 39
1, 192398, Note_on_c, 0, 61, 36
1, 192404, Note_on_c, 1, 40, 86
1, 192418, Note_on_c, 0, 58, 23
1, 192424, Note_on_c, 1, 37, 0
1, 192424, Note_on_c, 9, 44, 40
1, 192432, Note_on_c, 9, 59, 25
1, 192438, Note_on_c, 0, 64, 0
1, 192454, Note_on_c, 0, 81, 0
1, 192454, Note_on_c, 0, 69, 0
1, 192458, Note_on_c, 0, 61, 0
1, 192484, Note_on_c, 9, 44, 0
1, 192486, Note_on_c, 0, 58, 0
1, 192624, Note_on_c, 9, 59, 0
1, 192668, Note_on_c, 1, 37, 67
1, 192680, Note_on_c, 9, 35, 37
1, 192686, Note_on_c, 0, 81, 79
1, 192698, Note_on_c, 0, 69, 70
1, 192710, Note_on_c, 0, 64, 54
1, 192718, Note_on_c, 0, 55, 45
1, 192720, Note_on_c, 9, 35, 0
1, 192722, Note_on_c, 0, 58, 39
1, 192722, Note_on_c, 0, 61, 41
1, 192724, Note_on_c, 1, 40, 0
1, 192762, Note_on_c, 0, 64, 0
1, 192776, Note_on_c, 1, 46, 77
1, 192786, Note_on_c, 0, 58, 0
1, 192786, Note_on_c, 0, 61, 0
1, 192786, Note_on_c, 0, 55, 0
1, 192792, Note_on_c, 1, 37, 0
1, 192792, Note_on_c, 9, 59, 47
1, 192802, Note_on_c, 0, 69, 0
1, 192818, Control_c, 0, 64, 127
1, 192874, Note_on_c, 0, 81, 0
1, 192952, Note_on_c, 9, 59, 0
1, 193016, Note_on_c, 1, 46, 0
1, 193036, Note_on_c, 1, 47, 82
1, 193042, Note_on_c, 0, 64, 31
1, 193046, Note_on_c, 0, 75, 44
1, 193064, Note_on_c, 9, 59, 64
1, 193084, Note_on_c, 0, 78, 24
1, 193084, Note_on_c, 1, 39, 28
1, 193094, Note_on_c, 0, 64, 0
1, 193096, Note_on_c, 9, 59, 0
1, 193120, Note_on_c, 1, 39, 0
1, 193124, Note_on_c, 1, 47, 0
1, 193130, Note_on_c, 0, 75, 0
1, 193134, Note_on_c, 0, 78, 0
1, 193150, Control_c, 0, 64, 0
1, 193164, Note_on_c, 1, 48, 91
1, 193180, Note_on_c, 9, 59, 61
1, 193206, Note_on_c, 0, 82, 72
1, 193226, Note_on_c, 0, 70, 52
1, 193230, Note_on_c, 0, 67, 48
1, 193230, Note_on_c, 0, 75, 52
1, 193238, Note_on_c, 0, 65, 48
1, 193250, Note_on_c, 0, 58, 42
1, 193258, Note_on_c, 0, 63, 43
1, 193282, Note_on_c, 0, 65, 0
1, 193286, Note_on_c, 0, 60, 33
1, 193294, Note_on_c, 0, 59, 35
1, 193322, Note_on_c, 0, 70, 0
1, 193354, Note_on_c, 0, 67, 0
1, 193358, Note_on_c, 0, 59, 0
1, 193358, Note_on_c, 0, 75, 0
1, 193362, Note_on_c, 0, 82, 0
1, 193366, Note_on_c, 0, 60, 0
1, 193366, Note_on_c, 0, 58, 0
1, 193426, Note_on_c, 0, 63, 0
1, 193462, Note_on_c, 0, 82, 61
1, 193484, Note_on_c, 9, 59, 0
1, 193490, Note_on_c, 0, 70, 48
1, 193494, Note_on_c, 0, 63, 38
1, 193498, Note_on_c, 0, 75, 40
1, 193498, Control_c, 0, 64, 127
1, 193510, Note_on_c, 0, 58, 39
1, 193534, Note_on_c, 0, 70, 0
1, 193546, Note_on_c, 0, 75, 0
1, 193548, Note_on_c, 1, 43, 82
1, 193556, Note_on_c, 9, 59, 61
1, 193564, Note_on_c, 1, 48, 0
1, 193566, Note_on_c, 0, 58, 0
1, 193606, Note_on_c, 0, 82, 0
1, 193622, Note_on_c, 0, 63, 0
1, 193742, Control_c, 0, 64, 0
1, 193756, Note_on_c, 9, 59, 0
1, 193790, Note_on_c, 0, 87, 84
1, 193806, Note_on_c, 0, 75, 72
1, 193826, Note_on_c, 0, 82, 61
1, 193826, Note_on_c, 0, 67, 68
1, 193826, Note_on_c, 0, 58, 61
1, 193826, Note_on_c, 0, 63, 61
1, 193832, Note_on_c, 9, 59, 48
1, 193866, Note_on_c, 0, 82, 0
1, 193868, Note_on_c, 9, 59, 0
1, 193870, Note_on_c, 0, 75, 0
1, 193926, Note_on_c, 0, 67, 0
1, 193926, Control_c, 0, 64, 127
1, 193936, Note_on_c, 9, 59, 58
1, 193948, Note_on_c, 1, 43, 0
1, 193948, Note_on_c, 1, 39, 67
1, 193950, Note_on_c, 0, 87, 0
1, 194010, Note_on_c, 0, 63, 0
1, 194126, Note_on_c, 0, 63, 45
1, 194134, Note_on_c, 0, 87, 64
1, 194148, Note_on_c, 9, 59, 0
1, 194162, Note_on_c, 0, 75, 31
1, 194166, Note_on_c, 0, 82, 48
1, 194196, Note_on_c, 9, 35, 43
1, 194206, Note_on_c, 0, 82, 0
1, 194208, Note_on_c, 1, 37, 53
1, 194210, Note_on_c, 0, 58, 0
1, 194212, Note_on_c, 9, 44, 46
1, 194214, Note_on_c, 0, 75, 0
1, 194232, Note_on_c, 9, 35, 0
1, 194246, Note_on_c, 0, 87, 0
1, 194260, Note_on_c, 9, 44, 0
1, 194270, Note_on_c, 0, 63, 0
1, 194296, Note_on_c, 1, 39, 0
1, 194324, Note_on_c, 9, 59, 41
1, 194332, Note_on_c, 1, 37, 0
1, 194332, Note_on_c, 1, 41, 79
1, 194362, Note_on_c, 0, 92, 81
1, 194362, Note_on_c, 0, 80, 75
1, 194370, Control_c, 0, 64, 0
1, 194370, Note_on_c, 0, 66, 75
1, 194370, Note_on_c, 0, 63, 51
1, 194378, Note_on_c, 0, 87, 58
1, 194394, Note_on_c, 0, 57, 44
1, 194418, Note_on_c, 0, 87, 0
1, 194418, Note_on_c, 0, 61, 43
1, 194490, Note_on_c, 0, 80, 0
1, 194510, Note_on_c, 0, 92, 0
1, 194520, Note_on_c, 9, 59, 0
1, 194576, Note_on_c, 9, 44, 45
1, 194600, Note_on_c, 1, 36, 75
1, 194608, Note_on_c, 9, 44, 0
1, 194608, Note_on_c, 9, 35, 42
1, 194614, Control_c, 0, 64, 127
1, 194632, Note_on_c, 1, 41, 0
1, 194634, Note_on_c, 0, 92, 68
1, 194644, Note_on_c, 9, 35, 0
1, 194644, Note_on_c, 0, 80, 54
1, 194650, Note_on_c, 0, 87, 57
1, 194690, Note_on_c, 0, 80, 0
1, 194696, Note_on_c, 1, 36, 0
1, 194710, Note_on_c, 0, 87, 0
1, 194712, Note_on_c, 9, 59, 54
1, 194720, Note_on_c, 1, 33, 78
1, 194730, Note_on_c, 0, 66, 0
1, 194742, Note_on_c, 0, 57, 0
1, 194754, Note_on_c, 0, 92, 0
1, 194762, Note_on_c, 0, 61, 0
1, 194798, Note_on_c, 0, 63, 0
1, 194882, Control_c, 0, 64, 0
1, 194926, Note_on_c, 0, 97, 86
1, 194932, Note_on_c, 9, 59, 0
1, 194934, Note_on_c, 0, 85, 84
1, 194938, Note_on_c, 0, 66, 81
1, 194946, Note_on_c, 0, 92, 70
1, 194946, Note_on_c, 0, 57, 60
1, 194966, Note_on_c, 0, 61, 46
1, 194966, Note_on_c, 0, 63, 60
1, 194986, Note_on_c, 0, 92, 0
1, 194992, Note_on_c, 9, 35, 37
1, 195032, Note_on_c, 9, 35, 0
1, 195034, Note_on_c, 0, 85, 0
1, 195046, Control_c, 0, 64, 127
1, 195058, Note_on_c, 0, 66, 0
1, 195100, Note_on_c, 9, 59, 51
1, 195126, Note_on_c, 0, 97, 0
1, 195130, Note_on_c, 0, 61, 0
1, 195130, Note_on_c, 0, 57, 0
1, 195142, Note_on_c, 0, 63, 0
1, 195238, Note_on_c, 0, 66, 57
1, 195248, Note_on_c, 1, 33, 0
1, 195250, Note_on_c, 0, 97, 61
1, 195250, Note_on_c, 0, 63, 45
1, 195264, Note_on_c, 1, 41, 75
1, 195278, Note_on_c, 0, 61, 45
1, 195282, Note_on_c, 0, 85, 40
1, 195288, Note_on_c, 9, 59, 0
1, 195294, Note_on_c, 0, 92, 46
1, 195314, Note_on_c, 0, 66, 0
1, 195330, Note_on_c, 0, 61, 0
1, 195330, Note_on_c, 0, 85, 0
1, 195338, Note_on_c, 0, 92, 0
1, 195350, Note_on_c, 0, 97, 0
1, 195352, Note_on_c, 9, 35, 64
1, 195352, Note_on_c, 9, 44, 47
1, 195364, Note_on_c, 1, 36, 76
1, 195376, Note_on_c, 9, 35, 0
1, 195376, Note_on_c, 1, 41, 0
1, 195386, Note_on_c, 0, 63, 0
1, 195388, Note_on_c, 9, 44, 0
1, 195424, Note_on_c, 1, 36, 0
1, 195474, Note_on_c, 9, 49, 21
1, 195476, Note_on_c, 0, 100, 85
1, 195476, Note_on_c, 0, 88, 74
1, 195484, Note_on_c, 0, 65, 72
1, 195484, Note_on_c, 9, 44, 36
1, 195488, Note_on_c, 9, 59, 41
1, 195490, Note_on_c, 0, 60, 64
1, 195490, Note_on_c, 0, 62, 65
1, 195492, Note_on_c, 0, 89, 66
1, 195492, Note_on_c, 1, 34, 75
1, 195506, Control_c, 0, 64, 0
1, 195518, Note_on_c, 0, 65, 0
1, 195518, Note_on_c, 0, 55, 59
1, 195518, Note_on_c, 0, 99, 38
1, 195534, Note_on_c, 0, 89, 0
1, 195546, Note_on_c, 0, 58, 32
1, 195580, Note_on_c, 9, 44, 0
1, 195646, Note_on_c, 0, 100, 0
1, 195654, Note_on_c, 0, 99, 0
1, 195658, Note_on_c, 0, 88, 0
1, 195666, Note_on_c, 9, 49, 0
1, 195726, Control_c, 0, 64, 127
1, 195732, Note_on_c, 9, 59, 0
1, 195786, Note_on_c, 0, 89, 71
1, 195790, Note_on_c, 0, 101, 68
1, 195826, Note_on_c, 0, 89, 0
1, 195846, Note_on_c, 0, 60, 0
1, 195850, Note_on_c, 0, 58, 0
1, 195852, Note_on_c, 1, 34, 0
1, 195868, Note_on_c, 0, 55, 0
1, 195868, Note_on_c, 9, 59, 50
1, 195872, Note_on_c, 1, 36, 76
1, 195878, Note_on_c, 0, 101, 0
1, 195902, Note_on_c, 0, 62, 0
1, 195994, Control_c, 0, 64, 0
1, 196058, Note_on_c, 0, 99, 85
1, 196072, Note_on_c, 9, 59, 0
1, 196074, Note_on_c, 0, 62, 71
1, 196074, Note_on_c, 0, 103, 75
1, 196074, Note_on_c, 0, 105, 69
1, 196074, Note_on_c, 0, 65, 80
1, 196082, Note_on_c, 0, 55, 63
1, 196082, Note_on_c, 0, 60, 63
1, 196086, Note_on_c, 0, 91, 67
1, 196094, Note_on_c, 0, 99, 0
1, 196094, Note_on_c, 0, 93, 57
1, 196106, Note_on_c, 0, 98, 59
1, 196128, Note_on_c, 1, 36, 0
1, 196134, Note_on_c, 0, 93, 0
1, 196136, Note_on_c, 1, 37, 76
1, 196136, Note_on_c, 9, 59, 46
1, 196154, Note_on_c, 0, 98, 0
1, 196162, Note_on_c, 0, 105, 0
1, 196166, Control_c, 0, 64, 127
1, 196168, Note_on_c, 9, 59, 0
1, 196174, Note_on_c, 0, 91, 0
1, 196178, Note_on_c, 0, 65, 0
1, 196198, Note_on_c, 0, 103, 0
1, 196220, Note_on_c, 1, 37, 0
1, 196248, Note_on_c, 9, 59, 51
1, 196268, Note_on_c, 1, 38, 75
1, 196306, Note_on_c, 0, 62, 0
1, 196346, Note_on_c, 0, 55, 0
1, 196358, Note_on_c, 0, 60, 0
1, 196438, Note_on_c, 0, 105, 41
1, 196442, Note_on_c, 0, 104, 48
1, 196466, Note_on_c, 0, 102, 31
1, 196490, Note_on_c, 0, 104, 0
1, 196490, Note_on_c, 0, 105, 0
1, 196500, Note_on_c, 9, 59, 0
1, 196514, Note_on_c, 0, 102, 0
1, 196528, Note_on_c, 1, 37, 58
1, 196622, Control_c, 0, 64, 0
1, 196628, Note_on_c, 1, 37, 0
1, 196634, Note_on_c, 0, 97, 86
1, 196642, Note_on_c, 0, 66, 82
1, 196648, Note_on_c, 1, 50, 93
1, 196650, Note_on_c, 0, 62, 66
1, 196650, Note_on_c, 0, 56, 68
1, 196650, Note_on_c, 0, 108, 72
1, 196652, Note_on_c, 1, 38, 0
1, 196694, Note_on_c, 0, 103, 32
1, 196806, Note_on_c, 0, 103, 0
1, 196904, Note_on_c, 9, 59, 59
1, 196932, Note_on_c, 9, 59, 0
1, 196938, Note_on_c, 0, 108, 0
1, 197012, Note_on_c, 1, 42, 65
1, 197024, Note_on_c, 9, 59, 55
1, 197054, Note_on_c, 0, 66, 0
1, 197066, Note_on_c, 0, 56, 0
1, 197094, Note_on_c, 0, 62, 0
1, 197118, Note_on_c, 0, 97, 0
1, 197274, Note_on_c, 0, 56, 57
1, 197278, Note_on_c, 0, 66, 67
1, 197298, Note_on_c, 0, 62, 55
1, 197300, Note_on_c, 1, 50, 0
1, 197318, Control_c, 0, 64, 127
1, 197328, Note_on_c, 9, 59, 0
1, 197396, Note_on_c, 9, 44, 42
1, 197408, Note_on_c, 1, 42, 0
1, 197408, Note_on_c, 1, 45, 79
1, 197420, Note_on_c, 9, 59, 56
1, 197540, Note_on_c, 9, 44, 0
1, 197640, Note_on_c, 9, 59, 0
1, 197666, Note_on_c, 0, 66, 0
1, 197668, Note_on_c, 1, 42, 66
1, 197670, Note_on_c, 0, 62, 0
1, 197676, Note_on_c, 1, 45, 0
1, 197678, Note_on_c, 0, 56, 0
1, 197756, Note_on_c, 1, 42, 0
1, 197788, Note_on_c, 9, 59, 65
1, 197792, Note_on_c, 1, 43, 70
1, 197810, Note_on_c, 0, 65, 57
1, 197812, Note_on_c, 9, 44, 46
1, 197814, Control_c, 0, 64, 0
1, 197822, Note_on_c, 0, 62, 48
1, 197854, Note_on_c, 0, 60, 48
1, 197854, Note_on_c, 0, 55, 41
1, 197988, Note_on_c, 9, 44, 0
1, 198104, Note_on_c, 9, 59, 0
1, 198160, Note_on_c, 1, 43, 0
1, 198160, Note_on_c, 1, 38, 80
1, 198180, Note_on_c, 9, 59, 47
1, 198180, Note_on_c, 9, 53, 67
1, 198206, Note_on_c, 0, 96, 72
1, 198214, Note_on_c, 0, 65, 0
1, 198214, Note_on_c, 0, 95, 75
1, 198246, Note_on_c, 0, 83, 43
1, 198250, Note_on_c, 0, 95, 0
1, 198250, Note_on_c, 0, 60, 0
1, 198250, Note_on_c, 0, 84, 39
1, 198266, Note_on_c, 0, 62, 0
1, 198302, Note_on_c, 0, 84, 0
1, 198318, Note_on_c, 0, 83, 0
1, 198342, Note_on_c, 0, 96, 0
1, 198442, Note_on_c, 0, 62, 42
1, 198472, Note_on_c, 9, 59, 0
1, 198474, Note_on_c, 0, 92, 49
1, 198516, Note_on_c, 1, 38, 0
1, 198524, Note_on_c, 9, 53, 0
1, 198534, Note_on_c, 0, 62, 0
1, 198536, Note_on_c, 1, 34, 67
1, 198550, Note_on_c, 0, 92, 0
1, 198552, Note_on_c, 9, 59, 54
1, 198560, Note_on_c, 9, 44, 43
1, 198626, Note_on_c, 0, 96, 82
1, 198638, Note_on_c, 0, 55, 0
1, 198654, Note_on_c, 0, 84, 68
1, 198724, Note_on_c, 9, 44, 0
1, 198822, Note_on_c, 0, 96, 0
1, 198868, Note_on_c, 9, 59, 0
1, 198916, Note_on_c, 1, 34, 0
1, 198926, Note_on_c, 0, 84, 0
1, 198936, Note_on_c, 1, 31, 83
1, 198956, Note_on_c, 9, 59, 53
1, 198956, Note_on_c, 9, 53, 67
1, 198994, Note_on_c, 0, 59, 54
1, 198994, Note_on_c, 0, 64, 47
1, 198994, Note_on_c, 0, 94, 68
1, 199002, Note_on_c, 0, 53, 46
1, 199178, Note_on_c, 0, 64, 0
1, 199252, Note_on_c, 9, 59, 0
1, 199254, Note_on_c, 0, 94, 0
1, 199300, Note_on_c, 1, 31, 0
1, 199310, Note_on_c, 0, 53, 0
1, 199312, Note_on_c, 9, 53, 0
1, 199316, Note_on_c, 1, 35, 84
1, 199332, Note_on_c, 9, 59, 49
1, 199338, Note_on_c, 0, 59, 0
1, 199508, Note_on_c, 9, 59, 0
1, 199568, Note_on_c, 9, 59, 68
1, 199572, Note_on_c, 9, 53, 69
1, 199598, Note_on_c, 0, 63, 68
1, 199602, Note_on_c, 0, 59, 63
1, 199610, Note_on_c, 0, 53, 54
1, 199646, Note_on_c, 0, 53, 0
1, 199650, Note_on_c, 0, 59, 0
1, 199654, Note_on_c, 0, 63, 0
1, 199664, Note_on_c, 9, 59, 0
1, 199688, Note_on_c, 1, 35, 0
1, 199696, Note_on_c, 1, 38, 82
1, 199716, Note_on_c, 9, 44, 62
1, 199732, Note_on_c, 9, 59, 52
1, 199780, Note_on_c, 9, 44, 0
1, 199946, Note_on_c, 0, 93, 96
1, 199952, Note_on_c, 9, 59, 0
1, 199960, Note_on_c, 9, 35, 64
1, 199976, Note_on_c, 9, 53, 0
1, 199980, Note_on_c, 1, 35, 63
1, 199996, Note_on_c, 9, 35, 0
1, 200004, Note_on_c, 1, 38, 0
1, 200076, Note_on_c, 1, 35, 0
1, 200076, Note_on_c, 9, 46, 53
1, 200082, Note_on_c, 0, 93, 0
1, 200096, Note_on_c, 1, 36, 70
1, 200112, Note_on_c, 9, 59, 43
1, 200138, Note_on_c, 0, 91, 76
1, 200322, Note_on_c, 0, 91, 0
1, 200344, Note_on_c, 9, 59, 0
1, 200366, Note_on_c, 0, 62, 48
1, 200370, Note_on_c, 0, 51, 50
1, 200390, Note_on_c, 0, 57, 52
1, 200410, Note_on_c, 0, 60, 27
1, 200426, Note_on_c, 0, 62, 0
1, 200458, Note_on_c, 0, 60, 0
1, 200476, Note_on_c, 9, 59, 53
1, 200480, Note_on_c, 1, 43, 60
1, 200486, Note_on_c, 0, 89, 82
1, 200510, Note_on_c, 0, 51, 0
1, 200520, Note_on_c, 1, 36, 0
1, 200542, Note_on_c, 0, 57, 0
1, 200662, Note_on_c, 0, 89, 0
1, 200684, Note_on_c, 9, 59, 0
1, 200696, Note_on_c, 9, 46, 0
1, 200722, Note_on_c, 0, 87, 79
1, 200724, Note_on_c, 1, 36, 58
1, 200766, Note_on_c, 0, 57, 58
1, 200806, Note_on_c, 0, 57, 0
1, 200832, Note_on_c, 1, 36, 0
1, 200836, Note_on_c, 1, 43, 0
1, 200844, Note_on_c, 1, 46, 69
1, 200856, Note_on_c, 9, 59, 60
1, 200868, Note_on_c, 9, 44, 45
1, 200890, Note_on_c, 0, 87, 0
1, 200944, Note_on_c, 9, 44, 0
1, 201072, Note_on_c, 9, 59, 0
1, 201074, Note_on_c, 0, 86, 79
1, 201124, Note_on_c, 1, 36, 46
1, 201134, Note_on_c, 0, 63, 63
1, 201146, Note_on_c, 0, 59, 55
1, 201154, Note_on_c, 0, 53, 47
1, 201156, Note_on_c, 9, 59, 44
1, 201164, Note_on_c, 1, 36, 0
1, 201192, Note_on_c, 9, 59, 0
1, 201210, Note_on_c, 0, 86, 0
1, 201224, Note_on_c, 1, 46, 0
1, 201244, Note_on_c, 1, 43, 81
1, 201248, Note_on_c, 9, 59, 64
1, 201250, Note_on_c, 0, 63, 0
1, 201282, Note_on_c, 0, 53, 0
1, 201298, Note_on_c, 0, 89, 83
1, 201470, Note_on_c, 0, 89, 0
1, 201540, Note_on_c, 9, 59, 0
1, 201586, Note_on_c, 0, 59, 0
1, 201612, Note_on_c, 1, 43, 0
1, 201614, Note_on_c, 0, 87, 69
1, 201628, Note_on_c, 1, 31, 88
1, 201632, Note_on_c, 9, 59, 80
1, 201638, Note_on_c, 0, 90, 39
1, 201640, Note_on_c, 9, 44, 36
1, 201702, Note_on_c, 0, 90, 0
1, 201716, Note_on_c, 9, 44, 0
1, 201726, Note_on_c, 0, 87, 0
1, 201852, Note_on_c, 9, 59, 0
1, 201858, Note_on_c, 0, 63, 57
1, 201870, Note_on_c, 0, 59, 49
1, 201882, Note_on_c, 0, 83, 53
1, 201914, Note_on_c, 0, 59, 0
1, 201922, Note_on_c, 0, 63, 0
1, 201928, Note_on_c, 9, 59, 36
1, 201968, Note_on_c, 9, 59, 0
1, 201984, Note_on_c, 1, 31, 0
1, 202008, Note_on_c, 1, 35, 88
1, 202008, Note_on_c, 9, 59, 55
1, 202032, Note_on_c, 9, 59, 33
1, 202078, Note_on_c, 0, 83, 0
1, 202220, Note_on_c, 9, 59, 0
1, 202234, Note_on_c, 0, 58, 46
1, 202246, Note_on_c, 0, 67, 41
1, 202254, Note_on_c, 0, 79, 48
1, 202262, Note_on_c, 0, 62, 39
1, 202262, Note_on_c, 0, 63, 42
1, 202262, Note_on_c, 0, 81, 39
1, 202288, Note_on_c, 9, 59, 0
1, 202314, Note_on_c, 0, 81, 0
1, 202330, Note_on_c, 0, 67, 0
1, 202334, Note_on_c, 0, 79, 0
1, 202356, Note_on_c, 1, 35, 0
1, 202392, Note_on_c, 9, 59, 92
1, 202396, Note_on_c, 1, 36, 85
1, 202442, Note_on_c, 0, 58, 0
1, 202454, Note_on_c, 0, 63, 0
1, 202462, Note_on_c, 0, 77, 41
1, 202474, Note_on_c, 0, 62, 0
1, 202562, Note_on_c, 0, 77, 0
1, 202680, Note_on_c, 9, 59, 0
1, 202710, Note_on_c, 0, 63, 39
1, 202766, Note_on_c, 0, 63, 0
1, 202768, Note_on_c, 9, 59, 64
1, 202780, Note_on_c, 1, 51, 97
1, 202790, Note_on_c, 0, 75, 66
1, 202812, Note_on_c, 1, 36, 0
1, 202954, Note_on_c, 0, 75, 0
1, 202984, Note_on_c, 9, 59, 0
1, 203058, Note_on_c, 0, 67, 41
1, 203058, Note_on_c, 0, 72, 55
1, 203060, Note_on_c, 1, 36, 63
1, 203066, Note_on_c, 0, 58, 42
1, 203070, Note_on_c, 0, 63, 41
1, 203106, Note_on_c, 0, 72, 0
1, 203110, Note_on_c, 0, 67, 0
1, 203136, Note_on_c, 1, 51, 0
1, 203138, Note_on_c, 0, 58, 0
1, 203142, Note_on_c, 0, 63, 0
1, 203148, Note_on_c, 1, 36, 0
1, 203156, Note_on_c, 9, 59, 76
1, 203164, Note_on_c, 1, 50, 76
1, 203188, Note_on_c, 9, 59, 56
1, 203196, Note_on_c, 1, 51, 27
1, 203222, Note_on_c, 0, 74, 66
1, 203288, Note_on_c, 9, 59, 0
1, 203304, Note_on_c, 9, 59, 0
1, 203370, Note_on_c, 0, 74, 0
1, 203428, Note_on_c, 9, 59, 58
1, 203434, Note_on_c, 0, 63, 51
1, 203434, Note_on_c, 0, 75, 78
1, 203434, Note_on_c, 0, 67, 41
1, 203436, Note_on_c, 1, 41, 53
1, 203464, Note_on_c, 9, 59, 0
1, 203472, Note_on_c, 1, 41, 0
1, 203490, Note_on_c, 0, 67, 0
1, 203544, Note_on_c, 1, 51, 0
1, 203544, Note_on_c, 9, 59, 70
1, 203550, Note_on_c, 0, 63, 0
1, 203552, Note_on_c, 1, 50, 0
1, 203562, Note_on_c, 0, 75, 0
1, 203564, Note_on_c, 1, 48, 70
1, 203592, Note_on_c, 9, 59, 52
1, 203606, Note_on_c, 0, 77, 81
1, 203696, Note_on_c, 9, 59, 0
1, 203770, Note_on_c, 0, 77, 0
1, 203790, Note_on_c, 0, 63, 48
1, 203824, Note_on_c, 1, 40, 76
1, 203840, Note_on_c, 9, 59, 0
1, 203844, Note_on_c, 1, 48, 0
1, 203914, Note_on_c, 0, 63, 0
1, 203916, Note_on_c, 9, 53, 76
1, 203924, Note_on_c, 1, 40, 0
1, 203960, Note_on_c, 1, 41, 73
1, 203966, Note_on_c, 0, 77, 76
1, 204150, Note_on_c, 0, 63, 54
1, 204154, Note_on_c, 0, 77, 0
1, 204172, Note_on_c, 9, 59, 52
1, 204192, Note_on_c, 9, 53, 0
1, 204196, Note_on_c, 9, 44, 46
1, 204200, Note_on_c, 9, 59, 0
1, 204214, Note_on_c, 0, 74, 57
1, 204232, Note_on_c, 9, 44, 0
1, 204288, Note_on_c, 9, 59, 60
1, 204308, Note_on_c, 1, 41, 0
1, 204322, Note_on_c, 0, 63, 0
1, 204328, Note_on_c, 1, 39, 77
1, 204340, Note_on_c, 9, 44, 39
1, 204346, Note_on_c, 0, 74, 0
1, 204406, Note_on_c, 0, 75, 50
1, 204452, Note_on_c, 9, 44, 0
1, 204530, Note_on_c, 0, 75, 0
1, 204540, Note_on_c, 9, 59, 0
1, 204578, Note_on_c, 0, 77, 82
1, 204588, Note_on_c, 1, 37, 56
1, 204630, Note_on_c, 0, 56, 50
1, 204634, Note_on_c, 0, 63, 49
1, 204646, Note_on_c, 0, 67, 45
1, 204652, Note_on_c, 1, 39, 0
1, 204680, Note_on_c, 1, 37, 0
1, 204686, Note_on_c, 0, 60, 38
1, 204704, Note_on_c, 1, 38, 76
1, 204706, Note_on_c, 0, 77, 0
1, 204716, Note_on_c, 9, 59, 67
1, 204766, Note_on_c, 0, 80, 35
1, 204790, Note_on_c, 0, 79, 57
1, 204822, Note_on_c, 0, 80, 0
1, 204886, Note_on_c, 0, 67, 0
1, 204966, Note_on_c, 0, 79, 0
1, 204986, Note_on_c, 0, 56, 0
1, 204996, Note_on_c, 9, 59, 0
1, 205046, Note_on_c, 0, 77, 67
1, 205062, Note_on_c, 0, 63, 0
1, 205084, Note_on_c, 1, 38, 0
1, 205084, Note_on_c, 1, 34, 87
1, 205094, Note_on_c, 0, 60, 0
1, 205108, Note_on_c, 9, 59, 52
1, 205118, Note_on_c, 0, 77, 0
1, 205218, Note_on_c, 0, 79, 51
1, 205284, Note_on_c, 9, 59, 0
1, 205334, Note_on_c, 0, 79, 0
1, 205368, Note_on_c, 9, 59, 60
1, 205386, Note_on_c, 0, 63, 48
1, 205398, Note_on_c, 0, 80, 73
1, 205400, Note_on_c, 9, 59, 0
1, 205420, Note_on_c, 1, 34, 0
1, 205460, Note_on_c, 1, 36, 82
1, 205460, Note_on_c, 9, 46, 41
1, 205480, Note_on_c, 9, 59, 65
1, 205530, Note_on_c, 0, 63, 0
1, 205558, Note_on_c, 0, 80, 0
1, 205566, Note_on_c, 0, 82, 68
1, 205672, Note_on_c, 1, 36, 0
1, 205708, Note_on_c, 1, 37, 78
1, 205720, Note_on_c, 9, 59, 0
1, 205750, Note_on_c, 0, 82, 0
1, 205778, Note_on_c, 0, 79, 50
1, 205802, Note_on_c, 0, 62, 31
1, 205812, Note_on_c, 1, 37, 0
1, 205838, Note_on_c, 0, 79, 0
1, 205840, Note_on_c, 1, 38, 81
1, 205852, Note_on_c, 9, 59, 83
1, 205866, Note_on_c, 0, 62, 0
1, 205946, Note_on_c, 0, 80, 66
1, 206058, Note_on_c, 0, 80, 0
1, 206096, Note_on_c, 9, 59, 0
1, 206096, Note_on_c, 1, 34, 45
1, 206134, Note_on_c, 0, 82, 71
1, 206144, Note_on_c, 1, 37, 40
1, 206188, Note_on_c, 1, 37, 0
1, 206192, Note_on_c, 9, 46, 0
1, 206208, Note_on_c, 1, 34, 0
1, 206214, Note_on_c, 0, 66, 60
1, 206224, Note_on_c, 1, 38, 0
1, 206228, Note_on_c, 1, 46, 73
1, 206234, Note_on_c, 0, 62, 39
1, 206240, Note_on_c, 0, 56, 39
1, 206240, Note_on_c, 9, 59, 61
1, 206266, Note_on_c, 0, 82, 0
1, 206306, Note_on_c, 0, 84, 73
1, 206362, Note_on_c, 0, 66, 0
1, 206392, Note_on_c, 9, 59, 0
1, 206430, Note_on_c, 0, 84, 0
1, 206442, Note_on_c, 0, 60, 22
1, 206508, Note_on_c, 9, 59, 55
1, 206536, Note_on_c, 9, 59, 0
1, 206550, Note_on_c, 0, 80, 52
1, 206600, Note_on_c, 1, 38, 79
1, 206612, Note_on_c, 0, 80, 0
1, 206612, Note_on_c, 9, 59, 62
1, 206636, Note_on_c, 1, 46, 0
1, 206642, Note_on_c, 0, 60, 0
1, 206652, Note_on_c, 9, 44, 52
1, 206662, Note_on_c, 0, 82, 48
1, 206666, Note_on_c, 0, 56, 0
1, 206716, Note_on_c, 9, 44, 0
1, 206726, Note_on_c, 0, 62, 0
1, 206810, Note_on_c, 0, 82, 0
1, 206852, Note_on_c, 9, 59, 0
1, 206876, Note_on_c, 1, 37, 63
1, 206886, Note_on_c, 0, 84, 59
1, 206924, Note_on_c, 1, 38, 0
1, 206938, Note_on_c, 0, 62, 54
1, 206958, Note_on_c, 0, 65, 56
1, 206978, Note_on_c, 0, 60, 46
1, 206994, Note_on_c, 0, 65, 0
1, 207000, Note_on_c, 1, 39, 86
1, 207006, Note_on_c, 0, 84, 0
1, 207008, Note_on_c, 1, 37, 0
1, 207012, Note_on_c, 9, 59, 90
1, 207016, Note_on_c, 9, 44, 45
1, 207030, Note_on_c, 0, 60, 0
1, 207062, Note_on_c, 0, 86, 82
1, 207084, Note_on_c, 9, 44, 0
1, 207202, Note_on_c, 0, 86, 0
1, 207214, Note_on_c, 0, 62, 0
1, 207276, Note_on_c, 9, 59, 0
1, 207306, Note_on_c, 0, 83, 50
1, 207344, Note_on_c, 1, 37, 19
1, 207354, Note_on_c, 0, 83, 0
1, 207384, Note_on_c, 1, 46, 90
1, 207384, Note_on_c, 9, 59, 51
1, 207422, Note_on_c, 0, 84, 61
1, 207424, Note_on_c, 1, 37, 0
1, 207448, Note_on_c, 1, 39, 0
1, 207572, Note_on_c, 9, 59, 0
1, 207578, Note_on_c, 0, 84, 0
1, 207652, Note_on_c, 0, 62, 51
1, 207652, Note_on_c, 9, 59, 53
1, 207662, Note_on_c, 0, 86, 67
1, 207670, Note_on_c, 0, 65, 40
1, 207688, Note_on_c, 9, 59, 0
1, 207690, Note_on_c, 0, 60, 43
1, 207722, Note_on_c, 0, 65, 0
1, 207750, Note_on_c, 0, 86, 0
1, 207750, Note_on_c, 0, 60, 0
1, 207764, Note_on_c, 1, 39, 76
1, 207772, Note_on_c, 9, 59, 67
1, 207780, Note_on_c, 9, 44, 47
1, 207786, Note_on_c, 0, 62, 0
1, 207822, Note_on_c, 0, 87, 56
1, 207896, Note_on_c, 9, 44, 0
1, 207960, Note_on_c, 1, 39, 0
1, 207974, Note_on_c, 0, 87, 0
1, 208028, Note_on_c, 1, 39, 67
1, 208044, Note_on_c, 9, 59, 0
1, 208062, Note_on_c, 0, 84, 42
1, 208092, Note_on_c, 1, 46, 0
1, 208138, Note_on_c, 0, 84, 0
1, 208152, Note_on_c, 9, 59, 79
1, 208156, Note_on_c, 1, 39, 0
1, 208168, Note_on_c, 1, 40, 97
1, 208202, Note_on_c, 0, 86, 49
1, 208354, Note_on_c, 0, 86, 0
1, 208356, Note_on_c, 9, 59, 0
1, 208426, Note_on_c, 0, 87, 77
1, 208428, Note_on_c, 9, 59, 48
1, 208436, Note_on_c, 1, 39, 56
1, 208442, Note_on_c, 0, 61, 54
1, 208442, Note_on_c, 0, 64, 59
1, 208460, Note_on_c, 9, 59, 0
1, 208470, Note_on_c, 0, 58, 41
1, 208470, Note_on_c, 0, 55, 36
1, 208486, Note_on_c, 0, 64, 0
1, 208512, Note_on_c, 9, 59, 70
1, 208522, Note_on_c, 0, 55, 0
1, 208530, Note_on_c, 0, 58, 0
1, 208552, Note_on_c, 0, 87, 0
1, 208552, Note_on_c, 1, 46, 89
1, 208556, Note_on_c, 1, 39, 0
1, 208566, Note_on_c, 0, 61, 0
1, 208614, Note_on_c, 0, 88, 68
1, 208730, Note_on_c, 0, 88, 0
1, 208792, Note_on_c, 9, 59, 0
1, 208810, Note_on_c, 0, 90, 80
1, 208816, Note_on_c, 1, 40, 0
1, 208822, Note_on_c, 0, 61, 62
1, 208838, Note_on_c, 0, 58, 45
1, 208840, Note_on_c, 1, 39, 78
1, 208842, Note_on_c, 0, 64, 41
1, 208846, Note_on_c, 0, 55, 42
1, 208886, Note_on_c, 0, 58, 0
1, 208890, Note_on_c, 0, 55, 0
1, 208898, Note_on_c, 0, 64, 0
1, 208912, Note_on_c, 1, 46, 0
1, 208932, Note_on_c, 0, 90, 0
1, 208932, Note_on_c, 9, 59, 80
1, 208932, Note_on_c, 9, 44, 42
1, 208936, Note_on_c, 1, 39, 0
1, 208952, Note_on_c, 1, 40, 72
1, 208958, Note_on_c, 0, 61, 0
1, 208978, Note_on_c, 0, 91, 72
1, 208980, Note_on_c, 9, 44, 0
1, 209102, Note_on_c, 0, 91, 0
1, 209104, Note_on_c, 9, 59, 0
1, 209190, Note_on_c, 0, 93, 81
1, 209200, Note_on_c, 1, 40, 0
1, 209204, Note_on_c, 9, 59, 49
1, 209208, Note_on_c, 1, 41, 113
1, 209236, Note_on_c, 9, 59, 0
1, 209282, Note_on_c, 0, 65, 50
1, 209304, Note_on_c, 9, 59, 63
1, 209306, Note_on_c, 0, 93, 0
1, 209318, Note_on_c, 0, 62, 49
1, 209322, Note_on_c, 0, 60, 48
1, 209328, Note_on_c, 9, 44, 38
1, 209380, Note_on_c, 9, 44, 0
1, 209390, Note_on_c, 0, 94, 72
1, 209486, Note_on_c, 0, 65, 0
1, 209546, Note_on_c, 0, 94, 0
1, 209548, Note_on_c, 9, 59, 0
1, 209594, Note_on_c, 0, 95, 69
1, 209696, Note_on_c, 9, 59, 61
1, 209700, Note_on_c, 9, 53, 67
1, 209718, Note_on_c, 0, 95, 0
1, 209770, Note_on_c, 0, 96, 90
1, 209922, Note_on_c, 0, 96, 0
1, 209952, Note_on_c, 9, 59, 0
1, 209974, Note_on_c, 0, 89, 76
1, 210018, Note_on_c, 0, 53, 41
1, 210024, Note_on_c, 9, 53, 0
1, 210072, Note_on_c, 9, 46, 43
1, 210076, Note_on_c, 9, 59, 53
1, 210092, Note_on_c, 1, 29, 88
1, 210146, Note_on_c, 0, 89, 0
1, 210172, Note_on_c, 9, 59, 0
1, 210212, Note_on_c, 9, 46, 0
1, 210290, Note_on_c, 0, 89, 78
1, 210324, Note_on_c, 9, 59, 72
1, 210332, Note_on_c, 9, 53, 76
1, 210376, Note_on_c, 1, 29, 0
1, 210406, Note_on_c, 0, 89, 0
1, 210414, Note_on_c, 0, 60, 0
1, 210438, Note_on_c, 0, 62, 0
1, 210476, Note_on_c, 1, 29, 99
1, 210494, Note_on_c, 0, 89, 78
1, 210620, Note_on_c, 9, 59, 0
1, 210666, Note_on_c, 0, 89, 0
1, 210668, Note_on_c, 9, 53, 0
1, 210744, Note_on_c, 9, 59, 54
1, 210780, Note_on_c, 9, 59, 0
1, 210830, Note_on_c, 0, 89, 82
1, 210838, Note_on_c, 0, 58, 56
1, 210842, Note_on_c, 0, 65, 54
1, 210842, Note_on_c, 0, 63, 49
1, 210900, Note_on_c, 1, 41, 0
1, 210900, Note_on_c, 9, 53, 78
1, 210904, Note_on_c, 9, 59, 74
1, 210998, Note_on_c, 0, 89, 0
1, 211106, Note_on_c, 0, 89, 69
1, 211124, Note_on_c, 9, 59, 0
1, 211196, Note_on_c, 9, 53, 0
1, 211230, Note_on_c, 0, 89, 0
1, 211244, Note_on_c, 9, 44, 30
1, 211248, Note_on_c, 1, 41, 107
1, 211260, Note_on_c, 9, 59, 47
1, 211280, Note_on_c, 9, 53, 26
1, 211312, Note_on_c, 9, 44, 0
1, 211324, Note_on_c, 9, 53, 0
1, 211344, Note_on_c, 9, 59, 0
1, 211348, Note_on_c, 1, 41, 0
1, 211462, Note_on_c, 0, 89, 78
1, 211492, Note_on_c, 9, 59, 81
1, 211496, Note_on_c, 9, 53, 74
1, 211546, Note_on_c, 0, 65, 0
1, 211550, Note_on_c, 0, 58, 0
1, 211562, Note_on_c, 0, 89, 0
1, 211566, Note_on_c, 0, 63, 0
1, 211596, Note_on_c, 9, 44, 46
1, 211604, Note_on_c, 1, 41, 114
1, 211648, Note_on_c, 9, 44, 0
1, 211672, Note_on_c, 9, 59, 0
1, 211674, Note_on_c, 0, 65, 54
1, 211674, Note_on_c, 0, 63, 60
1, 211682, Note_on_c, 0, 89, 86
1, 211694, Note_on_c, 0, 60, 66
1, 211728, Note_on_c, 9, 53, 0
1, 211880, Note_on_c, 9, 59, 43
1, 211890, Note_on_c, 0, 89, 0
1, 211916, Note_on_c, 9, 59, 0
1, 211988, Note_on_c, 9, 59, 54
1, 212018, Note_on_c, 0, 89, 68
1, 212024, Note_on_c, 9, 53, 70
1, 212142, Note_on_c, 0, 60, 0
1, 212158, Note_on_c, 0, 89, 0
1, 212170, Note_on_c, 0, 65, 0
1, 212180, Note_on_c, 9, 59, 0
1, 212192, Note_on_c, 9, 53, 0
1, 212214, Note_on_c, 0, 63, 0
1, 212282, Note_on_c, 0, 89, 81
1, 212282, Note_on_c, 0, 65, 59
1, 212282, Note_on_c, 0, 63, 59
1, 212314, Note_on_c, 0, 59, 57
1, 212380, Note_on_c, 9, 46, 45
1, 212388, Note_on_c, 9, 59, 64
1, 212396, Note_on_c, 9, 53, 57
1, 212470, Note_on_c, 0, 89, 0
1, 212476, Note_on_c, 9, 53, 0
1, 212492, Note_on_c, 1, 29, 0
1, 212504, Note_on_c, 9, 59, 0
1, 212558, Note_on_c, 0, 59, 0
1, 212594, Note_on_c, 0, 65, 0
1, 212628, Note_on_c, 0, 63, 0
1, 212628, Note_on_c, 0, 89, 75
1, 212628, Note_on_c, 1, 29, 92
1, 212628, Note_on_c, 9, 59, 83
1, 212628, Note_on_c, 9, 53, 78
1, 212716, Note_on_c, 9, 53, 0
1, 212720, Note_on_c, 1, 29, 0
1, 212746, Note_on_c, 0, 89, 0
1, 212752, Note_on_c, 9, 59, 0
1, 212772, Note_on_c, 1, 29, 88
1, 212850, Note_on_c, 0, 58, 60
1, 212850, Note_on_c, 0, 65, 65
1, 212858, Note_on_c, 0, 89, 83
1, 212858, Note_on_c, 0, 63, 62
1, 212904, Note_on_c, 9, 46, 0
1, 213012, Note_on_c, 9, 59, 89
1, 213020, Note_on_c, 9, 53, 85
1, 213058, Note_on_c, 0, 89, 0
1, 213178, Note_on_c, 0, 65, 0
1, 213182, Note_on_c, 0, 63, 0
1, 213182, Note_on_c, 0, 89, 72
1, 213192, Note_on_c, 1, 41, 0
1, 213202, Note_on_c, 0, 58, 0
1, 213306, Note_on_c, 0, 89, 0
1, 213316, Note_on_c, 9, 59, 0
1, 213324, Note_on_c, 9, 53, 0
1, 213392, Note_on_c, 0, 63, 57
1, 213392, Note_on_c, 9, 59, 64
1, 213398, Note_on_c, 0, 58, 49
1, 213406, Note_on_c, 0, 65, 52
1, 213426, Note_on_c, 0, 89, 88
1, 213434, Control_c, 0, 64, 127
1, 213472, Note_on_c, 9, 59, 0
1, 213514, Note_on_c, 0, 65, 0
1, 213538, Note_on_c, 0, 89, 0
1, 213546, Note_on_c, 0, 58, 0
1, 213548, Note_on_c, 9, 59, 40
1, 213548, Note_on_c, 9, 44, 27
1, 213560, Note_on_c, 1, 41, 61
1, 213570, Note_on_c, 0, 63, 0
1, 213588, Note_on_c, 9, 59, 0
1, 213604, Note_on_c, 9, 44, 0
1, 213644, Note_on_c, 1, 41, 0
1, 213656, Note_on_c, 1, 29, 0
1, 213762, Note_on_c, 0, 89, 82
1, 213780, Note_on_c, 9, 35, 70
1, 213792, Note_on_c, 1, 35, 83
1, 213856, Note_on_c, 9, 35, 0
1, 213858, Note_on_c, 0, 89, 0
1, 213892, Note_on_c, 1, 35, 0
1, 213924, Note_on_c, 9, 59, 73
1, 213928, Note_on_c, 1, 34, 76
1, 213954, Control_c, 0, 64, 0
1, 213974, Note_on_c, 0, 89, 92
1, 213978, Note_on_c, 0, 84, 90
1, 213978, Note_on_c, 0, 62, 74
1, 213978, Note_on_c, 0, 65, 83
1, 213978, Note_on_c, 0, 60, 33
1, 213978, Note_on_c, 0, 77, 85
1, 214014, Note_on_c, 0, 79, 55
1, 214054, Note_on_c, 0, 79, 0
1, 214190, Control_c, 0, 64, 127
1, 214204, Note_on_c, 9, 59, 0
1, 214286, Note_on_c, 0, 65, 0
1, 214308, Note_on_c, 9, 59, 58
1, 214318, Note_on_c, 0, 60, 0
1, 214350, Note_on_c, 0, 62, 0
1, 214374, Note_on_c, 0, 77, 0
1, 214374, Note_on_c, 0, 84, 0
1, 214378, Note_on_c, 0, 89, 0
1, 214394, Note_on_c, 0, 53, 0
1, 214468, Note_on_c, 9, 59, 0
1, 214538, Note_on_c, 0, 89, 85
1, 214542, Note_on_c, 0, 84, 89
1, 214546, Note_on_c, 0, 62, 72
1, 214554, Note_on_c, 0, 77, 83
1, 214558, Note_on_c, 0, 53, 40
1, 214566, Note_on_c, 0, 60, 42
1, 214598, Note_on_c, 0, 64, 37
1, 214598, Note_on_c, 0, 59, 36
1, 214654, Note_on_c, 0, 64, 0
1, 214666, Note_on_c, 0, 59, 0
1, 214668, Note_on_c, 1, 34, 0
1, 214678, Note_on_c, 0, 89, 0
1, 214684, Note_on_c, 1, 38, 68
1, 214684, Note_on_c, 9, 59, 76
1, 214684, Note_on_c, 9, 44, 43
1, 214690, Note_on_c, 0, 60, 0
1, 214710, Note_on_c, 0, 62, 0
1, 214744, Note_on_c, 9, 44, 0
1, 214750, Note_on_c, 0, 84, 0
1, 214774, Note_on_c, 0, 53, 0
1, 214790, Note_on_c, 0, 77, 0
1, 214856, Note_on_c, 9, 59, 0
1, 214956, Note_on_c, 9, 59, 60
1, 215004, Note_on_c, 1, 38, 0
1, 215032, Note_on_c, 9, 59, 0
1, 215068, Note_on_c, 1, 38, 80
1, 215080, Note_on_c, 9, 59, 75
1, 215126, Note_on_c, 0, 54, 75
1, 215130, Note_on_c, 0, 50, 78
1, 215134, Note_on_c, 0, 60, 83
1, 215254, Control_c, 0, 64, 0
1, 215384, Note_on_c, 9, 59, 0
1, 215452, Note_on_c, 9, 59, 62
1, 215468, Note_on_c, 1, 50, 111
1, 215550, Control_c, 0, 64, 127
1, 215598, Note_on_c, 0, 50, 0
1, 215606, Note_on_c, 0, 60, 0
1, 215628, Note_on_c, 9, 59, 0
1, 215634, Note_on_c, 0, 54, 0
1, 215686, Note_on_c, 0, 82, 85
1, 215702, Note_on_c, 0, 50, 66
1, 215702, Note_on_c, 0, 70, 92
1, 215710, Note_on_c, 0, 60, 70
1, 215710, Note_on_c, 0, 75, 86
1, 215714, Note_on_c, 0, 54, 72
1, 215756, Note_on_c, 9, 59, 55
1, 215764, Note_on_c, 1, 38, 0
1, 215780, Note_on_c, 9, 59, 0
1, 215834, Note_on_c, 0, 70, 0
1, 215844, Note_on_c, 0, 82, 0
1, 215844, Note_on_c, 9, 44, 55
1, 215850, Note_on_c, 0, 60, 0
1, 215860, Note_on_c, 9, 59, 76
1, 215908, Note_on_c, 9, 44, 0
1, 215910, Note_on_c, 0, 75, 0
1, 216018, Note_on_c, 0, 50, 0
1, 216042, Note_on_c, 0, 78, 58
1, 216042, Note_on_c, 0, 66, 72
1, 216046, Note_on_c, 0, 60, 58
1, 216100, Note_on_c, 1, 38, 73
1, 216106, Note_on_c, 0, 60, 0
1, 216126, Note_on_c, 0, 66, 0
1, 216134, Note_on_c, 0, 78, 0
1, 216136, Note_on_c, 9, 59, 0
1, 216142, Note_on_c, 0, 54, 0
1, 216164, Note_on_c, 1, 50, 0
1, 216188, Note_on_c, 1, 38, 0
1, 216220, Note_on_c, 9, 44, 49
1, 216232, Note_on_c, 1, 39, 76
1, 216236, Note_on_c, 9, 59, 77
1, 216278, Note_on_c, 0, 62, 75
1, 216278, Note_on_c, 0, 51, 70
1, 216278, Note_on_c, 0, 55, 56
1, 216278, Note_on_c, 0, 69, 81
1, 216278, Note_on_c, 0, 81, 82
1, 216278, Note_on_c, 0, 80, 58
1, 216278, Note_on_c, 0, 58, 67
1, 216290, Control_c, 0, 64, 0
1, 216290, Note_on_c, 0, 74, 74
1, 216290, Note_on_c, 0, 78, 48
1, 216308, Note_on_c, 9, 44, 0
1, 216326, Note_on_c, 0, 78, 0
1, 216346, Note_on_c, 0, 80, 0
1, 216468, Note_on_c, 9, 59, 0
1, 216480, Note_on_c, 1, 37, 58
1, 216498, Control_c, 0, 64, 127
1, 216588, Note_on_c, 1, 39, 0
1, 216600, Note_on_c, 1, 46, 91
1, 216620, Note_on_c, 9, 59, 72
1, 216632, Note_on_c, 1, 37, 0
1, 216634, Note_on_c, 0, 81, 0
1, 216674, Note_on_c, 0, 62, 0
1, 216678, Note_on_c, 0, 51, 0
1, 216686, Note_on_c, 0, 55, 0
1, 216698, Note_on_c, 0, 74, 0
1, 216698, Note_on_c, 0, 69, 0
1, 216726, Note_on_c, 0, 58, 0
1, 216800, Note_on_c, 9, 59, 0
1, 216856, Note_on_c, 0, 51, 61
1, 216856, Note_on_c, 1, 39, 58
1, 216870, Note_on_c, 0, 58, 59
1, 216870, Note_on_c, 0, 74, 79
1, 216874, Note_on_c, 0, 62, 69
1, 216874, Note_on_c, 0, 79, 64
1, 216882, Note_on_c, 0, 67, 66
1, 216894, Note_on_c, 0, 78, 56
1, 216900, Note_on_c, 1, 39, 0
1, 216934, Note_on_c, 0, 78, 0
1, 216952, Note_on_c, 1, 46, 0
1, 216976, Note_on_c, 1, 42, 68
1, 217000, Note_on_c, 9, 47, 46
1, 217008, Note_on_c, 9, 59, 65
1, 217038, Note_on_c, 0, 74, 0
1, 217062, Note_on_c, 0, 51, 0
1, 217078, Note_on_c, 0, 62, 0
1, 217106, Note_on_c, 0, 58, 0
1, 217126, Note_on_c, 0, 67, 0
1, 217132, Note_on_c, 9, 59, 0
1, 217186, Note_on_c, 0, 79, 0
1, 217192, Note_on_c, 9, 47, 0
1, 217252, Note_on_c, 1, 39, 43
1, 217264, Note_on_c, 9, 59, 61
1, 217292, Note_on_c, 1, 39, 0
1, 217304, Note_on_c, 9, 59, 0
1, 217344, Note_on_c, 1, 42, 0
1, 217376, Note_on_c, 1, 43, 79
1, 217382, Control_c, 0, 64, 0
1, 217384, Note_on_c, 9, 59, 72
1, 217394, Note_on_c, 0, 75, 63
1, 217394, Note_on_c, 0, 79, 68
1, 217406, Note_on_c, 0, 63, 64
1, 217406, Note_on_c, 0, 67, 60
1, 217406, Note_on_c, 0, 53, 59
1, 217406, Note_on_c, 0, 71, 63
1, 217406, Note_on_c, 0, 59, 63
1, 217446, Note_on_c, 0, 77, 36
1, 217502, Note_on_c, 0, 77, 0
1, 217560, Note_on_c, 1, 43, 0
1, 217574, Control_c, 0, 64, 127
1, 217588, Note_on_c, 9, 59, 0
1, 217598, Note_on_c, 0, 63, 0
1, 217620, Note_on_c, 9, 44, 57
1, 217632, Note_on_c, 0, 59, 0
1, 217632, Note_on_c, 0, 53, 0
1, 217632, Note_on_c, 1, 38, 74
1, 217632, Note_on_c, 9, 53, 60
1, 217646, Note_on_c, 0, 79, 0
1, 217658, Note_on_c, 0, 71, 0
1, 217660, Note_on_c, 9, 53, 0
1, 217662, Note_on_c, 0, 75, 0
1, 217684, Note_on_c, 9, 44, 0
1, 217722, Note_on_c, 0, 67, 0
1, 217740, Note_on_c, 1, 38, 0
1, 217756, Note_on_c, 1, 35, 76
1, 217764, Note_on_c, 9, 44, 57
1, 217796, Note_on_c, 9, 59, 44
1, 217860, Note_on_c, 9, 44, 0
1, 217908, Note_on_c, 9, 59, 0
1, 218020, Note_on_c, 9, 59, 66
1, 218022, Control_c, 0, 64, 0
1, 218034, Note_on_c, 0, 67, 64
1, 218042, Note_on_c, 0, 59, 67
1, 218042, Note_on_c, 0, 63, 61
1, 218050, Note_on_c, 0, 43, 60
1, 218052, Note_on_c, 9, 59, 0
1, 218074, Note_on_c, 0, 53, 57
1, 218116, Note_on_c, 1, 35, 0
1, 218132, Note_on_c, 1, 38, 73
1, 218140, Note_on_c, 9, 59, 62
1, 218166, Control_c, 0, 64, 127
1, 218354, Note_on_c, 0, 59, 0
1, 218358, Note_on_c, 0, 67, 0
1, 218372, Note_on_c, 9, 59, 0
1, 218384, Note_on_c, 1, 38, 0
1, 218392, Note_on_c, 1, 35, 64
1, 218434, Note_on_c, 0, 46, 36
1, 218446, Note_on_c, 0, 53, 0
1, 218450, Note_on_c, 0, 63, 0
1, 218480, Note_on_c, 1, 35, 0
1, 218514, Note_on_c, 0, 43, 0
1, 218516, Note_on_c, 1, 36, 62
1, 218520, Note_on_c, 9, 59, 69
1, 218550, Note_on_c, 0, 48, 38
1, 218594, Note_on_c, 0, 55, 70
1, 218598, Note_on_c, 0, 58, 68
1, 218598, Note_on_c, 0, 67, 63
1, 218598, Note_on_c, 0, 63, 61
1, 218606, Control_c, 0, 64, 0
1, 218716, Note_on_c, 9, 59, 0
1, 218730, Note_on_c, 0, 48, 0
1, 218780, Note_on_c, 1, 34, 61
1, 218804, Note_on_c, 1, 36, 0
1, 218842, Control_c, 0, 64, 127
1, 218880, Note_on_c, 1, 34, 0
1, 218884, Note_on_c, 9, 59, 74
1, 218900, Note_on_c, 1, 38, 68
1, 218958, Note_on_c, 0, 46, 0
1, 219018, Note_on_c, 0, 67, 0
1, 219030, Note_on_c, 0, 58, 0
1, 219066, Note_on_c, 0, 63, 0
1, 219068, Note_on_c, 9, 59, 0
1, 219078, Note_on_c, 0, 55, 0
1, 219160, Note_on_c, 9, 59, 53
1, 219168, Note_on_c, 1, 36, 57
1, 219178, Note_on_c, 0, 67, 56
1, 219178, Note_on_c, 0, 58, 63
1, 219186, Note_on_c, 0, 63, 57
1, 219196, Note_on_c, 9, 59, 0
1, 219196, Note_on_c, 1, 38, 0
1, 219198, Note_on_c, 0, 48, 55
1, 219212, Note_on_c, 1, 36, 0
1, 219250, Note_on_c, 0, 48, 0
1, 219272, Note_on_c, 0, 58, 0
1, 219272, Note_on_c, 9, 59, 67
1, 219276, Note_on_c, 1, 39, 68
1, 219314, Note_on_c, 0, 67, 0
1, 219322, Note_on_c, 0, 63, 0
1, 219516, Note_on_c, 9, 59, 0
1, 219548, Note_on_c, 1, 36, 46
1, 219600, Note_on_c, 1, 36, 0
1, 219622, Note_on_c, 0, 56, 27
1, 219640, Note_on_c, 1, 39, 0
1, 219664, Note_on_c, 1, 43, 80
1, 219672, Note_on_c, 9, 59, 72
1, 219682, Control_c, 0, 64, 0
1, 219692, Note_on_c, 0, 75, 72
1, 219698, Note_on_c, 0, 56, 0
1, 219714, Note_on_c, 0, 65, 60
1, 219722, Note_on_c, 0, 68, 51
1, 219730, Note_on_c, 0, 59, 48
1, 219738, Note_on_c, 0, 71, 48
1, 219830, Note_on_c, 0, 65, 0
1, 219854, Note_on_c, 0, 68, 0
1, 219858, Note_on_c, 0, 75, 0
1, 219866, Note_on_c, 0, 71, 0
1, 219906, Note_on_c, 0, 59, 0
1, 219920, Note_on_c, 9, 59, 0
1, 219966, Note_on_c, 0, 58, 49
1, 220044, Note_on_c, 9, 59, 78
1, 220048, Note_on_c, 1, 43, 0
1, 220064, Note_on_c, 1, 38, 73
1, 220070, Note_on_c, 0, 75, 66
1, 220098, Note_on_c, 0, 65, 48
1, 220102, Note_on_c, 0, 68, 50
1, 220106, Note_on_c, 0, 59, 51
1, 220110, Note_on_c, 0, 58, 0
1, 220118, Note_on_c, 0, 71, 48
1, 220238, Note_on_c, 0, 65, 0
1, 220246, Note_on_c, 0, 71, 0
1, 220294, Note_on_c, 0, 75, 0
1, 220312, Note_on_c, 9, 59, 0
1, 220318, Note_on_c, 0, 68, 0
1, 220342, Note_on_c, 0, 59, 0
1, 220396, Note_on_c, 1, 38, 0
1, 220428, Note_on_c, 1, 35, 78
1, 220446, Note_on_c, 0, 74, 66
1, 220456, Note_on_c, 9, 59, 46
1, 220462, Note_on_c, 0, 63, 49
1, 220466, Note_on_c, 0, 58, 51
1, 220470, Note_on_c, 0, 67, 49
1, 220490, Note_on_c, 0, 70, 45
1, 220492, Note_on_c, 9, 59, 0
1, 220566, Note_on_c, 0, 67, 0
1, 220574, Note_on_c, 0, 58, 0
1, 220606, Note_on_c, 0, 63, 0
1, 220614, Note_on_c, 0, 70, 0
1, 220622, Note_on_c, 0, 74, 0
1, 220684, Note_on_c, 9, 59, 84
1, 220772, Note_on_c, 1, 35, 0
1, 220788, Note_on_c, 9, 59, 0
1, 220816, Note_on_c, 1, 36, 73
1, 220832, Note_on_c, 9, 46, 46
1, 220856, Note_on_c, 9, 59, 60
1, 220936, Note_on_c, 9, 46, 0
1, 221070, Note_on_c, 0, 74, 72
1, 221078, Note_on_c, 0, 63, 58
1, 221084, Note_on_c, 1, 34, 69
1, 221110, Note_on_c, 0, 67, 42
1, 221114, Note_on_c, 0, 57, 54
1, 221116, Note_on_c, 9, 59, 0
1, 221120, Note_on_c, 1, 36, 0
1, 221142, Note_on_c, 0, 70, 31
1, 221172, Note_on_c, 1, 34, 0
1, 221194, Note_on_c, 0, 67, 0
1, 221200, Note_on_c, 1, 38, 76
1, 221204, Note_on_c, 9, 59, 55
1, 221210, Note_on_c, 0, 63, 0
1, 221210, Note_on_c, 0, 70, 0
1, 221250, Note_on_c, 0, 74, 0
1, 221270, Note_on_c, 0, 57, 0
1, 221364, Note_on_c, 9, 59, 0
1, 221434, Note_on_c, 0, 58, 44
1, 221442, Note_on_c, 0, 72, 46
1, 221448, Note_on_c, 9, 59, 87
1, 221490, Note_on_c, 0, 72, 0
1, 221496, Note_on_c, 0, 56, 40
1, 221496, Note_on_c, 1, 36, 62
1, 221524, Note_on_c, 1, 38, 0
1, 221532, Note_on_c, 1, 36, 0
1, 221558, Note_on_c, 0, 56, 0
1, 221582, Note_on_c, 0, 58, 0
1, 221592, Note_on_c, 1, 39, 72
1, 221598, Note_on_c, 0, 74, 50
1, 221618, Note_on_c, 0, 57, 40
1, 221620, Note_on_c, 0, 63, 36
1, 221620, Note_on_c, 9, 44, 49
1, 221626, Note_on_c, 0, 72, 40
1, 221642, Note_on_c, 0, 70, 39
1, 221666, Note_on_c, 0, 74, 0
1, 221714, Note_on_c, 0, 70, 0
1, 221738, Note_on_c, 0, 72, 0
1, 221740, Note_on_c, 9, 59, 0
1, 221774, Note_on_c, 0, 63, 0
1, 221778, Note_on_c, 0, 57, 0
1, 221824, Note_on_c, 9, 59, 44
1, 221832, Note_on_c, 9, 44, 0
1, 221864, Note_on_c, 1, 36, 46
1, 221908, Note_on_c, 1, 36, 0
1, 221924, Note_on_c, 9, 59, 0
1, 221952, Note_on_c, 1, 39, 0
1, 221970, Note_on_c, 0, 72, 57
1, 221976, Note_on_c, 1, 41, 64
1, 221982, Note_on_c, 0, 57, 51
1, 221982, Note_on_c, 0, 63, 51
1, 221982, Note_on_c, 0, 66, 57
1, 221992, Note_on_c, 9, 44, 73
1, 221996, Note_on_c, 9, 59, 98
1, 222030, Note_on_c, 0, 69, 34
1, 222158, Note_on_c, 0, 69, 0
1, 222186, Note_on_c, 0, 66, 0
1, 222186, Note_on_c, 0, 63, 0
1, 222190, Note_on_c, 0, 72, 0
1, 222234, Note_on_c, 0, 57, 0
1, 222236, Note_on_c, 9, 44, 0
1, 222236, Note_on_c, 1, 36, 55
1, 222244, Note_on_c, 9, 59, 0
1, 222284, Note_on_c, 1, 41, 0
1, 222320, Note_on_c, 1, 36, 0
1, 222340, Note_on_c, 1, 43, 79
1, 222364, Note_on_c, 9, 59, 44
1, 222378, Note_on_c, 0, 72, 63
1, 222390, Note_on_c, 0, 57, 51
1, 222390, Note_on_c, 0, 66, 60
1, 222390, Note_on_c, 0, 63, 57
1, 222438, Note_on_c, 0, 69, 35
1, 222488, Note_on_c, 9, 59, 0
1, 222550, Note_on_c, 0, 69, 0
1, 222562, Note_on_c, 0, 63, 0
1, 222608, Note_on_c, 9, 59, 84
1, 222614, Note_on_c, 0, 72, 0
1, 222666, Note_on_c, 0, 66, 0
1, 222694, Note_on_c, 0, 57, 0
1, 222740, Note_on_c, 1, 39, 73
1, 222764, Note_on_c, 1, 43, 0
1, 222764, Note_on_c, 9, 44, 50
1, 222770, Note_on_c, 0, 56, 49
1, 222778, Note_on_c, 0, 66, 54
1, 222838, Note_on_c, 0, 66, 0
1, 222908, Note_on_c, 9, 59, 0
1, 222932, Note_on_c, 9, 44, 0
1, 222986, Note_on_c, 0, 56, 0
1, 222992, Note_on_c, 9, 53, 62
1, 223020, Note_on_c, 9, 53, 0
1, 223020, Note_on_c, 1, 37, 52
1, 223076, Note_on_c, 1, 39, 0
1, 223100, Note_on_c, 1, 37, 0
1, 223112, Note_on_c, 1, 38, 73
1, 223132, Note_on_c, 9, 59, 48
1, 223154, Note_on_c, 0, 53, 49
1, 223162, Note_on_c, 0, 69, 60
1, 223166, Note_on_c, 0, 65, 49
1, 223166, Note_on_c, 0, 60, 54
1, 223368, Note_on_c, 9, 59, 0
1, 223382, Note_on_c, 0, 60, 0
1, 223396, Note_on_c, 1, 37, 48
1, 223414, Note_on_c, 0, 65, 0
1, 223462, Note_on_c, 0, 69, 0
1, 223492, Note_on_c, 1, 38, 0
1, 223494, Note_on_c, 0, 53, 0
1, 223500, Note_on_c, 9, 59, 64
1, 223508, Note_on_c, 1, 45, 76
1, 223532, Note_on_c, 1, 37, 0
1, 223554, Note_on_c, 0, 52, 49
1, 223570, Note_on_c, 0, 67, 39
1, 223594, Note_on_c, 0, 60, 36
1, 223658, Note_on_c, 0, 60, 0
1, 223722, Note_on_c, 0, 67, 0
1, 223764, Note_on_c, 9, 59, 0
1, 223790, Note_on_c, 0, 69, 61
1, 223792, Note_on_c, 0, 60, 56
1, 223792, Note_on_c, 1, 41, 48
1, 223798, Note_on_c, 0, 65, 58
1, 223806, Note_on_c, 0, 52, 0
1, 223818, Note_on_c, 0, 53, 57
1, 223848, Note_on_c, 1, 41, 0
1, 223852, Note_on_c, 1, 45, 0
1, 223888, Note_on_c, 9, 59, 72
1, 223892, Note_on_c, 1, 53, 81
1, 223924, Note_on_c, 1, 51, 46
1, 223936, Note_on_c, 9, 44, 49
1, 223956, Note_on_c, 1, 51, 0
1, 223976, Note_on_c, 9, 44, 0
1, 224062, Note_on_c, 0, 60, 0
1, 224118, Note_on_c, 0, 65, 0
1, 224132, Note_on_c, 9, 59, 0
1, 224184, Note_on_c, 1, 43, 43
1, 224198, Note_on_c, 0, 53, 0
1, 224214, Note_on_c, 0, 69, 0
1, 224220, Note_on_c, 1, 43, 0
1, 224236, Note_on_c, 1, 53, 0
1, 224266, Note_on_c, 0, 70, 74
1, 224268, Note_on_c, 1, 49, 64
1, 224290, Note_on_c, 0, 61, 56
1, 224298, Note_on_c, 0, 64, 60
1, 224306, Note_on_c, 0, 55, 63
1, 224324, Note_on_c, 9, 59, 21
1, 224376, Note_on_c, 9, 59, 0
1, 224536, Note_on_c, 0, 64, 0
1, 224536, Note_on_c, 1, 43, 58
1, 224536, Note_on_c, 9, 59, 58
1, 224564, Note_on_c, 1, 43, 0
1, 224566, Note_on_c, 0, 61, 0
1, 224572, Note_on_c, 9, 59, 0
1, 224586, Note_on_c, 0, 70, 0
1, 224634, Note_on_c, 0, 55, 0
1, 224636, Note_on_c, 1, 49, 0
1, 224648, Note_on_c, 1, 46, 70
1, 224656, Note_on_c, 9, 59, 75
1, 224682, Note_on_c, 0, 52, 56
1, 224682, Note_on_c, 0, 67, 35
1, 224810, Note_on_c, 0, 67, 0
1, 224886, Note_on_c, 0, 70, 70
1, 224894, Note_on_c, 0, 52, 0
1, 224910, Note_on_c, 0, 64, 66
1, 224910, Note_on_c, 0, 61, 58
1, 224914, Note_on_c, 0, 55, 63
1, 224968, Note_on_c, 9, 59, 0
1, 225040, Note_on_c, 9, 59, 70
1, 225044, Note_on_c, 9, 44, 53
1, 225154, Note_on_c, 0, 64, 0
1, 225172, Note_on_c, 1, 43, 75
1, 225196, Note_on_c, 1, 43, 0
1, 225196, Note_on_c, 1, 46, 0
1, 225206, Note_on_c, 0, 61, 0
1, 225224, Note_on_c, 9, 44, 0
1, 225278, Note_on_c, 0, 70, 0
1, 225282, Note_on_c, 0, 55, 0
1, 225288, Note_on_c, 1, 38, 79
1, 225296, Note_on_c, 9, 59, 0
1, 225312, Note_on_c, 9, 53, 65
1, 225344, Note_on_c, 9, 53, 0
1, 225356, Note_on_c, 1, 38, 0
1, 225412, Note_on_c, 1, 35, 84
1, 225440, Note_on_c, 9, 59, 59
1, 225442, Note_on_c, 0, 72, 76
1, 225452, Note_on_c, 0, 48, 57
1, 225458, Note_on_c, 0, 54, 45
1, 225466, Note_on_c, 0, 60, 55
1, 225466, Note_on_c, 0, 58, 51
1, 225490, Note_on_c, 0, 67, 40
1, 225554, Note_on_c, 0, 54, 0
1, 225670, Note_on_c, 0, 58, 0
1, 225684, Note_on_c, 9, 59, 0
1, 225742, Note_on_c, 0, 60, 0
1, 225758, Note_on_c, 0, 67, 0
1, 225770, Note_on_c, 0, 72, 0
1, 225784, Note_on_c, 1, 35, 0
1, 225804, Note_on_c, 1, 36, 77
1, 225816, Note_on_c, 9, 59, 63
1, 225854, Note_on_c, 0, 55, 57
1, 225878, Note_on_c, 0, 67, 26
1, 225990, Note_on_c, 0, 67, 0
1, 226054, Note_on_c, 0, 72, 72
1, 226066, Note_on_c, 0, 60, 66
1, 226068, Note_on_c, 9, 59, 0
1, 226070, Note_on_c, 0, 67, 62
1, 226090, Note_on_c, 0, 58, 66
1, 226106, Control_c, 0, 64, 127
1, 226110, Note_on_c, 0, 48, 0
1, 226142, Note_on_c, 0, 55, 0
1, 226196, Note_on_c, 9, 59, 82
1, 226200, Note_on_c, 1, 30, 75
1, 226200, Note_on_c, 9, 44, 56
1, 226212, Note_on_c, 1, 36, 0
1, 226278, Note_on_c, 0, 67, 0
1, 226292, Note_on_c, 9, 44, 0
1, 226306, Note_on_c, 0, 60, 0
1, 226318, Note_on_c, 0, 58, 0
1, 226356, Note_on_c, 9, 59, 0
1, 226358, Note_on_c, 0, 72, 0
1, 226460, Note_on_c, 9, 59, 53
1, 226486, Note_on_c, 0, 70, 41
1, 226500, Note_on_c, 9, 59, 0
1, 226534, Note_on_c, 0, 70, 0
1, 226568, Note_on_c, 1, 30, 0
1, 226576, Note_on_c, 9, 59, 78
1, 226578, Control_c, 0, 64, 0
1, 226588, Note_on_c, 1, 29, 82
1, 226606, Note_on_c, 0, 73, 78
1, 226614, Note_on_c, 0, 61, 76
1, 226616, Note_on_c, 0, 51, 66
1, 226622, Note_on_c, 0, 70, 49
1, 226626, Note_on_c, 0, 57, 57
1, 226634, Note_on_c, 0, 66, 60
1, 226678, Note_on_c, 0, 70, 0
1, 226814, Note_on_c, 0, 66, 0
1, 226844, Note_on_c, 9, 59, 0
1, 226844, Note_on_c, 9, 35, 40
1, 226882, Note_on_c, 0, 61, 0
1, 226924, Note_on_c, 9, 35, 0
1, 226946, Note_on_c, 0, 73, 0
1, 226990, Note_on_c, 0, 51, 0
1, 227010, Note_on_c, 0, 70, 45
1, 227014, Note_on_c, 0, 57, 0
1, 227016, Note_on_c, 9, 59, 27
1, 227020, Note_on_c, 9, 35, 40
1, 227076, Note_on_c, 9, 59, 0
1, 227102, Note_on_c, 0, 70, 0
1, 227116, Note_on_c, 9, 35, 0
1, 227194, Note_on_c, 0, 73, 75
1, 227198, Note_on_c, 0, 51, 57
1, 227210, Note_on_c, 0, 57, 61
1, 227210, Note_on_c, 0, 61, 68
1, 227210, Note_on_c, 0, 66, 68
1, 227220, Note_on_c, 0, 70, 55
1, 227220, Note_on_c, 9, 59, 77
1, 227230, Control_c, 0, 64, 127
1, 227292, Note_on_c, 9, 59, 0
1, 227356, Note_on_c, 9, 59, 70
1, 227390, Note_on_c, 0, 70, 0
1, 227398, Note_on_c, 0, 57, 0
1, 227404, Note_on_c, 9, 44, 40
1, 227410, Note_on_c, 0, 66, 0
1, 227418, Note_on_c, 0, 61, 0
1, 227458, Note_on_c, 0, 73, 0
1, 227476, Note_on_c, 9, 44, 0
1, 227484, Note_on_c, 1, 29, 0
1, 227504, Note_on_c, 1, 41, 73
1, 227506, Note_on_c, 0, 51, 0
1, 227576, Note_on_c, 1, 41, 0
1, 227624, Note_on_c, 1, 39, 73
1, 227628, Note_on_c, 9, 59, 0
1, 227692, Note_on_c, 1, 39, 0
1, 227724, Note_on_c, 9, 59, 50
1, 227764, Note_on_c, 9, 46, 45
1, 227766, Note_on_c, 0, 60, 68
1, 227766, Note_on_c, 0, 50, 65
1, 227774, Note_on_c, 0, 65, 76
1, 227774, Note_on_c, 0, 74, 86
1, 227774, Note_on_c, 0, 57, 56
1, 227776, Note_on_c, 1, 38, 80
1, 227782, Control_c, 0, 64, 0
1, 227794, Note_on_c, 0, 69, 61
1, 227896, Note_on_c, 9, 59, 0
1, 228008, Note_on_c, 9, 59, 57
1, 228044, Note_on_c, 9, 59, 0
1, 228050, Note_on_c, 0, 65, 0
1, 228054, Control_c, 0, 64, 127
1, 228070, Note_on_c, 0, 60, 0
1, 228074, Note_on_c, 0, 57, 0
1, 228084, Note_on_c, 9, 46, 0
1, 228130, Note_on_c, 0, 74, 0
1, 228136, Note_on_c, 9, 59, 76
1, 228246, Note_on_c, 0, 50, 0
1, 228282, Note_on_c, 0, 69, 0
1, 228346, Control_c, 0, 64, 0
1, 228378, Note_on_c, 0, 50, 59
1, 228386, Note_on_c, 0, 69, 63
1, 228390, Note_on_c, 0, 65, 77
1, 228390, Note_on_c, 0, 74, 81
1, 228390, Note_on_c, 0, 60, 68
1, 228402, Note_on_c, 0, 57, 57
1, 228412, Note_on_c, 9, 59, 0
1, 228416, Note_on_c, 1, 37, 53
1, 228502, Control_c, 0, 64, 127
1, 228512, Note_on_c, 9, 59, 41
1, 228536, Note_on_c, 1, 37, 0
1, 228536, Note_on_c, 1, 45, 81
1, 228556, Note_on_c, 1, 38, 0
1, 228558, Note_on_c, 0, 57, 0
1, 228578, Note_on_c, 0, 65, 0
1, 228578, Note_on_c, 0, 50, 0
1, 228590, Note_on_c, 0, 60, 0
1, 228594, Note_on_c, 0, 69, 0
1, 228602, Note_on_c, 0, 74, 0
1, 228664, Note_on_c, 9, 59, 0
1, 228768, Note_on_c, 9, 59, 78
1, 228788, Note_on_c, 1, 38, 67
1, 228792, Note_on_c, 1, 45, 0
1, 228848, Note_on_c, 1, 38, 0
1, 228856, Note_on_c, 9, 59, 0
1, 228906, Note_on_c, 0, 75, 78
1, 228908, Note_on_c, 1, 37, 76
1, 228924, Note_on_c, 0, 58, 61
1, 228924, Note_on_c, 0, 70, 69
1, 228924, Note_on_c, 0, 63, 68
1, 228924, Note_on_c, 9, 59, 67
1, 228950, Control_c, 0, 64, 0
1, 228954, Note_on_c, 0, 62, 33
1, 229002, Note_on_c, 0, 73, 23
1, 229054, Note_on_c, 0, 62, 0
1, 229164, Note_on_c, 9, 59, 0
1, 229166, Control_c, 0, 64, 127
1, 229218, Note_on_c, 0, 58, 0
1, 229284, Note_on_c, 0, 70, 0
1, 229284, Note_on_c, 9, 59, 53
1, 229294, Note_on_c, 0, 63, 0
1, 229322, Note_on_c, 0, 75, 0
1, 229354, Note_on_c, 0, 73, 0
1, 229412, Note_on_c, 9, 59, 0
1, 229482, Note_on_c, 0, 75, 67
1, 229494, Note_on_c, 0, 58, 60
1, 229510, Note_on_c, 0, 63, 64
1, 229514, Note_on_c, 0, 70, 64
1, 229528, Note_on_c, 9, 59, 78
1, 229616, Note_on_c, 9, 59, 0
1, 229664, Note_on_c, 9, 44, 41
1, 229676, Note_on_c, 1, 43, 64
1, 229680, Note_on_c, 9, 59, 64
1, 229696, Note_on_c, 1, 37, 0
1, 229736, Note_on_c, 9, 44, 0
1, 229746, Note_on_c, 0, 58, 0
1, 229750, Note_on_c, 0, 70, 0
1, 229754, Note_on_c, 0, 63, 0
1, 229756, Note_on_c, 1, 43, 0
1, 229818, Note_on_c, 0, 75, 0
1, 229876, Note_on_c, 9, 59, 0
1, 229920, Note_on_c, 1, 37, 80
1, 229932, Note_on_c, 9, 59, 89
1, 230000, Note_on_c, 1, 37, 0
1, 230004, Note_on_c, 9, 59, 0
1, 230026, Note_on_c, 0, 61, 54
1, 230026, Note_on_c, 0, 76, 62
1, 230030, Note_on_c, 0, 70, 66
1, 230030, Note_on_c, 0, 52, 55
1, 230038, Control_c, 0, 64, 0
1, 230046, Note_on_c, 0, 64, 51
1, 230060, Note_on_c, 1, 36, 76
1, 230062, Note_on_c, 0, 58, 49
1, 230068, Note_on_c, 9, 59, 69
1, 230068, Note_on_c, 9, 46, 48
1, 230250, Control_c, 0, 64, 127
1, 230316, Note_on_c, 9, 59, 0
1, 230374, Note_on_c, 0, 52, 0
1, 230382, Note_on_c, 0, 58, 0
1, 230390, Note_on_c, 0, 64, 0
1, 230390, Note_on_c, 0, 70, 0
1, 230390, Note_on_c, 0, 61, 0
1, 230422, Note_on_c, 0, 76, 0
1, 230432, Note_on_c, 1, 46, 84
1, 230432, Note_on_c, 9, 59, 62
1, 230436, Note_on_c, 9, 46, 0
1, 230532, Note_on_c, 1, 36, 0
1, 230626, Note_on_c, 0, 61, 56
1, 230642, Control_c, 0, 64, 0
1, 230648, Note_on_c, 9, 59, 0
1, 230650, Note_on_c, 0, 76, 57
1, 230650, Note_on_c, 0, 52, 45
1, 230662, Note_on_c, 0, 70, 61
1, 230670, Note_on_c, 0, 58, 48
1, 230674, Note_on_c, 0, 64, 48
1, 230702, Note_on_c, 0, 52, 0
1, 230742, Control_c, 0, 64, 127
1, 230786, Note_on_c, 0, 64, 0
1, 230820, Note_on_c, 9, 59, 62
1, 230824, Note_on_c, 9, 59, 64
1, 230854, Note_on_c, 0, 76, 0
1, 230890, Note_on_c, 0, 70, 0
1, 230928, Note_on_c, 1, 39, 60
1, 230930, Note_on_c, 0, 61, 0
1, 230954, Note_on_c, 0, 58, 0
1, 230988, Note_on_c, 1, 46, 0
1, 230992, Note_on_c, 1, 39, 0
1, 231032, Note_on_c, 9, 59, 0
1, 231044, Note_on_c, 9, 59, 0
1, 231068, Note_on_c, 1, 40, 73
1, 231080, Note_on_c, 9, 53, 53
1, 231108, Note_on_c, 9, 53, 0
1, 231168, Note_on_c, 1, 40, 0
1, 231182, Note_on_c, 0, 51, 54
1, 231194, Note_on_c, 0, 77, 66
1, 231202, Control_c, 0, 64, 0
1, 231202, Note_on_c, 0, 62, 44
1, 231208, Note_on_c, 9, 59, 51
1, 231210, Note_on_c, 0, 72, 58
1, 231210, Note_on_c, 0, 65, 52
1, 231212, Note_on_c, 1, 41, 68
1, 231218, Note_on_c, 0, 57, 45
1, 231358, Note_on_c, 0, 65, 0
1, 231380, Note_on_c, 1, 41, 0
1, 231424, Note_on_c, 9, 59, 0
1, 231426, Note_on_c, 0, 72, 0
1, 231440, Note_on_c, 9, 59, 80
1, 231446, Control_c, 0, 64, 127
1, 231452, Note_on_c, 1, 36, 77
1, 231468, Note_on_c, 9, 53, 50
1, 231486, Note_on_c, 0, 77, 0
1, 231490, Note_on_c, 0, 57, 0
1, 231494, Note_on_c, 0, 62, 0
1, 231500, Note_on_c, 9, 53, 0
1, 231516, Note_on_c, 1, 36, 0
1, 231532, Note_on_c, 9, 59, 0
1, 231566, Note_on_c, 0, 51, 0
1, 231588, Note_on_c, 1, 33, 85
1, 231596, Note_on_c, 9, 59, 46
1, 231596, Note_on_c, 9, 59, 72
1, 231784, Note_on_c, 9, 59, 0
1, 231792, Note_on_c, 9, 59, 0
1, 231798, Note_on_c, 0, 51, 64
1, 231822, Note_on_c, 0, 62, 46
1, 231826, Note_on_c, 0, 57, 50
1, 231840, Note_on_c, 9, 53, 73
1, 231866, Note_on_c, 0, 62, 0
1, 231870, Note_on_c, 0, 57, 0
1, 231888, Note_on_c, 9, 53, 0
1, 231938, Note_on_c, 0, 51, 0
1, 231972, Note_on_c, 9, 59, 51
1, 232092, Note_on_c, 1, 33, 0
1, 232120, Note_on_c, 1, 41, 64
1, 232140, Note_on_c, 9, 59, 0
1, 232192, Note_on_c, 1, 41, 0
1, 232200, Note_on_c, 9, 49, 64
1, 232200, Note_on_c, 9, 59, 70
1, 232206, Note_on_c, 0, 94, 57
1, 232212, Note_on_c, 1, 36, 62
1, 232232, Note_on_c, 9, 49, 0
1, 232268, Note_on_c, 1, 36, 0
1, 232278, Note_on_c, 0, 94, 0
1, 232288, Note_on_c, 9, 59, 0
1, 232302, Control_c, 0, 64, 0
1, 232340, Note_on_c, 9, 59, 46
1, 232348, Note_on_c, 1, 34, 78
1, 232356, Note_on_c, 9, 59, 69
1, 232362, Note_on_c, 0, 61, 85
1, 232362, Note_on_c, 0, 97, 89
1, 232362, Note_on_c, 0, 50, 81
1, 232362, Note_on_c, 0, 82, 90
1, 232362, Note_on_c, 0, 56, 73
1, 232390, Note_on_c, 0, 94, 46
1, 232438, Note_on_c, 0, 94, 0
1, 232552, Note_on_c, 9, 59, 0
1, 232594, Note_on_c, 0, 50, 0
1, 232598, Note_on_c, 0, 82, 0
1, 232622, Note_on_c, 0, 97, 0
1, 232622, Note_on_c, 0, 61, 0
1, 232648, Note_on_c, 9, 59, 0
1, 232666, Note_on_c, 0, 56, 0
1, 232736, Note_on_c, 9, 59, 51
1, 232770, Note_on_c, 0, 97, 86
1, 232774, Note_on_c, 0, 56, 76
1, 232774, Note_on_c, 0, 61, 90
1, 232774, Note_on_c, 0, 50, 87
1, 232774, Note_on_c, 0, 82, 87
1, 232810, Note_on_c, 0, 94, 48
1, 232854, Note_on_c, 0, 94, 0
1, 232972, Note_on_c, 9, 59, 0
1, 233124, Note_on_c, 9, 59, 64
1, 233146, Control_c, 0, 64, 127
1, 233220, Note_on_c, 1, 34, 0
1, 233244, Note_on_c, 1, 41, 64
1, 233276, Note_on_c, 9, 59, 0
1, 233310, Note_on_c, 0, 97, 0
1, 233312, Note_on_c, 1, 41, 0
1, 233342, Note_on_c, 0, 50, 0
1, 233356, Note_on_c, 1, 37, 88
1, 233386, Note_on_c, 0, 56, 0
1, 233400, Note_on_c, 9, 59, 58
1, 233424, Note_on_c, 1, 37, 0
1, 233428, Note_on_c, 9, 59, 0
1, 233434, Note_on_c, 0, 82, 0
1, 233438, Note_on_c, 0, 61, 0
1, 233496, Note_on_c, 1, 38, 93
1, 233504, Note_on_c, 9, 59, 65
1, 233780, Note_on_c, 9, 59, 0
1, 233888, Note_on_c, 9, 59, 48
1, 233894, Control_c, 0, 64, 0
1, 233910, Note_on_c, 0, 56, 59
1, 233918, Note_on_c, 0, 94, 54
1, 233922, Note_on_c, 0, 66, 55
1, 233922, Note_on_c, 0, 62, 51
1, 233922, Note_on_c, 0, 82, 46
1, 233942, Note_on_c, 0, 87, 46
1, 234068, Note_on_c, 9, 59, 0
1, 234140, Note_on_c, 9, 59, 54
1, 234144, Note_on_c, 1, 54, 80
1, 234180, Note_on_c, 9, 59, 0
1, 234234, Control_c, 0, 64, 127
1, 234260, Note_on_c, 9, 59, 68
1, 234276, Note_on_c, 9, 44, 64
1, 234328, Note_on_c, 9, 44, 0
1, 234350, Note_on_c, 0, 87, 0
1, 234370, Note_on_c, 0, 66, 0
1, 234374, Note_on_c, 0, 94, 0
1, 234390, Note_on_c, 0, 62, 0
1, 234390, Note_on_c, 0, 82, 0
1, 234466, Note_on_c, 0, 56, 0
1, 234492, Note_on_c, 9, 59, 0
1, 234532, Note_on_c, 1, 38, 0
1, 234604, Note_on_c, 1, 54, 0
1, 234624, Note_on_c, 1, 39, 79
1, 234636, Note_on_c, 1, 55, 54
1, 234654, Note_on_c, 0, 55, 57
1, 234658, Control_c, 0, 64, 0
1, 234658, Note_on_c, 0, 65, 61
1, 234660, Note_on_c, 9, 44, 51
1, 234662, Note_on_c, 0, 62, 50
1, 234662, Note_on_c, 0, 93, 68
1, 234664, Note_on_c, 9, 59, 79
1, 234678, Note_on_c, 0, 81, 45
1, 234686, Note_on_c, 0, 86, 50
1, 234686, Note_on_c, 0, 60, 52
1, 234694, Note_on_c, 0, 89, 49
1, 234772, Note_on_c, 9, 44, 0
1, 234900, Note_on_c, 9, 59, 0
1, 234922, Control_c, 0, 64, 127
1, 235050, Note_on_c, 0, 65, 0
1, 235052, Note_on_c, 9, 59, 28
1, 235062, Note_on_c, 0, 93, 0
1, 235066, Note_on_c, 0, 60, 0
1, 235070, Note_on_c, 0, 55, 0
1, 235094, Note_on_c, 0, 62, 0
1, 235098, Note_on_c, 0, 86, 0
1, 235098, Note_on_c, 0, 81, 0
1, 235098, Note_on_c, 0, 89, 0
1, 235112, Note_on_c, 9, 59, 0
1, 235200, Note_on_c, 1, 39, 0
1, 235252, Note_on_c, 1, 38, 73
1, 235296, Note_on_c, 9, 59, 50
1, 235310, Note_on_c, 0, 91, 65
1, 235310, Note_on_c, 0, 86, 59
1, 235326, Note_on_c, 0, 62, 57
1, 235328, Note_on_c, 1, 38, 0
1, 235330, Note_on_c, 0, 55, 54
1, 235334, Note_on_c, 0, 65, 51
1, 235334, Note_on_c, 0, 60, 52
1, 235338, Note_on_c, 0, 79, 38
1, 235348, Note_on_c, 9, 59, 0
1, 235378, Note_on_c, 0, 65, 0
1, 235388, Note_on_c, 1, 41, 76
1, 235420, Note_on_c, 9, 46, 35
1, 235428, Note_on_c, 9, 59, 63
1, 235434, Note_on_c, 0, 79, 0
1, 235442, Note_on_c, 0, 62, 0
1, 235458, Note_on_c, 0, 60, 0
1, 235478, Note_on_c, 0, 86, 0
1, 235484, Note_on_c, 9, 46, 0
1, 235522, Note_on_c, 0, 55, 0
1, 235524, Note_on_c, 1, 41, 0
1, 235598, Note_on_c, 0, 91, 0
1, 235628, Note_on_c, 9, 59, 0
1, 235648, Note_on_c, 1, 42, 90
1, 235700, Note_on_c, 1, 55, 0
1, 235728, Note_on_c, 1, 42, 0
1, 235768, Note_on_c, 1, 43, 83
1, 235800, Note_on_c, 9, 59, 54
1, 235804, Note_on_c, 9, 59, 85
1, 235842, Control_c, 0, 64, 0
1, 235846, Note_on_c, 0, 91, 61
1, 235854, Note_on_c, 0, 63, 55
1, 235854, Note_on_c, 0, 53, 52
1, 235854, Note_on_c, 0, 59, 57
1, 235856, Note_on_c, 9, 59, 0
1, 235862, Note_on_c, 0, 79, 55
1, 235870, Note_on_c, 0, 87, 51
1, 236024, Note_on_c, 1, 43, 0
1, 236028, Note_on_c, 1, 38, 66
1, 236080, Note_on_c, 9, 59, 0
1, 236088, Note_on_c, 9, 44, 48
1, 236098, Control_c, 0, 64, 127
1, 236104, Note_on_c, 1, 38, 0
1, 236120, Note_on_c, 9, 44, 0
1, 236152, Note_on_c, 1, 35, 84
1, 236174, Note_on_c, 0, 53, 0
1, 236180, Note_on_c, 9, 59, 50
1, 236214, Note_on_c, 0, 63, 0
1, 236224, Note_on_c, 9, 59, 0
1, 236266, Note_on_c, 0, 91, 0
1, 236282, Note_on_c, 0, 59, 0
1, 236290, Note_on_c, 0, 79, 0
1, 236306, Note_on_c, 0, 87, 0
1, 236408, Note_on_c, 9, 59, 78
1, 236450, Note_on_c, 0, 89, 62
1, 236450, Note_on_c, 0, 59, 54
1, 236458, Note_on_c, 0, 63, 61
1, 236470, Control_c, 0, 64, 0
1, 236472, Note_on_c, 9, 59, 0
1, 236474, Note_on_c, 0, 77, 56
1, 236528, Note_on_c, 1, 35, 0
1, 236540, Note_on_c, 9, 59, 66
1, 236546, Control_c, 0, 64, 127
1, 236548, Note_on_c, 1, 41, 72
1, 236566, Note_on_c, 0, 59, 0
1, 236572, Note_on_c, 9, 44, 63
1, 236614, Note_on_c, 0, 63, 0
1, 236652, Note_on_c, 9, 44, 0
1, 236736, Note_on_c, 9, 59, 0
1, 236746, Note_on_c, 0, 77, 0
1, 236794, Note_on_c, 0, 89, 0
1, 236804, Note_on_c, 1, 38, 63
1, 236820, Note_on_c, 1, 41, 0
1, 236868, Note_on_c, 1, 38, 0
1, 236948, Note_on_c, 9, 59, 86
1, 236956, Note_on_c, 1, 36, 58
1, 236956, Note_on_c, 1, 35, 57
1, 236968, Note_on_c, 9, 44, 49
1, 236970, Control_c, 0, 64, 0
1, 236982, Note_on_c, 0, 58, 56
1, 236982, Note_on_c, 0, 67, 57
1, 236998, Note_on_c, 0, 63, 51
1, 236998, Note_on_c, 0, 87, 47
1, 237026, Note_on_c, 0, 67, 0
1, 237046, Note_on_c, 0, 87, 0
1, 237062, Note_on_c, 0, 63, 0
1, 237068, Note_on_c, 9, 44, 0
1, 237072, Note_on_c, 1, 35, 0
1, 237122, Note_on_c, 0, 58, 0
1, 237236, Note_on_c, 9, 59, 0
1, 237348, Note_on_c, 9, 59, 62
1, 237516, Note_on_c, 9, 59, 0
1, 237570, Note_on_c, 0, 63, 51
1, 237570, Note_on_c, 0, 87, 62
1, 237578, Note_on_c, 0, 59, 52
1, 237588, Note_on_c, 0, 75, 56
1, 237588, Note_on_c, 1, 43, 95
1, 237622, Note_on_c, 0, 63, 0
1, 237626, Note_on_c, 0, 59, 0
1, 237642, Note_on_c, 0, 75, 0
1, 237670, Note_on_c, 0, 87, 0
1, 237700, Note_on_c, 1, 36, 0
1, 237704, Note_on_c, 9, 44, 45
1, 237740, Note_on_c, 9, 59, 67
1, 237784, Note_on_c, 9, 44, 0
1, 237916, Note_on_c, 9, 59, 0
1, 237960, Note_on_c, 1, 36, 73
1, 237972, Note_on_c, 9, 53, 54
1, 237974, Note_on_c, 0, 83, 56
1, 238000, Note_on_c, 9, 53, 0
1, 238008, Note_on_c, 1, 43, 0
1, 238052, Note_on_c, 1, 36, 0
1, 238070, Note_on_c, 0, 83, 0
1, 238084, Note_on_c, 1, 42, 70
1, 238096, Note_on_c, 9, 46, 51
1, 238122, Note_on_c, 0, 51, 55
1, 238130, Note_on_c, 0, 62, 50
1, 238136, Note_on_c, 9, 59, 51
1, 238142, Note_on_c, 0, 57, 48
1, 238146, Note_on_c, 0, 86, 63
1, 238158, Note_on_c, 0, 74, 47
1, 238182, Note_on_c, 0, 62, 0
1, 238222, Note_on_c, 0, 74, 0
1, 238222, Note_on_c, 0, 57, 0
1, 238238, Note_on_c, 0, 51, 0
1, 238238, Note_on_c, 0, 86, 0
1, 238340, Note_on_c, 1, 42, 0
1, 238340, Note_on_c, 9, 59, 0
1, 238352, Note_on_c, 1, 43, 75
1, 238464, Note_on_c, 1, 43, 0
1, 238484, Note_on_c, 9, 59, 76
1, 238496, Note_on_c, 1, 31, 72
1, 238696, Note_on_c, 9, 59, 0
1, 238700, Note_on_c, 9, 46, 0
1, 238726, Note_on_c, 0, 86, 74
1, 238726, Note_on_c, 0, 62, 56
1, 238746, Note_on_c, 0, 74, 55
1, 238770, Note_on_c, 0, 62, 0
1, 238840, Note_on_c, 1, 31, 0
1, 238850, Note_on_c, 0, 74, 0
1, 238864, Note_on_c, 1, 35, 87
1, 238864, Note_on_c, 9, 59, 84
1, 238894, Note_on_c, 0, 86, 0
1, 239052, Note_on_c, 9, 59, 0
1, 239208, Note_on_c, 1, 35, 0
1, 239248, Note_on_c, 1, 36, 77
1, 239248, Note_on_c, 9, 59, 70
1, 239254, Note_on_c, 0, 63, 52
1, 239254, Note_on_c, 0, 57, 51
1, 239306, Note_on_c, 0, 57, 0
1, 239366, Note_on_c, 0, 63, 0
1, 239460, Note_on_c, 9, 59, 0
1, 239524, Note_on_c, 1, 34, 61
1, 239528, Note_on_c, 9, 59, 64
1, 239564, Note_on_c, 9, 59, 0
1, 239584, Note_on_c, 1, 36, 0
1, 239628, Note_on_c, 1, 43, 81
1, 239636, Note_on_c, 9, 59, 75
1, 239640, Note_on_c, 1, 34, 0
1, 239654, Note_on_c, 0, 84, 59
1, 239654, Note_on_c, 0, 86, 58
1, 239666, Note_on_c, 0, 72, 55
1, 239674, Note_on_c, 0, 74, 47
1, 239694, Note_on_c, 0, 86, 0
1, 239694, Note_on_c, 0, 84, 0
1, 239710, Note_on_c, 0, 74, 0
1, 239718, Note_on_c, 0, 72, 0
1, 239900, Note_on_c, 9, 59, 0
1, 240000, Note_on_c, 1, 43, 0
1, 240008, Note_on_c, 1, 30, 83
1, 240010, Note_on_c, 0, 63, 49
1, 240010, Note_on_c, 0, 57, 49
1, 240020, Note_on_c, 0, 86, 66
1, 240020, Note_on_c, 9, 44, 46
1, 240026, Note_on_c, 0, 74, 66
1, 240034, Note_on_c, 0, 85, 50
1, 240044, Note_on_c, 9, 59, 71
1, 240066, Note_on_c, 0, 57, 0
1, 240126, Note_on_c, 0, 74, 0
1, 240130, Note_on_c, 0, 86, 0
1, 240134, Note_on_c, 0, 63, 0
1, 240158, Note_on_c, 0, 85, 0
1, 240176, Note_on_c, 9, 44, 0
1, 240208, Note_on_c, 9, 59, 0
1, 240280, Note_on_c, 9, 59, 58
1, 240316, Note_on_c, 9, 59, 0
1, 240344, Note_on_c, 1, 30, 0
1, 240384, Note_on_c, 1, 29, 86
1, 240396, Note_on_c, 9, 59, 70
1, 240416, Note_on_c, 9, 44, 47
1, 240426, Note_on_c, 0, 87, 77
1, 240434, Note_on_c, 0, 56, 71
1, 240438, Note_on_c, 0, 75, 68
1, 240442, Note_on_c, 0, 63, 63
1, 240454, Note_on_c, 0, 67, 48
1, 240458, Note_on_c, 0, 82, 57
1, 240504, Note_on_c, 9, 44, 0
1, 240514, Note_on_c, 0, 67, 0
1, 240628, Note_on_c, 9, 59, 0
1, 240694, Note_on_c, 0, 82, 0
1, 240710, Note_on_c, 0, 75, 0
1, 240714, Note_on_c, 0, 56, 0
1, 240718, Note_on_c, 0, 87, 0
1, 240746, Note_on_c, 0, 63, 0
1, 240752, Note_on_c, 1, 29, 0
1, 240780, Note_on_c, 1, 31, 80
1, 240788, Note_on_c, 9, 59, 78
1, 240802, Note_on_c, 0, 89, 75
1, 240814, Note_on_c, 0, 56, 54
1, 240814, Note_on_c, 0, 77, 72
1, 240822, Note_on_c, 0, 63, 73
1, 240826, Note_on_c, 0, 76, 42
1, 240862, Note_on_c, 0, 84, 38
1, 240870, Note_on_c, 0, 76, 0
1, 240910, Note_on_c, 0, 77, 0
1, 240914, Note_on_c, 0, 84, 0
1, 240934, Note_on_c, 0, 56, 0
1, 240942, Note_on_c, 0, 89, 0
1, 240954, Note_on_c, 0, 63, 0
1, 241002, Control_c, 0, 64, 127
1, 241004, Note_on_c, 9, 59, 0
1, 241070, Note_on_c, 0, 91, 72
1, 241078, Note_on_c, 0, 63, 58
1, 241082, Note_on_c, 0, 79, 60
1, 241082, Note_on_c, 0, 87, 46
1, 241094, Note_on_c, 0, 84, 49
1, 241106, Note_on_c, 0, 67, 41
1, 241126, Note_on_c, 0, 79, 0
1, 241130, Control_c, 0, 64, 0
1, 241134, Note_on_c, 0, 63, 0
1, 241158, Note_on_c, 0, 84, 0
1, 241158, Note_on_c, 0, 67, 0
1, 241164, Note_on_c, 1, 32, 95
1, 241172, Note_on_c, 9, 59, 76
1, 241174, Note_on_c, 0, 91, 0
1, 241186, Note_on_c, 0, 87, 0
1, 241188, Note_on_c, 1, 31, 0
1, 241188, Note_on_c, 9, 44, 55
1, 241264, Note_on_c, 9, 44, 0
1, 241336, Note_on_c, 9, 59, 0
1, 241376, Note_on_c, 1, 32, 0
1, 241376, Note_on_c, 0, 92, 67
1, 241394, Note_on_c, 0, 80, 55
1, 241428, Note_on_c, 1, 33, 89
1, 241434, Note_on_c, 0, 80, 0
1, 241456, Note_on_c, 9, 59, 48
1, 241470, Note_on_c, 0, 92, 0
1, 241488, Note_on_c, 9, 59, 0
1, 241520, Note_on_c, 1, 33, 0
1, 241552, Note_on_c, 9, 59, 75
1, 241556, Note_on_c, 1, 34, 89
1, 241564, Note_on_c, 9, 46, 51
1, 241578, Note_on_c, 0, 56, 58
1, 241578, Note_on_c, 0, 63, 61
1, 241590, Note_on_c, 0, 67, 64
1, 241598, Note_on_c, 0, 94, 68
1, 241602, Note_on_c, 0, 80, 61
1, 241606, Note_on_c, 0, 60, 58
1, 241606, Note_on_c, 0, 82, 55
1, 241646, Note_on_c, 0, 92, 31
1, 241722, Control_c, 0, 64, 127
1, 241768, Note_on_c, 9, 59, 0
1, 241830, Note_on_c, 0, 80, 0
1, 241874, Note_on_c, 0, 82, 0
1, 241898, Note_on_c, 0, 92, 0
1, 241906, Note_on_c, 0, 94, 0
1, 241906, Note_on_c, 0, 67, 0
1, 241926, Note_on_c, 0, 56, 0
1, 241930, Note_on_c, 0, 60, 0
1, 241940, Note_on_c, 9, 59, 78
1, 241954, Note_on_c, 0, 63, 0
1, 242022, Note_on_c, 0, 96, 68
1, 242022, Note_on_c, 0, 56, 57
1, 242034, Note_on_c, 0, 67, 60
1, 242038, Note_on_c, 0, 63, 68
1, 242042, Note_on_c, 0, 60, 58
1, 242050, Note_on_c, 0, 95, 49
1, 242090, Note_on_c, 0, 95, 0
1, 242134, Note_on_c, 0, 96, 0
1, 242136, Note_on_c, 9, 59, 0
1, 242206, Note_on_c, 0, 67, 0
1, 242258, Note_on_c, 0, 60, 0
1, 242266, Note_on_c, 0, 63, 0
1, 242306, Note_on_c, 0, 56, 0
1, 242344, Note_on_c, 9, 46, 0
1, 242468, Note_on_c, 1, 34, 0
1, 242472, Note_on_c, 1, 36, 72
1, 242538, Note_on_c, 0, 98, 81
1, 242546, Note_on_c, 0, 56, 66
1, 242550, Note_on_c, 0, 86, 68
1, 242550, Note_on_c, 0, 67, 73
1, 242550, Note_on_c, 0, 63, 66
1, 242554, Note_on_c, 0, 94, 56
1, 242566, Note_on_c, 0, 91, 59
1, 242568, Note_on_c, 0, 60, 58
1, 242568, Note_on_c, 9, 59, 67
1, 242576, Note_on_c, 1, 36, 0
1, 242594, Note_on_c, 0, 86, 0
1, 242604, Note_on_c, 1, 37, 67
1, 242608, Note_on_c, 9, 59, 0
1, 242618, Note_on_c, 0, 98, 0
1, 242618, Note_on_c, 0, 67, 0
1, 242636, Note_on_c, 1, 37, 0
1, 242662, Note_on_c, 0, 63, 0
1, 242674, Note_on_c, 0, 91, 0
1, 242674, Note_on_c, 0, 94, 0
1, 242678, Note_on_c, 0, 56, 0
1, 242702, Note_on_c, 0, 60, 0
1, 242704, Note_on_c, 9, 59, 67
1, 242716, Note_on_c, 1, 38, 87
1, 242722, Control_c, 0, 64, 0
1, 242742, Note_on_c, 0, 99, 83
1, 242750, Note_on_c, 0, 87, 72
1, 242754, Note_on_c, 0, 66, 86
1, 242758, Note_on_c, 0, 56, 76
1, 242762, Note_on_c, 0, 62, 75
1, 242770, Note_on_c, 0, 91, 53
1, 242802, Note_on_c, 0, 60, 42
1, 242822, Note_on_c, 0, 91, 0
1, 242822, Note_on_c, 0, 97, 26
1, 242974, Control_c, 0, 64, 127
1, 242980, Note_on_c, 9, 59, 0
1, 243086, Note_on_c, 0, 97, 0
1, 243100, Note_on_c, 9, 59, 43
1, 243114, Note_on_c, 0, 87, 0
1, 243126, Note_on_c, 0, 60, 0
1, 243130, Note_on_c, 0, 66, 0
1, 243134, Note_on_c, 0, 56, 0
1, 243142, Note_on_c, 0, 99, 0
1, 243156, Note_on_c, 9, 59, 0
1, 243182, Note_on_c, 0, 62, 0
1, 243322, Note_on_c, 0, 101, 75
1, 243330, Note_on_c, 0, 89, 80
1, 243330, Note_on_c, 0, 56, 66
1, 243330, Note_on_c, 0, 66, 82
1, 243354, Note_on_c, 0, 62, 60
1, 243372, Note_on_c, 9, 59, 61
1, 243376, Note_on_c, 1, 50, 89
1, 243394, Note_on_c, 0, 60, 42
1, 243400, Note_on_c, 9, 59, 0
1, 243476, Note_on_c, 9, 44, 47
1, 243494, Note_on_c, 0, 101, 0
1, 243496, Note_on_c, 9, 59, 82
1, 243562, Note_on_c, 0, 89, 0
1, 243576, Note_on_c, 9, 44, 0
1, 243578, Note_on_c, 0, 66, 0
1, 243614, Note_on_c, 0, 60, 0
1, 243674, Note_on_c, 0, 62, 0
1, 243682, Note_on_c, 0, 56, 0
1, 243752, Note_on_c, 1, 37, 58
1, 243756, Note_on_c, 9, 59, 0
1, 243792, Note_on_c, 1, 38, 0
1, 243804, Note_on_c, 1, 50, 0
1, 243834, Note_on_c, 0, 65, 78
1, 243844, Note_on_c, 1, 37, 0
1, 243850, Note_on_c, 0, 62, 57
1, 243850, Note_on_c, 0, 55, 60
1, 243850, Note_on_c, 0, 60, 62
1, 243872, Note_on_c, 1, 39, 90
1, 243892, Note_on_c, 9, 59, 47
1, 243914, Control_c, 0, 64, 0
1, 243956, Note_on_c, 9, 59, 0
1, 244132, Note_on_c, 9, 59, 95
1, 244190, Control_c, 0, 64, 127
1, 244232, Note_on_c, 9, 59, 0
1, 244308, Note_on_c, 9, 59, 58
1, 244318, Note_on_c, 0, 65, 0
1, 244354, Note_on_c, 0, 55, 0
1, 244378, Note_on_c, 0, 60, 0
1, 244386, Note_on_c, 0, 62, 0
1, 244516, Note_on_c, 1, 43, 105
1, 244532, Note_on_c, 9, 59, 0
1, 244542, Note_on_c, 0, 65, 65
1, 244546, Note_on_c, 0, 62, 48
1, 244546, Note_on_c, 0, 55, 57
1, 244546, Note_on_c, 0, 60, 52
1, 244584, Note_on_c, 1, 39, 0
1, 244606, Note_on_c, 0, 65, 0
1, 244628, Note_on_c, 9, 44, 43
1, 244642, Note_on_c, 0, 62, 0
1, 244658, Note_on_c, 0, 60, 0
1, 244660, Note_on_c, 9, 59, 37
1, 244724, Note_on_c, 9, 59, 0
1, 244776, Note_on_c, 9, 44, 0
1, 244888, Note_on_c, 9, 59, 86
1, 244894, Note_on_c, 0, 55, 0
1, 244900, Note_on_c, 1, 39, 74
1, 244960, Note_on_c, 1, 43, 0
1, 244972, Note_on_c, 9, 59, 0
1, 245000, Note_on_c, 1, 39, 0
1, 245032, Note_on_c, 1, 40, 102
1, 245032, Note_on_c, 9, 44, 43
1, 245036, Note_on_c, 9, 59, 69
1, 245196, Note_on_c, 9, 44, 0
1, 245276, Note_on_c, 9, 59, 0
1, 245412, Note_on_c, 9, 59, 53
1, 245426, Note_on_c, 0, 81, 81
1, 245446, Note_on_c, 0, 70, 56
1, 245450, Note_on_c, 0, 73, 54
1, 245450, Note_on_c, 0, 69, 71
1, 245452, Note_on_c, 9, 59, 0
1, 245458, Control_c, 0, 64, 0
1, 245486, Note_on_c, 0, 76, 40
1, 245530, Note_on_c, 0, 76, 0
1, 245530, Note_on_c, 0, 70, 0
1, 245530, Note_on_c, 0, 73, 0
1, 245546, Note_on_c, 0, 69, 0
1, 245606, Note_on_c, 0, 81, 0
1, 245656, Note_on_c, 1, 43, 114
1, 245664, Note_on_c, 9, 59, 87
1, 245720, Note_on_c, 1, 40, 0
1, 245736, Note_on_c, 9, 59, 0
1, 245796, Note_on_c, 9, 44, 52
1, 245802, Note_on_c, 0, 67, 63
1, 245804, Note_on_c, 9, 59, 67
1, 245818, Note_on_c, 0, 70, 57
1, 245838, Note_on_c, 0, 73, 45
1, 245862, Note_on_c, 0, 67, 0
1, 245876, Note_on_c, 9, 44, 0
1, 245886, Note_on_c, 0, 73, 0
1, 245930, Note_on_c, 0, 70, 0
1, 245976, Note_on_c, 9, 59, 0
1, 246052, Note_on_c, 1, 40, 67
1, 246080, Note_on_c, 1, 43, 0
1, 246160, Note_on_c, 1, 40, 0
1, 246176, Note_on_c, 1, 41, 91
1, 246184, Note_on_c, 9, 59, 79
1, 246184, Note_on_c, 9, 44, 48
1, 246190, Control_c, 0, 64, 127
1, 246226, Note_on_c, 0, 77, 52
1, 246230, Note_on_c, 0, 65, 39
1, 246234, Note_on_c, 0, 70, 48
1, 246246, Note_on_c, 0, 74, 48
1, 246284, Note_on_c, 9, 44, 0
1, 246378, Note_on_c, 0, 74, 0
1, 246382, Note_on_c, 0, 77, 0
1, 246422, Note_on_c, 0, 70, 0
1, 246442, Note_on_c, 0, 65, 0
1, 246488, Note_on_c, 9, 59, 0
1, 246544, Note_on_c, 9, 53, 53
1, 246824, Note_on_c, 1, 29, 81
1, 246844, Note_on_c, 9, 53, 0
1, 246936, Note_on_c, 9, 53, 52
1, 246936, Note_on_c, 9, 44, 46
1, 247016, Note_on_c, 9, 44, 0
1, 247192, Note_on_c, 9, 53, 0
1, 247226, Note_on_c, 0, 53, 47
1, 247226, Note_on_c, 0, 58, 55
1, 247228, Note_on_c, 0, 62, 34
1, 247228, Note_on_c, 9, 59, 49
1, 247260, Note_on_c, 1, 29, 0
1, 247266, Note_on_c, 0, 53, 0
1, 247268, Note_on_c, 9, 59, 0
1, 247290, Note_on_c, 0, 62, 0
1, 247290, Control_c, 0, 64, 0
1, 247332, Note_on_c, 9, 46, 48
1, 247334, Note_on_c, 0, 58, 0
1, 247348, Note_on_c, 9, 59, 61
1, 247360, Note_on_c, 1, 29, 85
1, 247386, Note_on_c, 0, 54, 69
1, 247394, Note_on_c, 0, 63, 61
1, 247406, Note_on_c, 0, 41, 40
1, 247462, Note_on_c, 0, 59, 25
1, 247482, Note_on_c, 0, 41, 0
1, 247518, Note_on_c, 0, 59, 0
1, 247534, Note_on_c, 0, 54, 0
1, 247570, Note_on_c, 0, 63, 0
1, 247744, Note_on_c, 9, 53, 52
1, 247758, Note_on_c, 0, 55, 58
1, 247758, Note_on_c, 0, 64, 52
1, 247770, Note_on_c, 0, 41, 54
1, 247774, Note_on_c, 0, 60, 52
1, 247802, Note_on_c, 0, 64, 0
1, 247850, Note_on_c, 0, 55, 0
1, 247860, Note_on_c, 9, 46, 0
1, 247866, Note_on_c, 0, 41, 0
1, 247874, Note_on_c, 0, 60, 0
1, 247876, Note_on_c, 9, 59, 0
1, 248096, Note_on_c, 9, 44, 46
1, 248110, Note_on_c, 0, 54, 63
1, 248114, Note_on_c, 0, 63, 54
1, 248130, Note_on_c, 0, 41, 49
1, 248158, Note_on_c, 0, 59, 40
1, 248216, Note_on_c, 1, 29, 0
1, 248218, Note_on_c, 0, 59, 0
1, 248222, Note_on_c, 0, 41, 0
1, 248262, Note_on_c, 0, 63, 0
1, 248284, Note_on_c, 9, 44, 0
1, 248294, Note_on_c, 0, 54, 0
1, 248352, Note_on_c, 1, 29, 58
1, 248356, Note_on_c, 9, 59, 54
1, 248392, Note_on_c, 9, 59, 0
1, 248412, Note_on_c, 1, 41, 0
1, 248452, Note_on_c, 1, 29, 0
1, 248476, Note_on_c, 1, 41, 91
1, 248500, Note_on_c, 9, 53, 0
1, 248500, Note_on_c, 9, 59, 52
1, 248506, Note_on_c, 0, 62, 58
1, 248510, Note_on_c, 0, 53, 57
1, 248526, Note_on_c, 0, 41, 53
1, 248586, Note_on_c, 0, 58, 7
1, 248682, Note_on_c, 0, 58, 0
1, 248718, Note_on_c, 0, 62, 0
1, 248734, Note_on_c, 0, 53, 0
1, 248822, Note_on_c, 0, 41, 0
1, 248880, Note_on_c, 9, 53, 44
1, 248906, Note_on_c, 0, 61, 57
1, 248910, Note_on_c, 0, 57, 55
1, 248922, Note_on_c, 0, 52, 46
1, 248946, Note_on_c, 0, 41, 39
1, 248978, Note_on_c, 0, 52, 0
1, 249014, Note_on_c, 0, 41, 0
1, 249022, Note_on_c, 0, 57, 0
1, 249034, Note_on_c, 0, 61, 0
1, 249052, Note_on_c, 9, 53, 0
1, 249124, Note_on_c, 1, 29, 70
1, 249168, Note_on_c, 1, 29, 0
1, 249216, Note_on_c, 9, 59, 0
1, 249240, Note_on_c, 9, 44, 40
1, 249256, Note_on_c, 9, 53, 42
1, 249260, Note_on_c, 1, 29, 67
1, 249274, Note_on_c, 0, 60, 60
1, 249282, Note_on_c, 0, 41, 43
1, 249294, Note_on_c, 0, 51, 52
1, 249294, Note_on_c, 0, 56, 57
1, 249382, Note_on_c, 0, 41, 0
1, 249388, Note_on_c, 9, 44, 0
1, 249426, Note_on_c, 0, 60, 0
1, 249432, Note_on_c, 1, 29, 0
1, 249490, Note_on_c, 0, 56, 0
1, 249502, Note_on_c, 0, 51, 0
1, 249564, Note_on_c, 9, 53, 0
1, 249620, Note_on_c, 9, 59, 50
1, 249636, Note_on_c, 1, 29, 83
1, 249654, Note_on_c, 0, 59, 52
1, 249662, Note_on_c, 0, 41, 49
1, 249670, Note_on_c, 0, 50, 41
1, 249690, Note_on_c, 0, 55, 42
1, 249744, Note_on_c, 9, 59, 0
1, 249846, Note_on_c, 0, 50, 0
1, 249866, Note_on_c, 0, 59, 0
1, 249892, Note_on_c, 9, 59, 56
1, 249914, Note_on_c, 0, 55, 0
1, 249960, Note_on_c, 9, 59, 0
1, 250044, Note_on_c, 1, 41, 0
1, 250082, Note_on_c, 0, 54, 33
1, 250142, Note_on_c, 0, 54, 0
1, 250276, Note_on_c, 9, 59, 53
1, 250344, Note_on_c, 9, 59, 0
1, 250378, Note_on_c, 0, 29, 58
1, 250388, Note_on_c, 9, 44, 39
1, 250424, Note_on_c, 9, 59, 50
1, 250508, Note_on_c, 9, 44, 0
1, 250596, Note_on_c, 9, 59, 0
1, 250624, Note_on_c, 1, 41, 72
1, 250644, Note_on_c, 9, 59, 55
1, 250696, Note_on_c, 1, 41, 0
1, 250724, Note_on_c, 9, 59, 0
1, 250756, Note_on_c, 1, 41, 92
1, 250772, Note_on_c, 9, 44, 42
1, 250800, Note_on_c, 9, 59, 53
1, 250812, Note_on_c, 1, 29, 0
1, 250862, Control_c, 0, 64, 127
1, 250920, Note_on_c, 9, 44, 0
1, 251010, Note_on_c, 0, 29, 0
1, 251012, Note_on_c, 9, 59, 0
1, 251036, Note_on_c, 9, 53, 52
1, 251066, Note_on_c, 0, 41, 0
1, 251132, Note_on_c, 9, 53, 0
1, 251156, Note_on_c, 9, 59, 48
1, 251364, Note_on_c, 9, 59, 0
1, 251408, Note_on_c, 1, 29, 75
1, 251412, Note_on_c, 9, 53, 43
1, 251456, Note_on_c, 9, 53, 0
1, 251492, Note_on_c, 1, 29, 0
1, 251548, Note_on_c, 9, 59, 47
1, 251548, Note_on_c, 9, 44, 41
1, 251552, Note_on_c, 1, 29, 66
1, 251610, Note_on_c, 0, 53, 40
1, 251654, Note_on_c, 0, 53, 0
1, 251704, Note_on_c, 9, 59, 0
1, 251736, Note_on_c, 1, 29, 0
1, 251764, Note_on_c, 9, 44, 0
1, 251800, Note_on_c, 9, 53, 33
1, 251840, Note_on_c, 9, 53, 0
1, 251936, Note_on_c, 1, 29, 76
1, 251936, Note_on_c, 9, 59, 41
1, 251988, Note_on_c, 9, 59, 0
1, 252308, Note_on_c, 9, 59, 40
1, 252326, Note_on_c, 0, 53, 48
1, 252326, Note_on_c, 0, 74, 59
1, 252338, Note_on_c, 0, 70, 49
1, 252342, Note_on_c, 0, 65, 42
1, 252374, Note_on_c, 0, 53, 0
1, 252394, Note_on_c, 0, 74, 0
1, 252394, Note_on_c, 0, 70, 0
1, 252402, Note_on_c, 0, 65, 0
1, 252438, Control_c, 0, 64, 0
1, 252500, Note_on_c, 9, 59, 0
1, 252546, Note_on_c, 0, 70, 64
1, 252582, Note_on_c, 0, 53, 43
1, 252642, Note_on_c, 0, 53, 0
1, 252646, Note_on_c, 0, 70, 0
1, 252696, Note_on_c, 9, 59, 45
1, 252696, Note_on_c, 9, 44, 42
1, 252714, Note_on_c, 0, 53, 39
1, 252714, Note_on_c, 0, 75, 85
1, 252722, Note_on_c, 0, 66, 83
1, 252742, Note_on_c, 0, 71, 69
1, 252756, Note_on_c, 1, 41, 0
1, 252858, Note_on_c, 0, 66, 0
1, 252862, Note_on_c, 0, 75, 0
1, 252878, Note_on_c, 0, 53, 0
1, 252890, Note_on_c, 0, 71, 0
1, 252904, Note_on_c, 9, 44, 0
1, 252938, Note_on_c, 0, 75, 72
1, 252938, Note_on_c, 0, 66, 66
1, 252960, Note_on_c, 1, 41, 61
1, 252966, Note_on_c, 0, 71, 47
1, 252992, Note_on_c, 1, 41, 0
1, 253002, Note_on_c, 0, 53, 54
1, 253006, Note_on_c, 0, 71, 0
1, 253042, Note_on_c, 0, 66, 0
1, 253050, Note_on_c, 0, 75, 0
1, 253092, Note_on_c, 1, 41, 60
1, 253118, Note_on_c, 0, 74, 58
1, 253118, Note_on_c, 0, 65, 48
1, 253126, Note_on_c, 0, 70, 48
1, 253222, Note_on_c, 0, 70, 0
1, 253222, Note_on_c, 0, 65, 0
1, 253250, Note_on_c, 0, 74, 0
1, 253258, Note_on_c, 0, 53, 0
1, 253260, Note_on_c, 9, 59, 0
1, 253322, Note_on_c, 0, 74, 41
1, 253330, Note_on_c, 0, 70, 56
1, 253348, Note_on_c, 9, 59, 46
1, 253350, Note_on_c, 0, 65, 32
1, 253388, Note_on_c, 9, 59, 0
1, 253390, Note_on_c, 0, 74, 0
1, 253406, Note_on_c, 0, 65, 0
1, 253418, Note_on_c, 0, 53, 46
1, 253446, Note_on_c, 0, 70, 0
1, 253482, Note_on_c, 0, 73, 53
1, 253492, Note_on_c, 9, 59, 33
1, 253508, Note_on_c, 1, 29, 0
1, 253514, Note_on_c, 0, 69, 39
1, 253534, Note_on_c, 0, 64, 36
1, 253618, Note_on_c, 0, 64, 0
1, 253662, Note_on_c, 0, 73, 0
1, 253678, Note_on_c, 0, 53, 0
1, 253678, Note_on_c, 0, 69, 0
1, 253692, Note_on_c, 1, 29, 57
1, 253772, Note_on_c, 1, 29, 0
1, 253840, Note_on_c, 1, 29, 61
1, 253844, Note_on_c, 9, 44, 57
1, 253866, Note_on_c, 0, 74, 56
1, 253882, Note_on_c, 0, 53, 49
1, 253886, Note_on_c, 0, 70, 48
1, 253918, Note_on_c, 0, 65, 25
1, 253928, Note_on_c, 9, 44, 0
1, 253928, Note_on_c, 9, 59, 0
1, 253986, Note_on_c, 0, 65, 0
1, 254002, Note_on_c, 0, 74, 0
1, 254010, Note_on_c, 0, 53, 0
1, 254026, Note_on_c, 1, 29, 0
1, 254054, Note_on_c, 0, 70, 0
1, 254104, Note_on_c, 9, 59, 35
1, 254156, Note_on_c, 9, 59, 0
1, 254228, Note_on_c, 1, 29, 70
1, 254232, Note_on_c, 9, 46, 69
1, 254244, Note_on_c, 9, 59, 29
1, 254250, Note_on_c, 0, 41, 59
1, 254652, Note_on_c, 9, 59, 0
1, 254840, Note_on_c, 9, 59, 32
1, 254862, Note_on_c, 0, 53, 49
1, 254888, Note_on_c, 9, 59, 0
1, 254924, Note_on_c, 9, 46, 0
1, 254980, Note_on_c, 9, 59, 34
1, 255008, Note_on_c, 9, 44, 37
1, 255048, Note_on_c, 1, 41, 0
1, 255152, Note_on_c, 9, 44, 0
1, 255278, Note_on_c, 0, 41, 0
1, 255280, Note_on_c, 9, 59, 0
1, 255392, Note_on_c, 9, 44, 40
1, 255394, Note_on_c, 0, 41, 55
1, 255400, Note_on_c, 1, 41, 53
1, 255448, Note_on_c, 1, 29, 0
1, 255448, Note_on_c, 9, 59, 20
1, 255458, Note_on_c, 0, 53, 0
1, 255524, Note_on_c, 9, 44, 0
1, 255752, Note_on_c, 9, 59, 0
1, 255994, Note_on_c, 0, 53, 48
1, 256172, Note_on_c, 9, 44, 47
1, 256184, Note_on_c, 9, 59, 35
1, 256210, Note_on_c, 0, 53, 0
1, 256320, Note_on_c, 9, 44, 0
1, 256402, Note_on_c, 0, 53, 41
1, 256530, Note_on_c, 0, 70, 48
1, 256534, Note_on_c, 0, 61, 44
1, 256542, Note_on_c, 0, 66, 49
1, 256548, Note_on_c, 9, 44, 47
1, 256560, Note_on_c, 1, 29, 51
1, 256578, Note_on_c, 0, 53, 0
1, 256668, Note_on_c, 9, 44, 0
1, 256714, Note_on_c, 0, 70, 0
1, 256732, Note_on_c, 1, 41, 0
1, 256754, Note_on_c, 0, 61, 0
1, 256794, Note_on_c, 0, 66, 0
1, 256898, Note_on_c, 0, 53, 46
1, 256904, Note_on_c, 9, 59, 0
1, 256914, Note_on_c, 0, 71, 54
1, 256918, Note_on_c, 0, 62, 46
1, 256950, Note_on_c, 0, 67, 39
1, 257042, Note_on_c, 0, 62, 0
1, 257050, Note_on_c, 0, 71, 0
1, 257110, Note_on_c, 0, 67, 0
1, 257138, Note_on_c, 0, 53, 0
1, 257304, Note_on_c, 0, 61, 47
1, 257304, Note_on_c, 9, 44, 35
1, 257314, Note_on_c, 0, 66, 52
1, 257314, Note_on_c, 0, 70, 44
1, 257316, Note_on_c, 9, 59, 29
1, 257326, Note_on_c, 0, 53, 34
1, 257426, Note_on_c, 0, 53, 0
1, 257444, Note_on_c, 9, 44, 0
1, 257518, Note_on_c, 0, 70, 0
1, 257542, Note_on_c, 0, 66, 0
1, 257550, Note_on_c, 0, 61, 0
1, 257678, Note_on_c, 0, 53, 41
1, 257698, Note_on_c, 0, 60, 42
1, 257698, Note_on_c, 0, 65, 46
1, 257704, Note_on_c, 1, 41, 42
1, 257714, Note_on_c, 0, 69, 35
1, 257814, Note_on_c, 0, 53, 0
1, 257818, Note_on_c, 0, 69, 0
1, 257826, Note_on_c, 0, 65, 0
1, 257882, Note_on_c, 0, 60, 0
1, 257996, Note_on_c, 1, 29, 0
1, 258078, Note_on_c, 0, 64, 41
1, 258086, Note_on_c, 0, 53, 39
1, 258090, Note_on_c, 0, 68, 45
1, 258096, Note_on_c, 9, 59, 34
1, 258164, Note_on_c, 9, 59, 0
1, 258182, Note_on_c, 0, 53, 0
1, 258194, Note_on_c, 0, 64, 0
1, 258242, Note_on_c, 0, 68, 0
1, 258448, Note_on_c, 9, 44, 35
1, 258474, Note_on_c, 0, 53, 37
1, 258474, Note_on_c, 0, 67, 42
1, 258482, Note_on_c, 0, 58, 44
1, 258490, Note_on_c, 0, 63, 45
1, 258562, Note_on_c, 0, 63, 0
1, 258576, Note_on_c, 9, 44, 0
1, 258582, Note_on_c, 0, 53, 0
1, 258594, Note_on_c, 0, 67, 0
1, 258602, Note_on_c, 0, 58, 0
1, 258700, Note_on_c, 9, 59, 35
1, 258748, Note_on_c, 9, 59, 0
1, 258778, Control_c, 0, 64, 127
1, 258808, Note_on_c, 1, 41, 0
1, 258820, Note_on_c, 1, 29, 40
1, 258858, Note_on_c, 0, 66, 48
1, 258858, Note_on_c, 0, 53, 39
1, 258866, Note_on_c, 0, 57, 40
1, 258874, Note_on_c, 0, 62, 46
1, 258912, Note_on_c, 9, 59, 17
1, 258984, Note_on_c, 9, 59, 0
1, 259018, Note_on_c, 0, 41, 0
1, 259218, Note_on_c, 0, 62, 0
1, 259226, Note_on_c, 0, 57, 0
1, 259230, Note_on_c, 0, 41, 45
1, 259258, Note_on_c, 0, 53, 0
1, 259286, Note_on_c, 0, 66, 0
1, 259438, Control_c, 0, 64, 0
1, 259522, Note_on_c, 0, 56, 48
1, 259526, Note_on_c, 0, 61, 50
1, 259532, Note_on_c, 9, 59, 26
1, 259546, Note_on_c, 0, 53, 37
1, 259558, Note_on_c, 0, 65, 38
1, 259584, Note_on_c, 9, 59, 0
1, 259622, Control_c, 0, 64, 127
1, 259630, Note_on_c, 0, 53, 0
1, 259810, Note_on_c, 0, 65, 0
1, 259894, Note_on_c, 0, 61, 0
1, 259894, Note_on_c, 0, 56, 0
1, 259984, Note_on_c, 9, 44, 39
1, 260042, Note_on_c, 0, 64, 48
1, 260048, Note_on_c, 1, 41, 41
1, 260058, Note_on_c, 0, 53, 43
1, 260058, Note_on_c, 0, 55, 36
1, 260066, Control_c, 0, 64, 0
1, 260084, Note_on_c, 9, 44, 0
1, 260134, Note_on_c, 0, 60, 23
1, 260226, Control_c, 0, 64, 127
1, 260300, Note_on_c, 9, 59, 0
1, 260330, Note_on_c, 0, 41, 0
1, 260330, Note_on_c, 0, 64, 0
1, 260370, Note_on_c, 0, 55, 0
1, 260378, Note_on_c, 0, 60, 0
1, 260378, Note_on_c, 0, 53, 0
1, 260420, Note_on_c, 9, 59, 43
1, 260650, Note_on_c, 0, 54, 40
1, 260662, Note_on_c, 0, 63, 42
1, 260702, Note_on_c, 0, 59, 39
1, 260784, Note_on_c, 9, 59, 47
1, 260834, Note_on_c, 0, 59, 0
1, 260848, Note_on_c, 1, 29, 0
1, 260878, Note_on_c, 0, 63, 0
1, 260918, Note_on_c, 0, 54, 0
1, 261128, Note_on_c, 1, 29, 42
1, 261194, Control_c, 0, 64, 0
1, 261206, Note_on_c, 0, 62, 50
1, 261216, Note_on_c, 1, 41, 0
1, 261218, Note_on_c, 0, 53, 41
1, 261226, Note_on_c, 0, 58, 48
1, 261230, Note_on_c, 0, 41, 36
1, 261246, Note_on_c, 0, 29, 30
1, 261338, Control_c, 0, 64, 127
1, 261462, Note_on_c, 0, 62, 0
1, 261542, Note_on_c, 0, 41, 0
1, 261564, Note_on_c, 9, 59, 0
1, 261566, Note_on_c, 0, 53, 0
1, 261598, Note_on_c, 0, 29, 0
1, 261602, Note_on_c, 0, 58, 0
1, 261612, Note_on_c, 9, 44, 24
1, 261616, Note_on_c, 9, 59, 0
1, 261818, Note_on_c, 0, 61, 46
1, 261842, Note_on_c, 0, 52, 34
1, 261846, Note_on_c, 0, 57, 38
1, 261854, Note_on_c, 0, 41, 36
1, 261878, Note_on_c, 0, 29, 32
1, 261912, Note_on_c, 9, 59, 28
1, 261956, Note_on_c, 9, 44, 0
1, 261960, Note_on_c, 9, 59, 41
1, 261962, Note_on_c, 0, 52, 0
1, 261970, Note_on_c, 0, 57, 0
1, 261970, Note_on_c, 0, 41, 0
1, 261990, Note_on_c, 0, 61, 0
1, 262034, Note_on_c, 0, 29, 0
1, 262350, Control_c, 0, 64, 0
1, 262394, Note_on_c, 0, 29, 37
1, 262394, Note_on_c, 0, 51, 41
1, 262406, Note_on_c, 0, 56, 44
1, 262414, Note_on_c, 0, 41, 25
1, 262418, Note_on_c, 0, 60, 39
1, 262550, Control_c, 0, 64, 127
1, 262642, Note_on_c, 0, 60, 0
1, 262662, Note_on_c, 0, 41, 0
1, 262692, Note_on_c, 9, 59, 0
1, 262710, Note_on_c, 0, 51, 0
1, 262740, Note_on_c, 9, 44, 22
1, 262746, Note_on_c, 0, 56, 0
1, 262882, Note_on_c, 0, 29, 0
1, 262950, Control_c, 0, 64, 0
1, 262956, Note_on_c, 9, 59, 0
1, 262964, Note_on_c, 9, 44, 0
1, 262974, Note_on_c, 0, 29, 31
1, 262990, Note_on_c, 0, 50, 39
1, 262994, Note_on_c, 0, 59, 42
1, 263014, Note_on_c, 0, 41, 30
1, 263034, Note_on_c, 0, 55, 37
1, 263082, Note_on_c, 0, 41, 0
1, 263084, Note_on_c, 9, 59, 42
1, 263094, Control_c, 0, 64, 127
1, 263122, Note_on_c, 0, 50, 0
1, 263130, Note_on_c, 0, 59, 0
1, 263138, Note_on_c, 0, 55, 0
1, 263174, Note_on_c, 0, 29, 0
1, 263518, Note_on_c, 0, 58, 45
1, 263530, Note_on_c, 0, 54, 41
1, 263542, Control_c, 0, 64, 72
1, 263542, Note_on_c, 0, 29, 31
1, 263546, Control_c, 0, 64, 0
1, 263550, Note_on_c, 0, 49, 30
1, 263554, Note_on_c, 0, 41, 25
1, 265104, Note_on_c, 9, 59, 0
1, 265728, Note_on_c, 1, 29, 0
1, 265842, Note_on_c, 0, 49, 0
1, 265846, Note_on_c, 0, 29, 0
1, 265902, Note_on_c, 0, 54, 0
1, 265942, Note_on_c, 0, 41, 0
1, 265950, Note_on_c, 0, 58, 0
1, 265950, End_track
0, 0, End_of_file
