0, 0, Header, 1, 2, 120
1, 0, Start_track
1, 0, Title_t, "Some Other Time"
1, 0, Text_t, "Leonard Bernstein"
1, 0, Text_t, "Made popular in jazz by Bill Evans\012"
1, 0, Text_t, "Sequence by dougmck@pipeline.com.au\012"
1, 0, Time_signature, 4, 2, 24, 8
1, 0, Key_signature, 0, "major"
1, 0, Tempo, 1000000
1, 0, Marker_t, "'Some Other Time' Made popular in jazz by Bill Evans"
1, 0, End_track
2, 0, Start_track
2, 0, Title_t, "dougmck@pipeline.com.au"
2, 0, Control_c, 0, 64, 127
2, 0, Control_c, 0, 64, 0
2, 1, Note_on_c, 0, 36, 46
2, 4, Control_c, 0, 64, 127
2, 30, Note_on_c, 0, 36, 0
2, 122, Note_on_c, 0, 64, 34
2, 124, Note_on_c, 0, 59, 44
2, 126, Note_on_c, 0, 60, 33
2, 154, Note_on_c, 0, 59, 0
2, 157, Note_on_c, 0, 60, 0
2, 158, Note_on_c, 0, 64, 0
2, 243, Note_on_c, 0, 65, 29
2, 243, Control_c, 0, 64, 0
2, 244, Note_on_c, 0, 57, 39
2, 245, Note_on_c, 0, 60, 33
2, 261, Control_c, 0, 64, 127
2, 277, Note_on_c, 0, 65, 0
2, 279, Note_on_c, 0, 60, 0
2, 284, Note_on_c, 0, 57, 0
2, 357, Note_on_c, 0, 31, 44
2, 358, Note_on_c, 0, 43, 35
2, 389, Note_on_c, 0, 43, 0
2, 394, Note_on_c, 0, 31, 0
2, 482, Note_on_c, 0, 24, 65
2, 484, Note_on_c, 0, 36, 72
2, 493, Control_c, 0, 64, 0
2, 514, Control_c, 0, 64, 127
2, 532, Note_on_c, 0, 24, 0
2, 536, Note_on_c, 0, 36, 0
2, 605, Note_on_c, 0, 64, 37
2, 606, Note_on_c, 0, 59, 50
2, 606, Note_on_c, 0, 60, 49
2, 648, Note_on_c, 0, 59, 0
2, 652, Note_on_c, 0, 60, 0
2, 652, Note_on_c, 0, 64, 0
2, 723, Note_on_c, 0, 65, 40
2, 725, Note_on_c, 0, 55, 35
2, 726, Note_on_c, 0, 57, 51
2, 726, Note_on_c, 0, 60, 54
2, 732, Control_c, 0, 64, 0
2, 751, Control_c, 0, 64, 127
2, 777, Note_on_c, 0, 65, 0
2, 778, Note_on_c, 0, 60, 0
2, 784, Note_on_c, 0, 57, 0
2, 785, Note_on_c, 0, 55, 0
2, 844, Note_on_c, 0, 43, 61
2, 882, Control_c, 0, 64, 0
2, 910, Control_c, 0, 64, 127
2, 968, Control_c, 0, 64, 0
2, 973, Note_on_c, 0, 36, 46
2, 977, Note_on_c, 0, 43, 0
2, 989, Control_c, 0, 64, 127
2, 1016, Note_on_c, 0, 36, 0
2, 1080, Note_on_c, 0, 59, 47
2, 1080, Note_on_c, 0, 60, 42
2, 1080, Note_on_c, 0, 64, 36
2, 1122, Note_on_c, 0, 60, 0
2, 1123, Note_on_c, 0, 59, 0
2, 1129, Note_on_c, 0, 64, 0
2, 1195, Control_c, 0, 64, 0
2, 1200, Note_on_c, 0, 57, 39
2, 1200, Note_on_c, 0, 55, 34
2, 1200, Note_on_c, 0, 60, 36
2, 1200, Note_on_c, 0, 65, 34
2, 1214, Control_c, 0, 64, 127
2, 1237, Note_on_c, 0, 60, 0
2, 1238, Note_on_c, 0, 65, 0
2, 1247, Note_on_c, 0, 57, 0
2, 1249, Note_on_c, 0, 55, 0
2, 1313, Note_on_c, 0, 43, 91
2, 1390, Note_on_c, 0, 43, 0
2, 1444, Note_on_c, 0, 36, 66
2, 1449, Control_c, 0, 64, 0
2, 1469, Control_c, 0, 64, 127
2, 1489, Note_on_c, 0, 36, 0
2, 1566, Note_on_c, 0, 64, 34
2, 1568, Note_on_c, 0, 59, 37
2, 1568, Note_on_c, 0, 60, 44
2, 1576, Control_c, 0, 64, 0
2, 1586, Control_c, 0, 64, 127
2, 1630, Note_on_c, 0, 64, 0
2, 1632, Note_on_c, 0, 59, 0
2, 1637, Note_on_c, 0, 60, 0
2, 1687, Note_on_c, 0, 55, 31
2, 1687, Note_on_c, 0, 65, 38
2, 1688, Control_c, 0, 64, 0
2, 1689, Note_on_c, 0, 57, 42
2, 1690, Note_on_c, 0, 60, 47
2, 1705, Control_c, 0, 64, 127
2, 1719, Note_on_c, 0, 60, 0
2, 1720, Note_on_c, 0, 65, 0
2, 1728, Note_on_c, 0, 57, 0
2, 1728, Note_on_c, 0, 55, 0
2, 1799, Note_on_c, 0, 43, 42
2, 1921, Note_on_c, 0, 36, 44
2, 1922, Note_on_c, 0, 76, 69
2, 1923, Note_on_c, 0, 52, 64
2, 1924, Control_c, 0, 64, 0
2, 1926, Note_on_c, 0, 43, 0
2, 1941, Control_c, 0, 64, 127
2, 1961, Note_on_c, 0, 36, 0
2, 1974, Note_on_c, 0, 76, 0
2, 1974, Note_on_c, 0, 52, 0
2, 1983, Note_on_c, 0, 77, 90
2, 2032, Note_on_c, 0, 77, 0
2, 2039, Note_on_c, 0, 64, 64
2, 2039, Note_on_c, 0, 79, 74
2, 2040, Note_on_c, 0, 60, 59
2, 2040, Note_on_c, 0, 59, 61
2, 2044, Control_c, 0, 64, 0
2, 2066, Control_c, 0, 64, 127
2, 2096, Note_on_c, 0, 79, 0
2, 2102, Note_on_c, 0, 79, 77
2, 2117, Note_on_c, 0, 59, 0
2, 2120, Note_on_c, 0, 64, 0
2, 2121, Note_on_c, 0, 60, 0
2, 2136, Note_on_c, 0, 79, 0
2, 2163, Note_on_c, 0, 79, 51
2, 2163, Note_on_c, 0, 65, 36
2, 2163, Note_on_c, 0, 55, 31
2, 2165, Note_on_c, 0, 57, 45
2, 2165, Note_on_c, 0, 60, 44
2, 2166, Control_c, 0, 64, 0
2, 2186, Control_c, 0, 64, 127
2, 2201, Note_on_c, 0, 65, 0
2, 2202, Note_on_c, 0, 60, 0
2, 2205, Note_on_c, 0, 55, 0
2, 2206, Note_on_c, 0, 57, 0
2, 2277, Note_on_c, 0, 43, 27
2, 2296, Note_on_c, 0, 43, 0
2, 2324, Note_on_c, 0, 79, 0
2, 2377, Note_on_c, 0, 79, 45
2, 2383, Note_on_c, 0, 79, 0
2, 2407, Control_c, 0, 64, 0
2, 2407, Note_on_c, 0, 36, 36
2, 2408, Note_on_c, 0, 43, 28
2, 2409, Note_on_c, 0, 81, 64
2, 2410, Note_on_c, 0, 52, 36
2, 2424, Control_c, 0, 64, 127
2, 2429, Note_on_c, 0, 81, 0
2, 2435, Note_on_c, 0, 79, 40
2, 2439, Note_on_c, 0, 36, 0
2, 2439, Note_on_c, 0, 43, 0
2, 2449, Note_on_c, 0, 52, 0
2, 2521, Note_on_c, 0, 64, 30
2, 2523, Note_on_c, 0, 59, 37
2, 2524, Note_on_c, 0, 60, 37
2, 2561, Note_on_c, 0, 59, 0
2, 2563, Note_on_c, 0, 60, 0
2, 2567, Note_on_c, 0, 64, 0
2, 2634, Note_on_c, 0, 65, 36
2, 2635, Note_on_c, 0, 55, 26
2, 2637, Note_on_c, 0, 57, 37
2, 2638, Control_c, 0, 64, 0
2, 2638, Note_on_c, 0, 60, 36
2, 2655, Control_c, 0, 64, 127
2, 2669, Note_on_c, 0, 60, 0
2, 2669, Note_on_c, 0, 65, 0
2, 2674, Note_on_c, 0, 55, 0
2, 2679, Note_on_c, 0, 57, 0
2, 2752, Note_on_c, 0, 43, 95
2, 2766, Control_c, 0, 64, 0
2, 2781, Control_c, 0, 64, 127
2, 2883, Control_c, 0, 64, 0
2, 2884, Note_on_c, 0, 36, 64
2, 2886, Note_on_c, 0, 43, 0
2, 2886, Note_on_c, 0, 79, 0
2, 2897, Control_c, 0, 64, 127
2, 2912, Note_on_c, 0, 36, 0
2, 3007, Note_on_c, 0, 84, 82
2, 3007, Note_on_c, 0, 74, 82
2, 3007, Note_on_c, 0, 69, 80
2, 3007, Note_on_c, 0, 64, 72
2, 3007, Note_on_c, 0, 79, 89
2, 3009, Note_on_c, 0, 58, 71
2, 3011, Control_c, 0, 64, 0
2, 3026, Control_c, 0, 64, 127
2, 3047, Note_on_c, 0, 84, 0
2, 3054, Note_on_c, 0, 69, 0
2, 3055, Note_on_c, 0, 79, 0
2, 3057, Note_on_c, 0, 64, 0
2, 3058, Note_on_c, 0, 82, 81
2, 3060, Note_on_c, 0, 79, 48
2, 3064, Note_on_c, 0, 58, 0
2, 3069, Note_on_c, 0, 79, 0
2, 3080, Note_on_c, 0, 82, 0
2, 3082, Note_on_c, 0, 74, 0
2, 3092, Note_on_c, 0, 81, 70
2, 3102, Note_on_c, 0, 81, 0
2, 3127, Note_on_c, 0, 79, 43
2, 3129, Note_on_c, 0, 67, 47
2, 3129, Note_on_c, 0, 77, 36
2, 3129, Note_on_c, 0, 69, 55
2, 3129, Note_on_c, 0, 72, 49
2, 3133, Control_c, 0, 64, 0
2, 3159, Control_c, 0, 64, 127
2, 3183, Note_on_c, 0, 55, 49
2, 3199, Note_on_c, 0, 72, 0
2, 3199, Note_on_c, 0, 69, 0
2, 3221, Note_on_c, 0, 67, 0
2, 3264, Note_on_c, 0, 55, 0
2, 3295, Note_on_c, 0, 55, 42
2, 3306, Note_on_c, 0, 79, 0
2, 3311, Note_on_c, 0, 55, 0
2, 3314, Note_on_c, 0, 77, 0
2, 3353, Note_on_c, 0, 77, 44
2, 3354, Note_on_c, 0, 56, 37
2, 3357, Control_c, 0, 64, 0
2, 3379, Control_c, 0, 64, 127
2, 3412, Note_on_c, 0, 68, 34
2, 3413, Note_on_c, 0, 71, 31
2, 3414, Note_on_c, 0, 65, 25
2, 3431, Note_on_c, 0, 65, 0
2, 3437, Note_on_c, 0, 71, 0
2, 3452, Note_on_c, 0, 68, 0
2, 3461, Note_on_c, 0, 56, 0
2, 3473, Note_on_c, 0, 55, 31
2, 3474, Note_on_c, 0, 72, 43
2, 3475, Note_on_c, 0, 67, 30
2, 3477, Note_on_c, 0, 77, 0
2, 3477, Note_on_c, 0, 64, 35
2, 3478, Control_c, 0, 64, 0
2, 3494, Control_c, 0, 64, 127
2, 3528, Note_on_c, 0, 67, 0
2, 3528, Note_on_c, 0, 72, 0
2, 3536, Note_on_c, 0, 76, 82
2, 3566, Note_on_c, 0, 55, 0
2, 3566, Note_on_c, 0, 64, 0
2, 3580, Note_on_c, 0, 76, 0
2, 3595, Note_on_c, 0, 74, 72
2, 3597, Note_on_c, 0, 69, 69
2, 3597, Note_on_c, 0, 54, 58
2, 3601, Control_c, 0, 64, 0
2, 3620, Control_c, 0, 64, 127
2, 3645, Note_on_c, 0, 69, 0
2, 3659, Note_on_c, 0, 69, 34
2, 3660, Note_on_c, 0, 64, 48
2, 3677, Note_on_c, 0, 64, 0
2, 3685, Note_on_c, 0, 69, 0
2, 3685, Note_on_c, 0, 54, 0
2, 3700, Note_on_c, 0, 74, 0
2, 3717, Note_on_c, 0, 67, 39
2, 3717, Note_on_c, 0, 68, 34
2, 3718, Note_on_c, 0, 53, 42
2, 3720, Note_on_c, 0, 62, 31
2, 3722, Control_c, 0, 64, 0
2, 3743, Control_c, 0, 64, 127
2, 3780, Note_on_c, 0, 72, 60
2, 3798, Note_on_c, 0, 67, 0
2, 3800, Note_on_c, 0, 53, 0
2, 3802, Note_on_c, 0, 62, 0
2, 3812, Note_on_c, 0, 68, 0
2, 3824, Note_on_c, 0, 72, 0
2, 3837, Note_on_c, 0, 67, 36
2, 3838, Note_on_c, 0, 52, 41
2, 3839, Note_on_c, 0, 59, 33
2, 3839, Note_on_c, 0, 64, 39
2, 3842, Control_c, 0, 64, 0
2, 3857, Control_c, 0, 64, 127
2, 3864, Note_on_c, 0, 64, 0
2, 3901, Note_on_c, 0, 67, 0
2, 3905, Note_on_c, 0, 69, 36
2, 3909, Note_on_c, 0, 69, 0
2, 3914, Note_on_c, 0, 71, 33
2, 3916, Control_c, 0, 64, 0
2, 3919, Note_on_c, 0, 71, 0
2, 3924, Note_on_c, 0, 72, 37
2, 3931, Note_on_c, 0, 72, 0
2, 3932, Note_on_c, 0, 74, 24
2, 3939, Note_on_c, 0, 74, 0
2, 3940, Note_on_c, 0, 76, 29
2, 3946, Note_on_c, 0, 76, 0
2, 3950, Note_on_c, 0, 77, 34
2, 3957, Note_on_c, 0, 77, 0
2, 3958, Note_on_c, 0, 79, 35
2, 3965, Note_on_c, 0, 79, 0
2, 3970, Note_on_c, 0, 81, 43
2, 3975, Note_on_c, 0, 81, 0
2, 3979, Note_on_c, 0, 59, 0
2, 3979, Note_on_c, 0, 83, 38
2, 3983, Note_on_c, 0, 52, 0
2, 3985, Note_on_c, 0, 83, 0
2, 3988, Note_on_c, 0, 84, 41
2, 3994, Note_on_c, 0, 84, 0
2, 3997, Note_on_c, 0, 86, 38
2, 4004, Note_on_c, 0, 86, 0
2, 4007, Note_on_c, 0, 88, 45
2, 4013, Note_on_c, 0, 88, 0
2, 4015, Control_c, 0, 64, 127
2, 4017, Note_on_c, 0, 89, 43
2, 4025, Note_on_c, 0, 89, 0
2, 4028, Note_on_c, 0, 91, 37
2, 4036, Note_on_c, 0, 91, 0
2, 4040, Note_on_c, 0, 93, 40
2, 4045, Note_on_c, 0, 93, 0
2, 4052, Note_on_c, 0, 95, 37
2, 4057, Note_on_c, 0, 95, 0
2, 4062, Note_on_c, 0, 96, 50
2, 4067, Note_on_c, 0, 96, 0
2, 4073, Note_on_c, 0, 98, 48
2, 4078, Note_on_c, 0, 98, 0
2, 4083, Note_on_c, 0, 100, 37
2, 4087, Note_on_c, 0, 61, 31
2, 4088, Note_on_c, 0, 66, 36
2, 4090, Note_on_c, 0, 55, 35
2, 4094, Control_c, 0, 64, 0
2, 4113, Control_c, 0, 64, 127
2, 4131, Note_on_c, 0, 100, 0
2, 4150, Note_on_c, 0, 88, 27
2, 4161, Note_on_c, 0, 66, 0
2, 4185, Note_on_c, 0, 61, 0
2, 4189, Note_on_c, 0, 88, 0
2, 4204, Note_on_c, 0, 61, 26
2, 4205, Note_on_c, 0, 65, 35
2, 4207, Note_on_c, 0, 88, 43
2, 4227, Note_on_c, 0, 88, 0
2, 4237, Note_on_c, 0, 65, 0
2, 4237, Note_on_c, 0, 55, 0
2, 4262, Note_on_c, 0, 55, 54
2, 4266, Note_on_c, 0, 61, 0
2, 4270, Note_on_c, 0, 55, 0
2, 4322, Note_on_c, 0, 26, 64
2, 4322, Note_on_c, 0, 38, 71
2, 4323, Note_on_c, 0, 65, 80
2, 4324, Note_on_c, 0, 60, 90
2, 4324, Note_on_c, 0, 57, 89
2, 4325, Control_c, 0, 64, 0
2, 4343, Control_c, 0, 64, 127
2, 4355, Note_on_c, 0, 65, 0
2, 4377, Note_on_c, 0, 57, 0
2, 4386, Note_on_c, 0, 67, 77
2, 4391, Note_on_c, 0, 60, 0
2, 4392, Note_on_c, 0, 26, 0
2, 4401, Note_on_c, 0, 38, 0
2, 4401, Note_on_c, 0, 67, 0
2, 4439, Note_on_c, 0, 67, 51
2, 4441, Note_on_c, 0, 68, 67
2, 4442, Note_on_c, 0, 40, 60
2, 4444, Control_c, 0, 64, 0
2, 4444, Note_on_c, 0, 28, 60
2, 4448, Note_on_c, 0, 69, 75
2, 4449, Note_on_c, 0, 68, 0
2, 4454, Note_on_c, 0, 67, 0
2, 4470, Control_c, 0, 64, 127
2, 4477, Note_on_c, 0, 69, 0
2, 4478, Note_on_c, 0, 72, 81
2, 4510, Note_on_c, 0, 72, 0
2, 4521, Note_on_c, 0, 28, 0
2, 4540, Note_on_c, 0, 40, 0
2, 4560, Note_on_c, 0, 56, 46
2, 4562, Note_on_c, 0, 53, 42
2, 4564, Note_on_c, 0, 41, 51
2, 4566, Note_on_c, 0, 56, 0
2, 4567, Note_on_c, 0, 29, 29
2, 4568, Note_on_c, 0, 57, 57
2, 4571, Control_c, 0, 64, 0
2, 4598, Note_on_c, 0, 60, 70
2, 4609, Control_c, 0, 64, 127
2, 4633, Note_on_c, 0, 29, 0
2, 4638, Note_on_c, 0, 53, 0
2, 4640, Note_on_c, 0, 41, 0
2, 4646, Note_on_c, 0, 57, 0
2, 4648, Note_on_c, 0, 60, 0
2, 4677, Control_c, 0, 64, 0
2, 4680, Note_on_c, 0, 60, 55
2, 4680, Note_on_c, 0, 43, 40
2, 4681, Note_on_c, 0, 31, 34
2, 4682, Note_on_c, 0, 57, 47
2, 4685, Note_on_c, 0, 53, 14
2, 4694, Control_c, 0, 64, 127
2, 4706, Note_on_c, 0, 53, 0
2, 4709, Note_on_c, 0, 57, 0
2, 4710, Note_on_c, 0, 60, 0
2, 4720, Note_on_c, 0, 31, 0
2, 4726, Note_on_c, 0, 43, 0
2, 4774, Note_on_c, 0, 67, 51
2, 4795, Note_on_c, 0, 67, 0
2, 4805, Note_on_c, 0, 64, 50
2, 4805, Note_on_c, 0, 36, 33
2, 4809, Note_on_c, 0, 52, 36
2, 4810, Control_c, 0, 64, 0
2, 4828, Control_c, 0, 64, 127
2, 4831, Note_on_c, 0, 36, 0
2, 4843, Note_on_c, 0, 52, 0
2, 4853, Note_on_c, 0, 64, 0
2, 4926, Note_on_c, 0, 64, 26
2, 4928, Note_on_c, 0, 59, 36
2, 4930, Note_on_c, 0, 60, 24
2, 4979, Note_on_c, 0, 64, 0
2, 4980, Note_on_c, 0, 59, 0
2, 4983, Note_on_c, 0, 60, 0
2, 5040, Note_on_c, 0, 55, 37
2, 5042, Note_on_c, 0, 65, 31
2, 5043, Control_c, 0, 64, 0
2, 5045, Note_on_c, 0, 60, 31
2, 5057, Control_c, 0, 64, 127
2, 5108, Note_on_c, 0, 91, 71
2, 5111, Note_on_c, 0, 65, 0
2, 5112, Note_on_c, 0, 60, 0
2, 5117, Note_on_c, 0, 55, 0
2, 5128, Note_on_c, 0, 91, 0
2, 5137, Note_on_c, 0, 79, 28
2, 5164, Note_on_c, 0, 43, 53
2, 5169, Note_on_c, 0, 43, 0
2, 5201, Note_on_c, 0, 79, 0
2, 5202, Note_on_c, 0, 88, 84
2, 5227, Note_on_c, 0, 88, 0
2, 5234, Note_on_c, 0, 77, 60
2, 5270, Note_on_c, 0, 76, 57
2, 5275, Note_on_c, 0, 77, 0
2, 5285, Control_c, 0, 64, 0
2, 5292, Note_on_c, 0, 36, 46
2, 5300, Note_on_c, 0, 76, 0
2, 5300, Control_c, 0, 64, 127
2, 5305, Note_on_c, 0, 77, 44
2, 5321, Note_on_c, 0, 36, 0
2, 5324, Note_on_c, 0, 77, 0
2, 5334, Note_on_c, 0, 67, 44
2, 5355, Note_on_c, 0, 67, 0
2, 5365, Note_on_c, 0, 67, 54
2, 5376, Note_on_c, 0, 67, 0
2, 5387, Note_on_c, 0, 67, 52
2, 5402, Note_on_c, 0, 67, 0
2, 5412, Note_on_c, 0, 67, 49
2, 5412, Note_on_c, 0, 64, 27
2, 5414, Note_on_c, 0, 59, 33
2, 5414, Note_on_c, 0, 60, 26
2, 5422, Control_c, 0, 64, 0
2, 5427, Control_c, 0, 64, 127
2, 5433, Note_on_c, 0, 67, 0
2, 5442, Note_on_c, 0, 67, 55
2, 5454, Note_on_c, 0, 64, 0
2, 5454, Note_on_c, 0, 59, 0
2, 5456, Note_on_c, 0, 60, 0
2, 5458, Note_on_c, 0, 67, 0
2, 5470, Note_on_c, 0, 67, 45
2, 5481, Note_on_c, 0, 67, 0
2, 5498, Note_on_c, 0, 67, 44
2, 5514, Note_on_c, 0, 67, 0
2, 5525, Note_on_c, 0, 65, 34
2, 5525, Note_on_c, 0, 55, 27
2, 5525, Control_c, 0, 64, 0
2, 5526, Note_on_c, 0, 67, 49
2, 5528, Note_on_c, 0, 57, 41
2, 5530, Note_on_c, 0, 60, 30
2, 5537, Control_c, 0, 64, 127
2, 5546, Note_on_c, 0, 65, 0
2, 5547, Note_on_c, 0, 60, 0
2, 5554, Note_on_c, 0, 55, 0
2, 5554, Note_on_c, 0, 57, 0
2, 5563, Note_on_c, 0, 67, 0
2, 5564, Note_on_c, 0, 69, 68
2, 5588, Note_on_c, 0, 69, 0
2, 5596, Note_on_c, 0, 69, 71
2, 5616, Note_on_c, 0, 69, 0
2, 5620, Note_on_c, 0, 72, 79
2, 5639, Note_on_c, 0, 72, 0
2, 5645, Note_on_c, 0, 43, 33
2, 5646, Note_on_c, 0, 31, 28
2, 5647, Note_on_c, 0, 72, 70
2, 5662, Note_on_c, 0, 72, 0
2, 5673, Note_on_c, 0, 43, 0
2, 5678, Note_on_c, 0, 79, 54
2, 5683, Note_on_c, 0, 31, 0
2, 5692, Note_on_c, 0, 79, 0
2, 5709, Note_on_c, 0, 79, 53
2, 5727, Note_on_c, 0, 79, 0
2, 5736, Note_on_c, 0, 76, 29
2, 5753, Note_on_c, 0, 76, 0
2, 5763, Note_on_c, 0, 76, 32
2, 5763, Note_on_c, 0, 36, 36
2, 5765, Note_on_c, 0, 24, 32
2, 5767, Control_c, 0, 64, 0
2, 5784, Note_on_c, 0, 24, 0
2, 5784, Control_c, 0, 64, 127
2, 5785, Note_on_c, 0, 36, 0
2, 5857, Note_on_c, 0, 76, 0
2, 5885, Note_on_c, 0, 64, 20
2, 5886, Note_on_c, 0, 59, 33
2, 5887, Note_on_c, 0, 60, 29
2, 5936, Note_on_c, 0, 64, 0
2, 5941, Note_on_c, 0, 59, 0
2, 5942, Note_on_c, 0, 60, 0
2, 5947, Note_on_c, 0, 76, 94
2, 5959, Note_on_c, 0, 76, 0
2, 5973, Note_on_c, 0, 77, 101
2, 5985, Note_on_c, 0, 77, 0
2, 6002, Note_on_c, 0, 79, 90
2, 6009, Note_on_c, 0, 79, 0
2, 6010, Note_on_c, 0, 55, 53
2, 6010, Note_on_c, 0, 65, 47
2, 6011, Note_on_c, 0, 57, 60
2, 6011, Note_on_c, 0, 60, 47
2, 6021, Control_c, 0, 64, 0
2, 6037, Note_on_c, 0, 79, 82
2, 6045, Note_on_c, 0, 79, 0
2, 6070, Note_on_c, 0, 65, 0
2, 6071, Note_on_c, 0, 60, 0
2, 6073, Note_on_c, 0, 79, 66
2, 6075, Note_on_c, 0, 57, 0
2, 6078, Note_on_c, 0, 55, 0
2, 6082, Note_on_c, 0, 79, 0
2, 6104, Note_on_c, 0, 78, 42
2, 6106, Control_c, 0, 64, 127
2, 6106, Note_on_c, 0, 79, 57
2, 6113, Note_on_c, 0, 78, 0
2, 6119, Note_on_c, 0, 79, 0
2, 6137, Note_on_c, 0, 79, 41
2, 6142, Control_c, 0, 64, 0
2, 6145, Note_on_c, 0, 43, 32
2, 6149, Note_on_c, 0, 79, 0
2, 6160, Control_c, 0, 64, 127
2, 6169, Note_on_c, 0, 79, 50
2, 6173, Note_on_c, 0, 43, 0
2, 6181, Note_on_c, 0, 79, 0
2, 6197, Note_on_c, 0, 79, 53
2, 6207, Note_on_c, 0, 79, 0
2, 6217, Note_on_c, 0, 79, 45
2, 6227, Note_on_c, 0, 79, 0
2, 6235, Note_on_c, 0, 79, 49
2, 6245, Control_c, 0, 64, 0
2, 6247, Note_on_c, 0, 43, 20
2, 6248, Note_on_c, 0, 36, 26
2, 6250, Note_on_c, 0, 52, 47
2, 6254, Note_on_c, 0, 79, 0
2, 6255, Note_on_c, 0, 80, 57
2, 6260, Note_on_c, 0, 80, 0
2, 6261, Note_on_c, 0, 81, 41
2, 6262, Control_c, 0, 64, 127
2, 6280, Note_on_c, 0, 36, 0
2, 6284, Note_on_c, 0, 43, 0
2, 6284, Note_on_c, 0, 81, 0
2, 6286, Note_on_c, 0, 79, 48
2, 6292, Note_on_c, 0, 52, 0
2, 6302, Note_on_c, 0, 79, 0
2, 6312, Note_on_c, 0, 79, 42
2, 6327, Note_on_c, 0, 79, 0
2, 6337, Note_on_c, 0, 79, 46
2, 6345, Note_on_c, 0, 79, 0
2, 6363, Note_on_c, 0, 91, 71
2, 6363, Note_on_c, 0, 64, 37
2, 6366, Note_on_c, 0, 59, 35
2, 6367, Note_on_c, 0, 60, 34
2, 6378, Note_on_c, 0, 60, 0
2, 6378, Note_on_c, 0, 64, 0
2, 6381, Note_on_c, 0, 59, 0
2, 6385, Note_on_c, 0, 91, 0
2, 6394, Note_on_c, 0, 79, 37
2, 6401, Note_on_c, 0, 79, 0
2, 6422, Note_on_c, 0, 79, 34
2, 6429, Note_on_c, 0, 79, 0
2, 6450, Note_on_c, 0, 79, 35
2, 6472, Note_on_c, 0, 79, 0
2, 6482, Note_on_c, 0, 91, 67
2, 6483, Note_on_c, 0, 65, 33
2, 6485, Note_on_c, 0, 60, 35
2, 6486, Note_on_c, 0, 55, 14
2, 6486, Control_c, 0, 64, 0
2, 6487, Note_on_c, 0, 56, 25
2, 6499, Control_c, 0, 64, 127
2, 6516, Note_on_c, 0, 80, 64
2, 6528, Note_on_c, 0, 65, 0
2, 6530, Note_on_c, 0, 60, 0
2, 6537, Note_on_c, 0, 55, 0
2, 6537, Note_on_c, 0, 56, 0
2, 6538, Note_on_c, 0, 80, 0
2, 6544, Note_on_c, 0, 91, 0
2, 6555, Note_on_c, 0, 91, 46
2, 6560, Note_on_c, 0, 80, 25
2, 6575, Note_on_c, 0, 91, 0
2, 6600, Note_on_c, 0, 55, 40
2, 6602, Note_on_c, 0, 43, 28
2, 6614, Note_on_c, 0, 43, 0
2, 6616, Note_on_c, 0, 55, 0
2, 6675, Note_on_c, 0, 80, 0
2, 6717, Note_on_c, 0, 43, 28
2, 6718, Note_on_c, 0, 36, 36
2, 6720, Note_on_c, 0, 52, 38
2, 6722, Control_c, 0, 64, 0
2, 6733, Control_c, 0, 64, 127
2, 6737, Note_on_c, 0, 36, 0
2, 6739, Note_on_c, 0, 43, 0
2, 6749, Note_on_c, 0, 52, 0
2, 6787, Note_on_c, 0, 84, 94
2, 6826, Note_on_c, 0, 84, 0
2, 6844, Note_on_c, 0, 64, 64
2, 6844, Note_on_c, 0, 82, 87
2, 6844, Note_on_c, 0, 69, 69
2, 6845, Note_on_c, 0, 58, 62
2, 6847, Control_c, 0, 64, 0
2, 6861, Control_c, 0, 64, 127
2, 6873, Note_on_c, 0, 82, 0
2, 6880, Note_on_c, 0, 82, 64
2, 6894, Note_on_c, 0, 82, 0
2, 6901, Note_on_c, 0, 64, 0
2, 6901, Note_on_c, 0, 81, 63
2, 6904, Note_on_c, 0, 69, 0
2, 6915, Note_on_c, 0, 81, 0
2, 6917, Note_on_c, 0, 58, 0
2, 6937, Note_on_c, 0, 81, 48
2, 6954, Note_on_c, 0, 81, 0
2, 6959, Note_on_c, 0, 65, 43
2, 6960, Note_on_c, 0, 55, 36
2, 6961, Note_on_c, 0, 79, 46
2, 6964, Note_on_c, 0, 60, 35
2, 6964, Control_c, 0, 64, 0
2, 6964, Note_on_c, 0, 57, 42
2, 6979, Control_c, 0, 64, 127
2, 6998, Note_on_c, 0, 65, 0
2, 6999, Note_on_c, 0, 60, 0
2, 7004, Note_on_c, 0, 55, 0
2, 7005, Note_on_c, 0, 57, 0
2, 7013, Note_on_c, 0, 79, 0
2, 7081, Note_on_c, 0, 43, 41
2, 7084, Note_on_c, 0, 53, 27
2, 7086, Control_c, 0, 64, 0
2, 7095, Control_c, 0, 64, 127
2, 7134, Note_on_c, 0, 43, 0
2, 7139, Note_on_c, 0, 53, 0
2, 7178, Note_on_c, 0, 79, 74
2, 7191, Note_on_c, 0, 79, 0
2, 7203, Note_on_c, 0, 77, 58
2, 7203, Note_on_c, 0, 56, 34
2, 7207, Control_c, 0, 64, 0
2, 7238, Note_on_c, 0, 65, 37
2, 7238, Control_c, 0, 64, 127
2, 7266, Note_on_c, 0, 68, 51
2, 7278, Note_on_c, 0, 68, 0
2, 7278, Note_on_c, 0, 77, 0
2, 7296, Note_on_c, 0, 77, 79
2, 7310, Note_on_c, 0, 65, 0
2, 7318, Note_on_c, 0, 56, 0
2, 7319, Note_on_c, 0, 77, 0
2, 7323, Note_on_c, 0, 76, 58
2, 7323, Note_on_c, 0, 64, 60
2, 7323, Note_on_c, 0, 55, 38
2, 7329, Control_c, 0, 64, 0
2, 7356, Control_c, 0, 64, 127
2, 7360, Note_on_c, 0, 76, 0
2, 7362, Note_on_c, 0, 67, 24
2, 7369, Note_on_c, 0, 67, 0
2, 7378, Note_on_c, 0, 69, 55
2, 7394, Note_on_c, 0, 55, 0
2, 7409, Note_on_c, 0, 69, 0
2, 7412, Note_on_c, 0, 76, 60
2, 7414, Note_on_c, 0, 55, 34
2, 7421, Note_on_c, 0, 55, 0
2, 7425, Note_on_c, 0, 64, 0
2, 7432, Note_on_c, 0, 76, 0
2, 7440, Note_on_c, 0, 54, 52
2, 7440, Note_on_c, 0, 74, 41
2, 7441, Note_on_c, 0, 64, 28
2, 7442, Control_c, 0, 64, 0
2, 7450, Note_on_c, 0, 74, 0
2, 7464, Control_c, 0, 64, 127
2, 7473, Note_on_c, 0, 64, 0
2, 7480, Note_on_c, 0, 64, 38
2, 7484, Note_on_c, 0, 60, 18
2, 7525, Note_on_c, 0, 64, 0
2, 7529, Note_on_c, 0, 54, 0
2, 7556, Note_on_c, 0, 60, 0
2, 7559, Note_on_c, 0, 67, 37
2, 7559, Note_on_c, 0, 68, 36
2, 7559, Note_on_c, 0, 53, 37
2, 7560, Control_c, 0, 64, 0
2, 7574, Control_c, 0, 64, 127
2, 7586, Note_on_c, 0, 67, 0
2, 7603, Note_on_c, 0, 63, 33
2, 7603, Note_on_c, 0, 65, 57
2, 7605, Control_c, 0, 64, 0
2, 7609, Control_c, 0, 64, 127
2, 7640, Note_on_c, 0, 63, 0
2, 7648, Note_on_c, 0, 53, 0
2, 7650, Note_on_c, 0, 65, 0
2, 7658, Note_on_c, 0, 68, 0
2, 7677, Note_on_c, 0, 64, 44
2, 7678, Note_on_c, 0, 67, 50
2, 7679, Note_on_c, 0, 59, 35
2, 7679, Note_on_c, 0, 62, 33
2, 7679, Control_c, 0, 64, 0
2, 7680, Note_on_c, 0, 52, 40
2, 7689, Control_c, 0, 64, 127
2, 7707, Note_on_c, 0, 64, 0
2, 7716, Note_on_c, 0, 67, 0
2, 7721, Note_on_c, 0, 62, 0
2, 7760, Note_on_c, 0, 59, 0
2, 7789, Note_on_c, 0, 52, 0
2, 7797, Note_on_c, 0, 57, 57
2, 7800, Note_on_c, 0, 62, 49
2, 7802, Note_on_c, 0, 57, 0
2, 7804, Note_on_c, 0, 59, 57
2, 7806, Control_c, 0, 64, 0
2, 7807, Note_on_c, 0, 64, 36
2, 7809, Note_on_c, 0, 59, 0
2, 7810, Note_on_c, 0, 62, 0
2, 7813, Note_on_c, 0, 60, 51
2, 7815, Note_on_c, 0, 65, 49
2, 7817, Note_on_c, 0, 60, 0
2, 7819, Note_on_c, 0, 64, 0
2, 7820, Note_on_c, 0, 62, 55
2, 7823, Note_on_c, 0, 67, 48
2, 7825, Note_on_c, 0, 62, 0
2, 7827, Note_on_c, 0, 65, 0
2, 7829, Note_on_c, 0, 64, 45
2, 7831, Note_on_c, 0, 69, 45
2, 7833, Note_on_c, 0, 64, 0
2, 7836, Note_on_c, 0, 67, 0
2, 7837, Note_on_c, 0, 65, 50
2, 7840, Note_on_c, 0, 71, 35
2, 7841, Note_on_c, 0, 65, 0
2, 7844, Note_on_c, 0, 69, 0
2, 7845, Note_on_c, 0, 67, 45
2, 7849, Note_on_c, 0, 67, 0
2, 7849, Note_on_c, 0, 72, 24
2, 7853, Note_on_c, 0, 71, 0
2, 7854, Note_on_c, 0, 69, 56
2, 7857, Note_on_c, 0, 74, 35
2, 7858, Note_on_c, 0, 69, 0
2, 7861, Note_on_c, 0, 72, 0
2, 7862, Note_on_c, 0, 71, 49
2, 7865, Note_on_c, 0, 76, 35
2, 7866, Note_on_c, 0, 71, 0
2, 7869, Note_on_c, 0, 74, 0
2, 7872, Note_on_c, 0, 72, 28
2, 7875, Note_on_c, 0, 77, 24
2, 7876, Note_on_c, 0, 72, 0
2, 7879, Note_on_c, 0, 76, 0
2, 7882, Note_on_c, 0, 74, 17
2, 7883, Note_on_c, 0, 79, 26
2, 7886, Note_on_c, 0, 74, 0
2, 7889, Note_on_c, 0, 77, 0
2, 7892, Note_on_c, 0, 76, 13
2, 7894, Note_on_c, 0, 81, 20
2, 7896, Note_on_c, 0, 76, 0
2, 7898, Note_on_c, 0, 79, 0
2, 7901, Note_on_c, 0, 77, 18
2, 7903, Note_on_c, 0, 83, 26
2, 7905, Note_on_c, 0, 77, 0
2, 7907, Note_on_c, 0, 81, 0
2, 7910, Control_c, 0, 64, 127
2, 7910, Note_on_c, 0, 79, 26
2, 7912, Note_on_c, 0, 84, 27
2, 7913, Note_on_c, 0, 79, 0
2, 7916, Note_on_c, 0, 83, 0
2, 7921, Note_on_c, 0, 86, 25
2, 7924, Control_c, 0, 64, 0
2, 7926, Note_on_c, 0, 84, 0
2, 7926, Note_on_c, 0, 61, 31
2, 7927, Note_on_c, 0, 55, 36
2, 7928, Note_on_c, 0, 66, 23
2, 7930, Note_on_c, 0, 83, 13
2, 7930, Note_on_c, 0, 88, 28
2, 7934, Note_on_c, 0, 83, 0
2, 7935, Note_on_c, 0, 86, 0
2, 7940, Note_on_c, 0, 89, 24
2, 7943, Note_on_c, 0, 88, 0
2, 7950, Note_on_c, 0, 91, 20
2, 7953, Note_on_c, 0, 89, 0
2, 7959, Note_on_c, 0, 93, 24
2, 7962, Note_on_c, 0, 91, 0
2, 7970, Note_on_c, 0, 93, 0
2, 7970, Note_on_c, 0, 95, 22
2, 7977, Note_on_c, 0, 96, 32
2, 7978, Note_on_c, 0, 95, 0
2, 7981, Note_on_c, 0, 96, 0
2, 7984, Note_on_c, 0, 98, 34
2, 7989, Note_on_c, 0, 98, 0
2, 7992, Note_on_c, 0, 100, 32
2, 8000, Control_c, 0, 64, 127
2, 8011, Note_on_c, 0, 100, 0
2, 8019, Note_on_c, 0, 66, 0
2, 8031, Note_on_c, 0, 61, 0
2, 8051, Note_on_c, 0, 61, 36
2, 8053, Note_on_c, 0, 65, 33
2, 8082, Note_on_c, 0, 65, 0
2, 8104, Note_on_c, 0, 64, 43
2, 8117, Note_on_c, 0, 64, 0
2, 8122, Note_on_c, 0, 61, 0
2, 8123, Note_on_c, 0, 55, 0
2, 8165, Note_on_c, 0, 65, 44
2, 8166, Note_on_c, 0, 69, 40
2, 8169, Note_on_c, 0, 60, 24
2, 8169, Note_on_c, 0, 57, 32
2, 8169, Note_on_c, 0, 50, 28
2, 8170, Control_c, 0, 64, 0
2, 8187, Control_c, 0, 64, 127
2, 8209, Note_on_c, 0, 69, 0
2, 8212, Note_on_c, 0, 65, 0
2, 8217, Note_on_c, 0, 50, 0
2, 8221, Note_on_c, 0, 60, 0
2, 8225, Note_on_c, 0, 50, 51
2, 8230, Note_on_c, 0, 57, 0
2, 8240, Note_on_c, 0, 50, 0
2, 8277, Control_c, 0, 64, 0
2, 8279, Note_on_c, 0, 65, 81
2, 8280, Note_on_c, 0, 50, 58
2, 8280, Note_on_c, 0, 60, 83
2, 8280, Note_on_c, 0, 57, 87
2, 8288, Control_c, 0, 64, 127
2, 8295, Note_on_c, 0, 57, 0
2, 8300, Note_on_c, 0, 65, 0
2, 8301, Note_on_c, 0, 60, 0
2, 8331, Note_on_c, 0, 50, 0
2, 8335, Note_on_c, 0, 67, 82
2, 8336, Note_on_c, 0, 62, 87
2, 8336, Note_on_c, 0, 59, 84
2, 8336, Note_on_c, 0, 52, 85
2, 8339, Control_c, 0, 64, 0
2, 8354, Control_c, 0, 64, 127
2, 8360, Note_on_c, 0, 67, 0
2, 8362, Note_on_c, 0, 59, 0
2, 8367, Note_on_c, 0, 62, 0
2, 8387, Control_c, 0, 64, 0
2, 8390, Note_on_c, 0, 69, 81
2, 8391, Note_on_c, 0, 62, 82
2, 8391, Note_on_c, 0, 65, 79
2, 8392, Note_on_c, 0, 52, 0
2, 8392, Note_on_c, 0, 60, 87
2, 8392, Note_on_c, 0, 53, 73
2, 8401, Control_c, 0, 64, 127
2, 8407, Note_on_c, 0, 60, 0
2, 8409, Note_on_c, 0, 62, 0
2, 8411, Note_on_c, 0, 69, 0
2, 8412, Note_on_c, 0, 65, 0
2, 8421, Note_on_c, 0, 53, 0
2, 8447, Note_on_c, 0, 65, 80
2, 8447, Note_on_c, 0, 69, 70
2, 8447, Note_on_c, 0, 60, 81
2, 8447, Note_on_c, 0, 72, 69
2, 8448, Control_c, 0, 64, 0
2, 8448, Note_on_c, 0, 55, 64
2, 8468, Control_c, 0, 64, 127
2, 8487, Note_on_c, 0, 55, 0
2, 8488, Note_on_c, 0, 65, 0
2, 8489, Note_on_c, 0, 60, 0
2, 8490, Note_on_c, 0, 69, 0
2, 8493, Note_on_c, 0, 72, 0
2, 8513, Note_on_c, 0, 72, 41
2, 8514, Control_c, 0, 64, 0
2, 8514, Note_on_c, 0, 43, 36
2, 8514, Note_on_c, 0, 69, 47
2, 8514, Note_on_c, 0, 60, 36
2, 8514, Note_on_c, 0, 65, 47
2, 8514, Note_on_c, 0, 53, 31
2, 8537, Control_c, 0, 64, 127
2, 8556, Note_on_c, 0, 43, 0
2, 8561, Note_on_c, 0, 53, 0
2, 8570, Note_on_c, 0, 60, 0
2, 8571, Note_on_c, 0, 65, 0
2, 8576, Note_on_c, 0, 69, 0
2, 8578, Note_on_c, 0, 72, 0
2, 8639, Note_on_c, 0, 36, 32
2, 8640, Note_on_c, 0, 43, 24
2, 8641, Control_c, 0, 64, 0
2, 8641, Note_on_c, 0, 52, 39
2, 8658, Control_c, 0, 64, 127
2, 8674, Note_on_c, 0, 36, 0
2, 8678, Note_on_c, 0, 43, 0
2, 8689, Note_on_c, 0, 52, 0
2, 8718, Note_on_c, 0, 79, 57
2, 8740, Note_on_c, 0, 79, 0
2, 8761, Note_on_c, 0, 64, 55
2, 8762, Note_on_c, 0, 72, 59
2, 8764, Note_on_c, 0, 60, 46
2, 8765, Note_on_c, 0, 59, 37
2, 8774, Control_c, 0, 64, 0
2, 8782, Control_c, 0, 64, 127
2, 8813, Note_on_c, 0, 60, 0
2, 8816, Note_on_c, 0, 59, 0
2, 8817, Note_on_c, 0, 72, 0
2, 8824, Note_on_c, 0, 64, 0
2, 8827, Note_on_c, 0, 72, 49
2, 8884, Note_on_c, 0, 67, 34
2, 8886, Control_c, 0, 64, 0
2, 8887, Note_on_c, 0, 62, 29
2, 8887, Note_on_c, 0, 64, 27
2, 8893, Control_c, 0, 64, 127
2, 8915, Note_on_c, 0, 67, 0
2, 8916, Note_on_c, 0, 64, 0
2, 8917, Note_on_c, 0, 62, 0
2, 8942, Note_on_c, 0, 79, 69
2, 8997, Control_c, 0, 64, 0
2, 8997, Note_on_c, 0, 65, 41
2, 8997, Note_on_c, 0, 55, 34
2, 8999, Note_on_c, 0, 57, 42
2, 9002, Note_on_c, 0, 60, 22
2, 9005, Control_c, 0, 64, 127
2, 9007, Note_on_c, 0, 60, 0
2, 9008, Note_on_c, 0, 65, 0
2, 9010, Note_on_c, 0, 55, 0
2, 9014, Note_on_c, 0, 57, 0
2, 9061, Note_on_c, 0, 43, 46
2, 9093, Note_on_c, 0, 72, 0
2, 9102, Note_on_c, 0, 79, 0
2, 9117, Note_on_c, 0, 43, 0
2, 9123, Control_c, 0, 64, 0
2, 9123, Note_on_c, 0, 52, 46
2, 9126, Note_on_c, 0, 36, 34
2, 9136, Control_c, 0, 64, 127
2, 9146, Note_on_c, 0, 36, 0
2, 9158, Note_on_c, 0, 52, 0
2, 9186, Note_on_c, 0, 64, 71
2, 9187, Note_on_c, 0, 59, 55
2, 9188, Note_on_c, 0, 60, 64
2, 9214, Note_on_c, 0, 59, 0
2, 9223, Note_on_c, 0, 64, 0
2, 9224, Note_on_c, 0, 60, 0
2, 9239, Note_on_c, 0, 64, 77
2, 9239, Note_on_c, 0, 60, 77
2, 9240, Note_on_c, 0, 59, 73
2, 9269, Note_on_c, 0, 59, 0
2, 9273, Note_on_c, 0, 60, 0
2, 9278, Note_on_c, 0, 64, 0
2, 9299, Note_on_c, 0, 60, 80
2, 9300, Note_on_c, 0, 64, 74
2, 9300, Note_on_c, 0, 59, 73
2, 9312, Note_on_c, 0, 64, 0
2, 9316, Note_on_c, 0, 59, 0
2, 9316, Note_on_c, 0, 60, 0
2, 9359, Note_on_c, 0, 56, 50
2, 9360, Note_on_c, 0, 72, 57
2, 9360, Note_on_c, 0, 65, 76
2, 9360, Note_on_c, 0, 68, 55
2, 9361, Note_on_c, 0, 61, 55
2, 9368, Control_c, 0, 64, 0
2, 9389, Control_c, 0, 64, 127
2, 9420, Note_on_c, 0, 46, 47
2, 9432, Note_on_c, 0, 56, 0
2, 9435, Note_on_c, 0, 46, 0
2, 9439, Note_on_c, 0, 65, 0
2, 9446, Note_on_c, 0, 68, 0
2, 9455, Note_on_c, 0, 61, 0
2, 9472, Note_on_c, 0, 72, 0
2, 9477, Note_on_c, 0, 70, 1
2, 9480, Note_on_c, 0, 61, 36
2, 9480, Note_on_c, 0, 39, 57
2, 9481, Note_on_c, 0, 67, 54
2, 9481, Note_on_c, 0, 64, 54
2, 9484, Control_c, 0, 64, 0
2, 9503, Control_c, 0, 64, 127
2, 9527, Note_on_c, 0, 39, 0
2, 9529, Note_on_c, 0, 61, 0
2, 9542, Note_on_c, 0, 64, 0
2, 9544, Note_on_c, 0, 67, 0
2, 9544, Note_on_c, 0, 61, 23
2, 9547, Note_on_c, 0, 70, 0
2, 9551, Note_on_c, 0, 61, 0
2, 9603, Note_on_c, 0, 51, 37
2, 9603, Note_on_c, 0, 55, 36
2, 9603, Control_c, 0, 64, 0
2, 9603, Note_on_c, 0, 58, 45
2, 9604, Note_on_c, 0, 60, 35
2, 9608, Note_on_c, 0, 44, 19
2, 9623, Control_c, 0, 64, 127
2, 9635, Note_on_c, 0, 55, 0
2, 9639, Note_on_c, 0, 44, 0
2, 9641, Note_on_c, 0, 51, 0
2, 9644, Note_on_c, 0, 60, 0
2, 9646, Note_on_c, 0, 58, 0
2, 9725, Note_on_c, 0, 63, 33
2, 9729, Note_on_c, 0, 60, 34
2, 9761, Note_on_c, 0, 63, 0
2, 9762, Note_on_c, 0, 60, 0
2, 9770, Note_on_c, 0, 72, 57
2, 9800, Note_on_c, 0, 72, 0
2, 9807, Note_on_c, 0, 73, 72
2, 9829, Note_on_c, 0, 73, 0
2, 9835, Note_on_c, 0, 75, 86
2, 9852, Note_on_c, 0, 75, 0
2, 9855, Note_on_c, 0, 61, 32
2, 9856, Note_on_c, 0, 56, 37
2, 9856, Note_on_c, 0, 53, 36
2, 9856, Note_on_c, 0, 51, 40
2, 9863, Control_c, 0, 64, 0
2, 9868, Note_on_c, 0, 75, 55
2, 9886, Note_on_c, 0, 75, 0
2, 9897, Note_on_c, 0, 75, 53
2, 9905, Note_on_c, 0, 75, 0
2, 9924, Note_on_c, 0, 75, 50
2, 9931, Note_on_c, 0, 75, 0
2, 9934, Note_on_c, 0, 53, 0
2, 9945, Note_on_c, 0, 75, 54
2, 9948, Note_on_c, 0, 56, 0
2, 9950, Note_on_c, 0, 61, 0
2, 9950, Control_c, 0, 64, 127
2, 9951, Note_on_c, 0, 75, 0
2, 9970, Note_on_c, 0, 75, 59
2, 9976, Note_on_c, 0, 75, 0
2, 9980, Control_c, 0, 64, 0
2, 9986, Note_on_c, 0, 61, 37
2, 9990, Note_on_c, 0, 56, 32
2, 9991, Note_on_c, 0, 53, 25
2, 9993, Note_on_c, 0, 75, 62
2, 9998, Note_on_c, 0, 75, 0
2, 10009, Note_on_c, 0, 61, 0
2, 10009, Control_c, 0, 64, 127
2, 10014, Note_on_c, 0, 75, 62
2, 10015, Note_on_c, 0, 53, 0
2, 10018, Note_on_c, 0, 56, 0
2, 10020, Note_on_c, 0, 75, 0
2, 10021, Note_on_c, 0, 51, 0
2, 10032, Note_on_c, 0, 75, 68
2, 10038, Note_on_c, 0, 75, 0
2, 10048, Note_on_c, 0, 75, 61
2, 10054, Note_on_c, 0, 75, 0
2, 10062, Note_on_c, 0, 75, 56
2, 10069, Note_on_c, 0, 75, 0
2, 10077, Note_on_c, 0, 75, 54
2, 10083, Note_on_c, 0, 75, 0
2, 10090, Note_on_c, 0, 75, 58
2, 10097, Note_on_c, 0, 75, 0
2, 10100, Control_c, 0, 64, 0
2, 10105, Note_on_c, 0, 51, 52
2, 10106, Note_on_c, 0, 75, 64
2, 10107, Note_on_c, 0, 44, 33
2, 10114, Note_on_c, 0, 75, 0
2, 10120, Note_on_c, 0, 80, 69
2, 10121, Control_c, 0, 64, 127
2, 10141, Note_on_c, 0, 44, 0
2, 10143, Note_on_c, 0, 80, 0
2, 10143, Note_on_c, 0, 51, 0
2, 10148, Note_on_c, 0, 75, 57
2, 10157, Note_on_c, 0, 75, 0
2, 10171, Note_on_c, 0, 75, 51
2, 10182, Note_on_c, 0, 75, 0
2, 10192, Note_on_c, 0, 75, 51
2, 10204, Note_on_c, 0, 75, 0
2, 10221, Note_on_c, 0, 75, 58
2, 10221, Note_on_c, 0, 63, 29
2, 10224, Note_on_c, 0, 60, 31
2, 10228, Note_on_c, 0, 58, 31
2, 10249, Note_on_c, 0, 63, 0
2, 10250, Note_on_c, 0, 60, 0
2, 10252, Note_on_c, 0, 58, 0
2, 10261, Note_on_c, 0, 75, 0
2, 10270, Note_on_c, 0, 75, 42
2, 10285, Note_on_c, 0, 75, 0
2, 10296, Note_on_c, 0, 75, 49
2, 10310, Note_on_c, 0, 75, 0
2, 10326, Note_on_c, 0, 75, 46
2, 10327, Note_on_c, 0, 61, 23
2, 10329, Note_on_c, 0, 53, 32
2, 10329, Note_on_c, 0, 56, 33
2, 10330, Note_on_c, 0, 51, 31
2, 10332, Control_c, 0, 64, 0
2, 10351, Control_c, 0, 64, 127
2, 10383, Note_on_c, 0, 53, 0
2, 10390, Note_on_c, 0, 61, 0
2, 10396, Note_on_c, 0, 56, 0
2, 10401, Note_on_c, 0, 75, 0
2, 10439, Note_on_c, 0, 61, 23
2, 10441, Note_on_c, 0, 56, 29
2, 10443, Note_on_c, 0, 53, 29
2, 10463, Note_on_c, 0, 61, 0
2, 10468, Note_on_c, 0, 53, 0
2, 10469, Note_on_c, 0, 56, 0
2, 10474, Note_on_c, 0, 51, 0
2, 10559, Note_on_c, 0, 84, 85
2, 10561, Note_on_c, 0, 44, 56
2, 10561, Note_on_c, 0, 51, 60
2, 10561, Note_on_c, 0, 75, 81
2, 10566, Control_c, 0, 64, 0
2, 10584, Control_c, 0, 64, 127
2, 10602, Note_on_c, 0, 44, 0
2, 10603, Note_on_c, 0, 51, 0
2, 10719, Note_on_c, 0, 75, 0
2, 10743, Note_on_c, 0, 63, 36
2, 10748, Note_on_c, 0, 58, 38
2, 10751, Note_on_c, 0, 63, 0
2, 10757, Note_on_c, 0, 58, 0
2, 10768, Note_on_c, 0, 84, 0
2, 10776, Note_on_c, 0, 82, 58
2, 10776, Note_on_c, 0, 75, 36
2, 10787, Note_on_c, 0, 75, 0
2, 10796, Note_on_c, 0, 82, 0
2, 10806, Note_on_c, 0, 61, 25
2, 10807, Note_on_c, 0, 53, 38
2, 10807, Note_on_c, 0, 51, 31
2, 10807, Note_on_c, 0, 84, 59
2, 10809, Note_on_c, 0, 56, 30
2, 10811, Control_c, 0, 64, 0
2, 10830, Control_c, 0, 64, 127
2, 10854, Note_on_c, 0, 53, 0
2, 10858, Note_on_c, 0, 61, 0
2, 10869, Note_on_c, 0, 56, 0
2, 10903, Note_on_c, 0, 84, 0
2, 10907, Note_on_c, 0, 53, 30
2, 10907, Note_on_c, 0, 61, 26
2, 10908, Note_on_c, 0, 73, 25
2, 10909, Note_on_c, 0, 56, 28
2, 10929, Note_on_c, 0, 61, 0
2, 10941, Note_on_c, 0, 51, 0
2, 10943, Note_on_c, 0, 53, 0
2, 10946, Note_on_c, 0, 56, 0
2, 11008, Note_on_c, 0, 82, 51
2, 11031, Note_on_c, 0, 82, 0
2, 11034, Note_on_c, 0, 73, 0
2, 11037, Note_on_c, 0, 51, 36
2, 11038, Note_on_c, 0, 80, 44
2, 11039, Note_on_c, 0, 72, 34
2, 11040, Note_on_c, 0, 44, 27
2, 11041, Control_c, 0, 64, 0
2, 11055, Control_c, 0, 64, 127
2, 11067, Note_on_c, 0, 44, 0
2, 11072, Note_on_c, 0, 51, 0
2, 11107, Note_on_c, 0, 63, 9
2, 11107, Note_on_c, 0, 58, 38
2, 11108, Note_on_c, 0, 60, 24
2, 11128, Note_on_c, 0, 58, 0
2, 11130, Note_on_c, 0, 63, 0
2, 11133, Note_on_c, 0, 60, 0
2, 11160, Note_on_c, 0, 63, 35
2, 11163, Note_on_c, 0, 60, 36
2, 11164, Note_on_c, 0, 58, 42
2, 11171, Note_on_c, 0, 80, 0
2, 11173, Note_on_c, 0, 72, 0
2, 11184, Note_on_c, 0, 58, 0
2, 11188, Note_on_c, 0, 63, 0
2, 11189, Note_on_c, 0, 60, 0
2, 11222, Note_on_c, 0, 63, 42
2, 11225, Note_on_c, 0, 58, 45
2, 11226, Note_on_c, 0, 60, 29
2, 11230, Note_on_c, 0, 63, 0
2, 11231, Note_on_c, 0, 60, 0
2, 11236, Note_on_c, 0, 58, 0
2, 11281, Note_on_c, 0, 45, 64
2, 11285, Control_c, 0, 64, 0
2, 11298, Control_c, 0, 64, 127
2, 11343, Note_on_c, 0, 66, 57
2, 11343, Note_on_c, 0, 63, 59
2, 11343, Note_on_c, 0, 59, 57
2, 11344, Note_on_c, 0, 55, 60
2, 11346, Note_on_c, 0, 59, 0
2, 11347, Control_c, 0, 64, 0
2, 11348, Note_on_c, 0, 63, 0
2, 11349, Note_on_c, 0, 55, 0
2, 11350, Note_on_c, 0, 66, 0
2, 11396, Note_on_c, 0, 66, 46
2, 11396, Note_on_c, 0, 55, 61
2, 11396, Note_on_c, 0, 63, 49
2, 11396, Note_on_c, 0, 59, 60
2, 11398, Note_on_c, 0, 49, 37
2, 11400, Note_on_c, 0, 59, 0
2, 11402, Note_on_c, 0, 63, 0
2, 11402, Note_on_c, 0, 55, 0
2, 11403, Note_on_c, 0, 66, 0
2, 11405, Note_on_c, 0, 49, 0
2, 11432, Control_c, 0, 64, 127
2, 11457, Note_on_c, 0, 66, 43
2, 11458, Note_on_c, 0, 63, 44
2, 11458, Note_on_c, 0, 55, 46
2, 11458, Note_on_c, 0, 59, 42
2, 11461, Note_on_c, 0, 49, 25
2, 11467, Note_on_c, 0, 55, 0
2, 11473, Note_on_c, 0, 66, 0
2, 11475, Note_on_c, 0, 45, 0
2, 11475, Note_on_c, 0, 63, 0
2, 11478, Note_on_c, 0, 59, 0
2, 11495, Note_on_c, 0, 49, 0
2, 11516, Control_c, 0, 64, 0
2, 11518, Note_on_c, 0, 63, 34
2, 11519, Note_on_c, 0, 60, 33
2, 11520, Note_on_c, 0, 58, 36
2, 11520, Note_on_c, 0, 55, 24
2, 11521, Note_on_c, 0, 44, 28
2, 11521, Note_on_c, 0, 51, 34
2, 11532, Control_c, 0, 64, 127
2, 11537, Note_on_c, 0, 55, 0
2, 11544, Note_on_c, 0, 60, 0
2, 11548, Note_on_c, 0, 58, 0
2, 11552, Note_on_c, 0, 44, 0
2, 11555, Note_on_c, 0, 51, 0
2, 11559, Note_on_c, 0, 63, 0
2, 11641, Note_on_c, 0, 63, 25
2, 11642, Note_on_c, 0, 56, 35
2, 11643, Note_on_c, 0, 60, 35
2, 11682, Note_on_c, 0, 72, 91
2, 11694, Note_on_c, 0, 63, 0
2, 11697, Note_on_c, 0, 60, 0
2, 11701, Note_on_c, 0, 72, 0
2, 11705, Note_on_c, 0, 56, 0
2, 11718, Note_on_c, 0, 73, 85
2, 11732, Note_on_c, 0, 73, 0
2, 11760, Note_on_c, 0, 75, 58
2, 11762, Note_on_c, 0, 71, 70
2, 11763, Note_on_c, 0, 67, 70
2, 11765, Note_on_c, 0, 55, 47
2, 11766, Note_on_c, 0, 63, 56
2, 11768, Control_c, 0, 64, 0
2, 11790, Control_c, 0, 64, 127
2, 11820, Note_on_c, 0, 43, 62
2, 11826, Note_on_c, 0, 43, 0
2, 11826, Note_on_c, 0, 55, 0
2, 11832, Note_on_c, 0, 63, 0
2, 11862, Note_on_c, 0, 67, 0
2, 11863, Note_on_c, 0, 75, 0
2, 11864, Note_on_c, 0, 71, 0
2, 11879, Note_on_c, 0, 75, 78
2, 11880, Note_on_c, 0, 59, 68
2, 11881, Note_on_c, 0, 53, 58
2, 11881, Note_on_c, 0, 68, 74
2, 11882, Note_on_c, 0, 63, 63
2, 11882, Note_on_c, 0, 71, 62
2, 11882, Note_on_c, 0, 65, 82
2, 11885, Control_c, 0, 64, 0
2, 11895, Control_c, 0, 64, 127
2, 11925, Note_on_c, 0, 63, 0
2, 11941, Note_on_c, 0, 62, 74
2, 11963, Note_on_c, 0, 68, 0
2, 11963, Note_on_c, 0, 59, 0
2, 11963, Note_on_c, 0, 65, 0
2, 11964, Note_on_c, 0, 62, 0
2, 11968, Note_on_c, 0, 75, 0
2, 11968, Note_on_c, 0, 71, 0
2, 11970, Note_on_c, 0, 53, 0
2, 12001, Note_on_c, 0, 71, 78
2, 12001, Note_on_c, 0, 76, 68
2, 12003, Note_on_c, 0, 64, 91
2, 12004, Note_on_c, 0, 55, 74
2, 12004, Note_on_c, 0, 59, 76
2, 12005, Note_on_c, 0, 48, 70
2, 12007, Control_c, 0, 64, 0
2, 12025, Control_c, 0, 64, 127
2, 12050, Note_on_c, 0, 76, 0
2, 12056, Note_on_c, 0, 48, 0
2, 12057, Note_on_c, 0, 55, 0
2, 12064, Note_on_c, 0, 59, 0
2, 12067, Note_on_c, 0, 76, 62
2, 12068, Note_on_c, 0, 64, 0
2, 12077, Note_on_c, 0, 71, 0
2, 12081, Note_on_c, 0, 76, 0
2, 12121, Note_on_c, 0, 79, 40
2, 12125, Note_on_c, 0, 67, 72
2, 12126, Note_on_c, 0, 56, 27
2, 12126, Note_on_c, 0, 62, 35
2, 12127, Note_on_c, 0, 52, 45
2, 12129, Control_c, 0, 64, 0
2, 12147, Control_c, 0, 64, 127
2, 12167, Note_on_c, 0, 52, 0
2, 12173, Note_on_c, 0, 56, 0
2, 12173, Note_on_c, 0, 79, 0
2, 12177, Note_on_c, 0, 67, 0
2, 12177, Note_on_c, 0, 62, 0
2, 12189, Note_on_c, 0, 79, 48
2, 12206, Note_on_c, 0, 79, 0
2, 12247, Note_on_c, 0, 84, 66
2, 12250, Note_on_c, 0, 81, 57
2, 12251, Note_on_c, 0, 61, 20
2, 12251, Note_on_c, 0, 57, 36
2, 12252, Note_on_c, 0, 77, 53
2, 12253, Note_on_c, 0, 67, 44
2, 12256, Control_c, 0, 64, 0
2, 12261, Note_on_c, 0, 72, 12
2, 12265, Note_on_c, 0, 61, 1
2, 12278, Control_c, 0, 64, 127
2, 12288, Note_on_c, 0, 61, 0
2, 12299, Note_on_c, 0, 61, 0
2, 12300, Note_on_c, 0, 67, 0
2, 12333, Note_on_c, 0, 72, 0
2, 12334, Note_on_c, 0, 77, 0
2, 12340, Note_on_c, 0, 81, 0
2, 12357, Note_on_c, 0, 84, 0
2, 12370, Note_on_c, 0, 72, 34
2, 12370, Note_on_c, 0, 77, 34
2, 12370, Note_on_c, 0, 61, 32
2, 12371, Note_on_c, 0, 65, 33
2, 12389, Note_on_c, 0, 77, 0
2, 12389, Note_on_c, 0, 72, 0
2, 12409, Note_on_c, 0, 57, 0
2, 12431, Note_on_c, 0, 86, 76
2, 12432, Note_on_c, 0, 65, 0
2, 12438, Note_on_c, 0, 61, 0
2, 12446, Note_on_c, 0, 86, 0
2, 12486, Note_on_c, 0, 86, 39
2, 12486, Note_on_c, 0, 80, 35
2, 12486, Note_on_c, 0, 74, 27
2, 12487, Control_c, 0, 64, 0
2, 12487, Note_on_c, 0, 50, 33
2, 12488, Note_on_c, 0, 83, 38
2, 12489, Note_on_c, 0, 60, 22
2, 12499, Control_c, 0, 64, 127
2, 12508, Note_on_c, 0, 86, 0
2, 12511, Note_on_c, 0, 83, 0
2, 12513, Note_on_c, 0, 80, 0
2, 12517, Note_on_c, 0, 74, 0
2, 12527, Note_on_c, 0, 54, 37
2, 12528, Note_on_c, 0, 60, 0
2, 12553, Note_on_c, 0, 60, 44
2, 12555, Note_on_c, 0, 64, 58
2, 12567, Note_on_c, 0, 64, 0
2, 12574, Note_on_c, 0, 68, 63
2, 12583, Note_on_c, 0, 68, 0
2, 12595, Note_on_c, 0, 71, 66
2, 12604, Note_on_c, 0, 71, 0
2, 12604, Note_on_c, 0, 54, 0
2, 12605, Note_on_c, 0, 50, 0
2, 12612, Note_on_c, 0, 60, 0
2, 12614, Note_on_c, 0, 76, 72
2, 12626, Note_on_c, 0, 76, 0
2, 12633, Note_on_c, 0, 83, 71
2, 12635, Note_on_c, 0, 81, 50
2, 12639, Note_on_c, 0, 81, 0
2, 12648, Note_on_c, 0, 83, 0
2, 12653, Note_on_c, 0, 76, 53
2, 12654, Note_on_c, 0, 80, 57
2, 12661, Note_on_c, 0, 76, 0
2, 12669, Note_on_c, 0, 80, 0
2, 12675, Note_on_c, 0, 71, 48
2, 12679, Note_on_c, 0, 71, 0
2, 12712, Note_on_c, 0, 54, 30
2, 12715, Note_on_c, 0, 64, 24
2, 12716, Note_on_c, 0, 60, 27
2, 12740, Note_on_c, 0, 88, 60
2, 12741, Note_on_c, 0, 95, 57
2, 12753, Note_on_c, 0, 95, 0
2, 12754, Note_on_c, 0, 64, 0
2, 12754, Note_on_c, 0, 88, 0
2, 12761, Note_on_c, 0, 92, 39
2, 12761, Note_on_c, 0, 83, 37
2, 12766, Note_on_c, 0, 83, 0
2, 12773, Note_on_c, 0, 92, 0
2, 12777, Note_on_c, 0, 60, 0
2, 12811, Note_on_c, 0, 100, 66
2, 12811, Note_on_c, 0, 92, 62
2, 12826, Note_on_c, 0, 100, 0
2, 12828, Note_on_c, 0, 92, 0
2, 12831, Note_on_c, 0, 95, 47
2, 12832, Note_on_c, 0, 88, 42
2, 12833, Note_on_c, 0, 64, 34
2, 12843, Note_on_c, 0, 88, 0
2, 12848, Note_on_c, 0, 95, 0
2, 12850, Note_on_c, 0, 60, 1
2, 12857, Note_on_c, 0, 100, 64
2, 12858, Note_on_c, 0, 92, 55
2, 12868, Note_on_c, 0, 92, 0
2, 12872, Note_on_c, 0, 100, 0
2, 12902, Note_on_c, 0, 64, 0
2, 12910, Note_on_c, 0, 60, 0
2, 12911, Note_on_c, 0, 54, 0
2, 12955, Note_on_c, 0, 55, 44
2, 12956, Note_on_c, 0, 65, 40
2, 12956, Note_on_c, 0, 89, 38
2, 12956, Note_on_c, 0, 101, 52
2, 12957, Note_on_c, 0, 60, 50
2, 12957, Note_on_c, 0, 57, 52
2, 12959, Note_on_c, 0, 96, 39
2, 12961, Control_c, 0, 64, 0
2, 12973, Control_c, 0, 64, 127
2, 12982, Note_on_c, 0, 96, 0
2, 12982, Note_on_c, 0, 65, 0
2, 12984, Note_on_c, 0, 101, 0
2, 12985, Note_on_c, 0, 60, 0
2, 12988, Note_on_c, 0, 55, 0
2, 12989, Note_on_c, 0, 57, 0
2, 12991, Note_on_c, 0, 89, 0
2, 13019, Note_on_c, 0, 43, 41
2, 13032, Note_on_c, 0, 43, 0
2, 13079, Note_on_c, 0, 67, 38
2, 13081, Note_on_c, 0, 43, 32
2, 13081, Note_on_c, 0, 65, 35
2, 13081, Note_on_c, 0, 60, 36
2, 13082, Note_on_c, 0, 55, 29
2, 13082, Note_on_c, 0, 57, 42
2, 13091, Note_on_c, 0, 55, 0
2, 13101, Note_on_c, 0, 43, 0
2, 13138, Note_on_c, 0, 31, 52
2, 13144, Note_on_c, 0, 31, 0
2, 13155, Note_on_c, 0, 60, 0
2, 13157, Note_on_c, 0, 57, 0
2, 13176, Note_on_c, 0, 67, 0
2, 13185, Note_on_c, 0, 65, 0
2, 13199, Note_on_c, 0, 62, 46
2, 13199, Note_on_c, 0, 67, 45
2, 13200, Note_on_c, 0, 60, 44
2, 13200, Note_on_c, 0, 55, 49
2, 13200, Note_on_c, 0, 57, 49
2, 13206, Control_c, 0, 64, 0
2, 13229, Control_c, 0, 64, 127
2, 13260, Note_on_c, 0, 43, 37
2, 13267, Note_on_c, 0, 55, 0
2, 13273, Note_on_c, 0, 62, 0
2, 13274, Note_on_c, 0, 57, 0
2, 13276, Note_on_c, 0, 60, 0
2, 13321, Note_on_c, 0, 62, 26
2, 13321, Note_on_c, 0, 59, 53
2, 13322, Note_on_c, 0, 56, 38
2, 13322, Note_on_c, 0, 53, 32
2, 13325, Control_c, 0, 64, 0
2, 13337, Control_c, 0, 64, 127
2, 13339, Note_on_c, 0, 43, 0
2, 13348, Note_on_c, 0, 53, 0
2, 13374, Note_on_c, 0, 59, 0
2, 13374, Note_on_c, 0, 56, 0
2, 13375, Note_on_c, 0, 67, 0
2, 13377, Note_on_c, 0, 43, 36
2, 13378, Note_on_c, 0, 62, 0
2, 13435, Note_on_c, 0, 43, 0
2, 13439, Note_on_c, 0, 36, 51
2, 13441, Note_on_c, 0, 52, 66
2, 13447, Control_c, 0, 64, 0
2, 13468, Control_c, 0, 64, 127
2, 13483, Note_on_c, 0, 36, 0
2, 13495, Note_on_c, 0, 52, 0
2, 13565, Note_on_c, 0, 64, 24
2, 13566, Note_on_c, 0, 59, 34
2, 13567, Note_on_c, 0, 60, 34
2, 13607, Note_on_c, 0, 76, 36
2, 13623, Note_on_c, 0, 76, 0
2, 13627, Note_on_c, 0, 64, 0
2, 13637, Note_on_c, 0, 60, 0
2, 13638, Note_on_c, 0, 59, 0
2, 13640, Note_on_c, 0, 77, 89
2, 13657, Note_on_c, 0, 77, 0
2, 13670, Note_on_c, 0, 79, 110
2, 13692, Note_on_c, 0, 55, 40
2, 13693, Note_on_c, 0, 60, 42
2, 13693, Note_on_c, 0, 65, 43
2, 13694, Note_on_c, 0, 57, 51
2, 13696, Note_on_c, 0, 79, 0
2, 13700, Control_c, 0, 64, 0
2, 13706, Note_on_c, 0, 79, 71
2, 13717, Control_c, 0, 64, 127
2, 13729, Note_on_c, 0, 65, 0
2, 13733, Note_on_c, 0, 79, 0
2, 13733, Note_on_c, 0, 60, 0
2, 13736, Note_on_c, 0, 55, 0
2, 13738, Note_on_c, 0, 57, 0
2, 13741, Note_on_c, 0, 79, 60
2, 13759, Note_on_c, 0, 79, 0
2, 13769, Note_on_c, 0, 79, 45
2, 13783, Note_on_c, 0, 79, 0
2, 13795, Note_on_c, 0, 79, 51
2, 13813, Note_on_c, 0, 79, 0
2, 13820, Note_on_c, 0, 43, 34
2, 13821, Note_on_c, 0, 55, 32
2, 13822, Note_on_c, 0, 79, 44
2, 13824, Control_c, 0, 64, 0
2, 13837, Control_c, 0, 64, 127
2, 13840, Note_on_c, 0, 55, 0
2, 13840, Note_on_c, 0, 43, 0
2, 13841, Note_on_c, 0, 79, 0
2, 13852, Note_on_c, 0, 79, 42
2, 13864, Note_on_c, 0, 79, 0
2, 13877, Note_on_c, 0, 79, 41
2, 13886, Note_on_c, 0, 79, 0
2, 13903, Note_on_c, 0, 79, 48
2, 13923, Note_on_c, 0, 80, 51
2, 13924, Note_on_c, 0, 36, 37
2, 13926, Note_on_c, 0, 43, 26
2, 13927, Control_c, 0, 64, 0
2, 13928, Note_on_c, 0, 79, 0
2, 13928, Note_on_c, 0, 52, 33
2, 13929, Note_on_c, 0, 80, 0
2, 13932, Note_on_c, 0, 81, 38
2, 13945, Control_c, 0, 64, 127
2, 13950, Note_on_c, 0, 81, 0
2, 13954, Note_on_c, 0, 79, 47
2, 13957, Note_on_c, 0, 36, 0
2, 13960, Note_on_c, 0, 43, 0
2, 13968, Note_on_c, 0, 79, 0
2, 13972, Note_on_c, 0, 52, 0
2, 13978, Note_on_c, 0, 79, 36
2, 13994, Note_on_c, 0, 79, 0
2, 14005, Note_on_c, 0, 79, 43
2, 14018, Note_on_c, 0, 79, 0
2, 14037, Note_on_c, 0, 79, 38
2, 14038, Note_on_c, 0, 64, 30
2, 14039, Note_on_c, 0, 59, 38
2, 14040, Note_on_c, 0, 60, 34
2, 14089, Note_on_c, 0, 60, 0
2, 14090, Note_on_c, 0, 59, 0
2, 14092, Note_on_c, 0, 64, 0
2, 14102, Note_on_c, 0, 79, 0
2, 14155, Note_on_c, 0, 55, 34
2, 14157, Note_on_c, 0, 65, 22
2, 14157, Note_on_c, 0, 57, 48
2, 14159, Note_on_c, 0, 60, 29
2, 14162, Control_c, 0, 64, 0
2, 14193, Control_c, 0, 64, 127
2, 14237, Note_on_c, 0, 57, 0
2, 14238, Note_on_c, 0, 60, 0
2, 14239, Note_on_c, 0, 65, 0
2, 14277, Control_c, 0, 64, 0
2, 14280, Note_on_c, 0, 43, 24
2, 14280, Note_on_c, 0, 65, 49
2, 14291, Control_c, 0, 64, 127
2, 14295, Note_on_c, 0, 43, 0
2, 14304, Note_on_c, 0, 65, 0
2, 14375, Note_on_c, 0, 55, 0
2, 14381, Note_on_c, 0, 76, 9
2, 14400, Note_on_c, 0, 48, 66
2, 14406, Control_c, 0, 64, 0
2, 14419, Note_on_c, 0, 79, 1
2, 14423, Control_c, 0, 64, 127
2, 14437, Note_on_c, 0, 48, 0
2, 14477, Note_on_c, 0, 76, 0
2, 14479, Note_on_c, 0, 79, 0
2, 14525, Note_on_c, 0, 64, 37
2, 14526, Note_on_c, 0, 60, 40
2, 14528, Note_on_c, 0, 59, 31
2, 14553, Note_on_c, 0, 59, 0
2, 14553, Note_on_c, 0, 64, 0
2, 14554, Note_on_c, 0, 60, 0
2, 14577, Note_on_c, 0, 79, 90
2, 14577, Note_on_c, 0, 84, 87
2, 14577, Note_on_c, 0, 74, 87
2, 14605, Note_on_c, 0, 84, 0
2, 14611, Note_on_c, 0, 79, 0
2, 14613, Note_on_c, 0, 74, 0
2, 14614, Note_on_c, 0, 82, 72
2, 14615, Note_on_c, 0, 74, 30
2, 14625, Note_on_c, 0, 74, 0
2, 14626, Note_on_c, 0, 82, 0
2, 14633, Note_on_c, 0, 81, 68
2, 14647, Note_on_c, 0, 81, 0
2, 14653, Note_on_c, 0, 79, 42
2, 14653, Note_on_c, 0, 55, 37
2, 14654, Note_on_c, 0, 75, 35
2, 14654, Note_on_c, 0, 71, 27
2, 14654, Note_on_c, 0, 57, 48
2, 14654, Note_on_c, 0, 65, 35
2, 14655, Note_on_c, 0, 59, 37
2, 14657, Control_c, 0, 64, 0
2, 14660, Note_on_c, 0, 71, 0
2, 14661, Note_on_c, 0, 75, 0
2, 14663, Note_on_c, 0, 79, 0
2, 14663, Note_on_c, 0, 65, 0
2, 14664, Note_on_c, 0, 59, 0
2, 14665, Note_on_c, 0, 57, 0
2, 14665, Note_on_c, 0, 55, 0
2, 14701, Note_on_c, 0, 55, 35
2, 14701, Note_on_c, 0, 79, 34
2, 14703, Note_on_c, 0, 71, 24
2, 14703, Note_on_c, 0, 75, 29
2, 14703, Note_on_c, 0, 65, 31
2, 14704, Note_on_c, 0, 57, 41
2, 14705, Note_on_c, 0, 60, 37
2, 14706, Control_c, 0, 64, 127
2, 14740, Note_on_c, 0, 65, 0
2, 14748, Note_on_c, 0, 60, 0
2, 14749, Note_on_c, 0, 71, 0
2, 14753, Note_on_c, 0, 75, 0
2, 14760, Note_on_c, 0, 57, 0
2, 14778, Note_on_c, 0, 79, 0
2, 14785, Note_on_c, 0, 55, 0
2, 14819, Note_on_c, 0, 79, 60
2, 14820, Note_on_c, 0, 55, 55
2, 14821, Note_on_c, 0, 72, 60
2, 14821, Note_on_c, 0, 69, 68
2, 14821, Note_on_c, 0, 65, 51
2, 14821, Note_on_c, 0, 77, 54
2, 14823, Note_on_c, 0, 60, 47
2, 14830, Note_on_c, 0, 60, 0
2, 14831, Note_on_c, 0, 65, 0
2, 14832, Note_on_c, 0, 55, 0
2, 14848, Note_on_c, 0, 79, 0
2, 14849, Note_on_c, 0, 72, 0
2, 14855, Note_on_c, 0, 69, 0
2, 14857, Note_on_c, 0, 77, 0
2, 14932, Note_on_c, 0, 77, 72
2, 14933, Note_on_c, 0, 68, 81
2, 14933, Note_on_c, 0, 71, 73
2, 14934, Note_on_c, 0, 56, 70
2, 14934, Note_on_c, 0, 62, 60
2, 14935, Control_c, 0, 64, 0
2, 14935, Note_on_c, 0, 65, 71
2, 14935, Note_on_c, 0, 74, 48
2, 14949, Control_c, 0, 64, 127
2, 14959, Note_on_c, 0, 62, 0
2, 14961, Note_on_c, 0, 65, 0
2, 14962, Note_on_c, 0, 71, 0
2, 14968, Note_on_c, 0, 77, 0
2, 14972, Note_on_c, 0, 68, 0
2, 14974, Note_on_c, 0, 56, 0
2, 14982, Note_on_c, 0, 74, 0
2, 14992, Note_on_c, 0, 76, 57
2, 14993, Note_on_c, 0, 72, 69
2, 14993, Note_on_c, 0, 55, 64
2, 14993, Note_on_c, 0, 67, 75
2, 14994, Note_on_c, 0, 64, 64
2, 14995, Note_on_c, 0, 60, 58
2, 14996, Control_c, 0, 64, 0
2, 15011, Control_c, 0, 64, 127
2, 15046, Note_on_c, 0, 64, 0
2, 15056, Note_on_c, 0, 72, 0
2, 15059, Note_on_c, 0, 76, 0
2, 15061, Note_on_c, 0, 55, 0
2, 15065, Note_on_c, 0, 67, 0
2, 15065, Note_on_c, 0, 60, 0
2, 15119, Note_on_c, 0, 74, 32
2, 15119, Note_on_c, 0, 69, 52
2, 15120, Note_on_c, 0, 64, 44
2, 15122, Note_on_c, 0, 54, 33
2, 15122, Note_on_c, 0, 60, 35
2, 15125, Control_c, 0, 64, 0
2, 15142, Control_c, 0, 64, 127
2, 15151, Note_on_c, 0, 60, 0
2, 15158, Note_on_c, 0, 54, 0
2, 15173, Note_on_c, 0, 74, 0
2, 15184, Note_on_c, 0, 74, 28
2, 15192, Note_on_c, 0, 69, 0
2, 15196, Note_on_c, 0, 64, 0
2, 15199, Note_on_c, 0, 74, 0
2, 15240, Note_on_c, 0, 65, 42
2, 15240, Note_on_c, 0, 68, 33
2, 15240, Note_on_c, 0, 72, 41
2, 15242, Note_on_c, 0, 60, 34
2, 15245, Note_on_c, 0, 53, 24
2, 15245, Control_c, 0, 64, 0
2, 15263, Control_c, 0, 64, 127
2, 15280, Note_on_c, 0, 53, 0
2, 15289, Note_on_c, 0, 60, 0
2, 15300, Note_on_c, 0, 65, 0
2, 15315, Note_on_c, 0, 68, 0
2, 15327, Note_on_c, 0, 72, 0
2, 15354, Note_on_c, 0, 40, 37
2, 15357, Note_on_c, 0, 55, 43
2, 15358, Control_c, 0, 64, 0
2, 15358, Note_on_c, 0, 64, 30
2, 15359, Note_on_c, 0, 62, 20
2, 15371, Control_c, 0, 64, 127
2, 15378, Note_on_c, 0, 62, 0
2, 15394, Note_on_c, 0, 64, 0
2, 15415, Note_on_c, 0, 55, 0
2, 15445, Note_on_c, 0, 40, 0
2, 15489, Note_on_c, 0, 55, 50
2, 15496, Note_on_c, 0, 55, 0
2, 15503, Note_on_c, 0, 60, 37
2, 15505, Control_c, 0, 64, 0
2, 15511, Note_on_c, 0, 60, 0
2, 15511, Note_on_c, 0, 61, 52
2, 15523, Note_on_c, 0, 61, 0
2, 15528, Note_on_c, 0, 64, 67
2, 15534, Note_on_c, 0, 64, 0
2, 15538, Note_on_c, 0, 66, 55
2, 15545, Note_on_c, 0, 66, 0
2, 15549, Note_on_c, 0, 67, 54
2, 15554, Note_on_c, 0, 68, 50
2, 15556, Note_on_c, 0, 67, 0
2, 15557, Note_on_c, 0, 68, 0
2, 15559, Note_on_c, 0, 69, 57
2, 15566, Note_on_c, 0, 69, 0
2, 15566, Note_on_c, 0, 70, 64
2, 15571, Note_on_c, 0, 70, 0
2, 15578, Note_on_c, 0, 72, 49
2, 15582, Note_on_c, 0, 72, 0
2, 15584, Note_on_c, 0, 73, 36
2, 15591, Note_on_c, 0, 73, 0
2, 15593, Note_on_c, 0, 75, 38
2, 15602, Note_on_c, 0, 75, 0
2, 15603, Note_on_c, 0, 76, 44
2, 15613, Note_on_c, 0, 76, 0
2, 15613, Note_on_c, 0, 79, 68
2, 15614, Note_on_c, 0, 55, 37
2, 15614, Note_on_c, 0, 66, 30
2, 15614, Note_on_c, 0, 61, 28
2, 15622, Note_on_c, 0, 79, 0
2, 15631, Note_on_c, 0, 77, 47
2, 15639, Note_on_c, 0, 77, 0
2, 15654, Note_on_c, 0, 73, 47
2, 15661, Note_on_c, 0, 73, 0
2, 15676, Note_on_c, 0, 66, 0
2, 15695, Note_on_c, 0, 72, 60
2, 15706, Note_on_c, 0, 72, 0
2, 15712, Note_on_c, 0, 69, 57
2, 15718, Note_on_c, 0, 69, 0
2, 15726, Note_on_c, 0, 61, 0
2, 15738, Note_on_c, 0, 61, 25
2, 15741, Note_on_c, 0, 65, 31
2, 15760, Control_c, 0, 64, 127
2, 15761, Note_on_c, 0, 76, 72
2, 15775, Note_on_c, 0, 76, 0
2, 15775, Note_on_c, 0, 65, 0
2, 15783, Note_on_c, 0, 72, 64
2, 15784, Note_on_c, 0, 61, 0
2, 15788, Note_on_c, 0, 55, 0
2, 15797, Note_on_c, 0, 72, 0
2, 15803, Note_on_c, 0, 69, 64
2, 15816, Note_on_c, 0, 69, 0
2, 15823, Note_on_c, 0, 65, 58
2, 15832, Note_on_c, 0, 65, 0
2, 15846, Note_on_c, 0, 64, 55
2, 15849, Note_on_c, 0, 60, 31
2, 15849, Note_on_c, 0, 57, 46
2, 15850, Note_on_c, 0, 50, 33
2, 15852, Control_c, 0, 64, 0
2, 15869, Note_on_c, 0, 64, 0
2, 15874, Note_on_c, 0, 65, 62
2, 15886, Note_on_c, 0, 60, 0
2, 15887, Control_c, 0, 64, 127
2, 15901, Note_on_c, 0, 65, 0
2, 15902, Note_on_c, 0, 60, 44
2, 15920, Note_on_c, 0, 57, 0
2, 15931, Note_on_c, 0, 60, 0
2, 15960, Note_on_c, 0, 62, 77
2, 15962, Note_on_c, 0, 60, 66
2, 15963, Note_on_c, 0, 57, 49
2, 15989, Note_on_c, 0, 60, 0
2, 15992, Note_on_c, 0, 62, 0
2, 15999, Note_on_c, 0, 57, 0
2, 16014, Note_on_c, 0, 64, 92
2, 16016, Note_on_c, 0, 50, 0
2, 16016, Note_on_c, 0, 62, 33
2, 16020, Note_on_c, 0, 62, 0
2, 16037, Note_on_c, 0, 64, 0
2, 16077, Note_on_c, 0, 64, 54
2, 16078, Note_on_c, 0, 60, 60
2, 16078, Note_on_c, 0, 43, 38
2, 16078, Note_on_c, 0, 57, 62
2, 16079, Note_on_c, 0, 53, 32
2, 16079, Control_c, 0, 64, 0
2, 16080, Note_on_c, 0, 50, 26
2, 16097, Control_c, 0, 64, 127
2, 16106, Note_on_c, 0, 57, 0
2, 16106, Note_on_c, 0, 60, 0
2, 16108, Note_on_c, 0, 64, 0
2, 16116, Note_on_c, 0, 53, 0
2, 16138, Note_on_c, 0, 43, 0
2, 16138, Note_on_c, 0, 65, 67
2, 16155, Note_on_c, 0, 65, 0
2, 16165, Note_on_c, 0, 50, 0
2, 16196, Note_on_c, 0, 67, 53
2, 16197, Control_c, 0, 64, 0
2, 16197, Note_on_c, 0, 64, 40
2, 16197, Note_on_c, 0, 43, 32
2, 16198, Note_on_c, 0, 59, 40
2, 16200, Note_on_c, 0, 53, 24
2, 16211, Control_c, 0, 64, 127
2, 16215, Note_on_c, 0, 59, 0
2, 16218, Note_on_c, 0, 64, 0
2, 16219, Note_on_c, 0, 67, 0
2, 16220, Note_on_c, 0, 43, 0
2, 16228, Note_on_c, 0, 53, 0
2, 16257, Note_on_c, 0, 74, 53
2, 16274, Note_on_c, 0, 74, 0
2, 16312, Note_on_c, 0, 67, 45
2, 16312, Note_on_c, 0, 72, 37
2, 16312, Note_on_c, 0, 62, 36
2, 16313, Control_c, 0, 64, 0
2, 16313, Note_on_c, 0, 36, 28
2, 16314, Note_on_c, 0, 43, 26
2, 16316, Note_on_c, 0, 52, 49
2, 16324, Note_on_c, 0, 62, 0
2, 16327, Note_on_c, 0, 67, 0
2, 16327, Control_c, 0, 64, 127
2, 16331, Note_on_c, 0, 72, 0
2, 16339, Note_on_c, 0, 36, 0
2, 16341, Note_on_c, 0, 43, 0
2, 16353, Note_on_c, 0, 52, 0
2, 16378, Note_on_c, 0, 84, 65
2, 16403, Note_on_c, 0, 84, 0
2, 16437, Note_on_c, 0, 67, 32
2, 16438, Note_on_c, 0, 79, 34
2, 16439, Note_on_c, 0, 62, 28
2, 16439, Note_on_c, 0, 64, 25
2, 16440, Note_on_c, 0, 72, 33
2, 16466, Note_on_c, 0, 67, 0
2, 16469, Note_on_c, 0, 84, 63
2, 16471, Note_on_c, 0, 64, 0
2, 16474, Note_on_c, 0, 79, 0
2, 16476, Note_on_c, 0, 62, 0
2, 16481, Note_on_c, 0, 72, 0
2, 16491, Note_on_c, 0, 84, 0
2, 16502, Note_on_c, 0, 72, 28
2, 16502, Note_on_c, 0, 77, 34
2, 16677, Note_on_c, 0, 43, 44
2, 16695, Note_on_c, 0, 43, 0
2, 16741, Note_on_c, 0, 43, 17
2, 16760, Note_on_c, 0, 72, 0
2, 16765, Note_on_c, 0, 77, 0
2, 16799, Note_on_c, 0, 43, 0
2, 16804, Note_on_c, 0, 36, 38
2, 16806, Note_on_c, 0, 52, 51
2, 16810, Control_c, 0, 64, 0
2, 16828, Control_c, 0, 64, 127
2, 16839, Note_on_c, 0, 36, 0
2, 16855, Note_on_c, 0, 52, 0
2, 16924, Note_on_c, 0, 64, 32
2, 16927, Note_on_c, 0, 59, 35
2, 16927, Note_on_c, 0, 60, 30
2, 16971, Note_on_c, 0, 59, 0
2, 16973, Note_on_c, 0, 60, 0
2, 16974, Note_on_c, 0, 64, 0
2, 17044, Note_on_c, 0, 55, 32
2, 17045, Note_on_c, 0, 65, 34
2, 17046, Note_on_c, 0, 57, 50
2, 17047, Control_c, 0, 64, 0
2, 17048, Note_on_c, 0, 60, 33
2, 17063, Control_c, 0, 64, 127
2, 17073, Note_on_c, 0, 65, 0
2, 17074, Note_on_c, 0, 60, 0
2, 17080, Note_on_c, 0, 55, 0
2, 17082, Note_on_c, 0, 57, 0
2, 17163, Note_on_c, 0, 43, 45
2, 17243, Note_on_c, 0, 72, 51
2, 17260, Note_on_c, 0, 72, 0
2, 17274, Note_on_c, 0, 76, 71
2, 17290, Control_c, 0, 64, 0
2, 17291, Note_on_c, 0, 43, 0
2, 17292, Note_on_c, 0, 36, 40
2, 17295, Note_on_c, 0, 52, 42
2, 17300, Note_on_c, 0, 76, 0
2, 17305, Control_c, 0, 64, 127
2, 17308, Note_on_c, 0, 79, 80
2, 17318, Note_on_c, 0, 36, 0
2, 17329, Note_on_c, 0, 79, 0
2, 17330, Note_on_c, 0, 52, 0
2, 17348, Note_on_c, 0, 83, 90
2, 17364, Note_on_c, 0, 83, 0
2, 17383, Note_on_c, 0, 86, 95
2, 17383, Note_on_c, 0, 84, 87
2, 17396, Note_on_c, 0, 84, 0
2, 17410, Note_on_c, 0, 64, 51
2, 17411, Note_on_c, 0, 86, 0
2, 17411, Note_on_c, 0, 60, 51
2, 17411, Note_on_c, 0, 59, 50
2, 17418, Note_on_c, 0, 86, 76
2, 17420, Control_c, 0, 64, 0
2, 17441, Control_c, 0, 64, 127
2, 17449, Note_on_c, 0, 86, 0
2, 17455, Note_on_c, 0, 85, 55
2, 17459, Note_on_c, 0, 86, 51
2, 17466, Note_on_c, 0, 85, 0
2, 17490, Note_on_c, 0, 86, 0
2, 17498, Note_on_c, 0, 86, 67
2, 17501, Note_on_c, 0, 59, 0
2, 17505, Note_on_c, 0, 60, 0
2, 17506, Note_on_c, 0, 64, 0
2, 17529, Note_on_c, 0, 86, 0
2, 17536, Note_on_c, 0, 55, 33
2, 17537, Note_on_c, 0, 65, 37
2, 17537, Note_on_c, 0, 86, 55
2, 17539, Control_c, 0, 64, 0
2, 17540, Note_on_c, 0, 60, 34
2, 17540, Note_on_c, 0, 57, 43
2, 17555, Control_c, 0, 64, 127
2, 17566, Note_on_c, 0, 65, 0
2, 17567, Note_on_c, 0, 60, 0
2, 17573, Note_on_c, 0, 55, 0
2, 17575, Note_on_c, 0, 57, 0
2, 17655, Note_on_c, 0, 43, 45
2, 17670, Note_on_c, 0, 43, 0
2, 17771, Note_on_c, 0, 36, 48
2, 17775, Note_on_c, 0, 43, 24
2, 17776, Note_on_c, 0, 52, 37
2, 17777, Control_c, 0, 64, 0
2, 17793, Control_c, 0, 64, 127
2, 17795, Note_on_c, 0, 86, 0
2, 17805, Note_on_c, 0, 36, 0
2, 17810, Note_on_c, 0, 43, 0
2, 17820, Note_on_c, 0, 52, 0
2, 17827, Note_on_c, 0, 83, 92
2, 17849, Note_on_c, 0, 83, 0
2, 17859, Note_on_c, 0, 79, 79
2, 17877, Note_on_c, 0, 79, 0
2, 17883, Note_on_c, 0, 76, 60
2, 17893, Note_on_c, 0, 64, 31
2, 17893, Note_on_c, 0, 60, 34
2, 17893, Note_on_c, 0, 59, 39
2, 17903, Note_on_c, 0, 76, 0
2, 17904, Control_c, 0, 64, 0
2, 17912, Note_on_c, 0, 79, 84
2, 17922, Control_c, 0, 64, 127
2, 17942, Note_on_c, 0, 79, 0
2, 17948, Note_on_c, 0, 79, 71
2, 17966, Note_on_c, 0, 59, 0
2, 17969, Note_on_c, 0, 64, 0
2, 17971, Note_on_c, 0, 60, 0
2, 18007, Note_on_c, 0, 55, 36
2, 18009, Note_on_c, 0, 65, 41
2, 18010, Note_on_c, 0, 57, 44
2, 18011, Control_c, 0, 64, 0
2, 18011, Note_on_c, 0, 60, 32
2, 18025, Control_c, 0, 64, 127
2, 18041, Note_on_c, 0, 65, 0
2, 18042, Note_on_c, 0, 60, 0
2, 18047, Note_on_c, 0, 55, 0
2, 18049, Note_on_c, 0, 57, 0
2, 18121, Note_on_c, 0, 43, 37
2, 18136, Note_on_c, 0, 43, 0
2, 18215, Note_on_c, 0, 79, 0
2, 18245, Note_on_c, 0, 36, 34
2, 18245, Note_on_c, 0, 43, 32
2, 18247, Note_on_c, 0, 52, 44
2, 18248, Control_c, 0, 64, 0
2, 18265, Control_c, 0, 64, 127
2, 18270, Note_on_c, 0, 36, 0
2, 18271, Note_on_c, 0, 43, 0
2, 18281, Note_on_c, 0, 52, 0
2, 18361, Note_on_c, 0, 79, 94
2, 18361, Note_on_c, 0, 74, 90
2, 18362, Note_on_c, 0, 64, 80
2, 18362, Note_on_c, 0, 58, 84
2, 18362, Note_on_c, 0, 84, 90
2, 18362, Note_on_c, 0, 69, 88
2, 18365, Control_c, 0, 64, 0
2, 18377, Control_c, 0, 64, 127
2, 18395, Note_on_c, 0, 84, 0
2, 18409, Note_on_c, 0, 82, 81
2, 18418, Note_on_c, 0, 69, 0
2, 18420, Note_on_c, 0, 79, 0
2, 18422, Note_on_c, 0, 64, 0
2, 18429, Note_on_c, 0, 58, 0
2, 18434, Note_on_c, 0, 82, 0
2, 18436, Note_on_c, 0, 74, 0
2, 18449, Note_on_c, 0, 81, 74
2, 18459, Note_on_c, 0, 81, 0
2, 18484, Note_on_c, 0, 69, 60
2, 18484, Note_on_c, 0, 79, 55
2, 18485, Note_on_c, 0, 77, 50
2, 18485, Note_on_c, 0, 72, 54
2, 18485, Note_on_c, 0, 67, 46
2, 18490, Control_c, 0, 64, 0
2, 18522, Note_on_c, 0, 55, 48
2, 18522, Control_c, 0, 64, 127
2, 18545, Note_on_c, 0, 72, 0
2, 18577, Note_on_c, 0, 69, 0
2, 18578, Note_on_c, 0, 67, 0
2, 18602, Note_on_c, 0, 67, 30
2, 18616, Note_on_c, 0, 79, 0
2, 18630, Note_on_c, 0, 69, 53
2, 18632, Note_on_c, 0, 77, 0
2, 18638, Note_on_c, 0, 69, 0
2, 18639, Note_on_c, 0, 67, 0
2, 18648, Note_on_c, 0, 55, 0
2, 18650, Note_on_c, 0, 72, 57
2, 18662, Note_on_c, 0, 72, 0
2, 18669, Note_on_c, 0, 79, 64
2, 18677, Note_on_c, 0, 79, 0
2, 18688, Note_on_c, 0, 83, 75
2, 18699, Note_on_c, 0, 83, 0
2, 18707, Note_on_c, 0, 86, 81
2, 18718, Note_on_c, 0, 86, 0
2, 18723, Control_c, 0, 64, 0
2, 18723, Note_on_c, 0, 65, 37
2, 18724, Note_on_c, 0, 56, 30
2, 18730, Note_on_c, 0, 89, 85
2, 18744, Note_on_c, 0, 89, 0
2, 18757, Note_on_c, 0, 88, 75
2, 18768, Note_on_c, 0, 88, 0
2, 18781, Note_on_c, 0, 86, 71
2, 18785, Control_c, 0, 64, 127
2, 18793, Note_on_c, 0, 86, 0
2, 18804, Note_on_c, 0, 84, 62
2, 18815, Note_on_c, 0, 84, 0
2, 18819, Note_on_c, 0, 65, 0
2, 18825, Note_on_c, 0, 56, 0
2, 18830, Note_on_c, 0, 86, 62
2, 18835, Note_on_c, 0, 64, 42
2, 18835, Note_on_c, 0, 55, 57
2, 18839, Control_c, 0, 64, 0
2, 18852, Note_on_c, 0, 86, 0
2, 18860, Note_on_c, 0, 84, 58
2, 18872, Note_on_c, 0, 84, 0
2, 18881, Note_on_c, 0, 79, 57
2, 18882, Control_c, 0, 64, 127
2, 18900, Note_on_c, 0, 76, 36
2, 18912, Note_on_c, 0, 55, 0
2, 18929, Note_on_c, 0, 64, 0
2, 18945, Note_on_c, 0, 76, 0
2, 18960, Note_on_c, 0, 54, 90
2, 19021, Note_on_c, 0, 79, 0
2, 19027, Control_c, 0, 64, 0
2, 19031, Control_c, 0, 64, 127
2, 19046, Note_on_c, 0, 54, 0
2, 19056, Control_c, 0, 64, 0
2, 19065, Note_on_c, 0, 81, 91
2, 19065, Note_on_c, 0, 60, 66
2, 19065, Note_on_c, 0, 53, 36
2, 19066, Note_on_c, 0, 76, 79
2, 19066, Note_on_c, 0, 64, 73
2, 19069, Control_c, 0, 64, 127
2, 19086, Note_on_c, 0, 76, 0
2, 19087, Note_on_c, 0, 81, 0
2, 19089, Note_on_c, 0, 84, 83
2, 19094, Note_on_c, 0, 64, 0
2, 19107, Note_on_c, 0, 84, 0
2, 19110, Note_on_c, 0, 53, 0
2, 19116, Note_on_c, 0, 80, 71
2, 19116, Control_c, 0, 64, 0
2, 19117, Note_on_c, 0, 72, 62
2, 19117, Note_on_c, 0, 63, 58
2, 19118, Note_on_c, 0, 56, 37
2, 19118, Note_on_c, 0, 77, 63
2, 19119, Note_on_c, 0, 53, 49
2, 19132, Control_c, 0, 64, 127
2, 19133, Note_on_c, 0, 77, 0
2, 19141, Note_on_c, 0, 72, 0
2, 19147, Note_on_c, 0, 77, 55
2, 19157, Note_on_c, 0, 63, 0
2, 19160, Note_on_c, 0, 60, 0
2, 19160, Note_on_c, 0, 80, 0
2, 19167, Note_on_c, 0, 53, 0
2, 19170, Note_on_c, 0, 72, 53
2, 19171, Note_on_c, 0, 77, 0
2, 19179, Note_on_c, 0, 72, 0
2, 19191, Note_on_c, 0, 68, 57
2, 19194, Note_on_c, 0, 56, 0
2, 19195, Note_on_c, 0, 68, 0
2, 19208, Note_on_c, 0, 79, 53
2, 19209, Note_on_c, 0, 62, 39
2, 19210, Note_on_c, 0, 55, 37
2, 19210, Note_on_c, 0, 52, 48
2, 19210, Note_on_c, 0, 59, 37
2, 19212, Control_c, 0, 64, 0
2, 19232, Control_c, 0, 64, 127
2, 19235, Note_on_c, 0, 79, 0
2, 19235, Note_on_c, 0, 67, 37
2, 19247, Note_on_c, 0, 67, 0
2, 19252, Note_on_c, 0, 62, 0
2, 19260, Note_on_c, 0, 71, 39
2, 19266, Note_on_c, 0, 55, 0
2, 19269, Note_on_c, 0, 59, 0
2, 19316, Note_on_c, 0, 59, 24
2, 19317, Note_on_c, 0, 62, 26
2, 19318, Note_on_c, 0, 55, 31
2, 19355, Note_on_c, 0, 62, 0
2, 19372, Note_on_c, 0, 59, 0
2, 19377, Note_on_c, 0, 55, 0
2, 19382, Note_on_c, 0, 71, 0
2, 19387, Note_on_c, 0, 52, 0
2, 19439, Note_on_c, 0, 64, 51
2, 19439, Control_c, 0, 64, 0
2, 19439, Note_on_c, 0, 61, 38
2, 19441, Note_on_c, 0, 55, 26
2, 19441, Note_on_c, 0, 52, 36
2, 19441, Note_on_c, 0, 58, 36
2, 19442, Note_on_c, 0, 45, 27
2, 19450, Control_c, 0, 64, 127
2, 19452, Note_on_c, 0, 58, 0
2, 19453, Note_on_c, 0, 61, 0
2, 19453, Note_on_c, 0, 64, 0
2, 19455, Note_on_c, 0, 45, 0
2, 19457, Note_on_c, 0, 52, 0
2, 19458, Note_on_c, 0, 55, 0
2, 19483, Control_c, 0, 64, 0
2, 19483, Note_on_c, 0, 61, 86
2, 19483, Note_on_c, 0, 72, 74
2, 19484, Note_on_c, 0, 64, 84
2, 19484, Note_on_c, 0, 60, 88
2, 19485, Note_on_c, 0, 70, 50
2, 19485, Note_on_c, 0, 67, 68
2, 19493, Control_c, 0, 64, 127
2, 19497, Note_on_c, 0, 61, 0
2, 19499, Note_on_c, 0, 64, 0
2, 19499, Note_on_c, 0, 67, 0
2, 19503, Note_on_c, 0, 70, 0
2, 19503, Note_on_c, 0, 72, 0
2, 19506, Note_on_c, 0, 60, 0
2, 19522, Control_c, 0, 64, 0
2, 19522, Note_on_c, 0, 63, 87
2, 19522, Note_on_c, 0, 70, 72
2, 19522, Note_on_c, 0, 75, 83
2, 19523, Note_on_c, 0, 67, 85
2, 19523, Note_on_c, 0, 64, 88
2, 19533, Control_c, 0, 64, 127
2, 19537, Note_on_c, 0, 67, 0
2, 19539, Note_on_c, 0, 75, 0
2, 19539, Note_on_c, 0, 70, 0
2, 19540, Note_on_c, 0, 63, 0
2, 19540, Note_on_c, 0, 64, 0
2, 19556, Note_on_c, 0, 72, 60
2, 19557, Note_on_c, 0, 60, 74
2, 19557, Control_c, 0, 64, 0
2, 19558, Note_on_c, 0, 64, 73
2, 19559, Note_on_c, 0, 61, 59
2, 19560, Note_on_c, 0, 67, 28
2, 19567, Note_on_c, 0, 67, 0
2, 19567, Control_c, 0, 64, 127
2, 19568, Note_on_c, 0, 64, 0
2, 19568, Note_on_c, 0, 72, 0
2, 19569, Note_on_c, 0, 60, 0
2, 19576, Note_on_c, 0, 61, 0
2, 19594, Control_c, 0, 64, 0
2, 19595, Note_on_c, 0, 61, 53
2, 19595, Note_on_c, 0, 69, 68
2, 19596, Note_on_c, 0, 57, 58
2, 19597, Note_on_c, 0, 64, 47
2, 19597, Note_on_c, 0, 58, 47
2, 19607, Control_c, 0, 64, 127
2, 19613, Note_on_c, 0, 64, 0
2, 19617, Note_on_c, 0, 69, 0
2, 19618, Note_on_c, 0, 61, 0
2, 19620, Note_on_c, 0, 58, 0
2, 19623, Note_on_c, 0, 57, 0
2, 19630, Note_on_c, 0, 58, 55
2, 19631, Note_on_c, 0, 61, 40
2, 19631, Note_on_c, 0, 64, 35
2, 19632, Note_on_c, 0, 51, 49
2, 19648, Note_on_c, 0, 58, 0
2, 19648, Note_on_c, 0, 66, 25
2, 19651, Note_on_c, 0, 61, 0
2, 19653, Note_on_c, 0, 64, 0
2, 19656, Note_on_c, 0, 66, 0
2, 19665, Control_c, 0, 64, 0
2, 19666, Note_on_c, 0, 67, 60
2, 19667, Note_on_c, 0, 51, 0
2, 19668, Note_on_c, 0, 60, 60
2, 19669, Note_on_c, 0, 52, 50
2, 19669, Note_on_c, 0, 57, 66
2, 19682, Control_c, 0, 64, 127
2, 19685, Note_on_c, 0, 67, 0
2, 19689, Note_on_c, 0, 57, 0
2, 19690, Note_on_c, 0, 60, 0
2, 19694, Control_c, 0, 64, 0
2, 19697, Note_on_c, 0, 66, 46
2, 19699, Note_on_c, 0, 57, 44
2, 19699, Note_on_c, 0, 51, 59
2, 19700, Note_on_c, 0, 52, 0
2, 19700, Note_on_c, 0, 60, 35
2, 19712, Note_on_c, 0, 66, 0
2, 19713, Note_on_c, 0, 60, 0
2, 19713, Control_c, 0, 64, 127
2, 19714, Note_on_c, 0, 57, 0
2, 19717, Control_c, 0, 64, 0
2, 19726, Note_on_c, 0, 51, 0
2, 19727, Note_on_c, 0, 65, 51
2, 19728, Note_on_c, 0, 60, 46
2, 19728, Note_on_c, 0, 57, 44
2, 19729, Note_on_c, 0, 50, 38
2, 19741, Control_c, 0, 64, 127
2, 19758, Note_on_c, 0, 60, 0
2, 19764, Note_on_c, 0, 65, 0
2, 19764, Note_on_c, 0, 57, 0
2, 19769, Note_on_c, 0, 50, 0
2, 19786, Note_on_c, 0, 57, 58
2, 19788, Note_on_c, 0, 50, 37
2, 19788, Control_c, 0, 64, 0
2, 19797, Note_on_c, 0, 53, 6
2, 19797, Control_c, 0, 64, 127
2, 19820, Note_on_c, 0, 53, 0
2, 19828, Note_on_c, 0, 60, 79
2, 19832, Note_on_c, 0, 57, 0
2, 19849, Note_on_c, 0, 60, 0
2, 19858, Note_on_c, 0, 60, 92
2, 19876, Note_on_c, 0, 60, 0
2, 19883, Note_on_c, 0, 60, 90
2, 19894, Note_on_c, 0, 60, 0
2, 19906, Note_on_c, 0, 56, 59
2, 19907, Note_on_c, 0, 43, 44
2, 19912, Control_c, 0, 64, 0
2, 19913, Note_on_c, 0, 56, 0
2, 19915, Note_on_c, 0, 57, 74
2, 19940, Note_on_c, 0, 57, 0
2, 19942, Note_on_c, 0, 60, 80
2, 19944, Note_on_c, 0, 57, 35
2, 19946, Control_c, 0, 64, 127
2, 19949, Note_on_c, 0, 57, 0
2, 19962, Note_on_c, 0, 60, 0
2, 19972, Note_on_c, 0, 60, 74
2, 19985, Note_on_c, 0, 60, 0
2, 19993, Note_on_c, 0, 43, 0
2, 20000, Note_on_c, 0, 60, 62
2, 20003, Note_on_c, 0, 50, 0
2, 20018, Note_on_c, 0, 60, 0
2, 20032, Note_on_c, 0, 60, 41
2, 20032, Control_c, 0, 64, 0
2, 20033, Note_on_c, 0, 53, 43
2, 20033, Note_on_c, 0, 43, 36
2, 20034, Note_on_c, 0, 57, 48
2, 20053, Control_c, 0, 64, 127
2, 20090, Note_on_c, 0, 53, 0
2, 20091, Note_on_c, 0, 60, 0
2, 20092, Note_on_c, 0, 43, 0
2, 20096, Note_on_c, 0, 57, 0
2, 20102, Note_on_c, 0, 60, 63
2, 20115, Note_on_c, 0, 60, 0
2, 20162, Control_c, 0, 64, 0
2, 20163, Note_on_c, 0, 60, 53
2, 20163, Note_on_c, 0, 36, 29
2, 20163, Note_on_c, 0, 43, 22
2, 20163, Note_on_c, 0, 55, 29
2, 20165, Note_on_c, 0, 52, 53
2, 20179, Note_on_c, 0, 55, 0
2, 20181, Control_c, 0, 64, 127
2, 20186, Note_on_c, 0, 60, 0
2, 20189, Note_on_c, 0, 36, 0
2, 20193, Note_on_c, 0, 43, 0
2, 20203, Note_on_c, 0, 52, 0
2, 20215, Note_on_c, 0, 79, 60
2, 20235, Note_on_c, 0, 79, 0
2, 20247, Note_on_c, 0, 67, 45
2, 20269, Note_on_c, 0, 67, 0
2, 20283, Note_on_c, 0, 67, 42
2, 20284, Note_on_c, 0, 64, 31
2, 20300, Note_on_c, 0, 60, 1
2, 20334, Note_on_c, 0, 68, 42
2, 20335, Note_on_c, 0, 67, 0
2, 20337, Note_on_c, 0, 60, 0
2, 20340, Note_on_c, 0, 64, 0
2, 20345, Note_on_c, 0, 68, 0
2, 20347, Note_on_c, 0, 70, 58
2, 20352, Note_on_c, 0, 70, 0
2, 20359, Note_on_c, 0, 72, 53
2, 20364, Note_on_c, 0, 72, 0
2, 20366, Control_c, 0, 64, 0
2, 20367, Note_on_c, 0, 73, 39
2, 20375, Note_on_c, 0, 73, 0
2, 20378, Note_on_c, 0, 75, 37
2, 20381, Note_on_c, 0, 75, 0
2, 20388, Note_on_c, 0, 77, 27
2, 20398, Note_on_c, 0, 77, 0
2, 20399, Note_on_c, 0, 79, 36
2, 20407, Note_on_c, 0, 80, 32
2, 20408, Note_on_c, 0, 79, 0
2, 20412, Note_on_c, 0, 61, 29
2, 20413, Note_on_c, 0, 55, 35
2, 20414, Note_on_c, 0, 65, 34
2, 20415, Note_on_c, 0, 80, 0
2, 20415, Note_on_c, 0, 82, 54
2, 20416, Note_on_c, 0, 56, 32
2, 20422, Note_on_c, 0, 82, 0
2, 20436, Note_on_c, 0, 85, 55
2, 20444, Note_on_c, 0, 85, 0
2, 20448, Note_on_c, 0, 87, 35
2, 20451, Note_on_c, 0, 87, 0
2, 20457, Note_on_c, 0, 89, 39
2, 20466, Note_on_c, 0, 89, 0
2, 20469, Note_on_c, 0, 91, 31
2, 20472, Note_on_c, 0, 92, 52
2, 20478, Note_on_c, 0, 91, 0
2, 20483, Note_on_c, 0, 92, 0
2, 20484, Note_on_c, 0, 94, 53
2, 20487, Note_on_c, 0, 94, 0
2, 20499, Note_on_c, 0, 56, 0
2, 20499, Note_on_c, 0, 65, 0
2, 20502, Note_on_c, 0, 61, 0
2, 20517, Control_c, 0, 64, 127
2, 20541, Note_on_c, 0, 56, 31
2, 20542, Note_on_c, 0, 65, 30
2, 20542, Note_on_c, 0, 61, 25
2, 20569, Note_on_c, 0, 83, 34
2, 20570, Note_on_c, 0, 84, 29
2, 20574, Note_on_c, 0, 84, 0
2, 20576, Note_on_c, 0, 83, 0
2, 20581, Note_on_c, 0, 84, 74
2, 20589, Note_on_c, 0, 61, 0
2, 20591, Note_on_c, 0, 84, 0
2, 20592, Note_on_c, 0, 56, 0
2, 20595, Note_on_c, 0, 86, 85
2, 20596, Note_on_c, 0, 65, 0
2, 20608, Note_on_c, 0, 86, 0
2, 20614, Note_on_c, 0, 83, 70
2, 20625, Note_on_c, 0, 83, 0
2, 20628, Note_on_c, 0, 79, 54
2, 20632, Note_on_c, 0, 79, 0
2, 20644, Note_on_c, 0, 81, 60
2, 20645, Note_on_c, 0, 67, 37
2, 20645, Control_c, 0, 64, 0
2, 20647, Note_on_c, 0, 64, 40
2, 20647, Note_on_c, 0, 62, 32
2, 20652, Note_on_c, 0, 81, 0
2, 20662, Note_on_c, 0, 83, 56
2, 20669, Note_on_c, 0, 83, 0
2, 20675, Note_on_c, 0, 67, 0
2, 20681, Note_on_c, 0, 79, 58
2, 20690, Note_on_c, 0, 79, 0
2, 20698, Note_on_c, 0, 76, 41
2, 20705, Note_on_c, 0, 76, 0
2, 20714, Note_on_c, 0, 78, 69
2, 20723, Note_on_c, 0, 78, 0
2, 20731, Note_on_c, 0, 79, 65
2, 20732, Note_on_c, 0, 62, 0
2, 20733, Note_on_c, 0, 64, 0
2, 20738, Note_on_c, 0, 79, 0
2, 20744, Control_c, 0, 64, 127
2, 20753, Note_on_c, 0, 76, 60
2, 20753, Control_c, 0, 64, 0
2, 20761, Note_on_c, 0, 76, 0
2, 20762, Note_on_c, 0, 64, 42
2, 20764, Note_on_c, 0, 67, 26
2, 20764, Note_on_c, 0, 62, 34
2, 20772, Note_on_c, 0, 67, 0
2, 20773, Note_on_c, 0, 71, 50
2, 20777, Note_on_c, 0, 71, 0
2, 20790, Note_on_c, 0, 72, 60
2, 20796, Note_on_c, 0, 72, 0
2, 20797, Note_on_c, 0, 62, 0
2, 20798, Note_on_c, 0, 64, 0
2, 20804, Note_on_c, 0, 74, 64
2, 20812, Note_on_c, 0, 74, 0
2, 20821, Note_on_c, 0, 71, 51
2, 20829, Note_on_c, 0, 71, 0
2, 20837, Note_on_c, 0, 67, 37
2, 20842, Note_on_c, 0, 67, 0
2, 20846, Control_c, 0, 64, 127
2, 20852, Note_on_c, 0, 69, 61
2, 20860, Note_on_c, 0, 69, 0
2, 20866, Note_on_c, 0, 71, 65
2, 20868, Control_c, 0, 64, 0
2, 20870, Note_on_c, 0, 65, 35
2, 20876, Note_on_c, 0, 71, 0
2, 20876, Note_on_c, 0, 57, 29
2, 20881, Note_on_c, 0, 65, 0
2, 20884, Note_on_c, 0, 67, 64
2, 20886, Control_c, 0, 64, 127
2, 20889, Note_on_c, 0, 57, 0
2, 20890, Note_on_c, 0, 55, 0
2, 20899, Note_on_c, 0, 67, 0
2, 20907, Note_on_c, 0, 64, 44
2, 20927, Note_on_c, 0, 64, 0
2, 20942, Note_on_c, 0, 62, 71
2, 20997, Note_on_c, 0, 62, 0
2, 20998, Note_on_c, 0, 59, 44
2, 20998, Note_on_c, 0, 55, 42
2, 20999, Control_c, 0, 64, 0
2, 21000, Note_on_c, 0, 43, 32
2, 21013, Control_c, 0, 64, 127
2, 21020, Note_on_c, 0, 55, 0
2, 21022, Note_on_c, 0, 43, 0
2, 21050, Note_on_c, 0, 59, 0
2, 21061, Note_on_c, 0, 43, 36
2, 21104, Note_on_c, 0, 43, 0
2, 21117, Note_on_c, 0, 36, 38
2, 21121, Control_c, 0, 64, 0
2, 21122, Note_on_c, 0, 52, 56
2, 21143, Control_c, 0, 64, 127
2, 21149, Note_on_c, 0, 36, 0
2, 21161, Note_on_c, 0, 52, 0
2, 21243, Note_on_c, 0, 64, 28
2, 21245, Note_on_c, 0, 59, 44
2, 21245, Note_on_c, 0, 60, 33
2, 21278, Note_on_c, 0, 76, 99
2, 21299, Note_on_c, 0, 76, 0
2, 21314, Note_on_c, 0, 64, 0
2, 21316, Note_on_c, 0, 77, 87
2, 21319, Note_on_c, 0, 59, 0
2, 21320, Note_on_c, 0, 60, 0
2, 21328, Note_on_c, 0, 77, 0
2, 21364, Note_on_c, 0, 79, 80
2, 21365, Note_on_c, 0, 68, 88
2, 21366, Note_on_c, 0, 65, 64
2, 21367, Note_on_c, 0, 55, 48
2, 21368, Note_on_c, 0, 61, 33
2, 21371, Control_c, 0, 64, 0
2, 21379, Note_on_c, 0, 65, 0
2, 21382, Note_on_c, 0, 61, 0
2, 21385, Note_on_c, 0, 55, 0
2, 21385, Note_on_c, 0, 68, 0
2, 21387, Note_on_c, 0, 79, 0
2, 21426, Note_on_c, 0, 68, 68
2, 21426, Note_on_c, 0, 79, 75
2, 21427, Note_on_c, 0, 65, 67
2, 21428, Note_on_c, 0, 55, 49
2, 21432, Note_on_c, 0, 60, 41
2, 21449, Note_on_c, 0, 65, 0
2, 21450, Note_on_c, 0, 68, 0
2, 21451, Note_on_c, 0, 60, 0
2, 21451, Note_on_c, 0, 79, 0
2, 21452, Note_on_c, 0, 55, 0
2, 21499, Control_c, 0, 64, 127
2, 21539, Note_on_c, 0, 79, 53
2, 21540, Note_on_c, 0, 65, 41
2, 21540, Note_on_c, 0, 68, 38
2, 21541, Note_on_c, 0, 60, 40
2, 21541, Note_on_c, 0, 55, 37
2, 21554, Note_on_c, 0, 60, 0
2, 21559, Note_on_c, 0, 65, 0
2, 21560, Note_on_c, 0, 79, 0
2, 21560, Note_on_c, 0, 68, 0
2, 21595, Note_on_c, 0, 81, 55
2, 21598, Note_on_c, 0, 76, 25
2, 21598, Note_on_c, 0, 64, 42
2, 21598, Note_on_c, 0, 67, 51
2, 21598, Control_c, 0, 64, 0
2, 21598, Note_on_c, 0, 62, 32
2, 21599, Note_on_c, 0, 74, 29
2, 21612, Control_c, 0, 64, 127
2, 21613, Note_on_c, 0, 71, 1
2, 21622, Note_on_c, 0, 67, 0
2, 21625, Note_on_c, 0, 81, 0
2, 21628, Note_on_c, 0, 74, 0
2, 21632, Note_on_c, 0, 71, 0
2, 21635, Note_on_c, 0, 55, 0
2, 21643, Note_on_c, 0, 76, 0
2, 21656, Note_on_c, 0, 55, 42
2, 21656, Note_on_c, 0, 79, 37
2, 21679, Note_on_c, 0, 64, 0
2, 21681, Note_on_c, 0, 62, 0
2, 21714, Note_on_c, 0, 67, 35
2, 21715, Note_on_c, 0, 62, 32
2, 21716, Note_on_c, 0, 64, 32
2, 21729, Note_on_c, 0, 67, 0
2, 21738, Note_on_c, 0, 79, 0
2, 21742, Note_on_c, 0, 55, 0
2, 21778, Note_on_c, 0, 55, 40
2, 21793, Note_on_c, 0, 64, 0
2, 21793, Note_on_c, 0, 62, 0
2, 21904, Note_on_c, 0, 65, 46
2, 21905, Note_on_c, 0, 60, 33
2, 21907, Note_on_c, 0, 57, 26
2, 21929, Note_on_c, 0, 65, 0
2, 21932, Note_on_c, 0, 60, 0
2, 21934, Note_on_c, 0, 57, 0
2, 21937, Note_on_c, 0, 55, 0
2, 21956, Note_on_c, 0, 65, 32
2, 21960, Note_on_c, 0, 65, 0
2, 21965, Note_on_c, 0, 67, 31
2, 21971, Control_c, 0, 64, 0
2, 21972, Note_on_c, 0, 67, 0
2, 21977, Note_on_c, 0, 69, 40
2, 21981, Note_on_c, 0, 69, 0
2, 21987, Note_on_c, 0, 71, 36
2, 21991, Note_on_c, 0, 71, 0
2, 21997, Note_on_c, 0, 72, 37
2, 22000, Note_on_c, 0, 72, 0
2, 22002, Note_on_c, 0, 74, 25
2, 22008, Note_on_c, 0, 74, 0
2, 22009, Note_on_c, 0, 43, 34
2, 22009, Note_on_c, 0, 76, 34
2, 22009, Control_c, 0, 64, 127
2, 22014, Note_on_c, 0, 43, 0
2, 22016, Note_on_c, 0, 76, 0
2, 22019, Note_on_c, 0, 77, 33
2, 22025, Note_on_c, 0, 77, 0
2, 22027, Note_on_c, 0, 79, 32
2, 22033, Note_on_c, 0, 79, 0
2, 22037, Note_on_c, 0, 81, 37
2, 22040, Note_on_c, 0, 81, 0
2, 22045, Note_on_c, 0, 83, 42
2, 22049, Note_on_c, 0, 83, 0
2, 22054, Note_on_c, 0, 84, 35
2, 22058, Note_on_c, 0, 84, 0
2, 22063, Note_on_c, 0, 86, 36
2, 22066, Note_on_c, 0, 86, 0
2, 22069, Note_on_c, 0, 36, 51
2, 22070, Note_on_c, 0, 88, 36
2, 22073, Note_on_c, 0, 52, 43
2, 22074, Control_c, 0, 64, 0
2, 22093, Control_c, 0, 64, 127
2, 22099, Note_on_c, 0, 36, 0
2, 22110, Note_on_c, 0, 88, 0
2, 22112, Note_on_c, 0, 86, 27
2, 22113, Note_on_c, 0, 52, 0
2, 22130, Note_on_c, 0, 86, 0
2, 22134, Note_on_c, 0, 95, 75
2, 22158, Note_on_c, 0, 91, 53
2, 22162, Note_on_c, 0, 95, 0
2, 22173, Note_on_c, 0, 91, 0
2, 22191, Note_on_c, 0, 64, 45
2, 22193, Note_on_c, 0, 60, 37
2, 22195, Note_on_c, 0, 59, 36
2, 22228, Note_on_c, 0, 96, 95
2, 22244, Note_on_c, 0, 60, 0
2, 22244, Note_on_c, 0, 64, 0
2, 22247, Note_on_c, 0, 96, 0
2, 22255, Note_on_c, 0, 59, 0
2, 22256, Note_on_c, 0, 94, 87
2, 22274, Note_on_c, 0, 94, 0
2, 22285, Note_on_c, 0, 93, 91
2, 22297, Note_on_c, 0, 93, 0
2, 22378, Note_on_c, 0, 91, 82
2, 22379, Note_on_c, 0, 55, 44
2, 22379, Note_on_c, 0, 65, 49
2, 22380, Note_on_c, 0, 81, 62
2, 22381, Note_on_c, 0, 60, 44
2, 22385, Control_c, 0, 64, 0
2, 22402, Control_c, 0, 64, 127
2, 22436, Note_on_c, 0, 91, 0
2, 22446, Note_on_c, 0, 91, 54
2, 22470, Note_on_c, 0, 55, 0
2, 22476, Note_on_c, 0, 91, 0
2, 22501, Note_on_c, 0, 55, 34
2, 22519, Note_on_c, 0, 55, 0
2, 22519, Note_on_c, 0, 60, 0
2, 22526, Note_on_c, 0, 81, 0
2, 22532, Note_on_c, 0, 65, 0
2, 22558, Note_on_c, 0, 56, 27
2, 22562, Control_c, 0, 64, 0
2, 22585, Note_on_c, 0, 92, 60
2, 22598, Note_on_c, 0, 92, 0
2, 22607, Note_on_c, 0, 100, 80
2, 22619, Note_on_c, 0, 100, 0
2, 22627, Control_c, 0, 64, 127
2, 22628, Note_on_c, 0, 98, 76
2, 22632, Note_on_c, 0, 100, 22
2, 22636, Note_on_c, 0, 100, 0
2, 22641, Note_on_c, 0, 98, 0
2, 22649, Note_on_c, 0, 95, 74
2, 22662, Note_on_c, 0, 95, 0
2, 22669, Note_on_c, 0, 56, 0
2, 22669, Note_on_c, 0, 92, 62
2, 22680, Note_on_c, 0, 55, 37
2, 22682, Note_on_c, 0, 92, 0
2, 22683, Note_on_c, 0, 64, 30
2, 22684, Control_c, 0, 64, 0
2, 22684, Note_on_c, 0, 60, 32
2, 22690, Note_on_c, 0, 98, 80
2, 22702, Note_on_c, 0, 98, 0
2, 22710, Note_on_c, 0, 96, 78
2, 22722, Note_on_c, 0, 96, 0
2, 22730, Note_on_c, 0, 91, 71
2, 22744, Control_c, 0, 64, 127
2, 22745, Note_on_c, 0, 91, 0
2, 22749, Note_on_c, 0, 88, 50
2, 22761, Note_on_c, 0, 88, 0
2, 22768, Note_on_c, 0, 93, 79
2, 22778, Note_on_c, 0, 55, 0
2, 22781, Note_on_c, 0, 93, 0
2, 22787, Note_on_c, 0, 91, 74
2, 22788, Note_on_c, 0, 93, 37
2, 22792, Note_on_c, 0, 93, 0
2, 22800, Note_on_c, 0, 91, 0
2, 22805, Note_on_c, 0, 54, 38
2, 22806, Note_on_c, 0, 88, 58
2, 22809, Control_c, 0, 64, 0
2, 22818, Note_on_c, 0, 88, 0
2, 22824, Note_on_c, 0, 64, 0
2, 22826, Note_on_c, 0, 84, 60
2, 22840, Note_on_c, 0, 84, 0
2, 22847, Note_on_c, 0, 79, 36
2, 22850, Control_c, 0, 64, 127
2, 22854, Note_on_c, 0, 79, 0
2, 22866, Note_on_c, 0, 76, 25
2, 22878, Note_on_c, 0, 76, 0
2, 22885, Note_on_c, 0, 72, 41
2, 22898, Note_on_c, 0, 72, 0
2, 22906, Note_on_c, 0, 79, 74
2, 22908, Note_on_c, 0, 54, 0
2, 22916, Note_on_c, 0, 60, 0
2, 22917, Note_on_c, 0, 53, 41
2, 22921, Note_on_c, 0, 79, 0
2, 22922, Control_c, 0, 64, 0
2, 22924, Note_on_c, 0, 77, 53
2, 22939, Note_on_c, 0, 77, 0
2, 22941, Note_on_c, 0, 72, 45
2, 22950, Note_on_c, 0, 72, 0
2, 22955, Note_on_c, 0, 68, 47
2, 22968, Note_on_c, 0, 68, 0
2, 22973, Note_on_c, 0, 67, 33
2, 22983, Note_on_c, 0, 67, 0
2, 22987, Note_on_c, 0, 70, 71
2, 22999, Note_on_c, 0, 70, 0
2, 23004, Note_on_c, 0, 68, 65
2, 23006, Note_on_c, 0, 53, 0
2, 23013, Note_on_c, 0, 68, 0
2, 23016, Note_on_c, 0, 70, 52
2, 23023, Note_on_c, 0, 68, 36
2, 23027, Note_on_c, 0, 70, 0
2, 23034, Note_on_c, 0, 68, 0
2, 23035, Note_on_c, 0, 67, 43
2, 23039, Note_on_c, 0, 67, 0
2, 23043, Note_on_c, 0, 65, 55
2, 23045, Control_c, 0, 64, 127
2, 23048, Note_on_c, 0, 59, 26
2, 23048, Note_on_c, 0, 62, 24
2, 23049, Note_on_c, 0, 52, 36
2, 23050, Control_c, 0, 64, 0
2, 23050, Note_on_c, 0, 55, 30
2, 23059, Note_on_c, 0, 65, 0
2, 23059, Note_on_c, 0, 64, 42
2, 23097, Control_c, 0, 64, 127
2, 23105, Note_on_c, 0, 62, 0
2, 23107, Note_on_c, 0, 55, 0
2, 23122, Note_on_c, 0, 59, 0
2, 23168, Note_on_c, 0, 62, 32
2, 23169, Note_on_c, 0, 59, 33
2, 23172, Note_on_c, 0, 55, 31
2, 23174, Control_c, 0, 64, 0
2, 23188, Note_on_c, 0, 64, 0
2, 23190, Note_on_c, 0, 65, 46
2, 23200, Note_on_c, 0, 65, 0
2, 23200, Note_on_c, 0, 62, 0
2, 23201, Note_on_c, 0, 66, 55
2, 23210, Note_on_c, 0, 66, 0
2, 23215, Note_on_c, 0, 59, 0
2, 23215, Note_on_c, 0, 67, 56
2, 23216, Note_on_c, 0, 55, 0
2, 23218, Note_on_c, 0, 52, 0
2, 23225, Note_on_c, 0, 67, 0
2, 23226, Note_on_c, 0, 69, 56
2, 23235, Note_on_c, 0, 69, 0
2, 23235, Note_on_c, 0, 70, 57
2, 23243, Note_on_c, 0, 70, 0
2, 23247, Note_on_c, 0, 72, 38
2, 23256, Note_on_c, 0, 72, 0
2, 23258, Note_on_c, 0, 73, 34
2, 23267, Note_on_c, 0, 73, 0
2, 23268, Note_on_c, 0, 75, 37
2, 23277, Note_on_c, 0, 75, 0
2, 23281, Note_on_c, 0, 76, 37
2, 23285, Note_on_c, 0, 66, 34
2, 23286, Note_on_c, 0, 55, 25
2, 23286, Note_on_c, 0, 61, 32
2, 23294, Note_on_c, 0, 76, 0
2, 23326, Note_on_c, 0, 66, 0
2, 23328, Note_on_c, 0, 84, 76
2, 23339, Note_on_c, 0, 84, 0
2, 23352, Note_on_c, 0, 82, 64
2, 23366, Note_on_c, 0, 55, 0
2, 23369, Note_on_c, 0, 82, 0
2, 23369, Note_on_c, 0, 73, 42
2, 23376, Note_on_c, 0, 73, 0
2, 23376, Note_on_c, 0, 61, 0
2, 23407, Note_on_c, 0, 81, 73
2, 23408, Note_on_c, 0, 55, 34
2, 23409, Note_on_c, 0, 64, 31
2, 23418, Note_on_c, 0, 81, 0
2, 23425, Note_on_c, 0, 70, 56
2, 23437, Note_on_c, 0, 70, 0
2, 23439, Note_on_c, 0, 61, 1
2, 23445, Note_on_c, 0, 69, 48
2, 23459, Note_on_c, 0, 69, 0
2, 23476, Note_on_c, 0, 64, 0
2, 23479, Note_on_c, 0, 77, 60
2, 23486, Note_on_c, 0, 61, 0
2, 23490, Note_on_c, 0, 55, 0
2, 23492, Note_on_c, 0, 77, 0
2, 23501, Note_on_c, 0, 76, 46
2, 23515, Note_on_c, 0, 76, 0
2, 23524, Note_on_c, 0, 72, 50
2, 23524, Note_on_c, 0, 60, 29
2, 23526, Note_on_c, 0, 57, 39
2, 23526, Note_on_c, 0, 50, 24
2, 23541, Note_on_c, 0, 72, 0
2, 23547, Note_on_c, 0, 67, 32
2, 23555, Note_on_c, 0, 67, 0
2, 23579, Control_c, 0, 64, 127
2, 23597, Note_on_c, 0, 60, 0
2, 23600, Note_on_c, 0, 57, 0
2, 23607, Note_on_c, 0, 50, 0
2, 23649, Note_on_c, 0, 65, 68
2, 23650, Note_on_c, 0, 52, 59
2, 23650, Note_on_c, 0, 60, 62
2, 23650, Note_on_c, 0, 69, 66
2, 23653, Note_on_c, 0, 40, 32
2, 23655, Control_c, 0, 64, 0
2, 23673, Control_c, 0, 64, 127
2, 23694, Note_on_c, 0, 40, 0
2, 23705, Note_on_c, 0, 69, 0
2, 23707, Note_on_c, 0, 40, 63
2, 23711, Note_on_c, 0, 65, 0
2, 23715, Note_on_c, 0, 52, 0
2, 23718, Note_on_c, 0, 60, 0
2, 23723, Note_on_c, 0, 40, 0
2, 23761, Note_on_c, 0, 60, 88
2, 23761, Note_on_c, 0, 65, 81
2, 23762, Note_on_c, 0, 41, 80
2, 23762, Note_on_c, 0, 29, 75
2, 23762, Note_on_c, 0, 57, 91
2, 23766, Control_c, 0, 64, 0
2, 23783, Control_c, 0, 64, 127
2, 23814, Note_on_c, 0, 29, 0
2, 23822, Note_on_c, 0, 29, 55
2, 23837, Note_on_c, 0, 60, 0
2, 23841, Note_on_c, 0, 65, 0
2, 23842, Note_on_c, 0, 29, 0
2, 23848, Note_on_c, 0, 41, 0
2, 23851, Note_on_c, 0, 57, 0
2, 23880, Note_on_c, 0, 56, 52
2, 23881, Note_on_c, 0, 53, 53
2, 23884, Note_on_c, 0, 43, 62
2, 23884, Note_on_c, 0, 31, 57
2, 23886, Note_on_c, 0, 56, 0
2, 23887, Control_c, 0, 64, 0
2, 23888, Note_on_c, 0, 57, 50
2, 23911, Control_c, 0, 64, 127
2, 23929, Note_on_c, 0, 53, 0
2, 23940, Note_on_c, 0, 43, 0
2, 23940, Note_on_c, 0, 60, 66
2, 23946, Note_on_c, 0, 31, 0
2, 23961, Note_on_c, 0, 60, 0
2, 23963, Note_on_c, 0, 57, 0
2, 24000, Control_c, 0, 64, 0
2, 24003, Note_on_c, 0, 36, 40
2, 24003, Note_on_c, 0, 24, 38
2, 24003, Note_on_c, 0, 60, 54
2, 24004, Note_on_c, 0, 52, 49
2, 24015, Control_c, 0, 64, 127
2, 24016, Note_on_c, 0, 52, 0
2, 24026, Note_on_c, 0, 24, 0
2, 24027, Note_on_c, 0, 60, 0
2, 24031, Note_on_c, 0, 36, 0
2, 24122, Note_on_c, 0, 64, 33
2, 24124, Note_on_c, 0, 60, 34
2, 24170, Note_on_c, 0, 64, 0
2, 24176, Note_on_c, 0, 60, 0
2, 24176, Note_on_c, 0, 84, 66
2, 24191, Note_on_c, 0, 84, 0
2, 24213, Note_on_c, 0, 84, 66
2, 24228, Note_on_c, 0, 84, 0
2, 24244, Note_on_c, 0, 84, 49
2, 24244, Note_on_c, 0, 55, 35
2, 24245, Control_c, 0, 64, 0
2, 24245, Note_on_c, 0, 80, 39
2, 24246, Note_on_c, 0, 61, 28
2, 24246, Note_on_c, 0, 72, 31
2, 24246, Note_on_c, 0, 77, 37
2, 24247, Note_on_c, 0, 65, 32
2, 24247, Note_on_c, 0, 56, 33
2, 24262, Control_c, 0, 64, 127
2, 24272, Note_on_c, 0, 65, 0
2, 24274, Note_on_c, 0, 61, 0
2, 24278, Note_on_c, 0, 55, 0
2, 24280, Note_on_c, 0, 56, 0
2, 24280, Note_on_c, 0, 84, 0
2, 24282, Note_on_c, 0, 77, 0
2, 24286, Note_on_c, 0, 80, 0
2, 24287, Note_on_c, 0, 72, 0
2, 24308, Note_on_c, 0, 43, 33
2, 24335, Note_on_c, 0, 43, 0
2, 24363, Note_on_c, 0, 63, 38
2, 24365, Note_on_c, 0, 56, 35
2, 24365, Note_on_c, 0, 55, 36
2, 24366, Note_on_c, 0, 60, 42
2, 24366, Control_c, 0, 64, 0
2, 24367, Note_on_c, 0, 43, 24
2, 24367, Note_on_c, 0, 50, 26
2, 24380, Control_c, 0, 64, 127
2, 24385, Note_on_c, 0, 50, 0
2, 24388, Note_on_c, 0, 43, 0
2, 24419, Note_on_c, 0, 56, 0
2, 24420, Note_on_c, 0, 55, 0
2, 24424, Note_on_c, 0, 60, 0
2, 24424, Note_on_c, 0, 43, 29
2, 24429, Note_on_c, 0, 63, 0
2, 24479, Control_c, 0, 64, 0
2, 24479, Note_on_c, 0, 36, 28
2, 24479, Note_on_c, 0, 67, 45
2, 24481, Note_on_c, 0, 62, 38
2, 24482, Note_on_c, 0, 52, 35
2, 24482, Note_on_c, 0, 59, 29
2, 24484, Note_on_c, 0, 64, 24
2, 24494, Control_c, 0, 64, 127
2, 24496, Note_on_c, 0, 59, 0
2, 24499, Note_on_c, 0, 64, 0
2, 24500, Note_on_c, 0, 62, 0
2, 24501, Note_on_c, 0, 67, 0
2, 24504, Note_on_c, 0, 36, 0
2, 24511, Note_on_c, 0, 43, 0
2, 24514, Note_on_c, 0, 52, 0
2, 24544, Note_on_c, 0, 79, 74
2, 24544, Note_on_c, 0, 76, 54
2, 24545, Note_on_c, 0, 67, 79
2, 24545, Note_on_c, 0, 72, 78
2, 24547, Note_on_c, 0, 64, 57
2, 24552, Note_on_c, 0, 60, 25
2, 24560, Note_on_c, 0, 64, 0
2, 24563, Note_on_c, 0, 60, 0
2, 24564, Note_on_c, 0, 79, 0
2, 24564, Note_on_c, 0, 76, 0
2, 24565, Note_on_c, 0, 72, 0
2, 24568, Note_on_c, 0, 67, 0
2, 24607, Note_on_c, 0, 55, 45
2, 24612, Control_c, 0, 64, 0
2, 24613, Control_c, 0, 64, 127
2, 24644, Note_on_c, 0, 55, 0
2, 24660, Note_on_c, 0, 67, 53
2, 24661, Note_on_c, 0, 62, 57
2, 24662, Note_on_c, 0, 55, 68
2, 24681, Note_on_c, 0, 62, 0
2, 24681, Note_on_c, 0, 67, 0
2, 24690, Note_on_c, 0, 55, 0
2, 24720, Note_on_c, 0, 65, 81
2, 24721, Note_on_c, 0, 56, 71
2, 24722, Note_on_c, 0, 61, 53
2, 24722, Note_on_c, 0, 46, 64
2, 24722, Note_on_c, 0, 60, 77
2, 24727, Control_c, 0, 64, 0
2, 24743, Control_c, 0, 64, 127
2, 24765, Note_on_c, 0, 65, 0
2, 24780, Note_on_c, 0, 56, 0
2, 24785, Note_on_c, 0, 56, 37
2, 24786, Note_on_c, 0, 65, 68
2, 24791, Note_on_c, 0, 46, 0
2, 24817, Note_on_c, 0, 60, 0
2, 24819, Note_on_c, 0, 56, 0
2, 24821, Note_on_c, 0, 61, 0
2, 24833, Note_on_c, 0, 65, 0
2, 24843, Note_on_c, 0, 55, 58
2, 24843, Note_on_c, 0, 61, 38
2, 24843, Note_on_c, 0, 64, 60
2, 24844, Note_on_c, 0, 59, 62
2, 24850, Control_c, 0, 64, 0
2, 24874, Control_c, 0, 64, 127
2, 24902, Note_on_c, 0, 40, 54
2, 24907, Note_on_c, 0, 40, 0
2, 24918, Note_on_c, 0, 64, 0
2, 24920, Note_on_c, 0, 59, 0
2, 24929, Note_on_c, 0, 55, 0
2, 24930, Note_on_c, 0, 61, 0
2, 24964, Control_c, 0, 64, 0
2, 24965, Note_on_c, 0, 63, 35
2, 24966, Note_on_c, 0, 58, 44
2, 24966, Note_on_c, 0, 55, 46
2, 24967, Note_on_c, 0, 60, 39
2, 24967, Note_on_c, 0, 32, 37
2, 24977, Note_on_c, 0, 55, 0
2, 24983, Control_c, 0, 64, 127
2, 24984, Note_on_c, 0, 60, 0
2, 24985, Note_on_c, 0, 58, 0
2, 24987, Note_on_c, 0, 32, 0
2, 24989, Note_on_c, 0, 63, 0
2, 25015, Note_on_c, 0, 75, 48
2, 25044, Note_on_c, 0, 70, 51
2, 25045, Note_on_c, 0, 67, 45
2, 25082, Note_on_c, 0, 63, 34
2, 25088, Note_on_c, 0, 60, 24
2, 25089, Note_on_c, 0, 58, 29
2, 25125, Note_on_c, 0, 63, 0
2, 25126, Note_on_c, 0, 60, 0
2, 25131, Note_on_c, 0, 58, 0
2, 25205, Note_on_c, 0, 61, 28
2, 25207, Note_on_c, 0, 53, 36
2, 25207, Note_on_c, 0, 51, 37
2, 25209, Note_on_c, 0, 56, 29
2, 25211, Control_c, 0, 64, 0
2, 25226, Note_on_c, 0, 67, 0
2, 25227, Control_c, 0, 64, 127
2, 25250, Note_on_c, 0, 70, 0
2, 25257, Note_on_c, 0, 75, 0
2, 25266, Note_on_c, 0, 72, 61
2, 25277, Note_on_c, 0, 72, 0
2, 25304, Note_on_c, 0, 53, 0
2, 25314, Note_on_c, 0, 61, 0
2, 25317, Note_on_c, 0, 82, 77
2, 25319, Note_on_c, 0, 56, 0
2, 25338, Note_on_c, 0, 61, 25
2, 25339, Note_on_c, 0, 56, 33
2, 25340, Note_on_c, 0, 82, 0
2, 25341, Note_on_c, 0, 79, 57
2, 25361, Note_on_c, 0, 79, 0
2, 25362, Note_on_c, 0, 61, 0
2, 25366, Note_on_c, 0, 87, 77
2, 25370, Note_on_c, 0, 51, 0
2, 25370, Note_on_c, 0, 56, 0
2, 25383, Note_on_c, 0, 87, 0
2, 25388, Note_on_c, 0, 84, 70
2, 25402, Note_on_c, 0, 84, 0
2, 25411, Note_on_c, 0, 91, 89
2, 25430, Note_on_c, 0, 91, 0
2, 25434, Note_on_c, 0, 87, 70
2, 25435, Control_c, 0, 64, 0
2, 25436, Note_on_c, 0, 51, 43
2, 25438, Note_on_c, 0, 44, 33
2, 25444, Note_on_c, 0, 87, 0
2, 25446, Control_c, 0, 64, 127
2, 25462, Note_on_c, 0, 94, 77
2, 25469, Note_on_c, 0, 44, 0
2, 25471, Note_on_c, 0, 51, 0
2, 25476, Note_on_c, 0, 94, 0
2, 25483, Note_on_c, 0, 91, 62
2, 25491, Note_on_c, 0, 91, 0
2, 25506, Note_on_c, 0, 99, 73
2, 25521, Note_on_c, 0, 99, 0
2, 25529, Note_on_c, 0, 96, 53
2, 25558, Note_on_c, 0, 63, 33
2, 25559, Note_on_c, 0, 56, 37
2, 25560, Note_on_c, 0, 60, 45
2, 25564, Control_c, 0, 64, 0
2, 25571, Control_c, 0, 64, 127
2, 25591, Note_on_c, 0, 60, 0
2, 25594, Note_on_c, 0, 63, 0
2, 25599, Note_on_c, 0, 56, 0
2, 25624, Note_on_c, 0, 96, 0
2, 25681, Note_on_c, 0, 61, 33
2, 25685, Note_on_c, 0, 56, 35
2, 25685, Note_on_c, 0, 51, 21
2, 25687, Note_on_c, 0, 53, 30
2, 25698, Note_on_c, 0, 61, 0
2, 25701, Control_c, 0, 64, 0
2, 25708, Note_on_c, 0, 60, 37
2, 25717, Note_on_c, 0, 60, 0
2, 25717, Note_on_c, 0, 61, 38
2, 25726, Note_on_c, 0, 61, 0
2, 25727, Note_on_c, 0, 63, 37
2, 25731, Note_on_c, 0, 63, 0
2, 25731, Note_on_c, 0, 53, 0
2, 25738, Note_on_c, 0, 65, 55
2, 25747, Note_on_c, 0, 65, 0
2, 25755, Note_on_c, 0, 67, 42
2, 25759, Note_on_c, 0, 67, 0
2, 25773, Note_on_c, 0, 68, 70
2, 25777, Note_on_c, 0, 56, 0
2, 25781, Note_on_c, 0, 68, 0
2, 25790, Note_on_c, 0, 70, 70
2, 25796, Note_on_c, 0, 70, 0
2, 25805, Note_on_c, 0, 72, 66
2, 25810, Note_on_c, 0, 72, 0
2, 25816, Note_on_c, 0, 56, 33
2, 25816, Note_on_c, 0, 61, 30
2, 25817, Note_on_c, 0, 73, 39
2, 25827, Note_on_c, 0, 73, 0
2, 25832, Note_on_c, 0, 75, 36
2, 25836, Note_on_c, 0, 75, 0
2, 25837, Note_on_c, 0, 61, 0
2, 25842, Note_on_c, 0, 77, 42
2, 25850, Note_on_c, 0, 56, 0
2, 25851, Note_on_c, 0, 77, 0
2, 25853, Note_on_c, 0, 51, 0
2, 25854, Note_on_c, 0, 79, 49
2, 25864, Note_on_c, 0, 79, 0
2, 25864, Note_on_c, 0, 80, 57
2, 25874, Note_on_c, 0, 80, 0
2, 25887, Note_on_c, 0, 84, 41
2, 25891, Note_on_c, 0, 84, 0
2, 25902, Note_on_c, 0, 87, 31
2, 25909, Control_c, 0, 64, 127
2, 25912, Note_on_c, 0, 87, 0
2, 25913, Note_on_c, 0, 91, 76
2, 25926, Note_on_c, 0, 91, 0
2, 25926, Control_c, 0, 64, 0
2, 25926, Note_on_c, 0, 51, 37
2, 25926, Note_on_c, 0, 44, 37
2, 25927, Note_on_c, 0, 87, 60
2, 25939, Note_on_c, 0, 87, 0
2, 25941, Control_c, 0, 64, 127
2, 25952, Note_on_c, 0, 44, 0
2, 25953, Note_on_c, 0, 84, 39
2, 25954, Note_on_c, 0, 51, 0
2, 25957, Note_on_c, 0, 84, 0
2, 25980, Note_on_c, 0, 87, 74
2, 25993, Note_on_c, 0, 87, 0
2, 25999, Note_on_c, 0, 84, 50
2, 26008, Note_on_c, 0, 84, 0
2, 26016, Note_on_c, 0, 87, 70
2, 26025, Note_on_c, 0, 87, 0
2, 26034, Note_on_c, 0, 87, 71
2, 26044, Note_on_c, 0, 87, 0
2, 26046, Control_c, 0, 64, 0
2, 26046, Note_on_c, 0, 63, 27
2, 26049, Note_on_c, 0, 60, 32
2, 26050, Note_on_c, 0, 58, 37
2, 26053, Note_on_c, 0, 87, 69
2, 26056, Control_c, 0, 64, 127
2, 26062, Note_on_c, 0, 60, 0
2, 26062, Note_on_c, 0, 63, 0
2, 26066, Note_on_c, 0, 58, 0
2, 26069, Note_on_c, 0, 87, 0
2, 26072, Note_on_c, 0, 84, 48
2, 26081, Note_on_c, 0, 84, 0
2, 26089, Note_on_c, 0, 87, 74
2, 26102, Note_on_c, 0, 87, 0
2, 26107, Note_on_c, 0, 84, 40
2, 26114, Note_on_c, 0, 84, 0
2, 26123, Note_on_c, 0, 87, 77
2, 26133, Note_on_c, 0, 87, 0
2, 26144, Note_on_c, 0, 87, 65
2, 26155, Note_on_c, 0, 87, 0
2, 26163, Control_c, 0, 64, 0
2, 26163, Note_on_c, 0, 61, 31
2, 26166, Note_on_c, 0, 56, 36
2, 26166, Note_on_c, 0, 53, 35
2, 26167, Note_on_c, 0, 51, 36
2, 26175, Control_c, 0, 64, 127
2, 26193, Note_on_c, 0, 99, 71
2, 26204, Note_on_c, 0, 99, 0
2, 26210, Note_on_c, 0, 96, 51
2, 26213, Note_on_c, 0, 96, 0
2, 26213, Note_on_c, 0, 98, 22
2, 26216, Note_on_c, 0, 98, 0
2, 26224, Note_on_c, 0, 53, 0
2, 26227, Note_on_c, 0, 94, 69
2, 26229, Note_on_c, 0, 61, 0
2, 26234, Note_on_c, 0, 94, 0
2, 26240, Note_on_c, 0, 56, 0
2, 26241, Note_on_c, 0, 92, 70
2, 26250, Note_on_c, 0, 92, 0
2, 26257, Note_on_c, 0, 91, 77
2, 26267, Note_on_c, 0, 91, 0
2, 26273, Note_on_c, 0, 89, 64
2, 26277, Control_c, 0, 64, 0
2, 26279, Note_on_c, 0, 89, 0
2, 26283, Note_on_c, 0, 61, 43
2, 26287, Note_on_c, 0, 56, 27
2, 26289, Note_on_c, 0, 87, 62
2, 26299, Note_on_c, 0, 87, 0
2, 26299, Control_c, 0, 64, 127
2, 26302, Note_on_c, 0, 61, 0
2, 26303, Note_on_c, 0, 84, 62
2, 26309, Note_on_c, 0, 84, 0
2, 26319, Note_on_c, 0, 82, 64
2, 26320, Note_on_c, 0, 56, 0
2, 26320, Note_on_c, 0, 51, 0
2, 26329, Note_on_c, 0, 80, 38
2, 26331, Note_on_c, 0, 82, 0
2, 26343, Note_on_c, 0, 80, 0
2, 26343, Note_on_c, 0, 79, 34
2, 26351, Note_on_c, 0, 79, 0
2, 26356, Note_on_c, 0, 77, 38
2, 26364, Note_on_c, 0, 77, 0
2, 26368, Note_on_c, 0, 75, 44
2, 26376, Note_on_c, 0, 75, 0
2, 26385, Note_on_c, 0, 72, 30
2, 26389, Note_on_c, 0, 72, 0
2, 26398, Note_on_c, 0, 75, 65
2, 26400, Note_on_c, 0, 51, 50
2, 26401, Note_on_c, 0, 44, 37
2, 26401, Control_c, 0, 64, 0
2, 26421, Control_c, 0, 64, 127
2, 26421, Note_on_c, 0, 72, 62
2, 26434, Note_on_c, 0, 72, 0
2, 26438, Note_on_c, 0, 75, 0
2, 26441, Note_on_c, 0, 44, 0
2, 26442, Note_on_c, 0, 51, 0
2, 26444, Note_on_c, 0, 70, 59
2, 26454, Note_on_c, 0, 70, 0
2, 26467, Note_on_c, 0, 72, 60
2, 26480, Note_on_c, 0, 72, 0
2, 26505, Note_on_c, 0, 67, 65
2, 26526, Note_on_c, 0, 63, 39
2, 26537, Note_on_c, 0, 63, 0
2, 26550, Note_on_c, 0, 67, 0
2, 26553, Note_on_c, 0, 68, 63
2, 26580, Note_on_c, 0, 68, 0
2, 26585, Note_on_c, 0, 70, 74
2, 26602, Note_on_c, 0, 70, 0
2, 26611, Note_on_c, 0, 70, 57
2, 26636, Note_on_c, 0, 70, 0
2, 26641, Note_on_c, 0, 45, 41
2, 26645, Control_c, 0, 64, 0
2, 26647, Note_on_c, 0, 68, 25
2, 26660, Control_c, 0, 64, 127
2, 26690, Note_on_c, 0, 63, 65
2, 26691, Note_on_c, 0, 55, 58
2, 26691, Note_on_c, 0, 66, 60
2, 26691, Note_on_c, 0, 59, 70
2, 26694, Note_on_c, 0, 59, 0
2, 26694, Note_on_c, 0, 55, 0
2, 26696, Note_on_c, 0, 63, 0
2, 26697, Control_c, 0, 64, 0
2, 26698, Note_on_c, 0, 66, 0
2, 26698, Note_on_c, 0, 68, 0
2, 26732, Note_on_c, 0, 59, 66
2, 26732, Note_on_c, 0, 66, 55
2, 26732, Note_on_c, 0, 63, 63
2, 26733, Note_on_c, 0, 49, 46
2, 26733, Note_on_c, 0, 55, 44
2, 26735, Note_on_c, 0, 59, 0
2, 26737, Note_on_c, 0, 55, 0
2, 26738, Note_on_c, 0, 63, 0
2, 26739, Note_on_c, 0, 66, 0
2, 26741, Note_on_c, 0, 49, 0
2, 26772, Note_on_c, 0, 59, 54
2, 26772, Note_on_c, 0, 63, 44
2, 26772, Note_on_c, 0, 66, 44
2, 26772, Note_on_c, 0, 55, 38
2, 26773, Control_c, 0, 64, 127
2, 26773, Note_on_c, 0, 49, 34
2, 26801, Note_on_c, 0, 68, 53
2, 26805, Note_on_c, 0, 45, 0
2, 26808, Note_on_c, 0, 63, 0
2, 26810, Note_on_c, 0, 66, 0
2, 26812, Note_on_c, 0, 59, 0
2, 26819, Note_on_c, 0, 68, 0
2, 26826, Note_on_c, 0, 63, 44
2, 26826, Note_on_c, 0, 45, 38
2, 26826, Note_on_c, 0, 66, 37
2, 26826, Note_on_c, 0, 59, 41
2, 26845, Note_on_c, 0, 59, 0
2, 26846, Note_on_c, 0, 55, 0
2, 26846, Note_on_c, 0, 66, 0
2, 26847, Note_on_c, 0, 45, 0
2, 26848, Note_on_c, 0, 63, 0
2, 26868, Note_on_c, 0, 49, 0
2, 26878, Control_c, 0, 64, 0
2, 26880, Note_on_c, 0, 51, 33
2, 26880, Note_on_c, 0, 60, 65
2, 26880, Note_on_c, 0, 63, 36
2, 26881, Note_on_c, 0, 44, 32
2, 26896, Control_c, 0, 64, 127
2, 26901, Note_on_c, 0, 60, 0
2, 26904, Note_on_c, 0, 63, 0
2, 26915, Note_on_c, 0, 44, 0
2, 26917, Note_on_c, 0, 51, 0
2, 26928, Note_on_c, 0, 72, 57
2, 26928, Note_on_c, 0, 74, 50
2, 26940, Note_on_c, 0, 74, 0
2, 26947, Note_on_c, 0, 72, 0
2, 26963, Note_on_c, 0, 67, 80
2, 26987, Note_on_c, 0, 67, 0
2, 27001, Note_on_c, 0, 63, 38
2, 27002, Note_on_c, 0, 56, 43
2, 27004, Note_on_c, 0, 60, 43
2, 27035, Note_on_c, 0, 70, 77
2, 27048, Note_on_c, 0, 63, 0
2, 27051, Note_on_c, 0, 70, 0
2, 27064, Note_on_c, 0, 60, 0
2, 27073, Note_on_c, 0, 56, 0
2, 27083, Note_on_c, 0, 75, 70
2, 27094, Note_on_c, 0, 75, 0
2, 27102, Note_on_c, 0, 76, 50
2, 27112, Note_on_c, 0, 76, 0
2, 27124, Note_on_c, 0, 78, 62
2, 27126, Control_c, 0, 64, 0
2, 27126, Note_on_c, 0, 43, 62
2, 27138, Note_on_c, 0, 78, 0
2, 27146, Note_on_c, 0, 79, 50
2, 27158, Note_on_c, 0, 79, 0
2, 27165, Note_on_c, 0, 43, 0
2, 27186, Note_on_c, 0, 83, 58
2, 27196, Note_on_c, 0, 83, 0
2, 27201, Note_on_c, 0, 86, 75
2, 27210, Note_on_c, 0, 86, 0
2, 27217, Note_on_c, 0, 89, 71
2, 27226, Note_on_c, 0, 89, 0
2, 27233, Note_on_c, 0, 92, 78
2, 27236, Control_c, 0, 64, 127
2, 27242, Note_on_c, 0, 92, 0
2, 27250, Note_on_c, 0, 95, 89
2, 27250, Note_on_c, 0, 59, 44
2, 27251, Note_on_c, 0, 53, 44
2, 27251, Note_on_c, 0, 62, 36
2, 27252, Control_c, 0, 64, 0
2, 27263, Note_on_c, 0, 95, 0
2, 27269, Note_on_c, 0, 98, 88
2, 27285, Note_on_c, 0, 98, 0
2, 27291, Control_c, 0, 64, 127
2, 27293, Note_on_c, 0, 96, 84
2, 27306, Note_on_c, 0, 96, 0
2, 27316, Note_on_c, 0, 94, 72
2, 27322, Note_on_c, 0, 95, 64
2, 27330, Note_on_c, 0, 94, 0
2, 27332, Note_on_c, 0, 59, 0
2, 27332, Note_on_c, 0, 62, 0
2, 27334, Note_on_c, 0, 95, 0
2, 27341, Note_on_c, 0, 53, 0
2, 27344, Note_on_c, 0, 91, 79
2, 27364, Note_on_c, 0, 91, 0
2, 27368, Note_on_c, 0, 88, 68
2, 27382, Note_on_c, 0, 88, 0
2, 27388, Note_on_c, 0, 83, 51
2, 27388, Note_on_c, 0, 55, 39
2, 27389, Note_on_c, 0, 59, 40
2, 27392, Note_on_c, 0, 48, 34
2, 27395, Control_c, 0, 64, 0
2, 27403, Note_on_c, 0, 83, 0
2, 27411, Note_on_c, 0, 79, 51
2, 27414, Control_c, 0, 64, 127
2, 27428, Note_on_c, 0, 79, 0
2, 27433, Note_on_c, 0, 76, 29
2, 27454, Note_on_c, 0, 76, 0
2, 27470, Note_on_c, 0, 55, 0
2, 27471, Note_on_c, 0, 48, 0
2, 27477, Note_on_c, 0, 59, 0
2, 27544, Note_on_c, 0, 79, 81
2, 27544, Note_on_c, 0, 76, 65
2, 27545, Note_on_c, 0, 67, 92
2, 27545, Note_on_c, 0, 72, 89
2, 27545, Control_c, 0, 64, 0
2, 27545, Note_on_c, 0, 56, 79
2, 27546, Note_on_c, 0, 62, 80
2, 27557, Control_c, 0, 64, 127
2, 27567, Note_on_c, 0, 67, 0
2, 27570, Note_on_c, 0, 56, 0
2, 27571, Note_on_c, 0, 72, 0
2, 27571, Note_on_c, 0, 62, 0
2, 27574, Note_on_c, 0, 79, 0
2, 27574, Note_on_c, 0, 76, 0
2, 27603, Note_on_c, 0, 84, 79
2, 27603, Note_on_c, 0, 77, 81
2, 27603, Note_on_c, 0, 60, 80
2, 27604, Note_on_c, 0, 61, 62
2, 27604, Note_on_c, 0, 65, 83
2, 27604, Note_on_c, 0, 81, 74
2, 27605, Note_on_c, 0, 72, 81
2, 27605, Note_on_c, 0, 55, 73
2, 27606, Note_on_c, 0, 58, 52
2, 27608, Control_c, 0, 64, 0
2, 27630, Control_c, 0, 64, 127
2, 27659, Note_on_c, 0, 72, 0
2, 27661, Note_on_c, 0, 84, 0
2, 27665, Note_on_c, 0, 77, 0
2, 27667, Note_on_c, 0, 81, 0
2, 27690, Note_on_c, 0, 65, 0
2, 27697, Note_on_c, 0, 60, 0
2, 27703, Note_on_c, 0, 61, 0
2, 27726, Note_on_c, 0, 60, 36
2, 27727, Note_on_c, 0, 65, 36
2, 27727, Note_on_c, 0, 61, 25
2, 27760, Note_on_c, 0, 65, 0
2, 27769, Note_on_c, 0, 60, 0
2, 27773, Note_on_c, 0, 61, 0
2, 27783, Note_on_c, 0, 55, 0
2, 27785, Note_on_c, 0, 58, 0
2, 27793, Note_on_c, 0, 55, 50
2, 27816, Note_on_c, 0, 55, 0
2, 27845, Note_on_c, 0, 74, 43
2, 27845, Note_on_c, 0, 65, 53
2, 27846, Note_on_c, 0, 54, 46
2, 27846, Note_on_c, 0, 60, 43
2, 27846, Note_on_c, 0, 70, 38
2, 27848, Control_c, 0, 64, 0
2, 27866, Control_c, 0, 64, 127
2, 27878, Note_on_c, 0, 60, 0
2, 27883, Note_on_c, 0, 74, 0
2, 27884, Note_on_c, 0, 54, 0
2, 27903, Note_on_c, 0, 74, 50
2, 27958, Note_on_c, 0, 65, 0
2, 27959, Note_on_c, 0, 32, 73
2, 27966, Note_on_c, 0, 70, 0
2, 27967, Note_on_c, 0, 74, 0
2, 27968, Note_on_c, 0, 32, 0
2, 28021, Note_on_c, 0, 86, 90
2, 28021, Note_on_c, 0, 77, 96
2, 28021, Note_on_c, 0, 82, 92
2, 28022, Note_on_c, 0, 60, 90
2, 28022, Note_on_c, 0, 65, 99
2, 28022, Note_on_c, 0, 54, 87
2, 28059, Note_on_c, 0, 77, 0
2, 28061, Note_on_c, 0, 54, 0
2, 28062, Note_on_c, 0, 86, 0
2, 28062, Note_on_c, 0, 65, 0
2, 28062, Note_on_c, 0, 82, 0
2, 28064, Note_on_c, 0, 60, 0
2, 28080, Note_on_c, 0, 82, 88
2, 28080, Note_on_c, 0, 86, 85
2, 28081, Note_on_c, 0, 54, 91
2, 28081, Note_on_c, 0, 60, 91
2, 28081, Note_on_c, 0, 65, 95
2, 28081, Note_on_c, 0, 77, 89
2, 28134, Note_on_c, 0, 86, 0
2, 28139, Note_on_c, 0, 82, 0
2, 28140, Note_on_c, 0, 77, 0
2, 28142, Note_on_c, 0, 65, 0
2, 28155, Note_on_c, 0, 54, 0
2, 28173, Note_on_c, 0, 60, 0
2, 28204, Note_on_c, 0, 54, 35
2, 28204, Note_on_c, 0, 65, 44
2, 28206, Note_on_c, 0, 60, 31
2, 28221, Note_on_c, 0, 65, 0
2, 28228, Note_on_c, 0, 60, 0
2, 28234, Note_on_c, 0, 54, 0
2, 28291, Note_on_c, 0, 62, 50
2, 28300, Note_on_c, 0, 62, 0
2, 28328, Note_on_c, 0, 65, 69
2, 28328, Note_on_c, 0, 57, 76
2, 28329, Note_on_c, 0, 55, 59
2, 28329, Note_on_c, 0, 60, 69
2, 28329, Note_on_c, 0, 62, 66
2, 28334, Control_c, 0, 64, 0
2, 28362, Control_c, 0, 64, 127
2, 28381, Note_on_c, 0, 55, 0
2, 28386, Note_on_c, 0, 43, 53
2, 28394, Note_on_c, 0, 43, 0
2, 28443, Note_on_c, 0, 31, 60
2, 28447, Note_on_c, 0, 31, 0
2, 28447, Note_on_c, 0, 62, 0
2, 28452, Note_on_c, 0, 60, 0
2, 28459, Note_on_c, 0, 57, 0
2, 28465, Note_on_c, 0, 65, 0
2, 28504, Note_on_c, 0, 53, 35
2, 28505, Note_on_c, 0, 43, 32
2, 28505, Note_on_c, 0, 60, 44
2, 28505, Note_on_c, 0, 50, 36
2, 28505, Note_on_c, 0, 57, 51
2, 28510, Control_c, 0, 64, 0
2, 28515, Control_c, 0, 64, 127
2, 28536, Note_on_c, 0, 53, 0
2, 28540, Note_on_c, 0, 43, 0
2, 28544, Note_on_c, 0, 57, 0
2, 28548, Note_on_c, 0, 50, 0
2, 28553, Note_on_c, 0, 60, 0
2, 28616, Note_on_c, 0, 43, 37
2, 28619, Note_on_c, 0, 50, 36
2, 28642, Note_on_c, 0, 50, 0
2, 28642, Note_on_c, 0, 43, 0
2, 28677, Note_on_c, 0, 56, 38
2, 28678, Note_on_c, 0, 60, 54
2, 28679, Note_on_c, 0, 53, 32
2, 28679, Control_c, 0, 64, 0
2, 28679, Note_on_c, 0, 43, 43
2, 28690, Control_c, 0, 64, 127
2, 28693, Note_on_c, 0, 43, 0
2, 28734, Note_on_c, 0, 56, 0
2, 28736, Note_on_c, 0, 43, 36
2, 28737, Note_on_c, 0, 53, 0
2, 28753, Note_on_c, 0, 60, 0
2, 28795, Note_on_c, 0, 36, 34
2, 28797, Note_on_c, 0, 64, 40
2, 28798, Note_on_c, 0, 52, 51
2, 28798, Note_on_c, 0, 55, 26
2, 28798, Note_on_c, 0, 59, 39
2, 28799, Control_c, 0, 64, 0
2, 28814, Note_on_c, 0, 55, 0
2, 28815, Control_c, 0, 64, 127
2, 28820, Note_on_c, 0, 36, 0
2, 28825, Note_on_c, 0, 43, 0
2, 28826, Note_on_c, 0, 59, 0
2, 28828, Note_on_c, 0, 64, 0
2, 28832, Note_on_c, 0, 52, 0
2, 28919, Note_on_c, 0, 64, 37
2, 28922, Note_on_c, 0, 60, 33
2, 28923, Note_on_c, 0, 59, 33
2, 28938, Note_on_c, 0, 88, 74
2, 28942, Note_on_c, 0, 76, 58
2, 28955, Note_on_c, 0, 76, 0
2, 28958, Note_on_c, 0, 88, 0
2, 28974, Note_on_c, 0, 89, 74
2, 28982, Note_on_c, 0, 77, 52
2, 28998, Note_on_c, 0, 77, 0
2, 28999, Note_on_c, 0, 89, 0
2, 29006, Note_on_c, 0, 64, 0
2, 29012, Note_on_c, 0, 91, 79
2, 29013, Note_on_c, 0, 59, 0
2, 29015, Note_on_c, 0, 60, 0
2, 29022, Note_on_c, 0, 79, 34
2, 29037, Note_on_c, 0, 91, 0
2, 29042, Note_on_c, 0, 79, 0
2, 29047, Note_on_c, 0, 55, 46
2, 29049, Note_on_c, 0, 65, 41
2, 29051, Note_on_c, 0, 57, 46
2, 29051, Note_on_c, 0, 60, 35
2, 29051, Note_on_c, 0, 91, 66
2, 29054, Control_c, 0, 64, 0
2, 29062, Note_on_c, 0, 79, 24
2, 29068, Control_c, 0, 64, 127
2, 29073, Note_on_c, 0, 65, 0
2, 29074, Note_on_c, 0, 91, 0
2, 29075, Note_on_c, 0, 60, 0
2, 29081, Note_on_c, 0, 55, 0
2, 29081, Note_on_c, 0, 57, 0
2, 29082, Note_on_c, 0, 79, 0
2, 29085, Note_on_c, 0, 91, 60
2, 29092, Note_on_c, 0, 79, 34
2, 29103, Note_on_c, 0, 91, 0
2, 29108, Note_on_c, 0, 79, 0
2, 29116, Note_on_c, 0, 91, 58
2, 29121, Note_on_c, 0, 79, 36
2, 29134, Note_on_c, 0, 91, 0
2, 29136, Note_on_c, 0, 79, 0
2, 29143, Note_on_c, 0, 91, 51
2, 29148, Note_on_c, 0, 79, 34
2, 29159, Note_on_c, 0, 91, 0
2, 29165, Note_on_c, 0, 55, 40
2, 29165, Note_on_c, 0, 43, 42
2, 29166, Note_on_c, 0, 79, 0
2, 29173, Note_on_c, 0, 91, 41
2, 29179, Note_on_c, 0, 79, 37
2, 29180, Note_on_c, 0, 55, 0
2, 29181, Note_on_c, 0, 43, 0
2, 29195, Note_on_c, 0, 91, 0
2, 29198, Note_on_c, 0, 79, 0
2, 29208, Note_on_c, 0, 91, 36
2, 29212, Note_on_c, 0, 79, 27
2, 29221, Note_on_c, 0, 91, 0
2, 29224, Note_on_c, 0, 79, 0
2, 29239, Note_on_c, 0, 91, 49
2, 29242, Note_on_c, 0, 79, 32
2, 29248, Note_on_c, 0, 79, 0
2, 29249, Note_on_c, 0, 91, 0
2, 29264, Note_on_c, 0, 91, 47
2, 29266, Note_on_c, 0, 79, 24
2, 29270, Note_on_c, 0, 79, 0
2, 29274, Note_on_c, 0, 91, 0
2, 29287, Note_on_c, 0, 36, 31
2, 29289, Note_on_c, 0, 93, 66
2, 29289, Control_c, 0, 64, 0
2, 29290, Note_on_c, 0, 43, 19
2, 29291, Note_on_c, 0, 52, 33
2, 29293, Note_on_c, 0, 81, 18
2, 29299, Control_c, 0, 64, 127
2, 29301, Note_on_c, 0, 36, 0
2, 29302, Note_on_c, 0, 43, 0
2, 29303, Note_on_c, 0, 93, 0
2, 29310, Note_on_c, 0, 81, 0
2, 29311, Note_on_c, 0, 52, 0
2, 29322, Note_on_c, 0, 91, 48
2, 29325, Note_on_c, 0, 79, 18
2, 29344, Note_on_c, 0, 91, 0
2, 29350, Note_on_c, 0, 79, 0
2, 29400, Note_on_c, 0, 64, 28
2, 29403, Note_on_c, 0, 59, 33
2, 29403, Note_on_c, 0, 60, 25
2, 29471, Note_on_c, 0, 64, 0
2, 29472, Note_on_c, 0, 59, 0
2, 29474, Note_on_c, 0, 60, 0
2, 29524, Note_on_c, 0, 55, 34
2, 29525, Note_on_c, 0, 65, 31
2, 29526, Note_on_c, 0, 57, 41
2, 29528, Note_on_c, 0, 60, 30
2, 29542, Control_c, 0, 64, 0
2, 29544, Note_on_c, 0, 65, 0
2, 29551, Note_on_c, 0, 65, 39
2, 29559, Note_on_c, 0, 67, 50
2, 29560, Note_on_c, 0, 65, 0
2, 29567, Note_on_c, 0, 67, 0
2, 29571, Note_on_c, 0, 69, 55
2, 29574, Note_on_c, 0, 69, 0
2, 29574, Note_on_c, 0, 57, 0
2, 29581, Note_on_c, 0, 72, 64
2, 29588, Note_on_c, 0, 72, 0
2, 29592, Note_on_c, 0, 74, 44
2, 29596, Note_on_c, 0, 74, 0
2, 29602, Note_on_c, 0, 77, 51
2, 29606, Note_on_c, 0, 60, 0
2, 29612, Note_on_c, 0, 79, 38
2, 29613, Note_on_c, 0, 77, 0
2, 29621, Note_on_c, 0, 79, 0
2, 29621, Note_on_c, 0, 81, 54
2, 29628, Note_on_c, 0, 81, 0
2, 29632, Note_on_c, 0, 84, 66
2, 29643, Note_on_c, 0, 84, 0
2, 29647, Note_on_c, 0, 81, 32
2, 29651, Note_on_c, 0, 81, 0
2, 29683, Control_c, 0, 64, 127
2, 29690, Note_on_c, 0, 65, 25
2, 29694, Note_on_c, 0, 57, 31
2, 29698, Note_on_c, 0, 65, 0
2, 29704, Note_on_c, 0, 55, 0
2, 29710, Note_on_c, 0, 57, 0
2, 29719, Note_on_c, 0, 79, 26
2, 29727, Note_on_c, 0, 79, 0
2, 29728, Note_on_c, 0, 81, 39
2, 29735, Note_on_c, 0, 83, 39
2, 29739, Note_on_c, 0, 83, 0
2, 29739, Note_on_c, 0, 81, 0
2, 29742, Note_on_c, 0, 86, 74
2, 29757, Note_on_c, 0, 83, 68
2, 29758, Note_on_c, 0, 86, 0
2, 29760, Note_on_c, 0, 48, 53
2, 29761, Note_on_c, 0, 55, 48
2, 29762, Control_c, 0, 64, 0
2, 29776, Control_c, 0, 64, 127
2, 29789, Note_on_c, 0, 79, 61
2, 29790, Note_on_c, 0, 48, 0
2, 29793, Note_on_c, 0, 83, 0
2, 29793, Note_on_c, 0, 55, 0
2, 29807, Note_on_c, 0, 79, 0
2, 29811, Note_on_c, 0, 76, 35
2, 29869, Note_on_c, 0, 64, 38
2, 29872, Note_on_c, 0, 60, 26
2, 29874, Note_on_c, 0, 76, 0
2, 29876, Note_on_c, 0, 59, 18
2, 29895, Note_on_c, 0, 64, 0
2, 29896, Note_on_c, 0, 59, 0
2, 29897, Note_on_c, 0, 60, 0
2, 29908, Note_on_c, 0, 84, 103
2, 29928, Note_on_c, 0, 84, 0
2, 29936, Note_on_c, 0, 82, 88
2, 29937, Note_on_c, 0, 58, 69
2, 29937, Note_on_c, 0, 69, 70
2, 29937, Note_on_c, 0, 64, 66
2, 29947, Note_on_c, 0, 69, 0
2, 29949, Note_on_c, 0, 64, 0
2, 29955, Note_on_c, 0, 58, 0
2, 29955, Note_on_c, 0, 82, 0
2, 29964, Note_on_c, 0, 81, 88
2, 29981, Note_on_c, 0, 81, 0
2, 29988, Note_on_c, 0, 55, 56
2, 29988, Note_on_c, 0, 65, 55
2, 29989, Note_on_c, 0, 79, 80
2, 29990, Note_on_c, 0, 59, 54
2, 29992, Control_c, 0, 64, 0
2, 30008, Control_c, 0, 64, 127
2, 30031, Note_on_c, 0, 79, 0
2, 30042, Note_on_c, 0, 65, 0
2, 30043, Note_on_c, 0, 59, 0
2, 30051, Note_on_c, 0, 55, 0
2, 30111, Note_on_c, 0, 79, 50
2, 30112, Note_on_c, 0, 75, 49
2, 30113, Note_on_c, 0, 71, 42
2, 30113, Note_on_c, 0, 59, 30
2, 30113, Note_on_c, 0, 64, 42
2, 30113, Note_on_c, 0, 67, 33
2, 30114, Note_on_c, 0, 53, 37
2, 30118, Control_c, 0, 64, 0
2, 30139, Control_c, 0, 64, 127
2, 30196, Note_on_c, 0, 59, 0
2, 30199, Note_on_c, 0, 71, 0
2, 30199, Note_on_c, 0, 53, 0
2, 30203, Note_on_c, 0, 67, 0
2, 30203, Note_on_c, 0, 79, 0
2, 30205, Note_on_c, 0, 64, 0
2, 30217, Note_on_c, 0, 75, 0
2, 30237, Note_on_c, 0, 56, 49
2, 30238, Note_on_c, 0, 77, 66
2, 30238, Control_c, 0, 64, 0
2, 30238, Note_on_c, 0, 65, 66
2, 30260, Control_c, 0, 64, 127
2, 30297, Note_on_c, 0, 68, 46
2, 30306, Note_on_c, 0, 65, 0
2, 30328, Note_on_c, 0, 56, 0
2, 30342, Note_on_c, 0, 68, 0
2, 30356, Note_on_c, 0, 67, 46
2, 30357, Note_on_c, 0, 64, 36
2, 30357, Note_on_c, 0, 55, 36
2, 30358, Control_c, 0, 64, 0
2, 30359, Note_on_c, 0, 77, 0
2, 30378, Control_c, 0, 64, 127
2, 30404, Note_on_c, 0, 76, 44
2, 30408, Note_on_c, 0, 67, 0
2, 30417, Note_on_c, 0, 76, 0
2, 30438, Note_on_c, 0, 84, 78
2, 30441, Note_on_c, 0, 55, 0
2, 30442, Note_on_c, 0, 64, 0
2, 30468, Note_on_c, 0, 84, 0
2, 30475, Note_on_c, 0, 54, 34
2, 30476, Note_on_c, 0, 81, 63
2, 30476, Note_on_c, 0, 64, 25
2, 30478, Control_c, 0, 64, 0
2, 30480, Note_on_c, 0, 60, 26
2, 30490, Note_on_c, 0, 81, 0
2, 30504, Note_on_c, 0, 76, 52
2, 30515, Note_on_c, 0, 76, 0
2, 30522, Note_on_c, 0, 64, 0
2, 30532, Note_on_c, 0, 72, 29
2, 30536, Note_on_c, 0, 72, 0
2, 30557, Note_on_c, 0, 69, 58
2, 30569, Note_on_c, 0, 69, 0
2, 30575, Note_on_c, 0, 54, 0
2, 30583, Note_on_c, 0, 53, 43
2, 30585, Note_on_c, 0, 65, 26
2, 30588, Note_on_c, 0, 65, 0
2, 30591, Note_on_c, 0, 60, 0
2, 30621, Note_on_c, 0, 87, 84
2, 30630, Note_on_c, 0, 87, 0
2, 30641, Note_on_c, 0, 84, 64
2, 30644, Control_c, 0, 64, 127
2, 30653, Note_on_c, 0, 84, 0
2, 30657, Note_on_c, 0, 80, 61
2, 30668, Note_on_c, 0, 80, 0
2, 30671, Note_on_c, 0, 77, 44
2, 30674, Note_on_c, 0, 53, 0
2, 30681, Note_on_c, 0, 77, 0
2, 30687, Note_on_c, 0, 75, 54
2, 30699, Note_on_c, 0, 75, 0
2, 30700, Note_on_c, 0, 55, 29
2, 30701, Note_on_c, 0, 62, 26
2, 30701, Note_on_c, 0, 59, 32
2, 30702, Note_on_c, 0, 52, 40
2, 30703, Note_on_c, 0, 72, 29
2, 30707, Control_c, 0, 64, 0
2, 30713, Note_on_c, 0, 72, 0
2, 30723, Note_on_c, 0, 79, 71
2, 30733, Note_on_c, 0, 79, 0
2, 30742, Note_on_c, 0, 76, 60
2, 30752, Note_on_c, 0, 76, 0
2, 30756, Note_on_c, 0, 62, 0
2, 30760, Note_on_c, 0, 74, 35
2, 30762, Note_on_c, 0, 72, 35
2, 30765, Note_on_c, 0, 72, 0
2, 30769, Note_on_c, 0, 74, 0
2, 30776, Note_on_c, 0, 55, 0
2, 30776, Note_on_c, 0, 71, 53
2, 30780, Note_on_c, 0, 59, 0
2, 30785, Note_on_c, 0, 71, 0
2, 30792, Note_on_c, 0, 67, 55
2, 30798, Note_on_c, 0, 67, 0
2, 30812, Note_on_c, 0, 64, 29
2, 30822, Note_on_c, 0, 64, 0
2, 30828, Note_on_c, 0, 62, 48
2, 30842, Note_on_c, 0, 62, 0
2, 30848, Control_c, 0, 64, 127
2, 30879, Note_on_c, 0, 59, 69
2, 30886, Control_c, 0, 64, 0
2, 30887, Note_on_c, 0, 59, 0
2, 30890, Note_on_c, 0, 52, 0
2, 30895, Note_on_c, 0, 60, 71
2, 30904, Note_on_c, 0, 60, 0
2, 30909, Note_on_c, 0, 61, 64
2, 30920, Note_on_c, 0, 61, 0
2, 30923, Control_c, 0, 64, 127
2, 30924, Note_on_c, 0, 63, 55
2, 30931, Note_on_c, 0, 63, 0
2, 30935, Note_on_c, 0, 64, 61
2, 30942, Control_c, 0, 64, 0
2, 30945, Note_on_c, 0, 64, 0
2, 30947, Note_on_c, 0, 66, 50
2, 30956, Note_on_c, 0, 66, 0
2, 30956, Note_on_c, 0, 55, 19
2, 30956, Note_on_c, 0, 45, 31
2, 30959, Note_on_c, 0, 67, 61
2, 30970, Note_on_c, 0, 67, 0
2, 30973, Note_on_c, 0, 69, 51
2, 30975, Control_c, 0, 64, 127
2, 30981, Note_on_c, 0, 69, 0
2, 30984, Note_on_c, 0, 70, 47
2, 30988, Note_on_c, 0, 70, 0
2, 30988, Note_on_c, 0, 45, 0
2, 30994, Note_on_c, 0, 55, 0
2, 30995, Note_on_c, 0, 72, 51
2, 31000, Note_on_c, 0, 72, 0
2, 31005, Note_on_c, 0, 73, 40
2, 31008, Control_c, 0, 64, 0
2, 31013, Note_on_c, 0, 73, 0
2, 31019, Note_on_c, 0, 76, 48
2, 31026, Note_on_c, 0, 76, 0
2, 31030, Note_on_c, 0, 78, 51
2, 31034, Note_on_c, 0, 78, 0
2, 31046, Note_on_c, 0, 80, 52
2, 31049, Note_on_c, 0, 80, 0
2, 31051, Note_on_c, 0, 81, 39
2, 31056, Note_on_c, 0, 81, 0
2, 31058, Note_on_c, 0, 82, 56
2, 31061, Note_on_c, 0, 82, 0
2, 31061, Control_c, 0, 64, 127
2, 31068, Note_on_c, 0, 84, 48
2, 31074, Note_on_c, 0, 85, 47
2, 31075, Note_on_c, 0, 84, 0
2, 31081, Note_on_c, 0, 87, 43
2, 31081, Control_c, 0, 64, 0
2, 31084, Note_on_c, 0, 85, 0
2, 31084, Note_on_c, 0, 61, 30
2, 31086, Note_on_c, 0, 55, 30
2, 31088, Note_on_c, 0, 58, 34
2, 31089, Note_on_c, 0, 64, 14
2, 31091, Note_on_c, 0, 87, 0
2, 31092, Note_on_c, 0, 88, 63
2, 31102, Note_on_c, 0, 88, 0
2, 31104, Note_on_c, 0, 91, 68
2, 31114, Note_on_c, 0, 91, 0
2, 31125, Note_on_c, 0, 89, 58
2, 31133, Note_on_c, 0, 89, 0
2, 31144, Control_c, 0, 64, 127
2, 31146, Note_on_c, 0, 64, 0
2, 31146, Note_on_c, 0, 88, 62
2, 31152, Note_on_c, 0, 61, 0
2, 31154, Note_on_c, 0, 58, 0
2, 31155, Note_on_c, 0, 55, 0
2, 31155, Note_on_c, 0, 88, 0
2, 31165, Note_on_c, 0, 84, 61
2, 31176, Note_on_c, 0, 84, 0
2, 31182, Note_on_c, 0, 81, 45
2, 31193, Note_on_c, 0, 81, 0
2, 31202, Note_on_c, 0, 86, 61
2, 31208, Note_on_c, 0, 53, 29
2, 31208, Note_on_c, 0, 57, 34
2, 31209, Note_on_c, 0, 50, 24
2, 31210, Note_on_c, 0, 60, 17
2, 31210, Control_c, 0, 64, 0
2, 31216, Note_on_c, 0, 86, 0
2, 31224, Note_on_c, 0, 84, 60
2, 31236, Note_on_c, 0, 84, 0
2, 31245, Note_on_c, 0, 81, 60
2, 31254, Note_on_c, 0, 81, 0
2, 31266, Note_on_c, 0, 77, 50
2, 31273, Control_c, 0, 64, 127
2, 31279, Note_on_c, 0, 77, 0
2, 31284, Note_on_c, 0, 74, 45
2, 31285, Note_on_c, 0, 60, 0
2, 31285, Note_on_c, 0, 53, 0
2, 31292, Note_on_c, 0, 57, 0
2, 31296, Note_on_c, 0, 74, 0
2, 31329, Note_on_c, 0, 72, 62
2, 31334, Note_on_c, 0, 60, 24
2, 31334, Note_on_c, 0, 57, 31
2, 31336, Note_on_c, 0, 53, 26
2, 31337, Control_c, 0, 64, 0
2, 31342, Control_c, 0, 64, 127
2, 31364, Note_on_c, 0, 69, 63
2, 31370, Note_on_c, 0, 72, 0
2, 31375, Note_on_c, 0, 69, 0
2, 31381, Note_on_c, 0, 57, 0
2, 31381, Note_on_c, 0, 53, 0
2, 31382, Note_on_c, 0, 50, 0
2, 31386, Note_on_c, 0, 60, 0
2, 31395, Note_on_c, 0, 69, 71
2, 31405, Note_on_c, 0, 69, 0
2, 31418, Note_on_c, 0, 69, 77
2, 31429, Note_on_c, 0, 69, 0
2, 31442, Note_on_c, 0, 68, 61
2, 31442, Note_on_c, 0, 55, 44
2, 31442, Note_on_c, 0, 65, 49
2, 31445, Note_on_c, 0, 60, 47
2, 31445, Note_on_c, 0, 57, 55
2, 31447, Control_c, 0, 64, 0
2, 31449, Note_on_c, 0, 69, 74
2, 31450, Note_on_c, 0, 68, 0
2, 31466, Control_c, 0, 64, 127
2, 31468, Note_on_c, 0, 69, 0
2, 31474, Note_on_c, 0, 72, 89
2, 31481, Note_on_c, 0, 65, 0
2, 31486, Note_on_c, 0, 60, 0
2, 31490, Note_on_c, 0, 72, 0
2, 31493, Note_on_c, 0, 57, 0
2, 31493, Note_on_c, 0, 55, 0
2, 31500, Note_on_c, 0, 72, 78
2, 31515, Note_on_c, 0, 72, 0
2, 31526, Note_on_c, 0, 72, 68
2, 31539, Note_on_c, 0, 72, 0
2, 31558, Note_on_c, 0, 72, 54
2, 31559, Control_c, 0, 64, 0
2, 31559, Note_on_c, 0, 69, 51
2, 31559, Note_on_c, 0, 60, 49
2, 31560, Note_on_c, 0, 65, 54
2, 31560, Note_on_c, 0, 43, 32
2, 31561, Note_on_c, 0, 53, 36
2, 31577, Control_c, 0, 64, 127
2, 31582, Note_on_c, 0, 72, 0
2, 31584, Note_on_c, 0, 43, 0
2, 31594, Note_on_c, 0, 53, 0
2, 31594, Note_on_c, 0, 72, 53
2, 31607, Note_on_c, 0, 72, 0
2, 31614, Note_on_c, 0, 60, 0
2, 31616, Note_on_c, 0, 69, 0
2, 31619, Note_on_c, 0, 72, 47
2, 31624, Note_on_c, 0, 65, 0
2, 31630, Note_on_c, 0, 72, 0
2, 31650, Note_on_c, 0, 72, 44
2, 31659, Note_on_c, 0, 72, 0
2, 31679, Note_on_c, 0, 36, 42
2, 31681, Note_on_c, 0, 72, 42
2, 31681, Control_c, 0, 64, 0
2, 31682, Note_on_c, 0, 43, 24
2, 31682, Note_on_c, 0, 62, 32
2, 31683, Note_on_c, 0, 67, 36
2, 31684, Note_on_c, 0, 52, 22
2, 31699, Control_c, 0, 64, 127
2, 31705, Note_on_c, 0, 36, 0
2, 31710, Note_on_c, 0, 43, 0
2, 31720, Note_on_c, 0, 52, 0
2, 31722, Note_on_c, 0, 62, 0
2, 31723, Note_on_c, 0, 67, 0
2, 31745, Note_on_c, 0, 72, 0
2, 31808, Note_on_c, 0, 64, 32
2, 31810, Note_on_c, 0, 59, 36
2, 31811, Note_on_c, 0, 60, 29
2, 31844, Note_on_c, 0, 90, 81
2, 31854, Note_on_c, 0, 90, 0
2, 31860, Note_on_c, 0, 91, 81
2, 31869, Note_on_c, 0, 64, 0
2, 31870, Note_on_c, 0, 59, 0
2, 31870, Note_on_c, 0, 60, 0
2, 31871, Note_on_c, 0, 91, 0
2, 31880, Note_on_c, 0, 90, 75
2, 31881, Note_on_c, 0, 92, 46
2, 31889, Note_on_c, 0, 92, 0
2, 31894, Note_on_c, 0, 90, 0
2, 31897, Note_on_c, 0, 86, 68
2, 31909, Note_on_c, 0, 86, 0
2, 31914, Note_on_c, 0, 83, 49
2, 31923, Note_on_c, 0, 83, 0
2, 31933, Note_on_c, 0, 79, 35
2, 31940, Note_on_c, 0, 65, 32
2, 31940, Note_on_c, 0, 61, 28
2, 31941, Note_on_c, 0, 79, 0
2, 31941, Note_on_c, 0, 56, 28
2, 31941, Note_on_c, 0, 55, 29
2, 31948, Control_c, 0, 64, 0
2, 31969, Note_on_c, 0, 88, 77
2, 31979, Note_on_c, 0, 88, 0
2, 31986, Note_on_c, 0, 89, 76
2, 32000, Note_on_c, 0, 89, 0
2, 32001, Note_on_c, 0, 88, 71
2, 32014, Note_on_c, 0, 88, 0
2, 32015, Note_on_c, 0, 84, 55
2, 32020, Note_on_c, 0, 65, 0
2, 32026, Note_on_c, 0, 84, 0
2, 32032, Note_on_c, 0, 79, 34
2, 32034, Note_on_c, 0, 61, 0
2, 32040, Note_on_c, 0, 79, 0
2, 32040, Note_on_c, 0, 56, 0
2, 32046, Control_c, 0, 64, 127
2, 32063, Control_c, 0, 64, 0
2, 32064, Note_on_c, 0, 61, 35
2, 32065, Note_on_c, 0, 65, 38
2, 32065, Note_on_c, 0, 56, 28
2, 32088, Control_c, 0, 64, 127
2, 32106, Note_on_c, 0, 55, 0
2, 32122, Note_on_c, 0, 55, 62
2, 32130, Note_on_c, 0, 61, 0
2, 32130, Note_on_c, 0, 56, 0
2, 32133, Note_on_c, 0, 65, 0
2, 32177, Note_on_c, 0, 67, 59
2, 32179, Note_on_c, 0, 62, 34
2, 32180, Note_on_c, 0, 64, 41
2, 32180, Control_c, 0, 64, 0
2, 32191, Control_c, 0, 64, 127
2, 32218, Note_on_c, 0, 95, 103
2, 32228, Note_on_c, 0, 67, 0
2, 32231, Note_on_c, 0, 55, 0
2, 32231, Note_on_c, 0, 95, 0
2, 32236, Note_on_c, 0, 96, 88
2, 32252, Note_on_c, 0, 95, 83
2, 32257, Note_on_c, 0, 96, 0
2, 32264, Note_on_c, 0, 95, 0
2, 32267, Note_on_c, 0, 91, 81
2, 32280, Note_on_c, 0, 91, 0
2, 32283, Note_on_c, 0, 88, 65
2, 32293, Note_on_c, 0, 88, 0
2, 32299, Control_c, 0, 64, 0
2, 32302, Note_on_c, 0, 86, 51
2, 32304, Note_on_c, 0, 84, 37
2, 32307, Note_on_c, 0, 84, 0
2, 32307, Note_on_c, 0, 55, 35
2, 32315, Note_on_c, 0, 86, 0
2, 32330, Note_on_c, 0, 88, 82
2, 32342, Note_on_c, 0, 88, 0
2, 32346, Note_on_c, 0, 89, 78
2, 32353, Control_c, 0, 64, 127
2, 32362, Note_on_c, 0, 88, 74
2, 32366, Note_on_c, 0, 89, 0
2, 32369, Note_on_c, 0, 64, 0
2, 32370, Note_on_c, 0, 62, 0
2, 32374, Note_on_c, 0, 88, 0
2, 32377, Note_on_c, 0, 83, 61
2, 32386, Note_on_c, 0, 83, 0
2, 32392, Note_on_c, 0, 79, 44
2, 32402, Note_on_c, 0, 79, 0
2, 32408, Note_on_c, 0, 76, 22
2, 32412, Note_on_c, 0, 76, 0
2, 32414, Note_on_c, 0, 65, 35
2, 32416, Note_on_c, 0, 56, 25
2, 32417, Control_c, 0, 64, 0
2, 32419, Note_on_c, 0, 84, 72
2, 32429, Note_on_c, 0, 84, 0
2, 32436, Note_on_c, 0, 80, 60
2, 32446, Note_on_c, 0, 80, 0
2, 32450, Note_on_c, 0, 61, 1
2, 32451, Note_on_c, 0, 56, 0
2, 32451, Note_on_c, 0, 79, 55
2, 32456, Note_on_c, 0, 65, 0
2, 32460, Note_on_c, 0, 79, 0
2, 32465, Note_on_c, 0, 77, 33
2, 32468, Note_on_c, 0, 61, 0
2, 32470, Note_on_c, 0, 77, 0
2, 32480, Note_on_c, 0, 72, 53
2, 32488, Note_on_c, 0, 72, 0
2, 32492, Note_on_c, 0, 55, 0
2, 32495, Note_on_c, 0, 68, 53
2, 32503, Note_on_c, 0, 68, 0
2, 32503, Control_c, 0, 64, 127
2, 32513, Note_on_c, 0, 67, 37
2, 32516, Note_on_c, 0, 51, 25
2, 32519, Note_on_c, 0, 51, 0
2, 32519, Note_on_c, 0, 67, 0
2, 32526, Note_on_c, 0, 70, 69
2, 32535, Note_on_c, 0, 70, 0
2, 32539, Note_on_c, 0, 43, 45
2, 32540, Note_on_c, 0, 55, 28
2, 32541, Control_c, 0, 64, 0
2, 32541, Note_on_c, 0, 68, 72
2, 32550, Note_on_c, 0, 68, 0
2, 32554, Note_on_c, 0, 70, 59
2, 32562, Note_on_c, 0, 55, 0
2, 32563, Note_on_c, 0, 68, 42
2, 32565, Note_on_c, 0, 70, 0
2, 32566, Control_c, 0, 64, 127
2, 32570, Note_on_c, 0, 68, 0
2, 32570, Note_on_c, 0, 43, 0
2, 32570, Note_on_c, 0, 67, 55
2, 32578, Note_on_c, 0, 67, 0
2, 32585, Note_on_c, 0, 65, 62
2, 32596, Note_on_c, 0, 65, 0
2, 32600, Note_on_c, 0, 62, 48
2, 32612, Note_on_c, 0, 62, 0
2, 32614, Note_on_c, 0, 63, 46
2, 32623, Note_on_c, 0, 63, 0
2, 32625, Note_on_c, 0, 64, 59
2, 32634, Note_on_c, 0, 64, 0
2, 32637, Note_on_c, 0, 67, 80
2, 32643, Note_on_c, 0, 36, 31
2, 32646, Note_on_c, 0, 43, 32
2, 32647, Note_on_c, 0, 52, 61
2, 32652, Control_c, 0, 64, 0
2, 32674, Control_c, 0, 64, 127
2, 32702, Note_on_c, 0, 52, 0
2, 32704, Note_on_c, 0, 67, 0
2, 32705, Note_on_c, 0, 36, 0
2, 32767, Note_on_c, 0, 60, 54
2, 32768, Note_on_c, 0, 55, 48
2, 32768, Note_on_c, 0, 52, 45
2, 32769, Note_on_c, 0, 57, 45
2, 32771, Note_on_c, 0, 55, 0
2, 32773, Note_on_c, 0, 57, 0
2, 32776, Note_on_c, 0, 60, 0
2, 32796, Note_on_c, 0, 43, 0
2, 32805, Note_on_c, 0, 52, 0
2, 32818, Note_on_c, 0, 88, 83
2, 32819, Note_on_c, 0, 76, 76
2, 32820, Note_on_c, 0, 85, 45
2, 32824, Note_on_c, 0, 85, 0
2, 32831, Note_on_c, 0, 76, 0
2, 32834, Note_on_c, 0, 88, 0
2, 32851, Note_on_c, 0, 77, 88
2, 32851, Note_on_c, 0, 89, 88
2, 32864, Note_on_c, 0, 77, 0
2, 32866, Note_on_c, 0, 89, 0
2, 32883, Note_on_c, 0, 55, 80
2, 32883, Note_on_c, 0, 57, 81
2, 32883, Note_on_c, 0, 84, 88
2, 32883, Note_on_c, 0, 65, 88
2, 32883, Note_on_c, 0, 91, 91
2, 32883, Note_on_c, 0, 60, 85
2, 32884, Note_on_c, 0, 88, 84
2, 32884, Note_on_c, 0, 79, 94
2, 32885, Control_c, 0, 64, 0
2, 32899, Control_c, 0, 64, 127
2, 32969, Note_on_c, 0, 65, 0
2, 32970, Note_on_c, 0, 91, 0
2, 32970, Note_on_c, 0, 60, 0
2, 32973, Note_on_c, 0, 79, 0
2, 32973, Note_on_c, 0, 84, 0
2, 32973, Note_on_c, 0, 57, 0
2, 32975, Note_on_c, 0, 55, 0
2, 32977, Note_on_c, 0, 88, 0
2, 33009, Note_on_c, 0, 91, 66
2, 33010, Note_on_c, 0, 84, 46
2, 33010, Note_on_c, 0, 59, 38
2, 33011, Note_on_c, 0, 79, 43
2, 33011, Note_on_c, 0, 64, 44
2, 33012, Control_c, 0, 64, 0
2, 33013, Note_on_c, 0, 53, 38
2, 33029, Control_c, 0, 64, 127
2, 33037, Note_on_c, 0, 64, 0
2, 33040, Note_on_c, 0, 59, 0
2, 33045, Note_on_c, 0, 53, 0
2, 33078, Note_on_c, 0, 79, 0
2, 33079, Note_on_c, 0, 84, 0
2, 33085, Note_on_c, 0, 91, 0
2, 33124, Note_on_c, 0, 36, 38
2, 33125, Note_on_c, 0, 43, 28
2, 33125, Control_c, 0, 64, 0
2, 33126, Note_on_c, 0, 52, 40
2, 33126, Note_on_c, 0, 93, 54
2, 33129, Note_on_c, 0, 81, 24
2, 33138, Note_on_c, 0, 36, 0
2, 33139, Note_on_c, 0, 93, 0
2, 33140, Note_on_c, 0, 43, 0
2, 33140, Note_on_c, 0, 81, 0
2, 33140, Control_c, 0, 64, 127
2, 33147, Note_on_c, 0, 52, 0
2, 33156, Note_on_c, 0, 91, 50
2, 33159, Note_on_c, 0, 79, 28
2, 33167, Note_on_c, 0, 79, 0
2, 33168, Note_on_c, 0, 91, 0
2, 33188, Note_on_c, 0, 91, 47
2, 33189, Note_on_c, 0, 79, 35
2, 33197, Note_on_c, 0, 79, 0
2, 33197, Note_on_c, 0, 91, 0
2, 33215, Note_on_c, 0, 91, 49
2, 33217, Note_on_c, 0, 79, 32
2, 33225, Note_on_c, 0, 79, 0
2, 33225, Note_on_c, 0, 91, 0
2, 33245, Note_on_c, 0, 79, 33
2, 33246, Note_on_c, 0, 91, 36
2, 33246, Note_on_c, 0, 64, 29
2, 33249, Note_on_c, 0, 59, 32
2, 33250, Note_on_c, 0, 79, 0
2, 33250, Note_on_c, 0, 60, 26
2, 33256, Note_on_c, 0, 91, 0
2, 33306, Note_on_c, 0, 59, 0
2, 33306, Note_on_c, 0, 64, 0
2, 33307, Note_on_c, 0, 60, 0
2, 33363, Note_on_c, 0, 55, 34
2, 33365, Note_on_c, 0, 65, 34
2, 33365, Note_on_c, 0, 57, 42
2, 33367, Note_on_c, 0, 60, 39
2, 33370, Control_c, 0, 64, 0
2, 33384, Control_c, 0, 64, 127
2, 33394, Note_on_c, 0, 65, 0
2, 33396, Note_on_c, 0, 60, 0
2, 33399, Note_on_c, 0, 57, 0
2, 33400, Note_on_c, 0, 55, 0
2, 33482, Note_on_c, 0, 55, 101
2, 33482, Note_on_c, 0, 43, 80
2, 33486, Control_c, 0, 64, 0
2, 33495, Control_c, 0, 64, 127
2, 33523, Note_on_c, 0, 55, 0
2, 33531, Note_on_c, 0, 43, 0
2, 33610, Note_on_c, 0, 24, 64
2, 33610, Note_on_c, 0, 36, 75
2, 33618, Control_c, 0, 64, 0
2, 33634, Control_c, 0, 64, 127
2, 33650, Note_on_c, 0, 24, 0
2, 33655, Note_on_c, 0, 36, 0
2, 33730, Note_on_c, 0, 84, 68
2, 33731, Note_on_c, 0, 58, 75
2, 33731, Note_on_c, 0, 79, 74
2, 33732, Note_on_c, 0, 74, 46
2, 33732, Note_on_c, 0, 69, 73
2, 33733, Note_on_c, 0, 64, 70
2, 33734, Note_on_c, 0, 76, 38
2, 33737, Note_on_c, 0, 76, 0
2, 33739, Control_c, 0, 64, 0
2, 33751, Control_c, 0, 64, 127
2, 33772, Note_on_c, 0, 84, 0
2, 33778, Note_on_c, 0, 82, 62
2, 33788, Note_on_c, 0, 79, 0
2, 33790, Note_on_c, 0, 69, 0
2, 33793, Note_on_c, 0, 64, 0
2, 33798, Note_on_c, 0, 82, 0
2, 33800, Note_on_c, 0, 58, 0
2, 33805, Note_on_c, 0, 74, 0
2, 33812, Note_on_c, 0, 81, 61
2, 33821, Note_on_c, 0, 81, 0
2, 33845, Note_on_c, 0, 79, 43
2, 33846, Note_on_c, 0, 69, 53
2, 33847, Note_on_c, 0, 67, 41
2, 33848, Note_on_c, 0, 77, 32
2, 33848, Note_on_c, 0, 72, 39
2, 33851, Control_c, 0, 64, 0
2, 33873, Control_c, 0, 64, 127
2, 33900, Note_on_c, 0, 55, 39
2, 33909, Note_on_c, 0, 72, 0
2, 33917, Note_on_c, 0, 69, 0
2, 33926, Note_on_c, 0, 67, 0
2, 33959, Note_on_c, 0, 69, 40
2, 33961, Note_on_c, 0, 72, 36
2, 33962, Note_on_c, 0, 65, 29
2, 33996, Note_on_c, 0, 55, 0
2, 34047, Note_on_c, 0, 79, 0
2, 34048, Note_on_c, 0, 65, 0
2, 34059, Note_on_c, 0, 72, 0
2, 34060, Note_on_c, 0, 77, 0
2, 34070, Note_on_c, 0, 69, 0
2, 34133, Note_on_c, 0, 77, 76
2, 34134, Note_on_c, 0, 55, 60
2, 34135, Note_on_c, 0, 72, 80
2, 34135, Note_on_c, 0, 64, 65
2, 34136, Note_on_c, 0, 67, 78
2, 34136, Control_c, 0, 64, 0
2, 34149, Control_c, 0, 64, 127
2, 34166, Note_on_c, 0, 64, 0
2, 34166, Note_on_c, 0, 72, 0
2, 34169, Note_on_c, 0, 67, 0
2, 34169, Note_on_c, 0, 77, 0
2, 34170, Note_on_c, 0, 55, 0
2, 34191, Note_on_c, 0, 76, 66
2, 34192, Note_on_c, 0, 64, 66
2, 34192, Note_on_c, 0, 54, 69
2, 34192, Note_on_c, 0, 69, 89
2, 34198, Control_c, 0, 64, 0
2, 34218, Control_c, 0, 64, 127
2, 34243, Note_on_c, 0, 76, 0
2, 34251, Note_on_c, 0, 76, 58
2, 34256, Note_on_c, 0, 64, 0
2, 34275, Note_on_c, 0, 76, 0
2, 34281, Note_on_c, 0, 54, 0
2, 34281, Note_on_c, 0, 69, 0
2, 34305, Note_on_c, 0, 74, 34
2, 34307, Note_on_c, 0, 53, 50
2, 34307, Note_on_c, 0, 68, 61
2, 34310, Note_on_c, 0, 64, 45
2, 34313, Control_c, 0, 64, 0
2, 34329, Control_c, 0, 64, 127
2, 34359, Note_on_c, 0, 53, 0
2, 34371, Note_on_c, 0, 54, 46
2, 34386, Note_on_c, 0, 68, 0
2, 34390, Note_on_c, 0, 64, 0
2, 34405, Note_on_c, 0, 54, 0
2, 34427, Note_on_c, 0, 56, 36
2, 34427, Note_on_c, 0, 62, 34
2, 34428, Note_on_c, 0, 68, 34
2, 34429, Note_on_c, 0, 65, 33
2, 34429, Note_on_c, 0, 53, 34
2, 34433, Note_on_c, 0, 74, 0
2, 34433, Control_c, 0, 64, 0
2, 34451, Control_c, 0, 64, 127
2, 34472, Note_on_c, 0, 62, 0
2, 34478, Note_on_c, 0, 56, 0
2, 34479, Note_on_c, 0, 53, 0
2, 34516, Note_on_c, 0, 65, 0
2, 34525, Note_on_c, 0, 68, 0
2, 34528, Note_on_c, 0, 72, 38
2, 34543, Note_on_c, 0, 72, 0
2, 34555, Note_on_c, 0, 40, 33
2, 34556, Note_on_c, 0, 71, 38
2, 34558, Control_c, 0, 64, 0
2, 34558, Note_on_c, 0, 47, 32
2, 34559, Note_on_c, 0, 55, 30
2, 34574, Control_c, 0, 64, 127
2, 34598, Note_on_c, 0, 40, 0
2, 34602, Note_on_c, 0, 71, 0
2, 34603, Note_on_c, 0, 47, 0
2, 34605, Note_on_c, 0, 55, 0
2, 34635, Note_on_c, 0, 60, 58
2, 34637, Note_on_c, 0, 57, 35
2, 34647, Note_on_c, 0, 57, 0
2, 34649, Note_on_c, 0, 60, 0
2, 34650, Note_on_c, 0, 61, 59
2, 34650, Note_on_c, 0, 58, 56
2, 34653, Control_c, 0, 64, 0
2, 34663, Note_on_c, 0, 58, 0
2, 34663, Note_on_c, 0, 61, 0
2, 34663, Note_on_c, 0, 63, 46
2, 34667, Note_on_c, 0, 60, 54
2, 34670, Note_on_c, 0, 63, 0
2, 34672, Note_on_c, 0, 64, 60
2, 34680, Note_on_c, 0, 64, 0
2, 34684, Note_on_c, 0, 61, 44
2, 34684, Note_on_c, 0, 66, 49
2, 34685, Note_on_c, 0, 60, 0
2, 34690, Note_on_c, 0, 62, 24
2, 34692, Note_on_c, 0, 66, 0
2, 34695, Note_on_c, 0, 62, 0
2, 34695, Note_on_c, 0, 67, 54
2, 34696, Note_on_c, 0, 64, 60
2, 34699, Note_on_c, 0, 61, 0
2, 34699, Note_on_c, 0, 62, 33
2, 34705, Note_on_c, 0, 67, 0
2, 34706, Note_on_c, 0, 69, 52
2, 34707, Note_on_c, 0, 62, 0
2, 34715, Note_on_c, 0, 69, 0
2, 34715, Note_on_c, 0, 70, 67
2, 34718, Note_on_c, 0, 64, 0
2, 34721, Note_on_c, 0, 70, 0
2, 34725, Note_on_c, 0, 72, 51
2, 34733, Note_on_c, 0, 72, 0
2, 34734, Note_on_c, 0, 73, 49
2, 34738, Note_on_c, 0, 68, 28
2, 34743, Note_on_c, 0, 73, 0
2, 34744, Note_on_c, 0, 75, 39
2, 34747, Note_on_c, 0, 70, 15
2, 34751, Note_on_c, 0, 70, 0
2, 34753, Note_on_c, 0, 75, 0
2, 34753, Note_on_c, 0, 76, 42
2, 34753, Control_c, 0, 64, 127
2, 34759, Note_on_c, 0, 68, 0
2, 34763, Control_c, 0, 64, 0
2, 34764, Note_on_c, 0, 76, 0
2, 34764, Note_on_c, 0, 79, 62
2, 34765, Note_on_c, 0, 72, 47
2, 34768, Note_on_c, 0, 72, 0
2, 34772, Note_on_c, 0, 79, 0
2, 34816, Control_c, 0, 64, 127
2, 34841, Note_on_c, 0, 69, 68
2, 34842, Note_on_c, 0, 65, 75
2, 34842, Control_c, 0, 64, 0
2, 34842, Note_on_c, 0, 61, 59
2, 34844, Note_on_c, 0, 60, 60
2, 34848, Control_c, 0, 64, 127
2, 34855, Note_on_c, 0, 69, 0
2, 34857, Note_on_c, 0, 65, 0
2, 34857, Note_on_c, 0, 60, 0
2, 34863, Note_on_c, 0, 61, 0
2, 34880, Note_on_c, 0, 64, 71
2, 34880, Note_on_c, 0, 57, 76
2, 34880, Note_on_c, 0, 61, 73
2, 34880, Note_on_c, 0, 58, 81
2, 34882, Control_c, 0, 64, 0
2, 34893, Control_c, 0, 64, 127
2, 34905, Note_on_c, 0, 57, 0
2, 34906, Note_on_c, 0, 64, 0
2, 34910, Note_on_c, 0, 58, 0
2, 34911, Note_on_c, 0, 61, 0
2, 34945, Control_c, 0, 64, 0
2, 34947, Note_on_c, 0, 58, 71
2, 34947, Note_on_c, 0, 51, 60
2, 34947, Note_on_c, 0, 61, 61
2, 34948, Note_on_c, 0, 55, 63
2, 34954, Control_c, 0, 64, 127
2, 34963, Note_on_c, 0, 55, 0
2, 34972, Note_on_c, 0, 58, 0
2, 34974, Note_on_c, 0, 61, 0
2, 34976, Control_c, 0, 64, 0
2, 34977, Note_on_c, 0, 51, 0
2, 34982, Note_on_c, 0, 66, 58
2, 34983, Note_on_c, 0, 58, 74
2, 34984, Note_on_c, 0, 61, 43
2, 34985, Note_on_c, 0, 55, 69
2, 34987, Control_c, 0, 64, 127
2, 34987, Note_on_c, 0, 49, 55
2, 35003, Note_on_c, 0, 55, 0
2, 35006, Note_on_c, 0, 66, 0
2, 35010, Note_on_c, 0, 58, 0
2, 35015, Note_on_c, 0, 61, 0
2, 35019, Note_on_c, 0, 49, 0
2, 35021, Control_c, 0, 64, 0
2, 35024, Note_on_c, 0, 65, 61
2, 35025, Note_on_c, 0, 60, 61
2, 35025, Note_on_c, 0, 50, 59
2, 35025, Note_on_c, 0, 57, 61
2, 35037, Control_c, 0, 64, 127
2, 35059, Note_on_c, 0, 57, 0
2, 35063, Note_on_c, 0, 38, 75
2, 35074, Note_on_c, 0, 60, 0
2, 35075, Note_on_c, 0, 38, 0
2, 35077, Note_on_c, 0, 65, 0
2, 35081, Note_on_c, 0, 50, 0
2, 35144, Note_on_c, 0, 64, 96
2, 35144, Control_c, 0, 64, 0
2, 35144, Note_on_c, 0, 76, 68
2, 35144, Note_on_c, 0, 73, 80
2, 35144, Note_on_c, 0, 79, 80
2, 35145, Note_on_c, 0, 69, 90
2, 35157, Control_c, 0, 64, 127
2, 35166, Note_on_c, 0, 76, 0
2, 35170, Note_on_c, 0, 79, 0
2, 35173, Note_on_c, 0, 64, 0
2, 35173, Note_on_c, 0, 73, 0
2, 35173, Note_on_c, 0, 69, 0
2, 35181, Control_c, 0, 64, 0
2, 35182, Note_on_c, 0, 77, 64
2, 35183, Note_on_c, 0, 62, 73
2, 35183, Note_on_c, 0, 69, 71
2, 35184, Note_on_c, 0, 72, 74
2, 35194, Control_c, 0, 64, 127
2, 35207, Note_on_c, 0, 72, 0
2, 35211, Note_on_c, 0, 77, 0
2, 35213, Note_on_c, 0, 69, 0
2, 35218, Note_on_c, 0, 62, 0
2, 35224, Note_on_c, 0, 76, 48
2, 35226, Note_on_c, 0, 69, 70
2, 35227, Note_on_c, 0, 72, 57
2, 35227, Note_on_c, 0, 65, 71
2, 35228, Note_on_c, 0, 60, 65
2, 35240, Note_on_c, 0, 72, 0
2, 35241, Note_on_c, 0, 69, 0
2, 35243, Note_on_c, 0, 76, 0
2, 35245, Note_on_c, 0, 65, 0
2, 35248, Note_on_c, 0, 60, 0
2, 35268, Control_c, 0, 64, 0
2, 35269, Note_on_c, 0, 72, 45
2, 35270, Note_on_c, 0, 69, 51
2, 35271, Note_on_c, 0, 65, 53
2, 35272, Note_on_c, 0, 62, 38
2, 35272, Note_on_c, 0, 60, 36
2, 35272, Note_on_c, 0, 57, 60
2, 35281, Control_c, 0, 64, 127
2, 35284, Note_on_c, 0, 69, 0
2, 35286, Note_on_c, 0, 72, 0
2, 35289, Note_on_c, 0, 65, 0
2, 35291, Note_on_c, 0, 57, 0
2, 35291, Note_on_c, 0, 60, 0
2, 35294, Note_on_c, 0, 62, 0
2, 35314, Note_on_c, 0, 53, 48
2, 35315, Note_on_c, 0, 60, 44
2, 35315, Note_on_c, 0, 65, 50
2, 35316, Note_on_c, 0, 69, 40
2, 35317, Control_c, 0, 64, 0
2, 35330, Control_c, 0, 64, 127
2, 35359, Note_on_c, 0, 53, 0
2, 35362, Note_on_c, 0, 60, 0
2, 35370, Note_on_c, 0, 65, 0
2, 35376, Note_on_c, 0, 69, 0
2, 35400, Note_on_c, 0, 67, 41
2, 35400, Note_on_c, 0, 59, 38
2, 35400, Note_on_c, 0, 64, 46
2, 35401, Note_on_c, 0, 43, 37
2, 35402, Note_on_c, 0, 53, 31
2, 35404, Control_c, 0, 64, 0
2, 35422, Control_c, 0, 64, 127
2, 35435, Note_on_c, 0, 43, 0
2, 35437, Note_on_c, 0, 53, 0
2, 35455, Note_on_c, 0, 64, 0
2, 35462, Note_on_c, 0, 59, 0
2, 35486, Note_on_c, 0, 67, 0
2, 35493, Note_on_c, 0, 63, 39
2, 35496, Note_on_c, 0, 59, 36
2, 35512, Note_on_c, 0, 59, 0
2, 35517, Note_on_c, 0, 63, 0
2, 35524, Note_on_c, 0, 59, 39
2, 35525, Note_on_c, 0, 36, 32
2, 35525, Note_on_c, 0, 62, 49
2, 35526, Note_on_c, 0, 43, 29
2, 35526, Control_c, 0, 64, 0
2, 35530, Note_on_c, 0, 52, 36
2, 35546, Control_c, 0, 64, 127
2, 35553, Note_on_c, 0, 36, 0
2, 35556, Note_on_c, 0, 59, 0
2, 35558, Note_on_c, 0, 43, 0
2, 35572, Note_on_c, 0, 52, 0
2, 35585, Note_on_c, 0, 62, 0
2, 35649, Note_on_c, 0, 64, 33
2, 35651, Note_on_c, 0, 60, 34
2, 35651, Note_on_c, 0, 59, 34
2, 35654, Note_on_c, 0, 81, 42
2, 35663, Control_c, 0, 64, 0
2, 35663, Note_on_c, 0, 82, 49
2, 35669, Note_on_c, 0, 82, 0
2, 35671, Note_on_c, 0, 83, 60
2, 35672, Note_on_c, 0, 81, 0
2, 35679, Note_on_c, 0, 83, 0
2, 35682, Note_on_c, 0, 86, 75
2, 35683, Note_on_c, 0, 74, 64
2, 35697, Note_on_c, 0, 74, 0
2, 35697, Note_on_c, 0, 86, 0
2, 35708, Control_c, 0, 64, 127
2, 35710, Note_on_c, 0, 86, 79
2, 35712, Note_on_c, 0, 74, 66
2, 35722, Note_on_c, 0, 74, 0
2, 35723, Note_on_c, 0, 86, 0
2, 35727, Note_on_c, 0, 64, 0
2, 35731, Note_on_c, 0, 59, 0
2, 35733, Note_on_c, 0, 60, 0
2, 35737, Note_on_c, 0, 86, 74
2, 35738, Note_on_c, 0, 74, 51
2, 35747, Note_on_c, 0, 74, 0
2, 35747, Note_on_c, 0, 86, 0
2, 35760, Note_on_c, 0, 55, 45
2, 35761, Note_on_c, 0, 65, 43
2, 35761, Note_on_c, 0, 86, 70
2, 35764, Note_on_c, 0, 74, 51
2, 35764, Note_on_c, 0, 60, 34
2, 35764, Note_on_c, 0, 57, 38
2, 35765, Control_c, 0, 64, 0
2, 35778, Note_on_c, 0, 74, 0
2, 35789, Note_on_c, 0, 86, 0
2, 35791, Note_on_c, 0, 83, 48
2, 35803, Control_c, 0, 64, 127
2, 35842, Note_on_c, 0, 65, 0
2, 35843, Note_on_c, 0, 60, 0
2, 35844, Note_on_c, 0, 57, 0
2, 35846, Note_on_c, 0, 55, 0
2, 35879, Note_on_c, 0, 64, 35
2, 35880, Note_on_c, 0, 59, 34
2, 35881, Control_c, 0, 64, 0
2, 35882, Note_on_c, 0, 53, 28
2, 35890, Control_c, 0, 64, 127
2, 35897, Note_on_c, 0, 83, 0
2, 35937, Note_on_c, 0, 64, 0
2, 35938, Note_on_c, 0, 59, 0
2, 35947, Note_on_c, 0, 53, 0
2, 35948, Note_on_c, 0, 94, 36
2, 35956, Note_on_c, 0, 94, 0
2, 35964, Note_on_c, 0, 95, 66
2, 35971, Note_on_c, 0, 95, 0
2, 35979, Note_on_c, 0, 98, 82
2, 35990, Note_on_c, 0, 98, 0
2, 35995, Note_on_c, 0, 95, 80
2, 36005, Control_c, 0, 64, 0
2, 36006, Note_on_c, 0, 95, 0
2, 36011, Note_on_c, 0, 55, 37
2, 36013, Note_on_c, 0, 93, 68
2, 36015, Note_on_c, 0, 48, 30
2, 36027, Note_on_c, 0, 93, 0
2, 36031, Note_on_c, 0, 91, 60
2, 36036, Note_on_c, 0, 91, 0
2, 36049, Note_on_c, 0, 88, 33
2, 36054, Control_c, 0, 64, 127
2, 36063, Note_on_c, 0, 88, 0
2, 36066, Note_on_c, 0, 86, 41
2, 36067, Note_on_c, 0, 48, 0
2, 36070, Note_on_c, 0, 55, 0
2, 36072, Note_on_c, 0, 86, 0
2, 36081, Note_on_c, 0, 91, 75
2, 36091, Note_on_c, 0, 91, 0
2, 36098, Note_on_c, 0, 88, 72
2, 36110, Note_on_c, 0, 88, 0
2, 36114, Note_on_c, 0, 86, 60
2, 36124, Note_on_c, 0, 86, 0
2, 36129, Note_on_c, 0, 83, 38
2, 36131, Note_on_c, 0, 62, 29
2, 36131, Note_on_c, 0, 67, 35
2, 36132, Note_on_c, 0, 64, 36
2, 36136, Control_c, 0, 64, 0
2, 36138, Note_on_c, 0, 83, 0
2, 36149, Note_on_c, 0, 86, 60
2, 36158, Note_on_c, 0, 86, 0
2, 36168, Note_on_c, 0, 67, 0
2, 36173, Control_c, 0, 64, 127
2, 36181, Note_on_c, 0, 83, 39
2, 36184, Note_on_c, 0, 62, 0
2, 36184, Note_on_c, 0, 81, 27
2, 36185, Note_on_c, 0, 64, 0
2, 36188, Note_on_c, 0, 81, 0
2, 36188, Note_on_c, 0, 83, 0
2, 36191, Control_c, 0, 64, 0
2, 36199, Control_c, 0, 64, 127
2, 36200, Note_on_c, 0, 81, 62
2, 36211, Note_on_c, 0, 81, 0
2, 36215, Note_on_c, 0, 79, 51
2, 36224, Note_on_c, 0, 79, 0
2, 36239, Note_on_c, 0, 65, 35
2, 36240, Note_on_c, 0, 76, 37
2, 36240, Note_on_c, 0, 55, 32
2, 36241, Note_on_c, 0, 57, 40
2, 36242, Control_c, 0, 64, 0
2, 36243, Note_on_c, 0, 60, 36
2, 36256, Control_c, 0, 64, 127
2, 36278, Note_on_c, 0, 76, 0
2, 36278, Note_on_c, 0, 71, 37
2, 36282, Note_on_c, 0, 65, 0
2, 36285, Note_on_c, 0, 60, 0
2, 36297, Note_on_c, 0, 71, 0
2, 36298, Note_on_c, 0, 55, 0
2, 36298, Note_on_c, 0, 57, 0
2, 36307, Note_on_c, 0, 71, 38
2, 36328, Note_on_c, 0, 71, 0
2, 36332, Note_on_c, 0, 69, 76
2, 36350, Note_on_c, 0, 69, 0
2, 36358, Note_on_c, 0, 64, 31
2, 36359, Note_on_c, 0, 69, 74
2, 36359, Note_on_c, 0, 53, 36
2, 36360, Note_on_c, 0, 59, 36
2, 36369, Note_on_c, 0, 64, 0
2, 36370, Note_on_c, 0, 59, 0
2, 36378, Note_on_c, 0, 53, 0
2, 36390, Note_on_c, 0, 67, 69
2, 36391, Note_on_c, 0, 69, 0
2, 36402, Note_on_c, 0, 67, 0
2, 36420, Note_on_c, 0, 67, 73
2, 36435, Note_on_c, 0, 67, 0
2, 36449, Note_on_c, 0, 64, 68
2, 36470, Note_on_c, 0, 64, 0
2, 36481, Note_on_c, 0, 43, 30
2, 36481, Note_on_c, 0, 64, 45
2, 36482, Control_c, 0, 64, 0
2, 36483, Note_on_c, 0, 52, 42
2, 36483, Note_on_c, 0, 36, 34
2, 36501, Control_c, 0, 64, 127
2, 36504, Note_on_c, 0, 36, 0
2, 36509, Note_on_c, 0, 43, 0
2, 36520, Note_on_c, 0, 52, 0
2, 36523, Note_on_c, 0, 64, 0
2, 36602, Note_on_c, 0, 64, 43
2, 36605, Note_on_c, 0, 59, 44
2, 36605, Note_on_c, 0, 60, 37
2, 36628, Note_on_c, 0, 59, 0
2, 36629, Note_on_c, 0, 64, 0
2, 36632, Note_on_c, 0, 60, 0
2, 36642, Note_on_c, 0, 83, 87
2, 36643, Note_on_c, 0, 88, 85
2, 36643, Note_on_c, 0, 60, 82
2, 36643, Note_on_c, 0, 64, 81
2, 36643, Note_on_c, 0, 76, 74
2, 36644, Note_on_c, 0, 59, 81
2, 36660, Note_on_c, 0, 76, 0
2, 36662, Note_on_c, 0, 83, 0
2, 36664, Note_on_c, 0, 64, 0
2, 36664, Note_on_c, 0, 88, 0
2, 36664, Note_on_c, 0, 59, 0
2, 36665, Note_on_c, 0, 60, 0
2, 36681, Note_on_c, 0, 84, 85
2, 36681, Note_on_c, 0, 77, 88
2, 36681, Note_on_c, 0, 89, 87
2, 36682, Note_on_c, 0, 60, 91
2, 36682, Note_on_c, 0, 64, 87
2, 36683, Note_on_c, 0, 59, 77
2, 36699, Note_on_c, 0, 59, 0
2, 36699, Note_on_c, 0, 84, 0
2, 36700, Note_on_c, 0, 77, 0
2, 36701, Note_on_c, 0, 89, 0
2, 36703, Note_on_c, 0, 60, 0
2, 36703, Note_on_c, 0, 64, 0
2, 36719, Note_on_c, 0, 91, 82
2, 36720, Note_on_c, 0, 84, 78
2, 36720, Note_on_c, 0, 60, 72
2, 36720, Note_on_c, 0, 65, 83
2, 36721, Note_on_c, 0, 57, 73
2, 36721, Note_on_c, 0, 79, 69
2, 36721, Note_on_c, 0, 55, 72
2, 36723, Note_on_c, 0, 58, 64
2, 36724, Control_c, 0, 64, 0
2, 36726, Note_on_c, 0, 58, 0
2, 36739, Control_c, 0, 64, 127
2, 36749, Note_on_c, 0, 65, 0
2, 36751, Note_on_c, 0, 60, 0
2, 36753, Note_on_c, 0, 57, 0
2, 36754, Note_on_c, 0, 55, 0
2, 36758, Note_on_c, 0, 91, 0
2, 36760, Note_on_c, 0, 84, 0
2, 36762, Note_on_c, 0, 79, 0
2, 36780, Note_on_c, 0, 43, 83
2, 36780, Note_on_c, 0, 55, 91
2, 36818, Note_on_c, 0, 43, 0
2, 36819, Note_on_c, 0, 55, 0
2, 36837, Note_on_c, 0, 67, 51
2, 36839, Note_on_c, 0, 60, 53
2, 36839, Note_on_c, 0, 65, 24
2, 36839, Note_on_c, 0, 57, 63
2, 36839, Note_on_c, 0, 55, 64
2, 36840, Note_on_c, 0, 43, 57
2, 36847, Note_on_c, 0, 55, 0
2, 36855, Note_on_c, 0, 43, 0
2, 36879, Note_on_c, 0, 60, 0
2, 36879, Note_on_c, 0, 57, 0
2, 36882, Note_on_c, 0, 67, 0
2, 36885, Note_on_c, 0, 65, 0
2, 36898, Note_on_c, 0, 43, 55
2, 36898, Note_on_c, 0, 31, 58
2, 36905, Note_on_c, 0, 43, 0
2, 36911, Note_on_c, 0, 31, 0
2, 36959, Note_on_c, 0, 67, 42
2, 36960, Note_on_c, 0, 59, 47
2, 36961, Note_on_c, 0, 62, 45
2, 36961, Note_on_c, 0, 36, 60
2, 36962, Note_on_c, 0, 24, 42
2, 36963, Note_on_c, 0, 64, 38
2, 36966, Control_c, 0, 64, 0
2, 36985, Control_c, 0, 64, 127
2, 36994, Note_on_c, 0, 59, 0
2, 36997, Note_on_c, 0, 24, 0
2, 37001, Note_on_c, 0, 36, 0
2, 37001, Note_on_c, 0, 62, 0
2, 37004, Note_on_c, 0, 64, 0
2, 37017, Note_on_c, 0, 67, 0
2, 37081, Note_on_c, 0, 81, 55
2, 37083, Note_on_c, 0, 72, 34
2, 37084, Note_on_c, 0, 64, 38
2, 37084, Note_on_c, 0, 76, 38
2, 37084, Note_on_c, 0, 67, 35
2, 37084, Note_on_c, 0, 62, 26
2, 37110, Note_on_c, 0, 81, 0
2, 37115, Note_on_c, 0, 76, 0
2, 37117, Note_on_c, 0, 67, 0
2, 37119, Note_on_c, 0, 64, 0
2, 37120, Note_on_c, 0, 72, 0
2, 37123, Note_on_c, 0, 62, 0
2, 37143, Note_on_c, 0, 79, 39
2, 37147, Note_on_c, 0, 69, 45
2, 37161, Note_on_c, 0, 69, 0
2, 37161, Note_on_c, 0, 77, 1
2, 37169, Note_on_c, 0, 79, 0
2, 37191, Note_on_c, 0, 77, 0
2, 37202, Note_on_c, 0, 79, 33
2, 37203, Note_on_c, 0, 69, 40
2, 37204, Note_on_c, 0, 77, 34
2, 37204, Note_on_c, 0, 72, 39
2, 37205, Note_on_c, 0, 67, 40
2, 37217, Control_c, 0, 64, 0
2, 37229, Control_c, 0, 64, 127
2, 37250, Note_on_c, 0, 72, 0
2, 37251, Note_on_c, 0, 67, 0
2, 37253, Note_on_c, 0, 79, 0
2, 37256, Note_on_c, 0, 77, 0
2, 37259, Note_on_c, 0, 69, 0
2, 37259, Note_on_c, 0, 55, 51
2, 37270, Note_on_c, 0, 55, 0
2, 37320, Note_on_c, 0, 67, 31
2, 37322, Note_on_c, 0, 60, 37
2, 37322, Note_on_c, 0, 65, 14
2, 37322, Note_on_c, 0, 57, 40
2, 37323, Note_on_c, 0, 55, 26
2, 37323, Note_on_c, 0, 43, 27
2, 37326, Control_c, 0, 64, 0
2, 37333, Control_c, 0, 64, 127
2, 37345, Note_on_c, 0, 43, 0
2, 37345, Note_on_c, 0, 55, 0
2, 37381, Note_on_c, 0, 57, 0
2, 37381, Note_on_c, 0, 43, 42
2, 37382, Note_on_c, 0, 60, 0
2, 37386, Note_on_c, 0, 65, 0
2, 37398, Note_on_c, 0, 67, 0
2, 37429, Note_on_c, 0, 43, 0
2, 37434, Note_on_c, 0, 36, 42
2, 37434, Control_c, 0, 64, 0
2, 37447, Control_c, 0, 64, 127
2, 37451, Note_on_c, 0, 36, 0
2, 37500, Note_on_c, 0, 69, 50
2, 37500, Note_on_c, 0, 84, 57
2, 37501, Note_on_c, 0, 64, 52
2, 37501, Note_on_c, 0, 58, 46
2, 37501, Note_on_c, 0, 79, 58
2, 37501, Note_on_c, 0, 74, 44
2, 37552, Note_on_c, 0, 84, 0
2, 37555, Note_on_c, 0, 82, 57
2, 37573, Note_on_c, 0, 79, 0
2, 37579, Note_on_c, 0, 82, 0
2, 37585, Note_on_c, 0, 69, 0
2, 37586, Note_on_c, 0, 64, 0
2, 37594, Note_on_c, 0, 58, 0
2, 37600, Note_on_c, 0, 74, 0
2, 37614, Note_on_c, 0, 81, 57
2, 37626, Note_on_c, 0, 81, 0
2, 37667, Note_on_c, 0, 79, 44
2, 37668, Note_on_c, 0, 69, 47
2, 37671, Note_on_c, 0, 65, 30
2, 37675, Control_c, 0, 64, 0
2, 37692, Control_c, 0, 64, 127
2, 37725, Note_on_c, 0, 55, 53
2, 37727, Note_on_c, 0, 65, 0
2, 37737, Note_on_c, 0, 55, 0
2, 37745, Note_on_c, 0, 79, 0
2, 37748, Note_on_c, 0, 69, 0
2, 37783, Note_on_c, 0, 43, 50
2, 37881, Note_on_c, 0, 43, 0
2, 37908, Note_on_c, 0, 44, 49
2, 37912, Control_c, 0, 64, 0
2, 37923, Control_c, 0, 64, 127
2, 37930, Note_on_c, 0, 44, 0
2, 37967, Note_on_c, 0, 74, 48
2, 37968, Note_on_c, 0, 68, 53
2, 37969, Note_on_c, 0, 59, 49
2, 37969, Note_on_c, 0, 65, 60
2, 37991, Note_on_c, 0, 59, 0
2, 37996, Note_on_c, 0, 74, 0
2, 38000, Note_on_c, 0, 65, 0
2, 38016, Note_on_c, 0, 68, 0
2, 38096, Note_on_c, 0, 72, 70
2, 38097, Note_on_c, 0, 67, 71
2, 38098, Note_on_c, 0, 64, 61
2, 38098, Note_on_c, 0, 55, 51
2, 38102, Note_on_c, 0, 55, 0
2, 38114, Note_on_c, 0, 72, 0
2, 38116, Note_on_c, 0, 67, 0
2, 38120, Note_on_c, 0, 64, 0
2, 38153, Note_on_c, 0, 69, 60
2, 38153, Note_on_c, 0, 42, 46
2, 38154, Note_on_c, 0, 57, 62
2, 38154, Note_on_c, 0, 64, 58
2, 38154, Control_c, 0, 64, 0
2, 38155, Note_on_c, 0, 52, 37
2, 38165, Note_on_c, 0, 57, 0
2, 38165, Control_c, 0, 64, 127
2, 38169, Note_on_c, 0, 42, 0
2, 38172, Note_on_c, 0, 52, 0
2, 38172, Note_on_c, 0, 64, 0
2, 38174, Note_on_c, 0, 69, 0
2, 38210, Note_on_c, 0, 69, 110
2, 38210, Note_on_c, 0, 76, 80
2, 38211, Note_on_c, 0, 54, 68
2, 38212, Note_on_c, 0, 60, 68
2, 38212, Note_on_c, 0, 64, 69
2, 38244, Note_on_c, 0, 64, 0
2, 38244, Note_on_c, 0, 69, 0
2, 38252, Note_on_c, 0, 76, 0
2, 38254, Note_on_c, 0, 54, 0
2, 38260, Note_on_c, 0, 60, 0
2, 38268, Note_on_c, 0, 72, 76
2, 38269, Note_on_c, 0, 63, 64
2, 38269, Note_on_c, 0, 68, 67
2, 38270, Note_on_c, 0, 60, 41
2, 38270, Note_on_c, 0, 65, 71
2, 38271, Note_on_c, 0, 53, 45
2, 38271, Note_on_c, 0, 56, 46
2, 38274, Control_c, 0, 64, 0
2, 38287, Control_c, 0, 64, 127
2, 38294, Note_on_c, 0, 65, 0
2, 38298, Note_on_c, 0, 68, 0
2, 38298, Note_on_c, 0, 72, 0
2, 38300, Note_on_c, 0, 63, 0
2, 38325, Note_on_c, 0, 79, 64
2, 38326, Note_on_c, 0, 72, 70
2, 38326, Note_on_c, 0, 64, 56
2, 38327, Note_on_c, 0, 68, 40
2, 38340, Note_on_c, 0, 64, 0
2, 38350, Note_on_c, 0, 79, 0
2, 38352, Note_on_c, 0, 68, 0
2, 38353, Note_on_c, 0, 72, 0
2, 38358, Note_on_c, 0, 77, 56
2, 38361, Note_on_c, 0, 62, 43
2, 38369, Note_on_c, 0, 60, 0
2, 38370, Note_on_c, 0, 62, 0
2, 38375, Note_on_c, 0, 53, 0
2, 38377, Note_on_c, 0, 77, 0
2, 38380, Note_on_c, 0, 56, 0
2, 38393, Note_on_c, 0, 62, 41
2, 38393, Note_on_c, 0, 59, 46
2, 38393, Note_on_c, 0, 71, 43
2, 38394, Note_on_c, 0, 67, 43
2, 38395, Note_on_c, 0, 52, 48
2, 38398, Control_c, 0, 64, 0
2, 38420, Control_c, 0, 64, 127
2, 38439, Note_on_c, 0, 67, 0
2, 38450, Note_on_c, 0, 62, 0
2, 38451, Note_on_c, 0, 71, 0
2, 38451, Note_on_c, 0, 67, 40
2, 38456, Note_on_c, 0, 59, 0
2, 38491, Note_on_c, 0, 67, 0
2, 38510, Note_on_c, 0, 67, 58
2, 38511, Note_on_c, 0, 62, 27
2, 38512, Note_on_c, 0, 59, 33
2, 38532, Note_on_c, 0, 67, 0
2, 38549, Note_on_c, 0, 52, 0
2, 38552, Note_on_c, 0, 59, 0
2, 38555, Note_on_c, 0, 62, 0
2, 38602, Control_c, 0, 64, 0
2, 38603, Note_on_c, 0, 84, 88
2, 38603, Note_on_c, 0, 76, 77
2, 38604, Note_on_c, 0, 73, 84
2, 38604, Note_on_c, 0, 79, 71
2, 38604, Note_on_c, 0, 72, 91
2, 38605, Note_on_c, 0, 82, 53
2, 38606, Control_c, 0, 64, 127
2, 38614, Note_on_c, 0, 84, 0
2, 38617, Note_on_c, 0, 79, 0
2, 38617, Note_on_c, 0, 76, 0
2, 38617, Note_on_c, 0, 82, 0
2, 38620, Note_on_c, 0, 72, 0
2, 38624, Note_on_c, 0, 73, 0
2, 38627, Note_on_c, 0, 82, 34
2, 38632, Note_on_c, 0, 82, 0
2, 38637, Note_on_c, 0, 69, 66
2, 38638, Note_on_c, 0, 73, 48
2, 38638, Note_on_c, 0, 81, 60
2, 38639, Note_on_c, 0, 70, 70
2, 38640, Note_on_c, 0, 76, 42
2, 38641, Control_c, 0, 64, 0
2, 38651, Note_on_c, 0, 81, 0
2, 38653, Note_on_c, 0, 76, 0
2, 38653, Note_on_c, 0, 73, 0
2, 38654, Note_on_c, 0, 70, 0
2, 38655, Note_on_c, 0, 69, 0
2, 38657, Control_c, 0, 64, 127
2, 38671, Note_on_c, 0, 78, 53
2, 38673, Note_on_c, 0, 73, 45
2, 38673, Control_c, 0, 64, 0
2, 38673, Note_on_c, 0, 70, 55
2, 38674, Note_on_c, 0, 67, 42
2, 38674, Note_on_c, 0, 66, 51
2, 38678, Note_on_c, 0, 67, 0
2, 38680, Note_on_c, 0, 70, 0
2, 38681, Note_on_c, 0, 78, 0
2, 38681, Note_on_c, 0, 73, 0
2, 38681, Note_on_c, 0, 66, 0
2, 38717, Note_on_c, 0, 75, 51
2, 38718, Note_on_c, 0, 70, 53
2, 38718, Note_on_c, 0, 64, 49
2, 38718, Note_on_c, 0, 63, 60
2, 38720, Note_on_c, 0, 67, 35
2, 38722, Note_on_c, 0, 75, 0
2, 38723, Note_on_c, 0, 67, 0
2, 38724, Control_c, 0, 64, 127
2, 38725, Note_on_c, 0, 70, 0
2, 38725, Note_on_c, 0, 64, 0
2, 38725, Note_on_c, 0, 63, 0
2, 38743, Control_c, 0, 64, 0
2, 38755, Note_on_c, 0, 60, 65
2, 38756, Note_on_c, 0, 64, 62
2, 38757, Note_on_c, 0, 72, 42
2, 38757, Note_on_c, 0, 61, 38
2, 38759, Note_on_c, 0, 60, 0
2, 38760, Note_on_c, 0, 64, 0
2, 38760, Note_on_c, 0, 72, 0
2, 38765, Note_on_c, 0, 61, 0
2, 38797, Note_on_c, 0, 69, 57
2, 38798, Note_on_c, 0, 61, 44
2, 38799, Note_on_c, 0, 57, 58
2, 38799, Note_on_c, 0, 64, 53
2, 38800, Note_on_c, 0, 58, 26
2, 38810, Control_c, 0, 64, 127
2, 38816, Note_on_c, 0, 69, 0
2, 38817, Note_on_c, 0, 57, 0
2, 38825, Note_on_c, 0, 58, 0
2, 38825, Note_on_c, 0, 64, 0
2, 38829, Note_on_c, 0, 61, 0
2, 38839, Note_on_c, 0, 58, 69
2, 38840, Note_on_c, 0, 51, 67
2, 38840, Note_on_c, 0, 61, 50
2, 38842, Control_c, 0, 64, 0
2, 38843, Note_on_c, 0, 63, 29
2, 38844, Note_on_c, 0, 58, 0
2, 38846, Note_on_c, 0, 63, 0
2, 38847, Note_on_c, 0, 51, 0
2, 38849, Note_on_c, 0, 61, 0
2, 38854, Control_c, 0, 64, 127
2, 38860, Note_on_c, 0, 39, 49
2, 38861, Note_on_c, 0, 51, 32
2, 38865, Note_on_c, 0, 51, 0
2, 38869, Note_on_c, 0, 39, 0
2, 38880, Note_on_c, 0, 38, 36
2, 38882, Note_on_c, 0, 50, 36
2, 38882, Note_on_c, 0, 64, 57
2, 38884, Note_on_c, 0, 57, 71
2, 38884, Note_on_c, 0, 60, 60
2, 38884, Control_c, 0, 64, 0
2, 38885, Note_on_c, 0, 53, 39
2, 38911, Control_c, 0, 64, 127
2, 38935, Note_on_c, 0, 53, 0
2, 38937, Note_on_c, 0, 60, 0
2, 38938, Note_on_c, 0, 64, 0
2, 38938, Note_on_c, 0, 50, 0
2, 38939, Note_on_c, 0, 57, 0
2, 38940, Note_on_c, 0, 62, 61
2, 38942, Note_on_c, 0, 50, 38
2, 38944, Note_on_c, 0, 53, 28
2, 38950, Note_on_c, 0, 53, 0
2, 38972, Note_on_c, 0, 50, 0
2, 38992, Note_on_c, 0, 62, 0
2, 39000, Note_on_c, 0, 50, 34
2, 39001, Note_on_c, 0, 57, 53
2, 39002, Note_on_c, 0, 53, 28
2, 39006, Control_c, 0, 64, 0
2, 39020, Control_c, 0, 64, 127
2, 39043, Note_on_c, 0, 38, 0
2, 39048, Note_on_c, 0, 50, 0
2, 39051, Note_on_c, 0, 40, 73
2, 39052, Control_c, 0, 64, 0
2, 39062, Control_c, 0, 64, 127
2, 39082, Note_on_c, 0, 57, 0
2, 39089, Note_on_c, 0, 53, 0
2, 39109, Note_on_c, 0, 55, 68
2, 39111, Note_on_c, 0, 40, 0
2, 39112, Note_on_c, 0, 56, 69
2, 39112, Note_on_c, 0, 41, 75
2, 39120, Control_c, 0, 64, 0
2, 39122, Note_on_c, 0, 57, 63
2, 39123, Note_on_c, 0, 56, 0
2, 39131, Note_on_c, 0, 55, 0
2, 39145, Control_c, 0, 64, 127
2, 39147, Note_on_c, 0, 57, 0
2, 39152, Note_on_c, 0, 29, 68
2, 39152, Note_on_c, 0, 60, 78
2, 39155, Control_c, 0, 64, 0
2, 39164, Control_c, 0, 64, 127
2, 39219, Note_on_c, 0, 29, 0
2, 39222, Note_on_c, 0, 60, 0
2, 39223, Note_on_c, 0, 41, 0
2, 39239, Note_on_c, 0, 43, 45
2, 39239, Note_on_c, 0, 60, 56
2, 39240, Note_on_c, 0, 31, 37
2, 39240, Note_on_c, 0, 57, 63
2, 39240, Note_on_c, 0, 53, 47
2, 39242, Control_c, 0, 64, 0
2, 39265, Control_c, 0, 64, 127
2, 39296, Note_on_c, 0, 43, 0
2, 39302, Note_on_c, 0, 31, 0
2, 39318, Note_on_c, 0, 60, 0
2, 39333, Note_on_c, 0, 60, 51
2, 39335, Note_on_c, 0, 53, 0
2, 39337, Note_on_c, 0, 57, 0
2, 39343, Note_on_c, 0, 60, 0
2, 39367, Note_on_c, 0, 60, 45
2, 39367, Control_c, 0, 64, 0
2, 39369, Note_on_c, 0, 24, 33
2, 39369, Note_on_c, 0, 36, 37
2, 39370, Note_on_c, 0, 52, 38
2, 39382, Note_on_c, 0, 52, 0
2, 39387, Control_c, 0, 64, 127
2, 39393, Note_on_c, 0, 60, 0
2, 39395, Note_on_c, 0, 24, 0
2, 39399, Note_on_c, 0, 36, 0
2, 39415, Note_on_c, 0, 72, 45
2, 39437, Note_on_c, 0, 72, 0
2, 39446, Note_on_c, 0, 72, 58
2, 39464, Note_on_c, 0, 72, 0
2, 39486, Note_on_c, 0, 72, 55
2, 39488, Note_on_c, 0, 64, 47
2, 39488, Note_on_c, 0, 67, 48
2, 39491, Note_on_c, 0, 60, 20
2, 39518, Note_on_c, 0, 72, 0
2, 39527, Note_on_c, 0, 72, 57
2, 39546, Note_on_c, 0, 72, 0
2, 39560, Note_on_c, 0, 72, 55
2, 39575, Note_on_c, 0, 72, 0
2, 39586, Note_on_c, 0, 72, 53
2, 39602, Note_on_c, 0, 72, 0
2, 39605, Note_on_c, 0, 60, 0
2, 39605, Note_on_c, 0, 64, 0
2, 39607, Note_on_c, 0, 67, 0
2, 39613, Note_on_c, 0, 72, 58
2, 39719, Note_on_c, 0, 65, 40
2, 39721, Note_on_c, 0, 55, 33
2, 39722, Note_on_c, 0, 60, 28
2, 39722, Note_on_c, 0, 43, 27
2, 39725, Control_c, 0, 64, 0
2, 39738, Control_c, 0, 64, 127
2, 39743, Note_on_c, 0, 43, 0
2, 39746, Note_on_c, 0, 55, 0
2, 39776, Note_on_c, 0, 60, 0
2, 39781, Note_on_c, 0, 65, 0
2, 39781, Note_on_c, 0, 43, 31
2, 39798, Note_on_c, 0, 72, 0
2, 39836, Note_on_c, 0, 36, 30
2, 39836, Note_on_c, 0, 67, 36
2, 39837, Note_on_c, 0, 64, 38
2, 39837, Note_on_c, 0, 62, 30
2, 39839, Note_on_c, 0, 52, 30
2, 39840, Control_c, 0, 64, 0
2, 39853, Control_c, 0, 64, 127
2, 39871, Note_on_c, 0, 62, 0
2, 39881, Note_on_c, 0, 67, 0
2, 39882, Note_on_c, 0, 64, 0
2, 39885, Note_on_c, 0, 52, 0
2, 39894, Note_on_c, 0, 72, 82
2, 39922, Note_on_c, 0, 72, 0
2, 39943, Note_on_c, 0, 36, 0
2, 39955, Note_on_c, 0, 52, 40
2, 39955, Note_on_c, 0, 72, 79
2, 39972, Note_on_c, 0, 43, 0
2, 39980, Note_on_c, 0, 52, 0
2, 39993, Note_on_c, 0, 72, 0
2, 40017, Note_on_c, 0, 72, 64
2, 40050, Note_on_c, 0, 72, 0
2, 40073, Note_on_c, 0, 51, 50
2, 40073, Note_on_c, 0, 72, 54
2, 40074, Note_on_c, 0, 61, 40
2, 40074, Note_on_c, 0, 68, 43
2, 40074, Note_on_c, 0, 65, 62
2, 40075, Note_on_c, 0, 60, 30
2, 40080, Control_c, 0, 64, 0
2, 40098, Control_c, 0, 64, 127
2, 40125, Note_on_c, 0, 51, 0
2, 40136, Note_on_c, 0, 51, 48
2, 40145, Note_on_c, 0, 60, 0
2, 40156, Note_on_c, 0, 65, 0
2, 40160, Note_on_c, 0, 68, 0
2, 40161, Note_on_c, 0, 61, 0
2, 40193, Note_on_c, 0, 61, 37
2, 40193, Note_on_c, 0, 64, 56
2, 40194, Note_on_c, 0, 67, 40
2, 40197, Note_on_c, 0, 60, 28
2, 40243, Note_on_c, 0, 60, 0
2, 40243, Note_on_c, 0, 61, 0
2, 40257, Note_on_c, 0, 61, 40
2, 40259, Note_on_c, 0, 51, 0
2, 40285, Note_on_c, 0, 61, 0
2, 40293, Note_on_c, 0, 64, 0
2, 40295, Control_c, 0, 64, 127
2, 40296, Note_on_c, 0, 67, 0
2, 40307, Control_c, 0, 64, 0
2, 40311, Note_on_c, 0, 72, 0
2, 40319, Note_on_c, 0, 44, 36
2, 40320, Control_c, 0, 64, 0
2, 40322, Note_on_c, 0, 44, 43
2, 40324, Control_c, 0, 64, 127
2, 40348, Note_on_c, 0, 44, 0
2, 40441, Note_on_c, 0, 63, 25
2, 40445, Note_on_c, 0, 60, 26
2, 40448, Note_on_c, 0, 58, 32
2, 40462, Note_on_c, 0, 60, 0
2, 40467, Note_on_c, 0, 63, 0
2, 40468, Note_on_c, 0, 58, 0
2, 40487, Note_on_c, 0, 44, 0
2, 40533, Note_on_c, 0, 72, 43
2, 40539, Note_on_c, 0, 72, 0
2, 40549, Note_on_c, 0, 73, 69
2, 40567, Note_on_c, 0, 73, 0
2, 40577, Note_on_c, 0, 75, 92
2, 40580, Note_on_c, 0, 61, 60
2, 40583, Note_on_c, 0, 53, 53
2, 40584, Control_c, 0, 64, 0
2, 40585, Note_on_c, 0, 56, 40
2, 40585, Note_on_c, 0, 51, 29
2, 40618, Control_c, 0, 64, 127
2, 40637, Note_on_c, 0, 53, 0
2, 40640, Note_on_c, 0, 61, 0
2, 40657, Note_on_c, 0, 56, 0
2, 40695, Note_on_c, 0, 61, 26
2, 40696, Note_on_c, 0, 75, 0
2, 40698, Note_on_c, 0, 56, 30
2, 40699, Note_on_c, 0, 53, 32
2, 40724, Note_on_c, 0, 61, 0
2, 40726, Note_on_c, 0, 53, 0
2, 40727, Note_on_c, 0, 56, 0
2, 40736, Note_on_c, 0, 51, 0
2, 40774, Note_on_c, 0, 75, 20
2, 40778, Note_on_c, 0, 75, 0
2, 40791, Note_on_c, 0, 75, 42
2, 40796, Note_on_c, 0, 75, 0
2, 40804, Note_on_c, 0, 75, 59
2, 40813, Note_on_c, 0, 75, 0
2, 40816, Control_c, 0, 64, 0
2, 40819, Note_on_c, 0, 80, 77
2, 40820, Note_on_c, 0, 44, 39
2, 40821, Note_on_c, 0, 51, 44
2, 40831, Control_c, 0, 64, 127
2, 40840, Note_on_c, 0, 44, 0
2, 40844, Note_on_c, 0, 51, 0
2, 40856, Note_on_c, 0, 75, 51
2, 40857, Note_on_c, 0, 80, 0
2, 40866, Note_on_c, 0, 75, 0
2, 40878, Note_on_c, 0, 75, 33
2, 40889, Note_on_c, 0, 75, 0
2, 40900, Note_on_c, 0, 75, 43
2, 40916, Note_on_c, 0, 75, 0
2, 40933, Note_on_c, 0, 63, 29
2, 40933, Note_on_c, 0, 75, 40
2, 40936, Note_on_c, 0, 60, 33
2, 40936, Note_on_c, 0, 58, 40
2, 40974, Note_on_c, 0, 60, 0
2, 40976, Note_on_c, 0, 58, 0
2, 40976, Note_on_c, 0, 75, 0
2, 40977, Note_on_c, 0, 63, 0
2, 41049, Note_on_c, 0, 61, 21
2, 41050, Note_on_c, 0, 51, 28
2, 41051, Note_on_c, 0, 56, 31
2, 41051, Note_on_c, 0, 53, 41
2, 41053, Control_c, 0, 64, 0
2, 41069, Control_c, 0, 64, 127
2, 41127, Note_on_c, 0, 53, 0
2, 41134, Note_on_c, 0, 61, 0
2, 41139, Note_on_c, 0, 56, 0
2, 41227, Note_on_c, 0, 51, 0
2, 41231, Note_on_c, 0, 87, 72
2, 41239, Note_on_c, 0, 75, 45
2, 41255, Note_on_c, 0, 87, 0
2, 41260, Note_on_c, 0, 75, 0
2, 41290, Note_on_c, 0, 84, 55
2, 41292, Note_on_c, 0, 72, 44
2, 41294, Note_on_c, 0, 44, 25
2, 41294, Control_c, 0, 64, 0
2, 41294, Note_on_c, 0, 51, 25
2, 41309, Control_c, 0, 64, 127
2, 41318, Note_on_c, 0, 44, 0
2, 41320, Note_on_c, 0, 51, 0
2, 41377, Note_on_c, 0, 84, 0
2, 41387, Note_on_c, 0, 72, 0
2, 41405, Note_on_c, 0, 63, 26
2, 41410, Note_on_c, 0, 60, 26
2, 41412, Note_on_c, 0, 58, 32
2, 41447, Note_on_c, 0, 60, 0
2, 41447, Note_on_c, 0, 63, 0
2, 41455, Note_on_c, 0, 58, 0
2, 41485, Note_on_c, 0, 84, 113
2, 41529, Note_on_c, 0, 61, 27
2, 41530, Note_on_c, 0, 56, 33
2, 41531, Note_on_c, 0, 53, 38
2, 41532, Note_on_c, 0, 51, 35
2, 41533, Control_c, 0, 64, 0
2, 41550, Control_c, 0, 64, 127
2, 41578, Note_on_c, 0, 82, 60
2, 41583, Note_on_c, 0, 84, 0
2, 41591, Note_on_c, 0, 82, 0
2, 41611, Note_on_c, 0, 84, 108
2, 41622, Note_on_c, 0, 61, 0
2, 41622, Note_on_c, 0, 56, 0
2, 41624, Note_on_c, 0, 53, 0
2, 41651, Note_on_c, 0, 61, 38
2, 41654, Note_on_c, 0, 53, 36
2, 41655, Note_on_c, 0, 56, 25
2, 41657, Note_on_c, 0, 51, 0
2, 41660, Note_on_c, 0, 56, 0
2, 41660, Note_on_c, 0, 61, 0
2, 41662, Note_on_c, 0, 53, 0
2, 41697, Note_on_c, 0, 82, 57
2, 41698, Note_on_c, 0, 84, 0
2, 41707, Note_on_c, 0, 82, 0
2, 41730, Note_on_c, 0, 84, 94
2, 41755, Note_on_c, 0, 84, 0
2, 41759, Note_on_c, 0, 82, 77
2, 41761, Note_on_c, 0, 51, 55
2, 41762, Note_on_c, 0, 44, 50
2, 41765, Control_c, 0, 64, 0
2, 41784, Control_c, 0, 64, 127
2, 41793, Note_on_c, 0, 82, 0
2, 41800, Note_on_c, 0, 51, 0
2, 41800, Note_on_c, 0, 80, 76
2, 41801, Note_on_c, 0, 44, 0
2, 41885, Note_on_c, 0, 63, 14
2, 41920, Note_on_c, 0, 63, 0
2, 41953, Note_on_c, 0, 75, 46
2, 41964, Note_on_c, 0, 75, 0
2, 41964, Note_on_c, 0, 80, 0
2, 42008, Note_on_c, 0, 45, 54
2, 42011, Control_c, 0, 64, 0
2, 42020, Control_c, 0, 64, 127
2, 42072, Note_on_c, 0, 59, 59
2, 42073, Note_on_c, 0, 63, 56
2, 42073, Note_on_c, 0, 54, 48
2, 42073, Note_on_c, 0, 66, 45
2, 42076, Note_on_c, 0, 59, 0
2, 42077, Note_on_c, 0, 54, 0
2, 42078, Note_on_c, 0, 63, 0
2, 42079, Note_on_c, 0, 66, 0
2, 42083, Control_c, 0, 64, 0
2, 42136, Note_on_c, 0, 59, 37
2, 42137, Note_on_c, 0, 66, 32
2, 42137, Note_on_c, 0, 63, 33
2, 42137, Note_on_c, 0, 54, 35
2, 42138, Control_c, 0, 64, 127
2, 42175, Note_on_c, 0, 45, 0
2, 42185, Note_on_c, 0, 54, 0
2, 42189, Note_on_c, 0, 63, 0
2, 42190, Note_on_c, 0, 66, 0
2, 42190, Note_on_c, 0, 45, 38
2, 42196, Note_on_c, 0, 59, 0
2, 42203, Note_on_c, 0, 45, 0
2, 42252, Note_on_c, 0, 63, 33
2, 42254, Note_on_c, 0, 58, 49
2, 42255, Note_on_c, 0, 55, 26
2, 42255, Control_c, 0, 64, 0
2, 42255, Note_on_c, 0, 44, 25
2, 42256, Note_on_c, 0, 60, 27
2, 42256, Note_on_c, 0, 51, 29
2, 42270, Control_c, 0, 64, 127
2, 42278, Note_on_c, 0, 55, 0
2, 42283, Note_on_c, 0, 60, 0
2, 42291, Note_on_c, 0, 58, 0
2, 42293, Note_on_c, 0, 44, 0
2, 42296, Note_on_c, 0, 51, 0
2, 42298, Note_on_c, 0, 63, 0
2, 42375, Note_on_c, 0, 63, 67
2, 42375, Note_on_c, 0, 72, 60
2, 42375, Note_on_c, 0, 68, 60
2, 42376, Note_on_c, 0, 56, 33
2, 42399, Note_on_c, 0, 72, 0
2, 42418, Note_on_c, 0, 68, 0
2, 42429, Note_on_c, 0, 63, 0
2, 42439, Note_on_c, 0, 73, 75
2, 42464, Note_on_c, 0, 73, 0
2, 42467, Note_on_c, 0, 56, 0
2, 42544, Control_c, 0, 64, 0
2, 42544, Note_on_c, 0, 43, 66
2, 42551, Control_c, 0, 64, 127
2, 42554, Note_on_c, 0, 43, 0
2, 42603, Note_on_c, 0, 75, 76
2, 42604, Note_on_c, 0, 71, 67
2, 42604, Note_on_c, 0, 68, 73
2, 42604, Note_on_c, 0, 53, 63
2, 42605, Note_on_c, 0, 59, 61
2, 42605, Note_on_c, 0, 64, 84
2, 42605, Note_on_c, 0, 73, 43
2, 42656, Note_on_c, 0, 75, 0
2, 42663, Note_on_c, 0, 64, 0
2, 42665, Note_on_c, 0, 73, 0
2, 42671, Note_on_c, 0, 59, 0
2, 42674, Note_on_c, 0, 71, 0
2, 42677, Note_on_c, 0, 53, 0
2, 42684, Note_on_c, 0, 68, 0
2, 42692, Note_on_c, 0, 75, 70
2, 42698, Note_on_c, 0, 73, 25
2, 42704, Note_on_c, 0, 73, 0
2, 42707, Note_on_c, 0, 75, 0
2, 42725, Note_on_c, 0, 76, 40
2, 42726, Note_on_c, 0, 71, 44
2, 42727, Note_on_c, 0, 64, 56
2, 42728, Note_on_c, 0, 55, 34
2, 42728, Note_on_c, 0, 48, 37
2, 42728, Note_on_c, 0, 59, 33
2, 42730, Control_c, 0, 64, 0
2, 42752, Control_c, 0, 64, 127
2, 42781, Note_on_c, 0, 48, 0
2, 42781, Note_on_c, 0, 64, 0
2, 42782, Note_on_c, 0, 55, 0
2, 42790, Note_on_c, 0, 71, 0
2, 42791, Note_on_c, 0, 59, 0
2, 42801, Note_on_c, 0, 76, 0
2, 42850, Note_on_c, 0, 79, 51
2, 42851, Note_on_c, 0, 74, 40
2, 42852, Note_on_c, 0, 56, 30
2, 42852, Note_on_c, 0, 62, 32
2, 42853, Note_on_c, 0, 67, 39
2, 42854, Note_on_c, 0, 52, 40
2, 42856, Control_c, 0, 64, 0
2, 42878, Control_c, 0, 64, 127
2, 42908, Note_on_c, 0, 52, 0
2, 42910, Note_on_c, 0, 56, 0
2, 42911, Note_on_c, 0, 67, 0
2, 42913, Note_on_c, 0, 62, 0
2, 42916, Note_on_c, 0, 74, 0
2, 42920, Note_on_c, 0, 79, 0
2, 42977, Note_on_c, 0, 81, 62
2, 42978, Note_on_c, 0, 64, 48
2, 42978, Note_on_c, 0, 76, 37
2, 42978, Note_on_c, 0, 72, 56
2, 42978, Note_on_c, 0, 60, 47
2, 42979, Note_on_c, 0, 69, 64
2, 42980, Note_on_c, 0, 59, 28
2, 42981, Control_c, 0, 64, 0
2, 43001, Control_c, 0, 64, 127
2, 43045, Note_on_c, 0, 57, 62
2, 43047, Note_on_c, 0, 69, 0
2, 43047, Note_on_c, 0, 81, 0
2, 43049, Note_on_c, 0, 72, 0
2, 43050, Note_on_c, 0, 59, 0
2, 43052, Note_on_c, 0, 60, 0
2, 43054, Note_on_c, 0, 76, 0
2, 43058, Note_on_c, 0, 57, 0
2, 43059, Note_on_c, 0, 64, 0
2, 43102, Note_on_c, 0, 84, 79
2, 43104, Note_on_c, 0, 60, 60
2, 43104, Note_on_c, 0, 65, 73
2, 43105, Note_on_c, 0, 55, 58
2, 43106, Note_on_c, 0, 81, 58
2, 43106, Note_on_c, 0, 77, 64
2, 43106, Note_on_c, 0, 61, 35
2, 43108, Note_on_c, 0, 72, 52
2, 43109, Control_c, 0, 64, 0
2, 43129, Control_c, 0, 64, 127
2, 43167, Note_on_c, 0, 72, 0
2, 43169, Note_on_c, 0, 65, 0
2, 43172, Note_on_c, 0, 77, 0
2, 43173, Note_on_c, 0, 55, 0
2, 43174, Note_on_c, 0, 60, 0
2, 43176, Note_on_c, 0, 81, 0
2, 43178, Note_on_c, 0, 61, 0
2, 43181, Note_on_c, 0, 84, 0
2, 43224, Note_on_c, 0, 86, 73
2, 43224, Note_on_c, 0, 50, 47
2, 43228, Control_c, 0, 64, 0
2, 43243, Note_on_c, 0, 86, 0
2, 43243, Control_c, 0, 64, 127
2, 43283, Note_on_c, 0, 71, 46
2, 43285, Note_on_c, 0, 64, 28
2, 43286, Note_on_c, 0, 54, 35
2, 43289, Note_on_c, 0, 60, 19
2, 43296, Note_on_c, 0, 64, 0
2, 43301, Note_on_c, 0, 71, 0
2, 43336, Note_on_c, 0, 86, 51
2, 43337, Note_on_c, 0, 80, 46
2, 43350, Note_on_c, 0, 60, 0
2, 43354, Note_on_c, 0, 80, 0
2, 43357, Note_on_c, 0, 86, 0
2, 43367, Note_on_c, 0, 76, 22
2, 43368, Note_on_c, 0, 83, 36
2, 43371, Note_on_c, 0, 76, 0
2, 43373, Note_on_c, 0, 83, 0
2, 43399, Note_on_c, 0, 92, 40
2, 43400, Note_on_c, 0, 98, 61
2, 43419, Note_on_c, 0, 92, 0
2, 43422, Note_on_c, 0, 98, 0
2, 43428, Note_on_c, 0, 88, 40
2, 43431, Note_on_c, 0, 95, 44
2, 43438, Note_on_c, 0, 88, 0
2, 43446, Note_on_c, 0, 95, 0
2, 43455, Note_on_c, 0, 92, 45
2, 43456, Note_on_c, 0, 98, 52
2, 43457, Note_on_c, 0, 60, 32
2, 43474, Note_on_c, 0, 92, 0
2, 43481, Note_on_c, 0, 98, 0
2, 43488, Note_on_c, 0, 95, 36
2, 43493, Note_on_c, 0, 95, 0
2, 43501, Note_on_c, 0, 50, 0
2, 43568, Note_on_c, 0, 50, 38
2, 43588, Note_on_c, 0, 60, 0
2, 43593, Note_on_c, 0, 50, 0
2, 43595, Note_on_c, 0, 54, 0
2, 43627, Note_on_c, 0, 68, 69
2, 43627, Note_on_c, 0, 74, 59
2, 43628, Note_on_c, 0, 54, 57
2, 43628, Note_on_c, 0, 71, 48
2, 43628, Note_on_c, 0, 64, 75
2, 43628, Note_on_c, 0, 60, 73
2, 43629, Note_on_c, 0, 50, 54
2, 43633, Control_c, 0, 64, 0
2, 43644, Control_c, 0, 64, 127
2, 43649, Note_on_c, 0, 50, 0
2, 43649, Note_on_c, 0, 64, 0
2, 43652, Note_on_c, 0, 54, 0
2, 43654, Note_on_c, 0, 68, 0
2, 43655, Note_on_c, 0, 74, 0
2, 43655, Note_on_c, 0, 71, 0
2, 43655, Note_on_c, 0, 60, 0
2, 43691, Note_on_c, 0, 77, 65
2, 43692, Note_on_c, 0, 55, 62
2, 43692, Note_on_c, 0, 69, 77
2, 43692, Note_on_c, 0, 65, 79
2, 43693, Note_on_c, 0, 72, 62
2, 43693, Note_on_c, 0, 60, 68
2, 43698, Control_c, 0, 64, 0
2, 43716, Control_c, 0, 64, 127
2, 43719, Note_on_c, 0, 60, 0
2, 43722, Note_on_c, 0, 55, 0
2, 43733, Note_on_c, 0, 77, 0
2, 43735, Note_on_c, 0, 72, 0
2, 43735, Note_on_c, 0, 69, 0
2, 43738, Note_on_c, 0, 65, 0
2, 43756, Note_on_c, 0, 43, 59
2, 43784, Note_on_c, 0, 43, 0
2, 43818, Note_on_c, 0, 43, 32
2, 43819, Note_on_c, 0, 60, 44
2, 43819, Note_on_c, 0, 57, 45
2, 43819, Note_on_c, 0, 50, 34
2, 43820, Note_on_c, 0, 53, 27
2, 43895, Note_on_c, 0, 43, 0
2, 43897, Note_on_c, 0, 57, 0
2, 43899, Note_on_c, 0, 53, 0
2, 43907, Note_on_c, 0, 50, 0
2, 43910, Note_on_c, 0, 60, 0
2, 43941, Note_on_c, 0, 60, 47
2, 43942, Note_on_c, 0, 53, 36
2, 43942, Note_on_c, 0, 57, 43
2, 43943, Note_on_c, 0, 43, 30
2, 43949, Control_c, 0, 64, 0
2, 43966, Control_c, 0, 64, 127
2, 43994, Note_on_c, 0, 53, 0
2, 43999, Note_on_c, 0, 57, 0
2, 44003, Note_on_c, 0, 60, 0
2, 44052, Note_on_c, 0, 59, 46
2, 44053, Note_on_c, 0, 56, 33
2, 44055, Note_on_c, 0, 53, 32
2, 44063, Control_c, 0, 64, 0
2, 44074, Control_c, 0, 64, 127
2, 44076, Note_on_c, 0, 43, 0
2, 44085, Note_on_c, 0, 53, 0
2, 44100, Note_on_c, 0, 56, 0
2, 44105, Note_on_c, 0, 59, 0
2, 44167, Note_on_c, 0, 36, 36
2, 44169, Note_on_c, 0, 43, 31
2, 44169, Note_on_c, 0, 52, 48
2, 44170, Control_c, 0, 64, 0
2, 44191, Control_c, 0, 64, 127
2, 44204, Note_on_c, 0, 36, 0
2, 44208, Note_on_c, 0, 43, 0
2, 44217, Note_on_c, 0, 52, 0
2, 44291, Note_on_c, 0, 64, 30
2, 44293, Note_on_c, 0, 59, 32
2, 44293, Note_on_c, 0, 60, 35
2, 44332, Note_on_c, 0, 88, 68
2, 44338, Note_on_c, 0, 76, 53
2, 44352, Note_on_c, 0, 76, 0
2, 44355, Note_on_c, 0, 88, 0
2, 44357, Note_on_c, 0, 60, 0
2, 44357, Note_on_c, 0, 64, 0
2, 44360, Note_on_c, 0, 59, 0
2, 44370, Note_on_c, 0, 89, 75
2, 44375, Note_on_c, 0, 77, 57
2, 44397, Note_on_c, 0, 77, 0
2, 44400, Note_on_c, 0, 89, 0
2, 44414, Note_on_c, 0, 55, 32
2, 44415, Note_on_c, 0, 91, 71
2, 44415, Note_on_c, 0, 57, 49
2, 44417, Note_on_c, 0, 60, 40
2, 44418, Note_on_c, 0, 65, 37
2, 44418, Control_c, 0, 64, 0
2, 44419, Note_on_c, 0, 79, 50
2, 44433, Control_c, 0, 64, 127
2, 44440, Note_on_c, 0, 65, 0
2, 44442, Note_on_c, 0, 60, 0
2, 44447, Note_on_c, 0, 57, 0
2, 44449, Note_on_c, 0, 55, 0
2, 44449, Note_on_c, 0, 79, 0
2, 44449, Note_on_c, 0, 91, 0
2, 44460, Note_on_c, 0, 91, 66
2, 44462, Note_on_c, 0, 79, 48
2, 44525, Note_on_c, 0, 43, 36
2, 44544, Note_on_c, 0, 43, 0
2, 44575, Note_on_c, 0, 79, 0
2, 44577, Note_on_c, 0, 91, 0
2, 44613, Note_on_c, 0, 91, 50
2, 44615, Note_on_c, 0, 79, 28
2, 44620, Note_on_c, 0, 79, 0
2, 44625, Note_on_c, 0, 91, 0
2, 44642, Note_on_c, 0, 36, 34
2, 44643, Control_c, 0, 64, 0
2, 44644, Note_on_c, 0, 93, 66
2, 44645, Note_on_c, 0, 43, 27
2, 44645, Note_on_c, 0, 52, 39
2, 44648, Note_on_c, 0, 81, 27
2, 44656, Control_c, 0, 64, 127
2, 44663, Note_on_c, 0, 93, 0
2, 44668, Note_on_c, 0, 81, 0
2, 44676, Note_on_c, 0, 36, 0
2, 44678, Note_on_c, 0, 43, 0
2, 44680, Note_on_c, 0, 91, 53
2, 44683, Note_on_c, 0, 79, 22
2, 44688, Note_on_c, 0, 52, 0
2, 44693, Note_on_c, 0, 91, 0
2, 44703, Note_on_c, 0, 79, 0
2, 44765, Note_on_c, 0, 64, 27
2, 44767, Note_on_c, 0, 59, 31
2, 44768, Note_on_c, 0, 60, 33
2, 44794, Note_on_c, 0, 67, 53
2, 44801, Note_on_c, 0, 67, 0
2, 44805, Note_on_c, 0, 69, 62
2, 44808, Note_on_c, 0, 69, 0
2, 44815, Note_on_c, 0, 69, 73
2, 44822, Note_on_c, 0, 69, 0
2, 44823, Note_on_c, 0, 71, 70
2, 44829, Control_c, 0, 64, 0
2, 44831, Note_on_c, 0, 71, 0
2, 44834, Note_on_c, 0, 71, 55
2, 44842, Note_on_c, 0, 72, 77
2, 44843, Note_on_c, 0, 71, 0
2, 44849, Note_on_c, 0, 72, 0
2, 44853, Note_on_c, 0, 72, 64
2, 44853, Control_c, 0, 64, 127
2, 44860, Note_on_c, 0, 64, 0
2, 44862, Note_on_c, 0, 59, 0
2, 44862, Note_on_c, 0, 72, 0
2, 44862, Note_on_c, 0, 74, 64
2, 44867, Note_on_c, 0, 60, 0
2, 44870, Note_on_c, 0, 74, 0
2, 44873, Note_on_c, 0, 74, 60
2, 44882, Note_on_c, 0, 76, 57
2, 44883, Note_on_c, 0, 74, 0
2, 44889, Note_on_c, 0, 76, 0
2, 44894, Note_on_c, 0, 76, 57
2, 44894, Note_on_c, 0, 65, 35
2, 44894, Note_on_c, 0, 55, 28
2, 44895, Control_c, 0, 64, 0
2, 44895, Note_on_c, 0, 60, 39
2, 44895, Note_on_c, 0, 57, 50
2, 44901, Note_on_c, 0, 76, 0
2, 44904, Note_on_c, 0, 77, 50
2, 44910, Note_on_c, 0, 77, 0
2, 44915, Note_on_c, 0, 77, 35
2, 44923, Note_on_c, 0, 77, 0
2, 44923, Note_on_c, 0, 79, 55
2, 44930, Note_on_c, 0, 79, 0
2, 44936, Note_on_c, 0, 79, 43
2, 44944, Note_on_c, 0, 79, 0
2, 44961, Note_on_c, 0, 57, 0
2, 44962, Control_c, 0, 64, 127
2, 44967, Note_on_c, 0, 65, 0
2, 44970, Note_on_c, 0, 60, 0
2, 45007, Note_on_c, 0, 57, 47
2, 45008, Note_on_c, 0, 65, 33
2, 45009, Control_c, 0, 64, 0
2, 45009, Note_on_c, 0, 60, 38
2, 45028, Control_c, 0, 64, 127
2, 45047, Note_on_c, 0, 65, 0
2, 45049, Note_on_c, 0, 60, 0
2, 45053, Note_on_c, 0, 57, 0
2, 45055, Note_on_c, 0, 55, 0
2, 45095, Note_on_c, 0, 43, 57
2, 45121, Note_on_c, 0, 43, 0
2, 45127, Note_on_c, 0, 36, 84
2, 45130, Control_c, 0, 64, 0
2, 45144, Control_c, 0, 64, 127
2, 45159, Note_on_c, 0, 36, 0
2, 45249, Note_on_c, 0, 64, 46
2, 45250, Note_on_c, 0, 59, 44
2, 45252, Note_on_c, 0, 60, 43
2, 45305, Note_on_c, 0, 64, 0
2, 45307, Note_on_c, 0, 60, 0
2, 45307, Note_on_c, 0, 59, 0
2, 45311, Note_on_c, 0, 84, 90
2, 45336, Note_on_c, 0, 84, 0
2, 45345, Note_on_c, 0, 82, 85
2, 45367, Note_on_c, 0, 82, 0
2, 45372, Note_on_c, 0, 64, 43
2, 45372, Note_on_c, 0, 69, 47
2, 45372, Note_on_c, 0, 81, 75
2, 45373, Note_on_c, 0, 58, 44
2, 45379, Control_c, 0, 64, 0
2, 45399, Control_c, 0, 64, 127
2, 45404, Note_on_c, 0, 81, 0
2, 45410, Note_on_c, 0, 79, 49
2, 45458, Note_on_c, 0, 64, 0
2, 45459, Note_on_c, 0, 69, 0
2, 45469, Note_on_c, 0, 79, 0
2, 45483, Note_on_c, 0, 79, 6
2, 45493, Note_on_c, 0, 79, 0
2, 45493, Note_on_c, 0, 69, 27
2, 45494, Note_on_c, 0, 64, 28
2, 45500, Note_on_c, 0, 64, 0
2, 45503, Note_on_c, 0, 69, 0
2, 45510, Note_on_c, 0, 58, 0
2, 45571, Note_on_c, 0, 77, 61
2, 45620, Note_on_c, 0, 77, 0
2, 45656, Note_on_c, 0, 77, 62
2, 45658, Note_on_c, 0, 62, 27
2, 45658, Note_on_c, 0, 71, 62
2, 45659, Note_on_c, 0, 56, 39
2, 45659, Note_on_c, 0, 68, 59
2, 45660, Note_on_c, 0, 65, 40
2, 45660, Control_c, 0, 64, 0
2, 45675, Control_c, 0, 64, 127
2, 45701, Note_on_c, 0, 76, 51
2, 45704, Note_on_c, 0, 65, 0
2, 45704, Note_on_c, 0, 62, 0
2, 45705, Note_on_c, 0, 71, 0
2, 45708, Note_on_c, 0, 77, 0
2, 45718, Note_on_c, 0, 68, 0
2, 45723, Note_on_c, 0, 56, 0
2, 45726, Note_on_c, 0, 76, 0
2, 45738, Note_on_c, 0, 55, 44
2, 45740, Note_on_c, 0, 76, 34
2, 45740, Note_on_c, 0, 64, 36
2, 45741, Note_on_c, 0, 60, 36
2, 45742, Note_on_c, 0, 67, 34
2, 45743, Note_on_c, 0, 72, 24
2, 45746, Control_c, 0, 64, 0
2, 45762, Control_c, 0, 64, 127
2, 45785, Note_on_c, 0, 72, 0
2, 45785, Note_on_c, 0, 76, 0
2, 45791, Note_on_c, 0, 64, 0
2, 45792, Note_on_c, 0, 67, 0
2, 45801, Note_on_c, 0, 55, 0
2, 45811, Note_on_c, 0, 60, 0
2, 45848, Note_on_c, 0, 62, 31
2, 45848, Note_on_c, 0, 54, 39
2, 45848, Note_on_c, 0, 74, 45
2, 45851, Note_on_c, 0, 69, 50
2, 45854, Control_c, 0, 64, 0
2, 45877, Control_c, 0, 64, 127
2, 45898, Note_on_c, 0, 62, 0
2, 45908, Note_on_c, 0, 54, 0
2, 45913, Note_on_c, 0, 74, 0
2, 45913, Note_on_c, 0, 69, 0
2, 45968, Note_on_c, 0, 72, 36
2, 45968, Note_on_c, 0, 65, 37
2, 45971, Note_on_c, 0, 53, 31
2, 45971, Note_on_c, 0, 60, 32
2, 45973, Control_c, 0, 64, 0
2, 45985, Control_c, 0, 64, 127
2, 46003, Note_on_c, 0, 60, 0
2, 46011, Note_on_c, 0, 65, 0
2, 46020, Note_on_c, 0, 53, 0
2, 46046, Note_on_c, 0, 72, 0
2, 46087, Note_on_c, 0, 67, 31
2, 46087, Note_on_c, 0, 62, 31
2, 46092, Note_on_c, 0, 52, 36
2, 46092, Note_on_c, 0, 59, 24
2, 46094, Control_c, 0, 64, 0
2, 46112, Control_c, 0, 64, 127
2, 46122, Note_on_c, 0, 62, 0
2, 46136, Note_on_c, 0, 67, 0
2, 46154, Note_on_c, 0, 59, 0
2, 46209, Note_on_c, 0, 62, 28
2, 46211, Note_on_c, 0, 59, 28
2, 46246, Note_on_c, 0, 59, 0
2, 46246, Note_on_c, 0, 52, 0
2, 46249, Note_on_c, 0, 62, 0
2, 46277, Note_on_c, 0, 88, 94
2, 46279, Note_on_c, 0, 76, 79
2, 46326, Note_on_c, 0, 61, 38
2, 46327, Note_on_c, 0, 55, 46
2, 46328, Note_on_c, 0, 65, 43
2, 46329, Control_c, 0, 64, 0
2, 46339, Control_c, 0, 64, 127
2, 46342, Note_on_c, 0, 88, 0
2, 46348, Note_on_c, 0, 76, 0
2, 46363, Note_on_c, 0, 65, 0
2, 46376, Note_on_c, 0, 55, 0
2, 46379, Note_on_c, 0, 61, 0
2, 46391, Note_on_c, 0, 76, 34
2, 46392, Note_on_c, 0, 73, 40
2, 46392, Note_on_c, 0, 55, 40
2, 46393, Note_on_c, 0, 70, 42
2, 46393, Note_on_c, 0, 64, 50
2, 46395, Note_on_c, 0, 61, 28
2, 46401, Control_c, 0, 64, 0
2, 46414, Control_c, 0, 64, 127
2, 46433, Note_on_c, 0, 55, 0
2, 46434, Note_on_c, 0, 64, 0
2, 46434, Note_on_c, 0, 61, 0
2, 46435, Note_on_c, 0, 70, 0
2, 46436, Note_on_c, 0, 73, 0
2, 46436, Note_on_c, 0, 76, 0
2, 46452, Note_on_c, 0, 70, 36
2, 46452, Note_on_c, 0, 76, 29
2, 46452, Note_on_c, 0, 64, 53
2, 46452, Note_on_c, 0, 55, 39
2, 46453, Note_on_c, 0, 73, 29
2, 46454, Note_on_c, 0, 61, 32
2, 46481, Note_on_c, 0, 61, 0
2, 46490, Note_on_c, 0, 55, 0
2, 46496, Note_on_c, 0, 76, 0
2, 46499, Note_on_c, 0, 70, 0
2, 46499, Note_on_c, 0, 73, 0
2, 46504, Note_on_c, 0, 64, 0
2, 46572, Note_on_c, 0, 65, 89
2, 46573, Note_on_c, 0, 50, 84
2, 46573, Note_on_c, 0, 60, 99
2, 46574, Note_on_c, 0, 57, 92
2, 46575, Control_c, 0, 64, 0
2, 46587, Control_c, 0, 64, 127
2, 46603, Note_on_c, 0, 65, 0
2, 46606, Note_on_c, 0, 57, 0
2, 46608, Note_on_c, 0, 60, 0
2, 46636, Note_on_c, 0, 67, 69
2, 46636, Note_on_c, 0, 64, 69
2, 46636, Note_on_c, 0, 61, 69
2, 46636, Note_on_c, 0, 58, 78
2, 46638, Note_on_c, 0, 52, 76
2, 46638, Control_c, 0, 64, 0
2, 46639, Note_on_c, 0, 50, 0
2, 46652, Control_c, 0, 64, 127
2, 46666, Note_on_c, 0, 58, 0
2, 46667, Note_on_c, 0, 67, 0
2, 46667, Note_on_c, 0, 64, 0
2, 46672, Note_on_c, 0, 61, 0
2, 46695, Note_on_c, 0, 52, 0
2, 46697, Note_on_c, 0, 69, 64
2, 46697, Note_on_c, 0, 65, 67
2, 46698, Note_on_c, 0, 53, 53
2, 46698, Control_c, 0, 64, 0
2, 46698, Note_on_c, 0, 60, 56
2, 46714, Control_c, 0, 64, 127
2, 46723, Note_on_c, 0, 53, 0
2, 46758, Note_on_c, 0, 30, 62
2, 46758, Note_on_c, 0, 42, 64
2, 46760, Control_c, 0, 64, 0
2, 46762, Note_on_c, 0, 60, 0
2, 46765, Note_on_c, 0, 65, 0
2, 46769, Note_on_c, 0, 69, 0
2, 46769, Control_c, 0, 64, 127
2, 46797, Note_on_c, 0, 30, 0
2, 46799, Note_on_c, 0, 42, 0
2, 46813, Note_on_c, 0, 43, 67
2, 46813, Note_on_c, 0, 31, 70
2, 46813, Note_on_c, 0, 65, 89
2, 46813, Note_on_c, 0, 72, 76
2, 46813, Note_on_c, 0, 69, 80
2, 46814, Note_on_c, 0, 60, 94
2, 46817, Control_c, 0, 64, 0
2, 46842, Control_c, 0, 64, 127
2, 46932, Note_on_c, 0, 31, 0
2, 46939, Note_on_c, 0, 60, 0
2, 46944, Note_on_c, 0, 65, 0
2, 46950, Note_on_c, 0, 43, 0
2, 46954, Note_on_c, 0, 69, 0
2, 46962, Note_on_c, 0, 72, 0
2, 47016, Note_on_c, 0, 72, 36
2, 47023, Note_on_c, 0, 72, 0
2, 47032, Note_on_c, 0, 74, 33
2, 47052, Note_on_c, 0, 36, 36
2, 47054, Note_on_c, 0, 74, 0
2, 47055, Note_on_c, 0, 72, 40
2, 47056, Control_c, 0, 64, 0
2, 47070, Note_on_c, 0, 36, 0
2, 47072, Control_c, 0, 64, 127
2, 47078, Note_on_c, 0, 72, 0
2, 47080, Note_on_c, 0, 79, 40
2, 47107, Note_on_c, 0, 79, 0
2, 47112, Note_on_c, 0, 76, 31
2, 47167, Note_on_c, 0, 64, 30
2, 47168, Note_on_c, 0, 59, 36
2, 47169, Note_on_c, 0, 60, 33
2, 47208, Note_on_c, 0, 60, 0
2, 47208, Note_on_c, 0, 59, 0
2, 47212, Note_on_c, 0, 64, 0
2, 47286, Control_c, 0, 64, 0
2, 47287, Note_on_c, 0, 55, 24
2, 47287, Note_on_c, 0, 65, 28
2, 47289, Note_on_c, 0, 57, 35
2, 47289, Note_on_c, 0, 60, 36
2, 47294, Note_on_c, 0, 76, 0
2, 47297, Control_c, 0, 64, 127
2, 47314, Note_on_c, 0, 60, 0
2, 47315, Note_on_c, 0, 65, 0
2, 47325, Note_on_c, 0, 57, 0
2, 47327, Note_on_c, 0, 55, 0
2, 47357, Note_on_c, 0, 91, 62
2, 47377, Note_on_c, 0, 91, 0
2, 47378, Note_on_c, 0, 83, 54
2, 47414, Note_on_c, 0, 43, 45
2, 47441, Note_on_c, 0, 83, 0
2, 47449, Note_on_c, 0, 95, 73
2, 47462, Note_on_c, 0, 95, 0
2, 47468, Note_on_c, 0, 92, 65
2, 47519, Control_c, 0, 64, 0
2, 47519, Note_on_c, 0, 36, 36
2, 47523, Note_on_c, 0, 52, 33
2, 47524, Control_c, 0, 64, 127
2, 47530, Note_on_c, 0, 92, 0
2, 47558, Note_on_c, 0, 36, 0
2, 47561, Note_on_c, 0, 43, 0
2, 47564, Note_on_c, 0, 100, 59
2, 47570, Note_on_c, 0, 52, 0
2, 47579, Note_on_c, 0, 100, 0
2, 47582, Note_on_c, 0, 95, 42
2, 47593, Note_on_c, 0, 95, 0
2, 47611, Note_on_c, 0, 107, 70
2, 47618, Note_on_c, 0, 107, 0
2, 47642, Note_on_c, 0, 64, 35
2, 47645, Note_on_c, 0, 59, 40
2, 47646, Note_on_c, 0, 60, 32
2, 47679, Note_on_c, 0, 60, 0
2, 47680, Note_on_c, 0, 59, 0
2, 47681, Note_on_c, 0, 64, 0
2, 47772, Note_on_c, 0, 55, 26
2, 47773, Note_on_c, 0, 65, 32
2, 47773, Note_on_c, 0, 57, 37
2, 47775, Note_on_c, 0, 60, 34
2, 47777, Control_c, 0, 64, 0
2, 47800, Control_c, 0, 64, 127
2, 47808, Note_on_c, 0, 65, 0
2, 47810, Note_on_c, 0, 60, 0
2, 47816, Note_on_c, 0, 57, 0
2, 47817, Note_on_c, 0, 55, 0
2, 47890, Note_on_c, 0, 43, 40
2, 47994, Note_on_c, 0, 93, 79
2, 48002, Note_on_c, 0, 80, 47
2, 48003, Note_on_c, 0, 91, 28
2, 48022, Note_on_c, 0, 36, 43
2, 48026, Note_on_c, 0, 52, 50
2, 48027, Note_on_c, 0, 43, 0
2, 48031, Control_c, 0, 64, 0
2, 48046, Control_c, 0, 64, 127
2, 48056, Note_on_c, 0, 36, 0
2, 48067, Note_on_c, 0, 52, 0
2, 48089, Note_on_c, 0, 93, 0
2, 48090, Note_on_c, 0, 91, 0
2, 48107, Note_on_c, 0, 80, 0
2, 48158, Note_on_c, 0, 64, 25
2, 48162, Note_on_c, 0, 59, 22
2, 48183, Note_on_c, 0, 59, 0
2, 48185, Note_on_c, 0, 64, 0
2, 48249, Note_on_c, 0, 65, 30
2, 48250, Note_on_c, 0, 55, 24
2, 48251, Note_on_c, 0, 57, 42
2, 48252, Note_on_c, 0, 60, 38
2, 48258, Control_c, 0, 64, 0
2, 48266, Control_c, 0, 64, 127
2, 48281, Note_on_c, 0, 60, 0
2, 48281, Note_on_c, 0, 65, 0
2, 48289, Note_on_c, 0, 57, 0
2, 48290, Note_on_c, 0, 55, 0
2, 48375, Note_on_c, 0, 43, 38
2, 48459, Note_on_c, 0, 43, 0
2, 48497, Note_on_c, 0, 36, 54
2, 48501, Control_c, 0, 64, 0
2, 48515, Control_c, 0, 64, 127
2, 48533, Note_on_c, 0, 36, 0
2, 48624, Note_on_c, 0, 64, 34
2, 48626, Note_on_c, 0, 59, 33
2, 48627, Note_on_c, 0, 60, 40
2, 48659, Note_on_c, 0, 59, 0
2, 48663, Note_on_c, 0, 60, 0
2, 48664, Note_on_c, 0, 64, 0
2, 48755, Note_on_c, 0, 65, 28
2, 48757, Note_on_c, 0, 55, 32
2, 48757, Note_on_c, 0, 57, 37
2, 48758, Note_on_c, 0, 60, 46
2, 48762, Control_c, 0, 64, 0
2, 48775, Control_c, 0, 64, 127
2, 48793, Note_on_c, 0, 60, 0
2, 48794, Note_on_c, 0, 65, 0
2, 48803, Note_on_c, 0, 57, 0
2, 48804, Note_on_c, 0, 55, 0
2, 48902, Note_on_c, 0, 43, 38
2, 49065, Note_on_c, 0, 36, 33
2, 49067, Note_on_c, 0, 52, 43
2, 49075, Control_c, 0, 64, 0
2, 49093, Control_c, 0, 64, 127
2, 49225, Note_on_c, 0, 52, 0
2, 49228, Note_on_c, 0, 43, 0
2, 49229, Note_on_c, 0, 36, 0
2, 49320, Note_on_c, 0, 24, 47
2, 49440, Note_on_c, 0, 24, 0
2, 50258, Control_c, 0, 64, 0
2, 50258, End_track
0, 0, End_of_file
