0, 0, Header, 0, 1, 120
1, 0, Start_track
1, 0, Title_t, "Some Day My Prince Will Come"
1, 0, Text_t, "Doug McKenzie dougmck@pipeline.com.au\012"
1, 0, Text_t, "Unedited piano solo\012"
1, 0, System_exclusive, 5, 126, 127, 9, 1, 247
1, 0, Time_signature, 4, 2, 24, 8
1, 0, Key_signature, -2, "major"
1, 0, Tempo, 600000
1, 1, Tempo, 500000
1, 1, System_exclusive, 8, 67, 115, 1, 17, 15, 89, 3, 247
1, 1, Control_c, 0, 64, 127
1, 481, Note_on_c, 0, 77, 57
1, 496, Note_on_c, 0, 65, 25
1, 497, Note_on_c, 0, 62, 31
1, 497, Note_on_c, 0, 69, 47
1, 497, Control_c, 0, 64, 0
1, 499, Note_on_c, 0, 60, 24
1, 533, Control_c, 0, 64, 127
1, 548, Note_on_c, 0, 65, 0
1, 617, Note_on_c, 0, 53, 22
1, 825, Note_on_c, 0, 69, 0
1, 842, Note_on_c, 0, 77, 0
1, 901, Note_on_c, 0, 60, 0
1, 905, Note_on_c, 0, 62, 0
1, 939, Note_on_c, 0, 53, 0
1, 1088, Note_on_c, 0, 52, 62
1, 1106, Note_on_c, 0, 70, 56
1, 1107, Note_on_c, 0, 56, 35
1, 1122, Note_on_c, 0, 73, 61
1, 1124, Note_on_c, 0, 62, 45
1, 1136, Note_on_c, 0, 78, 51
1, 1144, Control_c, 0, 64, 0
1, 1153, Note_on_c, 0, 82, 60
1, 1188, Control_c, 0, 64, 127
1, 1289, Note_on_c, 0, 78, 0
1, 1323, Note_on_c, 0, 73, 0
1, 1341, Note_on_c, 0, 82, 0
1, 1349, Note_on_c, 0, 78, 51
1, 1360, Note_on_c, 0, 62, 0
1, 1363, Note_on_c, 0, 70, 0
1, 1366, Note_on_c, 0, 52, 0
1, 1380, Note_on_c, 0, 56, 0
1, 1411, Note_on_c, 0, 78, 0
1, 1468, Note_on_c, 0, 81, 53
1, 1476, Note_on_c, 0, 67, 45
1, 1476, Note_on_c, 0, 69, 46
1, 1477, Note_on_c, 0, 74, 44
1, 1477, Note_on_c, 0, 39, 46
1, 1482, Control_c, 0, 64, 0
1, 1524, Control_c, 0, 64, 127
1, 1534, Note_on_c, 0, 46, 48
1, 1535, Note_on_c, 0, 39, 0
1, 1557, Note_on_c, 0, 69, 0
1, 1558, Note_on_c, 0, 67, 0
1, 1565, Note_on_c, 0, 74, 0
1, 1582, Note_on_c, 0, 46, 0
1, 1593, Note_on_c, 0, 74, 64
1, 1596, Note_on_c, 0, 55, 58
1, 1599, Note_on_c, 0, 67, 58
1, 1599, Note_on_c, 0, 69, 54
1, 1629, Note_on_c, 0, 81, 0
1, 1649, Note_on_c, 0, 67, 0
1, 1649, Note_on_c, 0, 69, 0
1, 1653, Note_on_c, 0, 74, 0
1, 1661, Note_on_c, 0, 58, 52
1, 1668, Note_on_c, 0, 55, 0
1, 1742, Note_on_c, 0, 62, 57
1, 1909, Note_on_c, 0, 62, 0
1, 1933, Note_on_c, 0, 58, 0
1, 1936, Note_on_c, 0, 67, 67
1, 1963, Note_on_c, 0, 67, 0
1, 2278, Note_on_c, 0, 63, 46
1, 2278, Note_on_c, 0, 59, 38
1, 2279, Note_on_c, 0, 67, 47
1, 2286, Note_on_c, 0, 49, 37
1, 2299, Control_c, 0, 64, 0
1, 2346, Control_c, 0, 64, 127
1, 2656, Note_on_c, 0, 67, 0
1, 2674, Note_on_c, 0, 49, 0
1, 2681, Note_on_c, 0, 67, 47
1, 2683, Note_on_c, 0, 59, 0
1, 2719, Note_on_c, 0, 63, 0
1, 2721, Note_on_c, 0, 67, 0
1, 2788, Note_on_c, 0, 67, 39
1, 2788, Note_on_c, 0, 63, 40
1, 2791, Note_on_c, 0, 62, 51
1, 2798, Note_on_c, 0, 58, 25
1, 2799, Control_c, 0, 64, 0
1, 2801, Note_on_c, 0, 48, 32
1, 2874, Control_c, 0, 64, 127
1, 2904, Note_on_c, 0, 55, 54
1, 2919, Note_on_c, 0, 58, 0
1, 2993, Note_on_c, 0, 62, 0
1, 3006, Note_on_c, 0, 60, 64
1, 3016, Note_on_c, 0, 55, 0
1, 3022, Note_on_c, 0, 48, 0
1, 3027, Note_on_c, 0, 60, 0
1, 3031, Note_on_c, 0, 63, 0
1, 3039, Note_on_c, 0, 67, 0
1, 3119, Control_c, 0, 64, 0
1, 3126, Note_on_c, 0, 43, 77
1, 3144, Control_c, 0, 64, 127
1, 3152, Note_on_c, 0, 43, 0
1, 3273, Note_on_c, 0, 75, 67
1, 3276, Note_on_c, 0, 71, 67
1, 3277, Note_on_c, 0, 68, 64
1, 3279, Note_on_c, 0, 61, 59
1, 3279, Note_on_c, 0, 65, 66
1, 3421, Note_on_c, 0, 65, 0
1, 3437, Note_on_c, 0, 61, 0
1, 3438, Note_on_c, 0, 75, 0
1, 3442, Note_on_c, 0, 71, 0
1, 3447, Note_on_c, 0, 68, 0
1, 3477, Note_on_c, 0, 71, 57
1, 3481, Note_on_c, 0, 67, 62
1, 3481, Note_on_c, 0, 63, 42
1, 3483, Note_on_c, 0, 59, 58
1, 3486, Control_c, 0, 64, 0
1, 3524, Control_c, 0, 64, 127
1, 3592, Note_on_c, 0, 63, 0
1, 3592, Note_on_c, 0, 71, 0
1, 3596, Note_on_c, 0, 67, 0
1, 3646, Note_on_c, 0, 59, 0
1, 3736, Note_on_c, 0, 74, 48
1, 3742, Note_on_c, 0, 64, 34
1, 3742, Note_on_c, 0, 67, 32
1, 3744, Note_on_c, 0, 48, 43
1, 3748, Note_on_c, 0, 58, 23
1, 3748, Control_c, 0, 64, 0
1, 3794, Control_c, 0, 64, 127
1, 3837, Note_on_c, 0, 64, 0
1, 3855, Note_on_c, 0, 58, 0
1, 3858, Note_on_c, 0, 55, 45
1, 3865, Note_on_c, 0, 67, 0
1, 3866, Note_on_c, 0, 48, 0
1, 3868, Note_on_c, 0, 74, 0
1, 3869, Note_on_c, 0, 64, 19
1, 3876, Note_on_c, 0, 55, 0
1, 3890, Note_on_c, 0, 64, 0
1, 3969, Note_on_c, 0, 64, 37
1, 3973, Note_on_c, 0, 72, 36
1, 3974, Note_on_c, 0, 67, 37
1, 3995, Note_on_c, 0, 64, 0
1, 4002, Note_on_c, 0, 67, 0
1, 4019, Note_on_c, 0, 72, 0
1, 4358, Note_on_c, 0, 63, 55
1, 4359, Note_on_c, 0, 68, 54
1, 4361, Note_on_c, 0, 72, 50
1, 4363, Note_on_c, 0, 57, 30
1, 4372, Control_c, 0, 64, 0
1, 4403, Control_c, 0, 64, 127
1, 4431, Note_on_c, 0, 72, 0
1, 4439, Note_on_c, 0, 63, 0
1, 4440, Note_on_c, 0, 68, 0
1, 4510, Note_on_c, 0, 57, 0
1, 4514, Note_on_c, 0, 74, 53
1, 4517, Note_on_c, 0, 58, 34
1, 4519, Note_on_c, 0, 70, 39
1, 4526, Control_c, 0, 64, 0
1, 4532, Note_on_c, 0, 64, 17
1, 4569, Control_c, 0, 64, 127
1, 4584, Note_on_c, 0, 64, 0
1, 4591, Note_on_c, 0, 74, 0
1, 4625, Note_on_c, 0, 70, 0
1, 5019, Note_on_c, 0, 67, 42
1, 5021, Note_on_c, 0, 76, 48
1, 5021, Note_on_c, 0, 72, 48
1, 5023, Note_on_c, 0, 61, 37
1, 5027, Note_on_c, 0, 58, 0
1, 5031, Control_c, 0, 64, 0
1, 5067, Control_c, 0, 64, 127
1, 5086, Note_on_c, 0, 61, 0
1, 5096, Note_on_c, 0, 67, 0
1, 5098, Note_on_c, 0, 72, 0
1, 5101, Note_on_c, 0, 76, 0
1, 5167, Note_on_c, 0, 77, 62
1, 5173, Note_on_c, 0, 69, 48
1, 5174, Note_on_c, 0, 65, 37
1, 5179, Control_c, 0, 64, 0
1, 5184, Note_on_c, 0, 60, 12
1, 5184, Note_on_c, 0, 50, 22
1, 5244, Control_c, 0, 64, 127
1, 5265, Note_on_c, 0, 50, 0
1, 5271, Note_on_c, 0, 60, 0
1, 5273, Note_on_c, 0, 57, 39
1, 5284, Note_on_c, 0, 57, 0
1, 5325, Note_on_c, 0, 69, 0
1, 5326, Note_on_c, 0, 65, 0
1, 5383, Note_on_c, 0, 65, 29
1, 5383, Note_on_c, 0, 69, 37
1, 5389, Note_on_c, 0, 62, 34
1, 5467, Note_on_c, 0, 77, 0
1, 5481, Note_on_c, 0, 65, 0
1, 5498, Note_on_c, 0, 69, 0
1, 5501, Note_on_c, 0, 77, 53
1, 5529, Note_on_c, 0, 62, 0
1, 5544, Note_on_c, 0, 77, 0
1, 5623, Note_on_c, 0, 81, 71
1, 5632, Note_on_c, 0, 76, 67
1, 5636, Note_on_c, 0, 73, 55
1, 5639, Control_c, 0, 64, 0
1, 5639, Note_on_c, 0, 69, 54
1, 5651, Note_on_c, 0, 70, 25
1, 5704, Control_c, 0, 64, 127
1, 5786, Note_on_c, 0, 81, 0
1, 5789, Note_on_c, 0, 70, 0
1, 5798, Note_on_c, 0, 73, 0
1, 5803, Note_on_c, 0, 76, 0
1, 5827, Note_on_c, 0, 69, 0
1, 5828, Note_on_c, 0, 81, 61
1, 5838, Note_on_c, 0, 76, 71
1, 5847, Note_on_c, 0, 73, 49
1, 5859, Note_on_c, 0, 70, 30
1, 5921, Note_on_c, 0, 81, 0
1, 5924, Note_on_c, 0, 70, 0
1, 5924, Note_on_c, 0, 73, 0
1, 5926, Note_on_c, 0, 76, 0
1, 5959, Note_on_c, 0, 81, 50
1, 5968, Note_on_c, 0, 76, 71
1, 5973, Note_on_c, 0, 73, 60
1, 5978, Note_on_c, 0, 67, 53
1, 5978, Note_on_c, 0, 70, 39
1, 5979, Control_c, 0, 64, 0
1, 6021, Control_c, 0, 64, 127
1, 6065, Note_on_c, 0, 81, 0
1, 6078, Note_on_c, 0, 73, 0
1, 6085, Note_on_c, 0, 70, 0
1, 6085, Note_on_c, 0, 76, 0
1, 6103, Note_on_c, 0, 67, 0
1, 6104, Note_on_c, 0, 81, 66
1, 6111, Note_on_c, 0, 76, 64
1, 6118, Note_on_c, 0, 73, 46
1, 6123, Note_on_c, 0, 70, 29
1, 6154, Note_on_c, 0, 81, 0
1, 6182, Note_on_c, 0, 76, 0
1, 6186, Note_on_c, 0, 70, 0
1, 6196, Note_on_c, 0, 73, 0
1, 6359, Note_on_c, 0, 48, 57
1, 6378, Note_on_c, 0, 55, 54
1, 6392, Note_on_c, 0, 63, 46
1, 6401, Note_on_c, 0, 70, 64
1, 6412, Note_on_c, 0, 62, 38
1, 6414, Control_c, 0, 64, 0
1, 6419, Note_on_c, 0, 77, 58
1, 6471, Control_c, 0, 64, 127
1, 6541, Note_on_c, 0, 70, 0
1, 6559, Note_on_c, 0, 63, 0
1, 6578, Note_on_c, 0, 70, 53
1, 6595, Note_on_c, 0, 77, 0
1, 6634, Note_on_c, 0, 70, 0
1, 6707, Note_on_c, 0, 71, 64
1, 6711, Note_on_c, 0, 67, 59
1, 6784, Note_on_c, 0, 71, 0
1, 6786, Note_on_c, 0, 74, 81
1, 6797, Note_on_c, 0, 62, 0
1, 6803, Note_on_c, 0, 67, 0
1, 6847, Note_on_c, 0, 74, 0
1, 6863, Note_on_c, 0, 72, 71
1, 6871, Note_on_c, 0, 55, 0
1, 6884, Note_on_c, 0, 48, 0
1, 6921, Note_on_c, 0, 72, 0
1, 6934, Note_on_c, 0, 67, 57
1, 6972, Note_on_c, 0, 67, 0
1, 7022, Note_on_c, 0, 67, 66
1, 7031, Note_on_c, 0, 41, 46
1, 7033, Control_c, 0, 64, 0
1, 7042, Note_on_c, 0, 41, 0
1, 7064, Control_c, 0, 64, 127
1, 7104, Note_on_c, 0, 67, 0
1, 7109, Note_on_c, 0, 70, 62
1, 7109, Note_on_c, 0, 51, 39
1, 7182, Note_on_c, 0, 70, 0
1, 7211, Note_on_c, 0, 60, 32
1, 7212, Note_on_c, 0, 69, 40
1, 7213, Note_on_c, 0, 57, 38
1, 7213, Note_on_c, 0, 65, 36
1, 7216, Control_c, 0, 64, 0
1, 7267, Control_c, 0, 64, 127
1, 7303, Note_on_c, 0, 65, 0
1, 7323, Note_on_c, 0, 69, 0
1, 7327, Note_on_c, 0, 60, 0
1, 7329, Note_on_c, 0, 65, 48
1, 7355, Note_on_c, 0, 65, 0
1, 7394, Note_on_c, 0, 57, 0
1, 7443, Note_on_c, 0, 72, 75
1, 7451, Note_on_c, 0, 65, 76
1, 7459, Note_on_c, 0, 57, 37
1, 7490, Note_on_c, 0, 72, 0
1, 7509, Note_on_c, 0, 65, 0
1, 7534, Note_on_c, 0, 74, 72
1, 7536, Note_on_c, 0, 67, 66
1, 7564, Note_on_c, 0, 74, 0
1, 7567, Note_on_c, 0, 67, 0
1, 7618, Note_on_c, 0, 75, 67
1, 7622, Note_on_c, 0, 66, 57
1, 7662, Note_on_c, 0, 66, 0
1, 7666, Note_on_c, 0, 51, 0
1, 7668, Note_on_c, 0, 75, 0
1, 7674, Note_on_c, 0, 57, 0
1, 7704, Note_on_c, 0, 78, 62
1, 7716, Note_on_c, 0, 79, 46
1, 7724, Note_on_c, 0, 79, 0
1, 7734, Note_on_c, 0, 78, 0
1, 7794, Note_on_c, 0, 77, 57
1, 7797, Note_on_c, 0, 65, 38
1, 7799, Note_on_c, 0, 72, 40
1, 7801, Control_c, 0, 64, 0
1, 7806, Note_on_c, 0, 50, 40
1, 7818, Note_on_c, 0, 60, 7
1, 7851, Control_c, 0, 64, 127
1, 7872, Note_on_c, 0, 50, 0
1, 7876, Note_on_c, 0, 72, 0
1, 7880, Note_on_c, 0, 60, 0
1, 7889, Note_on_c, 0, 57, 30
1, 7898, Note_on_c, 0, 65, 0
1, 7901, Note_on_c, 0, 57, 0
1, 7981, Note_on_c, 0, 69, 40
1, 7983, Note_on_c, 0, 65, 29
1, 8026, Note_on_c, 0, 65, 0
1, 8031, Note_on_c, 0, 69, 0
1, 8040, Note_on_c, 0, 77, 0
1, 8069, Note_on_c, 0, 81, 66
1, 8077, Note_on_c, 0, 62, 33
1, 8099, Note_on_c, 0, 62, 0
1, 8107, Note_on_c, 0, 81, 0
1, 8191, Note_on_c, 0, 81, 64
1, 8196, Note_on_c, 0, 73, 52
1, 8197, Note_on_c, 0, 70, 47
1, 8201, Note_on_c, 0, 69, 56
1, 8212, Control_c, 0, 64, 0
1, 8251, Control_c, 0, 64, 127
1, 8288, Note_on_c, 0, 69, 0
1, 8294, Note_on_c, 0, 73, 0
1, 8295, Note_on_c, 0, 70, 0
1, 8322, Note_on_c, 0, 70, 39
1, 8362, Note_on_c, 0, 70, 0
1, 8369, Note_on_c, 0, 81, 0
1, 8426, Note_on_c, 0, 70, 33
1, 8432, Note_on_c, 0, 73, 43
1, 8438, Note_on_c, 0, 64, 19
1, 8442, Note_on_c, 0, 61, 23
1, 8553, Note_on_c, 0, 73, 0
1, 8553, Note_on_c, 0, 70, 0
1, 8675, Note_on_c, 0, 64, 0
1, 8725, Note_on_c, 0, 61, 0
1, 8752, Note_on_c, 0, 81, 55
1, 8767, Note_on_c, 0, 81, 0
1, 9023, Note_on_c, 0, 48, 43
1, 9036, Note_on_c, 0, 48, 0
1, 9073, Note_on_c, 0, 62, 65
1, 9083, Note_on_c, 0, 62, 0
1, 9119, Note_on_c, 0, 63, 55
1, 9136, Note_on_c, 0, 63, 0
1, 9171, Note_on_c, 0, 70, 49
1, 9179, Note_on_c, 0, 70, 0
1, 9224, Note_on_c, 0, 77, 51
1, 9256, Note_on_c, 0, 77, 0
1, 9294, Note_on_c, 0, 74, 51
1, 9396, Note_on_c, 0, 74, 0
1, 9398, Note_on_c, 0, 75, 59
1, 9416, Note_on_c, 0, 75, 0
1, 9474, Note_on_c, 0, 79, 64
1, 9514, Note_on_c, 0, 79, 0
1, 9533, Note_on_c, 0, 86, 71
1, 9573, Note_on_c, 0, 86, 0
1, 9581, Note_on_c, 0, 83, 52
1, 9602, Note_on_c, 0, 83, 0
1, 9622, Note_on_c, 0, 84, 71
1, 9650, Note_on_c, 0, 84, 0
1, 9667, Note_on_c, 0, 86, 72
1, 9692, Note_on_c, 0, 86, 0
1, 9711, Note_on_c, 0, 87, 64
1, 9734, Note_on_c, 0, 87, 0
1, 9759, Note_on_c, 0, 89, 55
1, 9802, Note_on_c, 0, 89, 0
1, 9818, Note_on_c, 0, 41, 45
1, 9819, Note_on_c, 0, 93, 64
1, 9824, Control_c, 0, 64, 0
1, 9826, Note_on_c, 0, 57, 32
1, 9858, Control_c, 0, 64, 127
1, 9866, Note_on_c, 0, 93, 0
1, 9869, Note_on_c, 0, 41, 0
1, 9878, Note_on_c, 0, 96, 65
1, 9889, Note_on_c, 0, 57, 0
1, 9898, Note_on_c, 0, 96, 0
1, 9939, Note_on_c, 0, 87, 64
1, 10002, Note_on_c, 0, 87, 0
1, 10009, Note_on_c, 0, 86, 45
1, 10093, Note_on_c, 0, 57, 28
1, 10095, Note_on_c, 0, 86, 0
1, 10096, Note_on_c, 0, 63, 38
1, 10096, Note_on_c, 0, 84, 68
1, 10096, Note_on_c, 0, 67, 35
1, 10162, Note_on_c, 0, 84, 0
1, 10168, Note_on_c, 0, 87, 69
1, 10241, Note_on_c, 0, 87, 0
1, 10247, Note_on_c, 0, 81, 64
1, 10327, Note_on_c, 0, 83, 61
1, 10337, Note_on_c, 0, 81, 0
1, 10412, Note_on_c, 0, 83, 0
1, 10414, Note_on_c, 0, 78, 42
1, 10504, Note_on_c, 0, 78, 0
1, 10509, Note_on_c, 0, 75, 37
1, 10622, Note_on_c, 0, 75, 0
1, 10631, Note_on_c, 0, 74, 32
1, 10786, Note_on_c, 0, 67, 0
1, 10947, Note_on_c, 0, 73, 38
1, 10963, Note_on_c, 0, 74, 0
1, 11014, Note_on_c, 0, 72, 57
1, 11058, Note_on_c, 0, 73, 0
1, 11061, Note_on_c, 0, 72, 0
1, 11073, Note_on_c, 0, 71, 57
1, 11101, Note_on_c, 0, 63, 0
1, 11110, Note_on_c, 0, 71, 0
1, 11124, Note_on_c, 0, 70, 55
1, 11131, Note_on_c, 0, 57, 0
1, 11154, Note_on_c, 0, 70, 0
1, 11168, Note_on_c, 0, 69, 48
1, 11211, Note_on_c, 0, 68, 52
1, 11215, Note_on_c, 0, 69, 0
1, 11238, Note_on_c, 0, 68, 0
1, 11256, Note_on_c, 0, 67, 58
1, 11288, Note_on_c, 0, 67, 0
1, 11312, Note_on_c, 0, 66, 53
1, 11360, Note_on_c, 0, 66, 0
1, 11367, Note_on_c, 0, 62, 38
1, 11402, Note_on_c, 0, 62, 0
1, 11429, Note_on_c, 0, 65, 40
1, 11438, Note_on_c, 0, 62, 32
1, 11443, Control_c, 0, 64, 0
1, 11446, Note_on_c, 0, 60, 35
1, 11479, Control_c, 0, 64, 127
1, 11517, Note_on_c, 0, 65, 0
1, 11538, Note_on_c, 0, 53, 41
1, 11648, Note_on_c, 0, 65, 16
1, 11776, Note_on_c, 0, 62, 0
1, 11781, Note_on_c, 0, 60, 0
1, 11799, Note_on_c, 0, 53, 0
1, 11811, Note_on_c, 0, 65, 0
1, 11836, Note_on_c, 0, 53, 57
1, 11893, Note_on_c, 0, 53, 0
1, 12074, Note_on_c, 0, 70, 49
1, 12083, Note_on_c, 0, 73, 70
1, 12093, Note_on_c, 0, 78, 53
1, 12094, Note_on_c, 0, 52, 61
1, 12099, Note_on_c, 0, 82, 59
1, 12103, Control_c, 0, 64, 0
1, 12136, Note_on_c, 0, 73, 0
1, 12147, Control_c, 0, 64, 127
1, 12220, Note_on_c, 0, 70, 0
1, 12261, Note_on_c, 0, 78, 0
1, 12261, Note_on_c, 0, 56, 25
1, 12263, Note_on_c, 0, 73, 43
1, 12263, Note_on_c, 0, 70, 23
1, 12264, Note_on_c, 0, 62, 35
1, 12375, Note_on_c, 0, 73, 0
1, 12393, Note_on_c, 0, 70, 0
1, 12395, Note_on_c, 0, 82, 0
1, 12406, Note_on_c, 0, 78, 53
1, 12451, Note_on_c, 0, 52, 0
1, 12496, Note_on_c, 0, 78, 0
1, 12520, Note_on_c, 0, 62, 0
1, 12524, Note_on_c, 0, 51, 62
1, 12527, Note_on_c, 0, 81, 83
1, 12533, Control_c, 0, 64, 0
1, 12542, Note_on_c, 0, 56, 0
1, 12572, Control_c, 0, 64, 127
1, 12629, Note_on_c, 0, 81, 0
1, 12633, Note_on_c, 0, 74, 44
1, 12639, Note_on_c, 0, 58, 30
1, 12641, Note_on_c, 0, 67, 28
1, 12731, Note_on_c, 0, 67, 0
1, 12735, Note_on_c, 0, 74, 0
1, 12748, Note_on_c, 0, 79, 66
1, 12778, Note_on_c, 0, 79, 0
1, 12841, Note_on_c, 0, 58, 0
1, 12841, Note_on_c, 0, 51, 0
1, 12854, Note_on_c, 0, 79, 75
1, 12858, Note_on_c, 0, 50, 63
1, 12858, Control_c, 0, 64, 0
1, 12899, Control_c, 0, 64, 127
1, 13126, Note_on_c, 0, 50, 0
1, 13139, Note_on_c, 0, 79, 0
1, 13194, Note_on_c, 0, 79, 62
1, 13197, Note_on_c, 0, 48, 64
1, 13203, Control_c, 0, 64, 0
1, 13243, Control_c, 0, 64, 127
1, 13304, Note_on_c, 0, 70, 36
1, 13306, Note_on_c, 0, 67, 32
1, 13308, Note_on_c, 0, 58, 20
1, 13349, Note_on_c, 0, 67, 0
1, 13369, Note_on_c, 0, 48, 0
1, 13371, Note_on_c, 0, 70, 0
1, 13391, Note_on_c, 0, 79, 0
1, 13408, Note_on_c, 0, 48, 41
1, 13441, Note_on_c, 0, 48, 0
1, 13441, Note_on_c, 0, 58, 0
1, 13511, Note_on_c, 0, 87, 87
1, 13516, Note_on_c, 0, 47, 66
1, 13521, Control_c, 0, 64, 0
1, 13566, Control_c, 0, 64, 127
1, 13654, Note_on_c, 0, 75, 43
1, 13684, Note_on_c, 0, 87, 0
1, 13705, Note_on_c, 0, 75, 0
1, 13757, Note_on_c, 0, 47, 0
1, 13852, Note_on_c, 0, 46, 46
1, 13856, Note_on_c, 0, 86, 70
1, 13864, Control_c, 0, 64, 0
1, 13898, Control_c, 0, 64, 127
1, 13957, Note_on_c, 0, 55, 32
1, 13987, Note_on_c, 0, 86, 0
1, 14061, Note_on_c, 0, 84, 55
1, 14079, Note_on_c, 0, 46, 0
1, 14089, Note_on_c, 0, 84, 0
1, 14095, Note_on_c, 0, 55, 0
1, 14172, Note_on_c, 0, 45, 37
1, 14172, Note_on_c, 0, 84, 57
1, 14177, Control_c, 0, 64, 0
1, 14178, Note_on_c, 0, 72, 37
1, 14213, Control_c, 0, 64, 127
1, 14225, Note_on_c, 0, 84, 0
1, 14226, Note_on_c, 0, 72, 0
1, 14282, Note_on_c, 0, 86, 54
1, 14284, Note_on_c, 0, 74, 51
1, 14304, Note_on_c, 0, 86, 0
1, 14306, Note_on_c, 0, 74, 0
1, 14387, Note_on_c, 0, 45, 0
1, 14391, Note_on_c, 0, 87, 55
1, 14391, Note_on_c, 0, 75, 39
1, 14408, Note_on_c, 0, 75, 0
1, 14413, Note_on_c, 0, 87, 0
1, 14484, Control_c, 0, 64, 0
1, 14493, Note_on_c, 0, 44, 55
1, 14493, Note_on_c, 0, 89, 72
1, 14501, Note_on_c, 0, 77, 55
1, 14509, Control_c, 0, 64, 127
1, 14513, Note_on_c, 0, 89, 0
1, 14514, Note_on_c, 0, 44, 0
1, 14524, Note_on_c, 0, 77, 0
1, 14607, Note_on_c, 0, 65, 36
1, 14677, Note_on_c, 0, 65, 0
1, 14724, Note_on_c, 0, 65, 32
1, 14724, Note_on_c, 0, 68, 38
1, 14779, Note_on_c, 0, 65, 0
1, 14810, Note_on_c, 0, 68, 0
1, 14851, Note_on_c, 0, 62, 33
1, 14856, Note_on_c, 0, 46, 31
1, 14856, Note_on_c, 0, 67, 41
1, 14858, Control_c, 0, 64, 0
1, 14858, Note_on_c, 0, 56, 25
1, 14908, Control_c, 0, 64, 127
1, 14928, Note_on_c, 0, 62, 0
1, 14939, Note_on_c, 0, 67, 0
1, 14947, Note_on_c, 0, 46, 0
1, 14958, Note_on_c, 0, 56, 0
1, 15007, Note_on_c, 0, 56, 35
1, 15008, Note_on_c, 0, 72, 54
1, 15009, Note_on_c, 0, 62, 41
1, 15009, Note_on_c, 0, 67, 48
1, 15178, Note_on_c, 0, 72, 0
1, 15186, Note_on_c, 0, 70, 47
1, 15202, Note_on_c, 0, 56, 0
1, 15269, Note_on_c, 0, 67, 0
1, 15271, Note_on_c, 0, 62, 0
1, 15313, Note_on_c, 0, 70, 0
1, 15402, Note_on_c, 0, 67, 54
1, 15404, Note_on_c, 0, 39, 43
1, 15404, Note_on_c, 0, 72, 54
1, 15413, Control_c, 0, 64, 0
1, 15444, Control_c, 0, 64, 127
1, 15471, Note_on_c, 0, 46, 46
1, 15477, Note_on_c, 0, 39, 0
1, 15500, Note_on_c, 0, 67, 0
1, 15527, Note_on_c, 0, 46, 0
1, 15531, Note_on_c, 0, 72, 0
1, 15539, Note_on_c, 0, 67, 44
1, 15542, Note_on_c, 0, 62, 46
1, 15543, Note_on_c, 0, 55, 50
1, 15584, Note_on_c, 0, 62, 0
1, 15609, Note_on_c, 0, 58, 40
1, 15616, Note_on_c, 0, 67, 0
1, 15620, Note_on_c, 0, 55, 0
1, 15688, Note_on_c, 0, 62, 37
1, 15754, Note_on_c, 0, 62, 0
1, 15826, Note_on_c, 0, 71, 55
1, 15871, Note_on_c, 0, 71, 0
1, 15882, Note_on_c, 0, 72, 58
1, 15897, Note_on_c, 0, 58, 0
1, 15904, Note_on_c, 0, 72, 0
1, 16007, Note_on_c, 0, 81, 61
1, 16018, Note_on_c, 0, 76, 66
1, 16024, Note_on_c, 0, 73, 58
1, 16028, Note_on_c, 0, 69, 51
1, 16029, Control_c, 0, 64, 0
1, 16043, Note_on_c, 0, 70, 40
1, 16087, Control_c, 0, 64, 127
1, 16139, Note_on_c, 0, 69, 0
1, 16291, Note_on_c, 0, 64, 30
1, 16308, Note_on_c, 0, 81, 0
1, 16354, Note_on_c, 0, 76, 0
1, 16360, Note_on_c, 0, 70, 0
1, 16385, Note_on_c, 0, 73, 0
1, 16439, Note_on_c, 0, 79, 57
1, 16446, Note_on_c, 0, 70, 39
1, 16448, Note_on_c, 0, 64, 0
1, 16448, Note_on_c, 0, 73, 37
1, 16481, Note_on_c, 0, 79, 0
1, 16484, Note_on_c, 0, 70, 0
1, 16496, Note_on_c, 0, 73, 0
1, 16569, Note_on_c, 0, 77, 50
1, 16577, Note_on_c, 0, 70, 34
1, 16581, Note_on_c, 0, 65, 25
1, 16582, Note_on_c, 0, 62, 30
1, 16586, Control_c, 0, 64, 0
1, 16596, Note_on_c, 0, 53, 8
1, 16631, Control_c, 0, 64, 127
1, 16658, Note_on_c, 0, 65, 0
1, 16680, Note_on_c, 0, 70, 0
1, 16694, Note_on_c, 0, 41, 29
1, 16796, Note_on_c, 0, 77, 0
1, 16840, Note_on_c, 0, 62, 0
1, 16847, Note_on_c, 0, 75, 59
1, 16852, Note_on_c, 0, 41, 0
1, 16874, Note_on_c, 0, 75, 0
1, 16991, Note_on_c, 0, 74, 57
1, 16992, Note_on_c, 0, 70, 44
1, 16998, Note_on_c, 0, 67, 40
1, 16999, Note_on_c, 0, 63, 31
1, 17006, Control_c, 0, 64, 0
1, 17007, Note_on_c, 0, 65, 20
1, 17049, Control_c, 0, 64, 127
1, 17082, Note_on_c, 0, 53, 0
1, 17114, Note_on_c, 0, 65, 0
1, 17143, Note_on_c, 0, 53, 34
1, 17309, Note_on_c, 0, 74, 0
1, 17326, Note_on_c, 0, 72, 48
1, 17329, Note_on_c, 0, 53, 0
1, 17388, Note_on_c, 0, 72, 0
1, 17390, Note_on_c, 0, 67, 0
1, 17400, Note_on_c, 0, 70, 0
1, 17404, Note_on_c, 0, 63, 0
1, 17497, Note_on_c, 0, 70, 49
1, 17503, Note_on_c, 0, 66, 40
1, 17504, Note_on_c, 0, 63, 36
1, 17506, Note_on_c, 0, 59, 44
1, 17507, Note_on_c, 0, 53, 24
1, 17521, Control_c, 0, 64, 0
1, 17591, Control_c, 0, 64, 127
1, 17663, Note_on_c, 0, 41, 33
1, 17702, Note_on_c, 0, 59, 0
1, 17754, Note_on_c, 0, 63, 0
1, 17758, Note_on_c, 0, 66, 0
1, 17844, Note_on_c, 0, 59, 32
1, 17847, Note_on_c, 0, 63, 33
1, 17857, Note_on_c, 0, 66, 28
1, 17884, Note_on_c, 0, 53, 0
1, 18069, Note_on_c, 0, 41, 0
1, 18199, Note_on_c, 0, 41, 6
1, 18204, Note_on_c, 0, 59, 0
1, 18232, Note_on_c, 0, 63, 0
1, 18259, Note_on_c, 0, 66, 0
1, 18375, Note_on_c, 0, 41, 0
1, 18443, Note_on_c, 0, 70, 0
1, 18601, Control_c, 0, 64, 0
1, 18601, Note_on_c, 0, 77, 53
1, 18603, Note_on_c, 0, 65, 28
1, 18612, Note_on_c, 0, 62, 35
1, 18612, Note_on_c, 0, 60, 31
1, 18628, Control_c, 0, 64, 127
1, 18648, Note_on_c, 0, 65, 0
1, 18664, Note_on_c, 0, 77, 0
1, 18678, Note_on_c, 0, 76, 36
1, 18695, Note_on_c, 0, 76, 0
1, 18719, Control_c, 0, 64, 0
1, 18721, Note_on_c, 0, 53, 38
1, 18726, Note_on_c, 0, 77, 59
1, 18743, Note_on_c, 0, 77, 0
1, 18789, Note_on_c, 0, 62, 0
1, 18802, Note_on_c, 0, 53, 0
1, 18804, Note_on_c, 0, 60, 0
1, 18883, Control_c, 0, 64, 127
1, 18953, Note_on_c, 0, 56, 46
1, 18954, Note_on_c, 0, 82, 56
1, 18956, Control_c, 0, 64, 0
1, 19012, Note_on_c, 0, 82, 0
1, 19071, Note_on_c, 0, 66, 48
1, 19073, Note_on_c, 0, 82, 56
1, 19076, Note_on_c, 0, 62, 42
1, 19086, Note_on_c, 0, 62, 0
1, 19088, Note_on_c, 0, 66, 0
1, 19095, Note_on_c, 0, 82, 0
1, 19096, Note_on_c, 0, 56, 0
1, 19194, Control_c, 0, 64, 127
1, 19258, Note_on_c, 0, 78, 33
1, 19280, Note_on_c, 0, 78, 0
1, 19293, Note_on_c, 0, 39, 47
1, 19294, Control_c, 0, 64, 0
1, 19298, Note_on_c, 0, 69, 66
1, 19301, Note_on_c, 0, 81, 60
1, 19301, Note_on_c, 0, 74, 57
1, 19303, Note_on_c, 0, 46, 34
1, 19307, Control_c, 0, 64, 127
1, 19314, Note_on_c, 0, 46, 0
1, 19314, Note_on_c, 0, 39, 0
1, 19418, Note_on_c, 0, 65, 33
1, 19424, Note_on_c, 0, 62, 22
1, 19427, Note_on_c, 0, 60, 22
1, 19431, Note_on_c, 0, 65, 0
1, 19434, Note_on_c, 0, 62, 0
1, 19437, Note_on_c, 0, 60, 0
1, 19441, Note_on_c, 0, 81, 0
1, 19476, Note_on_c, 0, 69, 0
1, 19486, Note_on_c, 0, 74, 0
1, 19602, Note_on_c, 0, 79, 74
1, 19623, Note_on_c, 0, 79, 0
1, 19639, Control_c, 0, 64, 0
1, 19643, Note_on_c, 0, 79, 73
1, 19647, Note_on_c, 0, 43, 53
1, 19651, Note_on_c, 0, 75, 77
1, 19657, Note_on_c, 0, 43, 0
1, 19662, Note_on_c, 0, 71, 32
1, 19666, Control_c, 0, 64, 127
1, 19766, Note_on_c, 0, 63, 25
1, 19776, Note_on_c, 0, 59, 30
1, 19779, Note_on_c, 0, 71, 0
1, 19795, Note_on_c, 0, 79, 0
1, 19802, Note_on_c, 0, 75, 0
1, 19817, Note_on_c, 0, 59, 0
1, 19824, Note_on_c, 0, 63, 0
1, 19999, Note_on_c, 0, 67, 77
1, 20008, Note_on_c, 0, 63, 73
1, 20014, Control_c, 0, 64, 0
1, 20016, Note_on_c, 0, 48, 40
1, 20019, Note_on_c, 0, 62, 44
1, 20027, Note_on_c, 0, 58, 20
1, 20067, Control_c, 0, 64, 127
1, 20136, Note_on_c, 0, 55, 35
1, 20150, Note_on_c, 0, 62, 0
1, 20163, Note_on_c, 0, 55, 0
1, 20169, Note_on_c, 0, 48, 0
1, 20170, Note_on_c, 0, 58, 0
1, 20229, Note_on_c, 0, 63, 0
1, 20251, Note_on_c, 0, 67, 0
1, 20348, Note_on_c, 0, 43, 37
1, 20356, Control_c, 0, 64, 0
1, 20358, Note_on_c, 0, 43, 0
1, 20414, Note_on_c, 0, 67, 50
1, 20436, Note_on_c, 0, 67, 0
1, 20461, Note_on_c, 0, 63, 37
1, 20462, Note_on_c, 0, 69, 64
1, 20466, Note_on_c, 0, 59, 32
1, 20468, Note_on_c, 0, 63, 0
1, 20474, Note_on_c, 0, 69, 0
1, 20477, Note_on_c, 0, 59, 0
1, 20521, Note_on_c, 0, 71, 62
1, 20543, Note_on_c, 0, 71, 0
1, 20569, Note_on_c, 0, 72, 59
1, 20591, Note_on_c, 0, 72, 0
1, 20628, Note_on_c, 0, 75, 63
1, 20637, Control_c, 0, 64, 127
1, 20664, Note_on_c, 0, 75, 0
1, 20673, Control_c, 0, 64, 0
1, 20676, Note_on_c, 0, 71, 49
1, 20704, Note_on_c, 0, 71, 0
1, 20734, Note_on_c, 0, 74, 77
1, 20747, Note_on_c, 0, 63, 32
1, 20754, Note_on_c, 0, 63, 0
1, 20766, Note_on_c, 0, 74, 0
1, 20778, Note_on_c, 0, 71, 57
1, 20782, Note_on_c, 0, 58, 42
1, 20783, Note_on_c, 0, 67, 52
1, 20788, Note_on_c, 0, 63, 25
1, 20789, Note_on_c, 0, 62, 30
1, 20795, Note_on_c, 0, 67, 0
1, 20803, Note_on_c, 0, 63, 0
1, 20803, Note_on_c, 0, 58, 0
1, 20804, Note_on_c, 0, 62, 0
1, 20811, Note_on_c, 0, 71, 0
1, 20838, Note_on_c, 0, 72, 65
1, 20858, Note_on_c, 0, 72, 0
1, 20883, Note_on_c, 0, 74, 75
1, 20901, Note_on_c, 0, 74, 0
1, 20938, Note_on_c, 0, 75, 75
1, 20946, Control_c, 0, 64, 127
1, 20957, Control_c, 0, 64, 0
1, 20966, Note_on_c, 0, 75, 0
1, 20984, Note_on_c, 0, 41, 38
1, 20987, Note_on_c, 0, 76, 79
1, 20994, Note_on_c, 0, 41, 0
1, 21027, Control_c, 0, 64, 127
1, 21096, Note_on_c, 0, 62, 50
1, 21102, Note_on_c, 0, 51, 30
1, 21106, Note_on_c, 0, 57, 36
1, 21124, Note_on_c, 0, 76, 0
1, 21204, Note_on_c, 0, 62, 0
1, 21211, Note_on_c, 0, 57, 0
1, 21213, Note_on_c, 0, 79, 95
1, 21235, Note_on_c, 0, 51, 0
1, 21261, Note_on_c, 0, 79, 0
1, 21272, Note_on_c, 0, 78, 71
1, 21300, Note_on_c, 0, 78, 0
1, 21316, Control_c, 0, 64, 0
1, 21322, Note_on_c, 0, 77, 64
1, 21329, Note_on_c, 0, 50, 32
1, 21359, Control_c, 0, 64, 127
1, 21384, Note_on_c, 0, 74, 60
1, 21393, Note_on_c, 0, 77, 0
1, 21421, Note_on_c, 0, 74, 0
1, 21437, Note_on_c, 0, 76, 81
1, 21442, Note_on_c, 0, 60, 51
1, 21462, Note_on_c, 0, 60, 0
1, 21474, Note_on_c, 0, 50, 0
1, 21489, Note_on_c, 0, 76, 0
1, 21496, Note_on_c, 0, 73, 56
1, 21537, Note_on_c, 0, 73, 0
1, 21548, Note_on_c, 0, 75, 68
1, 21589, Note_on_c, 0, 75, 0
1, 21602, Note_on_c, 0, 71, 57
1, 21648, Note_on_c, 0, 71, 0
1, 21658, Note_on_c, 0, 74, 81
1, 21662, Note_on_c, 0, 37, 74
1, 21664, Control_c, 0, 64, 0
1, 21685, Note_on_c, 0, 37, 0
1, 21708, Control_c, 0, 64, 127
1, 21714, Note_on_c, 0, 74, 0
1, 21722, Note_on_c, 0, 70, 49
1, 21758, Note_on_c, 0, 70, 0
1, 21769, Note_on_c, 0, 73, 58
1, 21777, Note_on_c, 0, 64, 35
1, 21792, Note_on_c, 0, 64, 0
1, 21822, Note_on_c, 0, 73, 0
1, 21828, Note_on_c, 0, 69, 53
1, 21861, Note_on_c, 0, 69, 0
1, 21878, Note_on_c, 0, 72, 59
1, 21919, Note_on_c, 0, 72, 0
1, 21931, Note_on_c, 0, 68, 35
1, 21969, Note_on_c, 0, 68, 0
1, 21983, Note_on_c, 0, 70, 60
1, 21988, Note_on_c, 0, 48, 48
1, 21989, Control_c, 0, 64, 0
1, 21998, Note_on_c, 0, 48, 0
1, 22004, Note_on_c, 0, 58, 17
1, 22017, Note_on_c, 0, 58, 0
1, 22033, Control_c, 0, 64, 127
1, 22034, Note_on_c, 0, 70, 0
1, 22092, Note_on_c, 0, 69, 61
1, 22096, Control_c, 0, 64, 0
1, 22097, Note_on_c, 0, 62, 33
1, 22099, Note_on_c, 0, 58, 30
1, 22112, Note_on_c, 0, 62, 0
1, 22133, Note_on_c, 0, 69, 0
1, 22149, Note_on_c, 0, 66, 27
1, 22162, Note_on_c, 0, 58, 0
1, 22179, Note_on_c, 0, 66, 0
1, 22203, Note_on_c, 0, 67, 61
1, 22242, Control_c, 0, 64, 127
1, 22249, Note_on_c, 0, 67, 0
1, 22261, Note_on_c, 0, 66, 48
1, 22293, Note_on_c, 0, 66, 0
1, 22312, Note_on_c, 0, 65, 55
1, 22314, Note_on_c, 0, 51, 27
1, 22314, Note_on_c, 0, 41, 38
1, 22327, Control_c, 0, 64, 0
1, 22337, Note_on_c, 0, 65, 0
1, 22382, Note_on_c, 0, 55, 67
1, 22432, Note_on_c, 0, 55, 0
1, 22456, Note_on_c, 0, 57, 66
1, 22492, Note_on_c, 0, 57, 0
1, 22504, Note_on_c, 0, 58, 74
1, 22517, Note_on_c, 0, 41, 0
1, 22547, Note_on_c, 0, 58, 0
1, 22556, Note_on_c, 0, 59, 80
1, 22571, Note_on_c, 0, 51, 0
1, 22597, Note_on_c, 0, 59, 0
1, 22603, Control_c, 0, 64, 127
1, 22609, Note_on_c, 0, 60, 74
1, 22654, Note_on_c, 0, 60, 0
1, 22666, Note_on_c, 0, 62, 71
1, 22668, Control_c, 0, 64, 0
1, 22668, Note_on_c, 0, 50, 35
1, 22707, Note_on_c, 0, 62, 0
1, 22728, Control_c, 0, 64, 127
1, 22778, Note_on_c, 0, 57, 39
1, 22833, Note_on_c, 0, 60, 67
1, 22868, Note_on_c, 0, 50, 0
1, 22873, Note_on_c, 0, 57, 0
1, 22885, Note_on_c, 0, 60, 0
1, 22891, Note_on_c, 0, 65, 70
1, 22917, Note_on_c, 0, 65, 0
1, 22942, Note_on_c, 0, 69, 82
1, 22978, Note_on_c, 0, 69, 0
1, 22996, Note_on_c, 0, 64, 44
1, 22998, Note_on_c, 0, 61, 46
1, 22999, Note_on_c, 0, 70, 71
1, 23001, Note_on_c, 0, 58, 40
1, 23002, Control_c, 0, 64, 0
1, 23038, Note_on_c, 0, 64, 0
1, 23049, Note_on_c, 0, 70, 0
1, 23058, Note_on_c, 0, 64, 47
1, 23093, Note_on_c, 0, 64, 0
1, 23108, Note_on_c, 0, 65, 66
1, 23140, Note_on_c, 0, 65, 0
1, 23140, Note_on_c, 0, 61, 0
1, 23158, Note_on_c, 0, 67, 77
1, 23163, Note_on_c, 0, 61, 30
1, 23164, Note_on_c, 0, 64, 37
1, 23166, Control_c, 0, 64, 127
1, 23179, Note_on_c, 0, 64, 0
1, 23196, Note_on_c, 0, 61, 0
1, 23199, Note_on_c, 0, 67, 0
1, 23204, Note_on_c, 0, 58, 0
1, 23207, Note_on_c, 0, 69, 75
1, 23239, Note_on_c, 0, 69, 0
1, 23258, Note_on_c, 0, 70, 72
1, 23298, Note_on_c, 0, 70, 0
1, 23309, Note_on_c, 0, 58, 43
1, 23311, Note_on_c, 0, 74, 80
1, 23313, Control_c, 0, 64, 0
1, 23316, Note_on_c, 0, 48, 28
1, 23323, Note_on_c, 0, 48, 0
1, 23337, Note_on_c, 0, 58, 0
1, 23344, Control_c, 0, 64, 127
1, 23352, Note_on_c, 0, 74, 0
1, 23366, Note_on_c, 0, 71, 41
1, 23396, Note_on_c, 0, 71, 0
1, 23412, Note_on_c, 0, 72, 63
1, 23414, Control_c, 0, 64, 0
1, 23417, Note_on_c, 0, 62, 41
1, 23417, Note_on_c, 0, 58, 34
1, 23419, Note_on_c, 0, 67, 38
1, 23419, Note_on_c, 0, 63, 30
1, 23464, Note_on_c, 0, 74, 71
1, 23470, Note_on_c, 0, 67, 0
1, 23473, Note_on_c, 0, 72, 0
1, 23474, Note_on_c, 0, 62, 0
1, 23477, Control_c, 0, 64, 127
1, 23482, Note_on_c, 0, 63, 0
1, 23483, Note_on_c, 0, 58, 0
1, 23489, Note_on_c, 0, 74, 0
1, 23512, Note_on_c, 0, 75, 51
1, 23538, Note_on_c, 0, 75, 0
1, 23561, Note_on_c, 0, 77, 66
1, 23597, Control_c, 0, 64, 0
1, 23601, Note_on_c, 0, 41, 41
1, 23603, Note_on_c, 0, 77, 0
1, 23611, Note_on_c, 0, 41, 0
1, 23612, Note_on_c, 0, 78, 58
1, 23642, Control_c, 0, 64, 127
1, 23649, Note_on_c, 0, 78, 0
1, 23661, Note_on_c, 0, 80, 56
1, 23662, Control_c, 0, 64, 0
1, 23689, Note_on_c, 0, 80, 0
1, 23703, Note_on_c, 0, 51, 38
1, 23704, Note_on_c, 0, 62, 44
1, 23708, Note_on_c, 0, 81, 55
1, 23712, Note_on_c, 0, 57, 37
1, 23727, Note_on_c, 0, 62, 0
1, 23729, Note_on_c, 0, 57, 0
1, 23733, Note_on_c, 0, 81, 0
1, 23743, Note_on_c, 0, 51, 0
1, 23756, Note_on_c, 0, 83, 64
1, 23776, Note_on_c, 0, 83, 0
1, 23801, Note_on_c, 0, 84, 71
1, 23803, Control_c, 0, 64, 127
1, 23823, Note_on_c, 0, 84, 0
1, 23851, Note_on_c, 0, 86, 60
1, 23873, Note_on_c, 0, 86, 0
1, 23897, Note_on_c, 0, 89, 75
1, 23898, Control_c, 0, 64, 0
1, 23902, Note_on_c, 0, 50, 44
1, 23903, Note_on_c, 0, 58, 27
1, 23910, Note_on_c, 0, 50, 0
1, 23919, Note_on_c, 0, 58, 0
1, 23924, Note_on_c, 0, 89, 0
1, 23949, Note_on_c, 0, 77, 51
1, 23981, Note_on_c, 0, 77, 0
1, 23998, Note_on_c, 0, 58, 45
1, 24001, Note_on_c, 0, 62, 42
1, 24041, Note_on_c, 0, 62, 0
1, 24045, Note_on_c, 0, 58, 0
1, 24063, Note_on_c, 0, 77, 58
1, 24080, Note_on_c, 0, 77, 0
1, 24107, Note_on_c, 0, 81, 62
1, 24128, Note_on_c, 0, 81, 0
1, 24131, Control_c, 0, 64, 127
1, 24156, Note_on_c, 0, 82, 69
1, 24178, Note_on_c, 0, 82, 0
1, 24198, Control_c, 0, 64, 0
1, 24202, Note_on_c, 0, 40, 72
1, 24203, Note_on_c, 0, 52, 65
1, 24214, Note_on_c, 0, 52, 0
1, 24219, Note_on_c, 0, 40, 0
1, 24224, Control_c, 0, 64, 127
1, 24316, Note_on_c, 0, 66, 57
1, 24317, Note_on_c, 0, 56, 52
1, 24317, Note_on_c, 0, 62, 60
1, 24374, Note_on_c, 0, 66, 0
1, 24389, Note_on_c, 0, 62, 0
1, 24398, Note_on_c, 0, 56, 0
1, 24476, Note_on_c, 0, 82, 86
1, 24477, Note_on_c, 0, 94, 76
1, 24479, Note_on_c, 0, 92, 75
1, 24493, Note_on_c, 0, 94, 0
1, 24509, Note_on_c, 0, 92, 0
1, 24511, Note_on_c, 0, 82, 0
1, 24523, Control_c, 0, 64, 0
1, 24523, Note_on_c, 0, 39, 55
1, 24526, Note_on_c, 0, 46, 53
1, 24527, Note_on_c, 0, 93, 82
1, 24529, Note_on_c, 0, 81, 71
1, 24531, Note_on_c, 0, 86, 74
1, 24539, Note_on_c, 0, 91, 30
1, 24541, Note_on_c, 0, 39, 0
1, 24549, Note_on_c, 0, 46, 0
1, 24552, Control_c, 0, 64, 127
1, 24637, Note_on_c, 0, 62, 55
1, 24639, Note_on_c, 0, 67, 29
1, 24648, Note_on_c, 0, 60, 34
1, 24648, Note_on_c, 0, 55, 18
1, 24651, Note_on_c, 0, 67, 0
1, 24688, Note_on_c, 0, 55, 0
1, 24714, Note_on_c, 0, 81, 0
1, 24714, Note_on_c, 0, 91, 0
1, 24715, Note_on_c, 0, 93, 0
1, 24718, Note_on_c, 0, 86, 0
1, 24719, Note_on_c, 0, 62, 0
1, 24724, Note_on_c, 0, 60, 0
1, 24804, Note_on_c, 0, 94, 77
1, 24806, Note_on_c, 0, 82, 72
1, 24824, Note_on_c, 0, 82, 0
1, 24836, Note_on_c, 0, 94, 0
1, 24841, Control_c, 0, 64, 0
1, 24849, Note_on_c, 0, 43, 63
1, 24851, Note_on_c, 0, 95, 70
1, 24857, Note_on_c, 0, 87, 78
1, 24857, Note_on_c, 0, 93, 48
1, 24859, Note_on_c, 0, 91, 67
1, 24864, Note_on_c, 0, 83, 62
1, 24865, Note_on_c, 0, 43, 0
1, 24868, Note_on_c, 0, 93, 0
1, 24887, Control_c, 0, 64, 127
1, 24899, Note_on_c, 0, 88, 68
1, 24903, Note_on_c, 0, 87, 0
1, 24908, Note_on_c, 0, 95, 0
1, 24919, Note_on_c, 0, 83, 0
1, 24950, Note_on_c, 0, 88, 0
1, 24958, Note_on_c, 0, 63, 43
1, 24960, Note_on_c, 0, 91, 0
1, 24963, Note_on_c, 0, 59, 54
1, 24963, Note_on_c, 0, 53, 35
1, 25049, Note_on_c, 0, 59, 0
1, 25049, Note_on_c, 0, 63, 0
1, 25060, Note_on_c, 0, 53, 0
1, 25141, Note_on_c, 0, 55, 55
1, 25173, Note_on_c, 0, 55, 0
1, 25189, Control_c, 0, 64, 0
1, 25193, Note_on_c, 0, 48, 53
1, 25198, Note_on_c, 0, 58, 36
1, 25254, Control_c, 0, 64, 127
1, 25282, Note_on_c, 0, 55, 28
1, 25288, Control_c, 0, 64, 0
1, 25302, Note_on_c, 0, 62, 58
1, 25309, Note_on_c, 0, 58, 0
1, 25310, Note_on_c, 0, 62, 0
1, 25319, Note_on_c, 0, 63, 58
1, 25334, Note_on_c, 0, 55, 0
1, 25336, Note_on_c, 0, 62, 53
1, 25346, Note_on_c, 0, 63, 0
1, 25358, Note_on_c, 0, 62, 0
1, 25366, Note_on_c, 0, 59, 39
1, 25389, Note_on_c, 0, 59, 0
1, 25395, Note_on_c, 0, 48, 0
1, 25397, Note_on_c, 0, 60, 54
1, 25429, Note_on_c, 0, 60, 0
1, 25468, Note_on_c, 0, 62, 77
1, 25488, Note_on_c, 0, 62, 0
1, 25519, Note_on_c, 0, 63, 74
1, 25527, Note_on_c, 0, 43, 53
1, 25535, Note_on_c, 0, 43, 0
1, 25540, Note_on_c, 0, 63, 0
1, 25576, Note_on_c, 0, 65, 61
1, 25591, Note_on_c, 0, 65, 0
1, 25626, Note_on_c, 0, 67, 76
1, 25629, Note_on_c, 0, 59, 55
1, 25629, Note_on_c, 0, 53, 55
1, 25632, Note_on_c, 0, 63, 51
1, 25707, Control_c, 0, 64, 127
1, 25712, Note_on_c, 0, 63, 0
1, 25725, Note_on_c, 0, 59, 0
1, 25736, Note_on_c, 0, 53, 0
1, 25738, Note_on_c, 0, 68, 74
1, 25743, Note_on_c, 0, 67, 0
1, 25769, Note_on_c, 0, 68, 0
1, 25771, Note_on_c, 0, 70, 74
1, 25798, Note_on_c, 0, 70, 0
1, 25806, Note_on_c, 0, 71, 75
1, 25824, Control_c, 0, 64, 0
1, 25832, Note_on_c, 0, 71, 0
1, 25839, Note_on_c, 0, 48, 53
1, 25841, Note_on_c, 0, 74, 94
1, 25847, Note_on_c, 0, 48, 0
1, 25906, Note_on_c, 0, 71, 80
1, 25908, Note_on_c, 0, 74, 0
1, 25939, Note_on_c, 0, 71, 0
1, 25946, Note_on_c, 0, 63, 48
1, 25946, Note_on_c, 0, 67, 49
1, 25951, Note_on_c, 0, 72, 76
1, 25969, Note_on_c, 0, 63, 0
1, 25972, Note_on_c, 0, 67, 0
1, 25991, Note_on_c, 0, 72, 0
1, 26004, Note_on_c, 0, 74, 80
1, 26030, Note_on_c, 0, 74, 0
1, 26047, Note_on_c, 0, 75, 57
1, 26078, Note_on_c, 0, 75, 0
1, 26092, Control_c, 0, 64, 127
1, 26098, Note_on_c, 0, 76, 60
1, 26131, Note_on_c, 0, 76, 0
1, 26139, Control_c, 0, 64, 0
1, 26142, Note_on_c, 0, 41, 39
1, 26148, Note_on_c, 0, 77, 64
1, 26152, Note_on_c, 0, 41, 0
1, 26171, Control_c, 0, 64, 127
1, 26173, Note_on_c, 0, 77, 0
1, 26246, Control_c, 0, 64, 0
1, 26251, Note_on_c, 0, 62, 47
1, 26253, Note_on_c, 0, 51, 33
1, 26253, Note_on_c, 0, 79, 56
1, 26254, Note_on_c, 0, 67, 55
1, 26259, Note_on_c, 0, 57, 35
1, 26267, Note_on_c, 0, 67, 0
1, 26274, Note_on_c, 0, 79, 0
1, 26301, Control_c, 0, 64, 127
1, 26327, Control_c, 0, 64, 0
1, 26349, Control_c, 0, 64, 127
1, 26355, Note_on_c, 0, 57, 0
1, 26360, Note_on_c, 0, 51, 0
1, 26361, Note_on_c, 0, 69, 62
1, 26361, Note_on_c, 0, 81, 57
1, 26366, Note_on_c, 0, 62, 0
1, 26374, Note_on_c, 0, 81, 0
1, 26377, Note_on_c, 0, 69, 0
1, 26461, Note_on_c, 0, 82, 73
1, 26467, Note_on_c, 0, 79, 66
1, 26469, Note_on_c, 0, 75, 58
1, 26469, Control_c, 0, 64, 0
1, 26471, Note_on_c, 0, 70, 64
1, 26474, Note_on_c, 0, 60, 43
1, 26476, Note_on_c, 0, 63, 50
1, 26508, Control_c, 0, 64, 127
1, 26571, Note_on_c, 0, 58, 49
1, 26588, Note_on_c, 0, 79, 0
1, 26605, Note_on_c, 0, 75, 0
1, 26641, Note_on_c, 0, 70, 0
1, 26657, Note_on_c, 0, 63, 0
1, 26660, Note_on_c, 0, 60, 0
1, 26664, Note_on_c, 0, 58, 0
1, 26664, Note_on_c, 0, 82, 0
1, 26676, Note_on_c, 0, 75, 57
1, 26694, Note_on_c, 0, 75, 0
1, 26734, Note_on_c, 0, 46, 55
1, 26786, Note_on_c, 0, 66, 55
1, 26788, Note_on_c, 0, 62, 43
1, 26788, Note_on_c, 0, 72, 57
1, 26791, Note_on_c, 0, 56, 45
1, 26794, Control_c, 0, 64, 0
1, 26813, Note_on_c, 0, 66, 0
1, 26818, Note_on_c, 0, 67, 46
1, 26888, Control_c, 0, 64, 127
1, 26974, Note_on_c, 0, 72, 0
1, 26976, Note_on_c, 0, 62, 0
1, 26977, Note_on_c, 0, 56, 0
1, 26998, Note_on_c, 0, 67, 0
1, 26999, Note_on_c, 0, 46, 0
1, 27006, Note_on_c, 0, 70, 54
1, 27067, Note_on_c, 0, 70, 0
1, 27097, Control_c, 0, 64, 0
1, 27114, Note_on_c, 0, 39, 50
1, 27162, Note_on_c, 0, 39, 0
1, 27176, Note_on_c, 0, 46, 39
1, 27229, Note_on_c, 0, 60, 60
1, 27231, Note_on_c, 0, 72, 50
1, 27232, Note_on_c, 0, 65, 57
1, 27232, Note_on_c, 0, 55, 49
1, 27244, Note_on_c, 0, 55, 0
1, 27244, Note_on_c, 0, 72, 0
1, 27247, Note_on_c, 0, 65, 0
1, 27249, Note_on_c, 0, 60, 0
1, 27261, Note_on_c, 0, 46, 0
1, 27336, Note_on_c, 0, 60, 52
1, 27336, Note_on_c, 0, 72, 55
1, 27337, Note_on_c, 0, 65, 56
1, 27343, Note_on_c, 0, 55, 38
1, 27354, Note_on_c, 0, 60, 0
1, 27356, Note_on_c, 0, 55, 0
1, 27359, Note_on_c, 0, 65, 0
1, 27374, Note_on_c, 0, 72, 0
1, 27496, Note_on_c, 0, 81, 81
1, 27497, Note_on_c, 0, 70, 83
1, 27497, Note_on_c, 0, 73, 77
1, 27499, Note_on_c, 0, 69, 80
1, 27501, Note_on_c, 0, 76, 69
1, 27521, Control_c, 0, 64, 127
1, 27549, Control_c, 0, 64, 0
1, 27554, Note_on_c, 0, 69, 0
1, 27554, Note_on_c, 0, 68, 54
1, 27564, Note_on_c, 0, 81, 0
1, 27565, Note_on_c, 0, 73, 0
1, 27568, Note_on_c, 0, 70, 0
1, 27568, Note_on_c, 0, 76, 0
1, 27600, Note_on_c, 0, 68, 0
1, 27607, Note_on_c, 0, 70, 87
1, 27608, Note_on_c, 0, 67, 68
1, 27609, Note_on_c, 0, 73, 67
1, 27612, Note_on_c, 0, 76, 62
1, 27612, Note_on_c, 0, 79, 56
1, 27613, Note_on_c, 0, 78, 33
1, 27625, Note_on_c, 0, 79, 0
1, 27637, Note_on_c, 0, 73, 0
1, 27638, Note_on_c, 0, 76, 0
1, 27638, Note_on_c, 0, 70, 0
1, 27639, Note_on_c, 0, 78, 0
1, 27665, Note_on_c, 0, 67, 0
1, 27667, Note_on_c, 0, 66, 34
1, 27688, Note_on_c, 0, 66, 0
1, 27714, Note_on_c, 0, 63, 45
1, 27718, Control_c, 0, 64, 127
1, 27756, Note_on_c, 0, 63, 0
1, 27768, Control_c, 0, 64, 0
1, 27769, Note_on_c, 0, 70, 64
1, 27769, Note_on_c, 0, 65, 74
1, 27769, Note_on_c, 0, 77, 66
1, 27769, Note_on_c, 0, 74, 68
1, 27831, Control_c, 0, 64, 127
1, 27846, Control_c, 0, 64, 0
1, 27878, Note_on_c, 0, 53, 61
1, 27906, Control_c, 0, 64, 127
1, 27927, Note_on_c, 0, 65, 0
1, 27952, Note_on_c, 0, 70, 0
1, 27980, Note_on_c, 0, 74, 0
1, 27984, Note_on_c, 0, 77, 0
1, 27986, Note_on_c, 0, 70, 46
1, 27989, Note_on_c, 0, 65, 34
1, 28004, Note_on_c, 0, 65, 0
1, 28007, Note_on_c, 0, 70, 0
1, 28098, Note_on_c, 0, 74, 62
1, 28101, Note_on_c, 0, 63, 40
1, 28102, Note_on_c, 0, 70, 47
1, 28105, Note_on_c, 0, 53, 0
1, 28106, Control_c, 0, 64, 0
1, 28106, Note_on_c, 0, 67, 43
1, 28187, Control_c, 0, 64, 127
1, 28193, Note_on_c, 0, 65, 8
1, 28252, Note_on_c, 0, 67, 0
1, 28259, Note_on_c, 0, 63, 0
1, 28272, Note_on_c, 0, 70, 0
1, 28273, Note_on_c, 0, 65, 0
1, 28298, Note_on_c, 0, 74, 0
1, 28312, Note_on_c, 0, 63, 31
1, 28313, Note_on_c, 0, 72, 47
1, 28316, Note_on_c, 0, 70, 25
1, 28318, Note_on_c, 0, 67, 38
1, 28350, Note_on_c, 0, 67, 0
1, 28354, Note_on_c, 0, 72, 0
1, 28359, Note_on_c, 0, 70, 0
1, 28367, Note_on_c, 0, 63, 0
1, 28376, Note_on_c, 0, 53, 36
1, 28426, Note_on_c, 0, 70, 46
1, 28431, Control_c, 0, 64, 0
1, 28431, Note_on_c, 0, 62, 35
1, 28432, Note_on_c, 0, 60, 35
1, 28433, Note_on_c, 0, 65, 48
1, 28491, Control_c, 0, 64, 127
1, 28527, Note_on_c, 0, 53, 0
1, 28591, Note_on_c, 0, 41, 50
1, 28605, Note_on_c, 0, 65, 0
1, 28609, Note_on_c, 0, 70, 0
1, 28612, Note_on_c, 0, 62, 0
1, 28620, Note_on_c, 0, 60, 0
1, 28628, Note_on_c, 0, 41, 0
1, 28721, Note_on_c, 0, 41, 38
1, 28778, Note_on_c, 0, 63, 42
1, 28778, Note_on_c, 0, 54, 37
1, 28781, Note_on_c, 0, 59, 56
1, 28782, Control_c, 0, 64, 0
1, 28829, Control_c, 0, 64, 127
1, 28878, Note_on_c, 0, 54, 0
1, 28893, Note_on_c, 0, 59, 0
1, 28906, Note_on_c, 0, 63, 0
1, 28923, Note_on_c, 0, 41, 0
1, 29059, Note_on_c, 0, 77, 60
1, 29099, Control_c, 0, 64, 0
1, 29099, Note_on_c, 0, 50, 44
1, 29104, Note_on_c, 0, 58, 19
1, 29107, Note_on_c, 0, 74, 47
1, 29112, Note_on_c, 0, 50, 0
1, 29127, Note_on_c, 0, 58, 0
1, 29136, Control_c, 0, 64, 127
1, 29176, Note_on_c, 0, 77, 0
1, 29197, Note_on_c, 0, 74, 0
1, 29207, Note_on_c, 0, 58, 33
1, 29211, Note_on_c, 0, 62, 29
1, 29238, Note_on_c, 0, 62, 0
1, 29262, Note_on_c, 0, 58, 0
1, 29397, Note_on_c, 0, 73, 77
1, 29433, Control_c, 0, 64, 0
1, 29442, Note_on_c, 0, 40, 47
1, 29447, Note_on_c, 0, 66, 58
1, 29448, Note_on_c, 0, 73, 0
1, 29451, Note_on_c, 0, 61, 44
1, 29458, Note_on_c, 0, 40, 0
1, 29463, Note_on_c, 0, 66, 0
1, 29472, Control_c, 0, 64, 127
1, 29502, Note_on_c, 0, 61, 0
1, 29559, Note_on_c, 0, 56, 36
1, 29561, Note_on_c, 0, 66, 43
1, 29562, Note_on_c, 0, 62, 37
1, 29574, Note_on_c, 0, 62, 0
1, 29577, Note_on_c, 0, 66, 0
1, 29582, Note_on_c, 0, 56, 0
1, 29739, Note_on_c, 0, 81, 91
1, 29775, Note_on_c, 0, 81, 0
1, 29778, Control_c, 0, 64, 0
1, 29778, Note_on_c, 0, 39, 50
1, 29783, Note_on_c, 0, 77, 41
1, 29784, Note_on_c, 0, 46, 39
1, 29788, Note_on_c, 0, 74, 55
1, 29791, Note_on_c, 0, 69, 58
1, 29804, Note_on_c, 0, 39, 0
1, 29809, Note_on_c, 0, 46, 0
1, 29816, Control_c, 0, 64, 127
1, 29864, Note_on_c, 0, 69, 0
1, 29886, Note_on_c, 0, 74, 0
1, 29894, Note_on_c, 0, 62, 36
1, 29898, Note_on_c, 0, 60, 45
1, 29898, Note_on_c, 0, 65, 35
1, 29898, Note_on_c, 0, 55, 34
1, 29899, Note_on_c, 0, 77, 0
1, 29918, Note_on_c, 0, 65, 0
1, 29940, Note_on_c, 0, 62, 0
1, 29940, Note_on_c, 0, 60, 0
1, 29941, Note_on_c, 0, 55, 0
1, 30093, Note_on_c, 0, 79, 95
1, 30127, Control_c, 0, 64, 0
1, 30130, Note_on_c, 0, 79, 0
1, 30133, Note_on_c, 0, 43, 57
1, 30138, Note_on_c, 0, 71, 55
1, 30138, Note_on_c, 0, 75, 65
1, 30153, Note_on_c, 0, 43, 0
1, 30164, Control_c, 0, 64, 127
1, 30251, Note_on_c, 0, 59, 28
1, 30251, Note_on_c, 0, 63, 32
1, 30257, Note_on_c, 0, 53, 34
1, 30299, Note_on_c, 0, 63, 0
1, 30301, Note_on_c, 0, 59, 0
1, 30302, Note_on_c, 0, 53, 0
1, 30313, Note_on_c, 0, 75, 0
1, 30328, Note_on_c, 0, 71, 0
1, 30426, Note_on_c, 0, 77, 61
1, 30426, Note_on_c, 0, 79, 57
1, 30439, Note_on_c, 0, 79, 0
1, 30457, Note_on_c, 0, 77, 0
1, 30463, Control_c, 0, 64, 0
1, 30468, Note_on_c, 0, 69, 46
1, 30469, Note_on_c, 0, 74, 41
1, 30471, Note_on_c, 0, 58, 33
1, 30472, Note_on_c, 0, 70, 47
1, 30497, Note_on_c, 0, 58, 0
1, 30499, Control_c, 0, 64, 127
1, 30540, Note_on_c, 0, 69, 0
1, 30578, Note_on_c, 0, 70, 0
1, 30581, Note_on_c, 0, 67, 36
1, 30582, Note_on_c, 0, 74, 0
1, 30583, Note_on_c, 0, 63, 33
1, 30584, Note_on_c, 0, 62, 36
1, 30586, Note_on_c, 0, 58, 25
1, 30632, Note_on_c, 0, 67, 0
1, 30641, Note_on_c, 0, 62, 0
1, 30649, Note_on_c, 0, 63, 0
1, 30662, Note_on_c, 0, 58, 0
1, 30752, Note_on_c, 0, 77, 80
1, 30780, Note_on_c, 0, 77, 0
1, 30796, Note_on_c, 0, 75, 63
1, 30798, Control_c, 0, 64, 0
1, 30798, Note_on_c, 0, 73, 71
1, 30802, Note_on_c, 0, 43, 44
1, 30807, Note_on_c, 0, 70, 29
1, 30807, Note_on_c, 0, 71, 43
1, 30808, Note_on_c, 0, 53, 43
1, 30815, Note_on_c, 0, 43, 0
1, 30816, Note_on_c, 0, 69, 32
1, 30828, Note_on_c, 0, 70, 0
1, 30828, Note_on_c, 0, 53, 0
1, 30846, Control_c, 0, 64, 127
1, 30908, Note_on_c, 0, 63, 33
1, 30911, Note_on_c, 0, 59, 45
1, 30940, Note_on_c, 0, 71, 0
1, 30946, Note_on_c, 0, 73, 0
1, 30948, Note_on_c, 0, 75, 0
1, 30964, Note_on_c, 0, 69, 0
1, 30983, Note_on_c, 0, 63, 0
1, 30984, Note_on_c, 0, 59, 0
1, 31072, Note_on_c, 0, 67, 65
1, 31092, Note_on_c, 0, 67, 0
1, 31126, Note_on_c, 0, 74, 68
1, 31127, Note_on_c, 0, 64, 60
1, 31127, Note_on_c, 0, 58, 51
1, 31128, Note_on_c, 0, 66, 44
1, 31129, Control_c, 0, 64, 0
1, 31132, Note_on_c, 0, 69, 58
1, 31176, Control_c, 0, 64, 127
1, 31314, Note_on_c, 0, 74, 0
1, 31362, Note_on_c, 0, 69, 0
1, 31375, Note_on_c, 0, 58, 0
1, 31384, Note_on_c, 0, 64, 0
1, 31390, Note_on_c, 0, 66, 0
1, 31421, Note_on_c, 0, 72, 50
1, 31442, Note_on_c, 0, 72, 0
1, 31473, Control_c, 0, 64, 0
1, 31478, Note_on_c, 0, 72, 51
1, 31479, Note_on_c, 0, 66, 37
1, 31481, Note_on_c, 0, 62, 41
1, 31484, Note_on_c, 0, 69, 49
1, 31486, Note_on_c, 0, 57, 36
1, 31524, Control_c, 0, 64, 127
1, 31546, Note_on_c, 0, 62, 0
1, 31555, Note_on_c, 0, 69, 0
1, 31560, Note_on_c, 0, 66, 0
1, 31563, Note_on_c, 0, 72, 0
1, 31616, Note_on_c, 0, 57, 0
1, 31648, Note_on_c, 0, 74, 89
1, 31681, Note_on_c, 0, 74, 0
1, 31699, Note_on_c, 0, 75, 64
1, 31725, Note_on_c, 0, 75, 0
1, 31751, Note_on_c, 0, 76, 67
1, 31782, Note_on_c, 0, 76, 0
1, 31802, Note_on_c, 0, 77, 70
1, 31802, Note_on_c, 0, 60, 33
1, 31806, Control_c, 0, 64, 0
1, 31806, Note_on_c, 0, 50, 42
1, 31847, Control_c, 0, 64, 127
1, 31855, Note_on_c, 0, 60, 0
1, 31905, Note_on_c, 0, 77, 0
1, 31913, Note_on_c, 0, 65, 44
1, 31913, Note_on_c, 0, 69, 35
1, 31916, Note_on_c, 0, 60, 30
1, 31916, Note_on_c, 0, 57, 29
1, 31950, Note_on_c, 0, 69, 0
1, 31951, Note_on_c, 0, 65, 0
1, 31973, Note_on_c, 0, 50, 0
1, 31979, Note_on_c, 0, 57, 0
1, 31994, Note_on_c, 0, 60, 0
1, 32026, Note_on_c, 0, 77, 88
1, 32053, Note_on_c, 0, 77, 0
1, 32127, Note_on_c, 0, 81, 77
1, 32131, Note_on_c, 0, 70, 72
1, 32132, Note_on_c, 0, 73, 63
1, 32133, Note_on_c, 0, 76, 68
1, 32133, Control_c, 0, 64, 0
1, 32134, Note_on_c, 0, 69, 75
1, 32186, Note_on_c, 0, 69, 0
1, 32187, Note_on_c, 0, 68, 57
1, 32211, Note_on_c, 0, 70, 0
1, 32211, Note_on_c, 0, 76, 0
1, 32213, Note_on_c, 0, 73, 0
1, 32222, Note_on_c, 0, 81, 0
1, 32229, Note_on_c, 0, 68, 0
1, 32242, Note_on_c, 0, 79, 60
1, 32243, Note_on_c, 0, 70, 58
1, 32244, Note_on_c, 0, 67, 60
1, 32247, Note_on_c, 0, 73, 43
1, 32289, Control_c, 0, 64, 127
1, 32296, Note_on_c, 0, 76, 1
1, 32364, Note_on_c, 0, 79, 0
1, 32382, Note_on_c, 0, 76, 0
1, 32385, Note_on_c, 0, 67, 0
1, 32393, Note_on_c, 0, 70, 0
1, 32393, Note_on_c, 0, 73, 0
1, 32427, Note_on_c, 0, 63, 36
1, 32438, Note_on_c, 0, 63, 0
1, 32472, Control_c, 0, 64, 0
1, 32476, Note_on_c, 0, 77, 60
1, 32476, Note_on_c, 0, 70, 46
1, 32478, Note_on_c, 0, 74, 57
1, 32478, Note_on_c, 0, 67, 44
1, 32482, Note_on_c, 0, 65, 53
1, 32513, Note_on_c, 0, 74, 0
1, 32518, Note_on_c, 0, 77, 0
1, 32518, Control_c, 0, 64, 127
1, 32520, Note_on_c, 0, 67, 0
1, 32522, Note_on_c, 0, 70, 0
1, 32523, Note_on_c, 0, 65, 0
1, 32576, Control_c, 0, 64, 0
1, 32587, Note_on_c, 0, 74, 60
1, 32593, Note_on_c, 0, 70, 46
1, 32597, Note_on_c, 0, 67, 38
1, 32597, Note_on_c, 0, 62, 35
1, 32598, Note_on_c, 0, 63, 27
1, 32619, Control_c, 0, 64, 127
1, 32634, Note_on_c, 0, 70, 0
1, 32637, Note_on_c, 0, 67, 0
1, 32638, Note_on_c, 0, 63, 0
1, 32652, Note_on_c, 0, 74, 0
1, 32657, Note_on_c, 0, 62, 0
1, 32664, Note_on_c, 0, 58, 37
1, 32664, Note_on_c, 0, 70, 37
1, 32666, Note_on_c, 0, 67, 36
1, 32666, Note_on_c, 0, 63, 43
1, 32674, Control_c, 0, 64, 0
1, 32686, Note_on_c, 0, 67, 0
1, 32687, Note_on_c, 0, 63, 0
1, 32687, Note_on_c, 0, 58, 0
1, 32694, Note_on_c, 0, 70, 0
1, 32753, Control_c, 0, 64, 127
1, 32754, Note_on_c, 0, 43, 57
1, 32761, Note_on_c, 0, 43, 0
1, 32813, Control_c, 0, 64, 0
1, 32819, Note_on_c, 0, 66, 44
1, 32821, Note_on_c, 0, 62, 40
1, 32822, Note_on_c, 0, 72, 43
1, 32824, Note_on_c, 0, 51, 39
1, 32824, Note_on_c, 0, 69, 50
1, 32826, Note_on_c, 0, 57, 35
1, 32857, Control_c, 0, 64, 127
1, 32909, Note_on_c, 0, 62, 0
1, 32909, Note_on_c, 0, 66, 0
1, 32929, Note_on_c, 0, 69, 0
1, 32934, Note_on_c, 0, 66, 56
1, 32974, Note_on_c, 0, 66, 0
1, 32974, Note_on_c, 0, 57, 0
1, 32985, Note_on_c, 0, 72, 0
1, 33005, Note_on_c, 0, 65, 57
1, 33008, Control_c, 0, 64, 0
1, 33009, Note_on_c, 0, 51, 0
1, 33017, Note_on_c, 0, 65, 0
1, 33086, Control_c, 0, 64, 127
1, 33146, Control_c, 0, 64, 0
1, 33153, Note_on_c, 0, 60, 49
1, 33156, Note_on_c, 0, 65, 48
1, 33156, Note_on_c, 0, 57, 48
1, 33157, Note_on_c, 0, 50, 47
1, 33179, Note_on_c, 0, 57, 0
1, 33184, Control_c, 0, 64, 127
1, 33203, Note_on_c, 0, 60, 0
1, 33209, Note_on_c, 0, 65, 0
1, 33226, Note_on_c, 0, 38, 58
1, 33234, Note_on_c, 0, 38, 0
1, 33244, Note_on_c, 0, 50, 0
1, 33326, Note_on_c, 0, 50, 69
1, 33383, Note_on_c, 0, 65, 77
1, 33384, Note_on_c, 0, 60, 64
1, 33393, Note_on_c, 0, 50, 0
1, 33401, Note_on_c, 0, 60, 0
1, 33413, Note_on_c, 0, 65, 0
1, 33434, Note_on_c, 0, 69, 74
1, 33441, Note_on_c, 0, 69, 0
1, 33484, Control_c, 0, 64, 0
1, 33491, Note_on_c, 0, 81, 76
1, 33492, Note_on_c, 0, 73, 76
1, 33492, Note_on_c, 0, 69, 87
1, 33493, Note_on_c, 0, 70, 78
1, 33496, Note_on_c, 0, 76, 70
1, 33528, Note_on_c, 0, 81, 0
1, 33531, Note_on_c, 0, 70, 0
1, 33532, Note_on_c, 0, 73, 0
1, 33542, Note_on_c, 0, 76, 0
1, 33548, Note_on_c, 0, 69, 0
1, 33548, Note_on_c, 0, 68, 64
1, 33593, Note_on_c, 0, 68, 0
1, 33602, Note_on_c, 0, 79, 71
1, 33604, Note_on_c, 0, 67, 64
1, 33606, Note_on_c, 0, 70, 59
1, 33606, Note_on_c, 0, 73, 63
1, 33612, Note_on_c, 0, 76, 38
1, 33633, Note_on_c, 0, 76, 0
1, 33639, Note_on_c, 0, 79, 0
1, 33644, Note_on_c, 0, 73, 0
1, 33646, Note_on_c, 0, 70, 0
1, 33655, Note_on_c, 0, 67, 0
1, 33661, Note_on_c, 0, 66, 50
1, 33702, Note_on_c, 0, 66, 0
1, 33717, Note_on_c, 0, 70, 50
1, 33718, Note_on_c, 0, 67, 41
1, 33718, Note_on_c, 0, 65, 53
1, 33719, Note_on_c, 0, 73, 40
1, 33729, Note_on_c, 0, 73, 0
1, 33734, Note_on_c, 0, 70, 0
1, 33735, Note_on_c, 0, 67, 0
1, 33748, Note_on_c, 0, 65, 0
1, 33764, Control_c, 0, 64, 127
1, 33771, Note_on_c, 0, 62, 47
1, 33809, Note_on_c, 0, 62, 0
1, 33812, Control_c, 0, 64, 0
1, 33826, Note_on_c, 0, 63, 62
1, 33827, Note_on_c, 0, 70, 71
1, 33828, Note_on_c, 0, 77, 68
1, 33829, Note_on_c, 0, 67, 71
1, 33831, Note_on_c, 0, 74, 58
1, 33843, Note_on_c, 0, 74, 0
1, 33851, Control_c, 0, 64, 127
1, 33854, Note_on_c, 0, 77, 0
1, 33854, Note_on_c, 0, 63, 0
1, 33859, Note_on_c, 0, 70, 0
1, 33866, Note_on_c, 0, 67, 0
1, 33901, Note_on_c, 0, 59, 24
1, 33908, Control_c, 0, 64, 0
1, 33924, Note_on_c, 0, 59, 0
1, 33936, Note_on_c, 0, 74, 80
1, 33939, Note_on_c, 0, 63, 70
1, 33941, Note_on_c, 0, 67, 73
1, 33944, Note_on_c, 0, 62, 57
1, 34022, Control_c, 0, 64, 127
1, 34039, Note_on_c, 0, 63, 0
1, 34042, Note_on_c, 0, 67, 0
1, 34047, Note_on_c, 0, 74, 0
1, 34052, Note_on_c, 0, 62, 0
1, 34056, Note_on_c, 0, 63, 59
1, 34058, Note_on_c, 0, 72, 63
1, 34061, Note_on_c, 0, 67, 69
1, 34094, Note_on_c, 0, 67, 0
1, 34111, Note_on_c, 0, 63, 0
1, 34116, Note_on_c, 0, 72, 0
1, 34168, Note_on_c, 0, 43, 38
1, 34176, Note_on_c, 0, 43, 0
1, 34229, Note_on_c, 0, 51, 35
1, 34292, Note_on_c, 0, 57, 50
1, 34294, Note_on_c, 0, 61, 34
1, 34296, Note_on_c, 0, 65, 51
1, 34296, Note_on_c, 0, 68, 46
1, 34308, Control_c, 0, 64, 0
1, 34311, Control_c, 0, 64, 127
1, 34402, Note_on_c, 0, 51, 0
1, 34409, Note_on_c, 0, 57, 0
1, 34429, Note_on_c, 0, 65, 0
1, 34439, Note_on_c, 0, 61, 0
1, 34484, Note_on_c, 0, 68, 0
1, 34513, Control_c, 0, 64, 0
1, 34526, Note_on_c, 0, 65, 49
1, 34527, Note_on_c, 0, 62, 46
1, 34528, Note_on_c, 0, 50, 49
1, 34537, Note_on_c, 0, 58, 9
1, 34542, Note_on_c, 0, 62, 0
1, 34544, Note_on_c, 0, 65, 0
1, 34547, Control_c, 0, 64, 127
1, 34550, Note_on_c, 0, 58, 0
1, 34611, Note_on_c, 0, 50, 0
1, 34633, Note_on_c, 0, 58, 40
1, 34642, Note_on_c, 0, 62, 32
1, 34699, Note_on_c, 0, 74, 70
1, 34722, Note_on_c, 0, 74, 0
1, 34731, Note_on_c, 0, 58, 0
1, 34749, Note_on_c, 0, 62, 0
1, 34758, Note_on_c, 0, 83, 89
1, 34795, Note_on_c, 0, 83, 0
1, 34807, Note_on_c, 0, 74, 74
1, 34840, Note_on_c, 0, 74, 0
1, 34869, Note_on_c, 0, 78, 82
1, 34871, Note_on_c, 0, 82, 75
1, 34873, Note_on_c, 0, 66, 48
1, 34877, Note_on_c, 0, 62, 51
1, 34881, Note_on_c, 0, 56, 32
1, 34882, Control_c, 0, 64, 0
1, 34918, Note_on_c, 0, 82, 0
1, 34924, Note_on_c, 0, 78, 0
1, 34924, Control_c, 0, 64, 127
1, 34931, Note_on_c, 0, 73, 46
1, 34964, Note_on_c, 0, 73, 0
1, 34981, Note_on_c, 0, 66, 0
1, 34984, Note_on_c, 0, 78, 61
1, 34986, Note_on_c, 0, 73, 59
1, 35025, Note_on_c, 0, 62, 0
1, 35029, Note_on_c, 0, 78, 0
1, 35033, Note_on_c, 0, 73, 0
1, 35046, Note_on_c, 0, 70, 28
1, 35052, Note_on_c, 0, 56, 0
1, 35066, Note_on_c, 0, 70, 0
1, 35093, Note_on_c, 0, 70, 64
1, 35141, Note_on_c, 0, 70, 0
1, 35148, Note_on_c, 0, 65, 50
1, 35171, Note_on_c, 0, 65, 0
1, 35206, Control_c, 0, 64, 0
1, 35207, Note_on_c, 0, 70, 74
1, 35208, Note_on_c, 0, 77, 72
1, 35208, Note_on_c, 0, 39, 53
1, 35209, Note_on_c, 0, 46, 52
1, 35234, Note_on_c, 0, 39, 0
1, 35239, Control_c, 0, 64, 127
1, 35240, Note_on_c, 0, 46, 0
1, 35251, Note_on_c, 0, 77, 0
1, 35255, Note_on_c, 0, 70, 0
1, 35266, Note_on_c, 0, 69, 52
1, 35281, Note_on_c, 0, 69, 0
1, 35313, Note_on_c, 0, 74, 72
1, 35313, Note_on_c, 0, 62, 37
1, 35316, Note_on_c, 0, 69, 66
1, 35317, Note_on_c, 0, 60, 36
1, 35352, Note_on_c, 0, 69, 0
1, 35373, Note_on_c, 0, 62, 0
1, 35373, Note_on_c, 0, 65, 48
1, 35387, Note_on_c, 0, 60, 0
1, 35388, Note_on_c, 0, 74, 0
1, 35399, Note_on_c, 0, 65, 0
1, 35429, Note_on_c, 0, 67, 66
1, 35469, Note_on_c, 0, 67, 0
1, 35487, Note_on_c, 0, 65, 56
1, 35515, Note_on_c, 0, 65, 0
1, 35542, Note_on_c, 0, 43, 64
1, 35542, Note_on_c, 0, 75, 71
1, 35543, Control_c, 0, 64, 0
1, 35544, Note_on_c, 0, 71, 68
1, 35567, Note_on_c, 0, 43, 0
1, 35583, Control_c, 0, 64, 127
1, 35600, Note_on_c, 0, 75, 0
1, 35602, Note_on_c, 0, 71, 0
1, 35603, Note_on_c, 0, 67, 50
1, 35623, Note_on_c, 0, 67, 0
1, 35648, Control_c, 0, 64, 0
1, 35652, Note_on_c, 0, 53, 37
1, 35652, Note_on_c, 0, 73, 56
1, 35657, Note_on_c, 0, 59, 44
1, 35657, Note_on_c, 0, 63, 37
1, 35657, Note_on_c, 0, 69, 49
1, 35663, Control_c, 0, 64, 127
1, 35694, Note_on_c, 0, 63, 0
1, 35697, Note_on_c, 0, 69, 0
1, 35704, Note_on_c, 0, 73, 0
1, 35714, Note_on_c, 0, 65, 45
1, 35715, Note_on_c, 0, 59, 0
1, 35732, Note_on_c, 0, 65, 0
1, 35738, Note_on_c, 0, 53, 0
1, 35763, Note_on_c, 0, 71, 44
1, 35763, Note_on_c, 0, 67, 57
1, 35789, Note_on_c, 0, 71, 0
1, 35800, Note_on_c, 0, 67, 0
1, 35813, Note_on_c, 0, 63, 47
1, 35839, Note_on_c, 0, 63, 0
1, 35873, Note_on_c, 0, 67, 55
1, 35874, Note_on_c, 0, 58, 37
1, 35874, Note_on_c, 0, 62, 34
1, 35876, Note_on_c, 0, 63, 46
1, 35879, Control_c, 0, 64, 0
1, 35883, Note_on_c, 0, 48, 33
1, 35926, Control_c, 0, 64, 127
1, 35942, Note_on_c, 0, 55, 71
1, 35944, Note_on_c, 0, 67, 0
1, 35947, Note_on_c, 0, 62, 0
1, 35952, Note_on_c, 0, 63, 0
1, 35954, Note_on_c, 0, 58, 0
1, 35997, Note_on_c, 0, 59, 71
1, 36038, Note_on_c, 0, 59, 0
1, 36053, Note_on_c, 0, 60, 81
1, 36059, Note_on_c, 0, 55, 0
1, 36074, Note_on_c, 0, 48, 0
1, 36086, Note_on_c, 0, 60, 0
1, 36101, Note_on_c, 0, 62, 83
1, 36104, Note_on_c, 0, 60, 32
1, 36114, Note_on_c, 0, 60, 0
1, 36127, Note_on_c, 0, 62, 0
1, 36141, Note_on_c, 0, 63, 74
1, 36161, Note_on_c, 0, 63, 0
1, 36173, Note_on_c, 0, 65, 81
1, 36196, Note_on_c, 0, 65, 0
1, 36209, Control_c, 0, 64, 0
1, 36217, Note_on_c, 0, 67, 87
1, 36218, Note_on_c, 0, 43, 62
1, 36240, Note_on_c, 0, 43, 0
1, 36243, Control_c, 0, 64, 127
1, 36274, Note_on_c, 0, 68, 84
1, 36280, Note_on_c, 0, 67, 0
1, 36307, Note_on_c, 0, 68, 0
1, 36323, Note_on_c, 0, 70, 84
1, 36328, Note_on_c, 0, 63, 44
1, 36329, Note_on_c, 0, 59, 53
1, 36331, Note_on_c, 0, 53, 39
1, 36354, Note_on_c, 0, 70, 0
1, 36369, Note_on_c, 0, 71, 72
1, 36395, Note_on_c, 0, 71, 0
1, 36407, Note_on_c, 0, 72, 73
1, 36409, Note_on_c, 0, 63, 0
1, 36415, Note_on_c, 0, 59, 0
1, 36426, Note_on_c, 0, 53, 0
1, 36432, Note_on_c, 0, 72, 0
1, 36439, Note_on_c, 0, 74, 71
1, 36470, Note_on_c, 0, 74, 0
1, 36472, Note_on_c, 0, 75, 55
1, 36492, Note_on_c, 0, 75, 0
1, 36493, Note_on_c, 0, 76, 66
1, 36514, Note_on_c, 0, 76, 0
1, 36531, Note_on_c, 0, 77, 80
1, 36551, Control_c, 0, 64, 0
1, 36553, Note_on_c, 0, 48, 57
1, 36556, Note_on_c, 0, 58, 33
1, 36561, Note_on_c, 0, 48, 0
1, 36569, Note_on_c, 0, 74, 76
1, 36571, Note_on_c, 0, 77, 0
1, 36581, Note_on_c, 0, 58, 0
1, 36584, Control_c, 0, 64, 127
1, 36641, Note_on_c, 0, 74, 0
1, 36641, Note_on_c, 0, 75, 74
1, 36648, Note_on_c, 0, 58, 42
1, 36652, Note_on_c, 0, 62, 28
1, 36714, Note_on_c, 0, 75, 0
1, 36721, Note_on_c, 0, 76, 66
1, 36754, Note_on_c, 0, 76, 0
1, 36768, Note_on_c, 0, 62, 0
1, 36768, Note_on_c, 0, 77, 72
1, 36785, Note_on_c, 0, 58, 0
1, 36801, Note_on_c, 0, 77, 0
1, 36813, Note_on_c, 0, 78, 69
1, 36844, Note_on_c, 0, 78, 0
1, 36856, Note_on_c, 0, 79, 74
1, 36887, Note_on_c, 0, 79, 0
1, 36887, Note_on_c, 0, 80, 51
1, 36915, Note_on_c, 0, 80, 0
1, 36917, Note_on_c, 0, 81, 57
1, 36938, Note_on_c, 0, 62, 35
1, 36939, Note_on_c, 0, 51, 33
1, 36941, Control_c, 0, 64, 0
1, 36943, Note_on_c, 0, 57, 47
1, 36949, Note_on_c, 0, 81, 0
1, 36949, Note_on_c, 0, 82, 59
1, 36974, Note_on_c, 0, 82, 0
1, 36977, Note_on_c, 0, 83, 57
1, 37003, Note_on_c, 0, 62, 0
1, 37005, Note_on_c, 0, 57, 0
1, 37007, Note_on_c, 0, 83, 0
1, 37019, Control_c, 0, 64, 127
1, 37022, Note_on_c, 0, 51, 0
1, 37022, Note_on_c, 0, 84, 74
1, 37079, Note_on_c, 0, 72, 57
1, 37107, Note_on_c, 0, 72, 0
1, 37128, Note_on_c, 0, 84, 0
1, 37147, Note_on_c, 0, 72, 59
1, 37152, Note_on_c, 0, 41, 34
1, 37155, Note_on_c, 0, 72, 0
1, 37163, Note_on_c, 0, 41, 0
1, 37228, Note_on_c, 0, 89, 65
1, 37256, Note_on_c, 0, 89, 0
1, 37336, Note_on_c, 0, 89, 59
1, 37346, Note_on_c, 0, 62, 39
1, 37347, Note_on_c, 0, 63, 36
1, 37351, Note_on_c, 0, 77, 57
1, 37352, Note_on_c, 0, 67, 40
1, 37478, Note_on_c, 0, 89, 0
1, 37486, Note_on_c, 0, 77, 0
1, 37496, Note_on_c, 0, 89, 66
1, 37508, Note_on_c, 0, 67, 0
1, 37524, Note_on_c, 0, 62, 0
1, 37525, Note_on_c, 0, 63, 0
1, 37528, Note_on_c, 0, 89, 0
1, 37603, Note_on_c, 0, 89, 83
1, 37609, Note_on_c, 0, 84, 80
1, 37609, Note_on_c, 0, 60, 50
1, 37612, Note_on_c, 0, 63, 46
1, 37613, Note_on_c, 0, 77, 74
1, 37613, Note_on_c, 0, 68, 49
1, 37619, Control_c, 0, 64, 0
1, 37672, Control_c, 0, 64, 127
1, 37689, Note_on_c, 0, 58, 62
1, 37711, Note_on_c, 0, 68, 0
1, 37714, Note_on_c, 0, 60, 0
1, 37714, Note_on_c, 0, 77, 0
1, 37722, Note_on_c, 0, 63, 0
1, 37736, Note_on_c, 0, 58, 0
1, 37754, Note_on_c, 0, 84, 0
1, 37769, Note_on_c, 0, 77, 64
1, 37851, Note_on_c, 0, 34, 55
1, 37872, Note_on_c, 0, 34, 0
1, 37880, Note_on_c, 0, 89, 0
1, 37884, Note_on_c, 0, 77, 0
1, 37939, Note_on_c, 0, 76, 60
1, 37941, Note_on_c, 0, 88, 55
1, 37957, Note_on_c, 0, 76, 0
1, 37967, Note_on_c, 0, 88, 0
1, 38023, Note_on_c, 0, 89, 60
1, 38023, Note_on_c, 0, 77, 50
1, 38031, Note_on_c, 0, 77, 0
1, 38040, Note_on_c, 0, 89, 0
1, 38124, Control_c, 0, 64, 0
1, 38127, Note_on_c, 0, 96, 55
1, 38128, Note_on_c, 0, 90, 48
1, 38128, Note_on_c, 0, 84, 34
1, 38129, Note_on_c, 0, 66, 40
1, 38129, Note_on_c, 0, 62, 48
1, 38132, Note_on_c, 0, 56, 32
1, 38140, Note_on_c, 0, 62, 0
1, 38142, Note_on_c, 0, 66, 0
1, 38145, Note_on_c, 0, 90, 0
1, 38147, Note_on_c, 0, 56, 0
1, 38149, Note_on_c, 0, 84, 0
1, 38152, Note_on_c, 0, 96, 0
1, 38228, Note_on_c, 0, 96, 60
1, 38228, Note_on_c, 0, 90, 49
1, 38229, Note_on_c, 0, 84, 53
1, 38232, Note_on_c, 0, 66, 46
1, 38234, Note_on_c, 0, 62, 49
1, 38234, Note_on_c, 0, 56, 34
1, 38252, Note_on_c, 0, 62, 0
1, 38253, Note_on_c, 0, 66, 0
1, 38254, Note_on_c, 0, 90, 0
1, 38254, Note_on_c, 0, 56, 0
1, 38259, Note_on_c, 0, 84, 0
1, 38263, Note_on_c, 0, 96, 0
1, 38347, Note_on_c, 0, 84, 58
1, 38348, Note_on_c, 0, 96, 60
1, 38348, Note_on_c, 0, 90, 49
1, 38351, Note_on_c, 0, 66, 44
1, 38356, Note_on_c, 0, 62, 40
1, 38356, Note_on_c, 0, 56, 31
1, 38367, Control_c, 0, 64, 127
1, 38390, Note_on_c, 0, 90, 0
1, 38393, Note_on_c, 0, 91, 32
1, 38494, Note_on_c, 0, 66, 0
1, 38504, Note_on_c, 0, 62, 0
1, 38531, Note_on_c, 0, 56, 0
1, 38561, Note_on_c, 0, 96, 0
1, 38564, Note_on_c, 0, 84, 0
1, 38569, Note_on_c, 0, 91, 0
1, 38576, Note_on_c, 0, 94, 76
1, 38608, Note_on_c, 0, 94, 0
1, 38671, Control_c, 0, 64, 0
1, 38677, Note_on_c, 0, 39, 75
1, 38689, Control_c, 0, 64, 127
1, 38702, Note_on_c, 0, 39, 0
1, 38768, Note_on_c, 0, 56, 62
1, 38778, Note_on_c, 0, 57, 75
1, 38778, Note_on_c, 0, 62, 78
1, 38778, Note_on_c, 0, 72, 76
1, 38779, Note_on_c, 0, 67, 75
1, 38783, Control_c, 0, 64, 0
1, 38790, Note_on_c, 0, 56, 0
1, 38809, Control_c, 0, 64, 127
1, 38830, Note_on_c, 0, 62, 0
1, 38840, Note_on_c, 0, 67, 0
1, 38850, Note_on_c, 0, 72, 0
1, 38873, Control_c, 0, 64, 0
1, 38874, Note_on_c, 0, 71, 55
1, 38876, Note_on_c, 0, 61, 57
1, 38876, Note_on_c, 0, 66, 64
1, 38878, Note_on_c, 0, 56, 59
1, 38884, Note_on_c, 0, 57, 0
1, 38916, Control_c, 0, 64, 127
1, 38946, Note_on_c, 0, 66, 0
1, 38946, Note_on_c, 0, 71, 0
1, 38946, Note_on_c, 0, 61, 0
1, 38966, Note_on_c, 0, 72, 62
1, 38968, Note_on_c, 0, 57, 56
1, 38968, Note_on_c, 0, 62, 55
1, 38969, Note_on_c, 0, 67, 60
1, 38975, Note_on_c, 0, 56, 0
1, 38983, Note_on_c, 0, 62, 0
1, 38988, Note_on_c, 0, 57, 0
1, 38991, Note_on_c, 0, 67, 0
1, 38996, Note_on_c, 0, 72, 0
1, 39072, Note_on_c, 0, 81, 83
1, 39072, Note_on_c, 0, 70, 80
1, 39074, Note_on_c, 0, 73, 67
1, 39074, Note_on_c, 0, 76, 77
1, 39077, Note_on_c, 0, 69, 84
1, 39079, Control_c, 0, 64, 0
1, 39116, Control_c, 0, 64, 127
1, 39259, Note_on_c, 0, 69, 0
1, 39269, Note_on_c, 0, 64, 71
1, 39317, Note_on_c, 0, 73, 0
1, 39338, Note_on_c, 0, 70, 0
1, 39339, Note_on_c, 0, 76, 0
1, 39349, Note_on_c, 0, 81, 0
1, 39373, Note_on_c, 0, 70, 50
1, 39374, Note_on_c, 0, 67, 59
1, 39375, Note_on_c, 0, 64, 0
1, 39378, Note_on_c, 0, 79, 44
1, 39379, Note_on_c, 0, 76, 50
1, 39381, Note_on_c, 0, 73, 35
1, 39383, Control_c, 0, 64, 0
1, 39407, Control_c, 0, 64, 127
1, 39457, Note_on_c, 0, 67, 0
1, 39461, Note_on_c, 0, 79, 0
1, 39474, Note_on_c, 0, 61, 51
1, 39481, Note_on_c, 0, 76, 0
1, 39494, Note_on_c, 0, 70, 0
1, 39498, Note_on_c, 0, 73, 0
1, 39577, Note_on_c, 0, 70, 42
1, 39579, Note_on_c, 0, 64, 45
1, 39579, Note_on_c, 0, 67, 38
1, 39582, Control_c, 0, 64, 0
1, 39583, Note_on_c, 0, 73, 28
1, 39600, Note_on_c, 0, 61, 0
1, 39608, Control_c, 0, 64, 127
1, 39665, Note_on_c, 0, 64, 0
1, 39666, Note_on_c, 0, 67, 0
1, 39671, Note_on_c, 0, 73, 0
1, 39687, Note_on_c, 0, 76, 52
1, 39735, Note_on_c, 0, 76, 0
1, 39740, Note_on_c, 0, 70, 0
1, 39819, Note_on_c, 0, 65, 40
1, 39823, Note_on_c, 0, 77, 45
1, 39826, Note_on_c, 0, 70, 29
1, 39826, Note_on_c, 0, 62, 34
1, 39831, Control_c, 0, 64, 0
1, 39832, Note_on_c, 0, 60, 30
1, 39860, Note_on_c, 0, 65, 0
1, 39863, Control_c, 0, 64, 127
1, 39908, Note_on_c, 0, 53, 37
1, 40048, Note_on_c, 0, 77, 0
1, 40060, Note_on_c, 0, 60, 0
1, 40061, Note_on_c, 0, 62, 0
1, 40067, Note_on_c, 0, 75, 53
1, 40084, Note_on_c, 0, 70, 0
1, 40088, Note_on_c, 0, 75, 0
1, 40183, Note_on_c, 0, 74, 47
1, 40187, Note_on_c, 0, 70, 39
1, 40188, Control_c, 0, 64, 0
1, 40191, Note_on_c, 0, 62, 34
1, 40196, Note_on_c, 0, 63, 29
1, 40197, Note_on_c, 0, 67, 32
1, 40240, Note_on_c, 0, 53, 0
1, 40248, Control_c, 0, 64, 127
1, 40271, Note_on_c, 0, 53, 36
1, 40389, Note_on_c, 0, 62, 0
1, 40421, Note_on_c, 0, 74, 0
1, 40431, Note_on_c, 0, 63, 0
1, 40439, Note_on_c, 0, 67, 0
1, 40443, Note_on_c, 0, 72, 48
1, 40447, Note_on_c, 0, 70, 0
1, 40519, Note_on_c, 0, 72, 0
1, 40571, Note_on_c, 0, 62, 54
1, 40577, Note_on_c, 0, 60, 47
1, 40581, Control_c, 0, 64, 0
1, 40599, Control_c, 0, 64, 127
1, 40628, Note_on_c, 0, 53, 0
1, 40654, Note_on_c, 0, 77, 64
1, 40656, Note_on_c, 0, 53, 45
1, 40656, Note_on_c, 0, 70, 70
1, 40658, Control_c, 0, 64, 0
1, 40698, Control_c, 0, 64, 127
1, 40782, Note_on_c, 0, 60, 0
1, 40785, Note_on_c, 0, 77, 0
1, 40791, Note_on_c, 0, 62, 0
1, 40803, Note_on_c, 0, 75, 48
1, 40824, Note_on_c, 0, 70, 0
1, 40825, Note_on_c, 0, 75, 0
1, 40923, Note_on_c, 0, 74, 41
1, 40924, Control_c, 0, 64, 0
1, 40926, Note_on_c, 0, 70, 39
1, 40928, Note_on_c, 0, 63, 28
1, 40931, Note_on_c, 0, 67, 41
1, 40973, Note_on_c, 0, 53, 0
1, 40973, Note_on_c, 0, 62, 1
1, 40976, Control_c, 0, 64, 127
1, 41008, Note_on_c, 0, 53, 32
1, 41015, Note_on_c, 0, 62, 0
1, 41031, Note_on_c, 0, 53, 0
1, 41168, Note_on_c, 0, 74, 0
1, 41168, Note_on_c, 0, 41, 33
1, 41177, Note_on_c, 0, 72, 40
1, 41181, Note_on_c, 0, 41, 0
1, 41192, Note_on_c, 0, 67, 0
1, 41197, Note_on_c, 0, 70, 0
1, 41214, Note_on_c, 0, 63, 0
1, 41219, Note_on_c, 0, 72, 0
1, 41468, Note_on_c, 0, 77, 71
1, 41472, Note_on_c, 0, 65, 59
1, 41472, Note_on_c, 0, 70, 72
1, 41472, Note_on_c, 0, 74, 74
1, 41488, Control_c, 0, 64, 0
1, 41524, Control_c, 0, 64, 127
1, 41562, Note_on_c, 0, 65, 0
1, 41574, Note_on_c, 0, 53, 44
1, 41612, Note_on_c, 0, 74, 0
1, 41616, Note_on_c, 0, 77, 0
1, 41624, Note_on_c, 0, 70, 0
1, 41728, Note_on_c, 0, 75, 52
1, 41732, Note_on_c, 0, 70, 55
1, 41739, Note_on_c, 0, 63, 30
1, 41739, Note_on_c, 0, 67, 40
1, 41756, Note_on_c, 0, 53, 0
1, 41795, Note_on_c, 0, 67, 0
1, 41805, Note_on_c, 0, 75, 0
1, 41805, Note_on_c, 0, 63, 0
1, 41815, Note_on_c, 0, 70, 0
1, 41904, Control_c, 0, 64, 0
1, 41909, Note_on_c, 0, 74, 69
1, 41912, Note_on_c, 0, 66, 53
1, 41917, Note_on_c, 0, 62, 53
1, 41917, Note_on_c, 0, 41, 53
1, 41922, Note_on_c, 0, 69, 40
1, 41938, Control_c, 0, 64, 127
1, 41940, Note_on_c, 0, 41, 0
1, 42011, Note_on_c, 0, 51, 43
1, 42105, Note_on_c, 0, 62, 0
1, 42113, Note_on_c, 0, 57, 53
1, 42205, Note_on_c, 0, 74, 0
1, 42223, Note_on_c, 0, 69, 0
1, 42226, Note_on_c, 0, 62, 48
1, 42249, Note_on_c, 0, 66, 0
1, 42353, Note_on_c, 0, 66, 44
1, 42547, Note_on_c, 0, 72, 44
1, 42615, Note_on_c, 0, 72, 0
1, 42623, Note_on_c, 0, 57, 0
1, 42651, Note_on_c, 0, 51, 0
1, 42668, Note_on_c, 0, 62, 0
1, 42678, Note_on_c, 0, 66, 0
1, 43596, Note_on_c, 0, 70, 47
1, 43597, Note_on_c, 0, 61, 39
1, 43599, Note_on_c, 0, 64, 58
1, 43603, Note_on_c, 0, 58, 30
1, 43603, Note_on_c, 0, 46, 32
1, 43609, Control_c, 0, 64, 0
1, 43656, Control_c, 0, 64, 127
1, 43694, Note_on_c, 0, 64, 0
1, 43714, Note_on_c, 0, 61, 0
1, 43719, Note_on_c, 0, 62, 55
1, 43732, Note_on_c, 0, 65, 46
1, 43839, Note_on_c, 0, 58, 0
1, 43861, Note_on_c, 0, 46, 0
1, 44085, Note_on_c, 0, 62, 0
1, 44089, Note_on_c, 0, 65, 0
1, 44117, Note_on_c, 0, 70, 0
1, 44409, Note_on_c, 0, 94, 39
1, 44418, Note_on_c, 0, 82, 29
1, 44423, Note_on_c, 0, 22, 29
1, 44636, Note_on_c, 0, 94, 0
1, 44646, Note_on_c, 0, 82, 0
1, 44693, Note_on_c, 0, 22, 0
1, 44693, End_track
0, 0, End_of_file
