0, 0, Header, 1, 3, 960
1, 0, Start_track
1, 0, Title_t, "Sometime ago"
1, 0, Time_signature, 3, 2, 24, 8
1, 0, Key_signature, 0, "major"
1, 0, Tempo, 600000
1, 2880, Marker_t, "First Chorus Rubato solo piano"
1, 37832, Marker_t, "LH plays down chromatically under 4ths in RH follow melody"
1, 65716, Marker_t, "On Ebm7/Ab7 an ascending Db scale"
1, 101912, Marker_t, "Melody harmonised in 3rds"
1, 120038, Marker_t, "Run on Bb7#11 - LH plays Ab,Bb & RH arpeggiates a C Maj triad"
1, 267480, Marker_t, "Bass in"
1, 309076, Marker_t, "Phrase uses Db Major scale in 3rds on Ebm7/Ab7"
1, 311040, Marker_t, "Then C Major scale in 3rds on Dm7/G7"
1, 371520, Marker_t, "Bass solo"
1, 515526, Marker_t, "LH plays LH voicings / RH harmonises Db  scale  using octaves and pfct  5ths"
1, 518261, Marker_t, "Same thing on G7sus using C Major scale"
1, 574432, Marker_t, "RH plays C Maj scale -3rds in pairs - but rhythm is triplets"
1, 574432, End_track
2, 0, Start_track
2, 0, Title_t, "Piano"
2, 0, Program_c, 0, 0
2, 2, Control_c, 0, 64, 127
2, 483, Control_c, 0, 64, 0
2, 803, Control_c, 0, 64, 127
2, 2823, Control_c, 0, 64, 0
2, 2885, Note_on_c, 0, 79, 70
2, 2899, Note_on_c, 0, 24, 53
2, 2914, Note_on_c, 0, 36, 44
2, 3018, Control_c, 0, 64, 127
2, 3043, Note_on_c, 0, 24, 0
2, 3141, Note_on_c, 0, 36, 0
2, 3887, Note_on_c, 0, 83, 84
2, 3898, Note_on_c, 0, 64, 60
2, 3914, Note_on_c, 0, 60, 53
2, 3928, Note_on_c, 0, 59, 56
2, 3965, Note_on_c, 0, 79, 0
2, 4376, Note_on_c, 0, 59, 0
2, 4379, Note_on_c, 0, 60, 0
2, 4435, Note_on_c, 0, 64, 0
2, 4608, Note_on_c, 0, 83, 0
2, 4715, Note_on_c, 0, 64, 54
2, 4719, Note_on_c, 0, 60, 45
2, 4730, Note_on_c, 0, 86, 77
2, 4760, Note_on_c, 0, 59, 38
2, 5055, Note_on_c, 0, 86, 0
2, 5072, Note_on_c, 0, 60, 0
2, 5096, Note_on_c, 0, 59, 0
2, 5101, Note_on_c, 0, 64, 0
2, 5895, Note_on_c, 0, 77, 53
2, 5904, Note_on_c, 0, 65, 34
2, 5909, Note_on_c, 0, 55, 29
2, 5911, Note_on_c, 0, 69, 38
2, 5923, Note_on_c, 0, 60, 39
2, 5930, Note_on_c, 0, 72, 46
2, 5941, Note_on_c, 0, 57, 42
2, 5952, Control_c, 0, 64, 0
2, 6258, Control_c, 0, 64, 127
2, 6363, Note_on_c, 0, 69, 0
2, 6443, Note_on_c, 0, 72, 0
2, 6483, Note_on_c, 0, 77, 0
2, 7194, Note_on_c, 0, 101, 34
2, 7251, Note_on_c, 0, 89, 50
2, 8280, Note_on_c, 0, 101, 0
2, 8573, Note_on_c, 0, 89, 0
2, 9259, Note_on_c, 0, 60, 0
2, 9283, Note_on_c, 0, 65, 0
2, 9410, Note_on_c, 0, 57, 0
2, 9506, Note_on_c, 0, 55, 0
2, 10459, Note_on_c, 0, 81, 80
2, 10464, Note_on_c, 0, 57, 60
2, 10904, Note_on_c, 0, 81, 0
2, 10957, Note_on_c, 0, 57, 0
2, 11184, Note_on_c, 0, 58, 37
2, 11184, Note_on_c, 0, 82, 27
2, 11360, Note_on_c, 0, 83, 74
2, 11360, Note_on_c, 0, 59, 36
2, 11362, Note_on_c, 0, 82, 0
2, 11362, Note_on_c, 0, 58, 0
2, 11549, Note_on_c, 0, 83, 0
2, 11554, Note_on_c, 0, 59, 0
2, 11555, Note_on_c, 0, 84, 80
2, 11555, Note_on_c, 0, 60, 65
2, 12339, Note_on_c, 0, 79, 58
2, 12368, Control_c, 0, 64, 0
2, 12370, Note_on_c, 0, 48, 62
2, 12403, Note_on_c, 0, 60, 0
2, 12738, Control_c, 0, 64, 127
2, 12928, Note_on_c, 0, 84, 0
2, 12992, Note_on_c, 0, 79, 0
2, 13031, Note_on_c, 0, 55, 32
2, 13597, Note_on_c, 0, 48, 0
2, 13642, Note_on_c, 0, 79, 34
2, 13653, Note_on_c, 0, 74, 42
2, 13655, Note_on_c, 0, 55, 0
2, 13658, Note_on_c, 0, 69, 27
2, 13661, Note_on_c, 0, 62, 34
2, 14387, Note_on_c, 0, 69, 0
2, 14402, Note_on_c, 0, 64, 32
2, 14488, Note_on_c, 0, 74, 0
2, 14496, Note_on_c, 0, 79, 0
2, 14498, Note_on_c, 0, 62, 0
2, 15112, Note_on_c, 0, 83, 66
2, 15127, Note_on_c, 0, 76, 65
2, 15147, Note_on_c, 0, 74, 66
2, 15154, Note_on_c, 0, 67, 35
2, 15167, Note_on_c, 0, 79, 39
2, 15351, Note_on_c, 0, 74, 0
2, 15365, Note_on_c, 0, 76, 0
2, 15381, Note_on_c, 0, 79, 0
2, 15435, Note_on_c, 0, 83, 0
2, 15522, Note_on_c, 0, 67, 0
2, 15555, Note_on_c, 0, 64, 0
2, 15648, Note_on_c, 0, 86, 74
2, 15802, Note_on_c, 0, 86, 0
2, 16245, Note_on_c, 0, 77, 66
2, 16267, Note_on_c, 0, 74, 50
2, 16269, Note_on_c, 0, 69, 51
2, 16271, Note_on_c, 0, 72, 54
2, 16394, Control_c, 0, 64, 0
2, 16739, Note_on_c, 0, 67, 48
2, 16859, Control_c, 0, 64, 127
2, 17165, Note_on_c, 0, 67, 0
2, 17237, Note_on_c, 0, 74, 0
2, 17261, Note_on_c, 0, 62, 38
2, 17264, Note_on_c, 0, 72, 0
2, 17325, Note_on_c, 0, 77, 0
2, 17360, Note_on_c, 0, 69, 0
2, 17776, Note_on_c, 0, 55, 33
2, 17781, Note_on_c, 0, 62, 0
2, 17944, Note_on_c, 0, 55, 0
2, 18397, Note_on_c, 0, 43, 28
2, 18455, Note_on_c, 0, 53, 18
2, 19450, Note_on_c, 0, 43, 0
2, 19511, Note_on_c, 0, 53, 0
2, 19586, Note_on_c, 0, 64, 57
2, 19986, Note_on_c, 0, 64, 0
2, 19989, Note_on_c, 0, 65, 60
2, 20811, Note_on_c, 0, 65, 0
2, 20981, Control_c, 0, 64, 0
2, 21018, Note_on_c, 0, 67, 58
2, 21018, Note_on_c, 0, 52, 38
2, 21021, Note_on_c, 0, 36, 37
2, 21024, Note_on_c, 0, 62, 55
2, 21032, Note_on_c, 0, 64, 54
2, 21035, Note_on_c, 0, 59, 62
2, 21253, Control_c, 0, 64, 127
2, 21261, Note_on_c, 0, 59, 0
2, 21303, Note_on_c, 0, 62, 0
2, 21312, Note_on_c, 0, 64, 0
2, 21314, Note_on_c, 0, 67, 0
2, 21626, Note_on_c, 0, 52, 0
2, 21687, Note_on_c, 0, 71, 66
2, 21695, Note_on_c, 0, 43, 40
2, 21696, Note_on_c, 0, 64, 69
2, 21704, Note_on_c, 0, 62, 69
2, 21711, Note_on_c, 0, 67, 57
2, 21807, Note_on_c, 0, 62, 0
2, 21813, Note_on_c, 0, 64, 0
2, 21853, Note_on_c, 0, 67, 0
2, 21903, Note_on_c, 0, 71, 0
2, 21938, Note_on_c, 0, 36, 0
2, 22351, Note_on_c, 0, 74, 74
2, 22368, Note_on_c, 0, 52, 49
2, 22432, Note_on_c, 0, 43, 0
2, 22461, Note_on_c, 0, 52, 0
2, 22541, Note_on_c, 0, 74, 0
2, 25503, Control_c, 0, 64, 0
2, 25551, Note_on_c, 0, 65, 81
2, 25551, Note_on_c, 0, 60, 76
2, 25552, Note_on_c, 0, 57, 88
2, 25554, Note_on_c, 0, 55, 71
2, 25832, Control_c, 0, 64, 127
2, 25930, Note_on_c, 0, 57, 0
2, 25973, Note_on_c, 0, 60, 0
2, 25987, Note_on_c, 0, 65, 0
2, 26419, Note_on_c, 0, 55, 0
2, 26474, Control_c, 0, 64, 0
2, 26475, Note_on_c, 0, 61, 69
2, 26479, Note_on_c, 0, 64, 66
2, 26480, Note_on_c, 0, 69, 66
2, 26498, Note_on_c, 0, 54, 72
2, 26499, Note_on_c, 0, 57, 76
2, 26778, Control_c, 0, 64, 127
2, 26824, Note_on_c, 0, 57, 0
2, 26939, Note_on_c, 0, 64, 0
2, 26951, Note_on_c, 0, 61, 0
2, 26971, Note_on_c, 0, 69, 0
2, 27405, Control_c, 0, 64, 0
2, 27443, Note_on_c, 0, 63, 71
2, 27450, Note_on_c, 0, 72, 64
2, 27463, Note_on_c, 0, 67, 63
2, 27491, Note_on_c, 0, 53, 40
2, 27498, Note_on_c, 0, 54, 0
2, 27741, Control_c, 0, 64, 127
2, 28024, Note_on_c, 0, 63, 0
2, 28048, Note_on_c, 0, 67, 0
2, 28130, Note_on_c, 0, 72, 0
2, 28431, Control_c, 0, 64, 0
2, 28445, Note_on_c, 0, 53, 0
2, 28479, Note_on_c, 0, 70, 67
2, 28482, Note_on_c, 0, 62, 51
2, 28503, Note_on_c, 0, 67, 49
2, 28519, Note_on_c, 0, 52, 43
2, 28677, Note_on_c, 0, 52, 0
2, 28696, Note_on_c, 0, 62, 0
2, 28719, Control_c, 0, 64, 127
2, 28826, Note_on_c, 0, 70, 0
2, 28834, Note_on_c, 0, 67, 0
2, 29168, Note_on_c, 0, 74, 60
2, 29171, Note_on_c, 0, 70, 59
2, 29195, Note_on_c, 0, 58, 60
2, 29287, Note_on_c, 0, 70, 0
2, 29333, Note_on_c, 0, 74, 0
2, 29839, Note_on_c, 0, 77, 64
2, 29848, Note_on_c, 0, 62, 42
2, 29859, Note_on_c, 0, 70, 62
2, 29875, Note_on_c, 0, 67, 57
2, 29901, Note_on_c, 0, 74, 24
2, 29930, Note_on_c, 0, 62, 0
2, 29954, Note_on_c, 0, 74, 0
2, 29970, Note_on_c, 0, 77, 0
2, 29997, Note_on_c, 0, 58, 0
2, 30018, Note_on_c, 0, 70, 0
2, 30037, Note_on_c, 0, 67, 0
2, 30579, Control_c, 0, 64, 0
2, 30667, Note_on_c, 0, 61, 47
2, 30669, Note_on_c, 0, 69, 46
2, 30674, Note_on_c, 0, 45, 48
2, 30682, Note_on_c, 0, 58, 52
2, 30685, Note_on_c, 0, 64, 44
2, 30722, Note_on_c, 0, 55, 33
2, 30803, Note_on_c, 0, 58, 0
2, 30851, Control_c, 0, 64, 127
2, 30882, Note_on_c, 0, 45, 0
2, 30906, Note_on_c, 0, 64, 0
2, 30907, Note_on_c, 0, 61, 0
2, 30946, Note_on_c, 0, 69, 0
2, 30967, Note_on_c, 0, 55, 0
2, 31618, Note_on_c, 0, 84, 68
2, 31623, Note_on_c, 0, 74, 37
2, 31632, Note_on_c, 0, 76, 62
2, 31637, Note_on_c, 0, 73, 40
2, 31640, Note_on_c, 0, 72, 43
2, 31699, Note_on_c, 0, 82, 27
2, 31711, Note_on_c, 0, 79, 19
2, 31791, Note_on_c, 0, 74, 0
2, 31890, Note_on_c, 0, 72, 0
2, 32058, Note_on_c, 0, 84, 0
2, 32064, Note_on_c, 0, 79, 0
2, 32103, Note_on_c, 0, 76, 0
2, 32107, Note_on_c, 0, 82, 0
2, 32269, Note_on_c, 0, 73, 0
2, 32821, Note_on_c, 0, 81, 48
2, 32837, Note_on_c, 0, 73, 29
2, 32839, Note_on_c, 0, 70, 30
2, 32847, Note_on_c, 0, 76, 44
2, 32877, Note_on_c, 0, 69, 32
2, 33136, Note_on_c, 0, 69, 0
2, 33322, Note_on_c, 0, 81, 0
2, 33591, Note_on_c, 0, 70, 0
2, 33615, Note_on_c, 0, 76, 0
2, 34469, Note_on_c, 0, 73, 0
2, 34619, Note_on_c, 0, 77, 40
2, 34664, Note_on_c, 0, 50, 30
2, 34682, Note_on_c, 0, 65, 12
2, 34701, Control_c, 0, 64, 0
2, 35071, Control_c, 0, 64, 127
2, 35359, Note_on_c, 0, 65, 0
2, 35699, Note_on_c, 0, 57, 38
2, 35714, Note_on_c, 0, 50, 0
2, 35781, Note_on_c, 0, 77, 0
2, 36159, Note_on_c, 0, 57, 0
2, 37827, Control_c, 0, 64, 0
2, 37864, Note_on_c, 0, 65, 47
2, 37871, Note_on_c, 0, 72, 57
2, 37882, Note_on_c, 0, 77, 57
2, 37893, Note_on_c, 0, 81, 52
2, 38149, Control_c, 0, 64, 127
2, 38450, Note_on_c, 0, 64, 58
2, 38480, Note_on_c, 0, 81, 0
2, 38519, Note_on_c, 0, 65, 0
2, 38520, Note_on_c, 0, 77, 0
2, 38607, Note_on_c, 0, 72, 0
2, 38983, Control_c, 0, 64, 0
2, 39032, Note_on_c, 0, 69, 59
2, 39035, Note_on_c, 0, 79, 56
2, 39039, Note_on_c, 0, 74, 58
2, 39055, Note_on_c, 0, 63, 55
2, 39096, Note_on_c, 0, 64, 0
2, 39272, Control_c, 0, 64, 127
2, 39581, Note_on_c, 0, 62, 58
2, 39600, Note_on_c, 0, 74, 0
2, 39615, Note_on_c, 0, 63, 0
2, 39653, Note_on_c, 0, 79, 0
2, 39867, Note_on_c, 0, 69, 0
2, 40170, Control_c, 0, 64, 0
2, 40191, Note_on_c, 0, 77, 62
2, 40195, Note_on_c, 0, 67, 50
2, 40218, Note_on_c, 0, 72, 54
2, 40223, Note_on_c, 0, 61, 57
2, 40239, Note_on_c, 0, 62, 0
2, 40523, Control_c, 0, 64, 127
2, 40805, Note_on_c, 0, 60, 49
2, 40811, Note_on_c, 0, 61, 0
2, 40888, Note_on_c, 0, 72, 0
2, 40891, Note_on_c, 0, 77, 0
2, 40987, Note_on_c, 0, 67, 0
2, 41307, Control_c, 0, 64, 0
2, 41383, Note_on_c, 0, 76, 53
2, 41408, Note_on_c, 0, 71, 54
2, 41413, Note_on_c, 0, 59, 60
2, 41415, Note_on_c, 0, 65, 38
2, 41424, Note_on_c, 0, 60, 0
2, 41613, Control_c, 0, 64, 127
2, 41997, Note_on_c, 0, 59, 0
2, 42091, Note_on_c, 0, 58, 64
2, 42407, Note_on_c, 0, 76, 0
2, 42440, Note_on_c, 0, 71, 0
2, 42533, Note_on_c, 0, 65, 0
2, 42768, Control_c, 0, 64, 0
2, 42781, Note_on_c, 0, 69, 52
2, 42794, Note_on_c, 0, 64, 40
2, 42797, Note_on_c, 0, 58, 0
2, 42803, Note_on_c, 0, 74, 39
2, 42823, Note_on_c, 0, 57, 57
2, 43168, Control_c, 0, 64, 127
2, 43552, Note_on_c, 0, 56, 62
2, 43554, Note_on_c, 0, 57, 0
2, 44096, Note_on_c, 0, 55, 53
2, 44104, Note_on_c, 0, 56, 0
2, 44179, Control_c, 0, 64, 0
2, 44243, Control_c, 0, 64, 127
2, 44579, Note_on_c, 0, 54, 67
2, 44707, Note_on_c, 0, 55, 0
2, 44720, Note_on_c, 0, 64, 0
2, 44896, Note_on_c, 0, 74, 0
2, 44907, Note_on_c, 0, 69, 0
2, 44911, Note_on_c, 0, 54, 0
2, 44951, Note_on_c, 0, 53, 47
2, 45354, Note_on_c, 0, 53, 0
2, 45357, Note_on_c, 0, 76, 70
2, 45365, Control_c, 0, 64, 0
2, 45373, Note_on_c, 0, 67, 69
2, 45375, Note_on_c, 0, 52, 54
2, 45387, Note_on_c, 0, 72, 57
2, 45767, Control_c, 0, 64, 127
2, 45864, Note_on_c, 0, 52, 0
2, 46192, Note_on_c, 0, 67, 0
2, 46328, Note_on_c, 0, 72, 0
2, 46330, Note_on_c, 0, 56, 62
2, 46415, Note_on_c, 0, 76, 0
2, 47122, Note_on_c, 0, 67, 44
2, 47138, Note_on_c, 0, 62, 34
2, 47911, Note_on_c, 0, 76, 81
2, 48360, Note_on_c, 0, 76, 0
2, 48485, Note_on_c, 0, 79, 85
2, 48496, Note_on_c, 0, 67, 0
2, 48621, Note_on_c, 0, 62, 0
2, 48672, Note_on_c, 0, 56, 0
2, 48944, Note_on_c, 0, 74, 72
2, 49392, Control_c, 0, 64, 0
2, 49394, Note_on_c, 0, 74, 0
2, 49410, Note_on_c, 0, 45, 60
2, 49415, Note_on_c, 0, 79, 0
2, 49419, Note_on_c, 0, 72, 61
2, 49621, Note_on_c, 0, 45, 0
2, 49695, Control_c, 0, 64, 127
2, 49882, Note_on_c, 0, 71, 67
2, 49968, Note_on_c, 0, 72, 0
2, 50243, Note_on_c, 0, 71, 0
2, 50283, Note_on_c, 0, 64, 45
2, 50311, Note_on_c, 0, 74, 57
2, 50317, Note_on_c, 0, 60, 32
2, 50347, Note_on_c, 0, 59, 24
2, 50371, Note_on_c, 0, 55, 20
2, 50723, Note_on_c, 0, 71, 51
2, 50783, Note_on_c, 0, 74, 0
2, 50984, Note_on_c, 0, 64, 0
2, 51061, Note_on_c, 0, 60, 0
2, 51151, Note_on_c, 0, 71, 0
2, 51171, Note_on_c, 0, 64, 36
2, 51224, Note_on_c, 0, 72, 32
2, 51256, Note_on_c, 0, 60, 24
2, 51330, Note_on_c, 0, 64, 0
2, 51410, Note_on_c, 0, 60, 0
2, 51442, Note_on_c, 0, 55, 0
2, 51487, Note_on_c, 0, 59, 0
2, 51751, Note_on_c, 0, 72, 0
2, 51786, Note_on_c, 0, 64, 28
2, 52421, Note_on_c, 0, 64, 0
2, 52434, Note_on_c, 0, 38, 41
2, 52435, Note_on_c, 0, 66, 48
2, 52455, Control_c, 0, 64, 0
2, 52637, Note_on_c, 0, 38, 0
2, 52744, Control_c, 0, 64, 127
2, 53224, Note_on_c, 0, 66, 0
2, 53288, Note_on_c, 0, 54, 18
2, 53530, Note_on_c, 0, 54, 0
2, 53871, Note_on_c, 0, 60, 37
2, 54427, Note_on_c, 0, 64, 26
2, 54434, Note_on_c, 0, 69, 42
2, 54791, Note_on_c, 0, 64, 0
2, 54861, Note_on_c, 0, 60, 0
2, 54919, Note_on_c, 0, 72, 47
2, 55007, Note_on_c, 0, 69, 0
2, 55344, Note_on_c, 0, 74, 69
2, 55461, Note_on_c, 0, 72, 0
2, 55791, Note_on_c, 0, 74, 0
2, 55912, Note_on_c, 0, 76, 70
2, 55930, Note_on_c, 0, 66, 49
2, 55936, Control_c, 0, 64, 0
2, 55946, Note_on_c, 0, 72, 39
2, 55954, Note_on_c, 0, 68, 47
2, 55959, Note_on_c, 0, 64, 42
2, 56019, Note_on_c, 0, 68, 0
2, 56203, Note_on_c, 0, 69, 13
2, 56554, Note_on_c, 0, 69, 0
2, 56560, Control_c, 0, 64, 127
2, 56592, Control_c, 0, 64, 0
2, 56610, Note_on_c, 0, 66, 0
2, 56642, Note_on_c, 0, 64, 0
2, 56645, Note_on_c, 0, 72, 0
2, 56655, Note_on_c, 0, 76, 0
2, 56808, Note_on_c, 0, 76, 18
2, 56811, Note_on_c, 0, 66, 25
2, 56831, Note_on_c, 0, 68, 38
2, 56847, Note_on_c, 0, 64, 25
2, 56863, Note_on_c, 0, 72, 24
2, 57019, Note_on_c, 0, 69, 14
2, 57083, Note_on_c, 0, 68, 0
2, 57245, Note_on_c, 0, 69, 0
2, 57269, Note_on_c, 0, 66, 0
2, 57315, Note_on_c, 0, 64, 0
2, 57339, Note_on_c, 0, 72, 0
2, 57341, Note_on_c, 0, 76, 0
2, 57595, Note_on_c, 0, 68, 44
2, 57611, Note_on_c, 0, 66, 28
2, 57626, Note_on_c, 0, 76, 32
2, 57675, Note_on_c, 0, 64, 29
2, 57683, Note_on_c, 0, 72, 30
2, 57715, Note_on_c, 0, 68, 0
2, 57755, Note_on_c, 0, 69, 24
2, 58099, Control_c, 0, 64, 127
2, 58251, Note_on_c, 0, 64, 0
2, 58259, Control_c, 0, 64, 0
2, 58299, Note_on_c, 0, 76, 0
2, 58355, Note_on_c, 0, 50, 33
2, 58359, Note_on_c, 0, 74, 53
2, 58597, Control_c, 0, 64, 127
2, 58648, Note_on_c, 0, 69, 0
2, 58749, Note_on_c, 0, 72, 0
2, 58763, Note_on_c, 0, 66, 0
2, 59021, Note_on_c, 0, 74, 0
2, 59023, Note_on_c, 0, 50, 0
2, 59829, Note_on_c, 0, 50, 27
2, 59898, Note_on_c, 0, 64, 44
2, 59912, Note_on_c, 0, 54, 28
2, 59941, Note_on_c, 0, 68, 48
2, 59944, Note_on_c, 0, 60, 32
2, 59967, Note_on_c, 0, 64, 0
2, 59976, Control_c, 0, 64, 0
2, 59989, Note_on_c, 0, 71, 46
2, 60127, Note_on_c, 0, 76, 33
2, 60520, Control_c, 0, 64, 127
2, 60976, Note_on_c, 0, 76, 0
2, 61035, Note_on_c, 0, 74, 62
2, 61107, Note_on_c, 0, 68, 0
2, 61135, Note_on_c, 0, 71, 0
2, 61741, Note_on_c, 0, 72, 63
2, 61906, Note_on_c, 0, 74, 0
2, 62432, Note_on_c, 0, 71, 52
2, 62519, Note_on_c, 0, 72, 0
2, 62520, Note_on_c, 0, 60, 0
2, 62658, Note_on_c, 0, 50, 0
2, 62688, Note_on_c, 0, 54, 0
2, 63187, Note_on_c, 0, 69, 46
2, 63269, Note_on_c, 0, 71, 0
2, 63863, Note_on_c, 0, 69, 0
2, 63906, Note_on_c, 0, 70, 51
2, 63952, Control_c, 0, 64, 0
2, 63970, Note_on_c, 0, 44, 38
2, 64290, Control_c, 0, 64, 127
2, 64448, Note_on_c, 0, 54, 36
2, 64459, Note_on_c, 0, 44, 0
2, 64597, Note_on_c, 0, 54, 0
2, 65103, Note_on_c, 0, 61, 32
2, 65285, Note_on_c, 0, 70, 0
2, 65642, Note_on_c, 0, 63, 39
2, 65842, Note_on_c, 0, 63, 0
2, 65952, Note_on_c, 0, 65, 40
2, 66120, Note_on_c, 0, 65, 0
2, 66135, Note_on_c, 0, 66, 53
2, 66333, Note_on_c, 0, 68, 56
2, 66344, Note_on_c, 0, 66, 0
2, 66491, Note_on_c, 0, 68, 0
2, 66509, Note_on_c, 0, 70, 46
2, 66563, Note_on_c, 0, 70, 0
2, 66671, Note_on_c, 0, 72, 36
2, 66763, Note_on_c, 0, 72, 0
2, 66827, Note_on_c, 0, 73, 38
2, 66891, Note_on_c, 0, 73, 0
2, 67005, Note_on_c, 0, 75, 49
2, 67026, Note_on_c, 0, 61, 0
2, 67058, Note_on_c, 0, 75, 0
2, 67151, Note_on_c, 0, 77, 60
2, 67224, Note_on_c, 0, 77, 0
2, 67314, Note_on_c, 0, 78, 42
2, 67445, Note_on_c, 0, 78, 0
2, 67451, Note_on_c, 0, 80, 46
2, 67528, Note_on_c, 0, 80, 0
2, 67554, Note_on_c, 0, 82, 30
2, 67674, Note_on_c, 0, 82, 0
2, 67706, Note_on_c, 0, 84, 54
2, 67834, Note_on_c, 0, 84, 0
2, 67896, Note_on_c, 0, 85, 52
2, 68039, Note_on_c, 0, 85, 0
2, 68173, Note_on_c, 0, 87, 46
2, 68343, Note_on_c, 0, 87, 0
2, 68365, Note_on_c, 0, 89, 41
2, 68525, Note_on_c, 0, 90, 57
2, 68527, Note_on_c, 0, 89, 0
2, 68707, Note_on_c, 0, 90, 0
2, 68755, Note_on_c, 0, 91, 71
2, 68781, Control_c, 0, 64, 0
2, 68859, Note_on_c, 0, 31, 36
2, 68888, Note_on_c, 0, 43, 20
2, 69133, Control_c, 0, 64, 127
2, 69375, Note_on_c, 0, 31, 0
2, 69496, Note_on_c, 0, 43, 0
2, 69568, Note_on_c, 0, 91, 0
2, 69618, Note_on_c, 0, 91, 42
2, 70130, Note_on_c, 0, 91, 0
2, 70365, Note_on_c, 0, 65, 32
2, 70389, Note_on_c, 0, 55, 27
2, 70395, Note_on_c, 0, 93, 56
2, 70413, Note_on_c, 0, 60, 33
2, 70416, Note_on_c, 0, 57, 33
2, 71136, Note_on_c, 0, 81, 56
2, 71163, Note_on_c, 0, 93, 0
2, 71341, Note_on_c, 0, 60, 0
2, 71387, Note_on_c, 0, 65, 0
2, 71453, Note_on_c, 0, 57, 0
2, 71458, Note_on_c, 0, 55, 0
2, 71730, Note_on_c, 0, 81, 0
2, 71995, Note_on_c, 0, 59, 35
2, 72003, Control_c, 0, 64, 0
2, 72010, Note_on_c, 0, 64, 30
2, 72013, Note_on_c, 0, 79, 30
2, 72091, Note_on_c, 0, 53, 22
2, 72250, Note_on_c, 0, 64, 0
2, 72293, Control_c, 0, 64, 127
2, 72307, Note_on_c, 0, 59, 0
2, 72351, Note_on_c, 0, 53, 0
2, 73013, Note_on_c, 0, 91, 55
2, 73047, Note_on_c, 0, 43, 22
2, 73674, Note_on_c, 0, 91, 0
2, 73683, Note_on_c, 0, 43, 0
2, 73962, Note_on_c, 0, 79, 0
2, 75803, Note_on_c, 0, 79, 55
2, 75847, Note_on_c, 0, 76, 60
2, 75853, Control_c, 0, 64, 0
2, 75877, Note_on_c, 0, 74, 57
2, 75904, Note_on_c, 0, 67, 44
2, 75919, Note_on_c, 0, 71, 53
2, 76221, Control_c, 0, 64, 127
2, 77002, Note_on_c, 0, 79, 0
2, 77122, Note_on_c, 0, 74, 0
2, 77123, Note_on_c, 0, 67, 0
2, 77138, Note_on_c, 0, 76, 0
2, 77213, Note_on_c, 0, 55, 29
2, 77226, Note_on_c, 0, 71, 0
2, 77962, Note_on_c, 0, 67, 49
2, 78483, Note_on_c, 0, 71, 61
2, 78576, Note_on_c, 0, 67, 0
2, 78747, Note_on_c, 0, 71, 0
2, 78821, Note_on_c, 0, 55, 0
2, 78861, Note_on_c, 0, 74, 74
2, 78991, Note_on_c, 0, 74, 0
2, 79424, Note_on_c, 0, 65, 43
2, 79429, Note_on_c, 0, 62, 36
2, 79445, Note_on_c, 0, 60, 39
2, 79448, Note_on_c, 0, 57, 45
2, 79479, Control_c, 0, 64, 0
2, 79837, Note_on_c, 0, 55, 40
2, 79898, Note_on_c, 0, 55, 0
2, 80335, Note_on_c, 0, 43, 35
2, 80775, Note_on_c, 0, 62, 0
2, 80803, Note_on_c, 0, 60, 0
2, 80819, Note_on_c, 0, 31, 36
2, 80867, Note_on_c, 0, 65, 0
2, 80984, Control_c, 0, 64, 127
2, 81026, Note_on_c, 0, 57, 0
2, 81379, Note_on_c, 0, 53, 32
2, 81525, Note_on_c, 0, 31, 0
2, 81759, Note_on_c, 0, 43, 0
2, 81853, Note_on_c, 0, 53, 0
2, 81882, Note_on_c, 0, 57, 50
2, 82357, Note_on_c, 0, 57, 0
2, 82379, Control_c, 0, 64, 0
2, 82445, Note_on_c, 0, 59, 39
2, 82451, Note_on_c, 0, 55, 24
2, 82464, Note_on_c, 0, 36, 37
2, 82861, Control_c, 0, 64, 127
2, 82917, Note_on_c, 0, 59, 0
2, 82920, Note_on_c, 0, 55, 0
2, 82952, Note_on_c, 0, 43, 33
2, 83112, Note_on_c, 0, 36, 0
2, 83432, Note_on_c, 0, 67, 50
2, 83463, Note_on_c, 0, 62, 43
2, 83471, Note_on_c, 0, 57, 33
2, 83472, Note_on_c, 0, 43, 0
2, 83483, Note_on_c, 0, 52, 33
2, 83591, Note_on_c, 0, 57, 0
2, 83691, Note_on_c, 0, 62, 0
2, 83693, Note_on_c, 0, 52, 0
2, 83698, Note_on_c, 0, 67, 0
2, 83989, Note_on_c, 0, 55, 48
2, 84477, Note_on_c, 0, 71, 60
2, 84483, Note_on_c, 0, 64, 58
2, 84487, Note_on_c, 0, 62, 50
2, 84498, Note_on_c, 0, 67, 50
2, 84535, Note_on_c, 0, 59, 37
2, 84536, Note_on_c, 0, 55, 0
2, 84543, Note_on_c, 0, 62, 0
2, 84573, Note_on_c, 0, 64, 0
2, 84605, Note_on_c, 0, 67, 0
2, 84651, Note_on_c, 0, 59, 0
2, 84655, Note_on_c, 0, 71, 0
2, 84971, Note_on_c, 0, 62, 34
2, 84978, Note_on_c, 0, 74, 71
2, 85026, Note_on_c, 0, 62, 0
2, 85130, Note_on_c, 0, 74, 0
2, 85522, Note_on_c, 0, 65, 57
2, 85525, Note_on_c, 0, 62, 41
2, 85528, Note_on_c, 0, 60, 54
2, 85530, Note_on_c, 0, 57, 66
2, 85571, Control_c, 0, 64, 0
2, 86010, Note_on_c, 0, 55, 57
2, 86423, Note_on_c, 0, 55, 0
2, 86523, Note_on_c, 0, 50, 49
2, 86615, Control_c, 0, 64, 127
2, 86903, Control_c, 0, 64, 0
2, 87059, Note_on_c, 0, 43, 55
2, 87154, Note_on_c, 0, 50, 0
2, 87208, Control_c, 0, 64, 127
2, 87259, Note_on_c, 0, 57, 0
2, 87339, Note_on_c, 0, 60, 0
2, 87400, Note_on_c, 0, 62, 0
2, 87424, Note_on_c, 0, 65, 0
2, 87567, Note_on_c, 0, 64, 57
2, 87579, Note_on_c, 0, 55, 48
2, 87581, Note_on_c, 0, 43, 0
2, 87594, Note_on_c, 0, 59, 55
2, 87845, Note_on_c, 0, 55, 0
2, 87949, Note_on_c, 0, 64, 0
2, 87994, Note_on_c, 0, 59, 0
2, 88043, Note_on_c, 0, 65, 68
2, 88091, Note_on_c, 0, 64, 54
2, 88160, Note_on_c, 0, 64, 0
2, 88237, Note_on_c, 0, 65, 0
2, 88603, Control_c, 0, 64, 0
2, 88621, Note_on_c, 0, 67, 68
2, 88627, Note_on_c, 0, 62, 64
2, 88629, Note_on_c, 0, 36, 47
2, 88643, Note_on_c, 0, 57, 64
2, 88656, Note_on_c, 0, 52, 33
2, 88941, Control_c, 0, 64, 127
2, 89095, Note_on_c, 0, 57, 0
2, 89194, Note_on_c, 0, 62, 0
2, 89195, Note_on_c, 0, 67, 0
2, 89210, Note_on_c, 0, 43, 55
2, 89211, Note_on_c, 0, 52, 0
2, 89299, Note_on_c, 0, 36, 0
2, 89746, Note_on_c, 0, 71, 68
2, 89757, Note_on_c, 0, 64, 75
2, 89765, Note_on_c, 0, 67, 63
2, 89770, Note_on_c, 0, 52, 48
2, 89773, Note_on_c, 0, 62, 66
2, 89778, Note_on_c, 0, 43, 0
2, 89839, Note_on_c, 0, 62, 0
2, 89880, Note_on_c, 0, 64, 0
2, 89901, Note_on_c, 0, 52, 0
2, 89925, Note_on_c, 0, 67, 0
2, 89986, Note_on_c, 0, 71, 0
2, 90447, Note_on_c, 0, 74, 74
2, 90461, Note_on_c, 0, 59, 58
2, 90469, Note_on_c, 0, 64, 78
2, 90471, Note_on_c, 0, 67, 72
2, 90474, Note_on_c, 0, 71, 68
2, 90643, Note_on_c, 0, 59, 0
2, 90682, Note_on_c, 0, 71, 0
2, 90707, Note_on_c, 0, 67, 0
2, 90711, Note_on_c, 0, 74, 0
2, 90712, Note_on_c, 0, 64, 0
2, 91362, Note_on_c, 0, 43, 54
2, 91367, Note_on_c, 0, 65, 74
2, 91376, Note_on_c, 0, 60, 75
2, 91378, Note_on_c, 0, 55, 60
2, 91379, Note_on_c, 0, 62, 60
2, 91386, Note_on_c, 0, 57, 81
2, 91410, Control_c, 0, 64, 0
2, 91698, Control_c, 0, 64, 127
2, 92119, Note_on_c, 0, 57, 0
2, 92203, Note_on_c, 0, 62, 0
2, 92218, Note_on_c, 0, 60, 0
2, 92242, Note_on_c, 0, 65, 0
2, 92243, Note_on_c, 0, 55, 0
2, 92317, Note_on_c, 0, 43, 0
2, 92965, Control_c, 0, 64, 0
2, 92973, Note_on_c, 0, 69, 68
2, 92975, Note_on_c, 0, 61, 74
2, 92981, Note_on_c, 0, 64, 68
2, 92987, Note_on_c, 0, 52, 59
2, 92991, Note_on_c, 0, 42, 57
2, 92992, Note_on_c, 0, 57, 80
2, 93221, Note_on_c, 0, 42, 0
2, 93229, Note_on_c, 0, 52, 0
2, 93269, Control_c, 0, 64, 127
2, 93271, Note_on_c, 0, 57, 0
2, 93351, Note_on_c, 0, 61, 0
2, 93354, Note_on_c, 0, 64, 0
2, 93394, Note_on_c, 0, 69, 0
2, 93805, Note_on_c, 0, 41, 1
2, 93831, Control_c, 0, 64, 0
2, 93887, Note_on_c, 0, 72, 60
2, 93893, Note_on_c, 0, 57, 53
2, 93903, Note_on_c, 0, 63, 77
2, 93906, Note_on_c, 0, 67, 70
2, 94087, Control_c, 0, 64, 127
2, 94258, Note_on_c, 0, 41, 0
2, 94263, Note_on_c, 0, 57, 0
2, 94298, Note_on_c, 0, 63, 0
2, 94351, Note_on_c, 0, 67, 0
2, 94498, Note_on_c, 0, 72, 0
2, 94696, Control_c, 0, 64, 0
2, 94723, Note_on_c, 0, 40, 57
2, 94763, Note_on_c, 0, 70, 73
2, 94767, Note_on_c, 0, 55, 29
2, 94783, Note_on_c, 0, 62, 58
2, 94792, Note_on_c, 0, 67, 54
2, 94883, Note_on_c, 0, 40, 0
2, 94938, Control_c, 0, 64, 127
2, 94957, Note_on_c, 0, 62, 0
2, 95055, Note_on_c, 0, 55, 0
2, 95056, Note_on_c, 0, 67, 0
2, 95085, Note_on_c, 0, 70, 0
2, 95499, Note_on_c, 0, 74, 63
2, 95514, Note_on_c, 0, 70, 59
2, 95517, Note_on_c, 0, 67, 64
2, 95546, Note_on_c, 0, 58, 55
2, 95642, Note_on_c, 0, 67, 0
2, 95675, Note_on_c, 0, 58, 0
2, 95685, Note_on_c, 0, 70, 0
2, 95703, Note_on_c, 0, 74, 0
2, 95906, Note_on_c, 0, 63, 32
2, 95959, Note_on_c, 0, 63, 0
2, 96218, Note_on_c, 0, 77, 63
2, 96223, Note_on_c, 0, 70, 60
2, 96232, Note_on_c, 0, 74, 53
2, 96234, Note_on_c, 0, 67, 56
2, 96239, Note_on_c, 0, 62, 44
2, 96274, Note_on_c, 0, 56, 46
2, 96371, Note_on_c, 0, 67, 0
2, 96405, Note_on_c, 0, 70, 0
2, 96431, Note_on_c, 0, 74, 0
2, 96453, Note_on_c, 0, 62, 0
2, 96461, Note_on_c, 0, 77, 0
2, 96499, Note_on_c, 0, 56, 0
2, 96909, Control_c, 0, 64, 0
2, 96973, Note_on_c, 0, 81, 63
2, 96984, Note_on_c, 0, 73, 46
2, 97000, Note_on_c, 0, 69, 54
2, 97003, Note_on_c, 0, 76, 57
2, 97008, Note_on_c, 0, 55, 44
2, 97018, Note_on_c, 0, 61, 39
2, 97024, Note_on_c, 0, 64, 41
2, 97167, Control_c, 0, 64, 127
2, 97192, Note_on_c, 0, 55, 0
2, 97205, Note_on_c, 0, 69, 0
2, 97227, Note_on_c, 0, 76, 0
2, 97239, Note_on_c, 0, 73, 0
2, 97277, Note_on_c, 0, 61, 0
2, 97283, Note_on_c, 0, 81, 0
2, 97288, Note_on_c, 0, 64, 0
2, 97835, Note_on_c, 0, 72, 42
2, 97842, Note_on_c, 0, 73, 34
2, 97847, Note_on_c, 0, 84, 68
2, 97851, Note_on_c, 0, 76, 54
2, 97904, Note_on_c, 0, 79, 30
2, 97927, Note_on_c, 0, 82, 33
2, 97981, Note_on_c, 0, 72, 0
2, 98143, Note_on_c, 0, 84, 0
2, 98176, Note_on_c, 0, 79, 0
2, 98197, Note_on_c, 0, 76, 0
2, 98208, Note_on_c, 0, 82, 0
2, 98330, Note_on_c, 0, 73, 0
2, 98813, Note_on_c, 0, 81, 46
2, 98816, Note_on_c, 0, 70, 40
2, 98834, Note_on_c, 0, 73, 32
2, 98839, Note_on_c, 0, 64, 32
2, 98874, Note_on_c, 0, 76, 42
2, 99002, Note_on_c, 0, 64, 0
2, 99099, Note_on_c, 0, 81, 0
2, 99237, Note_on_c, 0, 70, 0
2, 99472, Note_on_c, 0, 78, 12
2, 99480, Note_on_c, 0, 76, 0
2, 99621, Note_on_c, 0, 73, 0
2, 99749, Note_on_c, 0, 78, 0
2, 99829, Control_c, 0, 64, 0
2, 99850, Note_on_c, 0, 79, 50
2, 99864, Note_on_c, 0, 50, 34
2, 99869, Note_on_c, 0, 69, 35
2, 99871, Note_on_c, 0, 72, 36
2, 99887, Note_on_c, 0, 76, 26
2, 100197, Control_c, 0, 64, 127
2, 100389, Note_on_c, 0, 76, 0
2, 100421, Note_on_c, 0, 79, 0
2, 100535, Note_on_c, 0, 72, 0
2, 100591, Note_on_c, 0, 69, 0
2, 100847, Note_on_c, 0, 77, 45
2, 100879, Note_on_c, 0, 57, 36
2, 100880, Note_on_c, 0, 50, 0
2, 100882, Note_on_c, 0, 72, 38
2, 100895, Note_on_c, 0, 69, 24
2, 101458, Note_on_c, 0, 69, 0
2, 101475, Note_on_c, 0, 72, 0
2, 101480, Note_on_c, 0, 77, 0
2, 101978, Note_on_c, 0, 81, 71
2, 101987, Note_on_c, 0, 64, 36
2, 101989, Note_on_c, 0, 77, 74
2, 102247, Note_on_c, 0, 64, 0
2, 102403, Note_on_c, 0, 57, 0
2, 102419, Note_on_c, 0, 77, 0
2, 102439, Note_on_c, 0, 81, 0
2, 102511, Note_on_c, 0, 76, 63
2, 102514, Note_on_c, 0, 79, 58
2, 102907, Control_c, 0, 64, 0
2, 102909, Note_on_c, 0, 76, 0
2, 102939, Note_on_c, 0, 79, 0
2, 102971, Note_on_c, 0, 74, 49
2, 102975, Note_on_c, 0, 43, 32
2, 102992, Note_on_c, 0, 77, 65
2, 103112, Note_on_c, 0, 43, 0
2, 103165, Control_c, 0, 64, 127
2, 103413, Note_on_c, 0, 74, 0
2, 103530, Note_on_c, 0, 77, 0
2, 103597, Note_on_c, 0, 64, 34
2, 103618, Note_on_c, 0, 72, 51
2, 103619, Note_on_c, 0, 76, 51
2, 103637, Note_on_c, 0, 59, 32
2, 103639, Note_on_c, 0, 53, 20
2, 104010, Note_on_c, 0, 64, 0
2, 104011, Note_on_c, 0, 59, 0
2, 104103, Note_on_c, 0, 72, 0
2, 104258, Note_on_c, 0, 76, 0
2, 104384, Note_on_c, 0, 71, 42
2, 104394, Note_on_c, 0, 64, 34
2, 104405, Note_on_c, 0, 74, 44
2, 104413, Note_on_c, 0, 59, 33
2, 104864, Note_on_c, 0, 71, 0
2, 104955, Note_on_c, 0, 53, 0
2, 104995, Note_on_c, 0, 64, 0
2, 106573, Note_on_c, 0, 71, 49
2, 106584, Note_on_c, 0, 59, 0
2, 106597, Control_c, 0, 64, 0
2, 106607, Note_on_c, 0, 52, 32
2, 106618, Note_on_c, 0, 62, 27
2, 106642, Note_on_c, 0, 67, 19
2, 106741, Note_on_c, 0, 74, 0
2, 106920, Note_on_c, 0, 67, 0
2, 106951, Control_c, 0, 64, 127
2, 106957, Note_on_c, 0, 71, 0
2, 107315, Note_on_c, 0, 62, 0
2, 107367, Note_on_c, 0, 56, 50
2, 107375, Note_on_c, 0, 52, 0
2, 107509, Note_on_c, 0, 56, 0
2, 108168, Note_on_c, 0, 67, 43
2, 108184, Note_on_c, 0, 56, 46
2, 108203, Note_on_c, 0, 62, 36
2, 108210, Note_on_c, 0, 83, 78
2, 108215, Note_on_c, 0, 79, 74
2, 109043, Note_on_c, 0, 67, 0
2, 109061, Note_on_c, 0, 62, 0
2, 109139, Note_on_c, 0, 56, 0
2, 109171, Note_on_c, 0, 77, 62
2, 109184, Note_on_c, 0, 81, 55
2, 109231, Note_on_c, 0, 79, 0
2, 109263, Note_on_c, 0, 83, 0
2, 109693, Note_on_c, 0, 77, 0
2, 109725, Control_c, 0, 64, 0
2, 109730, Note_on_c, 0, 81, 0
2, 109765, Note_on_c, 0, 45, 56
2, 109776, Note_on_c, 0, 76, 59
2, 109792, Note_on_c, 0, 79, 52
2, 109895, Note_on_c, 0, 45, 0
2, 109979, Control_c, 0, 64, 127
2, 110195, Note_on_c, 0, 76, 0
2, 110291, Note_on_c, 0, 79, 0
2, 110418, Note_on_c, 0, 64, 40
2, 110424, Note_on_c, 0, 74, 60
2, 110431, Note_on_c, 0, 77, 62
2, 110464, Note_on_c, 0, 60, 35
2, 110475, Note_on_c, 0, 59, 29
2, 110775, Note_on_c, 0, 59, 0
2, 110786, Note_on_c, 0, 60, 0
2, 110818, Note_on_c, 0, 64, 0
2, 110850, Note_on_c, 0, 74, 0
2, 110946, Note_on_c, 0, 77, 0
2, 111096, Note_on_c, 0, 72, 48
2, 111104, Note_on_c, 0, 76, 61
2, 111109, Note_on_c, 0, 64, 42
2, 111136, Note_on_c, 0, 60, 33
2, 111181, Note_on_c, 0, 59, 20
2, 111269, Note_on_c, 0, 64, 0
2, 111277, Note_on_c, 0, 59, 0
2, 111303, Note_on_c, 0, 60, 0
2, 111365, Note_on_c, 0, 72, 0
2, 111613, Note_on_c, 0, 76, 0
2, 111872, Note_on_c, 0, 79, 48
2, 111882, Note_on_c, 0, 72, 40
2, 111885, Note_on_c, 0, 76, 40
2, 111888, Control_c, 0, 64, 0
2, 111903, Note_on_c, 0, 50, 42
2, 111933, Note_on_c, 0, 67, 30
2, 111962, Note_on_c, 0, 65, 33
2, 112242, Control_c, 0, 64, 127
2, 112597, Note_on_c, 0, 50, 0
2, 112635, Note_on_c, 0, 57, 51
2, 112637, Note_on_c, 0, 79, 0
2, 112647, Note_on_c, 0, 76, 0
2, 112717, Note_on_c, 0, 72, 0
2, 112813, Note_on_c, 0, 67, 0
2, 112821, Note_on_c, 0, 65, 0
2, 113424, Note_on_c, 0, 69, 48
2, 113432, Note_on_c, 0, 65, 40
2, 113437, Note_on_c, 0, 64, 35
2, 113629, Note_on_c, 0, 69, 0
2, 113712, Note_on_c, 0, 65, 0
2, 113975, Note_on_c, 0, 77, 60
2, 114051, Note_on_c, 0, 64, 0
2, 114191, Note_on_c, 0, 57, 0
2, 114272, Note_on_c, 0, 77, 0
2, 114347, Note_on_c, 0, 76, 63
2, 114712, Control_c, 0, 64, 0
2, 114722, Note_on_c, 0, 76, 0
2, 114760, Note_on_c, 0, 43, 36
2, 114781, Note_on_c, 0, 77, 65
2, 114915, Note_on_c, 0, 43, 0
2, 114936, Control_c, 0, 64, 127
2, 115330, Note_on_c, 0, 77, 0
2, 115367, Note_on_c, 0, 64, 44
2, 115381, Note_on_c, 0, 53, 28
2, 115400, Note_on_c, 0, 59, 44
2, 115408, Note_on_c, 0, 76, 64
2, 116789, Note_on_c, 0, 64, 0
2, 116915, Note_on_c, 0, 53, 0
2, 116930, Note_on_c, 0, 59, 0
2, 117448, Note_on_c, 0, 72, 38
2, 117570, Note_on_c, 0, 76, 0
2, 117741, Note_on_c, 0, 74, 58
2, 117744, Note_on_c, 0, 72, 0
2, 117936, Control_c, 0, 64, 0
2, 117995, Note_on_c, 0, 74, 0
2, 118037, Note_on_c, 0, 34, 50
2, 118074, Note_on_c, 0, 76, 58
2, 118165, Note_on_c, 0, 34, 0
2, 118175, Control_c, 0, 64, 127
2, 119744, Note_on_c, 0, 76, 0
2, 120290, Note_on_c, 0, 56, 37
2, 120496, Note_on_c, 0, 58, 35
2, 120722, Note_on_c, 0, 56, 0
2, 120770, Note_on_c, 0, 60, 44
2, 120791, Note_on_c, 0, 58, 0
2, 120967, Note_on_c, 0, 60, 0
2, 120991, Note_on_c, 0, 64, 58
2, 121255, Note_on_c, 0, 64, 0
2, 121264, Note_on_c, 0, 67, 53
2, 121405, Note_on_c, 0, 67, 0
2, 121487, Note_on_c, 0, 68, 29
2, 121618, Note_on_c, 0, 70, 30
2, 121719, Note_on_c, 0, 68, 0
2, 121794, Note_on_c, 0, 70, 0
2, 121863, Note_on_c, 0, 72, 36
2, 122117, Note_on_c, 0, 76, 55
2, 122151, Note_on_c, 0, 72, 0
2, 122375, Note_on_c, 0, 76, 0
2, 122389, Note_on_c, 0, 79, 52
2, 122560, Note_on_c, 0, 79, 0
2, 122752, Note_on_c, 0, 80, 35
2, 122826, Note_on_c, 0, 80, 0
2, 123106, Note_on_c, 0, 82, 36
2, 123357, Note_on_c, 0, 82, 0
2, 123480, Note_on_c, 0, 84, 62
2, 123760, Note_on_c, 0, 84, 0
2, 124035, Note_on_c, 0, 88, 31
2, 124061, Note_on_c, 0, 91, 14
2, 124245, Note_on_c, 0, 88, 0
2, 124293, Note_on_c, 0, 91, 0
2, 124488, Note_on_c, 0, 91, 56
2, 124915, Note_on_c, 0, 91, 0
2, 125003, Note_on_c, 0, 89, 43
2, 125007, Note_on_c, 0, 85, 37
2, 125039, Control_c, 0, 64, 0
2, 125053, Note_on_c, 0, 45, 42
2, 125344, Control_c, 0, 64, 127
2, 125503, Note_on_c, 0, 52, 38
2, 125602, Note_on_c, 0, 45, 0
2, 125658, Note_on_c, 0, 52, 0
2, 125794, Note_on_c, 0, 89, 0
2, 125816, Note_on_c, 0, 85, 0
2, 126016, Note_on_c, 0, 85, 30
2, 126058, Note_on_c, 0, 88, 38
2, 126072, Note_on_c, 0, 61, 37
2, 126541, Note_on_c, 0, 85, 0
2, 126573, Note_on_c, 0, 86, 56
2, 126623, Note_on_c, 0, 64, 32
2, 126957, Note_on_c, 0, 86, 0
2, 126973, Note_on_c, 0, 88, 0
2, 126983, Note_on_c, 0, 64, 0
2, 127242, Note_on_c, 0, 85, 39
2, 127283, Note_on_c, 0, 64, 26
2, 127283, Note_on_c, 0, 88, 36
2, 127288, Control_c, 0, 64, 0
2, 127544, Note_on_c, 0, 61, 0
2, 127594, Control_c, 0, 64, 127
2, 127917, Note_on_c, 0, 84, 49
2, 127925, Note_on_c, 0, 85, 0
2, 127997, Note_on_c, 0, 88, 0
2, 128231, Note_on_c, 0, 64, 0
2, 128391, Note_on_c, 0, 82, 48
2, 128431, Note_on_c, 0, 84, 0
2, 128698, Note_on_c, 0, 82, 0
2, 128771, Note_on_c, 0, 81, 50
2, 129085, Note_on_c, 0, 81, 0
2, 129115, Note_on_c, 0, 79, 38
2, 129381, Note_on_c, 0, 79, 0
2, 129440, Note_on_c, 0, 78, 52
2, 129752, Note_on_c, 0, 78, 0
2, 129813, Note_on_c, 0, 77, 50
2, 129839, Note_on_c, 0, 60, 47
2, 129887, Control_c, 0, 64, 0
2, 129895, Note_on_c, 0, 50, 32
2, 130219, Note_on_c, 0, 77, 0
2, 130256, Control_c, 0, 64, 127
2, 130299, Note_on_c, 0, 79, 47
2, 130619, Note_on_c, 0, 79, 0
2, 130717, Note_on_c, 0, 76, 44
2, 130760, Note_on_c, 0, 57, 31
2, 130909, Note_on_c, 0, 60, 0
2, 131087, Note_on_c, 0, 76, 0
2, 131109, Note_on_c, 0, 77, 63
2, 131530, Note_on_c, 0, 77, 0
2, 131554, Note_on_c, 0, 60, 32
2, 131557, Note_on_c, 0, 76, 64
2, 131571, Note_on_c, 0, 75, 38
2, 131808, Note_on_c, 0, 75, 0
2, 131957, Note_on_c, 0, 76, 0
2, 131997, Note_on_c, 0, 72, 54
2, 132187, Note_on_c, 0, 72, 0
2, 132354, Note_on_c, 0, 60, 0
2, 132411, Note_on_c, 0, 69, 51
2, 132538, Note_on_c, 0, 57, 0
2, 132632, Note_on_c, 0, 50, 0
2, 132711, Note_on_c, 0, 69, 0
2, 132855, Note_on_c, 0, 65, 40
2, 133003, Note_on_c, 0, 65, 0
2, 133583, Note_on_c, 0, 60, 54
2, 133605, Note_on_c, 0, 43, 24
2, 133634, Note_on_c, 0, 53, 24
2, 133751, Control_c, 0, 64, 0
2, 134122, Control_c, 0, 64, 127
2, 134271, Note_on_c, 0, 57, 46
2, 134298, Note_on_c, 0, 50, 17
2, 134581, Note_on_c, 0, 53, 0
2, 134634, Note_on_c, 0, 57, 0
2, 134663, Note_on_c, 0, 60, 0
2, 135098, Note_on_c, 0, 59, 45
2, 135106, Note_on_c, 0, 56, 30
2, 135120, Note_on_c, 0, 53, 24
2, 135130, Control_c, 0, 64, 0
2, 135515, Control_c, 0, 64, 127
2, 135642, Note_on_c, 0, 43, 0
2, 135661, Control_c, 0, 64, 0
2, 135723, Note_on_c, 0, 60, 62
2, 135917, Control_c, 0, 64, 127
2, 136035, Note_on_c, 0, 59, 0
2, 136130, Note_on_c, 0, 56, 0
2, 136335, Control_c, 0, 64, 0
2, 136391, Note_on_c, 0, 43, 30
2, 136392, Note_on_c, 0, 60, 0
2, 136415, Note_on_c, 0, 62, 38
2, 136427, Note_on_c, 0, 56, 37
2, 136439, Note_on_c, 0, 59, 40
2, 136639, Control_c, 0, 64, 127
2, 136685, Note_on_c, 0, 56, 0
2, 136699, Note_on_c, 0, 62, 0
2, 136727, Note_on_c, 0, 59, 0
2, 137018, Note_on_c, 0, 67, 57
2, 137072, Note_on_c, 0, 53, 0
2, 137221, Note_on_c, 0, 67, 0
2, 137277, Note_on_c, 0, 43, 0
2, 138725, Control_c, 0, 64, 0
2, 138728, Note_on_c, 0, 64, 39
2, 138741, Note_on_c, 0, 50, 0
2, 138757, Note_on_c, 0, 55, 27
2, 138763, Note_on_c, 0, 59, 36
2, 138787, Note_on_c, 0, 43, 24
2, 138818, Note_on_c, 0, 52, 18
2, 139061, Control_c, 0, 64, 127
2, 139144, Note_on_c, 0, 52, 0
2, 139255, Note_on_c, 0, 55, 0
2, 139336, Note_on_c, 0, 64, 0
2, 139360, Note_on_c, 0, 59, 0
2, 139365, Note_on_c, 0, 52, 31
2, 139847, Note_on_c, 0, 62, 47
2, 139869, Note_on_c, 0, 59, 46
2, 139898, Note_on_c, 0, 57, 40
2, 139903, Note_on_c, 0, 55, 28
2, 139984, Note_on_c, 0, 57, 0
2, 140291, Note_on_c, 0, 62, 0
2, 140295, Note_on_c, 0, 59, 0
2, 140309, Note_on_c, 0, 67, 56
2, 140477, Note_on_c, 0, 67, 0
2, 140808, Note_on_c, 0, 69, 73
2, 140864, Note_on_c, 0, 43, 0
2, 140939, Note_on_c, 0, 55, 0
2, 140951, Note_on_c, 0, 52, 0
2, 141130, Note_on_c, 0, 69, 0
2, 141240, Note_on_c, 0, 76, 84
2, 141717, Note_on_c, 0, 69, 52
2, 141725, Note_on_c, 0, 65, 50
2, 141728, Note_on_c, 0, 76, 0
2, 141738, Note_on_c, 0, 64, 45
2, 141754, Control_c, 0, 64, 0
2, 142141, Control_c, 0, 64, 127
2, 142274, Note_on_c, 0, 62, 35
2, 142301, Note_on_c, 0, 64, 0
2, 142815, Note_on_c, 0, 55, 34
2, 142867, Note_on_c, 0, 62, 0
2, 143005, Note_on_c, 0, 55, 0
2, 143343, Note_on_c, 0, 69, 0
2, 143355, Note_on_c, 0, 50, 37
2, 143475, Note_on_c, 0, 65, 0
2, 143978, Note_on_c, 0, 43, 30
2, 144043, Note_on_c, 0, 53, 22
2, 144083, Note_on_c, 0, 50, 0
2, 144664, Note_on_c, 0, 43, 0
2, 144797, Note_on_c, 0, 63, 44
2, 144824, Note_on_c, 0, 59, 34
2, 144843, Note_on_c, 0, 53, 0
2, 144915, Note_on_c, 0, 68, 18
2, 145504, Note_on_c, 0, 59, 0
2, 145565, Note_on_c, 0, 68, 0
2, 146256, Note_on_c, 0, 63, 0
2, 146871, Control_c, 0, 64, 0
2, 146893, Note_on_c, 0, 62, 29
2, 146925, Note_on_c, 0, 43, 22
2, 146928, Note_on_c, 0, 57, 35
2, 146933, Note_on_c, 0, 59, 29
2, 146944, Note_on_c, 0, 52, 26
2, 146960, Note_on_c, 0, 36, 26
2, 147320, Control_c, 0, 64, 127
2, 147338, Note_on_c, 0, 57, 0
2, 147363, Note_on_c, 0, 36, 0
2, 147403, Note_on_c, 0, 59, 0
2, 147461, Note_on_c, 0, 43, 0
2, 147522, Note_on_c, 0, 62, 0
2, 147571, Note_on_c, 0, 52, 0
2, 148151, Note_on_c, 0, 67, 60
2, 148211, Note_on_c, 0, 55, 26
2, 148323, Note_on_c, 0, 67, 0
2, 148680, Note_on_c, 0, 71, 88
2, 148701, Note_on_c, 0, 59, 34
2, 148767, Note_on_c, 0, 55, 0
2, 148903, Note_on_c, 0, 59, 0
2, 149007, Note_on_c, 0, 71, 0
2, 149096, Note_on_c, 0, 74, 79
2, 149341, Note_on_c, 0, 74, 0
2, 149581, Control_c, 0, 64, 0
2, 149587, Note_on_c, 0, 65, 67
2, 149603, Note_on_c, 0, 43, 35
2, 149935, Control_c, 0, 64, 127
2, 150133, Note_on_c, 0, 43, 0
2, 150151, Note_on_c, 0, 55, 38
2, 150299, Note_on_c, 0, 55, 0
2, 150760, Note_on_c, 0, 65, 0
2, 150871, Note_on_c, 0, 65, 34
2, 150887, Note_on_c, 0, 55, 28
2, 150901, Note_on_c, 0, 60, 32
2, 150903, Note_on_c, 0, 57, 29
2, 151551, Note_on_c, 0, 69, 81
2, 151661, Note_on_c, 0, 65, 0
2, 151751, Note_on_c, 0, 57, 0
2, 151760, Note_on_c, 0, 60, 0
2, 151775, Note_on_c, 0, 55, 0
2, 152103, Note_on_c, 0, 70, 43
2, 152202, Note_on_c, 0, 69, 0
2, 152224, Note_on_c, 0, 71, 70
2, 152269, Note_on_c, 0, 70, 0
2, 152347, Note_on_c, 0, 71, 0
2, 152427, Note_on_c, 0, 72, 77
2, 152477, Note_on_c, 0, 71, 31
2, 152535, Note_on_c, 0, 71, 0
2, 152789, Control_c, 0, 64, 0
2, 152792, Note_on_c, 0, 72, 0
2, 152811, Note_on_c, 0, 67, 69
2, 152813, Note_on_c, 0, 43, 46
2, 153317, Control_c, 0, 64, 127
2, 153397, Note_on_c, 0, 55, 48
2, 153453, Note_on_c, 0, 43, 0
2, 153551, Note_on_c, 0, 55, 0
2, 153925, Note_on_c, 0, 67, 0
2, 153992, Note_on_c, 0, 60, 55
2, 154008, Note_on_c, 0, 71, 71
2, 154346, Note_on_c, 0, 60, 0
2, 154431, Note_on_c, 0, 71, 0
2, 154514, Note_on_c, 0, 74, 71
2, 154635, Note_on_c, 0, 74, 0
2, 155093, Note_on_c, 0, 65, 39
2, 155098, Control_c, 0, 64, 0
2, 155103, Note_on_c, 0, 62, 34
2, 155115, Note_on_c, 0, 57, 40
2, 155119, Note_on_c, 0, 60, 35
2, 155671, Note_on_c, 0, 55, 31
2, 155981, Note_on_c, 0, 55, 0
2, 156197, Note_on_c, 0, 43, 35
2, 156333, Control_c, 0, 64, 127
2, 156458, Note_on_c, 0, 43, 0
2, 156536, Note_on_c, 0, 57, 0
2, 156631, Note_on_c, 0, 60, 0
2, 156797, Note_on_c, 0, 62, 0
2, 156847, Control_c, 0, 64, 0
2, 156885, Note_on_c, 0, 56, 40
2, 157055, Control_c, 0, 64, 127
2, 157264, Note_on_c, 0, 56, 0
2, 157523, Note_on_c, 0, 65, 0
2, 157600, Control_c, 0, 64, 0
2, 157603, Note_on_c, 0, 55, 36
2, 157677, Note_on_c, 0, 36, 39
2, 157968, Control_c, 0, 64, 127
2, 158200, Note_on_c, 0, 55, 0
2, 158293, Note_on_c, 0, 43, 34
2, 158859, Note_on_c, 0, 36, 0
2, 158899, Note_on_c, 0, 52, 36
2, 159311, Note_on_c, 0, 67, 54
2, 159383, Note_on_c, 0, 43, 0
2, 159576, Note_on_c, 0, 52, 0
2, 159579, Note_on_c, 0, 67, 0
2, 159659, Note_on_c, 0, 71, 54
2, 159925, Note_on_c, 0, 71, 0
2, 160037, Note_on_c, 0, 74, 71
2, 160171, Note_on_c, 0, 74, 0
2, 160904, Control_c, 0, 64, 0
2, 160906, Note_on_c, 0, 65, 55
2, 160909, Note_on_c, 0, 57, 57
2, 160912, Note_on_c, 0, 60, 51
2, 160947, Note_on_c, 0, 55, 35
2, 161208, Control_c, 0, 64, 127
2, 161427, Note_on_c, 0, 57, 0
2, 161511, Note_on_c, 0, 65, 0
2, 161517, Note_on_c, 0, 60, 0
2, 162307, Note_on_c, 0, 55, 0
2, 162411, Control_c, 0, 64, 0
2, 162472, Note_on_c, 0, 64, 50
2, 162475, Note_on_c, 0, 61, 46
2, 162480, Note_on_c, 0, 69, 42
2, 162485, Note_on_c, 0, 57, 55
2, 162503, Note_on_c, 0, 54, 37
2, 162706, Note_on_c, 0, 57, 0
2, 162715, Control_c, 0, 64, 127
2, 162751, Note_on_c, 0, 64, 0
2, 162765, Note_on_c, 0, 61, 0
2, 162797, Note_on_c, 0, 69, 0
2, 163133, Control_c, 0, 64, 0
2, 163208, Note_on_c, 0, 72, 59
2, 163229, Note_on_c, 0, 63, 63
2, 163261, Note_on_c, 0, 67, 46
2, 163263, Note_on_c, 0, 69, 38
2, 163267, Note_on_c, 0, 53, 38
2, 163269, Note_on_c, 0, 54, 0
2, 163389, Control_c, 0, 64, 127
2, 163567, Note_on_c, 0, 67, 0
2, 163672, Note_on_c, 0, 72, 0
2, 163720, Note_on_c, 0, 63, 0
2, 163733, Note_on_c, 0, 69, 0
2, 163791, Control_c, 0, 64, 0
2, 163816, Note_on_c, 0, 53, 0
2, 163863, Note_on_c, 0, 70, 57
2, 163885, Note_on_c, 0, 62, 37
2, 163887, Note_on_c, 0, 67, 41
2, 163896, Note_on_c, 0, 52, 37
2, 163947, Note_on_c, 0, 62, 0
2, 163978, Note_on_c, 0, 52, 0
2, 164043, Note_on_c, 0, 67, 0
2, 164071, Note_on_c, 0, 70, 0
2, 164080, Control_c, 0, 64, 127
2, 164427, Note_on_c, 0, 58, 45
2, 164440, Note_on_c, 0, 70, 52
2, 164447, Note_on_c, 0, 74, 54
2, 164544, Note_on_c, 0, 70, 0
2, 164576, Note_on_c, 0, 74, 0
2, 164979, Note_on_c, 0, 77, 57
2, 164986, Note_on_c, 0, 70, 55
2, 165002, Note_on_c, 0, 62, 33
2, 165015, Note_on_c, 0, 67, 34
2, 165029, Note_on_c, 0, 74, 26
2, 165056, Note_on_c, 0, 62, 0
2, 165083, Note_on_c, 0, 74, 0
2, 165088, Note_on_c, 0, 77, 0
2, 165090, Note_on_c, 0, 58, 0
2, 165147, Note_on_c, 0, 70, 0
2, 165157, Note_on_c, 0, 67, 0
2, 165603, Control_c, 0, 64, 0
2, 165663, Note_on_c, 0, 64, 40
2, 165677, Note_on_c, 0, 45, 38
2, 165690, Note_on_c, 0, 55, 26
2, 165711, Note_on_c, 0, 58, 27
2, 165861, Note_on_c, 0, 58, 0
2, 165875, Control_c, 0, 64, 127
2, 165883, Note_on_c, 0, 45, 0
2, 165893, Note_on_c, 0, 64, 0
2, 165976, Note_on_c, 0, 55, 0
2, 166359, Note_on_c, 0, 61, 46
2, 166363, Note_on_c, 0, 60, 38
2, 166371, Control_c, 0, 64, 0
2, 166381, Note_on_c, 0, 64, 53
2, 166397, Note_on_c, 0, 67, 49
2, 166605, Note_on_c, 0, 67, 0
2, 166608, Note_on_c, 0, 60, 0
2, 166615, Control_c, 0, 64, 127
2, 166618, Note_on_c, 0, 64, 0
2, 166735, Note_on_c, 0, 61, 0
2, 166997, Control_c, 0, 64, 0
2, 167037, Note_on_c, 0, 61, 53
2, 167050, Note_on_c, 0, 58, 48
2, 167053, Note_on_c, 0, 64, 38
2, 167058, Note_on_c, 0, 57, 47
2, 167207, Control_c, 0, 64, 127
2, 167235, Note_on_c, 0, 57, 0
2, 167253, Note_on_c, 0, 64, 0
2, 167322, Note_on_c, 0, 58, 0
2, 167397, Note_on_c, 0, 61, 0
2, 167656, Control_c, 0, 64, 0
2, 167741, Note_on_c, 0, 65, 50
2, 167747, Note_on_c, 0, 57, 49
2, 167765, Note_on_c, 0, 60, 30
2, 167773, Note_on_c, 0, 50, 43
2, 167899, Note_on_c, 0, 57, 0
2, 167930, Note_on_c, 0, 60, 0
2, 167976, Control_c, 0, 64, 127
2, 167997, Note_on_c, 0, 65, 0
2, 168264, Note_on_c, 0, 50, 0
2, 168712, Note_on_c, 0, 64, 50
2, 168714, Note_on_c, 0, 69, 54
2, 168720, Note_on_c, 0, 72, 45
2, 168728, Note_on_c, 0, 65, 50
2, 168736, Note_on_c, 0, 76, 43
2, 168885, Note_on_c, 0, 65, 0
2, 168943, Note_on_c, 0, 69, 0
2, 168959, Note_on_c, 0, 72, 0
2, 169031, Note_on_c, 0, 76, 0
2, 169091, Note_on_c, 0, 64, 0
2, 169635, Note_on_c, 0, 81, 79
2, 169642, Note_on_c, 0, 77, 80
2, 169975, Note_on_c, 0, 77, 0
2, 169986, Note_on_c, 0, 81, 0
2, 170055, Note_on_c, 0, 76, 71
2, 170059, Note_on_c, 0, 79, 60
2, 170416, Note_on_c, 0, 76, 0
2, 170431, Note_on_c, 0, 79, 0
2, 170445, Control_c, 0, 64, 0
2, 170493, Note_on_c, 0, 74, 57
2, 170503, Note_on_c, 0, 43, 34
2, 170512, Note_on_c, 0, 77, 60
2, 170639, Note_on_c, 0, 43, 0
2, 170719, Control_c, 0, 64, 127
2, 170946, Note_on_c, 0, 74, 0
2, 171119, Note_on_c, 0, 64, 34
2, 171122, Note_on_c, 0, 77, 0
2, 171128, Note_on_c, 0, 72, 47
2, 171147, Note_on_c, 0, 76, 46
2, 171168, Note_on_c, 0, 59, 29
2, 171194, Note_on_c, 0, 53, 17
2, 172159, Note_on_c, 0, 72, 0
2, 172621, Note_on_c, 0, 76, 0
2, 173008, Note_on_c, 0, 74, 83
2, 173186, Note_on_c, 0, 64, 0
2, 173309, Note_on_c, 0, 59, 0
2, 173378, Note_on_c, 0, 53, 0
2, 173397, Note_on_c, 0, 73, 31
2, 173456, Note_on_c, 0, 74, 0
2, 173618, Note_on_c, 0, 72, 29
2, 173699, Note_on_c, 0, 73, 0
2, 173802, Note_on_c, 0, 71, 46
2, 173823, Note_on_c, 0, 72, 0
2, 173970, Note_on_c, 0, 71, 0
2, 174037, Control_c, 0, 64, 0
2, 174039, Note_on_c, 0, 77, 74
2, 174083, Note_on_c, 0, 52, 36
2, 174104, Note_on_c, 0, 62, 30
2, 174429, Note_on_c, 0, 74, 41
2, 174445, Note_on_c, 0, 77, 0
2, 174487, Control_c, 0, 64, 127
2, 174618, Note_on_c, 0, 74, 0
2, 174744, Note_on_c, 0, 76, 70
2, 174776, Note_on_c, 0, 52, 0
2, 174848, Note_on_c, 0, 62, 0
2, 175146, Control_c, 0, 64, 0
2, 175171, Note_on_c, 0, 62, 16
2, 175186, Note_on_c, 0, 71, 60
2, 175187, Note_on_c, 0, 56, 46
2, 175229, Note_on_c, 0, 76, 0
2, 175626, Control_c, 0, 64, 127
2, 176229, Note_on_c, 0, 71, 0
2, 176533, Note_on_c, 0, 70, 76
2, 176539, Note_on_c, 0, 68, 64
2, 176623, Note_on_c, 0, 62, 0
2, 176791, Note_on_c, 0, 56, 0
2, 177043, Note_on_c, 0, 70, 0
2, 177095, Note_on_c, 0, 68, 0
2, 177362, Note_on_c, 0, 64, 68
2, 177679, Note_on_c, 0, 64, 0
2, 177709, Note_on_c, 0, 62, 42
2, 177917, Note_on_c, 0, 62, 0
2, 178000, Note_on_c, 0, 60, 49
2, 178271, Note_on_c, 0, 60, 0
2, 178344, Note_on_c, 0, 59, 55
2, 178448, Control_c, 0, 64, 0
2, 178450, Note_on_c, 0, 55, 34
2, 178482, Note_on_c, 0, 45, 38
2, 179123, Note_on_c, 0, 60, 57
2, 179197, Note_on_c, 0, 59, 0
2, 179314, Control_c, 0, 64, 127
2, 179626, Note_on_c, 0, 60, 0
2, 179683, Control_c, 0, 64, 0
2, 179685, Note_on_c, 0, 56, 73
2, 180162, Note_on_c, 0, 56, 0
2, 180171, Note_on_c, 0, 57, 80
2, 180554, Note_on_c, 0, 57, 0
2, 180623, Note_on_c, 0, 59, 58
2, 180674, Note_on_c, 0, 52, 24
2, 180792, Note_on_c, 0, 45, 0
2, 180839, Note_on_c, 0, 52, 0
2, 180855, Control_c, 0, 64, 127
2, 180976, Note_on_c, 0, 55, 0
2, 180983, Note_on_c, 0, 59, 0
2, 181048, Note_on_c, 0, 60, 70
2, 181381, Note_on_c, 0, 60, 0
2, 181480, Control_c, 0, 64, 0
2, 181520, Note_on_c, 0, 60, 67
2, 181573, Note_on_c, 0, 50, 36
2, 181987, Note_on_c, 0, 62, 58
2, 181989, Note_on_c, 0, 57, 47
2, 182053, Note_on_c, 0, 60, 0
2, 182363, Note_on_c, 0, 62, 0
2, 182419, Note_on_c, 0, 57, 0
2, 182448, Note_on_c, 0, 62, 40
2, 182528, Note_on_c, 0, 57, 24
2, 182634, Control_c, 0, 64, 127
2, 182762, Control_c, 0, 64, 0
2, 182803, Note_on_c, 0, 62, 0
2, 182912, Note_on_c, 0, 64, 67
2, 183197, Note_on_c, 0, 64, 0
2, 183362, Note_on_c, 0, 64, 62
2, 183423, Note_on_c, 0, 60, 30
2, 183517, Control_c, 0, 64, 127
2, 183581, Note_on_c, 0, 64, 0
2, 183677, Control_c, 0, 64, 0
2, 183787, Note_on_c, 0, 68, 63
2, 183933, Control_c, 0, 64, 127
2, 184011, Note_on_c, 0, 50, 0
2, 184019, Note_on_c, 0, 60, 0
2, 184045, Note_on_c, 0, 68, 0
2, 184109, Control_c, 0, 64, 0
2, 184219, Note_on_c, 0, 68, 47
2, 184232, Note_on_c, 0, 57, 0
2, 184235, Note_on_c, 0, 60, 25
2, 184242, Note_on_c, 0, 54, 44
2, 184447, Control_c, 0, 64, 127
2, 184648, Note_on_c, 0, 71, 58
2, 184848, Note_on_c, 0, 60, 0
2, 184869, Note_on_c, 0, 71, 0
2, 184883, Note_on_c, 0, 68, 0
2, 185107, Note_on_c, 0, 60, 24
2, 185111, Note_on_c, 0, 71, 45
2, 185157, Note_on_c, 0, 68, 38
2, 185410, Note_on_c, 0, 68, 0
2, 185491, Note_on_c, 0, 71, 0
2, 185602, Note_on_c, 0, 72, 64
2, 185712, Note_on_c, 0, 60, 0
2, 185947, Note_on_c, 0, 72, 0
2, 186130, Note_on_c, 0, 72, 43
2, 186151, Note_on_c, 0, 60, 32
2, 186235, Note_on_c, 0, 60, 0
2, 186346, Note_on_c, 0, 54, 0
2, 186600, Note_on_c, 0, 72, 0
2, 186642, Note_on_c, 0, 74, 46
2, 187883, Note_on_c, 0, 73, 43
2, 187920, Note_on_c, 0, 44, 29
2, 187927, Control_c, 0, 64, 0
2, 187962, Note_on_c, 0, 74, 0
2, 188379, Note_on_c, 0, 54, 45
2, 188392, Control_c, 0, 64, 127
2, 188411, Note_on_c, 0, 44, 0
2, 188519, Note_on_c, 0, 54, 0
2, 188925, Note_on_c, 0, 60, 41
2, 189434, Note_on_c, 0, 70, 46
2, 189447, Note_on_c, 0, 65, 34
2, 189643, Note_on_c, 0, 73, 0
2, 189920, Note_on_c, 0, 70, 0
2, 189935, Note_on_c, 0, 72, 47
2, 190245, Note_on_c, 0, 65, 0
2, 190312, Note_on_c, 0, 72, 0
2, 190387, Note_on_c, 0, 73, 57
2, 190415, Note_on_c, 0, 60, 0
2, 190835, Note_on_c, 0, 73, 0
2, 190879, Control_c, 0, 64, 0
2, 190893, Note_on_c, 0, 74, 62
2, 191291, Note_on_c, 0, 74, 0
2, 191330, Note_on_c, 0, 75, 57
2, 191363, Note_on_c, 0, 50, 27
2, 191600, Control_c, 0, 64, 127
2, 191701, Note_on_c, 0, 75, 0
2, 191781, Note_on_c, 0, 76, 60
2, 191797, Note_on_c, 0, 57, 42
2, 192013, Note_on_c, 0, 76, 0
2, 192026, Note_on_c, 0, 50, 0
2, 192250, Note_on_c, 0, 79, 54
2, 192272, Note_on_c, 0, 64, 35
2, 192288, Note_on_c, 0, 72, 40
2, 192471, Note_on_c, 0, 64, 0
2, 192485, Note_on_c, 0, 79, 0
2, 192496, Note_on_c, 0, 72, 0
2, 192568, Note_on_c, 0, 57, 0
2, 192770, Control_c, 0, 64, 0
2, 192850, Note_on_c, 0, 64, 34
2, 192851, Note_on_c, 0, 77, 48
2, 192858, Note_on_c, 0, 72, 54
2, 192909, Note_on_c, 0, 67, 35
2, 193055, Note_on_c, 0, 77, 0
2, 193056, Note_on_c, 0, 72, 0
2, 193114, Note_on_c, 0, 64, 0
2, 193123, Control_c, 0, 64, 127
2, 193181, Note_on_c, 0, 67, 0
2, 193487, Note_on_c, 0, 76, 51
2, 193507, Note_on_c, 0, 62, 26
2, 193512, Note_on_c, 0, 71, 43
2, 193523, Note_on_c, 0, 65, 37
2, 193530, Note_on_c, 0, 68, 33
2, 193698, Note_on_c, 0, 62, 0
2, 193746, Note_on_c, 0, 76, 0
2, 193760, Note_on_c, 0, 65, 0
2, 193864, Note_on_c, 0, 68, 0
2, 194101, Control_c, 0, 64, 0
2, 194143, Note_on_c, 0, 74, 35
2, 194154, Note_on_c, 0, 64, 40
2, 194165, Note_on_c, 0, 67, 39
2, 194194, Note_on_c, 0, 52, 26
2, 194226, Note_on_c, 0, 59, 18
2, 194455, Control_c, 0, 64, 127
2, 194549, Note_on_c, 0, 59, 0
2, 194783, Note_on_c, 0, 71, 0
2, 194810, Note_on_c, 0, 59, 36
2, 194811, Note_on_c, 0, 67, 0
2, 194848, Note_on_c, 0, 74, 0
2, 194951, Note_on_c, 0, 64, 0
2, 195407, Note_on_c, 0, 67, 49
2, 195410, Note_on_c, 0, 64, 43
2, 195507, Note_on_c, 0, 59, 0
2, 195595, Note_on_c, 0, 52, 0
2, 195719, Note_on_c, 0, 64, 0
2, 195813, Note_on_c, 0, 67, 0
2, 195880, Note_on_c, 0, 71, 64
2, 196191, Note_on_c, 0, 71, 0
2, 196325, Note_on_c, 0, 74, 72
2, 196474, Note_on_c, 0, 74, 0
2, 196826, Note_on_c, 0, 65, 60
2, 197307, Control_c, 0, 64, 0
2, 197330, Note_on_c, 0, 60, 46
2, 197343, Note_on_c, 0, 57, 52
2, 197370, Note_on_c, 0, 55, 34
2, 197440, Note_on_c, 0, 55, 0
2, 197850, Note_on_c, 0, 43, 34
2, 198047, Note_on_c, 0, 43, 0
2, 198367, Note_on_c, 0, 31, 40
2, 198384, Control_c, 0, 64, 127
2, 198432, Note_on_c, 0, 60, 0
2, 198509, Note_on_c, 0, 65, 0
2, 198730, Note_on_c, 0, 57, 0
2, 198925, Note_on_c, 0, 43, 22
2, 199248, Note_on_c, 0, 31, 0
2, 199453, Note_on_c, 0, 53, 32
2, 199498, Note_on_c, 0, 43, 0
2, 199818, Note_on_c, 0, 53, 0
2, 199939, Note_on_c, 0, 56, 52
2, 200240, Note_on_c, 0, 56, 0
2, 200469, Control_c, 0, 64, 0
2, 200474, Note_on_c, 0, 55, 37
2, 200536, Note_on_c, 0, 43, 27
2, 200869, Control_c, 0, 64, 127
2, 201021, Note_on_c, 0, 52, 32
2, 201027, Note_on_c, 0, 55, 0
2, 201463, Note_on_c, 0, 55, 25
2, 201483, Note_on_c, 0, 59, 33
2, 201890, Note_on_c, 0, 62, 48
2, 201925, Note_on_c, 0, 59, 0
2, 202053, Note_on_c, 0, 62, 0
2, 202301, Note_on_c, 0, 67, 82
2, 202583, Note_on_c, 0, 55, 0
2, 202592, Note_on_c, 0, 67, 0
2, 202613, Note_on_c, 0, 52, 0
2, 202698, Note_on_c, 0, 74, 80
2, 202699, Note_on_c, 0, 43, 0
2, 202848, Note_on_c, 0, 74, 0
2, 203202, Note_on_c, 0, 69, 54
2, 203210, Note_on_c, 0, 65, 46
2, 203216, Note_on_c, 0, 60, 51
2, 203234, Note_on_c, 0, 55, 36
2, 203370, Control_c, 0, 64, 0
2, 203746, Note_on_c, 0, 43, 32
2, 203755, Control_c, 0, 64, 127
2, 204357, Note_on_c, 0, 65, 0
2, 204363, Note_on_c, 0, 60, 0
2, 204483, Note_on_c, 0, 43, 0
2, 204488, Note_on_c, 0, 69, 0
2, 204530, Note_on_c, 0, 55, 0
2, 204738, Note_on_c, 0, 63, 46
2, 204739, Note_on_c, 0, 43, 19
2, 204751, Note_on_c, 0, 68, 49
2, 204755, Note_on_c, 0, 59, 39
2, 204765, Control_c, 0, 64, 0
2, 204786, Note_on_c, 0, 53, 25
2, 205055, Control_c, 0, 64, 127
2, 205319, Note_on_c, 0, 43, 0
2, 205557, Note_on_c, 0, 43, 26
2, 205651, Note_on_c, 0, 59, 0
2, 205819, Note_on_c, 0, 68, 0
2, 205887, Note_on_c, 0, 53, 0
2, 206011, Note_on_c, 0, 63, 0
2, 206136, Note_on_c, 0, 67, 39
2, 206160, Control_c, 0, 64, 0
2, 206163, Note_on_c, 0, 57, 32
2, 206165, Note_on_c, 0, 62, 44
2, 206175, Note_on_c, 0, 59, 24
2, 206187, Note_on_c, 0, 52, 22
2, 206562, Control_c, 0, 64, 127
2, 206677, Note_on_c, 0, 43, 0
2, 206824, Note_on_c, 0, 43, 30
2, 207035, Note_on_c, 0, 67, 0
2, 207139, Note_on_c, 0, 62, 0
2, 207251, Note_on_c, 0, 59, 0
2, 207277, Note_on_c, 0, 57, 0
2, 207586, Note_on_c, 0, 55, 43
2, 207783, Note_on_c, 0, 55, 0
2, 208050, Note_on_c, 0, 59, 89
2, 208359, Note_on_c, 0, 59, 0
2, 208525, Note_on_c, 0, 62, 74
2, 208896, Note_on_c, 0, 52, 0
2, 208991, Note_on_c, 0, 43, 0
2, 209127, Note_on_c, 0, 62, 0
2, 209151, Note_on_c, 0, 57, 77
2, 209173, Note_on_c, 0, 53, 54
2, 209208, Control_c, 0, 64, 0
2, 209464, Control_c, 0, 64, 127
2, 209859, Note_on_c, 0, 53, 0
2, 209976, Note_on_c, 0, 57, 0
2, 211069, Control_c, 0, 64, 0
2, 211115, Note_on_c, 0, 61, 64
2, 211120, Note_on_c, 0, 69, 56
2, 211122, Note_on_c, 0, 64, 61
2, 211136, Note_on_c, 0, 57, 71
2, 211151, Note_on_c, 0, 42, 46
2, 211155, Note_on_c, 0, 30, 51
2, 211295, Note_on_c, 0, 57, 0
2, 211339, Note_on_c, 0, 61, 0
2, 211351, Note_on_c, 0, 64, 0
2, 211363, Note_on_c, 0, 42, 0
2, 211389, Note_on_c, 0, 69, 0
2, 211410, Note_on_c, 0, 30, 0
2, 211813, Note_on_c, 0, 72, 66
2, 211823, Note_on_c, 0, 29, 47
2, 211824, Note_on_c, 0, 41, 57
2, 211829, Note_on_c, 0, 67, 65
2, 211832, Note_on_c, 0, 63, 59
2, 211871, Note_on_c, 0, 69, 31
2, 211986, Note_on_c, 0, 69, 0
2, 212007, Note_on_c, 0, 41, 0
2, 212008, Note_on_c, 0, 67, 0
2, 212027, Note_on_c, 0, 63, 0
2, 212029, Note_on_c, 0, 72, 0
2, 212042, Note_on_c, 0, 29, 0
2, 212426, Note_on_c, 0, 28, 52
2, 212440, Note_on_c, 0, 40, 50
2, 212458, Note_on_c, 0, 70, 56
2, 212464, Control_c, 0, 64, 127
2, 212485, Note_on_c, 0, 67, 38
2, 212487, Note_on_c, 0, 62, 44
2, 212541, Note_on_c, 0, 62, 0
2, 212568, Note_on_c, 0, 28, 0
2, 212583, Note_on_c, 0, 40, 0
2, 212591, Note_on_c, 0, 67, 0
2, 212650, Note_on_c, 0, 70, 0
2, 213061, Note_on_c, 0, 70, 69
2, 213069, Note_on_c, 0, 74, 64
2, 213085, Note_on_c, 0, 58, 68
2, 213200, Note_on_c, 0, 70, 0
2, 213216, Note_on_c, 0, 74, 0
2, 213645, Note_on_c, 0, 77, 62
2, 213661, Note_on_c, 0, 67, 53
2, 213669, Note_on_c, 0, 74, 50
2, 213671, Note_on_c, 0, 70, 47
2, 213674, Note_on_c, 0, 62, 45
2, 213698, Note_on_c, 0, 58, 0
2, 213727, Note_on_c, 0, 67, 0
2, 213733, Note_on_c, 0, 74, 0
2, 213743, Note_on_c, 0, 70, 0
2, 213807, Note_on_c, 0, 77, 0
2, 213816, Note_on_c, 0, 62, 0
2, 214237, Note_on_c, 0, 81, 66
2, 214240, Note_on_c, 0, 74, 61
2, 214242, Note_on_c, 0, 70, 62
2, 214255, Note_on_c, 0, 65, 58
2, 214299, Note_on_c, 0, 77, 33
2, 214346, Note_on_c, 0, 70, 0
2, 214365, Note_on_c, 0, 74, 0
2, 214367, Note_on_c, 0, 77, 0
2, 214370, Note_on_c, 0, 65, 0
2, 214447, Note_on_c, 0, 81, 0
2, 214882, Note_on_c, 0, 84, 71
2, 214893, Note_on_c, 0, 74, 70
2, 214911, Note_on_c, 0, 69, 60
2, 214927, Note_on_c, 0, 81, 45
2, 214928, Note_on_c, 0, 77, 51
2, 215048, Note_on_c, 0, 81, 0
2, 215093, Note_on_c, 0, 77, 0
2, 215106, Note_on_c, 0, 84, 0
2, 215130, Note_on_c, 0, 74, 0
2, 215138, Note_on_c, 0, 69, 0
2, 215544, Control_c, 0, 64, 0
2, 215560, Note_on_c, 0, 81, 76
2, 215594, Note_on_c, 0, 70, 52
2, 215600, Note_on_c, 0, 73, 36
2, 215603, Note_on_c, 0, 69, 57
2, 215616, Note_on_c, 0, 76, 43
2, 215751, Control_c, 0, 64, 127
2, 215922, Note_on_c, 0, 69, 0
2, 216053, Note_on_c, 0, 70, 0
2, 216064, Note_on_c, 0, 73, 0
2, 216098, Note_on_c, 0, 81, 0
2, 216135, Note_on_c, 0, 76, 0
2, 216232, Control_c, 0, 64, 0
2, 216258, Note_on_c, 0, 67, 38
2, 216261, Note_on_c, 0, 70, 53
2, 216279, Note_on_c, 0, 76, 42
2, 216290, Note_on_c, 0, 73, 33
2, 216296, Note_on_c, 0, 79, 31
2, 216378, Control_c, 0, 64, 127
2, 216434, Note_on_c, 0, 79, 0
2, 216474, Note_on_c, 0, 67, 0
2, 216480, Note_on_c, 0, 76, 0
2, 216552, Note_on_c, 0, 73, 0
2, 216555, Note_on_c, 0, 70, 0
2, 216890, Control_c, 0, 64, 0
2, 216907, Note_on_c, 0, 77, 55
2, 216922, Note_on_c, 0, 73, 33
2, 216936, Note_on_c, 0, 67, 38
2, 216946, Note_on_c, 0, 65, 46
2, 216951, Note_on_c, 0, 70, 43
2, 217067, Control_c, 0, 64, 127
2, 217184, Note_on_c, 0, 77, 0
2, 217218, Note_on_c, 0, 65, 0
2, 217410, Note_on_c, 0, 67, 0
2, 217421, Note_on_c, 0, 70, 0
2, 217503, Note_on_c, 0, 73, 0
2, 217579, Control_c, 0, 64, 0
2, 217602, Note_on_c, 0, 76, 37
2, 217616, Note_on_c, 0, 70, 33
2, 217619, Note_on_c, 0, 64, 36
2, 217623, Note_on_c, 0, 67, 36
2, 217755, Control_c, 0, 64, 127
2, 217955, Note_on_c, 0, 67, 0
2, 217957, Note_on_c, 0, 70, 0
2, 218154, Note_on_c, 0, 76, 0
2, 218251, Note_on_c, 0, 64, 0
2, 218258, Note_on_c, 0, 73, 31
2, 218264, Note_on_c, 0, 61, 36
2, 218267, Note_on_c, 0, 70, 38
2, 218288, Note_on_c, 0, 67, 33
2, 218439, Note_on_c, 0, 70, 0
2, 218443, Note_on_c, 0, 73, 0
2, 218493, Note_on_c, 0, 61, 0
2, 218501, Note_on_c, 0, 67, 0
2, 218976, Control_c, 0, 64, 0
2, 218994, Note_on_c, 0, 70, 42
2, 219003, Note_on_c, 0, 57, 42
2, 219007, Note_on_c, 0, 61, 37
2, 219011, Note_on_c, 0, 64, 53
2, 219040, Note_on_c, 0, 67, 35
2, 219184, Control_c, 0, 64, 127
2, 219202, Note_on_c, 0, 57, 0
2, 219203, Note_on_c, 0, 67, 0
2, 219221, Note_on_c, 0, 64, 0
2, 219232, Note_on_c, 0, 70, 0
2, 219357, Note_on_c, 0, 61, 0
2, 219727, Note_on_c, 0, 64, 42
2, 219751, Note_on_c, 0, 58, 39
2, 219751, Note_on_c, 0, 61, 40
2, 219763, Note_on_c, 0, 52, 32
2, 219920, Note_on_c, 0, 67, 16
2, 220026, Note_on_c, 0, 64, 0
2, 220055, Note_on_c, 0, 58, 0
2, 220179, Note_on_c, 0, 61, 0
2, 220311, Note_on_c, 0, 67, 0
2, 220368, Note_on_c, 0, 52, 0
2, 220418, Control_c, 0, 64, 0
2, 220471, Note_on_c, 0, 65, 50
2, 220483, Note_on_c, 0, 60, 35
2, 220503, Note_on_c, 0, 50, 35
2, 220506, Note_on_c, 0, 62, 35
2, 220659, Control_c, 0, 64, 127
2, 220719, Note_on_c, 0, 62, 0
2, 220727, Note_on_c, 0, 60, 0
2, 220759, Note_on_c, 0, 65, 0
2, 221171, Control_c, 0, 64, 0
2, 221191, Note_on_c, 0, 62, 40
2, 221197, Note_on_c, 0, 65, 43
2, 221200, Note_on_c, 0, 57, 50
2, 221202, Note_on_c, 0, 60, 36
2, 221213, Note_on_c, 0, 69, 33
2, 221271, Note_on_c, 0, 60, 0
2, 221299, Control_c, 0, 64, 127
2, 221333, Note_on_c, 0, 62, 0
2, 221371, Note_on_c, 0, 65, 0
2, 221394, Note_on_c, 0, 69, 0
2, 221936, Note_on_c, 0, 76, 68
2, 221947, Note_on_c, 0, 72, 53
2, 221955, Note_on_c, 0, 69, 49
2, 221957, Note_on_c, 0, 65, 55
2, 221984, Note_on_c, 0, 60, 44
2, 222483, Note_on_c, 0, 60, 0
2, 222559, Note_on_c, 0, 65, 0
2, 222584, Note_on_c, 0, 76, 0
2, 222595, Note_on_c, 0, 69, 0
2, 222618, Note_on_c, 0, 72, 0
2, 222722, Note_on_c, 0, 76, 43
2, 222723, Note_on_c, 0, 65, 43
2, 222727, Note_on_c, 0, 69, 62
2, 222735, Note_on_c, 0, 72, 49
2, 222746, Note_on_c, 0, 60, 30
2, 223154, Note_on_c, 0, 65, 0
2, 223186, Note_on_c, 0, 69, 0
2, 223242, Note_on_c, 0, 50, 0
2, 223272, Note_on_c, 0, 72, 0
2, 223274, Note_on_c, 0, 76, 0
2, 223431, Note_on_c, 0, 74, 62
2, 223443, Note_on_c, 0, 69, 62
2, 223447, Note_on_c, 0, 65, 55
2, 223467, Note_on_c, 0, 50, 24
2, 223495, Note_on_c, 0, 72, 26
2, 223882, Note_on_c, 0, 74, 0
2, 223893, Note_on_c, 0, 72, 0
2, 223901, Note_on_c, 0, 65, 0
2, 223906, Note_on_c, 0, 60, 0
2, 223915, Note_on_c, 0, 69, 0
2, 223997, Note_on_c, 0, 57, 0
2, 224088, Note_on_c, 0, 50, 0
2, 224125, Note_on_c, 0, 74, 57
2, 224136, Note_on_c, 0, 69, 41
2, 224138, Note_on_c, 0, 65, 45
2, 224264, Note_on_c, 0, 69, 0
2, 224311, Note_on_c, 0, 65, 0
2, 224383, Note_on_c, 0, 74, 0
2, 224669, Control_c, 0, 64, 0
2, 224730, Note_on_c, 0, 31, 32
2, 224730, Note_on_c, 0, 29, 33
2, 224733, Note_on_c, 0, 74, 77
2, 224736, Note_on_c, 0, 77, 68
2, 224803, Note_on_c, 0, 29, 0
2, 224831, Note_on_c, 0, 43, 20
2, 224885, Note_on_c, 0, 31, 0
2, 224909, Control_c, 0, 64, 127
2, 224968, Note_on_c, 0, 43, 0
2, 225298, Note_on_c, 0, 77, 0
2, 225314, Note_on_c, 0, 74, 0
2, 225413, Note_on_c, 0, 76, 63
2, 225415, Note_on_c, 0, 72, 68
2, 225442, Note_on_c, 0, 74, 41
2, 225451, Note_on_c, 0, 53, 25
2, 225459, Note_on_c, 0, 64, 40
2, 225498, Note_on_c, 0, 59, 40
2, 225511, Note_on_c, 0, 74, 0
2, 225883, Note_on_c, 0, 72, 0
2, 225903, Note_on_c, 0, 64, 0
2, 225968, Note_on_c, 0, 76, 0
2, 226072, Note_on_c, 0, 72, 71
2, 226085, Note_on_c, 0, 76, 74
2, 226282, Note_on_c, 0, 53, 0
2, 226384, Note_on_c, 0, 59, 0
2, 226528, Note_on_c, 0, 72, 0
2, 226563, Note_on_c, 0, 76, 0
2, 226602, Note_on_c, 0, 71, 66
2, 226615, Note_on_c, 0, 74, 64
2, 226632, Note_on_c, 0, 64, 46
2, 226639, Note_on_c, 0, 59, 28
2, 226661, Note_on_c, 0, 53, 29
2, 226917, Note_on_c, 0, 71, 0
2, 226952, Note_on_c, 0, 74, 0
2, 226954, Note_on_c, 0, 64, 0
2, 227144, Note_on_c, 0, 64, 36
2, 227159, Note_on_c, 0, 74, 68
2, 227168, Note_on_c, 0, 71, 68
2, 227415, Note_on_c, 0, 71, 0
2, 227431, Note_on_c, 0, 64, 0
2, 227589, Note_on_c, 0, 59, 0
2, 227600, Note_on_c, 0, 53, 0
2, 227683, Note_on_c, 0, 72, 62
2, 227706, Note_on_c, 0, 69, 55
2, 227811, Note_on_c, 0, 74, 0
2, 228080, Note_on_c, 0, 69, 0
2, 228151, Note_on_c, 0, 72, 0
2, 228328, Note_on_c, 0, 72, 58
2, 228339, Note_on_c, 0, 69, 46
2, 228349, Note_on_c, 0, 52, 33
2, 228354, Note_on_c, 0, 62, 24
2, 228357, Control_c, 0, 64, 0
2, 228704, Note_on_c, 0, 69, 0
2, 228719, Note_on_c, 0, 72, 0
2, 228839, Control_c, 0, 64, 127
2, 228890, Note_on_c, 0, 67, 45
2, 228895, Note_on_c, 0, 71, 45
2, 228938, Note_on_c, 0, 56, 35
2, 228978, Note_on_c, 0, 62, 0
2, 229229, Note_on_c, 0, 71, 0
2, 229255, Note_on_c, 0, 67, 0
2, 229506, Note_on_c, 0, 71, 52
2, 229536, Note_on_c, 0, 67, 32
2, 229552, Note_on_c, 0, 62, 34
2, 229563, Note_on_c, 0, 52, 0
2, 229607, Note_on_c, 0, 67, 0
2, 229623, Note_on_c, 0, 56, 0
2, 229664, Note_on_c, 0, 71, 0
2, 229725, Note_on_c, 0, 62, 0
2, 230146, Note_on_c, 0, 83, 53
2, 230151, Note_on_c, 0, 79, 45
2, 230152, Note_on_c, 0, 74, 36
2, 230155, Note_on_c, 0, 56, 34
2, 230157, Note_on_c, 0, 67, 33
2, 230173, Note_on_c, 0, 62, 37
2, 230635, Note_on_c, 0, 74, 0
2, 230672, Note_on_c, 0, 83, 0
2, 230687, Note_on_c, 0, 79, 0
2, 230898, Note_on_c, 0, 83, 49
2, 230907, Note_on_c, 0, 74, 35
2, 230920, Note_on_c, 0, 79, 37
2, 231040, Note_on_c, 0, 67, 0
2, 231079, Note_on_c, 0, 62, 0
2, 231159, Note_on_c, 0, 56, 0
2, 231403, Note_on_c, 0, 83, 0
2, 231427, Note_on_c, 0, 74, 0
2, 231501, Note_on_c, 0, 79, 0
2, 231551, Note_on_c, 0, 81, 43
2, 232079, Control_c, 0, 64, 0
2, 232098, Note_on_c, 0, 45, 38
2, 232133, Note_on_c, 0, 79, 50
2, 232179, Note_on_c, 0, 45, 0
2, 232184, Note_on_c, 0, 81, 0
2, 232319, Control_c, 0, 64, 127
2, 232728, Note_on_c, 0, 64, 37
2, 232778, Note_on_c, 0, 59, 30
2, 232783, Note_on_c, 0, 60, 32
2, 233746, Note_on_c, 0, 60, 0
2, 233779, Note_on_c, 0, 59, 0
2, 233803, Note_on_c, 0, 64, 0
2, 234178, Note_on_c, 0, 64, 37
2, 234203, Note_on_c, 0, 77, 54
2, 234211, Note_on_c, 0, 60, 32
2, 234250, Note_on_c, 0, 59, 27
2, 234589, Note_on_c, 0, 60, 0
2, 234677, Note_on_c, 0, 64, 0
2, 234690, Note_on_c, 0, 59, 0
2, 235080, Note_on_c, 0, 79, 0
2, 235151, Note_on_c, 0, 57, 60
2, 235160, Note_on_c, 0, 64, 45
2, 235173, Note_on_c, 0, 61, 34
2, 235191, Note_on_c, 0, 76, 46
2, 235288, Note_on_c, 0, 77, 0
2, 235317, Control_c, 0, 64, 0
2, 235621, Control_c, 0, 64, 127
2, 237159, Note_on_c, 0, 64, 0
2, 237357, Note_on_c, 0, 61, 0
2, 237720, Note_on_c, 0, 57, 0
2, 238090, Note_on_c, 0, 76, 0
2, 238205, Note_on_c, 0, 77, 64
2, 238431, Note_on_c, 0, 77, 0
2, 238523, Note_on_c, 0, 78, 67
2, 238842, Note_on_c, 0, 78, 0
2, 238891, Note_on_c, 0, 50, 45
2, 238909, Control_c, 0, 64, 0
2, 238917, Note_on_c, 0, 79, 57
2, 239279, Control_c, 0, 64, 127
2, 239397, Note_on_c, 0, 79, 0
2, 239431, Note_on_c, 0, 50, 0
2, 239459, Note_on_c, 0, 57, 49
2, 240024, Note_on_c, 0, 64, 36
2, 240037, Note_on_c, 0, 69, 40
2, 240064, Note_on_c, 0, 65, 26
2, 240317, Note_on_c, 0, 65, 0
2, 240389, Note_on_c, 0, 69, 0
2, 241034, Note_on_c, 0, 64, 0
2, 241039, Note_on_c, 0, 77, 76
2, 241187, Note_on_c, 0, 57, 0
2, 241576, Note_on_c, 0, 77, 0
2, 241611, Note_on_c, 0, 76, 65
2, 242005, Control_c, 0, 64, 0
2, 242015, Note_on_c, 0, 76, 0
2, 242053, Note_on_c, 0, 43, 36
2, 242072, Note_on_c, 0, 77, 65
2, 242187, Note_on_c, 0, 43, 0
2, 242229, Control_c, 0, 64, 127
2, 242640, Note_on_c, 0, 77, 0
2, 242664, Note_on_c, 0, 64, 51
2, 242706, Note_on_c, 0, 59, 36
2, 242725, Note_on_c, 0, 76, 52
2, 242791, Note_on_c, 0, 53, 12
2, 244522, Note_on_c, 0, 64, 0
2, 244605, Note_on_c, 0, 59, 0
2, 244656, Note_on_c, 0, 53, 0
2, 244951, Note_on_c, 0, 72, 40
2, 245048, Note_on_c, 0, 76, 0
2, 245160, Note_on_c, 0, 72, 0
2, 245231, Note_on_c, 0, 74, 48
2, 245421, Control_c, 0, 64, 0
2, 245482, Note_on_c, 0, 74, 0
2, 245555, Note_on_c, 0, 46, 37
2, 245567, Note_on_c, 0, 76, 54
2, 245645, Control_c, 0, 64, 127
2, 245797, Note_on_c, 0, 46, 0
2, 246904, Note_on_c, 0, 76, 0
2, 247112, Note_on_c, 0, 56, 40
2, 247394, Control_c, 0, 64, 0
2, 247483, Note_on_c, 0, 58, 37
2, 247859, Note_on_c, 0, 62, 44
2, 248192, Note_on_c, 0, 64, 49
2, 248243, Note_on_c, 0, 62, 0
2, 248343, Note_on_c, 0, 64, 0
2, 248351, Note_on_c, 0, 56, 0
2, 248359, Note_on_c, 0, 58, 0
2, 248642, Note_on_c, 0, 64, 52
2, 248647, Note_on_c, 0, 62, 38
2, 248682, Note_on_c, 0, 58, 34
2, 248695, Note_on_c, 0, 56, 36
2, 248779, Note_on_c, 0, 62, 0
2, 248807, Note_on_c, 0, 64, 0
2, 248843, Note_on_c, 0, 58, 0
2, 248858, Note_on_c, 0, 56, 0
2, 249187, Note_on_c, 0, 64, 47
2, 249194, Note_on_c, 0, 62, 37
2, 249232, Note_on_c, 0, 58, 27
2, 249234, Note_on_c, 0, 56, 35
2, 249355, Note_on_c, 0, 62, 0
2, 249367, Note_on_c, 0, 58, 0
2, 249370, Note_on_c, 0, 64, 0
2, 249395, Note_on_c, 0, 56, 0
2, 249727, Note_on_c, 0, 64, 49
2, 249751, Note_on_c, 0, 62, 41
2, 249767, Control_c, 0, 64, 127
2, 249794, Note_on_c, 0, 56, 25
2, 249869, Note_on_c, 0, 56, 0
2, 249904, Note_on_c, 0, 62, 0
2, 249957, Note_on_c, 0, 64, 0
2, 250280, Control_c, 0, 64, 0
2, 250314, Note_on_c, 0, 61, 50
2, 250330, Note_on_c, 0, 63, 44
2, 250360, Note_on_c, 0, 45, 40
2, 250392, Note_on_c, 0, 55, 16
2, 250682, Control_c, 0, 64, 127
2, 250923, Note_on_c, 0, 55, 0
2, 250943, Note_on_c, 0, 52, 40
2, 251035, Note_on_c, 0, 45, 0
2, 251095, Note_on_c, 0, 52, 0
2, 251626, Note_on_c, 0, 57, 51
2, 252103, Note_on_c, 0, 61, 0
2, 252285, Note_on_c, 0, 57, 0
2, 252291, Note_on_c, 0, 59, 45
2, 252327, Note_on_c, 0, 63, 0
2, 253072, Note_on_c, 0, 61, 46
2, 253250, Note_on_c, 0, 59, 0
2, 253373, Note_on_c, 0, 61, 0
2, 253656, Note_on_c, 0, 66, 60
2, 253667, Note_on_c, 0, 64, 36
2, 254029, Note_on_c, 0, 64, 0
2, 254218, Note_on_c, 0, 66, 0
2, 254343, Note_on_c, 0, 67, 44
2, 254349, Note_on_c, 0, 64, 59
2, 254351, Note_on_c, 0, 60, 35
2, 254357, Note_on_c, 0, 50, 35
2, 254370, Control_c, 0, 64, 0
2, 254706, Control_c, 0, 64, 127
2, 254888, Note_on_c, 0, 64, 0
2, 254979, Note_on_c, 0, 57, 56
2, 254992, Note_on_c, 0, 67, 0
2, 255021, Note_on_c, 0, 60, 0
2, 255130, Note_on_c, 0, 50, 0
2, 255501, Note_on_c, 0, 57, 0
2, 255578, Note_on_c, 0, 64, 51
2, 255605, Note_on_c, 0, 79, 67
2, 255610, Note_on_c, 0, 69, 64
2, 255613, Note_on_c, 0, 76, 62
2, 255616, Note_on_c, 0, 72, 61
2, 256231, Note_on_c, 0, 63, 62
2, 256303, Note_on_c, 0, 64, 0
2, 256311, Control_c, 0, 64, 0
2, 256475, Note_on_c, 0, 79, 0
2, 256512, Note_on_c, 0, 76, 0
2, 256519, Control_c, 0, 64, 127
2, 256623, Note_on_c, 0, 69, 0
2, 256634, Note_on_c, 0, 72, 0
2, 256775, Control_c, 0, 64, 0
2, 256829, Note_on_c, 0, 69, 45
2, 256837, Note_on_c, 0, 72, 48
2, 256842, Note_on_c, 0, 77, 49
2, 256869, Note_on_c, 0, 62, 36
2, 256917, Note_on_c, 0, 63, 0
2, 257208, Control_c, 0, 64, 127
2, 257213, Note_on_c, 0, 72, 0
2, 257215, Note_on_c, 0, 77, 0
2, 257288, Note_on_c, 0, 69, 0
2, 257464, Control_c, 0, 64, 0
2, 257483, Note_on_c, 0, 76, 43
2, 257519, Note_on_c, 0, 61, 49
2, 257520, Note_on_c, 0, 62, 0
2, 257525, Note_on_c, 0, 69, 42
2, 257530, Note_on_c, 0, 65, 30
2, 257711, Note_on_c, 0, 65, 0
2, 257722, Control_c, 0, 64, 127
2, 257751, Note_on_c, 0, 69, 0
2, 257821, Note_on_c, 0, 76, 0
2, 258154, Control_c, 0, 64, 0
2, 258216, Note_on_c, 0, 71, 44
2, 258219, Note_on_c, 0, 67, 47
2, 258227, Note_on_c, 0, 61, 0
2, 258229, Note_on_c, 0, 77, 34
2, 258243, Note_on_c, 0, 60, 35
2, 258274, Note_on_c, 0, 74, 31
2, 258571, Control_c, 0, 64, 127
2, 258891, Control_c, 0, 64, 0
2, 259011, Note_on_c, 0, 60, 0
2, 259031, Note_on_c, 0, 59, 34
2, 259093, Note_on_c, 0, 74, 0
2, 259151, Control_c, 0, 64, 127
2, 259208, Note_on_c, 0, 67, 0
2, 259210, Note_on_c, 0, 71, 0
2, 259295, Note_on_c, 0, 77, 0
2, 259418, Note_on_c, 0, 59, 0
2, 259775, Control_c, 0, 64, 0
2, 259818, Note_on_c, 0, 71, 35
2, 259821, Note_on_c, 0, 76, 34
2, 259843, Note_on_c, 0, 65, 28
2, 259930, Note_on_c, 0, 43, 20
2, 260063, Control_c, 0, 64, 127
2, 260093, Note_on_c, 0, 43, 0
2, 260416, Note_on_c, 0, 65, 0
2, 260715, Note_on_c, 0, 64, 51
2, 260733, Note_on_c, 0, 53, 29
2, 260741, Note_on_c, 0, 59, 35
2, 261635, Note_on_c, 0, 71, 0
2, 261645, Note_on_c, 0, 72, 55
2, 261653, Note_on_c, 0, 76, 0
2, 261923, Note_on_c, 0, 64, 0
2, 262115, Note_on_c, 0, 53, 0
2, 262149, Note_on_c, 0, 59, 0
2, 262714, Note_on_c, 0, 74, 39
2, 262928, Note_on_c, 0, 72, 0
2, 263322, Note_on_c, 0, 74, 0
2, 264104, Control_c, 0, 64, 0
2, 264165, Note_on_c, 0, 72, 37
2, 264179, Note_on_c, 0, 43, 18
2, 264197, Note_on_c, 0, 67, 28
2, 264219, Note_on_c, 0, 62, 19
2, 264226, Note_on_c, 0, 52, 26
2, 264235, Note_on_c, 0, 36, 25
2, 264570, Control_c, 0, 64, 127
2, 267037, Control_c, 0, 64, 127
2, 267499, Note_on_c, 0, 62, 0
2, 267567, Note_on_c, 0, 67, 0
2, 267643, Note_on_c, 0, 72, 0
2, 267664, Control_c, 0, 64, 0
2, 267709, Control_c, 0, 64, 0
2, 267903, Control_c, 0, 64, 127
2, 267922, Note_on_c, 0, 48, 37
2, 267970, Note_on_c, 0, 43, 0
2, 267978, Note_on_c, 0, 36, 0
2, 267997, Note_on_c, 0, 52, 0
2, 268005, Note_on_c, 0, 48, 0
2, 268764, Note_on_c, 0, 64, 32
2, 268831, Note_on_c, 0, 60, 26
2, 268874, Note_on_c, 0, 59, 15
2, 269394, Note_on_c, 0, 67, 52
2, 269852, Note_on_c, 0, 67, 0
2, 269991, Note_on_c, 0, 71, 50
2, 270085, Note_on_c, 0, 64, 0
2, 270111, Note_on_c, 0, 60, 0
2, 270124, Note_on_c, 0, 59, 0
2, 270167, Note_on_c, 0, 71, 0
2, 270320, Note_on_c, 0, 74, 72
2, 270520, Note_on_c, 0, 74, 0
2, 270647, Control_c, 0, 64, 0
2, 270669, Note_on_c, 0, 65, 52
2, 270692, Note_on_c, 0, 60, 31
2, 270709, Note_on_c, 0, 57, 32
2, 270711, Note_on_c, 0, 55, 20
2, 271016, Control_c, 0, 64, 127
2, 272114, Note_on_c, 0, 60, 0
2, 272269, Note_on_c, 0, 65, 0
2, 272308, Note_on_c, 0, 55, 0
2, 272320, Note_on_c, 0, 57, 0
2, 272557, Note_on_c, 0, 64, 45
2, 272562, Note_on_c, 0, 59, 48
2, 272607, Note_on_c, 0, 53, 30
2, 272668, Control_c, 0, 64, 0
2, 272988, Control_c, 0, 64, 127
2, 273244, Note_on_c, 0, 64, 0
2, 273264, Note_on_c, 0, 69, 54
2, 273287, Note_on_c, 0, 53, 0
2, 273308, Note_on_c, 0, 59, 0
2, 273490, Note_on_c, 0, 69, 0
2, 273522, Note_on_c, 0, 72, 64
2, 273661, Control_c, 0, 64, 0
2, 273706, Note_on_c, 0, 52, 24
2, 273708, Note_on_c, 0, 55, 30
2, 273708, Note_on_c, 0, 59, 24
2, 273714, Note_on_c, 0, 62, 26
2, 273837, Note_on_c, 0, 72, 0
2, 273840, Note_on_c, 0, 67, 52
2, 274096, Control_c, 0, 64, 127
2, 274183, Note_on_c, 0, 62, 0
2, 274204, Note_on_c, 0, 52, 0
2, 274220, Note_on_c, 0, 55, 0
2, 274237, Note_on_c, 0, 59, 0
2, 274706, Note_on_c, 0, 62, 22
2, 274733, Note_on_c, 0, 59, 22
2, 274735, Note_on_c, 0, 55, 24
2, 274781, Note_on_c, 0, 52, 13
2, 275140, Note_on_c, 0, 55, 0
2, 275204, Note_on_c, 0, 52, 0
2, 275226, Note_on_c, 0, 62, 0
2, 275341, Note_on_c, 0, 59, 0
2, 275647, Note_on_c, 0, 62, 25
2, 275663, Note_on_c, 0, 59, 20
2, 275664, Note_on_c, 0, 55, 26
2, 275848, Note_on_c, 0, 55, 0
2, 275924, Note_on_c, 0, 67, 0
2, 275928, Note_on_c, 0, 59, 0
2, 275994, Note_on_c, 0, 62, 0
2, 276031, Note_on_c, 0, 71, 57
2, 276232, Note_on_c, 0, 71, 0
2, 276296, Note_on_c, 0, 74, 64
2, 276508, Note_on_c, 0, 74, 0
2, 276517, Control_c, 0, 64, 0
2, 276612, Note_on_c, 0, 65, 55
2, 276620, Note_on_c, 0, 55, 20
2, 276624, Note_on_c, 0, 57, 27
2, 276628, Note_on_c, 0, 60, 32
2, 276892, Note_on_c, 0, 65, 0
2, 276928, Note_on_c, 0, 77, 50
2, 277008, Note_on_c, 0, 60, 0
2, 277085, Note_on_c, 0, 57, 0
2, 277125, Note_on_c, 0, 77, 0
2, 277127, Note_on_c, 0, 55, 0
2, 277594, Note_on_c, 0, 65, 25
2, 277620, Note_on_c, 0, 60, 26
2, 277626, Control_c, 0, 64, 127
2, 277632, Note_on_c, 0, 55, 15
2, 277647, Note_on_c, 0, 57, 24
2, 278221, Note_on_c, 0, 60, 0
2, 278234, Note_on_c, 0, 65, 0
2, 278317, Note_on_c, 0, 57, 0
2, 278343, Note_on_c, 0, 55, 0
2, 278583, Note_on_c, 0, 65, 32
2, 278607, Note_on_c, 0, 57, 29
2, 278612, Note_on_c, 0, 55, 16
2, 278858, Note_on_c, 0, 65, 0
2, 278900, Note_on_c, 0, 57, 0
2, 278933, Note_on_c, 0, 55, 0
2, 279184, Note_on_c, 0, 76, 40
2, 279444, Note_on_c, 0, 76, 0
2, 279452, Control_c, 0, 64, 0
2, 279514, Note_on_c, 0, 52, 24
2, 279549, Note_on_c, 0, 79, 48
2, 279551, Note_on_c, 0, 62, 17
2, 279554, Note_on_c, 0, 59, 24
2, 279557, Note_on_c, 0, 55, 17
2, 279775, Control_c, 0, 64, 127
2, 279972, Note_on_c, 0, 79, 0
2, 280052, Note_on_c, 0, 62, 0
2, 280064, Note_on_c, 0, 55, 0
2, 280181, Note_on_c, 0, 59, 0
2, 280456, Note_on_c, 0, 62, 31
2, 280460, Note_on_c, 0, 59, 25
2, 280474, Note_on_c, 0, 83, 74
2, 280775, Note_on_c, 0, 52, 0
2, 280839, Note_on_c, 0, 62, 0
2, 280984, Note_on_c, 0, 59, 0
2, 281224, Note_on_c, 0, 83, 0
2, 281338, Note_on_c, 0, 86, 71
2, 281473, Note_on_c, 0, 86, 0
2, 282276, Control_c, 0, 64, 0
2, 282297, Note_on_c, 0, 65, 68
2, 282301, Note_on_c, 0, 60, 67
2, 282311, Note_on_c, 0, 57, 71
2, 282351, Note_on_c, 0, 55, 44
2, 282580, Control_c, 0, 64, 127
2, 282703, Note_on_c, 0, 57, 0
2, 282749, Note_on_c, 0, 60, 0
2, 282765, Note_on_c, 0, 65, 0
2, 283064, Note_on_c, 0, 55, 0
2, 283239, Control_c, 0, 64, 0
2, 283293, Note_on_c, 0, 64, 60
2, 283295, Note_on_c, 0, 69, 62
2, 283298, Note_on_c, 0, 54, 58
2, 283300, Note_on_c, 0, 61, 55
2, 283316, Note_on_c, 0, 57, 65
2, 283538, Note_on_c, 0, 57, 0
2, 283591, Control_c, 0, 64, 127
2, 283602, Note_on_c, 0, 64, 0
2, 283617, Note_on_c, 0, 61, 0
2, 283631, Note_on_c, 0, 69, 0
2, 284202, Control_c, 0, 64, 0
2, 284216, Note_on_c, 0, 54, 0
2, 284244, Note_on_c, 0, 72, 59
2, 284248, Note_on_c, 0, 63, 56
2, 284272, Note_on_c, 0, 69, 48
2, 284288, Note_on_c, 0, 67, 38
2, 284324, Note_on_c, 0, 53, 28
2, 284519, Control_c, 0, 64, 127
2, 284701, Note_on_c, 0, 67, 0
2, 284785, Note_on_c, 0, 63, 0
2, 284793, Note_on_c, 0, 69, 0
2, 284896, Note_on_c, 0, 72, 0
2, 285082, Control_c, 0, 64, 0
2, 285130, Note_on_c, 0, 53, 0
2, 285185, Note_on_c, 0, 70, 48
2, 285201, Note_on_c, 0, 67, 38
2, 285202, Note_on_c, 0, 62, 33
2, 285218, Note_on_c, 0, 52, 34
2, 285306, Control_c, 0, 64, 127
2, 285314, Note_on_c, 0, 52, 0
2, 285690, Note_on_c, 0, 62, 0
2, 285919, Note_on_c, 0, 70, 0
2, 285959, Note_on_c, 0, 67, 0
2, 286136, Note_on_c, 0, 57, 36
2, 286156, Note_on_c, 0, 62, 32
2, 286173, Note_on_c, 0, 58, 39
2, 286175, Note_on_c, 0, 52, 28
2, 287330, Note_on_c, 0, 52, 0
2, 287423, Note_on_c, 0, 57, 0
2, 287464, Note_on_c, 0, 58, 0
2, 287522, Note_on_c, 0, 74, 51
2, 287530, Note_on_c, 0, 62, 0
2, 287645, Note_on_c, 0, 74, 0
2, 287784, Note_on_c, 0, 77, 62
2, 287919, Note_on_c, 0, 77, 0
2, 287984, Control_c, 0, 64, 0
2, 288069, Note_on_c, 0, 61, 33
2, 288076, Note_on_c, 0, 69, 50
2, 288084, Note_on_c, 0, 65, 34
2, 288140, Note_on_c, 0, 55, 15
2, 288237, Note_on_c, 0, 69, 0
2, 288404, Note_on_c, 0, 69, 36
2, 288520, Note_on_c, 0, 69, 0
2, 289280, Note_on_c, 0, 70, 43
2, 289389, Note_on_c, 0, 69, 50
2, 289440, Note_on_c, 0, 70, 0
2, 289576, Note_on_c, 0, 69, 0
2, 289580, Note_on_c, 0, 68, 51
2, 289704, Note_on_c, 0, 68, 0
2, 289848, Note_on_c, 0, 69, 65
2, 290180, Note_on_c, 0, 70, 65
2, 290181, Note_on_c, 0, 69, 0
2, 290255, Note_on_c, 0, 65, 0
2, 290311, Note_on_c, 0, 70, 0
2, 290360, Note_on_c, 0, 61, 0
2, 290396, Note_on_c, 0, 55, 0
2, 290442, Note_on_c, 0, 72, 46
2, 290639, Note_on_c, 0, 72, 0
2, 290744, Note_on_c, 0, 76, 66
2, 290916, Note_on_c, 0, 76, 0
2, 291005, Note_on_c, 0, 57, 32
2, 291023, Note_on_c, 0, 60, 25
2, 291048, Note_on_c, 0, 79, 49
2, 291055, Note_on_c, 0, 53, 24
2, 291090, Note_on_c, 0, 50, 11
2, 291239, Note_on_c, 0, 79, 0
2, 291477, Note_on_c, 0, 81, 76
2, 291714, Note_on_c, 0, 81, 0
2, 292066, Note_on_c, 0, 81, 78
2, 292184, Control_c, 0, 64, 127
2, 292509, Note_on_c, 0, 81, 0
2, 292549, Note_on_c, 0, 79, 63
2, 292600, Note_on_c, 0, 50, 0
2, 292616, Note_on_c, 0, 53, 0
2, 292644, Note_on_c, 0, 57, 0
2, 292784, Note_on_c, 0, 60, 0
2, 292884, Note_on_c, 0, 79, 0
2, 293028, Note_on_c, 0, 79, 59
2, 293322, Note_on_c, 0, 79, 0
2, 293383, Note_on_c, 0, 77, 63
2, 293655, Note_on_c, 0, 77, 0
2, 293804, Note_on_c, 0, 77, 58
2, 293808, Control_c, 0, 64, 0
2, 293808, Note_on_c, 0, 64, 32
2, 293813, Note_on_c, 0, 59, 28
2, 293852, Note_on_c, 0, 53, 25
2, 294220, Note_on_c, 0, 77, 0
2, 294240, Control_c, 0, 64, 127
2, 294284, Note_on_c, 0, 76, 37
2, 294557, Note_on_c, 0, 76, 0
2, 294600, Note_on_c, 0, 64, 0
2, 294736, Note_on_c, 0, 76, 49
2, 294764, Note_on_c, 0, 64, 33
2, 295069, Note_on_c, 0, 76, 0
2, 295261, Note_on_c, 0, 74, 36
2, 295504, Note_on_c, 0, 74, 0
2, 295733, Note_on_c, 0, 74, 45
2, 295887, Note_on_c, 0, 53, 0
2, 295892, Note_on_c, 0, 59, 0
2, 296068, Note_on_c, 0, 64, 0
2, 296215, Note_on_c, 0, 74, 0
2, 296229, Note_on_c, 0, 72, 35
2, 296447, Note_on_c, 0, 74, 42
2, 296448, Note_on_c, 0, 72, 0
2, 296594, Note_on_c, 0, 75, 67
2, 296645, Note_on_c, 0, 74, 0
2, 296727, Control_c, 0, 64, 0
2, 296764, Note_on_c, 0, 62, 27
2, 296772, Note_on_c, 0, 56, 34
2, 296780, Note_on_c, 0, 75, 0
2, 296792, Note_on_c, 0, 67, 20
2, 296800, Note_on_c, 0, 76, 46
2, 297831, Control_c, 0, 64, 127
2, 298138, Note_on_c, 0, 76, 0
2, 298188, Note_on_c, 0, 67, 0
2, 298207, Note_on_c, 0, 62, 0
2, 298236, Note_on_c, 0, 56, 0
2, 298618, Control_c, 0, 64, 0
2, 298709, Note_on_c, 0, 76, 77
2, 298733, Note_on_c, 0, 67, 36
2, 298740, Note_on_c, 0, 56, 40
2, 298741, Note_on_c, 0, 62, 32
2, 298957, Control_c, 0, 64, 127
2, 298965, Note_on_c, 0, 67, 0
2, 298988, Note_on_c, 0, 62, 0
2, 299088, Note_on_c, 0, 77, 38
2, 299189, Note_on_c, 0, 78, 69
2, 299191, Note_on_c, 0, 76, 0
2, 299218, Note_on_c, 0, 56, 0
2, 299253, Note_on_c, 0, 77, 0
2, 299357, Note_on_c, 0, 78, 0
2, 299404, Note_on_c, 0, 79, 77
2, 299564, Control_c, 0, 64, 0
2, 299652, Note_on_c, 0, 72, 67
2, 299684, Note_on_c, 0, 64, 38
2, 299692, Note_on_c, 0, 57, 44
2, 299706, Note_on_c, 0, 60, 36
2, 299724, Note_on_c, 0, 79, 0
2, 300551, Note_on_c, 0, 56, 54
2, 300864, Control_c, 0, 64, 127
2, 301188, Note_on_c, 0, 56, 0
2, 301293, Note_on_c, 0, 57, 0
2, 301359, Note_on_c, 0, 60, 0
2, 301400, Note_on_c, 0, 64, 0
2, 301458, Control_c, 0, 64, 0
2, 301536, Note_on_c, 0, 64, 28
2, 301541, Note_on_c, 0, 55, 28
2, 301564, Note_on_c, 0, 60, 29
2, 301599, Note_on_c, 0, 72, 0
2, 301778, Control_c, 0, 64, 127
2, 302044, Note_on_c, 0, 55, 0
2, 302104, Note_on_c, 0, 64, 0
2, 302325, Note_on_c, 0, 60, 0
2, 302405, Control_c, 0, 64, 0
2, 302512, Note_on_c, 0, 60, 13
2, 302514, Note_on_c, 0, 64, 28
2, 302525, Note_on_c, 0, 69, 38
2, 302538, Note_on_c, 0, 81, 31
2, 302541, Note_on_c, 0, 54, 29
2, 302869, Control_c, 0, 64, 127
2, 302901, Note_on_c, 0, 69, 0
2, 303021, Note_on_c, 0, 81, 0
2, 303090, Note_on_c, 0, 54, 0
2, 303112, Note_on_c, 0, 64, 0
2, 303133, Note_on_c, 0, 60, 0
2, 303831, Control_c, 0, 64, 0
2, 303858, Note_on_c, 0, 76, 57
2, 303860, Note_on_c, 0, 64, 36
2, 303861, Note_on_c, 0, 54, 42
2, 303864, Note_on_c, 0, 88, 52
2, 303882, Note_on_c, 0, 60, 29
2, 303920, Note_on_c, 0, 81, 28
2, 303983, Note_on_c, 0, 81, 0
2, 304007, Note_on_c, 0, 88, 0
2, 304013, Note_on_c, 0, 76, 0
2, 304018, Note_on_c, 0, 64, 0
2, 304058, Note_on_c, 0, 60, 0
2, 304064, Note_on_c, 0, 54, 0
2, 304167, Note_on_c, 0, 88, 58
2, 304170, Note_on_c, 0, 76, 60
2, 304180, Note_on_c, 0, 64, 51
2, 304186, Note_on_c, 0, 54, 62
2, 304189, Note_on_c, 0, 81, 61
2, 304194, Note_on_c, 0, 84, 43
2, 304196, Note_on_c, 0, 60, 54
2, 304348, Note_on_c, 0, 81, 0
2, 304373, Note_on_c, 0, 76, 0
2, 304375, Note_on_c, 0, 64, 0
2, 304376, Note_on_c, 0, 88, 0
2, 304383, Note_on_c, 0, 54, 0
2, 304388, Note_on_c, 0, 84, 0
2, 304418, Note_on_c, 0, 60, 0
2, 304511, Note_on_c, 0, 88, 62
2, 304519, Note_on_c, 0, 64, 65
2, 304524, Note_on_c, 0, 54, 67
2, 304528, Note_on_c, 0, 60, 72
2, 304532, Note_on_c, 0, 76, 69
2, 304535, Note_on_c, 0, 81, 70
2, 304540, Note_on_c, 0, 84, 49
2, 304732, Control_c, 0, 64, 127
2, 304885, Note_on_c, 0, 88, 0
2, 304909, Note_on_c, 0, 76, 0
2, 304914, Note_on_c, 0, 64, 0
2, 304922, Note_on_c, 0, 84, 0
2, 304930, Note_on_c, 0, 81, 0
2, 304944, Note_on_c, 0, 54, 0
2, 304948, Note_on_c, 0, 60, 0
2, 304988, Control_c, 0, 64, 0
2, 305031, Note_on_c, 0, 86, 51
2, 305036, Note_on_c, 0, 54, 43
2, 305040, Note_on_c, 0, 64, 51
2, 305055, Note_on_c, 0, 60, 38
2, 305056, Note_on_c, 0, 74, 40
2, 305060, Note_on_c, 0, 81, 57
2, 305189, Note_on_c, 0, 74, 0
2, 305224, Note_on_c, 0, 86, 0
2, 305250, Note_on_c, 0, 64, 0
2, 305266, Note_on_c, 0, 54, 0
2, 305284, Note_on_c, 0, 81, 0
2, 305304, Note_on_c, 0, 60, 0
2, 305399, Note_on_c, 0, 88, 76
2, 305407, Note_on_c, 0, 81, 55
2, 305408, Note_on_c, 0, 54, 56
2, 305412, Note_on_c, 0, 64, 50
2, 305416, Note_on_c, 0, 76, 66
2, 305424, Note_on_c, 0, 60, 60
2, 305620, Note_on_c, 0, 88, 0
2, 305621, Note_on_c, 0, 76, 0
2, 305636, Note_on_c, 0, 81, 0
2, 305639, Note_on_c, 0, 64, 0
2, 305642, Note_on_c, 0, 54, 0
2, 305664, Note_on_c, 0, 60, 0
2, 305954, Note_on_c, 0, 86, 58
2, 305965, Note_on_c, 0, 64, 52
2, 305976, Note_on_c, 0, 81, 55
2, 305992, Note_on_c, 0, 60, 35
2, 305994, Note_on_c, 0, 74, 36
2, 305996, Note_on_c, 0, 54, 38
2, 306192, Control_c, 0, 64, 127
2, 306202, Note_on_c, 0, 86, 0
2, 306215, Note_on_c, 0, 81, 0
2, 306242, Note_on_c, 0, 54, 0
2, 306258, Note_on_c, 0, 64, 0
2, 306279, Note_on_c, 0, 74, 0
2, 306292, Note_on_c, 0, 60, 0
2, 306544, Control_c, 0, 64, 0
2, 306626, Note_on_c, 0, 84, 32
2, 306628, Note_on_c, 0, 64, 43
2, 306636, Note_on_c, 0, 54, 42
2, 306640, Note_on_c, 0, 60, 32
2, 306647, Note_on_c, 0, 72, 20
2, 306648, Note_on_c, 0, 79, 35
2, 306740, Control_c, 0, 64, 127
2, 306842, Note_on_c, 0, 79, 0
2, 306882, Note_on_c, 0, 84, 0
2, 306885, Note_on_c, 0, 64, 0
2, 306935, Note_on_c, 0, 72, 0
2, 306965, Note_on_c, 0, 54, 0
2, 307100, Note_on_c, 0, 60, 0
2, 307220, Note_on_c, 0, 81, 36
2, 307226, Note_on_c, 0, 60, 17
2, 307236, Note_on_c, 0, 69, 30
2, 307237, Note_on_c, 0, 64, 34
2, 307239, Note_on_c, 0, 54, 36
2, 307250, Note_on_c, 0, 76, 36
2, 307511, Note_on_c, 0, 60, 0
2, 307568, Note_on_c, 0, 69, 0
2, 307580, Note_on_c, 0, 81, 0
2, 307599, Note_on_c, 0, 54, 0
2, 307631, Note_on_c, 0, 64, 0
2, 307632, Note_on_c, 0, 76, 0
2, 308149, Control_c, 0, 64, 0
2, 308213, Note_on_c, 0, 82, 42
2, 308217, Note_on_c, 0, 61, 35
2, 308237, Note_on_c, 0, 54, 36
2, 308239, Note_on_c, 0, 65, 37
2, 308255, Note_on_c, 0, 58, 48
2, 308256, Note_on_c, 0, 70, 28
2, 308268, Note_on_c, 0, 75, 45
2, 308455, Control_c, 0, 64, 127
2, 308717, Note_on_c, 0, 82, 0
2, 308720, Note_on_c, 0, 75, 0
2, 308780, Note_on_c, 0, 70, 0
2, 308989, Note_on_c, 0, 65, 0
2, 309060, Note_on_c, 0, 61, 0
2, 309207, Note_on_c, 0, 61, 29
2, 309226, Note_on_c, 0, 66, 42
2, 309248, Note_on_c, 0, 70, 56
2, 309378, Note_on_c, 0, 66, 0
2, 309543, Note_on_c, 0, 68, 46
2, 309544, Note_on_c, 0, 72, 57
2, 309597, Note_on_c, 0, 70, 0
2, 309628, Note_on_c, 0, 58, 0
2, 309722, Note_on_c, 0, 72, 0
2, 309729, Note_on_c, 0, 68, 0
2, 309749, Note_on_c, 0, 61, 0
2, 309809, Note_on_c, 0, 70, 74
2, 309817, Note_on_c, 0, 73, 61
2, 309864, Control_c, 0, 64, 0
2, 309914, Note_on_c, 0, 61, 25
2, 309946, Note_on_c, 0, 58, 32
2, 309960, Note_on_c, 0, 65, 24
2, 310045, Note_on_c, 0, 70, 0
2, 310050, Note_on_c, 0, 73, 0
2, 310145, Note_on_c, 0, 75, 72
2, 310153, Note_on_c, 0, 72, 55
2, 310335, Note_on_c, 0, 72, 0
2, 310336, Note_on_c, 0, 75, 0
2, 310356, Note_on_c, 0, 65, 0
2, 310439, Note_on_c, 0, 73, 45
2, 310458, Note_on_c, 0, 70, 48
2, 310522, Control_c, 0, 64, 127
2, 310546, Note_on_c, 0, 54, 0
2, 310589, Note_on_c, 0, 61, 0
2, 310636, Note_on_c, 0, 70, 0
2, 310690, Note_on_c, 0, 73, 0
2, 310735, Note_on_c, 0, 58, 0
2, 310759, Note_on_c, 0, 68, 44
2, 310760, Note_on_c, 0, 72, 54
2, 310938, Control_c, 0, 64, 0
2, 310967, Note_on_c, 0, 68, 0
2, 310977, Note_on_c, 0, 72, 0
2, 311057, Note_on_c, 0, 53, 27
2, 311057, Note_on_c, 0, 60, 32
2, 311063, Note_on_c, 0, 57, 51
2, 311076, Note_on_c, 0, 64, 36
2, 311365, Note_on_c, 0, 65, 43
2, 311385, Note_on_c, 0, 69, 53
2, 311520, Note_on_c, 0, 65, 0
2, 311608, Note_on_c, 0, 69, 0
2, 311706, Note_on_c, 0, 67, 55
2, 311709, Note_on_c, 0, 71, 66
2, 311736, Note_on_c, 0, 64, 0
2, 311825, Control_c, 0, 64, 127
2, 311882, Note_on_c, 0, 67, 0
2, 311911, Note_on_c, 0, 60, 0
2, 311928, Note_on_c, 0, 71, 0
2, 312008, Note_on_c, 0, 69, 68
2, 312012, Note_on_c, 0, 72, 66
2, 312028, Note_on_c, 0, 60, 24
2, 312031, Note_on_c, 0, 64, 34
2, 312181, Note_on_c, 0, 64, 0
2, 312228, Note_on_c, 0, 69, 0
2, 312249, Note_on_c, 0, 72, 0
2, 312325, Note_on_c, 0, 74, 66
2, 312333, Note_on_c, 0, 71, 60
2, 312359, Note_on_c, 0, 60, 0
2, 312367, Note_on_c, 0, 72, 13
2, 312405, Note_on_c, 0, 53, 0
2, 312445, Note_on_c, 0, 72, 0
2, 312474, Note_on_c, 0, 71, 0
2, 312487, Note_on_c, 0, 74, 0
2, 312516, Control_c, 0, 64, 0
2, 312533, Note_on_c, 0, 57, 0
2, 312615, Note_on_c, 0, 72, 77
2, 312618, Note_on_c, 0, 76, 79
2, 312641, Note_on_c, 0, 64, 43
2, 312644, Note_on_c, 0, 53, 29
2, 312647, Note_on_c, 0, 59, 47
2, 312884, Note_on_c, 0, 72, 0
2, 312892, Note_on_c, 0, 76, 0
2, 312903, Control_c, 0, 64, 127
2, 312988, Note_on_c, 0, 74, 80
2, 312992, Note_on_c, 0, 77, 74
2, 313117, Note_on_c, 0, 64, 0
2, 313373, Note_on_c, 0, 74, 0
2, 313400, Note_on_c, 0, 77, 0
2, 313592, Note_on_c, 0, 76, 85
2, 313599, Note_on_c, 0, 79, 78
2, 313626, Note_on_c, 0, 53, 0
2, 313632, Note_on_c, 0, 59, 0
2, 313852, Note_on_c, 0, 76, 0
2, 313871, Note_on_c, 0, 79, 0
2, 313992, Control_c, 0, 64, 0
2, 314021, Note_on_c, 0, 59, 37
2, 314032, Note_on_c, 0, 52, 32
2, 314040, Note_on_c, 0, 62, 34
2, 314048, Note_on_c, 0, 76, 83
2, 314052, Note_on_c, 0, 83, 81
2, 314058, Note_on_c, 0, 55, 32
2, 314653, Note_on_c, 0, 83, 0
2, 314677, Note_on_c, 0, 79, 61
2, 314680, Note_on_c, 0, 71, 56
2, 314829, Note_on_c, 0, 76, 0
2, 314970, Control_c, 0, 64, 127
2, 315888, Note_on_c, 0, 52, 0
2, 315957, Note_on_c, 0, 55, 0
2, 315988, Note_on_c, 0, 62, 0
2, 316000, Note_on_c, 0, 59, 0
2, 316191, Note_on_c, 0, 71, 0
2, 316312, Note_on_c, 0, 76, 53
2, 316384, Note_on_c, 0, 79, 0
2, 316551, Note_on_c, 0, 76, 0
2, 316556, Note_on_c, 0, 71, 45
2, 316786, Note_on_c, 0, 71, 0
2, 316844, Control_c, 0, 64, 0
2, 316863, Note_on_c, 0, 77, 48
2, 316880, Note_on_c, 0, 65, 22
2, 316892, Note_on_c, 0, 57, 32
2, 316896, Note_on_c, 0, 55, 17
2, 316911, Note_on_c, 0, 60, 30
2, 317325, Control_c, 0, 64, 127
2, 317492, Note_on_c, 0, 72, 40
2, 317645, Control_c, 0, 64, 0
2, 317855, Control_c, 0, 64, 127
2, 318317, Note_on_c, 0, 60, 0
2, 318333, Note_on_c, 0, 65, 0
2, 318588, Note_on_c, 0, 72, 0
2, 318776, Note_on_c, 0, 77, 0
2, 318863, Note_on_c, 0, 57, 0
2, 319716, Control_c, 0, 64, 0
2, 319796, Note_on_c, 0, 67, 32
2, 319799, Note_on_c, 0, 64, 31
2, 319826, Note_on_c, 0, 62, 24
2, 320053, Control_c, 0, 64, 127
2, 320418, Note_on_c, 0, 79, 78
2, 320554, Note_on_c, 0, 67, 0
2, 320644, Note_on_c, 0, 79, 0
2, 320741, Note_on_c, 0, 55, 0
2, 321020, Note_on_c, 0, 83, 103
2, 321192, Note_on_c, 0, 55, 30
2, 321335, Note_on_c, 0, 83, 0
2, 321639, Note_on_c, 0, 86, 92
2, 321642, Note_on_c, 0, 62, 0
2, 321687, Note_on_c, 0, 64, 0
2, 321912, Note_on_c, 0, 86, 0
2, 322261, Note_on_c, 0, 65, 40
2, 322280, Control_c, 0, 64, 0
2, 322285, Note_on_c, 0, 77, 70
2, 322298, Note_on_c, 0, 57, 32
2, 322312, Note_on_c, 0, 60, 30
2, 322765, Note_on_c, 0, 77, 0
2, 322874, Control_c, 0, 64, 127
2, 322908, Note_on_c, 0, 77, 58
2, 323407, Note_on_c, 0, 77, 0
2, 323434, Note_on_c, 0, 55, 0
2, 323532, Control_c, 0, 64, 0
2, 323594, Note_on_c, 0, 55, 33
2, 323623, Note_on_c, 0, 77, 60
2, 323824, Control_c, 0, 64, 127
2, 324360, Note_on_c, 0, 60, 0
2, 324383, Note_on_c, 0, 65, 0
2, 324578, Note_on_c, 0, 65, 36
2, 324652, Note_on_c, 0, 60, 24
2, 324866, Note_on_c, 0, 65, 0
2, 324901, Note_on_c, 0, 60, 0
2, 324914, Note_on_c, 0, 55, 0
2, 324954, Note_on_c, 0, 57, 0
2, 324967, Note_on_c, 0, 77, 0
2, 324975, Note_on_c, 0, 76, 37
2, 325167, Note_on_c, 0, 76, 0
2, 325226, Note_on_c, 0, 79, 50
2, 325437, Note_on_c, 0, 79, 0
2, 325538, Control_c, 0, 64, 0
2, 325557, Note_on_c, 0, 59, 19
2, 325564, Note_on_c, 0, 62, 24
2, 325588, Note_on_c, 0, 52, 24
2, 325589, Note_on_c, 0, 79, 42
2, 325600, Note_on_c, 0, 55, 19
2, 325892, Control_c, 0, 64, 127
2, 326188, Note_on_c, 0, 62, 0
2, 326189, Note_on_c, 0, 55, 0
2, 326196, Note_on_c, 0, 59, 0
2, 326324, Note_on_c, 0, 79, 0
2, 326368, Note_on_c, 0, 52, 0
2, 326508, Note_on_c, 0, 83, 72
2, 326524, Note_on_c, 0, 59, 40
2, 326527, Note_on_c, 0, 71, 62
2, 326530, Note_on_c, 0, 52, 33
2, 326535, Note_on_c, 0, 62, 31
2, 326543, Note_on_c, 0, 55, 28
2, 326668, Note_on_c, 0, 71, 0
2, 326676, Note_on_c, 0, 62, 0
2, 326759, Note_on_c, 0, 83, 0
2, 326773, Note_on_c, 0, 52, 0
2, 326799, Note_on_c, 0, 55, 0
2, 326924, Note_on_c, 0, 59, 0
2, 327144, Control_c, 0, 64, 0
2, 327199, Note_on_c, 0, 86, 75
2, 327202, Note_on_c, 0, 62, 55
2, 327204, Note_on_c, 0, 59, 35
2, 327208, Note_on_c, 0, 74, 73
2, 327221, Note_on_c, 0, 52, 38
2, 327223, Note_on_c, 0, 55, 39
2, 327228, Note_on_c, 0, 79, 58
2, 327229, Note_on_c, 0, 83, 62
2, 327498, Control_c, 0, 64, 127
2, 327532, Note_on_c, 0, 62, 0
2, 327544, Note_on_c, 0, 52, 0
2, 327551, Note_on_c, 0, 79, 0
2, 327570, Note_on_c, 0, 74, 0
2, 327586, Note_on_c, 0, 55, 0
2, 327613, Note_on_c, 0, 83, 0
2, 327626, Note_on_c, 0, 86, 0
2, 327644, Note_on_c, 0, 59, 0
2, 327847, Note_on_c, 0, 86, 67
2, 327849, Note_on_c, 0, 59, 53
2, 327869, Note_on_c, 0, 79, 63
2, 327871, Note_on_c, 0, 62, 40
2, 327876, Note_on_c, 0, 74, 60
2, 327935, Note_on_c, 0, 62, 0
2, 327936, Note_on_c, 0, 79, 0
2, 327978, Note_on_c, 0, 86, 0
2, 328007, Note_on_c, 0, 74, 0
2, 328026, Note_on_c, 0, 59, 0
2, 328458, Control_c, 0, 64, 0
2, 328551, Note_on_c, 0, 77, 66
2, 328570, Note_on_c, 0, 65, 71
2, 328578, Note_on_c, 0, 67, 56
2, 328631, Note_on_c, 0, 67, 0
2, 328888, Control_c, 0, 64, 127
2, 329367, Note_on_c, 0, 65, 0
2, 329426, Note_on_c, 0, 77, 0
2, 329885, Control_c, 0, 64, 0
2, 329959, Note_on_c, 0, 81, 55
2, 329972, Note_on_c, 0, 64, 40
2, 329978, Note_on_c, 0, 54, 39
2, 329988, Note_on_c, 0, 69, 35
2, 329991, Note_on_c, 0, 78, 35
2, 330002, Note_on_c, 0, 74, 35
2, 330013, Note_on_c, 0, 60, 18
2, 330053, Note_on_c, 0, 64, 0
2, 330061, Note_on_c, 0, 69, 0
2, 330071, Note_on_c, 0, 74, 0
2, 330082, Note_on_c, 0, 60, 0
2, 330096, Note_on_c, 0, 78, 0
2, 330119, Note_on_c, 0, 54, 0
2, 330135, Note_on_c, 0, 81, 0
2, 330525, Control_c, 0, 64, 127
2, 330549, Note_on_c, 0, 84, 64
2, 330564, Note_on_c, 0, 53, 32
2, 330583, Note_on_c, 0, 72, 45
2, 330607, Note_on_c, 0, 79, 32
2, 330671, Note_on_c, 0, 79, 0
2, 330729, Note_on_c, 0, 72, 0
2, 330730, Note_on_c, 0, 84, 0
2, 330804, Note_on_c, 0, 53, 0
2, 331071, Control_c, 0, 64, 0
2, 331184, Note_on_c, 0, 82, 54
2, 331216, Note_on_c, 0, 58, 42
2, 331220, Note_on_c, 0, 52, 25
2, 331226, Note_on_c, 0, 62, 30
2, 331245, Note_on_c, 0, 70, 28
2, 331253, Note_on_c, 0, 77, 43
2, 331392, Control_c, 0, 64, 127
2, 331420, Note_on_c, 0, 52, 0
2, 331449, Note_on_c, 0, 70, 0
2, 331457, Note_on_c, 0, 77, 0
2, 331477, Note_on_c, 0, 58, 0
2, 331530, Note_on_c, 0, 62, 0
2, 331543, Note_on_c, 0, 82, 0
2, 332015, Note_on_c, 0, 86, 67
2, 332020, Control_c, 0, 64, 0
2, 332029, Note_on_c, 0, 74, 50
2, 332047, Note_on_c, 0, 56, 53
2, 332048, Note_on_c, 0, 67, 36
2, 332050, Note_on_c, 0, 81, 53
2, 332061, Note_on_c, 0, 62, 34
2, 332245, Control_c, 0, 64, 127
2, 332511, Note_on_c, 0, 74, 0
2, 332551, Note_on_c, 0, 81, 0
2, 332583, Note_on_c, 0, 86, 0
2, 332840, Note_on_c, 0, 56, 0
2, 332858, Note_on_c, 0, 67, 0
2, 332879, Note_on_c, 0, 62, 0
2, 333748, Note_on_c, 0, 62, 19
2, 333749, Note_on_c, 0, 89, 47
2, 333762, Note_on_c, 0, 56, 50
2, 333765, Note_on_c, 0, 67, 28
2, 333831, Note_on_c, 0, 84, 26
2, 333839, Note_on_c, 0, 77, 15
2, 333906, Note_on_c, 0, 62, 0
2, 333908, Note_on_c, 0, 67, 0
2, 333911, Note_on_c, 0, 77, 0
2, 333960, Note_on_c, 0, 84, 0
2, 333991, Note_on_c, 0, 89, 0
2, 334064, Note_on_c, 0, 56, 0
2, 334221, Control_c, 0, 64, 0
2, 334296, Note_on_c, 0, 93, 43
2, 334298, Note_on_c, 0, 61, 36
2, 334312, Note_on_c, 0, 55, 34
2, 334314, Note_on_c, 0, 65, 36
2, 334343, Note_on_c, 0, 91, 28
2, 334359, Note_on_c, 0, 81, 29
2, 334397, Note_on_c, 0, 91, 0
2, 334709, Note_on_c, 0, 88, 1
2, 334716, Control_c, 0, 64, 127
2, 335399, Note_on_c, 0, 65, 0
2, 335429, Note_on_c, 0, 55, 0
2, 335484, Note_on_c, 0, 61, 0
2, 335685, Note_on_c, 0, 93, 0
2, 335736, Note_on_c, 0, 88, 0
2, 335858, Note_on_c, 0, 81, 0
2, 335999, Note_on_c, 0, 61, 29
2, 336005, Note_on_c, 0, 55, 24
2, 336018, Note_on_c, 0, 64, 35
2, 336277, Note_on_c, 0, 61, 0
2, 336287, Note_on_c, 0, 64, 0
2, 336296, Note_on_c, 0, 55, 0
2, 336912, Control_c, 0, 64, 0
2, 337020, Note_on_c, 0, 57, 28
2, 337028, Note_on_c, 0, 50, 20
2, 337029, Note_on_c, 0, 53, 24
2, 337040, Note_on_c, 0, 60, 20
2, 338039, Note_on_c, 0, 68, 39
2, 338151, Note_on_c, 0, 68, 0
2, 338181, Note_on_c, 0, 69, 34
2, 338202, Note_on_c, 0, 53, 0
2, 338229, Note_on_c, 0, 57, 0
2, 338248, Note_on_c, 0, 50, 0
2, 338344, Note_on_c, 0, 60, 0
2, 338362, Note_on_c, 0, 69, 0
2, 338674, Note_on_c, 0, 76, 50
2, 338696, Note_on_c, 0, 69, 38
2, 338741, Note_on_c, 0, 72, 32
2, 338780, Note_on_c, 0, 69, 0
2, 338818, Note_on_c, 0, 72, 0
2, 338879, Note_on_c, 0, 76, 0
2, 339420, Note_on_c, 0, 81, 70
2, 339434, Note_on_c, 0, 72, 57
2, 339440, Note_on_c, 0, 76, 58
2, 339455, Note_on_c, 0, 65, 47
2, 339581, Note_on_c, 0, 72, 0
2, 339592, Note_on_c, 0, 76, 0
2, 339594, Note_on_c, 0, 65, 0
2, 339599, Note_on_c, 0, 81, 0
2, 339780, Note_on_c, 0, 79, 54
2, 339794, Note_on_c, 0, 64, 31
2, 339796, Note_on_c, 0, 71, 53
2, 339847, Note_on_c, 0, 74, 27
2, 339917, Note_on_c, 0, 74, 0
2, 339933, Note_on_c, 0, 71, 0
2, 339957, Note_on_c, 0, 79, 0
2, 340016, Note_on_c, 0, 64, 0
2, 340261, Note_on_c, 0, 77, 66
2, 340287, Note_on_c, 0, 69, 42
2, 340293, Note_on_c, 0, 72, 44
2, 340304, Note_on_c, 0, 74, 40
2, 340372, Note_on_c, 0, 74, 0
2, 340386, Note_on_c, 0, 69, 0
2, 340404, Note_on_c, 0, 72, 0
2, 340432, Note_on_c, 0, 77, 0
2, 340812, Note_on_c, 0, 76, 54
2, 340845, Note_on_c, 0, 65, 34
2, 340850, Note_on_c, 0, 69, 47
2, 340852, Note_on_c, 0, 72, 39
2, 340956, Note_on_c, 0, 65, 0
2, 340980, Note_on_c, 0, 72, 0
2, 340980, Note_on_c, 0, 69, 0
2, 341044, Note_on_c, 0, 76, 0
2, 341500, Note_on_c, 0, 74, 48
2, 341501, Note_on_c, 0, 68, 37
2, 341514, Note_on_c, 0, 60, 34
2, 341516, Note_on_c, 0, 65, 41
2, 341642, Note_on_c, 0, 68, 0
2, 341647, Note_on_c, 0, 65, 0
2, 341666, Note_on_c, 0, 60, 0
2, 341748, Note_on_c, 0, 74, 0
2, 342397, Control_c, 0, 64, 127
2, 342404, Note_on_c, 0, 74, 39
2, 342616, Note_on_c, 0, 72, 40
2, 342634, Note_on_c, 0, 74, 0
2, 342853, Note_on_c, 0, 72, 0
2, 342863, Control_c, 0, 64, 0
2, 342882, Note_on_c, 0, 71, 57
2, 343000, Note_on_c, 0, 62, 17
2, 343029, Note_on_c, 0, 52, 16
2, 343044, Note_on_c, 0, 58, 17
2, 343828, Control_c, 0, 64, 127
2, 343973, Note_on_c, 0, 52, 0
2, 344002, Note_on_c, 0, 58, 0
2, 344056, Note_on_c, 0, 62, 0
2, 344471, Note_on_c, 0, 71, 0
2, 344629, Control_c, 0, 64, 0
2, 344672, Note_on_c, 0, 67, 34
2, 344695, Note_on_c, 0, 56, 35
2, 344701, Note_on_c, 0, 62, 30
2, 344885, Control_c, 0, 64, 127
2, 345108, Note_on_c, 0, 83, 70
2, 345228, Note_on_c, 0, 62, 0
2, 345253, Note_on_c, 0, 67, 0
2, 345386, Note_on_c, 0, 81, 76
2, 345439, Note_on_c, 0, 56, 0
2, 345504, Note_on_c, 0, 83, 0
2, 345639, Control_c, 0, 64, 0
2, 345658, Note_on_c, 0, 81, 0
2, 345717, Note_on_c, 0, 55, 36
2, 345741, Note_on_c, 0, 79, 63
2, 345752, Note_on_c, 0, 65, 32
2, 345767, Note_on_c, 0, 61, 29
2, 346008, Control_c, 0, 64, 127
2, 346460, Note_on_c, 0, 65, 0
2, 346461, Note_on_c, 0, 79, 0
2, 346628, Note_on_c, 0, 77, 65
2, 346980, Note_on_c, 0, 55, 0
2, 346994, Note_on_c, 0, 61, 0
2, 347170, Note_on_c, 0, 77, 0
2, 347260, Control_c, 0, 64, 0
2, 347261, Note_on_c, 0, 61, 25
2, 347266, Note_on_c, 0, 76, 40
2, 347303, Note_on_c, 0, 65, 24
2, 347306, Note_on_c, 0, 55, 24
2, 347516, Control_c, 0, 64, 127
2, 347613, Note_on_c, 0, 65, 0
2, 347714, Note_on_c, 0, 61, 0
2, 347716, Note_on_c, 0, 55, 0
2, 347909, Note_on_c, 0, 74, 38
2, 348064, Note_on_c, 0, 76, 0
2, 348309, Note_on_c, 0, 74, 0
2, 348410, Control_c, 0, 64, 0
2, 348501, Note_on_c, 0, 60, 22
2, 348506, Note_on_c, 0, 57, 24
2, 348508, Note_on_c, 0, 76, 41
2, 348520, Note_on_c, 0, 79, 34
2, 348528, Note_on_c, 0, 53, 22
2, 348556, Note_on_c, 0, 50, 15
2, 348721, Control_c, 0, 64, 127
2, 349503, Note_on_c, 0, 79, 0
2, 349527, Note_on_c, 0, 76, 0
2, 349569, Note_on_c, 0, 60, 0
2, 349608, Note_on_c, 0, 53, 0
2, 349647, Note_on_c, 0, 57, 0
2, 350092, Note_on_c, 0, 57, 44
2, 350095, Note_on_c, 0, 60, 34
2, 350125, Note_on_c, 0, 53, 28
2, 350375, Control_c, 0, 64, 0
2, 350477, Note_on_c, 0, 76, 87
2, 350482, Note_on_c, 0, 79, 77
2, 350647, Note_on_c, 0, 50, 0
2, 350669, Note_on_c, 0, 53, 0
2, 350679, Note_on_c, 0, 57, 0
2, 350701, Note_on_c, 0, 76, 0
2, 350719, Note_on_c, 0, 79, 0
2, 350743, Control_c, 0, 64, 127
2, 350754, Note_on_c, 0, 60, 0
2, 350778, Note_on_c, 0, 77, 47
2, 350786, Note_on_c, 0, 74, 47
2, 350965, Note_on_c, 0, 77, 0
2, 350967, Note_on_c, 0, 74, 0
2, 351079, Control_c, 0, 64, 0
2, 351093, Note_on_c, 0, 76, 81
2, 351097, Note_on_c, 0, 79, 73
2, 351279, Note_on_c, 0, 59, 22
2, 351316, Note_on_c, 0, 53, 20
2, 351333, Note_on_c, 0, 76, 0
2, 351340, Note_on_c, 0, 64, 19
2, 351341, Note_on_c, 0, 79, 0
2, 351408, Note_on_c, 0, 74, 67
2, 351416, Note_on_c, 0, 77, 60
2, 351706, Control_c, 0, 64, 127
2, 351732, Note_on_c, 0, 53, 0
2, 351772, Note_on_c, 0, 64, 0
2, 351909, Note_on_c, 0, 59, 0
2, 351957, Note_on_c, 0, 74, 0
2, 352045, Note_on_c, 0, 77, 0
2, 352076, Control_c, 0, 64, 0
2, 352356, Note_on_c, 0, 64, 32
2, 352357, Note_on_c, 0, 72, 34
2, 352372, Note_on_c, 0, 59, 17
2, 352386, Note_on_c, 0, 76, 41
2, 352412, Control_c, 0, 64, 127
2, 352413, Note_on_c, 0, 53, 17
2, 352785, Note_on_c, 0, 64, 0
2, 352909, Note_on_c, 0, 53, 0
2, 352946, Note_on_c, 0, 59, 0
2, 352951, Note_on_c, 0, 72, 0
2, 353071, Note_on_c, 0, 76, 0
2, 353311, Control_c, 0, 64, 0
2, 353349, Note_on_c, 0, 64, 36
2, 353359, Note_on_c, 0, 59, 24
2, 353428, Note_on_c, 0, 53, 15
2, 353503, Control_c, 0, 64, 127
2, 353932, Note_on_c, 0, 59, 0
2, 353962, Note_on_c, 0, 53, 0
2, 354050, Note_on_c, 0, 64, 0
2, 354445, Control_c, 0, 64, 0
2, 354719, Control_c, 0, 64, 127
2, 355048, Note_on_c, 0, 67, 34
2, 355088, Control_c, 0, 64, 0
2, 355092, Note_on_c, 0, 62, 24
2, 355095, Note_on_c, 0, 56, 25
2, 355405, Note_on_c, 0, 76, 36
2, 355490, Note_on_c, 0, 76, 0
2, 355604, Note_on_c, 0, 67, 0
2, 355612, Note_on_c, 0, 56, 0
2, 355688, Note_on_c, 0, 84, 68
2, 355756, Note_on_c, 0, 62, 0
2, 355812, Note_on_c, 0, 84, 0
2, 356000, Note_on_c, 0, 88, 87
2, 356002, Note_on_c, 0, 62, 48
2, 356005, Note_on_c, 0, 67, 60
2, 356010, Note_on_c, 0, 56, 70
2, 356012, Note_on_c, 0, 76, 89
2, 356023, Note_on_c, 0, 85, 69
2, 356074, Note_on_c, 0, 85, 0
2, 356272, Note_on_c, 0, 67, 0
2, 356274, Note_on_c, 0, 76, 0
2, 356290, Note_on_c, 0, 88, 0
2, 356309, Note_on_c, 0, 62, 0
2, 356338, Note_on_c, 0, 88, 51
2, 356370, Note_on_c, 0, 76, 61
2, 356372, Note_on_c, 0, 62, 36
2, 356380, Note_on_c, 0, 67, 65
2, 356536, Control_c, 0, 64, 127
2, 356626, Note_on_c, 0, 88, 0
2, 356642, Note_on_c, 0, 67, 0
2, 356660, Note_on_c, 0, 76, 0
2, 356661, Note_on_c, 0, 56, 0
2, 356693, Note_on_c, 0, 84, 31
2, 356864, Note_on_c, 0, 84, 0
2, 356967, Note_on_c, 0, 56, 69
2, 356968, Note_on_c, 0, 67, 44
2, 356976, Note_on_c, 0, 88, 74
2, 356978, Note_on_c, 0, 76, 74
2, 357005, Note_on_c, 0, 85, 40
2, 357064, Note_on_c, 0, 67, 0
2, 357082, Note_on_c, 0, 62, 0
2, 357096, Note_on_c, 0, 85, 0
2, 357109, Note_on_c, 0, 76, 0
2, 357159, Note_on_c, 0, 88, 0
2, 357188, Note_on_c, 0, 56, 0
2, 357210, Control_c, 0, 64, 0
2, 357303, Note_on_c, 0, 55, 58
2, 357308, Note_on_c, 0, 65, 66
2, 357312, Note_on_c, 0, 89, 76
2, 357314, Note_on_c, 0, 77, 75
2, 357320, Note_on_c, 0, 61, 59
2, 357530, Control_c, 0, 64, 127
2, 357938, Note_on_c, 0, 89, 0
2, 357967, Note_on_c, 0, 55, 0
2, 357981, Note_on_c, 0, 65, 0
2, 358005, Note_on_c, 0, 61, 0
2, 358056, Note_on_c, 0, 77, 0
2, 358112, Control_c, 0, 64, 0
2, 358255, Note_on_c, 0, 61, 46
2, 358260, Note_on_c, 0, 88, 62
2, 358268, Note_on_c, 0, 65, 44
2, 358274, Note_on_c, 0, 55, 36
2, 358296, Note_on_c, 0, 76, 47
2, 358413, Control_c, 0, 64, 127
2, 359080, Note_on_c, 0, 88, 0
2, 359192, Note_on_c, 0, 76, 0
2, 359277, Note_on_c, 0, 65, 0
2, 359368, Note_on_c, 0, 55, 0
2, 359506, Note_on_c, 0, 61, 0
2, 359728, Note_on_c, 0, 61, 49
2, 359757, Note_on_c, 0, 84, 35
2, 359772, Note_on_c, 0, 55, 31
2, 359773, Note_on_c, 0, 72, 38
2, 359788, Note_on_c, 0, 81, 37
2, 359855, Note_on_c, 0, 81, 0
2, 359909, Note_on_c, 0, 84, 0
2, 359925, Note_on_c, 0, 72, 0
2, 359944, Note_on_c, 0, 61, 0
2, 359946, Note_on_c, 0, 55, 0
2, 360288, Control_c, 0, 64, 0
2, 360453, Note_on_c, 0, 79, 67
2, 360458, Note_on_c, 0, 69, 73
2, 360466, Note_on_c, 0, 76, 64
2, 360476, Note_on_c, 0, 72, 56
2, 360482, Note_on_c, 0, 64, 70
2, 360788, Control_c, 0, 64, 127
2, 360914, Control_c, 0, 64, 0
2, 360925, Note_on_c, 0, 79, 0
2, 360943, Note_on_c, 0, 76, 0
2, 360951, Note_on_c, 0, 69, 0
2, 360973, Note_on_c, 0, 72, 0
2, 361101, Note_on_c, 0, 72, 56
2, 361108, Note_on_c, 0, 77, 51
2, 361112, Note_on_c, 0, 69, 40
2, 361132, Note_on_c, 0, 62, 42
2, 361133, Note_on_c, 0, 64, 0
2, 361140, Control_c, 0, 64, 127
2, 361311, Note_on_c, 0, 72, 0
2, 361314, Note_on_c, 0, 77, 0
2, 361412, Note_on_c, 0, 69, 0
2, 361637, Control_c, 0, 64, 0
2, 361647, Note_on_c, 0, 62, 0
2, 361704, Note_on_c, 0, 76, 44
2, 361722, Note_on_c, 0, 69, 47
2, 361736, Note_on_c, 0, 65, 44
2, 361741, Note_on_c, 0, 72, 31
2, 361765, Note_on_c, 0, 60, 36
2, 361863, Note_on_c, 0, 72, 0
2, 361866, Note_on_c, 0, 69, 0
2, 361928, Note_on_c, 0, 76, 0
2, 361962, Note_on_c, 0, 65, 0
2, 362069, Control_c, 0, 64, 127
2, 362223, Note_on_c, 0, 60, 0
2, 362258, Note_on_c, 0, 72, 44
2, 362295, Note_on_c, 0, 65, 47
2, 362311, Control_c, 0, 64, 0
2, 362332, Note_on_c, 0, 57, 34
2, 362399, Note_on_c, 0, 65, 0
2, 362437, Note_on_c, 0, 72, 0
2, 362551, Control_c, 0, 64, 127
2, 362567, Note_on_c, 0, 57, 0
2, 362637, Note_on_c, 0, 53, 29
2, 362709, Note_on_c, 0, 53, 0
2, 362759, Control_c, 0, 64, 0
2, 362933, Note_on_c, 0, 65, 36
2, 362938, Note_on_c, 0, 64, 48
2, 362943, Note_on_c, 0, 69, 41
2, 362944, Note_on_c, 0, 60, 37
2, 363002, Note_on_c, 0, 53, 28
2, 363063, Control_c, 0, 64, 127
2, 363492, Note_on_c, 0, 64, 0
2, 363500, Note_on_c, 0, 65, 0
2, 363536, Note_on_c, 0, 60, 0
2, 363671, Note_on_c, 0, 69, 0
2, 363762, Note_on_c, 0, 53, 0
2, 363804, Control_c, 0, 64, 0
2, 363842, Note_on_c, 0, 68, 46
2, 363848, Note_on_c, 0, 43, 30
2, 363871, Note_on_c, 0, 59, 36
2, 363879, Note_on_c, 0, 63, 35
2, 363896, Note_on_c, 0, 53, 19
2, 364204, Control_c, 0, 64, 127
2, 364436, Note_on_c, 0, 53, 0
2, 365189, Note_on_c, 0, 43, 0
2, 365316, Note_on_c, 0, 68, 0
2, 365359, Note_on_c, 0, 59, 0
2, 365500, Note_on_c, 0, 43, 24
2, 365650, Note_on_c, 0, 63, 0
2, 365808, Control_c, 0, 64, 0
2, 365869, Note_on_c, 0, 57, 30
2, 365874, Note_on_c, 0, 67, 34
2, 365877, Note_on_c, 0, 62, 30
2, 365900, Note_on_c, 0, 52, 32
2, 366144, Control_c, 0, 64, 127
2, 366552, Note_on_c, 0, 43, 0
2, 366730, Note_on_c, 0, 62, 0
2, 366770, Note_on_c, 0, 67, 0
2, 366786, Note_on_c, 0, 43, 22
2, 366853, Note_on_c, 0, 57, 0
2, 367444, Note_on_c, 0, 55, 39
2, 367656, Note_on_c, 0, 55, 0
2, 368535, Note_on_c, 0, 43, 0
2, 368584, Note_on_c, 0, 52, 0
2, 368773, Control_c, 0, 64, 0
2, 369239, Control_c, 0, 64, 127
2, 369704, Control_c, 0, 64, 0
2, 369720, Note_on_c, 0, 57, 52
2, 369788, Note_on_c, 0, 53, 27
2, 370676, Note_on_c, 0, 43, 34
2, 370746, Control_c, 0, 64, 127
2, 370751, Note_on_c, 0, 53, 0
2, 370860, Control_c, 0, 64, 0
2, 370909, Note_on_c, 0, 43, 0
2, 370922, Note_on_c, 0, 57, 0
2, 371520, Note_on_c, 0, 59, 37
2, 371520, Note_on_c, 0, 67, 34
2, 371520, Note_on_c, 0, 64, 31
2, 371520, Note_on_c, 0, 62, 33
2, 371988, Control_c, 0, 64, 127
2, 372356, Note_on_c, 0, 59, 0
2, 372360, Note_on_c, 0, 62, 0
2, 372371, Note_on_c, 0, 67, 0
2, 372388, Note_on_c, 0, 64, 0
2, 372474, Note_on_c, 0, 67, 24
2, 372494, Note_on_c, 0, 59, 34
2, 372511, Note_on_c, 0, 62, 41
2, 372530, Note_on_c, 0, 64, 34
2, 372738, Control_c, 0, 64, 0
2, 373495, Control_c, 0, 64, 127
2, 374153, Note_on_c, 0, 62, 0
2, 374180, Note_on_c, 0, 64, 0
2, 374210, Note_on_c, 0, 59, 0
2, 374340, Note_on_c, 0, 67, 0
2, 374450, Note_on_c, 0, 67, 38
2, 374482, Note_on_c, 0, 65, 33
2, 374489, Control_c, 0, 64, 0
2, 374498, Note_on_c, 0, 60, 38
2, 374500, Note_on_c, 0, 57, 45
2, 375172, Note_on_c, 0, 67, 0
2, 375204, Note_on_c, 0, 57, 0
2, 375245, Note_on_c, 0, 60, 0
2, 375269, Note_on_c, 0, 65, 0
2, 375393, Note_on_c, 0, 67, 40
2, 375394, Note_on_c, 0, 57, 48
2, 375397, Note_on_c, 0, 60, 40
2, 375410, Note_on_c, 0, 65, 38
2, 376346, Note_on_c, 0, 43, 28
2, 376479, Control_c, 0, 64, 127
2, 376495, Note_on_c, 0, 60, 0
2, 376629, Note_on_c, 0, 57, 0
2, 377053, Note_on_c, 0, 67, 0
2, 377117, Note_on_c, 0, 65, 0
2, 377265, Control_c, 0, 64, 0
2, 377313, Note_on_c, 0, 67, 34
2, 377338, Note_on_c, 0, 64, 24
2, 377340, Note_on_c, 0, 59, 32
2, 377341, Note_on_c, 0, 62, 34
2, 377345, Note_on_c, 0, 52, 28
2, 378372, Control_c, 0, 64, 127
2, 379233, Note_on_c, 0, 43, 0
2, 379746, Note_on_c, 0, 62, 0
2, 379753, Note_on_c, 0, 64, 0
2, 379842, Note_on_c, 0, 59, 0
2, 379857, Note_on_c, 0, 52, 0
2, 379954, Note_on_c, 0, 67, 0
2, 380247, Control_c, 0, 64, 0
2, 380311, Note_on_c, 0, 65, 18
2, 380319, Note_on_c, 0, 67, 30
2, 380335, Note_on_c, 0, 57, 32
2, 380349, Note_on_c, 0, 60, 25
2, 380932, Note_on_c, 0, 57, 0
2, 381002, Note_on_c, 0, 60, 0
2, 381018, Note_on_c, 0, 67, 0
2, 381116, Note_on_c, 0, 65, 0
2, 381207, Note_on_c, 0, 60, 34
2, 381210, Note_on_c, 0, 65, 18
2, 381218, Note_on_c, 0, 67, 36
2, 381225, Note_on_c, 0, 57, 36
2, 381274, Note_on_c, 0, 55, 24
2, 382157, Control_c, 0, 64, 127
2, 382349, Note_on_c, 0, 57, 0
2, 382439, Note_on_c, 0, 60, 0
2, 382530, Note_on_c, 0, 67, 0
2, 382551, Note_on_c, 0, 65, 0
2, 382601, Note_on_c, 0, 55, 0
2, 383053, Control_c, 0, 64, 0
2, 383073, Note_on_c, 0, 71, 75
2, 383105, Note_on_c, 0, 67, 69
2, 383121, Note_on_c, 0, 64, 67
2, 383132, Note_on_c, 0, 62, 64
2, 383159, Note_on_c, 0, 55, 44
2, 383423, Control_c, 0, 64, 127
2, 383604, Note_on_c, 0, 67, 0
2, 383645, Note_on_c, 0, 71, 0
2, 383660, Note_on_c, 0, 64, 0
2, 383708, Note_on_c, 0, 62, 0
2, 383930, Note_on_c, 0, 55, 0
2, 385565, Note_on_c, 0, 67, 41
2, 385588, Note_on_c, 0, 59, 35
2, 385593, Note_on_c, 0, 62, 36
2, 385604, Note_on_c, 0, 55, 27
2, 385821, Note_on_c, 0, 55, 0
2, 385837, Note_on_c, 0, 59, 0
2, 385879, Note_on_c, 0, 62, 0
2, 385946, Note_on_c, 0, 67, 0
2, 386004, Control_c, 0, 64, 0
2, 386085, Note_on_c, 0, 67, 29
2, 386101, Note_on_c, 0, 59, 42
2, 386109, Note_on_c, 0, 55, 33
2, 386119, Note_on_c, 0, 62, 33
2, 386485, Control_c, 0, 64, 127
2, 386642, Note_on_c, 0, 62, 0
2, 386732, Note_on_c, 0, 59, 0
2, 386828, Note_on_c, 0, 55, 0
2, 387321, Note_on_c, 0, 67, 0
2, 387593, Control_c, 0, 64, 0
2, 387599, Note_on_c, 0, 67, 34
2, 387613, Note_on_c, 0, 60, 29
2, 387621, Note_on_c, 0, 57, 47
2, 387637, Note_on_c, 0, 65, 38
2, 387660, Note_on_c, 0, 55, 26
2, 387914, Control_c, 0, 64, 127
2, 388009, Note_on_c, 0, 57, 0
2, 388077, Note_on_c, 0, 60, 0
2, 388145, Note_on_c, 0, 67, 0
2, 388149, Note_on_c, 0, 65, 0
2, 388684, Control_c, 0, 64, 0
2, 388756, Note_on_c, 0, 55, 0
2, 388785, Note_on_c, 0, 70, 49
2, 388807, Note_on_c, 0, 62, 33
2, 388812, Note_on_c, 0, 67, 42
2, 388831, Note_on_c, 0, 52, 27
2, 389116, Control_c, 0, 64, 127
2, 389393, Note_on_c, 0, 62, 0
2, 389439, Note_on_c, 0, 52, 0
2, 389474, Note_on_c, 0, 67, 0
2, 389639, Note_on_c, 0, 70, 0
2, 390490, Note_on_c, 0, 74, 53
2, 390506, Note_on_c, 0, 67, 38
2, 390511, Note_on_c, 0, 70, 48
2, 390522, Note_on_c, 0, 62, 29
2, 390538, Note_on_c, 0, 56, 46
2, 390892, Note_on_c, 0, 67, 0
2, 390911, Note_on_c, 0, 62, 0
2, 390943, Note_on_c, 0, 74, 0
2, 390951, Note_on_c, 0, 70, 0
2, 391010, Note_on_c, 0, 56, 0
2, 391601, Control_c, 0, 64, 0
2, 391669, Note_on_c, 0, 81, 51
2, 391705, Note_on_c, 0, 61, 25
2, 391711, Note_on_c, 0, 55, 28
2, 391713, Note_on_c, 0, 73, 30
2, 391732, Note_on_c, 0, 64, 29
2, 391735, Note_on_c, 0, 76, 43
2, 391881, Note_on_c, 0, 70, 8
2, 392708, Control_c, 0, 64, 127
2, 392991, Note_on_c, 0, 81, 0
2, 393417, Note_on_c, 0, 70, 0
2, 393439, Note_on_c, 0, 76, 0
2, 393556, Note_on_c, 0, 64, 0
2, 393613, Note_on_c, 0, 73, 0
2, 393623, Note_on_c, 0, 61, 0
2, 393647, Note_on_c, 0, 55, 0
2, 394489, Control_c, 0, 64, 0
2, 394613, Note_on_c, 0, 76, 36
2, 394637, Note_on_c, 0, 65, 20
2, 394641, Note_on_c, 0, 60, 29
2, 394642, Note_on_c, 0, 72, 33
2, 394665, Note_on_c, 0, 69, 24
2, 395116, Control_c, 0, 64, 127
2, 395514, Note_on_c, 0, 76, 0
2, 395540, Note_on_c, 0, 72, 0
2, 395604, Note_on_c, 0, 69, 0
2, 395609, Note_on_c, 0, 60, 0
2, 395671, Note_on_c, 0, 65, 0
2, 396175, Control_c, 0, 64, 0
2, 396188, Note_on_c, 0, 60, 36
2, 396201, Note_on_c, 0, 69, 36
2, 396204, Note_on_c, 0, 65, 34
2, 396218, Note_on_c, 0, 57, 44
2, 396463, Control_c, 0, 64, 127
2, 396589, Note_on_c, 0, 57, 0
2, 396847, Note_on_c, 0, 60, 0
2, 396972, Note_on_c, 0, 69, 0
2, 397042, Note_on_c, 0, 65, 0
2, 397378, Control_c, 0, 64, 0
2, 397439, Note_on_c, 0, 64, 37
2, 397455, Note_on_c, 0, 67, 30
2, 397461, Note_on_c, 0, 43, 22
2, 397466, Note_on_c, 0, 59, 26
2, 397500, Note_on_c, 0, 53, 16
2, 397607, Note_on_c, 0, 59, 0
2, 397628, Note_on_c, 0, 64, 0
2, 397653, Note_on_c, 0, 43, 0
2, 397677, Note_on_c, 0, 53, 0
2, 397679, Note_on_c, 0, 67, 0
2, 398015, Note_on_c, 0, 63, 38
2, 398018, Note_on_c, 0, 66, 39
2, 398045, Note_on_c, 0, 59, 24
2, 398047, Note_on_c, 0, 43, 20
2, 398210, Note_on_c, 0, 43, 0
2, 398290, Note_on_c, 0, 59, 0
2, 398327, Note_on_c, 0, 66, 0
2, 398369, Note_on_c, 0, 63, 0
2, 398477, Note_on_c, 0, 65, 36
2, 398492, Note_on_c, 0, 53, 20
2, 398500, Note_on_c, 0, 62, 27
2, 398501, Note_on_c, 0, 43, 24
2, 398508, Note_on_c, 0, 59, 17
2, 399445, Control_c, 0, 64, 127
2, 399721, Note_on_c, 0, 62, 0
2, 399783, Note_on_c, 0, 43, 0
2, 399817, Note_on_c, 0, 53, 0
2, 399839, Note_on_c, 0, 59, 0
2, 399841, Note_on_c, 0, 65, 0
2, 400343, Control_c, 0, 64, 0
2, 400380, Note_on_c, 0, 64, 33
2, 400393, Note_on_c, 0, 52, 24
2, 400450, Note_on_c, 0, 62, 24
2, 400477, Note_on_c, 0, 56, 12
2, 401289, Control_c, 0, 64, 127
2, 402287, Note_on_c, 0, 56, 0
2, 402396, Note_on_c, 0, 52, 0
2, 402405, Note_on_c, 0, 62, 0
2, 402437, Note_on_c, 0, 64, 0
2, 403249, Control_c, 0, 64, 0
2, 404149, Note_on_c, 0, 64, 66
2, 404153, Note_on_c, 0, 71, 61
2, 404156, Note_on_c, 0, 60, 66
2, 404169, Note_on_c, 0, 67, 53
2, 404181, Note_on_c, 0, 59, 60
2, 404721, Control_c, 0, 64, 127
2, 404818, Control_c, 0, 64, 0
2, 405154, Control_c, 0, 64, 127
2, 405393, Note_on_c, 0, 60, 0
2, 405492, Note_on_c, 0, 67, 0
2, 405492, Note_on_c, 0, 71, 0
2, 405517, Note_on_c, 0, 64, 0
2, 405621, Note_on_c, 0, 59, 0
2, 405631, Note_on_c, 0, 69, 61
2, 405636, Note_on_c, 0, 60, 44
2, 405637, Note_on_c, 0, 64, 47
2, 405645, Note_on_c, 0, 57, 50
2, 405807, Note_on_c, 0, 64, 0
2, 405869, Note_on_c, 0, 60, 0
2, 405938, Note_on_c, 0, 69, 0
2, 406052, Control_c, 0, 64, 0
2, 406090, Note_on_c, 0, 57, 0
2, 406154, Note_on_c, 0, 64, 49
2, 406162, Note_on_c, 0, 60, 44
2, 406172, Note_on_c, 0, 68, 49
2, 406207, Note_on_c, 0, 56, 43
2, 406692, Control_c, 0, 64, 127
2, 406711, Control_c, 0, 64, 0
2, 406813, Note_on_c, 0, 60, 0
2, 406857, Note_on_c, 0, 64, 0
2, 406937, Note_on_c, 0, 68, 0
2, 406991, Note_on_c, 0, 56, 0
2, 407012, Note_on_c, 0, 60, 29
2, 407018, Note_on_c, 0, 64, 30
2, 407033, Note_on_c, 0, 69, 44
2, 407045, Note_on_c, 0, 57, 35
2, 407129, Control_c, 0, 64, 127
2, 407471, Note_on_c, 0, 64, 0
2, 407490, Note_on_c, 0, 60, 0
2, 407580, Note_on_c, 0, 57, 0
2, 407605, Note_on_c, 0, 69, 0
2, 407914, Control_c, 0, 64, 0
2, 407970, Note_on_c, 0, 60, 34
2, 407993, Note_on_c, 0, 64, 42
2, 408007, Note_on_c, 0, 66, 37
2, 408017, Note_on_c, 0, 50, 27
2, 408047, Note_on_c, 0, 54, 25
2, 408988, Control_c, 0, 64, 127
2, 410170, Note_on_c, 0, 50, 0
2, 410215, Note_on_c, 0, 54, 0
2, 410989, Note_on_c, 0, 60, 0
2, 411092, Note_on_c, 0, 64, 0
2, 411129, Note_on_c, 0, 66, 0
2, 411793, Control_c, 0, 64, 0
2, 411874, Note_on_c, 0, 39, 28
2, 411876, Note_on_c, 0, 70, 35
2, 411889, Note_on_c, 0, 61, 28
2, 411909, Note_on_c, 0, 66, 40
2, 411924, Note_on_c, 0, 54, 26
2, 412356, Control_c, 0, 64, 127
2, 412818, Note_on_c, 0, 61, 0
2, 412825, Note_on_c, 0, 66, 0
2, 412857, Note_on_c, 0, 70, 0
2, 412893, Note_on_c, 0, 39, 0
2, 413173, Note_on_c, 0, 54, 0
2, 413351, Control_c, 0, 64, 0
2, 413378, Note_on_c, 0, 65, 60
2, 413386, Note_on_c, 0, 72, 60
2, 413399, Note_on_c, 0, 60, 51
2, 413442, Note_on_c, 0, 54, 38
2, 413735, Control_c, 0, 64, 127
2, 413999, Note_on_c, 0, 54, 0
2, 414113, Note_on_c, 0, 72, 0
2, 414223, Note_on_c, 0, 65, 0
2, 414234, Note_on_c, 0, 60, 0
2, 414746, Control_c, 0, 64, 0
2, 414783, Note_on_c, 0, 65, 40
2, 414785, Note_on_c, 0, 57, 44
2, 414789, Note_on_c, 0, 60, 37
2, 414791, Note_on_c, 0, 69, 44
2, 415100, Control_c, 0, 64, 127
2, 415378, Note_on_c, 0, 57, 0
2, 415474, Note_on_c, 0, 69, 0
2, 415538, Note_on_c, 0, 60, 0
2, 415609, Note_on_c, 0, 65, 0
2, 416255, Control_c, 0, 64, 0
2, 416281, Note_on_c, 0, 68, 37
2, 416301, Note_on_c, 0, 59, 24
2, 416314, Note_on_c, 0, 63, 34
2, 416335, Note_on_c, 0, 53, 24
2, 416637, Control_c, 0, 64, 127
2, 416943, Note_on_c, 0, 53, 0
2, 416983, Note_on_c, 0, 59, 0
2, 417057, Note_on_c, 0, 68, 0
2, 417149, Note_on_c, 0, 63, 0
2, 417423, Control_c, 0, 64, 0
2, 417612, Note_on_c, 0, 67, 36
2, 417613, Note_on_c, 0, 64, 28
2, 417626, Note_on_c, 0, 62, 27
2, 417644, Note_on_c, 0, 59, 15
2, 417855, Control_c, 0, 64, 127
2, 418052, Note_on_c, 0, 59, 0
2, 418141, Note_on_c, 0, 62, 0
2, 418148, Note_on_c, 0, 64, 0
2, 418207, Note_on_c, 0, 67, 0
2, 418244, Note_on_c, 0, 55, 25
2, 418437, Note_on_c, 0, 55, 0
2, 419005, Note_on_c, 0, 71, 41
2, 419018, Note_on_c, 0, 79, 40
2, 419028, Note_on_c, 0, 74, 43
2, 419045, Note_on_c, 0, 76, 43
2, 419050, Note_on_c, 0, 67, 32
2, 419369, Note_on_c, 0, 67, 0
2, 419565, Note_on_c, 0, 67, 37
2, 419705, Note_on_c, 0, 76, 0
2, 419717, Note_on_c, 0, 74, 0
2, 419796, Note_on_c, 0, 79, 0
2, 419828, Note_on_c, 0, 71, 0
2, 420161, Note_on_c, 0, 77, 41
2, 420180, Note_on_c, 0, 55, 46
2, 420185, Control_c, 0, 64, 0
2, 420185, Note_on_c, 0, 69, 27
2, 420194, Note_on_c, 0, 72, 41
2, 420631, Control_c, 0, 64, 127
2, 420657, Note_on_c, 0, 67, 0
2, 420913, Note_on_c, 0, 67, 45
2, 421193, Note_on_c, 0, 67, 0
2, 421572, Note_on_c, 0, 67, 51
2, 421860, Note_on_c, 0, 55, 0
2, 422173, Note_on_c, 0, 55, 42
2, 422204, Control_c, 0, 64, 0
2, 422316, Note_on_c, 0, 67, 0
2, 422370, Note_on_c, 0, 69, 0
2, 422413, Control_c, 0, 64, 127
2, 422490, Note_on_c, 0, 72, 0
2, 422685, Note_on_c, 0, 77, 0
2, 422858, Control_c, 0, 64, 0
2, 422897, Note_on_c, 0, 67, 48
2, 422900, Note_on_c, 0, 76, 34
2, 422906, Note_on_c, 0, 71, 44
2, 422908, Note_on_c, 0, 64, 44
2, 423205, Note_on_c, 0, 64, 0
2, 423391, Note_on_c, 0, 64, 37
2, 423425, Control_c, 0, 64, 127
2, 423777, Note_on_c, 0, 55, 0
2, 423937, Control_c, 0, 64, 0
2, 423962, Note_on_c, 0, 55, 26
2, 424181, Control_c, 0, 64, 127
2, 424431, Note_on_c, 0, 64, 0
2, 424820, Note_on_c, 0, 64, 51
2, 425170, Note_on_c, 0, 55, 0
2, 425255, Note_on_c, 0, 64, 0
2, 425477, Note_on_c, 0, 64, 36
2, 425591, Note_on_c, 0, 64, 0
2, 425789, Note_on_c, 0, 64, 43
2, 425873, Note_on_c, 0, 67, 0
2, 425887, Note_on_c, 0, 71, 0
2, 426073, Note_on_c, 0, 64, 0
2, 426082, Note_on_c, 0, 76, 0
2, 426169, Control_c, 0, 64, 0
2, 426172, Note_on_c, 0, 69, 54
2, 426173, Note_on_c, 0, 77, 60
2, 426194, Note_on_c, 0, 72, 53
2, 426767, Note_on_c, 0, 67, 45
2, 427245, Control_c, 0, 64, 127
2, 427489, Note_on_c, 0, 62, 31
2, 427498, Note_on_c, 0, 67, 0
2, 427597, Control_c, 0, 64, 0
2, 427805, Control_c, 0, 64, 127
2, 427948, Note_on_c, 0, 72, 0
2, 427967, Note_on_c, 0, 69, 0
2, 428047, Control_c, 0, 64, 0
2, 428188, Note_on_c, 0, 67, 24
2, 428228, Note_on_c, 0, 55, 19
2, 428647, Note_on_c, 0, 67, 0
2, 428655, Control_c, 0, 64, 127
2, 428719, Note_on_c, 0, 77, 0
2, 429053, Control_c, 0, 64, 0
2, 429146, Note_on_c, 0, 79, 38
2, 429148, Note_on_c, 0, 62, 0
2, 429153, Note_on_c, 0, 71, 39
2, 429175, Note_on_c, 0, 64, 34
2, 429209, Note_on_c, 0, 74, 27
2, 429212, Note_on_c, 0, 67, 32
2, 429535, Control_c, 0, 64, 127
2, 430097, Note_on_c, 0, 55, 0
2, 430119, Note_on_c, 0, 74, 0
2, 430140, Note_on_c, 0, 67, 0
2, 430210, Note_on_c, 0, 64, 0
2, 430213, Note_on_c, 0, 71, 0
2, 430609, Note_on_c, 0, 79, 0
2, 430701, Note_on_c, 0, 74, 38
2, 430709, Note_on_c, 0, 67, 34
2, 430714, Note_on_c, 0, 71, 38
2, 430717, Note_on_c, 0, 64, 36
2, 430737, Note_on_c, 0, 55, 25
2, 430890, Note_on_c, 0, 64, 0
2, 431050, Note_on_c, 0, 55, 0
2, 431117, Note_on_c, 0, 74, 0
2, 431234, Note_on_c, 0, 71, 0
2, 431372, Note_on_c, 0, 67, 0
2, 432009, Note_on_c, 0, 71, 57
2, 432028, Note_on_c, 0, 67, 49
2, 432039, Control_c, 0, 64, 0
2, 432041, Note_on_c, 0, 62, 39
2, 432052, Note_on_c, 0, 53, 30
2, 432537, Control_c, 0, 64, 127
2, 433071, Note_on_c, 0, 62, 0
2, 433154, Note_on_c, 0, 67, 0
2, 433177, Note_on_c, 0, 53, 0
2, 433618, Note_on_c, 0, 67, 44
2, 433641, Note_on_c, 0, 62, 37
2, 433668, Note_on_c, 0, 53, 29
2, 434060, Note_on_c, 0, 53, 0
2, 434317, Note_on_c, 0, 67, 0
2, 434370, Note_on_c, 0, 62, 0
2, 434433, Note_on_c, 0, 71, 0
2, 434895, Control_c, 0, 64, 0
2, 434983, Note_on_c, 0, 67, 34
2, 434985, Note_on_c, 0, 62, 29
2, 435029, Note_on_c, 0, 52, 24
2, 435041, Note_on_c, 0, 58, 27
2, 435501, Control_c, 0, 64, 127
2, 435693, Note_on_c, 0, 62, 0
2, 435745, Note_on_c, 0, 52, 0
2, 435813, Note_on_c, 0, 58, 0
2, 435836, Note_on_c, 0, 67, 0
2, 436450, Note_on_c, 0, 74, 68
2, 436465, Control_c, 0, 64, 0
2, 436477, Note_on_c, 0, 67, 53
2, 436482, Note_on_c, 0, 70, 50
2, 436503, Note_on_c, 0, 56, 56
2, 436508, Note_on_c, 0, 62, 36
2, 436785, Control_c, 0, 64, 127
2, 436994, Note_on_c, 0, 62, 0
2, 437161, Note_on_c, 0, 74, 0
2, 437197, Note_on_c, 0, 56, 0
2, 437220, Note_on_c, 0, 67, 0
2, 437289, Note_on_c, 0, 70, 0
2, 437796, Control_c, 0, 64, 0
2, 437817, Note_on_c, 0, 61, 34
2, 437821, Note_on_c, 0, 76, 32
2, 437828, Note_on_c, 0, 70, 37
2, 437831, Note_on_c, 0, 67, 30
2, 437834, Note_on_c, 0, 73, 27
2, 437839, Note_on_c, 0, 55, 32
2, 437852, Note_on_c, 0, 64, 36
2, 438261, Control_c, 0, 64, 127
2, 438556, Note_on_c, 0, 67, 0
2, 438634, Note_on_c, 0, 76, 0
2, 438649, Note_on_c, 0, 70, 0
2, 438668, Note_on_c, 0, 73, 0
2, 438685, Note_on_c, 0, 64, 0
2, 438778, Note_on_c, 0, 61, 0
2, 438951, Note_on_c, 0, 55, 0
2, 439337, Control_c, 0, 64, 0
2, 439353, Note_on_c, 0, 79, 64
2, 439357, Note_on_c, 0, 73, 55
2, 439367, Note_on_c, 0, 70, 62
2, 439370, Note_on_c, 0, 76, 60
2, 439380, Note_on_c, 0, 64, 60
2, 439657, Control_c, 0, 64, 127
2, 440317, Note_on_c, 0, 79, 0
2, 440329, Note_on_c, 0, 76, 0
2, 440429, Note_on_c, 0, 70, 0
2, 440436, Note_on_c, 0, 64, 0
2, 440554, Note_on_c, 0, 73, 0
2, 440652, Control_c, 0, 64, 0
2, 440757, Note_on_c, 0, 77, 50
2, 440799, Note_on_c, 0, 69, 28
2, 440801, Note_on_c, 0, 72, 32
2, 440805, Note_on_c, 0, 62, 31
2, 441005, Control_c, 0, 64, 127
2, 441343, Control_c, 0, 64, 0
2, 441349, Note_on_c, 0, 62, 0
2, 441354, Note_on_c, 0, 77, 0
2, 441373, Note_on_c, 0, 72, 0
2, 441383, Note_on_c, 0, 69, 0
2, 441981, Control_c, 0, 64, 127
2, 442077, Control_c, 0, 64, 0
2, 442354, Note_on_c, 0, 76, 29
2, 442377, Note_on_c, 0, 60, 27
2, 442383, Note_on_c, 0, 69, 28
2, 442543, Control_c, 0, 64, 127
2, 442565, Note_on_c, 0, 60, 0
2, 442621, Note_on_c, 0, 76, 0
2, 442625, Note_on_c, 0, 69, 0
2, 443682, Control_c, 0, 64, 0
2, 443761, Control_c, 0, 64, 127
2, 444293, Control_c, 0, 64, 0
2, 444428, Note_on_c, 0, 57, 35
2, 444433, Note_on_c, 0, 43, 19
2, 444439, Note_on_c, 0, 60, 31
2, 444645, Control_c, 0, 64, 127
2, 444767, Note_on_c, 0, 43, 0
2, 444809, Note_on_c, 0, 57, 0
2, 444810, Note_on_c, 0, 60, 0
2, 445093, Note_on_c, 0, 57, 51
2, 445095, Note_on_c, 0, 60, 44
2, 445121, Note_on_c, 0, 43, 24
2, 445135, Note_on_c, 0, 53, 19
2, 445281, Note_on_c, 0, 57, 0
2, 445287, Note_on_c, 0, 43, 0
2, 445298, Note_on_c, 0, 53, 0
2, 445314, Note_on_c, 0, 60, 0
2, 445319, Control_c, 0, 64, 0
2, 445449, Note_on_c, 0, 60, 57
2, 445452, Note_on_c, 0, 43, 24
2, 445465, Note_on_c, 0, 57, 52
2, 445469, Note_on_c, 0, 53, 29
2, 445727, Note_on_c, 0, 57, 0
2, 445743, Note_on_c, 0, 43, 0
2, 445762, Note_on_c, 0, 53, 0
2, 445769, Control_c, 0, 64, 127
2, 445809, Note_on_c, 0, 60, 0
2, 446234, Control_c, 0, 64, 0
2, 446437, Note_on_c, 0, 64, 48
2, 446445, Note_on_c, 0, 40, 36
2, 446461, Note_on_c, 0, 55, 24
2, 446465, Note_on_c, 0, 59, 35
2, 446482, Note_on_c, 0, 62, 33
2, 446554, Control_c, 0, 64, 127
2, 446623, Note_on_c, 0, 40, 0
2, 446714, Note_on_c, 0, 55, 0
2, 446724, Note_on_c, 0, 62, 0
2, 446777, Note_on_c, 0, 59, 0
2, 446829, Note_on_c, 0, 64, 0
2, 447420, Note_on_c, 0, 64, 71
2, 447421, Note_on_c, 0, 71, 62
2, 447426, Note_on_c, 0, 67, 59
2, 447434, Note_on_c, 0, 62, 60
2, 447444, Note_on_c, 0, 59, 56
2, 448252, Note_on_c, 0, 59, 0
2, 448301, Note_on_c, 0, 67, 0
2, 448485, Note_on_c, 0, 62, 0
2, 448497, Note_on_c, 0, 64, 0
2, 448607, Note_on_c, 0, 71, 0
2, 448692, Note_on_c, 0, 67, 50
2, 448905, Note_on_c, 0, 67, 0
2, 448981, Note_on_c, 0, 64, 46
2, 449130, Note_on_c, 0, 64, 0
2, 449282, Control_c, 0, 64, 0
2, 449324, Note_on_c, 0, 61, 51
2, 449353, Note_on_c, 0, 69, 43
2, 449361, Note_on_c, 0, 64, 37
2, 449391, Note_on_c, 0, 45, 32
2, 449410, Note_on_c, 0, 55, 20
2, 449732, Control_c, 0, 64, 127
2, 450204, Note_on_c, 0, 69, 0
2, 450229, Note_on_c, 0, 64, 0
2, 450301, Note_on_c, 0, 55, 0
2, 450351, Note_on_c, 0, 61, 0
2, 450633, Note_on_c, 0, 45, 0
2, 450841, Control_c, 0, 64, 0
2, 450868, Note_on_c, 0, 61, 42
2, 450881, Note_on_c, 0, 67, 39
2, 450905, Note_on_c, 0, 58, 33
2, 450906, Note_on_c, 0, 64, 37
2, 450917, Note_on_c, 0, 55, 22
2, 451509, Note_on_c, 0, 52, 29
2, 451516, Note_on_c, 0, 55, 0
2, 451577, Control_c, 0, 64, 127
2, 451676, Note_on_c, 0, 52, 0
2, 451719, Note_on_c, 0, 64, 0
2, 451745, Note_on_c, 0, 58, 0
2, 451850, Note_on_c, 0, 51, 27
2, 451853, Note_on_c, 0, 67, 0
2, 451930, Note_on_c, 0, 61, 0
2, 452010, Control_c, 0, 64, 0
2, 452058, Note_on_c, 0, 51, 0
2, 452170, Note_on_c, 0, 65, 43
2, 452173, Note_on_c, 0, 57, 50
2, 452186, Note_on_c, 0, 60, 35
2, 452217, Note_on_c, 0, 50, 33
2, 452348, Control_c, 0, 64, 127
2, 452461, Note_on_c, 0, 57, 0
2, 452498, Note_on_c, 0, 60, 0
2, 452506, Note_on_c, 0, 50, 0
2, 452580, Note_on_c, 0, 65, 0
2, 453137, Note_on_c, 0, 76, 60
2, 453145, Note_on_c, 0, 69, 60
2, 453153, Note_on_c, 0, 72, 53
2, 453154, Note_on_c, 0, 65, 55
2, 453161, Note_on_c, 0, 64, 53
2, 453231, Control_c, 0, 64, 0
2, 453791, Control_c, 0, 64, 127
2, 454481, Note_on_c, 0, 65, 0
2, 454516, Note_on_c, 0, 69, 0
2, 454545, Note_on_c, 0, 72, 0
2, 454549, Note_on_c, 0, 64, 0
2, 454685, Note_on_c, 0, 76, 0
2, 455041, Control_c, 0, 64, 0
2, 455121, Note_on_c, 0, 71, 36
2, 455127, Note_on_c, 0, 76, 36
2, 455130, Note_on_c, 0, 68, 31
2, 455141, Note_on_c, 0, 65, 34
2, 455154, Note_on_c, 0, 64, 33
2, 455988, Control_c, 0, 64, 127
2, 456255, Note_on_c, 0, 65, 0
2, 456261, Note_on_c, 0, 64, 0
2, 456311, Note_on_c, 0, 68, 0
2, 456345, Note_on_c, 0, 71, 0
2, 456573, Note_on_c, 0, 76, 0
2, 456919, Note_on_c, 0, 64, 30
2, 456921, Note_on_c, 0, 74, 44
2, 456949, Note_on_c, 0, 68, 28
2, 456951, Note_on_c, 0, 65, 29
2, 456988, Note_on_c, 0, 71, 24
2, 457266, Note_on_c, 0, 65, 0
2, 457292, Note_on_c, 0, 71, 0
2, 457329, Note_on_c, 0, 64, 0
2, 457356, Note_on_c, 0, 68, 0
2, 457441, Note_on_c, 0, 74, 0
2, 457769, Control_c, 0, 64, 0
2, 457898, Note_on_c, 0, 67, 25
2, 457914, Note_on_c, 0, 76, 30
2, 457922, Note_on_c, 0, 72, 29
2, 457951, Note_on_c, 0, 56, 31
2, 457977, Note_on_c, 0, 62, 17
2, 458293, Note_on_c, 0, 67, 0
2, 458306, Note_on_c, 0, 76, 0
2, 458311, Note_on_c, 0, 56, 0
2, 458332, Note_on_c, 0, 72, 0
2, 458372, Note_on_c, 0, 62, 0
2, 458532, Note_on_c, 0, 72, 33
2, 458537, Note_on_c, 0, 76, 28
2, 458543, Note_on_c, 0, 62, 19
2, 458553, Note_on_c, 0, 67, 24
2, 458577, Note_on_c, 0, 56, 25
2, 458653, Note_on_c, 0, 56, 0
2, 458661, Note_on_c, 0, 67, 0
2, 458690, Note_on_c, 0, 62, 0
2, 458693, Note_on_c, 0, 72, 0
2, 458741, Note_on_c, 0, 76, 0
2, 460047, Control_c, 0, 64, 127
2, 460239, Control_c, 0, 64, 0
2, 460501, Note_on_c, 0, 76, 61
2, 460516, Note_on_c, 0, 56, 46
2, 460519, Note_on_c, 0, 62, 28
2, 460533, Note_on_c, 0, 67, 38
2, 460546, Note_on_c, 0, 72, 33
2, 460644, Note_on_c, 0, 72, 0
2, 460650, Note_on_c, 0, 67, 0
2, 460665, Note_on_c, 0, 62, 0
2, 460697, Note_on_c, 0, 76, 0
2, 460781, Note_on_c, 0, 56, 0
2, 460991, Note_on_c, 0, 67, 53
2, 460997, Note_on_c, 0, 73, 39
2, 460999, Note_on_c, 0, 61, 33
2, 461007, Note_on_c, 0, 77, 49
2, 461033, Note_on_c, 0, 55, 27
2, 461117, Note_on_c, 0, 67, 0
2, 461138, Note_on_c, 0, 73, 0
2, 461159, Note_on_c, 0, 61, 0
2, 461161, Note_on_c, 0, 77, 0
2, 461185, Note_on_c, 0, 55, 0
2, 461629, Note_on_c, 0, 73, 40
2, 461636, Note_on_c, 0, 77, 52
2, 461644, Note_on_c, 0, 61, 44
2, 461645, Note_on_c, 0, 67, 45
2, 461665, Note_on_c, 0, 55, 34
2, 461738, Note_on_c, 0, 67, 0
2, 461756, Note_on_c, 0, 55, 0
2, 461780, Note_on_c, 0, 61, 0
2, 461781, Note_on_c, 0, 77, 0
2, 461786, Note_on_c, 0, 73, 0
2, 462498, Note_on_c, 0, 76, 48
2, 462514, Note_on_c, 0, 73, 37
2, 462516, Note_on_c, 0, 67, 42
2, 462521, Note_on_c, 0, 61, 42
2, 462533, Note_on_c, 0, 55, 32
2, 462852, Control_c, 0, 64, 127
2, 463143, Note_on_c, 0, 67, 0
2, 463173, Note_on_c, 0, 73, 0
2, 463388, Note_on_c, 0, 76, 0
2, 463525, Control_c, 0, 64, 0
2, 463557, Note_on_c, 0, 55, 0
2, 463577, Note_on_c, 0, 61, 0
2, 463644, Note_on_c, 0, 69, 40
2, 463645, Note_on_c, 0, 64, 41
2, 463655, Note_on_c, 0, 65, 26
2, 464039, Control_c, 0, 64, 127
2, 464349, Note_on_c, 0, 64, 0
2, 464517, Note_on_c, 0, 69, 0
2, 464559, Note_on_c, 0, 60, 29
2, 464561, Note_on_c, 0, 65, 0
2, 464725, Note_on_c, 0, 60, 0
2, 465935, Note_on_c, 0, 60, 32
2, 466225, Note_on_c, 0, 60, 0
2, 466229, Note_on_c, 0, 57, 37
2, 466465, Note_on_c, 0, 57, 0
2, 466525, Control_c, 0, 64, 0
2, 466593, Note_on_c, 0, 43, 24
2, 466601, Note_on_c, 0, 59, 34
2, 466631, Note_on_c, 0, 53, 17
2, 467423, Control_c, 0, 64, 127
2, 468154, Note_on_c, 0, 62, 43
2, 468717, Note_on_c, 0, 59, 0
2, 468778, Note_on_c, 0, 62, 0
2, 469367, Note_on_c, 0, 43, 0
2, 469429, Note_on_c, 0, 53, 0
2, 469508, Note_on_c, 0, 67, 43
2, 469514, Note_on_c, 0, 64, 36
2, 469524, Note_on_c, 0, 59, 45
2, 469529, Note_on_c, 0, 62, 42
2, 469540, Control_c, 0, 64, 0
2, 470161, Note_on_c, 0, 55, 76
2, 470567, Control_c, 0, 64, 127
2, 471127, Note_on_c, 0, 43, 57
2, 471215, Note_on_c, 0, 55, 0
2, 471356, Note_on_c, 0, 43, 0
2, 471538, Note_on_c, 0, 64, 0
2, 471588, Note_on_c, 0, 62, 0
2, 471653, Note_on_c, 0, 67, 0
2, 471684, Note_on_c, 0, 59, 0
2, 472053, Note_on_c, 0, 31, 63
2, 472247, Note_on_c, 0, 31, 0
2, 472527, Control_c, 0, 64, 127
2, 472832, Control_c, 0, 64, 0
2, 472996, Note_on_c, 0, 57, 74
2, 472997, Note_on_c, 0, 64, 68
2, 473009, Note_on_c, 0, 53, 58
2, 473012, Note_on_c, 0, 60, 51
2, 473013, Note_on_c, 0, 43, 49
2, 473039, Control_c, 0, 64, 0
2, 473356, Control_c, 0, 64, 127
2, 473399, Control_c, 0, 64, 127
2, 473884, Note_on_c, 0, 60, 0
2, 473895, Note_on_c, 0, 57, 0
2, 473895, Note_on_c, 0, 43, 0
2, 473970, Note_on_c, 0, 53, 0
2, 473973, Note_on_c, 0, 64, 0
2, 474175, Control_c, 0, 64, 0
2, 474277, Note_on_c, 0, 43, 38
2, 474290, Note_on_c, 0, 53, 35
2, 474292, Note_on_c, 0, 62, 43
2, 474298, Note_on_c, 0, 56, 43
2, 474321, Note_on_c, 0, 59, 40
2, 474492, Note_on_c, 0, 56, 0
2, 474503, Note_on_c, 0, 53, 0
2, 474541, Note_on_c, 0, 59, 0
2, 474556, Note_on_c, 0, 43, 0
2, 474567, Note_on_c, 0, 62, 0
2, 476149, Control_c, 0, 64, 0
2, 476203, Note_on_c, 0, 67, 60
2, 476207, Note_on_c, 0, 64, 58
2, 476208, Note_on_c, 0, 79, 71
2, 476210, Note_on_c, 0, 74, 74
2, 476223, Note_on_c, 0, 76, 60
2, 476226, Note_on_c, 0, 62, 44
2, 476229, Note_on_c, 0, 71, 57
2, 476258, Note_on_c, 0, 72, 39
2, 476312, Note_on_c, 0, 72, 0
2, 476376, Control_c, 0, 64, 127
2, 476520, Note_on_c, 0, 71, 0
2, 476559, Note_on_c, 0, 74, 0
2, 476583, Note_on_c, 0, 76, 0
2, 476586, Note_on_c, 0, 79, 0
2, 476760, Note_on_c, 0, 62, 0
2, 476819, Note_on_c, 0, 64, 0
2, 476831, Note_on_c, 0, 67, 0
2, 477135, Note_on_c, 0, 83, 92
2, 477138, Note_on_c, 0, 74, 99
2, 477141, Note_on_c, 0, 79, 81
2, 477144, Note_on_c, 0, 76, 84
2, 477149, Note_on_c, 0, 64, 69
2, 477160, Note_on_c, 0, 67, 68
2, 477167, Note_on_c, 0, 62, 65
2, 477290, Note_on_c, 0, 67, 0
2, 477333, Note_on_c, 0, 62, 0
2, 477344, Note_on_c, 0, 64, 0
2, 477448, Note_on_c, 0, 79, 0
2, 477474, Note_on_c, 0, 83, 0
2, 477501, Note_on_c, 0, 76, 0
2, 477528, Note_on_c, 0, 74, 0
2, 477997, Control_c, 0, 64, 0
2, 478027, Note_on_c, 0, 77, 80
2, 478035, Note_on_c, 0, 69, 83
2, 478037, Note_on_c, 0, 55, 53
2, 478039, Note_on_c, 0, 57, 68
2, 478040, Note_on_c, 0, 72, 70
2, 478045, Note_on_c, 0, 74, 76
2, 478045, Note_on_c, 0, 65, 67
2, 478059, Note_on_c, 0, 60, 53
2, 478287, Control_c, 0, 64, 127
2, 479056, Note_on_c, 0, 69, 0
2, 479163, Note_on_c, 0, 74, 0
2, 479175, Note_on_c, 0, 72, 0
2, 479195, Note_on_c, 0, 77, 0
2, 479322, Note_on_c, 0, 60, 0
2, 479354, Note_on_c, 0, 57, 0
2, 479381, Note_on_c, 0, 55, 0
2, 479416, Note_on_c, 0, 65, 0
2, 479698, Note_on_c, 0, 93, 87
2, 479698, Note_on_c, 0, 81, 87
2, 479701, Note_on_c, 0, 88, 87
2, 479704, Note_on_c, 0, 65, 85
2, 479707, Note_on_c, 0, 60, 73
2, 479711, Note_on_c, 0, 57, 77
2, 479714, Note_on_c, 0, 55, 62
2, 479722, Control_c, 0, 64, 0
2, 479723, Note_on_c, 0, 91, 67
2, 479775, Note_on_c, 0, 91, 0
2, 479898, Control_c, 0, 64, 127
2, 479984, Note_on_c, 0, 81, 0
2, 480035, Note_on_c, 0, 88, 0
2, 480066, Note_on_c, 0, 93, 0
2, 480151, Note_on_c, 0, 55, 0
2, 480184, Note_on_c, 0, 60, 0
2, 480186, Note_on_c, 0, 65, 0
2, 480191, Note_on_c, 0, 57, 0
2, 480311, Note_on_c, 0, 96, 79
2, 480314, Note_on_c, 0, 65, 67
2, 480317, Note_on_c, 0, 84, 78
2, 480319, Note_on_c, 0, 91, 83
2, 480319, Note_on_c, 0, 55, 44
2, 480331, Note_on_c, 0, 60, 65
2, 480343, Note_on_c, 0, 57, 66
2, 480512, Note_on_c, 0, 57, 0
2, 480520, Note_on_c, 0, 65, 0
2, 480554, Note_on_c, 0, 91, 0
2, 480563, Note_on_c, 0, 55, 0
2, 480565, Note_on_c, 0, 60, 0
2, 480597, Note_on_c, 0, 96, 0
2, 480786, Note_on_c, 0, 84, 0
2, 480819, Control_c, 0, 64, 0
2, 480899, Note_on_c, 0, 52, 52
2, 480914, Note_on_c, 0, 59, 55
2, 480915, Note_on_c, 0, 62, 59
2, 480919, Note_on_c, 0, 55, 37
2, 480928, Note_on_c, 0, 95, 66
2, 480957, Note_on_c, 0, 88, 54
2, 480959, Note_on_c, 0, 91, 62
2, 480973, Note_on_c, 0, 83, 58
2, 481168, Control_c, 0, 64, 127
2, 481173, Note_on_c, 0, 91, 0
2, 481224, Note_on_c, 0, 95, 0
2, 481226, Note_on_c, 0, 88, 0
2, 481248, Note_on_c, 0, 83, 0
2, 481423, Note_on_c, 0, 62, 0
2, 481424, Note_on_c, 0, 52, 0
2, 481426, Note_on_c, 0, 55, 0
2, 481485, Note_on_c, 0, 59, 0
2, 481520, Control_c, 0, 64, 0
2, 481627, Note_on_c, 0, 59, 53
2, 481629, Note_on_c, 0, 52, 35
2, 481634, Note_on_c, 0, 62, 32
2, 481635, Note_on_c, 0, 91, 61
2, 481645, Note_on_c, 0, 86, 60
2, 481647, Note_on_c, 0, 55, 26
2, 481648, Note_on_c, 0, 79, 46
2, 481717, Note_on_c, 0, 62, 0
2, 481727, Note_on_c, 0, 59, 0
2, 481728, Note_on_c, 0, 55, 0
2, 481730, Note_on_c, 0, 86, 0
2, 481744, Note_on_c, 0, 79, 0
2, 481760, Note_on_c, 0, 91, 0
2, 481786, Note_on_c, 0, 52, 0
2, 482408, Note_on_c, 0, 88, 58
2, 482431, Note_on_c, 0, 62, 46
2, 482437, Note_on_c, 0, 83, 55
2, 482443, Note_on_c, 0, 52, 29
2, 482451, Note_on_c, 0, 59, 32
2, 482464, Note_on_c, 0, 55, 35
2, 482466, Note_on_c, 0, 76, 34
2, 482565, Note_on_c, 0, 88, 0
2, 482567, Note_on_c, 0, 83, 0
2, 482626, Note_on_c, 0, 76, 0
2, 482712, Control_c, 0, 64, 127
2, 482960, Note_on_c, 0, 52, 0
2, 483002, Note_on_c, 0, 55, 0
2, 483047, Note_on_c, 0, 59, 0
2, 483114, Note_on_c, 0, 62, 0
2, 483199, Note_on_c, 0, 83, 67
2, 483242, Note_on_c, 0, 71, 37
2, 483317, Note_on_c, 0, 71, 0
2, 483400, Note_on_c, 0, 83, 0
2, 483491, Note_on_c, 0, 79, 45
2, 483651, Note_on_c, 0, 79, 0
2, 483787, Control_c, 0, 64, 0
2, 483789, Note_on_c, 0, 57, 55
2, 483799, Note_on_c, 0, 55, 38
2, 483803, Note_on_c, 0, 65, 50
2, 483823, Note_on_c, 0, 60, 40
2, 484760, Note_on_c, 0, 82, 87
2, 485023, Note_on_c, 0, 80, 62
2, 485035, Note_on_c, 0, 65, 0
2, 485061, Note_on_c, 0, 60, 0
2, 485115, Note_on_c, 0, 82, 0
2, 485178, Note_on_c, 0, 57, 0
2, 485192, Note_on_c, 0, 55, 0
2, 485290, Note_on_c, 0, 75, 73
2, 485362, Note_on_c, 0, 80, 0
2, 485530, Note_on_c, 0, 71, 53
2, 485539, Note_on_c, 0, 75, 0
2, 485595, Note_on_c, 0, 64, 44
2, 485610, Note_on_c, 0, 59, 31
2, 485664, Note_on_c, 0, 53, 24
2, 485736, Note_on_c, 0, 71, 0
2, 485818, Note_on_c, 0, 70, 47
2, 485951, Note_on_c, 0, 70, 0
2, 486045, Note_on_c, 0, 69, 32
2, 486167, Note_on_c, 0, 64, 0
2, 486176, Note_on_c, 0, 53, 0
2, 486227, Note_on_c, 0, 69, 0
2, 486279, Note_on_c, 0, 68, 44
2, 486416, Note_on_c, 0, 68, 0
2, 486587, Note_on_c, 0, 64, 24
2, 486595, Note_on_c, 0, 62, 27
2, 486634, Note_on_c, 0, 52, 14
2, 486648, Note_on_c, 0, 64, 0
2, 486803, Note_on_c, 0, 67, 61
2, 487058, Note_on_c, 0, 67, 0
2, 487074, Note_on_c, 0, 64, 57
2, 487115, Note_on_c, 0, 55, 1
2, 487139, Note_on_c, 0, 64, 0
2, 487325, Note_on_c, 0, 67, 88
2, 487371, Note_on_c, 0, 62, 0
2, 487490, Note_on_c, 0, 59, 0
2, 487559, Note_on_c, 0, 67, 0
2, 487603, Note_on_c, 0, 69, 81
2, 487685, Note_on_c, 0, 62, 29
2, 487696, Note_on_c, 0, 59, 20
2, 487848, Note_on_c, 0, 62, 0
2, 487858, Note_on_c, 0, 67, 69
2, 487866, Note_on_c, 0, 69, 0
2, 488192, Note_on_c, 0, 67, 0
2, 488285, Note_on_c, 0, 59, 0
2, 488312, Note_on_c, 0, 55, 0
2, 488341, Note_on_c, 0, 67, 71
2, 488531, Note_on_c, 0, 59, 30
2, 488551, Note_on_c, 0, 67, 0
2, 488559, Note_on_c, 0, 62, 28
2, 488599, Note_on_c, 0, 55, 16
2, 488752, Note_on_c, 0, 67, 75
2, 488856, Note_on_c, 0, 62, 0
2, 488981, Note_on_c, 0, 67, 0
2, 488991, Note_on_c, 0, 59, 0
2, 489000, Note_on_c, 0, 69, 58
2, 489008, Note_on_c, 0, 55, 0
2, 489011, Note_on_c, 0, 52, 0
2, 489144, Control_c, 0, 64, 127
2, 489293, Note_on_c, 0, 67, 76
2, 489359, Note_on_c, 0, 69, 0
2, 489370, Control_c, 0, 64, 0
2, 489658, Control_c, 0, 64, 127
2, 490850, Note_on_c, 0, 67, 0
2, 491101, Control_c, 0, 64, 0
2, 491128, Note_on_c, 0, 71, 73
2, 491135, Note_on_c, 0, 67, 71
2, 491146, Note_on_c, 0, 63, 74
2, 491173, Note_on_c, 0, 53, 62
2, 491359, Control_c, 0, 64, 127
2, 491375, Note_on_c, 0, 63, 0
2, 491514, Note_on_c, 0, 71, 0
2, 491570, Note_on_c, 0, 53, 0
2, 491605, Note_on_c, 0, 67, 0
2, 491685, Note_on_c, 0, 74, 80
2, 492199, Note_on_c, 0, 74, 0
2, 492274, Control_c, 0, 64, 0
2, 492365, Note_on_c, 0, 62, 48
2, 492373, Note_on_c, 0, 70, 56
2, 492376, Note_on_c, 0, 52, 40
2, 492378, Note_on_c, 0, 67, 54
2, 492389, Note_on_c, 0, 58, 47
2, 492610, Control_c, 0, 64, 127
2, 492632, Note_on_c, 0, 62, 0
2, 492666, Note_on_c, 0, 52, 0
2, 492712, Note_on_c, 0, 58, 0
2, 492808, Note_on_c, 0, 67, 0
2, 492875, Note_on_c, 0, 70, 0
2, 493429, Control_c, 0, 64, 0
2, 493431, Note_on_c, 0, 67, 74
2, 493434, Note_on_c, 0, 62, 68
2, 493447, Note_on_c, 0, 56, 80
2, 494437, Note_on_c, 0, 79, 67
2, 494570, Note_on_c, 0, 79, 0
2, 494741, Note_on_c, 0, 81, 75
2, 494883, Note_on_c, 0, 81, 0
2, 494898, Note_on_c, 0, 62, 0
2, 494965, Note_on_c, 0, 67, 0
2, 495045, Note_on_c, 0, 82, 88
2, 495213, Note_on_c, 0, 56, 0
2, 495264, Note_on_c, 0, 82, 0
2, 495358, Note_on_c, 0, 81, 78
2, 495387, Note_on_c, 0, 61, 39
2, 495389, Note_on_c, 0, 65, 48
2, 495390, Note_on_c, 0, 55, 36
2, 495597, Note_on_c, 0, 81, 0
2, 495614, Note_on_c, 0, 82, 46
2, 495746, Note_on_c, 0, 81, 60
2, 495832, Note_on_c, 0, 82, 0
2, 495957, Note_on_c, 0, 79, 55
2, 495971, Note_on_c, 0, 81, 0
2, 496085, Note_on_c, 0, 79, 0
2, 496208, Note_on_c, 0, 77, 70
2, 496403, Note_on_c, 0, 77, 0
2, 496496, Note_on_c, 0, 76, 50
2, 496613, Note_on_c, 0, 76, 0
2, 496750, Note_on_c, 0, 65, 0
2, 496944, Note_on_c, 0, 74, 45
2, 496957, Note_on_c, 0, 76, 51
2, 497018, Note_on_c, 0, 76, 0
2, 497056, Note_on_c, 0, 74, 0
2, 497250, Note_on_c, 0, 73, 62
2, 497291, Note_on_c, 0, 75, 55
2, 497594, Note_on_c, 0, 61, 0
2, 497650, Note_on_c, 0, 55, 0
2, 497758, Control_c, 0, 64, 127
2, 497816, Note_on_c, 0, 73, 0
2, 497821, Note_on_c, 0, 69, 51
2, 497843, Note_on_c, 0, 75, 0
2, 498110, Note_on_c, 0, 69, 0
2, 498144, Control_c, 0, 64, 0
2, 498176, Note_on_c, 0, 50, 43
2, 498184, Note_on_c, 0, 76, 70
2, 498442, Note_on_c, 0, 50, 0
2, 498493, Note_on_c, 0, 65, 45
2, 498646, Note_on_c, 0, 76, 0
2, 498717, Note_on_c, 0, 65, 0
2, 498720, Control_c, 0, 64, 127
2, 498784, Control_c, 0, 64, 0
2, 498822, Note_on_c, 0, 69, 62
2, 498870, Note_on_c, 0, 57, 59
2, 498992, Note_on_c, 0, 69, 0
2, 499150, Note_on_c, 0, 72, 63
2, 499174, Note_on_c, 0, 65, 66
2, 499179, Note_on_c, 0, 62, 48
2, 499206, Note_on_c, 0, 60, 46
2, 499211, Note_on_c, 0, 57, 0
2, 499266, Control_c, 0, 64, 127
2, 499518, Note_on_c, 0, 72, 0
2, 499520, Note_on_c, 0, 65, 0
2, 499566, Note_on_c, 0, 62, 0
2, 499784, Note_on_c, 0, 60, 0
2, 500019, Control_c, 0, 64, 0
2, 500102, Note_on_c, 0, 69, 53
2, 500117, Note_on_c, 0, 62, 51
2, 500123, Note_on_c, 0, 57, 39
2, 500130, Note_on_c, 0, 60, 43
2, 500144, Note_on_c, 0, 65, 40
2, 500215, Note_on_c, 0, 65, 0
2, 500223, Note_on_c, 0, 57, 0
2, 500263, Note_on_c, 0, 69, 0
2, 500296, Note_on_c, 0, 62, 0
2, 500298, Note_on_c, 0, 60, 0
2, 500731, Note_on_c, 0, 65, 54
2, 500736, Note_on_c, 0, 50, 34
2, 500747, Note_on_c, 0, 60, 45
2, 500752, Note_on_c, 0, 57, 52
2, 500773, Note_on_c, 0, 62, 35
2, 500787, Control_c, 0, 64, 127
2, 500885, Note_on_c, 0, 57, 0
2, 500933, Note_on_c, 0, 60, 0
2, 501013, Note_on_c, 0, 62, 0
2, 501029, Note_on_c, 0, 65, 0
2, 501077, Control_c, 0, 64, 0
2, 501106, Note_on_c, 0, 50, 0
2, 501122, Note_on_c, 0, 43, 32
2, 501159, Note_on_c, 0, 64, 44
2, 501165, Note_on_c, 0, 53, 38
2, 501178, Note_on_c, 0, 56, 36
2, 501191, Note_on_c, 0, 62, 27
2, 501194, Note_on_c, 0, 59, 37
2, 501295, Note_on_c, 0, 62, 0
2, 501493, Control_c, 0, 64, 127
2, 501813, Note_on_c, 0, 53, 0
2, 501885, Note_on_c, 0, 56, 0
2, 502007, Control_c, 0, 64, 0
2, 502087, Note_on_c, 0, 56, 46
2, 502098, Note_on_c, 0, 62, 40
2, 502128, Note_on_c, 0, 53, 28
2, 502183, Control_c, 0, 64, 127
2, 502440, Note_on_c, 0, 56, 0
2, 502554, Note_on_c, 0, 43, 0
2, 502698, Note_on_c, 0, 59, 0
2, 502711, Note_on_c, 0, 62, 0
2, 502771, Note_on_c, 0, 53, 0
2, 502831, Note_on_c, 0, 64, 0
2, 503053, Note_on_c, 0, 43, 34
2, 503130, Note_on_c, 0, 43, 0
2, 503661, Note_on_c, 0, 67, 40
2, 503842, Note_on_c, 0, 67, 0
2, 504013, Control_c, 0, 64, 0
2, 504021, Note_on_c, 0, 76, 73
2, 504027, Note_on_c, 0, 62, 58
2, 504029, Note_on_c, 0, 56, 72
2, 504031, Note_on_c, 0, 72, 74
2, 504042, Note_on_c, 0, 67, 70
2, 504232, Note_on_c, 0, 67, 0
2, 504274, Note_on_c, 0, 72, 0
2, 504293, Note_on_c, 0, 76, 0
2, 504296, Note_on_c, 0, 56, 0
2, 504367, Note_on_c, 0, 77, 69
2, 504383, Note_on_c, 0, 74, 59
2, 504399, Note_on_c, 0, 69, 54
2, 504418, Control_c, 0, 64, 127
2, 504520, Note_on_c, 0, 69, 0
2, 504565, Note_on_c, 0, 77, 0
2, 504579, Control_c, 0, 64, 0
2, 504581, Note_on_c, 0, 62, 0
2, 504583, Note_on_c, 0, 74, 0
2, 504687, Note_on_c, 0, 62, 64
2, 504690, Note_on_c, 0, 76, 54
2, 504691, Note_on_c, 0, 56, 74
2, 504693, Note_on_c, 0, 72, 64
2, 504699, Note_on_c, 0, 67, 72
2, 505011, Control_c, 0, 64, 127
2, 505251, Note_on_c, 0, 67, 0
2, 505263, Note_on_c, 0, 72, 0
2, 505275, Note_on_c, 0, 56, 0
2, 505295, Note_on_c, 0, 62, 0
2, 505306, Note_on_c, 0, 76, 0
2, 505418, Note_on_c, 0, 76, 68
2, 505423, Note_on_c, 0, 72, 60
2, 505429, Note_on_c, 0, 62, 54
2, 505437, Note_on_c, 0, 56, 51
2, 505439, Note_on_c, 0, 67, 36
2, 505514, Note_on_c, 0, 67, 0
2, 505594, Note_on_c, 0, 56, 0
2, 505610, Note_on_c, 0, 72, 0
2, 505624, Note_on_c, 0, 76, 0
2, 505651, Note_on_c, 0, 62, 0
2, 505699, Note_on_c, 0, 77, 72
2, 505711, Note_on_c, 0, 74, 71
2, 505741, Note_on_c, 0, 69, 55
2, 505821, Note_on_c, 0, 69, 0
2, 505831, Control_c, 0, 64, 0
2, 505906, Note_on_c, 0, 77, 0
2, 505931, Note_on_c, 0, 74, 0
2, 506035, Note_on_c, 0, 76, 66
2, 506035, Note_on_c, 0, 62, 59
2, 506035, Note_on_c, 0, 56, 74
2, 506039, Note_on_c, 0, 72, 69
2, 506053, Note_on_c, 0, 67, 68
2, 506120, Control_c, 0, 64, 127
2, 506413, Note_on_c, 0, 62, 0
2, 506475, Note_on_c, 0, 72, 0
2, 506491, Note_on_c, 0, 76, 0
2, 506555, Note_on_c, 0, 67, 0
2, 506587, Note_on_c, 0, 56, 0
2, 506853, Control_c, 0, 64, 0
2, 506944, Note_on_c, 0, 72, 58
2, 506947, Note_on_c, 0, 67, 55
2, 506954, Note_on_c, 0, 64, 58
2, 506976, Note_on_c, 0, 57, 53
2, 506989, Note_on_c, 0, 60, 52
2, 507095, Control_c, 0, 64, 127
2, 507263, Note_on_c, 0, 67, 0
2, 507279, Note_on_c, 0, 72, 0
2, 507290, Note_on_c, 0, 64, 0
2, 507375, Note_on_c, 0, 60, 0
2, 507498, Note_on_c, 0, 57, 0
2, 507821, Note_on_c, 0, 59, 22
2, 507832, Control_c, 0, 64, 0
2, 507880, Note_on_c, 0, 71, 79
2, 507882, Note_on_c, 0, 74, 79
2, 507885, Note_on_c, 0, 68, 83
2, 507890, Note_on_c, 0, 65, 85
2, 507915, Note_on_c, 0, 62, 71
2, 507930, Note_on_c, 0, 72, 37
2, 508002, Note_on_c, 0, 72, 0
2, 508013, Note_on_c, 0, 59, 0
2, 508184, Control_c, 0, 64, 127
2, 508325, Note_on_c, 0, 71, 0
2, 508352, Note_on_c, 0, 68, 0
2, 508384, Note_on_c, 0, 74, 0
2, 508395, Note_on_c, 0, 65, 0
2, 508474, Control_c, 0, 64, 0
2, 508503, Note_on_c, 0, 72, 62
2, 508511, Note_on_c, 0, 67, 71
2, 508522, Note_on_c, 0, 64, 66
2, 508535, Note_on_c, 0, 57, 66
2, 508600, Note_on_c, 0, 62, 0
2, 508738, Note_on_c, 0, 67, 0
2, 508792, Note_on_c, 0, 64, 0
2, 508819, Note_on_c, 0, 72, 0
2, 508994, Note_on_c, 0, 68, 56
2, 509021, Note_on_c, 0, 56, 55
2, 509024, Note_on_c, 0, 62, 38
2, 509034, Note_on_c, 0, 71, 50
2, 509048, Note_on_c, 0, 57, 0
2, 509197, Control_c, 0, 64, 127
2, 509231, Note_on_c, 0, 62, 0
2, 509379, Note_on_c, 0, 68, 0
2, 509474, Note_on_c, 0, 72, 70
2, 509482, Note_on_c, 0, 56, 0
2, 509511, Note_on_c, 0, 57, 60
2, 509514, Note_on_c, 0, 71, 0
2, 509519, Note_on_c, 0, 64, 38
2, 509530, Note_on_c, 0, 67, 34
2, 509658, Note_on_c, 0, 64, 0
2, 509667, Note_on_c, 0, 72, 0
2, 509672, Note_on_c, 0, 67, 0
2, 509755, Note_on_c, 0, 57, 0
2, 509823, Control_c, 0, 64, 0
2, 509893, Note_on_c, 0, 64, 63
2, 509919, Note_on_c, 0, 60, 39
2, 509946, Note_on_c, 0, 54, 57
2, 509952, Note_on_c, 0, 69, 44
2, 510352, Control_c, 0, 64, 127
2, 510533, Note_on_c, 0, 54, 0
2, 510551, Note_on_c, 0, 60, 0
2, 510627, Note_on_c, 0, 50, 49
2, 510637, Note_on_c, 0, 64, 0
2, 510709, Note_on_c, 0, 69, 0
2, 510781, Note_on_c, 0, 50, 0
2, 511315, Control_c, 0, 64, 0
2, 511338, Note_on_c, 0, 60, 56
2, 511347, Note_on_c, 0, 88, 80
2, 511355, Note_on_c, 0, 54, 67
2, 511357, Note_on_c, 0, 81, 74
2, 511360, Note_on_c, 0, 84, 63
2, 511362, Note_on_c, 0, 76, 80
2, 511363, Note_on_c, 0, 64, 79
2, 511378, Note_on_c, 0, 57, 56
2, 511416, Note_on_c, 0, 86, 30
2, 511507, Note_on_c, 0, 86, 0
2, 511640, Control_c, 0, 64, 127
2, 511642, Note_on_c, 0, 76, 0
2, 511655, Note_on_c, 0, 81, 0
2, 511717, Note_on_c, 0, 84, 0
2, 511720, Note_on_c, 0, 88, 0
2, 511722, Note_on_c, 0, 64, 0
2, 511736, Note_on_c, 0, 54, 0
2, 511781, Note_on_c, 0, 57, 0
2, 511783, Note_on_c, 0, 60, 0
2, 511880, Control_c, 0, 64, 0
2, 511920, Note_on_c, 0, 54, 65
2, 511925, Note_on_c, 0, 64, 63
2, 511927, Note_on_c, 0, 93, 84
2, 511928, Note_on_c, 0, 60, 65
2, 511931, Note_on_c, 0, 81, 77
2, 511935, Note_on_c, 0, 88, 71
2, 511938, Note_on_c, 0, 57, 60
2, 511997, Control_c, 0, 64, 127
2, 512173, Note_on_c, 0, 81, 0
2, 512242, Note_on_c, 0, 88, 0
2, 512271, Note_on_c, 0, 93, 0
2, 512328, Note_on_c, 0, 54, 0
2, 512352, Note_on_c, 0, 64, 0
2, 512368, Note_on_c, 0, 60, 0
2, 512383, Note_on_c, 0, 57, 0
2, 512491, Control_c, 0, 64, 0
2, 512563, Note_on_c, 0, 96, 65
2, 512565, Note_on_c, 0, 91, 68
2, 512568, Note_on_c, 0, 54, 67
2, 512583, Note_on_c, 0, 84, 62
2, 512584, Note_on_c, 0, 64, 62
2, 512589, Note_on_c, 0, 60, 40
2, 512603, Note_on_c, 0, 57, 50
2, 512698, Control_c, 0, 64, 127
2, 512821, Note_on_c, 0, 84, 0
2, 512875, Note_on_c, 0, 91, 0
2, 512909, Note_on_c, 0, 96, 0
2, 513029, Note_on_c, 0, 57, 0
2, 513040, Note_on_c, 0, 64, 0
2, 513055, Note_on_c, 0, 60, 0
2, 513058, Note_on_c, 0, 54, 0
2, 513229, Control_c, 0, 64, 0
2, 513266, Note_on_c, 0, 100, 68
2, 513277, Note_on_c, 0, 54, 67
2, 513285, Note_on_c, 0, 88, 54
2, 513287, Note_on_c, 0, 95, 65
2, 513290, Note_on_c, 0, 64, 62
2, 513298, Note_on_c, 0, 60, 46
2, 513311, Note_on_c, 0, 57, 58
2, 513517, Control_c, 0, 64, 127
2, 513666, Note_on_c, 0, 100, 0
2, 513695, Note_on_c, 0, 88, 0
2, 513717, Note_on_c, 0, 95, 0
2, 513741, Note_on_c, 0, 57, 0
2, 513752, Note_on_c, 0, 64, 0
2, 513760, Note_on_c, 0, 54, 0
2, 513775, Note_on_c, 0, 60, 0
2, 513912, Note_on_c, 0, 54, 50
2, 513915, Note_on_c, 0, 98, 58
2, 513919, Note_on_c, 0, 64, 48
2, 513925, Note_on_c, 0, 93, 67
2, 513930, Note_on_c, 0, 60, 47
2, 513931, Note_on_c, 0, 86, 54
2, 513954, Note_on_c, 0, 57, 49
2, 514210, Note_on_c, 0, 93, 0
2, 514239, Note_on_c, 0, 86, 0
2, 514258, Note_on_c, 0, 98, 0
2, 514307, Note_on_c, 0, 57, 0
2, 514315, Note_on_c, 0, 54, 0
2, 514336, Note_on_c, 0, 64, 0
2, 514351, Note_on_c, 0, 60, 0
2, 514384, Control_c, 0, 64, 0
2, 514539, Note_on_c, 0, 96, 60
2, 514549, Note_on_c, 0, 64, 53
2, 514551, Note_on_c, 0, 60, 38
2, 514568, Note_on_c, 0, 91, 60
2, 514568, Note_on_c, 0, 54, 51
2, 514573, Note_on_c, 0, 84, 41
2, 514575, Note_on_c, 0, 57, 47
2, 514579, Control_c, 0, 64, 127
2, 514829, Note_on_c, 0, 84, 0
2, 514842, Note_on_c, 0, 91, 0
2, 514845, Note_on_c, 0, 57, 0
2, 514856, Note_on_c, 0, 96, 0
2, 514867, Note_on_c, 0, 60, 0
2, 514911, Note_on_c, 0, 54, 0
2, 514978, Note_on_c, 0, 64, 0
2, 515202, Control_c, 0, 64, 0
2, 515237, Note_on_c, 0, 94, 71
2, 515240, Note_on_c, 0, 61, 60
2, 515242, Note_on_c, 0, 58, 67
2, 515243, Note_on_c, 0, 54, 64
2, 515245, Note_on_c, 0, 82, 71
2, 515248, Note_on_c, 0, 65, 68
2, 515264, Note_on_c, 0, 89, 56
2, 515507, Control_c, 0, 64, 127
2, 515640, Note_on_c, 0, 94, 0
2, 515685, Note_on_c, 0, 58, 0
2, 515693, Note_on_c, 0, 65, 0
2, 515696, Note_on_c, 0, 82, 0
2, 515699, Note_on_c, 0, 54, 0
2, 515699, Note_on_c, 0, 89, 0
2, 515704, Note_on_c, 0, 61, 0
2, 515851, Note_on_c, 0, 92, 60
2, 515858, Note_on_c, 0, 54, 44
2, 515861, Note_on_c, 0, 65, 59
2, 515866, Note_on_c, 0, 80, 50
2, 515867, Note_on_c, 0, 61, 55
2, 515882, Note_on_c, 0, 58, 63
2, 515895, Note_on_c, 0, 87, 57
2, 516277, Note_on_c, 0, 92, 0
2, 516304, Note_on_c, 0, 58, 0
2, 516325, Note_on_c, 0, 54, 0
2, 516336, Note_on_c, 0, 65, 0
2, 516352, Note_on_c, 0, 80, 0
2, 516357, Note_on_c, 0, 61, 0
2, 516360, Note_on_c, 0, 87, 0
2, 516405, Control_c, 0, 64, 0
2, 516523, Note_on_c, 0, 90, 51
2, 516530, Note_on_c, 0, 61, 52
2, 516535, Note_on_c, 0, 54, 50
2, 516536, Note_on_c, 0, 65, 53
2, 516549, Note_on_c, 0, 78, 44
2, 516552, Note_on_c, 0, 58, 59
2, 516562, Note_on_c, 0, 85, 57
2, 516583, Control_c, 0, 64, 127
2, 516912, Note_on_c, 0, 78, 0
2, 516914, Note_on_c, 0, 90, 0
2, 516941, Note_on_c, 0, 58, 0
2, 516946, Note_on_c, 0, 65, 0
2, 516976, Note_on_c, 0, 61, 0
2, 516981, Note_on_c, 0, 54, 0
2, 517013, Note_on_c, 0, 85, 0
2, 517096, Control_c, 0, 64, 0
2, 517171, Note_on_c, 0, 61, 51
2, 517173, Note_on_c, 0, 89, 51
2, 517178, Note_on_c, 0, 54, 44
2, 517184, Note_on_c, 0, 65, 51
2, 517187, Note_on_c, 0, 84, 60
2, 517189, Note_on_c, 0, 77, 48
2, 517191, Note_on_c, 0, 58, 59
2, 517359, Control_c, 0, 64, 127
2, 517365, Note_on_c, 0, 89, 0
2, 517440, Note_on_c, 0, 77, 0
2, 517445, Note_on_c, 0, 84, 0
2, 517490, Note_on_c, 0, 65, 0
2, 517491, Note_on_c, 0, 58, 0
2, 517501, Note_on_c, 0, 54, 0
2, 517528, Note_on_c, 0, 61, 0
2, 517738, Note_on_c, 0, 61, 43
2, 517757, Note_on_c, 0, 54, 50
2, 517759, Note_on_c, 0, 65, 44
2, 517768, Note_on_c, 0, 58, 55
2, 517776, Note_on_c, 0, 82, 47
2, 517786, Note_on_c, 0, 87, 30
2, 517786, Note_on_c, 0, 75, 42
2, 518007, Note_on_c, 0, 87, 0
2, 518035, Note_on_c, 0, 65, 0
2, 518039, Note_on_c, 0, 75, 0
2, 518042, Note_on_c, 0, 54, 0
2, 518053, Note_on_c, 0, 82, 0
2, 518160, Note_on_c, 0, 58, 0
2, 518208, Control_c, 0, 64, 0
2, 518215, Note_on_c, 0, 61, 0
2, 518368, Note_on_c, 0, 57, 54
2, 518368, Note_on_c, 0, 65, 56
2, 518373, Note_on_c, 0, 86, 59
2, 518375, Note_on_c, 0, 55, 38
2, 518391, Note_on_c, 0, 60, 41
2, 518392, Note_on_c, 0, 74, 42
2, 518394, Note_on_c, 0, 81, 50
2, 518480, Control_c, 0, 64, 127
2, 518631, Note_on_c, 0, 81, 0
2, 518664, Note_on_c, 0, 86, 0
2, 518771, Note_on_c, 0, 74, 0
2, 518823, Note_on_c, 0, 55, 0
2, 518829, Note_on_c, 0, 65, 0
2, 518840, Note_on_c, 0, 60, 0
2, 518853, Note_on_c, 0, 57, 0
2, 519005, Control_c, 0, 64, 0
2, 519079, Note_on_c, 0, 55, 32
2, 519087, Note_on_c, 0, 84, 57
2, 519090, Note_on_c, 0, 65, 38
2, 519093, Note_on_c, 0, 60, 34
2, 519095, Note_on_c, 0, 57, 44
2, 519125, Note_on_c, 0, 79, 48
2, 519130, Note_on_c, 0, 72, 37
2, 519325, Control_c, 0, 64, 127
2, 519530, Note_on_c, 0, 79, 0
2, 519546, Note_on_c, 0, 84, 0
2, 519570, Note_on_c, 0, 60, 0
2, 519595, Note_on_c, 0, 65, 0
2, 519635, Note_on_c, 0, 72, 0
2, 519653, Note_on_c, 0, 55, 0
2, 519655, Note_on_c, 0, 57, 0
2, 519922, Control_c, 0, 64, 0
2, 519936, Note_on_c, 0, 59, 41
2, 519939, Note_on_c, 0, 71, 50
2, 519951, Note_on_c, 0, 83, 44
2, 519954, Note_on_c, 0, 64, 42
2, 519967, Note_on_c, 0, 76, 47
2, 519975, Note_on_c, 0, 53, 34
2, 519978, Note_on_c, 0, 79, 44
2, 520243, Control_c, 0, 64, 127
2, 520530, Note_on_c, 0, 64, 0
2, 520571, Note_on_c, 0, 53, 0
2, 520610, Note_on_c, 0, 59, 0
2, 520699, Note_on_c, 0, 83, 0
2, 520714, Note_on_c, 0, 79, 0
2, 520727, Note_on_c, 0, 71, 0
2, 520755, Note_on_c, 0, 76, 0
2, 520915, Note_on_c, 0, 53, 19
2, 520952, Note_on_c, 0, 59, 24
2, 520997, Note_on_c, 0, 53, 0
2, 521082, Note_on_c, 0, 59, 0
2, 521141, Control_c, 0, 64, 0
2, 521219, Note_on_c, 0, 59, 16
2, 521221, Note_on_c, 0, 79, 48
2, 521229, Note_on_c, 0, 74, 48
2, 521240, Note_on_c, 0, 67, 35
2, 521250, Note_on_c, 0, 52, 26
2, 521251, Note_on_c, 0, 55, 29
2, 521271, Note_on_c, 0, 62, 22
2, 521447, Control_c, 0, 64, 127
2, 521602, Note_on_c, 0, 67, 0
2, 521661, Note_on_c, 0, 74, 0
2, 521663, Note_on_c, 0, 79, 0
2, 521779, Note_on_c, 0, 62, 0
2, 521783, Note_on_c, 0, 55, 0
2, 521791, Note_on_c, 0, 52, 0
2, 521879, Note_on_c, 0, 59, 0
2, 522240, Note_on_c, 0, 76, 83
2, 522243, Note_on_c, 0, 83, 81
2, 522248, Note_on_c, 0, 62, 76
2, 522250, Note_on_c, 0, 59, 73
2, 522251, Note_on_c, 0, 71, 74
2, 522256, Note_on_c, 0, 79, 64
2, 522259, Note_on_c, 0, 52, 68
2, 522277, Note_on_c, 0, 55, 42
2, 522434, Note_on_c, 0, 71, 0
2, 522482, Note_on_c, 0, 62, 0
2, 522506, Note_on_c, 0, 76, 0
2, 522519, Note_on_c, 0, 79, 0
2, 522552, Note_on_c, 0, 83, 0
2, 522634, Note_on_c, 0, 55, 0
2, 522639, Note_on_c, 0, 59, 0
2, 522663, Note_on_c, 0, 52, 0
2, 523115, Control_c, 0, 64, 0
2, 523203, Note_on_c, 0, 59, 74
2, 523211, Note_on_c, 0, 52, 66
2, 523216, Note_on_c, 0, 86, 81
2, 523219, Note_on_c, 0, 55, 44
2, 523223, Note_on_c, 0, 74, 84
2, 523224, Note_on_c, 0, 83, 77
2, 523226, Note_on_c, 0, 62, 69
2, 523227, Note_on_c, 0, 79, 80
2, 523287, Note_on_c, 0, 76, 24
2, 523296, Control_c, 0, 64, 127
2, 523346, Note_on_c, 0, 76, 0
2, 523466, Note_on_c, 0, 52, 0
2, 523487, Note_on_c, 0, 55, 0
2, 523491, Note_on_c, 0, 83, 0
2, 523495, Note_on_c, 0, 86, 0
2, 523499, Note_on_c, 0, 62, 0
2, 523525, Note_on_c, 0, 74, 0
2, 523536, Note_on_c, 0, 79, 0
2, 523539, Note_on_c, 0, 59, 0
2, 524162, Control_c, 0, 64, 0
2, 524187, Note_on_c, 0, 77, 80
2, 524191, Note_on_c, 0, 57, 73
2, 524194, Note_on_c, 0, 65, 77
2, 524195, Note_on_c, 0, 72, 79
2, 524199, Note_on_c, 0, 69, 87
2, 524200, Note_on_c, 0, 74, 73
2, 524202, Note_on_c, 0, 60, 64
2, 524339, Note_on_c, 0, 69, 0
2, 524495, Note_on_c, 0, 60, 0
2, 524506, Note_on_c, 0, 69, 52
2, 524514, Note_on_c, 0, 72, 0
2, 524520, Note_on_c, 0, 74, 0
2, 524549, Note_on_c, 0, 57, 0
2, 524656, Note_on_c, 0, 74, 39
2, 524677, Note_on_c, 0, 69, 0
2, 524688, Note_on_c, 0, 72, 37
2, 524824, Note_on_c, 0, 65, 0
2, 524827, Note_on_c, 0, 69, 35
2, 524848, Note_on_c, 0, 77, 0
2, 524869, Note_on_c, 0, 74, 0
2, 524882, Note_on_c, 0, 72, 0
2, 524984, Note_on_c, 0, 77, 10
2, 525005, Note_on_c, 0, 72, 30
2, 525008, Note_on_c, 0, 74, 40
2, 525019, Note_on_c, 0, 69, 0
2, 525160, Note_on_c, 0, 69, 38
2, 525184, Note_on_c, 0, 74, 0
2, 525192, Note_on_c, 0, 65, 83
2, 525200, Note_on_c, 0, 72, 0
2, 525354, Note_on_c, 0, 72, 30
2, 525355, Note_on_c, 0, 69, 0
2, 525362, Note_on_c, 0, 74, 24
2, 525469, Note_on_c, 0, 74, 0
2, 525487, Note_on_c, 0, 69, 32
2, 525488, Note_on_c, 0, 72, 0
2, 525675, Note_on_c, 0, 69, 0
2, 525682, Note_on_c, 0, 72, 34
2, 525698, Note_on_c, 0, 74, 33
2, 525784, Note_on_c, 0, 72, 0
2, 525787, Note_on_c, 0, 74, 0
2, 525811, Note_on_c, 0, 69, 33
2, 525991, Note_on_c, 0, 69, 0
2, 525995, Note_on_c, 0, 72, 38
2, 526021, Note_on_c, 0, 74, 33
2, 526093, Note_on_c, 0, 72, 0
2, 526104, Note_on_c, 0, 74, 0
2, 526139, Note_on_c, 0, 69, 39
2, 526298, Note_on_c, 0, 69, 0
2, 526299, Control_c, 0, 64, 127
2, 526303, Note_on_c, 0, 72, 41
2, 526354, Note_on_c, 0, 74, 26
2, 526479, Note_on_c, 0, 74, 0
2, 526488, Note_on_c, 0, 69, 32
2, 526512, Note_on_c, 0, 72, 0
2, 526659, Note_on_c, 0, 72, 22
2, 526707, Note_on_c, 0, 74, 19
2, 526735, Note_on_c, 0, 61, 30
2, 526747, Note_on_c, 0, 60, 22
2, 526816, Note_on_c, 0, 65, 0
2, 526819, Note_on_c, 0, 69, 0
2, 526864, Note_on_c, 0, 72, 0
2, 526896, Note_on_c, 0, 62, 44
2, 526920, Note_on_c, 0, 61, 0
2, 526943, Control_c, 0, 64, 0
2, 526951, Note_on_c, 0, 77, 0
2, 526991, Note_on_c, 0, 60, 0
2, 526995, Note_on_c, 0, 74, 0
2, 527069, Note_on_c, 0, 76, 32
2, 527079, Note_on_c, 0, 67, 40
2, 527093, Note_on_c, 0, 71, 37
2, 527098, Note_on_c, 0, 62, 0
2, 527104, Note_on_c, 0, 64, 59
2, 527248, Control_c, 0, 64, 127
2, 527387, Note_on_c, 0, 71, 0
2, 527424, Note_on_c, 0, 76, 0
2, 527487, Note_on_c, 0, 67, 0
2, 527615, Control_c, 0, 64, 0
2, 527672, Note_on_c, 0, 71, 47
2, 527675, Note_on_c, 0, 64, 0
2, 527731, Note_on_c, 0, 62, 33
2, 527735, Note_on_c, 0, 67, 34
2, 527858, Note_on_c, 0, 71, 0
2, 527867, Note_on_c, 0, 67, 0
2, 527911, Note_on_c, 0, 62, 0
2, 528109, Note_on_c, 0, 55, 40
2, 528138, Note_on_c, 0, 69, 38
2, 528159, Note_on_c, 0, 64, 24
2, 528194, Control_c, 0, 64, 127
2, 528245, Note_on_c, 0, 64, 0
2, 528311, Note_on_c, 0, 69, 0
2, 528803, Control_c, 0, 64, 0
2, 528912, Note_on_c, 0, 55, 0
2, 528954, Note_on_c, 0, 67, 45
2, 528978, Note_on_c, 0, 62, 37
2, 528984, Note_on_c, 0, 59, 43
2, 528989, Note_on_c, 0, 64, 28
2, 528994, Note_on_c, 0, 52, 34
2, 529077, Control_c, 0, 64, 127
2, 529183, Note_on_c, 0, 52, 0
2, 529251, Note_on_c, 0, 64, 0
2, 529306, Note_on_c, 0, 62, 0
2, 529407, Note_on_c, 0, 67, 0
2, 529456, Note_on_c, 0, 59, 0
2, 529767, Control_c, 0, 64, 0
2, 529875, Note_on_c, 0, 65, 32
2, 529895, Note_on_c, 0, 60, 39
2, 529896, Note_on_c, 0, 57, 40
2, 529909, Note_on_c, 0, 43, 32
2, 529917, Note_on_c, 0, 62, 30
2, 530531, Note_on_c, 0, 31, 68
2, 530683, Note_on_c, 0, 57, 0
2, 530808, Control_c, 0, 64, 127
2, 530864, Note_on_c, 0, 60, 0
2, 530947, Note_on_c, 0, 62, 0
2, 531003, Note_on_c, 0, 65, 0
2, 531213, Note_on_c, 0, 43, 0
2, 531447, Note_on_c, 0, 43, 53
2, 531655, Note_on_c, 0, 31, 0
2, 531733, Note_on_c, 0, 43, 0
2, 531824, Note_on_c, 0, 64, 110
2, 531963, Note_on_c, 0, 64, 0
2, 532135, Note_on_c, 0, 64, 77
2, 532323, Note_on_c, 0, 64, 0
2, 532455, Note_on_c, 0, 65, 87
2, 532715, Note_on_c, 0, 65, 0
2, 532781, Control_c, 0, 64, 0
2, 532795, Note_on_c, 0, 64, 57
2, 532799, Note_on_c, 0, 55, 34
2, 532802, Note_on_c, 0, 67, 51
2, 532803, Note_on_c, 0, 48, 45
2, 533149, Control_c, 0, 64, 127
2, 533227, Note_on_c, 0, 67, 0
2, 533229, Note_on_c, 0, 64, 0
2, 533578, Note_on_c, 0, 55, 0
2, 533738, Note_on_c, 0, 71, 58
2, 533741, Note_on_c, 0, 55, 34
2, 533743, Note_on_c, 0, 64, 68
2, 533757, Note_on_c, 0, 67, 50
2, 533762, Note_on_c, 0, 62, 57
2, 533907, Note_on_c, 0, 62, 0
2, 533947, Note_on_c, 0, 64, 0
2, 533984, Note_on_c, 0, 67, 0
2, 534018, Note_on_c, 0, 71, 0
2, 534674, Control_c, 0, 64, 0
2, 534723, Note_on_c, 0, 74, 60
2, 534730, Note_on_c, 0, 71, 57
2, 534731, Note_on_c, 0, 48, 0
2, 534733, Note_on_c, 0, 64, 71
2, 534735, Note_on_c, 0, 67, 62
2, 534739, Note_on_c, 0, 59, 45
2, 534858, Note_on_c, 0, 55, 0
2, 534899, Control_c, 0, 64, 127
2, 534968, Note_on_c, 0, 59, 0
2, 535053, Note_on_c, 0, 64, 0
2, 535130, Note_on_c, 0, 67, 0
2, 535165, Note_on_c, 0, 71, 0
2, 535171, Note_on_c, 0, 74, 0
2, 535573, Control_c, 0, 64, 0
2, 535667, Note_on_c, 0, 53, 43
2, 535679, Note_on_c, 0, 77, 71
2, 535685, Note_on_c, 0, 72, 66
2, 535691, Note_on_c, 0, 62, 39
2, 535698, Note_on_c, 0, 65, 60
2, 535867, Note_on_c, 0, 65, 0
2, 535877, Control_c, 0, 64, 127
2, 535954, Note_on_c, 0, 72, 0
2, 535962, Note_on_c, 0, 77, 0
2, 536155, Note_on_c, 0, 62, 0
2, 536431, Note_on_c, 0, 53, 0
2, 537115, Control_c, 0, 64, 0
2, 537205, Note_on_c, 0, 62, 53
2, 537211, Note_on_c, 0, 76, 68
2, 537215, Note_on_c, 0, 81, 64
2, 537218, Note_on_c, 0, 69, 64
2, 537219, Note_on_c, 0, 55, 33
2, 537224, Note_on_c, 0, 78, 43
2, 537227, Note_on_c, 0, 53, 34
2, 537229, Note_on_c, 0, 59, 36
2, 537277, Note_on_c, 0, 78, 0
2, 537299, Note_on_c, 0, 69, 0
2, 537331, Note_on_c, 0, 59, 0
2, 537349, Note_on_c, 0, 76, 0
2, 537391, Note_on_c, 0, 62, 0
2, 537395, Note_on_c, 0, 81, 0
2, 537402, Control_c, 0, 64, 127
2, 537456, Note_on_c, 0, 53, 0
2, 537493, Note_on_c, 0, 55, 0
2, 537824, Note_on_c, 0, 62, 42
2, 537829, Note_on_c, 0, 84, 66
2, 537842, Note_on_c, 0, 55, 33
2, 537845, Note_on_c, 0, 53, 31
2, 537856, Note_on_c, 0, 72, 60
2, 537859, Note_on_c, 0, 79, 61
2, 538016, Note_on_c, 0, 79, 0
2, 538034, Note_on_c, 0, 72, 0
2, 538048, Note_on_c, 0, 62, 0
2, 538064, Note_on_c, 0, 84, 0
2, 538087, Note_on_c, 0, 53, 0
2, 538091, Note_on_c, 0, 55, 0
2, 538378, Control_c, 0, 64, 0
2, 538459, Note_on_c, 0, 82, 47
2, 538498, Note_on_c, 0, 58, 39
2, 538499, Note_on_c, 0, 70, 33
2, 538499, Note_on_c, 0, 62, 37
2, 538509, Note_on_c, 0, 52, 38
2, 538682, Control_c, 0, 64, 127
2, 538800, Note_on_c, 0, 52, 0
2, 538840, Note_on_c, 0, 58, 0
2, 538919, Note_on_c, 0, 62, 0
2, 539007, Note_on_c, 0, 70, 0
2, 539330, Note_on_c, 0, 82, 0
2, 539528, Note_on_c, 0, 67, 34
2, 539547, Note_on_c, 0, 56, 42
2, 539554, Note_on_c, 0, 62, 30
2, 539923, Note_on_c, 0, 79, 68
2, 540079, Control_c, 0, 64, 0
2, 540080, Note_on_c, 0, 79, 0
2, 540202, Note_on_c, 0, 81, 76
2, 540415, Note_on_c, 0, 81, 0
2, 540531, Note_on_c, 0, 82, 78
2, 540536, Note_on_c, 0, 86, 74
2, 540802, Note_on_c, 0, 86, 0
2, 540840, Note_on_c, 0, 81, 74
2, 540863, Note_on_c, 0, 86, 28
2, 540911, Note_on_c, 0, 82, 0
2, 541048, Note_on_c, 0, 67, 0
2, 541050, Note_on_c, 0, 62, 0
2, 541066, Note_on_c, 0, 81, 0
2, 541074, Note_on_c, 0, 86, 0
2, 541163, Note_on_c, 0, 56, 0
2, 541203, Note_on_c, 0, 79, 61
2, 541405, Note_on_c, 0, 79, 0
2, 542035, Note_on_c, 0, 61, 57
2, 542048, Note_on_c, 0, 65, 58
2, 542058, Note_on_c, 0, 55, 44
2, 542699, Note_on_c, 0, 74, 64
2, 542855, Control_c, 0, 64, 127
2, 542858, Note_on_c, 0, 74, 0
2, 543021, Note_on_c, 0, 76, 89
2, 543144, Control_c, 0, 64, 0
2, 543237, Note_on_c, 0, 76, 0
2, 543344, Note_on_c, 0, 77, 83
2, 543416, Control_c, 0, 64, 127
2, 543535, Note_on_c, 0, 65, 0
2, 543546, Control_c, 0, 64, 0
2, 543567, Note_on_c, 0, 77, 0
2, 543578, Control_c, 0, 64, 127
2, 543637, Note_on_c, 0, 61, 0
2, 543650, Note_on_c, 0, 79, 71
2, 543674, Note_on_c, 0, 55, 0
2, 543845, Note_on_c, 0, 79, 0
2, 543984, Note_on_c, 0, 77, 77
2, 544199, Control_c, 0, 64, 0
2, 544315, Note_on_c, 0, 72, 60
2, 544319, Note_on_c, 0, 60, 38
2, 544333, Note_on_c, 0, 57, 42
2, 544339, Note_on_c, 0, 50, 29
2, 544519, Control_c, 0, 64, 127
2, 544933, Note_on_c, 0, 60, 0
2, 545040, Note_on_c, 0, 57, 0
2, 545309, Note_on_c, 0, 57, 39
2, 545319, Note_on_c, 0, 60, 39
2, 545346, Note_on_c, 0, 69, 38
2, 545349, Note_on_c, 0, 77, 0
2, 545464, Note_on_c, 0, 72, 0
2, 545736, Note_on_c, 0, 69, 0
2, 545789, Note_on_c, 0, 50, 0
2, 545939, Note_on_c, 0, 50, 40
2, 546010, Note_on_c, 0, 53, 27
2, 546083, Note_on_c, 0, 60, 0
2, 546125, Control_c, 0, 64, 0
2, 546162, Note_on_c, 0, 57, 0
2, 546301, Note_on_c, 0, 81, 75
2, 546301, Note_on_c, 0, 77, 78
2, 546306, Note_on_c, 0, 69, 89
2, 546311, Note_on_c, 0, 60, 58
2, 546311, Note_on_c, 0, 57, 64
2, 546363, Note_on_c, 0, 79, 33
2, 546426, Note_on_c, 0, 79, 0
2, 546463, Note_on_c, 0, 60, 0
2, 546504, Note_on_c, 0, 50, 0
2, 546506, Note_on_c, 0, 77, 0
2, 546514, Note_on_c, 0, 57, 0
2, 546519, Note_on_c, 0, 53, 0
2, 546520, Note_on_c, 0, 69, 0
2, 546544, Note_on_c, 0, 81, 0
2, 546887, Note_on_c, 0, 57, 61
2, 546901, Note_on_c, 0, 60, 51
2, 546901, Note_on_c, 0, 79, 72
2, 546927, Control_c, 0, 64, 127
2, 546928, Note_on_c, 0, 67, 62
2, 546931, Note_on_c, 0, 69, 59
2, 546941, Note_on_c, 0, 76, 38
2, 547010, Note_on_c, 0, 60, 0
2, 547026, Note_on_c, 0, 76, 0
2, 547034, Note_on_c, 0, 57, 0
2, 547051, Note_on_c, 0, 67, 0
2, 547056, Note_on_c, 0, 69, 0
2, 547080, Note_on_c, 0, 79, 0
2, 547280, Control_c, 0, 64, 0
2, 547307, Note_on_c, 0, 64, 62
2, 547319, Note_on_c, 0, 53, 40
2, 547320, Note_on_c, 0, 77, 68
2, 547320, Note_on_c, 0, 74, 79
2, 547331, Note_on_c, 0, 59, 46
2, 547616, Control_c, 0, 64, 127
2, 547839, Note_on_c, 0, 74, 0
2, 547864, Note_on_c, 0, 77, 0
2, 547936, Note_on_c, 0, 53, 0
2, 547943, Note_on_c, 0, 64, 0
2, 548024, Note_on_c, 0, 59, 0
2, 548035, Control_c, 0, 64, 0
2, 548138, Note_on_c, 0, 76, 38
2, 548151, Note_on_c, 0, 59, 29
2, 548155, Note_on_c, 0, 71, 41
2, 548159, Note_on_c, 0, 64, 46
2, 548170, Note_on_c, 0, 67, 40
2, 548175, Note_on_c, 0, 53, 27
2, 548291, Control_c, 0, 64, 127
2, 548562, Note_on_c, 0, 64, 0
2, 548573, Note_on_c, 0, 53, 0
2, 548603, Note_on_c, 0, 67, 0
2, 548688, Note_on_c, 0, 71, 0
2, 548699, Note_on_c, 0, 59, 0
2, 548735, Note_on_c, 0, 76, 0
2, 548805, Control_c, 0, 64, 0
2, 548831, Note_on_c, 0, 59, 34
2, 548837, Note_on_c, 0, 74, 59
2, 548848, Note_on_c, 0, 64, 60
2, 548861, Note_on_c, 0, 67, 40
2, 548863, Note_on_c, 0, 53, 36
2, 549093, Control_c, 0, 64, 127
2, 549136, Note_on_c, 0, 53, 0
2, 549263, Note_on_c, 0, 64, 0
2, 549282, Note_on_c, 0, 67, 0
2, 549440, Note_on_c, 0, 72, 60
2, 549455, Note_on_c, 0, 64, 49
2, 549463, Note_on_c, 0, 67, 38
2, 549493, Note_on_c, 0, 53, 33
2, 549563, Note_on_c, 0, 74, 0
2, 549706, Note_on_c, 0, 64, 0
2, 549730, Note_on_c, 0, 59, 0
2, 549778, Note_on_c, 0, 53, 0
2, 549797, Note_on_c, 0, 72, 0
2, 549808, Note_on_c, 0, 67, 0
2, 549992, Control_c, 0, 64, 0
2, 550074, Note_on_c, 0, 71, 55
2, 550087, Note_on_c, 0, 52, 42
2, 550090, Note_on_c, 0, 62, 32
2, 550091, Note_on_c, 0, 67, 41
2, 550119, Note_on_c, 0, 58, 36
2, 550232, Control_c, 0, 64, 127
2, 550240, Note_on_c, 0, 67, 0
2, 550312, Note_on_c, 0, 52, 0
2, 550333, Note_on_c, 0, 58, 0
2, 550368, Note_on_c, 0, 71, 0
2, 550392, Note_on_c, 0, 62, 0
2, 550935, Control_c, 0, 64, 0
2, 551079, Control_c, 0, 64, 127
2, 551610, Control_c, 0, 64, 0
2, 551639, Note_on_c, 0, 62, 58
2, 551640, Note_on_c, 0, 67, 74
2, 551643, Note_on_c, 0, 56, 82
2, 551653, Note_on_c, 0, 83, 82
2, 551658, Note_on_c, 0, 76, 74
2, 551659, Note_on_c, 0, 79, 71
2, 551663, Note_on_c, 0, 74, 79
2, 551915, Control_c, 0, 64, 127
2, 552059, Note_on_c, 0, 56, 0
2, 552061, Note_on_c, 0, 74, 0
2, 552063, Note_on_c, 0, 67, 0
2, 552099, Note_on_c, 0, 83, 0
2, 552104, Note_on_c, 0, 79, 0
2, 552133, Note_on_c, 0, 62, 0
2, 552159, Note_on_c, 0, 76, 0
2, 552224, Note_on_c, 0, 81, 73
2, 552234, Note_on_c, 0, 67, 45
2, 552239, Note_on_c, 0, 56, 60
2, 552253, Note_on_c, 0, 62, 51
2, 552301, Note_on_c, 0, 76, 27
2, 552371, Note_on_c, 0, 76, 0
2, 552407, Note_on_c, 0, 67, 0
2, 552421, Note_on_c, 0, 62, 0
2, 552427, Note_on_c, 0, 81, 0
2, 552645, Note_on_c, 0, 56, 0
2, 552845, Control_c, 0, 64, 0
2, 552898, Note_on_c, 0, 79, 63
2, 552914, Note_on_c, 0, 73, 53
2, 552923, Note_on_c, 0, 76, 58
2, 552925, Note_on_c, 0, 70, 62
2, 552939, Note_on_c, 0, 64, 62
2, 553119, Control_c, 0, 64, 127
2, 553261, Note_on_c, 0, 76, 0
2, 553298, Note_on_c, 0, 79, 0
2, 553312, Note_on_c, 0, 70, 0
2, 553357, Note_on_c, 0, 73, 0
2, 553427, Note_on_c, 0, 64, 0
2, 553632, Control_c, 0, 64, 0
2, 553634, Note_on_c, 0, 77, 66
2, 553656, Note_on_c, 0, 62, 40
2, 553659, Note_on_c, 0, 73, 38
2, 553669, Note_on_c, 0, 70, 44
2, 553685, Note_on_c, 0, 67, 33
2, 553691, Note_on_c, 0, 69, 34
2, 553898, Note_on_c, 0, 69, 0
2, 553920, Control_c, 0, 64, 127
2, 554059, Note_on_c, 0, 77, 0
2, 554087, Note_on_c, 0, 67, 0
2, 554144, Note_on_c, 0, 70, 0
2, 554186, Note_on_c, 0, 73, 0
2, 554242, Control_c, 0, 64, 0
2, 554306, Note_on_c, 0, 70, 37
2, 554330, Note_on_c, 0, 76, 35
2, 554333, Note_on_c, 0, 73, 23
2, 554335, Note_on_c, 0, 61, 54
2, 554336, Note_on_c, 0, 62, 0
2, 554451, Control_c, 0, 64, 127
2, 554544, Note_on_c, 0, 61, 0
2, 554920, Note_on_c, 0, 73, 0
2, 554931, Note_on_c, 0, 70, 0
2, 554965, Control_c, 0, 64, 0
2, 555043, Note_on_c, 0, 61, 67
2, 555048, Note_on_c, 0, 51, 63
2, 555139, Control_c, 0, 64, 127
2, 555232, Note_on_c, 0, 76, 0
2, 555546, Note_on_c, 0, 61, 0
2, 555607, Note_on_c, 0, 51, 0
2, 555685, Control_c, 0, 64, 0
2, 555787, Note_on_c, 0, 72, 55
2, 555789, Note_on_c, 0, 67, 48
2, 555805, Note_on_c, 0, 60, 51
2, 555818, Note_on_c, 0, 50, 43
2, 555819, Note_on_c, 0, 57, 44
2, 555826, Note_on_c, 0, 53, 32
2, 555925, Control_c, 0, 64, 127
2, 555928, Note_on_c, 0, 67, 0
2, 555986, Note_on_c, 0, 72, 0
2, 556015, Note_on_c, 0, 50, 0
2, 556037, Note_on_c, 0, 53, 0
2, 556067, Note_on_c, 0, 57, 0
2, 556143, Note_on_c, 0, 60, 0
2, 556471, Control_c, 0, 64, 0
2, 556512, Note_on_c, 0, 91, 79
2, 556519, Note_on_c, 0, 88, 75
2, 556520, Note_on_c, 0, 60, 67
2, 556522, Note_on_c, 0, 57, 68
2, 556523, Note_on_c, 0, 84, 77
2, 556525, Note_on_c, 0, 64, 83
2, 556528, Note_on_c, 0, 53, 61
2, 556530, Note_on_c, 0, 79, 74
2, 556885, Control_c, 0, 64, 127
2, 557858, Note_on_c, 0, 79, 0
2, 557891, Note_on_c, 0, 88, 0
2, 557920, Note_on_c, 0, 91, 0
2, 557951, Note_on_c, 0, 84, 0
2, 558003, Note_on_c, 0, 53, 0
2, 558019, Note_on_c, 0, 57, 0
2, 558027, Note_on_c, 0, 64, 0
2, 558042, Note_on_c, 0, 60, 0
2, 558181, Note_on_c, 0, 89, 60
2, 558191, Note_on_c, 0, 64, 35
2, 558197, Note_on_c, 0, 60, 36
2, 558199, Note_on_c, 0, 84, 61
2, 558218, Note_on_c, 0, 57, 24
2, 558280, Note_on_c, 0, 64, 0
2, 558317, Note_on_c, 0, 89, 0
2, 558330, Note_on_c, 0, 84, 0
2, 558354, Note_on_c, 0, 60, 0
2, 558357, Note_on_c, 0, 57, 0
2, 558479, Note_on_c, 0, 64, 41
2, 558480, Note_on_c, 0, 88, 47
2, 558491, Note_on_c, 0, 83, 51
2, 558501, Note_on_c, 0, 57, 41
2, 558517, Note_on_c, 0, 76, 36
2, 558589, Note_on_c, 0, 76, 0
2, 558613, Note_on_c, 0, 64, 0
2, 558634, Note_on_c, 0, 83, 0
2, 558667, Note_on_c, 0, 88, 0
2, 558679, Note_on_c, 0, 57, 0
2, 558717, Control_c, 0, 64, 0
2, 558808, Note_on_c, 0, 89, 66
2, 558815, Note_on_c, 0, 64, 50
2, 558816, Note_on_c, 0, 57, 66
2, 558834, Note_on_c, 0, 84, 48
2, 558835, Note_on_c, 0, 77, 40
2, 558855, Note_on_c, 0, 59, 36
2, 558888, Note_on_c, 0, 64, 0
2, 558899, Note_on_c, 0, 84, 0
2, 558901, Note_on_c, 0, 77, 0
2, 558933, Note_on_c, 0, 59, 0
2, 558951, Note_on_c, 0, 57, 0
2, 558962, Note_on_c, 0, 89, 0
2, 559688, Note_on_c, 0, 88, 64
2, 559717, Note_on_c, 0, 64, 55
2, 559719, Note_on_c, 0, 83, 54
2, 559746, Note_on_c, 0, 57, 37
2, 559747, Note_on_c, 0, 76, 28
2, 559751, Note_on_c, 0, 59, 31
2, 559752, Note_on_c, 0, 53, 26
2, 559789, Control_c, 0, 64, 127
2, 560147, Note_on_c, 0, 88, 0
2, 560176, Note_on_c, 0, 83, 0
2, 560259, Note_on_c, 0, 76, 0
2, 560307, Note_on_c, 0, 53, 0
2, 560315, Note_on_c, 0, 57, 0
2, 560336, Note_on_c, 0, 64, 0
2, 560370, Note_on_c, 0, 59, 0
2, 560544, Control_c, 0, 64, 0
2, 560647, Note_on_c, 0, 64, 49
2, 560666, Note_on_c, 0, 84, 24
2, 560669, Note_on_c, 0, 72, 40
2, 560671, Note_on_c, 0, 79, 40
2, 560683, Note_on_c, 0, 59, 33
2, 560691, Note_on_c, 0, 57, 36
2, 560768, Note_on_c, 0, 57, 0
2, 560781, Note_on_c, 0, 64, 0
2, 560792, Note_on_c, 0, 59, 0
2, 560794, Note_on_c, 0, 72, 0
2, 560811, Note_on_c, 0, 79, 0
2, 560858, Note_on_c, 0, 84, 0
2, 561251, Control_c, 0, 64, 127
2, 561296, Note_on_c, 0, 86, 57
2, 561298, Note_on_c, 0, 74, 46
2, 561307, Note_on_c, 0, 81, 46
2, 561309, Note_on_c, 0, 64, 60
2, 561349, Note_on_c, 0, 57, 27
2, 561384, Note_on_c, 0, 74, 0
2, 561387, Note_on_c, 0, 64, 0
2, 561408, Note_on_c, 0, 57, 0
2, 561432, Note_on_c, 0, 81, 0
2, 561448, Note_on_c, 0, 86, 0
2, 561570, Control_c, 0, 64, 0
2, 561650, Note_on_c, 0, 61, 32
2, 561659, Note_on_c, 0, 88, 60
2, 561671, Note_on_c, 0, 76, 50
2, 561687, Note_on_c, 0, 67, 51
2, 561693, Note_on_c, 0, 84, 35
2, 561703, Note_on_c, 0, 61, 0
2, 561709, Note_on_c, 0, 56, 51
2, 561746, Note_on_c, 0, 62, 28
2, 561811, Control_c, 0, 64, 127
2, 562053, Note_on_c, 0, 76, 0
2, 562059, Note_on_c, 0, 88, 0
2, 562069, Note_on_c, 0, 56, 0
2, 562088, Note_on_c, 0, 84, 0
2, 562093, Note_on_c, 0, 67, 0
2, 562098, Note_on_c, 0, 62, 0
2, 562242, Note_on_c, 0, 88, 58
2, 562251, Note_on_c, 0, 84, 46
2, 562253, Note_on_c, 0, 67, 51
2, 562255, Note_on_c, 0, 62, 46
2, 562256, Note_on_c, 0, 56, 56
2, 562258, Note_on_c, 0, 76, 58
2, 562434, Note_on_c, 0, 88, 0
2, 562440, Note_on_c, 0, 56, 0
2, 562461, Note_on_c, 0, 76, 0
2, 562466, Note_on_c, 0, 67, 0
2, 562487, Note_on_c, 0, 62, 0
2, 562501, Note_on_c, 0, 84, 0
2, 562587, Note_on_c, 0, 67, 68
2, 562597, Note_on_c, 0, 56, 64
2, 562599, Note_on_c, 0, 88, 57
2, 562600, Note_on_c, 0, 62, 60
2, 562602, Note_on_c, 0, 76, 64
2, 562607, Note_on_c, 0, 84, 71
2, 562608, Note_on_c, 0, 60, 62
2, 562890, Note_on_c, 0, 76, 0
2, 562909, Note_on_c, 0, 56, 0
2, 562935, Note_on_c, 0, 88, 0
2, 562944, Note_on_c, 0, 60, 0
2, 562947, Note_on_c, 0, 84, 0
2, 562952, Note_on_c, 0, 67, 0
2, 562971, Note_on_c, 0, 62, 0
2, 563215, Note_on_c, 0, 67, 83
2, 563216, Note_on_c, 0, 89, 82
2, 563219, Note_on_c, 0, 77, 85
2, 563221, Note_on_c, 0, 56, 84
2, 563223, Note_on_c, 0, 84, 83
2, 563224, Note_on_c, 0, 62, 64
2, 563227, Note_on_c, 0, 60, 72
2, 563434, Note_on_c, 0, 56, 0
2, 563445, Note_on_c, 0, 77, 0
2, 563447, Note_on_c, 0, 84, 0
2, 563448, Note_on_c, 0, 67, 0
2, 563453, Note_on_c, 0, 89, 0
2, 563474, Note_on_c, 0, 60, 0
2, 563480, Note_on_c, 0, 62, 0
2, 563501, Control_c, 0, 64, 0
2, 563571, Note_on_c, 0, 67, 68
2, 563579, Note_on_c, 0, 56, 73
2, 563584, Note_on_c, 0, 62, 73
2, 563587, Note_on_c, 0, 88, 75
2, 563589, Note_on_c, 0, 60, 74
2, 563603, Note_on_c, 0, 83, 78
2, 563607, Note_on_c, 0, 76, 70
2, 563685, Note_on_c, 0, 58, 23
2, 563872, Control_c, 0, 64, 127
2, 564093, Note_on_c, 0, 62, 0
2, 564146, Note_on_c, 0, 83, 0
2, 564165, Note_on_c, 0, 60, 0
2, 564171, Note_on_c, 0, 76, 0
2, 564175, Note_on_c, 0, 67, 0
2, 564207, Note_on_c, 0, 88, 0
2, 564271, Note_on_c, 0, 58, 0
2, 564317, Note_on_c, 0, 56, 0
2, 564432, Control_c, 0, 64, 0
2, 564520, Note_on_c, 0, 88, 69
2, 564541, Note_on_c, 0, 76, 53
2, 564544, Note_on_c, 0, 65, 62
2, 564546, Note_on_c, 0, 55, 52
2, 564555, Note_on_c, 0, 61, 55
2, 564589, Note_on_c, 0, 82, 40
2, 564757, Control_c, 0, 64, 127
2, 565157, Note_on_c, 0, 61, 0
2, 565160, Note_on_c, 0, 65, 0
2, 565199, Note_on_c, 0, 55, 0
2, 565253, Note_on_c, 0, 76, 0
2, 565311, Note_on_c, 0, 88, 0
2, 565357, Note_on_c, 0, 82, 0
2, 565491, Note_on_c, 0, 61, 53
2, 565498, Note_on_c, 0, 76, 32
2, 565499, Note_on_c, 0, 81, 46
2, 565507, Note_on_c, 0, 55, 36
2, 565515, Note_on_c, 0, 65, 45
2, 566120, Note_on_c, 0, 81, 0
2, 566133, Note_on_c, 0, 65, 0
2, 566165, Note_on_c, 0, 61, 0
2, 566189, Note_on_c, 0, 55, 0
2, 566221, Note_on_c, 0, 76, 0
2, 567136, Note_on_c, 0, 61, 37
2, 567213, Note_on_c, 0, 62, 46
2, 567291, Control_c, 0, 64, 0
2, 567341, Note_on_c, 0, 76, 54
2, 567354, Note_on_c, 0, 79, 54
2, 567355, Note_on_c, 0, 64, 40
2, 567365, Note_on_c, 0, 61, 0
2, 567367, Note_on_c, 0, 72, 44
2, 567370, Note_on_c, 0, 69, 38
2, 567443, Note_on_c, 0, 62, 0
2, 567746, Control_c, 0, 64, 127
2, 567859, Note_on_c, 0, 76, 0
2, 567925, Note_on_c, 0, 79, 0
2, 567967, Note_on_c, 0, 72, 0
2, 568013, Note_on_c, 0, 69, 0
2, 568243, Control_c, 0, 64, 0
2, 568306, Note_on_c, 0, 77, 48
2, 568325, Note_on_c, 0, 72, 41
2, 568343, Note_on_c, 0, 64, 0
2, 568351, Note_on_c, 0, 69, 29
2, 568352, Note_on_c, 0, 62, 32
2, 568565, Control_c, 0, 64, 127
2, 568667, Note_on_c, 0, 72, 0
2, 568675, Note_on_c, 0, 77, 0
2, 568762, Note_on_c, 0, 69, 0
2, 569048, Note_on_c, 0, 62, 0
2, 569883, Note_on_c, 0, 60, 34
2, 569899, Note_on_c, 0, 76, 36
2, 569914, Note_on_c, 0, 65, 44
2, 569925, Note_on_c, 0, 72, 42
2, 570015, Note_on_c, 0, 65, 0
2, 570066, Note_on_c, 0, 60, 0
2, 570117, Note_on_c, 0, 72, 0
2, 570131, Note_on_c, 0, 76, 0
2, 570247, Control_c, 0, 64, 0
2, 570301, Note_on_c, 0, 64, 44
2, 570301, Note_on_c, 0, 53, 32
2, 570304, Note_on_c, 0, 74, 49
2, 570319, Note_on_c, 0, 77, 58
2, 570323, Note_on_c, 0, 59, 34
2, 570551, Control_c, 0, 64, 127
2, 570719, Note_on_c, 0, 64, 0
2, 570723, Note_on_c, 0, 53, 0
2, 570789, Note_on_c, 0, 74, 0
2, 570797, Note_on_c, 0, 77, 0
2, 570887, Control_c, 0, 64, 0
2, 570901, Note_on_c, 0, 64, 32
2, 570901, Note_on_c, 0, 72, 50
2, 570909, Note_on_c, 0, 76, 38
2, 570920, Note_on_c, 0, 53, 26
2, 571224, Control_c, 0, 64, 127
2, 571653, Note_on_c, 0, 72, 0
2, 571831, Note_on_c, 0, 64, 0
2, 571943, Note_on_c, 0, 53, 0
2, 572013, Note_on_c, 0, 59, 0
2, 572487, Note_on_c, 0, 72, 44
2, 572589, Note_on_c, 0, 76, 0
2, 572707, Note_on_c, 0, 72, 0
2, 572770, Note_on_c, 0, 74, 47
2, 573005, Control_c, 0, 64, 0
2, 573018, Note_on_c, 0, 74, 0
2, 573087, Note_on_c, 0, 64, 31
2, 573099, Note_on_c, 0, 72, 33
2, 573122, Note_on_c, 0, 62, 26
2, 573136, Note_on_c, 0, 67, 22
2, 573389, Control_c, 0, 64, 127
2, 573450, Note_on_c, 0, 67, 0
2, 573623, Note_on_c, 0, 72, 0
2, 573935, Control_c, 0, 64, 0
2, 574058, Note_on_c, 0, 55, 29
2, 574144, Control_c, 0, 64, 127
2, 574496, Note_on_c, 0, 98, 68
2, 574685, Note_on_c, 0, 98, 0
2, 574810, Note_on_c, 0, 95, 39
2, 574960, Note_on_c, 0, 95, 0
2, 574965, Control_c, 0, 64, 0
2, 575091, Note_on_c, 0, 96, 60
2, 575371, Note_on_c, 0, 96, 0
2, 575405, Note_on_c, 0, 93, 54
2, 575477, Note_on_c, 0, 55, 0
2, 575493, Control_c, 0, 64, 127
2, 575621, Note_on_c, 0, 93, 0
2, 575639, Note_on_c, 0, 62, 0
2, 575650, Control_c, 0, 64, 0
2, 575669, Note_on_c, 0, 64, 0
2, 575735, Note_on_c, 0, 55, 26
2, 575747, Note_on_c, 0, 95, 67
2, 576045, Note_on_c, 0, 95, 0
2, 576056, Note_on_c, 0, 91, 44
2, 576306, Note_on_c, 0, 91, 0
2, 576381, Note_on_c, 0, 65, 35
2, 576400, Note_on_c, 0, 93, 62
2, 576415, Note_on_c, 0, 60, 29
2, 576440, Note_on_c, 0, 57, 26
2, 576645, Note_on_c, 0, 93, 0
2, 576722, Note_on_c, 0, 89, 36
2, 576954, Note_on_c, 0, 89, 0
2, 577056, Note_on_c, 0, 91, 58
2, 577291, Note_on_c, 0, 91, 0
2, 577363, Note_on_c, 0, 88, 32
2, 577469, Note_on_c, 0, 55, 0
2, 577503, Note_on_c, 0, 88, 0
2, 577687, Note_on_c, 0, 89, 51
2, 577691, Note_on_c, 0, 55, 27
2, 577951, Note_on_c, 0, 89, 0
2, 578003, Note_on_c, 0, 86, 43
2, 578207, Note_on_c, 0, 86, 0
2, 578323, Note_on_c, 0, 88, 56
2, 578464, Note_on_c, 0, 60, 0
2, 578490, Note_on_c, 0, 57, 0
2, 578549, Note_on_c, 0, 88, 0
2, 578552, Note_on_c, 0, 65, 0
2, 578597, Note_on_c, 0, 84, 42
2, 578847, Note_on_c, 0, 84, 0
2, 578943, Note_on_c, 0, 64, 47
2, 578943, Note_on_c, 0, 86, 47
2, 578975, Note_on_c, 0, 62, 31
2, 578978, Note_on_c, 0, 67, 41
2, 579173, Note_on_c, 0, 86, 0
2, 579240, Note_on_c, 0, 83, 35
2, 579434, Note_on_c, 0, 55, 0
2, 579461, Note_on_c, 0, 83, 0
2, 579464, Note_on_c, 0, 67, 0
2, 579559, Note_on_c, 0, 84, 50
2, 579624, Note_on_c, 0, 55, 19
2, 579829, Note_on_c, 0, 84, 0
2, 579890, Note_on_c, 0, 81, 35
2, 580114, Note_on_c, 0, 81, 0
2, 580210, Note_on_c, 0, 83, 54
2, 580229, Note_on_c, 0, 62, 0
2, 580277, Note_on_c, 0, 64, 0
2, 580447, Note_on_c, 0, 83, 0
2, 580514, Note_on_c, 0, 64, 29
2, 580528, Note_on_c, 0, 79, 37
2, 580536, Note_on_c, 0, 67, 38
2, 580543, Note_on_c, 0, 62, 28
2, 580715, Note_on_c, 0, 79, 0
2, 580843, Note_on_c, 0, 81, 48
2, 581053, Note_on_c, 0, 55, 0
2, 581075, Note_on_c, 0, 81, 0
2, 581079, Note_on_c, 0, 67, 0
2, 581139, Note_on_c, 0, 77, 35
2, 581363, Note_on_c, 0, 77, 0
2, 581395, Note_on_c, 0, 62, 0
2, 581443, Note_on_c, 0, 55, 32
2, 581453, Note_on_c, 0, 64, 0
2, 581485, Note_on_c, 0, 79, 32
2, 581695, Note_on_c, 0, 79, 0
2, 581779, Note_on_c, 0, 76, 29
2, 582034, Note_on_c, 0, 76, 0
2, 582079, Note_on_c, 0, 77, 43
2, 582123, Note_on_c, 0, 65, 18
2, 582127, Note_on_c, 0, 57, 28
2, 582175, Note_on_c, 0, 60, 17
2, 582323, Note_on_c, 0, 77, 0
2, 582394, Note_on_c, 0, 74, 33
2, 582467, Control_c, 0, 64, 127
2, 582515, Note_on_c, 0, 55, 0
2, 582656, Note_on_c, 0, 74, 0
2, 582757, Note_on_c, 0, 76, 41
2, 582931, Control_c, 0, 64, 0
2, 583002, Note_on_c, 0, 76, 0
2, 583187, Note_on_c, 0, 55, 1
2, 583376, Note_on_c, 0, 60, 0
2, 583403, Note_on_c, 0, 74, 57
2, 583461, Control_c, 0, 64, 127
2, 583464, Note_on_c, 0, 65, 0
2, 583487, Note_on_c, 0, 57, 0
2, 583674, Note_on_c, 0, 74, 0
2, 583715, Note_on_c, 0, 71, 42
2, 583808, Note_on_c, 0, 71, 0
2, 584323, Note_on_c, 0, 71, 33
2, 584451, Note_on_c, 0, 71, 0
2, 584650, Control_c, 0, 64, 0
2, 584703, Note_on_c, 0, 64, 28
2, 584709, Note_on_c, 0, 67, 18
2, 584728, Note_on_c, 0, 71, 59
2, 584739, Note_on_c, 0, 62, 26
2, 584915, Note_on_c, 0, 71, 0
2, 584943, Note_on_c, 0, 72, 45
2, 585122, Note_on_c, 0, 71, 37
2, 585146, Note_on_c, 0, 72, 0
2, 585208, Note_on_c, 0, 67, 0
2, 585299, Note_on_c, 0, 71, 0
2, 585336, Note_on_c, 0, 69, 25
2, 585461, Note_on_c, 0, 69, 0
2, 585488, Note_on_c, 0, 71, 36
2, 585643, Note_on_c, 0, 64, 0
2, 585671, Note_on_c, 0, 62, 0
2, 585723, Note_on_c, 0, 72, 40
2, 585808, Note_on_c, 0, 64, 20
2, 585826, Note_on_c, 0, 72, 0
2, 585984, Note_on_c, 0, 71, 0
2, 586003, Note_on_c, 0, 69, 43
2, 586107, Note_on_c, 0, 69, 0
2, 586179, Note_on_c, 0, 71, 42
2, 586514, Note_on_c, 0, 55, 0
2, 587088, Control_c, 0, 64, 127
2, 587170, Control_c, 0, 64, 0
2, 587541, Note_on_c, 0, 64, 0
2, 587627, Note_on_c, 0, 55, 19
2, 588501, Note_on_c, 0, 65, 28
2, 588543, Note_on_c, 0, 57, 29
2, 588554, Note_on_c, 0, 60, 22
2, 589570, Note_on_c, 0, 55, 0
2, 589962, Note_on_c, 0, 71, 0
2, 590107, Note_on_c, 0, 57, 0
2, 590115, Note_on_c, 0, 60, 0
2, 590163, Note_on_c, 0, 65, 0
2, 590168, Note_on_c, 0, 55, 9
2, 590743, Control_c, 0, 64, 127
2, 591258, Control_c, 0, 64, 0
2, 591280, Note_on_c, 0, 86, 28
2, 591335, Note_on_c, 0, 64, 19
2, 591344, Note_on_c, 0, 79, 22
2, 591359, Note_on_c, 0, 74, 27
2, 591451, Note_on_c, 0, 55, 0
2, 591515, Control_c, 0, 64, 127
2, 591647, Note_on_c, 0, 79, 0
2, 591663, Note_on_c, 0, 86, 0
2, 591725, Note_on_c, 0, 74, 0
2, 591963, Control_c, 0, 64, 0
2, 591968, Note_on_c, 0, 83, 27
2, 591984, Note_on_c, 0, 74, 17
2, 591994, Note_on_c, 0, 64, 0
2, 592229, Note_on_c, 0, 59, 1
2, 592253, Control_c, 0, 64, 127
2, 592256, Note_on_c, 0, 74, 0
2, 592285, Note_on_c, 0, 83, 0
2, 592563, Note_on_c, 0, 86, 16
2, 592658, Note_on_c, 0, 64, 12
2, 592810, Note_on_c, 0, 86, 0
2, 592864, Note_on_c, 0, 59, 0
2, 593026, Note_on_c, 0, 64, 0
2, 593231, Control_c, 0, 64, 0
2, 593285, Note_on_c, 0, 72, 9
2, 593317, Note_on_c, 0, 84, 5
2, 593320, Note_on_c, 0, 55, 7
2, 593328, Note_on_c, 0, 81, 12
2, 593517, Note_on_c, 0, 81, 0
2, 593551, Control_c, 0, 64, 127
2, 593571, Note_on_c, 0, 84, 0
2, 593645, Note_on_c, 0, 72, 0
2, 593856, Control_c, 0, 64, 0
2, 593933, Note_on_c, 0, 81, 10
2, 593959, Note_on_c, 0, 65, 8
2, 593986, Note_on_c, 0, 77, 6
2, 593989, Note_on_c, 0, 62, 7
2, 593999, Note_on_c, 0, 69, 6
2, 594098, Note_on_c, 0, 69, 0
2, 594098, Control_c, 0, 64, 127
2, 594152, Note_on_c, 0, 77, 0
2, 594167, Note_on_c, 0, 62, 0
2, 594189, Note_on_c, 0, 81, 0
2, 594191, Note_on_c, 0, 65, 0
2, 594552, Note_on_c, 0, 84, 7
2, 594571, Note_on_c, 0, 65, 6
2, 594576, Note_on_c, 0, 81, 9
2, 594631, Note_on_c, 0, 72, 4
2, 594651, Note_on_c, 0, 81, 0
2, 594744, Note_on_c, 0, 72, 0
2, 594747, Note_on_c, 0, 84, 0
2, 594831, Note_on_c, 0, 65, 0
2, 595178, Note_on_c, 0, 81, 4
2, 595195, Note_on_c, 0, 65, 4
2, 595402, Note_on_c, 0, 81, 0
2, 595471, Note_on_c, 0, 65, 0
2, 595741, Note_on_c, 0, 84, 3
2, 595912, Note_on_c, 0, 84, 0
2, 595976, Note_on_c, 0, 55, 0
2, 596210, Control_c, 0, 64, 0
2, 596253, Note_on_c, 0, 83, 1
2, 596269, Note_on_c, 0, 71, 1
2, 596279, Note_on_c, 0, 64, 1
2, 596287, Note_on_c, 0, 76, 1
2, 596304, Note_on_c, 0, 79, 1
2, 596307, Note_on_c, 0, 55, 1
2, 596616, Control_c, 0, 64, 127
2, 598026, Note_on_c, 0, 64, 0
2, 598167, Note_on_c, 0, 55, 0
2, 598595, Note_on_c, 0, 71, 0
2, 598656, Note_on_c, 0, 76, 0
2, 598677, Note_on_c, 0, 79, 0
2, 598752, Note_on_c, 0, 83, 0
2, 600019, Control_c, 0, 64, 0
2, 600019, End_track
3, 0, Start_track
3, 0, Title_t, "Bass"
3, 0, Control_c, 1, 0, 0
3, 0, Control_c, 1, 7, 107
3, 1, Program_c, 1, 32
3, 267793, Note_on_c, 1, 36, 47
3, 269377, Note_on_c, 1, 50, 59
3, 269673, Note_on_c, 1, 50, 0
3, 270068, Note_on_c, 1, 48, 29
3, 270698, Note_on_c, 1, 36, 0
3, 270748, Note_on_c, 1, 48, 0
3, 270767, Note_on_c, 1, 43, 30
3, 273290, Note_on_c, 1, 31, 35
3, 273569, Note_on_c, 1, 31, 0
3, 273697, Note_on_c, 1, 36, 37
3, 273713, Note_on_c, 1, 43, 0
3, 274658, Note_on_c, 1, 50, 41
3, 274873, Note_on_c, 1, 50, 0
3, 275308, Note_on_c, 1, 50, 31
3, 276033, Note_on_c, 1, 48, 30
3, 276058, Note_on_c, 1, 50, 0
3, 276135, Note_on_c, 1, 48, 0
3, 276373, Note_on_c, 1, 43, 31
3, 276538, Note_on_c, 1, 43, 0
3, 276666, Note_on_c, 1, 36, 0
3, 276689, Note_on_c, 1, 43, 32
3, 277461, Note_on_c, 1, 43, 0
3, 277479, Note_on_c, 1, 31, 34
3, 279549, Note_on_c, 1, 36, 64
3, 279585, Note_on_c, 1, 31, 0
3, 282362, Note_on_c, 1, 43, 62
3, 282381, Note_on_c, 1, 36, 0
3, 283282, Note_on_c, 1, 42, 73
3, 283364, Note_on_c, 1, 43, 0
3, 284201, Note_on_c, 1, 42, 0
3, 284229, Note_on_c, 1, 41, 54
3, 284486, Note_on_c, 1, 41, 0
3, 284874, Note_on_c, 1, 39, 59
3, 285137, Note_on_c, 1, 39, 0
3, 285201, Note_on_c, 1, 40, 51
3, 288071, Note_on_c, 1, 40, 0
3, 288076, Note_on_c, 1, 33, 60
3, 290951, Note_on_c, 1, 38, 79
3, 290964, Note_on_c, 1, 33, 0
3, 293817, Note_on_c, 1, 31, 58
3, 293869, Note_on_c, 1, 38, 0
3, 295313, Note_on_c, 1, 31, 0
3, 295330, Note_on_c, 1, 30, 73
3, 295932, Note_on_c, 1, 30, 0
3, 296001, Note_on_c, 1, 29, 57
3, 296620, Note_on_c, 1, 29, 0
3, 296628, Note_on_c, 1, 28, 61
3, 298961, Note_on_c, 1, 35, 39
3, 299010, Note_on_c, 1, 28, 0
3, 299074, Note_on_c, 1, 35, 0
3, 299287, Note_on_c, 1, 34, 49
3, 299465, Note_on_c, 1, 34, 0
3, 299665, Note_on_c, 1, 33, 40
3, 300597, Note_on_c, 1, 47, 58
3, 300852, Note_on_c, 1, 47, 0
3, 300893, Note_on_c, 1, 46, 44
3, 301180, Note_on_c, 1, 46, 0
3, 301249, Note_on_c, 1, 45, 45
3, 301477, Note_on_c, 1, 33, 0
3, 301874, Note_on_c, 1, 45, 0
3, 301908, Note_on_c, 1, 36, 33
3, 302065, Note_on_c, 1, 36, 0
3, 302165, Note_on_c, 1, 37, 46
3, 302445, Note_on_c, 1, 37, 0
3, 302482, Note_on_c, 1, 38, 46
3, 303765, Note_on_c, 1, 52, 41
3, 303986, Note_on_c, 1, 52, 0
3, 304031, Note_on_c, 1, 53, 43
3, 304324, Note_on_c, 1, 53, 0
3, 304377, Note_on_c, 1, 54, 68
3, 306292, Note_on_c, 1, 50, 45
3, 306452, Note_on_c, 1, 38, 0
3, 307842, Note_on_c, 1, 45, 54
3, 308140, Note_on_c, 1, 50, 0
3, 308194, Note_on_c, 1, 54, 0
3, 308239, Note_on_c, 1, 45, 0
3, 308274, Note_on_c, 1, 44, 49
3, 310764, Note_on_c, 1, 42, 44
3, 310814, Note_on_c, 1, 44, 0
3, 310999, Note_on_c, 1, 42, 0
3, 311111, Note_on_c, 1, 43, 31
3, 311241, Note_on_c, 1, 43, 0
3, 311695, Note_on_c, 1, 38, 53
3, 311946, Note_on_c, 1, 38, 0
3, 312036, Note_on_c, 1, 31, 41
3, 312914, Note_on_c, 1, 31, 0
3, 312977, Note_on_c, 1, 34, 33
3, 313133, Note_on_c, 1, 34, 0
3, 313316, Note_on_c, 1, 35, 46
3, 313572, Note_on_c, 1, 35, 0
3, 313644, Note_on_c, 1, 36, 75
3, 314516, Note_on_c, 1, 50, 45
3, 314938, Note_on_c, 1, 50, 0
3, 314993, Note_on_c, 1, 48, 38
3, 316865, Note_on_c, 1, 31, 41
3, 316892, Note_on_c, 1, 36, 0
3, 317645, Note_on_c, 1, 48, 0
3, 319397, Note_on_c, 1, 43, 45
3, 319625, Note_on_c, 1, 31, 0
3, 319626, Note_on_c, 1, 43, 0
3, 319730, Note_on_c, 1, 36, 52
3, 321999, Note_on_c, 1, 47, 29
3, 322186, Note_on_c, 1, 47, 0
3, 322311, Note_on_c, 1, 52, 58
3, 322500, Note_on_c, 1, 52, 0
3, 322658, Note_on_c, 1, 55, 64
3, 322897, Note_on_c, 1, 36, 0
3, 323375, Note_on_c, 1, 38, 30
3, 323533, Note_on_c, 1, 38, 0
3, 323577, Note_on_c, 1, 55, 0
3, 323620, Note_on_c, 1, 43, 45
3, 324282, Note_on_c, 1, 38, 35
3, 324431, Note_on_c, 1, 43, 0
3, 324487, Note_on_c, 1, 38, 0
3, 324565, Note_on_c, 1, 43, 48
3, 326170, Note_on_c, 1, 36, 57
3, 326261, Note_on_c, 1, 43, 0
3, 327412, Note_on_c, 1, 48, 62
3, 327540, Note_on_c, 1, 36, 0
3, 328031, Note_on_c, 1, 36, 33
3, 328335, Note_on_c, 1, 36, 0
3, 328361, Note_on_c, 1, 43, 34
3, 328417, Note_on_c, 1, 48, 0
3, 329359, Note_on_c, 1, 42, 53
3, 329415, Note_on_c, 1, 43, 0
3, 329975, Note_on_c, 1, 42, 0
3, 329986, Note_on_c, 1, 39, 43
3, 330260, Note_on_c, 1, 39, 0
3, 330295, Note_on_c, 1, 41, 52
3, 330940, Note_on_c, 1, 39, 35
3, 330951, Note_on_c, 1, 41, 0
3, 331175, Note_on_c, 1, 39, 0
3, 331257, Note_on_c, 1, 40, 40
3, 332210, Note_on_c, 1, 46, 66
3, 332301, Note_on_c, 1, 40, 0
3, 333196, Note_on_c, 1, 34, 52
3, 333209, Note_on_c, 1, 46, 0
3, 335018, Note_on_c, 1, 34, 0
3, 335055, Note_on_c, 1, 33, 51
3, 335767, Note_on_c, 1, 37, 60
3, 335900, Note_on_c, 1, 33, 0
3, 336345, Note_on_c, 1, 37, 0
3, 336444, Note_on_c, 1, 40, 39
3, 336530, Note_on_c, 1, 40, 0
3, 336729, Note_on_c, 1, 37, 43
3, 337015, Note_on_c, 1, 37, 0
3, 337087, Note_on_c, 1, 38, 49
3, 339535, Note_on_c, 1, 45, 85
3, 339807, Note_on_c, 1, 45, 0
3, 340111, Note_on_c, 1, 44, 62
3, 340213, Note_on_c, 1, 38, 0
3, 340530, Note_on_c, 1, 38, 33
3, 340655, Note_on_c, 1, 44, 0
3, 340661, Note_on_c, 1, 38, 0
3, 340828, Note_on_c, 1, 43, 37
3, 342357, Note_on_c, 1, 43, 0
3, 342401, Note_on_c, 1, 41, 58
3, 342727, Note_on_c, 1, 41, 0
3, 342810, Note_on_c, 1, 40, 25
3, 343391, Note_on_c, 1, 35, 46
3, 343557, Note_on_c, 1, 35, 0
3, 343588, Note_on_c, 1, 40, 0
3, 343741, Note_on_c, 1, 32, 52
3, 345612, Note_on_c, 1, 32, 0
3, 345623, Note_on_c, 1, 33, 50
3, 346605, Note_on_c, 1, 46, 57
3, 346881, Note_on_c, 1, 33, 0
3, 347262, Note_on_c, 1, 33, 37
3, 347405, Note_on_c, 1, 33, 0
3, 347476, Note_on_c, 1, 46, 0
3, 347585, Note_on_c, 1, 45, 41
3, 348212, Note_on_c, 1, 37, 40
3, 348258, Note_on_c, 1, 45, 0
3, 348533, Note_on_c, 1, 37, 0
3, 348553, Note_on_c, 1, 38, 51
3, 351417, Note_on_c, 1, 38, 0
3, 351436, Note_on_c, 1, 43, 76
3, 353738, Note_on_c, 1, 36, 38
3, 353821, Note_on_c, 1, 36, 0
3, 354029, Note_on_c, 1, 35, 53
3, 354237, Note_on_c, 1, 35, 0
3, 354301, Note_on_c, 1, 43, 0
3, 354343, Note_on_c, 1, 34, 71
3, 356769, Note_on_c, 1, 32, 53
3, 356940, Note_on_c, 1, 34, 0
3, 357039, Note_on_c, 1, 32, 0
3, 357101, Note_on_c, 1, 33, 51
3, 357391, Note_on_c, 1, 47, 42
3, 357609, Note_on_c, 1, 47, 0
3, 357721, Note_on_c, 1, 48, 46
3, 357961, Note_on_c, 1, 48, 0
3, 358082, Note_on_c, 1, 49, 66
3, 359717, Note_on_c, 1, 37, 50
3, 359754, Note_on_c, 1, 33, 0
3, 359959, Note_on_c, 1, 49, 0
3, 360015, Note_on_c, 1, 37, 0
3, 360052, Note_on_c, 1, 38, 62
3, 360825, Note_on_c, 1, 37, 26
3, 360980, Note_on_c, 1, 37, 0
3, 361021, Note_on_c, 1, 48, 82
3, 361890, Note_on_c, 1, 38, 0
3, 361929, Note_on_c, 1, 48, 0
3, 361954, Note_on_c, 1, 45, 66
3, 362561, Note_on_c, 1, 37, 29
3, 362617, Note_on_c, 1, 37, 0
3, 362858, Note_on_c, 1, 45, 0
3, 362887, Note_on_c, 1, 43, 45
3, 363826, Note_on_c, 1, 43, 0
3, 363861, Note_on_c, 1, 31, 77
3, 365764, Note_on_c, 1, 31, 0
3, 365802, Note_on_c, 1, 36, 49
3, 366772, Note_on_c, 1, 43, 26
3, 367023, Note_on_c, 1, 43, 0
3, 367405, Note_on_c, 1, 45, 63
3, 367674, Note_on_c, 1, 45, 0
3, 367765, Note_on_c, 1, 43, 33
3, 367961, Note_on_c, 1, 36, 0
3, 368385, Note_on_c, 1, 31, 62
3, 368714, Note_on_c, 1, 31, 0
3, 368796, Note_on_c, 1, 31, 73
3, 368879, Note_on_c, 1, 43, 0
3, 369692, Note_on_c, 1, 43, 77
3, 370189, Note_on_c, 1, 31, 0
3, 370493, Note_on_c, 1, 43, 0
3, 370596, Note_on_c, 1, 43, 72
3, 371204, Note_on_c, 1, 43, 0
3, 371520, Note_on_c, 1, 36, 41
3, 372990, Note_on_c, 1, 50, 72
3, 373233, Note_on_c, 1, 48, 67
3, 373248, Note_on_c, 1, 50, 0
3, 373470, Note_on_c, 1, 48, 0
3, 373531, Note_on_c, 1, 50, 67
3, 375024, Note_on_c, 1, 48, 49
3, 375091, Note_on_c, 1, 50, 0
3, 375224, Note_on_c, 1, 48, 0
3, 375254, Note_on_c, 1, 47, 52
3, 375363, Note_on_c, 1, 36, 0
3, 375454, Note_on_c, 1, 47, 0
3, 375528, Note_on_c, 1, 48, 59
3, 376214, Note_on_c, 1, 48, 0
3, 376230, Note_on_c, 1, 47, 53
3, 376478, Note_on_c, 1, 47, 0
3, 376513, Note_on_c, 1, 45, 37
3, 376710, Note_on_c, 1, 45, 0
3, 376840, Note_on_c, 1, 47, 73
3, 377633, Note_on_c, 1, 45, 54
3, 377672, Note_on_c, 1, 47, 0
3, 377824, Note_on_c, 1, 45, 0
3, 377889, Note_on_c, 1, 43, 27
3, 378052, Note_on_c, 1, 43, 0
3, 378152, Note_on_c, 1, 45, 51
3, 379768, Note_on_c, 1, 45, 0
3, 379796, Note_on_c, 1, 43, 35
3, 380193, Note_on_c, 1, 43, 0
3, 380206, Note_on_c, 1, 31, 35
3, 382052, Note_on_c, 1, 31, 0
3, 382081, Note_on_c, 1, 34, 51
3, 382267, Note_on_c, 1, 34, 0
3, 382408, Note_on_c, 1, 35, 51
3, 382638, Note_on_c, 1, 35, 0
3, 382705, Note_on_c, 1, 38, 71
3, 382995, Note_on_c, 1, 38, 0
3, 383048, Note_on_c, 1, 35, 58
3, 383628, Note_on_c, 1, 35, 0
3, 383678, Note_on_c, 1, 36, 69
3, 384123, Note_on_c, 1, 43, 38
3, 384395, Note_on_c, 1, 43, 0
3, 384609, Note_on_c, 1, 45, 82
3, 384820, Note_on_c, 1, 45, 0
3, 384964, Note_on_c, 1, 48, 65
3, 385411, Note_on_c, 1, 48, 0
3, 385428, Note_on_c, 1, 36, 0
3, 385505, Note_on_c, 1, 50, 60
3, 385814, Note_on_c, 1, 50, 0
3, 385923, Note_on_c, 1, 47, 60
3, 386752, Note_on_c, 1, 47, 0
3, 386806, Note_on_c, 1, 43, 40
3, 389027, Note_on_c, 1, 43, 0
3, 390371, Note_on_c, 1, 40, 35
3, 390571, Note_on_c, 1, 40, 0
3, 390742, Note_on_c, 1, 46, 31
3, 390848, Note_on_c, 1, 46, 0
3, 391049, Note_on_c, 1, 50, 57
3, 391190, Note_on_c, 1, 50, 0
3, 391337, Note_on_c, 1, 53, 86
3, 391680, Note_on_c, 1, 52, 66
3, 391681, Note_on_c, 1, 53, 0
3, 392004, Note_on_c, 1, 52, 0
3, 392278, Note_on_c, 1, 50, 75
3, 392476, Note_on_c, 1, 50, 0
3, 392697, Note_on_c, 1, 49, 43
3, 392988, Note_on_c, 1, 49, 0
3, 393224, Note_on_c, 1, 46, 52
3, 393526, Note_on_c, 1, 46, 0
3, 393636, Note_on_c, 1, 45, 48
3, 394054, Note_on_c, 1, 45, 0
3, 394206, Note_on_c, 1, 43, 38
3, 394492, Note_on_c, 1, 43, 0
3, 394529, Note_on_c, 1, 42, 32
3, 394585, Note_on_c, 1, 42, 0
3, 394635, Note_on_c, 1, 41, 58
3, 394982, Note_on_c, 1, 41, 0
3, 395179, Note_on_c, 1, 43, 49
3, 395464, Note_on_c, 1, 43, 0
3, 395548, Note_on_c, 1, 45, 41
3, 396056, Note_on_c, 1, 45, 0
3, 396142, Note_on_c, 1, 41, 41
3, 396353, Note_on_c, 1, 41, 0
3, 396566, Note_on_c, 1, 38, 31
3, 398808, Note_on_c, 1, 43, 32
3, 398908, Note_on_c, 1, 43, 0
3, 399097, Note_on_c, 1, 45, 64
3, 399283, Note_on_c, 1, 45, 0
3, 399412, Note_on_c, 1, 47, 77
3, 399704, Note_on_c, 1, 48, 67
3, 399731, Note_on_c, 1, 47, 0
3, 399820, Note_on_c, 1, 38, 0
3, 399884, Note_on_c, 1, 48, 0
3, 399998, Note_on_c, 1, 50, 78
3, 400260, Note_on_c, 1, 50, 0
3, 400348, Note_on_c, 1, 52, 89
3, 401132, Note_on_c, 1, 52, 0
3, 401260, Note_on_c, 1, 46, 38
3, 402876, Note_on_c, 1, 44, 48
3, 402944, Note_on_c, 1, 46, 0
3, 403126, Note_on_c, 1, 44, 0
3, 403204, Note_on_c, 1, 45, 58
3, 403268, Note_on_c, 1, 45, 0
3, 403545, Note_on_c, 1, 40, 41
3, 403739, Note_on_c, 1, 40, 0
3, 403862, Note_on_c, 1, 37, 44
3, 404052, Note_on_c, 1, 37, 0
3, 404235, Note_on_c, 1, 33, 55
3, 405648, Note_on_c, 1, 33, 0
3, 405715, Note_on_c, 1, 36, 44
3, 406033, Note_on_c, 1, 36, 0
3, 406102, Note_on_c, 1, 38, 48
3, 408937, Note_on_c, 1, 52, 85
3, 409094, Note_on_c, 1, 38, 0
3, 409257, Note_on_c, 1, 51, 73
3, 409321, Note_on_c, 1, 52, 0
3, 409513, Note_on_c, 1, 51, 0
3, 409569, Note_on_c, 1, 50, 75
3, 410257, Note_on_c, 1, 50, 0
3, 410329, Note_on_c, 1, 49, 50
3, 410603, Note_on_c, 1, 49, 0
3, 410614, Note_on_c, 1, 48, 56
3, 410859, Note_on_c, 1, 48, 0
3, 410996, Note_on_c, 1, 47, 47
3, 411534, Note_on_c, 1, 47, 0
3, 411584, Note_on_c, 1, 48, 67
3, 411936, Note_on_c, 1, 48, 0
3, 412038, Note_on_c, 1, 49, 51
3, 412780, Note_on_c, 1, 44, 46
3, 412796, Note_on_c, 1, 49, 0
3, 414297, Note_on_c, 1, 44, 0
3, 414688, Note_on_c, 1, 48, 69
3, 415248, Note_on_c, 1, 48, 0
3, 415336, Note_on_c, 1, 45, 61
3, 415622, Note_on_c, 1, 45, 0
3, 415740, Note_on_c, 1, 43, 28
3, 416944, Note_on_c, 1, 43, 0
3, 416988, Note_on_c, 1, 46, 19
3, 417008, Note_on_c, 1, 47, 59
3, 417084, Note_on_c, 1, 46, 0
3, 417212, Note_on_c, 1, 47, 0
3, 417275, Note_on_c, 1, 48, 72
3, 417526, Note_on_c, 1, 48, 0
3, 417595, Note_on_c, 1, 50, 72
3, 417827, Note_on_c, 1, 50, 0
3, 417915, Note_on_c, 1, 47, 54
3, 418091, Note_on_c, 1, 47, 0
3, 418238, Note_on_c, 1, 43, 43
3, 418868, Note_on_c, 1, 43, 0
3, 419081, Note_on_c, 1, 43, 9
3, 420812, Note_on_c, 1, 43, 0
3, 420889, Note_on_c, 1, 45, 65
3, 421051, Note_on_c, 1, 45, 0
3, 421153, Note_on_c, 1, 47, 73
3, 421377, Note_on_c, 1, 47, 0
3, 421464, Note_on_c, 1, 48, 69
3, 421646, Note_on_c, 1, 48, 0
3, 421756, Note_on_c, 1, 45, 48
3, 421931, Note_on_c, 1, 45, 0
3, 422086, Note_on_c, 1, 41, 52
3, 422678, Note_on_c, 1, 41, 0
3, 422696, Note_on_c, 1, 43, 37
3, 422876, Note_on_c, 1, 43, 0
3, 422980, Note_on_c, 1, 45, 69
3, 423200, Note_on_c, 1, 45, 0
3, 423284, Note_on_c, 1, 47, 75
3, 423556, Note_on_c, 1, 47, 0
3, 423633, Note_on_c, 1, 43, 25
3, 423792, Note_on_c, 1, 43, 0
3, 423931, Note_on_c, 1, 40, 54
3, 427000, Note_on_c, 1, 40, 0
3, 427763, Note_on_c, 1, 31, 43
3, 427972, Note_on_c, 1, 31, 0
3, 428153, Note_on_c, 1, 53, 80
3, 428444, Note_on_c, 1, 52, 76
3, 428524, Note_on_c, 1, 53, 0
3, 428734, Note_on_c, 1, 52, 0
3, 429755, Note_on_c, 1, 47, 42
3, 429912, Note_on_c, 1, 47, 0
3, 430120, Note_on_c, 1, 53, 72
3, 430654, Note_on_c, 1, 53, 0
3, 430731, Note_on_c, 1, 52, 65
3, 431040, Note_on_c, 1, 52, 0
3, 431324, Note_on_c, 1, 47, 49
3, 431643, Note_on_c, 1, 47, 0
3, 431748, Note_on_c, 1, 45, 28
3, 431828, Note_on_c, 1, 45, 0
3, 432104, Note_on_c, 1, 53, 54
3, 432192, Note_on_c, 1, 51, 24
3, 432248, Note_on_c, 1, 51, 0
3, 432987, Note_on_c, 1, 52, 61
3, 433030, Note_on_c, 1, 53, 0
3, 434473, Note_on_c, 1, 52, 0
3, 434481, Note_on_c, 1, 47, 52
3, 434758, Note_on_c, 1, 47, 0
3, 434905, Note_on_c, 1, 46, 57
3, 436259, Note_on_c, 1, 43, 38
3, 436380, Note_on_c, 1, 46, 0
3, 436422, Note_on_c, 1, 43, 0
3, 436507, Note_on_c, 1, 45, 75
3, 436766, Note_on_c, 1, 45, 0
3, 436832, Note_on_c, 1, 46, 78
3, 437110, Note_on_c, 1, 48, 68
3, 437126, Note_on_c, 1, 46, 0
3, 437398, Note_on_c, 1, 46, 65
3, 437473, Note_on_c, 1, 48, 0
3, 437654, Note_on_c, 1, 46, 0
3, 437761, Note_on_c, 1, 45, 46
3, 438758, Note_on_c, 1, 45, 0
3, 438772, Note_on_c, 1, 43, 36
3, 439291, Note_on_c, 1, 43, 0
3, 439337, Note_on_c, 1, 41, 48
3, 439617, Note_on_c, 1, 41, 0
3, 439779, Note_on_c, 1, 40, 29
3, 440180, Note_on_c, 1, 40, 0
3, 440345, Note_on_c, 1, 37, 37
3, 440710, Note_on_c, 1, 37, 0
3, 440752, Note_on_c, 1, 38, 46
3, 443344, Note_on_c, 1, 38, 0
3, 443953, Note_on_c, 1, 52, 67
3, 444128, Note_on_c, 1, 52, 0
3, 444224, Note_on_c, 1, 52, 73
3, 444452, Note_on_c, 1, 52, 0
3, 444536, Note_on_c, 1, 55, 66
3, 444713, Note_on_c, 1, 55, 0
3, 444809, Note_on_c, 1, 55, 74
3, 445088, Note_on_c, 1, 55, 0
3, 445163, Note_on_c, 1, 53, 61
3, 445372, Note_on_c, 1, 53, 0
3, 445788, Note_on_c, 1, 52, 61
3, 446017, Note_on_c, 1, 52, 0
3, 446072, Note_on_c, 1, 50, 60
3, 446312, Note_on_c, 1, 50, 0
3, 446406, Note_on_c, 1, 47, 55
3, 447339, Note_on_c, 1, 50, 47
3, 447374, Note_on_c, 1, 47, 0
3, 447952, Note_on_c, 1, 50, 0
3, 448025, Note_on_c, 1, 43, 37
3, 448649, Note_on_c, 1, 44, 54
3, 448705, Note_on_c, 1, 43, 0
3, 449254, Note_on_c, 1, 44, 0
3, 449297, Note_on_c, 1, 45, 56
3, 450752, Note_on_c, 1, 46, 64
3, 450854, Note_on_c, 1, 45, 0
3, 451134, Note_on_c, 1, 46, 0
3, 451136, Note_on_c, 1, 47, 57
3, 451422, Note_on_c, 1, 48, 57
3, 451424, Note_on_c, 1, 47, 0
3, 451582, Note_on_c, 1, 48, 0
3, 451734, Note_on_c, 1, 49, 73
3, 452046, Note_on_c, 1, 49, 0
3, 452088, Note_on_c, 1, 50, 51
3, 452273, Note_on_c, 1, 50, 0
3, 452430, Note_on_c, 1, 52, 53
3, 452632, Note_on_c, 1, 52, 0
3, 452737, Note_on_c, 1, 55, 77
3, 453000, Note_on_c, 1, 55, 0
3, 453080, Note_on_c, 1, 53, 45
3, 453329, Note_on_c, 1, 53, 0
3, 453438, Note_on_c, 1, 49, 43
3, 453670, Note_on_c, 1, 49, 0
3, 453752, Note_on_c, 1, 52, 58
3, 454088, Note_on_c, 1, 50, 25
3, 454089, Note_on_c, 1, 52, 0
3, 454294, Note_on_c, 1, 50, 0
3, 454409, Note_on_c, 1, 45, 51
3, 454627, Note_on_c, 1, 45, 0
3, 454758, Note_on_c, 1, 48, 72
3, 455057, Note_on_c, 1, 48, 0
3, 455065, Note_on_c, 1, 50, 52
3, 455294, Note_on_c, 1, 50, 0
3, 455752, Note_on_c, 1, 46, 61
3, 456088, Note_on_c, 1, 46, 0
3, 456137, Note_on_c, 1, 47, 45
3, 458555, Note_on_c, 1, 47, 0
3, 458596, Note_on_c, 1, 46, 85
3, 459321, Note_on_c, 1, 44, 70
3, 459401, Note_on_c, 1, 46, 0
3, 459912, Note_on_c, 1, 38, 56
3, 459920, Note_on_c, 1, 44, 0
3, 460996, Note_on_c, 1, 38, 0
3, 461544, Note_on_c, 1, 45, 80
3, 461846, Note_on_c, 1, 45, 0
3, 461929, Note_on_c, 1, 43, 37
3, 462296, Note_on_c, 1, 43, 0
3, 462572, Note_on_c, 1, 39, 66
3, 462774, Note_on_c, 1, 39, 0
3, 462976, Note_on_c, 1, 36, 34
3, 463404, Note_on_c, 1, 36, 0
3, 463504, Note_on_c, 1, 37, 56
3, 463793, Note_on_c, 1, 37, 0
3, 463884, Note_on_c, 1, 38, 46
3, 465078, Note_on_c, 1, 38, 0
3, 465124, Note_on_c, 1, 40, 61
3, 465289, Note_on_c, 1, 40, 0
3, 465361, Note_on_c, 1, 41, 58
3, 465534, Note_on_c, 1, 41, 0
3, 465657, Note_on_c, 1, 42, 54
3, 466227, Note_on_c, 1, 43, 61
3, 466233, Note_on_c, 1, 42, 0
3, 467448, Note_on_c, 1, 55, 53
3, 467449, Note_on_c, 1, 43, 0
3, 469033, Note_on_c, 1, 55, 0
3, 469070, Note_on_c, 1, 43, 58
3, 469441, Note_on_c, 1, 31, 63
3, 469470, Note_on_c, 1, 43, 0
3, 471067, Note_on_c, 1, 45, 106
3, 472016, Note_on_c, 1, 38, 57
3, 472156, Note_on_c, 1, 38, 0
3, 472369, Note_on_c, 1, 45, 0
3, 472417, Note_on_c, 1, 43, 81
3, 472484, Note_on_c, 1, 31, 0
3, 474001, Note_on_c, 1, 31, 86
3, 474052, Note_on_c, 1, 43, 0
3, 475224, Note_on_c, 1, 31, 0
3, 475296, Note_on_c, 1, 36, 84
3, 477545, Note_on_c, 1, 43, 55
3, 477782, Note_on_c, 1, 43, 0
3, 477795, Note_on_c, 1, 42, 51
3, 478003, Note_on_c, 1, 42, 0
3, 478084, Note_on_c, 1, 43, 33
3, 478161, Note_on_c, 1, 36, 0
3, 479017, Note_on_c, 1, 43, 0
3, 479044, Note_on_c, 1, 31, 61
3, 480604, Note_on_c, 1, 35, 45
3, 480891, Note_on_c, 1, 31, 0
3, 480910, Note_on_c, 1, 35, 0
3, 480976, Note_on_c, 1, 36, 72
3, 481947, Note_on_c, 1, 43, 35
3, 482684, Note_on_c, 1, 43, 0
3, 482884, Note_on_c, 1, 50, 67
3, 482900, Note_on_c, 1, 36, 0
3, 483556, Note_on_c, 1, 42, 40
3, 483731, Note_on_c, 1, 50, 0
3, 483792, Note_on_c, 1, 42, 0
3, 483873, Note_on_c, 1, 43, 32
3, 484833, Note_on_c, 1, 38, 21
3, 484921, Note_on_c, 1, 43, 0
3, 485736, Note_on_c, 1, 31, 54
3, 485756, Note_on_c, 1, 38, 0
3, 486604, Note_on_c, 1, 31, 0
3, 486688, Note_on_c, 1, 36, 65
3, 489272, Note_on_c, 1, 41, 41
3, 489371, Note_on_c, 1, 41, 0
3, 489588, Note_on_c, 1, 43, 81
3, 489673, Note_on_c, 1, 36, 0
3, 490521, Note_on_c, 1, 43, 0
3, 490555, Note_on_c, 1, 42, 58
3, 491447, Note_on_c, 1, 42, 0
3, 491483, Note_on_c, 1, 41, 58
3, 492166, Note_on_c, 1, 39, 36
3, 492305, Note_on_c, 1, 41, 0
3, 492366, Note_on_c, 1, 39, 0
3, 492470, Note_on_c, 1, 40, 37
3, 493086, Note_on_c, 1, 40, 0
3, 493097, Note_on_c, 1, 34, 49
3, 494686, Note_on_c, 1, 34, 0
3, 494729, Note_on_c, 1, 31, 41
3, 494953, Note_on_c, 1, 31, 0
3, 495030, Note_on_c, 1, 32, 60
3, 495238, Note_on_c, 1, 32, 0
3, 495353, Note_on_c, 1, 33, 63
3, 496604, Note_on_c, 1, 49, 55
3, 496784, Note_on_c, 1, 49, 0
3, 496892, Note_on_c, 1, 50, 65
3, 497163, Note_on_c, 1, 50, 0
3, 497214, Note_on_c, 1, 52, 60
3, 497545, Note_on_c, 1, 52, 0
3, 497563, Note_on_c, 1, 49, 31
3, 497779, Note_on_c, 1, 49, 0
3, 497862, Note_on_c, 1, 50, 79
3, 498206, Note_on_c, 1, 33, 0
3, 498473, Note_on_c, 1, 45, 67
3, 498497, Note_on_c, 1, 50, 0
3, 499057, Note_on_c, 1, 45, 0
3, 499150, Note_on_c, 1, 41, 51
3, 500126, Note_on_c, 1, 38, 39
3, 500134, Note_on_c, 1, 41, 0
3, 501094, Note_on_c, 1, 38, 0
3, 501116, Note_on_c, 1, 31, 36
3, 503630, Note_on_c, 1, 39, 39
3, 503633, Note_on_c, 1, 31, 0
3, 503963, Note_on_c, 1, 39, 0
3, 504003, Note_on_c, 1, 40, 37
3, 504614, Note_on_c, 1, 52, 90
3, 504940, Note_on_c, 1, 52, 0
3, 505020, Note_on_c, 1, 53, 72
3, 505491, Note_on_c, 1, 53, 0
3, 505576, Note_on_c, 1, 52, 75
3, 505860, Note_on_c, 1, 52, 0
3, 506003, Note_on_c, 1, 50, 53
3, 506393, Note_on_c, 1, 50, 0
3, 506532, Note_on_c, 1, 48, 63
3, 506841, Note_on_c, 1, 48, 0
3, 507024, Note_on_c, 1, 47, 62
3, 507436, Note_on_c, 1, 47, 0
3, 507496, Note_on_c, 1, 50, 62
3, 507760, Note_on_c, 1, 40, 0
3, 507798, Note_on_c, 1, 50, 0
3, 507886, Note_on_c, 1, 48, 52
3, 508448, Note_on_c, 1, 45, 50
3, 508497, Note_on_c, 1, 48, 0
3, 509124, Note_on_c, 1, 40, 37
3, 509137, Note_on_c, 1, 45, 0
3, 509315, Note_on_c, 1, 40, 0
3, 509411, Note_on_c, 1, 37, 41
3, 509660, Note_on_c, 1, 37, 0
3, 509753, Note_on_c, 1, 38, 51
3, 511019, Note_on_c, 1, 52, 26
3, 511179, Note_on_c, 1, 52, 0
3, 511302, Note_on_c, 1, 53, 41
3, 511600, Note_on_c, 1, 53, 0
3, 511672, Note_on_c, 1, 54, 64
3, 512587, Note_on_c, 1, 50, 42
3, 512632, Note_on_c, 1, 54, 0
3, 514608, Note_on_c, 1, 45, 65
3, 514668, Note_on_c, 1, 38, 0
3, 515451, Note_on_c, 1, 50, 0
3, 515537, Note_on_c, 1, 45, 0
3, 515568, Note_on_c, 1, 44, 51
3, 516860, Note_on_c, 1, 44, 0
3, 517134, Note_on_c, 1, 60, 72
3, 517185, Note_on_c, 1, 44, 53
3, 518151, Note_on_c, 1, 42, 31
3, 518359, Note_on_c, 1, 60, 0
3, 518364, Note_on_c, 1, 44, 0
3, 518395, Note_on_c, 1, 42, 0
3, 518465, Note_on_c, 1, 59, 44
3, 518471, Note_on_c, 1, 43, 31
3, 519995, Note_on_c, 1, 31, 58
3, 520254, Note_on_c, 1, 59, 0
3, 521275, Note_on_c, 1, 31, 0
3, 521300, Note_on_c, 1, 43, 0
3, 521303, Note_on_c, 1, 36, 59
3, 522271, Note_on_c, 1, 45, 67
3, 523238, Note_on_c, 1, 43, 34
3, 523308, Note_on_c, 1, 45, 0
3, 523344, Note_on_c, 1, 36, 0
3, 523851, Note_on_c, 1, 31, 55
3, 524136, Note_on_c, 1, 31, 0
3, 524227, Note_on_c, 1, 31, 69
3, 524268, Note_on_c, 1, 43, 0
3, 526152, Note_on_c, 1, 45, 89
3, 526766, Note_on_c, 1, 43, 54
3, 526841, Note_on_c, 1, 31, 0
3, 526883, Note_on_c, 1, 45, 0
3, 527148, Note_on_c, 1, 36, 56
3, 527272, Note_on_c, 1, 43, 0
3, 528075, Note_on_c, 1, 45, 85
3, 528992, Note_on_c, 1, 36, 0
3, 528998, Note_on_c, 1, 43, 51
3, 529030, Note_on_c, 1, 45, 0
3, 529608, Note_on_c, 1, 31, 66
3, 529985, Note_on_c, 1, 31, 0
3, 530003, Note_on_c, 1, 43, 0
3, 530073, Note_on_c, 1, 31, 72
3, 531862, Note_on_c, 1, 45, 86
3, 532462, Note_on_c, 1, 45, 0
3, 532468, Note_on_c, 1, 43, 63
3, 532753, Note_on_c, 1, 31, 0
3, 532849, Note_on_c, 1, 36, 76
3, 532910, Note_on_c, 1, 43, 0
3, 535712, Note_on_c, 1, 41, 76
3, 535729, Note_on_c, 1, 36, 0
3, 538508, Note_on_c, 1, 41, 0
3, 538552, Note_on_c, 1, 40, 56
3, 539539, Note_on_c, 1, 46, 73
3, 539544, Note_on_c, 1, 40, 0
3, 540481, Note_on_c, 1, 34, 62
3, 540483, Note_on_c, 1, 46, 0
3, 541350, Note_on_c, 1, 34, 0
3, 541425, Note_on_c, 1, 33, 71
3, 543761, Note_on_c, 1, 40, 52
3, 543880, Note_on_c, 1, 33, 0
3, 543921, Note_on_c, 1, 40, 0
3, 544040, Note_on_c, 1, 37, 63
3, 544273, Note_on_c, 1, 37, 0
3, 544371, Note_on_c, 1, 38, 72
3, 546241, Note_on_c, 1, 45, 83
3, 546278, Note_on_c, 1, 46, 41
3, 546334, Note_on_c, 1, 46, 0
3, 546388, Note_on_c, 1, 38, 0
3, 546886, Note_on_c, 1, 38, 38
3, 547043, Note_on_c, 1, 38, 0
3, 547139, Note_on_c, 1, 45, 0
3, 547208, Note_on_c, 1, 43, 51
3, 549742, Note_on_c, 1, 41, 45
3, 549771, Note_on_c, 1, 43, 0
3, 549992, Note_on_c, 1, 41, 0
3, 550096, Note_on_c, 1, 40, 41
3, 551057, Note_on_c, 1, 47, 75
3, 551936, Note_on_c, 1, 47, 0
3, 551998, Note_on_c, 1, 46, 58
3, 552043, Note_on_c, 1, 40, 0
3, 552948, Note_on_c, 1, 46, 0
3, 552952, Note_on_c, 1, 45, 57
3, 552984, Note_on_c, 1, 47, 38
3, 553056, Note_on_c, 1, 47, 0
3, 553516, Note_on_c, 1, 45, 0
3, 553609, Note_on_c, 1, 40, 25
3, 553852, Note_on_c, 1, 40, 0
3, 553936, Note_on_c, 1, 33, 57
3, 554793, Note_on_c, 1, 33, 0
3, 554868, Note_on_c, 1, 37, 53
3, 555732, Note_on_c, 1, 37, 0
3, 555812, Note_on_c, 1, 38, 65
3, 558718, Note_on_c, 1, 43, 42
3, 558900, Note_on_c, 1, 43, 0
3, 558982, Note_on_c, 1, 45, 52
3, 559265, Note_on_c, 1, 45, 0
3, 559316, Note_on_c, 1, 43, 55
3, 561008, Note_on_c, 1, 38, 0
3, 561612, Note_on_c, 1, 43, 0
3, 561624, Note_on_c, 1, 34, 54
3, 563251, Note_on_c, 1, 40, 61
3, 563513, Note_on_c, 1, 34, 0
3, 563902, Note_on_c, 1, 34, 56
3, 564081, Note_on_c, 1, 34, 0
3, 564102, Note_on_c, 1, 40, 0
3, 564203, Note_on_c, 1, 32, 61
3, 564433, Note_on_c, 1, 32, 0
3, 564505, Note_on_c, 1, 33, 66
3, 566310, Note_on_c, 1, 33, 0
3, 566336, Note_on_c, 1, 37, 63
3, 566982, Note_on_c, 1, 34, 46
3, 567222, Note_on_c, 1, 37, 0
3, 567294, Note_on_c, 1, 34, 0
3, 567331, Note_on_c, 1, 38, 64
3, 568329, Note_on_c, 1, 40, 58
3, 568736, Note_on_c, 1, 40, 0
3, 569310, Note_on_c, 1, 41, 55
3, 569792, Note_on_c, 1, 38, 0
3, 570176, Note_on_c, 1, 41, 0
3, 570227, Note_on_c, 1, 43, 34
3, 571169, Note_on_c, 1, 31, 36
3, 571249, Note_on_c, 1, 43, 0
3, 572129, Note_on_c, 1, 43, 28
3, 572132, Note_on_c, 1, 31, 0
3, 573080, Note_on_c, 1, 55, 31
3, 574582, Note_on_c, 1, 55, 0
3, 574750, Note_on_c, 1, 55, 35
3, 575862, Note_on_c, 1, 55, 0
3, 576064, Note_on_c, 1, 55, 38
3, 577331, Note_on_c, 1, 55, 0
3, 577584, Note_on_c, 1, 55, 26
3, 577840, Note_on_c, 1, 43, 0
3, 578691, Note_on_c, 1, 55, 0
3, 578900, Note_on_c, 1, 55, 26
3, 580288, Note_on_c, 1, 55, 0
3, 580473, Note_on_c, 1, 55, 26
3, 581622, Note_on_c, 1, 55, 0
3, 581825, Note_on_c, 1, 55, 25
3, 583132, Note_on_c, 1, 55, 0
3, 583344, Note_on_c, 1, 55, 26
3, 584510, Note_on_c, 1, 55, 0
3, 584718, Note_on_c, 1, 55, 25
3, 585892, Note_on_c, 1, 55, 0
3, 586198, Note_on_c, 1, 55, 20
3, 587267, Note_on_c, 1, 55, 0
3, 587545, Note_on_c, 1, 55, 22
3, 588843, Note_on_c, 1, 55, 0
3, 589161, Note_on_c, 1, 55, 19
3, 590161, Note_on_c, 1, 55, 0
3, 590403, Note_on_c, 1, 55, 12
3, 591660, Note_on_c, 1, 55, 0
3, 591942, Note_on_c, 1, 55, 9
3, 593081, Note_on_c, 1, 55, 0
3, 593308, Note_on_c, 1, 55, 2
3, 595859, Note_on_c, 1, 55, 0
3, 595859, End_track
0, 0, End_of_file
