0, 0, Header, 0, 1, 120
1, 0, Start_track
1, 0, Title_t, "SonnyMoon For 2 Piano solo"
1, 0, Text_t, "Sonny Rollins"
1, 0, Text_t, "dougmck@pipeline.com.au \012"
1, 0, Time_signature, 4, 2, 24, 8
1, 0, Key_signature, -2, "major"
1, 0, Tempo, 428571
1, 0, Marker_t, "4th voicings on 1st bar"
1, 21, Control_c, 0, 64, 127
1, 32, Control_c, 0, 64, 0
1, 84, Note_on_c, 0, 34, 83
1, 85, Note_on_c, 0, 77, 74
1, 85, Note_on_c, 0, 82, 81
1, 86, Note_on_c, 0, 72, 57
1, 86, Note_on_c, 0, 22, 74
1, 117, Control_c, 0, 64, 127
1, 161, Note_on_c, 0, 22, 0
1, 168, Note_on_c, 0, 34, 0
1, 173, Note_on_c, 0, 82, 0
1, 177, Note_on_c, 0, 72, 0
1, 180, Note_on_c, 0, 77, 0
1, 237, Control_c, 0, 64, 0
1, 244, Note_on_c, 0, 80, 60
1, 245, Note_on_c, 0, 38, 52
1, 246, Note_on_c, 0, 70, 47
1, 246, Note_on_c, 0, 26, 54
1, 247, Note_on_c, 0, 75, 57
1, 260, Note_on_c, 0, 38, 0
1, 261, Note_on_c, 0, 26, 0
1, 265, Note_on_c, 0, 80, 0
1, 267, Note_on_c, 0, 75, 0
1, 269, Note_on_c, 0, 70, 0
1, 358, Note_on_c, 0, 38, 45
1, 358, Note_on_c, 0, 77, 45
1, 359, Note_on_c, 0, 26, 42
1, 360, Note_on_c, 0, 67, 37
1, 361, Note_on_c, 0, 72, 48
1, 377, Note_on_c, 0, 67, 0
1, 379, Note_on_c, 0, 72, 0
1, 383, Note_on_c, 0, 26, 0
1, 383, Note_on_c, 0, 77, 0
1, 390, Note_on_c, 0, 38, 0
1, 480, Note_on_c, 0, 75, 49
1, 481, Note_on_c, 0, 27, 47
1, 482, Note_on_c, 0, 39, 39
1, 483, Note_on_c, 0, 70, 48
1, 484, Note_on_c, 0, 64, 20
1, 510, Note_on_c, 0, 75, 0
1, 512, Note_on_c, 0, 70, 0
1, 514, Note_on_c, 0, 64, 0
1, 515, Note_on_c, 0, 27, 0
1, 517, Note_on_c, 0, 39, 0
1, 600, Note_on_c, 0, 73, 80
1, 601, Note_on_c, 0, 27, 76
1, 601, Note_on_c, 0, 39, 85
1, 602, Note_on_c, 0, 70, 75
1, 603, Note_on_c, 0, 67, 75
1, 603, Note_on_c, 0, 64, 79
1, 625, Control_c, 0, 64, 127
1, 660, Note_on_c, 0, 67, 0
1, 663, Note_on_c, 0, 70, 0
1, 664, Note_on_c, 0, 73, 0
1, 677, Note_on_c, 0, 64, 0
1, 690, Note_on_c, 0, 27, 0
1, 691, Note_on_c, 0, 39, 0
1, 714, Control_c, 0, 64, 0
1, 725, Note_on_c, 0, 70, 46
1, 726, Note_on_c, 0, 40, 47
1, 727, Note_on_c, 0, 61, 42
1, 728, Note_on_c, 0, 28, 45
1, 728, Note_on_c, 0, 67, 42
1, 728, Note_on_c, 0, 64, 49
1, 781, Note_on_c, 0, 28, 0
1, 781, Note_on_c, 0, 61, 0
1, 783, Note_on_c, 0, 64, 0
1, 785, Note_on_c, 0, 40, 0
1, 786, Note_on_c, 0, 67, 0
1, 787, Note_on_c, 0, 70, 0
1, 803, Note_on_c, 0, 40, 59
1, 803, Note_on_c, 0, 28, 54
1, 804, Note_on_c, 0, 61, 56
1, 805, Note_on_c, 0, 70, 49
1, 806, Note_on_c, 0, 67, 35
1, 808, Note_on_c, 0, 64, 49
1, 829, Note_on_c, 0, 40, 0
1, 830, Note_on_c, 0, 61, 0
1, 831, Note_on_c, 0, 64, 0
1, 832, Note_on_c, 0, 28, 0
1, 834, Note_on_c, 0, 70, 0
1, 835, Note_on_c, 0, 67, 0
1, 851, Note_on_c, 0, 28, 40
1, 853, Note_on_c, 0, 61, 32
1, 853, Note_on_c, 0, 40, 39
1, 855, Note_on_c, 0, 67, 39
1, 856, Note_on_c, 0, 70, 31
1, 857, Note_on_c, 0, 64, 31
1, 869, Note_on_c, 0, 64, 0
1, 895, Note_on_c, 0, 67, 0
1, 896, Note_on_c, 0, 28, 0
1, 898, Note_on_c, 0, 61, 0
1, 902, Note_on_c, 0, 70, 0
1, 906, Note_on_c, 0, 40, 0
1, 924, Note_on_c, 0, 70, 48
1, 924, Note_on_c, 0, 29, 51
1, 925, Note_on_c, 0, 41, 60
1, 927, Note_on_c, 0, 62, 66
1, 928, Note_on_c, 0, 65, 74
1, 956, Note_on_c, 0, 62, 0
1, 957, Note_on_c, 0, 65, 0
1, 960, Note_on_c, 0, 70, 0
1, 961, Note_on_c, 0, 41, 0
1, 961, Note_on_c, 0, 29, 0
1, 1038, Note_on_c, 0, 62, 45
1, 1039, Note_on_c, 0, 77, 65
1, 1039, Note_on_c, 0, 56, 42
1, 1039, Note_on_c, 0, 82, 62
1, 1039, Note_on_c, 0, 72, 55
1, 1040, Control_c, 0, 64, 127
1, 1043, Note_on_c, 0, 67, 20
1, 1049, Note_on_c, 0, 67, 0
1, 1051, Note_on_c, 0, 72, 0
1, 1054, Note_on_c, 0, 77, 0
1, 1055, Note_on_c, 0, 82, 0
1, 1056, Note_on_c, 0, 56, 0
1, 1057, Note_on_c, 0, 62, 0
1, 1071, Control_c, 0, 64, 0
1, 1077, Note_on_c, 0, 62, 46
1, 1077, Note_on_c, 0, 56, 42
1, 1078, Note_on_c, 0, 73, 65
1, 1079, Note_on_c, 0, 85, 69
1, 1080, Note_on_c, 0, 67, 35
1, 1089, Note_on_c, 0, 67, 0
1, 1090, Note_on_c, 0, 73, 0
1, 1093, Note_on_c, 0, 85, 0
1, 1093, Note_on_c, 0, 62, 0
1, 1098, Note_on_c, 0, 56, 0
1, 1149, Note_on_c, 0, 57, 68
1, 1149, Note_on_c, 0, 75, 83
1, 1150, Note_on_c, 0, 87, 83
1, 1150, Note_on_c, 0, 63, 57
1, 1151, Note_on_c, 0, 68, 69
1, 1207, Control_c, 0, 64, 127
1, 1286, Note_on_c, 0, 87, 0
1, 1286, Note_on_c, 0, 75, 0
1, 1289, Note_on_c, 0, 57, 0
1, 1295, Note_on_c, 0, 68, 0
1, 1301, Note_on_c, 0, 63, 0
1, 1311, Note_on_c, 0, 85, 40
1, 1315, Control_c, 0, 64, 0
1, 1315, Note_on_c, 0, 68, 26
1, 1315, Note_on_c, 0, 73, 30
1, 1316, Note_on_c, 0, 57, 42
1, 1318, Note_on_c, 0, 63, 32
1, 1352, Note_on_c, 0, 85, 0
1, 1354, Note_on_c, 0, 57, 0
1, 1370, Note_on_c, 0, 73, 0
1, 1372, Note_on_c, 0, 68, 0
1, 1384, Note_on_c, 0, 63, 0
1, 1388, Note_on_c, 0, 82, 49
1, 1389, Note_on_c, 0, 67, 44
1, 1389, Note_on_c, 0, 56, 39
1, 1390, Note_on_c, 0, 70, 47
1, 1392, Note_on_c, 0, 62, 43
1, 1398, Note_on_c, 0, 70, 0
1, 1398, Note_on_c, 0, 67, 0
1, 1400, Note_on_c, 0, 62, 0
1, 1402, Note_on_c, 0, 56, 0
1, 1402, Note_on_c, 0, 82, 0
1, 1488, Control_c, 0, 64, 127
1, 1503, Note_on_c, 0, 62, 51
1, 1504, Note_on_c, 0, 70, 69
1, 1504, Note_on_c, 0, 82, 72
1, 1504, Note_on_c, 0, 56, 47
1, 1504, Note_on_c, 0, 67, 47
1, 1512, Note_on_c, 0, 67, 0
1, 1514, Note_on_c, 0, 70, 0
1, 1517, Note_on_c, 0, 62, 0
1, 1518, Note_on_c, 0, 56, 0
1, 1519, Note_on_c, 0, 82, 0
1, 1537, Control_c, 0, 64, 0
1, 1542, Note_on_c, 0, 57, 73
1, 1543, Note_on_c, 0, 73, 78
1, 1544, Note_on_c, 0, 68, 69
1, 1544, Note_on_c, 0, 63, 57
1, 1544, Note_on_c, 0, 85, 81
1, 1579, Note_on_c, 0, 73, 0
1, 1580, Note_on_c, 0, 57, 0
1, 1582, Note_on_c, 0, 68, 0
1, 1583, Control_c, 0, 64, 127
1, 1586, Note_on_c, 0, 63, 0
1, 1586, Note_on_c, 0, 85, 0
1, 1610, Control_c, 0, 64, 0
1, 1614, Note_on_c, 0, 57, 85
1, 1615, Note_on_c, 0, 68, 90
1, 1615, Note_on_c, 0, 63, 77
1, 1616, Note_on_c, 0, 75, 94
1, 1616, Note_on_c, 0, 87, 98
1, 1665, Control_c, 0, 64, 127
1, 1716, Note_on_c, 0, 87, 0
1, 1724, Note_on_c, 0, 57, 0
1, 1731, Note_on_c, 0, 75, 0
1, 1737, Note_on_c, 0, 68, 0
1, 1756, Note_on_c, 0, 63, 0
1, 1787, Control_c, 0, 64, 0
1, 1790, Note_on_c, 0, 85, 57
1, 1791, Note_on_c, 0, 73, 40
1, 1791, Note_on_c, 0, 62, 41
1, 1792, Note_on_c, 0, 56, 43
1, 1793, Note_on_c, 0, 67, 27
1, 1808, Note_on_c, 0, 67, 0
1, 1818, Note_on_c, 0, 62, 0
1, 1820, Note_on_c, 0, 85, 0
1, 1840, Note_on_c, 0, 73, 0
1, 1856, Note_on_c, 0, 56, 0
1, 1863, Note_on_c, 0, 82, 52
1, 1866, Note_on_c, 0, 55, 62
1, 1867, Note_on_c, 0, 70, 36
1, 1868, Note_on_c, 0, 61, 57
1, 1868, Note_on_c, 0, 65, 50
1, 1872, Note_on_c, 0, 70, 0
1, 1874, Note_on_c, 0, 65, 0
1, 1874, Note_on_c, 0, 82, 0
1, 1875, Note_on_c, 0, 55, 0
1, 1878, Note_on_c, 0, 61, 0
1, 2010, Note_on_c, 0, 82, 88
1, 2011, Note_on_c, 0, 70, 93
1, 2012, Note_on_c, 0, 39, 93
1, 2013, Note_on_c, 0, 27, 87
1, 2016, Note_on_c, 0, 75, 45
1, 2021, Note_on_c, 0, 75, 0
1, 2033, Control_c, 0, 64, 127
1, 2048, Control_c, 0, 64, 0
1, 2074, Control_c, 0, 64, 127
1, 2106, Note_on_c, 0, 27, 0
1, 2111, Note_on_c, 0, 39, 0
1, 2118, Note_on_c, 0, 82, 0
1, 2132, Note_on_c, 0, 70, 0
1, 2160, Control_c, 0, 64, 0
1, 2175, Note_on_c, 0, 80, 53
1, 2175, Note_on_c, 0, 41, 54
1, 2176, Note_on_c, 0, 68, 45
1, 2177, Note_on_c, 0, 29, 36
1, 2179, Note_on_c, 0, 75, 51
1, 2188, Note_on_c, 0, 29, 0
1, 2189, Note_on_c, 0, 41, 0
1, 2197, Note_on_c, 0, 68, 0
1, 2199, Note_on_c, 0, 80, 0
1, 2200, Note_on_c, 0, 75, 0
1, 2288, Note_on_c, 0, 41, 57
1, 2289, Note_on_c, 0, 77, 53
1, 2291, Note_on_c, 0, 29, 39
1, 2292, Note_on_c, 0, 72, 45
1, 2310, Note_on_c, 0, 72, 0
1, 2314, Note_on_c, 0, 77, 0
1, 2322, Note_on_c, 0, 29, 0
1, 2324, Note_on_c, 0, 41, 0
1, 2407, Note_on_c, 0, 75, 56
1, 2408, Note_on_c, 0, 64, 47
1, 2408, Note_on_c, 0, 67, 39
1, 2408, Note_on_c, 0, 31, 42
1, 2409, Note_on_c, 0, 70, 45
1, 2410, Note_on_c, 0, 43, 33
1, 2436, Note_on_c, 0, 75, 0
1, 2438, Note_on_c, 0, 43, 0
1, 2440, Note_on_c, 0, 67, 0
1, 2441, Note_on_c, 0, 31, 0
1, 2443, Note_on_c, 0, 70, 0
1, 2445, Note_on_c, 0, 64, 0
1, 2518, Note_on_c, 0, 73, 55
1, 2521, Note_on_c, 0, 43, 44
1, 2522, Note_on_c, 0, 70, 44
1, 2522, Note_on_c, 0, 31, 45
1, 2523, Note_on_c, 0, 64, 32
1, 2524, Note_on_c, 0, 67, 32
1, 2535, Note_on_c, 0, 31, 0
1, 2535, Note_on_c, 0, 43, 0
1, 2559, Note_on_c, 0, 70, 0
1, 2559, Note_on_c, 0, 67, 0
1, 2561, Note_on_c, 0, 73, 0
1, 2567, Note_on_c, 0, 64, 0
1, 2643, Note_on_c, 0, 70, 59
1, 2644, Note_on_c, 0, 28, 58
1, 2644, Note_on_c, 0, 61, 55
1, 2645, Note_on_c, 0, 40, 56
1, 2646, Note_on_c, 0, 64, 60
1, 2646, Note_on_c, 0, 67, 48
1, 2697, Note_on_c, 0, 28, 0
1, 2699, Note_on_c, 0, 70, 0
1, 2701, Note_on_c, 0, 40, 0
1, 2709, Note_on_c, 0, 61, 0
1, 2711, Note_on_c, 0, 67, 0
1, 2711, Note_on_c, 0, 64, 0
1, 2720, Control_c, 0, 64, 127
1, 2720, Note_on_c, 0, 70, 60
1, 2721, Note_on_c, 0, 28, 51
1, 2721, Note_on_c, 0, 40, 38
1, 2742, Note_on_c, 0, 40, 0
1, 2746, Note_on_c, 0, 28, 0
1, 2748, Note_on_c, 0, 70, 0
1, 2751, Control_c, 0, 64, 0
1, 2759, Note_on_c, 0, 28, 13
1, 2766, Note_on_c, 0, 40, 30
1, 2768, Note_on_c, 0, 67, 30
1, 2777, Note_on_c, 0, 61, 11
1, 2799, Control_c, 0, 64, 127
1, 2800, Note_on_c, 0, 28, 0
1, 2810, Note_on_c, 0, 40, 0
1, 2819, Note_on_c, 0, 61, 0
1, 2826, Note_on_c, 0, 67, 0
1, 2833, Control_c, 0, 64, 0
1, 2837, Note_on_c, 0, 70, 72
1, 2839, Note_on_c, 0, 65, 75
1, 2839, Note_on_c, 0, 60, 72
1, 2841, Note_on_c, 0, 34, 69
1, 2841, Note_on_c, 0, 46, 80
1, 2848, Note_on_c, 0, 60, 0
1, 2856, Note_on_c, 0, 34, 0
1, 2856, Note_on_c, 0, 46, 0
1, 2856, Note_on_c, 0, 65, 0
1, 2859, Note_on_c, 0, 70, 0
1, 2919, Control_c, 0, 64, 127
1, 2953, Note_on_c, 0, 70, 68
1, 2955, Note_on_c, 0, 60, 57
1, 2956, Note_on_c, 0, 55, 48
1, 2956, Note_on_c, 0, 65, 57
1, 2960, Note_on_c, 0, 60, 0
1, 2961, Note_on_c, 0, 65, 0
1, 2973, Note_on_c, 0, 70, 0
1, 2978, Note_on_c, 0, 55, 0
1, 2988, Control_c, 0, 64, 0
1, 2993, Note_on_c, 0, 58, 56
1, 2993, Note_on_c, 0, 73, 64
1, 2995, Note_on_c, 0, 68, 65
1, 2995, Note_on_c, 0, 64, 53
1, 3020, Note_on_c, 0, 73, 0
1, 3023, Note_on_c, 0, 64, 0
1, 3026, Control_c, 0, 64, 127
1, 3032, Note_on_c, 0, 68, 0
1, 3066, Note_on_c, 0, 58, 0
1, 3069, Note_on_c, 0, 66, 72
1, 3069, Note_on_c, 0, 75, 78
1, 3072, Note_on_c, 0, 71, 74
1, 3072, Note_on_c, 0, 60, 78
1, 3073, Control_c, 0, 64, 0
1, 3119, Control_c, 0, 64, 127
1, 3136, Note_on_c, 0, 71, 0
1, 3167, Note_on_c, 0, 66, 0
1, 3174, Note_on_c, 0, 75, 0
1, 3183, Note_on_c, 0, 60, 0
1, 3184, Note_on_c, 0, 73, 67
1, 3185, Note_on_c, 0, 58, 68
1, 3185, Note_on_c, 0, 69, 71
1, 3186, Note_on_c, 0, 64, 58
1, 3192, Control_c, 0, 64, 0
1, 3204, Note_on_c, 0, 64, 0
1, 3204, Note_on_c, 0, 69, 0
1, 3208, Note_on_c, 0, 73, 0
1, 3209, Note_on_c, 0, 58, 0
1, 3303, Note_on_c, 0, 50, 49
1, 3304, Note_on_c, 0, 56, 39
1, 3305, Note_on_c, 0, 62, 46
1, 3305, Note_on_c, 0, 60, 64
1, 3326, Note_on_c, 0, 50, 0
1, 3332, Note_on_c, 0, 60, 0
1, 3334, Note_on_c, 0, 62, 0
1, 3334, Note_on_c, 0, 56, 0
1, 3424, Note_on_c, 0, 70, 62
1, 3425, Note_on_c, 0, 53, 51
1, 3426, Note_on_c, 0, 65, 70
1, 3429, Note_on_c, 0, 60, 54
1, 3430, Control_c, 0, 64, 127
1, 3435, Note_on_c, 0, 60, 0
1, 3439, Note_on_c, 0, 70, 0
1, 3451, Note_on_c, 0, 65, 0
1, 3453, Note_on_c, 0, 53, 0
1, 3458, Control_c, 0, 64, 0
1, 3462, Note_on_c, 0, 65, 30
1, 3463, Note_on_c, 0, 73, 58
1, 3463, Note_on_c, 0, 50, 37
1, 3470, Note_on_c, 0, 61, 18
1, 3490, Note_on_c, 0, 65, 0
1, 3502, Note_on_c, 0, 50, 0
1, 3503, Control_c, 0, 64, 127
1, 3507, Note_on_c, 0, 61, 0
1, 3508, Note_on_c, 0, 73, 0
1, 3516, Note_on_c, 0, 70, 36
1, 3522, Note_on_c, 0, 70, 0
1, 3541, Control_c, 0, 64, 0
1, 3542, Note_on_c, 0, 75, 62
1, 3543, Note_on_c, 0, 64, 63
1, 3544, Note_on_c, 0, 68, 49
1, 3545, Note_on_c, 0, 48, 52
1, 3547, Note_on_c, 0, 71, 34
1, 3552, Note_on_c, 0, 73, 21
1, 3584, Control_c, 0, 64, 127
1, 3594, Note_on_c, 0, 71, 0
1, 3595, Note_on_c, 0, 75, 0
1, 3596, Note_on_c, 0, 73, 0
1, 3599, Note_on_c, 0, 68, 0
1, 3605, Note_on_c, 0, 48, 0
1, 3605, Note_on_c, 0, 64, 0
1, 3618, Control_c, 0, 64, 0
1, 3647, Control_c, 0, 64, 127
1, 3661, Note_on_c, 0, 58, 63
1, 3661, Note_on_c, 0, 63, 64
1, 3661, Note_on_c, 0, 56, 64
1, 3664, Note_on_c, 0, 52, 64
1, 3665, Note_on_c, 0, 43, 62
1, 3665, Note_on_c, 0, 61, 38
1, 3681, Control_c, 0, 64, 0
1, 3681, Note_on_c, 0, 59, 56
1, 3683, Note_on_c, 0, 58, 0
1, 3694, Note_on_c, 0, 43, 0
1, 3723, Note_on_c, 0, 34, 33
1, 3734, Note_on_c, 0, 34, 0
1, 3764, Control_c, 0, 64, 127
1, 3788, Note_on_c, 0, 35, 62
1, 3789, Note_on_c, 0, 59, 0
1, 3792, Note_on_c, 0, 52, 0
1, 3798, Control_c, 0, 64, 0
1, 3802, Note_on_c, 0, 63, 0
1, 3805, Note_on_c, 0, 61, 0
1, 3810, Note_on_c, 0, 56, 0
1, 3811, Note_on_c, 0, 35, 0
1, 3829, Note_on_c, 0, 36, 60
1, 3830, Note_on_c, 0, 51, 37
1, 3834, Note_on_c, 0, 60, 30
1, 3835, Note_on_c, 0, 51, 0
1, 3840, Note_on_c, 0, 60, 0
1, 3856, Note_on_c, 0, 36, 0
1, 3924, Note_on_c, 0, 82, 81
1, 3924, Note_on_c, 0, 55, 92
1, 3926, Note_on_c, 0, 75, 80
1, 3927, Note_on_c, 0, 74, 81
1, 3928, Note_on_c, 0, 79, 66
1, 3964, Control_c, 0, 64, 127
1, 4021, Note_on_c, 0, 79, 0
1, 4030, Note_on_c, 0, 82, 0
1, 4045, Note_on_c, 0, 75, 0
1, 4049, Note_on_c, 0, 74, 0
1, 4063, Note_on_c, 0, 55, 0
1, 4071, Control_c, 0, 64, 0
1, 4085, Note_on_c, 0, 80, 54
1, 4085, Note_on_c, 0, 56, 51
1, 4086, Note_on_c, 0, 72, 48
1, 4087, Note_on_c, 0, 75, 59
1, 4101, Note_on_c, 0, 56, 0
1, 4103, Note_on_c, 0, 75, 0
1, 4104, Note_on_c, 0, 72, 0
1, 4104, Note_on_c, 0, 80, 0
1, 4201, Note_on_c, 0, 77, 54
1, 4201, Note_on_c, 0, 53, 58
1, 4204, Note_on_c, 0, 72, 55
1, 4204, Note_on_c, 0, 67, 34
1, 4208, Note_on_c, 0, 53, 0
1, 4221, Note_on_c, 0, 77, 0
1, 4222, Note_on_c, 0, 72, 0
1, 4227, Note_on_c, 0, 67, 0
1, 4268, Control_c, 0, 64, 127
1, 4320, Marker_t, "'So What' voicings"
1, 4321, Control_c, 0, 64, 0
1, 4328, Note_on_c, 0, 61, 92
1, 4328, Note_on_c, 0, 66, 83
1, 4328, Note_on_c, 0, 75, 79
1, 4329, Note_on_c, 0, 71, 79
1, 4361, Control_c, 0, 64, 127
1, 4400, Note_on_c, 0, 66, 0
1, 4418, Note_on_c, 0, 71, 0
1, 4427, Note_on_c, 0, 75, 0
1, 4430, Note_on_c, 0, 61, 0
1, 4437, Control_c, 0, 64, 0
1, 4440, Note_on_c, 0, 73, 78
1, 4442, Note_on_c, 0, 59, 64
1, 4442, Note_on_c, 0, 69, 76
1, 4442, Note_on_c, 0, 64, 68
1, 4459, Control_c, 0, 64, 127
1, 4500, Note_on_c, 0, 69, 0
1, 4504, Note_on_c, 0, 73, 0
1, 4512, Note_on_c, 0, 64, 0
1, 4548, Note_on_c, 0, 59, 0
1, 4551, Control_c, 0, 64, 0
1, 4560, Note_on_c, 0, 70, 46
1, 4563, Note_on_c, 0, 61, 34
1, 4563, Note_on_c, 0, 56, 44
1, 4564, Note_on_c, 0, 66, 38
1, 4584, Control_c, 0, 64, 127
1, 4613, Note_on_c, 0, 66, 0
1, 4614, Note_on_c, 0, 56, 0
1, 4616, Note_on_c, 0, 61, 0
1, 4621, Note_on_c, 0, 70, 0
1, 4637, Note_on_c, 0, 56, 53
1, 4640, Note_on_c, 0, 70, 44
1, 4640, Note_on_c, 0, 61, 44
1, 4642, Note_on_c, 0, 66, 55
1, 4657, Note_on_c, 0, 61, 0
1, 4659, Note_on_c, 0, 56, 0
1, 4662, Note_on_c, 0, 66, 0
1, 4666, Note_on_c, 0, 70, 0
1, 4671, Control_c, 0, 64, 0
1, 4678, Note_on_c, 0, 56, 43
1, 4680, Note_on_c, 0, 70, 35
1, 4680, Note_on_c, 0, 66, 33
1, 4680, Note_on_c, 0, 61, 34
1, 4684, Control_c, 0, 64, 127
1, 4723, Note_on_c, 0, 70, 0
1, 4725, Note_on_c, 0, 66, 0
1, 4733, Note_on_c, 0, 61, 0
1, 4749, Note_on_c, 0, 56, 0
1, 4753, Control_c, 0, 64, 0
1, 4753, Note_on_c, 0, 70, 47
1, 4755, Note_on_c, 0, 55, 55
1, 4756, Note_on_c, 0, 60, 47
1, 4756, Note_on_c, 0, 65, 53
1, 4845, Note_on_c, 0, 65, 0
1, 4845, Note_on_c, 0, 60, 0
1, 4846, Note_on_c, 0, 70, 0
1, 4849, Note_on_c, 0, 55, 0
1, 4867, Note_on_c, 0, 82, 50
1, 4870, Note_on_c, 0, 46, 40
1, 4874, Note_on_c, 0, 82, 0
1, 4885, Note_on_c, 0, 46, 0
1, 4908, Note_on_c, 0, 85, 55
1, 4910, Note_on_c, 0, 49, 45
1, 4914, Note_on_c, 0, 85, 0
1, 4919, Note_on_c, 0, 49, 0
1, 4986, Note_on_c, 0, 87, 84
1, 4988, Note_on_c, 0, 51, 80
1, 5136, Note_on_c, 0, 87, 0
1, 5142, Note_on_c, 0, 51, 0
1, 5148, Note_on_c, 0, 85, 52
1, 5152, Note_on_c, 0, 49, 32
1, 5218, Note_on_c, 0, 85, 0
1, 5226, Note_on_c, 0, 82, 54
1, 5230, Note_on_c, 0, 46, 40
1, 5232, Note_on_c, 0, 49, 0
1, 5233, Note_on_c, 0, 82, 0
1, 5237, Note_on_c, 0, 46, 0
1, 5346, Note_on_c, 0, 36, 79
1, 5347, Note_on_c, 0, 48, 77
1, 5351, Note_on_c, 0, 82, 71
1, 5360, Note_on_c, 0, 48, 0
1, 5364, Note_on_c, 0, 36, 0
1, 5366, Note_on_c, 0, 82, 0
1, 5391, Note_on_c, 0, 42, 69
1, 5394, Note_on_c, 0, 85, 70
1, 5396, Note_on_c, 0, 30, 52
1, 5402, Note_on_c, 0, 30, 0
1, 5407, Note_on_c, 0, 85, 0
1, 5407, Note_on_c, 0, 42, 0
1, 5468, Note_on_c, 0, 41, 80
1, 5470, Note_on_c, 0, 29, 77
1, 5470, Note_on_c, 0, 87, 87
1, 5571, Note_on_c, 0, 29, 0
1, 5590, Note_on_c, 0, 29, 28
1, 5594, Note_on_c, 0, 41, 0
1, 5604, Note_on_c, 0, 29, 0
1, 5628, Note_on_c, 0, 87, 0
1, 5634, Note_on_c, 0, 33, 52
1, 5635, Note_on_c, 0, 35, 62
1, 5635, Note_on_c, 0, 21, 53
1, 5636, Note_on_c, 0, 23, 59
1, 5637, Note_on_c, 0, 85, 59
1, 5643, Control_c, 0, 64, 127
1, 5646, Note_on_c, 0, 21, 0
1, 5650, Note_on_c, 0, 35, 0
1, 5686, Control_c, 0, 64, 0
1, 5690, Note_on_c, 0, 23, 0
1, 5695, Note_on_c, 0, 33, 0
1, 5697, Control_c, 0, 64, 127
1, 5705, Note_on_c, 0, 85, 0
1, 5711, Note_on_c, 0, 34, 83
1, 5712, Note_on_c, 0, 22, 77
1, 5713, Note_on_c, 0, 82, 69
1, 5725, Note_on_c, 0, 82, 0
1, 5750, Note_on_c, 0, 34, 0
1, 5752, Note_on_c, 0, 22, 0
1, 5848, Note_on_c, 0, 77, 85
1, 5850, Note_on_c, 0, 82, 86
1, 5851, Note_on_c, 0, 67, 83
1, 5852, Note_on_c, 0, 72, 77
1, 5853, Control_c, 0, 64, 0
1, 5872, Note_on_c, 0, 77, 0
1, 5873, Note_on_c, 0, 77, 62
1, 5880, Marker_t, "4th voicings again"
1, 5896, Control_c, 0, 64, 127
1, 5969, Note_on_c, 0, 72, 0
1, 5970, Note_on_c, 0, 82, 0
1, 5978, Note_on_c, 0, 77, 0
1, 5997, Note_on_c, 0, 67, 0
1, 6002, Note_on_c, 0, 80, 51
1, 6002, Note_on_c, 0, 65, 51
1, 6003, Note_on_c, 0, 70, 48
1, 6004, Note_on_c, 0, 75, 57
1, 6004, Control_c, 0, 64, 0
1, 6017, Note_on_c, 0, 65, 0
1, 6020, Note_on_c, 0, 75, 0
1, 6022, Note_on_c, 0, 70, 0
1, 6022, Note_on_c, 0, 80, 0
1, 6122, Note_on_c, 0, 77, 44
1, 6123, Note_on_c, 0, 62, 45
1, 6124, Note_on_c, 0, 67, 30
1, 6124, Note_on_c, 0, 72, 44
1, 6157, Note_on_c, 0, 77, 0
1, 6159, Note_on_c, 0, 62, 0
1, 6162, Note_on_c, 0, 67, 0
1, 6163, Note_on_c, 0, 72, 0
1, 6242, Note_on_c, 0, 75, 49
1, 6245, Note_on_c, 0, 70, 45
1, 6247, Note_on_c, 0, 65, 32
1, 6248, Note_on_c, 0, 60, 42
1, 6272, Note_on_c, 0, 60, 0
1, 6274, Note_on_c, 0, 75, 0
1, 6278, Note_on_c, 0, 65, 0
1, 6278, Note_on_c, 0, 70, 0
1, 6361, Note_on_c, 0, 73, 47
1, 6365, Note_on_c, 0, 64, 29
1, 6365, Note_on_c, 0, 67, 35
1, 6368, Note_on_c, 0, 58, 35
1, 6398, Note_on_c, 0, 58, 0
1, 6399, Note_on_c, 0, 67, 0
1, 6400, Note_on_c, 0, 73, 0
1, 6407, Note_on_c, 0, 64, 0
1, 6486, Note_on_c, 0, 70, 50
1, 6488, Note_on_c, 0, 61, 40
1, 6489, Note_on_c, 0, 64, 43
1, 6490, Note_on_c, 0, 67, 33
1, 6492, Note_on_c, 0, 55, 34
1, 6541, Note_on_c, 0, 55, 0
1, 6546, Note_on_c, 0, 61, 0
1, 6547, Note_on_c, 0, 70, 0
1, 6552, Note_on_c, 0, 64, 0
1, 6555, Note_on_c, 0, 67, 0
1, 6563, Note_on_c, 0, 55, 42
1, 6565, Note_on_c, 0, 70, 37
1, 6565, Control_c, 0, 64, 127
1, 6568, Note_on_c, 0, 61, 36
1, 6573, Note_on_c, 0, 64, 37
1, 6587, Note_on_c, 0, 61, 0
1, 6597, Note_on_c, 0, 70, 0
1, 6600, Note_on_c, 0, 55, 0
1, 6600, Control_c, 0, 64, 0
1, 6609, Note_on_c, 0, 52, 35
1, 6612, Note_on_c, 0, 61, 19
1, 6615, Note_on_c, 0, 67, 27
1, 6628, Note_on_c, 0, 64, 0
1, 6642, Control_c, 0, 64, 127
1, 6661, Note_on_c, 0, 61, 0
1, 6674, Note_on_c, 0, 67, 0
1, 6680, Note_on_c, 0, 52, 0
1, 6686, Control_c, 0, 64, 0
1, 6686, Note_on_c, 0, 70, 32
1, 6688, Note_on_c, 0, 65, 65
1, 6689, Note_on_c, 0, 60, 47
1, 6689, Note_on_c, 0, 62, 49
1, 6689, Note_on_c, 0, 53, 52
1, 6710, Note_on_c, 0, 53, 0
1, 6712, Note_on_c, 0, 65, 0
1, 6713, Note_on_c, 0, 62, 0
1, 6713, Note_on_c, 0, 60, 0
1, 6715, Note_on_c, 0, 70, 0
1, 6721, Control_c, 0, 64, 127
1, 6797, Note_on_c, 0, 62, 57
1, 6798, Note_on_c, 0, 60, 100
1, 6798, Note_on_c, 0, 67, 55
1, 6798, Note_on_c, 0, 82, 71
1, 6798, Note_on_c, 0, 56, 56
1, 6800, Note_on_c, 0, 72, 50
1, 6802, Note_on_c, 0, 77, 45
1, 6806, Note_on_c, 0, 72, 0
1, 6810, Note_on_c, 0, 77, 0
1, 6811, Note_on_c, 0, 67, 0
1, 6814, Note_on_c, 0, 56, 0
1, 6816, Note_on_c, 0, 82, 0
1, 6816, Note_on_c, 0, 62, 0
1, 6828, Note_on_c, 0, 60, 0
1, 6832, Control_c, 0, 64, 0
1, 6840, Note_on_c, 0, 60, 100
1, 6840, Note_on_c, 0, 73, 78
1, 6840, Note_on_c, 0, 85, 81
1, 6841, Note_on_c, 0, 56, 71
1, 6841, Note_on_c, 0, 67, 72
1, 6842, Note_on_c, 0, 62, 68
1, 6870, Note_on_c, 0, 60, 0
1, 6881, Control_c, 0, 64, 127
1, 6893, Note_on_c, 0, 62, 0
1, 6895, Note_on_c, 0, 56, 0
1, 6896, Note_on_c, 0, 73, 0
1, 6896, Note_on_c, 0, 67, 0
1, 6902, Note_on_c, 0, 85, 0
1, 6909, Note_on_c, 0, 60, 100
1, 6913, Control_c, 0, 64, 0
1, 6915, Note_on_c, 0, 62, 79
1, 6916, Note_on_c, 0, 56, 82
1, 6916, Note_on_c, 0, 67, 78
1, 6916, Note_on_c, 0, 87, 88
1, 6917, Note_on_c, 0, 75, 87
1, 6918, Note_on_c, 0, 82, 78
1, 6939, Note_on_c, 0, 60, 0
1, 6959, Control_c, 0, 64, 127
1, 7047, Note_on_c, 0, 62, 0
1, 7050, Note_on_c, 0, 67, 0
1, 7057, Note_on_c, 0, 87, 0
1, 7057, Note_on_c, 0, 56, 0
1, 7057, Note_on_c, 0, 82, 0
1, 7060, Note_on_c, 0, 75, 0
1, 7075, Note_on_c, 0, 61, 100
1, 7076, Control_c, 0, 64, 0
1, 7080, Note_on_c, 0, 57, 74
1, 7080, Note_on_c, 0, 68, 81
1, 7081, Note_on_c, 0, 85, 87
1, 7082, Note_on_c, 0, 63, 67
1, 7082, Note_on_c, 0, 73, 85
1, 7083, Note_on_c, 0, 80, 81
1, 7101, Control_c, 0, 64, 127
1, 7105, Note_on_c, 0, 61, 0
1, 7128, Note_on_c, 0, 80, 0
1, 7130, Note_on_c, 0, 85, 0
1, 7134, Note_on_c, 0, 57, 0
1, 7139, Note_on_c, 0, 73, 0
1, 7145, Note_on_c, 0, 68, 0
1, 7155, Note_on_c, 0, 63, 0
1, 7155, Control_c, 0, 64, 0
1, 7158, Note_on_c, 0, 82, 68
1, 7159, Note_on_c, 0, 70, 63
1, 7160, Note_on_c, 0, 62, 54
1, 7160, Note_on_c, 0, 67, 61
1, 7165, Note_on_c, 0, 70, 0
1, 7166, Note_on_c, 0, 67, 0
1, 7171, Note_on_c, 0, 82, 0
1, 7174, Note_on_c, 0, 62, 0
1, 7263, Control_c, 0, 64, 127
1, 7269, Note_on_c, 0, 60, 100
1, 7276, Note_on_c, 0, 70, 64
1, 7276, Note_on_c, 0, 82, 67
1, 7278, Note_on_c, 0, 62, 54
1, 7278, Note_on_c, 0, 56, 49
1, 7278, Note_on_c, 0, 67, 46
1, 7281, Note_on_c, 0, 77, 38
1, 7287, Note_on_c, 0, 67, 0
1, 7288, Note_on_c, 0, 77, 0
1, 7289, Note_on_c, 0, 70, 0
1, 7295, Note_on_c, 0, 62, 0
1, 7295, Note_on_c, 0, 82, 0
1, 7296, Note_on_c, 0, 56, 0
1, 7299, Note_on_c, 0, 60, 0
1, 7313, Note_on_c, 0, 61, 100
1, 7313, Control_c, 0, 64, 0
1, 7315, Note_on_c, 0, 73, 88
1, 7315, Note_on_c, 0, 85, 87
1, 7316, Note_on_c, 0, 57, 83
1, 7316, Note_on_c, 0, 68, 88
1, 7317, Note_on_c, 0, 80, 71
1, 7318, Note_on_c, 0, 63, 67
1, 7338, Control_c, 0, 64, 127
1, 7343, Note_on_c, 0, 61, 0
1, 7364, Note_on_c, 0, 57, 0
1, 7364, Note_on_c, 0, 73, 0
1, 7364, Note_on_c, 0, 80, 0
1, 7369, Note_on_c, 0, 68, 0
1, 7372, Note_on_c, 0, 85, 0
1, 7375, Note_on_c, 0, 63, 0
1, 7389, Note_on_c, 0, 87, 88
1, 7390, Note_on_c, 0, 60, 100
1, 7390, Note_on_c, 0, 75, 95
1, 7390, Note_on_c, 0, 67, 90
1, 7390, Note_on_c, 0, 62, 88
1, 7391, Note_on_c, 0, 56, 87
1, 7391, Note_on_c, 0, 82, 83
1, 7391, Control_c, 0, 64, 0
1, 7420, Note_on_c, 0, 60, 0
1, 7428, Control_c, 0, 64, 127
1, 7512, Note_on_c, 0, 82, 0
1, 7519, Note_on_c, 0, 87, 0
1, 7527, Note_on_c, 0, 75, 0
1, 7531, Note_on_c, 0, 67, 0
1, 7532, Note_on_c, 0, 56, 0
1, 7535, Note_on_c, 0, 62, 0
1, 7559, Note_on_c, 0, 85, 61
1, 7561, Note_on_c, 0, 73, 38
1, 7563, Note_on_c, 0, 62, 38
1, 7563, Note_on_c, 0, 56, 42
1, 7563, Note_on_c, 0, 67, 43
1, 7564, Control_c, 0, 64, 0
1, 7564, Note_on_c, 0, 80, 42
1, 7577, Control_c, 0, 64, 127
1, 7578, Note_on_c, 0, 85, 0
1, 7580, Note_on_c, 0, 73, 0
1, 7580, Note_on_c, 0, 80, 0
1, 7593, Note_on_c, 0, 62, 0
1, 7597, Note_on_c, 0, 67, 0
1, 7616, Control_c, 0, 64, 0
1, 7623, Note_on_c, 0, 56, 0
1, 7631, Note_on_c, 0, 82, 55
1, 7633, Note_on_c, 0, 70, 62
1, 7633, Note_on_c, 0, 55, 68
1, 7633, Note_on_c, 0, 75, 62
1, 7634, Note_on_c, 0, 65, 74
1, 7635, Note_on_c, 0, 61, 68
1, 7638, Note_on_c, 0, 70, 0
1, 7639, Note_on_c, 0, 75, 0
1, 7644, Note_on_c, 0, 82, 0
1, 7645, Note_on_c, 0, 55, 0
1, 7646, Note_on_c, 0, 65, 0
1, 7647, Note_on_c, 0, 61, 0
1, 7773, Note_on_c, 0, 82, 87
1, 7773, Note_on_c, 0, 73, 90
1, 7774, Note_on_c, 0, 67, 80
1, 7776, Note_on_c, 0, 76, 71
1, 7824, Control_c, 0, 64, 127
1, 7874, Note_on_c, 0, 82, 0
1, 7879, Note_on_c, 0, 73, 0
1, 7880, Note_on_c, 0, 76, 0
1, 7908, Note_on_c, 0, 67, 0
1, 7919, Control_c, 0, 64, 0
1, 7927, Note_on_c, 0, 80, 56
1, 7928, Note_on_c, 0, 64, 34
1, 7929, Note_on_c, 0, 75, 53
1, 7938, Note_on_c, 0, 64, 0
1, 7942, Note_on_c, 0, 80, 0
1, 7947, Note_on_c, 0, 75, 0
1, 8117, Control_c, 0, 64, 127
1, 8117, Note_on_c, 0, 77, 51
1, 8119, Note_on_c, 0, 69, 41
1, 8120, Note_on_c, 0, 72, 48
1, 8120, Note_on_c, 0, 62, 41
1, 8136, Note_on_c, 0, 77, 0
1, 8142, Note_on_c, 0, 72, 0
1, 8146, Note_on_c, 0, 69, 0
1, 8157, Control_c, 0, 64, 0
1, 8158, Note_on_c, 0, 62, 0
1, 8163, Note_on_c, 0, 75, 60
1, 8164, Note_on_c, 0, 61, 56
1, 8166, Note_on_c, 0, 67, 47
1, 8168, Note_on_c, 0, 73, 42
1, 8171, Note_on_c, 0, 70, 14
1, 8193, Control_c, 0, 64, 127
1, 8196, Note_on_c, 0, 75, 0
1, 8198, Note_on_c, 0, 70, 0
1, 8200, Note_on_c, 0, 73, 0
1, 8205, Note_on_c, 0, 67, 0
1, 8240, Note_on_c, 0, 61, 0
1, 8241, Control_c, 0, 64, 0
1, 8243, Note_on_c, 0, 73, 62
1, 8245, Note_on_c, 0, 70, 42
1, 8245, Note_on_c, 0, 67, 51
1, 8247, Note_on_c, 0, 64, 48
1, 8248, Note_on_c, 0, 58, 49
1, 8279, Control_c, 0, 64, 127
1, 8294, Note_on_c, 0, 67, 0
1, 8297, Note_on_c, 0, 70, 0
1, 8299, Note_on_c, 0, 73, 0
1, 8309, Note_on_c, 0, 64, 0
1, 8344, Note_on_c, 0, 58, 0
1, 8356, Note_on_c, 0, 70, 56
1, 8356, Note_on_c, 0, 55, 58
1, 8357, Note_on_c, 0, 64, 57
1, 8357, Note_on_c, 0, 61, 52
1, 8358, Control_c, 0, 64, 0
1, 8358, Note_on_c, 0, 67, 45
1, 8450, Note_on_c, 0, 55, 0
1, 8454, Note_on_c, 0, 61, 0
1, 8454, Note_on_c, 0, 70, 0
1, 8464, Note_on_c, 0, 64, 0
1, 8464, Note_on_c, 0, 67, 0
1, 8465, Control_c, 0, 64, 127
1, 8468, Note_on_c, 0, 55, 42
1, 8472, Note_on_c, 0, 70, 51
1, 8472, Note_on_c, 0, 61, 46
1, 8477, Note_on_c, 0, 64, 19
1, 8490, Note_on_c, 0, 61, 0
1, 8497, Control_c, 0, 64, 0
1, 8501, Note_on_c, 0, 64, 0
1, 8502, Note_on_c, 0, 70, 0
1, 8503, Note_on_c, 0, 55, 0
1, 8511, Note_on_c, 0, 52, 43
1, 8512, Note_on_c, 0, 61, 33
1, 8516, Note_on_c, 0, 67, 32
1, 8540, Control_c, 0, 64, 127
1, 8560, Note_on_c, 0, 61, 0
1, 8578, Note_on_c, 0, 67, 0
1, 8582, Control_c, 0, 64, 0
1, 8583, Note_on_c, 0, 52, 0
1, 8585, Note_on_c, 0, 70, 60
1, 8587, Note_on_c, 0, 53, 68
1, 8587, Note_on_c, 0, 65, 62
1, 8588, Note_on_c, 0, 62, 54
1, 8589, Note_on_c, 0, 60, 45
1, 8644, Note_on_c, 0, 65, 0
1, 8644, Note_on_c, 0, 53, 0
1, 8646, Note_on_c, 0, 70, 0
1, 8646, Note_on_c, 0, 62, 0
1, 8646, Note_on_c, 0, 60, 0
1, 8706, Note_on_c, 0, 58, 37
1, 8734, Note_on_c, 0, 58, 0
1, 8753, Note_on_c, 0, 61, 71
1, 8826, Note_on_c, 0, 61, 0
1, 8836, Note_on_c, 0, 63, 87
1, 9000, Note_on_c, 0, 58, 60
1, 9002, Note_on_c, 0, 61, 64
1, 9042, Note_on_c, 0, 61, 0
1, 9042, Note_on_c, 0, 43, 38
1, 9042, Note_on_c, 0, 41, 47
1, 9048, Note_on_c, 0, 58, 0
1, 9049, Note_on_c, 0, 41, 0
1, 9050, Note_on_c, 0, 43, 0
1, 9050, Note_on_c, 0, 63, 0
1, 9078, Note_on_c, 0, 39, 72
1, 9115, Note_on_c, 0, 39, 0
1, 9121, Note_on_c, 0, 38, 84
1, 9199, Note_on_c, 0, 58, 51
1, 9209, Note_on_c, 0, 58, 0
1, 9224, Note_on_c, 0, 38, 0
1, 9240, Note_on_c, 0, 32, 62
1, 9241, Note_on_c, 0, 58, 51
1, 9243, Note_on_c, 0, 61, 51
1, 9251, Note_on_c, 0, 58, 0
1, 9260, Note_on_c, 0, 61, 0
1, 9301, Control_c, 0, 64, 127
1, 9306, Control_c, 0, 64, 0
1, 9307, Note_on_c, 0, 32, 0
1, 9314, Note_on_c, 0, 63, 76
1, 9315, Note_on_c, 0, 53, 87
1, 9315, Note_on_c, 0, 59, 77
1, 9317, Note_on_c, 0, 31, 69
1, 9386, Control_c, 0, 64, 127
1, 9436, Note_on_c, 0, 34, 38
1, 9448, Note_on_c, 0, 53, 0
1, 9454, Note_on_c, 0, 31, 0
1, 9455, Control_c, 0, 64, 127
1, 9460, Note_on_c, 0, 59, 0
1, 9460, Control_c, 0, 64, 0
1, 9463, Note_on_c, 0, 63, 0
1, 9463, Note_on_c, 0, 34, 0
1, 9472, Note_on_c, 0, 35, 66
1, 9474, Note_on_c, 0, 53, 48
1, 9476, Note_on_c, 0, 61, 39
1, 9517, Note_on_c, 0, 53, 0
1, 9540, Note_on_c, 0, 34, 33
1, 9542, Note_on_c, 0, 61, 0
1, 9547, Note_on_c, 0, 34, 0
1, 9549, Note_on_c, 0, 35, 0
1, 9551, Note_on_c, 0, 63, 57
1, 9552, Note_on_c, 0, 55, 74
1, 9552, Note_on_c, 0, 58, 71
1, 9553, Note_on_c, 0, 36, 89
1, 9584, Note_on_c, 0, 55, 0
1, 9586, Note_on_c, 0, 58, 0
1, 9587, Note_on_c, 0, 63, 0
1, 9590, Note_on_c, 0, 36, 0
1, 9594, Control_c, 0, 64, 0
1, 9605, Control_c, 0, 64, 127
1, 9686, Note_on_c, 0, 82, 92
1, 9686, Note_on_c, 0, 77, 84
1, 9687, Note_on_c, 0, 72, 87
1, 9688, Note_on_c, 0, 67, 82
1, 9692, Marker_t, "4ths"
1, 9700, Control_c, 0, 64, 0
1, 9721, Control_c, 0, 64, 127
1, 9778, Note_on_c, 0, 82, 0
1, 9783, Note_on_c, 0, 72, 0
1, 9786, Note_on_c, 0, 77, 0
1, 9819, Note_on_c, 0, 67, 0
1, 9839, Note_on_c, 0, 80, 51
1, 9840, Control_c, 0, 64, 0
1, 9841, Note_on_c, 0, 70, 47
1, 9841, Note_on_c, 0, 65, 45
1, 9842, Note_on_c, 0, 75, 53
1, 9849, Note_on_c, 0, 65, 0
1, 9859, Note_on_c, 0, 80, 0
1, 9860, Note_on_c, 0, 75, 0
1, 9866, Note_on_c, 0, 70, 0
1, 9958, Note_on_c, 0, 77, 45
1, 9960, Note_on_c, 0, 67, 37
1, 9960, Note_on_c, 0, 62, 44
1, 9961, Note_on_c, 0, 72, 53
1, 9981, Note_on_c, 0, 62, 0
1, 9988, Note_on_c, 0, 77, 0
1, 9992, Note_on_c, 0, 72, 0
1, 10000, Note_on_c, 0, 67, 0
1, 10160, Marker_t, "'So-What' voicings"
1, 10160, Note_on_c, 0, 61, 62
1, 10162, Note_on_c, 0, 66, 62
1, 10164, Note_on_c, 0, 71, 58
1, 10164, Note_on_c, 0, 75, 62
1, 10173, Control_c, 0, 64, 127
1, 10197, Note_on_c, 0, 66, 0
1, 10201, Note_on_c, 0, 75, 0
1, 10202, Note_on_c, 0, 61, 0
1, 10203, Note_on_c, 0, 71, 0
1, 10220, Note_on_c, 0, 73, 62
1, 10221, Control_c, 0, 64, 0
1, 10222, Note_on_c, 0, 64, 50
1, 10223, Note_on_c, 0, 59, 43
1, 10223, Note_on_c, 0, 69, 60
1, 10250, Control_c, 0, 64, 127
1, 10266, Note_on_c, 0, 69, 0
1, 10278, Note_on_c, 0, 73, 0
1, 10280, Note_on_c, 0, 64, 0
1, 10283, Note_on_c, 0, 59, 0
1, 10374, Control_c, 0, 64, 0
1, 10388, Note_on_c, 0, 70, 59
1, 10389, Note_on_c, 0, 56, 55
1, 10389, Note_on_c, 0, 66, 57
1, 10389, Note_on_c, 0, 60, 58
1, 10399, Note_on_c, 0, 60, 0
1, 10401, Note_on_c, 0, 66, 0
1, 10402, Note_on_c, 0, 56, 0
1, 10406, Note_on_c, 0, 70, 0
1, 10457, Note_on_c, 0, 70, 62
1, 10458, Note_on_c, 0, 66, 56
1, 10459, Note_on_c, 0, 56, 52
1, 10460, Note_on_c, 0, 60, 53
1, 10465, Note_on_c, 0, 60, 0
1, 10468, Note_on_c, 0, 56, 0
1, 10471, Note_on_c, 0, 66, 0
1, 10472, Note_on_c, 0, 70, 0
1, 10529, Note_on_c, 0, 60, 55
1, 10529, Note_on_c, 0, 70, 49
1, 10529, Note_on_c, 0, 65, 61
1, 10530, Note_on_c, 0, 55, 55
1, 10547, Note_on_c, 0, 60, 0
1, 10552, Note_on_c, 0, 70, 0
1, 10552, Note_on_c, 0, 65, 0
1, 10559, Note_on_c, 0, 55, 0
1, 10641, Note_on_c, 0, 67, 71
1, 10642, Note_on_c, 0, 56, 73
1, 10642, Note_on_c, 0, 62, 69
1, 10643, Note_on_c, 0, 94, 81
1, 10645, Note_on_c, 0, 82, 76
1, 10656, Note_on_c, 0, 82, 0
1, 10659, Note_on_c, 0, 67, 0
1, 10661, Note_on_c, 0, 94, 0
1, 10667, Note_on_c, 0, 56, 0
1, 10669, Note_on_c, 0, 62, 0
1, 10692, Note_on_c, 0, 82, 60
1, 10692, Note_on_c, 0, 94, 68
1, 10693, Note_on_c, 0, 67, 54
1, 10693, Note_on_c, 0, 62, 47
1, 10694, Note_on_c, 0, 56, 34
1, 10698, Note_on_c, 0, 67, 0
1, 10701, Note_on_c, 0, 82, 0
1, 10703, Note_on_c, 0, 94, 0
1, 10704, Note_on_c, 0, 62, 0
1, 10705, Note_on_c, 0, 56, 0
1, 10754, Note_on_c, 0, 62, 40
1, 10758, Note_on_c, 0, 56, 46
1, 10763, Note_on_c, 0, 94, 72
1, 10763, Note_on_c, 0, 82, 65
1, 10767, Note_on_c, 0, 62, 0
1, 10774, Note_on_c, 0, 82, 0
1, 10775, Note_on_c, 0, 94, 0
1, 10775, Note_on_c, 0, 56, 0
1, 10804, Note_on_c, 0, 53, 55
1, 10805, Note_on_c, 0, 64, 47
1, 10805, Note_on_c, 0, 92, 60
1, 10808, Note_on_c, 0, 80, 43
1, 10808, Note_on_c, 0, 59, 50
1, 10851, Note_on_c, 0, 53, 0
1, 10859, Note_on_c, 0, 64, 0
1, 10859, Note_on_c, 0, 92, 0
1, 10861, Note_on_c, 0, 80, 0
1, 10863, Note_on_c, 0, 59, 0
1, 10880, Note_on_c, 0, 80, 52
1, 10881, Note_on_c, 0, 92, 57
1, 10881, Note_on_c, 0, 64, 50
1, 10882, Note_on_c, 0, 59, 51
1, 10884, Note_on_c, 0, 53, 36
1, 10890, Note_on_c, 0, 53, 0
1, 10891, Note_on_c, 0, 64, 0
1, 10893, Note_on_c, 0, 80, 0
1, 10894, Note_on_c, 0, 92, 0
1, 10894, Note_on_c, 0, 59, 0
1, 11046, Note_on_c, 0, 63, 47
1, 11048, Note_on_c, 0, 52, 49
1, 11048, Note_on_c, 0, 58, 50
1, 11049, Note_on_c, 0, 78, 54
1, 11049, Note_on_c, 0, 90, 53
1, 11064, Control_c, 0, 64, 127
1, 11091, Note_on_c, 0, 52, 0
1, 11096, Note_on_c, 0, 78, 0
1, 11097, Note_on_c, 0, 90, 0
1, 11098, Note_on_c, 0, 63, 0
1, 11101, Note_on_c, 0, 58, 0
1, 11119, Note_on_c, 0, 63, 46
1, 11121, Note_on_c, 0, 52, 45
1, 11121, Note_on_c, 0, 58, 37
1, 11122, Note_on_c, 0, 90, 40
1, 11123, Note_on_c, 0, 78, 46
1, 11130, Note_on_c, 0, 52, 0
1, 11134, Note_on_c, 0, 63, 0
1, 11139, Note_on_c, 0, 78, 0
1, 11141, Note_on_c, 0, 90, 0
1, 11142, Note_on_c, 0, 58, 0
1, 11162, Note_on_c, 0, 63, 33
1, 11164, Note_on_c, 0, 90, 42
1, 11165, Note_on_c, 0, 78, 34
1, 11165, Note_on_c, 0, 58, 32
1, 11165, Note_on_c, 0, 52, 45
1, 11181, Note_on_c, 0, 52, 0
1, 11185, Note_on_c, 0, 90, 0
1, 11195, Note_on_c, 0, 63, 0
1, 11195, Note_on_c, 0, 78, 0
1, 11206, Note_on_c, 0, 58, 0
1, 11231, Control_c, 0, 64, 0
1, 11234, Note_on_c, 0, 62, 50
1, 11235, Note_on_c, 0, 51, 37
1, 11235, Note_on_c, 0, 89, 58
1, 11236, Note_on_c, 0, 57, 46
1, 11238, Note_on_c, 0, 77, 26
1, 11257, Note_on_c, 0, 89, 0
1, 11263, Note_on_c, 0, 77, 0
1, 11266, Note_on_c, 0, 62, 0
1, 11268, Note_on_c, 0, 57, 0
1, 11272, Note_on_c, 0, 51, 0
1, 11321, Note_on_c, 0, 65, 70
1, 11341, Note_on_c, 0, 65, 0
1, 11353, Note_on_c, 0, 67, 61
1, 11368, Note_on_c, 0, 67, 0
1, 11391, Note_on_c, 0, 70, 88
1, 11421, Note_on_c, 0, 70, 0
1, 11427, Note_on_c, 0, 72, 64
1, 11450, Note_on_c, 0, 72, 0
1, 11466, Note_on_c, 0, 70, 87
1, 11491, Note_on_c, 0, 70, 0
1, 11509, Note_on_c, 0, 46, 49
1, 11525, Marker_t, "Bb7"
1, 11529, Note_on_c, 0, 46, 0
1, 11589, Note_on_c, 0, 46, 47
1, 11622, Note_on_c, 0, 46, 0
1, 11633, Note_on_c, 0, 41, 42
1, 11756, Note_on_c, 0, 41, 0
1, 11761, Note_on_c, 0, 38, 47
1, 11888, Note_on_c, 0, 38, 0
1, 11892, Note_on_c, 0, 34, 45
1, 12000, Marker_t, "Am7b5"
1, 12002, Note_on_c, 0, 34, 0
1, 12014, Note_on_c, 0, 33, 46
1, 12058, Note_on_c, 0, 55, 47
1, 12075, Note_on_c, 0, 55, 0
1, 12097, Note_on_c, 0, 60, 80
1, 12123, Note_on_c, 0, 60, 0
1, 12136, Note_on_c, 0, 39, 44
1, 12138, Note_on_c, 0, 63, 84
1, 12140, Note_on_c, 0, 33, 0
1, 12146, Note_on_c, 0, 61, 34
1, 12152, Note_on_c, 0, 61, 0
1, 12172, Note_on_c, 0, 63, 0
1, 12178, Note_on_c, 0, 65, 78
1, 12214, Note_on_c, 0, 65, 0
1, 12218, Note_on_c, 0, 62, 77
1, 12220, Note_on_c, 0, 37, 28
1, 12235, Note_on_c, 0, 39, 0
1, 12240, Marker_t, "D7"
1, 12245, Note_on_c, 0, 62, 0
1, 12246, Note_on_c, 0, 37, 0
1, 12250, Note_on_c, 0, 38, 44
1, 12356, Note_on_c, 0, 38, 0
1, 12375, Note_on_c, 0, 38, 53
1, 12449, Note_on_c, 0, 38, 0
1, 12456, Note_on_c, 0, 32, 53
1, 12480, Marker_t, "Gm7"
1, 12482, Note_on_c, 0, 32, 0
1, 12492, Note_on_c, 0, 31, 64
1, 12598, Note_on_c, 0, 31, 0
1, 12614, Note_on_c, 0, 38, 36
1, 12618, Note_on_c, 0, 40, 30
1, 12626, Note_on_c, 0, 40, 0
1, 12688, Note_on_c, 0, 38, 0
1, 12688, Note_on_c, 0, 34, 51
1, 12720, Marker_t, "C7"
1, 12723, Note_on_c, 0, 34, 0
1, 12728, Note_on_c, 0, 36, 48
1, 12810, Note_on_c, 0, 55, 55
1, 12817, Note_on_c, 0, 55, 0
1, 12844, Note_on_c, 0, 36, 0
1, 12848, Note_on_c, 0, 40, 36
1, 12914, Note_on_c, 0, 40, 0
1, 12925, Note_on_c, 0, 39, 35
1, 12937, Note_on_c, 0, 40, 39
1, 12951, Note_on_c, 0, 39, 0
1, 12955, Note_on_c, 0, 40, 0
1, 12960, Marker_t, "Fm7"
1, 12969, Note_on_c, 0, 41, 37
1, 13008, Note_on_c, 0, 60, 51
1, 13022, Note_on_c, 0, 60, 0
1, 13043, Note_on_c, 0, 63, 86
1, 13073, Note_on_c, 0, 63, 0
1, 13084, Note_on_c, 0, 67, 87
1, 13084, Note_on_c, 0, 29, 33
1, 13096, Note_on_c, 0, 41, 0
1, 13116, Note_on_c, 0, 67, 0
1, 13125, Note_on_c, 0, 63, 55
1, 13144, Note_on_c, 0, 63, 0
1, 13166, Note_on_c, 0, 29, 0
1, 13167, Note_on_c, 0, 60, 84
1, 13188, Note_on_c, 0, 34, 30
1, 13200, Marker_t, "Bb7"
1, 13200, Note_on_c, 0, 60, 0
1, 13209, Note_on_c, 0, 56, 57
1, 13233, Note_on_c, 0, 56, 0
1, 13250, Note_on_c, 0, 55, 54
1, 13267, Note_on_c, 0, 55, 0
1, 13287, Note_on_c, 0, 62, 82
1, 13294, Note_on_c, 0, 61, 35
1, 13301, Note_on_c, 0, 61, 0
1, 13308, Note_on_c, 0, 34, 0
1, 13314, Note_on_c, 0, 38, 34
1, 13318, Note_on_c, 0, 62, 0
1, 13329, Note_on_c, 0, 59, 68
1, 13392, Note_on_c, 0, 59, 0
1, 13395, Note_on_c, 0, 38, 0
1, 13400, Note_on_c, 0, 55, 60
1, 13406, Note_on_c, 0, 37, 29
1, 13418, Note_on_c, 0, 55, 0
1, 13434, Note_on_c, 0, 37, 0
1, 13437, Note_on_c, 0, 39, 46
1, 13440, Marker_t, "Eb7"
1, 13440, Note_on_c, 0, 58, 50
1, 13523, Note_on_c, 0, 55, 60
1, 13528, Note_on_c, 0, 58, 0
1, 13536, Note_on_c, 0, 55, 0
1, 13553, Note_on_c, 0, 39, 0
1, 13564, Note_on_c, 0, 46, 54
1, 13631, Note_on_c, 0, 46, 0
1, 13648, Note_on_c, 0, 46, 38
1, 13687, Note_on_c, 0, 55, 48
1, 13688, Note_on_c, 0, 46, 0
1, 13768, Note_on_c, 0, 55, 0
1, 13778, Note_on_c, 0, 46, 34
1, 13800, Note_on_c, 0, 46, 0
1, 13809, Note_on_c, 0, 51, 78
1, 13915, Note_on_c, 0, 51, 0
1, 13920, Marker_t, "Edim7"
1, 13925, Note_on_c, 0, 52, 60
1, 13974, Marker_t, "1/2 - whole step diminished scale"
1, 13984, Note_on_c, 0, 60, 53
1, 14007, Note_on_c, 0, 60, 0
1, 14016, Note_on_c, 0, 52, 0
1, 14016, Note_on_c, 0, 61, 32
1, 14047, Note_on_c, 0, 52, 24
1, 14050, Note_on_c, 0, 61, 0
1, 14050, Note_on_c, 0, 63, 42
1, 14078, Note_on_c, 0, 63, 0
1, 14088, Note_on_c, 0, 64, 40
1, 14112, Note_on_c, 0, 64, 0
1, 14127, Note_on_c, 0, 66, 71
1, 14152, Note_on_c, 0, 66, 0
1, 14156, Note_on_c, 0, 52, 0
1, 14165, Note_on_c, 0, 49, 25
1, 14168, Note_on_c, 0, 67, 48
1, 14199, Note_on_c, 0, 67, 0
1, 14209, Note_on_c, 0, 69, 59
1, 14232, Note_on_c, 0, 69, 0
1, 14232, Note_on_c, 0, 49, 0
1, 14245, Note_on_c, 0, 70, 72
1, 14272, Note_on_c, 0, 70, 0
1, 14279, Note_on_c, 0, 49, 27
1, 14288, Note_on_c, 0, 72, 47
1, 14298, Note_on_c, 0, 49, 0
1, 14309, Note_on_c, 0, 72, 0
1, 14326, Note_on_c, 0, 75, 68
1, 14348, Note_on_c, 0, 75, 0
1, 14360, Note_on_c, 0, 40, 49
1, 14364, Note_on_c, 0, 76, 82
1, 14392, Note_on_c, 0, 76, 0
1, 14400, Marker_t, "Bb7/F bass"
1, 14403, Note_on_c, 0, 40, 0
1, 14404, Note_on_c, 0, 77, 77
1, 14408, Note_on_c, 0, 41, 56
1, 14434, Note_on_c, 0, 77, 0
1, 14441, Note_on_c, 0, 74, 58
1, 14459, Note_on_c, 0, 74, 0
1, 14472, Note_on_c, 0, 41, 0
1, 14480, Note_on_c, 0, 77, 76
1, 14506, Note_on_c, 0, 77, 0
1, 14514, Note_on_c, 0, 41, 32
1, 14518, Note_on_c, 0, 74, 47
1, 14548, Note_on_c, 0, 74, 0
1, 14556, Note_on_c, 0, 70, 28
1, 14582, Note_on_c, 0, 70, 0
1, 14595, Note_on_c, 0, 65, 53
1, 14618, Note_on_c, 0, 65, 0
1, 14618, Note_on_c, 0, 41, 0
1, 14637, Note_on_c, 0, 39, 33
1, 14640, Marker_t, "Eb7"
1, 14720, Note_on_c, 0, 39, 0
1, 14729, Note_on_c, 0, 36, 38
1, 14753, Note_on_c, 0, 36, 0
1, 14766, Note_on_c, 0, 37, 65
1, 14852, Note_on_c, 0, 34, 34
1, 14876, Note_on_c, 0, 37, 0
1, 14880, Marker_t, "Dm7b5"
1, 14885, Note_on_c, 0, 34, 0
1, 14889, Note_on_c, 0, 74, 96
1, 14889, Note_on_c, 0, 38, 44
1, 14920, Note_on_c, 0, 74, 0
1, 14937, Note_on_c, 0, 68, 83
1, 14965, Note_on_c, 0, 68, 0
1, 14971, Note_on_c, 0, 38, 0
1, 14976, Note_on_c, 0, 67, 96
1, 14977, Note_on_c, 0, 68, 69
1, 14983, Note_on_c, 0, 68, 0
1, 14995, Note_on_c, 0, 44, 36
1, 15017, Note_on_c, 0, 68, 71
1, 15020, Note_on_c, 0, 67, 0
1, 15027, Note_on_c, 0, 70, 25
1, 15036, Note_on_c, 0, 70, 0
1, 15045, Note_on_c, 0, 67, 44
1, 15048, Note_on_c, 0, 68, 0
1, 15073, Note_on_c, 0, 67, 0
1, 15076, Note_on_c, 0, 65, 67
1, 15080, Note_on_c, 0, 42, 32
1, 15093, Note_on_c, 0, 65, 0
1, 15093, Note_on_c, 0, 44, 0
1, 15107, Note_on_c, 0, 63, 67
1, 15108, Note_on_c, 0, 42, 0
1, 15114, Note_on_c, 0, 43, 39
1, 15120, Marker_t, "G7"
1, 15133, Note_on_c, 0, 63, 0
1, 15143, Note_on_c, 0, 62, 68
1, 15214, Note_on_c, 0, 62, 0
1, 15214, Note_on_c, 0, 60, 77
1, 15216, Note_on_c, 0, 31, 38
1, 15232, Note_on_c, 0, 43, 0
1, 15242, Note_on_c, 0, 60, 0
1, 15254, Note_on_c, 0, 31, 0
1, 15256, Note_on_c, 0, 59, 43
1, 15263, Note_on_c, 0, 35, 45
1, 15332, Note_on_c, 0, 59, 0
1, 15336, Note_on_c, 0, 62, 80
1, 15359, Note_on_c, 0, 35, 0
1, 15360, Marker_t, "Cm7"
1, 15364, Note_on_c, 0, 62, 0
1, 15368, Note_on_c, 0, 36, 36
1, 15378, Note_on_c, 0, 60, 68
1, 15446, Note_on_c, 0, 60, 0
1, 15450, Note_on_c, 0, 36, 0
1, 15457, Note_on_c, 0, 55, 55
1, 15459, Note_on_c, 0, 34, 32
1, 15463, Note_on_c, 0, 55, 0
1, 15487, Note_on_c, 0, 34, 0
1, 15493, Note_on_c, 0, 38, 38
1, 15573, Note_on_c, 0, 37, 43
1, 15580, Note_on_c, 0, 38, 0
1, 15602, Note_on_c, 0, 37, 0
1, 15608, Note_on_c, 0, 39, 46
1, 15680, Note_on_c, 0, 37, 34
1, 15704, Note_on_c, 0, 39, 0
1, 15722, Note_on_c, 0, 37, 0
1, 15725, Note_on_c, 0, 40, 50
1, 15800, Note_on_c, 0, 40, 0
1, 15801, Note_on_c, 0, 39, 42
1, 15803, Note_on_c, 0, 62, 123
1, 15837, Note_on_c, 0, 62, 0
1, 15837, Note_on_c, 0, 39, 0
1, 15840, Marker_t, "F7"
1, 15845, Note_on_c, 0, 41, 40
1, 15850, Note_on_c, 0, 65, 84
1, 15904, Note_on_c, 0, 65, 0
1, 15916, Note_on_c, 0, 36, 29
1, 15930, Note_on_c, 0, 63, 69
1, 15940, Note_on_c, 0, 36, 0
1, 15959, Note_on_c, 0, 29, 27
1, 15966, Note_on_c, 0, 63, 0
1, 15984, Note_on_c, 0, 57, 31
1, 15993, Note_on_c, 0, 41, 0
1, 16045, Note_on_c, 0, 57, 0
1, 16049, Note_on_c, 0, 62, 68
1, 16060, Note_on_c, 0, 41, 37
1, 16079, Note_on_c, 0, 62, 0
1, 16095, Note_on_c, 0, 29, 0
1, 16096, Note_on_c, 0, 60, 49
1, 16171, Note_on_c, 0, 53, 38
1, 16176, Note_on_c, 0, 60, 0
1, 16180, Note_on_c, 0, 53, 0
1, 16198, Note_on_c, 0, 33, 50
1, 16207, Note_on_c, 0, 41, 0
1, 16208, Note_on_c, 0, 55, 39
1, 16272, Note_on_c, 0, 55, 0
1, 16288, Note_on_c, 0, 58, 75
1, 16303, Note_on_c, 0, 33, 0
1, 16313, Note_on_c, 0, 34, 27
1, 16320, Marker_t, "Bb7"
1, 16348, Note_on_c, 0, 58, 0
1, 16356, Note_on_c, 0, 60, 54
1, 16380, Note_on_c, 0, 60, 0
1, 16380, Note_on_c, 0, 58, 56
1, 16408, Note_on_c, 0, 58, 0
1, 16412, Note_on_c, 0, 57, 58
1, 16426, Note_on_c, 0, 57, 0
1, 16440, Note_on_c, 0, 38, 35
1, 16442, Note_on_c, 0, 34, 0
1, 16442, Note_on_c, 0, 58, 79
1, 16496, Note_on_c, 0, 58, 0
1, 16503, Note_on_c, 0, 38, 0
1, 16527, Note_on_c, 0, 34, 59
1, 16552, Note_on_c, 0, 34, 0
1, 16560, Marker_t, "G7 or Db7"
1, 16566, Note_on_c, 0, 31, 55
1, 16651, Note_on_c, 0, 31, 0
1, 16653, Note_on_c, 0, 35, 44
1, 16676, Note_on_c, 0, 35, 0
1, 16685, Note_on_c, 0, 38, 70
1, 16764, Note_on_c, 0, 38, 0
1, 16775, Note_on_c, 0, 35, 45
1, 16800, Marker_t, "C7 or Gb7"
1, 16802, Note_on_c, 0, 35, 0
1, 16815, Note_on_c, 0, 36, 31
1, 16843, Note_on_c, 0, 55, 55
1, 16865, Note_on_c, 0, 55, 0
1, 16884, Note_on_c, 0, 57, 62
1, 16896, Note_on_c, 0, 36, 0
1, 16905, Note_on_c, 0, 57, 0
1, 16921, Note_on_c, 0, 58, 55
1, 16926, Note_on_c, 0, 40, 30
1, 16963, Note_on_c, 0, 58, 0
1, 16964, Note_on_c, 0, 59, 71
1, 16982, Note_on_c, 0, 59, 0
1, 16999, Note_on_c, 0, 62, 90
1, 17011, Note_on_c, 0, 39, 18
1, 17031, Note_on_c, 0, 39, 0
1, 17033, Note_on_c, 0, 62, 0
1, 17035, Note_on_c, 0, 40, 0
1, 17040, Marker_t, "F7 or B7"
1, 17041, Note_on_c, 0, 59, 60
1, 17045, Note_on_c, 0, 41, 26
1, 17077, Note_on_c, 0, 59, 0
1, 17082, Note_on_c, 0, 60, 68
1, 17109, Note_on_c, 0, 60, 0
1, 17118, Note_on_c, 0, 62, 83
1, 17120, Note_on_c, 0, 60, 48
1, 17126, Note_on_c, 0, 60, 0
1, 17141, Note_on_c, 0, 29, 27
1, 17147, Note_on_c, 0, 62, 0
1, 17155, Note_on_c, 0, 63, 56
1, 17188, Note_on_c, 0, 63, 0
1, 17196, Note_on_c, 0, 64, 60
1, 17206, Note_on_c, 0, 29, 0
1, 17217, Note_on_c, 0, 64, 0
1, 17230, Note_on_c, 0, 33, 60
1, 17232, Note_on_c, 0, 41, 0
1, 17232, Note_on_c, 0, 67, 85
1, 17264, Note_on_c, 0, 67, 0
1, 17271, Note_on_c, 0, 33, 0
1, 17276, Note_on_c, 0, 34, 57
1, 17276, Note_on_c, 0, 65, 77
1, 17280, Marker_t, "Bb7"
1, 17343, Note_on_c, 0, 65, 0
1, 17355, Note_on_c, 0, 62, 55
1, 17386, Note_on_c, 0, 62, 0
1, 17392, Note_on_c, 0, 34, 0
1, 17399, Note_on_c, 0, 58, 43
1, 17405, Note_on_c, 0, 46, 21
1, 17472, Note_on_c, 0, 58, 0
1, 17494, Note_on_c, 0, 46, 0
1, 17507, Note_on_c, 0, 41, 20
1, 17520, Note_on_c, 0, 58, 63
1, 17564, Note_on_c, 0, 58, 0
1, 17569, Note_on_c, 0, 60, 53
1, 17591, Note_on_c, 0, 60, 0
1, 17591, Note_on_c, 0, 58, 43
1, 17618, Note_on_c, 0, 58, 0
1, 17624, Note_on_c, 0, 53, 26
1, 17632, Note_on_c, 0, 53, 0
1, 17634, Note_on_c, 0, 41, 0
1, 17641, Note_on_c, 0, 46, 29
1, 17646, Note_on_c, 0, 58, 69
1, 17681, Note_on_c, 0, 58, 0
1, 17687, Note_on_c, 0, 60, 52
1, 17702, Note_on_c, 0, 60, 0
1, 17704, Note_on_c, 0, 58, 47
1, 17720, Note_on_c, 0, 46, 0
1, 17727, Note_on_c, 0, 44, 31
1, 17733, Note_on_c, 0, 58, 0
1, 17760, Note_on_c, 0, 44, 0
1, 17760, Note_on_c, 0, 57, 58
1, 17766, Note_on_c, 0, 45, 39
1, 17805, Note_on_c, 0, 57, 0
1, 17836, Note_on_c, 0, 45, 0
1, 17841, Note_on_c, 0, 39, 73
1, 17969, Note_on_c, 0, 37, 42
1, 17980, Note_on_c, 0, 39, 0
1, 18000, Note_on_c, 0, 37, 0
1, 18006, Note_on_c, 0, 38, 49
1, 18051, Note_on_c, 0, 60, 62
1, 18085, Note_on_c, 0, 60, 0
1, 18092, Note_on_c, 0, 63, 64
1, 18108, Note_on_c, 0, 63, 0
1, 18121, Note_on_c, 0, 42, 31
1, 18128, Note_on_c, 0, 38, 0
1, 18171, Note_on_c, 0, 66, 64
1, 18187, Note_on_c, 0, 66, 0
1, 18208, Note_on_c, 0, 69, 88
1, 18225, Note_on_c, 0, 42, 0
1, 18226, Note_on_c, 0, 43, 48
1, 18234, Note_on_c, 0, 69, 0
1, 18252, Note_on_c, 0, 72, 87
1, 18275, Note_on_c, 0, 72, 0
1, 18291, Note_on_c, 0, 70, 68
1, 18315, Note_on_c, 0, 70, 0
1, 18332, Note_on_c, 0, 66, 60
1, 18346, Note_on_c, 0, 50, 40
1, 18348, Note_on_c, 0, 43, 0
1, 18355, Note_on_c, 0, 66, 0
1, 18370, Note_on_c, 0, 69, 70
1, 18395, Note_on_c, 0, 69, 0
1, 18409, Note_on_c, 0, 67, 51
1, 18430, Note_on_c, 0, 50, 0
1, 18435, Note_on_c, 0, 67, 0
1, 18448, Note_on_c, 0, 62, 50
1, 18457, Note_on_c, 0, 62, 0
1, 18481, Note_on_c, 0, 48, 41
1, 18486, Note_on_c, 0, 65, 77
1, 18512, Note_on_c, 0, 65, 0
1, 18522, Note_on_c, 0, 67, 45
1, 18541, Note_on_c, 0, 65, 44
1, 18543, Note_on_c, 0, 67, 0
1, 18563, Note_on_c, 0, 65, 0
1, 18567, Note_on_c, 0, 62, 47
1, 18588, Note_on_c, 0, 62, 0
1, 18596, Note_on_c, 0, 36, 22
1, 18600, Note_on_c, 0, 48, 0
1, 18608, Note_on_c, 0, 64, 53
1, 18674, Note_on_c, 0, 64, 0
1, 18685, Note_on_c, 0, 61, 68
1, 18694, Note_on_c, 0, 40, 28
1, 18713, Note_on_c, 0, 61, 0
1, 18718, Note_on_c, 0, 40, 0
1, 18721, Note_on_c, 0, 36, 0
1, 18726, Note_on_c, 0, 60, 62
1, 18733, Note_on_c, 0, 41, 29
1, 18794, Note_on_c, 0, 60, 0
1, 18807, Note_on_c, 0, 58, 62
1, 18824, Note_on_c, 0, 41, 0
1, 18836, Note_on_c, 0, 58, 0
1, 18836, Note_on_c, 0, 46, 18
1, 18854, Note_on_c, 0, 56, 25
1, 18921, Note_on_c, 0, 46, 0
1, 18923, Note_on_c, 0, 56, 0
1, 18927, Note_on_c, 0, 53, 49
1, 18935, Note_on_c, 0, 53, 0
1, 18960, Note_on_c, 0, 46, 23
1, 18963, Note_on_c, 0, 58, 61
1, 18994, Note_on_c, 0, 58, 0
1, 19004, Note_on_c, 0, 59, 54
1, 19028, Note_on_c, 0, 59, 0
1, 19044, Note_on_c, 0, 61, 72
1, 19068, Note_on_c, 0, 61, 0
1, 19085, Note_on_c, 0, 64, 55
1, 19111, Note_on_c, 0, 64, 0
1, 19114, Note_on_c, 0, 46, 0
1, 19125, Note_on_c, 0, 66, 67
1, 19146, Note_on_c, 0, 66, 0
1, 19165, Note_on_c, 0, 68, 74
1, 19188, Note_on_c, 0, 68, 0
1, 19190, Note_on_c, 0, 39, 32
1, 19210, Note_on_c, 0, 69, 55
1, 19230, Note_on_c, 0, 69, 0
1, 19249, Note_on_c, 0, 72, 75
1, 19272, Note_on_c, 0, 72, 0
1, 19286, Note_on_c, 0, 70, 73
1, 19303, Note_on_c, 0, 46, 36
1, 19307, Note_on_c, 0, 39, 0
1, 19313, Note_on_c, 0, 70, 0
1, 19330, Note_on_c, 0, 67, 40
1, 19357, Note_on_c, 0, 67, 0
1, 19370, Note_on_c, 0, 64, 41
1, 19398, Note_on_c, 0, 64, 0
1, 19410, Note_on_c, 0, 61, 62
1, 19422, Note_on_c, 0, 61, 0
1, 19450, Note_on_c, 0, 55, 31
1, 19468, Note_on_c, 0, 46, 0
1, 19531, Note_on_c, 0, 55, 0
1, 19535, Note_on_c, 0, 46, 34
1, 19568, Note_on_c, 0, 46, 0
1, 19655, Note_on_c, 0, 51, 73
1, 19697, Note_on_c, 0, 51, 0
1, 19702, Note_on_c, 0, 52, 57
1, 19792, Note_on_c, 0, 52, 0
1, 19819, Note_on_c, 0, 52, 61
1, 19919, Note_on_c, 0, 52, 0
1, 19934, Note_on_c, 0, 64, 53
1, 19940, Note_on_c, 0, 52, 44
1, 19964, Note_on_c, 0, 64, 0
1, 19975, Note_on_c, 0, 66, 57
1, 19996, Note_on_c, 0, 66, 0
1, 20009, Note_on_c, 0, 52, 0
1, 20012, Note_on_c, 0, 67, 57
1, 20032, Note_on_c, 0, 52, 32
1, 20037, Note_on_c, 0, 67, 0
1, 20092, Note_on_c, 0, 75, 59
1, 20110, Note_on_c, 0, 75, 0
1, 20128, Note_on_c, 0, 79, 83
1, 20145, Note_on_c, 0, 52, 0
1, 20152, Note_on_c, 0, 46, 33
1, 20156, Note_on_c, 0, 79, 0
1, 20168, Note_on_c, 0, 77, 72
1, 20173, Note_on_c, 0, 46, 0
1, 20177, Note_on_c, 0, 50, 24
1, 20235, Note_on_c, 0, 77, 0
1, 20241, Note_on_c, 0, 50, 0
1, 20245, Note_on_c, 0, 74, 62
1, 20273, Note_on_c, 0, 74, 0
1, 20281, Note_on_c, 0, 50, 30
1, 20291, Note_on_c, 0, 70, 37
1, 20324, Note_on_c, 0, 50, 0
1, 20354, Note_on_c, 0, 70, 0
1, 20364, Note_on_c, 0, 65, 49
1, 20374, Note_on_c, 0, 65, 0
1, 20401, Note_on_c, 0, 41, 41
1, 20491, Note_on_c, 0, 37, 39
1, 20493, Note_on_c, 0, 41, 0
1, 20514, Note_on_c, 0, 37, 0
1, 20526, Note_on_c, 0, 39, 37
1, 20621, Note_on_c, 0, 37, 21
1, 20633, Note_on_c, 0, 39, 0
1, 20643, Note_on_c, 0, 37, 0
1, 20650, Note_on_c, 0, 38, 43
1, 20653, Note_on_c, 0, 67, 67
1, 20714, Note_on_c, 0, 67, 0
1, 20736, Note_on_c, 0, 68, 85
1, 20760, Note_on_c, 0, 38, 0
1, 20763, Note_on_c, 0, 68, 0
1, 20767, Note_on_c, 0, 44, 23
1, 20779, Note_on_c, 0, 67, 69
1, 20808, Note_on_c, 0, 67, 0
1, 20814, Note_on_c, 0, 68, 49
1, 20837, Note_on_c, 0, 67, 42
1, 20840, Note_on_c, 0, 42, 31
1, 20842, Note_on_c, 0, 68, 0
1, 20852, Note_on_c, 0, 44, 0
1, 20865, Note_on_c, 0, 67, 0
1, 20865, Note_on_c, 0, 65, 62
1, 20870, Note_on_c, 0, 42, 0
1, 20880, Note_on_c, 0, 43, 30
1, 20886, Note_on_c, 0, 65, 0
1, 20907, Note_on_c, 0, 63, 40
1, 20962, Note_on_c, 0, 63, 0
1, 20974, Note_on_c, 0, 62, 71
1, 20992, Note_on_c, 0, 43, 0
1, 20994, Note_on_c, 0, 47, 28
1, 21006, Note_on_c, 0, 62, 0
1, 21019, Note_on_c, 0, 60, 47
1, 21087, Note_on_c, 0, 46, 27
1, 21096, Note_on_c, 0, 60, 0
1, 21102, Note_on_c, 0, 59, 35
1, 21115, Note_on_c, 0, 47, 0
1, 21116, Note_on_c, 0, 59, 0
1, 21116, Note_on_c, 0, 46, 0
1, 21126, Note_on_c, 0, 50, 32
1, 21134, Note_on_c, 0, 62, 60
1, 21207, Note_on_c, 0, 62, 0
1, 21209, Note_on_c, 0, 50, 0
1, 21218, Note_on_c, 0, 47, 39
1, 21221, Note_on_c, 0, 59, 20
1, 21238, Note_on_c, 0, 47, 0
1, 21241, Note_on_c, 0, 59, 0
1, 21251, Note_on_c, 0, 48, 44
1, 21252, Note_on_c, 0, 60, 68
1, 21331, Note_on_c, 0, 55, 62
1, 21338, Note_on_c, 0, 60, 0
1, 21343, Note_on_c, 0, 55, 0
1, 21345, Note_on_c, 0, 48, 0
1, 21358, Note_on_c, 0, 43, 30
1, 21440, Note_on_c, 0, 43, 0
1, 21446, Note_on_c, 0, 39, 43
1, 21474, Note_on_c, 0, 39, 0
1, 21482, Note_on_c, 0, 42, 47
1, 21564, Note_on_c, 0, 39, 38
1, 21572, Note_on_c, 0, 42, 0
1, 21593, Note_on_c, 0, 39, 0
1, 21604, Note_on_c, 0, 41, 42
1, 21648, Note_on_c, 0, 53, 57
1, 21666, Note_on_c, 0, 53, 0
1, 21684, Note_on_c, 0, 55, 70
1, 21706, Note_on_c, 0, 55, 0
1, 21716, Note_on_c, 0, 29, 32
1, 21725, Note_on_c, 0, 56, 77
1, 21780, Note_on_c, 0, 41, 0
1, 21810, Note_on_c, 0, 41, 50
1, 21820, Note_on_c, 0, 29, 0
1, 21851, Note_on_c, 0, 57, 75
1, 21852, Note_on_c, 0, 56, 0
1, 21921, Note_on_c, 0, 57, 0
1, 21932, Note_on_c, 0, 53, 30
1, 21944, Note_on_c, 0, 53, 0
1, 21967, Note_on_c, 0, 33, 48
1, 21970, Note_on_c, 0, 59, 66
1, 21976, Note_on_c, 0, 41, 0
1, 22036, Note_on_c, 0, 59, 0
1, 22055, Note_on_c, 0, 57, 37
1, 22070, Note_on_c, 0, 57, 0
1, 22074, Note_on_c, 0, 33, 0
1, 22087, Note_on_c, 0, 34, 35
1, 22092, Note_on_c, 0, 58, 57
1, 22165, Note_on_c, 0, 32, 32
1, 22168, Note_on_c, 0, 58, 0
1, 22171, Note_on_c, 0, 53, 61
1, 22180, Note_on_c, 0, 53, 0
1, 22199, Note_on_c, 0, 32, 0
1, 22202, Note_on_c, 0, 34, 0
1, 22202, Note_on_c, 0, 38, 34
1, 22293, Note_on_c, 0, 34, 36
1, 22305, Note_on_c, 0, 38, 0
1, 22325, Note_on_c, 0, 34, 0
1, 22328, Note_on_c, 0, 63, 58
1, 22328, Note_on_c, 0, 37, 49
1, 22328, Note_on_c, 0, 56, 61
1, 22440, Note_on_c, 0, 63, 0
1, 22445, Note_on_c, 0, 37, 0
1, 22448, Note_on_c, 0, 59, 41
1, 22452, Note_on_c, 0, 49, 40
1, 22454, Note_on_c, 0, 53, 28
1, 22527, Note_on_c, 0, 53, 0
1, 22534, Note_on_c, 0, 49, 0
1, 22535, Note_on_c, 0, 46, 33
1, 22537, Note_on_c, 0, 59, 0
1, 22538, Note_on_c, 0, 56, 0
1, 22556, Note_on_c, 0, 46, 0
1, 22564, Note_on_c, 0, 63, 51
1, 22566, Note_on_c, 0, 48, 52
1, 22567, Note_on_c, 0, 52, 57
1, 22567, Note_on_c, 0, 58, 58
1, 22647, Note_on_c, 0, 39, 42
1, 22652, Note_on_c, 0, 48, 0
1, 22678, Note_on_c, 0, 39, 0
1, 22688, Note_on_c, 0, 40, 50
1, 22718, Note_on_c, 0, 52, 0
1, 22744, Note_on_c, 0, 63, 0
1, 22750, Note_on_c, 0, 58, 0
1, 22753, Note_on_c, 0, 39, 29
1, 22767, Note_on_c, 0, 60, 68
1, 22768, Note_on_c, 0, 40, 0
1, 22768, Note_on_c, 0, 51, 57
1, 22771, Note_on_c, 0, 39, 0
1, 22772, Note_on_c, 0, 57, 45
1, 22774, Note_on_c, 0, 51, 0
1, 22778, Note_on_c, 0, 57, 0
1, 22781, Note_on_c, 0, 41, 35
1, 22786, Note_on_c, 0, 60, 0
1, 22851, Note_on_c, 0, 65, 63
1, 22860, Note_on_c, 0, 65, 0
1, 22885, Note_on_c, 0, 67, 66
1, 22903, Note_on_c, 0, 67, 0
1, 22911, Note_on_c, 0, 29, 32
1, 22921, Note_on_c, 0, 70, 77
1, 22922, Note_on_c, 0, 41, 0
1, 22954, Note_on_c, 0, 70, 0
1, 22998, Note_on_c, 0, 72, 77
1, 23014, Note_on_c, 0, 29, 0
1, 23016, Note_on_c, 0, 72, 0
1, 23028, Note_on_c, 0, 34, 36
1, 23037, Note_on_c, 0, 72, 34
1, 23052, Note_on_c, 0, 73, 36
1, 23058, Note_on_c, 0, 72, 0
1, 23076, Note_on_c, 0, 73, 0
1, 23084, Note_on_c, 0, 74, 28
1, 23105, Note_on_c, 0, 74, 0
1, 23121, Note_on_c, 0, 77, 80
1, 23122, Note_on_c, 0, 65, 84
1, 23135, Note_on_c, 0, 65, 0
1, 23141, Note_on_c, 0, 77, 0
1, 23148, Note_on_c, 0, 34, 0
1, 23151, Note_on_c, 0, 46, 48
1, 23157, Note_on_c, 0, 79, 83
1, 23237, Note_on_c, 0, 79, 0
1, 23274, Note_on_c, 0, 46, 0
1, 23276, Note_on_c, 0, 77, 55
1, 23278, Note_on_c, 0, 65, 58
1, 23279, Note_on_c, 0, 41, 39
1, 23306, Note_on_c, 0, 65, 0
1, 23312, Note_on_c, 0, 77, 0
1, 23390, Note_on_c, 0, 41, 0
1, 23401, Note_on_c, 0, 34, 79
1, 23500, Note_on_c, 0, 40, 35
1, 23516, Note_on_c, 0, 40, 0
1, 23523, Note_on_c, 0, 34, 0
1, 23527, Note_on_c, 0, 33, 64
1, 23614, Note_on_c, 0, 67, 48
1, 23623, Note_on_c, 0, 67, 0
1, 23646, Note_on_c, 0, 39, 51
1, 23650, Note_on_c, 0, 77, 87
1, 23671, Note_on_c, 0, 33, 0
1, 23678, Note_on_c, 0, 77, 0
1, 23691, Note_on_c, 0, 75, 77
1, 23721, Note_on_c, 0, 75, 0
1, 23728, Note_on_c, 0, 72, 66
1, 23734, Note_on_c, 0, 39, 0
1, 23743, Note_on_c, 0, 38, 46
1, 23753, Note_on_c, 0, 72, 0
1, 23768, Note_on_c, 0, 74, 69
1, 23794, Note_on_c, 0, 74, 0
1, 23809, Note_on_c, 0, 72, 63
1, 23830, Note_on_c, 0, 72, 0
1, 23846, Note_on_c, 0, 70, 69
1, 23868, Note_on_c, 0, 70, 0
1, 23870, Note_on_c, 0, 38, 0
1, 23876, Note_on_c, 0, 42, 34
1, 23880, Note_on_c, 0, 66, 58
1, 23902, Note_on_c, 0, 66, 0
1, 23921, Note_on_c, 0, 65, 51
1, 23941, Note_on_c, 0, 65, 0
1, 23949, Note_on_c, 0, 39, 23
1, 23955, Note_on_c, 0, 63, 46
1, 23975, Note_on_c, 0, 42, 0
1, 23977, Note_on_c, 0, 39, 0
1, 23988, Note_on_c, 0, 63, 0
1, 23990, Note_on_c, 0, 43, 24
1, 23992, Note_on_c, 0, 62, 58
1, 24014, Note_on_c, 0, 62, 0
1, 24029, Note_on_c, 0, 65, 53
1, 24054, Note_on_c, 0, 65, 0
1, 24058, Note_on_c, 0, 62, 43
1, 24086, Note_on_c, 0, 62, 0
1, 24096, Note_on_c, 0, 58, 46
1, 24116, Note_on_c, 0, 58, 0
1, 24116, Note_on_c, 0, 43, 0
1, 24118, Note_on_c, 0, 46, 27
1, 24120, Note_on_c, 0, 55, 35
1, 24130, Note_on_c, 0, 55, 0
1, 24150, Note_on_c, 0, 62, 55
1, 24197, Note_on_c, 0, 62, 0
1, 24206, Note_on_c, 0, 58, 53
1, 24213, Note_on_c, 0, 46, 0
1, 24222, Note_on_c, 0, 47, 30
1, 24230, Note_on_c, 0, 58, 0
1, 24241, Note_on_c, 0, 47, 0
1, 24243, Note_on_c, 0, 60, 64
1, 24248, Note_on_c, 0, 48, 41
1, 24306, Note_on_c, 0, 60, 0
1, 24326, Note_on_c, 0, 55, 65
1, 24333, Note_on_c, 0, 55, 0
1, 24348, Note_on_c, 0, 48, 0
1, 24359, Note_on_c, 0, 42, 37
1, 24441, Note_on_c, 0, 39, 34
1, 24456, Note_on_c, 0, 42, 0
1, 24466, Note_on_c, 0, 39, 0
1, 24479, Note_on_c, 0, 41, 33
1, 24482, Note_on_c, 0, 56, 52
1, 24510, Note_on_c, 0, 56, 0
1, 24517, Note_on_c, 0, 58, 49
1, 24548, Note_on_c, 0, 56, 51
1, 24558, Note_on_c, 0, 58, 0
1, 24572, Note_on_c, 0, 56, 0
1, 24579, Note_on_c, 0, 55, 52
1, 24586, Note_on_c, 0, 29, 26
1, 24592, Note_on_c, 0, 41, 0
1, 24597, Note_on_c, 0, 55, 0
1, 24610, Note_on_c, 0, 56, 32
1, 24632, Note_on_c, 0, 56, 0
1, 24639, Note_on_c, 0, 58, 34
1, 24654, Note_on_c, 0, 58, 0
1, 24663, Note_on_c, 0, 60, 66
1, 24684, Note_on_c, 0, 60, 0
1, 24684, Note_on_c, 0, 29, 0
1, 24692, Note_on_c, 0, 62, 64
1, 24705, Note_on_c, 0, 34, 25
1, 24710, Note_on_c, 0, 62, 0
1, 24729, Note_on_c, 0, 63, 38
1, 24738, Note_on_c, 0, 63, 0
1, 24753, Note_on_c, 0, 65, 62
1, 24770, Note_on_c, 0, 65, 0
1, 24782, Note_on_c, 0, 67, 57
1, 24803, Note_on_c, 0, 67, 0
1, 24816, Note_on_c, 0, 68, 64
1, 24822, Note_on_c, 0, 46, 29
1, 24838, Note_on_c, 0, 68, 0
1, 24848, Note_on_c, 0, 70, 61
1, 24858, Note_on_c, 0, 70, 0
1, 24866, Note_on_c, 0, 71, 41
1, 24870, Note_on_c, 0, 34, 0
1, 24882, Note_on_c, 0, 71, 0
1, 24910, Note_on_c, 0, 72, 46
1, 24925, Note_on_c, 0, 72, 0
1, 24946, Note_on_c, 0, 73, 81
1, 24962, Note_on_c, 0, 46, 0
1, 24962, Note_on_c, 0, 39, 38
1, 24965, Note_on_c, 0, 73, 0
1, 24978, Note_on_c, 0, 74, 69
1, 25003, Note_on_c, 0, 74, 0
1, 25014, Note_on_c, 0, 70, 67
1, 25036, Note_on_c, 0, 70, 0
1, 25048, Note_on_c, 0, 67, 50
1, 25064, Note_on_c, 0, 67, 0
1, 25083, Note_on_c, 0, 63, 55
1, 25097, Note_on_c, 0, 46, 23
1, 25113, Note_on_c, 0, 63, 0
1, 25114, Note_on_c, 0, 39, 0
1, 25123, Note_on_c, 0, 62, 26
1, 25168, Note_on_c, 0, 62, 0
1, 25181, Note_on_c, 0, 65, 72
1, 25207, Note_on_c, 0, 65, 0
1, 25210, Note_on_c, 0, 55, 39
1, 25221, Note_on_c, 0, 62, 44
1, 25233, Note_on_c, 0, 55, 0
1, 25278, Note_on_c, 0, 46, 0
1, 25282, Note_on_c, 0, 62, 0
1, 25290, Note_on_c, 0, 58, 60
1, 25299, Note_on_c, 0, 55, 42
1, 25305, Note_on_c, 0, 55, 0
1, 25308, Note_on_c, 0, 58, 0
1, 25325, Note_on_c, 0, 39, 42
1, 25408, Note_on_c, 0, 39, 0
1, 25409, Note_on_c, 0, 46, 51
1, 25434, Note_on_c, 0, 46, 0
1, 25448, Note_on_c, 0, 52, 61
1, 25561, Note_on_c, 0, 52, 0
1, 25570, Note_on_c, 0, 49, 45
1, 25664, Note_on_c, 0, 46, 33
1, 25687, Note_on_c, 0, 49, 0
1, 25689, Note_on_c, 0, 52, 44
1, 25690, Note_on_c, 0, 84, 92
1, 25693, Note_on_c, 0, 46, 0
1, 25712, Note_on_c, 0, 84, 0
1, 25729, Note_on_c, 0, 82, 75
1, 25760, Note_on_c, 0, 82, 0
1, 25766, Note_on_c, 0, 73, 69
1, 25779, Note_on_c, 0, 52, 0
1, 25788, Note_on_c, 0, 49, 30
1, 25790, Note_on_c, 0, 73, 0
1, 25807, Note_on_c, 0, 72, 44
1, 25834, Note_on_c, 0, 72, 0
1, 25846, Note_on_c, 0, 70, 53
1, 25870, Note_on_c, 0, 70, 0
1, 25909, Note_on_c, 0, 49, 0
1, 25926, Note_on_c, 0, 69, 71
1, 25932, Note_on_c, 0, 50, 44
1, 25964, Note_on_c, 0, 69, 0
1, 25974, Note_on_c, 0, 70, 49
1, 25996, Note_on_c, 0, 69, 46
1, 26006, Note_on_c, 0, 70, 0
1, 26015, Note_on_c, 0, 69, 0
1, 26022, Note_on_c, 0, 65, 55
1, 26026, Note_on_c, 0, 50, 0
1, 26039, Note_on_c, 0, 65, 0
1, 26051, Note_on_c, 0, 46, 21
1, 26058, Note_on_c, 0, 62, 34
1, 26130, Note_on_c, 0, 58, 49
1, 26139, Note_on_c, 0, 62, 0
1, 26139, Note_on_c, 0, 46, 0
1, 26151, Note_on_c, 0, 58, 0
1, 26171, Note_on_c, 0, 55, 64
1, 26254, Note_on_c, 0, 37, 38
1, 26277, Note_on_c, 0, 37, 0
1, 26292, Note_on_c, 0, 39, 45
1, 26370, Note_on_c, 0, 37, 30
1, 26385, Note_on_c, 0, 39, 0
1, 26399, Note_on_c, 0, 37, 0
1, 26405, Note_on_c, 0, 38, 48
1, 26445, Note_on_c, 0, 55, 0
1, 26452, Note_on_c, 0, 56, 46
1, 26474, Note_on_c, 0, 56, 0
1, 26491, Note_on_c, 0, 60, 69
1, 26508, Note_on_c, 0, 38, 0
1, 26515, Note_on_c, 0, 60, 0
1, 26529, Note_on_c, 0, 44, 25
1, 26533, Note_on_c, 0, 62, 78
1, 26599, Note_on_c, 0, 62, 0
1, 26609, Note_on_c, 0, 63, 77
1, 26609, Note_on_c, 0, 42, 31
1, 26628, Note_on_c, 0, 44, 0
1, 26630, Note_on_c, 0, 42, 0
1, 26643, Note_on_c, 0, 63, 0
1, 26643, Note_on_c, 0, 43, 33
1, 26657, Note_on_c, 0, 62, 62
1, 26720, Note_on_c, 0, 62, 0
1, 26730, Note_on_c, 0, 60, 64
1, 26732, Note_on_c, 0, 38, 42
1, 26740, Note_on_c, 0, 43, 0
1, 26756, Note_on_c, 0, 38, 0
1, 26759, Note_on_c, 0, 60, 0
1, 26773, Note_on_c, 0, 35, 39
1, 26778, Note_on_c, 0, 59, 38
1, 26844, Note_on_c, 0, 59, 0
1, 26851, Note_on_c, 0, 62, 61
1, 26853, Note_on_c, 0, 34, 25
1, 26860, Note_on_c, 0, 35, 0
1, 26873, Note_on_c, 0, 36, 31
1, 26876, Note_on_c, 0, 34, 0
1, 26881, Note_on_c, 0, 62, 0
1, 26900, Note_on_c, 0, 60, 50
1, 26972, Note_on_c, 0, 55, 57
1, 26979, Note_on_c, 0, 55, 0
1, 26980, Note_on_c, 0, 60, 0
1, 27006, Note_on_c, 0, 39, 38
1, 27007, Note_on_c, 0, 36, 0
1, 27090, Note_on_c, 0, 37, 25
1, 27120, Note_on_c, 0, 37, 0
1, 27124, Note_on_c, 0, 43, 51
1, 27126, Note_on_c, 0, 39, 0
1, 27206, Note_on_c, 0, 39, 37
1, 27220, Note_on_c, 0, 43, 0
1, 27239, Note_on_c, 0, 39, 0
1, 27248, Note_on_c, 0, 42, 46
1, 27251, Note_on_c, 0, 60, 94
1, 27330, Note_on_c, 0, 39, 36
1, 27351, Note_on_c, 0, 42, 0
1, 27354, Note_on_c, 0, 60, 0
1, 27361, Note_on_c, 0, 39, 0
1, 27369, Note_on_c, 0, 41, 45
1, 27371, Note_on_c, 0, 59, 77
1, 27443, Note_on_c, 0, 59, 0
1, 27450, Note_on_c, 0, 56, 64
1, 27473, Note_on_c, 0, 56, 0
1, 27482, Note_on_c, 0, 29, 25
1, 27513, Note_on_c, 0, 41, 0
1, 27566, Note_on_c, 0, 36, 44
1, 27586, Note_on_c, 0, 29, 0
1, 27588, Note_on_c, 0, 36, 0
1, 27606, Note_on_c, 0, 41, 66
1, 27690, Note_on_c, 0, 32, 42
1, 27708, Note_on_c, 0, 32, 0
1, 27727, Note_on_c, 0, 33, 57
1, 27733, Note_on_c, 0, 41, 0
1, 27843, Note_on_c, 0, 33, 0
1, 27850, Note_on_c, 0, 34, 47
1, 27850, Note_on_c, 0, 58, 78
1, 27923, Note_on_c, 0, 58, 0
1, 27931, Note_on_c, 0, 55, 66
1, 27939, Note_on_c, 0, 55, 0
1, 27956, Note_on_c, 0, 34, 0
1, 27965, Note_on_c, 0, 46, 63
1, 28047, Note_on_c, 0, 46, 0
1, 28051, Note_on_c, 0, 39, 35
1, 28076, Note_on_c, 0, 39, 0
1, 28085, Note_on_c, 0, 44, 57
1, 28167, Note_on_c, 0, 39, 25
1, 28176, Note_on_c, 0, 44, 0
1, 28200, Note_on_c, 0, 39, 0
1, 28203, Note_on_c, 0, 43, 48
1, 28277, Note_on_c, 0, 43, 0
1, 28288, Note_on_c, 0, 35, 58
1, 28310, Note_on_c, 0, 35, 0
1, 28326, Note_on_c, 0, 36, 57
1, 28405, Note_on_c, 0, 63, 64
1, 28408, Note_on_c, 0, 58, 62
1, 28410, Note_on_c, 0, 36, 0
1, 28410, Note_on_c, 0, 52, 50
1, 28416, Note_on_c, 0, 52, 0
1, 28424, Note_on_c, 0, 63, 0
1, 28426, Note_on_c, 0, 58, 0
1, 28428, Note_on_c, 0, 42, 34
1, 28520, Note_on_c, 0, 39, 47
1, 28522, Note_on_c, 0, 42, 0
1, 28548, Note_on_c, 0, 39, 0
1, 28560, Note_on_c, 0, 41, 54
1, 28643, Note_on_c, 0, 72, 94
1, 28659, Note_on_c, 0, 29, 52
1, 28666, Note_on_c, 0, 72, 0
1, 28681, Note_on_c, 0, 73, 67
1, 28693, Note_on_c, 0, 73, 0
1, 28695, Note_on_c, 0, 74, 56
1, 28710, Note_on_c, 0, 74, 0
1, 28724, Note_on_c, 0, 77, 66
1, 28747, Note_on_c, 0, 77, 0
1, 28759, Note_on_c, 0, 79, 82
1, 28766, Note_on_c, 0, 29, 0
1, 28766, Note_on_c, 0, 78, 35
1, 28773, Note_on_c, 0, 78, 0
1, 28781, Note_on_c, 0, 41, 0
1, 28784, Note_on_c, 0, 79, 0
1, 28791, Note_on_c, 0, 34, 44
1, 28796, Note_on_c, 0, 77, 62
1, 28815, Note_on_c, 0, 77, 0
1, 28884, Note_on_c, 0, 41, 31
1, 28902, Note_on_c, 0, 34, 0
1, 28916, Note_on_c, 0, 41, 0
1, 28917, Note_on_c, 0, 46, 37
1, 28924, Note_on_c, 0, 60, 57
1, 28924, Note_on_c, 0, 62, 44
1, 28924, Note_on_c, 0, 57, 50
1, 28924, Note_on_c, 0, 65, 52
1, 28944, Note_on_c, 0, 65, 0
1, 28944, Note_on_c, 0, 62, 0
1, 28951, Note_on_c, 0, 60, 0
1, 28960, Note_on_c, 0, 57, 0
1, 29010, Note_on_c, 0, 58, 56
1, 29011, Note_on_c, 0, 53, 64
1, 29012, Note_on_c, 0, 62, 42
1, 29016, Note_on_c, 0, 56, 26
1, 29018, Note_on_c, 0, 53, 0
1, 29020, Note_on_c, 0, 62, 0
1, 29023, Note_on_c, 0, 56, 0
1, 29026, Note_on_c, 0, 58, 0
1, 29048, Note_on_c, 0, 34, 37
1, 29065, Note_on_c, 0, 46, 0
1, 29138, Note_on_c, 0, 41, 34
1, 29144, Note_on_c, 0, 34, 0
1, 29155, Note_on_c, 0, 41, 0
1, 29168, Note_on_c, 0, 46, 78
1, 29254, Note_on_c, 0, 46, 0
1, 29254, Note_on_c, 0, 42, 45
1, 29284, Note_on_c, 0, 42, 0
1, 29289, Note_on_c, 0, 63, 68
1, 29292, Note_on_c, 0, 45, 48
1, 29292, Note_on_c, 0, 55, 73
1, 29292, Note_on_c, 0, 60, 74
1, 29335, Note_on_c, 0, 55, 0
1, 29344, Note_on_c, 0, 60, 0
1, 29349, Note_on_c, 0, 63, 0
1, 29368, Note_on_c, 0, 63, 52
1, 29369, Note_on_c, 0, 55, 60
1, 29371, Note_on_c, 0, 60, 52
1, 29377, Note_on_c, 0, 55, 0
1, 29379, Note_on_c, 0, 60, 0
1, 29381, Note_on_c, 0, 45, 0
1, 29389, Note_on_c, 0, 63, 0
1, 29406, Note_on_c, 0, 49, 29
1, 29488, Note_on_c, 0, 65, 62
1, 29488, Note_on_c, 0, 58, 67
1, 29490, Note_on_c, 0, 54, 53
1, 29494, Note_on_c, 0, 49, 0
1, 29494, Note_on_c, 0, 60, 46
1, 29495, Note_on_c, 0, 65, 0
1, 29497, Note_on_c, 0, 54, 0
1, 29501, Note_on_c, 0, 60, 0
1, 29502, Note_on_c, 0, 50, 39
1, 29503, Note_on_c, 0, 58, 0
1, 29563, Note_on_c, 0, 77, 80
1, 29587, Note_on_c, 0, 77, 0
1, 29600, Note_on_c, 0, 75, 77
1, 29602, Note_on_c, 0, 77, 53
1, 29610, Note_on_c, 0, 77, 0
1, 29628, Note_on_c, 0, 75, 0
1, 29628, Note_on_c, 0, 38, 28
1, 29639, Note_on_c, 0, 50, 0
1, 29639, Note_on_c, 0, 74, 62
1, 29670, Note_on_c, 0, 74, 0
1, 29680, Note_on_c, 0, 70, 57
1, 29692, Note_on_c, 0, 70, 0
1, 29695, Note_on_c, 0, 38, 0
1, 29712, Note_on_c, 0, 42, 47
1, 29716, Note_on_c, 0, 72, 88
1, 29747, Note_on_c, 0, 72, 0
1, 29749, Note_on_c, 0, 42, 0
1, 29754, Note_on_c, 0, 69, 74
1, 29758, Note_on_c, 0, 43, 42
1, 29784, Note_on_c, 0, 69, 0
1, 29792, Note_on_c, 0, 70, 50
1, 29817, Note_on_c, 0, 69, 54
1, 29822, Note_on_c, 0, 70, 0
1, 29844, Note_on_c, 0, 69, 0
1, 29845, Note_on_c, 0, 67, 39
1, 29865, Note_on_c, 0, 67, 0
1, 29876, Note_on_c, 0, 46, 29
1, 29881, Note_on_c, 0, 66, 37
1, 29882, Note_on_c, 0, 43, 0
1, 29920, Note_on_c, 0, 69, 60
1, 29923, Note_on_c, 0, 66, 0
1, 29943, Note_on_c, 0, 69, 0
1, 29952, Note_on_c, 0, 67, 62
1, 29982, Note_on_c, 0, 67, 0
1, 29990, Note_on_c, 0, 46, 0
1, 29996, Note_on_c, 0, 50, 32
1, 30000, Note_on_c, 0, 62, 26
1, 30065, Note_on_c, 0, 62, 0
1, 30088, Note_on_c, 0, 46, 36
1, 30097, Note_on_c, 0, 50, 0
1, 30118, Note_on_c, 0, 46, 0
1, 30121, Note_on_c, 0, 50, 31
1, 30123, Note_on_c, 0, 58, 46
1, 30123, Note_on_c, 0, 55, 57
1, 30125, Note_on_c, 0, 62, 48
1, 30125, Note_on_c, 0, 65, 54
1, 30181, Note_on_c, 0, 65, 0
1, 30188, Note_on_c, 0, 62, 0
1, 30191, Note_on_c, 0, 58, 0
1, 30201, Note_on_c, 0, 55, 0
1, 30203, Note_on_c, 0, 50, 0
1, 30213, Note_on_c, 0, 47, 44
1, 30236, Note_on_c, 0, 47, 0
1, 30245, Note_on_c, 0, 67, 54
1, 30248, Note_on_c, 0, 56, 47
1, 30249, Note_on_c, 0, 60, 60
1, 30250, Note_on_c, 0, 63, 42
1, 30253, Note_on_c, 0, 48, 37
1, 30303, Note_on_c, 0, 60, 0
1, 30306, Note_on_c, 0, 67, 0
1, 30308, Note_on_c, 0, 56, 0
1, 30313, Note_on_c, 0, 63, 0
1, 30314, Note_on_c, 0, 48, 0
1, 30331, Note_on_c, 0, 41, 51
1, 30364, Note_on_c, 0, 41, 0
1, 30372, Note_on_c, 0, 46, 57
1, 30449, Note_on_c, 0, 70, 83
1, 30451, Note_on_c, 0, 65, 82
1, 30452, Note_on_c, 0, 62, 71
1, 30455, Note_on_c, 0, 46, 0
1, 30466, Note_on_c, 0, 34, 34
1, 30469, Note_on_c, 0, 62, 0
1, 30477, Note_on_c, 0, 65, 0
1, 30479, Note_on_c, 0, 70, 0
1, 30508, Note_on_c, 0, 68, 42
1, 30510, Note_on_c, 0, 63, 57
1, 30515, Note_on_c, 0, 56, 51
1, 30533, Note_on_c, 0, 46, 18
1, 30536, Note_on_c, 0, 34, 0
1, 30575, Note_on_c, 0, 63, 0
1, 30577, Note_on_c, 0, 68, 0
1, 30580, Note_on_c, 0, 41, 50
1, 30583, Note_on_c, 0, 46, 0
1, 30586, Note_on_c, 0, 56, 0
1, 30595, Note_on_c, 0, 41, 0
1, 30612, Note_on_c, 0, 66, 45
1, 30616, Note_on_c, 0, 38, 44
1, 30618, Note_on_c, 0, 61, 51
1, 30620, Note_on_c, 0, 55, 40
1, 30662, Note_on_c, 0, 66, 0
1, 30664, Note_on_c, 0, 61, 0
1, 30673, Note_on_c, 0, 55, 0
1, 30699, Note_on_c, 0, 62, 54
1, 30700, Note_on_c, 0, 65, 64
1, 30700, Note_on_c, 0, 58, 62
1, 30702, Note_on_c, 0, 53, 57
1, 30709, Note_on_c, 0, 38, 0
1, 30718, Note_on_c, 0, 53, 0
1, 30721, Note_on_c, 0, 65, 0
1, 30724, Note_on_c, 0, 58, 0
1, 30724, Note_on_c, 0, 39, 32
1, 30729, Note_on_c, 0, 62, 0
1, 30783, Note_on_c, 0, 62, 65
1, 30785, Note_on_c, 0, 55, 52
1, 30813, Note_on_c, 0, 62, 0
1, 30814, Note_on_c, 0, 55, 0
1, 30822, Note_on_c, 0, 58, 54
1, 30846, Note_on_c, 0, 58, 0
1, 30861, Note_on_c, 0, 60, 66
1, 30861, Note_on_c, 0, 46, 45
1, 30862, Note_on_c, 0, 39, 0
1, 30927, Note_on_c, 0, 60, 0
1, 30939, Note_on_c, 0, 58, 83
1, 30970, Note_on_c, 0, 55, 40
1, 30998, Note_on_c, 0, 55, 0
1, 31047, Note_on_c, 0, 46, 0
1, 31057, Note_on_c, 0, 46, 29
1, 31073, Note_on_c, 0, 46, 0
1, 31092, Note_on_c, 0, 39, 48
1, 31174, Note_on_c, 0, 39, 0
1, 31174, Note_on_c, 0, 46, 50
1, 31202, Note_on_c, 0, 58, 0
1, 31208, Note_on_c, 0, 46, 0
1, 31217, Note_on_c, 0, 40, 55
1, 31219, Note_on_c, 0, 61, 82
1, 31297, Note_on_c, 0, 46, 33
1, 31308, Note_on_c, 0, 61, 0
1, 31334, Note_on_c, 0, 46, 0
1, 31337, Note_on_c, 0, 60, 72
1, 31339, Note_on_c, 0, 49, 37
1, 31352, Note_on_c, 0, 40, 0
1, 31417, Note_on_c, 0, 60, 0
1, 31418, Note_on_c, 0, 58, 63
1, 31442, Note_on_c, 0, 40, 40
1, 31458, Note_on_c, 0, 49, 0
1, 31537, Note_on_c, 0, 46, 43
1, 31544, Note_on_c, 0, 40, 0
1, 31548, Note_on_c, 0, 58, 0
1, 31568, Note_on_c, 0, 51, 44
1, 31570, Note_on_c, 0, 46, 0
1, 31576, Note_on_c, 0, 62, 79
1, 31648, Note_on_c, 0, 46, 33
1, 31650, Note_on_c, 0, 51, 0
1, 31654, Note_on_c, 0, 55, 35
1, 31666, Note_on_c, 0, 55, 0
1, 31668, Note_on_c, 0, 62, 0
1, 31685, Note_on_c, 0, 46, 0
1, 31690, Note_on_c, 0, 60, 58
1, 31696, Note_on_c, 0, 50, 42
1, 31759, Note_on_c, 0, 60, 0
1, 31767, Note_on_c, 0, 58, 60
1, 31769, Note_on_c, 0, 53, 43
1, 31784, Note_on_c, 0, 53, 0
1, 31793, Note_on_c, 0, 58, 0
1, 31802, Note_on_c, 0, 50, 0
1, 31802, Note_on_c, 0, 41, 30
1, 31891, Note_on_c, 0, 44, 20
1, 31891, Note_on_c, 0, 46, 34
1, 31893, Note_on_c, 0, 41, 0
1, 31904, Note_on_c, 0, 46, 0
1, 31904, Note_on_c, 0, 44, 0
1, 31921, Note_on_c, 0, 51, 74
1, 32031, Note_on_c, 0, 51, 0
1, 32044, Note_on_c, 0, 49, 72
1, 32126, Note_on_c, 0, 46, 34
1, 32148, Note_on_c, 0, 49, 0
1, 32153, Note_on_c, 0, 46, 0
1, 32163, Note_on_c, 0, 50, 50
1, 32166, Note_on_c, 0, 60, 45
1, 32166, Note_on_c, 0, 56, 25
1, 32167, Note_on_c, 0, 62, 42
1, 32168, Note_on_c, 0, 65, 30
1, 32211, Note_on_c, 0, 60, 0
1, 32214, Note_on_c, 0, 56, 0
1, 32215, Note_on_c, 0, 65, 0
1, 32215, Note_on_c, 0, 62, 0
1, 32243, Note_on_c, 0, 56, 50
1, 32244, Note_on_c, 0, 65, 49
1, 32246, Note_on_c, 0, 60, 55
1, 32251, Note_on_c, 0, 65, 0
1, 32251, Note_on_c, 0, 56, 0
1, 32253, Note_on_c, 0, 60, 0
1, 32258, Note_on_c, 0, 50, 0
1, 32275, Note_on_c, 0, 44, 32
1, 32351, Note_on_c, 0, 42, 35
1, 32360, Note_on_c, 0, 70, 74
1, 32361, Note_on_c, 0, 63, 78
1, 32365, Note_on_c, 0, 44, 0
1, 32371, Note_on_c, 0, 42, 0
1, 32382, Note_on_c, 0, 43, 29
1, 32393, Note_on_c, 0, 70, 0
1, 32394, Note_on_c, 0, 63, 0
1, 32431, Note_on_c, 0, 68, 76
1, 32433, Note_on_c, 0, 59, 54
1, 32442, Note_on_c, 0, 59, 0
1, 32456, Note_on_c, 0, 68, 0
1, 32467, Note_on_c, 0, 66, 67
1, 32501, Note_on_c, 0, 63, 64
1, 32503, Note_on_c, 0, 66, 0
1, 32511, Note_on_c, 0, 43, 0
1, 32511, Note_on_c, 0, 31, 34
1, 32524, Note_on_c, 0, 63, 0
1, 32536, Note_on_c, 0, 59, 36
1, 32556, Note_on_c, 0, 59, 0
1, 32562, Note_on_c, 0, 58, 54
1, 32581, Note_on_c, 0, 31, 0
1, 32582, Note_on_c, 0, 58, 0
1, 32583, Note_on_c, 0, 35, 39
1, 32631, Note_on_c, 0, 35, 0
1, 32635, Note_on_c, 0, 55, 38
1, 32640, Note_on_c, 0, 36, 35
1, 32645, Note_on_c, 0, 55, 0
1, 32660, Note_on_c, 0, 58, 61
1, 32702, Note_on_c, 0, 55, 62
1, 32708, Note_on_c, 0, 58, 0
1, 32721, Note_on_c, 0, 36, 0
1, 32764, Note_on_c, 0, 43, 38
1, 32848, Note_on_c, 0, 51, 56
1, 32856, Note_on_c, 0, 55, 0
1, 32867, Note_on_c, 0, 51, 0
1, 32867, Note_on_c, 0, 43, 0
1, 32882, Note_on_c, 0, 39, 38
1, 32948, Note_on_c, 0, 39, 0
1, 32967, Note_on_c, 0, 39, 38
1, 33000, Note_on_c, 0, 39, 0
1, 33005, Note_on_c, 0, 42, 62
1, 33082, Note_on_c, 0, 39, 38
1, 33107, Note_on_c, 0, 42, 0
1, 33113, Note_on_c, 0, 39, 0
1, 33120, Note_on_c, 0, 62, 77
1, 33123, Note_on_c, 0, 41, 53
1, 33185, Note_on_c, 0, 62, 0
1, 33200, Note_on_c, 0, 63, 76
1, 33200, Note_on_c, 0, 36, 36
1, 33219, Note_on_c, 0, 36, 0
1, 33235, Note_on_c, 0, 63, 0
1, 33242, Note_on_c, 0, 29, 22
1, 33248, Note_on_c, 0, 62, 57
1, 33270, Note_on_c, 0, 41, 0
1, 33311, Note_on_c, 0, 62, 0
1, 33316, Note_on_c, 0, 36, 32
1, 33322, Note_on_c, 0, 60, 75
1, 33342, Note_on_c, 0, 36, 0
1, 33351, Note_on_c, 0, 60, 0
1, 33362, Note_on_c, 0, 41, 38
1, 33371, Note_on_c, 0, 53, 48
1, 33377, Note_on_c, 0, 29, 0
1, 33431, Note_on_c, 0, 53, 0
1, 33440, Note_on_c, 0, 36, 43
1, 33442, Note_on_c, 0, 55, 63
1, 33459, Note_on_c, 0, 36, 0
1, 33465, Note_on_c, 0, 55, 0
1, 33474, Note_on_c, 0, 41, 0
1, 33480, Note_on_c, 0, 33, 48
1, 33482, Note_on_c, 0, 57, 73
1, 33551, Note_on_c, 0, 57, 0
1, 33596, Note_on_c, 0, 33, 0
1, 33604, Note_on_c, 0, 58, 67
1, 33604, Note_on_c, 0, 34, 45
1, 33678, Note_on_c, 0, 58, 0
1, 33710, Note_on_c, 0, 34, 0
1, 33719, Note_on_c, 0, 37, 52
1, 33722, Note_on_c, 0, 60, 85
1, 33795, Note_on_c, 0, 60, 0
1, 33803, Note_on_c, 0, 61, 76
1, 33805, Note_on_c, 0, 37, 0
1, 33828, Note_on_c, 0, 38, 20
1, 33836, Note_on_c, 0, 61, 0
1, 33840, Note_on_c, 0, 62, 60
1, 33926, Note_on_c, 0, 62, 0
1, 33932, Note_on_c, 0, 65, 59
1, 33948, Note_on_c, 0, 38, 0
1, 33954, Note_on_c, 0, 65, 0
1, 33958, Note_on_c, 0, 42, 49
1, 33966, Note_on_c, 0, 67, 56
1, 34048, Note_on_c, 0, 39, 23
1, 34062, Note_on_c, 0, 67, 0
1, 34074, Note_on_c, 0, 39, 0
1, 34074, Note_on_c, 0, 42, 0
1, 34085, Note_on_c, 0, 65, 55
1, 34086, Note_on_c, 0, 43, 34
1, 34157, Note_on_c, 0, 43, 0
1, 34215, Note_on_c, 0, 42, 27
1, 34222, Note_on_c, 0, 42, 0
1, 34287, Note_on_c, 0, 41, 91
1, 34406, Note_on_c, 0, 29, 54
1, 34427, Note_on_c, 0, 29, 0
1, 34428, Note_on_c, 0, 41, 0
1, 34438, Note_on_c, 0, 65, 0
1, 34449, Note_on_c, 0, 33, 51
1, 34484, Note_on_c, 0, 60, 60
1, 34493, Note_on_c, 0, 60, 0
1, 34522, Note_on_c, 0, 62, 69
1, 34536, Note_on_c, 0, 33, 0
1, 34542, Note_on_c, 0, 62, 0
1, 34550, Note_on_c, 0, 34, 28
1, 34563, Note_on_c, 0, 65, 59
1, 34633, Note_on_c, 0, 65, 0
1, 34645, Note_on_c, 0, 67, 69
1, 34669, Note_on_c, 0, 34, 0
1, 34670, Note_on_c, 0, 67, 0
1, 34682, Note_on_c, 0, 46, 31
1, 34688, Note_on_c, 0, 65, 55
1, 34770, Note_on_c, 0, 41, 37
1, 34780, Note_on_c, 0, 41, 0
1, 34789, Note_on_c, 0, 65, 0
1, 34804, Note_on_c, 0, 34, 37
1, 34810, Note_on_c, 0, 56, 25
1, 34848, Note_on_c, 0, 46, 0
1, 34898, Note_on_c, 0, 56, 0
1, 34906, Note_on_c, 0, 34, 0
1, 34926, Note_on_c, 0, 46, 61
1, 35007, Note_on_c, 0, 42, 33
1, 35011, Note_on_c, 0, 46, 0
1, 35033, Note_on_c, 0, 42, 0
1, 35041, Note_on_c, 0, 45, 50
1, 35046, Note_on_c, 0, 63, 60
1, 35121, Note_on_c, 0, 63, 0
1, 35145, Note_on_c, 0, 45, 0
1, 35155, Note_on_c, 0, 49, 47
1, 35245, Note_on_c, 0, 46, 30
1, 35262, Note_on_c, 0, 49, 0
1, 35265, Note_on_c, 0, 46, 0
1, 35272, Note_on_c, 0, 50, 54
1, 35276, Note_on_c, 0, 72, 87
1, 35299, Note_on_c, 0, 72, 0
1, 35312, Note_on_c, 0, 70, 70
1, 35343, Note_on_c, 0, 70, 0
1, 35347, Note_on_c, 0, 65, 50
1, 35368, Note_on_c, 0, 65, 0
1, 35374, Note_on_c, 0, 61, 59
1, 35382, Note_on_c, 0, 50, 0
1, 35390, Note_on_c, 0, 61, 0
1, 35390, Note_on_c, 0, 38, 32
1, 35405, Note_on_c, 0, 60, 35
1, 35429, Note_on_c, 0, 60, 0
1, 35433, Note_on_c, 0, 58, 53
1, 35455, Note_on_c, 0, 58, 0
1, 35472, Note_on_c, 0, 57, 18
1, 35481, Note_on_c, 0, 57, 0
1, 35494, Note_on_c, 0, 55, 41
1, 35495, Note_on_c, 0, 42, 30
1, 35503, Note_on_c, 0, 55, 0
1, 35504, Note_on_c, 0, 38, 0
1, 35520, Note_on_c, 0, 42, 0
1, 35520, Note_on_c, 0, 58, 69
1, 35525, Note_on_c, 0, 43, 30
1, 35544, Note_on_c, 0, 58, 0
1, 35586, Note_on_c, 0, 57, 69
1, 35614, Note_on_c, 0, 57, 0
1, 35623, Note_on_c, 0, 54, 44
1, 35636, Note_on_c, 0, 43, 0
1, 35640, Note_on_c, 0, 54, 0
1, 35641, Note_on_c, 0, 46, 37
1, 35648, Note_on_c, 0, 55, 60
1, 35673, Note_on_c, 0, 55, 0
1, 35682, Note_on_c, 0, 46, 0
1, 35687, Note_on_c, 0, 50, 62
1, 35720, Note_on_c, 0, 37, 59
1, 35750, Note_on_c, 0, 37, 0
1, 35771, Note_on_c, 0, 36, 55
1, 35827, Note_on_c, 0, 50, 0
1, 35843, Note_on_c, 0, 51, 46
1, 35873, Note_on_c, 0, 51, 0
1, 35885, Note_on_c, 0, 48, 27
1, 35891, Note_on_c, 0, 52, 41
1, 35918, Note_on_c, 0, 52, 0
1, 35925, Note_on_c, 0, 48, 0
1, 35930, Note_on_c, 0, 55, 62
1, 35950, Note_on_c, 0, 55, 0
1, 35968, Note_on_c, 0, 36, 0
1, 35968, Note_on_c, 0, 56, 71
1, 35983, Note_on_c, 0, 40, 32
1, 36004, Note_on_c, 0, 40, 0
1, 36004, Note_on_c, 0, 56, 0
1, 36011, Note_on_c, 0, 58, 55
1, 36017, Note_on_c, 0, 41, 32
1, 36046, Note_on_c, 0, 58, 0
1, 36052, Note_on_c, 0, 55, 46
1, 36078, Note_on_c, 0, 55, 0
1, 36087, Note_on_c, 0, 56, 46
1, 36120, Note_on_c, 0, 56, 0
1, 36126, Note_on_c, 0, 29, 15
1, 36127, Note_on_c, 0, 58, 37
1, 36152, Note_on_c, 0, 58, 0
1, 36162, Note_on_c, 0, 60, 54
1, 36184, Note_on_c, 0, 60, 0
1, 36201, Note_on_c, 0, 62, 75
1, 36211, Note_on_c, 0, 29, 0
1, 36223, Note_on_c, 0, 41, 0
1, 36224, Note_on_c, 0, 34, 34
1, 36225, Note_on_c, 0, 62, 0
1, 36248, Note_on_c, 0, 63, 32
1, 36274, Note_on_c, 0, 63, 0
1, 36288, Note_on_c, 0, 64, 50
1, 36320, Note_on_c, 0, 64, 0
1, 36330, Note_on_c, 0, 66, 62
1, 36360, Note_on_c, 0, 66, 0
1, 36370, Note_on_c, 0, 46, 17
1, 36372, Note_on_c, 0, 68, 48
1, 36392, Note_on_c, 0, 68, 0
1, 36403, Note_on_c, 0, 34, 0
1, 36415, Note_on_c, 0, 71, 24
1, 36426, Note_on_c, 0, 71, 0
1, 36448, Note_on_c, 0, 77, 78
1, 36451, Note_on_c, 0, 46, 0
1, 36454, Note_on_c, 0, 38, 39
1, 36482, Note_on_c, 0, 77, 0
1, 36484, Note_on_c, 0, 38, 0
1, 36488, Note_on_c, 0, 74, 58
1, 36491, Note_on_c, 0, 39, 43
1, 36509, Note_on_c, 0, 74, 0
1, 36530, Note_on_c, 0, 75, 71
1, 36564, Note_on_c, 0, 75, 0
1, 36569, Note_on_c, 0, 70, 51
1, 36593, Note_on_c, 0, 70, 0
1, 36606, Note_on_c, 0, 51, 46
1, 36612, Note_on_c, 0, 74, 34
1, 36617, Note_on_c, 0, 39, 0
1, 36624, Note_on_c, 0, 74, 0
1, 36691, Note_on_c, 0, 70, 76
1, 36705, Note_on_c, 0, 69, 32
1, 36710, Note_on_c, 0, 51, 0
1, 36715, Note_on_c, 0, 69, 0
1, 36719, Note_on_c, 0, 46, 28
1, 36721, Note_on_c, 0, 70, 0
1, 36740, Note_on_c, 0, 67, 64
1, 36773, Note_on_c, 0, 67, 0
1, 36851, Note_on_c, 0, 70, 77
1, 36858, Note_on_c, 0, 46, 0
1, 36859, Note_on_c, 0, 52, 44
1, 36880, Note_on_c, 0, 70, 0
1, 36932, Note_on_c, 0, 67, 65
1, 36958, Note_on_c, 0, 52, 0
1, 36959, Note_on_c, 0, 67, 0
1, 36964, Note_on_c, 0, 55, 35
1, 36970, Note_on_c, 0, 63, 51
1, 36999, Note_on_c, 0, 63, 0
1, 37037, Note_on_c, 0, 55, 0
1, 37052, Note_on_c, 0, 63, 60
1, 37053, Note_on_c, 0, 58, 65
1, 37055, Note_on_c, 0, 55, 58
1, 37057, Note_on_c, 0, 61, 47
1, 37057, Note_on_c, 0, 57, 40
1, 37065, Note_on_c, 0, 57, 0
1, 37073, Note_on_c, 0, 55, 0
1, 37082, Note_on_c, 0, 52, 45
1, 37083, Note_on_c, 0, 61, 0
1, 37087, Note_on_c, 0, 55, 13
1, 37146, Note_on_c, 0, 63, 0
1, 37150, Note_on_c, 0, 58, 0
1, 37159, Note_on_c, 0, 55, 0
1, 37163, Note_on_c, 0, 52, 0
1, 37172, Note_on_c, 0, 46, 38
1, 37196, Note_on_c, 0, 46, 0
1, 37212, Note_on_c, 0, 52, 53
1, 37214, Note_on_c, 0, 61, 35
1, 37216, Note_on_c, 0, 55, 35
1, 37218, Note_on_c, 0, 58, 30
1, 37259, Note_on_c, 0, 55, 0
1, 37261, Note_on_c, 0, 61, 0
1, 37269, Note_on_c, 0, 58, 0
1, 37287, Note_on_c, 0, 52, 0
1, 37290, Note_on_c, 0, 42, 46
1, 37319, Note_on_c, 0, 42, 0
1, 37330, Note_on_c, 0, 43, 37
1, 37336, Note_on_c, 0, 55, 43
1, 37336, Note_on_c, 0, 52, 47
1, 37336, Note_on_c, 0, 49, 28
1, 37347, Note_on_c, 0, 58, 25
1, 37360, Note_on_c, 0, 49, 0
1, 37360, Note_on_c, 0, 52, 0
1, 37365, Note_on_c, 0, 55, 0
1, 37387, Note_on_c, 0, 58, 0
1, 37400, Note_on_c, 0, 43, 0
1, 37411, Note_on_c, 0, 42, 61
1, 37442, Note_on_c, 0, 42, 0
1, 37456, Note_on_c, 0, 43, 44
1, 37479, Note_on_c, 0, 43, 0
1, 37529, Note_on_c, 0, 41, 66
1, 37551, Note_on_c, 0, 41, 0
1, 37568, Note_on_c, 0, 58, 60
1, 37569, Note_on_c, 0, 62, 53
1, 37570, Note_on_c, 0, 65, 62
1, 37570, Note_on_c, 0, 53, 57
1, 37611, Note_on_c, 0, 53, 0
1, 37649, Note_on_c, 0, 53, 75
1, 37677, Note_on_c, 0, 53, 0
1, 37697, Note_on_c, 0, 51, 46
1, 37762, Note_on_c, 0, 51, 0
1, 37762, Note_on_c, 0, 62, 0
1, 37766, Note_on_c, 0, 58, 0
1, 37777, Note_on_c, 0, 51, 46
1, 37790, Note_on_c, 0, 65, 0
1, 37804, Note_on_c, 0, 51, 0
1, 37815, Note_on_c, 0, 60, 88
1, 37815, Note_on_c, 0, 61, 74
1, 37815, Note_on_c, 0, 65, 74
1, 37816, Note_on_c, 0, 55, 82
1, 37820, Note_on_c, 0, 51, 59
1, 37845, Note_on_c, 0, 55, 0
1, 37870, Note_on_c, 0, 60, 0
1, 37873, Note_on_c, 0, 61, 0
1, 37875, Note_on_c, 0, 65, 0
1, 37896, Note_on_c, 0, 49, 53
1, 37897, Note_on_c, 0, 51, 0
1, 37928, Note_on_c, 0, 49, 0
1, 37933, Note_on_c, 0, 65, 80
1, 37934, Note_on_c, 0, 70, 82
1, 37935, Note_on_c, 0, 50, 61
1, 37936, Note_on_c, 0, 60, 77
1, 37999, Note_on_c, 0, 70, 0
1, 38002, Note_on_c, 0, 65, 0
1, 38002, Note_on_c, 0, 60, 0
1, 38014, Note_on_c, 0, 42, 37
1, 38016, Note_on_c, 0, 50, 0
1, 38042, Note_on_c, 0, 42, 0
1, 38050, Note_on_c, 0, 68, 57
1, 38052, Note_on_c, 0, 44, 37
1, 38052, Note_on_c, 0, 58, 51
1, 38052, Note_on_c, 0, 63, 53
1, 38114, Note_on_c, 0, 68, 0
1, 38118, Note_on_c, 0, 63, 0
1, 38126, Note_on_c, 0, 42, 34
1, 38134, Note_on_c, 0, 58, 0
1, 38141, Note_on_c, 0, 44, 0
1, 38153, Note_on_c, 0, 42, 0
1, 38160, Note_on_c, 0, 43, 34
1, 38168, Note_on_c, 0, 63, 42
1, 38168, Note_on_c, 0, 59, 48
1, 38170, Note_on_c, 0, 67, 33
1, 38186, Note_on_c, 0, 67, 0
1, 38211, Note_on_c, 0, 59, 0
1, 38222, Note_on_c, 0, 63, 0
1, 38247, Note_on_c, 0, 65, 66
1, 38247, Note_on_c, 0, 56, 53
1, 38248, Note_on_c, 0, 59, 54
1, 38253, Note_on_c, 0, 62, 30
1, 38259, Note_on_c, 0, 47, 44
1, 38260, Note_on_c, 0, 43, 0
1, 38262, Note_on_c, 0, 62, 0
1, 38267, Note_on_c, 0, 56, 0
1, 38273, Note_on_c, 0, 65, 0
1, 38280, Note_on_c, 0, 59, 0
1, 38297, Note_on_c, 0, 56, 33
1, 38308, Note_on_c, 0, 62, 2
1, 38347, Note_on_c, 0, 62, 0
1, 38348, Note_on_c, 0, 56, 0
1, 38352, Note_on_c, 0, 46, 23
1, 38366, Note_on_c, 0, 63, 52
1, 38368, Note_on_c, 0, 46, 0
1, 38369, Note_on_c, 0, 55, 63
1, 38369, Note_on_c, 0, 58, 59
1, 38371, Note_on_c, 0, 47, 0
1, 38381, Note_on_c, 0, 48, 32
1, 38394, Note_on_c, 0, 55, 0
1, 38404, Note_on_c, 0, 58, 0
1, 38410, Note_on_c, 0, 63, 0
1, 38486, Note_on_c, 0, 67, 71
1, 38487, Note_on_c, 0, 74, 72
1, 38489, Note_on_c, 0, 63, 60
1, 38491, Note_on_c, 0, 70, 50
1, 38494, Note_on_c, 0, 36, 54
1, 38495, Note_on_c, 0, 48, 0
1, 38498, Note_on_c, 0, 70, 0
1, 38515, Note_on_c, 0, 63, 0
1, 38520, Note_on_c, 0, 67, 0
1, 38521, Note_on_c, 0, 74, 0
1, 38544, Note_on_c, 0, 72, 40
1, 38602, Note_on_c, 0, 72, 0
1, 38608, Note_on_c, 0, 43, 36
1, 38616, Note_on_c, 0, 74, 71
1, 38616, Note_on_c, 0, 63, 75
1, 38618, Note_on_c, 0, 67, 60
1, 38619, Note_on_c, 0, 70, 60
1, 38624, Note_on_c, 0, 43, 0
1, 38628, Note_on_c, 0, 63, 0
1, 38635, Note_on_c, 0, 67, 0
1, 38638, Note_on_c, 0, 74, 0
1, 38639, Note_on_c, 0, 70, 0
1, 38650, Note_on_c, 0, 48, 38
1, 38716, Note_on_c, 0, 36, 0
1, 38725, Note_on_c, 0, 48, 0
1, 38730, Note_on_c, 0, 39, 44
1, 38758, Note_on_c, 0, 39, 0
1, 38772, Note_on_c, 0, 40, 48
1, 38846, Note_on_c, 0, 39, 42
1, 38869, Note_on_c, 0, 40, 0
1, 38876, Note_on_c, 0, 39, 0
1, 38886, Note_on_c, 0, 68, 73
1, 38886, Note_on_c, 0, 61, 57
1, 38887, Note_on_c, 0, 57, 69
1, 38887, Note_on_c, 0, 41, 43
1, 38888, Note_on_c, 0, 63, 50
1, 38961, Note_on_c, 0, 36, 25
1, 38974, Note_on_c, 0, 36, 0
1, 38977, Note_on_c, 0, 61, 0
1, 38977, Note_on_c, 0, 57, 0
1, 38984, Note_on_c, 0, 68, 0
1, 38988, Note_on_c, 0, 63, 0
1, 39000, Note_on_c, 0, 29, 32
1, 39005, Note_on_c, 0, 66, 51
1, 39005, Note_on_c, 0, 63, 32
1, 39009, Note_on_c, 0, 57, 43
1, 39009, Note_on_c, 0, 61, 45
1, 39016, Note_on_c, 0, 41, 0
1, 39034, Note_on_c, 0, 66, 0
1, 39050, Note_on_c, 0, 63, 0
1, 39054, Note_on_c, 0, 61, 0
1, 39060, Note_on_c, 0, 57, 0
1, 39088, Note_on_c, 0, 60, 62
1, 39088, Note_on_c, 0, 65, 55
1, 39091, Note_on_c, 0, 57, 32
1, 39099, Note_on_c, 0, 57, 0
1, 39105, Note_on_c, 0, 60, 0
1, 39107, Note_on_c, 0, 65, 0
1, 39114, Note_on_c, 0, 41, 24
1, 39154, Note_on_c, 0, 63, 49
1, 39184, Note_on_c, 0, 32, 26
1, 39194, Note_on_c, 0, 63, 0
1, 39195, Note_on_c, 0, 29, 0
1, 39208, Note_on_c, 0, 32, 0
1, 39222, Note_on_c, 0, 41, 0
1, 39227, Note_on_c, 0, 33, 50
1, 39234, Note_on_c, 0, 61, 31
1, 39237, Note_on_c, 0, 58, 43
1, 39239, Note_on_c, 0, 56, 26
1, 39274, Note_on_c, 0, 56, 0
1, 39279, Note_on_c, 0, 58, 0
1, 39285, Note_on_c, 0, 61, 0
1, 39312, Note_on_c, 0, 58, 53
1, 39313, Note_on_c, 0, 62, 47
1, 39320, Note_on_c, 0, 33, 0
1, 39328, Note_on_c, 0, 62, 0
1, 39334, Note_on_c, 0, 34, 31
1, 39335, Note_on_c, 0, 58, 0
1, 39435, Note_on_c, 0, 58, 55
1, 39436, Note_on_c, 0, 65, 58
1, 39437, Note_on_c, 0, 55, 54
1, 39439, Note_on_c, 0, 62, 37
1, 39444, Note_on_c, 0, 55, 0
1, 39447, Note_on_c, 0, 62, 0
1, 39451, Note_on_c, 0, 58, 0
1, 39455, Note_on_c, 0, 65, 0
1, 39463, Note_on_c, 0, 34, 0
1, 39472, Note_on_c, 0, 42, 44
1, 39559, Note_on_c, 0, 42, 0
1, 39567, Note_on_c, 0, 39, 23
1, 39578, Note_on_c, 0, 39, 0
1, 39594, Note_on_c, 0, 44, 31
1, 39596, Note_on_c, 0, 73, 80
1, 39596, Note_on_c, 0, 66, 74
1, 39597, Note_on_c, 0, 68, 69
1, 39597, Note_on_c, 0, 62, 75
1, 39671, Note_on_c, 0, 62, 0
1, 39672, Note_on_c, 0, 66, 0
1, 39675, Note_on_c, 0, 68, 0
1, 39683, Note_on_c, 0, 73, 0
1, 39696, Note_on_c, 0, 44, 0
1, 39717, Note_on_c, 0, 70, 57
1, 39718, Note_on_c, 0, 37, 46
1, 39718, Note_on_c, 0, 62, 54
1, 39719, Note_on_c, 0, 66, 46
1, 39721, Note_on_c, 0, 68, 38
1, 39754, Note_on_c, 0, 68, 0
1, 39755, Note_on_c, 0, 70, 0
1, 39758, Note_on_c, 0, 66, 0
1, 39775, Note_on_c, 0, 62, 0
1, 39801, Note_on_c, 0, 43, 34
1, 39805, Note_on_c, 0, 37, 0
1, 39819, Note_on_c, 0, 43, 0
1, 39837, Note_on_c, 0, 36, 47
1, 39837, Note_on_c, 0, 62, 60
1, 39839, Note_on_c, 0, 58, 39
1, 39841, Note_on_c, 0, 64, 49
1, 39924, Note_on_c, 0, 62, 0
1, 39926, Note_on_c, 0, 64, 0
1, 39930, Note_on_c, 0, 58, 0
1, 39943, Note_on_c, 0, 36, 0
1, 39961, Note_on_c, 0, 42, 31
1, 39961, Note_on_c, 0, 66, 57
1, 39962, Note_on_c, 0, 58, 62
1, 39962, Note_on_c, 0, 61, 60
1, 39964, Note_on_c, 0, 63, 45
1, 39970, Note_on_c, 0, 42, 0
1, 40042, Note_on_c, 0, 36, 45
1, 40050, Note_on_c, 0, 61, 0
1, 40050, Note_on_c, 0, 58, 0
1, 40053, Note_on_c, 0, 36, 0
1, 40056, Note_on_c, 0, 63, 0
1, 40061, Note_on_c, 0, 66, 0
1, 40075, Note_on_c, 0, 63, 46
1, 40076, Note_on_c, 0, 41, 50
1, 40079, Note_on_c, 0, 65, 62
1, 40081, Note_on_c, 0, 57, 37
1, 40146, Note_on_c, 0, 57, 0
1, 40146, Note_on_c, 0, 41, 0
1, 40147, Note_on_c, 0, 65, 0
1, 40153, Note_on_c, 0, 63, 0
1, 40158, Note_on_c, 0, 29, 64
1, 40168, Note_on_c, 0, 53, 80
1, 40202, Note_on_c, 0, 53, 0
1, 40202, Note_on_c, 0, 55, 62
1, 40266, Note_on_c, 0, 55, 0
1, 40272, Note_on_c, 0, 29, 0
1, 40282, Note_on_c, 0, 58, 91
1, 40284, Note_on_c, 0, 34, 67
1, 40403, Note_on_c, 0, 58, 0
1, 40403, Note_on_c, 0, 46, 72
1, 40426, Note_on_c, 0, 46, 0
1, 40447, Note_on_c, 0, 45, 58
1, 40538, Note_on_c, 0, 45, 0
1, 40543, Note_on_c, 0, 39, 21
1, 40546, Note_on_c, 0, 34, 0
1, 40556, Note_on_c, 0, 39, 0
1, 40561, Note_on_c, 0, 43, 42
1, 40663, Note_on_c, 0, 43, 0
1, 40675, Note_on_c, 0, 38, 47
1, 40770, Note_on_c, 0, 34, 31
1, 40775, Note_on_c, 0, 38, 0
1, 40787, Note_on_c, 0, 34, 0
1, 40791, Note_on_c, 0, 33, 44
1, 40791, Note_on_c, 0, 55, 71
1, 40878, Note_on_c, 0, 55, 0
1, 40879, Note_on_c, 0, 60, 57
1, 40896, Note_on_c, 0, 60, 0
1, 40899, Note_on_c, 0, 33, 0
1, 40903, Note_on_c, 0, 39, 34
1, 40912, Note_on_c, 0, 63, 83
1, 40986, Note_on_c, 0, 63, 0
1, 40992, Note_on_c, 0, 37, 37
1, 40995, Note_on_c, 0, 62, 80
1, 41005, Note_on_c, 0, 39, 0
1, 41013, Note_on_c, 0, 37, 0
1, 41023, Note_on_c, 0, 38, 34
1, 41120, Note_on_c, 0, 62, 0
1, 41122, Note_on_c, 0, 60, 73
1, 41147, Note_on_c, 0, 38, 0
1, 41149, Note_on_c, 0, 60, 0
1, 41150, Note_on_c, 0, 42, 39
1, 41162, Note_on_c, 0, 58, 52
1, 41242, Note_on_c, 0, 39, 34
1, 41244, Note_on_c, 0, 58, 0
1, 41253, Note_on_c, 0, 55, 26
1, 41261, Note_on_c, 0, 55, 0
1, 41272, Note_on_c, 0, 42, 0
1, 41277, Note_on_c, 0, 39, 0
1, 41278, Note_on_c, 0, 57, 69
1, 41280, Note_on_c, 0, 43, 31
1, 41338, Note_on_c, 0, 57, 0
1, 41350, Note_on_c, 0, 58, 37
1, 41363, Note_on_c, 0, 57, 52
1, 41365, Note_on_c, 0, 43, 0
1, 41379, Note_on_c, 0, 58, 0
1, 41383, Note_on_c, 0, 57, 0
1, 41388, Note_on_c, 0, 55, 62
1, 41395, Note_on_c, 0, 43, 28
1, 41476, Note_on_c, 0, 55, 0
1, 41479, Note_on_c, 0, 54, 29
1, 41497, Note_on_c, 0, 54, 0
1, 41507, Note_on_c, 0, 43, 0
1, 41508, Note_on_c, 0, 36, 43
1, 41510, Note_on_c, 0, 57, 71
1, 41596, Note_on_c, 0, 57, 0
1, 41608, Note_on_c, 0, 36, 0
1, 41625, Note_on_c, 0, 55, 57
1, 41707, Note_on_c, 0, 48, 66
1, 41719, Note_on_c, 0, 55, 0
1, 41722, Note_on_c, 0, 48, 0
1, 41754, Note_on_c, 0, 41, 57
1, 41828, Note_on_c, 0, 41, 0
1, 41830, Note_on_c, 0, 29, 72
1, 41978, Note_on_c, 0, 29, 0
1, 41989, Note_on_c, 0, 34, 48
1, 42043, Note_on_c, 0, 53, 53
1, 42051, Note_on_c, 0, 53, 0
1, 42078, Note_on_c, 0, 56, 65
1, 42096, Note_on_c, 0, 56, 0
1, 42103, Note_on_c, 0, 46, 34
1, 42118, Note_on_c, 0, 34, 0
1, 42142, Note_on_c, 0, 62, 76
1, 42159, Note_on_c, 0, 62, 0
1, 42179, Note_on_c, 0, 65, 108
1, 42186, Note_on_c, 0, 46, 0
1, 42204, Note_on_c, 0, 65, 0
1, 42215, Note_on_c, 0, 63, 81
1, 42218, Note_on_c, 0, 39, 43
1, 42247, Note_on_c, 0, 63, 0
1, 42256, Note_on_c, 0, 58, 37
1, 42289, Note_on_c, 0, 58, 0
1, 42300, Note_on_c, 0, 55, 43
1, 42309, Note_on_c, 0, 55, 0
1, 42364, Note_on_c, 0, 46, 40
1, 42378, Note_on_c, 0, 39, 0
1, 42447, Note_on_c, 0, 44, 23
1, 42484, Note_on_c, 0, 55, 54
1, 42489, Note_on_c, 0, 44, 0
1, 42565, Note_on_c, 0, 55, 0
1, 42573, Note_on_c, 0, 49, 25
1, 42593, Note_on_c, 0, 53, 54
1, 42595, Note_on_c, 0, 49, 0
1, 42629, Note_on_c, 0, 46, 0
1, 42690, Note_on_c, 0, 49, 26
1, 42691, Note_on_c, 0, 53, 0
1, 42718, Note_on_c, 0, 49, 0
1, 42720, Marker_t, "Diminished (1/2 Whole step) scale again"
1, 42720, Note_on_c, 0, 52, 45
1, 42763, Note_on_c, 0, 55, 45
1, 42775, Note_on_c, 0, 55, 0
1, 42792, Note_on_c, 0, 57, 66
1, 42801, Note_on_c, 0, 52, 0
1, 42826, Note_on_c, 0, 57, 0
1, 42828, Note_on_c, 0, 52, 24
1, 42828, Note_on_c, 0, 58, 55
1, 42860, Note_on_c, 0, 58, 0
1, 42874, Note_on_c, 0, 60, 55
1, 42894, Note_on_c, 0, 60, 0
1, 42909, Note_on_c, 0, 61, 64
1, 42929, Note_on_c, 0, 52, 0
1, 42939, Note_on_c, 0, 49, 25
1, 42940, Note_on_c, 0, 61, 0
1, 42950, Note_on_c, 0, 63, 38
1, 42976, Note_on_c, 0, 63, 0
1, 42987, Note_on_c, 0, 64, 50
1, 43012, Note_on_c, 0, 49, 0
1, 43013, Note_on_c, 0, 64, 0
1, 43026, Note_on_c, 0, 66, 64
1, 43047, Note_on_c, 0, 49, 23
1, 43052, Note_on_c, 0, 66, 0
1, 43068, Note_on_c, 0, 67, 46
1, 43091, Note_on_c, 0, 67, 0
1, 43108, Note_on_c, 0, 69, 48
1, 43118, Note_on_c, 0, 69, 0
1, 43145, Note_on_c, 0, 70, 74
1, 43150, Note_on_c, 0, 42, 39
1, 43172, Note_on_c, 0, 70, 0
1, 43183, Note_on_c, 0, 42, 0
1, 43184, Note_on_c, 0, 49, 0
1, 43190, Note_on_c, 0, 72, 51
1, 43210, Note_on_c, 0, 72, 0
1, 43210, Note_on_c, 0, 41, 12
1, 43227, Note_on_c, 0, 61, 59
1, 43228, Note_on_c, 0, 73, 60
1, 43261, Note_on_c, 0, 61, 0
1, 43263, Note_on_c, 0, 73, 0
1, 43265, Note_on_c, 0, 62, 62
1, 43269, Note_on_c, 0, 74, 46
1, 43274, Note_on_c, 0, 41, 0
1, 43283, Note_on_c, 0, 62, 0
1, 43285, Note_on_c, 0, 74, 0
1, 43309, Note_on_c, 0, 41, 31
1, 43311, Note_on_c, 0, 77, 79
1, 43311, Note_on_c, 0, 65, 85
1, 43313, Note_on_c, 0, 50, 26
1, 43344, Note_on_c, 0, 77, 0
1, 43358, Note_on_c, 0, 65, 0
1, 43382, Note_on_c, 0, 41, 0
1, 43389, Note_on_c, 0, 74, 66
1, 43390, Note_on_c, 0, 62, 66
1, 43392, Note_on_c, 0, 73, 48
1, 43400, Note_on_c, 0, 73, 0
1, 43401, Note_on_c, 0, 50, 0
1, 43406, Note_on_c, 0, 62, 0
1, 43409, Note_on_c, 0, 74, 0
1, 43424, Note_on_c, 0, 40, 36
1, 43518, Note_on_c, 0, 40, 0
1, 43544, Note_on_c, 0, 49, 59
1, 43546, Note_on_c, 0, 39, 53
1, 43650, Note_on_c, 0, 49, 0
1, 43656, Note_on_c, 0, 39, 0
1, 43666, Note_on_c, 0, 38, 46
1, 43684, Note_on_c, 0, 48, 9
1, 43741, Note_on_c, 0, 38, 0
1, 43758, Note_on_c, 0, 48, 0
1, 43763, Note_on_c, 0, 69, 46
1, 43785, Note_on_c, 0, 69, 0
1, 43790, Note_on_c, 0, 44, 64
1, 43792, Note_on_c, 0, 69, 32
1, 43792, Note_on_c, 0, 54, 65
1, 43792, Note_on_c, 0, 60, 74
1, 43794, Note_on_c, 0, 72, 68
1, 43794, Note_on_c, 0, 65, 65
1, 43837, Note_on_c, 0, 69, 0
1, 43841, Note_on_c, 0, 72, 0
1, 43846, Note_on_c, 0, 65, 0
1, 43849, Note_on_c, 0, 60, 0
1, 43870, Note_on_c, 0, 54, 0
1, 43878, Note_on_c, 0, 70, 83
1, 43879, Note_on_c, 0, 59, 73
1, 43883, Note_on_c, 0, 63, 46
1, 43887, Note_on_c, 0, 60, 37
1, 43890, Note_on_c, 0, 44, 0
1, 43893, Note_on_c, 0, 60, 0
1, 43900, Note_on_c, 0, 53, 41
1, 43901, Note_on_c, 0, 43, 35
1, 43925, Note_on_c, 0, 63, 0
1, 43930, Note_on_c, 0, 70, 0
1, 43939, Note_on_c, 0, 59, 0
1, 43950, Note_on_c, 0, 68, 57
1, 43955, Note_on_c, 0, 63, 45
1, 43957, Note_on_c, 0, 59, 49
1, 44008, Note_on_c, 0, 53, 0
1, 44010, Note_on_c, 0, 63, 0
1, 44010, Note_on_c, 0, 68, 0
1, 44013, Note_on_c, 0, 59, 0
1, 44016, Note_on_c, 0, 43, 0
1, 44026, Note_on_c, 0, 50, 33
1, 44032, Note_on_c, 0, 63, 37
1, 44034, Note_on_c, 0, 67, 41
1, 44034, Note_on_c, 0, 59, 51
1, 44076, Note_on_c, 0, 59, 0
1, 44099, Note_on_c, 0, 67, 0
1, 44104, Note_on_c, 0, 63, 0
1, 44108, Note_on_c, 0, 50, 0
1, 44112, Note_on_c, 0, 65, 68
1, 44116, Note_on_c, 0, 63, 38
1, 44116, Note_on_c, 0, 47, 53
1, 44139, Note_on_c, 0, 63, 0
1, 44157, Note_on_c, 0, 65, 0
1, 44159, Note_on_c, 0, 47, 0
1, 44167, Note_on_c, 0, 67, 33
1, 44169, Note_on_c, 0, 58, 34
1, 44170, Note_on_c, 0, 48, 36
1, 44170, Note_on_c, 0, 63, 39
1, 44235, Note_on_c, 0, 67, 0
1, 44246, Note_on_c, 0, 63, 0
1, 44253, Note_on_c, 0, 58, 0
1, 44269, Note_on_c, 0, 48, 0
1, 44274, Note_on_c, 0, 63, 35
1, 44275, Note_on_c, 0, 36, 38
1, 44276, Note_on_c, 0, 58, 42
1, 44277, Note_on_c, 0, 55, 49
1, 44358, Note_on_c, 0, 39, 36
1, 44359, Note_on_c, 0, 58, 0
1, 44362, Note_on_c, 0, 55, 0
1, 44369, Note_on_c, 0, 36, 0
1, 44389, Note_on_c, 0, 39, 0
1, 44392, Note_on_c, 0, 43, 44
1, 44393, Note_on_c, 0, 58, 37
1, 44396, Note_on_c, 0, 63, 0
1, 44397, Note_on_c, 0, 55, 38
1, 44453, Note_on_c, 0, 55, 0
1, 44478, Note_on_c, 0, 39, 37
1, 44483, Note_on_c, 0, 58, 0
1, 44497, Note_on_c, 0, 43, 0
1, 44514, Note_on_c, 0, 39, 0
1, 44514, Note_on_c, 0, 42, 42
1, 44590, Note_on_c, 0, 39, 34
1, 44596, Note_on_c, 0, 51, 55
1, 44598, Note_on_c, 0, 60, 63
1, 44600, Note_on_c, 0, 57, 53
1, 44603, Note_on_c, 0, 51, 0
1, 44605, Note_on_c, 0, 60, 0
1, 44605, Note_on_c, 0, 57, 0
1, 44611, Note_on_c, 0, 42, 0
1, 44625, Note_on_c, 0, 39, 0
1, 44636, Note_on_c, 0, 41, 47
1, 44715, Note_on_c, 0, 29, 75
1, 44733, Note_on_c, 0, 41, 0
1, 44737, Note_on_c, 0, 29, 0
1, 44749, Control_c, 0, 64, 127
1, 44828, Note_on_c, 0, 80, 81
1, 44829, Marker_t, "Diminished scale harmonised"
1, 44830, Note_on_c, 0, 73, 80
1, 44831, Note_on_c, 0, 75, 74
1, 44831, Note_on_c, 0, 69, 82
1, 44836, Note_on_c, 0, 68, 84
1, 44836, Control_c, 0, 64, 0
1, 44893, Note_on_c, 0, 75, 0
1, 44894, Note_on_c, 0, 73, 0
1, 44895, Note_on_c, 0, 69, 0
1, 44900, Note_on_c, 0, 68, 0
1, 44901, Note_on_c, 0, 80, 0
1, 44907, Note_on_c, 0, 78, 59
1, 44908, Note_on_c, 0, 66, 56
1, 44909, Note_on_c, 0, 75, 42
1, 44909, Note_on_c, 0, 73, 56
1, 44910, Note_on_c, 0, 69, 66
1, 44964, Note_on_c, 0, 78, 0
1, 44968, Note_on_c, 0, 73, 0
1, 44976, Note_on_c, 0, 69, 0
1, 44982, Note_on_c, 0, 75, 0
1, 44985, Note_on_c, 0, 66, 0
1, 44992, Note_on_c, 0, 65, 64
1, 44993, Note_on_c, 0, 77, 54
1, 44995, Note_on_c, 0, 69, 56
1, 44996, Note_on_c, 0, 73, 51
1, 45031, Note_on_c, 0, 73, 0
1, 45046, Note_on_c, 0, 69, 0
1, 45052, Note_on_c, 0, 77, 0
1, 45054, Note_on_c, 0, 65, 0
1, 45066, Control_c, 0, 64, 127
1, 45070, Note_on_c, 0, 63, 58
1, 45073, Note_on_c, 0, 75, 61
1, 45074, Note_on_c, 0, 69, 45
1, 45074, Note_on_c, 0, 73, 43
1, 45088, Control_c, 0, 64, 0
1, 45092, Note_on_c, 0, 73, 0
1, 45111, Note_on_c, 0, 69, 0
1, 45123, Note_on_c, 0, 75, 0
1, 45129, Note_on_c, 0, 63, 0
1, 45141, Note_on_c, 0, 62, 43
1, 45142, Note_on_c, 0, 72, 55
1, 45146, Note_on_c, 0, 77, 53
1, 45146, Note_on_c, 0, 67, 44
1, 45151, Control_c, 0, 64, 127
1, 45178, Note_on_c, 0, 62, 0
1, 45199, Note_on_c, 0, 77, 0
1, 45213, Note_on_c, 0, 72, 0
1, 45226, Note_on_c, 0, 67, 0
1, 45231, Control_c, 0, 64, 0
1, 45231, Note_on_c, 0, 54, 46
1, 45237, Note_on_c, 0, 44, 32
1, 45305, Note_on_c, 0, 54, 0
1, 45310, Note_on_c, 0, 68, 56
1, 45312, Note_on_c, 0, 44, 0
1, 45312, Note_on_c, 0, 63, 49
1, 45313, Note_on_c, 0, 59, 44
1, 45314, Note_on_c, 0, 53, 53
1, 45321, Note_on_c, 0, 43, 34
1, 45433, Note_on_c, 0, 53, 0
1, 45434, Note_on_c, 0, 50, 46
1, 45436, Note_on_c, 0, 43, 0
1, 45449, Note_on_c, 0, 50, 0
1, 45472, Note_on_c, 0, 47, 44
1, 45498, Note_on_c, 0, 59, 0
1, 45524, Note_on_c, 0, 63, 0
1, 45525, Note_on_c, 0, 68, 0
1, 45544, Note_on_c, 0, 67, 37
1, 45546, Note_on_c, 0, 63, 46
1, 45546, Note_on_c, 0, 58, 40
1, 45551, Note_on_c, 0, 47, 0
1, 45557, Note_on_c, 0, 48, 50
1, 45667, Note_on_c, 0, 39, 39
1, 45670, Note_on_c, 0, 48, 0
1, 45693, Note_on_c, 0, 67, 0
1, 45701, Note_on_c, 0, 39, 0
1, 45707, Note_on_c, 0, 42, 47
1, 45731, Note_on_c, 0, 58, 0
1, 45774, Note_on_c, 0, 63, 0
1, 45796, Note_on_c, 0, 39, 36
1, 45809, Note_on_c, 0, 42, 0
1, 45822, Note_on_c, 0, 39, 0
1, 45834, Note_on_c, 0, 41, 43
1, 45836, Note_on_c, 0, 66, 46
1, 45837, Note_on_c, 0, 57, 44
1, 45841, Note_on_c, 0, 63, 26
1, 45844, Note_on_c, 0, 57, 0
1, 45847, Note_on_c, 0, 63, 0
1, 45854, Note_on_c, 0, 66, 0
1, 45880, Control_c, 0, 64, 127
1, 45916, Note_on_c, 0, 29, 71
1, 45933, Note_on_c, 0, 29, 0
1, 45945, Note_on_c, 0, 41, 0
1, 45951, Control_c, 0, 64, 0
1, 45957, Note_on_c, 0, 82, 69
1, 45974, Note_on_c, 0, 82, 0
1, 46001, Note_on_c, 0, 79, 36
1, 46012, Note_on_c, 0, 79, 0
1, 46016, Marker_t, "'Killer Joe' voicings (b7 3 13  9 5 1) on Bb7 chord"
1, 46031, Note_on_c, 0, 82, 80
1, 46032, Note_on_c, 0, 72, 71
1, 46032, Note_on_c, 0, 77, 71
1, 46034, Note_on_c, 0, 62, 67
1, 46034, Note_on_c, 0, 67, 72
1, 46035, Note_on_c, 0, 56, 73
1, 46075, Control_c, 0, 64, 127
1, 46136, Note_on_c, 0, 67, 0
1, 46141, Note_on_c, 0, 62, 0
1, 46150, Note_on_c, 0, 77, 0
1, 46155, Note_on_c, 0, 82, 0
1, 46160, Note_on_c, 0, 72, 0
1, 46163, Note_on_c, 0, 56, 0
1, 46191, Control_c, 0, 64, 0
1, 46194, Note_on_c, 0, 55, 42
1, 46195, Note_on_c, 0, 81, 49
1, 46195, Note_on_c, 0, 71, 41
1, 46197, Marker_t, "Side step with Killer Joe voicing"
1, 46198, Note_on_c, 0, 76, 40
1, 46198, Note_on_c, 0, 66, 40
1, 46201, Note_on_c, 0, 61, 38
1, 46225, Note_on_c, 0, 81, 0
1, 46230, Note_on_c, 0, 71, 0
1, 46232, Note_on_c, 0, 55, 0
1, 46238, Note_on_c, 0, 76, 0
1, 46256, Note_on_c, 0, 66, 0
1, 46258, Note_on_c, 0, 61, 0
1, 46274, Note_on_c, 0, 67, 64
1, 46275, Note_on_c, 0, 56, 52
1, 46275, Note_on_c, 0, 62, 60
1, 46278, Note_on_c, 0, 82, 64
1, 46278, Note_on_c, 0, 72, 44
1, 46285, Note_on_c, 0, 72, 0
1, 46285, Note_on_c, 0, 77, 44
1, 46288, Note_on_c, 0, 77, 0
1, 46289, Note_on_c, 0, 67, 0
1, 46293, Note_on_c, 0, 56, 0
1, 46294, Note_on_c, 0, 82, 0
1, 46299, Note_on_c, 0, 62, 0
1, 46399, Note_on_c, 0, 88, 85
1, 46399, Note_on_c, 0, 76, 80
1, 46399, Note_on_c, 0, 62, 72
1, 46400, Note_on_c, 0, 82, 80
1, 46400, Note_on_c, 0, 56, 71
1, 46401, Note_on_c, 0, 67, 80
1, 46418, Note_on_c, 0, 82, 0
1, 46420, Note_on_c, 0, 83, 58
1, 46432, Note_on_c, 0, 76, 0
1, 46436, Note_on_c, 0, 67, 0
1, 46438, Note_on_c, 0, 88, 0
1, 46438, Note_on_c, 0, 83, 0
1, 46445, Note_on_c, 0, 62, 0
1, 46445, Note_on_c, 0, 56, 0
1, 46474, Control_c, 0, 64, 127
1, 46475, Note_on_c, 0, 72, 54
1, 46476, Note_on_c, 0, 84, 39
1, 46479, Note_on_c, 0, 56, 56
1, 46481, Note_on_c, 0, 67, 45
1, 46481, Note_on_c, 0, 62, 49
1, 46516, Note_on_c, 0, 72, 0
1, 46517, Note_on_c, 0, 84, 0
1, 46526, Note_on_c, 0, 67, 0
1, 46528, Note_on_c, 0, 62, 0
1, 46544, Note_on_c, 0, 56, 0
1, 46545, Control_c, 0, 64, 0
1, 46556, Note_on_c, 0, 87, 77
1, 46556, Note_on_c, 0, 65, 70
1, 46557, Note_on_c, 0, 75, 69
1, 46558, Note_on_c, 0, 61, 58
1, 46558, Note_on_c, 0, 55, 63
1, 46559, Note_on_c, 0, 82, 61
1, 46573, Control_c, 0, 64, 127
1, 46582, Note_on_c, 0, 65, 0
1, 46592, Note_on_c, 0, 61, 0
1, 46595, Note_on_c, 0, 55, 0
1, 46627, Note_on_c, 0, 87, 0
1, 46628, Note_on_c, 0, 82, 0
1, 46631, Note_on_c, 0, 75, 0
1, 46642, Note_on_c, 0, 51, 90
1, 46643, Note_on_c, 0, 39, 83
1, 46648, Control_c, 0, 64, 0
1, 46677, Control_c, 0, 64, 127
1, 46721, Note_on_c, 0, 39, 0
1, 46735, Note_on_c, 0, 51, 0
1, 46807, Control_c, 0, 64, 0
1, 46810, Note_on_c, 0, 80, 78
1, 46814, Note_on_c, 0, 70, 87
1, 46815, Note_on_c, 0, 64, 84
1, 46817, Note_on_c, 0, 73, 54
1, 46824, Note_on_c, 0, 73, 0
1, 46832, Note_on_c, 0, 80, 0
1, 46846, Note_on_c, 0, 70, 0
1, 46859, Note_on_c, 0, 64, 0
1, 46891, Note_on_c, 0, 76, 64
1, 46892, Note_on_c, 0, 70, 68
1, 46893, Note_on_c, 0, 61, 59
1, 46894, Note_on_c, 0, 67, 47
1, 46917, Note_on_c, 0, 67, 0
1, 46922, Note_on_c, 0, 76, 0
1, 46926, Note_on_c, 0, 70, 0
1, 46929, Note_on_c, 0, 61, 0
1, 46937, Note_on_c, 0, 58, 39
1, 46940, Note_on_c, 0, 73, 35
1, 46943, Note_on_c, 0, 67, 31
1, 46944, Note_on_c, 0, 70, 15
1, 46965, Control_c, 0, 64, 127
1, 46981, Note_on_c, 0, 70, 0
1, 46981, Note_on_c, 0, 67, 0
1, 46984, Note_on_c, 0, 73, 0
1, 46994, Note_on_c, 0, 56, 31
1, 47007, Note_on_c, 0, 58, 0
1, 47023, Note_on_c, 0, 56, 0
1, 47038, Control_c, 0, 64, 0
1, 47051, Note_on_c, 0, 74, 65
1, 47052, Note_on_c, 0, 70, 67
1, 47052, Note_on_c, 0, 65, 73
1, 47053, Note_on_c, 0, 60, 80
1, 47062, Note_on_c, 0, 65, 0
1, 47067, Note_on_c, 0, 60, 0
1, 47074, Note_on_c, 0, 70, 0
1, 47074, Note_on_c, 0, 74, 0
1, 47167, Note_on_c, 0, 58, 81
1, 47168, Note_on_c, 0, 77, 76
1, 47168, Note_on_c, 0, 70, 74
1, 47168, Note_on_c, 0, 74, 65
1, 47169, Note_on_c, 0, 67, 67
1, 47204, Note_on_c, 0, 74, 0
1, 47205, Note_on_c, 0, 77, 0
1, 47212, Note_on_c, 0, 67, 0
1, 47212, Note_on_c, 0, 70, 0
1, 47218, Note_on_c, 0, 58, 0
1, 47284, Note_on_c, 0, 55, 62
1, 47285, Note_on_c, 0, 74, 50
1, 47285, Note_on_c, 0, 70, 56
1, 47288, Note_on_c, 0, 65, 66
1, 47303, Note_on_c, 0, 74, 0
1, 47306, Note_on_c, 0, 70, 0
1, 47309, Control_c, 0, 64, 127
1, 47311, Note_on_c, 0, 65, 0
1, 47325, Note_on_c, 0, 55, 0
1, 47360, Note_on_c, 0, 53, 51
1, 47360, Note_on_c, 0, 70, 52
1, 47362, Note_on_c, 0, 65, 47
1, 47366, Note_on_c, 0, 60, 35
1, 47368, Note_on_c, 0, 62, 33
1, 47374, Note_on_c, 0, 65, 0
1, 47375, Note_on_c, 0, 62, 0
1, 47375, Note_on_c, 0, 70, 0
1, 47381, Note_on_c, 0, 60, 0
1, 47387, Note_on_c, 0, 53, 0
1, 47397, Control_c, 0, 64, 0
1, 47408, Note_on_c, 0, 50, 34
1, 47432, Control_c, 0, 64, 127
1, 47471, Note_on_c, 0, 50, 0
1, 47480, Note_on_c, 0, 65, 71
1, 47481, Note_on_c, 0, 57, 60
1, 47481, Note_on_c, 0, 60, 69
1, 47484, Note_on_c, 0, 62, 47
1, 47486, Note_on_c, 0, 65, 0
1, 47486, Note_on_c, 0, 50, 57
1, 47488, Note_on_c, 0, 57, 0
1, 47488, Note_on_c, 0, 60, 0
1, 47490, Note_on_c, 0, 62, 0
1, 47493, Control_c, 0, 64, 0
1, 47494, Note_on_c, 0, 50, 0
1, 47598, Note_on_c, 0, 58, 61
1, 47598, Note_on_c, 0, 62, 55
1, 47600, Note_on_c, 0, 34, 52
1, 47601, Note_on_c, 0, 46, 48
1, 47601, Note_on_c, 0, 53, 49
1, 47610, Note_on_c, 0, 53, 0
1, 47616, Note_on_c, 0, 58, 0
1, 47617, Note_on_c, 0, 46, 0
1, 47621, Note_on_c, 0, 62, 0
1, 47626, Note_on_c, 0, 34, 0
1, 47720, Note_on_c, 0, 28, 76
1, 47760, Control_c, 0, 64, 127
1, 47843, Note_on_c, 0, 34, 35
1, 47870, Control_c, 0, 64, 0
1, 47878, Note_on_c, 0, 34, 0
1, 47883, Note_on_c, 0, 40, 51
1, 47883, Note_on_c, 0, 66, 64
1, 47885, Note_on_c, 0, 61, 58
1, 47886, Note_on_c, 0, 63, 44
1, 47892, Note_on_c, 0, 55, 35
1, 47907, Control_c, 0, 64, 127
1, 47932, Note_on_c, 0, 61, 0
1, 47934, Note_on_c, 0, 55, 0
1, 47935, Note_on_c, 0, 66, 0
1, 47942, Note_on_c, 0, 28, 0
1, 47942, Note_on_c, 0, 40, 0
1, 47946, Note_on_c, 0, 63, 0
1, 47962, Control_c, 0, 64, 0
1, 47963, Note_on_c, 0, 63, 64
1, 47965, Note_on_c, 0, 55, 62
1, 47966, Note_on_c, 0, 58, 63
1, 47968, Note_on_c, 0, 39, 67
1, 47968, Note_on_c, 0, 27, 67
1, 47980, Note_on_c, 0, 55, 0
1, 47988, Note_on_c, 0, 58, 0
1, 47989, Note_on_c, 0, 27, 0
1, 47992, Control_c, 0, 64, 127
1, 47995, Note_on_c, 0, 39, 0
1, 48000, Note_on_c, 0, 63, 0
1, 48000, Control_c, 0, 64, 0
1, 48058, Control_c, 0, 64, 127
1, 48109, Control_c, 0, 64, 0
1, 48118, Note_on_c, 0, 56, 52
1, 48121, Note_on_c, 0, 66, 67
1, 48126, Note_on_c, 0, 82, 68
1, 48126, Note_on_c, 0, 76, 62
1, 48128, Note_on_c, 0, 88, 65
1, 48148, Note_on_c, 0, 82, 0
1, 48150, Note_on_c, 0, 83, 55
1, 48162, Note_on_c, 0, 56, 0
1, 48166, Note_on_c, 0, 76, 0
1, 48168, Note_on_c, 0, 88, 0
1, 48171, Note_on_c, 0, 83, 0
1, 48172, Note_on_c, 0, 66, 0
1, 48202, Note_on_c, 0, 65, 60
1, 48202, Note_on_c, 0, 87, 71
1, 48203, Note_on_c, 0, 61, 53
1, 48203, Note_on_c, 0, 55, 57
1, 48204, Note_on_c, 0, 75, 62
1, 48205, Note_on_c, 0, 82, 63
1, 48242, Control_c, 0, 64, 127
1, 48315, Note_on_c, 0, 65, 0
1, 48322, Note_on_c, 0, 55, 0
1, 48330, Note_on_c, 0, 87, 0
1, 48332, Note_on_c, 0, 61, 0
1, 48340, Note_on_c, 0, 75, 0
1, 48343, Note_on_c, 0, 82, 0
1, 48366, Control_c, 0, 64, 0
1, 48369, Note_on_c, 0, 85, 52
1, 48370, Note_on_c, 0, 54, 59
1, 48371, Note_on_c, 0, 73, 42
1, 48373, Note_on_c, 0, 80, 48
1, 48393, Note_on_c, 0, 54, 0
1, 48402, Note_on_c, 0, 73, 0
1, 48405, Note_on_c, 0, 80, 0
1, 48412, Note_on_c, 0, 85, 0
1, 48440, Note_on_c, 0, 75, 70
1, 48441, Note_on_c, 0, 65, 64
1, 48442, Note_on_c, 0, 87, 67
1, 48442, Note_on_c, 0, 55, 54
1, 48442, Note_on_c, 0, 61, 55
1, 48442, Note_on_c, 0, 82, 59
1, 48449, Note_on_c, 0, 82, 0
1, 48449, Note_on_c, 0, 65, 0
1, 48452, Note_on_c, 0, 55, 0
1, 48453, Note_on_c, 0, 75, 0
1, 48453, Note_on_c, 0, 87, 0
1, 48461, Note_on_c, 0, 61, 0
1, 48610, Control_c, 0, 64, 127
1, 48644, Control_c, 0, 64, 0
1, 48654, Control_c, 0, 64, 127
1, 48675, Note_on_c, 0, 54, 61
1, 48675, Note_on_c, 0, 70, 74
1, 48679, Note_on_c, 0, 65, 64
1, 48680, Note_on_c, 0, 60, 69
1, 48680, Note_on_c, 0, 55, 47
1, 48686, Note_on_c, 0, 65, 0
1, 48687, Note_on_c, 0, 55, 0
1, 48693, Note_on_c, 0, 70, 0
1, 48694, Note_on_c, 0, 60, 0
1, 48698, Note_on_c, 0, 54, 0
1, 48721, Control_c, 0, 64, 0
1, 48731, Note_on_c, 0, 63, 42
1, 48733, Note_on_c, 0, 52, 60
1, 48734, Note_on_c, 0, 58, 59
1, 48736, Note_on_c, 0, 67, 50
1, 48738, Note_on_c, 0, 61, 55
1, 48743, Note_on_c, 0, 63, 0
1, 48771, Note_on_c, 0, 67, 0
1, 48782, Note_on_c, 0, 61, 0
1, 48785, Note_on_c, 0, 58, 0
1, 48785, Control_c, 0, 64, 127
1, 48810, Note_on_c, 0, 58, 54
1, 48811, Note_on_c, 0, 52, 0
1, 48813, Control_c, 0, 64, 0
1, 48813, Note_on_c, 0, 55, 60
1, 48813, Note_on_c, 0, 64, 60
1, 48813, Note_on_c, 0, 49, 48
1, 48815, Note_on_c, 0, 61, 44
1, 48855, Control_c, 0, 64, 127
1, 48896, Note_on_c, 0, 55, 0
1, 48910, Note_on_c, 0, 64, 0
1, 48918, Note_on_c, 0, 61, 0
1, 48918, Note_on_c, 0, 58, 0
1, 48933, Note_on_c, 0, 46, 18
1, 48945, Control_c, 0, 64, 0
1, 48956, Note_on_c, 0, 46, 0
1, 48957, Note_on_c, 0, 60, 57
1, 48958, Note_on_c, 0, 49, 0
1, 48958, Note_on_c, 0, 57, 44
1, 48959, Note_on_c, 0, 65, 55
1, 48960, Note_on_c, 0, 50, 54
1, 48977, Control_c, 0, 64, 127
1, 48981, Note_on_c, 0, 57, 0
1, 48985, Note_on_c, 0, 60, 0
1, 48990, Note_on_c, 0, 65, 0
1, 48994, Note_on_c, 0, 50, 0
1, 49040, Note_on_c, 0, 55, 81
1, 49040, Note_on_c, 0, 70, 74
1, 49042, Note_on_c, 0, 65, 80
1, 49043, Note_on_c, 0, 60, 74
1, 49046, Control_c, 0, 64, 0
1, 49092, Control_c, 0, 64, 127
1, 49191, Note_on_c, 0, 55, 0
1, 49196, Note_on_c, 0, 65, 0
1, 49199, Note_on_c, 0, 70, 0
1, 49208, Note_on_c, 0, 60, 0
1, 49278, Note_on_c, 0, 60, 67
1, 49278, Note_on_c, 0, 65, 61
1, 49278, Note_on_c, 0, 55, 54
1, 49279, Note_on_c, 0, 61, 46
1, 49279, Note_on_c, 0, 51, 62
1, 49282, Note_on_c, 0, 39, 48
1, 49286, Control_c, 0, 64, 0
1, 49314, Control_c, 0, 64, 127
1, 49375, Note_on_c, 0, 55, 0
1, 49380, Note_on_c, 0, 51, 0
1, 49396, Note_on_c, 0, 61, 0
1, 49404, Note_on_c, 0, 60, 0
1, 49406, Note_on_c, 0, 42, 30
1, 49411, Note_on_c, 0, 39, 0
1, 49419, Note_on_c, 0, 65, 0
1, 49422, Control_c, 0, 64, 0
1, 49427, Note_on_c, 0, 42, 0
1, 49427, Note_on_c, 0, 38, 25
1, 49429, Note_on_c, 0, 65, 36
1, 49430, Note_on_c, 0, 50, 46
1, 49431, Note_on_c, 0, 60, 55
1, 49432, Note_on_c, 0, 56, 53
1, 49432, Note_on_c, 0, 62, 48
1, 49498, Note_on_c, 0, 50, 0
1, 49511, Note_on_c, 0, 38, 0
1, 49513, Note_on_c, 0, 42, 45
1, 49536, Note_on_c, 0, 42, 0
1, 49536, Note_on_c, 0, 62, 0
1, 49547, Note_on_c, 0, 60, 0
1, 49550, Note_on_c, 0, 44, 45
1, 49559, Note_on_c, 0, 56, 0
1, 49599, Note_on_c, 0, 65, 0
1, 49617, Note_on_c, 0, 42, 32
1, 49631, Note_on_c, 0, 61, 55
1, 49632, Note_on_c, 0, 53, 51
1, 49634, Note_on_c, 0, 42, 0
1, 49634, Note_on_c, 0, 44, 0
1, 49636, Note_on_c, 0, 59, 42
1, 49639, Note_on_c, 0, 53, 0
1, 49644, Note_on_c, 0, 43, 40
1, 49650, Note_on_c, 0, 59, 0
1, 49659, Note_on_c, 0, 61, 0
1, 49678, Note_on_c, 0, 65, 51
1, 49679, Note_on_c, 0, 56, 51
1, 49681, Note_on_c, 0, 62, 58
1, 49682, Note_on_c, 0, 59, 47
1, 49689, Note_on_c, 0, 38, 33
1, 49710, Note_on_c, 0, 38, 0
1, 49742, Note_on_c, 0, 62, 0
1, 49746, Note_on_c, 0, 56, 0
1, 49748, Note_on_c, 0, 59, 0
1, 49753, Note_on_c, 0, 65, 0
1, 49758, Note_on_c, 0, 35, 71
1, 49759, Note_on_c, 0, 62, 66
1, 49760, Note_on_c, 0, 43, 0
1, 49760, Note_on_c, 0, 56, 48
1, 49765, Note_on_c, 0, 59, 58
1, 49878, Note_on_c, 0, 59, 0
1, 49888, Note_on_c, 0, 62, 0
1, 49898, Note_on_c, 0, 56, 0
1, 49905, Note_on_c, 0, 34, 21
1, 49907, Note_on_c, 0, 35, 0
1, 49919, Note_on_c, 0, 36, 38
1, 49919, Note_on_c, 0, 63, 38
1, 49922, Note_on_c, 0, 34, 0
1, 49922, Note_on_c, 0, 55, 51
1, 49923, Note_on_c, 0, 58, 50
1, 49972, Note_on_c, 0, 58, 0
1, 49973, Note_on_c, 0, 55, 0
1, 49974, Note_on_c, 0, 36, 0
1, 49991, Note_on_c, 0, 26, 59
1, 49992, Note_on_c, 0, 63, 0
1, 50042, Note_on_c, 0, 26, 0
1, 50045, Note_on_c, 0, 38, 36
1, 50107, Note_on_c, 0, 38, 0
1, 50116, Note_on_c, 0, 27, 74
1, 50162, Note_on_c, 0, 39, 37
1, 50163, Note_on_c, 0, 27, 0
1, 50218, Note_on_c, 0, 39, 0
1, 50232, Note_on_c, 0, 28, 67
1, 50276, Note_on_c, 0, 40, 44
1, 50297, Note_on_c, 0, 28, 0
1, 50345, Note_on_c, 0, 40, 0
1, 50352, Note_on_c, 0, 29, 68
1, 50396, Note_on_c, 0, 77, 73
1, 50397, Note_on_c, 0, 75, 71
1, 50397, Note_on_c, 0, 41, 77
1, 50397, Note_on_c, 0, 69, 90
1, 50407, Note_on_c, 0, 29, 0
1, 50409, Note_on_c, 0, 69, 0
1, 50411, Note_on_c, 0, 77, 0
1, 50420, Note_on_c, 0, 75, 0
1, 50421, Note_on_c, 0, 41, 0
1, 50480, Note_on_c, 0, 51, 44
1, 50498, Note_on_c, 0, 51, 0
1, 50512, Note_on_c, 0, 54, 77
1, 50513, Note_on_c, 0, 68, 77
1, 50513, Note_on_c, 0, 61, 72
1, 50514, Note_on_c, 0, 63, 65
1, 50516, Note_on_c, 0, 57, 64
1, 50516, Note_on_c, 0, 55, 60
1, 50541, Note_on_c, 0, 55, 0
1, 50591, Note_on_c, 0, 68, 0
1, 50600, Note_on_c, 0, 63, 0
1, 50600, Note_on_c, 0, 61, 0
1, 50602, Note_on_c, 0, 54, 0
1, 50604, Note_on_c, 0, 51, 39
1, 50606, Note_on_c, 0, 57, 0
1, 50634, Note_on_c, 0, 51, 0
1, 50639, Note_on_c, 0, 53, 64
1, 50639, Note_on_c, 0, 66, 64
1, 50639, Note_on_c, 0, 57, 64
1, 50642, Note_on_c, 0, 61, 57
1, 50683, Note_on_c, 0, 61, 0
1, 50686, Note_on_c, 0, 57, 0
1, 50686, Note_on_c, 0, 66, 0
1, 50709, Note_on_c, 0, 53, 0
1, 50713, Note_on_c, 0, 51, 55
1, 50714, Note_on_c, 0, 65, 68
1, 50716, Note_on_c, 0, 57, 55
1, 50722, Note_on_c, 0, 61, 30
1, 50732, Note_on_c, 0, 61, 0
1, 50738, Note_on_c, 0, 57, 0
1, 50739, Note_on_c, 0, 65, 0
1, 50748, Note_on_c, 0, 51, 0
1, 50757, Note_on_c, 0, 49, 44
1, 50758, Note_on_c, 0, 63, 30
1, 50764, Control_c, 0, 64, 127
1, 50799, Note_on_c, 0, 63, 0
1, 50824, Control_c, 0, 64, 0
1, 50827, Note_on_c, 0, 49, 0
1, 50830, Note_on_c, 0, 62, 71
1, 50833, Note_on_c, 0, 50, 62
1, 50834, Note_on_c, 0, 53, 64
1, 50854, Note_on_c, 0, 53, 0
1, 50880, Note_on_c, 0, 62, 0
1, 50936, Note_on_c, 0, 38, 67
1, 50947, Note_on_c, 0, 50, 0
1, 50952, Note_on_c, 0, 38, 0
1, 50988, Control_c, 0, 64, 127
1, 51053, Control_c, 0, 64, 0
1, 51060, Note_on_c, 0, 53, 70
1, 51060, Note_on_c, 0, 85, 74
1, 51061, Note_on_c, 0, 59, 58
1, 51061, Note_on_c, 0, 64, 70
1, 51062, Note_on_c, 0, 70, 68
1, 51120, Control_c, 0, 64, 127
1, 51204, Note_on_c, 0, 70, 0
1, 51217, Note_on_c, 0, 85, 0
1, 51220, Control_c, 0, 64, 0
1, 51232, Note_on_c, 0, 82, 37
1, 51242, Control_c, 0, 64, 127
1, 51256, Note_on_c, 0, 64, 0
1, 51268, Note_on_c, 0, 59, 0
1, 51274, Note_on_c, 0, 53, 0
1, 51274, Note_on_c, 0, 82, 0
1, 51348, Control_c, 0, 64, 0
1, 51348, Note_on_c, 0, 63, 52
1, 51351, Note_on_c, 0, 90, 40
1, 51352, Note_on_c, 0, 52, 48
1, 51353, Note_on_c, 0, 75, 39
1, 51353, Note_on_c, 0, 58, 42
1, 51469, Control_c, 0, 64, 127
1, 51480, Note_on_c, 0, 75, 0
1, 51480, Note_on_c, 0, 52, 0
1, 51485, Note_on_c, 0, 63, 0
1, 51496, Note_on_c, 0, 90, 0
1, 51516, Note_on_c, 0, 58, 0
1, 51556, Note_on_c, 0, 51, 44
1, 51558, Note_on_c, 0, 62, 42
1, 51558, Note_on_c, 0, 89, 57
1, 51561, Note_on_c, 0, 57, 42
1, 51571, Control_c, 0, 64, 0
1, 51581, Note_on_c, 0, 89, 0
1, 51650, Note_on_c, 0, 89, 69
1, 51666, Note_on_c, 0, 89, 0
1, 51681, Note_on_c, 0, 91, 70
1, 51698, Note_on_c, 0, 91, 0
1, 51718, Note_on_c, 0, 94, 78
1, 51724, Note_on_c, 0, 57, 0
1, 51739, Note_on_c, 0, 51, 0
1, 51741, Note_on_c, 0, 62, 0
1, 51744, Note_on_c, 0, 94, 0
1, 51793, Note_on_c, 0, 96, 82
1, 51812, Note_on_c, 0, 96, 0
1, 51836, Note_on_c, 0, 94, 59
1, 51846, Note_on_c, 0, 94, 0
1, 51917, Note_on_c, 0, 94, 76
1, 51939, Note_on_c, 0, 94, 0
1, 51961, Note_on_c, 0, 91, 60
1, 51982, Note_on_c, 0, 91, 0
1, 52041, Note_on_c, 0, 94, 59
1, 52042, Note_on_c, 0, 62, 37
1, 52042, Note_on_c, 0, 67, 31
1, 52044, Note_on_c, 0, 56, 28
1, 52059, Note_on_c, 0, 67, 0
1, 52062, Note_on_c, 0, 94, 0
1, 52066, Note_on_c, 0, 62, 0
1, 52070, Note_on_c, 0, 56, 0
1, 52158, Note_on_c, 0, 56, 53
1, 52159, Note_on_c, 0, 67, 48
1, 52160, Note_on_c, 0, 62, 51
1, 52160, Note_on_c, 0, 94, 60
1, 52180, Note_on_c, 0, 67, 0
1, 52185, Note_on_c, 0, 94, 0
1, 52190, Note_on_c, 0, 62, 0
1, 52228, Note_on_c, 0, 56, 0
1, 52272, Note_on_c, 0, 94, 57
1, 52272, Note_on_c, 0, 55, 45
1, 52273, Note_on_c, 0, 61, 48
1, 52274, Note_on_c, 0, 82, 48
1, 52275, Note_on_c, 0, 65, 43
1, 52283, Note_on_c, 0, 65, 0
1, 52287, Note_on_c, 0, 82, 0
1, 52288, Note_on_c, 0, 55, 0
1, 52289, Note_on_c, 0, 94, 0
1, 52291, Note_on_c, 0, 61, 0
1, 52390, Note_on_c, 0, 61, 52
1, 52392, Note_on_c, 0, 82, 63
1, 52392, Note_on_c, 0, 55, 48
1, 52392, Note_on_c, 0, 94, 67
1, 52395, Note_on_c, 0, 65, 31
1, 52399, Note_on_c, 0, 55, 0
1, 52403, Note_on_c, 0, 65, 0
1, 52407, Note_on_c, 0, 61, 0
1, 52410, Note_on_c, 0, 82, 0
1, 52411, Note_on_c, 0, 94, 0
1, 52432, Note_on_c, 0, 61, 33
1, 52434, Note_on_c, 0, 55, 32
1, 52435, Note_on_c, 0, 65, 33
1, 52437, Note_on_c, 0, 79, 38
1, 52438, Note_on_c, 0, 91, 33
1, 52444, Note_on_c, 0, 65, 0
1, 52444, Note_on_c, 0, 55, 0
1, 52448, Note_on_c, 0, 91, 0
1, 52448, Note_on_c, 0, 79, 0
1, 52454, Note_on_c, 0, 61, 0
1, 52508, Note_on_c, 0, 82, 62
1, 52508, Note_on_c, 0, 61, 60
1, 52509, Note_on_c, 0, 94, 64
1, 52511, Note_on_c, 0, 64, 55
1, 52514, Note_on_c, 0, 55, 40
1, 52517, Note_on_c, 0, 64, 0
1, 52520, Note_on_c, 0, 94, 0
1, 52521, Note_on_c, 0, 55, 0
1, 52521, Note_on_c, 0, 82, 0
1, 52525, Note_on_c, 0, 61, 0
1, 52624, Note_on_c, 0, 58, 67
1, 52625, Note_on_c, 0, 61, 69
1, 52625, Note_on_c, 0, 64, 79
1, 52626, Note_on_c, 0, 55, 72
1, 52627, Note_on_c, 0, 94, 83
1, 52627, Note_on_c, 0, 82, 79
1, 52650, Note_on_c, 0, 82, 0
1, 52652, Note_on_c, 0, 64, 0
1, 52653, Note_on_c, 0, 55, 0
1, 52653, Note_on_c, 0, 94, 0
1, 52659, Note_on_c, 0, 61, 0
1, 52659, Note_on_c, 0, 58, 0
1, 52673, Note_on_c, 0, 55, 24
1, 52674, Note_on_c, 0, 64, 45
1, 52675, Note_on_c, 0, 61, 48
1, 52675, Note_on_c, 0, 79, 52
1, 52677, Note_on_c, 0, 58, 42
1, 52679, Note_on_c, 0, 91, 35
1, 52690, Note_on_c, 0, 55, 0
1, 52691, Note_on_c, 0, 64, 0
1, 52693, Note_on_c, 0, 79, 0
1, 52696, Note_on_c, 0, 61, 0
1, 52696, Note_on_c, 0, 91, 0
1, 52697, Note_on_c, 0, 58, 0
1, 52745, Note_on_c, 0, 58, 59
1, 52746, Note_on_c, 0, 53, 59
1, 52746, Note_on_c, 0, 62, 56
1, 52748, Note_on_c, 0, 82, 63
1, 52748, Note_on_c, 0, 94, 69
1, 52756, Note_on_c, 0, 62, 0
1, 52758, Note_on_c, 0, 53, 0
1, 52759, Note_on_c, 0, 82, 0
1, 52764, Note_on_c, 0, 94, 0
1, 52765, Note_on_c, 0, 58, 0
1, 52868, Control_c, 0, 64, 127
1, 52869, Note_on_c, 0, 58, 62
1, 52870, Note_on_c, 0, 82, 69
1, 52870, Note_on_c, 0, 94, 73
1, 52872, Note_on_c, 0, 62, 58
1, 52874, Note_on_c, 0, 53, 41
1, 52878, Note_on_c, 0, 62, 0
1, 52881, Note_on_c, 0, 53, 0
1, 52886, Note_on_c, 0, 82, 0
1, 52888, Note_on_c, 0, 58, 0
1, 52890, Note_on_c, 0, 94, 0
1, 52899, Control_c, 0, 64, 0
1, 52915, Note_on_c, 0, 62, 47
1, 52915, Note_on_c, 0, 58, 40
1, 52916, Note_on_c, 0, 79, 46
1, 52916, Note_on_c, 0, 91, 49
1, 52922, Note_on_c, 0, 62, 0
1, 52923, Note_on_c, 0, 91, 0
1, 52923, Note_on_c, 0, 79, 0
1, 52927, Note_on_c, 0, 58, 0
1, 52993, Note_on_c, 0, 58, 49
1, 52996, Note_on_c, 0, 91, 67
1, 52997, Note_on_c, 0, 79, 41
1, 53003, Note_on_c, 0, 91, 0
1, 53008, Note_on_c, 0, 58, 0
1, 53011, Note_on_c, 0, 79, 0
1, 53037, Note_on_c, 0, 58, 51
1, 53038, Note_on_c, 0, 62, 42
1, 53038, Note_on_c, 0, 89, 54
1, 53040, Note_on_c, 0, 77, 43
1, 53040, Note_on_c, 0, 53, 38
1, 53067, Control_c, 0, 64, 127
1, 53093, Note_on_c, 0, 77, 0
1, 53098, Note_on_c, 0, 53, 0
1, 53101, Note_on_c, 0, 62, 0
1, 53102, Note_on_c, 0, 89, 0
1, 53107, Note_on_c, 0, 58, 0
1, 53147, Control_c, 0, 64, 0
1, 53155, Note_on_c, 0, 58, 57
1, 53156, Note_on_c, 0, 62, 54
1, 53156, Note_on_c, 0, 53, 58
1, 53158, Note_on_c, 0, 91, 62
1, 53158, Note_on_c, 0, 79, 61
1, 53165, Note_on_c, 0, 53, 0
1, 53172, Note_on_c, 0, 62, 0
1, 53173, Note_on_c, 0, 91, 0
1, 53181, Note_on_c, 0, 79, 0
1, 53183, Note_on_c, 0, 58, 0
1, 53191, Control_c, 0, 64, 127
1, 53263, Control_c, 0, 64, 0
1, 53275, Note_on_c, 0, 73, 81
1, 53278, Note_on_c, 0, 86, 73
1, 53279, Note_on_c, 0, 62, 74
1, 53279, Note_on_c, 0, 67, 75
1, 53281, Note_on_c, 0, 56, 69
1, 53288, Note_on_c, 0, 73, 0
1, 53288, Note_on_c, 0, 74, 38
1, 53307, Control_c, 0, 64, 127
1, 53342, Note_on_c, 0, 67, 0
1, 53352, Note_on_c, 0, 62, 0
1, 53357, Note_on_c, 0, 86, 0
1, 53366, Note_on_c, 0, 56, 0
1, 53367, Note_on_c, 0, 74, 0
1, 53392, Control_c, 0, 64, 0
1, 53394, Note_on_c, 0, 66, 57
1, 53396, Note_on_c, 0, 55, 58
1, 53396, Note_on_c, 0, 61, 49
1, 53398, Note_on_c, 0, 84, 58
1, 53402, Note_on_c, 0, 72, 49
1, 53416, Control_c, 0, 64, 127
1, 53422, Note_on_c, 0, 84, 0
1, 53435, Note_on_c, 0, 55, 0
1, 53444, Note_on_c, 0, 72, 0
1, 53448, Note_on_c, 0, 66, 0
1, 53456, Note_on_c, 0, 61, 0
1, 53475, Note_on_c, 0, 65, 69
1, 53476, Note_on_c, 0, 82, 68
1, 53476, Control_c, 0, 64, 0
1, 53477, Note_on_c, 0, 70, 64
1, 53479, Note_on_c, 0, 77, 54
1, 53482, Note_on_c, 0, 54, 42
1, 53482, Note_on_c, 0, 60, 63
1, 53492, Note_on_c, 0, 65, 0
1, 53493, Note_on_c, 0, 70, 0
1, 53494, Note_on_c, 0, 77, 0
1, 53494, Note_on_c, 0, 82, 0
1, 53502, Note_on_c, 0, 60, 0
1, 53503, Note_on_c, 0, 54, 0
1, 53517, Control_c, 0, 64, 127
1, 53520, Control_c, 0, 64, 0
1, 53530, Control_c, 0, 64, 127
1, 53589, Note_on_c, 0, 38, 59
1, 53619, Note_on_c, 0, 38, 0
1, 53622, Control_c, 0, 64, 0
1, 53633, Note_on_c, 0, 50, 29
1, 53638, Note_on_c, 0, 64, 59
1, 53638, Note_on_c, 0, 59, 55
1, 53639, Note_on_c, 0, 50, 0
1, 53639, Note_on_c, 0, 55, 51
1, 53674, Control_c, 0, 64, 127
1, 53691, Note_on_c, 0, 55, 0
1, 53693, Note_on_c, 0, 59, 0
1, 53693, Note_on_c, 0, 64, 0
1, 53712, Note_on_c, 0, 63, 62
1, 53716, Note_on_c, 0, 27, 67
1, 53716, Note_on_c, 0, 39, 70
1, 53716, Control_c, 0, 64, 0
1, 53717, Note_on_c, 0, 55, 41
1, 53717, Note_on_c, 0, 58, 49
1, 53729, Note_on_c, 0, 55, 0
1, 53732, Note_on_c, 0, 58, 0
1, 53742, Note_on_c, 0, 27, 0
1, 53744, Note_on_c, 0, 39, 0
1, 53744, Note_on_c, 0, 63, 0
1, 53844, Note_on_c, 0, 51, 43
1, 53858, Note_on_c, 0, 51, 0
1, 53877, Note_on_c, 0, 70, 64
1, 53879, Note_on_c, 0, 61, 57
1, 53880, Note_on_c, 0, 55, 52
1, 53888, Note_on_c, 0, 64, 22
1, 53901, Note_on_c, 0, 64, 0
1, 53902, Note_on_c, 0, 70, 0
1, 53911, Control_c, 0, 64, 127
1, 53922, Note_on_c, 0, 61, 0
1, 53952, Note_on_c, 0, 55, 0
1, 53955, Note_on_c, 0, 67, 46
1, 53956, Note_on_c, 0, 58, 45
1, 53956, Note_on_c, 0, 61, 51
1, 53959, Note_on_c, 0, 52, 47
1, 53961, Control_c, 0, 64, 0
1, 53967, Note_on_c, 0, 52, 0
1, 53967, Note_on_c, 0, 58, 0
1, 53972, Note_on_c, 0, 67, 0
1, 53974, Note_on_c, 0, 61, 0
1, 54111, Note_on_c, 0, 70, 44
1, 54111, Note_on_c, 0, 73, 39
1, 54113, Note_on_c, 0, 79, 29
1, 54116, Note_on_c, 0, 64, 36
1, 54127, Note_on_c, 0, 79, 0
1, 54142, Note_on_c, 0, 73, 0
1, 54156, Note_on_c, 0, 70, 0
1, 54166, Control_c, 0, 64, 127
1, 54183, Note_on_c, 0, 64, 0
1, 54186, Note_on_c, 0, 76, 51
1, 54186, Note_on_c, 0, 70, 51
1, 54187, Note_on_c, 0, 61, 51
1, 54190, Note_on_c, 0, 67, 38
1, 54194, Control_c, 0, 64, 0
1, 54197, Note_on_c, 0, 67, 0
1, 54202, Note_on_c, 0, 76, 0
1, 54202, Note_on_c, 0, 70, 0
1, 54204, Note_on_c, 0, 61, 0
1, 54302, Note_on_c, 0, 70, 53
1, 54304, Note_on_c, 0, 55, 55
1, 54304, Note_on_c, 0, 61, 61
1, 54309, Note_on_c, 0, 64, 36
1, 54314, Note_on_c, 0, 70, 0
1, 54318, Note_on_c, 0, 64, 0
1, 54319, Note_on_c, 0, 55, 0
1, 54334, Note_on_c, 0, 61, 0
1, 54352, Note_on_c, 0, 66, 42
1, 54360, Note_on_c, 0, 58, 43
1, 54360, Note_on_c, 0, 52, 46
1, 54365, Note_on_c, 0, 61, 42
1, 54383, Note_on_c, 0, 61, 0
1, 54383, Note_on_c, 0, 66, 0
1, 54386, Note_on_c, 0, 52, 0
1, 54388, Note_on_c, 0, 58, 0
1, 54434, Note_on_c, 0, 64, 36
1, 54437, Note_on_c, 0, 58, 40
1, 54439, Note_on_c, 0, 49, 46
1, 54441, Note_on_c, 0, 61, 36
1, 54442, Note_on_c, 0, 55, 34
1, 54458, Note_on_c, 0, 64, 0
1, 54460, Note_on_c, 0, 55, 0
1, 54462, Note_on_c, 0, 61, 0
1, 54463, Note_on_c, 0, 49, 0
1, 54463, Note_on_c, 0, 58, 0
1, 54505, Note_on_c, 0, 54, 23
1, 54511, Note_on_c, 0, 61, 48
1, 54513, Note_on_c, 0, 46, 46
1, 54536, Note_on_c, 0, 54, 0
1, 54552, Note_on_c, 0, 46, 0
1, 54572, Note_on_c, 0, 61, 0
1, 54582, Note_on_c, 0, 42, 50
1, 54588, Note_on_c, 0, 52, 44
1, 54589, Note_on_c, 0, 58, 44
1, 54599, Control_c, 0, 64, 127
1, 54604, Note_on_c, 0, 58, 0
1, 54607, Note_on_c, 0, 52, 0
1, 54653, Control_c, 0, 64, 0
1, 54657, Note_on_c, 0, 42, 0
1, 54662, Note_on_c, 0, 58, 44
1, 54664, Note_on_c, 0, 53, 54
1, 54666, Note_on_c, 0, 48, 36
1, 54668, Note_on_c, 0, 41, 44
1, 54696, Note_on_c, 0, 48, 0
1, 54709, Note_on_c, 0, 53, 0
1, 54726, Note_on_c, 0, 58, 0
1, 54776, Note_on_c, 0, 29, 58
1, 54795, Note_on_c, 0, 29, 0
1, 54817, Note_on_c, 0, 41, 0
1, 54824, Note_on_c, 0, 65, 43
1, 54839, Note_on_c, 0, 65, 0
1, 54858, Note_on_c, 0, 67, 32
1, 54872, Note_on_c, 0, 67, 0
1, 54895, Note_on_c, 0, 70, 57
1, 54916, Note_on_c, 0, 70, 0
1, 54933, Note_on_c, 0, 72, 44
1, 54954, Note_on_c, 0, 72, 0
1, 54996, Note_on_c, 0, 74, 74
1, 55016, Note_on_c, 0, 74, 0
1, 55059, Note_on_c, 0, 75, 81
1, 55078, Note_on_c, 0, 75, 0
1, 55098, Note_on_c, 0, 65, 66
1, 55099, Note_on_c, 0, 61, 44
1, 55100, Note_on_c, 0, 55, 53
1, 55100, Note_on_c, 0, 77, 76
1, 55101, Note_on_c, 0, 60, 66
1, 55122, Note_on_c, 0, 77, 0
1, 55136, Note_on_c, 0, 79, 64
1, 55157, Note_on_c, 0, 79, 0
1, 55171, Note_on_c, 0, 81, 74
1, 55176, Note_on_c, 0, 65, 0
1, 55181, Note_on_c, 0, 60, 0
1, 55187, Note_on_c, 0, 81, 0
1, 55187, Note_on_c, 0, 55, 0
1, 55189, Note_on_c, 0, 61, 0
1, 55203, Note_on_c, 0, 82, 64
1, 55219, Note_on_c, 0, 82, 0
1, 55226, Note_on_c, 0, 54, 47
1, 55227, Note_on_c, 0, 65, 46
1, 55231, Note_on_c, 0, 60, 48
1, 55239, Note_on_c, 0, 84, 63
1, 55243, Note_on_c, 0, 72, 43
1, 55257, Note_on_c, 0, 72, 0
1, 55260, Note_on_c, 0, 84, 0
1, 55293, Note_on_c, 0, 86, 69
1, 55293, Note_on_c, 0, 74, 63
1, 55308, Note_on_c, 0, 74, 0
1, 55309, Note_on_c, 0, 86, 0
1, 55342, Note_on_c, 0, 75, 62
1, 55343, Note_on_c, 0, 87, 69
1, 55360, Note_on_c, 0, 75, 0
1, 55366, Note_on_c, 0, 87, 0
1, 55376, Note_on_c, 0, 76, 51
1, 55378, Note_on_c, 0, 88, 63
1, 55385, Note_on_c, 0, 88, 0
1, 55386, Note_on_c, 0, 76, 0
1, 55393, Note_on_c, 0, 65, 0
1, 55400, Note_on_c, 0, 60, 0
1, 55410, Note_on_c, 0, 77, 57
1, 55410, Note_on_c, 0, 89, 62
1, 55417, Note_on_c, 0, 77, 0
1, 55418, Note_on_c, 0, 89, 0
1, 55440, Note_on_c, 0, 90, 55
1, 55441, Note_on_c, 0, 54, 0
1, 55442, Note_on_c, 0, 78, 59
1, 55448, Note_on_c, 0, 78, 0
1, 55456, Note_on_c, 0, 90, 0
1, 55462, Note_on_c, 0, 64, 42
1, 55464, Note_on_c, 0, 53, 41
1, 55467, Note_on_c, 0, 78, 43
1, 55467, Note_on_c, 0, 59, 46
1, 55475, Note_on_c, 0, 91, 66
1, 55481, Note_on_c, 0, 78, 0
1, 55483, Note_on_c, 0, 79, 66
1, 55493, Note_on_c, 0, 91, 0
1, 55498, Note_on_c, 0, 79, 0
1, 55520, Note_on_c, 0, 64, 0
1, 55527, Note_on_c, 0, 85, 69
1, 55528, Note_on_c, 0, 73, 67
1, 55534, Note_on_c, 0, 64, 26
1, 55536, Note_on_c, 0, 86, 65
1, 55537, Note_on_c, 0, 73, 0
1, 55541, Note_on_c, 0, 74, 64
1, 55545, Note_on_c, 0, 85, 0
1, 55552, Note_on_c, 0, 86, 0
1, 55552, Note_on_c, 0, 74, 0
1, 55580, Note_on_c, 0, 70, 71
1, 55582, Note_on_c, 0, 82, 52
1, 55600, Note_on_c, 0, 64, 0
1, 55602, Note_on_c, 0, 59, 0
1, 55603, Note_on_c, 0, 70, 0
1, 55606, Note_on_c, 0, 82, 0
1, 55613, Note_on_c, 0, 53, 0
1, 55619, Note_on_c, 0, 79, 39
1, 55626, Note_on_c, 0, 79, 0
1, 55648, Note_on_c, 0, 84, 70
1, 55651, Note_on_c, 0, 72, 54
1, 55653, Note_on_c, 0, 62, 40
1, 55662, Note_on_c, 0, 62, 0
1, 55679, Note_on_c, 0, 84, 0
1, 55686, Note_on_c, 0, 72, 0
1, 55742, Note_on_c, 0, 48, 59
1, 55761, Note_on_c, 0, 48, 0
1, 55858, Note_on_c, 0, 54, 42
1, 55864, Note_on_c, 0, 63, 57
1, 55866, Note_on_c, 0, 58, 60
1, 55866, Note_on_c, 0, 67, 49
1, 55868, Note_on_c, 0, 55, 67
1, 55873, Note_on_c, 0, 54, 0
1, 55892, Note_on_c, 0, 55, 0
1, 55986, Note_on_c, 0, 39, 56
1, 56004, Note_on_c, 0, 39, 0
1, 56027, Note_on_c, 0, 40, 36
1, 56094, Note_on_c, 0, 63, 0
1, 56104, Note_on_c, 0, 39, 28
1, 56109, Note_on_c, 0, 67, 0
1, 56113, Note_on_c, 0, 58, 0
1, 56120, Note_on_c, 0, 40, 0
1, 56125, Note_on_c, 0, 39, 0
1, 56143, Note_on_c, 0, 41, 39
1, 56146, Note_on_c, 0, 63, 40
1, 56148, Note_on_c, 0, 57, 41
1, 56150, Note_on_c, 0, 65, 36
1, 56160, Note_on_c, 0, 65, 0
1, 56161, Note_on_c, 0, 57, 0
1, 56167, Note_on_c, 0, 63, 0
1, 56230, Note_on_c, 0, 53, 59
1, 56232, Note_on_c, 0, 29, 39
1, 56234, Note_on_c, 0, 41, 0
1, 56250, Note_on_c, 0, 53, 0
1, 56265, Note_on_c, 0, 29, 0
1, 56274, Note_on_c, 0, 55, 44
1, 56280, Note_on_c, 0, 31, 24
1, 56323, Note_on_c, 0, 55, 0
1, 56350, Note_on_c, 0, 31, 0
1, 56350, Note_on_c, 0, 58, 78
1, 56350, Note_on_c, 0, 34, 60
1, 56424, Note_on_c, 0, 58, 0
1, 56431, Note_on_c, 0, 60, 51
1, 56454, Note_on_c, 0, 58, 47
1, 56457, Note_on_c, 0, 60, 0
1, 56478, Note_on_c, 0, 34, 0
1, 56483, Note_on_c, 0, 58, 0
1, 56483, Note_on_c, 0, 55, 41
1, 56484, Note_on_c, 0, 31, 44
1, 56499, Note_on_c, 0, 55, 0
1, 56508, Note_on_c, 0, 31, 0
1, 56510, Note_on_c, 0, 58, 81
1, 56513, Note_on_c, 0, 34, 67
1, 56577, Note_on_c, 0, 34, 0
1, 56577, Note_on_c, 0, 58, 0
1, 56588, Note_on_c, 0, 58, 94
1, 56588, Note_on_c, 0, 34, 84
1, 56754, Control_c, 0, 64, 127
1, 56812, Note_on_c, 0, 58, 0
1, 56834, Note_on_c, 0, 61, 54
1, 56834, Note_on_c, 0, 53, 56
1, 56836, Note_on_c, 0, 59, 53
1, 56837, Control_c, 0, 64, 0
1, 56838, Note_on_c, 0, 43, 48
1, 56858, Note_on_c, 0, 34, 0
1, 56995, Control_c, 0, 64, 127
1, 57074, Note_on_c, 0, 53, 0
1, 57098, Note_on_c, 0, 59, 0
1, 57102, Note_on_c, 0, 61, 0
1, 57122, Control_c, 0, 64, 0
1, 57122, Note_on_c, 0, 61, 35
1, 57124, Note_on_c, 0, 58, 33
1, 57125, Note_on_c, 0, 43, 0
1, 57126, Note_on_c, 0, 36, 42
1, 57126, Note_on_c, 0, 52, 31
1, 57164, Control_c, 0, 64, 127
1, 57221, Note_on_c, 0, 52, 0
1, 57233, Note_on_c, 0, 36, 0
1, 57246, Note_on_c, 0, 58, 0
1, 57250, Note_on_c, 0, 61, 0
1, 57318, Control_c, 0, 64, 0
1, 57322, Note_on_c, 0, 41, 36
1, 57323, Note_on_c, 0, 57, 44
1, 57324, Note_on_c, 0, 29, 31
1, 57325, Note_on_c, 0, 63, 25
1, 57325, Note_on_c, 0, 65, 41
1, 57331, Note_on_c, 0, 60, 34
1, 57375, Control_c, 0, 64, 127
1, 57424, Note_on_c, 0, 41, 0
1, 57435, Note_on_c, 0, 29, 0
1, 57482, Note_on_c, 0, 57, 0
1, 57486, Control_c, 0, 64, 0
1, 57489, Note_on_c, 0, 33, 52
1, 57496, Note_on_c, 0, 21, 58
1, 57512, Control_c, 0, 64, 127
1, 57539, Note_on_c, 0, 21, 0
1, 57542, Note_on_c, 0, 33, 0
1, 57561, Note_on_c, 0, 60, 0
1, 57566, Note_on_c, 0, 34, 77
1, 57568, Note_on_c, 0, 22, 77
1, 57572, Note_on_c, 0, 65, 0
1, 57576, Note_on_c, 0, 63, 0
1, 57579, Control_c, 0, 64, 0
1, 57601, Note_on_c, 0, 22, 0
1, 57608, Note_on_c, 0, 34, 0
1, 57690, Note_on_c, 0, 82, 79
1, 57691, Note_on_c, 0, 70, 77
1, 57736, Control_c, 0, 64, 127
1, 57793, Note_on_c, 0, 82, 0
1, 57802, Note_on_c, 0, 70, 0
1, 57842, Note_on_c, 0, 38, 37
1, 57843, Control_c, 0, 64, 0
1, 57845, Note_on_c, 0, 80, 33
1, 57846, Note_on_c, 0, 26, 28
1, 57851, Note_on_c, 0, 68, 29
1, 57870, Note_on_c, 0, 80, 0
1, 57881, Note_on_c, 0, 68, 0
1, 57962, Note_on_c, 0, 77, 47
1, 57966, Note_on_c, 0, 65, 46
1, 57983, Note_on_c, 0, 77, 0
1, 57992, Note_on_c, 0, 65, 0
1, 58046, Note_on_c, 0, 26, 0
1, 58049, Note_on_c, 0, 38, 0
1, 58051, Note_on_c, 0, 30, 44
1, 58056, Control_c, 0, 64, 127
1, 58062, Control_c, 0, 64, 0
1, 58068, Note_on_c, 0, 30, 0
1, 58078, Note_on_c, 0, 39, 52
1, 58081, Note_on_c, 0, 75, 50
1, 58081, Note_on_c, 0, 61, 50
1, 58083, Note_on_c, 0, 27, 34
1, 58126, Note_on_c, 0, 75, 0
1, 58132, Note_on_c, 0, 61, 0
1, 58193, Note_on_c, 0, 73, 50
1, 58193, Note_on_c, 0, 61, 48
1, 58217, Note_on_c, 0, 27, 0
1, 58232, Note_on_c, 0, 73, 0
1, 58258, Note_on_c, 0, 61, 0
1, 58272, Note_on_c, 0, 27, 32
1, 58284, Control_c, 0, 64, 127
1, 58294, Note_on_c, 0, 39, 0
1, 58298, Note_on_c, 0, 27, 0
1, 58298, Control_c, 0, 64, 0
1, 58310, Note_on_c, 0, 28, 33
1, 58310, Note_on_c, 0, 40, 43
1, 58311, Note_on_c, 0, 70, 49
1, 58316, Note_on_c, 0, 58, 38
1, 58370, Note_on_c, 0, 70, 0
1, 58372, Note_on_c, 0, 58, 0
1, 58393, Note_on_c, 0, 70, 40
1, 58394, Note_on_c, 0, 58, 43
1, 58399, Note_on_c, 0, 63, 21
1, 58411, Note_on_c, 0, 58, 0
1, 58413, Note_on_c, 0, 63, 0
1, 58417, Note_on_c, 0, 70, 0
1, 58433, Control_c, 0, 64, 127
1, 58469, Note_on_c, 0, 28, 0
1, 58477, Note_on_c, 0, 40, 0
1, 58503, Note_on_c, 0, 70, 55
1, 58510, Note_on_c, 0, 60, 37
1, 58510, Note_on_c, 0, 41, 54
1, 58510, Note_on_c, 0, 65, 49
1, 58512, Note_on_c, 0, 29, 35
1, 58516, Note_on_c, 0, 60, 0
1, 58517, Note_on_c, 0, 65, 0
1, 58527, Note_on_c, 0, 29, 0
1, 58529, Control_c, 0, 64, 0
1, 58531, Note_on_c, 0, 41, 0
1, 58533, Note_on_c, 0, 70, 0
1, 58635, Note_on_c, 0, 58, 36
1, 58638, Note_on_c, 0, 82, 33
1, 58660, Note_on_c, 0, 82, 0
1, 58666, Note_on_c, 0, 58, 0
1, 58675, Note_on_c, 0, 61, 46
1, 58677, Note_on_c, 0, 85, 47
1, 58736, Note_on_c, 0, 85, 0
1, 58751, Note_on_c, 0, 61, 0
1, 58751, Note_on_c, 0, 63, 76
1, 58752, Note_on_c, 0, 87, 74
1, 58850, Control_c, 0, 64, 127
1, 58906, Control_c, 0, 64, 0
1, 58908, Note_on_c, 0, 63, 0
1, 58909, Note_on_c, 0, 61, 52
1, 58915, Note_on_c, 0, 85, 48
1, 58916, Note_on_c, 0, 87, 0
1, 58918, Note_on_c, 0, 61, 0
1, 58922, Note_on_c, 0, 85, 0
1, 58928, Control_c, 0, 64, 127
1, 58984, Control_c, 0, 64, 0
1, 58989, Note_on_c, 0, 46, 67
1, 58991, Note_on_c, 0, 34, 64
1, 59006, Note_on_c, 0, 34, 0
1, 59006, Note_on_c, 0, 46, 0
1, 59108, Note_on_c, 0, 58, 32
1, 59128, Note_on_c, 0, 58, 0
1, 59149, Note_on_c, 0, 61, 47
1, 59210, Note_on_c, 0, 61, 0
1, 59223, Note_on_c, 0, 51, 52
1, 59224, Note_on_c, 0, 63, 62
1, 59288, Note_on_c, 0, 51, 0
1, 59290, Control_c, 0, 64, 127
1, 59354, Note_on_c, 0, 37, 37
1, 59363, Note_on_c, 0, 37, 0
1, 59377, Note_on_c, 0, 63, 0
1, 59385, Control_c, 0, 64, 0
1, 59394, Note_on_c, 0, 38, 46
1, 59397, Note_on_c, 0, 66, 36
1, 59398, Note_on_c, 0, 57, 32
1, 59401, Note_on_c, 0, 61, 30
1, 59413, Control_c, 0, 64, 127
1, 59416, Note_on_c, 0, 57, 0
1, 59441, Note_on_c, 0, 38, 0
1, 59447, Note_on_c, 0, 66, 0
1, 59450, Note_on_c, 0, 61, 0
1, 59470, Note_on_c, 0, 27, 59
1, 59471, Note_on_c, 0, 39, 72
1, 59472, Note_on_c, 0, 61, 38
1, 59473, Control_c, 0, 64, 0
1, 59476, Note_on_c, 0, 55, 35
1, 59483, Note_on_c, 0, 55, 0
1, 59487, Note_on_c, 0, 39, 0
1, 59489, Note_on_c, 0, 61, 0
1, 59489, Note_on_c, 0, 27, 0
1, 59590, Note_on_c, 0, 70, 74
1, 59590, Note_on_c, 0, 64, 79
1, 59591, Note_on_c, 0, 61, 71
1, 59591, Note_on_c, 0, 67, 68
1, 59632, Control_c, 0, 64, 127
1, 59701, Note_on_c, 0, 67, 0
1, 59703, Note_on_c, 0, 64, 0
1, 59729, Note_on_c, 0, 61, 0
1, 59736, Note_on_c, 0, 70, 0
1, 59748, Control_c, 0, 64, 0
1, 59754, Note_on_c, 0, 68, 42
1, 59758, Note_on_c, 0, 63, 37
1, 59758, Note_on_c, 0, 60, 45
1, 59769, Note_on_c, 0, 60, 0
1, 59770, Note_on_c, 0, 68, 0
1, 59777, Note_on_c, 0, 63, 0
1, 59872, Note_on_c, 0, 56, 43
1, 59873, Note_on_c, 0, 65, 50
1, 59875, Note_on_c, 0, 62, 42
1, 59876, Note_on_c, 0, 59, 46
1, 59880, Note_on_c, 0, 65, 0
1, 59883, Note_on_c, 0, 59, 0
1, 59883, Note_on_c, 0, 62, 0
1, 59885, Note_on_c, 0, 56, 0
1, 59994, Note_on_c, 0, 64, 57
1, 59998, Note_on_c, 0, 58, 39
1, 59999, Note_on_c, 0, 49, 31
1, 60000, Note_on_c, 0, 61, 36
1, 60008, Note_on_c, 0, 61, 0
1, 60008, Note_on_c, 0, 64, 0
1, 60009, Note_on_c, 0, 58, 0
1, 60012, Note_on_c, 0, 49, 0
1, 60116, Note_on_c, 0, 58, 51
1, 60118, Note_on_c, 0, 49, 45
1, 60118, Note_on_c, 0, 55, 47
1, 60119, Note_on_c, 0, 63, 51
1, 60121, Note_on_c, 0, 52, 38
1, 60183, Control_c, 0, 64, 127
1, 60209, Note_on_c, 0, 55, 0
1, 60214, Note_on_c, 0, 52, 0
1, 60220, Note_on_c, 0, 63, 0
1, 60228, Note_on_c, 0, 58, 0
1, 60229, Control_c, 0, 64, 0
1, 60240, Note_on_c, 0, 52, 36
1, 60241, Note_on_c, 0, 49, 0
1, 60241, Note_on_c, 0, 46, 47
1, 60242, Note_on_c, 0, 58, 20
1, 60243, Note_on_c, 0, 61, 33
1, 60245, Note_on_c, 0, 55, 33
1, 60260, Control_c, 0, 64, 127
1, 60286, Note_on_c, 0, 58, 0
1, 60290, Note_on_c, 0, 55, 0
1, 60293, Note_on_c, 0, 52, 0
1, 60308, Note_on_c, 0, 61, 0
1, 60318, Note_on_c, 0, 58, 49
1, 60319, Note_on_c, 0, 46, 0
1, 60326, Note_on_c, 0, 43, 33
1, 60340, Note_on_c, 0, 43, 0
1, 60348, Control_c, 0, 64, 0
1, 60358, Control_c, 0, 64, 127
1, 60360, Note_on_c, 0, 52, 34
1, 60400, Note_on_c, 0, 52, 0
1, 60402, Note_on_c, 0, 58, 0
1, 60435, Note_on_c, 0, 58, 64
1, 60437, Note_on_c, 0, 34, 67
1, 60437, Note_on_c, 0, 50, 57
1, 60438, Control_c, 0, 64, 0
1, 60439, Note_on_c, 0, 53, 64
1, 60477, Note_on_c, 0, 50, 0
1, 60496, Note_on_c, 0, 53, 0
1, 60498, Control_c, 0, 64, 127
1, 60514, Note_on_c, 0, 58, 0
1, 60547, Note_on_c, 0, 34, 0
1, 60562, Note_on_c, 0, 56, 39
1, 60580, Note_on_c, 0, 56, 0
1, 60585, Control_c, 0, 64, 0
1, 60600, Note_on_c, 0, 37, 48
1, 60676, Note_on_c, 0, 39, 74
1, 60678, Note_on_c, 0, 37, 0
1, 60678, Note_on_c, 0, 63, 75
1, 60812, Note_on_c, 0, 39, 0
1, 60812, Note_on_c, 0, 37, 44
1, 60818, Note_on_c, 0, 37, 0
1, 60832, Note_on_c, 0, 63, 0
1, 60842, Note_on_c, 0, 27, 75
1, 60843, Note_on_c, 0, 39, 64
1, 60845, Note_on_c, 0, 61, 57
1, 60848, Note_on_c, 0, 37, 31
1, 60855, Note_on_c, 0, 37, 0
1, 60882, Control_c, 0, 64, 127
1, 60901, Note_on_c, 0, 39, 0
1, 60906, Note_on_c, 0, 27, 0
1, 60917, Control_c, 0, 64, 0
1, 60924, Note_on_c, 0, 26, 79
1, 60924, Note_on_c, 0, 38, 80
1, 60963, Note_on_c, 0, 26, 0
1, 60985, Note_on_c, 0, 38, 0
1, 60998, Note_on_c, 0, 61, 0
1, 61009, Control_c, 0, 64, 127
1, 61050, Note_on_c, 0, 56, 44
1, 61057, Note_on_c, 0, 44, 40
1, 61058, Note_on_c, 0, 32, 42
1, 61060, Control_c, 0, 64, 0
1, 61070, Note_on_c, 0, 56, 0
1, 61149, Note_on_c, 0, 44, 0
1, 61149, Note_on_c, 0, 38, 39
1, 61158, Note_on_c, 0, 32, 0
1, 61161, Note_on_c, 0, 62, 63
1, 61162, Note_on_c, 0, 38, 0
1, 61165, Note_on_c, 0, 59, 57
1, 61166, Note_on_c, 0, 53, 53
1, 61167, Note_on_c, 0, 43, 45
1, 61168, Note_on_c, 0, 31, 53
1, 61280, Note_on_c, 0, 53, 0
1, 61280, Note_on_c, 0, 38, 43
1, 61284, Note_on_c, 0, 43, 0
1, 61285, Note_on_c, 0, 31, 0
1, 61290, Note_on_c, 0, 59, 0
1, 61293, Note_on_c, 0, 62, 0
1, 61301, Note_on_c, 0, 38, 0
1, 61314, Note_on_c, 0, 35, 41
1, 61317, Note_on_c, 0, 53, 43
1, 61320, Note_on_c, 0, 63, 34
1, 61321, Note_on_c, 0, 59, 26
1, 61348, Note_on_c, 0, 53, 0
1, 61349, Note_on_c, 0, 59, 0
1, 61357, Control_c, 0, 64, 127
1, 61368, Note_on_c, 0, 63, 0
1, 61395, Note_on_c, 0, 35, 0
1, 61395, Note_on_c, 0, 63, 56
1, 61396, Note_on_c, 0, 58, 67
1, 61400, Control_c, 0, 64, 0
1, 61400, Note_on_c, 0, 36, 67
1, 61411, Note_on_c, 0, 58, 0
1, 61416, Note_on_c, 0, 63, 0
1, 61420, Note_on_c, 0, 36, 0
1, 61506, Note_on_c, 0, 36, 88
1, 61508, Note_on_c, 0, 24, 76
1, 61511, Note_on_c, 0, 70, 62
1, 61511, Note_on_c, 0, 67, 50
1, 61512, Note_on_c, 0, 63, 64
1, 61512, Note_on_c, 0, 58, 76
1, 61513, Note_on_c, 0, 30, 33
1, 61522, Note_on_c, 0, 30, 0
1, 61527, Note_on_c, 0, 24, 0
1, 61536, Note_on_c, 0, 36, 0
1, 61556, Note_on_c, 0, 38, 69
1, 61558, Note_on_c, 0, 26, 48
1, 61593, Note_on_c, 0, 67, 0
1, 61629, Control_c, 0, 64, 127
1, 61630, Note_on_c, 0, 70, 0
1, 61651, Note_on_c, 0, 63, 0
1, 61651, Note_on_c, 0, 58, 0
1, 61651, Note_on_c, 0, 26, 0
1, 61651, Note_on_c, 0, 32, 44
1, 61656, Note_on_c, 0, 30, 34
1, 61657, Note_on_c, 0, 38, 0
1, 61665, Note_on_c, 0, 30, 0
1, 61667, Control_c, 0, 64, 0
1, 61673, Note_on_c, 0, 32, 0
1, 61679, Note_on_c, 0, 68, 45
1, 61681, Note_on_c, 0, 39, 58
1, 61681, Note_on_c, 0, 56, 39
1, 61682, Note_on_c, 0, 63, 44
1, 61684, Note_on_c, 0, 27, 44
1, 61711, Note_on_c, 0, 68, 0
1, 61716, Note_on_c, 0, 63, 0
1, 61736, Note_on_c, 0, 56, 0
1, 61754, Note_on_c, 0, 39, 0
1, 61754, Note_on_c, 0, 27, 0
1, 61797, Note_on_c, 0, 40, 46
1, 61798, Note_on_c, 0, 65, 45
1, 61800, Note_on_c, 0, 60, 51
1, 61800, Note_on_c, 0, 28, 36
1, 61804, Note_on_c, 0, 53, 20
1, 61822, Note_on_c, 0, 53, 0
1, 61829, Note_on_c, 0, 60, 0
1, 61831, Note_on_c, 0, 65, 0
1, 61849, Note_on_c, 0, 28, 0
1, 61883, Note_on_c, 0, 40, 0
1, 61920, Note_on_c, 0, 63, 39
1, 61921, Note_on_c, 0, 29, 37
1, 61922, Note_on_c, 0, 41, 43
1, 61926, Note_on_c, 0, 60, 48
1, 61926, Note_on_c, 0, 55, 33
1, 61928, Note_on_c, 0, 58, 40
1, 61936, Note_on_c, 0, 55, 0
1, 61936, Note_on_c, 0, 60, 0
1, 61938, Note_on_c, 0, 58, 0
1, 61945, Note_on_c, 0, 29, 0
1, 61946, Note_on_c, 0, 63, 0
1, 61976, Note_on_c, 0, 41, 0
1, 62040, Note_on_c, 0, 61, 48
1, 62042, Note_on_c, 0, 41, 41
1, 62042, Note_on_c, 0, 58, 46
1, 62043, Note_on_c, 0, 29, 35
1, 62044, Note_on_c, 0, 55, 50
1, 62068, Note_on_c, 0, 55, 0
1, 62074, Note_on_c, 0, 58, 0
1, 62076, Note_on_c, 0, 29, 0
1, 62076, Note_on_c, 0, 61, 0
1, 62086, Note_on_c, 0, 41, 0
1, 62127, Note_on_c, 0, 36, 27
1, 62145, Note_on_c, 0, 36, 0
1, 62160, Note_on_c, 0, 29, 38
1, 62162, Note_on_c, 0, 58, 38
1, 62163, Note_on_c, 0, 41, 36
1, 62169, Note_on_c, 0, 52, 32
1, 62211, Note_on_c, 0, 52, 0
1, 62215, Note_on_c, 0, 41, 0
1, 62219, Note_on_c, 0, 58, 0
1, 62220, Note_on_c, 0, 29, 0
1, 62240, Note_on_c, 0, 58, 38
1, 62245, Note_on_c, 0, 41, 37
1, 62245, Note_on_c, 0, 29, 35
1, 62245, Note_on_c, 0, 52, 58
1, 62248, Note_on_c, 0, 55, 34
1, 62256, Note_on_c, 0, 41, 0
1, 62261, Note_on_c, 0, 58, 0
1, 62264, Note_on_c, 0, 29, 0
1, 62265, Note_on_c, 0, 52, 0
1, 62269, Note_on_c, 0, 55, 0
1, 62281, Note_on_c, 0, 29, 14
1, 62282, Control_c, 0, 64, 127
1, 62282, Note_on_c, 0, 41, 25
1, 62290, Note_on_c, 0, 41, 0
1, 62290, Note_on_c, 0, 58, 25
1, 62302, Note_on_c, 0, 29, 0
1, 62311, Note_on_c, 0, 58, 0
1, 62359, Note_on_c, 0, 34, 62
1, 62362, Note_on_c, 0, 22, 51
1, 62362, Note_on_c, 0, 58, 62
1, 62365, Control_c, 0, 64, 0
1, 62367, Note_on_c, 0, 53, 66
1, 62368, Note_on_c, 0, 48, 55
1, 62376, Note_on_c, 0, 48, 0
1, 62386, Note_on_c, 0, 53, 0
1, 62390, Note_on_c, 0, 58, 0
1, 62404, Note_on_c, 0, 34, 0
1, 62410, Note_on_c, 0, 22, 0
1, 62527, Control_c, 0, 64, 127
1, 62650, Control_c, 0, 64, 0
1, 62650, Note_on_c, 0, 85, 72
1, 62650, Note_on_c, 0, 73, 63
1, 62655, Note_on_c, 0, 64, 62
1, 62656, Note_on_c, 0, 59, 62
1, 62657, Note_on_c, 0, 53, 58
1, 62685, Note_on_c, 0, 64, 0
1, 62685, Note_on_c, 0, 73, 0
1, 62690, Note_on_c, 0, 59, 0
1, 62691, Note_on_c, 0, 85, 0
1, 62692, Note_on_c, 0, 53, 0
1, 62781, Control_c, 0, 64, 127
1, 62870, Control_c, 0, 64, 0
1, 62884, Note_on_c, 0, 63, 42
1, 62886, Note_on_c, 0, 84, 45
1, 62889, Note_on_c, 0, 72, 29
1, 62891, Note_on_c, 0, 52, 34
1, 62892, Note_on_c, 0, 58, 37
1, 62910, Control_c, 0, 64, 127
1, 62990, Note_on_c, 0, 52, 0
1, 63004, Note_on_c, 0, 58, 0
1, 63006, Note_on_c, 0, 63, 0
1, 63015, Note_on_c, 0, 84, 0
1, 63022, Note_on_c, 0, 72, 0
1, 63197, Control_c, 0, 64, 0
1, 63197, Note_on_c, 0, 68, 47
1, 63197, Note_on_c, 0, 83, 55
1, 63198, Note_on_c, 0, 57, 39
1, 63199, Note_on_c, 0, 71, 40
1, 63200, Note_on_c, 0, 61, 35
1, 63203, Note_on_c, 0, 63, 26
1, 63229, Control_c, 0, 64, 127
1, 63282, Note_on_c, 0, 57, 0
1, 63283, Note_on_c, 0, 83, 0
1, 63290, Note_on_c, 0, 68, 0
1, 63300, Note_on_c, 0, 71, 0
1, 63316, Note_on_c, 0, 63, 0
1, 63319, Note_on_c, 0, 61, 0
1, 63355, Control_c, 0, 64, 0
1, 63358, Note_on_c, 0, 82, 40
1, 63359, Note_on_c, 0, 56, 32
1, 63360, Note_on_c, 0, 67, 26
1, 63362, Note_on_c, 0, 62, 35
1, 63363, Note_on_c, 0, 70, 29
1, 63383, Note_on_c, 0, 67, 0
1, 63391, Note_on_c, 0, 62, 0
1, 63391, Note_on_c, 0, 70, 0
1, 63405, Note_on_c, 0, 82, 0
1, 63420, Note_on_c, 0, 56, 0
1, 63470, Control_c, 0, 64, 127
1, 63553, Note_on_c, 0, 59, 39
1, 63554, Note_on_c, 0, 85, 44
1, 63554, Note_on_c, 0, 53, 33
1, 63555, Note_on_c, 0, 73, 33
1, 63555, Note_on_c, 0, 64, 30
1, 63556, Control_c, 0, 64, 0
1, 63658, Control_c, 0, 64, 127
1, 63703, Note_on_c, 0, 64, 0
1, 63708, Note_on_c, 0, 53, 0
1, 63708, Note_on_c, 0, 59, 0
1, 63716, Note_on_c, 0, 85, 0
1, 63721, Note_on_c, 0, 73, 0
1, 63818, Control_c, 0, 64, 0
1, 63828, Note_on_c, 0, 84, 40
1, 63828, Note_on_c, 0, 63, 37
1, 63831, Note_on_c, 0, 52, 31
1, 63832, Note_on_c, 0, 72, 29
1, 63834, Note_on_c, 0, 58, 37
1, 63866, Control_c, 0, 64, 127
1, 63949, Note_on_c, 0, 52, 0
1, 63961, Note_on_c, 0, 58, 0
1, 63972, Note_on_c, 0, 63, 0
1, 63987, Note_on_c, 0, 84, 0
1, 63998, Note_on_c, 0, 72, 0
1, 64075, Control_c, 0, 64, 0
1, 64075, Note_on_c, 0, 57, 53
1, 64076, Note_on_c, 0, 67, 47
1, 64077, Note_on_c, 0, 83, 41
1, 64077, Note_on_c, 0, 63, 42
1, 64078, Note_on_c, 0, 71, 42
1, 64139, Control_c, 0, 64, 127
1, 64178, Note_on_c, 0, 67, 0
1, 64184, Note_on_c, 0, 57, 0
1, 64184, Note_on_c, 0, 83, 0
1, 64190, Note_on_c, 0, 71, 0
1, 64202, Note_on_c, 0, 63, 0
1, 64266, Control_c, 0, 64, 0
1, 64267, Note_on_c, 0, 67, 36
1, 64267, Note_on_c, 0, 82, 46
1, 64267, Note_on_c, 0, 62, 39
1, 64269, Note_on_c, 0, 56, 34
1, 64270, Note_on_c, 0, 70, 35
1, 64354, Control_c, 0, 64, 127
1, 64416, Note_on_c, 0, 67, 0
1, 64419, Note_on_c, 0, 70, 0
1, 64421, Note_on_c, 0, 62, 0
1, 64438, Note_on_c, 0, 82, 0
1, 64439, Note_on_c, 0, 56, 0
1, 64552, Control_c, 0, 64, 0
1, 64552, Note_on_c, 0, 97, 67
1, 64553, Note_on_c, 0, 85, 59
1, 64554, Note_on_c, 0, 59, 47
1, 64556, Note_on_c, 0, 64, 48
1, 64556, Note_on_c, 0, 53, 53
1, 64632, Control_c, 0, 64, 127
1, 64679, Note_on_c, 0, 64, 0
1, 64689, Note_on_c, 0, 59, 0
1, 64692, Note_on_c, 0, 53, 0
1, 64717, Note_on_c, 0, 85, 0
1, 64742, Note_on_c, 0, 97, 0
1, 64797, Control_c, 0, 64, 0
1, 64800, Note_on_c, 0, 63, 46
1, 64802, Note_on_c, 0, 96, 50
1, 64803, Note_on_c, 0, 84, 36
1, 64803, Note_on_c, 0, 52, 43
1, 64809, Note_on_c, 0, 58, 35
1, 64833, Control_c, 0, 64, 127
1, 64856, Note_on_c, 0, 52, 0
1, 64870, Note_on_c, 0, 58, 0
1, 64876, Note_on_c, 0, 63, 0
1, 64896, Note_on_c, 0, 96, 0
1, 64913, Note_on_c, 0, 84, 0
1, 65038, Control_c, 0, 64, 0
1, 65044, Note_on_c, 0, 95, 58
1, 65046, Note_on_c, 0, 68, 55
1, 65049, Note_on_c, 0, 57, 45
1, 65049, Note_on_c, 0, 83, 33
1, 65050, Note_on_c, 0, 63, 35
1, 65064, Control_c, 0, 64, 127
1, 65089, Note_on_c, 0, 57, 0
1, 65091, Note_on_c, 0, 68, 0
1, 65093, Note_on_c, 0, 63, 0
1, 65148, Note_on_c, 0, 95, 0
1, 65154, Note_on_c, 0, 83, 0
1, 65236, Note_on_c, 0, 94, 87
1, 65236, Note_on_c, 0, 56, 88
1, 65236, Note_on_c, 0, 62, 94
1, 65236, Note_on_c, 0, 67, 96
1, 65236, Note_on_c, 0, 82, 92
1, 65238, Control_c, 0, 64, 0
1, 65250, Note_on_c, 0, 82, 0
1, 65262, Note_on_c, 0, 94, 0
1, 65270, Note_on_c, 0, 67, 0
1, 65272, Note_on_c, 0, 62, 0
1, 65276, Note_on_c, 0, 56, 0
1, 65276, End_track
0, 0, End_of_file
