0, 0, Header, 1, 9, 120
1, 0, Start_track
1, 0, Title_t, "Soon"
1, 0, Copyright_t, "Copyright © 1997 by Doug McKenzie"
1, 0, Text_t, "Doug McKenzie\012"
1, 0, Time_signature, 4, 2, 24, 8
1, 0, Key_signature, 0, "major"
1, 0, Tempo, 983607
1, 0, End_track
2, 0, Start_track
2, 0, MIDI_port, 0
2, 0, Program_c, 0, 0
2, 8, Note_on_c, 0, 82, 81
2, 8, Note_on_c, 0, 39, 58
2, 9, Note_on_c, 0, 46, 52
2, 13, Control_c, 0, 64, 127
2, 26, Note_on_c, 0, 46, 0
2, 26, Note_on_c, 0, 39, 0
2, 127, Note_on_c, 0, 65, 32
2, 129, Note_on_c, 0, 61, 34
2, 131, Note_on_c, 0, 60, 30
2, 132, Note_on_c, 0, 55, 38
2, 136, Note_on_c, 0, 82, 0
2, 185, Note_on_c, 0, 65, 0
2, 189, Note_on_c, 0, 60, 0
2, 191, Note_on_c, 0, 61, 0
2, 192, Note_on_c, 0, 55, 0
2, 195, Note_on_c, 0, 84, 110
2, 232, Note_on_c, 0, 84, 0
2, 235, Note_on_c, 0, 78, 87
2, 243, Control_c, 0, 64, 0
2, 255, Note_on_c, 0, 45, 52
2, 264, Control_c, 0, 64, 127
2, 284, Note_on_c, 0, 45, 0
2, 364, Note_on_c, 0, 61, 35
2, 365, Note_on_c, 0, 65, 35
2, 367, Note_on_c, 0, 60, 17
2, 368, Note_on_c, 0, 55, 26
2, 395, Note_on_c, 0, 65, 0
2, 396, Note_on_c, 0, 60, 0
2, 401, Note_on_c, 0, 61, 0
2, 404, Note_on_c, 0, 55, 0
2, 485, Note_on_c, 0, 44, 57
2, 485, Control_c, 0, 64, 0
2, 499, Control_c, 0, 64, 127
2, 511, Note_on_c, 0, 78, 0
2, 518, Note_on_c, 0, 44, 0
2, 608, Note_on_c, 0, 63, 53
2, 610, Note_on_c, 0, 54, 47
2, 611, Note_on_c, 0, 59, 52
2, 611, Note_on_c, 0, 58, 35
2, 613, Control_c, 0, 64, 0
2, 627, Control_c, 0, 64, 127
2, 650, Note_on_c, 0, 85, 88
2, 650, Note_on_c, 0, 73, 87
2, 652, Control_c, 0, 64, 0
2, 667, Control_c, 0, 64, 127
2, 683, Note_on_c, 0, 73, 0
2, 684, Note_on_c, 0, 85, 0
2, 686, Note_on_c, 0, 59, 0
2, 689, Note_on_c, 0, 63, 0
2, 696, Note_on_c, 0, 58, 0
2, 696, Note_on_c, 0, 82, 50
2, 697, Note_on_c, 0, 54, 0
2, 704, Note_on_c, 0, 82, 0
2, 715, Note_on_c, 0, 85, 77
2, 717, Note_on_c, 0, 73, 75
2, 723, Note_on_c, 0, 85, 0
2, 724, Note_on_c, 0, 73, 0
2, 734, Control_c, 0, 64, 0
2, 737, Note_on_c, 0, 63, 43
2, 737, Note_on_c, 0, 68, 74
2, 737, Note_on_c, 0, 80, 64
2, 737, Note_on_c, 0, 58, 35
2, 738, Note_on_c, 0, 53, 51
2, 738, Note_on_c, 0, 59, 41
2, 756, Control_c, 0, 64, 127
2, 789, Note_on_c, 0, 59, 0
2, 791, Note_on_c, 0, 80, 0
2, 793, Note_on_c, 0, 63, 0
2, 794, Note_on_c, 0, 53, 0
2, 796, Note_on_c, 0, 58, 0
2, 797, Note_on_c, 0, 68, 0
2, 843, Control_c, 0, 64, 0
2, 847, Note_on_c, 0, 79, 58
2, 847, Note_on_c, 0, 73, 53
2, 847, Note_on_c, 0, 58, 34
2, 848, Note_on_c, 0, 52, 46
2, 848, Note_on_c, 0, 62, 37
2, 848, Note_on_c, 0, 67, 44
2, 855, Control_c, 0, 64, 127
2, 862, Note_on_c, 0, 79, 0
2, 869, Note_on_c, 0, 73, 0
2, 877, Note_on_c, 0, 67, 0
2, 879, Note_on_c, 0, 62, 0
2, 889, Note_on_c, 0, 58, 0
2, 896, Note_on_c, 0, 52, 0
2, 948, Note_on_c, 0, 48, 36
2, 949, Note_on_c, 0, 60, 43
2, 954, Note_on_c, 0, 60, 0
2, 961, Note_on_c, 0, 48, 0
2, 965, Note_on_c, 0, 60, 70
2, 966, Control_c, 0, 64, 0
2, 967, Note_on_c, 0, 68, 76
2, 968, Note_on_c, 0, 41, 62
2, 970, Note_on_c, 0, 56, 36
2, 971, Note_on_c, 0, 51, 31
2, 994, Control_c, 0, 64, 127
2, 1013, Note_on_c, 0, 41, 0
2, 1023, Note_on_c, 0, 51, 0
2, 1023, Note_on_c, 0, 60, 0
2, 1028, Note_on_c, 0, 56, 0
2, 1086, Note_on_c, 0, 56, 39
2, 1086, Note_on_c, 0, 60, 53
2, 1183, Note_on_c, 0, 56, 0
2, 1187, Note_on_c, 0, 60, 0
2, 1201, Note_on_c, 0, 68, 0
2, 1206, Note_on_c, 0, 56, 32
2, 1206, Note_on_c, 0, 52, 43
2, 1207, Note_on_c, 0, 64, 44
2, 1207, Note_on_c, 0, 60, 46
2, 1208, Control_c, 0, 64, 0
2, 1232, Control_c, 0, 64, 127
2, 1273, Note_on_c, 0, 60, 0
2, 1283, Note_on_c, 0, 56, 0
2, 1290, Note_on_c, 0, 64, 0
2, 1330, Note_on_c, 0, 55, 39
2, 1332, Note_on_c, 0, 52, 0
2, 1360, Note_on_c, 0, 55, 0
2, 1365, Note_on_c, 0, 65, 68
2, 1390, Note_on_c, 0, 65, 0
2, 1407, Note_on_c, 0, 68, 61
2, 1414, Note_on_c, 0, 68, 0
2, 1426, Note_on_c, 0, 70, 86
2, 1437, Note_on_c, 0, 70, 0
2, 1445, Note_on_c, 0, 70, 67
2, 1447, Note_on_c, 0, 63, 51
2, 1448, Note_on_c, 0, 54, 55
2, 1448, Note_on_c, 0, 59, 62
2, 1449, Note_on_c, 0, 58, 46
2, 1449, Note_on_c, 0, 71, 73
2, 1449, Control_c, 0, 64, 0
2, 1456, Note_on_c, 0, 70, 0
2, 1489, Control_c, 0, 64, 127
2, 1518, Note_on_c, 0, 63, 0
2, 1524, Note_on_c, 0, 59, 0
2, 1525, Note_on_c, 0, 58, 0
2, 1568, Note_on_c, 0, 63, 28
2, 1569, Note_on_c, 0, 58, 25
2, 1571, Note_on_c, 0, 59, 34
2, 1590, Note_on_c, 0, 71, 0
2, 1608, Note_on_c, 0, 68, 43
2, 1617, Note_on_c, 0, 59, 0
2, 1622, Note_on_c, 0, 68, 0
2, 1628, Note_on_c, 0, 58, 0
2, 1630, Note_on_c, 0, 71, 43
2, 1631, Note_on_c, 0, 63, 0
2, 1631, Note_on_c, 0, 54, 0
2, 1635, Note_on_c, 0, 71, 0
2, 1667, Note_on_c, 0, 66, 49
2, 1668, Note_on_c, 0, 62, 52
2, 1668, Note_on_c, 0, 78, 69
2, 1668, Note_on_c, 0, 90, 72
2, 1670, Control_c, 0, 64, 0
2, 1672, Note_on_c, 0, 62, 0
2, 1672, Note_on_c, 0, 66, 0
2, 1675, Note_on_c, 0, 78, 0
2, 1676, Note_on_c, 0, 90, 0
2, 1710, Control_c, 0, 64, 127
2, 1727, Note_on_c, 0, 87, 72
2, 1728, Note_on_c, 0, 75, 62
2, 1729, Note_on_c, 0, 62, 46
2, 1730, Note_on_c, 0, 66, 47
2, 1731, Note_on_c, 0, 56, 39
2, 1781, Note_on_c, 0, 87, 0
2, 1784, Note_on_c, 0, 56, 0
2, 1785, Note_on_c, 0, 66, 0
2, 1785, Note_on_c, 0, 62, 0
2, 1786, Note_on_c, 0, 75, 0
2, 1807, Note_on_c, 0, 66, 39
2, 1808, Note_on_c, 0, 85, 56
2, 1810, Note_on_c, 0, 62, 29
2, 1810, Note_on_c, 0, 56, 27
2, 1811, Note_on_c, 0, 73, 37
2, 1816, Note_on_c, 0, 62, 0
2, 1818, Note_on_c, 0, 66, 0
2, 1818, Note_on_c, 0, 85, 0
2, 1819, Note_on_c, 0, 56, 0
2, 1819, Note_on_c, 0, 73, 0
2, 1851, Note_on_c, 0, 66, 40
2, 1851, Note_on_c, 0, 68, 51
2, 1852, Note_on_c, 0, 80, 36
2, 1853, Note_on_c, 0, 62, 28
2, 1853, Control_c, 0, 64, 0
2, 1854, Note_on_c, 0, 56, 30
2, 1864, Control_c, 0, 64, 127
2, 1881, Note_on_c, 0, 62, 0
2, 1887, Note_on_c, 0, 66, 0
2, 1896, Note_on_c, 0, 68, 0
2, 1897, Note_on_c, 0, 80, 0
2, 1905, Note_on_c, 0, 56, 0
2, 1928, Control_c, 0, 64, 0
2, 1928, Note_on_c, 0, 67, 34
2, 1928, Note_on_c, 0, 79, 44
2, 1930, Note_on_c, 0, 62, 29
2, 1932, Note_on_c, 0, 55, 31
2, 1932, Note_on_c, 0, 60, 32
2, 1947, Control_c, 0, 64, 127
2, 1970, Note_on_c, 0, 79, 0
2, 2002, Note_on_c, 0, 60, 0
2, 2005, Note_on_c, 0, 67, 0
2, 2018, Note_on_c, 0, 62, 0
2, 2049, Note_on_c, 0, 65, 32
2, 2050, Note_on_c, 0, 62, 27
2, 2053, Note_on_c, 0, 60, 24
2, 2064, Note_on_c, 0, 65, 0
2, 2086, Note_on_c, 0, 67, 65
2, 2087, Note_on_c, 0, 60, 0
2, 2088, Note_on_c, 0, 62, 0
2, 2096, Note_on_c, 0, 55, 0
2, 2121, Note_on_c, 0, 68, 70
2, 2126, Note_on_c, 0, 67, 0
2, 2133, Note_on_c, 0, 68, 0
2, 2143, Note_on_c, 0, 70, 79
2, 2153, Note_on_c, 0, 70, 0
2, 2166, Note_on_c, 0, 61, 63
2, 2167, Note_on_c, 0, 75, 81
2, 2168, Note_on_c, 0, 65, 58
2, 2170, Note_on_c, 0, 60, 49
2, 2172, Control_c, 0, 64, 0
2, 2200, Control_c, 0, 64, 127
2, 2203, Note_on_c, 0, 60, 0
2, 2203, Note_on_c, 0, 75, 0
2, 2209, Note_on_c, 0, 58, 48
2, 2211, Note_on_c, 0, 75, 73
2, 2213, Control_c, 0, 64, 0
2, 2235, Control_c, 0, 64, 127
2, 2253, Note_on_c, 0, 65, 0
2, 2265, Note_on_c, 0, 58, 0
2, 2271, Note_on_c, 0, 75, 0
2, 2273, Note_on_c, 0, 61, 0
2, 2283, Note_on_c, 0, 75, 35
2, 2283, Note_on_c, 0, 61, 21
2, 2285, Control_c, 0, 64, 0
2, 2285, Note_on_c, 0, 64, 26
2, 2286, Note_on_c, 0, 67, 33
2, 2286, Note_on_c, 0, 57, 40
2, 2290, Note_on_c, 0, 71, 33
2, 2291, Note_on_c, 0, 72, 26
2, 2302, Control_c, 0, 64, 127
2, 2303, Note_on_c, 0, 72, 0
2, 2323, Note_on_c, 0, 64, 0
2, 2329, Note_on_c, 0, 61, 0
2, 2333, Note_on_c, 0, 57, 0
2, 2340, Note_on_c, 0, 71, 0
2, 2344, Note_on_c, 0, 75, 0
2, 2346, Note_on_c, 0, 67, 0
2, 2383, Note_on_c, 0, 52, 42
2, 2390, Note_on_c, 0, 52, 0
2, 2409, Control_c, 0, 64, 0
2, 2410, Note_on_c, 0, 63, 36
2, 2412, Note_on_c, 0, 51, 43
2, 2412, Note_on_c, 0, 60, 40
2, 2412, Note_on_c, 0, 44, 44
2, 2413, Note_on_c, 0, 58, 38
2, 2414, Note_on_c, 0, 53, 27
2, 2416, Note_on_c, 0, 55, 19
2, 2446, Control_c, 0, 64, 127
2, 2468, Note_on_c, 0, 55, 0
2, 2469, Note_on_c, 0, 53, 0
2, 2486, Note_on_c, 0, 60, 0
2, 2490, Note_on_c, 0, 51, 0
2, 2500, Note_on_c, 0, 58, 0
2, 2533, Note_on_c, 0, 63, 0
2, 2538, Note_on_c, 0, 60, 36
2, 2539, Note_on_c, 0, 58, 32
2, 2541, Note_on_c, 0, 51, 31
2, 2541, Note_on_c, 0, 55, 32
2, 2541, Note_on_c, 0, 53, 32
2, 2590, Note_on_c, 0, 53, 0
2, 2593, Note_on_c, 0, 55, 0
2, 2600, Note_on_c, 0, 60, 0
2, 2604, Note_on_c, 0, 58, 0
2, 2609, Note_on_c, 0, 44, 0
2, 2612, Note_on_c, 0, 51, 0
2, 2656, Note_on_c, 0, 70, 74
2, 2656, Note_on_c, 0, 63, 77
2, 2658, Note_on_c, 0, 65, 73
2, 2658, Control_c, 0, 64, 0
2, 2658, Note_on_c, 0, 59, 87
2, 2659, Note_on_c, 0, 58, 86
2, 2661, Note_on_c, 0, 68, 39
2, 2665, Note_on_c, 0, 68, 0
2, 2691, Control_c, 0, 64, 127
2, 2729, Note_on_c, 0, 59, 0
2, 2730, Note_on_c, 0, 65, 0
2, 2733, Note_on_c, 0, 63, 0
2, 2746, Note_on_c, 0, 70, 0
2, 2753, Note_on_c, 0, 58, 0
2, 2754, Note_on_c, 0, 59, 57
2, 2754, Note_on_c, 0, 63, 44
2, 2755, Note_on_c, 0, 68, 54
2, 2757, Note_on_c, 0, 56, 42
2, 2757, Note_on_c, 0, 65, 42
2, 2815, Note_on_c, 0, 56, 0
2, 2831, Note_on_c, 0, 56, 60
2, 2846, Note_on_c, 0, 68, 0
2, 2851, Note_on_c, 0, 65, 0
2, 2855, Note_on_c, 0, 56, 0
2, 2855, Note_on_c, 0, 59, 0
2, 2862, Note_on_c, 0, 63, 0
2, 2872, Note_on_c, 0, 46, 56
2, 2873, Note_on_c, 0, 58, 57
2, 2873, Note_on_c, 0, 67, 57
2, 2873, Note_on_c, 0, 63, 50
2, 2882, Control_c, 0, 64, 0
2, 2906, Control_c, 0, 64, 127
2, 2938, Note_on_c, 0, 58, 0
2, 2951, Note_on_c, 0, 58, 81
2, 3023, Note_on_c, 0, 58, 0
2, 3027, Note_on_c, 0, 67, 0
2, 3028, Note_on_c, 0, 63, 0
2, 3046, Note_on_c, 0, 58, 62
2, 3067, Note_on_c, 0, 63, 32
2, 3072, Note_on_c, 0, 63, 0
2, 3084, Note_on_c, 0, 46, 0
2, 3103, Note_on_c, 0, 46, 35
2, 3111, Note_on_c, 0, 58, 0
2, 3122, Note_on_c, 0, 46, 0
2, 3125, Note_on_c, 0, 63, 51
2, 3126, Note_on_c, 0, 59, 58
2, 3126, Note_on_c, 0, 70, 56
2, 3126, Note_on_c, 0, 58, 53
2, 3127, Note_on_c, 0, 65, 49
2, 3128, Control_c, 0, 64, 0
2, 3151, Control_c, 0, 64, 127
2, 3192, Note_on_c, 0, 65, 0
2, 3202, Note_on_c, 0, 59, 0
2, 3206, Note_on_c, 0, 63, 0
2, 3217, Note_on_c, 0, 70, 0
2, 3222, Note_on_c, 0, 68, 49
2, 3223, Note_on_c, 0, 63, 33
2, 3225, Note_on_c, 0, 59, 46
2, 3226, Note_on_c, 0, 46, 34
2, 3229, Note_on_c, 0, 65, 25
2, 3260, Note_on_c, 0, 46, 0
2, 3282, Note_on_c, 0, 46, 52
2, 3287, Note_on_c, 0, 59, 0
2, 3290, Note_on_c, 0, 63, 0
2, 3296, Note_on_c, 0, 58, 0
2, 3299, Note_on_c, 0, 65, 0
2, 3304, Note_on_c, 0, 68, 0
2, 3304, Note_on_c, 0, 63, 28
2, 3310, Note_on_c, 0, 59, 36
2, 3332, Note_on_c, 0, 63, 0
2, 3340, Note_on_c, 0, 59, 0
2, 3359, Note_on_c, 0, 46, 0
2, 3366, Note_on_c, 0, 63, 44
2, 3367, Note_on_c, 0, 56, 48
2, 3368, Note_on_c, 0, 46, 44
2, 3368, Note_on_c, 0, 65, 50
2, 3369, Note_on_c, 0, 60, 53
2, 3369, Control_c, 0, 64, 0
2, 3412, Control_c, 0, 64, 127
2, 3426, Note_on_c, 0, 46, 0
2, 3465, Note_on_c, 0, 34, 55
2, 3465, Note_on_c, 0, 46, 38
2, 3473, Note_on_c, 0, 46, 0
2, 3477, Note_on_c, 0, 34, 0
2, 3542, Note_on_c, 0, 22, 62
2, 3546, Control_c, 0, 64, 0
2, 3553, Control_c, 0, 64, 127
2, 3586, Note_on_c, 0, 22, 0
2, 3600, Note_on_c, 0, 60, 0
2, 3612, Note_on_c, 0, 56, 0
2, 3627, Note_on_c, 0, 65, 0
2, 3633, Note_on_c, 0, 63, 0
2, 3735, Note_on_c, 0, 68, 67
2, 3735, Note_on_c, 0, 59, 71
2, 3735, Note_on_c, 0, 63, 56
2, 3738, Note_on_c, 0, 56, 50
2, 3740, Note_on_c, 0, 64, 41
2, 3742, Control_c, 0, 64, 0
2, 3742, Note_on_c, 0, 65, 20
2, 3746, Note_on_c, 0, 65, 0
2, 3788, Control_c, 0, 64, 127
2, 3789, Note_on_c, 0, 56, 0
2, 3813, Note_on_c, 0, 59, 0
2, 3816, Note_on_c, 0, 64, 0
2, 3817, Note_on_c, 0, 63, 0
2, 3817, Note_on_c, 0, 68, 0
2, 3843, Control_c, 0, 64, 0
2, 3850, Note_on_c, 0, 39, 35
2, 3852, Note_on_c, 0, 46, 34
2, 3905, Note_on_c, 0, 46, 0
2, 3905, Note_on_c, 0, 39, 0
2, 3905, End_track
3, 0, Start_track
3, 0, MIDI_port, 0
3, 0, Program_c, 1, 32
3, 0, End_track
4, 0, Start_track
4, 0, MIDI_port, 0
4, 2870, Note_on_c, 9, 51, 47
4, 2876, Note_on_c, 9, 51, 0
4, 2889, Note_on_c, 9, 51, 37
4, 2899, Note_on_c, 9, 51, 0
4, 3007, Note_on_c, 9, 51, 47
4, 3015, Note_on_c, 9, 51, 0
4, 3041, Note_on_c, 9, 59, 62
4, 3045, Note_on_c, 9, 59, 0
4, 3117, Note_on_c, 9, 51, 52
4, 3124, Note_on_c, 9, 51, 0
4, 3220, Note_on_c, 9, 51, 53
4, 3229, Note_on_c, 9, 51, 0
4, 3241, Note_on_c, 9, 51, 39
4, 3249, Note_on_c, 9, 51, 0
4, 3279, Note_on_c, 9, 53, 103
4, 3286, Note_on_c, 9, 53, 0
4, 3362, Note_on_c, 9, 51, 56
4, 3370, Note_on_c, 9, 51, 0
4, 3484, Note_on_c, 9, 51, 46
4, 3490, Note_on_c, 9, 51, 0
4, 3583, Note_on_c, 9, 59, 74
4, 3587, Note_on_c, 9, 59, 0
4, 3601, Note_on_c, 9, 51, 52
4, 3609, Note_on_c, 9, 51, 0
4, 3718, Note_on_c, 9, 51, 58
4, 3729, Note_on_c, 9, 51, 0
4, 3828, Note_on_c, 9, 51, 60
4, 3837, Note_on_c, 9, 51, 0
4, 3846, Note_on_c, 9, 51, 73
4, 3865, Note_on_c, 9, 51, 0
4, 3954, Note_on_c, 9, 51, 55
4, 3958, Note_on_c, 9, 51, 0
4, 3970, Note_on_c, 9, 51, 63
4, 3978, Note_on_c, 9, 51, 0
4, 4081, Note_on_c, 9, 51, 81
4, 4088, Note_on_c, 9, 51, 0
4, 4204, Note_on_c, 9, 53, 85
4, 4214, Note_on_c, 9, 53, 0
4, 4244, Note_on_c, 9, 51, 77
4, 4253, Note_on_c, 9, 51, 0
4, 4308, Note_on_c, 9, 51, 62
4, 4312, Note_on_c, 9, 51, 0
4, 4325, Note_on_c, 9, 51, 83
4, 4337, Note_on_c, 9, 51, 0
4, 4446, Note_on_c, 9, 51, 82
4, 4454, Note_on_c, 9, 51, 0
4, 4544, Note_on_c, 9, 51, 65
4, 4548, Note_on_c, 9, 51, 0
4, 4563, Note_on_c, 9, 51, 80
4, 4574, Note_on_c, 9, 51, 0
4, 4665, Note_on_c, 9, 59, 80
4, 4673, Note_on_c, 9, 59, 0
4, 4682, Note_on_c, 9, 51, 60
4, 4692, Note_on_c, 9, 51, 0
4, 4780, Note_on_c, 9, 51, 42
4, 4784, Note_on_c, 9, 51, 0
4, 4799, Note_on_c, 9, 51, 85
4, 4819, Note_on_c, 9, 51, 0
4, 4920, Note_on_c, 9, 51, 84
4, 4928, Note_on_c, 9, 51, 0
4, 5022, Note_on_c, 9, 51, 83
4, 5029, Note_on_c, 9, 51, 0
4, 5105, Note_on_c, 9, 51, 97
4, 5113, Note_on_c, 9, 51, 0
4, 5201, Note_on_c, 9, 51, 67
4, 5208, Note_on_c, 9, 51, 0
4, 5219, Note_on_c, 9, 51, 76
4, 5242, Note_on_c, 9, 51, 0
4, 5279, Note_on_c, 9, 51, 93
4, 5287, Note_on_c, 9, 51, 0
4, 5399, Note_on_c, 9, 51, 49
4, 5403, Note_on_c, 9, 51, 0
4, 5441, Note_on_c, 9, 53, 83
4, 5451, Note_on_c, 9, 53, 0
4, 5561, Note_on_c, 9, 51, 67
4, 5566, Note_on_c, 9, 51, 0
4, 5580, Note_on_c, 9, 51, 67
4, 5589, Note_on_c, 9, 51, 0
4, 5649, Note_on_c, 9, 51, 36
4, 5653, Note_on_c, 9, 51, 0
4, 5677, Note_on_c, 9, 51, 64
4, 5683, Note_on_c, 9, 51, 0
4, 5697, Note_on_c, 9, 51, 78
4, 5709, Note_on_c, 9, 51, 0
4, 5800, Note_on_c, 9, 51, 53
4, 5804, Note_on_c, 9, 51, 0
4, 5818, Note_on_c, 9, 51, 65
4, 5847, Note_on_c, 9, 51, 0
4, 5878, Note_on_c, 9, 51, 83
4, 5910, Note_on_c, 9, 51, 0
4, 5978, Note_on_c, 9, 51, 57
4, 5985, Note_on_c, 9, 51, 0
4, 5996, Note_on_c, 9, 51, 62
4, 6027, Note_on_c, 9, 51, 0
4, 6105, Note_on_c, 9, 51, 32
4, 6109, Note_on_c, 9, 51, 0
4, 6122, Note_on_c, 9, 51, 53
4, 6126, Note_on_c, 9, 51, 0
4, 6166, Note_on_c, 9, 53, 78
4, 6177, Note_on_c, 9, 53, 0
4, 6191, Note_on_c, 9, 51, 25
4, 6211, Note_on_c, 9, 51, 0
4, 6225, Note_on_c, 9, 51, 64
4, 6233, Note_on_c, 9, 51, 0
4, 6245, Note_on_c, 9, 51, 64
4, 6261, Note_on_c, 9, 51, 0
4, 6340, Note_on_c, 9, 51, 60
4, 6346, Note_on_c, 9, 51, 0
4, 6361, Note_on_c, 9, 51, 70
4, 6382, Note_on_c, 9, 51, 0
4, 6419, Note_on_c, 9, 51, 71
4, 6436, Note_on_c, 9, 51, 0
4, 6480, Note_on_c, 9, 51, 83
4, 6495, Note_on_c, 9, 51, 0
4, 6584, Note_on_c, 9, 51, 54
4, 6588, Note_on_c, 9, 51, 0
4, 6602, Note_on_c, 9, 51, 71
4, 6625, Note_on_c, 9, 51, 0
4, 6701, Note_on_c, 9, 51, 40
4, 6707, Note_on_c, 9, 51, 0
4, 6718, Note_on_c, 9, 51, 58
4, 6744, Note_on_c, 9, 51, 0
4, 6818, Note_on_c, 9, 53, 80
4, 6829, Note_on_c, 9, 53, 0
4, 6843, Note_on_c, 9, 51, 35
4, 6865, Note_on_c, 9, 51, 0
4, 6879, Note_on_c, 9, 51, 63
4, 6885, Note_on_c, 9, 51, 0
4, 6960, Note_on_c, 9, 51, 64
4, 6968, Note_on_c, 9, 51, 0
4, 7081, Note_on_c, 9, 51, 45
4, 7095, Note_on_c, 9, 51, 0
4, 7119, Note_on_c, 9, 51, 50
4, 7124, Note_on_c, 9, 51, 0
4, 7141, Note_on_c, 9, 53, 66
4, 7153, Note_on_c, 9, 53, 0
4, 7180, Note_on_c, 9, 51, 50
4, 7184, Note_on_c, 9, 51, 0
4, 7262, Note_on_c, 9, 59, 70
4, 7280, Note_on_c, 9, 59, 0
4, 7300, Note_on_c, 9, 51, 57
4, 7307, Note_on_c, 9, 51, 0
4, 7421, Note_on_c, 9, 51, 52
4, 7425, Note_on_c, 9, 51, 0
4, 7439, Note_on_c, 9, 51, 72
4, 7468, Note_on_c, 9, 51, 0
4, 7563, Note_on_c, 9, 59, 62
4, 7567, Note_on_c, 9, 59, 0
4, 7578, Note_on_c, 9, 59, 66
4, 7585, Note_on_c, 9, 59, 0
4, 7622, Note_on_c, 9, 52, 71
4, 7626, Note_on_c, 9, 52, 0
4, 7666, Note_on_c, 9, 51, 78
4, 7674, Note_on_c, 9, 51, 0
4, 7687, Note_on_c, 9, 51, 47
4, 7716, Note_on_c, 9, 51, 0
4, 7783, Note_on_c, 9, 51, 42
4, 7788, Note_on_c, 9, 51, 0
4, 7801, Note_on_c, 9, 51, 62
4, 7815, Note_on_c, 9, 51, 0
4, 7907, Note_on_c, 9, 51, 35
4, 7913, Note_on_c, 9, 51, 0
4, 7926, Note_on_c, 9, 51, 57
4, 7938, Note_on_c, 9, 51, 0
4, 8049, Note_on_c, 9, 53, 63
4, 8053, Note_on_c, 9, 53, 0
4, 8086, Note_on_c, 9, 53, 76
4, 8095, Note_on_c, 9, 53, 0
4, 8106, Note_on_c, 9, 51, 30
4, 8139, Note_on_c, 9, 51, 0
4, 8168, Note_on_c, 9, 51, 54
4, 8185, Note_on_c, 9, 51, 0
4, 8264, Note_on_c, 9, 51, 43
4, 8270, Note_on_c, 9, 51, 0
4, 8284, Note_on_c, 9, 51, 52
4, 8296, Note_on_c, 9, 51, 0
4, 8384, Note_on_c, 9, 51, 29
4, 8388, Note_on_c, 9, 51, 0
4, 8400, Note_on_c, 9, 51, 58
4, 8425, Note_on_c, 9, 51, 0
4, 8520, Note_on_c, 9, 51, 77
4, 8529, Note_on_c, 9, 51, 0
4, 8562, Note_on_c, 9, 51, 26
4, 8567, Note_on_c, 9, 51, 0
4, 8578, Note_on_c, 9, 51, 71
4, 8613, Note_on_c, 9, 51, 0
4, 8640, Note_on_c, 9, 51, 80
4, 8655, Note_on_c, 9, 51, 0
4, 8759, Note_on_c, 9, 51, 77
4, 8767, Note_on_c, 9, 51, 0
4, 8774, Note_on_c, 9, 51, 75
4, 8783, Note_on_c, 9, 51, 0
4, 8861, Note_on_c, 9, 51, 83
4, 8871, Note_on_c, 9, 51, 0
4, 8879, Note_on_c, 9, 51, 64
4, 8889, Note_on_c, 9, 51, 0
4, 8941, Note_on_c, 9, 51, 87
4, 8969, Note_on_c, 9, 51, 0
4, 9040, Note_on_c, 9, 51, 46
4, 9044, Note_on_c, 9, 51, 0
4, 9057, Note_on_c, 9, 51, 70
4, 9085, Note_on_c, 9, 51, 0
4, 9097, Note_on_c, 9, 51, 74
4, 9107, Note_on_c, 9, 51, 0
4, 9117, Note_on_c, 9, 51, 60
4, 9133, Note_on_c, 9, 51, 0
4, 9219, Note_on_c, 9, 51, 60
4, 9224, Note_on_c, 9, 51, 0
4, 9236, Note_on_c, 9, 51, 70
4, 9261, Note_on_c, 9, 51, 0
4, 9358, Note_on_c, 9, 51, 75
4, 9366, Note_on_c, 9, 51, 0
4, 9467, Note_on_c, 9, 51, 47
4, 9472, Note_on_c, 9, 51, 0
4, 9486, Note_on_c, 9, 51, 62
4, 9495, Note_on_c, 9, 51, 0
4, 9523, Note_on_c, 9, 53, 83
4, 9536, Note_on_c, 9, 53, 0
4, 9548, Note_on_c, 9, 51, 30
4, 9576, Note_on_c, 9, 51, 0
4, 9585, Note_on_c, 9, 51, 56
4, 9593, Note_on_c, 9, 51, 0
4, 9602, Note_on_c, 9, 51, 71
4, 9628, Note_on_c, 9, 51, 0
4, 9728, Note_on_c, 9, 51, 55
4, 9732, Note_on_c, 9, 51, 0
4, 9826, Note_on_c, 9, 51, 39
4, 9833, Note_on_c, 9, 51, 0
4, 9843, Note_on_c, 9, 51, 65
4, 9864, Note_on_c, 9, 51, 0
4, 9944, Note_on_c, 9, 51, 45
4, 9949, Note_on_c, 9, 51, 0
4, 9962, Note_on_c, 9, 51, 63
4, 9990, Note_on_c, 9, 51, 0
4, 10080, Note_on_c, 9, 51, 71
4, 10093, Note_on_c, 9, 51, 0
4, 10185, Note_on_c, 9, 59, 82
4, 10195, Note_on_c, 9, 59, 0
4, 10205, Note_on_c, 9, 51, 59
4, 10233, Note_on_c, 9, 51, 0
4, 10242, Note_on_c, 9, 51, 54
4, 10251, Note_on_c, 9, 51, 0
4, 10304, Note_on_c, 9, 51, 62
4, 10312, Note_on_c, 9, 51, 0
4, 10323, Note_on_c, 9, 51, 62
4, 10336, Note_on_c, 9, 51, 0
4, 10420, Note_on_c, 9, 51, 39
4, 10425, Note_on_c, 9, 51, 0
4, 10437, Note_on_c, 9, 51, 60
4, 10454, Note_on_c, 9, 51, 0
4, 10540, Note_on_c, 9, 51, 49
4, 10544, Note_on_c, 9, 51, 0
4, 10600, Note_on_c, 9, 53, 84
4, 10609, Note_on_c, 9, 53, 0
4, 10619, Note_on_c, 9, 53, 56
4, 10649, Note_on_c, 9, 53, 0
4, 10660, Note_on_c, 9, 51, 38
4, 10670, Note_on_c, 9, 51, 0
4, 10680, Note_on_c, 9, 51, 38
4, 10709, Note_on_c, 9, 51, 0
4, 10741, Note_on_c, 9, 53, 74
4, 10756, Note_on_c, 9, 53, 0
4, 10806, Note_on_c, 9, 51, 25
4, 10819, Note_on_c, 9, 51, 0
4, 10842, Note_on_c, 9, 51, 52
4, 10848, Note_on_c, 9, 51, 0
4, 10862, Note_on_c, 9, 51, 58
4, 10881, Note_on_c, 9, 51, 0
4, 10903, Note_on_c, 9, 51, 85
4, 10923, Note_on_c, 9, 51, 0
4, 10965, Note_on_c, 9, 51, 34
4, 10970, Note_on_c, 9, 51, 0
4, 10984, Note_on_c, 9, 51, 37
4, 10994, Note_on_c, 9, 51, 0
4, 11023, Note_on_c, 9, 51, 99
4, 11046, Note_on_c, 9, 51, 0
4, 11085, Note_on_c, 9, 51, 33
4, 11089, Note_on_c, 9, 51, 0
4, 11102, Note_on_c, 9, 51, 50
4, 11112, Note_on_c, 9, 51, 0
4, 11162, Note_on_c, 9, 51, 84
4, 11173, Note_on_c, 9, 51, 0
4, 11221, Note_on_c, 9, 51, 36
4, 11226, Note_on_c, 9, 51, 0
4, 11261, Note_on_c, 9, 51, 85
4, 11273, Note_on_c, 9, 51, 0
4, 11322, Note_on_c, 9, 51, 40
4, 11327, Note_on_c, 9, 51, 0
4, 11340, Note_on_c, 9, 51, 86
4, 11371, Note_on_c, 9, 51, 0
4, 11399, Note_on_c, 9, 51, 85
4, 11418, Note_on_c, 9, 51, 0
4, 11446, Note_on_c, 9, 51, 58
4, 11455, Note_on_c, 9, 51, 0
4, 11458, Note_on_c, 9, 59, 103
4, 11498, Note_on_c, 9, 59, 0
4, 11516, Note_on_c, 9, 59, 110
4, 11562, Note_on_c, 9, 59, 0
4, 11577, Note_on_c, 9, 59, 85
4, 11613, Note_on_c, 9, 59, 0
4, 11624, Note_on_c, 9, 59, 43
4, 11630, Note_on_c, 9, 59, 0
4, 11638, Note_on_c, 9, 59, 67
4, 11682, Note_on_c, 9, 59, 0
4, 11697, Note_on_c, 9, 59, 66
4, 11699, Note_on_c, 9, 57, 74
4, 11703, Note_on_c, 9, 57, 0
4, 11740, Note_on_c, 9, 59, 0
4, 11747, Note_on_c, 9, 59, 58
4, 11753, Note_on_c, 9, 59, 0
4, 11763, Note_on_c, 9, 59, 74
4, 11803, Note_on_c, 9, 59, 0
4, 11813, Note_on_c, 9, 59, 62
4, 11837, Note_on_c, 9, 59, 0
4, 11858, Note_on_c, 9, 59, 53
4, 11868, Note_on_c, 9, 59, 0
4, 11876, Note_on_c, 9, 59, 68
4, 11911, Note_on_c, 9, 59, 0
4, 11934, Note_on_c, 9, 59, 78
4, 11962, Note_on_c, 9, 59, 0
4, 11976, Note_on_c, 9, 59, 37
4, 11982, Note_on_c, 9, 59, 0
4, 11993, Note_on_c, 9, 59, 68
4, 12026, Note_on_c, 9, 59, 0
4, 12058, Note_on_c, 9, 59, 84
4, 12083, Note_on_c, 9, 59, 0
4, 12120, Note_on_c, 9, 59, 84
4, 12144, Note_on_c, 9, 59, 0
4, 12180, Note_on_c, 9, 59, 84
4, 12199, Note_on_c, 9, 59, 0
4, 12226, Note_on_c, 9, 59, 48
4, 12231, Note_on_c, 9, 59, 0
4, 12241, Note_on_c, 9, 59, 72
4, 12276, Note_on_c, 9, 59, 0
4, 12300, Note_on_c, 9, 59, 80
4, 12327, Note_on_c, 9, 59, 0
4, 12347, Note_on_c, 9, 59, 44
4, 12352, Note_on_c, 9, 59, 0
4, 12360, Note_on_c, 9, 59, 74
4, 12393, Note_on_c, 9, 59, 0
4, 12418, Note_on_c, 9, 59, 85
4, 12441, Note_on_c, 9, 59, 0
4, 12475, Note_on_c, 9, 59, 85
4, 12493, Note_on_c, 9, 59, 0
4, 12528, Note_on_c, 9, 59, 58
4, 12532, Note_on_c, 9, 59, 0
4, 12540, Note_on_c, 9, 59, 77
4, 12580, Note_on_c, 9, 59, 0
4, 12599, Note_on_c, 9, 59, 84
4, 12631, Note_on_c, 9, 59, 0
4, 12659, Note_on_c, 9, 59, 74
4, 12686, Note_on_c, 9, 59, 0
4, 12703, Note_on_c, 9, 59, 56
4, 12713, Note_on_c, 9, 59, 0
4, 12720, Note_on_c, 9, 59, 66
4, 12752, Note_on_c, 9, 59, 0
4, 12780, Note_on_c, 9, 59, 82
4, 12801, Note_on_c, 9, 59, 0
4, 12827, Note_on_c, 9, 59, 49
4, 12831, Note_on_c, 9, 59, 0
4, 12840, Note_on_c, 9, 59, 66
4, 12873, Note_on_c, 9, 59, 0
4, 12900, Note_on_c, 9, 59, 87
4, 12930, Note_on_c, 9, 59, 0
4, 12958, Note_on_c, 9, 59, 84
4, 12988, Note_on_c, 9, 59, 0
4, 13002, Note_on_c, 9, 59, 44
4, 13008, Note_on_c, 9, 59, 0
4, 13018, Note_on_c, 9, 59, 74
4, 13052, Note_on_c, 9, 59, 0
4, 13077, Note_on_c, 9, 59, 80
4, 13106, Note_on_c, 9, 59, 0
4, 13137, Note_on_c, 9, 59, 83
4, 13165, Note_on_c, 9, 59, 0
4, 13179, Note_on_c, 9, 59, 38
4, 13185, Note_on_c, 9, 59, 0
4, 13194, Note_on_c, 9, 59, 68
4, 13222, Note_on_c, 9, 59, 0
4, 13237, Note_on_c, 9, 59, 59
4, 13241, Note_on_c, 9, 59, 0
4, 13254, Note_on_c, 9, 59, 78
4, 13297, Note_on_c, 9, 59, 0
4, 13315, Note_on_c, 9, 59, 73
4, 13343, Note_on_c, 9, 59, 0
4, 13358, Note_on_c, 9, 59, 38
4, 13364, Note_on_c, 9, 59, 0
4, 13375, Note_on_c, 9, 59, 67
4, 13408, Note_on_c, 9, 59, 0
4, 13418, Note_on_c, 9, 59, 59
4, 13424, Note_on_c, 9, 59, 0
4, 13435, Note_on_c, 9, 59, 74
4, 13473, Note_on_c, 9, 59, 0
4, 13497, Note_on_c, 9, 59, 77
4, 13528, Note_on_c, 9, 59, 0
4, 13542, Note_on_c, 9, 59, 26
4, 13548, Note_on_c, 9, 59, 0
4, 13557, Note_on_c, 9, 59, 68
4, 13590, Note_on_c, 9, 59, 0
4, 13618, Note_on_c, 9, 59, 81
4, 13650, Note_on_c, 9, 59, 0
4, 13680, Note_on_c, 9, 59, 75
4, 13698, Note_on_c, 9, 59, 0
4, 13738, Note_on_c, 9, 59, 83
4, 13760, Note_on_c, 9, 59, 0
4, 13781, Note_on_c, 9, 59, 51
4, 13787, Note_on_c, 9, 59, 0
4, 13798, Note_on_c, 9, 59, 63
4, 13827, Note_on_c, 9, 59, 0
4, 13857, Note_on_c, 9, 59, 83
4, 13889, Note_on_c, 9, 59, 0
4, 13915, Note_on_c, 9, 59, 71
4, 13942, Note_on_c, 9, 59, 0
4, 13976, Note_on_c, 9, 59, 80
4, 13994, Note_on_c, 9, 59, 0
4, 14019, Note_on_c, 9, 59, 57
4, 14026, Note_on_c, 9, 59, 0
4, 14036, Note_on_c, 9, 59, 62
4, 14059, Note_on_c, 9, 59, 0
4, 14097, Note_on_c, 9, 59, 82
4, 14128, Note_on_c, 9, 59, 0
4, 14139, Note_on_c, 9, 59, 45
4, 14145, Note_on_c, 9, 59, 0
4, 14155, Note_on_c, 9, 59, 66
4, 14174, Note_on_c, 9, 59, 0
4, 14196, Note_on_c, 9, 59, 65
4, 14200, Note_on_c, 9, 59, 0
4, 14214, Note_on_c, 9, 59, 74
4, 14252, Note_on_c, 9, 59, 0
4, 14274, Note_on_c, 9, 59, 55
4, 14298, Note_on_c, 9, 59, 0
4, 14333, Note_on_c, 9, 59, 89
4, 14369, Note_on_c, 9, 59, 0
4, 14378, Note_on_c, 9, 59, 54
4, 14382, Note_on_c, 9, 59, 0
4, 14393, Note_on_c, 9, 59, 57
4, 14430, Note_on_c, 9, 59, 0
4, 14454, Note_on_c, 9, 59, 65
4, 14468, Note_on_c, 9, 59, 0
4, 14498, Note_on_c, 9, 59, 45
4, 14502, Note_on_c, 9, 59, 0
4, 14513, Note_on_c, 9, 59, 57
4, 14542, Note_on_c, 9, 59, 0
4, 14572, Note_on_c, 9, 59, 74
4, 14594, Note_on_c, 9, 59, 0
4, 14617, Note_on_c, 9, 59, 47
4, 14622, Note_on_c, 9, 59, 0
4, 14631, Note_on_c, 9, 59, 65
4, 14666, Note_on_c, 9, 59, 0
4, 14693, Note_on_c, 9, 59, 82
4, 14720, Note_on_c, 9, 59, 0
4, 14737, Note_on_c, 9, 59, 41
4, 14743, Note_on_c, 9, 59, 0
4, 14753, Note_on_c, 9, 59, 65
4, 14787, Note_on_c, 9, 59, 0
4, 14814, Note_on_c, 9, 59, 89
4, 14842, Note_on_c, 9, 59, 0
4, 14856, Note_on_c, 9, 59, 38
4, 14864, Note_on_c, 9, 59, 0
4, 14873, Note_on_c, 9, 59, 73
4, 14906, Note_on_c, 9, 59, 0
4, 14936, Note_on_c, 9, 59, 85
4, 14963, Note_on_c, 9, 59, 0
4, 14980, Note_on_c, 9, 59, 47
4, 14986, Note_on_c, 9, 59, 0
4, 14996, Note_on_c, 9, 59, 74
4, 15028, Note_on_c, 9, 59, 0
4, 15055, Note_on_c, 9, 59, 83
4, 15081, Note_on_c, 9, 59, 0
4, 15099, Note_on_c, 9, 59, 48
4, 15104, Note_on_c, 9, 59, 0
4, 15115, Note_on_c, 9, 59, 64
4, 15144, Note_on_c, 9, 59, 0
4, 15174, Note_on_c, 9, 59, 84
4, 15198, Note_on_c, 9, 59, 0
4, 15218, Note_on_c, 9, 59, 43
4, 15223, Note_on_c, 9, 59, 0
4, 15234, Note_on_c, 9, 59, 60
4, 15252, Note_on_c, 9, 59, 0
4, 15279, Note_on_c, 9, 59, 77
4, 15284, Note_on_c, 9, 59, 0
4, 15296, Note_on_c, 9, 59, 79
4, 15333, Note_on_c, 9, 59, 0
4, 15349, Note_on_c, 9, 59, 29
4, 15353, Note_on_c, 9, 59, 0
4, 15362, Note_on_c, 9, 59, 80
4, 15407, Note_on_c, 9, 59, 0
4, 15420, Note_on_c, 9, 59, 70
4, 15450, Note_on_c, 9, 59, 0
4, 15461, Note_on_c, 9, 59, 49
4, 15467, Note_on_c, 9, 59, 0
4, 15478, Note_on_c, 9, 59, 67
4, 15505, Note_on_c, 9, 59, 0
4, 15537, Note_on_c, 9, 59, 87
4, 15569, Note_on_c, 9, 59, 0
4, 15597, Note_on_c, 9, 59, 83
4, 15624, Note_on_c, 9, 59, 0
4, 15641, Note_on_c, 9, 59, 29
4, 15648, Note_on_c, 9, 59, 0
4, 15655, Note_on_c, 9, 59, 78
4, 15692, Note_on_c, 9, 59, 0
4, 15716, Note_on_c, 9, 59, 81
4, 15744, Note_on_c, 9, 59, 0
4, 15779, Note_on_c, 9, 59, 84
4, 15806, Note_on_c, 9, 59, 0
4, 15819, Note_on_c, 9, 59, 45
4, 15825, Note_on_c, 9, 59, 0
4, 15835, Note_on_c, 9, 59, 68
4, 15867, Note_on_c, 9, 59, 0
4, 15899, Note_on_c, 9, 59, 82
4, 15926, Note_on_c, 9, 59, 0
4, 15960, Note_on_c, 9, 59, 77
4, 15977, Note_on_c, 9, 59, 0
4, 16019, Note_on_c, 9, 59, 81
4, 16041, Note_on_c, 9, 59, 0
4, 16065, Note_on_c, 9, 59, 53
4, 16069, Note_on_c, 9, 59, 0
4, 16080, Note_on_c, 9, 59, 65
4, 16112, Note_on_c, 9, 59, 0
4, 16139, Note_on_c, 9, 59, 77
4, 16160, Note_on_c, 9, 59, 0
4, 16183, Note_on_c, 9, 59, 50
4, 16190, Note_on_c, 9, 59, 0
4, 16199, Note_on_c, 9, 59, 62
4, 16224, Note_on_c, 9, 59, 0
4, 16257, Note_on_c, 9, 59, 85
4, 16277, Note_on_c, 9, 59, 0
4, 16319, Note_on_c, 9, 59, 75
4, 16332, Note_on_c, 9, 59, 0
4, 16379, Note_on_c, 9, 59, 84
4, 16392, Note_on_c, 9, 59, 0
4, 16422, Note_on_c, 9, 59, 62
4, 16428, Note_on_c, 9, 59, 0
4, 16438, Note_on_c, 9, 59, 71
4, 16461, Note_on_c, 9, 59, 0
4, 16496, Note_on_c, 9, 59, 84
4, 16515, Note_on_c, 9, 59, 0
4, 16541, Note_on_c, 9, 59, 50
4, 16545, Note_on_c, 9, 59, 0
4, 16555, Note_on_c, 9, 59, 65
4, 16581, Note_on_c, 9, 59, 0
4, 16616, Note_on_c, 9, 59, 89
4, 16647, Note_on_c, 9, 59, 0
4, 16677, Note_on_c, 9, 59, 71
4, 16692, Note_on_c, 9, 59, 0
4, 16723, Note_on_c, 9, 59, 53
4, 16728, Note_on_c, 9, 59, 0
4, 16739, Note_on_c, 9, 59, 73
4, 16782, Note_on_c, 9, 59, 0
4, 16800, Note_on_c, 9, 59, 72
4, 16831, Note_on_c, 9, 59, 0
4, 16842, Note_on_c, 9, 59, 48
4, 16848, Note_on_c, 9, 59, 0
4, 16859, Note_on_c, 9, 59, 85
4, 16902, Note_on_c, 9, 59, 0
4, 16920, Note_on_c, 9, 59, 71
4, 16949, Note_on_c, 9, 59, 0
4, 16964, Note_on_c, 9, 59, 41
4, 16969, Note_on_c, 9, 59, 0
4, 16980, Note_on_c, 9, 59, 80
4, 17009, Note_on_c, 9, 59, 0
4, 17021, Note_on_c, 9, 59, 78
4, 17048, Note_on_c, 9, 59, 0
4, 17063, Note_on_c, 9, 59, 44
4, 17067, Note_on_c, 9, 59, 0
4, 17078, Note_on_c, 9, 59, 64
4, 17088, Note_on_c, 9, 59, 0
4, 17101, Note_on_c, 9, 59, 80
4, 17140, Note_on_c, 9, 59, 0
4, 17159, Note_on_c, 9, 59, 66
4, 17190, Note_on_c, 9, 59, 0
4, 17200, Note_on_c, 9, 59, 51
4, 17204, Note_on_c, 9, 59, 0
4, 17215, Note_on_c, 9, 59, 75
4, 17257, Note_on_c, 9, 59, 0
4, 17276, Note_on_c, 9, 59, 82
4, 17308, Note_on_c, 9, 59, 0
4, 17336, Note_on_c, 9, 59, 84
4, 17367, Note_on_c, 9, 59, 0
4, 17384, Note_on_c, 9, 59, 36
4, 17389, Note_on_c, 9, 59, 0
4, 17397, Note_on_c, 9, 59, 72
4, 17435, Note_on_c, 9, 59, 0
4, 17459, Note_on_c, 9, 59, 84
4, 17485, Note_on_c, 9, 59, 0
4, 17505, Note_on_c, 9, 59, 54
4, 17510, Note_on_c, 9, 59, 0
4, 17519, Note_on_c, 9, 59, 68
4, 17554, Note_on_c, 9, 59, 0
4, 17579, Note_on_c, 9, 59, 80
4, 17614, Note_on_c, 9, 59, 0
4, 17642, Note_on_c, 9, 59, 80
4, 17671, Note_on_c, 9, 59, 0
4, 17686, Note_on_c, 9, 59, 38
4, 17691, Note_on_c, 9, 59, 0
4, 17700, Note_on_c, 9, 59, 67
4, 17737, Note_on_c, 9, 59, 0
4, 17762, Note_on_c, 9, 59, 82
4, 17790, Note_on_c, 9, 59, 0
4, 17823, Note_on_c, 9, 59, 80
4, 17846, Note_on_c, 9, 59, 0
4, 17867, Note_on_c, 9, 59, 47
4, 17872, Note_on_c, 9, 59, 0
4, 17882, Note_on_c, 9, 59, 64
4, 17912, Note_on_c, 9, 59, 0
4, 17941, Note_on_c, 9, 59, 80
4, 17964, Note_on_c, 9, 59, 0
4, 17986, Note_on_c, 9, 59, 43
4, 17991, Note_on_c, 9, 59, 0
4, 18001, Note_on_c, 9, 59, 62
4, 18033, Note_on_c, 9, 59, 0
4, 18062, Note_on_c, 9, 59, 82
4, 18090, Note_on_c, 9, 59, 0
4, 18108, Note_on_c, 9, 59, 47
4, 18113, Note_on_c, 9, 59, 0
4, 18123, Note_on_c, 9, 59, 66
4, 18155, Note_on_c, 9, 59, 0
4, 18182, Note_on_c, 9, 59, 83
4, 18207, Note_on_c, 9, 59, 0
4, 18225, Note_on_c, 9, 59, 46
4, 18229, Note_on_c, 9, 59, 0
4, 18240, Note_on_c, 9, 59, 64
4, 18273, Note_on_c, 9, 59, 0
4, 18300, Note_on_c, 9, 59, 87
4, 18328, Note_on_c, 9, 59, 0
4, 18346, Note_on_c, 9, 59, 50
4, 18353, Note_on_c, 9, 59, 0
4, 18362, Note_on_c, 9, 59, 74
4, 18392, Note_on_c, 9, 59, 0
4, 18420, Note_on_c, 9, 59, 81
4, 18447, Note_on_c, 9, 59, 0
4, 18464, Note_on_c, 9, 59, 48
4, 18472, Note_on_c, 9, 59, 0
4, 18481, Note_on_c, 9, 59, 68
4, 18511, Note_on_c, 9, 59, 0
4, 18539, Note_on_c, 9, 59, 80
4, 18570, Note_on_c, 9, 59, 0
4, 18600, Note_on_c, 9, 59, 79
4, 18628, Note_on_c, 9, 59, 0
4, 18643, Note_on_c, 9, 59, 37
4, 18649, Note_on_c, 9, 59, 0
4, 18659, Note_on_c, 9, 59, 68
4, 18684, Note_on_c, 9, 59, 0
4, 18701, Note_on_c, 9, 59, 87
4, 18744, Note_on_c, 9, 59, 0
4, 18763, Note_on_c, 9, 59, 40
4, 18768, Note_on_c, 9, 59, 0
4, 18779, Note_on_c, 9, 59, 68
4, 18813, Note_on_c, 9, 59, 0
4, 18838, Note_on_c, 9, 59, 82
4, 18867, Note_on_c, 9, 59, 0
4, 18898, Note_on_c, 9, 59, 80
4, 18920, Note_on_c, 9, 59, 0
4, 18943, Note_on_c, 9, 59, 50
4, 18948, Note_on_c, 9, 59, 0
4, 18959, Note_on_c, 9, 59, 68
4, 18990, Note_on_c, 9, 59, 0
4, 19019, Note_on_c, 9, 59, 88
4, 19040, Note_on_c, 9, 59, 0
4, 19064, Note_on_c, 9, 59, 45
4, 19069, Note_on_c, 9, 59, 0
4, 19079, Note_on_c, 9, 59, 61
4, 19095, Note_on_c, 9, 59, 0
4, 19120, Note_on_c, 9, 59, 58
4, 19125, Note_on_c, 9, 59, 0
4, 19138, Note_on_c, 9, 59, 78
4, 19191, Note_on_c, 9, 59, 0
4, 19195, Note_on_c, 9, 51, 70
4, 19206, Note_on_c, 9, 51, 0
4, 19262, Note_on_c, 9, 52, 51
4, 19291, Note_on_c, 9, 52, 0
4, 19322, Note_on_c, 9, 51, 67
4, 19355, Note_on_c, 9, 51, 0
4, 19380, Note_on_c, 9, 51, 75
4, 19410, Note_on_c, 9, 51, 0
4, 19428, Note_on_c, 9, 51, 40
4, 19432, Note_on_c, 9, 51, 0
4, 19441, Note_on_c, 9, 51, 63
4, 19475, Note_on_c, 9, 51, 0
4, 19499, Note_on_c, 9, 51, 78
4, 19527, Note_on_c, 9, 51, 0
4, 19559, Note_on_c, 9, 51, 77
4, 19588, Note_on_c, 9, 51, 0
4, 19620, Note_on_c, 9, 51, 77
4, 19640, Note_on_c, 9, 51, 0
4, 19667, Note_on_c, 9, 51, 34
4, 19672, Note_on_c, 9, 51, 0
4, 19680, Note_on_c, 9, 51, 63
4, 19712, Note_on_c, 9, 51, 0
4, 19739, Note_on_c, 9, 51, 77
4, 19767, Note_on_c, 9, 51, 0
4, 19800, Note_on_c, 9, 51, 77
4, 19834, Note_on_c, 9, 51, 0
4, 19845, Note_on_c, 9, 53, 72
4, 19856, Note_on_c, 9, 53, 0
4, 19866, Note_on_c, 9, 51, 31
4, 19897, Note_on_c, 9, 51, 0
4, 19908, Note_on_c, 9, 51, 45
4, 19913, Note_on_c, 9, 51, 0
4, 19924, Note_on_c, 9, 51, 71
4, 19962, Note_on_c, 9, 51, 0
4, 19985, Note_on_c, 9, 51, 77
4, 20012, Note_on_c, 9, 51, 0
4, 20030, Note_on_c, 9, 51, 37
4, 20035, Note_on_c, 9, 51, 0
4, 20044, Note_on_c, 9, 51, 59
4, 20076, Note_on_c, 9, 51, 0
4, 20101, Note_on_c, 9, 51, 82
4, 20130, Note_on_c, 9, 51, 0
4, 20160, Note_on_c, 9, 51, 82
4, 20181, Note_on_c, 9, 51, 0
4, 20202, Note_on_c, 9, 51, 68
4, 20210, Note_on_c, 9, 51, 0
4, 20220, Note_on_c, 9, 51, 74
4, 20248, Note_on_c, 9, 51, 0
4, 20279, Note_on_c, 9, 51, 77
4, 20309, Note_on_c, 9, 51, 0
4, 20338, Note_on_c, 9, 51, 83
4, 20364, Note_on_c, 9, 51, 0
4, 20383, Note_on_c, 9, 51, 43
4, 20388, Note_on_c, 9, 51, 0
4, 20395, Note_on_c, 9, 51, 62
4, 20431, Note_on_c, 9, 51, 0
4, 20457, Note_on_c, 9, 51, 76
4, 20480, Note_on_c, 9, 51, 0
4, 20501, Note_on_c, 9, 51, 46
4, 20507, Note_on_c, 9, 51, 0
4, 20516, Note_on_c, 9, 51, 53
4, 20549, Note_on_c, 9, 51, 0
4, 20577, Note_on_c, 9, 51, 80
4, 20599, Note_on_c, 9, 51, 0
4, 20622, Note_on_c, 9, 51, 42
4, 20627, Note_on_c, 9, 51, 0
4, 20635, Note_on_c, 9, 51, 69
4, 20667, Note_on_c, 9, 51, 0
4, 20698, Note_on_c, 9, 51, 80
4, 20732, Note_on_c, 9, 51, 0
4, 20760, Note_on_c, 9, 51, 79
4, 20791, Note_on_c, 9, 51, 0
4, 20820, Note_on_c, 9, 51, 81
4, 20845, Note_on_c, 9, 51, 0
4, 20863, Note_on_c, 9, 51, 55
4, 20869, Note_on_c, 9, 51, 0
4, 20879, Note_on_c, 9, 51, 67
4, 20916, Note_on_c, 9, 51, 0
4, 20940, Note_on_c, 9, 51, 84
4, 20967, Note_on_c, 9, 51, 0
4, 20983, Note_on_c, 9, 51, 39
4, 20989, Note_on_c, 9, 51, 0
4, 20997, Note_on_c, 9, 51, 69
4, 21030, Note_on_c, 9, 51, 0
4, 21056, Note_on_c, 9, 51, 79
4, 21086, Note_on_c, 9, 51, 0
4, 21116, Note_on_c, 9, 51, 75
4, 21146, Note_on_c, 9, 51, 0
4, 21158, Note_on_c, 9, 53, 74
4, 21172, Note_on_c, 9, 53, 0
4, 21180, Note_on_c, 9, 51, 38
4, 21222, Note_on_c, 9, 51, 0
4, 21237, Note_on_c, 9, 51, 77
4, 21275, Note_on_c, 9, 51, 0
4, 21300, Note_on_c, 9, 51, 75
4, 21327, Note_on_c, 9, 51, 0
4, 21345, Note_on_c, 9, 51, 49
4, 21350, Note_on_c, 9, 51, 0
4, 21360, Note_on_c, 9, 51, 59
4, 21396, Note_on_c, 9, 51, 0
4, 21423, Note_on_c, 9, 51, 80
4, 21453, Note_on_c, 9, 51, 0
4, 21484, Note_on_c, 9, 51, 80
4, 21514, Note_on_c, 9, 51, 0
4, 21543, Note_on_c, 9, 51, 77
4, 21567, Note_on_c, 9, 51, 0
4, 21587, Note_on_c, 9, 51, 45
4, 21592, Note_on_c, 9, 51, 0
4, 21603, Note_on_c, 9, 51, 61
4, 21636, Note_on_c, 9, 51, 0
4, 21662, Note_on_c, 9, 51, 78
4, 21686, Note_on_c, 9, 51, 0
4, 21709, Note_on_c, 9, 51, 51
4, 21713, Note_on_c, 9, 51, 0
4, 21723, Note_on_c, 9, 51, 56
4, 21753, Note_on_c, 9, 51, 0
4, 21782, Note_on_c, 9, 51, 79
4, 21807, Note_on_c, 9, 51, 0
4, 21842, Note_on_c, 9, 51, 80
4, 21863, Note_on_c, 9, 51, 0
4, 21902, Note_on_c, 9, 51, 79
4, 21921, Note_on_c, 9, 51, 0
4, 21961, Note_on_c, 9, 51, 77
4, 21988, Note_on_c, 9, 51, 0
4, 22021, Note_on_c, 9, 51, 74
4, 22037, Note_on_c, 9, 51, 0
4, 22065, Note_on_c, 9, 51, 55
4, 22069, Note_on_c, 9, 51, 0
4, 22080, Note_on_c, 9, 51, 61
4, 22106, Note_on_c, 9, 51, 0
4, 22139, Note_on_c, 9, 51, 77
4, 22160, Note_on_c, 9, 51, 0
4, 22182, Note_on_c, 9, 51, 50
4, 22187, Note_on_c, 9, 51, 0
4, 22198, Note_on_c, 9, 51, 59
4, 22228, Note_on_c, 9, 51, 0
4, 22259, Note_on_c, 9, 51, 79
4, 22278, Note_on_c, 9, 51, 0
4, 22318, Note_on_c, 9, 51, 78
4, 22333, Note_on_c, 9, 51, 0
4, 22360, Note_on_c, 9, 51, 52
4, 22365, Note_on_c, 9, 51, 0
4, 22377, Note_on_c, 9, 51, 70
4, 22408, Note_on_c, 9, 51, 0
4, 22436, Note_on_c, 9, 51, 82
4, 22456, Note_on_c, 9, 51, 0
4, 22496, Note_on_c, 9, 51, 80
4, 22518, Note_on_c, 9, 51, 0
4, 22556, Note_on_c, 9, 51, 77
4, 22577, Note_on_c, 9, 51, 0
4, 22615, Note_on_c, 9, 51, 77
4, 22631, Note_on_c, 9, 51, 0
4, 22664, Note_on_c, 9, 51, 44
4, 22668, Note_on_c, 9, 51, 0
4, 22680, Note_on_c, 9, 51, 70
4, 22704, Note_on_c, 9, 51, 0
4, 22739, Note_on_c, 9, 51, 81
4, 22756, Note_on_c, 9, 51, 0
4, 22782, Note_on_c, 9, 51, 38
4, 22786, Note_on_c, 9, 51, 0
4, 22796, Note_on_c, 9, 51, 55
4, 22820, Note_on_c, 9, 51, 0
4, 22853, Note_on_c, 9, 51, 82
4, 22870, Note_on_c, 9, 51, 0
4, 22914, Note_on_c, 9, 51, 64
4, 22938, Note_on_c, 9, 51, 0
4, 22976, Note_on_c, 9, 51, 76
4, 22992, Note_on_c, 9, 51, 0
4, 23023, Note_on_c, 9, 51, 46
4, 23027, Note_on_c, 9, 51, 0
4, 23037, Note_on_c, 9, 51, 65
4, 23065, Note_on_c, 9, 51, 0
4, 23098, Note_on_c, 9, 51, 82
4, 23118, Note_on_c, 9, 51, 0
4, 23160, Note_on_c, 9, 51, 82
4, 23179, Note_on_c, 9, 51, 0
4, 23220, Note_on_c, 9, 51, 77
4, 23236, Note_on_c, 9, 51, 0
4, 23261, Note_on_c, 9, 51, 47
4, 23267, Note_on_c, 9, 51, 0
4, 23280, Note_on_c, 9, 51, 74
4, 23304, Note_on_c, 9, 51, 0
4, 23342, Note_on_c, 9, 51, 79
4, 23358, Note_on_c, 9, 51, 0
4, 23402, Note_on_c, 9, 51, 77
4, 23422, Note_on_c, 9, 51, 0
4, 23461, Note_on_c, 9, 51, 80
4, 23476, Note_on_c, 9, 51, 0
4, 23519, Note_on_c, 9, 51, 71
4, 23540, Note_on_c, 9, 51, 0
4, 23581, Note_on_c, 9, 51, 81
4, 23594, Note_on_c, 9, 51, 0
4, 23625, Note_on_c, 9, 51, 38
4, 23632, Note_on_c, 9, 51, 0
4, 23640, Note_on_c, 9, 51, 72
4, 23665, Note_on_c, 9, 51, 0
4, 23701, Note_on_c, 9, 51, 77
4, 23719, Note_on_c, 9, 51, 0
4, 23762, Note_on_c, 9, 51, 55
4, 23786, Note_on_c, 9, 51, 0
4, 23822, Note_on_c, 9, 51, 83
4, 23849, Note_on_c, 9, 51, 0
4, 23867, Note_on_c, 9, 51, 36
4, 23871, Note_on_c, 9, 51, 0
4, 23881, Note_on_c, 9, 51, 58
4, 23903, Note_on_c, 9, 51, 0
4, 23920, Note_on_c, 9, 51, 38
4, 23925, Note_on_c, 9, 51, 0
4, 23938, Note_on_c, 9, 53, 85
4, 23968, Note_on_c, 9, 53, 0
4, 23980, Note_on_c, 9, 51, 65
4, 23988, Note_on_c, 9, 51, 0
4, 23998, Note_on_c, 9, 51, 53
4, 24023, Note_on_c, 9, 51, 0
4, 24045, Note_on_c, 9, 51, 48
4, 24049, Note_on_c, 9, 51, 0
4, 24062, Note_on_c, 9, 51, 60
4, 24104, Note_on_c, 9, 51, 0
4, 24121, Note_on_c, 9, 51, 37
4, 24138, Note_on_c, 9, 51, 0
4, 24163, Note_on_c, 9, 51, 28
4, 24168, Note_on_c, 9, 51, 0
4, 24180, Note_on_c, 9, 51, 75
4, 24220, Note_on_c, 9, 51, 0
4, 24240, Note_on_c, 9, 51, 75
4, 24270, Note_on_c, 9, 51, 0
4, 24299, Note_on_c, 9, 51, 90
4, 24331, Note_on_c, 9, 51, 0
4, 24346, Note_on_c, 9, 51, 35
4, 24350, Note_on_c, 9, 51, 0
4, 24359, Note_on_c, 9, 51, 50
4, 24396, Note_on_c, 9, 51, 0
4, 24418, Note_on_c, 9, 51, 86
4, 24443, Note_on_c, 9, 51, 0
4, 24463, Note_on_c, 9, 51, 35
4, 24468, Note_on_c, 9, 51, 0
4, 24480, Note_on_c, 9, 51, 57
4, 24516, Note_on_c, 9, 51, 0
4, 24541, Note_on_c, 9, 51, 85
4, 24570, Note_on_c, 9, 51, 0
4, 24587, Note_on_c, 9, 51, 44
4, 24591, Note_on_c, 9, 51, 0
4, 24601, Note_on_c, 9, 51, 54
4, 24636, Note_on_c, 9, 51, 0
4, 24663, Note_on_c, 9, 51, 83
4, 24693, Note_on_c, 9, 51, 0
4, 24705, Note_on_c, 9, 51, 32
4, 24717, Note_on_c, 9, 51, 0
4, 24721, Note_on_c, 9, 51, 45
4, 24756, Note_on_c, 9, 51, 0
4, 24778, Note_on_c, 9, 51, 82
4, 24810, Note_on_c, 9, 51, 0
4, 24821, Note_on_c, 9, 51, 44
4, 24830, Note_on_c, 9, 51, 0
4, 24838, Note_on_c, 9, 51, 67
4, 24871, Note_on_c, 9, 51, 0
4, 24899, Note_on_c, 9, 51, 85
4, 24927, Note_on_c, 9, 51, 0
4, 24942, Note_on_c, 9, 51, 40
4, 24948, Note_on_c, 9, 51, 0
4, 24959, Note_on_c, 9, 51, 57
4, 24990, Note_on_c, 9, 51, 0
4, 25020, Note_on_c, 9, 51, 84
4, 25049, Note_on_c, 9, 51, 0
4, 25065, Note_on_c, 9, 51, 45
4, 25071, Note_on_c, 9, 51, 0
4, 25079, Note_on_c, 9, 51, 71
4, 25115, Note_on_c, 9, 51, 0
4, 25138, Note_on_c, 9, 51, 80
4, 25166, Note_on_c, 9, 51, 0
4, 25182, Note_on_c, 9, 51, 38
4, 25190, Note_on_c, 9, 51, 0
4, 25198, Note_on_c, 9, 51, 75
4, 25230, Note_on_c, 9, 51, 0
4, 25259, Note_on_c, 9, 51, 80
4, 25294, Note_on_c, 9, 51, 0
4, 25320, Note_on_c, 9, 51, 78
4, 25345, Note_on_c, 9, 51, 0
4, 25365, Note_on_c, 9, 51, 37
4, 25370, Note_on_c, 9, 51, 0
4, 25379, Note_on_c, 9, 51, 73
4, 25418, Note_on_c, 9, 51, 0
4, 25439, Note_on_c, 9, 51, 74
4, 25472, Note_on_c, 9, 51, 0
4, 25484, Note_on_c, 9, 51, 44
4, 25490, Note_on_c, 9, 51, 0
4, 25501, Note_on_c, 9, 51, 60
4, 25534, Note_on_c, 9, 51, 0
4, 25560, Note_on_c, 9, 51, 80
4, 25588, Note_on_c, 9, 51, 0
4, 25622, Note_on_c, 9, 51, 81
4, 25648, Note_on_c, 9, 51, 0
4, 25668, Note_on_c, 9, 51, 45
4, 25674, Note_on_c, 9, 51, 0
4, 25682, Note_on_c, 9, 51, 68
4, 25716, Note_on_c, 9, 51, 0
4, 25742, Note_on_c, 9, 51, 79
4, 25767, Note_on_c, 9, 51, 0
4, 25786, Note_on_c, 9, 51, 51
4, 25794, Note_on_c, 9, 51, 0
4, 25802, Note_on_c, 9, 51, 62
4, 25828, Note_on_c, 9, 51, 0
4, 25843, Note_on_c, 9, 51, 46
4, 25848, Note_on_c, 9, 51, 0
4, 25859, Note_on_c, 9, 51, 67
4, 25880, Note_on_c, 9, 51, 0
4, 25900, Note_on_c, 9, 51, 60
4, 25905, Note_on_c, 9, 51, 0
4, 25917, Note_on_c, 9, 51, 61
4, 25927, Note_on_c, 9, 51, 0
4, 25959, Note_on_c, 9, 53, 82
4, 25969, Note_on_c, 9, 53, 0
4, 25977, Note_on_c, 9, 53, 64
4, 26016, Note_on_c, 9, 53, 0
4, 26018, Note_on_c, 9, 51, 43
4, 26022, Note_on_c, 9, 51, 0
4, 26035, Note_on_c, 9, 51, 51
4, 26067, Note_on_c, 9, 51, 0
4, 26085, Note_on_c, 9, 53, 85
4, 26143, Note_on_c, 9, 53, 0
4, 26146, Note_on_c, 9, 51, 47
4, 26154, Note_on_c, 9, 51, 0
4, 26164, Note_on_c, 9, 51, 59
4, 26208, Note_on_c, 9, 51, 0
4, 26229, Note_on_c, 9, 51, 44
4, 26238, Note_on_c, 9, 51, 0
4, 26265, Note_on_c, 9, 51, 72
4, 26307, Note_on_c, 9, 51, 0
4, 26324, Note_on_c, 9, 51, 45
4, 26329, Note_on_c, 9, 51, 0
4, 26344, Note_on_c, 9, 51, 75
4, 26385, Note_on_c, 9, 51, 0
4, 26442, Note_on_c, 9, 51, 49
4, 26447, Note_on_c, 9, 51, 0
4, 26460, Note_on_c, 9, 51, 59
4, 26497, Note_on_c, 9, 51, 0
4, 26521, Note_on_c, 9, 51, 77
4, 26545, Note_on_c, 9, 51, 0
4, 26563, Note_on_c, 9, 51, 55
4, 26575, Note_on_c, 9, 51, 0
4, 26585, Note_on_c, 9, 51, 33
4, 26591, Note_on_c, 9, 51, 0
4, 26621, Note_on_c, 9, 51, 82
4, 26655, Note_on_c, 9, 51, 0
4, 26680, Note_on_c, 9, 51, 50
4, 26689, Note_on_c, 9, 51, 0
4, 26700, Note_on_c, 9, 51, 70
4, 26730, Note_on_c, 9, 51, 0
4, 26737, Note_on_c, 9, 51, 80
4, 26774, Note_on_c, 9, 51, 0
4, 26797, Note_on_c, 9, 53, 85
4, 26811, Note_on_c, 9, 53, 0
4, 26853, Note_on_c, 9, 51, 57
4, 26865, Note_on_c, 9, 51, 0
4, 26876, Note_on_c, 9, 51, 60
4, 26906, Note_on_c, 9, 51, 0
4, 26915, Note_on_c, 9, 59, 74
4, 26931, Note_on_c, 9, 59, 0
4, 26934, Note_on_c, 9, 51, 34
4, 26975, Note_on_c, 9, 51, 0
4, 27000, Note_on_c, 9, 51, 59
4, 27035, Note_on_c, 9, 51, 0
4, 27067, Note_on_c, 9, 51, 38
4, 27071, Note_on_c, 9, 51, 0
4, 27105, Note_on_c, 9, 51, 77
4, 27135, Note_on_c, 9, 51, 0
4, 27163, Note_on_c, 9, 51, 25
4, 27171, Note_on_c, 9, 51, 0
4, 27185, Note_on_c, 9, 51, 57
4, 27213, Note_on_c, 9, 51, 0
4, 27221, Note_on_c, 9, 51, 62
4, 27239, Note_on_c, 9, 51, 0
4, 27282, Note_on_c, 9, 51, 38
4, 27288, Note_on_c, 9, 51, 0
4, 27299, Note_on_c, 9, 51, 64
4, 27327, Note_on_c, 9, 51, 0
4, 27340, Note_on_c, 9, 51, 78
4, 27388, Note_on_c, 9, 51, 0
4, 27400, Note_on_c, 9, 51, 34
4, 27405, Note_on_c, 9, 51, 0
4, 27417, Note_on_c, 9, 51, 59
4, 27442, Note_on_c, 9, 51, 0
4, 27458, Note_on_c, 9, 51, 58
4, 27468, Note_on_c, 9, 51, 0
4, 27477, Note_on_c, 9, 51, 60
4, 27492, Note_on_c, 9, 51, 0
4, 27515, Note_on_c, 9, 51, 55
4, 27517, Note_on_c, 9, 37, 37
4, 27523, Note_on_c, 9, 37, 0
4, 27531, Note_on_c, 9, 51, 0
4, 27575, Note_on_c, 9, 51, 33
4, 27580, Note_on_c, 9, 51, 0
4, 27594, Note_on_c, 9, 51, 70
4, 27642, Note_on_c, 9, 51, 0
4, 27659, Note_on_c, 9, 51, 38
4, 27680, Note_on_c, 9, 51, 0
4, 27698, Note_on_c, 9, 51, 77
4, 27736, Note_on_c, 9, 51, 0
4, 27760, Note_on_c, 9, 51, 27
4, 27768, Note_on_c, 9, 51, 0
4, 27780, Note_on_c, 9, 51, 78
4, 27808, Note_on_c, 9, 51, 0
4, 27818, Note_on_c, 9, 51, 68
4, 27867, Note_on_c, 9, 51, 0
4, 27876, Note_on_c, 9, 51, 35
4, 27882, Note_on_c, 9, 51, 0
4, 27898, Note_on_c, 9, 51, 64
4, 27900, Note_on_c, 9, 44, 38
4, 27918, Note_on_c, 9, 44, 0
4, 27937, Note_on_c, 9, 51, 0
4, 27958, Note_on_c, 9, 51, 56
4, 27987, Note_on_c, 9, 51, 0
4, 27999, Note_on_c, 9, 51, 28
4, 28008, Note_on_c, 9, 51, 0
4, 28017, Note_on_c, 9, 51, 56
4, 28044, Note_on_c, 9, 51, 0
4, 28058, Note_on_c, 9, 51, 77
4, 28111, Note_on_c, 9, 51, 0
4, 28127, Note_on_c, 9, 51, 35
4, 28131, Note_on_c, 9, 51, 0
4, 28143, Note_on_c, 9, 51, 55
4, 28174, Note_on_c, 9, 51, 0
4, 28201, Note_on_c, 9, 51, 67
4, 28229, Note_on_c, 9, 51, 0
4, 28257, Note_on_c, 9, 51, 74
4, 28280, Note_on_c, 9, 51, 0
4, 28300, Note_on_c, 9, 51, 43
4, 28306, Note_on_c, 9, 51, 0
4, 28315, Note_on_c, 9, 51, 53
4, 28345, Note_on_c, 9, 51, 0
4, 28374, Note_on_c, 9, 51, 69
4, 28420, Note_on_c, 9, 51, 0
4, 28438, Note_on_c, 9, 51, 29
4, 28445, Note_on_c, 9, 51, 0
4, 28475, Note_on_c, 9, 51, 42
4, 28481, Note_on_c, 9, 51, 0
4, 28493, Note_on_c, 9, 51, 44
4, 28521, Note_on_c, 9, 51, 0
4, 28532, Note_on_c, 9, 51, 37
4, 28542, Note_on_c, 9, 51, 0
4, 28617, Note_on_c, 9, 51, 51
4, 28656, Note_on_c, 9, 51, 0
4, 28720, Note_on_c, 9, 51, 30
4, 28726, Note_on_c, 9, 51, 0
4, 28738, Note_on_c, 9, 51, 42
4, 28768, Note_on_c, 9, 51, 0
4, 28780, Note_on_c, 9, 51, 39
4, 28833, Note_on_c, 9, 51, 0
4, 28841, Note_on_c, 9, 53, 47
4, 28854, Note_on_c, 9, 53, 0
4, 28866, Note_on_c, 9, 51, 21
4, 28895, Note_on_c, 9, 51, 0
4, 28959, Note_on_c, 9, 53, 55
4, 28971, Note_on_c, 9, 53, 0
4, 28983, Note_on_c, 9, 51, 30
4, 29002, Note_on_c, 9, 51, 0
4, 29040, Note_on_c, 9, 51, 28
4, 29048, Note_on_c, 9, 51, 0
4, 29085, Note_on_c, 9, 53, 48
4, 29099, Note_on_c, 9, 53, 0
4, 29108, Note_on_c, 9, 51, 19
4, 29130, Note_on_c, 9, 51, 0
4, 29145, Note_on_c, 9, 51, 25
4, 29154, Note_on_c, 9, 51, 0
4, 29165, Note_on_c, 9, 51, 35
4, 29173, Note_on_c, 9, 51, 0
4, 29203, Note_on_c, 9, 51, 51
4, 29212, Note_on_c, 9, 51, 0
4, 29264, Note_on_c, 9, 51, 21
4, 29272, Note_on_c, 9, 51, 0
4, 29283, Note_on_c, 9, 51, 37
4, 29306, Note_on_c, 9, 51, 0
4, 29382, Note_on_c, 9, 51, 21
4, 29388, Note_on_c, 9, 51, 0
4, 29401, Note_on_c, 9, 51, 29
4, 29423, Note_on_c, 9, 51, 0
4, 29515, Note_on_c, 9, 51, 36
4, 29540, Note_on_c, 9, 51, 0
4, 29616, Note_on_c, 9, 51, 29
4, 29625, Note_on_c, 9, 51, 0
4, 29633, Note_on_c, 9, 51, 33
4, 29661, Note_on_c, 9, 51, 0
4, 29689, Note_on_c, 9, 51, 25
4, 29726, Note_on_c, 9, 51, 0
4, 29738, Note_on_c, 9, 51, 37
4, 29745, Note_on_c, 9, 51, 0
4, 29757, Note_on_c, 9, 51, 30
4, 29808, Note_on_c, 9, 51, 0
4, 29808, End_track
5, 0, Start_track
5, 0, MIDI_port, 0
5, 2869, Note_on_c, 9, 35, 45
5, 2879, Note_on_c, 9, 35, 0
5, 2891, Note_on_c, 9, 35, 51
5, 3007, Note_on_c, 9, 46, 53
5, 3019, Note_on_c, 9, 46, 0
5, 3103, Note_on_c, 9, 35, 0
5, 3277, Note_on_c, 9, 46, 46
5, 3283, Note_on_c, 9, 46, 0
5, 3300, Note_on_c, 9, 46, 31
5, 3313, Note_on_c, 9, 46, 0
5, 3337, Note_on_c, 9, 46, 75
5, 3346, Note_on_c, 9, 46, 0
5, 3459, Note_on_c, 9, 35, 38
5, 3466, Note_on_c, 9, 35, 0
5, 3481, Note_on_c, 9, 35, 53
5, 3494, Note_on_c, 9, 35, 0
5, 3582, Note_on_c, 9, 35, 54
5, 3586, Note_on_c, 9, 35, 0
5, 3760, Note_on_c, 9, 34, 52
5, 3765, Note_on_c, 9, 34, 0
5, 3821, Note_on_c, 9, 34, 57
5, 3832, Note_on_c, 9, 34, 0
5, 3842, Note_on_c, 9, 35, 49
5, 3871, Note_on_c, 9, 35, 0
5, 3946, Note_on_c, 9, 35, 41
5, 3951, Note_on_c, 9, 35, 0
5, 4183, Note_on_c, 9, 44, 43
5, 4187, Note_on_c, 9, 44, 0
5, 4245, Note_on_c, 9, 44, 49
5, 4250, Note_on_c, 9, 44, 0
5, 4303, Note_on_c, 9, 44, 67
5, 4311, Note_on_c, 9, 44, 0
5, 4327, Note_on_c, 9, 35, 54
5, 4334, Note_on_c, 9, 35, 0
5, 4426, Note_on_c, 9, 35, 46
5, 4431, Note_on_c, 9, 35, 0
5, 4721, Note_on_c, 9, 44, 58
5, 4725, Note_on_c, 9, 44, 0
5, 4779, Note_on_c, 9, 44, 76
5, 4786, Note_on_c, 9, 44, 0
5, 4800, Note_on_c, 9, 35, 42
5, 4814, Note_on_c, 9, 35, 0
5, 4839, Note_on_c, 9, 35, 64
5, 4846, Note_on_c, 9, 35, 0
5, 4961, Note_on_c, 9, 35, 45
5, 4966, Note_on_c, 9, 35, 0
5, 4984, Note_on_c, 9, 44, 23
5, 4997, Note_on_c, 9, 44, 0
5, 5018, Note_on_c, 9, 46, 72
5, 5034, Note_on_c, 9, 46, 0
5, 5044, Note_on_c, 9, 46, 43
5, 5058, Note_on_c, 9, 46, 0
5, 5143, Note_on_c, 9, 35, 50
5, 5148, Note_on_c, 9, 35, 0
5, 5165, Note_on_c, 9, 35, 51
5, 5191, Note_on_c, 9, 35, 0
5, 5201, Note_on_c, 9, 35, 51
5, 5209, Note_on_c, 9, 35, 0
5, 5375, Note_on_c, 9, 44, 57
5, 5379, Note_on_c, 9, 44, 0
5, 5438, Note_on_c, 9, 44, 60
5, 5442, Note_on_c, 9, 44, 0
5, 5503, Note_on_c, 9, 44, 60
5, 5508, Note_on_c, 9, 44, 0
5, 5620, Note_on_c, 9, 44, 48
5, 5625, Note_on_c, 9, 44, 0
5, 5641, Note_on_c, 9, 44, 40
5, 5656, Note_on_c, 9, 44, 0
5, 5677, Note_on_c, 9, 42, 62
5, 5687, Note_on_c, 9, 42, 0
5, 5701, Note_on_c, 9, 46, 45
5, 5715, Note_on_c, 9, 46, 0
5, 5736, Note_on_c, 9, 46, 80
5, 5757, Note_on_c, 9, 46, 0
5, 5857, Note_on_c, 9, 44, 32
5, 5862, Note_on_c, 9, 44, 0
5, 5876, Note_on_c, 9, 44, 40
5, 5886, Note_on_c, 9, 44, 0
5, 6102, Note_on_c, 9, 35, 34
5, 6107, Note_on_c, 9, 35, 0
5, 6227, Note_on_c, 9, 35, 62
5, 6231, Note_on_c, 9, 35, 0
5, 6287, Note_on_c, 9, 44, 37
5, 6293, Note_on_c, 9, 44, 0
5, 6369, Note_on_c, 9, 44, 37
5, 6377, Note_on_c, 9, 44, 0
5, 6694, Note_on_c, 9, 40, 68
5, 6702, Note_on_c, 9, 40, 0
5, 6717, Note_on_c, 9, 44, 33
5, 6744, Note_on_c, 9, 44, 0
5, 6756, Note_on_c, 9, 44, 35
5, 6760, Note_on_c, 9, 44, 0
5, 6841, Note_on_c, 9, 44, 29
5, 6849, Note_on_c, 9, 44, 0
5, 6938, Note_on_c, 9, 35, 56
5, 6947, Note_on_c, 9, 35, 0
5, 6959, Note_on_c, 9, 35, 46
5, 6987, Note_on_c, 9, 35, 0
5, 7057, Note_on_c, 9, 35, 49
5, 7062, Note_on_c, 9, 35, 0
5, 7237, Note_on_c, 9, 40, 36
5, 7242, Note_on_c, 9, 40, 0
5, 7260, Note_on_c, 9, 35, 34
5, 7282, Note_on_c, 9, 35, 0
5, 7297, Note_on_c, 9, 35, 31
5, 7305, Note_on_c, 9, 35, 0
5, 7458, Note_on_c, 9, 44, 62
5, 7465, Note_on_c, 9, 44, 0
5, 7479, Note_on_c, 9, 44, 60
5, 7484, Note_on_c, 9, 44, 0
5, 7501, Note_on_c, 9, 44, 72
5, 7505, Note_on_c, 9, 44, 0
5, 7538, Note_on_c, 9, 35, 59
5, 7545, Note_on_c, 9, 35, 0
5, 7595, Note_on_c, 9, 44, 74
5, 7602, Note_on_c, 9, 44, 0
5, 7617, Note_on_c, 9, 40, 46
5, 7622, Note_on_c, 9, 40, 0
5, 7651, Note_on_c, 9, 35, 64
5, 7660, Note_on_c, 9, 35, 0
5, 7673, Note_on_c, 9, 46, 69
5, 7692, Note_on_c, 9, 46, 0
5, 7800, Note_on_c, 9, 46, 61
5, 7808, Note_on_c, 9, 46, 0
5, 7901, Note_on_c, 9, 35, 34
5, 7906, Note_on_c, 9, 35, 0
5, 7921, Note_on_c, 9, 46, 46
5, 7947, Note_on_c, 9, 46, 0
5, 8022, Note_on_c, 9, 40, 48
5, 8026, Note_on_c, 9, 40, 0
5, 8047, Note_on_c, 9, 40, 37
5, 8053, Note_on_c, 9, 40, 0
5, 8085, Note_on_c, 9, 40, 59
5, 8089, Note_on_c, 9, 40, 0
5, 8136, Note_on_c, 9, 40, 67
5, 8144, Note_on_c, 9, 40, 0
5, 8153, Note_on_c, 9, 40, 68
5, 8162, Note_on_c, 9, 40, 0
5, 8176, Note_on_c, 9, 35, 55
5, 8181, Note_on_c, 9, 35, 0
5, 8268, Note_on_c, 9, 35, 51
5, 8274, Note_on_c, 9, 35, 0
5, 8540, Note_on_c, 9, 44, 58
5, 8546, Note_on_c, 9, 44, 0
5, 8557, Note_on_c, 9, 44, 52
5, 8565, Note_on_c, 9, 44, 0
5, 8582, Note_on_c, 9, 44, 72
5, 8595, Note_on_c, 9, 44, 0
5, 8617, Note_on_c, 9, 35, 61
5, 8629, Note_on_c, 9, 35, 0
5, 8638, Note_on_c, 9, 35, 51
5, 8667, Note_on_c, 9, 35, 0
5, 8678, Note_on_c, 9, 35, 50
5, 8685, Note_on_c, 9, 35, 0
5, 8760, Note_on_c, 9, 35, 50
5, 8765, Note_on_c, 9, 35, 0
5, 8918, Note_on_c, 9, 44, 38
5, 8922, Note_on_c, 9, 44, 0
5, 8978, Note_on_c, 9, 44, 59
5, 8982, Note_on_c, 9, 44, 0
5, 9038, Note_on_c, 9, 40, 63
5, 9043, Note_on_c, 9, 40, 0
5, 9061, Note_on_c, 9, 35, 43
5, 9082, Note_on_c, 9, 35, 0
5, 9096, Note_on_c, 9, 35, 45
5, 9104, Note_on_c, 9, 35, 0
5, 9212, Note_on_c, 9, 46, 55
5, 9222, Note_on_c, 9, 46, 0
5, 9238, Note_on_c, 9, 44, 21
5, 9258, Note_on_c, 9, 44, 0
5, 9270, Note_on_c, 9, 44, 46
5, 9279, Note_on_c, 9, 44, 0
5, 9395, Note_on_c, 9, 46, 45
5, 9406, Note_on_c, 9, 46, 0
5, 9417, Note_on_c, 9, 44, 37
5, 9421, Note_on_c, 9, 44, 0
5, 9454, Note_on_c, 9, 35, 64
5, 9458, Note_on_c, 9, 35, 0
5, 9579, Note_on_c, 9, 46, 56
5, 9586, Note_on_c, 9, 46, 0
5, 9599, Note_on_c, 9, 35, 37
5, 9605, Note_on_c, 9, 35, 0
5, 9642, Note_on_c, 9, 35, 47
5, 9648, Note_on_c, 9, 35, 0
5, 9725, Note_on_c, 9, 35, 53
5, 9731, Note_on_c, 9, 35, 0
5, 9885, Note_on_c, 9, 46, 53
5, 9898, Note_on_c, 9, 46, 0
5, 9947, Note_on_c, 9, 35, 51
5, 9954, Note_on_c, 9, 35, 0
5, 9972, Note_on_c, 9, 35, 36
5, 9978, Note_on_c, 9, 35, 0
5, 10007, Note_on_c, 9, 35, 37
5, 10013, Note_on_c, 9, 35, 0
5, 10085, Note_on_c, 9, 35, 50
5, 10091, Note_on_c, 9, 35, 0
5, 10127, Note_on_c, 9, 35, 44
5, 10133, Note_on_c, 9, 35, 0
5, 10301, Note_on_c, 9, 44, 34
5, 10306, Note_on_c, 9, 44, 0
5, 10319, Note_on_c, 9, 44, 37
5, 10345, Note_on_c, 9, 44, 0
5, 10359, Note_on_c, 9, 44, 47
5, 10364, Note_on_c, 9, 44, 0
5, 10441, Note_on_c, 9, 44, 34
5, 10446, Note_on_c, 9, 44, 0
5, 10502, Note_on_c, 9, 35, 32
5, 10507, Note_on_c, 9, 35, 0
5, 10540, Note_on_c, 9, 35, 62
5, 10549, Note_on_c, 9, 35, 0
5, 10560, Note_on_c, 9, 35, 54
5, 10571, Note_on_c, 9, 35, 0
5, 10600, Note_on_c, 9, 44, 55
5, 10605, Note_on_c, 9, 44, 0
5, 10721, Note_on_c, 9, 35, 38
5, 10727, Note_on_c, 9, 35, 0
5, 10780, Note_on_c, 9, 44, 47
5, 10788, Note_on_c, 9, 44, 0
5, 10843, Note_on_c, 9, 35, 31
5, 10848, Note_on_c, 9, 35, 0
5, 10861, Note_on_c, 9, 44, 32
5, 10879, Note_on_c, 9, 44, 0
5, 10897, Note_on_c, 9, 44, 54
5, 10907, Note_on_c, 9, 44, 0
5, 10962, Note_on_c, 9, 35, 47
5, 10967, Note_on_c, 9, 35, 0
5, 10981, Note_on_c, 9, 44, 49
5, 11004, Note_on_c, 9, 44, 0
5, 11017, Note_on_c, 9, 44, 53
5, 11025, Note_on_c, 9, 44, 0
5, 11081, Note_on_c, 9, 35, 30
5, 11086, Note_on_c, 9, 35, 0
5, 11135, Note_on_c, 9, 44, 55
5, 11141, Note_on_c, 9, 44, 0
5, 11197, Note_on_c, 9, 35, 50
5, 11204, Note_on_c, 9, 35, 0
5, 11228, Note_on_c, 9, 29, 28
5, 11317, Note_on_c, 9, 35, 46
5, 11322, Note_on_c, 9, 35, 0
5, 11337, Note_on_c, 9, 44, 29
5, 11342, Note_on_c, 9, 44, 0
5, 11377, Note_on_c, 9, 44, 65
5, 11379, Note_on_c, 9, 35, 55
5, 11383, Note_on_c, 9, 44, 0
5, 11385, Note_on_c, 9, 35, 0
5, 11421, Note_on_c, 9, 29, 0
5, 11437, Note_on_c, 9, 29, 60
5, 11449, Note_on_c, 9, 29, 0
5, 11456, Note_on_c, 9, 29, 31
5, 11460, Note_on_c, 9, 34, 67
5, 11498, Note_on_c, 9, 34, 0
5, 11498, Note_on_c, 9, 29, 0
5, 11499, Note_on_c, 9, 35, 94
5, 11665, Note_on_c, 9, 35, 0
5, 11676, Note_on_c, 9, 35, 54
5, 11684, Note_on_c, 9, 35, 0
5, 11918, Note_on_c, 9, 34, 77
5, 11928, Note_on_c, 9, 34, 0
5, 11970, Note_on_c, 9, 34, 71
5, 11981, Note_on_c, 9, 34, 0
5, 11988, Note_on_c, 9, 34, 53
5, 11998, Note_on_c, 9, 34, 0
5, 12006, Note_on_c, 9, 35, 82
5, 12007, Note_on_c, 9, 57, 60
5, 12030, Note_on_c, 9, 57, 0
5, 12044, Note_on_c, 9, 35, 0
5, 12158, Note_on_c, 9, 34, 55
5, 12169, Note_on_c, 9, 34, 0
5, 12179, Note_on_c, 9, 35, 37
5, 12208, Note_on_c, 9, 35, 0
5, 12217, Note_on_c, 9, 35, 53
5, 12227, Note_on_c, 9, 35, 0
5, 12375, Note_on_c, 9, 40, 36
5, 12383, Note_on_c, 9, 40, 0
5, 12395, Note_on_c, 9, 40, 29
5, 12402, Note_on_c, 9, 40, 0
5, 12444, Note_on_c, 9, 40, 46
5, 12450, Note_on_c, 9, 40, 0
5, 12456, Note_on_c, 9, 40, 34
5, 12462, Note_on_c, 9, 40, 0
5, 12476, Note_on_c, 9, 35, 34
5, 12487, Note_on_c, 9, 35, 0
5, 12494, Note_on_c, 9, 35, 17
5, 12504, Note_on_c, 9, 35, 0
5, 12578, Note_on_c, 9, 35, 57
5, 12586, Note_on_c, 9, 35, 0
5, 12703, Note_on_c, 9, 35, 52
5, 12708, Note_on_c, 9, 35, 0
5, 12878, Note_on_c, 9, 40, 58
5, 12882, Note_on_c, 9, 40, 0
5, 12898, Note_on_c, 9, 35, 28
5, 12915, Note_on_c, 9, 35, 0
5, 12937, Note_on_c, 9, 35, 60
5, 12950, Note_on_c, 9, 35, 0
5, 13320, Note_on_c, 9, 35, 24
5, 13325, Note_on_c, 9, 35, 0
5, 13356, Note_on_c, 9, 35, 74
5, 13373, Note_on_c, 9, 35, 0
5, 13436, Note_on_c, 9, 35, 54
5, 13448, Note_on_c, 9, 35, 0
5, 13656, Note_on_c, 9, 34, 45
5, 13665, Note_on_c, 9, 34, 0
5, 13678, Note_on_c, 9, 35, 54
5, 13708, Note_on_c, 9, 35, 0
5, 13718, Note_on_c, 9, 35, 45
5, 13731, Note_on_c, 9, 35, 0
5, 13896, Note_on_c, 9, 35, 40
5, 13905, Note_on_c, 9, 35, 0
5, 13919, Note_on_c, 9, 35, 26
5, 13945, Note_on_c, 9, 35, 0
5, 14012, Note_on_c, 9, 35, 52
5, 14018, Note_on_c, 9, 35, 0
5, 14033, Note_on_c, 9, 35, 36
5, 14054, Note_on_c, 9, 35, 0
5, 14071, Note_on_c, 9, 40, 58
5, 14077, Note_on_c, 9, 40, 0
5, 14091, Note_on_c, 9, 35, 32
5, 14099, Note_on_c, 9, 35, 0
5, 14129, Note_on_c, 9, 35, 53
5, 14142, Note_on_c, 9, 35, 0
5, 14336, Note_on_c, 9, 37, 68
5, 14347, Note_on_c, 9, 37, 0
5, 14373, Note_on_c, 9, 35, 39
5, 14380, Note_on_c, 9, 35, 0
5, 14394, Note_on_c, 9, 35, 36
5, 14418, Note_on_c, 9, 35, 0
5, 14436, Note_on_c, 9, 35, 42
5, 14442, Note_on_c, 9, 35, 0
5, 14516, Note_on_c, 9, 35, 42
5, 14522, Note_on_c, 9, 35, 0
5, 14612, Note_on_c, 9, 35, 51
5, 14617, Note_on_c, 9, 35, 0
5, 14853, Note_on_c, 9, 35, 49
5, 14864, Note_on_c, 9, 35, 0
5, 14872, Note_on_c, 9, 35, 34
5, 14904, Note_on_c, 9, 35, 0
5, 14976, Note_on_c, 9, 35, 56
5, 14981, Note_on_c, 9, 35, 0
5, 15057, Note_on_c, 9, 35, 65
5, 15060, Note_on_c, 9, 36, 43
5, 15064, Note_on_c, 9, 36, 0
5, 15096, Note_on_c, 9, 35, 0
5, 15276, Note_on_c, 9, 34, 64
5, 15342, Note_on_c, 9, 35, 74
5, 15345, Note_on_c, 9, 34, 0
5, 15350, Note_on_c, 9, 35, 0
5, 15360, Note_on_c, 9, 35, 68
5, 15402, Note_on_c, 9, 35, 0
5, 15459, Note_on_c, 9, 35, 33
5, 15465, Note_on_c, 9, 35, 0
5, 15477, Note_on_c, 9, 35, 45
5, 15512, Note_on_c, 9, 35, 0
5, 15584, Note_on_c, 9, 35, 22
5, 15592, Note_on_c, 9, 35, 0
5, 15624, Note_on_c, 9, 40, 50
5, 15629, Note_on_c, 9, 40, 0
5, 15642, Note_on_c, 9, 40, 42
5, 15652, Note_on_c, 9, 40, 0
5, 15667, Note_on_c, 9, 35, 33
5, 15686, Note_on_c, 9, 35, 0
5, 15717, Note_on_c, 9, 40, 36
5, 15725, Note_on_c, 9, 40, 0
5, 15738, Note_on_c, 9, 40, 53
5, 15744, Note_on_c, 9, 40, 0
5, 15758, Note_on_c, 9, 35, 50
5, 15772, Note_on_c, 9, 35, 0
5, 15795, Note_on_c, 9, 40, 58
5, 15804, Note_on_c, 9, 40, 0
5, 15814, Note_on_c, 9, 40, 60
5, 15822, Note_on_c, 9, 40, 0
5, 15836, Note_on_c, 9, 35, 43
5, 15855, Note_on_c, 9, 35, 0
5, 15941, Note_on_c, 9, 35, 43
5, 15947, Note_on_c, 9, 35, 0
5, 15961, Note_on_c, 9, 35, 43
5, 15977, Note_on_c, 9, 35, 0
5, 16197, Note_on_c, 9, 40, 55
5, 16226, Note_on_c, 9, 40, 0
5, 16237, Note_on_c, 9, 40, 54
5, 16241, Note_on_c, 9, 40, 0
5, 16296, Note_on_c, 9, 40, 54
5, 16300, Note_on_c, 9, 40, 0
5, 16354, Note_on_c, 9, 35, 47
5, 16359, Note_on_c, 9, 35, 0
5, 16438, Note_on_c, 9, 35, 43
5, 16444, Note_on_c, 9, 35, 0
5, 16741, Note_on_c, 9, 40, 13
5, 16768, Note_on_c, 9, 40, 0
5, 16778, Note_on_c, 9, 40, 54
5, 16786, Note_on_c, 9, 40, 0
5, 16857, Note_on_c, 9, 46, 29
5, 16886, Note_on_c, 9, 46, 0
5, 16961, Note_on_c, 9, 46, 72
5, 17011, Note_on_c, 9, 46, 0
5, 17043, Note_on_c, 9, 46, 86
5, 17090, Note_on_c, 9, 46, 0
5, 17139, Note_on_c, 9, 46, 87
5, 17195, Note_on_c, 9, 46, 0
5, 17196, Note_on_c, 9, 40, 62
5, 17200, Note_on_c, 9, 40, 0
5, 17214, Note_on_c, 9, 46, 64
5, 17215, Note_on_c, 9, 40, 71
5, 17243, Note_on_c, 9, 40, 0
5, 17250, Note_on_c, 9, 34, 75
5, 17251, Note_on_c, 9, 46, 0
5, 17267, Note_on_c, 9, 34, 0
5, 17271, Note_on_c, 9, 35, 74
5, 17272, Note_on_c, 9, 40, 71
5, 17272, Note_on_c, 9, 46, 55
5, 17287, Note_on_c, 9, 46, 0
5, 17297, Note_on_c, 9, 40, 0
5, 17301, Note_on_c, 9, 35, 0
5, 17703, Note_on_c, 9, 40, 31
5, 17730, Note_on_c, 9, 40, 0
5, 17742, Note_on_c, 9, 40, 43
5, 17754, Note_on_c, 9, 40, 0
5, 17766, Note_on_c, 9, 40, 44
5, 17787, Note_on_c, 9, 40, 0
5, 17905, Note_on_c, 9, 40, 49
5, 17910, Note_on_c, 9, 40, 0
5, 17919, Note_on_c, 9, 40, 53
5, 17924, Note_on_c, 9, 40, 0
5, 17943, Note_on_c, 9, 35, 32
5, 17957, Note_on_c, 9, 35, 0
5, 18045, Note_on_c, 9, 35, 42
5, 18050, Note_on_c, 9, 35, 0
5, 18183, Note_on_c, 9, 35, 33
5, 18208, Note_on_c, 9, 35, 0
5, 18224, Note_on_c, 9, 35, 46
5, 18237, Note_on_c, 9, 35, 0
5, 18421, Note_on_c, 9, 40, 27
5, 18445, Note_on_c, 9, 40, 0
5, 18458, Note_on_c, 9, 40, 53
5, 18463, Note_on_c, 9, 40, 0
5, 18543, Note_on_c, 9, 35, 36
5, 18549, Note_on_c, 9, 35, 0
5, 19004, Note_on_c, 9, 35, 29
5, 19009, Note_on_c, 9, 35, 0
5, 19060, Note_on_c, 9, 35, 60
5, 19068, Note_on_c, 9, 35, 0
5, 19119, Note_on_c, 9, 35, 68
5, 19130, Note_on_c, 9, 35, 0
5, 19141, Note_on_c, 9, 35, 57
5, 19152, Note_on_c, 9, 35, 0
5, 19177, Note_on_c, 9, 34, 70
5, 19200, Note_on_c, 9, 35, 62
5, 19209, Note_on_c, 9, 34, 0
5, 19211, Note_on_c, 9, 45, 28
5, 19232, Note_on_c, 9, 35, 0
5, 19233, Note_on_c, 9, 45, 0
5, 19361, Note_on_c, 9, 32, 47
5, 19363, Note_on_c, 9, 34, 47
5, 19374, Note_on_c, 9, 32, 0
5, 19376, Note_on_c, 9, 34, 0
5, 19380, Note_on_c, 9, 45, 71
5, 19381, Note_on_c, 9, 35, 58
5, 19416, Note_on_c, 9, 45, 0
5, 19420, Note_on_c, 9, 35, 0
5, 19662, Note_on_c, 9, 34, 44
5, 19672, Note_on_c, 9, 34, 0
5, 19682, Note_on_c, 9, 35, 41
5, 19724, Note_on_c, 9, 35, 0
5, 19847, Note_on_c, 9, 35, 33
5, 19852, Note_on_c, 9, 35, 0
5, 19864, Note_on_c, 9, 37, 79
5, 19894, Note_on_c, 9, 37, 0
5, 20085, Note_on_c, 9, 35, 27
5, 20090, Note_on_c, 9, 35, 0
5, 20102, Note_on_c, 9, 37, 67
5, 20133, Note_on_c, 9, 37, 0
5, 20142, Note_on_c, 9, 37, 53
5, 20151, Note_on_c, 9, 37, 0
5, 20202, Note_on_c, 9, 34, 46
5, 20211, Note_on_c, 9, 34, 0
5, 20221, Note_on_c, 9, 35, 51
5, 20257, Note_on_c, 9, 35, 0
5, 20556, Note_on_c, 9, 32, 50
5, 20571, Note_on_c, 9, 32, 0
5, 20575, Note_on_c, 9, 56, 32
5, 20576, Note_on_c, 9, 34, 50
5, 20606, Note_on_c, 9, 56, 0
5, 20608, Note_on_c, 9, 34, 0
5, 20615, Note_on_c, 9, 57, 64
5, 20615, Note_on_c, 9, 35, 71
5, 20802, Note_on_c, 9, 35, 0
5, 20802, Note_on_c, 9, 57, 0
5, 20919, Note_on_c, 9, 40, 47
5, 20925, Note_on_c, 9, 40, 0
5, 20979, Note_on_c, 9, 40, 70
5, 20990, Note_on_c, 9, 40, 0
5, 21040, Note_on_c, 9, 40, 77
5, 21049, Note_on_c, 9, 40, 0
5, 21098, Note_on_c, 9, 40, 72
5, 21103, Note_on_c, 9, 34, 69
5, 21109, Note_on_c, 9, 40, 0
5, 21121, Note_on_c, 9, 57, 49
5, 21122, Note_on_c, 9, 34, 0
5, 21125, Note_on_c, 9, 35, 62
5, 21126, Note_on_c, 9, 36, 42
5, 21131, Note_on_c, 9, 36, 0
5, 21145, Note_on_c, 9, 57, 0
5, 21163, Note_on_c, 9, 35, 0
5, 21263, Note_on_c, 9, 40, 71
5, 21283, Note_on_c, 9, 34, 70
5, 21289, Note_on_c, 9, 40, 0
5, 21303, Note_on_c, 9, 34, 0
5, 21304, Note_on_c, 9, 57, 72
5, 21304, Note_on_c, 9, 35, 82
5, 21334, Note_on_c, 9, 57, 0
5, 21341, Note_on_c, 9, 35, 0
5, 21762, Note_on_c, 9, 35, 33
5, 21767, Note_on_c, 9, 35, 0
5, 21780, Note_on_c, 9, 35, 26
5, 21809, Note_on_c, 9, 35, 0
5, 21823, Note_on_c, 9, 35, 36
5, 21829, Note_on_c, 9, 35, 0
5, 22059, Note_on_c, 9, 40, 59
5, 22063, Note_on_c, 9, 40, 0
5, 22079, Note_on_c, 9, 35, 41
5, 22087, Note_on_c, 9, 35, 0
5, 22559, Note_on_c, 9, 40, 49
5, 22565, Note_on_c, 9, 40, 0
5, 22595, Note_on_c, 9, 34, 55
5, 22607, Note_on_c, 9, 34, 0
5, 22617, Note_on_c, 9, 35, 38
5, 22651, Note_on_c, 9, 35, 0
5, 23036, Note_on_c, 9, 34, 44
5, 23049, Note_on_c, 9, 34, 0
5, 23074, Note_on_c, 9, 34, 54
5, 23095, Note_on_c, 9, 34, 0
5, 23100, Note_on_c, 9, 35, 51
5, 23143, Note_on_c, 9, 35, 0
5, 23706, Note_on_c, 9, 40, 15
5, 23718, Note_on_c, 9, 40, 0
5, 23743, Note_on_c, 9, 34, 60
5, 23758, Note_on_c, 9, 34, 0
5, 23766, Note_on_c, 9, 35, 50
5, 23790, Note_on_c, 9, 35, 0
5, 23802, Note_on_c, 9, 35, 47
5, 23814, Note_on_c, 9, 35, 0
5, 23880, Note_on_c, 9, 35, 44
5, 23894, Note_on_c, 9, 35, 0
5, 23980, Note_on_c, 9, 35, 47
5, 23986, Note_on_c, 9, 35, 0
5, 24525, Note_on_c, 9, 46, 40
5, 24532, Note_on_c, 9, 46, 0
5, 24563, Note_on_c, 9, 46, 57
5, 24578, Note_on_c, 9, 46, 0
5, 24605, Note_on_c, 9, 46, 65
5, 24620, Note_on_c, 9, 46, 0
5, 24644, Note_on_c, 9, 40, 54
5, 24650, Note_on_c, 9, 40, 0
5, 24681, Note_on_c, 9, 34, 58
5, 24689, Note_on_c, 9, 34, 0
5, 24698, Note_on_c, 9, 34, 63
5, 24711, Note_on_c, 9, 34, 0
5, 24721, Note_on_c, 9, 35, 60
5, 24745, Note_on_c, 9, 35, 0
5, 24937, Note_on_c, 9, 35, 48
5, 24950, Note_on_c, 9, 35, 0
5, 24959, Note_on_c, 9, 45, 33
5, 24961, Note_on_c, 9, 40, 38
5, 24980, Note_on_c, 9, 40, 0
5, 24984, Note_on_c, 9, 45, 0
5, 25116, Note_on_c, 9, 40, 60
5, 25131, Note_on_c, 9, 40, 0
5, 25141, Note_on_c, 9, 35, 32
5, 25146, Note_on_c, 9, 45, 24
5, 25161, Note_on_c, 9, 35, 0
5, 25166, Note_on_c, 9, 45, 0
5, 25178, Note_on_c, 9, 45, 45
5, 25181, Note_on_c, 9, 35, 35
5, 25184, Note_on_c, 9, 45, 0
5, 25189, Note_on_c, 9, 35, 0
5, 25416, Note_on_c, 9, 40, 50
5, 25425, Note_on_c, 9, 40, 0
5, 25435, Note_on_c, 9, 46, 30
5, 25437, Note_on_c, 9, 35, 40
5, 25455, Note_on_c, 9, 35, 0
5, 25458, Note_on_c, 9, 46, 0
5, 25540, Note_on_c, 9, 46, 67
5, 25542, Note_on_c, 9, 35, 51
5, 25547, Note_on_c, 9, 46, 0
5, 25548, Note_on_c, 9, 35, 0
5, 25899, Note_on_c, 9, 34, 38
5, 25907, Note_on_c, 9, 34, 0
5, 25961, Note_on_c, 9, 35, 51
5, 25968, Note_on_c, 9, 35, 0
5, 25984, Note_on_c, 9, 35, 31
5, 25998, Note_on_c, 9, 35, 0
5, 26048, Note_on_c, 9, 35, 30
5, 26057, Note_on_c, 9, 35, 0
5, 26147, Note_on_c, 9, 35, 20
5, 26153, Note_on_c, 9, 35, 0
5, 26165, Note_on_c, 9, 35, 43
5, 26171, Note_on_c, 9, 35, 0
5, 26295, Note_on_c, 9, 44, 34
5, 26304, Note_on_c, 9, 44, 0
5, 26339, Note_on_c, 9, 44, 60
5, 26345, Note_on_c, 9, 44, 0
5, 26381, Note_on_c, 9, 44, 78
5, 26389, Note_on_c, 9, 44, 0
5, 26421, Note_on_c, 9, 44, 86
5, 26431, Note_on_c, 9, 44, 0
5, 26462, Note_on_c, 9, 44, 88
5, 26472, Note_on_c, 9, 44, 0
5, 26499, Note_on_c, 9, 34, 61
5, 26513, Note_on_c, 9, 34, 0
5, 26520, Note_on_c, 9, 44, 49
5, 26523, Note_on_c, 9, 35, 46
5, 26544, Note_on_c, 9, 44, 0
5, 26556, Note_on_c, 9, 44, 48
5, 26564, Note_on_c, 9, 35, 0
5, 26565, Note_on_c, 9, 44, 0
5, 26771, Note_on_c, 9, 46, 49
5, 26776, Note_on_c, 9, 46, 0
5, 26791, Note_on_c, 9, 46, 45
5, 26795, Note_on_c, 9, 46, 0
5, 26816, Note_on_c, 9, 46, 53
5, 26820, Note_on_c, 9, 46, 0
5, 26856, Note_on_c, 9, 46, 81
5, 26866, Note_on_c, 9, 46, 0
5, 26894, Note_on_c, 9, 46, 62
5, 26895, Note_on_c, 9, 44, 74
5, 26906, Note_on_c, 9, 44, 0
5, 26908, Note_on_c, 9, 46, 0
5, 26912, Note_on_c, 9, 40, 62
5, 26927, Note_on_c, 9, 40, 0
5, 26931, Note_on_c, 9, 35, 61
5, 26949, Note_on_c, 9, 35, 0
5, 27001, Note_on_c, 9, 35, 49
5, 27013, Note_on_c, 9, 35, 0
5, 27125, Note_on_c, 9, 35, 40
5, 27132, Note_on_c, 9, 35, 0
5, 27224, Note_on_c, 9, 35, 37
5, 27230, Note_on_c, 9, 35, 0
5, 27301, Note_on_c, 9, 37, 72
5, 27329, Note_on_c, 9, 37, 0
5, 27338, Note_on_c, 9, 37, 53
5, 27347, Note_on_c, 9, 37, 0
5, 27400, Note_on_c, 9, 34, 45
5, 27412, Note_on_c, 9, 34, 0
5, 27422, Note_on_c, 9, 35, 34
5, 27452, Note_on_c, 9, 35, 0
5, 27482, Note_on_c, 9, 35, 35
5, 27503, Note_on_c, 9, 35, 0
5, 27521, Note_on_c, 9, 35, 32
5, 27528, Note_on_c, 9, 35, 0
5, 27597, Note_on_c, 9, 35, 38
5, 27604, Note_on_c, 9, 35, 0
5, 27699, Note_on_c, 9, 29, 30
5, 27762, Note_on_c, 9, 32, 43
5, 27775, Note_on_c, 9, 29, 0
5, 27783, Note_on_c, 9, 34, 42
5, 27784, Note_on_c, 9, 32, 0
5, 27822, Note_on_c, 9, 44, 40
5, 27826, Note_on_c, 9, 35, 51
5, 27827, Note_on_c, 9, 44, 0
5, 27829, Note_on_c, 9, 34, 0
5, 27836, Note_on_c, 9, 35, 0
5, 28014, Note_on_c, 9, 46, 31
5, 28036, Note_on_c, 9, 46, 0
5, 28057, Note_on_c, 9, 46, 53
5, 28066, Note_on_c, 9, 46, 0
5, 28154, Note_on_c, 9, 44, 39
5, 28164, Note_on_c, 9, 44, 0
5, 28203, Note_on_c, 9, 44, 71
5, 28212, Note_on_c, 9, 44, 0
5, 28243, Note_on_c, 9, 44, 79
5, 28250, Note_on_c, 9, 44, 0
5, 28278, Note_on_c, 9, 44, 82
5, 28286, Note_on_c, 9, 44, 0
5, 28298, Note_on_c, 9, 34, 71
5, 28319, Note_on_c, 9, 34, 0
5, 28322, Note_on_c, 9, 35, 59
5, 28340, Note_on_c, 9, 35, 0
5, 28415, Note_on_c, 9, 44, 62
5, 28421, Note_on_c, 9, 44, 0
5, 28656, Note_on_c, 9, 35, 38
5, 28662, Note_on_c, 9, 35, 0
5, 28718, Note_on_c, 9, 35, 40
5, 28724, Note_on_c, 9, 35, 0
5, 28800, Note_on_c, 9, 35, 42
5, 28813, Note_on_c, 9, 35, 0
5, 28897, Note_on_c, 9, 35, 37
5, 28903, Note_on_c, 9, 35, 0
5, 28978, Note_on_c, 9, 35, 29
5, 28986, Note_on_c, 9, 35, 0
5, 29080, Note_on_c, 9, 35, 24
5, 29086, Note_on_c, 9, 35, 0
5, 29164, Note_on_c, 9, 35, 27
5, 29170, Note_on_c, 9, 35, 0
5, 29258, Note_on_c, 9, 35, 28
5, 29266, Note_on_c, 9, 35, 0
5, 29266, End_track
6, 0, Start_track
6, 0, MIDI_port, 0
6, 0, Program_c, 3, 22
6, 0, End_track
7, 0, Start_track
7, 0, MIDI_port, 0
7, 0, Program_c, 3, 22
7, 3296, Note_on_c, 3, 69, 24
7, 3298, Note_on_c, 3, 70, 58
7, 3301, Note_on_c, 3, 69, 0
7, 3322, Note_on_c, 3, 70, 0
7, 3336, Note_on_c, 3, 69, 50
7, 3338, Note_on_c, 3, 70, 67
7, 3344, Note_on_c, 3, 69, 0
7, 3592, Note_on_c, 3, 70, 0
7, 3595, Note_on_c, 3, 70, 32
7, 3601, Note_on_c, 3, 71, 34
7, 3602, Note_on_c, 3, 72, 62
7, 3604, Note_on_c, 3, 70, 0
7, 3611, Note_on_c, 3, 71, 0
7, 3825, Note_on_c, 3, 72, 0
7, 3825, Note_on_c, 3, 67, 38
7, 3853, Note_on_c, 3, 67, 0
7, 3861, Note_on_c, 3, 70, 24
7, 4042, Note_on_c, 3, 70, 0
7, 4065, Note_on_c, 3, 71, 79
7, 4068, Note_on_c, 3, 72, 64
7, 4069, Note_on_c, 3, 70, 19
7, 4073, Note_on_c, 3, 70, 0
7, 4073, Note_on_c, 3, 71, 0
7, 4092, Note_on_c, 3, 72, 0
7, 4112, Note_on_c, 3, 67, 39
7, 4125, Note_on_c, 3, 67, 0
7, 4181, Note_on_c, 3, 66, 72
7, 4196, Note_on_c, 3, 66, 0
7, 4225, Note_on_c, 3, 63, 53
7, 4234, Note_on_c, 3, 63, 0
7, 4308, Note_on_c, 3, 58, 47
7, 4317, Note_on_c, 3, 58, 0
7, 4336, Note_on_c, 3, 54, 26
7, 4348, Note_on_c, 3, 54, 0
7, 4409, Note_on_c, 3, 53, 29
7, 4413, Note_on_c, 3, 53, 0
7, 4422, Note_on_c, 3, 54, 52
7, 4432, Note_on_c, 3, 54, 0
7, 4441, Note_on_c, 3, 56, 60
7, 4454, Note_on_c, 3, 56, 0
7, 4459, Note_on_c, 3, 58, 42
7, 4468, Note_on_c, 3, 58, 0
7, 4475, Note_on_c, 3, 59, 54
7, 4484, Note_on_c, 3, 59, 0
7, 4489, Note_on_c, 3, 61, 57
7, 4500, Note_on_c, 3, 61, 0
7, 4505, Note_on_c, 3, 63, 51
7, 4515, Note_on_c, 3, 63, 0
7, 4520, Note_on_c, 3, 65, 61
7, 4530, Note_on_c, 3, 65, 0
7, 4534, Note_on_c, 3, 66, 66
7, 4543, Note_on_c, 3, 66, 0
7, 4548, Note_on_c, 3, 68, 75
7, 4559, Note_on_c, 3, 68, 0
7, 4565, Note_on_c, 3, 70, 73
7, 4567, Note_on_c, 3, 68, 30
7, 4570, Note_on_c, 3, 68, 0
7, 4576, Note_on_c, 3, 70, 0
7, 4599, Note_on_c, 3, 70, 61
7, 4601, Note_on_c, 3, 71, 68
7, 4606, Note_on_c, 3, 70, 0
7, 4620, Note_on_c, 3, 71, 0
7, 4626, Note_on_c, 3, 70, 48
7, 4638, Note_on_c, 3, 70, 0
7, 4661, Note_on_c, 3, 68, 65
7, 4674, Note_on_c, 3, 68, 0
7, 4685, Note_on_c, 3, 67, 35
7, 4697, Note_on_c, 3, 67, 0
7, 4720, Note_on_c, 3, 68, 70
7, 4730, Note_on_c, 3, 68, 0
7, 4742, Note_on_c, 3, 70, 63
7, 4751, Note_on_c, 3, 70, 0
7, 4780, Note_on_c, 3, 72, 60
7, 4790, Note_on_c, 3, 72, 0
7, 4814, Note_on_c, 3, 76, 67
7, 4824, Note_on_c, 3, 76, 0
7, 4847, Note_on_c, 3, 79, 91
7, 4873, Note_on_c, 3, 79, 0
7, 4880, Note_on_c, 3, 77, 41
7, 4885, Note_on_c, 3, 77, 0
7, 4912, Note_on_c, 3, 72, 59
7, 4920, Note_on_c, 3, 72, 0
7, 4936, Note_on_c, 3, 68, 19
7, 4945, Note_on_c, 3, 68, 0
7, 4966, Note_on_c, 3, 67, 38
7, 4976, Note_on_c, 3, 67, 0
7, 4985, Note_on_c, 3, 70, 74
7, 5005, Note_on_c, 3, 70, 0
7, 5024, Note_on_c, 3, 68, 81
7, 5034, Note_on_c, 3, 68, 0
7, 5048, Note_on_c, 3, 67, 66
7, 5056, Note_on_c, 3, 67, 0
7, 5083, Note_on_c, 3, 65, 66
7, 5090, Note_on_c, 3, 65, 0
7, 5107, Note_on_c, 3, 63, 53
7, 5112, Note_on_c, 3, 64, 49
7, 5115, Note_on_c, 3, 63, 0
7, 5123, Note_on_c, 3, 64, 0
7, 5143, Note_on_c, 3, 61, 70
7, 5153, Note_on_c, 3, 61, 0
7, 5168, Note_on_c, 3, 60, 36
7, 5180, Note_on_c, 3, 60, 0
7, 5201, Note_on_c, 3, 58, 55
7, 5214, Note_on_c, 3, 58, 0
7, 5223, Note_on_c, 3, 56, 51
7, 5231, Note_on_c, 3, 56, 0
7, 5261, Note_on_c, 3, 55, 37
7, 5271, Note_on_c, 3, 55, 0
7, 5283, Note_on_c, 3, 59, 56
7, 5295, Note_on_c, 3, 59, 0
7, 5302, Note_on_c, 3, 56, 44
7, 5310, Note_on_c, 3, 56, 0
7, 5322, Note_on_c, 3, 58, 59
7, 5394, Note_on_c, 3, 58, 0
7, 5400, Note_on_c, 3, 56, 39
7, 5505, Note_on_c, 3, 56, 0
7, 5538, Note_on_c, 3, 55, 49
7, 5545, Note_on_c, 3, 55, 0
7, 5555, Note_on_c, 3, 56, 44
7, 5567, Note_on_c, 3, 56, 0
7, 5576, Note_on_c, 3, 58, 36
7, 5588, Note_on_c, 3, 58, 0
7, 5596, Note_on_c, 3, 59, 39
7, 5601, Note_on_c, 3, 59, 0
7, 5618, Note_on_c, 3, 61, 65
7, 5653, Note_on_c, 3, 61, 0
7, 5658, Note_on_c, 3, 66, 67
7, 5685, Note_on_c, 3, 66, 0
7, 5697, Note_on_c, 3, 70, 65
7, 5731, Note_on_c, 3, 70, 0
7, 5737, Note_on_c, 3, 73, 38
7, 5738, Note_on_c, 3, 74, 68
7, 5747, Note_on_c, 3, 74, 0
7, 5752, Note_on_c, 3, 73, 0
7, 5772, Note_on_c, 3, 75, 48
7, 5775, Note_on_c, 3, 75, 0
7, 5775, Note_on_c, 3, 74, 59
7, 5775, Note_on_c, 3, 76, 64
7, 5790, Note_on_c, 3, 76, 0
7, 5808, Note_on_c, 3, 74, 0
7, 5816, Note_on_c, 3, 76, 56
7, 5819, Note_on_c, 3, 77, 71
7, 5827, Note_on_c, 3, 76, 0
7, 5856, Note_on_c, 3, 77, 0
7, 5860, Note_on_c, 3, 75, 51
7, 5860, Note_on_c, 3, 76, 52
7, 5865, Note_on_c, 3, 77, 54
7, 5870, Note_on_c, 3, 75, 0
7, 5874, Note_on_c, 3, 76, 0
7, 5892, Note_on_c, 3, 77, 0
7, 5897, Note_on_c, 3, 76, 32
7, 5901, Note_on_c, 3, 75, 20
7, 5904, Note_on_c, 3, 75, 0
7, 5908, Note_on_c, 3, 77, 55
7, 5915, Note_on_c, 3, 76, 0
7, 5940, Note_on_c, 3, 77, 0
7, 5943, Note_on_c, 3, 74, 47
7, 5980, Note_on_c, 3, 74, 0
7, 5982, Note_on_c, 3, 73, 53
7, 6093, Note_on_c, 3, 73, 0
7, 6100, Note_on_c, 3, 70, 76
7, 6117, Note_on_c, 3, 70, 0
7, 6129, Note_on_c, 3, 68, 50
7, 6136, Note_on_c, 3, 69, 54
7, 6140, Note_on_c, 3, 68, 0
7, 6221, Note_on_c, 3, 69, 0
7, 6222, Note_on_c, 3, 66, 48
7, 6228, Note_on_c, 3, 66, 0
7, 6245, Note_on_c, 3, 66, 26
7, 6251, Note_on_c, 3, 67, 46
7, 6252, Note_on_c, 3, 66, 0
7, 6274, Note_on_c, 3, 67, 0
7, 6300, Note_on_c, 3, 55, 26
7, 6308, Note_on_c, 3, 55, 0
7, 6309, Note_on_c, 3, 56, 31
7, 6317, Note_on_c, 3, 58, 44
7, 6318, Note_on_c, 3, 56, 0
7, 6325, Note_on_c, 3, 58, 0
7, 6327, Note_on_c, 3, 59, 59
7, 6334, Note_on_c, 3, 59, 0
7, 6338, Note_on_c, 3, 61, 50
7, 6343, Note_on_c, 3, 61, 0
7, 6348, Note_on_c, 3, 62, 56
7, 6356, Note_on_c, 3, 62, 0
7, 6358, Note_on_c, 3, 64, 59
7, 6365, Note_on_c, 3, 64, 0
7, 6370, Note_on_c, 3, 65, 32
7, 6374, Note_on_c, 3, 65, 0
7, 6381, Note_on_c, 3, 67, 43
7, 6385, Note_on_c, 3, 67, 0
7, 6393, Note_on_c, 3, 68, 44
7, 6399, Note_on_c, 3, 68, 0
7, 6406, Note_on_c, 3, 70, 34
7, 6411, Note_on_c, 3, 70, 0
7, 6414, Note_on_c, 3, 71, 38
7, 6421, Note_on_c, 3, 71, 0
7, 6429, Note_on_c, 3, 72, 62
7, 6437, Note_on_c, 3, 72, 0
7, 6448, Note_on_c, 3, 74, 80
7, 6455, Note_on_c, 3, 74, 0
7, 6468, Note_on_c, 3, 72, 64
7, 6477, Note_on_c, 3, 72, 0
7, 6487, Note_on_c, 3, 67, 48
7, 6494, Note_on_c, 3, 67, 0
7, 6510, Note_on_c, 3, 63, 51
7, 6517, Note_on_c, 3, 63, 0
7, 6531, Note_on_c, 3, 60, 26
7, 6535, Note_on_c, 3, 60, 0
7, 6549, Note_on_c, 3, 63, 53
7, 6623, Note_on_c, 3, 63, 0
7, 6642, Note_on_c, 3, 66, 68
7, 6644, Note_on_c, 3, 67, 68
7, 6651, Note_on_c, 3, 66, 0
7, 6662, Note_on_c, 3, 67, 0
7, 6684, Note_on_c, 3, 63, 58
7, 6685, Note_on_c, 3, 64, 72
7, 6691, Note_on_c, 3, 63, 0
7, 6711, Note_on_c, 3, 64, 0
7, 6724, Note_on_c, 3, 65, 43
7, 6822, Note_on_c, 3, 65, 0
7, 6877, Note_on_c, 3, 65, 84
7, 6892, Note_on_c, 3, 65, 0
7, 6907, Note_on_c, 3, 67, 77
7, 6924, Note_on_c, 3, 67, 0
7, 6940, Note_on_c, 3, 68, 79
7, 6954, Note_on_c, 3, 68, 0
7, 6998, Note_on_c, 3, 73, 69
7, 7000, Note_on_c, 3, 74, 75
7, 7019, Note_on_c, 3, 73, 0
7, 7021, Note_on_c, 3, 74, 0
7, 7040, Note_on_c, 3, 73, 50
7, 7041, Note_on_c, 3, 74, 71
7, 7044, Note_on_c, 3, 73, 0
7, 7066, Note_on_c, 3, 74, 0
7, 7077, Note_on_c, 3, 73, 51
7, 7083, Note_on_c, 3, 74, 59
7, 7088, Note_on_c, 3, 73, 0
7, 7179, Note_on_c, 3, 74, 0
7, 7189, Note_on_c, 3, 73, 50
7, 7197, Note_on_c, 3, 73, 0
7, 7218, Note_on_c, 3, 73, 47
7, 7224, Note_on_c, 3, 74, 48
7, 7228, Note_on_c, 3, 73, 0
7, 7250, Note_on_c, 3, 74, 0
7, 7264, Note_on_c, 3, 63, 34
7, 7275, Note_on_c, 3, 63, 0
7, 7305, Note_on_c, 3, 63, 56
7, 7323, Note_on_c, 3, 63, 0
7, 7341, Note_on_c, 3, 63, 44
7, 7432, Note_on_c, 3, 63, 0
7, 7507, Note_on_c, 3, 57, 29
7, 7512, Note_on_c, 3, 57, 0
7, 7524, Note_on_c, 3, 59, 47
7, 7527, Note_on_c, 3, 59, 0
7, 7539, Note_on_c, 3, 60, 61
7, 7547, Note_on_c, 3, 60, 0
7, 7554, Note_on_c, 3, 62, 49
7, 7561, Note_on_c, 3, 62, 0
7, 7569, Note_on_c, 3, 63, 50
7, 7582, Note_on_c, 3, 63, 0
7, 7588, Note_on_c, 3, 60, 34
7, 7592, Note_on_c, 3, 60, 0
7, 7601, Note_on_c, 3, 62, 52
7, 7608, Note_on_c, 3, 62, 0
7, 7614, Note_on_c, 3, 63, 63
7, 7623, Note_on_c, 3, 63, 0
7, 7630, Note_on_c, 3, 65, 65
7, 7639, Note_on_c, 3, 65, 0
7, 7646, Note_on_c, 3, 62, 38
7, 7650, Note_on_c, 3, 62, 0
7, 7657, Note_on_c, 3, 63, 53
7, 7666, Note_on_c, 3, 63, 0
7, 7674, Note_on_c, 3, 65, 43
7, 7674, Note_on_c, 3, 64, 52
7, 7678, Note_on_c, 3, 64, 0
7, 7681, Note_on_c, 3, 65, 0
7, 7687, Note_on_c, 3, 67, 59
7, 7696, Note_on_c, 3, 67, 0
7, 7703, Note_on_c, 3, 63, 44
7, 7707, Note_on_c, 3, 63, 0
7, 7716, Note_on_c, 3, 65, 29
7, 7727, Note_on_c, 3, 65, 0
7, 7728, Note_on_c, 3, 67, 35
7, 7739, Note_on_c, 3, 67, 0
7, 7745, Note_on_c, 3, 68, 59
7, 7756, Note_on_c, 3, 68, 0
7, 7764, Note_on_c, 3, 65, 28
7, 7770, Note_on_c, 3, 65, 0
7, 7778, Note_on_c, 3, 67, 18
7, 7782, Note_on_c, 3, 67, 0
7, 7790, Note_on_c, 3, 68, 67
7, 7799, Note_on_c, 3, 68, 0
7, 7806, Note_on_c, 3, 70, 62
7, 7817, Note_on_c, 3, 70, 0
7, 7823, Note_on_c, 3, 67, 21
7, 7827, Note_on_c, 3, 67, 0
7, 7836, Note_on_c, 3, 68, 51
7, 7847, Note_on_c, 3, 68, 0
7, 7852, Note_on_c, 3, 70, 51
7, 7858, Note_on_c, 3, 70, 0
7, 7866, Note_on_c, 3, 72, 36
7, 7870, Note_on_c, 3, 72, 0
7, 7878, Note_on_c, 3, 74, 58
7, 7885, Note_on_c, 3, 74, 0
7, 7893, Note_on_c, 3, 75, 57
7, 7900, Note_on_c, 3, 75, 0
7, 7905, Note_on_c, 3, 77, 58
7, 7914, Note_on_c, 3, 77, 0
7, 7922, Note_on_c, 3, 78, 59
7, 7931, Note_on_c, 3, 78, 0
7, 7938, Note_on_c, 3, 79, 51
7, 7945, Note_on_c, 3, 79, 0
7, 7951, Note_on_c, 3, 81, 68
7, 7962, Note_on_c, 3, 81, 0
7, 7966, Note_on_c, 3, 82, 65
7, 7974, Note_on_c, 3, 82, 0
7, 7980, Note_on_c, 3, 84, 63
7, 7988, Note_on_c, 3, 84, 0
7, 7994, Note_on_c, 3, 85, 61
7, 8003, Note_on_c, 3, 85, 0
7, 8009, Note_on_c, 3, 87, 65
7, 8029, Note_on_c, 3, 88, 61
7, 8032, Note_on_c, 3, 87, 0
7, 8038, Note_on_c, 3, 88, 0
7, 8046, Note_on_c, 3, 84, 63
7, 8051, Note_on_c, 3, 84, 0
7, 8086, Note_on_c, 3, 82, 62
7, 8097, Note_on_c, 3, 82, 0
7, 8109, Note_on_c, 3, 79, 32
7, 8125, Note_on_c, 3, 79, 0
7, 8144, Note_on_c, 3, 78, 33
7, 8149, Note_on_c, 3, 78, 0
7, 8161, Note_on_c, 3, 82, 62
7, 8170, Note_on_c, 3, 83, 51
7, 8173, Note_on_c, 3, 82, 0
7, 8218, Note_on_c, 3, 83, 0
7, 8224, Note_on_c, 3, 82, 42
7, 8255, Note_on_c, 3, 82, 0
7, 8267, Note_on_c, 3, 80, 31
7, 8273, Note_on_c, 3, 80, 0
7, 8283, Note_on_c, 3, 82, 66
7, 8317, Note_on_c, 3, 82, 0
7, 8322, Note_on_c, 3, 80, 51
7, 8389, Note_on_c, 3, 80, 0
7, 8398, Note_on_c, 3, 78, 67
7, 8400, Note_on_c, 3, 79, 52
7, 8409, Note_on_c, 3, 78, 0
7, 8455, Note_on_c, 3, 79, 0
7, 8464, Note_on_c, 3, 73, 68
7, 8495, Note_on_c, 3, 73, 0
7, 8507, Note_on_c, 3, 73, 11
7, 8511, Note_on_c, 3, 73, 0
7, 8520, Note_on_c, 3, 71, 69
7, 8529, Note_on_c, 3, 72, 54
7, 8534, Note_on_c, 3, 71, 0
7, 8556, Note_on_c, 3, 72, 0
7, 8563, Note_on_c, 3, 67, 76
7, 8577, Note_on_c, 3, 67, 0
7, 8592, Note_on_c, 3, 63, 25
7, 8602, Note_on_c, 3, 63, 0
7, 8630, Note_on_c, 3, 60, 17
7, 8636, Note_on_c, 3, 60, 0
7, 8649, Note_on_c, 3, 66, 59
7, 8655, Note_on_c, 3, 67, 52
7, 8658, Note_on_c, 3, 66, 0
7, 8681, Note_on_c, 3, 67, 0
7, 8689, Note_on_c, 3, 66, 58
7, 8694, Note_on_c, 3, 67, 46
7, 8699, Note_on_c, 3, 66, 0
7, 8713, Note_on_c, 3, 67, 0
7, 8723, Note_on_c, 3, 65, 27
7, 8742, Note_on_c, 3, 65, 0
7, 8755, Note_on_c, 3, 63, 59
7, 8771, Note_on_c, 3, 63, 0
7, 8785, Note_on_c, 3, 63, 45
7, 8788, Note_on_c, 3, 64, 65
7, 8793, Note_on_c, 3, 63, 0
7, 8813, Note_on_c, 3, 64, 0
7, 8822, Note_on_c, 3, 60, 59
7, 8835, Note_on_c, 3, 60, 0
7, 8846, Note_on_c, 3, 56, 24
7, 8861, Note_on_c, 3, 56, 0
7, 8882, Note_on_c, 3, 55, 38
7, 8890, Note_on_c, 3, 55, 0
7, 8901, Note_on_c, 3, 60, 64
7, 8944, Note_on_c, 3, 60, 0
7, 8953, Note_on_c, 3, 60, 44
7, 8963, Note_on_c, 3, 60, 0
7, 8969, Note_on_c, 3, 61, 55
7, 8979, Note_on_c, 3, 61, 0
7, 8985, Note_on_c, 3, 63, 72
7, 8998, Note_on_c, 3, 63, 0
7, 9000, Note_on_c, 3, 64, 67
7, 9008, Note_on_c, 3, 64, 0
7, 9015, Note_on_c, 3, 66, 56
7, 9025, Note_on_c, 3, 66, 0
7, 9031, Note_on_c, 3, 67, 56
7, 9041, Note_on_c, 3, 67, 0
7, 9046, Note_on_c, 3, 69, 63
7, 9057, Note_on_c, 3, 69, 0
7, 9061, Note_on_c, 3, 70, 71
7, 9071, Note_on_c, 3, 70, 0
7, 9077, Note_on_c, 3, 72, 56
7, 9086, Note_on_c, 3, 72, 0
7, 9089, Note_on_c, 3, 73, 61
7, 9099, Note_on_c, 3, 73, 0
7, 9104, Note_on_c, 3, 75, 64
7, 9114, Note_on_c, 3, 75, 0
7, 9120, Note_on_c, 3, 76, 72
7, 9129, Note_on_c, 3, 76, 0
7, 9135, Note_on_c, 3, 79, 83
7, 9150, Note_on_c, 3, 79, 0
7, 9153, Note_on_c, 3, 76, 59
7, 9160, Note_on_c, 3, 76, 0
7, 9166, Note_on_c, 3, 77, 73
7, 9177, Note_on_c, 3, 77, 0
7, 9184, Note_on_c, 3, 75, 64
7, 9193, Note_on_c, 3, 75, 0
7, 9199, Note_on_c, 3, 71, 58
7, 9221, Note_on_c, 3, 71, 0
7, 9233, Note_on_c, 3, 71, 73
7, 9247, Note_on_c, 3, 71, 0
7, 9258, Note_on_c, 3, 71, 56
7, 9281, Note_on_c, 3, 71, 0
7, 9288, Note_on_c, 3, 70, 66
7, 9300, Note_on_c, 3, 70, 0
7, 9310, Note_on_c, 3, 68, 43
7, 9341, Note_on_c, 3, 68, 0
7, 9345, Note_on_c, 3, 65, 46
7, 9349, Note_on_c, 3, 65, 0
7, 9361, Note_on_c, 3, 68, 73
7, 9395, Note_on_c, 3, 68, 0
7, 9401, Note_on_c, 3, 70, 66
7, 9414, Note_on_c, 3, 70, 0
7, 9420, Note_on_c, 3, 68, 59
7, 9434, Note_on_c, 3, 68, 0
7, 9461, Note_on_c, 3, 65, 50
7, 9465, Note_on_c, 3, 65, 0
7, 9478, Note_on_c, 3, 66, 67
7, 9481, Note_on_c, 3, 67, 55
7, 9487, Note_on_c, 3, 66, 0
7, 9495, Note_on_c, 3, 67, 0
7, 9517, Note_on_c, 3, 65, 64
7, 9529, Note_on_c, 3, 65, 0
7, 9540, Note_on_c, 3, 62, 54
7, 9547, Note_on_c, 3, 62, 0
7, 9576, Note_on_c, 3, 58, 61
7, 9589, Note_on_c, 3, 58, 0
7, 9601, Note_on_c, 3, 55, 38
7, 9634, Note_on_c, 3, 55, 0
7, 9641, Note_on_c, 3, 55, 62
7, 9646, Note_on_c, 3, 55, 0
7, 9750, Note_on_c, 3, 55, 68
7, 9762, Note_on_c, 3, 55, 0
7, 9766, Note_on_c, 3, 54, 45
7, 9771, Note_on_c, 3, 54, 0
7, 9783, Note_on_c, 3, 55, 46
7, 9794, Note_on_c, 3, 55, 0
7, 9802, Note_on_c, 3, 56, 55
7, 9813, Note_on_c, 3, 56, 0
7, 9816, Note_on_c, 3, 57, 54
7, 9825, Note_on_c, 3, 57, 0
7, 9831, Note_on_c, 3, 58, 55
7, 9842, Note_on_c, 3, 58, 0
7, 9847, Note_on_c, 3, 60, 54
7, 9856, Note_on_c, 3, 60, 0
7, 9863, Note_on_c, 3, 61, 50
7, 9875, Note_on_c, 3, 61, 0
7, 9879, Note_on_c, 3, 63, 55
7, 9886, Note_on_c, 3, 63, 0
7, 9894, Note_on_c, 3, 65, 55
7, 9903, Note_on_c, 3, 65, 0
7, 9909, Note_on_c, 3, 67, 43
7, 9919, Note_on_c, 3, 67, 0
7, 9926, Note_on_c, 3, 68, 65
7, 9937, Note_on_c, 3, 68, 0
7, 9942, Note_on_c, 3, 70, 48
7, 9949, Note_on_c, 3, 70, 0
7, 9956, Note_on_c, 3, 72, 52
7, 9961, Note_on_c, 3, 72, 0
7, 9972, Note_on_c, 3, 73, 63
7, 9981, Note_on_c, 3, 73, 0
7, 9988, Note_on_c, 3, 75, 42
7, 9999, Note_on_c, 3, 75, 0
7, 10003, Note_on_c, 3, 76, 52
7, 10011, Note_on_c, 3, 76, 0
7, 10021, Note_on_c, 3, 79, 64
7, 10029, Note_on_c, 3, 79, 0
7, 10037, Note_on_c, 3, 82, 79
7, 10049, Note_on_c, 3, 82, 0
7, 10060, Note_on_c, 3, 82, 80
7, 10072, Note_on_c, 3, 82, 0
7, 10082, Note_on_c, 3, 78, 62
7, 10082, Note_on_c, 3, 79, 55
7, 10091, Note_on_c, 3, 78, 0
7, 10098, Note_on_c, 3, 79, 0
7, 10109, Note_on_c, 3, 78, 47
7, 10110, Note_on_c, 3, 79, 66
7, 10116, Note_on_c, 3, 78, 0
7, 10127, Note_on_c, 3, 79, 0
7, 10136, Note_on_c, 3, 75, 50
7, 10150, Note_on_c, 3, 75, 0
7, 10156, Note_on_c, 3, 72, 50
7, 10164, Note_on_c, 3, 72, 0
7, 10185, Note_on_c, 3, 80, 69
7, 10199, Note_on_c, 3, 80, 0
7, 10209, Note_on_c, 3, 80, 60
7, 10229, Note_on_c, 3, 80, 0
7, 10247, Note_on_c, 3, 75, 64
7, 10263, Note_on_c, 3, 75, 0
7, 10278, Note_on_c, 3, 72, 2
7, 10290, Note_on_c, 3, 72, 0
7, 10304, Note_on_c, 3, 82, 62
7, 10306, Note_on_c, 3, 83, 73
7, 10315, Note_on_c, 3, 82, 0
7, 10328, Note_on_c, 3, 83, 0
7, 10336, Note_on_c, 3, 82, 48
7, 10340, Note_on_c, 3, 83, 55
7, 10348, Note_on_c, 3, 82, 0
7, 10389, Note_on_c, 3, 83, 0
7, 10393, Note_on_c, 3, 82, 56
7, 10438, Note_on_c, 3, 82, 0
7, 10449, Note_on_c, 3, 80, 55
7, 10481, Note_on_c, 3, 80, 0
7, 10486, Note_on_c, 3, 82, 62
7, 10502, Note_on_c, 3, 82, 0
7, 10509, Note_on_c, 3, 80, 39
7, 10535, Note_on_c, 3, 80, 0
7, 10543, Note_on_c, 3, 78, 36
7, 10546, Note_on_c, 3, 79, 72
7, 10552, Note_on_c, 3, 78, 0
7, 10596, Note_on_c, 3, 79, 0
7, 10605, Note_on_c, 3, 80, 60
7, 10620, Note_on_c, 3, 80, 0
7, 10628, Note_on_c, 3, 79, 42
7, 10643, Note_on_c, 3, 79, 0
7, 10663, Note_on_c, 3, 75, 65
7, 10677, Note_on_c, 3, 75, 0
7, 10689, Note_on_c, 3, 70, 36
7, 10714, Note_on_c, 3, 70, 0
7, 10722, Note_on_c, 3, 70, 49
7, 10730, Note_on_c, 3, 70, 0
7, 10781, Note_on_c, 3, 79, 73
7, 10790, Note_on_c, 3, 79, 0
7, 10811, Note_on_c, 3, 82, 72
7, 10812, Note_on_c, 3, 83, 70
7, 10823, Note_on_c, 3, 82, 0
7, 10859, Note_on_c, 3, 83, 0
7, 10863, Note_on_c, 3, 82, 69
7, 10903, Note_on_c, 3, 82, 0
7, 10908, Note_on_c, 3, 80, 37
7, 10914, Note_on_c, 3, 80, 0
7, 10925, Note_on_c, 3, 82, 71
7, 10946, Note_on_c, 3, 82, 0
7, 10962, Note_on_c, 3, 80, 65
7, 10973, Note_on_c, 3, 80, 0
7, 10985, Note_on_c, 3, 78, 52
7, 10991, Note_on_c, 3, 79, 55
7, 10997, Note_on_c, 3, 78, 0
7, 11005, Note_on_c, 3, 79, 0
7, 11021, Note_on_c, 3, 75, 64
7, 11035, Note_on_c, 3, 75, 0
7, 11048, Note_on_c, 3, 70, 26
7, 11071, Note_on_c, 3, 70, 0
7, 11080, Note_on_c, 3, 70, 51
7, 11090, Note_on_c, 3, 70, 0
7, 11142, Note_on_c, 3, 82, 68
7, 11143, Note_on_c, 3, 83, 83
7, 11153, Note_on_c, 3, 82, 0
7, 11158, Note_on_c, 3, 83, 0
7, 11172, Note_on_c, 3, 82, 57
7, 11175, Note_on_c, 3, 83, 63
7, 11185, Note_on_c, 3, 82, 0
7, 11191, Note_on_c, 3, 83, 0
7, 11206, Note_on_c, 3, 78, 61
7, 11210, Note_on_c, 3, 79, 54
7, 11216, Note_on_c, 3, 78, 0
7, 11222, Note_on_c, 3, 79, 0
7, 11234, Note_on_c, 3, 75, 59
7, 11246, Note_on_c, 3, 75, 0
7, 11267, Note_on_c, 3, 70, 55
7, 11275, Note_on_c, 3, 70, 0
7, 11291, Note_on_c, 3, 82, 65
7, 11303, Note_on_c, 3, 82, 0
7, 11325, Note_on_c, 3, 78, 57
7, 11336, Note_on_c, 3, 78, 0
7, 11350, Note_on_c, 3, 73, 40
7, 11368, Note_on_c, 3, 73, 0
7, 11383, Note_on_c, 3, 70, 58
7, 11395, Note_on_c, 3, 70, 0
7, 11408, Note_on_c, 3, 66, 45
7, 11425, Note_on_c, 3, 66, 0
7, 11443, Note_on_c, 3, 63, 58
7, 11454, Note_on_c, 3, 63, 0
7, 11520, Note_on_c, 3, 58, 62
7, 11561, Note_on_c, 3, 58, 0
7, 11565, Note_on_c, 3, 55, 40
7, 11569, Note_on_c, 3, 55, 0
7, 11581, Note_on_c, 3, 56, 61
7, 11587, Note_on_c, 3, 56, 0
7, 11588, Note_on_c, 3, 57, 48
7, 11607, Note_on_c, 3, 57, 0
7, 11641, Note_on_c, 3, 58, 66
7, 11656, Note_on_c, 3, 58, 0
7, 11660, Note_on_c, 3, 55, 50
7, 11664, Note_on_c, 3, 55, 0
7, 11671, Note_on_c, 3, 56, 47
7, 11685, Note_on_c, 3, 56, 0
7, 11686, Note_on_c, 3, 58, 36
7, 11695, Note_on_c, 3, 58, 0
7, 11699, Note_on_c, 3, 60, 54
7, 11708, Note_on_c, 3, 60, 0
7, 11714, Note_on_c, 3, 61, 36
7, 11726, Note_on_c, 3, 61, 0
7, 11729, Note_on_c, 3, 63, 32
7, 11739, Note_on_c, 3, 63, 0
7, 11742, Note_on_c, 3, 64, 61
7, 11751, Note_on_c, 3, 64, 0
7, 11756, Note_on_c, 3, 66, 55
7, 11767, Note_on_c, 3, 66, 0
7, 11776, Note_on_c, 3, 67, 24
7, 11785, Note_on_c, 3, 67, 0
7, 11790, Note_on_c, 3, 69, 52
7, 11802, Note_on_c, 3, 69, 0
7, 11805, Note_on_c, 3, 70, 57
7, 11814, Note_on_c, 3, 70, 0
7, 11822, Note_on_c, 3, 72, 45
7, 11832, Note_on_c, 3, 72, 0
7, 11838, Note_on_c, 3, 73, 56
7, 11847, Note_on_c, 3, 73, 0
7, 11853, Note_on_c, 3, 75, 48
7, 11862, Note_on_c, 3, 75, 0
7, 11871, Note_on_c, 3, 76, 23
7, 11878, Note_on_c, 3, 76, 0
7, 11884, Note_on_c, 3, 79, 56
7, 11893, Note_on_c, 3, 79, 0
7, 11901, Note_on_c, 3, 84, 84
7, 11915, Note_on_c, 3, 82, 62
7, 11918, Note_on_c, 3, 84, 0
7, 11931, Note_on_c, 3, 77, 55
7, 11934, Note_on_c, 3, 82, 0
7, 11944, Note_on_c, 3, 77, 0
7, 11947, Note_on_c, 3, 73, 42
7, 11953, Note_on_c, 3, 73, 0
7, 11960, Note_on_c, 3, 72, 36
7, 11970, Note_on_c, 3, 72, 0
7, 11972, Note_on_c, 3, 70, 49
7, 11982, Note_on_c, 3, 70, 0
7, 11992, Note_on_c, 3, 67, 22
7, 11996, Note_on_c, 3, 67, 0
7, 12004, Note_on_c, 3, 75, 57
7, 12016, Note_on_c, 3, 75, 0
7, 12037, Note_on_c, 3, 71, 41
7, 12038, Note_on_c, 3, 72, 25
7, 12041, Note_on_c, 3, 72, 0
7, 12048, Note_on_c, 3, 71, 0
7, 12067, Note_on_c, 3, 66, 61
7, 12080, Note_on_c, 3, 66, 0
7, 12087, Note_on_c, 3, 65, 31
7, 12098, Note_on_c, 3, 65, 0
7, 12109, Note_on_c, 3, 70, 72
7, 12126, Note_on_c, 3, 70, 0
7, 12142, Note_on_c, 3, 68, 65
7, 12154, Note_on_c, 3, 68, 0
7, 12168, Note_on_c, 3, 65, 45
7, 12177, Note_on_c, 3, 65, 0
7, 12184, Note_on_c, 3, 61, 40
7, 12193, Note_on_c, 3, 61, 0
7, 12271, Note_on_c, 3, 55, 33
7, 12274, Note_on_c, 3, 55, 0
7, 12283, Note_on_c, 3, 56, 50
7, 12293, Note_on_c, 3, 56, 0
7, 12298, Note_on_c, 3, 58, 52
7, 12307, Note_on_c, 3, 58, 0
7, 12313, Note_on_c, 3, 60, 59
7, 12321, Note_on_c, 3, 60, 0
7, 12328, Note_on_c, 3, 61, 62
7, 12338, Note_on_c, 3, 61, 0
7, 12343, Note_on_c, 3, 63, 67
7, 12354, Note_on_c, 3, 63, 0
7, 12359, Note_on_c, 3, 64, 63
7, 12371, Note_on_c, 3, 64, 0
7, 12382, Note_on_c, 3, 66, 32
7, 12386, Note_on_c, 3, 66, 0
7, 12427, Note_on_c, 3, 68, 65
7, 12433, Note_on_c, 3, 68, 0
7, 12443, Note_on_c, 3, 70, 67
7, 12451, Note_on_c, 3, 70, 0
7, 12459, Note_on_c, 3, 72, 80
7, 12472, Note_on_c, 3, 72, 0
7, 12479, Note_on_c, 3, 67, 51
7, 12486, Note_on_c, 3, 67, 0
7, 12496, Note_on_c, 3, 68, 71
7, 12513, Note_on_c, 3, 68, 0
7, 12518, Note_on_c, 3, 64, 22
7, 12522, Note_on_c, 3, 64, 0
7, 12527, Note_on_c, 3, 67, 73
7, 12543, Note_on_c, 3, 67, 0
7, 12549, Note_on_c, 3, 64, 20
7, 12553, Note_on_c, 3, 64, 0
7, 12563, Note_on_c, 3, 65, 76
7, 12583, Note_on_c, 3, 65, 0
7, 12586, Note_on_c, 3, 60, 68
7, 12597, Note_on_c, 3, 60, 0
7, 12607, Note_on_c, 3, 60, 56
7, 12630, Note_on_c, 3, 60, 0
7, 12639, Note_on_c, 3, 60, 51
7, 12647, Note_on_c, 3, 60, 0
7, 12774, Note_on_c, 3, 71, 68
7, 12775, Note_on_c, 3, 69, 56
7, 12776, Note_on_c, 3, 72, 72
7, 12778, Note_on_c, 3, 69, 0
7, 12782, Note_on_c, 3, 71, 0
7, 12829, Note_on_c, 3, 72, 0
7, 12836, Note_on_c, 3, 71, 63
7, 12837, Note_on_c, 3, 70, 30
7, 12842, Note_on_c, 3, 72, 67
7, 12846, Note_on_c, 3, 70, 0
7, 12849, Note_on_c, 3, 71, 0
7, 12879, Note_on_c, 3, 72, 0
7, 12880, Note_on_c, 3, 70, 71
7, 12898, Note_on_c, 3, 70, 0
7, 12904, Note_on_c, 3, 68, 51
7, 12943, Note_on_c, 3, 68, 0
7, 12947, Note_on_c, 3, 64, 23
7, 12951, Note_on_c, 3, 64, 0
7, 12962, Note_on_c, 3, 68, 66
7, 12995, Note_on_c, 3, 68, 0
7, 13019, Note_on_c, 3, 70, 72
7, 13023, Note_on_c, 3, 71, 61
7, 13035, Note_on_c, 3, 70, 0
7, 13069, Note_on_c, 3, 71, 0
7, 13076, Note_on_c, 3, 70, 62
7, 13083, Note_on_c, 3, 71, 50
7, 13088, Note_on_c, 3, 70, 0
7, 13119, Note_on_c, 3, 71, 0
7, 13121, Note_on_c, 3, 70, 66
7, 13136, Note_on_c, 3, 70, 0
7, 13145, Note_on_c, 3, 68, 57
7, 13161, Note_on_c, 3, 68, 0
7, 13184, Note_on_c, 3, 65, 47
7, 13187, Note_on_c, 3, 65, 0
7, 13202, Note_on_c, 3, 66, 62
7, 13207, Note_on_c, 3, 67, 59
7, 13213, Note_on_c, 3, 66, 0
7, 13240, Note_on_c, 3, 67, 0
7, 13258, Note_on_c, 3, 63, 61
7, 13262, Note_on_c, 3, 64, 55
7, 13264, Note_on_c, 3, 65, 13
7, 13267, Note_on_c, 3, 65, 0
7, 13269, Note_on_c, 3, 63, 0
7, 13273, Note_on_c, 3, 65, 16
7, 13298, Note_on_c, 3, 65, 0
7, 13304, Note_on_c, 3, 64, 0
7, 13314, Note_on_c, 3, 61, 66
7, 13317, Note_on_c, 3, 62, 64
7, 13325, Note_on_c, 3, 61, 0
7, 13366, Note_on_c, 3, 62, 0
7, 13372, Note_on_c, 3, 58, 60
7, 13413, Note_on_c, 3, 58, 0
7, 13416, Note_on_c, 3, 55, 48
7, 13419, Note_on_c, 3, 55, 0
7, 13434, Note_on_c, 3, 58, 57
7, 13448, Note_on_c, 3, 58, 0
7, 13473, Note_on_c, 3, 63, 46
7, 13482, Note_on_c, 3, 63, 0
7, 13493, Note_on_c, 3, 65, 27
7, 13498, Note_on_c, 3, 65, 0
7, 13512, Note_on_c, 3, 70, 47
7, 13519, Note_on_c, 3, 70, 0
7, 13527, Note_on_c, 3, 72, 62
7, 13537, Note_on_c, 3, 72, 0
7, 13543, Note_on_c, 3, 77, 68
7, 13554, Note_on_c, 3, 77, 0
7, 13559, Note_on_c, 3, 82, 67
7, 13570, Note_on_c, 3, 82, 0
7, 13576, Note_on_c, 3, 84, 87
7, 13590, Note_on_c, 3, 84, 0
7, 13590, Note_on_c, 3, 82, 61
7, 13600, Note_on_c, 3, 82, 0
7, 13607, Note_on_c, 3, 84, 79
7, 13618, Note_on_c, 3, 84, 0
7, 13620, Note_on_c, 3, 82, 53
7, 13629, Note_on_c, 3, 82, 0
7, 13638, Note_on_c, 3, 84, 77
7, 13650, Note_on_c, 3, 82, 55
7, 13654, Note_on_c, 3, 84, 0
7, 13667, Note_on_c, 3, 77, 48
7, 13669, Note_on_c, 3, 82, 0
7, 13675, Note_on_c, 3, 77, 0
7, 13706, Note_on_c, 3, 87, 72
7, 13727, Note_on_c, 3, 87, 0
7, 13739, Note_on_c, 3, 85, 74
7, 13755, Note_on_c, 3, 85, 0
7, 13761, Note_on_c, 3, 87, 61
7, 13775, Note_on_c, 3, 87, 0
7, 13805, Note_on_c, 3, 83, 73
7, 13807, Note_on_c, 3, 84, 72
7, 13814, Note_on_c, 3, 83, 0
7, 13833, Note_on_c, 3, 84, 0
7, 13843, Note_on_c, 3, 82, 71
7, 13860, Note_on_c, 3, 82, 0
7, 13867, Note_on_c, 3, 79, 54
7, 13892, Note_on_c, 3, 79, 0
7, 13906, Note_on_c, 3, 72, 24
7, 13909, Note_on_c, 3, 72, 0
7, 13987, Note_on_c, 3, 70, 92
7, 13995, Note_on_c, 3, 70, 0
7, 14002, Note_on_c, 3, 71, 75
7, 14014, Note_on_c, 3, 71, 0
7, 14018, Note_on_c, 3, 70, 67
7, 14030, Note_on_c, 3, 70, 0
7, 14034, Note_on_c, 3, 68, 56
7, 14047, Note_on_c, 3, 68, 0
7, 14050, Note_on_c, 3, 67, 30
7, 14069, Note_on_c, 3, 67, 0
7, 14083, Note_on_c, 3, 65, 64
7, 14096, Note_on_c, 3, 65, 0
7, 14107, Note_on_c, 3, 63, 40
7, 14120, Note_on_c, 3, 63, 0
7, 14139, Note_on_c, 3, 62, 53
7, 14149, Note_on_c, 3, 62, 0
7, 14163, Note_on_c, 3, 63, 30
7, 14174, Note_on_c, 3, 63, 0
7, 14197, Note_on_c, 3, 65, 51
7, 14206, Note_on_c, 3, 65, 0
7, 14219, Note_on_c, 3, 67, 47
7, 14227, Note_on_c, 3, 67, 0
7, 14254, Note_on_c, 3, 68, 65
7, 14265, Note_on_c, 3, 68, 0
7, 14276, Note_on_c, 3, 70, 52
7, 14282, Note_on_c, 3, 70, 0
7, 14294, Note_on_c, 3, 72, 58
7, 14304, Note_on_c, 3, 72, 0
7, 14310, Note_on_c, 3, 73, 67
7, 14318, Note_on_c, 3, 73, 0
7, 14325, Note_on_c, 3, 75, 65
7, 14334, Note_on_c, 3, 75, 0
7, 14341, Note_on_c, 3, 76, 65
7, 14351, Note_on_c, 3, 76, 0
7, 14358, Note_on_c, 3, 79, 83
7, 14369, Note_on_c, 3, 79, 0
7, 14372, Note_on_c, 3, 76, 60
7, 14381, Note_on_c, 3, 76, 0
7, 14388, Note_on_c, 3, 77, 79
7, 14393, Note_on_c, 3, 79, 28
7, 14397, Note_on_c, 3, 79, 0
7, 14404, Note_on_c, 3, 77, 0
7, 14406, Note_on_c, 3, 72, 61
7, 14422, Note_on_c, 3, 72, 0
7, 14425, Note_on_c, 3, 68, 52
7, 14431, Note_on_c, 3, 68, 0
7, 14435, Note_on_c, 3, 67, 20
7, 14453, Note_on_c, 3, 67, 0
7, 14469, Note_on_c, 3, 70, 55
7, 14471, Note_on_c, 3, 69, 46
7, 14475, Note_on_c, 3, 69, 0
7, 14482, Note_on_c, 3, 70, 0
7, 14493, Note_on_c, 3, 68, 71
7, 14505, Note_on_c, 3, 68, 0
7, 14522, Note_on_c, 3, 67, 72
7, 14530, Note_on_c, 3, 67, 0
7, 14535, Note_on_c, 3, 68, 52
7, 14549, Note_on_c, 3, 67, 48
7, 14554, Note_on_c, 3, 68, 0
7, 14563, Note_on_c, 3, 67, 0
7, 14567, Note_on_c, 3, 65, 38
7, 14575, Note_on_c, 3, 65, 0
7, 14608, Note_on_c, 3, 62, 38
7, 14615, Note_on_c, 3, 62, 0
7, 14695, Note_on_c, 3, 73, 72
7, 14696, Note_on_c, 3, 74, 79
7, 14701, Note_on_c, 3, 73, 0
7, 14711, Note_on_c, 3, 74, 0
7, 14737, Note_on_c, 3, 77, 89
7, 14749, Note_on_c, 3, 77, 0
7, 14764, Note_on_c, 3, 73, 45
7, 14766, Note_on_c, 3, 74, 68
7, 14773, Note_on_c, 3, 73, 0
7, 14780, Note_on_c, 3, 74, 0
7, 14800, Note_on_c, 3, 74, 77
7, 14811, Note_on_c, 3, 74, 0
7, 14823, Note_on_c, 3, 66, 44
7, 14838, Note_on_c, 3, 66, 0
7, 14857, Note_on_c, 3, 66, 62
7, 14867, Note_on_c, 3, 66, 0
7, 14879, Note_on_c, 3, 67, 43
7, 14900, Note_on_c, 3, 67, 0
7, 14917, Note_on_c, 3, 67, 50
7, 14924, Note_on_c, 3, 67, 0
7, 14941, Note_on_c, 3, 72, 52
7, 14945, Note_on_c, 3, 73, 13
7, 14951, Note_on_c, 3, 72, 0
7, 14951, Note_on_c, 3, 74, 50
7, 14954, Note_on_c, 3, 74, 0
7, 14957, Note_on_c, 3, 73, 0
7, 14976, Note_on_c, 3, 72, 70
7, 14980, Note_on_c, 3, 73, 50
7, 14986, Note_on_c, 3, 72, 0
7, 14994, Note_on_c, 3, 73, 0
7, 15005, Note_on_c, 3, 72, 64
7, 15026, Note_on_c, 3, 72, 0
7, 15037, Note_on_c, 3, 70, 70
7, 15053, Note_on_c, 3, 70, 0
7, 15063, Note_on_c, 3, 67, 25
7, 15075, Note_on_c, 3, 67, 0
7, 15095, Note_on_c, 3, 66, 78
7, 15108, Note_on_c, 3, 66, 0
7, 15120, Note_on_c, 3, 65, 69
7, 15131, Note_on_c, 3, 66, 51
7, 15137, Note_on_c, 3, 65, 0
7, 15145, Note_on_c, 3, 66, 0
7, 15157, Note_on_c, 3, 66, 71
7, 15172, Note_on_c, 3, 66, 0
7, 15183, Note_on_c, 3, 65, 49
7, 15194, Note_on_c, 3, 65, 0
7, 15215, Note_on_c, 3, 63, 68
7, 15227, Note_on_c, 3, 63, 0
7, 15239, Note_on_c, 3, 61, 58
7, 15244, Note_on_c, 3, 62, 55
7, 15252, Note_on_c, 3, 61, 0
7, 15267, Note_on_c, 3, 62, 0
7, 15300, Note_on_c, 3, 67, 68
7, 15300, Note_on_c, 3, 65, 65
7, 15310, Note_on_c, 3, 67, 0
7, 15315, Note_on_c, 3, 65, 0
7, 15339, Note_on_c, 3, 62, 72
7, 15403, Note_on_c, 3, 62, 0
7, 15416, Note_on_c, 3, 70, 78
7, 15454, Note_on_c, 3, 70, 0
7, 15456, Note_on_c, 3, 67, 76
7, 15534, Note_on_c, 3, 67, 0
7, 15538, Note_on_c, 3, 77, 75
7, 15574, Note_on_c, 3, 77, 0
7, 15578, Note_on_c, 3, 72, 82
7, 15646, Note_on_c, 3, 72, 0
7, 15657, Note_on_c, 3, 84, 82
7, 15694, Note_on_c, 3, 84, 0
7, 15698, Note_on_c, 3, 81, 75
7, 15769, Note_on_c, 3, 81, 0
7, 15779, Note_on_c, 3, 77, 51
7, 15820, Note_on_c, 3, 77, 0
7, 15820, Note_on_c, 3, 75, 61
7, 15841, Note_on_c, 3, 75, 0
7, 15850, Note_on_c, 3, 71, 48
7, 15885, Note_on_c, 3, 71, 0
7, 15901, Note_on_c, 3, 71, 35
7, 15945, Note_on_c, 3, 71, 0
7, 15962, Note_on_c, 3, 71, 43
7, 15997, Note_on_c, 3, 71, 0
7, 16004, Note_on_c, 3, 70, 47
7, 16018, Note_on_c, 3, 70, 0
7, 16027, Note_on_c, 3, 68, 24
7, 16062, Note_on_c, 3, 68, 0
7, 16140, Note_on_c, 3, 73, 82
7, 16177, Note_on_c, 3, 73, 0
7, 16199, Note_on_c, 3, 73, 87
7, 16235, Note_on_c, 3, 73, 0
7, 16240, Note_on_c, 3, 72, 56
7, 16256, Note_on_c, 3, 72, 0
7, 16260, Note_on_c, 3, 70, 61
7, 16307, Note_on_c, 3, 70, 0
7, 16320, Note_on_c, 3, 75, 78
7, 16368, Note_on_c, 3, 75, 0
7, 16422, Note_on_c, 3, 79, 96
7, 16442, Note_on_c, 3, 79, 0
7, 16451, Note_on_c, 3, 79, 64
7, 16475, Note_on_c, 3, 79, 0
7, 16484, Note_on_c, 3, 77, 55
7, 16498, Note_on_c, 3, 77, 0
7, 16511, Note_on_c, 3, 76, 47
7, 16541, Note_on_c, 3, 76, 0
7, 16562, Note_on_c, 3, 82, 74
7, 16604, Note_on_c, 3, 82, 0
7, 16617, Note_on_c, 3, 82, 73
7, 16661, Note_on_c, 3, 82, 0
7, 16663, Note_on_c, 3, 79, 26
7, 16668, Note_on_c, 3, 79, 0
7, 16682, Note_on_c, 3, 82, 74
7, 16718, Note_on_c, 3, 82, 0
7, 16722, Note_on_c, 3, 80, 53
7, 16738, Note_on_c, 3, 80, 0
7, 16747, Note_on_c, 3, 79, 42
7, 16781, Note_on_c, 3, 79, 0
7, 16788, Note_on_c, 3, 77, 21
7, 16794, Note_on_c, 3, 77, 0
7, 16809, Note_on_c, 3, 80, 62
7, 16895, Note_on_c, 3, 80, 0
7, 16902, Note_on_c, 3, 79, 62
7, 16918, Note_on_c, 3, 79, 0
7, 16927, Note_on_c, 3, 77, 40
7, 16943, Note_on_c, 3, 77, 0
7, 16963, Note_on_c, 3, 75, 52
7, 16968, Note_on_c, 3, 76, 14
7, 16973, Note_on_c, 3, 76, 0
7, 16975, Note_on_c, 3, 75, 0
7, 16987, Note_on_c, 3, 71, 39
7, 17017, Note_on_c, 3, 71, 0
7, 17027, Note_on_c, 3, 69, 43
7, 17032, Note_on_c, 3, 69, 0
7, 17045, Note_on_c, 3, 70, 63
7, 17101, Note_on_c, 3, 70, 0
7, 17105, Note_on_c, 3, 68, 55
7, 17112, Note_on_c, 3, 68, 0
7, 17144, Note_on_c, 3, 70, 69
7, 17154, Note_on_c, 3, 70, 0
7, 17168, Note_on_c, 3, 66, 60
7, 17174, Note_on_c, 3, 67, 43
7, 17179, Note_on_c, 3, 66, 0
7, 17190, Note_on_c, 3, 67, 0
7, 17202, Note_on_c, 3, 66, 57
7, 17207, Note_on_c, 3, 67, 41
7, 17214, Note_on_c, 3, 66, 0
7, 17219, Note_on_c, 3, 67, 0
7, 17232, Note_on_c, 3, 62, 35
7, 17249, Note_on_c, 3, 62, 0
7, 17263, Note_on_c, 3, 62, 60
7, 17273, Note_on_c, 3, 62, 0
7, 17286, Note_on_c, 3, 65, 43
7, 17294, Note_on_c, 3, 65, 0
7, 17320, Note_on_c, 3, 65, 67
7, 17328, Note_on_c, 3, 65, 0
7, 17341, Note_on_c, 3, 63, 49
7, 17349, Note_on_c, 3, 63, 0
7, 17382, Note_on_c, 3, 64, 51
7, 17387, Note_on_c, 3, 64, 0
7, 17399, Note_on_c, 3, 62, 57
7, 17451, Note_on_c, 3, 62, 0
7, 17456, Note_on_c, 3, 63, 48
7, 17501, Note_on_c, 3, 63, 0
7, 17518, Note_on_c, 3, 70, 63
7, 17532, Note_on_c, 3, 70, 0
7, 17546, Note_on_c, 3, 67, 31
7, 17555, Note_on_c, 3, 67, 0
7, 17560, Note_on_c, 3, 68, 59
7, 17572, Note_on_c, 3, 68, 0
7, 17576, Note_on_c, 3, 69, 50
7, 17586, Note_on_c, 3, 69, 0
7, 17590, Note_on_c, 3, 70, 45
7, 17599, Note_on_c, 3, 70, 0
7, 17604, Note_on_c, 3, 72, 59
7, 17616, Note_on_c, 3, 72, 0
7, 17618, Note_on_c, 3, 73, 62
7, 17630, Note_on_c, 3, 73, 0
7, 17635, Note_on_c, 3, 75, 57
7, 17643, Note_on_c, 3, 75, 0
7, 17650, Note_on_c, 3, 76, 52
7, 17658, Note_on_c, 3, 76, 0
7, 17666, Note_on_c, 3, 78, 37
7, 17671, Note_on_c, 3, 78, 0
7, 17680, Note_on_c, 3, 79, 45
7, 17693, Note_on_c, 3, 79, 0
7, 17697, Note_on_c, 3, 82, 60
7, 17704, Note_on_c, 3, 82, 0
7, 17712, Note_on_c, 3, 84, 79
7, 17724, Note_on_c, 3, 84, 0
7, 17731, Note_on_c, 3, 84, 70
7, 17742, Note_on_c, 3, 84, 0
7, 17746, Note_on_c, 3, 79, 42
7, 17753, Note_on_c, 3, 79, 0
7, 17762, Note_on_c, 3, 79, 50
7, 17769, Note_on_c, 3, 79, 0
7, 17774, Note_on_c, 3, 82, 64
7, 17784, Note_on_c, 3, 82, 0
7, 17791, Note_on_c, 3, 82, 59
7, 17802, Note_on_c, 3, 82, 0
7, 17803, Note_on_c, 3, 75, 50
7, 17811, Note_on_c, 3, 75, 0
7, 17818, Note_on_c, 3, 75, 52
7, 17827, Note_on_c, 3, 75, 0
7, 17831, Note_on_c, 3, 79, 58
7, 17842, Note_on_c, 3, 79, 0
7, 17849, Note_on_c, 3, 79, 59
7, 17861, Note_on_c, 3, 79, 0
7, 17863, Note_on_c, 3, 72, 35
7, 17867, Note_on_c, 3, 72, 0
7, 17879, Note_on_c, 3, 72, 41
7, 17883, Note_on_c, 3, 72, 0
7, 17889, Note_on_c, 3, 75, 61
7, 17898, Note_on_c, 3, 75, 0
7, 17907, Note_on_c, 3, 75, 48
7, 17921, Note_on_c, 3, 75, 0
7, 17938, Note_on_c, 3, 68, 28
7, 17942, Note_on_c, 3, 68, 0
7, 17950, Note_on_c, 3, 72, 52
7, 17958, Note_on_c, 3, 72, 0
7, 17966, Note_on_c, 3, 72, 48
7, 17976, Note_on_c, 3, 72, 0
7, 18025, Note_on_c, 3, 70, 69
7, 18025, Note_on_c, 3, 71, 79
7, 18033, Note_on_c, 3, 70, 0
7, 18045, Note_on_c, 3, 71, 0
7, 18060, Note_on_c, 3, 71, 73
7, 18061, Note_on_c, 3, 70, 50
7, 18066, Note_on_c, 3, 70, 0
7, 18107, Note_on_c, 3, 71, 0
7, 18110, Note_on_c, 3, 70, 50
7, 18116, Note_on_c, 3, 70, 0
7, 18123, Note_on_c, 3, 71, 66
7, 18137, Note_on_c, 3, 71, 0
7, 18144, Note_on_c, 3, 70, 64
7, 18177, Note_on_c, 3, 70, 0
7, 18181, Note_on_c, 3, 68, 65
7, 18223, Note_on_c, 3, 65, 23
7, 18224, Note_on_c, 3, 68, 0
7, 18227, Note_on_c, 3, 65, 0
7, 18238, Note_on_c, 3, 67, 46
7, 18275, Note_on_c, 3, 67, 0
7, 18282, Note_on_c, 3, 68, 43
7, 18289, Note_on_c, 3, 68, 0
7, 18297, Note_on_c, 3, 70, 70
7, 18349, Note_on_c, 3, 70, 0
7, 18358, Note_on_c, 3, 70, 60
7, 18479, Note_on_c, 3, 70, 0
7, 18485, Note_on_c, 3, 68, 73
7, 18520, Note_on_c, 3, 68, 0
7, 18526, Note_on_c, 3, 70, 45
7, 18536, Note_on_c, 3, 70, 0
7, 18542, Note_on_c, 3, 70, 37
7, 18542, Note_on_c, 3, 71, 71
7, 18549, Note_on_c, 3, 70, 0
7, 18583, Note_on_c, 3, 71, 0
7, 18586, Note_on_c, 3, 70, 73
7, 18587, Note_on_c, 3, 71, 62
7, 18600, Note_on_c, 3, 70, 0
7, 18661, Note_on_c, 3, 71, 0
7, 18663, Note_on_c, 3, 70, 69
7, 18701, Note_on_c, 3, 70, 0
7, 18703, Note_on_c, 3, 72, 44
7, 18711, Note_on_c, 3, 72, 0
7, 18721, Note_on_c, 3, 74, 70
7, 18755, Note_on_c, 3, 74, 0
7, 18761, Note_on_c, 3, 74, 80
7, 18838, Note_on_c, 3, 74, 0
7, 18841, Note_on_c, 3, 70, 34
7, 18877, Note_on_c, 3, 70, 0
7, 18882, Note_on_c, 3, 72, 34
7, 18888, Note_on_c, 3, 72, 0
7, 18898, Note_on_c, 3, 74, 69
7, 18952, Note_on_c, 3, 74, 0
7, 18961, Note_on_c, 3, 75, 52
7, 19011, Note_on_c, 3, 75, 0
7, 19021, Note_on_c, 3, 76, 41
7, 19061, Note_on_c, 3, 76, 0
7, 19076, Note_on_c, 3, 80, 28
7, 19116, Note_on_c, 3, 80, 0
7, 19139, Note_on_c, 3, 86, 65
7, 19177, Note_on_c, 3, 86, 0
7, 19180, Note_on_c, 3, 85, 61
7, 19187, Note_on_c, 3, 86, 45
7, 19192, Note_on_c, 3, 85, 0
7, 19573, Note_on_c, 3, 86, 0
7, 19573, End_track
8, 0, Start_track
8, 0, MIDI_port, 0
8, 0, Program_c, 1, 35
8, 2869, Note_on_c, 1, 45, 47
8, 2874, Note_on_c, 1, 45, 0
8, 2886, Note_on_c, 1, 46, 71
8, 3006, Note_on_c, 1, 46, 0
8, 3007, Note_on_c, 1, 34, 60
8, 3108, Note_on_c, 1, 46, 44
8, 3112, Note_on_c, 1, 46, 0
8, 3124, Note_on_c, 1, 34, 0
8, 3125, Note_on_c, 1, 58, 92
8, 3282, Note_on_c, 1, 46, 74
8, 3290, Note_on_c, 1, 46, 0
8, 3299, Note_on_c, 1, 58, 0
8, 3304, Note_on_c, 1, 34, 78
8, 3481, Note_on_c, 1, 46, 90
8, 3483, Note_on_c, 1, 34, 0
8, 3646, Note_on_c, 1, 41, 37
8, 3651, Note_on_c, 1, 41, 0
8, 3653, Note_on_c, 1, 46, 0
8, 3662, Note_on_c, 1, 58, 88
8, 3764, Note_on_c, 1, 37, 37
8, 3777, Note_on_c, 1, 37, 0
8, 3781, Note_on_c, 1, 58, 0
8, 3785, Note_on_c, 1, 40, 67
8, 3844, Note_on_c, 1, 40, 0
8, 3847, Note_on_c, 1, 39, 56
8, 3956, Note_on_c, 1, 46, 52
8, 3961, Note_on_c, 1, 46, 0
8, 4014, Note_on_c, 1, 37, 46
8, 4015, Note_on_c, 1, 39, 0
8, 4024, Note_on_c, 1, 37, 0
8, 4031, Note_on_c, 1, 46, 71
8, 4087, Note_on_c, 1, 46, 0
8, 4092, Note_on_c, 1, 45, 50
8, 4191, Note_on_c, 1, 40, 44
8, 4199, Note_on_c, 1, 45, 0
8, 4201, Note_on_c, 1, 40, 0
8, 4209, Note_on_c, 1, 33, 63
8, 4318, Note_on_c, 1, 33, 0
8, 4327, Note_on_c, 1, 32, 67
8, 4422, Note_on_c, 1, 38, 61
8, 4428, Note_on_c, 1, 32, 0
8, 4433, Note_on_c, 1, 38, 0
8, 4442, Note_on_c, 1, 37, 75
8, 4557, Note_on_c, 1, 43, 90
8, 4559, Note_on_c, 1, 37, 0
8, 4648, Note_on_c, 1, 43, 0
8, 4659, Note_on_c, 1, 49, 71
8, 4671, Note_on_c, 1, 49, 0
8, 4680, Note_on_c, 1, 48, 73
8, 4689, Note_on_c, 1, 48, 0
8, 4724, Note_on_c, 1, 43, 34
8, 4725, Note_on_c, 1, 45, 31
8, 4729, Note_on_c, 1, 45, 0
8, 4729, Note_on_c, 1, 43, 0
8, 4740, Note_on_c, 1, 40, 70
8, 4799, Note_on_c, 1, 40, 0
8, 4802, Note_on_c, 1, 41, 60
8, 4885, Note_on_c, 1, 42, 62
8, 4889, Note_on_c, 1, 41, 0
8, 4894, Note_on_c, 1, 42, 0
8, 4903, Note_on_c, 1, 43, 71
8, 4912, Note_on_c, 1, 43, 0
8, 4923, Note_on_c, 1, 44, 83
8, 5024, Note_on_c, 1, 41, 44
8, 5029, Note_on_c, 1, 41, 0
8, 5029, Note_on_c, 1, 44, 0
8, 5040, Note_on_c, 1, 48, 88
8, 5139, Note_on_c, 1, 43, 41
8, 5146, Note_on_c, 1, 43, 0
8, 5153, Note_on_c, 1, 48, 0
8, 5160, Note_on_c, 1, 36, 60
8, 5260, Note_on_c, 1, 36, 0
8, 5265, Note_on_c, 1, 40, 57
8, 5276, Note_on_c, 1, 40, 0
8, 5283, Note_on_c, 1, 41, 59
8, 5386, Note_on_c, 1, 39, 33
8, 5394, Note_on_c, 1, 41, 0
8, 5401, Note_on_c, 1, 47, 79
8, 5402, Note_on_c, 1, 39, 0
8, 5519, Note_on_c, 1, 47, 0
8, 5521, Note_on_c, 1, 46, 67
8, 5564, Note_on_c, 1, 46, 0
8, 5565, Note_on_c, 1, 41, 60
8, 5575, Note_on_c, 1, 41, 0
8, 5583, Note_on_c, 1, 34, 74
8, 5680, Note_on_c, 1, 34, 0
8, 5683, Note_on_c, 1, 41, 51
8, 5688, Note_on_c, 1, 41, 0
8, 5699, Note_on_c, 1, 38, 81
8, 5757, Note_on_c, 1, 38, 0
8, 5760, Note_on_c, 1, 39, 69
8, 5862, Note_on_c, 1, 37, 37
8, 5873, Note_on_c, 1, 37, 0
8, 5874, Note_on_c, 1, 39, 0
8, 5878, Note_on_c, 1, 46, 71
8, 5976, Note_on_c, 1, 46, 0
8, 5981, Note_on_c, 1, 45, 55
8, 5989, Note_on_c, 1, 45, 0
8, 6002, Note_on_c, 1, 46, 64
8, 6106, Note_on_c, 1, 39, 49
8, 6107, Note_on_c, 1, 46, 0
8, 6116, Note_on_c, 1, 39, 0
8, 6120, Note_on_c, 1, 51, 79
8, 6164, Note_on_c, 1, 51, 0
8, 6164, Note_on_c, 1, 44, 43
8, 6181, Note_on_c, 1, 44, 0
8, 6183, Note_on_c, 1, 45, 66
8, 6240, Note_on_c, 1, 45, 0
8, 6245, Note_on_c, 1, 44, 53
8, 6358, Note_on_c, 1, 44, 0
8, 6365, Note_on_c, 1, 39, 53
8, 6482, Note_on_c, 1, 39, 0
8, 6486, Note_on_c, 1, 32, 70
8, 6604, Note_on_c, 1, 32, 0
8, 6644, Note_on_c, 1, 35, 68
8, 6655, Note_on_c, 1, 35, 0
8, 6663, Note_on_c, 1, 36, 80
8, 6715, Note_on_c, 1, 36, 0
8, 6719, Note_on_c, 1, 41, 77
8, 6830, Note_on_c, 1, 41, 0
8, 6837, Note_on_c, 1, 43, 74
8, 6940, Note_on_c, 1, 41, 53
8, 6944, Note_on_c, 1, 41, 0
8, 6952, Note_on_c, 1, 43, 0
8, 6958, Note_on_c, 1, 44, 77
8, 7063, Note_on_c, 1, 42, 52
8, 7068, Note_on_c, 1, 44, 0
8, 7072, Note_on_c, 1, 42, 0
8, 7078, Note_on_c, 1, 50, 88
8, 7182, Note_on_c, 1, 42, 37
8, 7194, Note_on_c, 1, 50, 0
8, 7196, Note_on_c, 1, 42, 0
8, 7201, Note_on_c, 1, 43, 64
8, 7322, Note_on_c, 1, 43, 0
8, 7323, Note_on_c, 1, 48, 87
8, 7369, Note_on_c, 1, 43, 63
8, 7373, Note_on_c, 1, 48, 0
8, 7381, Note_on_c, 1, 43, 0
8, 7447, Note_on_c, 1, 47, 84
8, 7544, Note_on_c, 1, 39, 51
8, 7550, Note_on_c, 1, 39, 0
8, 7553, Note_on_c, 1, 47, 0
8, 7561, Note_on_c, 1, 46, 67
8, 7576, Note_on_c, 1, 46, 0
8, 7601, Note_on_c, 1, 41, 70
8, 7609, Note_on_c, 1, 41, 0
8, 7620, Note_on_c, 1, 40, 74
8, 7674, Note_on_c, 1, 40, 0
8, 7680, Note_on_c, 1, 39, 68
8, 7742, Note_on_c, 1, 46, 85
8, 7745, Note_on_c, 1, 39, 0
8, 7844, Note_on_c, 1, 39, 40
8, 7848, Note_on_c, 1, 39, 0
8, 7860, Note_on_c, 1, 46, 0
8, 7863, Note_on_c, 1, 45, 74
8, 7967, Note_on_c, 1, 40, 44
8, 7973, Note_on_c, 1, 40, 0
8, 7973, Note_on_c, 1, 45, 0
8, 7986, Note_on_c, 1, 33, 69
8, 8083, Note_on_c, 1, 40, 40
8, 8088, Note_on_c, 1, 40, 0
8, 8097, Note_on_c, 1, 33, 0
8, 8103, Note_on_c, 1, 45, 64
8, 8147, Note_on_c, 1, 40, 39
8, 8153, Note_on_c, 1, 40, 0
8, 8155, Note_on_c, 1, 45, 0
8, 8162, Note_on_c, 1, 44, 59
8, 8285, Note_on_c, 1, 44, 0
8, 8285, Note_on_c, 1, 37, 73
8, 8404, Note_on_c, 1, 37, 0
8, 8405, Note_on_c, 1, 43, 80
8, 8509, Note_on_c, 1, 35, 57
8, 8521, Note_on_c, 1, 43, 0
8, 8524, Note_on_c, 1, 35, 0
8, 8529, Note_on_c, 1, 36, 62
8, 8575, Note_on_c, 1, 34, 42
8, 8580, Note_on_c, 1, 36, 0
8, 8586, Note_on_c, 1, 34, 0
8, 8592, Note_on_c, 1, 40, 55
8, 8640, Note_on_c, 1, 36, 42
8, 8644, Note_on_c, 1, 36, 0
8, 8645, Note_on_c, 1, 40, 0
8, 8654, Note_on_c, 1, 41, 57
8, 8766, Note_on_c, 1, 41, 0
8, 8778, Note_on_c, 1, 48, 78
8, 8877, Note_on_c, 1, 48, 0
8, 8879, Note_on_c, 1, 47, 55
8, 8890, Note_on_c, 1, 47, 0
8, 8896, Note_on_c, 1, 48, 65
8, 8936, Note_on_c, 1, 43, 50
8, 8941, Note_on_c, 1, 43, 0
8, 8941, Note_on_c, 1, 48, 0
8, 8956, Note_on_c, 1, 36, 74
8, 9052, Note_on_c, 1, 43, 54
8, 9055, Note_on_c, 1, 36, 0
8, 9058, Note_on_c, 1, 43, 0
8, 9069, Note_on_c, 1, 48, 82
8, 9103, Note_on_c, 1, 40, 54
8, 9109, Note_on_c, 1, 48, 0
8, 9116, Note_on_c, 1, 40, 0
8, 9123, Note_on_c, 1, 41, 61
8, 9221, Note_on_c, 1, 39, 29
8, 9232, Note_on_c, 1, 41, 0
8, 9236, Note_on_c, 1, 39, 0
8, 9236, Note_on_c, 1, 44, 71
8, 9324, Note_on_c, 1, 44, 0
8, 9339, Note_on_c, 1, 45, 59
8, 9346, Note_on_c, 1, 45, 0
8, 9361, Note_on_c, 1, 46, 57
8, 9528, Note_on_c, 1, 41, 48
8, 9533, Note_on_c, 1, 41, 0
8, 9534, Note_on_c, 1, 46, 0
8, 9542, Note_on_c, 1, 50, 75
8, 9650, Note_on_c, 1, 43, 49
8, 9654, Note_on_c, 1, 43, 0
8, 9654, Note_on_c, 1, 50, 0
8, 9667, Note_on_c, 1, 51, 78
8, 9784, Note_on_c, 1, 51, 0
8, 9785, Note_on_c, 1, 43, 51
8, 9831, Note_on_c, 1, 41, 45
8, 9832, Note_on_c, 1, 43, 0
8, 9836, Note_on_c, 1, 41, 0
8, 9848, Note_on_c, 1, 46, 55
8, 9887, Note_on_c, 1, 39, 47
8, 9895, Note_on_c, 1, 39, 0
8, 9900, Note_on_c, 1, 46, 0
8, 9907, Note_on_c, 1, 45, 74
8, 9961, Note_on_c, 1, 45, 0
8, 9968, Note_on_c, 1, 57, 84
8, 10071, Note_on_c, 1, 45, 57
8, 10075, Note_on_c, 1, 45, 0
8, 10080, Note_on_c, 1, 57, 0
8, 10090, Note_on_c, 1, 56, 73
8, 10192, Note_on_c, 1, 51, 64
8, 10197, Note_on_c, 1, 56, 0
8, 10198, Note_on_c, 1, 51, 0
8, 10209, Note_on_c, 1, 44, 71
8, 10313, Note_on_c, 1, 42, 33
8, 10324, Note_on_c, 1, 42, 0
8, 10324, Note_on_c, 1, 44, 0
8, 10329, Note_on_c, 1, 53, 77
8, 10425, Note_on_c, 1, 44, 37
8, 10436, Note_on_c, 1, 53, 0
8, 10437, Note_on_c, 1, 44, 0
8, 10443, Note_on_c, 1, 46, 65
8, 10567, Note_on_c, 1, 34, 70
8, 10635, Note_on_c, 1, 46, 0
8, 10678, Note_on_c, 1, 46, 54
8, 10687, Note_on_c, 1, 46, 0
8, 10722, Note_on_c, 1, 46, 50
8, 10726, Note_on_c, 1, 46, 0
8, 10734, Note_on_c, 1, 34, 0
8, 10741, Note_on_c, 1, 58, 64
8, 10757, Note_on_c, 1, 58, 0
8, 10780, Note_on_c, 1, 58, 63
8, 10793, Note_on_c, 1, 58, 0
8, 10803, Note_on_c, 1, 46, 39
8, 10823, Note_on_c, 1, 46, 0
8, 10841, Note_on_c, 1, 46, 48
8, 10847, Note_on_c, 1, 46, 0
8, 10862, Note_on_c, 1, 34, 72
8, 11023, Note_on_c, 1, 46, 49
8, 11029, Note_on_c, 1, 46, 0
8, 11035, Note_on_c, 1, 34, 0
8, 11041, Note_on_c, 1, 58, 62
8, 11060, Note_on_c, 1, 58, 0
8, 11080, Note_on_c, 1, 58, 76
8, 11095, Note_on_c, 1, 58, 0
8, 11102, Note_on_c, 1, 46, 51
8, 11148, Note_on_c, 1, 46, 0
8, 11163, Note_on_c, 1, 34, 69
8, 11319, Note_on_c, 1, 34, 0
8, 11322, Note_on_c, 1, 46, 58
8, 11326, Note_on_c, 1, 46, 0
8, 11341, Note_on_c, 1, 58, 87
8, 11348, Note_on_c, 1, 59, 51
8, 11358, Note_on_c, 1, 59, 0
8, 11415, Note_on_c, 1, 56, 1
8, 11444, Note_on_c, 1, 46, 60
8, 11448, Note_on_c, 1, 46, 0
8, 11449, Note_on_c, 1, 58, 0
8, 11451, Note_on_c, 1, 56, 0
8, 11459, Note_on_c, 1, 52, 68
8, 11505, Note_on_c, 1, 46, 30
8, 11510, Note_on_c, 1, 46, 0
8, 11512, Note_on_c, 1, 52, 0
8, 11518, Note_on_c, 1, 51, 63
8, 11578, Note_on_c, 1, 45, 68
8, 11580, Note_on_c, 1, 51, 0
8, 11634, Note_on_c, 1, 45, 0
8, 11640, Note_on_c, 1, 46, 47
8, 11692, Note_on_c, 1, 46, 0
8, 11701, Note_on_c, 1, 43, 68
8, 11734, Note_on_c, 1, 43, 0
8, 11741, Note_on_c, 1, 44, 69
8, 11749, Note_on_c, 1, 44, 0
8, 11761, Note_on_c, 1, 45, 66
8, 11811, Note_on_c, 1, 45, 0
8, 11821, Note_on_c, 1, 40, 57
8, 11873, Note_on_c, 1, 40, 0
8, 11874, Note_on_c, 1, 33, 68
8, 11918, Note_on_c, 1, 33, 0
8, 11941, Note_on_c, 1, 35, 81
8, 11946, Note_on_c, 1, 33, 32
8, 11989, Note_on_c, 1, 35, 0
8, 11991, Note_on_c, 1, 33, 0
8, 11996, Note_on_c, 1, 34, 47
8, 12001, Note_on_c, 1, 33, 50
8, 12029, Note_on_c, 1, 34, 0
8, 12030, Note_on_c, 1, 33, 0
8, 12058, Note_on_c, 1, 32, 57
8, 12117, Note_on_c, 1, 32, 0
8, 12118, Note_on_c, 1, 44, 67
8, 12179, Note_on_c, 1, 37, 74
8, 12186, Note_on_c, 1, 44, 0
8, 12237, Note_on_c, 1, 37, 0
8, 12240, Note_on_c, 1, 43, 60
8, 12283, Note_on_c, 1, 37, 56
8, 12287, Note_on_c, 1, 43, 0
8, 12294, Note_on_c, 1, 37, 0
8, 12300, Note_on_c, 1, 49, 88
8, 12385, Note_on_c, 1, 48, 74
8, 12388, Note_on_c, 1, 49, 0
8, 12394, Note_on_c, 1, 48, 0
8, 12401, Note_on_c, 1, 43, 71
8, 12412, Note_on_c, 1, 43, 0
8, 12420, Note_on_c, 1, 40, 73
8, 12473, Note_on_c, 1, 40, 0
8, 12479, Note_on_c, 1, 41, 57
8, 12535, Note_on_c, 1, 41, 0
8, 12535, Note_on_c, 1, 36, 69
8, 12589, Note_on_c, 1, 36, 0
8, 12595, Note_on_c, 1, 34, 60
8, 12630, Note_on_c, 1, 34, 0
8, 12642, Note_on_c, 1, 34, 52
8, 12655, Note_on_c, 1, 34, 0
8, 12657, Note_on_c, 1, 35, 69
8, 12705, Note_on_c, 1, 34, 34
8, 12712, Note_on_c, 1, 35, 0
8, 12717, Note_on_c, 1, 34, 0
8, 12720, Note_on_c, 1, 36, 58
8, 12763, Note_on_c, 1, 34, 49
8, 12770, Note_on_c, 1, 36, 0
8, 12778, Note_on_c, 1, 34, 0
8, 12779, Note_on_c, 1, 49, 71
8, 12835, Note_on_c, 1, 49, 0
8, 12840, Note_on_c, 1, 48, 60
8, 12882, Note_on_c, 1, 43, 54
8, 12890, Note_on_c, 1, 48, 0
8, 12891, Note_on_c, 1, 43, 0
8, 12900, Note_on_c, 1, 40, 67
8, 12953, Note_on_c, 1, 40, 0
8, 12956, Note_on_c, 1, 41, 66
8, 13002, Note_on_c, 1, 39, 38
8, 13012, Note_on_c, 1, 41, 0
8, 13017, Note_on_c, 1, 39, 0
8, 13019, Note_on_c, 1, 43, 66
8, 13066, Note_on_c, 1, 41, 32
8, 13071, Note_on_c, 1, 43, 0
8, 13072, Note_on_c, 1, 41, 0
8, 13080, Note_on_c, 1, 44, 60
8, 13125, Note_on_c, 1, 41, 40
8, 13129, Note_on_c, 1, 44, 0
8, 13131, Note_on_c, 1, 41, 0
8, 13137, Note_on_c, 1, 45, 72
8, 13187, Note_on_c, 1, 41, 30
8, 13188, Note_on_c, 1, 45, 0
8, 13192, Note_on_c, 1, 41, 0
8, 13200, Note_on_c, 1, 46, 51
8, 13250, Note_on_c, 1, 46, 0
8, 13258, Note_on_c, 1, 48, 91
8, 13310, Note_on_c, 1, 48, 0
8, 13318, Note_on_c, 1, 49, 67
8, 13367, Note_on_c, 1, 49, 0
8, 13375, Note_on_c, 1, 50, 87
8, 13426, Note_on_c, 1, 50, 0
8, 13433, Note_on_c, 1, 51, 78
8, 13484, Note_on_c, 1, 51, 0
8, 13494, Note_on_c, 1, 51, 75
8, 13550, Note_on_c, 1, 51, 0
8, 13556, Note_on_c, 1, 46, 49
8, 13601, Note_on_c, 1, 43, 54
8, 13605, Note_on_c, 1, 43, 0
8, 13606, Note_on_c, 1, 46, 0
8, 13615, Note_on_c, 1, 45, 91
8, 13674, Note_on_c, 1, 45, 0
8, 13678, Note_on_c, 1, 46, 60
8, 13735, Note_on_c, 1, 46, 0
8, 13742, Note_on_c, 1, 38, 44
8, 13798, Note_on_c, 1, 38, 0
8, 13802, Note_on_c, 1, 39, 50
8, 13845, Note_on_c, 1, 39, 0
8, 13845, Note_on_c, 1, 37, 47
8, 13860, Note_on_c, 1, 51, 81
8, 13861, Note_on_c, 1, 37, 0
8, 13903, Note_on_c, 1, 39, 42
8, 13913, Note_on_c, 1, 39, 0
8, 13915, Note_on_c, 1, 51, 0
8, 13923, Note_on_c, 1, 43, 33
8, 13961, Note_on_c, 1, 42, 55
8, 13966, Note_on_c, 1, 43, 0
8, 13968, Note_on_c, 1, 42, 0
8, 13978, Note_on_c, 1, 44, 69
8, 14020, Note_on_c, 1, 39, 25
8, 14025, Note_on_c, 1, 44, 0
8, 14028, Note_on_c, 1, 39, 0
8, 14037, Note_on_c, 1, 44, 64
8, 14085, Note_on_c, 1, 44, 0
8, 14093, Note_on_c, 1, 39, 64
8, 14135, Note_on_c, 1, 37, 38
8, 14145, Note_on_c, 1, 37, 0
8, 14145, Note_on_c, 1, 39, 0
8, 14153, Note_on_c, 1, 44, 71
8, 14197, Note_on_c, 1, 39, 43
8, 14202, Note_on_c, 1, 39, 0
8, 14202, Note_on_c, 1, 44, 0
8, 14214, Note_on_c, 1, 43, 62
8, 14266, Note_on_c, 1, 43, 0
8, 14272, Note_on_c, 1, 36, 60
8, 14307, Note_on_c, 1, 36, 0
8, 14319, Note_on_c, 1, 36, 64
8, 14326, Note_on_c, 1, 36, 0
8, 14334, Note_on_c, 1, 48, 87
8, 14389, Note_on_c, 1, 48, 0
8, 14395, Note_on_c, 1, 41, 53
8, 14442, Note_on_c, 1, 41, 0
8, 14456, Note_on_c, 1, 41, 64
8, 14516, Note_on_c, 1, 41, 0
8, 14519, Note_on_c, 1, 36, 59
8, 14578, Note_on_c, 1, 36, 0
8, 14579, Note_on_c, 1, 41, 68
8, 14624, Note_on_c, 1, 41, 0
8, 14637, Note_on_c, 1, 44, 74
8, 14685, Note_on_c, 1, 44, 0
8, 14694, Note_on_c, 1, 44, 67
8, 14750, Note_on_c, 1, 44, 0
8, 14755, Note_on_c, 1, 50, 82
8, 14803, Note_on_c, 1, 50, 0
8, 14814, Note_on_c, 1, 50, 68
8, 14866, Note_on_c, 1, 50, 0
8, 14870, Note_on_c, 1, 43, 66
8, 14922, Note_on_c, 1, 43, 0
8, 14930, Note_on_c, 1, 49, 76
8, 14991, Note_on_c, 1, 49, 0
8, 14996, Note_on_c, 1, 48, 59
8, 15035, Note_on_c, 1, 39, 50
8, 15041, Note_on_c, 1, 48, 0
8, 15047, Note_on_c, 1, 39, 0
8, 15053, Note_on_c, 1, 42, 64
8, 15099, Note_on_c, 1, 39, 37
8, 15108, Note_on_c, 1, 42, 0
8, 15112, Note_on_c, 1, 39, 0
8, 15114, Note_on_c, 1, 41, 52
8, 15158, Note_on_c, 1, 39, 49
8, 15165, Note_on_c, 1, 41, 0
8, 15175, Note_on_c, 1, 39, 0
8, 15175, Note_on_c, 1, 47, 94
8, 15226, Note_on_c, 1, 39, 52
8, 15230, Note_on_c, 1, 47, 0
8, 15231, Note_on_c, 1, 39, 0
8, 15236, Note_on_c, 1, 46, 74
8, 15277, Note_on_c, 1, 39, 62
8, 15279, Note_on_c, 1, 46, 0
8, 15289, Note_on_c, 1, 39, 0
8, 15295, Note_on_c, 1, 40, 67
8, 15353, Note_on_c, 1, 40, 0
8, 15354, Note_on_c, 1, 39, 56
8, 15395, Note_on_c, 1, 37, 49
8, 15407, Note_on_c, 1, 39, 0
8, 15411, Note_on_c, 1, 37, 0
8, 15413, Note_on_c, 1, 48, 91
8, 15460, Note_on_c, 1, 39, 30
8, 15466, Note_on_c, 1, 39, 0
8, 15470, Note_on_c, 1, 48, 0
8, 15477, Note_on_c, 1, 46, 67
8, 15522, Note_on_c, 1, 39, 32
8, 15530, Note_on_c, 1, 39, 0
8, 15530, Note_on_c, 1, 46, 0
8, 15537, Note_on_c, 1, 44, 77
8, 15593, Note_on_c, 1, 44, 0
8, 15600, Note_on_c, 1, 45, 61
8, 15657, Note_on_c, 1, 45, 0
8, 15659, Note_on_c, 1, 40, 91
8, 15719, Note_on_c, 1, 33, 65
8, 15721, Note_on_c, 1, 40, 0
8, 15769, Note_on_c, 1, 33, 0
8, 15778, Note_on_c, 1, 33, 76
8, 15829, Note_on_c, 1, 33, 0
8, 15837, Note_on_c, 1, 32, 65
8, 15889, Note_on_c, 1, 32, 0
8, 15896, Note_on_c, 1, 32, 74
8, 15957, Note_on_c, 1, 32, 0
8, 15960, Note_on_c, 1, 44, 65
8, 16009, Note_on_c, 1, 44, 0
8, 16017, Note_on_c, 1, 37, 71
8, 16079, Note_on_c, 1, 43, 71
8, 16080, Note_on_c, 1, 37, 0
8, 16124, Note_on_c, 1, 37, 52
8, 16125, Note_on_c, 1, 43, 0
8, 16132, Note_on_c, 1, 37, 0
8, 16139, Note_on_c, 1, 49, 77
8, 16235, Note_on_c, 1, 49, 0
8, 16241, Note_on_c, 1, 48, 77
8, 16251, Note_on_c, 1, 48, 0
8, 16258, Note_on_c, 1, 43, 71
8, 16296, Note_on_c, 1, 43, 0
8, 16299, Note_on_c, 1, 40, 59
8, 16310, Note_on_c, 1, 40, 0
8, 16319, Note_on_c, 1, 41, 68
8, 16367, Note_on_c, 1, 41, 0
8, 16376, Note_on_c, 1, 36, 64
8, 16426, Note_on_c, 1, 36, 0
8, 16434, Note_on_c, 1, 32, 57
8, 16468, Note_on_c, 1, 32, 0
8, 16478, Note_on_c, 1, 34, 59
8, 16489, Note_on_c, 1, 34, 0
8, 16496, Note_on_c, 1, 35, 57
8, 16540, Note_on_c, 1, 34, 37
8, 16547, Note_on_c, 1, 35, 0
8, 16551, Note_on_c, 1, 34, 0
8, 16558, Note_on_c, 1, 36, 57
8, 16602, Note_on_c, 1, 34, 40
8, 16604, Note_on_c, 1, 36, 0
8, 16613, Note_on_c, 1, 34, 0
8, 16617, Note_on_c, 1, 38, 64
8, 16663, Note_on_c, 1, 34, 29
8, 16668, Note_on_c, 1, 34, 0
8, 16673, Note_on_c, 1, 38, 0
8, 16676, Note_on_c, 1, 39, 58
8, 16734, Note_on_c, 1, 39, 0
8, 16737, Note_on_c, 1, 40, 68
8, 16781, Note_on_c, 1, 36, 48
8, 16786, Note_on_c, 1, 36, 0
8, 16788, Note_on_c, 1, 40, 0
8, 16797, Note_on_c, 1, 41, 53
8, 16850, Note_on_c, 1, 41, 0
8, 16850, Note_on_c, 1, 36, 27
8, 16854, Note_on_c, 1, 36, 0
8, 16860, Note_on_c, 1, 47, 83
8, 16914, Note_on_c, 1, 47, 0
8, 16922, Note_on_c, 1, 44, 38
8, 16973, Note_on_c, 1, 44, 0
8, 16980, Note_on_c, 1, 47, 74
8, 17032, Note_on_c, 1, 47, 0
8, 17039, Note_on_c, 1, 46, 65
8, 17094, Note_on_c, 1, 46, 0
8, 17100, Note_on_c, 1, 48, 78
8, 17155, Note_on_c, 1, 48, 0
8, 17162, Note_on_c, 1, 49, 71
8, 17215, Note_on_c, 1, 49, 0
8, 17220, Note_on_c, 1, 50, 82
8, 17268, Note_on_c, 1, 50, 0
8, 17277, Note_on_c, 1, 51, 81
8, 17327, Note_on_c, 1, 51, 0
8, 17335, Note_on_c, 1, 51, 80
8, 17389, Note_on_c, 1, 51, 0
8, 17392, Note_on_c, 1, 46, 75
8, 17446, Note_on_c, 1, 46, 0
8, 17455, Note_on_c, 1, 46, 72
8, 17509, Note_on_c, 1, 46, 0
8, 17514, Note_on_c, 1, 45, 59
8, 17570, Note_on_c, 1, 45, 0
8, 17578, Note_on_c, 1, 45, 76
8, 17621, Note_on_c, 1, 40, 37
8, 17624, Note_on_c, 1, 45, 0
8, 17628, Note_on_c, 1, 40, 0
8, 17640, Note_on_c, 1, 33, 48
8, 17692, Note_on_c, 1, 33, 0
8, 17698, Note_on_c, 1, 45, 71
8, 17745, Note_on_c, 1, 40, 50
8, 17750, Note_on_c, 1, 40, 0
8, 17751, Note_on_c, 1, 45, 0
8, 17761, Note_on_c, 1, 44, 64
8, 17814, Note_on_c, 1, 44, 0
8, 17818, Note_on_c, 1, 39, 62
8, 17880, Note_on_c, 1, 39, 0
8, 17880, Note_on_c, 1, 32, 59
8, 17922, Note_on_c, 1, 39, 56
8, 17927, Note_on_c, 1, 32, 0
8, 17932, Note_on_c, 1, 39, 0
8, 17936, Note_on_c, 1, 40, 73
8, 17988, Note_on_c, 1, 40, 0
8, 17996, Note_on_c, 1, 41, 57
8, 18044, Note_on_c, 1, 41, 0
8, 18044, Note_on_c, 1, 39, 38
8, 18048, Note_on_c, 1, 39, 0
8, 18056, Note_on_c, 1, 47, 69
8, 18110, Note_on_c, 1, 47, 0
8, 18117, Note_on_c, 1, 46, 61
8, 18164, Note_on_c, 1, 41, 47
8, 18168, Note_on_c, 1, 41, 0
8, 18178, Note_on_c, 1, 34, 65
8, 18187, Note_on_c, 1, 46, 0
8, 18283, Note_on_c, 1, 41, 43
8, 18290, Note_on_c, 1, 41, 0
8, 18293, Note_on_c, 1, 34, 0
8, 18298, Note_on_c, 1, 58, 59
8, 18362, Note_on_c, 1, 46, 48
8, 18390, Note_on_c, 1, 58, 0
8, 18409, Note_on_c, 1, 41, 58
8, 18415, Note_on_c, 1, 41, 0
8, 18415, Note_on_c, 1, 46, 0
8, 18428, Note_on_c, 1, 34, 71
8, 18522, Note_on_c, 1, 46, 54
8, 18525, Note_on_c, 1, 34, 0
8, 18527, Note_on_c, 1, 46, 0
8, 18538, Note_on_c, 1, 58, 85
8, 18641, Note_on_c, 1, 41, 50
8, 18646, Note_on_c, 1, 41, 0
8, 18655, Note_on_c, 1, 58, 0
8, 18659, Note_on_c, 1, 46, 56
8, 18701, Note_on_c, 1, 42, 37
8, 18705, Note_on_c, 1, 42, 0
8, 18709, Note_on_c, 1, 46, 0
8, 18719, Note_on_c, 1, 34, 60
8, 18762, Note_on_c, 1, 41, 38
8, 18769, Note_on_c, 1, 41, 0
8, 18776, Note_on_c, 1, 34, 0
8, 18781, Note_on_c, 1, 58, 83
8, 18881, Note_on_c, 1, 46, 58
8, 18886, Note_on_c, 1, 46, 0
8, 18894, Note_on_c, 1, 58, 0
8, 18900, Note_on_c, 1, 46, 71
8, 19000, Note_on_c, 1, 41, 48
8, 19005, Note_on_c, 1, 41, 0
8, 19015, Note_on_c, 1, 34, 68
8, 19087, Note_on_c, 1, 56, 1
8, 19106, Note_on_c, 1, 34, 0
8, 19117, Note_on_c, 1, 37, 52
8, 19124, Note_on_c, 1, 56, 0
8, 19127, Note_on_c, 1, 46, 0
8, 19131, Note_on_c, 1, 37, 0
8, 19133, Note_on_c, 1, 38, 63
8, 19185, Note_on_c, 1, 38, 0
8, 19192, Note_on_c, 1, 39, 47
8, 19226, Note_on_c, 1, 39, 0
8, 19234, Note_on_c, 1, 39, 57
8, 19244, Note_on_c, 1, 39, 0
8, 19250, Note_on_c, 1, 41, 62
8, 19300, Note_on_c, 1, 39, 23
8, 19304, Note_on_c, 1, 41, 0
8, 19305, Note_on_c, 1, 39, 0
8, 19315, Note_on_c, 1, 43, 55
8, 19361, Note_on_c, 1, 39, 37
8, 19367, Note_on_c, 1, 39, 0
8, 19370, Note_on_c, 1, 43, 0
8, 19377, Note_on_c, 1, 46, 68
8, 19435, Note_on_c, 1, 46, 0
8, 19438, Note_on_c, 1, 45, 52
8, 19483, Note_on_c, 1, 39, 36
8, 19491, Note_on_c, 1, 39, 0
8, 19491, Note_on_c, 1, 45, 0
8, 19498, Note_on_c, 1, 52, 68
8, 19553, Note_on_c, 1, 52, 0
8, 19559, Note_on_c, 1, 49, 48
8, 19614, Note_on_c, 1, 49, 0
8, 19619, Note_on_c, 1, 45, 54
8, 19674, Note_on_c, 1, 45, 0
8, 19680, Note_on_c, 1, 44, 52
8, 19737, Note_on_c, 1, 44, 0
8, 19741, Note_on_c, 1, 38, 74
8, 19802, Note_on_c, 1, 37, 64
8, 19805, Note_on_c, 1, 38, 0
8, 19837, Note_on_c, 1, 37, 0
8, 19844, Note_on_c, 1, 38, 65
8, 19852, Note_on_c, 1, 38, 0
8, 19860, Note_on_c, 1, 49, 77
8, 19899, Note_on_c, 1, 39, 38
8, 19906, Note_on_c, 1, 39, 0
8, 19915, Note_on_c, 1, 49, 0
8, 19923, Note_on_c, 1, 48, 66
8, 19977, Note_on_c, 1, 48, 0
8, 19977, Note_on_c, 1, 42, 67
8, 20037, Note_on_c, 1, 42, 0
8, 20041, Note_on_c, 1, 43, 61
8, 20097, Note_on_c, 1, 43, 0
8, 20099, Note_on_c, 1, 36, 69
8, 20148, Note_on_c, 1, 41, 44
8, 20153, Note_on_c, 1, 41, 0
8, 20158, Note_on_c, 1, 36, 0
8, 20160, Note_on_c, 1, 41, 75
8, 20207, Note_on_c, 1, 41, 0
8, 20210, Note_on_c, 1, 36, 27
8, 20216, Note_on_c, 1, 36, 0
8, 20220, Note_on_c, 1, 43, 68
8, 20271, Note_on_c, 1, 43, 0
8, 20281, Note_on_c, 1, 44, 64
8, 20301, Note_on_c, 1, 46, 1
8, 20330, Note_on_c, 1, 46, 0
8, 20332, Note_on_c, 1, 44, 0
8, 20336, Note_on_c, 1, 41, 55
8, 20378, Note_on_c, 1, 37, 42
8, 20383, Note_on_c, 1, 41, 0
8, 20384, Note_on_c, 1, 37, 0
8, 20396, Note_on_c, 1, 48, 82
8, 20452, Note_on_c, 1, 48, 0
8, 20456, Note_on_c, 1, 36, 91
8, 20516, Note_on_c, 1, 46, 74
8, 20519, Note_on_c, 1, 36, 0
8, 20559, Note_on_c, 1, 36, 64
8, 20565, Note_on_c, 1, 46, 0
8, 20569, Note_on_c, 1, 36, 0
8, 20576, Note_on_c, 1, 42, 88
8, 20629, Note_on_c, 1, 42, 0
8, 20635, Note_on_c, 1, 41, 67
8, 20689, Note_on_c, 1, 41, 0
8, 20693, Note_on_c, 1, 36, 77
8, 20749, Note_on_c, 1, 36, 0
8, 20752, Note_on_c, 1, 35, 72
8, 20809, Note_on_c, 1, 35, 0
8, 20816, Note_on_c, 1, 35, 84
8, 20869, Note_on_c, 1, 35, 0
8, 20875, Note_on_c, 1, 34, 71
8, 20931, Note_on_c, 1, 34, 0
8, 20935, Note_on_c, 1, 46, 93
8, 20990, Note_on_c, 1, 46, 0
8, 20997, Note_on_c, 1, 44, 67
8, 21037, Note_on_c, 1, 37, 60
8, 21043, Note_on_c, 1, 44, 0
8, 21045, Note_on_c, 1, 37, 0
8, 21056, Note_on_c, 1, 38, 70
8, 21110, Note_on_c, 1, 38, 0
8, 21115, Note_on_c, 1, 39, 64
8, 21151, Note_on_c, 1, 39, 0
8, 21159, Note_on_c, 1, 39, 50
8, 21169, Note_on_c, 1, 39, 0
8, 21177, Note_on_c, 1, 43, 66
8, 21221, Note_on_c, 1, 39, 36
8, 21227, Note_on_c, 1, 39, 0
8, 21228, Note_on_c, 1, 43, 0
8, 21237, Note_on_c, 1, 46, 59
8, 21281, Note_on_c, 1, 39, 39
8, 21287, Note_on_c, 1, 39, 0
8, 21287, Note_on_c, 1, 46, 0
8, 21296, Note_on_c, 1, 45, 80
8, 21352, Note_on_c, 1, 45, 0
8, 21360, Note_on_c, 1, 46, 65
8, 21403, Note_on_c, 1, 44, 35
8, 21408, Note_on_c, 1, 44, 0
8, 21410, Note_on_c, 1, 46, 0
8, 21418, Note_on_c, 1, 51, 77
8, 21477, Note_on_c, 1, 51, 0
8, 21482, Note_on_c, 1, 45, 55
8, 21526, Note_on_c, 1, 44, 34
8, 21534, Note_on_c, 1, 45, 0
8, 21537, Note_on_c, 1, 44, 0
8, 21542, Note_on_c, 1, 52, 77
8, 21603, Note_on_c, 1, 52, 0
8, 21604, Note_on_c, 1, 44, 74
8, 21647, Note_on_c, 1, 42, 45
8, 21656, Note_on_c, 1, 42, 0
8, 21658, Note_on_c, 1, 44, 0
8, 21662, Note_on_c, 1, 51, 79
8, 21723, Note_on_c, 1, 48, 62
8, 21725, Note_on_c, 1, 51, 0
8, 21768, Note_on_c, 1, 48, 0
8, 21780, Note_on_c, 1, 44, 58
8, 21841, Note_on_c, 1, 37, 53
8, 21843, Note_on_c, 1, 44, 0
8, 21893, Note_on_c, 1, 44, 37
8, 21900, Note_on_c, 1, 44, 0
8, 21900, Note_on_c, 1, 37, 0
8, 21902, Note_on_c, 1, 49, 75
8, 21948, Note_on_c, 1, 44, 34
8, 21953, Note_on_c, 1, 44, 0
8, 21955, Note_on_c, 1, 49, 0
8, 21963, Note_on_c, 1, 48, 72
8, 22005, Note_on_c, 1, 43, 47
8, 22007, Note_on_c, 1, 48, 0
8, 22010, Note_on_c, 1, 43, 0
8, 22021, Note_on_c, 1, 40, 64
8, 22074, Note_on_c, 1, 40, 0
8, 22079, Note_on_c, 1, 41, 64
8, 22114, Note_on_c, 1, 41, 0
8, 22121, Note_on_c, 1, 41, 48
8, 22130, Note_on_c, 1, 41, 0
8, 22139, Note_on_c, 1, 43, 64
8, 22182, Note_on_c, 1, 39, 40
8, 22192, Note_on_c, 1, 39, 0
8, 22192, Note_on_c, 1, 43, 0
8, 22198, Note_on_c, 1, 44, 56
8, 22251, Note_on_c, 1, 44, 0
8, 22259, Note_on_c, 1, 43, 49
8, 22303, Note_on_c, 1, 39, 40
8, 22308, Note_on_c, 1, 39, 0
8, 22311, Note_on_c, 1, 43, 0
8, 22319, Note_on_c, 1, 44, 60
8, 22361, Note_on_c, 1, 39, 37
8, 22366, Note_on_c, 1, 39, 0
8, 22369, Note_on_c, 1, 44, 0
8, 22376, Note_on_c, 1, 51, 79
8, 22428, Note_on_c, 1, 51, 0
8, 22438, Note_on_c, 1, 50, 71
8, 22492, Note_on_c, 1, 50, 0
8, 22496, Note_on_c, 1, 42, 62
8, 22552, Note_on_c, 1, 42, 0
8, 22555, Note_on_c, 1, 43, 58
8, 22602, Note_on_c, 1, 42, 34
8, 22607, Note_on_c, 1, 43, 0
8, 22610, Note_on_c, 1, 42, 0
8, 22615, Note_on_c, 1, 49, 73
8, 22674, Note_on_c, 1, 49, 0
8, 22677, Note_on_c, 1, 48, 72
8, 22734, Note_on_c, 1, 48, 0
8, 22737, Note_on_c, 1, 42, 67
8, 22784, Note_on_c, 1, 39, 34
8, 22789, Note_on_c, 1, 42, 0
8, 22795, Note_on_c, 1, 39, 0
8, 22799, Note_on_c, 1, 41, 57
8, 22842, Note_on_c, 1, 39, 38
8, 22852, Note_on_c, 1, 41, 0
8, 22858, Note_on_c, 1, 47, 74
8, 22861, Note_on_c, 1, 39, 0
8, 22902, Note_on_c, 1, 39, 37
8, 22906, Note_on_c, 1, 39, 0
8, 22912, Note_on_c, 1, 47, 0
8, 22919, Note_on_c, 1, 46, 65
8, 22958, Note_on_c, 1, 38, 82
8, 22967, Note_on_c, 1, 46, 0
8, 22970, Note_on_c, 1, 38, 0
8, 22977, Note_on_c, 1, 40, 78
8, 23035, Note_on_c, 1, 40, 0
8, 23035, Note_on_c, 1, 39, 73
8, 23083, Note_on_c, 1, 39, 0
8, 23094, Note_on_c, 1, 39, 67
8, 23154, Note_on_c, 1, 46, 72
8, 23157, Note_on_c, 1, 39, 0
8, 23198, Note_on_c, 1, 39, 51
8, 23203, Note_on_c, 1, 46, 0
8, 23207, Note_on_c, 1, 39, 0
8, 23218, Note_on_c, 1, 44, 69
8, 23271, Note_on_c, 1, 44, 0
8, 23278, Note_on_c, 1, 45, 68
8, 23332, Note_on_c, 1, 45, 0
8, 23340, Note_on_c, 1, 45, 80
8, 23397, Note_on_c, 1, 45, 0
8, 23400, Note_on_c, 1, 40, 65
8, 23452, Note_on_c, 1, 40, 0
8, 23461, Note_on_c, 1, 33, 80
8, 23521, Note_on_c, 1, 32, 68
8, 23523, Note_on_c, 1, 33, 0
8, 23582, Note_on_c, 1, 44, 75
8, 23586, Note_on_c, 1, 32, 0
8, 23640, Note_on_c, 1, 37, 65
8, 23645, Note_on_c, 1, 44, 0
8, 23688, Note_on_c, 1, 34, 23
8, 23694, Note_on_c, 1, 34, 0
8, 23699, Note_on_c, 1, 37, 0
8, 23701, Note_on_c, 1, 49, 81
8, 23743, Note_on_c, 1, 37, 19
8, 23749, Note_on_c, 1, 37, 0
8, 23758, Note_on_c, 1, 49, 0
8, 23762, Note_on_c, 1, 43, 53
8, 23806, Note_on_c, 1, 37, 35
8, 23811, Note_on_c, 1, 43, 0
8, 23813, Note_on_c, 1, 37, 0
8, 23820, Note_on_c, 1, 51, 75
8, 23878, Note_on_c, 1, 51, 0
8, 23884, Note_on_c, 1, 49, 60
8, 23926, Note_on_c, 1, 43, 39
8, 23932, Note_on_c, 1, 43, 0
8, 23932, Note_on_c, 1, 49, 0
8, 23941, Note_on_c, 1, 48, 69
8, 23977, Note_on_c, 1, 48, 0
8, 23983, Note_on_c, 1, 40, 73
8, 23995, Note_on_c, 1, 40, 0
8, 24003, Note_on_c, 1, 41, 55
8, 24030, Note_on_c, 1, 41, 0
8, 24039, Note_on_c, 1, 41, 63
8, 24048, Note_on_c, 1, 41, 0
8, 24057, Note_on_c, 1, 43, 64
8, 24106, Note_on_c, 1, 43, 0
8, 24116, Note_on_c, 1, 44, 60
8, 24170, Note_on_c, 1, 44, 0
8, 24176, Note_on_c, 1, 41, 53
8, 24231, Note_on_c, 1, 41, 0
8, 24237, Note_on_c, 1, 48, 71
8, 24299, Note_on_c, 1, 36, 105
8, 24332, Note_on_c, 1, 48, 0
8, 24358, Note_on_c, 1, 46, 67
8, 24378, Note_on_c, 1, 36, 0
8, 24399, Note_on_c, 1, 39, 59
8, 24401, Note_on_c, 1, 46, 0
8, 24406, Note_on_c, 1, 39, 0
8, 24414, Note_on_c, 1, 40, 68
8, 24468, Note_on_c, 1, 40, 0
8, 24477, Note_on_c, 1, 41, 59
8, 24533, Note_on_c, 1, 41, 0
8, 24537, Note_on_c, 1, 43, 68
8, 24592, Note_on_c, 1, 43, 0
8, 24597, Note_on_c, 1, 44, 63
8, 24654, Note_on_c, 1, 44, 0
8, 24657, Note_on_c, 1, 45, 72
8, 24709, Note_on_c, 1, 45, 0
8, 24719, Note_on_c, 1, 46, 55
8, 24775, Note_on_c, 1, 46, 0
8, 24778, Note_on_c, 1, 48, 79
8, 24827, Note_on_c, 1, 48, 0
8, 24840, Note_on_c, 1, 49, 33
8, 24895, Note_on_c, 1, 49, 0
8, 24899, Note_on_c, 1, 50, 88
8, 24950, Note_on_c, 1, 50, 0
8, 24960, Note_on_c, 1, 51, 61
8, 25014, Note_on_c, 1, 51, 0
8, 25022, Note_on_c, 1, 51, 81
8, 25072, Note_on_c, 1, 51, 0
8, 25081, Note_on_c, 1, 46, 59
8, 25133, Note_on_c, 1, 46, 0
8, 25139, Note_on_c, 1, 45, 68
8, 25188, Note_on_c, 1, 45, 0
8, 25195, Note_on_c, 1, 46, 77
8, 25250, Note_on_c, 1, 46, 0
8, 25257, Note_on_c, 1, 46, 76
8, 25314, Note_on_c, 1, 46, 0
8, 25316, Note_on_c, 1, 34, 61
8, 25350, Note_on_c, 1, 34, 0
8, 25358, Note_on_c, 1, 37, 68
8, 25368, Note_on_c, 1, 37, 0
8, 25378, Note_on_c, 1, 38, 88
8, 25433, Note_on_c, 1, 38, 0
8, 25435, Note_on_c, 1, 44, 94
8, 25487, Note_on_c, 1, 44, 0
8, 25495, Note_on_c, 1, 44, 74
8, 25551, Note_on_c, 1, 44, 0
8, 25555, Note_on_c, 1, 39, 67
8, 25610, Note_on_c, 1, 39, 0
8, 25618, Note_on_c, 1, 39, 69
8, 25677, Note_on_c, 1, 39, 0
8, 25678, Note_on_c, 1, 47, 105
8, 25782, Note_on_c, 1, 39, 48
8, 25791, Note_on_c, 1, 39, 0
8, 25796, Note_on_c, 1, 47, 0
8, 25803, Note_on_c, 1, 46, 56
8, 25904, Note_on_c, 1, 41, 39
8, 25910, Note_on_c, 1, 41, 0
8, 25919, Note_on_c, 1, 34, 57
8, 25920, Note_on_c, 1, 46, 0
8, 26017, Note_on_c, 1, 46, 56
8, 26030, Note_on_c, 1, 46, 0
8, 26080, Note_on_c, 1, 46, 55
8, 26161, Note_on_c, 1, 46, 0
8, 26164, Note_on_c, 1, 58, 48
8, 26257, Note_on_c, 1, 58, 0
8, 26266, Note_on_c, 1, 46, 47
8, 26293, Note_on_c, 1, 46, 0
8, 26328, Note_on_c, 1, 46, 26
8, 26333, Note_on_c, 1, 46, 0
8, 26342, Note_on_c, 1, 34, 0
8, 26346, Note_on_c, 1, 58, 62
8, 26385, Note_on_c, 1, 58, 0
8, 26385, Note_on_c, 1, 59, 70
8, 26402, Note_on_c, 1, 59, 0
8, 26407, Note_on_c, 1, 58, 38
8, 26504, Note_on_c, 1, 46, 46
8, 26562, Note_on_c, 1, 58, 0
8, 26581, Note_on_c, 1, 34, 32
8, 26609, Note_on_c, 1, 34, 0
8, 26621, Note_on_c, 1, 34, 37
8, 26637, Note_on_c, 1, 34, 0
8, 26735, Note_on_c, 1, 34, 47
8, 26751, Note_on_c, 1, 34, 0
8, 26795, Note_on_c, 1, 32, 80
8, 26815, Note_on_c, 1, 32, 0
8, 26817, Note_on_c, 1, 46, 0
8, 26818, Note_on_c, 1, 33, 73
8, 26874, Note_on_c, 1, 33, 0
8, 26879, Note_on_c, 1, 34, 46
8, 26938, Note_on_c, 1, 46, 54
8, 26952, Note_on_c, 1, 46, 0
8, 26995, Note_on_c, 1, 58, 60
8, 27030, Note_on_c, 1, 58, 0
8, 27036, Note_on_c, 1, 59, 52
8, 27042, Note_on_c, 1, 34, 0
8, 27050, Note_on_c, 1, 59, 0
8, 27055, Note_on_c, 1, 58, 35
8, 27160, Note_on_c, 1, 34, 32
8, 27164, Note_on_c, 1, 34, 0
8, 27178, Note_on_c, 1, 58, 0
8, 27178, Note_on_c, 1, 46, 45
8, 27212, Note_on_c, 1, 46, 0
8, 27222, Note_on_c, 1, 46, 46
8, 27361, Note_on_c, 1, 34, 37
8, 27362, Note_on_c, 1, 46, 0
8, 27460, Note_on_c, 1, 58, 48
8, 27471, Note_on_c, 1, 58, 0
8, 27523, Note_on_c, 1, 58, 50
8, 27573, Note_on_c, 1, 34, 0
8, 27693, Note_on_c, 1, 58, 0
8, 27715, Note_on_c, 1, 58, 37
8, 27752, Note_on_c, 1, 58, 0
8, 27755, Note_on_c, 1, 59, 50
8, 27772, Note_on_c, 1, 59, 0
8, 27781, Note_on_c, 1, 58, 25
8, 27810, Note_on_c, 1, 58, 0
8, 27879, Note_on_c, 1, 34, 32
8, 27891, Note_on_c, 1, 34, 0
8, 27960, Note_on_c, 1, 34, 31
8, 28079, Note_on_c, 1, 46, 35
8, 28093, Note_on_c, 1, 46, 0
8, 28140, Note_on_c, 1, 46, 33
8, 28148, Note_on_c, 1, 34, 0
8, 28174, Note_on_c, 1, 46, 0
8, 28200, Note_on_c, 1, 46, 36
8, 28242, Note_on_c, 1, 47, 38
8, 28256, Note_on_c, 1, 46, 0
8, 28258, Note_on_c, 1, 47, 0
8, 28263, Note_on_c, 1, 46, 21
8, 28301, Note_on_c, 1, 34, 46
8, 28314, Note_on_c, 1, 34, 0
8, 28360, Note_on_c, 1, 34, 52
8, 28365, Note_on_c, 1, 46, 0
8, 28384, Note_on_c, 1, 34, 0
8, 28444, Note_on_c, 1, 34, 42
8, 28619, Note_on_c, 1, 46, 36
8, 28629, Note_on_c, 1, 46, 0
8, 28659, Note_on_c, 1, 46, 34
8, 28670, Note_on_c, 1, 34, 0
8, 28720, Note_on_c, 1, 46, 0
8, 28721, Note_on_c, 1, 47, 32
8, 28738, Note_on_c, 1, 47, 0
8, 28744, Note_on_c, 1, 46, 27
8, 28796, Note_on_c, 1, 46, 0
8, 28797, Note_on_c, 1, 34, 46
8, 28879, Note_on_c, 1, 34, 0
8, 28901, Note_on_c, 1, 34, 37
8, 29036, Note_on_c, 1, 46, 37
8, 29039, Note_on_c, 1, 34, 0
8, 29117, Note_on_c, 1, 46, 0
8, 29137, Note_on_c, 1, 46, 37
8, 29277, Note_on_c, 1, 46, 0
8, 29279, Note_on_c, 1, 34, 50
8, 29361, Note_on_c, 1, 34, 0
8, 29380, Note_on_c, 1, 34, 44
8, 29525, Note_on_c, 1, 46, 36
8, 29529, Note_on_c, 1, 34, 0
8, 29875, Note_on_c, 1, 46, 0
8, 29875, End_track
9, 0, Start_track
9, 0, MIDI_port, 0
9, 3659, Control_c, 0, 64, 127
9, 3661, Control_c, 0, 64, 0
9, 3784, Control_c, 0, 64, 127
9, 3798, Control_c, 0, 64, 0
9, 3855, Control_c, 0, 64, 127
9, 3888, Control_c, 0, 64, 0
9, 3904, Control_c, 0, 64, 127
9, 3958, Control_c, 0, 64, 0
9, 3964, Note_on_c, 0, 70, 61
9, 3965, Note_on_c, 0, 82, 58
9, 3966, Note_on_c, 0, 77, 58
9, 3967, Note_on_c, 0, 62, 39
9, 3967, Note_on_c, 0, 65, 53
9, 3968, Note_on_c, 0, 60, 43
9, 3969, Note_on_c, 0, 55, 49
9, 3980, Control_c, 0, 64, 127
9, 4011, Note_on_c, 0, 70, 0
9, 4015, Note_on_c, 0, 77, 0
9, 4018, Note_on_c, 0, 65, 0
9, 4018, Note_on_c, 0, 62, 0
9, 4019, Note_on_c, 0, 55, 0
9, 4021, Note_on_c, 0, 82, 0
9, 4021, Note_on_c, 0, 60, 0
9, 4086, Note_on_c, 0, 93, 75
9, 4086, Note_on_c, 0, 81, 68
9, 4087, Control_c, 0, 64, 0
9, 4088, Note_on_c, 0, 88, 53
9, 4088, Note_on_c, 0, 66, 59
9, 4088, Note_on_c, 0, 61, 58
9, 4089, Note_on_c, 0, 55, 59
9, 4142, Control_c, 0, 64, 127
9, 4158, Note_on_c, 0, 93, 0
9, 4162, Note_on_c, 0, 88, 0
9, 4163, Note_on_c, 0, 81, 0
9, 4166, Note_on_c, 0, 55, 0
9, 4171, Note_on_c, 0, 66, 0
9, 4173, Note_on_c, 0, 61, 0
9, 4218, Control_c, 0, 64, 0
9, 4245, Note_on_c, 0, 61, 49
9, 4251, Note_on_c, 0, 61, 0
9, 4263, Note_on_c, 0, 80, 69
9, 4263, Note_on_c, 0, 61, 62
9, 4263, Note_on_c, 0, 76, 69
9, 4264, Note_on_c, 0, 66, 64
9, 4265, Note_on_c, 0, 84, 58
9, 4265, Note_on_c, 0, 88, 51
9, 4265, Note_on_c, 0, 55, 64
9, 4274, Note_on_c, 0, 80, 0
9, 4275, Note_on_c, 0, 81, 44
9, 4279, Note_on_c, 0, 55, 0
9, 4285, Note_on_c, 0, 88, 0
9, 4286, Note_on_c, 0, 76, 0
9, 4287, Note_on_c, 0, 84, 0
9, 4288, Note_on_c, 0, 66, 0
9, 4288, Note_on_c, 0, 81, 0
9, 4295, Note_on_c, 0, 61, 0
9, 4323, Note_on_c, 0, 70, 60
9, 4324, Note_on_c, 0, 63, 47
9, 4324, Note_on_c, 0, 82, 57
9, 4326, Note_on_c, 0, 59, 51
9, 4326, Note_on_c, 0, 54, 37
9, 4327, Note_on_c, 0, 58, 33
9, 4375, Control_c, 0, 64, 127
9, 4423, Note_on_c, 0, 63, 0
9, 4430, Note_on_c, 0, 54, 0
9, 4433, Note_on_c, 0, 59, 0
9, 4441, Note_on_c, 0, 63, 48
9, 4442, Note_on_c, 0, 70, 0
9, 4442, Control_c, 0, 64, 0
9, 4443, Note_on_c, 0, 59, 39
9, 4444, Note_on_c, 0, 82, 0
9, 4444, Note_on_c, 0, 53, 37
9, 4486, Control_c, 0, 64, 127
9, 4500, Note_on_c, 0, 59, 0
9, 4501, Note_on_c, 0, 63, 0
9, 4507, Note_on_c, 0, 58, 0
9, 4509, Note_on_c, 0, 53, 0
9, 4528, Control_c, 0, 64, 0
9, 4598, Note_on_c, 0, 70, 62
9, 4599, Note_on_c, 0, 55, 64
9, 4600, Note_on_c, 0, 65, 52
9, 4603, Note_on_c, 0, 65, 0
9, 4603, Note_on_c, 0, 55, 0
9, 4608, Note_on_c, 0, 70, 0
9, 4643, Note_on_c, 0, 72, 69
9, 4644, Note_on_c, 0, 68, 63
9, 4644, Note_on_c, 0, 64, 71
9, 4644, Note_on_c, 0, 66, 48
9, 4646, Note_on_c, 0, 60, 64
9, 4648, Note_on_c, 0, 66, 0
9, 4650, Note_on_c, 0, 64, 0
9, 4652, Note_on_c, 0, 72, 0
9, 4652, Note_on_c, 0, 68, 0
9, 4657, Note_on_c, 0, 60, 0
9, 4678, Note_on_c, 0, 73, 85
9, 4679, Note_on_c, 0, 68, 77
9, 4679, Note_on_c, 0, 64, 84
9, 4679, Note_on_c, 0, 70, 74
9, 4681, Note_on_c, 0, 61, 76
9, 4706, Note_on_c, 0, 73, 0
9, 4707, Control_c, 0, 64, 127
9, 4708, Note_on_c, 0, 64, 0
9, 4710, Note_on_c, 0, 68, 0
9, 4711, Note_on_c, 0, 70, 0
9, 4714, Control_c, 0, 64, 0
9, 4716, Note_on_c, 0, 68, 73
9, 4716, Note_on_c, 0, 63, 74
9, 4717, Note_on_c, 0, 75, 79
9, 4717, Note_on_c, 0, 64, 72
9, 4717, Note_on_c, 0, 70, 80
9, 4719, Note_on_c, 0, 61, 0
9, 4731, Note_on_c, 0, 64, 0
9, 4731, Note_on_c, 0, 70, 0
9, 4733, Note_on_c, 0, 68, 0
9, 4733, Note_on_c, 0, 75, 0
9, 4733, Note_on_c, 0, 63, 0
9, 4739, Note_on_c, 0, 61, 56
9, 4741, Note_on_c, 0, 68, 42
9, 4741, Note_on_c, 0, 73, 60
9, 4743, Note_on_c, 0, 64, 57
9, 4745, Note_on_c, 0, 70, 30
9, 4758, Note_on_c, 0, 70, 0
9, 4758, Note_on_c, 0, 64, 0
9, 4760, Note_on_c, 0, 68, 0
9, 4762, Note_on_c, 0, 73, 0
9, 4765, Note_on_c, 0, 61, 0
9, 4777, Control_c, 0, 64, 127
9, 4783, Note_on_c, 0, 56, 37
9, 4785, Control_c, 0, 64, 0
9, 4794, Note_on_c, 0, 56, 0
9, 4799, Note_on_c, 0, 65, 41
9, 4799, Note_on_c, 0, 60, 44
9, 4801, Note_on_c, 0, 72, 51
9, 4802, Note_on_c, 0, 68, 36
9, 4807, Note_on_c, 0, 68, 0
9, 4823, Note_on_c, 0, 65, 0
9, 4827, Note_on_c, 0, 72, 0
9, 4828, Note_on_c, 0, 60, 0
9, 4838, Note_on_c, 0, 68, 49
9, 4841, Note_on_c, 0, 65, 36
9, 4841, Note_on_c, 0, 56, 38
9, 4842, Note_on_c, 0, 60, 31
9, 4845, Note_on_c, 0, 65, 0
9, 4846, Note_on_c, 0, 56, 0
9, 4847, Note_on_c, 0, 60, 0
9, 4849, Note_on_c, 0, 68, 0
9, 5084, Note_on_c, 0, 61, 30
9, 5091, Note_on_c, 0, 61, 0
9, 5099, Note_on_c, 0, 75, 56
9, 5099, Note_on_c, 0, 68, 47
9, 5099, Note_on_c, 0, 63, 48
9, 5100, Note_on_c, 0, 64, 30
9, 5101, Note_on_c, 0, 72, 48
9, 5123, Note_on_c, 0, 64, 0
9, 5124, Note_on_c, 0, 68, 0
9, 5124, Note_on_c, 0, 72, 0
9, 5127, Note_on_c, 0, 75, 0
9, 5130, Note_on_c, 0, 63, 0
9, 5141, Note_on_c, 0, 61, 34
9, 5141, Note_on_c, 0, 75, 55
9, 5142, Note_on_c, 0, 64, 50
9, 5142, Note_on_c, 0, 68, 53
9, 5144, Note_on_c, 0, 72, 44
9, 5146, Note_on_c, 0, 63, 53
9, 5149, Note_on_c, 0, 61, 0
9, 5163, Note_on_c, 0, 64, 0
9, 5164, Note_on_c, 0, 68, 0
9, 5165, Note_on_c, 0, 72, 0
9, 5167, Note_on_c, 0, 75, 0
9, 5169, Note_on_c, 0, 63, 0
9, 5182, Note_on_c, 0, 75, 45
9, 5182, Note_on_c, 0, 68, 46
9, 5183, Note_on_c, 0, 64, 35
9, 5184, Note_on_c, 0, 72, 42
9, 5184, Note_on_c, 0, 63, 52
9, 5204, Note_on_c, 0, 72, 0
9, 5206, Note_on_c, 0, 68, 0
9, 5209, Note_on_c, 0, 64, 0
9, 5216, Note_on_c, 0, 75, 0
9, 5222, Note_on_c, 0, 63, 0
9, 5224, Note_on_c, 0, 64, 53
9, 5224, Note_on_c, 0, 68, 53
9, 5224, Note_on_c, 0, 73, 56
9, 5227, Note_on_c, 0, 61, 44
9, 5265, Note_on_c, 0, 64, 0
9, 5268, Note_on_c, 0, 61, 0
9, 5270, Note_on_c, 0, 56, 28
9, 5273, Note_on_c, 0, 73, 0
9, 5273, Note_on_c, 0, 68, 0
9, 5285, Note_on_c, 0, 56, 0
9, 5286, Note_on_c, 0, 68, 32
9, 5286, Note_on_c, 0, 72, 44
9, 5287, Note_on_c, 0, 65, 31
9, 5294, Note_on_c, 0, 60, 11
9, 5317, Note_on_c, 0, 72, 0
9, 5319, Note_on_c, 0, 68, 0
9, 5319, Note_on_c, 0, 65, 0
9, 5319, Note_on_c, 0, 60, 0
9, 5385, Note_on_c, 0, 56, 39
9, 5395, Note_on_c, 0, 56, 0
9, 5401, Note_on_c, 0, 63, 64
9, 5401, Note_on_c, 0, 68, 59
9, 5401, Note_on_c, 0, 59, 71
9, 5402, Note_on_c, 0, 71, 62
9, 5402, Note_on_c, 0, 58, 50
9, 5439, Note_on_c, 0, 59, 0
9, 5440, Note_on_c, 0, 63, 0
9, 5441, Note_on_c, 0, 58, 0
9, 5442, Note_on_c, 0, 71, 0
9, 5442, Note_on_c, 0, 68, 0
9, 5445, Note_on_c, 0, 56, 36
9, 5457, Note_on_c, 0, 56, 0
9, 5460, Note_on_c, 0, 63, 64
9, 5460, Note_on_c, 0, 68, 59
9, 5461, Note_on_c, 0, 71, 56
9, 5461, Note_on_c, 0, 58, 44
9, 5461, Note_on_c, 0, 59, 65
9, 5473, Control_c, 0, 64, 127
9, 5477, Note_on_c, 0, 71, 0
9, 5479, Note_on_c, 0, 59, 0
9, 5481, Note_on_c, 0, 68, 0
9, 5492, Note_on_c, 0, 58, 0
9, 5498, Note_on_c, 0, 63, 0
9, 5510, Control_c, 0, 64, 0
9, 5526, Control_c, 0, 64, 127
9, 5574, Control_c, 0, 64, 0
9, 5580, Control_c, 0, 64, 127
9, 5618, Note_on_c, 0, 61, 74
9, 5619, Note_on_c, 0, 66, 70
9, 5620, Control_c, 0, 64, 0
9, 5621, Note_on_c, 0, 56, 61
9, 5627, Note_on_c, 0, 61, 0
9, 5629, Note_on_c, 0, 66, 0
9, 5638, Note_on_c, 0, 56, 0
9, 5638, Control_c, 0, 64, 127
9, 5655, Note_on_c, 0, 74, 73
9, 5657, Note_on_c, 0, 67, 72
9, 5658, Note_on_c, 0, 56, 60
9, 5658, Note_on_c, 0, 66, 60
9, 5661, Note_on_c, 0, 62, 41
9, 5665, Note_on_c, 0, 67, 0
9, 5670, Note_on_c, 0, 74, 0
9, 5681, Note_on_c, 0, 66, 0
9, 5682, Note_on_c, 0, 62, 0
9, 5683, Note_on_c, 0, 56, 0
9, 5694, Control_c, 0, 64, 0
9, 5696, Note_on_c, 0, 79, 74
9, 5697, Note_on_c, 0, 74, 81
9, 5697, Note_on_c, 0, 66, 70
9, 5697, Note_on_c, 0, 56, 69
9, 5698, Note_on_c, 0, 62, 48
9, 5704, Control_c, 0, 64, 127
9, 5708, Note_on_c, 0, 74, 0
9, 5711, Note_on_c, 0, 79, 0
9, 5722, Note_on_c, 0, 66, 0
9, 5724, Note_on_c, 0, 62, 0
9, 5727, Note_on_c, 0, 56, 0
9, 5737, Note_on_c, 0, 82, 77
9, 5737, Note_on_c, 0, 77, 79
9, 5738, Note_on_c, 0, 62, 65
9, 5738, Note_on_c, 0, 72, 74
9, 5738, Note_on_c, 0, 65, 71
9, 5739, Note_on_c, 0, 60, 59
9, 5740, Note_on_c, 0, 55, 65
9, 5743, Control_c, 0, 64, 0
9, 5811, Control_c, 0, 64, 127
9, 5830, Note_on_c, 0, 72, 0
9, 5844, Note_on_c, 0, 65, 0
9, 5845, Note_on_c, 0, 77, 0
9, 5847, Note_on_c, 0, 62, 0
9, 5848, Note_on_c, 0, 60, 0
9, 5877, Note_on_c, 0, 77, 45
9, 5877, Control_c, 0, 64, 0
9, 5878, Note_on_c, 0, 72, 44
9, 5878, Note_on_c, 0, 74, 46
9, 5879, Note_on_c, 0, 62, 34
9, 5879, Note_on_c, 0, 65, 45
9, 5880, Note_on_c, 0, 60, 37
9, 5892, Note_on_c, 0, 74, 0
9, 5901, Control_c, 0, 64, 127
9, 5924, Note_on_c, 0, 62, 0
9, 5925, Note_on_c, 0, 65, 0
9, 5926, Note_on_c, 0, 72, 0
9, 5927, Note_on_c, 0, 55, 0
9, 5929, Note_on_c, 0, 60, 0
9, 5933, Note_on_c, 0, 77, 0
9, 5940, Note_on_c, 0, 82, 0
9, 5996, Control_c, 0, 64, 0
9, 6013, Control_c, 0, 64, 127
9, 6032, Control_c, 0, 64, 0
9, 6038, Note_on_c, 0, 75, 85
9, 6038, Note_on_c, 0, 68, 93
9, 6039, Note_on_c, 0, 72, 88
9, 6039, Note_on_c, 0, 63, 80
9, 6040, Note_on_c, 0, 61, 74
9, 6040, Note_on_c, 0, 65, 77
9, 6056, Control_c, 0, 64, 127
9, 6061, Note_on_c, 0, 65, 0
9, 6062, Note_on_c, 0, 68, 0
9, 6064, Note_on_c, 0, 72, 0
9, 6065, Note_on_c, 0, 63, 0
9, 6066, Note_on_c, 0, 61, 0
9, 6069, Note_on_c, 0, 75, 0
9, 6078, Note_on_c, 0, 68, 86
9, 6078, Note_on_c, 0, 77, 82
9, 6078, Note_on_c, 0, 72, 82
9, 6079, Note_on_c, 0, 63, 71
9, 6080, Note_on_c, 0, 65, 73
9, 6080, Note_on_c, 0, 61, 71
9, 6081, Note_on_c, 0, 75, 33
9, 6086, Note_on_c, 0, 75, 0
9, 6097, Note_on_c, 0, 65, 0
9, 6102, Note_on_c, 0, 63, 0
9, 6102, Note_on_c, 0, 72, 0
9, 6105, Note_on_c, 0, 68, 0
9, 6106, Note_on_c, 0, 77, 0
9, 6106, Note_on_c, 0, 61, 0
9, 6118, Note_on_c, 0, 76, 66
9, 6118, Note_on_c, 0, 67, 74
9, 6118, Note_on_c, 0, 73, 62
9, 6118, Control_c, 0, 64, 0
9, 6119, Note_on_c, 0, 61, 59
9, 6119, Note_on_c, 0, 71, 77
9, 6119, Note_on_c, 0, 64, 71
9, 6119, Note_on_c, 0, 55, 75
9, 6151, Control_c, 0, 64, 127
9, 6181, Note_on_c, 0, 64, 0
9, 6181, Note_on_c, 0, 76, 0
9, 6183, Note_on_c, 0, 71, 0
9, 6186, Note_on_c, 0, 73, 0
9, 6188, Note_on_c, 0, 61, 0
9, 6189, Note_on_c, 0, 55, 0
9, 6190, Note_on_c, 0, 67, 0
9, 6227, Note_on_c, 0, 54, 56
9, 6236, Note_on_c, 0, 54, 0
9, 6236, Note_on_c, 0, 55, 71
9, 6240, Control_c, 0, 64, 0
9, 6240, Note_on_c, 0, 59, 89
9, 6240, Note_on_c, 0, 67, 80
9, 6241, Note_on_c, 0, 62, 69
9, 6241, Note_on_c, 0, 56, 86
9, 6242, Note_on_c, 0, 63, 54
9, 6244, Note_on_c, 0, 54, 17
9, 6245, Note_on_c, 0, 55, 0
9, 6246, Note_on_c, 0, 63, 0
9, 6247, Note_on_c, 0, 54, 0
9, 6321, Note_on_c, 0, 62, 0
9, 6330, Note_on_c, 0, 59, 0
9, 6347, Note_on_c, 0, 51, 38
9, 6350, Note_on_c, 0, 51, 0
9, 6351, Note_on_c, 0, 56, 0
9, 6351, Note_on_c, 0, 54, 42
9, 6357, Note_on_c, 0, 67, 0
9, 6359, Note_on_c, 0, 63, 14
9, 6362, Note_on_c, 0, 55, 57
9, 6363, Note_on_c, 0, 60, 48
9, 6364, Note_on_c, 0, 54, 0
9, 6422, Control_c, 0, 64, 127
9, 6443, Note_on_c, 0, 55, 0
9, 6450, Note_on_c, 0, 60, 0
9, 6473, Control_c, 0, 64, 0
9, 6477, Note_on_c, 0, 63, 0
9, 6479, Note_on_c, 0, 60, 50
9, 6480, Note_on_c, 0, 55, 38
9, 6502, Control_c, 0, 64, 127
9, 6538, Note_on_c, 0, 55, 0
9, 6589, Note_on_c, 0, 60, 0
9, 6596, Control_c, 0, 64, 0
9, 6639, Note_on_c, 0, 58, 90
9, 6639, Note_on_c, 0, 59, 77
9, 6639, Note_on_c, 0, 49, 67
9, 6639, Note_on_c, 0, 53, 71
9, 6639, Note_on_c, 0, 63, 74
9, 6639, Note_on_c, 0, 67, 78
9, 6645, Note_on_c, 0, 58, 0
9, 6646, Note_on_c, 0, 67, 0
9, 6647, Note_on_c, 0, 59, 0
9, 6650, Note_on_c, 0, 53, 0
9, 6650, Note_on_c, 0, 63, 0
9, 6656, Note_on_c, 0, 49, 0
9, 6680, Note_on_c, 0, 68, 70
9, 6681, Note_on_c, 0, 58, 77
9, 6681, Note_on_c, 0, 55, 73
9, 6681, Note_on_c, 0, 64, 67
9, 6682, Note_on_c, 0, 48, 71
9, 6682, Note_on_c, 0, 61, 69
9, 6685, Note_on_c, 0, 66, 25
9, 6687, Control_c, 0, 64, 127
9, 6690, Note_on_c, 0, 66, 0
9, 6700, Note_on_c, 0, 64, 0
9, 6701, Note_on_c, 0, 55, 0
9, 6710, Note_on_c, 0, 58, 0
9, 6713, Note_on_c, 0, 68, 0
9, 6713, Note_on_c, 0, 61, 0
9, 6720, Note_on_c, 0, 48, 0
9, 6722, Control_c, 0, 64, 0
9, 6723, Note_on_c, 0, 67, 77
9, 6723, Note_on_c, 0, 56, 77
9, 6723, Note_on_c, 0, 63, 69
9, 6723, Note_on_c, 0, 60, 81
9, 6725, Note_on_c, 0, 55, 84
9, 6819, Note_on_c, 0, 60, 0
9, 6820, Note_on_c, 0, 56, 0
9, 6825, Note_on_c, 0, 67, 0
9, 6825, Note_on_c, 0, 63, 0
9, 6826, Note_on_c, 0, 55, 0
9, 6827, Note_on_c, 0, 51, 30
9, 6834, Note_on_c, 0, 63, 43
9, 6834, Note_on_c, 0, 56, 55
9, 6836, Note_on_c, 0, 65, 57
9, 6837, Note_on_c, 0, 51, 0
9, 6837, Note_on_c, 0, 60, 60
9, 6839, Note_on_c, 0, 53, 62
9, 6891, Control_c, 0, 64, 127
9, 6896, Note_on_c, 0, 56, 0
9, 6899, Note_on_c, 0, 60, 0
9, 6901, Note_on_c, 0, 53, 0
9, 6907, Note_on_c, 0, 65, 0
9, 6909, Note_on_c, 0, 63, 0
9, 6957, Note_on_c, 0, 70, 94
9, 6957, Control_c, 0, 64, 0
9, 6958, Note_on_c, 0, 74, 91
9, 6958, Note_on_c, 0, 54, 77
9, 6958, Note_on_c, 0, 60, 80
9, 6958, Note_on_c, 0, 65, 89
9, 6984, Control_c, 0, 64, 127
9, 7005, Note_on_c, 0, 65, 0
9, 7015, Note_on_c, 0, 70, 0
9, 7018, Note_on_c, 0, 74, 0
9, 7038, Note_on_c, 0, 60, 0
9, 7068, Note_on_c, 0, 54, 0
9, 7122, Note_on_c, 0, 60, 73
9, 7122, Note_on_c, 0, 82, 81
9, 7123, Note_on_c, 0, 54, 73
9, 7123, Note_on_c, 0, 65, 76
9, 7123, Note_on_c, 0, 77, 83
9, 7123, Note_on_c, 0, 86, 79
9, 7127, Control_c, 0, 64, 0
9, 7145, Control_c, 0, 64, 127
9, 7162, Note_on_c, 0, 86, 0
9, 7163, Note_on_c, 0, 77, 0
9, 7166, Note_on_c, 0, 82, 0
9, 7168, Note_on_c, 0, 65, 0
9, 7169, Note_on_c, 0, 60, 0
9, 7179, Note_on_c, 0, 80, 27
9, 7184, Note_on_c, 0, 54, 0
9, 7185, Note_on_c, 0, 80, 0
9, 7200, Note_on_c, 0, 75, 67
9, 7200, Note_on_c, 0, 82, 57
9, 7201, Note_on_c, 0, 59, 62
9, 7201, Note_on_c, 0, 70, 61
9, 7201, Note_on_c, 0, 64, 55
9, 7202, Note_on_c, 0, 53, 50
9, 7203, Control_c, 0, 64, 0
9, 7203, Note_on_c, 0, 79, 48
9, 7206, Note_on_c, 0, 70, 0
9, 7207, Note_on_c, 0, 64, 0
9, 7208, Note_on_c, 0, 53, 0
9, 7208, Note_on_c, 0, 75, 0
9, 7208, Note_on_c, 0, 79, 0
9, 7210, Note_on_c, 0, 59, 0
9, 7211, Note_on_c, 0, 82, 0
9, 7284, Control_c, 0, 64, 127
9, 7302, Control_c, 0, 64, 0
9, 7319, Control_c, 0, 64, 127
9, 7360, Note_on_c, 0, 58, 68
9, 7360, Note_on_c, 0, 87, 83
9, 7361, Note_on_c, 0, 52, 79
9, 7361, Note_on_c, 0, 75, 85
9, 7361, Note_on_c, 0, 63, 75
9, 7361, Note_on_c, 0, 82, 82
9, 7364, Control_c, 0, 64, 0
9, 7381, Control_c, 0, 64, 127
9, 7387, Note_on_c, 0, 52, 0
9, 7394, Note_on_c, 0, 58, 0
9, 7396, Note_on_c, 0, 63, 0
9, 7401, Note_on_c, 0, 87, 0
9, 7401, Note_on_c, 0, 82, 0
9, 7405, Note_on_c, 0, 75, 0
9, 7507, Control_c, 0, 64, 0
9, 7543, Note_on_c, 0, 61, 83
9, 7544, Note_on_c, 0, 68, 74
9, 7544, Note_on_c, 0, 65, 64
9, 7545, Note_on_c, 0, 51, 71
9, 7546, Note_on_c, 0, 57, 68
9, 7549, Note_on_c, 0, 65, 0
9, 7551, Note_on_c, 0, 57, 0
9, 7552, Note_on_c, 0, 61, 0
9, 7554, Note_on_c, 0, 68, 0
9, 7556, Note_on_c, 0, 51, 0
9, 7580, Note_on_c, 0, 68, 61
9, 7580, Note_on_c, 0, 61, 60
9, 7581, Note_on_c, 0, 65, 64
9, 7581, Note_on_c, 0, 51, 51
9, 7582, Note_on_c, 0, 57, 49
9, 7584, Control_c, 0, 64, 127
9, 7594, Note_on_c, 0, 57, 0
9, 7597, Note_on_c, 0, 65, 0
9, 7601, Note_on_c, 0, 68, 0
9, 7601, Note_on_c, 0, 61, 0
9, 7611, Note_on_c, 0, 51, 0
9, 7624, Control_c, 0, 64, 0
9, 7626, Note_on_c, 0, 63, 59
9, 7626, Note_on_c, 0, 56, 59
9, 7626, Note_on_c, 0, 67, 59
9, 7627, Note_on_c, 0, 60, 69
9, 7629, Note_on_c, 0, 46, 62
9, 7639, Note_on_c, 0, 46, 0
9, 7641, Control_c, 0, 64, 127
9, 7661, Note_on_c, 0, 60, 0
9, 7663, Note_on_c, 0, 56, 0
9, 7667, Note_on_c, 0, 67, 0
9, 7668, Note_on_c, 0, 63, 0
9, 7678, Note_on_c, 0, 65, 34
9, 7680, Note_on_c, 0, 58, 56
9, 7681, Control_c, 0, 64, 0
9, 7682, Note_on_c, 0, 62, 57
9, 7684, Note_on_c, 0, 51, 53
9, 7731, Control_c, 0, 64, 127
9, 7748, Note_on_c, 0, 65, 0
9, 7749, Note_on_c, 0, 62, 0
9, 7751, Note_on_c, 0, 58, 0
9, 7787, Note_on_c, 0, 54, 40
9, 7796, Control_c, 0, 64, 0
9, 7797, Note_on_c, 0, 54, 0
9, 7800, Note_on_c, 0, 70, 81
9, 7800, Note_on_c, 0, 65, 78
9, 7801, Note_on_c, 0, 60, 77
9, 7802, Note_on_c, 0, 51, 0
9, 7802, Note_on_c, 0, 55, 76
9, 7816, Control_c, 0, 64, 127
9, 7833, Note_on_c, 0, 60, 0
9, 7841, Note_on_c, 0, 65, 0
9, 7844, Note_on_c, 0, 55, 0
9, 7845, Note_on_c, 0, 70, 0
9, 7902, Note_on_c, 0, 61, 77
9, 7902, Note_on_c, 0, 55, 87
9, 7902, Note_on_c, 0, 88, 94
9, 7903, Note_on_c, 0, 93, 90
9, 7903, Note_on_c, 0, 66, 92
9, 7903, Note_on_c, 0, 81, 96
9, 7905, Note_on_c, 0, 91, 56
9, 7906, Control_c, 0, 64, 0
9, 7908, Note_on_c, 0, 91, 0
9, 7940, Control_c, 0, 64, 127
9, 8018, Note_on_c, 0, 81, 0
9, 8020, Note_on_c, 0, 55, 0
9, 8022, Note_on_c, 0, 61, 0
9, 8022, Note_on_c, 0, 88, 0
9, 8024, Note_on_c, 0, 66, 0
9, 8029, Note_on_c, 0, 93, 0
9, 8099, Control_c, 0, 64, 0
9, 8100, Note_on_c, 0, 61, 54
9, 8101, Note_on_c, 0, 65, 55
9, 8102, Note_on_c, 0, 96, 76
9, 8102, Note_on_c, 0, 55, 56
9, 8102, Note_on_c, 0, 91, 64
9, 8103, Note_on_c, 0, 84, 65
9, 8112, Control_c, 0, 64, 127
9, 8119, Note_on_c, 0, 96, 0
9, 8120, Note_on_c, 0, 84, 0
9, 8122, Note_on_c, 0, 65, 0
9, 8123, Note_on_c, 0, 55, 0
9, 8124, Note_on_c, 0, 91, 0
9, 8130, Note_on_c, 0, 61, 0
9, 8165, Control_c, 0, 64, 0
9, 8165, Note_on_c, 0, 63, 51
9, 8166, Note_on_c, 0, 90, 57
9, 8167, Note_on_c, 0, 95, 64
9, 8167, Note_on_c, 0, 83, 58
9, 8167, Note_on_c, 0, 58, 38
9, 8168, Note_on_c, 0, 59, 48
9, 8168, Note_on_c, 0, 54, 37
9, 8194, Control_c, 0, 64, 127
9, 8216, Note_on_c, 0, 95, 0
9, 8222, Note_on_c, 0, 90, 0
9, 8226, Note_on_c, 0, 83, 0
9, 8260, Note_on_c, 0, 63, 0
9, 8265, Note_on_c, 0, 59, 0
9, 8271, Note_on_c, 0, 54, 0
9, 8271, Note_on_c, 0, 58, 0
9, 8281, Note_on_c, 0, 63, 55
9, 8283, Note_on_c, 0, 58, 29
9, 8283, Note_on_c, 0, 59, 59
9, 8284, Note_on_c, 0, 53, 55
9, 8286, Control_c, 0, 64, 0
9, 8339, Control_c, 0, 64, 127
9, 8364, Note_on_c, 0, 63, 0
9, 8366, Note_on_c, 0, 59, 0
9, 8373, Note_on_c, 0, 58, 0
9, 8391, Note_on_c, 0, 58, 52
9, 8394, Note_on_c, 0, 53, 0
9, 8400, Note_on_c, 0, 73, 85
9, 8401, Note_on_c, 0, 70, 86
9, 8401, Note_on_c, 0, 65, 89
9, 8402, Control_c, 0, 64, 0
9, 8403, Note_on_c, 0, 68, 42
9, 8404, Note_on_c, 0, 61, 76
9, 8406, Note_on_c, 0, 58, 0
9, 8407, Note_on_c, 0, 68, 0
9, 8416, Control_c, 0, 64, 127
9, 8445, Note_on_c, 0, 73, 0
9, 8450, Note_on_c, 0, 65, 0
9, 8455, Note_on_c, 0, 70, 0
9, 8462, Note_on_c, 0, 70, 83
9, 8463, Note_on_c, 0, 75, 86
9, 8463, Note_on_c, 0, 68, 84
9, 8463, Note_on_c, 0, 63, 91
9, 8464, Note_on_c, 0, 65, 84
9, 8465, Control_c, 0, 64, 0
9, 8468, Note_on_c, 0, 61, 0
9, 8483, Control_c, 0, 64, 127
9, 8508, Note_on_c, 0, 68, 0
9, 8510, Note_on_c, 0, 75, 0
9, 8511, Note_on_c, 0, 63, 0
9, 8514, Note_on_c, 0, 65, 0
9, 8516, Note_on_c, 0, 70, 0
9, 8523, Control_c, 0, 64, 0
9, 8525, Note_on_c, 0, 72, 68
9, 8525, Note_on_c, 0, 68, 69
9, 8526, Note_on_c, 0, 60, 68
9, 8526, Note_on_c, 0, 64, 64
9, 8541, Control_c, 0, 64, 127
9, 8548, Note_on_c, 0, 72, 0
9, 8551, Note_on_c, 0, 68, 0
9, 8558, Note_on_c, 0, 64, 0
9, 8564, Note_on_c, 0, 60, 0
9, 8583, Control_c, 0, 64, 0
9, 8586, Note_on_c, 0, 55, 42
9, 8587, Note_on_c, 0, 58, 30
9, 8588, Note_on_c, 0, 65, 30
9, 8589, Note_on_c, 0, 64, 36
9, 8600, Note_on_c, 0, 65, 0
9, 8600, Control_c, 0, 64, 127
9, 8616, Note_on_c, 0, 66, 20
9, 8632, Note_on_c, 0, 66, 0
9, 8634, Note_on_c, 0, 58, 0
9, 8635, Note_on_c, 0, 55, 0
9, 8637, Note_on_c, 0, 52, 52
9, 8641, Note_on_c, 0, 64, 0
9, 8644, Control_c, 0, 64, 0
9, 8647, Note_on_c, 0, 52, 0
9, 8649, Note_on_c, 0, 56, 60
9, 8650, Note_on_c, 0, 67, 57
9, 8650, Note_on_c, 0, 55, 63
9, 8652, Note_on_c, 0, 60, 53
9, 8697, Note_on_c, 0, 67, 0
9, 8700, Note_on_c, 0, 60, 0
9, 8700, Note_on_c, 0, 65, 15
9, 8704, Note_on_c, 0, 56, 0
9, 8706, Note_on_c, 0, 65, 0
9, 8714, Note_on_c, 0, 66, 48
9, 8715, Note_on_c, 0, 56, 36
9, 8716, Note_on_c, 0, 55, 0
9, 8716, Note_on_c, 0, 54, 39
9, 8717, Note_on_c, 0, 60, 59
9, 8762, Note_on_c, 0, 60, 0
9, 8763, Note_on_c, 0, 51, 34
9, 8764, Note_on_c, 0, 56, 0
9, 8766, Note_on_c, 0, 66, 0
9, 8768, Note_on_c, 0, 54, 0
9, 8777, Note_on_c, 0, 56, 46
9, 8779, Note_on_c, 0, 65, 46
9, 8779, Note_on_c, 0, 53, 51
9, 8779, Note_on_c, 0, 60, 53
9, 8780, Note_on_c, 0, 51, 0
9, 8837, Control_c, 0, 64, 127
9, 8851, Note_on_c, 0, 56, 0
9, 8855, Note_on_c, 0, 53, 0
9, 8856, Note_on_c, 0, 60, 0
9, 8859, Note_on_c, 0, 65, 0
9, 8893, Control_c, 0, 64, 0
9, 8894, Note_on_c, 0, 75, 71
9, 8894, Note_on_c, 0, 68, 79
9, 8895, Note_on_c, 0, 64, 78
9, 8895, Note_on_c, 0, 72, 70
9, 8896, Note_on_c, 0, 63, 74
9, 8908, Note_on_c, 0, 64, 0
9, 8911, Note_on_c, 0, 75, 0
9, 8913, Note_on_c, 0, 68, 0
9, 8915, Note_on_c, 0, 72, 0
9, 8917, Note_on_c, 0, 63, 0
9, 8919, Note_on_c, 0, 61, 49
9, 8932, Note_on_c, 0, 61, 0
9, 8934, Note_on_c, 0, 75, 74
9, 8934, Note_on_c, 0, 68, 84
9, 8934, Note_on_c, 0, 63, 83
9, 8935, Note_on_c, 0, 72, 71
9, 8935, Note_on_c, 0, 64, 82
9, 8983, Control_c, 0, 64, 127
9, 9005, Note_on_c, 0, 64, 0
9, 9005, Note_on_c, 0, 68, 0
9, 9007, Note_on_c, 0, 75, 0
9, 9007, Note_on_c, 0, 72, 0
9, 9014, Control_c, 0, 64, 0
9, 9015, Note_on_c, 0, 73, 36
9, 9015, Note_on_c, 0, 68, 50
9, 9016, Note_on_c, 0, 64, 61
9, 9017, Note_on_c, 0, 61, 52
9, 9018, Note_on_c, 0, 63, 0
9, 9034, Control_c, 0, 64, 127
9, 9091, Note_on_c, 0, 64, 0
9, 9095, Note_on_c, 0, 73, 0
9, 9095, Note_on_c, 0, 68, 0
9, 9112, Note_on_c, 0, 61, 0
9, 9127, Control_c, 0, 64, 0
9, 9180, Note_on_c, 0, 63, 53
9, 9181, Note_on_c, 0, 68, 53
9, 9182, Note_on_c, 0, 59, 53
9, 9183, Note_on_c, 0, 71, 38
9, 9184, Note_on_c, 0, 58, 56
9, 9213, Note_on_c, 0, 59, 0
9, 9217, Note_on_c, 0, 63, 0
9, 9219, Note_on_c, 0, 68, 0
9, 9220, Note_on_c, 0, 71, 0
9, 9225, Note_on_c, 0, 58, 0
9, 9228, Note_on_c, 0, 56, 32
9, 9237, Note_on_c, 0, 56, 0
9, 9243, Note_on_c, 0, 58, 52
9, 9244, Note_on_c, 0, 68, 46
9, 9244, Note_on_c, 0, 63, 50
9, 9244, Note_on_c, 0, 71, 46
9, 9245, Note_on_c, 0, 59, 47
9, 9285, Control_c, 0, 64, 127
9, 9298, Note_on_c, 0, 71, 0
9, 9301, Note_on_c, 0, 68, 0
9, 9302, Note_on_c, 0, 58, 0
9, 9304, Note_on_c, 0, 59, 0
9, 9305, Note_on_c, 0, 63, 0
9, 9351, Control_c, 0, 64, 0
9, 9357, Note_on_c, 0, 67, 30
9, 9357, Note_on_c, 0, 56, 36
9, 9357, Note_on_c, 0, 63, 38
9, 9358, Note_on_c, 0, 60, 49
9, 9358, Note_on_c, 0, 46, 35
9, 9363, Note_on_c, 0, 60, 0
9, 9365, Note_on_c, 0, 56, 0
9, 9365, Note_on_c, 0, 67, 0
9, 9368, Note_on_c, 0, 63, 0
9, 9369, Note_on_c, 0, 46, 0
9, 9415, Control_c, 0, 64, 127
9, 9461, Note_on_c, 0, 94, 80
9, 9462, Note_on_c, 0, 66, 76
9, 9462, Note_on_c, 0, 56, 71
9, 9462, Note_on_c, 0, 62, 66
9, 9463, Note_on_c, 0, 82, 76
9, 9463, Note_on_c, 0, 87, 76
9, 9466, Note_on_c, 0, 62, 0
9, 9467, Control_c, 0, 64, 0
9, 9468, Note_on_c, 0, 82, 0
9, 9468, Note_on_c, 0, 66, 0
9, 9470, Note_on_c, 0, 94, 0
9, 9471, Note_on_c, 0, 87, 0
9, 9472, Note_on_c, 0, 56, 0
9, 9483, Control_c, 0, 64, 127
9, 9483, Note_on_c, 0, 66, 52
9, 9483, Note_on_c, 0, 62, 38
9, 9484, Note_on_c, 0, 56, 38
9, 9486, Note_on_c, 0, 78, 56
9, 9486, Note_on_c, 0, 90, 58
9, 9496, Note_on_c, 0, 66, 0
9, 9498, Note_on_c, 0, 56, 0
9, 9500, Note_on_c, 0, 62, 0
9, 9504, Note_on_c, 0, 90, 0
9, 9507, Note_on_c, 0, 78, 0
9, 9535, Control_c, 0, 64, 0
9, 9539, Note_on_c, 0, 85, 67
9, 9539, Note_on_c, 0, 73, 56
9, 9542, Note_on_c, 0, 66, 51
9, 9544, Note_on_c, 0, 62, 34
9, 9544, Note_on_c, 0, 56, 40
9, 9546, Control_c, 0, 64, 127
9, 9571, Note_on_c, 0, 66, 0
9, 9574, Note_on_c, 0, 85, 0
9, 9574, Note_on_c, 0, 73, 0
9, 9579, Note_on_c, 0, 62, 0
9, 9586, Note_on_c, 0, 56, 0
9, 9602, Note_on_c, 0, 62, 31
9, 9603, Note_on_c, 0, 82, 48
9, 9603, Note_on_c, 0, 65, 44
9, 9603, Control_c, 0, 64, 0
9, 9603, Note_on_c, 0, 60, 33
9, 9604, Note_on_c, 0, 70, 39
9, 9605, Note_on_c, 0, 55, 42
9, 9640, Control_c, 0, 64, 127
9, 9662, Note_on_c, 0, 82, 0
9, 9665, Note_on_c, 0, 70, 0
9, 9667, Note_on_c, 0, 65, 0
9, 9668, Note_on_c, 0, 55, 0
9, 9674, Note_on_c, 0, 60, 0
9, 9690, Note_on_c, 0, 62, 0
9, 9725, Control_c, 0, 64, 0
9, 9726, Note_on_c, 0, 79, 51
9, 9726, Note_on_c, 0, 74, 54
9, 9727, Note_on_c, 0, 62, 32
9, 9727, Note_on_c, 0, 67, 35
9, 9728, Note_on_c, 0, 60, 33
9, 9731, Note_on_c, 0, 55, 32
9, 9747, Control_c, 0, 64, 127
9, 9750, Note_on_c, 0, 67, 0
9, 9760, Note_on_c, 0, 55, 0
9, 9761, Note_on_c, 0, 62, 0
9, 9763, Note_on_c, 0, 74, 0
9, 9764, Note_on_c, 0, 60, 0
9, 9767, Note_on_c, 0, 79, 0
9, 9838, Control_c, 0, 64, 0
9, 9844, Note_on_c, 0, 65, 61
9, 9844, Note_on_c, 0, 56, 46
9, 9844, Note_on_c, 0, 61, 43
9, 9845, Note_on_c, 0, 60, 53
9, 9846, Note_on_c, 0, 89, 67
9, 9846, Note_on_c, 0, 84, 66
9, 9847, Note_on_c, 0, 77, 54
9, 9847, Control_c, 0, 64, 127
9, 9849, Note_on_c, 0, 60, 0
9, 9850, Note_on_c, 0, 65, 0
9, 9850, Note_on_c, 0, 77, 0
9, 9854, Note_on_c, 0, 84, 0
9, 9855, Note_on_c, 0, 56, 0
9, 9856, Note_on_c, 0, 61, 0
9, 9857, Note_on_c, 0, 89, 0
9, 9887, Note_on_c, 0, 61, 79
9, 9887, Note_on_c, 0, 56, 82
9, 9888, Note_on_c, 0, 60, 90
9, 9888, Note_on_c, 0, 65, 89
9, 9888, Note_on_c, 0, 96, 92
9, 9889, Note_on_c, 0, 91, 92
9, 9889, Note_on_c, 0, 84, 94
9, 9890, Control_c, 0, 64, 0
9, 9908, Control_c, 0, 64, 127
9, 9948, Note_on_c, 0, 96, 0
9, 9950, Note_on_c, 0, 60, 0
9, 9950, Note_on_c, 0, 91, 0
9, 9953, Note_on_c, 0, 65, 0
9, 9953, Note_on_c, 0, 84, 0
9, 9958, Note_on_c, 0, 61, 0
9, 9963, Note_on_c, 0, 56, 0
9, 9967, Control_c, 0, 64, 0
9, 9972, Note_on_c, 0, 64, 40
9, 9972, Note_on_c, 0, 61, 40
9, 9973, Note_on_c, 0, 55, 48
9, 9976, Note_on_c, 0, 94, 48
9, 9979, Note_on_c, 0, 55, 0
9, 9980, Note_on_c, 0, 94, 0
9, 9980, Note_on_c, 0, 64, 0
9, 9982, Note_on_c, 0, 61, 0
9, 9982, Control_c, 0, 64, 127
9, 10011, Note_on_c, 0, 91, 79
9, 10012, Note_on_c, 0, 79, 78
9, 10012, Note_on_c, 0, 61, 74
9, 10012, Note_on_c, 0, 85, 81
9, 10012, Note_on_c, 0, 55, 84
9, 10013, Note_on_c, 0, 64, 74
9, 10015, Control_c, 0, 64, 0
9, 10018, Note_on_c, 0, 89, 24
9, 10022, Note_on_c, 0, 89, 0
9, 10026, Note_on_c, 0, 85, 0
9, 10029, Note_on_c, 0, 86, 36
9, 10033, Control_c, 0, 64, 127
9, 10061, Note_on_c, 0, 55, 0
9, 10063, Note_on_c, 0, 86, 0
9, 10065, Note_on_c, 0, 64, 0
9, 10068, Note_on_c, 0, 91, 0
9, 10073, Note_on_c, 0, 79, 0
9, 10074, Note_on_c, 0, 61, 0
9, 10089, Control_c, 0, 64, 0
9, 10090, Note_on_c, 0, 89, 57
9, 10091, Note_on_c, 0, 63, 60
9, 10091, Note_on_c, 0, 60, 60
9, 10092, Note_on_c, 0, 58, 45
9, 10093, Note_on_c, 0, 77, 29
9, 10093, Note_on_c, 0, 84, 54
9, 10094, Note_on_c, 0, 53, 52
9, 10126, Control_c, 0, 64, 127
9, 10139, Note_on_c, 0, 89, 0
9, 10144, Note_on_c, 0, 84, 0
9, 10151, Note_on_c, 0, 77, 0
9, 10166, Note_on_c, 0, 63, 0
9, 10177, Note_on_c, 0, 60, 0
9, 10189, Note_on_c, 0, 58, 0
9, 10194, Note_on_c, 0, 53, 0
9, 10239, Note_on_c, 0, 54, 31
9, 10243, Note_on_c, 0, 54, 0
9, 10244, Note_on_c, 0, 55, 58
9, 10247, Note_on_c, 0, 55, 0
9, 10247, Note_on_c, 0, 68, 76
9, 10248, Note_on_c, 0, 63, 75
9, 10248, Note_on_c, 0, 60, 82
9, 10248, Note_on_c, 0, 65, 70
9, 10249, Note_on_c, 0, 56, 69
9, 10252, Control_c, 0, 64, 0
9, 10274, Control_c, 0, 64, 127
9, 10308, Note_on_c, 0, 65, 0
9, 10308, Note_on_c, 0, 68, 0
9, 10309, Note_on_c, 0, 60, 0
9, 10314, Note_on_c, 0, 63, 0
9, 10314, Note_on_c, 0, 54, 25
9, 10320, Note_on_c, 0, 54, 0
9, 10326, Control_c, 0, 64, 0
9, 10326, Note_on_c, 0, 63, 77
9, 10326, Note_on_c, 0, 70, 82
9, 10327, Note_on_c, 0, 65, 71
9, 10327, Note_on_c, 0, 59, 81
9, 10327, Note_on_c, 0, 58, 83
9, 10333, Note_on_c, 0, 56, 0
9, 10366, Note_on_c, 0, 59, 0
9, 10367, Note_on_c, 0, 65, 0
9, 10370, Note_on_c, 0, 63, 0
9, 10370, Note_on_c, 0, 70, 0
9, 10371, Note_on_c, 0, 58, 0
9, 10371, Note_on_c, 0, 56, 56
9, 10384, Note_on_c, 0, 63, 70
9, 10385, Note_on_c, 0, 70, 74
9, 10386, Note_on_c, 0, 59, 73
9, 10386, Note_on_c, 0, 65, 62
9, 10387, Note_on_c, 0, 58, 67
9, 10389, Note_on_c, 0, 56, 0
9, 10431, Note_on_c, 0, 59, 0
9, 10432, Note_on_c, 0, 54, 42
9, 10433, Note_on_c, 0, 70, 0
9, 10433, Note_on_c, 0, 58, 0
9, 10435, Note_on_c, 0, 63, 0
9, 10435, Note_on_c, 0, 65, 0
9, 10441, Note_on_c, 0, 55, 29
9, 10443, Note_on_c, 0, 68, 53
9, 10444, Note_on_c, 0, 59, 50
9, 10444, Note_on_c, 0, 56, 62
9, 10445, Note_on_c, 0, 62, 52
9, 10446, Note_on_c, 0, 55, 0
9, 10446, Note_on_c, 0, 65, 34
9, 10448, Note_on_c, 0, 54, 0
9, 10477, Control_c, 0, 64, 127
9, 10482, Note_on_c, 0, 59, 0
9, 10482, Note_on_c, 0, 62, 0
9, 10484, Note_on_c, 0, 65, 0
9, 10487, Note_on_c, 0, 56, 0
9, 10487, Note_on_c, 0, 68, 0
9, 10487, Control_c, 0, 64, 0
9, 10489, Note_on_c, 0, 54, 38
9, 10501, Note_on_c, 0, 68, 55
9, 10501, Note_on_c, 0, 59, 62
9, 10502, Note_on_c, 0, 56, 48
9, 10503, Note_on_c, 0, 62, 50
9, 10504, Note_on_c, 0, 54, 0
9, 10505, Control_c, 0, 64, 127
9, 10506, Note_on_c, 0, 65, 36
9, 10518, Note_on_c, 0, 65, 0
9, 10520, Note_on_c, 0, 68, 0
9, 10524, Note_on_c, 0, 59, 0
9, 10532, Note_on_c, 0, 56, 0
9, 10536, Note_on_c, 0, 62, 0
9, 10543, Note_on_c, 0, 67, 67
9, 10543, Note_on_c, 0, 63, 67
9, 10544, Note_on_c, 0, 58, 63
9, 10545, Note_on_c, 0, 55, 65
9, 10546, Note_on_c, 0, 46, 42
9, 10553, Control_c, 0, 64, 0
9, 10579, Control_c, 0, 64, 127
9, 10610, Note_on_c, 0, 55, 0
9, 10615, Note_on_c, 0, 58, 0
9, 10639, Note_on_c, 0, 63, 0
9, 10664, Note_on_c, 0, 67, 0
9, 10676, Note_on_c, 0, 63, 47
9, 10676, Note_on_c, 0, 58, 47
9, 10677, Note_on_c, 0, 55, 53
9, 10680, Control_c, 0, 64, 0
9, 10693, Control_c, 0, 64, 127
9, 10704, Note_on_c, 0, 55, 0
9, 10716, Note_on_c, 0, 58, 0
9, 10722, Note_on_c, 0, 58, 95
9, 10725, Note_on_c, 0, 63, 0
9, 10745, Note_on_c, 0, 46, 0
9, 10792, Note_on_c, 0, 58, 0
9, 10798, Note_on_c, 0, 63, 70
9, 10799, Note_on_c, 0, 70, 73
9, 10799, Note_on_c, 0, 59, 71
9, 10800, Note_on_c, 0, 58, 57
9, 10801, Note_on_c, 0, 65, 58
9, 10803, Control_c, 0, 64, 0
9, 10858, Control_c, 0, 64, 127
9, 10899, Note_on_c, 0, 65, 0
9, 10899, Note_on_c, 0, 59, 0
9, 10905, Note_on_c, 0, 63, 0
9, 10909, Note_on_c, 0, 70, 0
9, 10917, Note_on_c, 0, 68, 56
9, 10917, Note_on_c, 0, 63, 47
9, 10918, Note_on_c, 0, 59, 61
9, 10919, Note_on_c, 0, 65, 55
9, 10920, Control_c, 0, 64, 0
9, 10935, Note_on_c, 0, 58, 0
9, 10943, Control_c, 0, 64, 127
9, 10957, Control_c, 0, 64, 0
9, 10960, Note_on_c, 0, 58, 91
9, 10978, Control_c, 0, 64, 127
9, 10993, Note_on_c, 0, 58, 0
9, 11039, Control_c, 0, 64, 0
9, 11041, Note_on_c, 0, 46, 62
9, 11043, Note_on_c, 0, 59, 0
9, 11044, Note_on_c, 0, 65, 0
9, 11046, Note_on_c, 0, 68, 0
9, 11068, Control_c, 0, 64, 127
9, 11070, Note_on_c, 0, 63, 0
9, 11082, Note_on_c, 0, 58, 68
9, 11083, Note_on_c, 0, 67, 53
9, 11083, Note_on_c, 0, 63, 60
9, 11086, Note_on_c, 0, 58, 0
9, 11087, Note_on_c, 0, 67, 0
9, 11087, Control_c, 0, 64, 0
9, 11091, Note_on_c, 0, 63, 0
9, 11159, Note_on_c, 0, 63, 62
9, 11160, Note_on_c, 0, 58, 57
9, 11160, Note_on_c, 0, 67, 60
9, 11166, Control_c, 0, 64, 127
9, 11180, Note_on_c, 0, 46, 0
9, 11202, Note_on_c, 0, 46, 72
9, 11224, Note_on_c, 0, 58, 0
9, 11236, Note_on_c, 0, 67, 0
9, 11245, Note_on_c, 0, 63, 0
9, 11291, Note_on_c, 0, 46, 0
9, 11341, Control_c, 0, 64, 0
9, 11343, Note_on_c, 0, 70, 64
9, 11343, Note_on_c, 0, 61, 62
9, 11343, Note_on_c, 0, 66, 56
9, 11344, Note_on_c, 0, 56, 48
9, 11345, Note_on_c, 0, 62, 50
9, 11347, Note_on_c, 0, 61, 0
9, 11348, Note_on_c, 0, 66, 0
9, 11349, Note_on_c, 0, 62, 0
9, 11352, Note_on_c, 0, 70, 0
9, 11354, Note_on_c, 0, 56, 0
9, 11383, Note_on_c, 0, 56, 69
9, 11383, Note_on_c, 0, 70, 82
9, 11383, Note_on_c, 0, 62, 79
9, 11384, Note_on_c, 0, 61, 83
9, 11384, Note_on_c, 0, 66, 76
9, 11390, Note_on_c, 0, 61, 0
9, 11392, Note_on_c, 0, 62, 0
9, 11392, Note_on_c, 0, 66, 0
9, 11395, Note_on_c, 0, 70, 0
9, 11395, Note_on_c, 0, 56, 0
9, 11413, Note_on_c, 0, 70, 60
9, 11414, Note_on_c, 0, 61, 53
9, 11414, Note_on_c, 0, 66, 60
9, 11416, Note_on_c, 0, 56, 59
9, 11416, Note_on_c, 0, 62, 62
9, 11427, Control_c, 0, 64, 127
9, 11438, Note_on_c, 0, 61, 0
9, 11439, Note_on_c, 0, 66, 0
9, 11440, Note_on_c, 0, 62, 0
9, 11441, Note_on_c, 0, 70, 0
9, 11443, Note_on_c, 0, 56, 0
9, 11446, Control_c, 0, 64, 0
9, 11460, Note_on_c, 0, 70, 69
9, 11461, Note_on_c, 0, 56, 59
9, 11461, Note_on_c, 0, 66, 69
9, 11461, Note_on_c, 0, 62, 47
9, 11461, Note_on_c, 0, 61, 67
9, 11463, Control_c, 0, 64, 127
9, 11466, Note_on_c, 0, 62, 0
9, 11480, Note_on_c, 0, 70, 0
9, 11483, Note_on_c, 0, 61, 0
9, 11483, Note_on_c, 0, 66, 0
9, 11497, Note_on_c, 0, 56, 0
9, 11500, Note_on_c, 0, 70, 88
9, 11501, Note_on_c, 0, 65, 83
9, 11501, Note_on_c, 0, 60, 87
9, 11502, Note_on_c, 0, 55, 96
9, 11507, Control_c, 0, 64, 0
9, 11617, Note_on_c, 0, 65, 0
9, 11618, Note_on_c, 0, 60, 0
9, 11620, Note_on_c, 0, 70, 0
9, 11636, Note_on_c, 0, 69, 52
9, 11637, Note_on_c, 0, 59, 37
9, 11638, Note_on_c, 0, 55, 0
9, 11638, Note_on_c, 0, 54, 37
9, 11639, Note_on_c, 0, 64, 40
9, 11650, Note_on_c, 0, 69, 0
9, 11658, Note_on_c, 0, 59, 0
9, 11663, Note_on_c, 0, 64, 0
9, 11679, Note_on_c, 0, 70, 62
9, 11680, Note_on_c, 0, 60, 58
9, 11680, Note_on_c, 0, 65, 53
9, 11683, Note_on_c, 0, 55, 66
9, 11684, Note_on_c, 0, 65, 0
9, 11684, Note_on_c, 0, 60, 0
9, 11684, Note_on_c, 0, 54, 0
9, 11686, Note_on_c, 0, 55, 0
9, 11688, Note_on_c, 0, 70, 0
9, 11761, Note_on_c, 0, 93, 57
9, 11761, Note_on_c, 0, 81, 57
9, 11762, Note_on_c, 0, 61, 40
9, 11762, Note_on_c, 0, 55, 56
9, 11763, Note_on_c, 0, 88, 43
9, 11763, Note_on_c, 0, 66, 46
9, 11771, Note_on_c, 0, 81, 0
9, 11772, Note_on_c, 0, 88, 0
9, 11772, Note_on_c, 0, 93, 0
9, 11775, Note_on_c, 0, 55, 0
9, 11775, Note_on_c, 0, 66, 0
9, 11777, Note_on_c, 0, 61, 0
9, 11861, Note_on_c, 0, 96, 77
9, 11861, Note_on_c, 0, 66, 77
9, 11861, Note_on_c, 0, 55, 78
9, 11861, Note_on_c, 0, 61, 65
9, 11861, Note_on_c, 0, 89, 58
9, 11862, Note_on_c, 0, 84, 60
9, 11862, Note_on_c, 0, 93, 58
9, 11863, Note_on_c, 0, 83, 42
9, 11864, Note_on_c, 0, 95, 34
9, 11864, Note_on_c, 0, 88, 30
9, 11868, Note_on_c, 0, 88, 0
9, 11873, Note_on_c, 0, 83, 0
9, 11876, Control_c, 0, 64, 127
9, 11884, Note_on_c, 0, 84, 0
9, 11884, Note_on_c, 0, 95, 0
9, 11885, Note_on_c, 0, 93, 0
9, 11886, Note_on_c, 0, 96, 0
9, 11886, Note_on_c, 0, 55, 0
9, 11886, Note_on_c, 0, 89, 0
9, 11888, Note_on_c, 0, 66, 0
9, 11891, Note_on_c, 0, 61, 0
9, 11900, Note_on_c, 0, 61, 51
9, 11900, Note_on_c, 0, 66, 71
9, 11901, Note_on_c, 0, 93, 77
9, 11901, Note_on_c, 0, 55, 74
9, 11902, Note_on_c, 0, 88, 74
9, 11902, Note_on_c, 0, 81, 66
9, 11919, Note_on_c, 0, 88, 0
9, 11920, Note_on_c, 0, 93, 0
9, 11923, Note_on_c, 0, 55, 0
9, 11924, Note_on_c, 0, 81, 0
9, 11926, Note_on_c, 0, 66, 0
9, 11932, Note_on_c, 0, 61, 0
9, 11938, Control_c, 0, 64, 0
9, 11940, Note_on_c, 0, 66, 60
9, 11941, Note_on_c, 0, 61, 64
9, 11941, Note_on_c, 0, 55, 60
9, 11941, Note_on_c, 0, 89, 57
9, 11942, Note_on_c, 0, 84, 57
9, 11944, Note_on_c, 0, 77, 37
9, 11949, Control_c, 0, 64, 127
9, 11956, Note_on_c, 0, 55, 0
9, 11958, Note_on_c, 0, 77, 0
9, 11959, Note_on_c, 0, 66, 0
9, 11961, Note_on_c, 0, 89, 0
9, 11962, Note_on_c, 0, 84, 0
9, 11966, Note_on_c, 0, 61, 0
9, 11982, Note_on_c, 0, 63, 77
9, 11983, Note_on_c, 0, 87, 49
9, 11984, Note_on_c, 0, 54, 51
9, 11984, Note_on_c, 0, 59, 46
9, 11985, Note_on_c, 0, 58, 49
9, 11987, Note_on_c, 0, 87, 0
9, 11989, Note_on_c, 0, 59, 0
9, 11990, Note_on_c, 0, 63, 0
9, 11992, Note_on_c, 0, 54, 0
9, 11992, Control_c, 0, 64, 0
9, 11999, Note_on_c, 0, 58, 0
9, 12116, Note_on_c, 0, 65, 57
9, 12117, Note_on_c, 0, 58, 31
9, 12118, Note_on_c, 0, 53, 50
9, 12118, Note_on_c, 0, 59, 54
9, 12118, Note_on_c, 0, 63, 31
9, 12176, Control_c, 0, 64, 127
9, 12182, Note_on_c, 0, 63, 0
9, 12183, Note_on_c, 0, 59, 0
9, 12188, Note_on_c, 0, 58, 0
9, 12191, Note_on_c, 0, 53, 0
9, 12194, Note_on_c, 0, 65, 0
9, 12226, Note_on_c, 0, 53, 57
9, 12232, Note_on_c, 0, 53, 0
9, 12235, Control_c, 0, 64, 0
9, 12235, Note_on_c, 0, 54, 30
9, 12238, Note_on_c, 0, 70, 61
9, 12239, Note_on_c, 0, 61, 55
9, 12239, Note_on_c, 0, 55, 60
9, 12239, Note_on_c, 0, 65, 56
9, 12241, Note_on_c, 0, 54, 0
9, 12250, Control_c, 0, 64, 127
9, 12271, Note_on_c, 0, 70, 0
9, 12279, Note_on_c, 0, 65, 0
9, 12286, Note_on_c, 0, 61, 0
9, 12288, Note_on_c, 0, 55, 0
9, 12295, Control_c, 0, 64, 0
9, 12298, Note_on_c, 0, 72, 77
9, 12298, Note_on_c, 0, 65, 79
9, 12299, Note_on_c, 0, 61, 73
9, 12299, Note_on_c, 0, 60, 67
9, 12317, Control_c, 0, 64, 127
9, 12326, Note_on_c, 0, 65, 0
9, 12330, Note_on_c, 0, 72, 0
9, 12331, Note_on_c, 0, 61, 0
9, 12344, Note_on_c, 0, 60, 0
9, 12347, Note_on_c, 0, 58, 28
9, 12356, Control_c, 0, 64, 0
9, 12358, Note_on_c, 0, 73, 69
9, 12359, Note_on_c, 0, 58, 0
9, 12359, Note_on_c, 0, 61, 67
9, 12360, Note_on_c, 0, 68, 72
9, 12360, Note_on_c, 0, 70, 62
9, 12360, Note_on_c, 0, 64, 69
9, 12387, Control_c, 0, 64, 127
9, 12390, Note_on_c, 0, 64, 0
9, 12390, Note_on_c, 0, 73, 0
9, 12395, Note_on_c, 0, 70, 0
9, 12395, Note_on_c, 0, 68, 0
9, 12399, Note_on_c, 0, 61, 0
9, 12401, Note_on_c, 0, 63, 71
9, 12401, Note_on_c, 0, 68, 77
9, 12402, Note_on_c, 0, 75, 83
9, 12403, Note_on_c, 0, 70, 67
9, 12403, Note_on_c, 0, 64, 68
9, 12406, Note_on_c, 0, 65, 41
9, 12410, Note_on_c, 0, 65, 0
9, 12410, Control_c, 0, 64, 0
9, 12414, Note_on_c, 0, 64, 0
9, 12416, Note_on_c, 0, 70, 0
9, 12417, Note_on_c, 0, 75, 0
9, 12417, Note_on_c, 0, 63, 0
9, 12418, Note_on_c, 0, 68, 0
9, 12421, Note_on_c, 0, 61, 50
9, 12425, Note_on_c, 0, 73, 50
9, 12427, Note_on_c, 0, 64, 54
9, 12427, Note_on_c, 0, 68, 45
9, 12429, Control_c, 0, 64, 127
9, 12438, Note_on_c, 0, 68, 0
9, 12440, Note_on_c, 0, 73, 0
9, 12452, Note_on_c, 0, 64, 0
9, 12460, Note_on_c, 0, 61, 0
9, 12463, Note_on_c, 0, 68, 57
9, 12463, Note_on_c, 0, 65, 70
9, 12464, Note_on_c, 0, 72, 64
9, 12465, Note_on_c, 0, 60, 64
9, 12466, Control_c, 0, 64, 0
9, 12468, Note_on_c, 0, 72, 0
9, 12469, Note_on_c, 0, 65, 0
9, 12470, Note_on_c, 0, 68, 0
9, 12470, Note_on_c, 0, 60, 0
9, 12520, Note_on_c, 0, 68, 56
9, 12522, Note_on_c, 0, 60, 58
9, 12523, Note_on_c, 0, 56, 53
9, 12525, Note_on_c, 0, 68, 0
9, 12525, Note_on_c, 0, 65, 29
9, 12526, Note_on_c, 0, 60, 0
9, 12528, Note_on_c, 0, 65, 0
9, 12530, Note_on_c, 0, 56, 0
9, 12594, Note_on_c, 0, 56, 44
9, 12595, Note_on_c, 0, 55, 48
9, 12596, Note_on_c, 0, 67, 33
9, 12597, Note_on_c, 0, 60, 44
9, 12599, Note_on_c, 0, 63, 30
9, 12626, Note_on_c, 0, 63, 0
9, 12626, Note_on_c, 0, 56, 0
9, 12628, Note_on_c, 0, 60, 0
9, 12630, Note_on_c, 0, 67, 0
9, 12636, Note_on_c, 0, 56, 42
9, 12638, Note_on_c, 0, 65, 49
9, 12639, Note_on_c, 0, 56, 0
9, 12639, Note_on_c, 0, 55, 0
9, 12640, Note_on_c, 0, 53, 39
9, 12642, Note_on_c, 0, 65, 0
9, 12644, Note_on_c, 0, 53, 0
9, 12757, Note_on_c, 0, 75, 56
9, 12758, Note_on_c, 0, 87, 60
9, 12759, Note_on_c, 0, 58, 51
9, 12759, Note_on_c, 0, 63, 52
9, 12761, Note_on_c, 0, 75, 0
9, 12762, Note_on_c, 0, 87, 0
9, 12763, Note_on_c, 0, 63, 0
9, 12766, Note_on_c, 0, 58, 0
9, 12841, Note_on_c, 0, 87, 74
9, 12841, Note_on_c, 0, 75, 59
9, 12843, Note_on_c, 0, 63, 44
9, 12844, Note_on_c, 0, 58, 32
9, 12844, Note_on_c, 0, 52, 34
9, 12845, Note_on_c, 0, 75, 0
9, 12848, Note_on_c, 0, 63, 0
9, 12849, Note_on_c, 0, 87, 0
9, 12850, Note_on_c, 0, 52, 0
9, 12858, Note_on_c, 0, 58, 0
9, 12940, Note_on_c, 0, 63, 71
9, 12941, Note_on_c, 0, 87, 74
9, 12941, Note_on_c, 0, 75, 59
9, 12942, Note_on_c, 0, 59, 63
9, 12943, Note_on_c, 0, 56, 42
9, 12945, Note_on_c, 0, 63, 0
9, 12946, Note_on_c, 0, 59, 0
9, 12946, Note_on_c, 0, 75, 0
9, 12950, Note_on_c, 0, 87, 0
9, 12950, Note_on_c, 0, 56, 0
9, 13020, Note_on_c, 0, 63, 60
9, 13022, Note_on_c, 0, 53, 54
9, 13022, Note_on_c, 0, 87, 78
9, 13022, Note_on_c, 0, 56, 42
9, 13023, Note_on_c, 0, 59, 51
9, 13023, Note_on_c, 0, 75, 72
9, 13076, Control_c, 0, 64, 127
9, 13081, Note_on_c, 0, 63, 0
9, 13088, Note_on_c, 0, 59, 0
9, 13090, Note_on_c, 0, 53, 0
9, 13092, Note_on_c, 0, 56, 0
9, 13097, Note_on_c, 0, 87, 0
9, 13100, Note_on_c, 0, 75, 0
9, 13120, Note_on_c, 0, 85, 64
9, 13122, Note_on_c, 0, 73, 56
9, 13123, Note_on_c, 0, 63, 50
9, 13123, Note_on_c, 0, 59, 54
9, 13123, Note_on_c, 0, 56, 43
9, 13125, Control_c, 0, 64, 0
9, 13136, Control_c, 0, 64, 127
9, 13146, Note_on_c, 0, 59, 0
9, 13151, Note_on_c, 0, 73, 0
9, 13155, Note_on_c, 0, 56, 0
9, 13156, Note_on_c, 0, 85, 0
9, 13167, Note_on_c, 0, 63, 0
9, 13241, Note_on_c, 0, 82, 77
9, 13241, Note_on_c, 0, 94, 78
9, 13241, Note_on_c, 0, 66, 76
9, 13242, Note_on_c, 0, 62, 71
9, 13242, Note_on_c, 0, 87, 58
9, 13243, Note_on_c, 0, 56, 56
9, 13243, Control_c, 0, 64, 0
9, 13245, Note_on_c, 0, 62, 0
9, 13245, Note_on_c, 0, 66, 0
9, 13245, Note_on_c, 0, 82, 0
9, 13246, Note_on_c, 0, 87, 0
9, 13247, Note_on_c, 0, 56, 0
9, 13248, Note_on_c, 0, 94, 0
9, 13277, Note_on_c, 0, 94, 77
9, 13278, Note_on_c, 0, 66, 86
9, 13278, Note_on_c, 0, 56, 77
9, 13278, Note_on_c, 0, 82, 81
9, 13278, Note_on_c, 0, 62, 78
9, 13281, Note_on_c, 0, 87, 58
9, 13298, Note_on_c, 0, 87, 0
9, 13299, Note_on_c, 0, 94, 0
9, 13303, Note_on_c, 0, 82, 0
9, 13304, Note_on_c, 0, 56, 0
9, 13305, Note_on_c, 0, 66, 0
9, 13307, Note_on_c, 0, 62, 0
9, 13314, Control_c, 0, 64, 127
9, 13317, Note_on_c, 0, 62, 60
9, 13317, Note_on_c, 0, 66, 68
9, 13317, Note_on_c, 0, 90, 62
9, 13318, Note_on_c, 0, 56, 67
9, 13318, Note_on_c, 0, 78, 62
9, 13329, Note_on_c, 0, 66, 0
9, 13332, Note_on_c, 0, 56, 0
9, 13332, Note_on_c, 0, 62, 0
9, 13333, Note_on_c, 0, 90, 0
9, 13333, Note_on_c, 0, 78, 0
9, 13356, Note_on_c, 0, 90, 76
9, 13356, Note_on_c, 0, 78, 77
9, 13357, Note_on_c, 0, 66, 74
9, 13358, Control_c, 0, 64, 0
9, 13358, Note_on_c, 0, 56, 72
9, 13358, Note_on_c, 0, 62, 71
9, 13365, Note_on_c, 0, 66, 0
9, 13365, Note_on_c, 0, 90, 0
9, 13366, Note_on_c, 0, 78, 0
9, 13371, Note_on_c, 0, 56, 0
9, 13373, Note_on_c, 0, 62, 0
9, 13378, Control_c, 0, 64, 127
9, 13392, Note_on_c, 0, 73, 73
9, 13393, Note_on_c, 0, 85, 64
9, 13394, Note_on_c, 0, 56, 70
9, 13394, Note_on_c, 0, 66, 67
9, 13395, Note_on_c, 0, 62, 62
9, 13410, Note_on_c, 0, 62, 0
9, 13421, Note_on_c, 0, 73, 0
9, 13421, Note_on_c, 0, 66, 0
9, 13423, Note_on_c, 0, 85, 0
9, 13424, Note_on_c, 0, 56, 0
9, 13432, Control_c, 0, 64, 0
9, 13432, Note_on_c, 0, 62, 45
9, 13432, Note_on_c, 0, 86, 66
9, 13432, Note_on_c, 0, 74, 58
9, 13432, Note_on_c, 0, 65, 57
9, 13433, Note_on_c, 0, 79, 54
9, 13434, Note_on_c, 0, 60, 51
9, 13437, Note_on_c, 0, 55, 54
9, 13471, Control_c, 0, 64, 127
9, 13492, Note_on_c, 0, 79, 0
9, 13492, Note_on_c, 0, 86, 0
9, 13497, Note_on_c, 0, 65, 0
9, 13498, Note_on_c, 0, 60, 0
9, 13503, Note_on_c, 0, 55, 0
9, 13504, Note_on_c, 0, 74, 0
9, 13508, Note_on_c, 0, 62, 0
9, 13552, Control_c, 0, 64, 0
9, 13552, Note_on_c, 0, 82, 57
9, 13552, Note_on_c, 0, 70, 46
9, 13553, Note_on_c, 0, 65, 49
9, 13553, Note_on_c, 0, 62, 29
9, 13554, Note_on_c, 0, 60, 39
9, 13556, Note_on_c, 0, 77, 44
9, 13557, Note_on_c, 0, 55, 37
9, 13576, Control_c, 0, 64, 127
9, 13597, Note_on_c, 0, 77, 0
9, 13602, Note_on_c, 0, 82, 0
9, 13615, Note_on_c, 0, 70, 0
9, 13616, Note_on_c, 0, 65, 0
9, 13618, Note_on_c, 0, 62, 0
9, 13618, Note_on_c, 0, 60, 0
9, 13619, Note_on_c, 0, 55, 0
9, 13674, Control_c, 0, 64, 0
9, 13675, Note_on_c, 0, 75, 91
9, 13675, Note_on_c, 0, 68, 95
9, 13675, Note_on_c, 0, 72, 90
9, 13676, Note_on_c, 0, 63, 78
9, 13676, Note_on_c, 0, 61, 77
9, 13677, Note_on_c, 0, 65, 82
9, 13692, Control_c, 0, 64, 127
9, 13709, Note_on_c, 0, 65, 0
9, 13712, Note_on_c, 0, 68, 0
9, 13713, Note_on_c, 0, 63, 0
9, 13713, Note_on_c, 0, 75, 0
9, 13713, Note_on_c, 0, 61, 0
9, 13719, Note_on_c, 0, 77, 76
9, 13719, Note_on_c, 0, 68, 37
9, 13720, Note_on_c, 0, 63, 60
9, 13721, Note_on_c, 0, 61, 55
9, 13722, Note_on_c, 0, 65, 55
9, 13730, Note_on_c, 0, 68, 0
9, 13731, Note_on_c, 0, 65, 0
9, 13733, Note_on_c, 0, 77, 0
9, 13734, Control_c, 0, 64, 0
9, 13738, Note_on_c, 0, 61, 0
9, 13741, Note_on_c, 0, 68, 39
9, 13742, Note_on_c, 0, 75, 38
9, 13743, Note_on_c, 0, 65, 48
9, 13743, Note_on_c, 0, 61, 25
9, 13745, Control_c, 0, 64, 127
9, 13757, Note_on_c, 0, 65, 0
9, 13757, Note_on_c, 0, 72, 0
9, 13763, Note_on_c, 0, 63, 0
9, 13766, Note_on_c, 0, 61, 0
9, 13767, Note_on_c, 0, 68, 0
9, 13769, Note_on_c, 0, 75, 0
9, 13780, Note_on_c, 0, 73, 53
9, 13781, Note_on_c, 0, 76, 51
9, 13781, Note_on_c, 0, 67, 44
9, 13781, Note_on_c, 0, 71, 58
9, 13782, Note_on_c, 0, 61, 53
9, 13782, Note_on_c, 0, 64, 55
9, 13782, Note_on_c, 0, 55, 66
9, 13786, Control_c, 0, 64, 0
9, 13822, Control_c, 0, 64, 127
9, 13857, Note_on_c, 0, 64, 0
9, 13859, Note_on_c, 0, 76, 0
9, 13861, Note_on_c, 0, 71, 0
9, 13863, Note_on_c, 0, 61, 0
9, 13863, Note_on_c, 0, 73, 0
9, 13866, Note_on_c, 0, 67, 0
9, 13867, Note_on_c, 0, 55, 0
9, 13908, Note_on_c, 0, 54, 59
9, 13914, Note_on_c, 0, 55, 66
9, 13920, Control_c, 0, 64, 0
9, 13922, Note_on_c, 0, 67, 78
9, 13922, Note_on_c, 0, 56, 81
9, 13922, Note_on_c, 0, 62, 88
9, 13923, Note_on_c, 0, 59, 85
9, 13927, Note_on_c, 0, 55, 0
9, 13928, Note_on_c, 0, 54, 0
9, 13990, Control_c, 0, 64, 127
9, 14052, Note_on_c, 0, 59, 0
9, 14053, Note_on_c, 0, 62, 0
9, 14054, Note_on_c, 0, 67, 0
9, 14072, Note_on_c, 0, 56, 0
9, 14082, Note_on_c, 0, 68, 80
9, 14083, Note_on_c, 0, 63, 77
9, 14083, Note_on_c, 0, 60, 77
9, 14083, Note_on_c, 0, 56, 67
9, 14088, Control_c, 0, 64, 0
9, 14114, Control_c, 0, 64, 127
9, 14133, Note_on_c, 0, 68, 0
9, 14138, Note_on_c, 0, 60, 0
9, 14144, Note_on_c, 0, 56, 0
9, 14147, Note_on_c, 0, 63, 0
9, 14165, Note_on_c, 0, 68, 33
9, 14170, Note_on_c, 0, 68, 0
9, 14203, Note_on_c, 0, 56, 37
9, 14214, Control_c, 0, 64, 0
9, 14214, Note_on_c, 0, 63, 83
9, 14215, Note_on_c, 0, 67, 68
9, 14215, Note_on_c, 0, 58, 78
9, 14215, Note_on_c, 0, 70, 77
9, 14216, Note_on_c, 0, 59, 88
9, 14223, Note_on_c, 0, 56, 0
9, 14274, Note_on_c, 0, 58, 0
9, 14278, Note_on_c, 0, 67, 0
9, 14278, Control_c, 0, 64, 127
9, 14281, Note_on_c, 0, 70, 0
9, 14286, Note_on_c, 0, 59, 0
9, 14291, Note_on_c, 0, 63, 0
9, 14318, Note_on_c, 0, 68, 72
9, 14319, Note_on_c, 0, 58, 77
9, 14320, Note_on_c, 0, 64, 68
9, 14320, Note_on_c, 0, 61, 68
9, 14321, Note_on_c, 0, 48, 64
9, 14322, Control_c, 0, 64, 0
9, 14322, Note_on_c, 0, 55, 48
9, 14326, Note_on_c, 0, 66, 23
9, 14327, Note_on_c, 0, 55, 0
9, 14340, Control_c, 0, 64, 127
9, 14346, Note_on_c, 0, 64, 0
9, 14347, Note_on_c, 0, 61, 0
9, 14349, Note_on_c, 0, 68, 0
9, 14349, Note_on_c, 0, 58, 0
9, 14355, Note_on_c, 0, 66, 0
9, 14362, Note_on_c, 0, 61, 69
9, 14362, Note_on_c, 0, 67, 57
9, 14362, Note_on_c, 0, 58, 59
9, 14365, Note_on_c, 0, 55, 58
9, 14369, Note_on_c, 0, 58, 0
9, 14371, Note_on_c, 0, 48, 0
9, 14372, Note_on_c, 0, 55, 0
9, 14372, Note_on_c, 0, 67, 0
9, 14374, Note_on_c, 0, 61, 0
9, 14385, Note_on_c, 0, 52, 38
9, 14391, Note_on_c, 0, 52, 0
9, 14391, Control_c, 0, 64, 0
9, 14399, Note_on_c, 0, 67, 70
9, 14400, Note_on_c, 0, 56, 77
9, 14401, Note_on_c, 0, 63, 65
9, 14401, Note_on_c, 0, 60, 80
9, 14401, Note_on_c, 0, 55, 85
9, 14479, Note_on_c, 0, 67, 0
9, 14483, Note_on_c, 0, 60, 0
9, 14483, Note_on_c, 0, 56, 0
9, 14491, Note_on_c, 0, 63, 0
9, 14496, Note_on_c, 0, 63, 39
9, 14496, Note_on_c, 0, 54, 68
9, 14497, Note_on_c, 0, 56, 69
9, 14497, Note_on_c, 0, 66, 64
9, 14499, Note_on_c, 0, 60, 66
9, 14501, Note_on_c, 0, 55, 0
9, 14509, Note_on_c, 0, 66, 0
9, 14512, Note_on_c, 0, 56, 0
9, 14512, Note_on_c, 0, 60, 0
9, 14518, Note_on_c, 0, 54, 0
9, 14522, Note_on_c, 0, 53, 45
9, 14524, Note_on_c, 0, 65, 49
9, 14524, Note_on_c, 0, 56, 23
9, 14524, Note_on_c, 0, 60, 41
9, 14547, Note_on_c, 0, 60, 0
9, 14548, Note_on_c, 0, 65, 0
9, 14549, Note_on_c, 0, 56, 0
9, 14552, Note_on_c, 0, 63, 0
9, 14559, Note_on_c, 0, 56, 48
9, 14559, Note_on_c, 0, 63, 31
9, 14560, Note_on_c, 0, 48, 55
9, 14560, Note_on_c, 0, 60, 48
9, 14561, Note_on_c, 0, 53, 0
9, 14564, Note_on_c, 0, 48, 0
9, 14564, Note_on_c, 0, 60, 0
9, 14566, Note_on_c, 0, 56, 0
9, 14572, Note_on_c, 0, 63, 0
9, 14642, Control_c, 0, 64, 127
9, 14689, Control_c, 0, 64, 0
9, 14698, Note_on_c, 0, 70, 67
9, 14699, Note_on_c, 0, 54, 50
9, 14699, Note_on_c, 0, 77, 64
9, 14699, Note_on_c, 0, 74, 47
9, 14700, Note_on_c, 0, 65, 49
9, 14701, Note_on_c, 0, 60, 37
9, 14709, Control_c, 0, 64, 127
9, 14721, Note_on_c, 0, 65, 0
9, 14722, Note_on_c, 0, 70, 0
9, 14724, Note_on_c, 0, 54, 0
9, 14725, Note_on_c, 0, 74, 0
9, 14725, Note_on_c, 0, 77, 0
9, 14728, Note_on_c, 0, 60, 0
9, 14735, Note_on_c, 0, 77, 67
9, 14736, Note_on_c, 0, 70, 70
9, 14736, Note_on_c, 0, 74, 51
9, 14736, Note_on_c, 0, 54, 59
9, 14737, Note_on_c, 0, 65, 64
9, 14737, Note_on_c, 0, 60, 67
9, 14741, Control_c, 0, 64, 0
9, 14749, Note_on_c, 0, 65, 0
9, 14750, Note_on_c, 0, 70, 0
9, 14752, Note_on_c, 0, 77, 0
9, 14752, Note_on_c, 0, 74, 0
9, 14752, Note_on_c, 0, 60, 0
9, 14753, Note_on_c, 0, 54, 0
9, 14760, Note_on_c, 0, 54, 33
9, 14761, Note_on_c, 0, 77, 61
9, 14762, Note_on_c, 0, 74, 38
9, 14762, Note_on_c, 0, 70, 44
9, 14762, Note_on_c, 0, 60, 52
9, 14763, Note_on_c, 0, 65, 33
9, 14785, Note_on_c, 0, 65, 0
9, 14785, Note_on_c, 0, 74, 0
9, 14785, Control_c, 0, 64, 127
9, 14787, Note_on_c, 0, 70, 0
9, 14787, Note_on_c, 0, 54, 0
9, 14787, Note_on_c, 0, 77, 0
9, 14788, Note_on_c, 0, 60, 0
9, 14797, Control_c, 0, 64, 0
9, 14799, Note_on_c, 0, 77, 58
9, 14799, Note_on_c, 0, 70, 60
9, 14799, Note_on_c, 0, 65, 57
9, 14800, Note_on_c, 0, 60, 60
9, 14800, Note_on_c, 0, 54, 58
9, 14801, Note_on_c, 0, 74, 37
9, 14803, Note_on_c, 0, 65, 0
9, 14804, Note_on_c, 0, 60, 0
9, 14805, Note_on_c, 0, 70, 0
9, 14805, Note_on_c, 0, 74, 0
9, 14808, Note_on_c, 0, 77, 0
9, 14809, Note_on_c, 0, 54, 0
9, 14839, Control_c, 0, 64, 127
9, 14850, Control_c, 0, 64, 0
9, 14874, Note_on_c, 0, 82, 82
9, 14874, Note_on_c, 0, 59, 68
9, 14875, Note_on_c, 0, 70, 88
9, 14875, Note_on_c, 0, 53, 75
9, 14875, Note_on_c, 0, 64, 74
9, 14875, Note_on_c, 0, 75, 71
9, 14876, Note_on_c, 0, 79, 53
9, 14895, Note_on_c, 0, 70, 0
9, 14897, Note_on_c, 0, 75, 0
9, 14898, Note_on_c, 0, 79, 0
9, 14899, Note_on_c, 0, 82, 0
9, 14900, Note_on_c, 0, 64, 0
9, 14901, Note_on_c, 0, 53, 0
9, 14902, Note_on_c, 0, 59, 0
9, 14938, Control_c, 0, 64, 127
9, 14974, Note_on_c, 0, 84, 87
9, 14974, Note_on_c, 0, 79, 83
9, 14974, Note_on_c, 0, 58, 77
9, 14974, Note_on_c, 0, 63, 83
9, 14974, Note_on_c, 0, 72, 81
9, 14975, Note_on_c, 0, 52, 82
9, 14978, Control_c, 0, 64, 0
9, 15002, Control_c, 0, 64, 127
9, 15027, Note_on_c, 0, 52, 0
9, 15036, Note_on_c, 0, 58, 0
9, 15040, Note_on_c, 0, 63, 0
9, 15044, Note_on_c, 0, 84, 0
9, 15048, Note_on_c, 0, 72, 0
9, 15052, Note_on_c, 0, 79, 0
9, 15110, Control_c, 0, 64, 0
9, 15112, Note_on_c, 0, 73, 80
9, 15113, Note_on_c, 0, 68, 79
9, 15113, Note_on_c, 0, 63, 64
9, 15113, Note_on_c, 0, 85, 78
9, 15114, Note_on_c, 0, 80, 59
9, 15114, Note_on_c, 0, 61, 62
9, 15114, Note_on_c, 0, 57, 71
9, 15115, Note_on_c, 0, 77, 64
9, 15130, Control_c, 0, 64, 127
9, 15170, Note_on_c, 0, 77, 0
9, 15176, Note_on_c, 0, 80, 0
9, 15177, Note_on_c, 0, 73, 0
9, 15181, Note_on_c, 0, 68, 0
9, 15181, Note_on_c, 0, 85, 0
9, 15183, Note_on_c, 0, 57, 0
9, 15193, Note_on_c, 0, 63, 0
9, 15201, Note_on_c, 0, 61, 0
9, 15215, Note_on_c, 0, 86, 79
9, 15216, Note_on_c, 0, 79, 79
9, 15216, Note_on_c, 0, 74, 83
9, 15216, Note_on_c, 0, 66, 88
9, 15216, Note_on_c, 0, 83, 73
9, 15217, Note_on_c, 0, 56, 79
9, 15217, Note_on_c, 0, 62, 71
9, 15218, Control_c, 0, 64, 0
9, 15233, Control_c, 0, 64, 127
9, 15249, Note_on_c, 0, 62, 0
9, 15251, Note_on_c, 0, 74, 0
9, 15253, Note_on_c, 0, 79, 0
9, 15255, Note_on_c, 0, 83, 0
9, 15257, Note_on_c, 0, 66, 0
9, 15258, Note_on_c, 0, 86, 0
9, 15260, Note_on_c, 0, 56, 0
9, 15278, Note_on_c, 0, 62, 36
9, 15283, Note_on_c, 0, 62, 0
9, 15290, Control_c, 0, 64, 0
9, 15296, Note_on_c, 0, 66, 86
9, 15297, Note_on_c, 0, 85, 84
9, 15297, Note_on_c, 0, 56, 77
9, 15297, Note_on_c, 0, 89, 85
9, 15297, Note_on_c, 0, 77, 81
9, 15298, Note_on_c, 0, 62, 61
9, 15304, Note_on_c, 0, 86, 54
9, 15305, Note_on_c, 0, 85, 0
9, 15306, Control_c, 0, 64, 127
9, 15312, Note_on_c, 0, 77, 0
9, 15317, Note_on_c, 0, 86, 0
9, 15318, Note_on_c, 0, 89, 0
9, 15325, Note_on_c, 0, 66, 0
9, 15330, Note_on_c, 0, 56, 0
9, 15331, Note_on_c, 0, 62, 0
9, 15339, Note_on_c, 0, 62, 84
9, 15339, Note_on_c, 0, 86, 82
9, 15340, Note_on_c, 0, 74, 87
9, 15340, Note_on_c, 0, 65, 85
9, 15341, Note_on_c, 0, 60, 74
9, 15342, Note_on_c, 0, 55, 72
9, 15344, Note_on_c, 0, 58, 33
9, 15349, Note_on_c, 0, 58, 0
9, 15349, Control_c, 0, 64, 0
9, 15365, Control_c, 0, 64, 127
9, 15445, Note_on_c, 0, 60, 0
9, 15447, Note_on_c, 0, 65, 0
9, 15447, Note_on_c, 0, 62, 0
9, 15450, Note_on_c, 0, 74, 0
9, 15459, Note_on_c, 0, 86, 0
9, 15461, Note_on_c, 0, 62, 59
9, 15461, Note_on_c, 0, 74, 66
9, 15462, Note_on_c, 0, 60, 59
9, 15462, Note_on_c, 0, 65, 64
9, 15463, Note_on_c, 0, 82, 57
9, 15463, Note_on_c, 0, 79, 57
9, 15465, Note_on_c, 0, 74, 0
9, 15466, Note_on_c, 0, 65, 0
9, 15466, Note_on_c, 0, 60, 0
9, 15466, Control_c, 0, 64, 0
9, 15467, Note_on_c, 0, 82, 0
9, 15467, Note_on_c, 0, 55, 0
9, 15467, Note_on_c, 0, 79, 0
9, 15469, Note_on_c, 0, 62, 0
9, 15487, Control_c, 0, 64, 127
9, 15519, Control_c, 0, 64, 0
9, 15520, Note_on_c, 0, 62, 37
9, 15525, Note_on_c, 0, 62, 0
9, 15535, Control_c, 0, 64, 127
9, 15536, Note_on_c, 0, 62, 70
9, 15536, Note_on_c, 0, 94, 83
9, 15537, Note_on_c, 0, 82, 88
9, 15537, Note_on_c, 0, 65, 81
9, 15537, Note_on_c, 0, 60, 59
9, 15538, Note_on_c, 0, 87, 83
9, 15538, Note_on_c, 0, 55, 73
9, 15551, Note_on_c, 0, 60, 0
9, 15551, Note_on_c, 0, 62, 0
9, 15553, Note_on_c, 0, 65, 0
9, 15553, Note_on_c, 0, 87, 0
9, 15557, Note_on_c, 0, 55, 0
9, 15560, Note_on_c, 0, 82, 0
9, 15562, Note_on_c, 0, 94, 0
9, 15575, Note_on_c, 0, 55, 77
9, 15575, Note_on_c, 0, 61, 77
9, 15575, Note_on_c, 0, 93, 91
9, 15576, Note_on_c, 0, 88, 88
9, 15576, Note_on_c, 0, 66, 88
9, 15576, Note_on_c, 0, 81, 90
9, 15579, Note_on_c, 0, 91, 49
9, 15579, Control_c, 0, 64, 0
9, 15583, Note_on_c, 0, 91, 0
9, 15593, Control_c, 0, 64, 127
9, 15601, Note_on_c, 0, 93, 0
9, 15601, Note_on_c, 0, 88, 0
9, 15605, Note_on_c, 0, 81, 0
9, 15605, Note_on_c, 0, 55, 0
9, 15608, Note_on_c, 0, 66, 0
9, 15612, Note_on_c, 0, 61, 0
9, 15620, Note_on_c, 0, 76, 75
9, 15621, Note_on_c, 0, 88, 71
9, 15621, Note_on_c, 0, 66, 76
9, 15621, Note_on_c, 0, 61, 69
9, 15623, Note_on_c, 0, 55, 71
9, 15637, Note_on_c, 0, 88, 0
9, 15638, Note_on_c, 0, 76, 0
9, 15640, Note_on_c, 0, 55, 0
9, 15642, Note_on_c, 0, 66, 0
9, 15648, Note_on_c, 0, 61, 0
9, 15654, Control_c, 0, 64, 0
9, 15657, Note_on_c, 0, 84, 74
9, 15658, Note_on_c, 0, 61, 50
9, 15658, Note_on_c, 0, 72, 60
9, 15658, Note_on_c, 0, 66, 70
9, 15660, Note_on_c, 0, 55, 65
9, 15668, Control_c, 0, 64, 127
9, 15671, Note_on_c, 0, 84, 0
9, 15674, Note_on_c, 0, 72, 0
9, 15682, Note_on_c, 0, 55, 0
9, 15686, Note_on_c, 0, 66, 0
9, 15689, Note_on_c, 0, 61, 0
9, 15699, Note_on_c, 0, 81, 69
9, 15699, Note_on_c, 0, 69, 68
9, 15700, Note_on_c, 0, 61, 53
9, 15702, Note_on_c, 0, 64, 55
9, 15702, Note_on_c, 0, 55, 57
9, 15703, Note_on_c, 0, 69, 0
9, 15706, Note_on_c, 0, 64, 0
9, 15706, Note_on_c, 0, 81, 0
9, 15706, Control_c, 0, 64, 0
9, 15707, Note_on_c, 0, 55, 0
9, 15711, Note_on_c, 0, 61, 0
9, 15761, Note_on_c, 0, 61, 64
9, 15763, Note_on_c, 0, 64, 50
9, 15767, Note_on_c, 0, 64, 0
9, 15767, Note_on_c, 0, 61, 0
9, 15819, Note_on_c, 0, 63, 60
9, 15820, Note_on_c, 0, 59, 76
9, 15820, Note_on_c, 0, 54, 78
9, 15947, Note_on_c, 0, 54, 0
9, 15947, Note_on_c, 0, 59, 0
9, 15956, Note_on_c, 0, 53, 64
9, 15957, Note_on_c, 0, 59, 46
9, 16061, Note_on_c, 0, 53, 0
9, 16065, Note_on_c, 0, 59, 0
9, 16069, Note_on_c, 0, 63, 0
9, 16077, Note_on_c, 0, 49, 38
9, 16077, Note_on_c, 0, 58, 44
9, 16077, Note_on_c, 0, 53, 53
9, 16078, Note_on_c, 0, 61, 45
9, 16112, Note_on_c, 0, 49, 0
9, 16118, Note_on_c, 0, 46, 33
9, 16122, Note_on_c, 0, 53, 0
9, 16123, Note_on_c, 0, 58, 0
9, 16128, Note_on_c, 0, 49, 47
9, 16130, Note_on_c, 0, 61, 0
9, 16134, Note_on_c, 0, 46, 0
9, 16138, Note_on_c, 0, 58, 69
9, 16138, Note_on_c, 0, 63, 67
9, 16139, Note_on_c, 0, 53, 63
9, 16139, Note_on_c, 0, 51, 48
9, 16146, Note_on_c, 0, 49, 0
9, 16180, Note_on_c, 0, 53, 0
9, 16181, Note_on_c, 0, 58, 0
9, 16181, Note_on_c, 0, 51, 0
9, 16182, Note_on_c, 0, 46, 37
9, 16186, Note_on_c, 0, 63, 0
9, 16199, Note_on_c, 0, 46, 0
9, 16199, Note_on_c, 0, 48, 61
9, 16199, Note_on_c, 0, 56, 54
9, 16200, Note_on_c, 0, 60, 57
9, 16200, Note_on_c, 0, 52, 60
9, 16202, Note_on_c, 0, 63, 43
9, 16204, Control_c, 0, 64, 127
9, 16205, Note_on_c, 0, 52, 0
9, 16209, Note_on_c, 0, 48, 0
9, 16211, Note_on_c, 0, 56, 0
9, 16213, Note_on_c, 0, 60, 0
9, 16218, Note_on_c, 0, 63, 0
9, 16245, Note_on_c, 0, 64, 77
9, 16245, Note_on_c, 0, 74, 80
9, 16246, Note_on_c, 0, 73, 57
9, 16246, Note_on_c, 0, 63, 85
9, 16251, Control_c, 0, 64, 0
9, 16251, Note_on_c, 0, 71, 20
9, 16256, Note_on_c, 0, 71, 0
9, 16262, Note_on_c, 0, 74, 0
9, 16268, Note_on_c, 0, 73, 0
9, 16270, Control_c, 0, 64, 127
9, 16275, Note_on_c, 0, 64, 0
9, 16282, Note_on_c, 0, 75, 62
9, 16282, Note_on_c, 0, 68, 67
9, 16283, Note_on_c, 0, 61, 69
9, 16283, Note_on_c, 0, 64, 64
9, 16284, Note_on_c, 0, 73, 61
9, 16285, Note_on_c, 0, 63, 0
9, 16297, Note_on_c, 0, 75, 0
9, 16298, Note_on_c, 0, 64, 0
9, 16308, Note_on_c, 0, 61, 0
9, 16309, Note_on_c, 0, 73, 0
9, 16309, Note_on_c, 0, 68, 0
9, 16319, Note_on_c, 0, 68, 40
9, 16320, Note_on_c, 0, 65, 55
9, 16320, Note_on_c, 0, 60, 50
9, 16320, Note_on_c, 0, 72, 64
9, 16321, Control_c, 0, 64, 0
9, 16321, Note_on_c, 0, 56, 36
9, 16322, Note_on_c, 0, 64, 57
9, 16324, Note_on_c, 0, 53, 40
9, 16375, Note_on_c, 0, 65, 0
9, 16376, Control_c, 0, 64, 127
9, 16381, Note_on_c, 0, 68, 0
9, 16383, Note_on_c, 0, 72, 0
9, 16391, Note_on_c, 0, 60, 0
9, 16401, Note_on_c, 0, 64, 0
9, 16427, Note_on_c, 0, 60, 42
9, 16434, Note_on_c, 0, 60, 0
9, 16434, Control_c, 0, 64, 0
9, 16439, Note_on_c, 0, 79, 73
9, 16440, Note_on_c, 0, 64, 62
9, 16441, Note_on_c, 0, 68, 71
9, 16441, Note_on_c, 0, 72, 65
9, 16471, Note_on_c, 0, 68, 0
9, 16472, Note_on_c, 0, 79, 0
9, 16473, Note_on_c, 0, 72, 0
9, 16482, Note_on_c, 0, 64, 0
9, 16482, Note_on_c, 0, 60, 58
9, 16482, Note_on_c, 0, 77, 63
9, 16482, Note_on_c, 0, 68, 25
9, 16486, Note_on_c, 0, 68, 0
9, 16486, Note_on_c, 0, 60, 0
9, 16487, Note_on_c, 0, 77, 0
9, 16489, Note_on_c, 0, 53, 0
9, 16492, Note_on_c, 0, 56, 0
9, 16541, Note_on_c, 0, 85, 69
9, 16542, Note_on_c, 0, 73, 62
9, 16542, Note_on_c, 0, 58, 69
9, 16542, Note_on_c, 0, 63, 67
9, 16543, Note_on_c, 0, 80, 43
9, 16545, Note_on_c, 0, 73, 0
9, 16546, Note_on_c, 0, 63, 0
9, 16546, Note_on_c, 0, 80, 0
9, 16548, Note_on_c, 0, 85, 0
9, 16549, Note_on_c, 0, 58, 0
9, 16601, Note_on_c, 0, 82, 83
9, 16601, Note_on_c, 0, 58, 74
9, 16602, Note_on_c, 0, 63, 82
9, 16602, Note_on_c, 0, 87, 56
9, 16602, Note_on_c, 0, 52, 80
9, 16603, Note_on_c, 0, 75, 45
9, 16604, Note_on_c, 0, 88, 72
9, 16606, Note_on_c, 0, 75, 0
9, 16608, Note_on_c, 0, 88, 0
9, 16612, Note_on_c, 0, 88, 24
9, 16617, Note_on_c, 0, 88, 0
9, 16626, Control_c, 0, 64, 127
9, 16652, Note_on_c, 0, 87, 0
9, 16654, Note_on_c, 0, 82, 0
9, 16661, Note_on_c, 0, 52, 0
9, 16663, Note_on_c, 0, 63, 0
9, 16667, Note_on_c, 0, 58, 0
9, 16678, Control_c, 0, 64, 0
9, 16681, Note_on_c, 0, 63, 55
9, 16683, Note_on_c, 0, 80, 47
9, 16683, Note_on_c, 0, 58, 46
9, 16683, Note_on_c, 0, 84, 63
9, 16683, Note_on_c, 0, 52, 43
9, 16685, Note_on_c, 0, 72, 27
9, 16688, Note_on_c, 0, 52, 0
9, 16688, Note_on_c, 0, 84, 0
9, 16689, Note_on_c, 0, 63, 0
9, 16689, Note_on_c, 0, 72, 0
9, 16694, Note_on_c, 0, 80, 0
9, 16695, Note_on_c, 0, 58, 0
9, 16739, Note_on_c, 0, 82, 57
9, 16740, Note_on_c, 0, 58, 47
9, 16740, Note_on_c, 0, 52, 51
9, 16740, Note_on_c, 0, 63, 50
9, 16741, Note_on_c, 0, 70, 58
9, 16742, Note_on_c, 0, 75, 53
9, 16745, Note_on_c, 0, 75, 0
9, 16745, Note_on_c, 0, 52, 0
9, 16745, Note_on_c, 0, 79, 24
9, 16746, Note_on_c, 0, 70, 0
9, 16749, Note_on_c, 0, 79, 0
9, 16750, Note_on_c, 0, 63, 0
9, 16754, Note_on_c, 0, 82, 0
9, 16757, Note_on_c, 0, 58, 0
9, 16798, Note_on_c, 0, 63, 53
9, 16798, Note_on_c, 0, 80, 53
9, 16799, Note_on_c, 0, 59, 57
9, 16800, Note_on_c, 0, 75, 55
9, 16800, Note_on_c, 0, 56, 36
9, 16801, Note_on_c, 0, 68, 43
9, 16801, Note_on_c, 0, 53, 38
9, 16816, Control_c, 0, 64, 127
9, 16849, Note_on_c, 0, 80, 0
9, 16853, Note_on_c, 0, 75, 0
9, 16854, Note_on_c, 0, 63, 0
9, 16854, Note_on_c, 0, 59, 0
9, 16855, Note_on_c, 0, 68, 0
9, 16870, Note_on_c, 0, 56, 0
9, 16896, Note_on_c, 0, 53, 0
9, 16901, Note_on_c, 0, 56, 42
9, 16909, Note_on_c, 0, 57, 45
9, 16915, Note_on_c, 0, 56, 0
9, 16915, Control_c, 0, 64, 0
9, 16916, Note_on_c, 0, 63, 67
9, 16917, Note_on_c, 0, 70, 71
9, 16917, Note_on_c, 0, 59, 71
9, 16918, Note_on_c, 0, 58, 67
9, 16918, Note_on_c, 0, 65, 57
9, 16919, Note_on_c, 0, 57, 0
9, 16931, Note_on_c, 0, 59, 0
9, 16936, Note_on_c, 0, 63, 0
9, 16936, Note_on_c, 0, 65, 0
9, 16938, Note_on_c, 0, 58, 0
9, 16938, Note_on_c, 0, 56, 47
9, 16939, Note_on_c, 0, 70, 0
9, 16952, Note_on_c, 0, 57, 20
9, 16956, Note_on_c, 0, 56, 0
9, 16957, Note_on_c, 0, 57, 0
9, 16959, Note_on_c, 0, 58, 77
9, 16959, Note_on_c, 0, 63, 75
9, 16961, Note_on_c, 0, 70, 75
9, 16961, Note_on_c, 0, 59, 81
9, 16961, Note_on_c, 0, 65, 66
9, 16983, Control_c, 0, 64, 127
9, 17015, Note_on_c, 0, 65, 0
9, 17015, Note_on_c, 0, 70, 0
9, 17016, Note_on_c, 0, 58, 0
9, 17021, Note_on_c, 0, 63, 0
9, 17024, Note_on_c, 0, 59, 0
9, 17046, Note_on_c, 0, 63, 33
9, 17046, Note_on_c, 0, 56, 49
9, 17047, Note_on_c, 0, 67, 41
9, 17047, Note_on_c, 0, 60, 57
9, 17047, Control_c, 0, 64, 0
9, 17048, Note_on_c, 0, 46, 60
9, 17052, Note_on_c, 0, 56, 0
9, 17053, Note_on_c, 0, 67, 0
9, 17056, Note_on_c, 0, 60, 0
9, 17061, Note_on_c, 0, 63, 0
9, 17085, Note_on_c, 0, 67, 70
9, 17086, Note_on_c, 0, 63, 69
9, 17086, Note_on_c, 0, 60, 76
9, 17087, Note_on_c, 0, 58, 68
9, 17111, Control_c, 0, 64, 127
9, 17130, Note_on_c, 0, 60, 0
9, 17141, Note_on_c, 0, 58, 0
9, 17144, Note_on_c, 0, 67, 0
9, 17147, Note_on_c, 0, 53, 40
9, 17153, Note_on_c, 0, 53, 0
9, 17153, Note_on_c, 0, 63, 0
9, 17161, Control_c, 0, 64, 0
9, 17162, Note_on_c, 0, 56, 49
9, 17162, Note_on_c, 0, 62, 44
9, 17164, Note_on_c, 0, 59, 29
9, 17168, Note_on_c, 0, 59, 0
9, 17171, Note_on_c, 0, 62, 0
9, 17174, Note_on_c, 0, 56, 0
9, 17188, Note_on_c, 0, 53, 24
9, 17194, Note_on_c, 0, 53, 0
9, 17198, Note_on_c, 0, 62, 74
9, 17199, Note_on_c, 0, 59, 72
9, 17200, Note_on_c, 0, 56, 62
9, 17224, Control_c, 0, 64, 127
9, 17240, Note_on_c, 0, 62, 0
9, 17251, Note_on_c, 0, 59, 0
9, 17262, Note_on_c, 0, 56, 0
9, 17263, Note_on_c, 0, 46, 0
9, 17264, Note_on_c, 0, 51, 32
9, 17265, Note_on_c, 0, 54, 43
9, 17277, Control_c, 0, 64, 0
9, 17278, Note_on_c, 0, 70, 71
9, 17279, Note_on_c, 0, 51, 0
9, 17280, Note_on_c, 0, 54, 0
9, 17280, Note_on_c, 0, 65, 64
9, 17280, Note_on_c, 0, 60, 58
9, 17280, Note_on_c, 0, 55, 65
9, 17313, Note_on_c, 0, 65, 0
9, 17314, Note_on_c, 0, 70, 0
9, 17319, Note_on_c, 0, 60, 0
9, 17330, Note_on_c, 0, 55, 0
9, 17336, Note_on_c, 0, 54, 39
9, 17336, Note_on_c, 0, 59, 49
9, 17337, Note_on_c, 0, 64, 53
9, 17337, Note_on_c, 0, 69, 55
9, 17365, Note_on_c, 0, 69, 0
9, 17368, Note_on_c, 0, 59, 0
9, 17371, Note_on_c, 0, 64, 0
9, 17380, Note_on_c, 0, 51, 28
9, 17390, Note_on_c, 0, 54, 0
9, 17394, Note_on_c, 0, 51, 0
9, 17397, Note_on_c, 0, 70, 62
9, 17398, Note_on_c, 0, 65, 55
9, 17398, Note_on_c, 0, 60, 50
9, 17398, Note_on_c, 0, 55, 57
9, 17408, Control_c, 0, 64, 127
9, 17410, Note_on_c, 0, 60, 0
9, 17414, Note_on_c, 0, 55, 0
9, 17415, Note_on_c, 0, 65, 0
9, 17420, Note_on_c, 0, 70, 0
9, 17454, Control_c, 0, 64, 0
9, 17455, Note_on_c, 0, 82, 76
9, 17457, Note_on_c, 0, 61, 60
9, 17458, Note_on_c, 0, 60, 65
9, 17458, Note_on_c, 0, 56, 58
9, 17459, Note_on_c, 0, 85, 54
9, 17459, Note_on_c, 0, 65, 68
9, 17459, Note_on_c, 0, 89, 76
9, 17459, Note_on_c, 0, 77, 71
9, 17461, Note_on_c, 0, 88, 40
9, 17466, Note_on_c, 0, 88, 0
9, 17467, Control_c, 0, 64, 127
9, 17473, Note_on_c, 0, 82, 0
9, 17480, Note_on_c, 0, 85, 0
9, 17488, Note_on_c, 0, 77, 0
9, 17488, Note_on_c, 0, 56, 0
9, 17490, Note_on_c, 0, 65, 0
9, 17490, Note_on_c, 0, 89, 0
9, 17491, Note_on_c, 0, 60, 0
9, 17494, Note_on_c, 0, 61, 0
9, 17498, Note_on_c, 0, 65, 80
9, 17499, Note_on_c, 0, 61, 56
9, 17499, Note_on_c, 0, 56, 77
9, 17499, Control_c, 0, 64, 0
9, 17499, Note_on_c, 0, 89, 82
9, 17500, Note_on_c, 0, 60, 87
9, 17500, Note_on_c, 0, 77, 76
9, 17500, Note_on_c, 0, 85, 74
9, 17557, Control_c, 0, 64, 127
9, 17578, Note_on_c, 0, 77, 0
9, 17582, Note_on_c, 0, 65, 0
9, 17582, Note_on_c, 0, 60, 0
9, 17584, Note_on_c, 0, 85, 0
9, 17588, Note_on_c, 0, 89, 0
9, 17588, Note_on_c, 0, 56, 0
9, 17590, Note_on_c, 0, 61, 0
9, 17619, Note_on_c, 0, 91, 67
9, 17619, Note_on_c, 0, 85, 71
9, 17620, Note_on_c, 0, 79, 49
9, 17621, Note_on_c, 0, 61, 62
9, 17622, Note_on_c, 0, 64, 71
9, 17623, Note_on_c, 0, 91, 0
9, 17624, Note_on_c, 0, 79, 0
9, 17624, Note_on_c, 0, 55, 44
9, 17625, Note_on_c, 0, 64, 0
9, 17625, Control_c, 0, 64, 0
9, 17626, Note_on_c, 0, 85, 0
9, 17628, Note_on_c, 0, 55, 0
9, 17629, Note_on_c, 0, 61, 0
9, 17684, Note_on_c, 0, 64, 66
9, 17685, Note_on_c, 0, 61, 53
9, 17685, Note_on_c, 0, 55, 71
9, 17685, Note_on_c, 0, 59, 67
9, 17689, Note_on_c, 0, 52, 37
9, 17740, Note_on_c, 0, 52, 0
9, 17742, Note_on_c, 0, 55, 0
9, 17742, Note_on_c, 0, 59, 0
9, 17742, Note_on_c, 0, 64, 0
9, 17743, Note_on_c, 0, 45, 36
9, 17748, Note_on_c, 0, 61, 0
9, 17750, Note_on_c, 0, 45, 0
9, 17760, Note_on_c, 0, 55, 53
9, 17760, Note_on_c, 0, 63, 45
9, 17762, Note_on_c, 0, 60, 31
9, 17762, Note_on_c, 0, 51, 48
9, 17766, Note_on_c, 0, 44, 43
9, 17772, Note_on_c, 0, 55, 0
9, 17776, Note_on_c, 0, 60, 0
9, 17782, Note_on_c, 0, 63, 0
9, 17784, Note_on_c, 0, 51, 0
9, 17805, Note_on_c, 0, 51, 44
9, 17821, Note_on_c, 0, 67, 50
9, 17822, Note_on_c, 0, 51, 0
9, 17822, Note_on_c, 0, 58, 42
9, 17823, Note_on_c, 0, 63, 48
9, 17823, Note_on_c, 0, 60, 58
9, 17823, Note_on_c, 0, 55, 40
9, 17840, Note_on_c, 0, 60, 0
9, 17842, Note_on_c, 0, 67, 0
9, 17846, Note_on_c, 0, 63, 0
9, 17846, Note_on_c, 0, 58, 0
9, 17852, Note_on_c, 0, 44, 0
9, 17858, Note_on_c, 0, 55, 0
9, 17876, Note_on_c, 0, 54, 33
9, 17884, Note_on_c, 0, 58, 43
9, 17884, Note_on_c, 0, 67, 51
9, 17884, Note_on_c, 0, 63, 46
9, 17885, Note_on_c, 0, 54, 0
9, 17885, Note_on_c, 0, 55, 51
9, 17886, Note_on_c, 0, 60, 48
9, 17923, Note_on_c, 0, 60, 0
9, 17927, Note_on_c, 0, 58, 0
9, 17929, Note_on_c, 0, 63, 0
9, 17933, Note_on_c, 0, 67, 0
9, 17935, Note_on_c, 0, 55, 0
9, 17940, Note_on_c, 0, 53, 40
9, 17941, Note_on_c, 0, 58, 40
9, 17942, Note_on_c, 0, 65, 57
9, 17942, Note_on_c, 0, 63, 35
9, 17944, Note_on_c, 0, 60, 47
9, 17977, Note_on_c, 0, 63, 0
9, 17985, Note_on_c, 0, 53, 0
9, 17993, Note_on_c, 0, 58, 0
9, 17993, Note_on_c, 0, 60, 0
9, 17998, Note_on_c, 0, 65, 0
9, 18001, Control_c, 0, 64, 127
9, 18032, Note_on_c, 0, 56, 30
9, 18036, Note_on_c, 0, 56, 0
9, 18037, Note_on_c, 0, 63, 64
9, 18038, Note_on_c, 0, 70, 70
9, 18038, Note_on_c, 0, 59, 72
9, 18038, Note_on_c, 0, 57, 36
9, 18039, Note_on_c, 0, 65, 55
9, 18041, Note_on_c, 0, 58, 74
9, 18042, Note_on_c, 0, 57, 0
9, 18042, Control_c, 0, 64, 0
9, 18044, Note_on_c, 0, 68, 20
9, 18048, Note_on_c, 0, 68, 0
9, 18055, Note_on_c, 0, 65, 0
9, 18056, Note_on_c, 0, 59, 0
9, 18059, Note_on_c, 0, 63, 0
9, 18060, Note_on_c, 0, 70, 0
9, 18061, Note_on_c, 0, 58, 0
9, 18068, Note_on_c, 0, 68, 37
9, 18069, Note_on_c, 0, 57, 27
9, 18085, Note_on_c, 0, 68, 0
9, 18098, Note_on_c, 0, 56, 31
9, 18100, Note_on_c, 0, 63, 62
9, 18101, Note_on_c, 0, 59, 68
9, 18102, Note_on_c, 0, 56, 0
9, 18102, Note_on_c, 0, 70, 57
9, 18103, Note_on_c, 0, 65, 51
9, 18104, Note_on_c, 0, 58, 62
9, 18105, Note_on_c, 0, 57, 0
9, 18107, Note_on_c, 0, 68, 26
9, 18116, Note_on_c, 0, 59, 0
9, 18118, Note_on_c, 0, 63, 0
9, 18118, Note_on_c, 0, 58, 0
9, 18119, Note_on_c, 0, 70, 0
9, 18119, Note_on_c, 0, 65, 0
9, 18120, Note_on_c, 0, 68, 0
9, 18133, Note_on_c, 0, 70, 56
9, 18134, Note_on_c, 0, 58, 45
9, 18135, Note_on_c, 0, 59, 51
9, 18135, Note_on_c, 0, 62, 46
9, 18137, Note_on_c, 0, 65, 31
9, 18144, Control_c, 0, 64, 127
9, 18156, Note_on_c, 0, 59, 0
9, 18157, Note_on_c, 0, 65, 0
9, 18158, Note_on_c, 0, 62, 0
9, 18162, Control_c, 0, 64, 0
9, 18164, Note_on_c, 0, 70, 0
9, 18174, Note_on_c, 0, 58, 0
9, 18176, Note_on_c, 0, 68, 54
9, 18176, Note_on_c, 0, 56, 33
9, 18177, Note_on_c, 0, 59, 59
9, 18178, Control_c, 0, 64, 127
9, 18179, Note_on_c, 0, 62, 41
9, 18181, Note_on_c, 0, 56, 0
9, 18185, Note_on_c, 0, 68, 0
9, 18187, Note_on_c, 0, 59, 0
9, 18193, Note_on_c, 0, 62, 0
9, 18222, Note_on_c, 0, 63, 60
9, 18223, Note_on_c, 0, 67, 53
9, 18223, Note_on_c, 0, 58, 50
9, 18224, Note_on_c, 0, 46, 42
9, 18224, Note_on_c, 0, 55, 51
9, 18226, Control_c, 0, 64, 0
9, 18253, Control_c, 0, 64, 127
9, 18293, Note_on_c, 0, 55, 0
9, 18298, Note_on_c, 0, 58, 0
9, 18298, Note_on_c, 0, 63, 0
9, 18360, Note_on_c, 0, 63, 51
9, 18360, Control_c, 0, 64, 0
9, 18361, Note_on_c, 0, 58, 47
9, 18362, Note_on_c, 0, 55, 45
9, 18369, Control_c, 0, 64, 127
9, 18378, Note_on_c, 0, 55, 0
9, 18394, Note_on_c, 0, 58, 0
9, 18404, Note_on_c, 0, 58, 91
9, 18419, Control_c, 0, 64, 0
9, 18421, Control_c, 0, 64, 127
9, 18444, Note_on_c, 0, 63, 0
9, 18446, Note_on_c, 0, 67, 0
9, 18483, Note_on_c, 0, 70, 58
9, 18483, Note_on_c, 0, 63, 49
9, 18485, Note_on_c, 0, 59, 41
9, 18486, Control_c, 0, 64, 0
9, 18486, Note_on_c, 0, 65, 34
9, 18496, Note_on_c, 0, 58, 0
9, 18522, Note_on_c, 0, 58, 71
9, 18544, Control_c, 0, 64, 127
9, 18570, Note_on_c, 0, 65, 0
9, 18574, Note_on_c, 0, 68, 1
9, 18577, Note_on_c, 0, 59, 0
9, 18581, Note_on_c, 0, 63, 0
9, 18596, Control_c, 0, 64, 0
9, 18599, Note_on_c, 0, 68, 0
9, 18600, Note_on_c, 0, 63, 42
9, 18602, Note_on_c, 0, 59, 40
9, 18604, Note_on_c, 0, 65, 24
9, 18609, Note_on_c, 0, 58, 0
9, 18610, Control_c, 0, 64, 127
9, 18644, Note_on_c, 0, 58, 78
9, 18646, Control_c, 0, 64, 0
9, 18661, Control_c, 0, 64, 127
9, 18684, Note_on_c, 0, 65, 0
9, 18691, Note_on_c, 0, 59, 0
9, 18695, Note_on_c, 0, 68, 1
9, 18701, Note_on_c, 0, 63, 0
9, 18703, Note_on_c, 0, 70, 0
9, 18703, Note_on_c, 0, 58, 0
9, 18706, Note_on_c, 0, 54, 43
9, 18711, Note_on_c, 0, 68, 0
9, 18722, Note_on_c, 0, 54, 0
9, 18722, Note_on_c, 0, 55, 66
9, 18722, Note_on_c, 0, 60, 60
9, 18722, Note_on_c, 0, 70, 60
9, 18723, Note_on_c, 0, 65, 60
9, 18723, Control_c, 0, 64, 0
9, 18745, Note_on_c, 0, 46, 0
9, 18763, Note_on_c, 0, 46, 60
9, 18778, Control_c, 0, 64, 127
9, 18814, Note_on_c, 0, 65, 0
9, 18820, Note_on_c, 0, 60, 0
9, 18821, Note_on_c, 0, 54, 21
9, 18836, Note_on_c, 0, 54, 0
9, 18837, Control_c, 0, 64, 0
9, 18838, Note_on_c, 0, 70, 0
9, 18842, Note_on_c, 0, 55, 0
9, 18842, Note_on_c, 0, 65, 55
9, 18843, Note_on_c, 0, 60, 49
9, 18843, Note_on_c, 0, 70, 25
9, 18850, Control_c, 0, 64, 127
9, 18873, Note_on_c, 0, 60, 0
9, 18883, Note_on_c, 0, 65, 0
9, 18883, Note_on_c, 0, 55, 66
9, 18890, Note_on_c, 0, 46, 0
9, 18891, Note_on_c, 0, 70, 0
9, 18892, Note_on_c, 0, 55, 0
9, 19063, Note_on_c, 0, 70, 64
9, 19063, Note_on_c, 0, 61, 52
9, 19063, Note_on_c, 0, 66, 56
9, 19065, Note_on_c, 0, 56, 47
9, 19066, Note_on_c, 0, 62, 50
9, 19066, Control_c, 0, 64, 0
9, 19090, Control_c, 0, 64, 127
9, 19113, Note_on_c, 0, 61, 0
9, 19124, Note_on_c, 0, 66, 0
9, 19132, Note_on_c, 0, 70, 0
9, 19134, Note_on_c, 0, 62, 0
9, 19134, Note_on_c, 0, 56, 0
9, 19181, Note_on_c, 0, 89, 71
9, 19181, Control_c, 0, 64, 0
9, 19183, Note_on_c, 0, 62, 32
9, 19185, Note_on_c, 0, 65, 40
9, 19185, Note_on_c, 0, 60, 35
9, 19191, Note_on_c, 0, 55, 24
9, 19199, Note_on_c, 0, 89, 0
9, 19203, Note_on_c, 0, 86, 51
9, 19254, Control_c, 0, 64, 127
9, 19272, Note_on_c, 0, 62, 0
9, 19275, Note_on_c, 0, 86, 0
9, 19276, Note_on_c, 0, 65, 0
9, 19284, Note_on_c, 0, 60, 0
9, 19295, Note_on_c, 0, 65, 44
9, 19297, Note_on_c, 0, 62, 34
9, 19297, Note_on_c, 0, 60, 50
9, 19297, Note_on_c, 0, 82, 83
9, 19307, Control_c, 0, 64, 0
9, 19311, Note_on_c, 0, 82, 0
9, 19321, Control_c, 0, 64, 127
9, 19323, Note_on_c, 0, 79, 42
9, 19324, Note_on_c, 0, 62, 0
9, 19338, Note_on_c, 0, 62, 17
9, 19373, Note_on_c, 0, 62, 0
9, 19373, Note_on_c, 0, 65, 0
9, 19377, Note_on_c, 0, 60, 0
9, 19382, Note_on_c, 0, 79, 0
9, 19382, Note_on_c, 0, 55, 0
9, 19419, Note_on_c, 0, 74, 110
9, 19419, Note_on_c, 0, 61, 71
9, 19419, Note_on_c, 0, 66, 73
9, 19420, Note_on_c, 0, 55, 71
9, 19429, Control_c, 0, 64, 0
9, 19438, Note_on_c, 0, 74, 0
9, 19452, Note_on_c, 0, 73, 64
9, 19502, Control_c, 0, 64, 127
9, 19516, Note_on_c, 0, 55, 0
9, 19523, Note_on_c, 0, 66, 0
9, 19528, Note_on_c, 0, 61, 0
9, 19536, Note_on_c, 0, 73, 0
9, 19540, Note_on_c, 0, 61, 46
9, 19540, Note_on_c, 0, 66, 64
9, 19541, Note_on_c, 0, 70, 83
9, 19542, Note_on_c, 0, 55, 63
9, 19554, Control_c, 0, 64, 0
9, 19561, Note_on_c, 0, 66, 0
9, 19562, Note_on_c, 0, 70, 0
9, 19567, Note_on_c, 0, 66, 25
9, 19570, Control_c, 0, 64, 127
9, 19571, Note_on_c, 0, 69, 59
9, 19618, Note_on_c, 0, 66, 0
9, 19619, Note_on_c, 0, 55, 0
9, 19629, Note_on_c, 0, 61, 0
9, 19658, Note_on_c, 0, 63, 49
9, 19660, Note_on_c, 0, 69, 0
9, 19661, Note_on_c, 0, 59, 55
9, 19662, Note_on_c, 0, 58, 31
9, 19662, Note_on_c, 0, 54, 42
9, 19672, Control_c, 0, 64, 0
9, 19682, Control_c, 0, 64, 127
9, 19687, Note_on_c, 0, 63, 0
9, 19691, Note_on_c, 0, 59, 0
9, 19698, Note_on_c, 0, 58, 0
9, 19722, Note_on_c, 0, 54, 0
9, 19739, Note_on_c, 0, 53, 41
9, 19741, Control_c, 0, 64, 0
9, 19744, Note_on_c, 0, 53, 0
9, 19753, Note_on_c, 0, 54, 45
9, 19768, Note_on_c, 0, 54, 0
9, 19769, Note_on_c, 0, 56, 60
9, 19784, Note_on_c, 0, 58, 57
9, 19788, Note_on_c, 0, 56, 0
9, 19794, Note_on_c, 0, 58, 0
9, 19798, Note_on_c, 0, 59, 64
9, 19808, Note_on_c, 0, 59, 0
9, 19815, Note_on_c, 0, 61, 55
9, 19829, Note_on_c, 0, 61, 0
9, 19830, Note_on_c, 0, 63, 53
9, 19837, Control_c, 0, 64, 127
9, 19840, Note_on_c, 0, 63, 0
9, 19845, Note_on_c, 0, 65, 62
9, 19856, Note_on_c, 0, 65, 0
9, 19856, Note_on_c, 0, 63, 39
9, 19857, Note_on_c, 0, 59, 44
9, 19858, Note_on_c, 0, 53, 42
9, 19858, Control_c, 0, 64, 0
9, 19862, Note_on_c, 0, 67, 58
9, 19871, Note_on_c, 0, 63, 0
9, 19872, Note_on_c, 0, 67, 0
9, 19876, Note_on_c, 0, 53, 0
9, 19878, Note_on_c, 0, 68, 77
9, 19881, Note_on_c, 0, 59, 0
9, 19883, Control_c, 0, 64, 127
9, 19888, Note_on_c, 0, 68, 0
9, 19892, Note_on_c, 0, 70, 79
9, 19904, Note_on_c, 0, 70, 0
9, 19908, Note_on_c, 0, 72, 83
9, 19916, Control_c, 0, 64, 0
9, 19918, Note_on_c, 0, 61, 52
9, 19918, Note_on_c, 0, 58, 40
9, 19921, Note_on_c, 0, 55, 44
9, 19925, Note_on_c, 0, 72, 0
9, 19926, Note_on_c, 0, 67, 34
9, 19940, Note_on_c, 0, 67, 0
9, 19943, Note_on_c, 0, 68, 60
9, 19944, Note_on_c, 0, 61, 0
9, 19947, Note_on_c, 0, 58, 0
9, 19955, Note_on_c, 0, 68, 0
9, 19957, Note_on_c, 0, 70, 54
9, 19961, Note_on_c, 0, 70, 0
9, 19967, Note_on_c, 0, 58, 42
9, 19971, Note_on_c, 0, 72, 60
9, 19980, Note_on_c, 0, 55, 0
9, 19981, Note_on_c, 0, 72, 0
9, 19981, Control_c, 0, 64, 127
9, 19987, Note_on_c, 0, 73, 43
9, 19999, Note_on_c, 0, 73, 0
9, 20004, Note_on_c, 0, 58, 0
9, 20004, Note_on_c, 0, 75, 37
9, 20008, Note_on_c, 0, 75, 0
9, 20016, Note_on_c, 0, 76, 62
9, 20018, Control_c, 0, 64, 0
9, 20025, Note_on_c, 0, 76, 0
9, 20027, Note_on_c, 0, 63, 48
9, 20028, Note_on_c, 0, 58, 39
9, 20030, Note_on_c, 0, 78, 63
9, 20031, Note_on_c, 0, 52, 39
9, 20036, Note_on_c, 0, 63, 0
9, 20044, Note_on_c, 0, 78, 0
9, 20048, Note_on_c, 0, 80, 31
9, 20051, Note_on_c, 0, 58, 0
9, 20061, Note_on_c, 0, 80, 0
9, 20061, Note_on_c, 0, 82, 42
9, 20065, Note_on_c, 0, 82, 0
9, 20074, Note_on_c, 0, 84, 67
9, 20085, Note_on_c, 0, 84, 0
9, 20085, Note_on_c, 0, 63, 38
9, 20086, Note_on_c, 0, 58, 42
9, 20093, Note_on_c, 0, 87, 55
9, 20110, Note_on_c, 0, 87, 0
9, 20118, Note_on_c, 0, 88, 57
9, 20120, Note_on_c, 0, 52, 0
9, 20126, Note_on_c, 0, 88, 0
9, 20127, Note_on_c, 0, 58, 0
9, 20131, Note_on_c, 0, 63, 0
9, 20133, Note_on_c, 0, 93, 96
9, 20133, Note_on_c, 0, 91, 89
9, 20143, Note_on_c, 0, 64, 39
9, 20144, Note_on_c, 0, 60, 41
9, 20145, Note_on_c, 0, 56, 28
9, 20146, Note_on_c, 0, 93, 0
9, 20147, Note_on_c, 0, 91, 0
9, 20149, Note_on_c, 0, 88, 74
9, 20149, Note_on_c, 0, 53, 34
9, 20158, Note_on_c, 0, 88, 0
9, 20164, Note_on_c, 0, 89, 80
9, 20173, Note_on_c, 0, 60, 0
9, 20186, Note_on_c, 0, 89, 0
9, 20188, Note_on_c, 0, 84, 53
9, 20196, Note_on_c, 0, 84, 0
9, 20196, Note_on_c, 0, 64, 0
9, 20209, Note_on_c, 0, 56, 0
9, 20217, Note_on_c, 0, 53, 0
9, 20219, Note_on_c, 0, 80, 44
9, 20231, Note_on_c, 0, 80, 0
9, 20261, Note_on_c, 0, 79, 54
9, 20262, Note_on_c, 0, 60, 36
9, 20263, Note_on_c, 0, 56, 31
9, 20266, Note_on_c, 0, 79, 0
9, 20268, Note_on_c, 0, 60, 0
9, 20277, Note_on_c, 0, 56, 0
9, 20290, Note_on_c, 0, 80, 30
9, 20294, Note_on_c, 0, 80, 0
9, 20298, Note_on_c, 0, 82, 62
9, 20310, Note_on_c, 0, 80, 60
9, 20317, Note_on_c, 0, 82, 0
9, 20324, Note_on_c, 0, 80, 0
9, 20324, Note_on_c, 0, 79, 67
9, 20328, Note_on_c, 0, 60, 32
9, 20328, Note_on_c, 0, 56, 34
9, 20332, Note_on_c, 0, 53, 22
9, 20334, Note_on_c, 0, 60, 0
9, 20335, Note_on_c, 0, 79, 0
9, 20338, Note_on_c, 0, 53, 0
9, 20344, Note_on_c, 0, 56, 0
9, 20345, Note_on_c, 0, 78, 57
9, 20372, Note_on_c, 0, 78, 0
9, 20380, Note_on_c, 0, 63, 57
9, 20381, Note_on_c, 0, 58, 43
9, 20381, Note_on_c, 0, 77, 75
9, 20383, Note_on_c, 0, 52, 42
9, 20391, Note_on_c, 0, 63, 0
9, 20392, Note_on_c, 0, 77, 0
9, 20398, Note_on_c, 0, 52, 0
9, 20403, Note_on_c, 0, 58, 0
9, 20407, Note_on_c, 0, 75, 59
9, 20423, Note_on_c, 0, 75, 0
9, 20442, Note_on_c, 0, 76, 91
9, 20444, Note_on_c, 0, 61, 52
9, 20445, Note_on_c, 0, 64, 58
9, 20445, Note_on_c, 0, 58, 45
9, 20458, Note_on_c, 0, 76, 0
9, 20468, Note_on_c, 0, 73, 71
9, 20479, Note_on_c, 0, 64, 0
9, 20480, Note_on_c, 0, 61, 0
9, 20489, Note_on_c, 0, 73, 0
9, 20502, Note_on_c, 0, 61, 62
9, 20503, Note_on_c, 0, 72, 74
9, 20504, Note_on_c, 0, 64, 51
9, 20508, Note_on_c, 0, 64, 0
9, 20512, Note_on_c, 0, 72, 0
9, 20515, Note_on_c, 0, 61, 0
9, 20527, Note_on_c, 0, 70, 48
9, 20528, Note_on_c, 0, 58, 0
9, 20537, Control_c, 0, 64, 127
9, 20552, Note_on_c, 0, 70, 0
9, 20559, Note_on_c, 0, 68, 76
9, 20561, Note_on_c, 0, 61, 51
9, 20561, Note_on_c, 0, 64, 60
9, 20562, Note_on_c, 0, 58, 47
9, 20570, Control_c, 0, 64, 0
9, 20571, Note_on_c, 0, 64, 0
9, 20572, Note_on_c, 0, 68, 0
9, 20580, Note_on_c, 0, 67, 54
9, 20592, Control_c, 0, 64, 127
9, 20593, Note_on_c, 0, 61, 0
9, 20598, Note_on_c, 0, 58, 0
9, 20613, Note_on_c, 0, 67, 0
9, 20622, Note_on_c, 0, 64, 48
9, 20632, Note_on_c, 0, 64, 0
9, 20638, Control_c, 0, 64, 0
9, 20639, Note_on_c, 0, 63, 46
9, 20639, Note_on_c, 0, 56, 25
9, 20640, Note_on_c, 0, 67, 71
9, 20641, Note_on_c, 0, 59, 50
9, 20643, Note_on_c, 0, 53, 28
9, 20651, Control_c, 0, 64, 127
9, 20664, Note_on_c, 0, 59, 0
9, 20665, Note_on_c, 0, 53, 0
9, 20668, Note_on_c, 0, 63, 0
9, 20670, Note_on_c, 0, 56, 0
9, 20676, Note_on_c, 0, 67, 0
9, 20681, Note_on_c, 0, 64, 49
9, 20683, Note_on_c, 0, 63, 23
9, 20683, Note_on_c, 0, 59, 43
9, 20688, Note_on_c, 0, 63, 0
9, 20689, Note_on_c, 0, 59, 0
9, 20689, Note_on_c, 0, 64, 0
9, 20689, Control_c, 0, 64, 0
9, 20698, Note_on_c, 0, 63, 53
9, 20700, Note_on_c, 0, 59, 58
9, 20700, Note_on_c, 0, 65, 71
9, 20701, Note_on_c, 0, 53, 41
9, 20701, Control_c, 0, 64, 127
9, 20701, Note_on_c, 0, 56, 29
9, 20723, Note_on_c, 0, 53, 0
9, 20726, Note_on_c, 0, 63, 0
9, 20727, Note_on_c, 0, 59, 0
9, 20730, Note_on_c, 0, 56, 0
9, 20732, Note_on_c, 0, 65, 0
9, 20739, Note_on_c, 0, 63, 69
9, 20739, Note_on_c, 0, 67, 80
9, 20740, Note_on_c, 0, 56, 51
9, 20741, Note_on_c, 0, 59, 61
9, 20741, Note_on_c, 0, 53, 60
9, 20747, Control_c, 0, 64, 0
9, 20754, Note_on_c, 0, 63, 0
9, 20755, Note_on_c, 0, 53, 0
9, 20758, Note_on_c, 0, 59, 0
9, 20760, Note_on_c, 0, 67, 0
9, 20761, Control_c, 0, 64, 127
9, 20763, Note_on_c, 0, 63, 51
9, 20765, Note_on_c, 0, 53, 33
9, 20766, Note_on_c, 0, 59, 49
9, 20766, Note_on_c, 0, 68, 61
9, 20779, Note_on_c, 0, 63, 0
9, 20780, Note_on_c, 0, 59, 0
9, 20791, Note_on_c, 0, 68, 0
9, 20793, Note_on_c, 0, 53, 0
9, 20793, Note_on_c, 0, 56, 0
9, 20799, Note_on_c, 0, 56, 17
9, 20799, Note_on_c, 0, 63, 60
9, 20800, Note_on_c, 0, 70, 78
9, 20801, Note_on_c, 0, 59, 59
9, 20806, Note_on_c, 0, 59, 0
9, 20807, Note_on_c, 0, 63, 0
9, 20808, Control_c, 0, 64, 0
9, 20813, Note_on_c, 0, 70, 0
9, 20817, Note_on_c, 0, 63, 57
9, 20818, Control_c, 0, 64, 127
9, 20821, Note_on_c, 0, 72, 64
9, 20831, Note_on_c, 0, 56, 0
9, 20833, Note_on_c, 0, 72, 0
9, 20838, Note_on_c, 0, 63, 0
9, 20856, Note_on_c, 0, 73, 88
9, 20857, Note_on_c, 0, 66, 69
9, 20857, Note_on_c, 0, 56, 58
9, 20857, Note_on_c, 0, 62, 57
9, 20857, Note_on_c, 0, 85, 85
9, 20860, Control_c, 0, 64, 0
9, 20876, Control_c, 0, 64, 127
9, 20885, Note_on_c, 0, 62, 0
9, 20886, Note_on_c, 0, 73, 0
9, 20887, Note_on_c, 0, 85, 0
9, 20889, Note_on_c, 0, 66, 0
9, 20896, Note_on_c, 0, 66, 64
9, 20896, Note_on_c, 0, 70, 79
9, 20897, Note_on_c, 0, 82, 69
9, 20898, Note_on_c, 0, 62, 36
9, 20916, Note_on_c, 0, 70, 0
9, 20921, Note_on_c, 0, 82, 0
9, 20925, Note_on_c, 0, 66, 0
9, 20926, Note_on_c, 0, 56, 0
9, 20927, Note_on_c, 0, 62, 0
9, 20936, Control_c, 0, 64, 0
9, 20939, Note_on_c, 0, 66, 76
9, 20939, Note_on_c, 0, 62, 60
9, 20939, Note_on_c, 0, 87, 84
9, 20939, Note_on_c, 0, 75, 84
9, 20939, Note_on_c, 0, 56, 68
9, 20948, Control_c, 0, 64, 127
9, 20969, Note_on_c, 0, 62, 0
9, 20970, Note_on_c, 0, 66, 0
9, 20970, Note_on_c, 0, 87, 0
9, 20971, Note_on_c, 0, 75, 0
9, 20971, Note_on_c, 0, 56, 0
9, 20981, Note_on_c, 0, 56, 53
9, 20981, Note_on_c, 0, 66, 52
9, 20981, Note_on_c, 0, 62, 49
9, 20982, Note_on_c, 0, 85, 77
9, 20982, Note_on_c, 0, 73, 71
9, 20985, Control_c, 0, 64, 0
9, 20993, Note_on_c, 0, 73, 0
9, 20997, Note_on_c, 0, 85, 0
9, 20997, Control_c, 0, 64, 127
9, 21001, Note_on_c, 0, 66, 0
9, 21003, Note_on_c, 0, 56, 0
9, 21008, Note_on_c, 0, 62, 0
9, 21016, Note_on_c, 0, 78, 74
9, 21016, Note_on_c, 0, 90, 77
9, 21017, Note_on_c, 0, 66, 70
9, 21018, Note_on_c, 0, 62, 66
9, 21018, Note_on_c, 0, 56, 64
9, 21029, Note_on_c, 0, 78, 0
9, 21032, Note_on_c, 0, 90, 0
9, 21036, Note_on_c, 0, 62, 0
9, 21042, Note_on_c, 0, 66, 0
9, 21044, Note_on_c, 0, 56, 0
9, 21056, Control_c, 0, 64, 0
9, 21057, Note_on_c, 0, 66, 70
9, 21058, Note_on_c, 0, 56, 67
9, 21058, Note_on_c, 0, 62, 66
9, 21059, Note_on_c, 0, 94, 76
9, 21060, Note_on_c, 0, 82, 73
9, 21064, Control_c, 0, 64, 127
9, 21074, Note_on_c, 0, 94, 0
9, 21078, Note_on_c, 0, 82, 0
9, 21079, Note_on_c, 0, 66, 0
9, 21088, Note_on_c, 0, 56, 0
9, 21089, Note_on_c, 0, 62, 0
9, 21101, Note_on_c, 0, 65, 62
9, 21101, Note_on_c, 0, 62, 50
9, 21102, Note_on_c, 0, 79, 63
9, 21102, Note_on_c, 0, 91, 71
9, 21103, Note_on_c, 0, 86, 61
9, 21103, Note_on_c, 0, 60, 50
9, 21104, Note_on_c, 0, 55, 51
9, 21108, Control_c, 0, 64, 0
9, 21123, Control_c, 0, 64, 127
9, 21128, Note_on_c, 0, 91, 0
9, 21131, Note_on_c, 0, 86, 0
9, 21133, Note_on_c, 0, 79, 0
9, 21199, Note_on_c, 0, 60, 0
9, 21201, Note_on_c, 0, 62, 0
9, 21218, Note_on_c, 0, 60, 49
9, 21219, Note_on_c, 0, 65, 0
9, 21225, Note_on_c, 0, 62, 22
9, 21231, Note_on_c, 0, 62, 0
9, 21235, Note_on_c, 0, 60, 0
9, 21237, Note_on_c, 0, 65, 61
9, 21237, Note_on_c, 0, 62, 34
9, 21238, Note_on_c, 0, 89, 99
9, 21239, Note_on_c, 0, 60, 18
9, 21240, Control_c, 0, 64, 0
9, 21251, Note_on_c, 0, 89, 0
9, 21255, Note_on_c, 0, 86, 68
9, 21260, Note_on_c, 0, 65, 0
9, 21265, Note_on_c, 0, 86, 0
9, 21268, Note_on_c, 0, 62, 0
9, 21271, Note_on_c, 0, 87, 74
9, 21284, Note_on_c, 0, 87, 0
9, 21287, Note_on_c, 0, 89, 80
9, 21288, Note_on_c, 0, 62, 20
9, 21288, Note_on_c, 0, 65, 58
9, 21303, Note_on_c, 0, 65, 0
9, 21304, Note_on_c, 0, 84, 60
9, 21304, Note_on_c, 0, 86, 54
9, 21305, Note_on_c, 0, 89, 0
9, 21305, Note_on_c, 0, 62, 0
9, 21305, Control_c, 0, 64, 127
9, 21309, Note_on_c, 0, 86, 0
9, 21312, Note_on_c, 0, 84, 0
9, 21316, Note_on_c, 0, 55, 0
9, 21319, Note_on_c, 0, 60, 0
9, 21343, Note_on_c, 0, 79, 17
9, 21350, Note_on_c, 0, 79, 0
9, 21352, Note_on_c, 0, 76, 42
9, 21357, Note_on_c, 0, 76, 0
9, 21359, Note_on_c, 0, 65, 50
9, 21359, Note_on_c, 0, 61, 53
9, 21362, Control_c, 0, 64, 0
9, 21363, Note_on_c, 0, 84, 80
9, 21363, Note_on_c, 0, 56, 32
9, 21376, Note_on_c, 0, 60, 1
9, 21378, Note_on_c, 0, 84, 0
9, 21382, Note_on_c, 0, 81, 44
9, 21384, Note_on_c, 0, 65, 0
9, 21393, Control_c, 0, 64, 127
9, 21395, Note_on_c, 0, 82, 68
9, 21398, Note_on_c, 0, 81, 0
9, 21405, Note_on_c, 0, 82, 0
9, 21410, Note_on_c, 0, 84, 80
9, 21412, Control_c, 0, 64, 0
9, 21414, Note_on_c, 0, 65, 44
9, 21421, Note_on_c, 0, 84, 0
9, 21428, Note_on_c, 0, 79, 71
9, 21431, Control_c, 0, 64, 127
9, 21438, Note_on_c, 0, 79, 0
9, 21443, Note_on_c, 0, 65, 0
9, 21452, Note_on_c, 0, 60, 0
9, 21454, Note_on_c, 0, 79, 80
9, 21467, Note_on_c, 0, 61, 0
9, 21470, Note_on_c, 0, 79, 0
9, 21470, Note_on_c, 0, 56, 0
9, 21486, Note_on_c, 0, 61, 37
9, 21486, Control_c, 0, 64, 0
9, 21487, Note_on_c, 0, 55, 53
9, 21487, Note_on_c, 0, 64, 43
9, 21518, Note_on_c, 0, 79, 71
9, 21518, Note_on_c, 0, 81, 71
9, 21519, Note_on_c, 0, 61, 0
9, 21525, Note_on_c, 0, 61, 28
9, 21529, Note_on_c, 0, 81, 0
9, 21534, Note_on_c, 0, 79, 0
9, 21541, Note_on_c, 0, 64, 0
9, 21547, Note_on_c, 0, 78, 62
9, 21548, Note_on_c, 0, 61, 0
9, 21553, Note_on_c, 0, 55, 0
9, 21555, Note_on_c, 0, 79, 66
9, 21557, Note_on_c, 0, 78, 0
9, 21566, Note_on_c, 0, 78, 48
9, 21569, Note_on_c, 0, 79, 0
9, 21578, Note_on_c, 0, 78, 0
9, 21578, Note_on_c, 0, 76, 40
9, 21588, Note_on_c, 0, 76, 0
9, 21590, Note_on_c, 0, 75, 56
9, 21601, Note_on_c, 0, 75, 0
9, 21603, Note_on_c, 0, 74, 53
9, 21606, Note_on_c, 0, 63, 25
9, 21611, Note_on_c, 0, 63, 0
9, 21624, Note_on_c, 0, 71, 70
9, 21628, Note_on_c, 0, 74, 0
9, 21645, Note_on_c, 0, 71, 0
9, 21653, Note_on_c, 0, 63, 48
9, 21653, Note_on_c, 0, 67, 49
9, 21654, Note_on_c, 0, 59, 35
9, 21657, Note_on_c, 0, 56, 30
9, 21670, Note_on_c, 0, 67, 0
9, 21672, Note_on_c, 0, 63, 0
9, 21680, Note_on_c, 0, 65, 28
9, 21689, Control_c, 0, 64, 127
9, 21690, Note_on_c, 0, 59, 0
9, 21703, Note_on_c, 0, 65, 0
9, 21711, Note_on_c, 0, 63, 53
9, 21712, Note_on_c, 0, 70, 77
9, 21724, Control_c, 0, 64, 0
9, 21726, Note_on_c, 0, 63, 0
9, 21727, Note_on_c, 0, 70, 0
9, 21736, Note_on_c, 0, 68, 60
9, 21743, Control_c, 0, 64, 127
9, 21762, Note_on_c, 0, 68, 0
9, 21768, Note_on_c, 0, 63, 75
9, 21775, Control_c, 0, 64, 0
9, 21787, Note_on_c, 0, 63, 0
9, 21789, Note_on_c, 0, 56, 0
9, 21791, Note_on_c, 0, 60, 32
9, 21795, Control_c, 0, 64, 127
9, 21820, Note_on_c, 0, 60, 0
9, 21825, Note_on_c, 0, 56, 38
9, 21841, Control_c, 0, 64, 0
9, 21843, Note_on_c, 0, 58, 60
9, 21843, Note_on_c, 0, 63, 63
9, 21843, Note_on_c, 0, 59, 75
9, 21843, Note_on_c, 0, 70, 71
9, 21844, Note_on_c, 0, 65, 57
9, 21848, Note_on_c, 0, 56, 0
9, 21884, Note_on_c, 0, 58, 0
9, 21884, Note_on_c, 0, 65, 0
9, 21885, Note_on_c, 0, 59, 0
9, 21888, Note_on_c, 0, 63, 0
9, 21889, Note_on_c, 0, 56, 31
9, 21890, Note_on_c, 0, 70, 0
9, 21902, Note_on_c, 0, 70, 64
9, 21903, Note_on_c, 0, 63, 57
9, 21904, Note_on_c, 0, 58, 49
9, 21904, Note_on_c, 0, 59, 64
9, 21906, Note_on_c, 0, 56, 0
9, 21907, Control_c, 0, 64, 127
9, 21907, Note_on_c, 0, 65, 45
9, 21910, Note_on_c, 0, 68, 27
9, 21920, Note_on_c, 0, 70, 0
9, 21922, Note_on_c, 0, 68, 0
9, 21924, Note_on_c, 0, 65, 0
9, 21927, Note_on_c, 0, 58, 0
9, 21929, Note_on_c, 0, 59, 0
9, 21930, Note_on_c, 0, 63, 0
9, 21946, Note_on_c, 0, 68, 65
9, 21947, Note_on_c, 0, 61, 67
9, 21947, Note_on_c, 0, 58, 64
9, 21948, Note_on_c, 0, 64, 62
9, 21948, Note_on_c, 0, 56, 64
9, 21951, Note_on_c, 0, 66, 28
9, 21952, Control_c, 0, 64, 0
9, 21969, Control_c, 0, 64, 127
9, 21996, Note_on_c, 0, 56, 0
9, 21996, Note_on_c, 0, 68, 0
9, 21997, Note_on_c, 0, 64, 0
9, 21997, Note_on_c, 0, 61, 0
9, 21999, Note_on_c, 0, 58, 0
9, 22001, Note_on_c, 0, 66, 0
9, 22003, Note_on_c, 0, 54, 33
9, 22004, Note_on_c, 0, 68, 48
9, 22006, Note_on_c, 0, 61, 60
9, 22006, Note_on_c, 0, 58, 69
9, 22007, Note_on_c, 0, 64, 53
9, 22008, Note_on_c, 0, 55, 79
9, 22013, Control_c, 0, 64, 0
9, 22014, Note_on_c, 0, 54, 0
9, 22015, Note_on_c, 0, 68, 0
9, 22017, Note_on_c, 0, 67, 57
9, 22021, Note_on_c, 0, 67, 0
9, 22027, Note_on_c, 0, 67, 22
9, 22030, Control_c, 0, 64, 127
9, 22041, Note_on_c, 0, 64, 0
9, 22050, Note_on_c, 0, 67, 0
9, 22051, Note_on_c, 0, 58, 0
9, 22054, Note_on_c, 0, 61, 0
9, 22054, Note_on_c, 0, 51, 31
9, 22056, Note_on_c, 0, 55, 0
9, 22062, Note_on_c, 0, 51, 0
9, 22064, Note_on_c, 0, 67, 68
9, 22064, Note_on_c, 0, 64, 64
9, 22064, Note_on_c, 0, 56, 81
9, 22064, Note_on_c, 0, 60, 82
9, 22065, Note_on_c, 0, 65, 44
9, 22066, Note_on_c, 0, 55, 79
9, 22072, Control_c, 0, 64, 0
9, 22112, Control_c, 0, 64, 127
9, 22116, Note_on_c, 0, 56, 0
9, 22116, Note_on_c, 0, 64, 0
9, 22120, Note_on_c, 0, 60, 0
9, 22120, Note_on_c, 0, 67, 0
9, 22121, Note_on_c, 0, 65, 0
9, 22123, Note_on_c, 0, 55, 0
9, 22126, Note_on_c, 0, 64, 54
9, 22127, Note_on_c, 0, 52, 57
9, 22128, Note_on_c, 0, 56, 23
9, 22134, Note_on_c, 0, 56, 0
9, 22138, Control_c, 0, 64, 0
9, 22140, Note_on_c, 0, 64, 0
9, 22148, Note_on_c, 0, 65, 55
9, 22153, Note_on_c, 0, 60, 19
9, 22153, Note_on_c, 0, 56, 25
9, 22157, Note_on_c, 0, 64, 18
9, 22163, Control_c, 0, 64, 127
9, 22165, Note_on_c, 0, 64, 0
9, 22165, Note_on_c, 0, 60, 0
9, 22170, Control_c, 0, 64, 0
9, 22171, Note_on_c, 0, 56, 0
9, 22178, Note_on_c, 0, 65, 0
9, 22179, Control_c, 0, 64, 127
9, 22180, Note_on_c, 0, 52, 0
9, 22184, Note_on_c, 0, 55, 76
9, 22185, Note_on_c, 0, 67, 77
9, 22186, Note_on_c, 0, 56, 76
9, 22187, Note_on_c, 0, 60, 75
9, 22187, Note_on_c, 0, 64, 58
9, 22189, Note_on_c, 0, 65, 45
9, 22193, Note_on_c, 0, 65, 0
9, 22197, Control_c, 0, 64, 0
9, 22199, Note_on_c, 0, 55, 0
9, 22199, Note_on_c, 0, 67, 0
9, 22200, Note_on_c, 0, 56, 0
9, 22200, Note_on_c, 0, 64, 0
9, 22202, Note_on_c, 0, 60, 0
9, 22209, Note_on_c, 0, 56, 44
9, 22210, Note_on_c, 0, 65, 58
9, 22210, Note_on_c, 0, 60, 45
9, 22212, Note_on_c, 0, 53, 55
9, 22223, Control_c, 0, 64, 127
9, 22233, Note_on_c, 0, 60, 0
9, 22240, Note_on_c, 0, 56, 0
9, 22250, Note_on_c, 0, 53, 0
9, 22250, Control_c, 0, 64, 0
9, 22254, Note_on_c, 0, 65, 0
9, 22262, Note_on_c, 0, 56, 47
9, 22262, Note_on_c, 0, 48, 51
9, 22263, Note_on_c, 0, 60, 64
9, 22268, Control_c, 0, 64, 127
9, 22273, Note_on_c, 0, 48, 0
9, 22274, Note_on_c, 0, 56, 0
9, 22278, Note_on_c, 0, 60, 0
9, 22315, Control_c, 0, 64, 0
9, 22320, Note_on_c, 0, 44, 51
9, 22324, Note_on_c, 0, 74, 74
9, 22326, Note_on_c, 0, 76, 29
9, 22329, Note_on_c, 0, 44, 0
9, 22330, Note_on_c, 0, 76, 0
9, 22330, Control_c, 0, 64, 127
9, 22341, Note_on_c, 0, 74, 0
9, 22362, Note_on_c, 0, 65, 80
9, 22365, Note_on_c, 0, 60, 66
9, 22366, Note_on_c, 0, 54, 48
9, 22369, Control_c, 0, 64, 0
9, 22375, Note_on_c, 0, 65, 0
9, 22380, Control_c, 0, 64, 127
9, 22380, Note_on_c, 0, 70, 72
9, 22393, Note_on_c, 0, 70, 0
9, 22399, Note_on_c, 0, 60, 0
9, 22399, Note_on_c, 0, 74, 46
9, 22403, Note_on_c, 0, 74, 0
9, 22407, Note_on_c, 0, 54, 0
9, 22414, Note_on_c, 0, 77, 74
9, 22415, Note_on_c, 0, 54, 52
9, 22415, Note_on_c, 0, 65, 65
9, 22417, Note_on_c, 0, 60, 64
9, 22418, Note_on_c, 0, 77, 0
9, 22423, Note_on_c, 0, 65, 0
9, 22428, Note_on_c, 0, 60, 0
9, 22434, Note_on_c, 0, 82, 38
9, 22440, Note_on_c, 0, 60, 32
9, 22443, Note_on_c, 0, 82, 0
9, 22444, Note_on_c, 0, 54, 0
9, 22447, Note_on_c, 0, 60, 0
9, 22452, Note_on_c, 0, 86, 63
9, 22459, Note_on_c, 0, 86, 0
9, 22465, Note_on_c, 0, 65, 80
9, 22465, Note_on_c, 0, 54, 79
9, 22465, Note_on_c, 0, 60, 79
9, 22466, Note_on_c, 0, 77, 95
9, 22467, Note_on_c, 0, 89, 94
9, 22495, Note_on_c, 0, 89, 0
9, 22495, Note_on_c, 0, 77, 0
9, 22496, Note_on_c, 0, 65, 0
9, 22497, Note_on_c, 0, 54, 0
9, 22500, Note_on_c, 0, 60, 0
9, 22511, Control_c, 0, 64, 0
9, 22512, Note_on_c, 0, 54, 76
9, 22512, Note_on_c, 0, 65, 82
9, 22512, Note_on_c, 0, 89, 92
9, 22512, Note_on_c, 0, 60, 72
9, 22512, Note_on_c, 0, 77, 94
9, 22515, Control_c, 0, 64, 127
9, 22516, Note_on_c, 0, 79, 44
9, 22519, Note_on_c, 0, 79, 0
9, 22533, Note_on_c, 0, 54, 0
9, 22534, Note_on_c, 0, 77, 0
9, 22535, Note_on_c, 0, 60, 0
9, 22536, Note_on_c, 0, 89, 0
9, 22542, Note_on_c, 0, 86, 60
9, 22542, Note_on_c, 0, 54, 56
9, 22546, Note_on_c, 0, 60, 27
9, 22547, Note_on_c, 0, 86, 0
9, 22547, Note_on_c, 0, 65, 0
9, 22551, Note_on_c, 0, 60, 0
9, 22555, Note_on_c, 0, 54, 0
9, 22561, Note_on_c, 0, 64, 75
9, 22562, Note_on_c, 0, 82, 82
9, 22562, Note_on_c, 0, 53, 71
9, 22563, Note_on_c, 0, 59, 63
9, 22563, Note_on_c, 0, 94, 80
9, 22563, Control_c, 0, 64, 0
9, 22582, Control_c, 0, 64, 127
9, 22590, Note_on_c, 0, 53, 0
9, 22591, Note_on_c, 0, 64, 0
9, 22591, Note_on_c, 0, 94, 0
9, 22591, Note_on_c, 0, 82, 0
9, 22601, Note_on_c, 0, 94, 64
9, 22601, Note_on_c, 0, 64, 70
9, 22601, Note_on_c, 0, 53, 64
9, 22602, Note_on_c, 0, 82, 74
9, 22605, Note_on_c, 0, 87, 43
9, 22606, Control_c, 0, 64, 0
9, 22609, Note_on_c, 0, 87, 0
9, 22613, Note_on_c, 0, 64, 0
9, 22613, Note_on_c, 0, 82, 0
9, 22614, Note_on_c, 0, 53, 0
9, 22615, Note_on_c, 0, 94, 0
9, 22620, Note_on_c, 0, 59, 0
9, 22624, Note_on_c, 0, 64, 53
9, 22624, Note_on_c, 0, 59, 33
9, 22624, Note_on_c, 0, 53, 58
9, 22626, Note_on_c, 0, 92, 50
9, 22628, Control_c, 0, 64, 127
9, 22628, Note_on_c, 0, 80, 45
9, 22633, Note_on_c, 0, 80, 0
9, 22633, Note_on_c, 0, 64, 0
9, 22636, Note_on_c, 0, 59, 0
9, 22636, Note_on_c, 0, 53, 0
9, 22637, Note_on_c, 0, 92, 0
9, 22661, Note_on_c, 0, 58, 74
9, 22661, Note_on_c, 0, 85, 88
9, 22661, Note_on_c, 0, 97, 82
9, 22661, Note_on_c, 0, 63, 83
9, 22662, Note_on_c, 0, 52, 74
9, 22663, Note_on_c, 0, 92, 71
9, 22663, Control_c, 0, 64, 0
9, 22678, Control_c, 0, 64, 127
9, 22697, Note_on_c, 0, 63, 0
9, 22698, Note_on_c, 0, 52, 0
9, 22698, Note_on_c, 0, 85, 0
9, 22698, Note_on_c, 0, 58, 0
9, 22699, Note_on_c, 0, 92, 0
9, 22702, Note_on_c, 0, 97, 0
9, 22718, Note_on_c, 0, 99, 82
9, 22718, Note_on_c, 0, 87, 90
9, 22718, Note_on_c, 0, 63, 84
9, 22719, Note_on_c, 0, 58, 74
9, 22719, Note_on_c, 0, 52, 80
9, 22720, Note_on_c, 0, 94, 74
9, 22725, Control_c, 0, 64, 0
9, 22736, Control_c, 0, 64, 127
9, 22743, Note_on_c, 0, 52, 0
9, 22743, Note_on_c, 0, 99, 0
9, 22744, Note_on_c, 0, 94, 0
9, 22747, Note_on_c, 0, 87, 0
9, 22751, Note_on_c, 0, 63, 0
9, 22751, Note_on_c, 0, 58, 0
9, 22800, Control_c, 0, 64, 0
9, 22815, Control_c, 0, 64, 127
9, 22837, Note_on_c, 0, 68, 73
9, 22838, Note_on_c, 0, 59, 65
9, 22839, Note_on_c, 0, 73, 86
9, 22839, Note_on_c, 0, 80, 79
9, 22839, Note_on_c, 0, 77, 87
9, 22839, Note_on_c, 0, 63, 47
9, 22840, Control_c, 0, 64, 0
9, 22854, Note_on_c, 0, 77, 0
9, 22856, Note_on_c, 0, 59, 0
9, 22858, Note_on_c, 0, 73, 0
9, 22860, Note_on_c, 0, 68, 0
9, 22860, Control_c, 0, 64, 127
9, 22864, Note_on_c, 0, 68, 29
9, 22864, Note_on_c, 0, 78, 49
9, 22867, Note_on_c, 0, 80, 0
9, 22867, Note_on_c, 0, 59, 37
9, 22867, Note_on_c, 0, 73, 35
9, 22873, Note_on_c, 0, 59, 0
9, 22874, Note_on_c, 0, 73, 0
9, 22878, Note_on_c, 0, 68, 0
9, 22879, Note_on_c, 0, 63, 0
9, 22881, Note_on_c, 0, 78, 0
9, 22902, Note_on_c, 0, 79, 75
9, 22903, Note_on_c, 0, 68, 70
9, 22903, Note_on_c, 0, 75, 63
9, 22904, Note_on_c, 0, 72, 71
9, 22905, Note_on_c, 0, 67, 66
9, 22906, Control_c, 0, 64, 0
9, 22909, Note_on_c, 0, 65, 32
9, 22913, Note_on_c, 0, 65, 0
9, 22925, Control_c, 0, 64, 127
9, 22932, Note_on_c, 0, 79, 0
9, 22937, Note_on_c, 0, 72, 0
9, 22938, Note_on_c, 0, 67, 0
9, 22942, Note_on_c, 0, 68, 0
9, 22947, Note_on_c, 0, 75, 0
9, 22959, Note_on_c, 0, 77, 79
9, 22960, Note_on_c, 0, 68, 79
9, 22961, Note_on_c, 0, 74, 65
9, 22961, Note_on_c, 0, 71, 73
9, 22962, Note_on_c, 0, 66, 76
9, 22964, Note_on_c, 0, 56, 54
9, 22966, Control_c, 0, 64, 0
9, 22982, Control_c, 0, 64, 127
9, 22988, Note_on_c, 0, 71, 0
9, 22992, Note_on_c, 0, 74, 0
9, 22995, Note_on_c, 0, 66, 0
9, 22995, Note_on_c, 0, 68, 0
9, 23004, Note_on_c, 0, 56, 0
9, 23007, Note_on_c, 0, 77, 0
9, 23019, Note_on_c, 0, 74, 67
9, 23019, Note_on_c, 0, 55, 69
9, 23020, Note_on_c, 0, 70, 77
9, 23020, Note_on_c, 0, 65, 48
9, 23021, Note_on_c, 0, 67, 68
9, 23021, Note_on_c, 0, 62, 47
9, 23023, Control_c, 0, 64, 0
9, 23029, Note_on_c, 0, 65, 0
9, 23031, Note_on_c, 0, 62, 0
9, 23035, Note_on_c, 0, 74, 0
9, 23037, Control_c, 0, 64, 127
9, 23038, Note_on_c, 0, 55, 0
9, 23040, Note_on_c, 0, 70, 0
9, 23043, Note_on_c, 0, 67, 0
9, 23077, Note_on_c, 0, 70, 71
9, 23078, Note_on_c, 0, 65, 71
9, 23078, Note_on_c, 0, 58, 77
9, 23079, Note_on_c, 0, 60, 73
9, 23081, Note_on_c, 0, 68, 33
9, 23083, Control_c, 0, 64, 0
9, 23085, Note_on_c, 0, 68, 0
9, 23099, Control_c, 0, 64, 127
9, 23105, Note_on_c, 0, 70, 0
9, 23105, Note_on_c, 0, 65, 0
9, 23106, Note_on_c, 0, 58, 0
9, 23110, Note_on_c, 0, 60, 0
9, 23138, Note_on_c, 0, 62, 78
9, 23138, Note_on_c, 0, 65, 67
9, 23139, Note_on_c, 0, 58, 71
9, 23139, Note_on_c, 0, 55, 71
9, 23141, Control_c, 0, 64, 0
9, 23152, Note_on_c, 0, 58, 0
9, 23155, Control_c, 0, 64, 127
9, 23156, Note_on_c, 0, 55, 0
9, 23157, Note_on_c, 0, 62, 0
9, 23158, Note_on_c, 0, 65, 0
9, 23184, Note_on_c, 0, 56, 28
9, 23197, Note_on_c, 0, 84, 103
9, 23197, Note_on_c, 0, 77, 105
9, 23197, Note_on_c, 0, 66, 85
9, 23198, Note_on_c, 0, 61, 69
9, 23198, Note_on_c, 0, 55, 85
9, 23200, Note_on_c, 0, 56, 0
9, 23200, Control_c, 0, 64, 0
9, 23214, Control_c, 0, 64, 127
9, 23225, Note_on_c, 0, 55, 0
9, 23230, Note_on_c, 0, 66, 0
9, 23232, Note_on_c, 0, 61, 0
9, 23233, Note_on_c, 0, 77, 0
9, 23236, Note_on_c, 0, 84, 0
9, 23253, Note_on_c, 0, 81, 81
9, 23253, Note_on_c, 0, 61, 64
9, 23253, Note_on_c, 0, 66, 77
9, 23254, Note_on_c, 0, 55, 71
9, 23255, Note_on_c, 0, 77, 80
9, 23255, Note_on_c, 0, 72, 79
9, 23258, Control_c, 0, 64, 0
9, 23271, Control_c, 0, 64, 127
9, 23274, Note_on_c, 0, 81, 0
9, 23276, Note_on_c, 0, 77, 0
9, 23278, Note_on_c, 0, 66, 0
9, 23279, Note_on_c, 0, 55, 0
9, 23280, Note_on_c, 0, 72, 0
9, 23293, Note_on_c, 0, 61, 0
9, 23314, Note_on_c, 0, 77, 64
9, 23315, Note_on_c, 0, 69, 58
9, 23315, Note_on_c, 0, 55, 72
9, 23315, Note_on_c, 0, 61, 61
9, 23315, Note_on_c, 0, 72, 63
9, 23316, Note_on_c, 0, 65, 64
9, 23320, Control_c, 0, 64, 0
9, 23334, Control_c, 0, 64, 127
9, 23341, Note_on_c, 0, 65, 0
9, 23341, Note_on_c, 0, 77, 0
9, 23344, Note_on_c, 0, 72, 0
9, 23350, Note_on_c, 0, 69, 0
9, 23369, Note_on_c, 0, 55, 0
9, 23370, Note_on_c, 0, 61, 0
9, 23394, Control_c, 0, 64, 0
9, 23395, Note_on_c, 0, 61, 53
9, 23396, Note_on_c, 0, 55, 54
9, 23397, Note_on_c, 0, 65, 57
9, 23398, Note_on_c, 0, 72, 48
9, 23399, Note_on_c, 0, 69, 46
9, 23405, Control_c, 0, 64, 127
9, 23407, Note_on_c, 0, 61, 0
9, 23411, Note_on_c, 0, 55, 0
9, 23423, Note_on_c, 0, 69, 0
9, 23425, Note_on_c, 0, 65, 0
9, 23441, Note_on_c, 0, 72, 0
9, 23451, Control_c, 0, 64, 0
9, 23458, Note_on_c, 0, 65, 49
9, 23459, Control_c, 0, 64, 127
9, 23459, Note_on_c, 0, 69, 33
9, 23459, Note_on_c, 0, 60, 47
9, 23461, Note_on_c, 0, 68, 21
9, 23464, Note_on_c, 0, 69, 0
9, 23466, Note_on_c, 0, 68, 0
9, 23467, Note_on_c, 0, 65, 0
9, 23471, Note_on_c, 0, 60, 0
9, 23503, Note_on_c, 0, 59, 50
9, 23503, Note_on_c, 0, 70, 50
9, 23503, Note_on_c, 0, 63, 43
9, 23504, Note_on_c, 0, 54, 39
9, 23504, Note_on_c, 0, 65, 39
9, 23505, Note_on_c, 0, 44, 44
9, 23508, Control_c, 0, 64, 0
9, 23509, Note_on_c, 0, 68, 26
9, 23519, Note_on_c, 0, 70, 0
9, 23520, Note_on_c, 0, 65, 0
9, 23520, Note_on_c, 0, 68, 0
9, 23520, Control_c, 0, 64, 127
9, 23524, Note_on_c, 0, 63, 0
9, 23528, Note_on_c, 0, 59, 0
9, 23528, Note_on_c, 0, 54, 0
9, 23543, Note_on_c, 0, 53, 55
9, 23548, Note_on_c, 0, 53, 0
9, 23548, Note_on_c, 0, 54, 39
9, 23559, Note_on_c, 0, 56, 42
9, 23560, Control_c, 0, 64, 0
9, 23561, Note_on_c, 0, 54, 0
9, 23566, Note_on_c, 0, 58, 45
9, 23567, Note_on_c, 0, 56, 0
9, 23570, Note_on_c, 0, 58, 0
9, 23578, Note_on_c, 0, 59, 31
9, 23582, Note_on_c, 0, 54, 8
9, 23583, Note_on_c, 0, 59, 0
9, 23588, Note_on_c, 0, 61, 25
9, 23594, Note_on_c, 0, 63, 52
9, 23596, Note_on_c, 0, 61, 0
9, 23602, Note_on_c, 0, 63, 0
9, 23607, Note_on_c, 0, 65, 55
9, 23609, Note_on_c, 0, 44, 0
9, 23613, Note_on_c, 0, 65, 0
9, 23616, Note_on_c, 0, 54, 0
9, 23622, Note_on_c, 0, 68, 21
9, 23629, Note_on_c, 0, 68, 0
9, 23629, Note_on_c, 0, 70, 53
9, 23634, Note_on_c, 0, 70, 0
9, 23641, Note_on_c, 0, 72, 56
9, 23645, Note_on_c, 0, 72, 0
9, 23650, Note_on_c, 0, 73, 51
9, 23654, Note_on_c, 0, 73, 0
9, 23662, Note_on_c, 0, 75, 43
9, 23666, Note_on_c, 0, 75, 0
9, 23672, Note_on_c, 0, 77, 67
9, 23677, Note_on_c, 0, 77, 0
9, 23682, Note_on_c, 0, 78, 37
9, 23689, Note_on_c, 0, 80, 48
9, 23691, Note_on_c, 0, 78, 0
9, 23695, Note_on_c, 0, 59, 37
9, 23695, Note_on_c, 0, 63, 37
9, 23698, Note_on_c, 0, 82, 42
9, 23699, Note_on_c, 0, 53, 34
9, 23700, Note_on_c, 0, 80, 0
9, 23702, Note_on_c, 0, 82, 0
9, 23708, Note_on_c, 0, 83, 59
9, 23717, Note_on_c, 0, 83, 0
9, 23719, Note_on_c, 0, 84, 60
9, 23724, Note_on_c, 0, 84, 0
9, 23725, Note_on_c, 0, 63, 0
9, 23725, Note_on_c, 0, 85, 48
9, 23731, Note_on_c, 0, 59, 0
9, 23735, Note_on_c, 0, 85, 0
9, 23740, Note_on_c, 0, 86, 19
9, 23743, Note_on_c, 0, 53, 0
9, 23743, Note_on_c, 0, 87, 55
9, 23748, Note_on_c, 0, 86, 0
9, 23753, Note_on_c, 0, 87, 0
9, 23755, Note_on_c, 0, 88, 51
9, 23759, Note_on_c, 0, 88, 0
9, 23765, Note_on_c, 0, 89, 79
9, 23769, Note_on_c, 0, 61, 53
9, 23776, Note_on_c, 0, 61, 0
9, 23778, Note_on_c, 0, 89, 0
9, 23801, Note_on_c, 0, 85, 82
9, 23803, Note_on_c, 0, 61, 62
9, 23804, Note_on_c, 0, 58, 43
9, 23806, Note_on_c, 0, 53, 38
9, 23812, Note_on_c, 0, 53, 0
9, 23812, Note_on_c, 0, 61, 0
9, 23817, Note_on_c, 0, 85, 0
9, 23818, Note_on_c, 0, 58, 0
9, 23823, Note_on_c, 0, 61, 44
9, 23826, Note_on_c, 0, 82, 50
9, 23826, Note_on_c, 0, 58, 19
9, 23827, Note_on_c, 0, 53, 40
9, 23830, Control_c, 0, 64, 127
9, 23836, Note_on_c, 0, 61, 0
9, 23838, Note_on_c, 0, 53, 0
9, 23839, Note_on_c, 0, 58, 0
9, 23855, Note_on_c, 0, 82, 0
9, 23861, Note_on_c, 0, 58, 58
9, 23873, Note_on_c, 0, 58, 0
9, 23876, Control_c, 0, 64, 0
9, 23880, Note_on_c, 0, 63, 68
9, 23881, Note_on_c, 0, 58, 52
9, 23881, Note_on_c, 0, 84, 50
9, 23882, Note_on_c, 0, 52, 61
9, 23883, Note_on_c, 0, 72, 45
9, 23886, Control_c, 0, 64, 127
9, 23900, Note_on_c, 0, 72, 0
9, 23900, Note_on_c, 0, 84, 0
9, 23900, Note_on_c, 0, 52, 0
9, 23902, Note_on_c, 0, 63, 0
9, 23906, Note_on_c, 0, 58, 0
9, 23924, Note_on_c, 0, 63, 60
9, 23924, Note_on_c, 0, 58, 54
9, 23924, Note_on_c, 0, 73, 50
9, 23925, Note_on_c, 0, 85, 68
9, 23925, Note_on_c, 0, 52, 53
9, 23927, Note_on_c, 0, 63, 0
9, 23928, Note_on_c, 0, 85, 0
9, 23928, Note_on_c, 0, 73, 0
9, 23929, Note_on_c, 0, 52, 0
9, 23933, Note_on_c, 0, 58, 0
9, 23935, Control_c, 0, 64, 0
9, 23944, Note_on_c, 0, 58, 67
9, 23944, Note_on_c, 0, 63, 76
9, 23944, Note_on_c, 0, 75, 84
9, 23944, Note_on_c, 0, 87, 87
9, 23944, Note_on_c, 0, 52, 80
9, 23945, Control_c, 0, 64, 127
9, 23963, Note_on_c, 0, 87, 0
9, 23967, Note_on_c, 0, 52, 0
9, 23968, Note_on_c, 0, 75, 0
9, 23974, Note_on_c, 0, 63, 0
9, 23976, Note_on_c, 0, 58, 0
9, 23985, Note_on_c, 0, 63, 74
9, 23986, Note_on_c, 0, 60, 75
9, 23986, Note_on_c, 0, 80, 78
9, 23987, Note_on_c, 0, 92, 84
9, 23987, Note_on_c, 0, 53, 75
9, 23987, Note_on_c, 0, 56, 62
9, 23988, Note_on_c, 0, 82, 67
9, 23992, Note_on_c, 0, 82, 0
9, 23993, Control_c, 0, 64, 0
9, 24009, Control_c, 0, 64, 127
9, 24039, Note_on_c, 0, 60, 0
9, 24044, Note_on_c, 0, 56, 0
9, 24045, Note_on_c, 0, 63, 0
9, 24046, Note_on_c, 0, 53, 0
9, 24047, Note_on_c, 0, 92, 0
9, 24052, Note_on_c, 0, 80, 0
9, 24057, Control_c, 0, 64, 0
9, 24061, Note_on_c, 0, 63, 51
9, 24061, Note_on_c, 0, 60, 62
9, 24062, Note_on_c, 0, 91, 58
9, 24062, Note_on_c, 0, 79, 62
9, 24063, Note_on_c, 0, 53, 41
9, 24063, Note_on_c, 0, 56, 39
9, 24065, Note_on_c, 0, 87, 34
9, 24067, Control_c, 0, 64, 127
9, 24075, Note_on_c, 0, 87, 0
9, 24075, Note_on_c, 0, 91, 0
9, 24077, Note_on_c, 0, 79, 0
9, 24078, Note_on_c, 0, 63, 0
9, 24079, Note_on_c, 0, 53, 0
9, 24083, Note_on_c, 0, 60, 0
9, 24084, Note_on_c, 0, 56, 0
9, 24103, Note_on_c, 0, 60, 67
9, 24103, Note_on_c, 0, 92, 60
9, 24103, Note_on_c, 0, 80, 51
9, 24104, Note_on_c, 0, 63, 52
9, 24104, Note_on_c, 0, 56, 39
9, 24105, Note_on_c, 0, 87, 49
9, 24105, Note_on_c, 0, 53, 44
9, 24106, Note_on_c, 0, 80, 0
9, 24106, Note_on_c, 0, 92, 0
9, 24107, Note_on_c, 0, 63, 0
9, 24109, Note_on_c, 0, 87, 0
9, 24109, Note_on_c, 0, 53, 0
9, 24112, Note_on_c, 0, 60, 0
9, 24114, Note_on_c, 0, 56, 0
9, 24115, Control_c, 0, 64, 0
9, 24122, Control_c, 0, 64, 127
9, 24122, Note_on_c, 0, 60, 66
9, 24122, Note_on_c, 0, 63, 72
9, 24123, Note_on_c, 0, 94, 80
9, 24123, Note_on_c, 0, 87, 77
9, 24123, Note_on_c, 0, 82, 69
9, 24124, Note_on_c, 0, 56, 49
9, 24124, Note_on_c, 0, 53, 71
9, 24144, Note_on_c, 0, 87, 0
9, 24144, Note_on_c, 0, 63, 0
9, 24147, Note_on_c, 0, 94, 0
9, 24147, Note_on_c, 0, 53, 0
9, 24148, Note_on_c, 0, 56, 0
9, 24149, Note_on_c, 0, 82, 0
9, 24149, Note_on_c, 0, 60, 0
9, 24160, Note_on_c, 0, 60, 68
9, 24161, Note_on_c, 0, 63, 57
9, 24161, Note_on_c, 0, 53, 57
9, 24161, Note_on_c, 0, 92, 74
9, 24162, Note_on_c, 0, 56, 45
9, 24162, Note_on_c, 0, 80, 61
9, 24164, Note_on_c, 0, 87, 54
9, 24167, Note_on_c, 0, 63, 0
9, 24170, Note_on_c, 0, 60, 0
9, 24171, Note_on_c, 0, 53, 0
9, 24177, Note_on_c, 0, 92, 0
9, 24177, Control_c, 0, 64, 0
9, 24178, Note_on_c, 0, 80, 0
9, 24179, Note_on_c, 0, 87, 0
9, 24182, Note_on_c, 0, 63, 57
9, 24182, Note_on_c, 0, 60, 53
9, 24183, Note_on_c, 0, 53, 34
9, 24185, Control_c, 0, 64, 127
9, 24186, Note_on_c, 0, 79, 59
9, 24192, Note_on_c, 0, 60, 0
9, 24195, Note_on_c, 0, 79, 0
9, 24197, Note_on_c, 0, 53, 0
9, 24204, Note_on_c, 0, 63, 0
9, 24208, Note_on_c, 0, 56, 0
9, 24220, Note_on_c, 0, 91, 73
9, 24221, Note_on_c, 0, 88, 73
9, 24221, Note_on_c, 0, 58, 72
9, 24221, Note_on_c, 0, 79, 74
9, 24221, Note_on_c, 0, 63, 77
9, 24222, Note_on_c, 0, 52, 80
9, 24225, Note_on_c, 0, 89, 39
9, 24228, Control_c, 0, 64, 0
9, 24229, Note_on_c, 0, 89, 0
9, 24242, Control_c, 0, 64, 127
9, 24246, Note_on_c, 0, 91, 0
9, 24246, Note_on_c, 0, 88, 0
9, 24252, Note_on_c, 0, 79, 0
9, 24254, Note_on_c, 0, 52, 0
9, 24256, Note_on_c, 0, 63, 0
9, 24260, Note_on_c, 0, 58, 0
9, 24281, Note_on_c, 0, 75, 80
9, 24281, Note_on_c, 0, 87, 72
9, 24283, Note_on_c, 0, 58, 70
9, 24283, Note_on_c, 0, 63, 70
9, 24284, Note_on_c, 0, 85, 46
9, 24284, Note_on_c, 0, 81, 53
9, 24284, Note_on_c, 0, 52, 68
9, 24286, Control_c, 0, 64, 0
9, 24287, Note_on_c, 0, 85, 0
9, 24287, Note_on_c, 0, 83, 34
9, 24294, Note_on_c, 0, 76, 40
9, 24297, Note_on_c, 0, 75, 0
9, 24298, Note_on_c, 0, 87, 0
9, 24302, Note_on_c, 0, 76, 0
9, 24302, Control_c, 0, 64, 127
9, 24307, Note_on_c, 0, 83, 0
9, 24308, Note_on_c, 0, 81, 0
9, 24319, Note_on_c, 0, 52, 0
9, 24320, Note_on_c, 0, 63, 0
9, 24324, Note_on_c, 0, 58, 0
9, 24343, Note_on_c, 0, 80, 64
9, 24343, Note_on_c, 0, 58, 65
9, 24343, Note_on_c, 0, 63, 69
9, 24343, Note_on_c, 0, 72, 75
9, 24344, Note_on_c, 0, 84, 77
9, 24344, Note_on_c, 0, 52, 73
9, 24345, Control_c, 0, 64, 0
9, 24345, Note_on_c, 0, 78, 42
9, 24360, Note_on_c, 0, 78, 0
9, 24360, Control_c, 0, 64, 127
9, 24363, Note_on_c, 0, 63, 0
9, 24364, Note_on_c, 0, 84, 0
9, 24365, Note_on_c, 0, 80, 0
9, 24368, Note_on_c, 0, 72, 0
9, 24374, Note_on_c, 0, 52, 0
9, 24383, Note_on_c, 0, 58, 0
9, 24403, Note_on_c, 0, 66, 74
9, 24404, Note_on_c, 0, 63, 74
9, 24404, Note_on_c, 0, 78, 46
9, 24404, Note_on_c, 0, 75, 63
9, 24404, Note_on_c, 0, 58, 65
9, 24405, Note_on_c, 0, 52, 73
9, 24409, Note_on_c, 0, 79, 50
9, 24410, Note_on_c, 0, 66, 0
9, 24410, Control_c, 0, 64, 0
9, 24414, Note_on_c, 0, 67, 37
9, 24418, Note_on_c, 0, 78, 0
9, 24427, Control_c, 0, 64, 127
9, 24440, Note_on_c, 0, 67, 0
9, 24440, Note_on_c, 0, 77, 1
9, 24443, Note_on_c, 0, 52, 0
9, 24447, Note_on_c, 0, 79, 0
9, 24448, Note_on_c, 0, 75, 0
9, 24448, Note_on_c, 0, 63, 0
9, 24449, Note_on_c, 0, 58, 0
9, 24456, Note_on_c, 0, 77, 0
9, 24462, Note_on_c, 0, 79, 71
9, 24464, Note_on_c, 0, 68, 71
9, 24464, Note_on_c, 0, 63, 56
9, 24465, Note_on_c, 0, 59, 66
9, 24465, Note_on_c, 0, 53, 55
9, 24465, Note_on_c, 0, 76, 54
9, 24466, Note_on_c, 0, 77, 33
9, 24466, Note_on_c, 0, 56, 46
9, 24468, Control_c, 0, 64, 0
9, 24488, Control_c, 0, 64, 127
9, 24508, Note_on_c, 0, 59, 0
9, 24514, Note_on_c, 0, 76, 0
9, 24525, Note_on_c, 0, 59, 34
9, 24526, Note_on_c, 0, 63, 0
9, 24526, Note_on_c, 0, 68, 0
9, 24527, Note_on_c, 0, 79, 0
9, 24532, Note_on_c, 0, 77, 0
9, 24538, Control_c, 0, 64, 0
9, 24538, Note_on_c, 0, 77, 44
9, 24539, Note_on_c, 0, 68, 71
9, 24539, Note_on_c, 0, 63, 56
9, 24546, Note_on_c, 0, 59, 0
9, 24552, Control_c, 0, 64, 127
9, 24572, Note_on_c, 0, 68, 0
9, 24572, Note_on_c, 0, 63, 0
9, 24581, Note_on_c, 0, 77, 0
9, 24581, Note_on_c, 0, 68, 46
9, 24582, Note_on_c, 0, 63, 47
9, 24582, Note_on_c, 0, 71, 68
9, 24584, Note_on_c, 0, 59, 36
9, 24589, Control_c, 0, 64, 0
9, 24601, Note_on_c, 0, 59, 0
9, 24601, Control_c, 0, 64, 127
9, 24614, Note_on_c, 0, 53, 0
9, 24624, Note_on_c, 0, 56, 0
9, 24633, Note_on_c, 0, 71, 0
9, 24634, Note_on_c, 0, 63, 0
9, 24636, Note_on_c, 0, 68, 0
9, 24644, Note_on_c, 0, 53, 62
9, 24682, Note_on_c, 0, 53, 0
9, 24700, Note_on_c, 0, 73, 82
9, 24702, Note_on_c, 0, 66, 77
9, 24702, Note_on_c, 0, 61, 76
9, 24703, Note_on_c, 0, 56, 71
9, 24703, Note_on_c, 0, 70, 55
9, 24705, Note_on_c, 0, 62, 73
9, 24707, Control_c, 0, 64, 0
9, 24729, Control_c, 0, 64, 127
9, 24748, Note_on_c, 0, 56, 0
9, 24757, Note_on_c, 0, 62, 0
9, 24759, Note_on_c, 0, 61, 0
9, 24760, Note_on_c, 0, 66, 0
9, 24761, Note_on_c, 0, 70, 0
9, 24763, Note_on_c, 0, 56, 49
9, 24764, Note_on_c, 0, 73, 0
9, 24775, Note_on_c, 0, 56, 0
9, 24776, Control_c, 0, 64, 0
9, 24780, Note_on_c, 0, 73, 60
9, 24780, Note_on_c, 0, 61, 62
9, 24781, Note_on_c, 0, 70, 55
9, 24781, Note_on_c, 0, 66, 58
9, 24783, Note_on_c, 0, 62, 66
9, 24783, Note_on_c, 0, 56, 42
9, 24787, Control_c, 0, 64, 127
9, 24806, Note_on_c, 0, 66, 0
9, 24807, Note_on_c, 0, 62, 0
9, 24811, Note_on_c, 0, 61, 0
9, 24811, Note_on_c, 0, 73, 0
9, 24815, Note_on_c, 0, 70, 0
9, 24816, Note_on_c, 0, 56, 0
9, 24823, Note_on_c, 0, 66, 62
9, 24823, Note_on_c, 0, 70, 59
9, 24823, Note_on_c, 0, 61, 46
9, 24824, Note_on_c, 0, 56, 57
9, 24828, Control_c, 0, 64, 0
9, 24839, Control_c, 0, 64, 127
9, 24840, Note_on_c, 0, 61, 0
9, 24845, Note_on_c, 0, 56, 0
9, 24847, Note_on_c, 0, 66, 0
9, 24850, Note_on_c, 0, 70, 0
9, 24892, Control_c, 0, 64, 0
9, 24897, Note_on_c, 0, 78, 62
9, 24897, Note_on_c, 0, 66, 67
9, 24898, Note_on_c, 0, 73, 60
9, 24901, Control_c, 0, 64, 127
9, 24901, Note_on_c, 0, 56, 27
9, 24912, Note_on_c, 0, 56, 0
9, 24924, Note_on_c, 0, 66, 0
9, 24925, Note_on_c, 0, 73, 0
9, 24926, Note_on_c, 0, 78, 0
9, 24937, Note_on_c, 0, 62, 39
9, 24939, Note_on_c, 0, 79, 62
9, 24940, Note_on_c, 0, 60, 32
9, 24940, Note_on_c, 0, 67, 56
9, 24941, Note_on_c, 0, 74, 55
9, 24942, Control_c, 0, 64, 0
9, 24944, Note_on_c, 0, 55, 33
9, 24959, Control_c, 0, 64, 127
9, 24978, Note_on_c, 0, 55, 0
9, 24980, Note_on_c, 0, 60, 0
9, 24981, Note_on_c, 0, 67, 0
9, 24983, Note_on_c, 0, 62, 0
9, 24983, Note_on_c, 0, 79, 0
9, 24983, Note_on_c, 0, 74, 0
9, 24999, Note_on_c, 0, 62, 40
9, 25000, Note_on_c, 0, 60, 37
9, 25000, Note_on_c, 0, 79, 58
9, 25001, Note_on_c, 0, 67, 46
9, 25001, Note_on_c, 0, 65, 42
9, 25002, Note_on_c, 0, 74, 65
9, 25002, Note_on_c, 0, 55, 33
9, 25005, Note_on_c, 0, 65, 0
9, 25009, Note_on_c, 0, 55, 0
9, 25010, Note_on_c, 0, 67, 0
9, 25010, Note_on_c, 0, 60, 0
9, 25011, Note_on_c, 0, 62, 0
9, 25013, Note_on_c, 0, 74, 0
9, 25013, Note_on_c, 0, 79, 0
9, 25025, Note_on_c, 0, 62, 32
9, 25026, Note_on_c, 0, 79, 44
9, 25027, Note_on_c, 0, 67, 45
9, 25027, Note_on_c, 0, 74, 36
9, 25028, Note_on_c, 0, 65, 27
9, 25028, Note_on_c, 0, 60, 29
9, 25032, Note_on_c, 0, 65, 0
9, 25033, Note_on_c, 0, 67, 0
9, 25033, Note_on_c, 0, 60, 0
9, 25034, Note_on_c, 0, 74, 0
9, 25035, Note_on_c, 0, 79, 0
9, 25035, Note_on_c, 0, 62, 0
9, 25062, Note_on_c, 0, 62, 66
9, 25062, Note_on_c, 0, 79, 64
9, 25063, Note_on_c, 0, 60, 57
9, 25063, Note_on_c, 0, 74, 72
9, 25064, Note_on_c, 0, 67, 57
9, 25064, Note_on_c, 0, 65, 54
9, 25067, Note_on_c, 0, 60, 0
9, 25068, Note_on_c, 0, 65, 0
9, 25069, Note_on_c, 0, 67, 0
9, 25071, Note_on_c, 0, 62, 0
9, 25071, Note_on_c, 0, 79, 0
9, 25073, Note_on_c, 0, 74, 0
9, 25082, Control_c, 0, 64, 0
9, 25089, Note_on_c, 0, 62, 60
9, 25089, Note_on_c, 0, 65, 60
9, 25089, Note_on_c, 0, 60, 47
9, 25091, Note_on_c, 0, 80, 46
9, 25091, Note_on_c, 0, 75, 45
9, 25092, Note_on_c, 0, 68, 30
9, 25093, Note_on_c, 0, 65, 0
9, 25094, Note_on_c, 0, 60, 0
9, 25096, Note_on_c, 0, 75, 0
9, 25096, Note_on_c, 0, 68, 0
9, 25097, Note_on_c, 0, 62, 0
9, 25099, Note_on_c, 0, 80, 0
9, 25100, Control_c, 0, 64, 127
9, 25126, Control_c, 0, 64, 0
9, 25127, Note_on_c, 0, 82, 77
9, 25128, Note_on_c, 0, 70, 72
9, 25128, Note_on_c, 0, 75, 74
9, 25128, Note_on_c, 0, 62, 64
9, 25129, Note_on_c, 0, 60, 58
9, 25129, Note_on_c, 0, 55, 64
9, 25129, Note_on_c, 0, 65, 64
9, 25137, Note_on_c, 0, 70, 0
9, 25138, Note_on_c, 0, 65, 0
9, 25139, Note_on_c, 0, 62, 0
9, 25140, Note_on_c, 0, 75, 0
9, 25140, Control_c, 0, 64, 127
9, 25141, Note_on_c, 0, 55, 0
9, 25144, Note_on_c, 0, 60, 0
9, 25145, Note_on_c, 0, 82, 0
9, 25182, Note_on_c, 0, 61, 80
9, 25183, Note_on_c, 0, 89, 91
9, 25183, Note_on_c, 0, 77, 96
9, 25183, Note_on_c, 0, 84, 94
9, 25183, Note_on_c, 0, 65, 87
9, 25183, Note_on_c, 0, 56, 77
9, 25183, Note_on_c, 0, 60, 77
9, 25184, Control_c, 0, 64, 0
9, 25201, Control_c, 0, 64, 127
9, 25242, Note_on_c, 0, 77, 0
9, 25243, Note_on_c, 0, 65, 0
9, 25243, Note_on_c, 0, 56, 0
9, 25244, Note_on_c, 0, 60, 0
9, 25244, Note_on_c, 0, 89, 0
9, 25245, Note_on_c, 0, 61, 0
9, 25247, Note_on_c, 0, 84, 0
9, 25256, Control_c, 0, 64, 0
9, 25259, Note_on_c, 0, 65, 65
9, 25260, Note_on_c, 0, 89, 73
9, 25260, Note_on_c, 0, 61, 57
9, 25260, Note_on_c, 0, 77, 60
9, 25261, Note_on_c, 0, 84, 70
9, 25261, Note_on_c, 0, 60, 61
9, 25262, Note_on_c, 0, 56, 49
9, 25267, Control_c, 0, 64, 127
9, 25282, Note_on_c, 0, 84, 0
9, 25284, Note_on_c, 0, 89, 0
9, 25286, Note_on_c, 0, 77, 0
9, 25287, Note_on_c, 0, 65, 0
9, 25287, Note_on_c, 0, 60, 0
9, 25295, Note_on_c, 0, 61, 0
9, 25296, Note_on_c, 0, 56, 0
9, 25302, Note_on_c, 0, 77, 72
9, 25302, Note_on_c, 0, 89, 76
9, 25303, Note_on_c, 0, 85, 62
9, 25303, Note_on_c, 0, 61, 64
9, 25303, Note_on_c, 0, 83, 72
9, 25304, Note_on_c, 0, 64, 67
9, 25304, Note_on_c, 0, 55, 75
9, 25306, Control_c, 0, 64, 0
9, 25321, Control_c, 0, 64, 127
9, 25336, Note_on_c, 0, 83, 0
9, 25339, Note_on_c, 0, 77, 0
9, 25340, Note_on_c, 0, 55, 0
9, 25341, Note_on_c, 0, 64, 0
9, 25341, Note_on_c, 0, 85, 0
9, 25342, Note_on_c, 0, 89, 0
9, 25344, Note_on_c, 0, 61, 0
9, 25359, Note_on_c, 0, 61, 71
9, 25360, Note_on_c, 0, 85, 67
9, 25360, Note_on_c, 0, 89, 71
9, 25361, Note_on_c, 0, 77, 71
9, 25361, Note_on_c, 0, 83, 75
9, 25361, Note_on_c, 0, 55, 77
9, 25361, Note_on_c, 0, 64, 73
9, 25366, Control_c, 0, 64, 0
9, 25375, Control_c, 0, 64, 127
9, 25378, Note_on_c, 0, 55, 0
9, 25379, Note_on_c, 0, 64, 0
9, 25382, Note_on_c, 0, 83, 0
9, 25383, Note_on_c, 0, 77, 0
9, 25385, Note_on_c, 0, 61, 0
9, 25389, Note_on_c, 0, 85, 0
9, 25402, Note_on_c, 0, 89, 0
9, 25418, Note_on_c, 0, 58, 60
9, 25418, Note_on_c, 0, 60, 76
9, 25418, Note_on_c, 0, 63, 80
9, 25419, Note_on_c, 0, 89, 81
9, 25419, Note_on_c, 0, 53, 71
9, 25419, Note_on_c, 0, 83, 91
9, 25420, Note_on_c, 0, 77, 85
9, 25424, Control_c, 0, 64, 0
9, 25440, Control_c, 0, 64, 127
9, 25486, Note_on_c, 0, 89, 0
9, 25493, Note_on_c, 0, 83, 0
9, 25494, Note_on_c, 0, 77, 0
9, 25496, Note_on_c, 0, 63, 0
9, 25496, Note_on_c, 0, 53, 0
9, 25524, Note_on_c, 0, 58, 0
9, 25526, Note_on_c, 0, 60, 0
9, 25553, Note_on_c, 0, 80, 53
9, 25554, Control_c, 0, 64, 0
9, 25555, Note_on_c, 0, 63, 46
9, 25555, Note_on_c, 0, 68, 43
9, 25555, Note_on_c, 0, 75, 56
9, 25556, Note_on_c, 0, 60, 47
9, 25556, Note_on_c, 0, 53, 37
9, 25557, Note_on_c, 0, 58, 37
9, 25572, Control_c, 0, 64, 127
9, 25585, Note_on_c, 0, 63, 0
9, 25587, Note_on_c, 0, 60, 0
9, 25587, Note_on_c, 0, 80, 0
9, 25587, Note_on_c, 0, 53, 0
9, 25588, Note_on_c, 0, 68, 0
9, 25588, Note_on_c, 0, 58, 0
9, 25589, Note_on_c, 0, 75, 0
9, 25616, Note_on_c, 0, 58, 25
9, 25617, Note_on_c, 0, 53, 38
9, 25622, Note_on_c, 0, 58, 0
9, 25633, Note_on_c, 0, 53, 0
9, 25656, Note_on_c, 0, 55, 24
9, 25659, Note_on_c, 0, 56, 47
9, 25663, Note_on_c, 0, 55, 0
9, 25675, Note_on_c, 0, 57, 53
9, 25677, Note_on_c, 0, 56, 0
9, 25678, Note_on_c, 0, 63, 74
9, 25679, Note_on_c, 0, 57, 0
9, 25679, Note_on_c, 0, 70, 74
9, 25680, Note_on_c, 0, 59, 73
9, 25680, Note_on_c, 0, 65, 65
9, 25680, Note_on_c, 0, 58, 78
9, 25684, Control_c, 0, 64, 0
9, 25708, Control_c, 0, 64, 127
9, 25727, Control_c, 0, 64, 0
9, 25734, Control_c, 0, 64, 127
9, 25755, Note_on_c, 0, 58, 0
9, 25764, Note_on_c, 0, 59, 0
9, 25769, Note_on_c, 0, 65, 0
9, 25771, Note_on_c, 0, 70, 0
9, 25772, Note_on_c, 0, 63, 0
9, 25781, Note_on_c, 0, 68, 52
9, 25782, Note_on_c, 0, 59, 49
9, 25782, Note_on_c, 0, 62, 47
9, 25784, Note_on_c, 0, 65, 29
9, 25785, Note_on_c, 0, 56, 33
9, 25787, Note_on_c, 0, 46, 31
9, 25788, Control_c, 0, 64, 0
9, 25806, Control_c, 0, 64, 127
9, 25846, Note_on_c, 0, 59, 0
9, 25863, Note_on_c, 0, 59, 52
9, 25868, Note_on_c, 0, 65, 0
9, 25869, Note_on_c, 0, 68, 0
9, 25876, Note_on_c, 0, 46, 0
9, 25878, Note_on_c, 0, 59, 0
9, 25882, Note_on_c, 0, 56, 0
9, 25893, Note_on_c, 0, 62, 0
9, 25922, Note_on_c, 0, 63, 46
9, 25922, Note_on_c, 0, 67, 40
9, 25922, Note_on_c, 0, 58, 34
9, 25923, Note_on_c, 0, 46, 34
9, 25923, Control_c, 0, 64, 0
9, 25925, Note_on_c, 0, 55, 36
9, 25943, Control_c, 0, 64, 127
9, 25967, Note_on_c, 0, 58, 0
9, 25970, Note_on_c, 0, 67, 0
9, 25974, Note_on_c, 0, 63, 0
9, 26001, Note_on_c, 0, 46, 0
9, 26018, Note_on_c, 0, 46, 30
9, 26021, Note_on_c, 0, 55, 0
9, 26039, Note_on_c, 0, 67, 65
9, 26039, Note_on_c, 0, 55, 50
9, 26069, Note_on_c, 0, 67, 0
9, 26078, Note_on_c, 0, 70, 79
9, 26090, Note_on_c, 0, 70, 0
9, 26118, Note_on_c, 0, 75, 75
9, 26125, Note_on_c, 0, 75, 0
9, 26127, Note_on_c, 0, 55, 0
9, 26145, Note_on_c, 0, 46, 0
9, 26158, Note_on_c, 0, 56, 53
9, 26160, Note_on_c, 0, 63, 42
9, 26160, Note_on_c, 0, 65, 44
9, 26162, Note_on_c, 0, 46, 32
9, 26167, Control_c, 0, 64, 0
9, 26168, Note_on_c, 0, 60, 13
9, 26187, Control_c, 0, 64, 127
9, 26226, Note_on_c, 0, 56, 0
9, 26233, Note_on_c, 0, 60, 0
9, 26251, Note_on_c, 0, 63, 0
9, 26252, Note_on_c, 0, 65, 0
9, 26258, Note_on_c, 0, 58, 55
9, 26285, Note_on_c, 0, 58, 0
9, 26301, Note_on_c, 0, 58, 51
9, 26329, Note_on_c, 0, 58, 0
9, 26342, Note_on_c, 0, 58, 46
9, 26356, Note_on_c, 0, 58, 0
9, 26381, Note_on_c, 0, 46, 0
9, 26387, Note_on_c, 0, 67, 53
9, 26390, Note_on_c, 0, 46, 18
9, 26391, Note_on_c, 0, 58, 45
9, 26391, Note_on_c, 0, 55, 43
9, 26391, Note_on_c, 0, 62, 52
9, 26395, Control_c, 0, 64, 0
9, 26410, Control_c, 0, 64, 127
9, 26423, Note_on_c, 0, 58, 0
9, 26427, Note_on_c, 0, 46, 0
9, 26433, Note_on_c, 0, 62, 0
9, 26435, Note_on_c, 0, 67, 0
9, 26448, Note_on_c, 0, 46, 59
9, 26458, Note_on_c, 0, 46, 0
9, 26460, Note_on_c, 0, 55, 0
9, 26525, Note_on_c, 0, 79, 56
9, 26526, Note_on_c, 0, 67, 40
9, 26527, Note_on_c, 0, 60, 37
9, 26528, Note_on_c, 0, 63, 25
9, 26530, Note_on_c, 0, 67, 0
9, 26535, Note_on_c, 0, 79, 0
9, 26548, Note_on_c, 0, 63, 0
9, 26564, Note_on_c, 0, 63, 39
9, 26564, Note_on_c, 0, 70, 64
9, 26565, Note_on_c, 0, 82, 61
9, 26566, Note_on_c, 0, 67, 40
9, 26570, Note_on_c, 0, 70, 0
9, 26572, Note_on_c, 0, 82, 0
9, 26574, Note_on_c, 0, 67, 0
9, 26580, Note_on_c, 0, 60, 0
9, 26600, Note_on_c, 0, 63, 0
9, 26603, Note_on_c, 0, 87, 53
9, 26604, Note_on_c, 0, 75, 61
9, 26611, Note_on_c, 0, 87, 0
9, 26614, Note_on_c, 0, 75, 0
9, 26644, Note_on_c, 0, 68, 40
9, 26644, Note_on_c, 0, 72, 47
9, 26644, Note_on_c, 0, 79, 40
9, 26645, Note_on_c, 0, 77, 42
9, 26645, Note_on_c, 0, 60, 46
9, 26646, Control_c, 0, 64, 0
9, 26648, Note_on_c, 0, 63, 31
9, 26659, Control_c, 0, 64, 127
9, 26671, Note_on_c, 0, 72, 0
9, 26672, Note_on_c, 0, 79, 0
9, 26673, Note_on_c, 0, 77, 0
9, 26684, Note_on_c, 0, 58, 47
9, 26721, Note_on_c, 0, 63, 0
9, 26728, Note_on_c, 0, 68, 0
9, 26743, Note_on_c, 0, 68, 56
9, 26744, Note_on_c, 0, 95, 85
9, 26745, Note_on_c, 0, 83, 77
9, 26746, Note_on_c, 0, 63, 38
9, 26776, Note_on_c, 0, 68, 0
9, 26779, Note_on_c, 0, 63, 0
9, 26780, Note_on_c, 0, 83, 0
9, 26782, Note_on_c, 0, 95, 0
9, 26803, Note_on_c, 0, 94, 77
9, 26804, Note_on_c, 0, 68, 61
9, 26806, Note_on_c, 0, 63, 38
9, 26823, Note_on_c, 0, 68, 0
9, 26826, Note_on_c, 0, 94, 0
9, 26828, Note_on_c, 0, 63, 0
9, 26833, Note_on_c, 0, 60, 0
9, 26833, Note_on_c, 0, 91, 35
9, 26840, Note_on_c, 0, 58, 0
9, 26854, Note_on_c, 0, 91, 0
9, 26863, Note_on_c, 0, 92, 65
9, 26881, Note_on_c, 0, 92, 0
9, 26887, Note_on_c, 0, 94, 59
9, 26894, Control_c, 0, 64, 0
9, 26897, Control_c, 0, 64, 127
9, 26914, Note_on_c, 0, 94, 0
9, 26922, Note_on_c, 0, 91, 54
9, 26923, Note_on_c, 0, 62, 39
9, 26923, Note_on_c, 0, 63, 27
9, 26923, Note_on_c, 0, 67, 33
9, 26935, Control_c, 0, 64, 0
9, 26941, Note_on_c, 0, 91, 0
9, 26945, Control_c, 0, 64, 127
9, 26947, Note_on_c, 0, 86, 44
9, 26981, Note_on_c, 0, 67, 0
9, 26986, Note_on_c, 0, 63, 0
9, 26987, Note_on_c, 0, 62, 0
9, 26988, Note_on_c, 0, 86, 0
9, 26998, Note_on_c, 0, 63, 37
9, 27000, Note_on_c, 0, 89, 60
9, 27001, Note_on_c, 0, 67, 26
9, 27003, Note_on_c, 0, 62, 19
9, 27030, Note_on_c, 0, 67, 0
9, 27036, Note_on_c, 0, 62, 0
9, 27037, Note_on_c, 0, 89, 0
9, 27039, Note_on_c, 0, 87, 59
9, 27052, Note_on_c, 0, 63, 0
9, 27113, Note_on_c, 0, 68, 25
9, 27115, Note_on_c, 0, 59, 43
9, 27115, Note_on_c, 0, 63, 23
9, 27115, Note_on_c, 0, 83, 34
9, 27119, Control_c, 0, 64, 0
9, 27123, Note_on_c, 0, 87, 0
9, 27136, Control_c, 0, 64, 127
9, 27160, Note_on_c, 0, 83, 0
9, 27172, Note_on_c, 0, 68, 0
9, 27182, Note_on_c, 0, 63, 0
9, 27184, Note_on_c, 0, 59, 0
9, 27222, Note_on_c, 0, 56, 15
9, 27229, Note_on_c, 0, 56, 0
9, 27236, Note_on_c, 0, 58, 35
9, 27238, Note_on_c, 0, 70, 48
9, 27239, Note_on_c, 0, 63, 37
9, 27240, Note_on_c, 0, 59, 34
9, 27242, Note_on_c, 0, 65, 32
9, 27244, Control_c, 0, 64, 0
9, 27254, Note_on_c, 0, 65, 0
9, 27256, Note_on_c, 0, 63, 0
9, 27256, Note_on_c, 0, 58, 0
9, 27257, Note_on_c, 0, 59, 0
9, 27259, Note_on_c, 0, 70, 0
9, 27261, Note_on_c, 0, 56, 27
9, 27273, Note_on_c, 0, 56, 0
9, 27278, Note_on_c, 0, 58, 44
9, 27280, Note_on_c, 0, 59, 51
9, 27280, Note_on_c, 0, 70, 42
9, 27280, Note_on_c, 0, 63, 40
9, 27283, Note_on_c, 0, 65, 35
9, 27300, Control_c, 0, 64, 127
9, 27313, Note_on_c, 0, 65, 0
9, 27313, Note_on_c, 0, 59, 0
9, 27315, Note_on_c, 0, 70, 0
9, 27322, Note_on_c, 0, 59, 30
9, 27324, Note_on_c, 0, 68, 51
9, 27333, Note_on_c, 0, 59, 0
9, 27335, Note_on_c, 0, 58, 0
9, 27340, Note_on_c, 0, 63, 0
9, 27356, Note_on_c, 0, 68, 0
9, 27364, Note_on_c, 0, 70, 49
9, 27367, Note_on_c, 0, 62, 46
9, 27367, Note_on_c, 0, 55, 42
9, 27367, Note_on_c, 0, 65, 50
9, 27368, Control_c, 0, 64, 0
9, 27404, Note_on_c, 0, 46, 42
9, 27426, Control_c, 0, 64, 127
9, 27443, Note_on_c, 0, 62, 0
9, 27445, Note_on_c, 0, 65, 0
9, 27450, Note_on_c, 0, 55, 0
9, 27456, Note_on_c, 0, 70, 0
9, 27504, Note_on_c, 0, 74, 76
9, 27504, Note_on_c, 0, 67, 67
9, 27509, Note_on_c, 0, 55, 27
9, 27514, Note_on_c, 0, 67, 0
9, 27517, Note_on_c, 0, 55, 0
9, 27517, Note_on_c, 0, 74, 0
9, 27537, Control_c, 0, 64, 0
9, 27544, Note_on_c, 0, 67, 67
9, 27544, Note_on_c, 0, 55, 49
9, 27544, Note_on_c, 0, 74, 77
9, 27548, Control_c, 0, 64, 127
9, 27565, Note_on_c, 0, 46, 0
9, 27579, Note_on_c, 0, 74, 0
9, 27583, Note_on_c, 0, 67, 0
9, 27584, Note_on_c, 0, 46, 38
9, 27593, Note_on_c, 0, 55, 0
9, 27625, Note_on_c, 0, 70, 53
9, 27626, Note_on_c, 0, 63, 39
9, 27626, Note_on_c, 0, 59, 42
9, 27629, Note_on_c, 0, 65, 37
9, 27633, Note_on_c, 0, 59, 0
9, 27635, Note_on_c, 0, 63, 0
9, 27635, Note_on_c, 0, 70, 0
9, 27636, Note_on_c, 0, 65, 0
9, 27640, Note_on_c, 0, 46, 0
9, 27647, Note_on_c, 0, 46, 31
9, 27658, Control_c, 0, 64, 0
9, 27666, Note_on_c, 0, 70, 55
9, 27666, Note_on_c, 0, 59, 46
9, 27666, Note_on_c, 0, 63, 46
9, 27668, Note_on_c, 0, 65, 46
9, 27668, Note_on_c, 0, 58, 34
9, 27720, Control_c, 0, 64, 127
9, 27736, Note_on_c, 0, 58, 0
9, 27739, Note_on_c, 0, 59, 0
9, 27739, Note_on_c, 0, 65, 0
9, 27741, Note_on_c, 0, 63, 0
9, 27751, Note_on_c, 0, 70, 0
9, 27758, Note_on_c, 0, 68, 50
9, 27758, Note_on_c, 0, 59, 39
9, 27758, Note_on_c, 0, 58, 34
9, 27758, Note_on_c, 0, 63, 42
9, 27766, Control_c, 0, 64, 0
9, 27776, Control_c, 0, 64, 127
9, 27784, Note_on_c, 0, 46, 0
9, 27822, Note_on_c, 0, 46, 37
9, 27826, Note_on_c, 0, 59, 0
9, 27827, Note_on_c, 0, 58, 0
9, 27831, Note_on_c, 0, 68, 0
9, 27832, Note_on_c, 0, 63, 0
9, 27834, Note_on_c, 0, 46, 0
9, 27843, Note_on_c, 0, 46, 26
9, 27844, Note_on_c, 0, 55, 47
9, 27844, Note_on_c, 0, 62, 39
9, 27845, Control_c, 0, 64, 0
9, 27845, Note_on_c, 0, 67, 38
9, 27866, Control_c, 0, 64, 127
9, 27886, Note_on_c, 0, 58, 39
9, 27888, Note_on_c, 0, 62, 0
9, 27889, Note_on_c, 0, 67, 0
9, 27893, Note_on_c, 0, 58, 0
9, 27924, Note_on_c, 0, 65, 29
9, 27929, Note_on_c, 0, 65, 0
9, 27941, Note_on_c, 0, 67, 58
9, 27945, Note_on_c, 0, 67, 0
9, 27960, Note_on_c, 0, 72, 62
9, 27967, Note_on_c, 0, 72, 0
9, 27977, Note_on_c, 0, 74, 58
9, 27983, Note_on_c, 0, 74, 0
9, 27995, Note_on_c, 0, 77, 51
9, 27996, Note_on_c, 0, 79, 45
9, 28000, Note_on_c, 0, 79, 0
9, 28000, Note_on_c, 0, 77, 0
9, 28010, Note_on_c, 0, 79, 55
9, 28017, Note_on_c, 0, 79, 0
9, 28028, Note_on_c, 0, 84, 91
9, 28044, Note_on_c, 0, 84, 0
9, 28057, Note_on_c, 0, 84, 79
9, 28066, Note_on_c, 0, 84, 0
9, 28080, Note_on_c, 0, 55, 0
9, 28082, Note_on_c, 0, 84, 80
9, 28083, Note_on_c, 0, 46, 0
9, 28097, Note_on_c, 0, 84, 0
9, 28103, Note_on_c, 0, 83, 58
9, 28139, Note_on_c, 0, 63, 27
9, 28142, Note_on_c, 0, 56, 21
9, 28143, Note_on_c, 0, 59, 37
9, 28146, Control_c, 0, 64, 0
9, 28175, Control_c, 0, 64, 127
9, 28212, Note_on_c, 0, 59, 0
9, 28217, Note_on_c, 0, 63, 0
9, 28241, Note_on_c, 0, 63, 28
9, 28244, Note_on_c, 0, 59, 33
9, 28248, Note_on_c, 0, 63, 0
9, 28250, Note_on_c, 0, 59, 0
9, 28273, Note_on_c, 0, 56, 0
9, 28282, Note_on_c, 0, 83, 0
9, 28284, Note_on_c, 0, 82, 60
9, 28300, Note_on_c, 0, 82, 0
9, 28302, Note_on_c, 0, 80, 42
9, 28318, Note_on_c, 0, 80, 0
9, 28323, Note_on_c, 0, 46, 32
9, 28323, Note_on_c, 0, 55, 37
9, 28324, Control_c, 0, 64, 0
9, 28324, Note_on_c, 0, 79, 44
9, 28349, Control_c, 0, 64, 127
9, 28378, Note_on_c, 0, 79, 0
9, 28389, Note_on_c, 0, 55, 0
9, 28419, Note_on_c, 0, 77, 57
9, 28422, Note_on_c, 0, 55, 33
9, 28442, Note_on_c, 0, 77, 0
9, 28449, Note_on_c, 0, 65, 33
9, 28473, Note_on_c, 0, 65, 0
9, 28486, Note_on_c, 0, 65, 39
9, 28517, Note_on_c, 0, 65, 0
9, 28521, Note_on_c, 0, 55, 0
9, 28539, Note_on_c, 0, 70, 55
9, 28545, Note_on_c, 0, 70, 0
9, 28564, Note_on_c, 0, 63, 45
9, 28565, Note_on_c, 0, 58, 28
9, 28567, Note_on_c, 0, 59, 32
9, 28572, Control_c, 0, 64, 0
9, 28595, Control_c, 0, 64, 127
9, 28596, Note_on_c, 0, 59, 0
9, 28598, Note_on_c, 0, 63, 0
9, 28603, Note_on_c, 0, 63, 35
9, 28604, Note_on_c, 0, 59, 12
9, 28650, Note_on_c, 0, 58, 0
9, 28654, Note_on_c, 0, 70, 42
9, 28655, Note_on_c, 0, 59, 0
9, 28663, Note_on_c, 0, 63, 0
9, 28678, Note_on_c, 0, 63, 48
9, 28679, Note_on_c, 0, 59, 34
9, 28680, Note_on_c, 0, 58, 23
9, 28683, Control_c, 0, 64, 0
9, 28694, Control_c, 0, 64, 127
9, 28698, Note_on_c, 0, 63, 0
9, 28703, Note_on_c, 0, 59, 0
9, 28722, Note_on_c, 0, 63, 36
9, 28724, Note_on_c, 0, 59, 24
9, 28728, Note_on_c, 0, 58, 0
9, 28754, Note_on_c, 0, 46, 0
9, 28763, Note_on_c, 0, 70, 0
9, 28768, Note_on_c, 0, 59, 0
9, 28781, Note_on_c, 0, 46, 29
9, 28782, Note_on_c, 0, 63, 0
9, 28793, Note_on_c, 0, 46, 0
9, 28804, Note_on_c, 0, 58, 36
9, 28806, Note_on_c, 0, 67, 29
9, 28807, Control_c, 0, 64, 0
9, 28809, Note_on_c, 0, 62, 32
9, 28809, Note_on_c, 0, 46, 21
9, 28811, Note_on_c, 0, 55, 25
9, 28831, Control_c, 0, 64, 127
9, 28857, Note_on_c, 0, 62, 0
9, 28858, Note_on_c, 0, 58, 0
9, 28860, Note_on_c, 0, 67, 0
9, 28904, Note_on_c, 0, 55, 0
9, 28958, Note_on_c, 0, 94, 39
9, 28961, Note_on_c, 0, 82, 28
9, 28973, Note_on_c, 0, 58, 1
9, 29004, Note_on_c, 0, 46, 0
9, 29007, Note_on_c, 0, 82, 0
9, 29012, Note_on_c, 0, 94, 0
9, 29013, Note_on_c, 0, 58, 0
9, 29141, Note_on_c, 0, 94, 27
9, 29143, Note_on_c, 0, 82, 23
9, 29154, Note_on_c, 0, 82, 0
9, 29154, Note_on_c, 0, 94, 0
9, 29201, Note_on_c, 0, 95, 30
9, 29203, Note_on_c, 0, 59, 30
9, 29218, Note_on_c, 0, 95, 0
9, 29218, Control_c, 0, 64, 0
9, 29222, Note_on_c, 0, 59, 0
9, 29226, Note_on_c, 0, 94, 33
9, 29240, Note_on_c, 0, 58, 1
9, 29257, Note_on_c, 0, 94, 0
9, 29263, Note_on_c, 0, 58, 0
9, 29269, Note_on_c, 0, 92, 19
9, 29271, Note_on_c, 0, 56, 18
9, 29276, Note_on_c, 0, 92, 0
9, 29287, Note_on_c, 0, 56, 0
9, 29290, Note_on_c, 0, 94, 23
9, 29291, Note_on_c, 0, 58, 25
9, 29542, Note_on_c, 0, 94, 0
9, 29614, Note_on_c, 0, 58, 0
9, 29614, End_track
0, 0, End_of_file
