0, 0, Header, 1, 2, 384
1, 0, Start_track
1, 0, Title_t, "Sophisticated Lady"
1, 0, Text_t, "Improvised solo piano - dougmck@tpg.com.au\012"
1, 0, Time_signature, 4, 2, 24, 8
1, 0, Key_signature, -4, "major"
1, 0, Tempo, 500000
1, 0, Sequencer_specific, 21, 67, 115, 10, 0, 5, 75, 79, 79, 79, 79, 79, 79, 79, 79, 79, 79, 79, 79, 79, 79, 79
1, 0, Sequencer_specific, 6, 67, 115, 10, 0, 4, 1
1, 0, Sequencer_specific, 9, 67, 123, 0, 88, 70, 48, 50, 0, 0
1, 1536, Marker_t, "On Bbm an arpeggio of perfect 4ths C,F,Bb"
1, 4000, Marker_t, "LH and RH in Unison - 2 octaves apart"
1, 6322, Marker_t, "Descending dominant chords - top note on each slips up a tone"
1, 11350, Marker_t, "arpeggiate chord down the keyboard not up!"
1, 19878, Marker_t, "Bb Mixolydian scale - begins on 3rd (D) ends on 5th (F) a strong target note"
1, 21644, Marker_t, "In this passage, RH plays even staccato notes from Bbm7/Eb7 scale - no pedal "
1, 32256, Marker_t, "On F7(b9) run- LH plays black notes, RH plays white"
1, 39178, Marker_t, "This time on descending dominants, an internal moving voice"
1, 52224, Marker_t, "More lightly played staccato  with RH in treble"
1, 56832, Marker_t, "On Cm7, chord tones are each approached diatonically  by lower neighbours"
1, 68658, Marker_t, "Bridge starts here"
1, 69898, Marker_t, "The main notes of a G triad (D,B,G) are targetted in turn in this phrase "
1, 75340, Marker_t, "Phrase rises in semitones with appropriate chords below   - notice crescendo "
1, 88342, Marker_t, "Each melody note is approached by a chromatic scale"
1, 90098, Marker_t, "Same thing again"
1, 112128, Marker_t, "LH again plays black  RH plays white"
1, 118272, Marker_t, "LH plays arpeggio up Root 5th 10th  then down on the next dominant chord "
1, 136712, Marker_t, "Final chord -  G/Ab"
1, 138474, Marker_t, "This chord takes whole/half diminished scale staring on Ab"
1, 141096, Marker_t, "Resolves to Ab"
1, 141096, End_track
2, 0, Start_track
2, 0, Title_t, "Piano"
2, 0, Control_c, 0, 7, 98
2, 0, Control_c, 0, 10, 61
2, 0, Control_c, 0, 91, 34
2, 0, Control_c, 0, 93, 0
2, 0, Control_c, 0, 11, 127
2, 0, Control_c, 0, 94, 0
2, 0, Control_c, 0, 101, 0
2, 1, Control_c, 0, 100, 1
2, 2, Control_c, 0, 6, 64
2, 3, Control_c, 0, 38, 0
2, 3, Control_c, 0, 74, 53
2, 768, Note_on_c, 0, 78, 63
2, 868, Note_on_c, 0, 78, 0
2, 908, Note_on_c, 0, 77, 60
2, 920, Note_on_c, 0, 46, 48
2, 964, Control_c, 0, 64, 127
2, 1276, Note_on_c, 0, 46, 0
2, 1304, Note_on_c, 0, 57, 48
2, 1524, Note_on_c, 0, 57, 0
2, 1552, Note_on_c, 0, 58, 46
2, 1568, Note_on_c, 0, 77, 0
2, 1704, Note_on_c, 0, 60, 61
2, 1800, Note_on_c, 0, 65, 59
2, 1844, Note_on_c, 0, 65, 0
2, 1888, Note_on_c, 0, 70, 54
2, 1920, Note_on_c, 0, 70, 0
2, 1988, Note_on_c, 0, 72, 61
2, 2040, Note_on_c, 0, 72, 0
2, 2096, Note_on_c, 0, 77, 70
2, 2172, Note_on_c, 0, 77, 0
2, 2192, Note_on_c, 0, 82, 71
2, 2288, Note_on_c, 0, 82, 0
2, 2304, Note_on_c, 0, 77, 55
2, 2332, Note_on_c, 0, 77, 0
2, 2516, Note_on_c, 0, 84, 50
2, 2596, Note_on_c, 0, 84, 0
2, 2620, Note_on_c, 0, 89, 54
2, 2692, Note_on_c, 0, 89, 0
2, 2712, Note_on_c, 0, 94, 55
2, 2800, Note_on_c, 0, 94, 0
2, 2840, Note_on_c, 0, 96, 73
2, 2916, Note_on_c, 0, 96, 0
2, 2960, Note_on_c, 0, 94, 70
2, 3064, Note_on_c, 0, 94, 0
2, 3112, Note_on_c, 0, 89, 57
2, 3204, Note_on_c, 0, 89, 0
2, 3292, Note_on_c, 0, 84, 52
2, 3372, Note_on_c, 0, 84, 0
2, 3716, Note_on_c, 0, 60, 0
2, 3848, Note_on_c, 0, 58, 0
2, 4172, Note_on_c, 0, 77, 40
2, 4200, Note_on_c, 0, 53, 54
2, 4204, Note_on_c, 0, 78, 70
2, 4212, Note_on_c, 0, 77, 0
2, 4224, Note_on_c, 0, 79, 61
2, 4228, Note_on_c, 0, 53, 0
2, 4252, Note_on_c, 0, 79, 0
2, 4252, Note_on_c, 0, 55, 43
2, 4276, Control_c, 0, 64, 0
2, 4292, Note_on_c, 0, 78, 0
2, 4296, Note_on_c, 0, 55, 0
2, 4308, Note_on_c, 0, 80, 76
2, 4312, Note_on_c, 0, 56, 70
2, 4452, Control_c, 0, 64, 127
2, 4476, Note_on_c, 0, 80, 0
2, 4520, Note_on_c, 0, 56, 0
2, 4740, Note_on_c, 0, 84, 64
2, 4772, Note_on_c, 0, 60, 42
2, 4904, Note_on_c, 0, 84, 0
2, 5416, Note_on_c, 0, 87, 59
2, 5420, Note_on_c, 0, 63, 44
2, 5436, Control_c, 0, 64, 0
2, 5560, Control_c, 0, 64, 127
2, 5716, Note_on_c, 0, 60, 0
2, 5788, Note_on_c, 0, 63, 0
2, 5848, Note_on_c, 0, 87, 0
2, 6556, Control_c, 0, 64, 0
2, 6576, Note_on_c, 0, 70, 51
2, 6588, Note_on_c, 0, 78, 68
2, 6592, Note_on_c, 0, 74, 64
2, 6612, Note_on_c, 0, 60, 35
2, 6612, Note_on_c, 0, 64, 46
2, 6664, Control_c, 0, 64, 127
2, 6708, Note_on_c, 0, 64, 0
2, 6780, Note_on_c, 0, 70, 0
2, 6784, Note_on_c, 0, 60, 0
2, 6816, Note_on_c, 0, 74, 0
2, 7024, Note_on_c, 0, 78, 0
2, 7672, Note_on_c, 0, 80, 60
2, 7908, Note_on_c, 0, 80, 0
2, 8236, Control_c, 0, 64, 0
2, 8244, Note_on_c, 0, 74, 53
2, 8256, Note_on_c, 0, 77, 56
2, 8260, Note_on_c, 0, 69, 38
2, 8280, Note_on_c, 0, 59, 42
2, 8284, Note_on_c, 0, 63, 47
2, 8384, Control_c, 0, 64, 127
2, 8464, Note_on_c, 0, 77, 0
2, 8484, Note_on_c, 0, 69, 0
2, 8488, Note_on_c, 0, 74, 0
2, 8492, Note_on_c, 0, 59, 0
2, 8492, Note_on_c, 0, 79, 50
2, 8576, Note_on_c, 0, 79, 0
2, 8580, Note_on_c, 0, 63, 0
2, 8644, Control_c, 0, 64, 0
2, 8660, Note_on_c, 0, 72, 46
2, 8664, Note_on_c, 0, 58, 48
2, 8668, Note_on_c, 0, 68, 49
2, 8700, Note_on_c, 0, 76, 40
2, 8700, Note_on_c, 0, 62, 44
2, 8768, Control_c, 0, 64, 127
2, 8808, Note_on_c, 0, 62, 0
2, 8844, Note_on_c, 0, 78, 62
2, 8852, Note_on_c, 0, 76, 0
2, 8856, Note_on_c, 0, 68, 0
2, 8900, Note_on_c, 0, 72, 0
2, 8900, Note_on_c, 0, 58, 0
2, 8972, Note_on_c, 0, 78, 0
2, 9036, Control_c, 0, 64, 0
2, 9056, Note_on_c, 0, 75, 50
2, 9056, Note_on_c, 0, 71, 50
2, 9068, Note_on_c, 0, 67, 36
2, 9076, Note_on_c, 0, 61, 47
2, 9080, Note_on_c, 0, 57, 39
2, 9204, Control_c, 0, 64, 127
2, 9780, Note_on_c, 0, 75, 0
2, 9816, Note_on_c, 0, 71, 0
2, 9868, Note_on_c, 0, 67, 0
2, 10408, Note_on_c, 0, 74, 55
2, 10464, Note_on_c, 0, 73, 60
2, 10468, Note_on_c, 0, 74, 0
2, 10488, Note_on_c, 0, 61, 0
2, 10496, Note_on_c, 0, 57, 0
2, 10524, Control_c, 0, 64, 0
2, 10560, Note_on_c, 0, 73, 0
2, 10572, Note_on_c, 0, 72, 70
2, 10592, Control_c, 0, 64, 127
2, 10928, Note_on_c, 0, 72, 0
2, 11376, Note_on_c, 0, 67, 53
2, 11424, Note_on_c, 0, 65, 38
2, 11456, Note_on_c, 0, 62, 56
2, 11480, Note_on_c, 0, 67, 0
2, 11504, Note_on_c, 0, 59, 55
2, 11548, Note_on_c, 0, 65, 0
2, 11608, Note_on_c, 0, 55, 59
2, 11624, Control_c, 0, 64, 0
2, 11684, Note_on_c, 0, 44, 41
2, 11852, Control_c, 0, 64, 127
2, 12652, Note_on_c, 0, 52, 45
2, 12656, Note_on_c, 0, 55, 0
2, 12676, Note_on_c, 0, 59, 0
2, 12900, Note_on_c, 0, 62, 0
2, 13052, Note_on_c, 0, 52, 0
2, 13112, Note_on_c, 0, 60, 54
2, 13112, Note_on_c, 0, 55, 38
2, 13124, Note_on_c, 0, 53, 38
2, 13136, Control_c, 0, 64, 0
2, 13304, Control_c, 0, 64, 127
2, 13532, Note_on_c, 0, 55, 0
2, 13664, Note_on_c, 0, 60, 0
2, 13752, Note_on_c, 0, 53, 0
2, 14424, Control_c, 0, 64, 0
2, 14488, Note_on_c, 0, 65, 60
2, 14496, Note_on_c, 0, 55, 58
2, 14496, Note_on_c, 0, 60, 67
2, 14504, Note_on_c, 0, 50, 49
2, 14548, Control_c, 0, 64, 127
2, 14580, Note_on_c, 0, 55, 0
2, 14596, Note_on_c, 0, 65, 0
2, 14628, Note_on_c, 0, 60, 0
2, 14800, Control_c, 0, 64, 0
2, 14832, Note_on_c, 0, 68, 70
2, 14840, Note_on_c, 0, 60, 58
2, 14844, Note_on_c, 0, 63, 70
2, 14852, Note_on_c, 0, 50, 0
2, 14864, Note_on_c, 0, 53, 59
2, 14884, Control_c, 0, 64, 127
2, 14888, Note_on_c, 0, 44, 0
2, 14964, Note_on_c, 0, 60, 0
2, 14988, Note_on_c, 0, 63, 0
2, 14988, Note_on_c, 0, 68, 0
2, 15176, Note_on_c, 0, 72, 76
2, 15180, Note_on_c, 0, 65, 75
2, 15180, Control_c, 0, 64, 0
2, 15188, Note_on_c, 0, 56, 67
2, 15192, Note_on_c, 0, 53, 0
2, 15196, Note_on_c, 0, 60, 67
2, 15280, Control_c, 0, 64, 127
2, 15316, Note_on_c, 0, 60, 0
2, 15360, Note_on_c, 0, 65, 0
2, 15400, Note_on_c, 0, 72, 0
2, 15856, Note_on_c, 0, 56, 0
2, 16292, Note_on_c, 0, 75, 67
2, 16308, Note_on_c, 0, 69, 62
2, 16308, Control_c, 0, 64, 0
2, 16324, Note_on_c, 0, 60, 42
2, 16336, Note_on_c, 0, 50, 43
2, 16568, Control_c, 0, 64, 127
2, 16576, Note_on_c, 0, 66, 64
2, 16584, Note_on_c, 0, 60, 0
2, 16636, Note_on_c, 0, 57, 37
2, 16648, Note_on_c, 0, 50, 0
2, 16680, Note_on_c, 0, 57, 0
2, 16720, Note_on_c, 0, 69, 0
2, 16772, Note_on_c, 0, 66, 0
2, 16820, Note_on_c, 0, 75, 0
2, 16880, Note_on_c, 0, 65, 50
2, 16892, Control_c, 0, 64, 0
2, 16892, Note_on_c, 0, 68, 64
2, 16896, Note_on_c, 0, 64, 48
2, 17012, Control_c, 0, 64, 127
2, 17136, Note_on_c, 0, 64, 0
2, 17196, Control_c, 0, 64, 0
2, 17200, Note_on_c, 0, 74, 81
2, 17232, Note_on_c, 0, 62, 54
2, 17272, Control_c, 0, 64, 127
2, 17276, Note_on_c, 0, 65, 0
2, 17356, Note_on_c, 0, 74, 0
2, 17496, Note_on_c, 0, 68, 0
2, 17556, Control_c, 0, 64, 0
2, 17564, Note_on_c, 0, 73, 57
2, 17564, Note_on_c, 0, 70, 70
2, 17568, Note_on_c, 0, 62, 0
2, 17568, Note_on_c, 0, 64, 49
2, 17576, Note_on_c, 0, 60, 53
2, 17664, Control_c, 0, 64, 127
2, 17672, Note_on_c, 0, 60, 0
2, 17896, Control_c, 0, 64, 0
2, 17904, Note_on_c, 0, 68, 62
2, 17912, Note_on_c, 0, 48, 55
2, 17940, Note_on_c, 0, 70, 0
2, 17968, Note_on_c, 0, 64, 0
2, 17992, Control_c, 0, 64, 127
2, 18088, Note_on_c, 0, 73, 0
2, 18140, Note_on_c, 0, 68, 0
2, 18272, Control_c, 0, 64, 0
2, 18280, Note_on_c, 0, 48, 0
2, 18288, Note_on_c, 0, 63, 48
2, 18292, Note_on_c, 0, 51, 47
2, 18304, Note_on_c, 0, 66, 56
2, 18308, Note_on_c, 0, 57, 43
2, 18396, Control_c, 0, 64, 127
2, 18464, Note_on_c, 0, 57, 0
2, 18472, Note_on_c, 0, 51, 0
2, 18696, Note_on_c, 0, 72, 62
2, 18708, Control_c, 0, 64, 0
2, 18708, Note_on_c, 0, 41, 51
2, 18804, Note_on_c, 0, 41, 0
2, 18804, Control_c, 0, 64, 127
2, 18936, Note_on_c, 0, 63, 0
2, 19032, Note_on_c, 0, 66, 0
2, 19044, Note_on_c, 0, 72, 0
2, 19136, Control_c, 0, 64, 0
2, 19164, Note_on_c, 0, 65, 51
2, 19172, Note_on_c, 0, 62, 47
2, 19172, Note_on_c, 0, 46, 51
2, 19196, Note_on_c, 0, 56, 27
2, 19252, Control_c, 0, 64, 127
2, 19256, Note_on_c, 0, 62, 0
2, 19296, Note_on_c, 0, 65, 0
2, 19440, Note_on_c, 0, 46, 0
2, 19480, Note_on_c, 0, 56, 0
2, 19784, Note_on_c, 0, 60, 46
2, 19844, Control_c, 0, 64, 0
2, 19852, Note_on_c, 0, 63, 56
2, 19856, Note_on_c, 0, 72, 48
2, 19916, Note_on_c, 0, 74, 64
2, 19916, Note_on_c, 0, 68, 36
2, 19928, Note_on_c, 0, 72, 0
2, 19980, Note_on_c, 0, 74, 0
2, 19988, Note_on_c, 0, 75, 56
2, 20012, Note_on_c, 0, 75, 0
2, 20064, Note_on_c, 0, 77, 62
2, 20140, Note_on_c, 0, 77, 0
2, 20152, Note_on_c, 0, 79, 60
2, 20200, Note_on_c, 0, 80, 61
2, 20224, Note_on_c, 0, 79, 0
2, 20264, Note_on_c, 0, 80, 0
2, 20292, Note_on_c, 0, 82, 37
2, 20328, Note_on_c, 0, 82, 0
2, 20376, Note_on_c, 0, 84, 30
2, 20412, Note_on_c, 0, 84, 0
2, 20444, Note_on_c, 0, 86, 40
2, 20500, Note_on_c, 0, 87, 59
2, 20524, Note_on_c, 0, 87, 0
2, 20540, Note_on_c, 0, 86, 0
2, 20560, Note_on_c, 0, 88, 40
2, 20628, Note_on_c, 0, 88, 0
2, 20640, Note_on_c, 0, 89, 70
2, 20712, Note_on_c, 0, 89, 0
2, 20780, Note_on_c, 0, 68, 0
2, 20816, Note_on_c, 0, 60, 0
2, 20832, Note_on_c, 0, 63, 0
2, 21216, Note_on_c, 0, 56, 31
2, 21480, Note_on_c, 0, 62, 42
2, 21816, Note_on_c, 0, 67, 58
2, 21876, Note_on_c, 0, 67, 0
2, 21980, Note_on_c, 0, 68, 73
2, 22056, Note_on_c, 0, 68, 0
2, 22124, Note_on_c, 0, 70, 75
2, 22196, Note_on_c, 0, 70, 0
2, 22280, Note_on_c, 0, 72, 68
2, 22360, Note_on_c, 0, 72, 0
2, 22436, Note_on_c, 0, 73, 59
2, 22476, Note_on_c, 0, 73, 0
2, 22552, Note_on_c, 0, 62, 0
2, 22580, Note_on_c, 0, 77, 65
2, 22672, Note_on_c, 0, 77, 0
2, 22748, Note_on_c, 0, 72, 44
2, 22844, Note_on_c, 0, 72, 0
2, 22908, Note_on_c, 0, 73, 70
2, 22944, Note_on_c, 0, 56, 0
2, 22992, Note_on_c, 0, 73, 0
2, 23088, Note_on_c, 0, 75, 76
2, 23212, Note_on_c, 0, 75, 0
2, 23264, Note_on_c, 0, 61, 42
2, 23276, Note_on_c, 0, 65, 30
2, 23284, Note_on_c, 0, 68, 51
2, 23316, Note_on_c, 0, 60, 28
2, 23404, Note_on_c, 0, 68, 0
2, 24076, Note_on_c, 0, 72, 62
2, 24164, Note_on_c, 0, 72, 0
2, 24224, Note_on_c, 0, 73, 90
2, 24320, Note_on_c, 0, 73, 0
2, 24368, Note_on_c, 0, 75, 92
2, 24396, Note_on_c, 0, 65, 0
2, 24468, Note_on_c, 0, 75, 0
2, 24668, Note_on_c, 0, 68, 55
2, 24764, Note_on_c, 0, 68, 0
2, 24792, Note_on_c, 0, 70, 58
2, 24852, Note_on_c, 0, 60, 0
2, 24880, Note_on_c, 0, 70, 0
2, 24908, Note_on_c, 0, 61, 0
2, 24924, Note_on_c, 0, 72, 66
2, 25016, Note_on_c, 0, 72, 0
2, 25044, Note_on_c, 0, 73, 66
2, 25136, Note_on_c, 0, 73, 0
2, 25156, Note_on_c, 0, 61, 41
2, 25168, Note_on_c, 0, 75, 61
2, 25180, Note_on_c, 0, 55, 36
2, 25196, Note_on_c, 0, 65, 10
2, 25216, Note_on_c, 0, 75, 0
2, 25408, Control_c, 0, 64, 127
2, 25416, Note_on_c, 0, 81, 78
2, 25424, Note_on_c, 0, 65, 0
2, 25520, Note_on_c, 0, 81, 0
2, 25532, Note_on_c, 0, 85, 76
2, 25572, Note_on_c, 0, 85, 0
2, 25644, Note_on_c, 0, 88, 88
2, 25676, Note_on_c, 0, 61, 0
2, 25728, Note_on_c, 0, 88, 0
2, 25764, Note_on_c, 0, 93, 97
2, 25876, Note_on_c, 0, 97, 99
2, 25912, Note_on_c, 0, 93, 0
2, 25932, Note_on_c, 0, 55, 0
2, 25996, Note_on_c, 0, 97, 0
2, 26012, Note_on_c, 0, 100, 109
2, 26108, Note_on_c, 0, 100, 0
2, 26188, Note_on_c, 0, 99, 87
2, 26228, Control_c, 0, 64, 0
2, 26308, Note_on_c, 0, 99, 0
2, 26348, Control_c, 0, 64, 127
2, 26352, Note_on_c, 0, 90, 64
2, 26580, Note_on_c, 0, 90, 0
2, 26848, Note_on_c, 0, 95, 80
2, 27032, Note_on_c, 0, 87, 55
2, 27096, Note_on_c, 0, 95, 0
2, 27136, Note_on_c, 0, 87, 0
2, 27236, Note_on_c, 0, 86, 53
2, 27388, Note_on_c, 0, 86, 0
2, 27416, Note_on_c, 0, 94, 67
2, 27516, Note_on_c, 0, 94, 0
2, 27660, Note_on_c, 0, 58, 47
2, 27688, Control_c, 0, 64, 0
2, 27696, Note_on_c, 0, 48, 41
2, 27708, Note_on_c, 0, 91, 62
2, 27896, Control_c, 0, 64, 127
2, 27936, Note_on_c, 0, 58, 0
2, 27940, Note_on_c, 0, 87, 60
2, 27964, Note_on_c, 0, 54, 38
2, 28144, Note_on_c, 0, 91, 0
2, 28148, Note_on_c, 0, 87, 0
2, 28156, Note_on_c, 0, 48, 0
2, 28168, Note_on_c, 0, 54, 0
2, 28184, Note_on_c, 0, 84, 38
2, 28192, Note_on_c, 0, 58, 46
2, 28220, Note_on_c, 0, 84, 0
2, 28288, Note_on_c, 0, 58, 0
2, 28548, Note_on_c, 0, 61, 28
2, 28780, Note_on_c, 0, 61, 0
2, 28848, Note_on_c, 0, 75, 70
2, 29088, Note_on_c, 0, 66, 65
2, 29100, Note_on_c, 0, 75, 0
2, 29196, Note_on_c, 0, 66, 0
2, 29316, Note_on_c, 0, 70, 73
2, 29520, Note_on_c, 0, 70, 0
2, 29552, Note_on_c, 0, 78, 104
2, 29748, Note_on_c, 0, 78, 0
2, 29844, Note_on_c, 0, 78, 94
2, 30004, Note_on_c, 0, 78, 0
2, 30100, Note_on_c, 0, 80, 76
2, 30280, Note_on_c, 0, 80, 0
2, 30376, Note_on_c, 0, 78, 61
2, 30668, Note_on_c, 0, 70, 45
2, 30928, Note_on_c, 0, 70, 0
2, 30980, Note_on_c, 0, 78, 0
2, 30992, Control_c, 0, 64, 0
2, 31016, Note_on_c, 0, 69, 51
2, 31032, Note_on_c, 0, 41, 47
2, 31104, Control_c, 0, 64, 127
2, 31152, Note_on_c, 0, 41, 0
2, 32132, Note_on_c, 0, 69, 0
2, 32308, Note_on_c, 0, 63, 44
2, 32584, Note_on_c, 0, 64, 41
2, 32636, Note_on_c, 0, 63, 0
2, 32704, Note_on_c, 0, 64, 0
2, 32712, Note_on_c, 0, 65, 62
2, 32804, Note_on_c, 0, 65, 0
2, 32828, Note_on_c, 0, 66, 54
2, 32836, Control_c, 0, 64, 0
2, 32864, Note_on_c, 0, 66, 0
2, 32904, Note_on_c, 0, 69, 75
2, 32992, Note_on_c, 0, 69, 0
2, 33012, Note_on_c, 0, 72, 65
2, 33076, Note_on_c, 0, 72, 0
2, 33104, Note_on_c, 0, 75, 57
2, 33132, Note_on_c, 0, 75, 0
2, 33172, Note_on_c, 0, 76, 76
2, 33252, Note_on_c, 0, 76, 0
2, 33280, Note_on_c, 0, 77, 56
2, 33308, Note_on_c, 0, 77, 0
2, 33324, Note_on_c, 0, 78, 64
2, 33364, Note_on_c, 0, 78, 0
2, 33440, Note_on_c, 0, 81, 70
2, 33500, Note_on_c, 0, 81, 0
2, 33708, Note_on_c, 0, 87, 55
2, 33732, Note_on_c, 0, 87, 0
2, 33916, Note_on_c, 0, 88, 60
2, 33956, Note_on_c, 0, 88, 0
2, 34048, Note_on_c, 0, 89, 70
2, 34104, Note_on_c, 0, 89, 0
2, 34224, Note_on_c, 0, 93, 70
2, 34248, Note_on_c, 0, 93, 0
2, 34416, Note_on_c, 0, 96, 82
2, 34496, Note_on_c, 0, 96, 0
2, 34648, Note_on_c, 0, 94, 67
2, 34760, Note_on_c, 0, 94, 0
2, 34896, Note_on_c, 0, 93, 70
2, 34944, Control_c, 0, 64, 127
2, 35076, Note_on_c, 0, 93, 0
2, 35140, Note_on_c, 0, 92, 60
2, 35320, Note_on_c, 0, 92, 0
2, 35392, Note_on_c, 0, 91, 76
2, 35580, Note_on_c, 0, 91, 0
2, 35604, Note_on_c, 0, 90, 76
2, 35744, Note_on_c, 0, 90, 0
2, 35828, Note_on_c, 0, 89, 70
2, 36000, Note_on_c, 0, 89, 0
2, 36052, Note_on_c, 0, 88, 70
2, 36272, Note_on_c, 0, 88, 0
2, 36316, Control_c, 0, 64, 0
2, 36324, Note_on_c, 0, 89, 59
2, 36336, Note_on_c, 0, 46, 46
2, 36448, Control_c, 0, 64, 127
2, 36592, Note_on_c, 0, 56, 50
2, 36608, Note_on_c, 0, 46, 0
2, 36632, Note_on_c, 0, 56, 0
2, 36852, Note_on_c, 0, 61, 50
2, 37112, Note_on_c, 0, 65, 46
2, 37388, Note_on_c, 0, 57, 59
2, 37440, Note_on_c, 0, 65, 0
2, 37440, Note_on_c, 0, 61, 0
2, 37676, Note_on_c, 0, 61, 47
2, 37680, Note_on_c, 0, 65, 46
2, 38012, Note_on_c, 0, 57, 0
2, 38024, Note_on_c, 0, 56, 56
2, 38024, Control_c, 0, 64, 0
2, 38060, Note_on_c, 0, 89, 0
2, 38156, Control_c, 0, 64, 127
2, 38332, Note_on_c, 0, 65, 0
2, 38332, Note_on_c, 0, 68, 45
2, 38428, Note_on_c, 0, 68, 0
2, 38520, Note_on_c, 0, 72, 73
2, 38648, Note_on_c, 0, 72, 0
2, 38720, Note_on_c, 0, 75, 99
2, 38872, Note_on_c, 0, 56, 0
2, 38896, Note_on_c, 0, 75, 0
2, 38952, Note_on_c, 0, 61, 0
2, 39232, Note_on_c, 0, 78, 92
2, 39232, Control_c, 0, 64, 0
2, 39248, Note_on_c, 0, 64, 46
2, 39252, Note_on_c, 0, 58, 51
2, 39252, Note_on_c, 0, 69, 76
2, 39296, Note_on_c, 0, 74, 40
2, 39436, Control_c, 0, 64, 127
2, 39912, Note_on_c, 0, 74, 0
2, 40076, Note_on_c, 0, 69, 0
2, 40212, Note_on_c, 0, 74, 77
2, 40216, Note_on_c, 0, 78, 0
2, 40396, Note_on_c, 0, 74, 0
2, 40416, Note_on_c, 0, 75, 71
2, 40504, Note_on_c, 0, 64, 0
2, 40556, Note_on_c, 0, 75, 0
2, 40612, Note_on_c, 0, 77, 62
2, 40724, Note_on_c, 0, 58, 0
2, 40804, Note_on_c, 0, 77, 0
2, 40848, Note_on_c, 0, 74, 67
2, 40848, Note_on_c, 0, 69, 49
2, 40860, Control_c, 0, 64, 0
2, 40860, Note_on_c, 0, 63, 43
2, 40872, Note_on_c, 0, 57, 48
2, 41084, Note_on_c, 0, 73, 58
2, 41096, Note_on_c, 0, 74, 0
2, 41288, Note_on_c, 0, 73, 0
2, 41308, Control_c, 0, 64, 127
2, 41312, Note_on_c, 0, 77, 1
2, 41336, Note_on_c, 0, 72, 60
2, 41556, Note_on_c, 0, 69, 0
2, 41576, Note_on_c, 0, 57, 0
2, 41604, Note_on_c, 0, 72, 0
2, 41648, Note_on_c, 0, 77, 0
2, 41652, Note_on_c, 0, 63, 0
2, 41788, Control_c, 0, 64, 0
2, 41816, Note_on_c, 0, 76, 67
2, 41820, Note_on_c, 0, 67, 50
2, 41828, Note_on_c, 0, 62, 45
2, 41832, Note_on_c, 0, 56, 44
2, 41836, Note_on_c, 0, 72, 54
2, 41980, Note_on_c, 0, 72, 0
2, 42036, Control_c, 0, 64, 127
2, 42060, Note_on_c, 0, 67, 0
2, 42072, Note_on_c, 0, 72, 48
2, 42124, Note_on_c, 0, 76, 0
2, 42312, Note_on_c, 0, 74, 62
2, 42460, Note_on_c, 0, 74, 0
2, 42496, Note_on_c, 0, 62, 0
2, 42528, Note_on_c, 0, 76, 68
2, 42568, Note_on_c, 0, 72, 0
2, 42672, Note_on_c, 0, 56, 0
2, 42680, Note_on_c, 0, 76, 0
2, 42784, Control_c, 0, 64, 0
2, 42784, Note_on_c, 0, 55, 47
2, 42784, Note_on_c, 0, 61, 41
2, 42792, Note_on_c, 0, 75, 64
2, 42792, Note_on_c, 0, 67, 38
2, 42972, Note_on_c, 0, 67, 0
2, 42976, Control_c, 0, 64, 127
2, 43044, Note_on_c, 0, 71, 51
2, 43116, Note_on_c, 0, 71, 0
2, 43176, Note_on_c, 0, 61, 0
2, 43316, Note_on_c, 0, 75, 0
2, 43344, Note_on_c, 0, 55, 0
2, 43560, Note_on_c, 0, 63, 56
2, 43764, Note_on_c, 0, 63, 0
2, 43908, Note_on_c, 0, 59, 57
2, 43916, Note_on_c, 0, 44, 46
2, 43924, Note_on_c, 0, 62, 54
2, 43936, Control_c, 0, 64, 0
2, 43984, Note_on_c, 0, 52, 35
2, 44152, Control_c, 0, 64, 127
2, 44192, Note_on_c, 0, 67, 64
2, 44216, Note_on_c, 0, 59, 0
2, 44328, Note_on_c, 0, 62, 0
2, 44388, Note_on_c, 0, 67, 0
2, 44436, Note_on_c, 0, 52, 0
2, 44484, Note_on_c, 0, 65, 49
2, 44492, Control_c, 0, 64, 0
2, 44496, Note_on_c, 0, 53, 43
2, 44504, Note_on_c, 0, 60, 54
2, 44768, Note_on_c, 0, 53, 0
2, 44796, Control_c, 0, 64, 127
2, 44856, Note_on_c, 0, 54, 73
2, 44868, Control_c, 0, 64, 0
2, 44968, Control_c, 0, 64, 127
2, 45116, Note_on_c, 0, 60, 0
2, 45152, Note_on_c, 0, 54, 0
2, 45176, Control_c, 0, 64, 0
2, 45188, Note_on_c, 0, 60, 17
2, 45204, Note_on_c, 0, 55, 69
2, 45400, Note_on_c, 0, 55, 0
2, 45456, Control_c, 0, 64, 127
2, 45492, Note_on_c, 0, 54, 65
2, 45612, Note_on_c, 0, 60, 0
2, 45700, Note_on_c, 0, 54, 0
2, 45812, Control_c, 0, 64, 0
2, 45848, Note_on_c, 0, 55, 42
2, 45848, Note_on_c, 0, 63, 48
2, 45852, Note_on_c, 0, 60, 53
2, 45852, Note_on_c, 0, 53, 55
2, 45956, Control_c, 0, 64, 127
2, 46004, Note_on_c, 0, 53, 0
2, 46236, Note_on_c, 0, 52, 58
2, 46236, Control_c, 0, 64, 0
2, 46320, Note_on_c, 0, 65, 0
2, 46332, Control_c, 0, 64, 127
2, 46348, Note_on_c, 0, 55, 0
2, 46364, Note_on_c, 0, 63, 0
2, 46380, Note_on_c, 0, 52, 0
2, 46392, Note_on_c, 0, 60, 0
2, 46456, Note_on_c, 0, 44, 0
2, 46624, Control_c, 0, 64, 0
2, 46636, Note_on_c, 0, 63, 50
2, 46636, Note_on_c, 0, 44, 51
2, 46640, Note_on_c, 0, 54, 53
2, 46648, Note_on_c, 0, 60, 60
2, 46876, Control_c, 0, 64, 127
2, 46988, Note_on_c, 0, 54, 0
2, 47032, Note_on_c, 0, 32, 64
2, 47052, Note_on_c, 0, 44, 0
2, 47060, Note_on_c, 0, 60, 0
2, 47112, Note_on_c, 0, 63, 0
2, 47116, Note_on_c, 0, 32, 0
2, 48144, Control_c, 0, 64, 0
2, 48176, Note_on_c, 0, 75, 87
2, 48184, Note_on_c, 0, 72, 80
2, 48184, Note_on_c, 0, 60, 72
2, 48184, Note_on_c, 0, 66, 86
2, 48188, Note_on_c, 0, 54, 58
2, 48196, Note_on_c, 0, 50, 57
2, 48268, Control_c, 0, 64, 127
2, 48356, Note_on_c, 0, 60, 0
2, 48360, Note_on_c, 0, 50, 0
2, 48376, Note_on_c, 0, 72, 0
2, 48420, Note_on_c, 0, 75, 0
2, 48424, Note_on_c, 0, 54, 0
2, 48432, Note_on_c, 0, 66, 0
2, 48464, Control_c, 0, 64, 0
2, 48508, Note_on_c, 0, 74, 80
2, 48512, Note_on_c, 0, 65, 76
2, 48516, Note_on_c, 0, 53, 60
2, 48516, Note_on_c, 0, 59, 60
2, 48520, Note_on_c, 0, 71, 74
2, 48536, Note_on_c, 0, 49, 48
2, 48576, Control_c, 0, 64, 127
2, 48640, Note_on_c, 0, 74, 0
2, 48672, Note_on_c, 0, 59, 0
2, 48704, Note_on_c, 0, 65, 0
2, 48708, Note_on_c, 0, 53, 0
2, 48728, Note_on_c, 0, 49, 0
2, 48748, Note_on_c, 0, 71, 0
2, 48784, Control_c, 0, 64, 0
2, 48844, Note_on_c, 0, 73, 61
2, 48844, Note_on_c, 0, 70, 61
2, 48852, Note_on_c, 0, 48, 61
2, 48860, Note_on_c, 0, 58, 53
2, 48864, Note_on_c, 0, 64, 43
2, 48880, Note_on_c, 0, 52, 45
2, 48896, Control_c, 0, 64, 127
2, 48952, Note_on_c, 0, 52, 0
2, 48988, Note_on_c, 0, 64, 0
2, 49008, Note_on_c, 0, 48, 0
2, 49032, Note_on_c, 0, 70, 0
2, 49040, Note_on_c, 0, 73, 0
2, 49040, Note_on_c, 0, 58, 0
2, 49268, Control_c, 0, 64, 0
2, 49276, Note_on_c, 0, 63, 52
2, 49280, Note_on_c, 0, 72, 58
2, 49284, Note_on_c, 0, 66, 55
2, 49296, Note_on_c, 0, 57, 50
2, 49300, Note_on_c, 0, 51, 46
2, 49304, Note_on_c, 0, 47, 50
2, 49352, Note_on_c, 0, 69, 20
2, 49464, Control_c, 0, 64, 127
2, 49632, Note_on_c, 0, 66, 0
2, 49744, Note_on_c, 0, 69, 0
2, 49748, Note_on_c, 0, 63, 0
2, 49764, Note_on_c, 0, 72, 0
2, 49768, Note_on_c, 0, 57, 0
2, 49776, Note_on_c, 0, 47, 0
2, 49908, Note_on_c, 0, 51, 0
2, 49952, Control_c, 0, 64, 0
2, 49972, Note_on_c, 0, 65, 52
2, 49988, Note_on_c, 0, 62, 43
2, 49996, Note_on_c, 0, 56, 40
2, 50000, Note_on_c, 0, 46, 47
2, 50124, Control_c, 0, 64, 127
2, 50160, Note_on_c, 0, 62, 0
2, 50172, Note_on_c, 0, 65, 0
2, 50320, Note_on_c, 0, 56, 0
2, 50340, Note_on_c, 0, 77, 47
2, 50356, Note_on_c, 0, 53, 40
2, 50376, Note_on_c, 0, 46, 0
2, 50388, Note_on_c, 0, 53, 0
2, 50596, Note_on_c, 0, 77, 0
2, 50684, Control_c, 0, 64, 0
2, 50696, Note_on_c, 0, 77, 51
2, 50728, Note_on_c, 0, 63, 47
2, 50736, Note_on_c, 0, 68, 32
2, 50744, Note_on_c, 0, 60, 29
2, 50804, Control_c, 0, 64, 127
2, 51016, Note_on_c, 0, 72, 50
2, 51180, Note_on_c, 0, 68, 0
2, 51228, Note_on_c, 0, 60, 0
2, 51240, Note_on_c, 0, 72, 0
2, 51300, Note_on_c, 0, 63, 0
2, 51300, Note_on_c, 0, 77, 0
2, 51344, Control_c, 0, 64, 0
2, 51352, Note_on_c, 0, 72, 34
2, 51360, Note_on_c, 0, 74, 53
2, 51360, Note_on_c, 0, 67, 42
2, 51372, Note_on_c, 0, 56, 42
2, 51424, Note_on_c, 0, 62, 29
2, 51568, Control_c, 0, 64, 127
2, 51668, Note_on_c, 0, 72, 0
2, 51768, Note_on_c, 0, 74, 0
2, 52268, Control_c, 0, 64, 0
2, 52320, Note_on_c, 0, 79, 67
2, 52380, Note_on_c, 0, 78, 61
2, 52396, Note_on_c, 0, 79, 0
2, 52444, Note_on_c, 0, 77, 62
2, 52476, Note_on_c, 0, 78, 0
2, 52624, Note_on_c, 0, 77, 0
2, 52668, Note_on_c, 0, 79, 63
2, 52748, Note_on_c, 0, 79, 0
2, 52940, Note_on_c, 0, 80, 72
2, 53052, Note_on_c, 0, 80, 0
2, 53340, Note_on_c, 0, 84, 84
2, 53612, Note_on_c, 0, 83, 54
2, 53628, Note_on_c, 0, 84, 0
2, 53648, Note_on_c, 0, 83, 0
2, 53648, Note_on_c, 0, 82, 56
2, 53716, Note_on_c, 0, 67, 0
2, 53728, Note_on_c, 0, 82, 0
2, 53744, Note_on_c, 0, 81, 43
2, 53856, Note_on_c, 0, 81, 0
2, 53868, Note_on_c, 0, 62, 0
2, 53948, Note_on_c, 0, 89, 91
2, 54124, Note_on_c, 0, 89, 0
2, 54148, Note_on_c, 0, 84, 43
2, 54236, Note_on_c, 0, 84, 0
2, 54320, Note_on_c, 0, 85, 55
2, 54404, Note_on_c, 0, 85, 0
2, 54468, Note_on_c, 0, 86, 65
2, 54476, Note_on_c, 0, 56, 0
2, 54552, Note_on_c, 0, 86, 0
2, 54612, Note_on_c, 0, 87, 70
2, 54612, Note_on_c, 0, 65, 38
2, 54620, Note_on_c, 0, 61, 44
2, 54628, Note_on_c, 0, 60, 38
2, 54712, Note_on_c, 0, 87, 0
2, 54796, Note_on_c, 0, 84, 46
2, 54832, Note_on_c, 0, 84, 0
2, 55364, Note_on_c, 0, 79, 64
2, 55444, Note_on_c, 0, 79, 0
2, 55492, Note_on_c, 0, 84, 83
2, 55564, Note_on_c, 0, 84, 0
2, 55644, Note_on_c, 0, 82, 63
2, 55756, Note_on_c, 0, 73, 60
2, 55784, Note_on_c, 0, 82, 0
2, 55796, Note_on_c, 0, 73, 0
2, 55888, Note_on_c, 0, 72, 51
2, 55932, Note_on_c, 0, 65, 0
2, 55968, Note_on_c, 0, 72, 0
2, 56028, Note_on_c, 0, 70, 56
2, 56088, Note_on_c, 0, 70, 0
2, 56188, Note_on_c, 0, 68, 52
2, 56280, Note_on_c, 0, 68, 0
2, 56312, Note_on_c, 0, 60, 0
2, 56352, Note_on_c, 0, 61, 0
2, 56360, Note_on_c, 0, 65, 50
2, 56444, Note_on_c, 0, 65, 0
2, 56540, Note_on_c, 0, 61, 41
2, 56544, Note_on_c, 0, 67, 43
2, 56584, Note_on_c, 0, 55, 32
2, 57036, Note_on_c, 0, 67, 0
2, 57044, Note_on_c, 0, 69, 44
2, 57084, Note_on_c, 0, 69, 0
2, 57156, Note_on_c, 0, 70, 62
2, 57212, Note_on_c, 0, 70, 0
2, 57280, Note_on_c, 0, 72, 67
2, 57328, Note_on_c, 0, 72, 0
2, 57492, Note_on_c, 0, 61, 0
2, 57592, Note_on_c, 0, 63, 58
2, 57676, Note_on_c, 0, 63, 0
2, 57700, Note_on_c, 0, 65, 60
2, 57764, Note_on_c, 0, 65, 0
2, 57808, Note_on_c, 0, 67, 68
2, 57864, Note_on_c, 0, 67, 0
2, 57960, Note_on_c, 0, 55, 0
2, 57972, Note_on_c, 0, 60, 51
2, 58008, Note_on_c, 0, 60, 0
2, 58068, Note_on_c, 0, 61, 63
2, 58140, Note_on_c, 0, 61, 0
2, 58176, Note_on_c, 0, 63, 62
2, 58204, Note_on_c, 0, 63, 0
2, 58364, Note_on_c, 0, 55, 57
2, 58396, Note_on_c, 0, 55, 0
2, 58464, Note_on_c, 0, 56, 61
2, 58548, Note_on_c, 0, 56, 0
2, 58576, Note_on_c, 0, 58, 54
2, 58632, Note_on_c, 0, 58, 0
2, 58876, Control_c, 0, 64, 127
2, 58944, Note_on_c, 0, 55, 58
2, 58984, Note_on_c, 0, 55, 0
2, 59068, Note_on_c, 0, 56, 64
2, 59148, Note_on_c, 0, 56, 0
2, 59200, Note_on_c, 0, 58, 62
2, 59288, Note_on_c, 0, 58, 0
2, 59340, Note_on_c, 0, 60, 48
2, 59464, Note_on_c, 0, 60, 0
2, 59468, Note_on_c, 0, 56, 61
2, 59528, Control_c, 0, 64, 0
2, 59584, Note_on_c, 0, 44, 48
2, 59848, Control_c, 0, 64, 127
2, 59856, Note_on_c, 0, 51, 44
2, 59924, Note_on_c, 0, 56, 0
2, 59956, Note_on_c, 0, 55, 45
2, 60004, Note_on_c, 0, 55, 0
2, 60040, Note_on_c, 0, 56, 59
2, 60080, Note_on_c, 0, 56, 0
2, 60136, Note_on_c, 0, 58, 48
2, 60172, Note_on_c, 0, 58, 0
2, 60232, Note_on_c, 0, 51, 0
2, 60232, Note_on_c, 0, 60, 50
2, 60264, Note_on_c, 0, 60, 0
2, 60264, Note_on_c, 0, 55, 43
2, 60300, Note_on_c, 0, 63, 61
2, 60336, Note_on_c, 0, 63, 0
2, 60420, Note_on_c, 0, 65, 62
2, 60492, Note_on_c, 0, 65, 0
2, 60516, Note_on_c, 0, 70, 88
2, 60860, Note_on_c, 0, 70, 0
2, 60864, Note_on_c, 0, 67, 55
2, 60944, Note_on_c, 0, 67, 0
2, 60976, Note_on_c, 0, 68, 58
2, 61056, Note_on_c, 0, 68, 0
2, 61076, Note_on_c, 0, 70, 62
2, 61116, Note_on_c, 0, 70, 0
2, 61184, Note_on_c, 0, 72, 76
2, 61228, Control_c, 0, 64, 0
2, 61264, Note_on_c, 0, 72, 0
2, 61308, Note_on_c, 0, 75, 78
2, 61352, Note_on_c, 0, 75, 0
2, 61508, Note_on_c, 0, 77, 47
2, 61540, Note_on_c, 0, 77, 0
2, 61684, Note_on_c, 0, 82, 75
2, 61740, Note_on_c, 0, 82, 0
2, 61864, Note_on_c, 0, 84, 67
2, 61948, Note_on_c, 0, 84, 0
2, 62044, Note_on_c, 0, 86, 80
2, 62136, Note_on_c, 0, 86, 0
2, 62160, Control_c, 0, 64, 127
2, 62224, Note_on_c, 0, 87, 64
2, 62332, Note_on_c, 0, 87, 0
2, 62356, Note_on_c, 0, 44, 0
2, 62400, Note_on_c, 0, 55, 0
2, 62420, Note_on_c, 0, 91, 66
2, 62688, Control_c, 0, 64, 88
2, 62692, Control_c, 0, 64, 0
2, 62708, Note_on_c, 0, 91, 0
2, 62708, Note_on_c, 0, 86, 57
2, 62740, Note_on_c, 0, 45, 54
2, 62884, Control_c, 0, 64, 127
2, 62908, Note_on_c, 0, 86, 0
2, 62996, Note_on_c, 0, 52, 35
2, 63132, Note_on_c, 0, 52, 0
2, 63148, Note_on_c, 0, 45, 0
2, 63176, Note_on_c, 0, 55, 51
2, 63208, Note_on_c, 0, 55, 0
2, 63336, Note_on_c, 0, 60, 61
2, 63444, Note_on_c, 0, 64, 50
2, 63492, Note_on_c, 0, 64, 0
2, 63516, Note_on_c, 0, 67, 46
2, 63548, Note_on_c, 0, 67, 0
2, 63584, Note_on_c, 0, 74, 56
2, 63608, Note_on_c, 0, 74, 0
2, 63748, Note_on_c, 0, 79, 61
2, 63792, Note_on_c, 0, 79, 0
2, 63908, Note_on_c, 0, 88, 71
2, 63984, Note_on_c, 0, 91, 73
2, 63992, Note_on_c, 0, 88, 0
2, 64040, Note_on_c, 0, 60, 0
2, 64060, Note_on_c, 0, 98, 76
2, 64072, Note_on_c, 0, 91, 0
2, 64476, Note_on_c, 0, 96, 73
2, 64520, Note_on_c, 0, 98, 0
2, 64648, Note_on_c, 0, 96, 0
2, 64704, Note_on_c, 0, 94, 60
2, 64860, Note_on_c, 0, 94, 0
2, 64900, Note_on_c, 0, 92, 76
2, 64976, Control_c, 0, 64, 104
2, 64980, Control_c, 0, 64, 0
2, 64996, Note_on_c, 0, 93, 70
2, 65020, Note_on_c, 0, 92, 0
2, 65116, Note_on_c, 0, 93, 0
2, 65188, Note_on_c, 0, 60, 47
2, 65192, Note_on_c, 0, 90, 62
2, 65196, Note_on_c, 0, 50, 47
2, 65312, Note_on_c, 0, 90, 0
2, 65404, Note_on_c, 0, 89, 53
2, 65480, Note_on_c, 0, 89, 0
2, 65636, Note_on_c, 0, 87, 54
2, 65712, Note_on_c, 0, 87, 0
2, 65884, Note_on_c, 0, 86, 40
2, 65984, Note_on_c, 0, 86, 0
2, 66048, Note_on_c, 0, 87, 45
2, 66096, Note_on_c, 0, 87, 0
2, 66096, Note_on_c, 0, 86, 55
2, 66172, Note_on_c, 0, 86, 0
2, 66196, Note_on_c, 0, 84, 36
2, 66284, Note_on_c, 0, 84, 0
2, 66408, Note_on_c, 0, 83, 48
2, 66484, Note_on_c, 0, 83, 0
2, 66652, Note_on_c, 0, 86, 61
2, 66892, Note_on_c, 0, 78, 42
2, 67160, Control_c, 0, 64, 127
2, 67164, Note_on_c, 0, 78, 0
2, 67268, Note_on_c, 0, 76, 49
2, 67576, Note_on_c, 0, 76, 0
2, 67648, Note_on_c, 0, 86, 0
2, 67764, Note_on_c, 0, 75, 46
2, 67952, Note_on_c, 0, 60, 0
2, 67996, Note_on_c, 0, 50, 0
2, 68212, Note_on_c, 0, 75, 0
2, 68716, Control_c, 0, 64, 0
2, 68728, Note_on_c, 0, 50, 40
2, 68736, Note_on_c, 0, 67, 46
2, 68740, Note_on_c, 0, 74, 47
2, 68752, Note_on_c, 0, 43, 39
2, 68776, Note_on_c, 0, 59, 33
2, 68932, Control_c, 0, 64, 127
2, 69428, Note_on_c, 0, 67, 0
2, 69540, Note_on_c, 0, 74, 0
2, 69688, Note_on_c, 0, 43, 0
2, 69772, Note_on_c, 0, 50, 0
2, 69836, Note_on_c, 0, 59, 0
2, 69936, Note_on_c, 0, 86, 122
2, 70372, Note_on_c, 0, 85, 58
2, 70396, Note_on_c, 0, 86, 0
2, 70424, Note_on_c, 0, 84, 50
2, 70476, Note_on_c, 0, 85, 0
2, 70504, Note_on_c, 0, 83, 53
2, 70512, Note_on_c, 0, 84, 0
2, 70516, Control_c, 0, 64, 0
2, 70592, Note_on_c, 0, 83, 0
2, 70648, Note_on_c, 0, 86, 73
2, 70720, Note_on_c, 0, 86, 0
2, 70804, Note_on_c, 0, 82, 62
2, 70880, Note_on_c, 0, 82, 0
2, 70944, Note_on_c, 0, 83, 68
2, 71008, Note_on_c, 0, 83, 0
2, 71096, Note_on_c, 0, 79, 55
2, 71172, Note_on_c, 0, 79, 0
2, 71228, Note_on_c, 0, 76, 43
2, 71268, Note_on_c, 0, 76, 0
2, 71328, Note_on_c, 0, 74, 68
2, 71352, Note_on_c, 0, 74, 0
2, 71668, Note_on_c, 0, 78, 73
2, 71724, Note_on_c, 0, 52, 37
2, 71876, Note_on_c, 0, 78, 0
2, 71884, Note_on_c, 0, 59, 51
2, 72064, Note_on_c, 0, 62, 47
2, 72116, Note_on_c, 0, 62, 0
2, 72180, Note_on_c, 0, 59, 0
2, 72208, Note_on_c, 0, 66, 41
2, 72268, Note_on_c, 0, 66, 0
2, 72364, Note_on_c, 0, 74, 64
2, 72440, Note_on_c, 0, 74, 0
2, 72740, Note_on_c, 0, 59, 41
2, 72800, Note_on_c, 0, 59, 0
2, 72852, Note_on_c, 0, 52, 0
2, 72892, Note_on_c, 0, 64, 55
2, 72924, Note_on_c, 0, 64, 0
2, 73016, Note_on_c, 0, 66, 62
2, 73088, Note_on_c, 0, 66, 0
2, 73132, Note_on_c, 0, 71, 88
2, 73224, Note_on_c, 0, 71, 0
2, 73260, Note_on_c, 0, 69, 78
2, 73344, Note_on_c, 0, 69, 0
2, 73400, Note_on_c, 0, 67, 62
2, 73460, Note_on_c, 0, 67, 0
2, 73520, Note_on_c, 0, 64, 58
2, 73612, Note_on_c, 0, 64, 0
2, 73632, Note_on_c, 0, 62, 47
2, 73720, Note_on_c, 0, 62, 0
2, 73784, Note_on_c, 0, 60, 23
2, 73864, Note_on_c, 0, 60, 0
2, 73900, Note_on_c, 0, 59, 36
2, 73976, Note_on_c, 0, 59, 0
2, 74024, Note_on_c, 0, 62, 52
2, 74028, Note_on_c, 0, 55, 34
2, 74028, Note_on_c, 0, 45, 45
2, 74120, Note_on_c, 0, 62, 0
2, 74160, Note_on_c, 0, 59, 49
2, 74208, Note_on_c, 0, 59, 0
2, 74292, Note_on_c, 0, 60, 42
2, 74364, Note_on_c, 0, 60, 0
2, 74468, Note_on_c, 0, 64, 28
2, 74524, Note_on_c, 0, 64, 0
2, 74540, Note_on_c, 0, 67, 84
2, 74608, Note_on_c, 0, 67, 0
2, 74680, Note_on_c, 0, 71, 74
2, 74756, Note_on_c, 0, 71, 0
2, 74832, Note_on_c, 0, 74, 82
2, 74892, Note_on_c, 0, 74, 0
2, 75020, Note_on_c, 0, 74, 64
2, 75044, Note_on_c, 0, 74, 0
2, 75252, Control_c, 0, 64, 127
2, 75284, Note_on_c, 0, 45, 0
2, 75392, Note_on_c, 0, 74, 69
2, 75432, Note_on_c, 0, 55, 0
2, 75448, Note_on_c, 0, 74, 0
2, 75580, Note_on_c, 0, 74, 49
2, 75616, Note_on_c, 0, 74, 0
2, 75740, Note_on_c, 0, 74, 50
2, 75772, Note_on_c, 0, 74, 0
2, 75896, Control_c, 0, 64, 0
2, 75924, Note_on_c, 0, 66, 62
2, 75932, Note_on_c, 0, 60, 44
2, 75936, Note_on_c, 0, 75, 55
2, 75936, Note_on_c, 0, 71, 53
2, 75944, Note_on_c, 0, 50, 44
2, 76068, Note_on_c, 0, 75, 0
2, 76100, Control_c, 0, 64, 127
2, 76136, Note_on_c, 0, 75, 68
2, 76208, Note_on_c, 0, 54, 55
2, 76240, Note_on_c, 0, 75, 0
2, 76280, Note_on_c, 0, 60, 0
2, 76320, Note_on_c, 0, 71, 0
2, 76332, Note_on_c, 0, 75, 75
2, 76432, Note_on_c, 0, 75, 0
2, 76508, Note_on_c, 0, 75, 69
2, 76608, Note_on_c, 0, 75, 0
2, 76652, Note_on_c, 0, 66, 0
2, 76692, Note_on_c, 0, 75, 70
2, 76712, Note_on_c, 0, 60, 56
2, 76716, Note_on_c, 0, 66, 45
2, 76748, Note_on_c, 0, 60, 0
2, 76788, Note_on_c, 0, 75, 0
2, 76828, Note_on_c, 0, 66, 0
2, 76872, Note_on_c, 0, 54, 0
2, 76876, Note_on_c, 0, 50, 0
2, 76892, Note_on_c, 0, 75, 72
2, 76904, Note_on_c, 0, 66, 48
2, 76948, Note_on_c, 0, 66, 0
2, 77020, Note_on_c, 0, 75, 0
2, 77080, Note_on_c, 0, 76, 76
2, 77096, Note_on_c, 0, 69, 68
2, 77096, Control_c, 0, 64, 0
2, 77100, Note_on_c, 0, 47, 68
2, 77120, Note_on_c, 0, 73, 36
2, 77120, Note_on_c, 0, 62, 56
2, 77120, Note_on_c, 0, 64, 50
2, 77244, Note_on_c, 0, 64, 0
2, 77252, Note_on_c, 0, 62, 0
2, 77256, Note_on_c, 0, 76, 0
2, 77256, Control_c, 0, 64, 127
2, 77272, Note_on_c, 0, 73, 0
2, 77316, Note_on_c, 0, 76, 80
2, 77344, Note_on_c, 0, 73, 46
2, 77356, Note_on_c, 0, 57, 30
2, 77392, Note_on_c, 0, 47, 0
2, 77432, Note_on_c, 0, 73, 0
2, 77432, Note_on_c, 0, 76, 0
2, 77444, Note_on_c, 0, 69, 0
2, 77472, Note_on_c, 0, 57, 0
2, 77512, Note_on_c, 0, 76, 87
2, 77616, Note_on_c, 0, 76, 0
2, 77680, Note_on_c, 0, 76, 92
2, 77732, Note_on_c, 0, 62, 61
2, 77812, Note_on_c, 0, 76, 0
2, 77888, Note_on_c, 0, 76, 86
2, 77912, Note_on_c, 0, 69, 76
2, 77920, Note_on_c, 0, 65, 68
2, 78004, Note_on_c, 0, 65, 0
2, 78024, Note_on_c, 0, 76, 0
2, 78040, Note_on_c, 0, 62, 0
2, 78060, Note_on_c, 0, 69, 0
2, 78120, Note_on_c, 0, 76, 79
2, 78136, Note_on_c, 0, 69, 73
2, 78280, Note_on_c, 0, 69, 0
2, 78320, Note_on_c, 0, 76, 0
2, 78492, Control_c, 0, 64, 0
2, 78512, Note_on_c, 0, 28, 72
2, 78612, Control_c, 0, 64, 127
2, 78644, Note_on_c, 0, 28, 0
2, 79012, Note_on_c, 0, 77, 62
2, 79016, Note_on_c, 0, 70, 61
2, 79020, Note_on_c, 0, 74, 66
2, 79020, Note_on_c, 0, 65, 53
2, 79036, Note_on_c, 0, 56, 54
2, 79268, Note_on_c, 0, 65, 0
2, 79292, Note_on_c, 0, 77, 0
2, 79300, Note_on_c, 0, 70, 0
2, 79324, Note_on_c, 0, 74, 0
2, 79408, Note_on_c, 0, 77, 68
2, 79416, Note_on_c, 0, 74, 58
2, 79420, Note_on_c, 0, 65, 55
2, 79420, Note_on_c, 0, 70, 60
2, 79432, Note_on_c, 0, 62, 46
2, 79584, Note_on_c, 0, 65, 0
2, 79624, Note_on_c, 0, 77, 0
2, 79668, Note_on_c, 0, 70, 0
2, 79684, Note_on_c, 0, 74, 0
2, 79696, Note_on_c, 0, 62, 0
2, 79828, Note_on_c, 0, 77, 64
2, 79832, Note_on_c, 0, 62, 54
2, 79832, Note_on_c, 0, 70, 58
2, 79852, Note_on_c, 0, 74, 58
2, 80048, Note_on_c, 0, 62, 0
2, 80052, Note_on_c, 0, 74, 0
2, 80092, Note_on_c, 0, 70, 0
2, 80112, Note_on_c, 0, 77, 0
2, 80216, Note_on_c, 0, 56, 0
2, 80556, Control_c, 0, 64, 56
2, 80560, Control_c, 0, 64, 0
2, 80588, Note_on_c, 0, 79, 77
2, 80592, Note_on_c, 0, 63, 52
2, 80592, Note_on_c, 0, 67, 76
2, 80592, Note_on_c, 0, 72, 77
2, 80600, Note_on_c, 0, 76, 67
2, 80604, Note_on_c, 0, 64, 70
2, 80612, Note_on_c, 0, 77, 58
2, 80632, Note_on_c, 0, 63, 0
2, 80688, Control_c, 0, 64, 127
2, 80700, Note_on_c, 0, 67, 0
2, 80748, Note_on_c, 0, 64, 0
2, 80756, Note_on_c, 0, 72, 0
2, 80776, Note_on_c, 0, 76, 0
2, 80792, Note_on_c, 0, 77, 0
2, 80792, Note_on_c, 0, 79, 0
2, 81012, Control_c, 0, 64, 0
2, 81020, Note_on_c, 0, 84, 99
2, 81032, Note_on_c, 0, 79, 94
2, 81032, Note_on_c, 0, 76, 90
2, 81044, Note_on_c, 0, 72, 55
2, 81044, Note_on_c, 0, 74, 48
2, 81072, Note_on_c, 0, 74, 0
2, 81072, Note_on_c, 0, 72, 0
2, 81080, Control_c, 0, 64, 127
2, 81144, Note_on_c, 0, 84, 0
2, 81148, Note_on_c, 0, 79, 0
2, 81172, Note_on_c, 0, 76, 0
2, 81496, Note_on_c, 0, 60, 69
2, 81504, Note_on_c, 0, 69, 67
2, 81512, Note_on_c, 0, 72, 58
2, 81516, Note_on_c, 0, 74, 46
2, 81564, Note_on_c, 0, 74, 0
2, 81592, Note_on_c, 0, 72, 0
2, 81636, Note_on_c, 0, 69, 0
2, 81760, Control_c, 0, 64, 0
2, 81800, Note_on_c, 0, 60, 0
2, 81804, Note_on_c, 0, 79, 83
2, 81808, Note_on_c, 0, 72, 81
2, 81820, Note_on_c, 0, 69, 79
2, 81820, Note_on_c, 0, 64, 65
2, 81820, Note_on_c, 0, 75, 67
2, 81868, Control_c, 0, 64, 127
2, 81908, Note_on_c, 0, 79, 0
2, 81924, Note_on_c, 0, 75, 0
2, 81928, Note_on_c, 0, 72, 0
2, 81948, Note_on_c, 0, 69, 0
2, 82020, Note_on_c, 0, 64, 0
2, 82096, Control_c, 0, 64, 0
2, 82128, Note_on_c, 0, 75, 77
2, 82144, Note_on_c, 0, 72, 68
2, 82148, Note_on_c, 0, 66, 65
2, 82160, Note_on_c, 0, 69, 65
2, 82160, Note_on_c, 0, 62, 38
2, 82184, Note_on_c, 0, 60, 27
2, 82192, Control_c, 0, 64, 127
2, 82244, Note_on_c, 0, 69, 0
2, 82244, Note_on_c, 0, 72, 0
2, 82260, Note_on_c, 0, 75, 0
2, 82264, Note_on_c, 0, 60, 0
2, 82268, Note_on_c, 0, 62, 0
2, 82320, Note_on_c, 0, 66, 0
2, 82444, Control_c, 0, 64, 0
2, 82472, Note_on_c, 0, 63, 56
2, 82472, Note_on_c, 0, 72, 54
2, 82472, Note_on_c, 0, 66, 56
2, 82492, Note_on_c, 0, 69, 50
2, 82496, Note_on_c, 0, 60, 26
2, 82544, Control_c, 0, 64, 127
2, 82576, Note_on_c, 0, 69, 0
2, 82580, Note_on_c, 0, 72, 0
2, 82636, Note_on_c, 0, 66, 0
2, 82648, Note_on_c, 0, 63, 0
2, 82728, Note_on_c, 0, 60, 0
2, 82784, Control_c, 0, 64, 0
2, 82836, Note_on_c, 0, 63, 57
2, 82836, Note_on_c, 0, 69, 45
2, 82836, Note_on_c, 0, 66, 48
2, 82836, Note_on_c, 0, 60, 44
2, 82848, Note_on_c, 0, 54, 43
2, 82860, Control_c, 0, 64, 127
2, 82936, Note_on_c, 0, 54, 0
2, 83004, Note_on_c, 0, 60, 0
2, 83024, Note_on_c, 0, 63, 0
2, 83104, Note_on_c, 0, 69, 0
2, 83136, Note_on_c, 0, 66, 0
2, 83204, Control_c, 0, 64, 0
2, 83224, Note_on_c, 0, 63, 63
2, 83228, Note_on_c, 0, 44, 51
2, 83248, Note_on_c, 0, 60, 46
2, 83252, Note_on_c, 0, 55, 29
2, 83288, Control_c, 0, 64, 127
2, 83300, Note_on_c, 0, 55, 0
2, 83324, Note_on_c, 0, 44, 0
2, 83396, Note_on_c, 0, 60, 0
2, 83448, Note_on_c, 0, 63, 0
2, 83680, Control_c, 0, 64, 0
2, 83720, Note_on_c, 0, 54, 40
2, 83736, Note_on_c, 0, 62, 53
2, 83736, Note_on_c, 0, 59, 48
2, 83764, Note_on_c, 0, 43, 27
2, 83764, Note_on_c, 0, 50, 42
2, 83836, Control_c, 0, 64, 127
2, 84020, Note_on_c, 0, 59, 0
2, 84096, Note_on_c, 0, 43, 0
2, 84108, Note_on_c, 0, 50, 0
2, 84128, Note_on_c, 0, 62, 0
2, 84212, Note_on_c, 0, 54, 0
2, 84860, Control_c, 0, 64, 0
2, 84860, Note_on_c, 0, 86, 109
2, 84868, Note_on_c, 0, 74, 95
2, 84868, Note_on_c, 0, 47, 64
2, 84868, Note_on_c, 0, 79, 91
2, 84884, Note_on_c, 0, 55, 44
2, 85000, Control_c, 0, 64, 127
2, 85088, Note_on_c, 0, 86, 0
2, 85140, Note_on_c, 0, 74, 0
2, 85168, Note_on_c, 0, 79, 0
2, 85200, Note_on_c, 0, 47, 0
2, 85204, Note_on_c, 0, 86, 97
2, 85208, Note_on_c, 0, 74, 70
2, 85248, Note_on_c, 0, 55, 0
2, 85380, Note_on_c, 0, 74, 0
2, 85436, Note_on_c, 0, 86, 0
2, 85484, Note_on_c, 0, 59, 55
2, 85484, Note_on_c, 0, 74, 62
2, 85492, Note_on_c, 0, 83, 76
2, 85500, Note_on_c, 0, 79, 62
2, 85516, Note_on_c, 0, 59, 0
2, 85620, Note_on_c, 0, 74, 0
2, 85648, Note_on_c, 0, 79, 0
2, 85712, Note_on_c, 0, 83, 0
2, 85936, Control_c, 0, 64, 0
2, 85952, Note_on_c, 0, 28, 77
2, 86044, Control_c, 0, 64, 127
2, 86056, Note_on_c, 0, 28, 0
2, 86540, Note_on_c, 0, 88, 92
2, 86548, Note_on_c, 0, 79, 86
2, 86552, Note_on_c, 0, 52, 73
2, 86552, Note_on_c, 0, 76, 87
2, 86552, Note_on_c, 0, 62, 76
2, 86556, Note_on_c, 0, 83, 76
2, 86556, Note_on_c, 0, 57, 74
2, 86560, Control_c, 0, 64, 0
2, 86668, Control_c, 0, 64, 127
2, 87776, Note_on_c, 0, 83, 0
2, 87932, Note_on_c, 0, 76, 0
2, 87972, Note_on_c, 0, 79, 0
2, 87988, Note_on_c, 0, 88, 0
2, 88380, Note_on_c, 0, 83, 92
2, 88608, Note_on_c, 0, 84, 78
2, 88616, Note_on_c, 0, 83, 0
2, 88620, Note_on_c, 0, 57, 0
2, 88636, Note_on_c, 0, 52, 0
2, 88708, Note_on_c, 0, 62, 0
2, 88716, Note_on_c, 0, 85, 85
2, 88728, Note_on_c, 0, 84, 0
2, 88780, Note_on_c, 0, 85, 0
2, 88804, Note_on_c, 0, 86, 78
2, 88864, Note_on_c, 0, 86, 0
2, 88880, Note_on_c, 0, 87, 78
2, 88916, Note_on_c, 0, 87, 0
2, 88972, Note_on_c, 0, 88, 58
2, 89032, Note_on_c, 0, 89, 65
2, 89044, Note_on_c, 0, 88, 0
2, 89104, Note_on_c, 0, 90, 83
2, 89124, Note_on_c, 0, 89, 0
2, 89168, Control_c, 0, 64, 0
2, 89188, Note_on_c, 0, 91, 104
2, 89208, Note_on_c, 0, 60, 53
2, 89208, Note_on_c, 0, 64, 66
2, 89228, Note_on_c, 0, 90, 0
2, 89228, Note_on_c, 0, 59, 63
2, 89228, Note_on_c, 0, 55, 49
2, 89356, Control_c, 0, 64, 127
2, 90200, Note_on_c, 0, 91, 0
2, 90204, Note_on_c, 0, 88, 91
2, 90388, Note_on_c, 0, 88, 0
2, 90388, Note_on_c, 0, 89, 68
2, 90468, Note_on_c, 0, 90, 72
2, 90480, Note_on_c, 0, 89, 0
2, 90512, Note_on_c, 0, 90, 0
2, 90528, Note_on_c, 0, 64, 0
2, 90548, Note_on_c, 0, 91, 70
2, 90580, Note_on_c, 0, 59, 0
2, 90584, Note_on_c, 0, 60, 0
2, 90620, Note_on_c, 0, 55, 0
2, 90628, Note_on_c, 0, 91, 0
2, 90636, Note_on_c, 0, 92, 69
2, 90688, Note_on_c, 0, 92, 0
2, 90744, Note_on_c, 0, 93, 38
2, 90780, Note_on_c, 0, 93, 0
2, 90898, Note_on_c, 0, 94, 40
2, 90952, Control_c, 0, 64, 0
2, 90962, Note_on_c, 0, 94, 0
2, 90984, Note_on_c, 0, 95, 80
2, 90996, Note_on_c, 0, 54, 49
2, 90996, Note_on_c, 0, 64, 53
2, 90996, Note_on_c, 0, 60, 44
2, 91112, Control_c, 0, 64, 127
2, 91200, Note_on_c, 0, 64, 0
2, 91220, Note_on_c, 0, 60, 0
2, 91260, Note_on_c, 0, 54, 0
2, 91476, Note_on_c, 0, 38, 59
2, 91572, Note_on_c, 0, 38, 0
2, 92168, Note_on_c, 0, 90, 61
2, 92172, Note_on_c, 0, 54, 51
2, 92500, Note_on_c, 0, 54, 0
2, 92524, Note_on_c, 0, 95, 0
2, 92556, Note_on_c, 0, 90, 0
2, 93348, Note_on_c, 0, 88, 70
2, 93356, Note_on_c, 0, 80, 57
2, 93360, Note_on_c, 0, 76, 58
2, 93360, Note_on_c, 0, 83, 70
2, 93364, Note_on_c, 0, 66, 54
2, 93368, Note_on_c, 0, 72, 51
2, 93380, Control_c, 0, 64, 0
2, 93488, Control_c, 0, 64, 127
2, 94304, Note_on_c, 0, 88, 0
2, 94320, Note_on_c, 0, 83, 0
2, 94328, Note_on_c, 0, 76, 0
2, 94416, Note_on_c, 0, 72, 0
2, 94504, Note_on_c, 0, 80, 0
2, 94548, Note_on_c, 0, 66, 0
2, 94704, Note_on_c, 0, 82, 68
2, 94972, Note_on_c, 0, 82, 0
2, 95176, Control_c, 0, 64, 0
2, 95212, Note_on_c, 0, 83, 62
2, 95228, Note_on_c, 0, 43, 53
2, 95308, Control_c, 0, 64, 127
2, 95372, Note_on_c, 0, 83, 0
2, 95528, Note_on_c, 0, 43, 0
2, 95572, Note_on_c, 0, 55, 48
2, 95640, Note_on_c, 0, 55, 0
2, 95892, Control_c, 0, 64, 0
2, 95916, Note_on_c, 0, 56, 47
2, 95916, Note_on_c, 0, 59, 62
2, 95920, Note_on_c, 0, 65, 60
2, 95924, Note_on_c, 0, 47, 51
2, 95924, Note_on_c, 0, 62, 60
2, 96108, Control_c, 0, 64, 127
2, 96332, Note_on_c, 0, 68, 55
2, 96460, Note_on_c, 0, 59, 0
2, 96468, Note_on_c, 0, 47, 0
2, 96480, Note_on_c, 0, 62, 0
2, 96516, Note_on_c, 0, 56, 0
2, 96548, Note_on_c, 0, 68, 0
2, 96584, Note_on_c, 0, 65, 0
2, 96712, Control_c, 0, 64, 0
2, 96772, Note_on_c, 0, 58, 47
2, 96776, Note_on_c, 0, 67, 56
2, 96784, Note_on_c, 0, 63, 52
2, 96808, Note_on_c, 0, 48, 38
2, 96816, Note_on_c, 0, 55, 36
2, 96848, Note_on_c, 0, 58, 0
2, 96848, Control_c, 0, 64, 127
2, 96940, Note_on_c, 0, 67, 0
2, 96940, Note_on_c, 0, 63, 0
2, 96956, Note_on_c, 0, 48, 0
2, 96980, Note_on_c, 0, 55, 0
2, 97944, Note_on_c, 0, 75, 62
2, 98396, Note_on_c, 0, 75, 0
2, 98428, Control_c, 0, 64, 0
2, 98436, Note_on_c, 0, 63, 48
2, 98448, Note_on_c, 0, 72, 52
2, 98448, Note_on_c, 0, 70, 50
2, 98448, Note_on_c, 0, 60, 45
2, 98604, Control_c, 0, 64, 127
2, 99364, Note_on_c, 0, 60, 0
2, 99468, Note_on_c, 0, 58, 43
2, 99576, Note_on_c, 0, 58, 0
2, 99740, Note_on_c, 0, 70, 0
2, 99744, Note_on_c, 0, 72, 0
2, 99844, Note_on_c, 0, 63, 0
2, 100296, Control_c, 0, 64, 0
2, 100332, Note_on_c, 0, 65, 60
2, 100332, Note_on_c, 0, 46, 52
2, 100336, Note_on_c, 0, 61, 61
2, 100344, Note_on_c, 0, 56, 39
2, 100428, Control_c, 0, 64, 127
2, 101564, Note_on_c, 0, 61, 0
2, 101576, Note_on_c, 0, 65, 0
2, 101588, Note_on_c, 0, 67, 55
2, 101668, Note_on_c, 0, 67, 0
2, 101912, Note_on_c, 0, 70, 76
2, 102092, Note_on_c, 0, 70, 0
2, 102192, Note_on_c, 0, 73, 93
2, 102204, Note_on_c, 0, 46, 0
2, 102244, Note_on_c, 0, 56, 0
2, 102336, Note_on_c, 0, 73, 0
2, 102500, Control_c, 0, 64, 0
2, 102508, Note_on_c, 0, 63, 51
2, 102512, Note_on_c, 0, 72, 67
2, 102516, Note_on_c, 0, 68, 59
2, 102528, Note_on_c, 0, 48, 47
2, 102632, Control_c, 0, 64, 127
2, 102816, Note_on_c, 0, 72, 0
2, 102900, Note_on_c, 0, 63, 0
2, 102932, Note_on_c, 0, 75, 60
2, 103044, Note_on_c, 0, 48, 0
2, 103068, Note_on_c, 0, 68, 0
2, 103120, Note_on_c, 0, 75, 0
2, 103576, Control_c, 0, 64, 0
2, 103592, Note_on_c, 0, 41, 51
2, 103688, Control_c, 0, 64, 127
2, 103764, Note_on_c, 0, 41, 0
2, 103948, Note_on_c, 0, 51, 53
2, 104136, Note_on_c, 0, 51, 0
2, 104164, Note_on_c, 0, 57, 53
2, 104340, Note_on_c, 0, 57, 0
2, 104432, Note_on_c, 0, 63, 57
2, 104744, Note_on_c, 0, 64, 60
2, 105016, Note_on_c, 0, 64, 0
2, 105060, Note_on_c, 0, 65, 60
2, 105344, Note_on_c, 0, 65, 0
2, 105388, Note_on_c, 0, 69, 65
2, 105392, Note_on_c, 0, 66, 39
2, 105812, Note_on_c, 0, 72, 57
2, 106020, Note_on_c, 0, 66, 0
2, 106056, Note_on_c, 0, 75, 70
2, 106104, Note_on_c, 0, 63, 0
2, 106220, Note_on_c, 0, 72, 0
2, 106260, Note_on_c, 0, 76, 76
2, 106440, Note_on_c, 0, 72, 27
2, 106456, Note_on_c, 0, 75, 0
2, 106460, Note_on_c, 0, 76, 0
2, 106464, Note_on_c, 0, 69, 0
2, 106488, Note_on_c, 0, 72, 0
2, 106496, Note_on_c, 0, 77, 76
2, 106504, Control_c, 0, 64, 0
2, 106504, Note_on_c, 0, 46, 51
2, 106692, Control_c, 0, 64, 127
2, 106776, Note_on_c, 0, 56, 51
2, 106800, Note_on_c, 0, 46, 0
2, 106816, Note_on_c, 0, 56, 0
2, 107120, Note_on_c, 0, 61, 58
2, 107400, Note_on_c, 0, 65, 78
2, 107668, Note_on_c, 0, 57, 78
2, 107684, Control_c, 0, 64, 0
2, 107804, Control_c, 0, 64, 127
2, 107812, Note_on_c, 0, 61, 0
2, 107944, Note_on_c, 0, 65, 0
2, 107944, Note_on_c, 0, 61, 56
2, 108308, Note_on_c, 0, 57, 0
2, 108312, Note_on_c, 0, 56, 55
2, 108332, Control_c, 0, 64, 0
2, 108460, Control_c, 0, 64, 127
2, 108532, Note_on_c, 0, 68, 61
2, 108692, Note_on_c, 0, 77, 0
2, 108744, Note_on_c, 0, 72, 84
2, 108768, Note_on_c, 0, 65, 46
2, 108844, Note_on_c, 0, 65, 0
2, 108844, Note_on_c, 0, 68, 0
2, 108932, Note_on_c, 0, 72, 0
2, 108932, Note_on_c, 0, 75, 93
2, 109004, Note_on_c, 0, 56, 0
2, 109060, Note_on_c, 0, 61, 0
2, 109128, Note_on_c, 0, 75, 0
2, 109156, Control_c, 0, 64, 0
2, 109160, Note_on_c, 0, 78, 79
2, 109168, Note_on_c, 0, 64, 55
2, 109168, Note_on_c, 0, 69, 68
2, 109168, Note_on_c, 0, 74, 71
2, 109168, Note_on_c, 0, 58, 48
2, 109200, Note_on_c, 0, 54, 44
2, 109292, Control_c, 0, 64, 127
2, 109452, Note_on_c, 0, 69, 0
2, 109452, Note_on_c, 0, 64, 0
2, 109488, Note_on_c, 0, 78, 0
2, 109496, Note_on_c, 0, 74, 0
2, 109516, Note_on_c, 0, 54, 0
2, 109528, Note_on_c, 0, 58, 0
2, 109580, Control_c, 0, 64, 0
2, 109604, Note_on_c, 0, 68, 60
2, 109604, Note_on_c, 0, 77, 66
2, 109616, Note_on_c, 0, 73, 58
2, 109620, Note_on_c, 0, 63, 36
2, 109624, Note_on_c, 0, 57, 44
2, 109640, Note_on_c, 0, 53, 39
2, 109696, Control_c, 0, 64, 127
2, 109796, Note_on_c, 0, 57, 0
2, 109868, Note_on_c, 0, 53, 0
2, 109900, Note_on_c, 0, 63, 0
2, 109944, Note_on_c, 0, 73, 0
2, 109960, Note_on_c, 0, 77, 0
2, 109968, Note_on_c, 0, 68, 0
2, 110028, Control_c, 0, 64, 0
2, 110068, Note_on_c, 0, 76, 60
2, 110068, Note_on_c, 0, 67, 51
2, 110080, Note_on_c, 0, 56, 46
2, 110084, Note_on_c, 0, 72, 51
2, 110088, Note_on_c, 0, 62, 38
2, 110096, Note_on_c, 0, 52, 35
2, 110172, Control_c, 0, 64, 127
2, 110292, Note_on_c, 0, 76, 0
2, 110304, Note_on_c, 0, 52, 0
2, 110340, Note_on_c, 0, 62, 0
2, 110360, Note_on_c, 0, 67, 0
2, 110364, Note_on_c, 0, 72, 0
2, 110448, Note_on_c, 0, 56, 0
2, 110612, Control_c, 0, 64, 0
2, 110624, Note_on_c, 0, 75, 55
2, 110640, Note_on_c, 0, 51, 40
2, 110640, Note_on_c, 0, 66, 37
2, 110652, Note_on_c, 0, 61, 32
2, 110664, Note_on_c, 0, 71, 45
2, 110676, Note_on_c, 0, 55, 48
2, 110792, Control_c, 0, 64, 127
2, 111140, Note_on_c, 0, 55, 0
2, 111156, Note_on_c, 0, 61, 0
2, 111308, Note_on_c, 0, 51, 0
2, 111416, Note_on_c, 0, 71, 0
2, 111536, Note_on_c, 0, 75, 0
2, 111624, Note_on_c, 0, 66, 0
2, 111628, Note_on_c, 0, 72, 50
2, 111732, Note_on_c, 0, 72, 0
2, 112148, Note_on_c, 0, 56, 64
2, 112172, Note_on_c, 0, 56, 0
2, 112196, Control_c, 0, 64, 0
2, 112292, Note_on_c, 0, 59, 60
2, 112296, Note_on_c, 0, 67, 40
2, 112304, Note_on_c, 0, 55, 39
2, 112304, Note_on_c, 0, 62, 43
2, 112340, Note_on_c, 0, 55, 0
2, 112368, Note_on_c, 0, 62, 0
2, 112372, Note_on_c, 0, 59, 0
2, 112420, Note_on_c, 0, 67, 0
2, 112472, Note_on_c, 0, 61, 67
2, 112500, Note_on_c, 0, 61, 0
2, 112616, Note_on_c, 0, 65, 62
2, 112644, Note_on_c, 0, 74, 49
2, 112648, Note_on_c, 0, 72, 47
2, 112680, Note_on_c, 0, 74, 0
2, 112696, Note_on_c, 0, 65, 0
2, 112732, Note_on_c, 0, 72, 0
2, 112776, Note_on_c, 0, 66, 64
2, 112804, Note_on_c, 0, 66, 0
2, 112940, Note_on_c, 0, 67, 80
2, 112948, Note_on_c, 0, 79, 60
2, 112956, Note_on_c, 0, 74, 50
2, 112988, Note_on_c, 0, 74, 0
2, 113012, Note_on_c, 0, 67, 0
2, 113032, Note_on_c, 0, 79, 0
2, 113280, Note_on_c, 0, 70, 57
2, 113308, Note_on_c, 0, 70, 0
2, 113420, Note_on_c, 0, 72, 48
2, 113428, Note_on_c, 0, 84, 41
2, 113432, Note_on_c, 0, 83, 37
2, 113464, Note_on_c, 0, 72, 0
2, 113480, Note_on_c, 0, 83, 0
2, 113488, Note_on_c, 0, 84, 0
2, 113532, Note_on_c, 0, 73, 65
2, 113564, Note_on_c, 0, 73, 0
2, 113664, Note_on_c, 0, 88, 54
2, 113668, Note_on_c, 0, 76, 58
2, 113672, Note_on_c, 0, 86, 56
2, 113744, Note_on_c, 0, 76, 0
2, 113768, Note_on_c, 0, 88, 0
2, 113772, Note_on_c, 0, 86, 0
2, 113788, Note_on_c, 0, 78, 76
2, 113896, Note_on_c, 0, 78, 0
2, 113920, Note_on_c, 0, 91, 83
2, 114040, Note_on_c, 0, 91, 0
2, 114064, Note_on_c, 0, 83, 62
2, 114128, Note_on_c, 0, 83, 0
2, 114228, Note_on_c, 0, 98, 80
2, 114240, Note_on_c, 0, 86, 62
2, 114292, Note_on_c, 0, 98, 0
2, 114296, Note_on_c, 0, 86, 0
2, 114620, Control_c, 0, 64, 127
2, 114788, Note_on_c, 0, 91, 56
2, 114884, Note_on_c, 0, 91, 0
2, 114912, Note_on_c, 0, 94, 60
2, 115012, Note_on_c, 0, 94, 0
2, 115044, Note_on_c, 0, 96, 71
2, 115176, Note_on_c, 0, 44, 42
2, 115184, Note_on_c, 0, 96, 0
2, 115196, Control_c, 0, 64, 0
2, 115204, Note_on_c, 0, 91, 41
2, 115308, Control_c, 0, 64, 127
2, 115356, Note_on_c, 0, 91, 0
2, 115372, Note_on_c, 0, 44, 0
2, 115392, Note_on_c, 0, 89, 51
2, 115416, Note_on_c, 0, 55, 40
2, 115460, Note_on_c, 0, 89, 0
2, 115520, Note_on_c, 0, 55, 0
2, 115560, Note_on_c, 0, 87, 52
2, 115560, Note_on_c, 0, 56, 40
2, 115632, Note_on_c, 0, 87, 0
2, 115688, Note_on_c, 0, 84, 52
2, 115752, Note_on_c, 0, 84, 0
2, 115816, Note_on_c, 0, 89, 81
2, 115904, Note_on_c, 0, 60, 30
2, 115932, Note_on_c, 0, 89, 0
2, 115948, Note_on_c, 0, 84, 62
2, 116016, Note_on_c, 0, 84, 0
2, 116056, Note_on_c, 0, 60, 0
2, 116092, Note_on_c, 0, 87, 73
2, 116108, Note_on_c, 0, 63, 39
2, 116200, Note_on_c, 0, 87, 0
2, 116248, Note_on_c, 0, 79, 55
2, 116340, Note_on_c, 0, 79, 0
2, 116404, Note_on_c, 0, 75, 48
2, 116528, Note_on_c, 0, 75, 0
2, 116556, Note_on_c, 0, 72, 48
2, 116628, Note_on_c, 0, 72, 0
2, 116672, Note_on_c, 0, 82, 85
2, 116784, Note_on_c, 0, 82, 0
2, 116800, Note_on_c, 0, 75, 59
2, 116868, Note_on_c, 0, 75, 0
2, 116936, Note_on_c, 0, 79, 86
2, 117064, Note_on_c, 0, 79, 0
2, 117080, Note_on_c, 0, 75, 81
2, 117204, Note_on_c, 0, 63, 0
2, 117212, Note_on_c, 0, 75, 0
2, 117236, Note_on_c, 0, 72, 62
2, 117268, Note_on_c, 0, 60, 16
2, 117340, Note_on_c, 0, 72, 0
2, 117400, Note_on_c, 0, 70, 67
2, 117556, Note_on_c, 0, 70, 0
2, 117592, Note_on_c, 0, 67, 50
2, 117720, Note_on_c, 0, 60, 0
2, 117776, Note_on_c, 0, 67, 0
2, 117804, Note_on_c, 0, 66, 61
2, 117844, Note_on_c, 0, 56, 0
2, 117976, Note_on_c, 0, 66, 0
2, 118012, Note_on_c, 0, 65, 55
2, 118136, Note_on_c, 0, 65, 0
2, 118204, Note_on_c, 0, 64, 57
2, 118404, Note_on_c, 0, 64, 0
2, 118420, Control_c, 0, 64, 0
2, 118436, Note_on_c, 0, 63, 46
2, 118460, Note_on_c, 0, 44, 42
2, 118532, Control_c, 0, 64, 127
2, 118676, Note_on_c, 0, 63, 0
2, 118684, Note_on_c, 0, 54, 48
2, 118696, Note_on_c, 0, 44, 0
2, 118728, Note_on_c, 0, 54, 0
2, 118924, Note_on_c, 0, 60, 48
2, 119136, Note_on_c, 0, 65, 53
2, 119136, Note_on_c, 0, 75, 65
2, 119152, Note_on_c, 0, 66, 58
2, 119180, Note_on_c, 0, 72, 50
2, 119212, Note_on_c, 0, 65, 0
2, 119272, Note_on_c, 0, 60, 0
2, 119324, Note_on_c, 0, 72, 0
2, 119356, Note_on_c, 0, 75, 0
2, 119364, Note_on_c, 0, 66, 0
2, 119400, Note_on_c, 0, 65, 56
2, 119408, Note_on_c, 0, 74, 61
2, 119412, Control_c, 0, 64, 0
2, 119412, Note_on_c, 0, 64, 48
2, 119412, Note_on_c, 0, 71, 60
2, 119556, Control_c, 0, 64, 127
2, 119624, Note_on_c, 0, 64, 0
2, 119640, Note_on_c, 0, 59, 51
2, 119828, Note_on_c, 0, 59, 0
2, 119864, Note_on_c, 0, 53, 50
2, 119892, Note_on_c, 0, 53, 0
2, 120088, Note_on_c, 0, 43, 70
2, 120148, Note_on_c, 0, 43, 0
2, 120352, Control_c, 0, 64, 0
2, 120356, Note_on_c, 0, 30, 90
2, 120392, Note_on_c, 0, 65, 0
2, 120444, Note_on_c, 0, 30, 0
2, 120448, Control_c, 0, 64, 127
2, 120572, Note_on_c, 0, 71, 0
2, 120600, Note_on_c, 0, 64, 58
2, 120768, Note_on_c, 0, 64, 0
2, 120812, Note_on_c, 0, 74, 0
2, 120812, Note_on_c, 0, 58, 61
2, 121016, Note_on_c, 0, 75, 73
2, 121032, Note_on_c, 0, 63, 64
2, 121036, Note_on_c, 0, 68, 68
2, 121040, Note_on_c, 0, 58, 0
2, 121048, Note_on_c, 0, 64, 44
2, 121096, Note_on_c, 0, 64, 0
2, 121152, Note_on_c, 0, 75, 0
2, 121176, Note_on_c, 0, 63, 0
2, 121184, Note_on_c, 0, 68, 0
2, 121272, Note_on_c, 0, 69, 70
2, 121272, Note_on_c, 0, 74, 68
2, 121272, Note_on_c, 0, 63, 56
2, 121272, Note_on_c, 0, 62, 61
2, 121276, Control_c, 0, 64, 0
2, 121484, Note_on_c, 0, 62, 0
2, 121484, Control_c, 0, 64, 127
2, 121512, Note_on_c, 0, 58, 61
2, 121628, Note_on_c, 0, 69, 0
2, 121652, Note_on_c, 0, 63, 0
2, 121708, Note_on_c, 0, 74, 0
2, 121748, Note_on_c, 0, 58, 0
2, 121756, Control_c, 0, 64, 0
2, 121776, Note_on_c, 0, 63, 44
2, 121784, Note_on_c, 0, 72, 55
2, 121788, Note_on_c, 0, 57, 55
2, 121788, Note_on_c, 0, 69, 48
2, 121876, Control_c, 0, 64, 127
2, 122000, Note_on_c, 0, 69, 0
2, 122040, Note_on_c, 0, 57, 0
2, 122064, Note_on_c, 0, 53, 50
2, 122068, Note_on_c, 0, 63, 0
2, 122084, Note_on_c, 0, 72, 0
2, 122332, Control_c, 0, 64, 0
2, 122344, Note_on_c, 0, 53, 0
2, 122344, Note_on_c, 0, 65, 46
2, 122356, Note_on_c, 0, 62, 44
2, 122376, Note_on_c, 0, 46, 45
2, 122376, Note_on_c, 0, 56, 37
2, 122444, Control_c, 0, 64, 127
2, 122456, Note_on_c, 0, 62, 0
2, 122484, Note_on_c, 0, 65, 0
2, 122612, Note_on_c, 0, 56, 0
2, 122628, Note_on_c, 0, 75, 64
2, 122652, Note_on_c, 0, 53, 40
2, 122656, Note_on_c, 0, 46, 0
2, 122684, Note_on_c, 0, 53, 0
2, 122724, Note_on_c, 0, 75, 0
2, 122872, Control_c, 0, 64, 0
2, 122908, Note_on_c, 0, 75, 60
2, 122920, Note_on_c, 0, 63, 52
2, 122928, Note_on_c, 0, 68, 48
2, 122932, Note_on_c, 0, 72, 50
2, 122960, Control_c, 0, 64, 127
2, 123060, Note_on_c, 0, 75, 0
2, 123076, Note_on_c, 0, 68, 0
2, 123084, Note_on_c, 0, 72, 0
2, 123208, Note_on_c, 0, 63, 0
2, 123236, Note_on_c, 0, 79, 56
2, 123264, Note_on_c, 0, 79, 0
2, 123464, Note_on_c, 0, 68, 64
2, 123472, Control_c, 0, 64, 0
2, 123480, Note_on_c, 0, 77, 64
2, 123484, Note_on_c, 0, 67, 55
2, 123492, Note_on_c, 0, 72, 54
2, 123496, Note_on_c, 0, 75, 54
2, 123596, Control_c, 0, 64, 127
2, 123668, Note_on_c, 0, 67, 0
2, 123776, Note_on_c, 0, 65, 58
2, 123916, Note_on_c, 0, 72, 0
2, 123972, Note_on_c, 0, 68, 0
2, 124056, Note_on_c, 0, 75, 0
2, 124352, Control_c, 0, 64, 0
2, 124356, Note_on_c, 0, 79, 47
2, 124364, Note_on_c, 0, 63, 49
2, 124368, Note_on_c, 0, 68, 21
2, 124372, Note_on_c, 0, 65, 0
2, 124396, Note_on_c, 0, 75, 4
2, 124440, Control_c, 0, 64, 127
2, 124536, Note_on_c, 0, 77, 0
2, 124592, Note_on_c, 0, 79, 0
2, 124704, Note_on_c, 0, 68, 0
2, 124836, Note_on_c, 0, 68, 55
2, 124840, Note_on_c, 0, 80, 65
2, 124848, Note_on_c, 0, 62, 51
2, 124868, Note_on_c, 0, 63, 0
2, 125144, Note_on_c, 0, 62, 0
2, 125244, Note_on_c, 0, 62, 50
2, 125276, Note_on_c, 0, 68, 0
2, 125360, Note_on_c, 0, 75, 0
2, 125376, Note_on_c, 0, 80, 0
2, 125684, Note_on_c, 0, 62, 0
2, 125684, Note_on_c, 0, 84, 57
2, 125692, Note_on_c, 0, 72, 35
2, 125704, Note_on_c, 0, 58, 41
2, 125904, Note_on_c, 0, 58, 0
2, 125984, Note_on_c, 0, 84, 0
2, 125996, Note_on_c, 0, 72, 0
2, 126108, Note_on_c, 0, 84, 51
2, 126112, Note_on_c, 0, 58, 47
2, 126112, Note_on_c, 0, 72, 39
2, 126172, Note_on_c, 0, 58, 0
2, 126228, Note_on_c, 0, 72, 0
2, 126340, Note_on_c, 0, 84, 0
2, 126752, Control_c, 0, 64, 0
2, 126756, Note_on_c, 0, 22, 90
2, 126876, Control_c, 0, 64, 127
2, 127128, Note_on_c, 0, 22, 0
2, 127712, Note_on_c, 0, 87, 104
2, 127724, Note_on_c, 0, 75, 101
2, 127728, Note_on_c, 0, 80, 90
2, 127728, Note_on_c, 0, 84, 83
2, 127732, Note_on_c, 0, 65, 87
2, 127732, Note_on_c, 0, 61, 76
2, 127736, Note_on_c, 0, 58, 86
2, 128468, Note_on_c, 0, 58, 0
2, 128500, Note_on_c, 0, 84, 0
2, 128520, Note_on_c, 0, 87, 0
2, 128524, Note_on_c, 0, 65, 0
2, 128528, Note_on_c, 0, 75, 0
2, 128544, Note_on_c, 0, 80, 0
2, 128624, Note_on_c, 0, 61, 0
2, 128816, Note_on_c, 0, 84, 80
2, 128820, Note_on_c, 0, 80, 80
2, 128824, Note_on_c, 0, 61, 64
2, 128824, Note_on_c, 0, 65, 71
2, 128824, Note_on_c, 0, 72, 82
2, 128828, Note_on_c, 0, 56, 70
2, 128848, Control_c, 0, 64, 0
2, 128924, Control_c, 0, 64, 127
2, 129124, Note_on_c, 0, 72, 0
2, 129168, Note_on_c, 0, 65, 0
2, 129168, Note_on_c, 0, 61, 0
2, 129180, Note_on_c, 0, 84, 0
2, 129180, Note_on_c, 0, 56, 0
2, 129204, Note_on_c, 0, 80, 0
2, 130272, Note_on_c, 0, 87, 64
2, 130288, Note_on_c, 0, 65, 46
2, 130288, Note_on_c, 0, 56, 46
2, 130292, Note_on_c, 0, 61, 47
2, 130292, Note_on_c, 0, 75, 47
2, 130300, Note_on_c, 0, 80, 55
2, 130504, Note_on_c, 0, 87, 0
2, 130516, Note_on_c, 0, 65, 0
2, 130528, Note_on_c, 0, 61, 0
2, 130572, Note_on_c, 0, 75, 0
2, 130584, Note_on_c, 0, 80, 0
2, 130644, Note_on_c, 0, 56, 0
2, 131076, Control_c, 0, 64, 0
2, 131128, Note_on_c, 0, 84, 53
2, 131140, Note_on_c, 0, 72, 42
2, 131148, Note_on_c, 0, 77, 55
2, 131152, Note_on_c, 0, 65, 36
2, 131152, Note_on_c, 0, 61, 46
2, 131164, Note_on_c, 0, 55, 40
2, 131188, Control_c, 0, 64, 127
2, 131292, Note_on_c, 0, 65, 0
2, 131316, Note_on_c, 0, 61, 0
2, 131360, Note_on_c, 0, 55, 0
2, 131792, Note_on_c, 0, 27, 60
2, 132000, Note_on_c, 0, 27, 0
2, 132544, Note_on_c, 0, 27, 47
2, 132736, Note_on_c, 0, 27, 0
2, 133072, Note_on_c, 0, 72, 0
2, 133144, Note_on_c, 0, 77, 0
2, 133212, Note_on_c, 0, 84, 0
2, 133752, Note_on_c, 0, 87, 57
2, 133776, Note_on_c, 0, 75, 37
2, 134228, Note_on_c, 0, 87, 0
2, 134336, Note_on_c, 0, 75, 0
2, 136740, Note_on_c, 0, 79, 58
2, 136748, Control_c, 0, 64, 0
2, 136760, Note_on_c, 0, 71, 50
2, 136760, Note_on_c, 0, 67, 37
2, 136772, Note_on_c, 0, 74, 52
2, 136780, Note_on_c, 0, 44, 44
2, 136948, Control_c, 0, 64, 127
2, 137424, Note_on_c, 0, 52, 50
2, 137460, Control_c, 0, 64, 0
2, 137644, Control_c, 0, 64, 127
2, 137728, Note_on_c, 0, 52, 0
2, 137744, Note_on_c, 0, 53, 50
2, 137760, Note_on_c, 0, 44, 0
2, 138256, Note_on_c, 0, 55, 61
2, 138260, Note_on_c, 0, 53, 0
2, 138360, Control_c, 0, 64, 40
2, 138364, Control_c, 0, 64, 0
2, 138472, Control_c, 0, 64, 127
2, 138624, Note_on_c, 0, 79, 0
2, 138660, Note_on_c, 0, 74, 0
2, 138660, Note_on_c, 0, 56, 41
2, 138684, Note_on_c, 0, 71, 0
2, 138700, Note_on_c, 0, 67, 0
2, 138904, Note_on_c, 0, 58, 53
2, 139048, Note_on_c, 0, 59, 55
2, 139096, Note_on_c, 0, 59, 0
2, 139152, Note_on_c, 0, 61, 44
2, 139188, Note_on_c, 0, 61, 0
2, 139232, Note_on_c, 0, 62, 73
2, 139308, Note_on_c, 0, 62, 0
2, 139328, Note_on_c, 0, 64, 69
2, 139388, Note_on_c, 0, 64, 0
2, 139388, Note_on_c, 0, 65, 82
2, 139440, Note_on_c, 0, 65, 0
2, 139480, Note_on_c, 0, 67, 92
2, 139552, Note_on_c, 0, 67, 0
2, 139560, Note_on_c, 0, 68, 88
2, 139628, Note_on_c, 0, 70, 87
2, 139644, Note_on_c, 0, 68, 0
2, 139688, Note_on_c, 0, 70, 0
2, 139704, Note_on_c, 0, 71, 91
2, 139776, Note_on_c, 0, 71, 0
2, 139804, Note_on_c, 0, 73, 98
2, 139856, Note_on_c, 0, 73, 0
2, 139900, Note_on_c, 0, 74, 95
2, 139976, Note_on_c, 0, 74, 0
2, 140016, Note_on_c, 0, 75, 98
2, 140100, Note_on_c, 0, 75, 0
2, 140128, Note_on_c, 0, 76, 93
2, 140148, Note_on_c, 0, 58, 0
2, 140212, Note_on_c, 0, 76, 0
2, 140240, Note_on_c, 0, 77, 79
2, 140264, Note_on_c, 0, 55, 0
2, 140264, Note_on_c, 0, 56, 0
2, 140336, Note_on_c, 0, 77, 0
2, 140336, Note_on_c, 0, 78, 74
2, 140392, Note_on_c, 0, 78, 0
2, 140424, Note_on_c, 0, 79, 80
2, 140488, Note_on_c, 0, 79, 0
2, 140512, Note_on_c, 0, 80, 75
2, 140540, Note_on_c, 0, 80, 0
2, 140596, Note_on_c, 0, 81, 76
2, 140652, Note_on_c, 0, 81, 0
2, 140672, Note_on_c, 0, 82, 73
2, 140764, Note_on_c, 0, 82, 0
2, 140772, Note_on_c, 0, 83, 64
2, 140844, Note_on_c, 0, 83, 0
2, 140880, Note_on_c, 0, 84, 76
2, 141144, Control_c, 0, 64, 0
2, 141152, Note_on_c, 0, 44, 60
2, 141408, Control_c, 0, 64, 127
2, 141484, Note_on_c, 0, 51, 40
2, 141708, Note_on_c, 0, 44, 0
2, 141720, Note_on_c, 0, 51, 0
2, 141744, Note_on_c, 0, 55, 53
2, 141920, Note_on_c, 0, 84, 0
2, 141952, Note_on_c, 0, 55, 0
2, 141960, Note_on_c, 0, 56, 47
2, 142164, Note_on_c, 0, 60, 39
2, 142360, Note_on_c, 0, 63, 49
2, 142544, Note_on_c, 0, 67, 43
2, 142640, Note_on_c, 0, 67, 0
2, 142740, Note_on_c, 0, 75, 55
2, 142968, Note_on_c, 0, 75, 0
2, 142972, Note_on_c, 0, 71, 50
2, 143128, Note_on_c, 0, 71, 0
2, 143192, Note_on_c, 0, 72, 51
2, 143320, Note_on_c, 0, 72, 0
2, 143376, Note_on_c, 0, 75, 58
2, 143448, Note_on_c, 0, 75, 0
2, 143580, Note_on_c, 0, 79, 40
2, 143668, Note_on_c, 0, 79, 0
2, 143744, Note_on_c, 0, 84, 52
2, 143840, Note_on_c, 0, 84, 0
2, 143860, Note_on_c, 0, 87, 60
2, 143968, Note_on_c, 0, 87, 0
2, 143968, Note_on_c, 0, 83, 55
2, 144036, Note_on_c, 0, 83, 0
2, 144076, Note_on_c, 0, 84, 62
2, 144136, Note_on_c, 0, 84, 0
2, 144188, Note_on_c, 0, 87, 58
2, 144216, Note_on_c, 0, 87, 0
2, 144304, Note_on_c, 0, 91, 61
2, 144372, Note_on_c, 0, 91, 0
2, 144408, Note_on_c, 0, 96, 63
2, 144524, Note_on_c, 0, 96, 0
2, 144544, Note_on_c, 0, 99, 64
2, 144660, Note_on_c, 0, 99, 0
2, 144660, Note_on_c, 0, 95, 64
2, 144752, Note_on_c, 0, 95, 0
2, 144764, Note_on_c, 0, 96, 60
2, 144836, Note_on_c, 0, 96, 0
2, 144884, Note_on_c, 0, 99, 73
2, 144944, Note_on_c, 0, 99, 0
2, 145000, Note_on_c, 0, 103, 75
2, 145056, Note_on_c, 0, 103, 0
2, 145152, Note_on_c, 0, 106, 74
2, 145304, Note_on_c, 0, 106, 0
2, 145324, Note_on_c, 0, 108, 78
2, 145532, Note_on_c, 0, 108, 0
2, 145560, Note_on_c, 0, 103, 63
2, 146284, Note_on_c, 0, 103, 0
2, 146300, Note_on_c, 0, 60, 0
2, 146316, Note_on_c, 0, 63, 0
2, 146324, Note_on_c, 0, 56, 0
2, 146324, End_track
0, 0, End_of_file
