0, 0, Header, 1, 2, 960
1, 0, Start_track
1, 0, Title_t, "Soul Eyes - By Mal Waldron"
1, 0, Text_t, "Live played midi - dougmck@TPG.com.au Lead sheet in Old Real Book - Vol 2 page 333\012"
1, 0, Time_signature, 4, 2, 24, 8
1, 0, Key_signature, 0, "major"
1, 0, Tempo, 600000
1, 0, End_track
2, 0, Start_track
2, 0, Title_t, "Live played piano solo"
2, 0, Control_c, 0, 64, 127
2, 2459, Note_on_c, 0, 79, 79
2, 2894, Note_on_c, 0, 74, 67
2, 2902, Control_c, 0, 64, 0
2, 2913, Note_on_c, 0, 48, 61
2, 2921, Note_on_c, 0, 79, 0
2, 3128, Control_c, 0, 64, 127
2, 3377, Note_on_c, 0, 48, 0
2, 3392, Note_on_c, 0, 55, 38
2, 3475, Note_on_c, 0, 74, 0
2, 3806, Note_on_c, 0, 62, 39
2, 4117, Note_on_c, 0, 62, 0
2, 4190, Note_on_c, 0, 62, 47
2, 4262, Note_on_c, 0, 55, 0
2, 4445, Note_on_c, 0, 62, 0
2, 4558, Note_on_c, 0, 67, 43
2, 4827, Note_on_c, 0, 67, 0
2, 4854, Note_on_c, 0, 74, 48
2, 4993, Note_on_c, 0, 74, 0
2, 5616, Note_on_c, 0, 86, 55
2, 5984, Note_on_c, 0, 86, 0
2, 6075, Note_on_c, 0, 79, 34
2, 6523, Note_on_c, 0, 86, 40
2, 6905, Note_on_c, 0, 86, 0
2, 7688, Note_on_c, 0, 86, 40
2, 8176, Note_on_c, 0, 79, 0
2, 8427, Note_on_c, 0, 79, 34
2, 11001, Note_on_c, 0, 86, 0
2, 11205, Note_on_c, 0, 79, 0
2, 12262, Note_on_c, 0, 75, 64
2, 13587, Note_on_c, 0, 75, 0
2, 14784, Note_on_c, 0, 71, 36
2, 14789, Control_c, 0, 64, 0
2, 14849, Note_on_c, 0, 63, 31
2, 14859, Note_on_c, 0, 43, 24
2, 14910, Note_on_c, 0, 67, 24
2, 14925, Note_on_c, 0, 59, 19
2, 14947, Note_on_c, 0, 53, 17
2, 15107, Control_c, 0, 64, 127
2, 15401, Note_on_c, 0, 53, 0
2, 15462, Note_on_c, 0, 43, 0
2, 16249, Note_on_c, 0, 63, 0
2, 16497, Note_on_c, 0, 67, 0
2, 16715, Note_on_c, 0, 63, 49
2, 16728, Note_on_c, 0, 59, 0
2, 16958, Note_on_c, 0, 71, 0
2, 17387, Note_on_c, 0, 63, 0
2, 17470, Note_on_c, 0, 65, 40
2, 18113, Note_on_c, 0, 68, 53
2, 18137, Note_on_c, 0, 65, 0
2, 18502, Note_on_c, 0, 68, 0
2, 18585, Note_on_c, 0, 71, 60
2, 18929, Note_on_c, 0, 71, 0
2, 18947, Note_on_c, 0, 74, 73
2, 19259, Note_on_c, 0, 74, 0
2, 19304, Note_on_c, 0, 77, 71
2, 19497, Note_on_c, 0, 77, 0
2, 19656, Note_on_c, 0, 80, 64
2, 19928, Note_on_c, 0, 80, 0
2, 20069, Note_on_c, 0, 88, 65
2, 20342, Note_on_c, 0, 88, 0
2, 20483, Note_on_c, 0, 82, 38
2, 20856, Note_on_c, 0, 82, 0
2, 20894, Note_on_c, 0, 87, 67
2, 21291, Note_on_c, 0, 87, 0
2, 21323, Note_on_c, 0, 77, 35
2, 21795, Note_on_c, 0, 86, 53
2, 21843, Control_c, 0, 64, 0
2, 21867, Note_on_c, 0, 71, 24
2, 21971, Control_c, 0, 64, 127
2, 22054, Note_on_c, 0, 77, 0
2, 22320, Note_on_c, 0, 86, 0
2, 22329, Note_on_c, 0, 77, 38
2, 22477, Note_on_c, 0, 77, 0
2, 22913, Note_on_c, 0, 71, 0
2, 22920, Note_on_c, 0, 83, 25
2, 22966, Note_on_c, 0, 65, 16
2, 23253, Note_on_c, 0, 83, 0
2, 23357, Note_on_c, 0, 65, 0
2, 23513, Note_on_c, 0, 72, 22
2, 23877, Note_on_c, 0, 72, 0
2, 24014, Note_on_c, 0, 80, 37
2, 24083, Note_on_c, 0, 62, 26
2, 24496, Note_on_c, 0, 80, 0
2, 24614, Note_on_c, 0, 68, 32
2, 25221, Note_on_c, 0, 77, 37
2, 25245, Note_on_c, 0, 59, 29
2, 25251, Note_on_c, 0, 62, 0
2, 25323, Note_on_c, 0, 68, 0
2, 27777, Note_on_c, 0, 59, 0
2, 28339, Note_on_c, 0, 72, 36
2, 28405, Note_on_c, 0, 77, 0
2, 28718, Note_on_c, 0, 74, 56
2, 28961, Note_on_c, 0, 74, 0
2, 28993, Note_on_c, 0, 72, 0
2, 29017, Note_on_c, 0, 75, 68
2, 29342, Note_on_c, 0, 75, 0
2, 29381, Control_c, 0, 64, 0
2, 29401, Note_on_c, 0, 77, 65
2, 29429, Note_on_c, 0, 48, 37
2, 29701, Control_c, 0, 64, 127
2, 29901, Note_on_c, 0, 55, 29
2, 29933, Note_on_c, 0, 48, 0
2, 30107, Note_on_c, 0, 77, 0
2, 30345, Note_on_c, 0, 55, 0
2, 30360, Note_on_c, 0, 77, 41
2, 30417, Note_on_c, 0, 62, 32
2, 30424, Note_on_c, 0, 67, 22
2, 30427, Note_on_c, 0, 70, 26
2, 30563, Note_on_c, 0, 67, 0
2, 30630, Note_on_c, 0, 70, 0
2, 30766, Note_on_c, 0, 77, 0
2, 30934, Note_on_c, 0, 63, 33
2, 30955, Note_on_c, 0, 62, 0
2, 31526, Note_on_c, 0, 86, 57
2, 31561, Note_on_c, 0, 82, 50
2, 31577, Note_on_c, 0, 67, 29
2, 31582, Note_on_c, 0, 74, 28
2, 31998, Note_on_c, 0, 63, 0
2, 32053, Note_on_c, 0, 86, 0
2, 32144, Note_on_c, 0, 82, 0
2, 32253, Note_on_c, 0, 63, 31
2, 32257, Note_on_c, 0, 67, 0
2, 32297, Note_on_c, 0, 74, 0
2, 32944, Note_on_c, 0, 63, 0
2, 33003, Note_on_c, 0, 77, 34
2, 33013, Note_on_c, 0, 70, 31
2, 33025, Note_on_c, 0, 67, 30
2, 33030, Note_on_c, 0, 62, 29
2, 33208, Note_on_c, 0, 77, 0
2, 33270, Note_on_c, 0, 70, 0
2, 33600, Note_on_c, 0, 67, 0
2, 33761, Note_on_c, 0, 62, 0
2, 33953, Note_on_c, 0, 67, 76
2, 34552, Note_on_c, 0, 67, 0
2, 34601, Note_on_c, 0, 70, 76
2, 35405, Note_on_c, 0, 70, 0
2, 35915, Note_on_c, 0, 61, 26
2, 36152, Note_on_c, 0, 61, 0
2, 36518, Control_c, 0, 64, 0
2, 36549, Note_on_c, 0, 41, 39
2, 36550, Note_on_c, 0, 62, 36
2, 36590, Note_on_c, 0, 59, 44
2, 36669, Note_on_c, 0, 55, 32
2, 36777, Note_on_c, 0, 51, 26
2, 36886, Control_c, 0, 64, 127
2, 37118, Note_on_c, 0, 51, 0
2, 37200, Note_on_c, 0, 55, 0
2, 37225, Note_on_c, 0, 59, 0
2, 37349, Note_on_c, 0, 62, 0
2, 37406, Note_on_c, 0, 48, 34
2, 37513, Note_on_c, 0, 41, 0
2, 37773, Note_on_c, 0, 48, 0
2, 37832, Note_on_c, 0, 57, 47
2, 38211, Note_on_c, 0, 59, 44
2, 38304, Note_on_c, 0, 57, 0
2, 38542, Note_on_c, 0, 62, 40
2, 38774, Note_on_c, 0, 62, 0
2, 38848, Note_on_c, 0, 67, 49
2, 39096, Note_on_c, 0, 67, 0
2, 39101, Note_on_c, 0, 59, 0
2, 39133, Note_on_c, 0, 74, 62
2, 39254, Note_on_c, 0, 74, 0
2, 39445, Note_on_c, 0, 79, 71
2, 39683, Note_on_c, 0, 79, 0
2, 39752, Note_on_c, 0, 86, 80
2, 40056, Note_on_c, 0, 83, 68
2, 40102, Note_on_c, 0, 86, 0
2, 40382, Control_c, 0, 64, 0
2, 40385, Note_on_c, 0, 63, 34
2, 40400, Note_on_c, 0, 57, 43
2, 40401, Note_on_c, 0, 83, 0
2, 40405, Note_on_c, 0, 62, 37
2, 40406, Note_on_c, 0, 67, 37
2, 40408, Note_on_c, 0, 84, 74
2, 40750, Control_c, 0, 64, 127
2, 40785, Note_on_c, 0, 86, 71
2, 40923, Note_on_c, 0, 84, 0
2, 41104, Control_c, 0, 64, 0
2, 41123, Note_on_c, 0, 86, 0
2, 41219, Note_on_c, 0, 83, 57
2, 41232, Control_c, 0, 64, 127
2, 41233, Note_on_c, 0, 86, 62
2, 41403, Note_on_c, 0, 86, 0
2, 41520, Note_on_c, 0, 83, 0
2, 41645, Note_on_c, 0, 86, 47
2, 41678, Note_on_c, 0, 79, 45
2, 42131, Note_on_c, 0, 74, 40
2, 42310, Note_on_c, 0, 79, 0
2, 42459, Note_on_c, 0, 63, 0
2, 42776, Note_on_c, 0, 86, 0
2, 42865, Note_on_c, 0, 62, 0
2, 43091, Note_on_c, 0, 74, 0
2, 43509, Note_on_c, 0, 67, 0
2, 44809, Note_on_c, 0, 57, 0
2, 44857, Control_c, 0, 64, 0
2, 44886, Note_on_c, 0, 75, 47
2, 44901, Note_on_c, 0, 61, 37
2, 44933, Note_on_c, 0, 66, 34
2, 44974, Note_on_c, 0, 71, 30
2, 45113, Control_c, 0, 64, 127
2, 45297, Note_on_c, 0, 66, 0
2, 45376, Note_on_c, 0, 75, 0
2, 45405, Note_on_c, 0, 71, 0
2, 45643, Control_c, 0, 64, 0
2, 45649, Note_on_c, 0, 77, 51
2, 45662, Note_on_c, 0, 68, 37
2, 45680, Note_on_c, 0, 63, 34
2, 45697, Note_on_c, 0, 73, 28
2, 45782, Note_on_c, 0, 61, 0
2, 45817, Control_c, 0, 64, 127
2, 45897, Note_on_c, 0, 77, 0
2, 46022, Note_on_c, 0, 68, 0
2, 46040, Note_on_c, 0, 73, 0
2, 46432, Note_on_c, 0, 70, 33
2, 46433, Note_on_c, 0, 75, 40
2, 46451, Note_on_c, 0, 79, 34
2, 46465, Note_on_c, 0, 65, 32
2, 46510, Note_on_c, 0, 63, 0
2, 46649, Note_on_c, 0, 79, 0
2, 46710, Note_on_c, 0, 65, 0
2, 46753, Note_on_c, 0, 70, 0
2, 46819, Note_on_c, 0, 75, 0
2, 47502, Control_c, 0, 64, 0
2, 47542, Note_on_c, 0, 53, 30
2, 47549, Note_on_c, 0, 84, 54
2, 47571, Note_on_c, 0, 80, 34
2, 47792, Control_c, 0, 64, 127
2, 48152, Note_on_c, 0, 53, 0
2, 48216, Note_on_c, 0, 60, 44
2, 48265, Note_on_c, 0, 84, 0
2, 48509, Note_on_c, 0, 80, 0
2, 48792, Note_on_c, 0, 60, 0
2, 48848, Note_on_c, 0, 75, 40
2, 48861, Note_on_c, 0, 67, 43
2, 48875, Note_on_c, 0, 72, 31
2, 49528, Note_on_c, 0, 68, 52
2, 49529, Note_on_c, 0, 67, 0
2, 49726, Note_on_c, 0, 72, 0
2, 49749, Note_on_c, 0, 75, 0
2, 50105, Note_on_c, 0, 68, 0
2, 50273, Note_on_c, 0, 68, 59
2, 50771, Note_on_c, 0, 68, 0
2, 50833, Note_on_c, 0, 70, 72
2, 51189, Note_on_c, 0, 70, 0
2, 51313, Note_on_c, 0, 70, 68
2, 51736, Note_on_c, 0, 70, 0
2, 51830, Note_on_c, 0, 72, 76
2, 52281, Note_on_c, 0, 72, 0
2, 52421, Note_on_c, 0, 72, 68
2, 53049, Note_on_c, 0, 72, 0
2, 53064, Note_on_c, 0, 74, 58
2, 53105, Note_on_c, 0, 46, 33
2, 53117, Control_c, 0, 64, 0
2, 53136, Note_on_c, 0, 56, 21
2, 53389, Control_c, 0, 64, 127
2, 53849, Note_on_c, 0, 67, 31
2, 53854, Control_c, 0, 64, 0
2, 53870, Note_on_c, 0, 62, 31
2, 53958, Note_on_c, 0, 53, 15
2, 54030, Control_c, 0, 64, 127
2, 54110, Note_on_c, 0, 56, 0
2, 54659, Note_on_c, 0, 56, 31
2, 54897, Note_on_c, 0, 62, 0
2, 55485, Note_on_c, 0, 62, 37
2, 55776, Note_on_c, 0, 56, 0
2, 56273, Note_on_c, 0, 62, 0
2, 56353, Note_on_c, 0, 74, 0
2, 56589, Note_on_c, 0, 63, 60
2, 56878, Note_on_c, 0, 67, 0
2, 57144, Note_on_c, 0, 63, 0
2, 57157, Note_on_c, 0, 46, 0
2, 57414, Note_on_c, 0, 53, 0
2, 57945, Note_on_c, 0, 73, 52
2, 57953, Note_on_c, 0, 66, 63
2, 57955, Note_on_c, 0, 46, 36
2, 57957, Note_on_c, 0, 56, 38
2, 57976, Note_on_c, 0, 70, 48
2, 58038, Control_c, 0, 64, 0
2, 58344, Control_c, 0, 64, 127
2, 58742, Note_on_c, 0, 56, 0
2, 59045, Note_on_c, 0, 56, 31
2, 59072, Note_on_c, 0, 46, 0
2, 59157, Note_on_c, 0, 56, 0
2, 59424, Note_on_c, 0, 70, 0
2, 59488, Note_on_c, 0, 66, 0
2, 59771, Note_on_c, 0, 73, 0
2, 59838, Note_on_c, 0, 61, 35
2, 59848, Note_on_c, 0, 70, 36
2, 59878, Note_on_c, 0, 66, 36
2, 59897, Note_on_c, 0, 56, 32
2, 59918, Note_on_c, 0, 62, 20
2, 60123, Note_on_c, 0, 61, 0
2, 60219, Note_on_c, 0, 66, 0
2, 60253, Note_on_c, 0, 70, 0
2, 60667, Note_on_c, 0, 85, 65
2, 60832, Note_on_c, 0, 62, 0
2, 60851, Note_on_c, 0, 56, 0
2, 61438, Note_on_c, 0, 85, 0
2, 61560, Note_on_c, 0, 73, 27
2, 61577, Note_on_c, 0, 82, 44
2, 61581, Note_on_c, 0, 56, 29
2, 61590, Note_on_c, 0, 78, 36
2, 61611, Note_on_c, 0, 66, 20
2, 61627, Note_on_c, 0, 62, 34
2, 62443, Note_on_c, 0, 62, 0
2, 62841, Note_on_c, 0, 62, 34
2, 63777, Note_on_c, 0, 78, 0
2, 63801, Note_on_c, 0, 82, 0
2, 63854, Note_on_c, 0, 73, 0
2, 63941, Note_on_c, 0, 66, 0
2, 64141, Note_on_c, 0, 62, 0
2, 64341, Note_on_c, 0, 56, 0
2, 66059, Control_c, 0, 64, 0
2, 66101, Note_on_c, 0, 61, 50
2, 66115, Note_on_c, 0, 70, 40
2, 66118, Note_on_c, 0, 56, 37
2, 66133, Note_on_c, 0, 66, 40
2, 66251, Control_c, 0, 64, 127
2, 66451, Note_on_c, 0, 61, 0
2, 66470, Note_on_c, 0, 66, 0
2, 66499, Note_on_c, 0, 70, 0
2, 66571, Control_c, 0, 64, 0
2, 66603, Note_on_c, 0, 56, 0
2, 66648, Note_on_c, 0, 64, 44
2, 66649, Note_on_c, 0, 68, 38
2, 66653, Note_on_c, 0, 59, 28
2, 66665, Note_on_c, 0, 54, 33
2, 66781, Control_c, 0, 64, 127
2, 66803, Note_on_c, 0, 59, 0
2, 66886, Note_on_c, 0, 64, 0
2, 67142, Note_on_c, 0, 68, 0
2, 67149, Control_c, 0, 64, 0
2, 67177, Note_on_c, 0, 61, 45
2, 67195, Note_on_c, 0, 54, 0
2, 67200, Note_on_c, 0, 70, 49
2, 67213, Note_on_c, 0, 55, 40
2, 67232, Note_on_c, 0, 65, 54
2, 67758, Note_on_c, 0, 55, 0
2, 67790, Control_c, 0, 64, 127
2, 67814, Note_on_c, 0, 43, 25
2, 67965, Note_on_c, 0, 65, 0
2, 68187, Note_on_c, 0, 70, 0
2, 68248, Note_on_c, 0, 61, 0
2, 68342, Note_on_c, 0, 49, 25
2, 68789, Note_on_c, 0, 53, 35
2, 69075, Note_on_c, 0, 53, 0
2, 69142, Note_on_c, 0, 58, 57
2, 69440, Note_on_c, 0, 61, 55
2, 69510, Note_on_c, 0, 58, 0
2, 69741, Note_on_c, 0, 61, 0
2, 69800, Note_on_c, 0, 60, 71
2, 70449, Note_on_c, 0, 60, 0
2, 70509, Note_on_c, 0, 65, 71
2, 70997, Note_on_c, 0, 61, 62
2, 71006, Note_on_c, 0, 65, 0
2, 71257, Note_on_c, 0, 61, 0
2, 71840, Note_on_c, 0, 68, 77
2, 72216, Note_on_c, 0, 68, 0
2, 72237, Note_on_c, 0, 67, 64
2, 72280, Note_on_c, 0, 49, 0
2, 72288, Note_on_c, 0, 43, 0
2, 72600, Note_on_c, 0, 67, 0
2, 72649, Note_on_c, 0, 73, 69
2, 73110, Note_on_c, 0, 73, 0
2, 73133, Note_on_c, 0, 24, 42
2, 73134, Note_on_c, 0, 72, 71
2, 73150, Note_on_c, 0, 36, 33
2, 73195, Control_c, 0, 64, 0
2, 73577, Control_c, 0, 64, 127
2, 73664, Note_on_c, 0, 75, 71
2, 73669, Note_on_c, 0, 72, 0
2, 73721, Note_on_c, 0, 24, 0
2, 73832, Note_on_c, 0, 36, 0
2, 74184, Note_on_c, 0, 75, 0
2, 74201, Note_on_c, 0, 76, 68
2, 74750, Note_on_c, 0, 78, 62
2, 74776, Note_on_c, 0, 58, 37
2, 74782, Note_on_c, 0, 64, 24
2, 74800, Control_c, 0, 64, 0
2, 74894, Control_c, 0, 64, 127
2, 74955, Note_on_c, 0, 76, 0
2, 75257, Note_on_c, 0, 64, 0
2, 75307, Note_on_c, 0, 82, 67
2, 75334, Note_on_c, 0, 58, 0
2, 75403, Note_on_c, 0, 78, 0
2, 75856, Note_on_c, 0, 82, 0
2, 75905, Control_c, 0, 64, 0
2, 75910, Note_on_c, 0, 84, 53
2, 75928, Note_on_c, 0, 48, 42
2, 75997, Note_on_c, 0, 58, 19
2, 76065, Control_c, 0, 64, 127
2, 76173, Note_on_c, 0, 84, 0
2, 76297, Note_on_c, 0, 48, 0
2, 76480, Note_on_c, 0, 58, 0
2, 76504, Note_on_c, 0, 85, 48
2, 76853, Note_on_c, 0, 85, 0
2, 77141, Control_c, 0, 64, 0
2, 77145, Note_on_c, 0, 84, 36
2, 77165, Note_on_c, 0, 64, 26
2, 77189, Note_on_c, 0, 58, 32
2, 77206, Note_on_c, 0, 72, 24
2, 77283, Control_c, 0, 64, 127
2, 77395, Note_on_c, 0, 84, 0
2, 77574, Note_on_c, 0, 72, 0
2, 77733, Note_on_c, 0, 64, 0
2, 77817, Note_on_c, 0, 61, 27
2, 77832, Note_on_c, 0, 82, 33
2, 77875, Note_on_c, 0, 73, 25
2, 78049, Note_on_c, 0, 73, 0
2, 78073, Note_on_c, 0, 82, 0
2, 78568, Note_on_c, 0, 61, 0
2, 78582, Note_on_c, 0, 64, 34
2, 78592, Note_on_c, 0, 70, 28
2, 78595, Note_on_c, 0, 79, 42
2, 78825, Note_on_c, 0, 79, 0
2, 78961, Note_on_c, 0, 70, 0
2, 79409, Note_on_c, 0, 76, 33
2, 79430, Note_on_c, 0, 61, 30
2, 79475, Note_on_c, 0, 67, 25
2, 79517, Note_on_c, 0, 64, 0
2, 79717, Note_on_c, 0, 76, 0
2, 79808, Note_on_c, 0, 61, 0
2, 79832, Note_on_c, 0, 67, 0
2, 79862, Note_on_c, 0, 58, 0
2, 80427, Note_on_c, 0, 75, 46
2, 80461, Control_c, 0, 64, 0
2, 80475, Note_on_c, 0, 44, 30
2, 80504, Note_on_c, 0, 70, 31
2, 80521, Note_on_c, 0, 65, 22
2, 80717, Control_c, 0, 64, 127
2, 81198, Note_on_c, 0, 75, 0
2, 81203, Note_on_c, 0, 70, 0
2, 81208, Note_on_c, 0, 50, 37
2, 81315, Note_on_c, 0, 65, 0
2, 81789, Note_on_c, 0, 50, 0
2, 81904, Note_on_c, 0, 63, 37
2, 81913, Note_on_c, 0, 51, 23
2, 81920, Control_c, 0, 64, 0
2, 81966, Note_on_c, 0, 55, 20
2, 82001, Note_on_c, 0, 58, 29
2, 82014, Note_on_c, 0, 60, 22
2, 82176, Control_c, 0, 64, 127
2, 82475, Note_on_c, 0, 55, 0
2, 82566, Note_on_c, 0, 51, 0
2, 82576, Control_c, 0, 64, 0
2, 82625, Note_on_c, 0, 53, 51
2, 82753, Control_c, 0, 64, 127
2, 83217, Note_on_c, 0, 53, 0
2, 83238, Note_on_c, 0, 60, 0
2, 83245, Note_on_c, 0, 58, 0
2, 83518, Note_on_c, 0, 44, 0
2, 83558, Note_on_c, 0, 60, 49
2, 83587, Note_on_c, 0, 56, 57
2, 83669, Control_c, 0, 64, 0
2, 83955, Control_c, 0, 64, 127
2, 84217, Note_on_c, 0, 56, 0
2, 84222, Note_on_c, 0, 60, 0
2, 84337, Note_on_c, 0, 58, 57
2, 84357, Control_c, 0, 64, 0
2, 84534, Control_c, 0, 64, 127
2, 84821, Note_on_c, 0, 58, 0
2, 84969, Note_on_c, 0, 58, 36
2, 84981, Note_on_c, 0, 56, 48
2, 84993, Note_on_c, 0, 60, 29
2, 85393, Note_on_c, 0, 56, 0
2, 85561, Note_on_c, 0, 46, 49
2, 85901, Note_on_c, 0, 60, 0
2, 86033, Note_on_c, 0, 58, 0
2, 86089, Note_on_c, 0, 46, 0
2, 86131, Note_on_c, 0, 63, 0
2, 86152, Control_c, 0, 64, 0
2, 86161, Note_on_c, 0, 60, 40
2, 86206, Note_on_c, 0, 45, 51
2, 86209, Note_on_c, 0, 55, 18
2, 86489, Control_c, 0, 64, 127
2, 86581, Note_on_c, 0, 55, 0
2, 86725, Note_on_c, 0, 60, 0
2, 86736, Note_on_c, 0, 55, 45
2, 86789, Note_on_c, 0, 45, 0
2, 86893, Note_on_c, 0, 55, 0
2, 87230, Note_on_c, 0, 67, 54
2, 87249, Note_on_c, 0, 60, 43
2, 87459, Note_on_c, 0, 67, 0
2, 87601, Note_on_c, 0, 72, 71
2, 87613, Note_on_c, 0, 63, 49
2, 87830, Note_on_c, 0, 60, 0
2, 87845, Note_on_c, 0, 63, 0
2, 87859, Note_on_c, 0, 72, 0
2, 87888, Note_on_c, 0, 74, 79
2, 88173, Note_on_c, 0, 74, 0
2, 88198, Note_on_c, 0, 75, 82
2, 88491, Note_on_c, 0, 75, 0
2, 88552, Note_on_c, 0, 60, 50
2, 88558, Control_c, 0, 64, 0
2, 88576, Note_on_c, 0, 74, 71
2, 88595, Note_on_c, 0, 77, 69
2, 88606, Note_on_c, 0, 50, 33
2, 88958, Note_on_c, 0, 77, 0
2, 88977, Note_on_c, 0, 74, 0
2, 89077, Note_on_c, 0, 75, 62
2, 89081, Note_on_c, 0, 54, 42
2, 89093, Note_on_c, 0, 72, 53
2, 89408, Control_c, 0, 64, 127
2, 89805, Note_on_c, 0, 72, 0
2, 89873, Note_on_c, 0, 60, 0
2, 89949, Note_on_c, 0, 75, 0
2, 89952, Note_on_c, 0, 70, 43
2, 89957, Note_on_c, 0, 74, 59
2, 90025, Note_on_c, 0, 60, 24
2, 90243, Note_on_c, 0, 60, 0
2, 90288, Note_on_c, 0, 70, 0
2, 90393, Note_on_c, 0, 54, 0
2, 90419, Note_on_c, 0, 74, 0
2, 90443, Note_on_c, 0, 50, 0
2, 90449, Note_on_c, 0, 72, 50
2, 90477, Note_on_c, 0, 69, 30
2, 90750, Note_on_c, 0, 69, 0
2, 90808, Note_on_c, 0, 72, 0
2, 91029, Control_c, 0, 64, 0
2, 91101, Note_on_c, 0, 71, 44
2, 91134, Note_on_c, 0, 66, 36
2, 91142, Note_on_c, 0, 43, 27
2, 91150, Note_on_c, 0, 50, 26
2, 91270, Control_c, 0, 64, 127
2, 91339, Note_on_c, 0, 43, 0
2, 91377, Note_on_c, 0, 50, 0
2, 91720, Note_on_c, 0, 66, 0
2, 91960, Note_on_c, 0, 71, 0
2, 91965, Note_on_c, 0, 54, 38
2, 92025, Note_on_c, 0, 59, 33
2, 92229, Note_on_c, 0, 62, 2
2, 92630, Note_on_c, 0, 74, 74
2, 92931, Note_on_c, 0, 74, 0
2, 92953, Note_on_c, 0, 76, 74
2, 93009, Note_on_c, 0, 62, 0
2, 93213, Note_on_c, 0, 76, 0
2, 93230, Note_on_c, 0, 59, 0
2, 93275, Note_on_c, 0, 78, 72
2, 93296, Note_on_c, 0, 54, 0
2, 93531, Note_on_c, 0, 78, 0
2, 93611, Note_on_c, 0, 79, 66
2, 93859, Note_on_c, 0, 79, 0
2, 93883, Control_c, 0, 64, 0
2, 93953, Note_on_c, 0, 76, 54
2, 93958, Note_on_c, 0, 75, 28
2, 93973, Note_on_c, 0, 55, 28
2, 93977, Note_on_c, 0, 45, 36
2, 93984, Note_on_c, 0, 67, 20
2, 93985, Note_on_c, 0, 72, 26
2, 94123, Control_c, 0, 64, 127
2, 94473, Note_on_c, 0, 76, 0
2, 94598, Note_on_c, 0, 72, 0
2, 94680, Note_on_c, 0, 75, 0
2, 94821, Note_on_c, 0, 67, 0
2, 94840, Note_on_c, 0, 52, 34
2, 94862, Note_on_c, 0, 55, 0
2, 95765, Note_on_c, 0, 76, 57
2, 95853, Note_on_c, 0, 55, 18
2, 96045, Note_on_c, 0, 76, 0
2, 96104, Note_on_c, 0, 78, 54
2, 96342, Note_on_c, 0, 78, 0
2, 96392, Note_on_c, 0, 45, 0
2, 96430, Note_on_c, 0, 79, 64
2, 96681, Note_on_c, 0, 79, 0
2, 96744, Note_on_c, 0, 81, 70
2, 96973, Note_on_c, 0, 81, 0
2, 97075, Note_on_c, 0, 55, 0
2, 97075, Control_c, 0, 64, 0
2, 97078, Note_on_c, 0, 52, 0
2, 97109, Note_on_c, 0, 78, 52
2, 97115, Note_on_c, 0, 47, 41
2, 97142, Note_on_c, 0, 69, 33
2, 97174, Note_on_c, 0, 74, 38
2, 97299, Control_c, 0, 64, 127
2, 97545, Note_on_c, 0, 74, 0
2, 97589, Note_on_c, 0, 78, 0
2, 97685, Note_on_c, 0, 69, 0
2, 97781, Note_on_c, 0, 54, 36
2, 98473, Note_on_c, 0, 66, 46
2, 98488, Note_on_c, 0, 62, 34
2, 98517, Note_on_c, 0, 57, 38
2, 99059, Note_on_c, 0, 47, 0
2, 99208, Note_on_c, 0, 47, 34
2, 99478, Note_on_c, 0, 62, 0
2, 99585, Note_on_c, 0, 66, 0
2, 99587, Note_on_c, 0, 57, 0
2, 99771, Note_on_c, 0, 47, 0
2, 100062, Note_on_c, 0, 66, 44
2, 100078, Note_on_c, 0, 47, 34
2, 100085, Note_on_c, 0, 57, 34
2, 100110, Note_on_c, 0, 62, 43
2, 100633, Note_on_c, 0, 66, 0
2, 100801, Note_on_c, 0, 47, 0
2, 100910, Note_on_c, 0, 57, 0
2, 100934, Note_on_c, 0, 66, 48
2, 101051, Note_on_c, 0, 62, 0
2, 101093, Note_on_c, 0, 54, 0
2, 101174, Note_on_c, 0, 66, 0
2, 102014, Control_c, 0, 64, 0
2, 102024, Note_on_c, 0, 70, 39
2, 102038, Note_on_c, 0, 63, 38
2, 102062, Note_on_c, 0, 59, 26
2, 102065, Note_on_c, 0, 67, 42
2, 102078, Note_on_c, 0, 58, 21
2, 102093, Note_on_c, 0, 53, 24
2, 102094, Note_on_c, 0, 49, 25
2, 102384, Control_c, 0, 64, 127
2, 102657, Note_on_c, 0, 70, 0
2, 102888, Note_on_c, 0, 70, 53
2, 102917, Note_on_c, 0, 59, 0
2, 102966, Note_on_c, 0, 53, 0
2, 102977, Note_on_c, 0, 58, 0
2, 103040, Note_on_c, 0, 67, 0
2, 103073, Note_on_c, 0, 49, 0
2, 103310, Note_on_c, 0, 63, 0
2, 103669, Note_on_c, 0, 70, 0
2, 104819, Control_c, 0, 64, 0
2, 104864, Note_on_c, 0, 70, 32
2, 104877, Note_on_c, 0, 61, 29
2, 104902, Note_on_c, 0, 63, 37
2, 104942, Note_on_c, 0, 42, 31
2, 104947, Note_on_c, 0, 66, 35
2, 105601, Note_on_c, 0, 49, 37
2, 105672, Control_c, 0, 64, 127
2, 106040, Control_c, 0, 64, 0
2, 106104, Note_on_c, 0, 42, 0
2, 106133, Note_on_c, 0, 54, 46
2, 106136, Control_c, 0, 64, 127
2, 106166, Note_on_c, 0, 49, 0
2, 106573, Note_on_c, 0, 54, 0
2, 106597, Note_on_c, 0, 56, 64
2, 106705, Note_on_c, 0, 61, 0
2, 106717, Note_on_c, 0, 63, 0
2, 106749, Note_on_c, 0, 66, 0
2, 106950, Note_on_c, 0, 70, 0
2, 107161, Control_c, 0, 64, 0
2, 107163, Note_on_c, 0, 70, 52
2, 107182, Note_on_c, 0, 61, 42
2, 107185, Note_on_c, 0, 63, 47
2, 107189, Note_on_c, 0, 56, 0
2, 107198, Note_on_c, 0, 58, 46
2, 107211, Note_on_c, 0, 66, 44
2, 107481, Control_c, 0, 64, 127
2, 107747, Note_on_c, 0, 70, 0
2, 107750, Note_on_c, 0, 61, 0
2, 107785, Note_on_c, 0, 63, 0
2, 107822, Note_on_c, 0, 58, 0
2, 107833, Note_on_c, 0, 66, 0
2, 108061, Control_c, 0, 64, 0
2, 108125, Control_c, 0, 64, 127
2, 108632, Note_on_c, 0, 56, 65
2, 108635, Note_on_c, 0, 70, 67
2, 108643, Note_on_c, 0, 61, 74
2, 108645, Note_on_c, 0, 66, 72
2, 108798, Control_c, 0, 64, 0
2, 108942, Control_c, 0, 64, 127
2, 109238, Note_on_c, 0, 66, 0
2, 109241, Note_on_c, 0, 61, 0
2, 109254, Note_on_c, 0, 70, 0
2, 109342, Note_on_c, 0, 68, 59
2, 109358, Control_c, 0, 64, 0
2, 109371, Note_on_c, 0, 56, 0
2, 109377, Note_on_c, 0, 59, 55
2, 109381, Note_on_c, 0, 64, 61
2, 109382, Note_on_c, 0, 54, 56
2, 109520, Control_c, 0, 64, 127
2, 109606, Note_on_c, 0, 64, 0
2, 109678, Note_on_c, 0, 68, 0
2, 109785, Note_on_c, 0, 59, 0
2, 109888, Control_c, 0, 64, 0
2, 109889, Note_on_c, 0, 54, 0
2, 109928, Note_on_c, 0, 52, 50
2, 109945, Note_on_c, 0, 66, 61
2, 109977, Note_on_c, 0, 62, 54
2, 109981, Note_on_c, 0, 57, 55
2, 110049, Control_c, 0, 64, 127
2, 110131, Note_on_c, 0, 57, 0
2, 110176, Note_on_c, 0, 62, 0
2, 110222, Note_on_c, 0, 66, 0
2, 110342, Note_on_c, 0, 52, 0
2, 110643, Control_c, 0, 64, 0
2, 110645, Note_on_c, 0, 70, 45
2, 110656, Note_on_c, 0, 63, 58
2, 110661, Note_on_c, 0, 56, 52
2, 110667, Note_on_c, 0, 41, 50
2, 111075, Control_c, 0, 64, 127
2, 111365, Note_on_c, 0, 48, 52
2, 111686, Note_on_c, 0, 63, 0
2, 111857, Note_on_c, 0, 56, 0
2, 112016, Note_on_c, 0, 53, 45
2, 112693, Note_on_c, 0, 70, 0
2, 112725, Note_on_c, 0, 41, 0
2, 112745, Note_on_c, 0, 56, 44
2, 112750, Note_on_c, 0, 63, 37
2, 112753, Note_on_c, 0, 48, 0
2, 112755, Note_on_c, 0, 53, 0
2, 112929, Note_on_c, 0, 56, 0
2, 113232, Note_on_c, 0, 63, 0
2, 113416, Control_c, 0, 64, 0
2, 113552, Note_on_c, 0, 67, 37
2, 113555, Note_on_c, 0, 59, 35
2, 113566, Note_on_c, 0, 34, 34
2, 113571, Note_on_c, 0, 46, 31
2, 113577, Note_on_c, 0, 62, 32
2, 113657, Control_c, 0, 64, 127
2, 113787, Note_on_c, 0, 34, 0
2, 113843, Note_on_c, 0, 59, 0
2, 113894, Note_on_c, 0, 46, 0
2, 113947, Note_on_c, 0, 62, 0
2, 113989, Note_on_c, 0, 67, 0
2, 114483, Note_on_c, 0, 62, 44
2, 115425, Note_on_c, 0, 73, 47
2, 115472, Note_on_c, 0, 66, 23
2, 115497, Note_on_c, 0, 86, 46
2, 115534, Control_c, 0, 64, 0
2, 115536, Note_on_c, 0, 73, 0
2, 115569, Note_on_c, 0, 74, 47
2, 115677, Control_c, 0, 64, 127
2, 116849, Note_on_c, 0, 86, 0
2, 117032, Note_on_c, 0, 86, 52
2, 117059, Note_on_c, 0, 66, 0
2, 117145, Note_on_c, 0, 62, 0
2, 117923, Control_c, 0, 64, 0
2, 118000, Note_on_c, 0, 74, 0
2, 118022, Note_on_c, 0, 79, 30
2, 118030, Note_on_c, 0, 39, 36
2, 118163, Control_c, 0, 64, 127
2, 118305, Note_on_c, 0, 86, 0
2, 118438, Note_on_c, 0, 39, 0
2, 118461, Note_on_c, 0, 79, 0
2, 118475, Note_on_c, 0, 46, 39
2, 118766, Note_on_c, 0, 46, 0
2, 118864, Note_on_c, 0, 55, 35
2, 119301, Note_on_c, 0, 58, 44
2, 119333, Note_on_c, 0, 55, 0
2, 119773, Note_on_c, 0, 67, 50
2, 119782, Note_on_c, 0, 62, 28
2, 120275, Note_on_c, 0, 62, 0
2, 120473, Note_on_c, 0, 62, 40
2, 120643, Note_on_c, 0, 67, 0
2, 121019, Note_on_c, 0, 62, 0
2, 121270, Note_on_c, 0, 62, 27
2, 121288, Note_on_c, 0, 67, 41
2, 121664, Note_on_c, 0, 62, 0
2, 122054, Note_on_c, 0, 70, 83
2, 122150, Note_on_c, 0, 67, 0
2, 122709, Note_on_c, 0, 68, 67
2, 122825, Note_on_c, 0, 58, 0
2, 123341, Note_on_c, 0, 70, 0
2, 123360, Control_c, 0, 64, 0
2, 123361, Note_on_c, 0, 65, 64
2, 123365, Note_on_c, 0, 68, 0
2, 123395, Note_on_c, 0, 60, 33
2, 123397, Note_on_c, 0, 50, 25
2, 123398, Note_on_c, 0, 56, 23
2, 123713, Control_c, 0, 64, 127
2, 124001, Note_on_c, 0, 56, 0
2, 124213, Note_on_c, 0, 56, 25
2, 124376, Note_on_c, 0, 60, 0
2, 125024, Note_on_c, 0, 60, 20
2, 125797, Note_on_c, 0, 70, 47
2, 126333, Note_on_c, 0, 60, 0
2, 126376, Note_on_c, 0, 68, 38
2, 126462, Note_on_c, 0, 56, 0
2, 126480, Note_on_c, 0, 65, 0
2, 126509, Note_on_c, 0, 50, 0
2, 126960, Note_on_c, 0, 68, 0
2, 127217, Note_on_c, 0, 70, 0
2, 128363, Control_c, 0, 64, 0
2, 128376, Note_on_c, 0, 59, 30
2, 128377, Note_on_c, 0, 70, 31
2, 128384, Note_on_c, 0, 63, 35
2, 128405, Note_on_c, 0, 43, 29
2, 128429, Note_on_c, 0, 53, 30
2, 128453, Note_on_c, 0, 67, 28
2, 128747, Control_c, 0, 64, 127
2, 129001, Note_on_c, 0, 67, 0
2, 129189, Note_on_c, 0, 68, 32
2, 129429, Note_on_c, 0, 43, 0
2, 129510, Note_on_c, 0, 53, 0
2, 129608, Note_on_c, 0, 70, 0
2, 129678, Note_on_c, 0, 59, 0
2, 129785, Note_on_c, 0, 63, 0
2, 129798, Note_on_c, 0, 68, 0
2, 130192, Control_c, 0, 64, 0
2, 130237, Note_on_c, 0, 63, 32
2, 130243, Note_on_c, 0, 67, 27
2, 130245, Note_on_c, 0, 59, 26
2, 130277, Note_on_c, 0, 53, 24
2, 130278, Note_on_c, 0, 43, 25
2, 130449, Control_c, 0, 64, 127
2, 131414, Note_on_c, 0, 43, 0
2, 131464, Note_on_c, 0, 59, 0
2, 131584, Note_on_c, 0, 67, 0
2, 131672, Note_on_c, 0, 53, 0
2, 131733, Note_on_c, 0, 63, 0
2, 132397, Note_on_c, 0, 75, 52
2, 132584, Note_on_c, 0, 75, 0
2, 132630, Control_c, 0, 64, 0
2, 132721, Note_on_c, 0, 74, 60
2, 132753, Note_on_c, 0, 48, 31
2, 132998, Control_c, 0, 64, 127
2, 133277, Note_on_c, 0, 74, 0
2, 133408, Note_on_c, 0, 74, 13
2, 133424, Note_on_c, 0, 63, 33
2, 133437, Note_on_c, 0, 67, 32
2, 133470, Note_on_c, 0, 62, 29
2, 133478, Control_c, 0, 64, 0
2, 133752, Control_c, 0, 64, 127
2, 134377, Note_on_c, 0, 62, 0
2, 134509, Note_on_c, 0, 55, 18
2, 134654, Note_on_c, 0, 48, 0
2, 134891, Control_c, 0, 64, 0
2, 134910, Note_on_c, 0, 62, 42
2, 135067, Control_c, 0, 64, 127
2, 135416, Note_on_c, 0, 63, 0
2, 135606, Note_on_c, 0, 63, 39
2, 136080, Note_on_c, 0, 62, 0
2, 136240, Note_on_c, 0, 74, 0
2, 136273, Note_on_c, 0, 55, 0
2, 136427, Note_on_c, 0, 63, 0
2, 136657, Note_on_c, 0, 67, 0
2, 136720, Note_on_c, 0, 75, 54
2, 137072, Control_c, 0, 64, 0
2, 137141, Note_on_c, 0, 75, 0
2, 137184, Note_on_c, 0, 71, 41
2, 137197, Note_on_c, 0, 43, 25
2, 137360, Control_c, 0, 64, 127
2, 137537, Note_on_c, 0, 43, 0
2, 138798, Note_on_c, 0, 63, 27
2, 138822, Note_on_c, 0, 53, 27
2, 138856, Note_on_c, 0, 59, 32
2, 138899, Note_on_c, 0, 58, 29
2, 138984, Note_on_c, 0, 71, 0
2, 140353, Note_on_c, 0, 63, 0
2, 140409, Note_on_c, 0, 53, 0
2, 140417, Note_on_c, 0, 72, 32
2, 140502, Note_on_c, 0, 72, 0
2, 140547, Note_on_c, 0, 59, 0
2, 140605, Note_on_c, 0, 58, 0
2, 140718, Note_on_c, 0, 74, 68
2, 140830, Note_on_c, 0, 74, 0
2, 141029, Note_on_c, 0, 75, 87
2, 141200, Note_on_c, 0, 75, 0
2, 141352, Note_on_c, 0, 77, 89
2, 141449, Control_c, 0, 64, 0
2, 141573, Note_on_c, 0, 24, 43
2, 141654, Note_on_c, 0, 77, 0
2, 141787, Control_c, 0, 64, 127
2, 141833, Note_on_c, 0, 77, 75
2, 141899, Note_on_c, 0, 24, 0
2, 142390, Note_on_c, 0, 77, 0
2, 142504, Note_on_c, 0, 77, 60
2, 143075, Note_on_c, 0, 77, 0
2, 143251, Note_on_c, 0, 77, 50
2, 143261, Note_on_c, 0, 63, 29
2, 143280, Note_on_c, 0, 58, 36
2, 143286, Note_on_c, 0, 67, 30
2, 143321, Note_on_c, 0, 62, 35
2, 144144, Note_on_c, 0, 67, 0
2, 144198, Note_on_c, 0, 62, 0
2, 144269, Note_on_c, 0, 63, 0
2, 144293, Note_on_c, 0, 58, 0
2, 144400, Note_on_c, 0, 77, 0
2, 145056, Note_on_c, 0, 79, 26
2, 145261, Note_on_c, 0, 79, 0
2, 145310, Note_on_c, 0, 82, 51
2, 145589, Control_c, 0, 64, 0
2, 145624, Note_on_c, 0, 82, 0
2, 145627, Note_on_c, 0, 41, 34
2, 145705, Note_on_c, 0, 74, 36
2, 145845, Control_c, 0, 64, 127
2, 146048, Note_on_c, 0, 41, 0
2, 146286, Note_on_c, 0, 74, 0
2, 146344, Note_on_c, 0, 86, 55
2, 146521, Note_on_c, 0, 86, 0
2, 146685, Note_on_c, 0, 79, 44
2, 146710, Control_c, 0, 64, 0
2, 146840, Note_on_c, 0, 79, 0
2, 146998, Note_on_c, 0, 83, 54
2, 147176, Note_on_c, 0, 83, 0
2, 147313, Note_on_c, 0, 63, 31
2, 147325, Note_on_c, 0, 74, 35
2, 147326, Note_on_c, 0, 67, 29
2, 147331, Note_on_c, 0, 57, 34
2, 147345, Note_on_c, 0, 62, 34
2, 147480, Control_c, 0, 64, 127
2, 147549, Note_on_c, 0, 74, 0
2, 147681, Note_on_c, 0, 79, 40
2, 147875, Note_on_c, 0, 79, 0
2, 147973, Note_on_c, 0, 67, 0
2, 148344, Note_on_c, 0, 71, 57
2, 148459, Note_on_c, 0, 63, 0
2, 148592, Note_on_c, 0, 62, 0
2, 148686, Note_on_c, 0, 63, 37
2, 148819, Note_on_c, 0, 63, 0
2, 148901, Note_on_c, 0, 57, 0
2, 149280, Note_on_c, 0, 71, 0
2, 149424, Note_on_c, 0, 67, 31
2, 149510, Note_on_c, 0, 67, 0
2, 149797, Note_on_c, 0, 72, 58
2, 149816, Note_on_c, 0, 68, 46
2, 149821, Control_c, 0, 64, 0
2, 149822, Note_on_c, 0, 63, 48
2, 150443, Note_on_c, 0, 58, 35
2, 150726, Note_on_c, 0, 58, 0
2, 150784, Control_c, 0, 64, 127
2, 150856, Note_on_c, 0, 58, 28
2, 151190, Note_on_c, 0, 58, 0
2, 151521, Note_on_c, 0, 58, 35
2, 152497, Note_on_c, 0, 46, 36
2, 152517, Control_c, 0, 64, 0
2, 152627, Control_c, 0, 64, 127
2, 152821, Note_on_c, 0, 68, 0
2, 152856, Note_on_c, 0, 63, 0
2, 152937, Note_on_c, 0, 72, 0
2, 153251, Note_on_c, 0, 46, 0
2, 153259, Note_on_c, 0, 58, 0
2, 153595, Note_on_c, 0, 73, 32
2, 153614, Note_on_c, 0, 66, 39
2, 153622, Note_on_c, 0, 46, 34
2, 153635, Note_on_c, 0, 70, 39
2, 153640, Control_c, 0, 64, 0
2, 153645, Note_on_c, 0, 56, 29
2, 153864, Control_c, 0, 64, 127
2, 153981, Note_on_c, 0, 66, 0
2, 153997, Note_on_c, 0, 46, 0
2, 154013, Note_on_c, 0, 70, 0
2, 154040, Note_on_c, 0, 56, 0
2, 154099, Note_on_c, 0, 73, 0
2, 154571, Note_on_c, 0, 85, 63
2, 154584, Note_on_c, 0, 78, 65
2, 154801, Note_on_c, 0, 78, 0
2, 154838, Note_on_c, 0, 85, 0
2, 154894, Note_on_c, 0, 73, 39
2, 154904, Note_on_c, 0, 82, 42
2, 155107, Note_on_c, 0, 73, 0
2, 155198, Note_on_c, 0, 82, 0
2, 155272, Note_on_c, 0, 78, 38
2, 155275, Note_on_c, 0, 85, 44
2, 155353, Note_on_c, 0, 56, 29
2, 155390, Note_on_c, 0, 62, 27
2, 155542, Note_on_c, 0, 78, 0
2, 155550, Note_on_c, 0, 85, 0
2, 155624, Note_on_c, 0, 73, 33
2, 155665, Note_on_c, 0, 82, 32
2, 155675, Note_on_c, 0, 56, 0
2, 155821, Note_on_c, 0, 82, 0
2, 155835, Note_on_c, 0, 62, 0
2, 155856, Note_on_c, 0, 73, 0
2, 156000, Control_c, 0, 64, 0
2, 156025, Note_on_c, 0, 76, 44
2, 156030, Note_on_c, 0, 83, 43
2, 156045, Note_on_c, 0, 66, 23
2, 156057, Note_on_c, 0, 62, 22
2, 156059, Note_on_c, 0, 56, 27
2, 156193, Control_c, 0, 64, 127
2, 156347, Note_on_c, 0, 76, 0
2, 156381, Note_on_c, 0, 83, 0
2, 156384, Note_on_c, 0, 56, 0
2, 156414, Note_on_c, 0, 66, 0
2, 156456, Note_on_c, 0, 62, 0
2, 156641, Control_c, 0, 64, 0
2, 156648, Note_on_c, 0, 71, 44
2, 156656, Note_on_c, 0, 80, 39
2, 156678, Note_on_c, 0, 76, 34
2, 156723, Note_on_c, 0, 66, 18
2, 156737, Note_on_c, 0, 56, 25
2, 156755, Note_on_c, 0, 62, 20
2, 156827, Note_on_c, 0, 71, 0
2, 156865, Note_on_c, 0, 66, 0
2, 156872, Note_on_c, 0, 76, 0
2, 156909, Note_on_c, 0, 62, 0
2, 156910, Note_on_c, 0, 56, 0
2, 156931, Note_on_c, 0, 80, 0
2, 157331, Control_c, 0, 64, 127
2, 157349, Note_on_c, 0, 80, 32
2, 157355, Note_on_c, 0, 56, 34
2, 157358, Note_on_c, 0, 71, 37
2, 157365, Note_on_c, 0, 76, 38
2, 157381, Note_on_c, 0, 66, 21
2, 157409, Note_on_c, 0, 62, 29
2, 157725, Note_on_c, 0, 62, 0
2, 157761, Note_on_c, 0, 71, 0
2, 157830, Note_on_c, 0, 76, 0
2, 157880, Note_on_c, 0, 66, 0
2, 157977, Note_on_c, 0, 56, 0
2, 158011, Note_on_c, 0, 80, 0
2, 158038, Note_on_c, 0, 82, 53
2, 158053, Control_c, 0, 64, 0
2, 158061, Note_on_c, 0, 73, 33
2, 158075, Note_on_c, 0, 61, 32
2, 158078, Note_on_c, 0, 77, 47
2, 158121, Note_on_c, 0, 65, 29
2, 158123, Note_on_c, 0, 55, 24
2, 158229, Control_c, 0, 64, 127
2, 158382, Note_on_c, 0, 65, 0
2, 158425, Note_on_c, 0, 77, 0
2, 158448, Note_on_c, 0, 82, 0
2, 158462, Note_on_c, 0, 61, 0
2, 158469, Note_on_c, 0, 73, 0
2, 158486, Note_on_c, 0, 55, 0
2, 159078, Note_on_c, 0, 70, 55
2, 159097, Note_on_c, 0, 61, 51
2, 159099, Note_on_c, 0, 65, 60
2, 159105, Note_on_c, 0, 55, 43
2, 159176, Control_c, 0, 64, 0
2, 159417, Note_on_c, 0, 61, 0
2, 159443, Note_on_c, 0, 70, 0
2, 159504, Note_on_c, 0, 55, 0
2, 159550, Note_on_c, 0, 54, 40
2, 159571, Note_on_c, 0, 61, 19
2, 159577, Note_on_c, 0, 69, 37
2, 160005, Note_on_c, 0, 65, 0
2, 160067, Note_on_c, 0, 61, 0
2, 160187, Note_on_c, 0, 61, 50
2, 160197, Note_on_c, 0, 70, 56
2, 160198, Note_on_c, 0, 55, 45
2, 160230, Note_on_c, 0, 65, 47
2, 160310, Note_on_c, 0, 54, 0
2, 160345, Control_c, 0, 64, 127
2, 160414, Note_on_c, 0, 55, 0
2, 160470, Note_on_c, 0, 69, 0
2, 160504, Note_on_c, 0, 70, 0
2, 160552, Note_on_c, 0, 65, 0
2, 160640, Note_on_c, 0, 61, 0
2, 161181, Control_c, 0, 64, 0
2, 161203, Note_on_c, 0, 68, 45
2, 161205, Note_on_c, 0, 61, 33
2, 161213, Note_on_c, 0, 50, 34
2, 161219, Note_on_c, 0, 58, 30
2, 161230, Note_on_c, 0, 64, 42
2, 161485, Control_c, 0, 64, 127
2, 161549, Control_c, 0, 64, 0
2, 161557, Note_on_c, 0, 58, 0
2, 161561, Note_on_c, 0, 68, 0
2, 161585, Note_on_c, 0, 61, 0
2, 161593, Note_on_c, 0, 64, 0
2, 161665, Note_on_c, 0, 50, 0
2, 162200, Note_on_c, 0, 36, 39
2, 162235, Note_on_c, 0, 67, 44
2, 162241, Note_on_c, 0, 61, 31
2, 162257, Note_on_c, 0, 58, 23
2, 162259, Note_on_c, 0, 52, 26
2, 162270, Note_on_c, 0, 64, 35
2, 162400, Control_c, 0, 64, 127
2, 162533, Note_on_c, 0, 36, 0
2, 162537, Note_on_c, 0, 64, 0
2, 162541, Note_on_c, 0, 58, 0
2, 162597, Note_on_c, 0, 67, 0
2, 162625, Note_on_c, 0, 61, 0
2, 162696, Note_on_c, 0, 52, 0
2, 163201, Control_c, 0, 64, 0
2, 163265, Control_c, 0, 64, 127
2, 163280, Note_on_c, 0, 73, 51
2, 163304, Note_on_c, 0, 70, 60
2, 163307, Note_on_c, 0, 64, 66
2, 163309, Note_on_c, 0, 58, 52
2, 163342, Note_on_c, 0, 67, 37
2, 163409, Note_on_c, 0, 67, 0
2, 163448, Note_on_c, 0, 64, 0
2, 163517, Note_on_c, 0, 73, 0
2, 163526, Note_on_c, 0, 70, 0
2, 163603, Control_c, 0, 64, 0
2, 163720, Note_on_c, 0, 76, 54
2, 163726, Note_on_c, 0, 58, 0
2, 163742, Note_on_c, 0, 61, 47
2, 163742, Note_on_c, 0, 70, 37
2, 163785, Note_on_c, 0, 67, 30
2, 163825, Control_c, 0, 64, 127
2, 163859, Note_on_c, 0, 67, 0
2, 163896, Note_on_c, 0, 70, 0
2, 163904, Note_on_c, 0, 76, 0
2, 164347, Note_on_c, 0, 79, 64
2, 164355, Control_c, 0, 64, 0
2, 164385, Note_on_c, 0, 70, 42
2, 164390, Note_on_c, 0, 64, 57
2, 164411, Note_on_c, 0, 73, 31
2, 164441, Note_on_c, 0, 61, 0
2, 164547, Control_c, 0, 64, 127
2, 164680, Note_on_c, 0, 79, 0
2, 164739, Note_on_c, 0, 73, 0
2, 164808, Note_on_c, 0, 70, 0
2, 164897, Note_on_c, 0, 64, 0
2, 165393, Note_on_c, 0, 82, 55
2, 165408, Note_on_c, 0, 67, 43
2, 165408, Note_on_c, 0, 73, 35
2, 165433, Note_on_c, 0, 76, 41
2, 165477, Control_c, 0, 64, 0
2, 165736, Control_c, 0, 64, 127
2, 166043, Note_on_c, 0, 67, 0
2, 166059, Note_on_c, 0, 82, 0
2, 166185, Note_on_c, 0, 80, 55
2, 166315, Note_on_c, 0, 76, 0
2, 166342, Note_on_c, 0, 73, 0
2, 166462, Note_on_c, 0, 80, 0
2, 166533, Note_on_c, 0, 79, 30
2, 166702, Note_on_c, 0, 79, 0
2, 166745, Control_c, 0, 64, 0
2, 166873, Note_on_c, 0, 44, 31
2, 166875, Note_on_c, 0, 80, 36
2, 166917, Note_on_c, 0, 72, 22
2, 166953, Control_c, 0, 64, 127
2, 167336, Note_on_c, 0, 80, 0
2, 167469, Note_on_c, 0, 72, 0
2, 167550, Note_on_c, 0, 52, 35
2, 167691, Control_c, 0, 64, 0
2, 167925, Note_on_c, 0, 52, 0
2, 168029, Note_on_c, 0, 53, 31
2, 168633, Note_on_c, 0, 55, 39
2, 169033, Note_on_c, 0, 56, 59
2, 169144, Note_on_c, 0, 55, 0
2, 169374, Note_on_c, 0, 58, 60
2, 169443, Note_on_c, 0, 56, 0
2, 169622, Note_on_c, 0, 58, 0
2, 169685, Note_on_c, 0, 60, 70
2, 170049, Note_on_c, 0, 62, 59
2, 170051, Note_on_c, 0, 44, 0
2, 170099, Note_on_c, 0, 60, 0
2, 170203, Note_on_c, 0, 53, 0
2, 170345, Note_on_c, 0, 62, 0
2, 170355, Note_on_c, 0, 63, 62
2, 170553, Note_on_c, 0, 63, 0
2, 170659, Note_on_c, 0, 67, 66
2, 170664, Note_on_c, 0, 55, 33
2, 170678, Note_on_c, 0, 45, 33
2, 170985, Note_on_c, 0, 67, 0
2, 171029, Note_on_c, 0, 72, 40
2, 171043, Control_c, 0, 64, 127
2, 171072, Note_on_c, 0, 71, 25
2, 171073, Note_on_c, 0, 45, 0
2, 171155, Note_on_c, 0, 71, 0
2, 171214, Note_on_c, 0, 55, 0
2, 171294, Note_on_c, 0, 72, 0
2, 171309, Note_on_c, 0, 75, 69
2, 171525, Control_c, 0, 64, 0
2, 171529, Note_on_c, 0, 75, 0
2, 171593, Note_on_c, 0, 55, 43
2, 171597, Note_on_c, 0, 63, 65
2, 171624, Note_on_c, 0, 57, 45
2, 171657, Note_on_c, 0, 79, 71
2, 171665, Note_on_c, 0, 60, 29
2, 171941, Note_on_c, 0, 79, 0
2, 171992, Note_on_c, 0, 84, 78
2, 172198, Control_c, 0, 64, 127
2, 172216, Note_on_c, 0, 84, 0
2, 172301, Note_on_c, 0, 87, 83
2, 172355, Note_on_c, 0, 57, 0
2, 172374, Note_on_c, 0, 55, 0
2, 172397, Note_on_c, 0, 60, 0
2, 172453, Note_on_c, 0, 63, 0
2, 172553, Note_on_c, 0, 87, 0
2, 172664, Note_on_c, 0, 89, 88
2, 172758, Control_c, 0, 64, 0
2, 172901, Note_on_c, 0, 89, 0
2, 172966, Note_on_c, 0, 60, 30
2, 172973, Note_on_c, 0, 54, 37
2, 172995, Note_on_c, 0, 50, 24
2, 173041, Note_on_c, 0, 87, 57
2, 173208, Note_on_c, 0, 87, 0
2, 173360, Note_on_c, 0, 86, 55
2, 173440, Note_on_c, 0, 86, 0
2, 173750, Note_on_c, 0, 84, 47
2, 173830, Note_on_c, 0, 84, 0
2, 174390, Note_on_c, 0, 82, 47
2, 174545, Note_on_c, 0, 50, 0
2, 174573, Note_on_c, 0, 54, 0
2, 174614, Note_on_c, 0, 82, 0
2, 174683, Control_c, 0, 64, 127
2, 174702, Note_on_c, 0, 81, 50
2, 174824, Note_on_c, 0, 60, 0
2, 174923, Note_on_c, 0, 81, 0
2, 174973, Control_c, 0, 64, 0
2, 175606, Note_on_c, 0, 61, 33
2, 175608, Note_on_c, 0, 85, 68
2, 175640, Note_on_c, 0, 58, 43
2, 175672, Note_on_c, 0, 53, 22
2, 175822, Control_c, 0, 64, 127
2, 176121, Note_on_c, 0, 58, 0
2, 176382, Note_on_c, 0, 53, 0
2, 176397, Note_on_c, 0, 61, 0
2, 176616, Note_on_c, 0, 85, 0
2, 176715, Note_on_c, 0, 58, 40
2, 176875, Note_on_c, 0, 58, 0
2, 177061, Note_on_c, 0, 82, 56
2, 177083, Note_on_c, 0, 73, 33
2, 177107, Note_on_c, 0, 77, 50
2, 177121, Control_c, 0, 64, 0
2, 177165, Note_on_c, 0, 77, 0
2, 177203, Note_on_c, 0, 82, 0
2, 177219, Note_on_c, 0, 73, 0
2, 177755, Note_on_c, 0, 70, 39
2, 177774, Note_on_c, 0, 61, 48
2, 177781, Note_on_c, 0, 65, 60
2, 178133, Control_c, 0, 64, 127
2, 178752, Note_on_c, 0, 65, 0
2, 178862, Note_on_c, 0, 61, 0
2, 178928, Note_on_c, 0, 49, 25
2, 178982, Control_c, 0, 64, 0
2, 179083, Note_on_c, 0, 70, 0
2, 179248, Note_on_c, 0, 49, 0
2, 179281, Note_on_c, 0, 70, 35
2, 179291, Note_on_c, 0, 58, 36
2, 179326, Note_on_c, 0, 64, 36
2, 179360, Note_on_c, 0, 48, 35
2, 179448, Control_c, 0, 64, 127
2, 179728, Note_on_c, 0, 48, 0
2, 179896, Note_on_c, 0, 70, 0
2, 180027, Note_on_c, 0, 64, 0
2, 180080, Note_on_c, 0, 58, 0
2, 180403, Note_on_c, 0, 68, 39
2, 180416, Note_on_c, 0, 64, 40
2, 180445, Note_on_c, 0, 58, 19
2, 180845, Note_on_c, 0, 64, 0
2, 180909, Note_on_c, 0, 58, 0
2, 180985, Note_on_c, 0, 68, 0
2, 181113, Note_on_c, 0, 58, 35
2, 181131, Control_c, 0, 64, 0
2, 181147, Note_on_c, 0, 67, 35
2, 181149, Note_on_c, 0, 64, 42
2, 181150, Note_on_c, 0, 36, 28
2, 181469, Control_c, 0, 64, 127
2, 182165, Note_on_c, 0, 24, 44
2, 182317, Note_on_c, 0, 36, 0
2, 182341, Note_on_c, 0, 24, 0
2, 182342, Note_on_c, 0, 58, 0
2, 182672, Note_on_c, 0, 58, 18
2, 182693, Note_on_c, 0, 67, 0
2, 182704, Note_on_c, 0, 64, 0
2, 183313, Note_on_c, 0, 58, 0
2, 183363, Note_on_c, 0, 48, 28
2, 183616, Control_c, 0, 64, 0
2, 183617, Note_on_c, 0, 48, 0
2, 183728, Note_on_c, 0, 56, 38
2, 183733, Note_on_c, 0, 63, 42
2, 183734, Note_on_c, 0, 51, 37
2, 183781, Note_on_c, 0, 60, 36
2, 183793, Note_on_c, 0, 41, 22
2, 183905, Control_c, 0, 64, 127
2, 183907, Note_on_c, 0, 41, 0
2, 184150, Note_on_c, 0, 51, 0
2, 184153, Note_on_c, 0, 60, 0
2, 184184, Note_on_c, 0, 56, 0
2, 184310, Note_on_c, 0, 63, 0
2, 184422, Note_on_c, 0, 56, 62
2, 184424, Note_on_c, 0, 53, 36
2, 184425, Note_on_c, 0, 65, 61
2, 184430, Note_on_c, 0, 63, 21
2, 184445, Note_on_c, 0, 60, 56
2, 184590, Note_on_c, 0, 65, 0
2, 184672, Note_on_c, 0, 56, 0
2, 184697, Note_on_c, 0, 53, 0
2, 184705, Note_on_c, 0, 63, 0
2, 184715, Note_on_c, 0, 60, 0
2, 184771, Control_c, 0, 64, 0
2, 184825, Note_on_c, 0, 67, 75
2, 184827, Note_on_c, 0, 63, 50
2, 184829, Note_on_c, 0, 56, 70
2, 184830, Note_on_c, 0, 60, 70
2, 184845, Note_on_c, 0, 55, 66
2, 185061, Control_c, 0, 64, 127
2, 185349, Note_on_c, 0, 67, 0
2, 185357, Note_on_c, 0, 56, 0
2, 185400, Note_on_c, 0, 60, 0
2, 185429, Control_c, 0, 64, 0
2, 185494, Note_on_c, 0, 55, 0
2, 185510, Note_on_c, 0, 65, 49
2, 185513, Note_on_c, 0, 56, 36
2, 185515, Note_on_c, 0, 53, 41
2, 185694, Note_on_c, 0, 56, 0
2, 185806, Note_on_c, 0, 65, 0
2, 185827, Note_on_c, 0, 63, 0
2, 185920, Note_on_c, 0, 55, 38
2, 185925, Note_on_c, 0, 56, 36
2, 185926, Note_on_c, 0, 53, 0
2, 185936, Note_on_c, 0, 67, 39
2, 185958, Control_c, 0, 64, 127
2, 185963, Note_on_c, 0, 63, 9
2, 185968, Note_on_c, 0, 60, 34
2, 186291, Note_on_c, 0, 56, 0
2, 186310, Note_on_c, 0, 60, 0
2, 186381, Note_on_c, 0, 67, 0
2, 186536, Note_on_c, 0, 56, 53
2, 186553, Note_on_c, 0, 55, 0
2, 186569, Note_on_c, 0, 53, 37
2, 186574, Note_on_c, 0, 65, 46
2, 186669, Note_on_c, 0, 56, 0
2, 186729, Note_on_c, 0, 63, 0
2, 186766, Note_on_c, 0, 65, 0
2, 186872, Note_on_c, 0, 53, 0
2, 186977, Note_on_c, 0, 70, 70
2, 187009, Note_on_c, 0, 55, 44
2, 187166, Note_on_c, 0, 55, 0
2, 187225, Note_on_c, 0, 70, 0
2, 187625, Control_c, 0, 64, 0
2, 187648, Note_on_c, 0, 73, 59
2, 187664, Note_on_c, 0, 56, 60
2, 187670, Note_on_c, 0, 46, 52
2, 187673, Note_on_c, 0, 66, 70
2, 187675, Note_on_c, 0, 62, 71
2, 187675, Note_on_c, 0, 70, 64
2, 187982, Control_c, 0, 64, 127
2, 188318, Note_on_c, 0, 46, 0
2, 188633, Note_on_c, 0, 56, 0
2, 188657, Note_on_c, 0, 62, 0
2, 188686, Note_on_c, 0, 46, 62
2, 188862, Note_on_c, 0, 46, 0
2, 188872, Note_on_c, 0, 66, 0
2, 188921, Note_on_c, 0, 70, 0
2, 188997, Note_on_c, 0, 73, 0
2, 190341, Control_c, 0, 64, 0
2, 190369, Note_on_c, 0, 82, 55
2, 190390, Note_on_c, 0, 74, 43
2, 190398, Note_on_c, 0, 78, 37
2, 190430, Note_on_c, 0, 66, 20
2, 190437, Note_on_c, 0, 56, 29
2, 190470, Note_on_c, 0, 62, 33
2, 190547, Control_c, 0, 64, 127
2, 191470, Note_on_c, 0, 78, 0
2, 191635, Note_on_c, 0, 82, 0
2, 191654, Note_on_c, 0, 74, 0
2, 191889, Note_on_c, 0, 66, 0
2, 191917, Note_on_c, 0, 82, 35
2, 191973, Note_on_c, 0, 62, 0
2, 192094, Note_on_c, 0, 56, 0
2, 192166, Note_on_c, 0, 82, 0
2, 192243, Note_on_c, 0, 80, 34
2, 192393, Control_c, 0, 64, 0
2, 192481, Note_on_c, 0, 80, 0
2, 192573, Note_on_c, 0, 82, 34
2, 192577, Note_on_c, 0, 65, 30
2, 192622, Note_on_c, 0, 77, 33
2, 192629, Note_on_c, 0, 72, 28
2, 192638, Note_on_c, 0, 62, 29
2, 192649, Control_c, 0, 64, 127
2, 192672, Note_on_c, 0, 55, 9
2, 192862, Note_on_c, 0, 62, 0
2, 192872, Note_on_c, 0, 65, 0
2, 192896, Note_on_c, 0, 77, 0
2, 192909, Note_on_c, 0, 82, 0
2, 192989, Note_on_c, 0, 72, 0
2, 193027, Note_on_c, 0, 55, 0
2, 193577, Control_c, 0, 64, 0
2, 193672, Note_on_c, 0, 70, 37
2, 193715, Note_on_c, 0, 65, 41
2, 193720, Note_on_c, 0, 60, 26
2, 193726, Note_on_c, 0, 55, 24
2, 194189, Control_c, 0, 64, 127
2, 194309, Note_on_c, 0, 60, 0
2, 194317, Note_on_c, 0, 55, 0
2, 194357, Note_on_c, 0, 65, 0
2, 194385, Note_on_c, 0, 70, 0
2, 194393, Note_on_c, 0, 54, 32
2, 194590, Control_c, 0, 64, 0
2, 194765, Note_on_c, 0, 70, 49
2, 194768, Note_on_c, 0, 54, 0
2, 194777, Note_on_c, 0, 55, 33
2, 194793, Note_on_c, 0, 65, 45
2, 194795, Note_on_c, 0, 60, 35
2, 194942, Control_c, 0, 64, 127
2, 195257, Note_on_c, 0, 65, 0
2, 195342, Note_on_c, 0, 60, 0
2, 195477, Note_on_c, 0, 65, 43
2, 195781, Note_on_c, 0, 70, 0
2, 195843, Note_on_c, 0, 65, 0
2, 195896, Note_on_c, 0, 60, 42
2, 196515, Control_c, 0, 64, 0
2, 196517, Note_on_c, 0, 60, 0
2, 196553, Note_on_c, 0, 43, 38
2, 196582, Note_on_c, 0, 56, 67
2, 196771, Control_c, 0, 64, 127
2, 196857, Note_on_c, 0, 55, 0
2, 196976, Note_on_c, 0, 43, 0
2, 198043, Note_on_c, 0, 55, 58
2, 198177, Note_on_c, 0, 56, 0
2, 198259, Note_on_c, 0, 55, 0
2, 198406, Note_on_c, 0, 56, 61
2, 198633, Note_on_c, 0, 56, 0
2, 198792, Control_c, 0, 64, 0
2, 198819, Note_on_c, 0, 58, 83
2, 198833, Note_on_c, 0, 43, 40
2, 198841, Note_on_c, 0, 53, 49
2, 199110, Control_c, 0, 64, 127
2, 199510, Note_on_c, 0, 58, 0
2, 199547, Note_on_c, 0, 59, 67
2, 199753, Note_on_c, 0, 59, 0
2, 199889, Note_on_c, 0, 62, 81
2, 200049, Note_on_c, 0, 43, 0
2, 200073, Note_on_c, 0, 62, 0
2, 200238, Note_on_c, 0, 53, 0
2, 200277, Note_on_c, 0, 65, 91
2, 200632, Note_on_c, 0, 62, 53
2, 200637, Note_on_c, 0, 65, 0
2, 200880, Note_on_c, 0, 62, 0
2, 200957, Control_c, 0, 64, 0
2, 200993, Note_on_c, 0, 55, 40
2, 201006, Note_on_c, 0, 63, 82
2, 201021, Note_on_c, 0, 48, 45
2, 201229, Note_on_c, 0, 55, 0
2, 201374, Control_c, 0, 64, 127
2, 201515, Note_on_c, 0, 55, 48
2, 201989, Note_on_c, 0, 55, 0
2, 202128, Control_c, 0, 64, 0
2, 202259, Note_on_c, 0, 55, 61
2, 202320, Control_c, 0, 64, 127
2, 202577, Note_on_c, 0, 55, 0
2, 202814, Note_on_c, 0, 48, 0
2, 202841, Note_on_c, 0, 63, 0
2, 202923, Note_on_c, 0, 55, 58
2, 202944, Note_on_c, 0, 48, 47
2, 202977, Control_c, 0, 64, 0
2, 203131, Note_on_c, 0, 55, 0
2, 203409, Control_c, 0, 64, 127
2, 203473, Note_on_c, 0, 63, 84
2, 203790, Note_on_c, 0, 55, 50
2, 203947, Note_on_c, 0, 48, 0
2, 204043, Note_on_c, 0, 63, 0
2, 204067, Note_on_c, 0, 55, 0
2, 204120, Note_on_c, 0, 48, 44
2, 204421, Control_c, 0, 64, 0
2, 204432, Note_on_c, 0, 55, 60
2, 204608, Note_on_c, 0, 48, 0
2, 204629, Control_c, 0, 64, 127
2, 204843, Note_on_c, 0, 55, 0
2, 205075, Note_on_c, 0, 63, 80
2, 205088, Note_on_c, 0, 47, 73
2, 205192, Control_c, 0, 64, 0
2, 205601, Note_on_c, 0, 59, 60
2, 205605, Note_on_c, 0, 63, 0
2, 205851, Note_on_c, 0, 59, 0
2, 206240, Note_on_c, 0, 59, 38
2, 206280, Control_c, 0, 64, 127
2, 206614, Note_on_c, 0, 59, 0
2, 206694, Note_on_c, 0, 65, 47
2, 207054, Note_on_c, 0, 65, 0
2, 207331, Note_on_c, 0, 55, 38
2, 207480, Note_on_c, 0, 47, 0
2, 207597, Note_on_c, 0, 55, 0
2, 208209, Note_on_c, 0, 59, 36
2, 208582, Note_on_c, 0, 62, 44
2, 208944, Note_on_c, 0, 68, 43
2, 209008, Note_on_c, 0, 62, 0
2, 209107, Note_on_c, 0, 68, 0
2, 209136, Note_on_c, 0, 59, 0
2, 209273, Note_on_c, 0, 71, 60
2, 209457, Note_on_c, 0, 71, 0
2, 209641, Note_on_c, 0, 77, 83
2, 209869, Note_on_c, 0, 77, 0
2, 210029, Note_on_c, 0, 77, 71
2, 210051, Control_c, 0, 64, 0
2, 210376, Note_on_c, 0, 75, 56
2, 210449, Note_on_c, 0, 77, 0
2, 210710, Note_on_c, 0, 67, 46
2, 211099, Note_on_c, 0, 62, 43
2, 211558, Control_c, 0, 64, 127
2, 211739, Note_on_c, 0, 62, 0
2, 211849, Note_on_c, 0, 60, 44
2, 211966, Note_on_c, 0, 60, 0
2, 212085, Note_on_c, 0, 67, 0
2, 212355, Note_on_c, 0, 75, 0
2, 212552, Control_c, 0, 64, 0
2, 212635, Note_on_c, 0, 77, 57
2, 212654, Note_on_c, 0, 70, 46
2, 212677, Note_on_c, 0, 65, 39
2, 212680, Note_on_c, 0, 58, 37
2, 212693, Note_on_c, 0, 48, 32
2, 212824, Control_c, 0, 64, 127
2, 213093, Note_on_c, 0, 48, 0
2, 213142, Note_on_c, 0, 58, 0
2, 213281, Note_on_c, 0, 77, 0
2, 213341, Note_on_c, 0, 65, 0
2, 213345, Note_on_c, 0, 75, 52
2, 213541, Note_on_c, 0, 70, 0
2, 213549, Note_on_c, 0, 75, 0
2, 213977, Control_c, 0, 64, 0
2, 213985, Note_on_c, 0, 41, 32
2, 214035, Note_on_c, 0, 63, 42
2, 214038, Note_on_c, 0, 71, 46
2, 214075, Note_on_c, 0, 67, 36
2, 214078, Note_on_c, 0, 57, 40
2, 214101, Note_on_c, 0, 48, 34
2, 214205, Control_c, 0, 64, 127
2, 214425, Note_on_c, 0, 41, 0
2, 214441, Note_on_c, 0, 63, 0
2, 214528, Note_on_c, 0, 71, 0
2, 214536, Note_on_c, 0, 48, 0
2, 214561, Note_on_c, 0, 67, 0
2, 214645, Note_on_c, 0, 57, 0
2, 215613, Note_on_c, 0, 67, 42
2, 215633, Note_on_c, 0, 63, 45
2, 215635, Note_on_c, 0, 62, 42
2, 215638, Note_on_c, 0, 57, 40
2, 215696, Control_c, 0, 64, 0
2, 215904, Control_c, 0, 64, 127
2, 216253, Note_on_c, 0, 83, 78
2, 216401, Control_c, 0, 64, 0
2, 216587, Note_on_c, 0, 84, 58
2, 216608, Note_on_c, 0, 83, 0
2, 216750, Note_on_c, 0, 85, 51
2, 216769, Note_on_c, 0, 84, 0
2, 216925, Note_on_c, 0, 86, 74
2, 216950, Note_on_c, 0, 85, 0
2, 217021, Note_on_c, 0, 67, 0
2, 217085, Note_on_c, 0, 86, 0
2, 217102, Note_on_c, 0, 63, 0
2, 217286, Note_on_c, 0, 83, 76
2, 217409, Note_on_c, 0, 83, 0
2, 217645, Note_on_c, 0, 79, 44
2, 217649, Note_on_c, 0, 77, 42
2, 217717, Note_on_c, 0, 77, 0
2, 217761, Note_on_c, 0, 79, 0
2, 217989, Control_c, 0, 64, 127
2, 218267, Note_on_c, 0, 62, 0
2, 218320, Note_on_c, 0, 74, 44
2, 218334, Note_on_c, 0, 57, 0
2, 218537, Note_on_c, 0, 74, 0
2, 218662, Control_c, 0, 64, 0
2, 218688, Note_on_c, 0, 77, 69
2, 218721, Note_on_c, 0, 63, 38
2, 218728, Note_on_c, 0, 68, 48
2, 218741, Note_on_c, 0, 60, 40
2, 219048, Control_c, 0, 64, 127
2, 219075, Note_on_c, 0, 75, 44
2, 219790, Note_on_c, 0, 72, 43
2, 219814, Note_on_c, 0, 58, 56
2, 219873, Note_on_c, 0, 68, 0
2, 219952, Note_on_c, 0, 77, 0
2, 219968, Note_on_c, 0, 60, 0
2, 220008, Control_c, 0, 64, 0
2, 220075, Control_c, 0, 64, 127
2, 220110, Note_on_c, 0, 63, 0
2, 220168, Note_on_c, 0, 72, 0
2, 220208, Note_on_c, 0, 68, 42
2, 220291, Note_on_c, 0, 58, 0
2, 220403, Note_on_c, 0, 68, 0
2, 220408, Note_on_c, 0, 75, 0
2, 220853, Note_on_c, 0, 65, 55
2, 220886, Note_on_c, 0, 58, 46
2, 220955, Control_c, 0, 64, 0
2, 221117, Control_c, 0, 64, 127
2, 221405, Note_on_c, 0, 65, 0
2, 222264, Note_on_c, 0, 53, 37
2, 222286, Control_c, 0, 64, 0
2, 222592, Control_c, 0, 64, 127
2, 222744, Note_on_c, 0, 58, 0
2, 222944, Control_c, 0, 64, 0
2, 222982, Note_on_c, 0, 46, 50
2, 223069, Note_on_c, 0, 53, 0
2, 223137, Control_c, 0, 64, 127
2, 223193, Note_on_c, 0, 46, 0
2, 223640, Note_on_c, 0, 94, 53
2, 223643, Note_on_c, 0, 90, 54
2, 223773, Note_on_c, 0, 90, 0
2, 223777, Note_on_c, 0, 94, 0
2, 223928, Note_on_c, 0, 91, 64
2, 223939, Control_c, 0, 64, 0
2, 223968, Note_on_c, 0, 95, 35
2, 224048, Note_on_c, 0, 95, 0
2, 224083, Note_on_c, 0, 91, 0
2, 224174, Note_on_c, 0, 86, 36
2, 224201, Note_on_c, 0, 88, 26
2, 224261, Note_on_c, 0, 86, 0
2, 224265, Note_on_c, 0, 88, 0
2, 224385, Note_on_c, 0, 85, 42
2, 224400, Note_on_c, 0, 91, 36
2, 224542, Note_on_c, 0, 85, 0
2, 224560, Note_on_c, 0, 86, 47
2, 224565, Note_on_c, 0, 66, 28
2, 224584, Note_on_c, 0, 62, 27
2, 224590, Note_on_c, 0, 56, 36
2, 224664, Note_on_c, 0, 91, 0
2, 224726, Note_on_c, 0, 86, 0
2, 224792, Note_on_c, 0, 83, 53
2, 224925, Note_on_c, 0, 83, 0
2, 224997, Note_on_c, 0, 85, 29
2, 225001, Note_on_c, 0, 82, 34
2, 225174, Note_on_c, 0, 82, 0
2, 225205, Note_on_c, 0, 85, 0
2, 225219, Note_on_c, 0, 83, 44
2, 225297, Note_on_c, 0, 83, 0
2, 225329, Note_on_c, 0, 66, 0
2, 225398, Note_on_c, 0, 79, 35
2, 225568, Note_on_c, 0, 79, 0
2, 225574, Note_on_c, 0, 82, 25
2, 225648, Note_on_c, 0, 78, 14
2, 225707, Note_on_c, 0, 82, 0
2, 225710, Note_on_c, 0, 78, 0
2, 225955, Note_on_c, 0, 74, 59
2, 226109, Note_on_c, 0, 74, 0
2, 226144, Note_on_c, 0, 73, 53
2, 226256, Note_on_c, 0, 79, 18
2, 226270, Note_on_c, 0, 66, 37
2, 226341, Note_on_c, 0, 73, 0
2, 226445, Note_on_c, 0, 74, 29
2, 226465, Note_on_c, 0, 79, 0
2, 226507, Note_on_c, 0, 66, 0
2, 226526, Note_on_c, 0, 74, 0
2, 226803, Note_on_c, 0, 70, 34
2, 226880, Note_on_c, 0, 73, 12
2, 226965, Note_on_c, 0, 73, 0
2, 226977, Note_on_c, 0, 62, 0
2, 226990, Note_on_c, 0, 70, 0
2, 227062, Note_on_c, 0, 74, 24
2, 227081, Note_on_c, 0, 71, 17
2, 227113, Note_on_c, 0, 56, 0
2, 227209, Note_on_c, 0, 74, 0
2, 227254, Note_on_c, 0, 71, 0
2, 227289, Control_c, 0, 64, 127
2, 227345, Note_on_c, 0, 67, 30
2, 227542, Note_on_c, 0, 77, 75
2, 227627, Control_c, 0, 64, 0
2, 227648, Note_on_c, 0, 67, 0
2, 227769, Note_on_c, 0, 74, 56
2, 227886, Note_on_c, 0, 77, 0
2, 227997, Note_on_c, 0, 74, 0
2, 228462, Note_on_c, 0, 43, 47
2, 229392, Control_c, 0, 64, 127
2, 229477, Note_on_c, 0, 70, 48
2, 229488, Note_on_c, 0, 43, 0
2, 229502, Note_on_c, 0, 55, 43
2, 229513, Note_on_c, 0, 61, 33
2, 229526, Note_on_c, 0, 65, 47
2, 229739, Note_on_c, 0, 70, 0
2, 229808, Control_c, 0, 64, 0
2, 229811, Note_on_c, 0, 61, 0
2, 229915, Note_on_c, 0, 57, 50
2, 229923, Note_on_c, 0, 61, 37
2, 229966, Note_on_c, 0, 72, 27
2, 230142, Note_on_c, 0, 55, 0
2, 230147, Note_on_c, 0, 57, 0
2, 230185, Note_on_c, 0, 72, 0
2, 230307, Note_on_c, 0, 61, 0
2, 230317, Note_on_c, 0, 65, 0
2, 230597, Note_on_c, 0, 58, 62
2, 230613, Note_on_c, 0, 73, 56
2, 230627, Note_on_c, 0, 61, 52
2, 230632, Note_on_c, 0, 65, 57
2, 230814, Note_on_c, 0, 73, 0
2, 230856, Note_on_c, 0, 61, 0
2, 230942, Note_on_c, 0, 58, 0
2, 231005, Note_on_c, 0, 61, 37
2, 231009, Note_on_c, 0, 56, 45
2, 231030, Note_on_c, 0, 72, 31
2, 231125, Note_on_c, 0, 56, 0
2, 231155, Control_c, 0, 64, 127
2, 231390, Note_on_c, 0, 72, 0
2, 231448, Note_on_c, 0, 65, 0
2, 231605, Note_on_c, 0, 61, 0
2, 231662, Note_on_c, 0, 37, 46
2, 231877, Control_c, 0, 64, 0
2, 231878, Note_on_c, 0, 37, 0
2, 232011, Note_on_c, 0, 68, 51
2, 232019, Note_on_c, 0, 58, 46
2, 232051, Note_on_c, 0, 48, 36
2, 232065, Note_on_c, 0, 64, 57
2, 232099, Note_on_c, 0, 36, 37
2, 232149, Control_c, 0, 64, 127
2, 232437, Note_on_c, 0, 36, 0
2, 232707, Note_on_c, 0, 48, 0
2, 232752, Note_on_c, 0, 36, 60
2, 232965, Note_on_c, 0, 36, 0
2, 233190, Note_on_c, 0, 36, 54
2, 233235, Note_on_c, 0, 64, 0
2, 233342, Note_on_c, 0, 36, 0
2, 233549, Note_on_c, 0, 58, 0
2, 233608, Note_on_c, 0, 68, 0
2, 233853, Note_on_c, 0, 61, 56
2, 233865, Control_c, 0, 64, 0
2, 233870, Note_on_c, 0, 58, 57
2, 233893, Note_on_c, 0, 52, 45
2, 233896, Note_on_c, 0, 64, 53
2, 233901, Note_on_c, 0, 67, 39
2, 234123, Control_c, 0, 64, 127
2, 234357, Note_on_c, 0, 58, 0
2, 234597, Note_on_c, 0, 61, 0
2, 234616, Note_on_c, 0, 64, 0
2, 234621, Note_on_c, 0, 67, 0
2, 234926, Note_on_c, 0, 52, 0
2, 234941, Note_on_c, 0, 48, 41
2, 235128, Note_on_c, 0, 48, 0
2, 235262, Control_c, 0, 64, 0
2, 235310, Note_on_c, 0, 73, 62
2, 235325, Note_on_c, 0, 85, 61
2, 235437, Control_c, 0, 64, 127
2, 235849, Note_on_c, 0, 85, 0
2, 235869, Note_on_c, 0, 73, 0
2, 235950, Control_c, 0, 64, 0
2, 235960, Note_on_c, 0, 84, 57
2, 235968, Note_on_c, 0, 72, 51
2, 236208, Control_c, 0, 64, 127
2, 236254, Note_on_c, 0, 55, 28
2, 236257, Note_on_c, 0, 44, 28
2, 236427, Note_on_c, 0, 44, 0
2, 236510, Note_on_c, 0, 55, 0
2, 236875, Note_on_c, 0, 84, 0
2, 237040, Note_on_c, 0, 72, 0
2, 237337, Note_on_c, 0, 63, 32
2, 237350, Note_on_c, 0, 75, 48
2, 237376, Note_on_c, 0, 72, 40
2, 237411, Note_on_c, 0, 60, 32
2, 237683, Note_on_c, 0, 60, 0
2, 237800, Note_on_c, 0, 75, 0
2, 237808, Note_on_c, 0, 63, 0
2, 237886, Note_on_c, 0, 72, 0
2, 238405, Control_c, 0, 64, 0
2, 238422, Note_on_c, 0, 79, 58
2, 238433, Note_on_c, 0, 72, 57
2, 238441, Note_on_c, 0, 75, 45
2, 238449, Note_on_c, 0, 67, 37
2, 238472, Note_on_c, 0, 63, 63
2, 238629, Control_c, 0, 64, 127
2, 238859, Note_on_c, 0, 79, 0
2, 239032, Note_on_c, 0, 75, 0
2, 239097, Note_on_c, 0, 72, 0
2, 239133, Note_on_c, 0, 67, 0
2, 239400, Control_c, 0, 64, 0
2, 239416, Note_on_c, 0, 63, 0
2, 239454, Note_on_c, 0, 77, 54
2, 239456, Note_on_c, 0, 72, 60
2, 239469, Note_on_c, 0, 75, 43
2, 239475, Note_on_c, 0, 62, 48
2, 239480, Note_on_c, 0, 67, 45
2, 239576, Control_c, 0, 64, 127
2, 239774, Note_on_c, 0, 77, 0
2, 239925, Note_on_c, 0, 72, 0
2, 239952, Note_on_c, 0, 75, 0
2, 240128, Note_on_c, 0, 67, 0
2, 240288, Note_on_c, 0, 62, 0
2, 240313, Control_c, 0, 64, 0
2, 240454, Note_on_c, 0, 75, 59
2, 240459, Control_c, 0, 64, 127
2, 240477, Note_on_c, 0, 72, 63
2, 240489, Note_on_c, 0, 67, 53
2, 240502, Note_on_c, 0, 60, 51
2, 240825, Note_on_c, 0, 75, 0
2, 240837, Note_on_c, 0, 72, 0
2, 240925, Note_on_c, 0, 67, 0
2, 241363, Note_on_c, 0, 60, 0
2, 241371, Control_c, 0, 64, 0
2, 241491, Note_on_c, 0, 63, 43
2, 241501, Note_on_c, 0, 57, 35
2, 241505, Note_on_c, 0, 72, 36
2, 241507, Note_on_c, 0, 67, 48
2, 241517, Control_c, 0, 64, 127
2, 241861, Note_on_c, 0, 67, 0
2, 241920, Note_on_c, 0, 63, 0
2, 241923, Note_on_c, 0, 72, 0
2, 242398, Control_c, 0, 64, 0
2, 242489, Note_on_c, 0, 69, 42
2, 242504, Note_on_c, 0, 60, 43
2, 242515, Note_on_c, 0, 63, 34
2, 242539, Note_on_c, 0, 54, 35
2, 242542, Note_on_c, 0, 66, 43
2, 242558, Control_c, 0, 64, 127
2, 242577, Note_on_c, 0, 57, 0
2, 242752, Note_on_c, 0, 69, 0
2, 242777, Note_on_c, 0, 54, 0
2, 242832, Note_on_c, 0, 66, 0
2, 242886, Note_on_c, 0, 63, 0
2, 242897, Note_on_c, 0, 60, 0
2, 243408, Control_c, 0, 64, 0
2, 243513, Note_on_c, 0, 66, 34
2, 243529, Note_on_c, 0, 63, 36
2, 243533, Note_on_c, 0, 57, 28
2, 243569, Note_on_c, 0, 60, 34
2, 243585, Control_c, 0, 64, 127
2, 243915, Note_on_c, 0, 60, 0
2, 243976, Note_on_c, 0, 63, 0
2, 243984, Note_on_c, 0, 57, 0
2, 244097, Note_on_c, 0, 66, 0
2, 244193, Control_c, 0, 64, 0
2, 244211, Note_on_c, 0, 57, 42
2, 244238, Note_on_c, 0, 43, 27
2, 244245, Note_on_c, 0, 62, 38
2, 244254, Note_on_c, 0, 59, 34
2, 244259, Note_on_c, 0, 54, 32
2, 244499, Control_c, 0, 64, 127
2, 244883, Control_c, 0, 64, 0
2, 244905, Note_on_c, 0, 49, 38
2, 244918, Note_on_c, 0, 54, 0
2, 245109, Note_on_c, 0, 49, 0
2, 245249, Note_on_c, 0, 50, 38
2, 245293, Note_on_c, 0, 57, 0
2, 245342, Note_on_c, 0, 59, 0
2, 245398, Note_on_c, 0, 62, 0
2, 245622, Note_on_c, 0, 57, 46
2, 245638, Note_on_c, 0, 62, 35
2, 245640, Note_on_c, 0, 59, 36
2, 245744, Note_on_c, 0, 57, 0
2, 245785, Note_on_c, 0, 59, 0
2, 245832, Note_on_c, 0, 62, 0
2, 246262, Note_on_c, 0, 57, 42
2, 246264, Note_on_c, 0, 62, 40
2, 246291, Note_on_c, 0, 59, 24
2, 246435, Note_on_c, 0, 59, 0
2, 246465, Note_on_c, 0, 57, 0
2, 246552, Note_on_c, 0, 62, 0
2, 246643, Note_on_c, 0, 64, 50
2, 246659, Note_on_c, 0, 60, 55
2, 246669, Note_on_c, 0, 55, 39
2, 246824, Note_on_c, 0, 50, 0
2, 247261, Note_on_c, 0, 50, 58
2, 247435, Note_on_c, 0, 50, 0
2, 247723, Note_on_c, 0, 50, 30
2, 247817, Control_c, 0, 64, 127
2, 247928, Note_on_c, 0, 50, 0
2, 248382, Note_on_c, 0, 55, 0
2, 248401, Note_on_c, 0, 50, 66
2, 248541, Control_c, 0, 64, 0
2, 248576, Note_on_c, 0, 60, 0
2, 248669, Note_on_c, 0, 64, 0
2, 248833, Note_on_c, 0, 66, 67
2, 248843, Note_on_c, 0, 59, 71
2, 248849, Note_on_c, 0, 57, 73
2, 248856, Note_on_c, 0, 62, 64
2, 248929, Note_on_c, 0, 43, 0
2, 248969, Note_on_c, 0, 50, 0
2, 249230, Control_c, 0, 64, 127
2, 249488, Note_on_c, 0, 50, 89
2, 249813, Note_on_c, 0, 50, 0
2, 249904, Control_c, 0, 64, 0
2, 249973, Note_on_c, 0, 50, 83
2, 250176, Control_c, 0, 64, 127
2, 250361, Note_on_c, 0, 50, 0
2, 250566, Note_on_c, 0, 50, 88
2, 250859, Note_on_c, 0, 50, 0
2, 250901, Note_on_c, 0, 57, 0
2, 250920, Note_on_c, 0, 62, 0
2, 250955, Note_on_c, 0, 59, 0
2, 251099, Note_on_c, 0, 66, 0
2, 251539, Control_c, 0, 64, 0
2, 251595, Note_on_c, 0, 63, 74
2, 251606, Note_on_c, 0, 67, 67
2, 251609, Note_on_c, 0, 49, 50
2, 251611, Note_on_c, 0, 53, 54
2, 251613, Note_on_c, 0, 59, 71
2, 251845, Control_c, 0, 64, 127
2, 252638, Note_on_c, 0, 53, 0
2, 252752, Note_on_c, 0, 49, 0
2, 252813, Note_on_c, 0, 67, 0
2, 253003, Note_on_c, 0, 63, 0
2, 253003, Note_on_c, 0, 59, 0
2, 254081, Note_on_c, 0, 61, 32
2, 254118, Note_on_c, 0, 56, 69
2, 254139, Note_on_c, 0, 58, 59
2, 254203, Control_c, 0, 64, 0
2, 254865, Note_on_c, 0, 53, 34
2, 254872, Note_on_c, 0, 42, 45
2, 255177, Control_c, 0, 64, 127
2, 255984, Note_on_c, 0, 49, 55
2, 256230, Note_on_c, 0, 49, 0
2, 256544, Note_on_c, 0, 53, 0
2, 256701, Note_on_c, 0, 56, 0
2, 256757, Note_on_c, 0, 58, 0
2, 256781, Note_on_c, 0, 61, 0
2, 257195, Note_on_c, 0, 49, 39
2, 257414, Note_on_c, 0, 42, 0
2, 257537, Control_c, 0, 64, 0
2, 257566, Note_on_c, 0, 49, 0
2, 257582, Note_on_c, 0, 70, 42
2, 257590, Note_on_c, 0, 63, 45
2, 257608, Note_on_c, 0, 56, 36
2, 257638, Note_on_c, 0, 41, 48
2, 257939, Control_c, 0, 64, 127
2, 258291, Note_on_c, 0, 48, 47
2, 258705, Note_on_c, 0, 56, 0
2, 258718, Note_on_c, 0, 41, 0
2, 258749, Note_on_c, 0, 55, 37
2, 258750, Note_on_c, 0, 48, 0
2, 258949, Note_on_c, 0, 55, 0
2, 259211, Note_on_c, 0, 63, 0
2, 259342, Note_on_c, 0, 70, 0
2, 259448, Note_on_c, 0, 70, 14
2, 259457, Note_on_c, 0, 59, 41
2, 259462, Control_c, 0, 64, 0
2, 259472, Note_on_c, 0, 62, 38
2, 259475, Note_on_c, 0, 56, 39
2, 259486, Note_on_c, 0, 46, 36
2, 259497, Note_on_c, 0, 65, 37
2, 259718, Control_c, 0, 64, 127
2, 260265, Note_on_c, 0, 56, 0
2, 260518, Note_on_c, 0, 56, 50
2, 261174, Note_on_c, 0, 46, 0
2, 261352, Note_on_c, 0, 70, 0
2, 261622, Note_on_c, 0, 46, 44
2, 261637, Note_on_c, 0, 70, 52
2, 261744, Note_on_c, 0, 59, 0
2, 261878, Note_on_c, 0, 62, 0
2, 262003, Note_on_c, 0, 70, 0
2, 262014, Note_on_c, 0, 46, 0
2, 262053, Note_on_c, 0, 56, 0
2, 262080, Note_on_c, 0, 65, 0
2, 262109, Control_c, 0, 64, 0
2, 262155, Note_on_c, 0, 46, 43
2, 262174, Note_on_c, 0, 62, 41
2, 262177, Note_on_c, 0, 58, 37
2, 262195, Note_on_c, 0, 55, 30
2, 262205, Note_on_c, 0, 67, 42
2, 262381, Control_c, 0, 64, 127
2, 262585, Note_on_c, 0, 46, 0
2, 262867, Note_on_c, 0, 46, 40
2, 263155, Note_on_c, 0, 46, 0
2, 263305, Note_on_c, 0, 46, 40
2, 263384, Note_on_c, 0, 62, 0
2, 263515, Note_on_c, 0, 58, 0
2, 263595, Note_on_c, 0, 55, 0
2, 263809, Note_on_c, 0, 67, 0
2, 264033, Note_on_c, 0, 59, 57
2, 264230, Note_on_c, 0, 59, 0
2, 264267, Note_on_c, 0, 46, 0
2, 264561, Control_c, 0, 64, 0
2, 264609, Control_c, 0, 64, 127
2, 265118, Note_on_c, 0, 70, 77
2, 265129, Note_on_c, 0, 63, 78
2, 265131, Note_on_c, 0, 55, 58
2, 265133, Note_on_c, 0, 59, 78
2, 265491, Control_c, 0, 64, 0
2, 265505, Note_on_c, 0, 70, 0
2, 265528, Note_on_c, 0, 55, 0
2, 265616, Note_on_c, 0, 68, 53
2, 265619, Note_on_c, 0, 51, 42
2, 265765, Control_c, 0, 64, 127
2, 265789, Note_on_c, 0, 68, 0
2, 265819, Note_on_c, 0, 59, 0
2, 265821, Note_on_c, 0, 63, 0
2, 266270, Note_on_c, 0, 51, 0
2, 266278, Note_on_c, 0, 66, 49
2, 266301, Note_on_c, 0, 56, 53
2, 266310, Note_on_c, 0, 50, 40
2, 266326, Control_c, 0, 64, 0
2, 266331, Note_on_c, 0, 60, 50
2, 266424, Note_on_c, 0, 66, 0
2, 266449, Note_on_c, 0, 65, 61
2, 266886, Control_c, 0, 64, 127
2, 267310, Note_on_c, 0, 38, 59
2, 267405, Note_on_c, 0, 50, 0
2, 267523, Note_on_c, 0, 38, 0
2, 267576, Control_c, 0, 64, 0
2, 267731, Note_on_c, 0, 56, 0
2, 267760, Note_on_c, 0, 31, 42
2, 267769, Control_c, 0, 64, 127
2, 267790, Note_on_c, 0, 33, 37
2, 267837, Note_on_c, 0, 65, 0
2, 267838, Note_on_c, 0, 60, 0
2, 267873, Note_on_c, 0, 33, 0
2, 267875, Note_on_c, 0, 31, 0
2, 268561, Note_on_c, 0, 43, 63
2, 268651, Control_c, 0, 64, 0
2, 268715, Note_on_c, 0, 43, 0
2, 268777, Control_c, 0, 64, 127
2, 269673, Note_on_c, 0, 63, 71
2, 269675, Note_on_c, 0, 59, 60
2, 269681, Note_on_c, 0, 53, 58
2, 269902, Note_on_c, 0, 63, 0
2, 269957, Note_on_c, 0, 53, 0
2, 269974, Note_on_c, 0, 59, 0
2, 270121, Note_on_c, 0, 79, 24
2, 270265, Note_on_c, 0, 79, 0
2, 270457, Note_on_c, 0, 83, 58
2, 270584, Note_on_c, 0, 83, 0
2, 270736, Control_c, 0, 64, 0
2, 270776, Note_on_c, 0, 43, 48
2, 270793, Note_on_c, 0, 36, 66
2, 270813, Note_on_c, 0, 89, 88
2, 271024, Control_c, 0, 64, 127
2, 271117, Note_on_c, 0, 36, 0
2, 271182, Note_on_c, 0, 43, 0
2, 271253, Note_on_c, 0, 86, 47
2, 271261, Note_on_c, 0, 89, 0
2, 271437, Note_on_c, 0, 86, 0
2, 271577, Note_on_c, 0, 87, 79
2, 271891, Note_on_c, 0, 87, 0
2, 271907, Note_on_c, 0, 51, 74
2, 271910, Note_on_c, 0, 62, 81
2, 271921, Note_on_c, 0, 57, 79
2, 271949, Note_on_c, 0, 79, 44
2, 272051, Control_c, 0, 64, 0
2, 272245, Note_on_c, 0, 79, 0
2, 272323, Control_c, 0, 64, 127
2, 272333, Note_on_c, 0, 86, 71
2, 273017, Note_on_c, 0, 86, 0
2, 273128, Note_on_c, 0, 57, 0
2, 273237, Note_on_c, 0, 62, 0
2, 273286, Note_on_c, 0, 51, 0
2, 274014, Note_on_c, 0, 77, 87
2, 274022, Note_on_c, 0, 84, 78
2, 274029, Note_on_c, 0, 63, 65
2, 274053, Note_on_c, 0, 53, 45
2, 274069, Note_on_c, 0, 58, 58
2, 274072, Control_c, 0, 64, 0
2, 274280, Control_c, 0, 64, 127
2, 274320, Note_on_c, 0, 63, 0
2, 274433, Note_on_c, 0, 53, 0
2, 274435, Note_on_c, 0, 77, 0
2, 274462, Note_on_c, 0, 58, 0
2, 274485, Note_on_c, 0, 75, 47
2, 274688, Note_on_c, 0, 84, 0
2, 275121, Note_on_c, 0, 50, 44
2, 275310, Note_on_c, 0, 75, 0
2, 275323, Control_c, 0, 64, 0
2, 275515, Control_c, 0, 64, 127
2, 275526, Note_on_c, 0, 43, 38
2, 275571, Note_on_c, 0, 53, 30
2, 275577, Note_on_c, 0, 50, 0
2, 275728, Note_on_c, 0, 43, 0
2, 275801, Note_on_c, 0, 53, 0
2, 276285, Control_c, 0, 64, 0
2, 276291, Note_on_c, 0, 82, 62
2, 276318, Note_on_c, 0, 70, 55
2, 276321, Note_on_c, 0, 53, 53
2, 276350, Note_on_c, 0, 63, 53
2, 276361, Note_on_c, 0, 59, 42
2, 276782, Control_c, 0, 64, 127
2, 276857, Note_on_c, 0, 70, 0
2, 276867, Note_on_c, 0, 71, 58
2, 276896, Note_on_c, 0, 83, 47
2, 276926, Note_on_c, 0, 82, 0
2, 276969, Note_on_c, 0, 80, 5
2, 277518, Note_on_c, 0, 63, 0
2, 277566, Note_on_c, 0, 59, 0
2, 278121, Note_on_c, 0, 71, 0
2, 278227, Note_on_c, 0, 53, 0
2, 278574, Note_on_c, 0, 59, 46
2, 278576, Note_on_c, 0, 63, 56
2, 278601, Note_on_c, 0, 53, 31
2, 278637, Note_on_c, 0, 83, 0
2, 278729, Note_on_c, 0, 80, 0
2, 278734, Note_on_c, 0, 63, 0
2, 278816, Note_on_c, 0, 59, 0
2, 278869, Note_on_c, 0, 53, 0
2, 278977, Note_on_c, 0, 72, 32
2, 279153, Note_on_c, 0, 72, 0
2, 279297, Note_on_c, 0, 74, 35
2, 279449, Note_on_c, 0, 74, 0
2, 279629, Note_on_c, 0, 75, 79
2, 279749, Control_c, 0, 64, 0
2, 279840, Note_on_c, 0, 75, 0
2, 279974, Control_c, 0, 64, 127
2, 280008, Note_on_c, 0, 36, 57
2, 280032, Note_on_c, 0, 77, 91
2, 280033, Note_on_c, 0, 43, 34
2, 280158, Note_on_c, 0, 36, 0
2, 280233, Note_on_c, 0, 43, 0
2, 280584, Note_on_c, 0, 77, 0
2, 280737, Note_on_c, 0, 63, 56
2, 280744, Note_on_c, 0, 77, 87
2, 280750, Note_on_c, 0, 62, 50
2, 280757, Note_on_c, 0, 58, 55
2, 280758, Note_on_c, 0, 67, 63
2, 281105, Note_on_c, 0, 77, 0
2, 281227, Note_on_c, 0, 77, 65
2, 281597, Note_on_c, 0, 62, 0
2, 281667, Note_on_c, 0, 67, 0
2, 281670, Note_on_c, 0, 58, 0
2, 281733, Note_on_c, 0, 63, 0
2, 281737, Note_on_c, 0, 77, 0
2, 281841, Note_on_c, 0, 77, 67
2, 281861, Note_on_c, 0, 63, 40
2, 281869, Note_on_c, 0, 67, 52
2, 281875, Note_on_c, 0, 58, 46
2, 281910, Note_on_c, 0, 62, 51
2, 282441, Note_on_c, 0, 62, 0
2, 282493, Note_on_c, 0, 67, 0
2, 282528, Note_on_c, 0, 63, 0
2, 282553, Note_on_c, 0, 58, 0
2, 282894, Note_on_c, 0, 77, 0
2, 282918, Note_on_c, 0, 67, 50
2, 282923, Note_on_c, 0, 63, 46
2, 283005, Note_on_c, 0, 67, 0
2, 283131, Note_on_c, 0, 63, 0
2, 283675, Note_on_c, 0, 79, 29
2, 283939, Note_on_c, 0, 79, 0
2, 283993, Note_on_c, 0, 82, 64
2, 284333, Note_on_c, 0, 41, 30
2, 284341, Control_c, 0, 64, 0
2, 284353, Note_on_c, 0, 48, 34
2, 284393, Note_on_c, 0, 82, 0
2, 284395, Note_on_c, 0, 57, 41
2, 284411, Note_on_c, 0, 74, 52
2, 284565, Control_c, 0, 64, 127
2, 284595, Note_on_c, 0, 41, 0
2, 284661, Note_on_c, 0, 48, 0
2, 284736, Note_on_c, 0, 57, 0
2, 285105, Note_on_c, 0, 63, 44
2, 285107, Note_on_c, 0, 67, 50
2, 285115, Note_on_c, 0, 62, 38
2, 285153, Note_on_c, 0, 57, 30
2, 285248, Note_on_c, 0, 57, 0
2, 285278, Note_on_c, 0, 67, 0
2, 285296, Note_on_c, 0, 63, 0
2, 285310, Note_on_c, 0, 62, 0
2, 286152, Control_c, 0, 64, 0
2, 286195, Note_on_c, 0, 68, 63
2, 286211, Note_on_c, 0, 64, 50
2, 286217, Note_on_c, 0, 58, 59
2, 286230, Note_on_c, 0, 62, 50
2, 286457, Control_c, 0, 64, 127
2, 286595, Note_on_c, 0, 64, 0
2, 286651, Note_on_c, 0, 68, 0
2, 286653, Note_on_c, 0, 74, 0
2, 286670, Note_on_c, 0, 62, 0
2, 286710, Note_on_c, 0, 58, 0
2, 286809, Control_c, 0, 64, 0
2, 286813, Note_on_c, 0, 67, 50
2, 286822, Note_on_c, 0, 63, 46
2, 286824, Note_on_c, 0, 62, 55
2, 286854, Note_on_c, 0, 57, 42
2, 286921, Control_c, 0, 64, 127
2, 287464, Note_on_c, 0, 75, 95
2, 287809, Note_on_c, 0, 75, 0
2, 287928, Note_on_c, 0, 77, 83
2, 288088, Note_on_c, 0, 67, 0
2, 288097, Note_on_c, 0, 62, 0
2, 288118, Note_on_c, 0, 57, 0
2, 288176, Note_on_c, 0, 77, 0
2, 288219, Note_on_c, 0, 63, 0
2, 288542, Note_on_c, 0, 79, 92
2, 288808, Note_on_c, 0, 79, 0
2, 289000, Note_on_c, 0, 68, 56
2, 289008, Note_on_c, 0, 84, 74
2, 289009, Note_on_c, 0, 80, 56
2, 289014, Note_on_c, 0, 63, 49
2, 289016, Note_on_c, 0, 77, 63
2, 289019, Note_on_c, 0, 72, 64
2, 289022, Note_on_c, 0, 58, 50
2, 289024, Note_on_c, 0, 76, 54
2, 289035, Note_on_c, 0, 60, 41
2, 289041, Note_on_c, 0, 71, 53
2, 289059, Control_c, 0, 64, 0
2, 289070, Note_on_c, 0, 83, 27
2, 289077, Note_on_c, 0, 76, 0
2, 289105, Note_on_c, 0, 71, 0
2, 289123, Note_on_c, 0, 83, 0
2, 289653, Note_on_c, 0, 72, 0
2, 289680, Note_on_c, 0, 77, 0
2, 289710, Note_on_c, 0, 84, 0
2, 289757, Note_on_c, 0, 68, 0
2, 289760, Note_on_c, 0, 58, 0
2, 289803, Note_on_c, 0, 80, 0
2, 289808, Note_on_c, 0, 60, 0
2, 289853, Note_on_c, 0, 63, 0
2, 290763, Note_on_c, 0, 82, 60
2, 290769, Note_on_c, 0, 68, 52
2, 290795, Note_on_c, 0, 77, 65
2, 290798, Note_on_c, 0, 70, 52
2, 290806, Note_on_c, 0, 63, 53
2, 290811, Note_on_c, 0, 58, 42
2, 290822, Control_c, 0, 64, 127
2, 290825, Note_on_c, 0, 60, 37
2, 291113, Note_on_c, 0, 58, 0
2, 291371, Note_on_c, 0, 68, 0
2, 291373, Note_on_c, 0, 77, 0
2, 291414, Note_on_c, 0, 82, 0
2, 291445, Note_on_c, 0, 70, 0
2, 291693, Note_on_c, 0, 60, 0
2, 291875, Note_on_c, 0, 58, 56
2, 291965, Note_on_c, 0, 63, 0
2, 292128, Note_on_c, 0, 58, 0
2, 292328, Note_on_c, 0, 63, 55
2, 292787, Note_on_c, 0, 63, 0
2, 293013, Note_on_c, 0, 46, 44
2, 293105, Note_on_c, 0, 46, 0
2, 293357, Control_c, 0, 64, 0
2, 293451, Note_on_c, 0, 73, 34
2, 293461, Note_on_c, 0, 61, 30
2, 293475, Note_on_c, 0, 64, 34
2, 293480, Note_on_c, 0, 66, 37
2, 293483, Note_on_c, 0, 70, 44
2, 293499, Note_on_c, 0, 62, 36
2, 293629, Control_c, 0, 64, 127
2, 293670, Note_on_c, 0, 64, 0
2, 293752, Note_on_c, 0, 62, 0
2, 293867, Note_on_c, 0, 73, 0
2, 293878, Note_on_c, 0, 70, 0
2, 293880, Note_on_c, 0, 66, 0
2, 293881, Note_on_c, 0, 61, 0
2, 294030, Control_c, 0, 64, 0
2, 294104, Note_on_c, 0, 73, 35
2, 294115, Note_on_c, 0, 61, 48
2, 294142, Note_on_c, 0, 56, 45
2, 294147, Note_on_c, 0, 66, 47
2, 294160, Note_on_c, 0, 62, 38
2, 294165, Note_on_c, 0, 70, 44
2, 294310, Note_on_c, 0, 62, 0
2, 294441, Note_on_c, 0, 56, 0
2, 294467, Note_on_c, 0, 61, 0
2, 294469, Note_on_c, 0, 66, 0
2, 294470, Note_on_c, 0, 73, 0
2, 294489, Note_on_c, 0, 70, 0
2, 294592, Control_c, 0, 64, 127
2, 294977, Control_c, 0, 64, 0
2, 295137, Control_c, 0, 64, 127
2, 295238, Note_on_c, 0, 46, 44
2, 295381, Note_on_c, 0, 46, 0
2, 295651, Control_c, 0, 64, 0
2, 295718, Note_on_c, 0, 73, 37
2, 295737, Note_on_c, 0, 61, 51
2, 295744, Note_on_c, 0, 62, 24
2, 295755, Note_on_c, 0, 56, 37
2, 295781, Note_on_c, 0, 66, 44
2, 295784, Note_on_c, 0, 70, 42
2, 295891, Control_c, 0, 64, 127
2, 296208, Note_on_c, 0, 66, 0
2, 296216, Note_on_c, 0, 73, 0
2, 296235, Note_on_c, 0, 61, 0
2, 296245, Note_on_c, 0, 62, 0
2, 296249, Note_on_c, 0, 70, 0
2, 296299, Note_on_c, 0, 56, 0
2, 296417, Note_on_c, 0, 73, 44
2, 296421, Note_on_c, 0, 61, 57
2, 296437, Control_c, 0, 64, 0
2, 296454, Note_on_c, 0, 66, 57
2, 296464, Note_on_c, 0, 56, 45
2, 296467, Note_on_c, 0, 70, 43
2, 296477, Note_on_c, 0, 62, 43
2, 296558, Note_on_c, 0, 61, 0
2, 296653, Note_on_c, 0, 66, 0
2, 296675, Note_on_c, 0, 62, 0
2, 296737, Note_on_c, 0, 73, 0
2, 296741, Note_on_c, 0, 70, 0
2, 296784, Note_on_c, 0, 56, 0
2, 296837, Control_c, 0, 64, 127
2, 297238, Control_c, 0, 64, 0
2, 297515, Note_on_c, 0, 43, 47
2, 297622, Control_c, 0, 64, 127
2, 297659, Note_on_c, 0, 43, 0
2, 297977, Note_on_c, 0, 61, 49
2, 297984, Note_on_c, 0, 55, 37
2, 298008, Control_c, 0, 64, 0
2, 298008, Note_on_c, 0, 70, 39
2, 298017, Note_on_c, 0, 65, 51
2, 298232, Control_c, 0, 64, 127
2, 298489, Note_on_c, 0, 70, 0
2, 298542, Note_on_c, 0, 55, 0
2, 298560, Note_on_c, 0, 61, 0
2, 298561, Note_on_c, 0, 65, 0
2, 298665, Control_c, 0, 64, 0
2, 298675, Note_on_c, 0, 61, 51
2, 298678, Note_on_c, 0, 70, 59
2, 298699, Note_on_c, 0, 55, 34
2, 298717, Note_on_c, 0, 65, 54
2, 298777, Note_on_c, 0, 65, 0
2, 298787, Note_on_c, 0, 61, 0
2, 298833, Note_on_c, 0, 55, 0
2, 298859, Note_on_c, 0, 70, 0
2, 299115, Control_c, 0, 64, 127
2, 299661, Control_c, 0, 64, 0
2, 299808, Note_on_c, 0, 70, 90
2, 299811, Note_on_c, 0, 77, 81
2, 299817, Note_on_c, 0, 65, 76
2, 299822, Note_on_c, 0, 73, 60
2, 300045, Control_c, 0, 64, 127
2, 300305, Note_on_c, 0, 73, 0
2, 300310, Note_on_c, 0, 70, 0
2, 300373, Note_on_c, 0, 77, 0
2, 300449, Note_on_c, 0, 70, 44
2, 300454, Note_on_c, 0, 73, 39
2, 300467, Note_on_c, 0, 61, 52
2, 300643, Note_on_c, 0, 73, 0
2, 300673, Note_on_c, 0, 70, 0
2, 300681, Note_on_c, 0, 65, 0
2, 300926, Note_on_c, 0, 61, 0
2, 301184, Control_c, 0, 64, 0
2, 301197, Note_on_c, 0, 65, 59
2, 301222, Note_on_c, 0, 61, 42
2, 301294, Control_c, 0, 64, 127
2, 301377, Note_on_c, 0, 65, 0
2, 301440, Note_on_c, 0, 61, 0
2, 301865, Note_on_c, 0, 61, 44
2, 301877, Note_on_c, 0, 58, 40
2, 301880, Note_on_c, 0, 64, 50
2, 301888, Control_c, 0, 64, 0
2, 301896, Note_on_c, 0, 36, 34
2, 301936, Note_on_c, 0, 48, 32
2, 302129, Control_c, 0, 64, 127
2, 302288, Note_on_c, 0, 64, 0
2, 302339, Note_on_c, 0, 58, 0
2, 302363, Note_on_c, 0, 61, 0
2, 303091, Control_c, 0, 64, 0
2, 303150, Note_on_c, 0, 48, 0
2, 303181, Note_on_c, 0, 49, 47
2, 303398, Note_on_c, 0, 51, 38
2, 303400, Note_on_c, 0, 49, 0
2, 303472, Note_on_c, 0, 51, 0
2, 303507, Note_on_c, 0, 52, 48
2, 303638, Note_on_c, 0, 52, 0
2, 303680, Note_on_c, 0, 54, 60
2, 303769, Note_on_c, 0, 36, 0
2, 303797, Note_on_c, 0, 54, 0
2, 303833, Note_on_c, 0, 55, 51
2, 303984, Note_on_c, 0, 55, 0
2, 304011, Note_on_c, 0, 57, 51
2, 304126, Note_on_c, 0, 58, 65
2, 304142, Note_on_c, 0, 57, 0
2, 304232, Note_on_c, 0, 58, 0
2, 304305, Note_on_c, 0, 60, 46
2, 304405, Note_on_c, 0, 60, 0
2, 304425, Note_on_c, 0, 61, 40
2, 304571, Note_on_c, 0, 63, 46
2, 304584, Note_on_c, 0, 61, 0
2, 304681, Note_on_c, 0, 63, 0
2, 304741, Note_on_c, 0, 64, 54
2, 304813, Note_on_c, 0, 64, 0
2, 304893, Note_on_c, 0, 66, 47
2, 305014, Note_on_c, 0, 66, 0
2, 305035, Note_on_c, 0, 52, 24
2, 305045, Note_on_c, 0, 63, 28
2, 305057, Note_on_c, 0, 58, 39
2, 305097, Note_on_c, 0, 67, 49
2, 305299, Note_on_c, 0, 67, 0
2, 305309, Note_on_c, 0, 68, 46
2, 305366, Note_on_c, 0, 68, 0
2, 305488, Note_on_c, 0, 69, 13
2, 305561, Control_c, 0, 64, 127
2, 305563, Note_on_c, 0, 63, 0
2, 305601, Note_on_c, 0, 52, 0
2, 305605, Note_on_c, 0, 69, 0
2, 305629, Note_on_c, 0, 70, 34
2, 305661, Note_on_c, 0, 58, 0
2, 305736, Note_on_c, 0, 70, 0
2, 305776, Note_on_c, 0, 71, 32
2, 305901, Note_on_c, 0, 71, 0
2, 305942, Note_on_c, 0, 72, 50
2, 306065, Note_on_c, 0, 72, 0
2, 306195, Note_on_c, 0, 74, 60
2, 306251, Control_c, 0, 64, 0
2, 306257, Note_on_c, 0, 74, 0
2, 306385, Note_on_c, 0, 44, 46
2, 307053, Control_c, 0, 64, 127
2, 307056, Note_on_c, 0, 55, 58
2, 307057, Note_on_c, 0, 75, 73
2, 307144, Note_on_c, 0, 74, 34
2, 307184, Note_on_c, 0, 44, 0
2, 307317, Note_on_c, 0, 55, 0
2, 307640, Note_on_c, 0, 75, 0
2, 307699, Note_on_c, 0, 74, 0
2, 307848, Note_on_c, 0, 58, 43
2, 307861, Note_on_c, 0, 75, 31
2, 307933, Note_on_c, 0, 75, 0
2, 308091, Note_on_c, 0, 58, 0
2, 308206, Note_on_c, 0, 60, 24
2, 308371, Note_on_c, 0, 60, 0
2, 308384, Control_c, 0, 64, 0
2, 308531, Note_on_c, 0, 63, 69
2, 308539, Note_on_c, 0, 79, 58
2, 308545, Note_on_c, 0, 67, 63
2, 308553, Note_on_c, 0, 75, 50
2, 308555, Note_on_c, 0, 72, 62
2, 308673, Control_c, 0, 64, 127
2, 309048, Note_on_c, 0, 72, 0
2, 309049, Note_on_c, 0, 67, 0
2, 309057, Note_on_c, 0, 75, 0
2, 309088, Note_on_c, 0, 79, 0
2, 309197, Note_on_c, 0, 77, 37
2, 309198, Note_on_c, 0, 63, 0
2, 309208, Note_on_c, 0, 60, 53
2, 309238, Note_on_c, 0, 67, 34
2, 309245, Note_on_c, 0, 72, 47
2, 309424, Note_on_c, 0, 77, 0
2, 309480, Note_on_c, 0, 67, 0
2, 309539, Control_c, 0, 64, 0
2, 309557, Note_on_c, 0, 72, 0
2, 309577, Note_on_c, 0, 60, 0
2, 309624, Note_on_c, 0, 58, 47
2, 309673, Note_on_c, 0, 75, 35
2, 309683, Control_c, 0, 64, 127
2, 309718, Note_on_c, 0, 58, 0
2, 309801, Note_on_c, 0, 75, 0
2, 309944, Note_on_c, 0, 68, 29
2, 310022, Note_on_c, 0, 68, 0
2, 310181, Control_c, 0, 64, 0
2, 310229, Note_on_c, 0, 75, 59
2, 310248, Note_on_c, 0, 63, 52
2, 310269, Note_on_c, 0, 45, 59
2, 310280, Note_on_c, 0, 55, 42
2, 310373, Control_c, 0, 64, 127
2, 310432, Note_on_c, 0, 63, 0
2, 310445, Note_on_c, 0, 45, 0
2, 310507, Note_on_c, 0, 55, 0
2, 310601, Note_on_c, 0, 75, 0
2, 311257, Note_on_c, 0, 55, 46
2, 311262, Note_on_c, 0, 63, 70
2, 311277, Note_on_c, 0, 87, 76
2, 311278, Note_on_c, 0, 57, 51
2, 311280, Note_on_c, 0, 75, 81
2, 311294, Note_on_c, 0, 82, 69
2, 311321, Note_on_c, 0, 60, 30
2, 311464, Note_on_c, 0, 75, 0
2, 311510, Control_c, 0, 64, 0
2, 311513, Note_on_c, 0, 82, 0
2, 311515, Note_on_c, 0, 87, 0
2, 311675, Note_on_c, 0, 89, 62
2, 311681, Note_on_c, 0, 77, 58
2, 311721, Note_on_c, 0, 84, 41
2, 311795, Note_on_c, 0, 84, 0
2, 311808, Note_on_c, 0, 89, 0
2, 311824, Note_on_c, 0, 77, 0
2, 311987, Note_on_c, 0, 55, 0
2, 312008, Note_on_c, 0, 63, 0
2, 312027, Note_on_c, 0, 89, 44
2, 312029, Note_on_c, 0, 77, 46
2, 312032, Note_on_c, 0, 84, 49
2, 312038, Note_on_c, 0, 60, 0
2, 312045, Note_on_c, 0, 57, 0
2, 312097, Note_on_c, 0, 77, 0
2, 312107, Note_on_c, 0, 89, 0
2, 312173, Note_on_c, 0, 84, 0
2, 312323, Note_on_c, 0, 87, 56
2, 312344, Control_c, 0, 64, 127
2, 312352, Note_on_c, 0, 75, 39
2, 312459, Note_on_c, 0, 75, 0
2, 312515, Note_on_c, 0, 87, 0
2, 312617, Control_c, 0, 64, 0
2, 312678, Note_on_c, 0, 89, 55
2, 312683, Note_on_c, 0, 77, 56
2, 312693, Note_on_c, 0, 60, 41
2, 312699, Note_on_c, 0, 50, 34
2, 312720, Note_on_c, 0, 54, 33
2, 312817, Note_on_c, 0, 77, 0
2, 312822, Note_on_c, 0, 89, 0
2, 313016, Note_on_c, 0, 89, 53
2, 313035, Note_on_c, 0, 77, 55
2, 313083, Control_c, 0, 64, 127
2, 313129, Note_on_c, 0, 77, 0
2, 313152, Note_on_c, 0, 89, 0
2, 313336, Note_on_c, 0, 50, 0
2, 313344, Note_on_c, 0, 87, 53
2, 313352, Note_on_c, 0, 75, 53
2, 313363, Note_on_c, 0, 54, 0
2, 313432, Note_on_c, 0, 60, 0
2, 313496, Note_on_c, 0, 87, 0
2, 313504, Note_on_c, 0, 75, 0
2, 313709, Control_c, 0, 64, 0
2, 313718, Note_on_c, 0, 86, 55
2, 313742, Note_on_c, 0, 54, 45
2, 313750, Note_on_c, 0, 74, 40
2, 313760, Note_on_c, 0, 60, 34
2, 313934, Control_c, 0, 64, 127
2, 314029, Note_on_c, 0, 86, 0
2, 314040, Note_on_c, 0, 74, 0
2, 314387, Note_on_c, 0, 60, 0
2, 314395, Note_on_c, 0, 84, 43
2, 314421, Note_on_c, 0, 72, 44
2, 314485, Note_on_c, 0, 54, 0
2, 314536, Note_on_c, 0, 84, 0
2, 314549, Note_on_c, 0, 72, 0
2, 314825, Note_on_c, 0, 82, 62
2, 314837, Note_on_c, 0, 70, 50
2, 314864, Control_c, 0, 64, 0
2, 314931, Note_on_c, 0, 58, 31
2, 314952, Note_on_c, 0, 55, 13
2, 314953, Note_on_c, 0, 62, 24
2, 315136, Control_c, 0, 64, 127
2, 315342, Note_on_c, 0, 55, 0
2, 315408, Note_on_c, 0, 58, 0
2, 315408, Note_on_c, 0, 62, 0
2, 315473, Note_on_c, 0, 55, 51
2, 315520, Note_on_c, 0, 58, 36
2, 315742, Note_on_c, 0, 58, 0
2, 315747, Note_on_c, 0, 70, 0
2, 315752, Note_on_c, 0, 82, 0
2, 315928, Note_on_c, 0, 58, 54
2, 316065, Note_on_c, 0, 55, 0
2, 316078, Note_on_c, 0, 58, 0
2, 316598, Note_on_c, 0, 61, 76
2, 316613, Note_on_c, 0, 70, 74
2, 316621, Note_on_c, 0, 65, 74
2, 316649, Note_on_c, 0, 55, 63
2, 316675, Control_c, 0, 64, 0
2, 316963, Control_c, 0, 64, 127
2, 317411, Note_on_c, 0, 70, 0
2, 317483, Note_on_c, 0, 55, 0
2, 317547, Note_on_c, 0, 61, 0
2, 317645, Note_on_c, 0, 65, 0
2, 317745, Note_on_c, 0, 57, 60
2, 317750, Note_on_c, 0, 61, 60
2, 317752, Note_on_c, 0, 72, 64
2, 317763, Note_on_c, 0, 65, 46
2, 317877, Control_c, 0, 64, 0
2, 318069, Note_on_c, 0, 61, 0
2, 318083, Note_on_c, 0, 72, 0
2, 318182, Control_c, 0, 64, 127
2, 318205, Note_on_c, 0, 57, 0
2, 318213, Note_on_c, 0, 65, 0
2, 318227, Note_on_c, 0, 55, 34
2, 318237, Note_on_c, 0, 70, 45
2, 318513, Note_on_c, 0, 70, 0
2, 318776, Control_c, 0, 64, 0
2, 318805, Note_on_c, 0, 55, 0
2, 318835, Note_on_c, 0, 73, 46
2, 318843, Note_on_c, 0, 58, 56
2, 318865, Note_on_c, 0, 64, 48
2, 318869, Note_on_c, 0, 70, 45
2, 318889, Note_on_c, 0, 67, 40
2, 319144, Control_c, 0, 64, 127
2, 319333, Note_on_c, 0, 67, 0
2, 319382, Note_on_c, 0, 58, 0
2, 319406, Note_on_c, 0, 70, 0
2, 319413, Note_on_c, 0, 73, 0
2, 319563, Note_on_c, 0, 64, 0
2, 319825, Note_on_c, 0, 75, 55
2, 319827, Note_on_c, 0, 60, 48
2, 319845, Note_on_c, 0, 70, 49
2, 319848, Note_on_c, 0, 64, 45
2, 319856, Note_on_c, 0, 67, 36
2, 320022, Note_on_c, 0, 60, 0
2, 320048, Note_on_c, 0, 75, 0
2, 320141, Note_on_c, 0, 67, 0
2, 320200, Note_on_c, 0, 70, 0
2, 320261, Note_on_c, 0, 64, 0
2, 320734, Control_c, 0, 64, 0
2, 320808, Note_on_c, 0, 64, 50
2, 320817, Note_on_c, 0, 61, 46
2, 320835, Note_on_c, 0, 72, 29
2, 320841, Note_on_c, 0, 58, 39
2, 320897, Note_on_c, 0, 48, 24
2, 320915, Note_on_c, 0, 67, 19
2, 321070, Control_c, 0, 64, 127
2, 321096, Note_on_c, 0, 72, 0
2, 321136, Note_on_c, 0, 67, 0
2, 321139, Note_on_c, 0, 48, 0
2, 321142, Note_on_c, 0, 58, 0
2, 321149, Note_on_c, 0, 64, 0
2, 321176, Note_on_c, 0, 61, 0
2, 321758, Control_c, 0, 64, 0
2, 321838, Note_on_c, 0, 61, 39
2, 321840, Note_on_c, 0, 70, 47
2, 321845, Note_on_c, 0, 58, 42
2, 321867, Note_on_c, 0, 42, 36
2, 321886, Note_on_c, 0, 52, 28
2, 321888, Note_on_c, 0, 64, 40
2, 322129, Control_c, 0, 64, 127
2, 322133, Note_on_c, 0, 70, 0
2, 322184, Note_on_c, 0, 58, 0
2, 322205, Note_on_c, 0, 52, 0
2, 322206, Note_on_c, 0, 64, 0
2, 322251, Note_on_c, 0, 61, 0
2, 322325, Note_on_c, 0, 42, 0
2, 323283, Control_c, 0, 64, 0
2, 323304, Note_on_c, 0, 51, 42
2, 323326, Note_on_c, 0, 68, 42
2, 323331, Note_on_c, 0, 56, 37
2, 323333, Note_on_c, 0, 60, 44
2, 323345, Note_on_c, 0, 41, 37
2, 323347, Note_on_c, 0, 63, 44
2, 323619, Control_c, 0, 64, 127
2, 323872, Note_on_c, 0, 51, 0
2, 323989, Note_on_c, 0, 60, 0
2, 324021, Note_on_c, 0, 56, 0
2, 324121, Note_on_c, 0, 68, 0
2, 324181, Note_on_c, 0, 63, 0
2, 324342, Control_c, 0, 64, 0
2, 324414, Note_on_c, 0, 67, 55
2, 324429, Note_on_c, 0, 56, 39
2, 324445, Note_on_c, 0, 63, 39
2, 324467, Note_on_c, 0, 60, 36
2, 324614, Control_c, 0, 64, 127
2, 324851, Note_on_c, 0, 63, 0
2, 324877, Note_on_c, 0, 60, 0
2, 324893, Note_on_c, 0, 56, 0
2, 324968, Note_on_c, 0, 67, 0
2, 325078, Control_c, 0, 64, 0
2, 325142, Note_on_c, 0, 56, 34
2, 325147, Note_on_c, 0, 63, 36
2, 325155, Note_on_c, 0, 60, 45
2, 325192, Note_on_c, 0, 48, 31
2, 325384, Control_c, 0, 64, 127
2, 325469, Note_on_c, 0, 41, 0
2, 325529, Note_on_c, 0, 48, 0
2, 325645, Note_on_c, 0, 56, 0
2, 326126, Note_on_c, 0, 41, 45
2, 326150, Note_on_c, 0, 60, 0
2, 326377, Note_on_c, 0, 41, 0
2, 326533, Note_on_c, 0, 63, 0
2, 327645, Control_c, 0, 64, 0
2, 327681, Note_on_c, 0, 85, 57
2, 327685, Note_on_c, 0, 78, 60
2, 327693, Note_on_c, 0, 56, 36
2, 327710, Note_on_c, 0, 62, 26
2, 327837, Control_c, 0, 64, 127
2, 327993, Note_on_c, 0, 85, 0
2, 328027, Note_on_c, 0, 82, 39
2, 328083, Note_on_c, 0, 73, 15
2, 328181, Note_on_c, 0, 78, 0
2, 328224, Note_on_c, 0, 82, 0
2, 328259, Note_on_c, 0, 73, 0
2, 328350, Control_c, 0, 64, 0
2, 328405, Note_on_c, 0, 83, 54
2, 328422, Note_on_c, 0, 66, 36
2, 328435, Note_on_c, 0, 76, 40
2, 328656, Control_c, 0, 64, 127
2, 328811, Note_on_c, 0, 71, 40
2, 328833, Note_on_c, 0, 83, 0
2, 328878, Note_on_c, 0, 76, 0
2, 328953, Note_on_c, 0, 71, 0
2, 328974, Note_on_c, 0, 66, 0
2, 329049, Note_on_c, 0, 62, 0
2, 329117, Note_on_c, 0, 56, 0
2, 329569, Control_c, 0, 64, 0
2, 329710, Note_on_c, 0, 73, 62
2, 329723, Note_on_c, 0, 82, 61
2, 329752, Note_on_c, 0, 66, 28
2, 329758, Note_on_c, 0, 56, 36
2, 329830, Note_on_c, 0, 62, 18
2, 329923, Control_c, 0, 64, 127
2, 329998, Note_on_c, 0, 82, 0
2, 330021, Note_on_c, 0, 73, 0
2, 330089, Note_on_c, 0, 66, 0
2, 330147, Note_on_c, 0, 62, 0
2, 330451, Control_c, 0, 64, 0
2, 330488, Note_on_c, 0, 71, 37
2, 330493, Note_on_c, 0, 76, 36
2, 330494, Note_on_c, 0, 80, 47
2, 330517, Note_on_c, 0, 66, 34
2, 330563, Note_on_c, 0, 62, 29
2, 330755, Control_c, 0, 64, 127
2, 330881, Note_on_c, 0, 66, 0
2, 330883, Note_on_c, 0, 56, 0
2, 331025, Note_on_c, 0, 76, 0
2, 331110, Note_on_c, 0, 71, 0
2, 331115, Note_on_c, 0, 62, 0
2, 331171, Note_on_c, 0, 80, 0
2, 332086, Control_c, 0, 64, 0
2, 332110, Note_on_c, 0, 39, 48
2, 332440, Control_c, 0, 64, 127
2, 332819, Note_on_c, 0, 46, 29
2, 333049, Control_c, 0, 64, 0
2, 333225, Note_on_c, 0, 58, 44
2, 333248, Note_on_c, 0, 55, 27
2, 333272, Note_on_c, 0, 53, 20
2, 333600, Note_on_c, 0, 55, 0
2, 333616, Note_on_c, 0, 46, 0
2, 333621, Note_on_c, 0, 53, 0
2, 333696, Note_on_c, 0, 58, 0
2, 333888, Note_on_c, 0, 46, 40
2, 333904, Note_on_c, 0, 58, 36
2, 333913, Note_on_c, 0, 55, 38
2, 333929, Note_on_c, 0, 53, 31
2, 334088, Note_on_c, 0, 46, 0
2, 334110, Note_on_c, 0, 55, 0
2, 334115, Note_on_c, 0, 53, 0
2, 334182, Note_on_c, 0, 58, 0
2, 334353, Note_on_c, 0, 58, 25
2, 334365, Note_on_c, 0, 46, 34
2, 334371, Note_on_c, 0, 55, 35
2, 334385, Note_on_c, 0, 53, 22
2, 334509, Control_c, 0, 64, 127
2, 334545, Note_on_c, 0, 55, 0
2, 334547, Note_on_c, 0, 46, 0
2, 334569, Note_on_c, 0, 53, 0
2, 334614, Note_on_c, 0, 58, 0
2, 334958, Control_c, 0, 64, 0
2, 335057, Note_on_c, 0, 58, 50
2, 335061, Note_on_c, 0, 46, 33
2, 335085, Note_on_c, 0, 55, 37
2, 335091, Note_on_c, 0, 53, 31
2, 335310, Control_c, 0, 64, 127
2, 335409, Note_on_c, 0, 53, 0
2, 335416, Note_on_c, 0, 55, 0
2, 335440, Note_on_c, 0, 46, 0
2, 335509, Note_on_c, 0, 58, 0
2, 335528, Note_on_c, 0, 39, 0
2, 336016, Control_c, 0, 64, 0
2, 336080, Note_on_c, 0, 56, 47
2, 336105, Note_on_c, 0, 60, 42
2, 336113, Note_on_c, 0, 37, 37
2, 336118, Note_on_c, 0, 53, 29
2, 336137, Note_on_c, 0, 44, 36
2, 336241, Control_c, 0, 64, 127
2, 336256, Note_on_c, 0, 37, 0
2, 336320, Note_on_c, 0, 53, 0
2, 336430, Note_on_c, 0, 56, 0
2, 336445, Note_on_c, 0, 60, 0
2, 336790, Note_on_c, 0, 60, 51
2, 336824, Note_on_c, 0, 53, 22
2, 336955, Note_on_c, 0, 44, 0
2, 336963, Note_on_c, 0, 60, 0
2, 337011, Note_on_c, 0, 53, 0
2, 337139, Note_on_c, 0, 65, 53
2, 337344, Note_on_c, 0, 65, 0
2, 337845, Note_on_c, 0, 72, 49
2, 338070, Note_on_c, 0, 72, 0
2, 338169, Note_on_c, 0, 63, 60
2, 338197, Note_on_c, 0, 53, 37
2, 338198, Note_on_c, 0, 58, 62
2, 338229, Control_c, 0, 64, 0
2, 338374, Control_c, 0, 64, 127
2, 338598, Note_on_c, 0, 77, 60
2, 338784, Note_on_c, 0, 77, 0
2, 338937, Note_on_c, 0, 80, 68
2, 339073, Note_on_c, 0, 80, 0
2, 339259, Note_on_c, 0, 84, 66
2, 339488, Note_on_c, 0, 63, 0
2, 339497, Note_on_c, 0, 84, 0
2, 339576, Note_on_c, 0, 58, 0
2, 339592, Note_on_c, 0, 53, 0
2, 339608, Note_on_c, 0, 87, 62
2, 339853, Note_on_c, 0, 87, 0
2, 339952, Note_on_c, 0, 89, 60
2, 340214, Note_on_c, 0, 89, 0
2, 340267, Control_c, 0, 64, 0
2, 340336, Note_on_c, 0, 46, 49
2, 340341, Note_on_c, 0, 39, 57
2, 340342, Note_on_c, 0, 91, 75
2, 340507, Control_c, 0, 64, 127
2, 340622, Note_on_c, 0, 39, 0
2, 340693, Note_on_c, 0, 46, 0
2, 340696, Note_on_c, 0, 91, 0
2, 340710, Note_on_c, 0, 86, 48
2, 341003, Note_on_c, 0, 86, 0
2, 341069, Control_c, 0, 64, 0
2, 341083, Note_on_c, 0, 89, 68
2, 341086, Note_on_c, 0, 65, 58
2, 341099, Note_on_c, 0, 60, 44
2, 341104, Note_on_c, 0, 55, 40
2, 341293, Control_c, 0, 64, 127
2, 341830, Note_on_c, 0, 89, 0
2, 341910, Note_on_c, 0, 82, 57
2, 342569, Note_on_c, 0, 82, 0
2, 342616, Note_on_c, 0, 84, 60
2, 343301, Note_on_c, 0, 79, 30
2, 343325, Note_on_c, 0, 84, 0
2, 343870, Note_on_c, 0, 65, 0
2, 343894, Note_on_c, 0, 60, 0
2, 343955, Note_on_c, 0, 79, 0
2, 343989, Note_on_c, 0, 82, 51
2, 343990, Note_on_c, 0, 55, 0
2, 344611, Control_c, 0, 64, 0
2, 344665, Note_on_c, 0, 37, 46
2, 344693, Note_on_c, 0, 77, 20
2, 344837, Control_c, 0, 64, 127
2, 345089, Note_on_c, 0, 82, 0
2, 345123, Note_on_c, 0, 77, 0
2, 345189, Note_on_c, 0, 37, 0
2, 345750, Note_on_c, 0, 44, 34
2, 346197, Note_on_c, 0, 44, 0
2, 346251, Note_on_c, 0, 53, 22
2, 346865, Note_on_c, 0, 53, 0
2, 346875, Note_on_c, 0, 56, 35
2, 346878, Note_on_c, 0, 63, 36
2, 346889, Control_c, 0, 64, 0
2, 346904, Note_on_c, 0, 60, 33
2, 346925, Note_on_c, 0, 65, 40
2, 347310, Note_on_c, 0, 56, 0
2, 347329, Note_on_c, 0, 58, 44
2, 347617, Note_on_c, 0, 58, 0
2, 347705, Note_on_c, 0, 56, 37
2, 347933, Control_c, 0, 64, 127
2, 348025, Note_on_c, 0, 56, 0
2, 348045, Note_on_c, 0, 58, 42
2, 348400, Note_on_c, 0, 58, 0
2, 348480, Note_on_c, 0, 56, 30
2, 348781, Note_on_c, 0, 56, 0
2, 348803, Note_on_c, 0, 58, 40
2, 349118, Note_on_c, 0, 58, 0
2, 349144, Note_on_c, 0, 60, 0
2, 349181, Note_on_c, 0, 56, 39
2, 349288, Note_on_c, 0, 65, 0
2, 349371, Note_on_c, 0, 63, 0
2, 349467, Note_on_c, 0, 56, 0
2, 349536, Control_c, 0, 64, 0
2, 349542, Note_on_c, 0, 55, 34
2, 349552, Note_on_c, 0, 58, 36
2, 349561, Note_on_c, 0, 62, 44
2, 349589, Note_on_c, 0, 65, 32
2, 349968, Control_c, 0, 64, 127
2, 350331, Note_on_c, 0, 51, 33
2, 350333, Note_on_c, 0, 55, 0
2, 350475, Note_on_c, 0, 51, 0
2, 350848, Note_on_c, 0, 46, 35
2, 350883, Control_c, 0, 64, 0
2, 351189, Control_c, 0, 64, 127
2, 351461, Control_c, 0, 64, 0
2, 351510, Note_on_c, 0, 39, 45
2, 351513, Note_on_c, 0, 46, 0
2, 351521, Note_on_c, 0, 53, 32
2, 351531, Note_on_c, 0, 55, 25
2, 351653, Control_c, 0, 64, 127
2, 352725, Note_on_c, 0, 46, 36
2, 352939, Note_on_c, 0, 46, 0
2, 353197, Note_on_c, 0, 62, 0
2, 353216, Note_on_c, 0, 46, 30
2, 353262, Note_on_c, 0, 65, 0
2, 353294, Note_on_c, 0, 53, 0
2, 353296, Note_on_c, 0, 55, 0
2, 353392, Note_on_c, 0, 46, 0
2, 353445, Note_on_c, 0, 39, 0
2, 353529, Note_on_c, 0, 58, 0
2, 353942, Note_on_c, 0, 63, 38
2, 353995, Control_c, 0, 64, 0
2, 354000, Note_on_c, 0, 56, 45
2, 354016, Note_on_c, 0, 53, 25
2, 354022, Note_on_c, 0, 37, 33
2, 354025, Note_on_c, 0, 44, 31
2, 354235, Control_c, 0, 64, 127
2, 354317, Note_on_c, 0, 53, 0
2, 354397, Note_on_c, 0, 56, 0
2, 354445, Note_on_c, 0, 63, 0
2, 354813, Note_on_c, 0, 68, 52
2, 354819, Note_on_c, 0, 75, 48
2, 355325, Note_on_c, 0, 68, 0
2, 355352, Note_on_c, 0, 75, 0
2, 355547, Note_on_c, 0, 72, 33
2, 355710, Note_on_c, 0, 72, 0
2, 356222, Note_on_c, 0, 80, 53
2, 356233, Note_on_c, 0, 87, 49
2, 356445, Note_on_c, 0, 80, 0
2, 356510, Note_on_c, 0, 87, 0
2, 357008, Note_on_c, 0, 99, 53
2, 357017, Note_on_c, 0, 92, 36
2, 357425, Note_on_c, 0, 44, 0
2, 357510, Note_on_c, 0, 37, 0
2, 357574, Note_on_c, 0, 92, 0
2, 357673, Note_on_c, 0, 99, 0
2, 357864, Note_on_c, 0, 96, 33
2, 357907, Note_on_c, 0, 89, 17
2, 358080, Note_on_c, 0, 96, 0
2, 358099, Note_on_c, 0, 89, 0
2, 359006, Note_on_c, 0, 27, 38
2, 359222, Note_on_c, 0, 91, 43
2, 359248, Note_on_c, 0, 39, 28
2, 359272, Control_c, 0, 64, 0
2, 359283, Note_on_c, 0, 96, 43
2, 359355, Note_on_c, 0, 98, 40
2, 359454, Note_on_c, 0, 103, 34
2, 359478, Control_c, 0, 64, 127
2, 360342, Note_on_c, 0, 96, 0
2, 360342, Note_on_c, 0, 91, 0
2, 360352, Note_on_c, 0, 27, 0
2, 360365, Note_on_c, 0, 103, 0
2, 360385, Note_on_c, 0, 98, 0
2, 360427, Note_on_c, 0, 39, 0
2, 364241, Control_c, 0, 64, 0
2, 364241, End_track
0, 0, End_of_file
