0, 0, Header, 1, 5, 384
1, 0, Start_track
1, 0, Title_t, "Spain"
1, 0, Text_t, "Sequence by Doug McKenzie (dougmck@pipeline.com.au) Jan 1999\012"
1, 0, Text_t, "                 \012"
1, 0, MIDI_port, 0
1, 0, System_exclusive, 5, 126, 127, 9, 1, 247
1, 0, System_exclusive, 8, 67, 115, 1, 17, 15, 89, 0, 247
1, 0, MIDI_port, 0
1, 0, Time_signature, 4, 2, 24, 8
1, 0, Key_signature, 2, "major"
1, 0, Tempo, 250000
1, 0, Marker_t, "Sequence by   -  dougmck@pipeline.com.au"
1, 0, End_track
2, 0, Start_track
2, 0, MIDI_port, 0
2, 0, Title_t, ""
2, 0, Program_c, 0, 4
2, 0, Control_c, 0, 7, 100
2, 70, Control_c, 0, 64, 127
2, 238, Control_c, 0, 64, 0
2, 1582, Note_on_c, 0, 74, 60
2, 1586, Note_on_c, 0, 62, 50
2, 1669, Note_on_c, 0, 74, 0
2, 1713, Note_on_c, 0, 62, 0
2, 1947, Note_on_c, 0, 66, 60
2, 1952, Note_on_c, 0, 78, 61
2, 2088, Note_on_c, 0, 66, 0
2, 2100, Note_on_c, 0, 78, 0
2, 2140, Note_on_c, 0, 74, 53
2, 2147, Note_on_c, 0, 62, 48
2, 2240, Note_on_c, 0, 74, 0
2, 2282, Note_on_c, 0, 62, 0
2, 2326, Note_on_c, 0, 76, 56
2, 2340, Note_on_c, 0, 64, 55
2, 2488, Note_on_c, 0, 76, 0
2, 2498, Note_on_c, 0, 64, 0
2, 2524, Note_on_c, 0, 62, 32
2, 2528, Note_on_c, 0, 74, 54
2, 2639, Note_on_c, 0, 62, 0
2, 2670, Note_on_c, 0, 74, 0
2, 2692, Note_on_c, 0, 71, 36
2, 2784, Note_on_c, 0, 71, 0
2, 2909, Note_on_c, 0, 74, 54
2, 2915, Note_on_c, 0, 62, 60
2, 2935, Note_on_c, 0, 76, 30
2, 2969, Note_on_c, 0, 76, 0
2, 3039, Note_on_c, 0, 74, 0
2, 3125, Note_on_c, 0, 62, 0
2, 3286, Note_on_c, 0, 73, 71
2, 3286, Note_on_c, 0, 61, 52
2, 3421, Note_on_c, 0, 73, 0
2, 3443, Note_on_c, 0, 61, 0
2, 3469, Note_on_c, 0, 69, 50
2, 3520, Note_on_c, 0, 69, 0
2, 3707, Note_on_c, 0, 73, 76
2, 3820, Note_on_c, 0, 73, 0
2, 4078, Note_on_c, 0, 71, 61
2, 4087, Note_on_c, 0, 59, 33
2, 4170, Note_on_c, 0, 59, 0
2, 4218, Note_on_c, 0, 71, 0
2, 4260, Note_on_c, 0, 67, 34
2, 4392, Note_on_c, 0, 67, 0
2, 4657, Note_on_c, 0, 64, 69
2, 4660, Note_on_c, 0, 66, 61
2, 4663, Note_on_c, 0, 69, 67
2, 4665, Note_on_c, 0, 40, 65
2, 5003, Note_on_c, 0, 64, 0
2, 5018, Note_on_c, 0, 47, 49
2, 5030, Note_on_c, 0, 40, 0
2, 5038, Note_on_c, 0, 66, 0
2, 5046, Note_on_c, 0, 69, 0
2, 5238, Note_on_c, 0, 66, 53
2, 5243, Note_on_c, 0, 54, 58
2, 5245, Note_on_c, 0, 64, 58
2, 5253, Note_on_c, 0, 69, 42
2, 5278, Note_on_c, 0, 54, 0
2, 5279, Note_on_c, 0, 64, 0
2, 5293, Note_on_c, 0, 69, 0
2, 5304, Note_on_c, 0, 66, 0
2, 5320, Note_on_c, 0, 47, 0
2, 5781, Note_on_c, 0, 40, 44
2, 5783, Note_on_c, 0, 47, 43
2, 5791, Note_on_c, 0, 64, 76
2, 5791, Note_on_c, 0, 66, 69
2, 5800, Note_on_c, 0, 69, 71
2, 6566, Note_on_c, 0, 66, 0
2, 6567, Note_on_c, 0, 64, 0
2, 6602, Note_on_c, 0, 69, 0
2, 6609, Note_on_c, 0, 40, 0
2, 6782, Note_on_c, 0, 47, 0
2, 6915, Note_on_c, 0, 42, 69
2, 6919, Note_on_c, 0, 66, 85
2, 6926, Note_on_c, 0, 61, 90
2, 6933, Note_on_c, 0, 59, 84
2, 7354, Note_on_c, 0, 49, 47
2, 7384, Note_on_c, 0, 59, 0
2, 7422, Note_on_c, 0, 61, 0
2, 7448, Note_on_c, 0, 66, 0
2, 7554, Note_on_c, 0, 42, 0
2, 7581, Note_on_c, 0, 61, 63
2, 7588, Note_on_c, 0, 66, 43
2, 7589, Note_on_c, 0, 54, 51
2, 7590, Note_on_c, 0, 59, 55
2, 7624, Note_on_c, 0, 59, 0
2, 7627, Note_on_c, 0, 49, 0
2, 7652, Note_on_c, 0, 61, 0
2, 7688, Note_on_c, 0, 66, 0
2, 7698, Note_on_c, 0, 54, 0
2, 7920, Note_on_c, 0, 49, 34
2, 8036, Note_on_c, 0, 49, 0
2, 8083, Note_on_c, 0, 42, 52
2, 8086, Note_on_c, 0, 54, 48
2, 8098, Note_on_c, 0, 66, 57
2, 8107, Note_on_c, 0, 61, 62
2, 8110, Note_on_c, 0, 59, 54
2, 10057, Note_on_c, 0, 59, 0
2, 10064, Note_on_c, 0, 61, 0
2, 10107, Note_on_c, 0, 66, 0
2, 10225, Note_on_c, 0, 54, 0
2, 10346, Note_on_c, 0, 66, 86
2, 10350, Note_on_c, 0, 58, 91
2, 10641, Note_on_c, 0, 42, 0
2, 10712, Note_on_c, 0, 58, 0
2, 10739, Note_on_c, 0, 43, 54
2, 10740, Note_on_c, 0, 66, 0
2, 10741, Note_on_c, 0, 67, 74
2, 10743, Note_on_c, 0, 59, 74
2, 10942, Control_c, 0, 64, 127
2, 10962, Note_on_c, 0, 67, 0
2, 11134, Note_on_c, 0, 59, 0
2, 11336, Note_on_c, 0, 69, 78
2, 11353, Note_on_c, 0, 61, 74
2, 11363, Control_c, 0, 64, 0
2, 11516, Control_c, 0, 64, 127
2, 11569, Note_on_c, 0, 69, 0
2, 11762, Note_on_c, 0, 61, 0
2, 11886, Control_c, 0, 64, 0
2, 11898, Note_on_c, 0, 62, 74
2, 11907, Note_on_c, 0, 71, 59
2, 11973, Note_on_c, 0, 62, 0
2, 11978, Control_c, 0, 64, 127
2, 11999, Note_on_c, 0, 71, 0
2, 12318, Note_on_c, 0, 73, 64
2, 12333, Note_on_c, 0, 64, 51
2, 12348, Control_c, 0, 64, 0
2, 12368, Note_on_c, 0, 50, 32
2, 12564, Note_on_c, 0, 43, 0
2, 12584, Control_c, 0, 64, 127
2, 12636, Note_on_c, 0, 64, 0
2, 12762, Note_on_c, 0, 73, 0
2, 12858, Note_on_c, 0, 74, 69
2, 12870, Note_on_c, 0, 66, 77
2, 12872, Control_c, 0, 64, 0
2, 13005, Control_c, 0, 64, 127
2, 13087, Note_on_c, 0, 74, 0
2, 13123, Note_on_c, 0, 50, 0
2, 13155, Note_on_c, 0, 66, 0
2, 13289, Note_on_c, 0, 59, 27
2, 13298, Note_on_c, 0, 50, 34
2, 13327, Note_on_c, 0, 59, 0
2, 13426, Note_on_c, 0, 50, 0
2, 13430, Note_on_c, 0, 76, 62
2, 13436, Control_c, 0, 64, 0
2, 13448, Note_on_c, 0, 67, 64
2, 13533, Note_on_c, 0, 76, 0
2, 13567, Note_on_c, 0, 67, 0
2, 13854, Note_on_c, 0, 42, 42
2, 13856, Note_on_c, 0, 74, 57
2, 13861, Note_on_c, 0, 66, 53
2, 14083, Control_c, 0, 64, 127
2, 14112, Note_on_c, 0, 74, 0
2, 14171, Note_on_c, 0, 66, 0
2, 14410, Note_on_c, 0, 73, 59
2, 14424, Note_on_c, 0, 64, 54
2, 14483, Control_c, 0, 64, 0
2, 14709, Control_c, 0, 64, 127
2, 14791, Control_c, 0, 64, 0
2, 14990, Note_on_c, 0, 49, 53
2, 14995, Note_on_c, 0, 42, 0
2, 15399, Note_on_c, 0, 58, 80
2, 15510, Control_c, 0, 64, 127
2, 15847, Note_on_c, 0, 49, 0
2, 15890, Note_on_c, 0, 58, 0
2, 15981, Note_on_c, 0, 73, 0
2, 16007, Note_on_c, 0, 49, 52
2, 16046, Note_on_c, 0, 64, 0
2, 16216, Note_on_c, 0, 49, 0
2, 16360, Note_on_c, 0, 49, 52
2, 16426, Note_on_c, 0, 49, 0
2, 16538, Note_on_c, 0, 66, 72
2, 16540, Note_on_c, 0, 58, 78
2, 16542, Note_on_c, 0, 61, 77
2, 16547, Note_on_c, 0, 49, 63
2, 16557, Control_c, 0, 64, 0
2, 16716, Note_on_c, 0, 49, 0
2, 16780, Note_on_c, 0, 61, 0
2, 16792, Note_on_c, 0, 66, 0
2, 16832, Note_on_c, 0, 58, 0
2, 16930, Note_on_c, 0, 40, 61
2, 16944, Note_on_c, 0, 67, 71
2, 16950, Note_on_c, 0, 62, 80
2, 16955, Note_on_c, 0, 59, 74
2, 17091, Control_c, 0, 64, 127
2, 17123, Note_on_c, 0, 67, 0
2, 17158, Note_on_c, 0, 62, 0
2, 17229, Note_on_c, 0, 59, 0
2, 17487, Note_on_c, 0, 69, 79
2, 17499, Note_on_c, 0, 64, 83
2, 17501, Note_on_c, 0, 61, 78
2, 17512, Control_c, 0, 64, 0
2, 17584, Control_c, 0, 64, 127
2, 17667, Note_on_c, 0, 69, 0
2, 17690, Note_on_c, 0, 64, 0
2, 17771, Note_on_c, 0, 61, 0
2, 17894, Note_on_c, 0, 47, 42
2, 17903, Note_on_c, 0, 40, 0
2, 17940, Note_on_c, 0, 47, 0
2, 18029, Note_on_c, 0, 71, 64
2, 18037, Note_on_c, 0, 66, 67
2, 18040, Note_on_c, 0, 62, 57
2, 18045, Control_c, 0, 64, 0
2, 18096, Note_on_c, 0, 62, 0
2, 18133, Note_on_c, 0, 66, 0
2, 18142, Note_on_c, 0, 71, 0
2, 18460, Note_on_c, 0, 73, 69
2, 18467, Note_on_c, 0, 45, 47
2, 18480, Note_on_c, 0, 67, 54
2, 18481, Note_on_c, 0, 64, 52
2, 18693, Control_c, 0, 64, 127
2, 18894, Note_on_c, 0, 73, 0
2, 18940, Note_on_c, 0, 67, 0
2, 18949, Note_on_c, 0, 64, 0
2, 19003, Note_on_c, 0, 74, 71
2, 19012, Note_on_c, 0, 64, 58
2, 19017, Note_on_c, 0, 67, 24
2, 19178, Note_on_c, 0, 74, 0
2, 19185, Note_on_c, 0, 67, 0
2, 19332, Note_on_c, 0, 64, 0
2, 19402, Note_on_c, 0, 52, 29
2, 19413, Note_on_c, 0, 45, 0
2, 19453, Note_on_c, 0, 57, 22
2, 19459, Note_on_c, 0, 52, 0
2, 19576, Note_on_c, 0, 57, 0
2, 19582, Note_on_c, 0, 76, 55
2, 19606, Control_c, 0, 64, 0
2, 19690, Note_on_c, 0, 76, 0
2, 20017, Note_on_c, 0, 54, 34
2, 20019, Note_on_c, 0, 69, 56
2, 20026, Note_on_c, 0, 57, 26
2, 20027, Note_on_c, 0, 50, 32
2, 20114, Note_on_c, 0, 69, 0
2, 20114, Note_on_c, 0, 74, 34
2, 20147, Note_on_c, 0, 74, 0
2, 20249, Note_on_c, 0, 57, 0
2, 20398, Note_on_c, 0, 76, 45
2, 20409, Note_on_c, 0, 57, 3
2, 20500, Note_on_c, 0, 76, 0
2, 20616, Note_on_c, 0, 78, 67
2, 20623, Note_on_c, 0, 69, 56
2, 20673, Control_c, 0, 64, 127
2, 20839, Note_on_c, 0, 50, 0
2, 20858, Note_on_c, 0, 54, 0
2, 20859, Note_on_c, 0, 57, 0
2, 21383, Control_c, 0, 64, 0
2, 21411, Note_on_c, 0, 62, 51
2, 21412, Note_on_c, 0, 54, 45
2, 21422, Note_on_c, 0, 59, 29
2, 21749, Note_on_c, 0, 69, 0
2, 21820, Note_on_c, 0, 78, 0
2, 21898, Control_c, 0, 64, 127
2, 22104, Control_c, 0, 64, 0
2, 22154, Note_on_c, 0, 76, 64
2, 22170, Note_on_c, 0, 75, 39
2, 22204, Note_on_c, 0, 75, 0
2, 22248, Note_on_c, 0, 76, 0
2, 22514, Note_on_c, 0, 75, 49
2, 22520, Note_on_c, 0, 76, 66
2, 22580, Note_on_c, 0, 75, 0
2, 22618, Note_on_c, 0, 76, 0
2, 22781, Control_c, 0, 64, 127
2, 22907, Note_on_c, 0, 74, 68
2, 22925, Note_on_c, 0, 62, 0
2, 22935, Note_on_c, 0, 54, 0
2, 23001, Note_on_c, 0, 59, 0
2, 23002, Note_on_c, 0, 74, 0
2, 23102, Note_on_c, 0, 73, 67
2, 23103, Note_on_c, 0, 70, 69
2, 23109, Control_c, 0, 64, 0
2, 23119, Note_on_c, 0, 65, 60
2, 23139, Note_on_c, 0, 53, 50
2, 23428, Control_c, 0, 64, 127
2, 23610, Note_on_c, 0, 73, 0
2, 23632, Control_c, 0, 64, 0
2, 23660, Note_on_c, 0, 74, 60
2, 23828, Control_c, 0, 64, 127
2, 24117, Note_on_c, 0, 74, 0
2, 24161, Note_on_c, 0, 53, 0
2, 24176, Note_on_c, 0, 65, 0
2, 24196, Note_on_c, 0, 76, 59
2, 24249, Control_c, 0, 64, 0
2, 24297, Note_on_c, 0, 76, 0
2, 24334, Note_on_c, 0, 70, 0
2, 24607, Note_on_c, 0, 74, 66
2, 24613, Note_on_c, 0, 42, 42
2, 24616, Note_on_c, 0, 64, 58
2, 24625, Note_on_c, 0, 69, 65
2, 24677, Note_on_c, 0, 42, 0
2, 24906, Control_c, 0, 64, 127
2, 25269, Note_on_c, 0, 74, 0
2, 25327, Control_c, 0, 64, 0
2, 25341, Note_on_c, 0, 64, 0
2, 25350, Note_on_c, 0, 69, 0
2, 25384, Note_on_c, 0, 73, 70
2, 25397, Note_on_c, 0, 67, 32
2, 25532, Control_c, 0, 64, 127
2, 25723, Note_on_c, 0, 67, 0
2, 25825, Note_on_c, 0, 73, 0
2, 26148, Control_c, 0, 64, 0
2, 26149, Note_on_c, 0, 73, 65
2, 26158, Note_on_c, 0, 64, 65
2, 26160, Note_on_c, 0, 47, 45
2, 26343, Control_c, 0, 64, 127
2, 26680, Note_on_c, 0, 64, 0
2, 27269, Note_on_c, 0, 71, 58
2, 27285, Note_on_c, 0, 73, 0
2, 27285, Note_on_c, 0, 63, 50
2, 27308, Control_c, 0, 64, 0
2, 27575, Control_c, 0, 64, 127
2, 28479, Note_on_c, 0, 63, 0
2, 28498, Note_on_c, 0, 71, 0
2, 28795, Note_on_c, 0, 47, 0
2, 29197, Control_c, 0, 64, 0
2, 29208, Note_on_c, 0, 47, 54
2, 29209, Note_on_c, 0, 71, 62
2, 29256, Note_on_c, 0, 71, 0
2, 29281, Note_on_c, 0, 47, 0
2, 29773, Note_on_c, 0, 76, 48
2, 29778, Note_on_c, 0, 52, 51
2, 29820, Note_on_c, 0, 76, 0
2, 29839, Note_on_c, 0, 52, 0
2, 30573, Note_on_c, 0, 79, 74
2, 30583, Note_on_c, 0, 55, 55
2, 30674, Note_on_c, 0, 55, 0
2, 30696, Note_on_c, 0, 79, 0
2, 30734, Note_on_c, 0, 54, 46
2, 30759, Note_on_c, 0, 78, 55
2, 31027, Note_on_c, 0, 78, 0
2, 31063, Note_on_c, 0, 54, 0
2, 31080, Note_on_c, 0, 50, 31
2, 31280, Note_on_c, 0, 74, 24
2, 31280, Note_on_c, 0, 74, 0
2, 31310, Note_on_c, 0, 71, 36
2, 31343, Note_on_c, 0, 50, 0
2, 31358, Note_on_c, 0, 71, 0
2, 31487, Note_on_c, 0, 76, 50
2, 31527, Note_on_c, 0, 52, 36
2, 31615, Note_on_c, 0, 76, 0
2, 31634, Note_on_c, 0, 52, 0
2, 32113, Note_on_c, 0, 69, 57
2, 32114, Note_on_c, 0, 45, 47
2, 32146, Note_on_c, 0, 69, 0
2, 32218, Note_on_c, 0, 45, 0
2, 32813, Note_on_c, 0, 74, 64
2, 32827, Note_on_c, 0, 50, 66
2, 32930, Note_on_c, 0, 74, 0
2, 32975, Note_on_c, 0, 50, 0
2, 33022, Note_on_c, 0, 73, 72
2, 33045, Note_on_c, 0, 49, 47
2, 33100, Note_on_c, 0, 73, 0
2, 33253, Note_on_c, 0, 49, 0
2, 33806, Note_on_c, 0, 69, 60
2, 33807, Note_on_c, 0, 45, 48
2, 33902, Note_on_c, 0, 69, 0
2, 33939, Note_on_c, 0, 45, 0
2, 34037, Note_on_c, 0, 47, 40
2, 34051, Note_on_c, 0, 71, 34
2, 34131, Note_on_c, 0, 71, 0
2, 34173, Note_on_c, 0, 47, 0
2, 34425, Note_on_c, 0, 67, 42
2, 34436, Note_on_c, 0, 43, 47
2, 34540, Note_on_c, 0, 67, 0
2, 34551, Note_on_c, 0, 43, 0
2, 34785, Note_on_c, 0, 43, 40
2, 34905, Note_on_c, 0, 43, 0
2, 34964, Note_on_c, 0, 74, 85
2, 34968, Note_on_c, 0, 50, 85
2, 35100, Note_on_c, 0, 74, 0
2, 35125, Note_on_c, 0, 50, 0
2, 35352, Note_on_c, 0, 76, 105
2, 35353, Note_on_c, 0, 52, 94
2, 35496, Note_on_c, 0, 76, 0
2, 35546, Note_on_c, 0, 52, 0
2, 35945, Note_on_c, 0, 76, 56
2, 35947, Note_on_c, 0, 52, 60
2, 36057, Note_on_c, 0, 76, 0
2, 36085, Note_on_c, 0, 52, 0
2, 36114, Note_on_c, 0, 79, 68
2, 36141, Note_on_c, 0, 55, 60
2, 36420, Note_on_c, 0, 79, 0
2, 36423, Note_on_c, 0, 55, 0
2, 36479, Note_on_c, 0, 54, 32
2, 36500, Note_on_c, 0, 78, 51
2, 36641, Note_on_c, 0, 78, 0
2, 36696, Note_on_c, 0, 74, 49
2, 36705, Note_on_c, 0, 50, 43
2, 36748, Note_on_c, 0, 54, 0
2, 36800, Note_on_c, 0, 74, 0
2, 36823, Note_on_c, 0, 50, 0
2, 36872, Note_on_c, 0, 47, 41
2, 36890, Note_on_c, 0, 71, 36
2, 37083, Note_on_c, 0, 71, 0
2, 37167, Note_on_c, 0, 47, 0
2, 37232, Note_on_c, 0, 74, 40
2, 37240, Note_on_c, 0, 50, 51
2, 37366, Note_on_c, 0, 74, 0
2, 37454, Note_on_c, 0, 71, 28
2, 37482, Note_on_c, 0, 50, 0
2, 37492, Note_on_c, 0, 48, 29
2, 37510, Note_on_c, 0, 71, 0
2, 37558, Note_on_c, 0, 48, 0
2, 37649, Note_on_c, 0, 76, 54
2, 37657, Note_on_c, 0, 52, 50
2, 37947, Note_on_c, 0, 52, 0
2, 37986, Note_on_c, 0, 76, 0
2, 37997, Note_on_c, 0, 49, 47
2, 38005, Note_on_c, 0, 73, 37
2, 38163, Note_on_c, 0, 73, 0
2, 38186, Note_on_c, 0, 49, 0
2, 38222, Note_on_c, 0, 71, 57
2, 38256, Note_on_c, 0, 47, 34
2, 38298, Note_on_c, 0, 71, 0
2, 38299, Note_on_c, 0, 47, 0
2, 38604, Note_on_c, 0, 66, 44
2, 38608, Note_on_c, 0, 42, 35
2, 38752, Note_on_c, 0, 42, 0
2, 38764, Note_on_c, 0, 66, 0
2, 38823, Note_on_c, 0, 64, 36
2, 38844, Note_on_c, 0, 40, 49
2, 39326, Note_on_c, 0, 64, 0
2, 39353, Note_on_c, 0, 40, 0
2, 39366, Note_on_c, 0, 42, 37
2, 39371, Note_on_c, 0, 66, 45
2, 39465, Note_on_c, 0, 42, 0
2, 39487, Note_on_c, 0, 66, 0
2, 39728, Note_on_c, 0, 71, 45
2, 39733, Note_on_c, 0, 47, 53
2, 39808, Note_on_c, 0, 71, 0
2, 39874, Note_on_c, 0, 47, 0
2, 39934, Note_on_c, 0, 49, 75
2, 39943, Note_on_c, 0, 73, 78
2, 40431, Note_on_c, 0, 73, 0
2, 40461, Note_on_c, 0, 49, 0
2, 40493, Note_on_c, 0, 68, 60
2, 40502, Note_on_c, 0, 46, 51
2, 40529, Note_on_c, 0, 70, 64
2, 40560, Note_on_c, 0, 68, 0
2, 40664, Note_on_c, 0, 70, 0
2, 40720, Note_on_c, 0, 46, 0
2, 40896, Note_on_c, 0, 68, 51
2, 40903, Note_on_c, 0, 44, 38
2, 40998, Note_on_c, 0, 44, 0
2, 40999, Note_on_c, 0, 68, 0
2, 41084, Note_on_c, 0, 66, 50
2, 41091, Note_on_c, 0, 42, 39
2, 41179, Note_on_c, 0, 66, 0
2, 41245, Note_on_c, 0, 42, 0
2, 41655, Note_on_c, 0, 37, 52
2, 41676, Note_on_c, 0, 61, 54
2, 41757, Note_on_c, 0, 61, 0
2, 41835, Note_on_c, 0, 42, 42
2, 41846, Note_on_c, 0, 37, 0
2, 41860, Note_on_c, 0, 66, 48
2, 41940, Note_on_c, 0, 66, 0
2, 41970, Note_on_c, 0, 42, 0
2, 42213, Note_on_c, 0, 42, 23
2, 42395, Note_on_c, 0, 68, 70
2, 42396, Note_on_c, 0, 68, 0
2, 42405, Note_on_c, 0, 42, 0
2, 42649, Note_on_c, 0, 70, 83
2, 42770, Note_on_c, 0, 70, 0
2, 42889, Note_on_c, 0, 69, 82
2, 42914, Note_on_c, 0, 45, 58
2, 43193, Note_on_c, 0, 69, 0
2, 43213, Note_on_c, 0, 68, 37
2, 43229, Note_on_c, 0, 45, 0
2, 43292, Note_on_c, 0, 67, 42
2, 43309, Note_on_c, 0, 44, 21
2, 43335, Note_on_c, 0, 42, 29
2, 43341, Note_on_c, 0, 68, 0
2, 43384, Note_on_c, 0, 67, 0
2, 43389, Note_on_c, 0, 42, 0
2, 43422, Note_on_c, 0, 44, 0
2, 43445, Note_on_c, 0, 66, 43
2, 43598, Note_on_c, 0, 66, 0
2, 43659, Note_on_c, 0, 78, 74
2, 43806, Note_on_c, 0, 78, 0
2, 44047, Note_on_c, 0, 78, 71
2, 44051, Note_on_c, 0, 54, 72
2, 44143, Note_on_c, 0, 54, 0
2, 44381, Note_on_c, 0, 78, 0
2, 44561, Note_on_c, 0, 76, 80
2, 44598, Note_on_c, 0, 73, 31
2, 44633, Note_on_c, 0, 73, 0
2, 44637, Control_c, 0, 64, 127
2, 45053, Note_on_c, 0, 76, 0
2, 45137, Note_on_c, 0, 74, 60
2, 45150, Control_c, 0, 64, 0
2, 45204, Note_on_c, 0, 74, 0
2, 45221, Control_c, 0, 64, 127
2, 45691, Note_on_c, 0, 66, 61
2, 45698, Note_on_c, 0, 71, 62
2, 45704, Note_on_c, 0, 64, 69
2, 45717, Note_on_c, 0, 47, 58
2, 45735, Control_c, 0, 64, 0
2, 45992, Control_c, 0, 64, 127
2, 47215, Note_on_c, 0, 64, 0
2, 47257, Note_on_c, 0, 66, 0
2, 47279, Note_on_c, 0, 71, 0
2, 48559, Control_c, 0, 64, 0
2, 48784, Note_on_c, 0, 47, 0
2, 49194, Note_on_c, 0, 74, 66
2, 49202, Note_on_c, 0, 50, 51
2, 49231, Note_on_c, 0, 74, 0
2, 49240, Note_on_c, 0, 50, 0
2, 49577, Note_on_c, 0, 78, 54
2, 49589, Note_on_c, 0, 54, 62
2, 49665, Note_on_c, 0, 54, 0
2, 49685, Note_on_c, 0, 78, 0
2, 49759, Note_on_c, 0, 74, 52
2, 49795, Note_on_c, 0, 50, 43
2, 49868, Note_on_c, 0, 74, 0
2, 49888, Note_on_c, 0, 50, 0
2, 49952, Note_on_c, 0, 76, 60
2, 49955, Note_on_c, 0, 54, 44
2, 50077, Note_on_c, 0, 76, 0
2, 50097, Note_on_c, 0, 54, 0
2, 50150, Note_on_c, 0, 74, 47
2, 50169, Note_on_c, 0, 50, 44
2, 50282, Note_on_c, 0, 74, 0
2, 50288, Note_on_c, 0, 50, 0
2, 50348, Note_on_c, 0, 47, 33
2, 50352, Note_on_c, 0, 71, 22
2, 50397, Note_on_c, 0, 71, 0
2, 50411, Note_on_c, 0, 47, 0
2, 50552, Note_on_c, 0, 74, 68
2, 50565, Note_on_c, 0, 50, 44
2, 50647, Note_on_c, 0, 50, 0
2, 50668, Note_on_c, 0, 74, 0
2, 50867, Note_on_c, 0, 49, 47
2, 50875, Note_on_c, 0, 73, 61
2, 51009, Note_on_c, 0, 73, 0
2, 51015, Note_on_c, 0, 49, 0
2, 51071, Note_on_c, 0, 69, 35
2, 51113, Note_on_c, 0, 69, 0
2, 51306, Note_on_c, 0, 73, 69
2, 51308, Note_on_c, 0, 49, 43
2, 51384, Note_on_c, 0, 49, 0
2, 51398, Note_on_c, 0, 73, 0
2, 51661, Note_on_c, 0, 71, 64
2, 51797, Note_on_c, 0, 71, 0
2, 51833, Note_on_c, 0, 43, 27
2, 51863, Note_on_c, 0, 67, 55
2, 51909, Note_on_c, 0, 43, 0
2, 51910, Note_on_c, 0, 67, 0
2, 52271, Note_on_c, 0, 66, 82
2, 52276, Note_on_c, 0, 64, 90
2, 52278, Note_on_c, 0, 69, 88
2, 52282, Note_on_c, 0, 40, 81
2, 52621, Note_on_c, 0, 64, 0
2, 52628, Note_on_c, 0, 47, 53
2, 52650, Note_on_c, 0, 69, 0
2, 52660, Note_on_c, 0, 66, 0
2, 52742, Note_on_c, 0, 40, 0
2, 52846, Note_on_c, 0, 66, 62
2, 52854, Note_on_c, 0, 64, 66
2, 52857, Note_on_c, 0, 69, 62
2, 52877, Note_on_c, 0, 54, 70
2, 52886, Note_on_c, 0, 64, 0
2, 52890, Note_on_c, 0, 69, 0
2, 52910, Note_on_c, 0, 66, 0
2, 52911, Note_on_c, 0, 54, 0
2, 52969, Note_on_c, 0, 47, 0
2, 53205, Note_on_c, 0, 47, 53
2, 53311, Note_on_c, 0, 47, 0
2, 53388, Note_on_c, 0, 47, 27
2, 53390, Note_on_c, 0, 66, 45
2, 53396, Note_on_c, 0, 40, 57
2, 53396, Note_on_c, 0, 69, 57
2, 53406, Note_on_c, 0, 64, 38
2, 54393, Note_on_c, 0, 64, 0
2, 54396, Note_on_c, 0, 40, 0
2, 54402, Note_on_c, 0, 66, 0
2, 54409, Note_on_c, 0, 69, 0
2, 54470, Note_on_c, 0, 47, 0
2, 54504, Note_on_c, 0, 42, 74
2, 54518, Note_on_c, 0, 66, 77
2, 54520, Note_on_c, 0, 59, 75
2, 54521, Note_on_c, 0, 61, 82
2, 54926, Note_on_c, 0, 49, 45
2, 54987, Note_on_c, 0, 59, 0
2, 55017, Note_on_c, 0, 66, 0
2, 55021, Note_on_c, 0, 61, 0
2, 55141, Note_on_c, 0, 49, 0
2, 55146, Note_on_c, 0, 66, 59
2, 55155, Note_on_c, 0, 61, 51
2, 55157, Note_on_c, 0, 54, 50
2, 55162, Note_on_c, 0, 59, 44
2, 55201, Note_on_c, 0, 59, 0
2, 55233, Note_on_c, 0, 61, 0
2, 55269, Note_on_c, 0, 66, 0
2, 55284, Note_on_c, 0, 54, 0
2, 55484, Note_on_c, 0, 42, 0
2, 55518, Note_on_c, 0, 49, 28
2, 55642, Note_on_c, 0, 49, 0
2, 55700, Note_on_c, 0, 66, 49
2, 55709, Note_on_c, 0, 61, 46
2, 55713, Note_on_c, 0, 42, 51
2, 55720, Note_on_c, 0, 59, 39
2, 57723, Note_on_c, 0, 59, 0
2, 57776, Note_on_c, 0, 61, 0
2, 57781, Note_on_c, 0, 66, 0
2, 57987, Note_on_c, 0, 66, 87
2, 57990, Note_on_c, 0, 58, 93
2, 58175, Note_on_c, 0, 42, 0
2, 58358, Note_on_c, 0, 58, 0
2, 58368, Note_on_c, 0, 59, 77
2, 58373, Note_on_c, 0, 43, 51
2, 58377, Note_on_c, 0, 67, 75
2, 58390, Note_on_c, 0, 66, 0
2, 58591, Note_on_c, 0, 67, 0
2, 58758, Control_c, 0, 64, 127
2, 58843, Note_on_c, 0, 59, 0
2, 58944, Note_on_c, 0, 69, 77
2, 58960, Note_on_c, 0, 61, 77
2, 58989, Control_c, 0, 64, 0
2, 59124, Control_c, 0, 64, 127
2, 59219, Note_on_c, 0, 69, 0
2, 59378, Note_on_c, 0, 61, 0
2, 59415, Note_on_c, 0, 50, 28
2, 59451, Note_on_c, 0, 50, 0
2, 59550, Note_on_c, 0, 62, 66
2, 59551, Note_on_c, 0, 71, 54
2, 59557, Control_c, 0, 64, 0
2, 59624, Note_on_c, 0, 62, 0
2, 59626, Note_on_c, 0, 71, 0
2, 59805, Note_on_c, 0, 43, 0
2, 59924, Note_on_c, 0, 73, 63
2, 59941, Note_on_c, 0, 64, 44
2, 60312, Note_on_c, 0, 64, 0
2, 60407, Note_on_c, 0, 73, 0
2, 60495, Note_on_c, 0, 74, 42
2, 60505, Note_on_c, 0, 66, 54
2, 60555, Note_on_c, 0, 59, 28
2, 60702, Note_on_c, 0, 59, 0
2, 60707, Note_on_c, 0, 74, 0
2, 60892, Note_on_c, 0, 66, 0
2, 60911, Note_on_c, 0, 50, 42
2, 61028, Note_on_c, 0, 50, 0
2, 61055, Note_on_c, 0, 76, 78
2, 61062, Note_on_c, 0, 67, 84
2, 61234, Note_on_c, 0, 76, 0
2, 61331, Note_on_c, 0, 67, 0
2, 61461, Note_on_c, 0, 66, 62
2, 61470, Note_on_c, 0, 74, 55
2, 61471, Note_on_c, 0, 42, 42
2, 61740, Note_on_c, 0, 74, 0
2, 61862, Note_on_c, 0, 66, 0
2, 62015, Note_on_c, 0, 73, 52
2, 62035, Note_on_c, 0, 64, 44
2, 62586, Note_on_c, 0, 42, 0
2, 62608, Note_on_c, 0, 49, 36
2, 62977, Note_on_c, 0, 58, 82
2, 63450, Note_on_c, 0, 49, 0
2, 63566, Note_on_c, 0, 49, 38
2, 63605, Note_on_c, 0, 58, 0
2, 63605, Note_on_c, 0, 73, 0
2, 63638, Note_on_c, 0, 64, 0
2, 64014, Note_on_c, 0, 42, 27
2, 64016, Note_on_c, 0, 42, 0
2, 64075, Note_on_c, 0, 49, 0
2, 64092, Note_on_c, 0, 42, 25
2, 64130, Note_on_c, 0, 58, 50
2, 64131, Note_on_c, 0, 66, 54
2, 64141, Note_on_c, 0, 61, 52
2, 64305, Note_on_c, 0, 42, 0
2, 64362, Note_on_c, 0, 61, 0
2, 64406, Note_on_c, 0, 66, 0
2, 64417, Note_on_c, 0, 58, 0
2, 64527, Note_on_c, 0, 40, 49
2, 64529, Note_on_c, 0, 67, 50
2, 64536, Note_on_c, 0, 59, 55
2, 64540, Note_on_c, 0, 62, 51
2, 64769, Note_on_c, 0, 67, 0
2, 64804, Note_on_c, 0, 62, 0
2, 64879, Control_c, 0, 64, 127
2, 64962, Note_on_c, 0, 59, 0
2, 65135, Note_on_c, 0, 69, 83
2, 65141, Note_on_c, 0, 61, 77
2, 65148, Note_on_c, 0, 64, 75
2, 65150, Control_c, 0, 64, 0
2, 65255, Control_c, 0, 64, 127
2, 65345, Note_on_c, 0, 69, 0
2, 65395, Note_on_c, 0, 64, 0
2, 65494, Note_on_c, 0, 61, 0
2, 65511, Note_on_c, 0, 40, 0
2, 65548, Note_on_c, 0, 47, 32
2, 65588, Note_on_c, 0, 47, 0
2, 65669, Control_c, 0, 64, 0
2, 65680, Note_on_c, 0, 71, 76
2, 65683, Note_on_c, 0, 66, 78
2, 65686, Note_on_c, 0, 62, 80
2, 65852, Control_c, 0, 64, 127
2, 65881, Note_on_c, 0, 71, 0
2, 65923, Note_on_c, 0, 62, 0
2, 65987, Note_on_c, 0, 66, 0
2, 66102, Note_on_c, 0, 73, 66
2, 66105, Note_on_c, 0, 45, 42
2, 66110, Note_on_c, 0, 64, 29
2, 66113, Control_c, 0, 64, 0
2, 66323, Control_c, 0, 64, 127
2, 66396, Note_on_c, 0, 64, 0
2, 66435, Note_on_c, 0, 74, 30
2, 66467, Note_on_c, 0, 73, 0
2, 66491, Note_on_c, 0, 74, 0
2, 66660, Control_c, 0, 64, 0
2, 66661, Note_on_c, 0, 74, 64
2, 66663, Note_on_c, 0, 66, 72
2, 66805, Control_c, 0, 64, 127
2, 66917, Note_on_c, 0, 74, 0
2, 67054, Note_on_c, 0, 66, 0
2, 67076, Note_on_c, 0, 52, 38
2, 67117, Note_on_c, 0, 45, 0
2, 67126, Note_on_c, 0, 52, 0
2, 67209, Control_c, 0, 64, 0
2, 67221, Note_on_c, 0, 76, 65
2, 67242, Note_on_c, 0, 70, 69
2, 67245, Note_on_c, 0, 67, 62
2, 67362, Note_on_c, 0, 67, 0
2, 67365, Note_on_c, 0, 76, 0
2, 67430, Control_c, 0, 64, 127
2, 67535, Control_c, 0, 64, 0
2, 67538, Note_on_c, 0, 70, 0
2, 67615, Note_on_c, 0, 50, 32
2, 67616, Note_on_c, 0, 74, 55
2, 67624, Note_on_c, 0, 69, 57
2, 67713, Note_on_c, 0, 74, 0
2, 67790, Note_on_c, 0, 69, 0
2, 67959, Control_c, 0, 64, 127
2, 67965, Note_on_c, 0, 76, 53
2, 68049, Note_on_c, 0, 76, 0
2, 68142, Control_c, 0, 64, 0
2, 68199, Note_on_c, 0, 78, 62
2, 68201, Note_on_c, 0, 69, 67
2, 68204, Note_on_c, 0, 62, 41
2, 68402, Control_c, 0, 64, 127
2, 68590, Note_on_c, 0, 50, 0
2, 68736, Note_on_c, 0, 62, 0
2, 68758, Control_c, 0, 64, 0
2, 69474, Note_on_c, 0, 78, 0
2, 69501, Note_on_c, 0, 75, 59
2, 69509, Note_on_c, 0, 76, 72
2, 69586, Note_on_c, 0, 75, 0
2, 70101, Note_on_c, 0, 76, 0
2, 70147, Note_on_c, 0, 74, 58
2, 70417, Note_on_c, 0, 69, 0
2, 70664, Note_on_c, 0, 74, 0
2, 70691, Note_on_c, 0, 73, 68
2, 70695, Note_on_c, 0, 70, 64
2, 70696, Note_on_c, 0, 65, 66
2, 70699, Note_on_c, 0, 53, 42
2, 71087, Control_c, 0, 64, 127
2, 71294, Note_on_c, 0, 74, 71
2, 71299, Control_c, 0, 64, 0
2, 71434, Control_c, 0, 64, 127
2, 71688, Note_on_c, 0, 53, 0
2, 71754, Note_on_c, 0, 74, 0
2, 71779, Note_on_c, 0, 73, 0
2, 71819, Control_c, 0, 64, 0
2, 71822, Note_on_c, 0, 76, 64
2, 71889, Note_on_c, 0, 65, 0
2, 71903, Note_on_c, 0, 70, 0
2, 71907, Note_on_c, 0, 76, 0
2, 72213, Control_c, 0, 64, 127
2, 72589, Control_c, 0, 64, 0
2, 72616, Note_on_c, 0, 74, 73
2, 72619, Note_on_c, 0, 64, 77
2, 72623, Note_on_c, 0, 69, 78
2, 72626, Note_on_c, 0, 42, 65
2, 72907, Control_c, 0, 64, 127
2, 73092, Note_on_c, 0, 42, 0
2, 73124, Note_on_c, 0, 74, 0
2, 73234, Note_on_c, 0, 73, 76
2, 73263, Control_c, 0, 64, 0
2, 73426, Control_c, 0, 64, 127
2, 73455, Note_on_c, 0, 69, 0
2, 73493, Note_on_c, 0, 64, 0
2, 73644, Note_on_c, 0, 73, 0
2, 73782, Control_c, 0, 64, 0
2, 73795, Note_on_c, 0, 73, 60
2, 73803, Note_on_c, 0, 64, 68
2, 73818, Note_on_c, 0, 47, 58
2, 74022, Control_c, 0, 64, 127
2, 74198, Note_on_c, 0, 64, 0
2, 74309, Note_on_c, 0, 47, 0
2, 74838, Note_on_c, 0, 63, 55
2, 74846, Note_on_c, 0, 71, 57
2, 74853, Note_on_c, 0, 47, 51
2, 74865, Note_on_c, 0, 73, 0
2, 74870, Control_c, 0, 64, 0
2, 75303, Control_c, 0, 64, 127
2, 75674, Note_on_c, 0, 63, 0
2, 75761, Note_on_c, 0, 71, 0
2, 76200, Note_on_c, 0, 47, 0
2, 76640, Control_c, 0, 64, 0
2, 76826, Note_on_c, 0, 47, 68
2, 76832, Note_on_c, 0, 83, 72
2, 76869, Note_on_c, 0, 83, 0
2, 76913, Note_on_c, 0, 47, 0
2, 77373, Note_on_c, 0, 88, 87
2, 77387, Note_on_c, 0, 52, 80
2, 77438, Note_on_c, 0, 88, 0
2, 77457, Note_on_c, 0, 52, 0
2, 78181, Note_on_c, 0, 91, 91
2, 78183, Note_on_c, 0, 55, 77
2, 78319, Note_on_c, 0, 91, 0
2, 78348, Note_on_c, 0, 55, 0
2, 78360, Note_on_c, 0, 54, 59
2, 78382, Note_on_c, 0, 90, 64
2, 78597, Note_on_c, 0, 90, 0
2, 78672, Note_on_c, 0, 54, 0
2, 78704, Note_on_c, 0, 50, 39
2, 78705, Note_on_c, 0, 86, 51
2, 78827, Note_on_c, 0, 86, 0
2, 78852, Note_on_c, 0, 50, 0
2, 78935, Note_on_c, 0, 47, 37
2, 78986, Note_on_c, 0, 47, 0
2, 79118, Note_on_c, 0, 88, 69
2, 79128, Note_on_c, 0, 52, 64
2, 79212, Note_on_c, 0, 52, 0
2, 79213, Note_on_c, 0, 88, 0
2, 79725, Note_on_c, 0, 81, 49
2, 79729, Note_on_c, 0, 45, 60
2, 79839, Note_on_c, 0, 45, 0
2, 79841, Note_on_c, 0, 81, 0
2, 80495, Note_on_c, 0, 50, 87
2, 80501, Note_on_c, 0, 86, 65
2, 80567, Note_on_c, 0, 88, 72
2, 80568, Note_on_c, 0, 88, 0
2, 80620, Note_on_c, 0, 50, 0
2, 80665, Note_on_c, 0, 85, 77
2, 80668, Note_on_c, 0, 86, 0
2, 80671, Note_on_c, 0, 49, 76
2, 80904, Note_on_c, 0, 85, 0
2, 80912, Note_on_c, 0, 49, 0
2, 81417, Note_on_c, 0, 45, 60
2, 81425, Note_on_c, 0, 81, 70
2, 81561, Note_on_c, 0, 45, 0
2, 81572, Note_on_c, 0, 81, 0
2, 81644, Note_on_c, 0, 47, 37
2, 81645, Note_on_c, 0, 83, 54
2, 81714, Note_on_c, 0, 83, 0
2, 81762, Note_on_c, 0, 47, 0
2, 81998, Note_on_c, 0, 79, 49
2, 82029, Note_on_c, 0, 43, 37
2, 82097, Note_on_c, 0, 43, 0
2, 82124, Note_on_c, 0, 79, 0
2, 82365, Note_on_c, 0, 43, 49
2, 82390, Note_on_c, 0, 79, 36
2, 82427, Note_on_c, 0, 79, 0
2, 82475, Note_on_c, 0, 43, 0
2, 82553, Note_on_c, 0, 86, 79
2, 82556, Note_on_c, 0, 50, 74
2, 82638, Note_on_c, 0, 86, 0
2, 82641, Note_on_c, 0, 50, 0
2, 82953, Note_on_c, 0, 88, 99
2, 82958, Note_on_c, 0, 52, 91
2, 82972, Note_on_c, 0, 86, 50
2, 83004, Note_on_c, 0, 86, 0
2, 83086, Note_on_c, 0, 88, 0
2, 83129, Note_on_c, 0, 52, 0
2, 83588, Note_on_c, 0, 52, 57
2, 83590, Note_on_c, 0, 88, 43
2, 83655, Note_on_c, 0, 88, 0
2, 83715, Note_on_c, 0, 52, 0
2, 83760, Note_on_c, 0, 91, 89
2, 83777, Note_on_c, 0, 55, 79
2, 84044, Note_on_c, 0, 91, 0
2, 84085, Note_on_c, 0, 55, 0
2, 84095, Note_on_c, 0, 54, 56
2, 84104, Note_on_c, 0, 90, 62
2, 84236, Note_on_c, 0, 90, 0
2, 84290, Note_on_c, 0, 86, 54
2, 84305, Note_on_c, 0, 54, 0
2, 84312, Note_on_c, 0, 50, 39
2, 84392, Note_on_c, 0, 86, 0
2, 84415, Note_on_c, 0, 50, 0
2, 84488, Note_on_c, 0, 83, 37
2, 84496, Note_on_c, 0, 47, 33
2, 84673, Note_on_c, 0, 83, 0
2, 84750, Note_on_c, 0, 47, 0
2, 84877, Note_on_c, 0, 86, 29
2, 84882, Note_on_c, 0, 50, 29
2, 84975, Note_on_c, 0, 86, 0
2, 85082, Note_on_c, 0, 50, 0
2, 85271, Note_on_c, 0, 88, 68
2, 85286, Note_on_c, 0, 52, 42
2, 85578, Note_on_c, 0, 88, 0
2, 85612, Note_on_c, 0, 49, 38
2, 85620, Note_on_c, 0, 52, 0
2, 85622, Note_on_c, 0, 85, 50
2, 85746, Note_on_c, 0, 85, 0
2, 85832, Note_on_c, 0, 49, 0
2, 85842, Note_on_c, 0, 83, 51
2, 85869, Note_on_c, 0, 47, 20
2, 85887, Note_on_c, 0, 83, 0
2, 85901, Note_on_c, 0, 47, 0
2, 86204, Note_on_c, 0, 78, 49
2, 86237, Note_on_c, 0, 42, 27
2, 86360, Note_on_c, 0, 78, 0
2, 86370, Note_on_c, 0, 42, 0
2, 86414, Note_on_c, 0, 76, 49
2, 86428, Note_on_c, 0, 40, 50
2, 86933, Note_on_c, 0, 76, 0
2, 86971, Note_on_c, 0, 42, 33
2, 86977, Note_on_c, 0, 40, 0
2, 86985, Note_on_c, 0, 78, 39
2, 87095, Note_on_c, 0, 78, 0
2, 87140, Note_on_c, 0, 42, 0
2, 87336, Note_on_c, 0, 47, 36
2, 87340, Note_on_c, 0, 83, 60
2, 87419, Note_on_c, 0, 83, 0
2, 87475, Note_on_c, 0, 47, 0
2, 87546, Note_on_c, 0, 49, 82
2, 87549, Note_on_c, 0, 85, 88
2, 88022, Note_on_c, 0, 85, 0
2, 88042, Note_on_c, 0, 49, 0
2, 88099, Note_on_c, 0, 80, 58
2, 88108, Note_on_c, 0, 46, 46
2, 88136, Note_on_c, 0, 82, 57
2, 88166, Note_on_c, 0, 80, 0
2, 88220, Note_on_c, 0, 46, 0
2, 88261, Note_on_c, 0, 82, 0
2, 88487, Note_on_c, 0, 80, 45
2, 88489, Note_on_c, 0, 44, 40
2, 88564, Note_on_c, 0, 44, 0
2, 88576, Note_on_c, 0, 80, 0
2, 88668, Note_on_c, 0, 78, 50
2, 88678, Note_on_c, 0, 42, 49
2, 88763, Note_on_c, 0, 78, 0
2, 88805, Note_on_c, 0, 42, 0
2, 89269, Note_on_c, 0, 37, 49
2, 89414, Note_on_c, 0, 37, 0
2, 89450, Note_on_c, 0, 42, 50
2, 89467, Note_on_c, 0, 78, 54
2, 89550, Note_on_c, 0, 78, 0
2, 89591, Note_on_c, 0, 42, 0
2, 89831, Note_on_c, 0, 44, 62
2, 89851, Note_on_c, 0, 80, 70
2, 89948, Note_on_c, 0, 80, 0
2, 90021, Note_on_c, 0, 44, 0
2, 90249, Note_on_c, 0, 82, 60
2, 90249, Note_on_c, 0, 46, 74
2, 90372, Note_on_c, 0, 46, 0
2, 90409, Note_on_c, 0, 82, 0
2, 90666, Note_on_c, 0, 81, 84
2, 90668, Note_on_c, 0, 45, 71
2, 90807, Note_on_c, 0, 81, 0
2, 90812, Note_on_c, 0, 45, 0
2, 90833, Note_on_c, 0, 80, 47
2, 90841, Note_on_c, 0, 44, 31
2, 90873, Note_on_c, 0, 78, 36
2, 90934, Note_on_c, 0, 79, 44
2, 90935, Note_on_c, 0, 80, 0
2, 90953, Note_on_c, 0, 78, 0
2, 90957, Note_on_c, 0, 44, 0
2, 91009, Note_on_c, 0, 79, 0
2, 91039, Note_on_c, 0, 42, 26
2, 91046, Note_on_c, 0, 78, 28
2, 91074, Note_on_c, 0, 42, 0
2, 91135, Control_c, 0, 64, 127
2, 91166, Note_on_c, 0, 78, 0
2, 91250, Control_c, 0, 64, 0
2, 91305, Note_on_c, 0, 90, 83
2, 91327, Note_on_c, 0, 61, 74
2, 91360, Note_on_c, 0, 61, 0
2, 91444, Note_on_c, 0, 90, 0
2, 91677, Note_on_c, 0, 90, 91
2, 91697, Note_on_c, 0, 66, 77
2, 91837, Control_c, 0, 64, 127
2, 92026, Note_on_c, 0, 66, 0
2, 92056, Note_on_c, 0, 61, 18
2, 92088, Note_on_c, 0, 63, 46
2, 92131, Note_on_c, 0, 90, 0
2, 92158, Note_on_c, 0, 61, 0
2, 92164, Control_c, 0, 64, 0
2, 92186, Note_on_c, 0, 63, 0
2, 92205, Note_on_c, 0, 88, 92
2, 92207, Note_on_c, 0, 87, 74
2, 92214, Note_on_c, 0, 64, 81
2, 92266, Note_on_c, 0, 87, 0
2, 92463, Control_c, 0, 64, 127
2, 92708, Note_on_c, 0, 88, 0
2, 92772, Note_on_c, 0, 64, 0
2, 92772, Note_on_c, 0, 86, 81
2, 92772, Note_on_c, 0, 63, 55
2, 92788, Note_on_c, 0, 63, 0
2, 92797, Note_on_c, 0, 62, 60
2, 92800, Control_c, 0, 64, 0
2, 92877, Control_c, 0, 64, 127
2, 92916, Note_on_c, 0, 62, 0
2, 93313, Note_on_c, 0, 83, 90
2, 93314, Note_on_c, 0, 43, 75
2, 93317, Note_on_c, 0, 81, 82
2, 93318, Note_on_c, 0, 54, 88
2, 93321, Control_c, 0, 64, 0
2, 93345, Note_on_c, 0, 86, 0
2, 93656, Control_c, 0, 64, 127
2, 93863, Note_on_c, 0, 83, 0
2, 93883, Note_on_c, 0, 81, 0
2, 94435, Control_c, 0, 64, 0
2, 94473, Note_on_c, 0, 62, 50
2, 94481, Note_on_c, 0, 57, 51
2, 94491, Note_on_c, 0, 59, 32
2, 94517, Note_on_c, 0, 57, 0
2, 94529, Note_on_c, 0, 59, 0
2, 94559, Note_on_c, 0, 62, 0
2, 94720, Note_on_c, 0, 62, 40
2, 94723, Note_on_c, 0, 57, 30
2, 94724, Note_on_c, 0, 59, 37
2, 94763, Note_on_c, 0, 59, 0
2, 94764, Note_on_c, 0, 57, 0
2, 94780, Note_on_c, 0, 62, 0
2, 95081, Note_on_c, 0, 59, 36
2, 95082, Note_on_c, 0, 62, 40
2, 95117, Note_on_c, 0, 57, 31
2, 95118, Note_on_c, 0, 57, 0
2, 95120, Note_on_c, 0, 59, 0
2, 95134, Note_on_c, 0, 62, 0
2, 95315, Note_on_c, 0, 54, 0
2, 95326, Note_on_c, 0, 43, 0
2, 95452, Note_on_c, 0, 62, 32
2, 95453, Note_on_c, 0, 57, 32
2, 95490, Note_on_c, 0, 57, 0
2, 95490, Note_on_c, 0, 59, 35
2, 95493, Note_on_c, 0, 59, 0
2, 95513, Note_on_c, 0, 62, 0
2, 95820, Note_on_c, 0, 62, 36
2, 95835, Note_on_c, 0, 59, 31
2, 95837, Note_on_c, 0, 57, 24
2, 95888, Note_on_c, 0, 57, 0
2, 95889, Note_on_c, 0, 59, 0
2, 95917, Note_on_c, 0, 62, 0
2, 96020, Note_on_c, 0, 62, 53
2, 96021, Note_on_c, 0, 57, 40
2, 96029, Note_on_c, 0, 59, 50
2, 96263, Note_on_c, 0, 57, 0
2, 96307, Note_on_c, 0, 59, 0
2, 96333, Note_on_c, 0, 50, 19
2, 96378, Note_on_c, 0, 62, 0
2, 96422, Note_on_c, 0, 50, 0
2, 96430, Note_on_c, 0, 59, 30
2, 96539, Note_on_c, 0, 59, 0
2, 96642, Note_on_c, 0, 50, 40
2, 96746, Note_on_c, 0, 50, 0
2, 96825, Note_on_c, 0, 62, 43
2, 96830, Note_on_c, 0, 57, 34
2, 96835, Note_on_c, 0, 43, 31
2, 96836, Note_on_c, 0, 59, 37
2, 96853, Note_on_c, 0, 50, 12
2, 96903, Note_on_c, 0, 57, 0
2, 96907, Note_on_c, 0, 59, 0
2, 96948, Note_on_c, 0, 62, 0
2, 97050, Note_on_c, 0, 50, 0
2, 97215, Note_on_c, 0, 59, 20
2, 97232, Note_on_c, 0, 57, 19
2, 97274, Note_on_c, 0, 57, 0
2, 97284, Note_on_c, 0, 59, 0
2, 97408, Note_on_c, 0, 57, 46
2, 97414, Note_on_c, 0, 62, 44
2, 97423, Note_on_c, 0, 59, 45
2, 97460, Note_on_c, 0, 59, 0
2, 97467, Note_on_c, 0, 57, 0
2, 97506, Control_c, 0, 64, 127
2, 97517, Note_on_c, 0, 62, 0
2, 97727, Control_c, 0, 64, 0
2, 97752, Note_on_c, 0, 59, 48
2, 97761, Note_on_c, 0, 50, 39
2, 97766, Note_on_c, 0, 57, 34
2, 97795, Note_on_c, 0, 59, 0
2, 97802, Note_on_c, 0, 57, 0
2, 98004, Note_on_c, 0, 50, 0
2, 98076, Note_on_c, 0, 50, 27
2, 98091, Note_on_c, 0, 55, 61
2, 98174, Note_on_c, 0, 43, 0
2, 98185, Note_on_c, 0, 50, 0
2, 98199, Control_c, 0, 64, 127
2, 98216, Note_on_c, 0, 55, 0
2, 98528, Note_on_c, 0, 71, 91
2, 98699, Note_on_c, 0, 71, 0
2, 98865, Note_on_c, 0, 73, 108
2, 98996, Note_on_c, 0, 73, 0
2, 99104, Control_c, 0, 64, 0
2, 99113, Note_on_c, 0, 73, 85
2, 99136, Note_on_c, 0, 62, 53
2, 99138, Note_on_c, 0, 59, 44
2, 99155, Note_on_c, 0, 57, 33
2, 99160, Note_on_c, 0, 74, 74
2, 99204, Note_on_c, 0, 73, 0
2, 99306, Note_on_c, 0, 57, 0
2, 99316, Note_on_c, 0, 59, 0
2, 99412, Note_on_c, 0, 62, 0
2, 99430, Control_c, 0, 64, 127
2, 99447, Note_on_c, 0, 74, 0
2, 99455, Note_on_c, 0, 73, 77
2, 99643, Note_on_c, 0, 73, 0
2, 99681, Note_on_c, 0, 71, 66
2, 99722, Note_on_c, 0, 71, 0
2, 99920, Note_on_c, 0, 73, 79
2, 99923, Control_c, 0, 64, 0
2, 99933, Note_on_c, 0, 63, 62
2, 99945, Note_on_c, 0, 58, 46
2, 99948, Note_on_c, 0, 52, 56
2, 99975, Note_on_c, 0, 74, 63
2, 100052, Note_on_c, 0, 73, 0
2, 100258, Control_c, 0, 64, 127
2, 100422, Control_c, 0, 64, 0
2, 100457, Note_on_c, 0, 74, 0
2, 100462, Note_on_c, 0, 73, 74
2, 100596, Control_c, 0, 64, 127
2, 100948, Note_on_c, 0, 73, 0
2, 100992, Note_on_c, 0, 70, 68
2, 100999, Control_c, 0, 64, 0
2, 101677, Note_on_c, 0, 63, 0
2, 101747, Note_on_c, 0, 70, 0
2, 102143, Note_on_c, 0, 62, 41
2, 102150, Note_on_c, 0, 64, 40
2, 102182, Note_on_c, 0, 52, 0
2, 102202, Note_on_c, 0, 58, 0
2, 102227, Note_on_c, 0, 62, 0
2, 102239, Note_on_c, 0, 64, 0
2, 102357, Note_on_c, 0, 62, 49
2, 102374, Note_on_c, 0, 64, 37
2, 102400, Note_on_c, 0, 62, 0
2, 102414, Note_on_c, 0, 64, 0
2, 102730, Note_on_c, 0, 58, 42
2, 102798, Note_on_c, 0, 58, 0
2, 103143, Note_on_c, 0, 58, 46
2, 103185, Note_on_c, 0, 58, 0
2, 103292, Note_on_c, 0, 66, 43
2, 103308, Note_on_c, 0, 64, 42
2, 103389, Note_on_c, 0, 64, 0
2, 103426, Note_on_c, 0, 66, 0
2, 103519, Note_on_c, 0, 64, 43
2, 103527, Note_on_c, 0, 66, 37
2, 103571, Note_on_c, 0, 64, 0
2, 103573, Note_on_c, 0, 66, 0
2, 103886, Note_on_c, 0, 58, 53
2, 103966, Note_on_c, 0, 58, 0
2, 104292, Note_on_c, 0, 58, 23
2, 104341, Note_on_c, 0, 58, 0
2, 104454, Note_on_c, 0, 66, 38
2, 104464, Note_on_c, 0, 64, 37
2, 104575, Note_on_c, 0, 64, 0
2, 104590, Note_on_c, 0, 66, 0
2, 104663, Note_on_c, 0, 66, 55
2, 104668, Note_on_c, 0, 64, 57
2, 104724, Note_on_c, 0, 64, 0
2, 104762, Note_on_c, 0, 66, 0
2, 104850, Note_on_c, 0, 66, 47
2, 104861, Note_on_c, 0, 64, 51
2, 104898, Note_on_c, 0, 64, 0
2, 104934, Note_on_c, 0, 66, 0
2, 105071, Note_on_c, 0, 63, 49
2, 105079, Note_on_c, 0, 58, 36
2, 105104, Note_on_c, 0, 63, 0
2, 105134, Note_on_c, 0, 58, 0
2, 105224, Control_c, 0, 64, 127
2, 105474, Note_on_c, 0, 78, 88
2, 105475, Note_on_c, 0, 90, 86
2, 105482, Note_on_c, 0, 52, 78
2, 105490, Note_on_c, 0, 63, 78
2, 105492, Note_on_c, 0, 58, 75
2, 105494, Control_c, 0, 64, 0
2, 105657, Control_c, 0, 64, 127
2, 105883, Note_on_c, 0, 90, 0
2, 105896, Note_on_c, 0, 63, 0
2, 105898, Note_on_c, 0, 58, 0
2, 105910, Note_on_c, 0, 52, 0
2, 105917, Note_on_c, 0, 78, 0
2, 106041, Note_on_c, 0, 52, 38
2, 106043, Note_on_c, 0, 62, 55
2, 106055, Note_on_c, 0, 55, 55
2, 106058, Note_on_c, 0, 59, 43
2, 106059, Note_on_c, 0, 76, 60
2, 106061, Note_on_c, 0, 88, 66
2, 106072, Control_c, 0, 64, 0
2, 106312, Control_c, 0, 64, 127
2, 106379, Note_on_c, 0, 88, 0
2, 106421, Note_on_c, 0, 55, 0
2, 106429, Note_on_c, 0, 52, 0
2, 106438, Note_on_c, 0, 59, 0
2, 106453, Note_on_c, 0, 62, 0
2, 106499, Note_on_c, 0, 76, 0
2, 106612, Note_on_c, 0, 86, 58
2, 106613, Note_on_c, 0, 74, 63
2, 106618, Note_on_c, 0, 62, 49
2, 106620, Note_on_c, 0, 55, 54
2, 106629, Control_c, 0, 64, 0
2, 106636, Note_on_c, 0, 52, 38
2, 106637, Note_on_c, 0, 59, 26
2, 106669, Note_on_c, 0, 84, 44
2, 106669, Note_on_c, 0, 84, 0
2, 106762, Note_on_c, 0, 86, 0
2, 106783, Control_c, 0, 64, 127
2, 106900, Note_on_c, 0, 74, 0
2, 106901, Note_on_c, 0, 55, 0
2, 106907, Note_on_c, 0, 59, 0
2, 106942, Note_on_c, 0, 52, 0
2, 106972, Note_on_c, 0, 62, 0
2, 107176, Note_on_c, 0, 71, 62
2, 107178, Note_on_c, 0, 78, 54
2, 107186, Note_on_c, 0, 62, 50
2, 107187, Note_on_c, 0, 83, 58
2, 107190, Control_c, 0, 64, 0
2, 107202, Note_on_c, 0, 52, 44
2, 107204, Note_on_c, 0, 55, 54
2, 107210, Note_on_c, 0, 59, 29
2, 107325, Note_on_c, 0, 78, 0
2, 107337, Note_on_c, 0, 79, 38
2, 107621, Control_c, 0, 64, 127
2, 107804, Control_c, 0, 64, 0
2, 107913, Note_on_c, 0, 59, 0
2, 107920, Control_c, 0, 64, 127
2, 107926, Note_on_c, 0, 55, 0
2, 107941, Note_on_c, 0, 62, 0
2, 108156, Note_on_c, 0, 62, 53
2, 108166, Note_on_c, 0, 59, 48
2, 108198, Note_on_c, 0, 52, 0
2, 108207, Note_on_c, 0, 59, 0
2, 108209, Note_on_c, 0, 62, 0
2, 108631, Control_c, 0, 64, 0
2, 108703, Note_on_c, 0, 62, 48
2, 108712, Note_on_c, 0, 66, 53
2, 108728, Note_on_c, 0, 59, 41
2, 108740, Note_on_c, 0, 62, 0
2, 108743, Note_on_c, 0, 66, 0
2, 108765, Note_on_c, 0, 59, 0
2, 109107, Note_on_c, 0, 66, 58
2, 109113, Control_c, 0, 64, 127
2, 109114, Note_on_c, 0, 61, 54
2, 109124, Note_on_c, 0, 55, 41
2, 109379, Note_on_c, 0, 55, 0
2, 109410, Note_on_c, 0, 61, 0
2, 109425, Note_on_c, 0, 66, 0
2, 109651, Control_c, 0, 64, 0
2, 109652, Note_on_c, 0, 66, 60
2, 109659, Note_on_c, 0, 61, 51
2, 109724, Note_on_c, 0, 66, 0
2, 109755, Note_on_c, 0, 61, 0
2, 110219, Note_on_c, 0, 65, 55
2, 110224, Note_on_c, 0, 55, 46
2, 110226, Note_on_c, 0, 61, 47
2, 110479, Control_c, 0, 64, 127
2, 110539, Note_on_c, 0, 71, 0
2, 110614, Note_on_c, 0, 79, 0
2, 110630, Note_on_c, 0, 83, 0
2, 110636, Note_on_c, 0, 55, 0
2, 110648, Note_on_c, 0, 65, 0
2, 110649, Note_on_c, 0, 61, 0
2, 110831, Note_on_c, 0, 69, 82
2, 110833, Note_on_c, 0, 81, 78
2, 110836, Note_on_c, 0, 61, 53
2, 110840, Note_on_c, 0, 64, 59
2, 110853, Note_on_c, 0, 55, 52
2, 110893, Control_c, 0, 64, 0
2, 110896, Note_on_c, 0, 69, 0
2, 110939, Note_on_c, 0, 81, 0
2, 110943, Note_on_c, 0, 64, 0
2, 110957, Note_on_c, 0, 55, 0
2, 110961, Control_c, 0, 64, 127
2, 110998, Note_on_c, 0, 61, 0
2, 111121, Note_on_c, 0, 83, 91
2, 111126, Note_on_c, 0, 71, 85
2, 111132, Note_on_c, 0, 61, 74
2, 111139, Note_on_c, 0, 55, 79
2, 111139, Note_on_c, 0, 64, 74
2, 111234, Note_on_c, 0, 82, 40
2, 111240, Note_on_c, 0, 71, 0
2, 111260, Note_on_c, 0, 64, 0
2, 111262, Note_on_c, 0, 83, 0
2, 111266, Note_on_c, 0, 82, 0
2, 111270, Note_on_c, 0, 55, 0
2, 111301, Note_on_c, 0, 61, 0
2, 111366, Note_on_c, 0, 73, 86
2, 111369, Note_on_c, 0, 85, 88
2, 111378, Note_on_c, 0, 61, 64
2, 111383, Note_on_c, 0, 55, 68
2, 111386, Note_on_c, 0, 64, 71
2, 111492, Note_on_c, 0, 64, 0
2, 111503, Note_on_c, 0, 55, 0
2, 111531, Note_on_c, 0, 73, 0
2, 111539, Note_on_c, 0, 85, 0
2, 111544, Note_on_c, 0, 61, 0
2, 111619, Note_on_c, 0, 61, 52
2, 111630, Note_on_c, 0, 55, 63
2, 111634, Control_c, 0, 64, 0
2, 111635, Note_on_c, 0, 64, 62
2, 111644, Note_on_c, 0, 74, 77
2, 111646, Note_on_c, 0, 86, 71
2, 111660, Note_on_c, 0, 85, 46
2, 111716, Note_on_c, 0, 64, 0
2, 111724, Note_on_c, 0, 74, 0
2, 111728, Note_on_c, 0, 55, 0
2, 111730, Note_on_c, 0, 85, 0
2, 111731, Note_on_c, 0, 86, 0
2, 111767, Note_on_c, 0, 61, 0
2, 111808, Control_c, 0, 64, 127
2, 111878, Note_on_c, 0, 61, 53
2, 111891, Note_on_c, 0, 88, 80
2, 111894, Note_on_c, 0, 55, 50
2, 111895, Note_on_c, 0, 64, 47
2, 111897, Note_on_c, 0, 76, 70
2, 111930, Note_on_c, 0, 55, 0
2, 111956, Note_on_c, 0, 64, 0
2, 111966, Note_on_c, 0, 88, 0
2, 111989, Note_on_c, 0, 76, 0
2, 112040, Note_on_c, 0, 61, 0
2, 112116, Control_c, 0, 64, 0
2, 112130, Note_on_c, 0, 61, 48
2, 112153, Note_on_c, 0, 86, 58
2, 112154, Note_on_c, 0, 64, 58
2, 112156, Note_on_c, 0, 74, 56
2, 112158, Note_on_c, 0, 59, 53
2, 112168, Note_on_c, 0, 54, 44
2, 112241, Control_c, 0, 64, 127
2, 112470, Note_on_c, 0, 59, 0
2, 112504, Note_on_c, 0, 74, 0
2, 112521, Note_on_c, 0, 64, 0
2, 112533, Note_on_c, 0, 54, 0
2, 112540, Note_on_c, 0, 61, 0
2, 112541, Note_on_c, 0, 86, 0
2, 112708, Note_on_c, 0, 61, 39
2, 112709, Note_on_c, 0, 64, 51
2, 112716, Note_on_c, 0, 54, 40
2, 112717, Note_on_c, 0, 88, 70
2, 112722, Control_c, 0, 64, 0
2, 112724, Note_on_c, 0, 76, 58
2, 112727, Note_on_c, 0, 59, 47
2, 112818, Control_c, 0, 64, 127
2, 112910, Note_on_c, 0, 88, 0
2, 112926, Note_on_c, 0, 76, 0
2, 112958, Note_on_c, 0, 59, 0
2, 112983, Note_on_c, 0, 64, 0
2, 113005, Note_on_c, 0, 54, 0
2, 113039, Note_on_c, 0, 61, 0
2, 113277, Note_on_c, 0, 61, 26
2, 113290, Control_c, 0, 64, 0
2, 113291, Note_on_c, 0, 64, 42
2, 113293, Note_on_c, 0, 90, 62
2, 113299, Note_on_c, 0, 78, 38
2, 113300, Note_on_c, 0, 54, 40
2, 113302, Note_on_c, 0, 59, 41
2, 113316, Note_on_c, 0, 86, 45
2, 113694, Control_c, 0, 64, 127
2, 113875, Note_on_c, 0, 86, 0
2, 113896, Note_on_c, 0, 90, 0
2, 113989, Note_on_c, 0, 78, 0
2, 114100, Note_on_c, 0, 64, 0
2, 114186, Note_on_c, 0, 59, 0
2, 114503, Note_on_c, 0, 61, 0
2, 114531, Note_on_c, 0, 54, 0
2, 114675, Note_on_c, 0, 71, 89
2, 114697, Note_on_c, 0, 61, 47
2, 114698, Note_on_c, 0, 73, 79
2, 114706, Note_on_c, 0, 54, 59
2, 114707, Note_on_c, 0, 64, 60
2, 114723, Control_c, 0, 64, 0
2, 114728, Note_on_c, 0, 59, 51
2, 114758, Note_on_c, 0, 71, 0
2, 114878, Control_c, 0, 64, 127
2, 114907, Note_on_c, 0, 64, 0
2, 114908, Note_on_c, 0, 59, 0
2, 114914, Note_on_c, 0, 61, 0
2, 115038, Note_on_c, 0, 54, 0
2, 115233, Note_on_c, 0, 73, 0
2, 115268, Note_on_c, 0, 59, 48
2, 115285, Note_on_c, 0, 62, 44
2, 115291, Note_on_c, 0, 71, 66
2, 115301, Control_c, 0, 64, 0
2, 115305, Note_on_c, 0, 54, 28
2, 115504, Control_c, 0, 64, 127
2, 115629, Note_on_c, 0, 62, 0
2, 115673, Note_on_c, 0, 54, 0
2, 115690, Note_on_c, 0, 59, 0
2, 115813, Note_on_c, 0, 59, 28
2, 115820, Note_on_c, 0, 62, 44
2, 115821, Note_on_c, 0, 54, 44
2, 115827, Note_on_c, 0, 73, 52
2, 115833, Control_c, 0, 64, 0
2, 115898, Note_on_c, 0, 71, 0
2, 116006, Control_c, 0, 64, 127
2, 116021, Note_on_c, 0, 62, 0
2, 116058, Note_on_c, 0, 59, 0
2, 116118, Note_on_c, 0, 54, 0
2, 116314, Note_on_c, 0, 73, 0
2, 116357, Note_on_c, 0, 62, 44
2, 116360, Note_on_c, 0, 71, 36
2, 116366, Note_on_c, 0, 54, 40
2, 116373, Note_on_c, 0, 66, 42
2, 116375, Note_on_c, 0, 59, 31
2, 116385, Note_on_c, 0, 64, 25
2, 116400, Control_c, 0, 64, 0
2, 116603, Control_c, 0, 64, 127
2, 116687, Note_on_c, 0, 62, 0
2, 116691, Note_on_c, 0, 59, 0
2, 116716, Note_on_c, 0, 54, 0
2, 116907, Note_on_c, 0, 64, 0
2, 116920, Note_on_c, 0, 62, 36
2, 116925, Note_on_c, 0, 59, 42
2, 116939, Note_on_c, 0, 54, 35
2, 116949, Note_on_c, 0, 66, 0
2, 117003, Note_on_c, 0, 71, 0
2, 117139, Note_on_c, 0, 59, 0
2, 117218, Note_on_c, 0, 62, 0
2, 117477, Note_on_c, 0, 75, 82
2, 117479, Control_c, 0, 64, 0
2, 117485, Note_on_c, 0, 76, 83
2, 117499, Note_on_c, 0, 62, 38
2, 117510, Note_on_c, 0, 59, 47
2, 117546, Note_on_c, 0, 62, 0
2, 117550, Note_on_c, 0, 59, 0
2, 117560, Note_on_c, 0, 75, 0
2, 117619, Note_on_c, 0, 54, 0
2, 117624, Note_on_c, 0, 76, 0
2, 117841, Note_on_c, 0, 54, 33
2, 117857, Note_on_c, 0, 62, 33
2, 117867, Note_on_c, 0, 74, 88
2, 117868, Note_on_c, 0, 59, 27
2, 117945, Note_on_c, 0, 59, 0
2, 117995, Note_on_c, 0, 74, 0
2, 118009, Note_on_c, 0, 62, 0
2, 118029, Note_on_c, 0, 54, 0
2, 118256, Note_on_c, 0, 53, 47
2, 118264, Note_on_c, 0, 59, 39
2, 118269, Note_on_c, 0, 64, 46
2, 118289, Note_on_c, 0, 73, 71
2, 118393, Control_c, 0, 64, 127
2, 118607, Note_on_c, 0, 53, 0
2, 118656, Note_on_c, 0, 64, 0
2, 118661, Note_on_c, 0, 59, 0
2, 118828, Note_on_c, 0, 73, 0
2, 118874, Note_on_c, 0, 74, 51
2, 118877, Note_on_c, 0, 59, 38
2, 118886, Note_on_c, 0, 53, 45
2, 118887, Note_on_c, 0, 64, 34
2, 118903, Control_c, 0, 64, 0
2, 119066, Control_c, 0, 64, 127
2, 119181, Note_on_c, 0, 53, 0
2, 119191, Note_on_c, 0, 64, 0
2, 119234, Note_on_c, 0, 59, 0
2, 119308, Note_on_c, 0, 74, 0
2, 119401, Note_on_c, 0, 76, 44
2, 119417, Note_on_c, 0, 59, 42
2, 119421, Note_on_c, 0, 64, 41
2, 119425, Note_on_c, 0, 53, 47
2, 119432, Control_c, 0, 64, 0
2, 119615, Control_c, 0, 64, 127
2, 120222, Note_on_c, 0, 64, 0
2, 120315, Note_on_c, 0, 59, 0
2, 120532, Note_on_c, 0, 76, 0
2, 120596, Note_on_c, 0, 70, 91
2, 120602, Note_on_c, 0, 67, 80
2, 120611, Note_on_c, 0, 59, 50
2, 120615, Note_on_c, 0, 64, 53
2, 120654, Control_c, 0, 64, 0
2, 120702, Note_on_c, 0, 64, 0
2, 120746, Note_on_c, 0, 59, 0
2, 120780, Control_c, 0, 64, 127
2, 120820, Note_on_c, 0, 53, 0
2, 121128, Note_on_c, 0, 67, 0
2, 121217, Note_on_c, 0, 70, 0
2, 121377, Note_on_c, 0, 66, 62
2, 121379, Note_on_c, 0, 69, 59
2, 121381, Note_on_c, 0, 42, 46
2, 121387, Control_c, 0, 64, 0
2, 121540, Control_c, 0, 64, 127
2, 121704, Note_on_c, 0, 66, 0
2, 121748, Note_on_c, 0, 42, 0
2, 121889, Note_on_c, 0, 69, 0
2, 121935, Note_on_c, 0, 68, 61
2, 121944, Note_on_c, 0, 65, 50
2, 122293, Note_on_c, 0, 65, 0
2, 122406, Note_on_c, 0, 68, 0
2, 122495, Note_on_c, 0, 67, 52
2, 122511, Note_on_c, 0, 42, 47
2, 122530, Note_on_c, 0, 62, 31
2, 122546, Note_on_c, 0, 64, 24
2, 122560, Control_c, 0, 64, 0
2, 122659, Note_on_c, 0, 62, 0
2, 122762, Control_c, 0, 64, 127
2, 122850, Note_on_c, 0, 67, 0
2, 123009, Note_on_c, 0, 64, 0
2, 123233, Note_on_c, 0, 74, 72
2, 123240, Note_on_c, 0, 66, 74
2, 123244, Note_on_c, 0, 62, 67
2, 123264, Note_on_c, 0, 54, 62
2, 123320, Control_c, 0, 64, 0
2, 123523, Control_c, 0, 64, 127
2, 123663, Note_on_c, 0, 54, 0
2, 123689, Note_on_c, 0, 74, 0
2, 123800, Note_on_c, 0, 42, 0
2, 123890, Note_on_c, 0, 73, 83
2, 124068, Note_on_c, 0, 62, 0
2, 124255, Note_on_c, 0, 73, 0
2, 124317, Note_on_c, 0, 66, 0
2, 124453, Note_on_c, 0, 73, 61
2, 124457, Control_c, 0, 64, 0
2, 124465, Note_on_c, 0, 64, 36
2, 124474, Note_on_c, 0, 47, 53
2, 124629, Control_c, 0, 64, 127
2, 125421, Note_on_c, 0, 64, 0
2, 125475, Note_on_c, 0, 47, 0
2, 125532, Note_on_c, 0, 73, 0
2, 125572, Note_on_c, 0, 71, 63
2, 125574, Note_on_c, 0, 62, 68
2, 125583, Note_on_c, 0, 47, 53
2, 125631, Control_c, 0, 64, 0
2, 125987, Control_c, 0, 64, 127
2, 126745, Note_on_c, 0, 62, 0
2, 126868, Note_on_c, 0, 71, 0
2, 126980, Note_on_c, 0, 47, 0
2, 127513, Note_on_c, 0, 47, 50
2, 127527, Control_c, 0, 64, 0
2, 127531, Note_on_c, 0, 87, 64
2, 127536, Note_on_c, 0, 75, 45
2, 127538, Note_on_c, 0, 57, 33
2, 127699, Control_c, 0, 64, 127
2, 127834, Note_on_c, 0, 57, 0
2, 127871, Note_on_c, 0, 47, 0
2, 127928, Note_on_c, 0, 75, 0
2, 127940, Note_on_c, 0, 87, 0
2, 128072, Note_on_c, 0, 47, 43
2, 128075, Note_on_c, 0, 88, 57
2, 128081, Note_on_c, 0, 57, 34
2, 128085, Note_on_c, 0, 76, 48
2, 128094, Control_c, 0, 64, 0
2, 128149, Note_on_c, 0, 47, 0
2, 128153, Note_on_c, 0, 57, 0
2, 128196, Note_on_c, 0, 76, 0
2, 128224, Note_on_c, 0, 88, 0
2, 128649, Note_on_c, 0, 57, 42
2, 128650, Note_on_c, 0, 47, 43
2, 128660, Note_on_c, 0, 90, 59
2, 128661, Note_on_c, 0, 78, 43
2, 128703, Control_c, 0, 64, 127
2, 128914, Note_on_c, 0, 90, 0
2, 128990, Note_on_c, 0, 78, 0
2, 129484, Note_on_c, 0, 47, 0
2, 129707, Note_on_c, 0, 57, 0
2, 130607, Note_on_c, 0, 67, 54
2, 130618, Control_c, 0, 64, 0
2, 130622, Note_on_c, 0, 59, 27
2, 130629, Note_on_c, 0, 62, 28
2, 130630, Note_on_c, 0, 52, 32
2, 130634, Note_on_c, 0, 55, 36
2, 130936, Control_c, 0, 64, 127
2, 131037, Note_on_c, 0, 67, 0
2, 131167, Control_c, 0, 64, 0
2, 131170, Note_on_c, 0, 69, 113
2, 131300, Note_on_c, 0, 59, 0
2, 131311, Control_c, 0, 64, 127
2, 131352, Note_on_c, 0, 62, 0
2, 131523, Note_on_c, 0, 55, 0
2, 131547, Note_on_c, 0, 69, 0
2, 131560, Note_on_c, 0, 52, 0
2, 131699, Note_on_c, 0, 71, 99
2, 131706, Control_c, 0, 64, 0
2, 131773, Control_c, 0, 64, 127
2, 131972, Note_on_c, 0, 71, 0
2, 132095, Note_on_c, 0, 73, 79
2, 132159, Control_c, 0, 64, 0
2, 132389, Control_c, 0, 64, 127
2, 132654, Note_on_c, 0, 73, 0
2, 132697, Note_on_c, 0, 66, 37
2, 132729, Note_on_c, 0, 66, 0
2, 132732, Note_on_c, 0, 62, 24
2, 132769, Note_on_c, 0, 59, 22
2, 132785, Note_on_c, 0, 62, 0
2, 132813, Control_c, 0, 64, 0
2, 132861, Note_on_c, 0, 74, 66
2, 132883, Note_on_c, 0, 59, 0
2, 132980, Note_on_c, 0, 74, 0
2, 133268, Note_on_c, 0, 76, 71
2, 133381, Note_on_c, 0, 76, 0
2, 133658, Note_on_c, 0, 63, 33
2, 133665, Note_on_c, 0, 74, 55
2, 133682, Note_on_c, 0, 58, 27
2, 133722, Note_on_c, 0, 63, 0
2, 133744, Note_on_c, 0, 58, 0
2, 133761, Note_on_c, 0, 74, 0
2, 134054, Note_on_c, 0, 76, 62
2, 134112, Control_c, 0, 64, 127
2, 134156, Note_on_c, 0, 76, 0
2, 134227, Control_c, 0, 64, 0
2, 134275, Note_on_c, 0, 78, 72
2, 134400, Control_c, 0, 64, 127
2, 134708, Control_c, 0, 64, 0
2, 134796, Control_c, 0, 64, 127
2, 135090, Note_on_c, 0, 57, 42
2, 135092, Note_on_c, 0, 54, 40
2, 135103, Control_c, 0, 64, 0
2, 135106, Note_on_c, 0, 59, 35
2, 135114, Note_on_c, 0, 62, 26
2, 135539, Note_on_c, 0, 59, 0
2, 135565, Control_c, 0, 64, 127
2, 135598, Note_on_c, 0, 62, 0
2, 135609, Note_on_c, 0, 54, 0
2, 135682, Note_on_c, 0, 57, 0
2, 135880, Note_on_c, 0, 78, 0
2, 136163, Note_on_c, 0, 75, 61
2, 136164, Note_on_c, 0, 76, 76
2, 136196, Note_on_c, 0, 75, 0
2, 136200, Control_c, 0, 64, 0
2, 136206, Note_on_c, 0, 61, 35
2, 136242, Note_on_c, 0, 61, 0
2, 136267, Note_on_c, 0, 76, 0
2, 136403, Control_c, 0, 64, 127
2, 136499, Note_on_c, 0, 74, 74
2, 136698, Note_on_c, 0, 74, 0
2, 136746, Note_on_c, 0, 65, 40
2, 136748, Note_on_c, 0, 53, 56
2, 136755, Note_on_c, 0, 70, 53
2, 136762, Note_on_c, 0, 73, 83
2, 136778, Control_c, 0, 64, 0
2, 137018, Control_c, 0, 64, 127
2, 137244, Note_on_c, 0, 73, 0
2, 137308, Note_on_c, 0, 74, 88
2, 137554, Note_on_c, 0, 70, 0
2, 137622, Note_on_c, 0, 65, 0
2, 137708, Note_on_c, 0, 53, 0
2, 137777, Note_on_c, 0, 74, 0
2, 137858, Note_on_c, 0, 76, 63
2, 137949, Note_on_c, 0, 76, 0
2, 138270, Control_c, 0, 64, 0
2, 138276, Note_on_c, 0, 74, 63
2, 138285, Note_on_c, 0, 69, 74
2, 138292, Note_on_c, 0, 64, 59
2, 138684, Control_c, 0, 64, 127
2, 138866, Control_c, 0, 64, 0
2, 138955, Note_on_c, 0, 74, 0
2, 139002, Note_on_c, 0, 67, 56
2, 139035, Note_on_c, 0, 73, 67
2, 139386, Note_on_c, 0, 67, 0
2, 139386, Note_on_c, 0, 69, 0
2, 139466, Note_on_c, 0, 73, 0
2, 139483, Note_on_c, 0, 64, 0
2, 139799, Note_on_c, 0, 73, 56
2, 139805, Note_on_c, 0, 54, 42
2, 139806, Note_on_c, 0, 64, 57
2, 139817, Note_on_c, 0, 47, 44
2, 139887, Control_c, 0, 64, 127
2, 140386, Note_on_c, 0, 64, 0
2, 140529, Note_on_c, 0, 63, 62
2, 140541, Note_on_c, 0, 71, 52
2, 140549, Note_on_c, 0, 59, 38
2, 140551, Control_c, 0, 64, 0
2, 140552, Note_on_c, 0, 73, 0
2, 141369, Control_c, 0, 64, 127
2, 141907, Note_on_c, 0, 63, 0
2, 142136, Note_on_c, 0, 71, 0
2, 142438, Note_on_c, 0, 47, 0
2, 142566, Note_on_c, 0, 59, 0
2, 142658, Control_c, 0, 64, 0
2, 142857, Note_on_c, 0, 83, 52
2, 142875, Note_on_c, 0, 47, 36
2, 142880, Note_on_c, 0, 54, 0
2, 142900, Note_on_c, 0, 83, 0
2, 142933, Note_on_c, 0, 47, 0
2, 143441, Note_on_c, 0, 88, 40
2, 143448, Note_on_c, 0, 52, 51
2, 143485, Note_on_c, 0, 88, 0
2, 143492, Note_on_c, 0, 52, 0
2, 144232, Note_on_c, 0, 91, 74
2, 144233, Note_on_c, 0, 55, 53
2, 144342, Note_on_c, 0, 91, 0
2, 144345, Note_on_c, 0, 55, 0
2, 144359, Note_on_c, 0, 54, 52
2, 144412, Note_on_c, 0, 90, 51
2, 144601, Note_on_c, 0, 90, 0
2, 144722, Note_on_c, 0, 54, 0
2, 144755, Note_on_c, 0, 86, 41
2, 144760, Note_on_c, 0, 50, 42
2, 144857, Note_on_c, 0, 86, 0
2, 144972, Note_on_c, 0, 83, 31
2, 145032, Note_on_c, 0, 50, 0
2, 145058, Note_on_c, 0, 83, 0
2, 145071, Note_on_c, 0, 47, 26
2, 145139, Note_on_c, 0, 47, 0
2, 145166, Note_on_c, 0, 88, 60
2, 145180, Note_on_c, 0, 52, 43
2, 145198, Note_on_c, 0, 88, 0
2, 145240, Note_on_c, 0, 52, 0
2, 145778, Note_on_c, 0, 81, 75
2, 145790, Note_on_c, 0, 45, 61
2, 145812, Note_on_c, 0, 81, 0
2, 145827, Note_on_c, 0, 45, 0
2, 146572, Note_on_c, 0, 86, 80
2, 146572, Note_on_c, 0, 50, 60
2, 146666, Note_on_c, 0, 50, 0
2, 146716, Note_on_c, 0, 85, 62
2, 146716, Note_on_c, 0, 49, 57
2, 146725, Note_on_c, 0, 86, 0
2, 146822, Note_on_c, 0, 85, 0
2, 146935, Note_on_c, 0, 49, 0
2, 147449, Note_on_c, 0, 81, 62
2, 147462, Note_on_c, 0, 45, 51
2, 147581, Note_on_c, 0, 81, 0
2, 147642, Note_on_c, 0, 45, 0
2, 147682, Note_on_c, 0, 83, 54
2, 147693, Note_on_c, 0, 47, 37
2, 147741, Note_on_c, 0, 83, 0
2, 147841, Note_on_c, 0, 47, 0
2, 148031, Note_on_c, 0, 79, 51
2, 148052, Note_on_c, 0, 43, 45
2, 148122, Note_on_c, 0, 79, 0
2, 148123, Note_on_c, 0, 43, 0
2, 148436, Note_on_c, 0, 43, 36
2, 148445, Note_on_c, 0, 79, 57
2, 148479, Note_on_c, 0, 79, 0
2, 148525, Note_on_c, 0, 43, 0
2, 148618, Note_on_c, 0, 86, 80
2, 148628, Note_on_c, 0, 50, 76
2, 148716, Note_on_c, 0, 86, 0
2, 148754, Note_on_c, 0, 50, 0
2, 149016, Note_on_c, 0, 52, 88
2, 149018, Note_on_c, 0, 88, 85
2, 149023, Note_on_c, 0, 86, 84
2, 149106, Note_on_c, 0, 86, 0
2, 149117, Note_on_c, 0, 88, 0
2, 149140, Note_on_c, 0, 52, 0
2, 149586, Note_on_c, 0, 52, 60
2, 149599, Note_on_c, 0, 88, 55
2, 149655, Note_on_c, 0, 88, 0
2, 149700, Note_on_c, 0, 52, 0
2, 149755, Note_on_c, 0, 91, 80
2, 149857, Note_on_c, 0, 55, 52
2, 149858, Note_on_c, 0, 55, 0
2, 149863, Note_on_c, 0, 91, 0
2, 149954, Note_on_c, 0, 91, 62
2, 149975, Note_on_c, 0, 55, 47
2, 150066, Note_on_c, 0, 91, 0
2, 150073, Note_on_c, 0, 55, 0
2, 150116, Note_on_c, 0, 54, 48
2, 150133, Note_on_c, 0, 90, 48
2, 150268, Note_on_c, 0, 90, 0
2, 150338, Note_on_c, 0, 54, 0
2, 150359, Note_on_c, 0, 86, 44
2, 150363, Note_on_c, 0, 50, 38
2, 150436, Note_on_c, 0, 86, 0
2, 150467, Note_on_c, 0, 50, 0
2, 150521, Note_on_c, 0, 83, 54
2, 150524, Note_on_c, 0, 47, 55
2, 150721, Note_on_c, 0, 83, 0
2, 150800, Note_on_c, 0, 47, 0
2, 150932, Note_on_c, 0, 86, 35
2, 150935, Note_on_c, 0, 50, 42
2, 151017, Note_on_c, 0, 86, 0
2, 151166, Note_on_c, 0, 50, 0
2, 151313, Note_on_c, 0, 88, 71
2, 151322, Note_on_c, 0, 52, 55
2, 151596, Note_on_c, 0, 88, 0
2, 151660, Note_on_c, 0, 52, 0
2, 151683, Note_on_c, 0, 85, 38
2, 151684, Note_on_c, 0, 49, 40
2, 151815, Note_on_c, 0, 85, 0
2, 151891, Note_on_c, 0, 83, 53
2, 151911, Note_on_c, 0, 49, 0
2, 151936, Note_on_c, 0, 83, 0
2, 152274, Note_on_c, 0, 42, 52
2, 152275, Note_on_c, 0, 78, 50
2, 152421, Note_on_c, 0, 78, 0
2, 152423, Note_on_c, 0, 42, 0
2, 152474, Note_on_c, 0, 76, 40
2, 152514, Note_on_c, 0, 40, 42
2, 152977, Note_on_c, 0, 76, 0
2, 152992, Note_on_c, 0, 40, 0
2, 153023, Note_on_c, 0, 42, 39
2, 153044, Note_on_c, 0, 78, 45
2, 153092, Note_on_c, 0, 42, 0
2, 153148, Note_on_c, 0, 78, 0
2, 153406, Note_on_c, 0, 47, 32
2, 153408, Note_on_c, 0, 83, 46
2, 153460, Note_on_c, 0, 83, 0
2, 153541, Note_on_c, 0, 47, 0
2, 153600, Note_on_c, 0, 85, 77
2, 153639, Note_on_c, 0, 49, 64
2, 154004, Note_on_c, 0, 49, 0
2, 154060, Note_on_c, 0, 85, 0
2, 154143, Note_on_c, 0, 46, 46
2, 154148, Note_on_c, 0, 80, 50
2, 154172, Note_on_c, 0, 82, 61
2, 154294, Note_on_c, 0, 80, 0
2, 154458, Note_on_c, 0, 82, 0
2, 154489, Note_on_c, 0, 46, 0
2, 154544, Note_on_c, 0, 80, 49
2, 154576, Note_on_c, 0, 44, 31
2, 154666, Note_on_c, 0, 80, 0
2, 154677, Note_on_c, 0, 44, 0
2, 154721, Note_on_c, 0, 78, 48
2, 154738, Note_on_c, 0, 42, 48
2, 154806, Note_on_c, 0, 78, 0
2, 154860, Note_on_c, 0, 42, 0
2, 155338, Note_on_c, 0, 37, 34
2, 155349, Note_on_c, 0, 73, 47
2, 155420, Note_on_c, 0, 73, 0
2, 155465, Note_on_c, 0, 37, 0
2, 155495, Note_on_c, 0, 42, 47
2, 155509, Note_on_c, 0, 78, 54
2, 155653, Note_on_c, 0, 78, 0
2, 155739, Note_on_c, 0, 42, 0
2, 155919, Note_on_c, 0, 80, 70
2, 155922, Note_on_c, 0, 44, 54
2, 156024, Note_on_c, 0, 80, 0
2, 156189, Note_on_c, 0, 44, 0
2, 156301, Note_on_c, 0, 46, 61
2, 156317, Note_on_c, 0, 82, 76
2, 156425, Note_on_c, 0, 82, 0
2, 156428, Note_on_c, 0, 46, 0
2, 156698, Note_on_c, 0, 81, 76
2, 156709, Note_on_c, 0, 45, 57
2, 156846, Note_on_c, 0, 81, 0
2, 156852, Note_on_c, 0, 44, 18
2, 156865, Note_on_c, 0, 45, 0
2, 156872, Note_on_c, 0, 80, 38
2, 156943, Note_on_c, 0, 44, 0
2, 156957, Note_on_c, 0, 79, 36
2, 156997, Note_on_c, 0, 80, 0
2, 157047, Note_on_c, 0, 79, 0
2, 157089, Note_on_c, 0, 42, 42
2, 157092, Note_on_c, 0, 78, 27
2, 157170, Note_on_c, 0, 42, 0
2, 157218, Note_on_c, 0, 78, 0
2, 157325, Note_on_c, 0, 90, 77
2, 157438, Note_on_c, 0, 90, 0
2, 157728, Note_on_c, 0, 90, 83
2, 157729, Note_on_c, 0, 64, 32
2, 157743, Note_on_c, 0, 66, 67
2, 157776, Note_on_c, 0, 64, 0
2, 158124, Note_on_c, 0, 66, 0
2, 158175, Note_on_c, 0, 63, 31
2, 158197, Note_on_c, 0, 90, 0
2, 158259, Note_on_c, 0, 63, 0
2, 158261, Note_on_c, 0, 64, 67
2, 158271, Note_on_c, 0, 88, 89
2, 158791, Note_on_c, 0, 88, 0
2, 158829, Note_on_c, 0, 64, 0
2, 158832, Note_on_c, 0, 86, 88
2, 158833, Note_on_c, 0, 62, 74
2, 159213, Note_on_c, 0, 86, 0
2, 159325, Note_on_c, 0, 62, 0
2, 160175, Note_on_c, 0, 69, 95
2, 160345, Note_on_c, 0, 69, 0
2, 160386, Note_on_c, 0, 66, 61
2, 160453, Note_on_c, 0, 59, 26
2, 160484, Note_on_c, 0, 66, 0
2, 160505, Note_on_c, 0, 59, 0
2, 160569, Note_on_c, 0, 67, 42
2, 160723, Note_on_c, 0, 67, 0
2, 160758, Note_on_c, 0, 69, 71
2, 160903, Note_on_c, 0, 69, 0
2, 160945, Note_on_c, 0, 70, 55
2, 161085, Note_on_c, 0, 70, 0
2, 161147, Note_on_c, 0, 71, 56
2, 161338, Note_on_c, 0, 71, 0
2, 161338, Note_on_c, 0, 74, 33
2, 161516, Note_on_c, 0, 74, 0
2, 161526, Note_on_c, 0, 78, 64
2, 161606, Note_on_c, 0, 78, 0
2, 161747, Note_on_c, 0, 81, 31
2, 161865, Note_on_c, 0, 81, 0
2, 161896, Note_on_c, 0, 86, 74
2, 162019, Note_on_c, 0, 86, 0
2, 162094, Note_on_c, 0, 90, 86
2, 162115, Note_on_c, 0, 87, 46
2, 162146, Note_on_c, 0, 87, 0
2, 162270, Note_on_c, 0, 90, 0
2, 162302, Note_on_c, 0, 93, 91
2, 162312, Note_on_c, 0, 91, 76
2, 162346, Note_on_c, 0, 91, 0
2, 162479, Note_on_c, 0, 91, 47
2, 162538, Note_on_c, 0, 93, 0
2, 162649, Note_on_c, 0, 91, 0
2, 162695, Note_on_c, 0, 90, 69
2, 162864, Note_on_c, 0, 90, 0
2, 162914, Note_on_c, 0, 86, 45
2, 163031, Note_on_c, 0, 86, 0
2, 163105, Note_on_c, 0, 86, 53
2, 163210, Note_on_c, 0, 86, 0
2, 163264, Note_on_c, 0, 88, 81
2, 163372, Note_on_c, 0, 88, 0
2, 163458, Note_on_c, 0, 88, 68
2, 163571, Note_on_c, 0, 88, 0
2, 163607, Note_on_c, 0, 83, 57
2, 163652, Note_on_c, 0, 83, 0
2, 163797, Note_on_c, 0, 83, 63
2, 163886, Note_on_c, 0, 83, 0
2, 163972, Note_on_c, 0, 86, 58
2, 164070, Note_on_c, 0, 86, 0
2, 164159, Note_on_c, 0, 86, 47
2, 164300, Note_on_c, 0, 86, 0
2, 164342, Note_on_c, 0, 81, 52
2, 164392, Note_on_c, 0, 81, 0
2, 164564, Note_on_c, 0, 62, 37
2, 164573, Note_on_c, 0, 54, 31
2, 164575, Note_on_c, 0, 59, 32
2, 164628, Note_on_c, 0, 59, 0
2, 164635, Note_on_c, 0, 62, 0
2, 164640, Note_on_c, 0, 54, 0
2, 164739, Note_on_c, 0, 62, 35
2, 164755, Note_on_c, 0, 54, 42
2, 164761, Note_on_c, 0, 59, 40
2, 164945, Note_on_c, 0, 59, 0
2, 164945, Note_on_c, 0, 54, 0
2, 164956, Note_on_c, 0, 62, 0
2, 165163, Note_on_c, 0, 62, 43
2, 165174, Note_on_c, 0, 54, 44
2, 165185, Note_on_c, 0, 59, 31
2, 165258, Note_on_c, 0, 62, 0
2, 165272, Note_on_c, 0, 54, 0
2, 165294, Note_on_c, 0, 59, 0
2, 165406, Note_on_c, 0, 62, 29
2, 165417, Note_on_c, 0, 59, 37
2, 165422, Note_on_c, 0, 54, 32
2, 165463, Note_on_c, 0, 59, 0
2, 165484, Note_on_c, 0, 62, 0
2, 165502, Note_on_c, 0, 54, 0
2, 165753, Note_on_c, 0, 63, 55
2, 165766, Note_on_c, 0, 58, 48
2, 165768, Note_on_c, 0, 52, 48
2, 165812, Note_on_c, 0, 52, 0
2, 165844, Note_on_c, 0, 63, 0
2, 165860, Note_on_c, 0, 58, 0
2, 166514, Note_on_c, 0, 63, 58
2, 166529, Note_on_c, 0, 58, 47
2, 166539, Note_on_c, 0, 52, 36
2, 166580, Note_on_c, 0, 52, 0
2, 166585, Note_on_c, 0, 63, 0
2, 166618, Note_on_c, 0, 58, 0
2, 167056, Note_on_c, 0, 63, 69
2, 167076, Note_on_c, 0, 58, 48
2, 167091, Note_on_c, 0, 52, 37
2, 167140, Note_on_c, 0, 52, 0
2, 167142, Note_on_c, 0, 63, 0
2, 167230, Note_on_c, 0, 58, 0
2, 167477, Note_on_c, 0, 93, 118
2, 167626, Note_on_c, 0, 93, 0
2, 167673, Note_on_c, 0, 96, 96
2, 167689, Note_on_c, 0, 63, 48
2, 167729, Note_on_c, 0, 63, 0
2, 167864, Note_on_c, 0, 94, 62
2, 167876, Note_on_c, 0, 96, 0
2, 168062, Note_on_c, 0, 90, 59
2, 168081, Note_on_c, 0, 58, 23
2, 168150, Note_on_c, 0, 94, 0
2, 168220, Note_on_c, 0, 90, 0
2, 168226, Note_on_c, 0, 88, 47
2, 168285, Note_on_c, 0, 58, 0
2, 168402, Note_on_c, 0, 88, 0
2, 168426, Note_on_c, 0, 63, 58
2, 168428, Note_on_c, 0, 93, 83
2, 168481, Note_on_c, 0, 63, 0
2, 168621, Note_on_c, 0, 91, 62
2, 168716, Note_on_c, 0, 93, 0
2, 168778, Note_on_c, 0, 91, 0
2, 168825, Note_on_c, 0, 87, 63
2, 168965, Note_on_c, 0, 87, 0
2, 168998, Note_on_c, 0, 85, 25
2, 169143, Note_on_c, 0, 85, 0
2, 169174, Note_on_c, 0, 90, 75
2, 169175, Note_on_c, 0, 63, 43
2, 169207, Note_on_c, 0, 63, 0
2, 169324, Note_on_c, 0, 90, 0
2, 169395, Note_on_c, 0, 88, 43
2, 169486, Note_on_c, 0, 88, 0
2, 169943, Note_on_c, 0, 63, 42
2, 169947, Note_on_c, 0, 52, 45
2, 169950, Note_on_c, 0, 58, 50
2, 170382, Note_on_c, 0, 63, 0
2, 170511, Note_on_c, 0, 87, 97
2, 170567, Note_on_c, 0, 52, 0
2, 170644, Note_on_c, 0, 58, 0
2, 170665, Note_on_c, 0, 87, 0
2, 170722, Note_on_c, 0, 88, 78
2, 170732, Note_on_c, 0, 63, 43
2, 170741, Note_on_c, 0, 58, 45
2, 170764, Note_on_c, 0, 63, 0
2, 170859, Note_on_c, 0, 88, 0
2, 170900, Note_on_c, 0, 87, 52
2, 170998, Note_on_c, 0, 58, 0
2, 171083, Note_on_c, 0, 87, 0
2, 171102, Note_on_c, 0, 85, 76
2, 171118, Note_on_c, 0, 58, 35
2, 171123, Note_on_c, 0, 63, 52
2, 171157, Note_on_c, 0, 52, 22
2, 171165, Note_on_c, 0, 63, 0
2, 171204, Note_on_c, 0, 52, 0
2, 171261, Note_on_c, 0, 85, 0
2, 171360, Note_on_c, 0, 58, 0
2, 171497, Note_on_c, 0, 58, 37
2, 171666, Note_on_c, 0, 85, 83
2, 171694, Note_on_c, 0, 86, 59
2, 171753, Note_on_c, 0, 58, 0
2, 171763, Note_on_c, 0, 86, 0
2, 171799, Note_on_c, 0, 85, 0
2, 171876, Note_on_c, 0, 87, 75
2, 171908, Note_on_c, 0, 62, 36
2, 171933, Note_on_c, 0, 59, 24
2, 172056, Note_on_c, 0, 85, 55
2, 172058, Note_on_c, 0, 62, 0
2, 172062, Note_on_c, 0, 87, 0
2, 172090, Note_on_c, 0, 59, 0
2, 172261, Note_on_c, 0, 85, 0
2, 172266, Note_on_c, 0, 84, 55
2, 172331, Note_on_c, 0, 59, 17
2, 172334, Note_on_c, 0, 84, 0
2, 172347, Note_on_c, 0, 55, 19
2, 172395, Note_on_c, 0, 59, 0
2, 172438, Note_on_c, 0, 55, 0
2, 172632, Note_on_c, 0, 62, 39
2, 172665, Note_on_c, 0, 62, 0
2, 172667, Note_on_c, 0, 59, 28
2, 172670, Note_on_c, 0, 77, 19
2, 172726, Note_on_c, 0, 77, 0
2, 172772, Note_on_c, 0, 59, 0
2, 172834, Note_on_c, 0, 86, 96
2, 173051, Note_on_c, 0, 83, 68
2, 173089, Note_on_c, 0, 86, 0
2, 173177, Note_on_c, 0, 83, 0
2, 173211, Note_on_c, 0, 79, 37
2, 173369, Note_on_c, 0, 79, 0
2, 173408, Note_on_c, 0, 74, 48
2, 173409, Note_on_c, 0, 62, 39
2, 173443, Note_on_c, 0, 62, 0
2, 173447, Note_on_c, 0, 59, 22
2, 173493, Note_on_c, 0, 74, 0
2, 173533, Note_on_c, 0, 59, 0
2, 173626, Note_on_c, 0, 71, 28
2, 173764, Note_on_c, 0, 71, 0
2, 173811, Note_on_c, 0, 67, 32
2, 173869, Note_on_c, 0, 67, 0
2, 173982, Note_on_c, 0, 73, 90
2, 174128, Note_on_c, 0, 73, 0
2, 174189, Note_on_c, 0, 74, 83
2, 174207, Note_on_c, 0, 59, 47
2, 174212, Note_on_c, 0, 62, 64
2, 174225, Note_on_c, 0, 55, 39
2, 174245, Note_on_c, 0, 62, 0
2, 174315, Note_on_c, 0, 59, 0
2, 174335, Note_on_c, 0, 55, 0
2, 174370, Note_on_c, 0, 71, 55
2, 174417, Note_on_c, 0, 74, 0
2, 174537, Note_on_c, 0, 71, 0
2, 174581, Note_on_c, 0, 67, 57
2, 174683, Note_on_c, 0, 67, 0
2, 174757, Note_on_c, 0, 64, 29
2, 174974, Note_on_c, 0, 64, 0
2, 174995, Note_on_c, 0, 61, 47
2, 175100, Note_on_c, 0, 61, 0
2, 175139, Note_on_c, 0, 67, 80
2, 175456, Note_on_c, 0, 67, 0
2, 175500, Note_on_c, 0, 60, 42
2, 175575, Note_on_c, 0, 60, 0
2, 175629, Note_on_c, 0, 61, 53
2, 175708, Note_on_c, 0, 61, 0
2, 175755, Note_on_c, 0, 63, 74
2, 175799, Note_on_c, 0, 64, 50
2, 175973, Note_on_c, 0, 64, 0
2, 176007, Note_on_c, 0, 63, 0
2, 176079, Note_on_c, 0, 65, 36
2, 176086, Note_on_c, 0, 64, 37
2, 176132, Note_on_c, 0, 64, 0
2, 176140, Note_on_c, 0, 65, 0
2, 176182, Note_on_c, 0, 66, 69
2, 176272, Note_on_c, 0, 66, 0
2, 176304, Note_on_c, 0, 67, 84
2, 176595, Note_on_c, 0, 67, 0
2, 176617, Note_on_c, 0, 69, 53
2, 176709, Note_on_c, 0, 69, 0
2, 176749, Note_on_c, 0, 70, 67
2, 176818, Note_on_c, 0, 70, 0
2, 176870, Note_on_c, 0, 72, 74
2, 176876, Note_on_c, 0, 66, 68
2, 176879, Note_on_c, 0, 61, 59
2, 176889, Note_on_c, 0, 55, 62
2, 177174, Note_on_c, 0, 73, 64
2, 177175, Note_on_c, 0, 55, 0
2, 177181, Note_on_c, 0, 72, 0
2, 177201, Note_on_c, 0, 66, 0
2, 177230, Note_on_c, 0, 61, 0
2, 177275, Note_on_c, 0, 73, 0
2, 177282, Note_on_c, 0, 75, 72
2, 177374, Note_on_c, 0, 75, 0
2, 177405, Note_on_c, 0, 76, 85
2, 177415, Note_on_c, 0, 66, 80
2, 177418, Note_on_c, 0, 61, 71
2, 177428, Note_on_c, 0, 55, 77
2, 177442, Note_on_c, 0, 81, 35
2, 177480, Note_on_c, 0, 81, 0
2, 177721, Note_on_c, 0, 76, 0
2, 177776, Note_on_c, 0, 78, 59
2, 177856, Note_on_c, 0, 78, 0
2, 177856, Note_on_c, 0, 55, 0
2, 177872, Note_on_c, 0, 66, 0
2, 177910, Note_on_c, 0, 79, 64
2, 178011, Note_on_c, 0, 79, 0
2, 178041, Note_on_c, 0, 81, 79
2, 178057, Note_on_c, 0, 64, 66
2, 178064, Note_on_c, 0, 54, 60
2, 178078, Note_on_c, 0, 59, 53
2, 179210, Note_on_c, 0, 81, 0
2, 179219, Note_on_c, 0, 85, 48
2, 179315, Note_on_c, 0, 85, 0
2, 179373, Note_on_c, 0, 59, 0
2, 179374, Note_on_c, 0, 64, 0
2, 179382, Note_on_c, 0, 76, 49
2, 179396, Note_on_c, 0, 88, 79
2, 179409, Note_on_c, 0, 54, 0
2, 179450, Note_on_c, 0, 61, 0
2, 179624, Note_on_c, 0, 88, 0
2, 179644, Note_on_c, 0, 76, 0
2, 179780, Note_on_c, 0, 88, 60
2, 179782, Note_on_c, 0, 76, 48
2, 180040, Note_on_c, 0, 76, 0
2, 180056, Note_on_c, 0, 88, 0
2, 180117, Note_on_c, 0, 85, 37
2, 180242, Note_on_c, 0, 85, 0
2, 180361, Note_on_c, 0, 76, 37
2, 180369, Note_on_c, 0, 81, 35
2, 180411, Note_on_c, 0, 81, 0
2, 180419, Note_on_c, 0, 76, 0
2, 180712, Note_on_c, 0, 61, 48
2, 180716, Note_on_c, 0, 64, 55
2, 180727, Note_on_c, 0, 59, 49
2, 180758, Note_on_c, 0, 64, 0
2, 180789, Note_on_c, 0, 61, 0
2, 180798, Note_on_c, 0, 59, 0
2, 181077, Note_on_c, 0, 61, 48
2, 181092, Note_on_c, 0, 64, 43
2, 181128, Note_on_c, 0, 64, 0
2, 181169, Note_on_c, 0, 61, 0
2, 181308, Note_on_c, 0, 54, 55
2, 181311, Note_on_c, 0, 59, 39
2, 181314, Note_on_c, 0, 62, 46
2, 181408, Note_on_c, 0, 54, 0
2, 181409, Note_on_c, 0, 62, 0
2, 181423, Note_on_c, 0, 59, 0
2, 181875, Note_on_c, 0, 59, 41
2, 181879, Note_on_c, 0, 62, 37
2, 181892, Note_on_c, 0, 54, 25
2, 181963, Note_on_c, 0, 62, 0
2, 181977, Note_on_c, 0, 54, 0
2, 182004, Note_on_c, 0, 59, 0
2, 182397, Note_on_c, 0, 62, 56
2, 182402, Note_on_c, 0, 59, 53
2, 182416, Note_on_c, 0, 54, 35
2, 182513, Note_on_c, 0, 54, 0
2, 182519, Note_on_c, 0, 62, 0
2, 182533, Note_on_c, 0, 59, 0
2, 182844, Note_on_c, 0, 98, 99
2, 183019, Note_on_c, 0, 98, 0
2, 183036, Note_on_c, 0, 59, 50
2, 183043, Note_on_c, 0, 62, 36
2, 183045, Note_on_c, 0, 94, 64
2, 183061, Note_on_c, 0, 54, 32
2, 183092, Note_on_c, 0, 62, 0
2, 183153, Note_on_c, 0, 54, 0
2, 183174, Note_on_c, 0, 94, 0
2, 183240, Note_on_c, 0, 59, 0
2, 183254, Note_on_c, 0, 95, 80
2, 183382, Note_on_c, 0, 95, 0
2, 183450, Note_on_c, 0, 59, 41
2, 183507, Note_on_c, 0, 59, 0
2, 183809, Note_on_c, 0, 59, 58
2, 183818, Note_on_c, 0, 62, 45
2, 183826, Note_on_c, 0, 54, 37
2, 183854, Note_on_c, 0, 62, 0
2, 183899, Note_on_c, 0, 59, 0
2, 183910, Note_on_c, 0, 54, 0
2, 184182, Note_on_c, 0, 90, 68
2, 184257, Note_on_c, 0, 90, 0
2, 184261, Note_on_c, 0, 59, 28
2, 184311, Note_on_c, 0, 59, 0
2, 184410, Note_on_c, 0, 90, 46
2, 184451, Note_on_c, 0, 91, 64
2, 184501, Note_on_c, 0, 90, 0
2, 184591, Note_on_c, 0, 59, 33
2, 184622, Note_on_c, 0, 91, 0
2, 184699, Note_on_c, 0, 59, 0
2, 184941, Note_on_c, 0, 64, 50
2, 184945, Note_on_c, 0, 59, 47
2, 184983, Note_on_c, 0, 64, 0
2, 185021, Note_on_c, 0, 59, 0
2, 185474, Note_on_c, 0, 59, 40
2, 185487, Note_on_c, 0, 53, 36
2, 185618, Note_on_c, 0, 59, 0
2, 185878, Note_on_c, 0, 53, 0
2, 185906, Note_on_c, 0, 62, 56
2, 185970, Note_on_c, 0, 62, 0
2, 186094, Note_on_c, 0, 65, 55
2, 186144, Note_on_c, 0, 65, 0
2, 186262, Note_on_c, 0, 69, 74
2, 186411, Note_on_c, 0, 69, 0
2, 186462, Note_on_c, 0, 71, 88
2, 186490, Note_on_c, 0, 61, 42
2, 186564, Note_on_c, 0, 61, 0
2, 186663, Note_on_c, 0, 69, 47
2, 186693, Note_on_c, 0, 71, 0
2, 186794, Note_on_c, 0, 69, 0
2, 186863, Note_on_c, 0, 65, 46
2, 186991, Note_on_c, 0, 65, 0
2, 187053, Note_on_c, 0, 62, 22
2, 187181, Note_on_c, 0, 62, 0
2, 187673, Note_on_c, 0, 63, 45
2, 187683, Note_on_c, 0, 58, 42
2, 187701, Note_on_c, 0, 52, 30
2, 187710, Note_on_c, 0, 63, 0
2, 187743, Note_on_c, 0, 58, 0
2, 187746, Note_on_c, 0, 52, 0
2, 188227, Note_on_c, 0, 63, 36
2, 188231, Note_on_c, 0, 58, 33
2, 188258, Note_on_c, 0, 52, 22
2, 188259, Note_on_c, 0, 63, 0
2, 188284, Note_on_c, 0, 58, 0
2, 188293, Note_on_c, 0, 52, 0
2, 188587, Note_on_c, 0, 66, 51
2, 188732, Note_on_c, 0, 66, 0
2, 188779, Note_on_c, 0, 67, 58
2, 188802, Note_on_c, 0, 63, 42
2, 188819, Note_on_c, 0, 58, 34
2, 188834, Note_on_c, 0, 63, 0
2, 188905, Note_on_c, 0, 67, 0
2, 188925, Note_on_c, 0, 58, 0
2, 188962, Note_on_c, 0, 70, 47
2, 189071, Note_on_c, 0, 70, 0
2, 189163, Note_on_c, 0, 74, 57
2, 189179, Note_on_c, 0, 58, 37
2, 189267, Note_on_c, 0, 58, 0
2, 189270, Note_on_c, 0, 74, 0
2, 189347, Note_on_c, 0, 78, 35
2, 189445, Note_on_c, 0, 78, 0
2, 189530, Note_on_c, 0, 63, 37
2, 189530, Note_on_c, 0, 81, 78
2, 189539, Note_on_c, 0, 58, 32
2, 189563, Note_on_c, 0, 63, 0
2, 189630, Note_on_c, 0, 81, 0
2, 189657, Note_on_c, 0, 58, 0
2, 189711, Note_on_c, 0, 82, 82
2, 189860, Note_on_c, 0, 82, 0
2, 189910, Note_on_c, 0, 63, 56
2, 189911, Note_on_c, 0, 84, 87
2, 189919, Note_on_c, 0, 58, 34
2, 189933, Note_on_c, 0, 52, 35
2, 189986, Note_on_c, 0, 52, 0
2, 189992, Note_on_c, 0, 63, 0
2, 190028, Note_on_c, 0, 84, 0
2, 190079, Note_on_c, 0, 58, 0
2, 190102, Note_on_c, 0, 82, 63
2, 190284, Note_on_c, 0, 82, 0
2, 190329, Note_on_c, 0, 78, 25
2, 190374, Note_on_c, 0, 78, 0
2, 190535, Note_on_c, 0, 84, 83
2, 190639, Note_on_c, 0, 84, 0
2, 190888, Note_on_c, 0, 85, 86
2, 191038, Note_on_c, 0, 85, 0
2, 191107, Note_on_c, 0, 54, 51
2, 191111, Note_on_c, 0, 85, 75
2, 191142, Note_on_c, 0, 47, 36
2, 191191, Note_on_c, 0, 47, 0
2, 191240, Note_on_c, 0, 54, 0
2, 191264, Note_on_c, 0, 85, 0
2, 191373, Note_on_c, 0, 85, 83
2, 191572, Note_on_c, 0, 85, 0
2, 191639, Note_on_c, 0, 83, 67
2, 191764, Note_on_c, 0, 83, 0
2, 191880, Note_on_c, 0, 83, 74
2, 191900, Note_on_c, 0, 54, 34
2, 191983, Note_on_c, 0, 83, 0
2, 192020, Note_on_c, 0, 54, 0
2, 192129, Note_on_c, 0, 83, 71
2, 192246, Note_on_c, 0, 83, 0
2, 192388, Note_on_c, 0, 78, 53
2, 192500, Note_on_c, 0, 78, 0
2, 192637, Note_on_c, 0, 74, 46
2, 192738, Note_on_c, 0, 74, 0
2, 193027, Note_on_c, 0, 47, 48
2, 193063, Note_on_c, 0, 47, 0
2, 194694, Note_on_c, 0, 74, 90
2, 194696, Note_on_c, 0, 63, 99
2, 194699, Note_on_c, 0, 69, 92
2, 194705, Note_on_c, 0, 62, 95
2, 195011, Note_on_c, 0, 74, 0
2, 195064, Note_on_c, 0, 69, 0
2, 195123, Note_on_c, 0, 62, 0
2, 195170, Note_on_c, 0, 63, 0
2, 195287, Note_on_c, 0, 59, 61
2, 195289, Note_on_c, 0, 71, 73
2, 195291, Note_on_c, 0, 66, 74
2, 195300, Note_on_c, 0, 60, 80
2, 195545, Note_on_c, 0, 71, 0
2, 195583, Note_on_c, 0, 66, 0
2, 195743, Note_on_c, 0, 60, 0
2, 195788, Note_on_c, 0, 59, 0
2, 195819, Note_on_c, 0, 56, 37
2, 195856, Note_on_c, 0, 56, 0
2, 195859, Note_on_c, 0, 68, 75
2, 195861, Note_on_c, 0, 63, 74
2, 195869, Note_on_c, 0, 57, 64
2, 195890, Note_on_c, 0, 59, 44
2, 195923, Note_on_c, 0, 59, 0
2, 196246, Note_on_c, 0, 54, 48
2, 196256, Note_on_c, 0, 44, 37
2, 196267, Note_on_c, 0, 63, 0
2, 196280, Note_on_c, 0, 68, 0
2, 196345, Note_on_c, 0, 57, 0
2, 196510, Note_on_c, 0, 54, 0
2, 196556, Note_on_c, 0, 44, 0
2, 196580, Note_on_c, 0, 50, 30
2, 196634, Note_on_c, 0, 50, 0
2, 196655, Note_on_c, 0, 54, 32
2, 196663, Note_on_c, 0, 43, 42
2, 196667, Note_on_c, 0, 66, 75
2, 196836, Note_on_c, 0, 54, 0
2, 196871, Note_on_c, 0, 66, 0
2, 196881, Note_on_c, 0, 62, 46
2, 196983, Note_on_c, 0, 62, 0
2, 197076, Note_on_c, 0, 59, 35
2, 197161, Note_on_c, 0, 59, 0
2, 197258, Note_on_c, 0, 54, 51
2, 197361, Note_on_c, 0, 54, 0
2, 197433, Note_on_c, 0, 52, 25
2, 197580, Note_on_c, 0, 52, 0
2, 197636, Note_on_c, 0, 50, 37
2, 197677, Note_on_c, 0, 50, 0
2, 197808, Note_on_c, 0, 66, 74
2, 197956, Note_on_c, 0, 66, 0
2, 198019, Note_on_c, 0, 62, 71
2, 198027, Note_on_c, 0, 50, 35
2, 198109, Note_on_c, 0, 50, 0
2, 198163, Note_on_c, 0, 62, 0
2, 198207, Note_on_c, 0, 59, 51
2, 198313, Note_on_c, 0, 59, 0
2, 198547, Note_on_c, 0, 43, 0
2, 198634, Note_on_c, 0, 52, 11
2, 198727, Note_on_c, 0, 52, 0
2, 198769, Note_on_c, 0, 50, 49
2, 198789, Note_on_c, 0, 43, 44
2, 198808, Note_on_c, 0, 50, 0
2, 198834, Note_on_c, 0, 43, 0
2, 198914, Note_on_c, 0, 54, 75
2, 199093, Note_on_c, 0, 54, 0
2, 199113, Note_on_c, 0, 50, 58
2, 199198, Note_on_c, 0, 50, 0
2, 199483, Note_on_c, 0, 54, 56
2, 199560, Note_on_c, 0, 50, 32
2, 199594, Note_on_c, 0, 54, 0
2, 199666, Note_on_c, 0, 55, 33
2, 199762, Note_on_c, 0, 50, 0
2, 199872, Note_on_c, 0, 55, 0
2, 199878, Note_on_c, 0, 57, 56
2, 199911, Note_on_c, 0, 50, 25
2, 200001, Note_on_c, 0, 57, 0
2, 200060, Note_on_c, 0, 58, 38
2, 200165, Note_on_c, 0, 50, 0
2, 200204, Note_on_c, 0, 58, 0
2, 200263, Note_on_c, 0, 59, 34
2, 200324, Note_on_c, 0, 50, 27
2, 200384, Note_on_c, 0, 59, 0
2, 200449, Note_on_c, 0, 62, 75
2, 200508, Note_on_c, 0, 50, 0
2, 200649, Note_on_c, 0, 50, 32
2, 200695, Note_on_c, 0, 62, 0
2, 200825, Note_on_c, 0, 59, 34
2, 200845, Note_on_c, 0, 50, 0
2, 200978, Note_on_c, 0, 59, 0
2, 201419, Note_on_c, 0, 54, 56
2, 201438, Note_on_c, 0, 50, 44
2, 201439, Note_on_c, 0, 43, 33
2, 201532, Note_on_c, 0, 54, 0
2, 201539, Note_on_c, 0, 50, 0
2, 201549, Note_on_c, 0, 43, 0
2, 201831, Note_on_c, 0, 76, 83
2, 201853, Note_on_c, 0, 54, 62
2, 201873, Note_on_c, 0, 50, 47
2, 201923, Note_on_c, 0, 76, 0
2, 201938, Note_on_c, 0, 54, 0
2, 202030, Note_on_c, 0, 76, 64
2, 202107, Note_on_c, 0, 50, 0
2, 202222, Note_on_c, 0, 76, 0
2, 202230, Note_on_c, 0, 74, 49
2, 202380, Note_on_c, 0, 74, 0
2, 202432, Note_on_c, 0, 71, 22
2, 202523, Note_on_c, 0, 71, 0
2, 202604, Note_on_c, 0, 76, 82
2, 202715, Note_on_c, 0, 76, 0
2, 202783, Note_on_c, 0, 76, 77
2, 202991, Note_on_c, 0, 74, 48
2, 202999, Note_on_c, 0, 76, 0
2, 203011, Note_on_c, 0, 58, 25
2, 203080, Note_on_c, 0, 74, 0
2, 203120, Note_on_c, 0, 58, 0
2, 203373, Note_on_c, 0, 63, 59
2, 203391, Note_on_c, 0, 58, 37
2, 203395, Note_on_c, 0, 52, 35
2, 203443, Note_on_c, 0, 52, 0
2, 203448, Note_on_c, 0, 63, 0
2, 203481, Note_on_c, 0, 58, 0
2, 203935, Note_on_c, 0, 63, 48
2, 203936, Note_on_c, 0, 58, 47
2, 203948, Note_on_c, 0, 52, 44
2, 203992, Note_on_c, 0, 52, 0
2, 204016, Note_on_c, 0, 63, 0
2, 204058, Note_on_c, 0, 58, 0
2, 204503, Note_on_c, 0, 63, 60
2, 204519, Note_on_c, 0, 58, 40
2, 204576, Note_on_c, 0, 63, 0
2, 204651, Note_on_c, 0, 58, 0
2, 205066, Note_on_c, 0, 63, 56
2, 205082, Note_on_c, 0, 58, 37
2, 205138, Note_on_c, 0, 63, 0
2, 205262, Note_on_c, 0, 58, 0
2, 205293, Note_on_c, 0, 84, 89
2, 205654, Note_on_c, 0, 82, 77
2, 205690, Note_on_c, 0, 84, 0
2, 205767, Note_on_c, 0, 58, 32
2, 205798, Note_on_c, 0, 82, 0
2, 205854, Note_on_c, 0, 58, 0
2, 205887, Note_on_c, 0, 78, 43
2, 206052, Note_on_c, 0, 78, 0
2, 206053, Note_on_c, 0, 76, 42
2, 206107, Note_on_c, 0, 58, 25
2, 206147, Note_on_c, 0, 76, 0
2, 206178, Note_on_c, 0, 58, 0
2, 206224, Note_on_c, 0, 81, 84
2, 206371, Note_on_c, 0, 81, 0
2, 206418, Note_on_c, 0, 79, 48
2, 206516, Note_on_c, 0, 79, 0
2, 206611, Note_on_c, 0, 75, 56
2, 206717, Note_on_c, 0, 75, 0
2, 206791, Note_on_c, 0, 63, 53
2, 206796, Note_on_c, 0, 73, 55
2, 206804, Note_on_c, 0, 58, 38
2, 206831, Note_on_c, 0, 52, 33
2, 206912, Note_on_c, 0, 73, 0
2, 206981, Note_on_c, 0, 72, 43
2, 207127, Note_on_c, 0, 72, 0
2, 207186, Note_on_c, 0, 70, 42
2, 207187, Note_on_c, 0, 63, 0
2, 207286, Note_on_c, 0, 70, 0
2, 207377, Note_on_c, 0, 69, 49
2, 207437, Note_on_c, 0, 52, 0
2, 207494, Note_on_c, 0, 69, 0
2, 207525, Note_on_c, 0, 58, 0
2, 207576, Note_on_c, 0, 70, 55
2, 207618, Note_on_c, 0, 69, 66
2, 207656, Note_on_c, 0, 58, 26
2, 207681, Note_on_c, 0, 70, 0
2, 207734, Note_on_c, 0, 67, 40
2, 207737, Note_on_c, 0, 69, 0
2, 207875, Note_on_c, 0, 58, 0
2, 207893, Note_on_c, 0, 67, 0
2, 207960, Note_on_c, 0, 66, 55
2, 207991, Note_on_c, 0, 58, 36
2, 208086, Note_on_c, 0, 66, 0
2, 208105, Note_on_c, 0, 58, 0
2, 208147, Note_on_c, 0, 64, 26
2, 208344, Note_on_c, 0, 63, 67
2, 208365, Note_on_c, 0, 58, 42
2, 208376, Note_on_c, 0, 64, 0
2, 208402, Note_on_c, 0, 52, 33
2, 208433, Note_on_c, 0, 58, 0
2, 208456, Note_on_c, 0, 52, 0
2, 208463, Note_on_c, 0, 63, 0
2, 208531, Note_on_c, 0, 62, 39
2, 208698, Note_on_c, 0, 62, 0
2, 208755, Note_on_c, 0, 61, 53
2, 208871, Note_on_c, 0, 61, 0
2, 208924, Note_on_c, 0, 62, 60
2, 208927, Note_on_c, 0, 40, 39
2, 208939, Note_on_c, 0, 50, 33
2, 209070, Note_on_c, 0, 62, 0
2, 209154, Note_on_c, 0, 58, 47
2, 209155, Note_on_c, 0, 50, 0
2, 209255, Note_on_c, 0, 58, 0
2, 209331, Note_on_c, 0, 59, 61
2, 209523, Note_on_c, 0, 59, 0
2, 209542, Note_on_c, 0, 55, 69
2, 209617, Note_on_c, 0, 40, 0
2, 209678, Note_on_c, 0, 55, 0
2, 209739, Note_on_c, 0, 52, 32
2, 209934, Note_on_c, 0, 52, 0
2, 209944, Note_on_c, 0, 51, 53
2, 210006, Note_on_c, 0, 51, 0
2, 210079, Note_on_c, 0, 54, 91
2, 210295, Note_on_c, 0, 54, 0
2, 210305, Note_on_c, 0, 51, 56
2, 210419, Note_on_c, 0, 51, 0
2, 210482, Note_on_c, 0, 52, 46
2, 210613, Note_on_c, 0, 52, 0
2, 210658, Note_on_c, 0, 54, 59
2, 210688, Note_on_c, 0, 40, 30
2, 210740, Note_on_c, 0, 54, 0
2, 210767, Note_on_c, 0, 40, 0
2, 210792, Note_on_c, 0, 55, 55
2, 210889, Note_on_c, 0, 55, 0
2, 210943, Note_on_c, 0, 57, 68
2, 211046, Note_on_c, 0, 57, 0
2, 211105, Note_on_c, 0, 58, 67
2, 211201, Note_on_c, 0, 58, 0
2, 211251, Note_on_c, 0, 60, 69
2, 211364, Note_on_c, 0, 60, 0
2, 211392, Note_on_c, 0, 61, 62
2, 211494, Note_on_c, 0, 61, 0
2, 211538, Note_on_c, 0, 63, 50
2, 211649, Note_on_c, 0, 63, 0
2, 211695, Note_on_c, 0, 64, 68
2, 211787, Note_on_c, 0, 64, 0
2, 211833, Note_on_c, 0, 66, 62
2, 211912, Note_on_c, 0, 66, 0
2, 211973, Note_on_c, 0, 67, 55
2, 212064, Note_on_c, 0, 67, 0
2, 212113, Note_on_c, 0, 69, 81
2, 212125, Note_on_c, 0, 61, 59
2, 212129, Note_on_c, 0, 66, 59
2, 212130, Note_on_c, 0, 55, 69
2, 212272, Note_on_c, 0, 70, 80
2, 212273, Note_on_c, 0, 69, 0
2, 212307, Note_on_c, 0, 55, 0
2, 212327, Note_on_c, 0, 66, 0
2, 212362, Note_on_c, 0, 61, 0
2, 212380, Note_on_c, 0, 70, 0
2, 212427, Note_on_c, 0, 72, 85
2, 212432, Note_on_c, 0, 66, 79
2, 212437, Note_on_c, 0, 61, 73
2, 212445, Note_on_c, 0, 55, 80
2, 212707, Note_on_c, 0, 55, 0
2, 212728, Note_on_c, 0, 72, 0
2, 212733, Note_on_c, 0, 66, 0
2, 212734, Note_on_c, 0, 61, 0
2, 213336, Note_on_c, 0, 55, 62
2, 213338, Note_on_c, 0, 66, 57
2, 213339, Note_on_c, 0, 61, 57
2, 213663, Note_on_c, 0, 61, 0
2, 213705, Note_on_c, 0, 61, 20
2, 213742, Note_on_c, 0, 66, 0
2, 213861, Note_on_c, 0, 55, 0
2, 213949, Note_on_c, 0, 75, 65
2, 214064, Note_on_c, 0, 61, 0
2, 214069, Note_on_c, 0, 75, 0
2, 214151, Note_on_c, 0, 61, 50
2, 214152, Note_on_c, 0, 79, 53
2, 214156, Note_on_c, 0, 66, 49
2, 214190, Note_on_c, 0, 55, 25
2, 214223, Note_on_c, 0, 66, 0
2, 214241, Note_on_c, 0, 55, 0
2, 214254, Note_on_c, 0, 79, 0
2, 214331, Note_on_c, 0, 82, 57
2, 214398, Note_on_c, 0, 61, 0
2, 214439, Note_on_c, 0, 82, 0
2, 214509, Note_on_c, 0, 87, 82
2, 214511, Note_on_c, 0, 61, 60
2, 214521, Note_on_c, 0, 66, 64
2, 214526, Note_on_c, 0, 55, 67
2, 214538, Note_on_c, 0, 82, 25
2, 214571, Note_on_c, 0, 82, 0
2, 214619, Note_on_c, 0, 87, 0
2, 214691, Note_on_c, 0, 88, 68
2, 214704, Note_on_c, 0, 66, 0
2, 214748, Note_on_c, 0, 55, 0
2, 214815, Note_on_c, 0, 88, 0
2, 214885, Note_on_c, 0, 91, 90
2, 214952, Note_on_c, 0, 61, 0
2, 215023, Note_on_c, 0, 61, 34
2, 215036, Note_on_c, 0, 64, 54
2, 215039, Note_on_c, 0, 54, 50
2, 215071, Note_on_c, 0, 59, 45
2, 215073, Note_on_c, 0, 90, 67
2, 215077, Note_on_c, 0, 91, 0
2, 215256, Note_on_c, 0, 90, 0
2, 215272, Note_on_c, 0, 85, 64
2, 215396, Note_on_c, 0, 85, 0
2, 215516, Note_on_c, 0, 81, 29
2, 215575, Note_on_c, 0, 81, 0
2, 215638, Note_on_c, 0, 88, 77
2, 215683, Note_on_c, 0, 64, 0
2, 215733, Note_on_c, 0, 88, 0
2, 215791, Note_on_c, 0, 54, 0
2, 215810, Note_on_c, 0, 88, 80
2, 215830, Note_on_c, 0, 59, 0
2, 215883, Note_on_c, 0, 61, 0
2, 215943, Note_on_c, 0, 88, 0
2, 215999, Note_on_c, 0, 85, 77
2, 216038, Note_on_c, 0, 64, 44
2, 216039, Note_on_c, 0, 61, 43
2, 216069, Note_on_c, 0, 59, 34
2, 216084, Note_on_c, 0, 64, 0
2, 216137, Note_on_c, 0, 85, 0
2, 216195, Note_on_c, 0, 59, 0
2, 216271, Note_on_c, 0, 61, 0
2, 216283, Note_on_c, 0, 82, 19
2, 216324, Note_on_c, 0, 82, 0
2, 216377, Note_on_c, 0, 78, 49
2, 216406, Note_on_c, 0, 61, 32
2, 216470, Note_on_c, 0, 78, 0
2, 216520, Note_on_c, 0, 61, 0
2, 216578, Note_on_c, 0, 85, 73
2, 216670, Note_on_c, 0, 85, 0
2, 216773, Note_on_c, 0, 85, 77
2, 216786, Note_on_c, 0, 61, 53
2, 216792, Note_on_c, 0, 64, 62
2, 216809, Note_on_c, 0, 59, 41
2, 216824, Note_on_c, 0, 64, 0
2, 216857, Note_on_c, 0, 59, 0
2, 216903, Note_on_c, 0, 85, 0
2, 216991, Note_on_c, 0, 83, 43
2, 217016, Note_on_c, 0, 61, 0
2, 217153, Note_on_c, 0, 83, 0
2, 217177, Note_on_c, 0, 81, 58
2, 217204, Note_on_c, 0, 61, 31
2, 217245, Note_on_c, 0, 61, 0
2, 217307, Note_on_c, 0, 81, 0
2, 217357, Note_on_c, 0, 78, 40
2, 217519, Note_on_c, 0, 78, 0
2, 217567, Note_on_c, 0, 61, 39
2, 217568, Note_on_c, 0, 64, 40
2, 217598, Note_on_c, 0, 59, 25
2, 217604, Note_on_c, 0, 64, 0
2, 217605, Note_on_c, 0, 76, 30
2, 217639, Note_on_c, 0, 59, 0
2, 217657, Note_on_c, 0, 76, 0
2, 217677, Note_on_c, 0, 61, 0
2, 217748, Note_on_c, 0, 83, 90
2, 217798, Note_on_c, 0, 82, 26
2, 217831, Note_on_c, 0, 82, 0
2, 217876, Note_on_c, 0, 83, 0
2, 217959, Note_on_c, 0, 83, 84
2, 217978, Note_on_c, 0, 61, 48
2, 217988, Note_on_c, 0, 64, 36
2, 217988, Note_on_c, 0, 59, 51
2, 218032, Note_on_c, 0, 64, 0
2, 218033, Note_on_c, 0, 59, 0
2, 218069, Note_on_c, 0, 61, 0
2, 218104, Note_on_c, 0, 83, 0
2, 218155, Note_on_c, 0, 81, 56
2, 218317, Note_on_c, 0, 81, 0
2, 218335, Note_on_c, 0, 78, 60
2, 218367, Note_on_c, 0, 62, 35
2, 218369, Note_on_c, 0, 59, 34
2, 218427, Note_on_c, 0, 62, 0
2, 218475, Note_on_c, 0, 78, 0
2, 218551, Note_on_c, 0, 59, 0
2, 218750, Note_on_c, 0, 59, 39
2, 218877, Note_on_c, 0, 59, 0
2, 218911, Note_on_c, 0, 81, 88
2, 219039, Note_on_c, 0, 81, 0
2, 219112, Note_on_c, 0, 81, 81
2, 219117, Note_on_c, 0, 59, 30
2, 219245, Note_on_c, 0, 59, 0
2, 219252, Note_on_c, 0, 81, 0
2, 219301, Note_on_c, 0, 78, 51
2, 219485, Note_on_c, 0, 74, 64
2, 219489, Note_on_c, 0, 59, 44
2, 219533, Note_on_c, 0, 78, 0
2, 219587, Note_on_c, 0, 74, 0
2, 219663, Note_on_c, 0, 59, 0
2, 219696, Note_on_c, 0, 71, 17
2, 219867, Note_on_c, 0, 71, 0
2, 219877, Note_on_c, 0, 69, 34
2, 219913, Note_on_c, 0, 69, 0
2, 220030, Note_on_c, 0, 78, 70
2, 220154, Note_on_c, 0, 78, 0
2, 220261, Note_on_c, 0, 78, 77
2, 220262, Note_on_c, 0, 59, 46
2, 220274, Note_on_c, 0, 62, 42
2, 220283, Note_on_c, 0, 54, 48
2, 220306, Note_on_c, 0, 62, 0
2, 220375, Note_on_c, 0, 54, 0
2, 220425, Note_on_c, 0, 59, 0
2, 220426, Note_on_c, 0, 78, 0
2, 220461, Note_on_c, 0, 76, 51
2, 220595, Note_on_c, 0, 76, 0
2, 220652, Note_on_c, 0, 74, 57
2, 220659, Note_on_c, 0, 59, 37
2, 220662, Note_on_c, 0, 54, 35
2, 220740, Note_on_c, 0, 74, 0
2, 220776, Note_on_c, 0, 59, 0
2, 220887, Note_on_c, 0, 54, 0
2, 220887, Note_on_c, 0, 71, 32
2, 221002, Note_on_c, 0, 71, 0
2, 221038, Note_on_c, 0, 59, 28
2, 221092, Note_on_c, 0, 59, 0
2, 221206, Note_on_c, 0, 74, 82
2, 221436, Note_on_c, 0, 65, 57
2, 221469, Note_on_c, 0, 65, 0
2, 221620, Note_on_c, 0, 65, 47
2, 221682, Note_on_c, 0, 65, 0
2, 221781, Note_on_c, 0, 74, 0
2, 221995, Note_on_c, 0, 65, 56
2, 222122, Note_on_c, 0, 65, 0
2, 222386, Note_on_c, 0, 65, 41
2, 222487, Note_on_c, 0, 65, 0
2, 222620, Note_on_c, 0, 59, 52
2, 222632, Note_on_c, 0, 64, 43
2, 222644, Note_on_c, 0, 53, 28
2, 222671, Note_on_c, 0, 64, 0
2, 222686, Note_on_c, 0, 53, 0
2, 222702, Note_on_c, 0, 59, 0
2, 222973, Note_on_c, 0, 59, 49
2, 222978, Note_on_c, 0, 64, 49
2, 222986, Note_on_c, 0, 53, 40
2, 223039, Note_on_c, 0, 53, 0
2, 223055, Note_on_c, 0, 64, 0
2, 223074, Note_on_c, 0, 59, 0
2, 223300, Note_on_c, 0, 59, 52
2, 223308, Note_on_c, 0, 64, 48
2, 223322, Note_on_c, 0, 53, 39
2, 223364, Note_on_c, 0, 53, 0
2, 223381, Note_on_c, 0, 64, 0
2, 223408, Note_on_c, 0, 59, 0
2, 223543, Note_on_c, 0, 59, 42
2, 223556, Note_on_c, 0, 64, 34
2, 223563, Note_on_c, 0, 53, 36
2, 223641, Note_on_c, 0, 64, 0
2, 223652, Note_on_c, 0, 53, 0
2, 223695, Note_on_c, 0, 59, 0
2, 223885, Note_on_c, 0, 59, 47
2, 223886, Note_on_c, 0, 64, 39
2, 223896, Note_on_c, 0, 53, 37
2, 223941, Note_on_c, 0, 53, 0
2, 223968, Note_on_c, 0, 64, 0
2, 223975, Note_on_c, 0, 59, 0
2, 224282, Note_on_c, 0, 73, 87
2, 224425, Note_on_c, 0, 73, 0
2, 224461, Note_on_c, 0, 58, 32
2, 224500, Note_on_c, 0, 73, 65
2, 224542, Note_on_c, 0, 58, 0
2, 224640, Note_on_c, 0, 73, 0
2, 224683, Note_on_c, 0, 64, 42
2, 224834, Note_on_c, 0, 64, 0
2, 224924, Note_on_c, 0, 64, 51
2, 224966, Note_on_c, 0, 64, 0
2, 225261, Note_on_c, 0, 63, 40
2, 225267, Note_on_c, 0, 58, 36
2, 225278, Note_on_c, 0, 52, 30
2, 225321, Note_on_c, 0, 63, 0
2, 225324, Note_on_c, 0, 52, 0
2, 225380, Note_on_c, 0, 58, 0
2, 225642, Note_on_c, 0, 63, 51
2, 225649, Note_on_c, 0, 58, 46
2, 225654, Note_on_c, 0, 52, 47
2, 225696, Note_on_c, 0, 52, 0
2, 225704, Note_on_c, 0, 63, 0
2, 225736, Note_on_c, 0, 58, 0
2, 226010, Note_on_c, 0, 63, 59
2, 226016, Note_on_c, 0, 58, 51
2, 226043, Note_on_c, 0, 63, 0
2, 226044, Note_on_c, 0, 52, 29
2, 226093, Note_on_c, 0, 52, 0
2, 226127, Note_on_c, 0, 58, 0
2, 226196, Note_on_c, 0, 73, 88
2, 226369, Note_on_c, 0, 73, 0
2, 226398, Note_on_c, 0, 74, 72
2, 226410, Note_on_c, 0, 63, 46
2, 226433, Note_on_c, 0, 58, 28
2, 226462, Note_on_c, 0, 63, 0
2, 226564, Note_on_c, 0, 74, 0
2, 226599, Note_on_c, 0, 73, 51
2, 226637, Note_on_c, 0, 58, 0
2, 226761, Note_on_c, 0, 73, 0
2, 226792, Note_on_c, 0, 74, 66
2, 226807, Note_on_c, 0, 63, 53
2, 226845, Note_on_c, 0, 52, 24
2, 226853, Note_on_c, 0, 58, 20
2, 226876, Note_on_c, 0, 63, 0
2, 226894, Note_on_c, 0, 52, 0
2, 226966, Note_on_c, 0, 58, 0
2, 226970, Note_on_c, 0, 74, 0
2, 226992, Note_on_c, 0, 73, 48
2, 227141, Note_on_c, 0, 73, 0
2, 227169, Note_on_c, 0, 74, 64
2, 227333, Note_on_c, 0, 74, 0
2, 227369, Note_on_c, 0, 73, 50
2, 227541, Note_on_c, 0, 73, 0
2, 227561, Note_on_c, 0, 74, 50
2, 227751, Note_on_c, 0, 74, 0
2, 227762, Note_on_c, 0, 70, 57
2, 227983, Note_on_c, 0, 70, 0
2, 228140, Note_on_c, 0, 71, 58
2, 228263, Note_on_c, 0, 71, 0
2, 228351, Note_on_c, 0, 62, 33
2, 228565, Note_on_c, 0, 62, 0
2, 228686, Note_on_c, 0, 62, 37
2, 229027, Note_on_c, 0, 62, 0
2, 229103, Note_on_c, 0, 54, 25
2, 229145, Note_on_c, 0, 54, 0
2, 229471, Note_on_c, 0, 53, 55
2, 229558, Note_on_c, 0, 53, 0
2, 229653, Note_on_c, 0, 54, 33
2, 229829, Note_on_c, 0, 56, 54
2, 229854, Note_on_c, 0, 54, 0
2, 229893, Note_on_c, 0, 51, 23
2, 229941, Note_on_c, 0, 51, 0
2, 229967, Note_on_c, 0, 56, 0
2, 230023, Note_on_c, 0, 57, 38
2, 230210, Note_on_c, 0, 57, 0
2, 230255, Note_on_c, 0, 59, 51
2, 230349, Note_on_c, 0, 59, 0
2, 230446, Note_on_c, 0, 60, 78
2, 230461, Note_on_c, 0, 57, 44
2, 230473, Note_on_c, 0, 47, 41
2, 230478, Note_on_c, 0, 46, 23
2, 230558, Note_on_c, 0, 46, 0
2, 230754, Note_on_c, 0, 57, 0
2, 230761, Note_on_c, 0, 60, 0
2, 230790, Note_on_c, 0, 62, 55
2, 230928, Note_on_c, 0, 62, 0
2, 230929, Note_on_c, 0, 47, 0
2, 231004, Note_on_c, 0, 63, 62
2, 231018, Note_on_c, 0, 57, 43
2, 231034, Note_on_c, 0, 47, 26
2, 231140, Note_on_c, 0, 57, 0
2, 231357, Note_on_c, 0, 63, 0
2, 231385, Note_on_c, 0, 65, 66
2, 231484, Note_on_c, 0, 65, 0
2, 231592, Note_on_c, 0, 57, 55
2, 231596, Note_on_c, 0, 66, 71
2, 231748, Note_on_c, 0, 47, 0
2, 231811, Note_on_c, 0, 57, 0
2, 231890, Note_on_c, 0, 66, 0
2, 231949, Note_on_c, 0, 67, 49
2, 232124, Note_on_c, 0, 67, 0
2, 232176, Note_on_c, 0, 68, 71
2, 232195, Note_on_c, 0, 57, 40
2, 232239, Note_on_c, 0, 57, 0
2, 232294, Note_on_c, 0, 68, 0
2, 232521, Note_on_c, 0, 69, 69
2, 232564, Note_on_c, 0, 57, 57
2, 232587, Note_on_c, 0, 51, 30
2, 232601, Note_on_c, 0, 57, 0
2, 232652, Note_on_c, 0, 51, 0
2, 232672, Note_on_c, 0, 69, 0
2, 232735, Note_on_c, 0, 70, 52
2, 233035, Note_on_c, 0, 70, 0
2, 233093, Note_on_c, 0, 71, 54
2, 233487, Note_on_c, 0, 66, 44
2, 233555, Note_on_c, 0, 59, 22
2, 233558, Note_on_c, 0, 66, 0
2, 233605, Note_on_c, 0, 59, 0
2, 233902, Note_on_c, 0, 59, 54
2, 233904, Note_on_c, 0, 67, 51
2, 233940, Note_on_c, 0, 59, 0
2, 233944, Control_c, 0, 64, 127
2, 233967, Note_on_c, 0, 67, 0
2, 233972, Control_c, 0, 64, 0
2, 234137, Note_on_c, 0, 66, 34
2, 234167, Note_on_c, 0, 71, 0
2, 234170, Note_on_c, 0, 66, 0
2, 234276, Note_on_c, 0, 69, 79
2, 234281, Note_on_c, 0, 61, 74
2, 234403, Note_on_c, 0, 69, 0
2, 234487, Note_on_c, 0, 61, 0
2, 234684, Note_on_c, 0, 62, 80
2, 234688, Note_on_c, 0, 71, 71
2, 234777, Note_on_c, 0, 62, 0
2, 234788, Note_on_c, 0, 71, 0
2, 235070, Note_on_c, 0, 73, 80
2, 235076, Note_on_c, 0, 64, 76
2, 235252, Control_c, 0, 64, 127
2, 235457, Note_on_c, 0, 64, 0
2, 235538, Note_on_c, 0, 73, 0
2, 235630, Note_on_c, 0, 74, 63
2, 235640, Note_on_c, 0, 66, 68
2, 235807, Note_on_c, 0, 74, 0
2, 235847, Note_on_c, 0, 66, 0
2, 236187, Note_on_c, 0, 76, 57
2, 236208, Note_on_c, 0, 67, 50
2, 236215, Control_c, 0, 64, 0
2, 236293, Note_on_c, 0, 67, 0
2, 236456, Note_on_c, 0, 76, 0
2, 236576, Note_on_c, 0, 74, 42
2, 236581, Note_on_c, 0, 61, 28
2, 236586, Note_on_c, 0, 54, 34
2, 236588, Note_on_c, 0, 64, 24
2, 236589, Note_on_c, 0, 66, 44
2, 236601, Note_on_c, 0, 59, 20
2, 236841, Note_on_c, 0, 74, 0
2, 236860, Note_on_c, 0, 66, 0
2, 236935, Note_on_c, 0, 76, 45
2, 237033, Note_on_c, 0, 76, 0
2, 237164, Note_on_c, 0, 78, 60
2, 237341, Control_c, 0, 64, 127
2, 237665, Note_on_c, 0, 64, 0
2, 237672, Note_on_c, 0, 59, 0
2, 237675, Note_on_c, 0, 61, 0
2, 237757, Note_on_c, 0, 54, 0
2, 237822, Control_c, 0, 64, 0
2, 237921, Note_on_c, 0, 62, 48
2, 237932, Note_on_c, 0, 59, 38
2, 238000, Note_on_c, 0, 62, 0
2, 238001, Note_on_c, 0, 59, 0
2, 238490, Note_on_c, 0, 59, 38
2, 238492, Note_on_c, 0, 62, 42
2, 238508, Note_on_c, 0, 54, 37
2, 238756, Note_on_c, 0, 78, 0
2, 239077, Note_on_c, 0, 75, 81
2, 239100, Note_on_c, 0, 76, 72
2, 239210, Note_on_c, 0, 75, 0
2, 239213, Note_on_c, 0, 76, 0
2, 239385, Note_on_c, 0, 74, 80
2, 239486, Note_on_c, 0, 74, 0
2, 239508, Note_on_c, 0, 62, 0
2, 239554, Note_on_c, 0, 54, 0
2, 239617, Note_on_c, 0, 59, 0
2, 239653, Note_on_c, 0, 73, 77
2, 239654, Note_on_c, 0, 70, 81
2, 239656, Note_on_c, 0, 65, 74
2, 239662, Note_on_c, 0, 49, 100
2, 239680, Note_on_c, 0, 53, 59
2, 240046, Note_on_c, 0, 49, 0
2, 240055, Control_c, 0, 64, 127
2, 240175, Note_on_c, 0, 73, 0
2, 240215, Note_on_c, 0, 74, 68
2, 240257, Control_c, 0, 64, 0
2, 240372, Control_c, 0, 64, 127
2, 240650, Note_on_c, 0, 53, 0
2, 240668, Note_on_c, 0, 74, 0
2, 240748, Control_c, 0, 64, 0
2, 240749, Note_on_c, 0, 76, 69
2, 240808, Note_on_c, 0, 65, 0
2, 240841, Note_on_c, 0, 70, 0
2, 240848, Note_on_c, 0, 76, 0
2, 241157, Note_on_c, 0, 74, 77
2, 241162, Note_on_c, 0, 69, 87
2, 241164, Note_on_c, 0, 64, 82
2, 241169, Note_on_c, 0, 42, 74
2, 241277, Control_c, 0, 64, 127
2, 241889, Note_on_c, 0, 74, 0
2, 241907, Note_on_c, 0, 64, 0
2, 241933, Note_on_c, 0, 69, 0
2, 241974, Note_on_c, 0, 67, 59
2, 241977, Note_on_c, 0, 73, 68
2, 241980, Control_c, 0, 64, 0
2, 242133, Control_c, 0, 64, 127
2, 242205, Note_on_c, 0, 42, 0
2, 242420, Note_on_c, 0, 67, 0
2, 242492, Note_on_c, 0, 73, 0
2, 242673, Control_c, 0, 64, 0
2, 242712, Note_on_c, 0, 73, 55
2, 242715, Note_on_c, 0, 64, 60
2, 242716, Note_on_c, 0, 47, 54
2, 242894, Control_c, 0, 64, 127
2, 243442, Note_on_c, 0, 64, 0
2, 243687, Note_on_c, 0, 73, 0
2, 243697, Note_on_c, 0, 71, 48
2, 243702, Control_c, 0, 64, 0
2, 243705, Note_on_c, 0, 63, 63
2, 243727, Note_on_c, 0, 59, 44
2, 244242, Control_c, 0, 64, 127
2, 244557, Note_on_c, 0, 63, 0
2, 244797, Note_on_c, 0, 71, 0
2, 245188, Note_on_c, 0, 59, 0
2, 245197, Note_on_c, 0, 47, 0
2, 245656, Control_c, 0, 64, 0
2, 245789, Note_on_c, 0, 83, 53
2, 245831, Note_on_c, 0, 83, 0
2, 245831, Note_on_c, 0, 47, 40
2, 245849, Note_on_c, 0, 47, 0
2, 246333, Note_on_c, 0, 88, 37
2, 246334, Note_on_c, 0, 52, 45
2, 246372, Note_on_c, 0, 88, 0
2, 246376, Note_on_c, 0, 52, 0
2, 247123, Note_on_c, 0, 91, 74
2, 247135, Note_on_c, 0, 55, 62
2, 247224, Note_on_c, 0, 91, 0
2, 247245, Note_on_c, 0, 55, 0
2, 247301, Note_on_c, 0, 90, 59
2, 247304, Note_on_c, 0, 54, 34
2, 247551, Note_on_c, 0, 90, 0
2, 247603, Note_on_c, 0, 54, 0
2, 247659, Note_on_c, 0, 50, 18
2, 247670, Note_on_c, 0, 86, 33
2, 247798, Note_on_c, 0, 50, 0
2, 247801, Note_on_c, 0, 86, 0
2, 247837, Note_on_c, 0, 47, 31
2, 247949, Note_on_c, 0, 47, 0
2, 248066, Note_on_c, 0, 88, 52
2, 248084, Note_on_c, 0, 52, 33
2, 248163, Note_on_c, 0, 88, 0
2, 248192, Note_on_c, 0, 52, 0
2, 248629, Note_on_c, 0, 81, 34
2, 248637, Note_on_c, 0, 45, 44
2, 248673, Note_on_c, 0, 81, 0
2, 248693, Note_on_c, 0, 45, 0
2, 249410, Note_on_c, 0, 86, 64
2, 249426, Note_on_c, 0, 50, 51
2, 249545, Note_on_c, 0, 86, 0
2, 249560, Note_on_c, 0, 50, 0
2, 249603, Note_on_c, 0, 85, 43
2, 249605, Note_on_c, 0, 49, 37
2, 249730, Note_on_c, 0, 85, 0
2, 249765, Note_on_c, 0, 49, 0
2, 250395, Note_on_c, 0, 45, 42
2, 250408, Note_on_c, 0, 81, 51
2, 250504, Note_on_c, 0, 45, 0
2, 250518, Note_on_c, 0, 81, 0
2, 250604, Note_on_c, 0, 83, 54
2, 250621, Note_on_c, 0, 47, 41
2, 250643, Note_on_c, 0, 83, 0
2, 250714, Note_on_c, 0, 47, 0
2, 250943, Note_on_c, 0, 79, 53
2, 250961, Note_on_c, 0, 43, 43
2, 251009, Note_on_c, 0, 79, 0
2, 251014, Note_on_c, 0, 43, 0
2, 251349, Note_on_c, 0, 43, 33
2, 251370, Note_on_c, 0, 79, 22
2, 251409, Note_on_c, 0, 79, 0
2, 251441, Note_on_c, 0, 43, 0
2, 251527, Note_on_c, 0, 86, 59
2, 251592, Note_on_c, 0, 86, 0
2, 251592, Note_on_c, 0, 50, 56
2, 251593, Note_on_c, 0, 50, 0
2, 251909, Note_on_c, 0, 88, 88
2, 252017, Note_on_c, 0, 88, 0
2, 252017, Note_on_c, 0, 52, 81
2, 252032, Note_on_c, 0, 52, 0
2, 252494, Note_on_c, 0, 52, 55
2, 252499, Note_on_c, 0, 88, 64
2, 252571, Note_on_c, 0, 88, 0
2, 252624, Note_on_c, 0, 52, 0
2, 252686, Note_on_c, 0, 91, 88
2, 252695, Note_on_c, 0, 55, 77
2, 253009, Note_on_c, 0, 91, 0
2, 253029, Note_on_c, 0, 55, 0
2, 253071, Note_on_c, 0, 90, 53
2, 253075, Note_on_c, 0, 54, 46
2, 253209, Note_on_c, 0, 90, 0
2, 253268, Note_on_c, 0, 86, 36
2, 253278, Note_on_c, 0, 54, 0
2, 253293, Note_on_c, 0, 50, 37
2, 253353, Note_on_c, 0, 86, 0
2, 253365, Note_on_c, 0, 50, 0
2, 253443, Note_on_c, 0, 83, 41
2, 253472, Note_on_c, 0, 47, 35
2, 253710, Note_on_c, 0, 83, 0
2, 253745, Note_on_c, 0, 47, 0
2, 253822, Note_on_c, 0, 50, 35
2, 253833, Note_on_c, 0, 86, 37
2, 253940, Note_on_c, 0, 86, 0
2, 254067, Note_on_c, 0, 50, 0
2, 254224, Note_on_c, 0, 88, 68
2, 254232, Note_on_c, 0, 52, 62
2, 254536, Note_on_c, 0, 88, 0
2, 254585, Note_on_c, 0, 85, 46
2, 254586, Note_on_c, 0, 49, 37
2, 254587, Note_on_c, 0, 52, 0
2, 254731, Note_on_c, 0, 85, 0
2, 254785, Note_on_c, 0, 83, 59
2, 254810, Note_on_c, 0, 47, 36
2, 254822, Note_on_c, 0, 49, 0
2, 254832, Note_on_c, 0, 83, 0
2, 254854, Note_on_c, 0, 47, 0
2, 255150, Note_on_c, 0, 42, 49
2, 255162, Note_on_c, 0, 78, 50
2, 255295, Note_on_c, 0, 78, 0
2, 255323, Note_on_c, 0, 42, 0
2, 255364, Note_on_c, 0, 76, 40
2, 255381, Note_on_c, 0, 40, 50
2, 255917, Note_on_c, 0, 76, 0
2, 255949, Note_on_c, 0, 42, 55
2, 255963, Note_on_c, 0, 78, 47
2, 255964, Note_on_c, 0, 40, 0
2, 256042, Note_on_c, 0, 42, 0
2, 256049, Note_on_c, 0, 78, 0
2, 256298, Note_on_c, 0, 83, 54
2, 256321, Note_on_c, 0, 47, 41
2, 256392, Note_on_c, 0, 83, 0
2, 256476, Note_on_c, 0, 47, 0
2, 256515, Note_on_c, 0, 49, 74
2, 256516, Note_on_c, 0, 85, 83
2, 256963, Note_on_c, 0, 85, 0
2, 256998, Note_on_c, 0, 49, 0
2, 257048, Note_on_c, 0, 46, 46
2, 257049, Note_on_c, 0, 80, 36
2, 257060, Note_on_c, 0, 82, 60
2, 257084, Note_on_c, 0, 80, 0
2, 257175, Note_on_c, 0, 82, 0
2, 257195, Note_on_c, 0, 46, 0
2, 257424, Note_on_c, 0, 80, 47
2, 257435, Note_on_c, 0, 44, 35
2, 257539, Note_on_c, 0, 80, 0
2, 257567, Note_on_c, 0, 44, 0
2, 257609, Note_on_c, 0, 78, 48
2, 257625, Note_on_c, 0, 42, 46
2, 257688, Note_on_c, 0, 78, 0
2, 257702, Note_on_c, 0, 42, 0
2, 258194, Note_on_c, 0, 61, 58
2, 258206, Note_on_c, 0, 49, 35
2, 258272, Note_on_c, 0, 61, 0
2, 258337, Note_on_c, 0, 49, 0
2, 258386, Note_on_c, 0, 66, 64
2, 258399, Note_on_c, 0, 54, 42
2, 258493, Note_on_c, 0, 66, 0
2, 258498, Note_on_c, 0, 54, 0
2, 258825, Note_on_c, 0, 56, 64
2, 258833, Note_on_c, 0, 68, 77
2, 258934, Note_on_c, 0, 68, 0
2, 259006, Note_on_c, 0, 56, 0
2, 259204, Note_on_c, 0, 70, 91
2, 259210, Note_on_c, 0, 58, 81
2, 259339, Note_on_c, 0, 58, 0
2, 259342, Note_on_c, 0, 70, 0
2, 259582, Note_on_c, 0, 69, 87
2, 259610, Note_on_c, 0, 57, 62
2, 259705, Note_on_c, 0, 69, 0
2, 259711, Note_on_c, 0, 68, 52
2, 259740, Note_on_c, 0, 57, 0
2, 259825, Note_on_c, 0, 68, 0
2, 259833, Note_on_c, 0, 56, 7
2, 259862, Note_on_c, 0, 67, 32
2, 259902, Note_on_c, 0, 67, 0
2, 259906, Note_on_c, 0, 56, 0
2, 259941, Note_on_c, 0, 66, 42
2, 260040, Note_on_c, 0, 66, 0
2, 260157, Note_on_c, 0, 78, 77
2, 260176, Note_on_c, 0, 66, 71
2, 260218, Note_on_c, 0, 77, 55
2, 260221, Note_on_c, 0, 78, 0
2, 260245, Note_on_c, 0, 76, 33
2, 260299, Note_on_c, 0, 76, 0
2, 260366, Note_on_c, 0, 77, 0
2, 260607, Note_on_c, 0, 66, 0
2, 260660, Note_on_c, 0, 64, 33
2, 260703, Note_on_c, 0, 64, 0
2, 260747, Note_on_c, 0, 66, 65
2, 260751, Note_on_c, 0, 78, 80
2, 260879, Note_on_c, 0, 66, 0
2, 260910, Note_on_c, 0, 78, 0
2, 261139, Note_on_c, 0, 75, 74
2, 261142, Note_on_c, 0, 64, 71
2, 261277, Note_on_c, 0, 76, 80
2, 261279, Note_on_c, 0, 75, 0
2, 261652, Note_on_c, 0, 76, 0
2, 261663, Note_on_c, 0, 64, 0
2, 261679, Note_on_c, 0, 62, 53
2, 261681, Note_on_c, 0, 74, 68
2, 262120, Note_on_c, 0, 74, 0
2, 262137, Note_on_c, 0, 62, 0
2, 263098, Note_on_c, 0, 84, 94
2, 263252, Note_on_c, 0, 84, 0
2, 263307, Note_on_c, 0, 83, 68
2, 263416, Note_on_c, 0, 83, 0
2, 263489, Note_on_c, 0, 79, 36
2, 263656, Note_on_c, 0, 79, 0
2, 263684, Note_on_c, 0, 74, 29
2, 263732, Note_on_c, 0, 74, 0
2, 263875, Note_on_c, 0, 81, 84
2, 264054, Note_on_c, 0, 79, 52
2, 264114, Note_on_c, 0, 81, 0
2, 264155, Note_on_c, 0, 79, 0
2, 264223, Note_on_c, 0, 74, 39
2, 264412, Note_on_c, 0, 74, 0
2, 264419, Note_on_c, 0, 71, 37
2, 264537, Note_on_c, 0, 71, 0
2, 264629, Note_on_c, 0, 71, 36
2, 264808, Note_on_c, 0, 71, 0
2, 265001, Note_on_c, 0, 71, 46
2, 265168, Note_on_c, 0, 71, 0
2, 265380, Note_on_c, 0, 71, 68
2, 265542, Note_on_c, 0, 71, 0
2, 265605, Note_on_c, 0, 70, 37
2, 265696, Note_on_c, 0, 70, 0
2, 265753, Note_on_c, 0, 71, 34
2, 265988, Note_on_c, 0, 62, 43
2, 265990, Note_on_c, 0, 59, 39
2, 266018, Note_on_c, 0, 57, 22
2, 266038, Note_on_c, 0, 62, 0
2, 266050, Note_on_c, 0, 59, 0
2, 266055, Note_on_c, 0, 57, 0
2, 266347, Note_on_c, 0, 62, 46
2, 266357, Note_on_c, 0, 54, 40
2, 266362, Note_on_c, 0, 59, 44
2, 266383, Note_on_c, 0, 57, 32
2, 266424, Note_on_c, 0, 57, 0
2, 266429, Note_on_c, 0, 62, 0
2, 266448, Note_on_c, 0, 54, 0
2, 266469, Note_on_c, 0, 59, 0
2, 266580, Note_on_c, 0, 54, 34
2, 266584, Note_on_c, 0, 62, 33
2, 266594, Note_on_c, 0, 59, 40
2, 266620, Note_on_c, 0, 57, 28
2, 266713, Note_on_c, 0, 62, 0
2, 266718, Note_on_c, 0, 57, 0
2, 266719, Note_on_c, 0, 54, 0
2, 266734, Note_on_c, 0, 71, 0
2, 266740, Note_on_c, 0, 59, 0
2, 267105, Note_on_c, 0, 62, 57
2, 267114, Note_on_c, 0, 59, 53
2, 267132, Note_on_c, 0, 57, 39
2, 267139, Note_on_c, 0, 54, 26
2, 267180, Note_on_c, 0, 57, 0
2, 267186, Note_on_c, 0, 62, 0
2, 267206, Note_on_c, 0, 54, 0
2, 267217, Note_on_c, 0, 59, 0
2, 267683, Note_on_c, 0, 62, 49
2, 267696, Note_on_c, 0, 59, 44
2, 267704, Note_on_c, 0, 54, 30
2, 267708, Note_on_c, 0, 57, 37
2, 267775, Note_on_c, 0, 62, 0
2, 267783, Note_on_c, 0, 57, 0
2, 267805, Note_on_c, 0, 54, 0
2, 267807, Note_on_c, 0, 59, 0
2, 268266, Note_on_c, 0, 62, 60
2, 268283, Note_on_c, 0, 54, 34
2, 268288, Note_on_c, 0, 59, 36
2, 268303, Note_on_c, 0, 57, 35
2, 268346, Note_on_c, 0, 59, 0
2, 268348, Note_on_c, 0, 62, 0
2, 268353, Note_on_c, 0, 57, 0
2, 268401, Note_on_c, 0, 54, 0
2, 268836, Note_on_c, 0, 54, 59
2, 268845, Note_on_c, 0, 78, 67
2, 268897, Note_on_c, 0, 54, 0
2, 268912, Note_on_c, 0, 78, 0
2, 269221, Note_on_c, 0, 58, 46
2, 269224, Note_on_c, 0, 82, 71
2, 269311, Note_on_c, 0, 58, 0
2, 269321, Note_on_c, 0, 82, 0
2, 269587, Note_on_c, 0, 49, 38
2, 269605, Note_on_c, 0, 73, 32
2, 269759, Note_on_c, 0, 73, 0
2, 269784, Note_on_c, 0, 49, 0
2, 269807, Note_on_c, 0, 76, 51
2, 269839, Note_on_c, 0, 52, 39
2, 269891, Note_on_c, 0, 76, 0
2, 269942, Note_on_c, 0, 52, 0
2, 270193, Note_on_c, 0, 78, 57
2, 270201, Note_on_c, 0, 54, 59
2, 270287, Note_on_c, 0, 54, 0
2, 270306, Note_on_c, 0, 78, 0
2, 270579, Note_on_c, 0, 82, 90
2, 270583, Note_on_c, 0, 58, 69
2, 270698, Note_on_c, 0, 58, 0
2, 270702, Note_on_c, 0, 82, 0
2, 270944, Note_on_c, 0, 49, 74
2, 270960, Note_on_c, 0, 73, 81
2, 271071, Note_on_c, 0, 73, 0
2, 271081, Note_on_c, 0, 49, 0
2, 271138, Note_on_c, 0, 49, 52
2, 271155, Note_on_c, 0, 73, 52
2, 271424, Note_on_c, 0, 73, 0
2, 271457, Note_on_c, 0, 49, 0
2, 271509, Note_on_c, 0, 76, 42
2, 271517, Note_on_c, 0, 52, 40
2, 271603, Note_on_c, 0, 76, 0
2, 271654, Note_on_c, 0, 52, 0
2, 273212, Note_on_c, 0, 78, 87
2, 273225, Note_on_c, 0, 54, 77
2, 273370, Note_on_c, 0, 78, 0
2, 273433, Note_on_c, 0, 58, 72
2, 273442, Note_on_c, 0, 82, 91
2, 273447, Note_on_c, 0, 54, 0
2, 273556, Note_on_c, 0, 82, 0
2, 273600, Note_on_c, 0, 58, 0
2, 273665, Note_on_c, 0, 49, 53
2, 273667, Note_on_c, 0, 73, 53
2, 273745, Note_on_c, 0, 73, 0
2, 273806, Note_on_c, 0, 49, 0
2, 273896, Note_on_c, 0, 76, 66
2, 273918, Note_on_c, 0, 52, 54
2, 274109, Note_on_c, 0, 76, 0
2, 274117, Note_on_c, 0, 52, 0
2, 274458, Note_on_c, 0, 78, 77
2, 274464, Note_on_c, 0, 54, 70
2, 274591, Note_on_c, 0, 78, 0
2, 274667, Note_on_c, 0, 54, 0
2, 274717, Note_on_c, 0, 58, 60
2, 274724, Note_on_c, 0, 79, 72
2, 274749, Note_on_c, 0, 58, 0
2, 274867, Note_on_c, 0, 79, 0
2, 275246, Note_on_c, 0, 66, 63
2, 275248, Note_on_c, 0, 62, 55
2, 275254, Note_on_c, 0, 55, 45
2, 275256, Note_on_c, 0, 81, 75
2, 275262, Note_on_c, 0, 59, 53
2, 275476, Note_on_c, 0, 81, 0
2, 275514, Note_on_c, 0, 82, 64
2, 275646, Note_on_c, 0, 82, 0
2, 275653, Note_on_c, 0, 66, 0
2, 275851, Note_on_c, 0, 62, 0
2, 275920, Note_on_c, 0, 59, 0
2, 275989, Note_on_c, 0, 66, 69
2, 276023, Note_on_c, 0, 59, 43
2, 276039, Note_on_c, 0, 62, 19
2, 276049, Note_on_c, 0, 66, 0
2, 276050, Note_on_c, 0, 55, 0
2, 276067, Note_on_c, 0, 59, 0
2, 276076, Note_on_c, 0, 62, 0
2, 276344, Note_on_c, 0, 66, 72
2, 276352, Note_on_c, 0, 62, 54
2, 276365, Note_on_c, 0, 59, 49
2, 276394, Note_on_c, 0, 66, 0
2, 276395, Note_on_c, 0, 62, 0
2, 276403, Note_on_c, 0, 59, 0
2, 276504, Note_on_c, 0, 90, 83
2, 276523, Note_on_c, 0, 62, 4
2, 276618, Note_on_c, 0, 62, 0
2, 276636, Note_on_c, 0, 90, 0
2, 276693, Note_on_c, 0, 66, 74
2, 276704, Note_on_c, 0, 93, 99
2, 276711, Note_on_c, 0, 62, 35
2, 276723, Note_on_c, 0, 59, 52
2, 276751, Note_on_c, 0, 66, 0
2, 276833, Note_on_c, 0, 59, 0
2, 276866, Note_on_c, 0, 93, 0
2, 276897, Note_on_c, 0, 62, 0
2, 276913, Note_on_c, 0, 90, 55
2, 277088, Note_on_c, 0, 86, 62
2, 277089, Note_on_c, 0, 62, 28
2, 277147, Note_on_c, 0, 90, 0
2, 277152, Note_on_c, 0, 62, 0
2, 277243, Note_on_c, 0, 86, 0
2, 277287, Note_on_c, 0, 83, 52
2, 277396, Note_on_c, 0, 83, 0
2, 277451, Note_on_c, 0, 66, 65
2, 277467, Note_on_c, 0, 62, 40
2, 277475, Note_on_c, 0, 79, 61
2, 277494, Note_on_c, 0, 59, 42
2, 277546, Note_on_c, 0, 66, 0
2, 277590, Note_on_c, 0, 79, 0
2, 277696, Note_on_c, 0, 62, 0
2, 277792, Note_on_c, 0, 59, 0
2, 277870, Note_on_c, 0, 74, 31
2, 277883, Note_on_c, 0, 72, 26
2, 277916, Note_on_c, 0, 72, 0
2, 277942, Note_on_c, 0, 74, 0
2, 278032, Note_on_c, 0, 66, 54
2, 278040, Note_on_c, 0, 61, 48
2, 278047, Note_on_c, 0, 55, 57
2, 278049, Note_on_c, 0, 84, 90
2, 278253, Note_on_c, 0, 82, 49
2, 278259, Note_on_c, 0, 84, 0
2, 278261, Note_on_c, 0, 66, 0
2, 278325, Note_on_c, 0, 55, 0
2, 278429, Note_on_c, 0, 82, 0
2, 278437, Note_on_c, 0, 77, 41
2, 278498, Note_on_c, 0, 61, 0
2, 278621, Note_on_c, 0, 73, 67
2, 278631, Note_on_c, 0, 61, 39
2, 278639, Note_on_c, 0, 66, 52
2, 278646, Note_on_c, 0, 77, 0
2, 278663, Note_on_c, 0, 55, 44
2, 278795, Note_on_c, 0, 73, 0
2, 278842, Note_on_c, 0, 72, 32
2, 278984, Note_on_c, 0, 72, 0
2, 278994, Note_on_c, 0, 66, 0
2, 279003, Note_on_c, 0, 70, 61
2, 279076, Note_on_c, 0, 70, 0
2, 279200, Note_on_c, 0, 55, 0
2, 279215, Note_on_c, 0, 69, 15
2, 279335, Note_on_c, 0, 61, 0
2, 279340, Note_on_c, 0, 69, 0
2, 279529, Note_on_c, 0, 61, 38
2, 279532, Note_on_c, 0, 66, 46
2, 279533, Note_on_c, 0, 55, 48
2, 279778, Note_on_c, 0, 66, 0
2, 279951, Note_on_c, 0, 55, 0
2, 280067, Note_on_c, 0, 61, 0
2, 280155, Note_on_c, 0, 61, 39
2, 280182, Note_on_c, 0, 55, 40
2, 280223, Note_on_c, 0, 55, 0
2, 280308, Note_on_c, 0, 69, 66
2, 280452, Note_on_c, 0, 61, 0
2, 280503, Note_on_c, 0, 69, 0
2, 280555, Note_on_c, 0, 70, 74
2, 280572, Note_on_c, 0, 61, 32
2, 280635, Note_on_c, 0, 71, 71
2, 280638, Note_on_c, 0, 55, 27
2, 280674, Note_on_c, 0, 70, 0
2, 280690, Note_on_c, 0, 55, 0
2, 280748, Note_on_c, 0, 72, 71
2, 280781, Note_on_c, 0, 71, 0
2, 280880, Note_on_c, 0, 72, 0
2, 280981, Note_on_c, 0, 54, 49
2, 280983, Note_on_c, 0, 70, 44
2, 280984, Note_on_c, 0, 66, 71
2, 280990, Note_on_c, 0, 64, 41
2, 281010, Note_on_c, 0, 59, 33
2, 281017, Note_on_c, 0, 70, 0
2, 281163, Note_on_c, 0, 64, 0
2, 281202, Note_on_c, 0, 59, 0
2, 281236, Note_on_c, 0, 66, 0
2, 281267, Note_on_c, 0, 67, 31
2, 281268, Note_on_c, 0, 61, 0
2, 281269, Note_on_c, 0, 68, 60
2, 281289, Note_on_c, 0, 54, 0
2, 281311, Note_on_c, 0, 67, 0
2, 281373, Note_on_c, 0, 61, 45
2, 281392, Note_on_c, 0, 68, 0
2, 281399, Note_on_c, 0, 69, 59
2, 281430, Note_on_c, 0, 61, 0
2, 281475, Note_on_c, 0, 69, 0
2, 281499, Note_on_c, 0, 62, 70
2, 281685, Note_on_c, 0, 62, 0
2, 282084, Note_on_c, 0, 64, 68
2, 282085, Note_on_c, 0, 61, 63
2, 282115, Note_on_c, 0, 59, 33
2, 282119, Note_on_c, 0, 64, 0
2, 282155, Note_on_c, 0, 59, 0
2, 282164, Note_on_c, 0, 61, 0
2, 282265, Note_on_c, 0, 61, 51
2, 282284, Note_on_c, 0, 62, 71
2, 282390, Note_on_c, 0, 62, 0
2, 282438, Note_on_c, 0, 61, 0
2, 282482, Note_on_c, 0, 64, 82
2, 282632, Note_on_c, 0, 64, 0
2, 282676, Note_on_c, 0, 61, 50
2, 282826, Note_on_c, 0, 61, 0
2, 282885, Note_on_c, 0, 57, 38
2, 282991, Note_on_c, 0, 57, 0
2, 283004, Note_on_c, 0, 54, 47
2, 283221, Note_on_c, 0, 54, 0
2, 283232, Note_on_c, 0, 52, 47
2, 283285, Note_on_c, 0, 52, 0
2, 283416, Note_on_c, 0, 57, 69
2, 283571, Note_on_c, 0, 57, 0
2, 283637, Note_on_c, 0, 49, 32
2, 283663, Note_on_c, 0, 52, 49
2, 283701, Note_on_c, 0, 49, 0
2, 283761, Note_on_c, 0, 52, 0
2, 283832, Note_on_c, 0, 54, 42
2, 283942, Note_on_c, 0, 54, 0
2, 284029, Note_on_c, 0, 55, 71
2, 284171, Note_on_c, 0, 55, 0
2, 284230, Note_on_c, 0, 57, 46
2, 284396, Note_on_c, 0, 57, 0
2, 284412, Note_on_c, 0, 58, 62
2, 284422, Note_on_c, 0, 54, 55
2, 284443, Note_on_c, 0, 43, 29
2, 284468, Note_on_c, 0, 54, 0
2, 284485, Note_on_c, 0, 43, 0
2, 284528, Note_on_c, 0, 58, 0
2, 284598, Note_on_c, 0, 59, 40
2, 284773, Note_on_c, 0, 59, 0
2, 284787, Note_on_c, 0, 62, 64
2, 284921, Note_on_c, 0, 62, 0
2, 284933, Note_on_c, 0, 66, 55
2, 285004, Note_on_c, 0, 66, 0
2, 285082, Note_on_c, 0, 69, 75
2, 285120, Note_on_c, 0, 59, 31
2, 285194, Note_on_c, 0, 59, 0
2, 285226, Note_on_c, 0, 69, 0
2, 285229, Note_on_c, 0, 74, 66
2, 285373, Note_on_c, 0, 78, 70
2, 285397, Note_on_c, 0, 74, 0
2, 285436, Note_on_c, 0, 59, 28
2, 285455, Note_on_c, 0, 78, 0
2, 285532, Note_on_c, 0, 59, 0
2, 285536, Note_on_c, 0, 81, 66
2, 285666, Note_on_c, 0, 81, 0
2, 285686, Note_on_c, 0, 86, 40
2, 285806, Note_on_c, 0, 86, 0
2, 285828, Note_on_c, 0, 90, 69
2, 285953, Note_on_c, 0, 90, 0
2, 285967, Note_on_c, 0, 93, 90
2, 286135, Note_on_c, 0, 93, 0
2, 286135, Note_on_c, 0, 90, 65
2, 286246, Note_on_c, 0, 90, 0
2, 286700, Note_on_c, 0, 64, 50
2, 286704, Note_on_c, 0, 59, 51
2, 286706, Note_on_c, 0, 54, 42
2, 286757, Note_on_c, 0, 64, 0
2, 286788, Note_on_c, 0, 59, 0
2, 286830, Note_on_c, 0, 54, 0
2, 287255, Note_on_c, 0, 53, 48
2, 287260, Note_on_c, 0, 59, 28
2, 287263, Note_on_c, 0, 62, 44
2, 287344, Note_on_c, 0, 62, 0
2, 287359, Note_on_c, 0, 53, 0
2, 287370, Note_on_c, 0, 59, 0
2, 287848, Note_on_c, 0, 62, 51
2, 287852, Note_on_c, 0, 59, 51
2, 287873, Note_on_c, 0, 53, 35
2, 287901, Note_on_c, 0, 62, 0
2, 287924, Note_on_c, 0, 53, 0
2, 287938, Note_on_c, 0, 59, 0
2, 288236, Note_on_c, 0, 55, 67
2, 288333, Note_on_c, 0, 55, 0
2, 288426, Note_on_c, 0, 56, 33
2, 288587, Note_on_c, 0, 56, 0
2, 288608, Note_on_c, 0, 58, 71
2, 288650, Note_on_c, 0, 55, 26
2, 288691, Note_on_c, 0, 55, 0
2, 288756, Note_on_c, 0, 58, 0
2, 288793, Note_on_c, 0, 59, 51
2, 288974, Note_on_c, 0, 59, 0
2, 289001, Note_on_c, 0, 61, 65
2, 289137, Note_on_c, 0, 61, 0
2, 289175, Note_on_c, 0, 62, 59
2, 289326, Note_on_c, 0, 62, 0
2, 289389, Note_on_c, 0, 64, 72
2, 289437, Note_on_c, 0, 53, 29
2, 289441, Note_on_c, 0, 59, 24
2, 289462, Note_on_c, 0, 57, 24
2, 289492, Note_on_c, 0, 53, 0
2, 289494, Note_on_c, 0, 64, 0
2, 289518, Note_on_c, 0, 57, 0
2, 289537, Note_on_c, 0, 59, 0
2, 289566, Note_on_c, 0, 65, 88
2, 289740, Note_on_c, 0, 65, 0
2, 289769, Note_on_c, 0, 67, 72
2, 289771, Note_on_c, 0, 62, 30
2, 289777, Note_on_c, 0, 59, 34
2, 289800, Note_on_c, 0, 57, 34
2, 289803, Note_on_c, 0, 62, 0
2, 289846, Note_on_c, 0, 57, 0
2, 289856, Note_on_c, 0, 59, 0
2, 289938, Note_on_c, 0, 67, 0
2, 289969, Note_on_c, 0, 65, 33
2, 290135, Note_on_c, 0, 65, 0
2, 290158, Note_on_c, 0, 64, 58
2, 290289, Note_on_c, 0, 64, 0
2, 290387, Note_on_c, 0, 62, 24
2, 290503, Note_on_c, 0, 62, 0
2, 290545, Note_on_c, 0, 60, 62
2, 290569, Note_on_c, 0, 58, 37
2, 290586, Note_on_c, 0, 60, 0
2, 290619, Note_on_c, 0, 58, 0
2, 290719, Note_on_c, 0, 63, 72
2, 290884, Note_on_c, 0, 63, 0
2, 290925, Note_on_c, 0, 58, 42
2, 290927, Note_on_c, 0, 64, 70
2, 290959, Note_on_c, 0, 58, 0
2, 291116, Note_on_c, 0, 64, 0
2, 291244, Note_on_c, 0, 63, 42
2, 291285, Note_on_c, 0, 61, 59
2, 291305, Note_on_c, 0, 58, 51
2, 291330, Note_on_c, 0, 63, 0
2, 291379, Note_on_c, 0, 58, 0
2, 291429, Note_on_c, 0, 61, 0
2, 291640, Note_on_c, 0, 58, 51
2, 291688, Note_on_c, 0, 51, 37
2, 291741, Note_on_c, 0, 51, 0
2, 291807, Note_on_c, 0, 58, 0
2, 291809, Note_on_c, 0, 57, 48
2, 291982, Note_on_c, 0, 57, 0
2, 292039, Note_on_c, 0, 55, 57
2, 292088, Note_on_c, 0, 49, 31
2, 292135, Note_on_c, 0, 49, 0
2, 292193, Note_on_c, 0, 54, 48
2, 292326, Note_on_c, 0, 55, 0
2, 292401, Note_on_c, 0, 54, 0
2, 292461, Note_on_c, 0, 52, 31
2, 292503, Note_on_c, 0, 52, 0
2, 292606, Note_on_c, 0, 54, 91
2, 292800, Note_on_c, 0, 54, 0
2, 292821, Note_on_c, 0, 51, 55
2, 292942, Note_on_c, 0, 51, 0
2, 293010, Note_on_c, 0, 52, 36
2, 293141, Note_on_c, 0, 52, 0
2, 293203, Note_on_c, 0, 28, 53
2, 293204, Note_on_c, 0, 40, 55
2, 293209, Note_on_c, 0, 54, 65
2, 293251, Note_on_c, 0, 28, 0
2, 293255, Note_on_c, 0, 40, 0
2, 293330, Note_on_c, 0, 54, 0
2, 293416, Note_on_c, 0, 55, 51
2, 293606, Note_on_c, 0, 55, 0
2, 293625, Note_on_c, 0, 57, 59
2, 293760, Note_on_c, 0, 57, 0
2, 293800, Note_on_c, 0, 58, 47
2, 293948, Note_on_c, 0, 58, 0
2, 294000, Note_on_c, 0, 59, 58
2, 294021, Note_on_c, 0, 47, 50
2, 294111, Note_on_c, 0, 47, 0
2, 294124, Note_on_c, 0, 59, 0
2, 294175, Note_on_c, 0, 62, 54
2, 294338, Note_on_c, 0, 66, 72
2, 294361, Note_on_c, 0, 62, 0
2, 294382, Note_on_c, 0, 57, 43
2, 294416, Note_on_c, 0, 57, 0
2, 294420, Note_on_c, 0, 66, 0
2, 294502, Note_on_c, 0, 69, 80
2, 294605, Note_on_c, 0, 69, 0
2, 294658, Note_on_c, 0, 74, 76
2, 294806, Note_on_c, 0, 78, 60
2, 294814, Note_on_c, 0, 74, 0
2, 294881, Note_on_c, 0, 78, 0
2, 294964, Note_on_c, 0, 81, 68
2, 295112, Note_on_c, 0, 86, 65
2, 295185, Note_on_c, 0, 81, 0
2, 295251, Note_on_c, 0, 90, 65
2, 295316, Note_on_c, 0, 86, 0
2, 295366, Note_on_c, 0, 90, 0
2, 295389, Note_on_c, 0, 91, 67
2, 295548, Note_on_c, 0, 90, 71
2, 295582, Note_on_c, 0, 91, 0
2, 295617, Note_on_c, 0, 90, 0
2, 295967, Note_on_c, 0, 47, 68
2, 296000, Note_on_c, 0, 47, 0
2, 296278, Note_on_c, 0, 86, 80
2, 296281, Note_on_c, 0, 75, 92
2, 296289, Note_on_c, 0, 81, 79
2, 296316, Note_on_c, 0, 72, 68
2, 296317, Note_on_c, 0, 71, 58
2, 296331, Note_on_c, 0, 84, 27
2, 296349, Note_on_c, 0, 71, 0
2, 296349, Note_on_c, 0, 72, 0
2, 296372, Note_on_c, 0, 84, 0
2, 296395, Note_on_c, 0, 75, 0
2, 296397, Note_on_c, 0, 86, 0
2, 296424, Note_on_c, 0, 81, 0
2, 296463, Note_on_c, 0, 71, 66
2, 296474, Note_on_c, 0, 86, 69
2, 296484, Note_on_c, 0, 75, 74
2, 296486, Note_on_c, 0, 81, 75
2, 296660, Note_on_c, 0, 86, 0
2, 296667, Note_on_c, 0, 81, 0
2, 296761, Note_on_c, 0, 75, 0
2, 296845, Note_on_c, 0, 68, 62
2, 296846, Note_on_c, 0, 83, 77
2, 296847, Note_on_c, 0, 78, 60
2, 296856, Note_on_c, 0, 72, 64
2, 296859, Note_on_c, 0, 71, 0
2, 296916, Note_on_c, 0, 72, 0
2, 296958, Note_on_c, 0, 68, 0
2, 296966, Note_on_c, 0, 83, 0
2, 296973, Note_on_c, 0, 78, 0
2, 297064, Note_on_c, 0, 68, 60
2, 297079, Note_on_c, 0, 78, 57
2, 297087, Note_on_c, 0, 83, 62
2, 297091, Note_on_c, 0, 72, 69
2, 297158, Note_on_c, 0, 83, 0
2, 297164, Note_on_c, 0, 72, 0
2, 297184, Note_on_c, 0, 78, 0
2, 297201, Note_on_c, 0, 68, 0
2, 297437, Note_on_c, 0, 80, 75
2, 297444, Note_on_c, 0, 65, 74
2, 297445, Note_on_c, 0, 75, 71
2, 297450, Note_on_c, 0, 69, 75
2, 297560, Note_on_c, 0, 80, 0
2, 297565, Note_on_c, 0, 69, 0
2, 297571, Note_on_c, 0, 65, 0
2, 297619, Note_on_c, 0, 75, 0
2, 297653, Note_on_c, 0, 65, 60
2, 297659, Note_on_c, 0, 69, 66
2, 297661, Note_on_c, 0, 80, 36
2, 297692, Note_on_c, 0, 80, 0
2, 297761, Note_on_c, 0, 69, 0
2, 297933, Note_on_c, 0, 65, 0
2, 298021, Note_on_c, 0, 62, 55
2, 298023, Note_on_c, 0, 66, 67
2, 298026, Note_on_c, 0, 77, 58
2, 298033, Note_on_c, 0, 72, 64
2, 298115, Note_on_c, 0, 62, 0
2, 298123, Note_on_c, 0, 77, 0
2, 298134, Note_on_c, 0, 66, 0
2, 298156, Note_on_c, 0, 72, 0
2, 298232, Note_on_c, 0, 77, 40
2, 298240, Note_on_c, 0, 62, 38
2, 298243, Note_on_c, 0, 66, 55
2, 298256, Note_on_c, 0, 72, 36
2, 298277, Note_on_c, 0, 77, 0
2, 298290, Note_on_c, 0, 72, 0
2, 298327, Note_on_c, 0, 62, 0
2, 298346, Note_on_c, 0, 66, 0
2, 298576, Note_on_c, 0, 63, 74
2, 298578, Note_on_c, 0, 74, 66
2, 298584, Note_on_c, 0, 59, 66
2, 298585, Note_on_c, 0, 69, 72
2, 298697, Note_on_c, 0, 74, 0
2, 298705, Note_on_c, 0, 59, 0
2, 298706, Note_on_c, 0, 63, 0
2, 298740, Note_on_c, 0, 69, 0
2, 298781, Note_on_c, 0, 74, 51
2, 298797, Note_on_c, 0, 59, 42
2, 298798, Note_on_c, 0, 63, 55
2, 298858, Note_on_c, 0, 74, 0
2, 298931, Note_on_c, 0, 63, 0
2, 299017, Note_on_c, 0, 59, 0
2, 299145, Note_on_c, 0, 71, 47
2, 299151, Note_on_c, 0, 66, 49
2, 299174, Note_on_c, 0, 60, 32
2, 299243, Note_on_c, 0, 66, 0
2, 299281, Note_on_c, 0, 60, 0
2, 299308, Note_on_c, 0, 71, 0
2, 299343, Note_on_c, 0, 66, 38
2, 299392, Note_on_c, 0, 50, 29
2, 299416, Note_on_c, 0, 66, 0
2, 299454, Note_on_c, 0, 50, 0
2, 299533, Note_on_c, 0, 69, 91
2, 299534, Note_on_c, 0, 54, 46
2, 299549, Note_on_c, 0, 43, 42
2, 299845, Note_on_c, 0, 68, 57
2, 299854, Note_on_c, 0, 54, 0
2, 299855, Note_on_c, 0, 69, 0
2, 299913, Note_on_c, 0, 68, 0
2, 299932, Note_on_c, 0, 67, 50
2, 299946, Note_on_c, 0, 66, 55
2, 299965, Note_on_c, 0, 67, 0
2, 299966, Note_on_c, 0, 43, 0
2, 300227, Note_on_c, 0, 66, 0
2, 300519, Note_on_c, 0, 54, 64
2, 300597, Note_on_c, 0, 54, 0
2, 301084, Note_on_c, 0, 66, 83
2, 301292, Note_on_c, 0, 62, 68
2, 301319, Note_on_c, 0, 50, 24
2, 301384, Note_on_c, 0, 50, 0
2, 301389, Note_on_c, 0, 66, 0
2, 301398, Note_on_c, 0, 62, 0
2, 301472, Note_on_c, 0, 59, 39
2, 301569, Note_on_c, 0, 59, 0
2, 301677, Note_on_c, 0, 54, 43
2, 301767, Note_on_c, 0, 54, 0
2, 301891, Note_on_c, 0, 52, 17
2, 302026, Note_on_c, 0, 52, 0
2, 302054, Note_on_c, 0, 50, 51
2, 302156, Note_on_c, 0, 50, 0
2, 302230, Note_on_c, 0, 52, 54
2, 302365, Note_on_c, 0, 52, 0
2, 302398, Note_on_c, 0, 54, 68
2, 302490, Note_on_c, 0, 54, 0
2, 302491, Note_on_c, 0, 50, 13
2, 302552, Note_on_c, 0, 55, 60
2, 302646, Note_on_c, 0, 50, 0
2, 302665, Note_on_c, 0, 55, 0
2, 302724, Note_on_c, 0, 57, 55
2, 302829, Note_on_c, 0, 57, 0
2, 302833, Note_on_c, 0, 50, 17
2, 302874, Note_on_c, 0, 58, 58
2, 302904, Note_on_c, 0, 50, 0
2, 302958, Note_on_c, 0, 58, 0
2, 303027, Note_on_c, 0, 59, 57
2, 303132, Note_on_c, 0, 59, 0
2, 303177, Note_on_c, 0, 62, 60
2, 303306, Note_on_c, 0, 62, 0
2, 303324, Note_on_c, 0, 66, 55
2, 303381, Note_on_c, 0, 66, 0
2, 303498, Note_on_c, 0, 69, 50
2, 303581, Note_on_c, 0, 69, 0
2, 303616, Note_on_c, 0, 74, 48
2, 303754, Note_on_c, 0, 74, 0
2, 303764, Note_on_c, 0, 78, 45
2, 303860, Note_on_c, 0, 78, 0
2, 303889, Note_on_c, 0, 81, 85
2, 304034, Note_on_c, 0, 78, 57
2, 304054, Note_on_c, 0, 81, 0
2, 304117, Note_on_c, 0, 78, 0
2, 304585, Note_on_c, 0, 54, 59
2, 304600, Note_on_c, 0, 43, 44
2, 304657, Note_on_c, 0, 43, 0
2, 304658, Note_on_c, 0, 54, 0
2, 305165, Note_on_c, 0, 54, 67
2, 305174, Note_on_c, 0, 43, 43
2, 305231, Note_on_c, 0, 43, 0
2, 305237, Note_on_c, 0, 54, 0
2, 305706, Note_on_c, 0, 42, 37
2, 306020, Note_on_c, 0, 42, 0
2, 306304, Note_on_c, 0, 42, 42
2, 306473, Note_on_c, 0, 42, 0
2, 306576, Note_on_c, 0, 54, 49
2, 306618, Note_on_c, 0, 54, 0
2, 306688, Note_on_c, 0, 57, 59
2, 306772, Note_on_c, 0, 57, 0
2, 306788, Note_on_c, 0, 54, 59
2, 306859, Note_on_c, 0, 54, 0
2, 306914, Note_on_c, 0, 55, 47
2, 307000, Note_on_c, 0, 55, 0
2, 307024, Note_on_c, 0, 57, 55
2, 307098, Note_on_c, 0, 57, 0
2, 307130, Note_on_c, 0, 58, 55
2, 307162, Note_on_c, 0, 58, 0
2, 307217, Note_on_c, 0, 60, 69
2, 307298, Note_on_c, 0, 60, 0
2, 307357, Note_on_c, 0, 61, 71
2, 307456, Note_on_c, 0, 61, 0
2, 307531, Note_on_c, 0, 63, 74
2, 307617, Note_on_c, 0, 63, 0
2, 307693, Note_on_c, 0, 64, 64
2, 307772, Note_on_c, 0, 64, 0
2, 307843, Note_on_c, 0, 66, 71
2, 307916, Note_on_c, 0, 66, 0
2, 307978, Note_on_c, 0, 67, 70
2, 308058, Note_on_c, 0, 67, 0
2, 308117, Note_on_c, 0, 69, 75
2, 308201, Note_on_c, 0, 69, 0
2, 308256, Note_on_c, 0, 70, 71
2, 308321, Note_on_c, 0, 70, 0
2, 308384, Note_on_c, 0, 72, 68
2, 308468, Note_on_c, 0, 72, 0
2, 308528, Note_on_c, 0, 73, 64
2, 308604, Note_on_c, 0, 73, 0
2, 308671, Note_on_c, 0, 75, 57
2, 308742, Note_on_c, 0, 75, 0
2, 308811, Note_on_c, 0, 76, 44
2, 308856, Note_on_c, 0, 76, 0
2, 308981, Note_on_c, 0, 78, 46
2, 309020, Note_on_c, 0, 78, 0
2, 309402, Note_on_c, 0, 63, 59
2, 309424, Note_on_c, 0, 58, 37
2, 309470, Note_on_c, 0, 63, 0
2, 309477, Note_on_c, 0, 58, 0
2, 309909, Note_on_c, 0, 63, 52
2, 309917, Note_on_c, 0, 52, 54
2, 309918, Note_on_c, 0, 58, 42
2, 309997, Note_on_c, 0, 63, 0
2, 310007, Note_on_c, 0, 52, 0
2, 310042, Note_on_c, 0, 58, 0
2, 310488, Note_on_c, 0, 63, 59
2, 310504, Note_on_c, 0, 58, 51
2, 310518, Note_on_c, 0, 52, 35
2, 310563, Note_on_c, 0, 63, 0
2, 310565, Note_on_c, 0, 52, 0
2, 310641, Note_on_c, 0, 58, 0
2, 310890, Note_on_c, 0, 79, 70
2, 311053, Note_on_c, 0, 81, 59
2, 311083, Note_on_c, 0, 79, 0
2, 311182, Note_on_c, 0, 81, 0
2, 311244, Note_on_c, 0, 82, 67
2, 311247, Note_on_c, 0, 63, 68
2, 311251, Note_on_c, 0, 58, 60
2, 311256, Note_on_c, 0, 52, 59
2, 311334, Note_on_c, 0, 63, 0
2, 311371, Note_on_c, 0, 82, 0
2, 311375, Note_on_c, 0, 52, 0
2, 311455, Note_on_c, 0, 58, 0
2, 311456, Note_on_c, 0, 84, 54
2, 311551, Note_on_c, 0, 84, 0
2, 311654, Note_on_c, 0, 86, 70
2, 311664, Note_on_c, 0, 58, 30
2, 311672, Note_on_c, 0, 62, 63
2, 311698, Note_on_c, 0, 58, 0
2, 311705, Note_on_c, 0, 62, 0
2, 311737, Note_on_c, 0, 59, 19
2, 311742, Note_on_c, 0, 86, 0
2, 311790, Note_on_c, 0, 59, 0
2, 311855, Note_on_c, 0, 88, 62
2, 311972, Note_on_c, 0, 88, 0
2, 312034, Note_on_c, 0, 91, 81
2, 312055, Note_on_c, 0, 79, 56
2, 312154, Note_on_c, 0, 79, 0
2, 312168, Note_on_c, 0, 91, 0
2, 312238, Note_on_c, 0, 90, 46
2, 312338, Note_on_c, 0, 90, 0
2, 312432, Note_on_c, 0, 62, 53
2, 312437, Note_on_c, 0, 88, 63
2, 312469, Note_on_c, 0, 55, 35
2, 312475, Note_on_c, 0, 59, 22
2, 312476, Note_on_c, 0, 62, 0
2, 312524, Note_on_c, 0, 55, 0
2, 312544, Note_on_c, 0, 88, 0
2, 312554, Note_on_c, 0, 59, 0
2, 312645, Note_on_c, 0, 86, 22
2, 312703, Note_on_c, 0, 86, 0
2, 312828, Note_on_c, 0, 79, 44
2, 312870, Note_on_c, 0, 79, 0
2, 313005, Note_on_c, 0, 88, 92
2, 313183, Note_on_c, 0, 66, 64
2, 313190, Note_on_c, 0, 62, 44
2, 313206, Note_on_c, 0, 55, 28
2, 313210, Note_on_c, 0, 86, 66
2, 313212, Note_on_c, 0, 59, 44
2, 313243, Note_on_c, 0, 88, 0
2, 313261, Note_on_c, 0, 55, 0
2, 313264, Note_on_c, 0, 66, 0
2, 313265, Note_on_c, 0, 62, 0
2, 313321, Note_on_c, 0, 86, 0
2, 313365, Note_on_c, 0, 59, 0
2, 313391, Note_on_c, 0, 83, 40
2, 313541, Note_on_c, 0, 83, 0
2, 313583, Note_on_c, 0, 79, 55
2, 313697, Note_on_c, 0, 79, 0
2, 313787, Note_on_c, 0, 76, 12
2, 313959, Note_on_c, 0, 76, 0
2, 313977, Note_on_c, 0, 74, 28
2, 314030, Note_on_c, 0, 74, 0
2, 314140, Note_on_c, 0, 83, 94
2, 314152, Note_on_c, 0, 66, 64
2, 314157, Note_on_c, 0, 62, 49
2, 314161, Note_on_c, 0, 59, 53
2, 314181, Note_on_c, 0, 55, 45
2, 314442, Note_on_c, 0, 62, 0
2, 314449, Note_on_c, 0, 83, 0
2, 314492, Note_on_c, 0, 59, 0
2, 314501, Note_on_c, 0, 55, 0
2, 314520, Note_on_c, 0, 66, 0
2, 314540, Note_on_c, 0, 81, 50
2, 314685, Note_on_c, 0, 81, 0
2, 314727, Note_on_c, 0, 66, 57
2, 314733, Note_on_c, 0, 61, 59
2, 314742, Note_on_c, 0, 55, 62
2, 314750, Note_on_c, 0, 79, 66
2, 315054, Note_on_c, 0, 55, 0
2, 315100, Note_on_c, 0, 66, 0
2, 315101, Note_on_c, 0, 61, 0
2, 315128, Note_on_c, 0, 78, 63
2, 315134, Note_on_c, 0, 79, 0
2, 315289, Note_on_c, 0, 78, 0
2, 315346, Note_on_c, 0, 66, 56
2, 315347, Note_on_c, 0, 61, 56
2, 315355, Note_on_c, 0, 76, 51
2, 315369, Note_on_c, 0, 55, 55
2, 315593, Note_on_c, 0, 55, 0
2, 315645, Note_on_c, 0, 66, 0
2, 315661, Note_on_c, 0, 61, 0
2, 315675, Note_on_c, 0, 76, 0
2, 315706, Note_on_c, 0, 75, 84
2, 315892, Note_on_c, 0, 75, 0
2, 315932, Note_on_c, 0, 66, 55
2, 315938, Note_on_c, 0, 61, 47
2, 315947, Note_on_c, 0, 70, 53
2, 315965, Note_on_c, 0, 55, 36
2, 316005, Note_on_c, 0, 55, 0
2, 316015, Note_on_c, 0, 66, 0
2, 316123, Note_on_c, 0, 61, 0
2, 316175, Note_on_c, 0, 70, 0
2, 316232, Note_on_c, 0, 67, 53
2, 316349, Note_on_c, 0, 67, 0
2, 316362, Note_on_c, 0, 61, 51
2, 316388, Note_on_c, 0, 55, 46
2, 316399, Note_on_c, 0, 61, 0
2, 316426, Note_on_c, 0, 55, 0
2, 316439, Note_on_c, 0, 63, 45
2, 316644, Note_on_c, 0, 63, 0
2, 317006, Note_on_c, 0, 61, 55
2, 317011, Note_on_c, 0, 66, 49
2, 317085, Note_on_c, 0, 66, 0
2, 317120, Note_on_c, 0, 61, 0
2, 317255, Note_on_c, 0, 61, 67
2, 317259, Note_on_c, 0, 66, 62
2, 317260, Note_on_c, 0, 55, 74
2, 317307, Note_on_c, 0, 65, 24
2, 317340, Note_on_c, 0, 65, 0
2, 317410, Note_on_c, 0, 55, 0
2, 317430, Note_on_c, 0, 66, 0
2, 317459, Note_on_c, 0, 61, 0
2, 317570, Note_on_c, 0, 66, 64
2, 317587, Note_on_c, 0, 61, 58
2, 317590, Note_on_c, 0, 55, 60
2, 317688, Note_on_c, 0, 55, 0
2, 317731, Note_on_c, 0, 66, 0
2, 317813, Note_on_c, 0, 61, 0
2, 317875, Note_on_c, 0, 61, 44
2, 317882, Note_on_c, 0, 64, 65
2, 317895, Note_on_c, 0, 54, 56
2, 317905, Note_on_c, 0, 59, 43
2, 318003, Note_on_c, 0, 54, 0
2, 318009, Note_on_c, 0, 64, 0
2, 318016, Note_on_c, 0, 59, 0
2, 318063, Note_on_c, 0, 61, 0
2, 318224, Note_on_c, 0, 61, 51
2, 318240, Note_on_c, 0, 64, 57
2, 318241, Note_on_c, 0, 59, 53
2, 318246, Note_on_c, 0, 54, 50
2, 318322, Note_on_c, 0, 64, 0
2, 318327, Note_on_c, 0, 59, 0
2, 318340, Note_on_c, 0, 54, 0
2, 318363, Note_on_c, 0, 61, 0
2, 318574, Note_on_c, 0, 61, 52
2, 318577, Note_on_c, 0, 64, 61
2, 318594, Note_on_c, 0, 54, 39
2, 318595, Note_on_c, 0, 59, 47
2, 318620, Note_on_c, 0, 64, 0
2, 318644, Note_on_c, 0, 59, 0
2, 318644, Note_on_c, 0, 54, 0
2, 318699, Note_on_c, 0, 61, 0
2, 318779, Note_on_c, 0, 85, 92
2, 318928, Note_on_c, 0, 85, 0
2, 318963, Note_on_c, 0, 61, 54
2, 318976, Note_on_c, 0, 88, 84
2, 318984, Note_on_c, 0, 64, 47
2, 318993, Note_on_c, 0, 54, 29
2, 319002, Note_on_c, 0, 59, 43
2, 319029, Note_on_c, 0, 64, 0
2, 319068, Note_on_c, 0, 54, 0
2, 319075, Note_on_c, 0, 59, 0
2, 319092, Note_on_c, 0, 88, 0
2, 319160, Note_on_c, 0, 61, 0
2, 319182, Note_on_c, 0, 86, 66
2, 319288, Note_on_c, 0, 86, 0
2, 319382, Note_on_c, 0, 61, 45
2, 319385, Note_on_c, 0, 64, 49
2, 319418, Note_on_c, 0, 59, 33
2, 319438, Note_on_c, 0, 64, 0
2, 319460, Note_on_c, 0, 59, 0
2, 319490, Note_on_c, 0, 61, 0
2, 319702, Note_on_c, 0, 61, 46
2, 319717, Note_on_c, 0, 85, 79
2, 319718, Note_on_c, 0, 54, 46
2, 319719, Note_on_c, 0, 64, 47
2, 319721, Note_on_c, 0, 59, 49
2, 319812, Note_on_c, 0, 64, 0
2, 319827, Note_on_c, 0, 59, 0
2, 319835, Note_on_c, 0, 54, 0
2, 319839, Note_on_c, 0, 85, 0
2, 319856, Note_on_c, 0, 61, 0
2, 320056, Note_on_c, 0, 61, 57
2, 320065, Note_on_c, 0, 64, 64
2, 320074, Note_on_c, 0, 54, 49
2, 320077, Note_on_c, 0, 59, 53
2, 320083, Note_on_c, 0, 88, 94
2, 320183, Note_on_c, 0, 64, 0
2, 320215, Note_on_c, 0, 88, 0
2, 320253, Note_on_c, 0, 54, 0
2, 320256, Note_on_c, 0, 59, 0
2, 320291, Note_on_c, 0, 86, 64
2, 320301, Note_on_c, 0, 61, 0
2, 320413, Note_on_c, 0, 86, 0
2, 320472, Note_on_c, 0, 61, 54
2, 320473, Note_on_c, 0, 85, 61
2, 320489, Note_on_c, 0, 64, 53
2, 320493, Note_on_c, 0, 59, 47
2, 320520, Note_on_c, 0, 54, 27
2, 320543, Note_on_c, 0, 64, 0
2, 320585, Note_on_c, 0, 59, 0
2, 320589, Note_on_c, 0, 85, 0
2, 320631, Note_on_c, 0, 54, 0
2, 320649, Note_on_c, 0, 61, 0
2, 320675, Note_on_c, 0, 83, 36
2, 320861, Note_on_c, 0, 83, 0
2, 320879, Note_on_c, 0, 81, 35
2, 320923, Note_on_c, 0, 81, 0
2, 321008, Note_on_c, 0, 54, 43
2, 321009, Note_on_c, 0, 59, 36
2, 321011, Note_on_c, 0, 62, 40
2, 321060, Note_on_c, 0, 85, 74
2, 321215, Note_on_c, 0, 85, 0
2, 321258, Note_on_c, 0, 86, 60
2, 321271, Note_on_c, 0, 62, 0
2, 321358, Note_on_c, 0, 86, 0
2, 321378, Note_on_c, 0, 59, 0
2, 321388, Note_on_c, 0, 54, 0
2, 321444, Note_on_c, 0, 82, 67
2, 321568, Note_on_c, 0, 82, 0
2, 321669, Note_on_c, 0, 83, 71
2, 321669, Note_on_c, 0, 59, 41
2, 321669, Note_on_c, 0, 54, 37
2, 321669, Note_on_c, 0, 62, 46
2, 321669, Note_on_c, 0, 62, 0
2, 321728, Note_on_c, 0, 83, 0
2, 321733, Note_on_c, 0, 54, 0
2, 321756, Note_on_c, 0, 59, 0
2, 321815, Note_on_c, 0, 78, 46
2, 321974, Note_on_c, 0, 78, 0
2, 322007, Note_on_c, 0, 81, 64
2, 322154, Note_on_c, 0, 81, 0
2, 322195, Note_on_c, 0, 79, 37
2, 322343, Note_on_c, 0, 79, 0
2, 322374, Note_on_c, 0, 74, 69
2, 322491, Note_on_c, 0, 74, 0
2, 322541, Note_on_c, 0, 72, 36
2, 322644, Note_on_c, 0, 72, 0
2, 322766, Note_on_c, 0, 72, 64
2, 322893, Note_on_c, 0, 72, 0
2, 323352, Note_on_c, 0, 62, 39
2, 323363, Note_on_c, 0, 67, 69
2, 323366, Note_on_c, 0, 59, 33
2, 323389, Note_on_c, 0, 54, 28
2, 323586, Note_on_c, 0, 62, 0
2, 323700, Note_on_c, 0, 67, 0
2, 323722, Note_on_c, 0, 54, 0
2, 323825, Note_on_c, 0, 59, 0
2, 323930, Note_on_c, 0, 59, 44
2, 323942, Note_on_c, 0, 62, 29
2, 323949, Note_on_c, 0, 53, 36
2, 323961, Note_on_c, 0, 67, 80
2, 323978, Note_on_c, 0, 62, 0
2, 323993, Note_on_c, 0, 53, 0
2, 324040, Note_on_c, 0, 59, 0
2, 324123, Note_on_c, 0, 67, 0
2, 324188, Note_on_c, 0, 67, 77
2, 324334, Note_on_c, 0, 59, 24
2, 324494, Note_on_c, 0, 59, 0
2, 325139, Note_on_c, 0, 62, 57
2, 325142, Note_on_c, 0, 59, 51
2, 325158, Note_on_c, 0, 53, 43
2, 325172, Note_on_c, 0, 62, 0
2, 325185, Note_on_c, 0, 59, 0
2, 325198, Note_on_c, 0, 53, 0
2, 325260, Note_on_c, 0, 67, 0
2, 325532, Note_on_c, 0, 59, 42
2, 325590, Note_on_c, 0, 59, 0
2, 325673, Note_on_c, 0, 76, 101
2, 325838, Note_on_c, 0, 76, 0
2, 325874, Note_on_c, 0, 59, 41
2, 325884, Note_on_c, 0, 79, 82
2, 326014, Note_on_c, 0, 59, 0
2, 326029, Note_on_c, 0, 79, 0
2, 326073, Note_on_c, 0, 73, 71
2, 326225, Note_on_c, 0, 73, 0
2, 326258, Note_on_c, 0, 59, 32
2, 326345, Note_on_c, 0, 59, 0
2, 326586, Note_on_c, 0, 59, 57
2, 326595, Note_on_c, 0, 62, 53
2, 326630, Note_on_c, 0, 62, 0
2, 326642, Note_on_c, 0, 53, 20
2, 326668, Note_on_c, 0, 59, 0
2, 326680, Note_on_c, 0, 53, 0
2, 326975, Note_on_c, 0, 58, 60
2, 326976, Note_on_c, 0, 63, 60
2, 326988, Note_on_c, 0, 52, 55
2, 327476, Note_on_c, 0, 63, 0
2, 327592, Note_on_c, 0, 52, 0
2, 327671, Note_on_c, 0, 58, 0
2, 327774, Note_on_c, 0, 63, 68
2, 327793, Note_on_c, 0, 58, 46
2, 327794, Note_on_c, 0, 52, 53
2, 327892, Note_on_c, 0, 63, 0
2, 328176, Note_on_c, 0, 78, 70
2, 328253, Note_on_c, 0, 78, 0
2, 328302, Note_on_c, 0, 52, 0
2, 328376, Note_on_c, 0, 84, 101
2, 328470, Note_on_c, 0, 58, 0
2, 328519, Note_on_c, 0, 84, 0
2, 328583, Note_on_c, 0, 58, 35
2, 328585, Note_on_c, 0, 82, 75
2, 328718, Note_on_c, 0, 82, 0
2, 328784, Note_on_c, 0, 78, 31
2, 328862, Note_on_c, 0, 58, 0
2, 328944, Note_on_c, 0, 78, 0
2, 328951, Note_on_c, 0, 76, 63
2, 328981, Note_on_c, 0, 63, 45
2, 328985, Note_on_c, 0, 58, 44
2, 329018, Note_on_c, 0, 63, 0
2, 329057, Note_on_c, 0, 76, 0
2, 329170, Note_on_c, 0, 75, 25
2, 329222, Note_on_c, 0, 58, 0
2, 329324, Note_on_c, 0, 73, 59
2, 329360, Note_on_c, 0, 63, 44
2, 329367, Note_on_c, 0, 58, 34
2, 329393, Note_on_c, 0, 63, 0
2, 329395, Note_on_c, 0, 52, 26
2, 329406, Note_on_c, 0, 75, 0
2, 329449, Note_on_c, 0, 52, 0
2, 329468, Note_on_c, 0, 73, 0
2, 329492, Note_on_c, 0, 72, 38
2, 329579, Note_on_c, 0, 58, 0
2, 329609, Note_on_c, 0, 72, 0
2, 329681, Note_on_c, 0, 70, 54
2, 329718, Note_on_c, 0, 58, 49
2, 329732, Note_on_c, 0, 63, 37
2, 329739, Note_on_c, 0, 52, 40
2, 329764, Note_on_c, 0, 63, 0
2, 329789, Note_on_c, 0, 52, 0
2, 329804, Note_on_c, 0, 70, 0
2, 329870, Note_on_c, 0, 69, 48
2, 329925, Note_on_c, 0, 58, 0
2, 330065, Note_on_c, 0, 69, 0
2, 330069, Note_on_c, 0, 67, 52
2, 330126, Note_on_c, 0, 59, 34
2, 330198, Note_on_c, 0, 59, 0
2, 330199, Note_on_c, 0, 67, 0
2, 330264, Note_on_c, 0, 66, 46
2, 330443, Note_on_c, 0, 66, 0
2, 330480, Note_on_c, 0, 69, 67
2, 330505, Note_on_c, 0, 59, 34
2, 330553, Note_on_c, 0, 59, 0
2, 330613, Note_on_c, 0, 69, 0
2, 331002, Note_on_c, 0, 66, 74
2, 331231, Note_on_c, 0, 53, 35
2, 331309, Note_on_c, 0, 53, 0
2, 331369, Note_on_c, 0, 62, 55
2, 331485, Note_on_c, 0, 62, 0
2, 331612, Note_on_c, 0, 62, 44
2, 331994, Note_on_c, 0, 57, 41
2, 332102, Note_on_c, 0, 57, 0
2, 332262, Note_on_c, 0, 62, 0
2, 332381, Note_on_c, 0, 53, 36
2, 332421, Note_on_c, 0, 53, 0
2, 332581, Note_on_c, 0, 62, 55
2, 332581, Note_on_c, 0, 59, 34
2, 332907, Note_on_c, 0, 53, 27
2, 333014, Control_c, 0, 64, 127
2, 333030, Note_on_c, 0, 59, 0
2, 333172, Note_on_c, 0, 62, 0
2, 333186, Control_c, 0, 64, 0
2, 333335, Note_on_c, 0, 62, 38
2, 333348, Note_on_c, 0, 57, 41
2, 333350, Note_on_c, 0, 53, 0
2, 333358, Note_on_c, 0, 47, 38
2, 333732, Note_on_c, 0, 57, 0
2, 333777, Note_on_c, 0, 62, 0
2, 333806, Note_on_c, 0, 47, 0
2, 333908, Note_on_c, 0, 62, 45
2, 333921, Note_on_c, 0, 47, 29
2, 333922, Note_on_c, 0, 57, 50
2, 333955, Note_on_c, 0, 57, 0
2, 333965, Note_on_c, 0, 62, 0
2, 333976, Note_on_c, 0, 47, 0
2, 334010, Note_on_c, 0, 66, 0
2, 334479, Note_on_c, 0, 66, 53
2, 334490, Note_on_c, 0, 62, 48
2, 334495, Note_on_c, 0, 47, 43
2, 334497, Note_on_c, 0, 57, 38
2, 334900, Control_c, 0, 64, 127
2, 335541, Note_on_c, 0, 66, 0
2, 335553, Note_on_c, 0, 62, 0
2, 335562, Note_on_c, 0, 57, 0
2, 335771, Note_on_c, 0, 47, 0
2, 335848, Note_on_c, 0, 66, 75
2, 335853, Control_c, 0, 64, 0
2, 335855, Note_on_c, 0, 51, 67
2, 335855, Note_on_c, 0, 58, 81
2, 336045, Control_c, 0, 64, 127
2, 336245, Note_on_c, 0, 49, 31
2, 336320, Note_on_c, 0, 66, 0
2, 336339, Note_on_c, 0, 58, 0
2, 336380, Note_on_c, 0, 51, 0
2, 336382, Control_c, 0, 64, 0
2, 336388, Note_on_c, 0, 49, 0
2, 336405, Note_on_c, 0, 52, 64
2, 336409, Note_on_c, 0, 67, 71
2, 336422, Note_on_c, 0, 59, 71
2, 336594, Control_c, 0, 64, 127
2, 336631, Note_on_c, 0, 67, 0
2, 336734, Note_on_c, 0, 59, 0
2, 336967, Note_on_c, 0, 69, 81
2, 336969, Note_on_c, 0, 61, 81
2, 336971, Note_on_c, 0, 54, 69
2, 336980, Control_c, 0, 64, 0
2, 337049, Note_on_c, 0, 52, 0
2, 337123, Control_c, 0, 64, 127
2, 337174, Note_on_c, 0, 69, 0
2, 337389, Note_on_c, 0, 61, 0
2, 337489, Control_c, 0, 64, 0
2, 337553, Note_on_c, 0, 71, 64
2, 337555, Note_on_c, 0, 62, 69
2, 337556, Note_on_c, 0, 54, 0
2, 337566, Control_c, 0, 64, 127
2, 337628, Note_on_c, 0, 62, 0
2, 337642, Note_on_c, 0, 71, 0
2, 337672, Control_c, 0, 64, 0
2, 337943, Note_on_c, 0, 61, 28
2, 337954, Note_on_c, 0, 54, 49
2, 337956, Note_on_c, 0, 59, 42
2, 337958, Note_on_c, 0, 73, 52
2, 337974, Note_on_c, 0, 69, 50
2, 337976, Note_on_c, 0, 64, 44
2, 338192, Control_c, 0, 64, 127
2, 338268, Note_on_c, 0, 64, 0
2, 338350, Note_on_c, 0, 69, 0
2, 338375, Note_on_c, 0, 59, 0
2, 338387, Note_on_c, 0, 61, 0
2, 338424, Note_on_c, 0, 73, 0
2, 338490, Control_c, 0, 64, 0
2, 338520, Note_on_c, 0, 74, 62
2, 338523, Note_on_c, 0, 61, 34
2, 338530, Note_on_c, 0, 66, 60
2, 338533, Note_on_c, 0, 64, 49
2, 338534, Note_on_c, 0, 69, 58
2, 338541, Note_on_c, 0, 59, 30
2, 338606, Control_c, 0, 64, 127
2, 338682, Note_on_c, 0, 74, 0
2, 338727, Note_on_c, 0, 54, 0
2, 338772, Note_on_c, 0, 66, 0
2, 338811, Note_on_c, 0, 69, 0
2, 339004, Note_on_c, 0, 64, 0
2, 339048, Note_on_c, 0, 54, 39
2, 339071, Note_on_c, 0, 76, 49
2, 339078, Note_on_c, 0, 59, 0
2, 339087, Control_c, 0, 64, 0
2, 339127, Note_on_c, 0, 61, 0
2, 339195, Note_on_c, 0, 76, 0
2, 339225, Note_on_c, 0, 54, 0
2, 339442, Note_on_c, 0, 62, 32
2, 339453, Note_on_c, 0, 59, 36
2, 339470, Note_on_c, 0, 74, 37
2, 339489, Note_on_c, 0, 54, 28
2, 339489, Note_on_c, 0, 69, 35
2, 339512, Note_on_c, 0, 69, 0
2, 339520, Note_on_c, 0, 62, 0
2, 339521, Note_on_c, 0, 59, 0
2, 339541, Note_on_c, 0, 54, 0
2, 339557, Note_on_c, 0, 74, 0
2, 339841, Note_on_c, 0, 76, 49
2, 339866, Note_on_c, 0, 59, 17
2, 339937, Note_on_c, 0, 59, 0
2, 340008, Note_on_c, 0, 76, 0
2, 340078, Note_on_c, 0, 69, 57
2, 340080, Note_on_c, 0, 78, 60
2, 340097, Note_on_c, 0, 62, 42
2, 340099, Note_on_c, 0, 59, 30
2, 340102, Note_on_c, 0, 54, 45
2, 340550, Control_c, 0, 64, 127
2, 340585, Note_on_c, 0, 59, 0
2, 340671, Note_on_c, 0, 62, 0
2, 340753, Note_on_c, 0, 69, 0
2, 340827, Note_on_c, 0, 54, 0
2, 340875, Note_on_c, 0, 78, 0
2, 341011, Control_c, 0, 64, 0
2, 341410, Note_on_c, 0, 59, 71
2, 341420, Note_on_c, 0, 62, 78
2, 341424, Note_on_c, 0, 54, 60
2, 341427, Note_on_c, 0, 88, 96
2, 341429, Note_on_c, 0, 76, 91
2, 341434, Note_on_c, 0, 55, 71
2, 341657, Control_c, 0, 64, 127
2, 341828, Note_on_c, 0, 54, 0
2, 341834, Note_on_c, 0, 62, 0
2, 341841, Note_on_c, 0, 88, 0
2, 341843, Note_on_c, 0, 55, 0
2, 341881, Note_on_c, 0, 76, 0
2, 341896, Note_on_c, 0, 59, 0
2, 341994, Control_c, 0, 64, 0
2, 341995, Note_on_c, 0, 54, 58
2, 342011, Note_on_c, 0, 59, 44
2, 342012, Note_on_c, 0, 62, 56
2, 342013, Note_on_c, 0, 86, 72
2, 342024, Note_on_c, 0, 74, 64
2, 342128, Control_c, 0, 64, 127
2, 342237, Note_on_c, 0, 86, 0
2, 342297, Note_on_c, 0, 62, 0
2, 342313, Note_on_c, 0, 54, 0
2, 342340, Note_on_c, 0, 74, 0
2, 342383, Note_on_c, 0, 59, 0
2, 342494, Control_c, 0, 64, 0
2, 342528, Note_on_c, 0, 53, 59
2, 342540, Note_on_c, 0, 59, 48
2, 342543, Note_on_c, 0, 85, 79
2, 342549, Note_on_c, 0, 73, 67
2, 342553, Note_on_c, 0, 64, 58
2, 342753, Control_c, 0, 64, 127
2, 342950, Note_on_c, 0, 53, 0
2, 342966, Note_on_c, 0, 64, 0
2, 343014, Note_on_c, 0, 73, 0
2, 343018, Note_on_c, 0, 85, 0
2, 343036, Note_on_c, 0, 59, 0
2, 343094, Note_on_c, 0, 59, 27
2, 343110, Note_on_c, 0, 53, 54
2, 343111, Note_on_c, 0, 64, 46
2, 343115, Note_on_c, 0, 86, 68
2, 343123, Note_on_c, 0, 74, 64
2, 343148, Control_c, 0, 64, 0
2, 343215, Control_c, 0, 64, 127
2, 343322, Note_on_c, 0, 74, 0
2, 343364, Note_on_c, 0, 86, 0
2, 343424, Note_on_c, 0, 53, 0
2, 343636, Note_on_c, 0, 64, 0
2, 343638, Note_on_c, 0, 53, 32
2, 343675, Note_on_c, 0, 88, 71
2, 343679, Note_on_c, 0, 76, 58
2, 343705, Note_on_c, 0, 59, 0
2, 343706, Note_on_c, 0, 88, 0
2, 343725, Control_c, 0, 64, 0
2, 343729, Note_on_c, 0, 53, 0
2, 343743, Note_on_c, 0, 76, 0
2, 344094, Note_on_c, 0, 74, 71
2, 344102, Note_on_c, 0, 64, 65
2, 344114, Note_on_c, 0, 58, 48
2, 344117, Note_on_c, 0, 69, 68
2, 344119, Note_on_c, 0, 52, 60
2, 344419, Control_c, 0, 64, 127
2, 344727, Note_on_c, 0, 52, 0
2, 344750, Note_on_c, 0, 74, 0
2, 344756, Note_on_c, 0, 58, 0
2, 344760, Note_on_c, 0, 64, 0
2, 344831, Note_on_c, 0, 69, 0
2, 344851, Control_c, 0, 64, 0
2, 344876, Note_on_c, 0, 58, 48
2, 344877, Note_on_c, 0, 73, 62
2, 344878, Note_on_c, 0, 67, 100
2, 344905, Note_on_c, 0, 52, 37
2, 344960, Note_on_c, 0, 52, 0
2, 345009, Note_on_c, 0, 58, 0
2, 345223, Note_on_c, 0, 73, 0
2, 345246, Control_c, 0, 64, 127
2, 345262, Note_on_c, 0, 67, 0
2, 345545, Control_c, 0, 64, 0
2, 345624, Note_on_c, 0, 54, 42
2, 345633, Note_on_c, 0, 73, 61
2, 345638, Note_on_c, 0, 64, 50
2, 345640, Note_on_c, 0, 47, 44
2, 345660, Control_c, 0, 64, 127
2, 346446, Note_on_c, 0, 64, 0
2, 346681, Note_on_c, 0, 73, 0
2, 346726, Note_on_c, 0, 71, 43
2, 346738, Control_c, 0, 64, 0
2, 346743, Note_on_c, 0, 63, 59
2, 346766, Note_on_c, 0, 59, 48
2, 347094, Control_c, 0, 64, 127
2, 347517, Note_on_c, 0, 63, 0
2, 347685, Note_on_c, 0, 71, 0
2, 348123, Note_on_c, 0, 59, 0
2, 348250, Note_on_c, 0, 54, 0
2, 348341, Note_on_c, 0, 47, 0
2, 348682, Control_c, 0, 64, 0
2, 348694, Note_on_c, 0, 74, 59
2, 348702, Note_on_c, 0, 50, 47
2, 348737, Note_on_c, 0, 74, 0
2, 348764, Note_on_c, 0, 50, 0
2, 349078, Note_on_c, 0, 54, 48
2, 349085, Note_on_c, 0, 78, 56
2, 349189, Note_on_c, 0, 54, 0
2, 349221, Note_on_c, 0, 78, 0
2, 349281, Note_on_c, 0, 74, 33
2, 349293, Note_on_c, 0, 50, 34
2, 349340, Note_on_c, 0, 74, 0
2, 349371, Note_on_c, 0, 50, 0
2, 349447, Note_on_c, 0, 76, 55
2, 349456, Note_on_c, 0, 52, 45
2, 349591, Note_on_c, 0, 76, 0
2, 349612, Note_on_c, 0, 52, 0
2, 349654, Note_on_c, 0, 74, 39
2, 349654, Note_on_c, 0, 50, 37
2, 349701, Note_on_c, 0, 50, 0
2, 349782, Note_on_c, 0, 74, 0
2, 349797, Note_on_c, 0, 47, 32
2, 349829, Note_on_c, 0, 71, 34
2, 349875, Note_on_c, 0, 71, 0
2, 349907, Note_on_c, 0, 47, 0
2, 350036, Note_on_c, 0, 74, 62
2, 350045, Note_on_c, 0, 50, 58
2, 350147, Note_on_c, 0, 74, 0
2, 350180, Note_on_c, 0, 50, 0
2, 350398, Note_on_c, 0, 49, 37
2, 350414, Note_on_c, 0, 73, 62
2, 350549, Note_on_c, 0, 73, 0
2, 350571, Note_on_c, 0, 49, 0
2, 350804, Note_on_c, 0, 73, 74
2, 350806, Note_on_c, 0, 49, 47
2, 350924, Note_on_c, 0, 49, 0
2, 350934, Note_on_c, 0, 73, 0
2, 351170, Note_on_c, 0, 71, 69
2, 351217, Note_on_c, 0, 47, 28
2, 351285, Note_on_c, 0, 71, 0
2, 351308, Note_on_c, 0, 47, 0
2, 351362, Note_on_c, 0, 67, 34
2, 351404, Note_on_c, 0, 67, 0
2, 351764, Note_on_c, 0, 66, 67
2, 351766, Note_on_c, 0, 64, 80
2, 351768, Note_on_c, 0, 69, 77
2, 351782, Note_on_c, 0, 40, 44
2, 351993, Control_c, 0, 64, 127
2, 352130, Note_on_c, 0, 47, 38
2, 352153, Note_on_c, 0, 64, 0
2, 352158, Note_on_c, 0, 40, 0
2, 352194, Note_on_c, 0, 66, 0
2, 352194, Note_on_c, 0, 69, 0
2, 352292, Control_c, 0, 64, 0
2, 352346, Note_on_c, 0, 54, 62
2, 352352, Note_on_c, 0, 66, 50
2, 352356, Note_on_c, 0, 59, 54
2, 352357, Note_on_c, 0, 69, 48
2, 352360, Note_on_c, 0, 64, 60
2, 352388, Note_on_c, 0, 64, 0
2, 352388, Note_on_c, 0, 59, 0
2, 352396, Note_on_c, 0, 69, 0
2, 352413, Note_on_c, 0, 54, 0
2, 352418, Note_on_c, 0, 66, 0
2, 352427, Note_on_c, 0, 47, 0
2, 352711, Note_on_c, 0, 47, 34
2, 352799, Note_on_c, 0, 47, 0
2, 352902, Note_on_c, 0, 66, 69
2, 352903, Note_on_c, 0, 47, 49
2, 352907, Note_on_c, 0, 64, 77
2, 352911, Note_on_c, 0, 69, 76
2, 352913, Note_on_c, 0, 40, 65
2, 352965, Control_c, 0, 64, 127
2, 353481, Note_on_c, 0, 40, 0
2, 353601, Note_on_c, 0, 47, 0
2, 353654, Note_on_c, 0, 66, 0
2, 353660, Note_on_c, 0, 64, 0
2, 353693, Note_on_c, 0, 69, 0
2, 354014, Control_c, 0, 64, 0
2, 354065, Note_on_c, 0, 66, 83
2, 354067, Note_on_c, 0, 61, 92
2, 354072, Note_on_c, 0, 42, 79
2, 354075, Note_on_c, 0, 59, 85
2, 354462, Note_on_c, 0, 49, 49
2, 354522, Note_on_c, 0, 59, 0
2, 354570, Note_on_c, 0, 61, 0
2, 354583, Note_on_c, 0, 66, 0
2, 354601, Note_on_c, 0, 42, 0
2, 354678, Note_on_c, 0, 54, 61
2, 354683, Note_on_c, 0, 66, 50
2, 354687, Note_on_c, 0, 61, 62
2, 354691, Note_on_c, 0, 59, 60
2, 354723, Note_on_c, 0, 59, 0
2, 354739, Note_on_c, 0, 49, 0
2, 354748, Note_on_c, 0, 61, 0
2, 354755, Note_on_c, 0, 54, 0
2, 354771, Note_on_c, 0, 66, 0
2, 355027, Note_on_c, 0, 49, 34
2, 355145, Note_on_c, 0, 49, 0
2, 355212, Note_on_c, 0, 66, 52
2, 355218, Note_on_c, 0, 42, 54
2, 355221, Note_on_c, 0, 61, 53
2, 355226, Note_on_c, 0, 59, 48
2, 356400, Control_c, 0, 64, 127
2, 357356, Note_on_c, 0, 61, 0
2, 357397, Note_on_c, 0, 66, 0
2, 357427, Note_on_c, 0, 59, 0
2, 357497, Note_on_c, 0, 66, 84
2, 357502, Note_on_c, 0, 58, 99
2, 357634, Note_on_c, 0, 42, 0
2, 357844, Note_on_c, 0, 58, 0
2, 357869, Note_on_c, 0, 66, 0
2, 357873, Control_c, 0, 64, 0
2, 357883, Note_on_c, 0, 59, 72
2, 357893, Note_on_c, 0, 43, 53
2, 357896, Note_on_c, 0, 67, 65
2, 358085, Control_c, 0, 64, 127
2, 358139, Note_on_c, 0, 67, 0
2, 358268, Note_on_c, 0, 59, 0
2, 358457, Note_on_c, 0, 69, 78
2, 358471, Note_on_c, 0, 61, 73
2, 358489, Control_c, 0, 64, 0
2, 358672, Control_c, 0, 64, 127
2, 358730, Note_on_c, 0, 69, 0
2, 358963, Note_on_c, 0, 61, 0
2, 359000, Control_c, 0, 64, 0
2, 359048, Note_on_c, 0, 62, 64
2, 359052, Note_on_c, 0, 43, 0
2, 359054, Note_on_c, 0, 71, 53
2, 359055, Note_on_c, 0, 50, 40
2, 359116, Note_on_c, 0, 62, 0
2, 359129, Note_on_c, 0, 71, 0
2, 359317, Control_c, 0, 64, 127
2, 359374, Control_c, 0, 64, 0
2, 359428, Note_on_c, 0, 73, 61
2, 359433, Note_on_c, 0, 59, 57
2, 359460, Note_on_c, 0, 64, 38
2, 359663, Control_c, 0, 64, 127
2, 359835, Note_on_c, 0, 64, 0
2, 359843, Note_on_c, 0, 50, 0
2, 359915, Note_on_c, 0, 73, 0
2, 360013, Note_on_c, 0, 59, 0
2, 360031, Note_on_c, 0, 74, 71
2, 360045, Note_on_c, 0, 66, 75
2, 360046, Note_on_c, 0, 50, 60
2, 360049, Control_c, 0, 64, 0
2, 360212, Control_c, 0, 64, 127
2, 360309, Note_on_c, 0, 74, 0
2, 360419, Note_on_c, 0, 66, 0
2, 360597, Control_c, 0, 64, 0
2, 360605, Note_on_c, 0, 43, 36
2, 360608, Note_on_c, 0, 76, 61
2, 360622, Note_on_c, 0, 67, 40
2, 360652, Note_on_c, 0, 76, 0
2, 360658, Note_on_c, 0, 50, 0
2, 360659, Note_on_c, 0, 67, 0
2, 360708, Note_on_c, 0, 43, 0
2, 360965, Note_on_c, 0, 74, 64
2, 360979, Note_on_c, 0, 66, 52
2, 360989, Note_on_c, 0, 42, 46
2, 361146, Control_c, 0, 64, 127
2, 361319, Note_on_c, 0, 74, 0
2, 361413, Note_on_c, 0, 66, 0
2, 361541, Note_on_c, 0, 73, 67
2, 361552, Note_on_c, 0, 64, 57
2, 361579, Control_c, 0, 64, 0
2, 362128, Note_on_c, 0, 42, 0
2, 362142, Note_on_c, 0, 49, 53
2, 362515, Note_on_c, 0, 58, 54
2, 362900, Note_on_c, 0, 49, 0
2, 362926, Control_c, 0, 64, 127
2, 363070, Note_on_c, 0, 58, 0
2, 363109, Control_c, 0, 64, 0
2, 363118, Note_on_c, 0, 49, 52
2, 363148, Note_on_c, 0, 73, 0
2, 363214, Note_on_c, 0, 64, 0
2, 363224, Control_c, 0, 64, 127
2, 363456, Note_on_c, 0, 42, 55
2, 363504, Note_on_c, 0, 42, 0
2, 363520, Note_on_c, 0, 49, 0
2, 363639, Control_c, 0, 64, 0
2, 363650, Note_on_c, 0, 42, 59
2, 363658, Note_on_c, 0, 66, 59
2, 363661, Note_on_c, 0, 58, 57
2, 363661, Note_on_c, 0, 61, 61
2, 363861, Note_on_c, 0, 61, 0
2, 363869, Control_c, 0, 64, 127
2, 363886, Note_on_c, 0, 66, 0
2, 363913, Note_on_c, 0, 58, 0
2, 363922, Note_on_c, 0, 42, 0
2, 363984, Control_c, 0, 64, 0
2, 364039, Note_on_c, 0, 67, 69
2, 364040, Note_on_c, 0, 40, 62
2, 364047, Note_on_c, 0, 62, 73
2, 364048, Note_on_c, 0, 59, 72
2, 364249, Note_on_c, 0, 67, 0
2, 364254, Control_c, 0, 64, 127
2, 364311, Note_on_c, 0, 62, 0
2, 364401, Note_on_c, 0, 59, 0
2, 364608, Note_on_c, 0, 40, 0
2, 364639, Control_c, 0, 64, 0
2, 364640, Note_on_c, 0, 69, 87
2, 364646, Note_on_c, 0, 61, 94
2, 364764, Control_c, 0, 64, 127
2, 364886, Note_on_c, 0, 69, 0
2, 365032, Note_on_c, 0, 61, 0
2, 365149, Control_c, 0, 64, 0
2, 365177, Note_on_c, 0, 71, 66
2, 365189, Note_on_c, 0, 62, 73
2, 365281, Note_on_c, 0, 62, 0
2, 365294, Note_on_c, 0, 71, 0
2, 365577, Note_on_c, 0, 73, 59
2, 365578, Note_on_c, 0, 45, 38
2, 365582, Note_on_c, 0, 64, 55
2, 365587, Note_on_c, 0, 55, 35
2, 365612, Control_c, 0, 64, 127
2, 365890, Note_on_c, 0, 64, 0
2, 365897, Note_on_c, 0, 55, 0
2, 365947, Note_on_c, 0, 73, 0
2, 366158, Note_on_c, 0, 74, 68
2, 366169, Control_c, 0, 64, 0
2, 366171, Note_on_c, 0, 66, 82
2, 366199, Note_on_c, 0, 55, 43
2, 366237, Note_on_c, 0, 55, 0
2, 366258, Note_on_c, 0, 45, 0
2, 366265, Control_c, 0, 64, 127
2, 366354, Note_on_c, 0, 74, 0
2, 366480, Note_on_c, 0, 66, 0
2, 366743, Note_on_c, 0, 76, 65
2, 366750, Note_on_c, 0, 67, 61
2, 366829, Note_on_c, 0, 67, 0
2, 366885, Note_on_c, 0, 76, 0
2, 367064, Control_c, 0, 64, 0
2, 367126, Note_on_c, 0, 61, 32
2, 367128, Note_on_c, 0, 64, 39
2, 367140, Note_on_c, 0, 74, 46
2, 367141, Note_on_c, 0, 69, 57
2, 367143, Note_on_c, 0, 59, 44
2, 367146, Note_on_c, 0, 54, 42
2, 367395, Note_on_c, 0, 74, 0
2, 367437, Note_on_c, 0, 69, 0
2, 367460, Control_c, 0, 64, 127
2, 367480, Note_on_c, 0, 69, 15
2, 367496, Note_on_c, 0, 76, 43
2, 367634, Note_on_c, 0, 76, 0
2, 367642, Control_c, 0, 64, 0
2, 367699, Note_on_c, 0, 78, 77
2, 367777, Control_c, 0, 64, 127
2, 368027, Note_on_c, 0, 64, 0
2, 368038, Note_on_c, 0, 54, 0
2, 368044, Note_on_c, 0, 59, 0
2, 368052, Note_on_c, 0, 61, 0
2, 368271, Note_on_c, 0, 62, 60
2, 368277, Control_c, 0, 64, 0
2, 368281, Note_on_c, 0, 59, 43
2, 368290, Note_on_c, 0, 57, 46
2, 368298, Note_on_c, 0, 54, 52
2, 368596, Control_c, 0, 64, 127
2, 368672, Note_on_c, 0, 69, 0
2, 368796, Note_on_c, 0, 78, 0
2, 369088, Note_on_c, 0, 62, 0
2, 369122, Note_on_c, 0, 54, 0
2, 369141, Note_on_c, 0, 59, 0
2, 369168, Note_on_c, 0, 57, 0
2, 369249, Control_c, 0, 64, 0
2, 369251, Note_on_c, 0, 88, 85
2, 369253, Note_on_c, 0, 57, 53
2, 369254, Note_on_c, 0, 59, 53
2, 369255, Note_on_c, 0, 62, 68
2, 369266, Note_on_c, 0, 54, 35
2, 369268, Note_on_c, 0, 76, 46
2, 369285, Note_on_c, 0, 62, 0
2, 369290, Note_on_c, 0, 59, 0
2, 369302, Note_on_c, 0, 57, 0
2, 369305, Note_on_c, 0, 54, 0
2, 369307, Note_on_c, 0, 76, 0
2, 369324, Note_on_c, 0, 88, 0
2, 369654, Note_on_c, 0, 74, 79
2, 369656, Note_on_c, 0, 86, 83
2, 369680, Note_on_c, 0, 62, 60
2, 369681, Note_on_c, 0, 57, 55
2, 369682, Note_on_c, 0, 59, 53
2, 369692, Note_on_c, 0, 54, 38
2, 369808, Control_c, 0, 64, 127
2, 370001, Note_on_c, 0, 86, 0
2, 370051, Note_on_c, 0, 62, 0
2, 370077, Note_on_c, 0, 57, 0
2, 370077, Note_on_c, 0, 74, 0
2, 370099, Note_on_c, 0, 59, 0
2, 370100, Note_on_c, 0, 54, 0
2, 370203, Note_on_c, 0, 59, 47
2, 370212, Control_c, 0, 64, 0
2, 370222, Note_on_c, 0, 70, 61
2, 370222, Note_on_c, 0, 49, 100
2, 370222, Note_on_c, 0, 53, 51
2, 370222, Note_on_c, 0, 65, 53
2, 370225, Note_on_c, 0, 85, 71
2, 370461, Control_c, 0, 64, 127
2, 370606, Note_on_c, 0, 65, 0
2, 370606, Note_on_c, 0, 49, 0
2, 370606, Note_on_c, 0, 70, 0
2, 370610, Note_on_c, 0, 53, 0
2, 370690, Note_on_c, 0, 85, 0
2, 370696, Note_on_c, 0, 59, 0
2, 370781, Note_on_c, 0, 59, 36
2, 370787, Note_on_c, 0, 53, 53
2, 370790, Control_c, 0, 64, 0
2, 370791, Note_on_c, 0, 62, 54
2, 370794, Note_on_c, 0, 86, 73
2, 370794, Note_on_c, 0, 74, 71
2, 370926, Control_c, 0, 64, 127
2, 371069, Note_on_c, 0, 74, 0
2, 371103, Note_on_c, 0, 59, 0
2, 371107, Note_on_c, 0, 86, 0
2, 371115, Note_on_c, 0, 53, 0
2, 371192, Note_on_c, 0, 62, 0
2, 371218, Note_on_c, 0, 59, 29
2, 371266, Note_on_c, 0, 53, 19
2, 371278, Note_on_c, 0, 59, 0
2, 371308, Note_on_c, 0, 53, 0
2, 371349, Control_c, 0, 64, 0
2, 371351, Note_on_c, 0, 76, 62
2, 371354, Note_on_c, 0, 88, 61
2, 371393, Note_on_c, 0, 88, 0
2, 371443, Note_on_c, 0, 76, 0
2, 372116, Note_on_c, 0, 74, 65
2, 372138, Note_on_c, 0, 42, 48
2, 372142, Note_on_c, 0, 64, 55
2, 372145, Note_on_c, 0, 69, 57
2, 372370, Control_c, 0, 64, 127
2, 372518, Note_on_c, 0, 42, 0
2, 372560, Note_on_c, 0, 74, 0
2, 372668, Note_on_c, 0, 69, 0
2, 372717, Note_on_c, 0, 42, 50
2, 372718, Note_on_c, 0, 64, 0
2, 372718, Note_on_c, 0, 73, 58
2, 372745, Note_on_c, 0, 64, 61
2, 372765, Control_c, 0, 64, 0
2, 372807, Note_on_c, 0, 42, 0
2, 372938, Control_c, 0, 64, 127
2, 373124, Note_on_c, 0, 64, 0
2, 373137, Note_on_c, 0, 73, 0
2, 373236, Control_c, 0, 64, 0
2, 373244, Note_on_c, 0, 73, 58
2, 373251, Note_on_c, 0, 47, 53
2, 373294, Note_on_c, 0, 64, 62
2, 373467, Control_c, 0, 64, 127
2, 373856, Note_on_c, 0, 64, 0
2, 374266, Control_c, 0, 64, 0
2, 374311, Note_on_c, 0, 73, 0
2, 374365, Note_on_c, 0, 71, 51
2, 374366, Note_on_c, 0, 63, 57
2, 374387, Note_on_c, 0, 59, 46
2, 375537, Note_on_c, 0, 63, 0
2, 375597, Note_on_c, 0, 71, 0
2, 376050, Note_on_c, 0, 47, 0
2, 376066, Note_on_c, 0, 59, 0
2, 376332, Note_on_c, 0, 83, 57
2, 376346, Note_on_c, 0, 47, 36
2, 376374, Note_on_c, 0, 83, 0
2, 376396, Note_on_c, 0, 47, 0
2, 376885, Note_on_c, 0, 88, 57
2, 376902, Note_on_c, 0, 52, 38
2, 376929, Note_on_c, 0, 88, 0
2, 376949, Note_on_c, 0, 52, 0
2, 377709, Note_on_c, 0, 91, 70
2, 377718, Note_on_c, 0, 55, 52
2, 377821, Note_on_c, 0, 91, 0
2, 377822, Note_on_c, 0, 55, 0
2, 377877, Note_on_c, 0, 54, 45
2, 377894, Note_on_c, 0, 90, 55
2, 378215, Note_on_c, 0, 90, 0
2, 378240, Note_on_c, 0, 86, 46
2, 378281, Note_on_c, 0, 50, 34
2, 378318, Note_on_c, 0, 54, 0
2, 378407, Note_on_c, 0, 86, 0
2, 378453, Note_on_c, 0, 50, 0
2, 378495, Note_on_c, 0, 47, 26
2, 378497, Note_on_c, 0, 83, 24
2, 378556, Note_on_c, 0, 83, 0
2, 378577, Note_on_c, 0, 47, 0
2, 378644, Note_on_c, 0, 88, 64
2, 378657, Note_on_c, 0, 50, 45
2, 378703, Note_on_c, 0, 50, 0
2, 378739, Note_on_c, 0, 88, 0
2, 379234, Note_on_c, 0, 81, 50
2, 379244, Note_on_c, 0, 45, 55
2, 379303, Note_on_c, 0, 81, 0
2, 379349, Note_on_c, 0, 45, 0
2, 380009, Note_on_c, 0, 86, 68
2, 380010, Note_on_c, 0, 50, 64
2, 380120, Note_on_c, 0, 50, 0
2, 380149, Note_on_c, 0, 86, 0
2, 380182, Note_on_c, 0, 85, 59
2, 380192, Note_on_c, 0, 49, 43
2, 380270, Note_on_c, 0, 85, 0
2, 380332, Note_on_c, 0, 49, 0
2, 380913, Note_on_c, 0, 45, 38
2, 380924, Note_on_c, 0, 81, 53
2, 381034, Note_on_c, 0, 81, 0
2, 381053, Note_on_c, 0, 45, 0
2, 381154, Note_on_c, 0, 47, 36
2, 381157, Note_on_c, 0, 83, 45
2, 381240, Note_on_c, 0, 83, 0
2, 381264, Note_on_c, 0, 47, 0
2, 381502, Note_on_c, 0, 79, 55
2, 381535, Note_on_c, 0, 43, 38
2, 381577, Note_on_c, 0, 43, 0
2, 381607, Note_on_c, 0, 79, 0
2, 381875, Note_on_c, 0, 43, 31
2, 381885, Note_on_c, 0, 79, 37
2, 381957, Note_on_c, 0, 79, 0
2, 382010, Note_on_c, 0, 43, 0
2, 382056, Note_on_c, 0, 86, 69
2, 382060, Note_on_c, 0, 50, 64
2, 382115, Note_on_c, 0, 50, 0
2, 382121, Note_on_c, 0, 86, 0
2, 382455, Note_on_c, 0, 88, 85
2, 382457, Note_on_c, 0, 52, 72
2, 382552, Note_on_c, 0, 88, 0
2, 382567, Note_on_c, 0, 52, 0
2, 383075, Note_on_c, 0, 52, 52
2, 383085, Note_on_c, 0, 88, 47
2, 383182, Note_on_c, 0, 88, 0
2, 383188, Note_on_c, 0, 52, 0
2, 383246, Note_on_c, 0, 91, 83
2, 383252, Note_on_c, 0, 55, 74
2, 383551, Note_on_c, 0, 91, 0
2, 383596, Note_on_c, 0, 55, 0
2, 383611, Note_on_c, 0, 54, 44
2, 383621, Note_on_c, 0, 90, 59
2, 383752, Note_on_c, 0, 90, 0
2, 383796, Note_on_c, 0, 86, 48
2, 383830, Note_on_c, 0, 50, 37
2, 383893, Note_on_c, 0, 54, 0
2, 383923, Note_on_c, 0, 86, 0
2, 383927, Note_on_c, 0, 50, 0
2, 383970, Note_on_c, 0, 83, 47
2, 383983, Note_on_c, 0, 47, 45
2, 384169, Note_on_c, 0, 83, 0
2, 384228, Note_on_c, 0, 47, 0
2, 384328, Note_on_c, 0, 86, 50
2, 384371, Note_on_c, 0, 50, 42
2, 384469, Note_on_c, 0, 86, 0
2, 384586, Note_on_c, 0, 50, 0
2, 384745, Note_on_c, 0, 52, 63
2, 384748, Note_on_c, 0, 88, 74
2, 385095, Note_on_c, 0, 49, 45
2, 385101, Note_on_c, 0, 52, 0
2, 385115, Note_on_c, 0, 85, 50
2, 385177, Note_on_c, 0, 88, 0
2, 385272, Note_on_c, 0, 85, 0
2, 385332, Note_on_c, 0, 83, 62
2, 385340, Note_on_c, 0, 49, 0
2, 385383, Note_on_c, 0, 47, 32
2, 385384, Note_on_c, 0, 83, 0
2, 385386, Note_on_c, 0, 47, 0
2, 385725, Note_on_c, 0, 78, 44
2, 385729, Note_on_c, 0, 42, 34
2, 385813, Note_on_c, 0, 42, 0
2, 385887, Note_on_c, 0, 78, 0
2, 385916, Note_on_c, 0, 76, 55
2, 385930, Note_on_c, 0, 40, 55
2, 386470, Note_on_c, 0, 76, 0
2, 386526, Note_on_c, 0, 78, 42
2, 386529, Note_on_c, 0, 42, 42
2, 386535, Note_on_c, 0, 40, 0
2, 386628, Note_on_c, 0, 42, 0
2, 386655, Note_on_c, 0, 78, 0
2, 386880, Note_on_c, 0, 47, 44
2, 386891, Note_on_c, 0, 83, 40
2, 386951, Note_on_c, 0, 83, 0
2, 387029, Note_on_c, 0, 47, 0
2, 387096, Note_on_c, 0, 85, 76
2, 387103, Note_on_c, 0, 49, 59
2, 387621, Note_on_c, 0, 85, 0
2, 387631, Note_on_c, 0, 49, 0
2, 387638, Note_on_c, 0, 46, 34
2, 387645, Note_on_c, 0, 82, 45
2, 387677, Note_on_c, 0, 82, 0
2, 387688, Note_on_c, 0, 46, 0
2, 388038, Note_on_c, 0, 80, 55
2, 388063, Note_on_c, 0, 44, 55
2, 388154, Note_on_c, 0, 44, 0
2, 388161, Note_on_c, 0, 80, 0
2, 388237, Note_on_c, 0, 78, 53
2, 388262, Note_on_c, 0, 42, 55
2, 388426, Note_on_c, 0, 78, 0
2, 388464, Note_on_c, 0, 42, 0
2, 388840, Note_on_c, 0, 61, 56
2, 388925, Note_on_c, 0, 61, 0
2, 389006, Note_on_c, 0, 66, 59
2, 389023, Note_on_c, 0, 54, 43
2, 389102, Note_on_c, 0, 54, 0
2, 389124, Note_on_c, 0, 66, 0
2, 389370, Note_on_c, 0, 68, 71
2, 389457, Note_on_c, 0, 68, 0
2, 389732, Note_on_c, 0, 58, 64
2, 389755, Note_on_c, 0, 70, 74
2, 389800, Note_on_c, 0, 58, 0
2, 389849, Note_on_c, 0, 70, 0
2, 390095, Note_on_c, 0, 69, 49
2, 390126, Note_on_c, 0, 57, 46
2, 390150, Note_on_c, 0, 68, 36
2, 390160, Note_on_c, 0, 57, 0
2, 390182, Note_on_c, 0, 69, 0
2, 390266, Note_on_c, 0, 67, 36
2, 390309, Control_c, 0, 64, 127
2, 390342, Note_on_c, 0, 68, 0
2, 390428, Note_on_c, 0, 66, 30
2, 390458, Note_on_c, 0, 67, 0
2, 390556, Note_on_c, 0, 66, 0
2, 390618, Control_c, 0, 64, 0
2, 390643, Note_on_c, 0, 78, 75
2, 390667, Note_on_c, 0, 66, 46
2, 390699, Note_on_c, 0, 66, 0
2, 390770, Note_on_c, 0, 78, 0
2, 391523, Control_c, 0, 64, 127
2, 391832, Control_c, 0, 64, 0
2, 391891, Note_on_c, 0, 76, 71
2, 391893, Note_on_c, 0, 68, 83
2, 391901, Note_on_c, 0, 71, 70
2, 391906, Note_on_c, 0, 64, 84
2, 391914, Note_on_c, 0, 55, 79
2, 391917, Note_on_c, 0, 50, 71
2, 391919, Note_on_c, 0, 43, 67
2, 392526, Control_c, 0, 64, 127
2, 393784, Control_c, 0, 64, 0
2, 394356, Note_on_c, 0, 43, 0
2, 394469, Note_on_c, 0, 50, 0
2, 394638, Note_on_c, 0, 71, 0
2, 394661, Note_on_c, 0, 76, 0
2, 394762, Note_on_c, 0, 64, 0
2, 394861, Note_on_c, 0, 68, 0
2, 394863, Note_on_c, 0, 55, 0
2, 395627, Note_on_c, 0, 74, 74
2, 395631, Note_on_c, 0, 66, 90
2, 395636, Note_on_c, 0, 62, 99
2, 395641, Note_on_c, 0, 69, 89
2, 395644, Note_on_c, 0, 46, 85
2, 395657, Control_c, 0, 64, 0
2, 396192, Note_on_c, 0, 53, 71
2, 396208, Control_c, 0, 64, 127
2, 396624, Note_on_c, 0, 62, 0
2, 396683, Note_on_c, 0, 66, 0
2, 396684, Note_on_c, 0, 69, 0
2, 396870, Note_on_c, 0, 57, 74
2, 396894, Note_on_c, 0, 62, 66
2, 396919, Note_on_c, 0, 66, 43
2, 396958, Note_on_c, 0, 53, 0
2, 397766, Control_c, 0, 120, 0
2, 399453, Note_on_c, 0, 46, 0
2, 399601, Note_on_c, 0, 57, 0
2, 399737, Note_on_c, 0, 62, 0
2, 399886, Note_on_c, 0, 74, 0
2, 400007, Note_on_c, 0, 66, 0
2, 400853, Note_on_c, 0, 70, 54
2, 400854, Note_on_c, 0, 66, 97
2, 400856, Note_on_c, 0, 64, 101
2, 400859, Note_on_c, 0, 71, 95
2, 400876, Note_on_c, 0, 47, 88
2, 400880, Note_on_c, 0, 54, 87
2, 400882, Control_c, 0, 64, 0
2, 401230, Control_c, 0, 64, 127
2, 401509, Note_on_c, 0, 70, 0
2, 402416, Note_on_c, 0, 64, 0
2, 402472, Note_on_c, 0, 59, 68
2, 402704, Note_on_c, 0, 66, 0
2, 402753, Note_on_c, 0, 64, 36
2, 402955, Note_on_c, 0, 64, 0
2, 402966, Note_on_c, 0, 66, 36
2, 403109, Note_on_c, 0, 66, 0
2, 403112, Note_on_c, 0, 64, 41
2, 403268, Note_on_c, 0, 66, 46
2, 403283, Note_on_c, 0, 47, 0
2, 403309, Note_on_c, 0, 64, 0
2, 403414, Note_on_c, 0, 59, 0
2, 403440, Note_on_c, 0, 47, 35
2, 403442, Note_on_c, 0, 64, 36
2, 403443, Note_on_c, 0, 71, 0
2, 403445, Note_on_c, 0, 66, 0
2, 403623, Note_on_c, 0, 64, 0
2, 403639, Note_on_c, 0, 66, 39
2, 403650, Note_on_c, 0, 71, 36
2, 403775, Note_on_c, 0, 59, 22
2, 403785, Note_on_c, 0, 64, 36
2, 403792, Note_on_c, 0, 66, 0
2, 403815, Note_on_c, 0, 71, 0
2, 403949, Note_on_c, 0, 66, 35
2, 403964, Note_on_c, 0, 71, 11
2, 403967, Note_on_c, 0, 64, 0
2, 404030, Note_on_c, 0, 59, 0
2, 404089, Note_on_c, 0, 66, 0
2, 404125, Note_on_c, 0, 71, 0
2, 404126, Note_on_c, 0, 64, 39
2, 404259, Note_on_c, 0, 66, 30
2, 404284, Note_on_c, 0, 59, 17
2, 404310, Note_on_c, 0, 71, 24
2, 404312, Note_on_c, 0, 64, 0
2, 404423, Note_on_c, 0, 66, 0
2, 404465, Note_on_c, 0, 64, 36
2, 404466, Note_on_c, 0, 71, 0
2, 404482, Note_on_c, 0, 59, 0
2, 404607, Note_on_c, 0, 66, 29
2, 404627, Note_on_c, 0, 64, 0
2, 404642, Note_on_c, 0, 71, 19
2, 404721, Note_on_c, 0, 59, 17
2, 404748, Note_on_c, 0, 66, 0
2, 404788, Note_on_c, 0, 71, 0
2, 404802, Note_on_c, 0, 64, 36
2, 404862, Note_on_c, 0, 47, 0
2, 404947, Note_on_c, 0, 66, 29
2, 404960, Note_on_c, 0, 59, 0
2, 404967, Note_on_c, 0, 64, 0
2, 404995, Note_on_c, 0, 71, 24
2, 405034, Note_on_c, 0, 47, 25
2, 405119, Note_on_c, 0, 66, 0
2, 405139, Note_on_c, 0, 71, 0
2, 405144, Note_on_c, 0, 64, 39
2, 405165, Note_on_c, 0, 54, 0
2, 405252, Note_on_c, 0, 47, 0
2, 405303, Note_on_c, 0, 66, 31
2, 405308, Note_on_c, 0, 71, 27
2, 405331, Note_on_c, 0, 64, 0
2, 405438, Note_on_c, 0, 66, 0
2, 405457, Note_on_c, 0, 64, 24
2, 405482, Note_on_c, 0, 71, 0
2, 405628, Note_on_c, 0, 66, 25
2, 405653, Note_on_c, 0, 71, 17
2, 405689, Note_on_c, 0, 64, 0
2, 405797, Note_on_c, 0, 66, 0
2, 405810, Note_on_c, 0, 71, 0
2, 405818, Note_on_c, 0, 64, 36
2, 405973, Note_on_c, 0, 66, 19
2, 405984, Note_on_c, 0, 64, 0
2, 405989, Note_on_c, 0, 71, 20
2, 406104, Note_on_c, 0, 66, 0
2, 406123, Note_on_c, 0, 64, 27
2, 406133, Note_on_c, 0, 71, 0
2, 406279, Note_on_c, 0, 66, 20
2, 406294, Note_on_c, 0, 64, 0
2, 406298, Note_on_c, 0, 71, 19
2, 406409, Note_on_c, 0, 71, 0
2, 406417, Note_on_c, 0, 64, 28
2, 406418, Note_on_c, 0, 66, 0
2, 406536, Note_on_c, 0, 66, 12
2, 406575, Note_on_c, 0, 71, 27
2, 406578, Note_on_c, 0, 23, 64
2, 407975, Note_on_c, 0, 64, 0
2, 407996, Note_on_c, 0, 66, 0
2, 408060, Note_on_c, 0, 71, 0
2, 408223, Note_on_c, 0, 23, 0
2, 409212, Control_c, 0, 64, 0
2, 409212, End_track
3, 0, Start_track
3, 0, MIDI_port, 0
3, 0, Title_t, ""
3, 0, Program_c, 2, 32
3, 0, Control_c, 2, 7, 42
3, 0, Control_c, 2, 0, 0
3, 0, Control_c, 2, 32, 0
3, 0, Program_c, 2, 35
3, 1512, Note_on_c, 2, 38, 80
3, 1684, Note_on_c, 2, 38, 0
3, 1868, Note_on_c, 2, 42, 80
3, 2028, Note_on_c, 2, 42, 0
3, 2088, Note_on_c, 2, 38, 81
3, 2188, Note_on_c, 2, 38, 0
3, 2252, Note_on_c, 2, 40, 81
3, 2416, Note_on_c, 2, 40, 0
3, 2452, Note_on_c, 2, 38, 81
3, 2552, Note_on_c, 2, 38, 0
3, 2628, Note_on_c, 2, 35, 82
3, 2752, Note_on_c, 2, 35, 0
3, 2836, Note_on_c, 2, 38, 85
3, 3228, Note_on_c, 2, 38, 0
3, 3236, Note_on_c, 2, 37, 87
3, 3340, Note_on_c, 2, 37, 0
3, 3420, Note_on_c, 2, 33, 88
3, 3536, Note_on_c, 2, 33, 0
3, 3628, Note_on_c, 2, 37, 91
3, 3984, Note_on_c, 2, 37, 0
3, 3984, Note_on_c, 2, 35, 92
3, 4132, Note_on_c, 2, 35, 0
3, 4200, Note_on_c, 2, 31, 92
3, 4264, Note_on_c, 2, 31, 0
3, 4608, Note_on_c, 2, 28, 92
3, 4960, Note_on_c, 2, 35, 92
3, 4992, Note_on_c, 2, 35, 0
3, 5112, Note_on_c, 2, 28, 0
3, 5160, Note_on_c, 2, 43, 92
3, 5228, Note_on_c, 2, 43, 0
3, 5532, Note_on_c, 2, 35, 92
3, 5636, Note_on_c, 2, 35, 0
3, 5740, Note_on_c, 2, 28, 92
3, 6480, Note_on_c, 2, 28, 0
3, 6888, Note_on_c, 2, 30, 92
3, 7268, Note_on_c, 2, 37, 92
3, 7464, Note_on_c, 2, 37, 0
3, 7472, Note_on_c, 2, 42, 92
3, 7520, Note_on_c, 2, 42, 0
3, 7524, Note_on_c, 2, 30, 0
3, 7840, Note_on_c, 2, 37, 92
3, 7956, Note_on_c, 2, 37, 0
3, 8012, Note_on_c, 2, 30, 92
3, 10404, Note_on_c, 2, 30, 0
3, 10540, Note_on_c, 2, 30, 92
3, 10660, Note_on_c, 2, 30, 0
3, 10724, Note_on_c, 2, 30, 92
3, 10732, Note_on_c, 2, 31, 92
3, 10740, Note_on_c, 2, 30, 0
3, 11304, Note_on_c, 2, 38, 92
3, 11316, Note_on_c, 2, 31, 0
3, 11880, Note_on_c, 2, 47, 94
3, 11892, Note_on_c, 2, 38, 0
3, 11924, Note_on_c, 2, 47, 0
3, 12076, Note_on_c, 2, 38, 94
3, 12116, Note_on_c, 2, 38, 0
3, 12264, Note_on_c, 2, 31, 94
3, 12864, Note_on_c, 2, 38, 95
3, 12884, Note_on_c, 2, 31, 0
3, 12908, Note_on_c, 2, 38, 0
3, 13044, Note_on_c, 2, 38, 96
3, 13412, Note_on_c, 2, 47, 96
3, 13444, Note_on_c, 2, 38, 0
3, 13452, Note_on_c, 2, 47, 0
3, 13604, Note_on_c, 2, 38, 96
3, 13640, Note_on_c, 2, 38, 0
3, 13796, Note_on_c, 2, 30, 97
3, 14320, Note_on_c, 2, 30, 0
3, 14356, Note_on_c, 2, 37, 98
3, 14988, Note_on_c, 2, 44, 100
3, 15016, Note_on_c, 2, 44, 0
3, 15040, Note_on_c, 2, 37, 0
3, 15168, Note_on_c, 2, 37, 100
3, 15248, Note_on_c, 2, 37, 0
3, 15360, Note_on_c, 2, 30, 100
3, 15924, Note_on_c, 2, 37, 101
3, 15980, Note_on_c, 2, 30, 0
3, 16052, Note_on_c, 2, 37, 0
3, 16308, Note_on_c, 2, 46, 102
3, 16420, Note_on_c, 2, 46, 0
3, 16484, Note_on_c, 2, 37, 103
3, 16576, Note_on_c, 2, 37, 0
3, 16688, Note_on_c, 2, 39, 104
3, 16788, Note_on_c, 2, 39, 0
3, 16868, Note_on_c, 2, 40, 104
3, 17444, Note_on_c, 2, 35, 105
3, 17968, Note_on_c, 2, 35, 0
3, 18220, Note_on_c, 2, 34, 108
3, 18248, Note_on_c, 2, 40, 0
3, 18276, Note_on_c, 2, 34, 0
3, 18404, Note_on_c, 2, 33, 108
3, 18980, Note_on_c, 2, 40, 110
3, 19004, Note_on_c, 2, 40, 0
3, 19048, Note_on_c, 2, 33, 0
3, 19156, Note_on_c, 2, 49, 110
3, 19772, Note_on_c, 2, 37, 112
3, 19832, Note_on_c, 2, 49, 0
3, 19864, Note_on_c, 2, 37, 0
3, 19956, Note_on_c, 2, 38, 112
3, 20484, Note_on_c, 2, 38, 0
3, 20540, Note_on_c, 2, 33, 112
3, 21232, Note_on_c, 2, 33, 0
3, 21292, Note_on_c, 2, 31, 112
3, 22032, Note_on_c, 2, 38, 109
3, 22076, Note_on_c, 2, 38, 0
3, 22128, Note_on_c, 2, 31, 0
3, 22228, Note_on_c, 2, 43, 105
3, 22260, Note_on_c, 2, 43, 0
3, 22632, Note_on_c, 2, 38, 76
3, 22996, Note_on_c, 2, 38, 0
3, 23012, Note_on_c, 2, 37, 103
3, 23968, Note_on_c, 2, 44, 103
3, 24008, Note_on_c, 2, 37, 0
3, 24048, Note_on_c, 2, 44, 0
3, 24336, Note_on_c, 2, 37, 103
3, 24396, Note_on_c, 2, 37, 0
3, 24516, Note_on_c, 2, 42, 103
3, 25132, Note_on_c, 2, 37, 103
3, 25160, Note_on_c, 2, 37, 0
3, 25308, Note_on_c, 2, 37, 103
3, 25568, Note_on_c, 2, 42, 0
3, 25648, Note_on_c, 2, 37, 0
3, 25696, Note_on_c, 2, 30, 103
3, 25872, Note_on_c, 2, 30, 0
3, 26084, Note_on_c, 2, 35, 103
3, 26960, Note_on_c, 2, 35, 0
3, 27188, Note_on_c, 2, 35, 103
3, 28828, Note_on_c, 2, 35, 0
3, 29132, Note_on_c, 2, 35, 103
3, 29216, Note_on_c, 2, 35, 0
3, 29740, Note_on_c, 2, 40, 103
3, 29808, Note_on_c, 2, 40, 0
3, 30484, Note_on_c, 2, 43, 103
3, 30644, Note_on_c, 2, 43, 0
3, 30668, Note_on_c, 2, 42, 103
3, 31060, Note_on_c, 2, 38, 105
3, 31076, Note_on_c, 2, 42, 0
3, 31248, Note_on_c, 2, 38, 0
3, 31268, Note_on_c, 2, 35, 107
3, 31428, Note_on_c, 2, 35, 0
3, 31464, Note_on_c, 2, 40, 107
3, 31540, Note_on_c, 2, 40, 0
3, 32052, Note_on_c, 2, 33, 109
3, 32144, Note_on_c, 2, 33, 0
3, 32804, Note_on_c, 2, 38, 111
3, 32948, Note_on_c, 2, 38, 0
3, 32992, Note_on_c, 2, 37, 111
3, 33184, Note_on_c, 2, 37, 0
3, 33780, Note_on_c, 2, 33, 113
3, 33952, Note_on_c, 2, 33, 0
3, 33964, Note_on_c, 2, 35, 114
3, 34032, Note_on_c, 2, 35, 0
3, 34320, Note_on_c, 2, 31, 115
3, 34448, Note_on_c, 2, 31, 0
3, 34704, Note_on_c, 2, 31, 115
3, 34876, Note_on_c, 2, 31, 0
3, 34900, Note_on_c, 2, 38, 116
3, 34972, Note_on_c, 2, 38, 0
3, 35276, Note_on_c, 2, 40, 117
3, 35436, Note_on_c, 2, 40, 0
3, 35880, Note_on_c, 2, 40, 119
3, 36016, Note_on_c, 2, 40, 0
3, 36068, Note_on_c, 2, 43, 119
3, 36388, Note_on_c, 2, 43, 0
3, 36428, Note_on_c, 2, 42, 119
3, 36532, Note_on_c, 2, 42, 0
3, 36624, Note_on_c, 2, 38, 120
3, 36772, Note_on_c, 2, 38, 0
3, 36836, Note_on_c, 2, 35, 120
3, 37180, Note_on_c, 2, 35, 0
3, 37212, Note_on_c, 2, 38, 120
3, 37392, Note_on_c, 2, 38, 0
3, 37396, Note_on_c, 2, 35, 120
3, 37572, Note_on_c, 2, 35, 0
3, 37584, Note_on_c, 2, 40, 121
3, 37924, Note_on_c, 2, 40, 0
3, 37972, Note_on_c, 2, 37, 123
3, 38112, Note_on_c, 2, 37, 0
3, 38180, Note_on_c, 2, 35, 123
3, 38240, Note_on_c, 2, 35, 0
3, 38560, Note_on_c, 2, 30, 123
3, 38704, Note_on_c, 2, 30, 0
3, 38756, Note_on_c, 2, 28, 124
3, 39340, Note_on_c, 2, 28, 0
3, 39348, Note_on_c, 2, 30, 124
3, 39408, Note_on_c, 2, 30, 0
3, 39716, Note_on_c, 2, 35, 125
3, 39808, Note_on_c, 2, 35, 0
3, 39908, Note_on_c, 2, 37, 125
3, 40484, Note_on_c, 2, 34, 125
3, 40532, Note_on_c, 2, 37, 0
3, 40860, Note_on_c, 2, 32, 125
3, 40880, Note_on_c, 2, 34, 0
3, 40996, Note_on_c, 2, 32, 0
3, 41052, Note_on_c, 2, 30, 126
3, 41632, Note_on_c, 2, 37, 126
3, 41664, Note_on_c, 2, 37, 0
3, 41672, Note_on_c, 2, 30, 0
3, 41804, Note_on_c, 2, 42, 126
3, 41888, Note_on_c, 2, 42, 0
3, 42208, Note_on_c, 2, 44, 126
3, 42328, Note_on_c, 2, 44, 0
3, 42404, Note_on_c, 2, 37, 126
3, 42452, Note_on_c, 2, 37, 0
3, 42596, Note_on_c, 2, 46, 126
3, 42688, Note_on_c, 2, 46, 0
3, 42980, Note_on_c, 2, 45, 126
3, 43311, Note_on_c, 2, 42, 100
3, 43324, Note_on_c, 2, 45, 0
3, 43695, Note_on_c, 2, 42, 0
3, 43924, Note_on_c, 2, 42, 126
3, 43988, Note_on_c, 2, 42, 0
3, 44324, Note_on_c, 2, 42, 126
3, 44488, Note_on_c, 2, 42, 0
3, 44516, Note_on_c, 2, 40, 126
3, 45108, Note_on_c, 2, 38, 126
3, 45140, Note_on_c, 2, 40, 0
3, 45868, Note_on_c, 2, 35, 115
3, 45900, Note_on_c, 2, 38, 0
3, 49128, Note_on_c, 2, 35, 0
3, 49128, Note_on_c, 2, 38, 114
3, 49188, Note_on_c, 2, 38, 0
3, 49488, Note_on_c, 2, 42, 114
3, 49636, Note_on_c, 2, 42, 0
3, 49684, Note_on_c, 2, 38, 114
3, 49768, Note_on_c, 2, 38, 0
3, 49888, Note_on_c, 2, 40, 114
3, 50040, Note_on_c, 2, 40, 0
3, 50064, Note_on_c, 2, 38, 114
3, 50200, Note_on_c, 2, 38, 0
3, 50252, Note_on_c, 2, 35, 114
3, 50304, Note_on_c, 2, 35, 0
3, 50468, Note_on_c, 2, 38, 114
3, 50540, Note_on_c, 2, 38, 0
3, 50860, Note_on_c, 2, 37, 115
3, 50980, Note_on_c, 2, 37, 0
3, 51036, Note_on_c, 2, 33, 115
3, 51148, Note_on_c, 2, 33, 0
3, 51236, Note_on_c, 2, 37, 115
3, 51600, Note_on_c, 2, 37, 0
3, 51628, Note_on_c, 2, 35, 115
3, 51668, Note_on_c, 2, 35, 0
3, 51808, Note_on_c, 2, 31, 115
3, 51872, Note_on_c, 2, 31, 0
3, 52212, Note_on_c, 2, 28, 116
3, 52580, Note_on_c, 2, 35, 116
3, 52620, Note_on_c, 2, 35, 0
3, 52784, Note_on_c, 2, 43, 116
3, 52884, Note_on_c, 2, 28, 0
3, 52888, Note_on_c, 2, 43, 0
3, 53156, Note_on_c, 2, 35, 116
3, 53284, Note_on_c, 2, 35, 0
3, 53352, Note_on_c, 2, 28, 116
3, 54132, Note_on_c, 2, 28, 0
3, 54476, Note_on_c, 2, 30, 116
3, 54884, Note_on_c, 2, 37, 116
3, 54912, Note_on_c, 2, 37, 0
3, 55080, Note_on_c, 2, 46, 116
3, 55124, Note_on_c, 2, 46, 0
3, 55428, Note_on_c, 2, 37, 116
3, 55460, Note_on_c, 2, 30, 0
3, 55548, Note_on_c, 2, 37, 0
3, 55628, Note_on_c, 2, 30, 116
3, 57948, Note_on_c, 2, 30, 0
3, 58156, Note_on_c, 2, 30, 116
3, 58236, Note_on_c, 2, 30, 0
3, 58340, Note_on_c, 2, 31, 116
3, 58924, Note_on_c, 2, 38, 116
3, 58940, Note_on_c, 2, 31, 0
3, 59492, Note_on_c, 2, 47, 116
3, 59520, Note_on_c, 2, 47, 0
3, 59528, Note_on_c, 2, 38, 0
3, 59668, Note_on_c, 2, 38, 116
3, 59756, Note_on_c, 2, 38, 0
3, 59876, Note_on_c, 2, 31, 116
3, 60460, Note_on_c, 2, 38, 116
3, 60500, Note_on_c, 2, 38, 0
3, 60524, Note_on_c, 2, 31, 0
3, 60620, Note_on_c, 2, 47, 116
3, 61224, Note_on_c, 2, 38, 116
3, 61256, Note_on_c, 2, 38, 0
3, 61280, Note_on_c, 2, 47, 0
3, 61416, Note_on_c, 2, 30, 116
3, 61972, Note_on_c, 2, 37, 116
3, 61996, Note_on_c, 2, 37, 0
3, 62160, Note_on_c, 2, 37, 116
3, 62524, Note_on_c, 2, 30, 0
3, 62776, Note_on_c, 2, 30, 106
3, 62816, Note_on_c, 2, 37, 0
3, 63492, Note_on_c, 2, 37, 108
3, 63588, Note_on_c, 2, 37, 0
3, 63592, Note_on_c, 2, 30, 0
3, 63692, Note_on_c, 2, 42, 109
3, 63720, Note_on_c, 2, 42, 0
3, 63888, Note_on_c, 2, 37, 110
3, 63956, Note_on_c, 2, 37, 0
3, 64080, Note_on_c, 2, 30, 111
3, 64352, Note_on_c, 2, 30, 0
3, 64460, Note_on_c, 2, 28, 112
3, 65068, Note_on_c, 2, 35, 114
3, 65108, Note_on_c, 2, 35, 0
3, 65228, Note_on_c, 2, 28, 0
3, 65248, Note_on_c, 2, 35, 115
3, 65796, Note_on_c, 2, 35, 0
3, 65840, Note_on_c, 2, 33, 118
3, 66204, Note_on_c, 2, 40, 121
3, 66304, Note_on_c, 2, 40, 0
3, 66340, Note_on_c, 2, 33, 0
3, 66396, Note_on_c, 2, 49, 121
3, 66988, Note_on_c, 2, 33, 124
3, 67040, Note_on_c, 2, 33, 0
3, 67108, Note_on_c, 2, 49, 0
3, 67172, Note_on_c, 2, 40, 125
3, 67364, Note_on_c, 2, 37, 126
3, 67400, Note_on_c, 2, 40, 0
3, 67480, Note_on_c, 2, 37, 0
3, 67552, Note_on_c, 2, 38, 126
3, 68140, Note_on_c, 2, 33, 127
3, 68192, Note_on_c, 2, 33, 0
3, 68320, Note_on_c, 2, 33, 127
3, 68848, Note_on_c, 2, 33, 0
3, 68900, Note_on_c, 2, 31, 127
3, 68908, Note_on_c, 2, 38, 0
3, 69648, Note_on_c, 2, 38, 127
3, 69692, Note_on_c, 2, 38, 0
3, 69740, Note_on_c, 2, 31, 0
3, 69844, Note_on_c, 2, 38, 127
3, 69888, Note_on_c, 2, 38, 0
3, 70224, Note_on_c, 2, 31, 127
3, 70612, Note_on_c, 2, 31, 0
3, 70628, Note_on_c, 2, 37, 127
3, 71228, Note_on_c, 2, 32, 127
3, 71264, Note_on_c, 2, 32, 0
3, 71284, Note_on_c, 2, 37, 0
3, 71388, Note_on_c, 2, 32, 127
3, 71940, Note_on_c, 2, 32, 0
3, 71972, Note_on_c, 2, 30, 127
3, 72724, Note_on_c, 2, 37, 127
3, 72776, Note_on_c, 2, 37, 0
3, 72832, Note_on_c, 2, 30, 0
3, 72928, Note_on_c, 2, 42, 127
3, 73440, Note_on_c, 2, 42, 0
3, 73532, Note_on_c, 2, 34, 126
3, 73640, Note_on_c, 2, 34, 0
3, 73704, Note_on_c, 2, 35, 126
3, 74560, Note_on_c, 2, 35, 0
3, 74828, Note_on_c, 2, 35, 123
3, 76392, Note_on_c, 2, 35, 0
3, 76756, Note_on_c, 2, 35, 116
3, 76872, Note_on_c, 2, 35, 0
3, 77360, Note_on_c, 2, 40, 115
3, 77436, Note_on_c, 2, 40, 0
3, 78100, Note_on_c, 2, 43, 112
3, 78176, Note_on_c, 2, 43, 0
3, 78292, Note_on_c, 2, 42, 111
3, 78656, Note_on_c, 2, 42, 0
3, 78684, Note_on_c, 2, 38, 109
3, 78832, Note_on_c, 2, 38, 0
3, 78868, Note_on_c, 2, 35, 109
3, 79024, Note_on_c, 2, 35, 0
3, 79080, Note_on_c, 2, 40, 108
3, 79144, Note_on_c, 2, 40, 0
3, 79652, Note_on_c, 2, 33, 100
3, 79760, Note_on_c, 2, 33, 0
3, 80428, Note_on_c, 2, 38, 101
3, 80528, Note_on_c, 2, 38, 0
3, 80608, Note_on_c, 2, 37, 101
3, 80716, Note_on_c, 2, 37, 0
3, 81364, Note_on_c, 2, 33, 103
3, 81568, Note_on_c, 2, 35, 104
3, 81572, Note_on_c, 2, 33, 0
3, 81940, Note_on_c, 2, 31, 105
3, 81960, Note_on_c, 2, 35, 0
3, 82032, Note_on_c, 2, 31, 0
3, 82340, Note_on_c, 2, 31, 107
3, 82512, Note_on_c, 2, 31, 0
3, 82528, Note_on_c, 2, 38, 107
3, 82612, Note_on_c, 2, 38, 0
3, 82896, Note_on_c, 2, 40, 108
3, 83020, Note_on_c, 2, 40, 0
3, 83504, Note_on_c, 2, 40, 110
3, 83644, Note_on_c, 2, 40, 0
3, 83660, Note_on_c, 2, 43, 111
3, 83992, Note_on_c, 2, 43, 0
3, 84028, Note_on_c, 2, 42, 112
3, 84216, Note_on_c, 2, 38, 113
3, 84228, Note_on_c, 2, 42, 0
3, 84376, Note_on_c, 2, 38, 0
3, 84420, Note_on_c, 2, 35, 113
3, 84760, Note_on_c, 2, 35, 0
3, 84812, Note_on_c, 2, 38, 114
3, 85008, Note_on_c, 2, 35, 115
3, 85012, Note_on_c, 2, 38, 0
3, 85156, Note_on_c, 2, 35, 0
3, 85188, Note_on_c, 2, 40, 115
3, 85552, Note_on_c, 2, 40, 0
3, 85580, Note_on_c, 2, 37, 115
3, 85780, Note_on_c, 2, 35, 115
3, 85808, Note_on_c, 2, 37, 0
3, 85820, Note_on_c, 2, 35, 0
3, 86164, Note_on_c, 2, 30, 115
3, 86240, Note_on_c, 2, 30, 0
3, 86356, Note_on_c, 2, 28, 115
3, 86904, Note_on_c, 2, 28, 0
3, 86956, Note_on_c, 2, 30, 115
3, 87144, Note_on_c, 2, 30, 0
3, 87312, Note_on_c, 2, 35, 115
3, 87472, Note_on_c, 2, 35, 0
3, 87520, Note_on_c, 2, 37, 115
3, 88108, Note_on_c, 2, 34, 115
3, 88112, Note_on_c, 2, 37, 0
3, 88496, Note_on_c, 2, 32, 113
3, 88508, Note_on_c, 2, 34, 0
3, 88636, Note_on_c, 2, 32, 0
3, 88692, Note_on_c, 2, 30, 114
3, 88796, Note_on_c, 2, 30, 0
3, 89232, Note_on_c, 2, 37, 117
3, 89312, Note_on_c, 2, 37, 0
3, 89420, Note_on_c, 2, 42, 117
3, 89556, Note_on_c, 2, 42, 0
3, 89616, Note_on_c, 2, 37, 118
3, 89660, Note_on_c, 2, 37, 0
3, 89804, Note_on_c, 2, 44, 120
3, 89964, Note_on_c, 2, 44, 0
3, 90000, Note_on_c, 2, 37, 122
3, 90080, Note_on_c, 2, 37, 0
3, 90188, Note_on_c, 2, 46, 123
3, 90240, Note_on_c, 2, 46, 0
3, 90412, Note_on_c, 2, 45, 119
3, 90964, Note_on_c, 2, 45, 0
3, 90980, Note_on_c, 2, 42, 121
3, 91488, Note_on_c, 2, 42, 0
3, 91568, Note_on_c, 2, 42, 121
3, 91848, Note_on_c, 2, 42, 0
3, 91920, Note_on_c, 2, 42, 123
3, 92092, Note_on_c, 2, 42, 0
3, 92120, Note_on_c, 2, 40, 123
3, 92708, Note_on_c, 2, 40, 0
3, 92716, Note_on_c, 2, 38, 125
3, 93312, Note_on_c, 2, 38, 0
3, 93480, Note_on_c, 2, 31, 127
3, 94244, Note_on_c, 2, 38, 127
3, 94272, Note_on_c, 2, 38, 0
3, 94440, Note_on_c, 2, 38, 127
3, 94532, Note_on_c, 2, 31, 0
3, 95152, Note_on_c, 2, 38, 0
3, 95212, Note_on_c, 2, 31, 127
3, 95808, Note_on_c, 2, 38, 127
3, 95852, Note_on_c, 2, 38, 0
3, 96012, Note_on_c, 2, 38, 125
3, 96100, Note_on_c, 2, 31, 0
3, 96372, Note_on_c, 2, 30, 124
3, 96516, Note_on_c, 2, 30, 0
3, 96724, Note_on_c, 2, 38, 0
3, 96728, Note_on_c, 2, 31, 99
3, 97316, Note_on_c, 2, 38, 99
3, 97348, Note_on_c, 2, 38, 0
3, 97376, Note_on_c, 2, 31, 0
3, 97512, Note_on_c, 2, 47, 99
3, 98092, Note_on_c, 2, 38, 100
3, 98172, Note_on_c, 2, 47, 0
3, 98180, Note_on_c, 2, 38, 0
3, 98276, Note_on_c, 2, 31, 103
3, 98856, Note_on_c, 2, 38, 107
3, 98968, Note_on_c, 2, 38, 0
3, 99044, Note_on_c, 2, 47, 108
3, 99100, Note_on_c, 2, 31, 0
3, 99140, Note_on_c, 2, 47, 0
3, 99216, Note_on_c, 2, 47, 108
3, 99284, Note_on_c, 2, 47, 0
3, 99428, Note_on_c, 2, 38, 110
3, 99620, Note_on_c, 2, 38, 0
3, 99620, Note_on_c, 2, 31, 110
3, 99680, Note_on_c, 2, 31, 0
3, 99808, Note_on_c, 2, 30, 111
3, 100368, Note_on_c, 2, 37, 112
3, 100412, Note_on_c, 2, 37, 0
3, 100436, Note_on_c, 2, 30, 0
3, 100556, Note_on_c, 2, 46, 114
3, 101168, Note_on_c, 2, 37, 115
3, 101240, Note_on_c, 2, 37, 0
3, 101264, Note_on_c, 2, 46, 0
3, 101348, Note_on_c, 2, 30, 116
3, 101440, Note_on_c, 2, 30, 0
3, 101552, Note_on_c, 2, 30, 117
3, 101620, Note_on_c, 2, 30, 0
3, 101932, Note_on_c, 2, 37, 118
3, 101996, Note_on_c, 2, 37, 0
3, 102096, Note_on_c, 2, 46, 118
3, 102720, Note_on_c, 2, 37, 119
3, 102756, Note_on_c, 2, 37, 0
3, 102844, Note_on_c, 2, 46, 0
3, 102900, Note_on_c, 2, 30, 120
3, 103464, Note_on_c, 2, 37, 122
3, 103500, Note_on_c, 2, 37, 0
3, 103616, Note_on_c, 2, 30, 0
3, 103652, Note_on_c, 2, 37, 122
3, 104216, Note_on_c, 2, 29, 123
3, 104264, Note_on_c, 2, 29, 0
3, 104396, Note_on_c, 2, 30, 124
3, 104460, Note_on_c, 2, 37, 0
3, 104996, Note_on_c, 2, 37, 125
3, 105032, Note_on_c, 2, 30, 0
3, 105044, Note_on_c, 2, 37, 0
3, 105180, Note_on_c, 2, 37, 125
3, 105520, Note_on_c, 2, 37, 0
3, 105572, Note_on_c, 2, 39, 125
3, 105680, Note_on_c, 2, 39, 0
3, 105812, Note_on_c, 2, 37, 126
3, 105840, Note_on_c, 2, 37, 0
3, 105960, Note_on_c, 2, 40, 126
3, 106592, Note_on_c, 2, 40, 0
3, 106728, Note_on_c, 2, 35, 126
3, 107308, Note_on_c, 2, 40, 124
3, 107312, Note_on_c, 2, 35, 0
3, 107336, Note_on_c, 2, 40, 0
3, 107500, Note_on_c, 2, 40, 123
3, 108080, Note_on_c, 2, 35, 116
3, 108116, Note_on_c, 2, 35, 0
3, 108236, Note_on_c, 2, 35, 116
3, 108300, Note_on_c, 2, 35, 0
3, 108448, Note_on_c, 2, 34, 100
3, 108464, Note_on_c, 2, 40, 0
3, 108976, Note_on_c, 2, 34, 0
3, 109044, Note_on_c, 2, 33, 103
3, 109628, Note_on_c, 2, 40, 106
3, 109652, Note_on_c, 2, 40, 0
3, 109788, Note_on_c, 2, 33, 0
3, 109800, Note_on_c, 2, 40, 108
3, 109864, Note_on_c, 2, 40, 0
3, 110060, Note_on_c, 2, 49, 108
3, 110736, Note_on_c, 2, 40, 112
3, 110740, Note_on_c, 2, 49, 0
3, 110764, Note_on_c, 2, 40, 0
3, 110916, Note_on_c, 2, 33, 113
3, 111536, Note_on_c, 2, 40, 119
3, 111556, Note_on_c, 2, 33, 0
3, 111628, Note_on_c, 2, 40, 0
3, 111916, Note_on_c, 2, 39, 121
3, 112048, Note_on_c, 2, 39, 0
3, 112104, Note_on_c, 2, 38, 122
3, 112656, Note_on_c, 2, 33, 123
3, 112736, Note_on_c, 2, 33, 0
3, 112860, Note_on_c, 2, 33, 124
3, 112900, Note_on_c, 2, 38, 0
3, 113464, Note_on_c, 2, 38, 101
3, 113492, Note_on_c, 2, 38, 0
3, 113492, Note_on_c, 2, 33, 0
3, 113640, Note_on_c, 2, 38, 104
3, 114272, Note_on_c, 2, 33, 108
3, 114284, Note_on_c, 2, 38, 0
3, 114300, Note_on_c, 2, 33, 0
3, 114412, Note_on_c, 2, 33, 108
3, 114748, Note_on_c, 2, 33, 0
3, 114792, Note_on_c, 2, 32, 102
3, 115140, Note_on_c, 2, 32, 0
3, 115188, Note_on_c, 2, 31, 102
3, 115760, Note_on_c, 2, 38, 102
3, 116464, Note_on_c, 2, 31, 0
3, 116496, Note_on_c, 2, 38, 0
3, 116524, Note_on_c, 2, 31, 102
3, 116588, Note_on_c, 2, 31, 0
3, 116708, Note_on_c, 2, 31, 102
3, 117296, Note_on_c, 2, 38, 102
3, 117320, Note_on_c, 2, 38, 0
3, 117476, Note_on_c, 2, 38, 102
3, 117540, Note_on_c, 2, 38, 0
3, 117624, Note_on_c, 2, 31, 0
3, 117864, Note_on_c, 2, 38, 102
3, 118192, Note_on_c, 2, 38, 0
3, 118252, Note_on_c, 2, 37, 102
3, 118836, Note_on_c, 2, 32, 103
3, 118884, Note_on_c, 2, 37, 0
3, 118900, Note_on_c, 2, 32, 0
3, 119588, Note_on_c, 2, 37, 105
3, 119648, Note_on_c, 2, 37, 0
3, 119776, Note_on_c, 2, 37, 105
3, 120284, Note_on_c, 2, 37, 0
3, 120336, Note_on_c, 2, 32, 110
3, 120444, Note_on_c, 2, 32, 0
3, 120516, Note_on_c, 2, 32, 110
3, 120912, Note_on_c, 2, 32, 0
3, 120932, Note_on_c, 2, 31, 112
3, 121264, Note_on_c, 2, 31, 0
3, 121316, Note_on_c, 2, 30, 112
3, 121892, Note_on_c, 2, 37, 111
3, 121904, Note_on_c, 2, 30, 0
3, 122484, Note_on_c, 2, 46, 107
3, 122516, Note_on_c, 2, 37, 0
3, 123068, Note_on_c, 2, 37, 107
3, 123172, Note_on_c, 2, 46, 0
3, 123620, Note_on_c, 2, 30, 105
3, 123648, Note_on_c, 2, 30, 0
3, 123760, Note_on_c, 2, 37, 0
3, 123792, Note_on_c, 2, 30, 104
3, 123916, Note_on_c, 2, 30, 0
3, 123992, Note_on_c, 2, 34, 104
3, 124304, Note_on_c, 2, 34, 0
3, 124384, Note_on_c, 2, 35, 104
3, 124976, Note_on_c, 2, 42, 104
3, 125024, Note_on_c, 2, 42, 0
3, 125164, Note_on_c, 2, 35, 0
3, 125164, Note_on_c, 2, 42, 103
3, 125732, Note_on_c, 2, 34, 103
3, 125796, Note_on_c, 2, 42, 0
3, 125820, Note_on_c, 2, 34, 0
3, 125920, Note_on_c, 2, 35, 103
3, 126528, Note_on_c, 2, 42, 103
3, 126560, Note_on_c, 2, 42, 0
3, 126616, Note_on_c, 2, 35, 0
3, 126692, Note_on_c, 2, 42, 103
3, 126912, Note_on_c, 2, 33, 103
3, 126956, Note_on_c, 2, 33, 0
3, 127024, Note_on_c, 2, 42, 0
3, 127072, Note_on_c, 2, 34, 103
3, 127408, Note_on_c, 2, 34, 0
3, 127456, Note_on_c, 2, 35, 103
3, 128036, Note_on_c, 2, 42, 103
3, 128096, Note_on_c, 2, 42, 0
3, 128116, Note_on_c, 2, 35, 0
3, 128228, Note_on_c, 2, 42, 103
3, 128832, Note_on_c, 2, 42, 0
3, 128832, Note_on_c, 2, 34, 103
3, 128932, Note_on_c, 2, 34, 0
3, 129012, Note_on_c, 2, 35, 103
3, 129552, Note_on_c, 2, 42, 103
3, 129648, Note_on_c, 2, 42, 0
3, 129668, Note_on_c, 2, 35, 0
3, 129748, Note_on_c, 2, 42, 103
3, 129812, Note_on_c, 2, 42, 0
3, 129952, Note_on_c, 2, 35, 103
3, 130036, Note_on_c, 2, 35, 0
3, 130148, Note_on_c, 2, 38, 103
3, 130188, Note_on_c, 2, 38, 0
3, 130356, Note_on_c, 2, 39, 103
3, 130444, Note_on_c, 2, 39, 0
3, 130536, Note_on_c, 2, 40, 103
3, 131128, Note_on_c, 2, 35, 103
3, 131168, Note_on_c, 2, 35, 0
3, 131168, Note_on_c, 2, 40, 0
3, 131292, Note_on_c, 2, 35, 103
3, 131856, Note_on_c, 2, 35, 0
3, 131884, Note_on_c, 2, 33, 103
3, 132628, Note_on_c, 2, 40, 103
3, 132692, Note_on_c, 2, 33, 0
3, 132804, Note_on_c, 2, 49, 103
3, 133408, Note_on_c, 2, 40, 0
3, 133424, Note_on_c, 2, 37, 103
3, 133552, Note_on_c, 2, 37, 0
3, 133552, Note_on_c, 2, 49, 0
3, 133604, Note_on_c, 2, 38, 103
3, 134692, Note_on_c, 2, 38, 0
3, 134708, Note_on_c, 2, 31, 102
3, 135724, Note_on_c, 2, 38, 102
3, 135748, Note_on_c, 2, 38, 0
3, 135900, Note_on_c, 2, 38, 101
3, 136048, Note_on_c, 2, 31, 0
3, 136496, Note_on_c, 2, 37, 101
3, 136508, Note_on_c, 2, 38, 0
3, 136556, Note_on_c, 2, 37, 0
3, 136680, Note_on_c, 2, 37, 101
3, 137812, Note_on_c, 2, 30, 103
3, 137844, Note_on_c, 2, 37, 0
3, 138372, Note_on_c, 2, 37, 104
3, 138432, Note_on_c, 2, 37, 0
3, 138768, Note_on_c, 2, 37, 105
3, 138804, Note_on_c, 2, 37, 0
3, 138964, Note_on_c, 2, 46, 105
3, 139268, Note_on_c, 2, 30, 0
3, 139368, Note_on_c, 2, 34, 106
3, 139380, Note_on_c, 2, 46, 0
3, 139620, Note_on_c, 2, 34, 0
3, 139732, Note_on_c, 2, 35, 106
3, 140572, Note_on_c, 2, 35, 0
3, 140876, Note_on_c, 2, 35, 105
3, 142464, Note_on_c, 2, 35, 0
3, 142820, Note_on_c, 2, 35, 97
3, 142900, Note_on_c, 2, 35, 0
3, 143400, Note_on_c, 2, 40, 94
3, 143484, Note_on_c, 2, 40, 0
3, 144164, Note_on_c, 2, 43, 93
3, 144280, Note_on_c, 2, 43, 0
3, 144324, Note_on_c, 2, 42, 93
3, 144708, Note_on_c, 2, 42, 0
3, 144724, Note_on_c, 2, 38, 93
3, 144912, Note_on_c, 2, 35, 95
3, 144916, Note_on_c, 2, 38, 0
3, 145004, Note_on_c, 2, 35, 0
3, 145100, Note_on_c, 2, 40, 97
3, 145192, Note_on_c, 2, 40, 0
3, 145700, Note_on_c, 2, 33, 104
3, 145816, Note_on_c, 2, 33, 0
3, 146526, Note_on_c, 2, 38, 101
3, 146670, Note_on_c, 2, 37, 94
3, 146718, Note_on_c, 2, 38, 0
3, 146762, Note_on_c, 2, 37, 0
3, 147412, Note_on_c, 2, 33, 89
3, 147576, Note_on_c, 2, 33, 0
3, 147604, Note_on_c, 2, 35, 89
3, 147916, Note_on_c, 2, 35, 0
3, 147984, Note_on_c, 2, 31, 89
3, 148172, Note_on_c, 2, 31, 0
3, 148396, Note_on_c, 2, 31, 94
3, 148580, Note_on_c, 2, 38, 96
3, 148608, Note_on_c, 2, 31, 0
3, 148612, Note_on_c, 2, 38, 0
3, 148948, Note_on_c, 2, 40, 97
3, 149056, Note_on_c, 2, 40, 0
3, 149520, Note_on_c, 2, 40, 96
3, 149692, Note_on_c, 2, 40, 0
3, 149716, Note_on_c, 2, 43, 95
3, 150084, Note_on_c, 2, 42, 94
3, 150092, Note_on_c, 2, 43, 0
3, 150308, Note_on_c, 2, 42, 0
3, 150308, Note_on_c, 2, 38, 94
3, 150380, Note_on_c, 2, 38, 0
3, 150496, Note_on_c, 2, 35, 94
3, 150800, Note_on_c, 2, 35, 0
3, 150876, Note_on_c, 2, 38, 96
3, 151060, Note_on_c, 2, 38, 0
3, 151076, Note_on_c, 2, 35, 97
3, 151192, Note_on_c, 2, 35, 0
3, 151244, Note_on_c, 2, 40, 99
3, 151588, Note_on_c, 2, 40, 0
3, 151612, Note_on_c, 2, 37, 104
3, 151780, Note_on_c, 2, 37, 0
3, 151824, Note_on_c, 2, 35, 105
3, 151860, Note_on_c, 2, 35, 0
3, 152212, Note_on_c, 2, 30, 107
3, 152332, Note_on_c, 2, 30, 0
3, 152404, Note_on_c, 2, 28, 107
3, 152912, Note_on_c, 2, 28, 0
3, 153012, Note_on_c, 2, 30, 99
3, 153248, Note_on_c, 2, 30, 0
3, 153388, Note_on_c, 2, 35, 105
3, 153532, Note_on_c, 2, 35, 0
3, 153556, Note_on_c, 2, 37, 108
3, 154128, Note_on_c, 2, 37, 0
3, 154132, Note_on_c, 2, 34, 115
3, 154540, Note_on_c, 2, 34, 0
3, 154548, Note_on_c, 2, 32, 109
3, 154672, Note_on_c, 2, 32, 0
3, 154740, Note_on_c, 2, 30, 102
3, 154828, Note_on_c, 2, 30, 0
3, 155300, Note_on_c, 2, 37, 84
3, 155452, Note_on_c, 2, 37, 0
3, 155492, Note_on_c, 2, 42, 85
3, 155664, Note_on_c, 2, 42, 0
3, 155692, Note_on_c, 2, 37, 100
3, 155824, Note_on_c, 2, 37, 0
3, 155844, Note_on_c, 2, 44, 107
3, 156056, Note_on_c, 2, 37, 111
3, 156076, Note_on_c, 2, 44, 0
3, 156172, Note_on_c, 2, 37, 0
3, 156236, Note_on_c, 2, 46, 114
3, 156304, Note_on_c, 2, 46, 0
3, 156644, Note_on_c, 2, 45, 119
3, 157028, Note_on_c, 2, 45, 0
3, 157032, Note_on_c, 2, 42, 121
3, 157072, Note_on_c, 2, 42, 0
3, 157620, Note_on_c, 2, 42, 122
3, 157716, Note_on_c, 2, 42, 0
3, 157968, Note_on_c, 2, 42, 122
3, 158092, Note_on_c, 2, 42, 0
3, 158176, Note_on_c, 2, 40, 122
3, 158712, Note_on_c, 2, 40, 0
3, 158756, Note_on_c, 2, 38, 116
3, 159540, Note_on_c, 2, 31, 115
3, 159556, Note_on_c, 2, 38, 0
3, 160292, Note_on_c, 2, 38, 115
3, 160328, Note_on_c, 2, 38, 0
3, 160480, Note_on_c, 2, 38, 115
3, 160528, Note_on_c, 2, 31, 0
3, 161072, Note_on_c, 2, 31, 115
3, 161148, Note_on_c, 2, 31, 0
3, 161252, Note_on_c, 2, 31, 115
3, 161280, Note_on_c, 2, 38, 0
3, 161796, Note_on_c, 2, 31, 0
3, 161848, Note_on_c, 2, 38, 115
3, 161876, Note_on_c, 2, 38, 0
3, 162036, Note_on_c, 2, 38, 115
3, 162064, Note_on_c, 2, 38, 0
3, 162228, Note_on_c, 2, 38, 115
3, 162260, Note_on_c, 2, 38, 0
3, 162408, Note_on_c, 2, 30, 115
3, 162736, Note_on_c, 2, 30, 0
3, 162784, Note_on_c, 2, 31, 115
3, 163344, Note_on_c, 2, 38, 115
3, 163376, Note_on_c, 2, 38, 0
3, 163376, Note_on_c, 2, 31, 0
3, 163536, Note_on_c, 2, 47, 114
3, 164128, Note_on_c, 2, 47, 0
3, 164132, Note_on_c, 2, 30, 113
3, 164196, Note_on_c, 2, 30, 0
3, 164540, Note_on_c, 2, 31, 113
3, 164924, Note_on_c, 2, 38, 113
3, 164936, Note_on_c, 2, 31, 0
3, 164988, Note_on_c, 2, 38, 0
3, 165292, Note_on_c, 2, 47, 113
3, 165388, Note_on_c, 2, 47, 0
3, 165492, Note_on_c, 2, 38, 113
3, 165568, Note_on_c, 2, 38, 0
3, 165672, Note_on_c, 2, 31, 113
3, 165776, Note_on_c, 2, 31, 0
3, 165840, Note_on_c, 2, 30, 113
3, 166420, Note_on_c, 2, 37, 112
3, 166440, Note_on_c, 2, 37, 0
3, 166588, Note_on_c, 2, 30, 0
3, 166608, Note_on_c, 2, 37, 112
3, 167120, Note_on_c, 2, 37, 0
3, 167212, Note_on_c, 2, 29, 112
3, 167264, Note_on_c, 2, 29, 0
3, 167396, Note_on_c, 2, 30, 112
3, 168060, Note_on_c, 2, 30, 0
3, 168148, Note_on_c, 2, 42, 112
3, 168336, Note_on_c, 2, 37, 112
3, 168356, Note_on_c, 2, 42, 0
3, 168368, Note_on_c, 2, 37, 0
3, 168520, Note_on_c, 2, 36, 112
3, 168640, Note_on_c, 2, 36, 0
3, 168720, Note_on_c, 2, 37, 112
3, 168788, Note_on_c, 2, 37, 0
3, 168892, Note_on_c, 2, 30, 113
3, 169476, Note_on_c, 2, 37, 113
3, 169516, Note_on_c, 2, 37, 0
3, 169524, Note_on_c, 2, 30, 0
3, 169676, Note_on_c, 2, 37, 114
3, 170256, Note_on_c, 2, 37, 0
3, 170276, Note_on_c, 2, 30, 115
3, 170340, Note_on_c, 2, 30, 0
3, 170460, Note_on_c, 2, 30, 115
3, 170720, Note_on_c, 2, 30, 0
3, 170848, Note_on_c, 2, 42, 116
3, 171412, Note_on_c, 2, 37, 116
3, 171452, Note_on_c, 2, 37, 0
3, 171624, Note_on_c, 2, 30, 117
3, 171648, Note_on_c, 2, 30, 0
3, 171984, Note_on_c, 2, 42, 0
3, 172196, Note_on_c, 2, 40, 117
3, 172588, Note_on_c, 2, 35, 105
3, 172628, Note_on_c, 2, 35, 0
3, 172688, Note_on_c, 2, 40, 0
3, 172768, Note_on_c, 2, 35, 105
3, 173372, Note_on_c, 2, 31, 105
3, 173412, Note_on_c, 2, 31, 0
3, 173544, Note_on_c, 2, 31, 105
3, 173588, Note_on_c, 2, 35, 0
3, 174096, Note_on_c, 2, 31, 0
3, 174124, Note_on_c, 2, 35, 105
3, 174148, Note_on_c, 2, 35, 0
3, 174492, Note_on_c, 2, 40, 105
3, 174572, Note_on_c, 2, 40, 0
3, 174700, Note_on_c, 2, 35, 105
3, 174752, Note_on_c, 2, 35, 0
3, 174888, Note_on_c, 2, 34, 105
3, 174980, Note_on_c, 2, 34, 0
3, 175076, Note_on_c, 2, 33, 105
3, 175632, Note_on_c, 2, 40, 106
3, 175668, Note_on_c, 2, 40, 0
3, 175840, Note_on_c, 2, 40, 107
3, 175924, Note_on_c, 2, 33, 0
3, 176376, Note_on_c, 2, 40, 0
3, 176400, Note_on_c, 2, 33, 108
3, 176976, Note_on_c, 2, 33, 0
3, 176988, Note_on_c, 2, 39, 109
3, 177540, Note_on_c, 2, 33, 109
3, 177608, Note_on_c, 2, 33, 0
3, 177668, Note_on_c, 2, 39, 0
3, 177760, Note_on_c, 2, 37, 109
3, 177780, Note_on_c, 2, 37, 0
3, 177956, Note_on_c, 2, 37, 109
3, 178084, Note_on_c, 2, 37, 0
3, 178152, Note_on_c, 2, 38, 109
3, 178908, Note_on_c, 2, 33, 109
3, 178944, Note_on_c, 2, 38, 0
3, 179440, Note_on_c, 2, 33, 0
3, 179472, Note_on_c, 2, 38, 110
3, 180260, Note_on_c, 2, 33, 112
3, 180320, Note_on_c, 2, 33, 0
3, 180432, Note_on_c, 2, 33, 112
3, 180784, Note_on_c, 2, 33, 0
3, 181024, Note_on_c, 2, 38, 0
3, 181036, Note_on_c, 2, 31, 112
3, 181796, Note_on_c, 2, 38, 113
3, 181824, Note_on_c, 2, 38, 0
3, 181968, Note_on_c, 2, 38, 113
3, 182108, Note_on_c, 2, 31, 0
3, 182572, Note_on_c, 2, 30, 114
3, 182636, Note_on_c, 2, 30, 0
3, 182756, Note_on_c, 2, 31, 115
3, 182848, Note_on_c, 2, 38, 0
3, 183348, Note_on_c, 2, 38, 117
3, 183392, Note_on_c, 2, 38, 0
3, 183528, Note_on_c, 2, 38, 117
3, 183660, Note_on_c, 2, 38, 0
3, 183912, Note_on_c, 2, 38, 117
3, 183944, Note_on_c, 2, 31, 0
3, 184104, Note_on_c, 2, 31, 117
3, 184116, Note_on_c, 2, 38, 0
3, 184204, Note_on_c, 2, 31, 0
3, 184284, Note_on_c, 2, 37, 117
3, 184880, Note_on_c, 2, 44, 118
3, 184972, Note_on_c, 2, 37, 0
3, 185620, Note_on_c, 2, 37, 119
3, 185656, Note_on_c, 2, 37, 0
3, 185664, Note_on_c, 2, 44, 0
3, 185796, Note_on_c, 2, 37, 120
3, 186320, Note_on_c, 2, 37, 0
3, 186428, Note_on_c, 2, 32, 121
3, 186476, Note_on_c, 2, 32, 0
3, 186588, Note_on_c, 2, 32, 121
3, 186928, Note_on_c, 2, 32, 0
3, 187000, Note_on_c, 2, 31, 122
3, 187328, Note_on_c, 2, 31, 0
3, 187380, Note_on_c, 2, 30, 122
3, 187948, Note_on_c, 2, 37, 123
3, 187976, Note_on_c, 2, 37, 0
3, 188128, Note_on_c, 2, 37, 123
3, 188452, Note_on_c, 2, 30, 0
3, 188884, Note_on_c, 2, 37, 0
3, 188888, Note_on_c, 2, 30, 124
3, 189476, Note_on_c, 2, 37, 124
3, 189536, Note_on_c, 2, 37, 0
3, 189664, Note_on_c, 2, 37, 124
3, 189952, Note_on_c, 2, 30, 0
3, 190000, Note_on_c, 2, 37, 0
3, 190028, Note_on_c, 2, 34, 124
3, 190352, Note_on_c, 2, 34, 0
3, 190432, Note_on_c, 2, 35, 122
3, 191020, Note_on_c, 2, 42, 120
3, 191084, Note_on_c, 2, 35, 0
3, 191152, Note_on_c, 2, 42, 0
3, 191196, Note_on_c, 2, 42, 120
3, 191604, Note_on_c, 2, 33, 120
3, 191656, Note_on_c, 2, 33, 0
3, 191748, Note_on_c, 2, 34, 120
3, 191764, Note_on_c, 2, 42, 0
3, 191888, Note_on_c, 2, 34, 0
3, 191952, Note_on_c, 2, 35, 120
3, 192548, Note_on_c, 2, 42, 120
3, 192568, Note_on_c, 2, 35, 0
3, 192948, Note_on_c, 2, 33, 120
3, 193020, Note_on_c, 2, 33, 0
3, 193072, Note_on_c, 2, 42, 0
3, 193128, Note_on_c, 2, 34, 120
3, 193468, Note_on_c, 2, 34, 0
3, 193516, Note_on_c, 2, 35, 120
3, 194092, Note_on_c, 2, 47, 107
3, 194104, Note_on_c, 2, 35, 0
3, 194636, Note_on_c, 2, 47, 0
3, 194664, Note_on_c, 2, 44, 107
3, 195252, Note_on_c, 2, 44, 0
3, 195268, Note_on_c, 2, 41, 107
3, 195804, Note_on_c, 2, 41, 0
3, 195816, Note_on_c, 2, 38, 107
3, 196212, Note_on_c, 2, 35, 107
3, 196224, Note_on_c, 2, 38, 0
3, 196476, Note_on_c, 2, 35, 0
3, 196572, Note_on_c, 2, 31, 107
3, 197160, Note_on_c, 2, 38, 107
3, 197188, Note_on_c, 2, 38, 0
3, 197352, Note_on_c, 2, 38, 107
3, 197416, Note_on_c, 2, 31, 0
3, 197932, Note_on_c, 2, 30, 107
3, 197992, Note_on_c, 2, 30, 0
3, 198116, Note_on_c, 2, 31, 107
3, 198144, Note_on_c, 2, 38, 0
3, 198696, Note_on_c, 2, 38, 107
3, 198720, Note_on_c, 2, 38, 0
3, 198752, Note_on_c, 2, 31, 0
3, 198868, Note_on_c, 2, 47, 107
3, 199032, Note_on_c, 2, 47, 0
3, 199072, Note_on_c, 2, 47, 107
3, 199128, Note_on_c, 2, 47, 0
3, 199248, Note_on_c, 2, 30, 107
3, 199564, Note_on_c, 2, 30, 0
3, 199648, Note_on_c, 2, 31, 107
3, 200244, Note_on_c, 2, 38, 107
3, 200300, Note_on_c, 2, 38, 0
3, 200308, Note_on_c, 2, 31, 0
3, 200612, Note_on_c, 2, 47, 107
3, 200952, Note_on_c, 2, 47, 0
3, 201012, Note_on_c, 2, 30, 107
3, 201124, Note_on_c, 2, 30, 0
3, 201192, Note_on_c, 2, 31, 107
3, 201768, Note_on_c, 2, 38, 107
3, 201840, Note_on_c, 2, 38, 0
3, 201840, Note_on_c, 2, 31, 0
3, 202148, Note_on_c, 2, 47, 107
3, 202224, Note_on_c, 2, 47, 0
3, 202344, Note_on_c, 2, 38, 107
3, 202400, Note_on_c, 2, 38, 0
3, 202548, Note_on_c, 2, 31, 107
3, 202684, Note_on_c, 2, 31, 0
3, 202720, Note_on_c, 2, 30, 107
3, 203284, Note_on_c, 2, 37, 107
3, 203316, Note_on_c, 2, 37, 0
3, 203484, Note_on_c, 2, 37, 108
3, 204020, Note_on_c, 2, 37, 0
3, 204080, Note_on_c, 2, 37, 108
3, 204132, Note_on_c, 2, 37, 0
3, 204180, Note_on_c, 2, 30, 0
3, 204252, Note_on_c, 2, 42, 108
3, 204844, Note_on_c, 2, 42, 0
3, 204844, Note_on_c, 2, 41, 108
3, 204928, Note_on_c, 2, 41, 0
3, 205032, Note_on_c, 2, 42, 108
3, 205108, Note_on_c, 2, 42, 0
3, 205220, Note_on_c, 2, 29, 108
3, 205560, Note_on_c, 2, 29, 0
3, 205608, Note_on_c, 2, 30, 108
3, 206352, Note_on_c, 2, 37, 108
3, 206388, Note_on_c, 2, 37, 0
3, 206564, Note_on_c, 2, 37, 108
3, 207096, Note_on_c, 2, 37, 0
3, 207224, Note_on_c, 2, 41, 108
3, 207268, Note_on_c, 2, 41, 0
3, 207312, Note_on_c, 2, 30, 0
3, 207336, Note_on_c, 2, 42, 108
3, 207908, Note_on_c, 2, 30, 108
3, 207940, Note_on_c, 2, 30, 0
3, 208292, Note_on_c, 2, 42, 0
3, 208296, Note_on_c, 2, 37, 108
3, 208384, Note_on_c, 2, 37, 0
3, 208488, Note_on_c, 2, 39, 108
3, 208564, Note_on_c, 2, 39, 0
3, 208688, Note_on_c, 2, 37, 108
3, 208736, Note_on_c, 2, 37, 0
3, 208872, Note_on_c, 2, 40, 108
3, 209444, Note_on_c, 2, 34, 108
3, 209476, Note_on_c, 2, 34, 0
3, 209640, Note_on_c, 2, 34, 108
3, 209652, Note_on_c, 2, 40, 0
3, 209820, Note_on_c, 2, 34, 0
3, 209828, Note_on_c, 2, 35, 108
3, 210620, Note_on_c, 2, 40, 108
3, 210660, Note_on_c, 2, 40, 0
3, 210664, Note_on_c, 2, 35, 0
3, 210980, Note_on_c, 2, 39, 108
3, 211088, Note_on_c, 2, 39, 0
3, 211168, Note_on_c, 2, 40, 108
3, 211240, Note_on_c, 2, 40, 0
3, 211360, Note_on_c, 2, 35, 108
3, 211436, Note_on_c, 2, 35, 0
3, 211544, Note_on_c, 2, 34, 108
3, 211612, Note_on_c, 2, 34, 0
3, 211728, Note_on_c, 2, 32, 108
3, 211820, Note_on_c, 2, 32, 0
3, 211892, Note_on_c, 2, 32, 108
3, 211916, Note_on_c, 2, 32, 0
3, 211944, Note_on_c, 2, 33, 108
3, 212528, Note_on_c, 2, 40, 108
3, 212548, Note_on_c, 2, 40, 0
3, 212712, Note_on_c, 2, 40, 108
3, 212756, Note_on_c, 2, 33, 0
3, 213264, Note_on_c, 2, 32, 105
3, 213372, Note_on_c, 2, 32, 0
3, 213456, Note_on_c, 2, 33, 105
3, 213476, Note_on_c, 2, 40, 0
3, 214004, Note_on_c, 2, 40, 105
3, 214052, Note_on_c, 2, 40, 0
3, 214064, Note_on_c, 2, 33, 0
3, 214432, Note_on_c, 2, 40, 106
3, 214496, Note_on_c, 2, 40, 0
3, 214624, Note_on_c, 2, 36, 106
3, 214740, Note_on_c, 2, 36, 0
3, 214820, Note_on_c, 2, 37, 106
3, 214948, Note_on_c, 2, 37, 0
3, 214992, Note_on_c, 2, 38, 106
3, 215588, Note_on_c, 2, 45, 107
3, 215648, Note_on_c, 2, 45, 0
3, 215768, Note_on_c, 2, 45, 107
3, 215808, Note_on_c, 2, 45, 0
3, 215876, Note_on_c, 2, 38, 0
3, 215956, Note_on_c, 2, 32, 107
3, 216060, Note_on_c, 2, 32, 0
3, 216160, Note_on_c, 2, 33, 107
3, 216260, Note_on_c, 2, 33, 0
3, 216356, Note_on_c, 2, 37, 107
3, 216496, Note_on_c, 2, 37, 0
3, 216544, Note_on_c, 2, 38, 108
3, 217128, Note_on_c, 2, 45, 108
3, 217136, Note_on_c, 2, 47, 108
3, 217240, Note_on_c, 2, 47, 0
3, 217412, Note_on_c, 2, 38, 0
3, 217504, Note_on_c, 2, 33, 108
3, 217556, Note_on_c, 2, 45, 0
3, 217580, Note_on_c, 2, 33, 0
3, 217696, Note_on_c, 2, 32, 109
3, 217824, Note_on_c, 2, 32, 0
3, 217904, Note_on_c, 2, 32, 109
3, 218032, Note_on_c, 2, 32, 0
3, 218088, Note_on_c, 2, 31, 109
3, 218664, Note_on_c, 2, 38, 109
3, 218692, Note_on_c, 2, 38, 0
3, 218868, Note_on_c, 2, 38, 109
3, 219000, Note_on_c, 2, 31, 0
3, 219428, Note_on_c, 2, 30, 110
3, 219508, Note_on_c, 2, 30, 0
3, 219620, Note_on_c, 2, 31, 110
3, 219660, Note_on_c, 2, 38, 0
3, 220196, Note_on_c, 2, 38, 111
3, 220220, Note_on_c, 2, 38, 0
3, 220372, Note_on_c, 2, 38, 111
3, 220480, Note_on_c, 2, 31, 0
3, 220772, Note_on_c, 2, 31, 111
3, 220880, Note_on_c, 2, 38, 0
3, 221148, Note_on_c, 2, 31, 0
3, 221160, Note_on_c, 2, 37, 111
3, 221732, Note_on_c, 2, 44, 112
3, 221756, Note_on_c, 2, 44, 0
3, 222124, Note_on_c, 2, 44, 112
3, 222176, Note_on_c, 2, 44, 0
3, 222224, Note_on_c, 2, 37, 0
3, 222480, Note_on_c, 2, 37, 112
3, 222560, Note_on_c, 2, 37, 0
3, 222656, Note_on_c, 2, 37, 113
3, 223268, Note_on_c, 2, 44, 113
3, 223284, Note_on_c, 2, 44, 0
3, 223424, Note_on_c, 2, 37, 0
3, 223444, Note_on_c, 2, 44, 113
3, 223528, Note_on_c, 2, 44, 0
3, 223648, Note_on_c, 2, 37, 113
3, 223688, Note_on_c, 2, 37, 0
3, 223812, Note_on_c, 2, 43, 114
3, 224204, Note_on_c, 2, 43, 0
3, 224244, Note_on_c, 2, 42, 114
3, 224980, Note_on_c, 2, 37, 115
3, 225036, Note_on_c, 2, 42, 0
3, 225584, Note_on_c, 2, 30, 115
3, 225608, Note_on_c, 2, 30, 0
3, 225744, Note_on_c, 2, 30, 115
3, 225880, Note_on_c, 2, 37, 0
3, 226276, Note_on_c, 2, 30, 0
3, 226324, Note_on_c, 2, 33, 116
3, 226892, Note_on_c, 2, 33, 0
3, 226900, Note_on_c, 2, 34, 116
3, 227236, Note_on_c, 2, 34, 0
3, 227296, Note_on_c, 2, 35, 116
3, 227876, Note_on_c, 2, 42, 117
3, 228048, Note_on_c, 2, 35, 0
3, 228648, Note_on_c, 2, 34, 118
3, 228756, Note_on_c, 2, 42, 0
3, 228760, Note_on_c, 2, 34, 0
3, 228828, Note_on_c, 2, 35, 118
3, 229412, Note_on_c, 2, 42, 118
3, 229428, Note_on_c, 2, 35, 0
3, 229792, Note_on_c, 2, 33, 119
3, 229868, Note_on_c, 2, 33, 0
3, 229964, Note_on_c, 2, 34, 119
3, 230284, Note_on_c, 2, 34, 0
3, 230364, Note_on_c, 2, 35, 119
3, 230436, Note_on_c, 2, 42, 0
3, 230928, Note_on_c, 2, 42, 119
3, 231060, Note_on_c, 2, 35, 0
3, 231328, Note_on_c, 2, 33, 120
3, 231392, Note_on_c, 2, 33, 0
3, 231500, Note_on_c, 2, 34, 120
3, 231824, Note_on_c, 2, 34, 0
3, 231888, Note_on_c, 2, 35, 120
3, 231900, Note_on_c, 2, 42, 0
3, 232496, Note_on_c, 2, 42, 121
3, 232504, Note_on_c, 2, 35, 0
3, 232884, Note_on_c, 2, 33, 121
3, 232972, Note_on_c, 2, 33, 0
3, 233040, Note_on_c, 2, 42, 0
3, 233092, Note_on_c, 2, 35, 121
3, 233232, Note_on_c, 2, 35, 0
3, 233272, Note_on_c, 2, 39, 121
3, 233392, Note_on_c, 2, 39, 0
3, 233460, Note_on_c, 2, 40, 122
3, 234020, Note_on_c, 2, 35, 122
3, 234048, Note_on_c, 2, 35, 0
3, 234220, Note_on_c, 2, 35, 122
3, 234744, Note_on_c, 2, 40, 0
3, 234804, Note_on_c, 2, 35, 0
3, 234808, Note_on_c, 2, 33, 106
3, 234848, Note_on_c, 2, 33, 0
3, 234972, Note_on_c, 2, 33, 106
3, 235556, Note_on_c, 2, 40, 106
3, 235604, Note_on_c, 2, 40, 0
3, 235744, Note_on_c, 2, 40, 106
3, 235812, Note_on_c, 2, 33, 0
3, 236352, Note_on_c, 2, 37, 107
3, 236416, Note_on_c, 2, 37, 0
3, 236496, Note_on_c, 2, 40, 0
3, 236516, Note_on_c, 2, 38, 107
3, 237636, Note_on_c, 2, 38, 0
3, 237640, Note_on_c, 2, 31, 108
3, 238640, Note_on_c, 2, 38, 108
3, 238664, Note_on_c, 2, 38, 0
3, 238784, Note_on_c, 2, 31, 0
3, 238824, Note_on_c, 2, 43, 109
3, 239212, Note_on_c, 2, 38, 109
3, 239284, Note_on_c, 2, 38, 0
3, 239400, Note_on_c, 2, 31, 109
3, 239476, Note_on_c, 2, 31, 0
3, 239588, Note_on_c, 2, 37, 109
3, 239680, Note_on_c, 2, 43, 0
3, 240700, Note_on_c, 2, 37, 0
3, 240716, Note_on_c, 2, 30, 110
3, 241328, Note_on_c, 2, 42, 110
3, 241420, Note_on_c, 2, 30, 0
3, 242064, Note_on_c, 2, 33, 111
3, 242112, Note_on_c, 2, 33, 0
3, 242256, Note_on_c, 2, 34, 111
3, 242276, Note_on_c, 2, 42, 0
3, 242636, Note_on_c, 2, 34, 0
3, 242664, Note_on_c, 2, 35, 111
3, 243620, Note_on_c, 2, 35, 0
3, 243792, Note_on_c, 2, 35, 112
3, 245392, Note_on_c, 2, 35, 0
3, 245748, Note_on_c, 2, 35, 113
3, 245824, Note_on_c, 2, 35, 0
3, 246324, Note_on_c, 2, 40, 114
3, 246384, Note_on_c, 2, 40, 0
3, 247080, Note_on_c, 2, 43, 114
3, 247216, Note_on_c, 2, 43, 0
3, 247252, Note_on_c, 2, 42, 114
3, 247612, Note_on_c, 2, 38, 115
3, 247744, Note_on_c, 2, 42, 0
3, 247812, Note_on_c, 2, 35, 115
3, 247816, Note_on_c, 2, 38, 0
3, 247960, Note_on_c, 2, 35, 0
3, 247996, Note_on_c, 2, 40, 115
3, 248116, Note_on_c, 2, 40, 0
3, 248612, Note_on_c, 2, 33, 115
3, 248716, Note_on_c, 2, 33, 0
3, 249364, Note_on_c, 2, 38, 116
3, 249448, Note_on_c, 2, 38, 0
3, 249559, Note_on_c, 2, 37, 116
3, 249655, Note_on_c, 2, 37, 0
3, 250164, Note_on_c, 2, 33, 116
3, 250468, Note_on_c, 2, 33, 0
3, 250512, Note_on_c, 2, 35, 117
3, 250580, Note_on_c, 2, 35, 0
3, 250896, Note_on_c, 2, 31, 117
3, 251172, Note_on_c, 2, 31, 0
3, 251300, Note_on_c, 2, 31, 117
3, 251476, Note_on_c, 2, 31, 0
3, 251480, Note_on_c, 2, 38, 117
3, 251532, Note_on_c, 2, 38, 0
3, 251856, Note_on_c, 2, 40, 118
3, 251988, Note_on_c, 2, 40, 0
3, 252452, Note_on_c, 2, 40, 118
3, 252604, Note_on_c, 2, 40, 0
3, 252648, Note_on_c, 2, 43, 118
3, 252964, Note_on_c, 2, 43, 0
3, 252988, Note_on_c, 2, 42, 118
3, 253176, Note_on_c, 2, 42, 0
3, 253188, Note_on_c, 2, 38, 119
3, 253376, Note_on_c, 2, 38, 0
3, 253388, Note_on_c, 2, 35, 119
3, 253732, Note_on_c, 2, 35, 0
3, 253788, Note_on_c, 2, 38, 119
3, 253956, Note_on_c, 2, 35, 119
3, 253988, Note_on_c, 2, 38, 0
3, 254156, Note_on_c, 2, 35, 0
3, 254180, Note_on_c, 2, 40, 119
3, 254524, Note_on_c, 2, 40, 0
3, 254560, Note_on_c, 2, 37, 100
3, 254760, Note_on_c, 2, 35, 100
3, 254772, Note_on_c, 2, 37, 0
3, 254804, Note_on_c, 2, 35, 0
3, 255140, Note_on_c, 2, 30, 100
3, 255312, Note_on_c, 2, 30, 0
3, 255360, Note_on_c, 2, 28, 100
3, 255916, Note_on_c, 2, 30, 101
3, 255936, Note_on_c, 2, 28, 0
3, 256052, Note_on_c, 2, 30, 0
3, 256248, Note_on_c, 2, 35, 101
3, 256352, Note_on_c, 2, 35, 0
3, 256452, Note_on_c, 2, 37, 101
3, 257060, Note_on_c, 2, 34, 102
3, 257188, Note_on_c, 2, 34, 0
3, 257424, Note_on_c, 2, 32, 102
3, 257536, Note_on_c, 2, 32, 0
3, 257620, Note_on_c, 2, 30, 102
3, 257684, Note_on_c, 2, 37, 0
3, 258388, Note_on_c, 2, 42, 103
3, 258432, Note_on_c, 2, 30, 0
3, 258540, Note_on_c, 2, 42, 0
3, 258764, Note_on_c, 2, 44, 103
3, 258908, Note_on_c, 2, 44, 0
3, 259140, Note_on_c, 2, 46, 103
3, 259280, Note_on_c, 2, 46, 0
3, 259404, Note_on_c, 2, 45, 103
3, 259744, Note_on_c, 2, 42, 104
3, 259756, Note_on_c, 2, 45, 0
3, 259808, Note_on_c, 2, 42, 0
3, 260132, Note_on_c, 2, 42, 104
3, 260448, Note_on_c, 2, 42, 0
3, 260516, Note_on_c, 2, 42, 104
3, 260620, Note_on_c, 2, 42, 0
3, 260704, Note_on_c, 2, 42, 104
3, 260764, Note_on_c, 2, 42, 0
3, 260880, Note_on_c, 2, 42, 104
3, 261012, Note_on_c, 2, 42, 0
3, 261068, Note_on_c, 2, 39, 105
3, 261084, Note_on_c, 2, 40, 105
3, 261184, Note_on_c, 2, 39, 0
3, 261660, Note_on_c, 2, 40, 0
3, 261672, Note_on_c, 2, 38, 105
3, 262420, Note_on_c, 2, 38, 0
3, 262424, Note_on_c, 2, 31, 106
3, 262588, Note_on_c, 2, 31, 0
3, 262588, Note_on_c, 2, 31, 106
3, 263200, Note_on_c, 2, 31, 0
3, 263204, Note_on_c, 2, 38, 106
3, 263244, Note_on_c, 2, 38, 0
3, 263372, Note_on_c, 2, 38, 106
3, 263956, Note_on_c, 2, 30, 107
3, 264044, Note_on_c, 2, 30, 0
3, 264140, Note_on_c, 2, 31, 107
3, 264144, Note_on_c, 2, 38, 0
3, 264724, Note_on_c, 2, 38, 107
3, 264796, Note_on_c, 2, 38, 0
3, 264812, Note_on_c, 2, 31, 0
3, 264936, Note_on_c, 2, 47, 107
3, 265092, Note_on_c, 2, 47, 0
3, 265132, Note_on_c, 2, 47, 108
3, 265320, Note_on_c, 2, 47, 0
3, 265324, Note_on_c, 2, 38, 108
3, 265372, Note_on_c, 2, 38, 0
3, 265512, Note_on_c, 2, 38, 108
3, 265684, Note_on_c, 2, 38, 0
3, 265700, Note_on_c, 2, 31, 108
3, 266124, Note_on_c, 2, 31, 0
3, 266256, Note_on_c, 2, 38, 108
3, 266288, Note_on_c, 2, 38, 0
3, 266452, Note_on_c, 2, 38, 109
3, 267044, Note_on_c, 2, 30, 109
3, 267080, Note_on_c, 2, 38, 0
3, 267148, Note_on_c, 2, 30, 0
3, 267212, Note_on_c, 2, 31, 109
3, 267756, Note_on_c, 2, 31, 0
3, 267824, Note_on_c, 2, 37, 110
3, 267964, Note_on_c, 2, 37, 0
3, 268008, Note_on_c, 2, 38, 110
3, 268580, Note_on_c, 2, 31, 110
3, 268592, Note_on_c, 2, 38, 0
3, 268612, Note_on_c, 2, 31, 0
3, 268756, Note_on_c, 2, 30, 110
3, 269356, Note_on_c, 2, 30, 0
3, 269356, Note_on_c, 2, 36, 111
3, 269380, Note_on_c, 2, 30, 111
3, 269408, Note_on_c, 2, 30, 0
3, 269464, Note_on_c, 2, 36, 0
3, 269536, Note_on_c, 2, 37, 111
3, 270128, Note_on_c, 2, 29, 111
3, 270152, Note_on_c, 2, 37, 0
3, 270284, Note_on_c, 2, 29, 0
3, 270296, Note_on_c, 2, 30, 112
3, 270456, Note_on_c, 2, 30, 0
3, 270508, Note_on_c, 2, 30, 112
3, 270576, Note_on_c, 2, 30, 0
3, 270896, Note_on_c, 2, 37, 112
3, 271052, Note_on_c, 2, 37, 0
3, 271076, Note_on_c, 2, 46, 112
3, 271440, Note_on_c, 2, 46, 0
3, 271464, Note_on_c, 2, 37, 112
3, 271664, Note_on_c, 2, 29, 113
3, 271668, Note_on_c, 2, 37, 0
3, 271812, Note_on_c, 2, 29, 0
3, 271844, Note_on_c, 2, 30, 113
3, 272404, Note_on_c, 2, 30, 0
3, 272408, Note_on_c, 2, 37, 113
3, 272468, Note_on_c, 2, 37, 0
3, 272596, Note_on_c, 2, 37, 113
3, 272988, Note_on_c, 2, 29, 102
3, 272996, Note_on_c, 2, 37, 0
3, 273056, Note_on_c, 2, 29, 0
3, 273168, Note_on_c, 2, 29, 103
3, 273316, Note_on_c, 2, 29, 0
3, 273372, Note_on_c, 2, 30, 103
3, 273956, Note_on_c, 2, 37, 103
3, 274052, Note_on_c, 2, 30, 0
3, 274108, Note_on_c, 2, 37, 0
3, 274144, Note_on_c, 2, 46, 104
3, 274284, Note_on_c, 2, 46, 0
3, 274340, Note_on_c, 2, 46, 104
3, 274480, Note_on_c, 2, 46, 0
3, 274528, Note_on_c, 2, 37, 105
3, 274656, Note_on_c, 2, 37, 0
3, 274724, Note_on_c, 2, 30, 105
3, 274912, Note_on_c, 2, 40, 106
3, 274920, Note_on_c, 2, 30, 0
3, 275492, Note_on_c, 2, 35, 106
3, 275500, Note_on_c, 2, 40, 0
3, 275540, Note_on_c, 2, 35, 0
3, 275684, Note_on_c, 2, 35, 107
3, 276240, Note_on_c, 2, 35, 0
3, 276244, Note_on_c, 2, 40, 107
3, 276292, Note_on_c, 2, 40, 0
3, 276452, Note_on_c, 2, 40, 107
3, 276976, Note_on_c, 2, 28, 109
3, 276992, Note_on_c, 2, 40, 0
3, 277052, Note_on_c, 2, 28, 0
3, 277168, Note_on_c, 2, 28, 110
3, 277380, Note_on_c, 2, 35, 110
3, 277448, Note_on_c, 2, 28, 0
3, 277552, Note_on_c, 2, 34, 110
3, 277580, Note_on_c, 2, 35, 0
3, 277728, Note_on_c, 2, 34, 0
3, 277764, Note_on_c, 2, 33, 110
3, 278544, Note_on_c, 2, 40, 111
3, 278588, Note_on_c, 2, 33, 0
3, 278732, Note_on_c, 2, 40, 0
3, 278740, Note_on_c, 2, 49, 111
3, 279312, Note_on_c, 2, 49, 0
3, 279332, Note_on_c, 2, 32, 111
3, 279476, Note_on_c, 2, 32, 0
3, 279520, Note_on_c, 2, 33, 111
3, 279700, Note_on_c, 2, 33, 0
3, 279728, Note_on_c, 2, 33, 111
3, 279788, Note_on_c, 2, 33, 0
3, 280100, Note_on_c, 2, 40, 111
3, 280296, Note_on_c, 2, 49, 111
3, 280396, Note_on_c, 2, 49, 0
3, 280484, Note_on_c, 2, 49, 111
3, 280544, Note_on_c, 2, 40, 0
3, 280592, Note_on_c, 2, 49, 0
3, 280868, Note_on_c, 2, 33, 112
3, 281036, Note_on_c, 2, 33, 0
3, 281064, Note_on_c, 2, 38, 113
3, 281644, Note_on_c, 2, 33, 114
3, 281676, Note_on_c, 2, 38, 0
3, 281696, Note_on_c, 2, 33, 0
3, 281824, Note_on_c, 2, 33, 114
3, 282416, Note_on_c, 2, 37, 114
3, 282424, Note_on_c, 2, 33, 0
3, 282560, Note_on_c, 2, 37, 0
3, 282588, Note_on_c, 2, 38, 114
3, 282784, Note_on_c, 2, 38, 0
3, 282812, Note_on_c, 2, 38, 115
3, 282852, Note_on_c, 2, 38, 0
3, 283172, Note_on_c, 2, 33, 115
3, 283252, Note_on_c, 2, 33, 0
3, 283352, Note_on_c, 2, 33, 116
3, 283716, Note_on_c, 2, 33, 0
3, 283744, Note_on_c, 2, 32, 117
3, 284100, Note_on_c, 2, 32, 0
3, 284132, Note_on_c, 2, 31, 118
3, 284688, Note_on_c, 2, 31, 0
3, 284692, Note_on_c, 2, 38, 118
3, 285456, Note_on_c, 2, 30, 121
3, 285560, Note_on_c, 2, 30, 0
3, 285648, Note_on_c, 2, 31, 121
3, 285672, Note_on_c, 2, 38, 0
3, 286256, Note_on_c, 2, 38, 122
3, 286280, Note_on_c, 2, 38, 0
3, 286308, Note_on_c, 2, 31, 0
3, 286444, Note_on_c, 2, 38, 122
3, 286812, Note_on_c, 2, 31, 122
3, 286848, Note_on_c, 2, 38, 0
3, 287180, Note_on_c, 2, 31, 0
3, 287188, Note_on_c, 2, 37, 122
3, 287804, Note_on_c, 2, 32, 122
3, 287840, Note_on_c, 2, 32, 0
3, 287988, Note_on_c, 2, 32, 122
3, 288032, Note_on_c, 2, 37, 0
3, 288532, Note_on_c, 2, 37, 122
3, 288560, Note_on_c, 2, 32, 0
3, 288588, Note_on_c, 2, 37, 0
3, 288716, Note_on_c, 2, 37, 122
3, 289316, Note_on_c, 2, 31, 122
3, 289352, Note_on_c, 2, 31, 0
3, 289484, Note_on_c, 2, 31, 122
3, 289500, Note_on_c, 2, 37, 0
3, 290084, Note_on_c, 2, 31, 0
3, 290088, Note_on_c, 2, 37, 123
3, 290120, Note_on_c, 2, 37, 0
3, 290272, Note_on_c, 2, 30, 123
3, 290852, Note_on_c, 2, 37, 123
3, 290868, Note_on_c, 2, 30, 0
3, 290876, Note_on_c, 2, 37, 0
3, 291040, Note_on_c, 2, 37, 123
3, 291628, Note_on_c, 2, 46, 123
3, 291632, Note_on_c, 2, 37, 0
3, 292396, Note_on_c, 2, 37, 123
3, 292428, Note_on_c, 2, 46, 0
3, 292448, Note_on_c, 2, 37, 0
3, 292576, Note_on_c, 2, 37, 123
3, 292968, Note_on_c, 2, 37, 0
3, 292980, Note_on_c, 2, 30, 123
3, 293328, Note_on_c, 2, 30, 0
3, 293348, Note_on_c, 2, 35, 123
3, 293932, Note_on_c, 2, 42, 123
3, 293960, Note_on_c, 2, 42, 0
3, 294108, Note_on_c, 2, 42, 105
3, 294176, Note_on_c, 2, 35, 0
3, 294692, Note_on_c, 2, 34, 105
3, 294836, Note_on_c, 2, 34, 0
3, 294836, Note_on_c, 2, 42, 0
3, 294876, Note_on_c, 2, 35, 105
3, 295444, Note_on_c, 2, 42, 107
3, 295496, Note_on_c, 2, 42, 0
3, 295636, Note_on_c, 2, 35, 0
3, 295640, Note_on_c, 2, 42, 109
3, 295720, Note_on_c, 2, 42, 0
3, 295828, Note_on_c, 2, 33, 110
3, 295996, Note_on_c, 2, 33, 0
3, 296016, Note_on_c, 2, 34, 111
3, 296172, Note_on_c, 2, 34, 0
3, 296228, Note_on_c, 2, 35, 112
3, 296980, Note_on_c, 2, 42, 114
3, 297004, Note_on_c, 2, 35, 0
3, 297020, Note_on_c, 2, 42, 0
3, 297188, Note_on_c, 2, 42, 114
3, 297556, Note_on_c, 2, 33, 115
3, 297628, Note_on_c, 2, 42, 0
3, 297632, Note_on_c, 2, 33, 0
3, 297776, Note_on_c, 2, 33, 115
3, 297904, Note_on_c, 2, 33, 0
3, 297948, Note_on_c, 2, 34, 115
3, 298132, Note_on_c, 2, 35, 115
3, 298148, Note_on_c, 2, 34, 0
3, 298536, Note_on_c, 2, 42, 115
3, 298568, Note_on_c, 2, 42, 0
3, 298568, Note_on_c, 2, 35, 0
3, 298700, Note_on_c, 2, 42, 115
3, 298728, Note_on_c, 2, 42, 0
3, 298912, Note_on_c, 2, 33, 115
3, 298944, Note_on_c, 2, 33, 0
3, 299112, Note_on_c, 2, 32, 115
3, 299452, Note_on_c, 2, 32, 0
3, 299496, Note_on_c, 2, 31, 115
3, 300048, Note_on_c, 2, 31, 0
3, 300072, Note_on_c, 2, 38, 115
3, 300104, Note_on_c, 2, 38, 0
3, 300268, Note_on_c, 2, 38, 115
3, 300848, Note_on_c, 2, 30, 115
3, 300964, Note_on_c, 2, 30, 0
3, 301004, Note_on_c, 2, 38, 0
3, 301012, Note_on_c, 2, 31, 115
3, 301592, Note_on_c, 2, 38, 115
3, 301628, Note_on_c, 2, 31, 0
3, 301788, Note_on_c, 2, 38, 0
3, 301800, Note_on_c, 2, 47, 115
3, 301968, Note_on_c, 2, 47, 0
3, 301996, Note_on_c, 2, 47, 115
3, 302060, Note_on_c, 2, 47, 0
3, 302184, Note_on_c, 2, 30, 109
3, 302304, Note_on_c, 2, 30, 0
3, 302352, Note_on_c, 2, 30, 108
3, 302512, Note_on_c, 2, 30, 0
3, 302568, Note_on_c, 2, 31, 106
3, 303148, Note_on_c, 2, 38, 105
3, 303164, Note_on_c, 2, 38, 0
3, 303168, Note_on_c, 2, 31, 0
3, 303324, Note_on_c, 2, 38, 105
3, 303692, Note_on_c, 2, 38, 0
3, 303716, Note_on_c, 2, 47, 106
3, 303856, Note_on_c, 2, 47, 0
3, 303928, Note_on_c, 2, 47, 106
3, 304644, Note_on_c, 2, 47, 0
3, 304676, Note_on_c, 2, 30, 106
3, 304804, Note_on_c, 2, 30, 0
3, 304868, Note_on_c, 2, 31, 109
3, 305044, Note_on_c, 2, 31, 0
3, 305068, Note_on_c, 2, 38, 111
3, 305076, Note_on_c, 2, 31, 111
3, 305096, Note_on_c, 2, 38, 0
3, 305140, Note_on_c, 2, 31, 0
3, 305248, Note_on_c, 2, 38, 113
3, 305452, Note_on_c, 2, 38, 0
3, 305456, Note_on_c, 2, 31, 114
3, 305596, Note_on_c, 2, 31, 0
3, 305652, Note_on_c, 2, 30, 114
3, 306212, Note_on_c, 2, 37, 115
3, 306232, Note_on_c, 2, 37, 0
3, 306380, Note_on_c, 2, 30, 0
3, 306404, Note_on_c, 2, 37, 116
3, 306984, Note_on_c, 2, 29, 117
3, 307084, Note_on_c, 2, 29, 0
3, 307136, Note_on_c, 2, 37, 0
3, 307172, Note_on_c, 2, 30, 118
3, 307756, Note_on_c, 2, 37, 120
3, 307784, Note_on_c, 2, 37, 0
3, 307796, Note_on_c, 2, 30, 0
3, 307948, Note_on_c, 2, 37, 122
3, 308004, Note_on_c, 2, 37, 0
3, 308140, Note_on_c, 2, 37, 122
3, 308304, Note_on_c, 2, 37, 0
3, 308324, Note_on_c, 2, 42, 122
3, 308528, Note_on_c, 2, 42, 0
3, 308704, Note_on_c, 2, 30, 121
3, 309288, Note_on_c, 2, 37, 120
3, 309312, Note_on_c, 2, 37, 0
3, 309412, Note_on_c, 2, 30, 0
3, 309456, Note_on_c, 2, 46, 120
3, 310056, Note_on_c, 2, 37, 117
3, 310112, Note_on_c, 2, 37, 0
3, 310124, Note_on_c, 2, 46, 0
3, 310228, Note_on_c, 2, 30, 116
3, 310384, Note_on_c, 2, 30, 0
3, 310428, Note_on_c, 2, 30, 116
3, 310512, Note_on_c, 2, 30, 0
3, 310788, Note_on_c, 2, 29, 115
3, 310788, Note_on_c, 2, 45, 115
3, 310924, Note_on_c, 2, 29, 0
3, 310948, Note_on_c, 2, 45, 0
3, 310980, Note_on_c, 2, 46, 115
3, 310984, Note_on_c, 2, 30, 115
3, 311344, Note_on_c, 2, 46, 0
3, 311380, Note_on_c, 2, 30, 0
3, 311388, Note_on_c, 2, 37, 115
3, 311544, Note_on_c, 2, 37, 0
3, 311568, Note_on_c, 2, 30, 115
3, 311696, Note_on_c, 2, 30, 0
3, 311772, Note_on_c, 2, 40, 115
3, 312324, Note_on_c, 2, 40, 0
3, 312364, Note_on_c, 2, 35, 117
3, 312444, Note_on_c, 2, 35, 0
3, 312544, Note_on_c, 2, 35, 117
3, 313108, Note_on_c, 2, 35, 0
3, 313128, Note_on_c, 2, 40, 118
3, 313152, Note_on_c, 2, 40, 0
3, 313320, Note_on_c, 2, 40, 118
3, 313872, Note_on_c, 2, 40, 0
3, 313892, Note_on_c, 2, 34, 118
3, 314064, Note_on_c, 2, 34, 0
3, 314080, Note_on_c, 2, 35, 118
3, 314192, Note_on_c, 2, 35, 0
3, 314268, Note_on_c, 2, 35, 118
3, 314364, Note_on_c, 2, 35, 0
3, 314464, Note_on_c, 2, 34, 109
3, 314536, Note_on_c, 2, 34, 0
3, 314660, Note_on_c, 2, 34, 109
3, 314776, Note_on_c, 2, 34, 0
3, 314836, Note_on_c, 2, 33, 109
3, 315412, Note_on_c, 2, 33, 0
3, 315436, Note_on_c, 2, 40, 109
3, 315452, Note_on_c, 2, 40, 0
3, 315624, Note_on_c, 2, 40, 109
3, 315684, Note_on_c, 2, 40, 0
3, 315780, Note_on_c, 2, 31, 109
3, 315888, Note_on_c, 2, 31, 0
3, 315980, Note_on_c, 2, 32, 109
3, 316180, Note_on_c, 2, 32, 0
3, 316204, Note_on_c, 2, 33, 109
3, 316968, Note_on_c, 2, 33, 0
3, 316972, Note_on_c, 2, 40, 109
3, 316992, Note_on_c, 2, 40, 0
3, 317152, Note_on_c, 2, 40, 109
3, 317516, Note_on_c, 2, 49, 109
3, 317608, Note_on_c, 2, 40, 0
3, 317640, Note_on_c, 2, 49, 0
3, 317716, Note_on_c, 2, 39, 109
3, 317872, Note_on_c, 2, 39, 0
3, 317900, Note_on_c, 2, 38, 109
3, 318484, Note_on_c, 2, 33, 110
3, 318560, Note_on_c, 2, 38, 0
3, 319224, Note_on_c, 2, 33, 0
3, 319268, Note_on_c, 2, 38, 114
3, 319296, Note_on_c, 2, 38, 0
3, 319468, Note_on_c, 2, 38, 114
3, 319468, Note_on_c, 2, 40, 114
3, 319500, Note_on_c, 2, 40, 0
3, 319824, Note_on_c, 2, 31, 116
3, 319892, Note_on_c, 2, 31, 0
3, 320044, Note_on_c, 2, 32, 116
3, 320128, Note_on_c, 2, 32, 0
3, 320224, Note_on_c, 2, 33, 116
3, 320232, Note_on_c, 2, 38, 0
3, 320576, Note_on_c, 2, 38, 117
3, 320592, Note_on_c, 2, 33, 0
3, 320648, Note_on_c, 2, 38, 0
3, 320788, Note_on_c, 2, 33, 117
3, 320820, Note_on_c, 2, 33, 0
3, 320972, Note_on_c, 2, 43, 117
3, 321584, Note_on_c, 2, 38, 118
3, 321604, Note_on_c, 2, 43, 0
3, 321608, Note_on_c, 2, 38, 0
3, 321756, Note_on_c, 2, 38, 119
3, 322340, Note_on_c, 2, 38, 0
3, 322340, Note_on_c, 2, 42, 119
3, 322492, Note_on_c, 2, 42, 0
3, 322516, Note_on_c, 2, 43, 119
3, 323112, Note_on_c, 2, 37, 119
3, 323156, Note_on_c, 2, 43, 0
3, 323276, Note_on_c, 2, 37, 0
3, 323284, Note_on_c, 2, 38, 120
3, 323504, Note_on_c, 2, 43, 120
3, 323540, Note_on_c, 2, 38, 0
3, 323608, Note_on_c, 2, 43, 0
3, 323712, Note_on_c, 2, 37, 120
3, 323728, Note_on_c, 2, 37, 0
3, 323892, Note_on_c, 2, 38, 120
3, 324004, Note_on_c, 2, 38, 0
3, 324068, Note_on_c, 2, 37, 120
3, 324676, Note_on_c, 2, 31, 120
3, 324716, Note_on_c, 2, 31, 0
3, 324836, Note_on_c, 2, 31, 120
3, 324864, Note_on_c, 2, 37, 0
3, 325380, Note_on_c, 2, 31, 0
3, 325392, Note_on_c, 2, 37, 120
3, 325488, Note_on_c, 2, 37, 0
3, 325596, Note_on_c, 2, 37, 120
3, 326112, Note_on_c, 2, 37, 0
3, 326188, Note_on_c, 2, 37, 120
3, 326240, Note_on_c, 2, 37, 0
3, 326368, Note_on_c, 2, 44, 120
3, 326732, Note_on_c, 2, 44, 0
3, 326756, Note_on_c, 2, 43, 120
3, 326952, Note_on_c, 2, 37, 120
3, 326996, Note_on_c, 2, 37, 0
3, 326996, Note_on_c, 2, 43, 0
3, 327144, Note_on_c, 2, 42, 120
3, 327724, Note_on_c, 2, 37, 120
3, 327740, Note_on_c, 2, 37, 0
3, 327884, Note_on_c, 2, 42, 0
3, 327892, Note_on_c, 2, 37, 120
3, 328468, Note_on_c, 2, 30, 120
3, 328484, Note_on_c, 2, 37, 0
3, 329256, Note_on_c, 2, 37, 120
3, 329284, Note_on_c, 2, 37, 0
3, 329444, Note_on_c, 2, 42, 120
3, 329804, Note_on_c, 2, 42, 0
3, 329920, Note_on_c, 2, 30, 0
3, 330020, Note_on_c, 2, 34, 120
3, 330136, Note_on_c, 2, 34, 0
3, 330196, Note_on_c, 2, 35, 120
3, 330768, Note_on_c, 2, 35, 0
3, 330772, Note_on_c, 2, 42, 120
3, 330824, Note_on_c, 2, 42, 0
3, 330964, Note_on_c, 2, 42, 120
3, 331024, Note_on_c, 2, 42, 0
3, 331156, Note_on_c, 2, 33, 120
3, 331540, Note_on_c, 2, 33, 0
3, 331544, Note_on_c, 2, 35, 120
3, 332324, Note_on_c, 2, 35, 0
3, 332324, Note_on_c, 2, 42, 120
3, 332356, Note_on_c, 2, 42, 0
3, 332496, Note_on_c, 2, 42, 120
3, 332548, Note_on_c, 2, 42, 0
3, 332704, Note_on_c, 2, 33, 120
3, 332736, Note_on_c, 2, 33, 0
3, 332896, Note_on_c, 2, 34, 120
3, 333232, Note_on_c, 2, 34, 0
3, 333264, Note_on_c, 2, 35, 120
3, 333864, Note_on_c, 2, 42, 119
3, 333900, Note_on_c, 2, 35, 0
3, 333920, Note_on_c, 2, 42, 0
3, 334056, Note_on_c, 2, 42, 119
3, 334608, Note_on_c, 2, 34, 118
3, 334744, Note_on_c, 2, 42, 0
3, 334748, Note_on_c, 2, 34, 0
3, 334812, Note_on_c, 2, 35, 118
3, 335396, Note_on_c, 2, 42, 116
3, 335424, Note_on_c, 2, 42, 0
3, 335536, Note_on_c, 2, 35, 0
3, 335564, Note_on_c, 2, 42, 115
3, 335648, Note_on_c, 2, 42, 0
3, 335772, Note_on_c, 2, 35, 115
3, 335808, Note_on_c, 2, 35, 0
3, 335948, Note_on_c, 2, 41, 115
3, 336076, Note_on_c, 2, 41, 0
3, 336360, Note_on_c, 2, 40, 115
3, 337120, Note_on_c, 2, 35, 101
3, 337680, Note_on_c, 2, 40, 0
3, 337684, Note_on_c, 2, 35, 0
3, 337704, Note_on_c, 2, 33, 102
3, 338424, Note_on_c, 2, 40, 104
3, 338528, Note_on_c, 2, 33, 0
3, 338860, Note_on_c, 2, 33, 105
3, 338912, Note_on_c, 2, 33, 0
3, 338980, Note_on_c, 2, 40, 0
3, 339044, Note_on_c, 2, 39, 105
3, 339376, Note_on_c, 2, 39, 0
3, 339424, Note_on_c, 2, 38, 106
3, 340368, Note_on_c, 2, 33, 110
3, 340404, Note_on_c, 2, 33, 0
3, 340548, Note_on_c, 2, 32, 110
3, 340584, Note_on_c, 2, 38, 0
3, 340728, Note_on_c, 2, 32, 0
3, 340752, Note_on_c, 2, 31, 111
3, 341496, Note_on_c, 2, 38, 112
3, 341568, Note_on_c, 2, 31, 0
3, 342308, Note_on_c, 2, 31, 113
3, 342388, Note_on_c, 2, 31, 0
3, 342412, Note_on_c, 2, 38, 0
3, 342504, Note_on_c, 2, 37, 113
3, 343620, Note_on_c, 2, 37, 0
3, 343624, Note_on_c, 2, 30, 113
3, 344976, Note_on_c, 2, 37, 115
3, 345072, Note_on_c, 2, 37, 0
3, 345072, Note_on_c, 2, 30, 0
3, 345168, Note_on_c, 2, 34, 115
3, 345472, Note_on_c, 2, 34, 0
3, 345548, Note_on_c, 2, 35, 115
3, 346436, Note_on_c, 2, 35, 0
3, 346700, Note_on_c, 2, 35, 116
3, 348648, Note_on_c, 2, 38, 119
3, 348652, Note_on_c, 2, 35, 0
3, 348684, Note_on_c, 2, 38, 0
3, 349020, Note_on_c, 2, 42, 119
3, 349172, Note_on_c, 2, 42, 0
3, 349200, Note_on_c, 2, 38, 120
3, 349328, Note_on_c, 2, 38, 0
3, 349392, Note_on_c, 2, 40, 120
3, 349560, Note_on_c, 2, 40, 0
3, 349604, Note_on_c, 2, 38, 120
3, 349732, Note_on_c, 2, 38, 0
3, 349764, Note_on_c, 2, 35, 120
3, 349848, Note_on_c, 2, 35, 0
3, 349968, Note_on_c, 2, 38, 121
3, 350080, Note_on_c, 2, 38, 0
3, 350368, Note_on_c, 2, 37, 122
3, 350484, Note_on_c, 2, 37, 0
3, 350532, Note_on_c, 2, 33, 122
3, 350624, Note_on_c, 2, 33, 0
3, 350736, Note_on_c, 2, 37, 123
3, 351120, Note_on_c, 2, 37, 0
3, 351164, Note_on_c, 2, 35, 123
3, 351212, Note_on_c, 2, 35, 0
3, 351332, Note_on_c, 2, 31, 123
3, 351372, Note_on_c, 2, 31, 0
3, 351720, Note_on_c, 2, 28, 123
3, 352060, Note_on_c, 2, 35, 123
3, 352128, Note_on_c, 2, 35, 0
3, 352304, Note_on_c, 2, 43, 123
3, 352352, Note_on_c, 2, 43, 0
3, 352632, Note_on_c, 2, 35, 123
3, 352656, Note_on_c, 2, 28, 0
3, 352784, Note_on_c, 2, 35, 0
3, 352848, Note_on_c, 2, 28, 122
3, 353600, Note_on_c, 2, 28, 0
3, 354016, Note_on_c, 2, 30, 101
3, 354380, Note_on_c, 2, 37, 104
3, 354500, Note_on_c, 2, 37, 0
3, 354580, Note_on_c, 2, 42, 106
3, 354632, Note_on_c, 2, 42, 0
3, 354960, Note_on_c, 2, 37, 108
3, 355008, Note_on_c, 2, 30, 0
3, 355148, Note_on_c, 2, 37, 0
3, 355156, Note_on_c, 2, 30, 109
3, 357456, Note_on_c, 2, 30, 0
3, 357676, Note_on_c, 2, 30, 118
3, 357748, Note_on_c, 2, 30, 0
3, 357844, Note_on_c, 2, 31, 118
3, 358436, Note_on_c, 2, 38, 119
3, 358476, Note_on_c, 2, 31, 0
3, 359012, Note_on_c, 2, 38, 0
3, 359016, Note_on_c, 2, 47, 119
3, 359044, Note_on_c, 2, 47, 0
3, 359184, Note_on_c, 2, 38, 119
3, 359312, Note_on_c, 2, 38, 0
3, 359400, Note_on_c, 2, 31, 119
3, 359976, Note_on_c, 2, 38, 120
3, 360088, Note_on_c, 2, 38, 0
3, 360112, Note_on_c, 2, 31, 0
3, 360160, Note_on_c, 2, 47, 120
3, 360304, Note_on_c, 2, 47, 0
3, 360336, Note_on_c, 2, 47, 120
3, 360404, Note_on_c, 2, 47, 0
3, 360528, Note_on_c, 2, 38, 120
3, 360720, Note_on_c, 2, 31, 120
3, 360788, Note_on_c, 2, 38, 0
3, 360804, Note_on_c, 2, 31, 0
3, 360936, Note_on_c, 2, 30, 121
3, 361524, Note_on_c, 2, 37, 121
3, 361540, Note_on_c, 2, 30, 0
3, 361928, Note_on_c, 2, 42, 121
3, 361968, Note_on_c, 2, 42, 0
3, 362088, Note_on_c, 2, 46, 121
3, 362176, Note_on_c, 2, 46, 0
3, 362176, Note_on_c, 2, 37, 0
3, 362276, Note_on_c, 2, 37, 122
3, 362372, Note_on_c, 2, 37, 0
3, 362468, Note_on_c, 2, 30, 122
3, 363052, Note_on_c, 2, 37, 123
3, 363120, Note_on_c, 2, 30, 0
3, 363172, Note_on_c, 2, 37, 0
3, 363236, Note_on_c, 2, 46, 123
3, 363328, Note_on_c, 2, 46, 0
3, 363424, Note_on_c, 2, 46, 123
3, 363500, Note_on_c, 2, 46, 0
3, 363584, Note_on_c, 2, 37, 124
3, 363684, Note_on_c, 2, 37, 0
3, 363780, Note_on_c, 2, 30, 124
3, 363848, Note_on_c, 2, 30, 0
3, 363964, Note_on_c, 2, 28, 124
3, 364588, Note_on_c, 2, 35, 124
3, 364612, Note_on_c, 2, 35, 0
3, 364752, Note_on_c, 2, 35, 124
3, 364976, Note_on_c, 2, 28, 0
3, 365328, Note_on_c, 2, 35, 0
3, 365360, Note_on_c, 2, 33, 125
3, 366116, Note_on_c, 2, 40, 125
3, 366256, Note_on_c, 2, 33, 0
3, 366284, Note_on_c, 2, 49, 125
3, 366756, Note_on_c, 2, 40, 0
3, 366884, Note_on_c, 2, 37, 126
3, 366988, Note_on_c, 2, 49, 0
3, 367000, Note_on_c, 2, 37, 0
3, 367056, Note_on_c, 2, 38, 126
3, 368032, Note_on_c, 2, 33, 127
3, 368084, Note_on_c, 2, 33, 0
3, 368204, Note_on_c, 2, 32, 127
3, 368268, Note_on_c, 2, 32, 0
3, 368400, Note_on_c, 2, 31, 127
3, 368432, Note_on_c, 2, 38, 0
3, 369168, Note_on_c, 2, 38, 127
3, 369200, Note_on_c, 2, 38, 0
3, 369236, Note_on_c, 2, 31, 0
3, 369356, Note_on_c, 2, 43, 127
3, 369396, Note_on_c, 2, 43, 0
3, 369756, Note_on_c, 2, 38, 127
3, 369884, Note_on_c, 2, 38, 0
3, 369936, Note_on_c, 2, 31, 127
3, 370132, Note_on_c, 2, 37, 127
3, 370140, Note_on_c, 2, 31, 0
3, 370724, Note_on_c, 2, 32, 127
3, 370764, Note_on_c, 2, 32, 0
3, 370880, Note_on_c, 2, 32, 126
3, 370916, Note_on_c, 2, 37, 0
3, 371448, Note_on_c, 2, 32, 0
3, 371472, Note_on_c, 2, 31, 125
3, 371584, Note_on_c, 2, 31, 0
3, 371648, Note_on_c, 2, 30, 124
3, 372260, Note_on_c, 2, 42, 122
3, 372288, Note_on_c, 2, 30, 0
3, 372612, Note_on_c, 2, 30, 121
3, 372680, Note_on_c, 2, 30, 0
3, 372788, Note_on_c, 2, 33, 120
3, 372864, Note_on_c, 2, 33, 0
3, 372960, Note_on_c, 2, 34, 120
3, 373040, Note_on_c, 2, 42, 0
3, 373076, Note_on_c, 2, 34, 0
3, 373168, Note_on_c, 2, 35, 119
3, 374016, Note_on_c, 2, 35, 0
3, 374336, Note_on_c, 2, 35, 110
3, 375944, Note_on_c, 2, 35, 0
3, 376272, Note_on_c, 2, 35, 108
3, 376348, Note_on_c, 2, 35, 0
3, 376868, Note_on_c, 2, 40, 108
3, 376928, Note_on_c, 2, 40, 0
3, 377636, Note_on_c, 2, 43, 108
3, 377780, Note_on_c, 2, 43, 0
3, 377804, Note_on_c, 2, 42, 108
3, 378148, Note_on_c, 2, 42, 0
3, 378172, Note_on_c, 2, 38, 108
3, 378372, Note_on_c, 2, 38, 0
3, 378384, Note_on_c, 2, 35, 108
3, 378468, Note_on_c, 2, 35, 0
3, 378564, Note_on_c, 2, 40, 108
3, 378652, Note_on_c, 2, 40, 0
3, 378704, Note_on_c, 2, 34, 108
3, 378736, Note_on_c, 2, 34, 0
3, 379184, Note_on_c, 2, 33, 108
3, 379268, Note_on_c, 2, 33, 0
3, 379940, Note_on_c, 2, 38, 108
3, 380092, Note_on_c, 2, 38, 0
3, 380116, Note_on_c, 2, 37, 107
3, 380252, Note_on_c, 2, 37, 0
3, 380884, Note_on_c, 2, 33, 106
3, 381060, Note_on_c, 2, 33, 0
3, 381076, Note_on_c, 2, 35, 106
3, 381120, Note_on_c, 2, 35, 0
3, 381456, Note_on_c, 2, 31, 106
3, 381536, Note_on_c, 2, 31, 0
3, 381820, Note_on_c, 2, 31, 106
3, 381872, Note_on_c, 2, 31, 0
3, 382000, Note_on_c, 2, 38, 106
3, 382372, Note_on_c, 2, 38, 0
3, 382420, Note_on_c, 2, 40, 108
3, 382628, Note_on_c, 2, 40, 0
3, 383012, Note_on_c, 2, 40, 111
3, 383116, Note_on_c, 2, 40, 0
3, 383180, Note_on_c, 2, 43, 112
3, 383540, Note_on_c, 2, 43, 0
3, 383556, Note_on_c, 2, 42, 113
3, 383656, Note_on_c, 2, 42, 0
3, 383760, Note_on_c, 2, 38, 113
3, 383896, Note_on_c, 2, 38, 0
3, 383940, Note_on_c, 2, 35, 114
3, 384268, Note_on_c, 2, 35, 0
3, 384332, Note_on_c, 2, 38, 116
3, 384504, Note_on_c, 2, 35, 116
3, 384508, Note_on_c, 2, 38, 0
3, 384596, Note_on_c, 2, 35, 0
3, 384708, Note_on_c, 2, 40, 116
3, 385088, Note_on_c, 2, 40, 0
3, 385108, Note_on_c, 2, 37, 117
3, 385296, Note_on_c, 2, 35, 117
3, 385328, Note_on_c, 2, 37, 0
3, 385348, Note_on_c, 2, 35, 0
3, 385668, Note_on_c, 2, 30, 117
3, 385804, Note_on_c, 2, 30, 0
3, 385892, Note_on_c, 2, 28, 117
3, 386436, Note_on_c, 2, 28, 0
3, 386468, Note_on_c, 2, 30, 117
3, 386544, Note_on_c, 2, 30, 0
3, 386800, Note_on_c, 2, 35, 117
3, 386912, Note_on_c, 2, 35, 0
3, 386992, Note_on_c, 2, 37, 117
3, 387604, Note_on_c, 2, 32, 117
3, 387688, Note_on_c, 2, 32, 0
3, 388004, Note_on_c, 2, 30, 117
3, 388080, Note_on_c, 2, 30, 0
3, 388172, Note_on_c, 2, 28, 117
3, 388200, Note_on_c, 2, 37, 0
3, 388388, Note_on_c, 2, 28, 0
3, 388740, Note_on_c, 2, 37, 117
3, 388864, Note_on_c, 2, 37, 0
3, 388932, Note_on_c, 2, 42, 117
3, 389072, Note_on_c, 2, 42, 0
3, 389136, Note_on_c, 2, 37, 117
3, 389248, Note_on_c, 2, 37, 0
3, 389332, Note_on_c, 2, 44, 117
3, 389472, Note_on_c, 2, 44, 0
3, 389532, Note_on_c, 2, 37, 117
3, 389568, Note_on_c, 2, 37, 0
3, 389724, Note_on_c, 2, 46, 117
3, 389936, Note_on_c, 2, 46, 0
3, 390381, Note_on_c, 2, 42, 117
3, 390413, Note_on_c, 2, 42, 0
3, 391412, Note_on_c, 2, 54, 117
3, 391568, Note_on_c, 2, 54, 0
3, 391883, Note_on_c, 2, 31, 84
3, 395661, Note_on_c, 2, 34, 87
3, 395680, Note_on_c, 2, 31, 0
3, 401210, Note_on_c, 2, 35, 78
3, 401225, Note_on_c, 2, 36, 80
3, 401284, Note_on_c, 2, 34, 0
3, 401402, Note_on_c, 2, 36, 0
3, 403944, Note_on_c, 2, 47, 67
3, 406875, Note_on_c, 2, 35, 0
3, 408222, Note_on_c, 2, 47, 0
3, 408222, End_track
4, 0, Start_track
4, 0, MIDI_port, 0
4, 0, Title_t, ""
4, 0, Program_c, 3, 35
4, 0, Control_c, 3, 7, 86
4, 0, Control_c, 3, 0, 0
4, 0, Control_c, 3, 32, 0
4, 0, Program_c, 3, 35
4, 1512, Note_on_c, 3, 38, 80
4, 1684, Note_on_c, 3, 38, 0
4, 1868, Note_on_c, 3, 42, 80
4, 2028, Note_on_c, 3, 42, 0
4, 2088, Note_on_c, 3, 38, 81
4, 2188, Note_on_c, 3, 38, 0
4, 2252, Note_on_c, 3, 40, 81
4, 2416, Note_on_c, 3, 40, 0
4, 2452, Note_on_c, 3, 38, 81
4, 2552, Note_on_c, 3, 38, 0
4, 2628, Note_on_c, 3, 35, 82
4, 2752, Note_on_c, 3, 35, 0
4, 2836, Note_on_c, 3, 38, 85
4, 3228, Note_on_c, 3, 38, 0
4, 3236, Note_on_c, 3, 37, 87
4, 3340, Note_on_c, 3, 37, 0
4, 3420, Note_on_c, 3, 33, 88
4, 3536, Note_on_c, 3, 33, 0
4, 3628, Note_on_c, 3, 37, 91
4, 3984, Note_on_c, 3, 37, 0
4, 3984, Note_on_c, 3, 35, 92
4, 4132, Note_on_c, 3, 35, 0
4, 4200, Note_on_c, 3, 31, 92
4, 4264, Note_on_c, 3, 31, 0
4, 4608, Note_on_c, 3, 28, 92
4, 4960, Note_on_c, 3, 35, 92
4, 4992, Note_on_c, 3, 35, 0
4, 5112, Note_on_c, 3, 28, 0
4, 5160, Note_on_c, 3, 43, 92
4, 5228, Note_on_c, 3, 43, 0
4, 5532, Note_on_c, 3, 35, 92
4, 5636, Note_on_c, 3, 35, 0
4, 5740, Note_on_c, 3, 28, 92
4, 6480, Note_on_c, 3, 28, 0
4, 6888, Note_on_c, 3, 30, 92
4, 7268, Note_on_c, 3, 37, 92
4, 7464, Note_on_c, 3, 37, 0
4, 7472, Note_on_c, 3, 42, 92
4, 7520, Note_on_c, 3, 42, 0
4, 7524, Note_on_c, 3, 30, 0
4, 7840, Note_on_c, 3, 37, 92
4, 7956, Note_on_c, 3, 37, 0
4, 8012, Note_on_c, 3, 30, 92
4, 10404, Note_on_c, 3, 30, 0
4, 10540, Note_on_c, 3, 30, 92
4, 10660, Note_on_c, 3, 30, 0
4, 10724, Note_on_c, 3, 30, 92
4, 10732, Note_on_c, 3, 31, 92
4, 10740, Note_on_c, 3, 30, 0
4, 11304, Note_on_c, 3, 38, 92
4, 11316, Note_on_c, 3, 31, 0
4, 11880, Note_on_c, 3, 47, 94
4, 11892, Note_on_c, 3, 38, 0
4, 11924, Note_on_c, 3, 47, 0
4, 12076, Note_on_c, 3, 38, 94
4, 12116, Note_on_c, 3, 38, 0
4, 12264, Note_on_c, 3, 31, 94
4, 12864, Note_on_c, 3, 38, 95
4, 12884, Note_on_c, 3, 31, 0
4, 12908, Note_on_c, 3, 38, 0
4, 13044, Note_on_c, 3, 38, 96
4, 13412, Note_on_c, 3, 47, 96
4, 13444, Note_on_c, 3, 38, 0
4, 13452, Note_on_c, 3, 47, 0
4, 13604, Note_on_c, 3, 38, 96
4, 13640, Note_on_c, 3, 38, 0
4, 13796, Note_on_c, 3, 30, 97
4, 14320, Note_on_c, 3, 30, 0
4, 14356, Note_on_c, 3, 37, 98
4, 14988, Note_on_c, 3, 44, 100
4, 15016, Note_on_c, 3, 44, 0
4, 15040, Note_on_c, 3, 37, 0
4, 15168, Note_on_c, 3, 37, 100
4, 15248, Note_on_c, 3, 37, 0
4, 15360, Note_on_c, 3, 30, 100
4, 15924, Note_on_c, 3, 37, 101
4, 15980, Note_on_c, 3, 30, 0
4, 16052, Note_on_c, 3, 37, 0
4, 16308, Note_on_c, 3, 46, 102
4, 16420, Note_on_c, 3, 46, 0
4, 16484, Note_on_c, 3, 37, 103
4, 16576, Note_on_c, 3, 37, 0
4, 16688, Note_on_c, 3, 39, 104
4, 16788, Note_on_c, 3, 39, 0
4, 16868, Note_on_c, 3, 40, 104
4, 17444, Note_on_c, 3, 35, 105
4, 17968, Note_on_c, 3, 35, 0
4, 18220, Note_on_c, 3, 34, 108
4, 18248, Note_on_c, 3, 40, 0
4, 18276, Note_on_c, 3, 34, 0
4, 18404, Note_on_c, 3, 33, 108
4, 18980, Note_on_c, 3, 40, 110
4, 19004, Note_on_c, 3, 40, 0
4, 19048, Note_on_c, 3, 33, 0
4, 19156, Note_on_c, 3, 49, 110
4, 19772, Note_on_c, 3, 37, 112
4, 19832, Note_on_c, 3, 49, 0
4, 19864, Note_on_c, 3, 37, 0
4, 19956, Note_on_c, 3, 38, 112
4, 20484, Note_on_c, 3, 38, 0
4, 20540, Note_on_c, 3, 33, 112
4, 21232, Note_on_c, 3, 33, 0
4, 21292, Note_on_c, 3, 31, 112
4, 22032, Note_on_c, 3, 38, 109
4, 22076, Note_on_c, 3, 38, 0
4, 22128, Note_on_c, 3, 31, 0
4, 22228, Note_on_c, 3, 43, 105
4, 22260, Note_on_c, 3, 43, 0
4, 22632, Note_on_c, 3, 38, 76
4, 22996, Note_on_c, 3, 38, 0
4, 23012, Note_on_c, 3, 37, 103
4, 23968, Note_on_c, 3, 44, 103
4, 24008, Note_on_c, 3, 37, 0
4, 24048, Note_on_c, 3, 44, 0
4, 24336, Note_on_c, 3, 37, 103
4, 24396, Note_on_c, 3, 37, 0
4, 24516, Note_on_c, 3, 42, 103
4, 25132, Note_on_c, 3, 37, 103
4, 25160, Note_on_c, 3, 37, 0
4, 25308, Note_on_c, 3, 37, 103
4, 25568, Note_on_c, 3, 42, 0
4, 25648, Note_on_c, 3, 37, 0
4, 25696, Note_on_c, 3, 30, 103
4, 25872, Note_on_c, 3, 30, 0
4, 26084, Note_on_c, 3, 35, 103
4, 26960, Note_on_c, 3, 35, 0
4, 27188, Note_on_c, 3, 35, 103
4, 28828, Note_on_c, 3, 35, 0
4, 29132, Note_on_c, 3, 35, 103
4, 29216, Note_on_c, 3, 35, 0
4, 29740, Note_on_c, 3, 40, 103
4, 29808, Note_on_c, 3, 40, 0
4, 30484, Note_on_c, 3, 43, 103
4, 30644, Note_on_c, 3, 43, 0
4, 30668, Note_on_c, 3, 42, 103
4, 31060, Note_on_c, 3, 38, 105
4, 31076, Note_on_c, 3, 42, 0
4, 31248, Note_on_c, 3, 38, 0
4, 31268, Note_on_c, 3, 35, 107
4, 31428, Note_on_c, 3, 35, 0
4, 31464, Note_on_c, 3, 40, 107
4, 31540, Note_on_c, 3, 40, 0
4, 32052, Note_on_c, 3, 33, 109
4, 32144, Note_on_c, 3, 33, 0
4, 32804, Note_on_c, 3, 38, 111
4, 32948, Note_on_c, 3, 38, 0
4, 32992, Note_on_c, 3, 37, 111
4, 33184, Note_on_c, 3, 37, 0
4, 33780, Note_on_c, 3, 33, 113
4, 33952, Note_on_c, 3, 33, 0
4, 33964, Note_on_c, 3, 35, 114
4, 34032, Note_on_c, 3, 35, 0
4, 34320, Note_on_c, 3, 31, 115
4, 34448, Note_on_c, 3, 31, 0
4, 34704, Note_on_c, 3, 31, 115
4, 34876, Note_on_c, 3, 31, 0
4, 34900, Note_on_c, 3, 38, 116
4, 34972, Note_on_c, 3, 38, 0
4, 35276, Note_on_c, 3, 40, 117
4, 35436, Note_on_c, 3, 40, 0
4, 35880, Note_on_c, 3, 40, 119
4, 36016, Note_on_c, 3, 40, 0
4, 36068, Note_on_c, 3, 43, 119
4, 36388, Note_on_c, 3, 43, 0
4, 36428, Note_on_c, 3, 42, 119
4, 36532, Note_on_c, 3, 42, 0
4, 36624, Note_on_c, 3, 38, 120
4, 36772, Note_on_c, 3, 38, 0
4, 36836, Note_on_c, 3, 35, 120
4, 37180, Note_on_c, 3, 35, 0
4, 37212, Note_on_c, 3, 38, 120
4, 37392, Note_on_c, 3, 38, 0
4, 37396, Note_on_c, 3, 35, 120
4, 37572, Note_on_c, 3, 35, 0
4, 37584, Note_on_c, 3, 40, 121
4, 37924, Note_on_c, 3, 40, 0
4, 37972, Note_on_c, 3, 37, 123
4, 38112, Note_on_c, 3, 37, 0
4, 38180, Note_on_c, 3, 35, 123
4, 38240, Note_on_c, 3, 35, 0
4, 38560, Note_on_c, 3, 30, 123
4, 38704, Note_on_c, 3, 30, 0
4, 38756, Note_on_c, 3, 28, 124
4, 39340, Note_on_c, 3, 28, 0
4, 39348, Note_on_c, 3, 30, 124
4, 39408, Note_on_c, 3, 30, 0
4, 39716, Note_on_c, 3, 35, 125
4, 39808, Note_on_c, 3, 35, 0
4, 39908, Note_on_c, 3, 37, 125
4, 40484, Note_on_c, 3, 34, 125
4, 40532, Note_on_c, 3, 37, 0
4, 40860, Note_on_c, 3, 32, 125
4, 40880, Note_on_c, 3, 34, 0
4, 40996, Note_on_c, 3, 32, 0
4, 41052, Note_on_c, 3, 30, 126
4, 41632, Note_on_c, 3, 37, 126
4, 41664, Note_on_c, 3, 37, 0
4, 41672, Note_on_c, 3, 30, 0
4, 41804, Note_on_c, 3, 42, 126
4, 41888, Note_on_c, 3, 42, 0
4, 42208, Note_on_c, 3, 44, 126
4, 42328, Note_on_c, 3, 44, 0
4, 42404, Note_on_c, 3, 37, 126
4, 42452, Note_on_c, 3, 37, 0
4, 42596, Note_on_c, 3, 46, 126
4, 42688, Note_on_c, 3, 46, 0
4, 42980, Note_on_c, 3, 45, 126
4, 43285, Note_on_c, 3, 42, 100
4, 43324, Note_on_c, 3, 45, 0
4, 43669, Note_on_c, 3, 42, 0
4, 43924, Note_on_c, 3, 42, 126
4, 43988, Note_on_c, 3, 42, 0
4, 44324, Note_on_c, 3, 42, 126
4, 44488, Note_on_c, 3, 42, 0
4, 44516, Note_on_c, 3, 40, 126
4, 45108, Note_on_c, 3, 38, 126
4, 45140, Note_on_c, 3, 40, 0
4, 45868, Note_on_c, 3, 35, 115
4, 45900, Note_on_c, 3, 38, 0
4, 49128, Note_on_c, 3, 35, 0
4, 49128, Note_on_c, 3, 38, 114
4, 49188, Note_on_c, 3, 38, 0
4, 49488, Note_on_c, 3, 42, 114
4, 49636, Note_on_c, 3, 42, 0
4, 49684, Note_on_c, 3, 38, 114
4, 49768, Note_on_c, 3, 38, 0
4, 49888, Note_on_c, 3, 40, 114
4, 50040, Note_on_c, 3, 40, 0
4, 50064, Note_on_c, 3, 38, 114
4, 50200, Note_on_c, 3, 38, 0
4, 50252, Note_on_c, 3, 35, 114
4, 50304, Note_on_c, 3, 35, 0
4, 50468, Note_on_c, 3, 38, 114
4, 50540, Note_on_c, 3, 38, 0
4, 50860, Note_on_c, 3, 37, 115
4, 50980, Note_on_c, 3, 37, 0
4, 51036, Note_on_c, 3, 33, 115
4, 51148, Note_on_c, 3, 33, 0
4, 51236, Note_on_c, 3, 37, 115
4, 51600, Note_on_c, 3, 37, 0
4, 51628, Note_on_c, 3, 35, 115
4, 51668, Note_on_c, 3, 35, 0
4, 51808, Note_on_c, 3, 31, 115
4, 51872, Note_on_c, 3, 31, 0
4, 52212, Note_on_c, 3, 28, 116
4, 52580, Note_on_c, 3, 35, 116
4, 52620, Note_on_c, 3, 35, 0
4, 52784, Note_on_c, 3, 43, 116
4, 52884, Note_on_c, 3, 28, 0
4, 52888, Note_on_c, 3, 43, 0
4, 53156, Note_on_c, 3, 35, 116
4, 53284, Note_on_c, 3, 35, 0
4, 53352, Note_on_c, 3, 28, 116
4, 54132, Note_on_c, 3, 28, 0
4, 54476, Note_on_c, 3, 30, 116
4, 54884, Note_on_c, 3, 37, 116
4, 54912, Note_on_c, 3, 37, 0
4, 55080, Note_on_c, 3, 46, 116
4, 55124, Note_on_c, 3, 46, 0
4, 55428, Note_on_c, 3, 37, 116
4, 55460, Note_on_c, 3, 30, 0
4, 55548, Note_on_c, 3, 37, 0
4, 55628, Note_on_c, 3, 30, 116
4, 57948, Note_on_c, 3, 30, 0
4, 58156, Note_on_c, 3, 30, 116
4, 58236, Note_on_c, 3, 30, 0
4, 58340, Note_on_c, 3, 31, 116
4, 58924, Note_on_c, 3, 38, 116
4, 58940, Note_on_c, 3, 31, 0
4, 59492, Note_on_c, 3, 47, 116
4, 59520, Note_on_c, 3, 47, 0
4, 59528, Note_on_c, 3, 38, 0
4, 59668, Note_on_c, 3, 38, 116
4, 59756, Note_on_c, 3, 38, 0
4, 59876, Note_on_c, 3, 31, 116
4, 60460, Note_on_c, 3, 38, 116
4, 60500, Note_on_c, 3, 38, 0
4, 60524, Note_on_c, 3, 31, 0
4, 60620, Note_on_c, 3, 47, 116
4, 61224, Note_on_c, 3, 38, 116
4, 61256, Note_on_c, 3, 38, 0
4, 61280, Note_on_c, 3, 47, 0
4, 61416, Note_on_c, 3, 30, 116
4, 61972, Note_on_c, 3, 37, 116
4, 61996, Note_on_c, 3, 37, 0
4, 62160, Note_on_c, 3, 37, 116
4, 62524, Note_on_c, 3, 30, 0
4, 62776, Note_on_c, 3, 30, 106
4, 62816, Note_on_c, 3, 37, 0
4, 63492, Note_on_c, 3, 37, 108
4, 63588, Note_on_c, 3, 37, 0
4, 63592, Note_on_c, 3, 30, 0
4, 63692, Note_on_c, 3, 42, 109
4, 63720, Note_on_c, 3, 42, 0
4, 63888, Note_on_c, 3, 37, 110
4, 63956, Note_on_c, 3, 37, 0
4, 64080, Note_on_c, 3, 30, 111
4, 64352, Note_on_c, 3, 30, 0
4, 64460, Note_on_c, 3, 28, 112
4, 65068, Note_on_c, 3, 35, 114
4, 65108, Note_on_c, 3, 35, 0
4, 65228, Note_on_c, 3, 28, 0
4, 65248, Note_on_c, 3, 35, 115
4, 65796, Note_on_c, 3, 35, 0
4, 65840, Note_on_c, 3, 33, 118
4, 66204, Note_on_c, 3, 40, 121
4, 66304, Note_on_c, 3, 40, 0
4, 66340, Note_on_c, 3, 33, 0
4, 66396, Note_on_c, 3, 49, 121
4, 66988, Note_on_c, 3, 33, 124
4, 67040, Note_on_c, 3, 33, 0
4, 67108, Note_on_c, 3, 49, 0
4, 67172, Note_on_c, 3, 40, 125
4, 67364, Note_on_c, 3, 37, 126
4, 67400, Note_on_c, 3, 40, 0
4, 67480, Note_on_c, 3, 37, 0
4, 67552, Note_on_c, 3, 38, 126
4, 68140, Note_on_c, 3, 33, 127
4, 68192, Note_on_c, 3, 33, 0
4, 68320, Note_on_c, 3, 33, 127
4, 68848, Note_on_c, 3, 33, 0
4, 68900, Note_on_c, 3, 31, 127
4, 68908, Note_on_c, 3, 38, 0
4, 69648, Note_on_c, 3, 38, 127
4, 69692, Note_on_c, 3, 38, 0
4, 69740, Note_on_c, 3, 31, 0
4, 69844, Note_on_c, 3, 38, 127
4, 69888, Note_on_c, 3, 38, 0
4, 70224, Note_on_c, 3, 31, 127
4, 70612, Note_on_c, 3, 31, 0
4, 70628, Note_on_c, 3, 37, 127
4, 71228, Note_on_c, 3, 32, 127
4, 71264, Note_on_c, 3, 32, 0
4, 71284, Note_on_c, 3, 37, 0
4, 71388, Note_on_c, 3, 32, 127
4, 71940, Note_on_c, 3, 32, 0
4, 71972, Note_on_c, 3, 30, 127
4, 72724, Note_on_c, 3, 37, 127
4, 72776, Note_on_c, 3, 37, 0
4, 72832, Note_on_c, 3, 30, 0
4, 72928, Note_on_c, 3, 42, 127
4, 73440, Note_on_c, 3, 42, 0
4, 73532, Note_on_c, 3, 34, 126
4, 73640, Note_on_c, 3, 34, 0
4, 73704, Note_on_c, 3, 35, 126
4, 74560, Note_on_c, 3, 35, 0
4, 74828, Note_on_c, 3, 35, 123
4, 76392, Note_on_c, 3, 35, 0
4, 76756, Note_on_c, 3, 35, 116
4, 76872, Note_on_c, 3, 35, 0
4, 77360, Note_on_c, 3, 40, 115
4, 77436, Note_on_c, 3, 40, 0
4, 78100, Note_on_c, 3, 43, 112
4, 78176, Note_on_c, 3, 43, 0
4, 78292, Note_on_c, 3, 42, 111
4, 78656, Note_on_c, 3, 42, 0
4, 78684, Note_on_c, 3, 38, 109
4, 78832, Note_on_c, 3, 38, 0
4, 78868, Note_on_c, 3, 35, 109
4, 79024, Note_on_c, 3, 35, 0
4, 79080, Note_on_c, 3, 40, 108
4, 79144, Note_on_c, 3, 40, 0
4, 79652, Note_on_c, 3, 33, 100
4, 79760, Note_on_c, 3, 33, 0
4, 80428, Note_on_c, 3, 38, 101
4, 80528, Note_on_c, 3, 38, 0
4, 80608, Note_on_c, 3, 37, 101
4, 80716, Note_on_c, 3, 37, 0
4, 81364, Note_on_c, 3, 33, 103
4, 81568, Note_on_c, 3, 35, 104
4, 81572, Note_on_c, 3, 33, 0
4, 81940, Note_on_c, 3, 31, 105
4, 81960, Note_on_c, 3, 35, 0
4, 82032, Note_on_c, 3, 31, 0
4, 82340, Note_on_c, 3, 31, 107
4, 82512, Note_on_c, 3, 31, 0
4, 82528, Note_on_c, 3, 38, 107
4, 82612, Note_on_c, 3, 38, 0
4, 82896, Note_on_c, 3, 40, 108
4, 83020, Note_on_c, 3, 40, 0
4, 83504, Note_on_c, 3, 40, 110
4, 83644, Note_on_c, 3, 40, 0
4, 83660, Note_on_c, 3, 43, 111
4, 83992, Note_on_c, 3, 43, 0
4, 84028, Note_on_c, 3, 42, 112
4, 84216, Note_on_c, 3, 38, 113
4, 84228, Note_on_c, 3, 42, 0
4, 84376, Note_on_c, 3, 38, 0
4, 84420, Note_on_c, 3, 35, 113
4, 84760, Note_on_c, 3, 35, 0
4, 84812, Note_on_c, 3, 38, 114
4, 85008, Note_on_c, 3, 35, 115
4, 85012, Note_on_c, 3, 38, 0
4, 85156, Note_on_c, 3, 35, 0
4, 85188, Note_on_c, 3, 40, 115
4, 85552, Note_on_c, 3, 40, 0
4, 85580, Note_on_c, 3, 37, 115
4, 85780, Note_on_c, 3, 35, 115
4, 85808, Note_on_c, 3, 37, 0
4, 85820, Note_on_c, 3, 35, 0
4, 86164, Note_on_c, 3, 30, 115
4, 86240, Note_on_c, 3, 30, 0
4, 86356, Note_on_c, 3, 28, 115
4, 86904, Note_on_c, 3, 28, 0
4, 86956, Note_on_c, 3, 30, 115
4, 87144, Note_on_c, 3, 30, 0
4, 87312, Note_on_c, 3, 35, 115
4, 87472, Note_on_c, 3, 35, 0
4, 87520, Note_on_c, 3, 37, 115
4, 88108, Note_on_c, 3, 34, 115
4, 88112, Note_on_c, 3, 37, 0
4, 88496, Note_on_c, 3, 32, 113
4, 88508, Note_on_c, 3, 34, 0
4, 88636, Note_on_c, 3, 32, 0
4, 88692, Note_on_c, 3, 30, 114
4, 88796, Note_on_c, 3, 30, 0
4, 89232, Note_on_c, 3, 37, 117
4, 89312, Note_on_c, 3, 37, 0
4, 89420, Note_on_c, 3, 42, 117
4, 89556, Note_on_c, 3, 42, 0
4, 89616, Note_on_c, 3, 37, 118
4, 89660, Note_on_c, 3, 37, 0
4, 89804, Note_on_c, 3, 44, 120
4, 89964, Note_on_c, 3, 44, 0
4, 90000, Note_on_c, 3, 37, 122
4, 90080, Note_on_c, 3, 37, 0
4, 90188, Note_on_c, 3, 46, 123
4, 90240, Note_on_c, 3, 46, 0
4, 90412, Note_on_c, 3, 45, 119
4, 90964, Note_on_c, 3, 45, 0
4, 90980, Note_on_c, 3, 42, 121
4, 91488, Note_on_c, 3, 42, 0
4, 91568, Note_on_c, 3, 42, 121
4, 91848, Note_on_c, 3, 42, 0
4, 91920, Note_on_c, 3, 42, 123
4, 92092, Note_on_c, 3, 42, 0
4, 92120, Note_on_c, 3, 40, 123
4, 92708, Note_on_c, 3, 40, 0
4, 92716, Note_on_c, 3, 38, 125
4, 93312, Note_on_c, 3, 38, 0
4, 93480, Note_on_c, 3, 31, 127
4, 94244, Note_on_c, 3, 38, 127
4, 94272, Note_on_c, 3, 38, 0
4, 94440, Note_on_c, 3, 38, 127
4, 94532, Note_on_c, 3, 31, 0
4, 95152, Note_on_c, 3, 38, 0
4, 95212, Note_on_c, 3, 31, 127
4, 95808, Note_on_c, 3, 38, 127
4, 95852, Note_on_c, 3, 38, 0
4, 96012, Note_on_c, 3, 38, 125
4, 96100, Note_on_c, 3, 31, 0
4, 96372, Note_on_c, 3, 30, 124
4, 96516, Note_on_c, 3, 30, 0
4, 96724, Note_on_c, 3, 38, 0
4, 96728, Note_on_c, 3, 31, 99
4, 97316, Note_on_c, 3, 38, 99
4, 97348, Note_on_c, 3, 38, 0
4, 97376, Note_on_c, 3, 31, 0
4, 97512, Note_on_c, 3, 47, 99
4, 98092, Note_on_c, 3, 38, 100
4, 98172, Note_on_c, 3, 47, 0
4, 98180, Note_on_c, 3, 38, 0
4, 98276, Note_on_c, 3, 31, 103
4, 98856, Note_on_c, 3, 38, 107
4, 98968, Note_on_c, 3, 38, 0
4, 99044, Note_on_c, 3, 47, 108
4, 99100, Note_on_c, 3, 31, 0
4, 99140, Note_on_c, 3, 47, 0
4, 99216, Note_on_c, 3, 47, 108
4, 99284, Note_on_c, 3, 47, 0
4, 99428, Note_on_c, 3, 38, 110
4, 99620, Note_on_c, 3, 38, 0
4, 99620, Note_on_c, 3, 31, 110
4, 99680, Note_on_c, 3, 31, 0
4, 99808, Note_on_c, 3, 30, 111
4, 100368, Note_on_c, 3, 37, 112
4, 100412, Note_on_c, 3, 37, 0
4, 100436, Note_on_c, 3, 30, 0
4, 100556, Note_on_c, 3, 46, 114
4, 101168, Note_on_c, 3, 37, 115
4, 101240, Note_on_c, 3, 37, 0
4, 101264, Note_on_c, 3, 46, 0
4, 101348, Note_on_c, 3, 30, 116
4, 101440, Note_on_c, 3, 30, 0
4, 101552, Note_on_c, 3, 30, 117
4, 101620, Note_on_c, 3, 30, 0
4, 101932, Note_on_c, 3, 37, 118
4, 101996, Note_on_c, 3, 37, 0
4, 102096, Note_on_c, 3, 46, 118
4, 102720, Note_on_c, 3, 37, 119
4, 102756, Note_on_c, 3, 37, 0
4, 102844, Note_on_c, 3, 46, 0
4, 102900, Note_on_c, 3, 30, 120
4, 103464, Note_on_c, 3, 37, 122
4, 103500, Note_on_c, 3, 37, 0
4, 103616, Note_on_c, 3, 30, 0
4, 103652, Note_on_c, 3, 37, 122
4, 104216, Note_on_c, 3, 29, 123
4, 104264, Note_on_c, 3, 29, 0
4, 104396, Note_on_c, 3, 30, 124
4, 104460, Note_on_c, 3, 37, 0
4, 104996, Note_on_c, 3, 37, 125
4, 105032, Note_on_c, 3, 30, 0
4, 105044, Note_on_c, 3, 37, 0
4, 105180, Note_on_c, 3, 37, 125
4, 105520, Note_on_c, 3, 37, 0
4, 105572, Note_on_c, 3, 39, 125
4, 105680, Note_on_c, 3, 39, 0
4, 105812, Note_on_c, 3, 37, 126
4, 105840, Note_on_c, 3, 37, 0
4, 105960, Note_on_c, 3, 40, 126
4, 106592, Note_on_c, 3, 40, 0
4, 106728, Note_on_c, 3, 35, 126
4, 107308, Note_on_c, 3, 40, 124
4, 107312, Note_on_c, 3, 35, 0
4, 107336, Note_on_c, 3, 40, 0
4, 107500, Note_on_c, 3, 40, 123
4, 108080, Note_on_c, 3, 35, 116
4, 108116, Note_on_c, 3, 35, 0
4, 108236, Note_on_c, 3, 35, 116
4, 108300, Note_on_c, 3, 35, 0
4, 108448, Note_on_c, 3, 34, 100
4, 108464, Note_on_c, 3, 40, 0
4, 108976, Note_on_c, 3, 34, 0
4, 109044, Note_on_c, 3, 33, 103
4, 109628, Note_on_c, 3, 40, 106
4, 109652, Note_on_c, 3, 40, 0
4, 109788, Note_on_c, 3, 33, 0
4, 109800, Note_on_c, 3, 40, 108
4, 109864, Note_on_c, 3, 40, 0
4, 110060, Note_on_c, 3, 49, 108
4, 110736, Note_on_c, 3, 40, 112
4, 110740, Note_on_c, 3, 49, 0
4, 110764, Note_on_c, 3, 40, 0
4, 110916, Note_on_c, 3, 33, 113
4, 111536, Note_on_c, 3, 40, 119
4, 111556, Note_on_c, 3, 33, 0
4, 111628, Note_on_c, 3, 40, 0
4, 111916, Note_on_c, 3, 39, 121
4, 112048, Note_on_c, 3, 39, 0
4, 112104, Note_on_c, 3, 38, 122
4, 112656, Note_on_c, 3, 33, 123
4, 112736, Note_on_c, 3, 33, 0
4, 112860, Note_on_c, 3, 33, 124
4, 112900, Note_on_c, 3, 38, 0
4, 113464, Note_on_c, 3, 38, 101
4, 113492, Note_on_c, 3, 38, 0
4, 113492, Note_on_c, 3, 33, 0
4, 113640, Note_on_c, 3, 38, 104
4, 114272, Note_on_c, 3, 33, 108
4, 114284, Note_on_c, 3, 38, 0
4, 114300, Note_on_c, 3, 33, 0
4, 114412, Note_on_c, 3, 33, 108
4, 114748, Note_on_c, 3, 33, 0
4, 114792, Note_on_c, 3, 32, 102
4, 115140, Note_on_c, 3, 32, 0
4, 115188, Note_on_c, 3, 31, 102
4, 115760, Note_on_c, 3, 38, 102
4, 116464, Note_on_c, 3, 31, 0
4, 116496, Note_on_c, 3, 38, 0
4, 116524, Note_on_c, 3, 31, 102
4, 116588, Note_on_c, 3, 31, 0
4, 116708, Note_on_c, 3, 31, 102
4, 117296, Note_on_c, 3, 38, 102
4, 117320, Note_on_c, 3, 38, 0
4, 117476, Note_on_c, 3, 38, 102
4, 117540, Note_on_c, 3, 38, 0
4, 117624, Note_on_c, 3, 31, 0
4, 117864, Note_on_c, 3, 38, 102
4, 118192, Note_on_c, 3, 38, 0
4, 118252, Note_on_c, 3, 37, 102
4, 118836, Note_on_c, 3, 32, 103
4, 118884, Note_on_c, 3, 37, 0
4, 118900, Note_on_c, 3, 32, 0
4, 119588, Note_on_c, 3, 37, 105
4, 119648, Note_on_c, 3, 37, 0
4, 119776, Note_on_c, 3, 37, 105
4, 120284, Note_on_c, 3, 37, 0
4, 120336, Note_on_c, 3, 32, 110
4, 120444, Note_on_c, 3, 32, 0
4, 120516, Note_on_c, 3, 32, 110
4, 120912, Note_on_c, 3, 32, 0
4, 120932, Note_on_c, 3, 31, 112
4, 121264, Note_on_c, 3, 31, 0
4, 121316, Note_on_c, 3, 30, 112
4, 121892, Note_on_c, 3, 37, 111
4, 121904, Note_on_c, 3, 30, 0
4, 122484, Note_on_c, 3, 46, 107
4, 122516, Note_on_c, 3, 37, 0
4, 123068, Note_on_c, 3, 37, 107
4, 123172, Note_on_c, 3, 46, 0
4, 123620, Note_on_c, 3, 30, 105
4, 123648, Note_on_c, 3, 30, 0
4, 123760, Note_on_c, 3, 37, 0
4, 123792, Note_on_c, 3, 30, 104
4, 123916, Note_on_c, 3, 30, 0
4, 123992, Note_on_c, 3, 34, 104
4, 124304, Note_on_c, 3, 34, 0
4, 124384, Note_on_c, 3, 35, 104
4, 124976, Note_on_c, 3, 42, 104
4, 125024, Note_on_c, 3, 42, 0
4, 125164, Note_on_c, 3, 35, 0
4, 125164, Note_on_c, 3, 42, 103
4, 125732, Note_on_c, 3, 34, 103
4, 125796, Note_on_c, 3, 42, 0
4, 125820, Note_on_c, 3, 34, 0
4, 125920, Note_on_c, 3, 35, 103
4, 126528, Note_on_c, 3, 42, 103
4, 126560, Note_on_c, 3, 42, 0
4, 126616, Note_on_c, 3, 35, 0
4, 126692, Note_on_c, 3, 42, 103
4, 126912, Note_on_c, 3, 33, 103
4, 126956, Note_on_c, 3, 33, 0
4, 127024, Note_on_c, 3, 42, 0
4, 127072, Note_on_c, 3, 34, 103
4, 127408, Note_on_c, 3, 34, 0
4, 127456, Note_on_c, 3, 35, 103
4, 128036, Note_on_c, 3, 42, 103
4, 128096, Note_on_c, 3, 42, 0
4, 128116, Note_on_c, 3, 35, 0
4, 128228, Note_on_c, 3, 42, 103
4, 128832, Note_on_c, 3, 42, 0
4, 128832, Note_on_c, 3, 34, 103
4, 128932, Note_on_c, 3, 34, 0
4, 129012, Note_on_c, 3, 35, 103
4, 129552, Note_on_c, 3, 42, 103
4, 129648, Note_on_c, 3, 42, 0
4, 129668, Note_on_c, 3, 35, 0
4, 129748, Note_on_c, 3, 42, 103
4, 129812, Note_on_c, 3, 42, 0
4, 129952, Note_on_c, 3, 35, 103
4, 130036, Note_on_c, 3, 35, 0
4, 130148, Note_on_c, 3, 38, 103
4, 130188, Note_on_c, 3, 38, 0
4, 130356, Note_on_c, 3, 39, 103
4, 130444, Note_on_c, 3, 39, 0
4, 130536, Note_on_c, 3, 40, 103
4, 131128, Note_on_c, 3, 35, 103
4, 131168, Note_on_c, 3, 35, 0
4, 131168, Note_on_c, 3, 40, 0
4, 131292, Note_on_c, 3, 35, 103
4, 131856, Note_on_c, 3, 35, 0
4, 131884, Note_on_c, 3, 33, 103
4, 132628, Note_on_c, 3, 40, 103
4, 132692, Note_on_c, 3, 33, 0
4, 132804, Note_on_c, 3, 49, 103
4, 133408, Note_on_c, 3, 40, 0
4, 133424, Note_on_c, 3, 37, 103
4, 133552, Note_on_c, 3, 37, 0
4, 133552, Note_on_c, 3, 49, 0
4, 133604, Note_on_c, 3, 38, 103
4, 134692, Note_on_c, 3, 38, 0
4, 134708, Note_on_c, 3, 31, 102
4, 135724, Note_on_c, 3, 38, 102
4, 135748, Note_on_c, 3, 38, 0
4, 135900, Note_on_c, 3, 38, 101
4, 136048, Note_on_c, 3, 31, 0
4, 136496, Note_on_c, 3, 37, 101
4, 136508, Note_on_c, 3, 38, 0
4, 136556, Note_on_c, 3, 37, 0
4, 136680, Note_on_c, 3, 37, 101
4, 137812, Note_on_c, 3, 30, 103
4, 137844, Note_on_c, 3, 37, 0
4, 138372, Note_on_c, 3, 37, 104
4, 138432, Note_on_c, 3, 37, 0
4, 138768, Note_on_c, 3, 37, 105
4, 138804, Note_on_c, 3, 37, 0
4, 138964, Note_on_c, 3, 46, 105
4, 139268, Note_on_c, 3, 30, 0
4, 139368, Note_on_c, 3, 34, 106
4, 139380, Note_on_c, 3, 46, 0
4, 139620, Note_on_c, 3, 34, 0
4, 139732, Note_on_c, 3, 35, 106
4, 140572, Note_on_c, 3, 35, 0
4, 140876, Note_on_c, 3, 35, 105
4, 142464, Note_on_c, 3, 35, 0
4, 142820, Note_on_c, 3, 35, 97
4, 142900, Note_on_c, 3, 35, 0
4, 143400, Note_on_c, 3, 40, 94
4, 143484, Note_on_c, 3, 40, 0
4, 144164, Note_on_c, 3, 43, 93
4, 144280, Note_on_c, 3, 43, 0
4, 144324, Note_on_c, 3, 42, 93
4, 144708, Note_on_c, 3, 42, 0
4, 144724, Note_on_c, 3, 38, 93
4, 144912, Note_on_c, 3, 35, 95
4, 144916, Note_on_c, 3, 38, 0
4, 145004, Note_on_c, 3, 35, 0
4, 145100, Note_on_c, 3, 40, 97
4, 145192, Note_on_c, 3, 40, 0
4, 145700, Note_on_c, 3, 33, 104
4, 145816, Note_on_c, 3, 33, 0
4, 146526, Note_on_c, 3, 38, 101
4, 146670, Note_on_c, 3, 37, 94
4, 146718, Note_on_c, 3, 38, 0
4, 146762, Note_on_c, 3, 37, 0
4, 147412, Note_on_c, 3, 33, 89
4, 147576, Note_on_c, 3, 33, 0
4, 147604, Note_on_c, 3, 35, 89
4, 147916, Note_on_c, 3, 35, 0
4, 147984, Note_on_c, 3, 31, 89
4, 148172, Note_on_c, 3, 31, 0
4, 148396, Note_on_c, 3, 31, 94
4, 148580, Note_on_c, 3, 38, 96
4, 148608, Note_on_c, 3, 31, 0
4, 148612, Note_on_c, 3, 38, 0
4, 148948, Note_on_c, 3, 40, 97
4, 149056, Note_on_c, 3, 40, 0
4, 149520, Note_on_c, 3, 40, 96
4, 149692, Note_on_c, 3, 40, 0
4, 149716, Note_on_c, 3, 43, 95
4, 150084, Note_on_c, 3, 42, 94
4, 150092, Note_on_c, 3, 43, 0
4, 150308, Note_on_c, 3, 42, 0
4, 150308, Note_on_c, 3, 38, 94
4, 150380, Note_on_c, 3, 38, 0
4, 150496, Note_on_c, 3, 35, 94
4, 150800, Note_on_c, 3, 35, 0
4, 150876, Note_on_c, 3, 38, 96
4, 151060, Note_on_c, 3, 38, 0
4, 151076, Note_on_c, 3, 35, 97
4, 151192, Note_on_c, 3, 35, 0
4, 151244, Note_on_c, 3, 40, 99
4, 151588, Note_on_c, 3, 40, 0
4, 151612, Note_on_c, 3, 37, 104
4, 151780, Note_on_c, 3, 37, 0
4, 151824, Note_on_c, 3, 35, 105
4, 151860, Note_on_c, 3, 35, 0
4, 152212, Note_on_c, 3, 30, 107
4, 152332, Note_on_c, 3, 30, 0
4, 152404, Note_on_c, 3, 28, 107
4, 152912, Note_on_c, 3, 28, 0
4, 153012, Note_on_c, 3, 30, 99
4, 153248, Note_on_c, 3, 30, 0
4, 153388, Note_on_c, 3, 35, 105
4, 153532, Note_on_c, 3, 35, 0
4, 153556, Note_on_c, 3, 37, 108
4, 154128, Note_on_c, 3, 37, 0
4, 154132, Note_on_c, 3, 34, 115
4, 154540, Note_on_c, 3, 34, 0
4, 154548, Note_on_c, 3, 32, 109
4, 154672, Note_on_c, 3, 32, 0
4, 154740, Note_on_c, 3, 30, 102
4, 154828, Note_on_c, 3, 30, 0
4, 155300, Note_on_c, 3, 37, 84
4, 155452, Note_on_c, 3, 37, 0
4, 155492, Note_on_c, 3, 42, 85
4, 155664, Note_on_c, 3, 42, 0
4, 155692, Note_on_c, 3, 37, 100
4, 155824, Note_on_c, 3, 37, 0
4, 155844, Note_on_c, 3, 44, 107
4, 156056, Note_on_c, 3, 37, 111
4, 156076, Note_on_c, 3, 44, 0
4, 156172, Note_on_c, 3, 37, 0
4, 156236, Note_on_c, 3, 46, 114
4, 156304, Note_on_c, 3, 46, 0
4, 156644, Note_on_c, 3, 45, 119
4, 157028, Note_on_c, 3, 45, 0
4, 157032, Note_on_c, 3, 42, 121
4, 157072, Note_on_c, 3, 42, 0
4, 157620, Note_on_c, 3, 42, 122
4, 157716, Note_on_c, 3, 42, 0
4, 157968, Note_on_c, 3, 42, 122
4, 158092, Note_on_c, 3, 42, 0
4, 158176, Note_on_c, 3, 40, 122
4, 158712, Note_on_c, 3, 40, 0
4, 158756, Note_on_c, 3, 38, 116
4, 159540, Note_on_c, 3, 31, 115
4, 159556, Note_on_c, 3, 38, 0
4, 160292, Note_on_c, 3, 38, 115
4, 160328, Note_on_c, 3, 38, 0
4, 160480, Note_on_c, 3, 38, 115
4, 160528, Note_on_c, 3, 31, 0
4, 161072, Note_on_c, 3, 31, 115
4, 161148, Note_on_c, 3, 31, 0
4, 161252, Note_on_c, 3, 31, 115
4, 161280, Note_on_c, 3, 38, 0
4, 161796, Note_on_c, 3, 31, 0
4, 161848, Note_on_c, 3, 38, 115
4, 161876, Note_on_c, 3, 38, 0
4, 162036, Note_on_c, 3, 38, 115
4, 162064, Note_on_c, 3, 38, 0
4, 162228, Note_on_c, 3, 38, 115
4, 162260, Note_on_c, 3, 38, 0
4, 162408, Note_on_c, 3, 30, 115
4, 162736, Note_on_c, 3, 30, 0
4, 162784, Note_on_c, 3, 31, 115
4, 163344, Note_on_c, 3, 38, 115
4, 163376, Note_on_c, 3, 38, 0
4, 163376, Note_on_c, 3, 31, 0
4, 163536, Note_on_c, 3, 47, 114
4, 164128, Note_on_c, 3, 47, 0
4, 164132, Note_on_c, 3, 30, 113
4, 164196, Note_on_c, 3, 30, 0
4, 164540, Note_on_c, 3, 31, 113
4, 164924, Note_on_c, 3, 38, 113
4, 164936, Note_on_c, 3, 31, 0
4, 164988, Note_on_c, 3, 38, 0
4, 165292, Note_on_c, 3, 47, 113
4, 165388, Note_on_c, 3, 47, 0
4, 165492, Note_on_c, 3, 38, 113
4, 165568, Note_on_c, 3, 38, 0
4, 165672, Note_on_c, 3, 31, 113
4, 165776, Note_on_c, 3, 31, 0
4, 165840, Note_on_c, 3, 30, 113
4, 166420, Note_on_c, 3, 37, 112
4, 166440, Note_on_c, 3, 37, 0
4, 166588, Note_on_c, 3, 30, 0
4, 166608, Note_on_c, 3, 37, 112
4, 167120, Note_on_c, 3, 37, 0
4, 167212, Note_on_c, 3, 29, 112
4, 167264, Note_on_c, 3, 29, 0
4, 167396, Note_on_c, 3, 30, 112
4, 168060, Note_on_c, 3, 30, 0
4, 168148, Note_on_c, 3, 42, 112
4, 168336, Note_on_c, 3, 37, 112
4, 168356, Note_on_c, 3, 42, 0
4, 168368, Note_on_c, 3, 37, 0
4, 168520, Note_on_c, 3, 36, 112
4, 168640, Note_on_c, 3, 36, 0
4, 168720, Note_on_c, 3, 37, 112
4, 168788, Note_on_c, 3, 37, 0
4, 168892, Note_on_c, 3, 30, 113
4, 169476, Note_on_c, 3, 37, 113
4, 169516, Note_on_c, 3, 37, 0
4, 169524, Note_on_c, 3, 30, 0
4, 169676, Note_on_c, 3, 37, 114
4, 170256, Note_on_c, 3, 37, 0
4, 170276, Note_on_c, 3, 30, 115
4, 170340, Note_on_c, 3, 30, 0
4, 170460, Note_on_c, 3, 30, 115
4, 170720, Note_on_c, 3, 30, 0
4, 170848, Note_on_c, 3, 42, 116
4, 171412, Note_on_c, 3, 37, 116
4, 171452, Note_on_c, 3, 37, 0
4, 171624, Note_on_c, 3, 30, 117
4, 171648, Note_on_c, 3, 30, 0
4, 171984, Note_on_c, 3, 42, 0
4, 172196, Note_on_c, 3, 40, 117
4, 172588, Note_on_c, 3, 35, 105
4, 172628, Note_on_c, 3, 35, 0
4, 172688, Note_on_c, 3, 40, 0
4, 172768, Note_on_c, 3, 35, 105
4, 173372, Note_on_c, 3, 31, 105
4, 173412, Note_on_c, 3, 31, 0
4, 173544, Note_on_c, 3, 31, 105
4, 173588, Note_on_c, 3, 35, 0
4, 174096, Note_on_c, 3, 31, 0
4, 174124, Note_on_c, 3, 35, 105
4, 174148, Note_on_c, 3, 35, 0
4, 174492, Note_on_c, 3, 40, 105
4, 174572, Note_on_c, 3, 40, 0
4, 174700, Note_on_c, 3, 35, 105
4, 174752, Note_on_c, 3, 35, 0
4, 174888, Note_on_c, 3, 34, 105
4, 174980, Note_on_c, 3, 34, 0
4, 175076, Note_on_c, 3, 33, 105
4, 175632, Note_on_c, 3, 40, 106
4, 175668, Note_on_c, 3, 40, 0
4, 175840, Note_on_c, 3, 40, 107
4, 175924, Note_on_c, 3, 33, 0
4, 176376, Note_on_c, 3, 40, 0
4, 176400, Note_on_c, 3, 33, 108
4, 176976, Note_on_c, 3, 33, 0
4, 176988, Note_on_c, 3, 39, 109
4, 177540, Note_on_c, 3, 33, 109
4, 177608, Note_on_c, 3, 33, 0
4, 177668, Note_on_c, 3, 39, 0
4, 177760, Note_on_c, 3, 37, 109
4, 177780, Note_on_c, 3, 37, 0
4, 177956, Note_on_c, 3, 37, 109
4, 178084, Note_on_c, 3, 37, 0
4, 178152, Note_on_c, 3, 38, 109
4, 178908, Note_on_c, 3, 33, 109
4, 178944, Note_on_c, 3, 38, 0
4, 179440, Note_on_c, 3, 33, 0
4, 179472, Note_on_c, 3, 38, 110
4, 180260, Note_on_c, 3, 33, 112
4, 180320, Note_on_c, 3, 33, 0
4, 180432, Note_on_c, 3, 33, 112
4, 180784, Note_on_c, 3, 33, 0
4, 181024, Note_on_c, 3, 38, 0
4, 181036, Note_on_c, 3, 31, 112
4, 181796, Note_on_c, 3, 38, 113
4, 181824, Note_on_c, 3, 38, 0
4, 181968, Note_on_c, 3, 38, 113
4, 182108, Note_on_c, 3, 31, 0
4, 182572, Note_on_c, 3, 30, 114
4, 182636, Note_on_c, 3, 30, 0
4, 182756, Note_on_c, 3, 31, 115
4, 182848, Note_on_c, 3, 38, 0
4, 183348, Note_on_c, 3, 38, 117
4, 183392, Note_on_c, 3, 38, 0
4, 183528, Note_on_c, 3, 38, 117
4, 183660, Note_on_c, 3, 38, 0
4, 183912, Note_on_c, 3, 38, 117
4, 183944, Note_on_c, 3, 31, 0
4, 184104, Note_on_c, 3, 31, 117
4, 184116, Note_on_c, 3, 38, 0
4, 184204, Note_on_c, 3, 31, 0
4, 184284, Note_on_c, 3, 37, 117
4, 184880, Note_on_c, 3, 44, 118
4, 184972, Note_on_c, 3, 37, 0
4, 185620, Note_on_c, 3, 37, 119
4, 185656, Note_on_c, 3, 37, 0
4, 185664, Note_on_c, 3, 44, 0
4, 185796, Note_on_c, 3, 37, 120
4, 186320, Note_on_c, 3, 37, 0
4, 186428, Note_on_c, 3, 32, 121
4, 186476, Note_on_c, 3, 32, 0
4, 186588, Note_on_c, 3, 32, 121
4, 186928, Note_on_c, 3, 32, 0
4, 187000, Note_on_c, 3, 31, 122
4, 187328, Note_on_c, 3, 31, 0
4, 187380, Note_on_c, 3, 30, 122
4, 187948, Note_on_c, 3, 37, 123
4, 187976, Note_on_c, 3, 37, 0
4, 188128, Note_on_c, 3, 37, 123
4, 188452, Note_on_c, 3, 30, 0
4, 188884, Note_on_c, 3, 37, 0
4, 188888, Note_on_c, 3, 30, 124
4, 189476, Note_on_c, 3, 37, 124
4, 189536, Note_on_c, 3, 37, 0
4, 189664, Note_on_c, 3, 37, 124
4, 189952, Note_on_c, 3, 30, 0
4, 190000, Note_on_c, 3, 37, 0
4, 190028, Note_on_c, 3, 34, 124
4, 190352, Note_on_c, 3, 34, 0
4, 190432, Note_on_c, 3, 35, 122
4, 191020, Note_on_c, 3, 42, 120
4, 191084, Note_on_c, 3, 35, 0
4, 191152, Note_on_c, 3, 42, 0
4, 191196, Note_on_c, 3, 42, 120
4, 191604, Note_on_c, 3, 33, 120
4, 191656, Note_on_c, 3, 33, 0
4, 191748, Note_on_c, 3, 34, 120
4, 191764, Note_on_c, 3, 42, 0
4, 191888, Note_on_c, 3, 34, 0
4, 191952, Note_on_c, 3, 35, 120
4, 192548, Note_on_c, 3, 42, 120
4, 192568, Note_on_c, 3, 35, 0
4, 192948, Note_on_c, 3, 33, 120
4, 193020, Note_on_c, 3, 33, 0
4, 193072, Note_on_c, 3, 42, 0
4, 193128, Note_on_c, 3, 34, 120
4, 193468, Note_on_c, 3, 34, 0
4, 193516, Note_on_c, 3, 35, 120
4, 194092, Note_on_c, 3, 47, 107
4, 194104, Note_on_c, 3, 35, 0
4, 194636, Note_on_c, 3, 47, 0
4, 194664, Note_on_c, 3, 44, 107
4, 195252, Note_on_c, 3, 44, 0
4, 195268, Note_on_c, 3, 41, 107
4, 195804, Note_on_c, 3, 41, 0
4, 195816, Note_on_c, 3, 38, 107
4, 196212, Note_on_c, 3, 35, 107
4, 196224, Note_on_c, 3, 38, 0
4, 196476, Note_on_c, 3, 35, 0
4, 196572, Note_on_c, 3, 31, 107
4, 197160, Note_on_c, 3, 38, 107
4, 197188, Note_on_c, 3, 38, 0
4, 197352, Note_on_c, 3, 38, 107
4, 197416, Note_on_c, 3, 31, 0
4, 197932, Note_on_c, 3, 30, 107
4, 197992, Note_on_c, 3, 30, 0
4, 198116, Note_on_c, 3, 31, 107
4, 198144, Note_on_c, 3, 38, 0
4, 198696, Note_on_c, 3, 38, 107
4, 198720, Note_on_c, 3, 38, 0
4, 198752, Note_on_c, 3, 31, 0
4, 198868, Note_on_c, 3, 47, 107
4, 199032, Note_on_c, 3, 47, 0
4, 199072, Note_on_c, 3, 47, 107
4, 199128, Note_on_c, 3, 47, 0
4, 199248, Note_on_c, 3, 30, 107
4, 199564, Note_on_c, 3, 30, 0
4, 199648, Note_on_c, 3, 31, 107
4, 200244, Note_on_c, 3, 38, 107
4, 200300, Note_on_c, 3, 38, 0
4, 200308, Note_on_c, 3, 31, 0
4, 200612, Note_on_c, 3, 47, 107
4, 200952, Note_on_c, 3, 47, 0
4, 201012, Note_on_c, 3, 30, 107
4, 201124, Note_on_c, 3, 30, 0
4, 201192, Note_on_c, 3, 31, 107
4, 201768, Note_on_c, 3, 38, 107
4, 201840, Note_on_c, 3, 38, 0
4, 201840, Note_on_c, 3, 31, 0
4, 202148, Note_on_c, 3, 47, 107
4, 202224, Note_on_c, 3, 47, 0
4, 202344, Note_on_c, 3, 38, 107
4, 202400, Note_on_c, 3, 38, 0
4, 202548, Note_on_c, 3, 31, 107
4, 202684, Note_on_c, 3, 31, 0
4, 202720, Note_on_c, 3, 30, 107
4, 203284, Note_on_c, 3, 37, 107
4, 203316, Note_on_c, 3, 37, 0
4, 203484, Note_on_c, 3, 37, 108
4, 204020, Note_on_c, 3, 37, 0
4, 204080, Note_on_c, 3, 37, 108
4, 204132, Note_on_c, 3, 37, 0
4, 204180, Note_on_c, 3, 30, 0
4, 204252, Note_on_c, 3, 42, 108
4, 204844, Note_on_c, 3, 42, 0
4, 204844, Note_on_c, 3, 41, 108
4, 204928, Note_on_c, 3, 41, 0
4, 205032, Note_on_c, 3, 42, 108
4, 205108, Note_on_c, 3, 42, 0
4, 205220, Note_on_c, 3, 29, 108
4, 205560, Note_on_c, 3, 29, 0
4, 205608, Note_on_c, 3, 30, 108
4, 206352, Note_on_c, 3, 37, 108
4, 206388, Note_on_c, 3, 37, 0
4, 206564, Note_on_c, 3, 37, 108
4, 207096, Note_on_c, 3, 37, 0
4, 207224, Note_on_c, 3, 41, 108
4, 207268, Note_on_c, 3, 41, 0
4, 207312, Note_on_c, 3, 30, 0
4, 207336, Note_on_c, 3, 42, 108
4, 207908, Note_on_c, 3, 30, 108
4, 207940, Note_on_c, 3, 30, 0
4, 208292, Note_on_c, 3, 42, 0
4, 208296, Note_on_c, 3, 37, 108
4, 208384, Note_on_c, 3, 37, 0
4, 208488, Note_on_c, 3, 39, 108
4, 208564, Note_on_c, 3, 39, 0
4, 208688, Note_on_c, 3, 37, 108
4, 208736, Note_on_c, 3, 37, 0
4, 208872, Note_on_c, 3, 40, 108
4, 209444, Note_on_c, 3, 34, 108
4, 209476, Note_on_c, 3, 34, 0
4, 209640, Note_on_c, 3, 34, 108
4, 209652, Note_on_c, 3, 40, 0
4, 209820, Note_on_c, 3, 34, 0
4, 209828, Note_on_c, 3, 35, 108
4, 210620, Note_on_c, 3, 40, 108
4, 210660, Note_on_c, 3, 40, 0
4, 210664, Note_on_c, 3, 35, 0
4, 210980, Note_on_c, 3, 39, 108
4, 211088, Note_on_c, 3, 39, 0
4, 211168, Note_on_c, 3, 40, 108
4, 211240, Note_on_c, 3, 40, 0
4, 211360, Note_on_c, 3, 35, 108
4, 211436, Note_on_c, 3, 35, 0
4, 211544, Note_on_c, 3, 34, 108
4, 211612, Note_on_c, 3, 34, 0
4, 211728, Note_on_c, 3, 32, 108
4, 211820, Note_on_c, 3, 32, 0
4, 211892, Note_on_c, 3, 32, 108
4, 211916, Note_on_c, 3, 32, 0
4, 211944, Note_on_c, 3, 33, 108
4, 212528, Note_on_c, 3, 40, 108
4, 212548, Note_on_c, 3, 40, 0
4, 212712, Note_on_c, 3, 40, 108
4, 212756, Note_on_c, 3, 33, 0
4, 213264, Note_on_c, 3, 32, 105
4, 213372, Note_on_c, 3, 32, 0
4, 213456, Note_on_c, 3, 33, 105
4, 213476, Note_on_c, 3, 40, 0
4, 214004, Note_on_c, 3, 40, 105
4, 214052, Note_on_c, 3, 40, 0
4, 214064, Note_on_c, 3, 33, 0
4, 214432, Note_on_c, 3, 40, 106
4, 214496, Note_on_c, 3, 40, 0
4, 214624, Note_on_c, 3, 36, 106
4, 214740, Note_on_c, 3, 36, 0
4, 214820, Note_on_c, 3, 37, 106
4, 214948, Note_on_c, 3, 37, 0
4, 214992, Note_on_c, 3, 38, 106
4, 215588, Note_on_c, 3, 45, 107
4, 215648, Note_on_c, 3, 45, 0
4, 215768, Note_on_c, 3, 45, 107
4, 215808, Note_on_c, 3, 45, 0
4, 215876, Note_on_c, 3, 38, 0
4, 215956, Note_on_c, 3, 32, 107
4, 216060, Note_on_c, 3, 32, 0
4, 216160, Note_on_c, 3, 33, 107
4, 216260, Note_on_c, 3, 33, 0
4, 216356, Note_on_c, 3, 37, 107
4, 216496, Note_on_c, 3, 37, 0
4, 216544, Note_on_c, 3, 38, 108
4, 217128, Note_on_c, 3, 45, 108
4, 217136, Note_on_c, 3, 47, 108
4, 217240, Note_on_c, 3, 47, 0
4, 217412, Note_on_c, 3, 38, 0
4, 217504, Note_on_c, 3, 33, 108
4, 217556, Note_on_c, 3, 45, 0
4, 217580, Note_on_c, 3, 33, 0
4, 217696, Note_on_c, 3, 32, 109
4, 217824, Note_on_c, 3, 32, 0
4, 217904, Note_on_c, 3, 32, 109
4, 218032, Note_on_c, 3, 32, 0
4, 218088, Note_on_c, 3, 31, 109
4, 218664, Note_on_c, 3, 38, 109
4, 218692, Note_on_c, 3, 38, 0
4, 218868, Note_on_c, 3, 38, 109
4, 219000, Note_on_c, 3, 31, 0
4, 219428, Note_on_c, 3, 30, 110
4, 219508, Note_on_c, 3, 30, 0
4, 219620, Note_on_c, 3, 31, 110
4, 219660, Note_on_c, 3, 38, 0
4, 220196, Note_on_c, 3, 38, 111
4, 220220, Note_on_c, 3, 38, 0
4, 220372, Note_on_c, 3, 38, 111
4, 220480, Note_on_c, 3, 31, 0
4, 220772, Note_on_c, 3, 31, 111
4, 220880, Note_on_c, 3, 38, 0
4, 221148, Note_on_c, 3, 31, 0
4, 221160, Note_on_c, 3, 37, 111
4, 221732, Note_on_c, 3, 44, 112
4, 221756, Note_on_c, 3, 44, 0
4, 222124, Note_on_c, 3, 44, 112
4, 222176, Note_on_c, 3, 44, 0
4, 222224, Note_on_c, 3, 37, 0
4, 222480, Note_on_c, 3, 37, 112
4, 222560, Note_on_c, 3, 37, 0
4, 222656, Note_on_c, 3, 37, 113
4, 223268, Note_on_c, 3, 44, 113
4, 223284, Note_on_c, 3, 44, 0
4, 223424, Note_on_c, 3, 37, 0
4, 223444, Note_on_c, 3, 44, 113
4, 223528, Note_on_c, 3, 44, 0
4, 223648, Note_on_c, 3, 37, 113
4, 223688, Note_on_c, 3, 37, 0
4, 223812, Note_on_c, 3, 43, 114
4, 224204, Note_on_c, 3, 43, 0
4, 224244, Note_on_c, 3, 42, 114
4, 224980, Note_on_c, 3, 37, 115
4, 225036, Note_on_c, 3, 42, 0
4, 225584, Note_on_c, 3, 30, 115
4, 225608, Note_on_c, 3, 30, 0
4, 225744, Note_on_c, 3, 30, 115
4, 225880, Note_on_c, 3, 37, 0
4, 226276, Note_on_c, 3, 30, 0
4, 226324, Note_on_c, 3, 33, 116
4, 226892, Note_on_c, 3, 33, 0
4, 226900, Note_on_c, 3, 34, 116
4, 227236, Note_on_c, 3, 34, 0
4, 227296, Note_on_c, 3, 35, 116
4, 227876, Note_on_c, 3, 42, 117
4, 228048, Note_on_c, 3, 35, 0
4, 228648, Note_on_c, 3, 34, 118
4, 228756, Note_on_c, 3, 42, 0
4, 228760, Note_on_c, 3, 34, 0
4, 228828, Note_on_c, 3, 35, 118
4, 229412, Note_on_c, 3, 42, 118
4, 229428, Note_on_c, 3, 35, 0
4, 229792, Note_on_c, 3, 33, 119
4, 229868, Note_on_c, 3, 33, 0
4, 229964, Note_on_c, 3, 34, 119
4, 230284, Note_on_c, 3, 34, 0
4, 230364, Note_on_c, 3, 35, 119
4, 230436, Note_on_c, 3, 42, 0
4, 230928, Note_on_c, 3, 42, 119
4, 231060, Note_on_c, 3, 35, 0
4, 231328, Note_on_c, 3, 33, 120
4, 231392, Note_on_c, 3, 33, 0
4, 231500, Note_on_c, 3, 34, 120
4, 231824, Note_on_c, 3, 34, 0
4, 231888, Note_on_c, 3, 35, 120
4, 231900, Note_on_c, 3, 42, 0
4, 232496, Note_on_c, 3, 42, 121
4, 232504, Note_on_c, 3, 35, 0
4, 232884, Note_on_c, 3, 33, 121
4, 232972, Note_on_c, 3, 33, 0
4, 233040, Note_on_c, 3, 42, 0
4, 233092, Note_on_c, 3, 35, 121
4, 233232, Note_on_c, 3, 35, 0
4, 233272, Note_on_c, 3, 39, 121
4, 233392, Note_on_c, 3, 39, 0
4, 233460, Note_on_c, 3, 40, 122
4, 234020, Note_on_c, 3, 35, 122
4, 234048, Note_on_c, 3, 35, 0
4, 234220, Note_on_c, 3, 35, 122
4, 234744, Note_on_c, 3, 40, 0
4, 234804, Note_on_c, 3, 35, 0
4, 234808, Note_on_c, 3, 33, 106
4, 234848, Note_on_c, 3, 33, 0
4, 234972, Note_on_c, 3, 33, 106
4, 235556, Note_on_c, 3, 40, 106
4, 235604, Note_on_c, 3, 40, 0
4, 235744, Note_on_c, 3, 40, 106
4, 235812, Note_on_c, 3, 33, 0
4, 236352, Note_on_c, 3, 37, 107
4, 236416, Note_on_c, 3, 37, 0
4, 236496, Note_on_c, 3, 40, 0
4, 236516, Note_on_c, 3, 38, 107
4, 237636, Note_on_c, 3, 38, 0
4, 237640, Note_on_c, 3, 31, 108
4, 238640, Note_on_c, 3, 38, 108
4, 238664, Note_on_c, 3, 38, 0
4, 238784, Note_on_c, 3, 31, 0
4, 238824, Note_on_c, 3, 43, 109
4, 239212, Note_on_c, 3, 38, 109
4, 239284, Note_on_c, 3, 38, 0
4, 239400, Note_on_c, 3, 31, 109
4, 239476, Note_on_c, 3, 31, 0
4, 239588, Note_on_c, 3, 37, 109
4, 239680, Note_on_c, 3, 43, 0
4, 240700, Note_on_c, 3, 37, 0
4, 240716, Note_on_c, 3, 30, 110
4, 241328, Note_on_c, 3, 42, 110
4, 241420, Note_on_c, 3, 30, 0
4, 242064, Note_on_c, 3, 33, 111
4, 242112, Note_on_c, 3, 33, 0
4, 242256, Note_on_c, 3, 34, 111
4, 242276, Note_on_c, 3, 42, 0
4, 242636, Note_on_c, 3, 34, 0
4, 242664, Note_on_c, 3, 35, 111
4, 243620, Note_on_c, 3, 35, 0
4, 243792, Note_on_c, 3, 35, 112
4, 245392, Note_on_c, 3, 35, 0
4, 245748, Note_on_c, 3, 35, 113
4, 245824, Note_on_c, 3, 35, 0
4, 246324, Note_on_c, 3, 40, 114
4, 246384, Note_on_c, 3, 40, 0
4, 247080, Note_on_c, 3, 43, 114
4, 247216, Note_on_c, 3, 43, 0
4, 247252, Note_on_c, 3, 42, 114
4, 247612, Note_on_c, 3, 38, 115
4, 247744, Note_on_c, 3, 42, 0
4, 247812, Note_on_c, 3, 35, 115
4, 247816, Note_on_c, 3, 38, 0
4, 247960, Note_on_c, 3, 35, 0
4, 247996, Note_on_c, 3, 40, 115
4, 248116, Note_on_c, 3, 40, 0
4, 248612, Note_on_c, 3, 33, 115
4, 248716, Note_on_c, 3, 33, 0
4, 249364, Note_on_c, 3, 38, 116
4, 249448, Note_on_c, 3, 38, 0
4, 249559, Note_on_c, 3, 37, 116
4, 249655, Note_on_c, 3, 37, 0
4, 250164, Note_on_c, 3, 33, 116
4, 250468, Note_on_c, 3, 33, 0
4, 250512, Note_on_c, 3, 35, 117
4, 250580, Note_on_c, 3, 35, 0
4, 250896, Note_on_c, 3, 31, 117
4, 251172, Note_on_c, 3, 31, 0
4, 251300, Note_on_c, 3, 31, 117
4, 251476, Note_on_c, 3, 31, 0
4, 251480, Note_on_c, 3, 38, 117
4, 251532, Note_on_c, 3, 38, 0
4, 251856, Note_on_c, 3, 40, 118
4, 251988, Note_on_c, 3, 40, 0
4, 252452, Note_on_c, 3, 40, 118
4, 252604, Note_on_c, 3, 40, 0
4, 252648, Note_on_c, 3, 43, 118
4, 252964, Note_on_c, 3, 43, 0
4, 252988, Note_on_c, 3, 42, 118
4, 253176, Note_on_c, 3, 42, 0
4, 253188, Note_on_c, 3, 38, 119
4, 253376, Note_on_c, 3, 38, 0
4, 253388, Note_on_c, 3, 35, 119
4, 253732, Note_on_c, 3, 35, 0
4, 253788, Note_on_c, 3, 38, 119
4, 253956, Note_on_c, 3, 35, 119
4, 253988, Note_on_c, 3, 38, 0
4, 254156, Note_on_c, 3, 35, 0
4, 254180, Note_on_c, 3, 40, 119
4, 254524, Note_on_c, 3, 40, 0
4, 254560, Note_on_c, 3, 37, 100
4, 254760, Note_on_c, 3, 35, 100
4, 254772, Note_on_c, 3, 37, 0
4, 254804, Note_on_c, 3, 35, 0
4, 255140, Note_on_c, 3, 30, 100
4, 255312, Note_on_c, 3, 30, 0
4, 255360, Note_on_c, 3, 28, 100
4, 255916, Note_on_c, 3, 30, 101
4, 255936, Note_on_c, 3, 28, 0
4, 256052, Note_on_c, 3, 30, 0
4, 256248, Note_on_c, 3, 35, 101
4, 256352, Note_on_c, 3, 35, 0
4, 256452, Note_on_c, 3, 37, 101
4, 257060, Note_on_c, 3, 34, 102
4, 257188, Note_on_c, 3, 34, 0
4, 257424, Note_on_c, 3, 32, 102
4, 257536, Note_on_c, 3, 32, 0
4, 257620, Note_on_c, 3, 30, 102
4, 257684, Note_on_c, 3, 37, 0
4, 258388, Note_on_c, 3, 42, 103
4, 258432, Note_on_c, 3, 30, 0
4, 258540, Note_on_c, 3, 42, 0
4, 258764, Note_on_c, 3, 44, 103
4, 258908, Note_on_c, 3, 44, 0
4, 259140, Note_on_c, 3, 46, 103
4, 259280, Note_on_c, 3, 46, 0
4, 259404, Note_on_c, 3, 45, 103
4, 259744, Note_on_c, 3, 42, 104
4, 259756, Note_on_c, 3, 45, 0
4, 259808, Note_on_c, 3, 42, 0
4, 260132, Note_on_c, 3, 42, 104
4, 260448, Note_on_c, 3, 42, 0
4, 260516, Note_on_c, 3, 42, 104
4, 260620, Note_on_c, 3, 42, 0
4, 260704, Note_on_c, 3, 42, 104
4, 260764, Note_on_c, 3, 42, 0
4, 260880, Note_on_c, 3, 42, 104
4, 261012, Note_on_c, 3, 42, 0
4, 261068, Note_on_c, 3, 39, 105
4, 261084, Note_on_c, 3, 40, 105
4, 261184, Note_on_c, 3, 39, 0
4, 261660, Note_on_c, 3, 40, 0
4, 261672, Note_on_c, 3, 38, 105
4, 262420, Note_on_c, 3, 38, 0
4, 262424, Note_on_c, 3, 31, 106
4, 262588, Note_on_c, 3, 31, 0
4, 262588, Note_on_c, 3, 31, 106
4, 263200, Note_on_c, 3, 31, 0
4, 263204, Note_on_c, 3, 38, 106
4, 263244, Note_on_c, 3, 38, 0
4, 263372, Note_on_c, 3, 38, 106
4, 263956, Note_on_c, 3, 30, 107
4, 264044, Note_on_c, 3, 30, 0
4, 264140, Note_on_c, 3, 31, 107
4, 264144, Note_on_c, 3, 38, 0
4, 264724, Note_on_c, 3, 38, 107
4, 264796, Note_on_c, 3, 38, 0
4, 264812, Note_on_c, 3, 31, 0
4, 264936, Note_on_c, 3, 47, 107
4, 265092, Note_on_c, 3, 47, 0
4, 265132, Note_on_c, 3, 47, 108
4, 265320, Note_on_c, 3, 47, 0
4, 265324, Note_on_c, 3, 38, 108
4, 265372, Note_on_c, 3, 38, 0
4, 265512, Note_on_c, 3, 38, 108
4, 265684, Note_on_c, 3, 38, 0
4, 265700, Note_on_c, 3, 31, 108
4, 266124, Note_on_c, 3, 31, 0
4, 266256, Note_on_c, 3, 38, 108
4, 266288, Note_on_c, 3, 38, 0
4, 266452, Note_on_c, 3, 38, 109
4, 267044, Note_on_c, 3, 30, 109
4, 267080, Note_on_c, 3, 38, 0
4, 267148, Note_on_c, 3, 30, 0
4, 267212, Note_on_c, 3, 31, 109
4, 267756, Note_on_c, 3, 31, 0
4, 267824, Note_on_c, 3, 37, 110
4, 267964, Note_on_c, 3, 37, 0
4, 268008, Note_on_c, 3, 38, 110
4, 268580, Note_on_c, 3, 31, 110
4, 268592, Note_on_c, 3, 38, 0
4, 268612, Note_on_c, 3, 31, 0
4, 268756, Note_on_c, 3, 30, 110
4, 269356, Note_on_c, 3, 30, 0
4, 269356, Note_on_c, 3, 36, 111
4, 269380, Note_on_c, 3, 30, 111
4, 269408, Note_on_c, 3, 30, 0
4, 269464, Note_on_c, 3, 36, 0
4, 269536, Note_on_c, 3, 37, 111
4, 270128, Note_on_c, 3, 29, 111
4, 270152, Note_on_c, 3, 37, 0
4, 270284, Note_on_c, 3, 29, 0
4, 270296, Note_on_c, 3, 30, 112
4, 270456, Note_on_c, 3, 30, 0
4, 270508, Note_on_c, 3, 30, 112
4, 270576, Note_on_c, 3, 30, 0
4, 270896, Note_on_c, 3, 37, 112
4, 271052, Note_on_c, 3, 37, 0
4, 271076, Note_on_c, 3, 46, 112
4, 271440, Note_on_c, 3, 46, 0
4, 271464, Note_on_c, 3, 37, 112
4, 271664, Note_on_c, 3, 29, 113
4, 271668, Note_on_c, 3, 37, 0
4, 271812, Note_on_c, 3, 29, 0
4, 271844, Note_on_c, 3, 30, 113
4, 272404, Note_on_c, 3, 30, 0
4, 272408, Note_on_c, 3, 37, 113
4, 272468, Note_on_c, 3, 37, 0
4, 272596, Note_on_c, 3, 37, 113
4, 272988, Note_on_c, 3, 29, 102
4, 272996, Note_on_c, 3, 37, 0
4, 273056, Note_on_c, 3, 29, 0
4, 273168, Note_on_c, 3, 29, 103
4, 273316, Note_on_c, 3, 29, 0
4, 273372, Note_on_c, 3, 30, 103
4, 273956, Note_on_c, 3, 37, 103
4, 274052, Note_on_c, 3, 30, 0
4, 274108, Note_on_c, 3, 37, 0
4, 274144, Note_on_c, 3, 46, 104
4, 274284, Note_on_c, 3, 46, 0
4, 274340, Note_on_c, 3, 46, 104
4, 274480, Note_on_c, 3, 46, 0
4, 274528, Note_on_c, 3, 37, 105
4, 274656, Note_on_c, 3, 37, 0
4, 274724, Note_on_c, 3, 30, 105
4, 274912, Note_on_c, 3, 40, 106
4, 274920, Note_on_c, 3, 30, 0
4, 275492, Note_on_c, 3, 35, 106
4, 275500, Note_on_c, 3, 40, 0
4, 275540, Note_on_c, 3, 35, 0
4, 275684, Note_on_c, 3, 35, 107
4, 276240, Note_on_c, 3, 35, 0
4, 276244, Note_on_c, 3, 40, 107
4, 276292, Note_on_c, 3, 40, 0
4, 276452, Note_on_c, 3, 40, 107
4, 276976, Note_on_c, 3, 28, 109
4, 276992, Note_on_c, 3, 40, 0
4, 277052, Note_on_c, 3, 28, 0
4, 277168, Note_on_c, 3, 28, 110
4, 277380, Note_on_c, 3, 35, 110
4, 277448, Note_on_c, 3, 28, 0
4, 277552, Note_on_c, 3, 34, 110
4, 277580, Note_on_c, 3, 35, 0
4, 277728, Note_on_c, 3, 34, 0
4, 277764, Note_on_c, 3, 33, 110
4, 278544, Note_on_c, 3, 40, 111
4, 278588, Note_on_c, 3, 33, 0
4, 278732, Note_on_c, 3, 40, 0
4, 278740, Note_on_c, 3, 49, 111
4, 279312, Note_on_c, 3, 49, 0
4, 279332, Note_on_c, 3, 32, 111
4, 279476, Note_on_c, 3, 32, 0
4, 279520, Note_on_c, 3, 33, 111
4, 279700, Note_on_c, 3, 33, 0
4, 279728, Note_on_c, 3, 33, 111
4, 279788, Note_on_c, 3, 33, 0
4, 280100, Note_on_c, 3, 40, 111
4, 280296, Note_on_c, 3, 49, 111
4, 280396, Note_on_c, 3, 49, 0
4, 280484, Note_on_c, 3, 49, 111
4, 280544, Note_on_c, 3, 40, 0
4, 280592, Note_on_c, 3, 49, 0
4, 280868, Note_on_c, 3, 33, 112
4, 281036, Note_on_c, 3, 33, 0
4, 281064, Note_on_c, 3, 38, 113
4, 281644, Note_on_c, 3, 33, 114
4, 281676, Note_on_c, 3, 38, 0
4, 281696, Note_on_c, 3, 33, 0
4, 281824, Note_on_c, 3, 33, 114
4, 282416, Note_on_c, 3, 37, 114
4, 282424, Note_on_c, 3, 33, 0
4, 282560, Note_on_c, 3, 37, 0
4, 282588, Note_on_c, 3, 38, 114
4, 282784, Note_on_c, 3, 38, 0
4, 282812, Note_on_c, 3, 38, 115
4, 282852, Note_on_c, 3, 38, 0
4, 283172, Note_on_c, 3, 33, 115
4, 283252, Note_on_c, 3, 33, 0
4, 283352, Note_on_c, 3, 33, 116
4, 283716, Note_on_c, 3, 33, 0
4, 283744, Note_on_c, 3, 32, 117
4, 284100, Note_on_c, 3, 32, 0
4, 284132, Note_on_c, 3, 31, 118
4, 284688, Note_on_c, 3, 31, 0
4, 284692, Note_on_c, 3, 38, 118
4, 285456, Note_on_c, 3, 30, 121
4, 285560, Note_on_c, 3, 30, 0
4, 285648, Note_on_c, 3, 31, 121
4, 285672, Note_on_c, 3, 38, 0
4, 286256, Note_on_c, 3, 38, 122
4, 286280, Note_on_c, 3, 38, 0
4, 286308, Note_on_c, 3, 31, 0
4, 286444, Note_on_c, 3, 38, 122
4, 286812, Note_on_c, 3, 31, 122
4, 286848, Note_on_c, 3, 38, 0
4, 287180, Note_on_c, 3, 31, 0
4, 287188, Note_on_c, 3, 37, 122
4, 287804, Note_on_c, 3, 32, 122
4, 287840, Note_on_c, 3, 32, 0
4, 287988, Note_on_c, 3, 32, 122
4, 288032, Note_on_c, 3, 37, 0
4, 288532, Note_on_c, 3, 37, 122
4, 288560, Note_on_c, 3, 32, 0
4, 288588, Note_on_c, 3, 37, 0
4, 288716, Note_on_c, 3, 37, 122
4, 289316, Note_on_c, 3, 31, 122
4, 289352, Note_on_c, 3, 31, 0
4, 289484, Note_on_c, 3, 31, 122
4, 289500, Note_on_c, 3, 37, 0
4, 290084, Note_on_c, 3, 31, 0
4, 290088, Note_on_c, 3, 37, 123
4, 290120, Note_on_c, 3, 37, 0
4, 290272, Note_on_c, 3, 30, 123
4, 290852, Note_on_c, 3, 37, 123
4, 290868, Note_on_c, 3, 30, 0
4, 290876, Note_on_c, 3, 37, 0
4, 291040, Note_on_c, 3, 37, 123
4, 291628, Note_on_c, 3, 46, 123
4, 291632, Note_on_c, 3, 37, 0
4, 292396, Note_on_c, 3, 37, 123
4, 292428, Note_on_c, 3, 46, 0
4, 292448, Note_on_c, 3, 37, 0
4, 292576, Note_on_c, 3, 37, 123
4, 292968, Note_on_c, 3, 37, 0
4, 292980, Note_on_c, 3, 30, 123
4, 293328, Note_on_c, 3, 30, 0
4, 293348, Note_on_c, 3, 35, 123
4, 293932, Note_on_c, 3, 42, 123
4, 293960, Note_on_c, 3, 42, 0
4, 294108, Note_on_c, 3, 42, 105
4, 294176, Note_on_c, 3, 35, 0
4, 294692, Note_on_c, 3, 34, 105
4, 294836, Note_on_c, 3, 34, 0
4, 294836, Note_on_c, 3, 42, 0
4, 294876, Note_on_c, 3, 35, 105
4, 295444, Note_on_c, 3, 42, 107
4, 295496, Note_on_c, 3, 42, 0
4, 295636, Note_on_c, 3, 35, 0
4, 295640, Note_on_c, 3, 42, 109
4, 295720, Note_on_c, 3, 42, 0
4, 295828, Note_on_c, 3, 33, 110
4, 295996, Note_on_c, 3, 33, 0
4, 296016, Note_on_c, 3, 34, 111
4, 296172, Note_on_c, 3, 34, 0
4, 296228, Note_on_c, 3, 35, 112
4, 296980, Note_on_c, 3, 42, 114
4, 297004, Note_on_c, 3, 35, 0
4, 297020, Note_on_c, 3, 42, 0
4, 297188, Note_on_c, 3, 42, 114
4, 297556, Note_on_c, 3, 33, 115
4, 297628, Note_on_c, 3, 42, 0
4, 297632, Note_on_c, 3, 33, 0
4, 297776, Note_on_c, 3, 33, 115
4, 297904, Note_on_c, 3, 33, 0
4, 297948, Note_on_c, 3, 34, 115
4, 298132, Note_on_c, 3, 35, 115
4, 298148, Note_on_c, 3, 34, 0
4, 298536, Note_on_c, 3, 42, 115
4, 298568, Note_on_c, 3, 42, 0
4, 298568, Note_on_c, 3, 35, 0
4, 298700, Note_on_c, 3, 42, 115
4, 298728, Note_on_c, 3, 42, 0
4, 298912, Note_on_c, 3, 33, 115
4, 298944, Note_on_c, 3, 33, 0
4, 299112, Note_on_c, 3, 32, 115
4, 299452, Note_on_c, 3, 32, 0
4, 299496, Note_on_c, 3, 31, 115
4, 300048, Note_on_c, 3, 31, 0
4, 300072, Note_on_c, 3, 38, 115
4, 300104, Note_on_c, 3, 38, 0
4, 300268, Note_on_c, 3, 38, 115
4, 300848, Note_on_c, 3, 30, 115
4, 300964, Note_on_c, 3, 30, 0
4, 301004, Note_on_c, 3, 38, 0
4, 301012, Note_on_c, 3, 31, 115
4, 301592, Note_on_c, 3, 38, 115
4, 301628, Note_on_c, 3, 31, 0
4, 301788, Note_on_c, 3, 38, 0
4, 301800, Note_on_c, 3, 47, 115
4, 301968, Note_on_c, 3, 47, 0
4, 301996, Note_on_c, 3, 47, 115
4, 302060, Note_on_c, 3, 47, 0
4, 302184, Note_on_c, 3, 30, 109
4, 302304, Note_on_c, 3, 30, 0
4, 302352, Note_on_c, 3, 30, 108
4, 302512, Note_on_c, 3, 30, 0
4, 302568, Note_on_c, 3, 31, 106
4, 303148, Note_on_c, 3, 38, 105
4, 303164, Note_on_c, 3, 38, 0
4, 303168, Note_on_c, 3, 31, 0
4, 303324, Note_on_c, 3, 38, 105
4, 303692, Note_on_c, 3, 38, 0
4, 303716, Note_on_c, 3, 47, 106
4, 303856, Note_on_c, 3, 47, 0
4, 303928, Note_on_c, 3, 47, 106
4, 304644, Note_on_c, 3, 47, 0
4, 304676, Note_on_c, 3, 30, 106
4, 304804, Note_on_c, 3, 30, 0
4, 304868, Note_on_c, 3, 31, 109
4, 305044, Note_on_c, 3, 31, 0
4, 305068, Note_on_c, 3, 38, 111
4, 305076, Note_on_c, 3, 31, 111
4, 305096, Note_on_c, 3, 38, 0
4, 305140, Note_on_c, 3, 31, 0
4, 305248, Note_on_c, 3, 38, 113
4, 305452, Note_on_c, 3, 38, 0
4, 305456, Note_on_c, 3, 31, 114
4, 305596, Note_on_c, 3, 31, 0
4, 305652, Note_on_c, 3, 30, 114
4, 306212, Note_on_c, 3, 37, 115
4, 306232, Note_on_c, 3, 37, 0
4, 306380, Note_on_c, 3, 30, 0
4, 306404, Note_on_c, 3, 37, 116
4, 306984, Note_on_c, 3, 29, 117
4, 307084, Note_on_c, 3, 29, 0
4, 307136, Note_on_c, 3, 37, 0
4, 307172, Note_on_c, 3, 30, 118
4, 307756, Note_on_c, 3, 37, 120
4, 307784, Note_on_c, 3, 37, 0
4, 307796, Note_on_c, 3, 30, 0
4, 307948, Note_on_c, 3, 37, 122
4, 308004, Note_on_c, 3, 37, 0
4, 308140, Note_on_c, 3, 37, 122
4, 308304, Note_on_c, 3, 37, 0
4, 308324, Note_on_c, 3, 42, 122
4, 308528, Note_on_c, 3, 42, 0
4, 308704, Note_on_c, 3, 30, 121
4, 309288, Note_on_c, 3, 37, 120
4, 309312, Note_on_c, 3, 37, 0
4, 309412, Note_on_c, 3, 30, 0
4, 309456, Note_on_c, 3, 46, 120
4, 310056, Note_on_c, 3, 37, 117
4, 310112, Note_on_c, 3, 37, 0
4, 310124, Note_on_c, 3, 46, 0
4, 310228, Note_on_c, 3, 30, 116
4, 310384, Note_on_c, 3, 30, 0
4, 310428, Note_on_c, 3, 30, 116
4, 310512, Note_on_c, 3, 30, 0
4, 310788, Note_on_c, 3, 29, 115
4, 310788, Note_on_c, 3, 45, 115
4, 310924, Note_on_c, 3, 29, 0
4, 310948, Note_on_c, 3, 45, 0
4, 310980, Note_on_c, 3, 46, 115
4, 310984, Note_on_c, 3, 30, 115
4, 311344, Note_on_c, 3, 46, 0
4, 311380, Note_on_c, 3, 30, 0
4, 311388, Note_on_c, 3, 37, 115
4, 311544, Note_on_c, 3, 37, 0
4, 311568, Note_on_c, 3, 30, 115
4, 311696, Note_on_c, 3, 30, 0
4, 311772, Note_on_c, 3, 40, 115
4, 312324, Note_on_c, 3, 40, 0
4, 312364, Note_on_c, 3, 35, 117
4, 312444, Note_on_c, 3, 35, 0
4, 312544, Note_on_c, 3, 35, 117
4, 313108, Note_on_c, 3, 35, 0
4, 313128, Note_on_c, 3, 40, 118
4, 313152, Note_on_c, 3, 40, 0
4, 313320, Note_on_c, 3, 40, 118
4, 313872, Note_on_c, 3, 40, 0
4, 313892, Note_on_c, 3, 34, 118
4, 314064, Note_on_c, 3, 34, 0
4, 314080, Note_on_c, 3, 35, 118
4, 314192, Note_on_c, 3, 35, 0
4, 314268, Note_on_c, 3, 35, 118
4, 314364, Note_on_c, 3, 35, 0
4, 314464, Note_on_c, 3, 34, 109
4, 314536, Note_on_c, 3, 34, 0
4, 314660, Note_on_c, 3, 34, 109
4, 314776, Note_on_c, 3, 34, 0
4, 314836, Note_on_c, 3, 33, 109
4, 315412, Note_on_c, 3, 33, 0
4, 315436, Note_on_c, 3, 40, 109
4, 315452, Note_on_c, 3, 40, 0
4, 315624, Note_on_c, 3, 40, 109
4, 315684, Note_on_c, 3, 40, 0
4, 315780, Note_on_c, 3, 31, 109
4, 315888, Note_on_c, 3, 31, 0
4, 315980, Note_on_c, 3, 32, 109
4, 316180, Note_on_c, 3, 32, 0
4, 316204, Note_on_c, 3, 33, 109
4, 316968, Note_on_c, 3, 33, 0
4, 316972, Note_on_c, 3, 40, 109
4, 316992, Note_on_c, 3, 40, 0
4, 317152, Note_on_c, 3, 40, 109
4, 317516, Note_on_c, 3, 49, 109
4, 317608, Note_on_c, 3, 40, 0
4, 317640, Note_on_c, 3, 49, 0
4, 317716, Note_on_c, 3, 39, 109
4, 317872, Note_on_c, 3, 39, 0
4, 317900, Note_on_c, 3, 38, 109
4, 318484, Note_on_c, 3, 33, 110
4, 318560, Note_on_c, 3, 38, 0
4, 319224, Note_on_c, 3, 33, 0
4, 319268, Note_on_c, 3, 38, 114
4, 319296, Note_on_c, 3, 38, 0
4, 319468, Note_on_c, 3, 38, 114
4, 319468, Note_on_c, 3, 40, 114
4, 319500, Note_on_c, 3, 40, 0
4, 319824, Note_on_c, 3, 31, 116
4, 319892, Note_on_c, 3, 31, 0
4, 320044, Note_on_c, 3, 32, 116
4, 320128, Note_on_c, 3, 32, 0
4, 320224, Note_on_c, 3, 33, 116
4, 320232, Note_on_c, 3, 38, 0
4, 320576, Note_on_c, 3, 38, 117
4, 320592, Note_on_c, 3, 33, 0
4, 320648, Note_on_c, 3, 38, 0
4, 320788, Note_on_c, 3, 33, 117
4, 320820, Note_on_c, 3, 33, 0
4, 320972, Note_on_c, 3, 43, 117
4, 321584, Note_on_c, 3, 38, 118
4, 321604, Note_on_c, 3, 43, 0
4, 321608, Note_on_c, 3, 38, 0
4, 321756, Note_on_c, 3, 38, 119
4, 322340, Note_on_c, 3, 38, 0
4, 322340, Note_on_c, 3, 42, 119
4, 322492, Note_on_c, 3, 42, 0
4, 322516, Note_on_c, 3, 43, 119
4, 323112, Note_on_c, 3, 37, 119
4, 323156, Note_on_c, 3, 43, 0
4, 323276, Note_on_c, 3, 37, 0
4, 323284, Note_on_c, 3, 38, 120
4, 323504, Note_on_c, 3, 43, 120
4, 323540, Note_on_c, 3, 38, 0
4, 323608, Note_on_c, 3, 43, 0
4, 323712, Note_on_c, 3, 37, 120
4, 323728, Note_on_c, 3, 37, 0
4, 323892, Note_on_c, 3, 38, 120
4, 324004, Note_on_c, 3, 38, 0
4, 324068, Note_on_c, 3, 37, 120
4, 324676, Note_on_c, 3, 31, 120
4, 324716, Note_on_c, 3, 31, 0
4, 324836, Note_on_c, 3, 31, 120
4, 324864, Note_on_c, 3, 37, 0
4, 325380, Note_on_c, 3, 31, 0
4, 325392, Note_on_c, 3, 37, 120
4, 325488, Note_on_c, 3, 37, 0
4, 325596, Note_on_c, 3, 37, 120
4, 326112, Note_on_c, 3, 37, 0
4, 326188, Note_on_c, 3, 37, 120
4, 326240, Note_on_c, 3, 37, 0
4, 326368, Note_on_c, 3, 44, 120
4, 326732, Note_on_c, 3, 44, 0
4, 326756, Note_on_c, 3, 43, 120
4, 326952, Note_on_c, 3, 37, 120
4, 326996, Note_on_c, 3, 37, 0
4, 326996, Note_on_c, 3, 43, 0
4, 327144, Note_on_c, 3, 42, 120
4, 327724, Note_on_c, 3, 37, 120
4, 327740, Note_on_c, 3, 37, 0
4, 327884, Note_on_c, 3, 42, 0
4, 327892, Note_on_c, 3, 37, 120
4, 328468, Note_on_c, 3, 30, 120
4, 328484, Note_on_c, 3, 37, 0
4, 329256, Note_on_c, 3, 37, 120
4, 329284, Note_on_c, 3, 37, 0
4, 329444, Note_on_c, 3, 42, 120
4, 329804, Note_on_c, 3, 42, 0
4, 329920, Note_on_c, 3, 30, 0
4, 330020, Note_on_c, 3, 34, 120
4, 330136, Note_on_c, 3, 34, 0
4, 330196, Note_on_c, 3, 35, 120
4, 330768, Note_on_c, 3, 35, 0
4, 330772, Note_on_c, 3, 42, 120
4, 330824, Note_on_c, 3, 42, 0
4, 330964, Note_on_c, 3, 42, 120
4, 331024, Note_on_c, 3, 42, 0
4, 331156, Note_on_c, 3, 33, 120
4, 331540, Note_on_c, 3, 33, 0
4, 331544, Note_on_c, 3, 35, 120
4, 332324, Note_on_c, 3, 35, 0
4, 332324, Note_on_c, 3, 42, 120
4, 332356, Note_on_c, 3, 42, 0
4, 332496, Note_on_c, 3, 42, 120
4, 332548, Note_on_c, 3, 42, 0
4, 332704, Note_on_c, 3, 33, 120
4, 332736, Note_on_c, 3, 33, 0
4, 332896, Note_on_c, 3, 34, 120
4, 333232, Note_on_c, 3, 34, 0
4, 333264, Note_on_c, 3, 35, 120
4, 333864, Note_on_c, 3, 42, 119
4, 333900, Note_on_c, 3, 35, 0
4, 333920, Note_on_c, 3, 42, 0
4, 334056, Note_on_c, 3, 42, 119
4, 334608, Note_on_c, 3, 34, 118
4, 334744, Note_on_c, 3, 42, 0
4, 334748, Note_on_c, 3, 34, 0
4, 334812, Note_on_c, 3, 35, 118
4, 335396, Note_on_c, 3, 42, 116
4, 335424, Note_on_c, 3, 42, 0
4, 335536, Note_on_c, 3, 35, 0
4, 335564, Note_on_c, 3, 42, 115
4, 335648, Note_on_c, 3, 42, 0
4, 335772, Note_on_c, 3, 35, 115
4, 335808, Note_on_c, 3, 35, 0
4, 335948, Note_on_c, 3, 41, 115
4, 336076, Note_on_c, 3, 41, 0
4, 336360, Note_on_c, 3, 40, 115
4, 337120, Note_on_c, 3, 35, 101
4, 337680, Note_on_c, 3, 40, 0
4, 337684, Note_on_c, 3, 35, 0
4, 337704, Note_on_c, 3, 33, 102
4, 338424, Note_on_c, 3, 40, 104
4, 338528, Note_on_c, 3, 33, 0
4, 338860, Note_on_c, 3, 33, 105
4, 338912, Note_on_c, 3, 33, 0
4, 338980, Note_on_c, 3, 40, 0
4, 339044, Note_on_c, 3, 39, 105
4, 339376, Note_on_c, 3, 39, 0
4, 339424, Note_on_c, 3, 38, 106
4, 340368, Note_on_c, 3, 33, 110
4, 340404, Note_on_c, 3, 33, 0
4, 340548, Note_on_c, 3, 32, 110
4, 340584, Note_on_c, 3, 38, 0
4, 340728, Note_on_c, 3, 32, 0
4, 340752, Note_on_c, 3, 31, 111
4, 341496, Note_on_c, 3, 38, 112
4, 341568, Note_on_c, 3, 31, 0
4, 342308, Note_on_c, 3, 31, 113
4, 342388, Note_on_c, 3, 31, 0
4, 342412, Note_on_c, 3, 38, 0
4, 342504, Note_on_c, 3, 37, 113
4, 343620, Note_on_c, 3, 37, 0
4, 343624, Note_on_c, 3, 30, 113
4, 344976, Note_on_c, 3, 37, 115
4, 345072, Note_on_c, 3, 37, 0
4, 345072, Note_on_c, 3, 30, 0
4, 345168, Note_on_c, 3, 34, 115
4, 345472, Note_on_c, 3, 34, 0
4, 345548, Note_on_c, 3, 35, 115
4, 346436, Note_on_c, 3, 35, 0
4, 346700, Note_on_c, 3, 35, 116
4, 348648, Note_on_c, 3, 38, 119
4, 348652, Note_on_c, 3, 35, 0
4, 348684, Note_on_c, 3, 38, 0
4, 349020, Note_on_c, 3, 42, 119
4, 349172, Note_on_c, 3, 42, 0
4, 349200, Note_on_c, 3, 38, 120
4, 349328, Note_on_c, 3, 38, 0
4, 349392, Note_on_c, 3, 40, 120
4, 349560, Note_on_c, 3, 40, 0
4, 349604, Note_on_c, 3, 38, 120
4, 349732, Note_on_c, 3, 38, 0
4, 349764, Note_on_c, 3, 35, 120
4, 349848, Note_on_c, 3, 35, 0
4, 349968, Note_on_c, 3, 38, 121
4, 350080, Note_on_c, 3, 38, 0
4, 350368, Note_on_c, 3, 37, 122
4, 350484, Note_on_c, 3, 37, 0
4, 350532, Note_on_c, 3, 33, 122
4, 350624, Note_on_c, 3, 33, 0
4, 350736, Note_on_c, 3, 37, 123
4, 351120, Note_on_c, 3, 37, 0
4, 351164, Note_on_c, 3, 35, 123
4, 351212, Note_on_c, 3, 35, 0
4, 351332, Note_on_c, 3, 31, 123
4, 351372, Note_on_c, 3, 31, 0
4, 351720, Note_on_c, 3, 28, 123
4, 352060, Note_on_c, 3, 35, 123
4, 352128, Note_on_c, 3, 35, 0
4, 352304, Note_on_c, 3, 43, 123
4, 352352, Note_on_c, 3, 43, 0
4, 352632, Note_on_c, 3, 35, 123
4, 352656, Note_on_c, 3, 28, 0
4, 352784, Note_on_c, 3, 35, 0
4, 352848, Note_on_c, 3, 28, 122
4, 353600, Note_on_c, 3, 28, 0
4, 354016, Note_on_c, 3, 30, 101
4, 354380, Note_on_c, 3, 37, 104
4, 354500, Note_on_c, 3, 37, 0
4, 354580, Note_on_c, 3, 42, 106
4, 354632, Note_on_c, 3, 42, 0
4, 354960, Note_on_c, 3, 37, 108
4, 355008, Note_on_c, 3, 30, 0
4, 355148, Note_on_c, 3, 37, 0
4, 355156, Note_on_c, 3, 30, 109
4, 357456, Note_on_c, 3, 30, 0
4, 357676, Note_on_c, 3, 30, 118
4, 357748, Note_on_c, 3, 30, 0
4, 357844, Note_on_c, 3, 31, 118
4, 358436, Note_on_c, 3, 38, 119
4, 358476, Note_on_c, 3, 31, 0
4, 359012, Note_on_c, 3, 38, 0
4, 359016, Note_on_c, 3, 47, 119
4, 359044, Note_on_c, 3, 47, 0
4, 359184, Note_on_c, 3, 38, 119
4, 359312, Note_on_c, 3, 38, 0
4, 359400, Note_on_c, 3, 31, 119
4, 359976, Note_on_c, 3, 38, 120
4, 360088, Note_on_c, 3, 38, 0
4, 360112, Note_on_c, 3, 31, 0
4, 360160, Note_on_c, 3, 47, 120
4, 360304, Note_on_c, 3, 47, 0
4, 360336, Note_on_c, 3, 47, 120
4, 360404, Note_on_c, 3, 47, 0
4, 360528, Note_on_c, 3, 38, 120
4, 360720, Note_on_c, 3, 31, 120
4, 360788, Note_on_c, 3, 38, 0
4, 360804, Note_on_c, 3, 31, 0
4, 360936, Note_on_c, 3, 30, 121
4, 361524, Note_on_c, 3, 37, 121
4, 361540, Note_on_c, 3, 30, 0
4, 361928, Note_on_c, 3, 42, 121
4, 361968, Note_on_c, 3, 42, 0
4, 362088, Note_on_c, 3, 46, 121
4, 362176, Note_on_c, 3, 46, 0
4, 362176, Note_on_c, 3, 37, 0
4, 362276, Note_on_c, 3, 37, 122
4, 362372, Note_on_c, 3, 37, 0
4, 362468, Note_on_c, 3, 30, 122
4, 363052, Note_on_c, 3, 37, 123
4, 363120, Note_on_c, 3, 30, 0
4, 363172, Note_on_c, 3, 37, 0
4, 363236, Note_on_c, 3, 46, 123
4, 363328, Note_on_c, 3, 46, 0
4, 363424, Note_on_c, 3, 46, 123
4, 363500, Note_on_c, 3, 46, 0
4, 363584, Note_on_c, 3, 37, 124
4, 363684, Note_on_c, 3, 37, 0
4, 363780, Note_on_c, 3, 30, 124
4, 363848, Note_on_c, 3, 30, 0
4, 363964, Note_on_c, 3, 28, 124
4, 364588, Note_on_c, 3, 35, 124
4, 364612, Note_on_c, 3, 35, 0
4, 364752, Note_on_c, 3, 35, 124
4, 364976, Note_on_c, 3, 28, 0
4, 365328, Note_on_c, 3, 35, 0
4, 365360, Note_on_c, 3, 33, 125
4, 366116, Note_on_c, 3, 40, 125
4, 366256, Note_on_c, 3, 33, 0
4, 366284, Note_on_c, 3, 49, 125
4, 366756, Note_on_c, 3, 40, 0
4, 366884, Note_on_c, 3, 37, 126
4, 366988, Note_on_c, 3, 49, 0
4, 367000, Note_on_c, 3, 37, 0
4, 367056, Note_on_c, 3, 38, 126
4, 368032, Note_on_c, 3, 33, 127
4, 368084, Note_on_c, 3, 33, 0
4, 368204, Note_on_c, 3, 32, 127
4, 368268, Note_on_c, 3, 32, 0
4, 368400, Note_on_c, 3, 31, 127
4, 368432, Note_on_c, 3, 38, 0
4, 369168, Note_on_c, 3, 38, 127
4, 369200, Note_on_c, 3, 38, 0
4, 369236, Note_on_c, 3, 31, 0
4, 369356, Note_on_c, 3, 43, 127
4, 369396, Note_on_c, 3, 43, 0
4, 369756, Note_on_c, 3, 38, 127
4, 369884, Note_on_c, 3, 38, 0
4, 369936, Note_on_c, 3, 31, 127
4, 370132, Note_on_c, 3, 37, 127
4, 370140, Note_on_c, 3, 31, 0
4, 370724, Note_on_c, 3, 32, 127
4, 370764, Note_on_c, 3, 32, 0
4, 370880, Note_on_c, 3, 32, 126
4, 370916, Note_on_c, 3, 37, 0
4, 371448, Note_on_c, 3, 32, 0
4, 371472, Note_on_c, 3, 31, 125
4, 371584, Note_on_c, 3, 31, 0
4, 371648, Note_on_c, 3, 30, 124
4, 372260, Note_on_c, 3, 42, 122
4, 372288, Note_on_c, 3, 30, 0
4, 372612, Note_on_c, 3, 30, 121
4, 372680, Note_on_c, 3, 30, 0
4, 372788, Note_on_c, 3, 33, 120
4, 372864, Note_on_c, 3, 33, 0
4, 372960, Note_on_c, 3, 34, 120
4, 373040, Note_on_c, 3, 42, 0
4, 373076, Note_on_c, 3, 34, 0
4, 373168, Note_on_c, 3, 35, 119
4, 374016, Note_on_c, 3, 35, 0
4, 374336, Note_on_c, 3, 35, 110
4, 375944, Note_on_c, 3, 35, 0
4, 376272, Note_on_c, 3, 35, 108
4, 376348, Note_on_c, 3, 35, 0
4, 376868, Note_on_c, 3, 40, 108
4, 376928, Note_on_c, 3, 40, 0
4, 377636, Note_on_c, 3, 43, 108
4, 377780, Note_on_c, 3, 43, 0
4, 377804, Note_on_c, 3, 42, 108
4, 378148, Note_on_c, 3, 42, 0
4, 378172, Note_on_c, 3, 38, 108
4, 378372, Note_on_c, 3, 38, 0
4, 378384, Note_on_c, 3, 35, 108
4, 378468, Note_on_c, 3, 35, 0
4, 378564, Note_on_c, 3, 40, 108
4, 378652, Note_on_c, 3, 40, 0
4, 378704, Note_on_c, 3, 34, 108
4, 378736, Note_on_c, 3, 34, 0
4, 379184, Note_on_c, 3, 33, 108
4, 379268, Note_on_c, 3, 33, 0
4, 379940, Note_on_c, 3, 38, 108
4, 380092, Note_on_c, 3, 38, 0
4, 380116, Note_on_c, 3, 37, 107
4, 380252, Note_on_c, 3, 37, 0
4, 380884, Note_on_c, 3, 33, 106
4, 381060, Note_on_c, 3, 33, 0
4, 381076, Note_on_c, 3, 35, 106
4, 381120, Note_on_c, 3, 35, 0
4, 381456, Note_on_c, 3, 31, 106
4, 381536, Note_on_c, 3, 31, 0
4, 381820, Note_on_c, 3, 31, 106
4, 381872, Note_on_c, 3, 31, 0
4, 382000, Note_on_c, 3, 38, 106
4, 382372, Note_on_c, 3, 38, 0
4, 382420, Note_on_c, 3, 40, 108
4, 382628, Note_on_c, 3, 40, 0
4, 383012, Note_on_c, 3, 40, 111
4, 383116, Note_on_c, 3, 40, 0
4, 383180, Note_on_c, 3, 43, 112
4, 383540, Note_on_c, 3, 43, 0
4, 383556, Note_on_c, 3, 42, 113
4, 383656, Note_on_c, 3, 42, 0
4, 383760, Note_on_c, 3, 38, 113
4, 383896, Note_on_c, 3, 38, 0
4, 383940, Note_on_c, 3, 35, 114
4, 384268, Note_on_c, 3, 35, 0
4, 384332, Note_on_c, 3, 38, 116
4, 384504, Note_on_c, 3, 35, 116
4, 384508, Note_on_c, 3, 38, 0
4, 384596, Note_on_c, 3, 35, 0
4, 384708, Note_on_c, 3, 40, 116
4, 385088, Note_on_c, 3, 40, 0
4, 385108, Note_on_c, 3, 37, 117
4, 385296, Note_on_c, 3, 35, 117
4, 385328, Note_on_c, 3, 37, 0
4, 385348, Note_on_c, 3, 35, 0
4, 385668, Note_on_c, 3, 30, 117
4, 385804, Note_on_c, 3, 30, 0
4, 385892, Note_on_c, 3, 28, 117
4, 386436, Note_on_c, 3, 28, 0
4, 386468, Note_on_c, 3, 30, 117
4, 386544, Note_on_c, 3, 30, 0
4, 386800, Note_on_c, 3, 35, 117
4, 386912, Note_on_c, 3, 35, 0
4, 386992, Note_on_c, 3, 37, 117
4, 387604, Note_on_c, 3, 32, 117
4, 387688, Note_on_c, 3, 32, 0
4, 388004, Note_on_c, 3, 30, 117
4, 388080, Note_on_c, 3, 30, 0
4, 388172, Note_on_c, 3, 28, 117
4, 388200, Note_on_c, 3, 37, 0
4, 388388, Note_on_c, 3, 28, 0
4, 388740, Note_on_c, 3, 37, 117
4, 388864, Note_on_c, 3, 37, 0
4, 388932, Note_on_c, 3, 42, 117
4, 389072, Note_on_c, 3, 42, 0
4, 389136, Note_on_c, 3, 37, 117
4, 389248, Note_on_c, 3, 37, 0
4, 389332, Note_on_c, 3, 44, 117
4, 389472, Note_on_c, 3, 44, 0
4, 389532, Note_on_c, 3, 37, 117
4, 389568, Note_on_c, 3, 37, 0
4, 389724, Note_on_c, 3, 46, 117
4, 389936, Note_on_c, 3, 46, 0
4, 390382, Note_on_c, 3, 42, 117
4, 390414, Note_on_c, 3, 42, 0
4, 391412, Note_on_c, 3, 54, 117
4, 391568, Note_on_c, 3, 54, 0
4, 391928, Note_on_c, 3, 31, 84
4, 395706, Note_on_c, 3, 34, 87
4, 395725, Note_on_c, 3, 31, 0
4, 397728, Control_c, 3, 120, 0
4, 401255, Note_on_c, 3, 35, 78
4, 401270, Note_on_c, 3, 36, 80
4, 401329, Note_on_c, 3, 34, 0
4, 401447, Note_on_c, 3, 36, 0
4, 403989, Note_on_c, 3, 47, 67
4, 406920, Note_on_c, 3, 35, 0
4, 408267, Note_on_c, 3, 47, 0
4, 408267, End_track
5, 0, Start_track
5, 0, MIDI_port, 0
5, 0, Title_t, ""
5, 0, Control_c, 9, 7, 93
5, 1500, Note_on_c, 9, 51, 31
5, 1500, Note_on_c, 9, 35, 53
5, 1588, Note_on_c, 9, 51, 0
5, 1612, Note_on_c, 9, 35, 0
5, 1884, Note_on_c, 9, 63, 52
5, 1884, Note_on_c, 9, 51, 38
5, 1948, Note_on_c, 9, 63, 0
5, 1972, Note_on_c, 9, 51, 0
5, 2076, Note_on_c, 9, 63, 57
5, 2076, Note_on_c, 9, 51, 33
5, 2084, Note_on_c, 9, 35, 48
5, 2144, Note_on_c, 9, 63, 0
5, 2164, Note_on_c, 9, 51, 0
5, 2168, Note_on_c, 9, 35, 0
5, 2268, Note_on_c, 9, 51, 31
5, 2268, Note_on_c, 9, 35, 53
5, 2368, Note_on_c, 9, 51, 0
5, 2448, Note_on_c, 9, 35, 0
5, 2460, Note_on_c, 9, 51, 34
5, 2548, Note_on_c, 9, 51, 0
5, 2652, Note_on_c, 9, 51, 31
5, 2716, Note_on_c, 9, 51, 0
5, 2844, Note_on_c, 9, 51, 55
5, 2844, Note_on_c, 9, 35, 44
5, 2924, Note_on_c, 9, 35, 0
5, 2968, Note_on_c, 9, 51, 0
5, 3036, Note_on_c, 9, 35, 58
5, 3228, Note_on_c, 9, 51, 45
5, 3268, Note_on_c, 9, 51, 0
5, 3284, Note_on_c, 9, 35, 0
5, 3612, Note_on_c, 9, 64, 65
5, 3612, Note_on_c, 9, 51, 43
5, 3616, Note_on_c, 9, 35, 29
5, 3624, Note_on_c, 9, 51, 0
5, 3680, Note_on_c, 9, 35, 0
5, 3760, Note_on_c, 9, 64, 0
5, 3804, Note_on_c, 9, 51, 37
5, 3804, Note_on_c, 9, 35, 57
5, 3828, Note_on_c, 9, 51, 0
5, 3996, Note_on_c, 9, 51, 35
5, 4020, Note_on_c, 9, 51, 0
5, 4032, Note_on_c, 9, 35, 0
5, 4188, Note_on_c, 9, 63, 44
5, 4188, Note_on_c, 9, 51, 34
5, 4224, Note_on_c, 9, 51, 0
5, 4236, Note_on_c, 9, 63, 0
5, 4380, Note_on_c, 9, 63, 71
5, 4380, Note_on_c, 9, 35, 32
5, 4412, Note_on_c, 9, 35, 0
5, 4540, Note_on_c, 9, 63, 0
5, 4572, Note_on_c, 9, 51, 35
5, 4572, Note_on_c, 9, 35, 51
5, 4688, Note_on_c, 9, 51, 0
5, 4860, Note_on_c, 9, 35, 0
5, 4956, Note_on_c, 9, 64, 36
5, 4956, Note_on_c, 9, 51, 35
5, 4996, Note_on_c, 9, 51, 0
5, 5020, Note_on_c, 9, 64, 0
5, 5148, Note_on_c, 9, 64, 60
5, 5148, Note_on_c, 9, 51, 45
5, 5156, Note_on_c, 9, 35, 45
5, 5192, Note_on_c, 9, 35, 0
5, 5216, Note_on_c, 9, 51, 0
5, 5340, Note_on_c, 9, 35, 58
5, 5392, Note_on_c, 9, 64, 0
5, 5532, Note_on_c, 9, 51, 28
5, 5556, Note_on_c, 9, 51, 0
5, 5628, Note_on_c, 9, 35, 0
5, 5724, Note_on_c, 9, 63, 35
5, 5724, Note_on_c, 9, 51, 43
5, 5812, Note_on_c, 9, 63, 0
5, 5916, Note_on_c, 9, 63, 58
5, 5916, Note_on_c, 9, 35, 45
5, 5952, Note_on_c, 9, 35, 0
5, 5996, Note_on_c, 9, 51, 0
5, 6108, Note_on_c, 9, 35, 51
5, 6416, Note_on_c, 9, 63, 0
5, 6424, Note_on_c, 9, 35, 0
5, 6492, Note_on_c, 9, 64, 38
5, 6540, Note_on_c, 9, 64, 0
5, 6684, Note_on_c, 9, 64, 58
5, 6684, Note_on_c, 9, 51, 25
5, 6688, Note_on_c, 9, 35, 44
5, 6720, Note_on_c, 9, 35, 0
5, 6764, Note_on_c, 9, 51, 0
5, 6876, Note_on_c, 9, 51, 64
5, 6876, Note_on_c, 9, 35, 62
5, 7104, Note_on_c, 9, 64, 0
5, 7124, Note_on_c, 9, 51, 0
5, 7180, Note_on_c, 9, 35, 0
5, 7260, Note_on_c, 9, 63, 37
5, 7260, Note_on_c, 9, 51, 29
5, 7316, Note_on_c, 9, 51, 0
5, 7320, Note_on_c, 9, 63, 0
5, 7452, Note_on_c, 9, 63, 72
5, 7452, Note_on_c, 9, 51, 63
5, 7456, Note_on_c, 9, 35, 38
5, 7492, Note_on_c, 9, 35, 0
5, 7576, Note_on_c, 9, 51, 0
5, 7644, Note_on_c, 9, 35, 60
5, 7892, Note_on_c, 9, 63, 0
5, 7996, Note_on_c, 9, 35, 0
5, 8028, Note_on_c, 9, 64, 28
5, 8032, Note_on_c, 9, 51, 60
5, 8064, Note_on_c, 9, 64, 0
5, 8220, Note_on_c, 9, 64, 44
5, 8224, Note_on_c, 9, 35, 33
5, 8292, Note_on_c, 9, 35, 0
5, 8412, Note_on_c, 9, 35, 61
5, 8700, Note_on_c, 9, 64, 0
5, 8796, Note_on_c, 9, 63, 52
5, 8872, Note_on_c, 9, 35, 0
5, 8884, Note_on_c, 9, 63, 0
5, 8984, Note_on_c, 9, 63, 60
5, 8988, Note_on_c, 9, 35, 53
5, 9056, Note_on_c, 9, 35, 0
5, 9180, Note_on_c, 9, 35, 58
5, 9496, Note_on_c, 9, 63, 0
5, 9564, Note_on_c, 9, 64, 30
5, 9636, Note_on_c, 9, 64, 0
5, 9652, Note_on_c, 9, 35, 0
5, 9664, Note_on_c, 9, 51, 0
5, 9756, Note_on_c, 9, 64, 54
5, 9760, Note_on_c, 9, 51, 42
5, 9764, Note_on_c, 9, 35, 45
5, 9788, Note_on_c, 9, 51, 0
5, 9836, Note_on_c, 9, 35, 0
5, 9880, Note_on_c, 9, 64, 0
5, 9948, Note_on_c, 9, 51, 64
5, 9948, Note_on_c, 9, 35, 60
5, 10332, Note_on_c, 9, 63, 45
5, 10368, Note_on_c, 9, 35, 0
5, 10372, Note_on_c, 9, 63, 0
5, 10420, Note_on_c, 9, 51, 0
5, 10524, Note_on_c, 9, 63, 67
5, 10528, Note_on_c, 9, 51, 38
5, 10532, Note_on_c, 9, 35, 42
5, 10560, Note_on_c, 9, 76, 20
5, 10592, Note_on_c, 9, 76, 0
5, 10592, Note_on_c, 9, 35, 0
5, 10592, Note_on_c, 9, 51, 0
5, 10636, Note_on_c, 9, 76, 41
5, 10672, Note_on_c, 9, 76, 0
5, 10684, Note_on_c, 9, 63, 0
5, 10708, Note_on_c, 9, 76, 34
5, 10716, Note_on_c, 9, 51, 65
5, 10716, Note_on_c, 9, 35, 64
5, 10752, Note_on_c, 9, 76, 0
5, 10940, Note_on_c, 9, 76, 25
5, 10964, Note_on_c, 9, 76, 0
5, 11056, Note_on_c, 9, 35, 0
5, 11096, Note_on_c, 9, 64, 20
5, 11112, Note_on_c, 9, 76, 37
5, 11148, Note_on_c, 9, 76, 0
5, 11164, Note_on_c, 9, 64, 0
5, 11200, Note_on_c, 9, 51, 0
5, 11292, Note_on_c, 9, 64, 61
5, 11296, Note_on_c, 9, 51, 39
5, 11300, Note_on_c, 9, 35, 38
5, 11336, Note_on_c, 9, 35, 0
5, 11340, Note_on_c, 9, 51, 0
5, 11484, Note_on_c, 9, 35, 63
5, 11484, Note_on_c, 9, 51, 62
5, 11684, Note_on_c, 9, 64, 0
5, 11876, Note_on_c, 9, 35, 0
5, 11904, Note_on_c, 9, 51, 0
5, 12060, Note_on_c, 9, 63, 71
5, 12064, Note_on_c, 9, 51, 35
5, 12068, Note_on_c, 9, 35, 22
5, 12092, Note_on_c, 9, 51, 0
5, 12116, Note_on_c, 9, 35, 0
5, 12252, Note_on_c, 9, 35, 62
5, 12252, Note_on_c, 9, 51, 60
5, 12512, Note_on_c, 9, 63, 0
5, 12612, Note_on_c, 9, 35, 0
5, 12636, Note_on_c, 9, 64, 34
5, 12672, Note_on_c, 9, 64, 0
5, 12704, Note_on_c, 9, 51, 0
5, 12828, Note_on_c, 9, 64, 64
5, 12832, Note_on_c, 9, 51, 34
5, 12836, Note_on_c, 9, 35, 30
5, 12896, Note_on_c, 9, 35, 0
5, 12900, Note_on_c, 9, 51, 0
5, 13020, Note_on_c, 9, 35, 62
5, 13020, Note_on_c, 9, 51, 47
5, 13164, Note_on_c, 9, 51, 0
5, 13172, Note_on_c, 9, 64, 0
5, 13212, Note_on_c, 9, 53, 56
5, 13252, Note_on_c, 9, 53, 0
5, 13404, Note_on_c, 9, 63, 36
5, 13404, Note_on_c, 9, 51, 32
5, 13428, Note_on_c, 9, 35, 0
5, 13448, Note_on_c, 9, 63, 0
5, 13504, Note_on_c, 9, 51, 0
5, 13596, Note_on_c, 9, 63, 71
5, 13600, Note_on_c, 9, 53, 64
5, 13708, Note_on_c, 9, 53, 0
5, 13788, Note_on_c, 9, 51, 35
5, 13788, Note_on_c, 9, 35, 66
5, 14076, Note_on_c, 9, 51, 0
5, 14092, Note_on_c, 9, 63, 0
5, 14128, Note_on_c, 9, 35, 0
5, 14172, Note_on_c, 9, 64, 28
5, 14208, Note_on_c, 9, 64, 0
5, 14364, Note_on_c, 9, 64, 68
5, 14368, Note_on_c, 9, 51, 54
5, 14372, Note_on_c, 9, 35, 38
5, 14420, Note_on_c, 9, 51, 0
5, 14432, Note_on_c, 9, 35, 0
5, 14556, Note_on_c, 9, 51, 60
5, 14556, Note_on_c, 9, 35, 58
5, 14704, Note_on_c, 9, 64, 0
5, 14792, Note_on_c, 9, 51, 0
5, 14884, Note_on_c, 9, 35, 0
5, 15132, Note_on_c, 9, 63, 70
5, 15136, Note_on_c, 9, 35, 45
5, 15176, Note_on_c, 9, 35, 0
5, 15324, Note_on_c, 9, 51, 61
5, 15328, Note_on_c, 9, 35, 62
5, 15508, Note_on_c, 9, 51, 0
5, 15572, Note_on_c, 9, 63, 0
5, 15628, Note_on_c, 9, 35, 0
5, 15708, Note_on_c, 9, 64, 24
5, 15708, Note_on_c, 9, 51, 30
5, 15772, Note_on_c, 9, 64, 0
5, 15780, Note_on_c, 9, 51, 0
5, 15900, Note_on_c, 9, 64, 60
5, 15904, Note_on_c, 9, 51, 57
5, 15908, Note_on_c, 9, 35, 47
5, 15940, Note_on_c, 9, 35, 0
5, 15996, Note_on_c, 9, 51, 0
5, 16092, Note_on_c, 9, 35, 54
5, 16224, Note_on_c, 9, 64, 0
5, 16284, Note_on_c, 9, 51, 42
5, 16316, Note_on_c, 9, 51, 0
5, 16476, Note_on_c, 9, 51, 27
5, 16512, Note_on_c, 9, 35, 0
5, 16552, Note_on_c, 9, 51, 0
5, 16668, Note_on_c, 9, 63, 79
5, 16672, Note_on_c, 9, 51, 55
5, 16676, Note_on_c, 9, 35, 51
5, 16700, Note_on_c, 9, 35, 0
5, 16740, Note_on_c, 9, 76, 25
5, 16748, Note_on_c, 9, 51, 0
5, 16780, Note_on_c, 9, 76, 0
5, 16804, Note_on_c, 9, 76, 26
5, 16860, Note_on_c, 9, 51, 71
5, 16860, Note_on_c, 9, 35, 48
5, 16868, Note_on_c, 9, 76, 0
5, 16896, Note_on_c, 9, 76, 60
5, 16924, Note_on_c, 9, 76, 0
5, 17028, Note_on_c, 9, 51, 0
5, 17088, Note_on_c, 9, 76, 53
5, 17120, Note_on_c, 9, 76, 0
5, 17148, Note_on_c, 9, 63, 0
5, 17244, Note_on_c, 9, 35, 0
5, 17256, Note_on_c, 9, 76, 40
5, 17280, Note_on_c, 9, 76, 0
5, 17436, Note_on_c, 9, 64, 68
5, 17444, Note_on_c, 9, 35, 39
5, 17444, Note_on_c, 9, 51, 46
5, 17476, Note_on_c, 9, 51, 0
5, 17480, Note_on_c, 9, 35, 0
5, 17628, Note_on_c, 9, 35, 60
5, 17628, Note_on_c, 9, 51, 46
5, 17716, Note_on_c, 9, 51, 0
5, 17756, Note_on_c, 9, 64, 0
5, 17820, Note_on_c, 9, 51, 40
5, 17888, Note_on_c, 9, 51, 0
5, 18088, Note_on_c, 9, 35, 0
5, 18204, Note_on_c, 9, 63, 73
5, 18208, Note_on_c, 9, 51, 38
5, 18212, Note_on_c, 9, 35, 52
5, 18260, Note_on_c, 9, 35, 0
5, 18280, Note_on_c, 9, 51, 0
5, 18396, Note_on_c, 9, 35, 58
5, 18396, Note_on_c, 9, 51, 28
5, 18524, Note_on_c, 9, 51, 0
5, 18588, Note_on_c, 9, 51, 50
5, 18608, Note_on_c, 9, 63, 0
5, 18668, Note_on_c, 9, 51, 0
5, 18780, Note_on_c, 9, 64, 31
5, 18804, Note_on_c, 9, 64, 0
5, 18960, Note_on_c, 9, 35, 0
5, 18972, Note_on_c, 9, 64, 64
5, 18976, Note_on_c, 9, 51, 46
5, 18980, Note_on_c, 9, 35, 60
5, 19044, Note_on_c, 9, 51, 0
5, 19052, Note_on_c, 9, 35, 0
5, 19164, Note_on_c, 9, 35, 45
5, 19164, Note_on_c, 9, 51, 37
5, 19284, Note_on_c, 9, 51, 0
5, 19288, Note_on_c, 9, 64, 0
5, 19356, Note_on_c, 9, 53, 60
5, 19436, Note_on_c, 9, 53, 0
5, 19548, Note_on_c, 9, 63, 28
5, 19584, Note_on_c, 9, 35, 0
5, 19612, Note_on_c, 9, 63, 0
5, 19740, Note_on_c, 9, 63, 80
5, 19744, Note_on_c, 9, 53, 63
5, 19748, Note_on_c, 9, 35, 38
5, 19796, Note_on_c, 9, 35, 0
5, 19828, Note_on_c, 9, 53, 0
5, 19932, Note_on_c, 9, 35, 50
5, 19932, Note_on_c, 9, 51, 39
5, 20112, Note_on_c, 9, 51, 0
5, 20148, Note_on_c, 9, 63, 0
5, 20316, Note_on_c, 9, 64, 20
5, 20368, Note_on_c, 9, 35, 0
5, 20372, Note_on_c, 9, 64, 0
5, 20508, Note_on_c, 9, 64, 63
5, 20512, Note_on_c, 9, 51, 38
5, 20516, Note_on_c, 9, 35, 44
5, 20544, Note_on_c, 9, 51, 0
5, 20576, Note_on_c, 9, 35, 0
5, 20700, Note_on_c, 9, 51, 30
5, 20700, Note_on_c, 9, 35, 46
5, 20844, Note_on_c, 9, 64, 0
5, 20880, Note_on_c, 9, 51, 0
5, 20892, Note_on_c, 9, 35, 68
5, 20924, Note_on_c, 9, 35, 0
5, 20992, Note_on_c, 9, 35, 0
5, 21276, Note_on_c, 9, 63, 69
5, 21280, Note_on_c, 9, 51, 42
5, 21284, Note_on_c, 9, 35, 49
5, 21316, Note_on_c, 9, 35, 0
5, 21320, Note_on_c, 9, 51, 0
5, 21468, Note_on_c, 9, 51, 39
5, 21468, Note_on_c, 9, 35, 63
5, 21556, Note_on_c, 9, 51, 0
5, 21696, Note_on_c, 9, 35, 0
5, 21772, Note_on_c, 9, 63, 0
5, 22044, Note_on_c, 9, 64, 68
5, 22048, Note_on_c, 9, 51, 45
5, 22052, Note_on_c, 9, 35, 44
5, 22064, Note_on_c, 9, 35, 0
5, 22068, Note_on_c, 9, 51, 0
5, 22236, Note_on_c, 9, 51, 53
5, 22236, Note_on_c, 9, 35, 60
5, 22312, Note_on_c, 9, 51, 0
5, 22444, Note_on_c, 9, 64, 0
5, 22496, Note_on_c, 9, 35, 0
5, 22812, Note_on_c, 9, 63, 80
5, 22816, Note_on_c, 9, 35, 24
5, 22848, Note_on_c, 9, 35, 0
5, 23004, Note_on_c, 9, 51, 55
5, 23004, Note_on_c, 9, 35, 65
5, 23092, Note_on_c, 9, 51, 0
5, 23292, Note_on_c, 9, 63, 0
5, 23412, Note_on_c, 9, 35, 0
5, 23580, Note_on_c, 9, 64, 62
5, 23584, Note_on_c, 9, 35, 41
5, 23636, Note_on_c, 9, 35, 0
5, 23772, Note_on_c, 9, 35, 62
5, 23772, Note_on_c, 9, 51, 64
5, 23900, Note_on_c, 9, 51, 0
5, 23980, Note_on_c, 9, 64, 0
5, 24000, Note_on_c, 9, 35, 0
5, 24156, Note_on_c, 9, 63, 46
5, 24156, Note_on_c, 9, 51, 32
5, 24160, Note_on_c, 9, 51, 0
5, 24224, Note_on_c, 9, 63, 0
5, 24348, Note_on_c, 9, 63, 71
5, 24352, Note_on_c, 9, 51, 64
5, 24356, Note_on_c, 9, 35, 45
5, 24392, Note_on_c, 9, 35, 0
5, 24432, Note_on_c, 9, 51, 0
5, 24540, Note_on_c, 9, 35, 55
5, 24736, Note_on_c, 9, 35, 0
5, 24764, Note_on_c, 9, 63, 0
5, 24924, Note_on_c, 9, 64, 44
5, 24960, Note_on_c, 9, 64, 0
5, 25116, Note_on_c, 9, 64, 66
5, 25120, Note_on_c, 9, 51, 62
5, 25124, Note_on_c, 9, 35, 34
5, 25180, Note_on_c, 9, 35, 0
5, 25232, Note_on_c, 9, 51, 0
5, 25308, Note_on_c, 9, 35, 55
5, 25488, Note_on_c, 9, 64, 0
5, 25532, Note_on_c, 9, 35, 0
5, 25692, Note_on_c, 9, 51, 44
5, 25692, Note_on_c, 9, 63, 40
5, 25768, Note_on_c, 9, 63, 0
5, 25792, Note_on_c, 9, 51, 0
5, 25884, Note_on_c, 9, 63, 62
5, 25888, Note_on_c, 9, 51, 48
5, 25892, Note_on_c, 9, 35, 45
5, 25952, Note_on_c, 9, 35, 0
5, 25952, Note_on_c, 9, 51, 0
5, 26076, Note_on_c, 9, 35, 49
5, 26076, Note_on_c, 9, 51, 48
5, 26152, Note_on_c, 9, 51, 0
5, 26192, Note_on_c, 9, 63, 0
5, 26368, Note_on_c, 9, 35, 0
5, 26460, Note_on_c, 9, 64, 49
5, 26500, Note_on_c, 9, 64, 0
5, 26652, Note_on_c, 9, 64, 68
5, 26656, Note_on_c, 9, 51, 68
5, 26660, Note_on_c, 9, 35, 38
5, 26720, Note_on_c, 9, 35, 0
5, 26772, Note_on_c, 9, 51, 0
5, 26776, Note_on_c, 9, 64, 0
5, 26844, Note_on_c, 9, 35, 64
5, 27036, Note_on_c, 9, 51, 45
5, 27052, Note_on_c, 9, 51, 0
5, 27104, Note_on_c, 9, 35, 0
5, 27228, Note_on_c, 9, 63, 46
5, 27228, Note_on_c, 9, 51, 71
5, 27276, Note_on_c, 9, 63, 0
5, 27396, Note_on_c, 9, 51, 0
5, 27420, Note_on_c, 9, 63, 58
5, 27424, Note_on_c, 9, 35, 40
5, 27476, Note_on_c, 9, 35, 0
5, 27476, Note_on_c, 9, 63, 0
5, 27612, Note_on_c, 9, 35, 62
5, 27800, Note_on_c, 9, 51, 67
5, 27888, Note_on_c, 9, 35, 0
5, 27900, Note_on_c, 9, 51, 0
5, 27996, Note_on_c, 9, 64, 36
5, 28032, Note_on_c, 9, 64, 0
5, 28188, Note_on_c, 9, 64, 68
5, 28192, Note_on_c, 9, 51, 34
5, 28196, Note_on_c, 9, 35, 46
5, 28232, Note_on_c, 9, 51, 0
5, 28244, Note_on_c, 9, 35, 0
5, 28284, Note_on_c, 9, 76, 28
5, 28312, Note_on_c, 9, 76, 0
5, 28348, Note_on_c, 9, 76, 22
5, 28380, Note_on_c, 9, 35, 54
5, 28380, Note_on_c, 9, 51, 65
5, 28404, Note_on_c, 9, 76, 0
5, 28560, Note_on_c, 9, 76, 50
5, 28572, Note_on_c, 9, 64, 0
5, 28596, Note_on_c, 9, 76, 0
5, 28608, Note_on_c, 9, 35, 0
5, 28628, Note_on_c, 9, 51, 0
5, 28756, Note_on_c, 9, 76, 47
5, 28764, Note_on_c, 9, 51, 28
5, 28764, Note_on_c, 9, 63, 55
5, 28788, Note_on_c, 9, 76, 0
5, 28816, Note_on_c, 9, 51, 0
5, 28840, Note_on_c, 9, 63, 0
5, 28956, Note_on_c, 9, 63, 64
5, 28964, Note_on_c, 9, 51, 26
5, 28964, Note_on_c, 9, 35, 41
5, 28964, Note_on_c, 9, 76, 45
5, 28976, Note_on_c, 9, 76, 0
5, 29012, Note_on_c, 9, 35, 0
5, 29024, Note_on_c, 9, 51, 0
5, 29024, Note_on_c, 9, 63, 0
5, 29148, Note_on_c, 9, 51, 74
5, 29156, Note_on_c, 9, 35, 59
5, 29172, Note_on_c, 9, 76, 26
5, 29196, Note_on_c, 9, 76, 0
5, 29292, Note_on_c, 9, 51, 0
5, 29364, Note_on_c, 9, 35, 0
5, 29532, Note_on_c, 9, 37, 31
5, 29568, Note_on_c, 9, 37, 0
5, 29724, Note_on_c, 9, 37, 42
5, 29728, Note_on_c, 9, 51, 34
5, 29732, Note_on_c, 9, 35, 39
5, 29748, Note_on_c, 9, 35, 0
5, 29780, Note_on_c, 9, 51, 0
5, 29780, Note_on_c, 9, 37, 0
5, 29916, Note_on_c, 9, 51, 64
5, 29916, Note_on_c, 9, 35, 46
5, 30108, Note_on_c, 9, 35, 0
5, 30116, Note_on_c, 9, 51, 0
5, 30300, Note_on_c, 9, 37, 37
5, 30388, Note_on_c, 9, 37, 0
5, 30492, Note_on_c, 9, 37, 37
5, 30496, Note_on_c, 9, 51, 40
5, 30500, Note_on_c, 9, 35, 29
5, 30548, Note_on_c, 9, 35, 0
5, 30560, Note_on_c, 9, 51, 0
5, 30580, Note_on_c, 9, 37, 0
5, 30684, Note_on_c, 9, 51, 53
5, 30692, Note_on_c, 9, 35, 41
5, 30820, Note_on_c, 9, 51, 0
5, 30876, Note_on_c, 9, 53, 54
5, 30916, Note_on_c, 9, 35, 0
5, 30960, Note_on_c, 9, 53, 0
5, 31068, Note_on_c, 9, 51, 29
5, 31068, Note_on_c, 9, 37, 37
5, 31120, Note_on_c, 9, 51, 0
5, 31132, Note_on_c, 9, 37, 0
5, 31260, Note_on_c, 9, 37, 46
5, 31264, Note_on_c, 9, 53, 61
5, 31268, Note_on_c, 9, 35, 40
5, 31316, Note_on_c, 9, 35, 0
5, 31344, Note_on_c, 9, 37, 0
5, 31356, Note_on_c, 9, 53, 0
5, 31452, Note_on_c, 9, 51, 46
5, 31452, Note_on_c, 9, 35, 60
5, 31600, Note_on_c, 9, 35, 0
5, 31660, Note_on_c, 9, 51, 0
5, 31836, Note_on_c, 9, 37, 35
5, 31904, Note_on_c, 9, 37, 0
5, 32028, Note_on_c, 9, 37, 49
5, 32032, Note_on_c, 9, 51, 36
5, 32036, Note_on_c, 9, 35, 42
5, 32084, Note_on_c, 9, 35, 0
5, 32084, Note_on_c, 9, 37, 0
5, 32092, Note_on_c, 9, 51, 0
5, 32212, Note_on_c, 9, 54, 33
5, 32220, Note_on_c, 9, 51, 56
5, 32220, Note_on_c, 9, 35, 55
5, 32260, Note_on_c, 9, 54, 0
5, 32400, Note_on_c, 9, 51, 0
5, 32484, Note_on_c, 9, 35, 0
5, 32604, Note_on_c, 9, 37, 42
5, 32672, Note_on_c, 9, 37, 0
5, 32796, Note_on_c, 9, 37, 53
5, 32804, Note_on_c, 9, 51, 36
5, 32804, Note_on_c, 9, 54, 60
5, 32804, Note_on_c, 9, 35, 51
5, 32820, Note_on_c, 9, 35, 0
5, 32868, Note_on_c, 9, 37, 0
5, 32876, Note_on_c, 9, 51, 0
5, 32880, Note_on_c, 9, 54, 0
5, 32956, Note_on_c, 9, 54, 43
5, 32988, Note_on_c, 9, 51, 60
5, 32988, Note_on_c, 9, 35, 58
5, 33012, Note_on_c, 9, 54, 0
5, 33124, Note_on_c, 9, 51, 0
5, 33128, Note_on_c, 9, 35, 0
5, 33180, Note_on_c, 9, 51, 53
5, 33260, Note_on_c, 9, 51, 0
5, 33372, Note_on_c, 9, 37, 42
5, 33436, Note_on_c, 9, 37, 0
5, 33564, Note_on_c, 9, 37, 51
5, 33568, Note_on_c, 9, 51, 33
5, 33572, Note_on_c, 9, 35, 51
5, 33608, Note_on_c, 9, 35, 0
5, 33632, Note_on_c, 9, 37, 0
5, 33644, Note_on_c, 9, 51, 0
5, 33756, Note_on_c, 9, 51, 53
5, 33756, Note_on_c, 9, 35, 55
5, 33924, Note_on_c, 9, 51, 0
5, 33940, Note_on_c, 9, 35, 0
5, 33948, Note_on_c, 9, 51, 56
5, 34020, Note_on_c, 9, 51, 0
5, 34140, Note_on_c, 9, 37, 16
5, 34176, Note_on_c, 9, 37, 0
5, 34332, Note_on_c, 9, 37, 50
5, 34336, Note_on_c, 9, 51, 60
5, 34340, Note_on_c, 9, 35, 47
5, 34364, Note_on_c, 9, 35, 0
5, 34412, Note_on_c, 9, 37, 0
5, 34428, Note_on_c, 9, 51, 0
5, 34524, Note_on_c, 9, 35, 47
5, 34716, Note_on_c, 9, 51, 45
5, 34720, Note_on_c, 9, 35, 0
5, 34784, Note_on_c, 9, 51, 0
5, 34908, Note_on_c, 9, 51, 55
5, 34908, Note_on_c, 9, 37, 20
5, 34920, Note_on_c, 9, 37, 0
5, 35040, Note_on_c, 9, 51, 0
5, 35100, Note_on_c, 9, 37, 58
5, 35104, Note_on_c, 9, 53, 82
5, 35108, Note_on_c, 9, 35, 43
5, 35144, Note_on_c, 9, 35, 0
5, 35168, Note_on_c, 9, 37, 0
5, 35188, Note_on_c, 9, 53, 0
5, 35292, Note_on_c, 9, 51, 46
5, 35296, Note_on_c, 9, 35, 55
5, 35484, Note_on_c, 9, 35, 0
5, 35492, Note_on_c, 9, 51, 0
5, 35660, Note_on_c, 9, 54, 29
5, 35676, Note_on_c, 9, 37, 29
5, 35740, Note_on_c, 9, 37, 0
5, 35748, Note_on_c, 9, 54, 0
5, 35868, Note_on_c, 9, 37, 42
5, 35872, Note_on_c, 9, 51, 51
5, 35876, Note_on_c, 9, 35, 38
5, 35924, Note_on_c, 9, 51, 0
5, 35936, Note_on_c, 9, 35, 0
5, 35956, Note_on_c, 9, 37, 0
5, 36060, Note_on_c, 9, 35, 65
5, 36060, Note_on_c, 9, 51, 58
5, 36176, Note_on_c, 9, 51, 0
5, 36216, Note_on_c, 9, 35, 0
5, 36444, Note_on_c, 9, 37, 26
5, 36496, Note_on_c, 9, 37, 0
5, 36636, Note_on_c, 9, 37, 39
5, 36640, Note_on_c, 9, 51, 48
5, 36644, Note_on_c, 9, 35, 35
5, 36692, Note_on_c, 9, 35, 0
5, 36704, Note_on_c, 9, 51, 0
5, 36724, Note_on_c, 9, 37, 0
5, 36828, Note_on_c, 9, 51, 56
5, 36828, Note_on_c, 9, 35, 60
5, 36980, Note_on_c, 9, 51, 0
5, 37064, Note_on_c, 9, 35, 0
5, 37212, Note_on_c, 9, 37, 32
5, 37264, Note_on_c, 9, 37, 0
5, 37404, Note_on_c, 9, 37, 44
5, 37408, Note_on_c, 9, 53, 57
5, 37412, Note_on_c, 9, 35, 48
5, 37444, Note_on_c, 9, 35, 0
5, 37448, Note_on_c, 9, 53, 0
5, 37504, Note_on_c, 9, 37, 0
5, 37596, Note_on_c, 9, 51, 45
5, 37596, Note_on_c, 9, 35, 60
5, 37700, Note_on_c, 9, 51, 0
5, 37788, Note_on_c, 9, 51, 51
5, 37808, Note_on_c, 9, 35, 0
5, 37868, Note_on_c, 9, 51, 0
5, 37980, Note_on_c, 9, 37, 44
5, 37980, Note_on_c, 9, 35, 50
5, 38048, Note_on_c, 9, 35, 0
5, 38068, Note_on_c, 9, 37, 0
5, 38172, Note_on_c, 9, 37, 44
5, 38176, Note_on_c, 9, 35, 65
5, 38252, Note_on_c, 9, 35, 0
5, 38268, Note_on_c, 9, 37, 0
5, 38364, Note_on_c, 9, 51, 69
5, 38556, Note_on_c, 9, 51, 0
5, 38748, Note_on_c, 9, 37, 53
5, 38824, Note_on_c, 9, 37, 0
5, 38940, Note_on_c, 9, 37, 42
5, 38944, Note_on_c, 9, 51, 32
5, 38948, Note_on_c, 9, 35, 32
5, 38976, Note_on_c, 9, 35, 0
5, 39008, Note_on_c, 9, 51, 0
5, 39028, Note_on_c, 9, 37, 0
5, 39132, Note_on_c, 9, 51, 57
5, 39132, Note_on_c, 9, 35, 52
5, 39312, Note_on_c, 9, 51, 0
5, 39324, Note_on_c, 9, 35, 0
5, 39516, Note_on_c, 9, 37, 45
5, 39584, Note_on_c, 9, 37, 0
5, 39708, Note_on_c, 9, 37, 46
5, 39712, Note_on_c, 9, 35, 40
5, 39764, Note_on_c, 9, 35, 0
5, 39804, Note_on_c, 9, 37, 0
5, 39900, Note_on_c, 9, 35, 58
5, 39900, Note_on_c, 9, 51, 60
5, 40048, Note_on_c, 9, 51, 0
5, 40116, Note_on_c, 9, 35, 0
5, 40284, Note_on_c, 9, 37, 43
5, 40360, Note_on_c, 9, 37, 0
5, 40476, Note_on_c, 9, 37, 42
5, 40480, Note_on_c, 9, 51, 43
5, 40484, Note_on_c, 9, 35, 40
5, 40516, Note_on_c, 9, 51, 0
5, 40520, Note_on_c, 9, 35, 0
5, 40564, Note_on_c, 9, 37, 0
5, 40668, Note_on_c, 9, 51, 57
5, 40668, Note_on_c, 9, 35, 58
5, 40784, Note_on_c, 9, 51, 0
5, 40876, Note_on_c, 9, 35, 0
5, 41052, Note_on_c, 9, 37, 53
5, 41152, Note_on_c, 9, 37, 0
5, 41244, Note_on_c, 9, 51, 30
5, 41248, Note_on_c, 9, 35, 49
5, 41288, Note_on_c, 9, 35, 0
5, 41324, Note_on_c, 9, 51, 0
5, 41436, Note_on_c, 9, 51, 62
5, 41436, Note_on_c, 9, 35, 55
5, 41584, Note_on_c, 9, 51, 0
5, 41644, Note_on_c, 9, 35, 0
5, 41820, Note_on_c, 9, 37, 41
5, 41884, Note_on_c, 9, 37, 0
5, 42012, Note_on_c, 9, 37, 35
5, 42016, Note_on_c, 9, 51, 29
5, 42020, Note_on_c, 9, 35, 46
5, 42068, Note_on_c, 9, 35, 0
5, 42068, Note_on_c, 9, 51, 0
5, 42100, Note_on_c, 9, 37, 0
5, 42204, Note_on_c, 9, 51, 64
5, 42204, Note_on_c, 9, 35, 51
5, 42324, Note_on_c, 9, 51, 0
5, 42412, Note_on_c, 9, 35, 0
5, 42588, Note_on_c, 9, 37, 46
5, 42652, Note_on_c, 9, 37, 0
5, 42780, Note_on_c, 9, 37, 40
5, 42784, Note_on_c, 9, 51, 33
5, 42788, Note_on_c, 9, 35, 43
5, 42836, Note_on_c, 9, 35, 0
5, 42836, Note_on_c, 9, 51, 0
5, 42860, Note_on_c, 9, 37, 0
5, 42972, Note_on_c, 9, 51, 60
5, 42972, Note_on_c, 9, 35, 58
5, 43100, Note_on_c, 9, 51, 0
5, 43164, Note_on_c, 9, 35, 0
5, 43356, Note_on_c, 9, 37, 38
5, 43432, Note_on_c, 9, 37, 0
5, 43548, Note_on_c, 9, 37, 37
5, 43552, Note_on_c, 9, 51, 37
5, 43556, Note_on_c, 9, 35, 49
5, 43592, Note_on_c, 9, 35, 0
5, 43628, Note_on_c, 9, 37, 0
5, 43636, Note_on_c, 9, 51, 0
5, 43740, Note_on_c, 9, 51, 53
5, 43740, Note_on_c, 9, 35, 54
5, 43884, Note_on_c, 9, 51, 0
5, 43908, Note_on_c, 9, 35, 0
5, 44124, Note_on_c, 9, 37, 41
5, 44212, Note_on_c, 9, 37, 0
5, 44316, Note_on_c, 9, 37, 42
5, 44324, Note_on_c, 9, 35, 52
5, 44324, Note_on_c, 9, 51, 32
5, 44348, Note_on_c, 9, 35, 0
5, 44412, Note_on_c, 9, 51, 0
5, 44484, Note_on_c, 9, 37, 0
5, 44508, Note_on_c, 9, 51, 56
5, 44516, Note_on_c, 9, 35, 51
5, 44560, Note_on_c, 9, 76, 25
5, 44676, Note_on_c, 9, 76, 0
5, 44704, Note_on_c, 9, 51, 0
5, 44720, Note_on_c, 9, 35, 0
5, 44892, Note_on_c, 9, 37, 30
5, 44968, Note_on_c, 9, 37, 0
5, 45084, Note_on_c, 9, 37, 35
5, 45088, Note_on_c, 9, 51, 23
5, 45092, Note_on_c, 9, 35, 45
5, 45116, Note_on_c, 9, 35, 0
5, 45140, Note_on_c, 9, 51, 0
5, 45152, Note_on_c, 9, 76, 50
5, 45172, Note_on_c, 9, 76, 0
5, 45176, Note_on_c, 9, 37, 0
5, 45220, Note_on_c, 9, 76, 36
5, 45264, Note_on_c, 9, 76, 0
5, 45276, Note_on_c, 9, 51, 64
5, 45276, Note_on_c, 9, 35, 55
5, 45512, Note_on_c, 9, 35, 0
5, 45584, Note_on_c, 9, 51, 0
5, 45660, Note_on_c, 9, 37, 33
5, 45760, Note_on_c, 9, 37, 0
5, 45852, Note_on_c, 9, 37, 39
5, 45856, Note_on_c, 9, 35, 34
5, 45896, Note_on_c, 9, 35, 0
5, 45948, Note_on_c, 9, 37, 0
5, 46044, Note_on_c, 9, 51, 59
5, 46044, Note_on_c, 9, 35, 61
5, 46236, Note_on_c, 9, 35, 0
5, 46384, Note_on_c, 9, 51, 0
5, 46428, Note_on_c, 9, 37, 42
5, 46504, Note_on_c, 9, 37, 0
5, 46620, Note_on_c, 9, 37, 37
5, 46624, Note_on_c, 9, 35, 36
5, 46656, Note_on_c, 9, 35, 0
5, 46700, Note_on_c, 9, 76, 20
5, 46716, Note_on_c, 9, 37, 0
5, 46736, Note_on_c, 9, 76, 0
5, 46780, Note_on_c, 9, 76, 30
5, 46812, Note_on_c, 9, 51, 48
5, 46812, Note_on_c, 9, 35, 55
5, 46820, Note_on_c, 9, 76, 0
5, 46968, Note_on_c, 9, 51, 0
5, 46980, Note_on_c, 9, 76, 47
5, 47004, Note_on_c, 9, 53, 71
5, 47008, Note_on_c, 9, 35, 0
5, 47012, Note_on_c, 9, 76, 0
5, 47076, Note_on_c, 9, 53, 0
5, 47196, Note_on_c, 9, 51, 35
5, 47196, Note_on_c, 9, 37, 32
5, 47200, Note_on_c, 9, 76, 29
5, 47232, Note_on_c, 9, 76, 0
5, 47260, Note_on_c, 9, 37, 0
5, 47268, Note_on_c, 9, 51, 0
5, 47380, Note_on_c, 9, 76, 37
5, 47388, Note_on_c, 9, 37, 42
5, 47392, Note_on_c, 9, 53, 71
5, 47392, Note_on_c, 9, 35, 38
5, 47408, Note_on_c, 9, 76, 0
5, 47424, Note_on_c, 9, 35, 0
5, 47500, Note_on_c, 9, 53, 0
5, 47552, Note_on_c, 9, 37, 0
5, 47580, Note_on_c, 9, 35, 53
5, 47580, Note_on_c, 9, 51, 38
5, 47604, Note_on_c, 9, 76, 48
5, 47644, Note_on_c, 9, 76, 0
5, 47772, Note_on_c, 9, 35, 0
5, 47840, Note_on_c, 9, 51, 0
5, 47964, Note_on_c, 9, 37, 39
5, 48040, Note_on_c, 9, 37, 0
5, 48156, Note_on_c, 9, 37, 44
5, 48160, Note_on_c, 9, 35, 53
5, 48188, Note_on_c, 9, 76, 27
5, 48224, Note_on_c, 9, 35, 0
5, 48228, Note_on_c, 9, 76, 0
5, 48260, Note_on_c, 9, 76, 46
5, 48304, Note_on_c, 9, 76, 0
5, 48336, Note_on_c, 9, 37, 0
5, 48348, Note_on_c, 9, 35, 57
5, 48348, Note_on_c, 9, 51, 40
5, 48360, Note_on_c, 9, 76, 40
5, 48384, Note_on_c, 9, 76, 0
5, 48504, Note_on_c, 9, 51, 0
5, 48528, Note_on_c, 9, 35, 0
5, 48564, Note_on_c, 9, 76, 54
5, 48584, Note_on_c, 9, 76, 0
5, 48732, Note_on_c, 9, 37, 37
5, 48732, Note_on_c, 9, 51, 42
5, 48768, Note_on_c, 9, 76, 49
5, 48784, Note_on_c, 9, 76, 0
5, 48800, Note_on_c, 9, 51, 0
5, 48808, Note_on_c, 9, 37, 0
5, 48924, Note_on_c, 9, 37, 46
5, 48928, Note_on_c, 9, 53, 72
5, 48932, Note_on_c, 9, 35, 40
5, 48940, Note_on_c, 9, 76, 34
5, 48956, Note_on_c, 9, 76, 0
5, 48964, Note_on_c, 9, 35, 0
5, 49004, Note_on_c, 9, 37, 0
5, 49028, Note_on_c, 9, 53, 0
5, 49116, Note_on_c, 9, 51, 46
5, 49116, Note_on_c, 9, 35, 61
5, 49124, Note_on_c, 9, 76, 72
5, 49180, Note_on_c, 9, 76, 0
5, 49296, Note_on_c, 9, 35, 0
5, 49328, Note_on_c, 9, 51, 0
5, 49500, Note_on_c, 9, 64, 40
5, 49564, Note_on_c, 9, 64, 0
5, 49692, Note_on_c, 9, 64, 53
5, 49696, Note_on_c, 9, 51, 47
5, 49700, Note_on_c, 9, 35, 37
5, 49724, Note_on_c, 9, 35, 0
5, 49764, Note_on_c, 9, 51, 0
5, 49780, Note_on_c, 9, 64, 0
5, 49884, Note_on_c, 9, 51, 53
5, 49884, Note_on_c, 9, 35, 60
5, 50028, Note_on_c, 9, 35, 0
5, 50120, Note_on_c, 9, 51, 0
5, 50268, Note_on_c, 9, 63, 44
5, 50316, Note_on_c, 9, 63, 0
5, 50460, Note_on_c, 9, 63, 59
5, 50464, Note_on_c, 9, 35, 51
5, 50492, Note_on_c, 9, 35, 0
5, 50528, Note_on_c, 9, 63, 0
5, 50652, Note_on_c, 9, 35, 56
5, 50652, Note_on_c, 9, 51, 50
5, 50780, Note_on_c, 9, 35, 0
5, 50868, Note_on_c, 9, 51, 0
5, 51036, Note_on_c, 9, 64, 42
5, 51060, Note_on_c, 9, 64, 0
5, 51228, Note_on_c, 9, 64, 56
5, 51232, Note_on_c, 9, 51, 38
5, 51236, Note_on_c, 9, 35, 41
5, 51260, Note_on_c, 9, 35, 0
5, 51268, Note_on_c, 9, 64, 0
5, 51272, Note_on_c, 9, 51, 0
5, 51420, Note_on_c, 9, 51, 48
5, 51420, Note_on_c, 9, 35, 57
5, 51564, Note_on_c, 9, 35, 0
5, 51616, Note_on_c, 9, 51, 0
5, 51804, Note_on_c, 9, 63, 46
5, 51856, Note_on_c, 9, 63, 0
5, 51996, Note_on_c, 9, 63, 60
5, 52000, Note_on_c, 9, 51, 29
5, 52004, Note_on_c, 9, 35, 37
5, 52012, Note_on_c, 9, 76, 17
5, 52036, Note_on_c, 9, 76, 0
5, 52036, Note_on_c, 9, 35, 0
5, 52040, Note_on_c, 9, 51, 0
5, 52044, Note_on_c, 9, 63, 0
5, 52084, Note_on_c, 9, 76, 28
5, 52112, Note_on_c, 9, 76, 0
5, 52144, Note_on_c, 9, 76, 33
5, 52176, Note_on_c, 9, 76, 0
5, 52188, Note_on_c, 9, 35, 53
5, 52188, Note_on_c, 9, 51, 46
5, 52224, Note_on_c, 9, 76, 41
5, 52244, Note_on_c, 9, 76, 0
5, 52368, Note_on_c, 9, 35, 0
5, 52404, Note_on_c, 9, 51, 0
5, 52572, Note_on_c, 9, 64, 46
5, 52608, Note_on_c, 9, 64, 0
5, 52764, Note_on_c, 9, 64, 51
5, 52768, Note_on_c, 9, 51, 61
5, 52772, Note_on_c, 9, 35, 40
5, 52780, Note_on_c, 9, 76, 53
5, 52808, Note_on_c, 9, 76, 0
5, 52816, Note_on_c, 9, 64, 0
5, 52828, Note_on_c, 9, 35, 0
5, 52924, Note_on_c, 9, 51, 0
5, 52956, Note_on_c, 9, 35, 53
5, 53104, Note_on_c, 9, 35, 0
5, 53148, Note_on_c, 9, 76, 16
5, 53168, Note_on_c, 9, 76, 0
5, 53328, Note_on_c, 9, 76, 41
5, 53340, Note_on_c, 9, 51, 36
5, 53340, Note_on_c, 9, 63, 53
5, 53348, Note_on_c, 9, 51, 0
5, 53376, Note_on_c, 9, 63, 0
5, 53376, Note_on_c, 9, 76, 0
5, 53532, Note_on_c, 9, 63, 57
5, 53536, Note_on_c, 9, 51, 48
5, 53540, Note_on_c, 9, 35, 43
5, 53564, Note_on_c, 9, 63, 0
5, 53600, Note_on_c, 9, 51, 0
5, 53612, Note_on_c, 9, 35, 0
5, 53724, Note_on_c, 9, 35, 57
5, 53856, Note_on_c, 9, 35, 0
5, 53916, Note_on_c, 9, 51, 55
5, 53988, Note_on_c, 9, 51, 0
5, 54108, Note_on_c, 9, 64, 53
5, 54108, Note_on_c, 9, 51, 23
5, 54144, Note_on_c, 9, 64, 0
5, 54172, Note_on_c, 9, 51, 0
5, 54296, Note_on_c, 9, 64, 55
5, 54304, Note_on_c, 9, 51, 35
5, 54304, Note_on_c, 9, 35, 43
5, 54336, Note_on_c, 9, 64, 0
5, 54344, Note_on_c, 9, 35, 0
5, 54368, Note_on_c, 9, 51, 0
5, 54492, Note_on_c, 9, 35, 46
5, 54492, Note_on_c, 9, 51, 73
5, 54596, Note_on_c, 9, 35, 0
5, 54740, Note_on_c, 9, 51, 0
5, 54848, Note_on_c, 9, 76, 18
5, 54876, Note_on_c, 9, 63, 54
5, 54876, Note_on_c, 9, 51, 39
5, 54884, Note_on_c, 9, 76, 0
5, 54932, Note_on_c, 9, 51, 0
5, 54936, Note_on_c, 9, 63, 0
5, 55056, Note_on_c, 9, 76, 31
5, 55068, Note_on_c, 9, 63, 56
5, 55072, Note_on_c, 9, 35, 44
5, 55072, Note_on_c, 9, 51, 71
5, 55084, Note_on_c, 9, 35, 0
5, 55088, Note_on_c, 9, 76, 0
5, 55124, Note_on_c, 9, 63, 0
5, 55224, Note_on_c, 9, 51, 0
5, 55260, Note_on_c, 9, 35, 47
5, 55376, Note_on_c, 9, 35, 0
5, 55452, Note_on_c, 9, 51, 38
5, 55456, Note_on_c, 9, 76, 19
5, 55480, Note_on_c, 9, 76, 0
5, 55492, Note_on_c, 9, 51, 0
5, 55644, Note_on_c, 9, 64, 53
5, 55644, Note_on_c, 9, 51, 57
5, 55656, Note_on_c, 9, 76, 25
5, 55680, Note_on_c, 9, 64, 0
5, 55684, Note_on_c, 9, 76, 0
5, 55824, Note_on_c, 9, 51, 0
5, 55836, Note_on_c, 9, 64, 57
5, 55840, Note_on_c, 9, 35, 44
5, 55868, Note_on_c, 9, 35, 0
5, 55904, Note_on_c, 9, 64, 0
5, 56028, Note_on_c, 9, 35, 44
5, 56028, Note_on_c, 9, 51, 67
5, 56116, Note_on_c, 9, 35, 0
5, 56156, Note_on_c, 9, 51, 0
5, 56412, Note_on_c, 9, 63, 56
5, 56468, Note_on_c, 9, 63, 0
5, 56604, Note_on_c, 9, 63, 60
5, 56608, Note_on_c, 9, 51, 36
5, 56612, Note_on_c, 9, 35, 47
5, 56644, Note_on_c, 9, 35, 0
5, 56644, Note_on_c, 9, 51, 0
5, 56676, Note_on_c, 9, 63, 0
5, 56796, Note_on_c, 9, 35, 59
5, 56796, Note_on_c, 9, 51, 62
5, 56928, Note_on_c, 9, 35, 0
5, 57024, Note_on_c, 9, 51, 0
5, 57180, Note_on_c, 9, 64, 61
5, 57216, Note_on_c, 9, 64, 0
5, 57372, Note_on_c, 9, 64, 52
5, 57376, Note_on_c, 9, 51, 42
5, 57380, Note_on_c, 9, 35, 56
5, 57416, Note_on_c, 9, 51, 0
5, 57420, Note_on_c, 9, 64, 0
5, 57444, Note_on_c, 9, 35, 0
5, 57564, Note_on_c, 9, 51, 61
5, 57564, Note_on_c, 9, 35, 51
5, 57696, Note_on_c, 9, 51, 0
5, 57744, Note_on_c, 9, 35, 0
5, 57948, Note_on_c, 9, 63, 49
5, 57996, Note_on_c, 9, 63, 0
5, 58140, Note_on_c, 9, 63, 47
5, 58144, Note_on_c, 9, 51, 33
5, 58148, Note_on_c, 9, 35, 32
5, 58196, Note_on_c, 9, 63, 0
5, 58208, Note_on_c, 9, 51, 0
5, 58228, Note_on_c, 9, 35, 0
5, 58320, Note_on_c, 9, 76, 20
5, 58332, Note_on_c, 9, 51, 88
5, 58332, Note_on_c, 9, 35, 58
5, 58356, Note_on_c, 9, 76, 0
5, 58476, Note_on_c, 9, 35, 0
5, 58548, Note_on_c, 9, 76, 17
5, 58568, Note_on_c, 9, 51, 0
5, 58572, Note_on_c, 9, 76, 0
5, 58908, Note_on_c, 9, 64, 53
5, 58912, Note_on_c, 9, 51, 39
5, 58916, Note_on_c, 9, 35, 50
5, 58980, Note_on_c, 9, 35, 0
5, 58984, Note_on_c, 9, 51, 0
5, 59024, Note_on_c, 9, 64, 0
5, 59100, Note_on_c, 9, 35, 59
5, 59100, Note_on_c, 9, 51, 72
5, 59292, Note_on_c, 9, 35, 0
5, 59296, Note_on_c, 9, 51, 0
5, 59484, Note_on_c, 9, 63, 58
5, 59544, Note_on_c, 9, 63, 0
5, 59676, Note_on_c, 9, 63, 65
5, 59680, Note_on_c, 9, 51, 31
5, 59684, Note_on_c, 9, 35, 49
5, 59732, Note_on_c, 9, 35, 0
5, 59748, Note_on_c, 9, 51, 0
5, 59764, Note_on_c, 9, 63, 0
5, 59868, Note_on_c, 9, 35, 63
5, 59868, Note_on_c, 9, 51, 74
5, 60012, Note_on_c, 9, 35, 0
5, 60048, Note_on_c, 9, 51, 0
5, 60252, Note_on_c, 9, 64, 51
5, 60292, Note_on_c, 9, 64, 0
5, 60448, Note_on_c, 9, 35, 49
5, 60448, Note_on_c, 9, 64, 58
5, 60448, Note_on_c, 9, 51, 44
5, 60476, Note_on_c, 9, 64, 0
5, 60488, Note_on_c, 9, 35, 0
5, 60512, Note_on_c, 9, 51, 0
5, 60636, Note_on_c, 9, 51, 64
5, 60636, Note_on_c, 9, 35, 58
5, 60768, Note_on_c, 9, 35, 0
5, 60820, Note_on_c, 9, 51, 0
5, 61020, Note_on_c, 9, 51, 59
5, 61020, Note_on_c, 9, 63, 66
5, 61120, Note_on_c, 9, 63, 0
5, 61176, Note_on_c, 9, 51, 0
5, 61212, Note_on_c, 9, 63, 52
5, 61216, Note_on_c, 9, 53, 75
5, 61220, Note_on_c, 9, 35, 52
5, 61280, Note_on_c, 9, 35, 0
5, 61308, Note_on_c, 9, 63, 0
5, 61312, Note_on_c, 9, 76, 24
5, 61328, Note_on_c, 9, 53, 0
5, 61360, Note_on_c, 9, 76, 0
5, 61376, Note_on_c, 9, 76, 29
5, 61404, Note_on_c, 9, 35, 54
5, 61404, Note_on_c, 9, 51, 44
5, 61428, Note_on_c, 9, 76, 0
5, 61548, Note_on_c, 9, 35, 0
5, 61596, Note_on_c, 9, 76, 37
5, 61620, Note_on_c, 9, 76, 0
5, 61640, Note_on_c, 9, 51, 0
5, 61788, Note_on_c, 9, 64, 57
5, 61792, Note_on_c, 9, 76, 40
5, 61828, Note_on_c, 9, 76, 0
5, 61856, Note_on_c, 9, 64, 0
5, 61980, Note_on_c, 9, 64, 50
5, 61984, Note_on_c, 9, 51, 47
5, 61988, Note_on_c, 9, 35, 56
5, 62024, Note_on_c, 9, 35, 0
5, 62032, Note_on_c, 9, 64, 0
5, 62044, Note_on_c, 9, 51, 0
5, 62172, Note_on_c, 9, 51, 68
5, 62172, Note_on_c, 9, 35, 53
5, 62284, Note_on_c, 9, 35, 0
5, 62352, Note_on_c, 9, 51, 0
5, 62556, Note_on_c, 9, 63, 61
5, 62684, Note_on_c, 9, 63, 0
5, 62748, Note_on_c, 9, 63, 53
5, 62752, Note_on_c, 9, 51, 57
5, 62756, Note_on_c, 9, 35, 57
5, 62772, Note_on_c, 9, 35, 0
5, 62816, Note_on_c, 9, 51, 0
5, 62844, Note_on_c, 9, 63, 0
5, 62940, Note_on_c, 9, 51, 61
5, 62940, Note_on_c, 9, 35, 64
5, 63028, Note_on_c, 9, 51, 0
5, 63068, Note_on_c, 9, 35, 0
5, 63324, Note_on_c, 9, 64, 42
5, 63388, Note_on_c, 9, 64, 0
5, 63516, Note_on_c, 9, 64, 48
5, 63520, Note_on_c, 9, 51, 67
5, 63524, Note_on_c, 9, 35, 51
5, 63532, Note_on_c, 9, 35, 0
5, 63584, Note_on_c, 9, 51, 0
5, 63584, Note_on_c, 9, 64, 0
5, 63708, Note_on_c, 9, 35, 59
5, 63820, Note_on_c, 9, 35, 0
5, 63900, Note_on_c, 9, 51, 69
5, 63968, Note_on_c, 9, 51, 0
5, 64092, Note_on_c, 9, 63, 61
5, 64224, Note_on_c, 9, 63, 0
5, 64284, Note_on_c, 9, 63, 54
5, 64288, Note_on_c, 9, 51, 57
5, 64292, Note_on_c, 9, 35, 55
5, 64316, Note_on_c, 9, 35, 0
5, 64324, Note_on_c, 9, 51, 0
5, 64384, Note_on_c, 9, 63, 0
5, 64476, Note_on_c, 9, 51, 62
5, 64476, Note_on_c, 9, 35, 60
5, 64588, Note_on_c, 9, 35, 0
5, 64608, Note_on_c, 9, 51, 0
5, 64860, Note_on_c, 9, 64, 37
5, 64924, Note_on_c, 9, 64, 0
5, 65052, Note_on_c, 9, 64, 53
5, 65056, Note_on_c, 9, 51, 48
5, 65060, Note_on_c, 9, 35, 51
5, 65088, Note_on_c, 9, 35, 0
5, 65088, Note_on_c, 9, 51, 0
5, 65148, Note_on_c, 9, 64, 0
5, 65244, Note_on_c, 9, 35, 58
5, 65244, Note_on_c, 9, 51, 60
5, 65308, Note_on_c, 9, 51, 0
5, 65348, Note_on_c, 9, 35, 0
5, 65628, Note_on_c, 9, 63, 62
5, 65728, Note_on_c, 9, 63, 0
5, 65820, Note_on_c, 9, 63, 48
5, 65824, Note_on_c, 9, 51, 53
5, 65828, Note_on_c, 9, 35, 49
5, 65840, Note_on_c, 9, 35, 0
5, 65888, Note_on_c, 9, 51, 0
5, 65888, Note_on_c, 9, 63, 0
5, 66012, Note_on_c, 9, 51, 53
5, 66012, Note_on_c, 9, 35, 60
5, 66064, Note_on_c, 9, 51, 0
5, 66112, Note_on_c, 9, 35, 0
5, 66588, Note_on_c, 9, 64, 39
5, 66592, Note_on_c, 9, 51, 56
5, 66596, Note_on_c, 9, 35, 50
5, 66620, Note_on_c, 9, 35, 0
5, 66644, Note_on_c, 9, 51, 0
5, 66724, Note_on_c, 9, 64, 0
5, 66780, Note_on_c, 9, 35, 59
5, 66780, Note_on_c, 9, 51, 56
5, 66880, Note_on_c, 9, 51, 0
5, 66896, Note_on_c, 9, 35, 0
5, 66972, Note_on_c, 9, 34, 66
5, 67004, Note_on_c, 9, 77, 29
5, 67040, Note_on_c, 9, 77, 0
5, 67044, Note_on_c, 9, 34, 0
5, 67164, Note_on_c, 9, 51, 34
5, 67164, Note_on_c, 9, 63, 62
5, 67176, Note_on_c, 9, 77, 31
5, 67216, Note_on_c, 9, 77, 0
5, 67268, Note_on_c, 9, 63, 0
5, 67272, Note_on_c, 9, 51, 0
5, 67356, Note_on_c, 9, 63, 53
5, 67360, Note_on_c, 9, 53, 80
5, 67364, Note_on_c, 9, 35, 43
5, 67364, Note_on_c, 9, 77, 38
5, 67392, Note_on_c, 9, 77, 0
5, 67412, Note_on_c, 9, 35, 0
5, 67436, Note_on_c, 9, 63, 0
5, 67452, Note_on_c, 9, 53, 0
5, 67548, Note_on_c, 9, 35, 67
5, 67548, Note_on_c, 9, 51, 46
5, 67684, Note_on_c, 9, 35, 0
5, 67776, Note_on_c, 9, 51, 0
5, 67932, Note_on_c, 9, 51, 44
5, 67988, Note_on_c, 9, 51, 0
5, 68124, Note_on_c, 9, 64, 42
5, 68128, Note_on_c, 9, 51, 50
5, 68132, Note_on_c, 9, 35, 50
5, 68160, Note_on_c, 9, 35, 0
5, 68192, Note_on_c, 9, 51, 0
5, 68272, Note_on_c, 9, 64, 0
5, 68316, Note_on_c, 9, 35, 62
5, 68316, Note_on_c, 9, 51, 71
5, 68444, Note_on_c, 9, 35, 0
5, 68532, Note_on_c, 9, 51, 0
5, 68700, Note_on_c, 9, 51, 35
5, 68700, Note_on_c, 9, 63, 72
5, 68752, Note_on_c, 9, 51, 0
5, 68880, Note_on_c, 9, 63, 0
5, 68892, Note_on_c, 9, 51, 76
5, 68896, Note_on_c, 9, 35, 46
5, 68928, Note_on_c, 9, 35, 0
5, 69084, Note_on_c, 9, 35, 60
5, 69136, Note_on_c, 9, 51, 0
5, 69232, Note_on_c, 9, 35, 0
5, 69660, Note_on_c, 9, 64, 55
5, 69664, Note_on_c, 9, 51, 59
5, 69668, Note_on_c, 9, 35, 40
5, 69676, Note_on_c, 9, 35, 0
5, 69704, Note_on_c, 9, 51, 0
5, 69836, Note_on_c, 9, 64, 0
5, 69852, Note_on_c, 9, 51, 57
5, 69852, Note_on_c, 9, 35, 55
5, 69928, Note_on_c, 9, 51, 0
5, 69964, Note_on_c, 9, 35, 0
5, 70044, Note_on_c, 9, 53, 67
5, 70088, Note_on_c, 9, 53, 0
5, 70236, Note_on_c, 9, 51, 31
5, 70236, Note_on_c, 9, 63, 72
5, 70288, Note_on_c, 9, 51, 0
5, 70404, Note_on_c, 9, 63, 0
5, 70428, Note_on_c, 9, 63, 73
5, 70432, Note_on_c, 9, 51, 52
5, 70436, Note_on_c, 9, 35, 45
5, 70472, Note_on_c, 9, 35, 0
5, 70484, Note_on_c, 9, 51, 0
5, 70604, Note_on_c, 9, 63, 0
5, 70628, Note_on_c, 9, 35, 58
5, 70628, Note_on_c, 9, 51, 73
5, 70748, Note_on_c, 9, 51, 0
5, 70764, Note_on_c, 9, 35, 0
5, 71004, Note_on_c, 9, 51, 26
5, 71004, Note_on_c, 9, 64, 40
5, 71028, Note_on_c, 9, 51, 0
5, 71060, Note_on_c, 9, 64, 0
5, 71196, Note_on_c, 9, 64, 59
5, 71200, Note_on_c, 9, 51, 69
5, 71204, Note_on_c, 9, 35, 49
5, 71236, Note_on_c, 9, 35, 0
5, 71308, Note_on_c, 9, 51, 0
5, 71344, Note_on_c, 9, 64, 0
5, 71388, Note_on_c, 9, 35, 56
5, 71504, Note_on_c, 9, 35, 0
5, 71580, Note_on_c, 9, 51, 43
5, 71612, Note_on_c, 9, 51, 0
5, 71772, Note_on_c, 9, 51, 34
5, 71772, Note_on_c, 9, 63, 36
5, 71836, Note_on_c, 9, 51, 0
5, 71844, Note_on_c, 9, 63, 0
5, 71964, Note_on_c, 9, 63, 68
5, 71968, Note_on_c, 9, 51, 42
5, 71972, Note_on_c, 9, 35, 45
5, 72008, Note_on_c, 9, 35, 0
5, 72032, Note_on_c, 9, 51, 0
5, 72128, Note_on_c, 9, 63, 0
5, 72156, Note_on_c, 9, 35, 54
5, 72156, Note_on_c, 9, 51, 70
5, 72256, Note_on_c, 9, 35, 0
5, 72312, Note_on_c, 9, 51, 0
5, 72540, Note_on_c, 9, 64, 39
5, 72608, Note_on_c, 9, 64, 0
5, 72732, Note_on_c, 9, 64, 51
5, 72736, Note_on_c, 9, 51, 64
5, 72740, Note_on_c, 9, 35, 46
5, 72788, Note_on_c, 9, 35, 0
5, 72828, Note_on_c, 9, 51, 0
5, 72912, Note_on_c, 9, 64, 0
5, 72924, Note_on_c, 9, 51, 56
5, 72924, Note_on_c, 9, 35, 54
5, 73024, Note_on_c, 9, 35, 0
5, 73036, Note_on_c, 9, 51, 0
5, 73308, Note_on_c, 9, 51, 37
5, 73308, Note_on_c, 9, 63, 54
5, 73396, Note_on_c, 9, 63, 0
5, 73396, Note_on_c, 9, 51, 0
5, 73500, Note_on_c, 9, 63, 54
5, 73504, Note_on_c, 9, 51, 62
5, 73508, Note_on_c, 9, 35, 47
5, 73544, Note_on_c, 9, 35, 0
5, 73584, Note_on_c, 9, 51, 0
5, 73636, Note_on_c, 9, 63, 0
5, 73692, Note_on_c, 9, 35, 55
5, 73692, Note_on_c, 9, 51, 50
5, 73792, Note_on_c, 9, 51, 0
5, 73840, Note_on_c, 9, 35, 0
5, 74060, Note_on_c, 9, 76, 18
5, 74076, Note_on_c, 9, 51, 31
5, 74076, Note_on_c, 9, 64, 36
5, 74088, Note_on_c, 9, 76, 0
5, 74124, Note_on_c, 9, 51, 0
5, 74132, Note_on_c, 9, 64, 0
5, 74268, Note_on_c, 9, 64, 52
5, 74276, Note_on_c, 9, 35, 44
5, 74276, Note_on_c, 9, 51, 68
5, 74276, Note_on_c, 9, 76, 47
5, 74300, Note_on_c, 9, 76, 0
5, 74308, Note_on_c, 9, 35, 0
5, 74364, Note_on_c, 9, 51, 0
5, 74372, Note_on_c, 9, 64, 0
5, 74460, Note_on_c, 9, 51, 42
5, 74460, Note_on_c, 9, 35, 54
5, 74472, Note_on_c, 9, 76, 33
5, 74496, Note_on_c, 9, 76, 0
5, 74524, Note_on_c, 9, 51, 0
5, 74564, Note_on_c, 9, 35, 0
5, 74660, Note_on_c, 9, 76, 27
5, 74688, Note_on_c, 9, 76, 0
5, 74844, Note_on_c, 9, 63, 47
5, 74852, Note_on_c, 9, 51, 40
5, 74852, Note_on_c, 9, 76, 35
5, 74880, Note_on_c, 9, 76, 0
5, 74892, Note_on_c, 9, 63, 0
5, 74900, Note_on_c, 9, 51, 0
5, 75036, Note_on_c, 9, 63, 66
5, 75040, Note_on_c, 9, 51, 70
5, 75044, Note_on_c, 9, 35, 37
5, 75080, Note_on_c, 9, 35, 0
5, 75196, Note_on_c, 9, 51, 0
5, 75200, Note_on_c, 9, 63, 0
5, 75228, Note_on_c, 9, 35, 55
5, 75356, Note_on_c, 9, 35, 0
5, 75420, Note_on_c, 9, 51, 39
5, 75504, Note_on_c, 9, 51, 0
5, 75612, Note_on_c, 9, 64, 38
5, 75652, Note_on_c, 9, 64, 0
5, 75804, Note_on_c, 9, 64, 57
5, 75808, Note_on_c, 9, 51, 54
5, 75812, Note_on_c, 9, 35, 46
5, 75840, Note_on_c, 9, 35, 0
5, 75884, Note_on_c, 9, 64, 0
5, 75892, Note_on_c, 9, 51, 0
5, 75996, Note_on_c, 9, 51, 65
5, 75996, Note_on_c, 9, 35, 55
5, 76124, Note_on_c, 9, 35, 0
5, 76176, Note_on_c, 9, 51, 0
5, 76212, Note_on_c, 9, 76, 39
5, 76232, Note_on_c, 9, 76, 0
5, 76380, Note_on_c, 9, 63, 47
5, 76380, Note_on_c, 9, 51, 48
5, 76428, Note_on_c, 9, 63, 0
5, 76468, Note_on_c, 9, 51, 0
5, 76564, Note_on_c, 9, 76, 22
5, 76572, Note_on_c, 9, 63, 58
5, 76576, Note_on_c, 9, 51, 54
5, 76576, Note_on_c, 9, 35, 40
5, 76596, Note_on_c, 9, 76, 0
5, 76604, Note_on_c, 9, 63, 0
5, 76612, Note_on_c, 9, 35, 0
5, 76616, Note_on_c, 9, 51, 0
5, 76628, Note_on_c, 9, 76, 29
5, 76668, Note_on_c, 9, 76, 0
5, 76720, Note_on_c, 9, 76, 28
5, 76748, Note_on_c, 9, 76, 0
5, 76764, Note_on_c, 9, 35, 60
5, 76764, Note_on_c, 9, 51, 52
5, 76776, Note_on_c, 9, 76, 22
5, 76812, Note_on_c, 9, 76, 0
5, 76840, Note_on_c, 9, 51, 0
5, 76868, Note_on_c, 9, 35, 0
5, 76956, Note_on_c, 9, 51, 52
5, 77012, Note_on_c, 9, 51, 0
5, 77148, Note_on_c, 9, 37, 26
5, 77236, Note_on_c, 9, 37, 0
5, 77340, Note_on_c, 9, 37, 29
5, 77344, Note_on_c, 9, 51, 59
5, 77348, Note_on_c, 9, 35, 51
5, 77360, Note_on_c, 9, 76, 25
5, 77372, Note_on_c, 9, 35, 0
5, 77384, Note_on_c, 9, 76, 0
5, 77416, Note_on_c, 9, 51, 0
5, 77444, Note_on_c, 9, 37, 0
5, 77532, Note_on_c, 9, 51, 67
5, 77532, Note_on_c, 9, 35, 55
5, 77644, Note_on_c, 9, 35, 0
5, 77680, Note_on_c, 9, 51, 0
5, 77916, Note_on_c, 9, 37, 32
5, 78044, Note_on_c, 9, 37, 0
5, 78096, Note_on_c, 9, 76, 38
5, 78108, Note_on_c, 9, 51, 56
5, 78112, Note_on_c, 9, 35, 51
5, 78140, Note_on_c, 9, 76, 0
5, 78148, Note_on_c, 9, 35, 0
5, 78208, Note_on_c, 9, 51, 0
5, 78284, Note_on_c, 9, 76, 23
5, 78300, Note_on_c, 9, 51, 57
5, 78304, Note_on_c, 9, 35, 50
5, 78336, Note_on_c, 9, 76, 0
5, 78376, Note_on_c, 9, 51, 0
5, 78416, Note_on_c, 9, 35, 0
5, 78684, Note_on_c, 9, 37, 22
5, 78772, Note_on_c, 9, 37, 0
5, 78876, Note_on_c, 9, 37, 19
5, 78880, Note_on_c, 9, 51, 57
5, 78884, Note_on_c, 9, 35, 43
5, 78908, Note_on_c, 9, 35, 0
5, 78932, Note_on_c, 9, 51, 0
5, 78992, Note_on_c, 9, 37, 0
5, 79068, Note_on_c, 9, 51, 63
5, 79068, Note_on_c, 9, 35, 54
5, 79180, Note_on_c, 9, 35, 0
5, 79184, Note_on_c, 9, 51, 0
5, 79260, Note_on_c, 9, 51, 50
5, 79360, Note_on_c, 9, 51, 0
5, 79452, Note_on_c, 9, 37, 18
5, 79452, Note_on_c, 9, 51, 27
5, 79488, Note_on_c, 9, 51, 0
5, 79520, Note_on_c, 9, 37, 0
5, 79644, Note_on_c, 9, 37, 32
5, 79648, Note_on_c, 9, 51, 73
5, 79652, Note_on_c, 9, 35, 42
5, 79652, Note_on_c, 9, 76, 55
5, 79676, Note_on_c, 9, 35, 0
5, 79684, Note_on_c, 9, 76, 0
5, 79744, Note_on_c, 9, 37, 0
5, 79836, Note_on_c, 9, 35, 49
5, 79920, Note_on_c, 9, 51, 0
5, 79936, Note_on_c, 9, 35, 0
5, 80028, Note_on_c, 9, 51, 64
5, 80112, Note_on_c, 9, 51, 0
5, 80220, Note_on_c, 9, 37, 33
5, 80308, Note_on_c, 9, 37, 0
5, 80404, Note_on_c, 9, 76, 50
5, 80412, Note_on_c, 9, 51, 60
5, 80416, Note_on_c, 9, 35, 45
5, 80444, Note_on_c, 9, 35, 0
5, 80456, Note_on_c, 9, 51, 0
5, 80496, Note_on_c, 9, 76, 0
5, 80588, Note_on_c, 9, 76, 32
5, 80604, Note_on_c, 9, 35, 51
5, 80604, Note_on_c, 9, 51, 54
5, 80676, Note_on_c, 9, 76, 0
5, 80680, Note_on_c, 9, 35, 0
5, 80748, Note_on_c, 9, 51, 0
5, 80796, Note_on_c, 9, 53, 80
5, 80864, Note_on_c, 9, 53, 0
5, 80988, Note_on_c, 9, 37, 26
5, 80988, Note_on_c, 9, 51, 32
5, 81064, Note_on_c, 9, 51, 0
5, 81068, Note_on_c, 9, 37, 0
5, 81180, Note_on_c, 9, 37, 28
5, 81184, Note_on_c, 9, 51, 52
5, 81188, Note_on_c, 9, 35, 32
5, 81200, Note_on_c, 9, 35, 0
5, 81204, Note_on_c, 9, 76, 36
5, 81224, Note_on_c, 9, 76, 0
5, 81276, Note_on_c, 9, 51, 0
5, 81280, Note_on_c, 9, 37, 0
5, 81372, Note_on_c, 9, 51, 65
5, 81372, Note_on_c, 9, 35, 45
5, 81460, Note_on_c, 9, 35, 0
5, 81552, Note_on_c, 9, 51, 0
5, 81564, Note_on_c, 9, 51, 56
5, 81644, Note_on_c, 9, 51, 0
5, 81756, Note_on_c, 9, 37, 28
5, 81824, Note_on_c, 9, 37, 0
5, 81948, Note_on_c, 9, 51, 72
5, 81952, Note_on_c, 9, 35, 44
5, 81964, Note_on_c, 9, 35, 0
5, 82052, Note_on_c, 9, 51, 0
5, 82140, Note_on_c, 9, 35, 60
5, 82192, Note_on_c, 9, 35, 0
5, 82332, Note_on_c, 9, 37, 22
5, 82336, Note_on_c, 9, 51, 61
5, 82420, Note_on_c, 9, 37, 0
5, 82428, Note_on_c, 9, 51, 0
5, 82524, Note_on_c, 9, 51, 29
5, 82524, Note_on_c, 9, 37, 43
5, 82636, Note_on_c, 9, 51, 0
5, 82640, Note_on_c, 9, 37, 0
5, 82716, Note_on_c, 9, 35, 33
5, 82724, Note_on_c, 9, 35, 0
5, 82796, Note_on_c, 9, 76, 18
5, 82832, Note_on_c, 9, 76, 0
5, 82876, Note_on_c, 9, 76, 32
5, 82908, Note_on_c, 9, 76, 0
5, 82908, Note_on_c, 9, 35, 46
5, 82956, Note_on_c, 9, 76, 20
5, 82984, Note_on_c, 9, 76, 0
5, 83012, Note_on_c, 9, 35, 0
5, 83136, Note_on_c, 9, 76, 54
5, 83168, Note_on_c, 9, 76, 0
5, 83292, Note_on_c, 9, 51, 64
5, 83292, Note_on_c, 9, 37, 34
5, 83316, Note_on_c, 9, 76, 48
5, 83340, Note_on_c, 9, 76, 0
5, 83368, Note_on_c, 9, 37, 0
5, 83420, Note_on_c, 9, 51, 0
5, 83484, Note_on_c, 9, 37, 28
5, 83488, Note_on_c, 9, 51, 55
5, 83492, Note_on_c, 9, 35, 45
5, 83520, Note_on_c, 9, 35, 0
5, 83580, Note_on_c, 9, 51, 0
5, 83588, Note_on_c, 9, 37, 0
5, 83676, Note_on_c, 9, 35, 50
5, 83820, Note_on_c, 9, 35, 0
5, 83868, Note_on_c, 9, 51, 61
5, 83968, Note_on_c, 9, 51, 0
5, 84060, Note_on_c, 9, 37, 44
5, 84188, Note_on_c, 9, 37, 0
5, 84252, Note_on_c, 9, 51, 50
5, 84256, Note_on_c, 9, 35, 43
5, 84292, Note_on_c, 9, 35, 0
5, 84292, Note_on_c, 9, 51, 0
5, 84444, Note_on_c, 9, 35, 50
5, 84444, Note_on_c, 9, 51, 63
5, 84572, Note_on_c, 9, 35, 0
5, 84588, Note_on_c, 9, 51, 0
5, 84828, Note_on_c, 9, 37, 29
5, 84828, Note_on_c, 9, 51, 47
5, 84852, Note_on_c, 9, 51, 0
5, 84896, Note_on_c, 9, 37, 0
5, 85020, Note_on_c, 9, 37, 35
5, 85024, Note_on_c, 9, 51, 69
5, 85028, Note_on_c, 9, 35, 40
5, 85052, Note_on_c, 9, 35, 0
5, 85088, Note_on_c, 9, 37, 0
5, 85212, Note_on_c, 9, 35, 52
5, 85316, Note_on_c, 9, 51, 0
5, 85368, Note_on_c, 9, 35, 0
5, 85404, Note_on_c, 9, 53, 65
5, 85460, Note_on_c, 9, 53, 0
5, 85596, Note_on_c, 9, 51, 44
5, 85596, Note_on_c, 9, 37, 29
5, 85668, Note_on_c, 9, 37, 0
5, 85672, Note_on_c, 9, 51, 0
5, 85788, Note_on_c, 9, 37, 34
5, 85796, Note_on_c, 9, 35, 30
5, 85796, Note_on_c, 9, 51, 37
5, 85844, Note_on_c, 9, 51, 0
5, 85856, Note_on_c, 9, 35, 0
5, 85872, Note_on_c, 9, 37, 0
5, 85980, Note_on_c, 9, 35, 55
5, 85980, Note_on_c, 9, 51, 68
5, 86136, Note_on_c, 9, 51, 0
5, 86160, Note_on_c, 9, 35, 0
5, 86364, Note_on_c, 9, 37, 33
5, 86440, Note_on_c, 9, 37, 0
5, 86556, Note_on_c, 9, 37, 29
5, 86560, Note_on_c, 9, 51, 70
5, 86564, Note_on_c, 9, 35, 47
5, 86612, Note_on_c, 9, 35, 0
5, 86636, Note_on_c, 9, 37, 0
5, 86704, Note_on_c, 9, 51, 0
5, 86748, Note_on_c, 9, 35, 46
5, 86892, Note_on_c, 9, 35, 0
5, 86940, Note_on_c, 9, 51, 43
5, 86984, Note_on_c, 9, 51, 0
5, 87132, Note_on_c, 9, 51, 35
5, 87132, Note_on_c, 9, 37, 37
5, 87196, Note_on_c, 9, 51, 0
5, 87204, Note_on_c, 9, 37, 0
5, 87324, Note_on_c, 9, 37, 36
5, 87328, Note_on_c, 9, 51, 50
5, 87332, Note_on_c, 9, 35, 52
5, 87368, Note_on_c, 9, 35, 0
5, 87392, Note_on_c, 9, 51, 0
5, 87404, Note_on_c, 9, 37, 0
5, 87516, Note_on_c, 9, 35, 55
5, 87516, Note_on_c, 9, 51, 75
5, 87672, Note_on_c, 9, 35, 0
5, 87752, Note_on_c, 9, 51, 0
5, 87900, Note_on_c, 9, 51, 43
5, 87900, Note_on_c, 9, 37, 34
5, 87948, Note_on_c, 9, 51, 0
5, 87976, Note_on_c, 9, 37, 0
5, 88092, Note_on_c, 9, 37, 36
5, 88096, Note_on_c, 9, 51, 67
5, 88100, Note_on_c, 9, 35, 51
5, 88112, Note_on_c, 9, 35, 0
5, 88192, Note_on_c, 9, 37, 0
5, 88228, Note_on_c, 9, 51, 0
5, 88284, Note_on_c, 9, 35, 60
5, 88388, Note_on_c, 9, 35, 0
5, 88476, Note_on_c, 9, 51, 57
5, 88520, Note_on_c, 9, 51, 0
5, 88664, Note_on_c, 9, 37, 34
5, 88672, Note_on_c, 9, 51, 69
5, 88756, Note_on_c, 9, 37, 0
5, 88820, Note_on_c, 9, 51, 0
5, 88860, Note_on_c, 9, 37, 39
5, 88864, Note_on_c, 9, 35, 48
5, 88928, Note_on_c, 9, 35, 0
5, 88984, Note_on_c, 9, 37, 0
5, 89052, Note_on_c, 9, 35, 60
5, 89204, Note_on_c, 9, 35, 0
5, 89244, Note_on_c, 9, 53, 73
5, 89324, Note_on_c, 9, 53, 0
5, 89436, Note_on_c, 9, 37, 42
5, 89436, Note_on_c, 9, 51, 34
5, 89512, Note_on_c, 9, 37, 0
5, 89564, Note_on_c, 9, 51, 0
5, 89628, Note_on_c, 9, 37, 41
5, 89636, Note_on_c, 9, 35, 51
5, 89636, Note_on_c, 9, 53, 81
5, 89672, Note_on_c, 9, 35, 0
5, 89776, Note_on_c, 9, 53, 0
5, 89788, Note_on_c, 9, 37, 0
5, 89820, Note_on_c, 9, 51, 37
5, 89820, Note_on_c, 9, 35, 57
5, 89908, Note_on_c, 9, 35, 0
5, 89956, Note_on_c, 9, 51, 0
5, 90012, Note_on_c, 9, 53, 83
5, 90136, Note_on_c, 9, 53, 0
5, 90204, Note_on_c, 9, 51, 55
5, 90204, Note_on_c, 9, 37, 30
5, 90268, Note_on_c, 9, 37, 0
5, 90372, Note_on_c, 9, 51, 0
5, 90396, Note_on_c, 9, 37, 37
5, 90400, Note_on_c, 9, 53, 59
5, 90404, Note_on_c, 9, 35, 49
5, 90440, Note_on_c, 9, 35, 0
5, 90532, Note_on_c, 9, 53, 0
5, 90560, Note_on_c, 9, 37, 0
5, 90588, Note_on_c, 9, 35, 57
5, 90588, Note_on_c, 9, 51, 64
5, 90692, Note_on_c, 9, 35, 0
5, 90780, Note_on_c, 9, 51, 0
5, 90780, Note_on_c, 9, 51, 46
5, 90784, Note_on_c, 9, 51, 0
5, 90972, Note_on_c, 9, 37, 31
5, 90972, Note_on_c, 9, 51, 37
5, 91060, Note_on_c, 9, 51, 0
5, 91060, Note_on_c, 9, 37, 0
5, 91164, Note_on_c, 9, 37, 42
5, 91168, Note_on_c, 9, 51, 76
5, 91172, Note_on_c, 9, 35, 40
5, 91220, Note_on_c, 9, 35, 0
5, 91300, Note_on_c, 9, 51, 0
5, 91356, Note_on_c, 9, 35, 62
5, 91380, Note_on_c, 9, 37, 0
5, 91484, Note_on_c, 9, 35, 0
5, 91548, Note_on_c, 9, 51, 56
5, 91660, Note_on_c, 9, 51, 0
5, 91740, Note_on_c, 9, 37, 34
5, 91844, Note_on_c, 9, 37, 0
5, 91928, Note_on_c, 9, 37, 37
5, 91932, Note_on_c, 9, 35, 43
5, 91988, Note_on_c, 9, 35, 0
5, 91988, Note_on_c, 9, 76, 21
5, 92028, Note_on_c, 9, 76, 0
5, 92048, Note_on_c, 9, 76, 23
5, 92100, Note_on_c, 9, 76, 0
5, 92116, Note_on_c, 9, 37, 0
5, 92124, Note_on_c, 9, 35, 54
5, 92124, Note_on_c, 9, 51, 74
5, 92168, Note_on_c, 9, 76, 14
5, 92188, Note_on_c, 9, 76, 0
5, 92304, Note_on_c, 9, 35, 0
5, 92316, Note_on_c, 9, 51, 0
5, 92336, Note_on_c, 9, 76, 37
5, 92360, Note_on_c, 9, 76, 0
5, 92508, Note_on_c, 9, 37, 37
5, 92532, Note_on_c, 9, 76, 42
5, 92556, Note_on_c, 9, 76, 0
5, 92584, Note_on_c, 9, 37, 0
5, 92700, Note_on_c, 9, 37, 45
5, 92704, Note_on_c, 9, 51, 56
5, 92708, Note_on_c, 9, 35, 40
5, 92780, Note_on_c, 9, 35, 0
5, 92784, Note_on_c, 9, 51, 0
5, 92892, Note_on_c, 9, 51, 54
5, 92892, Note_on_c, 9, 35, 58
5, 92928, Note_on_c, 9, 37, 0
5, 93072, Note_on_c, 9, 51, 0
5, 93152, Note_on_c, 9, 35, 0
5, 93276, Note_on_c, 9, 37, 38
5, 93364, Note_on_c, 9, 37, 0
5, 93468, Note_on_c, 9, 37, 47
5, 93472, Note_on_c, 9, 51, 51
5, 93476, Note_on_c, 9, 35, 36
5, 93504, Note_on_c, 9, 51, 0
5, 93564, Note_on_c, 9, 35, 0
5, 93580, Note_on_c, 9, 37, 0
5, 93660, Note_on_c, 9, 51, 54
5, 93660, Note_on_c, 9, 35, 49
5, 93664, Note_on_c, 9, 77, 48
5, 93708, Note_on_c, 9, 77, 0
5, 93776, Note_on_c, 9, 51, 0
5, 93920, Note_on_c, 9, 35, 0
5, 94044, Note_on_c, 9, 51, 51
5, 94044, Note_on_c, 9, 64, 28
5, 94132, Note_on_c, 9, 64, 0
5, 94156, Note_on_c, 9, 51, 0
5, 94236, Note_on_c, 9, 64, 48
5, 94396, Note_on_c, 9, 64, 0
5, 94428, Note_on_c, 9, 35, 62
5, 94428, Note_on_c, 9, 51, 58
5, 94528, Note_on_c, 9, 51, 0
5, 94584, Note_on_c, 9, 35, 0
5, 94620, Note_on_c, 9, 51, 46
5, 94700, Note_on_c, 9, 51, 0
5, 94804, Note_on_c, 9, 77, 42
5, 94812, Note_on_c, 9, 63, 36
5, 94860, Note_on_c, 9, 63, 0
5, 94940, Note_on_c, 9, 77, 0
5, 95004, Note_on_c, 9, 63, 57
5, 95008, Note_on_c, 9, 51, 63
5, 95012, Note_on_c, 9, 35, 45
5, 95012, Note_on_c, 9, 77, 66
5, 95036, Note_on_c, 9, 35, 0
5, 95084, Note_on_c, 9, 51, 0
5, 95088, Note_on_c, 9, 77, 0
5, 95140, Note_on_c, 9, 63, 0
5, 95196, Note_on_c, 9, 35, 44
5, 95332, Note_on_c, 9, 35, 0
5, 95388, Note_on_c, 9, 51, 39
5, 95432, Note_on_c, 9, 51, 0
5, 95772, Note_on_c, 9, 64, 44
5, 95776, Note_on_c, 9, 51, 60
5, 95780, Note_on_c, 9, 35, 34
5, 95816, Note_on_c, 9, 51, 0
5, 95828, Note_on_c, 9, 35, 0
5, 95888, Note_on_c, 9, 64, 0
5, 95964, Note_on_c, 9, 51, 46
5, 95964, Note_on_c, 9, 35, 62
5, 96068, Note_on_c, 9, 51, 0
5, 96084, Note_on_c, 9, 35, 0
5, 96156, Note_on_c, 9, 53, 62
5, 96192, Note_on_c, 9, 53, 0
5, 96348, Note_on_c, 9, 63, 34
5, 96348, Note_on_c, 9, 51, 27
5, 96396, Note_on_c, 9, 63, 0
5, 96452, Note_on_c, 9, 51, 0
5, 96540, Note_on_c, 9, 63, 75
5, 96544, Note_on_c, 9, 51, 53
5, 96548, Note_on_c, 9, 35, 53
5, 96572, Note_on_c, 9, 35, 0
5, 96596, Note_on_c, 9, 51, 0
5, 96688, Note_on_c, 9, 63, 0
5, 96736, Note_on_c, 9, 35, 60
5, 96736, Note_on_c, 9, 51, 67
5, 96744, Note_on_c, 9, 77, 47
5, 96784, Note_on_c, 9, 77, 0
5, 96836, Note_on_c, 9, 35, 0
5, 96888, Note_on_c, 9, 51, 0
5, 96940, Note_on_c, 9, 77, 51
5, 96980, Note_on_c, 9, 77, 0
5, 97104, Note_on_c, 9, 77, 43
5, 97116, Note_on_c, 9, 64, 50
5, 97164, Note_on_c, 9, 77, 0
5, 97180, Note_on_c, 9, 64, 0
5, 97220, Note_on_c, 9, 77, 31
5, 97252, Note_on_c, 9, 77, 0
5, 97308, Note_on_c, 9, 64, 72
5, 97312, Note_on_c, 9, 51, 61
5, 97316, Note_on_c, 9, 35, 47
5, 97328, Note_on_c, 9, 35, 0
5, 97340, Note_on_c, 9, 51, 0
5, 97468, Note_on_c, 9, 64, 0
5, 97500, Note_on_c, 9, 35, 57
5, 97500, Note_on_c, 9, 51, 47
5, 97552, Note_on_c, 9, 51, 0
5, 97568, Note_on_c, 9, 35, 0
5, 97692, Note_on_c, 9, 63, 58
5, 97696, Note_on_c, 9, 51, 58
5, 97736, Note_on_c, 9, 51, 0
5, 97760, Note_on_c, 9, 63, 0
5, 97884, Note_on_c, 9, 63, 54
5, 97932, Note_on_c, 9, 63, 0
5, 98080, Note_on_c, 9, 51, 56
5, 98080, Note_on_c, 9, 35, 35
5, 98080, Note_on_c, 9, 63, 95
5, 98092, Note_on_c, 9, 35, 0
5, 98144, Note_on_c, 9, 51, 0
5, 98252, Note_on_c, 9, 63, 0
5, 98268, Note_on_c, 9, 51, 69
5, 98268, Note_on_c, 9, 35, 60
5, 98344, Note_on_c, 9, 35, 0
5, 98356, Note_on_c, 9, 51, 0
5, 98460, Note_on_c, 9, 64, 35
5, 98544, Note_on_c, 9, 64, 0
5, 98652, Note_on_c, 9, 64, 29
5, 98652, Note_on_c, 9, 51, 43
5, 98700, Note_on_c, 9, 51, 0
5, 98728, Note_on_c, 9, 64, 0
5, 98844, Note_on_c, 9, 64, 84
5, 98848, Note_on_c, 9, 51, 72
5, 98852, Note_on_c, 9, 35, 55
5, 98900, Note_on_c, 9, 35, 0
5, 98956, Note_on_c, 9, 51, 0
5, 99036, Note_on_c, 9, 35, 66
5, 99124, Note_on_c, 9, 64, 0
5, 99148, Note_on_c, 9, 35, 0
5, 99228, Note_on_c, 9, 63, 46
5, 99232, Note_on_c, 9, 51, 58
5, 99264, Note_on_c, 9, 51, 0
5, 99328, Note_on_c, 9, 63, 0
5, 99420, Note_on_c, 9, 63, 43
5, 99420, Note_on_c, 9, 51, 47
5, 99472, Note_on_c, 9, 51, 0
5, 99524, Note_on_c, 9, 63, 0
5, 99612, Note_on_c, 9, 63, 60
5, 99616, Note_on_c, 9, 51, 56
5, 99620, Note_on_c, 9, 35, 46
5, 99656, Note_on_c, 9, 35, 0
5, 99676, Note_on_c, 9, 51, 0
5, 99736, Note_on_c, 9, 63, 0
5, 99804, Note_on_c, 9, 35, 63
5, 99804, Note_on_c, 9, 51, 63
5, 99908, Note_on_c, 9, 35, 0
5, 99932, Note_on_c, 9, 51, 0
5, 99996, Note_on_c, 9, 53, 75
5, 100064, Note_on_c, 9, 53, 0
5, 100188, Note_on_c, 9, 64, 36
5, 100188, Note_on_c, 9, 51, 32
5, 100240, Note_on_c, 9, 64, 0
5, 100252, Note_on_c, 9, 51, 0
5, 100380, Note_on_c, 9, 64, 51
5, 100384, Note_on_c, 9, 51, 47
5, 100388, Note_on_c, 9, 35, 44
5, 100388, Note_on_c, 9, 77, 60
5, 100420, Note_on_c, 9, 35, 0
5, 100460, Note_on_c, 9, 51, 0
5, 100468, Note_on_c, 9, 77, 0
5, 100472, Note_on_c, 9, 64, 0
5, 100572, Note_on_c, 9, 35, 67
5, 100572, Note_on_c, 9, 51, 73
5, 100584, Note_on_c, 9, 77, 43
5, 100676, Note_on_c, 9, 35, 0
5, 100692, Note_on_c, 9, 77, 0
5, 100724, Note_on_c, 9, 51, 0
5, 100956, Note_on_c, 9, 63, 32
5, 100956, Note_on_c, 9, 51, 53
5, 101020, Note_on_c, 9, 51, 0
5, 101024, Note_on_c, 9, 63, 0
5, 101148, Note_on_c, 9, 63, 53
5, 101152, Note_on_c, 9, 51, 76
5, 101156, Note_on_c, 9, 35, 39
5, 101160, Note_on_c, 9, 77, 53
5, 101180, Note_on_c, 9, 35, 0
5, 101236, Note_on_c, 9, 63, 0
5, 101244, Note_on_c, 9, 77, 0
5, 101252, Note_on_c, 9, 51, 0
5, 101340, Note_on_c, 9, 35, 65
5, 101468, Note_on_c, 9, 35, 0
5, 101532, Note_on_c, 9, 51, 67
5, 101612, Note_on_c, 9, 51, 0
5, 101724, Note_on_c, 9, 64, 33
5, 101772, Note_on_c, 9, 64, 0
5, 101916, Note_on_c, 9, 64, 40
5, 101920, Note_on_c, 9, 51, 64
5, 101924, Note_on_c, 9, 35, 46
5, 101948, Note_on_c, 9, 35, 0
5, 101984, Note_on_c, 9, 64, 0
5, 102028, Note_on_c, 9, 51, 0
5, 102108, Note_on_c, 9, 35, 63
5, 102184, Note_on_c, 9, 35, 0
5, 102300, Note_on_c, 9, 51, 64
5, 102400, Note_on_c, 9, 51, 0
5, 102492, Note_on_c, 9, 63, 45
5, 102540, Note_on_c, 9, 63, 0
5, 102684, Note_on_c, 9, 63, 19
5, 102688, Note_on_c, 9, 51, 60
5, 102692, Note_on_c, 9, 35, 41
5, 102704, Note_on_c, 9, 35, 0
5, 102760, Note_on_c, 9, 51, 0
5, 102764, Note_on_c, 9, 63, 0
5, 102876, Note_on_c, 9, 35, 62
5, 102876, Note_on_c, 9, 51, 74
5, 103004, Note_on_c, 9, 35, 0
5, 103044, Note_on_c, 9, 51, 0
5, 103260, Note_on_c, 9, 64, 35
5, 103260, Note_on_c, 9, 51, 32
5, 103324, Note_on_c, 9, 51, 0
5, 103348, Note_on_c, 9, 64, 0
5, 103452, Note_on_c, 9, 64, 46
5, 103456, Note_on_c, 9, 51, 59
5, 103460, Note_on_c, 9, 35, 33
5, 103472, Note_on_c, 9, 35, 0
5, 103496, Note_on_c, 9, 51, 0
5, 103564, Note_on_c, 9, 64, 0
5, 103644, Note_on_c, 9, 35, 70
5, 103800, Note_on_c, 9, 35, 0
5, 103836, Note_on_c, 9, 51, 65
5, 103948, Note_on_c, 9, 51, 0
5, 104028, Note_on_c, 9, 63, 53
5, 104104, Note_on_c, 9, 63, 0
5, 104216, Note_on_c, 9, 77, 28
5, 104224, Note_on_c, 9, 63, 39
5, 104224, Note_on_c, 9, 51, 42
5, 104224, Note_on_c, 9, 35, 38
5, 104256, Note_on_c, 9, 77, 0
5, 104276, Note_on_c, 9, 63, 0
5, 104288, Note_on_c, 9, 51, 0
5, 104288, Note_on_c, 9, 35, 0
5, 104384, Note_on_c, 9, 77, 38
5, 104412, Note_on_c, 9, 35, 68
5, 104412, Note_on_c, 9, 51, 73
5, 104556, Note_on_c, 9, 77, 0
5, 104580, Note_on_c, 9, 51, 0
5, 104592, Note_on_c, 9, 35, 0
5, 104796, Note_on_c, 9, 51, 54
5, 104796, Note_on_c, 9, 64, 24
5, 104852, Note_on_c, 9, 51, 0
5, 104868, Note_on_c, 9, 64, 0
5, 104988, Note_on_c, 9, 64, 55
5, 104992, Note_on_c, 9, 51, 65
5, 104996, Note_on_c, 9, 35, 40
5, 104996, Note_on_c, 9, 77, 27
5, 105028, Note_on_c, 9, 77, 0
5, 105028, Note_on_c, 9, 35, 0
5, 105168, Note_on_c, 9, 77, 24
5, 105180, Note_on_c, 9, 35, 64
5, 105212, Note_on_c, 9, 77, 0
5, 105248, Note_on_c, 9, 51, 0
5, 105360, Note_on_c, 9, 64, 0
5, 105372, Note_on_c, 9, 53, 64
5, 105388, Note_on_c, 9, 35, 0
5, 105428, Note_on_c, 9, 53, 0
5, 105564, Note_on_c, 9, 63, 44
5, 105564, Note_on_c, 9, 51, 37
5, 105652, Note_on_c, 9, 51, 0
5, 105676, Note_on_c, 9, 63, 0
5, 105756, Note_on_c, 9, 63, 77
5, 105760, Note_on_c, 9, 51, 33
5, 105764, Note_on_c, 9, 35, 31
5, 105812, Note_on_c, 9, 35, 0
5, 105828, Note_on_c, 9, 51, 0
5, 105948, Note_on_c, 9, 35, 64
5, 105948, Note_on_c, 9, 51, 71
5, 106068, Note_on_c, 9, 63, 0
5, 106092, Note_on_c, 9, 51, 0
5, 106140, Note_on_c, 9, 51, 40
5, 106176, Note_on_c, 9, 35, 0
5, 106236, Note_on_c, 9, 51, 0
5, 106332, Note_on_c, 9, 64, 36
5, 106332, Note_on_c, 9, 51, 45
5, 106380, Note_on_c, 9, 64, 0
5, 106396, Note_on_c, 9, 51, 0
5, 106524, Note_on_c, 9, 64, 64
5, 106528, Note_on_c, 9, 51, 79
5, 106532, Note_on_c, 9, 35, 47
5, 106544, Note_on_c, 9, 35, 0
5, 106620, Note_on_c, 9, 77, 37
5, 106636, Note_on_c, 9, 51, 0
5, 106644, Note_on_c, 9, 77, 0
5, 106688, Note_on_c, 9, 77, 44
5, 106716, Note_on_c, 9, 64, 0
5, 106716, Note_on_c, 9, 35, 73
5, 106732, Note_on_c, 9, 77, 0
5, 106896, Note_on_c, 9, 35, 0
5, 106908, Note_on_c, 9, 51, 49
5, 106912, Note_on_c, 9, 77, 43
5, 106940, Note_on_c, 9, 77, 0
5, 106976, Note_on_c, 9, 51, 0
5, 107084, Note_on_c, 9, 77, 43
5, 107100, Note_on_c, 9, 51, 46
5, 107108, Note_on_c, 9, 77, 0
5, 107136, Note_on_c, 9, 51, 0
5, 107292, Note_on_c, 9, 63, 77
5, 107296, Note_on_c, 9, 51, 75
5, 107300, Note_on_c, 9, 35, 34
5, 107308, Note_on_c, 9, 77, 37
5, 107324, Note_on_c, 9, 77, 0
5, 107348, Note_on_c, 9, 35, 0
5, 107440, Note_on_c, 9, 51, 0
5, 107484, Note_on_c, 9, 35, 72
5, 107508, Note_on_c, 9, 77, 27
5, 107520, Note_on_c, 9, 63, 0
5, 107560, Note_on_c, 9, 77, 0
5, 107676, Note_on_c, 9, 51, 59
5, 107684, Note_on_c, 9, 35, 0
5, 107748, Note_on_c, 9, 51, 0
5, 108060, Note_on_c, 9, 64, 63
5, 108064, Note_on_c, 9, 51, 64
5, 108068, Note_on_c, 9, 35, 31
5, 108072, Note_on_c, 9, 77, 30
5, 108096, Note_on_c, 9, 35, 0
5, 108104, Note_on_c, 9, 77, 0
5, 108128, Note_on_c, 9, 51, 0
5, 108252, Note_on_c, 9, 35, 58
5, 108252, Note_on_c, 9, 77, 33
5, 108308, Note_on_c, 9, 64, 0
5, 108328, Note_on_c, 9, 77, 0
5, 108432, Note_on_c, 9, 35, 0
5, 108444, Note_on_c, 9, 51, 64
5, 108488, Note_on_c, 9, 51, 0
5, 108636, Note_on_c, 9, 63, 36
5, 108636, Note_on_c, 9, 51, 43
5, 108684, Note_on_c, 9, 63, 0
5, 108692, Note_on_c, 9, 51, 0
5, 108828, Note_on_c, 9, 63, 69
5, 108832, Note_on_c, 9, 51, 59
5, 108836, Note_on_c, 9, 35, 54
5, 108872, Note_on_c, 9, 51, 0
5, 108884, Note_on_c, 9, 35, 0
5, 109020, Note_on_c, 9, 51, 67
5, 109020, Note_on_c, 9, 35, 56
5, 109068, Note_on_c, 9, 63, 0
5, 109076, Note_on_c, 9, 51, 0
5, 109148, Note_on_c, 9, 35, 0
5, 109404, Note_on_c, 9, 51, 46
5, 109404, Note_on_c, 9, 64, 31
5, 109412, Note_on_c, 9, 51, 0
5, 109468, Note_on_c, 9, 64, 0
5, 109596, Note_on_c, 9, 64, 56
5, 109600, Note_on_c, 9, 51, 69
5, 109604, Note_on_c, 9, 35, 55
5, 109616, Note_on_c, 9, 35, 0
5, 109680, Note_on_c, 9, 51, 0
5, 109788, Note_on_c, 9, 35, 57
5, 109900, Note_on_c, 9, 64, 0
5, 109968, Note_on_c, 9, 35, 0
5, 109980, Note_on_c, 9, 51, 60
5, 110016, Note_on_c, 9, 51, 0
5, 110172, Note_on_c, 9, 63, 33
5, 110220, Note_on_c, 9, 63, 0
5, 110364, Note_on_c, 9, 63, 65
5, 110368, Note_on_c, 9, 51, 52
5, 110372, Note_on_c, 9, 35, 64
5, 110384, Note_on_c, 9, 35, 0
5, 110396, Note_on_c, 9, 51, 0
5, 110556, Note_on_c, 9, 51, 62
5, 110556, Note_on_c, 9, 35, 56
5, 110700, Note_on_c, 9, 51, 0
5, 110748, Note_on_c, 9, 35, 0
5, 110832, Note_on_c, 9, 63, 0
5, 110940, Note_on_c, 9, 64, 36
5, 110996, Note_on_c, 9, 64, 0
5, 111132, Note_on_c, 9, 64, 57
5, 111136, Note_on_c, 9, 51, 54
5, 111140, Note_on_c, 9, 35, 55
5, 111148, Note_on_c, 9, 77, 78
5, 111156, Note_on_c, 9, 35, 0
5, 111176, Note_on_c, 9, 51, 0
5, 111200, Note_on_c, 9, 77, 0
5, 111324, Note_on_c, 9, 35, 68
5, 111324, Note_on_c, 9, 51, 37
5, 111400, Note_on_c, 9, 51, 0
5, 111504, Note_on_c, 9, 35, 0
5, 111516, Note_on_c, 9, 51, 52
5, 111520, Note_on_c, 9, 64, 0
5, 111532, Note_on_c, 9, 77, 48
5, 111556, Note_on_c, 9, 51, 0
5, 111584, Note_on_c, 9, 77, 0
5, 111708, Note_on_c, 9, 51, 48
5, 111708, Note_on_c, 9, 63, 31
5, 111756, Note_on_c, 9, 51, 0
5, 111796, Note_on_c, 9, 63, 0
5, 111900, Note_on_c, 9, 63, 54
5, 111904, Note_on_c, 9, 51, 55
5, 111908, Note_on_c, 9, 35, 66
5, 111940, Note_on_c, 9, 35, 0
5, 111940, Note_on_c, 9, 51, 0
5, 112068, Note_on_c, 9, 63, 0
5, 112092, Note_on_c, 9, 51, 71
5, 112092, Note_on_c, 9, 35, 58
5, 112204, Note_on_c, 9, 35, 0
5, 112228, Note_on_c, 9, 51, 0
5, 112476, Note_on_c, 9, 51, 36
5, 112476, Note_on_c, 9, 64, 35
5, 112516, Note_on_c, 9, 51, 0
5, 112548, Note_on_c, 9, 64, 0
5, 112668, Note_on_c, 9, 64, 50
5, 112672, Note_on_c, 9, 51, 74
5, 112676, Note_on_c, 9, 35, 49
5, 112704, Note_on_c, 9, 35, 0
5, 112860, Note_on_c, 9, 35, 67
5, 112884, Note_on_c, 9, 51, 0
5, 112932, Note_on_c, 9, 35, 0
5, 113040, Note_on_c, 9, 77, 60
5, 113052, Note_on_c, 9, 51, 59
5, 113092, Note_on_c, 9, 51, 0
5, 113092, Note_on_c, 9, 64, 0
5, 113096, Note_on_c, 9, 77, 0
5, 113228, Note_on_c, 9, 77, 26
5, 113244, Note_on_c, 9, 51, 65
5, 113244, Note_on_c, 9, 63, 38
5, 113256, Note_on_c, 9, 77, 0
5, 113300, Note_on_c, 9, 63, 0
5, 113424, Note_on_c, 9, 77, 39
5, 113436, Note_on_c, 9, 63, 64
5, 113440, Note_on_c, 9, 35, 54
5, 113444, Note_on_c, 9, 35, 0
5, 113456, Note_on_c, 9, 51, 0
5, 113460, Note_on_c, 9, 77, 0
5, 113628, Note_on_c, 9, 51, 25
5, 113628, Note_on_c, 9, 35, 66
5, 113632, Note_on_c, 9, 77, 42
5, 113664, Note_on_c, 9, 35, 0
5, 113668, Note_on_c, 9, 63, 0
5, 113684, Note_on_c, 9, 51, 0
5, 113716, Note_on_c, 9, 77, 0
5, 113820, Note_on_c, 9, 51, 71
5, 113980, Note_on_c, 9, 51, 0
5, 114012, Note_on_c, 9, 64, 47
5, 114088, Note_on_c, 9, 64, 0
5, 114204, Note_on_c, 9, 64, 50
5, 114208, Note_on_c, 9, 51, 48
5, 114212, Note_on_c, 9, 35, 51
5, 114212, Note_on_c, 9, 35, 0
5, 114212, Note_on_c, 9, 77, 31
5, 114236, Note_on_c, 9, 51, 0
5, 114244, Note_on_c, 9, 77, 0
5, 114396, Note_on_c, 9, 51, 68
5, 114396, Note_on_c, 9, 35, 65
5, 114412, Note_on_c, 9, 54, 49
5, 114444, Note_on_c, 9, 35, 0
5, 114540, Note_on_c, 9, 51, 0
5, 114548, Note_on_c, 9, 54, 0
5, 114736, Note_on_c, 9, 64, 0
5, 114776, Note_on_c, 9, 63, 42
5, 114880, Note_on_c, 9, 63, 0
5, 114972, Note_on_c, 9, 63, 50
5, 114976, Note_on_c, 9, 51, 71
5, 114980, Note_on_c, 9, 35, 55
5, 115004, Note_on_c, 9, 35, 0
5, 115068, Note_on_c, 9, 51, 0
5, 115152, Note_on_c, 9, 63, 0
5, 115164, Note_on_c, 9, 51, 35
5, 115164, Note_on_c, 9, 35, 64
5, 115176, Note_on_c, 9, 77, 39
5, 115252, Note_on_c, 9, 51, 0
5, 115264, Note_on_c, 9, 77, 0
5, 115268, Note_on_c, 9, 35, 0
5, 115548, Note_on_c, 9, 51, 39
5, 115548, Note_on_c, 9, 64, 35
5, 115584, Note_on_c, 9, 51, 0
5, 115624, Note_on_c, 9, 64, 0
5, 115740, Note_on_c, 9, 64, 51
5, 115744, Note_on_c, 9, 51, 61
5, 115748, Note_on_c, 9, 35, 50
5, 115752, Note_on_c, 9, 35, 0
5, 115796, Note_on_c, 9, 51, 0
5, 115932, Note_on_c, 9, 51, 55
5, 115932, Note_on_c, 9, 35, 64
5, 115980, Note_on_c, 9, 64, 0
5, 115996, Note_on_c, 9, 35, 0
5, 116032, Note_on_c, 9, 51, 0
5, 116316, Note_on_c, 9, 63, 47
5, 116316, Note_on_c, 9, 51, 45
5, 116320, Note_on_c, 9, 77, 26
5, 116340, Note_on_c, 9, 51, 0
5, 116416, Note_on_c, 9, 63, 0
5, 116432, Note_on_c, 9, 77, 0
5, 116508, Note_on_c, 9, 63, 44
5, 116512, Note_on_c, 9, 51, 74
5, 116516, Note_on_c, 9, 35, 45
5, 116532, Note_on_c, 9, 77, 36
5, 116540, Note_on_c, 9, 35, 0
5, 116576, Note_on_c, 9, 51, 0
5, 116596, Note_on_c, 9, 77, 0
5, 116684, Note_on_c, 9, 63, 0
5, 116700, Note_on_c, 9, 35, 60
5, 116812, Note_on_c, 9, 35, 0
5, 116892, Note_on_c, 9, 51, 70
5, 116960, Note_on_c, 9, 51, 0
5, 117084, Note_on_c, 9, 64, 36
5, 117148, Note_on_c, 9, 64, 0
5, 117276, Note_on_c, 9, 64, 56
5, 117280, Note_on_c, 9, 51, 55
5, 117284, Note_on_c, 9, 35, 48
5, 117288, Note_on_c, 9, 35, 0
5, 117312, Note_on_c, 9, 51, 0
5, 117468, Note_on_c, 9, 35, 63
5, 117504, Note_on_c, 9, 64, 0
5, 117556, Note_on_c, 9, 35, 0
5, 117660, Note_on_c, 9, 51, 60
5, 117716, Note_on_c, 9, 51, 0
5, 117852, Note_on_c, 9, 63, 42
5, 117852, Note_on_c, 9, 51, 38
5, 117856, Note_on_c, 9, 54, 70
5, 117900, Note_on_c, 9, 54, 0
5, 117916, Note_on_c, 9, 51, 0
5, 117952, Note_on_c, 9, 63, 0
5, 118044, Note_on_c, 9, 63, 55
5, 118052, Note_on_c, 9, 51, 58
5, 118052, Note_on_c, 9, 35, 52
5, 118076, Note_on_c, 9, 35, 0
5, 118084, Note_on_c, 9, 51, 0
5, 118236, Note_on_c, 9, 35, 66
5, 118236, Note_on_c, 9, 51, 51
5, 118248, Note_on_c, 9, 63, 0
5, 118248, Note_on_c, 9, 77, 38
5, 118292, Note_on_c, 9, 77, 0
5, 118324, Note_on_c, 9, 35, 0
5, 118352, Note_on_c, 9, 51, 0
5, 118428, Note_on_c, 9, 53, 36
5, 118540, Note_on_c, 9, 53, 0
5, 118620, Note_on_c, 9, 64, 42
5, 118620, Note_on_c, 9, 51, 20
5, 118696, Note_on_c, 9, 51, 0
5, 118700, Note_on_c, 9, 64, 0
5, 118812, Note_on_c, 9, 64, 54
5, 118816, Note_on_c, 9, 53, 55
5, 118820, Note_on_c, 9, 35, 49
5, 118832, Note_on_c, 9, 35, 0
5, 118880, Note_on_c, 9, 77, 30
5, 118908, Note_on_c, 9, 77, 0
5, 118928, Note_on_c, 9, 53, 0
5, 118948, Note_on_c, 9, 77, 30
5, 118976, Note_on_c, 9, 77, 0
5, 119004, Note_on_c, 9, 51, 29
5, 119004, Note_on_c, 9, 35, 64
5, 119012, Note_on_c, 9, 64, 0
5, 119016, Note_on_c, 9, 77, 23
5, 119052, Note_on_c, 9, 77, 0
5, 119068, Note_on_c, 9, 35, 0
5, 119104, Note_on_c, 9, 51, 0
5, 119196, Note_on_c, 9, 53, 64
5, 119216, Note_on_c, 9, 77, 33
5, 119252, Note_on_c, 9, 77, 0
5, 119312, Note_on_c, 9, 53, 0
5, 119388, Note_on_c, 9, 63, 42
5, 119388, Note_on_c, 9, 51, 35
5, 119464, Note_on_c, 9, 63, 0
5, 119504, Note_on_c, 9, 51, 0
5, 119580, Note_on_c, 9, 63, 50
5, 119584, Note_on_c, 9, 53, 64
5, 119588, Note_on_c, 9, 35, 46
5, 119616, Note_on_c, 9, 35, 0
5, 119696, Note_on_c, 9, 53, 0
5, 119716, Note_on_c, 9, 63, 0
5, 119772, Note_on_c, 9, 51, 33
5, 119772, Note_on_c, 9, 35, 59
5, 119784, Note_on_c, 9, 77, 39
5, 119808, Note_on_c, 9, 77, 0
5, 119860, Note_on_c, 9, 35, 0
5, 119860, Note_on_c, 9, 51, 0
5, 119964, Note_on_c, 9, 53, 71
5, 120076, Note_on_c, 9, 53, 0
5, 120156, Note_on_c, 9, 64, 41
5, 120156, Note_on_c, 9, 51, 35
5, 120220, Note_on_c, 9, 64, 0
5, 120256, Note_on_c, 9, 51, 0
5, 120348, Note_on_c, 9, 64, 55
5, 120352, Note_on_c, 9, 53, 68
5, 120356, Note_on_c, 9, 35, 40
5, 120364, Note_on_c, 9, 35, 0
5, 120460, Note_on_c, 9, 53, 0
5, 120508, Note_on_c, 9, 64, 0
5, 120524, Note_on_c, 9, 54, 53
5, 120540, Note_on_c, 9, 51, 39
5, 120548, Note_on_c, 9, 35, 59
5, 120552, Note_on_c, 9, 54, 0
5, 120604, Note_on_c, 9, 35, 0
5, 120628, Note_on_c, 9, 51, 0
5, 120732, Note_on_c, 9, 53, 70
5, 120836, Note_on_c, 9, 53, 0
5, 120924, Note_on_c, 9, 63, 42
5, 120924, Note_on_c, 9, 51, 31
5, 120996, Note_on_c, 9, 63, 0
5, 121024, Note_on_c, 9, 51, 0
5, 121116, Note_on_c, 9, 63, 62
5, 121120, Note_on_c, 9, 53, 75
5, 121124, Note_on_c, 9, 35, 47
5, 121136, Note_on_c, 9, 35, 0
5, 121196, Note_on_c, 9, 53, 0
5, 121264, Note_on_c, 9, 63, 0
5, 121296, Note_on_c, 9, 77, 49
5, 121308, Note_on_c, 9, 35, 64
5, 121308, Note_on_c, 9, 51, 59
5, 121332, Note_on_c, 9, 77, 0
5, 121380, Note_on_c, 9, 51, 0
5, 121420, Note_on_c, 9, 35, 0
5, 121500, Note_on_c, 9, 51, 43
5, 121544, Note_on_c, 9, 51, 0
5, 121692, Note_on_c, 9, 64, 36
5, 121692, Note_on_c, 9, 51, 43
5, 121756, Note_on_c, 9, 51, 0
5, 121760, Note_on_c, 9, 64, 0
5, 121884, Note_on_c, 9, 64, 58
5, 121888, Note_on_c, 9, 51, 73
5, 121892, Note_on_c, 9, 35, 44
5, 121904, Note_on_c, 9, 35, 0
5, 121964, Note_on_c, 9, 51, 0
5, 121984, Note_on_c, 9, 77, 25
5, 122004, Note_on_c, 9, 64, 0
5, 122020, Note_on_c, 9, 77, 0
5, 122076, Note_on_c, 9, 35, 64
5, 122132, Note_on_c, 9, 35, 0
5, 122268, Note_on_c, 9, 51, 53
5, 122336, Note_on_c, 9, 51, 0
5, 122460, Note_on_c, 9, 51, 21
5, 122460, Note_on_c, 9, 63, 53
5, 122484, Note_on_c, 9, 51, 0
5, 122548, Note_on_c, 9, 63, 0
5, 122652, Note_on_c, 9, 63, 49
5, 122656, Note_on_c, 9, 51, 60
5, 122660, Note_on_c, 9, 35, 49
5, 122672, Note_on_c, 9, 35, 0
5, 122732, Note_on_c, 9, 51, 0
5, 122764, Note_on_c, 9, 63, 0
5, 122844, Note_on_c, 9, 51, 47
5, 122844, Note_on_c, 9, 35, 60
5, 122880, Note_on_c, 9, 35, 0
5, 122908, Note_on_c, 9, 51, 0
5, 123228, Note_on_c, 9, 64, 28
5, 123228, Note_on_c, 9, 51, 28
5, 123264, Note_on_c, 9, 51, 0
5, 123328, Note_on_c, 9, 64, 0
5, 123420, Note_on_c, 9, 64, 55
5, 123424, Note_on_c, 9, 51, 72
5, 123428, Note_on_c, 9, 35, 50
5, 123452, Note_on_c, 9, 35, 0
5, 123568, Note_on_c, 9, 51, 0
5, 123612, Note_on_c, 9, 35, 65
5, 123624, Note_on_c, 9, 64, 0
5, 123676, Note_on_c, 9, 35, 0
5, 123804, Note_on_c, 9, 51, 57
5, 123872, Note_on_c, 9, 51, 0
5, 123988, Note_on_c, 9, 54, 66
5, 124000, Note_on_c, 9, 63, 44
5, 124000, Note_on_c, 9, 51, 52
5, 124044, Note_on_c, 9, 54, 0
5, 124096, Note_on_c, 9, 51, 0
5, 124144, Note_on_c, 9, 63, 0
5, 124188, Note_on_c, 9, 63, 62
5, 124192, Note_on_c, 9, 53, 67
5, 124196, Note_on_c, 9, 35, 47
5, 124232, Note_on_c, 9, 35, 0
5, 124256, Note_on_c, 9, 53, 0
5, 124380, Note_on_c, 9, 51, 33
5, 124380, Note_on_c, 9, 35, 57
5, 124392, Note_on_c, 9, 77, 57
5, 124444, Note_on_c, 9, 77, 0
5, 124468, Note_on_c, 9, 35, 0
5, 124536, Note_on_c, 9, 51, 0
5, 124548, Note_on_c, 9, 63, 0
5, 124764, Note_on_c, 9, 51, 51
5, 124764, Note_on_c, 9, 64, 31
5, 124820, Note_on_c, 9, 64, 0
5, 124852, Note_on_c, 9, 51, 0
5, 124956, Note_on_c, 9, 64, 52
5, 124960, Note_on_c, 9, 51, 63
5, 124964, Note_on_c, 9, 35, 45
5, 124988, Note_on_c, 9, 35, 0
5, 125036, Note_on_c, 9, 77, 23
5, 125056, Note_on_c, 9, 51, 0
5, 125068, Note_on_c, 9, 77, 0
5, 125116, Note_on_c, 9, 77, 50
5, 125148, Note_on_c, 9, 35, 61
5, 125184, Note_on_c, 9, 77, 0
5, 125192, Note_on_c, 9, 35, 0
5, 125296, Note_on_c, 9, 64, 0
5, 125340, Note_on_c, 9, 51, 47
5, 125348, Note_on_c, 9, 77, 39
5, 125372, Note_on_c, 9, 77, 0
5, 125396, Note_on_c, 9, 51, 0
5, 125532, Note_on_c, 9, 51, 59
5, 125532, Note_on_c, 9, 63, 47
5, 125632, Note_on_c, 9, 63, 0
5, 125648, Note_on_c, 9, 51, 0
5, 125724, Note_on_c, 9, 63, 62
5, 125728, Note_on_c, 9, 35, 43
5, 125744, Note_on_c, 9, 35, 0
5, 125916, Note_on_c, 9, 51, 51
5, 125916, Note_on_c, 9, 35, 62
5, 125952, Note_on_c, 9, 51, 0
5, 125972, Note_on_c, 9, 35, 0
5, 126108, Note_on_c, 9, 51, 68
5, 126176, Note_on_c, 9, 51, 0
5, 126204, Note_on_c, 9, 63, 0
5, 126300, Note_on_c, 9, 64, 32
5, 126388, Note_on_c, 9, 64, 0
5, 126492, Note_on_c, 9, 64, 46
5, 126496, Note_on_c, 9, 51, 71
5, 126500, Note_on_c, 9, 35, 37
5, 126536, Note_on_c, 9, 35, 0
5, 126588, Note_on_c, 9, 51, 0
5, 126652, Note_on_c, 9, 77, 26
5, 126684, Note_on_c, 9, 77, 0
5, 126684, Note_on_c, 9, 35, 54
5, 126772, Note_on_c, 9, 35, 0
5, 126804, Note_on_c, 9, 64, 0
5, 126876, Note_on_c, 9, 51, 73
5, 126880, Note_on_c, 9, 77, 58
5, 126900, Note_on_c, 9, 77, 0
5, 126932, Note_on_c, 9, 51, 0
5, 127068, Note_on_c, 9, 63, 43
5, 127072, Note_on_c, 9, 51, 60
5, 127144, Note_on_c, 9, 51, 0
5, 127180, Note_on_c, 9, 63, 0
5, 127260, Note_on_c, 9, 63, 56
5, 127264, Note_on_c, 9, 53, 71
5, 127268, Note_on_c, 9, 35, 44
5, 127316, Note_on_c, 9, 53, 0
5, 127332, Note_on_c, 9, 35, 0
5, 127452, Note_on_c, 9, 35, 64
5, 127452, Note_on_c, 9, 51, 45
5, 127464, Note_on_c, 9, 63, 0
5, 127500, Note_on_c, 9, 51, 0
5, 127584, Note_on_c, 9, 35, 0
5, 127644, Note_on_c, 9, 51, 56
5, 127700, Note_on_c, 9, 51, 0
5, 127836, Note_on_c, 9, 64, 48
5, 127836, Note_on_c, 9, 51, 56
5, 127904, Note_on_c, 9, 64, 0
5, 127936, Note_on_c, 9, 51, 0
5, 128028, Note_on_c, 9, 64, 54
5, 128032, Note_on_c, 9, 53, 83
5, 128036, Note_on_c, 9, 35, 48
5, 128036, Note_on_c, 9, 77, 34
5, 128060, Note_on_c, 9, 77, 0
5, 128068, Note_on_c, 9, 35, 0
5, 128124, Note_on_c, 9, 53, 0
5, 128152, Note_on_c, 9, 64, 0
5, 128220, Note_on_c, 9, 51, 45
5, 128220, Note_on_c, 9, 35, 60
5, 128232, Note_on_c, 9, 77, 33
5, 128268, Note_on_c, 9, 35, 0
5, 128272, Note_on_c, 9, 51, 0
5, 128276, Note_on_c, 9, 77, 0
5, 128412, Note_on_c, 9, 53, 81
5, 128420, Note_on_c, 9, 77, 37
5, 128448, Note_on_c, 9, 77, 0
5, 128512, Note_on_c, 9, 53, 0
5, 128604, Note_on_c, 9, 63, 48
5, 128604, Note_on_c, 9, 51, 40
5, 128612, Note_on_c, 9, 77, 33
5, 128640, Note_on_c, 9, 77, 0
5, 128704, Note_on_c, 9, 51, 0
5, 128708, Note_on_c, 9, 63, 0
5, 128796, Note_on_c, 9, 63, 54
5, 128800, Note_on_c, 9, 51, 49
5, 128804, Note_on_c, 9, 35, 53
5, 128828, Note_on_c, 9, 35, 0
5, 128864, Note_on_c, 9, 51, 0
5, 128972, Note_on_c, 9, 63, 0
5, 128988, Note_on_c, 9, 35, 65
5, 128988, Note_on_c, 9, 51, 59
5, 129044, Note_on_c, 9, 35, 0
5, 129104, Note_on_c, 9, 51, 0
5, 129180, Note_on_c, 9, 53, 71
5, 129264, Note_on_c, 9, 53, 0
5, 129372, Note_on_c, 9, 64, 40
5, 129372, Note_on_c, 9, 51, 49
5, 129436, Note_on_c, 9, 51, 0
5, 129472, Note_on_c, 9, 64, 0
5, 129564, Note_on_c, 9, 64, 49
5, 129568, Note_on_c, 9, 53, 72
5, 129572, Note_on_c, 9, 35, 39
5, 129604, Note_on_c, 9, 35, 0
5, 129608, Note_on_c, 9, 77, 25
5, 129632, Note_on_c, 9, 77, 0
5, 129676, Note_on_c, 9, 53, 0
5, 129724, Note_on_c, 9, 64, 0
5, 129756, Note_on_c, 9, 51, 57
5, 129756, Note_on_c, 9, 35, 51
5, 129820, Note_on_c, 9, 35, 0
5, 129868, Note_on_c, 9, 51, 0
5, 129948, Note_on_c, 9, 53, 74
5, 129960, Note_on_c, 9, 76, 21
5, 129984, Note_on_c, 9, 76, 0
5, 130052, Note_on_c, 9, 53, 0
5, 130056, Note_on_c, 9, 76, 28
5, 130072, Note_on_c, 9, 76, 0
5, 130108, Note_on_c, 9, 76, 28
5, 130140, Note_on_c, 9, 63, 54
5, 130140, Note_on_c, 9, 51, 52
5, 130164, Note_on_c, 9, 76, 0
5, 130176, Note_on_c, 9, 51, 0
5, 130252, Note_on_c, 9, 63, 0
5, 130332, Note_on_c, 9, 63, 44
5, 130336, Note_on_c, 9, 53, 75
5, 130340, Note_on_c, 9, 35, 52
5, 130352, Note_on_c, 9, 76, 59
5, 130372, Note_on_c, 9, 76, 0
5, 130400, Note_on_c, 9, 35, 0
5, 130416, Note_on_c, 9, 53, 0
5, 130480, Note_on_c, 9, 63, 0
5, 130524, Note_on_c, 9, 51, 69
5, 130524, Note_on_c, 9, 57, 71
5, 130532, Note_on_c, 9, 53, 57
5, 130536, Note_on_c, 9, 35, 65
5, 130572, Note_on_c, 9, 51, 0
5, 130588, Note_on_c, 9, 53, 0
5, 130624, Note_on_c, 9, 57, 0
5, 130636, Note_on_c, 9, 35, 0
5, 130716, Note_on_c, 9, 51, 46
5, 130816, Note_on_c, 9, 51, 0
5, 130908, Note_on_c, 9, 64, 45
5, 131008, Note_on_c, 9, 64, 0
5, 131100, Note_on_c, 9, 64, 49
5, 131104, Note_on_c, 9, 51, 72
5, 131108, Note_on_c, 9, 35, 48
5, 131124, Note_on_c, 9, 76, 15
5, 131144, Note_on_c, 9, 35, 0
5, 131148, Note_on_c, 9, 76, 0
5, 131216, Note_on_c, 9, 51, 0
5, 131236, Note_on_c, 9, 64, 0
5, 131292, Note_on_c, 9, 35, 53
5, 131356, Note_on_c, 9, 35, 0
5, 131484, Note_on_c, 9, 51, 47
5, 131552, Note_on_c, 9, 51, 0
5, 131676, Note_on_c, 9, 63, 57
5, 131676, Note_on_c, 9, 51, 63
5, 131776, Note_on_c, 9, 63, 0
5, 131788, Note_on_c, 9, 51, 0
5, 131868, Note_on_c, 9, 63, 55
5, 131872, Note_on_c, 9, 35, 28
5, 131948, Note_on_c, 9, 35, 0
5, 131968, Note_on_c, 9, 63, 0
5, 132060, Note_on_c, 9, 51, 62
5, 132060, Note_on_c, 9, 35, 44
5, 132068, Note_on_c, 9, 51, 0
5, 132228, Note_on_c, 9, 35, 0
5, 132252, Note_on_c, 9, 51, 61
5, 132284, Note_on_c, 9, 51, 0
5, 132444, Note_on_c, 9, 64, 41
5, 132520, Note_on_c, 9, 64, 0
5, 132636, Note_on_c, 9, 64, 58
5, 132640, Note_on_c, 9, 51, 63
5, 132644, Note_on_c, 9, 35, 54
5, 132680, Note_on_c, 9, 51, 0
5, 132692, Note_on_c, 9, 35, 0
5, 132788, Note_on_c, 9, 64, 0
5, 132828, Note_on_c, 9, 35, 45
5, 132936, Note_on_c, 9, 35, 0
5, 133020, Note_on_c, 9, 51, 57
5, 133088, Note_on_c, 9, 51, 0
5, 133212, Note_on_c, 9, 51, 27
5, 133212, Note_on_c, 9, 63, 54
5, 133300, Note_on_c, 9, 51, 0
5, 133312, Note_on_c, 9, 63, 0
5, 133404, Note_on_c, 9, 63, 53
5, 133412, Note_on_c, 9, 51, 57
5, 133472, Note_on_c, 9, 51, 0
5, 133516, Note_on_c, 9, 63, 0
5, 133596, Note_on_c, 9, 35, 68
5, 133596, Note_on_c, 9, 51, 77
5, 133728, Note_on_c, 9, 35, 0
5, 133752, Note_on_c, 9, 51, 0
5, 133980, Note_on_c, 9, 64, 49
5, 134056, Note_on_c, 9, 64, 0
5, 134172, Note_on_c, 9, 64, 51
5, 134176, Note_on_c, 9, 51, 68
5, 134180, Note_on_c, 9, 35, 49
5, 134228, Note_on_c, 9, 35, 0
5, 134252, Note_on_c, 9, 51, 0
5, 134288, Note_on_c, 9, 64, 0
5, 134364, Note_on_c, 9, 35, 47
5, 134464, Note_on_c, 9, 35, 0
5, 134556, Note_on_c, 9, 51, 46
5, 134600, Note_on_c, 9, 51, 0
5, 134748, Note_on_c, 9, 63, 52
5, 134860, Note_on_c, 9, 63, 0
5, 134940, Note_on_c, 9, 63, 50
5, 134944, Note_on_c, 9, 51, 53
5, 134948, Note_on_c, 9, 35, 51
5, 134960, Note_on_c, 9, 51, 0
5, 135008, Note_on_c, 9, 35, 0
5, 135056, Note_on_c, 9, 63, 0
5, 135132, Note_on_c, 9, 51, 69
5, 135132, Note_on_c, 9, 35, 50
5, 135264, Note_on_c, 9, 35, 0
5, 135276, Note_on_c, 9, 51, 0
5, 135516, Note_on_c, 9, 64, 53
5, 135516, Note_on_c, 9, 51, 36
5, 135524, Note_on_c, 9, 51, 0
5, 135616, Note_on_c, 9, 64, 0
5, 135708, Note_on_c, 9, 64, 60
5, 135712, Note_on_c, 9, 51, 69
5, 135716, Note_on_c, 9, 35, 52
5, 135776, Note_on_c, 9, 35, 0
5, 135820, Note_on_c, 9, 51, 0
5, 135824, Note_on_c, 9, 64, 0
5, 135900, Note_on_c, 9, 35, 65
5, 136000, Note_on_c, 9, 35, 0
5, 136056, Note_on_c, 9, 76, 41
5, 136084, Note_on_c, 9, 76, 0
5, 136092, Note_on_c, 9, 51, 42
5, 136132, Note_on_c, 9, 51, 0
5, 136268, Note_on_c, 9, 76, 44
5, 136284, Note_on_c, 9, 51, 47
5, 136284, Note_on_c, 9, 63, 51
5, 136292, Note_on_c, 9, 76, 0
5, 136320, Note_on_c, 9, 51, 0
5, 136396, Note_on_c, 9, 63, 0
5, 136464, Note_on_c, 9, 76, 35
5, 136476, Note_on_c, 9, 63, 62
5, 136480, Note_on_c, 9, 51, 50
5, 136480, Note_on_c, 9, 35, 53
5, 136496, Note_on_c, 9, 51, 0
5, 136496, Note_on_c, 9, 76, 0
5, 136516, Note_on_c, 9, 35, 0
5, 136600, Note_on_c, 9, 63, 0
5, 136668, Note_on_c, 9, 35, 53
5, 136668, Note_on_c, 9, 51, 70
5, 136676, Note_on_c, 9, 76, 36
5, 136692, Note_on_c, 9, 76, 0
5, 136772, Note_on_c, 9, 35, 0
5, 136812, Note_on_c, 9, 51, 0
5, 137052, Note_on_c, 9, 51, 33
5, 137052, Note_on_c, 9, 64, 36
5, 137088, Note_on_c, 9, 51, 0
5, 137128, Note_on_c, 9, 64, 0
5, 137240, Note_on_c, 9, 64, 49
5, 137244, Note_on_c, 9, 51, 73
5, 137248, Note_on_c, 9, 35, 38
5, 137300, Note_on_c, 9, 35, 0
5, 137340, Note_on_c, 9, 51, 0
5, 137380, Note_on_c, 9, 64, 0
5, 137436, Note_on_c, 9, 51, 70
5, 137436, Note_on_c, 9, 35, 68
5, 137540, Note_on_c, 9, 35, 0
5, 137592, Note_on_c, 9, 51, 0
5, 137820, Note_on_c, 9, 51, 23
5, 137820, Note_on_c, 9, 63, 60
5, 137856, Note_on_c, 9, 51, 0
5, 137936, Note_on_c, 9, 63, 0
5, 138012, Note_on_c, 9, 63, 60
5, 138016, Note_on_c, 9, 51, 74
5, 138020, Note_on_c, 9, 35, 37
5, 138056, Note_on_c, 9, 35, 0
5, 138128, Note_on_c, 9, 51, 0
5, 138148, Note_on_c, 9, 63, 0
5, 138204, Note_on_c, 9, 35, 58
5, 138304, Note_on_c, 9, 35, 0
5, 138396, Note_on_c, 9, 51, 64
5, 138480, Note_on_c, 9, 51, 0
5, 138588, Note_on_c, 9, 64, 48
5, 138656, Note_on_c, 9, 64, 0
5, 138780, Note_on_c, 9, 64, 48
5, 138788, Note_on_c, 9, 35, 50
5, 138788, Note_on_c, 9, 51, 53
5, 138824, Note_on_c, 9, 35, 0
5, 138848, Note_on_c, 9, 51, 0
5, 138876, Note_on_c, 9, 64, 0
5, 138972, Note_on_c, 9, 51, 67
5, 138972, Note_on_c, 9, 35, 58
5, 139036, Note_on_c, 9, 35, 0
5, 139140, Note_on_c, 9, 51, 0
5, 139272, Note_on_c, 9, 76, 21
5, 139356, Note_on_c, 9, 76, 0
5, 139356, Note_on_c, 9, 63, 59
5, 139360, Note_on_c, 9, 51, 48
5, 139404, Note_on_c, 9, 51, 0
5, 139420, Note_on_c, 9, 76, 24
5, 139456, Note_on_c, 9, 76, 0
5, 139460, Note_on_c, 9, 63, 0
5, 139548, Note_on_c, 9, 63, 45
5, 139552, Note_on_c, 9, 51, 45
5, 139556, Note_on_c, 9, 35, 42
5, 139580, Note_on_c, 9, 76, 50
5, 139604, Note_on_c, 9, 51, 0
5, 139616, Note_on_c, 9, 76, 0
5, 139628, Note_on_c, 9, 35, 0
5, 139636, Note_on_c, 9, 63, 0
5, 139740, Note_on_c, 9, 51, 70
5, 139740, Note_on_c, 9, 35, 60
5, 139764, Note_on_c, 9, 76, 39
5, 139792, Note_on_c, 9, 76, 0
5, 139884, Note_on_c, 9, 35, 0
5, 139892, Note_on_c, 9, 51, 0
5, 140124, Note_on_c, 9, 64, 46
5, 140160, Note_on_c, 9, 64, 0
5, 140316, Note_on_c, 9, 64, 52
5, 140320, Note_on_c, 9, 51, 74
5, 140324, Note_on_c, 9, 35, 44
5, 140348, Note_on_c, 9, 35, 0
5, 140384, Note_on_c, 9, 64, 0
5, 140492, Note_on_c, 9, 51, 0
5, 140508, Note_on_c, 9, 35, 64
5, 140584, Note_on_c, 9, 35, 0
5, 140700, Note_on_c, 9, 51, 49
5, 140768, Note_on_c, 9, 51, 0
5, 140892, Note_on_c, 9, 63, 58
5, 140892, Note_on_c, 9, 51, 52
5, 140992, Note_on_c, 9, 51, 0
5, 141004, Note_on_c, 9, 63, 0
5, 141084, Note_on_c, 9, 63, 50
5, 141088, Note_on_c, 9, 53, 71
5, 141092, Note_on_c, 9, 35, 42
5, 141128, Note_on_c, 9, 35, 0
5, 141172, Note_on_c, 9, 53, 0
5, 141200, Note_on_c, 9, 63, 0
5, 141276, Note_on_c, 9, 51, 25
5, 141276, Note_on_c, 9, 35, 60
5, 141352, Note_on_c, 9, 51, 0
5, 141380, Note_on_c, 9, 35, 0
5, 141468, Note_on_c, 9, 53, 77
5, 141584, Note_on_c, 9, 53, 0
5, 141660, Note_on_c, 9, 51, 36
5, 141660, Note_on_c, 9, 64, 49
5, 141724, Note_on_c, 9, 64, 0
5, 141760, Note_on_c, 9, 51, 0
5, 141852, Note_on_c, 9, 64, 49
5, 141860, Note_on_c, 9, 35, 42
5, 141860, Note_on_c, 9, 53, 69
5, 141896, Note_on_c, 9, 64, 0
5, 141908, Note_on_c, 9, 35, 0
5, 141964, Note_on_c, 9, 53, 0
5, 142044, Note_on_c, 9, 51, 40
5, 142044, Note_on_c, 9, 35, 64
5, 142144, Note_on_c, 9, 35, 0
5, 142156, Note_on_c, 9, 51, 0
5, 142236, Note_on_c, 9, 53, 74
5, 142336, Note_on_c, 9, 53, 0
5, 142428, Note_on_c, 9, 63, 61
5, 142428, Note_on_c, 9, 51, 32
5, 142504, Note_on_c, 9, 51, 0
5, 142516, Note_on_c, 9, 63, 0
5, 142620, Note_on_c, 9, 63, 55
5, 142624, Note_on_c, 9, 53, 64
5, 142628, Note_on_c, 9, 35, 46
5, 142644, Note_on_c, 9, 35, 0
5, 142688, Note_on_c, 9, 63, 0
5, 142700, Note_on_c, 9, 53, 0
5, 142804, Note_on_c, 9, 77, 36
5, 142812, Note_on_c, 9, 51, 64
5, 142812, Note_on_c, 9, 35, 66
5, 142848, Note_on_c, 9, 77, 0
5, 142900, Note_on_c, 9, 35, 0
5, 142960, Note_on_c, 9, 51, 0
5, 143196, Note_on_c, 9, 37, 25
5, 143272, Note_on_c, 9, 37, 0
5, 143392, Note_on_c, 9, 37, 30
5, 143396, Note_on_c, 9, 51, 49
5, 143396, Note_on_c, 9, 35, 34
5, 143412, Note_on_c, 9, 77, 35
5, 143432, Note_on_c, 9, 51, 0
5, 143444, Note_on_c, 9, 35, 0
5, 143456, Note_on_c, 9, 37, 0
5, 143456, Note_on_c, 9, 77, 0
5, 143580, Note_on_c, 9, 51, 60
5, 143580, Note_on_c, 9, 35, 69
5, 143692, Note_on_c, 9, 35, 0
5, 143724, Note_on_c, 9, 51, 0
5, 143964, Note_on_c, 9, 37, 33
5, 144064, Note_on_c, 9, 37, 0
5, 144156, Note_on_c, 9, 37, 26
5, 144160, Note_on_c, 9, 51, 55
5, 144164, Note_on_c, 9, 35, 46
5, 144164, Note_on_c, 9, 77, 29
5, 144200, Note_on_c, 9, 77, 0
5, 144236, Note_on_c, 9, 51, 0
5, 144240, Note_on_c, 9, 37, 0
5, 144244, Note_on_c, 9, 35, 0
5, 144348, Note_on_c, 9, 51, 57
5, 144348, Note_on_c, 9, 35, 59
5, 144352, Note_on_c, 9, 77, 27
5, 144400, Note_on_c, 9, 77, 0
5, 144424, Note_on_c, 9, 51, 0
5, 144464, Note_on_c, 9, 35, 0
5, 144540, Note_on_c, 9, 51, 53
5, 144608, Note_on_c, 9, 51, 0
5, 144732, Note_on_c, 9, 51, 20
5, 144732, Note_on_c, 9, 37, 33
5, 144820, Note_on_c, 9, 37, 0
5, 144820, Note_on_c, 9, 51, 0
5, 144924, Note_on_c, 9, 37, 27
5, 144932, Note_on_c, 9, 51, 77
5, 144932, Note_on_c, 9, 35, 24
5, 144944, Note_on_c, 9, 77, 18
5, 144980, Note_on_c, 9, 77, 0
5, 144992, Note_on_c, 9, 35, 0
5, 145012, Note_on_c, 9, 37, 0
5, 145036, Note_on_c, 9, 51, 0
5, 145116, Note_on_c, 9, 51, 65
5, 145116, Note_on_c, 9, 35, 71
5, 145124, Note_on_c, 9, 77, 26
5, 145168, Note_on_c, 9, 77, 0
5, 145216, Note_on_c, 9, 51, 0
5, 145284, Note_on_c, 9, 35, 0
5, 145500, Note_on_c, 9, 37, 28
5, 145576, Note_on_c, 9, 37, 0
5, 145680, Note_on_c, 9, 77, 36
5, 145692, Note_on_c, 9, 37, 35
5, 145696, Note_on_c, 9, 53, 33
5, 145700, Note_on_c, 9, 35, 53
5, 145716, Note_on_c, 9, 77, 0
5, 145748, Note_on_c, 9, 35, 0
5, 145788, Note_on_c, 9, 37, 0
5, 145808, Note_on_c, 9, 53, 0
5, 145884, Note_on_c, 9, 35, 66
5, 145884, Note_on_c, 9, 51, 62
5, 145984, Note_on_c, 9, 51, 0
5, 145984, Note_on_c, 9, 35, 0
5, 146268, Note_on_c, 9, 37, 30
5, 146368, Note_on_c, 9, 37, 0
5, 146460, Note_on_c, 9, 37, 31
5, 146464, Note_on_c, 9, 51, 57
5, 146468, Note_on_c, 9, 35, 45
5, 146484, Note_on_c, 9, 77, 31
5, 146504, Note_on_c, 9, 35, 0
5, 146528, Note_on_c, 9, 51, 0
5, 146540, Note_on_c, 9, 77, 0
5, 146556, Note_on_c, 9, 37, 0
5, 146652, Note_on_c, 9, 35, 60
5, 146652, Note_on_c, 9, 77, 34
5, 146740, Note_on_c, 9, 35, 0
5, 146752, Note_on_c, 9, 77, 0
5, 146844, Note_on_c, 9, 51, 61
5, 146900, Note_on_c, 9, 51, 0
5, 147036, Note_on_c, 9, 37, 33
5, 147112, Note_on_c, 9, 37, 0
5, 147228, Note_on_c, 9, 37, 39
5, 147232, Note_on_c, 9, 51, 56
5, 147236, Note_on_c, 9, 35, 47
5, 147244, Note_on_c, 9, 35, 0
5, 147260, Note_on_c, 9, 77, 34
5, 147296, Note_on_c, 9, 77, 0
5, 147312, Note_on_c, 9, 51, 0
5, 147324, Note_on_c, 9, 37, 0
5, 147420, Note_on_c, 9, 35, 64
5, 147420, Note_on_c, 9, 51, 60
5, 147496, Note_on_c, 9, 35, 0
5, 147532, Note_on_c, 9, 51, 0
5, 147612, Note_on_c, 9, 53, 67
5, 147680, Note_on_c, 9, 53, 0
5, 147804, Note_on_c, 9, 37, 33
5, 147856, Note_on_c, 9, 37, 0
5, 147996, Note_on_c, 9, 37, 39
5, 148000, Note_on_c, 9, 53, 82
5, 148004, Note_on_c, 9, 35, 41
5, 148016, Note_on_c, 9, 35, 0
5, 148076, Note_on_c, 9, 37, 0
5, 148120, Note_on_c, 9, 53, 0
5, 148188, Note_on_c, 9, 35, 60
5, 148252, Note_on_c, 9, 35, 0
5, 148380, Note_on_c, 9, 53, 83
5, 148496, Note_on_c, 9, 53, 0
5, 148572, Note_on_c, 9, 37, 34
5, 148572, Note_on_c, 9, 51, 46
5, 148640, Note_on_c, 9, 37, 0
5, 148660, Note_on_c, 9, 51, 0
5, 148764, Note_on_c, 9, 37, 42
5, 148768, Note_on_c, 9, 53, 74
5, 148772, Note_on_c, 9, 35, 44
5, 148788, Note_on_c, 9, 35, 0
5, 148808, Note_on_c, 9, 77, 23
5, 148844, Note_on_c, 9, 77, 0
5, 148860, Note_on_c, 9, 53, 0
5, 148876, Note_on_c, 9, 37, 0
5, 148884, Note_on_c, 9, 77, 25
5, 148916, Note_on_c, 9, 77, 0
5, 148956, Note_on_c, 9, 35, 68
5, 148956, Note_on_c, 9, 51, 52
5, 148968, Note_on_c, 9, 77, 46
5, 149024, Note_on_c, 9, 77, 0
5, 149068, Note_on_c, 9, 35, 0
5, 149084, Note_on_c, 9, 51, 0
5, 149180, Note_on_c, 9, 77, 36
5, 149216, Note_on_c, 9, 77, 0
5, 149340, Note_on_c, 9, 37, 35
5, 149364, Note_on_c, 9, 77, 45
5, 149392, Note_on_c, 9, 77, 0
5, 149440, Note_on_c, 9, 37, 0
5, 149532, Note_on_c, 9, 37, 37
5, 149536, Note_on_c, 9, 51, 55
5, 149540, Note_on_c, 9, 35, 47
5, 149556, Note_on_c, 9, 35, 0
5, 149588, Note_on_c, 9, 51, 0
5, 149644, Note_on_c, 9, 37, 0
5, 149724, Note_on_c, 9, 51, 71
5, 149724, Note_on_c, 9, 35, 62
5, 149824, Note_on_c, 9, 35, 0
5, 149856, Note_on_c, 9, 51, 0
5, 150108, Note_on_c, 9, 37, 37
5, 150208, Note_on_c, 9, 37, 0
5, 150300, Note_on_c, 9, 37, 35
5, 150308, Note_on_c, 9, 35, 47
5, 150308, Note_on_c, 9, 51, 47
5, 150344, Note_on_c, 9, 35, 0
5, 150348, Note_on_c, 9, 51, 0
5, 150396, Note_on_c, 9, 37, 0
5, 150492, Note_on_c, 9, 35, 62
5, 150492, Note_on_c, 9, 51, 64
5, 150592, Note_on_c, 9, 35, 0
5, 150648, Note_on_c, 9, 51, 0
5, 150876, Note_on_c, 9, 37, 29
5, 150988, Note_on_c, 9, 37, 0
5, 151068, Note_on_c, 9, 37, 28
5, 151072, Note_on_c, 9, 51, 64
5, 151076, Note_on_c, 9, 35, 56
5, 151108, Note_on_c, 9, 35, 0
5, 151108, Note_on_c, 9, 51, 0
5, 151168, Note_on_c, 9, 37, 0
5, 151260, Note_on_c, 9, 51, 55
5, 151260, Note_on_c, 9, 35, 60
5, 151360, Note_on_c, 9, 35, 0
5, 151372, Note_on_c, 9, 51, 0
5, 151640, Note_on_c, 9, 37, 21
5, 151720, Note_on_c, 9, 37, 0
5, 151836, Note_on_c, 9, 37, 27
5, 151840, Note_on_c, 9, 51, 73
5, 151844, Note_on_c, 9, 35, 28
5, 151852, Note_on_c, 9, 35, 0
5, 151932, Note_on_c, 9, 51, 0
5, 152004, Note_on_c, 9, 37, 0
5, 152028, Note_on_c, 9, 35, 55
5, 152156, Note_on_c, 9, 35, 0
5, 152220, Note_on_c, 9, 51, 57
5, 152276, Note_on_c, 9, 51, 0
5, 152412, Note_on_c, 9, 37, 24
5, 152524, Note_on_c, 9, 37, 0
5, 152604, Note_on_c, 9, 37, 38
5, 152608, Note_on_c, 9, 51, 62
5, 152612, Note_on_c, 9, 35, 20
5, 152648, Note_on_c, 9, 51, 0
5, 152660, Note_on_c, 9, 35, 0
5, 152788, Note_on_c, 9, 37, 0
5, 152796, Note_on_c, 9, 51, 56
5, 152796, Note_on_c, 9, 35, 68
5, 152808, Note_on_c, 9, 77, 31
5, 152844, Note_on_c, 9, 77, 0
5, 152944, Note_on_c, 9, 51, 0
5, 152952, Note_on_c, 9, 35, 0
5, 153180, Note_on_c, 9, 37, 30
5, 153180, Note_on_c, 9, 51, 64
5, 153216, Note_on_c, 9, 51, 0
5, 153268, Note_on_c, 9, 37, 0
5, 153372, Note_on_c, 9, 37, 38
5, 153376, Note_on_c, 9, 51, 58
5, 153380, Note_on_c, 9, 35, 45
5, 153444, Note_on_c, 9, 51, 0
5, 153452, Note_on_c, 9, 35, 0
5, 153496, Note_on_c, 9, 37, 0
5, 153564, Note_on_c, 9, 51, 71
5, 153564, Note_on_c, 9, 35, 57
5, 153708, Note_on_c, 9, 51, 0
5, 153780, Note_on_c, 9, 35, 0
5, 153948, Note_on_c, 9, 37, 25
5, 154012, Note_on_c, 9, 37, 0
5, 154140, Note_on_c, 9, 37, 42
5, 154144, Note_on_c, 9, 51, 72
5, 154148, Note_on_c, 9, 35, 47
5, 154172, Note_on_c, 9, 35, 0
5, 154236, Note_on_c, 9, 51, 0
5, 154256, Note_on_c, 9, 37, 0
5, 154332, Note_on_c, 9, 35, 65
5, 154464, Note_on_c, 9, 35, 0
5, 154524, Note_on_c, 9, 51, 45
5, 154564, Note_on_c, 9, 51, 0
5, 154716, Note_on_c, 9, 51, 55
5, 154716, Note_on_c, 9, 37, 36
5, 154784, Note_on_c, 9, 51, 0
5, 154804, Note_on_c, 9, 37, 0
5, 154908, Note_on_c, 9, 37, 37
5, 154912, Note_on_c, 9, 35, 50
5, 154964, Note_on_c, 9, 35, 0
5, 155008, Note_on_c, 9, 37, 0
5, 155100, Note_on_c, 9, 35, 62
5, 155244, Note_on_c, 9, 35, 0
5, 155292, Note_on_c, 9, 51, 53
5, 155324, Note_on_c, 9, 51, 0
5, 155484, Note_on_c, 9, 37, 35
5, 155484, Note_on_c, 9, 51, 35
5, 155520, Note_on_c, 9, 51, 0
5, 155584, Note_on_c, 9, 37, 0
5, 155676, Note_on_c, 9, 37, 37
5, 155680, Note_on_c, 9, 51, 56
5, 155684, Note_on_c, 9, 35, 31
5, 155732, Note_on_c, 9, 51, 0
5, 155744, Note_on_c, 9, 35, 0
5, 155812, Note_on_c, 9, 37, 0
5, 155868, Note_on_c, 9, 51, 77
5, 155868, Note_on_c, 9, 35, 67
5, 156000, Note_on_c, 9, 51, 0
5, 156016, Note_on_c, 9, 35, 0
5, 156148, Note_on_c, 9, 76, 15
5, 156228, Note_on_c, 9, 76, 0
5, 156252, Note_on_c, 9, 37, 40
5, 156340, Note_on_c, 9, 37, 0
5, 156444, Note_on_c, 9, 37, 37
5, 156448, Note_on_c, 9, 51, 71
5, 156452, Note_on_c, 9, 35, 45
5, 156468, Note_on_c, 9, 35, 0
5, 156540, Note_on_c, 9, 51, 0
5, 156580, Note_on_c, 9, 37, 0
5, 156636, Note_on_c, 9, 35, 62
5, 156772, Note_on_c, 9, 35, 0
5, 156828, Note_on_c, 9, 51, 40
5, 156864, Note_on_c, 9, 51, 0
5, 156924, Note_on_c, 9, 76, 22
5, 156964, Note_on_c, 9, 76, 0
5, 156984, Note_on_c, 9, 76, 20
5, 157020, Note_on_c, 9, 37, 36
5, 157044, Note_on_c, 9, 76, 0
5, 157152, Note_on_c, 9, 37, 0
5, 157200, Note_on_c, 9, 76, 51
5, 157212, Note_on_c, 9, 37, 34
5, 157216, Note_on_c, 9, 51, 47
5, 157216, Note_on_c, 9, 35, 37
5, 157232, Note_on_c, 9, 76, 0
5, 157292, Note_on_c, 9, 51, 0
5, 157300, Note_on_c, 9, 35, 0
5, 157360, Note_on_c, 9, 37, 0
5, 157404, Note_on_c, 9, 35, 62
5, 157560, Note_on_c, 9, 35, 0
5, 157572, Note_on_c, 9, 76, 20
5, 157596, Note_on_c, 9, 51, 63
5, 157604, Note_on_c, 9, 76, 0
5, 157664, Note_on_c, 9, 76, 45
5, 157684, Note_on_c, 9, 76, 0
5, 157708, Note_on_c, 9, 51, 0
5, 157748, Note_on_c, 9, 76, 15
5, 157772, Note_on_c, 9, 76, 0
5, 157788, Note_on_c, 9, 37, 39
5, 157788, Note_on_c, 9, 51, 23
5, 157876, Note_on_c, 9, 51, 0
5, 157920, Note_on_c, 9, 37, 0
5, 157980, Note_on_c, 9, 37, 30
5, 157988, Note_on_c, 9, 35, 48
5, 157988, Note_on_c, 9, 51, 26
5, 157988, Note_on_c, 9, 76, 52
5, 158004, Note_on_c, 9, 76, 0
5, 158012, Note_on_c, 9, 35, 0
5, 158076, Note_on_c, 9, 51, 0
5, 158132, Note_on_c, 9, 37, 0
5, 158172, Note_on_c, 9, 51, 73
5, 158172, Note_on_c, 9, 35, 63
5, 158300, Note_on_c, 9, 35, 0
5, 158316, Note_on_c, 9, 51, 0
5, 158396, Note_on_c, 9, 76, 18
5, 158524, Note_on_c, 9, 76, 0
5, 158556, Note_on_c, 9, 37, 40
5, 158656, Note_on_c, 9, 37, 0
5, 158724, Note_on_c, 9, 76, 47
5, 158752, Note_on_c, 9, 35, 42
5, 158752, Note_on_c, 9, 51, 67
5, 158752, Note_on_c, 9, 37, 31
5, 158768, Note_on_c, 9, 35, 0
5, 158768, Note_on_c, 9, 76, 0
5, 158860, Note_on_c, 9, 51, 0
5, 158868, Note_on_c, 9, 37, 0
5, 158940, Note_on_c, 9, 35, 64
5, 158940, Note_on_c, 9, 76, 30
5, 158964, Note_on_c, 9, 76, 0
5, 159040, Note_on_c, 9, 35, 0
5, 159120, Note_on_c, 9, 76, 35
5, 159132, Note_on_c, 9, 51, 62
5, 159148, Note_on_c, 9, 76, 0
5, 159200, Note_on_c, 9, 51, 0
5, 159324, Note_on_c, 9, 37, 34
5, 159336, Note_on_c, 9, 76, 18
5, 159360, Note_on_c, 9, 76, 0
5, 159436, Note_on_c, 9, 37, 0
5, 159520, Note_on_c, 9, 37, 38
5, 159520, Note_on_c, 9, 57, 74
5, 159520, Note_on_c, 9, 53, 84
5, 159524, Note_on_c, 9, 51, 50
5, 159536, Note_on_c, 9, 35, 44
5, 159536, Note_on_c, 9, 76, 36
5, 159552, Note_on_c, 9, 35, 0
5, 159552, Note_on_c, 9, 51, 0
5, 159556, Note_on_c, 9, 76, 0
5, 159584, Note_on_c, 9, 57, 0
5, 159584, Note_on_c, 9, 53, 0
5, 159604, Note_on_c, 9, 37, 0
5, 159708, Note_on_c, 9, 35, 61
5, 159708, Note_on_c, 9, 51, 61
5, 159784, Note_on_c, 9, 35, 0
5, 159796, Note_on_c, 9, 51, 0
5, 160092, Note_on_c, 9, 51, 31
5, 160092, Note_on_c, 9, 64, 44
5, 160116, Note_on_c, 9, 64, 0
5, 160116, Note_on_c, 9, 51, 0
5, 160284, Note_on_c, 9, 64, 49
5, 160292, Note_on_c, 9, 35, 42
5, 160292, Note_on_c, 9, 35, 0
5, 160292, Note_on_c, 9, 51, 33
5, 160324, Note_on_c, 9, 64, 0
5, 160356, Note_on_c, 9, 51, 0
5, 160476, Note_on_c, 9, 35, 59
5, 160476, Note_on_c, 9, 51, 65
5, 160488, Note_on_c, 9, 77, 46
5, 160540, Note_on_c, 9, 35, 0
5, 160576, Note_on_c, 9, 77, 0
5, 160608, Note_on_c, 9, 51, 0
5, 160860, Note_on_c, 9, 63, 44
5, 160860, Note_on_c, 9, 51, 46
5, 160864, Note_on_c, 9, 51, 0
5, 160960, Note_on_c, 9, 63, 0
5, 161052, Note_on_c, 9, 63, 53
5, 161056, Note_on_c, 9, 51, 73
5, 161060, Note_on_c, 9, 35, 42
5, 161060, Note_on_c, 9, 35, 0
5, 161060, Note_on_c, 9, 77, 49
5, 161108, Note_on_c, 9, 77, 0
5, 161140, Note_on_c, 9, 51, 0
5, 161188, Note_on_c, 9, 63, 0
5, 161244, Note_on_c, 9, 35, 58
5, 161356, Note_on_c, 9, 35, 0
5, 161436, Note_on_c, 9, 51, 70
5, 161504, Note_on_c, 9, 51, 0
5, 161628, Note_on_c, 9, 64, 38
5, 161704, Note_on_c, 9, 64, 0
5, 161820, Note_on_c, 9, 64, 50
5, 161824, Note_on_c, 9, 51, 68
5, 161828, Note_on_c, 9, 35, 43
5, 161844, Note_on_c, 9, 35, 0
5, 161876, Note_on_c, 9, 51, 0
5, 161916, Note_on_c, 9, 64, 0
5, 162012, Note_on_c, 9, 51, 57
5, 162012, Note_on_c, 9, 35, 60
5, 162112, Note_on_c, 9, 35, 0
5, 162140, Note_on_c, 9, 51, 0
5, 162204, Note_on_c, 9, 53, 70
5, 162308, Note_on_c, 9, 53, 0
5, 162396, Note_on_c, 9, 63, 32
5, 162396, Note_on_c, 9, 51, 26
5, 162400, Note_on_c, 9, 77, 29
5, 162448, Note_on_c, 9, 63, 0
5, 162472, Note_on_c, 9, 77, 0
5, 162496, Note_on_c, 9, 51, 0
5, 162588, Note_on_c, 9, 63, 78
5, 162592, Note_on_c, 9, 53, 79
5, 162596, Note_on_c, 9, 35, 34
5, 162604, Note_on_c, 9, 77, 82
5, 162628, Note_on_c, 9, 35, 0
5, 162668, Note_on_c, 9, 53, 0
5, 162704, Note_on_c, 9, 77, 0
5, 162748, Note_on_c, 9, 63, 0
5, 162780, Note_on_c, 9, 51, 47
5, 162780, Note_on_c, 9, 35, 64
5, 162792, Note_on_c, 9, 77, 23
5, 162828, Note_on_c, 9, 77, 0
5, 162960, Note_on_c, 9, 35, 0
5, 162972, Note_on_c, 9, 64, 56
5, 162980, Note_on_c, 9, 77, 36
5, 163004, Note_on_c, 9, 51, 0
5, 163044, Note_on_c, 9, 64, 0
5, 163068, Note_on_c, 9, 77, 0
5, 163164, Note_on_c, 9, 51, 37
5, 163164, Note_on_c, 9, 64, 64
5, 163176, Note_on_c, 9, 77, 26
5, 163228, Note_on_c, 9, 51, 0
5, 163232, Note_on_c, 9, 77, 0
5, 163236, Note_on_c, 9, 64, 0
5, 163356, Note_on_c, 9, 64, 79
5, 163360, Note_on_c, 9, 51, 62
5, 163412, Note_on_c, 9, 51, 0
5, 163548, Note_on_c, 9, 51, 68
5, 163548, Note_on_c, 9, 35, 64
5, 163584, Note_on_c, 9, 64, 0
5, 163704, Note_on_c, 9, 35, 0
5, 163740, Note_on_c, 9, 51, 0
5, 163748, Note_on_c, 9, 77, 36
5, 163780, Note_on_c, 9, 77, 0
5, 163932, Note_on_c, 9, 51, 47
5, 163932, Note_on_c, 9, 63, 51
5, 163980, Note_on_c, 9, 51, 0
5, 164000, Note_on_c, 9, 63, 0
5, 164128, Note_on_c, 9, 63, 68
5, 164128, Note_on_c, 9, 51, 74
5, 164132, Note_on_c, 9, 35, 40
5, 164164, Note_on_c, 9, 35, 0
5, 164224, Note_on_c, 9, 63, 0
5, 164276, Note_on_c, 9, 51, 0
5, 164316, Note_on_c, 9, 35, 60
5, 164464, Note_on_c, 9, 35, 0
5, 164508, Note_on_c, 9, 51, 71
5, 164608, Note_on_c, 9, 51, 0
5, 164892, Note_on_c, 9, 64, 63
5, 164896, Note_on_c, 9, 51, 39
5, 164900, Note_on_c, 9, 35, 48
5, 164916, Note_on_c, 9, 35, 0
5, 164960, Note_on_c, 9, 51, 0
5, 165084, Note_on_c, 9, 51, 80
5, 165084, Note_on_c, 9, 35, 66
5, 165200, Note_on_c, 9, 35, 0
5, 165240, Note_on_c, 9, 64, 0
5, 165252, Note_on_c, 9, 51, 0
5, 165424, Note_on_c, 9, 76, 15
5, 165468, Note_on_c, 9, 63, 38
5, 165468, Note_on_c, 9, 51, 33
5, 165504, Note_on_c, 9, 76, 0
5, 165508, Note_on_c, 9, 51, 0
5, 165536, Note_on_c, 9, 63, 0
5, 165648, Note_on_c, 9, 76, 53
5, 165660, Note_on_c, 9, 63, 74
5, 165664, Note_on_c, 9, 51, 69
5, 165668, Note_on_c, 9, 35, 44
5, 165684, Note_on_c, 9, 76, 0
5, 165704, Note_on_c, 9, 35, 0
5, 165824, Note_on_c, 9, 63, 0
5, 165852, Note_on_c, 9, 35, 63
5, 165852, Note_on_c, 9, 77, 37
5, 165888, Note_on_c, 9, 77, 0
5, 165888, Note_on_c, 9, 51, 0
5, 165996, Note_on_c, 9, 35, 0
5, 166044, Note_on_c, 9, 51, 62
5, 166124, Note_on_c, 9, 51, 0
5, 166416, Note_on_c, 9, 77, 49
5, 166428, Note_on_c, 9, 64, 64
5, 166432, Note_on_c, 9, 35, 28
5, 166432, Note_on_c, 9, 51, 57
5, 166448, Note_on_c, 9, 77, 0
5, 166460, Note_on_c, 9, 51, 0
5, 166468, Note_on_c, 9, 35, 0
5, 166576, Note_on_c, 9, 64, 0
5, 166616, Note_on_c, 9, 51, 68
5, 166624, Note_on_c, 9, 35, 62
5, 166772, Note_on_c, 9, 35, 0
5, 166776, Note_on_c, 9, 51, 0
5, 167004, Note_on_c, 9, 63, 20
5, 167052, Note_on_c, 9, 63, 0
5, 167196, Note_on_c, 9, 63, 73
5, 167200, Note_on_c, 9, 51, 42
5, 167204, Note_on_c, 9, 35, 37
5, 167208, Note_on_c, 9, 35, 0
5, 167228, Note_on_c, 9, 51, 0
5, 167360, Note_on_c, 9, 63, 0
5, 167388, Note_on_c, 9, 35, 62
5, 167388, Note_on_c, 9, 51, 73
5, 167476, Note_on_c, 9, 35, 0
5, 167616, Note_on_c, 9, 51, 0
5, 167684, Note_on_c, 9, 76, 16
5, 167716, Note_on_c, 9, 76, 0
5, 167744, Note_on_c, 9, 76, 23
5, 167776, Note_on_c, 9, 76, 0
5, 167952, Note_on_c, 9, 76, 45
5, 167968, Note_on_c, 9, 64, 65
5, 167968, Note_on_c, 9, 35, 44
5, 167968, Note_on_c, 9, 51, 48
5, 167972, Note_on_c, 9, 35, 0
5, 167980, Note_on_c, 9, 76, 0
5, 168020, Note_on_c, 9, 51, 0
5, 168156, Note_on_c, 9, 35, 64
5, 168232, Note_on_c, 9, 35, 0
5, 168268, Note_on_c, 9, 64, 0
5, 168348, Note_on_c, 9, 51, 62
5, 168356, Note_on_c, 9, 76, 16
5, 168372, Note_on_c, 9, 76, 0
5, 168416, Note_on_c, 9, 51, 0
5, 168416, Note_on_c, 9, 76, 28
5, 168460, Note_on_c, 9, 76, 0
5, 168496, Note_on_c, 9, 76, 31
5, 168516, Note_on_c, 9, 76, 0
5, 168540, Note_on_c, 9, 63, 35
5, 168576, Note_on_c, 9, 63, 0
5, 168732, Note_on_c, 9, 63, 74
5, 168736, Note_on_c, 9, 51, 64
5, 168740, Note_on_c, 9, 35, 35
5, 168788, Note_on_c, 9, 51, 0
5, 168812, Note_on_c, 9, 35, 0
5, 168900, Note_on_c, 9, 63, 0
5, 168924, Note_on_c, 9, 35, 65
5, 169116, Note_on_c, 9, 51, 64
5, 169148, Note_on_c, 9, 35, 0
5, 169184, Note_on_c, 9, 51, 0
5, 169308, Note_on_c, 9, 64, 39
5, 169344, Note_on_c, 9, 64, 0
5, 169500, Note_on_c, 9, 64, 66
5, 169504, Note_on_c, 9, 51, 51
5, 169508, Note_on_c, 9, 35, 43
5, 169544, Note_on_c, 9, 51, 0
5, 169548, Note_on_c, 9, 35, 0
5, 169648, Note_on_c, 9, 64, 0
5, 169692, Note_on_c, 9, 35, 60
5, 169692, Note_on_c, 9, 51, 71
5, 169804, Note_on_c, 9, 35, 0
5, 169860, Note_on_c, 9, 51, 0
5, 169884, Note_on_c, 9, 76, 36
5, 169904, Note_on_c, 9, 76, 0
5, 170076, Note_on_c, 9, 63, 45
5, 170076, Note_on_c, 9, 51, 44
5, 170084, Note_on_c, 9, 76, 23
5, 170112, Note_on_c, 9, 76, 0
5, 170124, Note_on_c, 9, 51, 0
5, 170128, Note_on_c, 9, 63, 0
5, 170268, Note_on_c, 9, 63, 54
5, 170272, Note_on_c, 9, 51, 71
5, 170276, Note_on_c, 9, 35, 45
5, 170288, Note_on_c, 9, 35, 0
5, 170288, Note_on_c, 9, 76, 57
5, 170308, Note_on_c, 9, 76, 0
5, 170460, Note_on_c, 9, 35, 57
5, 170560, Note_on_c, 9, 35, 0
5, 170608, Note_on_c, 9, 51, 0
5, 170652, Note_on_c, 9, 53, 54
5, 170756, Note_on_c, 9, 53, 0
5, 170768, Note_on_c, 9, 63, 0
5, 170844, Note_on_c, 9, 64, 42
5, 170844, Note_on_c, 9, 51, 34
5, 170880, Note_on_c, 9, 64, 0
5, 170896, Note_on_c, 9, 51, 0
5, 171036, Note_on_c, 9, 64, 43
5, 171040, Note_on_c, 9, 53, 72
5, 171044, Note_on_c, 9, 35, 44
5, 171048, Note_on_c, 9, 35, 0
5, 171060, Note_on_c, 9, 76, 63
5, 171092, Note_on_c, 9, 64, 0
5, 171104, Note_on_c, 9, 76, 0
5, 171116, Note_on_c, 9, 53, 0
5, 171228, Note_on_c, 9, 35, 60
5, 171228, Note_on_c, 9, 51, 57
5, 171328, Note_on_c, 9, 35, 0
5, 171340, Note_on_c, 9, 76, 25
5, 171376, Note_on_c, 9, 76, 0
5, 171428, Note_on_c, 9, 51, 0
5, 171432, Note_on_c, 9, 76, 21
5, 171460, Note_on_c, 9, 76, 0
5, 171492, Note_on_c, 9, 76, 33
5, 171520, Note_on_c, 9, 76, 0
5, 171580, Note_on_c, 9, 76, 43
5, 171612, Note_on_c, 9, 76, 0
5, 171612, Note_on_c, 9, 63, 54
5, 171616, Note_on_c, 9, 51, 57
5, 171676, Note_on_c, 9, 63, 0
5, 171700, Note_on_c, 9, 51, 0
5, 171796, Note_on_c, 9, 76, 59
5, 171804, Note_on_c, 9, 63, 60
5, 171808, Note_on_c, 9, 35, 34
5, 171824, Note_on_c, 9, 76, 0
5, 171872, Note_on_c, 9, 35, 0
5, 171892, Note_on_c, 9, 63, 0
5, 171996, Note_on_c, 9, 51, 70
5, 171996, Note_on_c, 9, 35, 62
5, 172004, Note_on_c, 9, 76, 51
5, 172032, Note_on_c, 9, 76, 0
5, 172108, Note_on_c, 9, 51, 0
5, 172164, Note_on_c, 9, 35, 0
5, 172380, Note_on_c, 9, 51, 67
5, 172380, Note_on_c, 9, 64, 34
5, 172416, Note_on_c, 9, 64, 0
5, 172456, Note_on_c, 9, 51, 0
5, 172572, Note_on_c, 9, 64, 53
5, 172576, Note_on_c, 9, 35, 36
5, 172608, Note_on_c, 9, 35, 0
5, 172696, Note_on_c, 9, 64, 0
5, 172764, Note_on_c, 9, 51, 64
5, 172764, Note_on_c, 9, 35, 52
5, 172840, Note_on_c, 9, 51, 0
5, 172864, Note_on_c, 9, 35, 0
5, 172956, Note_on_c, 9, 51, 51
5, 173028, Note_on_c, 9, 51, 0
5, 173148, Note_on_c, 9, 63, 42
5, 173196, Note_on_c, 9, 63, 0
5, 173340, Note_on_c, 9, 63, 68
5, 173344, Note_on_c, 9, 51, 62
5, 173416, Note_on_c, 9, 51, 0
5, 173532, Note_on_c, 9, 51, 76
5, 173532, Note_on_c, 9, 35, 59
5, 173540, Note_on_c, 9, 63, 0
5, 173664, Note_on_c, 9, 35, 0
5, 173712, Note_on_c, 9, 51, 0
5, 173724, Note_on_c, 9, 77, 24
5, 173744, Note_on_c, 9, 77, 0
5, 173804, Note_on_c, 9, 77, 25
5, 173836, Note_on_c, 9, 77, 0
5, 173848, Note_on_c, 9, 77, 25
5, 173888, Note_on_c, 9, 77, 0
5, 173916, Note_on_c, 9, 64, 34
5, 173980, Note_on_c, 9, 64, 0
5, 174108, Note_on_c, 9, 64, 54
5, 174112, Note_on_c, 9, 51, 65
5, 174116, Note_on_c, 9, 35, 32
5, 174124, Note_on_c, 9, 77, 68
5, 174140, Note_on_c, 9, 35, 0
5, 174144, Note_on_c, 9, 77, 0
5, 174164, Note_on_c, 9, 51, 0
5, 174300, Note_on_c, 9, 51, 59
5, 174300, Note_on_c, 9, 35, 62
5, 174340, Note_on_c, 9, 77, 41
5, 174364, Note_on_c, 9, 77, 0
5, 174400, Note_on_c, 9, 64, 0
5, 174416, Note_on_c, 9, 51, 0
5, 174448, Note_on_c, 9, 35, 0
5, 174512, Note_on_c, 9, 77, 36
5, 174528, Note_on_c, 9, 77, 0
5, 174684, Note_on_c, 9, 63, 42
5, 174696, Note_on_c, 9, 77, 41
5, 174732, Note_on_c, 9, 77, 0
5, 174796, Note_on_c, 9, 63, 0
5, 174872, Note_on_c, 9, 63, 57
5, 174880, Note_on_c, 9, 35, 43
5, 174880, Note_on_c, 9, 51, 77
5, 174888, Note_on_c, 9, 77, 58
5, 174948, Note_on_c, 9, 77, 0
5, 174952, Note_on_c, 9, 35, 0
5, 174972, Note_on_c, 9, 51, 0
5, 175012, Note_on_c, 9, 63, 0
5, 175068, Note_on_c, 9, 35, 62
5, 175084, Note_on_c, 9, 77, 40
5, 175132, Note_on_c, 9, 77, 0
5, 175236, Note_on_c, 9, 35, 0
5, 175260, Note_on_c, 9, 51, 69
5, 175332, Note_on_c, 9, 51, 0
5, 175452, Note_on_c, 9, 64, 37
5, 175504, Note_on_c, 9, 64, 0
5, 175644, Note_on_c, 9, 64, 56
5, 175648, Note_on_c, 9, 51, 59
5, 175652, Note_on_c, 9, 35, 48
5, 175660, Note_on_c, 9, 35, 0
5, 175676, Note_on_c, 9, 51, 0
5, 175792, Note_on_c, 9, 64, 0
5, 175836, Note_on_c, 9, 51, 60
5, 175836, Note_on_c, 9, 35, 58
5, 175900, Note_on_c, 9, 35, 0
5, 175964, Note_on_c, 9, 51, 0
5, 176220, Note_on_c, 9, 63, 47
5, 176284, Note_on_c, 9, 63, 0
5, 176412, Note_on_c, 9, 63, 62
5, 176416, Note_on_c, 9, 51, 69
5, 176420, Note_on_c, 9, 35, 36
5, 176428, Note_on_c, 9, 35, 0
5, 176468, Note_on_c, 9, 51, 0
5, 176604, Note_on_c, 9, 35, 62
5, 176704, Note_on_c, 9, 35, 0
5, 176796, Note_on_c, 9, 51, 72
5, 176864, Note_on_c, 9, 51, 0
5, 176884, Note_on_c, 9, 63, 0
5, 176988, Note_on_c, 9, 64, 22
5, 177060, Note_on_c, 9, 64, 0
5, 177180, Note_on_c, 9, 64, 54
5, 177184, Note_on_c, 9, 51, 68
5, 177188, Note_on_c, 9, 35, 44
5, 177188, Note_on_c, 9, 35, 0
5, 177196, Note_on_c, 9, 77, 29
5, 177204, Note_on_c, 9, 51, 0
5, 177236, Note_on_c, 9, 77, 0
5, 177372, Note_on_c, 9, 35, 55
5, 177372, Note_on_c, 9, 51, 64
5, 177396, Note_on_c, 9, 77, 29
5, 177436, Note_on_c, 9, 77, 0
5, 177460, Note_on_c, 9, 51, 0
5, 177472, Note_on_c, 9, 35, 0
5, 177488, Note_on_c, 9, 64, 0
5, 177568, Note_on_c, 9, 77, 35
5, 177632, Note_on_c, 9, 77, 0
5, 177756, Note_on_c, 9, 63, 47
5, 177756, Note_on_c, 9, 51, 53
5, 177772, Note_on_c, 9, 77, 64
5, 177780, Note_on_c, 9, 51, 0
5, 177832, Note_on_c, 9, 77, 0
5, 177856, Note_on_c, 9, 63, 0
5, 177948, Note_on_c, 9, 63, 43
5, 177952, Note_on_c, 9, 51, 42
5, 177992, Note_on_c, 9, 51, 0
5, 178140, Note_on_c, 9, 63, 0
5, 178140, Note_on_c, 9, 51, 67
5, 178144, Note_on_c, 9, 35, 66
5, 178288, Note_on_c, 9, 35, 0
5, 178296, Note_on_c, 9, 51, 0
5, 178524, Note_on_c, 9, 64, 42
5, 178524, Note_on_c, 9, 51, 39
5, 178548, Note_on_c, 9, 51, 0
5, 178600, Note_on_c, 9, 64, 0
5, 178716, Note_on_c, 9, 64, 31
5, 178720, Note_on_c, 9, 51, 73
5, 178724, Note_on_c, 9, 35, 40
5, 178736, Note_on_c, 9, 35, 0
5, 178812, Note_on_c, 9, 64, 0
5, 178832, Note_on_c, 9, 51, 0
5, 178908, Note_on_c, 9, 35, 62
5, 179008, Note_on_c, 9, 35, 0
5, 179100, Note_on_c, 9, 51, 54
5, 179120, Note_on_c, 9, 51, 0
5, 179292, Note_on_c, 9, 63, 60
5, 179292, Note_on_c, 9, 51, 68
5, 179408, Note_on_c, 9, 63, 0
5, 179424, Note_on_c, 9, 51, 0
5, 179484, Note_on_c, 9, 63, 54
5, 179488, Note_on_c, 9, 35, 36
5, 179500, Note_on_c, 9, 35, 0
5, 179600, Note_on_c, 9, 63, 0
5, 179676, Note_on_c, 9, 35, 63
5, 179732, Note_on_c, 9, 35, 0
5, 179868, Note_on_c, 9, 51, 71
5, 179924, Note_on_c, 9, 51, 0
5, 180060, Note_on_c, 9, 64, 42
5, 180136, Note_on_c, 9, 64, 0
5, 180252, Note_on_c, 9, 64, 36
5, 180256, Note_on_c, 9, 51, 68
5, 180260, Note_on_c, 9, 35, 58
5, 180260, Note_on_c, 9, 35, 0
5, 180320, Note_on_c, 9, 51, 0
5, 180356, Note_on_c, 9, 64, 0
5, 180444, Note_on_c, 9, 35, 52
5, 180544, Note_on_c, 9, 35, 0
5, 180628, Note_on_c, 9, 76, 21
5, 180636, Note_on_c, 9, 51, 61
5, 180660, Note_on_c, 9, 76, 0
5, 180720, Note_on_c, 9, 51, 0
5, 180828, Note_on_c, 9, 51, 31
5, 180828, Note_on_c, 9, 63, 51
5, 180832, Note_on_c, 9, 35, 57
5, 180840, Note_on_c, 9, 76, 17
5, 180868, Note_on_c, 9, 76, 0
5, 180872, Note_on_c, 9, 51, 0
5, 180904, Note_on_c, 9, 35, 0
5, 180916, Note_on_c, 9, 63, 0
5, 181024, Note_on_c, 9, 53, 77
5, 181024, Note_on_c, 9, 63, 49
5, 181040, Note_on_c, 9, 76, 55
5, 181092, Note_on_c, 9, 76, 0
5, 181096, Note_on_c, 9, 53, 0
5, 181132, Note_on_c, 9, 63, 0
5, 181212, Note_on_c, 9, 35, 68
5, 181212, Note_on_c, 9, 51, 33
5, 181324, Note_on_c, 9, 35, 0
5, 181360, Note_on_c, 9, 51, 0
5, 181596, Note_on_c, 9, 51, 59
5, 181596, Note_on_c, 9, 64, 49
5, 181696, Note_on_c, 9, 64, 0
5, 181700, Note_on_c, 9, 51, 0
5, 181788, Note_on_c, 9, 64, 49
5, 181792, Note_on_c, 9, 35, 43
5, 181844, Note_on_c, 9, 35, 0
5, 181856, Note_on_c, 9, 64, 0
5, 181980, Note_on_c, 9, 35, 62
5, 181980, Note_on_c, 9, 51, 68
5, 182080, Note_on_c, 9, 35, 0
5, 182148, Note_on_c, 9, 51, 0
5, 182364, Note_on_c, 9, 51, 47
5, 182364, Note_on_c, 9, 63, 49
5, 182388, Note_on_c, 9, 51, 0
5, 182464, Note_on_c, 9, 63, 0
5, 182556, Note_on_c, 9, 63, 45
5, 182560, Note_on_c, 9, 51, 69
5, 182564, Note_on_c, 9, 35, 37
5, 182612, Note_on_c, 9, 35, 0
5, 182668, Note_on_c, 9, 63, 0
5, 182676, Note_on_c, 9, 51, 0
5, 182748, Note_on_c, 9, 35, 68
5, 182884, Note_on_c, 9, 35, 0
5, 182940, Note_on_c, 9, 51, 62
5, 183052, Note_on_c, 9, 51, 0
5, 183132, Note_on_c, 9, 64, 32
5, 183180, Note_on_c, 9, 64, 0
5, 183324, Note_on_c, 9, 64, 53
5, 183332, Note_on_c, 9, 35, 50
5, 183332, Note_on_c, 9, 35, 0
5, 183332, Note_on_c, 9, 51, 51
5, 183392, Note_on_c, 9, 51, 0
5, 183412, Note_on_c, 9, 64, 0
5, 183516, Note_on_c, 9, 51, 74
5, 183516, Note_on_c, 9, 35, 59
5, 183580, Note_on_c, 9, 35, 0
5, 183672, Note_on_c, 9, 51, 0
5, 183872, Note_on_c, 9, 76, 35
5, 183900, Note_on_c, 9, 51, 42
5, 183900, Note_on_c, 9, 63, 51
5, 183908, Note_on_c, 9, 76, 0
5, 183944, Note_on_c, 9, 51, 0
5, 183956, Note_on_c, 9, 76, 34
5, 183964, Note_on_c, 9, 63, 0
5, 183988, Note_on_c, 9, 76, 0
5, 184092, Note_on_c, 9, 63, 62
5, 184096, Note_on_c, 9, 51, 68
5, 184100, Note_on_c, 9, 35, 35
5, 184136, Note_on_c, 9, 35, 0
5, 184212, Note_on_c, 9, 51, 0
5, 184216, Note_on_c, 9, 63, 0
5, 184284, Note_on_c, 9, 35, 58
5, 184436, Note_on_c, 9, 35, 0
5, 184476, Note_on_c, 9, 51, 51
5, 184548, Note_on_c, 9, 51, 0
5, 184668, Note_on_c, 9, 64, 45
5, 184668, Note_on_c, 9, 51, 69
5, 184704, Note_on_c, 9, 64, 0
5, 184816, Note_on_c, 9, 51, 0
5, 184836, Note_on_c, 9, 76, 21
5, 184860, Note_on_c, 9, 64, 55
5, 184864, Note_on_c, 9, 35, 47
5, 184868, Note_on_c, 9, 76, 0
5, 184904, Note_on_c, 9, 35, 0
5, 184916, Note_on_c, 9, 76, 50
5, 184940, Note_on_c, 9, 64, 0
5, 184944, Note_on_c, 9, 76, 0
5, 185052, Note_on_c, 9, 35, 59
5, 185052, Note_on_c, 9, 51, 71
5, 185164, Note_on_c, 9, 35, 0
5, 185180, Note_on_c, 9, 76, 63
5, 185208, Note_on_c, 9, 51, 0
5, 185236, Note_on_c, 9, 76, 0
5, 185420, Note_on_c, 9, 76, 41
5, 185436, Note_on_c, 9, 63, 58
5, 185448, Note_on_c, 9, 76, 0
5, 185512, Note_on_c, 9, 63, 0
5, 185628, Note_on_c, 9, 63, 58
5, 185632, Note_on_c, 9, 51, 47
5, 185636, Note_on_c, 9, 35, 49
5, 185652, Note_on_c, 9, 51, 0
5, 185708, Note_on_c, 9, 35, 0
5, 185716, Note_on_c, 9, 63, 0
5, 185820, Note_on_c, 9, 51, 61
5, 185820, Note_on_c, 9, 35, 64
5, 185872, Note_on_c, 9, 51, 0
5, 185976, Note_on_c, 9, 35, 0
5, 186012, Note_on_c, 9, 51, 67
5, 186092, Note_on_c, 9, 51, 0
5, 186204, Note_on_c, 9, 64, 31
5, 186280, Note_on_c, 9, 64, 0
5, 186396, Note_on_c, 9, 64, 48
5, 186400, Note_on_c, 9, 51, 78
5, 186404, Note_on_c, 9, 35, 51
5, 186464, Note_on_c, 9, 35, 0
5, 186512, Note_on_c, 9, 64, 0
5, 186588, Note_on_c, 9, 35, 47
5, 186612, Note_on_c, 9, 51, 0
5, 186688, Note_on_c, 9, 35, 0
5, 186780, Note_on_c, 9, 51, 44
5, 186848, Note_on_c, 9, 51, 0
5, 186852, Note_on_c, 9, 77, 23
5, 186876, Note_on_c, 9, 77, 0
5, 186972, Note_on_c, 9, 51, 55
5, 186972, Note_on_c, 9, 63, 44
5, 186996, Note_on_c, 9, 77, 62
5, 187020, Note_on_c, 9, 77, 0
5, 187048, Note_on_c, 9, 63, 0
5, 187092, Note_on_c, 9, 51, 0
5, 187164, Note_on_c, 9, 63, 48
5, 187168, Note_on_c, 9, 35, 57
5, 187196, Note_on_c, 9, 77, 55
5, 187220, Note_on_c, 9, 35, 0
5, 187224, Note_on_c, 9, 77, 0
5, 187264, Note_on_c, 9, 63, 0
5, 187356, Note_on_c, 9, 51, 63
5, 187356, Note_on_c, 9, 35, 57
5, 187360, Note_on_c, 9, 77, 57
5, 187428, Note_on_c, 9, 77, 0
5, 187432, Note_on_c, 9, 51, 0
5, 187468, Note_on_c, 9, 35, 0
5, 187572, Note_on_c, 9, 77, 44
5, 187628, Note_on_c, 9, 77, 0
5, 187740, Note_on_c, 9, 64, 44
5, 187740, Note_on_c, 9, 51, 70
5, 187776, Note_on_c, 9, 77, 56
5, 187796, Note_on_c, 9, 64, 0
5, 187828, Note_on_c, 9, 77, 0
5, 187852, Note_on_c, 9, 51, 0
5, 187932, Note_on_c, 9, 64, 49
5, 187936, Note_on_c, 9, 35, 57
5, 187980, Note_on_c, 9, 35, 0
5, 188028, Note_on_c, 9, 64, 0
5, 188124, Note_on_c, 9, 35, 66
5, 188124, Note_on_c, 9, 51, 59
5, 188176, Note_on_c, 9, 35, 0
5, 188224, Note_on_c, 9, 51, 0
5, 188316, Note_on_c, 9, 51, 50
5, 188384, Note_on_c, 9, 51, 0
5, 188508, Note_on_c, 9, 63, 51
5, 188624, Note_on_c, 9, 63, 0
5, 188700, Note_on_c, 9, 63, 50
5, 188704, Note_on_c, 9, 51, 69
5, 188708, Note_on_c, 9, 35, 51
5, 188712, Note_on_c, 9, 35, 0
5, 188780, Note_on_c, 9, 51, 0
5, 188816, Note_on_c, 9, 63, 0
5, 188892, Note_on_c, 9, 35, 64
5, 188960, Note_on_c, 9, 35, 0
5, 189084, Note_on_c, 9, 51, 67
5, 189180, Note_on_c, 9, 51, 0
5, 189276, Note_on_c, 9, 64, 44
5, 189364, Note_on_c, 9, 64, 0
5, 189468, Note_on_c, 9, 64, 32
5, 189476, Note_on_c, 9, 51, 58
5, 189476, Note_on_c, 9, 35, 54
5, 189476, Note_on_c, 9, 35, 0
5, 189552, Note_on_c, 9, 51, 0
5, 189568, Note_on_c, 9, 64, 0
5, 189660, Note_on_c, 9, 51, 48
5, 189660, Note_on_c, 9, 35, 60
5, 189696, Note_on_c, 9, 35, 0
5, 189764, Note_on_c, 9, 51, 0
5, 190044, Note_on_c, 9, 51, 53
5, 190044, Note_on_c, 9, 63, 45
5, 190080, Note_on_c, 9, 51, 0
5, 190132, Note_on_c, 9, 63, 0
5, 190236, Note_on_c, 9, 63, 49
5, 190240, Note_on_c, 9, 51, 57
5, 190244, Note_on_c, 9, 35, 43
5, 190252, Note_on_c, 9, 35, 0
5, 190304, Note_on_c, 9, 51, 0
5, 190336, Note_on_c, 9, 63, 0
5, 190428, Note_on_c, 9, 51, 56
5, 190428, Note_on_c, 9, 35, 63
5, 190492, Note_on_c, 9, 51, 0
5, 190528, Note_on_c, 9, 35, 0
5, 190812, Note_on_c, 9, 64, 40
5, 190812, Note_on_c, 9, 51, 45
5, 190860, Note_on_c, 9, 51, 0
5, 190888, Note_on_c, 9, 64, 0
5, 191008, Note_on_c, 9, 51, 70
5, 191008, Note_on_c, 9, 64, 45
5, 191016, Note_on_c, 9, 35, 50
5, 191020, Note_on_c, 9, 35, 0
5, 191020, Note_on_c, 9, 77, 25
5, 191040, Note_on_c, 9, 77, 0
5, 191092, Note_on_c, 9, 64, 0
5, 191116, Note_on_c, 9, 51, 0
5, 191184, Note_on_c, 9, 77, 26
5, 191196, Note_on_c, 9, 35, 68
5, 191244, Note_on_c, 9, 77, 0
5, 191272, Note_on_c, 9, 35, 0
5, 191388, Note_on_c, 9, 51, 71
5, 191488, Note_on_c, 9, 51, 0
5, 191580, Note_on_c, 9, 63, 46
5, 191648, Note_on_c, 9, 63, 0
5, 191772, Note_on_c, 9, 63, 46
5, 191776, Note_on_c, 9, 51, 74
5, 191780, Note_on_c, 9, 35, 47
5, 191804, Note_on_c, 9, 77, 26
5, 191812, Note_on_c, 9, 35, 0
5, 191840, Note_on_c, 9, 77, 0
5, 191844, Note_on_c, 9, 63, 0
5, 191884, Note_on_c, 9, 51, 0
5, 191964, Note_on_c, 9, 35, 59
5, 191988, Note_on_c, 9, 77, 21
5, 192040, Note_on_c, 9, 35, 0
5, 192044, Note_on_c, 9, 77, 0
5, 192156, Note_on_c, 9, 51, 69
5, 192252, Note_on_c, 9, 51, 0
5, 192348, Note_on_c, 9, 64, 31
5, 192416, Note_on_c, 9, 64, 0
5, 192532, Note_on_c, 9, 77, 30
5, 192540, Note_on_c, 9, 64, 48
5, 192544, Note_on_c, 9, 35, 55
5, 192544, Note_on_c, 9, 51, 56
5, 192556, Note_on_c, 9, 35, 0
5, 192564, Note_on_c, 9, 77, 0
5, 192608, Note_on_c, 9, 51, 0
5, 192624, Note_on_c, 9, 64, 0
5, 192732, Note_on_c, 9, 51, 62
5, 192732, Note_on_c, 9, 35, 59
5, 192736, Note_on_c, 9, 77, 28
5, 192768, Note_on_c, 9, 77, 0
5, 192800, Note_on_c, 9, 35, 0
5, 192808, Note_on_c, 9, 51, 0
5, 192924, Note_on_c, 9, 51, 51
5, 192992, Note_on_c, 9, 51, 0
5, 193116, Note_on_c, 9, 51, 69
5, 193116, Note_on_c, 9, 63, 51
5, 193120, Note_on_c, 9, 54, 102
5, 193188, Note_on_c, 9, 54, 0
5, 193244, Note_on_c, 9, 63, 0
5, 193296, Note_on_c, 9, 51, 0
5, 193308, Note_on_c, 9, 63, 46
5, 193312, Note_on_c, 9, 35, 49
5, 193340, Note_on_c, 9, 35, 0
5, 193424, Note_on_c, 9, 63, 0
5, 193500, Note_on_c, 9, 51, 67
5, 193500, Note_on_c, 9, 35, 64
5, 193516, Note_on_c, 9, 77, 34
5, 193600, Note_on_c, 9, 77, 0
5, 193600, Note_on_c, 9, 51, 0
5, 193628, Note_on_c, 9, 35, 0
5, 193884, Note_on_c, 9, 51, 64
5, 193884, Note_on_c, 9, 64, 44
5, 193960, Note_on_c, 9, 51, 0
5, 193972, Note_on_c, 9, 64, 0
5, 194076, Note_on_c, 9, 64, 53
5, 194080, Note_on_c, 9, 51, 39
5, 194084, Note_on_c, 9, 35, 53
5, 194100, Note_on_c, 9, 35, 0
5, 194120, Note_on_c, 9, 51, 0
5, 194144, Note_on_c, 9, 77, 25
5, 194172, Note_on_c, 9, 64, 0
5, 194180, Note_on_c, 9, 77, 0
5, 194268, Note_on_c, 9, 35, 52
5, 194304, Note_on_c, 9, 77, 24
5, 194332, Note_on_c, 9, 77, 0
5, 194380, Note_on_c, 9, 35, 0
5, 194460, Note_on_c, 9, 51, 69
5, 194464, Note_on_c, 9, 77, 60
5, 194504, Note_on_c, 9, 77, 0
5, 194528, Note_on_c, 9, 51, 0
5, 194652, Note_on_c, 9, 51, 44
5, 194652, Note_on_c, 9, 63, 52
5, 194656, Note_on_c, 9, 77, 66
5, 194700, Note_on_c, 9, 77, 0
5, 194728, Note_on_c, 9, 63, 0
5, 194752, Note_on_c, 9, 51, 0
5, 194844, Note_on_c, 9, 63, 39
5, 194848, Note_on_c, 9, 35, 51
5, 194876, Note_on_c, 9, 35, 0
5, 194924, Note_on_c, 9, 63, 0
5, 195036, Note_on_c, 9, 35, 53
5, 195036, Note_on_c, 9, 51, 57
5, 195104, Note_on_c, 9, 51, 0
5, 195136, Note_on_c, 9, 35, 0
5, 195228, Note_on_c, 9, 51, 67
5, 195248, Note_on_c, 9, 76, 62
5, 195296, Note_on_c, 9, 76, 0
5, 195324, Note_on_c, 9, 51, 0
5, 195420, Note_on_c, 9, 64, 38
5, 195496, Note_on_c, 9, 64, 0
5, 195612, Note_on_c, 9, 64, 43
5, 195616, Note_on_c, 9, 51, 67
5, 195620, Note_on_c, 9, 35, 47
5, 195644, Note_on_c, 9, 35, 0
5, 195696, Note_on_c, 9, 64, 0
5, 195708, Note_on_c, 9, 51, 0
5, 195804, Note_on_c, 9, 51, 76
5, 195808, Note_on_c, 9, 35, 50
5, 195900, Note_on_c, 9, 35, 0
5, 195988, Note_on_c, 9, 51, 0
5, 196012, Note_on_c, 9, 77, 36
5, 196032, Note_on_c, 9, 77, 0
5, 196176, Note_on_c, 9, 77, 31
5, 196188, Note_on_c, 9, 63, 43
5, 196188, Note_on_c, 9, 51, 46
5, 196200, Note_on_c, 9, 77, 0
5, 196228, Note_on_c, 9, 51, 0
5, 196264, Note_on_c, 9, 63, 0
5, 196380, Note_on_c, 9, 63, 44
5, 196384, Note_on_c, 9, 51, 76
5, 196388, Note_on_c, 9, 35, 47
5, 196392, Note_on_c, 9, 77, 51
5, 196416, Note_on_c, 9, 77, 0
5, 196424, Note_on_c, 9, 35, 0
5, 196460, Note_on_c, 9, 63, 0
5, 196492, Note_on_c, 9, 51, 0
5, 196572, Note_on_c, 9, 35, 61
5, 196596, Note_on_c, 9, 77, 65
5, 196648, Note_on_c, 9, 77, 0
5, 196672, Note_on_c, 9, 35, 0
5, 196764, Note_on_c, 9, 51, 73
5, 196848, Note_on_c, 9, 51, 0
5, 196956, Note_on_c, 9, 64, 32
5, 197020, Note_on_c, 9, 64, 0
5, 197148, Note_on_c, 9, 64, 49
5, 197152, Note_on_c, 9, 51, 50
5, 197156, Note_on_c, 9, 35, 44
5, 197164, Note_on_c, 9, 77, 60
5, 197188, Note_on_c, 9, 35, 0
5, 197192, Note_on_c, 9, 51, 0
5, 197204, Note_on_c, 9, 77, 0
5, 197248, Note_on_c, 9, 64, 0
5, 197340, Note_on_c, 9, 51, 73
5, 197340, Note_on_c, 9, 35, 60
5, 197428, Note_on_c, 9, 35, 0
5, 197508, Note_on_c, 9, 51, 0
5, 197532, Note_on_c, 9, 53, 73
5, 197616, Note_on_c, 9, 53, 0
5, 197724, Note_on_c, 9, 63, 43
5, 197724, Note_on_c, 9, 51, 55
5, 197800, Note_on_c, 9, 63, 0
5, 197844, Note_on_c, 9, 51, 0
5, 197916, Note_on_c, 9, 63, 51
5, 197920, Note_on_c, 9, 51, 64
5, 197924, Note_on_c, 9, 35, 39
5, 197928, Note_on_c, 9, 77, 64
5, 197972, Note_on_c, 9, 35, 0
5, 197988, Note_on_c, 9, 77, 0
5, 198012, Note_on_c, 9, 63, 0
5, 198032, Note_on_c, 9, 51, 0
5, 198108, Note_on_c, 9, 35, 62
5, 198108, Note_on_c, 9, 51, 70
5, 198220, Note_on_c, 9, 35, 0
5, 198316, Note_on_c, 9, 51, 0
5, 198492, Note_on_c, 9, 51, 37
5, 198492, Note_on_c, 9, 64, 36
5, 198528, Note_on_c, 9, 77, 52
5, 198548, Note_on_c, 9, 51, 0
5, 198552, Note_on_c, 9, 64, 0
5, 198580, Note_on_c, 9, 77, 0
5, 198684, Note_on_c, 9, 64, 51
5, 198688, Note_on_c, 9, 51, 72
5, 198692, Note_on_c, 9, 35, 36
5, 198764, Note_on_c, 9, 35, 0
5, 198772, Note_on_c, 9, 64, 0
5, 198876, Note_on_c, 9, 35, 57
5, 198932, Note_on_c, 9, 51, 0
5, 199024, Note_on_c, 9, 35, 0
5, 199068, Note_on_c, 9, 51, 59
5, 199124, Note_on_c, 9, 51, 0
5, 199244, Note_on_c, 9, 77, 60
5, 199260, Note_on_c, 9, 51, 42
5, 199260, Note_on_c, 9, 63, 49
5, 199308, Note_on_c, 9, 51, 0
5, 199316, Note_on_c, 9, 77, 0
5, 199360, Note_on_c, 9, 63, 0
5, 199452, Note_on_c, 9, 63, 58
5, 199456, Note_on_c, 9, 51, 38
5, 199460, Note_on_c, 9, 35, 44
5, 199484, Note_on_c, 9, 51, 0
5, 199520, Note_on_c, 9, 35, 0
5, 199524, Note_on_c, 9, 63, 0
5, 199644, Note_on_c, 9, 35, 53
5, 199644, Note_on_c, 9, 51, 73
5, 199800, Note_on_c, 9, 35, 0
5, 199824, Note_on_c, 9, 51, 0
5, 200028, Note_on_c, 9, 64, 36
5, 200028, Note_on_c, 9, 51, 52
5, 200052, Note_on_c, 9, 51, 0
5, 200076, Note_on_c, 9, 64, 0
5, 200220, Note_on_c, 9, 64, 49
5, 200224, Note_on_c, 9, 51, 74
5, 200228, Note_on_c, 9, 35, 42
5, 200236, Note_on_c, 9, 77, 40
5, 200256, Note_on_c, 9, 35, 0
5, 200264, Note_on_c, 9, 77, 0
5, 200276, Note_on_c, 9, 64, 0
5, 200344, Note_on_c, 9, 51, 0
5, 200412, Note_on_c, 9, 35, 50
5, 200412, Note_on_c, 9, 77, 35
5, 200512, Note_on_c, 9, 35, 0
5, 200544, Note_on_c, 9, 77, 0
5, 200604, Note_on_c, 9, 51, 51
5, 200608, Note_on_c, 9, 77, 54
5, 200636, Note_on_c, 9, 51, 0
5, 200672, Note_on_c, 9, 77, 0
5, 200796, Note_on_c, 9, 51, 60
5, 200796, Note_on_c, 9, 63, 51
5, 200896, Note_on_c, 9, 63, 0
5, 200924, Note_on_c, 9, 51, 0
5, 200988, Note_on_c, 9, 63, 54
5, 200992, Note_on_c, 9, 35, 29
5, 201032, Note_on_c, 9, 35, 0
5, 201072, Note_on_c, 9, 63, 0
5, 201180, Note_on_c, 9, 35, 52
5, 201180, Note_on_c, 9, 51, 67
5, 201184, Note_on_c, 9, 77, 38
5, 201252, Note_on_c, 9, 51, 0
5, 201256, Note_on_c, 9, 77, 0
5, 201256, Note_on_c, 9, 35, 0
5, 201372, Note_on_c, 9, 51, 58
5, 201416, Note_on_c, 9, 51, 0
5, 201564, Note_on_c, 9, 64, 34
5, 201612, Note_on_c, 9, 64, 0
5, 201756, Note_on_c, 9, 64, 50
5, 201760, Note_on_c, 9, 51, 74
5, 201764, Note_on_c, 9, 35, 38
5, 201792, Note_on_c, 9, 35, 0
5, 201824, Note_on_c, 9, 64, 0
5, 201836, Note_on_c, 9, 51, 0
5, 201948, Note_on_c, 9, 35, 43
5, 202064, Note_on_c, 9, 35, 0
5, 202140, Note_on_c, 9, 51, 61
5, 202160, Note_on_c, 9, 51, 0
5, 202176, Note_on_c, 9, 76, 16
5, 202208, Note_on_c, 9, 76, 0
5, 202236, Note_on_c, 9, 76, 24
5, 202264, Note_on_c, 9, 76, 0
5, 202316, Note_on_c, 9, 76, 51
5, 202332, Note_on_c, 9, 51, 55
5, 202332, Note_on_c, 9, 63, 42
5, 202340, Note_on_c, 9, 76, 0
5, 202372, Note_on_c, 9, 63, 0
5, 202384, Note_on_c, 9, 51, 0
5, 202524, Note_on_c, 9, 63, 55
5, 202528, Note_on_c, 9, 53, 63
5, 202532, Note_on_c, 9, 57, 53
5, 202532, Note_on_c, 9, 35, 32
5, 202544, Note_on_c, 9, 57, 0
5, 202544, Note_on_c, 9, 53, 0
5, 202548, Note_on_c, 9, 76, 62
5, 202560, Note_on_c, 9, 35, 0
5, 202580, Note_on_c, 9, 76, 0
5, 202604, Note_on_c, 9, 63, 0
5, 202716, Note_on_c, 9, 51, 48
5, 202716, Note_on_c, 9, 35, 57
5, 202752, Note_on_c, 9, 77, 29
5, 202780, Note_on_c, 9, 77, 0
5, 202848, Note_on_c, 9, 35, 0
5, 202932, Note_on_c, 9, 51, 0
5, 202940, Note_on_c, 9, 77, 34
5, 202964, Note_on_c, 9, 77, 0
5, 203100, Note_on_c, 9, 51, 57
5, 203100, Note_on_c, 9, 64, 33
5, 203136, Note_on_c, 9, 77, 47
5, 203148, Note_on_c, 9, 51, 0
5, 203156, Note_on_c, 9, 64, 0
5, 203164, Note_on_c, 9, 77, 0
5, 203292, Note_on_c, 9, 64, 46
5, 203296, Note_on_c, 9, 51, 52
5, 203300, Note_on_c, 9, 35, 44
5, 203304, Note_on_c, 9, 35, 0
5, 203348, Note_on_c, 9, 51, 0
5, 203360, Note_on_c, 9, 64, 0
5, 203484, Note_on_c, 9, 35, 56
5, 203588, Note_on_c, 9, 35, 0
5, 203676, Note_on_c, 9, 51, 64
5, 203732, Note_on_c, 9, 51, 0
5, 203868, Note_on_c, 9, 63, 37
5, 203936, Note_on_c, 9, 63, 0
5, 204060, Note_on_c, 9, 63, 60
5, 204064, Note_on_c, 9, 51, 67
5, 204068, Note_on_c, 9, 35, 50
5, 204080, Note_on_c, 9, 35, 0
5, 204096, Note_on_c, 9, 76, 18
5, 204128, Note_on_c, 9, 76, 0
5, 204164, Note_on_c, 9, 51, 0
5, 204168, Note_on_c, 9, 76, 16
5, 204172, Note_on_c, 9, 63, 0
5, 204208, Note_on_c, 9, 76, 0
5, 204244, Note_on_c, 9, 76, 27
5, 204252, Note_on_c, 9, 35, 64
5, 204264, Note_on_c, 9, 76, 0
5, 204316, Note_on_c, 9, 35, 0
5, 204444, Note_on_c, 9, 51, 62
5, 204512, Note_on_c, 9, 51, 0
5, 204636, Note_on_c, 9, 64, 26
5, 204684, Note_on_c, 9, 64, 0
5, 204828, Note_on_c, 9, 64, 49
5, 204832, Note_on_c, 9, 51, 68
5, 204836, Note_on_c, 9, 35, 56
5, 204856, Note_on_c, 9, 35, 0
5, 204860, Note_on_c, 9, 76, 20
5, 204896, Note_on_c, 9, 51, 0
5, 204908, Note_on_c, 9, 76, 0
5, 204924, Note_on_c, 9, 64, 0
5, 204928, Note_on_c, 9, 76, 21
5, 204976, Note_on_c, 9, 76, 0
5, 205020, Note_on_c, 9, 51, 62
5, 205020, Note_on_c, 9, 35, 61
5, 205024, Note_on_c, 9, 76, 57
5, 205044, Note_on_c, 9, 76, 0
5, 205096, Note_on_c, 9, 35, 0
5, 205108, Note_on_c, 9, 51, 0
5, 205212, Note_on_c, 9, 53, 65
5, 205216, Note_on_c, 9, 57, 52
5, 205232, Note_on_c, 9, 76, 63
5, 205244, Note_on_c, 9, 57, 0
5, 205252, Note_on_c, 9, 53, 0
5, 205256, Note_on_c, 9, 76, 0
5, 205404, Note_on_c, 9, 51, 34
5, 205404, Note_on_c, 9, 63, 42
5, 205412, Note_on_c, 9, 76, 64
5, 205444, Note_on_c, 9, 63, 0
5, 205460, Note_on_c, 9, 51, 0
5, 205468, Note_on_c, 9, 76, 0
5, 205596, Note_on_c, 9, 63, 58
5, 205600, Note_on_c, 9, 51, 50
5, 205604, Note_on_c, 9, 35, 53
5, 205640, Note_on_c, 9, 35, 0
5, 205648, Note_on_c, 9, 51, 0
5, 205680, Note_on_c, 9, 63, 0
5, 205788, Note_on_c, 9, 51, 69
5, 205788, Note_on_c, 9, 35, 61
5, 205792, Note_on_c, 9, 76, 56
5, 205824, Note_on_c, 9, 76, 0
5, 205916, Note_on_c, 9, 35, 0
5, 205944, Note_on_c, 9, 51, 0
5, 205988, Note_on_c, 9, 76, 23
5, 206016, Note_on_c, 9, 76, 0
5, 206076, Note_on_c, 9, 76, 32
5, 206116, Note_on_c, 9, 76, 0
5, 206144, Note_on_c, 9, 76, 27
5, 206172, Note_on_c, 9, 51, 55
5, 206172, Note_on_c, 9, 64, 34
5, 206180, Note_on_c, 9, 76, 0
5, 206208, Note_on_c, 9, 51, 0
5, 206236, Note_on_c, 9, 64, 0
5, 206356, Note_on_c, 9, 76, 55
5, 206364, Note_on_c, 9, 64, 39
5, 206368, Note_on_c, 9, 35, 25
5, 206368, Note_on_c, 9, 51, 74
5, 206384, Note_on_c, 9, 76, 0
5, 206388, Note_on_c, 9, 35, 0
5, 206432, Note_on_c, 9, 64, 0
5, 206444, Note_on_c, 9, 51, 0
5, 206540, Note_on_c, 9, 76, 59
5, 206556, Note_on_c, 9, 35, 55
5, 206568, Note_on_c, 9, 76, 0
5, 206632, Note_on_c, 9, 35, 0
5, 206748, Note_on_c, 9, 51, 72
5, 206804, Note_on_c, 9, 51, 0
5, 206940, Note_on_c, 9, 51, 45
5, 206940, Note_on_c, 9, 63, 42
5, 206976, Note_on_c, 9, 51, 0
5, 207012, Note_on_c, 9, 63, 0
5, 207132, Note_on_c, 9, 63, 42
5, 207136, Note_on_c, 9, 51, 56
5, 207140, Note_on_c, 9, 35, 35
5, 207156, Note_on_c, 9, 51, 0
5, 207172, Note_on_c, 9, 35, 0
5, 207220, Note_on_c, 9, 63, 0
5, 207324, Note_on_c, 9, 35, 55
5, 207324, Note_on_c, 9, 51, 74
5, 207428, Note_on_c, 9, 35, 0
5, 207480, Note_on_c, 9, 51, 0
5, 207596, Note_on_c, 9, 76, 23
5, 207628, Note_on_c, 9, 76, 0
5, 207664, Note_on_c, 9, 76, 29
5, 207692, Note_on_c, 9, 76, 0
5, 207708, Note_on_c, 9, 64, 32
5, 207708, Note_on_c, 9, 51, 27
5, 207744, Note_on_c, 9, 76, 64
5, 207756, Note_on_c, 9, 51, 0
5, 207764, Note_on_c, 9, 76, 0
5, 207784, Note_on_c, 9, 64, 0
5, 207900, Note_on_c, 9, 64, 45
5, 207904, Note_on_c, 9, 51, 75
5, 207908, Note_on_c, 9, 35, 44
5, 207932, Note_on_c, 9, 35, 0
5, 207940, Note_on_c, 9, 76, 36
5, 207968, Note_on_c, 9, 76, 0
5, 207984, Note_on_c, 9, 64, 0
5, 208080, Note_on_c, 9, 51, 0
5, 208092, Note_on_c, 9, 35, 49
5, 208180, Note_on_c, 9, 35, 0
5, 208228, Note_on_c, 9, 76, 28
5, 208248, Note_on_c, 9, 76, 0
5, 208284, Note_on_c, 9, 51, 55
5, 208300, Note_on_c, 9, 76, 53
5, 208328, Note_on_c, 9, 51, 0
5, 208332, Note_on_c, 9, 76, 0
5, 208380, Note_on_c, 9, 76, 40
5, 208420, Note_on_c, 9, 76, 0
5, 208476, Note_on_c, 9, 51, 52
5, 208476, Note_on_c, 9, 63, 41
5, 208484, Note_on_c, 9, 76, 56
5, 208492, Note_on_c, 9, 63, 0
5, 208532, Note_on_c, 9, 76, 0
5, 208540, Note_on_c, 9, 51, 0
5, 208668, Note_on_c, 9, 63, 50
5, 208672, Note_on_c, 9, 51, 46
5, 208676, Note_on_c, 9, 35, 41
5, 208676, Note_on_c, 9, 76, 64
5, 208704, Note_on_c, 9, 35, 0
5, 208712, Note_on_c, 9, 51, 0
5, 208716, Note_on_c, 9, 63, 0
5, 208720, Note_on_c, 9, 76, 0
5, 208848, Note_on_c, 9, 76, 65
5, 208860, Note_on_c, 9, 51, 79
5, 208860, Note_on_c, 9, 35, 53
5, 208912, Note_on_c, 9, 76, 0
5, 209016, Note_on_c, 9, 51, 0
5, 209044, Note_on_c, 9, 35, 0
5, 209244, Note_on_c, 9, 51, 73
5, 209244, Note_on_c, 9, 64, 31
5, 209320, Note_on_c, 9, 64, 0
5, 209348, Note_on_c, 9, 51, 0
5, 209436, Note_on_c, 9, 64, 48
5, 209440, Note_on_c, 9, 35, 43
5, 209452, Note_on_c, 9, 77, 37
5, 209460, Note_on_c, 9, 35, 0
5, 209476, Note_on_c, 9, 77, 0
5, 209532, Note_on_c, 9, 64, 0
5, 209628, Note_on_c, 9, 35, 57
5, 209628, Note_on_c, 9, 51, 74
5, 209632, Note_on_c, 9, 77, 53
5, 209664, Note_on_c, 9, 77, 0
5, 209740, Note_on_c, 9, 35, 0
5, 209772, Note_on_c, 9, 51, 0
5, 210012, Note_on_c, 9, 63, 54
5, 210112, Note_on_c, 9, 63, 0
5, 210204, Note_on_c, 9, 63, 54
5, 210208, Note_on_c, 9, 51, 67
5, 210212, Note_on_c, 9, 35, 37
5, 210212, Note_on_c, 9, 35, 0
5, 210248, Note_on_c, 9, 63, 0
5, 210300, Note_on_c, 9, 51, 0
5, 210396, Note_on_c, 9, 35, 55
5, 210452, Note_on_c, 9, 35, 0
5, 210588, Note_on_c, 9, 51, 72
5, 210668, Note_on_c, 9, 51, 0
5, 210780, Note_on_c, 9, 64, 24
5, 210880, Note_on_c, 9, 64, 0
5, 210972, Note_on_c, 9, 64, 48
5, 210976, Note_on_c, 9, 51, 62
5, 210980, Note_on_c, 9, 35, 48
5, 210980, Note_on_c, 9, 35, 0
5, 210992, Note_on_c, 9, 77, 23
5, 211008, Note_on_c, 9, 51, 0
5, 211016, Note_on_c, 9, 77, 0
5, 211084, Note_on_c, 9, 64, 0
5, 211164, Note_on_c, 9, 51, 75
5, 211164, Note_on_c, 9, 35, 54
5, 211176, Note_on_c, 9, 77, 22
5, 211212, Note_on_c, 9, 77, 0
5, 211296, Note_on_c, 9, 35, 0
5, 211392, Note_on_c, 9, 51, 0
5, 211540, Note_on_c, 9, 54, 68
5, 211552, Note_on_c, 9, 63, 39
5, 211552, Note_on_c, 9, 53, 72
5, 211604, Note_on_c, 9, 53, 0
5, 211608, Note_on_c, 9, 54, 0
5, 211620, Note_on_c, 9, 63, 0
5, 211740, Note_on_c, 9, 63, 52
5, 211744, Note_on_c, 9, 35, 30
5, 211748, Note_on_c, 9, 35, 0
5, 211876, Note_on_c, 9, 63, 0
5, 211932, Note_on_c, 9, 51, 62
5, 211932, Note_on_c, 9, 53, 68
5, 211944, Note_on_c, 9, 35, 56
5, 211944, Note_on_c, 9, 77, 25
5, 211996, Note_on_c, 9, 53, 0
5, 212004, Note_on_c, 9, 77, 0
5, 212008, Note_on_c, 9, 51, 0
5, 212076, Note_on_c, 9, 35, 0
5, 212316, Note_on_c, 9, 64, 37
5, 212364, Note_on_c, 9, 64, 0
5, 212512, Note_on_c, 9, 51, 58
5, 212512, Note_on_c, 9, 53, 59
5, 212512, Note_on_c, 9, 64, 39
5, 212516, Note_on_c, 9, 35, 36
5, 212532, Note_on_c, 9, 51, 0
5, 212540, Note_on_c, 9, 35, 0
5, 212576, Note_on_c, 9, 53, 0
5, 212608, Note_on_c, 9, 64, 0
5, 212672, Note_on_c, 9, 77, 19
5, 212700, Note_on_c, 9, 51, 62
5, 212700, Note_on_c, 9, 35, 53
5, 212712, Note_on_c, 9, 77, 0
5, 212776, Note_on_c, 9, 51, 0
5, 212868, Note_on_c, 9, 35, 0
5, 212892, Note_on_c, 9, 51, 55
5, 212900, Note_on_c, 9, 77, 37
5, 212924, Note_on_c, 9, 77, 0
5, 212932, Note_on_c, 9, 51, 0
5, 213084, Note_on_c, 9, 63, 40
5, 213092, Note_on_c, 9, 77, 45
5, 213132, Note_on_c, 9, 77, 0
5, 213172, Note_on_c, 9, 63, 0
5, 213276, Note_on_c, 9, 63, 43
5, 213280, Note_on_c, 9, 51, 78
5, 213284, Note_on_c, 9, 35, 40
5, 213296, Note_on_c, 9, 35, 0
5, 213388, Note_on_c, 9, 63, 0
5, 213412, Note_on_c, 9, 51, 0
5, 213468, Note_on_c, 9, 35, 53
5, 213636, Note_on_c, 9, 35, 0
5, 213660, Note_on_c, 9, 51, 74
5, 213796, Note_on_c, 9, 51, 0
5, 213852, Note_on_c, 9, 64, 34
5, 213940, Note_on_c, 9, 64, 0
5, 214044, Note_on_c, 9, 64, 47
5, 214048, Note_on_c, 9, 51, 67
5, 214052, Note_on_c, 9, 35, 34
5, 214052, Note_on_c, 9, 77, 33
5, 214100, Note_on_c, 9, 35, 0
5, 214112, Note_on_c, 9, 77, 0
5, 214124, Note_on_c, 9, 51, 0
5, 214140, Note_on_c, 9, 64, 0
5, 214236, Note_on_c, 9, 51, 71
5, 214236, Note_on_c, 9, 35, 61
5, 214248, Note_on_c, 9, 77, 31
5, 214304, Note_on_c, 9, 77, 0
5, 214336, Note_on_c, 9, 51, 0
5, 214428, Note_on_c, 9, 53, 74
5, 214432, Note_on_c, 9, 51, 80
5, 214540, Note_on_c, 9, 53, 0
5, 214548, Note_on_c, 9, 51, 0
5, 214552, Note_on_c, 9, 35, 0
5, 214608, Note_on_c, 9, 54, 68
5, 214620, Note_on_c, 9, 63, 38
5, 214620, Note_on_c, 9, 51, 38
5, 214656, Note_on_c, 9, 54, 0
5, 214688, Note_on_c, 9, 63, 0
5, 214696, Note_on_c, 9, 51, 0
5, 214812, Note_on_c, 9, 63, 44
5, 214816, Note_on_c, 9, 51, 37
5, 214880, Note_on_c, 9, 51, 0
5, 214924, Note_on_c, 9, 63, 0
5, 215004, Note_on_c, 9, 51, 76
5, 215004, Note_on_c, 9, 35, 59
5, 215016, Note_on_c, 9, 77, 34
5, 215040, Note_on_c, 9, 77, 0
5, 215148, Note_on_c, 9, 51, 0
5, 215296, Note_on_c, 9, 35, 0
5, 215388, Note_on_c, 9, 64, 41
5, 215388, Note_on_c, 9, 51, 50
5, 215424, Note_on_c, 9, 51, 0
5, 215488, Note_on_c, 9, 64, 0
5, 215580, Note_on_c, 9, 64, 48
5, 215584, Note_on_c, 9, 51, 76
5, 215588, Note_on_c, 9, 35, 54
5, 215648, Note_on_c, 9, 35, 0
5, 215680, Note_on_c, 9, 64, 0
5, 215740, Note_on_c, 9, 77, 20
5, 215756, Note_on_c, 9, 51, 0
5, 215764, Note_on_c, 9, 77, 0
5, 215772, Note_on_c, 9, 35, 64
5, 215952, Note_on_c, 9, 77, 62
5, 215980, Note_on_c, 9, 77, 0
5, 216008, Note_on_c, 9, 35, 0
5, 216144, Note_on_c, 9, 77, 60
5, 216156, Note_on_c, 9, 51, 72
5, 216156, Note_on_c, 9, 63, 57
5, 216180, Note_on_c, 9, 77, 0
5, 216244, Note_on_c, 9, 63, 0
5, 216312, Note_on_c, 9, 51, 0
5, 216348, Note_on_c, 9, 63, 56
5, 216352, Note_on_c, 9, 35, 45
5, 216368, Note_on_c, 9, 77, 27
5, 216392, Note_on_c, 9, 77, 0
5, 216416, Note_on_c, 9, 35, 0
5, 216460, Note_on_c, 9, 63, 0
5, 216540, Note_on_c, 9, 35, 62
5, 216540, Note_on_c, 9, 51, 28
5, 216596, Note_on_c, 9, 51, 0
5, 216732, Note_on_c, 9, 51, 68
5, 216896, Note_on_c, 9, 51, 0
5, 216908, Note_on_c, 9, 35, 0
5, 216924, Note_on_c, 9, 64, 41
5, 217024, Note_on_c, 9, 64, 0
5, 217116, Note_on_c, 9, 64, 47
5, 217120, Note_on_c, 9, 51, 52
5, 217124, Note_on_c, 9, 35, 54
5, 217148, Note_on_c, 9, 51, 0
5, 217160, Note_on_c, 9, 35, 0
5, 217296, Note_on_c, 9, 64, 0
5, 217308, Note_on_c, 9, 35, 60
5, 217308, Note_on_c, 9, 51, 68
5, 217324, Note_on_c, 9, 54, 33
5, 217344, Note_on_c, 9, 54, 0
5, 217408, Note_on_c, 9, 51, 0
5, 217488, Note_on_c, 9, 35, 0
5, 217500, Note_on_c, 9, 51, 40
5, 217512, Note_on_c, 9, 54, 59
5, 217536, Note_on_c, 9, 54, 0
5, 217588, Note_on_c, 9, 51, 0
5, 217692, Note_on_c, 9, 63, 48
5, 217692, Note_on_c, 9, 51, 29
5, 217704, Note_on_c, 9, 54, 65
5, 217728, Note_on_c, 9, 51, 0
5, 217736, Note_on_c, 9, 54, 0
5, 217820, Note_on_c, 9, 63, 0
5, 217884, Note_on_c, 9, 63, 54
5, 217888, Note_on_c, 9, 51, 64
5, 217892, Note_on_c, 9, 35, 43
5, 217904, Note_on_c, 9, 77, 35
5, 217928, Note_on_c, 9, 35, 0
5, 217932, Note_on_c, 9, 77, 0
5, 217952, Note_on_c, 9, 51, 0
5, 218044, Note_on_c, 9, 63, 0
5, 218076, Note_on_c, 9, 51, 77
5, 218076, Note_on_c, 9, 35, 66
5, 218256, Note_on_c, 9, 51, 0
5, 218268, Note_on_c, 9, 77, 26
5, 218304, Note_on_c, 9, 77, 0
5, 218352, Note_on_c, 9, 35, 0
5, 218460, Note_on_c, 9, 64, 43
5, 218460, Note_on_c, 9, 77, 48
5, 218528, Note_on_c, 9, 64, 0
5, 218536, Note_on_c, 9, 77, 0
5, 218652, Note_on_c, 9, 64, 45
5, 218656, Note_on_c, 9, 51, 57
5, 218660, Note_on_c, 9, 35, 56
5, 218692, Note_on_c, 9, 35, 0
5, 218732, Note_on_c, 9, 51, 0
5, 218776, Note_on_c, 9, 64, 0
5, 218844, Note_on_c, 9, 35, 66
5, 218844, Note_on_c, 9, 51, 71
5, 218960, Note_on_c, 9, 51, 0
5, 219036, Note_on_c, 9, 51, 46
5, 219068, Note_on_c, 9, 35, 0
5, 219116, Note_on_c, 9, 51, 0
5, 219228, Note_on_c, 9, 63, 54
5, 219328, Note_on_c, 9, 63, 0
5, 219408, Note_on_c, 9, 77, 39
5, 219420, Note_on_c, 9, 63, 40
5, 219424, Note_on_c, 9, 51, 74
5, 219428, Note_on_c, 9, 35, 50
5, 219476, Note_on_c, 9, 77, 0
5, 219500, Note_on_c, 9, 35, 0
5, 219516, Note_on_c, 9, 63, 0
5, 219568, Note_on_c, 9, 51, 0
5, 219600, Note_on_c, 9, 77, 36
5, 219612, Note_on_c, 9, 35, 66
5, 219680, Note_on_c, 9, 77, 0
5, 219804, Note_on_c, 9, 51, 67
5, 219848, Note_on_c, 9, 35, 0
5, 219952, Note_on_c, 9, 51, 0
5, 219996, Note_on_c, 9, 64, 34
5, 220060, Note_on_c, 9, 64, 0
5, 220188, Note_on_c, 9, 64, 45
5, 220192, Note_on_c, 9, 51, 77
5, 220196, Note_on_c, 9, 35, 63
5, 220204, Note_on_c, 9, 77, 55
5, 220232, Note_on_c, 9, 77, 0
5, 220284, Note_on_c, 9, 64, 0
5, 220304, Note_on_c, 9, 35, 0
5, 220312, Note_on_c, 9, 51, 0
5, 220380, Note_on_c, 9, 35, 62
5, 220572, Note_on_c, 9, 51, 59
5, 220640, Note_on_c, 9, 51, 0
5, 220640, Note_on_c, 9, 35, 0
5, 220764, Note_on_c, 9, 63, 44
5, 220764, Note_on_c, 9, 51, 36
5, 220816, Note_on_c, 9, 51, 0
5, 220828, Note_on_c, 9, 63, 0
5, 220956, Note_on_c, 9, 63, 50
5, 220960, Note_on_c, 9, 51, 54
5, 220964, Note_on_c, 9, 35, 69
5, 220976, Note_on_c, 9, 51, 0
5, 221068, Note_on_c, 9, 35, 0
5, 221092, Note_on_c, 9, 63, 0
5, 221148, Note_on_c, 9, 51, 69
5, 221152, Note_on_c, 9, 35, 64
5, 221164, Note_on_c, 9, 77, 41
5, 221220, Note_on_c, 9, 77, 0
5, 221260, Note_on_c, 9, 51, 0
5, 221344, Note_on_c, 9, 35, 0
5, 221532, Note_on_c, 9, 51, 49
5, 221532, Note_on_c, 9, 64, 43
5, 221568, Note_on_c, 9, 51, 0
5, 221620, Note_on_c, 9, 64, 0
5, 221728, Note_on_c, 9, 51, 47
5, 221728, Note_on_c, 9, 64, 46
5, 221732, Note_on_c, 9, 35, 56
5, 221732, Note_on_c, 9, 77, 40
5, 221760, Note_on_c, 9, 77, 0
5, 221768, Note_on_c, 9, 51, 0
5, 221780, Note_on_c, 9, 35, 0
5, 221848, Note_on_c, 9, 64, 0
5, 221916, Note_on_c, 9, 35, 64
5, 221916, Note_on_c, 9, 51, 65
5, 221992, Note_on_c, 9, 51, 0
5, 222072, Note_on_c, 9, 35, 0
5, 222108, Note_on_c, 9, 51, 32
5, 222188, Note_on_c, 9, 51, 0
5, 222300, Note_on_c, 9, 63, 50
5, 222308, Note_on_c, 9, 77, 59
5, 222388, Note_on_c, 9, 63, 0
5, 222436, Note_on_c, 9, 77, 0
5, 222492, Note_on_c, 9, 63, 54
5, 222496, Note_on_c, 9, 51, 67
5, 222500, Note_on_c, 9, 35, 45
5, 222508, Note_on_c, 9, 77, 51
5, 222524, Note_on_c, 9, 35, 0
5, 222580, Note_on_c, 9, 63, 0
5, 222580, Note_on_c, 9, 51, 0
5, 222596, Note_on_c, 9, 77, 0
5, 222684, Note_on_c, 9, 35, 64
5, 222852, Note_on_c, 9, 35, 0
5, 222876, Note_on_c, 9, 51, 69
5, 222944, Note_on_c, 9, 51, 0
5, 223068, Note_on_c, 9, 64, 37
5, 223144, Note_on_c, 9, 64, 0
5, 223260, Note_on_c, 9, 64, 49
5, 223264, Note_on_c, 9, 51, 67
5, 223268, Note_on_c, 9, 35, 49
5, 223292, Note_on_c, 9, 35, 0
5, 223304, Note_on_c, 9, 51, 0
5, 223396, Note_on_c, 9, 64, 0
5, 223452, Note_on_c, 9, 51, 67
5, 223452, Note_on_c, 9, 35, 59
5, 223564, Note_on_c, 9, 35, 0
5, 223580, Note_on_c, 9, 51, 0
5, 223712, Note_on_c, 9, 77, 27
5, 223740, Note_on_c, 9, 77, 0
5, 223792, Note_on_c, 9, 77, 45
5, 223824, Note_on_c, 9, 77, 0
5, 223836, Note_on_c, 9, 63, 43
5, 223836, Note_on_c, 9, 51, 46
5, 223844, Note_on_c, 9, 51, 0
5, 223888, Note_on_c, 9, 77, 57
5, 223948, Note_on_c, 9, 63, 0
5, 223952, Note_on_c, 9, 77, 0
5, 224028, Note_on_c, 9, 63, 61
5, 224032, Note_on_c, 9, 51, 49
5, 224036, Note_on_c, 9, 35, 47
5, 224048, Note_on_c, 9, 51, 0
5, 224072, Note_on_c, 9, 35, 0
5, 224076, Note_on_c, 9, 77, 57
5, 224124, Note_on_c, 9, 77, 0
5, 224192, Note_on_c, 9, 63, 0
5, 224220, Note_on_c, 9, 35, 60
5, 224256, Note_on_c, 9, 77, 61
5, 224320, Note_on_c, 9, 77, 0
5, 224364, Note_on_c, 9, 35, 0
5, 224412, Note_on_c, 9, 51, 67
5, 224432, Note_on_c, 9, 77, 50
5, 224456, Note_on_c, 9, 77, 0
5, 224492, Note_on_c, 9, 51, 0
5, 224604, Note_on_c, 9, 64, 31
5, 224616, Note_on_c, 9, 77, 62
5, 224668, Note_on_c, 9, 64, 0
5, 224676, Note_on_c, 9, 77, 0
5, 224796, Note_on_c, 9, 64, 50
5, 224800, Note_on_c, 9, 51, 58
5, 224804, Note_on_c, 9, 35, 44
5, 224832, Note_on_c, 9, 35, 0
5, 224840, Note_on_c, 9, 51, 0
5, 224960, Note_on_c, 9, 64, 0
5, 224988, Note_on_c, 9, 35, 58
5, 224988, Note_on_c, 9, 51, 68
5, 225064, Note_on_c, 9, 35, 0
5, 225180, Note_on_c, 9, 51, 0
5, 225372, Note_on_c, 9, 63, 39
5, 225372, Note_on_c, 9, 51, 36
5, 225396, Note_on_c, 9, 51, 0
5, 225472, Note_on_c, 9, 63, 0
5, 225564, Note_on_c, 9, 63, 46
5, 225568, Note_on_c, 9, 51, 78
5, 225572, Note_on_c, 9, 35, 35
5, 225600, Note_on_c, 9, 35, 0
5, 225712, Note_on_c, 9, 63, 0
5, 225716, Note_on_c, 9, 51, 0
5, 225756, Note_on_c, 9, 35, 64
5, 225876, Note_on_c, 9, 35, 0
5, 225948, Note_on_c, 9, 51, 45
5, 225988, Note_on_c, 9, 51, 0
5, 226140, Note_on_c, 9, 64, 34
5, 226140, Note_on_c, 9, 51, 73
5, 226240, Note_on_c, 9, 64, 0
5, 226332, Note_on_c, 9, 64, 55
5, 226336, Note_on_c, 9, 35, 41
5, 226340, Note_on_c, 9, 35, 0
5, 226348, Note_on_c, 9, 51, 0
5, 226496, Note_on_c, 9, 64, 0
5, 226524, Note_on_c, 9, 51, 29
5, 226524, Note_on_c, 9, 35, 63
5, 226560, Note_on_c, 9, 51, 0
5, 226628, Note_on_c, 9, 35, 0
5, 226716, Note_on_c, 9, 51, 67
5, 226784, Note_on_c, 9, 51, 0
5, 226908, Note_on_c, 9, 63, 42
5, 226908, Note_on_c, 9, 51, 21
5, 226944, Note_on_c, 9, 51, 0
5, 226996, Note_on_c, 9, 63, 0
5, 227100, Note_on_c, 9, 63, 40
5, 227104, Note_on_c, 9, 51, 49
5, 227116, Note_on_c, 9, 77, 28
5, 227136, Note_on_c, 9, 51, 0
5, 227144, Note_on_c, 9, 77, 0
5, 227216, Note_on_c, 9, 63, 0
5, 227292, Note_on_c, 9, 35, 63
5, 227292, Note_on_c, 9, 51, 74
5, 227304, Note_on_c, 9, 77, 38
5, 227380, Note_on_c, 9, 51, 0
5, 227436, Note_on_c, 9, 77, 0
5, 227484, Note_on_c, 9, 51, 42
5, 227500, Note_on_c, 9, 77, 46
5, 227508, Note_on_c, 9, 35, 0
5, 227580, Note_on_c, 9, 77, 0
5, 227588, Note_on_c, 9, 51, 0
5, 227676, Note_on_c, 9, 51, 53
5, 227676, Note_on_c, 9, 64, 35
5, 227684, Note_on_c, 9, 77, 36
5, 227688, Note_on_c, 9, 51, 0
5, 227744, Note_on_c, 9, 77, 0
5, 227752, Note_on_c, 9, 64, 0
5, 227868, Note_on_c, 9, 64, 48
5, 227872, Note_on_c, 9, 51, 80
5, 227876, Note_on_c, 9, 35, 54
5, 227904, Note_on_c, 9, 35, 0
5, 227980, Note_on_c, 9, 64, 0
5, 228060, Note_on_c, 9, 35, 66
5, 228096, Note_on_c, 9, 51, 0
5, 228148, Note_on_c, 9, 35, 0
5, 228252, Note_on_c, 9, 51, 74
5, 228368, Note_on_c, 9, 51, 0
5, 228444, Note_on_c, 9, 63, 48
5, 228516, Note_on_c, 9, 63, 0
5, 228636, Note_on_c, 9, 63, 38
5, 228640, Note_on_c, 9, 51, 72
5, 228644, Note_on_c, 9, 35, 47
5, 228656, Note_on_c, 9, 35, 0
5, 228720, Note_on_c, 9, 51, 0
5, 228732, Note_on_c, 9, 63, 0
5, 228828, Note_on_c, 9, 35, 66
5, 228928, Note_on_c, 9, 35, 0
5, 229020, Note_on_c, 9, 51, 74
5, 229116, Note_on_c, 9, 51, 0
5, 229212, Note_on_c, 9, 64, 33
5, 229284, Note_on_c, 9, 64, 0
5, 229404, Note_on_c, 9, 64, 44
5, 229408, Note_on_c, 9, 51, 36
5, 229412, Note_on_c, 9, 35, 52
5, 229412, Note_on_c, 9, 35, 0
5, 229460, Note_on_c, 9, 51, 0
5, 229484, Note_on_c, 9, 64, 0
5, 229596, Note_on_c, 9, 35, 60
5, 229596, Note_on_c, 9, 51, 72
5, 229648, Note_on_c, 9, 35, 0
5, 229740, Note_on_c, 9, 51, 0
5, 229980, Note_on_c, 9, 51, 46
5, 229980, Note_on_c, 9, 63, 55
5, 230016, Note_on_c, 9, 51, 0
5, 230084, Note_on_c, 9, 63, 0
5, 230172, Note_on_c, 9, 63, 50
5, 230176, Note_on_c, 9, 51, 68
5, 230180, Note_on_c, 9, 35, 45
5, 230240, Note_on_c, 9, 35, 0
5, 230268, Note_on_c, 9, 63, 0
5, 230320, Note_on_c, 9, 51, 0
5, 230364, Note_on_c, 9, 35, 66
5, 230372, Note_on_c, 9, 76, 55
5, 230404, Note_on_c, 9, 76, 0
5, 230556, Note_on_c, 9, 51, 67
5, 230628, Note_on_c, 9, 35, 0
5, 230632, Note_on_c, 9, 76, 26
5, 230656, Note_on_c, 9, 76, 0
5, 230676, Note_on_c, 9, 51, 0
5, 230704, Note_on_c, 9, 76, 36
5, 230724, Note_on_c, 9, 76, 0
5, 230748, Note_on_c, 9, 64, 39
5, 230772, Note_on_c, 9, 76, 34
5, 230796, Note_on_c, 9, 64, 0
5, 230800, Note_on_c, 9, 76, 0
5, 230940, Note_on_c, 9, 64, 47
5, 230944, Note_on_c, 9, 51, 40
5, 230948, Note_on_c, 9, 35, 46
5, 230960, Note_on_c, 9, 76, 47
5, 230976, Note_on_c, 9, 64, 0
5, 230984, Note_on_c, 9, 35, 0
5, 230988, Note_on_c, 9, 76, 0
5, 230996, Note_on_c, 9, 51, 0
5, 231132, Note_on_c, 9, 35, 65
5, 231132, Note_on_c, 9, 51, 76
5, 231144, Note_on_c, 9, 76, 35
5, 231172, Note_on_c, 9, 76, 0
5, 231276, Note_on_c, 9, 35, 0
5, 231288, Note_on_c, 9, 51, 0
5, 231444, Note_on_c, 9, 76, 5
5, 231484, Note_on_c, 9, 76, 0
5, 231516, Note_on_c, 9, 63, 43
5, 231540, Note_on_c, 9, 76, 23
5, 231556, Note_on_c, 9, 63, 0
5, 231572, Note_on_c, 9, 76, 0
5, 231708, Note_on_c, 9, 63, 54
5, 231712, Note_on_c, 9, 51, 72
5, 231716, Note_on_c, 9, 35, 51
5, 231740, Note_on_c, 9, 35, 0
5, 231744, Note_on_c, 9, 76, 53
5, 231776, Note_on_c, 9, 76, 0
5, 231780, Note_on_c, 9, 63, 0
5, 231832, Note_on_c, 9, 51, 0
5, 231900, Note_on_c, 9, 35, 68
5, 232044, Note_on_c, 9, 76, 27
5, 232052, Note_on_c, 9, 35, 0
5, 232068, Note_on_c, 9, 76, 0
5, 232092, Note_on_c, 9, 51, 72
5, 232124, Note_on_c, 9, 76, 44
5, 232148, Note_on_c, 9, 76, 0
5, 232176, Note_on_c, 9, 76, 26
5, 232196, Note_on_c, 9, 51, 0
5, 232212, Note_on_c, 9, 76, 0
5, 232284, Note_on_c, 9, 64, 38
5, 232296, Note_on_c, 9, 64, 0
5, 232360, Note_on_c, 9, 76, 55
5, 232388, Note_on_c, 9, 76, 0
5, 232476, Note_on_c, 9, 64, 52
5, 232480, Note_on_c, 9, 51, 55
5, 232484, Note_on_c, 9, 64, 0
5, 232484, Note_on_c, 9, 35, 47
5, 232508, Note_on_c, 9, 35, 0
5, 232532, Note_on_c, 9, 51, 0
5, 232668, Note_on_c, 9, 35, 58
5, 232668, Note_on_c, 9, 51, 50
5, 232756, Note_on_c, 9, 35, 0
5, 232768, Note_on_c, 9, 51, 0
5, 232860, Note_on_c, 9, 51, 47
5, 232876, Note_on_c, 9, 76, 40
5, 232904, Note_on_c, 9, 51, 0
5, 232908, Note_on_c, 9, 76, 0
5, 233052, Note_on_c, 9, 63, 57
5, 233052, Note_on_c, 9, 51, 48
5, 233056, Note_on_c, 9, 76, 31
5, 233088, Note_on_c, 9, 76, 0
5, 233152, Note_on_c, 9, 51, 0
5, 233152, Note_on_c, 9, 63, 0
5, 233244, Note_on_c, 9, 63, 56
5, 233248, Note_on_c, 9, 51, 37
5, 233252, Note_on_c, 9, 35, 40
5, 233252, Note_on_c, 9, 76, 32
5, 233268, Note_on_c, 9, 76, 0
5, 233300, Note_on_c, 9, 51, 0
5, 233312, Note_on_c, 9, 63, 0
5, 233324, Note_on_c, 9, 35, 0
5, 233436, Note_on_c, 9, 51, 70
5, 233436, Note_on_c, 9, 35, 67
5, 233440, Note_on_c, 9, 76, 55
5, 233472, Note_on_c, 9, 76, 0
5, 233660, Note_on_c, 9, 35, 0
5, 233696, Note_on_c, 9, 51, 0
5, 233820, Note_on_c, 9, 37, 17
5, 233908, Note_on_c, 9, 37, 0
5, 234012, Note_on_c, 9, 37, 21
5, 234016, Note_on_c, 9, 51, 36
5, 234020, Note_on_c, 9, 35, 51
5, 234056, Note_on_c, 9, 35, 0
5, 234068, Note_on_c, 9, 51, 0
5, 234096, Note_on_c, 9, 37, 0
5, 234204, Note_on_c, 9, 35, 66
5, 234204, Note_on_c, 9, 51, 60
5, 234332, Note_on_c, 9, 35, 0
5, 234352, Note_on_c, 9, 51, 0
5, 234588, Note_on_c, 9, 51, 44
5, 234588, Note_on_c, 9, 37, 26
5, 234640, Note_on_c, 9, 51, 0
5, 234676, Note_on_c, 9, 37, 0
5, 234780, Note_on_c, 9, 37, 31
5, 234784, Note_on_c, 9, 51, 78
5, 234788, Note_on_c, 9, 35, 35
5, 234836, Note_on_c, 9, 35, 0
5, 234864, Note_on_c, 9, 37, 0
5, 234928, Note_on_c, 9, 51, 0
5, 234972, Note_on_c, 9, 35, 64
5, 235164, Note_on_c, 9, 51, 69
5, 235208, Note_on_c, 9, 35, 0
5, 235264, Note_on_c, 9, 51, 0
5, 235356, Note_on_c, 9, 37, 25
5, 235420, Note_on_c, 9, 37, 0
5, 235548, Note_on_c, 9, 37, 31
5, 235552, Note_on_c, 9, 51, 55
5, 235556, Note_on_c, 9, 35, 49
5, 235592, Note_on_c, 9, 51, 0
5, 235604, Note_on_c, 9, 35, 0
5, 235628, Note_on_c, 9, 37, 0
5, 235740, Note_on_c, 9, 51, 69
5, 235740, Note_on_c, 9, 35, 56
5, 235876, Note_on_c, 9, 35, 0
5, 235884, Note_on_c, 9, 51, 0
5, 236124, Note_on_c, 9, 37, 31
5, 236188, Note_on_c, 9, 37, 0
5, 236316, Note_on_c, 9, 37, 28
5, 236320, Note_on_c, 9, 35, 32
5, 236360, Note_on_c, 9, 35, 0
5, 236384, Note_on_c, 9, 37, 0
5, 236508, Note_on_c, 9, 35, 60
5, 236508, Note_on_c, 9, 51, 69
5, 236580, Note_on_c, 9, 51, 0
5, 236676, Note_on_c, 9, 35, 0
5, 236700, Note_on_c, 9, 51, 60
5, 236744, Note_on_c, 9, 51, 0
5, 236892, Note_on_c, 9, 51, 53
5, 236892, Note_on_c, 9, 37, 21
5, 236908, Note_on_c, 9, 51, 0
5, 236948, Note_on_c, 9, 37, 0
5, 237084, Note_on_c, 9, 37, 35
5, 237088, Note_on_c, 9, 51, 62
5, 237092, Note_on_c, 9, 35, 32
5, 237104, Note_on_c, 9, 77, 35
5, 237124, Note_on_c, 9, 77, 0
5, 237124, Note_on_c, 9, 35, 0
5, 237128, Note_on_c, 9, 51, 0
5, 237152, Note_on_c, 9, 37, 0
5, 237276, Note_on_c, 9, 51, 79
5, 237276, Note_on_c, 9, 35, 62
5, 237364, Note_on_c, 9, 35, 0
5, 237392, Note_on_c, 9, 51, 0
5, 237652, Note_on_c, 9, 77, 40
5, 237660, Note_on_c, 9, 37, 21
5, 237660, Note_on_c, 9, 51, 40
5, 237696, Note_on_c, 9, 51, 0
5, 237736, Note_on_c, 9, 37, 0
5, 237744, Note_on_c, 9, 77, 0
5, 237852, Note_on_c, 9, 37, 20
5, 237856, Note_on_c, 9, 51, 74
5, 237860, Note_on_c, 9, 35, 39
5, 237932, Note_on_c, 9, 37, 0
5, 237952, Note_on_c, 9, 35, 0
5, 238044, Note_on_c, 9, 35, 62
5, 238188, Note_on_c, 9, 51, 0
5, 238236, Note_on_c, 9, 53, 67
5, 238280, Note_on_c, 9, 35, 0
5, 238316, Note_on_c, 9, 53, 0
5, 238428, Note_on_c, 9, 51, 28
5, 238428, Note_on_c, 9, 37, 22
5, 238492, Note_on_c, 9, 37, 0
5, 238528, Note_on_c, 9, 51, 0
5, 238620, Note_on_c, 9, 37, 33
5, 238624, Note_on_c, 9, 53, 61
5, 238628, Note_on_c, 9, 35, 50
5, 238656, Note_on_c, 9, 35, 0
5, 238704, Note_on_c, 9, 37, 0
5, 238720, Note_on_c, 9, 53, 0
5, 238812, Note_on_c, 9, 35, 62
5, 238812, Note_on_c, 9, 51, 67
5, 238824, Note_on_c, 9, 54, 62
5, 238912, Note_on_c, 9, 35, 0
5, 238928, Note_on_c, 9, 54, 0
5, 239036, Note_on_c, 9, 51, 0
5, 239196, Note_on_c, 9, 37, 27
5, 239196, Note_on_c, 9, 51, 59
5, 239296, Note_on_c, 9, 37, 0
5, 239308, Note_on_c, 9, 51, 0
5, 239388, Note_on_c, 9, 37, 28
5, 239392, Note_on_c, 9, 51, 49
5, 239396, Note_on_c, 9, 35, 51
5, 239408, Note_on_c, 9, 77, 33
5, 239444, Note_on_c, 9, 35, 0
5, 239460, Note_on_c, 9, 77, 0
5, 239468, Note_on_c, 9, 51, 0
5, 239484, Note_on_c, 9, 37, 0
5, 239580, Note_on_c, 9, 51, 74
5, 239580, Note_on_c, 9, 35, 64
5, 239592, Note_on_c, 9, 77, 57
5, 239680, Note_on_c, 9, 77, 0
5, 239748, Note_on_c, 9, 35, 0
5, 239760, Note_on_c, 9, 51, 0
5, 239788, Note_on_c, 9, 77, 42
5, 239840, Note_on_c, 9, 77, 0
5, 239964, Note_on_c, 9, 51, 53
5, 239964, Note_on_c, 9, 37, 26
5, 239980, Note_on_c, 9, 77, 55
5, 240020, Note_on_c, 9, 51, 0
5, 240036, Note_on_c, 9, 37, 0
5, 240052, Note_on_c, 9, 77, 0
5, 240156, Note_on_c, 9, 37, 16
5, 240160, Note_on_c, 9, 51, 76
5, 240164, Note_on_c, 9, 35, 45
5, 240176, Note_on_c, 9, 77, 33
5, 240188, Note_on_c, 9, 35, 0
5, 240200, Note_on_c, 9, 77, 0
5, 240256, Note_on_c, 9, 37, 0
5, 240316, Note_on_c, 9, 51, 0
5, 240348, Note_on_c, 9, 35, 62
5, 240356, Note_on_c, 9, 77, 56
5, 240396, Note_on_c, 9, 77, 0
5, 240464, Note_on_c, 9, 35, 0
5, 240540, Note_on_c, 9, 51, 67
5, 240620, Note_on_c, 9, 51, 0
5, 240732, Note_on_c, 9, 37, 28
5, 240820, Note_on_c, 9, 37, 0
5, 240924, Note_on_c, 9, 37, 29
5, 240928, Note_on_c, 9, 51, 67
5, 240932, Note_on_c, 9, 35, 42
5, 240968, Note_on_c, 9, 35, 0
5, 240972, Note_on_c, 9, 51, 0
5, 241020, Note_on_c, 9, 37, 0
5, 241104, Note_on_c, 9, 77, 34
5, 241116, Note_on_c, 9, 35, 59
5, 241116, Note_on_c, 9, 51, 71
5, 241216, Note_on_c, 9, 77, 0
5, 241248, Note_on_c, 9, 35, 0
5, 241276, Note_on_c, 9, 51, 0
5, 241500, Note_on_c, 9, 37, 31
5, 241576, Note_on_c, 9, 37, 0
5, 241692, Note_on_c, 9, 37, 25
5, 241696, Note_on_c, 9, 51, 54
5, 241700, Note_on_c, 9, 35, 45
5, 241712, Note_on_c, 9, 51, 0
5, 241760, Note_on_c, 9, 35, 0
5, 241804, Note_on_c, 9, 37, 0
5, 241868, Note_on_c, 9, 54, 61
5, 241884, Note_on_c, 9, 51, 69
5, 241884, Note_on_c, 9, 35, 62
5, 241940, Note_on_c, 9, 54, 0
5, 242020, Note_on_c, 9, 35, 0
5, 242024, Note_on_c, 9, 51, 0
5, 242268, Note_on_c, 9, 37, 22
5, 242368, Note_on_c, 9, 37, 0
5, 242460, Note_on_c, 9, 37, 32
5, 242464, Note_on_c, 9, 51, 50
5, 242468, Note_on_c, 9, 35, 52
5, 242516, Note_on_c, 9, 51, 0
5, 242528, Note_on_c, 9, 76, 21
5, 242540, Note_on_c, 9, 35, 0
5, 242560, Note_on_c, 9, 37, 0
5, 242580, Note_on_c, 9, 76, 0
5, 242608, Note_on_c, 9, 76, 32
5, 242644, Note_on_c, 9, 76, 0
5, 242656, Note_on_c, 9, 51, 74
5, 242664, Note_on_c, 9, 35, 67
5, 242764, Note_on_c, 9, 51, 0
5, 242864, Note_on_c, 9, 76, 47
5, 242888, Note_on_c, 9, 76, 0
5, 242900, Note_on_c, 9, 35, 0
5, 243036, Note_on_c, 9, 37, 34
5, 243036, Note_on_c, 9, 51, 57
5, 243052, Note_on_c, 9, 76, 27
5, 243072, Note_on_c, 9, 51, 0
5, 243076, Note_on_c, 9, 76, 0
5, 243092, Note_on_c, 9, 37, 0
5, 243228, Note_on_c, 9, 37, 28
5, 243232, Note_on_c, 9, 51, 71
5, 243236, Note_on_c, 9, 35, 51
5, 243244, Note_on_c, 9, 76, 22
5, 243260, Note_on_c, 9, 35, 0
5, 243268, Note_on_c, 9, 76, 0
5, 243284, Note_on_c, 9, 51, 0
5, 243364, Note_on_c, 9, 37, 0
5, 243408, Note_on_c, 9, 76, 47
5, 243420, Note_on_c, 9, 35, 68
5, 243460, Note_on_c, 9, 76, 0
5, 243520, Note_on_c, 9, 35, 0
5, 243612, Note_on_c, 9, 51, 69
5, 243668, Note_on_c, 9, 51, 0
5, 243804, Note_on_c, 9, 37, 32
5, 243804, Note_on_c, 9, 51, 46
5, 243844, Note_on_c, 9, 51, 0
5, 243904, Note_on_c, 9, 37, 0
5, 243996, Note_on_c, 9, 37, 32
5, 244000, Note_on_c, 9, 51, 38
5, 244052, Note_on_c, 9, 51, 0
5, 244172, Note_on_c, 9, 37, 0
5, 244180, Note_on_c, 9, 76, 12
5, 244188, Note_on_c, 9, 51, 70
5, 244188, Note_on_c, 9, 35, 65
5, 244260, Note_on_c, 9, 76, 0
5, 244316, Note_on_c, 9, 51, 0
5, 244384, Note_on_c, 9, 35, 0
5, 244572, Note_on_c, 9, 37, 32
5, 244672, Note_on_c, 9, 37, 0
5, 244764, Note_on_c, 9, 37, 29
5, 244768, Note_on_c, 9, 51, 49
5, 244772, Note_on_c, 9, 35, 44
5, 244772, Note_on_c, 9, 35, 0
5, 244796, Note_on_c, 9, 51, 0
5, 244944, Note_on_c, 9, 37, 0
5, 244956, Note_on_c, 9, 51, 60
5, 244956, Note_on_c, 9, 35, 58
5, 244960, Note_on_c, 9, 54, 30
5, 244980, Note_on_c, 9, 54, 0
5, 245056, Note_on_c, 9, 35, 0
5, 245056, Note_on_c, 9, 51, 0
5, 245340, Note_on_c, 9, 37, 21
5, 245340, Note_on_c, 9, 51, 26
5, 245388, Note_on_c, 9, 51, 0
5, 245440, Note_on_c, 9, 37, 0
5, 245532, Note_on_c, 9, 37, 44
5, 245536, Note_on_c, 9, 51, 55
5, 245540, Note_on_c, 9, 35, 48
5, 245540, Note_on_c, 9, 35, 0
5, 245564, Note_on_c, 9, 51, 0
5, 245656, Note_on_c, 9, 37, 0
5, 245724, Note_on_c, 9, 51, 59
5, 245724, Note_on_c, 9, 53, 55
5, 245728, Note_on_c, 9, 35, 55
5, 245736, Note_on_c, 9, 76, 39
5, 245796, Note_on_c, 9, 76, 0
5, 245800, Note_on_c, 9, 35, 0
5, 245824, Note_on_c, 9, 51, 0
5, 245836, Note_on_c, 9, 53, 0
5, 246108, Note_on_c, 9, 64, 36
5, 246172, Note_on_c, 9, 64, 0
5, 246304, Note_on_c, 9, 51, 62
5, 246304, Note_on_c, 9, 53, 48
5, 246304, Note_on_c, 9, 64, 40
5, 246308, Note_on_c, 9, 35, 45
5, 246308, Note_on_c, 9, 35, 0
5, 246344, Note_on_c, 9, 76, 42
5, 246364, Note_on_c, 9, 64, 0
5, 246396, Note_on_c, 9, 76, 0
5, 246420, Note_on_c, 9, 53, 0
5, 246424, Note_on_c, 9, 51, 0
5, 246492, Note_on_c, 9, 35, 66
5, 246580, Note_on_c, 9, 35, 0
5, 246876, Note_on_c, 9, 63, 51
5, 246924, Note_on_c, 9, 63, 0
5, 247056, Note_on_c, 9, 76, 24
5, 247068, Note_on_c, 9, 63, 54
5, 247072, Note_on_c, 9, 51, 37
5, 247072, Note_on_c, 9, 35, 44
5, 247100, Note_on_c, 9, 35, 0
5, 247112, Note_on_c, 9, 51, 0
5, 247116, Note_on_c, 9, 63, 0
5, 247136, Note_on_c, 9, 76, 0
5, 247244, Note_on_c, 9, 76, 25
5, 247260, Note_on_c, 9, 51, 75
5, 247260, Note_on_c, 9, 53, 37
5, 247268, Note_on_c, 9, 35, 63
5, 247308, Note_on_c, 9, 76, 0
5, 247336, Note_on_c, 9, 53, 0
5, 247408, Note_on_c, 9, 35, 0
5, 247440, Note_on_c, 9, 51, 0
5, 247644, Note_on_c, 9, 64, 40
5, 247644, Note_on_c, 9, 51, 45
5, 247692, Note_on_c, 9, 64, 0
5, 247708, Note_on_c, 9, 51, 0
5, 247836, Note_on_c, 9, 64, 53
5, 247840, Note_on_c, 9, 51, 56
5, 247844, Note_on_c, 9, 35, 46
5, 247852, Note_on_c, 9, 76, 13
5, 247860, Note_on_c, 9, 35, 0
5, 247872, Note_on_c, 9, 64, 0
5, 247880, Note_on_c, 9, 76, 0
5, 247920, Note_on_c, 9, 51, 0
5, 248028, Note_on_c, 9, 53, 57
5, 248028, Note_on_c, 9, 51, 62
5, 248032, Note_on_c, 9, 35, 64
5, 248092, Note_on_c, 9, 53, 0
5, 248116, Note_on_c, 9, 51, 0
5, 248160, Note_on_c, 9, 35, 0
5, 248220, Note_on_c, 9, 51, 48
5, 248316, Note_on_c, 9, 51, 0
5, 248412, Note_on_c, 9, 51, 48
5, 248412, Note_on_c, 9, 63, 49
5, 248448, Note_on_c, 9, 51, 0
5, 248452, Note_on_c, 9, 63, 0
5, 248604, Note_on_c, 9, 63, 56
5, 248608, Note_on_c, 9, 53, 67
5, 248612, Note_on_c, 9, 51, 80
5, 248612, Note_on_c, 9, 35, 39
5, 248628, Note_on_c, 9, 76, 21
5, 248632, Note_on_c, 9, 35, 0
5, 248660, Note_on_c, 9, 63, 0
5, 248672, Note_on_c, 9, 76, 0
5, 248724, Note_on_c, 9, 53, 0
5, 248752, Note_on_c, 9, 51, 0
5, 248796, Note_on_c, 9, 35, 63
5, 248872, Note_on_c, 9, 35, 0
5, 248988, Note_on_c, 9, 51, 62
5, 249056, Note_on_c, 9, 51, 0
5, 249180, Note_on_c, 9, 64, 41
5, 249192, Note_on_c, 9, 64, 0
5, 249348, Note_on_c, 9, 76, 27
5, 249372, Note_on_c, 9, 64, 53
5, 249376, Note_on_c, 9, 51, 61
5, 249376, Note_on_c, 9, 35, 37
5, 249388, Note_on_c, 9, 35, 0
5, 249408, Note_on_c, 9, 64, 0
5, 249428, Note_on_c, 9, 51, 0
5, 249452, Note_on_c, 9, 76, 0
5, 249548, Note_on_c, 9, 76, 23
5, 249564, Note_on_c, 9, 51, 77
5, 249564, Note_on_c, 9, 35, 63
5, 249640, Note_on_c, 9, 76, 0
5, 249680, Note_on_c, 9, 35, 0
5, 249696, Note_on_c, 9, 51, 0
5, 249756, Note_on_c, 9, 51, 46
5, 249836, Note_on_c, 9, 51, 0
5, 249948, Note_on_c, 9, 63, 62
5, 250004, Note_on_c, 9, 63, 0
5, 250140, Note_on_c, 9, 63, 53
5, 250144, Note_on_c, 9, 51, 69
5, 250148, Note_on_c, 9, 35, 45
5, 250156, Note_on_c, 9, 76, 46
5, 250180, Note_on_c, 9, 35, 0
5, 250180, Note_on_c, 9, 63, 0
5, 250220, Note_on_c, 9, 51, 0
5, 250228, Note_on_c, 9, 76, 0
5, 250332, Note_on_c, 9, 51, 63
5, 250332, Note_on_c, 9, 35, 68
5, 250404, Note_on_c, 9, 51, 0
5, 250448, Note_on_c, 9, 35, 0
5, 250524, Note_on_c, 9, 51, 56
5, 250608, Note_on_c, 9, 51, 0
5, 250716, Note_on_c, 9, 64, 43
5, 250772, Note_on_c, 9, 64, 0
5, 250908, Note_on_c, 9, 64, 59
5, 250916, Note_on_c, 9, 35, 27
5, 250916, Note_on_c, 9, 51, 61
5, 250940, Note_on_c, 9, 35, 0
5, 250976, Note_on_c, 9, 51, 0
5, 250976, Note_on_c, 9, 64, 0
5, 251100, Note_on_c, 9, 35, 66
5, 251200, Note_on_c, 9, 35, 0
5, 251292, Note_on_c, 9, 51, 69
5, 251360, Note_on_c, 9, 51, 0
5, 251484, Note_on_c, 9, 63, 58
5, 251488, Note_on_c, 9, 51, 59
5, 251556, Note_on_c, 9, 51, 0
5, 251560, Note_on_c, 9, 63, 0
5, 251676, Note_on_c, 9, 63, 60
5, 251684, Note_on_c, 9, 53, 71
5, 251684, Note_on_c, 9, 35, 32
5, 251684, Note_on_c, 9, 76, 19
5, 251748, Note_on_c, 9, 35, 0
5, 251752, Note_on_c, 9, 76, 0
5, 251752, Note_on_c, 9, 53, 0
5, 251760, Note_on_c, 9, 63, 0
5, 251868, Note_on_c, 9, 51, 50
5, 251868, Note_on_c, 9, 35, 66
5, 251872, Note_on_c, 9, 76, 24
5, 251968, Note_on_c, 9, 76, 0
5, 251980, Note_on_c, 9, 51, 0
5, 252016, Note_on_c, 9, 35, 0
5, 252252, Note_on_c, 9, 64, 44
5, 252308, Note_on_c, 9, 64, 0
5, 252444, Note_on_c, 9, 64, 57
5, 252448, Note_on_c, 9, 51, 58
5, 252452, Note_on_c, 9, 35, 44
5, 252452, Note_on_c, 9, 76, 31
5, 252500, Note_on_c, 9, 35, 0
5, 252500, Note_on_c, 9, 51, 0
5, 252516, Note_on_c, 9, 64, 0
5, 252556, Note_on_c, 9, 76, 0
5, 252636, Note_on_c, 9, 51, 62
5, 252636, Note_on_c, 9, 35, 64
5, 252640, Note_on_c, 9, 76, 27
5, 252736, Note_on_c, 9, 51, 0
5, 252752, Note_on_c, 9, 35, 0
5, 252764, Note_on_c, 9, 76, 0
5, 252828, Note_on_c, 9, 51, 37
5, 252896, Note_on_c, 9, 51, 0
5, 253016, Note_on_c, 9, 63, 49
5, 253108, Note_on_c, 9, 63, 0
5, 253212, Note_on_c, 9, 63, 53
5, 253216, Note_on_c, 9, 51, 57
5, 253220, Note_on_c, 9, 35, 33
5, 253228, Note_on_c, 9, 76, 38
5, 253256, Note_on_c, 9, 35, 0
5, 253280, Note_on_c, 9, 51, 0
5, 253308, Note_on_c, 9, 63, 0
5, 253312, Note_on_c, 9, 76, 0
5, 253404, Note_on_c, 9, 35, 64
5, 253404, Note_on_c, 9, 51, 69
5, 253548, Note_on_c, 9, 35, 0
5, 253560, Note_on_c, 9, 51, 0
5, 253788, Note_on_c, 9, 64, 36
5, 253852, Note_on_c, 9, 64, 0
5, 253980, Note_on_c, 9, 64, 57
5, 253984, Note_on_c, 9, 51, 56
5, 253988, Note_on_c, 9, 35, 53
5, 254020, Note_on_c, 9, 51, 0
5, 254036, Note_on_c, 9, 35, 0
5, 254048, Note_on_c, 9, 64, 0
5, 254172, Note_on_c, 9, 51, 55
5, 254180, Note_on_c, 9, 35, 67
5, 254236, Note_on_c, 9, 51, 0
5, 254316, Note_on_c, 9, 35, 0
5, 254364, Note_on_c, 9, 51, 61
5, 254464, Note_on_c, 9, 51, 0
5, 254556, Note_on_c, 9, 51, 37
5, 254556, Note_on_c, 9, 63, 43
5, 254592, Note_on_c, 9, 51, 0
5, 254604, Note_on_c, 9, 63, 0
5, 254748, Note_on_c, 9, 63, 56
5, 254752, Note_on_c, 9, 51, 78
5, 254756, Note_on_c, 9, 35, 55
5, 254816, Note_on_c, 9, 63, 0
5, 254844, Note_on_c, 9, 35, 0
5, 254940, Note_on_c, 9, 35, 69
5, 254956, Note_on_c, 9, 51, 0
5, 255132, Note_on_c, 9, 51, 67
5, 255152, Note_on_c, 9, 35, 0
5, 255212, Note_on_c, 9, 51, 0
5, 255324, Note_on_c, 9, 64, 34
5, 255380, Note_on_c, 9, 64, 0
5, 255516, Note_on_c, 9, 64, 53
5, 255520, Note_on_c, 9, 51, 71
5, 255596, Note_on_c, 9, 64, 0
5, 255616, Note_on_c, 9, 51, 0
5, 255708, Note_on_c, 9, 35, 63
5, 255876, Note_on_c, 9, 35, 0
5, 255900, Note_on_c, 9, 51, 68
5, 255996, Note_on_c, 9, 51, 0
5, 256092, Note_on_c, 9, 63, 44
5, 256168, Note_on_c, 9, 63, 0
5, 256284, Note_on_c, 9, 63, 48
5, 256292, Note_on_c, 9, 51, 60
5, 256292, Note_on_c, 9, 35, 45
5, 256328, Note_on_c, 9, 35, 0
5, 256356, Note_on_c, 9, 51, 0
5, 256372, Note_on_c, 9, 63, 0
5, 256476, Note_on_c, 9, 51, 72
5, 256476, Note_on_c, 9, 35, 55
5, 256576, Note_on_c, 9, 35, 0
5, 256604, Note_on_c, 9, 51, 0
5, 256860, Note_on_c, 9, 64, 49
5, 256860, Note_on_c, 9, 51, 25
5, 256896, Note_on_c, 9, 51, 0
5, 256924, Note_on_c, 9, 64, 0
5, 257052, Note_on_c, 9, 64, 49
5, 257056, Note_on_c, 9, 51, 56
5, 257096, Note_on_c, 9, 51, 0
5, 257132, Note_on_c, 9, 64, 0
5, 257244, Note_on_c, 9, 35, 65
5, 257244, Note_on_c, 9, 51, 74
5, 257372, Note_on_c, 9, 51, 0
5, 257412, Note_on_c, 9, 35, 0
5, 257436, Note_on_c, 9, 51, 35
5, 257504, Note_on_c, 9, 51, 0
5, 257628, Note_on_c, 9, 63, 41
5, 257676, Note_on_c, 9, 63, 0
5, 257820, Note_on_c, 9, 63, 50
5, 257824, Note_on_c, 9, 51, 47
5, 257828, Note_on_c, 9, 35, 44
5, 257844, Note_on_c, 9, 35, 0
5, 257876, Note_on_c, 9, 51, 0
5, 257904, Note_on_c, 9, 63, 0
5, 258012, Note_on_c, 9, 51, 72
5, 258012, Note_on_c, 9, 35, 64
5, 258140, Note_on_c, 9, 35, 0
5, 258168, Note_on_c, 9, 51, 0
5, 258396, Note_on_c, 9, 64, 36
5, 258460, Note_on_c, 9, 64, 0
5, 258588, Note_on_c, 9, 64, 48
5, 258592, Note_on_c, 9, 51, 44
5, 258596, Note_on_c, 9, 35, 49
5, 258608, Note_on_c, 9, 35, 0
5, 258656, Note_on_c, 9, 64, 0
5, 258700, Note_on_c, 9, 51, 0
5, 258780, Note_on_c, 9, 51, 67
5, 258780, Note_on_c, 9, 35, 67
5, 258896, Note_on_c, 9, 35, 0
5, 258916, Note_on_c, 9, 51, 0
5, 259164, Note_on_c, 9, 63, 46
5, 259236, Note_on_c, 9, 63, 0
5, 259356, Note_on_c, 9, 63, 50
5, 259360, Note_on_c, 9, 51, 53
5, 259364, Note_on_c, 9, 35, 43
5, 259392, Note_on_c, 9, 51, 0
5, 259400, Note_on_c, 9, 35, 0
5, 259456, Note_on_c, 9, 63, 0
5, 259548, Note_on_c, 9, 35, 70
5, 259548, Note_on_c, 9, 51, 73
5, 259676, Note_on_c, 9, 35, 0
5, 259680, Note_on_c, 9, 51, 0
5, 259932, Note_on_c, 9, 64, 44
5, 260060, Note_on_c, 9, 64, 0
5, 260124, Note_on_c, 9, 64, 50
5, 260128, Note_on_c, 9, 51, 70
5, 260132, Note_on_c, 9, 35, 35
5, 260192, Note_on_c, 9, 35, 0
5, 260244, Note_on_c, 9, 51, 0
5, 260248, Note_on_c, 9, 64, 0
5, 260316, Note_on_c, 9, 35, 66
5, 260444, Note_on_c, 9, 35, 0
5, 260508, Note_on_c, 9, 51, 71
5, 260592, Note_on_c, 9, 51, 0
5, 260700, Note_on_c, 9, 63, 50
5, 260700, Note_on_c, 9, 51, 36
5, 260756, Note_on_c, 9, 51, 0
5, 260760, Note_on_c, 9, 63, 0
5, 260892, Note_on_c, 9, 63, 61
5, 260900, Note_on_c, 9, 35, 44
5, 260900, Note_on_c, 9, 51, 68
5, 260912, Note_on_c, 9, 35, 0
5, 260960, Note_on_c, 9, 76, 20
5, 260968, Note_on_c, 9, 51, 0
5, 260980, Note_on_c, 9, 63, 0
5, 261052, Note_on_c, 9, 76, 0
5, 261076, Note_on_c, 9, 76, 30
5, 261092, Note_on_c, 9, 53, 81
5, 261092, Note_on_c, 9, 57, 67
5, 261092, Note_on_c, 9, 51, 84
5, 261100, Note_on_c, 9, 35, 66
5, 261140, Note_on_c, 9, 76, 0
5, 261172, Note_on_c, 9, 53, 0
5, 261196, Note_on_c, 9, 57, 0
5, 261264, Note_on_c, 9, 76, 56
5, 261276, Note_on_c, 9, 51, 0
5, 261284, Note_on_c, 9, 35, 0
5, 261320, Note_on_c, 9, 76, 0
5, 261460, Note_on_c, 9, 76, 30
5, 261468, Note_on_c, 9, 64, 43
5, 261468, Note_on_c, 9, 51, 43
5, 261504, Note_on_c, 9, 51, 0
5, 261516, Note_on_c, 9, 64, 0
5, 261520, Note_on_c, 9, 76, 0
5, 261652, Note_on_c, 9, 76, 43
5, 261664, Note_on_c, 9, 51, 69
5, 261664, Note_on_c, 9, 64, 50
5, 261672, Note_on_c, 9, 35, 42
5, 261680, Note_on_c, 9, 35, 0
5, 261716, Note_on_c, 9, 76, 0
5, 261728, Note_on_c, 9, 64, 0
5, 261764, Note_on_c, 9, 51, 0
5, 261844, Note_on_c, 9, 76, 38
5, 261852, Note_on_c, 9, 63, 37
5, 261852, Note_on_c, 9, 35, 59
5, 261904, Note_on_c, 9, 63, 0
5, 261920, Note_on_c, 9, 76, 0
5, 261952, Note_on_c, 9, 35, 0
5, 262044, Note_on_c, 9, 51, 51
5, 262112, Note_on_c, 9, 51, 0
5, 262236, Note_on_c, 9, 51, 42
5, 262236, Note_on_c, 9, 63, 52
5, 262300, Note_on_c, 9, 63, 0
5, 262324, Note_on_c, 9, 51, 0
5, 262364, Note_on_c, 9, 76, 16
5, 262392, Note_on_c, 9, 76, 0
5, 262432, Note_on_c, 9, 63, 43
5, 262432, Note_on_c, 9, 51, 62
5, 262432, Note_on_c, 9, 35, 39
5, 262444, Note_on_c, 9, 76, 22
5, 262460, Note_on_c, 9, 76, 0
5, 262496, Note_on_c, 9, 76, 30
5, 262504, Note_on_c, 9, 35, 0
5, 262504, Note_on_c, 9, 63, 0
5, 262516, Note_on_c, 9, 51, 0
5, 262524, Note_on_c, 9, 76, 0
5, 262540, Note_on_c, 9, 76, 22
5, 262608, Note_on_c, 9, 76, 0
5, 262620, Note_on_c, 9, 51, 67
5, 262620, Note_on_c, 9, 35, 65
5, 262644, Note_on_c, 9, 76, 41
5, 262684, Note_on_c, 9, 76, 0
5, 262752, Note_on_c, 9, 51, 0
5, 262800, Note_on_c, 9, 35, 0
5, 262844, Note_on_c, 9, 76, 45
5, 262880, Note_on_c, 9, 76, 0
5, 263004, Note_on_c, 9, 51, 29
5, 263004, Note_on_c, 9, 64, 41
5, 263028, Note_on_c, 9, 76, 33
5, 263040, Note_on_c, 9, 64, 0
5, 263040, Note_on_c, 9, 51, 0
5, 263060, Note_on_c, 9, 76, 0
5, 263200, Note_on_c, 9, 51, 54
5, 263200, Note_on_c, 9, 64, 57
5, 263204, Note_on_c, 9, 35, 49
5, 263228, Note_on_c, 9, 51, 0
5, 263240, Note_on_c, 9, 35, 0
5, 263252, Note_on_c, 9, 64, 0
5, 263356, Note_on_c, 9, 76, 27
5, 263388, Note_on_c, 9, 35, 62
5, 263388, Note_on_c, 9, 51, 57
5, 263436, Note_on_c, 9, 76, 0
5, 263488, Note_on_c, 9, 51, 0
5, 263520, Note_on_c, 9, 35, 0
5, 263772, Note_on_c, 9, 63, 45
5, 263872, Note_on_c, 9, 63, 0
5, 263968, Note_on_c, 9, 63, 49
5, 263972, Note_on_c, 9, 35, 34
5, 263972, Note_on_c, 9, 51, 73
5, 263996, Note_on_c, 9, 35, 0
5, 264060, Note_on_c, 9, 63, 0
5, 264156, Note_on_c, 9, 35, 66
5, 264192, Note_on_c, 9, 51, 0
5, 264284, Note_on_c, 9, 35, 0
5, 264348, Note_on_c, 9, 51, 64
5, 264416, Note_on_c, 9, 51, 0
5, 264540, Note_on_c, 9, 64, 33
5, 264608, Note_on_c, 9, 64, 0
5, 264732, Note_on_c, 9, 64, 54
5, 264736, Note_on_c, 9, 51, 38
5, 264740, Note_on_c, 9, 35, 34
5, 264768, Note_on_c, 9, 35, 0
5, 264776, Note_on_c, 9, 51, 0
5, 264844, Note_on_c, 9, 64, 0
5, 264924, Note_on_c, 9, 35, 63
5, 264924, Note_on_c, 9, 51, 61
5, 265036, Note_on_c, 9, 35, 0
5, 265068, Note_on_c, 9, 51, 0
5, 265116, Note_on_c, 9, 53, 68
5, 265148, Note_on_c, 9, 53, 0
5, 265308, Note_on_c, 9, 51, 32
5, 265308, Note_on_c, 9, 63, 36
5, 265312, Note_on_c, 9, 65, 27
5, 265360, Note_on_c, 9, 51, 0
5, 265380, Note_on_c, 9, 63, 0
5, 265424, Note_on_c, 9, 65, 0
5, 265500, Note_on_c, 9, 63, 51
5, 265508, Note_on_c, 9, 35, 29
5, 265508, Note_on_c, 9, 51, 52
5, 265508, Note_on_c, 9, 65, 55
5, 265556, Note_on_c, 9, 35, 0
5, 265580, Note_on_c, 9, 51, 0
5, 265584, Note_on_c, 9, 65, 0
5, 265612, Note_on_c, 9, 63, 0
5, 265692, Note_on_c, 9, 51, 74
5, 265692, Note_on_c, 9, 35, 69
5, 265824, Note_on_c, 9, 35, 0
5, 265892, Note_on_c, 9, 51, 0
5, 266076, Note_on_c, 9, 64, 32
5, 266076, Note_on_c, 9, 51, 29
5, 266132, Note_on_c, 9, 51, 0
5, 266136, Note_on_c, 9, 64, 0
5, 266268, Note_on_c, 9, 64, 55
5, 266272, Note_on_c, 9, 51, 69
5, 266276, Note_on_c, 9, 35, 44
5, 266284, Note_on_c, 9, 35, 0
5, 266352, Note_on_c, 9, 64, 0
5, 266404, Note_on_c, 9, 51, 0
5, 266460, Note_on_c, 9, 35, 71
5, 266536, Note_on_c, 9, 35, 0
5, 266652, Note_on_c, 9, 51, 59
5, 266752, Note_on_c, 9, 51, 0
5, 266812, Note_on_c, 9, 77, 28
5, 266844, Note_on_c, 9, 63, 41
5, 266880, Note_on_c, 9, 77, 0
5, 266908, Note_on_c, 9, 63, 0
5, 267036, Note_on_c, 9, 63, 47
5, 267044, Note_on_c, 9, 51, 60
5, 267044, Note_on_c, 9, 35, 46
5, 267044, Note_on_c, 9, 77, 47
5, 267056, Note_on_c, 9, 35, 0
5, 267116, Note_on_c, 9, 63, 0
5, 267136, Note_on_c, 9, 77, 0
5, 267140, Note_on_c, 9, 51, 0
5, 267228, Note_on_c, 9, 35, 68
5, 267328, Note_on_c, 9, 35, 0
5, 267420, Note_on_c, 9, 51, 60
5, 267504, Note_on_c, 9, 51, 0
5, 267612, Note_on_c, 9, 64, 26
5, 267664, Note_on_c, 9, 64, 0
5, 267804, Note_on_c, 9, 64, 52
5, 267808, Note_on_c, 9, 53, 67
5, 267812, Note_on_c, 9, 77, 35
5, 267860, Note_on_c, 9, 53, 0
5, 267872, Note_on_c, 9, 77, 0
5, 267884, Note_on_c, 9, 64, 0
5, 267996, Note_on_c, 9, 35, 63
5, 267996, Note_on_c, 9, 51, 50
5, 268000, Note_on_c, 9, 77, 30
5, 268064, Note_on_c, 9, 51, 0
5, 268124, Note_on_c, 9, 77, 0
5, 268152, Note_on_c, 9, 35, 0
5, 268188, Note_on_c, 9, 53, 75
5, 268232, Note_on_c, 9, 53, 0
5, 268380, Note_on_c, 9, 63, 40
5, 268380, Note_on_c, 9, 51, 27
5, 268388, Note_on_c, 9, 54, 80
5, 268436, Note_on_c, 9, 51, 0
5, 268440, Note_on_c, 9, 63, 0
5, 268496, Note_on_c, 9, 54, 0
5, 268572, Note_on_c, 9, 63, 62
5, 268580, Note_on_c, 9, 51, 46
5, 268580, Note_on_c, 9, 35, 41
5, 268616, Note_on_c, 9, 51, 0
5, 268640, Note_on_c, 9, 35, 0
5, 268688, Note_on_c, 9, 63, 0
5, 268764, Note_on_c, 9, 35, 62
5, 268764, Note_on_c, 9, 51, 73
5, 268776, Note_on_c, 9, 77, 35
5, 268852, Note_on_c, 9, 77, 0
5, 268908, Note_on_c, 9, 51, 0
5, 268944, Note_on_c, 9, 35, 0
5, 269148, Note_on_c, 9, 64, 29
5, 269224, Note_on_c, 9, 64, 0
5, 269340, Note_on_c, 9, 64, 53
5, 269344, Note_on_c, 9, 51, 72
5, 269348, Note_on_c, 9, 35, 55
5, 269380, Note_on_c, 9, 35, 0
5, 269412, Note_on_c, 9, 51, 0
5, 269416, Note_on_c, 9, 77, 34
5, 269428, Note_on_c, 9, 64, 0
5, 269444, Note_on_c, 9, 77, 0
5, 269500, Note_on_c, 9, 77, 47
5, 269532, Note_on_c, 9, 51, 56
5, 269532, Note_on_c, 9, 35, 63
5, 269568, Note_on_c, 9, 77, 0
5, 269608, Note_on_c, 9, 51, 0
5, 269644, Note_on_c, 9, 35, 0
5, 269712, Note_on_c, 9, 77, 51
5, 269724, Note_on_c, 9, 51, 51
5, 269760, Note_on_c, 9, 77, 0
5, 269792, Note_on_c, 9, 51, 0
5, 269916, Note_on_c, 9, 63, 36
5, 269916, Note_on_c, 9, 77, 45
5, 269952, Note_on_c, 9, 63, 0
5, 269968, Note_on_c, 9, 77, 0
5, 270096, Note_on_c, 9, 77, 32
5, 270108, Note_on_c, 9, 63, 56
5, 270112, Note_on_c, 9, 35, 32
5, 270112, Note_on_c, 9, 51, 69
5, 270132, Note_on_c, 9, 35, 0
5, 270136, Note_on_c, 9, 77, 0
5, 270176, Note_on_c, 9, 51, 0
5, 270192, Note_on_c, 9, 63, 0
5, 270292, Note_on_c, 9, 77, 46
5, 270304, Note_on_c, 9, 35, 59
5, 270336, Note_on_c, 9, 77, 0
5, 270368, Note_on_c, 9, 35, 0
5, 270492, Note_on_c, 9, 51, 69
5, 270572, Note_on_c, 9, 51, 0
5, 270684, Note_on_c, 9, 64, 36
5, 270748, Note_on_c, 9, 64, 0
5, 270880, Note_on_c, 9, 64, 44
5, 270880, Note_on_c, 9, 51, 57
5, 270880, Note_on_c, 9, 35, 36
5, 270884, Note_on_c, 9, 77, 30
5, 270900, Note_on_c, 9, 35, 0
5, 270908, Note_on_c, 9, 77, 0
5, 270932, Note_on_c, 9, 51, 0
5, 270944, Note_on_c, 9, 64, 0
5, 271060, Note_on_c, 9, 77, 33
5, 271068, Note_on_c, 9, 35, 60
5, 271068, Note_on_c, 9, 51, 71
5, 271104, Note_on_c, 9, 77, 0
5, 271136, Note_on_c, 9, 35, 0
5, 271284, Note_on_c, 9, 51, 0
5, 271452, Note_on_c, 9, 63, 48
5, 271460, Note_on_c, 9, 54, 50
5, 271492, Note_on_c, 9, 54, 0
5, 271496, Note_on_c, 9, 63, 0
5, 271644, Note_on_c, 9, 63, 53
5, 271648, Note_on_c, 9, 51, 46
5, 271652, Note_on_c, 9, 67, 20
5, 271660, Note_on_c, 9, 51, 0
5, 271740, Note_on_c, 9, 63, 0
5, 271748, Note_on_c, 9, 67, 0
5, 271836, Note_on_c, 9, 35, 66
5, 271836, Note_on_c, 9, 51, 64
5, 271848, Note_on_c, 9, 77, 48
5, 271884, Note_on_c, 9, 77, 0
5, 271968, Note_on_c, 9, 35, 0
5, 271984, Note_on_c, 9, 51, 0
5, 272220, Note_on_c, 9, 64, 29
5, 272220, Note_on_c, 9, 51, 40
5, 272232, Note_on_c, 9, 51, 0
5, 272284, Note_on_c, 9, 64, 0
5, 272412, Note_on_c, 9, 64, 47
5, 272420, Note_on_c, 9, 51, 71
5, 272420, Note_on_c, 9, 35, 53
5, 272420, Note_on_c, 9, 77, 27
5, 272448, Note_on_c, 9, 77, 0
5, 272496, Note_on_c, 9, 35, 0
5, 272508, Note_on_c, 9, 51, 0
5, 272512, Note_on_c, 9, 64, 0
5, 272604, Note_on_c, 9, 35, 59
5, 272604, Note_on_c, 9, 77, 37
5, 272732, Note_on_c, 9, 35, 0
5, 272748, Note_on_c, 9, 77, 0
5, 272796, Note_on_c, 9, 51, 34
5, 272804, Note_on_c, 9, 77, 46
5, 272852, Note_on_c, 9, 77, 0
5, 272864, Note_on_c, 9, 51, 0
5, 272988, Note_on_c, 9, 63, 33
5, 273064, Note_on_c, 9, 63, 0
5, 273180, Note_on_c, 9, 63, 60
5, 273184, Note_on_c, 9, 51, 62
5, 273188, Note_on_c, 9, 35, 49
5, 273196, Note_on_c, 9, 77, 47
5, 273216, Note_on_c, 9, 77, 0
5, 273224, Note_on_c, 9, 35, 0
5, 273244, Note_on_c, 9, 51, 0
5, 273296, Note_on_c, 9, 63, 0
5, 273372, Note_on_c, 9, 35, 57
5, 273484, Note_on_c, 9, 35, 0
5, 273564, Note_on_c, 9, 51, 64
5, 273644, Note_on_c, 9, 51, 0
5, 273756, Note_on_c, 9, 64, 33
5, 273808, Note_on_c, 9, 64, 0
5, 273948, Note_on_c, 9, 64, 47
5, 273956, Note_on_c, 9, 35, 52
5, 273956, Note_on_c, 9, 51, 68
5, 273992, Note_on_c, 9, 35, 0
5, 273996, Note_on_c, 9, 76, 23
5, 274016, Note_on_c, 9, 51, 0
5, 274044, Note_on_c, 9, 64, 0
5, 274048, Note_on_c, 9, 76, 0
5, 274096, Note_on_c, 9, 76, 28
5, 274116, Note_on_c, 9, 76, 0
5, 274140, Note_on_c, 9, 35, 58
5, 274140, Note_on_c, 9, 76, 41
5, 274176, Note_on_c, 9, 76, 0
5, 274208, Note_on_c, 9, 35, 0
5, 274332, Note_on_c, 9, 51, 61
5, 274336, Note_on_c, 9, 76, 53
5, 274364, Note_on_c, 9, 76, 0
5, 274388, Note_on_c, 9, 51, 0
5, 274524, Note_on_c, 9, 51, 26
5, 274524, Note_on_c, 9, 63, 45
5, 274536, Note_on_c, 9, 54, 58
5, 274560, Note_on_c, 9, 63, 0
5, 274576, Note_on_c, 9, 51, 0
5, 274588, Note_on_c, 9, 54, 0
5, 274716, Note_on_c, 9, 63, 51
5, 274720, Note_on_c, 9, 51, 35
5, 274724, Note_on_c, 9, 35, 42
5, 274724, Note_on_c, 9, 54, 60
5, 274760, Note_on_c, 9, 54, 0
5, 274772, Note_on_c, 9, 51, 0
5, 274784, Note_on_c, 9, 35, 0
5, 274804, Note_on_c, 9, 63, 0
5, 274908, Note_on_c, 9, 51, 72
5, 274908, Note_on_c, 9, 35, 64
5, 275036, Note_on_c, 9, 35, 0
5, 275076, Note_on_c, 9, 51, 0
5, 275292, Note_on_c, 9, 64, 31
5, 275292, Note_on_c, 9, 51, 69
5, 275348, Note_on_c, 9, 64, 0
5, 275404, Note_on_c, 9, 51, 0
5, 275484, Note_on_c, 9, 64, 46
5, 275488, Note_on_c, 9, 35, 47
5, 275516, Note_on_c, 9, 35, 0
5, 275564, Note_on_c, 9, 64, 0
5, 275676, Note_on_c, 9, 51, 59
5, 275676, Note_on_c, 9, 35, 60
5, 275744, Note_on_c, 9, 35, 0
5, 275764, Note_on_c, 9, 51, 0
5, 275868, Note_on_c, 9, 51, 51
5, 275924, Note_on_c, 9, 51, 0
5, 276060, Note_on_c, 9, 51, 55
5, 276060, Note_on_c, 9, 63, 38
5, 276072, Note_on_c, 9, 51, 0
5, 276096, Note_on_c, 9, 63, 0
5, 276252, Note_on_c, 9, 63, 53
5, 276260, Note_on_c, 9, 35, 46
5, 276260, Note_on_c, 9, 51, 80
5, 276284, Note_on_c, 9, 35, 0
5, 276332, Note_on_c, 9, 63, 0
5, 276444, Note_on_c, 9, 35, 59
5, 276512, Note_on_c, 9, 51, 0
5, 276544, Note_on_c, 9, 35, 0
5, 276632, Note_on_c, 9, 51, 67
5, 276708, Note_on_c, 9, 76, 19
5, 276760, Note_on_c, 9, 51, 0
5, 276764, Note_on_c, 9, 76, 0
5, 276784, Note_on_c, 9, 76, 20
5, 276820, Note_on_c, 9, 76, 0
5, 276828, Note_on_c, 9, 64, 35
5, 276892, Note_on_c, 9, 64, 0
5, 276984, Note_on_c, 9, 76, 49
5, 277024, Note_on_c, 9, 76, 0
5, 277024, Note_on_c, 9, 51, 62
5, 277024, Note_on_c, 9, 64, 46
5, 277028, Note_on_c, 9, 35, 49
5, 277036, Note_on_c, 9, 35, 0
5, 277088, Note_on_c, 9, 64, 0
5, 277120, Note_on_c, 9, 51, 0
5, 277212, Note_on_c, 9, 35, 61
5, 277212, Note_on_c, 9, 51, 37
5, 277248, Note_on_c, 9, 35, 0
5, 277312, Note_on_c, 9, 51, 0
5, 277392, Note_on_c, 9, 76, 23
5, 277404, Note_on_c, 9, 51, 53
5, 277420, Note_on_c, 9, 76, 0
5, 277472, Note_on_c, 9, 76, 32
5, 277500, Note_on_c, 9, 51, 0
5, 277504, Note_on_c, 9, 76, 0
5, 277540, Note_on_c, 9, 76, 32
5, 277560, Note_on_c, 9, 76, 0
5, 277596, Note_on_c, 9, 63, 43
5, 277596, Note_on_c, 9, 51, 69
5, 277644, Note_on_c, 9, 63, 0
5, 277776, Note_on_c, 9, 51, 0
5, 277780, Note_on_c, 9, 76, 56
5, 277788, Note_on_c, 9, 63, 52
5, 277792, Note_on_c, 9, 35, 55
5, 277824, Note_on_c, 9, 76, 0
5, 277868, Note_on_c, 9, 63, 0
5, 277884, Note_on_c, 9, 35, 0
5, 277980, Note_on_c, 9, 35, 63
5, 277980, Note_on_c, 9, 51, 65
5, 277984, Note_on_c, 9, 76, 52
5, 278044, Note_on_c, 9, 76, 0
5, 278092, Note_on_c, 9, 51, 0
5, 278160, Note_on_c, 9, 35, 0
5, 278172, Note_on_c, 9, 76, 47
5, 278228, Note_on_c, 9, 76, 0
5, 278364, Note_on_c, 9, 51, 64
5, 278364, Note_on_c, 9, 64, 34
5, 278376, Note_on_c, 9, 76, 54
5, 278416, Note_on_c, 9, 51, 0
5, 278428, Note_on_c, 9, 76, 0
5, 278436, Note_on_c, 9, 64, 0
5, 278556, Note_on_c, 9, 64, 50
5, 278560, Note_on_c, 9, 35, 50
5, 278600, Note_on_c, 9, 35, 0
5, 278640, Note_on_c, 9, 64, 0
5, 278748, Note_on_c, 9, 35, 54
5, 278748, Note_on_c, 9, 51, 54
5, 278772, Note_on_c, 9, 51, 0
5, 278824, Note_on_c, 9, 35, 0
5, 278940, Note_on_c, 9, 51, 50
5, 278984, Note_on_c, 9, 51, 0
5, 279132, Note_on_c, 9, 51, 54
5, 279132, Note_on_c, 9, 63, 53
5, 279196, Note_on_c, 9, 51, 0
5, 279200, Note_on_c, 9, 63, 0
5, 279328, Note_on_c, 9, 35, 68
5, 279328, Note_on_c, 9, 51, 47
5, 279328, Note_on_c, 9, 63, 42
5, 279348, Note_on_c, 9, 35, 0
5, 279380, Note_on_c, 9, 63, 0
5, 279404, Note_on_c, 9, 51, 0
5, 279516, Note_on_c, 9, 35, 60
5, 279516, Note_on_c, 9, 51, 64
5, 279644, Note_on_c, 9, 51, 0
5, 279664, Note_on_c, 9, 35, 0
5, 279900, Note_on_c, 9, 51, 62
5, 279988, Note_on_c, 9, 51, 0
5, 280092, Note_on_c, 9, 64, 57
5, 280096, Note_on_c, 9, 35, 57
5, 280128, Note_on_c, 9, 35, 0
5, 280204, Note_on_c, 9, 64, 0
5, 280284, Note_on_c, 9, 51, 52
5, 280284, Note_on_c, 9, 35, 64
5, 280336, Note_on_c, 9, 51, 0
5, 280348, Note_on_c, 9, 35, 0
5, 280476, Note_on_c, 9, 51, 51
5, 280532, Note_on_c, 9, 51, 0
5, 280668, Note_on_c, 9, 51, 47
5, 280732, Note_on_c, 9, 51, 0
5, 280860, Note_on_c, 9, 63, 74
5, 280864, Note_on_c, 9, 51, 45
5, 280868, Note_on_c, 9, 35, 43
5, 280928, Note_on_c, 9, 35, 0
5, 280940, Note_on_c, 9, 51, 0
5, 281020, Note_on_c, 9, 63, 0
5, 281052, Note_on_c, 9, 35, 58
5, 281052, Note_on_c, 9, 51, 71
5, 281152, Note_on_c, 9, 35, 0
5, 281196, Note_on_c, 9, 51, 0
5, 281436, Note_on_c, 9, 51, 62
5, 281508, Note_on_c, 9, 51, 0
5, 281628, Note_on_c, 9, 64, 70
5, 281632, Note_on_c, 9, 35, 53
5, 281636, Note_on_c, 9, 77, 33
5, 281660, Note_on_c, 9, 35, 0
5, 281672, Note_on_c, 9, 77, 0
5, 281780, Note_on_c, 9, 64, 0
5, 281820, Note_on_c, 9, 35, 54
5, 281820, Note_on_c, 9, 51, 64
5, 281832, Note_on_c, 9, 77, 36
5, 281892, Note_on_c, 9, 35, 0
5, 281896, Note_on_c, 9, 51, 0
5, 281908, Note_on_c, 9, 77, 0
5, 282012, Note_on_c, 9, 51, 56
5, 282080, Note_on_c, 9, 51, 0
5, 282204, Note_on_c, 9, 51, 43
5, 282240, Note_on_c, 9, 51, 0
5, 282400, Note_on_c, 9, 51, 77
5, 282400, Note_on_c, 9, 35, 57
5, 282400, Note_on_c, 9, 63, 74
5, 282404, Note_on_c, 9, 77, 39
5, 282424, Note_on_c, 9, 35, 0
5, 282468, Note_on_c, 9, 77, 0
5, 282556, Note_on_c, 9, 63, 0
5, 282588, Note_on_c, 9, 35, 71
5, 282624, Note_on_c, 9, 51, 0
5, 282652, Note_on_c, 9, 35, 0
5, 282780, Note_on_c, 9, 51, 68
5, 282916, Note_on_c, 9, 51, 0
5, 282964, Note_on_c, 9, 77, 55
5, 283088, Note_on_c, 9, 77, 0
5, 283164, Note_on_c, 9, 64, 70
5, 283168, Note_on_c, 9, 51, 58
5, 283172, Note_on_c, 9, 35, 36
5, 283204, Note_on_c, 9, 35, 0
5, 283244, Note_on_c, 9, 51, 0
5, 283348, Note_on_c, 9, 64, 0
5, 283356, Note_on_c, 9, 51, 55
5, 283360, Note_on_c, 9, 35, 66
5, 283456, Note_on_c, 9, 35, 0
5, 283456, Note_on_c, 9, 51, 0
5, 283548, Note_on_c, 9, 63, 27
5, 283548, Note_on_c, 9, 51, 47
5, 283564, Note_on_c, 9, 77, 41
5, 283628, Note_on_c, 9, 51, 0
5, 283652, Note_on_c, 9, 77, 0
5, 283660, Note_on_c, 9, 63, 0
5, 283740, Note_on_c, 9, 63, 46
5, 283740, Note_on_c, 9, 51, 53
5, 283792, Note_on_c, 9, 51, 0
5, 283828, Note_on_c, 9, 63, 0
5, 283932, Note_on_c, 9, 63, 61
5, 283936, Note_on_c, 9, 60, 57
5, 283940, Note_on_c, 9, 35, 47
5, 283968, Note_on_c, 9, 35, 0
5, 284028, Note_on_c, 9, 60, 0
5, 284124, Note_on_c, 9, 35, 67
5, 284256, Note_on_c, 9, 63, 0
5, 284268, Note_on_c, 9, 35, 0
5, 284316, Note_on_c, 9, 51, 63
5, 284352, Note_on_c, 9, 51, 0
5, 284492, Note_on_c, 9, 47, 18
5, 284508, Note_on_c, 9, 51, 40
5, 284520, Note_on_c, 9, 51, 0
5, 284532, Note_on_c, 9, 47, 0
5, 284700, Note_on_c, 9, 51, 71
5, 284704, Note_on_c, 9, 35, 47
5, 284736, Note_on_c, 9, 35, 0
5, 284744, Note_on_c, 9, 51, 0
5, 284868, Note_on_c, 9, 39, 46
5, 284892, Note_on_c, 9, 51, 73
5, 284892, Note_on_c, 9, 35, 65
5, 284904, Note_on_c, 9, 39, 0
5, 284980, Note_on_c, 9, 51, 0
5, 285004, Note_on_c, 9, 35, 0
5, 285084, Note_on_c, 9, 53, 48
5, 285188, Note_on_c, 9, 53, 0
5, 285276, Note_on_c, 9, 51, 52
5, 285352, Note_on_c, 9, 51, 0
5, 285468, Note_on_c, 9, 64, 50
5, 285472, Note_on_c, 9, 53, 73
5, 285476, Note_on_c, 9, 35, 49
5, 285536, Note_on_c, 9, 35, 0
5, 285536, Note_on_c, 9, 64, 0
5, 285556, Note_on_c, 9, 53, 0
5, 285660, Note_on_c, 9, 51, 61
5, 285660, Note_on_c, 9, 35, 66
5, 285780, Note_on_c, 9, 35, 0
5, 285932, Note_on_c, 9, 51, 0
5, 286044, Note_on_c, 9, 63, 36
5, 286044, Note_on_c, 9, 51, 59
5, 286068, Note_on_c, 9, 63, 0
5, 286132, Note_on_c, 9, 51, 0
5, 286240, Note_on_c, 9, 63, 58
5, 286240, Note_on_c, 9, 60, 53
5, 286240, Note_on_c, 9, 51, 65
5, 286244, Note_on_c, 9, 35, 55
5, 286264, Note_on_c, 9, 60, 0
5, 286292, Note_on_c, 9, 35, 0
5, 286332, Note_on_c, 9, 63, 0
5, 286352, Note_on_c, 9, 51, 0
5, 286428, Note_on_c, 9, 35, 66
5, 286516, Note_on_c, 9, 35, 0
5, 286620, Note_on_c, 9, 51, 59
5, 286704, Note_on_c, 9, 51, 0
5, 286812, Note_on_c, 9, 51, 68
5, 287004, Note_on_c, 9, 64, 58
5, 287008, Note_on_c, 9, 35, 46
5, 287012, Note_on_c, 9, 51, 0
5, 287024, Note_on_c, 9, 35, 0
5, 287100, Note_on_c, 9, 64, 0
5, 287196, Note_on_c, 9, 35, 60
5, 287196, Note_on_c, 9, 51, 46
5, 287208, Note_on_c, 9, 67, 32
5, 287232, Note_on_c, 9, 51, 0
5, 287284, Note_on_c, 9, 35, 0
5, 287308, Note_on_c, 9, 67, 0
5, 287388, Note_on_c, 9, 51, 63
5, 287460, Note_on_c, 9, 51, 0
5, 287580, Note_on_c, 9, 63, 27
5, 287596, Note_on_c, 9, 67, 35
5, 287684, Note_on_c, 9, 63, 0
5, 287760, Note_on_c, 9, 67, 0
5, 287772, Note_on_c, 9, 63, 74
5, 287776, Note_on_c, 9, 51, 68
5, 287780, Note_on_c, 9, 35, 49
5, 287816, Note_on_c, 9, 35, 0
5, 287852, Note_on_c, 9, 51, 0
5, 287920, Note_on_c, 9, 63, 0
5, 287964, Note_on_c, 9, 35, 61
5, 288040, Note_on_c, 9, 35, 0
5, 288156, Note_on_c, 9, 51, 46
5, 288176, Note_on_c, 9, 51, 0
5, 288332, Note_on_c, 9, 68, 26
5, 288348, Note_on_c, 9, 51, 69
5, 288464, Note_on_c, 9, 68, 0
5, 288516, Note_on_c, 9, 51, 0
5, 288528, Note_on_c, 9, 68, 21
5, 288540, Note_on_c, 9, 64, 70
5, 288544, Note_on_c, 9, 35, 40
5, 288584, Note_on_c, 9, 35, 0
5, 288596, Note_on_c, 9, 68, 0
5, 288640, Note_on_c, 9, 64, 0
5, 288732, Note_on_c, 9, 35, 67
5, 288732, Note_on_c, 9, 51, 50
5, 288744, Note_on_c, 9, 51, 0
5, 288832, Note_on_c, 9, 35, 0
5, 288924, Note_on_c, 9, 51, 71
5, 289004, Note_on_c, 9, 51, 0
5, 289116, Note_on_c, 9, 63, 33
5, 289116, Note_on_c, 9, 67, 44
5, 289164, Note_on_c, 9, 63, 0
5, 289272, Note_on_c, 9, 67, 0
5, 289308, Note_on_c, 9, 63, 68
5, 289312, Note_on_c, 9, 51, 50
5, 289324, Note_on_c, 9, 51, 0
5, 289332, Note_on_c, 9, 67, 42
5, 289432, Note_on_c, 9, 63, 0
5, 289500, Note_on_c, 9, 51, 57
5, 289504, Note_on_c, 9, 35, 71
5, 289536, Note_on_c, 9, 67, 0
5, 289576, Note_on_c, 9, 35, 0
5, 289628, Note_on_c, 9, 51, 0
5, 289692, Note_on_c, 9, 53, 57
5, 289772, Note_on_c, 9, 53, 0
5, 289884, Note_on_c, 9, 64, 19
5, 289884, Note_on_c, 9, 51, 25
5, 289908, Note_on_c, 9, 68, 19
5, 289920, Note_on_c, 9, 64, 0
5, 289936, Note_on_c, 9, 51, 0
5, 290032, Note_on_c, 9, 68, 0
5, 290076, Note_on_c, 9, 64, 54
5, 290080, Note_on_c, 9, 50, 51
5, 290084, Note_on_c, 9, 35, 47
5, 290084, Note_on_c, 9, 53, 74
5, 290104, Note_on_c, 9, 68, 30
5, 290144, Note_on_c, 9, 50, 0
5, 290156, Note_on_c, 9, 35, 0
5, 290172, Note_on_c, 9, 53, 0
5, 290224, Note_on_c, 9, 64, 0
5, 290240, Note_on_c, 9, 68, 0
5, 290268, Note_on_c, 9, 35, 66
5, 290268, Note_on_c, 9, 51, 42
5, 290356, Note_on_c, 9, 51, 0
5, 290412, Note_on_c, 9, 35, 0
5, 290460, Note_on_c, 9, 53, 69
5, 290532, Note_on_c, 9, 53, 0
5, 290652, Note_on_c, 9, 63, 57
5, 290652, Note_on_c, 9, 51, 46
5, 290720, Note_on_c, 9, 63, 0
5, 290752, Note_on_c, 9, 51, 0
5, 290844, Note_on_c, 9, 63, 58
5, 290852, Note_on_c, 9, 51, 47
5, 290852, Note_on_c, 9, 35, 38
5, 290888, Note_on_c, 9, 35, 0
5, 290892, Note_on_c, 9, 51, 0
5, 290932, Note_on_c, 9, 63, 0
5, 291036, Note_on_c, 9, 35, 67
5, 291036, Note_on_c, 9, 51, 70
5, 291136, Note_on_c, 9, 35, 0
5, 291164, Note_on_c, 9, 51, 0
5, 291228, Note_on_c, 9, 53, 61
5, 291316, Note_on_c, 9, 53, 0
5, 291420, Note_on_c, 9, 51, 50
5, 291456, Note_on_c, 9, 51, 0
5, 291612, Note_on_c, 9, 64, 59
5, 291616, Note_on_c, 9, 51, 80
5, 291620, Note_on_c, 9, 35, 39
5, 291644, Note_on_c, 9, 35, 0
5, 291764, Note_on_c, 9, 64, 0
5, 291792, Note_on_c, 9, 51, 0
5, 291804, Note_on_c, 9, 35, 63
5, 291904, Note_on_c, 9, 35, 0
5, 291996, Note_on_c, 9, 51, 69
5, 292076, Note_on_c, 9, 51, 0
5, 292188, Note_on_c, 9, 51, 45
5, 292240, Note_on_c, 9, 51, 0
5, 292380, Note_on_c, 9, 63, 75
5, 292384, Note_on_c, 9, 51, 46
5, 292388, Note_on_c, 9, 35, 57
5, 292424, Note_on_c, 9, 76, 27
5, 292436, Note_on_c, 9, 35, 0
5, 292436, Note_on_c, 9, 51, 0
5, 292460, Note_on_c, 9, 76, 0
5, 292504, Note_on_c, 9, 76, 45
5, 292544, Note_on_c, 9, 76, 0
5, 292572, Note_on_c, 9, 35, 69
5, 292572, Note_on_c, 9, 51, 69
5, 292640, Note_on_c, 9, 63, 0
5, 292672, Note_on_c, 9, 51, 0
5, 292704, Note_on_c, 9, 35, 0
5, 292756, Note_on_c, 9, 76, 58
5, 292764, Note_on_c, 9, 53, 59
5, 292784, Note_on_c, 9, 76, 0
5, 292832, Note_on_c, 9, 53, 0
5, 292956, Note_on_c, 9, 51, 29
5, 292956, Note_on_c, 9, 76, 59
5, 293008, Note_on_c, 9, 76, 0
5, 293024, Note_on_c, 9, 51, 0
5, 293140, Note_on_c, 9, 76, 26
5, 293152, Note_on_c, 9, 64, 26
5, 293152, Note_on_c, 9, 64, 0
5, 293152, Note_on_c, 9, 64, 45
5, 293156, Note_on_c, 9, 51, 50
5, 293168, Note_on_c, 9, 35, 55
5, 293188, Note_on_c, 9, 76, 0
5, 293192, Note_on_c, 9, 35, 0
5, 293196, Note_on_c, 9, 51, 0
5, 293264, Note_on_c, 9, 64, 0
5, 293340, Note_on_c, 9, 51, 77
5, 293340, Note_on_c, 9, 35, 68
5, 293484, Note_on_c, 9, 51, 0
5, 293532, Note_on_c, 9, 35, 0
5, 293724, Note_on_c, 9, 63, 44
5, 293812, Note_on_c, 9, 63, 0
5, 293916, Note_on_c, 9, 63, 55
5, 293920, Note_on_c, 9, 51, 76
5, 293924, Note_on_c, 9, 35, 48
5, 293952, Note_on_c, 9, 35, 0
5, 294016, Note_on_c, 9, 63, 0
5, 294040, Note_on_c, 9, 51, 0
5, 294108, Note_on_c, 9, 35, 64
5, 294208, Note_on_c, 9, 35, 0
5, 294300, Note_on_c, 9, 51, 55
5, 294308, Note_on_c, 9, 76, 21
5, 294336, Note_on_c, 9, 76, 0
5, 294344, Note_on_c, 9, 51, 0
5, 294492, Note_on_c, 9, 64, 48
5, 294500, Note_on_c, 9, 76, 26
5, 294516, Note_on_c, 9, 64, 0
5, 294628, Note_on_c, 9, 76, 0
5, 294684, Note_on_c, 9, 64, 59
5, 294692, Note_on_c, 9, 51, 81
5, 294692, Note_on_c, 9, 35, 47
5, 294692, Note_on_c, 9, 76, 46
5, 294716, Note_on_c, 9, 35, 0
5, 294740, Note_on_c, 9, 64, 0
5, 294808, Note_on_c, 9, 51, 0
5, 294832, Note_on_c, 9, 76, 0
5, 294876, Note_on_c, 9, 35, 64
5, 294976, Note_on_c, 9, 35, 0
5, 295068, Note_on_c, 9, 51, 74
5, 295164, Note_on_c, 9, 51, 0
5, 295260, Note_on_c, 9, 63, 40
5, 295312, Note_on_c, 9, 63, 0
5, 295440, Note_on_c, 9, 76, 28
5, 295448, Note_on_c, 9, 63, 58
5, 295452, Note_on_c, 9, 51, 59
5, 295456, Note_on_c, 9, 35, 46
5, 295484, Note_on_c, 9, 35, 0
5, 295492, Note_on_c, 9, 51, 0
5, 295540, Note_on_c, 9, 63, 0
5, 295544, Note_on_c, 9, 76, 0
5, 295644, Note_on_c, 9, 51, 59
5, 295644, Note_on_c, 9, 35, 68
5, 295652, Note_on_c, 9, 76, 19
5, 295732, Note_on_c, 9, 51, 0
5, 295748, Note_on_c, 9, 35, 0
5, 295752, Note_on_c, 9, 76, 0
5, 295836, Note_on_c, 9, 53, 73
5, 295844, Note_on_c, 9, 76, 29
5, 295908, Note_on_c, 9, 76, 0
5, 295912, Note_on_c, 9, 53, 0
5, 296028, Note_on_c, 9, 51, 33
5, 296028, Note_on_c, 9, 64, 43
5, 296092, Note_on_c, 9, 51, 0
5, 296100, Note_on_c, 9, 64, 0
5, 296220, Note_on_c, 9, 64, 52
5, 296228, Note_on_c, 9, 53, 75
5, 296228, Note_on_c, 9, 35, 39
5, 296292, Note_on_c, 9, 35, 0
5, 296308, Note_on_c, 9, 64, 0
5, 296316, Note_on_c, 9, 53, 0
5, 296412, Note_on_c, 9, 35, 63
5, 296412, Note_on_c, 9, 51, 46
5, 296512, Note_on_c, 9, 51, 0
5, 296604, Note_on_c, 9, 51, 58
5, 296620, Note_on_c, 9, 35, 0
5, 296660, Note_on_c, 9, 51, 0
5, 296784, Note_on_c, 9, 76, 22
5, 296796, Note_on_c, 9, 51, 47
5, 296796, Note_on_c, 9, 63, 44
5, 296820, Note_on_c, 9, 51, 0
5, 296832, Note_on_c, 9, 63, 0
5, 296932, Note_on_c, 9, 76, 0
5, 296988, Note_on_c, 9, 63, 55
5, 296992, Note_on_c, 9, 51, 83
5, 296996, Note_on_c, 9, 35, 49
5, 297004, Note_on_c, 9, 76, 51
5, 297028, Note_on_c, 9, 35, 0
5, 297056, Note_on_c, 9, 63, 0
5, 297100, Note_on_c, 9, 76, 0
5, 297180, Note_on_c, 9, 35, 62
5, 297268, Note_on_c, 9, 51, 0
5, 297292, Note_on_c, 9, 35, 0
5, 297372, Note_on_c, 9, 53, 71
5, 297460, Note_on_c, 9, 53, 0
5, 297564, Note_on_c, 9, 64, 43
5, 297564, Note_on_c, 9, 51, 26
5, 297636, Note_on_c, 9, 51, 0
5, 297652, Note_on_c, 9, 64, 0
5, 297760, Note_on_c, 9, 35, 46
5, 297760, Note_on_c, 9, 51, 74
5, 297760, Note_on_c, 9, 64, 38
5, 297764, Note_on_c, 9, 76, 31
5, 297784, Note_on_c, 9, 35, 0
5, 297800, Note_on_c, 9, 76, 0
5, 297852, Note_on_c, 9, 64, 0
5, 297936, Note_on_c, 9, 76, 29
5, 297948, Note_on_c, 9, 35, 66
5, 298016, Note_on_c, 9, 76, 0
5, 298060, Note_on_c, 9, 51, 0
5, 298068, Note_on_c, 9, 35, 0
5, 298140, Note_on_c, 9, 53, 59
5, 298144, Note_on_c, 9, 76, 33
5, 298156, Note_on_c, 9, 54, 48
5, 298228, Note_on_c, 9, 53, 0
5, 298304, Note_on_c, 9, 54, 0
5, 298332, Note_on_c, 9, 63, 41
5, 298332, Note_on_c, 9, 51, 27
5, 298368, Note_on_c, 9, 76, 0
5, 298380, Note_on_c, 9, 63, 0
5, 298400, Note_on_c, 9, 51, 0
5, 298524, Note_on_c, 9, 63, 68
5, 298528, Note_on_c, 9, 53, 64
5, 298532, Note_on_c, 9, 35, 46
5, 298564, Note_on_c, 9, 35, 0
5, 298568, Note_on_c, 9, 76, 30
5, 298596, Note_on_c, 9, 76, 0
5, 298620, Note_on_c, 9, 53, 0
5, 298636, Note_on_c, 9, 63, 0
5, 298716, Note_on_c, 9, 51, 59
5, 298716, Note_on_c, 9, 35, 66
5, 298772, Note_on_c, 9, 76, 57
5, 298776, Note_on_c, 9, 54, 59
5, 298784, Note_on_c, 9, 51, 0
5, 298816, Note_on_c, 9, 35, 0
5, 298908, Note_on_c, 9, 53, 58
5, 298924, Note_on_c, 9, 54, 0
5, 298952, Note_on_c, 9, 76, 0
5, 299004, Note_on_c, 9, 53, 0
5, 299072, Note_on_c, 9, 76, 28
5, 299100, Note_on_c, 9, 76, 0
5, 299100, Note_on_c, 9, 64, 49
5, 299104, Note_on_c, 9, 51, 52
5, 299136, Note_on_c, 9, 51, 0
5, 299212, Note_on_c, 9, 64, 0
5, 299292, Note_on_c, 9, 64, 44
5, 299296, Note_on_c, 9, 53, 64
5, 299300, Note_on_c, 9, 35, 42
5, 299308, Note_on_c, 9, 76, 68
5, 299328, Note_on_c, 9, 35, 0
5, 299328, Note_on_c, 9, 53, 0
5, 299388, Note_on_c, 9, 76, 0
5, 299396, Note_on_c, 9, 64, 0
5, 299484, Note_on_c, 9, 57, 77
5, 299484, Note_on_c, 9, 51, 85
5, 299492, Note_on_c, 9, 53, 83
5, 299496, Note_on_c, 9, 35, 60
5, 299504, Note_on_c, 9, 76, 55
5, 299524, Note_on_c, 9, 76, 0
5, 299588, Note_on_c, 9, 35, 0
5, 299592, Note_on_c, 9, 76, 37
5, 299604, Note_on_c, 9, 51, 0
5, 299616, Note_on_c, 9, 76, 0
5, 299676, Note_on_c, 9, 76, 17
5, 299684, Note_on_c, 9, 53, 0
5, 299692, Note_on_c, 9, 57, 0
5, 299712, Note_on_c, 9, 76, 0
5, 299868, Note_on_c, 9, 63, 31
5, 299868, Note_on_c, 9, 51, 30
5, 299932, Note_on_c, 9, 51, 0
5, 299944, Note_on_c, 9, 63, 0
5, 300052, Note_on_c, 9, 76, 41
5, 300064, Note_on_c, 9, 63, 61
5, 300068, Note_on_c, 9, 35, 34
5, 300068, Note_on_c, 9, 51, 73
5, 300080, Note_on_c, 9, 35, 0
5, 300116, Note_on_c, 9, 76, 0
5, 300176, Note_on_c, 9, 63, 0
5, 300208, Note_on_c, 9, 51, 0
5, 300252, Note_on_c, 9, 35, 56
5, 300260, Note_on_c, 9, 76, 54
5, 300328, Note_on_c, 9, 76, 0
5, 300380, Note_on_c, 9, 35, 0
5, 300444, Note_on_c, 9, 51, 56
5, 300524, Note_on_c, 9, 51, 0
5, 300636, Note_on_c, 9, 64, 51
5, 300636, Note_on_c, 9, 51, 74
5, 300700, Note_on_c, 9, 51, 0
5, 300736, Note_on_c, 9, 64, 0
5, 300832, Note_on_c, 9, 64, 50
5, 300832, Note_on_c, 9, 53, 83
5, 300832, Note_on_c, 9, 51, 90
5, 300836, Note_on_c, 9, 57, 73
5, 300848, Note_on_c, 9, 35, 42
5, 300860, Note_on_c, 9, 35, 0
5, 300908, Note_on_c, 9, 64, 0
5, 300916, Note_on_c, 9, 53, 0
5, 300932, Note_on_c, 9, 57, 0
5, 300976, Note_on_c, 9, 51, 0
5, 301020, Note_on_c, 9, 35, 63
5, 301120, Note_on_c, 9, 35, 0
5, 301212, Note_on_c, 9, 51, 60
5, 301268, Note_on_c, 9, 51, 0
5, 301404, Note_on_c, 9, 63, 45
5, 301404, Note_on_c, 9, 57, 61
5, 301408, Note_on_c, 9, 53, 74
5, 301416, Note_on_c, 9, 51, 81
5, 301420, Note_on_c, 9, 63, 0
5, 301476, Note_on_c, 9, 53, 0
5, 301480, Note_on_c, 9, 57, 0
5, 301588, Note_on_c, 9, 51, 0
5, 301596, Note_on_c, 9, 63, 60
5, 301600, Note_on_c, 9, 35, 56
5, 301616, Note_on_c, 9, 35, 0
5, 301684, Note_on_c, 9, 63, 0
5, 301788, Note_on_c, 9, 51, 57
5, 301792, Note_on_c, 9, 35, 65
5, 301840, Note_on_c, 9, 51, 0
5, 301852, Note_on_c, 9, 35, 0
5, 301980, Note_on_c, 9, 51, 73
5, 302084, Note_on_c, 9, 51, 0
5, 302172, Note_on_c, 9, 64, 38
5, 302248, Note_on_c, 9, 64, 0
5, 302364, Note_on_c, 9, 64, 57
5, 302372, Note_on_c, 9, 51, 54
5, 302372, Note_on_c, 9, 35, 31
5, 302400, Note_on_c, 9, 51, 0
5, 302408, Note_on_c, 9, 35, 0
5, 302476, Note_on_c, 9, 64, 0
5, 302556, Note_on_c, 9, 51, 76
5, 302556, Note_on_c, 9, 35, 66
5, 302564, Note_on_c, 9, 68, 32
5, 302632, Note_on_c, 9, 68, 0
5, 302724, Note_on_c, 9, 35, 0
5, 302736, Note_on_c, 9, 51, 0
5, 302924, Note_on_c, 9, 68, 29
5, 302940, Note_on_c, 9, 63, 41
5, 302940, Note_on_c, 9, 51, 48
5, 302964, Note_on_c, 9, 51, 0
5, 303004, Note_on_c, 9, 63, 0
5, 303044, Note_on_c, 9, 68, 0
5, 303132, Note_on_c, 9, 63, 70
5, 303136, Note_on_c, 9, 51, 77
5, 303140, Note_on_c, 9, 35, 39
5, 303176, Note_on_c, 9, 35, 0
5, 303280, Note_on_c, 9, 51, 0
5, 303292, Note_on_c, 9, 63, 0
5, 303324, Note_on_c, 9, 35, 59
5, 303480, Note_on_c, 9, 35, 0
5, 303664, Note_on_c, 9, 67, 37
5, 303708, Note_on_c, 9, 51, 62
5, 303708, Note_on_c, 9, 64, 38
5, 303772, Note_on_c, 9, 64, 0
5, 303808, Note_on_c, 9, 67, 0
5, 303820, Note_on_c, 9, 51, 0
5, 303876, Note_on_c, 9, 67, 37
5, 303900, Note_on_c, 9, 64, 65
5, 303904, Note_on_c, 9, 53, 56
5, 303904, Note_on_c, 9, 35, 39
5, 303924, Note_on_c, 9, 53, 0
5, 303932, Note_on_c, 9, 35, 0
5, 303972, Note_on_c, 9, 67, 0
5, 304012, Note_on_c, 9, 64, 0
5, 304092, Note_on_c, 9, 51, 20
5, 304092, Note_on_c, 9, 35, 64
5, 304168, Note_on_c, 9, 51, 0
5, 304248, Note_on_c, 9, 35, 0
5, 304284, Note_on_c, 9, 51, 61
5, 304380, Note_on_c, 9, 51, 0
5, 304476, Note_on_c, 9, 68, 23
5, 304476, Note_on_c, 9, 63, 25
5, 304512, Note_on_c, 9, 63, 0
5, 304588, Note_on_c, 9, 68, 0
5, 304660, Note_on_c, 9, 68, 22
5, 304668, Note_on_c, 9, 63, 85
5, 304672, Note_on_c, 9, 51, 47
5, 304672, Note_on_c, 9, 35, 44
5, 304692, Note_on_c, 9, 35, 0
5, 304724, Note_on_c, 9, 51, 0
5, 304780, Note_on_c, 9, 68, 0
5, 304828, Note_on_c, 9, 63, 0
5, 304860, Note_on_c, 9, 35, 60
5, 304860, Note_on_c, 9, 51, 72
5, 304924, Note_on_c, 9, 35, 0
5, 304976, Note_on_c, 9, 51, 0
5, 305052, Note_on_c, 9, 51, 30
5, 305060, Note_on_c, 9, 68, 21
5, 305088, Note_on_c, 9, 68, 0
5, 305104, Note_on_c, 9, 51, 0
5, 305244, Note_on_c, 9, 51, 44
5, 305256, Note_on_c, 9, 67, 32
5, 305280, Note_on_c, 9, 51, 0
5, 305300, Note_on_c, 9, 67, 0
5, 305440, Note_on_c, 9, 64, 70
5, 305440, Note_on_c, 9, 51, 83
5, 305452, Note_on_c, 9, 35, 50
5, 305452, Note_on_c, 9, 67, 67
5, 305508, Note_on_c, 9, 35, 0
5, 305540, Note_on_c, 9, 64, 0
5, 305548, Note_on_c, 9, 67, 0
5, 305628, Note_on_c, 9, 35, 56
5, 305632, Note_on_c, 9, 51, 0
5, 305784, Note_on_c, 9, 35, 0
5, 305820, Note_on_c, 9, 51, 37
5, 305888, Note_on_c, 9, 51, 0
5, 306012, Note_on_c, 9, 51, 80
5, 306140, Note_on_c, 9, 51, 0
5, 306204, Note_on_c, 9, 63, 77
5, 306208, Note_on_c, 9, 51, 44
5, 306212, Note_on_c, 9, 35, 51
5, 306228, Note_on_c, 9, 35, 0
5, 306340, Note_on_c, 9, 51, 0
5, 306396, Note_on_c, 9, 51, 51
5, 306396, Note_on_c, 9, 35, 67
5, 306444, Note_on_c, 9, 51, 0
5, 306468, Note_on_c, 9, 63, 0
5, 306496, Note_on_c, 9, 35, 0
5, 306588, Note_on_c, 9, 64, 34
5, 306592, Note_on_c, 9, 51, 79
5, 306656, Note_on_c, 9, 64, 0
5, 306780, Note_on_c, 9, 64, 38
5, 306844, Note_on_c, 9, 64, 0
5, 306852, Note_on_c, 9, 51, 0
5, 306972, Note_on_c, 9, 64, 81
5, 306976, Note_on_c, 9, 51, 37
5, 306980, Note_on_c, 9, 35, 38
5, 307016, Note_on_c, 9, 51, 0
5, 307020, Note_on_c, 9, 76, 22
5, 307044, Note_on_c, 9, 35, 0
5, 307052, Note_on_c, 9, 76, 0
5, 307092, Note_on_c, 9, 76, 19
5, 307120, Note_on_c, 9, 76, 0
5, 307164, Note_on_c, 9, 51, 75
5, 307164, Note_on_c, 9, 35, 53
5, 307172, Note_on_c, 9, 76, 30
5, 307200, Note_on_c, 9, 76, 0
5, 307252, Note_on_c, 9, 64, 0
5, 307356, Note_on_c, 9, 63, 38
5, 307364, Note_on_c, 9, 51, 0
5, 307380, Note_on_c, 9, 35, 0
5, 307384, Note_on_c, 9, 76, 49
5, 307400, Note_on_c, 9, 76, 0
5, 307428, Note_on_c, 9, 63, 0
5, 307548, Note_on_c, 9, 63, 22
5, 307548, Note_on_c, 9, 51, 33
5, 307572, Note_on_c, 9, 76, 39
5, 307596, Note_on_c, 9, 51, 0
5, 307604, Note_on_c, 9, 76, 0
5, 307664, Note_on_c, 9, 63, 0
5, 307736, Note_on_c, 9, 76, 23
5, 307740, Note_on_c, 9, 63, 76
5, 307744, Note_on_c, 9, 51, 70
5, 307748, Note_on_c, 9, 35, 36
5, 307772, Note_on_c, 9, 76, 0
5, 307796, Note_on_c, 9, 35, 0
5, 307864, Note_on_c, 9, 51, 0
5, 307916, Note_on_c, 9, 76, 35
5, 307932, Note_on_c, 9, 35, 53
5, 308020, Note_on_c, 9, 76, 0
5, 308044, Note_on_c, 9, 63, 0
5, 308124, Note_on_c, 9, 64, 26
5, 308196, Note_on_c, 9, 64, 0
5, 308236, Note_on_c, 9, 35, 0
5, 308316, Note_on_c, 9, 64, 47
5, 308384, Note_on_c, 9, 64, 0
5, 308512, Note_on_c, 9, 51, 50
5, 308512, Note_on_c, 9, 51, 0
5, 308512, Note_on_c, 9, 64, 77
5, 308516, Note_on_c, 9, 35, 33
5, 308588, Note_on_c, 9, 35, 0
5, 308700, Note_on_c, 9, 35, 54
5, 308700, Note_on_c, 9, 51, 59
5, 308768, Note_on_c, 9, 64, 0
5, 308776, Note_on_c, 9, 51, 0
5, 308892, Note_on_c, 9, 63, 38
5, 308896, Note_on_c, 9, 51, 65
5, 308932, Note_on_c, 9, 51, 0
5, 308972, Note_on_c, 9, 63, 0
5, 309008, Note_on_c, 9, 35, 0
5, 309084, Note_on_c, 9, 63, 37
5, 309136, Note_on_c, 9, 63, 0
5, 309280, Note_on_c, 9, 63, 81
5, 309280, Note_on_c, 9, 51, 71
5, 309288, Note_on_c, 9, 35, 40
5, 309300, Note_on_c, 9, 35, 0
5, 309348, Note_on_c, 9, 51, 0
5, 309468, Note_on_c, 9, 35, 60
5, 309580, Note_on_c, 9, 63, 0
5, 309660, Note_on_c, 9, 64, 41
5, 309664, Note_on_c, 9, 51, 71
5, 309704, Note_on_c, 9, 51, 0
5, 309732, Note_on_c, 9, 64, 0
5, 309736, Note_on_c, 9, 35, 0
5, 309852, Note_on_c, 9, 64, 37
5, 309852, Note_on_c, 9, 53, 59
5, 309876, Note_on_c, 9, 53, 0
5, 309916, Note_on_c, 9, 64, 0
5, 310044, Note_on_c, 9, 64, 77
5, 310048, Note_on_c, 9, 51, 45
5, 310052, Note_on_c, 9, 35, 39
5, 310068, Note_on_c, 9, 51, 0
5, 310076, Note_on_c, 9, 35, 0
5, 310236, Note_on_c, 9, 35, 57
5, 310236, Note_on_c, 9, 51, 61
5, 310304, Note_on_c, 9, 51, 0
5, 310336, Note_on_c, 9, 64, 0
5, 310448, Note_on_c, 9, 35, 0
5, 310508, Note_on_c, 9, 76, 22
5, 310544, Note_on_c, 9, 76, 0
5, 310588, Note_on_c, 9, 76, 48
5, 310620, Note_on_c, 9, 51, 73
5, 310628, Note_on_c, 9, 76, 0
5, 310732, Note_on_c, 9, 51, 0
5, 310800, Note_on_c, 9, 76, 61
5, 310812, Note_on_c, 9, 63, 67
5, 310816, Note_on_c, 9, 35, 37
5, 310836, Note_on_c, 9, 35, 0
5, 310844, Note_on_c, 9, 76, 0
5, 311004, Note_on_c, 9, 51, 53
5, 311004, Note_on_c, 9, 35, 50
5, 311052, Note_on_c, 9, 51, 0
5, 311188, Note_on_c, 9, 76, 25
5, 311196, Note_on_c, 9, 51, 39
5, 311212, Note_on_c, 9, 76, 0
5, 311232, Note_on_c, 9, 51, 0
5, 311232, Note_on_c, 9, 63, 0
5, 311264, Note_on_c, 9, 76, 38
5, 311296, Note_on_c, 9, 76, 0
5, 311308, Note_on_c, 9, 35, 0
5, 311348, Note_on_c, 9, 76, 30
5, 311372, Note_on_c, 9, 76, 0
5, 311388, Note_on_c, 9, 51, 42
5, 311396, Note_on_c, 9, 51, 0
5, 311428, Note_on_c, 9, 76, 40
5, 311456, Note_on_c, 9, 76, 0
5, 311580, Note_on_c, 9, 64, 70
5, 311584, Note_on_c, 9, 51, 77
5, 311612, Note_on_c, 9, 76, 54
5, 311660, Note_on_c, 9, 76, 0
5, 311680, Note_on_c, 9, 64, 0
5, 311772, Note_on_c, 9, 35, 56
5, 311796, Note_on_c, 9, 76, 52
5, 311848, Note_on_c, 9, 76, 0
5, 311916, Note_on_c, 9, 51, 0
5, 311964, Note_on_c, 9, 51, 60
5, 312036, Note_on_c, 9, 35, 0
5, 312052, Note_on_c, 9, 51, 0
5, 312156, Note_on_c, 9, 63, 31
5, 312180, Note_on_c, 9, 63, 0
5, 312348, Note_on_c, 9, 63, 75
5, 312352, Note_on_c, 9, 51, 47
5, 312356, Note_on_c, 9, 35, 31
5, 312384, Note_on_c, 9, 35, 0
5, 312428, Note_on_c, 9, 51, 0
5, 312524, Note_on_c, 9, 63, 0
5, 312540, Note_on_c, 9, 35, 60
5, 312540, Note_on_c, 9, 51, 74
5, 312748, Note_on_c, 9, 35, 0
5, 312756, Note_on_c, 9, 51, 0
5, 312924, Note_on_c, 9, 64, 44
5, 312924, Note_on_c, 9, 64, 0
5, 313116, Note_on_c, 9, 64, 66
5, 313120, Note_on_c, 9, 51, 67
5, 313124, Note_on_c, 9, 35, 31
5, 313136, Note_on_c, 9, 35, 0
5, 313184, Note_on_c, 9, 51, 0
5, 313200, Note_on_c, 9, 64, 0
5, 313308, Note_on_c, 9, 51, 52
5, 313308, Note_on_c, 9, 35, 49
5, 313320, Note_on_c, 9, 76, 13
5, 313356, Note_on_c, 9, 51, 0
5, 313384, Note_on_c, 9, 76, 0
5, 313500, Note_on_c, 9, 63, 29
5, 313504, Note_on_c, 9, 51, 74
5, 313588, Note_on_c, 9, 63, 0
5, 313592, Note_on_c, 9, 35, 0
5, 313660, Note_on_c, 9, 51, 0
5, 313884, Note_on_c, 9, 51, 60
5, 313888, Note_on_c, 9, 35, 34
5, 313900, Note_on_c, 9, 35, 0
5, 313920, Note_on_c, 9, 51, 0
5, 314076, Note_on_c, 9, 51, 77
5, 314076, Note_on_c, 9, 35, 53
5, 314244, Note_on_c, 9, 51, 0
5, 314372, Note_on_c, 9, 35, 0
5, 314460, Note_on_c, 9, 51, 46
5, 314460, Note_on_c, 9, 54, 70
5, 314484, Note_on_c, 9, 51, 0
5, 314512, Note_on_c, 9, 54, 0
5, 314652, Note_on_c, 9, 64, 73
5, 314660, Note_on_c, 9, 35, 44
5, 314660, Note_on_c, 9, 51, 78
5, 314672, Note_on_c, 9, 35, 0
5, 314752, Note_on_c, 9, 64, 0
5, 314844, Note_on_c, 9, 35, 50
5, 314856, Note_on_c, 9, 76, 23
5, 314868, Note_on_c, 9, 51, 0
5, 314908, Note_on_c, 9, 76, 0
5, 315036, Note_on_c, 9, 51, 74
5, 315060, Note_on_c, 9, 35, 0
5, 315104, Note_on_c, 9, 51, 0
5, 315228, Note_on_c, 9, 63, 39
5, 315264, Note_on_c, 9, 63, 0
5, 315424, Note_on_c, 9, 51, 56
5, 315424, Note_on_c, 9, 63, 70
5, 315432, Note_on_c, 9, 35, 36
5, 315436, Note_on_c, 9, 35, 0
5, 315444, Note_on_c, 9, 51, 0
5, 315504, Note_on_c, 9, 76, 23
5, 315536, Note_on_c, 9, 76, 0
5, 315600, Note_on_c, 9, 76, 14
5, 315612, Note_on_c, 9, 63, 0
5, 315612, Note_on_c, 9, 51, 67
5, 315616, Note_on_c, 9, 35, 58
5, 315648, Note_on_c, 9, 76, 0
5, 315760, Note_on_c, 9, 51, 0
5, 315812, Note_on_c, 9, 76, 41
5, 315848, Note_on_c, 9, 76, 0
5, 315928, Note_on_c, 9, 35, 0
5, 315996, Note_on_c, 9, 64, 44
5, 316008, Note_on_c, 9, 76, 45
5, 316044, Note_on_c, 9, 64, 0
5, 316052, Note_on_c, 9, 76, 0
5, 316188, Note_on_c, 9, 64, 63
5, 316192, Note_on_c, 9, 51, 71
5, 316196, Note_on_c, 9, 35, 32
5, 316204, Note_on_c, 9, 76, 25
5, 316212, Note_on_c, 9, 35, 0
5, 316220, Note_on_c, 9, 76, 0
5, 316256, Note_on_c, 9, 51, 0
5, 316380, Note_on_c, 9, 35, 51
5, 316480, Note_on_c, 9, 64, 0
5, 316484, Note_on_c, 9, 35, 0
5, 316572, Note_on_c, 9, 51, 69
5, 316672, Note_on_c, 9, 51, 0
5, 316764, Note_on_c, 9, 63, 49
5, 316812, Note_on_c, 9, 63, 0
5, 316960, Note_on_c, 9, 51, 55
5, 316960, Note_on_c, 9, 63, 69
5, 316972, Note_on_c, 9, 35, 35
5, 317012, Note_on_c, 9, 35, 0
5, 317024, Note_on_c, 9, 51, 0
5, 317072, Note_on_c, 9, 63, 0
5, 317148, Note_on_c, 9, 51, 57
5, 317148, Note_on_c, 9, 35, 51
5, 317268, Note_on_c, 9, 35, 0
5, 317272, Note_on_c, 9, 51, 0
5, 317532, Note_on_c, 9, 51, 60
5, 317532, Note_on_c, 9, 64, 55
5, 317580, Note_on_c, 9, 51, 0
5, 317588, Note_on_c, 9, 64, 0
5, 317724, Note_on_c, 9, 64, 66
5, 317728, Note_on_c, 9, 51, 73
5, 317732, Note_on_c, 9, 35, 38
5, 317748, Note_on_c, 9, 54, 78
5, 317792, Note_on_c, 9, 35, 0
5, 317796, Note_on_c, 9, 54, 0
5, 317804, Note_on_c, 9, 51, 0
5, 317808, Note_on_c, 9, 64, 0
5, 317916, Note_on_c, 9, 35, 58
5, 318108, Note_on_c, 9, 51, 69
5, 318144, Note_on_c, 9, 35, 0
5, 318208, Note_on_c, 9, 51, 0
5, 318300, Note_on_c, 9, 63, 43
5, 318304, Note_on_c, 9, 76, 21
5, 318336, Note_on_c, 9, 76, 0
5, 318368, Note_on_c, 9, 63, 0
5, 318492, Note_on_c, 9, 63, 54
5, 318496, Note_on_c, 9, 51, 46
5, 318500, Note_on_c, 9, 35, 43
5, 318516, Note_on_c, 9, 76, 67
5, 318532, Note_on_c, 9, 35, 0
5, 318532, Note_on_c, 9, 51, 0
5, 318576, Note_on_c, 9, 76, 0
5, 318588, Note_on_c, 9, 63, 0
5, 318684, Note_on_c, 9, 35, 58
5, 318684, Note_on_c, 9, 51, 61
5, 318772, Note_on_c, 9, 51, 0
5, 318876, Note_on_c, 9, 51, 60
5, 318972, Note_on_c, 9, 35, 0
5, 318988, Note_on_c, 9, 51, 0
5, 319068, Note_on_c, 9, 64, 41
5, 319068, Note_on_c, 9, 51, 50
5, 319076, Note_on_c, 9, 76, 56
5, 319104, Note_on_c, 9, 51, 0
5, 319104, Note_on_c, 9, 64, 0
5, 319220, Note_on_c, 9, 76, 0
5, 319260, Note_on_c, 9, 64, 53
5, 319264, Note_on_c, 9, 51, 79
5, 319268, Note_on_c, 9, 35, 24
5, 319280, Note_on_c, 9, 76, 49
5, 319304, Note_on_c, 9, 35, 0
5, 319324, Note_on_c, 9, 76, 0
5, 319332, Note_on_c, 9, 64, 0
5, 319384, Note_on_c, 9, 51, 0
5, 319452, Note_on_c, 9, 35, 61
5, 319644, Note_on_c, 9, 51, 71
5, 319728, Note_on_c, 9, 51, 0
5, 319760, Note_on_c, 9, 35, 0
5, 319836, Note_on_c, 9, 63, 41
5, 319872, Note_on_c, 9, 63, 0
5, 320028, Note_on_c, 9, 63, 62
5, 320032, Note_on_c, 9, 51, 47
5, 320036, Note_on_c, 9, 35, 46
5, 320044, Note_on_c, 9, 35, 0
5, 320064, Note_on_c, 9, 51, 0
5, 320096, Note_on_c, 9, 63, 0
5, 320220, Note_on_c, 9, 51, 53
5, 320220, Note_on_c, 9, 35, 62
5, 320368, Note_on_c, 9, 51, 0
5, 320412, Note_on_c, 9, 53, 51
5, 320492, Note_on_c, 9, 35, 0
5, 320500, Note_on_c, 9, 53, 0
5, 320604, Note_on_c, 9, 51, 34
5, 320604, Note_on_c, 9, 64, 44
5, 320612, Note_on_c, 9, 54, 15
5, 320644, Note_on_c, 9, 51, 0
5, 320672, Note_on_c, 9, 64, 0
5, 320692, Note_on_c, 9, 54, 0
5, 320796, Note_on_c, 9, 64, 54
5, 320800, Note_on_c, 9, 51, 57
5, 320804, Note_on_c, 9, 35, 36
5, 320804, Note_on_c, 9, 54, 92
5, 320840, Note_on_c, 9, 35, 0
5, 320864, Note_on_c, 9, 64, 0
5, 320892, Note_on_c, 9, 54, 0
5, 320900, Note_on_c, 9, 51, 0
5, 320988, Note_on_c, 9, 35, 57
5, 320988, Note_on_c, 9, 51, 52
5, 321064, Note_on_c, 9, 51, 0
5, 321180, Note_on_c, 9, 51, 46
5, 321260, Note_on_c, 9, 51, 0
5, 321276, Note_on_c, 9, 35, 0
5, 321372, Note_on_c, 9, 63, 37
5, 321372, Note_on_c, 9, 51, 43
5, 321384, Note_on_c, 9, 51, 0
5, 321420, Note_on_c, 9, 63, 0
5, 321564, Note_on_c, 9, 63, 62
5, 321568, Note_on_c, 9, 51, 78
5, 321572, Note_on_c, 9, 35, 38
5, 321584, Note_on_c, 9, 76, 33
5, 321600, Note_on_c, 9, 35, 0
5, 321604, Note_on_c, 9, 76, 0
5, 321664, Note_on_c, 9, 63, 0
5, 321756, Note_on_c, 9, 35, 57
5, 321768, Note_on_c, 9, 76, 21
5, 321820, Note_on_c, 9, 76, 0
5, 321856, Note_on_c, 9, 51, 0
5, 321952, Note_on_c, 9, 51, 67
5, 321952, Note_on_c, 9, 76, 33
5, 322016, Note_on_c, 9, 76, 0
5, 322044, Note_on_c, 9, 35, 0
5, 322052, Note_on_c, 9, 51, 0
5, 322140, Note_on_c, 9, 64, 47
5, 322140, Note_on_c, 9, 76, 42
5, 322176, Note_on_c, 9, 76, 0
5, 322228, Note_on_c, 9, 64, 0
5, 322332, Note_on_c, 9, 64, 58
5, 322336, Note_on_c, 9, 51, 53
5, 322340, Note_on_c, 9, 35, 43
5, 322372, Note_on_c, 9, 35, 0
5, 322372, Note_on_c, 9, 51, 0
5, 322432, Note_on_c, 9, 64, 0
5, 322524, Note_on_c, 9, 51, 68
5, 322528, Note_on_c, 9, 35, 63
5, 322624, Note_on_c, 9, 51, 0
5, 322716, Note_on_c, 9, 51, 50
5, 322752, Note_on_c, 9, 51, 0
5, 322816, Note_on_c, 9, 35, 0
5, 322908, Note_on_c, 9, 51, 47
5, 322908, Note_on_c, 9, 63, 32
5, 322944, Note_on_c, 9, 51, 0
5, 322964, Note_on_c, 9, 63, 0
5, 323100, Note_on_c, 9, 63, 56
5, 323104, Note_on_c, 9, 51, 72
5, 323108, Note_on_c, 9, 35, 43
5, 323156, Note_on_c, 9, 35, 0
5, 323196, Note_on_c, 9, 51, 0
5, 323200, Note_on_c, 9, 63, 0
5, 323292, Note_on_c, 9, 51, 36
5, 323292, Note_on_c, 9, 35, 64
5, 323348, Note_on_c, 9, 51, 0
5, 323484, Note_on_c, 9, 51, 46
5, 323540, Note_on_c, 9, 51, 0
5, 323648, Note_on_c, 9, 35, 0
5, 323676, Note_on_c, 9, 51, 71
5, 323676, Note_on_c, 9, 64, 38
5, 323752, Note_on_c, 9, 64, 0
5, 323832, Note_on_c, 9, 51, 0
5, 323868, Note_on_c, 9, 64, 55
5, 323872, Note_on_c, 9, 35, 30
5, 323924, Note_on_c, 9, 35, 0
5, 323952, Note_on_c, 9, 64, 0
5, 324060, Note_on_c, 9, 35, 57
5, 324252, Note_on_c, 9, 51, 73
5, 324332, Note_on_c, 9, 51, 0
5, 324364, Note_on_c, 9, 35, 0
5, 324444, Note_on_c, 9, 63, 18
5, 324444, Note_on_c, 9, 51, 35
5, 324492, Note_on_c, 9, 51, 0
5, 324500, Note_on_c, 9, 63, 0
5, 324636, Note_on_c, 9, 63, 66
5, 324640, Note_on_c, 9, 51, 53
5, 324644, Note_on_c, 9, 35, 44
5, 324676, Note_on_c, 9, 35, 0
5, 324724, Note_on_c, 9, 51, 0
5, 324828, Note_on_c, 9, 35, 62
5, 324828, Note_on_c, 9, 51, 77
5, 324928, Note_on_c, 9, 51, 0
5, 325056, Note_on_c, 9, 63, 0
5, 325092, Note_on_c, 9, 76, 27
5, 325120, Note_on_c, 9, 76, 0
5, 325132, Note_on_c, 9, 35, 0
5, 325168, Note_on_c, 9, 76, 37
5, 325200, Note_on_c, 9, 76, 0
5, 325212, Note_on_c, 9, 64, 30
5, 325212, Note_on_c, 9, 51, 33
5, 325248, Note_on_c, 9, 76, 50
5, 325252, Note_on_c, 9, 51, 0
5, 325268, Note_on_c, 9, 76, 0
5, 325288, Note_on_c, 9, 64, 0
5, 325404, Note_on_c, 9, 64, 66
5, 325408, Note_on_c, 9, 51, 73
5, 325412, Note_on_c, 9, 35, 39
5, 325428, Note_on_c, 9, 76, 65
5, 325460, Note_on_c, 9, 35, 0
5, 325472, Note_on_c, 9, 76, 0
5, 325500, Note_on_c, 9, 51, 0
5, 325540, Note_on_c, 9, 64, 0
5, 325596, Note_on_c, 9, 35, 57
5, 325608, Note_on_c, 9, 76, 56
5, 325652, Note_on_c, 9, 76, 0
5, 325792, Note_on_c, 9, 51, 50
5, 325796, Note_on_c, 9, 51, 0
5, 325796, Note_on_c, 9, 76, 50
5, 325832, Note_on_c, 9, 76, 0
5, 325900, Note_on_c, 9, 35, 0
5, 325980, Note_on_c, 9, 51, 67
5, 325980, Note_on_c, 9, 63, 25
5, 325988, Note_on_c, 9, 76, 55
5, 326032, Note_on_c, 9, 63, 0
5, 326044, Note_on_c, 9, 76, 0
5, 326108, Note_on_c, 9, 51, 0
5, 326172, Note_on_c, 9, 63, 66
5, 326176, Note_on_c, 9, 35, 46
5, 326204, Note_on_c, 9, 35, 0
5, 326336, Note_on_c, 9, 63, 0
5, 326364, Note_on_c, 9, 51, 53
5, 326364, Note_on_c, 9, 35, 63
5, 326376, Note_on_c, 9, 51, 0
5, 326556, Note_on_c, 9, 51, 71
5, 326580, Note_on_c, 9, 35, 0
5, 326672, Note_on_c, 9, 51, 0
5, 326748, Note_on_c, 9, 64, 28
5, 326860, Note_on_c, 9, 64, 0
5, 326940, Note_on_c, 9, 64, 50
5, 326944, Note_on_c, 9, 51, 53
5, 326948, Note_on_c, 9, 35, 43
5, 326956, Note_on_c, 9, 51, 0
5, 326984, Note_on_c, 9, 35, 0
5, 327100, Note_on_c, 9, 64, 0
5, 327132, Note_on_c, 9, 35, 62
5, 327132, Note_on_c, 9, 51, 69
5, 327288, Note_on_c, 9, 51, 0
5, 327392, Note_on_c, 9, 35, 0
5, 327516, Note_on_c, 9, 63, 39
5, 327516, Note_on_c, 9, 51, 30
5, 327552, Note_on_c, 9, 51, 0
5, 327616, Note_on_c, 9, 63, 0
5, 327708, Note_on_c, 9, 63, 53
5, 327712, Note_on_c, 9, 51, 71
5, 327716, Note_on_c, 9, 35, 39
5, 327748, Note_on_c, 9, 35, 0
5, 327820, Note_on_c, 9, 63, 0
5, 327844, Note_on_c, 9, 51, 0
5, 327900, Note_on_c, 9, 35, 64
5, 328092, Note_on_c, 9, 51, 71
5, 328160, Note_on_c, 9, 51, 0
5, 328188, Note_on_c, 9, 35, 0
5, 328284, Note_on_c, 9, 64, 38
5, 328340, Note_on_c, 9, 64, 0
5, 328476, Note_on_c, 9, 64, 51
5, 328484, Note_on_c, 9, 51, 48
5, 328484, Note_on_c, 9, 35, 41
5, 328520, Note_on_c, 9, 35, 0
5, 328524, Note_on_c, 9, 51, 0
5, 328560, Note_on_c, 9, 64, 0
5, 328668, Note_on_c, 9, 35, 68
5, 328668, Note_on_c, 9, 51, 60
5, 328848, Note_on_c, 9, 51, 0
5, 328956, Note_on_c, 9, 35, 0
5, 329052, Note_on_c, 9, 51, 50
5, 329052, Note_on_c, 9, 63, 45
5, 329100, Note_on_c, 9, 63, 0
5, 329116, Note_on_c, 9, 51, 0
5, 329244, Note_on_c, 9, 63, 61
5, 329248, Note_on_c, 9, 53, 59
5, 329252, Note_on_c, 9, 35, 36
5, 329300, Note_on_c, 9, 35, 0
5, 329300, Note_on_c, 9, 53, 0
5, 329344, Note_on_c, 9, 63, 0
5, 329436, Note_on_c, 9, 35, 65
5, 329628, Note_on_c, 9, 53, 71
5, 329712, Note_on_c, 9, 53, 0
5, 329744, Note_on_c, 9, 35, 0
5, 329820, Note_on_c, 9, 64, 38
5, 329820, Note_on_c, 9, 51, 46
5, 329828, Note_on_c, 9, 54, 70
5, 329872, Note_on_c, 9, 54, 0
5, 329920, Note_on_c, 9, 64, 0
5, 329924, Note_on_c, 9, 51, 0
5, 330012, Note_on_c, 9, 64, 64
5, 330016, Note_on_c, 9, 51, 46
5, 330068, Note_on_c, 9, 51, 0
5, 330148, Note_on_c, 9, 64, 0
5, 330188, Note_on_c, 9, 76, 45
5, 330204, Note_on_c, 9, 51, 67
5, 330208, Note_on_c, 9, 35, 68
5, 330240, Note_on_c, 9, 76, 0
5, 330384, Note_on_c, 9, 51, 0
5, 330496, Note_on_c, 9, 35, 0
5, 330588, Note_on_c, 9, 63, 35
5, 330652, Note_on_c, 9, 63, 0
5, 330780, Note_on_c, 9, 63, 36
5, 330784, Note_on_c, 9, 60, 37
5, 330788, Note_on_c, 9, 35, 37
5, 330788, Note_on_c, 9, 51, 67
5, 330820, Note_on_c, 9, 35, 0
5, 330860, Note_on_c, 9, 51, 0
5, 330864, Note_on_c, 9, 60, 0
5, 330928, Note_on_c, 9, 63, 0
5, 330972, Note_on_c, 9, 51, 59
5, 330972, Note_on_c, 9, 35, 67
5, 331048, Note_on_c, 9, 51, 0
5, 331344, Note_on_c, 9, 35, 0
5, 331356, Note_on_c, 9, 51, 30
5, 331356, Note_on_c, 9, 64, 46
5, 331392, Note_on_c, 9, 64, 0
5, 331420, Note_on_c, 9, 51, 0
5, 331552, Note_on_c, 9, 64, 53
5, 331552, Note_on_c, 9, 51, 61
5, 331552, Note_on_c, 9, 35, 33
5, 331604, Note_on_c, 9, 35, 0
5, 331628, Note_on_c, 9, 64, 0
5, 331636, Note_on_c, 9, 51, 0
5, 331740, Note_on_c, 9, 35, 68
5, 331884, Note_on_c, 9, 35, 0
5, 331932, Note_on_c, 9, 51, 64
5, 332016, Note_on_c, 9, 51, 0
5, 332124, Note_on_c, 9, 63, 32
5, 332188, Note_on_c, 9, 63, 0
5, 332316, Note_on_c, 9, 63, 61
5, 332320, Note_on_c, 9, 51, 46
5, 332324, Note_on_c, 9, 35, 38
5, 332348, Note_on_c, 9, 35, 0
5, 332360, Note_on_c, 9, 51, 0
5, 332432, Note_on_c, 9, 63, 0
5, 332508, Note_on_c, 9, 51, 76
5, 332508, Note_on_c, 9, 35, 64
5, 332608, Note_on_c, 9, 51, 0
5, 332700, Note_on_c, 9, 51, 47
5, 332768, Note_on_c, 9, 51, 0
5, 332784, Note_on_c, 9, 35, 0
5, 332892, Note_on_c, 9, 64, 44
5, 332892, Note_on_c, 9, 51, 37
5, 332928, Note_on_c, 9, 51, 0
5, 332956, Note_on_c, 9, 64, 0
5, 333084, Note_on_c, 9, 64, 47
5, 333088, Note_on_c, 9, 51, 74
5, 333092, Note_on_c, 9, 35, 45
5, 333140, Note_on_c, 9, 35, 0
5, 333172, Note_on_c, 9, 51, 0
5, 333176, Note_on_c, 9, 64, 0
5, 333276, Note_on_c, 9, 35, 62
5, 333468, Note_on_c, 9, 51, 68
5, 333548, Note_on_c, 9, 35, 0
5, 333556, Note_on_c, 9, 51, 0
5, 333660, Note_on_c, 9, 51, 26
5, 333660, Note_on_c, 9, 63, 38
5, 333708, Note_on_c, 9, 51, 0
5, 333728, Note_on_c, 9, 63, 0
5, 333852, Note_on_c, 9, 63, 45
5, 333856, Note_on_c, 9, 51, 55
5, 333860, Note_on_c, 9, 35, 36
5, 333896, Note_on_c, 9, 35, 0
5, 333900, Note_on_c, 9, 51, 0
5, 333936, Note_on_c, 9, 63, 0
5, 334044, Note_on_c, 9, 51, 72
5, 334044, Note_on_c, 9, 35, 69
5, 334200, Note_on_c, 9, 51, 0
5, 334348, Note_on_c, 9, 35, 0
5, 334428, Note_on_c, 9, 51, 44
5, 334428, Note_on_c, 9, 64, 50
5, 334436, Note_on_c, 9, 51, 0
5, 334484, Note_on_c, 9, 64, 0
5, 334620, Note_on_c, 9, 64, 46
5, 334624, Note_on_c, 9, 51, 74
5, 334628, Note_on_c, 9, 35, 50
5, 334652, Note_on_c, 9, 35, 0
5, 334660, Note_on_c, 9, 64, 0
5, 334780, Note_on_c, 9, 51, 0
5, 334812, Note_on_c, 9, 35, 64
5, 335004, Note_on_c, 9, 51, 69
5, 335060, Note_on_c, 9, 35, 0
5, 335088, Note_on_c, 9, 51, 0
5, 335192, Note_on_c, 9, 63, 49
5, 335260, Note_on_c, 9, 63, 0
5, 335388, Note_on_c, 9, 63, 53
5, 335392, Note_on_c, 9, 51, 26
5, 335396, Note_on_c, 9, 35, 34
5, 335456, Note_on_c, 9, 51, 0
5, 335460, Note_on_c, 9, 35, 0
5, 335464, Note_on_c, 9, 63, 0
5, 335580, Note_on_c, 9, 51, 76
5, 335580, Note_on_c, 9, 35, 61
5, 335668, Note_on_c, 9, 35, 0
5, 335852, Note_on_c, 9, 51, 0
5, 335964, Note_on_c, 9, 64, 50
5, 335964, Note_on_c, 9, 51, 28
5, 336016, Note_on_c, 9, 51, 0
5, 336028, Note_on_c, 9, 64, 0
5, 336156, Note_on_c, 9, 64, 53
5, 336160, Note_on_c, 9, 51, 38
5, 336164, Note_on_c, 9, 35, 52
5, 336192, Note_on_c, 9, 51, 0
5, 336240, Note_on_c, 9, 35, 0
5, 336252, Note_on_c, 9, 64, 0
5, 336348, Note_on_c, 9, 51, 62
5, 336348, Note_on_c, 9, 35, 57
5, 336468, Note_on_c, 9, 35, 0
5, 336584, Note_on_c, 9, 51, 0
5, 336732, Note_on_c, 9, 63, 36
5, 336788, Note_on_c, 9, 63, 0
5, 336924, Note_on_c, 9, 63, 54
5, 336928, Note_on_c, 9, 51, 59
5, 336932, Note_on_c, 9, 35, 32
5, 336996, Note_on_c, 9, 35, 0
5, 336996, Note_on_c, 9, 51, 0
5, 337012, Note_on_c, 9, 63, 0
5, 337116, Note_on_c, 9, 35, 54
5, 337116, Note_on_c, 9, 51, 65
5, 337296, Note_on_c, 9, 51, 0
5, 337352, Note_on_c, 9, 35, 0
5, 337500, Note_on_c, 9, 64, 38
5, 337540, Note_on_c, 9, 64, 0
5, 337692, Note_on_c, 9, 64, 40
5, 337696, Note_on_c, 9, 51, 36
5, 337700, Note_on_c, 9, 35, 45
5, 337760, Note_on_c, 9, 51, 0
5, 337760, Note_on_c, 9, 64, 0
5, 337772, Note_on_c, 9, 35, 0
5, 337884, Note_on_c, 9, 35, 57
5, 337884, Note_on_c, 9, 51, 71
5, 338080, Note_on_c, 9, 51, 0
5, 338144, Note_on_c, 9, 35, 0
5, 338268, Note_on_c, 9, 63, 35
5, 338332, Note_on_c, 9, 63, 0
5, 338460, Note_on_c, 9, 63, 61
5, 338464, Note_on_c, 9, 51, 56
5, 338468, Note_on_c, 9, 35, 48
5, 338528, Note_on_c, 9, 51, 0
5, 338532, Note_on_c, 9, 35, 0
5, 338608, Note_on_c, 9, 63, 0
5, 338652, Note_on_c, 9, 51, 59
5, 338652, Note_on_c, 9, 35, 65
5, 338780, Note_on_c, 9, 51, 0
5, 338844, Note_on_c, 9, 53, 78
5, 338848, Note_on_c, 9, 35, 0
5, 338956, Note_on_c, 9, 53, 0
5, 339036, Note_on_c, 9, 64, 44
5, 339036, Note_on_c, 9, 51, 34
5, 339104, Note_on_c, 9, 64, 0
5, 339140, Note_on_c, 9, 51, 0
5, 339228, Note_on_c, 9, 64, 41
5, 339236, Note_on_c, 9, 53, 74
5, 339236, Note_on_c, 9, 35, 51
5, 339296, Note_on_c, 9, 64, 0
5, 339300, Note_on_c, 9, 35, 0
5, 339328, Note_on_c, 9, 53, 0
5, 339420, Note_on_c, 9, 51, 56
5, 339420, Note_on_c, 9, 35, 68
5, 339576, Note_on_c, 9, 35, 0
5, 339656, Note_on_c, 9, 51, 0
5, 339804, Note_on_c, 9, 63, 34
5, 339904, Note_on_c, 9, 63, 0
5, 339996, Note_on_c, 9, 63, 56
5, 340000, Note_on_c, 9, 51, 50
5, 340004, Note_on_c, 9, 35, 54
5, 340028, Note_on_c, 9, 35, 0
5, 340064, Note_on_c, 9, 51, 0
5, 340144, Note_on_c, 9, 63, 0
5, 340188, Note_on_c, 9, 35, 67
5, 340188, Note_on_c, 9, 51, 69
5, 340300, Note_on_c, 9, 35, 0
5, 340308, Note_on_c, 9, 51, 0
5, 340572, Note_on_c, 9, 51, 53
5, 340572, Note_on_c, 9, 64, 43
5, 340620, Note_on_c, 9, 51, 0
5, 340700, Note_on_c, 9, 64, 0
5, 340760, Note_on_c, 9, 64, 41
5, 340764, Note_on_c, 9, 51, 75
5, 340772, Note_on_c, 9, 35, 48
5, 340820, Note_on_c, 9, 35, 0
5, 340876, Note_on_c, 9, 64, 0
5, 340912, Note_on_c, 9, 51, 0
5, 340956, Note_on_c, 9, 35, 71
5, 341148, Note_on_c, 9, 51, 64
5, 341152, Note_on_c, 9, 35, 0
5, 341232, Note_on_c, 9, 51, 0
5, 341340, Note_on_c, 9, 63, 31
5, 341440, Note_on_c, 9, 63, 0
5, 341532, Note_on_c, 9, 63, 45
5, 341536, Note_on_c, 9, 51, 51
5, 341540, Note_on_c, 9, 35, 42
5, 341564, Note_on_c, 9, 35, 0
5, 341588, Note_on_c, 9, 51, 0
5, 341680, Note_on_c, 9, 63, 0
5, 341724, Note_on_c, 9, 51, 75
5, 341724, Note_on_c, 9, 35, 72
5, 341892, Note_on_c, 9, 51, 0
5, 341904, Note_on_c, 9, 35, 0
5, 342108, Note_on_c, 9, 64, 40
5, 342196, Note_on_c, 9, 64, 0
5, 342300, Note_on_c, 9, 64, 39
5, 342304, Note_on_c, 9, 51, 59
5, 342308, Note_on_c, 9, 35, 45
5, 342336, Note_on_c, 9, 35, 0
5, 342356, Note_on_c, 9, 51, 0
5, 342392, Note_on_c, 9, 64, 0
5, 342492, Note_on_c, 9, 51, 51
5, 342492, Note_on_c, 9, 35, 68
5, 342608, Note_on_c, 9, 51, 0
5, 342648, Note_on_c, 9, 35, 0
5, 342684, Note_on_c, 9, 51, 57
5, 342752, Note_on_c, 9, 51, 0
5, 342876, Note_on_c, 9, 63, 44
5, 342876, Note_on_c, 9, 51, 25
5, 342928, Note_on_c, 9, 63, 0
5, 342952, Note_on_c, 9, 51, 0
5, 343068, Note_on_c, 9, 63, 52
5, 343072, Note_on_c, 9, 51, 62
5, 343076, Note_on_c, 9, 35, 40
5, 343108, Note_on_c, 9, 35, 0
5, 343108, Note_on_c, 9, 51, 0
5, 343152, Note_on_c, 9, 63, 0
5, 343260, Note_on_c, 9, 51, 67
5, 343260, Note_on_c, 9, 35, 66
5, 343388, Note_on_c, 9, 51, 0
5, 343452, Note_on_c, 9, 35, 0
5, 343644, Note_on_c, 9, 64, 45
5, 343720, Note_on_c, 9, 64, 0
5, 343836, Note_on_c, 9, 64, 43
5, 343840, Note_on_c, 9, 51, 67
5, 343844, Note_on_c, 9, 35, 44
5, 343868, Note_on_c, 9, 35, 0
5, 343932, Note_on_c, 9, 64, 0
5, 343948, Note_on_c, 9, 51, 0
5, 344028, Note_on_c, 9, 35, 64
5, 344220, Note_on_c, 9, 51, 67
5, 344240, Note_on_c, 9, 35, 0
5, 344288, Note_on_c, 9, 51, 0
5, 344412, Note_on_c, 9, 63, 37
5, 344476, Note_on_c, 9, 63, 0
5, 344604, Note_on_c, 9, 63, 44
5, 344608, Note_on_c, 9, 51, 54
5, 344612, Note_on_c, 9, 35, 39
5, 344624, Note_on_c, 9, 51, 0
5, 344636, Note_on_c, 9, 35, 0
5, 344700, Note_on_c, 9, 63, 0
5, 344796, Note_on_c, 9, 51, 59
5, 344796, Note_on_c, 9, 35, 63
5, 344932, Note_on_c, 9, 51, 0
5, 344988, Note_on_c, 9, 53, 60
5, 345008, Note_on_c, 9, 35, 0
5, 345068, Note_on_c, 9, 53, 0
5, 345180, Note_on_c, 9, 64, 47
5, 345180, Note_on_c, 9, 51, 37
5, 345232, Note_on_c, 9, 64, 0
5, 345284, Note_on_c, 9, 51, 0
5, 345372, Note_on_c, 9, 64, 48
5, 345380, Note_on_c, 9, 35, 47
5, 345380, Note_on_c, 9, 51, 43
5, 345388, Note_on_c, 9, 35, 0
5, 345428, Note_on_c, 9, 51, 0
5, 345440, Note_on_c, 9, 64, 0
5, 345564, Note_on_c, 9, 35, 67
5, 345564, Note_on_c, 9, 51, 72
5, 345740, Note_on_c, 9, 51, 0
5, 345788, Note_on_c, 9, 35, 0
5, 345948, Note_on_c, 9, 51, 37
5, 345948, Note_on_c, 9, 63, 44
5, 345984, Note_on_c, 9, 51, 0
5, 346004, Note_on_c, 9, 63, 0
5, 346140, Note_on_c, 9, 63, 35
5, 346144, Note_on_c, 9, 51, 74
5, 346148, Note_on_c, 9, 35, 46
5, 346148, Note_on_c, 9, 35, 0
5, 346240, Note_on_c, 9, 63, 0
5, 346288, Note_on_c, 9, 51, 0
5, 346332, Note_on_c, 9, 35, 66
5, 346484, Note_on_c, 9, 35, 0
5, 346524, Note_on_c, 9, 51, 47
5, 346548, Note_on_c, 9, 51, 0
5, 346716, Note_on_c, 9, 51, 69
5, 346716, Note_on_c, 9, 64, 43
5, 346752, Note_on_c, 9, 64, 0
5, 346804, Note_on_c, 9, 51, 0
5, 346912, Note_on_c, 9, 35, 43
5, 346912, Note_on_c, 9, 51, 73
5, 346912, Note_on_c, 9, 64, 36
5, 346924, Note_on_c, 9, 35, 0
5, 346944, Note_on_c, 9, 64, 0
5, 347056, Note_on_c, 9, 51, 0
5, 347100, Note_on_c, 9, 35, 64
5, 347268, Note_on_c, 9, 35, 0
5, 347292, Note_on_c, 9, 51, 69
5, 347392, Note_on_c, 9, 51, 0
5, 347484, Note_on_c, 9, 63, 49
5, 347532, Note_on_c, 9, 63, 0
5, 347676, Note_on_c, 9, 63, 55
5, 347680, Note_on_c, 9, 51, 53
5, 347684, Note_on_c, 9, 35, 38
5, 347688, Note_on_c, 9, 35, 0
5, 347696, Note_on_c, 9, 51, 0
5, 347720, Note_on_c, 9, 63, 0
5, 347868, Note_on_c, 9, 35, 64
5, 347868, Note_on_c, 9, 51, 58
5, 348004, Note_on_c, 9, 35, 0
5, 348024, Note_on_c, 9, 51, 0
5, 348252, Note_on_c, 9, 64, 47
5, 348252, Note_on_c, 9, 51, 32
5, 348268, Note_on_c, 9, 64, 0
5, 348276, Note_on_c, 9, 51, 0
5, 348444, Note_on_c, 9, 63, 62
5, 348448, Note_on_c, 9, 51, 43
5, 348452, Note_on_c, 9, 35, 45
5, 348460, Note_on_c, 9, 35, 0
5, 348464, Note_on_c, 9, 51, 0
5, 348464, Note_on_c, 9, 63, 0
5, 348636, Note_on_c, 9, 53, 51
5, 348636, Note_on_c, 9, 51, 60
5, 348648, Note_on_c, 9, 35, 63
5, 348740, Note_on_c, 9, 53, 0
5, 348744, Note_on_c, 9, 35, 0
5, 348748, Note_on_c, 9, 51, 0
5, 349020, Note_on_c, 9, 37, 20
5, 349084, Note_on_c, 9, 37, 0
5, 349212, Note_on_c, 9, 37, 27
5, 349216, Note_on_c, 9, 51, 47
5, 349220, Note_on_c, 9, 53, 44
5, 349220, Note_on_c, 9, 35, 40
5, 349248, Note_on_c, 9, 35, 0
5, 349280, Note_on_c, 9, 37, 0
5, 349284, Note_on_c, 9, 53, 0
5, 349288, Note_on_c, 9, 51, 0
5, 349404, Note_on_c, 9, 51, 63
5, 349404, Note_on_c, 9, 53, 53
5, 349408, Note_on_c, 9, 35, 64
5, 349492, Note_on_c, 9, 53, 0
5, 349492, Note_on_c, 9, 51, 0
5, 349556, Note_on_c, 9, 35, 0
5, 349596, Note_on_c, 9, 53, 27
5, 349604, Note_on_c, 9, 51, 44
5, 349652, Note_on_c, 9, 51, 0
5, 349652, Note_on_c, 9, 53, 0
5, 349788, Note_on_c, 9, 51, 37
5, 349788, Note_on_c, 9, 37, 26
5, 349844, Note_on_c, 9, 51, 0
5, 349864, Note_on_c, 9, 37, 0
5, 349980, Note_on_c, 9, 37, 24
5, 349988, Note_on_c, 9, 51, 74
5, 349988, Note_on_c, 9, 35, 34
5, 350036, Note_on_c, 9, 35, 0
5, 350048, Note_on_c, 9, 37, 0
5, 350092, Note_on_c, 9, 51, 0
5, 350172, Note_on_c, 9, 35, 53
5, 350292, Note_on_c, 9, 35, 0
5, 350364, Note_on_c, 9, 51, 70
5, 350476, Note_on_c, 9, 51, 0
5, 350556, Note_on_c, 9, 37, 21
5, 350620, Note_on_c, 9, 37, 0
5, 350748, Note_on_c, 9, 37, 26
5, 350752, Note_on_c, 9, 51, 64
5, 350756, Note_on_c, 9, 35, 44
5, 350780, Note_on_c, 9, 35, 0
5, 350804, Note_on_c, 9, 51, 0
5, 350804, Note_on_c, 9, 37, 0
5, 350940, Note_on_c, 9, 51, 50
5, 350940, Note_on_c, 9, 35, 58
5, 351008, Note_on_c, 9, 51, 0
5, 351016, Note_on_c, 9, 35, 0
5, 351132, Note_on_c, 9, 51, 46
5, 351188, Note_on_c, 9, 51, 0
5, 351324, Note_on_c, 9, 37, 22
5, 351324, Note_on_c, 9, 51, 47
5, 351400, Note_on_c, 9, 37, 0
5, 351424, Note_on_c, 9, 51, 0
5, 351516, Note_on_c, 9, 37, 26
5, 351520, Note_on_c, 9, 53, 56
5, 351524, Note_on_c, 9, 35, 43
5, 351532, Note_on_c, 9, 35, 0
5, 351584, Note_on_c, 9, 37, 0
5, 351596, Note_on_c, 9, 53, 0
5, 351708, Note_on_c, 9, 35, 57
5, 351708, Note_on_c, 9, 51, 51
5, 351780, Note_on_c, 9, 35, 0
5, 351944, Note_on_c, 9, 51, 0
5, 352092, Note_on_c, 9, 37, 20
5, 352092, Note_on_c, 9, 51, 55
5, 352140, Note_on_c, 9, 51, 0
5, 352156, Note_on_c, 9, 37, 0
5, 352284, Note_on_c, 9, 37, 29
5, 352288, Note_on_c, 9, 51, 67
5, 352292, Note_on_c, 9, 35, 43
5, 352300, Note_on_c, 9, 35, 0
5, 352364, Note_on_c, 9, 37, 0
5, 352408, Note_on_c, 9, 51, 0
5, 352476, Note_on_c, 9, 35, 55
5, 352588, Note_on_c, 9, 35, 0
5, 352668, Note_on_c, 9, 51, 44
5, 352676, Note_on_c, 9, 51, 0
5, 352860, Note_on_c, 9, 51, 74
5, 352860, Note_on_c, 9, 37, 19
5, 352924, Note_on_c, 9, 37, 0
5, 353052, Note_on_c, 9, 37, 31
5, 353056, Note_on_c, 9, 35, 36
5, 353060, Note_on_c, 9, 51, 0
5, 353120, Note_on_c, 9, 37, 0
5, 353132, Note_on_c, 9, 35, 0
5, 353244, Note_on_c, 9, 51, 36
5, 353244, Note_on_c, 9, 35, 60
5, 353296, Note_on_c, 9, 51, 0
5, 353424, Note_on_c, 9, 35, 0
5, 353436, Note_on_c, 9, 51, 61
5, 353504, Note_on_c, 9, 51, 0
5, 353628, Note_on_c, 9, 37, 28
5, 353692, Note_on_c, 9, 37, 0
5, 353820, Note_on_c, 9, 37, 31
5, 353824, Note_on_c, 9, 51, 57
5, 353828, Note_on_c, 9, 35, 47
5, 353852, Note_on_c, 9, 51, 0
5, 353860, Note_on_c, 9, 35, 0
5, 353888, Note_on_c, 9, 37, 0
5, 354012, Note_on_c, 9, 35, 59
5, 354012, Note_on_c, 9, 51, 83
5, 354156, Note_on_c, 9, 35, 0
5, 354224, Note_on_c, 9, 51, 0
5, 354396, Note_on_c, 9, 51, 44
5, 354396, Note_on_c, 9, 37, 28
5, 354420, Note_on_c, 9, 51, 0
5, 354496, Note_on_c, 9, 37, 0
5, 354588, Note_on_c, 9, 37, 33
5, 354596, Note_on_c, 9, 35, 54
5, 354596, Note_on_c, 9, 51, 76
5, 354620, Note_on_c, 9, 35, 0
5, 354672, Note_on_c, 9, 37, 0
5, 354752, Note_on_c, 9, 51, 0
5, 354780, Note_on_c, 9, 35, 60
5, 354916, Note_on_c, 9, 35, 0
5, 354972, Note_on_c, 9, 51, 42
5, 355004, Note_on_c, 9, 51, 0
5, 355164, Note_on_c, 9, 51, 79
5, 355164, Note_on_c, 9, 37, 31
5, 355240, Note_on_c, 9, 37, 0
5, 355316, Note_on_c, 9, 51, 0
5, 355356, Note_on_c, 9, 37, 30
5, 355360, Note_on_c, 9, 35, 45
5, 355400, Note_on_c, 9, 35, 0
5, 355424, Note_on_c, 9, 37, 0
5, 355548, Note_on_c, 9, 35, 53
5, 355684, Note_on_c, 9, 35, 0
5, 355740, Note_on_c, 9, 51, 72
5, 355828, Note_on_c, 9, 51, 0
5, 355932, Note_on_c, 9, 37, 35
5, 355932, Note_on_c, 9, 51, 34
5, 355956, Note_on_c, 9, 51, 0
5, 356004, Note_on_c, 9, 37, 0
5, 356124, Note_on_c, 9, 37, 32
5, 356128, Note_on_c, 9, 51, 57
5, 356132, Note_on_c, 9, 35, 53
5, 356160, Note_on_c, 9, 51, 0
5, 356192, Note_on_c, 9, 35, 0
5, 356192, Note_on_c, 9, 37, 0
5, 356316, Note_on_c, 9, 51, 78
5, 356316, Note_on_c, 9, 35, 53
5, 356452, Note_on_c, 9, 51, 0
5, 356532, Note_on_c, 9, 35, 0
5, 356700, Note_on_c, 9, 51, 52
5, 356700, Note_on_c, 9, 37, 33
5, 356708, Note_on_c, 9, 51, 0
5, 356776, Note_on_c, 9, 37, 0
5, 356892, Note_on_c, 9, 37, 37
5, 356896, Note_on_c, 9, 51, 77
5, 356900, Note_on_c, 9, 35, 39
5, 356972, Note_on_c, 9, 37, 0
5, 356980, Note_on_c, 9, 35, 0
5, 357040, Note_on_c, 9, 51, 0
5, 357084, Note_on_c, 9, 35, 46
5, 357276, Note_on_c, 9, 51, 60
5, 357308, Note_on_c, 9, 51, 0
5, 357320, Note_on_c, 9, 35, 0
5, 357468, Note_on_c, 9, 37, 22
5, 357468, Note_on_c, 9, 51, 50
5, 357504, Note_on_c, 9, 37, 0
5, 357544, Note_on_c, 9, 51, 0
5, 357660, Note_on_c, 9, 37, 35
5, 357664, Note_on_c, 9, 51, 46
5, 357668, Note_on_c, 9, 35, 51
5, 357692, Note_on_c, 9, 51, 0
5, 357704, Note_on_c, 9, 37, 0
5, 357728, Note_on_c, 9, 35, 0
5, 357852, Note_on_c, 9, 51, 74
5, 357852, Note_on_c, 9, 35, 61
5, 358068, Note_on_c, 9, 35, 0
5, 358072, Note_on_c, 9, 51, 0
5, 358236, Note_on_c, 9, 37, 29
5, 358284, Note_on_c, 9, 37, 0
5, 358428, Note_on_c, 9, 37, 29
5, 358432, Note_on_c, 9, 51, 57
5, 358436, Note_on_c, 9, 35, 45
5, 358472, Note_on_c, 9, 35, 0
5, 358484, Note_on_c, 9, 51, 0
5, 358484, Note_on_c, 9, 37, 0
5, 358620, Note_on_c, 9, 35, 60
5, 358620, Note_on_c, 9, 51, 73
5, 358776, Note_on_c, 9, 51, 0
5, 358832, Note_on_c, 9, 35, 0
5, 359004, Note_on_c, 9, 37, 28
5, 359048, Note_on_c, 9, 37, 0
5, 359196, Note_on_c, 9, 37, 25
5, 359200, Note_on_c, 9, 51, 71
5, 359204, Note_on_c, 9, 35, 40
5, 359228, Note_on_c, 9, 35, 0
5, 359264, Note_on_c, 9, 37, 0
5, 359292, Note_on_c, 9, 51, 0
5, 359388, Note_on_c, 9, 51, 59
5, 359388, Note_on_c, 9, 35, 60
5, 359584, Note_on_c, 9, 51, 0
5, 359616, Note_on_c, 9, 35, 0
5, 359772, Note_on_c, 9, 37, 20
5, 359772, Note_on_c, 9, 51, 42
5, 359820, Note_on_c, 9, 51, 0
5, 359840, Note_on_c, 9, 37, 0
5, 359964, Note_on_c, 9, 37, 26
5, 359968, Note_on_c, 9, 51, 63
5, 359972, Note_on_c, 9, 35, 38
5, 360000, Note_on_c, 9, 35, 0
5, 360044, Note_on_c, 9, 51, 0
5, 360048, Note_on_c, 9, 37, 0
5, 360156, Note_on_c, 9, 35, 59
5, 360156, Note_on_c, 9, 51, 64
5, 360268, Note_on_c, 9, 51, 0
5, 360348, Note_on_c, 9, 51, 68
5, 360380, Note_on_c, 9, 35, 0
5, 360496, Note_on_c, 9, 51, 0
5, 360540, Note_on_c, 9, 51, 36
5, 360540, Note_on_c, 9, 37, 35
5, 360604, Note_on_c, 9, 37, 0
5, 360612, Note_on_c, 9, 51, 0
5, 360732, Note_on_c, 9, 37, 39
5, 360740, Note_on_c, 9, 35, 33
5, 360740, Note_on_c, 9, 51, 62
5, 360788, Note_on_c, 9, 35, 0
5, 360812, Note_on_c, 9, 37, 0
5, 360820, Note_on_c, 9, 51, 0
5, 360924, Note_on_c, 9, 51, 77
5, 360924, Note_on_c, 9, 35, 63
5, 361108, Note_on_c, 9, 51, 0
5, 361184, Note_on_c, 9, 35, 0
5, 361308, Note_on_c, 9, 37, 27
5, 361308, Note_on_c, 9, 51, 28
5, 361360, Note_on_c, 9, 51, 0
5, 361396, Note_on_c, 9, 37, 0
5, 361500, Note_on_c, 9, 37, 42
5, 361504, Note_on_c, 9, 51, 75
5, 361508, Note_on_c, 9, 35, 48
5, 361532, Note_on_c, 9, 35, 0
5, 361648, Note_on_c, 9, 37, 0
5, 361692, Note_on_c, 9, 35, 50
5, 361860, Note_on_c, 9, 35, 0
5, 361860, Note_on_c, 9, 51, 0
5, 361884, Note_on_c, 9, 53, 71
5, 361964, Note_on_c, 9, 53, 0
5, 362076, Note_on_c, 9, 37, 19
5, 362076, Note_on_c, 9, 64, 29
5, 362080, Note_on_c, 9, 51, 33
5, 362148, Note_on_c, 9, 51, 0
5, 362176, Note_on_c, 9, 64, 0
5, 362204, Note_on_c, 9, 37, 0
5, 362268, Note_on_c, 9, 37, 18
5, 362272, Note_on_c, 9, 64, 54
5, 362276, Note_on_c, 9, 35, 50
5, 362276, Note_on_c, 9, 53, 65
5, 362312, Note_on_c, 9, 35, 0
5, 362356, Note_on_c, 9, 64, 0
5, 362364, Note_on_c, 9, 53, 0
5, 362416, Note_on_c, 9, 37, 0
5, 362460, Note_on_c, 9, 35, 54
5, 362460, Note_on_c, 9, 51, 63
5, 362684, Note_on_c, 9, 35, 0
5, 362696, Note_on_c, 9, 51, 0
5, 362844, Note_on_c, 9, 37, 20
5, 362844, Note_on_c, 9, 63, 49
5, 362848, Note_on_c, 9, 51, 33
5, 362932, Note_on_c, 9, 51, 0
5, 362932, Note_on_c, 9, 63, 0
5, 362960, Note_on_c, 9, 37, 0
5, 363036, Note_on_c, 9, 37, 16
5, 363040, Note_on_c, 9, 63, 52
5, 363044, Note_on_c, 9, 51, 75
5, 363044, Note_on_c, 9, 35, 37
5, 363092, Note_on_c, 9, 35, 0
5, 363116, Note_on_c, 9, 63, 0
5, 363172, Note_on_c, 9, 37, 0
5, 363200, Note_on_c, 9, 51, 0
5, 363228, Note_on_c, 9, 35, 54
5, 363420, Note_on_c, 9, 51, 68
5, 363428, Note_on_c, 9, 35, 0
5, 363508, Note_on_c, 9, 51, 0
5, 363612, Note_on_c, 9, 64, 35
5, 363612, Note_on_c, 9, 37, 20
5, 363616, Note_on_c, 9, 51, 33
5, 363676, Note_on_c, 9, 64, 0
5, 363688, Note_on_c, 9, 51, 0
5, 363700, Note_on_c, 9, 37, 0
5, 363804, Note_on_c, 9, 64, 53
5, 363808, Note_on_c, 9, 37, 31
5, 363812, Note_on_c, 9, 35, 36
5, 363812, Note_on_c, 9, 51, 37
5, 363844, Note_on_c, 9, 35, 0
5, 363848, Note_on_c, 9, 64, 0
5, 363872, Note_on_c, 9, 51, 0
5, 363928, Note_on_c, 9, 37, 0
5, 363996, Note_on_c, 9, 35, 55
5, 363996, Note_on_c, 9, 51, 74
5, 364176, Note_on_c, 9, 51, 0
5, 364176, Note_on_c, 9, 35, 0
5, 364380, Note_on_c, 9, 63, 48
5, 364436, Note_on_c, 9, 63, 0
5, 364572, Note_on_c, 9, 63, 66
5, 364576, Note_on_c, 9, 51, 52
5, 364580, Note_on_c, 9, 35, 40
5, 364592, Note_on_c, 9, 35, 0
5, 364604, Note_on_c, 9, 51, 0
5, 364656, Note_on_c, 9, 63, 0
5, 364764, Note_on_c, 9, 51, 75
5, 364764, Note_on_c, 9, 35, 57
5, 364912, Note_on_c, 9, 51, 0
5, 364920, Note_on_c, 9, 35, 0
5, 365148, Note_on_c, 9, 64, 37
5, 365204, Note_on_c, 9, 64, 0
5, 365340, Note_on_c, 9, 64, 58
5, 365344, Note_on_c, 9, 51, 73
5, 365348, Note_on_c, 9, 35, 41
5, 365356, Note_on_c, 9, 35, 0
5, 365456, Note_on_c, 9, 64, 0
5, 365532, Note_on_c, 9, 35, 57
5, 365548, Note_on_c, 9, 51, 0
5, 365724, Note_on_c, 9, 51, 59
5, 365732, Note_on_c, 9, 35, 0
5, 365792, Note_on_c, 9, 51, 0
5, 365916, Note_on_c, 9, 63, 38
5, 365988, Note_on_c, 9, 63, 0
5, 366108, Note_on_c, 9, 63, 74
5, 366112, Note_on_c, 9, 51, 58
5, 366116, Note_on_c, 9, 35, 36
5, 366140, Note_on_c, 9, 35, 0
5, 366152, Note_on_c, 9, 51, 0
5, 366256, Note_on_c, 9, 63, 0
5, 366300, Note_on_c, 9, 35, 54
5, 366300, Note_on_c, 9, 51, 55
5, 366400, Note_on_c, 9, 51, 0
5, 366480, Note_on_c, 9, 35, 0
5, 366492, Note_on_c, 9, 53, 71
5, 366560, Note_on_c, 9, 53, 0
5, 366684, Note_on_c, 9, 64, 35
5, 366684, Note_on_c, 9, 51, 23
5, 366760, Note_on_c, 9, 64, 0
5, 366772, Note_on_c, 9, 51, 0
5, 366876, Note_on_c, 9, 64, 66
5, 366880, Note_on_c, 9, 51, 53
5, 366884, Note_on_c, 9, 35, 34
5, 366900, Note_on_c, 9, 35, 0
5, 366960, Note_on_c, 9, 51, 0
5, 367036, Note_on_c, 9, 64, 0
5, 367068, Note_on_c, 9, 35, 57
5, 367068, Note_on_c, 9, 51, 75
5, 367220, Note_on_c, 9, 51, 0
5, 367292, Note_on_c, 9, 35, 0
5, 367452, Note_on_c, 9, 63, 36
5, 367516, Note_on_c, 9, 63, 0
5, 367644, Note_on_c, 9, 63, 67
5, 367648, Note_on_c, 9, 51, 74
5, 367652, Note_on_c, 9, 35, 40
5, 367680, Note_on_c, 9, 35, 0
5, 367792, Note_on_c, 9, 51, 0
5, 367836, Note_on_c, 9, 35, 54
5, 367900, Note_on_c, 9, 63, 0
5, 368048, Note_on_c, 9, 35, 0
5, 368220, Note_on_c, 9, 51, 81
5, 368220, Note_on_c, 9, 64, 24
5, 368276, Note_on_c, 9, 64, 0
5, 368412, Note_on_c, 9, 64, 53
5, 368416, Note_on_c, 9, 35, 49
5, 368420, Note_on_c, 9, 51, 0
5, 368440, Note_on_c, 9, 35, 0
5, 368548, Note_on_c, 9, 64, 0
5, 368604, Note_on_c, 9, 35, 51
5, 368796, Note_on_c, 9, 51, 79
5, 368864, Note_on_c, 9, 35, 0
5, 368912, Note_on_c, 9, 51, 0
5, 369180, Note_on_c, 9, 63, 72
5, 369184, Note_on_c, 9, 51, 57
5, 369188, Note_on_c, 9, 35, 35
5, 369200, Note_on_c, 9, 35, 0
5, 369212, Note_on_c, 9, 51, 0
5, 369372, Note_on_c, 9, 35, 55
5, 369372, Note_on_c, 9, 51, 77
5, 369516, Note_on_c, 9, 51, 0
5, 369584, Note_on_c, 9, 63, 0
5, 369596, Note_on_c, 9, 35, 0
5, 369756, Note_on_c, 9, 64, 36
5, 369812, Note_on_c, 9, 64, 0
5, 369948, Note_on_c, 9, 64, 66
5, 369952, Note_on_c, 9, 51, 77
5, 369956, Note_on_c, 9, 35, 37
5, 369984, Note_on_c, 9, 35, 0
5, 370060, Note_on_c, 9, 64, 0
5, 370108, Note_on_c, 9, 51, 0
5, 370140, Note_on_c, 9, 35, 56
5, 370332, Note_on_c, 9, 51, 70
5, 370348, Note_on_c, 9, 35, 0
5, 370412, Note_on_c, 9, 51, 0
5, 370524, Note_on_c, 9, 63, 37
5, 370572, Note_on_c, 9, 63, 0
5, 370716, Note_on_c, 9, 63, 68
5, 370720, Note_on_c, 9, 35, 36
5, 370760, Note_on_c, 9, 35, 0
5, 370908, Note_on_c, 9, 51, 74
5, 370908, Note_on_c, 9, 35, 60
5, 370980, Note_on_c, 9, 63, 0
5, 371088, Note_on_c, 9, 51, 0
5, 371144, Note_on_c, 9, 35, 0
5, 371292, Note_on_c, 9, 64, 33
5, 371328, Note_on_c, 9, 64, 0
5, 371484, Note_on_c, 9, 64, 60
5, 371488, Note_on_c, 9, 51, 69
5, 371492, Note_on_c, 9, 35, 40
5, 371516, Note_on_c, 9, 35, 0
5, 371564, Note_on_c, 9, 64, 0
5, 371572, Note_on_c, 9, 51, 0
5, 371676, Note_on_c, 9, 35, 58
5, 371868, Note_on_c, 9, 51, 68
5, 371936, Note_on_c, 9, 35, 0
5, 372060, Note_on_c, 9, 63, 37
5, 372096, Note_on_c, 9, 63, 0
5, 372208, Note_on_c, 9, 51, 0
5, 372252, Note_on_c, 9, 63, 63
5, 372256, Note_on_c, 9, 53, 57
5, 372260, Note_on_c, 9, 35, 36
5, 372260, Note_on_c, 9, 35, 0
5, 372320, Note_on_c, 9, 53, 0
5, 372352, Note_on_c, 9, 63, 0
5, 372444, Note_on_c, 9, 35, 46
5, 372444, Note_on_c, 9, 51, 49
5, 372556, Note_on_c, 9, 51, 0
5, 372600, Note_on_c, 9, 35, 0
5, 372636, Note_on_c, 9, 53, 62
5, 372716, Note_on_c, 9, 53, 0
5, 372828, Note_on_c, 9, 64, 40
5, 372828, Note_on_c, 9, 51, 37
5, 372876, Note_on_c, 9, 64, 0
5, 372916, Note_on_c, 9, 51, 0
5, 373020, Note_on_c, 9, 64, 60
5, 373024, Note_on_c, 9, 51, 38
5, 373088, Note_on_c, 9, 51, 0
5, 373104, Note_on_c, 9, 64, 0
5, 373212, Note_on_c, 9, 51, 74
5, 373212, Note_on_c, 9, 35, 60
5, 373380, Note_on_c, 9, 51, 0
5, 373408, Note_on_c, 9, 35, 0
5, 373596, Note_on_c, 9, 63, 44
5, 373596, Note_on_c, 9, 51, 30
5, 373652, Note_on_c, 9, 63, 0
5, 373660, Note_on_c, 9, 51, 0
5, 373788, Note_on_c, 9, 63, 49
5, 373792, Note_on_c, 9, 51, 71
5, 373796, Note_on_c, 9, 35, 34
5, 373832, Note_on_c, 9, 35, 0
5, 373888, Note_on_c, 9, 63, 0
5, 373908, Note_on_c, 9, 51, 0
5, 373980, Note_on_c, 9, 35, 62
5, 374136, Note_on_c, 9, 35, 0
5, 374172, Note_on_c, 9, 51, 38
5, 374216, Note_on_c, 9, 51, 0
5, 374364, Note_on_c, 9, 64, 44
5, 374364, Note_on_c, 9, 51, 67
5, 374412, Note_on_c, 9, 64, 0
5, 374532, Note_on_c, 9, 51, 0
5, 374556, Note_on_c, 9, 64, 52
5, 374560, Note_on_c, 9, 35, 32
5, 374624, Note_on_c, 9, 64, 0
5, 374652, Note_on_c, 9, 35, 0
5, 374748, Note_on_c, 9, 51, 72
5, 374748, Note_on_c, 9, 35, 55
5, 374860, Note_on_c, 9, 51, 0
5, 374916, Note_on_c, 9, 35, 0
5, 374940, Note_on_c, 9, 51, 64
5, 375056, Note_on_c, 9, 51, 0
5, 375132, Note_on_c, 9, 63, 44
5, 375168, Note_on_c, 9, 63, 0
5, 375324, Note_on_c, 9, 63, 55
5, 375328, Note_on_c, 9, 51, 51
5, 375332, Note_on_c, 9, 35, 47
5, 375356, Note_on_c, 9, 35, 0
5, 375392, Note_on_c, 9, 51, 0
5, 375404, Note_on_c, 9, 63, 0
5, 375516, Note_on_c, 9, 51, 73
5, 375516, Note_on_c, 9, 35, 47
5, 375604, Note_on_c, 9, 35, 0
5, 375752, Note_on_c, 9, 51, 0
5, 375900, Note_on_c, 9, 64, 41
5, 375900, Note_on_c, 9, 51, 33
5, 375940, Note_on_c, 9, 51, 0
5, 375944, Note_on_c, 9, 64, 0
5, 376092, Note_on_c, 9, 64, 62
5, 376096, Note_on_c, 9, 51, 50
5, 376100, Note_on_c, 9, 35, 48
5, 376124, Note_on_c, 9, 35, 0
5, 376128, Note_on_c, 9, 51, 0
5, 376160, Note_on_c, 9, 64, 0
5, 376284, Note_on_c, 9, 51, 59
5, 376284, Note_on_c, 9, 53, 51
5, 376288, Note_on_c, 9, 35, 57
5, 376388, Note_on_c, 9, 53, 0
5, 376392, Note_on_c, 9, 51, 0
5, 376416, Note_on_c, 9, 35, 0
5, 376668, Note_on_c, 9, 37, 21
5, 376756, Note_on_c, 9, 37, 0
5, 376860, Note_on_c, 9, 37, 31
5, 376864, Note_on_c, 9, 51, 67
5, 376868, Note_on_c, 9, 35, 35
5, 376868, Note_on_c, 9, 53, 54
5, 376916, Note_on_c, 9, 35, 0
5, 376964, Note_on_c, 9, 51, 0
5, 376968, Note_on_c, 9, 37, 0
5, 376972, Note_on_c, 9, 53, 0
5, 377052, Note_on_c, 9, 35, 51
5, 377140, Note_on_c, 9, 35, 0
5, 377244, Note_on_c, 9, 51, 42
5, 377312, Note_on_c, 9, 51, 0
5, 377436, Note_on_c, 9, 37, 28
5, 377500, Note_on_c, 9, 37, 0
5, 377628, Note_on_c, 9, 37, 28
5, 377632, Note_on_c, 9, 51, 55
5, 377696, Note_on_c, 9, 37, 0
5, 377712, Note_on_c, 9, 51, 0
5, 377820, Note_on_c, 9, 51, 64
5, 377820, Note_on_c, 9, 53, 50
5, 377832, Note_on_c, 9, 35, 60
5, 377920, Note_on_c, 9, 35, 0
5, 377932, Note_on_c, 9, 53, 0
5, 377968, Note_on_c, 9, 51, 0
5, 378204, Note_on_c, 9, 51, 29
5, 378204, Note_on_c, 9, 37, 20
5, 378252, Note_on_c, 9, 51, 0
5, 378268, Note_on_c, 9, 37, 0
5, 378396, Note_on_c, 9, 37, 37
5, 378400, Note_on_c, 9, 51, 56
5, 378404, Note_on_c, 9, 35, 32
5, 378452, Note_on_c, 9, 35, 0
5, 378452, Note_on_c, 9, 51, 0
5, 378460, Note_on_c, 9, 37, 0
5, 378588, Note_on_c, 9, 35, 56
5, 378588, Note_on_c, 9, 51, 74
5, 378700, Note_on_c, 9, 35, 0
5, 378704, Note_on_c, 9, 51, 0
5, 378780, Note_on_c, 9, 51, 47
5, 378836, Note_on_c, 9, 51, 0
5, 378972, Note_on_c, 9, 37, 20
5, 378972, Note_on_c, 9, 51, 37
5, 379008, Note_on_c, 9, 51, 0
5, 379036, Note_on_c, 9, 37, 0
5, 379164, Note_on_c, 9, 37, 35
5, 379168, Note_on_c, 9, 51, 72
5, 379172, Note_on_c, 9, 53, 34
5, 379248, Note_on_c, 9, 37, 0
5, 379260, Note_on_c, 9, 53, 0
5, 379312, Note_on_c, 9, 51, 0
5, 379356, Note_on_c, 9, 35, 60
5, 379456, Note_on_c, 9, 35, 0
5, 379548, Note_on_c, 9, 51, 53
5, 379592, Note_on_c, 9, 51, 0
5, 379740, Note_on_c, 9, 37, 30
5, 379816, Note_on_c, 9, 37, 0
5, 379932, Note_on_c, 9, 37, 35
5, 379940, Note_on_c, 9, 51, 69
5, 379940, Note_on_c, 9, 53, 62
5, 379940, Note_on_c, 9, 35, 49
5, 379988, Note_on_c, 9, 51, 0
5, 380000, Note_on_c, 9, 53, 0
5, 380012, Note_on_c, 9, 37, 0
5, 380048, Note_on_c, 9, 35, 0
5, 380124, Note_on_c, 9, 53, 70
5, 380124, Note_on_c, 9, 51, 64
5, 380128, Note_on_c, 9, 35, 53
5, 380196, Note_on_c, 9, 53, 0
5, 380212, Note_on_c, 9, 51, 0
5, 380268, Note_on_c, 9, 35, 0
5, 380316, Note_on_c, 9, 53, 57
5, 380320, Note_on_c, 9, 51, 60
5, 380336, Note_on_c, 9, 53, 0
5, 380372, Note_on_c, 9, 51, 0
5, 380508, Note_on_c, 9, 37, 32
5, 380608, Note_on_c, 9, 37, 0
5, 380700, Note_on_c, 9, 37, 29
5, 380704, Note_on_c, 9, 51, 73
5, 380708, Note_on_c, 9, 35, 50
5, 380756, Note_on_c, 9, 35, 0
5, 380796, Note_on_c, 9, 37, 0
5, 380816, Note_on_c, 9, 51, 0
5, 380892, Note_on_c, 9, 35, 50
5, 381072, Note_on_c, 9, 35, 0
5, 381084, Note_on_c, 9, 51, 62
5, 381152, Note_on_c, 9, 51, 0
5, 381276, Note_on_c, 9, 37, 30
5, 381376, Note_on_c, 9, 37, 0
5, 381468, Note_on_c, 9, 37, 32
5, 381476, Note_on_c, 9, 35, 43
5, 381476, Note_on_c, 9, 51, 77
5, 381504, Note_on_c, 9, 35, 0
5, 381564, Note_on_c, 9, 51, 0
5, 381572, Note_on_c, 9, 37, 0
5, 381660, Note_on_c, 9, 35, 59
5, 381816, Note_on_c, 9, 35, 0
5, 381852, Note_on_c, 9, 51, 74
5, 381856, Note_on_c, 9, 53, 64
5, 381920, Note_on_c, 9, 51, 0
5, 381932, Note_on_c, 9, 53, 0
5, 382044, Note_on_c, 9, 37, 36
5, 382044, Note_on_c, 9, 51, 57
5, 382120, Note_on_c, 9, 51, 0
5, 382144, Note_on_c, 9, 37, 0
5, 382236, Note_on_c, 9, 37, 30
5, 382240, Note_on_c, 9, 51, 68
5, 382244, Note_on_c, 9, 35, 40
5, 382280, Note_on_c, 9, 35, 0
5, 382304, Note_on_c, 9, 51, 0
5, 382320, Note_on_c, 9, 37, 0
5, 382428, Note_on_c, 9, 53, 60
5, 382428, Note_on_c, 9, 51, 76
5, 382432, Note_on_c, 9, 35, 56
5, 382496, Note_on_c, 9, 53, 0
5, 382572, Note_on_c, 9, 51, 0
5, 382580, Note_on_c, 9, 35, 0
5, 382812, Note_on_c, 9, 51, 49
5, 382812, Note_on_c, 9, 37, 38
5, 382860, Note_on_c, 9, 51, 0
5, 382900, Note_on_c, 9, 37, 0
5, 383004, Note_on_c, 9, 37, 37
5, 383008, Note_on_c, 9, 51, 51
5, 383012, Note_on_c, 9, 35, 42
5, 383036, Note_on_c, 9, 35, 0
5, 383072, Note_on_c, 9, 51, 0
5, 383100, Note_on_c, 9, 37, 0
5, 383196, Note_on_c, 9, 51, 77
5, 383196, Note_on_c, 9, 35, 53
5, 383284, Note_on_c, 9, 35, 0
5, 383396, Note_on_c, 9, 51, 0
5, 383580, Note_on_c, 9, 37, 38
5, 383680, Note_on_c, 9, 37, 0
5, 383772, Note_on_c, 9, 37, 22
5, 383776, Note_on_c, 9, 51, 75
5, 383780, Note_on_c, 9, 35, 33
5, 383816, Note_on_c, 9, 35, 0
5, 383868, Note_on_c, 9, 51, 0
5, 383876, Note_on_c, 9, 37, 0
5, 383964, Note_on_c, 9, 35, 54
5, 383964, Note_on_c, 9, 51, 67
5, 384064, Note_on_c, 9, 51, 0
5, 384112, Note_on_c, 9, 35, 0
5, 384156, Note_on_c, 9, 51, 55
5, 384228, Note_on_c, 9, 51, 0
5, 384348, Note_on_c, 9, 37, 42
5, 384348, Note_on_c, 9, 51, 46
5, 384412, Note_on_c, 9, 51, 0
5, 384420, Note_on_c, 9, 37, 0
5, 384544, Note_on_c, 9, 51, 60
5, 384544, Note_on_c, 9, 37, 36
5, 384544, Note_on_c, 9, 53, 68
5, 384548, Note_on_c, 9, 35, 35
5, 384596, Note_on_c, 9, 35, 0
5, 384612, Note_on_c, 9, 51, 0
5, 384616, Note_on_c, 9, 37, 0
5, 384620, Note_on_c, 9, 53, 0
5, 384732, Note_on_c, 9, 51, 33
5, 384732, Note_on_c, 9, 35, 63
5, 384820, Note_on_c, 9, 51, 0
5, 384864, Note_on_c, 9, 35, 0
5, 384924, Note_on_c, 9, 51, 60
5, 384980, Note_on_c, 9, 51, 0
5, 385116, Note_on_c, 9, 37, 38
5, 385120, Note_on_c, 9, 51, 71
5, 385120, Note_on_c, 9, 53, 55
5, 385192, Note_on_c, 9, 53, 0
5, 385196, Note_on_c, 9, 37, 0
5, 385216, Note_on_c, 9, 51, 0
5, 385308, Note_on_c, 9, 37, 37
5, 385316, Note_on_c, 9, 51, 53
5, 385316, Note_on_c, 9, 35, 40
5, 385348, Note_on_c, 9, 35, 0
5, 385364, Note_on_c, 9, 51, 0
5, 385392, Note_on_c, 9, 37, 0
5, 385500, Note_on_c, 9, 35, 61
5, 385612, Note_on_c, 9, 35, 0
5, 385692, Note_on_c, 9, 51, 62
5, 385788, Note_on_c, 9, 51, 0
5, 385884, Note_on_c, 9, 51, 42
5, 385884, Note_on_c, 9, 37, 31
5, 385932, Note_on_c, 9, 51, 0
5, 385960, Note_on_c, 9, 37, 0
5, 386076, Note_on_c, 9, 37, 39
5, 386080, Note_on_c, 9, 51, 51
5, 386144, Note_on_c, 9, 51, 0
5, 386176, Note_on_c, 9, 37, 0
5, 386268, Note_on_c, 9, 35, 62
5, 386460, Note_on_c, 9, 51, 72
5, 386476, Note_on_c, 9, 35, 0
5, 386540, Note_on_c, 9, 51, 0
5, 386652, Note_on_c, 9, 37, 30
5, 386720, Note_on_c, 9, 37, 0
5, 386844, Note_on_c, 9, 37, 29
5, 386848, Note_on_c, 9, 51, 50
5, 386852, Note_on_c, 9, 35, 43
5, 386864, Note_on_c, 9, 51, 0
5, 386880, Note_on_c, 9, 35, 0
5, 386916, Note_on_c, 9, 37, 0
5, 387036, Note_on_c, 9, 53, 61
5, 387036, Note_on_c, 9, 51, 77
5, 387040, Note_on_c, 9, 35, 55
5, 387088, Note_on_c, 9, 53, 0
5, 387136, Note_on_c, 9, 51, 0
5, 387264, Note_on_c, 9, 35, 0
5, 387420, Note_on_c, 9, 37, 38
5, 387420, Note_on_c, 9, 51, 39
5, 387456, Note_on_c, 9, 51, 0
5, 387484, Note_on_c, 9, 37, 0
5, 387612, Note_on_c, 9, 37, 38
5, 387616, Note_on_c, 9, 51, 71
5, 387620, Note_on_c, 9, 53, 50
5, 387620, Note_on_c, 9, 35, 57
5, 387680, Note_on_c, 9, 53, 0
5, 387684, Note_on_c, 9, 37, 0
5, 387700, Note_on_c, 9, 51, 0
5, 387728, Note_on_c, 9, 35, 0
5, 387804, Note_on_c, 9, 35, 51
5, 387920, Note_on_c, 9, 35, 0
5, 387996, Note_on_c, 9, 51, 48
5, 388020, Note_on_c, 9, 51, 0
5, 388188, Note_on_c, 9, 53, 46
5, 388188, Note_on_c, 9, 37, 41
5, 388192, Note_on_c, 9, 51, 63
5, 388236, Note_on_c, 9, 37, 0
5, 388300, Note_on_c, 9, 53, 0
5, 388316, Note_on_c, 9, 51, 0
5, 388380, Note_on_c, 9, 37, 37
5, 388384, Note_on_c, 9, 35, 36
5, 388436, Note_on_c, 9, 37, 0
5, 388460, Note_on_c, 9, 35, 0
5, 388572, Note_on_c, 9, 35, 58
5, 388764, Note_on_c, 9, 51, 52
5, 388780, Note_on_c, 9, 35, 0
5, 388796, Note_on_c, 9, 51, 0
5, 388956, Note_on_c, 9, 37, 37
5, 388956, Note_on_c, 9, 51, 48
5, 388960, Note_on_c, 9, 53, 23
5, 388996, Note_on_c, 9, 53, 0
5, 389000, Note_on_c, 9, 51, 0
5, 389056, Note_on_c, 9, 37, 0
5, 389148, Note_on_c, 9, 37, 35
5, 389156, Note_on_c, 9, 51, 47
5, 389156, Note_on_c, 9, 35, 51
5, 389184, Note_on_c, 9, 51, 0
5, 389204, Note_on_c, 9, 35, 0
5, 389244, Note_on_c, 9, 37, 0
5, 389340, Note_on_c, 9, 51, 54
5, 389340, Note_on_c, 9, 53, 40
5, 389344, Note_on_c, 9, 35, 57
5, 389388, Note_on_c, 9, 53, 0
5, 389408, Note_on_c, 9, 51, 0
5, 389456, Note_on_c, 9, 35, 0
5, 389724, Note_on_c, 9, 37, 43
5, 389812, Note_on_c, 9, 37, 0
5, 389916, Note_on_c, 9, 37, 45
5, 389996, Note_on_c, 9, 37, 0
5, 390108, Note_on_c, 9, 51, 65
5, 390108, Note_on_c, 9, 53, 56
5, 390112, Note_on_c, 9, 35, 63
5, 390196, Note_on_c, 9, 53, 0
5, 390208, Note_on_c, 9, 51, 0
5, 390304, Note_on_c, 9, 35, 0
5, 390492, Note_on_c, 9, 37, 29
5, 390544, Note_on_c, 9, 37, 0
5, 390684, Note_on_c, 9, 37, 33
5, 390688, Note_on_c, 9, 51, 62
5, 390692, Note_on_c, 9, 53, 49
5, 390752, Note_on_c, 9, 37, 0
5, 390820, Note_on_c, 9, 53, 0
5, 390868, Note_on_c, 9, 51, 0
5, 390876, Note_on_c, 9, 35, 57
5, 391032, Note_on_c, 9, 35, 0
5, 391068, Note_on_c, 9, 51, 44
5, 391136, Note_on_c, 9, 51, 0
5, 391260, Note_on_c, 9, 35, 64
5, 391260, Note_on_c, 9, 37, 14
5, 391312, Note_on_c, 9, 37, 0
5, 391348, Note_on_c, 9, 35, 0
5, 391452, Note_on_c, 9, 37, 34
5, 391456, Note_on_c, 9, 51, 46
5, 391508, Note_on_c, 9, 51, 0
5, 391540, Note_on_c, 9, 37, 0
5, 391878, Note_on_c, 9, 59, 91
5, 391881, Note_on_c, 9, 51, 94
5, 391894, Note_on_c, 9, 35, 83
5, 391953, Note_on_c, 9, 57, 26
5, 392002, Note_on_c, 9, 57, 0
5, 395045, Note_on_c, 9, 51, 0
5, 395081, Note_on_c, 9, 35, 0
5, 395094, Note_on_c, 9, 59, 0
5, 395762, Note_on_c, 9, 59, 88
5, 395767, Note_on_c, 9, 35, 95
5, 395804, Note_on_c, 9, 51, 97
5, 395811, Note_on_c, 9, 54, 51
5, 395812, Note_on_c, 9, 57, 51
5, 395853, Note_on_c, 9, 54, 0
5, 395966, Note_on_c, 9, 57, 0
5, 399108, Note_on_c, 9, 35, 0
5, 399190, Note_on_c, 9, 59, 0
5, 399248, Note_on_c, 9, 51, 0
5, 401043, Note_on_c, 9, 59, 80
5, 401045, Note_on_c, 9, 35, 81
5, 401050, Note_on_c, 9, 51, 91
5, 401112, Note_on_c, 9, 57, 33
5, 401169, Note_on_c, 9, 57, 0
5, 403229, Note_on_c, 9, 59, 0
5, 403234, Note_on_c, 9, 51, 0
5, 403244, Note_on_c, 9, 35, 0
5, 405147, Note_on_c, 9, 40, 60
5, 405195, Note_on_c, 9, 40, 0
5, 405413, Note_on_c, 9, 40, 66
5, 405516, Note_on_c, 9, 40, 0
5, 405961, Note_on_c, 9, 35, 75
5, 405971, Note_on_c, 9, 59, 58
5, 405982, Note_on_c, 9, 51, 62
5, 406343, Note_on_c, 9, 51, 0
5, 406344, Note_on_c, 9, 59, 0
5, 406511, Note_on_c, 9, 35, 0
5, 406511, End_track
0, 0, End_of_file
