0, 0, Header, 1, 3, 120
1, 0, Start_track
1, 0, Title_t, "Love Theme From Spartacus (the film, not the ballet)"
1, 0, Text_t, "As played by Bill Evans on 'Conversations With Myself' (and Herbie Hancock, Brad Mehldau, Fred Hersch). This is not from the ballet 'Spartacus' by Khachaturian. It was composed by Alex North for the film 'Spartacus' around 1960.\012"
1, 0, Time_signature, 3, 2, 24, 8
1, 0, Key_signature, 1, "major"
1, 0, Tempo, 600000
1, 0, Marker_t, "Love Theme From Spartacus (the film, not the ballet)"
1, 0, End_track
2, 0, Start_track
2, 0, Title_t, "Love Theme From Spartacus (the film, not the ballet)"
2, 0, Program_c, 1, 4
2, 0, Control_c, 1, 7, 80
2, 180, Note_on_c, 1, 78, 30
2, 219, Note_on_c, 1, 76, 32
2, 238, Note_on_c, 1, 74, 30
2, 251, Note_on_c, 1, 78, 0
2, 256, Note_on_c, 1, 71, 31
2, 278, Note_on_c, 1, 76, 0
2, 279, Note_on_c, 1, 69, 30
2, 286, Note_on_c, 1, 74, 0
2, 300, Note_on_c, 1, 71, 0
2, 308, Note_on_c, 1, 78, 21
2, 313, Note_on_c, 1, 69, 0
2, 327, Note_on_c, 1, 76, 38
2, 336, Control_c, 1, 64, 127
2, 343, Note_on_c, 1, 78, 0
2, 348, Note_on_c, 1, 74, 44
2, 363, Note_on_c, 1, 71, 38
2, 378, Note_on_c, 1, 76, 0
2, 383, Note_on_c, 1, 74, 0
2, 383, Note_on_c, 1, 69, 38
2, 399, Note_on_c, 1, 71, 0
2, 400, Note_on_c, 1, 78, 35
2, 409, Note_on_c, 1, 69, 0
2, 418, Note_on_c, 1, 76, 36
2, 429, Note_on_c, 1, 78, 0
2, 433, Note_on_c, 1, 74, 39
2, 450, Note_on_c, 1, 71, 46
2, 463, Note_on_c, 1, 76, 0
2, 468, Note_on_c, 1, 74, 0
2, 471, Note_on_c, 1, 69, 42
2, 480, Note_on_c, 1, 71, 0
2, 484, Note_on_c, 1, 78, 53
2, 494, Note_on_c, 1, 69, 0
2, 501, Note_on_c, 1, 76, 45
2, 515, Note_on_c, 1, 74, 60
2, 517, Note_on_c, 1, 78, 0
2, 534, Note_on_c, 1, 71, 53
2, 549, Note_on_c, 1, 76, 0
2, 550, Note_on_c, 1, 74, 0
2, 553, Note_on_c, 1, 69, 39
2, 562, Note_on_c, 1, 78, 59
2, 563, Note_on_c, 1, 71, 0
2, 574, Note_on_c, 1, 69, 0
2, 576, Note_on_c, 1, 76, 51
2, 587, Note_on_c, 1, 74, 58
2, 593, Note_on_c, 1, 78, 0
2, 605, Note_on_c, 1, 71, 52
2, 617, Note_on_c, 1, 76, 0
2, 626, Note_on_c, 1, 74, 0
2, 627, Note_on_c, 1, 69, 38
2, 639, Note_on_c, 1, 71, 0
2, 639, Note_on_c, 1, 78, 42
2, 652, Note_on_c, 1, 69, 0
2, 656, Note_on_c, 1, 76, 39
2, 666, Note_on_c, 1, 78, 0
2, 669, Note_on_c, 1, 74, 40
2, 683, Note_on_c, 1, 71, 47
2, 694, Note_on_c, 1, 76, 0
2, 701, Control_c, 1, 64, 0
2, 702, Note_on_c, 1, 69, 35
2, 704, Note_on_c, 1, 74, 0
2, 716, Note_on_c, 1, 78, 33
2, 718, Note_on_c, 1, 71, 0
2, 730, Note_on_c, 1, 69, 0
2, 736, Note_on_c, 1, 76, 36
2, 742, Note_on_c, 1, 78, 0
2, 752, Note_on_c, 1, 74, 34
2, 765, Note_on_c, 1, 71, 44
2, 781, Note_on_c, 1, 76, 0
2, 784, Note_on_c, 1, 69, 37
2, 786, Note_on_c, 1, 74, 0
2, 800, Note_on_c, 1, 71, 0
2, 800, Note_on_c, 1, 78, 27
2, 810, Note_on_c, 1, 69, 0
2, 816, Note_on_c, 1, 76, 43
2, 821, Note_on_c, 1, 78, 0
2, 832, Note_on_c, 1, 74, 39
2, 843, Note_on_c, 1, 71, 44
2, 854, Note_on_c, 1, 76, 0
2, 857, Note_on_c, 1, 69, 38
2, 861, Note_on_c, 1, 74, 0
2, 874, Note_on_c, 1, 78, 45
2, 876, Note_on_c, 1, 71, 0
2, 885, Note_on_c, 1, 69, 0
2, 890, Note_on_c, 1, 76, 38
2, 899, Note_on_c, 1, 78, 0
2, 904, Note_on_c, 1, 74, 47
2, 914, Note_on_c, 1, 71, 46
2, 927, Note_on_c, 1, 76, 0
2, 932, Note_on_c, 1, 69, 38
2, 936, Note_on_c, 1, 74, 0
2, 949, Note_on_c, 1, 78, 30
2, 952, Note_on_c, 1, 71, 0
2, 964, Note_on_c, 1, 69, 0
2, 966, Note_on_c, 1, 76, 38
2, 974, Note_on_c, 1, 78, 0
2, 985, Note_on_c, 1, 74, 33
2, 992, Note_on_c, 1, 71, 43
2, 1006, Note_on_c, 1, 76, 0
2, 1008, Note_on_c, 1, 69, 35
2, 1012, Note_on_c, 1, 74, 0
2, 1025, Note_on_c, 1, 78, 26
2, 1026, Note_on_c, 1, 71, 0
2, 1034, Note_on_c, 1, 69, 0
2, 1044, Note_on_c, 1, 76, 35
2, 1048, Note_on_c, 1, 78, 0
2, 1054, Note_on_c, 1, 74, 35
2, 1071, Note_on_c, 1, 71, 39
2, 1085, Note_on_c, 1, 76, 0
2, 1088, Note_on_c, 1, 69, 33
2, 1089, Note_on_c, 1, 74, 0
2, 1105, Note_on_c, 1, 78, 27
2, 1108, Note_on_c, 1, 71, 0
2, 1118, Note_on_c, 1, 69, 0
2, 1128, Note_on_c, 1, 76, 29
2, 1129, Note_on_c, 1, 78, 0
2, 1139, Note_on_c, 1, 74, 31
2, 1157, Note_on_c, 1, 71, 36
2, 1169, Note_on_c, 1, 76, 0
2, 1172, Note_on_c, 1, 69, 34
2, 1173, Note_on_c, 1, 74, 0
2, 1197, Note_on_c, 1, 78, 15
2, 1204, Note_on_c, 1, 71, 0
2, 1206, Note_on_c, 1, 69, 0
2, 1219, Note_on_c, 1, 78, 0
2, 1221, Note_on_c, 1, 74, 31
2, 1240, Note_on_c, 1, 71, 37
2, 1262, Note_on_c, 1, 69, 31
2, 1263, Control_c, 1, 64, 127
2, 1282, Note_on_c, 1, 74, 0
2, 1358, Note_on_c, 1, 71, 0
2, 1462, Note_on_c, 1, 76, 3
2, 1469, Note_on_c, 1, 69, 0
2, 1545, Control_c, 1, 64, 0
2, 1648, Note_on_c, 1, 74, 46
2, 1671, Note_on_c, 1, 71, 24
2, 1687, Note_on_c, 1, 76, 0
2, 1701, Note_on_c, 1, 69, 48
2, 1714, Note_on_c, 1, 71, 0
2, 1723, Note_on_c, 1, 66, 25
2, 1725, Note_on_c, 1, 74, 0
2, 1729, Note_on_c, 1, 69, 0
2, 1754, Control_c, 1, 64, 127
2, 1761, Note_on_c, 1, 66, 0
2, 1761, Note_on_c, 1, 76, 61
2, 1772, Note_on_c, 1, 74, 45
2, 1789, Note_on_c, 1, 71, 56
2, 1790, Note_on_c, 1, 76, 0
2, 1811, Note_on_c, 1, 69, 46
2, 1827, Note_on_c, 1, 71, 0
2, 1827, Note_on_c, 1, 74, 0
2, 1829, Note_on_c, 1, 66, 48
2, 1838, Note_on_c, 1, 69, 0
2, 1853, Note_on_c, 1, 76, 56
2, 1857, Note_on_c, 1, 66, 0
2, 1863, Note_on_c, 1, 74, 46
2, 1873, Note_on_c, 1, 71, 59
2, 1878, Note_on_c, 1, 76, 0
2, 1898, Note_on_c, 1, 74, 0
2, 1898, Note_on_c, 1, 69, 48
2, 1910, Note_on_c, 1, 71, 0
2, 1910, Note_on_c, 1, 66, 55
2, 1921, Note_on_c, 1, 69, 0
2, 1934, Note_on_c, 1, 76, 66
2, 1936, Note_on_c, 1, 66, 0
2, 1943, Note_on_c, 1, 74, 44
2, 1952, Note_on_c, 1, 71, 64
2, 1958, Note_on_c, 1, 76, 0
2, 1975, Note_on_c, 1, 74, 0
2, 1978, Note_on_c, 1, 69, 34
2, 1989, Note_on_c, 1, 66, 35
2, 1990, Note_on_c, 1, 71, 0
2, 2008, Note_on_c, 1, 69, 0
2, 2018, Note_on_c, 1, 76, 38
2, 2019, Note_on_c, 1, 66, 0
2, 2035, Note_on_c, 1, 71, 50
2, 2040, Note_on_c, 1, 76, 0
2, 2061, Note_on_c, 1, 69, 33
2, 2068, Note_on_c, 1, 66, 44
2, 2069, Note_on_c, 1, 71, 0
2, 2091, Note_on_c, 1, 69, 0
2, 2109, Note_on_c, 1, 66, 0
2, 2110, Note_on_c, 1, 76, 32
2, 2137, Note_on_c, 1, 71, 43
2, 2142, Note_on_c, 1, 76, 0
2, 2144, Note_on_c, 1, 74, 19
2, 2164, Note_on_c, 1, 71, 0
2, 2174, Note_on_c, 1, 74, 0
2, 2176, Note_on_c, 1, 66, 18
2, 2202, Note_on_c, 1, 66, 0
2, 2206, Note_on_c, 1, 76, 30
2, 2217, Note_on_c, 1, 74, 50
2, 2231, Note_on_c, 1, 76, 0
2, 2239, Note_on_c, 1, 71, 53
2, 2258, Note_on_c, 1, 74, 0
2, 2268, Note_on_c, 1, 66, 43
2, 2275, Note_on_c, 1, 71, 0
2, 2294, Note_on_c, 1, 76, 62
2, 2295, Note_on_c, 1, 66, 0
2, 2305, Note_on_c, 1, 74, 44
2, 2318, Note_on_c, 1, 71, 66
2, 2320, Note_on_c, 1, 76, 0
2, 2338, Note_on_c, 1, 69, 55
2, 2347, Note_on_c, 1, 74, 0
2, 2349, Note_on_c, 1, 66, 36
2, 2350, Note_on_c, 1, 71, 0
2, 2366, Note_on_c, 1, 69, 0
2, 2372, Note_on_c, 1, 76, 60
2, 2375, Note_on_c, 1, 66, 0
2, 2382, Note_on_c, 1, 74, 45
2, 2394, Note_on_c, 1, 71, 64
2, 2396, Note_on_c, 1, 76, 0
2, 2412, Note_on_c, 1, 69, 55
2, 2422, Note_on_c, 1, 74, 0
2, 2422, Note_on_c, 1, 66, 40
2, 2426, Note_on_c, 1, 71, 0
2, 2438, Note_on_c, 1, 69, 0
2, 2447, Note_on_c, 1, 76, 41
2, 2448, Note_on_c, 1, 66, 0
2, 2461, Note_on_c, 1, 74, 29
2, 2464, Note_on_c, 1, 71, 53
2, 2472, Note_on_c, 1, 76, 0
2, 2489, Note_on_c, 1, 69, 31
2, 2493, Note_on_c, 1, 74, 0
2, 2495, Note_on_c, 1, 66, 29
2, 2501, Note_on_c, 1, 71, 0
2, 2516, Note_on_c, 1, 69, 0
2, 2524, Note_on_c, 1, 76, 32
2, 2525, Note_on_c, 1, 66, 0
2, 2540, Note_on_c, 1, 74, 29
2, 2547, Note_on_c, 1, 71, 44
2, 2554, Note_on_c, 1, 76, 0
2, 2571, Note_on_c, 1, 69, 36
2, 2577, Note_on_c, 1, 74, 0
2, 2580, Note_on_c, 1, 66, 31
2, 2586, Note_on_c, 1, 71, 0
2, 2608, Note_on_c, 1, 69, 0
2, 2618, Note_on_c, 1, 66, 0
2, 2619, Note_on_c, 1, 76, 22
2, 2633, Note_on_c, 1, 71, 44
2, 2637, Note_on_c, 1, 76, 0
2, 2663, Note_on_c, 1, 69, 24
2, 2671, Note_on_c, 1, 66, 25
2, 2675, Note_on_c, 1, 71, 0
2, 2692, Note_on_c, 1, 69, 0
2, 2705, Note_on_c, 1, 66, 0
2, 2721, Note_on_c, 1, 71, 40
2, 2756, Note_on_c, 1, 71, 0
2, 2766, Note_on_c, 1, 66, 20
2, 2827, Note_on_c, 1, 66, 0
2, 2857, Note_on_c, 1, 78, 3
2, 2887, Note_on_c, 1, 76, 34
2, 2898, Note_on_c, 1, 78, 0
2, 2929, Note_on_c, 1, 71, 29
2, 2941, Note_on_c, 1, 76, 0
2, 2948, Note_on_c, 1, 69, 32
2, 2971, Note_on_c, 1, 71, 0
2, 2976, Note_on_c, 1, 78, 44
2, 2980, Note_on_c, 1, 69, 0
2, 3000, Note_on_c, 1, 76, 40
2, 3010, Note_on_c, 1, 78, 0
2, 3020, Note_on_c, 1, 74, 40
2, 3039, Note_on_c, 1, 71, 49
2, 3056, Note_on_c, 1, 74, 0
2, 3056, Note_on_c, 1, 76, 0
2, 3060, Note_on_c, 1, 69, 48
2, 3073, Note_on_c, 1, 71, 0
2, 3079, Note_on_c, 1, 78, 57
2, 3084, Note_on_c, 1, 69, 0
2, 3104, Note_on_c, 1, 76, 50
2, 3114, Note_on_c, 1, 78, 0
2, 3119, Note_on_c, 1, 74, 58
2, 3140, Note_on_c, 1, 71, 55
2, 3146, Note_on_c, 1, 76, 0
2, 3153, Note_on_c, 1, 74, 0
2, 3155, Note_on_c, 1, 69, 60
2, 3167, Note_on_c, 1, 71, 0
2, 3174, Note_on_c, 1, 78, 56
2, 3178, Note_on_c, 1, 69, 0
2, 3189, Note_on_c, 1, 76, 54
2, 3209, Note_on_c, 1, 74, 59
2, 3210, Note_on_c, 1, 78, 0
2, 3238, Note_on_c, 1, 71, 48
2, 3239, Note_on_c, 1, 76, 0
2, 3242, Note_on_c, 1, 74, 0
2, 3249, Note_on_c, 1, 69, 50
2, 3263, Note_on_c, 1, 71, 0
2, 3266, Note_on_c, 1, 78, 50
2, 3279, Note_on_c, 1, 69, 0
2, 3290, Note_on_c, 1, 76, 47
2, 3296, Note_on_c, 1, 78, 0
2, 3307, Note_on_c, 1, 74, 41
2, 3326, Note_on_c, 1, 76, 0
2, 3329, Note_on_c, 1, 71, 36
2, 3340, Note_on_c, 1, 69, 44
2, 3341, Note_on_c, 1, 74, 0
2, 3358, Note_on_c, 1, 71, 0
2, 3359, Note_on_c, 1, 79, 35
2, 3370, Note_on_c, 1, 69, 0
2, 3385, Note_on_c, 1, 79, 0
2, 3387, Note_on_c, 1, 76, 37
2, 3390, Control_c, 1, 64, 0
2, 3398, Note_on_c, 1, 74, 44
2, 3418, Note_on_c, 1, 71, 43
2, 3421, Note_on_c, 1, 76, 0
2, 3433, Note_on_c, 1, 69, 37
2, 3437, Note_on_c, 1, 74, 0
2, 3450, Note_on_c, 1, 79, 25
2, 3456, Note_on_c, 1, 71, 0
2, 3465, Note_on_c, 1, 69, 0
2, 3474, Note_on_c, 1, 79, 0
2, 3482, Note_on_c, 1, 76, 29
2, 3494, Note_on_c, 1, 74, 35
2, 3512, Note_on_c, 1, 71, 38
2, 3513, Note_on_c, 1, 76, 0
2, 3527, Note_on_c, 1, 74, 0
2, 3527, Note_on_c, 1, 69, 36
2, 3544, Note_on_c, 1, 71, 0
2, 3555, Note_on_c, 1, 79, 18
2, 3557, Note_on_c, 1, 69, 0
2, 3575, Note_on_c, 1, 76, 27
2, 3579, Note_on_c, 1, 79, 0
2, 3586, Note_on_c, 1, 74, 37
2, 3603, Note_on_c, 1, 71, 38
2, 3607, Note_on_c, 1, 76, 0
2, 3618, Note_on_c, 1, 74, 0
2, 3619, Note_on_c, 1, 69, 31
2, 3639, Note_on_c, 1, 71, 0
2, 3644, Note_on_c, 1, 79, 31
2, 3649, Note_on_c, 1, 69, 0
2, 3660, Note_on_c, 1, 76, 40
2, 3673, Note_on_c, 1, 79, 0
2, 3676, Note_on_c, 1, 74, 39
2, 3693, Note_on_c, 1, 71, 43
2, 3697, Note_on_c, 1, 76, 0
2, 3709, Note_on_c, 1, 74, 0
2, 3711, Note_on_c, 1, 69, 34
2, 3729, Control_c, 1, 64, 127
2, 3730, Note_on_c, 1, 71, 0
2, 3736, Note_on_c, 1, 79, 36
2, 3739, Note_on_c, 1, 69, 0
2, 3761, Note_on_c, 1, 76, 17
2, 3763, Note_on_c, 1, 79, 0
2, 3767, Note_on_c, 1, 74, 35
2, 3784, Note_on_c, 1, 71, 40
2, 3807, Note_on_c, 1, 74, 0
2, 3807, Note_on_c, 1, 76, 0
2, 3817, Note_on_c, 1, 69, 26
2, 3831, Note_on_c, 1, 71, 0
2, 3843, Note_on_c, 1, 69, 0
2, 3845, Note_on_c, 1, 79, 20
2, 3857, Note_on_c, 1, 74, 35
2, 3869, Note_on_c, 1, 79, 0
2, 3877, Note_on_c, 1, 71, 30
2, 3890, Note_on_c, 1, 74, 0
2, 3905, Note_on_c, 1, 71, 0
2, 3906, Note_on_c, 1, 69, 34
2, 3937, Note_on_c, 1, 69, 0
2, 3937, Note_on_c, 1, 75, 33
2, 3966, Note_on_c, 1, 75, 0
2, 3984, Note_on_c, 1, 74, 54
2, 4012, Note_on_c, 1, 72, 24
2, 4026, Note_on_c, 1, 71, 45
2, 4029, Note_on_c, 1, 74, 0
2, 4039, Note_on_c, 1, 72, 0
2, 4056, Note_on_c, 1, 66, 33
2, 4058, Control_c, 1, 64, 0
2, 4063, Note_on_c, 1, 71, 0
2, 4083, Note_on_c, 1, 74, 48
2, 4088, Note_on_c, 1, 66, 0
2, 4091, Note_on_c, 1, 72, 35
2, 4093, Note_on_c, 1, 71, 54
2, 4104, Note_on_c, 1, 74, 0
2, 4106, Note_on_c, 1, 72, 0
2, 4120, Note_on_c, 1, 69, 41
2, 4135, Note_on_c, 1, 71, 0
2, 4137, Note_on_c, 1, 66, 37
2, 4151, Note_on_c, 1, 69, 0
2, 4161, Note_on_c, 1, 66, 0
2, 4161, Note_on_c, 1, 74, 45
2, 4170, Note_on_c, 1, 72, 29
2, 4171, Note_on_c, 1, 71, 55
2, 4180, Note_on_c, 1, 74, 0
2, 4184, Note_on_c, 1, 72, 0
2, 4195, Note_on_c, 1, 69, 41
2, 4207, Note_on_c, 1, 71, 0
2, 4212, Note_on_c, 1, 66, 38
2, 4223, Note_on_c, 1, 69, 0
2, 4239, Note_on_c, 1, 66, 0
2, 4241, Note_on_c, 1, 74, 26
2, 4248, Note_on_c, 1, 71, 55
2, 4257, Note_on_c, 1, 74, 0
2, 4276, Note_on_c, 1, 69, 28
2, 4284, Note_on_c, 1, 66, 25
2, 4285, Note_on_c, 1, 71, 0
2, 4299, Note_on_c, 1, 69, 0
2, 4315, Note_on_c, 1, 66, 0
2, 4326, Note_on_c, 1, 71, 41
2, 4364, Note_on_c, 1, 66, 25
2, 4365, Note_on_c, 1, 71, 0
2, 4406, Note_on_c, 1, 74, 15
2, 4408, Note_on_c, 1, 66, 0
2, 4418, Note_on_c, 1, 71, 45
2, 4427, Note_on_c, 1, 74, 0
2, 4465, Note_on_c, 1, 66, 28
2, 4469, Note_on_c, 1, 71, 0
2, 4512, Note_on_c, 1, 66, 0
2, 4519, Note_on_c, 1, 71, 35
2, 4558, Note_on_c, 1, 69, 17
2, 4574, Note_on_c, 1, 66, 13
2, 4611, Note_on_c, 1, 71, 0
2, 4644, Note_on_c, 1, 69, 0
2, 4694, Control_c, 1, 64, 127
2, 4698, Note_on_c, 1, 66, 0
2, 4720, Note_on_c, 1, 71, 36
2, 4764, Note_on_c, 1, 66, 23
2, 4768, Control_c, 1, 64, 0
2, 4779, Note_on_c, 1, 64, 37
2, 4851, Note_on_c, 1, 74, 1
2, 5004, Note_on_c, 1, 74, 0
2, 5007, Note_on_c, 1, 64, 0
2, 5015, Note_on_c, 1, 71, 0
2, 5019, Note_on_c, 1, 66, 0
2, 5331, Control_c, 1, 64, 127
2, 6358, Note_on_c, 1, 81, 36
2, 6376, Note_on_c, 1, 78, 33
2, 6386, Note_on_c, 1, 52, 31
2, 6391, Note_on_c, 1, 74, 46
2, 6394, Control_c, 1, 64, 0
2, 6418, Note_on_c, 1, 71, 32
2, 6444, Control_c, 1, 64, 127
2, 6454, Note_on_c, 1, 74, 0
2, 6458, Note_on_c, 1, 81, 0
2, 6459, Note_on_c, 1, 78, 0
2, 6477, Note_on_c, 1, 59, 24
2, 6484, Note_on_c, 1, 71, 0
2, 6530, Note_on_c, 1, 64, 26
2, 6570, Note_on_c, 1, 66, 28
2, 6607, Note_on_c, 1, 66, 0
2, 6613, Note_on_c, 1, 71, 51
2, 6657, Note_on_c, 1, 71, 0
2, 6668, Note_on_c, 1, 76, 47
2, 6686, Note_on_c, 1, 76, 0
2, 6721, Note_on_c, 1, 78, 36
2, 6762, Note_on_c, 1, 78, 0
2, 6772, Note_on_c, 1, 83, 49
2, 6835, Note_on_c, 1, 76, 22
2, 7064, Note_on_c, 1, 52, 0
2, 7074, Note_on_c, 1, 59, 0
2, 7088, Note_on_c, 1, 64, 0
2, 7112, Note_on_c, 1, 83, 0
2, 7134, Note_on_c, 1, 76, 0
2, 7707, Note_on_c, 1, 95, 54
2, 7715, Note_on_c, 1, 60, 25
2, 7736, Control_c, 1, 64, 0
2, 7748, Control_c, 1, 64, 127
2, 7795, Note_on_c, 1, 88, 48
2, 7837, Note_on_c, 1, 95, 0
2, 7852, Note_on_c, 1, 88, 0
2, 7857, Note_on_c, 1, 83, 41
2, 7901, Note_on_c, 1, 83, 0
2, 7917, Note_on_c, 1, 79, 29
2, 7957, Note_on_c, 1, 79, 0
2, 7963, Note_on_c, 1, 83, 59
2, 8006, Note_on_c, 1, 81, 60
2, 8015, Note_on_c, 1, 83, 0
2, 8043, Note_on_c, 1, 81, 0
2, 8055, Note_on_c, 1, 76, 47
2, 8082, Note_on_c, 1, 76, 0
2, 8098, Note_on_c, 1, 74, 37
2, 8144, Note_on_c, 1, 74, 0
2, 8155, Note_on_c, 1, 71, 28
2, 8305, Note_on_c, 1, 60, 0
2, 8363, Note_on_c, 1, 71, 0
2, 8398, Note_on_c, 1, 78, 37
2, 8407, Note_on_c, 1, 52, 34
2, 8454, Control_c, 1, 64, 0
2, 8572, Control_c, 1, 64, 127
2, 8595, Note_on_c, 1, 59, 25
2, 8635, Note_on_c, 1, 78, 0
2, 8656, Note_on_c, 1, 66, 28
2, 8712, Note_on_c, 1, 66, 0
2, 8718, Note_on_c, 1, 71, 49
2, 8777, Note_on_c, 1, 59, 0
2, 8795, Note_on_c, 1, 71, 0
2, 8796, Note_on_c, 1, 64, 31
2, 8802, Note_on_c, 1, 59, 13
2, 8861, Note_on_c, 1, 66, 51
2, 8897, Note_on_c, 1, 52, 0
2, 8905, Note_on_c, 1, 59, 0
2, 8919, Note_on_c, 1, 64, 0
2, 8928, Note_on_c, 1, 71, 58
2, 8931, Note_on_c, 1, 66, 0
2, 9009, Note_on_c, 1, 71, 0
2, 9013, Note_on_c, 1, 64, 57
2, 9018, Control_c, 1, 64, 0
2, 9022, Note_on_c, 1, 45, 30
2, 9034, Note_on_c, 1, 55, 17
2, 9116, Control_c, 1, 64, 127
2, 9212, Note_on_c, 1, 52, 18
2, 9243, Note_on_c, 1, 55, 0
2, 9305, Note_on_c, 1, 59, 38
2, 9307, Note_on_c, 1, 55, 35
2, 9349, Note_on_c, 1, 64, 0
2, 9493, Note_on_c, 1, 45, 0
2, 9521, Note_on_c, 1, 52, 0
2, 9613, Note_on_c, 1, 55, 0
2, 9679, Note_on_c, 1, 59, 0
2, 9994, Note_on_c, 1, 67, 49
2, 9994, Note_on_c, 1, 52, 48
2, 10010, Control_c, 1, 64, 0
2, 10065, Control_c, 1, 64, 127
2, 10072, Note_on_c, 1, 67, 0
2, 10075, Note_on_c, 1, 59, 44
2, 10149, Note_on_c, 1, 52, 0
2, 10156, Note_on_c, 1, 59, 0
2, 10157, Note_on_c, 1, 78, 56
2, 10161, Note_on_c, 1, 64, 28
2, 10237, Note_on_c, 1, 78, 0
2, 10246, Note_on_c, 1, 64, 0
2, 10248, Note_on_c, 1, 79, 60
2, 10252, Note_on_c, 1, 66, 25
2, 10348, Note_on_c, 1, 66, 0
2, 10351, Note_on_c, 1, 71, 45
2, 10447, Note_on_c, 1, 71, 0
2, 10448, Note_on_c, 1, 79, 0
2, 10842, Note_on_c, 1, 76, 72
2, 10955, Note_on_c, 1, 79, 72
2, 10962, Note_on_c, 1, 76, 0
2, 10981, Control_c, 1, 64, 0
2, 10991, Control_c, 1, 64, 127
2, 11096, Note_on_c, 1, 79, 0
2, 11124, Note_on_c, 1, 78, 40
2, 11276, Note_on_c, 1, 78, 0
2, 11281, Note_on_c, 1, 72, 38
2, 11283, Note_on_c, 1, 55, 34
2, 11288, Note_on_c, 1, 65, 20
2, 11294, Control_c, 1, 64, 0
2, 11334, Control_c, 1, 64, 127
2, 11401, Note_on_c, 1, 69, 47
2, 11465, Note_on_c, 1, 72, 0
2, 11515, Note_on_c, 1, 69, 0
2, 11515, Note_on_c, 1, 71, 69
2, 11624, Note_on_c, 1, 65, 0
2, 11638, Note_on_c, 1, 75, 53
2, 11645, Note_on_c, 1, 71, 0
2, 11824, Note_on_c, 1, 68, 21
2, 11825, Note_on_c, 1, 65, 32
2, 11903, Note_on_c, 1, 55, 0
2, 11931, Note_on_c, 1, 75, 0
2, 12038, Note_on_c, 1, 65, 0
2, 12399, Note_on_c, 1, 68, 0
2, 12521, Note_on_c, 1, 83, 50
2, 12533, Note_on_c, 1, 79, 51
2, 12544, Note_on_c, 1, 76, 32
2, 12556, Note_on_c, 1, 74, 36
2, 12589, Note_on_c, 1, 83, 0
2, 12590, Note_on_c, 1, 79, 0
2, 12594, Note_on_c, 1, 76, 0
2, 12606, Note_on_c, 1, 74, 0
2, 12635, Note_on_c, 1, 79, 55
2, 12638, Note_on_c, 1, 74, 49
2, 12643, Note_on_c, 1, 76, 34
2, 12646, Note_on_c, 1, 71, 40
2, 12670, Note_on_c, 1, 79, 0
2, 12671, Note_on_c, 1, 76, 0
2, 12674, Note_on_c, 1, 74, 0
2, 12687, Note_on_c, 1, 71, 0
2, 12732, Note_on_c, 1, 76, 36
2, 12737, Note_on_c, 1, 71, 38
2, 12740, Note_on_c, 1, 74, 29
2, 12743, Note_on_c, 1, 67, 45
2, 12770, Note_on_c, 1, 76, 0
2, 12771, Note_on_c, 1, 74, 0
2, 12773, Note_on_c, 1, 71, 0
2, 12786, Note_on_c, 1, 67, 0
2, 13075, Note_on_c, 1, 73, 63
2, 13077, Note_on_c, 1, 66, 71
2, 13143, Note_on_c, 1, 73, 0
2, 13149, Note_on_c, 1, 69, 58
2, 13151, Note_on_c, 1, 62, 43
2, 13175, Note_on_c, 1, 69, 0
2, 13197, Note_on_c, 1, 66, 0
2, 13201, Note_on_c, 1, 62, 0
2, 13222, Note_on_c, 1, 71, 62
2, 13225, Note_on_c, 1, 68, 56
2, 13280, Note_on_c, 1, 68, 0
2, 13296, Note_on_c, 1, 71, 0
2, 13307, Note_on_c, 1, 64, 48
2, 13308, Note_on_c, 1, 60, 41
2, 13316, Control_c, 1, 64, 0
2, 13356, Control_c, 1, 64, 127
2, 13479, Note_on_c, 1, 60, 0
2, 13539, Note_on_c, 1, 64, 0
2, 13589, Note_on_c, 1, 64, 33
2, 13589, Note_on_c, 1, 60, 41
2, 13590, Note_on_c, 1, 59, 40
2, 13591, Note_on_c, 1, 45, 37
2, 13595, Control_c, 1, 64, 0
2, 13613, Control_c, 1, 64, 127
2, 13626, Note_on_c, 1, 59, 0
2, 13629, Note_on_c, 1, 60, 0
2, 13632, Note_on_c, 1, 45, 0
2, 13641, Note_on_c, 1, 64, 0
2, 13690, Note_on_c, 1, 83, 62
2, 13778, Note_on_c, 1, 71, 32
2, 13780, Note_on_c, 1, 76, 37
2, 13780, Note_on_c, 1, 72, 32
2, 13957, Note_on_c, 1, 72, 0
2, 13959, Note_on_c, 1, 83, 0
2, 13971, Note_on_c, 1, 76, 0
2, 13990, Note_on_c, 1, 71, 0
2, 14320, Note_on_c, 1, 61, 31
2, 14323, Note_on_c, 1, 57, 26
2, 14324, Note_on_c, 1, 64, 39
2, 14390, Note_on_c, 1, 57, 0
2, 14394, Note_on_c, 1, 64, 0
2, 14397, Note_on_c, 1, 61, 0
2, 14452, Note_on_c, 1, 61, 25
2, 14455, Note_on_c, 1, 57, 24
2, 14457, Note_on_c, 1, 64, 33
2, 14562, Note_on_c, 1, 57, 0
2, 14593, Note_on_c, 1, 64, 0
2, 14600, Note_on_c, 1, 61, 0
2, 14881, Note_on_c, 1, 69, 34
2, 14883, Note_on_c, 1, 51, 27
2, 14883, Note_on_c, 1, 60, 25
2, 14885, Note_on_c, 1, 65, 36
2, 14886, Note_on_c, 1, 57, 24
2, 14899, Control_c, 1, 64, 0
2, 15017, Control_c, 1, 64, 127
2, 15137, Note_on_c, 1, 60, 0
2, 15142, Note_on_c, 1, 51, 0
2, 15151, Note_on_c, 1, 65, 0
2, 15164, Note_on_c, 1, 57, 0
2, 15165, Note_on_c, 1, 69, 0
2, 15327, Note_on_c, 1, 80, 59
2, 15336, Note_on_c, 1, 57, 24
2, 15340, Control_c, 1, 64, 0
2, 15406, Control_c, 1, 64, 127
2, 15406, Note_on_c, 1, 73, 44
2, 15427, Note_on_c, 1, 64, 18
2, 15484, Note_on_c, 1, 68, 31
2, 15551, Note_on_c, 1, 80, 0
2, 15556, Note_on_c, 1, 71, 54
2, 15558, Note_on_c, 1, 68, 0
2, 15566, Note_on_c, 1, 64, 0
2, 15576, Note_on_c, 1, 57, 0
2, 15580, Note_on_c, 1, 73, 0
2, 15621, Note_on_c, 1, 73, 46
2, 15629, Note_on_c, 1, 71, 0
2, 15685, Note_on_c, 1, 73, 0
2, 15697, Note_on_c, 1, 54, 34
2, 15701, Note_on_c, 1, 83, 67
2, 15713, Control_c, 1, 64, 0
2, 15749, Control_c, 1, 64, 127
2, 15817, Note_on_c, 1, 80, 44
2, 15822, Note_on_c, 1, 64, 16
2, 15823, Note_on_c, 1, 54, 0
2, 15833, Note_on_c, 1, 83, 0
2, 15928, Note_on_c, 1, 64, 0
2, 15928, Note_on_c, 1, 66, 31
2, 15931, Note_on_c, 1, 69, 24
2, 16123, Note_on_c, 1, 66, 0
2, 16216, Note_on_c, 1, 80, 0
2, 16568, Note_on_c, 1, 69, 0
2, 16572, Note_on_c, 1, 68, 21
2, 16653, Note_on_c, 1, 69, 50
2, 16726, Note_on_c, 1, 73, 49
2, 16822, Note_on_c, 1, 75, 45
2, 16975, Note_on_c, 1, 80, 25
2, 16987, Note_on_c, 1, 69, 0
2, 17016, Note_on_c, 1, 73, 0
2, 17038, Note_on_c, 1, 68, 0
2, 17044, Note_on_c, 1, 75, 0
2, 17351, Note_on_c, 1, 64, 19
2, 17441, Note_on_c, 1, 80, 0
2, 17504, Note_on_c, 1, 66, 33
2, 17606, Note_on_c, 1, 71, 44
2, 17731, Note_on_c, 1, 75, 42
2, 17754, Note_on_c, 1, 71, 0
2, 17765, Note_on_c, 1, 64, 0
2, 17791, Note_on_c, 1, 66, 0
2, 17794, Note_on_c, 1, 75, 0
2, 17986, Note_on_c, 1, 67, 32
2, 17988, Note_on_c, 1, 72, 31
2, 17990, Note_on_c, 1, 56, 32
2, 17992, Note_on_c, 1, 76, 33
2, 17995, Note_on_c, 1, 62, 20
2, 18009, Control_c, 1, 64, 0
2, 18060, Control_c, 1, 64, 127
2, 18088, Note_on_c, 1, 72, 0
2, 18090, Note_on_c, 1, 76, 0
2, 18116, Note_on_c, 1, 67, 0
2, 18199, Note_on_c, 1, 83, 51
2, 18282, Note_on_c, 1, 62, 0
2, 18305, Note_on_c, 1, 56, 0
2, 18449, Note_on_c, 1, 80, 56
2, 18452, Note_on_c, 1, 83, 0
2, 18457, Note_on_c, 1, 61, 29
2, 18460, Note_on_c, 1, 64, 22
2, 18471, Note_on_c, 1, 59, 22
2, 18528, Note_on_c, 1, 80, 0
2, 18540, Note_on_c, 1, 73, 47
2, 18580, Note_on_c, 1, 73, 0
2, 18610, Note_on_c, 1, 76, 73
2, 18673, Note_on_c, 1, 76, 0
2, 18681, Note_on_c, 1, 69, 61
2, 18737, Note_on_c, 1, 64, 0
2, 18744, Note_on_c, 1, 69, 0
2, 18750, Note_on_c, 1, 59, 0
2, 18751, Note_on_c, 1, 73, 61
2, 18752, Note_on_c, 1, 61, 0
2, 18873, Note_on_c, 1, 71, 71
2, 18883, Note_on_c, 1, 56, 25
2, 18920, Control_c, 1, 64, 0
2, 18952, Note_on_c, 1, 56, 0
2, 18962, Note_on_c, 1, 71, 0
2, 18979, Note_on_c, 1, 71, 74
2, 18980, Note_on_c, 1, 56, 47
2, 19014, Control_c, 1, 64, 127
2, 19070, Note_on_c, 1, 64, 51
2, 19127, Note_on_c, 1, 64, 0
2, 19161, Note_on_c, 1, 56, 0
2, 19174, Note_on_c, 1, 64, 39
2, 19179, Note_on_c, 1, 71, 0
2, 19180, Note_on_c, 1, 56, 23
2, 19196, Note_on_c, 1, 73, 0
2, 19277, Note_on_c, 1, 68, 36
2, 19306, Note_on_c, 1, 56, 0
2, 19336, Note_on_c, 1, 68, 0
2, 19400, Note_on_c, 1, 64, 0
2, 19407, Note_on_c, 1, 68, 49
2, 19414, Note_on_c, 1, 59, 26
2, 19417, Note_on_c, 1, 49, 25
2, 19419, Control_c, 1, 64, 0
2, 19451, Control_c, 1, 64, 127
2, 19575, Note_on_c, 1, 64, 30
2, 19633, Note_on_c, 1, 49, 0
2, 19645, Note_on_c, 1, 59, 0
2, 19698, Note_on_c, 1, 68, 0
2, 19704, Note_on_c, 1, 64, 0
2, 19814, Note_on_c, 1, 64, 33
2, 19815, Note_on_c, 1, 54, 34
2, 19838, Control_c, 1, 64, 0
2, 19883, Control_c, 1, 64, 127
2, 19929, Note_on_c, 1, 64, 0
2, 19981, Note_on_c, 1, 64, 26
2, 20064, Note_on_c, 1, 64, 0
2, 20112, Note_on_c, 1, 66, 25
2, 20132, Note_on_c, 1, 54, 0
2, 20180, Note_on_c, 1, 66, 0
2, 20335, Note_on_c, 1, 61, 26
2, 20337, Note_on_c, 1, 64, 48
2, 20344, Note_on_c, 1, 55, 22
2, 20350, Control_c, 1, 64, 0
2, 20384, Control_c, 1, 64, 127
2, 20512, Note_on_c, 1, 55, 0
2, 20617, Note_on_c, 1, 47, 30
2, 20645, Control_c, 1, 64, 0
2, 20659, Control_c, 1, 64, 127
2, 20926, Note_on_c, 1, 47, 0
2, 20933, Note_on_c, 1, 64, 0
2, 20939, Note_on_c, 1, 61, 0
2, 20961, Note_on_c, 1, 62, 30
2, 20961, Note_on_c, 1, 40, 29
2, 20963, Note_on_c, 1, 57, 31
2, 20963, Note_on_c, 1, 66, 26
2, 20968, Note_on_c, 1, 28, 26
2, 20985, Control_c, 1, 64, 0
2, 21022, Control_c, 1, 64, 127
2, 21029, Note_on_c, 1, 57, 0
2, 21046, Note_on_c, 1, 62, 0
2, 21056, Note_on_c, 1, 66, 0
2, 21178, Note_on_c, 1, 71, 57
2, 21223, Note_on_c, 1, 71, 0
2, 21224, Note_on_c, 1, 78, 34
2, 21253, Note_on_c, 1, 28, 0
2, 21277, Note_on_c, 1, 78, 0
2, 21295, Note_on_c, 1, 40, 0
2, 21297, Note_on_c, 1, 80, 71
2, 21574, Note_on_c, 1, 78, 46
2, 21614, Note_on_c, 1, 80, 0
2, 21627, Note_on_c, 1, 78, 0
2, 21698, Note_on_c, 1, 76, 37
2, 21699, Note_on_c, 1, 72, 29
2, 21701, Note_on_c, 1, 62, 24
2, 21705, Note_on_c, 1, 56, 25
2, 21708, Control_c, 1, 64, 0
2, 21747, Control_c, 1, 64, 127
2, 21940, Note_on_c, 1, 72, 0
2, 21950, Note_on_c, 1, 62, 0
2, 21953, Note_on_c, 1, 76, 0
2, 21959, Note_on_c, 1, 56, 0
2, 22320, Note_on_c, 1, 45, 44
2, 22320, Control_c, 1, 64, 0
2, 22334, Control_c, 1, 64, 127
2, 22436, Note_on_c, 1, 64, 45
2, 22438, Note_on_c, 1, 60, 44
2, 22438, Note_on_c, 1, 59, 37
2, 22443, Note_on_c, 1, 52, 26
2, 22541, Note_on_c, 1, 52, 0
2, 22550, Note_on_c, 1, 45, 0
2, 22567, Note_on_c, 1, 59, 0
2, 22573, Note_on_c, 1, 60, 0
2, 22590, Note_on_c, 1, 64, 0
2, 22667, Control_c, 1, 64, 0
2, 22673, Note_on_c, 1, 28, 57
2, 22679, Control_c, 1, 64, 127
2, 22684, Note_on_c, 1, 28, 0
2, 22880, Note_on_c, 1, 81, 62
2, 22881, Note_on_c, 1, 78, 42
2, 22884, Note_on_c, 1, 74, 58
2, 22885, Note_on_c, 1, 59, 44
2, 22886, Note_on_c, 1, 69, 59
2, 22887, Note_on_c, 1, 64, 37
2, 22925, Note_on_c, 1, 64, 0
2, 22926, Note_on_c, 1, 59, 0
2, 22980, Note_on_c, 1, 81, 0
2, 22982, Note_on_c, 1, 78, 0
2, 22993, Note_on_c, 1, 74, 0
2, 23005, Note_on_c, 1, 69, 0
2, 23038, Note_on_c, 1, 45, 49
2, 23050, Control_c, 1, 64, 0
2, 23124, Note_on_c, 1, 59, 55
2, 23125, Note_on_c, 1, 71, 58
2, 23126, Note_on_c, 1, 60, 58
2, 23127, Note_on_c, 1, 64, 62
2, 23127, Note_on_c, 1, 55, 65
2, 23133, Note_on_c, 1, 60, 0
2, 23134, Note_on_c, 1, 64, 0
2, 23134, Note_on_c, 1, 55, 0
2, 23137, Note_on_c, 1, 59, 0
2, 23144, Note_on_c, 1, 71, 0
2, 23146, Note_on_c, 1, 45, 0
2, 23219, Note_on_c, 1, 45, 1
2, 23244, Note_on_c, 1, 52, 38
2, 23268, Note_on_c, 1, 52, 0
2, 23269, Note_on_c, 1, 55, 36
2, 23277, Note_on_c, 1, 71, 29
2, 23280, Control_c, 1, 64, 127
2, 23282, Note_on_c, 1, 59, 38
2, 23283, Note_on_c, 1, 64, 51
2, 23284, Note_on_c, 1, 60, 42
2, 23290, Note_on_c, 1, 55, 0
2, 23290, Note_on_c, 1, 45, 0
2, 23324, Note_on_c, 1, 64, 0
2, 23324, Note_on_c, 1, 71, 0
2, 23338, Note_on_c, 1, 60, 0
2, 23344, Note_on_c, 1, 59, 0
2, 23359, Note_on_c, 1, 47, 34
2, 23396, Note_on_c, 1, 59, 49
2, 23398, Note_on_c, 1, 47, 0
2, 23398, Note_on_c, 1, 66, 46
2, 23399, Note_on_c, 1, 40, 39
2, 23401, Control_c, 1, 64, 0
2, 23402, Note_on_c, 1, 62, 38
2, 23445, Control_c, 1, 64, 127
2, 23472, Note_on_c, 1, 62, 0
2, 23489, Note_on_c, 1, 59, 0
2, 23518, Note_on_c, 1, 62, 51
2, 23518, Note_on_c, 1, 54, 36
2, 23520, Note_on_c, 1, 59, 40
2, 23521, Note_on_c, 1, 52, 35
2, 23526, Note_on_c, 1, 66, 0
2, 23627, Note_on_c, 1, 52, 0
2, 23640, Note_on_c, 1, 40, 0
2, 23655, Note_on_c, 1, 54, 0
2, 23679, Note_on_c, 1, 62, 0
2, 23684, Note_on_c, 1, 59, 0
2, 23751, Note_on_c, 1, 33, 55
2, 23766, Control_c, 1, 64, 0
2, 23842, Note_on_c, 1, 64, 63
2, 23843, Note_on_c, 1, 59, 51
2, 23845, Note_on_c, 1, 60, 59
2, 23850, Note_on_c, 1, 45, 41
2, 23880, Control_c, 1, 64, 127
2, 23943, Note_on_c, 1, 33, 0
2, 23995, Note_on_c, 1, 45, 0
2, 24036, Note_on_c, 1, 64, 0
2, 24039, Note_on_c, 1, 60, 0
2, 24071, Note_on_c, 1, 47, 44
2, 24077, Note_on_c, 1, 59, 0
2, 24101, Note_on_c, 1, 47, 0
2, 24111, Control_c, 1, 64, 0
2, 24114, Note_on_c, 1, 40, 50
2, 24175, Control_c, 1, 64, 127
2, 24199, Note_on_c, 1, 66, 53
2, 24199, Note_on_c, 1, 62, 60
2, 24199, Note_on_c, 1, 67, 62
2, 24206, Note_on_c, 1, 52, 39
2, 24207, Control_c, 1, 64, 0
2, 24271, Control_c, 1, 64, 127
2, 24341, Control_c, 1, 64, 0
2, 24355, Control_c, 1, 64, 127
2, 24371, Note_on_c, 1, 40, 0
2, 24396, Note_on_c, 1, 67, 0
2, 24397, Note_on_c, 1, 66, 0
2, 24405, Note_on_c, 1, 62, 0
2, 24435, Note_on_c, 1, 40, 24
2, 24445, Note_on_c, 1, 52, 0
2, 24475, Note_on_c, 1, 40, 0
2, 24481, Note_on_c, 1, 59, 58
2, 24482, Control_c, 1, 64, 0
2, 24483, Note_on_c, 1, 64, 54
2, 24484, Note_on_c, 1, 60, 49
2, 24486, Note_on_c, 1, 45, 51
2, 24528, Control_c, 1, 64, 127
2, 24570, Control_c, 1, 64, 0
2, 24584, Control_c, 1, 64, 127
2, 24597, Note_on_c, 1, 60, 0
2, 24598, Note_on_c, 1, 59, 0
2, 24605, Note_on_c, 1, 64, 0
2, 24676, Note_on_c, 1, 45, 0
2, 24679, Note_on_c, 1, 66, 46
2, 24680, Note_on_c, 1, 60, 59
2, 24680, Note_on_c, 1, 50, 44
2, 24680, Note_on_c, 1, 63, 44
2, 24681, Note_on_c, 1, 69, 50
2, 24713, Note_on_c, 1, 50, 0
2, 24753, Note_on_c, 1, 60, 0
2, 24775, Note_on_c, 1, 69, 0
2, 24776, Note_on_c, 1, 63, 0
2, 24778, Note_on_c, 1, 66, 0
2, 24845, Note_on_c, 1, 64, 51
2, 24845, Note_on_c, 1, 59, 54
2, 24847, Note_on_c, 1, 69, 41
2, 24847, Control_c, 1, 64, 0
2, 24850, Note_on_c, 1, 53, 30
2, 24850, Note_on_c, 1, 43, 43
2, 24897, Control_c, 1, 64, 127
2, 24928, Note_on_c, 1, 64, 0
2, 24967, Note_on_c, 1, 63, 33
2, 24992, Note_on_c, 1, 53, 0
2, 25024, Note_on_c, 1, 59, 0
2, 25030, Note_on_c, 1, 63, 0
2, 25048, Note_on_c, 1, 53, 36
2, 25048, Note_on_c, 1, 62, 54
2, 25048, Note_on_c, 1, 59, 31
2, 25079, Note_on_c, 1, 53, 0
2, 25117, Note_on_c, 1, 59, 0
2, 25117, Note_on_c, 1, 43, 0
2, 25140, Note_on_c, 1, 69, 0
2, 25144, Note_on_c, 1, 62, 0
2, 25198, Control_c, 1, 64, 0
2, 25200, Note_on_c, 1, 55, 39
2, 25202, Note_on_c, 1, 59, 35
2, 25205, Note_on_c, 1, 36, 43
2, 25230, Control_c, 1, 64, 127
2, 25242, Note_on_c, 1, 55, 0
2, 25250, Note_on_c, 1, 59, 0
2, 25320, Control_c, 1, 64, 0
2, 25322, Note_on_c, 1, 59, 47
2, 25323, Note_on_c, 1, 62, 46
2, 25323, Note_on_c, 1, 67, 44
2, 25324, Note_on_c, 1, 64, 46
2, 25418, Note_on_c, 1, 36, 0
2, 25434, Control_c, 1, 64, 127
2, 25437, Note_on_c, 1, 52, 1
2, 25452, Note_on_c, 1, 52, 0
2, 25471, Note_on_c, 1, 59, 0
2, 25477, Note_on_c, 1, 64, 0
2, 25484, Note_on_c, 1, 62, 0
2, 25494, Note_on_c, 1, 67, 0
2, 25547, Control_c, 1, 64, 0
2, 25558, Note_on_c, 1, 62, 44
2, 25558, Note_on_c, 1, 47, 37
2, 25559, Note_on_c, 1, 57, 43
2, 25559, Note_on_c, 1, 66, 36
2, 25560, Note_on_c, 1, 54, 25
2, 25581, Control_c, 1, 64, 127
2, 25622, Note_on_c, 1, 54, 0
2, 25630, Note_on_c, 1, 47, 0
2, 25653, Note_on_c, 1, 57, 0
2, 25699, Note_on_c, 1, 62, 0
2, 25700, Note_on_c, 1, 66, 0
2, 25759, Note_on_c, 1, 40, 45
2, 25759, Note_on_c, 1, 56, 44
2, 25761, Note_on_c, 1, 66, 35
2, 25761, Note_on_c, 1, 62, 49
2, 25764, Note_on_c, 1, 52, 29
2, 25765, Control_c, 1, 64, 0
2, 25775, Control_c, 1, 64, 127
2, 25790, Note_on_c, 1, 40, 0
2, 25808, Note_on_c, 1, 52, 0
2, 25809, Note_on_c, 1, 56, 0
2, 25817, Note_on_c, 1, 62, 0
2, 25824, Note_on_c, 1, 66, 0
2, 25880, Note_on_c, 1, 71, 81
2, 25931, Note_on_c, 1, 64, 49
2, 25934, Note_on_c, 1, 59, 48
2, 25934, Control_c, 1, 64, 0
2, 25934, Note_on_c, 1, 45, 37
2, 25936, Note_on_c, 1, 60, 47
2, 25937, Note_on_c, 1, 55, 35
2, 26042, Control_c, 1, 64, 127
2, 26054, Note_on_c, 1, 60, 0
2, 26056, Note_on_c, 1, 59, 0
2, 26061, Note_on_c, 1, 64, 0
2, 26121, Note_on_c, 1, 64, 45
2, 26124, Note_on_c, 1, 59, 35
2, 26126, Note_on_c, 1, 60, 35
2, 26147, Note_on_c, 1, 45, 0
2, 26168, Note_on_c, 1, 59, 0
2, 26172, Note_on_c, 1, 60, 0
2, 26174, Note_on_c, 1, 55, 0
2, 26234, Note_on_c, 1, 64, 0
2, 26277, Note_on_c, 1, 66, 37
2, 26279, Note_on_c, 1, 60, 49
2, 26279, Control_c, 1, 64, 0
2, 26283, Note_on_c, 1, 64, 33
2, 26285, Note_on_c, 1, 47, 32
2, 26291, Note_on_c, 1, 57, 22
2, 26393, Control_c, 1, 64, 127
2, 26435, Note_on_c, 1, 47, 0
2, 26462, Note_on_c, 1, 57, 0
2, 26470, Note_on_c, 1, 47, 46
2, 26494, Note_on_c, 1, 64, 0
2, 26499, Note_on_c, 1, 60, 0
2, 26537, Note_on_c, 1, 71, 0
2, 26539, Note_on_c, 1, 66, 0
2, 26542, Note_on_c, 1, 47, 0
2, 26644, Control_c, 1, 64, 0
2, 26645, Note_on_c, 1, 64, 42
2, 26647, Note_on_c, 1, 45, 31
2, 26647, Note_on_c, 1, 56, 21
2, 26651, Note_on_c, 1, 61, 37
2, 26651, Note_on_c, 1, 59, 43
2, 26657, Note_on_c, 1, 52, 19
2, 26666, Control_c, 1, 64, 127
2, 26687, Note_on_c, 1, 56, 0
2, 26692, Note_on_c, 1, 59, 0
2, 26696, Note_on_c, 1, 64, 0
2, 26702, Note_on_c, 1, 61, 0
2, 26839, Note_on_c, 1, 76, 91
2, 26858, Note_on_c, 1, 45, 0
2, 26914, Note_on_c, 1, 76, 0
2, 26914, Note_on_c, 1, 52, 0
2, 26958, Note_on_c, 1, 45, 36
2, 26967, Note_on_c, 1, 45, 0
2, 27010, Note_on_c, 1, 68, 53
2, 27012, Note_on_c, 1, 42, 37
2, 27013, Note_on_c, 1, 61, 57
2, 27013, Control_c, 1, 64, 0
2, 27016, Note_on_c, 1, 52, 26
2, 27061, Control_c, 1, 64, 127
2, 27087, Control_c, 1, 64, 0
2, 27123, Control_c, 1, 64, 127
2, 27153, Note_on_c, 1, 61, 0
2, 27154, Note_on_c, 1, 52, 0
2, 27201, Note_on_c, 1, 61, 30
2, 27203, Note_on_c, 1, 64, 45
2, 27204, Note_on_c, 1, 57, 40
2, 27210, Note_on_c, 1, 52, 31
2, 27230, Note_on_c, 1, 42, 0
2, 27251, Note_on_c, 1, 52, 0
2, 27267, Note_on_c, 1, 64, 0
2, 27282, Note_on_c, 1, 57, 0
2, 27317, Note_on_c, 1, 61, 0
2, 27319, Note_on_c, 1, 68, 0
2, 27355, Note_on_c, 1, 68, 68
2, 27356, Note_on_c, 1, 61, 62
2, 27357, Note_on_c, 1, 63, 50
2, 27359, Note_on_c, 1, 57, 34
2, 27360, Note_on_c, 1, 56, 75
2, 27362, Note_on_c, 1, 55, 45
2, 27364, Control_c, 1, 64, 0
2, 27369, Note_on_c, 1, 55, 0
2, 27454, Note_on_c, 1, 57, 0
2, 27479, Note_on_c, 1, 68, 0
2, 27480, Note_on_c, 1, 66, 43
2, 27481, Note_on_c, 1, 56, 0
2, 27481, Note_on_c, 1, 54, 47
2, 27481, Note_on_c, 1, 57, 39
2, 27482, Control_c, 1, 64, 127
2, 27559, Note_on_c, 1, 61, 0
2, 27570, Note_on_c, 1, 57, 0
2, 27598, Note_on_c, 1, 61, 34
2, 27602, Note_on_c, 1, 57, 33
2, 27605, Note_on_c, 1, 54, 0
2, 27652, Note_on_c, 1, 57, 0
2, 27668, Note_on_c, 1, 63, 0
2, 27691, Note_on_c, 1, 61, 0
2, 27693, Note_on_c, 1, 66, 0
2, 27720, Note_on_c, 1, 66, 61
2, 27720, Note_on_c, 1, 59, 68
2, 27721, Note_on_c, 1, 63, 57
2, 27722, Note_on_c, 1, 52, 43
2, 27725, Control_c, 1, 64, 0
2, 27749, Control_c, 1, 64, 127
2, 27775, Note_on_c, 1, 52, 0
2, 27805, Note_on_c, 1, 52, 39
2, 27841, Note_on_c, 1, 63, 0
2, 27843, Note_on_c, 1, 59, 0
2, 27848, Note_on_c, 1, 52, 0
2, 27874, Note_on_c, 1, 66, 0
2, 27897, Note_on_c, 1, 68, 61
2, 27899, Note_on_c, 1, 59, 64
2, 27899, Note_on_c, 1, 64, 61
2, 27900, Note_on_c, 1, 52, 38
2, 27918, Note_on_c, 1, 52, 0
2, 27923, Note_on_c, 1, 59, 0
2, 27930, Note_on_c, 1, 64, 0
2, 27941, Note_on_c, 1, 68, 0
2, 27964, Control_c, 1, 64, 0
2, 27978, Note_on_c, 1, 46, 52
2, 27979, Note_on_c, 1, 64, 61
2, 27980, Note_on_c, 1, 60, 62
2, 27981, Note_on_c, 1, 56, 39
2, 27998, Control_c, 1, 64, 127
2, 28026, Note_on_c, 1, 64, 0
2, 28027, Note_on_c, 1, 56, 0
2, 28037, Note_on_c, 1, 60, 0
2, 28060, Note_on_c, 1, 46, 0
2, 28091, Note_on_c, 1, 56, 51
2, 28093, Note_on_c, 1, 64, 58
2, 28094, Note_on_c, 1, 59, 58
2, 28096, Note_on_c, 1, 61, 43
2, 28096, Note_on_c, 1, 45, 49
2, 28098, Control_c, 1, 64, 0
2, 28100, Note_on_c, 1, 52, 38
2, 28194, Control_c, 1, 64, 127
2, 28230, Note_on_c, 1, 59, 0
2, 28250, Note_on_c, 1, 56, 0
2, 28275, Note_on_c, 1, 61, 0
2, 28311, Note_on_c, 1, 45, 0
2, 28312, Note_on_c, 1, 56, 35
2, 28313, Note_on_c, 1, 59, 49
2, 28339, Note_on_c, 1, 59, 0
2, 28341, Note_on_c, 1, 56, 0
2, 28360, Note_on_c, 1, 64, 0
2, 28379, Note_on_c, 1, 52, 0
2, 28389, Note_on_c, 1, 45, 43
2, 28407, Note_on_c, 1, 45, 0
2, 28431, Control_c, 1, 64, 0
2, 28432, Note_on_c, 1, 44, 60
2, 28434, Note_on_c, 1, 52, 46
2, 28435, Note_on_c, 1, 61, 52
2, 28435, Note_on_c, 1, 59, 64
2, 28435, Note_on_c, 1, 64, 51
2, 28458, Control_c, 1, 64, 127
2, 28495, Note_on_c, 1, 52, 0
2, 28508, Note_on_c, 1, 44, 0
2, 28556, Note_on_c, 1, 59, 0
2, 28569, Note_on_c, 1, 64, 0
2, 28589, Note_on_c, 1, 61, 0
2, 28639, Note_on_c, 1, 56, 32
2, 28640, Note_on_c, 1, 59, 48
2, 28640, Note_on_c, 1, 52, 31
2, 28642, Note_on_c, 1, 44, 34
2, 28645, Note_on_c, 1, 37, 31
2, 28646, Control_c, 1, 64, 0
2, 28680, Control_c, 1, 64, 127
2, 28690, Note_on_c, 1, 37, 0
2, 28691, Note_on_c, 1, 52, 0
2, 28697, Note_on_c, 1, 44, 0
2, 28711, Note_on_c, 1, 59, 0
2, 28722, Note_on_c, 1, 56, 0
2, 28798, Note_on_c, 1, 54, 39
2, 28801, Note_on_c, 1, 42, 39
2, 28801, Note_on_c, 1, 61, 38
2, 28802, Control_c, 1, 64, 0
2, 28803, Note_on_c, 1, 57, 45
2, 28806, Note_on_c, 1, 52, 30
2, 28849, Control_c, 1, 64, 127
2, 28883, Control_c, 1, 64, 0
2, 28907, Control_c, 1, 64, 127
2, 28933, Note_on_c, 1, 57, 0
2, 28936, Note_on_c, 1, 54, 0
2, 28944, Note_on_c, 1, 52, 0
2, 28956, Note_on_c, 1, 61, 0
2, 29076, Note_on_c, 1, 42, 0
2, 29114, Note_on_c, 1, 42, 31
2, 29148, Note_on_c, 1, 42, 0
2, 29159, Control_c, 1, 64, 0
2, 29161, Note_on_c, 1, 66, 36
2, 29161, Note_on_c, 1, 57, 36
2, 29162, Note_on_c, 1, 62, 41
2, 29164, Note_on_c, 1, 52, 34
2, 29214, Control_c, 1, 64, 127
2, 29238, Control_c, 1, 64, 0
2, 29274, Control_c, 1, 64, 127
2, 29284, Note_on_c, 1, 57, 0
2, 29290, Note_on_c, 1, 52, 0
2, 29294, Note_on_c, 1, 62, 0
2, 29299, Note_on_c, 1, 66, 0
2, 29356, Note_on_c, 1, 46, 36
2, 29357, Note_on_c, 1, 60, 55
2, 29357, Note_on_c, 1, 64, 53
2, 29359, Note_on_c, 1, 56, 28
2, 29360, Control_c, 1, 64, 0
2, 29400, Control_c, 1, 64, 127
2, 29428, Note_on_c, 1, 56, 0
2, 29436, Note_on_c, 1, 60, 0
2, 29444, Note_on_c, 1, 64, 0
2, 29445, Note_on_c, 1, 46, 0
2, 29508, Control_c, 1, 64, 0
2, 29518, Note_on_c, 1, 45, 35
2, 29520, Note_on_c, 1, 64, 33
2, 29523, Note_on_c, 1, 52, 28
2, 29526, Note_on_c, 1, 55, 16
2, 29528, Note_on_c, 1, 64, 0
2, 29625, Note_on_c, 1, 55, 0
2, 29634, Note_on_c, 1, 45, 0
2, 29634, Note_on_c, 1, 71, 58
2, 29639, Note_on_c, 1, 59, 36
2, 29639, Note_on_c, 1, 64, 35
2, 29640, Note_on_c, 1, 52, 0
2, 29649, Note_on_c, 1, 59, 0
2, 29653, Note_on_c, 1, 64, 0
2, 29655, Note_on_c, 1, 71, 0
2, 29765, Note_on_c, 1, 64, 47
2, 29772, Note_on_c, 1, 59, 18
2, 29793, Note_on_c, 1, 59, 0
2, 29794, Note_on_c, 1, 64, 0
2, 29837, Note_on_c, 1, 69, 71
2, 29860, Note_on_c, 1, 69, 0
2, 29878, Note_on_c, 1, 40, 43
2, 29959, Note_on_c, 1, 66, 40
2, 29961, Note_on_c, 1, 62, 49
2, 29963, Note_on_c, 1, 57, 24
2, 30000, Note_on_c, 1, 40, 0
2, 30037, Note_on_c, 1, 54, 67
2, 30050, Note_on_c, 1, 57, 0
2, 30106, Note_on_c, 1, 54, 0
2, 30106, Note_on_c, 1, 62, 0
2, 30121, Note_on_c, 1, 55, 63
2, 30181, Note_on_c, 1, 55, 0
2, 30193, Note_on_c, 1, 54, 58
2, 30266, Note_on_c, 1, 54, 0
2, 30279, Note_on_c, 1, 52, 48
2, 30312, Note_on_c, 1, 66, 0
2, 30349, Note_on_c, 1, 52, 0
2, 30353, Note_on_c, 1, 45, 45
2, 30435, Note_on_c, 1, 59, 43
2, 30438, Note_on_c, 1, 60, 58
2, 30438, Note_on_c, 1, 64, 41
2, 30442, Note_on_c, 1, 52, 27
2, 30483, Note_on_c, 1, 45, 0
2, 30523, Note_on_c, 1, 45, 48
2, 30540, Note_on_c, 1, 52, 0
2, 30544, Note_on_c, 1, 45, 0
2, 30553, Note_on_c, 1, 59, 0
2, 30555, Note_on_c, 1, 60, 0
2, 30559, Note_on_c, 1, 45, 51
2, 30574, Note_on_c, 1, 64, 0
2, 30579, Note_on_c, 1, 45, 0
2, 30603, Note_on_c, 1, 66, 36
2, 30604, Note_on_c, 1, 59, 45
2, 30607, Note_on_c, 1, 55, 24
2, 30613, Note_on_c, 1, 40, 31
2, 30689, Note_on_c, 1, 55, 0
2, 30699, Note_on_c, 1, 59, 0
2, 30709, Note_on_c, 1, 66, 0
2, 30714, Note_on_c, 1, 55, 35
2, 30714, Note_on_c, 1, 64, 39
2, 30715, Note_on_c, 1, 59, 33
2, 30718, Note_on_c, 1, 47, 33
2, 30834, Control_c, 1, 64, 127
2, 30836, Note_on_c, 1, 55, 0
2, 30844, Note_on_c, 1, 59, 0
2, 30852, Note_on_c, 1, 64, 0
2, 30885, Note_on_c, 1, 40, 0
2, 30891, Note_on_c, 1, 47, 0
2, 30912, Note_on_c, 1, 71, 77
2, 30945, Control_c, 1, 64, 0
2, 30957, Note_on_c, 1, 45, 50
2, 31007, Note_on_c, 1, 64, 42
2, 31010, Note_on_c, 1, 59, 32
2, 31012, Note_on_c, 1, 60, 33
2, 31052, Note_on_c, 1, 60, 0
2, 31052, Note_on_c, 1, 59, 0
2, 31054, Note_on_c, 1, 64, 0
2, 31088, Note_on_c, 1, 64, 41
2, 31089, Note_on_c, 1, 59, 39
2, 31089, Control_c, 1, 64, 127
2, 31090, Note_on_c, 1, 60, 35
2, 31095, Control_c, 1, 64, 0
2, 31135, Note_on_c, 1, 59, 0
2, 31136, Note_on_c, 1, 60, 0
2, 31138, Note_on_c, 1, 64, 0
2, 31172, Note_on_c, 1, 64, 43
2, 31173, Note_on_c, 1, 60, 36
2, 31173, Note_on_c, 1, 59, 42
2, 31174, Note_on_c, 1, 55, 46
2, 31215, Control_c, 1, 64, 127
2, 31252, Note_on_c, 1, 45, 0
2, 31281, Note_on_c, 1, 64, 0
2, 31285, Note_on_c, 1, 71, 0
2, 31285, Note_on_c, 1, 45, 41
2, 31296, Note_on_c, 1, 59, 0
2, 31305, Note_on_c, 1, 45, 0
2, 31315, Note_on_c, 1, 55, 0
2, 31320, Note_on_c, 1, 60, 0
2, 31326, Control_c, 1, 64, 0
2, 31330, Note_on_c, 1, 54, 51
2, 31399, Note_on_c, 1, 69, 45
2, 31400, Note_on_c, 1, 59, 42
2, 31402, Note_on_c, 1, 62, 54
2, 31403, Note_on_c, 1, 66, 33
2, 31438, Control_c, 1, 64, 127
2, 31464, Control_c, 1, 64, 0
2, 31498, Note_on_c, 1, 54, 0
2, 31505, Note_on_c, 1, 52, 51
2, 31507, Note_on_c, 1, 59, 0
2, 31515, Note_on_c, 1, 62, 0
2, 31521, Note_on_c, 1, 66, 0
2, 31543, Note_on_c, 1, 69, 0
2, 31555, Note_on_c, 1, 59, 45
2, 31558, Note_on_c, 1, 62, 37
2, 31559, Note_on_c, 1, 67, 40
2, 31622, Note_on_c, 1, 59, 0
2, 31625, Note_on_c, 1, 62, 0
2, 31633, Note_on_c, 1, 45, 47
2, 31636, Control_c, 1, 64, 127
2, 31637, Note_on_c, 1, 67, 0
2, 31650, Note_on_c, 1, 52, 0
2, 31660, Control_c, 1, 64, 0
2, 31674, Note_on_c, 1, 64, 57
2, 31678, Note_on_c, 1, 59, 42
2, 31680, Note_on_c, 1, 60, 53
2, 31680, Note_on_c, 1, 55, 47
2, 31739, Note_on_c, 1, 45, 0
2, 31790, Note_on_c, 1, 45, 42
2, 31803, Control_c, 1, 64, 127
2, 31806, Note_on_c, 1, 55, 0
2, 31814, Note_on_c, 1, 60, 0
2, 31839, Note_on_c, 1, 59, 0
2, 31865, Note_on_c, 1, 64, 0
2, 31877, Note_on_c, 1, 66, 51
2, 31878, Note_on_c, 1, 62, 55
2, 31879, Note_on_c, 1, 50, 33
2, 31880, Note_on_c, 1, 45, 0
2, 31880, Note_on_c, 1, 57, 37
2, 31883, Control_c, 1, 64, 0
2, 31917, Control_c, 1, 64, 127
2, 31976, Note_on_c, 1, 57, 0
2, 31989, Note_on_c, 1, 62, 0
2, 31991, Note_on_c, 1, 66, 0
2, 31994, Note_on_c, 1, 43, 47
2, 32004, Note_on_c, 1, 50, 0
2, 32034, Control_c, 1, 64, 0
2, 32038, Note_on_c, 1, 53, 41
2, 32039, Note_on_c, 1, 65, 57
2, 32039, Note_on_c, 1, 60, 62
2, 32040, Note_on_c, 1, 69, 58
2, 32152, Control_c, 1, 64, 127
2, 32176, Note_on_c, 1, 60, 0
2, 32182, Note_on_c, 1, 53, 0
2, 32198, Note_on_c, 1, 65, 0
2, 32218, Note_on_c, 1, 69, 0
2, 32233, Note_on_c, 1, 67, 56
2, 32235, Note_on_c, 1, 63, 46
2, 32237, Note_on_c, 1, 59, 52
2, 32238, Note_on_c, 1, 53, 40
2, 32244, Control_c, 1, 64, 0
2, 32295, Note_on_c, 1, 43, 0
2, 32295, Control_c, 1, 64, 127
2, 32342, Note_on_c, 1, 59, 0
2, 32352, Note_on_c, 1, 53, 0
2, 32354, Note_on_c, 1, 43, 29
2, 32366, Note_on_c, 1, 67, 0
2, 32375, Note_on_c, 1, 63, 0
2, 32389, Note_on_c, 1, 43, 0
2, 32407, Note_on_c, 1, 57, 41
2, 32408, Note_on_c, 1, 62, 40
2, 32408, Note_on_c, 1, 67, 58
2, 32409, Control_c, 1, 64, 0
2, 32409, Note_on_c, 1, 52, 29
2, 32409, Note_on_c, 1, 64, 39
2, 32519, Control_c, 1, 64, 127
2, 32546, Note_on_c, 1, 57, 0
2, 32547, Note_on_c, 1, 62, 0
2, 32587, Note_on_c, 1, 52, 0
2, 32597, Note_on_c, 1, 62, 42
2, 32598, Note_on_c, 1, 57, 37
2, 32600, Note_on_c, 1, 48, 34
2, 32620, Note_on_c, 1, 48, 0
2, 32660, Note_on_c, 1, 57, 0
2, 32663, Note_on_c, 1, 67, 0
2, 32710, Note_on_c, 1, 62, 0
2, 32718, Note_on_c, 1, 64, 0
2, 32744, Control_c, 1, 64, 0
2, 32755, Note_on_c, 1, 66, 37
2, 32758, Note_on_c, 1, 62, 43
2, 32759, Note_on_c, 1, 47, 34
2, 32761, Note_on_c, 1, 57, 32
2, 32770, Control_c, 1, 64, 127
2, 32795, Note_on_c, 1, 62, 0
2, 32801, Note_on_c, 1, 66, 0
2, 32841, Note_on_c, 1, 74, 80
2, 32850, Note_on_c, 1, 47, 0
2, 32860, Note_on_c, 1, 57, 0
2, 32896, Note_on_c, 1, 74, 0
2, 32951, Note_on_c, 1, 79, 73
2, 32956, Note_on_c, 1, 56, 51
2, 32957, Note_on_c, 1, 76, 65
2, 32958, Note_on_c, 1, 72, 70
2, 32960, Note_on_c, 1, 62, 53
2, 32960, Control_c, 1, 64, 0
2, 32962, Note_on_c, 1, 67, 67
2, 32992, Control_c, 1, 64, 127
2, 33029, Note_on_c, 1, 79, 0
2, 33030, Note_on_c, 1, 76, 0
2, 33032, Note_on_c, 1, 67, 0
2, 33039, Note_on_c, 1, 62, 0
2, 33041, Note_on_c, 1, 77, 68
2, 33050, Note_on_c, 1, 56, 0
2, 33053, Note_on_c, 1, 72, 0
2, 33066, Note_on_c, 1, 77, 0
2, 33122, Note_on_c, 1, 71, 57
2, 33125, Note_on_c, 1, 45, 48
2, 33125, Note_on_c, 1, 64, 53
2, 33127, Control_c, 1, 64, 0
2, 33185, Control_c, 1, 64, 127
2, 33192, Note_on_c, 1, 64, 0
2, 33206, Note_on_c, 1, 67, 54
2, 33207, Note_on_c, 1, 64, 20
2, 33209, Control_c, 1, 64, 0
2, 33210, Note_on_c, 1, 71, 0
2, 33214, Note_on_c, 1, 59, 42
2, 33216, Note_on_c, 1, 60, 34
2, 33217, Note_on_c, 1, 52, 24
2, 33247, Control_c, 1, 64, 127
2, 33270, Note_on_c, 1, 64, 0
2, 33276, Note_on_c, 1, 60, 0
2, 33277, Note_on_c, 1, 59, 0
2, 33302, Note_on_c, 1, 64, 54
2, 33341, Note_on_c, 1, 64, 0
2, 33369, Note_on_c, 1, 67, 0
2, 33375, Note_on_c, 1, 64, 50
2, 33406, Note_on_c, 1, 45, 0
2, 33437, Note_on_c, 1, 64, 0
2, 33482, Note_on_c, 1, 52, 0
2, 33487, Note_on_c, 1, 47, 42
2, 33488, Control_c, 1, 64, 0
2, 33489, Note_on_c, 1, 60, 55
2, 33489, Note_on_c, 1, 66, 47
2, 33490, Note_on_c, 1, 64, 53
2, 33493, Note_on_c, 1, 57, 36
2, 33534, Control_c, 1, 64, 127
2, 33542, Control_c, 1, 64, 0
2, 33596, Control_c, 1, 64, 127
2, 33615, Note_on_c, 1, 57, 0
2, 33616, Note_on_c, 1, 60, 0
2, 33623, Note_on_c, 1, 64, 0
2, 33665, Note_on_c, 1, 66, 0
2, 33767, Note_on_c, 1, 74, 68
2, 33771, Note_on_c, 1, 67, 66
2, 33774, Note_on_c, 1, 57, 36
2, 33775, Note_on_c, 1, 63, 42
2, 33786, Note_on_c, 1, 57, 0
2, 33796, Note_on_c, 1, 74, 0
2, 33797, Note_on_c, 1, 67, 0
2, 33798, Note_on_c, 1, 47, 0
2, 33802, Note_on_c, 1, 63, 0
2, 33806, Note_on_c, 1, 73, 19
2, 33832, Note_on_c, 1, 73, 0
2, 33845, Control_c, 1, 64, 0
2, 33850, Note_on_c, 1, 45, 36
2, 33854, Note_on_c, 1, 68, 51
2, 33855, Note_on_c, 1, 64, 58
2, 33893, Control_c, 1, 64, 127
2, 33924, Note_on_c, 1, 52, 47
2, 33926, Note_on_c, 1, 68, 0
2, 33937, Note_on_c, 1, 64, 0
2, 34038, Note_on_c, 1, 61, 59
2, 34039, Note_on_c, 1, 57, 41
2, 34040, Note_on_c, 1, 64, 64
2, 34043, Control_c, 1, 64, 0
2, 34059, Control_c, 1, 64, 127
2, 34067, Note_on_c, 1, 45, 0
2, 34070, Note_on_c, 1, 57, 0
2, 34093, Note_on_c, 1, 52, 0
2, 34132, Note_on_c, 1, 64, 0
2, 34149, Note_on_c, 1, 61, 0
2, 34160, Note_on_c, 1, 42, 56
2, 34179, Note_on_c, 1, 42, 0
2, 34203, Note_on_c, 1, 61, 75
2, 34203, Note_on_c, 1, 68, 70
2, 34205, Note_on_c, 1, 57, 68
2, 34208, Control_c, 1, 64, 0
2, 34217, Note_on_c, 1, 56, 63
2, 34302, Note_on_c, 1, 56, 0
2, 34315, Note_on_c, 1, 54, 62
2, 34367, Note_on_c, 1, 57, 0
2, 34375, Note_on_c, 1, 61, 0
2, 34436, Control_c, 1, 64, 127
2, 34437, Note_on_c, 1, 61, 46
2, 34439, Note_on_c, 1, 57, 41
2, 34453, Note_on_c, 1, 54, 0
2, 34516, Note_on_c, 1, 57, 0
2, 34519, Note_on_c, 1, 54, 46
2, 34535, Note_on_c, 1, 61, 0
2, 34546, Note_on_c, 1, 54, 0
2, 34562, Note_on_c, 1, 61, 44
2, 34564, Note_on_c, 1, 57, 54
2, 34567, Note_on_c, 1, 63, 38
2, 34569, Note_on_c, 1, 66, 30
2, 34573, Control_c, 1, 64, 0
2, 34637, Note_on_c, 1, 56, 77
2, 34638, Note_on_c, 1, 57, 0
2, 34660, Note_on_c, 1, 61, 0
2, 34665, Note_on_c, 1, 63, 0
2, 34679, Note_on_c, 1, 61, 25
2, 34682, Note_on_c, 1, 63, 14
2, 34684, Note_on_c, 1, 57, 30
2, 34731, Control_c, 1, 64, 127
2, 34744, Note_on_c, 1, 57, 0
2, 34751, Note_on_c, 1, 61, 0
2, 34755, Note_on_c, 1, 63, 0
2, 34757, Note_on_c, 1, 54, 60
2, 34763, Control_c, 1, 64, 0
2, 34765, Note_on_c, 1, 56, 0
2, 34787, Note_on_c, 1, 66, 0
2, 34803, Note_on_c, 1, 61, 40
2, 34804, Note_on_c, 1, 57, 40
2, 34809, Note_on_c, 1, 63, 27
2, 34853, Note_on_c, 1, 57, 0
2, 34874, Control_c, 1, 64, 127
2, 34878, Note_on_c, 1, 51, 51
2, 34880, Note_on_c, 1, 63, 0
2, 34882, Note_on_c, 1, 54, 0
2, 34885, Note_on_c, 1, 61, 0
2, 34908, Note_on_c, 1, 51, 0
2, 34914, Note_on_c, 1, 68, 0
2, 34916, Control_c, 1, 64, 0
2, 34919, Note_on_c, 1, 59, 56
2, 34921, Note_on_c, 1, 66, 34
2, 34923, Note_on_c, 1, 63, 29
2, 34924, Note_on_c, 1, 52, 41
2, 34964, Control_c, 1, 64, 127
2, 34998, Note_on_c, 1, 59, 0
2, 35017, Note_on_c, 1, 63, 0
2, 35021, Note_on_c, 1, 66, 0
2, 35025, Note_on_c, 1, 52, 0
2, 35043, Note_on_c, 1, 62, 63
2, 35044, Note_on_c, 1, 66, 45
2, 35045, Note_on_c, 1, 58, 37
2, 35046, Note_on_c, 1, 52, 44
2, 35046, Control_c, 1, 64, 0
2, 35072, Control_c, 1, 64, 127
2, 35095, Note_on_c, 1, 62, 0
2, 35104, Note_on_c, 1, 66, 0
2, 35105, Note_on_c, 1, 58, 0
2, 35107, Note_on_c, 1, 52, 0
2, 35156, Control_c, 1, 64, 0
2, 35160, Note_on_c, 1, 46, 62
2, 35160, Note_on_c, 1, 64, 74
2, 35162, Note_on_c, 1, 56, 60
2, 35163, Note_on_c, 1, 60, 72
2, 35196, Control_c, 1, 64, 127
2, 35220, Note_on_c, 1, 56, 0
2, 35222, Note_on_c, 1, 60, 0
2, 35224, Note_on_c, 1, 64, 0
2, 35250, Note_on_c, 1, 46, 0
2, 35279, Note_on_c, 1, 56, 56
2, 35281, Note_on_c, 1, 45, 52
2, 35281, Note_on_c, 1, 64, 58
2, 35283, Note_on_c, 1, 59, 57
2, 35283, Note_on_c, 1, 52, 46
2, 35285, Control_c, 1, 64, 0
2, 35285, Note_on_c, 1, 61, 37
2, 35367, Note_on_c, 1, 59, 0
2, 35377, Note_on_c, 1, 56, 0
2, 35382, Note_on_c, 1, 61, 0
2, 35399, Control_c, 1, 64, 127
2, 35405, Note_on_c, 1, 56, 34
2, 35409, Note_on_c, 1, 61, 25
2, 35413, Note_on_c, 1, 59, 36
2, 35475, Note_on_c, 1, 59, 0
2, 35480, Note_on_c, 1, 56, 0
2, 35481, Note_on_c, 1, 61, 0
2, 35522, Note_on_c, 1, 64, 0
2, 35524, Note_on_c, 1, 45, 0
2, 35595, Note_on_c, 1, 45, 56
2, 35614, Note_on_c, 1, 45, 0
2, 35623, Note_on_c, 1, 52, 0
2, 35630, Control_c, 1, 64, 0
2, 35639, Note_on_c, 1, 44, 51
2, 35716, Note_on_c, 1, 68, 40
2, 35717, Note_on_c, 1, 59, 53
2, 35719, Note_on_c, 1, 52, 30
2, 35720, Note_on_c, 1, 64, 50
2, 35758, Control_c, 1, 64, 127
2, 35860, Note_on_c, 1, 52, 0
2, 35864, Note_on_c, 1, 44, 0
2, 35864, Control_c, 1, 64, 0
2, 35870, Note_on_c, 1, 59, 0
2, 35878, Note_on_c, 1, 49, 36
2, 35889, Control_c, 1, 64, 127
2, 35932, Note_on_c, 1, 49, 0
2, 35944, Note_on_c, 1, 64, 0
2, 35951, Note_on_c, 1, 42, 40
2, 35975, Note_on_c, 1, 68, 0
2, 35979, Control_c, 1, 64, 0
2, 35988, Note_on_c, 1, 42, 0
2, 35993, Note_on_c, 1, 61, 43
2, 35993, Note_on_c, 1, 52, 36
2, 35995, Note_on_c, 1, 57, 39
2, 36008, Note_on_c, 1, 64, 24
2, 36031, Control_c, 1, 64, 127
2, 36063, Note_on_c, 1, 64, 0
2, 36064, Note_on_c, 1, 57, 0
2, 36069, Note_on_c, 1, 61, 0
2, 36076, Note_on_c, 1, 52, 0
2, 36081, Control_c, 1, 64, 0
2, 36082, Note_on_c, 1, 42, 51
2, 36083, Note_on_c, 1, 61, 50
2, 36084, Note_on_c, 1, 57, 46
2, 36086, Note_on_c, 1, 64, 51
2, 36089, Note_on_c, 1, 52, 22
2, 36093, Note_on_c, 1, 57, 0
2, 36099, Note_on_c, 1, 64, 0
2, 36099, Note_on_c, 1, 61, 0
2, 36101, Note_on_c, 1, 42, 0
2, 36103, Note_on_c, 1, 52, 0
2, 36141, Control_c, 1, 64, 127
2, 36199, Control_c, 1, 64, 0
2, 36201, Note_on_c, 1, 57, 57
2, 36204, Note_on_c, 1, 47, 28
2, 36207, Note_on_c, 1, 46, 25
2, 36214, Note_on_c, 1, 46, 0
2, 36224, Note_on_c, 1, 57, 0
2, 36232, Note_on_c, 1, 47, 0
2, 36319, Note_on_c, 1, 40, 58
2, 36347, Note_on_c, 1, 40, 0
2, 36362, Note_on_c, 1, 57, 40
2, 36363, Note_on_c, 1, 66, 37
2, 36364, Note_on_c, 1, 52, 34
2, 36365, Note_on_c, 1, 62, 47
2, 36370, Control_c, 1, 64, 127
2, 36416, Note_on_c, 1, 52, 0
2, 36419, Note_on_c, 1, 57, 0
2, 36422, Note_on_c, 1, 66, 0
2, 36422, Note_on_c, 1, 62, 0
2, 36436, Note_on_c, 1, 52, 44
2, 36439, Note_on_c, 1, 57, 50
2, 36440, Note_on_c, 1, 66, 57
2, 36440, Note_on_c, 1, 62, 68
2, 36461, Note_on_c, 1, 52, 0
2, 36467, Note_on_c, 1, 57, 0
2, 36469, Note_on_c, 1, 66, 0
2, 36469, Note_on_c, 1, 62, 0
2, 36488, Note_on_c, 1, 66, 48
2, 36489, Note_on_c, 1, 62, 53
2, 36490, Note_on_c, 1, 52, 43
2, 36491, Note_on_c, 1, 57, 40
2, 36506, Note_on_c, 1, 52, 0
2, 36508, Note_on_c, 1, 57, 0
2, 36511, Note_on_c, 1, 66, 0
2, 36512, Note_on_c, 1, 62, 0
2, 36561, Note_on_c, 1, 66, 64
2, 36562, Note_on_c, 1, 52, 22
2, 36562, Note_on_c, 1, 62, 70
2, 36563, Note_on_c, 1, 57, 57
2, 36569, Note_on_c, 1, 52, 0
2, 36576, Note_on_c, 1, 57, 0
2, 36579, Note_on_c, 1, 62, 0
2, 36592, Note_on_c, 1, 66, 0
2, 36600, Control_c, 1, 64, 0
2, 36606, Note_on_c, 1, 46, 52
2, 36608, Note_on_c, 1, 67, 69
2, 36608, Note_on_c, 1, 56, 55
2, 36608, Note_on_c, 1, 60, 72
2, 36610, Note_on_c, 1, 64, 65
2, 36631, Control_c, 1, 64, 127
2, 36654, Note_on_c, 1, 56, 0
2, 36659, Note_on_c, 1, 64, 0
2, 36660, Note_on_c, 1, 60, 0
2, 36671, Note_on_c, 1, 46, 0
2, 36677, Note_on_c, 1, 67, 0
2, 36711, Control_c, 1, 64, 0
2, 36719, Note_on_c, 1, 64, 68
2, 36722, Note_on_c, 1, 60, 69
2, 36723, Note_on_c, 1, 59, 66
2, 36724, Note_on_c, 1, 45, 51
2, 36727, Note_on_c, 1, 55, 41
2, 36727, Note_on_c, 1, 52, 41
2, 36735, Control_c, 1, 64, 127
2, 36738, Note_on_c, 1, 59, 0
2, 36739, Note_on_c, 1, 45, 0
2, 36739, Note_on_c, 1, 60, 0
2, 36742, Note_on_c, 1, 52, 0
2, 36742, Note_on_c, 1, 55, 0
2, 36758, Note_on_c, 1, 64, 0
2, 36840, Note_on_c, 1, 83, 74
2, 36840, Note_on_c, 1, 64, 37
2, 36841, Note_on_c, 1, 71, 71
2, 36841, Note_on_c, 1, 60, 49
2, 36843, Note_on_c, 1, 59, 43
2, 36857, Note_on_c, 1, 71, 0
2, 36868, Note_on_c, 1, 83, 0
2, 36923, Note_on_c, 1, 88, 71
2, 36923, Note_on_c, 1, 76, 60
2, 36934, Note_on_c, 1, 76, 0
2, 36940, Note_on_c, 1, 88, 0
2, 36985, Note_on_c, 1, 64, 0
2, 36998, Note_on_c, 1, 60, 0
2, 36999, Note_on_c, 1, 59, 0
2, 37006, Note_on_c, 1, 95, 66
2, 37008, Note_on_c, 1, 83, 55
2, 37027, Note_on_c, 1, 95, 0
2, 37034, Note_on_c, 1, 83, 0
2, 37084, Note_on_c, 1, 90, 49
2, 37084, Control_c, 1, 64, 0
2, 37084, Note_on_c, 1, 93, 64
2, 37085, Note_on_c, 1, 52, 48
2, 37085, Note_on_c, 1, 86, 61
2, 37086, Note_on_c, 1, 81, 40
2, 37110, Control_c, 1, 64, 127
2, 37127, Note_on_c, 1, 93, 0
2, 37134, Note_on_c, 1, 86, 0
2, 37138, Note_on_c, 1, 90, 0
2, 37153, Note_on_c, 1, 81, 0
2, 37167, Note_on_c, 1, 59, 46
2, 37254, Note_on_c, 1, 81, 68
2, 37255, Note_on_c, 1, 74, 75
2, 37258, Note_on_c, 1, 64, 40
2, 37273, Note_on_c, 1, 74, 0
2, 37275, Note_on_c, 1, 81, 0
2, 37286, Note_on_c, 1, 64, 0
2, 37288, Note_on_c, 1, 78, 51
2, 37291, Note_on_c, 1, 69, 50
2, 37308, Note_on_c, 1, 69, 0
2, 37317, Note_on_c, 1, 78, 0
2, 37331, Note_on_c, 1, 81, 64
2, 37331, Note_on_c, 1, 64, 36
2, 37333, Note_on_c, 1, 74, 66
2, 37346, Note_on_c, 1, 64, 0
2, 37351, Note_on_c, 1, 59, 0
2, 37354, Note_on_c, 1, 81, 0
2, 37359, Note_on_c, 1, 52, 0
2, 37361, Note_on_c, 1, 74, 0
2, 37368, Note_on_c, 1, 78, 36
2, 37372, Note_on_c, 1, 69, 36
2, 37384, Note_on_c, 1, 69, 0
2, 37396, Note_on_c, 1, 78, 0
2, 37405, Control_c, 1, 64, 0
2, 37412, Note_on_c, 1, 45, 56
2, 37419, Control_c, 1, 64, 127
2, 37425, Note_on_c, 1, 45, 0
2, 37492, Note_on_c, 1, 83, 60
2, 37496, Note_on_c, 1, 76, 53
2, 37505, Note_on_c, 1, 60, 29
2, 37513, Note_on_c, 1, 76, 0
2, 37515, Note_on_c, 1, 83, 0
2, 37516, Note_on_c, 1, 60, 0
2, 37530, Note_on_c, 1, 71, 39
2, 37533, Note_on_c, 1, 79, 47
2, 37550, Note_on_c, 1, 71, 0
2, 37554, Note_on_c, 1, 79, 0
2, 37571, Note_on_c, 1, 83, 61
2, 37575, Note_on_c, 1, 76, 55
2, 37576, Note_on_c, 1, 60, 38
2, 37576, Note_on_c, 1, 64, 24
2, 37580, Note_on_c, 1, 59, 25
2, 37594, Note_on_c, 1, 76, 0
2, 37599, Note_on_c, 1, 83, 0
2, 37603, Note_on_c, 1, 59, 0
2, 37610, Note_on_c, 1, 60, 0
2, 37614, Note_on_c, 1, 71, 31
2, 37614, Note_on_c, 1, 79, 41
2, 37615, Note_on_c, 1, 64, 0
2, 37625, Note_on_c, 1, 71, 0
2, 37632, Note_on_c, 1, 79, 0
2, 37647, Note_on_c, 1, 83, 60
2, 37648, Note_on_c, 1, 79, 39
2, 37650, Note_on_c, 1, 76, 64
2, 37650, Note_on_c, 1, 64, 34
2, 37658, Note_on_c, 1, 60, 24
2, 37669, Note_on_c, 1, 60, 0
2, 37670, Note_on_c, 1, 64, 0
2, 37673, Note_on_c, 1, 79, 0
2, 37674, Note_on_c, 1, 76, 0
2, 37679, Note_on_c, 1, 83, 0
2, 37735, Note_on_c, 1, 81, 62
2, 37737, Note_on_c, 1, 74, 51
2, 37737, Note_on_c, 1, 59, 32
2, 37739, Note_on_c, 1, 69, 49
2, 37754, Note_on_c, 1, 74, 0
2, 37757, Note_on_c, 1, 69, 0
2, 37760, Note_on_c, 1, 81, 0
2, 37767, Note_on_c, 1, 59, 0
2, 37774, Note_on_c, 1, 78, 36
2, 37788, Control_c, 1, 64, 0
2, 37793, Note_on_c, 1, 52, 35
2, 37796, Note_on_c, 1, 78, 0
2, 37812, Control_c, 1, 64, 127
2, 37812, Note_on_c, 1, 81, 60
2, 37815, Note_on_c, 1, 74, 43
2, 37819, Note_on_c, 1, 69, 35
2, 37833, Note_on_c, 1, 69, 0
2, 37834, Note_on_c, 1, 74, 0
2, 37845, Note_on_c, 1, 81, 0
2, 37852, Note_on_c, 1, 78, 33
2, 37869, Note_on_c, 1, 78, 0
2, 37882, Control_c, 1, 64, 0
2, 37883, Note_on_c, 1, 81, 66
2, 37885, Note_on_c, 1, 74, 62
2, 37887, Note_on_c, 1, 69, 47
2, 37888, Note_on_c, 1, 78, 27
2, 37892, Note_on_c, 1, 59, 35
2, 37910, Control_c, 1, 64, 127
2, 37921, Note_on_c, 1, 74, 0
2, 37921, Note_on_c, 1, 81, 0
2, 37922, Note_on_c, 1, 78, 0
2, 37932, Note_on_c, 1, 69, 0
2, 37945, Note_on_c, 1, 59, 0
2, 37995, Note_on_c, 1, 78, 44
2, 37997, Note_on_c, 1, 66, 56
2, 37998, Note_on_c, 1, 74, 62
2, 38003, Note_on_c, 1, 59, 40
2, 38021, Note_on_c, 1, 66, 0
2, 38026, Note_on_c, 1, 74, 0
2, 38026, Note_on_c, 1, 78, 0
2, 38027, Note_on_c, 1, 52, 0
2, 38092, Note_on_c, 1, 59, 0
2, 38113, Note_on_c, 1, 52, 44
2, 38122, Note_on_c, 1, 52, 0
2, 38160, Note_on_c, 1, 64, 50
2, 38163, Note_on_c, 1, 71, 52
2, 38163, Control_c, 1, 64, 0
2, 38165, Note_on_c, 1, 45, 45
2, 38169, Note_on_c, 1, 60, 24
2, 38170, Note_on_c, 1, 59, 20
2, 38193, Control_c, 1, 64, 127
2, 38225, Note_on_c, 1, 59, 0
2, 38227, Note_on_c, 1, 60, 0
2, 38238, Note_on_c, 1, 64, 0
2, 38275, Note_on_c, 1, 59, 38
2, 38275, Note_on_c, 1, 67, 39
2, 38276, Note_on_c, 1, 64, 34
2, 38276, Note_on_c, 1, 60, 38
2, 38278, Note_on_c, 1, 55, 35
2, 38382, Note_on_c, 1, 60, 0
2, 38384, Note_on_c, 1, 67, 0
2, 38386, Note_on_c, 1, 59, 0
2, 38387, Note_on_c, 1, 64, 0
2, 38387, Note_on_c, 1, 55, 0
2, 38389, Note_on_c, 1, 71, 0
2, 38400, Note_on_c, 1, 45, 0
2, 38477, Note_on_c, 1, 47, 35
2, 38486, Note_on_c, 1, 47, 0
2, 38518, Control_c, 1, 64, 0
2, 38518, Note_on_c, 1, 59, 66
2, 38518, Note_on_c, 1, 67, 71
2, 38520, Note_on_c, 1, 62, 58
2, 38520, Note_on_c, 1, 52, 49
2, 38521, Note_on_c, 1, 66, 34
2, 38562, Control_c, 1, 64, 127
2, 38598, Note_on_c, 1, 40, 53
2, 38608, Control_c, 1, 64, 0
2, 38610, Note_on_c, 1, 62, 0
2, 38622, Control_c, 1, 64, 127
2, 38628, Note_on_c, 1, 52, 0
2, 38628, Note_on_c, 1, 67, 0
2, 38637, Note_on_c, 1, 66, 0
2, 38638, Note_on_c, 1, 59, 0
2, 38718, Note_on_c, 1, 66, 62
2, 38721, Note_on_c, 1, 55, 69
2, 38721, Note_on_c, 1, 59, 73
2, 38722, Note_on_c, 1, 62, 71
2, 38722, Note_on_c, 1, 52, 56
2, 38724, Control_c, 1, 64, 0
2, 38755, Control_c, 1, 64, 127
2, 38763, Note_on_c, 1, 40, 0
2, 38797, Note_on_c, 1, 52, 0
2, 38803, Note_on_c, 1, 59, 0
2, 38804, Note_on_c, 1, 55, 0
2, 38825, Note_on_c, 1, 66, 0
2, 38842, Note_on_c, 1, 62, 0
2, 38883, Control_c, 1, 64, 0
2, 38883, Note_on_c, 1, 59, 80
2, 38883, Note_on_c, 1, 64, 57
2, 38884, Note_on_c, 1, 60, 73
2, 38886, Note_on_c, 1, 55, 56
2, 38886, Note_on_c, 1, 45, 51
2, 38909, Control_c, 1, 64, 127
2, 38996, Note_on_c, 1, 59, 0
2, 39006, Note_on_c, 1, 60, 0
2, 39007, Note_on_c, 1, 55, 0
2, 39011, Note_on_c, 1, 64, 0
2, 39078, Note_on_c, 1, 69, 71
2, 39079, Note_on_c, 1, 60, 71
2, 39080, Note_on_c, 1, 64, 64
2, 39081, Control_c, 1, 64, 0
2, 39082, Note_on_c, 1, 55, 46
2, 39112, Control_c, 1, 64, 127
2, 39142, Note_on_c, 1, 45, 0
2, 39144, Note_on_c, 1, 55, 0
2, 39160, Note_on_c, 1, 60, 0
2, 39170, Note_on_c, 1, 64, 0
2, 39188, Note_on_c, 1, 69, 0
2, 39242, Control_c, 1, 64, 0
2, 39243, Note_on_c, 1, 69, 51
2, 39243, Note_on_c, 1, 57, 50
2, 39245, Note_on_c, 1, 53, 37
2, 39248, Note_on_c, 1, 43, 37
2, 39259, Note_on_c, 1, 64, 46
2, 39296, Control_c, 1, 64, 127
2, 39305, Note_on_c, 1, 64, 0
2, 39324, Note_on_c, 1, 63, 51
2, 39338, Control_c, 1, 64, 0
2, 39357, Note_on_c, 1, 63, 0
2, 39371, Note_on_c, 1, 62, 43
2, 39378, Control_c, 1, 64, 127
2, 39390, Note_on_c, 1, 69, 0
2, 39405, Note_on_c, 1, 43, 0
2, 39425, Note_on_c, 1, 62, 0
2, 39434, Note_on_c, 1, 57, 0
2, 39441, Note_on_c, 1, 43, 43
2, 39457, Note_on_c, 1, 53, 0
2, 39480, Control_c, 1, 64, 0
2, 39483, Note_on_c, 1, 59, 39
2, 39484, Note_on_c, 1, 62, 39
2, 39484, Note_on_c, 1, 56, 28
2, 39485, Note_on_c, 1, 53, 47
2, 39486, Note_on_c, 1, 65, 33
2, 39513, Note_on_c, 1, 53, 0
2, 39529, Control_c, 1, 64, 127
2, 39537, Note_on_c, 1, 43, 0
2, 39547, Note_on_c, 1, 59, 0
2, 39556, Note_on_c, 1, 56, 0
2, 39559, Note_on_c, 1, 47, 33
2, 39565, Note_on_c, 1, 62, 0
2, 39571, Note_on_c, 1, 65, 0
2, 39587, Control_c, 1, 64, 0
2, 39589, Note_on_c, 1, 47, 0
2, 39601, Note_on_c, 1, 64, 43
2, 39602, Note_on_c, 1, 55, 44
2, 39603, Note_on_c, 1, 59, 37
2, 39604, Note_on_c, 1, 48, 36
2, 39625, Control_c, 1, 64, 127
2, 39662, Note_on_c, 1, 55, 0
2, 39667, Note_on_c, 1, 59, 0
2, 39672, Note_on_c, 1, 36, 55
2, 39694, Note_on_c, 1, 36, 0
2, 39696, Note_on_c, 1, 48, 0
2, 39700, Note_on_c, 1, 64, 0
2, 39833, Note_on_c, 1, 67, 66
2, 39853, Note_on_c, 1, 67, 0
2, 39909, Note_on_c, 1, 74, 76
2, 39954, Note_on_c, 1, 74, 0
2, 39962, Note_on_c, 1, 71, 60
2, 39966, Note_on_c, 1, 66, 40
2, 39966, Note_on_c, 1, 62, 46
2, 39966, Note_on_c, 1, 47, 32
2, 39968, Control_c, 1, 64, 0
2, 39968, Note_on_c, 1, 57, 31
2, 39996, Control_c, 1, 64, 127
2, 40024, Note_on_c, 1, 47, 0
2, 40035, Note_on_c, 1, 62, 0
2, 40037, Note_on_c, 1, 57, 0
2, 40051, Note_on_c, 1, 66, 0
2, 40057, Note_on_c, 1, 71, 0
2, 40142, Note_on_c, 1, 79, 75
2, 40145, Note_on_c, 1, 56, 46
2, 40145, Note_on_c, 1, 72, 79
2, 40146, Note_on_c, 1, 62, 48
2, 40146, Control_c, 1, 64, 0
2, 40146, Note_on_c, 1, 67, 62
2, 40168, Control_c, 1, 64, 127
2, 40203, Note_on_c, 1, 67, 0
2, 40207, Note_on_c, 1, 62, 0
2, 40211, Note_on_c, 1, 72, 0
2, 40215, Note_on_c, 1, 79, 0
2, 40227, Note_on_c, 1, 76, 71
2, 40228, Note_on_c, 1, 56, 0
2, 40250, Note_on_c, 1, 76, 0
2, 40313, Note_on_c, 1, 71, 61
2, 40316, Note_on_c, 1, 64, 56
2, 40317, Control_c, 1, 64, 0
2, 40318, Note_on_c, 1, 45, 44
2, 40319, Note_on_c, 1, 55, 46
2, 40349, Control_c, 1, 64, 127
2, 40381, Note_on_c, 1, 64, 0
2, 40400, Note_on_c, 1, 71, 0
2, 40402, Note_on_c, 1, 55, 0
2, 40404, Note_on_c, 1, 67, 50
2, 40407, Note_on_c, 1, 64, 45
2, 40409, Control_c, 1, 64, 0
2, 40409, Note_on_c, 1, 59, 44
2, 40415, Note_on_c, 1, 52, 22
2, 40431, Control_c, 1, 64, 127
2, 40500, Note_on_c, 1, 64, 0
2, 40511, Note_on_c, 1, 59, 0
2, 40518, Note_on_c, 1, 71, 1
2, 40577, Note_on_c, 1, 45, 0
2, 40593, Note_on_c, 1, 52, 0
2, 40617, Note_on_c, 1, 67, 0
2, 40628, Note_on_c, 1, 64, 45
2, 40650, Note_on_c, 1, 71, 0
2, 40653, Note_on_c, 1, 64, 0
2, 40680, Note_on_c, 1, 66, 50
2, 40681, Note_on_c, 1, 47, 33
2, 40682, Note_on_c, 1, 60, 40
2, 40684, Note_on_c, 1, 64, 36
2, 40686, Note_on_c, 1, 57, 32
2, 40688, Control_c, 1, 64, 0
2, 40708, Control_c, 1, 64, 127
2, 40760, Control_c, 1, 64, 0
2, 40774, Control_c, 1, 64, 127
2, 40783, Note_on_c, 1, 57, 0
2, 40784, Note_on_c, 1, 60, 0
2, 40787, Note_on_c, 1, 64, 0
2, 40798, Note_on_c, 1, 66, 0
2, 40869, Note_on_c, 1, 74, 71
2, 40872, Note_on_c, 1, 67, 72
2, 40873, Control_c, 1, 64, 0
2, 40874, Note_on_c, 1, 51, 34
2, 40875, Note_on_c, 1, 63, 50
2, 40877, Note_on_c, 1, 71, 33
2, 40877, Note_on_c, 1, 57, 29
2, 40905, Control_c, 1, 64, 127
2, 40927, Note_on_c, 1, 71, 0
2, 40936, Note_on_c, 1, 74, 0
2, 40952, Note_on_c, 1, 72, 59
2, 40965, Note_on_c, 1, 47, 0
2, 40971, Note_on_c, 1, 67, 0
2, 40972, Note_on_c, 1, 51, 0
2, 40973, Note_on_c, 1, 57, 0
2, 40984, Note_on_c, 1, 63, 0
2, 40993, Note_on_c, 1, 72, 0
2, 41033, Control_c, 1, 64, 0
2, 41038, Note_on_c, 1, 45, 52
2, 41039, Note_on_c, 1, 73, 47
2, 41053, Control_c, 1, 64, 127
2, 41057, Note_on_c, 1, 45, 0
2, 41161, Note_on_c, 1, 61, 29
2, 41162, Note_on_c, 1, 64, 31
2, 41163, Note_on_c, 1, 54, 28
2, 41169, Note_on_c, 1, 59, 24
2, 41251, Note_on_c, 1, 54, 0
2, 41262, Note_on_c, 1, 59, 0
2, 41264, Note_on_c, 1, 64, 0
2, 41267, Note_on_c, 1, 61, 0
2, 41391, Note_on_c, 1, 73, 0
2, 41400, Note_on_c, 1, 30, 48
2, 41402, Control_c, 1, 64, 0
2, 41412, Control_c, 1, 64, 127
2, 41414, Note_on_c, 1, 30, 0
2, 41522, Note_on_c, 1, 68, 52
2, 41523, Note_on_c, 1, 57, 57
2, 41523, Note_on_c, 1, 61, 51
2, 41525, Note_on_c, 1, 64, 47
2, 41530, Note_on_c, 1, 56, 46
2, 41533, Note_on_c, 1, 57, 0
2, 41534, Control_c, 1, 64, 0
2, 41535, Note_on_c, 1, 64, 0
2, 41536, Note_on_c, 1, 61, 0
2, 41540, Note_on_c, 1, 56, 0
2, 41541, Note_on_c, 1, 68, 0
2, 41600, Note_on_c, 1, 54, 32
2, 41633, Control_c, 1, 64, 127
2, 41634, Note_on_c, 1, 54, 0
2, 41637, Note_on_c, 1, 61, 39
2, 41638, Note_on_c, 1, 56, 34
2, 41639, Note_on_c, 1, 68, 39
2, 41640, Note_on_c, 1, 57, 43
2, 41640, Note_on_c, 1, 64, 51
2, 41666, Note_on_c, 1, 56, 0
2, 41723, Note_on_c, 1, 57, 0
2, 41725, Note_on_c, 1, 64, 0
2, 41738, Note_on_c, 1, 68, 0
2, 41739, Note_on_c, 1, 61, 0
2, 41755, Note_on_c, 1, 68, 56
2, 41755, Control_c, 1, 64, 0
2, 41756, Note_on_c, 1, 61, 45
2, 41757, Note_on_c, 1, 57, 58
2, 41758, Note_on_c, 1, 63, 47
2, 41759, Note_on_c, 1, 47, 44
2, 41803, Control_c, 1, 64, 127
2, 41852, Note_on_c, 1, 57, 0
2, 41859, Note_on_c, 1, 61, 0
2, 41864, Note_on_c, 1, 63, 0
2, 41871, Note_on_c, 1, 68, 0
2, 41871, Control_c, 1, 64, 0
2, 41877, Note_on_c, 1, 66, 51
2, 41877, Note_on_c, 1, 61, 37
2, 41879, Note_on_c, 1, 57, 54
2, 41881, Note_on_c, 1, 63, 43
2, 41881, Note_on_c, 1, 56, 34
2, 41887, Control_c, 1, 64, 127
2, 41978, Note_on_c, 1, 57, 0
2, 41987, Note_on_c, 1, 47, 0
2, 41994, Note_on_c, 1, 56, 0
2, 42002, Note_on_c, 1, 57, 35
2, 42042, Note_on_c, 1, 57, 0
2, 42058, Note_on_c, 1, 66, 0
2, 42062, Note_on_c, 1, 61, 0
2, 42063, Note_on_c, 1, 63, 0
2, 42076, Note_on_c, 1, 59, 63
2, 42076, Note_on_c, 1, 66, 51
2, 42078, Control_c, 1, 64, 0
2, 42078, Note_on_c, 1, 63, 54
2, 42085, Note_on_c, 1, 52, 72
2, 42106, Note_on_c, 1, 59, 0
2, 42111, Note_on_c, 1, 63, 0
2, 42118, Note_on_c, 1, 66, 0
2, 42146, Note_on_c, 1, 66, 47
2, 42148, Note_on_c, 1, 59, 49
2, 42149, Note_on_c, 1, 63, 38
2, 42163, Note_on_c, 1, 59, 0
2, 42170, Note_on_c, 1, 63, 0
2, 42171, Note_on_c, 1, 66, 0
2, 42228, Control_c, 1, 64, 127
2, 42229, Note_on_c, 1, 66, 55
2, 42230, Note_on_c, 1, 63, 42
2, 42232, Note_on_c, 1, 59, 53
2, 42241, Note_on_c, 1, 59, 0
2, 42248, Note_on_c, 1, 63, 0
2, 42259, Note_on_c, 1, 66, 0
2, 42288, Note_on_c, 1, 52, 0
2, 42306, Control_c, 1, 64, 0
2, 42312, Note_on_c, 1, 52, 45
2, 42313, Note_on_c, 1, 64, 61
2, 42313, Note_on_c, 1, 68, 57
2, 42313, Note_on_c, 1, 59, 68
2, 42327, Control_c, 1, 64, 127
2, 42332, Note_on_c, 1, 59, 0
2, 42339, Note_on_c, 1, 64, 0
2, 42347, Note_on_c, 1, 52, 0
2, 42348, Note_on_c, 1, 68, 0
2, 42381, Control_c, 1, 64, 0
2, 42394, Note_on_c, 1, 46, 52
2, 42395, Note_on_c, 1, 67, 58
2, 42395, Note_on_c, 1, 56, 38
2, 42395, Note_on_c, 1, 64, 57
2, 42396, Note_on_c, 1, 60, 64
2, 42413, Control_c, 1, 64, 127
2, 42434, Note_on_c, 1, 64, 0
2, 42438, Note_on_c, 1, 60, 0
2, 42445, Note_on_c, 1, 56, 0
2, 42446, Note_on_c, 1, 67, 0
2, 42467, Note_on_c, 1, 46, 0
2, 42487, Control_c, 1, 64, 0
2, 42487, Note_on_c, 1, 64, 64
2, 42488, Note_on_c, 1, 61, 48
2, 42489, Note_on_c, 1, 59, 55
2, 42490, Note_on_c, 1, 45, 42
2, 42492, Note_on_c, 1, 55, 40
2, 42593, Control_c, 1, 64, 127
2, 42595, Note_on_c, 1, 55, 0
2, 42602, Note_on_c, 1, 59, 0
2, 42640, Note_on_c, 1, 64, 0
2, 42646, Note_on_c, 1, 45, 0
2, 42647, Note_on_c, 1, 61, 0
2, 42667, Note_on_c, 1, 45, 47
2, 42740, Note_on_c, 1, 45, 0
2, 42763, Note_on_c, 1, 56, 61
2, 42764, Note_on_c, 1, 61, 52
2, 42765, Note_on_c, 1, 45, 41
2, 42765, Note_on_c, 1, 64, 52
2, 42771, Note_on_c, 1, 59, 30
2, 42776, Control_c, 1, 64, 0
2, 42778, Note_on_c, 1, 59, 0
2, 42778, Note_on_c, 1, 45, 0
2, 42779, Note_on_c, 1, 56, 0
2, 42786, Note_on_c, 1, 64, 0
2, 42787, Note_on_c, 1, 61, 0
2, 42800, Note_on_c, 1, 61, 50
2, 42802, Note_on_c, 1, 56, 29
2, 42803, Note_on_c, 1, 45, 40
2, 42807, Note_on_c, 1, 64, 24
2, 42815, Note_on_c, 1, 45, 0
2, 42816, Note_on_c, 1, 56, 0
2, 42825, Note_on_c, 1, 61, 0
2, 42826, Note_on_c, 1, 64, 0
2, 42847, Note_on_c, 1, 44, 57
2, 42847, Note_on_c, 1, 56, 42
2, 42848, Note_on_c, 1, 59, 55
2, 42849, Note_on_c, 1, 64, 43
2, 42878, Control_c, 1, 64, 127
2, 42948, Note_on_c, 1, 44, 0
2, 42949, Note_on_c, 1, 56, 0
2, 42949, Note_on_c, 1, 64, 0
2, 42953, Note_on_c, 1, 59, 0
2, 43038, Note_on_c, 1, 59, 62
2, 43038, Note_on_c, 1, 64, 60
2, 43039, Note_on_c, 1, 37, 50
2, 43039, Control_c, 1, 64, 0
2, 43043, Note_on_c, 1, 52, 31
2, 43061, Control_c, 1, 64, 127
2, 43076, Note_on_c, 1, 37, 0
2, 43083, Note_on_c, 1, 52, 0
2, 43106, Note_on_c, 1, 59, 0
2, 43107, Note_on_c, 1, 64, 0
2, 43157, Note_on_c, 1, 42, 55
2, 43158, Note_on_c, 1, 68, 74
2, 43159, Note_on_c, 1, 61, 80
2, 43160, Note_on_c, 1, 52, 44
2, 43162, Note_on_c, 1, 57, 70
2, 43167, Control_c, 1, 64, 0
2, 43205, Control_c, 1, 64, 127
2, 43292, Note_on_c, 1, 57, 0
2, 43307, Note_on_c, 1, 42, 0
2, 43308, Note_on_c, 1, 61, 0
2, 43316, Note_on_c, 1, 61, 32
2, 43317, Note_on_c, 1, 66, 50
2, 43320, Note_on_c, 1, 57, 50
2, 43341, Note_on_c, 1, 52, 0
2, 43352, Note_on_c, 1, 57, 0
2, 43392, Note_on_c, 1, 61, 0
2, 43437, Note_on_c, 1, 68, 0
2, 43437, Note_on_c, 1, 60, 40
2, 43438, Note_on_c, 1, 63, 35
2, 43438, Control_c, 1, 64, 0
2, 43438, Note_on_c, 1, 47, 32
2, 43440, Note_on_c, 1, 57, 28
2, 43455, Note_on_c, 1, 57, 0
2, 43468, Control_c, 1, 64, 127
2, 43493, Note_on_c, 1, 47, 0
2, 43494, Note_on_c, 1, 60, 0
2, 43503, Note_on_c, 1, 66, 0
2, 43514, Note_on_c, 1, 51, 45
2, 43519, Note_on_c, 1, 63, 0
2, 43546, Note_on_c, 1, 51, 0
2, 43557, Note_on_c, 1, 66, 46
2, 43558, Note_on_c, 1, 57, 50
2, 43559, Note_on_c, 1, 62, 52
2, 43563, Note_on_c, 1, 52, 31
2, 43566, Control_c, 1, 64, 0
2, 43586, Control_c, 1, 64, 127
2, 43635, Note_on_c, 1, 40, 52
2, 43659, Note_on_c, 1, 40, 0
2, 43676, Note_on_c, 1, 52, 0
2, 43688, Note_on_c, 1, 57, 0
2, 43743, Note_on_c, 1, 62, 0
2, 43794, Note_on_c, 1, 66, 0
2, 43803, Note_on_c, 1, 60, 34
2, 43803, Control_c, 1, 64, 0
2, 43804, Note_on_c, 1, 64, 36
2, 43805, Note_on_c, 1, 46, 29
2, 43805, Note_on_c, 1, 56, 27
2, 43823, Control_c, 1, 64, 127
2, 43841, Note_on_c, 1, 56, 0
2, 43852, Note_on_c, 1, 60, 0
2, 43855, Note_on_c, 1, 64, 0
2, 43856, Note_on_c, 1, 46, 0
2, 43907, Control_c, 1, 64, 0
2, 43929, Note_on_c, 1, 45, 46
2, 43994, Note_on_c, 1, 45, 0
2, 43999, Note_on_c, 1, 59, 51
2, 44003, Note_on_c, 1, 60, 32
2, 44004, Note_on_c, 1, 64, 24
2, 44007, Note_on_c, 1, 59, 0
2, 44009, Note_on_c, 1, 60, 0
2, 44012, Note_on_c, 1, 64, 0
2, 44109, Note_on_c, 1, 45, 46
2, 44129, Note_on_c, 1, 45, 0
2, 44154, Note_on_c, 1, 60, 53
2, 44155, Note_on_c, 1, 59, 40
2, 44156, Note_on_c, 1, 64, 40
2, 44160, Note_on_c, 1, 60, 0
2, 44163, Note_on_c, 1, 59, 0
2, 44166, Note_on_c, 1, 64, 0
2, 44230, Note_on_c, 1, 47, 52
2, 44246, Note_on_c, 1, 47, 0
2, 44275, Note_on_c, 1, 66, 54
2, 44276, Note_on_c, 1, 40, 51
2, 44279, Note_on_c, 1, 62, 46
2, 44282, Note_on_c, 1, 57, 24
2, 44423, Note_on_c, 1, 40, 0
2, 44580, Control_c, 1, 64, 127
2, 44590, Control_c, 1, 64, 0
2, 44633, Note_on_c, 1, 57, 0
2, 44633, Note_on_c, 1, 45, 60
2, 44639, Note_on_c, 1, 62, 0
2, 44646, Note_on_c, 1, 66, 0
2, 44709, Note_on_c, 1, 59, 62
2, 44709, Note_on_c, 1, 64, 66
2, 44711, Note_on_c, 1, 60, 57
2, 44716, Note_on_c, 1, 59, 0
2, 44717, Note_on_c, 1, 60, 0
2, 44721, Note_on_c, 1, 64, 0
2, 44799, Control_c, 1, 64, 127
2, 44815, Control_c, 1, 64, 0
2, 44827, Note_on_c, 1, 64, 63
2, 44831, Note_on_c, 1, 60, 50
2, 44832, Note_on_c, 1, 59, 47
2, 44873, Control_c, 1, 64, 127
2, 44888, Note_on_c, 1, 45, 0
2, 44934, Note_on_c, 1, 64, 0
2, 44934, Note_on_c, 1, 60, 0
2, 44947, Note_on_c, 1, 59, 0
2, 44953, Note_on_c, 1, 45, 34
2, 44977, Note_on_c, 1, 45, 0
2, 44995, Note_on_c, 1, 40, 62
2, 44996, Note_on_c, 1, 62, 82
2, 44997, Control_c, 1, 64, 0
2, 44998, Note_on_c, 1, 57, 77
2, 44998, Note_on_c, 1, 66, 60
2, 44998, Note_on_c, 1, 69, 79
2, 45107, Control_c, 1, 64, 127
2, 45117, Note_on_c, 1, 57, 0
2, 45143, Note_on_c, 1, 62, 0
2, 45146, Note_on_c, 1, 66, 0
2, 45152, Note_on_c, 1, 69, 0
2, 45197, Note_on_c, 1, 62, 64
2, 45197, Note_on_c, 1, 67, 64
2, 45198, Note_on_c, 1, 59, 71
2, 45199, Note_on_c, 1, 66, 49
2, 45204, Note_on_c, 1, 52, 43
2, 45239, Note_on_c, 1, 40, 0
2, 45316, Note_on_c, 1, 67, 0
2, 45317, Note_on_c, 1, 47, 48
2, 45319, Note_on_c, 1, 52, 0
2, 45323, Note_on_c, 1, 62, 0
2, 45332, Note_on_c, 1, 59, 0
2, 45334, Note_on_c, 1, 66, 0
2, 45354, Note_on_c, 1, 47, 0
2, 45358, Control_c, 1, 64, 0
2, 45363, Note_on_c, 1, 45, 43
2, 45364, Note_on_c, 1, 64, 60
2, 45365, Note_on_c, 1, 60, 57
2, 45365, Note_on_c, 1, 59, 55
2, 45373, Note_on_c, 1, 59, 0
2, 45373, Note_on_c, 1, 60, 0
2, 45380, Note_on_c, 1, 64, 0
2, 45435, Note_on_c, 1, 59, 60
2, 45435, Note_on_c, 1, 64, 56
2, 45437, Note_on_c, 1, 60, 50
2, 45442, Note_on_c, 1, 59, 0
2, 45444, Note_on_c, 1, 60, 0
2, 45449, Note_on_c, 1, 64, 0
2, 45490, Note_on_c, 1, 59, 47
2, 45490, Note_on_c, 1, 64, 47
2, 45491, Note_on_c, 1, 60, 44
2, 45498, Note_on_c, 1, 59, 0
2, 45499, Note_on_c, 1, 60, 0
2, 45501, Note_on_c, 1, 64, 0
2, 45552, Note_on_c, 1, 59, 51
2, 45552, Note_on_c, 1, 64, 43
2, 45553, Note_on_c, 1, 60, 46
2, 45560, Note_on_c, 1, 59, 0
2, 45561, Note_on_c, 1, 60, 0
2, 45564, Note_on_c, 1, 64, 0
2, 45587, Note_on_c, 1, 45, 0
2, 45606, Note_on_c, 1, 60, 57
2, 45606, Note_on_c, 1, 64, 52
2, 45607, Note_on_c, 1, 59, 55
2, 45613, Note_on_c, 1, 59, 0
2, 45614, Note_on_c, 1, 60, 0
2, 45616, Note_on_c, 1, 64, 0
2, 45666, Note_on_c, 1, 64, 62
2, 45667, Note_on_c, 1, 60, 56
2, 45667, Note_on_c, 1, 45, 49
2, 45668, Note_on_c, 1, 59, 53
2, 45675, Note_on_c, 1, 59, 0
2, 45675, Note_on_c, 1, 60, 0
2, 45677, Note_on_c, 1, 45, 0
2, 45678, Note_on_c, 1, 64, 0
2, 45719, Note_on_c, 1, 64, 68
2, 45721, Note_on_c, 1, 59, 66
2, 45721, Note_on_c, 1, 40, 59
2, 45722, Note_on_c, 1, 60, 57
2, 45729, Note_on_c, 1, 60, 0
2, 45736, Note_on_c, 1, 59, 0
2, 45747, Note_on_c, 1, 64, 0
2, 45756, Note_on_c, 1, 62, 64
2, 45758, Note_on_c, 1, 66, 45
2, 45762, Note_on_c, 1, 57, 63
2, 45824, Note_on_c, 1, 57, 0
2, 45827, Note_on_c, 1, 66, 0
2, 45830, Note_on_c, 1, 62, 0
2, 45847, Note_on_c, 1, 62, 64
2, 45847, Note_on_c, 1, 66, 57
2, 45848, Note_on_c, 1, 57, 60
2, 45900, Control_c, 1, 64, 127
2, 45947, Note_on_c, 1, 40, 0
2, 45962, Note_on_c, 1, 57, 0
2, 45985, Note_on_c, 1, 62, 0
2, 46002, Note_on_c, 1, 66, 0
2, 46070, Control_c, 1, 64, 0
2, 46077, Note_on_c, 1, 67, 70
2, 46079, Note_on_c, 1, 45, 40
2, 46080, Note_on_c, 1, 64, 64
2, 46081, Note_on_c, 1, 60, 71
2, 46082, Note_on_c, 1, 59, 65
2, 46083, Note_on_c, 1, 55, 50
2, 46112, Control_c, 1, 64, 127
2, 46125, Note_on_c, 1, 59, 0
2, 46130, Note_on_c, 1, 60, 0
2, 46136, Note_on_c, 1, 67, 0
2, 46141, Note_on_c, 1, 64, 0
2, 46165, Note_on_c, 1, 71, 89
2, 46192, Note_on_c, 1, 45, 0
2, 46208, Note_on_c, 1, 55, 0
2, 46376, Note_on_c, 1, 71, 0
2, 46393, Note_on_c, 1, 69, 73
2, 46412, Note_on_c, 1, 69, 0
2, 46461, Control_c, 1, 64, 0
2, 46461, Note_on_c, 1, 43, 36
2, 46462, Note_on_c, 1, 60, 57
2, 46462, Note_on_c, 1, 69, 57
2, 46462, Note_on_c, 1, 65, 51
2, 46464, Note_on_c, 1, 53, 47
2, 46518, Control_c, 1, 64, 127
2, 46570, Note_on_c, 1, 60, 0
2, 46573, Note_on_c, 1, 65, 0
2, 46586, Note_on_c, 1, 53, 0
2, 46589, Note_on_c, 1, 69, 0
2, 46638, Note_on_c, 1, 68, 52
2, 46639, Note_on_c, 1, 64, 52
2, 46640, Note_on_c, 1, 59, 55
2, 46640, Control_c, 1, 64, 0
2, 46643, Note_on_c, 1, 53, 41
2, 46688, Control_c, 1, 64, 127
2, 46725, Note_on_c, 1, 64, 0
2, 46734, Note_on_c, 1, 68, 0
2, 46739, Note_on_c, 1, 59, 0
2, 46744, Note_on_c, 1, 53, 0
2, 46798, Note_on_c, 1, 67, 60
2, 46800, Note_on_c, 1, 62, 57
2, 46801, Note_on_c, 1, 52, 38
2, 46803, Note_on_c, 1, 57, 51
2, 46804, Control_c, 1, 64, 0
2, 46806, Note_on_c, 1, 43, 0
2, 46915, Control_c, 1, 64, 127
2, 47050, Note_on_c, 1, 52, 0
2, 47054, Note_on_c, 1, 57, 0
2, 47077, Note_on_c, 1, 62, 0
2, 47081, Note_on_c, 1, 67, 0
2, 47141, Control_c, 1, 64, 0
2, 47154, Note_on_c, 1, 47, 43
2, 47154, Note_on_c, 1, 66, 39
2, 47156, Note_on_c, 1, 62, 55
2, 47169, Control_c, 1, 64, 127
2, 47177, Note_on_c, 1, 47, 0
2, 47186, Note_on_c, 1, 62, 0
2, 47196, Note_on_c, 1, 66, 0
2, 47278, Note_on_c, 1, 79, 74
2, 47323, Note_on_c, 1, 79, 0
2, 47358, Note_on_c, 1, 76, 71
2, 47359, Note_on_c, 1, 67, 66
2, 47360, Note_on_c, 1, 72, 57
2, 47363, Note_on_c, 1, 62, 45
2, 47364, Note_on_c, 1, 56, 39
2, 47364, Control_c, 1, 64, 0
2, 47396, Control_c, 1, 64, 127
2, 47428, Note_on_c, 1, 62, 0
2, 47432, Note_on_c, 1, 72, 0
2, 47436, Note_on_c, 1, 76, 0
2, 47437, Note_on_c, 1, 56, 0
2, 47445, Note_on_c, 1, 67, 0
2, 47514, Control_c, 1, 64, 0
2, 47519, Note_on_c, 1, 45, 32
2, 47520, Note_on_c, 1, 71, 62
2, 47524, Note_on_c, 1, 55, 30
2, 47525, Note_on_c, 1, 64, 49
2, 47580, Note_on_c, 1, 64, 0
2, 47595, Note_on_c, 1, 71, 0
2, 47602, Note_on_c, 1, 67, 44
2, 47605, Note_on_c, 1, 64, 46
2, 47606, Note_on_c, 1, 59, 40
2, 47637, Control_c, 1, 64, 127
2, 47677, Note_on_c, 1, 45, 0
2, 47702, Note_on_c, 1, 59, 0
2, 47712, Note_on_c, 1, 55, 0
2, 47774, Note_on_c, 1, 67, 0
2, 47807, Note_on_c, 1, 64, 0
2, 47877, Control_c, 1, 64, 0
2, 47881, Note_on_c, 1, 66, 64
2, 47882, Note_on_c, 1, 64, 66
2, 47882, Note_on_c, 1, 60, 63
2, 47886, Note_on_c, 1, 47, 47
2, 47888, Note_on_c, 1, 57, 40
2, 47927, Control_c, 1, 64, 127
2, 47945, Note_on_c, 1, 64, 0
2, 47966, Note_on_c, 1, 64, 54
2, 48013, Note_on_c, 1, 57, 0
2, 48036, Note_on_c, 1, 60, 0
2, 48052, Note_on_c, 1, 64, 0
2, 48165, Note_on_c, 1, 47, 0
2, 48190, Note_on_c, 1, 66, 0
2, 48192, Note_on_c, 1, 63, 37
2, 48213, Note_on_c, 1, 63, 0
2, 48252, Control_c, 1, 64, 0
2, 48253, Note_on_c, 1, 59, 55
2, 48254, Note_on_c, 1, 61, 39
2, 48257, Note_on_c, 1, 64, 55
2, 48258, Note_on_c, 1, 45, 44
2, 48291, Control_c, 1, 64, 127
2, 48319, Note_on_c, 1, 59, 0
2, 48326, Note_on_c, 1, 45, 0
2, 48333, Note_on_c, 1, 64, 0
2, 48333, Note_on_c, 1, 61, 0
2, 48443, Note_on_c, 1, 76, 74
2, 48447, Note_on_c, 1, 73, 51
2, 48450, Note_on_c, 1, 68, 55
2, 48454, Note_on_c, 1, 64, 30
2, 48456, Note_on_c, 1, 61, 28
2, 48497, Note_on_c, 1, 64, 0
2, 48501, Note_on_c, 1, 61, 0
2, 48524, Note_on_c, 1, 76, 0
2, 48530, Note_on_c, 1, 68, 0
2, 48533, Note_on_c, 1, 73, 0
2, 48612, Note_on_c, 1, 68, 59
2, 48614, Note_on_c, 1, 42, 35
2, 48614, Note_on_c, 1, 61, 53
2, 48618, Note_on_c, 1, 52, 33
2, 48619, Control_c, 1, 64, 0
2, 48670, Control_c, 1, 64, 127
2, 48690, Note_on_c, 1, 64, 54
2, 48692, Note_on_c, 1, 68, 0
2, 48692, Note_on_c, 1, 57, 32
2, 48781, Note_on_c, 1, 61, 0
2, 48785, Note_on_c, 1, 52, 0
2, 48786, Note_on_c, 1, 57, 0
2, 48820, Note_on_c, 1, 42, 0
2, 48847, Note_on_c, 1, 61, 39
2, 48849, Note_on_c, 1, 64, 0
2, 48852, Note_on_c, 1, 57, 33
2, 48892, Note_on_c, 1, 57, 0
2, 48911, Note_on_c, 1, 61, 0
2, 48960, Note_on_c, 1, 68, 74
2, 48960, Note_on_c, 1, 61, 74
2, 48960, Control_c, 1, 64, 0
2, 48961, Note_on_c, 1, 56, 69
2, 48961, Note_on_c, 1, 57, 75
2, 48962, Note_on_c, 1, 63, 48
2, 48968, Note_on_c, 1, 57, 0
2, 48969, Note_on_c, 1, 63, 0
2, 48973, Note_on_c, 1, 56, 0
2, 48973, Note_on_c, 1, 61, 0
2, 48976, Note_on_c, 1, 68, 0
2, 49038, Note_on_c, 1, 47, 47
2, 49076, Note_on_c, 1, 61, 45
2, 49076, Note_on_c, 1, 66, 46
2, 49077, Note_on_c, 1, 57, 51
2, 49080, Note_on_c, 1, 63, 37
2, 49185, Control_c, 1, 64, 127
2, 49229, Note_on_c, 1, 47, 0
2, 49260, Note_on_c, 1, 57, 0
2, 49280, Note_on_c, 1, 47, 31
2, 49308, Note_on_c, 1, 63, 0
2, 49312, Note_on_c, 1, 61, 0
2, 49312, Note_on_c, 1, 66, 0
2, 49314, Note_on_c, 1, 47, 0
2, 49325, Control_c, 1, 64, 0
2, 49402, Note_on_c, 1, 66, 63
2, 49403, Note_on_c, 1, 63, 65
2, 49405, Note_on_c, 1, 59, 72
2, 49406, Note_on_c, 1, 52, 60
2, 49438, Control_c, 1, 64, 127
2, 49467, Note_on_c, 1, 59, 0
2, 49480, Note_on_c, 1, 52, 0
2, 49486, Note_on_c, 1, 63, 0
2, 49499, Note_on_c, 1, 66, 0
2, 49520, Note_on_c, 1, 68, 61
2, 49521, Note_on_c, 1, 64, 71
2, 49522, Note_on_c, 1, 59, 71
2, 49522, Note_on_c, 1, 52, 66
2, 49524, Control_c, 1, 64, 0
2, 49558, Note_on_c, 1, 59, 0
2, 49569, Note_on_c, 1, 64, 0
2, 49574, Note_on_c, 1, 68, 0
2, 49577, Note_on_c, 1, 52, 0
2, 49578, Control_c, 1, 64, 127
2, 49598, Control_c, 1, 64, 0
2, 49617, Note_on_c, 1, 64, 62
2, 49617, Note_on_c, 1, 67, 61
2, 49617, Note_on_c, 1, 60, 66
2, 49618, Note_on_c, 1, 56, 53
2, 49621, Note_on_c, 1, 46, 38
2, 49631, Note_on_c, 1, 56, 0
2, 49636, Note_on_c, 1, 46, 0
2, 49638, Note_on_c, 1, 64, 0
2, 49640, Note_on_c, 1, 60, 0
2, 49640, Note_on_c, 1, 67, 0
2, 49664, Control_c, 1, 64, 127
2, 49681, Control_c, 1, 64, 0
2, 49694, Note_on_c, 1, 61, 55
2, 49698, Note_on_c, 1, 64, 49
2, 49699, Note_on_c, 1, 45, 40
2, 49799, Note_on_c, 1, 56, 42
2, 49801, Control_c, 1, 64, 127
2, 49898, Note_on_c, 1, 56, 0
2, 49922, Note_on_c, 1, 56, 27
2, 49923, Note_on_c, 1, 45, 0
2, 49962, Note_on_c, 1, 64, 0
2, 49965, Note_on_c, 1, 56, 0
2, 49997, Note_on_c, 1, 61, 0
2, 49999, Note_on_c, 1, 45, 45
2, 50015, Note_on_c, 1, 45, 0
2, 50033, Control_c, 1, 64, 0
2, 50039, Note_on_c, 1, 44, 44
2, 50041, Note_on_c, 1, 59, 66
2, 50041, Note_on_c, 1, 64, 66
2, 50044, Note_on_c, 1, 68, 33
2, 50064, Control_c, 1, 64, 127
2, 50083, Note_on_c, 1, 44, 0
2, 50171, Note_on_c, 1, 64, 0
2, 50180, Note_on_c, 1, 59, 0
2, 50241, Note_on_c, 1, 59, 57
2, 50243, Note_on_c, 1, 37, 42
2, 50246, Control_c, 1, 64, 0
2, 50266, Control_c, 1, 64, 127
2, 50289, Note_on_c, 1, 37, 0
2, 50346, Note_on_c, 1, 59, 0
2, 50379, Note_on_c, 1, 68, 0
2, 50400, Note_on_c, 1, 61, 69
2, 50402, Note_on_c, 1, 42, 46
2, 50404, Control_c, 1, 64, 0
2, 50404, Note_on_c, 1, 57, 61
2, 50406, Note_on_c, 1, 52, 34
2, 50449, Control_c, 1, 64, 127
2, 50514, Note_on_c, 1, 42, 0
2, 50522, Note_on_c, 1, 57, 0
2, 50529, Note_on_c, 1, 52, 0
2, 50586, Note_on_c, 1, 61, 0
2, 50721, Note_on_c, 1, 40, 24
2, 50757, Control_c, 1, 64, 0
2, 50761, Note_on_c, 1, 66, 58
2, 50762, Note_on_c, 1, 57, 62
2, 50762, Note_on_c, 1, 52, 53
2, 50763, Note_on_c, 1, 62, 63
2, 50794, Control_c, 1, 64, 127
2, 50795, Note_on_c, 1, 40, 0
2, 50870, Note_on_c, 1, 62, 0
2, 50886, Note_on_c, 1, 66, 0
2, 50907, Note_on_c, 1, 57, 0
2, 50924, Note_on_c, 1, 52, 0
2, 50960, Control_c, 1, 64, 0
2, 50961, Note_on_c, 1, 60, 71
2, 50961, Note_on_c, 1, 64, 62
2, 50964, Note_on_c, 1, 46, 45
2, 50996, Control_c, 1, 64, 127
2, 51047, Note_on_c, 1, 60, 0
2, 51059, Note_on_c, 1, 64, 0
2, 51113, Note_on_c, 1, 46, 0
2, 51120, Control_c, 1, 64, 0
2, 51130, Note_on_c, 1, 56, 69
2, 51130, Note_on_c, 1, 61, 61
2, 51130, Note_on_c, 1, 64, 69
2, 51131, Note_on_c, 1, 59, 75
2, 51133, Note_on_c, 1, 45, 57
2, 51169, Control_c, 1, 64, 127
2, 51235, Note_on_c, 1, 45, 0
2, 51327, Note_on_c, 1, 45, 91
2, 51422, Note_on_c, 1, 59, 0
2, 51433, Note_on_c, 1, 61, 0
2, 51435, Note_on_c, 1, 56, 0
2, 51444, Note_on_c, 1, 64, 0
2, 51480, Note_on_c, 1, 45, 0
2, 51483, Note_on_c, 1, 44, 64
2, 51485, Control_c, 1, 64, 0
2, 51486, Note_on_c, 1, 56, 59
2, 51486, Note_on_c, 1, 61, 60
2, 51486, Note_on_c, 1, 64, 61
2, 51590, Control_c, 1, 64, 127
2, 51625, Note_on_c, 1, 56, 0
2, 51636, Note_on_c, 1, 44, 0
2, 51672, Note_on_c, 1, 44, 71
2, 51680, Control_c, 1, 64, 0
2, 51708, Control_c, 1, 64, 127
2, 51728, Note_on_c, 1, 64, 0
2, 51744, Note_on_c, 1, 61, 0
2, 51828, Note_on_c, 1, 44, 0
2, 51841, Control_c, 1, 64, 0
2, 51841, Note_on_c, 1, 42, 60
2, 51842, Note_on_c, 1, 64, 78
2, 51842, Note_on_c, 1, 61, 75
2, 51842, Note_on_c, 1, 57, 81
2, 51875, Control_c, 1, 64, 127
2, 51960, Note_on_c, 1, 64, 0
2, 51962, Note_on_c, 1, 57, 0
2, 51964, Note_on_c, 1, 61, 0
2, 52079, Note_on_c, 1, 42, 0
2, 52081, Note_on_c, 1, 71, 60
2, 52083, Note_on_c, 1, 66, 49
2, 52084, Note_on_c, 1, 64, 58
2, 52113, Note_on_c, 1, 71, 0
2, 52116, Note_on_c, 1, 64, 0
2, 52121, Note_on_c, 1, 66, 0
2, 52194, Control_c, 1, 64, 0
2, 52204, Note_on_c, 1, 66, 35
2, 52204, Note_on_c, 1, 62, 60
2, 52205, Note_on_c, 1, 69, 56
2, 52207, Note_on_c, 1, 40, 55
2, 52220, Control_c, 1, 64, 127
2, 52245, Note_on_c, 1, 62, 0
2, 52250, Note_on_c, 1, 40, 0
2, 52261, Note_on_c, 1, 69, 0
2, 52261, Note_on_c, 1, 66, 0
2, 52394, Note_on_c, 1, 74, 49
2, 52395, Note_on_c, 1, 81, 53
2, 52396, Note_on_c, 1, 52, 36
2, 52427, Note_on_c, 1, 74, 0
2, 52440, Note_on_c, 1, 81, 0
2, 52454, Note_on_c, 1, 78, 42
2, 52458, Note_on_c, 1, 71, 48
2, 52473, Note_on_c, 1, 78, 0
2, 52481, Note_on_c, 1, 71, 0
2, 52506, Note_on_c, 1, 59, 1
2, 52561, Note_on_c, 1, 71, 53
2, 52562, Note_on_c, 1, 67, 56
2, 52563, Note_on_c, 1, 66, 33
2, 52567, Note_on_c, 1, 64, 35
2, 52653, Note_on_c, 1, 64, 0
2, 52656, Note_on_c, 1, 59, 0
2, 52675, Note_on_c, 1, 52, 0
2, 52778, Note_on_c, 1, 67, 0
2, 52781, Note_on_c, 1, 66, 0
2, 52783, Note_on_c, 1, 71, 0
2, 52883, Note_on_c, 1, 47, 18
2, 52906, Note_on_c, 1, 47, 0
2, 52922, Control_c, 1, 64, 0
2, 52923, Note_on_c, 1, 54, 44
2, 52924, Note_on_c, 1, 59, 51
2, 52927, Note_on_c, 1, 40, 35
2, 52938, Control_c, 1, 64, 127
2, 52976, Note_on_c, 1, 54, 0
2, 52978, Note_on_c, 1, 59, 0
2, 52989, Note_on_c, 1, 47, 35
2, 53034, Note_on_c, 1, 40, 0
2, 53038, Note_on_c, 1, 47, 0
2, 53047, Note_on_c, 1, 52, 32
2, 53081, Note_on_c, 1, 52, 0
2, 53110, Note_on_c, 1, 59, 33
2, 53112, Note_on_c, 1, 69, 34
2, 53112, Note_on_c, 1, 62, 43
2, 53113, Note_on_c, 1, 66, 27
2, 53123, Note_on_c, 1, 59, 0
2, 53128, Note_on_c, 1, 62, 0
2, 53141, Note_on_c, 1, 66, 0
2, 53143, Note_on_c, 1, 69, 0
2, 53280, Note_on_c, 1, 78, 57
2, 53281, Note_on_c, 1, 71, 54
2, 53282, Note_on_c, 1, 74, 57
2, 53282, Note_on_c, 1, 69, 54
2, 53284, Note_on_c, 1, 64, 47
2, 53385, Note_on_c, 1, 64, 0
2, 53389, Note_on_c, 1, 74, 0
2, 53391, Note_on_c, 1, 78, 0
2, 53399, Note_on_c, 1, 71, 0
2, 53410, Note_on_c, 1, 69, 0
2, 53645, Note_on_c, 1, 66, 32
2, 53647, Note_on_c, 1, 40, 36
2, 53648, Note_on_c, 1, 59, 37
2, 53650, Note_on_c, 1, 55, 24
2, 53651, Note_on_c, 1, 47, 26
2, 53651, Note_on_c, 1, 62, 24
2, 53656, Control_c, 1, 64, 0
2, 53722, Control_c, 1, 64, 127
2, 53731, Note_on_c, 1, 55, 0
2, 53757, Note_on_c, 1, 62, 0
2, 53762, Note_on_c, 1, 59, 0
2, 53859, Note_on_c, 1, 66, 0
2, 53995, Note_on_c, 1, 54, 53
2, 54001, Note_on_c, 1, 57, 40
2, 54002, Note_on_c, 1, 62, 35
2, 54003, Note_on_c, 1, 59, 37
2, 54010, Note_on_c, 1, 57, 0
2, 54010, Note_on_c, 1, 47, 0
2, 54011, Note_on_c, 1, 54, 0
2, 54013, Note_on_c, 1, 59, 0
2, 54013, Control_c, 1, 64, 0
2, 54019, Note_on_c, 1, 62, 0
2, 54061, Note_on_c, 1, 47, 36
2, 54109, Note_on_c, 1, 47, 0
2, 54120, Note_on_c, 1, 54, 42
2, 54122, Note_on_c, 1, 50, 40
2, 54126, Note_on_c, 1, 57, 35
2, 54128, Note_on_c, 1, 62, 33
2, 54129, Note_on_c, 1, 59, 33
2, 54167, Note_on_c, 1, 50, 0
2, 54185, Note_on_c, 1, 52, 53
2, 54247, Control_c, 1, 64, 127
2, 54318, Note_on_c, 1, 57, 0
2, 54322, Note_on_c, 1, 54, 0
2, 54322, Note_on_c, 1, 59, 0
2, 54327, Note_on_c, 1, 62, 0
2, 54338, Note_on_c, 1, 40, 0
2, 54362, Control_c, 1, 64, 0
2, 54363, Note_on_c, 1, 54, 42
2, 54366, Note_on_c, 1, 57, 52
2, 54367, Note_on_c, 1, 62, 48
2, 54368, Note_on_c, 1, 40, 40
2, 54369, Note_on_c, 1, 59, 48
2, 54430, Control_c, 1, 64, 127
2, 54471, Note_on_c, 1, 52, 0
2, 54498, Note_on_c, 1, 40, 0
2, 54739, Note_on_c, 1, 28, 46
2, 54755, Control_c, 1, 64, 0
2, 54869, Note_on_c, 1, 57, 0
2, 54872, Note_on_c, 1, 54, 0
2, 54878, Note_on_c, 1, 59, 0
2, 54884, Note_on_c, 1, 62, 0
2, 55075, Note_on_c, 1, 28, 0
2, 55075, End_track
3, 0, Start_track
3, 0, Title_t, ""
3, 0, Program_c, 0, 0
3, 0, Control_c, 0, 64, 127
3, 304, Note_on_c, 0, 83, 52
3, 308, Note_on_c, 0, 45, 29
3, 311, Control_c, 0, 64, 0
3, 323, Control_c, 0, 64, 127
3, 382, Note_on_c, 0, 52, 27
3, 422, Note_on_c, 0, 45, 0
3, 427, Note_on_c, 0, 52, 0
3, 437, Note_on_c, 0, 57, 30
3, 477, Note_on_c, 0, 57, 0
3, 483, Note_on_c, 0, 59, 35
3, 483, Note_on_c, 0, 81, 56
3, 530, Note_on_c, 0, 76, 61
3, 534, Note_on_c, 0, 59, 0
3, 537, Note_on_c, 0, 83, 0
3, 546, Note_on_c, 0, 60, 28
3, 572, Note_on_c, 0, 71, 57
3, 574, Note_on_c, 0, 60, 0
3, 595, Note_on_c, 0, 64, 27
3, 638, Note_on_c, 0, 64, 0
3, 640, Note_on_c, 0, 71, 0
3, 659, Note_on_c, 0, 76, 0
3, 736, Note_on_c, 0, 76, 32
3, 764, Note_on_c, 0, 81, 0
3, 768, Note_on_c, 0, 71, 4
3, 782, Note_on_c, 0, 83, 60
3, 786, Note_on_c, 0, 71, 0
3, 796, Note_on_c, 0, 76, 0
3, 817, Note_on_c, 0, 81, 62
3, 853, Note_on_c, 0, 76, 52
3, 864, Note_on_c, 0, 83, 0
3, 889, Note_on_c, 0, 76, 0
3, 891, Note_on_c, 0, 45, 36
3, 892, Note_on_c, 0, 71, 32
3, 895, Note_on_c, 0, 81, 0
3, 940, Note_on_c, 0, 52, 36
3, 980, Note_on_c, 0, 52, 0
3, 980, Note_on_c, 0, 45, 0
3, 989, Note_on_c, 0, 69, 47
3, 994, Note_on_c, 0, 57, 19
3, 996, Note_on_c, 0, 71, 0
3, 1021, Note_on_c, 0, 57, 0
3, 1050, Note_on_c, 0, 60, 35
3, 1111, Note_on_c, 0, 69, 0
3, 1112, Note_on_c, 0, 67, 33
3, 1117, Note_on_c, 0, 64, 27
3, 1180, Note_on_c, 0, 60, 0
3, 1304, Note_on_c, 0, 60, 1
3, 1315, Note_on_c, 0, 64, 0
3, 1349, Note_on_c, 0, 60, 0
3, 1351, Note_on_c, 0, 69, 37
3, 1380, Note_on_c, 0, 67, 0
3, 1395, Note_on_c, 0, 69, 0
3, 1397, Note_on_c, 0, 71, 45
3, 1434, Note_on_c, 0, 71, 0
3, 1443, Note_on_c, 0, 74, 61
3, 1476, Note_on_c, 0, 74, 0
3, 1496, Note_on_c, 0, 77, 47
3, 1526, Note_on_c, 0, 77, 0
3, 1544, Note_on_c, 0, 79, 58
3, 1584, Note_on_c, 0, 79, 0
3, 1591, Note_on_c, 0, 40, 41
3, 1593, Note_on_c, 0, 78, 46
3, 1599, Control_c, 0, 64, 0
3, 1629, Control_c, 0, 64, 127
3, 1642, Note_on_c, 0, 47, 37
3, 1678, Note_on_c, 0, 40, 0
3, 1682, Note_on_c, 0, 47, 0
3, 1692, Note_on_c, 0, 52, 32
3, 1692, Note_on_c, 0, 71, 50
3, 1716, Note_on_c, 0, 52, 0
3, 1732, Note_on_c, 0, 78, 0
3, 1751, Note_on_c, 0, 59, 28
3, 1756, Note_on_c, 0, 71, 0
3, 1804, Note_on_c, 0, 66, 47
3, 1806, Note_on_c, 0, 71, 54
3, 1836, Note_on_c, 0, 59, 0
3, 1862, Note_on_c, 0, 64, 35
3, 1867, Note_on_c, 0, 59, 36
3, 1888, Note_on_c, 0, 64, 0
3, 1890, Note_on_c, 0, 66, 0
3, 1910, Note_on_c, 0, 71, 0
3, 1915, Note_on_c, 0, 66, 13
3, 1917, Note_on_c, 0, 69, 37
3, 1945, Note_on_c, 0, 59, 0
3, 1968, Note_on_c, 0, 66, 0
3, 1972, Note_on_c, 0, 69, 0
3, 1972, Note_on_c, 0, 64, 1
3, 1994, Note_on_c, 0, 59, 29
3, 2065, Note_on_c, 0, 83, 61
3, 2099, Note_on_c, 0, 64, 0
3, 2099, Note_on_c, 0, 81, 66
3, 2112, Note_on_c, 0, 83, 0
3, 2132, Note_on_c, 0, 78, 53
3, 2153, Note_on_c, 0, 81, 0
3, 2160, Note_on_c, 0, 52, 38
3, 2163, Note_on_c, 0, 59, 0
3, 2168, Note_on_c, 0, 78, 0
3, 2169, Note_on_c, 0, 81, 66
3, 2178, Control_c, 0, 64, 0
3, 2203, Note_on_c, 0, 81, 0
3, 2205, Control_c, 0, 64, 127
3, 2207, Note_on_c, 0, 76, 41
3, 2223, Note_on_c, 0, 59, 29
3, 2244, Note_on_c, 0, 76, 0
3, 2246, Note_on_c, 0, 78, 42
3, 2289, Note_on_c, 0, 71, 42
3, 2300, Note_on_c, 0, 78, 0
3, 2328, Note_on_c, 0, 59, 0
3, 2330, Note_on_c, 0, 64, 1
3, 2367, Note_on_c, 0, 71, 0
3, 2368, Note_on_c, 0, 64, 0
3, 2368, Note_on_c, 0, 59, 24
3, 2431, Note_on_c, 0, 71, 18
3, 2433, Note_on_c, 0, 62, 26
3, 2433, Note_on_c, 0, 66, 23
3, 2442, Note_on_c, 0, 59, 0
3, 2531, Note_on_c, 0, 59, 20
3, 2584, Note_on_c, 0, 64, 36
3, 2598, Note_on_c, 0, 66, 0
3, 2661, Note_on_c, 0, 66, 30
3, 2666, Note_on_c, 0, 71, 0
3, 2694, Note_on_c, 0, 62, 0
3, 2728, Note_on_c, 0, 71, 55
3, 2732, Note_on_c, 0, 59, 0
3, 2738, Note_on_c, 0, 66, 0
3, 2760, Note_on_c, 0, 52, 0
3, 2767, Note_on_c, 0, 64, 0
3, 2794, Note_on_c, 0, 64, 43
3, 2876, Note_on_c, 0, 45, 34
3, 2877, Note_on_c, 0, 59, 33
3, 2888, Control_c, 0, 64, 0
3, 2918, Control_c, 0, 64, 127
3, 2932, Note_on_c, 0, 59, 0
3, 2947, Note_on_c, 0, 64, 0
3, 2951, Note_on_c, 0, 52, 33
3, 3003, Note_on_c, 0, 71, 0
3, 3006, Note_on_c, 0, 45, 0
3, 3012, Note_on_c, 0, 52, 0
3, 3014, Note_on_c, 0, 64, 34
3, 3016, Note_on_c, 0, 59, 32
3, 3016, Note_on_c, 0, 60, 32
3, 3019, Note_on_c, 0, 57, 34
3, 3043, Note_on_c, 0, 59, 0
3, 3055, Note_on_c, 0, 60, 0
3, 3074, Note_on_c, 0, 57, 0
3, 3079, Note_on_c, 0, 64, 0
3, 3082, Note_on_c, 0, 60, 44
3, 3145, Note_on_c, 0, 83, 64
3, 3154, Note_on_c, 0, 64, 26
3, 3161, Note_on_c, 0, 60, 0
3, 3184, Note_on_c, 0, 76, 41
3, 3193, Note_on_c, 0, 83, 0
3, 3225, Note_on_c, 0, 76, 0
3, 3229, Note_on_c, 0, 81, 64
3, 3231, Note_on_c, 0, 60, 30
3, 3234, Note_on_c, 0, 64, 0
3, 3241, Note_on_c, 0, 60, 0
3, 3274, Note_on_c, 0, 81, 0
3, 3276, Note_on_c, 0, 71, 51
3, 3312, Note_on_c, 0, 71, 0
3, 3322, Note_on_c, 0, 79, 59
3, 3330, Note_on_c, 0, 45, 24
3, 3393, Note_on_c, 0, 52, 28
3, 3440, Note_on_c, 0, 45, 0
3, 3443, Note_on_c, 0, 52, 0
3, 3445, Note_on_c, 0, 78, 43
3, 3452, Note_on_c, 0, 57, 30
3, 3456, Note_on_c, 0, 79, 0
3, 3480, Note_on_c, 0, 57, 0
3, 3482, Note_on_c, 0, 78, 0
3, 3489, Note_on_c, 0, 69, 41
3, 3522, Note_on_c, 0, 69, 0
3, 3523, Note_on_c, 0, 60, 53
3, 3526, Note_on_c, 0, 76, 71
3, 3561, Note_on_c, 0, 76, 0
3, 3563, Note_on_c, 0, 74, 49
3, 3605, Note_on_c, 0, 66, 48
3, 3607, Note_on_c, 0, 60, 0
3, 3658, Note_on_c, 0, 45, 36
3, 3711, Note_on_c, 0, 66, 0
3, 3721, Note_on_c, 0, 52, 29
3, 3722, Note_on_c, 0, 73, 1
3, 3725, Note_on_c, 0, 74, 0
3, 3768, Note_on_c, 0, 57, 36
3, 3773, Note_on_c, 0, 73, 0
3, 3779, Note_on_c, 0, 64, 24
3, 3809, Note_on_c, 0, 57, 0
3, 3814, Note_on_c, 0, 67, 57
3, 3830, Note_on_c, 0, 52, 0
3, 3843, Note_on_c, 0, 64, 0
3, 3849, Note_on_c, 0, 45, 0
3, 3850, Note_on_c, 0, 71, 69
3, 3861, Note_on_c, 0, 67, 0
3, 3890, Note_on_c, 0, 69, 64
3, 3892, Note_on_c, 0, 40, 49
3, 3901, Control_c, 0, 64, 0
3, 3943, Note_on_c, 0, 47, 29
3, 3956, Control_c, 0, 64, 127
3, 3979, Note_on_c, 0, 40, 0
3, 3981, Note_on_c, 0, 62, 35
3, 3982, Note_on_c, 0, 66, 37
3, 3983, Note_on_c, 0, 47, 0
3, 3993, Note_on_c, 0, 52, 24
3, 4019, Note_on_c, 0, 69, 0
3, 4035, Note_on_c, 0, 54, 34
3, 4041, Note_on_c, 0, 52, 0
3, 4060, Note_on_c, 0, 62, 0
3, 4097, Note_on_c, 0, 62, 37
3, 4099, Note_on_c, 0, 55, 37
3, 4116, Control_c, 0, 64, 0
3, 4119, Note_on_c, 0, 55, 0
3, 4134, Control_c, 0, 64, 127
3, 4157, Note_on_c, 0, 57, 26
3, 4187, Note_on_c, 0, 62, 0
3, 4204, Note_on_c, 0, 57, 0
3, 4205, Note_on_c, 0, 66, 0
3, 4221, Note_on_c, 0, 62, 36
3, 4222, Note_on_c, 0, 66, 25
3, 4228, Note_on_c, 0, 59, 36
3, 4275, Note_on_c, 0, 59, 0
3, 4285, Note_on_c, 0, 62, 0
3, 4306, Note_on_c, 0, 62, 57
3, 4353, Note_on_c, 0, 66, 0
3, 4359, Note_on_c, 0, 62, 0
3, 4392, Note_on_c, 0, 66, 23
3, 4394, Note_on_c, 0, 64, 35
3, 4396, Note_on_c, 0, 69, 37
3, 4464, Note_on_c, 0, 64, 0
3, 4492, Note_on_c, 0, 64, 29
3, 4547, Note_on_c, 0, 66, 0
3, 4569, Note_on_c, 0, 64, 0
3, 4595, Note_on_c, 0, 66, 25
3, 4674, Note_on_c, 0, 54, 0
3, 4708, Note_on_c, 0, 54, 33
3, 4769, Note_on_c, 0, 54, 0
3, 4833, Note_on_c, 0, 69, 0
3, 4839, Note_on_c, 0, 66, 0
3, 4849, Note_on_c, 0, 71, 0
3, 5106, Note_on_c, 0, 64, 42
3, 5176, Note_on_c, 0, 71, 57
3, 5177, Control_c, 0, 64, 0
3, 5179, Note_on_c, 0, 64, 0
3, 5185, Control_c, 0, 64, 127
3, 5272, Note_on_c, 0, 67, 50
3, 5273, Note_on_c, 0, 71, 0
3, 5275, Control_c, 0, 64, 0
3, 5276, Note_on_c, 0, 45, 32
3, 5321, Control_c, 0, 64, 127
3, 5366, Note_on_c, 0, 52, 32
3, 5445, Note_on_c, 0, 45, 0
3, 5446, Note_on_c, 0, 64, 27
3, 5452, Note_on_c, 0, 67, 0
3, 5454, Note_on_c, 0, 52, 0
3, 5454, Note_on_c, 0, 60, 28
3, 5455, Note_on_c, 0, 59, 27
3, 5459, Note_on_c, 0, 57, 20
3, 5492, Note_on_c, 0, 59, 0
3, 5498, Note_on_c, 0, 60, 0
3, 5520, Note_on_c, 0, 64, 0
3, 5530, Note_on_c, 0, 57, 0
3, 5535, Note_on_c, 0, 59, 32
3, 5636, Note_on_c, 0, 83, 27
3, 5640, Note_on_c, 0, 76, 31
3, 5641, Note_on_c, 0, 64, 25
3, 5834, Note_on_c, 0, 76, 0
3, 5947, Note_on_c, 0, 64, 0
3, 5959, Note_on_c, 0, 83, 0
3, 5980, Note_on_c, 0, 76, 41
3, 6068, Note_on_c, 0, 76, 0
3, 6071, Note_on_c, 0, 83, 80
3, 6097, Note_on_c, 0, 59, 0
3, 6296, Note_on_c, 0, 83, 0
3, 6302, Note_on_c, 0, 52, 36
3, 6305, Note_on_c, 0, 79, 46
3, 6321, Control_c, 0, 64, 0
3, 6357, Control_c, 0, 64, 127
3, 6409, Note_on_c, 0, 59, 32
3, 6464, Note_on_c, 0, 52, 0
3, 6470, Note_on_c, 0, 59, 0
3, 6477, Note_on_c, 0, 78, 32
3, 6480, Note_on_c, 0, 79, 0
3, 6482, Note_on_c, 0, 64, 36
3, 6483, Note_on_c, 0, 71, 30
3, 6485, Note_on_c, 0, 76, 32
3, 6538, Note_on_c, 0, 71, 0
3, 6546, Note_on_c, 0, 76, 0
3, 6548, Note_on_c, 0, 64, 0
3, 6548, Note_on_c, 0, 78, 0
3, 6551, Note_on_c, 0, 66, 33
3, 6614, Note_on_c, 0, 88, 58
3, 6619, Note_on_c, 0, 83, 36
3, 6625, Note_on_c, 0, 71, 26
3, 6659, Note_on_c, 0, 83, 0
3, 6663, Note_on_c, 0, 88, 0
3, 6694, Note_on_c, 0, 71, 0
3, 6695, Note_on_c, 0, 90, 55
3, 6695, Note_on_c, 0, 74, 50
3, 6789, Note_on_c, 0, 71, 26
3, 6795, Note_on_c, 0, 90, 0
3, 6811, Note_on_c, 0, 74, 0
3, 6812, Note_on_c, 0, 81, 4
3, 6898, Note_on_c, 0, 93, 47
3, 6907, Note_on_c, 0, 76, 24
3, 7026, Note_on_c, 0, 93, 0
3, 7070, Note_on_c, 0, 76, 0
3, 7072, Note_on_c, 0, 81, 0
3, 7141, Note_on_c, 0, 71, 0
3, 7276, Note_on_c, 0, 66, 0
3, 7380, Note_on_c, 0, 76, 60
3, 7390, Note_on_c, 0, 67, 43
3, 7433, Note_on_c, 0, 67, 0
3, 7435, Note_on_c, 0, 76, 0
3, 7497, Note_on_c, 0, 78, 52
3, 7506, Note_on_c, 0, 69, 43
3, 7546, Note_on_c, 0, 69, 0
3, 7565, Note_on_c, 0, 78, 0
3, 7638, Note_on_c, 0, 79, 52
3, 7648, Note_on_c, 0, 45, 34
3, 7650, Note_on_c, 0, 71, 46
3, 7652, Control_c, 0, 64, 0
3, 7678, Control_c, 0, 64, 127
3, 7717, Note_on_c, 0, 52, 36
3, 7727, Note_on_c, 0, 45, 0
3, 7736, Note_on_c, 0, 52, 0
3, 7785, Note_on_c, 0, 59, 38
3, 7826, Note_on_c, 0, 71, 0
3, 7842, Note_on_c, 0, 59, 0
3, 7854, Note_on_c, 0, 60, 41
3, 7910, Note_on_c, 0, 60, 0
3, 7926, Note_on_c, 0, 71, 36
3, 7930, Note_on_c, 0, 72, 26
3, 7932, Note_on_c, 0, 79, 0
3, 7935, Note_on_c, 0, 64, 28
3, 8008, Note_on_c, 0, 72, 0
3, 8010, Note_on_c, 0, 67, 42
3, 8013, Note_on_c, 0, 71, 0
3, 8054, Note_on_c, 0, 64, 0
3, 8088, Note_on_c, 0, 81, 73
3, 8099, Note_on_c, 0, 72, 56
3, 8164, Note_on_c, 0, 81, 0
3, 8170, Note_on_c, 0, 67, 0
3, 8178, Note_on_c, 0, 64, 26
3, 8190, Note_on_c, 0, 64, 0
3, 8240, Note_on_c, 0, 72, 0
3, 8264, Note_on_c, 0, 78, 43
3, 8268, Note_on_c, 0, 52, 38
3, 8270, Note_on_c, 0, 71, 32
3, 8276, Control_c, 0, 64, 0
3, 8318, Control_c, 0, 64, 127
3, 8356, Note_on_c, 0, 78, 0
3, 8382, Note_on_c, 0, 74, 45
3, 8392, Note_on_c, 0, 71, 0
3, 8398, Note_on_c, 0, 59, 7
3, 8437, Note_on_c, 0, 74, 0
3, 8484, Note_on_c, 0, 71, 48
3, 8484, Note_on_c, 0, 64, 22
3, 8502, Note_on_c, 0, 64, 0
3, 8519, Note_on_c, 0, 59, 0
3, 8605, Note_on_c, 0, 67, 44
3, 8614, Note_on_c, 0, 59, 22
3, 8620, Note_on_c, 0, 71, 0
3, 8665, Note_on_c, 0, 67, 0
3, 8726, Note_on_c, 0, 76, 68
3, 8732, Note_on_c, 0, 67, 65
3, 8735, Note_on_c, 0, 64, 24
3, 8756, Note_on_c, 0, 67, 0
3, 8771, Note_on_c, 0, 76, 0
3, 8785, Note_on_c, 0, 59, 0
3, 8951, Note_on_c, 0, 83, 74
3, 8956, Note_on_c, 0, 59, 34
3, 8964, Note_on_c, 0, 74, 58
3, 8967, Note_on_c, 0, 64, 0
3, 8984, Note_on_c, 0, 59, 0
3, 9006, Note_on_c, 0, 52, 0
3, 9006, Note_on_c, 0, 83, 0
3, 9018, Note_on_c, 0, 74, 0
3, 9096, Note_on_c, 0, 79, 64
3, 9106, Note_on_c, 0, 71, 69
3, 9106, Note_on_c, 0, 45, 45
3, 9110, Control_c, 0, 64, 0
3, 9140, Control_c, 0, 64, 127
3, 9189, Note_on_c, 0, 45, 0
3, 9192, Note_on_c, 0, 55, 48
3, 9202, Note_on_c, 0, 71, 0
3, 9211, Note_on_c, 0, 55, 0
3, 9275, Note_on_c, 0, 71, 55
3, 9276, Note_on_c, 0, 67, 60
3, 9279, Note_on_c, 0, 60, 54
3, 9364, Note_on_c, 0, 60, 0
3, 9381, Note_on_c, 0, 60, 54
3, 9508, Note_on_c, 0, 60, 0
3, 9546, Note_on_c, 0, 67, 0
3, 9561, Note_on_c, 0, 71, 0
3, 9582, Note_on_c, 0, 71, 37
3, 9583, Note_on_c, 0, 67, 44
3, 9584, Note_on_c, 0, 59, 39
3, 9638, Note_on_c, 0, 79, 0
3, 9646, Note_on_c, 0, 59, 0
3, 9662, Note_on_c, 0, 67, 0
3, 9682, Note_on_c, 0, 71, 0
3, 9698, Note_on_c, 0, 52, 30
3, 9699, Note_on_c, 0, 64, 47
3, 9775, Note_on_c, 0, 71, 76
3, 9782, Note_on_c, 0, 55, 31
3, 9790, Note_on_c, 0, 52, 0
3, 9817, Note_on_c, 0, 55, 0
3, 9844, Note_on_c, 0, 71, 0
3, 9848, Note_on_c, 0, 69, 65
3, 9861, Note_on_c, 0, 64, 0
3, 9916, Note_on_c, 0, 69, 0
3, 9923, Note_on_c, 0, 67, 53
3, 9923, Note_on_c, 0, 66, 33
3, 9925, Control_c, 0, 64, 0
3, 9929, Note_on_c, 0, 40, 31
3, 9971, Control_c, 0, 64, 127
3, 9992, Note_on_c, 0, 40, 0
3, 10006, Note_on_c, 0, 52, 16
3, 10066, Note_on_c, 0, 52, 0
3, 10099, Note_on_c, 0, 55, 24
3, 10106, Note_on_c, 0, 64, 1
3, 10135, Note_on_c, 0, 66, 0
3, 10191, Note_on_c, 0, 59, 25
3, 10212, Note_on_c, 0, 64, 0
3, 10274, Note_on_c, 0, 67, 0
3, 10276, Note_on_c, 0, 64, 34
3, 10340, Note_on_c, 0, 59, 0
3, 10359, Note_on_c, 0, 55, 0
3, 10362, Note_on_c, 0, 66, 37
3, 10365, Note_on_c, 0, 64, 0
3, 10452, Note_on_c, 0, 66, 0
3, 10549, Note_on_c, 0, 67, 44
3, 10556, Note_on_c, 0, 64, 35
3, 10560, Control_c, 0, 64, 0
3, 10560, Note_on_c, 0, 59, 34
3, 10564, Note_on_c, 0, 60, 20
3, 10564, Note_on_c, 0, 45, 29
3, 10564, Note_on_c, 0, 55, 27
3, 10602, Control_c, 0, 64, 127
3, 10615, Note_on_c, 0, 67, 0
3, 10657, Note_on_c, 0, 67, 60
3, 10707, Note_on_c, 0, 67, 0
3, 10752, Note_on_c, 0, 45, 0
3, 10753, Note_on_c, 0, 67, 58
3, 10780, Note_on_c, 0, 55, 0
3, 10794, Note_on_c, 0, 59, 0
3, 10808, Note_on_c, 0, 60, 0
3, 10817, Note_on_c, 0, 67, 0
3, 10819, Note_on_c, 0, 64, 0
3, 10858, Note_on_c, 0, 69, 74
3, 10943, Note_on_c, 0, 69, 0
3, 10984, Note_on_c, 0, 69, 52
3, 10987, Note_on_c, 0, 60, 32
3, 10988, Note_on_c, 0, 66, 37
3, 10988, Note_on_c, 0, 50, 34
3, 11000, Control_c, 0, 64, 0
3, 11018, Control_c, 0, 64, 127
3, 11058, Note_on_c, 0, 69, 0
3, 11091, Note_on_c, 0, 50, 0
3, 11094, Note_on_c, 0, 60, 0
3, 11098, Note_on_c, 0, 69, 54
3, 11136, Note_on_c, 0, 69, 0
3, 11151, Note_on_c, 0, 66, 0
3, 11272, Note_on_c, 0, 69, 37
3, 11274, Note_on_c, 0, 59, 35
3, 11275, Note_on_c, 0, 65, 44
3, 11276, Note_on_c, 0, 53, 24
3, 11277, Note_on_c, 0, 64, 38
3, 11277, Note_on_c, 0, 43, 33
3, 11280, Control_c, 0, 64, 0
3, 11325, Control_c, 0, 64, 127
3, 11378, Note_on_c, 0, 69, 0
3, 11383, Note_on_c, 0, 65, 0
3, 11407, Note_on_c, 0, 59, 0
3, 11411, Note_on_c, 0, 71, 68
3, 11476, Note_on_c, 0, 71, 0
3, 11481, Note_on_c, 0, 53, 0
3, 11488, Note_on_c, 0, 64, 0
3, 11494, Note_on_c, 0, 43, 0
3, 11577, Note_on_c, 0, 59, 36
3, 11578, Note_on_c, 0, 63, 49
3, 11584, Note_on_c, 0, 67, 24
3, 11587, Note_on_c, 0, 43, 34
3, 11591, Control_c, 0, 64, 0
3, 11592, Note_on_c, 0, 53, 19
3, 11594, Note_on_c, 0, 63, 0
3, 11602, Note_on_c, 0, 64, 20
3, 11677, Note_on_c, 0, 63, 33
3, 11686, Note_on_c, 0, 64, 0
3, 11730, Control_c, 0, 64, 127
3, 11836, Note_on_c, 0, 59, 0
3, 11847, Note_on_c, 0, 63, 0
3, 11850, Note_on_c, 0, 67, 0
3, 11926, Note_on_c, 0, 67, 44
3, 11979, Note_on_c, 0, 43, 0
3, 12005, Note_on_c, 0, 53, 0
3, 12181, Note_on_c, 0, 67, 0
3, 12185, Note_on_c, 0, 74, 40
3, 12316, Note_on_c, 0, 74, 0
3, 12324, Control_c, 0, 64, 0
3, 12325, Note_on_c, 0, 71, 39
3, 12326, Note_on_c, 0, 48, 36
3, 12335, Control_c, 0, 64, 127
3, 12365, Note_on_c, 0, 71, 0
3, 12369, Note_on_c, 0, 48, 0
3, 12433, Note_on_c, 0, 83, 62
3, 12520, Note_on_c, 0, 83, 0
3, 12523, Note_on_c, 0, 79, 48
3, 12526, Note_on_c, 0, 62, 35
3, 12529, Note_on_c, 0, 71, 36
3, 12529, Note_on_c, 0, 67, 30
3, 12535, Note_on_c, 0, 76, 40
3, 12632, Note_on_c, 0, 64, 34
3, 12638, Note_on_c, 0, 71, 0
3, 12650, Note_on_c, 0, 76, 0
3, 12680, Note_on_c, 0, 67, 0
3, 12692, Note_on_c, 0, 79, 0
3, 12741, Note_on_c, 0, 67, 33
3, 12742, Note_on_c, 0, 79, 51
3, 12781, Note_on_c, 0, 67, 0
3, 12796, Note_on_c, 0, 64, 0
3, 12799, Note_on_c, 0, 62, 0
3, 12811, Note_on_c, 0, 79, 0
3, 12814, Note_on_c, 0, 86, 81
3, 12861, Note_on_c, 0, 86, 0
3, 12875, Note_on_c, 0, 83, 69
3, 12876, Note_on_c, 0, 47, 32
3, 12877, Control_c, 0, 64, 0
3, 12899, Control_c, 0, 64, 127
3, 12926, Note_on_c, 0, 83, 0
3, 12936, Note_on_c, 0, 54, 38
3, 12996, Note_on_c, 0, 47, 0
3, 13000, Note_on_c, 0, 54, 0
3, 13002, Note_on_c, 0, 66, 43
3, 13004, Note_on_c, 0, 62, 35
3, 13063, Note_on_c, 0, 62, 0
3, 13087, Note_on_c, 0, 62, 57
3, 13109, Note_on_c, 0, 62, 0
3, 13164, Note_on_c, 0, 66, 0
3, 13266, Note_on_c, 0, 40, 30
3, 13267, Note_on_c, 0, 62, 34
3, 13268, Note_on_c, 0, 56, 20
3, 13270, Note_on_c, 0, 28, 30
3, 13276, Control_c, 0, 64, 0
3, 13314, Control_c, 0, 64, 127
3, 13363, Note_on_c, 0, 56, 0
3, 13370, Note_on_c, 0, 62, 0
3, 13422, Note_on_c, 0, 28, 0
3, 13441, Note_on_c, 0, 64, 34
3, 13451, Note_on_c, 0, 40, 0
3, 13495, Note_on_c, 0, 71, 74
3, 13512, Note_on_c, 0, 64, 0
3, 13550, Note_on_c, 0, 71, 0
3, 13561, Control_c, 0, 64, 0
3, 13567, Note_on_c, 0, 64, 53
3, 13570, Note_on_c, 0, 45, 39
3, 13579, Control_c, 0, 64, 127
3, 13601, Note_on_c, 0, 64, 0
3, 13644, Note_on_c, 0, 52, 34
3, 13645, Note_on_c, 0, 83, 71
3, 13648, Note_on_c, 0, 45, 0
3, 13660, Note_on_c, 0, 52, 0
3, 13739, Note_on_c, 0, 71, 42
3, 13743, Note_on_c, 0, 76, 48
3, 13748, Note_on_c, 0, 60, 35
3, 13790, Note_on_c, 0, 83, 0
3, 13817, Note_on_c, 0, 71, 0
3, 13845, Note_on_c, 0, 76, 0
3, 13848, Note_on_c, 0, 81, 68
3, 13853, Note_on_c, 0, 72, 55
3, 13855, Note_on_c, 0, 64, 32
3, 13916, Note_on_c, 0, 81, 0
3, 13928, Note_on_c, 0, 72, 0
3, 13952, Note_on_c, 0, 79, 57
3, 13953, Note_on_c, 0, 71, 58
3, 13996, Note_on_c, 0, 79, 0
3, 13998, Note_on_c, 0, 71, 0
3, 14014, Note_on_c, 0, 64, 0
3, 14042, Note_on_c, 0, 60, 0
3, 14055, Note_on_c, 0, 81, 52
3, 14058, Note_on_c, 0, 72, 35
3, 14099, Note_on_c, 0, 81, 0
3, 14108, Note_on_c, 0, 72, 0
3, 14196, Note_on_c, 0, 71, 36
3, 14198, Note_on_c, 0, 66, 30
3, 14202, Note_on_c, 0, 64, 35
3, 14203, Note_on_c, 0, 47, 25
3, 14207, Control_c, 0, 64, 0
3, 14208, Note_on_c, 0, 57, 24
3, 14227, Note_on_c, 0, 60, 1
3, 14251, Control_c, 0, 64, 127
3, 14310, Note_on_c, 0, 64, 0
3, 14359, Note_on_c, 0, 60, 0
3, 14473, Note_on_c, 0, 64, 26
3, 14475, Note_on_c, 0, 60, 18
3, 14626, Note_on_c, 0, 60, 0
3, 14690, Note_on_c, 0, 64, 0
3, 14713, Note_on_c, 0, 66, 0
3, 14727, Note_on_c, 0, 71, 0
3, 14896, Note_on_c, 0, 76, 24
3, 14936, Note_on_c, 0, 47, 0
3, 14988, Note_on_c, 0, 57, 0
3, 15065, Note_on_c, 0, 83, 46
3, 15122, Note_on_c, 0, 76, 0
3, 15207, Note_on_c, 0, 83, 0
3, 15213, Note_on_c, 0, 80, 42
3, 15215, Note_on_c, 0, 33, 31
3, 15220, Note_on_c, 0, 45, 15
3, 15238, Note_on_c, 0, 33, 0
3, 15253, Note_on_c, 0, 45, 0
3, 15362, Note_on_c, 0, 61, 23
3, 15365, Note_on_c, 0, 54, 19
3, 15367, Note_on_c, 0, 64, 24
3, 15368, Note_on_c, 0, 59, 35
3, 15553, Note_on_c, 0, 76, 49
3, 15599, Note_on_c, 0, 59, 0
3, 15601, Note_on_c, 0, 64, 0
3, 15608, Note_on_c, 0, 54, 0
3, 15614, Note_on_c, 0, 61, 0
3, 15629, Note_on_c, 0, 80, 0
3, 15654, Note_on_c, 0, 83, 76
3, 15720, Note_on_c, 0, 83, 0
3, 15735, Control_c, 0, 64, 0
3, 15736, Note_on_c, 0, 30, 46
3, 15737, Note_on_c, 0, 76, 0
3, 15739, Note_on_c, 0, 80, 69
3, 15751, Control_c, 0, 64, 127
3, 15757, Note_on_c, 0, 30, 0
3, 15902, Note_on_c, 0, 61, 23
3, 15903, Note_on_c, 0, 69, 36
3, 15904, Note_on_c, 0, 54, 21
3, 15905, Note_on_c, 0, 73, 25
3, 15906, Note_on_c, 0, 64, 27
3, 16003, Note_on_c, 0, 69, 0
3, 16016, Note_on_c, 0, 73, 0
3, 16033, Note_on_c, 0, 80, 0
3, 16107, Note_on_c, 0, 76, 43
3, 16185, Note_on_c, 0, 64, 0
3, 16201, Note_on_c, 0, 54, 0
3, 16211, Note_on_c, 0, 61, 0
3, 16308, Note_on_c, 0, 76, 0
3, 16308, Note_on_c, 0, 83, 40
3, 16399, Control_c, 0, 64, 0
3, 16408, Note_on_c, 0, 80, 34
3, 16409, Note_on_c, 0, 83, 0
3, 16410, Note_on_c, 0, 47, 34
3, 16419, Control_c, 0, 64, 127
3, 16433, Note_on_c, 0, 47, 0
3, 16627, Note_on_c, 0, 68, 20
3, 16628, Note_on_c, 0, 63, 34
3, 16632, Note_on_c, 0, 57, 32
3, 16746, Note_on_c, 0, 78, 52
3, 16866, Note_on_c, 0, 76, 38
3, 16870, Note_on_c, 0, 80, 0
3, 16883, Note_on_c, 0, 78, 0
3, 17033, Note_on_c, 0, 78, 34
3, 17047, Note_on_c, 0, 68, 0
3, 17053, Note_on_c, 0, 76, 0
3, 17114, Note_on_c, 0, 57, 0
3, 17152, Note_on_c, 0, 63, 0
3, 17157, Note_on_c, 0, 78, 0
3, 17387, Note_on_c, 0, 78, 38
3, 17392, Note_on_c, 0, 75, 40
3, 17393, Note_on_c, 0, 71, 40
3, 17397, Note_on_c, 0, 64, 28
3, 17467, Note_on_c, 0, 64, 0
3, 17512, Note_on_c, 0, 64, 32
3, 17549, Note_on_c, 0, 71, 0
3, 17551, Note_on_c, 0, 75, 0
3, 17577, Note_on_c, 0, 64, 0
3, 17590, Note_on_c, 0, 78, 0
3, 17632, Note_on_c, 0, 80, 38
3, 17639, Note_on_c, 0, 71, 36
3, 17640, Note_on_c, 0, 76, 49
3, 17645, Note_on_c, 0, 64, 20
3, 17695, Note_on_c, 0, 64, 0
3, 17793, Note_on_c, 0, 34, 44
3, 17815, Note_on_c, 0, 34, 0
3, 17818, Note_on_c, 0, 76, 0
3, 17820, Note_on_c, 0, 80, 0
3, 17833, Note_on_c, 0, 71, 0
3, 17972, Note_on_c, 0, 67, 38
3, 17972, Note_on_c, 0, 76, 50
3, 17974, Note_on_c, 0, 62, 34
3, 17975, Note_on_c, 0, 72, 33
3, 17977, Note_on_c, 0, 56, 37
3, 18138, Note_on_c, 0, 62, 0
3, 18155, Note_on_c, 0, 56, 0
3, 18163, Note_on_c, 0, 72, 0
3, 18171, Note_on_c, 0, 76, 0
3, 18180, Note_on_c, 0, 67, 0
3, 18317, Note_on_c, 0, 68, 50
3, 18318, Note_on_c, 0, 61, 50
3, 18325, Note_on_c, 0, 45, 37
3, 18346, Control_c, 0, 64, 0
3, 18381, Control_c, 0, 64, 127
3, 18417, Note_on_c, 0, 52, 28
3, 18448, Note_on_c, 0, 61, 0
3, 18504, Note_on_c, 0, 61, 35
3, 18507, Note_on_c, 0, 59, 40
3, 18574, Note_on_c, 0, 59, 0
3, 18635, Note_on_c, 0, 45, 0
3, 18654, Note_on_c, 0, 56, 61
3, 18693, Note_on_c, 0, 61, 0
3, 18716, Note_on_c, 0, 56, 0
3, 18741, Note_on_c, 0, 61, 53
3, 18744, Note_on_c, 0, 59, 49
3, 18746, Note_on_c, 0, 57, 64
3, 18803, Note_on_c, 0, 57, 0
3, 18832, Note_on_c, 0, 56, 58
3, 18836, Control_c, 0, 64, 0
3, 18846, Control_c, 0, 64, 127
3, 18858, Note_on_c, 0, 59, 0
3, 18876, Note_on_c, 0, 56, 0
3, 18908, Note_on_c, 0, 68, 0
3, 18915, Note_on_c, 0, 61, 0
3, 18947, Note_on_c, 0, 59, 39
3, 18947, Note_on_c, 0, 68, 35
3, 18950, Note_on_c, 0, 44, 45
3, 18952, Note_on_c, 0, 64, 47
3, 18954, Control_c, 0, 64, 0
3, 18957, Note_on_c, 0, 52, 0
3, 19077, Control_c, 0, 64, 127
3, 19119, Note_on_c, 0, 59, 0
3, 19145, Note_on_c, 0, 64, 0
3, 19168, Note_on_c, 0, 56, 35
3, 19208, Note_on_c, 0, 56, 0
3, 19237, Note_on_c, 0, 44, 0
3, 19411, Note_on_c, 0, 37, 25
3, 19412, Note_on_c, 0, 64, 27
3, 19413, Control_c, 0, 64, 0
3, 19414, Note_on_c, 0, 25, 19
3, 19414, Note_on_c, 0, 59, 20
3, 19448, Control_c, 0, 64, 127
3, 19479, Note_on_c, 0, 59, 0
3, 19484, Note_on_c, 0, 64, 0
3, 19511, Note_on_c, 0, 68, 0
3, 19545, Note_on_c, 0, 25, 0
3, 19568, Note_on_c, 0, 37, 0
3, 19584, Note_on_c, 0, 64, 40
3, 19662, Note_on_c, 0, 71, 64
3, 19707, Note_on_c, 0, 64, 0
3, 19709, Note_on_c, 0, 71, 0
3, 19785, Note_on_c, 0, 68, 46
3, 19789, Note_on_c, 0, 61, 37
3, 19791, Note_on_c, 0, 42, 33
3, 19793, Control_c, 0, 64, 0
3, 19831, Control_c, 0, 64, 127
3, 19872, Note_on_c, 0, 66, 57
3, 19877, Note_on_c, 0, 52, 20
3, 19880, Note_on_c, 0, 68, 0
3, 19882, Note_on_c, 0, 57, 16
3, 19935, Note_on_c, 0, 57, 0
3, 19963, Note_on_c, 0, 66, 0
3, 19967, Note_on_c, 0, 57, 27
3, 19969, Note_on_c, 0, 64, 30
3, 20015, Note_on_c, 0, 42, 0
3, 20070, Note_on_c, 0, 42, 33
3, 20107, Note_on_c, 0, 42, 0
3, 20136, Note_on_c, 0, 57, 0
3, 20137, Note_on_c, 0, 52, 0
3, 20180, Note_on_c, 0, 64, 0
3, 20190, Note_on_c, 0, 61, 0
3, 20646, Note_on_c, 0, 66, 37
3, 20648, Note_on_c, 0, 57, 35
3, 20648, Note_on_c, 0, 61, 29
3, 20649, Note_on_c, 0, 47, 32
3, 20651, Note_on_c, 0, 64, 42
3, 20661, Control_c, 0, 64, 0
3, 20703, Control_c, 0, 64, 127
3, 20748, Note_on_c, 0, 66, 0
3, 20780, Note_on_c, 0, 47, 0
3, 20785, Note_on_c, 0, 66, 37
3, 20861, Note_on_c, 0, 57, 0
3, 20868, Note_on_c, 0, 66, 0
3, 20873, Note_on_c, 0, 64, 0
3, 20875, Note_on_c, 0, 61, 0
3, 20960, Note_on_c, 0, 66, 30
3, 20962, Note_on_c, 0, 40, 32
3, 20964, Note_on_c, 0, 57, 24
3, 20964, Control_c, 0, 64, 0
3, 20965, Note_on_c, 0, 62, 29
3, 20966, Note_on_c, 0, 28, 30
3, 20984, Control_c, 0, 64, 127
3, 21038, Note_on_c, 0, 57, 0
3, 21053, Note_on_c, 0, 62, 0
3, 21071, Note_on_c, 0, 66, 0
3, 21179, Note_on_c, 0, 80, 43
3, 21207, Note_on_c, 0, 28, 0
3, 21227, Note_on_c, 0, 40, 0
3, 21456, Note_on_c, 0, 80, 0
3, 21473, Control_c, 0, 64, 0
3, 21474, Note_on_c, 0, 67, 19
3, 21474, Note_on_c, 0, 46, 33
3, 21475, Note_on_c, 0, 76, 32
3, 21475, Note_on_c, 0, 34, 31
3, 21476, Note_on_c, 0, 72, 20
3, 21493, Control_c, 0, 64, 127
3, 21506, Note_on_c, 0, 34, 0
3, 21519, Note_on_c, 0, 46, 0
3, 21552, Note_on_c, 0, 67, 0
3, 21560, Note_on_c, 0, 72, 0
3, 21574, Note_on_c, 0, 76, 0
3, 21766, Note_on_c, 0, 96, 48
3, 21772, Note_on_c, 0, 88, 34
3, 21776, Note_on_c, 0, 62, 28
3, 21776, Note_on_c, 0, 67, 29
3, 21892, Note_on_c, 0, 96, 0
3, 21896, Note_on_c, 0, 88, 0
3, 21911, Note_on_c, 0, 62, 0
3, 21911, Note_on_c, 0, 67, 0
3, 22252, Note_on_c, 0, 64, 44
3, 22253, Control_c, 0, 64, 0
3, 22255, Note_on_c, 0, 52, 42
3, 22275, Note_on_c, 0, 64, 0
3, 22283, Note_on_c, 0, 52, 0
3, 22289, Note_on_c, 0, 59, 53
3, 22289, Note_on_c, 0, 71, 66
3, 22319, Note_on_c, 0, 59, 0
3, 22322, Note_on_c, 0, 71, 0
3, 22331, Note_on_c, 0, 67, 49
3, 22332, Note_on_c, 0, 55, 49
3, 22609, Note_on_c, 0, 67, 0
3, 22609, Note_on_c, 0, 64, 34
3, 22613, Note_on_c, 0, 55, 0
3, 22615, Note_on_c, 0, 52, 31
3, 22623, Note_on_c, 0, 64, 0
3, 22643, Note_on_c, 0, 52, 0
3, 22644, Note_on_c, 0, 59, 47
3, 22648, Note_on_c, 0, 71, 51
3, 22676, Note_on_c, 0, 71, 0
3, 22686, Note_on_c, 0, 59, 0
3, 22687, Note_on_c, 0, 67, 51
3, 22694, Note_on_c, 0, 55, 39
3, 22852, Control_c, 0, 64, 127
3, 22904, Note_on_c, 0, 67, 0
3, 22923, Note_on_c, 0, 55, 0
3, 22981, Note_on_c, 0, 76, 36
3, 23003, Note_on_c, 0, 76, 0
3, 23008, Note_on_c, 0, 78, 56
3, 23033, Note_on_c, 0, 78, 0
3, 23037, Control_c, 0, 64, 0
3, 23048, Note_on_c, 0, 60, 46
3, 23048, Note_on_c, 0, 79, 75
3, 23049, Note_on_c, 0, 59, 43
3, 23050, Note_on_c, 0, 64, 32
3, 23161, Control_c, 0, 64, 127
3, 23195, Note_on_c, 0, 79, 0
3, 23236, Note_on_c, 0, 81, 110
3, 23250, Note_on_c, 0, 60, 0
3, 23253, Note_on_c, 0, 64, 0
3, 23256, Note_on_c, 0, 59, 0
3, 23337, Note_on_c, 0, 81, 0
3, 23394, Control_c, 0, 64, 0
3, 23396, Note_on_c, 0, 78, 57
3, 23412, Note_on_c, 0, 78, 0
3, 23477, Note_on_c, 0, 74, 75
3, 23497, Note_on_c, 0, 74, 0
3, 23521, Note_on_c, 0, 71, 55
3, 23530, Note_on_c, 0, 71, 0
3, 23596, Note_on_c, 0, 66, 54
3, 23615, Note_on_c, 0, 66, 0
3, 23646, Control_c, 0, 64, 127
3, 23650, Control_c, 0, 64, 0
3, 23729, Note_on_c, 0, 83, 73
3, 23762, Note_on_c, 0, 83, 0
3, 23769, Note_on_c, 0, 79, 47
3, 23804, Note_on_c, 0, 79, 0
3, 23844, Note_on_c, 0, 79, 52
3, 23851, Note_on_c, 0, 79, 0
3, 23964, Note_on_c, 0, 60, 37
3, 23973, Note_on_c, 0, 60, 0
3, 24055, Note_on_c, 0, 76, 48
3, 24071, Note_on_c, 0, 76, 0
3, 24091, Note_on_c, 0, 83, 87
3, 24124, Note_on_c, 0, 83, 0
3, 24128, Note_on_c, 0, 78, 68
3, 24139, Note_on_c, 0, 79, 53
3, 24158, Note_on_c, 0, 78, 0
3, 24186, Note_on_c, 0, 79, 0
3, 24207, Note_on_c, 0, 78, 51
3, 24222, Note_on_c, 0, 79, 48
3, 24238, Note_on_c, 0, 78, 0
3, 24259, Note_on_c, 0, 79, 0
3, 24343, Note_on_c, 0, 76, 92
3, 24400, Control_c, 0, 64, 127
3, 24413, Note_on_c, 0, 76, 0
3, 24422, Note_on_c, 0, 78, 82
3, 24475, Note_on_c, 0, 78, 0
3, 24487, Control_c, 0, 64, 0
3, 24490, Note_on_c, 0, 79, 80
3, 24492, Note_on_c, 0, 64, 53
3, 24494, Note_on_c, 0, 60, 60
3, 24494, Note_on_c, 0, 59, 57
3, 24595, Control_c, 0, 64, 127
3, 24605, Note_on_c, 0, 64, 0
3, 24613, Note_on_c, 0, 60, 0
3, 24615, Note_on_c, 0, 59, 0
3, 24662, Note_on_c, 0, 79, 0
3, 24790, Note_on_c, 0, 81, 96
3, 24837, Note_on_c, 0, 81, 0
3, 24860, Control_c, 0, 64, 0
3, 24861, Note_on_c, 0, 81, 92
3, 24863, Note_on_c, 0, 57, 40
3, 24864, Note_on_c, 0, 65, 42
3, 24865, Note_on_c, 0, 60, 49
3, 24890, Control_c, 0, 64, 127
3, 24933, Note_on_c, 0, 81, 0
3, 24938, Note_on_c, 0, 83, 71
3, 24953, Note_on_c, 0, 65, 0
3, 24956, Note_on_c, 0, 60, 0
3, 24973, Note_on_c, 0, 57, 0
3, 25029, Note_on_c, 0, 83, 0
3, 25046, Note_on_c, 0, 79, 60
3, 25046, Note_on_c, 0, 59, 46
3, 25049, Note_on_c, 0, 64, 32
3, 25054, Control_c, 0, 64, 0
3, 25106, Control_c, 0, 64, 127
3, 25147, Note_on_c, 0, 64, 0
3, 25150, Note_on_c, 0, 59, 0
3, 25211, Note_on_c, 0, 79, 0
3, 25222, Note_on_c, 0, 83, 62
3, 25223, Control_c, 0, 64, 0
3, 25281, Control_c, 0, 64, 127
3, 25308, Note_on_c, 0, 71, 40
3, 25311, Control_c, 0, 64, 0
3, 25377, Control_c, 0, 64, 127
3, 25411, Control_c, 0, 64, 0
3, 25447, Control_c, 0, 64, 127
3, 25495, Note_on_c, 0, 83, 0
3, 25506, Note_on_c, 0, 71, 0
3, 25533, Note_on_c, 0, 83, 71
3, 25566, Note_on_c, 0, 83, 0
3, 25572, Control_c, 0, 64, 0
3, 25580, Note_on_c, 0, 83, 67
3, 25652, Note_on_c, 0, 71, 34
3, 25680, Control_c, 0, 64, 127
3, 25796, Control_c, 0, 64, 0
3, 25807, Note_on_c, 0, 67, 44
3, 25809, Note_on_c, 0, 62, 41
3, 25812, Note_on_c, 0, 56, 25
3, 25870, Note_on_c, 0, 62, 0
3, 25871, Note_on_c, 0, 67, 0
3, 25897, Note_on_c, 0, 56, 0
3, 25929, Note_on_c, 0, 64, 28
3, 25929, Note_on_c, 0, 60, 43
3, 25934, Note_on_c, 0, 59, 24
3, 25940, Note_on_c, 0, 71, 0
3, 25985, Note_on_c, 0, 83, 0
3, 26050, Note_on_c, 0, 83, 101
3, 26103, Note_on_c, 0, 83, 0
3, 26126, Note_on_c, 0, 81, 90
3, 26186, Note_on_c, 0, 64, 0
3, 26192, Note_on_c, 0, 60, 0
3, 26194, Note_on_c, 0, 59, 0
3, 26194, Control_c, 0, 64, 127
3, 26207, Note_on_c, 0, 79, 58
3, 26212, Note_on_c, 0, 81, 0
3, 26230, Note_on_c, 0, 79, 0
3, 26243, Note_on_c, 0, 81, 62
3, 26274, Note_on_c, 0, 81, 0
3, 26280, Control_c, 0, 64, 0
3, 26289, Note_on_c, 0, 83, 73
3, 26289, Note_on_c, 0, 78, 61
3, 26290, Note_on_c, 0, 72, 65
3, 26291, Note_on_c, 0, 76, 74
3, 26297, Note_on_c, 0, 66, 40
3, 26326, Control_c, 0, 64, 127
3, 26363, Note_on_c, 0, 66, 0
3, 26377, Note_on_c, 0, 83, 0
3, 26384, Note_on_c, 0, 76, 0
3, 26385, Note_on_c, 0, 78, 0
3, 26389, Note_on_c, 0, 72, 0
3, 26483, Note_on_c, 0, 66, 55
3, 26485, Note_on_c, 0, 60, 56
3, 26486, Note_on_c, 0, 57, 54
3, 26488, Note_on_c, 0, 47, 45
3, 26494, Control_c, 0, 64, 0
3, 26496, Note_on_c, 0, 64, 52
3, 26546, Control_c, 0, 64, 127
3, 26565, Note_on_c, 0, 57, 0
3, 26576, Note_on_c, 0, 47, 0
3, 26596, Note_on_c, 0, 60, 0
3, 26603, Note_on_c, 0, 64, 0
3, 26608, Note_on_c, 0, 66, 0
3, 26639, Control_c, 0, 64, 0
3, 26645, Note_on_c, 0, 68, 49
3, 26646, Note_on_c, 0, 61, 51
3, 26650, Note_on_c, 0, 64, 47
3, 26651, Note_on_c, 0, 45, 33
3, 26655, Note_on_c, 0, 52, 24
3, 26694, Note_on_c, 0, 45, 0
3, 26695, Control_c, 0, 64, 127
3, 26704, Note_on_c, 0, 52, 0
3, 26720, Note_on_c, 0, 61, 0
3, 26729, Note_on_c, 0, 64, 0
3, 26745, Note_on_c, 0, 68, 0
3, 26927, Note_on_c, 0, 76, 47
3, 26952, Note_on_c, 0, 76, 0
3, 26963, Note_on_c, 0, 83, 73
3, 26988, Note_on_c, 0, 83, 0
3, 27000, Control_c, 0, 64, 0
3, 27018, Note_on_c, 0, 64, 18
3, 27050, Note_on_c, 0, 64, 0
3, 27084, Note_on_c, 0, 73, 33
3, 27086, Note_on_c, 0, 69, 48
3, 27093, Note_on_c, 0, 64, 29
3, 27158, Control_c, 0, 64, 127
3, 27185, Note_on_c, 0, 69, 0
3, 27195, Note_on_c, 0, 54, 40
3, 27197, Note_on_c, 0, 73, 0
3, 27204, Control_c, 0, 64, 0
3, 27232, Note_on_c, 0, 54, 0
3, 27241, Note_on_c, 0, 64, 0
3, 27249, Note_on_c, 0, 76, 64
3, 27265, Note_on_c, 0, 76, 0
3, 27322, Note_on_c, 0, 83, 80
3, 27333, Control_c, 0, 64, 127
3, 27339, Note_on_c, 0, 83, 0
3, 27353, Control_c, 0, 64, 0
3, 27369, Note_on_c, 0, 80, 72
3, 27370, Note_on_c, 0, 68, 64
3, 27371, Note_on_c, 0, 75, 57
3, 27373, Note_on_c, 0, 69, 53
3, 27375, Note_on_c, 0, 67, 35
3, 27380, Note_on_c, 0, 80, 0
3, 27381, Note_on_c, 0, 69, 0
3, 27385, Note_on_c, 0, 67, 0
3, 27389, Note_on_c, 0, 75, 0
3, 27393, Note_on_c, 0, 68, 0
3, 27437, Note_on_c, 0, 78, 58
3, 27438, Note_on_c, 0, 66, 61
3, 27439, Note_on_c, 0, 69, 64
3, 27440, Note_on_c, 0, 73, 35
3, 27441, Note_on_c, 0, 75, 38
3, 27462, Note_on_c, 0, 69, 0
3, 27465, Note_on_c, 0, 78, 0
3, 27472, Note_on_c, 0, 75, 0
3, 27474, Note_on_c, 0, 73, 0
3, 27475, Note_on_c, 0, 66, 0
3, 27486, Note_on_c, 0, 69, 40
3, 27486, Note_on_c, 0, 76, 54
3, 27488, Note_on_c, 0, 73, 25
3, 27494, Note_on_c, 0, 64, 15
3, 27541, Note_on_c, 0, 69, 0
3, 27547, Note_on_c, 0, 73, 0
3, 27564, Note_on_c, 0, 64, 0
3, 27570, Note_on_c, 0, 76, 0
3, 27605, Note_on_c, 0, 78, 48
3, 27610, Note_on_c, 0, 69, 42
3, 27610, Note_on_c, 0, 73, 31
3, 27648, Control_c, 0, 64, 127
3, 27649, Note_on_c, 0, 69, 0
3, 27656, Note_on_c, 0, 78, 0
3, 27657, Note_on_c, 0, 73, 0
3, 27726, Control_c, 0, 64, 0
3, 27735, Note_on_c, 0, 78, 57
3, 27738, Note_on_c, 0, 75, 55
3, 27738, Note_on_c, 0, 69, 56
3, 27816, Note_on_c, 0, 64, 39
3, 27848, Control_c, 0, 64, 127
3, 27855, Note_on_c, 0, 69, 0
3, 27870, Note_on_c, 0, 75, 0
3, 27894, Note_on_c, 0, 78, 0
3, 27898, Note_on_c, 0, 64, 0
3, 27925, Note_on_c, 0, 80, 74
3, 27926, Control_c, 0, 64, 0
3, 27927, Note_on_c, 0, 76, 72
3, 27927, Note_on_c, 0, 71, 81
3, 27929, Note_on_c, 0, 64, 55
3, 27958, Control_c, 0, 64, 127
3, 27964, Note_on_c, 0, 80, 0
3, 27970, Note_on_c, 0, 76, 0
3, 27975, Note_on_c, 0, 64, 0
3, 27979, Note_on_c, 0, 71, 0
3, 28019, Control_c, 0, 64, 0
3, 28021, Note_on_c, 0, 76, 74
3, 28022, Note_on_c, 0, 72, 67
3, 28022, Note_on_c, 0, 67, 70
3, 28024, Note_on_c, 0, 56, 60
3, 28024, Note_on_c, 0, 62, 51
3, 28055, Control_c, 0, 64, 127
3, 28065, Note_on_c, 0, 76, 0
3, 28073, Note_on_c, 0, 72, 0
3, 28076, Note_on_c, 0, 62, 0
3, 28084, Note_on_c, 0, 67, 0
3, 28099, Note_on_c, 0, 56, 0
3, 28117, Control_c, 0, 64, 0
3, 28121, Note_on_c, 0, 71, 80
3, 28123, Note_on_c, 0, 68, 59
3, 28124, Note_on_c, 0, 57, 50
3, 28127, Note_on_c, 0, 73, 33
3, 28227, Control_c, 0, 64, 127
3, 28286, Note_on_c, 0, 68, 0
3, 28340, Note_on_c, 0, 68, 36
3, 28363, Note_on_c, 0, 71, 0
3, 28373, Note_on_c, 0, 57, 0
3, 28384, Note_on_c, 0, 68, 0
3, 28431, Note_on_c, 0, 73, 0
3, 28445, Note_on_c, 0, 71, 45
3, 28448, Control_c, 0, 64, 0
3, 28448, Note_on_c, 0, 68, 31
3, 28448, Note_on_c, 0, 64, 31
3, 28452, Note_on_c, 0, 56, 28
3, 28486, Control_c, 0, 64, 127
3, 28533, Note_on_c, 0, 56, 0
3, 28622, Note_on_c, 0, 64, 0
3, 28666, Note_on_c, 0, 68, 0
3, 28671, Note_on_c, 0, 71, 0
3, 28762, Note_on_c, 0, 54, 28
3, 28782, Note_on_c, 0, 54, 0
3, 28791, Control_c, 0, 64, 0
3, 28795, Note_on_c, 0, 56, 50
3, 28797, Note_on_c, 0, 80, 65
3, 28808, Note_on_c, 0, 56, 0
3, 28816, Note_on_c, 0, 80, 0
3, 28882, Note_on_c, 0, 54, 45
3, 28884, Note_on_c, 0, 78, 53
3, 28966, Note_on_c, 0, 54, 0
3, 28968, Note_on_c, 0, 78, 0
3, 28971, Note_on_c, 0, 76, 64
3, 28972, Note_on_c, 0, 52, 41
3, 29046, Note_on_c, 0, 76, 0
3, 29049, Note_on_c, 0, 52, 0
3, 29054, Note_on_c, 0, 54, 45
3, 29054, Note_on_c, 0, 78, 54
3, 29120, Control_c, 0, 64, 127
3, 29168, Note_on_c, 0, 78, 0
3, 29168, Note_on_c, 0, 54, 0
3, 29183, Note_on_c, 0, 78, 40
3, 29185, Note_on_c, 0, 54, 48
3, 29188, Control_c, 0, 64, 0
3, 29292, Control_c, 0, 64, 127
3, 29321, Note_on_c, 0, 54, 0
3, 29415, Note_on_c, 0, 78, 0
3, 29446, Note_on_c, 0, 76, 59
3, 29478, Note_on_c, 0, 76, 0
3, 29483, Note_on_c, 0, 72, 50
3, 29513, Note_on_c, 0, 72, 0
3, 29513, Control_c, 0, 64, 0
3, 29527, Note_on_c, 0, 71, 60
3, 29528, Note_on_c, 0, 60, 40
3, 29529, Note_on_c, 0, 59, 28
3, 29535, Note_on_c, 0, 64, 22
3, 29631, Control_c, 0, 64, 127
3, 29693, Note_on_c, 0, 71, 0
3, 29748, Note_on_c, 0, 64, 0
3, 29756, Note_on_c, 0, 60, 0
3, 29763, Note_on_c, 0, 59, 0
3, 29808, Note_on_c, 0, 74, 43
3, 29822, Note_on_c, 0, 74, 0
3, 29841, Note_on_c, 0, 78, 69
3, 29866, Note_on_c, 0, 78, 0
3, 29874, Note_on_c, 0, 83, 79
3, 29886, Control_c, 0, 64, 0
3, 29895, Note_on_c, 0, 57, 24
3, 29898, Note_on_c, 0, 52, 33
3, 29906, Note_on_c, 0, 81, 69
3, 29909, Note_on_c, 0, 83, 0
3, 29929, Note_on_c, 0, 81, 0
3, 29945, Note_on_c, 0, 79, 58
3, 29962, Note_on_c, 0, 79, 0
3, 29976, Note_on_c, 0, 78, 59
3, 29997, Note_on_c, 0, 78, 0
3, 30009, Note_on_c, 0, 76, 50
3, 30024, Note_on_c, 0, 76, 0
3, 30075, Note_on_c, 0, 71, 79
3, 30096, Note_on_c, 0, 71, 0
3, 30113, Note_on_c, 0, 57, 0
3, 30122, Note_on_c, 0, 69, 64
3, 30126, Note_on_c, 0, 52, 0
3, 30141, Note_on_c, 0, 69, 0
3, 30161, Note_on_c, 0, 66, 34
3, 30182, Note_on_c, 0, 66, 0
3, 30195, Note_on_c, 0, 71, 73
3, 30228, Note_on_c, 0, 71, 0
3, 30233, Note_on_c, 0, 66, 52
3, 30259, Note_on_c, 0, 66, 0
3, 30274, Note_on_c, 0, 69, 63
3, 30300, Note_on_c, 0, 69, 0
3, 30317, Note_on_c, 0, 64, 35
3, 30337, Note_on_c, 0, 64, 0
3, 30352, Note_on_c, 0, 62, 56
3, 30380, Note_on_c, 0, 62, 0
3, 30407, Note_on_c, 0, 60, 10
3, 30443, Note_on_c, 0, 60, 0
3, 30453, Note_on_c, 0, 59, 57
3, 30474, Note_on_c, 0, 59, 0
3, 30488, Note_on_c, 0, 62, 65
3, 30546, Control_c, 0, 64, 127
3, 30556, Note_on_c, 0, 62, 0
3, 30561, Note_on_c, 0, 59, 27
3, 30583, Note_on_c, 0, 59, 0
3, 30588, Control_c, 0, 64, 0
3, 30604, Note_on_c, 0, 40, 32
3, 30606, Note_on_c, 0, 59, 35
3, 30672, Note_on_c, 0, 54, 47
3, 30722, Control_c, 0, 64, 127
3, 30723, Note_on_c, 0, 40, 0
3, 30754, Note_on_c, 0, 54, 0
3, 30759, Note_on_c, 0, 59, 0
3, 30841, Control_c, 0, 64, 0
3, 30851, Note_on_c, 0, 59, 28
3, 30865, Note_on_c, 0, 59, 0
3, 30877, Note_on_c, 0, 60, 49
3, 30895, Note_on_c, 0, 60, 0
3, 30967, Control_c, 0, 64, 127
3, 30968, Note_on_c, 0, 59, 60
3, 30975, Control_c, 0, 64, 0
3, 30989, Note_on_c, 0, 59, 0
3, 31004, Note_on_c, 0, 60, 50
3, 31025, Note_on_c, 0, 60, 0
3, 31038, Note_on_c, 0, 64, 72
3, 31071, Note_on_c, 0, 64, 0
3, 31076, Note_on_c, 0, 67, 74
3, 31111, Note_on_c, 0, 67, 0
3, 31146, Note_on_c, 0, 64, 68
3, 31169, Note_on_c, 0, 64, 0
3, 31179, Note_on_c, 0, 67, 77
3, 31202, Note_on_c, 0, 67, 0
3, 31216, Note_on_c, 0, 71, 83
3, 31248, Note_on_c, 0, 71, 0
3, 31251, Note_on_c, 0, 74, 80
3, 31280, Note_on_c, 0, 74, 0
3, 31296, Note_on_c, 0, 69, 38
3, 31298, Note_on_c, 0, 71, 53
3, 31316, Note_on_c, 0, 69, 0
3, 31322, Note_on_c, 0, 71, 0
3, 31330, Note_on_c, 0, 74, 77
3, 31358, Note_on_c, 0, 74, 0
3, 31368, Note_on_c, 0, 78, 76
3, 31397, Note_on_c, 0, 78, 0
3, 31404, Note_on_c, 0, 79, 69
3, 31429, Note_on_c, 0, 79, 0
3, 31438, Note_on_c, 0, 78, 67
3, 31446, Note_on_c, 0, 62, 44
3, 31450, Note_on_c, 0, 59, 36
3, 31454, Note_on_c, 0, 52, 27
3, 31460, Note_on_c, 0, 62, 0
3, 31465, Note_on_c, 0, 52, 0
3, 31465, Note_on_c, 0, 59, 0
3, 31477, Note_on_c, 0, 74, 62
3, 31498, Note_on_c, 0, 74, 0
3, 31498, Note_on_c, 0, 78, 0
3, 31510, Note_on_c, 0, 71, 53
3, 31534, Note_on_c, 0, 71, 0
3, 31550, Note_on_c, 0, 66, 59
3, 31587, Note_on_c, 0, 66, 0
3, 31591, Note_on_c, 0, 62, 45
3, 31602, Note_on_c, 0, 62, 0
3, 31626, Note_on_c, 0, 64, 53
3, 31633, Control_c, 0, 64, 127
3, 31647, Note_on_c, 0, 64, 0
3, 31657, Note_on_c, 0, 69, 61
3, 31681, Note_on_c, 0, 69, 0
3, 31691, Control_c, 0, 64, 0
3, 31695, Note_on_c, 0, 67, 60
3, 31698, Note_on_c, 0, 55, 29
3, 31699, Note_on_c, 0, 45, 30
3, 31757, Note_on_c, 0, 60, 37
3, 31795, Note_on_c, 0, 45, 0
3, 31795, Control_c, 0, 64, 127
3, 31812, Note_on_c, 0, 55, 0
3, 31832, Note_on_c, 0, 67, 0
3, 31841, Note_on_c, 0, 60, 0
3, 31847, Note_on_c, 0, 64, 41
3, 31869, Note_on_c, 0, 64, 0
3, 31882, Note_on_c, 0, 67, 80
3, 31914, Control_c, 0, 64, 0
3, 31919, Note_on_c, 0, 67, 0
3, 31923, Note_on_c, 0, 66, 60
3, 31924, Note_on_c, 0, 57, 36
3, 31928, Note_on_c, 0, 54, 20
3, 31940, Note_on_c, 0, 57, 0
3, 31942, Control_c, 0, 64, 127
3, 31954, Note_on_c, 0, 54, 0
3, 31979, Note_on_c, 0, 66, 0
3, 32043, Note_on_c, 0, 57, 32
3, 32044, Control_c, 0, 64, 0
3, 32047, Note_on_c, 0, 65, 17
3, 32047, Note_on_c, 0, 55, 33
3, 32047, Note_on_c, 0, 60, 35
3, 32093, Note_on_c, 0, 72, 72
3, 32126, Note_on_c, 0, 72, 0
3, 32126, Note_on_c, 0, 69, 60
3, 32136, Note_on_c, 0, 65, 0
3, 32137, Note_on_c, 0, 60, 0
3, 32139, Note_on_c, 0, 57, 0
3, 32142, Note_on_c, 0, 55, 0
3, 32152, Note_on_c, 0, 69, 0
3, 32166, Note_on_c, 0, 71, 80
3, 32169, Note_on_c, 0, 59, 66
3, 32169, Note_on_c, 0, 64, 55
3, 32175, Note_on_c, 0, 53, 43
3, 32202, Note_on_c, 0, 71, 0
3, 32209, Note_on_c, 0, 74, 77
3, 32213, Note_on_c, 0, 71, 27
3, 32223, Note_on_c, 0, 71, 0
3, 32242, Note_on_c, 0, 74, 0
3, 32281, Control_c, 0, 64, 127
3, 32284, Note_on_c, 0, 75, 76
3, 32315, Note_on_c, 0, 75, 0
3, 32321, Note_on_c, 0, 59, 0
3, 32322, Note_on_c, 0, 64, 0
3, 32323, Note_on_c, 0, 79, 72
3, 32339, Note_on_c, 0, 53, 0
3, 32355, Note_on_c, 0, 79, 0
3, 32391, Control_c, 0, 64, 0
3, 32397, Note_on_c, 0, 77, 80
3, 32406, Note_on_c, 0, 52, 35
3, 32409, Note_on_c, 0, 59, 28
3, 32413, Note_on_c, 0, 62, 15
3, 32443, Note_on_c, 0, 77, 0
3, 32449, Note_on_c, 0, 76, 56
3, 32469, Note_on_c, 0, 62, 0
3, 32470, Note_on_c, 0, 76, 0
3, 32485, Note_on_c, 0, 72, 62
3, 32507, Note_on_c, 0, 72, 0
3, 32526, Note_on_c, 0, 67, 55
3, 32529, Control_c, 0, 64, 127
3, 32616, Control_c, 0, 64, 0
3, 32621, Note_on_c, 0, 67, 0
3, 32632, Control_c, 0, 64, 127
3, 32644, Note_on_c, 0, 59, 0
3, 32644, Note_on_c, 0, 67, 44
3, 32655, Note_on_c, 0, 52, 0
3, 32689, Note_on_c, 0, 67, 0
3, 32722, Note_on_c, 0, 47, 44
3, 32746, Control_c, 0, 64, 0
3, 32764, Note_on_c, 0, 66, 44
3, 32766, Note_on_c, 0, 71, 54
3, 32770, Note_on_c, 0, 57, 19
3, 32772, Control_c, 0, 64, 127
3, 32775, Note_on_c, 0, 47, 0
3, 32788, Note_on_c, 0, 57, 0
3, 32789, Note_on_c, 0, 66, 0
3, 32796, Note_on_c, 0, 71, 0
3, 32840, Note_on_c, 0, 67, 60
3, 32854, Note_on_c, 0, 67, 0
3, 32879, Note_on_c, 0, 72, 51
3, 32892, Note_on_c, 0, 72, 0
3, 32919, Note_on_c, 0, 76, 83
3, 32943, Note_on_c, 0, 76, 0
3, 32956, Note_on_c, 0, 76, 94
3, 32958, Note_on_c, 0, 79, 82
3, 32967, Note_on_c, 0, 56, 56
3, 32967, Note_on_c, 0, 62, 57
3, 32967, Note_on_c, 0, 67, 62
3, 32970, Control_c, 0, 64, 0
3, 32994, Note_on_c, 0, 76, 0
3, 32996, Note_on_c, 0, 79, 0
3, 33001, Note_on_c, 0, 74, 75
3, 33001, Note_on_c, 0, 77, 67
3, 33007, Control_c, 0, 64, 127
3, 33046, Note_on_c, 0, 67, 0
3, 33059, Note_on_c, 0, 62, 0
3, 33062, Note_on_c, 0, 74, 0
3, 33063, Note_on_c, 0, 56, 0
3, 33066, Note_on_c, 0, 77, 0
3, 33077, Note_on_c, 0, 72, 66
3, 33078, Note_on_c, 0, 56, 53
3, 33078, Note_on_c, 0, 76, 67
3, 33083, Note_on_c, 0, 62, 32
3, 33088, Note_on_c, 0, 77, 31
3, 33092, Note_on_c, 0, 62, 0
3, 33096, Note_on_c, 0, 72, 0
3, 33099, Note_on_c, 0, 77, 0
3, 33101, Note_on_c, 0, 56, 0
3, 33112, Note_on_c, 0, 76, 0
3, 33123, Control_c, 0, 64, 0
3, 33126, Note_on_c, 0, 74, 69
3, 33126, Note_on_c, 0, 57, 50
3, 33127, Note_on_c, 0, 64, 45
3, 33127, Note_on_c, 0, 71, 58
3, 33129, Note_on_c, 0, 60, 57
3, 33227, Note_on_c, 0, 71, 0
3, 33229, Control_c, 0, 64, 127
3, 33236, Note_on_c, 0, 74, 0
3, 33306, Note_on_c, 0, 64, 0
3, 33310, Note_on_c, 0, 72, 75
3, 33316, Note_on_c, 0, 60, 0
3, 33339, Note_on_c, 0, 57, 0
3, 33372, Note_on_c, 0, 71, 64
3, 33378, Note_on_c, 0, 72, 0
3, 33429, Note_on_c, 0, 71, 0
3, 33443, Note_on_c, 0, 69, 60
3, 33472, Note_on_c, 0, 69, 0
3, 33498, Control_c, 0, 64, 0
3, 33498, Note_on_c, 0, 69, 53
3, 33499, Note_on_c, 0, 47, 32
3, 33501, Note_on_c, 0, 57, 25
3, 33596, Control_c, 0, 64, 127
3, 33630, Note_on_c, 0, 57, 0
3, 33677, Note_on_c, 0, 57, 34
3, 33689, Control_c, 0, 64, 0
3, 33709, Control_c, 0, 64, 127
3, 33723, Note_on_c, 0, 47, 0
3, 33733, Note_on_c, 0, 57, 0
3, 33741, Note_on_c, 0, 69, 0
3, 33848, Note_on_c, 0, 54, 33
3, 33849, Control_c, 0, 64, 0
3, 33851, Note_on_c, 0, 61, 35
3, 33857, Note_on_c, 0, 64, 27
3, 33858, Note_on_c, 0, 59, 31
3, 33961, Note_on_c, 0, 64, 0
3, 33970, Note_on_c, 0, 59, 0
3, 33973, Note_on_c, 0, 73, 57
3, 33999, Note_on_c, 0, 73, 0
3, 34004, Note_on_c, 0, 61, 0
3, 34011, Note_on_c, 0, 64, 46
3, 34032, Note_on_c, 0, 64, 0
3, 34034, Control_c, 0, 64, 127
3, 34051, Note_on_c, 0, 66, 64
3, 34068, Control_c, 0, 64, 0
3, 34084, Note_on_c, 0, 61, 31
3, 34091, Note_on_c, 0, 68, 46
3, 34097, Note_on_c, 0, 66, 0
3, 34117, Note_on_c, 0, 68, 0
3, 34127, Note_on_c, 0, 69, 66
3, 34147, Note_on_c, 0, 61, 0
3, 34152, Note_on_c, 0, 69, 0
3, 34154, Note_on_c, 0, 54, 0
3, 34156, Control_c, 0, 64, 127
3, 34166, Note_on_c, 0, 71, 81
3, 34198, Note_on_c, 0, 71, 0
3, 34200, Control_c, 0, 64, 0
3, 34205, Note_on_c, 0, 61, 38
3, 34206, Note_on_c, 0, 73, 63
3, 34208, Note_on_c, 0, 64, 36
3, 34208, Note_on_c, 0, 71, 58
3, 34209, Note_on_c, 0, 57, 45
3, 34211, Note_on_c, 0, 54, 26
3, 34228, Note_on_c, 0, 71, 0
3, 34246, Note_on_c, 0, 73, 0
3, 34250, Note_on_c, 0, 76, 69
3, 34290, Note_on_c, 0, 69, 63
3, 34329, Note_on_c, 0, 76, 0
3, 34356, Note_on_c, 0, 64, 0
3, 34361, Note_on_c, 0, 61, 0
3, 34367, Note_on_c, 0, 57, 0
3, 34445, Note_on_c, 0, 61, 38
3, 34447, Control_c, 0, 64, 127
3, 34449, Note_on_c, 0, 64, 28
3, 34463, Note_on_c, 0, 64, 0
3, 34464, Note_on_c, 0, 54, 0
3, 34473, Note_on_c, 0, 61, 0
3, 34494, Note_on_c, 0, 69, 0
3, 34563, Control_c, 0, 64, 0
3, 34566, Note_on_c, 0, 68, 77
3, 34566, Note_on_c, 0, 80, 81
3, 34566, Note_on_c, 0, 73, 68
3, 34567, Note_on_c, 0, 69, 83
3, 34589, Note_on_c, 0, 69, 0
3, 34592, Note_on_c, 0, 68, 0
3, 34593, Note_on_c, 0, 73, 0
3, 34597, Note_on_c, 0, 80, 0
3, 34682, Note_on_c, 0, 78, 74
3, 34711, Note_on_c, 0, 78, 0
3, 34767, Note_on_c, 0, 76, 82
3, 34768, Note_on_c, 0, 68, 48
3, 34769, Note_on_c, 0, 63, 44
3, 34779, Note_on_c, 0, 68, 0
3, 34789, Note_on_c, 0, 63, 0
3, 34791, Note_on_c, 0, 76, 0
3, 34828, Note_on_c, 0, 74, 25
3, 34835, Note_on_c, 0, 74, 0
3, 34888, Note_on_c, 0, 73, 54
3, 34904, Control_c, 0, 64, 127
3, 34912, Control_c, 0, 64, 0
3, 34914, Note_on_c, 0, 73, 0
3, 34949, Note_on_c, 0, 75, 60
3, 34950, Note_on_c, 0, 66, 59
3, 34955, Note_on_c, 0, 71, 62
3, 35012, Note_on_c, 0, 66, 0
3, 35013, Note_on_c, 0, 75, 0
3, 35016, Note_on_c, 0, 71, 0
3, 35038, Note_on_c, 0, 75, 60
3, 35039, Note_on_c, 0, 71, 64
3, 35041, Note_on_c, 0, 66, 50
3, 35064, Control_c, 0, 64, 127
3, 35085, Note_on_c, 0, 71, 0
3, 35088, Note_on_c, 0, 66, 0
3, 35100, Note_on_c, 0, 75, 0
3, 35121, Control_c, 0, 64, 0
3, 35123, Note_on_c, 0, 76, 66
3, 35123, Note_on_c, 0, 71, 65
3, 35125, Note_on_c, 0, 64, 53
3, 35126, Note_on_c, 0, 68, 51
3, 35128, Note_on_c, 0, 74, 53
3, 35129, Note_on_c, 0, 59, 50
3, 35139, Note_on_c, 0, 59, 0
3, 35147, Note_on_c, 0, 64, 0
3, 35152, Note_on_c, 0, 68, 0
3, 35155, Note_on_c, 0, 74, 0
3, 35155, Note_on_c, 0, 71, 0
3, 35165, Control_c, 0, 64, 127
3, 35175, Note_on_c, 0, 76, 0
3, 35187, Control_c, 0, 64, 0
3, 35202, Note_on_c, 0, 72, 72
3, 35204, Note_on_c, 0, 67, 71
3, 35206, Note_on_c, 0, 62, 48
3, 35206, Note_on_c, 0, 56, 52
3, 35229, Control_c, 0, 64, 127
3, 35248, Note_on_c, 0, 62, 0
3, 35258, Note_on_c, 0, 72, 0
3, 35259, Note_on_c, 0, 67, 0
3, 35262, Note_on_c, 0, 56, 0
3, 35289, Control_c, 0, 64, 0
3, 35292, Note_on_c, 0, 61, 43
3, 35293, Note_on_c, 0, 64, 54
3, 35293, Note_on_c, 0, 73, 60
3, 35297, Note_on_c, 0, 59, 53
3, 35298, Note_on_c, 0, 54, 28
3, 35373, Note_on_c, 0, 64, 0
3, 35396, Note_on_c, 0, 73, 0
3, 35403, Control_c, 0, 64, 127
3, 35407, Note_on_c, 0, 64, 59
3, 35414, Note_on_c, 0, 59, 0
3, 35431, Note_on_c, 0, 64, 0
3, 35433, Note_on_c, 0, 61, 0
3, 35447, Note_on_c, 0, 64, 64
3, 35468, Note_on_c, 0, 64, 0
3, 35488, Note_on_c, 0, 61, 46
3, 35488, Note_on_c, 0, 66, 82
3, 35490, Control_c, 0, 64, 0
3, 35501, Note_on_c, 0, 59, 24
3, 35515, Note_on_c, 0, 66, 0
3, 35529, Note_on_c, 0, 66, 74
3, 35552, Note_on_c, 0, 66, 0
3, 35564, Note_on_c, 0, 59, 0
3, 35569, Note_on_c, 0, 68, 88
3, 35593, Note_on_c, 0, 68, 0
3, 35594, Note_on_c, 0, 61, 0
3, 35598, Control_c, 0, 64, 127
3, 35600, Note_on_c, 0, 54, 0
3, 35607, Note_on_c, 0, 68, 73
3, 35637, Note_on_c, 0, 68, 0
3, 35647, Note_on_c, 0, 69, 84
3, 35648, Control_c, 0, 64, 0
3, 35677, Note_on_c, 0, 69, 0
3, 35690, Note_on_c, 0, 69, 73
3, 35694, Control_c, 0, 64, 127
3, 35716, Note_on_c, 0, 69, 0
3, 35716, Control_c, 0, 64, 0
3, 35730, Note_on_c, 0, 71, 80
3, 35757, Note_on_c, 0, 71, 0
3, 35764, Control_c, 0, 64, 127
3, 35770, Note_on_c, 0, 71, 74
3, 35797, Note_on_c, 0, 71, 0
3, 35808, Note_on_c, 0, 73, 50
3, 35826, Note_on_c, 0, 73, 0
3, 35845, Note_on_c, 0, 73, 50
3, 35870, Note_on_c, 0, 73, 0
3, 35879, Control_c, 0, 64, 0
3, 35884, Note_on_c, 0, 75, 64
3, 35908, Note_on_c, 0, 75, 0
3, 35917, Control_c, 0, 64, 127
3, 35922, Note_on_c, 0, 75, 48
3, 35949, Control_c, 0, 64, 0
3, 35952, Note_on_c, 0, 75, 0
3, 35965, Note_on_c, 0, 76, 67
3, 35966, Note_on_c, 0, 64, 60
3, 35978, Note_on_c, 0, 57, 22
3, 35980, Note_on_c, 0, 54, 9
3, 35989, Note_on_c, 0, 64, 0
3, 35990, Note_on_c, 0, 76, 0
3, 35993, Control_c, 0, 64, 127
3, 36006, Note_on_c, 0, 76, 54
3, 36007, Note_on_c, 0, 64, 40
3, 36018, Note_on_c, 0, 64, 0
3, 36023, Control_c, 0, 64, 0
3, 36028, Note_on_c, 0, 76, 0
3, 36037, Note_on_c, 0, 54, 0
3, 36047, Control_c, 0, 64, 127
3, 36049, Note_on_c, 0, 78, 58
3, 36052, Note_on_c, 0, 66, 52
3, 36059, Note_on_c, 0, 56, 15
3, 36065, Note_on_c, 0, 66, 0
3, 36065, Note_on_c, 0, 78, 0
3, 36083, Note_on_c, 0, 78, 49
3, 36085, Note_on_c, 0, 66, 49
3, 36097, Note_on_c, 0, 57, 0
3, 36101, Note_on_c, 0, 56, 0
3, 36108, Note_on_c, 0, 78, 0
3, 36108, Note_on_c, 0, 66, 0
3, 36116, Control_c, 0, 64, 0
3, 36128, Note_on_c, 0, 54, 47
3, 36132, Note_on_c, 0, 81, 47
3, 36132, Note_on_c, 0, 69, 60
3, 36135, Note_on_c, 0, 64, 25
3, 36145, Note_on_c, 0, 64, 0
3, 36149, Note_on_c, 0, 69, 0
3, 36149, Note_on_c, 0, 81, 0
3, 36152, Control_c, 0, 64, 127
3, 36160, Note_on_c, 0, 54, 0
3, 36172, Note_on_c, 0, 81, 54
3, 36173, Note_on_c, 0, 69, 53
3, 36183, Note_on_c, 0, 69, 0
3, 36189, Note_on_c, 0, 81, 0
3, 36204, Control_c, 0, 64, 0
3, 36250, Control_c, 0, 64, 127
3, 36255, Note_on_c, 0, 47, 41
3, 36259, Note_on_c, 0, 57, 30
3, 36282, Note_on_c, 0, 47, 0
3, 36298, Note_on_c, 0, 57, 0
3, 36364, Control_c, 0, 64, 0
3, 36368, Note_on_c, 0, 78, 60
3, 36369, Note_on_c, 0, 74, 70
3, 36370, Note_on_c, 0, 69, 60
3, 36372, Note_on_c, 0, 64, 53
3, 36392, Control_c, 0, 64, 127
3, 36446, Note_on_c, 0, 69, 0
3, 36450, Note_on_c, 0, 64, 0
3, 36450, Note_on_c, 0, 74, 0
3, 36458, Note_on_c, 0, 78, 0
3, 36557, Control_c, 0, 64, 0
3, 36560, Note_on_c, 0, 79, 94
3, 36560, Note_on_c, 0, 62, 70
3, 36561, Note_on_c, 0, 67, 77
3, 36562, Note_on_c, 0, 56, 62
3, 36587, Note_on_c, 0, 79, 0
3, 36598, Note_on_c, 0, 76, 69
3, 36600, Note_on_c, 0, 67, 0
3, 36616, Note_on_c, 0, 62, 0
3, 36624, Note_on_c, 0, 76, 0
3, 36634, Note_on_c, 0, 72, 65
3, 36635, Note_on_c, 0, 56, 0
3, 36663, Note_on_c, 0, 72, 0
3, 36670, Note_on_c, 0, 69, 58
3, 36673, Control_c, 0, 64, 127
3, 36689, Note_on_c, 0, 69, 0
3, 36714, Note_on_c, 0, 64, 48
3, 36735, Control_c, 0, 64, 0
3, 36746, Note_on_c, 0, 64, 0
3, 36755, Note_on_c, 0, 45, 20
3, 36758, Note_on_c, 0, 55, 30
3, 36759, Note_on_c, 0, 52, 33
3, 36763, Note_on_c, 0, 59, 28
3, 36807, Note_on_c, 0, 59, 0
3, 36835, Note_on_c, 0, 59, 62
3, 36837, Control_c, 0, 64, 127
3, 36876, Control_c, 0, 64, 0
3, 36902, Note_on_c, 0, 55, 0
3, 36903, Note_on_c, 0, 52, 0
3, 36925, Note_on_c, 0, 52, 44
3, 36926, Note_on_c, 0, 55, 24
3, 36936, Note_on_c, 0, 55, 0
3, 36941, Note_on_c, 0, 45, 0
3, 36946, Note_on_c, 0, 52, 0
3, 36956, Control_c, 0, 64, 127
3, 37007, Note_on_c, 0, 59, 0
3, 37008, Note_on_c, 0, 60, 66
3, 37037, Note_on_c, 0, 60, 0
3, 37046, Note_on_c, 0, 64, 68
3, 37077, Note_on_c, 0, 64, 0
3, 37087, Note_on_c, 0, 67, 74
3, 37090, Control_c, 0, 64, 0
3, 37094, Note_on_c, 0, 52, 35
3, 37114, Note_on_c, 0, 67, 0
3, 37132, Note_on_c, 0, 66, 34
3, 37149, Note_on_c, 0, 66, 0
3, 37161, Note_on_c, 0, 67, 60
3, 37193, Note_on_c, 0, 69, 68
3, 37195, Note_on_c, 0, 67, 0
3, 37218, Note_on_c, 0, 69, 0
3, 37224, Note_on_c, 0, 70, 67
3, 37240, Note_on_c, 0, 70, 0
3, 37255, Note_on_c, 0, 71, 68
3, 37276, Note_on_c, 0, 71, 0
3, 37288, Note_on_c, 0, 76, 65
3, 37307, Note_on_c, 0, 76, 0
3, 37319, Note_on_c, 0, 78, 49
3, 37325, Note_on_c, 0, 79, 44
3, 37334, Note_on_c, 0, 79, 0
3, 37338, Note_on_c, 0, 78, 0
3, 37348, Note_on_c, 0, 79, 66
3, 37372, Note_on_c, 0, 52, 0
3, 37381, Note_on_c, 0, 79, 0
3, 37382, Note_on_c, 0, 78, 63
3, 37400, Note_on_c, 0, 78, 0
3, 37409, Note_on_c, 0, 79, 82
3, 37442, Note_on_c, 0, 78, 62
3, 37443, Note_on_c, 0, 79, 0
3, 37464, Note_on_c, 0, 78, 0
3, 37469, Note_on_c, 0, 76, 67
3, 37494, Note_on_c, 0, 76, 0
3, 37505, Note_on_c, 0, 71, 60
3, 37515, Note_on_c, 0, 71, 0
3, 37568, Note_on_c, 0, 71, 69
3, 37585, Note_on_c, 0, 71, 0
3, 37641, Note_on_c, 0, 71, 66
3, 37656, Note_on_c, 0, 57, 26
3, 37659, Note_on_c, 0, 60, 30
3, 37660, Note_on_c, 0, 59, 22
3, 37698, Note_on_c, 0, 60, 0
3, 37699, Note_on_c, 0, 59, 0
3, 37711, Note_on_c, 0, 57, 0
3, 37761, Note_on_c, 0, 57, 28
3, 37777, Note_on_c, 0, 57, 0
3, 37809, Note_on_c, 0, 50, 24
3, 37810, Note_on_c, 0, 52, 26
3, 37819, Note_on_c, 0, 50, 0
3, 37825, Note_on_c, 0, 71, 0
3, 37915, Note_on_c, 0, 78, 50
3, 37918, Note_on_c, 0, 66, 62
3, 37947, Note_on_c, 0, 78, 0
3, 37950, Note_on_c, 0, 66, 0
3, 37953, Note_on_c, 0, 79, 44
3, 37954, Note_on_c, 0, 67, 54
3, 37961, Note_on_c, 0, 77, 33
3, 38002, Note_on_c, 0, 79, 0
3, 38007, Note_on_c, 0, 67, 0
3, 38009, Note_on_c, 0, 59, 27
3, 38021, Note_on_c, 0, 77, 0
3, 38031, Note_on_c, 0, 59, 0
3, 38037, Note_on_c, 0, 78, 46
3, 38039, Note_on_c, 0, 66, 56
3, 38059, Note_on_c, 0, 52, 0
3, 38064, Note_on_c, 0, 78, 0
3, 38068, Note_on_c, 0, 66, 0
3, 38076, Note_on_c, 0, 79, 49
3, 38079, Note_on_c, 0, 67, 54
3, 38084, Note_on_c, 0, 77, 27
3, 38125, Note_on_c, 0, 67, 0
3, 38140, Note_on_c, 0, 77, 0
3, 38148, Note_on_c, 0, 79, 0
3, 38164, Note_on_c, 0, 76, 60
3, 38165, Note_on_c, 0, 57, 33
3, 38166, Note_on_c, 0, 64, 22
3, 38167, Note_on_c, 0, 59, 35
3, 38167, Note_on_c, 0, 60, 43
3, 38237, Note_on_c, 0, 71, 62
3, 38282, Note_on_c, 0, 67, 51
3, 38293, Note_on_c, 0, 71, 0
3, 38320, Control_c, 0, 64, 127
3, 38398, Note_on_c, 0, 67, 0
3, 38407, Note_on_c, 0, 60, 0
3, 38410, Note_on_c, 0, 64, 0
3, 38412, Note_on_c, 0, 59, 0
3, 38422, Note_on_c, 0, 57, 0
3, 38422, Note_on_c, 0, 76, 0
3, 38536, Control_c, 0, 64, 0
3, 38596, Note_on_c, 0, 62, 49
3, 38596, Note_on_c, 0, 59, 53
3, 38597, Note_on_c, 0, 52, 44
3, 38608, Note_on_c, 0, 62, 0
3, 38610, Note_on_c, 0, 52, 0
3, 38616, Note_on_c, 0, 59, 0
3, 38774, Note_on_c, 0, 90, 78
3, 38798, Note_on_c, 0, 90, 0
3, 38810, Note_on_c, 0, 93, 91
3, 38819, Note_on_c, 0, 92, 33
3, 38826, Note_on_c, 0, 92, 0
3, 38838, Note_on_c, 0, 93, 0
3, 38855, Note_on_c, 0, 91, 88
3, 38883, Note_on_c, 0, 91, 0
3, 38898, Note_on_c, 0, 88, 81
3, 38922, Note_on_c, 0, 88, 0
3, 38937, Note_on_c, 0, 84, 76
3, 38960, Note_on_c, 0, 84, 0
3, 38976, Note_on_c, 0, 79, 35
3, 38977, Note_on_c, 0, 81, 35
3, 38989, Note_on_c, 0, 81, 0
3, 38994, Note_on_c, 0, 79, 0
3, 39016, Note_on_c, 0, 79, 30
3, 39026, Note_on_c, 0, 79, 0
3, 39062, Control_c, 0, 64, 127
3, 39086, Note_on_c, 0, 54, 71
3, 39086, Note_on_c, 0, 64, 80
3, 39087, Note_on_c, 0, 60, 80
3, 39088, Control_c, 0, 64, 0
3, 39173, Note_on_c, 0, 78, 63
3, 39190, Control_c, 0, 64, 127
3, 39195, Note_on_c, 0, 60, 0
3, 39198, Note_on_c, 0, 78, 0
3, 39205, Note_on_c, 0, 54, 0
3, 39209, Note_on_c, 0, 64, 0
3, 39211, Note_on_c, 0, 81, 72
3, 39244, Note_on_c, 0, 81, 0
3, 39246, Control_c, 0, 64, 0
3, 39251, Note_on_c, 0, 69, 52
3, 39251, Note_on_c, 0, 55, 48
3, 39252, Note_on_c, 0, 77, 68
3, 39252, Note_on_c, 0, 65, 66
3, 39253, Note_on_c, 0, 72, 58
3, 39253, Note_on_c, 0, 60, 66
3, 39276, Control_c, 0, 64, 127
3, 39327, Note_on_c, 0, 55, 66
3, 39371, Note_on_c, 0, 69, 0
3, 39378, Note_on_c, 0, 65, 0
3, 39379, Note_on_c, 0, 60, 0
3, 39385, Note_on_c, 0, 77, 0
3, 39389, Note_on_c, 0, 72, 0
3, 39391, Note_on_c, 0, 55, 0
3, 39392, Note_on_c, 0, 55, 0
3, 39481, Control_c, 0, 64, 0
3, 39485, Note_on_c, 0, 75, 80
3, 39486, Note_on_c, 0, 59, 68
3, 39486, Note_on_c, 0, 79, 70
3, 39487, Note_on_c, 0, 71, 85
3, 39487, Note_on_c, 0, 64, 66
3, 39489, Note_on_c, 0, 53, 62
3, 39518, Control_c, 0, 64, 127
3, 39526, Note_on_c, 0, 79, 0
3, 39556, Note_on_c, 0, 75, 0
3, 39559, Note_on_c, 0, 71, 0
3, 39562, Note_on_c, 0, 64, 0
3, 39570, Note_on_c, 0, 53, 0
3, 39571, Note_on_c, 0, 77, 77
3, 39572, Note_on_c, 0, 59, 0
3, 39604, Note_on_c, 0, 77, 0
3, 39625, Note_on_c, 0, 62, 45
3, 39625, Note_on_c, 0, 52, 37
3, 39626, Control_c, 0, 64, 0
3, 39626, Note_on_c, 0, 71, 66
3, 39627, Note_on_c, 0, 59, 34
3, 39628, Note_on_c, 0, 55, 48
3, 39628, Note_on_c, 0, 76, 55
3, 39699, Note_on_c, 0, 71, 0
3, 39702, Control_c, 0, 64, 127
3, 39709, Note_on_c, 0, 67, 63
3, 39852, Note_on_c, 0, 67, 0
3, 39858, Note_on_c, 0, 76, 0
3, 39859, Note_on_c, 0, 62, 0
3, 39873, Note_on_c, 0, 59, 0
3, 39875, Note_on_c, 0, 55, 0
3, 39886, Note_on_c, 0, 52, 0
3, 39893, Note_on_c, 0, 67, 50
3, 39908, Note_on_c, 0, 67, 0
3, 39928, Note_on_c, 0, 74, 48
3, 39932, Note_on_c, 0, 72, 51
3, 39940, Note_on_c, 0, 72, 0
3, 39949, Note_on_c, 0, 74, 0
3, 39965, Control_c, 0, 64, 0
3, 39965, Note_on_c, 0, 47, 40
3, 39967, Note_on_c, 0, 71, 56
3, 39969, Note_on_c, 0, 57, 36
3, 40041, Note_on_c, 0, 62, 51
3, 40043, Note_on_c, 0, 66, 46
3, 40081, Control_c, 0, 64, 127
3, 40146, Note_on_c, 0, 62, 0
3, 40174, Note_on_c, 0, 47, 0
3, 40181, Note_on_c, 0, 66, 0
3, 40186, Note_on_c, 0, 57, 0
3, 40189, Note_on_c, 0, 71, 0
3, 40243, Note_on_c, 0, 64, 39
3, 40258, Note_on_c, 0, 64, 0
3, 40277, Note_on_c, 0, 71, 63
3, 40306, Note_on_c, 0, 71, 0
3, 40316, Control_c, 0, 64, 0
3, 40322, Note_on_c, 0, 59, 32
3, 40324, Note_on_c, 0, 64, 26
3, 40325, Note_on_c, 0, 60, 38
3, 40328, Note_on_c, 0, 71, 60
3, 40432, Control_c, 0, 64, 127
3, 40461, Note_on_c, 0, 64, 0
3, 40462, Note_on_c, 0, 60, 0
3, 40464, Note_on_c, 0, 59, 0
3, 40483, Note_on_c, 0, 71, 0
3, 40523, Note_on_c, 0, 57, 51
3, 40537, Note_on_c, 0, 57, 0
3, 40605, Note_on_c, 0, 81, 55
3, 40628, Note_on_c, 0, 81, 0
3, 40638, Note_on_c, 0, 79, 49
3, 40656, Note_on_c, 0, 79, 0
3, 40671, Control_c, 0, 64, 0
3, 40677, Note_on_c, 0, 81, 60
3, 40698, Note_on_c, 0, 81, 0
3, 40712, Note_on_c, 0, 83, 57
3, 40729, Note_on_c, 0, 83, 0
3, 40777, Note_on_c, 0, 82, 63
3, 40781, Note_on_c, 0, 51, 30
3, 40782, Note_on_c, 0, 83, 71
3, 40783, Note_on_c, 0, 62, 26
3, 40784, Note_on_c, 0, 82, 0
3, 40789, Note_on_c, 0, 57, 27
3, 40799, Note_on_c, 0, 62, 0
3, 40800, Note_on_c, 0, 57, 0
3, 40806, Note_on_c, 0, 51, 0
3, 40810, Note_on_c, 0, 83, 0
3, 40846, Note_on_c, 0, 82, 50
3, 40855, Note_on_c, 0, 51, 35
3, 40858, Note_on_c, 0, 83, 56
3, 40858, Note_on_c, 0, 62, 30
3, 40861, Note_on_c, 0, 57, 39
3, 40867, Note_on_c, 0, 82, 0
3, 40921, Note_on_c, 0, 83, 0
3, 40937, Note_on_c, 0, 76, 48
3, 40945, Control_c, 0, 64, 127
3, 40993, Note_on_c, 0, 57, 0
3, 41001, Note_on_c, 0, 51, 0
3, 41011, Note_on_c, 0, 83, 59
3, 41013, Note_on_c, 0, 62, 0
3, 41045, Note_on_c, 0, 83, 0
3, 41046, Note_on_c, 0, 76, 0
3, 41058, Control_c, 0, 64, 0
3, 41063, Note_on_c, 0, 80, 53
3, 41123, Note_on_c, 0, 61, 34
3, 41126, Note_on_c, 0, 64, 28
3, 41127, Note_on_c, 0, 54, 23
3, 41133, Note_on_c, 0, 59, 26
3, 41142, Note_on_c, 0, 59, 0
3, 41145, Note_on_c, 0, 64, 0
3, 41146, Note_on_c, 0, 54, 0
3, 41148, Note_on_c, 0, 61, 0
3, 41282, Note_on_c, 0, 54, 23
3, 41283, Control_c, 0, 64, 127
3, 41283, Note_on_c, 0, 61, 29
3, 41285, Note_on_c, 0, 64, 24
3, 41294, Note_on_c, 0, 59, 17
3, 41363, Note_on_c, 0, 59, 0
3, 41376, Note_on_c, 0, 64, 0
3, 41380, Note_on_c, 0, 61, 0
3, 41385, Note_on_c, 0, 54, 0
3, 41409, Note_on_c, 0, 80, 0
3, 41488, Note_on_c, 0, 61, 28
3, 41489, Note_on_c, 0, 54, 25
3, 41491, Note_on_c, 0, 64, 24
3, 41491, Note_on_c, 0, 57, 39
3, 41491, Control_c, 0, 64, 0
3, 41563, Control_c, 0, 64, 127
3, 41584, Note_on_c, 0, 81, 60
3, 41587, Control_c, 0, 64, 0
3, 41602, Note_on_c, 0, 81, 0
3, 41616, Note_on_c, 0, 85, 76
3, 41634, Note_on_c, 0, 57, 0
3, 41638, Note_on_c, 0, 85, 0
3, 41650, Note_on_c, 0, 54, 0
3, 41650, Note_on_c, 0, 88, 77
3, 41657, Note_on_c, 0, 64, 0
3, 41659, Note_on_c, 0, 61, 0
3, 41674, Note_on_c, 0, 88, 0
3, 41685, Note_on_c, 0, 92, 80
3, 41708, Note_on_c, 0, 92, 0
3, 41772, Note_on_c, 0, 68, 46
3, 41773, Note_on_c, 0, 61, 44
3, 41773, Note_on_c, 0, 63, 38
3, 41779, Note_on_c, 0, 57, 31
3, 41880, Control_c, 0, 64, 127
3, 41900, Note_on_c, 0, 57, 0
3, 41904, Note_on_c, 0, 61, 0
3, 41914, Note_on_c, 0, 63, 0
3, 41915, Note_on_c, 0, 68, 0
3, 41959, Note_on_c, 0, 61, 20
3, 41967, Note_on_c, 0, 61, 0
3, 41976, Control_c, 0, 64, 0
3, 41995, Note_on_c, 0, 68, 62
3, 41996, Note_on_c, 0, 63, 46
3, 41996, Note_on_c, 0, 92, 78
3, 41997, Note_on_c, 0, 61, 45
3, 41997, Note_on_c, 0, 80, 72
3, 42007, Note_on_c, 0, 68, 0
3, 42008, Note_on_c, 0, 80, 0
3, 42012, Note_on_c, 0, 92, 0
3, 42013, Note_on_c, 0, 63, 0
3, 42017, Note_on_c, 0, 61, 0
3, 42075, Note_on_c, 0, 68, 47
3, 42078, Note_on_c, 0, 90, 64
3, 42079, Note_on_c, 0, 78, 55
3, 42081, Note_on_c, 0, 63, 31
3, 42081, Note_on_c, 0, 57, 33
3, 42085, Note_on_c, 0, 61, 25
3, 42093, Note_on_c, 0, 68, 0
3, 42093, Control_c, 0, 64, 127
3, 42097, Note_on_c, 0, 57, 0
3, 42100, Note_on_c, 0, 78, 0
3, 42109, Note_on_c, 0, 90, 0
3, 42110, Note_on_c, 0, 63, 0
3, 42111, Note_on_c, 0, 61, 0
3, 42123, Control_c, 0, 64, 0
3, 42146, Note_on_c, 0, 90, 63
3, 42148, Note_on_c, 0, 66, 55
3, 42148, Note_on_c, 0, 81, 49
3, 42148, Note_on_c, 0, 86, 64
3, 42150, Note_on_c, 0, 62, 55
3, 42157, Note_on_c, 0, 57, 26
3, 42169, Control_c, 0, 64, 127
3, 42214, Control_c, 0, 64, 0
3, 42234, Control_c, 0, 64, 127
3, 42242, Note_on_c, 0, 57, 0
3, 42242, Note_on_c, 0, 62, 0
3, 42245, Note_on_c, 0, 86, 0
3, 42247, Note_on_c, 0, 81, 0
3, 42255, Note_on_c, 0, 90, 0
3, 42257, Note_on_c, 0, 66, 0
3, 42314, Control_c, 0, 64, 0
3, 42319, Note_on_c, 0, 92, 76
3, 42319, Note_on_c, 0, 62, 66
3, 42319, Note_on_c, 0, 67, 74
3, 42319, Note_on_c, 0, 88, 74
3, 42320, Note_on_c, 0, 56, 62
3, 42321, Note_on_c, 0, 83, 66
3, 42341, Note_on_c, 0, 67, 0
3, 42345, Note_on_c, 0, 88, 0
3, 42349, Note_on_c, 0, 62, 0
3, 42350, Note_on_c, 0, 92, 0
3, 42352, Note_on_c, 0, 83, 0
3, 42360, Note_on_c, 0, 56, 0
3, 42402, Note_on_c, 0, 88, 75
3, 42403, Note_on_c, 0, 62, 70
3, 42403, Note_on_c, 0, 67, 75
3, 42404, Note_on_c, 0, 84, 73
3, 42404, Note_on_c, 0, 79, 63
3, 42406, Note_on_c, 0, 56, 56
3, 42414, Control_c, 0, 64, 127
3, 42435, Note_on_c, 0, 67, 0
3, 42437, Note_on_c, 0, 84, 0
3, 42439, Note_on_c, 0, 88, 0
3, 42441, Note_on_c, 0, 62, 0
3, 42447, Note_on_c, 0, 79, 0
3, 42454, Note_on_c, 0, 56, 0
3, 42482, Control_c, 0, 64, 0
3, 42486, Note_on_c, 0, 88, 78
3, 42487, Note_on_c, 0, 80, 57
3, 42488, Note_on_c, 0, 83, 53
3, 42488, Note_on_c, 0, 64, 66
3, 42489, Note_on_c, 0, 61, 52
3, 42490, Note_on_c, 0, 85, 54
3, 42491, Note_on_c, 0, 54, 46
3, 42492, Note_on_c, 0, 59, 59
3, 42518, Control_c, 0, 64, 127
3, 42582, Note_on_c, 0, 83, 0
3, 42588, Note_on_c, 0, 85, 0
3, 42589, Note_on_c, 0, 59, 0
3, 42590, Note_on_c, 0, 80, 0
3, 42591, Note_on_c, 0, 88, 0
3, 42612, Note_on_c, 0, 64, 0
3, 42636, Note_on_c, 0, 61, 0
3, 42647, Note_on_c, 0, 54, 0
3, 42683, Note_on_c, 0, 80, 55
3, 42684, Note_on_c, 0, 61, 46
3, 42686, Note_on_c, 0, 64, 54
3, 42687, Note_on_c, 0, 54, 35
3, 42688, Note_on_c, 0, 76, 47
3, 42689, Note_on_c, 0, 59, 58
3, 42693, Control_c, 0, 64, 0
3, 42717, Control_c, 0, 64, 127
3, 42750, Note_on_c, 0, 80, 0
3, 42763, Note_on_c, 0, 76, 0
3, 42774, Note_on_c, 0, 59, 0
3, 42775, Note_on_c, 0, 64, 0
3, 42779, Note_on_c, 0, 61, 0
3, 42795, Note_on_c, 0, 54, 0
3, 42867, Control_c, 0, 64, 0
3, 42918, Note_on_c, 0, 68, 57
3, 42920, Note_on_c, 0, 59, 65
3, 42920, Note_on_c, 0, 56, 57
3, 42920, Note_on_c, 0, 64, 57
3, 42926, Note_on_c, 0, 59, 0
3, 42928, Note_on_c, 0, 64, 0
3, 42934, Note_on_c, 0, 56, 0
3, 42935, Note_on_c, 0, 68, 0
3, 42971, Note_on_c, 0, 56, 55
3, 42972, Note_on_c, 0, 68, 50
3, 42973, Note_on_c, 0, 59, 60
3, 42974, Note_on_c, 0, 64, 39
3, 42980, Note_on_c, 0, 59, 0
3, 42983, Note_on_c, 0, 64, 0
3, 42987, Note_on_c, 0, 56, 0
3, 42989, Note_on_c, 0, 68, 0
3, 43132, Note_on_c, 0, 71, 74
3, 43136, Note_on_c, 0, 56, 19
3, 43139, Note_on_c, 0, 59, 29
3, 43140, Note_on_c, 0, 64, 27
3, 43149, Note_on_c, 0, 64, 0
3, 43152, Note_on_c, 0, 59, 0
3, 43158, Note_on_c, 0, 56, 0
3, 43162, Note_on_c, 0, 71, 0
3, 43164, Note_on_c, 0, 68, 52
3, 43182, Note_on_c, 0, 68, 0
3, 43207, Note_on_c, 0, 68, 61
3, 43211, Note_on_c, 0, 57, 47
3, 43212, Note_on_c, 0, 61, 40
3, 43212, Note_on_c, 0, 56, 36
3, 43246, Note_on_c, 0, 64, 15
3, 43272, Note_on_c, 0, 64, 0
3, 43273, Note_on_c, 0, 57, 0
3, 43284, Note_on_c, 0, 54, 52
3, 43284, Note_on_c, 0, 66, 64
3, 43285, Note_on_c, 0, 56, 0
3, 43288, Note_on_c, 0, 57, 36
3, 43291, Note_on_c, 0, 68, 0
3, 43307, Note_on_c, 0, 57, 0
3, 43318, Note_on_c, 0, 61, 0
3, 43325, Note_on_c, 0, 66, 0
3, 43336, Note_on_c, 0, 54, 0
3, 43338, Note_on_c, 0, 51, 27
3, 43338, Note_on_c, 0, 57, 32
3, 43339, Note_on_c, 0, 64, 38
3, 43339, Note_on_c, 0, 61, 23
3, 43365, Control_c, 0, 64, 127
3, 43371, Note_on_c, 0, 57, 0
3, 43397, Note_on_c, 0, 66, 9
3, 43401, Note_on_c, 0, 64, 0
3, 43424, Note_on_c, 0, 61, 0
3, 43429, Note_on_c, 0, 66, 0
3, 43432, Note_on_c, 0, 51, 0
3, 43436, Note_on_c, 0, 54, 34
3, 43439, Control_c, 0, 64, 0
3, 43445, Note_on_c, 0, 66, 59
3, 43447, Note_on_c, 0, 61, 34
3, 43465, Note_on_c, 0, 54, 0
3, 43473, Note_on_c, 0, 63, 6
3, 43519, Control_c, 0, 64, 127
3, 43519, Note_on_c, 0, 51, 33
3, 43530, Note_on_c, 0, 61, 0
3, 43538, Note_on_c, 0, 66, 0
3, 43543, Note_on_c, 0, 63, 0
3, 43543, Control_c, 0, 64, 0
3, 43548, Note_on_c, 0, 51, 0
3, 43563, Note_on_c, 0, 66, 38
3, 43564, Note_on_c, 0, 52, 32
3, 43564, Note_on_c, 0, 62, 53
3, 43565, Note_on_c, 0, 57, 48
3, 43830, Note_on_c, 0, 57, 0
3, 43836, Note_on_c, 0, 62, 0
3, 43843, Note_on_c, 0, 66, 0
3, 43846, Note_on_c, 0, 52, 0
3, 44039, Note_on_c, 0, 67, 60
3, 44200, Note_on_c, 0, 64, 52
3, 44202, Note_on_c, 0, 67, 0
3, 44222, Note_on_c, 0, 64, 0
3, 44235, Note_on_c, 0, 71, 77
3, 44267, Note_on_c, 0, 71, 0
3, 44273, Note_on_c, 0, 67, 75
3, 44424, Control_c, 0, 64, 127
3, 44448, Control_c, 0, 64, 0
3, 44452, Control_c, 0, 64, 127
3, 44454, Control_c, 0, 64, 0
3, 44571, Note_on_c, 0, 64, 43
3, 44573, Note_on_c, 0, 67, 0
3, 44595, Note_on_c, 0, 64, 0
3, 44607, Note_on_c, 0, 66, 51
3, 44636, Note_on_c, 0, 66, 0
3, 44649, Note_on_c, 0, 67, 59
3, 44655, Note_on_c, 0, 64, 30
3, 44655, Note_on_c, 0, 60, 37
3, 44656, Note_on_c, 0, 59, 34
3, 44683, Control_c, 0, 64, 127
3, 44900, Note_on_c, 0, 64, 0
3, 44901, Note_on_c, 0, 60, 0
3, 44903, Note_on_c, 0, 59, 0
3, 44904, Note_on_c, 0, 67, 0
3, 44949, Note_on_c, 0, 69, 105
3, 44992, Note_on_c, 0, 69, 0
3, 45001, Note_on_c, 0, 57, 43
3, 45004, Note_on_c, 0, 66, 50
3, 45004, Control_c, 0, 64, 0
3, 45006, Note_on_c, 0, 52, 22
3, 45048, Note_on_c, 0, 57, 0
3, 45051, Note_on_c, 0, 66, 0
3, 45071, Note_on_c, 0, 62, 45
3, 45106, Note_on_c, 0, 62, 0
3, 45121, Note_on_c, 0, 59, 41
3, 45180, Note_on_c, 0, 59, 0
3, 45190, Note_on_c, 0, 57, 37
3, 45200, Note_on_c, 0, 57, 0
3, 45216, Note_on_c, 0, 52, 0
3, 45238, Note_on_c, 0, 64, 61
3, 45271, Note_on_c, 0, 64, 0
3, 45315, Note_on_c, 0, 71, 103
3, 45357, Note_on_c, 0, 71, 0
3, 45364, Note_on_c, 0, 67, 59
3, 45368, Note_on_c, 0, 59, 33
3, 45368, Note_on_c, 0, 60, 34
3, 45369, Note_on_c, 0, 64, 24
3, 45370, Note_on_c, 0, 57, 26
3, 45422, Note_on_c, 0, 67, 0
3, 45440, Note_on_c, 0, 67, 63
3, 45454, Note_on_c, 0, 57, 0
3, 45456, Note_on_c, 0, 67, 0
3, 45456, Note_on_c, 0, 60, 0
3, 45457, Note_on_c, 0, 59, 0
3, 45459, Note_on_c, 0, 64, 0
3, 45484, Note_on_c, 0, 67, 66
3, 45496, Note_on_c, 0, 67, 0
3, 45563, Note_on_c, 0, 64, 48
3, 45568, Note_on_c, 0, 60, 46
3, 45568, Note_on_c, 0, 57, 37
3, 45569, Note_on_c, 0, 59, 38
3, 45577, Note_on_c, 0, 64, 0
3, 45578, Note_on_c, 0, 60, 0
3, 45578, Note_on_c, 0, 59, 0
3, 45585, Note_on_c, 0, 57, 0
3, 45646, Note_on_c, 0, 64, 51
3, 45655, Note_on_c, 0, 64, 0
3, 45680, Note_on_c, 0, 71, 80
3, 45704, Note_on_c, 0, 71, 0
3, 45714, Note_on_c, 0, 66, 57
3, 45716, Note_on_c, 0, 67, 68
3, 45719, Note_on_c, 0, 59, 33
3, 45720, Note_on_c, 0, 62, 22
3, 45720, Note_on_c, 0, 52, 32
3, 45730, Note_on_c, 0, 66, 0
3, 45733, Note_on_c, 0, 62, 0
3, 45736, Note_on_c, 0, 67, 0
3, 45736, Note_on_c, 0, 59, 0
3, 45738, Note_on_c, 0, 52, 0
3, 45791, Note_on_c, 0, 66, 53
3, 45791, Note_on_c, 0, 67, 65
3, 45797, Note_on_c, 0, 59, 34
3, 45797, Note_on_c, 0, 62, 44
3, 45798, Note_on_c, 0, 52, 40
3, 45812, Note_on_c, 0, 62, 0
3, 45814, Note_on_c, 0, 59, 0
3, 45817, Note_on_c, 0, 52, 0
3, 45844, Note_on_c, 0, 64, 51
3, 45848, Note_on_c, 0, 66, 0
3, 45851, Note_on_c, 0, 67, 0
3, 45919, Note_on_c, 0, 64, 0
3, 45921, Note_on_c, 0, 62, 48
3, 45921, Note_on_c, 0, 59, 54
3, 45930, Note_on_c, 0, 62, 0
3, 45940, Note_on_c, 0, 59, 0
3, 46005, Note_on_c, 0, 64, 64
3, 46022, Note_on_c, 0, 64, 0
3, 46042, Note_on_c, 0, 66, 64
3, 46060, Note_on_c, 0, 66, 0
3, 46086, Note_on_c, 0, 64, 85
3, 46086, Note_on_c, 0, 55, 58
3, 46087, Note_on_c, 0, 67, 82
3, 46087, Note_on_c, 0, 45, 48
3, 46119, Control_c, 0, 64, 127
3, 46145, Note_on_c, 0, 45, 0
3, 46162, Note_on_c, 0, 55, 0
3, 46199, Note_on_c, 0, 64, 0
3, 46222, Note_on_c, 0, 67, 0
3, 46274, Control_c, 0, 64, 0
3, 46278, Note_on_c, 0, 66, 74
3, 46279, Note_on_c, 0, 69, 73
3, 46279, Note_on_c, 0, 62, 74
3, 46280, Note_on_c, 0, 57, 53
3, 46314, Control_c, 0, 64, 127
3, 46319, Note_on_c, 0, 57, 0
3, 46378, Note_on_c, 0, 62, 0
3, 46387, Note_on_c, 0, 69, 0
3, 46396, Note_on_c, 0, 66, 0
3, 46442, Control_c, 0, 64, 0
3, 46451, Note_on_c, 0, 65, 55
3, 46452, Note_on_c, 0, 69, 60
3, 46452, Note_on_c, 0, 60, 58
3, 46453, Note_on_c, 0, 55, 42
3, 46490, Control_c, 0, 64, 127
3, 46547, Note_on_c, 0, 55, 0
3, 46568, Note_on_c, 0, 65, 0
3, 46569, Note_on_c, 0, 69, 0
3, 46572, Note_on_c, 0, 60, 0
3, 46643, Note_on_c, 0, 59, 43
3, 46645, Control_c, 0, 64, 0
3, 46645, Note_on_c, 0, 67, 48
3, 46646, Note_on_c, 0, 64, 40
3, 46648, Note_on_c, 0, 53, 30
3, 46691, Control_c, 0, 64, 127
3, 46717, Note_on_c, 0, 53, 0
3, 46722, Note_on_c, 0, 59, 0
3, 46738, Note_on_c, 0, 64, 0
3, 46739, Note_on_c, 0, 67, 0
3, 46803, Control_c, 0, 64, 0
3, 46809, Note_on_c, 0, 48, 24
3, 46810, Note_on_c, 0, 55, 36
3, 46812, Note_on_c, 0, 71, 60
3, 46927, Note_on_c, 0, 64, 36
3, 46931, Note_on_c, 0, 71, 0
3, 46956, Control_c, 0, 64, 127
3, 46990, Note_on_c, 0, 64, 0
3, 47007, Note_on_c, 0, 48, 0
3, 47016, Note_on_c, 0, 55, 0
3, 47101, Note_on_c, 0, 79, 60
3, 47119, Note_on_c, 0, 79, 0
3, 47133, Note_on_c, 0, 86, 92
3, 47144, Control_c, 0, 64, 0
3, 47156, Note_on_c, 0, 86, 0
3, 47169, Note_on_c, 0, 83, 63
3, 47184, Note_on_c, 0, 83, 0
3, 47287, Note_on_c, 0, 66, 42
3, 47298, Note_on_c, 0, 62, 19
3, 47305, Note_on_c, 0, 62, 0
3, 47305, Note_on_c, 0, 66, 0
3, 47408, Note_on_c, 0, 67, 35
3, 47410, Note_on_c, 0, 62, 36
3, 47411, Note_on_c, 0, 56, 25
3, 47426, Note_on_c, 0, 67, 0
3, 47427, Note_on_c, 0, 62, 0
3, 47435, Note_on_c, 0, 56, 0
3, 47534, Note_on_c, 0, 79, 30
3, 47544, Note_on_c, 0, 79, 0
3, 47568, Note_on_c, 0, 86, 88
3, 47590, Note_on_c, 0, 86, 0
3, 47607, Note_on_c, 0, 83, 85
3, 47631, Note_on_c, 0, 83, 0
3, 47719, Note_on_c, 0, 64, 36
3, 47723, Note_on_c, 0, 60, 40
3, 47726, Note_on_c, 0, 59, 28
3, 47733, Note_on_c, 0, 64, 0
3, 47735, Note_on_c, 0, 60, 0
3, 47737, Note_on_c, 0, 59, 0
3, 47808, Note_on_c, 0, 81, 64
3, 47828, Note_on_c, 0, 81, 0
3, 47841, Note_on_c, 0, 79, 67
3, 47856, Note_on_c, 0, 79, 0
3, 47883, Note_on_c, 0, 83, 78
3, 47900, Note_on_c, 0, 83, 0
3, 47955, Note_on_c, 0, 47, 35
3, 47964, Note_on_c, 0, 47, 0
3, 48074, Note_on_c, 0, 51, 35
3, 48085, Note_on_c, 0, 51, 0
3, 48123, Note_on_c, 0, 63, 26
3, 48124, Note_on_c, 0, 59, 29
3, 48130, Note_on_c, 0, 59, 0
3, 48135, Note_on_c, 0, 63, 0
3, 48179, Note_on_c, 0, 64, 70
3, 48195, Note_on_c, 0, 64, 0
3, 48206, Note_on_c, 0, 71, 80
3, 48230, Note_on_c, 0, 71, 0
3, 48245, Note_on_c, 0, 68, 50
3, 48265, Note_on_c, 0, 68, 0
3, 48317, Note_on_c, 0, 68, 56
3, 48318, Note_on_c, 0, 61, 34
3, 48321, Control_c, 0, 64, 127
3, 48323, Note_on_c, 0, 64, 32
3, 48326, Note_on_c, 0, 59, 26
3, 48351, Note_on_c, 0, 68, 0
3, 48359, Note_on_c, 0, 64, 0
3, 48368, Note_on_c, 0, 68, 62
3, 48374, Note_on_c, 0, 64, 32
3, 48417, Note_on_c, 0, 59, 0
3, 48418, Note_on_c, 0, 64, 0
3, 48420, Note_on_c, 0, 68, 0
3, 48428, Note_on_c, 0, 61, 0
3, 48438, Note_on_c, 0, 68, 77
3, 48442, Note_on_c, 0, 61, 44
3, 48444, Note_on_c, 0, 64, 41
3, 48447, Note_on_c, 0, 59, 38
3, 48457, Note_on_c, 0, 64, 0
3, 48464, Note_on_c, 0, 59, 0
3, 48471, Note_on_c, 0, 61, 0
3, 48483, Note_on_c, 0, 68, 0
3, 48489, Note_on_c, 0, 64, 62
3, 48496, Note_on_c, 0, 65, 26
3, 48503, Note_on_c, 0, 65, 0
3, 48536, Note_on_c, 0, 64, 0
3, 48558, Note_on_c, 0, 71, 90
3, 48593, Note_on_c, 0, 71, 0
3, 48606, Control_c, 0, 64, 0
3, 48607, Note_on_c, 0, 42, 44
3, 48608, Note_on_c, 0, 68, 75
3, 48611, Note_on_c, 0, 52, 35
3, 48666, Control_c, 0, 64, 127
3, 48707, Control_c, 0, 64, 0
3, 48725, Note_on_c, 0, 61, 42
3, 48726, Control_c, 0, 64, 127
3, 48727, Note_on_c, 0, 57, 38
3, 48766, Note_on_c, 0, 57, 0
3, 48776, Note_on_c, 0, 61, 0
3, 48789, Note_on_c, 0, 68, 0
3, 48813, Note_on_c, 0, 42, 0
3, 48828, Note_on_c, 0, 52, 0
3, 48842, Note_on_c, 0, 64, 81
3, 48888, Note_on_c, 0, 64, 0
3, 48912, Note_on_c, 0, 71, 89
3, 48937, Note_on_c, 0, 71, 0
3, 48963, Note_on_c, 0, 68, 71
3, 48965, Note_on_c, 0, 61, 62
3, 48966, Note_on_c, 0, 57, 62
3, 48967, Note_on_c, 0, 63, 54
3, 48967, Control_c, 0, 64, 0
3, 48968, Note_on_c, 0, 56, 61
3, 49074, Note_on_c, 0, 57, 0
3, 49076, Note_on_c, 0, 68, 0
3, 49077, Note_on_c, 0, 63, 0
3, 49085, Note_on_c, 0, 57, 40
3, 49086, Note_on_c, 0, 66, 50
3, 49087, Note_on_c, 0, 56, 0
3, 49088, Note_on_c, 0, 63, 31
3, 49090, Note_on_c, 0, 54, 55
3, 49182, Note_on_c, 0, 63, 0
3, 49188, Control_c, 0, 64, 127
3, 49243, Note_on_c, 0, 57, 0
3, 49250, Note_on_c, 0, 66, 0
3, 49252, Note_on_c, 0, 54, 0
3, 49266, Note_on_c, 0, 64, 57
3, 49268, Note_on_c, 0, 61, 0
3, 49301, Note_on_c, 0, 64, 0
3, 49322, Control_c, 0, 64, 0
3, 49323, Note_on_c, 0, 63, 54
3, 49324, Note_on_c, 0, 66, 51
3, 49324, Note_on_c, 0, 59, 60
3, 49327, Note_on_c, 0, 52, 36
3, 49397, Control_c, 0, 64, 127
3, 49435, Note_on_c, 0, 59, 0
3, 49440, Note_on_c, 0, 52, 0
3, 49461, Note_on_c, 0, 63, 0
3, 49471, Note_on_c, 0, 66, 0
3, 49499, Control_c, 0, 64, 0
3, 49504, Note_on_c, 0, 68, 63
3, 49506, Note_on_c, 0, 59, 66
3, 49506, Note_on_c, 0, 64, 64
3, 49509, Note_on_c, 0, 52, 57
3, 49527, Note_on_c, 0, 59, 0
3, 49527, Control_c, 0, 64, 127
3, 49536, Note_on_c, 0, 52, 0
3, 49541, Note_on_c, 0, 64, 0
3, 49554, Note_on_c, 0, 68, 0
3, 49589, Control_c, 0, 64, 0
3, 49599, Note_on_c, 0, 64, 71
3, 49600, Note_on_c, 0, 46, 53
3, 49600, Note_on_c, 0, 60, 72
3, 49639, Note_on_c, 0, 60, 0
3, 49639, Control_c, 0, 64, 127
3, 49641, Note_on_c, 0, 64, 0
3, 49655, Note_on_c, 0, 46, 0
3, 49681, Control_c, 0, 64, 0
3, 49689, Note_on_c, 0, 68, 60
3, 49690, Note_on_c, 0, 45, 50
3, 49804, Note_on_c, 0, 61, 42
3, 49806, Note_on_c, 0, 64, 47
3, 49807, Note_on_c, 0, 57, 41
3, 49824, Control_c, 0, 64, 127
3, 49932, Note_on_c, 0, 57, 0
3, 49938, Note_on_c, 0, 45, 0
3, 49954, Note_on_c, 0, 64, 0
3, 49965, Note_on_c, 0, 61, 0
3, 49970, Note_on_c, 0, 68, 0
3, 50034, Control_c, 0, 64, 0
3, 50039, Note_on_c, 0, 68, 52
3, 50040, Note_on_c, 0, 44, 45
3, 50102, Control_c, 0, 64, 127
3, 50123, Note_on_c, 0, 64, 46
3, 50124, Note_on_c, 0, 59, 33
3, 50243, Note_on_c, 0, 44, 0
3, 50265, Control_c, 0, 64, 0
3, 50272, Note_on_c, 0, 59, 0
3, 50282, Note_on_c, 0, 49, 38
3, 50287, Control_c, 0, 64, 127
3, 50336, Note_on_c, 0, 64, 0
3, 50339, Note_on_c, 0, 68, 0
3, 50341, Note_on_c, 0, 49, 0
3, 50399, Control_c, 0, 64, 0
3, 50403, Note_on_c, 0, 68, 53
3, 50404, Note_on_c, 0, 61, 47
3, 50405, Note_on_c, 0, 57, 53
3, 50406, Note_on_c, 0, 56, 34
3, 50408, Note_on_c, 0, 64, 41
3, 50412, Note_on_c, 0, 57, 0
3, 50416, Note_on_c, 0, 64, 0
3, 50416, Note_on_c, 0, 61, 0
3, 50418, Note_on_c, 0, 56, 0
3, 50419, Note_on_c, 0, 68, 0
3, 50475, Note_on_c, 0, 54, 46
3, 50477, Note_on_c, 0, 66, 57
3, 50480, Note_on_c, 0, 61, 53
3, 50481, Note_on_c, 0, 57, 47
3, 50501, Note_on_c, 0, 57, 0
3, 50516, Note_on_c, 0, 61, 0
3, 50518, Note_on_c, 0, 66, 0
3, 50520, Note_on_c, 0, 54, 0
3, 50531, Note_on_c, 0, 52, 26
3, 50532, Note_on_c, 0, 61, 21
3, 50533, Note_on_c, 0, 57, 35
3, 50534, Note_on_c, 0, 64, 44
3, 50562, Note_on_c, 0, 64, 0
3, 50566, Note_on_c, 0, 52, 0
3, 50568, Note_on_c, 0, 57, 0
3, 50574, Control_c, 0, 64, 127
3, 50577, Note_on_c, 0, 61, 0
3, 50594, Note_on_c, 0, 52, 22
3, 50599, Note_on_c, 0, 61, 29
3, 50599, Note_on_c, 0, 57, 35
3, 50600, Note_on_c, 0, 64, 51
3, 50614, Note_on_c, 0, 57, 0
3, 50614, Control_c, 0, 64, 0
3, 50623, Note_on_c, 0, 64, 0
3, 50631, Note_on_c, 0, 61, 0
3, 50631, Note_on_c, 0, 52, 0
3, 50640, Note_on_c, 0, 61, 30
3, 50640, Note_on_c, 0, 54, 45
3, 50642, Note_on_c, 0, 66, 52
3, 50643, Note_on_c, 0, 57, 37
3, 50644, Control_c, 0, 64, 127
3, 50658, Note_on_c, 0, 57, 0
3, 50664, Note_on_c, 0, 54, 0
3, 50676, Note_on_c, 0, 61, 0
3, 50686, Note_on_c, 0, 66, 0
3, 50756, Control_c, 0, 64, 0
3, 50758, Note_on_c, 0, 66, 40
3, 50761, Note_on_c, 0, 57, 44
3, 50762, Note_on_c, 0, 62, 49
3, 50768, Note_on_c, 0, 52, 20
3, 50869, Control_c, 0, 64, 127
3, 50886, Note_on_c, 0, 52, 0
3, 50907, Note_on_c, 0, 62, 0
3, 50914, Note_on_c, 0, 57, 0
3, 50921, Note_on_c, 0, 66, 0
3, 50953, Note_on_c, 0, 52, 34
3, 50968, Note_on_c, 0, 52, 0
3, 50996, Note_on_c, 0, 64, 66
3, 50997, Note_on_c, 0, 60, 70
3, 51037, Note_on_c, 0, 60, 0
3, 51040, Note_on_c, 0, 64, 0
3, 51115, Control_c, 0, 64, 0
3, 51122, Note_on_c, 0, 68, 86
3, 51125, Note_on_c, 0, 45, 66
3, 51182, Control_c, 0, 64, 127
3, 51246, Note_on_c, 0, 59, 47
3, 51340, Note_on_c, 0, 59, 0
3, 51349, Note_on_c, 0, 45, 0
3, 51367, Note_on_c, 0, 59, 66
3, 51413, Note_on_c, 0, 59, 0
3, 51416, Note_on_c, 0, 68, 0
3, 51480, Control_c, 0, 64, 0
3, 51483, Note_on_c, 0, 68, 84
3, 51484, Note_on_c, 0, 44, 64
3, 51533, Control_c, 0, 64, 127
3, 51601, Note_on_c, 0, 59, 52
3, 51604, Note_on_c, 0, 64, 31
3, 51637, Note_on_c, 0, 64, 0
3, 51646, Note_on_c, 0, 59, 0
3, 51704, Note_on_c, 0, 44, 0
3, 51706, Note_on_c, 0, 68, 0
3, 51724, Note_on_c, 0, 64, 80
3, 51763, Note_on_c, 0, 64, 0
3, 51794, Note_on_c, 0, 71, 84
3, 51828, Note_on_c, 0, 71, 0
3, 51845, Note_on_c, 0, 42, 52
3, 51846, Control_c, 0, 64, 0
3, 51848, Note_on_c, 0, 68, 75
3, 51912, Control_c, 0, 64, 127
3, 51913, Note_on_c, 0, 66, 65
3, 51957, Note_on_c, 0, 66, 0
3, 51961, Note_on_c, 0, 68, 0
3, 51966, Note_on_c, 0, 64, 67
3, 51985, Note_on_c, 0, 42, 0
3, 52047, Note_on_c, 0, 64, 0
3, 52080, Note_on_c, 0, 66, 56
3, 52144, Note_on_c, 0, 66, 0
3, 52188, Control_c, 0, 64, 0
3, 52208, Note_on_c, 0, 59, 33
3, 52210, Note_on_c, 0, 64, 44
3, 52210, Note_on_c, 0, 40, 31
3, 52212, Note_on_c, 0, 28, 26
3, 52224, Control_c, 0, 64, 127
3, 52252, Note_on_c, 0, 59, 0
3, 52263, Note_on_c, 0, 28, 0
3, 52264, Note_on_c, 0, 64, 0
3, 52280, Note_on_c, 0, 40, 0
3, 52389, Note_on_c, 0, 83, 60
3, 52437, Note_on_c, 0, 83, 0
3, 52450, Note_on_c, 0, 78, 30
3, 52504, Note_on_c, 0, 78, 0
3, 52510, Note_on_c, 0, 64, 29
3, 52556, Note_on_c, 0, 64, 0
3, 52565, Note_on_c, 0, 71, 54
3, 52589, Note_on_c, 0, 71, 0
3, 52624, Note_on_c, 0, 66, 77
3, 52678, Note_on_c, 0, 64, 54
3, 52690, Note_on_c, 0, 66, 0
3, 52721, Note_on_c, 0, 64, 0
3, 52736, Note_on_c, 0, 69, 87
3, 52778, Note_on_c, 0, 69, 0
3, 52794, Note_on_c, 0, 66, 73
3, 52849, Note_on_c, 0, 66, 0
3, 52860, Note_on_c, 0, 59, 36
3, 52891, Note_on_c, 0, 59, 0
3, 52918, Note_on_c, 0, 54, 59
3, 52924, Note_on_c, 0, 40, 30
3, 52928, Control_c, 0, 64, 0
3, 52970, Control_c, 0, 64, 127
3, 52982, Note_on_c, 0, 47, 32
3, 53034, Note_on_c, 0, 54, 0
3, 53042, Note_on_c, 0, 52, 48
3, 53043, Note_on_c, 0, 54, 21
3, 53108, Note_on_c, 0, 50, 41
3, 53119, Note_on_c, 0, 52, 0
3, 53152, Note_on_c, 0, 50, 0
3, 53158, Note_on_c, 0, 54, 0
3, 53161, Note_on_c, 0, 52, 49
3, 53227, Note_on_c, 0, 52, 0
3, 53227, Note_on_c, 0, 59, 55
3, 53235, Control_c, 0, 64, 0
3, 53279, Note_on_c, 0, 54, 35
3, 53304, Control_c, 0, 64, 127
3, 53387, Note_on_c, 0, 54, 0
3, 53388, Note_on_c, 0, 59, 0
3, 53440, Note_on_c, 0, 40, 0
3, 53447, Note_on_c, 0, 47, 0
3, 53447, Note_on_c, 0, 59, 38
3, 53460, Note_on_c, 0, 59, 0
3, 53493, Note_on_c, 0, 64, 10
3, 53514, Note_on_c, 0, 64, 0
3, 53514, Note_on_c, 0, 66, 58
3, 53530, Note_on_c, 0, 66, 0
3, 53550, Note_on_c, 0, 71, 63
3, 53569, Note_on_c, 0, 71, 0
3, 53581, Note_on_c, 0, 76, 68
3, 53605, Note_on_c, 0, 76, 0
3, 53613, Note_on_c, 0, 78, 64
3, 53636, Note_on_c, 0, 78, 0
3, 53642, Note_on_c, 0, 79, 68
3, 53648, Control_c, 0, 64, 0
3, 53649, Note_on_c, 0, 52, 40
3, 53678, Note_on_c, 0, 79, 0
3, 53679, Note_on_c, 0, 78, 49
3, 53697, Note_on_c, 0, 78, 0
3, 53713, Note_on_c, 0, 76, 59
3, 53719, Note_on_c, 0, 59, 32
3, 53729, Note_on_c, 0, 76, 0
3, 53771, Note_on_c, 0, 71, 48
3, 53792, Note_on_c, 0, 71, 0
3, 53832, Note_on_c, 0, 69, 66
3, 53846, Note_on_c, 0, 69, 0
3, 53882, Note_on_c, 0, 67, 58
3, 53901, Note_on_c, 0, 67, 0
3, 53914, Note_on_c, 0, 66, 47
3, 53933, Note_on_c, 0, 66, 0
3, 53937, Note_on_c, 0, 52, 0
3, 53943, Note_on_c, 0, 69, 53
3, 53969, Note_on_c, 0, 69, 0
3, 53976, Note_on_c, 0, 66, 36
3, 53994, Note_on_c, 0, 66, 0
3, 54002, Note_on_c, 0, 52, 37
3, 54005, Note_on_c, 0, 67, 51
3, 54034, Control_c, 0, 64, 127
3, 54037, Note_on_c, 0, 67, 0
3, 54046, Note_on_c, 0, 64, 35
3, 54059, Note_on_c, 0, 59, 0
3, 54097, Note_on_c, 0, 64, 0
3, 54126, Note_on_c, 0, 64, 40
3, 54145, Note_on_c, 0, 64, 0
3, 54196, Note_on_c, 0, 52, 0
3, 54357, Control_c, 0, 64, 0
3, 54362, Note_on_c, 0, 54, 32
3, 54363, Note_on_c, 0, 57, 42
3, 54369, Note_on_c, 0, 40, 29
3, 54369, Note_on_c, 0, 28, 33
3, 54481, Note_on_c, 0, 57, 0
3, 54485, Note_on_c, 0, 55, 51
3, 54486, Note_on_c, 0, 52, 24
3, 54496, Note_on_c, 0, 54, 0
3, 54548, Note_on_c, 0, 52, 0
3, 54549, Note_on_c, 0, 55, 0
3, 54552, Note_on_c, 0, 54, 37
3, 54558, Note_on_c, 0, 57, 44
3, 54625, Control_c, 0, 64, 127
3, 54646, Note_on_c, 0, 57, 0
3, 54652, Note_on_c, 0, 55, 54
3, 54658, Note_on_c, 0, 52, 22
3, 54673, Note_on_c, 0, 54, 0
3, 54676, Note_on_c, 0, 28, 0
3, 54699, Note_on_c, 0, 40, 0
3, 54702, Note_on_c, 0, 52, 0
3, 54707, Note_on_c, 0, 55, 0
3, 54726, Control_c, 0, 64, 0
3, 54727, Note_on_c, 0, 54, 34
3, 54731, Note_on_c, 0, 40, 30
3, 54732, Note_on_c, 0, 28, 36
3, 54732, Note_on_c, 0, 57, 46
3, 54831, Note_on_c, 0, 57, 0
3, 54838, Note_on_c, 0, 55, 49
3, 54843, Note_on_c, 0, 52, 20
3, 54856, Note_on_c, 0, 54, 0
3, 54900, Note_on_c, 0, 55, 0
3, 54903, Note_on_c, 0, 52, 0
3, 54910, Note_on_c, 0, 54, 33
3, 54915, Note_on_c, 0, 57, 44
3, 54926, Control_c, 0, 64, 127
3, 54995, Note_on_c, 0, 28, 0
3, 55007, Note_on_c, 0, 57, 0
3, 55012, Note_on_c, 0, 40, 0
3, 55019, Note_on_c, 0, 55, 51
3, 55021, Note_on_c, 0, 52, 33
3, 55022, Note_on_c, 0, 54, 0
3, 55061, Note_on_c, 0, 52, 0
3, 55067, Note_on_c, 0, 55, 0
3, 55089, Control_c, 0, 64, 0
3, 55091, Note_on_c, 0, 54, 37
3, 55094, Note_on_c, 0, 40, 35
3, 55094, Note_on_c, 0, 57, 50
3, 55095, Note_on_c, 0, 28, 43
3, 55612, Note_on_c, 0, 54, 0
3, 55617, Note_on_c, 0, 57, 0
3, 55649, Note_on_c, 0, 28, 0
3, 55650, Note_on_c, 0, 40, 0
3, 55650, End_track
0, 0, End_of_file
