0, 0, Header, 1, 8, 120
1, 0, Start_track
1, 0, Title_t, "SpeakLow"
1, 0, Copyright_t, "Copyright © 1998 by Doug McKenzie"
1, 0, Text_t, "Doug McKenzie\012"
1, 0, Time_signature, 4, 2, 24, 8
1, 0, Key_signature, -1, "major"
1, 0, Tempo, 405405
1, 0, End_track
2, 0, Start_track
2, 0, MIDI_port, 0
2, 0, Title_t, "Fretless Bass"
2, 0, Program_c, 1, 35
2, 0, Control_c, 1, 7, 100
2, 28801, Note_on_c, 1, 48, 55
2, 29011, Note_on_c, 1, 43, 32
2, 29034, Note_on_c, 1, 43, 0
2, 29034, Note_on_c, 1, 48, 0
2, 29052, Note_on_c, 1, 36, 58
2, 29639, Note_on_c, 1, 48, 67
2, 29688, Note_on_c, 1, 36, 0
2, 30132, Note_on_c, 1, 36, 77
2, 30347, Note_on_c, 1, 43, 36
2, 30361, Note_on_c, 1, 43, 0
2, 30378, Note_on_c, 1, 48, 0
2, 30383, Note_on_c, 1, 62, 91
2, 30579, Note_on_c, 1, 43, 50
2, 30589, Note_on_c, 1, 43, 0
2, 30599, Note_on_c, 1, 36, 0
2, 30605, Note_on_c, 1, 62, 0
2, 30616, Note_on_c, 1, 60, 80
2, 30819, Note_on_c, 1, 48, 63
2, 30842, Note_on_c, 1, 60, 0
2, 30843, Note_on_c, 1, 48, 0
2, 30857, Note_on_c, 1, 36, 81
2, 30862, Note_on_c, 1, 48, 54
2, 31174, Note_on_c, 1, 43, 50
2, 31179, Note_on_c, 1, 48, 0
2, 31184, Note_on_c, 1, 43, 0
2, 31211, Note_on_c, 1, 62, 94
2, 31281, Note_on_c, 1, 36, 0
2, 31445, Note_on_c, 1, 62, 0
2, 31456, Note_on_c, 1, 60, 58
2, 31464, Note_on_c, 1, 60, 0
2, 31538, Note_on_c, 1, 47, 64
2, 31561, Note_on_c, 1, 47, 0
2, 31582, Note_on_c, 1, 46, 51
2, 31698, Note_on_c, 1, 46, 0
2, 31709, Note_on_c, 1, 45, 59
2, 31932, Note_on_c, 1, 45, 0
2, 31940, Note_on_c, 1, 40, 60
2, 32173, Note_on_c, 1, 40, 0
2, 32182, Note_on_c, 1, 38, 53
2, 32421, Note_on_c, 1, 52, 60
2, 32435, Note_on_c, 1, 38, 0
2, 32509, Note_on_c, 1, 52, 0
2, 32511, Note_on_c, 1, 38, 41
2, 32525, Note_on_c, 1, 38, 0
2, 32537, Note_on_c, 1, 50, 58
2, 32644, Note_on_c, 1, 50, 0
2, 32659, Note_on_c, 1, 46, 47
2, 33016, Note_on_c, 1, 46, 0
2, 33019, Note_on_c, 1, 39, 62
2, 33264, Note_on_c, 1, 51, 86
2, 33272, Note_on_c, 1, 39, 0
2, 33493, Note_on_c, 1, 39, 77
2, 33494, Note_on_c, 1, 51, 0
2, 33736, Note_on_c, 1, 51, 85
2, 33748, Note_on_c, 1, 39, 0
2, 33969, Note_on_c, 1, 51, 0
2, 33972, Note_on_c, 1, 39, 67
2, 34212, Note_on_c, 1, 51, 86
2, 34223, Note_on_c, 1, 39, 0
2, 34418, Note_on_c, 1, 39, 67
2, 34426, Note_on_c, 1, 51, 0
2, 34452, Note_on_c, 1, 39, 0
2, 34454, Note_on_c, 1, 51, 62
2, 34545, Note_on_c, 1, 39, 39
2, 34553, Note_on_c, 1, 39, 0
2, 34555, Note_on_c, 1, 51, 0
2, 34567, Note_on_c, 1, 50, 60
2, 34775, Note_on_c, 1, 42, 35
2, 34787, Note_on_c, 1, 50, 0
2, 34803, Note_on_c, 1, 42, 0
2, 34813, Note_on_c, 1, 43, 54
2, 35025, Note_on_c, 1, 38, 38
2, 35039, Note_on_c, 1, 38, 0
2, 35045, Note_on_c, 1, 43, 0
2, 35056, Note_on_c, 1, 55, 66
2, 35274, Note_on_c, 1, 55, 0
2, 35284, Note_on_c, 1, 48, 58
2, 35510, Note_on_c, 1, 48, 0
2, 35524, Note_on_c, 1, 45, 83
2, 35849, Note_on_c, 1, 37, 65
2, 35853, Note_on_c, 1, 45, 0
2, 35869, Note_on_c, 1, 37, 0
2, 35884, Note_on_c, 1, 39, 70
2, 36084, Note_on_c, 1, 37, 37
2, 36086, Note_on_c, 1, 39, 0
2, 36098, Note_on_c, 1, 37, 0
2, 36102, Note_on_c, 1, 38, 71
2, 36114, Note_on_c, 1, 38, 0
2, 36123, Note_on_c, 1, 51, 83
2, 36229, Note_on_c, 1, 51, 0
2, 36242, Note_on_c, 1, 50, 53
2, 36325, Note_on_c, 1, 50, 0
2, 36325, Note_on_c, 1, 44, 32
2, 36334, Note_on_c, 1, 44, 0
2, 36362, Note_on_c, 1, 49, 50
2, 36465, Note_on_c, 1, 49, 0
2, 36486, Note_on_c, 1, 48, 48
2, 36595, Note_on_c, 1, 48, 0
2, 36608, Note_on_c, 1, 36, 60
2, 36728, Note_on_c, 1, 48, 38
2, 36739, Note_on_c, 1, 48, 0
2, 36808, Note_on_c, 1, 48, 54
2, 36817, Note_on_c, 1, 48, 0
2, 36842, Note_on_c, 1, 48, 48
2, 36852, Note_on_c, 1, 48, 0
2, 36965, Note_on_c, 1, 48, 64
2, 36974, Note_on_c, 1, 48, 0
2, 37052, Note_on_c, 1, 48, 55
2, 37061, Note_on_c, 1, 48, 0
2, 37084, Note_on_c, 1, 48, 71
2, 37095, Note_on_c, 1, 48, 0
2, 37210, Note_on_c, 1, 48, 94
2, 37319, Note_on_c, 1, 48, 0
2, 37358, Note_on_c, 1, 47, 2
2, 37414, Note_on_c, 1, 47, 0
2, 37416, Note_on_c, 1, 48, 66
2, 37442, Note_on_c, 1, 36, 0
2, 37562, Note_on_c, 1, 36, 56
2, 37567, Note_on_c, 1, 48, 0
2, 37655, Note_on_c, 1, 60, 75
2, 37879, Note_on_c, 1, 60, 0
2, 37880, Note_on_c, 1, 48, 53
2, 37891, Note_on_c, 1, 36, 0
2, 38010, Note_on_c, 1, 36, 49
2, 38020, Note_on_c, 1, 36, 0
2, 38032, Note_on_c, 1, 48, 0
2, 38042, Note_on_c, 1, 43, 56
2, 38275, Note_on_c, 1, 43, 0
2, 38283, Note_on_c, 1, 36, 57
2, 38512, Note_on_c, 1, 36, 0
2, 38528, Note_on_c, 1, 48, 67
2, 38772, Note_on_c, 1, 36, 60
2, 38776, Note_on_c, 1, 48, 0
2, 39013, Note_on_c, 1, 48, 90
2, 39023, Note_on_c, 1, 36, 0
2, 39216, Note_on_c, 1, 44, 35
2, 39225, Note_on_c, 1, 48, 0
2, 39237, Note_on_c, 1, 44, 0
2, 39253, Note_on_c, 1, 46, 55
2, 39341, Note_on_c, 1, 46, 0
2, 39345, Note_on_c, 1, 44, 26
2, 39373, Note_on_c, 1, 44, 0
2, 39376, Note_on_c, 1, 45, 58
2, 39575, Note_on_c, 1, 40, 43
2, 39596, Note_on_c, 1, 45, 0
2, 39607, Note_on_c, 1, 40, 0
2, 39609, Note_on_c, 1, 57, 77
2, 39812, Note_on_c, 1, 38, 50
2, 39823, Note_on_c, 1, 38, 0
2, 39836, Note_on_c, 1, 57, 0
2, 39845, Note_on_c, 1, 50, 62
2, 40058, Note_on_c, 1, 35, 20
2, 40066, Note_on_c, 1, 35, 0
2, 40085, Note_on_c, 1, 38, 46
2, 40088, Note_on_c, 1, 50, 0
2, 40289, Note_on_c, 1, 33, 54
2, 40295, Note_on_c, 1, 38, 0
2, 40299, Note_on_c, 1, 33, 0
2, 40328, Note_on_c, 1, 34, 49
2, 40562, Note_on_c, 1, 39, 59
2, 40564, Note_on_c, 1, 34, 0
2, 40780, Note_on_c, 1, 34, 27
2, 40798, Note_on_c, 1, 39, 0
2, 40808, Note_on_c, 1, 34, 0
2, 40808, Note_on_c, 1, 51, 67
2, 41044, Note_on_c, 1, 39, 45
2, 41046, Note_on_c, 1, 51, 0
2, 41289, Note_on_c, 1, 51, 48
2, 41299, Note_on_c, 1, 39, 0
2, 41525, Note_on_c, 1, 39, 52
2, 41542, Note_on_c, 1, 51, 0
2, 41759, Note_on_c, 1, 51, 77
2, 41764, Note_on_c, 1, 39, 0
2, 41961, Note_on_c, 1, 51, 0
2, 42003, Note_on_c, 1, 51, 77
2, 42083, Pitch_bend_c, 1, 8192
2, 42085, Pitch_bend_c, 1, 8192
2, 42087, Pitch_bend_c, 1, 8712
2, 42088, Pitch_bend_c, 1, 8972
2, 42091, Pitch_bend_c, 1, 9362
2, 42092, Pitch_bend_c, 1, 9622
2, 42094, Pitch_bend_c, 1, 9882
2, 42095, Pitch_bend_c, 1, 10272
2, 42098, Pitch_bend_c, 1, 10532
2, 42100, Pitch_bend_c, 1, 10792
2, 42101, Pitch_bend_c, 1, 10922
2, 42104, Pitch_bend_c, 1, 11312
2, 42105, Pitch_bend_c, 1, 11442
2, 42107, Pitch_bend_c, 1, 11572
2, 42112, Pitch_bend_c, 1, 11702
2, 42118, Pitch_bend_c, 1, 11572
2, 42119, Pitch_bend_c, 1, 11442
2, 42122, Pitch_bend_c, 1, 11312
2, 42124, Pitch_bend_c, 1, 10922
2, 42128, Pitch_bend_c, 1, 10792
2, 42128, Pitch_bend_c, 1, 10402
2, 42129, Pitch_bend_c, 1, 10142
2, 42131, Pitch_bend_c, 1, 9882
2, 42133, Pitch_bend_c, 1, 9362
2, 42134, Pitch_bend_c, 1, 9102
2, 42137, Pitch_bend_c, 1, 8712
2, 42138, Pitch_bend_c, 1, 8192
2, 42140, Pitch_bend_c, 1, 8192
2, 42197, Pitch_bend_c, 1, 8192
2, 42200, Pitch_bend_c, 1, 8192
2, 42204, Pitch_bend_c, 1, 8712
2, 42206, Pitch_bend_c, 1, 8842
2, 42210, Pitch_bend_c, 1, 8972
2, 42212, Pitch_bend_c, 1, 9232
2, 42216, Pitch_bend_c, 1, 9362
2, 42217, Pitch_bend_c, 1, 9492
2, 42222, Pitch_bend_c, 1, 9622
2, 42228, Pitch_bend_c, 1, 9362
2, 42231, Pitch_bend_c, 1, 9102
2, 42232, Pitch_bend_c, 1, 8192
2, 42365, Note_on_c, 1, 51, 0
2, 42373, Note_on_c, 1, 50, 59
2, 42488, Note_on_c, 1, 50, 0
2, 42492, Note_on_c, 1, 43, 69
2, 42690, Note_on_c, 1, 38, 42
2, 42705, Note_on_c, 1, 38, 0
2, 42715, Note_on_c, 1, 43, 0
2, 42728, Note_on_c, 1, 55, 62
2, 42833, Note_on_c, 1, 55, 0
2, 42848, Note_on_c, 1, 48, 64
2, 43070, Note_on_c, 1, 48, 0
2, 43093, Note_on_c, 1, 36, 56
2, 43327, Note_on_c, 1, 36, 0
2, 43335, Note_on_c, 1, 41, 66
2, 43808, Note_on_c, 1, 41, 0
2, 43816, Note_on_c, 1, 53, 76
2, 44007, Note_on_c, 1, 39, 55
2, 44018, Note_on_c, 1, 39, 0
2, 44030, Note_on_c, 1, 53, 0
2, 44042, Note_on_c, 1, 40, 46
2, 44152, Note_on_c, 1, 40, 0
2, 44162, Note_on_c, 1, 41, 50
2, 44363, Note_on_c, 1, 48, 60
2, 44376, Note_on_c, 1, 41, 0
2, 44382, Note_on_c, 1, 48, 0
2, 44402, Note_on_c, 1, 46, 35
2, 44605, Note_on_c, 1, 41, 27
2, 44615, Note_on_c, 1, 41, 0
2, 44723, Note_on_c, 1, 41, 46
2, 44735, Note_on_c, 1, 41, 0
2, 44746, Note_on_c, 1, 46, 0
2, 44759, Note_on_c, 1, 44, 64
2, 44861, Note_on_c, 1, 44, 0
2, 44879, Note_on_c, 1, 43, 57
2, 44982, Note_on_c, 1, 43, 0
2, 44996, Note_on_c, 1, 41, 54
2, 45094, Note_on_c, 1, 41, 0
2, 45120, Note_on_c, 1, 37, 52
2, 45443, Note_on_c, 1, 44, 35
2, 45459, Note_on_c, 1, 44, 0
2, 45484, Note_on_c, 1, 53, 71
2, 45689, Note_on_c, 1, 44, 43
2, 45699, Note_on_c, 1, 44, 0
2, 45718, Note_on_c, 1, 53, 0
2, 45731, Note_on_c, 1, 51, 59
2, 45927, Note_on_c, 1, 44, 46
2, 45942, Note_on_c, 1, 44, 0
2, 45948, Note_on_c, 1, 37, 0
2, 45953, Note_on_c, 1, 51, 0
2, 45967, Note_on_c, 1, 49, 38
2, 46079, Note_on_c, 1, 49, 0
2, 46089, Note_on_c, 1, 51, 62
2, 46316, Note_on_c, 1, 51, 0
2, 46325, Note_on_c, 1, 46, 56
2, 46437, Note_on_c, 1, 46, 0
2, 46447, Note_on_c, 1, 39, 74
2, 46769, Note_on_c, 1, 53, 80
2, 46792, Note_on_c, 1, 53, 0
2, 46811, Note_on_c, 1, 39, 0
2, 46817, Note_on_c, 1, 51, 68
2, 46925, Note_on_c, 1, 51, 0
2, 46930, Note_on_c, 1, 46, 57
2, 47034, Note_on_c, 1, 46, 0
2, 47048, Note_on_c, 1, 37, 62
2, 47292, Note_on_c, 1, 53, 68
2, 47515, Note_on_c, 1, 53, 0
2, 47530, Note_on_c, 1, 52, 60
2, 47532, Note_on_c, 1, 37, 0
2, 47731, Note_on_c, 1, 43, 40
2, 47743, Note_on_c, 1, 43, 0
2, 47754, Note_on_c, 1, 52, 0
2, 47764, Note_on_c, 1, 48, 61
2, 48082, Note_on_c, 1, 43, 47
2, 48094, Note_on_c, 1, 43, 0
2, 48108, Note_on_c, 1, 48, 0
2, 48125, Note_on_c, 1, 36, 68
2, 48453, Note_on_c, 1, 36, 0
2, 48454, Note_on_c, 1, 43, 65
2, 48470, Note_on_c, 1, 43, 0
2, 48498, Note_on_c, 1, 36, 82
2, 48706, Note_on_c, 1, 43, 44
2, 48718, Note_on_c, 1, 43, 0
2, 48807, Note_on_c, 1, 43, 41
2, 48816, Note_on_c, 1, 43, 0
2, 48847, Note_on_c, 1, 48, 62
2, 48855, Note_on_c, 1, 48, 0
2, 48929, Note_on_c, 1, 50, 80
2, 48950, Note_on_c, 1, 50, 0
2, 48971, Note_on_c, 1, 48, 75
2, 49035, Note_on_c, 1, 48, 0
2, 49044, Note_on_c, 1, 36, 0
2, 49054, Note_on_c, 1, 43, 47
2, 49070, Note_on_c, 1, 43, 0
2, 49091, Note_on_c, 1, 36, 80
2, 49540, Note_on_c, 1, 43, 35
2, 49552, Note_on_c, 1, 43, 0
2, 49576, Note_on_c, 1, 50, 73
2, 49607, Note_on_c, 1, 50, 0
2, 49699, Note_on_c, 1, 48, 80
2, 49901, Note_on_c, 1, 36, 0
2, 49939, Note_on_c, 1, 48, 0
2, 49939, Note_on_c, 1, 36, 68
2, 50258, Note_on_c, 1, 50, 68
2, 50279, Note_on_c, 1, 50, 0
2, 50287, Note_on_c, 1, 36, 0
2, 50302, Note_on_c, 1, 48, 69
2, 50512, Note_on_c, 1, 48, 0
2, 50523, Note_on_c, 1, 36, 64
2, 50653, Note_on_c, 1, 46, 81
2, 50659, Note_on_c, 1, 36, 0
2, 50878, Note_on_c, 1, 46, 0
2, 50884, Note_on_c, 1, 45, 60
2, 51118, Note_on_c, 1, 45, 0
2, 51136, Note_on_c, 1, 39, 59
2, 51342, Note_on_c, 1, 37, 36
2, 51349, Note_on_c, 1, 39, 0
2, 51376, Note_on_c, 1, 37, 0
2, 51376, Note_on_c, 1, 38, 56
2, 51576, Note_on_c, 1, 37, 46
2, 51598, Note_on_c, 1, 38, 0
2, 51617, Note_on_c, 1, 37, 0
2, 51617, Note_on_c, 1, 45, 44
2, 51627, Note_on_c, 1, 45, 0
2, 51695, Note_on_c, 1, 48, 90
2, 51724, Note_on_c, 1, 48, 0
2, 51741, Note_on_c, 1, 45, 49
2, 51826, Note_on_c, 1, 37, 37
2, 51841, Note_on_c, 1, 45, 0
2, 51842, Note_on_c, 1, 37, 0
2, 51852, Note_on_c, 1, 46, 61
2, 52057, Note_on_c, 1, 39, 31
2, 52074, Note_on_c, 1, 39, 0
2, 52086, Note_on_c, 1, 46, 0
2, 52093, Note_on_c, 1, 51, 59
2, 52189, Note_on_c, 1, 51, 0
2, 52212, Note_on_c, 1, 51, 73
2, 52442, Note_on_c, 1, 51, 0
2, 52448, Note_on_c, 1, 39, 69
2, 52688, Note_on_c, 1, 39, 0
2, 52690, Note_on_c, 1, 46, 72
2, 52805, Note_on_c, 1, 46, 0
2, 52811, Note_on_c, 1, 45, 56
2, 52932, Note_on_c, 1, 57, 79
2, 52948, Note_on_c, 1, 45, 0
2, 53130, Note_on_c, 1, 39, 42
2, 53142, Note_on_c, 1, 57, 0
2, 53149, Note_on_c, 1, 39, 0
2, 53166, Note_on_c, 1, 51, 60
2, 53362, Note_on_c, 1, 50, 66
2, 53363, Note_on_c, 1, 51, 0
2, 53373, Note_on_c, 1, 50, 0
2, 53403, Note_on_c, 1, 38, 67
2, 53505, Note_on_c, 1, 38, 0
2, 53522, Note_on_c, 1, 33, 54
2, 53619, Note_on_c, 1, 33, 0
2, 53635, Note_on_c, 1, 32, 59
2, 53741, Note_on_c, 1, 32, 0
2, 53760, Note_on_c, 1, 31, 51
2, 53883, Note_on_c, 1, 43, 66
2, 53887, Note_on_c, 1, 31, 0
2, 54127, Note_on_c, 1, 43, 0
2, 54130, Note_on_c, 1, 35, 46
2, 54234, Note_on_c, 1, 35, 0
2, 54245, Note_on_c, 1, 36, 48
2, 54451, Note_on_c, 1, 36, 0
2, 54459, Note_on_c, 1, 34, 31
2, 54486, Note_on_c, 1, 34, 0
2, 54491, Note_on_c, 1, 52, 72
2, 54492, Note_on_c, 1, 36, 54
2, 54523, Note_on_c, 1, 52, 0
2, 54541, Note_on_c, 1, 36, 0
2, 54690, Note_on_c, 1, 35, 53
2, 54713, Note_on_c, 1, 35, 0
2, 54731, Note_on_c, 1, 33, 60
2, 54963, Note_on_c, 1, 33, 0
2, 54964, Note_on_c, 1, 40, 66
2, 55088, Note_on_c, 1, 49, 82
2, 55099, Note_on_c, 1, 40, 0
2, 55173, Note_on_c, 1, 50, 81
2, 55182, Note_on_c, 1, 49, 0
2, 55298, Note_on_c, 1, 40, 35
2, 55310, Note_on_c, 1, 40, 0
2, 55315, Note_on_c, 1, 50, 0
2, 55330, Note_on_c, 1, 45, 63
2, 55527, Note_on_c, 1, 38, 49
2, 55548, Note_on_c, 1, 45, 0
2, 55554, Note_on_c, 1, 38, 0
2, 55565, Note_on_c, 1, 42, 60
2, 55670, Note_on_c, 1, 42, 0
2, 55682, Note_on_c, 1, 43, 50
2, 55894, Note_on_c, 1, 38, 42
2, 55911, Note_on_c, 1, 38, 0
2, 55913, Note_on_c, 1, 43, 0
2, 55930, Note_on_c, 1, 34, 56
2, 56039, Note_on_c, 1, 34, 0
2, 56047, Note_on_c, 1, 35, 55
2, 56130, Note_on_c, 1, 34, 34
2, 56148, Note_on_c, 1, 35, 0
2, 56163, Note_on_c, 1, 34, 0
2, 56169, Note_on_c, 1, 36, 55
2, 56370, Note_on_c, 1, 50, 68
2, 56389, Note_on_c, 1, 50, 0
2, 56395, Note_on_c, 1, 36, 0
2, 56412, Note_on_c, 1, 48, 50
2, 56496, Note_on_c, 1, 36, 53
2, 56508, Note_on_c, 1, 36, 0
2, 56727, Note_on_c, 1, 34, 37
2, 56752, Note_on_c, 1, 34, 0
2, 56753, Note_on_c, 1, 48, 0
2, 56773, Note_on_c, 1, 36, 71
2, 56969, Note_on_c, 1, 34, 39
2, 56994, Note_on_c, 1, 36, 0
2, 57005, Note_on_c, 1, 34, 0
2, 57010, Note_on_c, 1, 48, 96
2, 57326, Note_on_c, 1, 34, 29
2, 57350, Note_on_c, 1, 48, 0
2, 57353, Note_on_c, 1, 34, 0
2, 57365, Note_on_c, 1, 36, 48
2, 57456, Note_on_c, 1, 34, 38
2, 57466, Note_on_c, 1, 36, 0
2, 57482, Note_on_c, 1, 34, 0
2, 57489, Note_on_c, 1, 49, 75
2, 57592, Note_on_c, 1, 49, 0
2, 57611, Note_on_c, 1, 48, 56
2, 57691, Note_on_c, 1, 43, 60
2, 57699, Note_on_c, 1, 48, 0
2, 57713, Note_on_c, 1, 43, 0
2, 57731, Note_on_c, 1, 37, 46
2, 57841, Note_on_c, 1, 37, 0
2, 57852, Note_on_c, 1, 36, 54
2, 57939, Note_on_c, 1, 43, 51
2, 57948, Note_on_c, 1, 43, 0
2, 57958, Note_on_c, 1, 36, 0
2, 57968, Note_on_c, 1, 50, 82
2, 58076, Note_on_c, 1, 50, 0
2, 58091, Note_on_c, 1, 48, 51
2, 58202, Note_on_c, 1, 48, 0
2, 58209, Note_on_c, 1, 37, 67
2, 58333, Note_on_c, 1, 36, 70
2, 58336, Note_on_c, 1, 37, 0
2, 58417, Note_on_c, 1, 37, 58
2, 58438, Note_on_c, 1, 36, 0
2, 58445, Note_on_c, 1, 37, 0
2, 58455, Note_on_c, 1, 55, 84
2, 58565, Note_on_c, 1, 55, 0
2, 58577, Note_on_c, 1, 53, 67
2, 58666, Note_on_c, 1, 42, 31
2, 58682, Note_on_c, 1, 53, 0
2, 58683, Note_on_c, 1, 42, 0
2, 58696, Note_on_c, 1, 52, 59
2, 58803, Note_on_c, 1, 52, 0
2, 58817, Note_on_c, 1, 48, 36
2, 58903, Note_on_c, 1, 43, 34
2, 58916, Note_on_c, 1, 43, 0
2, 58920, Note_on_c, 1, 48, 0
2, 58933, Note_on_c, 1, 46, 50
2, 59035, Note_on_c, 1, 46, 0
2, 59050, Note_on_c, 1, 45, 50
2, 59152, Note_on_c, 1, 45, 0
2, 59164, Note_on_c, 1, 44, 51
2, 59274, Note_on_c, 1, 44, 0
2, 59289, Note_on_c, 1, 43, 45
2, 59389, Note_on_c, 1, 36, 49
2, 59399, Note_on_c, 1, 43, 0
2, 59519, Note_on_c, 1, 36, 0
2, 59519, Note_on_c, 1, 34, 44
2, 59528, Note_on_c, 1, 34, 0
2, 59537, Note_on_c, 1, 36, 70
2, 59626, Note_on_c, 1, 34, 33
2, 59639, Note_on_c, 1, 34, 0
2, 59641, Note_on_c, 1, 36, 0
2, 59651, Note_on_c, 1, 50, 72
2, 59731, Note_on_c, 1, 34, 19
2, 59752, Note_on_c, 1, 34, 0
2, 59753, Note_on_c, 1, 50, 0
2, 59769, Note_on_c, 1, 48, 55
2, 59876, Note_on_c, 1, 48, 0
2, 59888, Note_on_c, 1, 36, 84
2, 60007, Note_on_c, 1, 52, 80
2, 60015, Note_on_c, 1, 36, 0
2, 60117, Note_on_c, 1, 52, 0
2, 60131, Note_on_c, 1, 48, 57
2, 60251, Note_on_c, 1, 48, 0
2, 60251, Note_on_c, 1, 36, 58
2, 60354, Note_on_c, 1, 36, 0
2, 60366, Note_on_c, 1, 34, 51
2, 60472, Note_on_c, 1, 34, 0
2, 60486, Note_on_c, 1, 33, 58
2, 60593, Note_on_c, 1, 33, 0
2, 60608, Note_on_c, 1, 33, 77
2, 60729, Note_on_c, 1, 45, 58
2, 60749, Note_on_c, 1, 33, 0
2, 60812, Note_on_c, 1, 40, 61
2, 60813, Note_on_c, 1, 45, 0
2, 60842, Note_on_c, 1, 40, 0
2, 60853, Note_on_c, 1, 39, 55
2, 60940, Note_on_c, 1, 37, 39
2, 60952, Note_on_c, 1, 39, 0
2, 60965, Note_on_c, 1, 37, 0
2, 60970, Note_on_c, 1, 38, 51
2, 61057, Note_on_c, 1, 37, 38
2, 61067, Note_on_c, 1, 38, 0
2, 61084, Note_on_c, 1, 51, 77
2, 61090, Note_on_c, 1, 37, 0
2, 61201, Note_on_c, 1, 51, 0
2, 61211, Note_on_c, 1, 50, 50
2, 61324, Note_on_c, 1, 50, 0
2, 61326, Note_on_c, 1, 45, 76
2, 61418, Note_on_c, 1, 42, 19
2, 61437, Note_on_c, 1, 42, 0
2, 61437, Note_on_c, 1, 45, 0
2, 61451, Note_on_c, 1, 46, 52
2, 61571, Note_on_c, 1, 39, 62
2, 61635, Note_on_c, 1, 46, 0
2, 61691, Note_on_c, 1, 53, 80
2, 61803, Note_on_c, 1, 53, 0
2, 61810, Note_on_c, 1, 52, 65
2, 61829, Note_on_c, 1, 39, 0
2, 61924, Note_on_c, 1, 52, 0
2, 61937, Note_on_c, 1, 51, 48
2, 62054, Note_on_c, 1, 39, 85
2, 62057, Note_on_c, 1, 51, 0
2, 62158, Note_on_c, 1, 39, 0
2, 62175, Note_on_c, 1, 39, 74
2, 62289, Note_on_c, 1, 39, 0
2, 62296, Note_on_c, 1, 51, 86
2, 62411, Note_on_c, 1, 39, 55
2, 62417, Note_on_c, 1, 51, 0
2, 62522, Note_on_c, 1, 39, 0
2, 62533, Note_on_c, 1, 39, 86
2, 62653, Note_on_c, 1, 51, 83
2, 62655, Note_on_c, 1, 39, 0
2, 62770, Note_on_c, 1, 39, 75
2, 62775, Note_on_c, 1, 51, 0
2, 62875, Note_on_c, 1, 39, 0
2, 62889, Note_on_c, 1, 39, 76
2, 63003, Note_on_c, 1, 51, 90
2, 63022, Note_on_c, 1, 39, 0
2, 63203, Note_on_c, 1, 39, 70
2, 63225, Note_on_c, 1, 51, 0
2, 63232, Note_on_c, 1, 39, 0
2, 63243, Note_on_c, 1, 49, 73
2, 63345, Note_on_c, 1, 49, 0
2, 63358, Note_on_c, 1, 50, 60
2, 63394, Note_on_c, 1, 50, 0
2, 63444, Note_on_c, 1, 45, 58
2, 63468, Note_on_c, 1, 45, 0
2, 63486, Note_on_c, 1, 41, 55
2, 63591, Note_on_c, 1, 41, 0
2, 63605, Note_on_c, 1, 43, 55
2, 63721, Note_on_c, 1, 43, 0
2, 63724, Note_on_c, 1, 34, 60
2, 63749, Note_on_c, 1, 34, 0
2, 63780, Note_on_c, 1, 34, 10
2, 63829, Note_on_c, 1, 34, 0
2, 63843, Note_on_c, 1, 31, 54
2, 63948, Note_on_c, 1, 31, 0
2, 63966, Note_on_c, 1, 37, 58
2, 64085, Note_on_c, 1, 36, 58
2, 64090, Note_on_c, 1, 37, 0
2, 64165, Note_on_c, 1, 38, 55
2, 64183, Note_on_c, 1, 36, 0
2, 64188, Note_on_c, 1, 38, 0
2, 64203, Note_on_c, 1, 50, 57
2, 64300, Note_on_c, 1, 50, 0
2, 64320, Note_on_c, 1, 45, 48
2, 64409, Note_on_c, 1, 40, 42
2, 64421, Note_on_c, 1, 45, 0
2, 64436, Note_on_c, 1, 40, 0
2, 64441, Note_on_c, 1, 45, 60
2, 64555, Note_on_c, 1, 45, 0
2, 64566, Note_on_c, 1, 39, 52
2, 64664, Note_on_c, 1, 39, 0
2, 64681, Note_on_c, 1, 39, 64
2, 64790, Note_on_c, 1, 39, 0
2, 64804, Note_on_c, 1, 38, 61
2, 64884, Note_on_c, 1, 37, 42
2, 64916, Note_on_c, 1, 37, 0
2, 64922, Note_on_c, 1, 38, 0
2, 64923, Note_on_c, 1, 52, 87
2, 65034, Note_on_c, 1, 52, 0
2, 65042, Note_on_c, 1, 45, 52
2, 65153, Note_on_c, 1, 45, 0
2, 65165, Note_on_c, 1, 43, 49
2, 65252, Note_on_c, 1, 38, 36
2, 65264, Note_on_c, 1, 38, 0
2, 65271, Note_on_c, 1, 43, 0
2, 65286, Note_on_c, 1, 48, 58
2, 65404, Note_on_c, 1, 48, 0
2, 65405, Note_on_c, 1, 36, 66
2, 65530, Note_on_c, 1, 48, 70
2, 65543, Note_on_c, 1, 48, 0
2, 65611, Note_on_c, 1, 50, 66
2, 65628, Note_on_c, 1, 50, 0
2, 65635, Note_on_c, 1, 36, 0
2, 65652, Note_on_c, 1, 48, 67
2, 65876, Note_on_c, 1, 48, 0
2, 65885, Note_on_c, 1, 36, 66
2, 66134, Note_on_c, 1, 52, 47
2, 66149, Note_on_c, 1, 52, 0
2, 66155, Note_on_c, 1, 36, 0
2, 66172, Note_on_c, 1, 50, 56
2, 66195, Note_on_c, 1, 50, 0
2, 66220, Note_on_c, 1, 48, 74
2, 66419, Note_on_c, 1, 48, 0
2, 66429, Note_on_c, 1, 45, 43
2, 66449, Note_on_c, 1, 45, 0
2, 66460, Note_on_c, 1, 44, 58
2, 66492, Note_on_c, 1, 44, 0
2, 66501, Note_on_c, 1, 43, 59
2, 66598, Note_on_c, 1, 43, 0
2, 66604, Note_on_c, 1, 36, 72
2, 66846, Note_on_c, 1, 48, 80
2, 66878, Note_on_c, 1, 48, 0
2, 66961, Note_on_c, 1, 48, 75
2, 66997, Note_on_c, 1, 36, 0
2, 67030, Note_on_c, 1, 48, 0
2, 67036, Note_on_c, 1, 50, 58
2, 67061, Note_on_c, 1, 50, 0
2, 67081, Note_on_c, 1, 48, 60
2, 67164, Note_on_c, 1, 36, 85
2, 67169, Note_on_c, 1, 48, 0
2, 67331, Note_on_c, 1, 36, 0
2, 67335, Note_on_c, 1, 48, 61
2, 67400, Note_on_c, 1, 48, 0
2, 67405, Note_on_c, 1, 50, 62
2, 67431, Note_on_c, 1, 50, 0
2, 67452, Note_on_c, 1, 48, 56
2, 67520, Note_on_c, 1, 48, 0
2, 67532, Note_on_c, 1, 43, 63
2, 67659, Note_on_c, 1, 43, 0
2, 67689, Note_on_c, 1, 36, 74
2, 67899, Note_on_c, 1, 48, 72
2, 67914, Note_on_c, 1, 36, 0
2, 67923, Note_on_c, 1, 48, 0
2, 67941, Note_on_c, 1, 47, 58
2, 68026, Note_on_c, 1, 36, 40
2, 68037, Note_on_c, 1, 36, 0
2, 68039, Note_on_c, 1, 47, 0
2, 68055, Note_on_c, 1, 46, 48
2, 68163, Note_on_c, 1, 46, 0
2, 68176, Note_on_c, 1, 45, 40
2, 68373, Note_on_c, 1, 40, 46
2, 68383, Note_on_c, 1, 40, 0
2, 68411, Note_on_c, 1, 33, 53
2, 68603, Note_on_c, 1, 45, 0
2, 68615, Note_on_c, 1, 37, 37
2, 68619, Note_on_c, 1, 33, 0
2, 68641, Note_on_c, 1, 37, 0
2, 68645, Note_on_c, 1, 38, 36
2, 68738, Note_on_c, 1, 37, 26
2, 68752, Note_on_c, 1, 38, 0
2, 68768, Note_on_c, 1, 54, 62
2, 68776, Note_on_c, 1, 37, 0
2, 69096, Note_on_c, 1, 54, 0
2, 69096, Note_on_c, 1, 48, 57
2, 69124, Note_on_c, 1, 48, 0
2, 69151, Note_on_c, 1, 46, 31
2, 69327, Note_on_c, 1, 41, 46
2, 69339, Note_on_c, 1, 41, 0
2, 69370, Note_on_c, 1, 41, 63
2, 69475, Note_on_c, 1, 41, 0
2, 69485, Note_on_c, 1, 46, 0
2, 69489, Note_on_c, 1, 34, 45
2, 69594, Note_on_c, 1, 34, 0
2, 69603, Note_on_c, 1, 39, 56
2, 69729, Note_on_c, 1, 51, 64
2, 69754, Note_on_c, 1, 51, 0
2, 69846, Note_on_c, 1, 51, 61
2, 69907, Note_on_c, 1, 51, 0
2, 69922, Note_on_c, 1, 53, 55
2, 69947, Note_on_c, 1, 53, 0
2, 69967, Note_on_c, 1, 39, 0
2, 69967, Note_on_c, 1, 51, 53
2, 70073, Note_on_c, 1, 51, 0
2, 70095, Note_on_c, 1, 46, 34
2, 70136, Note_on_c, 1, 46, 0
2, 70161, Note_on_c, 1, 46, 50
2, 70200, Note_on_c, 1, 46, 0
2, 70209, Note_on_c, 1, 41, 53
2, 70407, Note_on_c, 1, 37, 37
2, 70414, Note_on_c, 1, 41, 0
2, 70430, Note_on_c, 1, 37, 0
2, 70446, Note_on_c, 1, 38, 51
2, 70555, Note_on_c, 1, 38, 0
2, 70563, Note_on_c, 1, 39, 58
2, 70688, Note_on_c, 1, 39, 0
2, 70690, Note_on_c, 1, 51, 65
2, 70779, Note_on_c, 1, 51, 0
2, 70811, Note_on_c, 1, 51, 61
2, 70886, Note_on_c, 1, 51, 0
2, 70890, Note_on_c, 1, 39, 43
2, 70919, Note_on_c, 1, 39, 0
2, 70930, Note_on_c, 1, 49, 52
2, 71028, Note_on_c, 1, 49, 0
2, 71048, Note_on_c, 1, 50, 45
2, 71147, Note_on_c, 1, 50, 0
2, 71164, Note_on_c, 1, 44, 52
2, 71271, Note_on_c, 1, 44, 0
2, 71285, Note_on_c, 1, 43, 51
2, 71404, Note_on_c, 1, 43, 0
2, 71406, Note_on_c, 1, 31, 71
2, 71535, Note_on_c, 1, 43, 72
2, 71539, Note_on_c, 1, 31, 0
2, 71652, Note_on_c, 1, 36, 74
2, 71653, Note_on_c, 1, 43, 0
2, 71775, Note_on_c, 1, 48, 89
2, 71780, Note_on_c, 1, 36, 0
2, 71881, Note_on_c, 1, 48, 0
2, 71889, Note_on_c, 1, 40, 47
2, 71993, Note_on_c, 1, 40, 0
2, 72006, Note_on_c, 1, 41, 55
2, 72201, Note_on_c, 1, 36, 57
2, 72206, Note_on_c, 1, 41, 0
2, 72229, Note_on_c, 1, 36, 0
2, 72236, Note_on_c, 1, 33, 64
2, 72434, Note_on_c, 1, 34, 65
2, 72435, Note_on_c, 1, 33, 0
2, 72567, Note_on_c, 1, 32, 33
2, 72570, Note_on_c, 1, 34, 0
2, 72590, Note_on_c, 1, 32, 0
2, 72594, Note_on_c, 1, 35, 64
2, 72799, Note_on_c, 1, 35, 0
2, 72805, Note_on_c, 1, 36, 58
2, 72816, Note_on_c, 1, 36, 0
2, 72843, Note_on_c, 1, 40, 47
2, 72952, Note_on_c, 1, 40, 0
2, 72965, Note_on_c, 1, 41, 54
2, 73178, Note_on_c, 1, 39, 40
2, 73187, Note_on_c, 1, 39, 0
2, 73201, Note_on_c, 1, 41, 0
2, 73215, Note_on_c, 1, 44, 53
2, 73327, Note_on_c, 1, 44, 0
2, 73327, Note_on_c, 1, 48, 66
2, 73520, Note_on_c, 1, 48, 0
2, 73525, Note_on_c, 1, 41, 53
2, 73540, Note_on_c, 1, 41, 0
2, 73559, Note_on_c, 1, 51, 69
2, 73669, Note_on_c, 1, 51, 0
2, 73684, Note_on_c, 1, 48, 45
2, 73751, Note_on_c, 1, 48, 0
2, 73798, Note_on_c, 1, 48, 51
2, 73888, Note_on_c, 1, 48, 0
2, 73893, Note_on_c, 1, 41, 30
2, 73910, Note_on_c, 1, 41, 0
2, 73919, Note_on_c, 1, 49, 54
2, 73971, Note_on_c, 1, 49, 0
2, 74002, Note_on_c, 1, 46, 45
2, 74030, Note_on_c, 1, 46, 0
2, 74042, Note_on_c, 1, 47, 49
2, 74125, Note_on_c, 1, 47, 0
2, 74126, Note_on_c, 1, 41, 27
2, 74135, Note_on_c, 1, 41, 0
2, 74137, Note_on_c, 1, 44, 30
2, 74147, Note_on_c, 1, 44, 0
2, 74172, Note_on_c, 1, 45, 44
2, 74228, Note_on_c, 1, 45, 0
2, 74244, Note_on_c, 1, 39, 39
2, 74254, Note_on_c, 1, 39, 0
2, 74358, Note_on_c, 1, 44, 80
2, 74486, Note_on_c, 1, 44, 0
2, 74489, Note_on_c, 1, 38, 41
2, 74501, Note_on_c, 1, 38, 0
2, 74521, Note_on_c, 1, 43, 48
2, 74612, Note_on_c, 1, 43, 0
2, 74639, Note_on_c, 1, 42, 50
2, 74688, Note_on_c, 1, 42, 0
2, 74728, Note_on_c, 1, 37, 71
2, 74750, Note_on_c, 1, 37, 0
2, 74760, Note_on_c, 1, 38, 60
2, 74852, Note_on_c, 1, 37, 23
2, 74868, Note_on_c, 1, 38, 0
2, 74869, Note_on_c, 1, 37, 0
2, 74884, Note_on_c, 1, 39, 52
2, 74973, Note_on_c, 1, 51, 64
2, 74982, Note_on_c, 1, 39, 0
2, 74996, Note_on_c, 1, 51, 0
2, 75011, Note_on_c, 1, 49, 35
2, 75019, Note_on_c, 1, 50, 59
2, 75032, Note_on_c, 1, 49, 0
2, 75113, Note_on_c, 1, 50, 0
2, 75134, Note_on_c, 1, 48, 57
2, 75218, Note_on_c, 1, 38, 42
2, 75224, Note_on_c, 1, 48, 0
2, 75231, Note_on_c, 1, 38, 0
2, 75253, Note_on_c, 1, 46, 49
2, 75352, Note_on_c, 1, 46, 0
2, 75367, Note_on_c, 1, 43, 47
2, 75470, Note_on_c, 1, 43, 0
2, 75485, Note_on_c, 1, 39, 52
2, 75582, Note_on_c, 1, 39, 0
2, 75607, Note_on_c, 1, 36, 35
2, 75700, Note_on_c, 1, 36, 0
2, 75723, Note_on_c, 1, 38, 70
2, 75830, Note_on_c, 1, 38, 0
2, 75843, Note_on_c, 1, 37, 57
2, 75965, Note_on_c, 1, 51, 69
2, 75998, Note_on_c, 1, 37, 0
2, 76051, Note_on_c, 1, 37, 23
2, 76071, Note_on_c, 1, 37, 0
2, 76071, Note_on_c, 1, 51, 0
2, 76092, Note_on_c, 1, 49, 48
2, 76098, Note_on_c, 1, 51, 23
2, 76193, Note_on_c, 1, 51, 0
2, 76197, Note_on_c, 1, 49, 0
2, 76205, Note_on_c, 1, 37, 45
2, 76323, Note_on_c, 1, 37, 0
2, 76328, Note_on_c, 1, 36, 61
2, 76414, Note_on_c, 1, 37, 45
2, 76428, Note_on_c, 1, 36, 0
2, 76438, Note_on_c, 1, 37, 0
2, 76450, Note_on_c, 1, 50, 58
2, 76554, Note_on_c, 1, 50, 0
2, 76572, Note_on_c, 1, 48, 53
2, 76660, Note_on_c, 1, 39, 39
2, 76663, Note_on_c, 1, 48, 0
2, 76685, Note_on_c, 1, 39, 0
2, 76695, Note_on_c, 1, 47, 55
2, 76792, Note_on_c, 1, 47, 0
2, 76815, Note_on_c, 1, 48, 52
2, 77024, Note_on_c, 1, 43, 28
2, 77034, Note_on_c, 1, 43, 0
2, 77053, Note_on_c, 1, 48, 0
2, 77055, Note_on_c, 1, 36, 64
2, 77233, Note_on_c, 1, 43, 36
2, 77246, Note_on_c, 1, 43, 0
2, 77281, Note_on_c, 1, 48, 57
2, 77291, Note_on_c, 1, 48, 0
2, 77356, Note_on_c, 1, 48, 85
2, 77608, Note_on_c, 1, 43, 46
2, 77609, Note_on_c, 1, 36, 0
2, 77620, Note_on_c, 1, 43, 0
2, 77620, Note_on_c, 1, 48, 0
2, 77645, Note_on_c, 1, 36, 80
2, 77716, Note_on_c, 1, 36, 0
2, 77732, Note_on_c, 1, 36, 84
2, 77848, Note_on_c, 1, 43, 38
2, 77859, Note_on_c, 1, 43, 0
2, 77886, Note_on_c, 1, 48, 74
2, 77896, Note_on_c, 1, 48, 0
2, 77969, Note_on_c, 1, 48, 57
2, 77978, Note_on_c, 1, 48, 0
2, 78008, Note_on_c, 1, 48, 79
2, 78183, Note_on_c, 1, 36, 0
2, 78356, Note_on_c, 1, 48, 0
2, 78369, Note_on_c, 1, 36, 75
2, 78614, Note_on_c, 1, 48, 96
2, 78620, Note_on_c, 1, 36, 0
2, 78845, Note_on_c, 1, 36, 89
2, 78851, Note_on_c, 1, 48, 0
2, 79093, Note_on_c, 1, 48, 105
2, 79195, Note_on_c, 1, 36, 0
2, 79316, Note_on_c, 1, 48, 0
2, 79326, Note_on_c, 1, 36, 90
2, 79555, Note_on_c, 1, 36, 0
2, 79564, Note_on_c, 1, 34, 65
2, 79673, Note_on_c, 1, 34, 0
2, 79687, Note_on_c, 1, 33, 65
2, 79914, Note_on_c, 1, 33, 0
2, 79928, Note_on_c, 1, 39, 69
2, 80141, Note_on_c, 1, 37, 37
2, 80153, Note_on_c, 1, 39, 0
2, 80170, Note_on_c, 1, 37, 0
2, 80173, Note_on_c, 1, 38, 59
2, 80281, Note_on_c, 1, 37, 29
2, 80288, Note_on_c, 1, 38, 0
2, 80291, Note_on_c, 1, 51, 71
2, 80307, Note_on_c, 1, 37, 0
2, 80490, Note_on_c, 1, 50, 60
2, 80498, Note_on_c, 1, 50, 0
2, 80499, Note_on_c, 1, 51, 0
2, 80531, Note_on_c, 1, 45, 60
2, 80621, Note_on_c, 1, 42, 25
2, 80633, Note_on_c, 1, 45, 0
2, 80644, Note_on_c, 1, 42, 0
2, 80648, Note_on_c, 1, 46, 64
2, 80871, Note_on_c, 1, 46, 0
2, 80891, Note_on_c, 1, 41, 53
2, 81127, Note_on_c, 1, 41, 0
2, 81128, Note_on_c, 1, 39, 55
2, 81376, Note_on_c, 1, 51, 78
2, 81418, Note_on_c, 1, 39, 0
2, 81576, Note_on_c, 1, 44, 27
2, 81593, Note_on_c, 1, 44, 0
2, 81607, Note_on_c, 1, 51, 0
2, 81612, Note_on_c, 1, 45, 69
2, 81804, Note_on_c, 1, 42, 32
2, 81852, Note_on_c, 1, 50, 64
2, 81854, Note_on_c, 1, 42, 0
2, 81856, Note_on_c, 1, 45, 0
2, 82043, Note_on_c, 1, 45, 45
2, 82067, Note_on_c, 1, 45, 0
2, 82089, Note_on_c, 1, 38, 67
2, 82099, Note_on_c, 1, 50, 0
2, 82286, Note_on_c, 1, 42, 37
2, 82290, Note_on_c, 1, 38, 0
2, 82320, Note_on_c, 1, 42, 0
2, 82325, Note_on_c, 1, 44, 67
2, 82530, Note_on_c, 1, 42, 36
2, 82549, Note_on_c, 1, 44, 0
2, 82557, Note_on_c, 1, 42, 0
2, 82565, Note_on_c, 1, 43, 54
2, 82796, Note_on_c, 1, 43, 0
2, 82807, Note_on_c, 1, 37, 55
2, 83030, Note_on_c, 1, 34, 21
2, 83037, Note_on_c, 1, 37, 0
2, 83044, Note_on_c, 1, 34, 0
2, 83045, Note_on_c, 1, 36, 68
2, 83296, Note_on_c, 1, 34, 82
2, 83300, Note_on_c, 1, 36, 0
2, 83517, Note_on_c, 1, 34, 0
2, 83525, Note_on_c, 1, 33, 71
2, 83746, Note_on_c, 1, 34, 39
2, 83751, Note_on_c, 1, 33, 0
2, 83760, Note_on_c, 1, 34, 0
2, 83769, Note_on_c, 1, 39, 78
2, 83976, Note_on_c, 1, 37, 47
2, 83977, Note_on_c, 1, 39, 0
2, 84009, Note_on_c, 1, 38, 80
2, 84013, Note_on_c, 1, 37, 0
2, 84200, Note_on_c, 1, 37, 23
2, 84207, Note_on_c, 1, 51, 72
2, 84225, Note_on_c, 1, 37, 0
2, 84234, Note_on_c, 1, 51, 0
2, 84251, Note_on_c, 1, 50, 54
2, 84287, Note_on_c, 1, 38, 0
2, 84357, Note_on_c, 1, 44, 71
2, 84361, Note_on_c, 1, 50, 0
2, 84474, Note_on_c, 1, 44, 0
2, 84481, Note_on_c, 1, 43, 63
2, 84711, Note_on_c, 1, 43, 0
2, 84721, Note_on_c, 1, 34, 63
2, 84825, Note_on_c, 1, 34, 0
2, 84838, Note_on_c, 1, 35, 57
2, 84937, Note_on_c, 1, 34, 25
2, 84952, Note_on_c, 1, 35, 0
2, 84960, Note_on_c, 1, 34, 0
2, 84964, Note_on_c, 1, 36, 71
2, 85526, Note_on_c, 1, 41, 51
2, 85541, Note_on_c, 1, 41, 0
2, 85596, Note_on_c, 1, 33, 39
2, 85674, Note_on_c, 1, 33, 0
2, 85685, Note_on_c, 1, 34, 69
2, 85778, Note_on_c, 1, 34, 0
2, 85806, Note_on_c, 1, 36, 0
2, 85812, Note_on_c, 1, 35, 61
2, 85866, Note_on_c, 1, 35, 0
2, 85938, Note_on_c, 1, 36, 47
2, 86017, Note_on_c, 1, 36, 0
2, 86136, Note_on_c, 1, 41, 64
2, 87361, Note_on_c, 1, 41, 0
2, 87361, End_track
3, 0, Start_track
3, 0, MIDI_port, 0
3, 0, Title_t, "Piano"
3, 0, Program_c, 0, 0
3, 4, Note_on_c, 0, 81, 81
3, 15, Note_on_c, 0, 57, 71
3, 167, Note_on_c, 0, 81, 0
3, 182, Note_on_c, 0, 57, 0
3, 256, Note_on_c, 0, 69, 76
3, 257, Note_on_c, 0, 63, 29
3, 257, Note_on_c, 0, 58, 74
3, 258, Note_on_c, 0, 47, 60
3, 260, Note_on_c, 0, 50, 51
3, 260, Note_on_c, 0, 48, 56
3, 261, Note_on_c, 0, 62, 66
3, 262, Note_on_c, 0, 65, 55
3, 263, Note_on_c, 0, 67, 37
3, 267, Note_on_c, 0, 63, 0
3, 277, Note_on_c, 0, 47, 0
3, 303, Note_on_c, 0, 50, 0
3, 308, Note_on_c, 0, 58, 0
3, 310, Note_on_c, 0, 69, 0
3, 312, Note_on_c, 0, 62, 0
3, 315, Note_on_c, 0, 67, 0
3, 317, Note_on_c, 0, 65, 0
3, 325, Note_on_c, 0, 58, 55
3, 328, Note_on_c, 0, 69, 39
3, 329, Note_on_c, 0, 62, 66
3, 332, Note_on_c, 0, 58, 0
3, 332, Note_on_c, 0, 65, 26
3, 337, Note_on_c, 0, 62, 0
3, 337, Note_on_c, 0, 69, 0
3, 341, Note_on_c, 0, 65, 0
3, 352, Note_on_c, 0, 48, 0
3, 493, Note_on_c, 0, 69, 51
3, 493, Note_on_c, 0, 62, 48
3, 496, Note_on_c, 0, 58, 30
3, 497, Note_on_c, 0, 48, 32
3, 497, Note_on_c, 0, 65, 42
3, 509, Note_on_c, 0, 65, 0
3, 510, Note_on_c, 0, 58, 0
3, 516, Note_on_c, 0, 69, 0
3, 517, Note_on_c, 0, 48, 0
3, 519, Note_on_c, 0, 62, 0
3, 615, Control_c, 0, 64, 127
3, 711, Note_on_c, 0, 53, 39
3, 720, Note_on_c, 0, 53, 0
3, 726, Control_c, 0, 64, 0
3, 730, Note_on_c, 0, 79, 105
3, 733, Note_on_c, 0, 55, 84
3, 770, Control_c, 0, 64, 127
3, 808, Note_on_c, 0, 55, 0
3, 814, Note_on_c, 0, 79, 0
3, 815, Note_on_c, 0, 50, 40
3, 815, Note_on_c, 0, 74, 40
3, 824, Control_c, 0, 64, 0
3, 827, Note_on_c, 0, 74, 0
3, 846, Note_on_c, 0, 50, 0
3, 847, Control_c, 0, 64, 127
3, 850, Note_on_c, 0, 55, 61
3, 852, Note_on_c, 0, 79, 73
3, 890, Note_on_c, 0, 55, 0
3, 912, Note_on_c, 0, 79, 0
3, 928, Note_on_c, 0, 57, 87
3, 929, Note_on_c, 0, 81, 94
3, 1018, Note_on_c, 0, 81, 0
3, 1023, Note_on_c, 0, 57, 0
3, 1209, Note_on_c, 0, 69, 51
3, 1210, Note_on_c, 0, 36, 46
3, 1211, Note_on_c, 0, 48, 41
3, 1211, Control_c, 0, 64, 0
3, 1214, Note_on_c, 0, 58, 39
3, 1216, Note_on_c, 0, 62, 36
3, 1224, Note_on_c, 0, 65, 30
3, 1257, Note_on_c, 0, 65, 0
3, 1258, Note_on_c, 0, 58, 0
3, 1259, Note_on_c, 0, 69, 0
3, 1261, Note_on_c, 0, 48, 0
3, 1266, Note_on_c, 0, 62, 0
3, 1283, Note_on_c, 0, 48, 51
3, 1284, Note_on_c, 0, 58, 35
3, 1287, Note_on_c, 0, 69, 35
3, 1289, Note_on_c, 0, 62, 51
3, 1293, Note_on_c, 0, 58, 0
3, 1293, Note_on_c, 0, 65, 32
3, 1296, Note_on_c, 0, 69, 0
3, 1296, Note_on_c, 0, 62, 0
3, 1300, Note_on_c, 0, 48, 0
3, 1301, Note_on_c, 0, 65, 0
3, 1303, Note_on_c, 0, 36, 0
3, 1456, Note_on_c, 0, 69, 49
3, 1458, Note_on_c, 0, 58, 45
3, 1460, Note_on_c, 0, 36, 48
3, 1460, Note_on_c, 0, 48, 42
3, 1461, Note_on_c, 0, 62, 42
3, 1465, Note_on_c, 0, 65, 37
3, 1471, Note_on_c, 0, 58, 0
3, 1475, Note_on_c, 0, 65, 0
3, 1477, Note_on_c, 0, 48, 0
3, 1477, Note_on_c, 0, 62, 0
3, 1480, Note_on_c, 0, 69, 0
3, 1486, Note_on_c, 0, 36, 0
3, 1580, Control_c, 0, 64, 127
3, 1648, Note_on_c, 0, 67, 99
3, 1649, Note_on_c, 0, 54, 81
3, 1650, Note_on_c, 0, 55, 99
3, 1652, Note_on_c, 0, 66, 42
3, 1660, Note_on_c, 0, 66, 0
3, 1666, Control_c, 0, 64, 0
3, 1686, Note_on_c, 0, 54, 0
3, 1770, Note_on_c, 0, 62, 40
3, 1773, Note_on_c, 0, 55, 0
3, 1775, Note_on_c, 0, 50, 36
3, 1784, Note_on_c, 0, 67, 0
3, 1787, Note_on_c, 0, 62, 0
3, 1807, Note_on_c, 0, 67, 36
3, 1813, Note_on_c, 0, 50, 0
3, 1813, Note_on_c, 0, 55, 51
3, 1813, Control_c, 0, 64, 127
3, 1840, Note_on_c, 0, 55, 0
3, 1874, Note_on_c, 0, 67, 0
3, 1889, Note_on_c, 0, 62, 64
3, 1889, Note_on_c, 0, 69, 69
3, 1891, Note_on_c, 0, 58, 57
3, 1893, Note_on_c, 0, 65, 50
3, 1893, Note_on_c, 0, 57, 60
3, 1901, Note_on_c, 0, 57, 0
3, 2008, Control_c, 0, 64, 0
3, 2008, Note_on_c, 0, 48, 103
3, 2009, Note_on_c, 0, 36, 105
3, 2041, Control_c, 0, 64, 127
3, 2070, Note_on_c, 0, 36, 0
3, 2085, Note_on_c, 0, 48, 0
3, 2095, Note_on_c, 0, 58, 0
3, 2118, Note_on_c, 0, 62, 0
3, 2121, Note_on_c, 0, 69, 0
3, 2125, Note_on_c, 0, 65, 0
3, 2142, Note_on_c, 0, 51, 28
3, 2174, Note_on_c, 0, 55, 64
3, 2175, Note_on_c, 0, 51, 0
3, 2178, Note_on_c, 0, 67, 66
3, 2182, Control_c, 0, 64, 0
3, 2242, Note_on_c, 0, 55, 0
3, 2246, Note_on_c, 0, 67, 0
3, 2252, Note_on_c, 0, 50, 40
3, 2254, Note_on_c, 0, 62, 31
3, 2277, Note_on_c, 0, 62, 0
3, 2290, Note_on_c, 0, 67, 43
3, 2291, Note_on_c, 0, 50, 0
3, 2291, Note_on_c, 0, 55, 43
3, 2295, Control_c, 0, 64, 127
3, 2316, Note_on_c, 0, 55, 0
3, 2350, Note_on_c, 0, 67, 0
3, 2372, Note_on_c, 0, 69, 88
3, 2377, Note_on_c, 0, 62, 74
3, 2377, Note_on_c, 0, 58, 53
3, 2385, Note_on_c, 0, 58, 0
3, 2394, Control_c, 0, 64, 0
3, 2395, Note_on_c, 0, 62, 0
3, 2404, Note_on_c, 0, 69, 0
3, 2489, Note_on_c, 0, 65, 70
3, 2490, Note_on_c, 0, 62, 64
3, 2492, Note_on_c, 0, 47, 73
3, 2493, Note_on_c, 0, 35, 74
3, 2494, Note_on_c, 0, 57, 39
3, 2496, Note_on_c, 0, 59, 49
3, 2504, Note_on_c, 0, 59, 0
3, 2520, Control_c, 0, 64, 127
3, 2557, Note_on_c, 0, 62, 0
3, 2585, Note_on_c, 0, 57, 0
3, 2602, Note_on_c, 0, 35, 0
3, 2605, Note_on_c, 0, 47, 0
3, 2631, Note_on_c, 0, 65, 0
3, 2652, Control_c, 0, 64, 0
3, 2654, Note_on_c, 0, 46, 39
3, 2654, Note_on_c, 0, 34, 46
3, 2656, Note_on_c, 0, 61, 47
3, 2656, Note_on_c, 0, 56, 31
3, 2657, Note_on_c, 0, 65, 38
3, 2682, Note_on_c, 0, 56, 0
3, 2685, Note_on_c, 0, 65, 0
3, 2686, Note_on_c, 0, 61, 0
3, 2693, Note_on_c, 0, 34, 0
3, 2704, Note_on_c, 0, 46, 0
3, 2772, Note_on_c, 0, 34, 46
3, 2772, Note_on_c, 0, 46, 36
3, 2774, Control_c, 0, 64, 127
3, 2775, Note_on_c, 0, 56, 33
3, 2776, Note_on_c, 0, 65, 38
3, 2776, Note_on_c, 0, 61, 50
3, 2809, Note_on_c, 0, 65, 0
3, 2811, Note_on_c, 0, 56, 0
3, 2811, Note_on_c, 0, 61, 0
3, 2816, Note_on_c, 0, 46, 0
3, 2823, Note_on_c, 0, 34, 0
3, 2851, Control_c, 0, 64, 0
3, 2859, Note_on_c, 0, 65, 49
3, 2862, Note_on_c, 0, 60, 53
3, 2863, Note_on_c, 0, 33, 49
3, 2864, Note_on_c, 0, 55, 34
3, 2865, Note_on_c, 0, 45, 33
3, 2873, Note_on_c, 0, 55, 0
3, 2877, Control_c, 0, 64, 127
3, 2881, Note_on_c, 0, 33, 0
3, 2884, Note_on_c, 0, 60, 0
3, 2894, Note_on_c, 0, 45, 0
3, 2895, Note_on_c, 0, 65, 0
3, 2957, Note_on_c, 0, 74, 73
3, 2959, Note_on_c, 0, 64, 66
3, 2960, Note_on_c, 0, 62, 71
3, 2963, Note_on_c, 0, 67, 54
3, 2964, Note_on_c, 0, 71, 34
3, 2970, Note_on_c, 0, 64, 0
3, 2971, Note_on_c, 0, 67, 0
3, 2974, Note_on_c, 0, 71, 0
3, 2976, Control_c, 0, 64, 0
3, 2981, Note_on_c, 0, 74, 0
3, 2988, Note_on_c, 0, 62, 0
3, 2997, Note_on_c, 0, 60, 55
3, 3006, Note_on_c, 0, 60, 0
3, 3027, Note_on_c, 0, 62, 91
3, 3028, Note_on_c, 0, 74, 88
3, 3029, Note_on_c, 0, 67, 85
3, 3029, Note_on_c, 0, 64, 94
3, 3030, Note_on_c, 0, 71, 80
3, 3051, Control_c, 0, 64, 127
3, 3100, Note_on_c, 0, 64, 0
3, 3102, Note_on_c, 0, 74, 0
3, 3105, Note_on_c, 0, 67, 0
3, 3106, Note_on_c, 0, 62, 0
3, 3115, Note_on_c, 0, 71, 0
3, 3131, Control_c, 0, 64, 0
3, 3135, Note_on_c, 0, 62, 58
3, 3136, Note_on_c, 0, 74, 74
3, 3138, Note_on_c, 0, 71, 51
3, 3138, Note_on_c, 0, 67, 63
3, 3138, Note_on_c, 0, 64, 66
3, 3159, Control_c, 0, 64, 127
3, 3213, Note_on_c, 0, 64, 0
3, 3230, Note_on_c, 0, 74, 0
3, 3237, Note_on_c, 0, 71, 0
3, 3260, Note_on_c, 0, 62, 0
3, 3260, Note_on_c, 0, 72, 48
3, 3264, Note_on_c, 0, 67, 0
3, 3265, Note_on_c, 0, 60, 38
3, 3302, Note_on_c, 0, 72, 0
3, 3324, Note_on_c, 0, 60, 0
3, 3333, Note_on_c, 0, 62, 60
3, 3333, Note_on_c, 0, 74, 65
3, 3334, Note_on_c, 0, 68, 69
3, 3336, Note_on_c, 0, 71, 61
3, 3336, Note_on_c, 0, 64, 68
3, 3337, Note_on_c, 0, 60, 20
3, 3340, Note_on_c, 0, 62, 0
3, 3344, Control_c, 0, 64, 0
3, 3346, Note_on_c, 0, 60, 0
3, 3355, Control_c, 0, 64, 127
3, 3453, Note_on_c, 0, 38, 80
3, 3453, Note_on_c, 0, 36, 80
3, 3454, Note_on_c, 0, 24, 71
3, 3458, Note_on_c, 0, 26, 46
3, 3464, Control_c, 0, 64, 0
3, 3467, Note_on_c, 0, 26, 0
3, 3496, Note_on_c, 0, 36, 0
3, 3504, Note_on_c, 0, 24, 0
3, 3611, Control_c, 0, 64, 127
3, 3682, Note_on_c, 0, 71, 0
3, 3687, Note_on_c, 0, 68, 0
3, 3722, Note_on_c, 0, 74, 0
3, 3727, Note_on_c, 0, 64, 0
3, 3739, Note_on_c, 0, 38, 0
3, 3750, Note_on_c, 0, 69, 35
3, 3771, Note_on_c, 0, 69, 0
3, 3855, Note_on_c, 0, 72, 47
3, 3857, Note_on_c, 0, 68, 39
3, 3858, Note_on_c, 0, 65, 50
3, 3860, Note_on_c, 0, 61, 30
3, 3865, Control_c, 0, 64, 0
3, 3865, Note_on_c, 0, 60, 44
3, 3955, Note_on_c, 0, 65, 0
3, 3961, Note_on_c, 0, 61, 0
3, 3976, Note_on_c, 0, 61, 32
3, 3984, Note_on_c, 0, 65, 24
3, 4031, Note_on_c, 0, 65, 0
3, 4042, Note_on_c, 0, 68, 0
3, 4045, Note_on_c, 0, 61, 0
3, 4099, Note_on_c, 0, 68, 27
3, 4101, Note_on_c, 0, 61, 26
3, 4102, Note_on_c, 0, 65, 39
3, 4141, Note_on_c, 0, 65, 0
3, 4148, Note_on_c, 0, 68, 0
3, 4155, Note_on_c, 0, 61, 0
3, 4208, Note_on_c, 0, 61, 29
3, 4210, Note_on_c, 0, 68, 32
3, 4214, Note_on_c, 0, 65, 43
3, 4254, Note_on_c, 0, 65, 0
3, 4257, Note_on_c, 0, 68, 0
3, 4269, Note_on_c, 0, 61, 0
3, 4328, Note_on_c, 0, 61, 25
3, 4331, Note_on_c, 0, 68, 36
3, 4332, Note_on_c, 0, 65, 40
3, 4366, Note_on_c, 0, 65, 0
3, 4371, Note_on_c, 0, 68, 0
3, 4380, Note_on_c, 0, 61, 0
3, 4437, Note_on_c, 0, 51, 82
3, 4445, Note_on_c, 0, 61, 73
3, 4448, Note_on_c, 0, 65, 65
3, 4449, Note_on_c, 0, 68, 51
3, 4452, Note_on_c, 0, 60, 0
3, 4526, Note_on_c, 0, 65, 0
3, 4530, Note_on_c, 0, 68, 0
3, 4531, Note_on_c, 0, 61, 0
3, 4551, Note_on_c, 0, 72, 0
3, 4563, Note_on_c, 0, 61, 42
3, 4567, Note_on_c, 0, 65, 54
3, 4567, Note_on_c, 0, 70, 53
3, 4568, Control_c, 0, 64, 127
3, 4608, Note_on_c, 0, 65, 0
3, 4612, Note_on_c, 0, 61, 0
3, 4647, Note_on_c, 0, 70, 0
3, 4666, Control_c, 0, 64, 0
3, 4689, Note_on_c, 0, 61, 56
3, 4689, Note_on_c, 0, 58, 46
3, 4689, Note_on_c, 0, 65, 59
3, 4689, Note_on_c, 0, 70, 68
3, 4696, Note_on_c, 0, 51, 0
3, 4703, Control_c, 0, 64, 127
3, 4731, Note_on_c, 0, 58, 0
3, 4764, Note_on_c, 0, 61, 0
3, 4766, Note_on_c, 0, 65, 0
3, 4792, Note_on_c, 0, 70, 0
3, 4815, Note_on_c, 0, 72, 81
3, 5053, Note_on_c, 0, 61, 40
3, 5055, Note_on_c, 0, 65, 58
3, 5055, Note_on_c, 0, 51, 43
3, 5056, Note_on_c, 0, 69, 49
3, 5061, Note_on_c, 0, 55, 49
3, 5065, Control_c, 0, 64, 0
3, 5080, Note_on_c, 0, 65, 0
3, 5086, Note_on_c, 0, 69, 0
3, 5093, Note_on_c, 0, 51, 0
3, 5093, Note_on_c, 0, 61, 0
3, 5094, Note_on_c, 0, 55, 0
3, 5099, Note_on_c, 0, 72, 0
3, 5136, Note_on_c, 0, 72, 47
3, 5137, Note_on_c, 0, 61, 51
3, 5140, Note_on_c, 0, 65, 44
3, 5140, Note_on_c, 0, 69, 49
3, 5142, Note_on_c, 0, 51, 34
3, 5147, Note_on_c, 0, 55, 40
3, 5157, Note_on_c, 0, 65, 0
3, 5158, Note_on_c, 0, 55, 0
3, 5160, Note_on_c, 0, 61, 0
3, 5162, Note_on_c, 0, 69, 0
3, 5166, Note_on_c, 0, 51, 0
3, 5166, Note_on_c, 0, 72, 0
3, 5300, Note_on_c, 0, 51, 35
3, 5301, Note_on_c, 0, 61, 42
3, 5301, Note_on_c, 0, 72, 44
3, 5302, Note_on_c, 0, 69, 44
3, 5303, Note_on_c, 0, 65, 48
3, 5305, Note_on_c, 0, 55, 45
3, 5334, Control_c, 0, 64, 127
3, 5418, Note_on_c, 0, 69, 0
3, 5422, Note_on_c, 0, 61, 0
3, 5440, Note_on_c, 0, 65, 0
3, 5445, Note_on_c, 0, 72, 0
3, 5452, Note_on_c, 0, 55, 0
3, 5503, Note_on_c, 0, 58, 71
3, 5503, Note_on_c, 0, 70, 95
3, 5515, Control_c, 0, 64, 0
3, 5559, Control_c, 0, 64, 127
3, 5595, Note_on_c, 0, 70, 0
3, 5611, Note_on_c, 0, 60, 77
3, 5611, Note_on_c, 0, 72, 80
3, 5614, Note_on_c, 0, 58, 0
3, 5618, Control_c, 0, 64, 0
3, 5654, Control_c, 0, 64, 127
3, 5673, Note_on_c, 0, 72, 0
3, 5690, Note_on_c, 0, 70, 62
3, 5697, Note_on_c, 0, 60, 0
3, 5712, Note_on_c, 0, 58, 29
3, 5727, Note_on_c, 0, 70, 0
3, 5738, Note_on_c, 0, 65, 16
3, 5742, Note_on_c, 0, 58, 0
3, 5742, Note_on_c, 0, 51, 0
3, 5748, Note_on_c, 0, 65, 0
3, 5769, Note_on_c, 0, 69, 58
3, 5770, Note_on_c, 0, 60, 50
3, 5772, Note_on_c, 0, 65, 42
3, 5773, Control_c, 0, 64, 0
3, 5774, Note_on_c, 0, 50, 41
3, 5774, Note_on_c, 0, 57, 44
3, 5816, Control_c, 0, 64, 127
3, 5839, Note_on_c, 0, 65, 0
3, 5862, Note_on_c, 0, 60, 0
3, 5870, Note_on_c, 0, 57, 0
3, 5882, Note_on_c, 0, 50, 0
3, 5884, Note_on_c, 0, 63, 46
3, 5958, Note_on_c, 0, 63, 0
3, 5969, Note_on_c, 0, 62, 50
3, 5969, Note_on_c, 0, 59, 37
3, 5971, Control_c, 0, 64, 0
3, 5972, Note_on_c, 0, 53, 44
3, 5978, Note_on_c, 0, 43, 28
3, 6027, Control_c, 0, 64, 127
3, 6083, Note_on_c, 0, 62, 0
3, 6087, Note_on_c, 0, 59, 0
3, 6114, Note_on_c, 0, 69, 0
3, 6137, Note_on_c, 0, 53, 0
3, 6204, Note_on_c, 0, 67, 51
3, 6204, Note_on_c, 0, 58, 37
3, 6207, Note_on_c, 0, 57, 41
3, 6210, Note_on_c, 0, 62, 32
3, 6212, Note_on_c, 0, 43, 0
3, 6232, Control_c, 0, 64, 0
3, 6319, Note_on_c, 0, 48, 68
3, 6361, Control_c, 0, 64, 127
3, 6390, Note_on_c, 0, 67, 0
3, 6407, Note_on_c, 0, 57, 0
3, 6423, Note_on_c, 0, 62, 0
3, 6432, Note_on_c, 0, 58, 0
3, 6481, Note_on_c, 0, 58, 42
3, 6482, Note_on_c, 0, 65, 48
3, 6483, Note_on_c, 0, 62, 42
3, 6485, Control_c, 0, 64, 0
3, 6486, Note_on_c, 0, 55, 41
3, 6493, Note_on_c, 0, 48, 0
3, 6507, Control_c, 0, 64, 127
3, 6560, Note_on_c, 0, 34, 63
3, 6563, Control_c, 0, 64, 0
3, 6577, Note_on_c, 0, 55, 0
3, 6587, Control_c, 0, 64, 127
3, 6595, Note_on_c, 0, 58, 0
3, 6602, Note_on_c, 0, 62, 0
3, 6617, Note_on_c, 0, 65, 0
3, 6645, Note_on_c, 0, 34, 0
3, 6675, Note_on_c, 0, 33, 72
3, 6682, Control_c, 0, 64, 0
3, 6704, Note_on_c, 0, 33, 0
3, 6713, Control_c, 0, 64, 127
3, 6803, Note_on_c, 0, 81, 59
3, 6803, Note_on_c, 0, 69, 54
3, 6804, Note_on_c, 0, 60, 55
3, 6807, Note_on_c, 0, 65, 40
3, 6810, Note_on_c, 0, 69, 0
3, 6811, Note_on_c, 0, 60, 0
3, 6812, Note_on_c, 0, 81, 0
3, 6816, Note_on_c, 0, 65, 0
3, 6834, Control_c, 0, 64, 0
3, 6839, Note_on_c, 0, 60, 62
3, 6840, Note_on_c, 0, 65, 66
3, 6840, Note_on_c, 0, 55, 67
3, 6842, Note_on_c, 0, 61, 58
3, 6842, Note_on_c, 0, 84, 84
3, 6843, Note_on_c, 0, 72, 77
3, 6847, Control_c, 0, 64, 127
3, 6885, Note_on_c, 0, 72, 0
3, 6888, Note_on_c, 0, 55, 0
3, 6895, Note_on_c, 0, 65, 0
3, 6898, Note_on_c, 0, 60, 0
3, 6899, Note_on_c, 0, 84, 0
3, 6904, Note_on_c, 0, 61, 0
3, 6925, Note_on_c, 0, 60, 80
3, 6927, Note_on_c, 0, 61, 63
3, 6927, Note_on_c, 0, 65, 80
3, 6928, Note_on_c, 0, 89, 85
3, 6929, Note_on_c, 0, 55, 75
3, 6929, Note_on_c, 0, 77, 87
3, 6933, Control_c, 0, 64, 0
3, 6951, Control_c, 0, 64, 127
3, 6964, Note_on_c, 0, 77, 0
3, 6969, Note_on_c, 0, 55, 0
3, 6973, Note_on_c, 0, 65, 0
3, 6974, Note_on_c, 0, 89, 0
3, 6978, Note_on_c, 0, 60, 0
3, 6980, Note_on_c, 0, 61, 0
3, 7000, Note_on_c, 0, 60, 72
3, 7001, Note_on_c, 0, 61, 56
3, 7003, Note_on_c, 0, 65, 79
3, 7003, Note_on_c, 0, 93, 89
3, 7003, Note_on_c, 0, 55, 74
3, 7004, Note_on_c, 0, 81, 87
3, 7011, Note_on_c, 0, 58, 27
3, 7036, Note_on_c, 0, 81, 0
3, 7049, Note_on_c, 0, 55, 0
3, 7050, Note_on_c, 0, 93, 0
3, 7050, Note_on_c, 0, 58, 0
3, 7051, Note_on_c, 0, 65, 0
3, 7057, Note_on_c, 0, 60, 0
3, 7063, Note_on_c, 0, 61, 0
3, 7082, Note_on_c, 0, 61, 57
3, 7083, Note_on_c, 0, 60, 63
3, 7085, Note_on_c, 0, 55, 66
3, 7087, Note_on_c, 0, 65, 63
3, 7087, Note_on_c, 0, 96, 80
3, 7089, Note_on_c, 0, 84, 78
3, 7091, Note_on_c, 0, 58, 33
3, 7110, Note_on_c, 0, 84, 0
3, 7113, Note_on_c, 0, 65, 0
3, 7118, Note_on_c, 0, 96, 0
3, 7118, Note_on_c, 0, 55, 0
3, 7124, Note_on_c, 0, 60, 0
3, 7131, Note_on_c, 0, 61, 0
3, 7131, Note_on_c, 0, 58, 0
3, 7167, Control_c, 0, 64, 0
3, 7173, Note_on_c, 0, 60, 49
3, 7173, Note_on_c, 0, 64, 53
3, 7173, Note_on_c, 0, 54, 47
3, 7176, Note_on_c, 0, 85, 70
3, 7176, Note_on_c, 0, 97, 69
3, 7264, Note_on_c, 0, 64, 0
3, 7266, Note_on_c, 0, 54, 0
3, 7268, Note_on_c, 0, 85, 0
3, 7272, Note_on_c, 0, 60, 0
3, 7274, Note_on_c, 0, 97, 0
3, 7288, Note_on_c, 0, 54, 44
3, 7289, Note_on_c, 0, 60, 34
3, 7289, Note_on_c, 0, 64, 42
3, 7291, Note_on_c, 0, 98, 67
3, 7294, Note_on_c, 0, 86, 40
3, 7313, Note_on_c, 0, 60, 0
3, 7315, Note_on_c, 0, 98, 0
3, 7317, Note_on_c, 0, 54, 0
3, 7317, Note_on_c, 0, 64, 0
3, 7321, Note_on_c, 0, 86, 0
3, 7406, Note_on_c, 0, 92, 67
3, 7406, Note_on_c, 0, 80, 57
3, 7407, Note_on_c, 0, 54, 59
3, 7408, Note_on_c, 0, 60, 64
3, 7410, Note_on_c, 0, 64, 56
3, 7411, Note_on_c, 0, 86, 53
3, 7438, Note_on_c, 0, 64, 0
3, 7438, Note_on_c, 0, 92, 0
3, 7439, Note_on_c, 0, 80, 0
3, 7440, Note_on_c, 0, 86, 0
3, 7444, Note_on_c, 0, 60, 0
3, 7444, Note_on_c, 0, 54, 0
3, 7455, Note_on_c, 0, 54, 27
3, 7458, Note_on_c, 0, 89, 60
3, 7460, Note_on_c, 0, 64, 42
3, 7461, Note_on_c, 0, 60, 24
3, 7466, Note_on_c, 0, 77, 56
3, 7509, Note_on_c, 0, 89, 0
3, 7519, Note_on_c, 0, 77, 0
3, 7521, Note_on_c, 0, 64, 0
3, 7531, Note_on_c, 0, 54, 0
3, 7538, Note_on_c, 0, 60, 0
3, 7571, Note_on_c, 0, 54, 43
3, 7571, Note_on_c, 0, 74, 46
3, 7573, Note_on_c, 0, 64, 38
3, 7573, Note_on_c, 0, 60, 29
3, 7575, Note_on_c, 0, 86, 27
3, 7589, Note_on_c, 0, 74, 0
3, 7601, Note_on_c, 0, 86, 0
3, 7610, Note_on_c, 0, 60, 0
3, 7613, Note_on_c, 0, 64, 0
3, 7635, Note_on_c, 0, 54, 0
3, 7687, Note_on_c, 0, 85, 62
3, 7689, Note_on_c, 0, 81, 64
3, 7691, Note_on_c, 0, 89, 53
3, 7692, Note_on_c, 0, 62, 44
3, 7693, Note_on_c, 0, 93, 47
3, 7697, Note_on_c, 0, 91, 38
3, 7701, Note_on_c, 0, 62, 0
3, 7707, Note_on_c, 0, 91, 0
3, 7731, Note_on_c, 0, 81, 0
3, 7735, Note_on_c, 0, 85, 0
3, 7737, Note_on_c, 0, 89, 0
3, 7739, Note_on_c, 0, 86, 44
3, 7742, Note_on_c, 0, 93, 0
3, 7747, Note_on_c, 0, 86, 0
3, 7882, Note_on_c, 0, 36, 36
3, 7895, Note_on_c, 0, 36, 0
3, 7920, Note_on_c, 0, 58, 46
3, 7920, Note_on_c, 0, 65, 34
3, 7920, Note_on_c, 0, 62, 29
3, 7921, Note_on_c, 0, 55, 34
3, 7923, Note_on_c, 0, 48, 39
3, 7954, Note_on_c, 0, 55, 0
3, 7961, Note_on_c, 0, 48, 0
3, 7962, Note_on_c, 0, 58, 0
3, 7965, Note_on_c, 0, 62, 0
3, 7971, Note_on_c, 0, 65, 0
3, 8046, Note_on_c, 0, 62, 36
3, 8046, Note_on_c, 0, 65, 37
3, 8048, Note_on_c, 0, 58, 27
3, 8048, Note_on_c, 0, 48, 35
3, 8054, Note_on_c, 0, 55, 15
3, 8089, Note_on_c, 0, 55, 0
3, 8093, Note_on_c, 0, 48, 0
3, 8098, Note_on_c, 0, 58, 0
3, 8100, Note_on_c, 0, 65, 0
3, 8101, Note_on_c, 0, 62, 0
3, 8167, Note_on_c, 0, 48, 43
3, 8168, Note_on_c, 0, 62, 33
3, 8170, Note_on_c, 0, 57, 30
3, 8172, Note_on_c, 0, 58, 30
3, 8172, Note_on_c, 0, 65, 37
3, 8227, Note_on_c, 0, 57, 0
3, 8228, Note_on_c, 0, 48, 0
3, 8230, Note_on_c, 0, 58, 0
3, 8232, Note_on_c, 0, 65, 0
3, 8233, Note_on_c, 0, 62, 0
3, 8367, Note_on_c, 0, 62, 37
3, 8369, Note_on_c, 0, 58, 30
3, 8369, Note_on_c, 0, 65, 42
3, 8370, Note_on_c, 0, 57, 31
3, 8371, Note_on_c, 0, 48, 37
3, 8487, Note_on_c, 0, 57, 0
3, 8490, Note_on_c, 0, 65, 0
3, 8507, Note_on_c, 0, 62, 0
3, 8510, Note_on_c, 0, 58, 0
3, 8533, Note_on_c, 0, 67, 61
3, 8561, Note_on_c, 0, 67, 0
3, 8566, Note_on_c, 0, 62, 40
3, 8584, Note_on_c, 0, 62, 0
3, 8603, Note_on_c, 0, 67, 66
3, 8624, Note_on_c, 0, 67, 0
3, 8645, Note_on_c, 0, 69, 84
3, 8647, Note_on_c, 0, 48, 0
3, 8720, Note_on_c, 0, 36, 59
3, 8729, Note_on_c, 0, 36, 0
3, 8752, Control_c, 0, 64, 127
3, 8806, Note_on_c, 0, 48, 32
3, 8872, Note_on_c, 0, 69, 0
3, 8873, Note_on_c, 0, 55, 52
3, 8875, Note_on_c, 0, 66, 48
3, 8880, Note_on_c, 0, 62, 47
3, 8890, Note_on_c, 0, 62, 0
3, 8901, Note_on_c, 0, 66, 0
3, 8957, Note_on_c, 0, 58, 36
3, 8959, Note_on_c, 0, 81, 80
3, 8960, Note_on_c, 0, 74, 71
3, 8963, Note_on_c, 0, 48, 0
3, 8964, Note_on_c, 0, 55, 0
3, 8981, Note_on_c, 0, 58, 0
3, 9021, Note_on_c, 0, 74, 0
3, 9023, Note_on_c, 0, 81, 0
3, 9031, Note_on_c, 0, 78, 39
3, 9032, Note_on_c, 0, 58, 46
3, 9036, Note_on_c, 0, 69, 45
3, 9056, Note_on_c, 0, 69, 0
3, 9067, Note_on_c, 0, 78, 0
3, 9118, Note_on_c, 0, 64, 44
3, 9121, Note_on_c, 0, 93, 76
3, 9122, Note_on_c, 0, 86, 62
3, 9172, Note_on_c, 0, 64, 0
3, 9189, Note_on_c, 0, 86, 0
3, 9194, Note_on_c, 0, 93, 0
3, 9203, Note_on_c, 0, 90, 50
3, 9207, Note_on_c, 0, 81, 36
3, 9208, Note_on_c, 0, 64, 29
3, 9212, Note_on_c, 0, 90, 0
3, 9216, Note_on_c, 0, 81, 0
3, 9217, Note_on_c, 0, 64, 0
3, 9225, Note_on_c, 0, 58, 0
3, 9238, Control_c, 0, 64, 0
3, 9438, Note_on_c, 0, 54, 45
3, 9441, Note_on_c, 0, 66, 69
3, 9446, Note_on_c, 0, 67, 68
3, 9448, Note_on_c, 0, 55, 58
3, 9451, Note_on_c, 0, 54, 0
3, 9462, Note_on_c, 0, 66, 0
3, 9519, Note_on_c, 0, 67, 0
3, 9521, Note_on_c, 0, 55, 0
3, 9523, Note_on_c, 0, 62, 49
3, 9532, Note_on_c, 0, 50, 32
3, 9535, Note_on_c, 0, 62, 0
3, 9559, Note_on_c, 0, 67, 57
3, 9565, Note_on_c, 0, 55, 38
3, 9574, Note_on_c, 0, 50, 0
3, 9575, Note_on_c, 0, 55, 0
3, 9584, Note_on_c, 0, 67, 0
3, 9606, Note_on_c, 0, 69, 79
3, 9685, Note_on_c, 0, 58, 40
3, 9686, Note_on_c, 0, 55, 46
3, 9686, Note_on_c, 0, 62, 44
3, 9688, Note_on_c, 0, 48, 52
3, 9690, Note_on_c, 0, 65, 37
3, 9699, Note_on_c, 0, 62, 0
3, 9700, Note_on_c, 0, 55, 0
3, 9700, Note_on_c, 0, 65, 0
3, 9701, Note_on_c, 0, 58, 0
3, 9701, Note_on_c, 0, 48, 0
3, 9846, Note_on_c, 0, 58, 27
3, 9848, Note_on_c, 0, 65, 34
3, 9848, Note_on_c, 0, 62, 36
3, 9851, Note_on_c, 0, 48, 34
3, 9853, Note_on_c, 0, 55, 32
3, 9901, Note_on_c, 0, 69, 0
3, 9913, Note_on_c, 0, 65, 0
3, 9914, Note_on_c, 0, 58, 0
3, 9921, Note_on_c, 0, 67, 54
3, 9929, Note_on_c, 0, 62, 0
3, 10011, Note_on_c, 0, 67, 0
3, 10013, Note_on_c, 0, 62, 55
3, 10036, Note_on_c, 0, 62, 0
3, 10045, Note_on_c, 0, 48, 0
3, 10050, Note_on_c, 0, 67, 68
3, 10058, Note_on_c, 0, 55, 0
3, 10075, Note_on_c, 0, 67, 0
3, 10097, Note_on_c, 0, 69, 92
3, 10174, Note_on_c, 0, 65, 51
3, 10174, Note_on_c, 0, 57, 35
3, 10175, Note_on_c, 0, 62, 44
3, 10177, Note_on_c, 0, 47, 40
3, 10206, Control_c, 0, 64, 127
3, 10251, Note_on_c, 0, 47, 0
3, 10261, Note_on_c, 0, 69, 0
3, 10262, Note_on_c, 0, 62, 0
3, 10268, Note_on_c, 0, 65, 0
3, 10280, Note_on_c, 0, 57, 0
3, 10408, Note_on_c, 0, 60, 58
3, 10409, Note_on_c, 0, 64, 46
3, 10409, Note_on_c, 0, 56, 48
3, 10411, Note_on_c, 0, 46, 37
3, 10411, Note_on_c, 0, 34, 45
3, 10420, Control_c, 0, 64, 0
3, 10457, Control_c, 0, 64, 127
3, 10519, Note_on_c, 0, 56, 0
3, 10519, Note_on_c, 0, 64, 0
3, 10520, Note_on_c, 0, 60, 0
3, 10530, Note_on_c, 0, 46, 0
3, 10533, Note_on_c, 0, 34, 0
3, 10638, Control_c, 0, 64, 0
3, 10643, Note_on_c, 0, 63, 69
3, 10647, Note_on_c, 0, 55, 67
3, 10648, Note_on_c, 0, 60, 64
3, 10649, Note_on_c, 0, 33, 54
3, 10650, Note_on_c, 0, 45, 57
3, 10682, Control_c, 0, 64, 127
3, 10685, Note_on_c, 0, 33, 0
3, 10685, Note_on_c, 0, 55, 0
3, 10692, Note_on_c, 0, 60, 0
3, 10703, Note_on_c, 0, 45, 0
3, 10705, Note_on_c, 0, 63, 0
3, 10752, Note_on_c, 0, 75, 85
3, 10829, Note_on_c, 0, 67, 68
3, 10893, Note_on_c, 0, 67, 0
3, 10908, Note_on_c, 0, 72, 73
3, 10910, Note_on_c, 0, 63, 50
3, 10910, Note_on_c, 0, 67, 54
3, 10917, Note_on_c, 0, 62, 33
3, 10924, Note_on_c, 0, 75, 0
3, 10937, Note_on_c, 0, 67, 0
3, 10943, Note_on_c, 0, 62, 0
3, 10952, Note_on_c, 0, 63, 0
3, 10985, Note_on_c, 0, 72, 0
3, 10994, Note_on_c, 0, 75, 77
3, 11047, Note_on_c, 0, 75, 0
3, 11069, Note_on_c, 0, 77, 65
3, 11072, Note_on_c, 0, 70, 57
3, 11072, Note_on_c, 0, 64, 47
3, 11073, Note_on_c, 0, 60, 36
3, 11073, Note_on_c, 0, 54, 34
3, 11075, Note_on_c, 0, 66, 45
3, 11080, Control_c, 0, 64, 0
3, 11130, Control_c, 0, 64, 127
3, 11140, Note_on_c, 0, 77, 0
3, 11152, Note_on_c, 0, 75, 60
3, 11172, Note_on_c, 0, 64, 0
3, 11174, Note_on_c, 0, 60, 0
3, 11189, Note_on_c, 0, 54, 0
3, 11193, Note_on_c, 0, 66, 0
3, 11195, Note_on_c, 0, 70, 0
3, 11203, Note_on_c, 0, 75, 0
3, 11258, Note_on_c, 0, 74, 49
3, 11260, Note_on_c, 0, 65, 40
3, 11261, Note_on_c, 0, 54, 36
3, 11261, Note_on_c, 0, 70, 42
3, 11261, Note_on_c, 0, 60, 44
3, 11263, Control_c, 0, 64, 0
3, 11300, Control_c, 0, 64, 127
3, 11319, Note_on_c, 0, 74, 0
3, 11333, Note_on_c, 0, 70, 0
3, 11370, Note_on_c, 0, 65, 0
3, 11391, Note_on_c, 0, 60, 0
3, 11401, Note_on_c, 0, 69, 43
3, 11409, Note_on_c, 0, 54, 0
3, 11416, Note_on_c, 0, 69, 0
3, 11491, Note_on_c, 0, 72, 56
3, 11492, Note_on_c, 0, 68, 52
3, 11494, Note_on_c, 0, 56, 32
3, 11496, Note_on_c, 0, 46, 33
3, 11507, Control_c, 0, 64, 0
3, 11516, Note_on_c, 0, 46, 0
3, 11518, Control_c, 0, 64, 127
3, 11524, Note_on_c, 0, 56, 0
3, 11554, Note_on_c, 0, 68, 0
3, 11563, Note_on_c, 0, 72, 0
3, 11604, Control_c, 0, 64, 0
3, 11605, Note_on_c, 0, 84, 78
3, 11606, Note_on_c, 0, 72, 62
3, 11609, Note_on_c, 0, 65, 39
3, 11612, Note_on_c, 0, 61, 39
3, 11612, Note_on_c, 0, 60, 42
3, 11626, Note_on_c, 0, 72, 0
3, 11633, Note_on_c, 0, 84, 0
3, 11659, Note_on_c, 0, 82, 38
3, 11695, Note_on_c, 0, 60, 0
3, 11708, Note_on_c, 0, 82, 0
3, 11721, Note_on_c, 0, 84, 72
3, 11727, Note_on_c, 0, 72, 36
3, 11727, Note_on_c, 0, 57, 48
3, 11746, Note_on_c, 0, 72, 0
3, 11751, Note_on_c, 0, 84, 0
3, 11758, Note_on_c, 0, 65, 0
3, 11773, Note_on_c, 0, 61, 0
3, 11778, Note_on_c, 0, 82, 39
3, 11827, Note_on_c, 0, 82, 0
3, 11844, Note_on_c, 0, 61, 28
3, 11844, Note_on_c, 0, 65, 55
3, 11845, Note_on_c, 0, 84, 65
3, 11847, Note_on_c, 0, 72, 52
3, 11862, Note_on_c, 0, 72, 0
3, 11863, Note_on_c, 0, 84, 0
3, 11893, Note_on_c, 0, 82, 42
3, 11928, Note_on_c, 0, 82, 0
3, 11960, Note_on_c, 0, 56, 52
3, 11973, Note_on_c, 0, 57, 0
3, 11976, Note_on_c, 0, 65, 0
3, 11985, Note_on_c, 0, 56, 0
3, 11987, Note_on_c, 0, 61, 0
3, 12003, Note_on_c, 0, 84, 64
3, 12004, Note_on_c, 0, 77, 49
3, 12005, Note_on_c, 0, 65, 50
3, 12008, Note_on_c, 0, 72, 34
3, 12008, Note_on_c, 0, 61, 37
3, 12012, Note_on_c, 0, 55, 50
3, 12028, Note_on_c, 0, 55, 0
3, 12033, Note_on_c, 0, 72, 0
3, 12038, Note_on_c, 0, 77, 0
3, 12041, Note_on_c, 0, 84, 0
3, 12049, Note_on_c, 0, 65, 0
3, 12070, Note_on_c, 0, 61, 0
3, 12124, Note_on_c, 0, 82, 59
3, 12126, Note_on_c, 0, 70, 48
3, 12128, Note_on_c, 0, 61, 40
3, 12129, Note_on_c, 0, 77, 45
3, 12130, Note_on_c, 0, 65, 44
3, 12135, Note_on_c, 0, 55, 36
3, 12176, Note_on_c, 0, 65, 0
3, 12179, Note_on_c, 0, 55, 0
3, 12181, Note_on_c, 0, 77, 0
3, 12186, Note_on_c, 0, 82, 0
3, 12187, Note_on_c, 0, 70, 0
3, 12188, Note_on_c, 0, 61, 0
3, 12244, Note_on_c, 0, 61, 40
3, 12246, Note_on_c, 0, 81, 48
3, 12248, Note_on_c, 0, 55, 46
3, 12250, Note_on_c, 0, 64, 34
3, 12251, Note_on_c, 0, 69, 32
3, 12252, Note_on_c, 0, 76, 33
3, 12274, Note_on_c, 0, 81, 0
3, 12290, Note_on_c, 0, 55, 0
3, 12291, Note_on_c, 0, 64, 0
3, 12292, Note_on_c, 0, 69, 0
3, 12305, Note_on_c, 0, 61, 0
3, 12312, Note_on_c, 0, 76, 0
3, 12327, Note_on_c, 0, 82, 60
3, 12327, Note_on_c, 0, 55, 54
3, 12328, Note_on_c, 0, 76, 34
3, 12329, Note_on_c, 0, 70, 52
3, 12330, Note_on_c, 0, 61, 39
3, 12332, Note_on_c, 0, 64, 36
3, 12345, Note_on_c, 0, 70, 0
3, 12350, Note_on_c, 0, 76, 0
3, 12352, Note_on_c, 0, 55, 0
3, 12352, Note_on_c, 0, 64, 0
3, 12360, Note_on_c, 0, 82, 0
3, 12370, Note_on_c, 0, 61, 0
3, 12443, Note_on_c, 0, 84, 84
3, 12444, Note_on_c, 0, 61, 67
3, 12445, Note_on_c, 0, 77, 74
3, 12445, Note_on_c, 0, 72, 75
3, 12446, Note_on_c, 0, 65, 73
3, 12447, Note_on_c, 0, 80, 52
3, 12447, Note_on_c, 0, 60, 66
3, 12464, Note_on_c, 0, 72, 0
3, 12466, Note_on_c, 0, 77, 0
3, 12468, Note_on_c, 0, 80, 0
3, 12475, Note_on_c, 0, 84, 0
3, 12477, Note_on_c, 0, 65, 0
3, 12494, Note_on_c, 0, 61, 0
3, 12500, Note_on_c, 0, 60, 0
3, 12560, Note_on_c, 0, 61, 69
3, 12561, Note_on_c, 0, 65, 69
3, 12562, Note_on_c, 0, 80, 61
3, 12563, Note_on_c, 0, 60, 68
3, 12563, Note_on_c, 0, 72, 78
3, 12563, Note_on_c, 0, 84, 83
3, 12564, Note_on_c, 0, 77, 65
3, 12579, Note_on_c, 0, 72, 0
3, 12580, Note_on_c, 0, 77, 0
3, 12582, Note_on_c, 0, 80, 0
3, 12582, Note_on_c, 0, 84, 0
3, 12586, Note_on_c, 0, 60, 0
3, 12587, Note_on_c, 0, 65, 0
3, 12595, Note_on_c, 0, 61, 0
3, 12645, Note_on_c, 0, 61, 61
3, 12647, Note_on_c, 0, 84, 74
3, 12648, Note_on_c, 0, 72, 69
3, 12648, Note_on_c, 0, 80, 50
3, 12649, Note_on_c, 0, 77, 62
3, 12654, Note_on_c, 0, 72, 0
3, 12654, Note_on_c, 0, 84, 0
3, 12659, Note_on_c, 0, 77, 0
3, 12662, Note_on_c, 0, 80, 0
3, 12663, Note_on_c, 0, 61, 0
3, 12679, Note_on_c, 0, 61, 53
3, 12683, Note_on_c, 0, 65, 40
3, 12683, Note_on_c, 0, 82, 56
3, 12683, Note_on_c, 0, 70, 52
3, 12692, Note_on_c, 0, 70, 0
3, 12693, Note_on_c, 0, 65, 0
3, 12698, Note_on_c, 0, 82, 0
3, 12709, Note_on_c, 0, 61, 0
3, 12719, Note_on_c, 0, 77, 73
3, 12719, Note_on_c, 0, 84, 80
3, 12720, Note_on_c, 0, 65, 58
3, 12720, Note_on_c, 0, 72, 70
3, 12722, Note_on_c, 0, 80, 47
3, 12723, Note_on_c, 0, 57, 60
3, 12727, Note_on_c, 0, 61, 13
3, 12796, Note_on_c, 0, 65, 0
3, 12800, Note_on_c, 0, 61, 0
3, 12803, Note_on_c, 0, 72, 0
3, 12805, Note_on_c, 0, 77, 0
3, 12806, Note_on_c, 0, 84, 0
3, 12813, Note_on_c, 0, 80, 0
3, 12838, Note_on_c, 0, 61, 38
3, 12840, Note_on_c, 0, 65, 34
3, 12842, Note_on_c, 0, 77, 44
3, 12843, Note_on_c, 0, 80, 28
3, 12850, Note_on_c, 0, 65, 0
3, 12852, Note_on_c, 0, 77, 0
3, 12852, Note_on_c, 0, 80, 0
3, 12862, Note_on_c, 0, 61, 0
3, 12872, Note_on_c, 0, 82, 56
3, 12872, Note_on_c, 0, 70, 60
3, 12881, Note_on_c, 0, 61, 37
3, 12884, Note_on_c, 0, 70, 0
3, 12893, Note_on_c, 0, 82, 0
3, 12897, Note_on_c, 0, 57, 0
3, 12916, Note_on_c, 0, 84, 85
3, 12916, Note_on_c, 0, 77, 78
3, 12917, Note_on_c, 0, 80, 60
3, 12918, Note_on_c, 0, 65, 62
3, 12918, Note_on_c, 0, 56, 73
3, 12918, Note_on_c, 0, 72, 75
3, 12983, Note_on_c, 0, 72, 0
3, 12984, Note_on_c, 0, 84, 0
3, 12985, Note_on_c, 0, 77, 0
3, 12987, Note_on_c, 0, 65, 0
3, 12993, Note_on_c, 0, 80, 0
3, 12995, Note_on_c, 0, 61, 0
3, 13007, Note_on_c, 0, 84, 58
3, 13009, Note_on_c, 0, 80, 42
3, 13011, Note_on_c, 0, 72, 43
3, 13012, Note_on_c, 0, 65, 39
3, 13013, Note_on_c, 0, 77, 46
3, 13015, Note_on_c, 0, 61, 26
3, 13016, Note_on_c, 0, 84, 0
3, 13020, Note_on_c, 0, 72, 0
3, 13021, Note_on_c, 0, 65, 0
3, 13027, Note_on_c, 0, 77, 0
3, 13030, Note_on_c, 0, 80, 0
3, 13030, Note_on_c, 0, 61, 0
3, 13031, Note_on_c, 0, 56, 0
3, 13050, Note_on_c, 0, 70, 40
3, 13052, Note_on_c, 0, 56, 33
3, 13056, Note_on_c, 0, 61, 35
3, 13058, Note_on_c, 0, 70, 0
3, 13075, Note_on_c, 0, 56, 0
3, 13077, Note_on_c, 0, 61, 0
3, 13089, Note_on_c, 0, 55, 74
3, 13090, Note_on_c, 0, 84, 83
3, 13091, Note_on_c, 0, 77, 76
3, 13091, Note_on_c, 0, 61, 57
3, 13091, Note_on_c, 0, 65, 59
3, 13093, Note_on_c, 0, 80, 53
3, 13093, Note_on_c, 0, 72, 78
3, 13160, Note_on_c, 0, 84, 0
3, 13173, Note_on_c, 0, 72, 0
3, 13174, Note_on_c, 0, 65, 0
3, 13179, Note_on_c, 0, 55, 0
3, 13181, Note_on_c, 0, 77, 0
3, 13189, Note_on_c, 0, 80, 0
3, 13195, Note_on_c, 0, 61, 0
3, 13201, Note_on_c, 0, 82, 74
3, 13203, Note_on_c, 0, 55, 54
3, 13204, Note_on_c, 0, 61, 37
3, 13205, Note_on_c, 0, 77, 60
3, 13206, Note_on_c, 0, 70, 57
3, 13207, Note_on_c, 0, 65, 58
3, 13274, Note_on_c, 0, 70, 0
3, 13279, Note_on_c, 0, 77, 0
3, 13285, Note_on_c, 0, 65, 0
3, 13287, Note_on_c, 0, 82, 0
3, 13298, Note_on_c, 0, 55, 0
3, 13304, Note_on_c, 0, 61, 0
3, 13321, Note_on_c, 0, 61, 55
3, 13322, Note_on_c, 0, 55, 51
3, 13324, Note_on_c, 0, 84, 68
3, 13325, Note_on_c, 0, 80, 44
3, 13326, Note_on_c, 0, 77, 51
3, 13326, Note_on_c, 0, 72, 66
3, 13327, Note_on_c, 0, 65, 50
3, 13330, Note_on_c, 0, 83, 36
3, 13335, Note_on_c, 0, 65, 0
3, 13337, Note_on_c, 0, 83, 0
3, 13340, Note_on_c, 0, 77, 0
3, 13340, Note_on_c, 0, 72, 0
3, 13342, Note_on_c, 0, 80, 0
3, 13343, Note_on_c, 0, 84, 0
3, 13343, Note_on_c, 0, 55, 0
3, 13348, Note_on_c, 0, 61, 0
3, 13401, Note_on_c, 0, 61, 69
3, 13402, Note_on_c, 0, 82, 74
3, 13404, Note_on_c, 0, 70, 73
3, 13406, Note_on_c, 0, 55, 45
3, 13414, Note_on_c, 0, 55, 0
3, 13419, Note_on_c, 0, 70, 0
3, 13420, Note_on_c, 0, 61, 0
3, 13425, Note_on_c, 0, 82, 0
3, 13448, Note_on_c, 0, 76, 73
3, 13448, Note_on_c, 0, 60, 71
3, 13448, Note_on_c, 0, 69, 73
3, 13449, Note_on_c, 0, 81, 76
3, 13451, Note_on_c, 0, 57, 53
3, 13452, Note_on_c, 0, 53, 57
3, 13454, Note_on_c, 0, 50, 30
3, 13498, Note_on_c, 0, 81, 0
3, 13500, Note_on_c, 0, 60, 0
3, 13502, Note_on_c, 0, 69, 0
3, 13502, Note_on_c, 0, 50, 0
3, 13506, Note_on_c, 0, 76, 0
3, 13506, Note_on_c, 0, 57, 0
3, 13507, Note_on_c, 0, 53, 0
3, 13520, Note_on_c, 0, 76, 71
3, 13521, Note_on_c, 0, 60, 45
3, 13522, Note_on_c, 0, 81, 63
3, 13523, Note_on_c, 0, 57, 43
3, 13525, Note_on_c, 0, 69, 62
3, 13526, Note_on_c, 0, 53, 38
3, 13544, Note_on_c, 0, 69, 0
3, 13544, Control_c, 0, 64, 127
3, 13545, Note_on_c, 0, 81, 0
3, 13551, Note_on_c, 0, 76, 0
3, 13555, Note_on_c, 0, 60, 0
3, 13558, Note_on_c, 0, 57, 0
3, 13562, Note_on_c, 0, 53, 0
3, 13640, Note_on_c, 0, 69, 73
3, 13642, Note_on_c, 0, 64, 79
3, 13644, Note_on_c, 0, 59, 71
3, 13645, Note_on_c, 0, 43, 49
3, 13651, Note_on_c, 0, 53, 40
3, 13656, Control_c, 0, 64, 0
3, 13689, Control_c, 0, 64, 127
3, 13709, Note_on_c, 0, 53, 0
3, 13727, Note_on_c, 0, 64, 0
3, 13737, Note_on_c, 0, 59, 0
3, 13760, Note_on_c, 0, 59, 35
3, 13761, Note_on_c, 0, 63, 46
3, 13762, Note_on_c, 0, 54, 49
3, 13786, Note_on_c, 0, 54, 0
3, 13788, Note_on_c, 0, 59, 0
3, 13794, Note_on_c, 0, 69, 0
3, 13802, Note_on_c, 0, 63, 0
3, 13804, Control_c, 0, 64, 0
3, 13812, Note_on_c, 0, 53, 44
3, 13815, Note_on_c, 0, 62, 41
3, 13819, Note_on_c, 0, 59, 19
3, 13824, Control_c, 0, 64, 127
3, 13834, Note_on_c, 0, 53, 0
3, 13845, Note_on_c, 0, 62, 0
3, 13848, Note_on_c, 0, 59, 0
3, 13876, Note_on_c, 0, 46, 31
3, 13889, Note_on_c, 0, 62, 57
3, 13892, Note_on_c, 0, 43, 0
3, 13892, Note_on_c, 0, 65, 57
3, 13893, Note_on_c, 0, 47, 55
3, 13894, Note_on_c, 0, 55, 57
3, 13895, Note_on_c, 0, 58, 43
3, 13896, Note_on_c, 0, 46, 0
3, 13896, Note_on_c, 0, 48, 50
3, 13907, Control_c, 0, 64, 0
3, 13911, Note_on_c, 0, 47, 0
3, 13991, Control_c, 0, 64, 127
3, 14002, Control_c, 0, 64, 0
3, 14006, Note_on_c, 0, 36, 66
3, 14017, Note_on_c, 0, 48, 0
3, 14046, Note_on_c, 0, 55, 0
3, 14059, Note_on_c, 0, 48, 52
3, 14060, Note_on_c, 0, 36, 0
3, 14060, Control_c, 0, 64, 127
3, 14067, Note_on_c, 0, 62, 0
3, 14096, Note_on_c, 0, 58, 0
3, 14109, Note_on_c, 0, 65, 0
3, 14117, Note_on_c, 0, 48, 0
3, 14120, Note_on_c, 0, 46, 25
3, 14130, Note_on_c, 0, 58, 67
3, 14130, Note_on_c, 0, 65, 47
3, 14131, Note_on_c, 0, 62, 60
3, 14132, Note_on_c, 0, 55, 62
3, 14136, Note_on_c, 0, 46, 0
3, 14137, Note_on_c, 0, 48, 51
3, 14137, Note_on_c, 0, 47, 68
3, 14149, Control_c, 0, 64, 0
3, 14153, Note_on_c, 0, 47, 0
3, 14246, Note_on_c, 0, 36, 80
3, 14249, Note_on_c, 0, 55, 0
3, 14267, Note_on_c, 0, 62, 0
3, 14279, Note_on_c, 0, 65, 0
3, 14298, Note_on_c, 0, 55, 26
3, 14332, Note_on_c, 0, 55, 0
3, 14337, Note_on_c, 0, 58, 0
3, 14410, Note_on_c, 0, 36, 0
3, 14414, Note_on_c, 0, 57, 47
3, 14416, Note_on_c, 0, 62, 42
3, 14417, Note_on_c, 0, 65, 36
3, 14417, Note_on_c, 0, 60, 46
3, 14443, Note_on_c, 0, 48, 0
3, 14450, Control_c, 0, 64, 127
3, 14468, Note_on_c, 0, 57, 0
3, 14480, Note_on_c, 0, 60, 0
3, 14492, Note_on_c, 0, 62, 0
3, 14497, Note_on_c, 0, 60, 81
3, 14502, Note_on_c, 0, 37, 68
3, 14503, Note_on_c, 0, 53, 50
3, 14503, Note_on_c, 0, 44, 69
3, 14504, Control_c, 0, 64, 0
3, 14545, Control_c, 0, 64, 127
3, 14560, Note_on_c, 0, 53, 0
3, 14591, Note_on_c, 0, 37, 0
3, 14599, Note_on_c, 0, 44, 0
3, 14601, Note_on_c, 0, 54, 80
3, 14603, Note_on_c, 0, 61, 76
3, 14607, Note_on_c, 0, 45, 72
3, 14610, Note_on_c, 0, 38, 68
3, 14614, Note_on_c, 0, 60, 0
3, 14615, Control_c, 0, 64, 0
3, 14638, Note_on_c, 0, 38, 0
3, 14648, Note_on_c, 0, 45, 0
3, 14657, Note_on_c, 0, 54, 0
3, 14666, Note_on_c, 0, 39, 64
3, 14669, Note_on_c, 0, 46, 67
3, 14670, Note_on_c, 0, 62, 73
3, 14670, Note_on_c, 0, 55, 62
3, 14673, Note_on_c, 0, 61, 0
3, 14728, Note_on_c, 0, 55, 0
3, 14733, Note_on_c, 0, 62, 0
3, 14747, Note_on_c, 0, 39, 0
3, 14764, Note_on_c, 0, 46, 0
3, 14766, Note_on_c, 0, 40, 50
3, 14766, Note_on_c, 0, 61, 57
3, 14767, Note_on_c, 0, 56, 50
3, 14768, Note_on_c, 0, 47, 56
3, 14800, Control_c, 0, 64, 127
3, 14805, Note_on_c, 0, 40, 0
3, 14815, Note_on_c, 0, 47, 0
3, 14829, Note_on_c, 0, 56, 0
3, 14832, Note_on_c, 0, 61, 0
3, 14844, Note_on_c, 0, 62, 50
3, 14845, Control_c, 0, 64, 0
3, 14845, Note_on_c, 0, 57, 53
3, 14846, Note_on_c, 0, 48, 52
3, 14848, Note_on_c, 0, 41, 41
3, 14924, Note_on_c, 0, 48, 0
3, 14967, Note_on_c, 0, 48, 55
3, 14976, Note_on_c, 0, 48, 0
3, 15016, Note_on_c, 0, 48, 48
3, 15029, Note_on_c, 0, 48, 0
3, 15087, Note_on_c, 0, 48, 72
3, 15116, Note_on_c, 0, 48, 0
3, 15197, Note_on_c, 0, 48, 57
3, 15210, Note_on_c, 0, 48, 0
3, 15243, Note_on_c, 0, 48, 51
3, 15249, Control_c, 0, 64, 127
3, 15253, Note_on_c, 0, 48, 0
3, 15253, Note_on_c, 0, 62, 0
3, 15265, Note_on_c, 0, 65, 0
3, 15289, Note_on_c, 0, 57, 0
3, 15322, Note_on_c, 0, 48, 45
3, 15325, Note_on_c, 0, 41, 0
3, 15345, Control_c, 0, 64, 0
3, 15348, Note_on_c, 0, 48, 0
3, 15360, Note_on_c, 0, 63, 45
3, 15363, Note_on_c, 0, 56, 47
3, 15363, Note_on_c, 0, 41, 55
3, 15363, Note_on_c, 0, 53, 45
3, 15364, Note_on_c, 0, 60, 51
3, 15379, Control_c, 0, 64, 127
3, 15380, Note_on_c, 0, 53, 0
3, 15394, Note_on_c, 0, 56, 0
3, 15394, Note_on_c, 0, 60, 0
3, 15404, Note_on_c, 0, 63, 0
3, 15420, Note_on_c, 0, 41, 0
3, 15477, Note_on_c, 0, 75, 84
3, 15522, Note_on_c, 0, 75, 0
3, 15559, Note_on_c, 0, 53, 64
3, 15561, Note_on_c, 0, 58, 62
3, 15562, Note_on_c, 0, 63, 69
3, 15563, Note_on_c, 0, 74, 91
3, 15577, Control_c, 0, 64, 0
3, 15615, Control_c, 0, 64, 127
3, 15627, Note_on_c, 0, 74, 0
3, 15638, Note_on_c, 0, 72, 74
3, 15693, Note_on_c, 0, 53, 0
3, 15707, Note_on_c, 0, 63, 0
3, 15709, Note_on_c, 0, 58, 0
3, 15714, Note_on_c, 0, 72, 0
3, 15729, Note_on_c, 0, 75, 83
3, 15733, Note_on_c, 0, 65, 70
3, 15735, Note_on_c, 0, 55, 62
3, 15738, Control_c, 0, 64, 0
3, 15738, Note_on_c, 0, 60, 53
3, 15802, Control_c, 0, 64, 127
3, 15843, Note_on_c, 0, 60, 0
3, 15849, Note_on_c, 0, 55, 0
3, 15865, Note_on_c, 0, 65, 0
3, 15927, Note_on_c, 0, 67, 57
3, 15927, Note_on_c, 0, 62, 51
3, 15928, Note_on_c, 0, 56, 57
3, 15935, Control_c, 0, 64, 0
3, 15998, Control_c, 0, 64, 127
3, 16053, Note_on_c, 0, 67, 0
3, 16055, Control_c, 0, 64, 0
3, 16071, Note_on_c, 0, 62, 0
3, 16082, Control_c, 0, 64, 127
3, 16083, Note_on_c, 0, 68, 61
3, 16085, Note_on_c, 0, 56, 0
3, 16164, Note_on_c, 0, 53, 51
3, 16165, Note_on_c, 0, 63, 50
3, 16166, Control_c, 0, 64, 0
3, 16169, Note_on_c, 0, 58, 40
3, 16179, Control_c, 0, 64, 127
3, 16181, Note_on_c, 0, 63, 0
3, 16191, Note_on_c, 0, 53, 0
3, 16196, Note_on_c, 0, 58, 0
3, 16197, Note_on_c, 0, 75, 0
3, 16204, Note_on_c, 0, 68, 0
3, 16328, Note_on_c, 0, 37, 45
3, 16328, Note_on_c, 0, 67, 40
3, 16329, Control_c, 0, 64, 0
3, 16331, Note_on_c, 0, 63, 32
3, 16337, Note_on_c, 0, 55, 24
3, 16341, Note_on_c, 0, 59, 24
3, 16404, Note_on_c, 0, 44, 42
3, 16409, Note_on_c, 0, 37, 0
3, 16441, Note_on_c, 0, 44, 0
3, 16450, Note_on_c, 0, 51, 44
3, 16466, Note_on_c, 0, 59, 0
3, 16509, Note_on_c, 0, 51, 0
3, 16526, Note_on_c, 0, 53, 73
3, 16617, Note_on_c, 0, 55, 0
3, 16634, Note_on_c, 0, 63, 0
3, 16683, Note_on_c, 0, 53, 0
3, 16683, Note_on_c, 0, 63, 19
3, 16686, Note_on_c, 0, 55, 29
3, 16690, Note_on_c, 0, 59, 31
3, 16746, Control_c, 0, 64, 127
3, 16767, Note_on_c, 0, 44, 39
3, 16773, Control_c, 0, 64, 0
3, 16782, Note_on_c, 0, 44, 0
3, 16789, Note_on_c, 0, 59, 0
3, 16796, Note_on_c, 0, 55, 0
3, 16796, Note_on_c, 0, 67, 0
3, 16799, Note_on_c, 0, 63, 0
3, 16805, Note_on_c, 0, 37, 32
3, 16883, Note_on_c, 0, 63, 48
3, 16885, Note_on_c, 0, 56, 37
3, 16887, Note_on_c, 0, 44, 47
3, 16890, Note_on_c, 0, 37, 0
3, 16894, Note_on_c, 0, 56, 0
3, 16901, Note_on_c, 0, 63, 0
3, 17008, Note_on_c, 0, 63, 56
3, 17008, Note_on_c, 0, 70, 60
3, 17009, Note_on_c, 0, 67, 44
3, 17009, Note_on_c, 0, 59, 62
3, 17011, Note_on_c, 0, 53, 49
3, 17020, Note_on_c, 0, 59, 0
3, 17021, Note_on_c, 0, 63, 0
3, 17024, Note_on_c, 0, 67, 0
3, 17024, Note_on_c, 0, 70, 0
3, 17026, Note_on_c, 0, 53, 0
3, 17089, Note_on_c, 0, 63, 47
3, 17089, Note_on_c, 0, 70, 54
3, 17089, Note_on_c, 0, 59, 59
3, 17093, Note_on_c, 0, 53, 36
3, 17100, Note_on_c, 0, 70, 0
3, 17102, Note_on_c, 0, 59, 0
3, 17109, Note_on_c, 0, 63, 0
3, 17120, Note_on_c, 0, 44, 0
3, 17128, Note_on_c, 0, 68, 32
3, 17141, Note_on_c, 0, 53, 0
3, 17147, Note_on_c, 0, 68, 0
3, 17169, Note_on_c, 0, 70, 74
3, 17171, Note_on_c, 0, 63, 57
3, 17172, Note_on_c, 0, 59, 62
3, 17176, Note_on_c, 0, 53, 53
3, 17198, Control_c, 0, 64, 127
3, 17212, Note_on_c, 0, 59, 0
3, 17220, Note_on_c, 0, 70, 0
3, 17221, Note_on_c, 0, 53, 0
3, 17231, Note_on_c, 0, 63, 0
3, 17235, Note_on_c, 0, 68, 53
3, 17266, Note_on_c, 0, 68, 0
3, 17336, Note_on_c, 0, 74, 65
3, 17338, Note_on_c, 0, 39, 52
3, 17339, Note_on_c, 0, 67, 63
3, 17339, Note_on_c, 0, 62, 68
3, 17340, Note_on_c, 0, 70, 55
3, 17342, Control_c, 0, 64, 0
3, 17343, Note_on_c, 0, 46, 45
3, 17361, Note_on_c, 0, 70, 0
3, 17368, Note_on_c, 0, 62, 0
3, 17368, Note_on_c, 0, 67, 0
3, 17373, Note_on_c, 0, 74, 0
3, 17379, Note_on_c, 0, 39, 0
3, 17379, Note_on_c, 0, 72, 37
3, 17399, Control_c, 0, 64, 127
3, 17400, Note_on_c, 0, 72, 0
3, 17409, Control_c, 0, 64, 0
3, 17413, Note_on_c, 0, 74, 71
3, 17416, Note_on_c, 0, 62, 65
3, 17416, Note_on_c, 0, 67, 64
3, 17417, Note_on_c, 0, 55, 68
3, 17418, Note_on_c, 0, 70, 45
3, 17438, Note_on_c, 0, 70, 0
3, 17446, Note_on_c, 0, 67, 0
3, 17448, Note_on_c, 0, 62, 0
3, 17458, Note_on_c, 0, 72, 50
3, 17459, Note_on_c, 0, 74, 0
3, 17464, Control_c, 0, 64, 127
3, 17476, Note_on_c, 0, 46, 0
3, 17488, Control_c, 0, 64, 0
3, 17491, Note_on_c, 0, 55, 0
3, 17494, Note_on_c, 0, 72, 0
3, 17495, Note_on_c, 0, 67, 66
3, 17519, Control_c, 0, 64, 127
3, 17527, Note_on_c, 0, 67, 0
3, 17527, Note_on_c, 0, 62, 57
3, 17537, Note_on_c, 0, 62, 0
3, 17607, Note_on_c, 0, 62, 51
3, 17608, Note_on_c, 0, 65, 66
3, 17609, Note_on_c, 0, 60, 62
3, 17610, Note_on_c, 0, 55, 55
3, 17665, Note_on_c, 0, 86, 71
3, 17666, Note_on_c, 0, 74, 72
3, 17668, Note_on_c, 0, 79, 59
3, 17690, Note_on_c, 0, 65, 0
3, 17691, Note_on_c, 0, 79, 0
3, 17693, Note_on_c, 0, 74, 0
3, 17695, Note_on_c, 0, 86, 0
3, 17699, Note_on_c, 0, 62, 0
3, 17701, Note_on_c, 0, 60, 0
3, 17709, Note_on_c, 0, 84, 53
3, 17712, Note_on_c, 0, 55, 0
3, 17728, Note_on_c, 0, 84, 0
3, 17744, Note_on_c, 0, 86, 87
3, 17746, Control_c, 0, 64, 0
3, 17746, Note_on_c, 0, 79, 71
3, 17747, Note_on_c, 0, 74, 69
3, 17772, Control_c, 0, 64, 127
3, 17827, Control_c, 0, 64, 0
3, 17838, Note_on_c, 0, 39, 70
3, 17841, Note_on_c, 0, 46, 63
3, 17869, Control_c, 0, 64, 127
3, 17882, Note_on_c, 0, 39, 0
3, 17888, Note_on_c, 0, 46, 0
3, 18009, Note_on_c, 0, 65, 57
3, 18010, Note_on_c, 0, 60, 50
3, 18011, Note_on_c, 0, 55, 52
3, 18060, Note_on_c, 0, 74, 0
3, 18062, Note_on_c, 0, 86, 0
3, 18071, Note_on_c, 0, 79, 0
3, 18081, Note_on_c, 0, 74, 13
3, 18081, Note_on_c, 0, 84, 76
3, 18102, Note_on_c, 0, 74, 0
3, 18124, Note_on_c, 0, 84, 0
3, 18126, Note_on_c, 0, 65, 0
3, 18143, Note_on_c, 0, 60, 0
3, 18148, Note_on_c, 0, 55, 0
3, 18151, Note_on_c, 0, 79, 59
3, 18201, Note_on_c, 0, 79, 0
3, 18203, Note_on_c, 0, 74, 72
3, 18229, Note_on_c, 0, 74, 0
3, 18254, Note_on_c, 0, 59, 36
3, 18256, Note_on_c, 0, 53, 36
3, 18256, Note_on_c, 0, 63, 31
3, 18262, Note_on_c, 0, 75, 47
3, 18263, Control_c, 0, 64, 0
3, 18275, Note_on_c, 0, 76, 59
3, 18282, Note_on_c, 0, 75, 0
3, 18301, Note_on_c, 0, 77, 67
3, 18302, Note_on_c, 0, 76, 0
3, 18356, Note_on_c, 0, 77, 0
3, 18377, Control_c, 0, 64, 127
3, 18387, Note_on_c, 0, 73, 20
3, 18424, Note_on_c, 0, 73, 0
3, 18454, Control_c, 0, 64, 0
3, 18455, Note_on_c, 0, 73, 70
3, 18485, Control_c, 0, 64, 127
3, 18490, Note_on_c, 0, 73, 0
3, 18503, Note_on_c, 0, 63, 0
3, 18508, Note_on_c, 0, 71, 26
3, 18554, Note_on_c, 0, 59, 0
3, 18556, Note_on_c, 0, 53, 0
3, 18560, Note_on_c, 0, 71, 0
3, 18568, Note_on_c, 0, 70, 62
3, 18571, Note_on_c, 0, 53, 25
3, 18573, Note_on_c, 0, 59, 30
3, 18573, Note_on_c, 0, 63, 51
3, 18586, Note_on_c, 0, 70, 0
3, 18588, Note_on_c, 0, 63, 0
3, 18595, Note_on_c, 0, 59, 0
3, 18599, Control_c, 0, 64, 0
3, 18608, Note_on_c, 0, 53, 0
3, 18617, Note_on_c, 0, 69, 48
3, 18666, Note_on_c, 0, 69, 0
3, 18668, Control_c, 0, 64, 127
3, 18683, Note_on_c, 0, 67, 63
3, 18686, Note_on_c, 0, 55, 31
3, 18703, Note_on_c, 0, 67, 0
3, 18729, Control_c, 0, 64, 0
3, 18734, Note_on_c, 0, 58, 35
3, 18737, Note_on_c, 0, 55, 0
3, 18738, Note_on_c, 0, 48, 44
3, 18739, Note_on_c, 0, 65, 37
3, 18752, Note_on_c, 0, 65, 0
3, 18758, Note_on_c, 0, 67, 44
3, 18783, Note_on_c, 0, 65, 51
3, 18788, Note_on_c, 0, 67, 0
3, 18807, Control_c, 0, 64, 127
3, 18812, Note_on_c, 0, 65, 0
3, 18812, Note_on_c, 0, 62, 52
3, 18815, Note_on_c, 0, 55, 36
3, 18816, Note_on_c, 0, 58, 0
3, 18843, Note_on_c, 0, 62, 0
3, 18846, Control_c, 0, 64, 0
3, 18853, Note_on_c, 0, 58, 27
3, 18853, Note_on_c, 0, 63, 56
3, 18871, Note_on_c, 0, 58, 0
3, 18879, Control_c, 0, 64, 127
3, 18887, Note_on_c, 0, 55, 0
3, 18910, Note_on_c, 0, 48, 0
3, 18912, Note_on_c, 0, 63, 0
3, 18923, Note_on_c, 0, 58, 49
3, 18924, Note_on_c, 0, 64, 64
3, 18926, Note_on_c, 0, 50, 41
3, 18946, Note_on_c, 0, 58, 0
3, 18955, Control_c, 0, 64, 0
3, 18956, Note_on_c, 0, 64, 0
3, 18978, Note_on_c, 0, 60, 35
3, 18979, Note_on_c, 0, 65, 40
3, 18981, Note_on_c, 0, 58, 18
3, 19022, Note_on_c, 0, 65, 0
3, 19025, Control_c, 0, 64, 127
3, 19033, Note_on_c, 0, 58, 0
3, 19035, Note_on_c, 0, 60, 0
3, 19044, Note_on_c, 0, 66, 50
3, 19048, Note_on_c, 0, 51, 45
3, 19061, Note_on_c, 0, 50, 0
3, 19069, Control_c, 0, 64, 0
3, 19078, Note_on_c, 0, 66, 0
3, 19087, Note_on_c, 0, 67, 36
3, 19099, Note_on_c, 0, 51, 0
3, 19119, Control_c, 0, 64, 127
3, 19133, Note_on_c, 0, 67, 0
3, 19157, Note_on_c, 0, 68, 65
3, 19160, Note_on_c, 0, 58, 55
3, 19191, Note_on_c, 0, 58, 0
3, 19194, Note_on_c, 0, 68, 0
3, 19204, Note_on_c, 0, 58, 32
3, 19213, Control_c, 0, 64, 0
3, 19213, Note_on_c, 0, 62, 39
3, 19213, Note_on_c, 0, 69, 48
3, 19215, Note_on_c, 0, 65, 40
3, 19254, Control_c, 0, 64, 127
3, 19281, Control_c, 0, 64, 0
3, 19283, Note_on_c, 0, 36, 66
3, 19284, Note_on_c, 0, 48, 52
3, 19292, Note_on_c, 0, 48, 0
3, 19303, Note_on_c, 0, 36, 0
3, 19321, Control_c, 0, 64, 127
3, 19409, Control_c, 0, 64, 0
3, 19410, Note_on_c, 0, 36, 83
3, 19411, Note_on_c, 0, 24, 82
3, 19453, Control_c, 0, 64, 127
3, 19535, Note_on_c, 0, 58, 0
3, 19538, Note_on_c, 0, 36, 0
3, 19543, Note_on_c, 0, 69, 0
3, 19544, Note_on_c, 0, 65, 0
3, 19547, Note_on_c, 0, 62, 0
3, 19561, Control_c, 0, 64, 0
3, 19569, Note_on_c, 0, 69, 63
3, 19569, Note_on_c, 0, 36, 62
3, 19569, Note_on_c, 0, 58, 60
3, 19570, Note_on_c, 0, 62, 66
3, 19570, Control_c, 0, 64, 127
3, 19572, Note_on_c, 0, 65, 52
3, 19579, Note_on_c, 0, 24, 0
3, 19585, Note_on_c, 0, 36, 0
3, 19620, Note_on_c, 0, 58, 0
3, 19624, Note_on_c, 0, 69, 0
3, 19625, Note_on_c, 0, 65, 0
3, 19629, Note_on_c, 0, 62, 0
3, 19649, Note_on_c, 0, 62, 64
3, 19650, Note_on_c, 0, 69, 60
3, 19650, Note_on_c, 0, 58, 68
3, 19653, Note_on_c, 0, 57, 91
3, 19653, Note_on_c, 0, 65, 57
3, 19667, Control_c, 0, 64, 0
3, 19689, Note_on_c, 0, 69, 0
3, 19696, Note_on_c, 0, 58, 0
3, 19706, Note_on_c, 0, 65, 0
3, 19706, Note_on_c, 0, 62, 0
3, 19709, Control_c, 0, 64, 127
3, 19725, Note_on_c, 0, 69, 51
3, 19728, Note_on_c, 0, 58, 47
3, 19729, Note_on_c, 0, 62, 57
3, 19730, Note_on_c, 0, 65, 47
3, 19769, Note_on_c, 0, 58, 0
3, 19769, Note_on_c, 0, 69, 0
3, 19770, Note_on_c, 0, 65, 0
3, 19772, Note_on_c, 0, 62, 0
3, 19809, Control_c, 0, 64, 0
3, 19809, Note_on_c, 0, 58, 46
3, 19810, Note_on_c, 0, 69, 44
3, 19811, Note_on_c, 0, 48, 57
3, 19811, Note_on_c, 0, 62, 47
3, 19815, Note_on_c, 0, 65, 41
3, 19831, Note_on_c, 0, 58, 0
3, 19835, Note_on_c, 0, 69, 0
3, 19837, Note_on_c, 0, 65, 0
3, 19840, Note_on_c, 0, 62, 0
3, 19853, Control_c, 0, 64, 127
3, 19892, Control_c, 0, 64, 0
3, 19893, Note_on_c, 0, 69, 45
3, 19894, Note_on_c, 0, 62, 50
3, 19895, Note_on_c, 0, 58, 46
3, 19897, Note_on_c, 0, 65, 51
3, 19920, Control_c, 0, 64, 127
3, 19921, Note_on_c, 0, 58, 0
3, 19923, Note_on_c, 0, 62, 0
3, 19925, Note_on_c, 0, 65, 0
3, 19928, Note_on_c, 0, 69, 0
3, 19936, Note_on_c, 0, 57, 0
3, 19971, Note_on_c, 0, 62, 45
3, 19971, Note_on_c, 0, 69, 51
3, 19972, Note_on_c, 0, 58, 40
3, 19975, Note_on_c, 0, 65, 51
3, 20008, Note_on_c, 0, 58, 0
3, 20008, Note_on_c, 0, 62, 0
3, 20010, Note_on_c, 0, 65, 0
3, 20012, Note_on_c, 0, 69, 0
3, 20050, Note_on_c, 0, 57, 82
3, 20051, Note_on_c, 0, 58, 64
3, 20052, Note_on_c, 0, 69, 60
3, 20052, Note_on_c, 0, 62, 68
3, 20056, Control_c, 0, 64, 0
3, 20056, Note_on_c, 0, 65, 55
3, 20067, Note_on_c, 0, 65, 0
3, 20089, Note_on_c, 0, 62, 0
3, 20092, Note_on_c, 0, 58, 0
3, 20094, Note_on_c, 0, 69, 0
3, 20097, Control_c, 0, 64, 127
3, 20132, Note_on_c, 0, 69, 57
3, 20133, Note_on_c, 0, 58, 61
3, 20135, Note_on_c, 0, 66, 57
3, 20135, Note_on_c, 0, 62, 56
3, 20147, Control_c, 0, 64, 0
3, 20176, Note_on_c, 0, 58, 0
3, 20176, Note_on_c, 0, 69, 0
3, 20177, Note_on_c, 0, 62, 0
3, 20181, Note_on_c, 0, 66, 0
3, 20188, Control_c, 0, 64, 127
3, 20213, Note_on_c, 0, 66, 47
3, 20213, Note_on_c, 0, 69, 38
3, 20214, Note_on_c, 0, 58, 39
3, 20216, Note_on_c, 0, 62, 52
3, 20252, Note_on_c, 0, 58, 0
3, 20253, Note_on_c, 0, 69, 0
3, 20254, Note_on_c, 0, 62, 0
3, 20261, Note_on_c, 0, 66, 0
3, 20268, Note_on_c, 0, 48, 0
3, 20295, Note_on_c, 0, 69, 54
3, 20296, Note_on_c, 0, 58, 51
3, 20296, Note_on_c, 0, 66, 48
3, 20297, Note_on_c, 0, 62, 59
3, 20298, Note_on_c, 0, 57, 0
3, 20299, Note_on_c, 0, 48, 62
3, 20300, Control_c, 0, 64, 0
3, 20332, Note_on_c, 0, 58, 0
3, 20333, Note_on_c, 0, 62, 0
3, 20333, Note_on_c, 0, 69, 0
3, 20339, Note_on_c, 0, 66, 0
3, 20340, Control_c, 0, 64, 127
3, 20373, Note_on_c, 0, 69, 51
3, 20376, Note_on_c, 0, 62, 59
3, 20377, Note_on_c, 0, 66, 40
3, 20386, Control_c, 0, 64, 0
3, 20408, Control_c, 0, 64, 127
3, 20415, Note_on_c, 0, 62, 0
3, 20425, Note_on_c, 0, 69, 0
3, 20427, Note_on_c, 0, 66, 0
3, 20454, Note_on_c, 0, 69, 73
3, 20454, Note_on_c, 0, 58, 83
3, 20454, Note_on_c, 0, 66, 64
3, 20456, Note_on_c, 0, 62, 74
3, 20510, Note_on_c, 0, 62, 0
3, 20517, Note_on_c, 0, 69, 0
3, 20519, Note_on_c, 0, 66, 0
3, 20530, Control_c, 0, 64, 0
3, 20549, Note_on_c, 0, 69, 41
3, 20550, Note_on_c, 0, 66, 38
3, 20552, Note_on_c, 0, 62, 49
3, 20574, Note_on_c, 0, 62, 0
3, 20589, Control_c, 0, 64, 127
3, 20591, Note_on_c, 0, 69, 0
3, 20592, Note_on_c, 0, 66, 0
3, 20620, Control_c, 0, 64, 0
3, 20625, Note_on_c, 0, 66, 46
3, 20628, Note_on_c, 0, 69, 51
3, 20628, Note_on_c, 0, 62, 57
3, 20666, Note_on_c, 0, 62, 0
3, 20672, Note_on_c, 0, 69, 0
3, 20675, Note_on_c, 0, 66, 0
3, 20677, Note_on_c, 0, 48, 0
3, 20679, Control_c, 0, 64, 127
3, 20700, Control_c, 0, 64, 0
3, 20702, Note_on_c, 0, 69, 51
3, 20704, Note_on_c, 0, 66, 43
3, 20705, Note_on_c, 0, 62, 50
3, 20722, Note_on_c, 0, 48, 53
3, 20749, Note_on_c, 0, 62, 0
3, 20758, Note_on_c, 0, 66, 0
3, 20759, Note_on_c, 0, 69, 0
3, 20783, Note_on_c, 0, 69, 47
3, 20784, Note_on_c, 0, 66, 40
3, 20785, Note_on_c, 0, 62, 53
3, 20806, Note_on_c, 0, 62, 0
3, 20809, Note_on_c, 0, 58, 0
3, 20821, Note_on_c, 0, 69, 0
3, 20822, Note_on_c, 0, 66, 0
3, 20856, Note_on_c, 0, 69, 54
3, 20858, Note_on_c, 0, 66, 49
3, 20859, Note_on_c, 0, 62, 62
3, 20860, Note_on_c, 0, 58, 59
3, 20899, Note_on_c, 0, 62, 0
3, 20901, Note_on_c, 0, 66, 0
3, 20906, Note_on_c, 0, 69, 0
3, 20917, Note_on_c, 0, 62, 46
3, 20917, Note_on_c, 0, 67, 51
3, 20940, Control_c, 0, 64, 127
3, 20953, Note_on_c, 0, 62, 0
3, 20973, Note_on_c, 0, 48, 0
3, 20981, Note_on_c, 0, 62, 41
3, 20985, Note_on_c, 0, 67, 0
3, 21001, Control_c, 0, 64, 0
3, 21008, Note_on_c, 0, 62, 0
3, 21011, Note_on_c, 0, 48, 49
3, 21024, Note_on_c, 0, 67, 57
3, 21026, Note_on_c, 0, 62, 27
3, 21044, Note_on_c, 0, 62, 0
3, 21044, Control_c, 0, 64, 127
3, 21045, Note_on_c, 0, 58, 0
3, 21086, Note_on_c, 0, 67, 0
3, 21097, Note_on_c, 0, 58, 46
3, 21098, Note_on_c, 0, 62, 37
3, 21099, Note_on_c, 0, 69, 48
3, 21100, Note_on_c, 0, 57, 45
3, 21105, Note_on_c, 0, 65, 37
3, 21108, Note_on_c, 0, 57, 0
3, 21110, Control_c, 0, 64, 0
3, 21122, Note_on_c, 0, 48, 0
3, 21211, Note_on_c, 0, 48, 71
3, 21227, Note_on_c, 0, 48, 0
3, 21256, Note_on_c, 0, 36, 58
3, 21339, Note_on_c, 0, 58, 0
3, 21345, Note_on_c, 0, 69, 0
3, 21349, Note_on_c, 0, 36, 0
3, 21351, Note_on_c, 0, 65, 0
3, 21354, Note_on_c, 0, 62, 0
3, 21374, Note_on_c, 0, 67, 60
3, 21383, Note_on_c, 0, 52, 54
3, 21423, Note_on_c, 0, 52, 0
3, 21450, Note_on_c, 0, 67, 0
3, 21450, Note_on_c, 0, 62, 40
3, 21456, Note_on_c, 0, 50, 32
3, 21470, Note_on_c, 0, 62, 0
3, 21488, Note_on_c, 0, 67, 62
3, 21491, Note_on_c, 0, 50, 0
3, 21495, Note_on_c, 0, 55, 60
3, 21541, Note_on_c, 0, 55, 0
3, 21554, Note_on_c, 0, 67, 0
3, 21561, Note_on_c, 0, 57, 70
3, 21566, Note_on_c, 0, 69, 70
3, 21577, Note_on_c, 0, 57, 0
3, 21591, Note_on_c, 0, 69, 0
3, 21681, Note_on_c, 0, 36, 92
3, 21681, Note_on_c, 0, 48, 94
3, 21686, Note_on_c, 0, 47, 56
3, 21693, Note_on_c, 0, 47, 0
3, 21745, Control_c, 0, 64, 127
3, 21812, Note_on_c, 0, 36, 0
3, 21822, Note_on_c, 0, 48, 0
3, 21840, Control_c, 0, 64, 0
3, 21846, Note_on_c, 0, 67, 77
3, 21847, Note_on_c, 0, 64, 80
3, 21849, Note_on_c, 0, 60, 79
3, 21871, Control_c, 0, 64, 127
3, 21926, Note_on_c, 0, 46, 69
3, 21929, Note_on_c, 0, 56, 74
3, 21930, Control_c, 0, 64, 0
3, 21937, Note_on_c, 0, 60, 0
3, 21962, Note_on_c, 0, 67, 0
3, 21962, Note_on_c, 0, 64, 0
3, 21968, Control_c, 0, 64, 127
3, 22003, Note_on_c, 0, 56, 0
3, 22018, Note_on_c, 0, 46, 0
3, 22063, Control_c, 0, 64, 0
3, 22091, Note_on_c, 0, 45, 64
3, 22094, Note_on_c, 0, 86, 79
3, 22095, Note_on_c, 0, 74, 71
3, 22095, Note_on_c, 0, 79, 71
3, 22096, Note_on_c, 0, 55, 70
3, 22096, Note_on_c, 0, 83, 66
3, 22119, Note_on_c, 0, 45, 0
3, 22120, Note_on_c, 0, 74, 0
3, 22126, Note_on_c, 0, 79, 0
3, 22128, Note_on_c, 0, 55, 0
3, 22133, Note_on_c, 0, 86, 0
3, 22134, Note_on_c, 0, 83, 0
3, 22217, Note_on_c, 0, 64, 48
3, 22218, Note_on_c, 0, 86, 60
3, 22219, Note_on_c, 0, 60, 45
3, 22221, Note_on_c, 0, 79, 52
3, 22221, Note_on_c, 0, 59, 47
3, 22221, Note_on_c, 0, 55, 46
3, 22222, Note_on_c, 0, 74, 40
3, 22223, Note_on_c, 0, 83, 48
3, 22263, Note_on_c, 0, 55, 0
3, 22264, Note_on_c, 0, 74, 0
3, 22267, Note_on_c, 0, 79, 0
3, 22267, Note_on_c, 0, 86, 0
3, 22267, Note_on_c, 0, 59, 0
3, 22268, Note_on_c, 0, 60, 0
3, 22269, Note_on_c, 0, 64, 0
3, 22271, Note_on_c, 0, 83, 0
3, 22337, Note_on_c, 0, 64, 58
3, 22337, Note_on_c, 0, 60, 55
3, 22338, Note_on_c, 0, 55, 55
3, 22339, Note_on_c, 0, 86, 64
3, 22340, Note_on_c, 0, 59, 45
3, 22340, Note_on_c, 0, 83, 60
3, 22340, Note_on_c, 0, 74, 60
3, 22341, Note_on_c, 0, 79, 55
3, 22391, Note_on_c, 0, 55, 0
3, 22397, Note_on_c, 0, 74, 0
3, 22399, Note_on_c, 0, 86, 0
3, 22401, Note_on_c, 0, 79, 0
3, 22402, Note_on_c, 0, 64, 0
3, 22404, Note_on_c, 0, 59, 0
3, 22405, Note_on_c, 0, 83, 0
3, 22415, Note_on_c, 0, 64, 50
3, 22416, Note_on_c, 0, 55, 54
3, 22417, Note_on_c, 0, 59, 28
3, 22419, Note_on_c, 0, 86, 46
3, 22420, Note_on_c, 0, 74, 42
3, 22420, Note_on_c, 0, 79, 53
3, 22424, Note_on_c, 0, 83, 43
3, 22432, Note_on_c, 0, 74, 0
3, 22434, Note_on_c, 0, 83, 0
3, 22435, Note_on_c, 0, 79, 0
3, 22436, Note_on_c, 0, 64, 0
3, 22441, Note_on_c, 0, 86, 0
3, 22443, Note_on_c, 0, 60, 0
3, 22443, Note_on_c, 0, 55, 0
3, 22447, Note_on_c, 0, 59, 0
3, 22533, Note_on_c, 0, 86, 80
3, 22533, Note_on_c, 0, 76, 80
3, 22533, Note_on_c, 0, 80, 71
3, 22534, Note_on_c, 0, 83, 80
3, 22534, Note_on_c, 0, 60, 74
3, 22535, Note_on_c, 0, 64, 74
3, 22536, Note_on_c, 0, 54, 72
3, 22553, Note_on_c, 0, 76, 0
3, 22563, Control_c, 0, 64, 127
3, 22565, Note_on_c, 0, 86, 0
3, 22567, Note_on_c, 0, 83, 0
3, 22567, Note_on_c, 0, 80, 0
3, 22568, Note_on_c, 0, 54, 0
3, 22568, Note_on_c, 0, 60, 0
3, 22569, Note_on_c, 0, 64, 0
3, 22569, Note_on_c, 0, 76, 46
3, 22579, Note_on_c, 0, 54, 21
3, 22589, Note_on_c, 0, 76, 0
3, 22590, Note_on_c, 0, 80, 37
3, 22591, Note_on_c, 0, 86, 24
3, 22591, Note_on_c, 0, 83, 32
3, 22594, Note_on_c, 0, 60, 35
3, 22595, Note_on_c, 0, 64, 42
3, 22597, Note_on_c, 0, 54, 0
3, 22606, Note_on_c, 0, 83, 0
3, 22607, Note_on_c, 0, 60, 0
3, 22607, Note_on_c, 0, 86, 0
3, 22607, Note_on_c, 0, 76, 51
3, 22610, Note_on_c, 0, 80, 0
3, 22618, Note_on_c, 0, 64, 0
3, 22620, Note_on_c, 0, 54, 51
3, 22625, Note_on_c, 0, 76, 0
3, 22629, Note_on_c, 0, 80, 33
3, 22633, Note_on_c, 0, 83, 41
3, 22645, Note_on_c, 0, 60, 29
3, 22646, Note_on_c, 0, 54, 0
3, 22646, Note_on_c, 0, 76, 40
3, 22651, Note_on_c, 0, 64, 32
3, 22652, Note_on_c, 0, 80, 0
3, 22652, Note_on_c, 0, 83, 0
3, 22664, Note_on_c, 0, 64, 0
3, 22665, Note_on_c, 0, 60, 0
3, 22667, Note_on_c, 0, 76, 0
3, 22669, Note_on_c, 0, 80, 38
3, 22669, Note_on_c, 0, 86, 45
3, 22676, Note_on_c, 0, 83, 38
3, 22678, Note_on_c, 0, 86, 0
3, 22685, Note_on_c, 0, 83, 0
3, 22687, Note_on_c, 0, 80, 0
3, 22687, Control_c, 0, 64, 0
3, 22691, Note_on_c, 0, 64, 64
3, 22692, Note_on_c, 0, 54, 71
3, 22692, Note_on_c, 0, 60, 58
3, 22702, Note_on_c, 0, 84, 65
3, 22703, Note_on_c, 0, 74, 48
3, 22704, Note_on_c, 0, 72, 36
3, 22731, Note_on_c, 0, 84, 0
3, 22733, Note_on_c, 0, 72, 0
3, 22742, Note_on_c, 0, 74, 0
3, 22757, Note_on_c, 0, 64, 0
3, 22759, Note_on_c, 0, 54, 0
3, 22765, Note_on_c, 0, 60, 0
3, 22772, Note_on_c, 0, 86, 77
3, 22773, Note_on_c, 0, 76, 71
3, 22777, Note_on_c, 0, 64, 65
3, 22778, Note_on_c, 0, 83, 32
3, 22779, Note_on_c, 0, 60, 61
3, 22780, Note_on_c, 0, 54, 53
3, 22784, Note_on_c, 0, 76, 0
3, 22787, Note_on_c, 0, 83, 0
3, 22791, Note_on_c, 0, 86, 0
3, 22794, Note_on_c, 0, 60, 0
3, 22794, Note_on_c, 0, 64, 0
3, 22808, Note_on_c, 0, 54, 0
3, 22927, Note_on_c, 0, 65, 30
3, 22937, Note_on_c, 0, 65, 0
3, 22950, Note_on_c, 0, 65, 24
3, 22986, Note_on_c, 0, 65, 0
3, 23000, Note_on_c, 0, 72, 62
3, 23003, Note_on_c, 0, 61, 42
3, 23003, Note_on_c, 0, 65, 64
3, 23007, Note_on_c, 0, 60, 57
3, 23141, Note_on_c, 0, 61, 0
3, 23142, Note_on_c, 0, 65, 0
3, 23170, Note_on_c, 0, 61, 42
3, 23172, Note_on_c, 0, 60, 0
3, 23173, Note_on_c, 0, 58, 42
3, 23178, Note_on_c, 0, 65, 30
3, 23189, Note_on_c, 0, 65, 0
3, 23189, Note_on_c, 0, 61, 0
3, 23286, Note_on_c, 0, 61, 37
3, 23290, Note_on_c, 0, 65, 40
3, 23302, Note_on_c, 0, 65, 0
3, 23303, Note_on_c, 0, 61, 0
3, 23401, Note_on_c, 0, 61, 59
3, 23405, Note_on_c, 0, 65, 50
3, 23407, Note_on_c, 0, 58, 0
3, 23408, Note_on_c, 0, 57, 40
3, 23415, Note_on_c, 0, 65, 0
3, 23417, Note_on_c, 0, 61, 0
3, 23521, Note_on_c, 0, 61, 37
3, 23523, Note_on_c, 0, 65, 50
3, 23537, Note_on_c, 0, 61, 0
3, 23538, Note_on_c, 0, 65, 0
3, 23609, Note_on_c, 0, 56, 62
3, 23611, Note_on_c, 0, 57, 0
3, 23642, Note_on_c, 0, 56, 0
3, 23643, Note_on_c, 0, 61, 57
3, 23647, Note_on_c, 0, 65, 54
3, 23656, Note_on_c, 0, 65, 0
3, 23656, Note_on_c, 0, 55, 45
3, 23667, Note_on_c, 0, 61, 0
3, 23759, Note_on_c, 0, 72, 0
3, 23767, Note_on_c, 0, 70, 65
3, 23833, Note_on_c, 0, 55, 0
3, 23847, Note_on_c, 0, 65, 41
3, 23849, Note_on_c, 0, 70, 0
3, 23869, Note_on_c, 0, 65, 0
3, 23878, Control_c, 0, 64, 127
3, 23889, Note_on_c, 0, 70, 62
3, 23895, Note_on_c, 0, 46, 20
3, 23910, Note_on_c, 0, 46, 0
3, 23935, Note_on_c, 0, 70, 0
3, 23965, Note_on_c, 0, 64, 53
3, 23965, Note_on_c, 0, 45, 46
3, 23966, Note_on_c, 0, 60, 51
3, 23966, Note_on_c, 0, 55, 46
3, 23967, Control_c, 0, 64, 0
3, 23967, Note_on_c, 0, 69, 52
3, 23980, Note_on_c, 0, 60, 0
3, 23980, Control_c, 0, 64, 127
3, 23982, Note_on_c, 0, 45, 0
3, 23988, Note_on_c, 0, 64, 0
3, 23990, Note_on_c, 0, 55, 0
3, 24001, Note_on_c, 0, 69, 0
3, 24089, Note_on_c, 0, 69, 51
3, 24091, Note_on_c, 0, 81, 51
3, 24097, Note_on_c, 0, 69, 0
3, 24098, Note_on_c, 0, 59, 25
3, 24103, Note_on_c, 0, 81, 0
3, 24108, Note_on_c, 0, 59, 0
3, 24134, Note_on_c, 0, 76, 78
3, 24134, Note_on_c, 0, 64, 54
3, 24134, Note_on_c, 0, 59, 47
3, 24135, Note_on_c, 0, 55, 51
3, 24135, Note_on_c, 0, 88, 81
3, 24135, Note_on_c, 0, 60, 57
3, 24168, Note_on_c, 0, 76, 0
3, 24170, Note_on_c, 0, 55, 0
3, 24177, Note_on_c, 0, 88, 0
3, 24177, Note_on_c, 0, 64, 0
3, 24179, Note_on_c, 0, 60, 0
3, 24180, Note_on_c, 0, 59, 0
3, 24210, Note_on_c, 0, 91, 74
3, 24211, Note_on_c, 0, 79, 72
3, 24212, Control_c, 0, 64, 0
3, 24213, Note_on_c, 0, 60, 60
3, 24213, Note_on_c, 0, 64, 60
3, 24213, Note_on_c, 0, 59, 56
3, 24214, Note_on_c, 0, 55, 62
3, 24220, Control_c, 0, 64, 127
3, 24236, Note_on_c, 0, 79, 0
3, 24243, Note_on_c, 0, 55, 0
3, 24244, Note_on_c, 0, 64, 0
3, 24247, Note_on_c, 0, 91, 0
3, 24253, Note_on_c, 0, 60, 0
3, 24254, Note_on_c, 0, 59, 0
3, 24279, Note_on_c, 0, 95, 77
3, 24281, Note_on_c, 0, 60, 53
3, 24281, Note_on_c, 0, 83, 71
3, 24283, Note_on_c, 0, 55, 52
3, 24284, Note_on_c, 0, 64, 53
3, 24284, Note_on_c, 0, 59, 47
3, 24308, Note_on_c, 0, 95, 0
3, 24309, Note_on_c, 0, 64, 0
3, 24310, Note_on_c, 0, 55, 0
3, 24317, Note_on_c, 0, 60, 0
3, 24317, Note_on_c, 0, 83, 0
3, 24318, Note_on_c, 0, 59, 0
3, 24351, Control_c, 0, 64, 0
3, 24360, Control_c, 0, 64, 127
3, 24361, Note_on_c, 0, 55, 57
3, 24363, Note_on_c, 0, 80, 55
3, 24364, Note_on_c, 0, 64, 39
3, 24364, Note_on_c, 0, 92, 59
3, 24367, Note_on_c, 0, 60, 35
3, 24371, Note_on_c, 0, 59, 24
3, 24379, Note_on_c, 0, 59, 0
3, 24385, Note_on_c, 0, 60, 0
3, 24386, Note_on_c, 0, 64, 0
3, 24388, Note_on_c, 0, 55, 0
3, 24412, Note_on_c, 0, 80, 0
3, 24413, Note_on_c, 0, 92, 0
3, 24439, Control_c, 0, 64, 0
3, 24440, Note_on_c, 0, 64, 51
3, 24442, Note_on_c, 0, 54, 39
3, 24443, Note_on_c, 0, 81, 61
3, 24443, Note_on_c, 0, 93, 58
3, 24443, Note_on_c, 0, 60, 40
3, 24463, Note_on_c, 0, 81, 0
3, 24466, Control_c, 0, 64, 127
3, 24472, Note_on_c, 0, 93, 0
3, 24478, Note_on_c, 0, 64, 0
3, 24491, Note_on_c, 0, 60, 0
3, 24502, Note_on_c, 0, 54, 0
3, 24555, Note_on_c, 0, 98, 76
3, 24556, Note_on_c, 0, 86, 70
3, 24558, Note_on_c, 0, 54, 50
3, 24559, Note_on_c, 0, 64, 49
3, 24559, Note_on_c, 0, 60, 50
3, 24590, Note_on_c, 0, 98, 0
3, 24613, Note_on_c, 0, 86, 0
3, 24647, Note_on_c, 0, 64, 0
3, 24656, Note_on_c, 0, 60, 0
3, 24722, Note_on_c, 0, 69, 63
3, 24724, Note_on_c, 0, 60, 37
3, 24724, Note_on_c, 0, 64, 32
3, 24735, Note_on_c, 0, 70, 49
3, 24743, Control_c, 0, 64, 0
3, 24746, Note_on_c, 0, 69, 0
3, 24763, Note_on_c, 0, 70, 0
3, 24764, Note_on_c, 0, 60, 0
3, 24767, Note_on_c, 0, 71, 34
3, 24791, Note_on_c, 0, 71, 0
3, 24806, Note_on_c, 0, 74, 82
3, 24810, Note_on_c, 0, 60, 37
3, 24823, Note_on_c, 0, 64, 0
3, 24833, Note_on_c, 0, 74, 0
3, 24837, Note_on_c, 0, 60, 0
3, 24843, Note_on_c, 0, 69, 26
3, 24859, Note_on_c, 0, 54, 0
3, 24861, Note_on_c, 0, 70, 23
3, 24876, Note_on_c, 0, 69, 0
3, 24883, Note_on_c, 0, 70, 0
3, 24895, Note_on_c, 0, 71, 29
3, 24917, Note_on_c, 0, 71, 0
3, 24925, Note_on_c, 0, 74, 60
3, 24959, Note_on_c, 0, 70, 53
3, 24989, Note_on_c, 0, 70, 0
3, 24999, Note_on_c, 0, 71, 24
3, 25028, Note_on_c, 0, 71, 0
3, 25045, Note_on_c, 0, 46, 25
3, 25053, Note_on_c, 0, 46, 0
3, 25073, Note_on_c, 0, 50, 35
3, 25080, Note_on_c, 0, 74, 0
3, 25081, Note_on_c, 0, 65, 40
3, 25104, Note_on_c, 0, 50, 0
3, 25162, Note_on_c, 0, 42, 29
3, 25185, Note_on_c, 0, 42, 0
3, 25192, Note_on_c, 0, 43, 38
3, 25260, Note_on_c, 0, 65, 0
3, 25285, Note_on_c, 0, 38, 38
3, 25297, Note_on_c, 0, 38, 0
3, 25312, Note_on_c, 0, 43, 0
3, 25323, Note_on_c, 0, 37, 34
3, 25415, Note_on_c, 0, 34, 32
3, 25429, Note_on_c, 0, 37, 0
3, 25438, Note_on_c, 0, 34, 0
3, 25439, Note_on_c, 0, 62, 50
3, 25441, Note_on_c, 0, 36, 42
3, 25449, Note_on_c, 0, 58, 31
3, 25457, Note_on_c, 0, 55, 19
3, 25465, Note_on_c, 0, 55, 0
3, 25475, Note_on_c, 0, 58, 0
3, 25479, Note_on_c, 0, 62, 0
3, 25536, Note_on_c, 0, 36, 0
3, 25538, Note_on_c, 0, 34, 31
3, 25561, Note_on_c, 0, 34, 0
3, 25563, Note_on_c, 0, 36, 54
3, 25672, Note_on_c, 0, 36, 0
3, 25682, Note_on_c, 0, 67, 44
3, 25683, Note_on_c, 0, 60, 51
3, 25683, Note_on_c, 0, 34, 48
3, 25686, Note_on_c, 0, 55, 34
3, 25686, Note_on_c, 0, 64, 36
3, 25792, Note_on_c, 0, 55, 0
3, 25804, Note_on_c, 0, 46, 90
3, 25811, Note_on_c, 0, 60, 0
3, 25828, Note_on_c, 0, 64, 0
3, 25857, Note_on_c, 0, 67, 0
3, 25914, Note_on_c, 0, 46, 0
3, 25916, Note_on_c, 0, 34, 0
3, 25921, Note_on_c, 0, 72, 53
3, 25923, Note_on_c, 0, 65, 67
3, 25924, Note_on_c, 0, 45, 66
3, 25925, Note_on_c, 0, 61, 52
3, 25956, Note_on_c, 0, 65, 0
3, 25959, Note_on_c, 0, 72, 0
3, 25970, Note_on_c, 0, 61, 0
3, 26008, Note_on_c, 0, 40, 46
3, 26017, Note_on_c, 0, 40, 0
3, 26042, Note_on_c, 0, 33, 64
3, 26044, Note_on_c, 0, 69, 49
3, 26046, Note_on_c, 0, 58, 29
3, 26047, Note_on_c, 0, 61, 33
3, 26051, Note_on_c, 0, 64, 38
3, 26082, Note_on_c, 0, 69, 0
3, 26106, Note_on_c, 0, 64, 0
3, 26117, Note_on_c, 0, 45, 0
3, 26121, Note_on_c, 0, 61, 0
3, 26123, Note_on_c, 0, 58, 0
3, 26132, Note_on_c, 0, 37, 36
3, 26161, Note_on_c, 0, 40, 53
3, 26163, Note_on_c, 0, 37, 0
3, 26166, Note_on_c, 0, 55, 44
3, 26166, Note_on_c, 0, 60, 49
3, 26168, Note_on_c, 0, 33, 0
3, 26168, Note_on_c, 0, 64, 37
3, 26244, Note_on_c, 0, 55, 0
3, 26246, Note_on_c, 0, 37, 33
3, 26257, Note_on_c, 0, 64, 0
3, 26260, Note_on_c, 0, 60, 0
3, 26260, Note_on_c, 0, 40, 0
3, 26275, Note_on_c, 0, 37, 0
3, 26281, Note_on_c, 0, 39, 42
3, 26286, Note_on_c, 0, 55, 36
3, 26352, Note_on_c, 0, 55, 0
3, 26354, Note_on_c, 0, 37, 27
3, 26362, Note_on_c, 0, 54, 62
3, 26369, Note_on_c, 0, 39, 0
3, 26371, Note_on_c, 0, 37, 0
3, 26377, Note_on_c, 0, 38, 44
3, 26434, Note_on_c, 0, 54, 0
3, 26437, Note_on_c, 0, 62, 34
3, 26454, Note_on_c, 0, 38, 0
3, 26458, Note_on_c, 0, 54, 40
3, 26461, Note_on_c, 0, 37, 32
3, 26472, Note_on_c, 0, 62, 0
3, 26501, Note_on_c, 0, 54, 0
3, 26501, Note_on_c, 0, 52, 54
3, 26508, Note_on_c, 0, 37, 0
3, 26510, Note_on_c, 0, 40, 36
3, 26511, Note_on_c, 0, 52, 0
3, 26532, Note_on_c, 0, 55, 60
3, 26540, Note_on_c, 0, 62, 28
3, 26550, Note_on_c, 0, 62, 0
3, 26626, Note_on_c, 0, 55, 0
3, 26637, Note_on_c, 0, 40, 0
3, 26638, Note_on_c, 0, 56, 46
3, 26641, Note_on_c, 0, 41, 39
3, 26721, Note_on_c, 0, 39, 32
3, 26725, Note_on_c, 0, 56, 0
3, 26730, Note_on_c, 0, 53, 34
3, 26732, Note_on_c, 0, 41, 0
3, 26740, Note_on_c, 0, 53, 0
3, 26759, Note_on_c, 0, 42, 37
3, 26761, Note_on_c, 0, 39, 0
3, 26765, Note_on_c, 0, 57, 32
3, 26806, Note_on_c, 0, 57, 0
3, 26837, Note_on_c, 0, 42, 0
3, 26838, Note_on_c, 0, 39, 37
3, 26843, Note_on_c, 0, 61, 62
3, 26847, Note_on_c, 0, 58, 56
3, 26856, Note_on_c, 0, 42, 36
3, 26867, Note_on_c, 0, 58, 0
3, 26869, Note_on_c, 0, 61, 0
3, 26885, Note_on_c, 0, 39, 0
3, 26892, Note_on_c, 0, 61, 32
3, 26896, Note_on_c, 0, 53, 42
3, 26898, Note_on_c, 0, 42, 0
3, 26898, Note_on_c, 0, 56, 35
3, 26901, Note_on_c, 0, 61, 0
3, 26902, Note_on_c, 0, 43, 37
3, 26903, Note_on_c, 0, 58, 33
3, 26911, Note_on_c, 0, 62, 32
3, 26920, Note_on_c, 0, 56, 0
3, 26936, Note_on_c, 0, 59, 35
3, 26937, Note_on_c, 0, 58, 0
3, 26938, Note_on_c, 0, 57, 24
3, 26962, Note_on_c, 0, 53, 0
3, 26969, Note_on_c, 0, 62, 0
3, 26975, Note_on_c, 0, 57, 0
3, 26979, Note_on_c, 0, 59, 0
3, 26999, Note_on_c, 0, 31, 41
3, 27002, Note_on_c, 0, 62, 39
3, 27005, Note_on_c, 0, 53, 40
3, 27005, Note_on_c, 0, 57, 43
3, 27008, Note_on_c, 0, 59, 30
3, 27057, Note_on_c, 0, 62, 0
3, 27060, Note_on_c, 0, 53, 0
3, 27066, Note_on_c, 0, 57, 0
3, 27070, Note_on_c, 0, 59, 0
3, 27074, Note_on_c, 0, 43, 0
3, 27084, Note_on_c, 0, 62, 41
3, 27087, Note_on_c, 0, 38, 28
3, 27087, Note_on_c, 0, 53, 34
3, 27088, Note_on_c, 0, 57, 60
3, 27089, Note_on_c, 0, 59, 43
3, 27094, Note_on_c, 0, 60, 44
3, 27098, Note_on_c, 0, 38, 0
3, 27101, Note_on_c, 0, 60, 0
3, 27107, Note_on_c, 0, 53, 0
3, 27109, Note_on_c, 0, 62, 0
3, 27112, Note_on_c, 0, 57, 0
3, 27113, Note_on_c, 0, 59, 0
3, 27126, Note_on_c, 0, 43, 35
3, 27130, Note_on_c, 0, 62, 20
3, 27132, Note_on_c, 0, 53, 28
3, 27134, Note_on_c, 0, 57, 45
3, 27137, Note_on_c, 0, 59, 34
3, 27143, Note_on_c, 0, 60, 25
3, 27152, Note_on_c, 0, 60, 0
3, 27179, Note_on_c, 0, 53, 0
3, 27182, Note_on_c, 0, 57, 0
3, 27190, Note_on_c, 0, 62, 0
3, 27193, Note_on_c, 0, 59, 0
3, 27209, Note_on_c, 0, 62, 45
3, 27210, Note_on_c, 0, 57, 60
3, 27211, Note_on_c, 0, 53, 34
3, 27220, Note_on_c, 0, 53, 0
3, 27221, Note_on_c, 0, 62, 0
3, 27221, Note_on_c, 0, 57, 0
3, 27227, Note_on_c, 0, 31, 0
3, 27232, Note_on_c, 0, 38, 38
3, 27247, Note_on_c, 0, 43, 0
3, 27323, Note_on_c, 0, 36, 79
3, 27326, Note_on_c, 0, 38, 0
3, 27334, Note_on_c, 0, 36, 0
3, 27366, Control_c, 0, 64, 127
3, 27439, Note_on_c, 0, 66, 85
3, 27440, Note_on_c, 0, 58, 83
3, 27440, Note_on_c, 0, 74, 78
3, 27442, Note_on_c, 0, 69, 72
3, 27442, Note_on_c, 0, 62, 84
3, 27456, Control_c, 0, 64, 0
3, 27491, Control_c, 0, 64, 127
3, 27557, Note_on_c, 0, 62, 0
3, 27571, Note_on_c, 0, 69, 0
3, 27574, Note_on_c, 0, 66, 0
3, 27575, Note_on_c, 0, 74, 0
3, 27580, Note_on_c, 0, 58, 0
3, 27606, Control_c, 0, 64, 0
3, 27610, Note_on_c, 0, 66, 48
3, 27612, Note_on_c, 0, 58, 48
3, 27613, Note_on_c, 0, 62, 40
3, 27614, Note_on_c, 0, 74, 32
3, 27616, Note_on_c, 0, 69, 41
3, 27625, Note_on_c, 0, 62, 0
3, 27639, Note_on_c, 0, 66, 0
3, 27641, Note_on_c, 0, 69, 0
3, 27649, Note_on_c, 0, 58, 0
3, 27654, Note_on_c, 0, 74, 0
3, 27665, Control_c, 0, 64, 127
3, 27687, Control_c, 0, 64, 0
3, 27729, Note_on_c, 0, 63, 42
3, 27730, Note_on_c, 0, 68, 54
3, 27730, Note_on_c, 0, 73, 42
3, 27732, Control_c, 0, 64, 127
3, 27734, Note_on_c, 0, 58, 34
3, 27787, Note_on_c, 0, 73, 0
3, 27789, Note_on_c, 0, 63, 0
3, 27790, Note_on_c, 0, 68, 0
3, 27803, Note_on_c, 0, 58, 0
3, 27810, Note_on_c, 0, 57, 54
3, 27811, Note_on_c, 0, 72, 58
3, 27811, Note_on_c, 0, 62, 55
3, 27811, Note_on_c, 0, 67, 57
3, 27812, Control_c, 0, 64, 0
3, 27818, Note_on_c, 0, 57, 0
3, 27928, Note_on_c, 0, 48, 89
3, 27933, Note_on_c, 0, 47, 75
3, 27940, Note_on_c, 0, 47, 0
3, 27951, Note_on_c, 0, 72, 0
3, 27991, Note_on_c, 0, 67, 0
3, 28035, Note_on_c, 0, 62, 0
3, 28068, Note_on_c, 0, 47, 24
3, 28079, Note_on_c, 0, 47, 0
3, 28091, Note_on_c, 0, 60, 53
3, 28156, Note_on_c, 0, 60, 0
3, 28167, Note_on_c, 0, 62, 51
3, 28178, Note_on_c, 0, 62, 0
3, 28204, Note_on_c, 0, 65, 49
3, 28247, Note_on_c, 0, 65, 0
3, 28324, Note_on_c, 0, 68, 77
3, 28326, Note_on_c, 0, 74, 58
3, 28339, Note_on_c, 0, 68, 0
3, 28349, Note_on_c, 0, 67, 49
3, 28355, Note_on_c, 0, 74, 0
3, 28379, Note_on_c, 0, 67, 0
3, 28381, Note_on_c, 0, 65, 42
3, 28401, Note_on_c, 0, 65, 0
3, 28417, Note_on_c, 0, 62, 38
3, 28444, Note_on_c, 0, 62, 0
3, 28456, Note_on_c, 0, 65, 81
3, 28524, Note_on_c, 0, 65, 0
3, 28530, Note_on_c, 0, 67, 66
3, 28554, Note_on_c, 0, 65, 59
3, 28559, Note_on_c, 0, 67, 0
3, 28573, Note_on_c, 0, 65, 0
3, 28577, Note_on_c, 0, 62, 49
3, 28684, Note_on_c, 0, 62, 0
3, 28685, Note_on_c, 0, 60, 53
3, 28689, Note_on_c, 0, 48, 0
3, 28722, Note_on_c, 0, 60, 0
3, 28800, Note_on_c, 0, 69, 55
3, 28800, Note_on_c, 0, 81, 61
3, 28800, Note_on_c, 0, 74, 45
3, 28800, Note_on_c, 0, 77, 52
3, 28800, Note_on_c, 0, 57, 38
3, 28802, Note_on_c, 0, 62, 33
3, 28803, Note_on_c, 0, 58, 36
3, 28908, Control_c, 0, 64, 127
3, 29026, Note_on_c, 0, 81, 0
3, 29028, Note_on_c, 0, 77, 0
3, 29032, Note_on_c, 0, 62, 0
3, 29033, Note_on_c, 0, 74, 0
3, 29045, Note_on_c, 0, 58, 0
3, 29046, Note_on_c, 0, 69, 0
3, 29047, Note_on_c, 0, 57, 0
3, 29168, Note_on_c, 0, 70, 47
3, 29170, Note_on_c, 0, 65, 43
3, 29172, Note_on_c, 0, 57, 28
3, 29178, Note_on_c, 0, 58, 34
3, 29179, Note_on_c, 0, 62, 24
3, 29279, Note_on_c, 0, 65, 0
3, 29289, Note_on_c, 0, 70, 0
3, 29301, Note_on_c, 0, 57, 0
3, 29302, Note_on_c, 0, 62, 0
3, 29308, Note_on_c, 0, 58, 0
3, 29483, Note_on_c, 0, 79, 103
3, 29513, Note_on_c, 0, 79, 0
3, 29576, Note_on_c, 0, 79, 105
3, 29656, Note_on_c, 0, 79, 0
3, 29660, Note_on_c, 0, 74, 74
3, 29689, Note_on_c, 0, 74, 0
3, 29724, Note_on_c, 0, 79, 75
3, 29754, Note_on_c, 0, 79, 0
3, 29771, Note_on_c, 0, 58, 49
3, 29795, Note_on_c, 0, 69, 68
3, 29807, Note_on_c, 0, 74, 39
3, 29809, Control_c, 0, 64, 0
3, 29812, Note_on_c, 0, 64, 44
3, 29824, Note_on_c, 0, 78, 58
3, 29840, Note_on_c, 0, 81, 61
3, 29862, Control_c, 0, 64, 127
3, 29868, Note_on_c, 0, 69, 0
3, 29881, Note_on_c, 0, 74, 0
3, 29891, Note_on_c, 0, 78, 0
3, 29895, Note_on_c, 0, 81, 0
3, 29933, Note_on_c, 0, 93, 74
3, 29995, Note_on_c, 0, 90, 72
3, 30065, Note_on_c, 0, 86, 51
3, 30116, Note_on_c, 0, 86, 0
3, 30121, Note_on_c, 0, 93, 0
3, 30132, Note_on_c, 0, 81, 34
3, 30141, Note_on_c, 0, 90, 0
3, 30222, Note_on_c, 0, 81, 0
3, 30347, Note_on_c, 0, 64, 0
3, 30489, Note_on_c, 0, 79, 103
3, 30577, Note_on_c, 0, 74, 77
3, 30599, Note_on_c, 0, 79, 0
3, 30611, Note_on_c, 0, 74, 0
3, 30639, Note_on_c, 0, 58, 0
3, 30650, Note_on_c, 0, 79, 79
3, 30711, Note_on_c, 0, 79, 0
3, 30727, Note_on_c, 0, 57, 44
3, 30732, Note_on_c, 0, 81, 78
3, 30733, Note_on_c, 0, 74, 66
3, 30735, Note_on_c, 0, 62, 43
3, 30735, Note_on_c, 0, 69, 60
3, 30741, Note_on_c, 0, 58, 33
3, 30746, Control_c, 0, 64, 0
3, 30823, Control_c, 0, 64, 127
3, 31016, Note_on_c, 0, 69, 0
3, 31024, Note_on_c, 0, 81, 0
3, 31028, Note_on_c, 0, 74, 0
3, 31049, Note_on_c, 0, 79, 71
3, 31099, Note_on_c, 0, 62, 0
3, 31103, Note_on_c, 0, 57, 0
3, 31103, Note_on_c, 0, 79, 0
3, 31108, Note_on_c, 0, 58, 0
3, 31128, Note_on_c, 0, 74, 53
3, 31148, Note_on_c, 0, 74, 0
3, 31169, Note_on_c, 0, 79, 75
3, 31201, Note_on_c, 0, 79, 0
3, 31223, Note_on_c, 0, 81, 92
3, 31324, Note_on_c, 0, 77, 68
3, 31325, Control_c, 0, 64, 0
3, 31326, Note_on_c, 0, 69, 55
3, 31326, Note_on_c, 0, 62, 50
3, 31327, Note_on_c, 0, 65, 55
3, 31327, Note_on_c, 0, 74, 44
3, 31330, Note_on_c, 0, 57, 37
3, 31363, Control_c, 0, 64, 127
3, 31455, Note_on_c, 0, 81, 0
3, 31459, Note_on_c, 0, 74, 0
3, 31466, Note_on_c, 0, 69, 0
3, 31467, Note_on_c, 0, 62, 0
3, 31467, Note_on_c, 0, 77, 0
3, 31468, Note_on_c, 0, 57, 0
3, 31472, Note_on_c, 0, 65, 0
3, 31530, Note_on_c, 0, 79, 63
3, 31532, Note_on_c, 0, 67, 62
3, 31532, Note_on_c, 0, 76, 53
3, 31532, Note_on_c, 0, 62, 62
3, 31534, Note_on_c, 0, 72, 53
3, 31534, Note_on_c, 0, 75, 35
3, 31537, Note_on_c, 0, 56, 53
3, 31538, Control_c, 0, 64, 0
3, 31574, Control_c, 0, 64, 127
3, 31588, Note_on_c, 0, 67, 0
3, 31595, Note_on_c, 0, 72, 0
3, 31598, Note_on_c, 0, 75, 0
3, 31599, Note_on_c, 0, 62, 0
3, 31603, Note_on_c, 0, 76, 0
3, 31605, Note_on_c, 0, 79, 0
3, 31628, Note_on_c, 0, 56, 0
3, 31702, Note_on_c, 0, 86, 64
3, 31704, Note_on_c, 0, 74, 51
3, 31706, Note_on_c, 0, 83, 54
3, 31706, Note_on_c, 0, 60, 46
3, 31707, Note_on_c, 0, 79, 45
3, 31707, Note_on_c, 0, 64, 40
3, 31709, Note_on_c, 0, 59, 42
3, 31711, Note_on_c, 0, 55, 32
3, 31716, Control_c, 0, 64, 0
3, 31845, Control_c, 0, 64, 127
3, 31962, Note_on_c, 0, 86, 0
3, 31969, Note_on_c, 0, 83, 0
3, 32010, Note_on_c, 0, 79, 0
3, 32014, Note_on_c, 0, 74, 0
3, 32039, Note_on_c, 0, 64, 0
3, 32052, Note_on_c, 0, 60, 0
3, 32062, Note_on_c, 0, 59, 0
3, 32077, Note_on_c, 0, 55, 0
3, 32114, Note_on_c, 0, 84, 58
3, 32132, Note_on_c, 0, 84, 0
3, 32179, Note_on_c, 0, 86, 74
3, 32189, Note_on_c, 0, 83, 60
3, 32195, Control_c, 0, 64, 0
3, 32196, Note_on_c, 0, 60, 34
3, 32197, Note_on_c, 0, 54, 39
3, 32197, Note_on_c, 0, 80, 63
3, 32200, Note_on_c, 0, 64, 33
3, 32220, Note_on_c, 0, 76, 25
3, 32292, Control_c, 0, 64, 127
3, 32403, Note_on_c, 0, 86, 0
3, 32419, Note_on_c, 0, 80, 0
3, 32441, Note_on_c, 0, 83, 0
3, 32442, Note_on_c, 0, 76, 0
3, 32500, Note_on_c, 0, 60, 0
3, 32518, Note_on_c, 0, 54, 0
3, 32529, Note_on_c, 0, 64, 0
3, 32651, Control_c, 0, 64, 0
3, 32651, Note_on_c, 0, 96, 101
3, 32652, Note_on_c, 0, 60, 64
3, 32653, Note_on_c, 0, 65, 66
3, 32653, Note_on_c, 0, 61, 61
3, 32654, Note_on_c, 0, 56, 49
3, 32727, Note_on_c, 0, 96, 0
3, 32734, Note_on_c, 0, 94, 51
3, 32756, Note_on_c, 0, 94, 0
3, 32777, Note_on_c, 0, 89, 60
3, 32803, Note_on_c, 0, 89, 0
3, 32849, Note_on_c, 0, 85, 61
3, 32877, Note_on_c, 0, 85, 0
3, 32902, Note_on_c, 0, 84, 51
3, 32985, Note_on_c, 0, 84, 0
3, 33016, Note_on_c, 0, 82, 54
3, 33068, Note_on_c, 0, 60, 0
3, 33089, Note_on_c, 0, 65, 0
3, 33098, Note_on_c, 0, 61, 0
3, 33113, Note_on_c, 0, 56, 0
3, 33133, Note_on_c, 0, 55, 38
3, 33136, Note_on_c, 0, 61, 32
3, 33137, Note_on_c, 0, 65, 40
3, 33268, Control_c, 0, 64, 127
3, 33280, Note_on_c, 0, 82, 0
3, 33456, Note_on_c, 0, 82, 85
3, 33467, Control_c, 0, 64, 0
3, 33500, Control_c, 0, 64, 127
3, 33513, Note_on_c, 0, 65, 0
3, 33516, Note_on_c, 0, 55, 0
3, 33517, Note_on_c, 0, 82, 0
3, 33533, Note_on_c, 0, 77, 43
3, 33547, Note_on_c, 0, 61, 0
3, 33563, Note_on_c, 0, 77, 0
3, 33577, Note_on_c, 0, 82, 71
3, 33600, Note_on_c, 0, 82, 0
3, 33614, Note_on_c, 0, 77, 76
3, 33615, Note_on_c, 0, 65, 60
3, 33616, Note_on_c, 0, 84, 87
3, 33617, Note_on_c, 0, 61, 53
3, 33617, Note_on_c, 0, 60, 56
3, 33618, Control_c, 0, 64, 0
3, 33619, Note_on_c, 0, 56, 48
3, 33735, Control_c, 0, 64, 127
3, 33772, Note_on_c, 0, 84, 0
3, 33787, Note_on_c, 0, 77, 0
3, 33789, Note_on_c, 0, 60, 0
3, 33793, Note_on_c, 0, 65, 0
3, 33796, Note_on_c, 0, 56, 0
3, 33802, Note_on_c, 0, 61, 0
3, 33820, Note_on_c, 0, 82, 37
3, 33844, Note_on_c, 0, 82, 0
3, 33852, Control_c, 0, 64, 0
3, 33860, Note_on_c, 0, 61, 34
3, 33861, Note_on_c, 0, 60, 44
3, 33861, Note_on_c, 0, 65, 40
3, 33862, Note_on_c, 0, 84, 70
3, 33870, Note_on_c, 0, 60, 0
3, 33870, Note_on_c, 0, 56, 20
3, 33871, Note_on_c, 0, 84, 0
3, 33872, Note_on_c, 0, 65, 0
3, 33878, Note_on_c, 0, 61, 0
3, 33880, Note_on_c, 0, 56, 0
3, 33944, Note_on_c, 0, 84, 80
3, 33945, Note_on_c, 0, 65, 62
3, 33946, Note_on_c, 0, 60, 57
3, 33946, Note_on_c, 0, 61, 49
3, 33947, Note_on_c, 0, 77, 56
3, 33948, Note_on_c, 0, 72, 57
3, 33950, Note_on_c, 0, 82, 47
3, 33951, Note_on_c, 0, 56, 37
3, 33989, Control_c, 0, 64, 127
3, 34034, Note_on_c, 0, 60, 0
3, 34041, Note_on_c, 0, 72, 0
3, 34041, Note_on_c, 0, 65, 0
3, 34047, Note_on_c, 0, 84, 0
3, 34048, Note_on_c, 0, 77, 0
3, 34063, Note_on_c, 0, 56, 0
3, 34063, Note_on_c, 0, 61, 0
3, 34064, Note_on_c, 0, 82, 0
3, 34088, Control_c, 0, 64, 0
3, 34095, Note_on_c, 0, 84, 64
3, 34095, Note_on_c, 0, 77, 50
3, 34098, Note_on_c, 0, 81, 48
3, 34099, Note_on_c, 0, 61, 45
3, 34099, Note_on_c, 0, 55, 58
3, 34101, Note_on_c, 0, 72, 34
3, 34101, Note_on_c, 0, 66, 43
3, 34200, Control_c, 0, 64, 127
3, 34226, Note_on_c, 0, 66, 0
3, 34258, Note_on_c, 0, 81, 0
3, 34283, Note_on_c, 0, 84, 0
3, 34285, Note_on_c, 0, 61, 0
3, 34288, Note_on_c, 0, 72, 0
3, 34289, Note_on_c, 0, 77, 0
3, 34315, Note_on_c, 0, 55, 0
3, 34331, Control_c, 0, 64, 0
3, 34332, Note_on_c, 0, 82, 85
3, 34333, Note_on_c, 0, 55, 41
3, 34333, Note_on_c, 0, 66, 64
3, 34333, Note_on_c, 0, 61, 61
3, 34344, Control_c, 0, 64, 127
3, 34379, Note_on_c, 0, 55, 0
3, 34390, Note_on_c, 0, 66, 0
3, 34395, Note_on_c, 0, 82, 0
3, 34417, Note_on_c, 0, 84, 76
3, 34424, Note_on_c, 0, 66, 27
3, 34430, Note_on_c, 0, 55, 22
3, 34436, Note_on_c, 0, 66, 0
3, 34437, Control_c, 0, 64, 0
3, 34438, Note_on_c, 0, 55, 0
3, 34440, Note_on_c, 0, 84, 0
3, 34454, Control_c, 0, 64, 127
3, 34461, Note_on_c, 0, 82, 64
3, 34462, Note_on_c, 0, 55, 37
3, 34472, Note_on_c, 0, 55, 0
3, 34477, Note_on_c, 0, 82, 0
3, 34492, Note_on_c, 0, 61, 0
3, 34535, Note_on_c, 0, 72, 55
3, 34535, Note_on_c, 0, 81, 63
3, 34537, Note_on_c, 0, 57, 57
3, 34539, Note_on_c, 0, 77, 35
3, 34540, Control_c, 0, 64, 0
3, 34541, Note_on_c, 0, 64, 34
3, 34542, Note_on_c, 0, 53, 40
3, 34542, Note_on_c, 0, 60, 48
3, 34597, Control_c, 0, 64, 127
3, 34672, Note_on_c, 0, 60, 0
3, 34688, Note_on_c, 0, 57, 0
3, 34695, Note_on_c, 0, 64, 0
3, 34695, Note_on_c, 0, 72, 0
3, 34697, Note_on_c, 0, 53, 0
3, 34717, Note_on_c, 0, 81, 0
3, 34730, Note_on_c, 0, 77, 0
3, 34762, Note_on_c, 0, 76, 53
3, 34762, Note_on_c, 0, 71, 47
3, 34763, Note_on_c, 0, 81, 53
3, 34769, Note_on_c, 0, 64, 50
3, 34770, Note_on_c, 0, 59, 49
3, 34771, Control_c, 0, 64, 0
3, 34776, Note_on_c, 0, 53, 27
3, 34810, Control_c, 0, 64, 127
3, 34827, Note_on_c, 0, 81, 0
3, 34848, Note_on_c, 0, 64, 0
3, 34848, Note_on_c, 0, 76, 0
3, 34858, Note_on_c, 0, 71, 0
3, 34861, Note_on_c, 0, 59, 0
3, 34886, Note_on_c, 0, 53, 0
3, 35012, Note_on_c, 0, 54, 53
3, 35030, Note_on_c, 0, 58, 72
3, 35032, Note_on_c, 0, 67, 69
3, 35033, Note_on_c, 0, 55, 83
3, 35034, Note_on_c, 0, 54, 0
3, 35034, Note_on_c, 0, 62, 62
3, 35035, Note_on_c, 0, 57, 69
3, 35040, Control_c, 0, 64, 0
3, 35100, Control_c, 0, 64, 127
3, 35131, Note_on_c, 0, 57, 0
3, 35142, Note_on_c, 0, 58, 0
3, 35143, Note_on_c, 0, 55, 0
3, 35143, Note_on_c, 0, 62, 0
3, 35159, Note_on_c, 0, 67, 0
3, 35364, Note_on_c, 0, 79, 91
3, 35366, Note_on_c, 0, 67, 76
3, 35366, Note_on_c, 0, 62, 71
3, 35366, Note_on_c, 0, 72, 99
3, 35369, Control_c, 0, 64, 0
3, 35369, Note_on_c, 0, 56, 69
3, 35410, Control_c, 0, 64, 127
3, 35428, Note_on_c, 0, 79, 0
3, 35441, Note_on_c, 0, 72, 0
3, 35445, Note_on_c, 0, 77, 74
3, 35456, Note_on_c, 0, 62, 0
3, 35463, Note_on_c, 0, 67, 0
3, 35481, Note_on_c, 0, 77, 0
3, 35495, Note_on_c, 0, 56, 0
3, 35526, Note_on_c, 0, 65, 77
3, 35526, Note_on_c, 0, 61, 65
3, 35526, Note_on_c, 0, 60, 70
3, 35527, Note_on_c, 0, 84, 94
3, 35528, Note_on_c, 0, 77, 96
3, 35529, Note_on_c, 0, 55, 68
3, 35533, Control_c, 0, 64, 0
3, 35538, Note_on_c, 0, 58, 29
3, 35613, Control_c, 0, 64, 127
3, 35625, Note_on_c, 0, 81, 78
3, 35659, Note_on_c, 0, 84, 0
3, 35667, Note_on_c, 0, 77, 0
3, 35708, Note_on_c, 0, 73, 75
3, 35754, Note_on_c, 0, 81, 0
3, 35755, Note_on_c, 0, 65, 0
3, 35764, Note_on_c, 0, 73, 0
3, 35782, Note_on_c, 0, 72, 59
3, 35784, Note_on_c, 0, 65, 37
3, 35810, Note_on_c, 0, 65, 0
3, 35841, Note_on_c, 0, 61, 0
3, 35852, Note_on_c, 0, 72, 0
3, 35871, Note_on_c, 0, 70, 67
3, 35873, Note_on_c, 0, 61, 18
3, 35873, Note_on_c, 0, 65, 38
3, 35886, Note_on_c, 0, 65, 0
3, 35906, Note_on_c, 0, 55, 0
3, 35911, Note_on_c, 0, 60, 0
3, 35915, Note_on_c, 0, 70, 0
3, 35920, Note_on_c, 0, 61, 0
3, 35922, Note_on_c, 0, 58, 0
3, 35964, Note_on_c, 0, 69, 68
3, 35966, Note_on_c, 0, 64, 53
3, 35969, Note_on_c, 0, 54, 38
3, 35972, Note_on_c, 0, 60, 47
3, 35983, Control_c, 0, 64, 0
3, 36030, Control_c, 0, 64, 127
3, 36083, Note_on_c, 0, 70, 71
3, 36086, Note_on_c, 0, 69, 0
3, 36112, Note_on_c, 0, 70, 0
3, 36125, Control_c, 0, 64, 0
3, 36127, Note_on_c, 0, 71, 57
3, 36153, Note_on_c, 0, 64, 0
3, 36180, Note_on_c, 0, 60, 0
3, 36185, Note_on_c, 0, 71, 0
3, 36197, Control_c, 0, 64, 127
3, 36204, Note_on_c, 0, 72, 58
3, 36212, Note_on_c, 0, 60, 44
3, 36213, Control_c, 0, 64, 0
3, 36224, Note_on_c, 0, 72, 0
3, 36243, Note_on_c, 0, 67, 49
3, 36244, Note_on_c, 0, 60, 0
3, 36257, Note_on_c, 0, 68, 43
3, 36262, Note_on_c, 0, 67, 0
3, 36284, Note_on_c, 0, 68, 0
3, 36290, Note_on_c, 0, 69, 46
3, 36313, Note_on_c, 0, 69, 0
3, 36330, Note_on_c, 0, 60, 30
3, 36331, Note_on_c, 0, 62, 63
3, 36344, Note_on_c, 0, 60, 0
3, 36349, Note_on_c, 0, 62, 0
3, 36365, Note_on_c, 0, 65, 63
3, 36421, Control_c, 0, 64, 127
3, 36426, Note_on_c, 0, 54, 0
3, 36449, Note_on_c, 0, 65, 0
3, 36455, Note_on_c, 0, 67, 55
3, 36476, Control_c, 0, 64, 0
3, 36484, Note_on_c, 0, 67, 0
3, 36491, Note_on_c, 0, 58, 37
3, 36491, Note_on_c, 0, 62, 43
3, 36493, Note_on_c, 0, 53, 35
3, 36493, Note_on_c, 0, 57, 42
3, 36499, Note_on_c, 0, 69, 68
3, 36597, Note_on_c, 0, 62, 0
3, 36617, Control_c, 0, 64, 127
3, 36618, Note_on_c, 0, 57, 0
3, 36619, Note_on_c, 0, 58, 0
3, 36633, Note_on_c, 0, 53, 0
3, 36724, Control_c, 0, 64, 0
3, 36739, Note_on_c, 0, 62, 43
3, 36745, Note_on_c, 0, 57, 67
3, 36760, Note_on_c, 0, 62, 0
3, 36822, Note_on_c, 0, 62, 45
3, 36827, Note_on_c, 0, 58, 42
3, 36834, Note_on_c, 0, 48, 49
3, 36861, Note_on_c, 0, 58, 0
3, 36862, Control_c, 0, 64, 127
3, 36867, Note_on_c, 0, 62, 0
3, 36886, Note_on_c, 0, 48, 0
3, 36886, Note_on_c, 0, 69, 0
3, 36893, Note_on_c, 0, 57, 0
3, 36937, Note_on_c, 0, 74, 90
3, 36938, Note_on_c, 0, 81, 90
3, 36940, Note_on_c, 0, 57, 60
3, 36941, Note_on_c, 0, 62, 54
3, 36943, Control_c, 0, 64, 0
3, 36943, Note_on_c, 0, 58, 44
3, 36947, Note_on_c, 0, 60, 39
3, 36957, Note_on_c, 0, 60, 0
3, 36961, Control_c, 0, 64, 127
3, 36988, Note_on_c, 0, 74, 0
3, 37000, Note_on_c, 0, 81, 0
3, 37002, Note_on_c, 0, 62, 0
3, 37007, Note_on_c, 0, 58, 0
3, 37009, Note_on_c, 0, 57, 0
3, 37048, Note_on_c, 0, 86, 83
3, 37049, Note_on_c, 0, 74, 85
3, 37052, Control_c, 0, 64, 0
3, 37053, Note_on_c, 0, 62, 72
3, 37054, Note_on_c, 0, 58, 64
3, 37055, Note_on_c, 0, 57, 67
3, 37068, Control_c, 0, 64, 127
3, 37078, Note_on_c, 0, 62, 0
3, 37080, Note_on_c, 0, 74, 0
3, 37084, Note_on_c, 0, 57, 0
3, 37090, Note_on_c, 0, 58, 0
3, 37101, Note_on_c, 0, 86, 0
3, 37162, Control_c, 0, 64, 0
3, 37163, Note_on_c, 0, 93, 88
3, 37164, Note_on_c, 0, 81, 88
3, 37167, Note_on_c, 0, 62, 79
3, 37168, Note_on_c, 0, 57, 74
3, 37168, Note_on_c, 0, 58, 65
3, 37177, Control_c, 0, 64, 127
3, 37185, Note_on_c, 0, 81, 0
3, 37197, Note_on_c, 0, 62, 0
3, 37203, Note_on_c, 0, 93, 0
3, 37212, Note_on_c, 0, 58, 0
3, 37219, Note_on_c, 0, 57, 0
3, 37279, Control_c, 0, 64, 0
3, 37279, Note_on_c, 0, 86, 83
3, 37280, Note_on_c, 0, 98, 87
3, 37282, Note_on_c, 0, 62, 75
3, 37282, Note_on_c, 0, 58, 68
3, 37282, Note_on_c, 0, 57, 62
3, 37292, Note_on_c, 0, 57, 0
3, 37298, Note_on_c, 0, 86, 0
3, 37300, Note_on_c, 0, 62, 0
3, 37305, Control_c, 0, 64, 127
3, 37313, Note_on_c, 0, 58, 0
3, 37314, Note_on_c, 0, 98, 0
3, 37400, Note_on_c, 0, 48, 74
3, 37400, Note_on_c, 0, 90, 84
3, 37400, Note_on_c, 0, 102, 85
3, 37401, Note_on_c, 0, 58, 73
3, 37410, Control_c, 0, 64, 0
3, 37423, Note_on_c, 0, 48, 0
3, 37425, Note_on_c, 0, 90, 0
3, 37430, Control_c, 0, 64, 127
3, 37433, Note_on_c, 0, 58, 0
3, 37436, Note_on_c, 0, 102, 0
3, 37473, Note_on_c, 0, 99, 34
3, 37482, Note_on_c, 0, 99, 0
3, 37515, Note_on_c, 0, 105, 83
3, 37518, Note_on_c, 0, 98, 75
3, 37519, Note_on_c, 0, 62, 66
3, 37520, Note_on_c, 0, 93, 71
3, 37521, Note_on_c, 0, 58, 49
3, 37525, Note_on_c, 0, 57, 64
3, 37542, Control_c, 0, 64, 0
3, 37558, Control_c, 0, 64, 127
3, 37604, Note_on_c, 0, 93, 0
3, 37606, Note_on_c, 0, 105, 0
3, 37621, Note_on_c, 0, 58, 0
3, 37621, Note_on_c, 0, 57, 0
3, 37624, Note_on_c, 0, 98, 0
3, 37625, Note_on_c, 0, 62, 0
3, 37683, Note_on_c, 0, 102, 56
3, 37685, Note_on_c, 0, 90, 54
3, 37692, Note_on_c, 0, 62, 37
3, 37694, Note_on_c, 0, 58, 35
3, 37695, Note_on_c, 0, 57, 30
3, 37725, Note_on_c, 0, 102, 0
3, 37743, Note_on_c, 0, 90, 0
3, 37773, Note_on_c, 0, 62, 0
3, 37785, Note_on_c, 0, 57, 0
3, 37793, Note_on_c, 0, 58, 0
3, 37920, Note_on_c, 0, 74, 46
3, 37921, Note_on_c, 0, 66, 39
3, 37923, Note_on_c, 0, 62, 38
3, 37927, Note_on_c, 0, 58, 44
3, 37935, Control_c, 0, 64, 0
3, 37960, Control_c, 0, 64, 127
3, 38009, Note_on_c, 0, 74, 0
3, 38022, Note_on_c, 0, 66, 0
3, 38030, Note_on_c, 0, 62, 0
3, 38042, Note_on_c, 0, 58, 0
3, 38125, Note_on_c, 0, 62, 38
3, 38126, Note_on_c, 0, 58, 25
3, 38127, Note_on_c, 0, 66, 36
3, 38159, Note_on_c, 0, 58, 0
3, 38162, Note_on_c, 0, 62, 0
3, 38173, Note_on_c, 0, 66, 0
3, 38250, Note_on_c, 0, 67, 81
3, 38257, Note_on_c, 0, 55, 68
3, 38277, Control_c, 0, 64, 0
3, 38317, Note_on_c, 0, 54, 27
3, 38319, Control_c, 0, 64, 127
3, 38319, Note_on_c, 0, 66, 36
3, 38331, Note_on_c, 0, 55, 0
3, 38341, Note_on_c, 0, 66, 0
3, 38346, Note_on_c, 0, 67, 0
3, 38348, Note_on_c, 0, 65, 44
3, 38349, Note_on_c, 0, 54, 0
3, 38387, Note_on_c, 0, 62, 46
3, 38388, Note_on_c, 0, 65, 0
3, 38393, Note_on_c, 0, 50, 31
3, 38405, Note_on_c, 0, 50, 0
3, 38413, Note_on_c, 0, 62, 0
3, 38423, Control_c, 0, 64, 0
3, 38424, Note_on_c, 0, 57, 60
3, 38426, Note_on_c, 0, 69, 66
3, 38538, Control_c, 0, 64, 127
3, 38611, Note_on_c, 0, 62, 48
3, 38612, Note_on_c, 0, 58, 38
3, 38618, Note_on_c, 0, 48, 44
3, 38622, Control_c, 0, 64, 0
3, 38647, Control_c, 0, 64, 127
3, 38656, Note_on_c, 0, 57, 0
3, 38670, Note_on_c, 0, 58, 0
3, 38685, Note_on_c, 0, 69, 0
3, 38688, Note_on_c, 0, 62, 0
3, 38721, Note_on_c, 0, 67, 80
3, 38726, Note_on_c, 0, 55, 54
3, 38736, Control_c, 0, 64, 0
3, 38740, Note_on_c, 0, 54, 25
3, 38771, Note_on_c, 0, 48, 0
3, 38776, Note_on_c, 0, 66, 46
3, 38783, Note_on_c, 0, 55, 0
3, 38791, Note_on_c, 0, 67, 0
3, 38801, Note_on_c, 0, 54, 0
3, 38804, Note_on_c, 0, 66, 0
3, 38805, Note_on_c, 0, 65, 38
3, 38810, Control_c, 0, 64, 127
3, 38819, Note_on_c, 0, 64, 31
3, 38835, Note_on_c, 0, 65, 0
3, 38858, Note_on_c, 0, 64, 0
3, 38862, Note_on_c, 0, 50, 34
3, 38864, Note_on_c, 0, 62, 44
3, 38874, Note_on_c, 0, 50, 0
3, 38877, Note_on_c, 0, 62, 0
3, 38887, Control_c, 0, 64, 0
3, 38900, Note_on_c, 0, 69, 79
3, 38901, Note_on_c, 0, 57, 60
3, 38975, Note_on_c, 0, 57, 0
3, 38984, Note_on_c, 0, 57, 59
3, 38988, Note_on_c, 0, 47, 62
3, 39028, Control_c, 0, 64, 127
3, 39085, Note_on_c, 0, 47, 0
3, 39086, Note_on_c, 0, 57, 0
3, 39086, Note_on_c, 0, 69, 0
3, 39139, Note_on_c, 0, 60, 69
3, 39140, Control_c, 0, 64, 0
3, 39142, Note_on_c, 0, 56, 40
3, 39143, Note_on_c, 0, 46, 56
3, 39146, Note_on_c, 0, 64, 30
3, 39160, Note_on_c, 0, 64, 0
3, 39244, Control_c, 0, 64, 127
3, 39261, Note_on_c, 0, 66, 15
3, 39278, Note_on_c, 0, 56, 0
3, 39292, Note_on_c, 0, 60, 0
3, 39303, Note_on_c, 0, 66, 0
3, 39343, Note_on_c, 0, 46, 0
3, 39348, Control_c, 0, 64, 0
3, 39365, Note_on_c, 0, 55, 54
3, 39366, Note_on_c, 0, 60, 57
3, 39367, Note_on_c, 0, 45, 52
3, 39374, Note_on_c, 0, 55, 0
3, 39377, Note_on_c, 0, 60, 0
3, 39379, Note_on_c, 0, 45, 0
3, 39382, Control_c, 0, 64, 127
3, 39468, Control_c, 0, 64, 0
3, 39487, Control_c, 0, 64, 127
3, 39488, Note_on_c, 0, 86, 61
3, 39489, Note_on_c, 0, 64, 66
3, 39489, Note_on_c, 0, 84, 70
3, 39489, Note_on_c, 0, 72, 49
3, 39490, Note_on_c, 0, 74, 55
3, 39490, Note_on_c, 0, 59, 53
3, 39490, Note_on_c, 0, 60, 62
3, 39495, Note_on_c, 0, 55, 38
3, 39498, Note_on_c, 0, 72, 0
3, 39498, Note_on_c, 0, 84, 0
3, 39499, Note_on_c, 0, 74, 0
3, 39503, Note_on_c, 0, 86, 0
3, 39507, Note_on_c, 0, 55, 0
3, 39509, Note_on_c, 0, 64, 0
3, 39514, Note_on_c, 0, 59, 0
3, 39514, Note_on_c, 0, 60, 0
3, 39535, Control_c, 0, 64, 0
3, 39573, Note_on_c, 0, 86, 80
3, 39573, Note_on_c, 0, 74, 80
3, 39574, Note_on_c, 0, 60, 71
3, 39575, Note_on_c, 0, 64, 72
3, 39575, Note_on_c, 0, 59, 62
3, 39578, Note_on_c, 0, 79, 59
3, 39578, Note_on_c, 0, 83, 55
3, 39579, Note_on_c, 0, 55, 51
3, 39585, Note_on_c, 0, 79, 0
3, 39585, Note_on_c, 0, 59, 0
3, 39587, Note_on_c, 0, 83, 0
3, 39588, Note_on_c, 0, 55, 0
3, 39591, Note_on_c, 0, 74, 0
3, 39592, Note_on_c, 0, 64, 0
3, 39594, Note_on_c, 0, 86, 0
3, 39595, Note_on_c, 0, 60, 0
3, 39655, Note_on_c, 0, 60, 70
3, 39656, Note_on_c, 0, 59, 64
3, 39657, Note_on_c, 0, 64, 69
3, 39658, Note_on_c, 0, 74, 84
3, 39658, Note_on_c, 0, 86, 80
3, 39659, Note_on_c, 0, 55, 62
3, 39661, Note_on_c, 0, 79, 66
3, 39661, Note_on_c, 0, 83, 60
3, 39669, Note_on_c, 0, 79, 0
3, 39671, Note_on_c, 0, 55, 0
3, 39673, Note_on_c, 0, 83, 0
3, 39685, Note_on_c, 0, 64, 0
3, 39696, Note_on_c, 0, 74, 0
3, 39697, Note_on_c, 0, 86, 0
3, 39704, Note_on_c, 0, 60, 0
3, 39705, Note_on_c, 0, 59, 0
3, 39734, Note_on_c, 0, 84, 65
3, 39734, Note_on_c, 0, 72, 59
3, 39736, Note_on_c, 0, 55, 55
3, 39737, Note_on_c, 0, 64, 49
3, 39738, Control_c, 0, 64, 127
3, 39740, Note_on_c, 0, 60, 50
3, 39741, Note_on_c, 0, 59, 34
3, 39748, Note_on_c, 0, 72, 0
3, 39749, Note_on_c, 0, 60, 0
3, 39752, Note_on_c, 0, 59, 0
3, 39753, Note_on_c, 0, 64, 0
3, 39757, Note_on_c, 0, 84, 0
3, 39761, Note_on_c, 0, 55, 0
3, 39803, Control_c, 0, 64, 0
3, 39811, Note_on_c, 0, 74, 80
3, 39812, Note_on_c, 0, 86, 64
3, 39813, Note_on_c, 0, 80, 43
3, 39815, Note_on_c, 0, 83, 47
3, 39815, Note_on_c, 0, 54, 62
3, 39816, Note_on_c, 0, 64, 66
3, 39818, Note_on_c, 0, 60, 46
3, 39819, Note_on_c, 0, 74, 0
3, 39822, Note_on_c, 0, 80, 0
3, 39823, Note_on_c, 0, 86, 0
3, 39824, Note_on_c, 0, 83, 0
3, 39827, Note_on_c, 0, 64, 0
3, 39828, Note_on_c, 0, 60, 0
3, 39832, Note_on_c, 0, 54, 0
3, 39890, Note_on_c, 0, 54, 74
3, 39890, Note_on_c, 0, 74, 76
3, 39890, Note_on_c, 0, 80, 65
3, 39891, Note_on_c, 0, 64, 70
3, 39891, Note_on_c, 0, 83, 71
3, 39892, Note_on_c, 0, 60, 64
3, 39937, Note_on_c, 0, 74, 0
3, 39939, Note_on_c, 0, 80, 0
3, 39946, Note_on_c, 0, 64, 0
3, 39948, Note_on_c, 0, 54, 0
3, 39948, Note_on_c, 0, 83, 0
3, 39950, Note_on_c, 0, 60, 0
3, 39975, Note_on_c, 0, 54, 61
3, 39977, Note_on_c, 0, 83, 55
3, 39977, Note_on_c, 0, 64, 54
3, 39977, Note_on_c, 0, 60, 57
3, 39978, Note_on_c, 0, 74, 60
3, 39979, Note_on_c, 0, 80, 44
3, 39980, Note_on_c, 0, 86, 53
3, 40094, Control_c, 0, 64, 127
3, 40129, Note_on_c, 0, 60, 0
3, 40132, Note_on_c, 0, 64, 0
3, 40132, Note_on_c, 0, 86, 0
3, 40134, Note_on_c, 0, 54, 0
3, 40137, Note_on_c, 0, 74, 0
3, 40139, Note_on_c, 0, 83, 0
3, 40143, Note_on_c, 0, 80, 0
3, 40196, Control_c, 0, 64, 0
3, 40214, Note_on_c, 0, 54, 36
3, 40216, Note_on_c, 0, 60, 43
3, 40216, Note_on_c, 0, 64, 36
3, 40220, Control_c, 0, 64, 127
3, 40225, Note_on_c, 0, 60, 0
3, 40236, Note_on_c, 0, 64, 0
3, 40240, Note_on_c, 0, 54, 0
3, 40327, Control_c, 0, 64, 0
3, 40335, Note_on_c, 0, 80, 42
3, 40338, Note_on_c, 0, 72, 47
3, 40338, Note_on_c, 0, 84, 49
3, 40338, Note_on_c, 0, 61, 43
3, 40339, Note_on_c, 0, 65, 58
3, 40340, Note_on_c, 0, 77, 33
3, 40341, Note_on_c, 0, 60, 54
3, 40341, Note_on_c, 0, 56, 32
3, 40346, Note_on_c, 0, 80, 0
3, 40347, Note_on_c, 0, 72, 0
3, 40347, Note_on_c, 0, 84, 0
3, 40349, Note_on_c, 0, 65, 0
3, 40349, Note_on_c, 0, 60, 0
3, 40350, Note_on_c, 0, 77, 0
3, 40362, Note_on_c, 0, 84, 44
3, 40363, Note_on_c, 0, 65, 29
3, 40364, Note_on_c, 0, 72, 33
3, 40370, Note_on_c, 0, 60, 19
3, 40374, Note_on_c, 0, 72, 0
3, 40375, Note_on_c, 0, 84, 0
3, 40378, Note_on_c, 0, 65, 0
3, 40379, Note_on_c, 0, 60, 0
3, 40383, Note_on_c, 0, 61, 0
3, 40386, Note_on_c, 0, 56, 0
3, 40514, Note_on_c, 0, 80, 55
3, 40515, Note_on_c, 0, 72, 60
3, 40516, Note_on_c, 0, 84, 64
3, 40517, Note_on_c, 0, 65, 66
3, 40517, Note_on_c, 0, 77, 54
3, 40517, Note_on_c, 0, 60, 68
3, 40519, Note_on_c, 0, 61, 45
3, 40520, Note_on_c, 0, 56, 42
3, 40523, Note_on_c, 0, 72, 0
3, 40524, Note_on_c, 0, 84, 0
3, 40526, Note_on_c, 0, 77, 0
3, 40526, Note_on_c, 0, 60, 0
3, 40527, Note_on_c, 0, 65, 0
3, 40528, Note_on_c, 0, 80, 0
3, 40542, Note_on_c, 0, 65, 35
3, 40544, Note_on_c, 0, 72, 45
3, 40544, Note_on_c, 0, 84, 50
3, 40545, Note_on_c, 0, 80, 56
3, 40546, Note_on_c, 0, 60, 29
3, 40547, Note_on_c, 0, 77, 30
3, 40553, Note_on_c, 0, 72, 0
3, 40556, Note_on_c, 0, 60, 0
3, 40557, Note_on_c, 0, 84, 0
3, 40557, Note_on_c, 0, 80, 0
3, 40559, Note_on_c, 0, 77, 0
3, 40561, Note_on_c, 0, 65, 0
3, 40563, Note_on_c, 0, 61, 0
3, 40566, Note_on_c, 0, 56, 0
3, 40750, Note_on_c, 0, 80, 56
3, 40752, Note_on_c, 0, 84, 67
3, 40752, Note_on_c, 0, 77, 59
3, 40753, Note_on_c, 0, 72, 57
3, 40757, Note_on_c, 0, 61, 38
3, 40760, Note_on_c, 0, 60, 37
3, 40760, Note_on_c, 0, 65, 39
3, 40761, Note_on_c, 0, 84, 0
3, 40762, Note_on_c, 0, 72, 0
3, 40762, Note_on_c, 0, 77, 0
3, 40768, Note_on_c, 0, 80, 0
3, 40769, Note_on_c, 0, 60, 0
3, 40770, Note_on_c, 0, 65, 0
3, 40777, Note_on_c, 0, 56, 7
3, 40781, Note_on_c, 0, 84, 54
3, 40783, Note_on_c, 0, 77, 35
3, 40784, Note_on_c, 0, 72, 36
3, 40784, Note_on_c, 0, 65, 34
3, 40786, Note_on_c, 0, 60, 30
3, 40787, Note_on_c, 0, 80, 32
3, 40794, Note_on_c, 0, 72, 0
3, 40796, Note_on_c, 0, 80, 0
3, 40796, Note_on_c, 0, 77, 0
3, 40796, Note_on_c, 0, 84, 0
3, 40796, Note_on_c, 0, 65, 0
3, 40797, Note_on_c, 0, 60, 0
3, 40807, Note_on_c, 0, 56, 0
3, 40814, Note_on_c, 0, 61, 0
3, 40961, Control_c, 0, 64, 127
3, 40997, Control_c, 0, 64, 0
3, 41036, Control_c, 0, 64, 127
3, 41037, Note_on_c, 0, 77, 85
3, 41038, Note_on_c, 0, 80, 67
3, 41038, Note_on_c, 0, 84, 89
3, 41038, Note_on_c, 0, 61, 68
3, 41039, Note_on_c, 0, 72, 83
3, 41040, Note_on_c, 0, 65, 74
3, 41040, Note_on_c, 0, 55, 76
3, 41075, Note_on_c, 0, 55, 0
3, 41080, Note_on_c, 0, 72, 0
3, 41081, Note_on_c, 0, 84, 0
3, 41085, Note_on_c, 0, 65, 0
3, 41091, Note_on_c, 0, 77, 0
3, 41098, Note_on_c, 0, 80, 0
3, 41106, Note_on_c, 0, 61, 0
3, 41126, Note_on_c, 0, 61, 50
3, 41129, Note_on_c, 0, 86, 68
3, 41129, Note_on_c, 0, 78, 44
3, 41129, Note_on_c, 0, 77, 62
3, 41130, Note_on_c, 0, 74, 51
3, 41130, Note_on_c, 0, 55, 60
3, 41133, Note_on_c, 0, 65, 43
3, 41138, Note_on_c, 0, 55, 0
3, 41138, Control_c, 0, 64, 0
3, 41142, Note_on_c, 0, 65, 0
3, 41144, Note_on_c, 0, 74, 0
3, 41145, Note_on_c, 0, 77, 0
3, 41148, Note_on_c, 0, 78, 0
3, 41148, Note_on_c, 0, 86, 0
3, 41154, Note_on_c, 0, 61, 0
3, 41162, Note_on_c, 0, 55, 36
3, 41166, Note_on_c, 0, 61, 30
3, 41170, Control_c, 0, 64, 127
3, 41170, Note_on_c, 0, 65, 39
3, 41201, Note_on_c, 0, 55, 0
3, 41203, Note_on_c, 0, 65, 0
3, 41226, Note_on_c, 0, 61, 0
3, 41240, Control_c, 0, 64, 0
3, 41246, Note_on_c, 0, 84, 79
3, 41246, Note_on_c, 0, 61, 50
3, 41247, Note_on_c, 0, 77, 62
3, 41248, Note_on_c, 0, 72, 68
3, 41249, Note_on_c, 0, 56, 62
3, 41249, Note_on_c, 0, 65, 65
3, 41250, Note_on_c, 0, 80, 42
3, 41251, Note_on_c, 0, 60, 51
3, 41260, Note_on_c, 0, 60, 0
3, 41260, Note_on_c, 0, 80, 0
3, 41270, Note_on_c, 0, 72, 0
3, 41272, Note_on_c, 0, 65, 0
3, 41277, Note_on_c, 0, 56, 0
3, 41279, Note_on_c, 0, 77, 0
3, 41280, Control_c, 0, 64, 127
3, 41286, Note_on_c, 0, 61, 0
3, 41297, Note_on_c, 0, 84, 0
3, 41845, Note_on_c, 0, 61, 64
3, 41847, Note_on_c, 0, 89, 84
3, 41848, Note_on_c, 0, 55, 71
3, 41848, Note_on_c, 0, 93, 82
3, 41848, Note_on_c, 0, 67, 56
3, 41849, Note_on_c, 0, 96, 87
3, 41849, Note_on_c, 0, 84, 78
3, 41850, Control_c, 0, 64, 0
3, 41883, Note_on_c, 0, 93, 0
3, 41885, Control_c, 0, 64, 127
3, 41901, Note_on_c, 0, 96, 0
3, 41924, Note_on_c, 0, 94, 75
3, 41964, Note_on_c, 0, 89, 0
3, 41970, Note_on_c, 0, 55, 0
3, 41972, Note_on_c, 0, 84, 0
3, 41974, Note_on_c, 0, 67, 0
3, 41984, Note_on_c, 0, 94, 0
3, 41990, Note_on_c, 0, 61, 0
3, 42001, Note_on_c, 0, 89, 64
3, 42001, Note_on_c, 0, 67, 47
3, 42003, Note_on_c, 0, 61, 38
3, 42004, Note_on_c, 0, 55, 55
3, 42008, Control_c, 0, 64, 0
3, 42016, Control_c, 0, 64, 127
3, 42043, Note_on_c, 0, 55, 0
3, 42055, Note_on_c, 0, 67, 0
3, 42073, Note_on_c, 0, 61, 0
3, 42077, Note_on_c, 0, 89, 0
3, 42092, Note_on_c, 0, 84, 47
3, 42103, Note_on_c, 0, 84, 0
3, 42167, Note_on_c, 0, 92, 46
3, 42171, Note_on_c, 0, 61, 56
3, 42171, Note_on_c, 0, 87, 65
3, 42172, Note_on_c, 0, 54, 58
3, 42172, Note_on_c, 0, 80, 49
3, 42218, Note_on_c, 0, 54, 0
3, 42219, Note_on_c, 0, 92, 0
3, 42220, Note_on_c, 0, 80, 0
3, 42224, Note_on_c, 0, 87, 0
3, 42232, Note_on_c, 0, 61, 0
3, 42249, Note_on_c, 0, 64, 57
3, 42249, Note_on_c, 0, 93, 62
3, 42249, Note_on_c, 0, 81, 55
3, 42250, Note_on_c, 0, 88, 60
3, 42253, Note_on_c, 0, 60, 55
3, 42254, Control_c, 0, 64, 0
3, 42255, Note_on_c, 0, 57, 62
3, 42255, Note_on_c, 0, 53, 45
3, 42321, Control_c, 0, 64, 127
3, 42341, Note_on_c, 0, 93, 0
3, 42352, Note_on_c, 0, 88, 0
3, 42362, Note_on_c, 0, 64, 0
3, 42365, Note_on_c, 0, 81, 0
3, 42370, Note_on_c, 0, 60, 0
3, 42382, Note_on_c, 0, 57, 0
3, 42402, Note_on_c, 0, 53, 0
3, 42489, Note_on_c, 0, 61, 57
3, 42491, Note_on_c, 0, 59, 59
3, 42495, Note_on_c, 0, 53, 45
3, 42498, Control_c, 0, 64, 0
3, 42572, Note_on_c, 0, 62, 63
3, 42581, Note_on_c, 0, 43, 35
3, 42590, Note_on_c, 0, 61, 0
3, 42598, Control_c, 0, 64, 127
3, 42673, Note_on_c, 0, 53, 0
3, 42681, Note_on_c, 0, 59, 0
3, 42685, Note_on_c, 0, 62, 0
3, 42713, Note_on_c, 0, 43, 0
3, 42814, Note_on_c, 0, 58, 74
3, 42815, Note_on_c, 0, 57, 74
3, 42816, Note_on_c, 0, 62, 72
3, 42816, Note_on_c, 0, 69, 84
3, 42820, Control_c, 0, 64, 0
3, 42821, Note_on_c, 0, 65, 54
3, 42865, Note_on_c, 0, 69, 0
3, 42868, Note_on_c, 0, 65, 0
3, 42874, Control_c, 0, 64, 127
3, 42884, Note_on_c, 0, 62, 0
3, 42886, Note_on_c, 0, 58, 0
3, 42889, Note_on_c, 0, 67, 54
3, 42892, Note_on_c, 0, 57, 0
3, 42894, Note_on_c, 0, 55, 46
3, 42899, Note_on_c, 0, 67, 0
3, 42971, Note_on_c, 0, 55, 0
3, 42975, Control_c, 0, 64, 0
3, 42978, Note_on_c, 0, 58, 60
3, 42981, Note_on_c, 0, 68, 59
3, 42981, Note_on_c, 0, 72, 74
3, 42982, Note_on_c, 0, 64, 73
3, 42983, Note_on_c, 0, 66, 51
3, 43031, Control_c, 0, 64, 127
3, 43091, Note_on_c, 0, 58, 0
3, 43094, Note_on_c, 0, 72, 0
3, 43106, Note_on_c, 0, 66, 0
3, 43107, Note_on_c, 0, 68, 0
3, 43110, Note_on_c, 0, 64, 0
3, 43282, Note_on_c, 0, 37, 56
3, 43287, Note_on_c, 0, 55, 60
3, 43288, Note_on_c, 0, 44, 47
3, 43288, Note_on_c, 0, 60, 67
3, 43289, Note_on_c, 0, 65, 45
3, 43304, Control_c, 0, 64, 0
3, 43305, Note_on_c, 0, 55, 0
3, 43315, Note_on_c, 0, 44, 0
3, 43316, Note_on_c, 0, 37, 0
3, 43319, Note_on_c, 0, 65, 0
3, 43325, Note_on_c, 0, 60, 0
3, 43348, Note_on_c, 0, 38, 50
3, 43351, Note_on_c, 0, 65, 47
3, 43351, Note_on_c, 0, 45, 39
3, 43352, Note_on_c, 0, 56, 50
3, 43353, Note_on_c, 0, 61, 54
3, 43378, Control_c, 0, 64, 127
3, 43383, Note_on_c, 0, 38, 0
3, 43394, Note_on_c, 0, 45, 0
3, 43416, Note_on_c, 0, 56, 0
3, 43429, Note_on_c, 0, 61, 0
3, 43430, Note_on_c, 0, 65, 0
3, 43443, Control_c, 0, 64, 0
3, 43460, Note_on_c, 0, 57, 60
3, 43460, Note_on_c, 0, 62, 52
3, 43461, Note_on_c, 0, 65, 38
3, 43509, Note_on_c, 0, 57, 0
3, 43512, Control_c, 0, 64, 127
3, 43518, Note_on_c, 0, 62, 0
3, 43531, Control_c, 0, 64, 0
3, 43539, Note_on_c, 0, 65, 0
3, 43543, Note_on_c, 0, 48, 24
3, 43557, Note_on_c, 0, 48, 0
3, 43576, Note_on_c, 0, 56, 62
3, 43578, Note_on_c, 0, 61, 62
3, 43585, Control_c, 0, 64, 127
3, 43589, Note_on_c, 0, 65, 31
3, 43625, Note_on_c, 0, 65, 0
3, 43633, Note_on_c, 0, 56, 0
3, 43641, Note_on_c, 0, 61, 0
3, 43655, Note_on_c, 0, 57, 55
3, 43656, Control_c, 0, 64, 0
3, 43656, Note_on_c, 0, 62, 50
3, 43660, Note_on_c, 0, 65, 42
3, 43679, Note_on_c, 0, 46, 23
3, 43697, Note_on_c, 0, 46, 0
3, 43769, Note_on_c, 0, 48, 82
3, 43769, Note_on_c, 0, 47, 80
3, 43778, Note_on_c, 0, 47, 0
3, 43834, Note_on_c, 0, 57, 0
3, 43860, Note_on_c, 0, 62, 0
3, 43884, Note_on_c, 0, 65, 0
3, 43888, Note_on_c, 0, 47, 26
3, 43897, Note_on_c, 0, 47, 0
3, 43931, Note_on_c, 0, 60, 55
3, 43971, Control_c, 0, 64, 127
3, 43974, Note_on_c, 0, 60, 0
3, 44001, Note_on_c, 0, 62, 56
3, 44008, Control_c, 0, 64, 0
3, 44014, Note_on_c, 0, 48, 0
3, 44021, Control_c, 0, 64, 127
3, 44024, Note_on_c, 0, 62, 0
3, 44046, Note_on_c, 0, 65, 43
3, 44060, Note_on_c, 0, 65, 0
3, 44118, Note_on_c, 0, 69, 60
3, 44132, Note_on_c, 0, 69, 0
3, 44154, Control_c, 0, 64, 0
3, 44161, Note_on_c, 0, 68, 81
3, 44162, Note_on_c, 0, 63, 50
3, 44164, Note_on_c, 0, 75, 72
3, 44166, Note_on_c, 0, 53, 42
3, 44169, Note_on_c, 0, 58, 38
3, 44234, Note_on_c, 0, 75, 0
3, 44241, Note_on_c, 0, 74, 54
3, 44256, Note_on_c, 0, 68, 0
3, 44284, Note_on_c, 0, 74, 0
3, 44300, Control_c, 0, 64, 127
3, 44301, Note_on_c, 0, 72, 24
3, 44341, Note_on_c, 0, 72, 0
3, 44347, Control_c, 0, 64, 0
3, 44365, Note_on_c, 0, 72, 48
3, 44366, Note_on_c, 0, 75, 57
3, 44369, Note_on_c, 0, 65, 43
3, 44369, Note_on_c, 0, 68, 45
3, 44394, Control_c, 0, 64, 127
3, 44402, Note_on_c, 0, 53, 0
3, 44408, Note_on_c, 0, 65, 0
3, 44416, Note_on_c, 0, 58, 0
3, 44419, Note_on_c, 0, 63, 0
3, 44468, Note_on_c, 0, 68, 0
3, 44477, Control_c, 0, 64, 0
3, 44488, Note_on_c, 0, 65, 65
3, 44488, Note_on_c, 0, 60, 60
3, 44490, Note_on_c, 0, 55, 58
3, 44524, Control_c, 0, 64, 127
3, 44574, Note_on_c, 0, 60, 0
3, 44576, Note_on_c, 0, 55, 0
3, 44585, Note_on_c, 0, 72, 0
3, 44603, Note_on_c, 0, 75, 0
3, 44609, Note_on_c, 0, 65, 0
3, 44650, Control_c, 0, 64, 0
3, 44653, Note_on_c, 0, 67, 68
3, 44655, Note_on_c, 0, 62, 59
3, 44656, Note_on_c, 0, 56, 64
3, 44753, Control_c, 0, 64, 127
3, 44840, Note_on_c, 0, 91, 89
3, 44883, Note_on_c, 0, 67, 0
3, 44886, Note_on_c, 0, 91, 0
3, 44889, Note_on_c, 0, 62, 0
3, 44913, Note_on_c, 0, 56, 0
3, 44925, Note_on_c, 0, 89, 80
3, 44975, Note_on_c, 0, 89, 0
3, 45001, Control_c, 0, 64, 0
3, 45006, Control_c, 0, 64, 127
3, 45006, Note_on_c, 0, 63, 37
3, 45008, Note_on_c, 0, 80, 43
3, 45011, Note_on_c, 0, 58, 36
3, 45012, Note_on_c, 0, 53, 32
3, 45045, Note_on_c, 0, 53, 0
3, 45067, Note_on_c, 0, 58, 0
3, 45067, Note_on_c, 0, 80, 0
3, 45077, Note_on_c, 0, 63, 0
3, 45123, Control_c, 0, 64, 0
3, 45201, Note_on_c, 0, 64, 56
3, 45201, Note_on_c, 0, 59, 54
3, 45202, Note_on_c, 0, 91, 62
3, 45204, Note_on_c, 0, 79, 54
3, 45211, Note_on_c, 0, 91, 0
3, 45212, Note_on_c, 0, 79, 0
3, 45212, Note_on_c, 0, 64, 0
3, 45213, Note_on_c, 0, 59, 0
3, 45280, Control_c, 0, 64, 127
3, 45282, Note_on_c, 0, 59, 60
3, 45284, Note_on_c, 0, 64, 62
3, 45284, Note_on_c, 0, 87, 71
3, 45285, Note_on_c, 0, 53, 62
3, 45285, Note_on_c, 0, 91, 71
3, 45285, Note_on_c, 0, 79, 66
3, 45307, Note_on_c, 0, 79, 0
3, 45314, Note_on_c, 0, 87, 0
3, 45315, Note_on_c, 0, 53, 0
3, 45317, Note_on_c, 0, 64, 0
3, 45318, Note_on_c, 0, 91, 0
3, 45325, Note_on_c, 0, 59, 0
3, 45345, Control_c, 0, 64, 0
3, 45364, Control_c, 0, 64, 127
3, 45369, Note_on_c, 0, 59, 60
3, 45371, Note_on_c, 0, 53, 65
3, 45371, Note_on_c, 0, 64, 60
3, 45372, Note_on_c, 0, 87, 72
3, 45373, Note_on_c, 0, 91, 68
3, 45374, Note_on_c, 0, 79, 71
3, 45468, Note_on_c, 0, 79, 0
3, 45481, Note_on_c, 0, 64, 0
3, 45482, Note_on_c, 0, 53, 0
3, 45485, Note_on_c, 0, 91, 0
3, 45487, Note_on_c, 0, 59, 0
3, 45491, Note_on_c, 0, 87, 0
3, 45734, Note_on_c, 0, 63, 64
3, 45734, Note_on_c, 0, 59, 64
3, 45736, Note_on_c, 0, 87, 81
3, 45738, Note_on_c, 0, 75, 74
3, 45740, Note_on_c, 0, 53, 50
3, 45742, Control_c, 0, 64, 0
3, 45755, Note_on_c, 0, 75, 0
3, 45767, Note_on_c, 0, 87, 0
3, 45771, Note_on_c, 0, 85, 56
3, 45781, Note_on_c, 0, 53, 0
3, 45781, Control_c, 0, 64, 127
3, 45785, Note_on_c, 0, 63, 0
3, 45794, Note_on_c, 0, 59, 0
3, 45798, Note_on_c, 0, 85, 0
3, 45805, Control_c, 0, 64, 0
3, 45814, Note_on_c, 0, 87, 84
3, 45815, Note_on_c, 0, 63, 68
3, 45815, Note_on_c, 0, 75, 83
3, 45817, Note_on_c, 0, 53, 66
3, 45818, Note_on_c, 0, 59, 70
3, 45862, Control_c, 0, 64, 127
3, 45962, Note_on_c, 0, 75, 0
3, 45967, Note_on_c, 0, 85, 37
3, 45969, Note_on_c, 0, 53, 0
3, 45970, Note_on_c, 0, 63, 0
3, 45976, Note_on_c, 0, 59, 0
3, 45985, Note_on_c, 0, 87, 0
3, 46011, Note_on_c, 0, 80, 40
3, 46033, Note_on_c, 0, 85, 0
3, 46044, Note_on_c, 0, 80, 0
3, 46046, Note_on_c, 0, 75, 64
3, 46055, Note_on_c, 0, 75, 0
3, 46055, Note_on_c, 0, 74, 59
3, 46056, Note_on_c, 0, 62, 71
3, 46056, Note_on_c, 0, 58, 62
3, 46058, Note_on_c, 0, 55, 69
3, 46062, Note_on_c, 0, 51, 42
3, 46063, Control_c, 0, 64, 0
3, 46125, Control_c, 0, 64, 127
3, 46193, Note_on_c, 0, 55, 0
3, 46196, Note_on_c, 0, 51, 0
3, 46198, Note_on_c, 0, 74, 0
3, 46209, Note_on_c, 0, 58, 0
3, 46209, Note_on_c, 0, 86, 71
3, 46227, Note_on_c, 0, 62, 0
3, 46239, Note_on_c, 0, 86, 0
3, 46244, Note_on_c, 0, 84, 54
3, 46266, Note_on_c, 0, 84, 0
3, 46286, Note_on_c, 0, 86, 88
3, 46287, Note_on_c, 0, 74, 84
3, 46288, Note_on_c, 0, 62, 51
3, 46290, Note_on_c, 0, 65, 66
3, 46291, Note_on_c, 0, 60, 64
3, 46295, Control_c, 0, 64, 0
3, 46295, Note_on_c, 0, 55, 52
3, 46339, Control_c, 0, 64, 127
3, 46412, Note_on_c, 0, 65, 0
3, 46420, Note_on_c, 0, 62, 0
3, 46421, Note_on_c, 0, 60, 0
3, 46437, Note_on_c, 0, 55, 0
3, 46489, Note_on_c, 0, 84, 68
3, 46494, Note_on_c, 0, 86, 0
3, 46495, Note_on_c, 0, 74, 0
3, 46526, Note_on_c, 0, 82, 55
3, 46533, Note_on_c, 0, 84, 0
3, 46555, Note_on_c, 0, 82, 0
3, 46570, Note_on_c, 0, 62, 49
3, 46572, Control_c, 0, 64, 0
3, 46572, Note_on_c, 0, 74, 62
3, 46573, Note_on_c, 0, 86, 64
3, 46574, Note_on_c, 0, 58, 36
3, 46574, Note_on_c, 0, 51, 37
3, 46578, Note_on_c, 0, 55, 44
3, 46629, Control_c, 0, 64, 127
3, 46676, Note_on_c, 0, 86, 0
3, 46691, Note_on_c, 0, 62, 0
3, 46701, Note_on_c, 0, 74, 0
3, 46716, Note_on_c, 0, 55, 0
3, 46735, Note_on_c, 0, 58, 0
3, 46808, Note_on_c, 0, 51, 0
3, 46895, Note_on_c, 0, 67, 67
3, 47015, Note_on_c, 0, 56, 44
3, 47028, Note_on_c, 0, 67, 0
3, 47041, Note_on_c, 0, 65, 56
3, 47043, Note_on_c, 0, 59, 55
3, 47047, Note_on_c, 0, 63, 38
3, 47048, Note_on_c, 0, 61, 39
3, 47050, Note_on_c, 0, 58, 48
3, 47061, Note_on_c, 0, 56, 0
3, 47064, Control_c, 0, 64, 0
3, 47133, Note_on_c, 0, 58, 0
3, 47139, Note_on_c, 0, 56, 34
3, 47165, Note_on_c, 0, 56, 0
3, 47178, Note_on_c, 0, 58, 58
3, 47252, Note_on_c, 0, 58, 0
3, 47263, Note_on_c, 0, 56, 33
3, 47292, Note_on_c, 0, 56, 0
3, 47298, Note_on_c, 0, 58, 56
3, 47301, Control_c, 0, 64, 127
3, 47371, Note_on_c, 0, 58, 0
3, 47379, Note_on_c, 0, 56, 52
3, 47469, Note_on_c, 0, 65, 0
3, 47473, Note_on_c, 0, 61, 0
3, 47473, Note_on_c, 0, 56, 0
3, 47474, Note_on_c, 0, 63, 0
3, 47480, Note_on_c, 0, 59, 0
3, 47617, Note_on_c, 0, 52, 59
3, 47618, Note_on_c, 0, 63, 44
3, 47620, Note_on_c, 0, 56, 38
3, 47624, Control_c, 0, 64, 0
3, 47625, Note_on_c, 0, 58, 33
3, 47627, Note_on_c, 0, 48, 42
3, 47733, Note_on_c, 0, 36, 58
3, 47738, Note_on_c, 0, 48, 0
3, 47767, Note_on_c, 0, 52, 0
3, 47775, Note_on_c, 0, 56, 0
3, 47781, Control_c, 0, 64, 127
3, 47782, Note_on_c, 0, 58, 0
3, 47783, Note_on_c, 0, 48, 35
3, 47791, Note_on_c, 0, 63, 0
3, 47794, Note_on_c, 0, 48, 0
3, 47854, Note_on_c, 0, 48, 64
3, 47858, Note_on_c, 0, 36, 0
3, 47862, Control_c, 0, 64, 0
3, 47888, Note_on_c, 0, 48, 0
3, 47894, Note_on_c, 0, 52, 44
3, 47894, Note_on_c, 0, 56, 31
3, 47896, Note_on_c, 0, 60, 37
3, 47904, Note_on_c, 0, 52, 0
3, 47904, Control_c, 0, 64, 127
3, 47920, Note_on_c, 0, 60, 0
3, 47920, Note_on_c, 0, 56, 0
3, 48019, Note_on_c, 0, 58, 62
3, 48021, Note_on_c, 0, 69, 60
3, 48023, Note_on_c, 0, 62, 53
3, 48027, Control_c, 0, 64, 0
3, 48027, Note_on_c, 0, 65, 46
3, 48120, Control_c, 0, 64, 127
3, 48140, Note_on_c, 0, 69, 0
3, 48154, Note_on_c, 0, 65, 0
3, 48167, Note_on_c, 0, 62, 0
3, 48179, Note_on_c, 0, 58, 0
3, 48209, Note_on_c, 0, 43, 37
3, 48224, Note_on_c, 0, 43, 0
3, 48240, Note_on_c, 0, 58, 50
3, 48243, Note_on_c, 0, 53, 49
3, 48244, Note_on_c, 0, 48, 34
3, 48244, Note_on_c, 0, 62, 37
3, 48245, Control_c, 0, 64, 0
3, 48252, Note_on_c, 0, 53, 0
3, 48254, Note_on_c, 0, 62, 0
3, 48264, Note_on_c, 0, 58, 0
3, 48286, Note_on_c, 0, 55, 76
3, 48288, Note_on_c, 0, 64, 71
3, 48289, Note_on_c, 0, 60, 64
3, 48334, Note_on_c, 0, 55, 0
3, 48336, Note_on_c, 0, 60, 0
3, 48341, Note_on_c, 0, 64, 0
3, 48366, Note_on_c, 0, 65, 68
3, 48366, Note_on_c, 0, 57, 74
3, 48368, Note_on_c, 0, 62, 58
3, 48378, Control_c, 0, 64, 127
3, 48420, Note_on_c, 0, 62, 0
3, 48420, Note_on_c, 0, 57, 0
3, 48422, Note_on_c, 0, 65, 0
3, 48459, Note_on_c, 0, 64, 56
3, 48459, Note_on_c, 0, 69, 51
3, 48460, Control_c, 0, 64, 0
3, 48462, Note_on_c, 0, 67, 53
3, 48471, Note_on_c, 0, 67, 0
3, 48482, Note_on_c, 0, 64, 0
3, 48485, Note_on_c, 0, 69, 0
3, 48492, Note_on_c, 0, 48, 0
3, 48501, Control_c, 0, 64, 127
3, 48538, Note_on_c, 0, 70, 71
3, 48541, Note_on_c, 0, 48, 45
3, 48553, Note_on_c, 0, 48, 0
3, 48567, Note_on_c, 0, 70, 0
3, 48613, Note_on_c, 0, 72, 66
3, 48615, Note_on_c, 0, 62, 37
3, 48618, Note_on_c, 0, 66, 18
3, 48619, Note_on_c, 0, 65, 64
3, 48632, Note_on_c, 0, 65, 0
3, 48635, Note_on_c, 0, 66, 0
3, 48635, Note_on_c, 0, 62, 0
3, 48651, Note_on_c, 0, 72, 0
3, 48690, Note_on_c, 0, 74, 71
3, 48692, Note_on_c, 0, 64, 65
3, 48694, Control_c, 0, 64, 0
3, 48702, Note_on_c, 0, 56, 23
3, 48713, Note_on_c, 0, 64, 0
3, 48716, Note_on_c, 0, 56, 0
3, 48723, Note_on_c, 0, 74, 0
3, 48735, Control_c, 0, 64, 127
3, 48767, Note_on_c, 0, 58, 57
3, 48774, Note_on_c, 0, 76, 58
3, 48776, Note_on_c, 0, 65, 34
3, 48778, Note_on_c, 0, 70, 29
3, 48786, Note_on_c, 0, 48, 30
3, 48795, Note_on_c, 0, 70, 0
3, 48814, Note_on_c, 0, 65, 0
3, 48816, Note_on_c, 0, 76, 0
3, 48821, Note_on_c, 0, 58, 0
3, 48834, Note_on_c, 0, 48, 0
3, 48841, Control_c, 0, 64, 0
3, 48842, Note_on_c, 0, 58, 48
3, 48848, Note_on_c, 0, 77, 54
3, 48849, Note_on_c, 0, 79, 47
3, 48853, Control_c, 0, 64, 127
3, 48854, Note_on_c, 0, 67, 27
3, 48854, Note_on_c, 0, 65, 20
3, 48856, Note_on_c, 0, 58, 0
3, 48866, Note_on_c, 0, 65, 0
3, 48868, Note_on_c, 0, 67, 0
3, 48872, Note_on_c, 0, 79, 0
3, 48876, Note_on_c, 0, 77, 0
3, 48920, Control_c, 0, 64, 0
3, 48925, Note_on_c, 0, 62, 55
3, 48926, Note_on_c, 0, 77, 50
3, 48927, Note_on_c, 0, 69, 59
3, 48928, Note_on_c, 0, 74, 43
3, 48928, Note_on_c, 0, 81, 54
3, 48929, Note_on_c, 0, 58, 42
3, 48931, Note_on_c, 0, 57, 40
3, 48934, Note_on_c, 0, 53, 30
3, 48943, Note_on_c, 0, 69, 0
3, 48944, Note_on_c, 0, 74, 0
3, 48945, Note_on_c, 0, 57, 0
3, 48946, Note_on_c, 0, 53, 0
3, 48947, Note_on_c, 0, 62, 0
3, 48948, Note_on_c, 0, 77, 0
3, 48951, Note_on_c, 0, 81, 0
3, 48954, Note_on_c, 0, 58, 0
3, 48962, Control_c, 0, 64, 127
3, 48997, Note_on_c, 0, 82, 72
3, 48999, Note_on_c, 0, 70, 63
3, 49000, Note_on_c, 0, 62, 55
3, 49003, Note_on_c, 0, 57, 45
3, 49003, Note_on_c, 0, 58, 46
3, 49006, Note_on_c, 0, 53, 43
3, 49046, Note_on_c, 0, 70, 0
3, 49048, Note_on_c, 0, 53, 0
3, 49051, Note_on_c, 0, 82, 0
3, 49056, Note_on_c, 0, 62, 0
3, 49057, Note_on_c, 0, 57, 0
3, 49060, Note_on_c, 0, 58, 0
3, 49082, Note_on_c, 0, 62, 44
3, 49083, Note_on_c, 0, 58, 48
3, 49083, Note_on_c, 0, 84, 76
3, 49084, Note_on_c, 0, 72, 55
3, 49089, Note_on_c, 0, 57, 38
3, 49109, Note_on_c, 0, 57, 0
3, 49110, Note_on_c, 0, 72, 0
3, 49115, Note_on_c, 0, 62, 0
3, 49120, Note_on_c, 0, 84, 0
3, 49124, Note_on_c, 0, 58, 0
3, 49154, Control_c, 0, 64, 0
3, 49160, Note_on_c, 0, 74, 67
3, 49160, Note_on_c, 0, 86, 71
3, 49162, Note_on_c, 0, 58, 51
3, 49163, Note_on_c, 0, 82, 47
3, 49163, Note_on_c, 0, 79, 57
3, 49163, Note_on_c, 0, 62, 63
3, 49166, Note_on_c, 0, 57, 48
3, 49177, Note_on_c, 0, 57, 0
3, 49180, Note_on_c, 0, 74, 0
3, 49180, Note_on_c, 0, 79, 0
3, 49186, Note_on_c, 0, 62, 0
3, 49189, Note_on_c, 0, 82, 0
3, 49193, Control_c, 0, 64, 127
3, 49194, Note_on_c, 0, 86, 0
3, 49196, Note_on_c, 0, 58, 0
3, 49234, Note_on_c, 0, 62, 62
3, 49234, Note_on_c, 0, 58, 49
3, 49236, Note_on_c, 0, 76, 75
3, 49236, Note_on_c, 0, 88, 80
3, 49249, Note_on_c, 0, 55, 36
3, 49270, Note_on_c, 0, 55, 0
3, 49272, Note_on_c, 0, 76, 0
3, 49272, Note_on_c, 0, 62, 0
3, 49277, Note_on_c, 0, 58, 0
3, 49280, Note_on_c, 0, 88, 0
3, 49316, Note_on_c, 0, 58, 53
3, 49319, Note_on_c, 0, 62, 58
3, 49319, Note_on_c, 0, 77, 74
3, 49319, Note_on_c, 0, 89, 78
3, 49321, Note_on_c, 0, 55, 51
3, 49334, Note_on_c, 0, 55, 0
3, 49340, Note_on_c, 0, 62, 0
3, 49342, Note_on_c, 0, 77, 0
3, 49356, Note_on_c, 0, 58, 0
3, 49356, Note_on_c, 0, 89, 0
3, 49398, Note_on_c, 0, 91, 63
3, 49401, Note_on_c, 0, 58, 59
3, 49402, Note_on_c, 0, 79, 61
3, 49404, Note_on_c, 0, 62, 62
3, 49405, Control_c, 0, 64, 0
3, 49406, Note_on_c, 0, 52, 53
3, 49415, Note_on_c, 0, 52, 0
3, 49416, Note_on_c, 0, 62, 0
3, 49422, Note_on_c, 0, 79, 0
3, 49425, Note_on_c, 0, 58, 0
3, 49432, Note_on_c, 0, 91, 0
3, 49433, Control_c, 0, 64, 127
3, 49475, Note_on_c, 0, 62, 55
3, 49478, Note_on_c, 0, 93, 81
3, 49478, Note_on_c, 0, 52, 59
3, 49478, Note_on_c, 0, 58, 49
3, 49479, Note_on_c, 0, 81, 69
3, 49482, Note_on_c, 0, 86, 58
3, 49483, Note_on_c, 0, 90, 50
3, 49509, Note_on_c, 0, 52, 0
3, 49513, Note_on_c, 0, 81, 0
3, 49513, Note_on_c, 0, 62, 0
3, 49517, Note_on_c, 0, 86, 0
3, 49526, Note_on_c, 0, 93, 0
3, 49528, Note_on_c, 0, 58, 0
3, 49532, Note_on_c, 0, 90, 0
3, 49549, Control_c, 0, 64, 0
3, 49562, Control_c, 0, 64, 127
3, 49562, Note_on_c, 0, 58, 57
3, 49562, Note_on_c, 0, 62, 64
3, 49566, Note_on_c, 0, 52, 52
3, 49566, Note_on_c, 0, 95, 57
3, 49567, Note_on_c, 0, 83, 43
3, 49568, Note_on_c, 0, 96, 60
3, 49576, Note_on_c, 0, 96, 0
3, 49579, Note_on_c, 0, 52, 0
3, 49582, Note_on_c, 0, 83, 0
3, 49584, Note_on_c, 0, 62, 0
3, 49590, Note_on_c, 0, 58, 0
3, 49594, Note_on_c, 0, 95, 0
3, 49641, Note_on_c, 0, 58, 61
3, 49642, Note_on_c, 0, 62, 57
3, 49643, Note_on_c, 0, 84, 33
3, 49643, Note_on_c, 0, 52, 60
3, 49646, Note_on_c, 0, 98, 37
3, 49647, Note_on_c, 0, 96, 42
3, 49649, Control_c, 0, 64, 0
3, 49652, Note_on_c, 0, 62, 0
3, 49653, Note_on_c, 0, 52, 0
3, 49654, Note_on_c, 0, 84, 0
3, 49659, Note_on_c, 0, 98, 0
3, 49660, Note_on_c, 0, 96, 0
3, 49662, Note_on_c, 0, 58, 0
3, 49674, Control_c, 0, 64, 127
3, 49723, Note_on_c, 0, 58, 55
3, 49724, Note_on_c, 0, 52, 63
3, 49766, Note_on_c, 0, 58, 0
3, 49806, Note_on_c, 0, 58, 59
3, 49808, Note_on_c, 0, 86, 52
3, 49809, Note_on_c, 0, 93, 60
3, 49811, Note_on_c, 0, 90, 38
3, 49812, Note_on_c, 0, 64, 47
3, 49826, Note_on_c, 0, 64, 0
3, 49826, Note_on_c, 0, 52, 0
3, 49828, Note_on_c, 0, 86, 0
3, 49832, Note_on_c, 0, 90, 0
3, 49840, Note_on_c, 0, 93, 0
3, 49852, Note_on_c, 0, 58, 0
3, 49887, Note_on_c, 0, 58, 64
3, 49889, Note_on_c, 0, 57, 55
3, 49889, Note_on_c, 0, 53, 59
3, 49889, Note_on_c, 0, 62, 66
3, 49892, Note_on_c, 0, 89, 88
3, 49892, Note_on_c, 0, 96, 89
3, 49896, Note_on_c, 0, 84, 62
3, 49905, Note_on_c, 0, 84, 0
3, 49906, Control_c, 0, 64, 0
3, 49938, Control_c, 0, 64, 127
3, 49970, Note_on_c, 0, 96, 0
3, 49982, Note_on_c, 0, 89, 0
3, 49999, Note_on_c, 0, 58, 0
3, 50000, Note_on_c, 0, 62, 0
3, 50008, Note_on_c, 0, 57, 0
3, 50009, Note_on_c, 0, 53, 0
3, 50053, Note_on_c, 0, 62, 60
3, 50053, Note_on_c, 0, 53, 52
3, 50054, Note_on_c, 0, 58, 54
3, 50054, Note_on_c, 0, 81, 55
3, 50055, Note_on_c, 0, 93, 60
3, 50056, Note_on_c, 0, 57, 47
3, 50071, Control_c, 0, 64, 0
3, 50078, Control_c, 0, 64, 127
3, 50097, Note_on_c, 0, 93, 0
3, 50108, Note_on_c, 0, 81, 0
3, 50124, Note_on_c, 0, 62, 0
3, 50127, Note_on_c, 0, 53, 0
3, 50128, Note_on_c, 0, 57, 0
3, 50128, Note_on_c, 0, 58, 0
3, 50157, Control_c, 0, 64, 0
3, 50166, Note_on_c, 0, 58, 53
3, 50166, Note_on_c, 0, 53, 42
3, 50166, Note_on_c, 0, 89, 54
3, 50168, Note_on_c, 0, 62, 48
3, 50170, Note_on_c, 0, 77, 36
3, 50170, Note_on_c, 0, 57, 36
3, 50177, Note_on_c, 0, 84, 26
3, 50180, Note_on_c, 0, 86, 24
3, 50189, Control_c, 0, 64, 127
3, 50194, Note_on_c, 0, 86, 0
3, 50211, Note_on_c, 0, 84, 0
3, 50220, Note_on_c, 0, 77, 0
3, 50226, Note_on_c, 0, 62, 0
3, 50226, Note_on_c, 0, 53, 0
3, 50227, Note_on_c, 0, 57, 0
3, 50230, Note_on_c, 0, 58, 0
3, 50236, Note_on_c, 0, 89, 0
3, 50248, Note_on_c, 0, 77, 36
3, 50251, Note_on_c, 0, 62, 48
3, 50253, Note_on_c, 0, 86, 41
3, 50254, Note_on_c, 0, 58, 44
3, 50258, Note_on_c, 0, 53, 32
3, 50258, Note_on_c, 0, 57, 29
3, 50259, Note_on_c, 0, 77, 0
3, 50264, Control_c, 0, 64, 0
3, 50266, Note_on_c, 0, 62, 0
3, 50270, Note_on_c, 0, 86, 0
3, 50271, Note_on_c, 0, 57, 0
3, 50272, Note_on_c, 0, 53, 0
3, 50279, Note_on_c, 0, 58, 0
3, 50303, Control_c, 0, 64, 127
3, 50355, Control_c, 0, 64, 0
3, 50369, Note_on_c, 0, 93, 63
3, 50370, Note_on_c, 0, 81, 52
3, 50370, Note_on_c, 0, 58, 60
3, 50370, Note_on_c, 0, 62, 64
3, 50373, Note_on_c, 0, 89, 46
3, 50373, Note_on_c, 0, 86, 40
3, 50378, Note_on_c, 0, 52, 41
3, 50379, Note_on_c, 0, 81, 0
3, 50381, Note_on_c, 0, 62, 0
3, 50382, Note_on_c, 0, 89, 0
3, 50383, Note_on_c, 0, 86, 0
3, 50388, Note_on_c, 0, 52, 0
3, 50391, Note_on_c, 0, 58, 0
3, 50395, Note_on_c, 0, 93, 0
3, 50486, Note_on_c, 0, 96, 89
3, 50486, Note_on_c, 0, 58, 79
3, 50487, Note_on_c, 0, 84, 88
3, 50488, Note_on_c, 0, 89, 83
3, 50488, Note_on_c, 0, 93, 80
3, 50488, Note_on_c, 0, 62, 87
3, 50489, Note_on_c, 0, 52, 83
3, 50517, Control_c, 0, 64, 127
3, 50544, Note_on_c, 0, 96, 0
3, 50549, Note_on_c, 0, 93, 0
3, 50553, Note_on_c, 0, 84, 0
3, 50553, Note_on_c, 0, 52, 0
3, 50555, Note_on_c, 0, 89, 0
3, 50565, Note_on_c, 0, 62, 0
3, 50565, Note_on_c, 0, 58, 0
3, 50642, Control_c, 0, 64, 0
3, 50646, Note_on_c, 0, 93, 92
3, 50647, Note_on_c, 0, 88, 90
3, 50648, Note_on_c, 0, 81, 92
3, 50649, Note_on_c, 0, 62, 80
3, 50650, Note_on_c, 0, 67, 87
3, 50651, Note_on_c, 0, 56, 83
3, 50710, Control_c, 0, 64, 127
3, 50766, Note_on_c, 0, 81, 0
3, 50768, Note_on_c, 0, 67, 0
3, 50769, Note_on_c, 0, 62, 0
3, 50781, Note_on_c, 0, 88, 0
3, 50783, Note_on_c, 0, 93, 0
3, 50787, Note_on_c, 0, 56, 0
3, 50882, Note_on_c, 0, 60, 79
3, 50882, Note_on_c, 0, 59, 74
3, 50882, Note_on_c, 0, 64, 85
3, 50883, Note_on_c, 0, 55, 81
3, 50883, Note_on_c, 0, 98, 88
3, 50884, Note_on_c, 0, 91, 85
3, 50884, Note_on_c, 0, 86, 83
3, 50884, Note_on_c, 0, 95, 84
3, 50889, Control_c, 0, 64, 0
3, 50930, Control_c, 0, 64, 127
3, 50938, Note_on_c, 0, 86, 0
3, 50940, Note_on_c, 0, 55, 0
3, 50941, Note_on_c, 0, 98, 0
3, 50941, Note_on_c, 0, 91, 0
3, 50945, Note_on_c, 0, 95, 0
3, 50946, Note_on_c, 0, 64, 0
3, 50947, Note_on_c, 0, 59, 0
3, 50951, Note_on_c, 0, 60, 0
3, 50967, Note_on_c, 0, 64, 62
3, 50967, Note_on_c, 0, 55, 51
3, 50967, Note_on_c, 0, 98, 73
3, 50968, Note_on_c, 0, 60, 64
3, 50970, Note_on_c, 0, 59, 68
3, 50971, Note_on_c, 0, 91, 63
3, 50971, Note_on_c, 0, 86, 66
3, 50973, Note_on_c, 0, 95, 42
3, 50985, Note_on_c, 0, 95, 0
3, 50985, Note_on_c, 0, 86, 0
3, 50988, Note_on_c, 0, 55, 0
3, 50992, Note_on_c, 0, 64, 0
3, 50993, Note_on_c, 0, 98, 0
3, 50993, Control_c, 0, 64, 0
3, 50995, Note_on_c, 0, 60, 0
3, 50996, Note_on_c, 0, 59, 0
3, 50999, Note_on_c, 0, 91, 0
3, 51008, Note_on_c, 0, 55, 44
3, 51010, Note_on_c, 0, 64, 46
3, 51012, Note_on_c, 0, 60, 35
3, 51012, Note_on_c, 0, 96, 54
3, 51012, Note_on_c, 0, 59, 40
3, 51016, Note_on_c, 0, 91, 37
3, 51017, Note_on_c, 0, 84, 31
3, 51044, Control_c, 0, 64, 127
3, 51052, Note_on_c, 0, 84, 0
3, 51054, Note_on_c, 0, 96, 0
3, 51057, Note_on_c, 0, 91, 0
3, 51058, Note_on_c, 0, 55, 0
3, 51061, Note_on_c, 0, 64, 0
3, 51066, Note_on_c, 0, 59, 0
3, 51069, Note_on_c, 0, 60, 0
3, 51080, Control_c, 0, 64, 0
3, 51087, Note_on_c, 0, 64, 47
3, 51088, Note_on_c, 0, 98, 69
3, 51089, Note_on_c, 0, 55, 40
3, 51090, Note_on_c, 0, 91, 40
3, 51090, Note_on_c, 0, 86, 49
3, 51090, Note_on_c, 0, 60, 50
3, 51090, Note_on_c, 0, 59, 48
3, 51098, Note_on_c, 0, 60, 0
3, 51098, Note_on_c, 0, 98, 0
3, 51100, Note_on_c, 0, 86, 0
3, 51100, Note_on_c, 0, 91, 0
3, 51101, Note_on_c, 0, 59, 0
3, 51105, Note_on_c, 0, 64, 0
3, 51108, Note_on_c, 0, 55, 0
3, 51329, Note_on_c, 0, 86, 92
3, 51330, Note_on_c, 0, 64, 66
3, 51330, Note_on_c, 0, 54, 60
3, 51334, Note_on_c, 0, 60, 46
3, 51343, Note_on_c, 0, 60, 0
3, 51354, Note_on_c, 0, 64, 0
3, 51369, Note_on_c, 0, 54, 0
3, 51376, Note_on_c, 0, 86, 0
3, 51376, Note_on_c, 0, 81, 44
3, 51396, Note_on_c, 0, 82, 42
3, 51413, Note_on_c, 0, 82, 0
3, 51417, Note_on_c, 0, 81, 0
3, 51421, Note_on_c, 0, 83, 46
3, 51442, Note_on_c, 0, 83, 0
3, 51443, Note_on_c, 0, 64, 34
3, 51448, Note_on_c, 0, 86, 80
3, 51453, Note_on_c, 0, 60, 35
3, 51457, Note_on_c, 0, 64, 0
3, 51487, Note_on_c, 0, 86, 0
3, 51489, Note_on_c, 0, 60, 0
3, 51493, Note_on_c, 0, 81, 26
3, 51504, Note_on_c, 0, 82, 28
3, 51523, Note_on_c, 0, 81, 0
3, 51547, Note_on_c, 0, 82, 0
3, 51566, Note_on_c, 0, 86, 76
3, 51571, Note_on_c, 0, 64, 33
3, 51572, Note_on_c, 0, 60, 39
3, 51577, Note_on_c, 0, 54, 21
3, 51584, Note_on_c, 0, 64, 0
3, 51591, Note_on_c, 0, 60, 0
3, 51592, Note_on_c, 0, 54, 0
3, 51606, Note_on_c, 0, 74, 46
3, 51608, Note_on_c, 0, 86, 0
3, 51666, Note_on_c, 0, 74, 0
3, 51685, Note_on_c, 0, 74, 58
3, 51697, Note_on_c, 0, 64, 36
3, 51698, Note_on_c, 0, 60, 48
3, 51700, Note_on_c, 0, 74, 0
3, 51700, Note_on_c, 0, 54, 29
3, 51708, Note_on_c, 0, 60, 0
3, 51708, Note_on_c, 0, 64, 0
3, 51716, Note_on_c, 0, 54, 0
3, 51849, Note_on_c, 0, 56, 60
3, 51849, Note_on_c, 0, 60, 64
3, 51850, Note_on_c, 0, 61, 59
3, 51850, Note_on_c, 0, 65, 73
3, 51852, Note_on_c, 0, 72, 67
3, 51852, Note_on_c, 0, 84, 81
3, 51853, Note_on_c, 0, 80, 50
3, 51855, Note_on_c, 0, 77, 55
3, 51858, Note_on_c, 0, 78, 34
3, 51867, Note_on_c, 0, 78, 0
3, 51903, Note_on_c, 0, 84, 0
3, 51919, Note_on_c, 0, 72, 0
3, 51924, Note_on_c, 0, 65, 0
3, 51926, Note_on_c, 0, 56, 0
3, 51930, Note_on_c, 0, 77, 0
3, 51930, Note_on_c, 0, 80, 0
3, 51931, Note_on_c, 0, 60, 0
3, 51940, Note_on_c, 0, 61, 0
3, 51958, Note_on_c, 0, 65, 28
3, 51961, Note_on_c, 0, 61, 39
3, 51962, Note_on_c, 0, 56, 30
3, 51968, Note_on_c, 0, 60, 34
3, 51979, Note_on_c, 0, 77, 54
3, 51979, Note_on_c, 0, 84, 71
3, 51982, Note_on_c, 0, 72, 58
3, 52001, Control_c, 0, 64, 127
3, 52016, Note_on_c, 0, 84, 0
3, 52021, Note_on_c, 0, 72, 0
3, 52025, Note_on_c, 0, 77, 0
3, 52027, Note_on_c, 0, 60, 0
3, 52030, Note_on_c, 0, 56, 0
3, 52038, Note_on_c, 0, 61, 0
3, 52040, Note_on_c, 0, 65, 0
3, 52057, Note_on_c, 0, 82, 51
3, 52059, Note_on_c, 0, 70, 53
3, 52060, Note_on_c, 0, 60, 56
3, 52062, Note_on_c, 0, 61, 52
3, 52063, Control_c, 0, 64, 0
3, 52067, Note_on_c, 0, 82, 0
3, 52069, Note_on_c, 0, 60, 0
3, 52070, Note_on_c, 0, 70, 0
3, 52074, Note_on_c, 0, 61, 0
3, 52094, Note_on_c, 0, 56, 52
3, 52095, Note_on_c, 0, 65, 55
3, 52097, Note_on_c, 0, 84, 62
3, 52098, Note_on_c, 0, 60, 51
3, 52098, Note_on_c, 0, 72, 51
3, 52100, Note_on_c, 0, 77, 39
3, 52102, Control_c, 0, 64, 127
3, 52110, Note_on_c, 0, 60, 0
3, 52116, Note_on_c, 0, 72, 0
3, 52119, Note_on_c, 0, 65, 0
3, 52121, Note_on_c, 0, 84, 0
3, 52123, Note_on_c, 0, 77, 0
3, 52124, Note_on_c, 0, 56, 0
3, 52170, Note_on_c, 0, 78, 64
3, 52172, Note_on_c, 0, 85, 71
3, 52174, Note_on_c, 0, 73, 70
3, 52176, Note_on_c, 0, 60, 68
3, 52178, Note_on_c, 0, 65, 62
3, 52178, Note_on_c, 0, 56, 46
3, 52180, Note_on_c, 0, 61, 36
3, 52185, Note_on_c, 0, 60, 0
3, 52185, Control_c, 0, 64, 0
3, 52186, Note_on_c, 0, 65, 0
3, 52188, Note_on_c, 0, 78, 0
3, 52189, Note_on_c, 0, 56, 0
3, 52192, Note_on_c, 0, 73, 0
3, 52193, Note_on_c, 0, 85, 0
3, 52198, Note_on_c, 0, 61, 0
3, 52217, Note_on_c, 0, 56, 45
3, 52218, Note_on_c, 0, 61, 45
3, 52219, Note_on_c, 0, 84, 33
3, 52220, Note_on_c, 0, 60, 34
3, 52222, Note_on_c, 0, 72, 36
3, 52223, Note_on_c, 0, 65, 37
3, 52232, Control_c, 0, 64, 127
3, 52240, Note_on_c, 0, 84, 0
3, 52246, Note_on_c, 0, 72, 0
3, 52254, Note_on_c, 0, 65, 0
3, 52255, Note_on_c, 0, 60, 0
3, 52265, Note_on_c, 0, 61, 0
3, 52277, Note_on_c, 0, 56, 0
3, 52290, Note_on_c, 0, 82, 46
3, 52297, Note_on_c, 0, 70, 57
3, 52302, Note_on_c, 0, 61, 52
3, 52311, Note_on_c, 0, 70, 0
3, 52315, Note_on_c, 0, 82, 0
3, 52321, Control_c, 0, 64, 0
3, 52322, Note_on_c, 0, 61, 0
3, 52338, Note_on_c, 0, 55, 64
3, 52338, Note_on_c, 0, 65, 47
3, 52339, Note_on_c, 0, 84, 74
3, 52341, Note_on_c, 0, 72, 57
3, 52341, Note_on_c, 0, 61, 59
3, 52342, Note_on_c, 0, 77, 49
3, 52353, Note_on_c, 0, 72, 0
3, 52356, Note_on_c, 0, 77, 0
3, 52362, Note_on_c, 0, 84, 0
3, 52363, Note_on_c, 0, 65, 0
3, 52369, Note_on_c, 0, 55, 0
3, 52379, Note_on_c, 0, 61, 0
3, 52379, Control_c, 0, 64, 127
3, 52405, Control_c, 0, 64, 0
3, 52417, Note_on_c, 0, 78, 33
3, 52418, Note_on_c, 0, 84, 70
3, 52419, Note_on_c, 0, 72, 58
3, 52420, Note_on_c, 0, 61, 59
3, 52420, Note_on_c, 0, 65, 64
3, 52421, Note_on_c, 0, 55, 63
3, 52422, Note_on_c, 0, 77, 54
3, 52426, Note_on_c, 0, 84, 0
3, 52428, Note_on_c, 0, 78, 0
3, 52429, Note_on_c, 0, 65, 0
3, 52430, Note_on_c, 0, 55, 0
3, 52431, Note_on_c, 0, 72, 0
3, 52431, Note_on_c, 0, 77, 0
3, 52446, Note_on_c, 0, 61, 0
3, 52456, Control_c, 0, 64, 127
3, 52533, Note_on_c, 0, 56, 39
3, 52536, Note_on_c, 0, 57, 65
3, 52540, Note_on_c, 0, 69, 66
3, 52543, Note_on_c, 0, 68, 30
3, 52544, Note_on_c, 0, 56, 0
3, 52544, Note_on_c, 0, 70, 76
3, 52549, Note_on_c, 0, 58, 82
3, 52552, Note_on_c, 0, 57, 0
3, 52555, Control_c, 0, 64, 0
3, 52556, Note_on_c, 0, 68, 0
3, 52560, Note_on_c, 0, 69, 0
3, 52603, Note_on_c, 0, 70, 0
3, 52612, Note_on_c, 0, 69, 44
3, 52617, Note_on_c, 0, 58, 0
3, 52623, Note_on_c, 0, 57, 43
3, 52629, Control_c, 0, 64, 127
3, 52635, Note_on_c, 0, 57, 0
3, 52635, Note_on_c, 0, 56, 46
3, 52645, Note_on_c, 0, 68, 45
3, 52661, Note_on_c, 0, 69, 0
3, 52669, Note_on_c, 0, 68, 0
3, 52671, Note_on_c, 0, 54, 34
3, 52673, Note_on_c, 0, 56, 0
3, 52684, Note_on_c, 0, 66, 51
3, 52685, Note_on_c, 0, 54, 0
3, 52688, Control_c, 0, 64, 0
3, 52706, Note_on_c, 0, 53, 48
3, 52712, Note_on_c, 0, 65, 54
3, 52726, Note_on_c, 0, 66, 0
3, 52743, Control_c, 0, 64, 127
3, 52768, Note_on_c, 0, 53, 0
3, 52785, Note_on_c, 0, 70, 81
3, 52802, Note_on_c, 0, 65, 0
3, 52817, Control_c, 0, 64, 0
3, 52819, Note_on_c, 0, 70, 0
3, 52849, Note_on_c, 0, 69, 79
3, 52853, Note_on_c, 0, 55, 63
3, 52856, Note_on_c, 0, 45, 43
3, 52881, Control_c, 0, 64, 127
3, 52892, Control_c, 0, 64, 0
3, 52929, Note_on_c, 0, 45, 0
3, 52931, Control_c, 0, 64, 127
3, 52935, Note_on_c, 0, 60, 54
3, 52941, Note_on_c, 0, 55, 0
3, 52957, Note_on_c, 0, 60, 0
3, 53001, Note_on_c, 0, 69, 0
3, 53015, Note_on_c, 0, 64, 61
3, 53020, Note_on_c, 0, 59, 56
3, 53021, Note_on_c, 0, 55, 42
3, 53021, Note_on_c, 0, 60, 61
3, 53079, Note_on_c, 0, 55, 0
3, 53088, Note_on_c, 0, 64, 0
3, 53088, Note_on_c, 0, 59, 0
3, 53091, Note_on_c, 0, 60, 0
3, 53129, Note_on_c, 0, 69, 74
3, 53131, Note_on_c, 0, 81, 70
3, 53137, Note_on_c, 0, 60, 55
3, 53138, Note_on_c, 0, 69, 0
3, 53140, Note_on_c, 0, 81, 0
3, 53141, Note_on_c, 0, 59, 20
3, 53145, Note_on_c, 0, 60, 0
3, 53150, Control_c, 0, 64, 0
3, 53151, Note_on_c, 0, 59, 0
3, 53168, Note_on_c, 0, 64, 55
3, 53169, Note_on_c, 0, 59, 64
3, 53170, Note_on_c, 0, 84, 83
3, 53170, Note_on_c, 0, 60, 66
3, 53170, Note_on_c, 0, 72, 77
3, 53170, Note_on_c, 0, 55, 60
3, 53180, Control_c, 0, 64, 127
3, 53190, Note_on_c, 0, 72, 0
3, 53197, Note_on_c, 0, 84, 0
3, 53201, Note_on_c, 0, 64, 0
3, 53201, Note_on_c, 0, 59, 0
3, 53204, Note_on_c, 0, 55, 0
3, 53207, Note_on_c, 0, 60, 0
3, 53249, Note_on_c, 0, 87, 86
3, 53250, Note_on_c, 0, 75, 95
3, 53252, Note_on_c, 0, 60, 76
3, 53252, Note_on_c, 0, 54, 81
3, 53253, Note_on_c, 0, 64, 79
3, 53270, Control_c, 0, 64, 0
3, 53272, Note_on_c, 0, 87, 0
3, 53280, Note_on_c, 0, 64, 0
3, 53285, Note_on_c, 0, 75, 0
3, 53289, Note_on_c, 0, 54, 0
3, 53296, Note_on_c, 0, 60, 0
3, 53311, Note_on_c, 0, 85, 36
3, 53313, Note_on_c, 0, 60, 44
3, 53314, Note_on_c, 0, 73, 64
3, 53314, Note_on_c, 0, 64, 54
3, 53316, Note_on_c, 0, 54, 55
3, 53317, Control_c, 0, 64, 127
3, 53330, Note_on_c, 0, 86, 51
3, 53339, Note_on_c, 0, 84, 32
3, 53344, Note_on_c, 0, 73, 0
3, 53344, Note_on_c, 0, 85, 0
3, 53348, Note_on_c, 0, 74, 57
3, 53357, Note_on_c, 0, 84, 0
3, 53364, Note_on_c, 0, 74, 0
3, 53366, Note_on_c, 0, 86, 0
3, 53373, Note_on_c, 0, 64, 0
3, 53381, Note_on_c, 0, 54, 0
3, 53383, Note_on_c, 0, 60, 0
3, 53383, Control_c, 0, 64, 0
3, 53409, Control_c, 0, 64, 127
3, 53415, Note_on_c, 0, 54, 69
3, 53415, Note_on_c, 0, 64, 60
3, 53417, Note_on_c, 0, 81, 67
3, 53418, Note_on_c, 0, 67, 64
3, 53418, Note_on_c, 0, 79, 70
3, 53418, Note_on_c, 0, 60, 62
3, 53419, Note_on_c, 0, 69, 70
3, 53435, Note_on_c, 0, 67, 0
3, 53443, Note_on_c, 0, 79, 0
3, 53482, Note_on_c, 0, 81, 0
3, 53497, Note_on_c, 0, 64, 0
3, 53497, Note_on_c, 0, 54, 0
3, 53497, Note_on_c, 0, 69, 0
3, 53503, Note_on_c, 0, 60, 0
3, 53511, Control_c, 0, 64, 0
3, 53530, Note_on_c, 0, 54, 64
3, 53531, Note_on_c, 0, 82, 74
3, 53531, Note_on_c, 0, 60, 54
3, 53532, Note_on_c, 0, 64, 48
3, 53533, Note_on_c, 0, 70, 70
3, 53537, Control_c, 0, 64, 127
3, 53552, Note_on_c, 0, 64, 0
3, 53562, Note_on_c, 0, 60, 0
3, 53564, Note_on_c, 0, 54, 0
3, 53568, Note_on_c, 0, 70, 0
3, 53578, Note_on_c, 0, 82, 0
3, 53607, Note_on_c, 0, 83, 66
3, 53609, Note_on_c, 0, 71, 64
3, 53611, Note_on_c, 0, 60, 64
3, 53611, Note_on_c, 0, 54, 49
3, 53612, Note_on_c, 0, 64, 47
3, 53613, Note_on_c, 0, 82, 50
3, 53618, Note_on_c, 0, 71, 0
3, 53620, Note_on_c, 0, 60, 0
3, 53621, Note_on_c, 0, 83, 0
3, 53622, Note_on_c, 0, 54, 0
3, 53622, Note_on_c, 0, 82, 0
3, 53622, Note_on_c, 0, 64, 0
3, 53628, Control_c, 0, 64, 0
3, 53647, Note_on_c, 0, 84, 66
3, 53648, Note_on_c, 0, 72, 50
3, 53650, Control_c, 0, 64, 127
3, 53650, Note_on_c, 0, 54, 44
3, 53651, Note_on_c, 0, 60, 62
3, 53652, Note_on_c, 0, 64, 27
3, 53657, Note_on_c, 0, 84, 0
3, 53660, Note_on_c, 0, 72, 0
3, 53665, Note_on_c, 0, 64, 0
3, 53668, Note_on_c, 0, 54, 0
3, 53674, Note_on_c, 0, 60, 0
3, 53722, Note_on_c, 0, 54, 69
3, 53723, Note_on_c, 0, 85, 77
3, 53724, Note_on_c, 0, 73, 79
3, 53724, Note_on_c, 0, 64, 61
3, 53725, Note_on_c, 0, 60, 57
3, 53734, Note_on_c, 0, 60, 0
3, 53734, Note_on_c, 0, 58, 27
3, 53735, Note_on_c, 0, 64, 0
3, 53739, Note_on_c, 0, 73, 0
3, 53741, Note_on_c, 0, 85, 0
3, 53743, Note_on_c, 0, 58, 0
3, 53749, Note_on_c, 0, 54, 0
3, 53764, Control_c, 0, 64, 0
3, 53766, Note_on_c, 0, 85, 30
3, 53768, Note_on_c, 0, 64, 53
3, 53770, Note_on_c, 0, 59, 60
3, 53771, Note_on_c, 0, 73, 56
3, 53771, Note_on_c, 0, 53, 68
3, 53790, Note_on_c, 0, 86, 56
3, 53793, Note_on_c, 0, 85, 0
3, 53794, Note_on_c, 0, 73, 0
3, 53795, Note_on_c, 0, 84, 38
3, 53799, Note_on_c, 0, 74, 63
3, 53840, Note_on_c, 0, 86, 0
3, 53841, Note_on_c, 0, 53, 0
3, 53842, Note_on_c, 0, 74, 0
3, 53851, Note_on_c, 0, 64, 0
3, 53853, Note_on_c, 0, 84, 0
3, 53854, Note_on_c, 0, 59, 0
3, 53885, Note_on_c, 0, 59, 56
3, 53887, Note_on_c, 0, 85, 47
3, 53887, Note_on_c, 0, 73, 67
3, 53889, Note_on_c, 0, 64, 58
3, 53891, Note_on_c, 0, 53, 64
3, 53897, Note_on_c, 0, 86, 46
3, 53905, Note_on_c, 0, 84, 26
3, 53909, Note_on_c, 0, 85, 0
3, 53915, Note_on_c, 0, 73, 0
3, 53918, Note_on_c, 0, 74, 63
3, 53950, Note_on_c, 0, 86, 0
3, 53952, Note_on_c, 0, 74, 0
3, 53958, Note_on_c, 0, 53, 0
3, 53965, Note_on_c, 0, 64, 0
3, 53968, Note_on_c, 0, 84, 0
3, 53972, Note_on_c, 0, 59, 0
3, 54011, Note_on_c, 0, 59, 53
3, 54012, Note_on_c, 0, 73, 45
3, 54014, Note_on_c, 0, 64, 46
3, 54016, Note_on_c, 0, 53, 48
3, 54022, Note_on_c, 0, 86, 41
3, 54024, Note_on_c, 0, 84, 25
3, 54025, Note_on_c, 0, 73, 0
3, 54030, Note_on_c, 0, 74, 45
3, 54035, Note_on_c, 0, 75, 14
3, 54047, Note_on_c, 0, 75, 0
3, 54066, Note_on_c, 0, 84, 0
3, 54076, Note_on_c, 0, 74, 0
3, 54078, Note_on_c, 0, 86, 0
3, 54082, Note_on_c, 0, 53, 0
3, 54086, Note_on_c, 0, 64, 0
3, 54089, Note_on_c, 0, 59, 0
3, 54253, Note_on_c, 0, 74, 37
3, 54255, Note_on_c, 0, 86, 44
3, 54257, Note_on_c, 0, 78, 27
3, 54257, Note_on_c, 0, 69, 46
3, 54258, Note_on_c, 0, 81, 37
3, 54259, Note_on_c, 0, 58, 37
3, 54259, Note_on_c, 0, 64, 44
3, 54271, Control_c, 0, 64, 127
3, 54307, Note_on_c, 0, 58, 0
3, 54307, Note_on_c, 0, 86, 0
3, 54307, Control_c, 0, 64, 0
3, 54309, Note_on_c, 0, 78, 0
3, 54310, Note_on_c, 0, 74, 0
3, 54311, Note_on_c, 0, 81, 0
3, 54312, Note_on_c, 0, 69, 0
3, 54313, Note_on_c, 0, 64, 0
3, 54334, Note_on_c, 0, 74, 54
3, 54337, Note_on_c, 0, 86, 43
3, 54337, Note_on_c, 0, 78, 39
3, 54339, Note_on_c, 0, 69, 39
3, 54339, Note_on_c, 0, 64, 44
3, 54339, Note_on_c, 0, 81, 39
3, 54340, Note_on_c, 0, 58, 23
3, 54348, Note_on_c, 0, 78, 0
3, 54348, Note_on_c, 0, 74, 0
3, 54349, Note_on_c, 0, 81, 0
3, 54351, Note_on_c, 0, 69, 0
3, 54353, Note_on_c, 0, 86, 0
3, 54354, Note_on_c, 0, 64, 0
3, 54355, Note_on_c, 0, 58, 0
3, 54490, Control_c, 0, 64, 127
3, 54591, Control_c, 0, 64, 0
3, 54612, Note_on_c, 0, 56, 76
3, 54613, Note_on_c, 0, 62, 74
3, 54613, Note_on_c, 0, 67, 80
3, 54613, Note_on_c, 0, 86, 89
3, 54613, Note_on_c, 0, 82, 87
3, 54615, Note_on_c, 0, 74, 96
3, 54652, Note_on_c, 0, 74, 0
3, 54656, Note_on_c, 0, 82, 0
3, 54657, Note_on_c, 0, 56, 0
3, 54663, Note_on_c, 0, 86, 0
3, 54663, Note_on_c, 0, 67, 0
3, 54675, Control_c, 0, 64, 127
3, 54677, Note_on_c, 0, 62, 0
3, 54694, Note_on_c, 0, 62, 49
3, 54694, Note_on_c, 0, 56, 60
3, 54696, Note_on_c, 0, 67, 30
3, 54698, Note_on_c, 0, 86, 75
3, 54699, Note_on_c, 0, 82, 71
3, 54700, Note_on_c, 0, 74, 73
3, 54709, Note_on_c, 0, 67, 0
3, 54718, Note_on_c, 0, 62, 0
3, 54720, Note_on_c, 0, 74, 0
3, 54721, Note_on_c, 0, 86, 0
3, 54727, Note_on_c, 0, 82, 0
3, 54732, Note_on_c, 0, 56, 0
3, 54744, Note_on_c, 0, 65, 56
3, 54745, Note_on_c, 0, 60, 46
3, 54745, Note_on_c, 0, 84, 62
3, 54748, Control_c, 0, 64, 0
3, 54749, Note_on_c, 0, 72, 58
3, 54754, Note_on_c, 0, 61, 34
3, 54755, Note_on_c, 0, 55, 41
3, 54758, Note_on_c, 0, 81, 24
3, 54790, Note_on_c, 0, 55, 0
3, 54796, Note_on_c, 0, 84, 0
3, 54799, Control_c, 0, 64, 127
3, 54800, Note_on_c, 0, 72, 0
3, 54801, Note_on_c, 0, 65, 0
3, 54804, Note_on_c, 0, 60, 0
3, 54805, Note_on_c, 0, 61, 0
3, 54805, Note_on_c, 0, 81, 0
3, 54825, Note_on_c, 0, 65, 48
3, 54826, Control_c, 0, 64, 0
3, 54829, Note_on_c, 0, 84, 46
3, 54829, Note_on_c, 0, 61, 30
3, 54829, Note_on_c, 0, 72, 33
3, 54836, Note_on_c, 0, 60, 27
3, 54838, Note_on_c, 0, 65, 0
3, 54839, Note_on_c, 0, 72, 0
3, 54844, Note_on_c, 0, 60, 0
3, 54846, Note_on_c, 0, 61, 0
3, 54852, Note_on_c, 0, 84, 0
3, 54948, Note_on_c, 0, 61, 68
3, 54949, Note_on_c, 0, 60, 71
3, 54950, Note_on_c, 0, 65, 73
3, 54950, Note_on_c, 0, 86, 80
3, 54952, Note_on_c, 0, 74, 82
3, 54953, Note_on_c, 0, 79, 70
3, 54954, Note_on_c, 0, 83, 67
3, 54957, Note_on_c, 0, 55, 52
3, 54957, Note_on_c, 0, 58, 32
3, 54967, Note_on_c, 0, 55, 0
3, 54982, Note_on_c, 0, 79, 0
3, 54983, Note_on_c, 0, 74, 0
3, 54985, Note_on_c, 0, 83, 0
3, 54990, Note_on_c, 0, 65, 0
3, 54991, Note_on_c, 0, 60, 0
3, 54993, Note_on_c, 0, 86, 0
3, 54996, Note_on_c, 0, 58, 0
3, 55000, Control_c, 0, 64, 127
3, 55001, Note_on_c, 0, 61, 0
3, 55020, Note_on_c, 0, 61, 48
3, 55021, Note_on_c, 0, 86, 64
3, 55024, Note_on_c, 0, 65, 57
3, 55024, Note_on_c, 0, 60, 54
3, 55026, Note_on_c, 0, 74, 62
3, 55026, Note_on_c, 0, 79, 50
3, 55028, Note_on_c, 0, 83, 50
3, 55030, Note_on_c, 0, 55, 48
3, 55050, Note_on_c, 0, 83, 0
3, 55055, Note_on_c, 0, 86, 0
3, 55055, Note_on_c, 0, 74, 0
3, 55056, Note_on_c, 0, 55, 0
3, 55057, Note_on_c, 0, 65, 0
3, 55068, Note_on_c, 0, 79, 0
3, 55069, Note_on_c, 0, 60, 0
3, 55076, Note_on_c, 0, 61, 0
3, 55081, Control_c, 0, 64, 0
3, 55103, Note_on_c, 0, 61, 42
3, 55105, Note_on_c, 0, 85, 62
3, 55108, Note_on_c, 0, 60, 35
3, 55108, Note_on_c, 0, 73, 52
3, 55109, Note_on_c, 0, 65, 50
3, 55115, Control_c, 0, 64, 127
3, 55117, Note_on_c, 0, 55, 28
3, 55119, Note_on_c, 0, 79, 24
3, 55121, Note_on_c, 0, 65, 0
3, 55128, Note_on_c, 0, 79, 0
3, 55131, Note_on_c, 0, 55, 0
3, 55133, Note_on_c, 0, 60, 0
3, 55147, Note_on_c, 0, 61, 0
3, 55147, Note_on_c, 0, 85, 0
3, 55147, Note_on_c, 0, 73, 0
3, 55184, Note_on_c, 0, 74, 58
3, 55185, Note_on_c, 0, 86, 65
3, 55185, Control_c, 0, 64, 0
3, 55186, Note_on_c, 0, 78, 47
3, 55186, Note_on_c, 0, 81, 59
3, 55188, Note_on_c, 0, 54, 60
3, 55191, Note_on_c, 0, 64, 45
3, 55191, Note_on_c, 0, 60, 53
3, 55250, Control_c, 0, 64, 127
3, 55345, Note_on_c, 0, 54, 0
3, 55359, Note_on_c, 0, 64, 0
3, 55373, Note_on_c, 0, 60, 0
3, 55406, Note_on_c, 0, 74, 0
3, 55409, Note_on_c, 0, 78, 0
3, 55424, Note_on_c, 0, 81, 0
3, 55431, Note_on_c, 0, 86, 0
3, 55527, Control_c, 0, 64, 0
3, 55530, Note_on_c, 0, 64, 66
3, 55530, Note_on_c, 0, 60, 66
3, 55531, Note_on_c, 0, 54, 56
3, 55533, Note_on_c, 0, 98, 87
3, 55652, Note_on_c, 0, 60, 0
3, 55654, Note_on_c, 0, 64, 0
3, 55655, Note_on_c, 0, 98, 0
3, 55671, Note_on_c, 0, 54, 0
3, 55681, Note_on_c, 0, 92, 67
3, 55682, Note_on_c, 0, 64, 33
3, 55684, Note_on_c, 0, 59, 53
3, 55686, Note_on_c, 0, 53, 44
3, 55707, Note_on_c, 0, 93, 57
3, 55725, Note_on_c, 0, 92, 0
3, 55771, Note_on_c, 0, 93, 0
3, 55780, Note_on_c, 0, 86, 20
3, 55789, Note_on_c, 0, 86, 0
3, 55809, Note_on_c, 0, 89, 77
3, 55872, Note_on_c, 0, 89, 0
3, 55885, Note_on_c, 0, 64, 0
3, 55885, Note_on_c, 0, 53, 0
3, 55887, Note_on_c, 0, 59, 0
3, 56001, Note_on_c, 0, 59, 56
3, 56005, Note_on_c, 0, 64, 30
3, 56008, Note_on_c, 0, 53, 33
3, 56017, Note_on_c, 0, 64, 0
3, 56029, Note_on_c, 0, 59, 0
3, 56032, Note_on_c, 0, 53, 0
3, 56166, Note_on_c, 0, 62, 37
3, 56168, Note_on_c, 0, 58, 38
3, 56169, Note_on_c, 0, 52, 43
3, 56202, Note_on_c, 0, 62, 0
3, 56205, Note_on_c, 0, 58, 0
3, 56209, Note_on_c, 0, 52, 0
3, 56285, Note_on_c, 0, 86, 85
3, 56287, Note_on_c, 0, 74, 85
3, 56316, Control_c, 0, 64, 127
3, 56340, Note_on_c, 0, 86, 0
3, 56346, Note_on_c, 0, 74, 0
3, 56373, Note_on_c, 0, 58, 48
3, 56379, Control_c, 0, 64, 0
3, 56387, Note_on_c, 0, 52, 30
3, 56391, Note_on_c, 0, 58, 0
3, 56402, Note_on_c, 0, 52, 0
3, 56409, Note_on_c, 0, 84, 77
3, 56410, Note_on_c, 0, 72, 71
3, 56444, Control_c, 0, 64, 127
3, 56449, Note_on_c, 0, 72, 0
3, 56450, Note_on_c, 0, 84, 0
3, 56487, Note_on_c, 0, 48, 80
3, 56489, Note_on_c, 0, 86, 77
3, 56492, Note_on_c, 0, 47, 67
3, 56498, Control_c, 0, 64, 0
3, 56499, Note_on_c, 0, 47, 0
3, 56521, Note_on_c, 0, 86, 0
3, 56546, Note_on_c, 0, 84, 55
3, 56572, Note_on_c, 0, 84, 0
3, 56612, Note_on_c, 0, 80, 71
3, 56638, Note_on_c, 0, 80, 0
3, 56664, Note_on_c, 0, 79, 58
3, 56716, Note_on_c, 0, 79, 0
3, 56733, Note_on_c, 0, 74, 56
3, 56747, Note_on_c, 0, 74, 0
3, 56780, Note_on_c, 0, 77, 80
3, 56823, Note_on_c, 0, 77, 0
3, 56853, Note_on_c, 0, 79, 43
3, 56862, Note_on_c, 0, 77, 60
3, 56864, Note_on_c, 0, 79, 0
3, 56903, Note_on_c, 0, 77, 0
3, 56907, Note_on_c, 0, 74, 22
3, 56927, Note_on_c, 0, 74, 0
3, 56973, Note_on_c, 0, 72, 85
3, 57043, Note_on_c, 0, 72, 0
3, 57068, Note_on_c, 0, 74, 50
3, 57083, Note_on_c, 0, 72, 53
3, 57096, Note_on_c, 0, 48, 0
3, 57100, Note_on_c, 0, 74, 0
3, 57107, Note_on_c, 0, 72, 0
3, 57116, Note_on_c, 0, 69, 60
3, 57123, Note_on_c, 0, 69, 0
3, 57142, Note_on_c, 0, 48, 37
3, 57147, Note_on_c, 0, 67, 85
3, 57205, Note_on_c, 0, 67, 0
3, 57218, Note_on_c, 0, 69, 54
3, 57230, Note_on_c, 0, 67, 38
3, 57242, Note_on_c, 0, 69, 0
3, 57267, Note_on_c, 0, 67, 0
3, 57272, Note_on_c, 0, 65, 45
3, 57300, Note_on_c, 0, 65, 0
3, 57302, Note_on_c, 0, 48, 0
3, 57329, Note_on_c, 0, 47, 66
3, 57331, Note_on_c, 0, 62, 71
3, 57332, Note_on_c, 0, 48, 62
3, 57352, Note_on_c, 0, 47, 0
3, 57385, Note_on_c, 0, 62, 0
3, 57396, Note_on_c, 0, 65, 44
3, 57434, Note_on_c, 0, 62, 32
3, 57448, Note_on_c, 0, 65, 0
3, 57462, Note_on_c, 0, 62, 0
3, 57462, Note_on_c, 0, 60, 69
3, 57462, Note_on_c, 0, 50, 46
3, 57482, Note_on_c, 0, 60, 0
3, 57501, Note_on_c, 0, 48, 0
3, 57505, Note_on_c, 0, 59, 49
3, 57515, Note_on_c, 0, 50, 0
3, 57547, Note_on_c, 0, 59, 0
3, 57575, Note_on_c, 0, 58, 75
3, 57603, Note_on_c, 0, 58, 0
3, 57851, Note_on_c, 0, 72, 73
3, 57883, Note_on_c, 0, 72, 0
3, 57971, Note_on_c, 0, 69, 50
3, 58036, Note_on_c, 0, 69, 0
3, 58087, Note_on_c, 0, 65, 32
3, 58089, Note_on_c, 0, 62, 19
3, 58092, Note_on_c, 0, 58, 28
3, 58093, Note_on_c, 0, 57, 24
3, 58114, Control_c, 0, 64, 127
3, 58223, Note_on_c, 0, 62, 0
3, 58236, Note_on_c, 0, 57, 0
3, 58240, Note_on_c, 0, 58, 0
3, 58277, Note_on_c, 0, 65, 0
3, 58293, Note_on_c, 0, 62, 35
3, 58301, Note_on_c, 0, 57, 36
3, 58304, Note_on_c, 0, 58, 21
3, 58304, Control_c, 0, 64, 0
3, 58364, Control_c, 0, 64, 127
3, 58402, Note_on_c, 0, 62, 0
3, 58486, Note_on_c, 0, 57, 0
3, 58525, Note_on_c, 0, 58, 0
3, 58577, Note_on_c, 0, 81, 91
3, 58580, Note_on_c, 0, 58, 63
3, 58580, Note_on_c, 0, 74, 91
3, 58582, Note_on_c, 0, 64, 62
3, 58583, Control_c, 0, 64, 0
3, 58635, Note_on_c, 0, 64, 0
3, 58636, Note_on_c, 0, 74, 0
3, 58637, Note_on_c, 0, 81, 0
3, 58639, Note_on_c, 0, 58, 0
3, 58696, Note_on_c, 0, 58, 49
3, 58697, Note_on_c, 0, 64, 44
3, 58698, Note_on_c, 0, 78, 67
3, 58704, Control_c, 0, 64, 127
3, 58704, Note_on_c, 0, 69, 53
3, 58735, Note_on_c, 0, 78, 0
3, 58761, Note_on_c, 0, 69, 0
3, 58766, Note_on_c, 0, 58, 0
3, 58770, Note_on_c, 0, 64, 0
3, 58810, Control_c, 0, 64, 0
3, 58816, Note_on_c, 0, 66, 47
3, 58818, Note_on_c, 0, 74, 48
3, 58818, Note_on_c, 0, 58, 43
3, 58820, Note_on_c, 0, 64, 40
3, 58838, Control_c, 0, 64, 127
3, 58952, Note_on_c, 0, 64, 0
3, 58968, Note_on_c, 0, 66, 0
3, 58987, Note_on_c, 0, 58, 0
3, 59002, Note_on_c, 0, 74, 0
3, 59022, Note_on_c, 0, 66, 44
3, 59022, Note_on_c, 0, 62, 44
3, 59028, Note_on_c, 0, 58, 30
3, 59040, Control_c, 0, 64, 0
3, 59120, Control_c, 0, 64, 127
3, 59148, Note_on_c, 0, 62, 0
3, 59168, Control_c, 0, 64, 0
3, 59172, Note_on_c, 0, 66, 0
3, 59192, Control_c, 0, 64, 127
3, 59234, Note_on_c, 0, 58, 0
3, 59250, Note_on_c, 0, 62, 38
3, 59253, Note_on_c, 0, 66, 46
3, 59255, Note_on_c, 0, 58, 33
3, 59262, Note_on_c, 0, 66, 0
3, 59262, Note_on_c, 0, 62, 0
3, 59262, Control_c, 0, 64, 0
3, 59272, Note_on_c, 0, 58, 0
3, 59423, Control_c, 0, 64, 127
3, 59517, Control_c, 0, 64, 0
3, 59524, Note_on_c, 0, 69, 66
3, 59525, Note_on_c, 0, 57, 54
3, 59525, Note_on_c, 0, 58, 53
3, 59525, Note_on_c, 0, 62, 62
3, 59601, Note_on_c, 0, 69, 0
3, 59603, Note_on_c, 0, 58, 0
3, 59606, Note_on_c, 0, 62, 0
3, 59609, Note_on_c, 0, 57, 0
3, 59620, Note_on_c, 0, 55, 46
3, 59630, Note_on_c, 0, 55, 0
3, 59643, Note_on_c, 0, 69, 49
3, 59645, Note_on_c, 0, 57, 44
3, 59645, Note_on_c, 0, 58, 27
3, 59648, Note_on_c, 0, 62, 40
3, 59690, Control_c, 0, 64, 127
3, 59699, Note_on_c, 0, 58, 0
3, 59703, Note_on_c, 0, 62, 0
3, 59711, Note_on_c, 0, 69, 0
3, 59725, Note_on_c, 0, 57, 0
3, 59733, Control_c, 0, 64, 0
3, 59734, Note_on_c, 0, 62, 44
3, 59737, Note_on_c, 0, 67, 34
3, 59740, Note_on_c, 0, 55, 35
3, 59744, Note_on_c, 0, 62, 0
3, 59748, Note_on_c, 0, 67, 0
3, 59815, Note_on_c, 0, 55, 0
3, 59830, Control_c, 0, 64, 127
3, 59850, Note_on_c, 0, 58, 39
3, 59851, Note_on_c, 0, 62, 52
3, 59856, Control_c, 0, 64, 0
3, 59856, Note_on_c, 0, 50, 36
3, 59862, Note_on_c, 0, 58, 0
3, 59864, Note_on_c, 0, 62, 0
3, 59868, Note_on_c, 0, 50, 0
3, 59928, Control_c, 0, 64, 127
3, 59976, Control_c, 0, 64, 0
3, 60000, Control_c, 0, 64, 127
3, 60090, Note_on_c, 0, 62, 29
3, 60091, Note_on_c, 0, 65, 34
3, 60098, Note_on_c, 0, 57, 25
3, 60108, Control_c, 0, 64, 0
3, 60132, Note_on_c, 0, 69, 48
3, 60162, Note_on_c, 0, 69, 0
3, 60166, Note_on_c, 0, 71, 67
3, 60186, Note_on_c, 0, 71, 0
3, 60199, Note_on_c, 0, 71, 72
3, 60221, Note_on_c, 0, 71, 0
3, 60231, Note_on_c, 0, 72, 69
3, 60242, Note_on_c, 0, 57, 0
3, 60249, Note_on_c, 0, 62, 0
3, 60250, Note_on_c, 0, 65, 0
3, 60250, Note_on_c, 0, 72, 0
3, 60270, Note_on_c, 0, 72, 33
3, 60288, Note_on_c, 0, 72, 0
3, 60296, Control_c, 0, 64, 127
3, 60320, Control_c, 0, 64, 0
3, 60337, Note_on_c, 0, 74, 70
3, 60344, Note_on_c, 0, 67, 29
3, 60345, Note_on_c, 0, 62, 38
3, 60348, Note_on_c, 0, 56, 27
3, 60378, Note_on_c, 0, 74, 0
3, 60386, Note_on_c, 0, 67, 0
3, 60391, Note_on_c, 0, 62, 0
3, 60391, Note_on_c, 0, 75, 62
3, 60395, Control_c, 0, 64, 127
3, 60414, Note_on_c, 0, 75, 0
3, 60436, Note_on_c, 0, 56, 0
3, 60455, Note_on_c, 0, 76, 74
3, 60464, Note_on_c, 0, 64, 32
3, 60470, Note_on_c, 0, 55, 30
3, 60470, Note_on_c, 0, 60, 36
3, 60470, Note_on_c, 0, 59, 30
3, 60472, Control_c, 0, 64, 0
3, 60483, Note_on_c, 0, 60, 0
3, 60485, Note_on_c, 0, 59, 0
3, 60498, Note_on_c, 0, 76, 0
3, 60498, Control_c, 0, 64, 127
3, 60516, Note_on_c, 0, 79, 58
3, 60524, Note_on_c, 0, 64, 0
3, 60529, Note_on_c, 0, 55, 0
3, 60543, Note_on_c, 0, 79, 0
3, 60578, Note_on_c, 0, 83, 81
3, 60580, Note_on_c, 0, 60, 56
3, 60580, Note_on_c, 0, 64, 41
3, 60585, Note_on_c, 0, 59, 38
3, 60590, Control_c, 0, 64, 0
3, 60592, Note_on_c, 0, 64, 0
3, 60594, Note_on_c, 0, 59, 0
3, 60602, Note_on_c, 0, 83, 0
3, 60604, Note_on_c, 0, 60, 0
3, 60612, Note_on_c, 0, 55, 32
3, 60614, Note_on_c, 0, 74, 77
3, 60614, Note_on_c, 0, 86, 82
3, 60616, Note_on_c, 0, 60, 34
3, 60617, Note_on_c, 0, 64, 49
3, 60618, Note_on_c, 0, 59, 42
3, 60628, Control_c, 0, 64, 127
3, 60665, Note_on_c, 0, 55, 0
3, 60673, Note_on_c, 0, 86, 0
3, 60676, Note_on_c, 0, 64, 0
3, 60676, Note_on_c, 0, 59, 0
3, 60681, Note_on_c, 0, 60, 0
3, 60682, Note_on_c, 0, 74, 0
3, 60696, Note_on_c, 0, 86, 63
3, 60698, Note_on_c, 0, 74, 76
3, 60701, Note_on_c, 0, 64, 46
3, 60702, Note_on_c, 0, 60, 57
3, 60703, Note_on_c, 0, 59, 53
3, 60706, Note_on_c, 0, 55, 50
3, 60715, Note_on_c, 0, 59, 0
3, 60719, Note_on_c, 0, 74, 0
3, 60719, Control_c, 0, 64, 0
3, 60722, Note_on_c, 0, 86, 0
3, 60722, Note_on_c, 0, 64, 0
3, 60726, Note_on_c, 0, 60, 0
3, 60738, Note_on_c, 0, 64, 39
3, 60739, Note_on_c, 0, 60, 24
3, 60741, Note_on_c, 0, 86, 57
3, 60741, Note_on_c, 0, 74, 47
3, 60741, Note_on_c, 0, 59, 19
3, 60758, Control_c, 0, 64, 127
3, 60782, Note_on_c, 0, 55, 0
3, 60784, Note_on_c, 0, 74, 0
3, 60784, Note_on_c, 0, 64, 0
3, 60787, Note_on_c, 0, 86, 0
3, 60789, Note_on_c, 0, 59, 0
3, 60794, Note_on_c, 0, 60, 0
3, 60817, Note_on_c, 0, 88, 74
3, 60818, Note_on_c, 0, 76, 66
3, 60823, Note_on_c, 0, 60, 51
3, 60826, Note_on_c, 0, 59, 34
3, 60826, Note_on_c, 0, 64, 40
3, 60833, Note_on_c, 0, 76, 0
3, 60835, Control_c, 0, 64, 0
3, 60837, Note_on_c, 0, 88, 0
3, 60838, Note_on_c, 0, 64, 0
3, 60849, Note_on_c, 0, 55, 6
3, 60855, Note_on_c, 0, 64, 26
3, 60857, Note_on_c, 0, 86, 45
3, 60863, Note_on_c, 0, 74, 26
3, 60869, Control_c, 0, 64, 127
3, 60908, Note_on_c, 0, 86, 0
3, 60913, Note_on_c, 0, 59, 0
3, 60914, Note_on_c, 0, 64, 0
3, 60923, Note_on_c, 0, 74, 0
3, 60924, Note_on_c, 0, 60, 0
3, 60924, Note_on_c, 0, 55, 0
3, 60975, Control_c, 0, 64, 0
3, 60980, Note_on_c, 0, 71, 45
3, 60980, Note_on_c, 0, 83, 55
3, 60982, Note_on_c, 0, 54, 36
3, 60984, Note_on_c, 0, 64, 29
3, 60989, Note_on_c, 0, 60, 33
3, 61029, Note_on_c, 0, 83, 0
3, 61030, Note_on_c, 0, 60, 0
3, 61036, Note_on_c, 0, 64, 0
3, 61039, Note_on_c, 0, 54, 0
3, 61043, Note_on_c, 0, 71, 0
3, 61092, Note_on_c, 0, 82, 54
3, 61100, Note_on_c, 0, 70, 46
3, 61102, Note_on_c, 0, 54, 31
3, 61107, Note_on_c, 0, 64, 17
3, 61107, Note_on_c, 0, 60, 27
3, 61129, Control_c, 0, 64, 127
3, 61148, Note_on_c, 0, 60, 0
3, 61152, Note_on_c, 0, 64, 0
3, 61154, Note_on_c, 0, 54, 0
3, 61159, Note_on_c, 0, 82, 0
3, 61160, Control_c, 0, 64, 0
3, 61173, Note_on_c, 0, 70, 0
3, 61212, Note_on_c, 0, 54, 31
3, 61214, Note_on_c, 0, 81, 59
3, 61216, Note_on_c, 0, 60, 32
3, 61217, Note_on_c, 0, 64, 20
3, 61218, Control_c, 0, 64, 127
3, 61226, Note_on_c, 0, 69, 17
3, 61247, Note_on_c, 0, 69, 0
3, 61266, Note_on_c, 0, 60, 0
3, 61283, Note_on_c, 0, 64, 0
3, 61286, Note_on_c, 0, 81, 0
3, 61310, Note_on_c, 0, 54, 0
3, 61324, Control_c, 0, 64, 0
3, 61326, Note_on_c, 0, 80, 67
3, 61327, Note_on_c, 0, 54, 29
3, 61329, Note_on_c, 0, 68, 69
3, 61332, Note_on_c, 0, 64, 47
3, 61333, Note_on_c, 0, 60, 49
3, 61365, Control_c, 0, 64, 127
3, 61371, Note_on_c, 0, 60, 0
3, 61387, Note_on_c, 0, 54, 0
3, 61408, Note_on_c, 0, 80, 0
3, 61410, Note_on_c, 0, 68, 0
3, 61411, Note_on_c, 0, 64, 0
3, 61434, Control_c, 0, 64, 0
3, 61449, Note_on_c, 0, 65, 26
3, 61449, Note_on_c, 0, 79, 54
3, 61452, Note_on_c, 0, 56, 25
3, 61456, Note_on_c, 0, 61, 32
3, 61458, Note_on_c, 0, 67, 31
3, 61475, Control_c, 0, 64, 127
3, 61495, Note_on_c, 0, 79, 0
3, 61510, Note_on_c, 0, 67, 0
3, 61511, Note_on_c, 0, 65, 0
3, 61512, Note_on_c, 0, 61, 0
3, 61513, Note_on_c, 0, 56, 0
3, 61545, Control_c, 0, 64, 0
3, 61567, Note_on_c, 0, 65, 38
3, 61569, Note_on_c, 0, 66, 53
3, 61570, Note_on_c, 0, 78, 43
3, 61572, Note_on_c, 0, 61, 33
3, 61573, Note_on_c, 0, 56, 27
3, 61574, Control_c, 0, 64, 127
3, 61600, Note_on_c, 0, 65, 0
3, 61616, Note_on_c, 0, 61, 0
3, 61619, Note_on_c, 0, 56, 0
3, 61621, Note_on_c, 0, 78, 0
3, 61633, Note_on_c, 0, 66, 0
3, 61658, Note_on_c, 0, 65, 39
3, 61660, Note_on_c, 0, 77, 31
3, 61663, Note_on_c, 0, 61, 31
3, 61665, Note_on_c, 0, 56, 31
3, 61668, Control_c, 0, 64, 0
3, 61705, Control_c, 0, 64, 127
3, 61735, Note_on_c, 0, 56, 0
3, 61810, Control_c, 0, 64, 0
3, 61812, Note_on_c, 0, 61, 0
3, 61814, Note_on_c, 0, 65, 0
3, 61822, Control_c, 0, 64, 127
3, 61928, Control_c, 0, 64, 0
3, 61938, Note_on_c, 0, 61, 23
3, 61938, Note_on_c, 0, 65, 27
3, 61944, Note_on_c, 0, 60, 25
3, 61945, Note_on_c, 0, 55, 24
3, 61956, Note_on_c, 0, 60, 0
3, 61960, Note_on_c, 0, 65, 0
3, 61965, Note_on_c, 0, 55, 0
3, 61966, Note_on_c, 0, 61, 0
3, 62050, Control_c, 0, 64, 127
3, 62079, Note_on_c, 0, 77, 0
3, 62127, Control_c, 0, 64, 0
3, 62133, Note_on_c, 0, 61, 34
3, 62135, Note_on_c, 0, 65, 37
3, 62136, Note_on_c, 0, 60, 31
3, 62148, Note_on_c, 0, 65, 0
3, 62152, Note_on_c, 0, 60, 0
3, 62154, Note_on_c, 0, 61, 0
3, 62293, Note_on_c, 0, 84, 92
3, 62329, Control_c, 0, 64, 127
3, 62356, Note_on_c, 0, 84, 0
3, 62376, Note_on_c, 0, 85, 81
3, 62378, Note_on_c, 0, 63, 52
3, 62379, Note_on_c, 0, 56, 47
3, 62380, Note_on_c, 0, 61, 47
3, 62387, Control_c, 0, 64, 0
3, 62423, Note_on_c, 0, 85, 0
3, 62457, Note_on_c, 0, 84, 76
3, 62476, Control_c, 0, 64, 127
3, 62496, Note_on_c, 0, 84, 0
3, 62498, Control_c, 0, 64, 0
3, 62541, Control_c, 0, 64, 127
3, 62541, Note_on_c, 0, 84, 74
3, 62559, Note_on_c, 0, 63, 0
3, 62562, Note_on_c, 0, 61, 0
3, 62572, Note_on_c, 0, 56, 0
3, 62580, Note_on_c, 0, 84, 0
3, 62619, Note_on_c, 0, 63, 55
3, 62620, Control_c, 0, 64, 0
3, 62622, Note_on_c, 0, 61, 48
3, 62625, Note_on_c, 0, 56, 37
3, 62683, Control_c, 0, 64, 127
3, 62716, Note_on_c, 0, 84, 92
3, 62735, Note_on_c, 0, 56, 0
3, 62752, Note_on_c, 0, 84, 0
3, 62752, Note_on_c, 0, 85, 62
3, 62763, Note_on_c, 0, 56, 32
3, 62772, Note_on_c, 0, 84, 58
3, 62777, Note_on_c, 0, 85, 0
3, 62779, Control_c, 0, 64, 0
3, 62804, Note_on_c, 0, 84, 0
3, 62804, Note_on_c, 0, 82, 49
3, 62819, Note_on_c, 0, 82, 0
3, 62842, Note_on_c, 0, 63, 0
3, 62854, Note_on_c, 0, 56, 0
3, 62859, Note_on_c, 0, 61, 0
3, 62875, Note_on_c, 0, 84, 108
3, 62881, Note_on_c, 0, 61, 44
3, 62884, Note_on_c, 0, 60, 65
3, 62890, Note_on_c, 0, 55, 46
3, 62943, Note_on_c, 0, 84, 0
3, 62947, Note_on_c, 0, 85, 49
3, 62969, Note_on_c, 0, 84, 47
3, 62973, Note_on_c, 0, 85, 0
3, 63001, Note_on_c, 0, 82, 61
3, 63002, Note_on_c, 0, 84, 0
3, 63020, Note_on_c, 0, 82, 0
3, 63031, Note_on_c, 0, 61, 0
3, 63046, Note_on_c, 0, 84, 94
3, 63054, Note_on_c, 0, 55, 0
3, 63082, Note_on_c, 0, 60, 0
3, 63091, Note_on_c, 0, 84, 0
3, 63102, Note_on_c, 0, 85, 60
3, 63109, Note_on_c, 0, 60, 34
3, 63110, Note_on_c, 0, 61, 44
3, 63112, Note_on_c, 0, 84, 58
3, 63122, Note_on_c, 0, 55, 25
3, 63125, Note_on_c, 0, 85, 0
3, 63129, Note_on_c, 0, 61, 0
3, 63133, Note_on_c, 0, 55, 0
3, 63149, Note_on_c, 0, 84, 0
3, 63154, Note_on_c, 0, 82, 57
3, 63159, Control_c, 0, 64, 127
3, 63174, Note_on_c, 0, 60, 0
3, 63201, Note_on_c, 0, 82, 0
3, 63220, Note_on_c, 0, 61, 64
3, 63221, Note_on_c, 0, 60, 65
3, 63227, Note_on_c, 0, 84, 55
3, 63230, Note_on_c, 0, 55, 37
3, 63231, Note_on_c, 0, 83, 33
3, 63234, Control_c, 0, 64, 0
3, 63241, Note_on_c, 0, 83, 0
3, 63251, Note_on_c, 0, 55, 0
3, 63254, Note_on_c, 0, 60, 0
3, 63258, Note_on_c, 0, 61, 0
3, 63277, Note_on_c, 0, 84, 0
3, 63283, Note_on_c, 0, 86, 60
3, 63301, Control_c, 0, 64, 127
3, 63324, Note_on_c, 0, 86, 0
3, 63342, Note_on_c, 0, 87, 62
3, 63361, Control_c, 0, 64, 0
3, 63370, Note_on_c, 0, 87, 0
3, 63396, Note_on_c, 0, 88, 46
3, 63420, Control_c, 0, 64, 127
3, 63444, Note_on_c, 0, 88, 0
3, 63458, Note_on_c, 0, 89, 68
3, 63461, Note_on_c, 0, 77, 40
3, 63480, Note_on_c, 0, 77, 0
3, 63482, Control_c, 0, 64, 0
3, 63483, Note_on_c, 0, 89, 0
3, 63511, Note_on_c, 0, 89, 38
3, 63516, Note_on_c, 0, 77, 20
3, 63535, Note_on_c, 0, 77, 0
3, 63546, Note_on_c, 0, 89, 0
3, 63556, Control_c, 0, 64, 127
3, 63569, Note_on_c, 0, 89, 62
3, 63575, Note_on_c, 0, 77, 46
3, 63584, Note_on_c, 0, 65, 30
3, 63585, Note_on_c, 0, 60, 36
3, 63586, Control_c, 0, 64, 0
3, 63593, Note_on_c, 0, 65, 0
3, 63594, Note_on_c, 0, 60, 0
3, 63594, Note_on_c, 0, 77, 0
3, 63595, Note_on_c, 0, 89, 0
3, 63615, Note_on_c, 0, 65, 54
3, 63615, Note_on_c, 0, 55, 50
3, 63618, Note_on_c, 0, 60, 63
3, 63620, Note_on_c, 0, 89, 62
3, 63622, Note_on_c, 0, 77, 51
3, 63655, Control_c, 0, 64, 127
3, 63670, Note_on_c, 0, 89, 0
3, 63671, Note_on_c, 0, 60, 0
3, 63673, Note_on_c, 0, 77, 0
3, 63673, Note_on_c, 0, 65, 0
3, 63679, Note_on_c, 0, 55, 0
3, 63710, Control_c, 0, 64, 0
3, 63730, Note_on_c, 0, 64, 41
3, 63730, Note_on_c, 0, 88, 59
3, 63731, Note_on_c, 0, 53, 44
3, 63731, Note_on_c, 0, 59, 50
3, 63732, Note_on_c, 0, 76, 46
3, 63764, Control_c, 0, 64, 127
3, 63781, Control_c, 0, 64, 0
3, 63839, Control_c, 0, 64, 127
3, 63859, Note_on_c, 0, 88, 0
3, 63865, Note_on_c, 0, 59, 0
3, 63868, Note_on_c, 0, 64, 0
3, 63872, Note_on_c, 0, 76, 0
3, 63895, Note_on_c, 0, 53, 0
3, 63934, Note_on_c, 0, 86, 70
3, 63934, Note_on_c, 0, 58, 47
3, 63935, Note_on_c, 0, 62, 47
3, 63935, Note_on_c, 0, 53, 40
3, 63936, Note_on_c, 0, 74, 66
3, 63939, Note_on_c, 0, 57, 53
3, 63940, Control_c, 0, 64, 0
3, 63976, Control_c, 0, 64, 127
3, 64028, Note_on_c, 0, 57, 0
3, 64029, Note_on_c, 0, 53, 0
3, 64032, Note_on_c, 0, 86, 0
3, 64032, Note_on_c, 0, 74, 0
3, 64034, Note_on_c, 0, 62, 0
3, 64054, Note_on_c, 0, 58, 0
3, 64083, Control_c, 0, 64, 0
3, 64094, Note_on_c, 0, 61, 56
3, 64095, Note_on_c, 0, 58, 43
3, 64095, Note_on_c, 0, 85, 71
3, 64097, Note_on_c, 0, 73, 59
3, 64098, Note_on_c, 0, 52, 48
3, 64100, Note_on_c, 0, 80, 51
3, 64144, Control_c, 0, 64, 127
3, 64190, Note_on_c, 0, 52, 0
3, 64202, Note_on_c, 0, 58, 0
3, 64205, Note_on_c, 0, 61, 0
3, 64222, Note_on_c, 0, 80, 0
3, 64227, Note_on_c, 0, 73, 0
3, 64234, Note_on_c, 0, 85, 0
3, 64285, Note_on_c, 0, 60, 55
3, 64286, Note_on_c, 0, 84, 77
3, 64287, Note_on_c, 0, 61, 51
3, 64288, Note_on_c, 0, 65, 58
3, 64289, Note_on_c, 0, 72, 66
3, 64289, Note_on_c, 0, 81, 60
3, 64289, Note_on_c, 0, 77, 66
3, 64291, Control_c, 0, 64, 0
3, 64293, Note_on_c, 0, 55, 51
3, 64296, Note_on_c, 0, 58, 25
3, 64325, Control_c, 0, 64, 127
3, 64351, Note_on_c, 0, 72, 0
3, 64362, Note_on_c, 0, 77, 0
3, 64373, Note_on_c, 0, 81, 0
3, 64380, Note_on_c, 0, 84, 0
3, 64393, Note_on_c, 0, 60, 0
3, 64395, Note_on_c, 0, 55, 0
3, 64400, Note_on_c, 0, 65, 0
3, 64409, Note_on_c, 0, 61, 0
3, 64409, Note_on_c, 0, 58, 0
3, 64451, Control_c, 0, 64, 0
3, 64457, Note_on_c, 0, 100, 85
3, 64457, Note_on_c, 0, 61, 55
3, 64458, Note_on_c, 0, 88, 74
3, 64460, Note_on_c, 0, 65, 51
3, 64461, Note_on_c, 0, 99, 64
3, 64461, Note_on_c, 0, 59, 53
3, 64462, Note_on_c, 0, 55, 62
3, 64463, Note_on_c, 0, 60, 53
3, 64463, Note_on_c, 0, 89, 64
3, 64471, Note_on_c, 0, 89, 0
3, 64485, Note_on_c, 0, 99, 0
3, 64503, Control_c, 0, 64, 127
3, 64519, Note_on_c, 0, 59, 0
3, 64564, Note_on_c, 0, 100, 0
3, 64574, Note_on_c, 0, 88, 0
3, 64583, Note_on_c, 0, 55, 0
3, 64588, Note_on_c, 0, 60, 0
3, 64594, Note_on_c, 0, 65, 0
3, 64611, Note_on_c, 0, 61, 0
3, 64650, Note_on_c, 0, 61, 50
3, 64652, Note_on_c, 0, 60, 61
3, 64653, Note_on_c, 0, 65, 66
3, 64657, Note_on_c, 0, 55, 54
3, 64658, Control_c, 0, 64, 0
3, 64660, Note_on_c, 0, 95, 33
3, 64660, Note_on_c, 0, 93, 44
3, 64660, Note_on_c, 0, 92, 21
3, 64661, Note_on_c, 0, 81, 30
3, 64664, Note_on_c, 0, 83, 24
3, 64669, Note_on_c, 0, 95, 0
3, 64672, Note_on_c, 0, 83, 0
3, 64677, Note_on_c, 0, 92, 0
3, 64699, Control_c, 0, 64, 127
3, 64742, Note_on_c, 0, 93, 0
3, 64744, Note_on_c, 0, 55, 0
3, 64748, Note_on_c, 0, 65, 0
3, 64752, Note_on_c, 0, 60, 0
3, 64765, Note_on_c, 0, 81, 0
3, 64778, Note_on_c, 0, 61, 0
3, 64803, Control_c, 0, 64, 0
3, 64809, Note_on_c, 0, 54, 50
3, 64811, Note_on_c, 0, 60, 48
3, 64813, Note_on_c, 0, 64, 40
3, 64813, Note_on_c, 0, 92, 42
3, 64814, Note_on_c, 0, 80, 35
3, 64817, Note_on_c, 0, 87, 47
3, 64907, Control_c, 0, 64, 127
3, 64926, Note_on_c, 0, 54, 0
3, 64930, Note_on_c, 0, 60, 0
3, 64939, Note_on_c, 0, 87, 0
3, 64943, Note_on_c, 0, 92, 0
3, 64946, Note_on_c, 0, 80, 0
3, 64952, Note_on_c, 0, 64, 0
3, 65012, Note_on_c, 0, 54, 42
3, 65014, Note_on_c, 0, 93, 51
3, 65015, Control_c, 0, 64, 0
3, 65017, Note_on_c, 0, 60, 40
3, 65018, Note_on_c, 0, 81, 34
3, 65021, Note_on_c, 0, 64, 24
3, 65023, Note_on_c, 0, 88, 27
3, 65029, Note_on_c, 0, 81, 0
3, 65031, Note_on_c, 0, 93, 0
3, 65031, Note_on_c, 0, 88, 0
3, 65053, Control_c, 0, 64, 127
3, 65100, Note_on_c, 0, 64, 0
3, 65131, Note_on_c, 0, 64, 35
3, 65151, Note_on_c, 0, 64, 0
3, 65155, Note_on_c, 0, 60, 0
3, 65160, Control_c, 0, 64, 0
3, 65169, Note_on_c, 0, 93, 85
3, 65189, Note_on_c, 0, 54, 0
3, 65194, Note_on_c, 0, 93, 0
3, 65208, Note_on_c, 0, 89, 49
3, 65220, Note_on_c, 0, 89, 0
3, 65245, Note_on_c, 0, 93, 85
3, 65254, Note_on_c, 0, 57, 33
3, 65255, Note_on_c, 0, 58, 34
3, 65255, Note_on_c, 0, 62, 35
3, 65274, Note_on_c, 0, 93, 0
3, 65290, Note_on_c, 0, 89, 57
3, 65313, Note_on_c, 0, 89, 0
3, 65318, Control_c, 0, 64, 127
3, 65334, Note_on_c, 0, 86, 47
3, 65337, Note_on_c, 0, 62, 0
3, 65343, Note_on_c, 0, 58, 0
3, 65359, Note_on_c, 0, 86, 0
3, 65370, Note_on_c, 0, 81, 53
3, 65393, Note_on_c, 0, 81, 0
3, 65402, Control_c, 0, 64, 0
3, 65414, Note_on_c, 0, 62, 32
3, 65420, Note_on_c, 0, 77, 32
3, 65435, Control_c, 0, 64, 127
3, 65451, Note_on_c, 0, 62, 0
3, 65472, Note_on_c, 0, 77, 0
3, 65498, Note_on_c, 0, 74, 60
3, 65504, Note_on_c, 0, 62, 39
3, 65509, Note_on_c, 0, 58, 25
3, 65515, Note_on_c, 0, 74, 0
3, 65523, Control_c, 0, 64, 0
3, 65532, Note_on_c, 0, 62, 0
3, 65550, Note_on_c, 0, 58, 0
3, 65555, Note_on_c, 0, 77, 64
3, 65590, Note_on_c, 0, 76, 53
3, 65602, Note_on_c, 0, 77, 0
3, 65615, Note_on_c, 0, 75, 53
3, 65616, Note_on_c, 0, 76, 0
3, 65631, Control_c, 0, 64, 127
3, 65641, Note_on_c, 0, 62, 18
3, 65642, Note_on_c, 0, 74, 56
3, 65643, Note_on_c, 0, 75, 0
3, 65644, Note_on_c, 0, 58, 25
3, 65660, Note_on_c, 0, 74, 0
3, 65660, Control_c, 0, 64, 0
3, 65681, Note_on_c, 0, 69, 68
3, 65688, Note_on_c, 0, 62, 0
3, 65716, Note_on_c, 0, 58, 0
3, 65741, Note_on_c, 0, 69, 0
3, 65752, Note_on_c, 0, 72, 80
3, 65759, Note_on_c, 0, 62, 33
3, 65781, Note_on_c, 0, 62, 0
3, 65836, Control_c, 0, 64, 127
3, 65858, Note_on_c, 0, 70, 72
3, 65860, Note_on_c, 0, 62, 41
3, 65862, Note_on_c, 0, 58, 30
3, 65870, Note_on_c, 0, 72, 0
3, 65874, Control_c, 0, 64, 0
3, 65875, Note_on_c, 0, 62, 0
3, 65891, Note_on_c, 0, 70, 0
3, 65901, Note_on_c, 0, 58, 0
3, 65909, Note_on_c, 0, 69, 51
3, 65922, Control_c, 0, 64, 127
3, 65964, Note_on_c, 0, 69, 0
3, 65978, Note_on_c, 0, 62, 34
3, 65978, Note_on_c, 0, 58, 33
3, 65979, Note_on_c, 0, 67, 55
3, 65987, Control_c, 0, 64, 0
3, 65994, Note_on_c, 0, 62, 0
3, 66009, Note_on_c, 0, 67, 0
3, 66024, Note_on_c, 0, 58, 0
3, 66035, Note_on_c, 0, 65, 26
3, 66038, Control_c, 0, 64, 127
3, 66070, Note_on_c, 0, 65, 0
3, 66074, Note_on_c, 0, 57, 0
3, 66094, Note_on_c, 0, 65, 52
3, 66103, Note_on_c, 0, 58, 30
3, 66116, Note_on_c, 0, 65, 0
3, 66120, Control_c, 0, 64, 0
3, 66134, Note_on_c, 0, 58, 0
3, 66140, Note_on_c, 0, 62, 35
3, 66160, Control_c, 0, 64, 127
3, 66172, Note_on_c, 0, 62, 0
3, 66205, Note_on_c, 0, 62, 48
3, 66215, Note_on_c, 0, 57, 31
3, 66218, Note_on_c, 0, 58, 28
3, 66229, Note_on_c, 0, 62, 0
3, 66235, Control_c, 0, 64, 0
3, 66241, Note_on_c, 0, 58, 0
3, 66242, Note_on_c, 0, 57, 0
3, 66275, Note_on_c, 0, 65, 45
3, 66314, Control_c, 0, 64, 127
3, 66315, Note_on_c, 0, 65, 0
3, 66334, Control_c, 0, 64, 0
3, 66362, Note_on_c, 0, 62, 33
3, 66374, Control_c, 0, 64, 127
3, 66419, Note_on_c, 0, 62, 0
3, 66437, Note_on_c, 0, 66, 77
3, 66449, Control_c, 0, 64, 0
3, 66450, Note_on_c, 0, 58, 27
3, 66482, Note_on_c, 0, 58, 0
3, 66500, Control_c, 0, 64, 127
3, 66563, Control_c, 0, 64, 0
3, 66585, Note_on_c, 0, 66, 0
3, 66594, Note_on_c, 0, 62, 22
3, 66599, Control_c, 0, 64, 127
3, 66677, Note_on_c, 0, 69, 59
3, 66679, Note_on_c, 0, 57, 42
3, 66684, Note_on_c, 0, 66, 33
3, 66684, Control_c, 0, 64, 0
3, 66734, Note_on_c, 0, 66, 0
3, 66747, Control_c, 0, 64, 127
3, 66764, Note_on_c, 0, 62, 0
3, 66787, Note_on_c, 0, 69, 0
3, 66793, Note_on_c, 0, 62, 47
3, 66808, Note_on_c, 0, 54, 14
3, 66812, Note_on_c, 0, 62, 0
3, 66824, Note_on_c, 0, 57, 0
3, 66840, Note_on_c, 0, 54, 0
3, 66880, Control_c, 0, 64, 0
3, 66880, Note_on_c, 0, 74, 71
3, 66881, Note_on_c, 0, 62, 41
3, 66882, Note_on_c, 0, 66, 67
3, 66913, Control_c, 0, 64, 127
3, 66948, Note_on_c, 0, 66, 0
3, 66953, Note_on_c, 0, 62, 0
3, 66967, Note_on_c, 0, 74, 0
3, 66967, Control_c, 0, 64, 0
3, 66974, Note_on_c, 0, 66, 27
3, 66974, Note_on_c, 0, 69, 47
3, 66978, Note_on_c, 0, 62, 30
3, 66979, Control_c, 0, 64, 127
3, 66979, Note_on_c, 0, 57, 31
3, 66985, Note_on_c, 0, 69, 0
3, 66986, Note_on_c, 0, 66, 0
3, 66987, Note_on_c, 0, 62, 0
3, 67061, Note_on_c, 0, 62, 43
3, 67061, Note_on_c, 0, 78, 71
3, 67065, Note_on_c, 0, 69, 64
3, 67066, Note_on_c, 0, 74, 54
3, 67068, Control_c, 0, 64, 0
3, 67079, Note_on_c, 0, 57, 0
3, 67090, Note_on_c, 0, 74, 0
3, 67094, Control_c, 0, 64, 127
3, 67125, Note_on_c, 0, 69, 0
3, 67132, Note_on_c, 0, 62, 0
3, 67140, Note_on_c, 0, 74, 47
3, 67162, Note_on_c, 0, 74, 0
3, 67189, Note_on_c, 0, 78, 0
3, 67210, Control_c, 0, 64, 0
3, 67212, Note_on_c, 0, 62, 37
3, 67213, Note_on_c, 0, 57, 24
3, 67213, Note_on_c, 0, 58, 32
3, 67213, Note_on_c, 0, 81, 74
3, 67213, Note_on_c, 0, 74, 62
3, 67214, Note_on_c, 0, 69, 66
3, 67258, Control_c, 0, 64, 127
3, 67280, Note_on_c, 0, 74, 0
3, 67280, Note_on_c, 0, 58, 0
3, 67285, Note_on_c, 0, 69, 0
3, 67303, Note_on_c, 0, 81, 0
3, 67315, Note_on_c, 0, 62, 0
3, 67315, Note_on_c, 0, 77, 39
3, 67321, Note_on_c, 0, 57, 0
3, 67341, Note_on_c, 0, 77, 0
3, 67395, Note_on_c, 0, 84, 73
3, 67397, Note_on_c, 0, 62, 58
3, 67397, Note_on_c, 0, 57, 45
3, 67397, Note_on_c, 0, 58, 51
3, 67398, Note_on_c, 0, 72, 67
3, 67402, Control_c, 0, 64, 0
3, 67404, Note_on_c, 0, 82, 30
3, 67413, Note_on_c, 0, 82, 0
3, 67440, Control_c, 0, 64, 127
3, 67460, Note_on_c, 0, 84, 0
3, 67464, Note_on_c, 0, 72, 0
3, 67482, Note_on_c, 0, 62, 0
3, 67486, Note_on_c, 0, 81, 40
3, 67506, Note_on_c, 0, 81, 0
3, 67506, Note_on_c, 0, 58, 0
3, 67561, Control_c, 0, 64, 0
3, 67573, Note_on_c, 0, 62, 44
3, 67575, Control_c, 0, 64, 127
3, 67575, Note_on_c, 0, 86, 71
3, 67576, Note_on_c, 0, 58, 42
3, 67577, Note_on_c, 0, 74, 66
3, 67615, Note_on_c, 0, 74, 0
3, 67618, Note_on_c, 0, 57, 0
3, 67623, Note_on_c, 0, 58, 0
3, 67629, Note_on_c, 0, 86, 0
3, 67632, Note_on_c, 0, 62, 0
3, 67665, Note_on_c, 0, 65, 69
3, 67665, Note_on_c, 0, 89, 71
3, 67665, Note_on_c, 0, 77, 68
3, 67667, Control_c, 0, 64, 0
3, 67669, Note_on_c, 0, 57, 46
3, 67670, Note_on_c, 0, 62, 33
3, 67697, Control_c, 0, 64, 127
3, 67719, Note_on_c, 0, 77, 0
3, 67725, Note_on_c, 0, 89, 0
3, 67728, Note_on_c, 0, 65, 0
3, 67730, Note_on_c, 0, 57, 0
3, 67736, Note_on_c, 0, 62, 0
3, 67750, Note_on_c, 0, 91, 69
3, 67752, Note_on_c, 0, 79, 66
3, 67754, Note_on_c, 0, 62, 34
3, 67754, Note_on_c, 0, 65, 46
3, 67755, Note_on_c, 0, 57, 30
3, 67794, Note_on_c, 0, 65, 0
3, 67795, Note_on_c, 0, 57, 0
3, 67797, Note_on_c, 0, 79, 0
3, 67800, Note_on_c, 0, 91, 0
3, 67807, Note_on_c, 0, 62, 0
3, 67811, Control_c, 0, 64, 0
3, 67825, Note_on_c, 0, 57, 44
3, 67826, Note_on_c, 0, 93, 74
3, 67827, Note_on_c, 0, 62, 46
3, 67828, Note_on_c, 0, 65, 46
3, 67829, Note_on_c, 0, 81, 60
3, 67833, Control_c, 0, 64, 127
3, 67853, Note_on_c, 0, 65, 0
3, 67858, Note_on_c, 0, 57, 0
3, 67860, Note_on_c, 0, 81, 0
3, 67865, Note_on_c, 0, 62, 0
3, 67869, Note_on_c, 0, 93, 0
3, 67910, Note_on_c, 0, 56, 58
3, 67910, Note_on_c, 0, 62, 45
3, 67911, Note_on_c, 0, 65, 62
3, 67911, Note_on_c, 0, 83, 77
3, 67911, Control_c, 0, 64, 0
3, 67913, Note_on_c, 0, 95, 71
3, 67940, Note_on_c, 0, 83, 0
3, 67944, Note_on_c, 0, 65, 0
3, 67948, Control_c, 0, 64, 127
3, 67949, Note_on_c, 0, 56, 0
3, 67950, Note_on_c, 0, 95, 0
3, 67963, Note_on_c, 0, 62, 0
3, 67991, Note_on_c, 0, 67, 69
3, 67992, Note_on_c, 0, 96, 82
3, 67992, Note_on_c, 0, 84, 79
3, 67994, Note_on_c, 0, 62, 43
3, 67994, Note_on_c, 0, 56, 59
3, 68028, Note_on_c, 0, 84, 0
3, 68031, Note_on_c, 0, 67, 0
3, 68034, Note_on_c, 0, 56, 0
3, 68034, Note_on_c, 0, 96, 0
3, 68047, Note_on_c, 0, 62, 0
3, 68061, Control_c, 0, 64, 0
3, 68067, Note_on_c, 0, 56, 63
3, 68068, Control_c, 0, 64, 127
3, 68069, Note_on_c, 0, 62, 66
3, 68069, Note_on_c, 0, 67, 57
3, 68069, Note_on_c, 0, 98, 76
3, 68070, Note_on_c, 0, 86, 71
3, 68090, Note_on_c, 0, 67, 0
3, 68099, Note_on_c, 0, 62, 0
3, 68104, Note_on_c, 0, 86, 0
3, 68111, Note_on_c, 0, 98, 0
3, 68124, Note_on_c, 0, 56, 0
3, 68149, Note_on_c, 0, 64, 54
3, 68151, Note_on_c, 0, 100, 67
3, 68152, Note_on_c, 0, 88, 66
3, 68153, Control_c, 0, 64, 0
3, 68154, Note_on_c, 0, 60, 44
3, 68156, Note_on_c, 0, 55, 27
3, 68157, Note_on_c, 0, 59, 40
3, 68172, Note_on_c, 0, 88, 0
3, 68182, Control_c, 0, 64, 127
3, 68183, Note_on_c, 0, 100, 0
3, 68184, Note_on_c, 0, 60, 0
3, 68185, Note_on_c, 0, 59, 0
3, 68191, Note_on_c, 0, 64, 0
3, 68194, Note_on_c, 0, 55, 0
3, 68227, Note_on_c, 0, 60, 44
3, 68227, Note_on_c, 0, 64, 40
3, 68228, Note_on_c, 0, 91, 56
3, 68230, Note_on_c, 0, 103, 53
3, 68232, Note_on_c, 0, 55, 35
3, 68232, Note_on_c, 0, 59, 38
3, 68244, Note_on_c, 0, 59, 0
3, 68251, Note_on_c, 0, 91, 0
3, 68258, Note_on_c, 0, 64, 0
3, 68259, Note_on_c, 0, 55, 0
3, 68261, Note_on_c, 0, 60, 0
3, 68262, Note_on_c, 0, 103, 0
3, 68304, Note_on_c, 0, 60, 36
3, 68304, Note_on_c, 0, 55, 44
3, 68306, Note_on_c, 0, 64, 30
3, 68307, Note_on_c, 0, 59, 38
3, 68320, Note_on_c, 0, 59, 0
3, 68326, Note_on_c, 0, 55, 0
3, 68329, Note_on_c, 0, 64, 0
3, 68331, Note_on_c, 0, 60, 0
3, 68365, Control_c, 0, 64, 0
3, 68383, Note_on_c, 0, 60, 48
3, 68385, Note_on_c, 0, 64, 43
3, 68385, Note_on_c, 0, 98, 62
3, 68387, Note_on_c, 0, 55, 38
3, 68388, Note_on_c, 0, 59, 40
3, 68395, Note_on_c, 0, 98, 0
3, 68397, Note_on_c, 0, 64, 0
3, 68398, Note_on_c, 0, 59, 0
3, 68398, Note_on_c, 0, 55, 0
3, 68399, Note_on_c, 0, 60, 0
3, 68645, Note_on_c, 0, 54, 25
3, 68647, Note_on_c, 0, 64, 22
3, 68650, Note_on_c, 0, 60, 32
3, 68776, Control_c, 0, 64, 127
3, 68783, Control_c, 0, 64, 0
3, 68810, Control_c, 0, 64, 127
3, 68815, Note_on_c, 0, 64, 0
3, 68816, Note_on_c, 0, 60, 0
3, 68866, Note_on_c, 0, 60, 24
3, 68870, Control_c, 0, 64, 0
3, 68891, Note_on_c, 0, 86, 68
3, 68892, Note_on_c, 0, 74, 57
3, 68899, Note_on_c, 0, 86, 0
3, 68902, Note_on_c, 0, 74, 0
3, 68907, Note_on_c, 0, 60, 0
3, 68911, Note_on_c, 0, 54, 0
3, 68967, Note_on_c, 0, 86, 72
3, 68972, Note_on_c, 0, 74, 53
3, 68976, Note_on_c, 0, 54, 37
3, 68978, Note_on_c, 0, 60, 38
3, 68981, Note_on_c, 0, 74, 0
3, 68981, Note_on_c, 0, 64, 26
3, 68985, Note_on_c, 0, 86, 0
3, 68990, Note_on_c, 0, 60, 0
3, 68994, Note_on_c, 0, 64, 0
3, 69001, Note_on_c, 0, 54, 0
3, 69016, Note_on_c, 0, 85, 57
3, 69024, Note_on_c, 0, 85, 0
3, 69072, Control_c, 0, 64, 127
3, 69088, Note_on_c, 0, 73, 69
3, 69089, Note_on_c, 0, 85, 74
3, 69092, Note_on_c, 0, 61, 33
3, 69094, Note_on_c, 0, 56, 31
3, 69094, Note_on_c, 0, 65, 33
3, 69101, Note_on_c, 0, 60, 25
3, 69106, Control_c, 0, 64, 0
3, 69109, Note_on_c, 0, 73, 0
3, 69110, Note_on_c, 0, 85, 0
3, 69115, Note_on_c, 0, 65, 0
3, 69131, Note_on_c, 0, 65, 14
3, 69136, Note_on_c, 0, 84, 45
3, 69137, Note_on_c, 0, 72, 46
3, 69144, Note_on_c, 0, 84, 0
3, 69148, Note_on_c, 0, 72, 0
3, 69151, Note_on_c, 0, 65, 0
3, 69155, Note_on_c, 0, 56, 0
3, 69155, Note_on_c, 0, 60, 0
3, 69161, Control_c, 0, 64, 127
3, 69162, Note_on_c, 0, 61, 0
3, 69212, Note_on_c, 0, 84, 58
3, 69213, Note_on_c, 0, 72, 60
3, 69217, Note_on_c, 0, 61, 32
3, 69217, Note_on_c, 0, 65, 24
3, 69220, Note_on_c, 0, 84, 0
3, 69221, Note_on_c, 0, 72, 0
3, 69225, Note_on_c, 0, 65, 0
3, 69231, Control_c, 0, 64, 0
3, 69246, Note_on_c, 0, 70, 48
3, 69248, Note_on_c, 0, 82, 47
3, 69249, Note_on_c, 0, 56, 18
3, 69250, Note_on_c, 0, 65, 34
3, 69268, Note_on_c, 0, 70, 0
3, 69271, Note_on_c, 0, 65, 0
3, 69279, Note_on_c, 0, 82, 0
3, 69285, Note_on_c, 0, 61, 0
3, 69288, Note_on_c, 0, 56, 0
3, 69318, Control_c, 0, 64, 127
3, 69333, Note_on_c, 0, 82, 63
3, 69334, Note_on_c, 0, 70, 68
3, 69349, Note_on_c, 0, 70, 0
3, 69350, Note_on_c, 0, 82, 0
3, 69365, Control_c, 0, 64, 0
3, 69372, Note_on_c, 0, 56, 25
3, 69376, Note_on_c, 0, 80, 51
3, 69378, Note_on_c, 0, 65, 30
3, 69380, Note_on_c, 0, 68, 37
3, 69381, Note_on_c, 0, 61, 29
3, 69409, Control_c, 0, 64, 127
3, 69450, Note_on_c, 0, 65, 0
3, 69453, Note_on_c, 0, 68, 0
3, 69456, Note_on_c, 0, 80, 0
3, 69459, Note_on_c, 0, 56, 0
3, 69463, Note_on_c, 0, 61, 0
3, 69479, Control_c, 0, 64, 0
3, 69492, Note_on_c, 0, 78, 35
3, 69494, Note_on_c, 0, 56, 30
3, 69497, Note_on_c, 0, 66, 28
3, 69497, Note_on_c, 0, 61, 27
3, 69500, Note_on_c, 0, 65, 19
3, 69515, Control_c, 0, 64, 127
3, 69524, Note_on_c, 0, 65, 0
3, 69553, Note_on_c, 0, 61, 0
3, 69556, Note_on_c, 0, 66, 0
3, 69563, Note_on_c, 0, 56, 0
3, 69565, Note_on_c, 0, 78, 0
3, 69576, Note_on_c, 0, 79, 53
3, 69579, Note_on_c, 0, 61, 23
3, 69580, Note_on_c, 0, 67, 31
3, 69585, Note_on_c, 0, 64, 25
3, 69585, Control_c, 0, 64, 0
3, 69587, Note_on_c, 0, 55, 38
3, 69636, Control_c, 0, 64, 127
3, 69750, Note_on_c, 0, 55, 0
3, 69765, Note_on_c, 0, 64, 0
3, 69767, Note_on_c, 0, 61, 0
3, 69840, Control_c, 0, 64, 0
3, 69852, Note_on_c, 0, 64, 49
3, 69856, Note_on_c, 0, 61, 37
3, 69858, Note_on_c, 0, 55, 25
3, 69862, Note_on_c, 0, 64, 0
3, 69865, Note_on_c, 0, 61, 0
3, 69866, Note_on_c, 0, 55, 0
3, 69968, Control_c, 0, 64, 127
3, 70027, Note_on_c, 0, 67, 0
3, 70046, Note_on_c, 0, 61, 36
3, 70046, Note_on_c, 0, 56, 30
3, 70046, Note_on_c, 0, 65, 32
3, 70049, Note_on_c, 0, 79, 0
3, 70051, Note_on_c, 0, 60, 41
3, 70073, Control_c, 0, 64, 0
3, 70133, Control_c, 0, 64, 127
3, 70140, Note_on_c, 0, 61, 0
3, 70179, Note_on_c, 0, 65, 0
3, 70203, Control_c, 0, 64, 0
3, 70211, Note_on_c, 0, 70, 78
3, 70262, Note_on_c, 0, 60, 0
3, 70273, Control_c, 0, 64, 127
3, 70284, Note_on_c, 0, 70, 0
3, 70292, Note_on_c, 0, 65, 44
3, 70299, Note_on_c, 0, 61, 25
3, 70307, Note_on_c, 0, 60, 16
3, 70311, Control_c, 0, 64, 0
3, 70332, Note_on_c, 0, 65, 0
3, 70358, Note_on_c, 0, 61, 0
3, 70365, Control_c, 0, 64, 127
3, 70365, Note_on_c, 0, 68, 17
3, 70371, Note_on_c, 0, 60, 0
3, 70380, Note_on_c, 0, 56, 0
3, 70411, Note_on_c, 0, 70, 61
3, 70415, Note_on_c, 0, 65, 29
3, 70415, Note_on_c, 0, 61, 25
3, 70416, Note_on_c, 0, 56, 23
3, 70418, Note_on_c, 0, 68, 0
3, 70419, Note_on_c, 0, 60, 26
3, 70439, Control_c, 0, 64, 0
3, 70440, Note_on_c, 0, 65, 0
3, 70453, Note_on_c, 0, 70, 0
3, 70459, Note_on_c, 0, 60, 0
3, 70468, Note_on_c, 0, 71, 45
3, 70489, Control_c, 0, 64, 127
3, 70500, Note_on_c, 0, 61, 0
3, 70528, Note_on_c, 0, 71, 0
3, 70533, Note_on_c, 0, 73, 67
3, 70536, Note_on_c, 0, 61, 32
3, 70548, Control_c, 0, 64, 0
3, 70565, Note_on_c, 0, 73, 0
3, 70573, Note_on_c, 0, 56, 0
3, 70576, Note_on_c, 0, 61, 0
3, 70586, Note_on_c, 0, 76, 51
3, 70596, Control_c, 0, 64, 127
3, 70646, Note_on_c, 0, 76, 0
3, 70653, Note_on_c, 0, 61, 38
3, 70655, Note_on_c, 0, 78, 50
3, 70668, Control_c, 0, 64, 0
3, 70676, Note_on_c, 0, 61, 0
3, 70687, Note_on_c, 0, 78, 0
3, 70703, Control_c, 0, 64, 127
3, 70710, Note_on_c, 0, 81, 45
3, 70762, Note_on_c, 0, 81, 0
3, 70773, Note_on_c, 0, 82, 64
3, 70773, Note_on_c, 0, 61, 51
3, 70783, Control_c, 0, 64, 0
3, 70800, Note_on_c, 0, 61, 0
3, 70811, Note_on_c, 0, 82, 0
3, 70822, Control_c, 0, 64, 127
3, 70825, Note_on_c, 0, 84, 39
3, 70872, Note_on_c, 0, 84, 0
3, 70888, Note_on_c, 0, 61, 60
3, 70890, Note_on_c, 0, 85, 74
3, 70892, Note_on_c, 0, 65, 51
3, 70892, Note_on_c, 0, 55, 55
3, 70899, Note_on_c, 0, 65, 0
3, 70911, Note_on_c, 0, 55, 0
3, 70917, Note_on_c, 0, 61, 0
3, 70918, Control_c, 0, 64, 0
3, 70923, Note_on_c, 0, 85, 0
3, 70941, Note_on_c, 0, 87, 52
3, 70954, Control_c, 0, 64, 127
3, 70984, Note_on_c, 0, 87, 0
3, 71008, Note_on_c, 0, 57, 58
3, 71011, Note_on_c, 0, 88, 68
3, 71014, Note_on_c, 0, 53, 46
3, 71014, Note_on_c, 0, 64, 29
3, 71015, Note_on_c, 0, 60, 34
3, 71042, Note_on_c, 0, 88, 0
3, 71043, Control_c, 0, 64, 0
3, 71059, Note_on_c, 0, 91, 80
3, 71088, Control_c, 0, 64, 127
3, 71096, Note_on_c, 0, 91, 0
3, 71103, Note_on_c, 0, 64, 0
3, 71104, Note_on_c, 0, 88, 48
3, 71108, Note_on_c, 0, 60, 0
3, 71124, Note_on_c, 0, 88, 0
3, 71129, Note_on_c, 0, 57, 0
3, 71140, Note_on_c, 0, 89, 80
3, 71143, Note_on_c, 0, 57, 20
3, 71143, Note_on_c, 0, 64, 35
3, 71146, Note_on_c, 0, 60, 36
3, 71156, Control_c, 0, 64, 0
3, 71161, Note_on_c, 0, 64, 0
3, 71169, Note_on_c, 0, 89, 0
3, 71172, Note_on_c, 0, 60, 0
3, 71192, Note_on_c, 0, 85, 68
3, 71197, Control_c, 0, 64, 127
3, 71205, Note_on_c, 0, 57, 0
3, 71210, Note_on_c, 0, 53, 0
3, 71252, Note_on_c, 0, 85, 0
3, 71262, Note_on_c, 0, 88, 80
3, 71280, Control_c, 0, 64, 0
3, 71294, Note_on_c, 0, 88, 0
3, 71314, Note_on_c, 0, 86, 54
3, 71325, Control_c, 0, 64, 127
3, 71380, Note_on_c, 0, 81, 54
3, 71381, Note_on_c, 0, 64, 34
3, 71381, Note_on_c, 0, 59, 49
3, 71382, Note_on_c, 0, 57, 36
3, 71387, Note_on_c, 0, 53, 36
3, 71392, Control_c, 0, 64, 0
3, 71436, Note_on_c, 0, 86, 0
3, 71442, Control_c, 0, 64, 127
3, 71494, Note_on_c, 0, 59, 0
3, 71498, Note_on_c, 0, 64, 0
3, 71508, Note_on_c, 0, 81, 0
3, 71530, Note_on_c, 0, 53, 0
3, 71536, Control_c, 0, 64, 0
3, 71544, Note_on_c, 0, 62, 44
3, 71547, Note_on_c, 0, 58, 48
3, 71547, Note_on_c, 0, 83, 88
3, 71569, Note_on_c, 0, 62, 0
3, 71578, Note_on_c, 0, 57, 0
3, 71585, Note_on_c, 0, 58, 0
3, 71586, Note_on_c, 0, 83, 0
3, 71589, Note_on_c, 0, 84, 62
3, 71615, Note_on_c, 0, 83, 55
3, 71622, Note_on_c, 0, 84, 0
3, 71642, Note_on_c, 0, 82, 51
3, 71649, Note_on_c, 0, 83, 0
3, 71674, Note_on_c, 0, 82, 0
3, 71679, Note_on_c, 0, 81, 35
3, 71718, Note_on_c, 0, 81, 0
3, 71729, Control_c, 0, 64, 127
3, 71743, Note_on_c, 0, 78, 55
3, 71762, Control_c, 0, 64, 0
3, 71779, Note_on_c, 0, 78, 0
3, 71798, Note_on_c, 0, 79, 51
3, 71855, Note_on_c, 0, 79, 0
3, 71861, Note_on_c, 0, 58, 53
3, 71866, Note_on_c, 0, 62, 40
3, 71867, Note_on_c, 0, 76, 50
3, 71875, Note_on_c, 0, 62, 0
3, 71887, Note_on_c, 0, 58, 0
3, 71890, Note_on_c, 0, 76, 0
3, 71931, Note_on_c, 0, 72, 24
3, 71932, Note_on_c, 0, 74, 20
3, 71940, Note_on_c, 0, 74, 0
3, 71955, Note_on_c, 0, 72, 0
3, 71962, Control_c, 0, 64, 127
3, 71986, Note_on_c, 0, 70, 57
3, 72010, Control_c, 0, 64, 0
3, 72022, Note_on_c, 0, 70, 0
3, 72037, Note_on_c, 0, 69, 42
3, 72080, Note_on_c, 0, 69, 0
3, 72102, Note_on_c, 0, 63, 53
3, 72104, Control_c, 0, 64, 127
3, 72104, Note_on_c, 0, 70, 57
3, 72115, Note_on_c, 0, 63, 0
3, 72117, Note_on_c, 0, 57, 29
3, 72126, Control_c, 0, 64, 0
3, 72129, Note_on_c, 0, 57, 0
3, 72136, Note_on_c, 0, 70, 0
3, 72152, Note_on_c, 0, 72, 54
3, 72153, Note_on_c, 0, 71, 57
3, 72200, Note_on_c, 0, 72, 0
3, 72202, Note_on_c, 0, 71, 0
3, 72215, Note_on_c, 0, 47, 62
3, 72223, Note_on_c, 0, 48, 64
3, 72224, Note_on_c, 0, 47, 0
3, 72224, Note_on_c, 0, 69, 60
3, 72248, Note_on_c, 0, 69, 0
3, 72278, Note_on_c, 0, 60, 46
3, 72329, Note_on_c, 0, 60, 0
3, 72347, Note_on_c, 0, 60, 64
3, 72373, Note_on_c, 0, 60, 0
3, 72385, Note_on_c, 0, 58, 28
3, 72434, Note_on_c, 0, 58, 0
3, 72454, Note_on_c, 0, 58, 57
3, 72474, Note_on_c, 0, 58, 0
3, 72513, Note_on_c, 0, 57, 54
3, 72550, Note_on_c, 0, 57, 0
3, 72574, Note_on_c, 0, 53, 57
3, 72602, Control_c, 0, 64, 127
3, 72614, Note_on_c, 0, 48, 0
3, 72659, Note_on_c, 0, 53, 0
3, 72682, Note_on_c, 0, 48, 84
3, 72685, Note_on_c, 0, 47, 51
3, 72691, Control_c, 0, 64, 0
3, 72694, Note_on_c, 0, 47, 0
3, 72734, Control_c, 0, 64, 127
3, 72811, Note_on_c, 0, 46, 47
3, 72828, Note_on_c, 0, 48, 0
3, 72828, Control_c, 0, 64, 0
3, 72833, Note_on_c, 0, 46, 0
3, 72849, Note_on_c, 0, 72, 99
3, 72860, Control_c, 0, 64, 127
3, 72915, Note_on_c, 0, 72, 0
3, 72932, Note_on_c, 0, 68, 77
3, 72934, Note_on_c, 0, 63, 42
3, 72935, Note_on_c, 0, 53, 40
3, 72937, Note_on_c, 0, 58, 42
3, 72951, Control_c, 0, 64, 0
3, 72975, Note_on_c, 0, 68, 0
3, 72998, Note_on_c, 0, 67, 38
3, 73064, Note_on_c, 0, 67, 0
3, 73092, Note_on_c, 0, 67, 47
3, 73093, Control_c, 0, 64, 127
3, 73175, Control_c, 0, 64, 0
3, 73176, Note_on_c, 0, 67, 0
3, 73212, Note_on_c, 0, 67, 40
3, 73230, Control_c, 0, 64, 127
3, 73281, Note_on_c, 0, 53, 0
3, 73291, Note_on_c, 0, 67, 0
3, 73296, Note_on_c, 0, 65, 46
3, 73303, Note_on_c, 0, 58, 0
3, 73305, Control_c, 0, 64, 0
3, 73308, Note_on_c, 0, 63, 0
3, 73319, Note_on_c, 0, 65, 0
3, 73333, Control_c, 0, 64, 127
3, 73339, Note_on_c, 0, 67, 44
3, 73421, Note_on_c, 0, 68, 70
3, 73423, Note_on_c, 0, 58, 60
3, 73425, Note_on_c, 0, 67, 0
3, 73425, Note_on_c, 0, 63, 51
3, 73428, Control_c, 0, 64, 0
3, 73466, Control_c, 0, 64, 127
3, 73615, Note_on_c, 0, 63, 0
3, 73618, Note_on_c, 0, 58, 0
3, 73626, Note_on_c, 0, 68, 0
3, 73651, Note_on_c, 0, 68, 48
3, 73653, Note_on_c, 0, 58, 39
3, 73656, Note_on_c, 0, 63, 36
3, 73666, Control_c, 0, 64, 0
3, 73697, Control_c, 0, 64, 127
3, 73767, Note_on_c, 0, 75, 59
3, 73781, Note_on_c, 0, 68, 0
3, 73793, Note_on_c, 0, 75, 0
3, 73803, Note_on_c, 0, 63, 0
3, 73810, Note_on_c, 0, 58, 0
3, 73829, Note_on_c, 0, 77, 33
3, 73871, Note_on_c, 0, 77, 0
3, 73894, Note_on_c, 0, 79, 58
3, 73912, Note_on_c, 0, 79, 0
3, 73927, Control_c, 0, 64, 0
3, 73942, Note_on_c, 0, 68, 36
3, 73943, Note_on_c, 0, 82, 53
3, 73974, Note_on_c, 0, 82, 0
3, 73994, Note_on_c, 0, 68, 0
3, 74015, Note_on_c, 0, 80, 29
3, 74015, Note_on_c, 0, 68, 31
3, 74016, Note_on_c, 0, 59, 39
3, 74027, Note_on_c, 0, 59, 0
3, 74028, Note_on_c, 0, 68, 0
3, 74029, Note_on_c, 0, 80, 0
3, 74054, Note_on_c, 0, 82, 60
3, 74057, Note_on_c, 0, 59, 43
3, 74057, Note_on_c, 0, 64, 30
3, 74058, Note_on_c, 0, 70, 38
3, 74059, Note_on_c, 0, 53, 22
3, 74101, Note_on_c, 0, 82, 0
3, 74101, Control_c, 0, 64, 127
3, 74103, Note_on_c, 0, 70, 0
3, 74103, Note_on_c, 0, 53, 0
3, 74105, Note_on_c, 0, 64, 0
3, 74109, Note_on_c, 0, 59, 0
3, 74139, Note_on_c, 0, 68, 32
3, 74139, Note_on_c, 0, 80, 23
3, 74141, Note_on_c, 0, 59, 41
3, 74148, Note_on_c, 0, 68, 0
3, 74148, Control_c, 0, 64, 0
3, 74151, Note_on_c, 0, 80, 0
3, 74156, Note_on_c, 0, 59, 0
3, 74171, Note_on_c, 0, 53, 24
3, 74172, Note_on_c, 0, 59, 15
3, 74174, Note_on_c, 0, 82, 58
3, 74175, Note_on_c, 0, 64, 33
3, 74177, Note_on_c, 0, 70, 50
3, 74190, Control_c, 0, 64, 127
3, 74221, Note_on_c, 0, 64, 0
3, 74222, Note_on_c, 0, 53, 0
3, 74224, Note_on_c, 0, 82, 0
3, 74230, Note_on_c, 0, 70, 0
3, 74233, Note_on_c, 0, 59, 0
3, 74256, Note_on_c, 0, 80, 39
3, 74257, Note_on_c, 0, 68, 53
3, 74259, Note_on_c, 0, 64, 32
3, 74260, Note_on_c, 0, 59, 42
3, 74265, Note_on_c, 0, 68, 0
3, 74267, Control_c, 0, 64, 0
3, 74274, Note_on_c, 0, 59, 0
3, 74274, Note_on_c, 0, 64, 0
3, 74279, Note_on_c, 0, 80, 0
3, 74412, Note_on_c, 0, 59, 40
3, 74414, Note_on_c, 0, 64, 27
3, 74415, Note_on_c, 0, 53, 33
3, 74416, Control_c, 0, 64, 127
3, 74511, Note_on_c, 0, 53, 0
3, 74514, Note_on_c, 0, 64, 0
3, 74554, Note_on_c, 0, 59, 0
3, 74626, Control_c, 0, 64, 0
3, 74642, Note_on_c, 0, 59, 62
3, 74643, Note_on_c, 0, 64, 64
3, 74644, Note_on_c, 0, 53, 61
3, 74645, Note_on_c, 0, 85, 78
3, 74646, Note_on_c, 0, 73, 80
3, 74653, Note_on_c, 0, 64, 0
3, 74658, Note_on_c, 0, 53, 0
3, 74661, Note_on_c, 0, 73, 0
3, 74661, Note_on_c, 0, 59, 0
3, 74667, Note_on_c, 0, 85, 0
3, 74766, Note_on_c, 0, 59, 47
3, 74768, Control_c, 0, 64, 127
3, 74768, Note_on_c, 0, 64, 55
3, 74768, Note_on_c, 0, 82, 65
3, 74769, Note_on_c, 0, 53, 50
3, 74772, Note_on_c, 0, 70, 67
3, 74795, Note_on_c, 0, 53, 0
3, 74795, Note_on_c, 0, 59, 0
3, 74799, Note_on_c, 0, 82, 0
3, 74811, Note_on_c, 0, 70, 0
3, 74820, Note_on_c, 0, 64, 0
3, 74878, Control_c, 0, 64, 0
3, 74892, Note_on_c, 0, 74, 47
3, 74892, Note_on_c, 0, 62, 29
3, 74892, Note_on_c, 0, 79, 50
3, 74894, Note_on_c, 0, 60, 33
3, 74895, Note_on_c, 0, 55, 30
3, 74895, Note_on_c, 0, 65, 30
3, 74897, Note_on_c, 0, 67, 19
3, 74953, Control_c, 0, 64, 127
3, 74989, Note_on_c, 0, 67, 0
3, 75000, Note_on_c, 0, 74, 0
3, 75034, Note_on_c, 0, 79, 0
3, 75073, Note_on_c, 0, 60, 0
3, 75087, Note_on_c, 0, 62, 0
3, 75089, Note_on_c, 0, 65, 0
3, 75094, Note_on_c, 0, 55, 0
3, 75133, Control_c, 0, 64, 0
3, 75142, Note_on_c, 0, 62, 51
3, 75143, Note_on_c, 0, 65, 65
3, 75144, Note_on_c, 0, 60, 60
3, 75145, Note_on_c, 0, 55, 60
3, 75145, Note_on_c, 0, 89, 89
3, 75147, Note_on_c, 0, 85, 87
3, 75178, Note_on_c, 0, 86, 42
3, 75184, Note_on_c, 0, 85, 0
3, 75204, Note_on_c, 0, 89, 0
3, 75205, Note_on_c, 0, 86, 0
3, 75206, Note_on_c, 0, 65, 0
3, 75207, Note_on_c, 0, 55, 0
3, 75210, Note_on_c, 0, 60, 0
3, 75212, Note_on_c, 0, 62, 0
3, 75227, Note_on_c, 0, 86, 79
3, 75229, Note_on_c, 0, 62, 36
3, 75231, Note_on_c, 0, 65, 40
3, 75233, Note_on_c, 0, 60, 51
3, 75236, Note_on_c, 0, 55, 39
3, 75257, Note_on_c, 0, 86, 0
3, 75266, Control_c, 0, 64, 127
3, 75269, Note_on_c, 0, 65, 0
3, 75276, Note_on_c, 0, 60, 0
3, 75279, Note_on_c, 0, 62, 0
3, 75283, Note_on_c, 0, 55, 0
3, 75297, Note_on_c, 0, 62, 24
3, 75298, Note_on_c, 0, 65, 47
3, 75300, Note_on_c, 0, 55, 24
3, 75300, Note_on_c, 0, 60, 28
3, 75301, Note_on_c, 0, 82, 62
3, 75358, Note_on_c, 0, 65, 0
3, 75360, Note_on_c, 0, 60, 0
3, 75363, Note_on_c, 0, 62, 0
3, 75363, Note_on_c, 0, 55, 0
3, 75368, Note_on_c, 0, 82, 0
3, 75588, Note_on_c, 0, 65, 62
3, 75588, Note_on_c, 0, 96, 96
3, 75589, Note_on_c, 0, 62, 47
3, 75590, Note_on_c, 0, 60, 54
3, 75593, Note_on_c, 0, 55, 51
3, 75598, Control_c, 0, 64, 0
3, 75620, Note_on_c, 0, 96, 0
3, 75633, Note_on_c, 0, 65, 0
3, 75634, Control_c, 0, 64, 127
3, 75635, Note_on_c, 0, 55, 0
3, 75636, Note_on_c, 0, 60, 0
3, 75637, Note_on_c, 0, 93, 37
3, 75641, Note_on_c, 0, 62, 0
3, 75647, Note_on_c, 0, 93, 0
3, 75666, Note_on_c, 0, 62, 49
3, 75668, Note_on_c, 0, 96, 96
3, 75668, Note_on_c, 0, 65, 70
3, 75669, Note_on_c, 0, 55, 63
3, 75669, Note_on_c, 0, 84, 90
3, 75670, Note_on_c, 0, 60, 63
3, 75732, Note_on_c, 0, 96, 0
3, 75733, Note_on_c, 0, 84, 0
3, 75738, Note_on_c, 0, 65, 0
3, 75739, Note_on_c, 0, 62, 0
3, 75743, Note_on_c, 0, 60, 0
3, 75743, Note_on_c, 0, 93, 83
3, 75760, Note_on_c, 0, 55, 0
3, 75789, Note_on_c, 0, 93, 0
3, 75811, Note_on_c, 0, 89, 74
3, 75816, Note_on_c, 0, 56, 42
3, 75819, Note_on_c, 0, 59, 50
3, 75820, Note_on_c, 0, 63, 46
3, 75837, Note_on_c, 0, 89, 0
3, 75851, Control_c, 0, 64, 0
3, 75867, Note_on_c, 0, 53, 1
3, 75876, Note_on_c, 0, 59, 0
3, 75884, Note_on_c, 0, 95, 71
3, 75886, Note_on_c, 0, 83, 63
3, 75898, Note_on_c, 0, 59, 26
3, 75909, Control_c, 0, 64, 127
3, 75912, Note_on_c, 0, 95, 0
3, 75916, Control_c, 0, 64, 0
3, 75917, Note_on_c, 0, 83, 0
3, 75927, Note_on_c, 0, 59, 0
3, 75933, Note_on_c, 0, 63, 0
3, 75934, Note_on_c, 0, 53, 0
3, 75940, Note_on_c, 0, 56, 0
3, 75959, Note_on_c, 0, 63, 33
3, 75963, Note_on_c, 0, 94, 69
3, 75966, Control_c, 0, 64, 127
3, 75967, Note_on_c, 0, 82, 53
3, 75967, Note_on_c, 0, 56, 32
3, 75968, Note_on_c, 0, 59, 44
3, 75970, Note_on_c, 0, 53, 24
3, 76006, Note_on_c, 0, 59, 0
3, 76008, Note_on_c, 0, 53, 0
3, 76014, Note_on_c, 0, 94, 0
3, 76015, Note_on_c, 0, 63, 0
3, 76018, Note_on_c, 0, 82, 0
3, 76020, Note_on_c, 0, 56, 0
3, 76047, Note_on_c, 0, 63, 38
3, 76049, Note_on_c, 0, 92, 46
3, 76050, Note_on_c, 0, 56, 32
3, 76051, Note_on_c, 0, 59, 40
3, 76052, Note_on_c, 0, 80, 47
3, 76056, Note_on_c, 0, 53, 36
3, 76082, Note_on_c, 0, 92, 0
3, 76085, Note_on_c, 0, 80, 0
3, 76094, Control_c, 0, 64, 0
3, 76107, Note_on_c, 0, 63, 0
3, 76109, Note_on_c, 0, 91, 44
3, 76115, Note_on_c, 0, 79, 40
3, 76123, Note_on_c, 0, 53, 0
3, 76135, Note_on_c, 0, 91, 0
3, 76137, Note_on_c, 0, 59, 0
3, 76141, Note_on_c, 0, 79, 0
3, 76143, Note_on_c, 0, 56, 0
3, 76156, Control_c, 0, 64, 127
3, 76178, Note_on_c, 0, 89, 64
3, 76178, Control_c, 0, 64, 0
3, 76179, Note_on_c, 0, 63, 39
3, 76179, Note_on_c, 0, 56, 27
3, 76182, Note_on_c, 0, 59, 31
3, 76184, Note_on_c, 0, 77, 38
3, 76194, Note_on_c, 0, 77, 0
3, 76194, Note_on_c, 0, 59, 0
3, 76196, Note_on_c, 0, 89, 0
3, 76199, Note_on_c, 0, 63, 0
3, 76218, Note_on_c, 0, 56, 0
3, 76224, Control_c, 0, 64, 127
3, 76292, Note_on_c, 0, 58, 59
3, 76292, Note_on_c, 0, 88, 64
3, 76294, Note_on_c, 0, 76, 60
3, 76295, Note_on_c, 0, 62, 49
3, 76297, Note_on_c, 0, 52, 43
3, 76300, Control_c, 0, 64, 0
3, 76301, Note_on_c, 0, 88, 0
3, 76302, Note_on_c, 0, 62, 0
3, 76303, Note_on_c, 0, 76, 0
3, 76309, Note_on_c, 0, 58, 0
3, 76317, Note_on_c, 0, 52, 0
3, 76342, Control_c, 0, 64, 127
3, 76407, Note_on_c, 0, 48, 66
3, 76408, Note_on_c, 0, 36, 46
3, 76410, Note_on_c, 0, 38, 44
3, 76426, Note_on_c, 0, 36, 0
3, 76426, Control_c, 0, 64, 0
3, 76428, Note_on_c, 0, 38, 0
3, 76445, Note_on_c, 0, 36, 15
3, 76461, Note_on_c, 0, 60, 50
3, 76488, Note_on_c, 0, 60, 0
3, 76535, Note_on_c, 0, 60, 64
3, 76555, Note_on_c, 0, 60, 0
3, 76575, Note_on_c, 0, 62, 60
3, 76586, Note_on_c, 0, 62, 0
3, 76651, Note_on_c, 0, 36, 0
3, 76651, Note_on_c, 0, 62, 66
3, 76666, Note_on_c, 0, 48, 0
3, 76667, Note_on_c, 0, 62, 0
3, 76692, Note_on_c, 0, 64, 53
3, 76707, Note_on_c, 0, 64, 0
3, 76714, Control_c, 0, 64, 127
3, 76773, Note_on_c, 0, 64, 64
3, 76786, Note_on_c, 0, 64, 0
3, 76799, Control_c, 0, 64, 0
3, 76813, Note_on_c, 0, 58, 34
3, 76813, Note_on_c, 0, 65, 56
3, 76815, Note_on_c, 0, 62, 27
3, 76817, Note_on_c, 0, 57, 33
3, 76835, Note_on_c, 0, 57, 0
3, 76836, Note_on_c, 0, 62, 0
3, 76836, Note_on_c, 0, 65, 0
3, 76837, Control_c, 0, 64, 127
3, 76849, Note_on_c, 0, 58, 0
3, 76895, Note_on_c, 0, 65, 77
3, 76895, Note_on_c, 0, 58, 48
3, 76897, Note_on_c, 0, 53, 48
3, 76897, Note_on_c, 0, 57, 48
3, 76897, Note_on_c, 0, 62, 48
3, 76906, Note_on_c, 0, 53, 0
3, 76907, Note_on_c, 0, 57, 0
3, 76907, Note_on_c, 0, 62, 0
3, 76911, Note_on_c, 0, 65, 0
3, 76915, Control_c, 0, 64, 0
3, 76919, Note_on_c, 0, 58, 0
3, 76932, Note_on_c, 0, 62, 50
3, 76932, Note_on_c, 0, 58, 37
3, 76934, Note_on_c, 0, 67, 63
3, 76936, Note_on_c, 0, 53, 48
3, 76936, Note_on_c, 0, 57, 45
3, 76958, Control_c, 0, 64, 127
3, 76977, Note_on_c, 0, 62, 0
3, 76981, Note_on_c, 0, 57, 0
3, 76982, Note_on_c, 0, 53, 0
3, 76985, Note_on_c, 0, 67, 0
3, 76988, Note_on_c, 0, 58, 0
3, 77014, Note_on_c, 0, 67, 58
3, 77017, Note_on_c, 0, 62, 42
3, 77018, Note_on_c, 0, 58, 37
3, 77022, Note_on_c, 0, 57, 32
3, 77029, Note_on_c, 0, 62, 0
3, 77030, Note_on_c, 0, 67, 0
3, 77032, Note_on_c, 0, 57, 0
3, 77038, Control_c, 0, 64, 0
3, 77040, Note_on_c, 0, 58, 0
3, 77054, Note_on_c, 0, 62, 41
3, 77054, Note_on_c, 0, 69, 58
3, 77057, Note_on_c, 0, 58, 37
3, 77058, Note_on_c, 0, 53, 26
3, 77059, Note_on_c, 0, 57, 42
3, 77064, Control_c, 0, 64, 127
3, 77083, Note_on_c, 0, 62, 0
3, 77092, Note_on_c, 0, 57, 0
3, 77097, Note_on_c, 0, 53, 0
3, 77098, Note_on_c, 0, 58, 0
3, 77099, Note_on_c, 0, 69, 0
3, 77135, Note_on_c, 0, 62, 50
3, 77136, Note_on_c, 0, 70, 67
3, 77136, Note_on_c, 0, 58, 42
3, 77138, Note_on_c, 0, 57, 37
3, 77140, Note_on_c, 0, 53, 35
3, 77146, Control_c, 0, 64, 0
3, 77150, Note_on_c, 0, 57, 0
3, 77151, Note_on_c, 0, 62, 0
3, 77152, Note_on_c, 0, 53, 0
3, 77162, Note_on_c, 0, 58, 0
3, 77165, Note_on_c, 0, 70, 0
3, 77180, Control_c, 0, 64, 127
3, 77283, Control_c, 0, 64, 0
3, 77291, Note_on_c, 0, 62, 51
3, 77292, Note_on_c, 0, 57, 54
3, 77295, Note_on_c, 0, 58, 34
3, 77403, Control_c, 0, 64, 127
3, 77420, Note_on_c, 0, 62, 0
3, 77424, Note_on_c, 0, 57, 0
3, 77436, Note_on_c, 0, 58, 0
3, 77486, Note_on_c, 0, 57, 44
3, 77487, Note_on_c, 0, 62, 50
3, 77488, Note_on_c, 0, 58, 36
3, 77502, Control_c, 0, 64, 0
3, 77533, Control_c, 0, 64, 127
3, 77583, Note_on_c, 0, 58, 0
3, 77615, Note_on_c, 0, 58, 30
3, 77646, Control_c, 0, 64, 0
3, 77661, Note_on_c, 0, 62, 0
3, 77661, Note_on_c, 0, 84, 89
3, 77676, Control_c, 0, 64, 127
3, 77680, Note_on_c, 0, 58, 0
3, 77722, Note_on_c, 0, 81, 45
3, 77727, Note_on_c, 0, 84, 0
3, 77734, Note_on_c, 0, 81, 0
3, 77734, Note_on_c, 0, 77, 53
3, 77739, Note_on_c, 0, 62, 22
3, 77742, Note_on_c, 0, 58, 32
3, 77761, Note_on_c, 0, 62, 0
3, 77761, Note_on_c, 0, 77, 0
3, 77765, Note_on_c, 0, 74, 44
3, 77779, Control_c, 0, 64, 0
3, 77786, Note_on_c, 0, 74, 0
3, 77796, Note_on_c, 0, 82, 80
3, 77831, Note_on_c, 0, 58, 0
3, 77836, Note_on_c, 0, 82, 0
3, 77841, Note_on_c, 0, 79, 36
3, 77857, Note_on_c, 0, 76, 46
3, 77862, Note_on_c, 0, 79, 0
3, 77870, Note_on_c, 0, 76, 0
3, 77882, Note_on_c, 0, 72, 41
3, 77892, Note_on_c, 0, 72, 0
3, 77912, Note_on_c, 0, 81, 89
3, 77940, Note_on_c, 0, 57, 0
3, 77957, Control_c, 0, 64, 127
3, 77973, Note_on_c, 0, 81, 0
3, 77975, Note_on_c, 0, 79, 32
3, 77976, Note_on_c, 0, 77, 54
3, 77985, Note_on_c, 0, 74, 58
3, 77989, Note_on_c, 0, 79, 0
3, 77997, Control_c, 0, 64, 0
3, 78004, Note_on_c, 0, 77, 0
3, 78010, Note_on_c, 0, 74, 0
3, 78014, Note_on_c, 0, 70, 30
3, 78058, Note_on_c, 0, 70, 0
3, 78070, Control_c, 0, 64, 127
3, 78099, Note_on_c, 0, 58, 38
3, 78100, Note_on_c, 0, 62, 36
3, 78101, Control_c, 0, 64, 0
3, 78108, Note_on_c, 0, 58, 0
3, 78109, Note_on_c, 0, 62, 0
3, 78154, Control_c, 0, 64, 127
3, 78214, Note_on_c, 0, 58, 67
3, 78214, Note_on_c, 0, 81, 88
3, 78214, Note_on_c, 0, 74, 73
3, 78215, Note_on_c, 0, 62, 71
3, 78216, Note_on_c, 0, 57, 62
3, 78217, Note_on_c, 0, 70, 67
3, 78222, Control_c, 0, 64, 0
3, 78243, Note_on_c, 0, 74, 0
3, 78259, Note_on_c, 0, 70, 0
3, 78271, Note_on_c, 0, 79, 44
3, 78276, Note_on_c, 0, 58, 0
3, 78279, Note_on_c, 0, 78, 37
3, 78280, Control_c, 0, 64, 127
3, 78289, Note_on_c, 0, 62, 0
3, 78290, Note_on_c, 0, 81, 0
3, 78299, Note_on_c, 0, 74, 34
3, 78308, Note_on_c, 0, 79, 0
3, 78324, Note_on_c, 0, 78, 0
3, 78325, Note_on_c, 0, 74, 0
3, 78326, Note_on_c, 0, 70, 57
3, 78339, Note_on_c, 0, 58, 33
3, 78353, Note_on_c, 0, 70, 0
3, 78371, Control_c, 0, 64, 0
3, 78374, Note_on_c, 0, 78, 70
3, 78377, Note_on_c, 0, 62, 57
3, 78380, Note_on_c, 0, 67, 44
3, 78413, Note_on_c, 0, 57, 0
3, 78422, Note_on_c, 0, 67, 0
3, 78437, Note_on_c, 0, 74, 53
3, 78439, Note_on_c, 0, 58, 0
3, 78448, Note_on_c, 0, 78, 0
3, 78455, Note_on_c, 0, 70, 60
3, 78466, Note_on_c, 0, 62, 0
3, 78470, Note_on_c, 0, 74, 0
3, 78480, Note_on_c, 0, 70, 0
3, 78492, Note_on_c, 0, 67, 30
3, 78501, Note_on_c, 0, 67, 0
3, 78570, Note_on_c, 0, 62, 48
3, 78572, Note_on_c, 0, 58, 37
3, 78578, Note_on_c, 0, 62, 0
3, 78584, Note_on_c, 0, 58, 0
3, 78643, Control_c, 0, 64, 127
3, 78698, Note_on_c, 0, 58, 56
3, 78699, Note_on_c, 0, 62, 60
3, 78701, Note_on_c, 0, 57, 51
3, 78708, Control_c, 0, 64, 0
3, 78779, Note_on_c, 0, 74, 80
3, 78792, Control_c, 0, 64, 127
3, 78813, Note_on_c, 0, 74, 0
3, 78824, Note_on_c, 0, 62, 0
3, 78828, Note_on_c, 0, 58, 0
3, 78829, Note_on_c, 0, 69, 25
3, 78839, Note_on_c, 0, 69, 0
3, 78848, Note_on_c, 0, 57, 0
3, 78848, Control_c, 0, 64, 0
3, 78861, Note_on_c, 0, 72, 80
3, 78864, Note_on_c, 0, 62, 53
3, 78865, Note_on_c, 0, 58, 50
3, 78866, Note_on_c, 0, 57, 17
3, 78914, Control_c, 0, 64, 127
3, 78921, Note_on_c, 0, 72, 0
3, 78941, Note_on_c, 0, 70, 79
3, 78959, Control_c, 0, 64, 0
3, 78979, Note_on_c, 0, 62, 0
3, 78982, Note_on_c, 0, 70, 0
3, 79004, Note_on_c, 0, 66, 47
3, 79005, Note_on_c, 0, 58, 0
3, 79058, Note_on_c, 0, 66, 0
3, 79066, Note_on_c, 0, 62, 41
3, 79067, Note_on_c, 0, 69, 71
3, 79069, Control_c, 0, 64, 127
3, 79073, Note_on_c, 0, 58, 36
3, 79076, Control_c, 0, 64, 0
3, 79087, Note_on_c, 0, 62, 0
3, 79095, Note_on_c, 0, 69, 0
3, 79098, Note_on_c, 0, 58, 0
3, 79108, Note_on_c, 0, 57, 0
3, 79122, Note_on_c, 0, 67, 40
3, 79158, Control_c, 0, 64, 127
3, 79179, Note_on_c, 0, 67, 0
3, 79189, Note_on_c, 0, 58, 37
3, 79191, Note_on_c, 0, 62, 43
3, 79216, Note_on_c, 0, 62, 0
3, 79216, Note_on_c, 0, 58, 0
3, 79216, Control_c, 0, 64, 0
3, 79240, Note_on_c, 0, 65, 68
3, 79281, Control_c, 0, 64, 127
3, 79299, Note_on_c, 0, 65, 0
3, 79317, Note_on_c, 0, 62, 27
3, 79318, Note_on_c, 0, 58, 26
3, 79328, Control_c, 0, 64, 0
3, 79330, Note_on_c, 0, 62, 0
3, 79339, Note_on_c, 0, 58, 0
3, 79359, Note_on_c, 0, 63, 52
3, 79372, Control_c, 0, 64, 127
3, 79413, Note_on_c, 0, 63, 0
3, 79430, Note_on_c, 0, 46, 25
3, 79431, Note_on_c, 0, 56, 20
3, 79431, Note_on_c, 0, 64, 59
3, 79440, Note_on_c, 0, 46, 0
3, 79442, Note_on_c, 0, 56, 0
3, 79447, Control_c, 0, 64, 0
3, 79466, Note_on_c, 0, 64, 0
3, 79480, Control_c, 0, 64, 127
3, 79491, Note_on_c, 0, 67, 33
3, 79500, Note_on_c, 0, 60, 20
3, 79518, Note_on_c, 0, 60, 0
3, 79526, Note_on_c, 0, 51, 43
3, 79529, Note_on_c, 0, 67, 0
3, 79539, Note_on_c, 0, 51, 0
3, 79558, Control_c, 0, 64, 0
3, 79575, Note_on_c, 0, 73, 69
3, 79575, Note_on_c, 0, 56, 33
3, 79579, Note_on_c, 0, 61, 45
3, 79579, Note_on_c, 0, 46, 40
3, 79584, Control_c, 0, 64, 127
3, 79623, Note_on_c, 0, 56, 0
3, 79624, Note_on_c, 0, 61, 0
3, 79626, Note_on_c, 0, 73, 0
3, 79631, Note_on_c, 0, 46, 0
3, 79656, Control_c, 0, 64, 0
3, 79661, Note_on_c, 0, 74, 53
3, 79663, Note_on_c, 0, 67, 39
3, 79663, Note_on_c, 0, 55, 46
3, 79663, Note_on_c, 0, 62, 49
3, 79664, Note_on_c, 0, 45, 47
3, 79665, Note_on_c, 0, 71, 33
3, 79668, Note_on_c, 0, 72, 33
3, 79676, Note_on_c, 0, 45, 0
3, 79678, Note_on_c, 0, 72, 0
3, 79681, Note_on_c, 0, 62, 0
3, 79686, Note_on_c, 0, 55, 0
3, 79686, Control_c, 0, 64, 127
3, 79687, Note_on_c, 0, 67, 0
3, 79696, Note_on_c, 0, 71, 0
3, 79703, Note_on_c, 0, 74, 0
3, 79777, Note_on_c, 0, 86, 81
3, 79778, Note_on_c, 0, 74, 74
3, 79782, Note_on_c, 0, 64, 58
3, 79783, Note_on_c, 0, 60, 58
3, 79783, Note_on_c, 0, 59, 55
3, 79787, Note_on_c, 0, 55, 43
3, 79796, Control_c, 0, 64, 0
3, 79810, Note_on_c, 0, 86, 0
3, 79816, Note_on_c, 0, 74, 0
3, 79820, Control_c, 0, 64, 127
3, 79824, Note_on_c, 0, 64, 0
3, 79826, Note_on_c, 0, 55, 0
3, 79830, Note_on_c, 0, 59, 0
3, 79830, Note_on_c, 0, 60, 0
3, 79851, Note_on_c, 0, 64, 44
3, 79854, Note_on_c, 0, 83, 66
3, 79855, Note_on_c, 0, 71, 61
3, 79856, Note_on_c, 0, 60, 55
3, 79858, Note_on_c, 0, 55, 32
3, 79859, Note_on_c, 0, 59, 41
3, 79881, Note_on_c, 0, 71, 0
3, 79889, Note_on_c, 0, 55, 0
3, 79891, Note_on_c, 0, 64, 0
3, 79894, Note_on_c, 0, 83, 0
3, 79896, Note_on_c, 0, 59, 0
3, 79896, Note_on_c, 0, 60, 0
3, 79933, Control_c, 0, 64, 0
3, 79953, Control_c, 0, 64, 127
3, 80023, Note_on_c, 0, 60, 60
3, 80023, Note_on_c, 0, 64, 52
3, 80024, Note_on_c, 0, 98, 74
3, 80024, Note_on_c, 0, 59, 48
3, 80026, Note_on_c, 0, 86, 65
3, 80026, Note_on_c, 0, 55, 55
3, 80031, Control_c, 0, 64, 0
3, 80045, Note_on_c, 0, 64, 0
3, 80047, Note_on_c, 0, 55, 0
3, 80048, Note_on_c, 0, 60, 0
3, 80051, Note_on_c, 0, 98, 0
3, 80052, Note_on_c, 0, 59, 0
3, 80052, Note_on_c, 0, 86, 0
3, 80068, Control_c, 0, 64, 127
3, 80096, Note_on_c, 0, 95, 53
3, 80097, Note_on_c, 0, 83, 63
3, 80097, Note_on_c, 0, 64, 48
3, 80098, Note_on_c, 0, 55, 55
3, 80099, Note_on_c, 0, 60, 47
3, 80101, Note_on_c, 0, 59, 27
3, 80113, Note_on_c, 0, 59, 0
3, 80134, Note_on_c, 0, 60, 0
3, 80136, Note_on_c, 0, 64, 0
3, 80139, Note_on_c, 0, 83, 0
3, 80141, Note_on_c, 0, 55, 0
3, 80143, Note_on_c, 0, 95, 0
3, 80155, Control_c, 0, 64, 0
3, 80182, Note_on_c, 0, 64, 42
3, 80186, Note_on_c, 0, 60, 44
3, 80186, Note_on_c, 0, 96, 81
3, 80188, Note_on_c, 0, 84, 57
3, 80189, Note_on_c, 0, 54, 36
3, 80195, Note_on_c, 0, 60, 0
3, 80197, Note_on_c, 0, 84, 0
3, 80200, Note_on_c, 0, 64, 0
3, 80203, Note_on_c, 0, 96, 0
3, 80207, Note_on_c, 0, 54, 0
3, 80268, Note_on_c, 0, 92, 75
3, 80268, Note_on_c, 0, 80, 67
3, 80275, Note_on_c, 0, 64, 46
3, 80275, Note_on_c, 0, 54, 44
3, 80278, Note_on_c, 0, 60, 34
3, 80287, Control_c, 0, 64, 127
3, 80342, Note_on_c, 0, 64, 0
3, 80397, Control_c, 0, 64, 0
3, 80401, Note_on_c, 0, 60, 0
3, 80401, Note_on_c, 0, 92, 0
3, 80402, Note_on_c, 0, 80, 0
3, 80402, Note_on_c, 0, 54, 0
3, 80417, Note_on_c, 0, 54, 38
3, 80424, Note_on_c, 0, 62, 31
3, 80425, Note_on_c, 0, 60, 25
3, 80450, Note_on_c, 0, 62, 0
3, 80463, Note_on_c, 0, 60, 0
3, 80471, Note_on_c, 0, 54, 0
3, 80540, Control_c, 0, 64, 127
3, 80613, Note_on_c, 0, 65, 35
3, 80615, Note_on_c, 0, 61, 37
3, 80619, Note_on_c, 0, 60, 34
3, 80621, Note_on_c, 0, 56, 32
3, 80627, Control_c, 0, 64, 0
3, 80735, Control_c, 0, 64, 127
3, 80737, Note_on_c, 0, 84, 62
3, 80739, Control_c, 0, 64, 0
3, 80741, Note_on_c, 0, 72, 55
3, 80747, Note_on_c, 0, 84, 0
3, 80751, Note_on_c, 0, 72, 0
3, 80753, Note_on_c, 0, 65, 0
3, 80778, Note_on_c, 0, 61, 0
3, 80778, Note_on_c, 0, 56, 0
3, 80779, Note_on_c, 0, 60, 0
3, 80796, Note_on_c, 0, 82, 25
3, 80804, Note_on_c, 0, 82, 0
3, 80973, Note_on_c, 0, 61, 46
3, 80974, Note_on_c, 0, 75, 74
3, 80976, Note_on_c, 0, 87, 75
3, 80976, Note_on_c, 0, 65, 32
3, 80986, Note_on_c, 0, 65, 0
3, 80988, Note_on_c, 0, 75, 0
3, 80992, Note_on_c, 0, 87, 0
3, 80994, Note_on_c, 0, 61, 0
3, 81030, Note_on_c, 0, 72, 49
3, 81035, Note_on_c, 0, 84, 24
3, 81039, Note_on_c, 0, 72, 0
3, 81050, Note_on_c, 0, 84, 0
3, 81124, Control_c, 0, 64, 127
3, 81205, Note_on_c, 0, 61, 55
3, 81208, Note_on_c, 0, 88, 71
3, 81208, Note_on_c, 0, 55, 57
3, 81210, Note_on_c, 0, 65, 50
3, 81212, Note_on_c, 0, 76, 66
3, 81222, Note_on_c, 0, 65, 0
3, 81226, Note_on_c, 0, 88, 0
3, 81226, Control_c, 0, 64, 0
3, 81234, Note_on_c, 0, 76, 0
3, 81247, Note_on_c, 0, 55, 0
3, 81249, Note_on_c, 0, 61, 0
3, 81264, Note_on_c, 0, 85, 53
3, 81266, Note_on_c, 0, 73, 49
3, 81268, Note_on_c, 0, 55, 26
3, 81269, Note_on_c, 0, 65, 35
3, 81270, Note_on_c, 0, 61, 46
3, 81288, Note_on_c, 0, 73, 0
3, 81293, Note_on_c, 0, 55, 0
3, 81296, Note_on_c, 0, 65, 0
3, 81305, Note_on_c, 0, 61, 0
3, 81311, Note_on_c, 0, 85, 0
3, 81356, Control_c, 0, 64, 127
3, 81446, Note_on_c, 0, 61, 58
3, 81450, Note_on_c, 0, 64, 45
3, 81458, Note_on_c, 0, 64, 0
3, 81470, Note_on_c, 0, 61, 0
3, 81473, Control_c, 0, 64, 0
3, 81492, Control_c, 0, 64, 127
3, 81503, Note_on_c, 0, 91, 76
3, 81503, Note_on_c, 0, 79, 76
3, 81504, Note_on_c, 0, 61, 65
3, 81505, Note_on_c, 0, 64, 58
3, 81506, Note_on_c, 0, 55, 62
3, 81510, Note_on_c, 0, 90, 42
3, 81523, Note_on_c, 0, 55, 0
3, 81527, Note_on_c, 0, 64, 0
3, 81532, Note_on_c, 0, 79, 0
3, 81540, Note_on_c, 0, 91, 0
3, 81541, Note_on_c, 0, 61, 0
3, 81545, Note_on_c, 0, 90, 0
3, 81576, Note_on_c, 0, 61, 71
3, 81581, Note_on_c, 0, 64, 61
3, 81582, Note_on_c, 0, 55, 64
3, 81582, Note_on_c, 0, 95, 71
3, 81582, Note_on_c, 0, 83, 74
3, 81585, Note_on_c, 0, 93, 64
3, 81590, Note_on_c, 0, 83, 0
3, 81591, Control_c, 0, 64, 0
3, 81593, Note_on_c, 0, 93, 0
3, 81599, Note_on_c, 0, 64, 0
3, 81602, Note_on_c, 0, 55, 0
3, 81603, Note_on_c, 0, 95, 0
3, 81611, Note_on_c, 0, 61, 0
3, 81615, Control_c, 0, 64, 127
3, 81634, Note_on_c, 0, 64, 73
3, 81635, Note_on_c, 0, 60, 69
3, 81635, Note_on_c, 0, 59, 61
3, 81636, Note_on_c, 0, 98, 87
3, 81637, Note_on_c, 0, 86, 80
3, 81638, Note_on_c, 0, 55, 60
3, 81693, Note_on_c, 0, 55, 0
3, 81694, Note_on_c, 0, 98, 0
3, 81696, Note_on_c, 0, 59, 0
3, 81696, Note_on_c, 0, 86, 0
3, 81696, Note_on_c, 0, 60, 0
3, 81698, Note_on_c, 0, 64, 0
3, 81716, Control_c, 0, 64, 0
3, 81726, Note_on_c, 0, 64, 47
3, 81727, Note_on_c, 0, 60, 56
3, 81728, Note_on_c, 0, 59, 47
3, 81729, Note_on_c, 0, 55, 52
3, 81729, Note_on_c, 0, 98, 71
3, 81731, Note_on_c, 0, 86, 65
3, 81745, Control_c, 0, 64, 127
3, 81752, Note_on_c, 0, 98, 0
3, 81760, Note_on_c, 0, 86, 0
3, 81767, Note_on_c, 0, 55, 0
3, 81770, Note_on_c, 0, 60, 0
3, 81771, Note_on_c, 0, 64, 0
3, 81773, Note_on_c, 0, 59, 0
3, 81805, Note_on_c, 0, 95, 69
3, 81808, Note_on_c, 0, 83, 60
3, 81810, Control_c, 0, 64, 0
3, 81811, Note_on_c, 0, 64, 49
3, 81812, Note_on_c, 0, 60, 58
3, 81812, Note_on_c, 0, 59, 50
3, 81812, Note_on_c, 0, 55, 50
3, 81817, Note_on_c, 0, 88, 24
3, 81825, Note_on_c, 0, 88, 0
3, 81838, Note_on_c, 0, 95, 0
3, 81844, Note_on_c, 0, 83, 0
3, 81844, Control_c, 0, 64, 127
3, 81845, Note_on_c, 0, 64, 0
3, 81846, Note_on_c, 0, 55, 0
3, 81849, Note_on_c, 0, 59, 0
3, 81852, Note_on_c, 0, 60, 0
3, 81885, Note_on_c, 0, 94, 64
3, 81887, Note_on_c, 0, 82, 59
3, 81888, Note_on_c, 0, 60, 39
3, 81888, Note_on_c, 0, 64, 38
3, 81888, Note_on_c, 0, 55, 48
3, 81890, Note_on_c, 0, 59, 41
3, 81914, Note_on_c, 0, 82, 0
3, 81914, Note_on_c, 0, 94, 0
3, 81915, Note_on_c, 0, 55, 0
3, 81915, Note_on_c, 0, 64, 0
3, 81926, Note_on_c, 0, 59, 0
3, 81931, Note_on_c, 0, 60, 0
3, 81952, Control_c, 0, 64, 0
3, 81965, Note_on_c, 0, 92, 44
3, 81968, Note_on_c, 0, 55, 52
3, 81969, Control_c, 0, 64, 127
3, 81969, Note_on_c, 0, 80, 40
3, 81972, Note_on_c, 0, 64, 30
3, 81973, Note_on_c, 0, 60, 36
3, 81980, Note_on_c, 0, 87, 27
3, 81991, Note_on_c, 0, 87, 0
3, 81991, Note_on_c, 0, 64, 0
3, 81997, Note_on_c, 0, 55, 0
3, 81997, Note_on_c, 0, 60, 0
3, 82013, Note_on_c, 0, 80, 0
3, 82021, Note_on_c, 0, 92, 0
3, 82051, Note_on_c, 0, 93, 60
3, 82053, Note_on_c, 0, 60, 47
3, 82054, Note_on_c, 0, 64, 43
3, 82054, Note_on_c, 0, 81, 44
3, 82055, Note_on_c, 0, 88, 50
3, 82056, Control_c, 0, 64, 0
3, 82056, Note_on_c, 0, 54, 47
3, 82079, Note_on_c, 0, 93, 0
3, 82081, Note_on_c, 0, 88, 0
3, 82087, Control_c, 0, 64, 127
3, 82089, Note_on_c, 0, 64, 0
3, 82091, Note_on_c, 0, 81, 0
3, 82096, Note_on_c, 0, 60, 0
3, 82115, Note_on_c, 0, 54, 0
3, 82169, Note_on_c, 0, 69, 74
3, 82175, Note_on_c, 0, 65, 64
3, 82176, Note_on_c, 0, 60, 68
3, 82176, Note_on_c, 0, 62, 55
3, 82176, Note_on_c, 0, 54, 63
3, 82190, Control_c, 0, 64, 0
3, 82211, Note_on_c, 0, 62, 0
3, 82231, Control_c, 0, 64, 127
3, 82270, Note_on_c, 0, 69, 0
3, 82290, Note_on_c, 0, 60, 0
3, 82295, Note_on_c, 0, 54, 0
3, 82300, Note_on_c, 0, 65, 0
3, 82327, Note_on_c, 0, 70, 57
3, 82328, Note_on_c, 0, 54, 37
3, 82330, Note_on_c, 0, 60, 45
3, 82332, Control_c, 0, 64, 0
3, 82333, Note_on_c, 0, 65, 34
3, 82333, Note_on_c, 0, 62, 43
3, 82356, Note_on_c, 0, 65, 0
3, 82356, Note_on_c, 0, 60, 0
3, 82357, Note_on_c, 0, 54, 0
3, 82360, Note_on_c, 0, 62, 0
3, 82378, Note_on_c, 0, 70, 0
3, 82445, Note_on_c, 0, 54, 42
3, 82448, Note_on_c, 0, 60, 38
3, 82451, Note_on_c, 0, 65, 33
3, 82452, Note_on_c, 0, 72, 43
3, 82471, Control_c, 0, 64, 127
3, 82476, Note_on_c, 0, 65, 0
3, 82476, Note_on_c, 0, 60, 0
3, 82490, Note_on_c, 0, 72, 0
3, 82507, Note_on_c, 0, 54, 0
3, 82561, Control_c, 0, 64, 0
3, 82570, Note_on_c, 0, 74, 55
3, 82574, Note_on_c, 0, 64, 26
3, 82575, Note_on_c, 0, 53, 33
3, 82576, Note_on_c, 0, 59, 41
3, 82590, Note_on_c, 0, 69, 18
3, 82611, Control_c, 0, 64, 127
3, 82631, Note_on_c, 0, 74, 0
3, 82632, Note_on_c, 0, 53, 0
3, 82633, Note_on_c, 0, 64, 0
3, 82636, Note_on_c, 0, 59, 0
3, 82637, Note_on_c, 0, 69, 0
3, 82656, Note_on_c, 0, 74, 39
3, 82657, Note_on_c, 0, 69, 61
3, 82662, Note_on_c, 0, 64, 27
3, 82663, Note_on_c, 0, 59, 53
3, 82665, Note_on_c, 0, 53, 27
3, 82671, Control_c, 0, 64, 0
3, 82677, Note_on_c, 0, 74, 0
3, 82682, Note_on_c, 0, 59, 0
3, 82682, Note_on_c, 0, 69, 0
3, 82682, Note_on_c, 0, 64, 0
3, 82706, Note_on_c, 0, 64, 24
3, 82707, Note_on_c, 0, 59, 35
3, 82708, Note_on_c, 0, 69, 44
3, 82710, Note_on_c, 0, 74, 37
3, 82748, Note_on_c, 0, 53, 0
3, 82749, Note_on_c, 0, 69, 0
3, 82749, Note_on_c, 0, 64, 0
3, 82750, Note_on_c, 0, 59, 0
3, 82752, Note_on_c, 0, 74, 0
3, 82761, Control_c, 0, 64, 127
3, 82777, Note_on_c, 0, 74, 37
3, 82781, Note_on_c, 0, 69, 54
3, 82784, Note_on_c, 0, 59, 37
3, 82784, Note_on_c, 0, 64, 33
3, 82788, Note_on_c, 0, 53, 28
3, 82794, Control_c, 0, 64, 0
3, 82803, Note_on_c, 0, 69, 0
3, 82805, Note_on_c, 0, 64, 0
3, 82806, Note_on_c, 0, 74, 0
3, 82807, Note_on_c, 0, 53, 0
3, 82810, Note_on_c, 0, 59, 0
3, 82836, Note_on_c, 0, 74, 37
3, 82836, Note_on_c, 0, 59, 39
3, 82838, Note_on_c, 0, 69, 53
3, 82838, Note_on_c, 0, 64, 22
3, 82839, Note_on_c, 0, 53, 18
3, 82857, Control_c, 0, 64, 127
3, 82863, Note_on_c, 0, 53, 0
3, 82867, Note_on_c, 0, 69, 0
3, 82871, Note_on_c, 0, 64, 0
3, 82876, Note_on_c, 0, 74, 0
3, 82881, Note_on_c, 0, 59, 0
3, 82905, Control_c, 0, 64, 0
3, 82910, Note_on_c, 0, 74, 43
3, 82912, Note_on_c, 0, 59, 42
3, 82913, Note_on_c, 0, 69, 60
3, 82931, Note_on_c, 0, 69, 0
3, 82931, Note_on_c, 0, 74, 0
3, 82932, Note_on_c, 0, 59, 0
3, 83022, Note_on_c, 0, 66, 32
3, 83022, Note_on_c, 0, 74, 32
3, 83024, Note_on_c, 0, 62, 36
3, 83025, Note_on_c, 0, 58, 32
3, 83027, Note_on_c, 0, 52, 42
3, 83028, Note_on_c, 0, 69, 33
3, 83102, Control_c, 0, 64, 127
3, 83173, Note_on_c, 0, 62, 0
3, 83180, Note_on_c, 0, 66, 0
3, 83182, Note_on_c, 0, 52, 0
3, 83196, Note_on_c, 0, 58, 0
3, 83198, Note_on_c, 0, 69, 0
3, 83215, Note_on_c, 0, 74, 0
3, 83368, Note_on_c, 0, 62, 72
3, 83369, Note_on_c, 0, 96, 91
3, 83371, Note_on_c, 0, 56, 76
3, 83371, Note_on_c, 0, 67, 77
3, 83372, Note_on_c, 0, 91, 87
3, 83373, Note_on_c, 0, 84, 87
3, 83374, Control_c, 0, 64, 0
3, 83412, Control_c, 0, 64, 127
3, 83413, Note_on_c, 0, 96, 0
3, 83417, Note_on_c, 0, 84, 0
3, 83423, Note_on_c, 0, 91, 0
3, 83423, Note_on_c, 0, 56, 0
3, 83426, Note_on_c, 0, 67, 0
3, 83440, Note_on_c, 0, 62, 0
3, 83453, Note_on_c, 0, 67, 53
3, 83453, Note_on_c, 0, 62, 43
3, 83455, Note_on_c, 0, 56, 62
3, 83456, Note_on_c, 0, 94, 71
3, 83460, Note_on_c, 0, 82, 69
3, 83477, Note_on_c, 0, 67, 0
3, 83483, Note_on_c, 0, 62, 0
3, 83492, Note_on_c, 0, 94, 0
3, 83498, Note_on_c, 0, 82, 0
3, 83502, Note_on_c, 0, 56, 0
3, 83535, Note_on_c, 0, 65, 38
3, 83536, Note_on_c, 0, 60, 36
3, 83536, Note_on_c, 0, 61, 47
3, 83538, Note_on_c, 0, 55, 44
3, 83538, Note_on_c, 0, 93, 58
3, 83541, Note_on_c, 0, 81, 34
3, 83541, Note_on_c, 0, 58, 28
3, 83543, Control_c, 0, 64, 0
3, 83544, Note_on_c, 0, 88, 46
3, 83562, Note_on_c, 0, 81, 0
3, 83571, Note_on_c, 0, 88, 0
3, 83574, Note_on_c, 0, 93, 0
3, 83576, Note_on_c, 0, 65, 0
3, 83577, Note_on_c, 0, 55, 0
3, 83579, Note_on_c, 0, 61, 0
3, 83581, Note_on_c, 0, 60, 0
3, 83588, Note_on_c, 0, 58, 0
3, 83626, Note_on_c, 0, 61, 48
3, 83627, Note_on_c, 0, 60, 42
3, 83627, Note_on_c, 0, 93, 55
3, 83627, Note_on_c, 0, 65, 51
3, 83629, Note_on_c, 0, 81, 48
3, 83630, Note_on_c, 0, 88, 45
3, 83632, Note_on_c, 0, 58, 25
3, 83633, Note_on_c, 0, 55, 41
3, 83644, Note_on_c, 0, 55, 0
3, 83646, Note_on_c, 0, 88, 0
3, 83646, Note_on_c, 0, 81, 0
3, 83649, Note_on_c, 0, 65, 0
3, 83649, Note_on_c, 0, 60, 0
3, 83651, Note_on_c, 0, 93, 0
3, 83657, Note_on_c, 0, 61, 0
3, 83659, Note_on_c, 0, 58, 0
3, 83680, Control_c, 0, 64, 127
3, 83708, Note_on_c, 0, 93, 60
3, 83708, Note_on_c, 0, 60, 48
3, 83709, Note_on_c, 0, 61, 49
3, 83711, Note_on_c, 0, 65, 46
3, 83711, Note_on_c, 0, 88, 59
3, 83712, Note_on_c, 0, 81, 48
3, 83713, Note_on_c, 0, 55, 47
3, 83716, Note_on_c, 0, 58, 26
3, 83740, Note_on_c, 0, 81, 0
3, 83741, Note_on_c, 0, 65, 0
3, 83746, Note_on_c, 0, 60, 0
3, 83746, Note_on_c, 0, 55, 0
3, 83747, Note_on_c, 0, 88, 0
3, 83747, Note_on_c, 0, 93, 0
3, 83750, Note_on_c, 0, 61, 0
3, 83754, Note_on_c, 0, 58, 0
3, 83759, Control_c, 0, 64, 0
3, 83779, Note_on_c, 0, 61, 42
3, 83779, Note_on_c, 0, 93, 58
3, 83782, Note_on_c, 0, 65, 44
3, 83782, Note_on_c, 0, 60, 39
3, 83784, Note_on_c, 0, 81, 51
3, 83785, Note_on_c, 0, 88, 47
3, 83785, Control_c, 0, 64, 127
3, 83786, Note_on_c, 0, 55, 37
3, 83790, Note_on_c, 0, 58, 21
3, 83800, Note_on_c, 0, 93, 0
3, 83805, Note_on_c, 0, 81, 0
3, 83805, Note_on_c, 0, 65, 0
3, 83806, Note_on_c, 0, 55, 0
3, 83808, Note_on_c, 0, 60, 0
3, 83818, Note_on_c, 0, 58, 0
3, 83820, Note_on_c, 0, 61, 0
3, 83824, Note_on_c, 0, 88, 0
3, 83858, Note_on_c, 0, 94, 62
3, 83859, Note_on_c, 0, 82, 51
3, 83860, Note_on_c, 0, 61, 36
3, 83863, Note_on_c, 0, 60, 33
3, 83863, Note_on_c, 0, 88, 36
3, 83867, Note_on_c, 0, 65, 25
3, 83868, Control_c, 0, 64, 0
3, 83868, Note_on_c, 0, 55, 33
3, 83873, Note_on_c, 0, 88, 0
3, 83874, Note_on_c, 0, 65, 0
3, 83878, Note_on_c, 0, 82, 0
3, 83879, Note_on_c, 0, 60, 0
3, 83882, Note_on_c, 0, 61, 0
3, 83885, Note_on_c, 0, 94, 0
3, 83888, Note_on_c, 0, 55, 0
3, 83969, Note_on_c, 0, 54, 37
3, 83969, Note_on_c, 0, 64, 35
3, 83970, Note_on_c, 0, 84, 54
3, 83971, Note_on_c, 0, 60, 43
3, 83971, Note_on_c, 0, 96, 57
3, 83973, Note_on_c, 0, 91, 51
3, 83981, Note_on_c, 0, 60, 0
3, 83982, Note_on_c, 0, 96, 0
3, 83982, Note_on_c, 0, 91, 0
3, 83985, Note_on_c, 0, 64, 0
3, 83988, Note_on_c, 0, 84, 0
3, 83997, Note_on_c, 0, 54, 0
3, 84088, Note_on_c, 0, 93, 55
3, 84091, Note_on_c, 0, 54, 37
3, 84093, Note_on_c, 0, 64, 30
3, 84094, Note_on_c, 0, 60, 35
3, 84094, Note_on_c, 0, 81, 33
3, 84094, Note_on_c, 0, 89, 43
3, 84095, Note_on_c, 0, 86, 43
3, 84129, Control_c, 0, 64, 127
3, 84181, Note_on_c, 0, 89, 0
3, 84181, Note_on_c, 0, 93, 0
3, 84184, Note_on_c, 0, 86, 0
3, 84188, Note_on_c, 0, 81, 0
3, 84203, Note_on_c, 0, 64, 0
3, 84206, Note_on_c, 0, 60, 0
3, 84209, Note_on_c, 0, 54, 0
3, 84241, Control_c, 0, 64, 0
3, 84246, Note_on_c, 0, 54, 33
3, 84249, Note_on_c, 0, 64, 28
3, 84250, Note_on_c, 0, 60, 34
3, 84252, Note_on_c, 0, 89, 44
3, 84254, Note_on_c, 0, 77, 38
3, 84257, Note_on_c, 0, 86, 34
3, 84269, Note_on_c, 0, 86, 0
3, 84275, Note_on_c, 0, 89, 0
3, 84276, Note_on_c, 0, 64, 0
3, 84279, Note_on_c, 0, 77, 0
3, 84288, Note_on_c, 0, 60, 0
3, 84291, Note_on_c, 0, 54, 0
3, 84361, Note_on_c, 0, 60, 36
3, 84362, Note_on_c, 0, 54, 35
3, 84363, Note_on_c, 0, 86, 34
3, 84365, Note_on_c, 0, 64, 25
3, 84365, Note_on_c, 0, 74, 34
3, 84371, Note_on_c, 0, 81, 35
3, 84373, Note_on_c, 0, 82, 15
3, 84385, Note_on_c, 0, 81, 0
3, 84386, Note_on_c, 0, 74, 0
3, 84386, Note_on_c, 0, 64, 0
3, 84386, Note_on_c, 0, 82, 0
3, 84388, Note_on_c, 0, 60, 0
3, 84395, Note_on_c, 0, 86, 0
3, 84413, Note_on_c, 0, 54, 0
3, 84483, Note_on_c, 0, 58, 33
3, 84484, Note_on_c, 0, 62, 25
3, 84485, Note_on_c, 0, 53, 33
3, 84485, Note_on_c, 0, 89, 49
3, 84486, Note_on_c, 0, 57, 39
3, 84488, Note_on_c, 0, 77, 26
3, 84490, Note_on_c, 0, 82, 32
3, 84492, Note_on_c, 0, 86, 37
3, 84497, Control_c, 0, 64, 127
3, 84559, Note_on_c, 0, 89, 0
3, 84561, Note_on_c, 0, 86, 0
3, 84575, Note_on_c, 0, 82, 0
3, 84579, Note_on_c, 0, 77, 0
3, 84601, Note_on_c, 0, 62, 0
3, 84611, Note_on_c, 0, 57, 0
3, 84631, Note_on_c, 0, 58, 0
3, 84667, Note_on_c, 0, 53, 0
3, 84715, Note_on_c, 0, 53, 34
3, 84728, Note_on_c, 0, 69, 47
3, 84730, Note_on_c, 0, 62, 44
3, 84730, Note_on_c, 0, 58, 30
3, 84732, Note_on_c, 0, 65, 43
3, 84734, Note_on_c, 0, 53, 0
3, 84737, Control_c, 0, 64, 0
3, 84810, Note_on_c, 0, 48, 87
3, 84812, Note_on_c, 0, 47, 72
3, 84828, Note_on_c, 0, 47, 0
3, 84880, Note_on_c, 0, 58, 0
3, 84885, Note_on_c, 0, 69, 0
3, 84903, Note_on_c, 0, 65, 0
3, 84908, Note_on_c, 0, 62, 0
3, 84964, Note_on_c, 0, 60, 37
3, 84966, Note_on_c, 0, 61, 52
3, 84972, Note_on_c, 0, 60, 0
3, 84983, Note_on_c, 0, 61, 0
3, 84992, Note_on_c, 0, 62, 34
3, 85035, Note_on_c, 0, 62, 0
3, 85065, Note_on_c, 0, 47, 24
3, 85076, Note_on_c, 0, 47, 0
3, 85083, Note_on_c, 0, 65, 80
3, 85158, Note_on_c, 0, 65, 0
3, 85229, Note_on_c, 0, 59, 64
3, 85246, Note_on_c, 0, 58, 37
3, 85257, Note_on_c, 0, 59, 0
3, 85273, Note_on_c, 0, 58, 0
3, 85275, Note_on_c, 0, 56, 60
3, 85296, Note_on_c, 0, 56, 0
3, 85299, Note_on_c, 0, 48, 0
3, 85312, Note_on_c, 0, 53, 57
3, 85388, Note_on_c, 0, 53, 0
3, 85403, Note_on_c, 0, 51, 49
3, 85426, Note_on_c, 0, 51, 0
3, 85448, Note_on_c, 0, 53, 60
3, 85506, Note_on_c, 0, 53, 0
3, 85644, Note_on_c, 0, 33, 50
3, 85648, Note_on_c, 0, 45, 54
3, 85675, Note_on_c, 0, 45, 0
3, 85682, Note_on_c, 0, 33, 0
3, 85699, Note_on_c, 0, 34, 33
3, 85709, Note_on_c, 0, 46, 29
3, 85757, Note_on_c, 0, 34, 0
3, 85772, Note_on_c, 0, 46, 0
3, 85778, Note_on_c, 0, 47, 47
3, 85779, Note_on_c, 0, 35, 44
3, 85812, Note_on_c, 0, 47, 0
3, 85817, Note_on_c, 0, 35, 0
3, 85942, Note_on_c, 0, 48, 46
3, 85944, Note_on_c, 0, 36, 42
3, 85987, Note_on_c, 0, 48, 0
3, 85988, Note_on_c, 0, 36, 0
3, 86085, Control_c, 0, 64, 127
3, 86166, Control_c, 0, 64, 0
3, 86169, Note_on_c, 0, 48, 24
3, 86172, Note_on_c, 0, 66, 42
3, 86175, Note_on_c, 0, 57, 38
3, 86175, Note_on_c, 0, 41, 34
3, 86177, Note_on_c, 0, 62, 29
3, 86239, Control_c, 0, 64, 127
3, 86254, Note_on_c, 0, 57, 0
3, 86270, Note_on_c, 0, 62, 0
3, 86283, Note_on_c, 0, 66, 0
3, 86380, Note_on_c, 0, 81, 37
3, 86381, Note_on_c, 0, 57, 32
3, 86381, Note_on_c, 0, 74, 49
3, 86419, Note_on_c, 0, 81, 0
3, 86436, Note_on_c, 0, 78, 42
3, 86448, Note_on_c, 0, 69, 19
3, 86468, Note_on_c, 0, 74, 0
3, 86480, Note_on_c, 0, 69, 0
3, 86496, Note_on_c, 0, 78, 0
3, 86569, Note_on_c, 0, 93, 58
3, 86573, Note_on_c, 0, 86, 32
3, 86613, Note_on_c, 0, 86, 0
3, 86616, Note_on_c, 0, 93, 0
3, 86623, Note_on_c, 0, 81, 46
3, 86625, Note_on_c, 0, 90, 35
3, 86641, Note_on_c, 0, 81, 0
3, 86653, Note_on_c, 0, 90, 0
3, 86730, Note_on_c, 0, 98, 15
3, 86736, Note_on_c, 0, 105, 9
3, 86771, Note_on_c, 0, 98, 0
3, 86773, Note_on_c, 0, 105, 0
3, 86838, Note_on_c, 0, 105, 53
3, 86842, Note_on_c, 0, 98, 48
3, 86886, Note_on_c, 0, 98, 0
3, 86886, Note_on_c, 0, 105, 0
3, 86897, Note_on_c, 0, 102, 37
3, 86904, Note_on_c, 0, 93, 19
3, 86943, Note_on_c, 0, 102, 0
3, 86948, Note_on_c, 0, 93, 0
3, 87009, Note_on_c, 0, 57, 0
3, 87016, Note_on_c, 0, 41, 0
3, 87023, Note_on_c, 0, 48, 0
3, 87023, End_track
4, 0, Start_track
4, 0, MIDI_port, 0
4, 0, Title_t, "Cymbals"
4, 0, Program_c, 9, 0
4, 0, Control_c, 9, 7, 90
4, 28524, Note_on_c, 9, 53, 51
4, 28536, Note_on_c, 9, 53, 0
4, 28773, Note_on_c, 9, 51, 42
4, 28796, Note_on_c, 9, 51, 0
4, 28801, Note_on_c, 9, 35, 22
4, 28820, Note_on_c, 9, 51, 40
4, 28849, Note_on_c, 9, 51, 0
4, 28849, Note_on_c, 9, 35, 0
4, 28933, Note_on_c, 9, 51, 53
4, 28942, Note_on_c, 9, 51, 0
4, 29013, Note_on_c, 9, 35, 35
4, 29025, Note_on_c, 9, 35, 0
4, 29131, Note_on_c, 9, 51, 38
4, 29142, Note_on_c, 9, 51, 0
4, 29170, Note_on_c, 9, 51, 37
4, 29223, Note_on_c, 9, 51, 0
4, 29245, Note_on_c, 9, 51, 59
4, 29260, Note_on_c, 9, 51, 0
4, 29373, Note_on_c, 9, 51, 35
4, 29384, Note_on_c, 9, 51, 0
4, 29414, Note_on_c, 9, 51, 47
4, 29419, Note_on_c, 9, 44, 46
4, 29449, Note_on_c, 9, 44, 0
4, 29478, Note_on_c, 9, 51, 0
4, 29534, Note_on_c, 9, 51, 54
4, 29565, Note_on_c, 9, 51, 0
4, 29648, Note_on_c, 9, 44, 69
4, 29700, Note_on_c, 9, 44, 0
4, 29723, Note_on_c, 9, 35, 46
4, 29730, Note_on_c, 9, 51, 50
4, 29734, Note_on_c, 9, 35, 0
4, 29748, Note_on_c, 9, 51, 0
4, 29768, Note_on_c, 9, 51, 46
4, 29826, Note_on_c, 9, 51, 0
4, 29895, Note_on_c, 9, 44, 73
4, 29951, Note_on_c, 9, 44, 0
4, 29973, Note_on_c, 9, 51, 34
4, 29986, Note_on_c, 9, 51, 0
4, 30010, Note_on_c, 9, 51, 50
4, 30075, Note_on_c, 9, 51, 0
4, 30138, Note_on_c, 9, 44, 64
4, 30196, Note_on_c, 9, 44, 0
4, 30214, Note_on_c, 9, 51, 43
4, 30234, Note_on_c, 9, 51, 0
4, 30369, Note_on_c, 9, 40, 34
4, 30381, Note_on_c, 9, 44, 44
4, 30401, Note_on_c, 9, 40, 0
4, 30430, Note_on_c, 9, 44, 0
4, 30456, Note_on_c, 9, 51, 29
4, 30476, Note_on_c, 9, 51, 0
4, 30497, Note_on_c, 9, 51, 43
4, 30526, Note_on_c, 9, 51, 0
4, 30572, Note_on_c, 9, 35, 48
4, 30578, Note_on_c, 9, 51, 50
4, 30584, Note_on_c, 9, 35, 0
4, 30587, Note_on_c, 9, 51, 0
4, 30613, Note_on_c, 9, 51, 38
4, 30627, Note_on_c, 9, 51, 0
4, 30816, Note_on_c, 9, 51, 35
4, 30832, Note_on_c, 9, 51, 0
4, 30855, Note_on_c, 9, 51, 50
4, 30911, Note_on_c, 9, 51, 0
4, 30938, Note_on_c, 9, 51, 69
4, 30939, Note_on_c, 9, 35, 50
4, 30963, Note_on_c, 9, 35, 0
4, 30972, Note_on_c, 9, 51, 0
4, 30988, Note_on_c, 9, 35, 33
4, 31042, Note_on_c, 9, 35, 0
4, 31049, Note_on_c, 9, 44, 39
4, 31057, Note_on_c, 9, 51, 36
4, 31063, Note_on_c, 9, 44, 0
4, 31066, Note_on_c, 9, 35, 40
4, 31069, Note_on_c, 9, 51, 0
4, 31081, Note_on_c, 9, 35, 0
4, 31101, Note_on_c, 9, 51, 63
4, 31156, Note_on_c, 9, 51, 0
4, 31177, Note_on_c, 9, 44, 51
4, 31179, Note_on_c, 9, 51, 55
4, 31186, Note_on_c, 9, 44, 0
4, 31201, Note_on_c, 9, 51, 0
4, 31296, Note_on_c, 9, 35, 54
4, 31308, Note_on_c, 9, 35, 0
4, 31337, Note_on_c, 9, 35, 52
4, 31407, Note_on_c, 9, 35, 0
4, 31412, Note_on_c, 9, 51, 40
4, 31425, Note_on_c, 9, 51, 0
4, 31428, Note_on_c, 9, 35, 41
4, 31440, Note_on_c, 9, 35, 0
4, 31452, Note_on_c, 9, 51, 44
4, 31503, Note_on_c, 9, 51, 0
4, 31569, Note_on_c, 9, 51, 77
4, 31622, Note_on_c, 9, 51, 0
4, 31666, Note_on_c, 9, 35, 29
4, 31679, Note_on_c, 9, 35, 0
4, 31695, Note_on_c, 9, 51, 57
4, 31700, Note_on_c, 9, 35, 29
4, 31744, Note_on_c, 9, 51, 0
4, 31755, Note_on_c, 9, 35, 0
4, 31819, Note_on_c, 9, 51, 90
4, 31905, Note_on_c, 9, 51, 0
4, 31989, Note_on_c, 9, 46, 40
4, 32005, Note_on_c, 9, 46, 0
4, 32026, Note_on_c, 9, 51, 43
4, 32036, Note_on_c, 9, 51, 0
4, 32062, Note_on_c, 9, 51, 72
4, 32080, Note_on_c, 9, 46, 52
4, 32095, Note_on_c, 9, 46, 0
4, 32146, Note_on_c, 9, 51, 0
4, 32269, Note_on_c, 9, 51, 39
4, 32282, Note_on_c, 9, 51, 0
4, 32309, Note_on_c, 9, 51, 77
4, 32408, Note_on_c, 9, 51, 0
4, 32509, Note_on_c, 9, 40, 27
4, 32510, Note_on_c, 9, 51, 38
4, 32519, Note_on_c, 9, 40, 0
4, 32523, Note_on_c, 9, 51, 0
4, 32546, Note_on_c, 9, 51, 61
4, 32587, Note_on_c, 9, 40, 57
4, 32597, Note_on_c, 9, 40, 0
4, 32619, Note_on_c, 9, 51, 0
4, 32620, Note_on_c, 9, 40, 64
4, 32629, Note_on_c, 9, 40, 0
4, 32661, Note_on_c, 9, 35, 46
4, 32718, Note_on_c, 9, 35, 0
4, 32743, Note_on_c, 9, 51, 49
4, 32753, Note_on_c, 9, 51, 0
4, 32777, Note_on_c, 9, 51, 57
4, 32857, Note_on_c, 9, 51, 0
4, 32894, Note_on_c, 9, 51, 64
4, 32942, Note_on_c, 9, 44, 45
4, 32954, Note_on_c, 9, 44, 0
4, 32960, Note_on_c, 9, 51, 0
4, 32977, Note_on_c, 9, 44, 56
4, 32988, Note_on_c, 9, 44, 0
4, 33098, Note_on_c, 9, 51, 31
4, 33098, Note_on_c, 9, 35, 26
4, 33108, Note_on_c, 9, 35, 0
4, 33108, Note_on_c, 9, 51, 0
4, 33133, Note_on_c, 9, 51, 46
4, 33193, Note_on_c, 9, 51, 0
4, 33247, Note_on_c, 9, 51, 84
4, 33320, Note_on_c, 9, 51, 0
4, 33380, Note_on_c, 9, 51, 32
4, 33396, Note_on_c, 9, 51, 0
4, 33454, Note_on_c, 9, 51, 38
4, 33466, Note_on_c, 9, 51, 0
4, 33495, Note_on_c, 9, 51, 88
4, 33503, Note_on_c, 9, 44, 73
4, 33509, Note_on_c, 9, 35, 44
4, 33527, Note_on_c, 9, 44, 0
4, 33558, Note_on_c, 9, 35, 0
4, 33572, Note_on_c, 9, 51, 0
4, 33576, Note_on_c, 9, 35, 77
4, 33610, Note_on_c, 9, 51, 94
4, 33619, Note_on_c, 9, 35, 0
4, 33692, Note_on_c, 9, 51, 0
4, 33743, Note_on_c, 9, 51, 31
4, 33770, Note_on_c, 9, 51, 0
4, 33813, Note_on_c, 9, 44, 25
4, 33818, Note_on_c, 9, 51, 34
4, 33823, Note_on_c, 9, 44, 0
4, 33832, Note_on_c, 9, 51, 0
4, 33857, Note_on_c, 9, 51, 88
4, 33861, Note_on_c, 9, 44, 57
4, 33899, Note_on_c, 9, 44, 0
4, 33936, Note_on_c, 9, 51, 0
4, 33974, Note_on_c, 9, 51, 94
4, 34059, Note_on_c, 9, 51, 0
4, 34060, Note_on_c, 9, 40, 51
4, 34073, Note_on_c, 9, 40, 0
4, 34108, Note_on_c, 9, 35, 31
4, 34155, Note_on_c, 9, 35, 0
4, 34177, Note_on_c, 9, 51, 55
4, 34183, Note_on_c, 9, 35, 36
4, 34190, Note_on_c, 9, 51, 0
4, 34195, Note_on_c, 9, 35, 0
4, 34212, Note_on_c, 9, 51, 77
4, 34264, Note_on_c, 9, 51, 0
4, 34289, Note_on_c, 9, 51, 84
4, 34308, Note_on_c, 9, 44, 62
4, 34322, Note_on_c, 9, 44, 0
4, 34334, Note_on_c, 9, 51, 0
4, 34374, Note_on_c, 9, 51, 57
4, 34383, Note_on_c, 9, 51, 0
4, 34387, Note_on_c, 9, 44, 67
4, 34404, Note_on_c, 9, 44, 0
4, 34411, Note_on_c, 9, 51, 63
4, 34435, Note_on_c, 9, 51, 0
4, 34452, Note_on_c, 9, 51, 78
4, 34465, Note_on_c, 9, 44, 77
4, 34486, Note_on_c, 9, 44, 0
4, 34508, Note_on_c, 9, 51, 0
4, 34535, Note_on_c, 9, 35, 31
4, 34539, Note_on_c, 9, 44, 77
4, 34550, Note_on_c, 9, 35, 0
4, 34560, Note_on_c, 9, 44, 0
4, 34572, Note_on_c, 9, 35, 29
4, 34595, Note_on_c, 9, 35, 0
4, 34660, Note_on_c, 9, 51, 44
4, 34669, Note_on_c, 9, 51, 0
4, 34694, Note_on_c, 9, 51, 64
4, 34758, Note_on_c, 9, 51, 0
4, 34771, Note_on_c, 9, 35, 39
4, 34785, Note_on_c, 9, 35, 0
4, 34805, Note_on_c, 9, 51, 72
4, 34839, Note_on_c, 9, 51, 0
4, 34887, Note_on_c, 9, 53, 75
4, 34914, Note_on_c, 9, 53, 0
4, 35003, Note_on_c, 9, 51, 77
4, 35035, Note_on_c, 9, 51, 0
4, 35122, Note_on_c, 9, 46, 25
4, 35128, Note_on_c, 9, 51, 32
4, 35133, Note_on_c, 9, 46, 0
4, 35138, Note_on_c, 9, 51, 0
4, 35168, Note_on_c, 9, 51, 50
4, 35188, Note_on_c, 9, 51, 0
4, 35201, Note_on_c, 9, 46, 29
4, 35227, Note_on_c, 9, 46, 0
4, 35243, Note_on_c, 9, 51, 78
4, 35269, Note_on_c, 9, 51, 0
4, 35289, Note_on_c, 9, 46, 53
4, 35301, Note_on_c, 9, 46, 0
4, 35353, Note_on_c, 9, 46, 56
4, 35363, Note_on_c, 9, 53, 65
4, 35372, Note_on_c, 9, 46, 77
4, 35383, Note_on_c, 9, 53, 0
4, 35383, Note_on_c, 9, 46, 0
4, 35388, Note_on_c, 9, 46, 0
4, 35406, Note_on_c, 9, 44, 44
4, 35453, Note_on_c, 9, 46, 91
4, 35475, Note_on_c, 9, 44, 0
4, 35486, Note_on_c, 9, 53, 80
4, 35498, Note_on_c, 9, 46, 0
4, 35508, Note_on_c, 9, 53, 0
4, 35530, Note_on_c, 9, 46, 38
4, 35541, Note_on_c, 9, 46, 0
4, 35606, Note_on_c, 9, 35, 35
4, 35620, Note_on_c, 9, 35, 0
4, 35674, Note_on_c, 9, 46, 21
4, 35689, Note_on_c, 9, 46, 0
4, 35723, Note_on_c, 9, 44, 44
4, 35752, Note_on_c, 9, 44, 0
4, 35766, Note_on_c, 9, 46, 59
4, 35828, Note_on_c, 9, 46, 0
4, 36208, Note_on_c, 9, 53, 118
4, 36251, Note_on_c, 9, 53, 0
4, 36275, Note_on_c, 9, 46, 43
4, 36288, Note_on_c, 9, 46, 0
4, 36323, Note_on_c, 9, 40, 51
4, 36328, Note_on_c, 9, 53, 103
4, 36336, Note_on_c, 9, 40, 0
4, 36360, Note_on_c, 9, 46, 57
4, 36364, Note_on_c, 9, 53, 0
4, 36382, Note_on_c, 9, 46, 0
4, 36440, Note_on_c, 9, 35, 63
4, 36442, Note_on_c, 9, 53, 91
4, 36443, Note_on_c, 9, 57, 88
4, 36446, Note_on_c, 9, 46, 61
4, 36461, Note_on_c, 9, 46, 0
4, 36465, Note_on_c, 9, 53, 0
4, 36473, Note_on_c, 9, 57, 0
4, 36478, Note_on_c, 9, 35, 0
4, 36487, Note_on_c, 9, 35, 55
4, 36542, Note_on_c, 9, 35, 0
4, 36563, Note_on_c, 9, 35, 53
4, 36574, Note_on_c, 9, 35, 0
4, 36691, Note_on_c, 9, 51, 28
4, 36703, Note_on_c, 9, 51, 0
4, 36728, Note_on_c, 9, 35, 38
4, 36751, Note_on_c, 9, 35, 0
4, 36814, Note_on_c, 9, 51, 33
4, 36829, Note_on_c, 9, 51, 0
4, 36854, Note_on_c, 9, 51, 26
4, 36892, Note_on_c, 9, 51, 0
4, 37004, Note_on_c, 9, 46, 55
4, 37018, Note_on_c, 9, 46, 0
4, 37078, Note_on_c, 9, 42, 62
4, 37090, Note_on_c, 9, 46, 74
4, 37118, Note_on_c, 9, 46, 0
4, 37132, Note_on_c, 9, 42, 0
4, 37157, Note_on_c, 9, 42, 53
4, 37163, Note_on_c, 9, 53, 50
4, 37174, Note_on_c, 9, 46, 80
4, 37176, Note_on_c, 9, 42, 0
4, 37185, Note_on_c, 9, 53, 0
4, 37212, Note_on_c, 9, 46, 0
4, 37213, Note_on_c, 9, 53, 30
4, 37228, Note_on_c, 9, 53, 0
4, 37251, Note_on_c, 9, 46, 72
4, 37287, Note_on_c, 9, 46, 0
4, 37294, Note_on_c, 9, 35, 29
4, 37305, Note_on_c, 9, 35, 0
4, 37331, Note_on_c, 9, 35, 53
4, 37340, Note_on_c, 9, 46, 59
4, 37367, Note_on_c, 9, 35, 0
4, 37371, Note_on_c, 9, 46, 0
4, 37403, Note_on_c, 9, 51, 46
4, 37404, Note_on_c, 9, 35, 95
4, 37412, Note_on_c, 9, 51, 0
4, 37446, Note_on_c, 9, 51, 29
4, 37465, Note_on_c, 9, 51, 0
4, 37467, Note_on_c, 9, 35, 0
4, 37546, Note_on_c, 9, 44, 26
4, 37558, Note_on_c, 9, 44, 0
4, 37636, Note_on_c, 9, 51, 39
4, 37642, Note_on_c, 9, 35, 44
4, 37649, Note_on_c, 9, 51, 0
4, 37654, Note_on_c, 9, 35, 0
4, 37661, Note_on_c, 9, 44, 59
4, 37676, Note_on_c, 9, 51, 70
4, 37681, Note_on_c, 9, 35, 44
4, 37689, Note_on_c, 9, 44, 0
4, 37706, Note_on_c, 9, 35, 0
4, 37721, Note_on_c, 9, 51, 0
4, 37879, Note_on_c, 9, 51, 74
4, 37886, Note_on_c, 9, 44, 27
4, 37888, Note_on_c, 9, 35, 32
4, 37895, Note_on_c, 9, 51, 0
4, 37898, Note_on_c, 9, 44, 0
4, 37908, Note_on_c, 9, 35, 0
4, 37948, Note_on_c, 9, 46, 53
4, 37969, Note_on_c, 9, 46, 0
4, 38000, Note_on_c, 9, 51, 93
4, 38021, Note_on_c, 9, 51, 0
4, 38039, Note_on_c, 9, 46, 69
4, 38080, Note_on_c, 9, 46, 0
4, 38121, Note_on_c, 9, 51, 88
4, 38125, Note_on_c, 9, 46, 74
4, 38144, Note_on_c, 9, 51, 0
4, 38162, Note_on_c, 9, 46, 0
4, 38202, Note_on_c, 9, 46, 57
4, 38235, Note_on_c, 9, 46, 0
4, 38241, Note_on_c, 9, 51, 59
4, 38256, Note_on_c, 9, 51, 0
4, 38276, Note_on_c, 9, 51, 62
4, 38284, Note_on_c, 9, 40, 40
4, 38299, Note_on_c, 9, 40, 0
4, 38321, Note_on_c, 9, 51, 0
4, 38363, Note_on_c, 9, 51, 94
4, 38364, Note_on_c, 9, 35, 85
4, 38385, Note_on_c, 9, 51, 0
4, 38391, Note_on_c, 9, 35, 0
4, 38403, Note_on_c, 9, 51, 80
4, 38408, Note_on_c, 9, 35, 75
4, 38471, Note_on_c, 9, 51, 0
4, 38478, Note_on_c, 9, 35, 0
4, 38612, Note_on_c, 9, 44, 43
4, 38618, Note_on_c, 9, 51, 42
4, 38623, Note_on_c, 9, 44, 0
4, 38628, Note_on_c, 9, 51, 0
4, 38654, Note_on_c, 9, 51, 56
4, 38705, Note_on_c, 9, 51, 0
4, 38740, Note_on_c, 9, 51, 71
4, 38755, Note_on_c, 9, 51, 0
4, 38983, Note_on_c, 9, 51, 56
4, 38993, Note_on_c, 9, 51, 0
4, 39022, Note_on_c, 9, 51, 71
4, 39067, Note_on_c, 9, 51, 0
4, 39103, Note_on_c, 9, 51, 91
4, 39138, Note_on_c, 9, 51, 0
4, 39229, Note_on_c, 9, 44, 34
4, 39240, Note_on_c, 9, 44, 0
4, 39341, Note_on_c, 9, 51, 43
4, 39351, Note_on_c, 9, 51, 0
4, 39377, Note_on_c, 9, 51, 69
4, 39433, Note_on_c, 9, 51, 0
4, 39449, Note_on_c, 9, 40, 40
4, 39460, Note_on_c, 9, 40, 0
4, 39498, Note_on_c, 9, 40, 31
4, 39513, Note_on_c, 9, 40, 0
4, 39583, Note_on_c, 9, 51, 83
4, 39601, Note_on_c, 9, 51, 0
4, 39688, Note_on_c, 9, 40, 24
4, 39697, Note_on_c, 9, 40, 0
4, 39729, Note_on_c, 9, 40, 27
4, 39757, Note_on_c, 9, 40, 0
4, 39820, Note_on_c, 9, 51, 57
4, 39837, Note_on_c, 9, 51, 0
4, 39861, Note_on_c, 9, 51, 34
4, 39870, Note_on_c, 9, 51, 0
4, 39928, Note_on_c, 9, 40, 24
4, 39932, Note_on_c, 9, 51, 93
4, 39938, Note_on_c, 9, 40, 0
4, 40014, Note_on_c, 9, 51, 0
4, 40047, Note_on_c, 9, 40, 35
4, 40059, Note_on_c, 9, 40, 0
4, 40097, Note_on_c, 9, 51, 83
4, 40131, Note_on_c, 9, 40, 43
4, 40142, Note_on_c, 9, 40, 0
4, 40151, Note_on_c, 9, 51, 0
4, 40214, Note_on_c, 9, 40, 44
4, 40237, Note_on_c, 9, 40, 0
4, 40296, Note_on_c, 9, 51, 25
4, 40307, Note_on_c, 9, 51, 0
4, 40329, Note_on_c, 9, 51, 61
4, 40382, Note_on_c, 9, 51, 0
4, 40455, Note_on_c, 9, 51, 90
4, 40516, Note_on_c, 9, 51, 0
4, 40537, Note_on_c, 9, 35, 47
4, 40550, Note_on_c, 9, 35, 0
4, 40588, Note_on_c, 9, 51, 61
4, 40597, Note_on_c, 9, 51, 0
4, 40614, Note_on_c, 9, 51, 76
4, 40632, Note_on_c, 9, 51, 0
4, 40694, Note_on_c, 9, 44, 51
4, 40698, Note_on_c, 9, 51, 91
4, 40715, Note_on_c, 9, 40, 21
4, 40720, Note_on_c, 9, 44, 0
4, 40725, Note_on_c, 9, 40, 0
4, 40746, Note_on_c, 9, 51, 0
4, 40809, Note_on_c, 9, 40, 16
4, 40818, Note_on_c, 9, 40, 0
4, 40933, Note_on_c, 9, 51, 90
4, 40966, Note_on_c, 9, 51, 0
4, 40979, Note_on_c, 9, 40, 48
4, 40989, Note_on_c, 9, 40, 0
4, 41007, Note_on_c, 9, 40, 67
4, 41021, Note_on_c, 9, 51, 99
4, 41022, Note_on_c, 9, 40, 0
4, 41044, Note_on_c, 9, 51, 0
4, 41092, Note_on_c, 9, 51, 90
4, 41126, Note_on_c, 9, 51, 0
4, 41177, Note_on_c, 9, 51, 97
4, 41191, Note_on_c, 9, 44, 25
4, 41201, Note_on_c, 9, 44, 0
4, 41208, Note_on_c, 9, 51, 0
4, 41261, Note_on_c, 9, 35, 55
4, 41262, Note_on_c, 9, 51, 95
4, 41273, Note_on_c, 9, 35, 0
4, 41292, Note_on_c, 9, 51, 0
4, 41299, Note_on_c, 9, 35, 57
4, 41334, Note_on_c, 9, 51, 83
4, 41349, Note_on_c, 9, 35, 0
4, 41372, Note_on_c, 9, 35, 47
4, 41377, Note_on_c, 9, 51, 0
4, 41392, Note_on_c, 9, 35, 0
4, 41422, Note_on_c, 9, 51, 83
4, 41449, Note_on_c, 9, 51, 0
4, 41508, Note_on_c, 9, 51, 74
4, 41508, Note_on_c, 9, 53, 78
4, 41525, Note_on_c, 9, 51, 0
4, 41529, Note_on_c, 9, 53, 0
4, 41581, Note_on_c, 9, 44, 50
4, 41587, Note_on_c, 9, 51, 74
4, 41593, Note_on_c, 9, 44, 0
4, 41605, Note_on_c, 9, 51, 0
4, 41660, Note_on_c, 9, 44, 67
4, 41661, Note_on_c, 9, 40, 40
4, 41669, Note_on_c, 9, 51, 91
4, 41672, Note_on_c, 9, 40, 0
4, 41680, Note_on_c, 9, 44, 0
4, 41688, Note_on_c, 9, 40, 68
4, 41695, Note_on_c, 9, 51, 0
4, 41706, Note_on_c, 9, 40, 0
4, 41745, Note_on_c, 9, 44, 78
4, 41746, Note_on_c, 9, 51, 88
4, 41749, Note_on_c, 9, 53, 80
4, 41766, Note_on_c, 9, 44, 0
4, 41774, Note_on_c, 9, 53, 0
4, 41777, Note_on_c, 9, 51, 0
4, 41819, Note_on_c, 9, 44, 67
4, 41826, Note_on_c, 9, 51, 84
4, 41840, Note_on_c, 9, 44, 0
4, 41856, Note_on_c, 9, 35, 38
4, 41859, Note_on_c, 9, 51, 0
4, 41880, Note_on_c, 9, 35, 0
4, 41902, Note_on_c, 9, 51, 93
4, 41918, Note_on_c, 9, 44, 56
4, 41930, Note_on_c, 9, 35, 57
4, 41937, Note_on_c, 9, 44, 0
4, 41938, Note_on_c, 9, 51, 0
4, 41966, Note_on_c, 9, 35, 0
4, 41982, Note_on_c, 9, 51, 97
4, 42016, Note_on_c, 9, 35, 78
4, 42018, Note_on_c, 9, 51, 0
4, 42048, Note_on_c, 9, 35, 0
4, 42062, Note_on_c, 9, 51, 71
4, 42093, Note_on_c, 9, 51, 0
4, 42096, Note_on_c, 9, 35, 80
4, 42116, Note_on_c, 9, 35, 0
4, 42138, Note_on_c, 9, 51, 87
4, 42169, Note_on_c, 9, 51, 0
4, 42174, Note_on_c, 9, 35, 80
4, 42216, Note_on_c, 9, 51, 84
4, 42222, Note_on_c, 9, 35, 0
4, 42240, Note_on_c, 9, 51, 0
4, 42246, Note_on_c, 9, 35, 79
4, 42255, Note_on_c, 9, 51, 77
4, 42286, Note_on_c, 9, 51, 0
4, 42296, Note_on_c, 9, 35, 0
4, 42373, Note_on_c, 9, 51, 78
4, 42402, Note_on_c, 9, 51, 0
4, 42457, Note_on_c, 9, 51, 59
4, 42476, Note_on_c, 9, 51, 0
4, 42496, Note_on_c, 9, 51, 69
4, 42549, Note_on_c, 9, 51, 0
4, 42697, Note_on_c, 9, 51, 47
4, 42711, Note_on_c, 9, 51, 0
4, 42736, Note_on_c, 9, 51, 64
4, 42789, Note_on_c, 9, 51, 0
4, 42928, Note_on_c, 9, 40, 43
4, 42938, Note_on_c, 9, 51, 53
4, 42939, Note_on_c, 9, 40, 0
4, 42951, Note_on_c, 9, 51, 0
4, 42978, Note_on_c, 9, 51, 54
4, 43017, Note_on_c, 9, 51, 0
4, 43064, Note_on_c, 9, 53, 82
4, 43089, Note_on_c, 9, 53, 0
4, 43107, Note_on_c, 9, 51, 46
4, 43120, Note_on_c, 9, 44, 34
4, 43122, Note_on_c, 9, 51, 0
4, 43133, Note_on_c, 9, 44, 0
4, 43186, Note_on_c, 9, 51, 52
4, 43195, Note_on_c, 9, 51, 0
4, 43229, Note_on_c, 9, 51, 46
4, 43245, Note_on_c, 9, 51, 0
4, 43317, Note_on_c, 9, 44, 45
4, 43327, Note_on_c, 9, 51, 83
4, 43337, Note_on_c, 9, 44, 0
4, 43371, Note_on_c, 9, 51, 0
4, 43455, Note_on_c, 9, 51, 61
4, 43522, Note_on_c, 9, 51, 0
4, 43569, Note_on_c, 9, 51, 83
4, 43646, Note_on_c, 9, 51, 0
4, 43662, Note_on_c, 9, 44, 43
4, 43673, Note_on_c, 9, 44, 0
4, 43694, Note_on_c, 9, 51, 73
4, 43719, Note_on_c, 9, 51, 0
4, 43772, Note_on_c, 9, 40, 45
4, 43782, Note_on_c, 9, 40, 0
4, 43809, Note_on_c, 9, 51, 71
4, 43809, Note_on_c, 9, 35, 43
4, 43834, Note_on_c, 9, 35, 0
4, 43874, Note_on_c, 9, 51, 0
4, 43888, Note_on_c, 9, 40, 55
4, 43897, Note_on_c, 9, 40, 0
4, 43927, Note_on_c, 9, 51, 64
4, 43989, Note_on_c, 9, 51, 0
4, 44002, Note_on_c, 9, 40, 64
4, 44012, Note_on_c, 9, 40, 0
4, 44043, Note_on_c, 9, 51, 72
4, 44047, Note_on_c, 9, 35, 45
4, 44063, Note_on_c, 9, 35, 0
4, 44101, Note_on_c, 9, 51, 0
4, 44118, Note_on_c, 9, 51, 59
4, 44130, Note_on_c, 9, 51, 0
4, 44133, Note_on_c, 9, 35, 55
4, 44134, Note_on_c, 9, 33, 57
4, 44143, Note_on_c, 9, 33, 0
4, 44145, Note_on_c, 9, 35, 0
4, 44163, Note_on_c, 9, 59, 58
4, 44164, Note_on_c, 9, 35, 76
4, 44213, Note_on_c, 9, 59, 0
4, 44242, Note_on_c, 9, 35, 0
4, 44278, Note_on_c, 9, 59, 108
4, 44292, Note_on_c, 9, 37, 61
4, 44303, Note_on_c, 9, 37, 0
4, 44356, Note_on_c, 9, 59, 0
4, 44362, Note_on_c, 9, 35, 44
4, 44374, Note_on_c, 9, 35, 0
4, 44405, Note_on_c, 9, 59, 55
4, 44416, Note_on_c, 9, 59, 0
4, 44486, Note_on_c, 9, 59, 59
4, 44495, Note_on_c, 9, 59, 0
4, 44518, Note_on_c, 9, 59, 91
4, 44518, Note_on_c, 9, 37, 47
4, 44563, Note_on_c, 9, 37, 0
4, 44610, Note_on_c, 9, 59, 0
4, 44637, Note_on_c, 9, 59, 49
4, 44672, Note_on_c, 9, 59, 0
4, 44728, Note_on_c, 9, 59, 49
4, 44735, Note_on_c, 9, 40, 47
4, 44742, Note_on_c, 9, 59, 0
4, 44745, Note_on_c, 9, 40, 0
4, 44759, Note_on_c, 9, 59, 92
4, 44778, Note_on_c, 9, 35, 57
4, 44805, Note_on_c, 9, 35, 0
4, 44859, Note_on_c, 9, 59, 0
4, 44884, Note_on_c, 9, 59, 54
4, 44911, Note_on_c, 9, 59, 0
4, 44996, Note_on_c, 9, 59, 84
4, 44996, Note_on_c, 9, 44, 46
4, 45008, Note_on_c, 9, 44, 0
4, 45067, Note_on_c, 9, 59, 0
4, 45078, Note_on_c, 9, 44, 62
4, 45092, Note_on_c, 9, 44, 0
4, 45125, Note_on_c, 9, 59, 56
4, 45174, Note_on_c, 9, 59, 0
4, 45238, Note_on_c, 9, 59, 105
4, 45266, Note_on_c, 9, 46, 32
4, 45275, Note_on_c, 9, 46, 0
4, 45310, Note_on_c, 9, 59, 0
4, 45362, Note_on_c, 9, 59, 68
4, 45364, Note_on_c, 9, 46, 40
4, 45374, Note_on_c, 9, 46, 0
4, 45408, Note_on_c, 9, 59, 0
4, 45454, Note_on_c, 9, 46, 59
4, 45464, Note_on_c, 9, 46, 0
4, 45485, Note_on_c, 9, 59, 89
4, 45541, Note_on_c, 9, 46, 68
4, 45545, Note_on_c, 9, 59, 0
4, 45560, Note_on_c, 9, 46, 0
4, 45576, Note_on_c, 9, 59, 40
4, 45590, Note_on_c, 9, 59, 0
4, 45609, Note_on_c, 9, 59, 71
4, 45624, Note_on_c, 9, 46, 68
4, 45647, Note_on_c, 9, 46, 0
4, 45661, Note_on_c, 9, 59, 0
4, 45699, Note_on_c, 9, 40, 60
4, 45712, Note_on_c, 9, 40, 0
4, 45723, Note_on_c, 9, 59, 110
4, 45730, Note_on_c, 9, 44, 80
4, 45771, Note_on_c, 9, 44, 0
4, 45776, Note_on_c, 9, 35, 62
4, 45792, Note_on_c, 9, 59, 0
4, 45814, Note_on_c, 9, 35, 0
4, 45844, Note_on_c, 9, 59, 82
4, 45860, Note_on_c, 9, 59, 0
4, 45860, Note_on_c, 9, 35, 49
4, 45877, Note_on_c, 9, 59, 84
4, 45898, Note_on_c, 9, 59, 0
4, 45899, Note_on_c, 9, 35, 0
4, 45948, Note_on_c, 9, 35, 49
4, 45972, Note_on_c, 9, 35, 0
4, 45972, Note_on_c, 9, 59, 101
4, 45973, Note_on_c, 9, 44, 78
4, 46027, Note_on_c, 9, 44, 0
4, 46035, Note_on_c, 9, 35, 55
4, 46041, Note_on_c, 9, 59, 0
4, 46062, Note_on_c, 9, 35, 0
4, 46112, Note_on_c, 9, 35, 51
4, 46147, Note_on_c, 9, 35, 0
4, 46206, Note_on_c, 9, 59, 95
4, 46221, Note_on_c, 9, 44, 75
4, 46258, Note_on_c, 9, 59, 0
4, 46266, Note_on_c, 9, 44, 0
4, 46296, Note_on_c, 9, 59, 56
4, 46307, Note_on_c, 9, 59, 0
4, 46309, Note_on_c, 9, 35, 55
4, 46321, Note_on_c, 9, 35, 0
4, 46327, Note_on_c, 9, 59, 80
4, 46347, Note_on_c, 9, 35, 33
4, 46377, Note_on_c, 9, 35, 0
4, 46393, Note_on_c, 9, 59, 0
4, 46447, Note_on_c, 9, 59, 89
4, 46457, Note_on_c, 9, 44, 76
4, 46502, Note_on_c, 9, 44, 0
4, 46517, Note_on_c, 9, 59, 0
4, 46526, Note_on_c, 9, 35, 44
4, 46537, Note_on_c, 9, 35, 0
4, 46565, Note_on_c, 9, 59, 90
4, 46625, Note_on_c, 9, 59, 0
4, 46682, Note_on_c, 9, 59, 92
4, 46695, Note_on_c, 9, 44, 79
4, 46740, Note_on_c, 9, 44, 0
4, 46744, Note_on_c, 9, 59, 0
4, 46802, Note_on_c, 9, 59, 88
4, 46856, Note_on_c, 9, 59, 0
4, 46892, Note_on_c, 9, 59, 53
4, 46905, Note_on_c, 9, 59, 0
4, 46928, Note_on_c, 9, 59, 80
4, 46928, Note_on_c, 9, 44, 76
4, 46967, Note_on_c, 9, 44, 0
4, 47002, Note_on_c, 9, 59, 0
4, 47003, Note_on_c, 9, 35, 53
4, 47013, Note_on_c, 9, 35, 0
4, 47130, Note_on_c, 9, 59, 63
4, 47140, Note_on_c, 9, 59, 0
4, 47167, Note_on_c, 9, 59, 83
4, 47168, Note_on_c, 9, 46, 64
4, 47204, Note_on_c, 9, 46, 0
4, 47222, Note_on_c, 9, 59, 0
4, 47253, Note_on_c, 9, 59, 92
4, 47286, Note_on_c, 9, 59, 0
4, 47329, Note_on_c, 9, 59, 78
4, 47348, Note_on_c, 9, 59, 0
4, 47415, Note_on_c, 9, 44, 69
4, 47418, Note_on_c, 9, 59, 99
4, 47441, Note_on_c, 9, 44, 0
4, 47442, Note_on_c, 9, 59, 0
4, 47493, Note_on_c, 9, 35, 46
4, 47505, Note_on_c, 9, 35, 0
4, 47533, Note_on_c, 9, 35, 53
4, 47565, Note_on_c, 9, 35, 0
4, 47618, Note_on_c, 9, 59, 54
4, 47628, Note_on_c, 9, 59, 0
4, 47655, Note_on_c, 9, 59, 54
4, 47659, Note_on_c, 9, 44, 69
4, 47668, Note_on_c, 9, 59, 0
4, 47683, Note_on_c, 9, 44, 0
4, 47768, Note_on_c, 9, 59, 83
4, 47784, Note_on_c, 9, 59, 0
4, 47965, Note_on_c, 9, 40, 46
4, 47971, Note_on_c, 9, 59, 51
4, 47982, Note_on_c, 9, 59, 0
4, 47982, Note_on_c, 9, 40, 0
4, 48008, Note_on_c, 9, 35, 35
4, 48011, Note_on_c, 9, 59, 57
4, 48045, Note_on_c, 9, 59, 0
4, 48071, Note_on_c, 9, 35, 0
4, 48099, Note_on_c, 9, 35, 27
4, 48111, Note_on_c, 9, 35, 0
4, 48195, Note_on_c, 9, 46, 39
4, 48208, Note_on_c, 9, 46, 0
4, 48215, Note_on_c, 9, 59, 50
4, 48224, Note_on_c, 9, 59, 0
4, 48281, Note_on_c, 9, 46, 52
4, 48293, Note_on_c, 9, 46, 0
4, 48364, Note_on_c, 9, 59, 99
4, 48383, Note_on_c, 9, 46, 46
4, 48395, Note_on_c, 9, 46, 0
4, 48419, Note_on_c, 9, 59, 0
4, 48529, Note_on_c, 9, 59, 63
4, 48533, Note_on_c, 9, 40, 32
4, 48538, Note_on_c, 9, 59, 0
4, 48544, Note_on_c, 9, 40, 0
4, 48610, Note_on_c, 9, 59, 94
4, 48622, Note_on_c, 9, 40, 30
4, 48635, Note_on_c, 9, 40, 0
4, 48675, Note_on_c, 9, 59, 0
4, 48698, Note_on_c, 9, 40, 48
4, 48710, Note_on_c, 9, 40, 0
4, 48772, Note_on_c, 9, 40, 42
4, 48782, Note_on_c, 9, 40, 0
4, 48786, Note_on_c, 9, 59, 85
4, 48807, Note_on_c, 9, 59, 0
4, 48848, Note_on_c, 9, 40, 64
4, 48860, Note_on_c, 9, 59, 94
4, 48862, Note_on_c, 9, 40, 0
4, 48923, Note_on_c, 9, 59, 0
4, 48925, Note_on_c, 9, 35, 64
4, 48933, Note_on_c, 9, 44, 42
4, 48951, Note_on_c, 9, 35, 0
4, 48959, Note_on_c, 9, 44, 0
4, 48998, Note_on_c, 9, 40, 42
4, 49008, Note_on_c, 9, 40, 0
4, 49008, Note_on_c, 9, 44, 55
4, 49033, Note_on_c, 9, 44, 0
4, 49036, Note_on_c, 9, 59, 90
4, 49053, Note_on_c, 9, 59, 0
4, 49083, Note_on_c, 9, 40, 64
4, 49100, Note_on_c, 9, 40, 0
4, 49101, Note_on_c, 9, 59, 99
4, 49108, Note_on_c, 9, 44, 59
4, 49131, Note_on_c, 9, 44, 0
4, 49150, Note_on_c, 9, 59, 0
4, 49164, Note_on_c, 9, 40, 66
4, 49175, Note_on_c, 9, 40, 0
4, 49242, Note_on_c, 9, 40, 74
4, 49250, Note_on_c, 9, 59, 88
4, 49259, Note_on_c, 9, 40, 0
4, 49283, Note_on_c, 9, 59, 0
4, 49325, Note_on_c, 9, 40, 85
4, 49332, Note_on_c, 9, 59, 92
4, 49342, Note_on_c, 9, 40, 0
4, 49376, Note_on_c, 9, 59, 0
4, 49404, Note_on_c, 9, 40, 80
4, 49409, Note_on_c, 9, 46, 37
4, 49417, Note_on_c, 9, 40, 0
4, 49422, Note_on_c, 9, 46, 0
4, 49435, Note_on_c, 9, 59, 94
4, 49479, Note_on_c, 9, 46, 43
4, 49481, Note_on_c, 9, 40, 76
4, 49502, Note_on_c, 9, 59, 0
4, 49503, Note_on_c, 9, 46, 0
4, 49506, Note_on_c, 9, 40, 0
4, 49562, Note_on_c, 9, 40, 80
4, 49565, Note_on_c, 9, 46, 62
4, 49591, Note_on_c, 9, 40, 0
4, 49595, Note_on_c, 9, 46, 0
4, 49640, Note_on_c, 9, 59, 65
4, 49644, Note_on_c, 9, 46, 64
4, 49645, Note_on_c, 9, 40, 87
4, 49651, Note_on_c, 9, 59, 0
4, 49673, Note_on_c, 9, 40, 0
4, 49676, Note_on_c, 9, 46, 0
4, 49681, Note_on_c, 9, 59, 83
4, 49729, Note_on_c, 9, 40, 87
4, 49738, Note_on_c, 9, 59, 0
4, 49755, Note_on_c, 9, 40, 0
4, 49800, Note_on_c, 9, 59, 91
4, 49807, Note_on_c, 9, 40, 87
4, 49836, Note_on_c, 9, 40, 0
4, 49855, Note_on_c, 9, 59, 0
4, 49874, Note_on_c, 9, 34, 80
4, 49900, Note_on_c, 9, 57, 65
4, 49919, Note_on_c, 9, 34, 0
4, 49920, Note_on_c, 9, 59, 94
4, 49921, Note_on_c, 9, 40, 76
4, 49931, Note_on_c, 9, 35, 88
4, 49986, Note_on_c, 9, 59, 0
4, 50131, Note_on_c, 9, 59, 54
4, 50142, Note_on_c, 9, 59, 0
4, 50161, Note_on_c, 9, 57, 0
4, 50173, Note_on_c, 9, 59, 71
4, 50229, Note_on_c, 9, 59, 0
4, 50304, Note_on_c, 9, 40, 0
4, 50367, Note_on_c, 9, 35, 0
4, 50374, Note_on_c, 9, 59, 60
4, 50385, Note_on_c, 9, 59, 0
4, 50413, Note_on_c, 9, 59, 80
4, 50464, Note_on_c, 9, 59, 0
4, 50531, Note_on_c, 9, 59, 94
4, 50608, Note_on_c, 9, 59, 0
4, 50614, Note_on_c, 9, 35, 30
4, 50628, Note_on_c, 9, 35, 0
4, 50657, Note_on_c, 9, 35, 35
4, 50674, Note_on_c, 9, 35, 0
4, 50734, Note_on_c, 9, 59, 49
4, 50745, Note_on_c, 9, 59, 0
4, 50770, Note_on_c, 9, 59, 80
4, 50824, Note_on_c, 9, 59, 0
4, 50849, Note_on_c, 9, 59, 85
4, 50906, Note_on_c, 9, 59, 0
4, 51094, Note_on_c, 9, 59, 66
4, 51109, Note_on_c, 9, 59, 0
4, 51130, Note_on_c, 9, 59, 79
4, 51183, Note_on_c, 9, 59, 0
4, 51263, Note_on_c, 9, 44, 55
4, 51278, Note_on_c, 9, 44, 0
4, 51377, Note_on_c, 9, 59, 69
4, 51396, Note_on_c, 9, 59, 0
4, 51410, Note_on_c, 9, 44, 72
4, 51454, Note_on_c, 9, 44, 0
4, 51496, Note_on_c, 9, 59, 85
4, 51562, Note_on_c, 9, 59, 0
4, 51613, Note_on_c, 9, 59, 74
4, 51632, Note_on_c, 9, 59, 0
4, 51651, Note_on_c, 9, 44, 70
4, 51678, Note_on_c, 9, 40, 38
4, 51688, Note_on_c, 9, 44, 0
4, 51690, Note_on_c, 9, 40, 0
4, 51719, Note_on_c, 9, 35, 29
4, 51735, Note_on_c, 9, 59, 83
4, 51743, Note_on_c, 9, 35, 0
4, 51791, Note_on_c, 9, 59, 0
4, 51806, Note_on_c, 9, 35, 49
4, 51815, Note_on_c, 9, 59, 57
4, 51821, Note_on_c, 9, 35, 0
4, 51829, Note_on_c, 9, 59, 0
4, 51852, Note_on_c, 9, 59, 67
4, 51907, Note_on_c, 9, 59, 0
4, 51970, Note_on_c, 9, 59, 92
4, 52052, Note_on_c, 9, 59, 0
4, 52179, Note_on_c, 9, 59, 35
4, 52190, Note_on_c, 9, 59, 0
4, 52209, Note_on_c, 9, 35, 34
4, 52212, Note_on_c, 9, 59, 80
4, 52267, Note_on_c, 9, 35, 0
4, 52291, Note_on_c, 9, 35, 53
4, 52315, Note_on_c, 9, 35, 0
4, 52322, Note_on_c, 9, 59, 0
4, 52420, Note_on_c, 9, 59, 40
4, 52434, Note_on_c, 9, 59, 0
4, 52453, Note_on_c, 9, 59, 73
4, 52543, Note_on_c, 9, 59, 0
4, 52576, Note_on_c, 9, 59, 81
4, 52649, Note_on_c, 9, 44, 35
4, 52656, Note_on_c, 9, 59, 0
4, 52662, Note_on_c, 9, 44, 0
4, 52688, Note_on_c, 9, 44, 49
4, 52694, Note_on_c, 9, 59, 74
4, 52715, Note_on_c, 9, 44, 0
4, 52725, Note_on_c, 9, 59, 0
4, 52785, Note_on_c, 9, 59, 49
4, 52788, Note_on_c, 9, 35, 39
4, 52796, Note_on_c, 9, 59, 0
4, 52803, Note_on_c, 9, 35, 0
4, 52816, Note_on_c, 9, 59, 72
4, 52831, Note_on_c, 9, 35, 34
4, 52873, Note_on_c, 9, 59, 0
4, 52887, Note_on_c, 9, 35, 0
4, 52913, Note_on_c, 9, 35, 40
4, 52926, Note_on_c, 9, 35, 0
4, 52937, Note_on_c, 9, 59, 79
4, 52971, Note_on_c, 9, 59, 0
4, 53140, Note_on_c, 9, 59, 61
4, 53150, Note_on_c, 9, 59, 0
4, 53174, Note_on_c, 9, 59, 72
4, 53200, Note_on_c, 9, 59, 0
4, 53286, Note_on_c, 9, 59, 99
4, 53341, Note_on_c, 9, 59, 0
4, 53365, Note_on_c, 9, 46, 52
4, 53376, Note_on_c, 9, 46, 0
4, 53498, Note_on_c, 9, 59, 42
4, 53509, Note_on_c, 9, 59, 0
4, 53535, Note_on_c, 9, 59, 58
4, 53562, Note_on_c, 9, 59, 0
4, 53734, Note_on_c, 9, 35, 33
4, 53735, Note_on_c, 9, 59, 56
4, 53744, Note_on_c, 9, 59, 0
4, 53750, Note_on_c, 9, 35, 0
4, 53771, Note_on_c, 9, 59, 61
4, 53781, Note_on_c, 9, 35, 40
4, 53797, Note_on_c, 9, 35, 0
4, 53814, Note_on_c, 9, 59, 0
4, 53969, Note_on_c, 9, 35, 45
4, 53977, Note_on_c, 9, 59, 39
4, 53981, Note_on_c, 9, 35, 0
4, 53990, Note_on_c, 9, 59, 0
4, 54013, Note_on_c, 9, 59, 67
4, 54064, Note_on_c, 9, 59, 0
4, 54089, Note_on_c, 9, 46, 61
4, 54111, Note_on_c, 9, 46, 0
4, 54135, Note_on_c, 9, 59, 58
4, 54137, Note_on_c, 9, 37, 33
4, 54164, Note_on_c, 9, 37, 0
4, 54206, Note_on_c, 9, 59, 0
4, 54218, Note_on_c, 9, 35, 47
4, 54231, Note_on_c, 9, 35, 0
4, 54253, Note_on_c, 9, 59, 71
4, 54309, Note_on_c, 9, 59, 0
4, 54371, Note_on_c, 9, 59, 83
4, 54408, Note_on_c, 9, 59, 0
4, 54495, Note_on_c, 9, 59, 79
4, 54518, Note_on_c, 9, 59, 0
4, 54578, Note_on_c, 9, 35, 55
4, 54579, Note_on_c, 9, 59, 55
4, 54588, Note_on_c, 9, 59, 0
4, 54592, Note_on_c, 9, 35, 0
4, 54612, Note_on_c, 9, 35, 66
4, 54613, Note_on_c, 9, 59, 63
4, 54613, Note_on_c, 9, 37, 67
4, 54676, Note_on_c, 9, 59, 0
4, 54677, Note_on_c, 9, 37, 0
4, 54680, Note_on_c, 9, 35, 0
4, 54698, Note_on_c, 9, 35, 68
4, 54722, Note_on_c, 9, 35, 0
4, 54822, Note_on_c, 9, 59, 54
4, 54833, Note_on_c, 9, 59, 0
4, 54856, Note_on_c, 9, 59, 85
4, 54923, Note_on_c, 9, 59, 0
4, 54932, Note_on_c, 9, 46, 57
4, 54943, Note_on_c, 9, 46, 0
4, 54979, Note_on_c, 9, 59, 96
4, 55043, Note_on_c, 9, 59, 0
4, 55060, Note_on_c, 9, 59, 75
4, 55078, Note_on_c, 9, 59, 0
4, 55084, Note_on_c, 9, 35, 60
4, 55085, Note_on_c, 9, 37, 52
4, 55103, Note_on_c, 9, 35, 0
4, 55112, Note_on_c, 9, 37, 0
4, 55224, Note_on_c, 9, 59, 92
4, 55247, Note_on_c, 9, 59, 0
4, 55426, Note_on_c, 9, 59, 60
4, 55437, Note_on_c, 9, 59, 0
4, 55458, Note_on_c, 9, 59, 81
4, 55522, Note_on_c, 9, 59, 0
4, 55537, Note_on_c, 9, 35, 28
4, 55549, Note_on_c, 9, 35, 0
4, 55573, Note_on_c, 9, 37, 54
4, 55575, Note_on_c, 9, 37, 77
4, 55585, Note_on_c, 9, 37, 0
4, 55628, Note_on_c, 9, 37, 0
4, 55656, Note_on_c, 9, 35, 44
4, 55662, Note_on_c, 9, 59, 47
4, 55667, Note_on_c, 9, 35, 0
4, 55672, Note_on_c, 9, 59, 0
4, 55693, Note_on_c, 9, 59, 78
4, 55696, Note_on_c, 9, 35, 45
4, 55746, Note_on_c, 9, 35, 0
4, 55758, Note_on_c, 9, 59, 0
4, 55808, Note_on_c, 9, 59, 91
4, 55873, Note_on_c, 9, 59, 0
4, 55896, Note_on_c, 9, 35, 53
4, 55905, Note_on_c, 9, 35, 0
4, 56018, Note_on_c, 9, 59, 44
4, 56029, Note_on_c, 9, 59, 0
4, 56046, Note_on_c, 9, 37, 80
4, 56048, Note_on_c, 9, 59, 77
4, 56100, Note_on_c, 9, 37, 0
4, 56106, Note_on_c, 9, 59, 0
4, 56125, Note_on_c, 9, 37, 60
4, 56126, Note_on_c, 9, 59, 85
4, 56138, Note_on_c, 9, 37, 0
4, 56167, Note_on_c, 9, 59, 0
4, 56170, Note_on_c, 9, 35, 33
4, 56188, Note_on_c, 9, 35, 0
4, 56377, Note_on_c, 9, 59, 45
4, 56388, Note_on_c, 9, 59, 0
4, 56407, Note_on_c, 9, 59, 79
4, 56475, Note_on_c, 9, 59, 0
4, 56520, Note_on_c, 9, 37, 85
4, 56574, Note_on_c, 9, 37, 0
4, 56606, Note_on_c, 9, 59, 90
4, 56608, Note_on_c, 9, 57, 83
4, 56620, Note_on_c, 9, 35, 44
4, 56624, Note_on_c, 9, 57, 0
4, 56632, Note_on_c, 9, 35, 0
4, 56632, Note_on_c, 9, 59, 0
4, 56658, Note_on_c, 9, 35, 42
4, 56677, Note_on_c, 9, 35, 0
4, 56975, Note_on_c, 9, 35, 64
4, 56984, Note_on_c, 9, 35, 0
4, 57009, Note_on_c, 9, 37, 82
4, 57077, Note_on_c, 9, 37, 0
4, 57447, Note_on_c, 9, 34, 67
4, 57493, Note_on_c, 9, 37, 88
4, 57515, Note_on_c, 9, 34, 0
4, 57536, Note_on_c, 9, 37, 0
4, 57589, Note_on_c, 9, 49, 37
4, 57593, Note_on_c, 9, 35, 80
4, 57606, Note_on_c, 9, 51, 62
4, 57623, Note_on_c, 9, 51, 0
4, 57694, Note_on_c, 9, 35, 0
4, 57709, Note_on_c, 9, 49, 0
4, 57727, Note_on_c, 9, 51, 93
4, 57770, Note_on_c, 9, 51, 0
4, 57860, Note_on_c, 9, 51, 27
4, 57875, Note_on_c, 9, 51, 0
4, 57963, Note_on_c, 9, 51, 86
4, 57965, Note_on_c, 9, 35, 40
4, 57975, Note_on_c, 9, 37, 84
4, 58010, Note_on_c, 9, 37, 0
4, 58011, Note_on_c, 9, 51, 0
4, 58027, Note_on_c, 9, 35, 0
4, 58056, Note_on_c, 9, 51, 56
4, 58075, Note_on_c, 9, 51, 0
4, 58091, Note_on_c, 9, 51, 75
4, 58160, Note_on_c, 9, 51, 0
4, 58208, Note_on_c, 9, 51, 95
4, 58301, Note_on_c, 9, 51, 0
4, 58333, Note_on_c, 9, 51, 55
4, 58372, Note_on_c, 9, 51, 0
4, 58411, Note_on_c, 9, 51, 35
4, 58426, Note_on_c, 9, 51, 0
4, 58446, Note_on_c, 9, 51, 85
4, 58446, Note_on_c, 9, 37, 80
4, 58532, Note_on_c, 9, 40, 43
4, 58533, Note_on_c, 9, 51, 0
4, 58542, Note_on_c, 9, 37, 0
4, 58543, Note_on_c, 9, 40, 0
4, 58565, Note_on_c, 9, 51, 92
4, 58573, Note_on_c, 9, 35, 24
4, 58583, Note_on_c, 9, 35, 0
4, 58666, Note_on_c, 9, 51, 0
4, 58694, Note_on_c, 9, 51, 92
4, 58786, Note_on_c, 9, 51, 0
4, 58827, Note_on_c, 9, 51, 46
4, 58888, Note_on_c, 9, 51, 0
4, 58904, Note_on_c, 9, 35, 28
4, 58924, Note_on_c, 9, 35, 0
4, 58933, Note_on_c, 9, 37, 81
4, 58936, Note_on_c, 9, 51, 102
4, 58941, Note_on_c, 9, 35, 28
4, 58984, Note_on_c, 9, 35, 0
4, 59011, Note_on_c, 9, 37, 0
4, 59018, Note_on_c, 9, 35, 54
4, 59028, Note_on_c, 9, 51, 0
4, 59043, Note_on_c, 9, 35, 0
4, 59058, Note_on_c, 9, 51, 87
4, 59156, Note_on_c, 9, 51, 0
4, 59177, Note_on_c, 9, 51, 50
4, 59262, Note_on_c, 9, 51, 0
4, 59291, Note_on_c, 9, 51, 98
4, 59368, Note_on_c, 9, 51, 0
4, 59402, Note_on_c, 9, 51, 51
4, 59404, Note_on_c, 9, 37, 91
4, 59455, Note_on_c, 9, 51, 0
4, 59472, Note_on_c, 9, 37, 0
4, 59488, Note_on_c, 9, 51, 57
4, 59506, Note_on_c, 9, 51, 0
4, 59525, Note_on_c, 9, 51, 73
4, 59608, Note_on_c, 9, 51, 0
4, 59646, Note_on_c, 9, 51, 88
4, 59648, Note_on_c, 9, 35, 36
4, 59662, Note_on_c, 9, 35, 0
4, 59705, Note_on_c, 9, 51, 0
4, 59737, Note_on_c, 9, 51, 46
4, 59750, Note_on_c, 9, 51, 0
4, 59769, Note_on_c, 9, 51, 71
4, 59853, Note_on_c, 9, 51, 0
4, 59874, Note_on_c, 9, 40, 44
4, 59882, Note_on_c, 9, 37, 83
4, 59888, Note_on_c, 9, 40, 0
4, 59888, Note_on_c, 9, 51, 87
4, 59918, Note_on_c, 9, 40, 50
4, 59931, Note_on_c, 9, 40, 0
4, 59950, Note_on_c, 9, 37, 0
4, 59978, Note_on_c, 9, 51, 0
4, 60010, Note_on_c, 9, 51, 65
4, 60082, Note_on_c, 9, 51, 0
4, 60096, Note_on_c, 9, 51, 54
4, 60110, Note_on_c, 9, 51, 0
4, 60126, Note_on_c, 9, 51, 87
4, 60220, Note_on_c, 9, 51, 0
4, 60222, Note_on_c, 9, 35, 27
4, 60235, Note_on_c, 9, 35, 0
4, 60248, Note_on_c, 9, 51, 84
4, 60328, Note_on_c, 9, 51, 0
4, 60366, Note_on_c, 9, 40, 43
4, 60370, Note_on_c, 9, 51, 88
4, 60375, Note_on_c, 9, 37, 84
4, 60378, Note_on_c, 9, 40, 0
4, 60433, Note_on_c, 9, 37, 0
4, 60446, Note_on_c, 9, 51, 0
4, 60451, Note_on_c, 9, 40, 48
4, 60461, Note_on_c, 9, 40, 0
4, 60488, Note_on_c, 9, 51, 82
4, 60562, Note_on_c, 9, 51, 0
4, 60612, Note_on_c, 9, 51, 86
4, 60670, Note_on_c, 9, 51, 0
4, 60702, Note_on_c, 9, 35, 68
4, 60706, Note_on_c, 9, 51, 57
4, 60719, Note_on_c, 9, 51, 0
4, 60735, Note_on_c, 9, 51, 81
4, 60803, Note_on_c, 9, 35, 0
4, 60813, Note_on_c, 9, 51, 0
4, 60853, Note_on_c, 9, 51, 90
4, 60857, Note_on_c, 9, 37, 82
4, 60911, Note_on_c, 9, 37, 0
4, 60918, Note_on_c, 9, 51, 0
4, 60948, Note_on_c, 9, 51, 52
4, 60957, Note_on_c, 9, 51, 0
4, 60976, Note_on_c, 9, 51, 74
4, 61051, Note_on_c, 9, 40, 49
4, 61054, Note_on_c, 9, 51, 0
4, 61061, Note_on_c, 9, 40, 0
4, 61091, Note_on_c, 9, 35, 30
4, 61093, Note_on_c, 9, 51, 86
4, 61141, Note_on_c, 9, 35, 0
4, 61162, Note_on_c, 9, 51, 0
4, 61169, Note_on_c, 9, 35, 64
4, 61212, Note_on_c, 9, 51, 86
4, 61218, Note_on_c, 9, 35, 0
4, 61278, Note_on_c, 9, 51, 0
4, 61329, Note_on_c, 9, 37, 83
4, 61333, Note_on_c, 9, 51, 79
4, 61387, Note_on_c, 9, 37, 0
4, 61393, Note_on_c, 9, 51, 0
4, 61406, Note_on_c, 9, 40, 68
4, 61412, Note_on_c, 9, 53, 85
4, 61415, Note_on_c, 9, 40, 0
4, 61455, Note_on_c, 9, 35, 35
4, 61506, Note_on_c, 9, 35, 0
4, 61512, Note_on_c, 9, 53, 0
4, 61531, Note_on_c, 9, 35, 50
4, 61533, Note_on_c, 9, 51, 69
4, 61544, Note_on_c, 9, 35, 0
4, 61556, Note_on_c, 9, 51, 0
4, 61577, Note_on_c, 9, 51, 64
4, 61646, Note_on_c, 9, 51, 0
4, 61694, Note_on_c, 9, 51, 62
4, 61762, Note_on_c, 9, 51, 0
4, 61812, Note_on_c, 9, 37, 84
4, 61813, Note_on_c, 9, 51, 104
4, 61869, Note_on_c, 9, 37, 0
4, 61898, Note_on_c, 9, 40, 75
4, 61902, Note_on_c, 9, 51, 0
4, 61930, Note_on_c, 9, 40, 0
4, 61933, Note_on_c, 9, 51, 39
4, 61973, Note_on_c, 9, 40, 61
4, 62001, Note_on_c, 9, 51, 0
4, 62007, Note_on_c, 9, 46, 48
4, 62019, Note_on_c, 9, 51, 51
4, 62023, Note_on_c, 9, 46, 0
4, 62024, Note_on_c, 9, 40, 0
4, 62032, Note_on_c, 9, 51, 0
4, 62053, Note_on_c, 9, 51, 63
4, 62062, Note_on_c, 9, 40, 71
4, 62092, Note_on_c, 9, 46, 55
4, 62101, Note_on_c, 9, 40, 0
4, 62119, Note_on_c, 9, 46, 0
4, 62132, Note_on_c, 9, 51, 0
4, 62147, Note_on_c, 9, 35, 37
4, 62162, Note_on_c, 9, 35, 0
4, 62173, Note_on_c, 9, 51, 78
4, 62218, Note_on_c, 9, 35, 76
4, 62241, Note_on_c, 9, 51, 0
4, 62271, Note_on_c, 9, 35, 0
4, 62284, Note_on_c, 9, 51, 87
4, 62290, Note_on_c, 9, 37, 82
4, 62304, Note_on_c, 9, 35, 88
4, 62330, Note_on_c, 9, 37, 0
4, 62347, Note_on_c, 9, 51, 0
4, 62362, Note_on_c, 9, 35, 0
4, 62379, Note_on_c, 9, 51, 49
4, 62381, Note_on_c, 9, 35, 82
4, 62392, Note_on_c, 9, 51, 0
4, 62410, Note_on_c, 9, 51, 71
4, 62434, Note_on_c, 9, 35, 0
4, 62479, Note_on_c, 9, 51, 0
4, 62529, Note_on_c, 9, 51, 87
4, 62601, Note_on_c, 9, 51, 0
4, 62646, Note_on_c, 9, 51, 83
4, 62720, Note_on_c, 9, 51, 0
4, 62769, Note_on_c, 9, 51, 85
4, 62769, Note_on_c, 9, 37, 86
4, 62828, Note_on_c, 9, 37, 0
4, 62851, Note_on_c, 9, 51, 0
4, 62890, Note_on_c, 9, 51, 82
4, 62969, Note_on_c, 9, 51, 0
4, 63010, Note_on_c, 9, 51, 79
4, 63064, Note_on_c, 9, 51, 0
4, 63096, Note_on_c, 9, 35, 45
4, 63108, Note_on_c, 9, 35, 0
4, 63129, Note_on_c, 9, 51, 77
4, 63188, Note_on_c, 9, 51, 0
4, 63245, Note_on_c, 9, 51, 77
4, 63259, Note_on_c, 9, 37, 87
4, 63296, Note_on_c, 9, 51, 0
4, 63319, Note_on_c, 9, 37, 0
4, 63339, Note_on_c, 9, 51, 61
4, 63341, Note_on_c, 9, 35, 39
4, 63355, Note_on_c, 9, 51, 0
4, 63366, Note_on_c, 9, 51, 65
4, 63418, Note_on_c, 9, 35, 0
4, 63444, Note_on_c, 9, 51, 0
4, 63483, Note_on_c, 9, 51, 83
4, 63554, Note_on_c, 9, 51, 0
4, 63573, Note_on_c, 9, 51, 56
4, 63578, Note_on_c, 9, 35, 36
4, 63587, Note_on_c, 9, 51, 0
4, 63593, Note_on_c, 9, 35, 0
4, 63605, Note_on_c, 9, 51, 75
4, 63686, Note_on_c, 9, 51, 0
4, 63722, Note_on_c, 9, 37, 90
4, 63726, Note_on_c, 9, 51, 84
4, 63799, Note_on_c, 9, 51, 0
4, 63801, Note_on_c, 9, 37, 0
4, 63819, Note_on_c, 9, 35, 32
4, 63831, Note_on_c, 9, 35, 0
4, 63846, Note_on_c, 9, 51, 80
4, 63914, Note_on_c, 9, 51, 0
4, 63955, Note_on_c, 9, 40, 55
4, 63968, Note_on_c, 9, 51, 83
4, 63969, Note_on_c, 9, 40, 0
4, 64014, Note_on_c, 9, 51, 0
4, 64056, Note_on_c, 9, 51, 57
4, 64068, Note_on_c, 9, 51, 0
4, 64088, Note_on_c, 9, 51, 72
4, 64169, Note_on_c, 9, 51, 0
4, 64198, Note_on_c, 9, 37, 87
4, 64207, Note_on_c, 9, 51, 86
4, 64256, Note_on_c, 9, 37, 0
4, 64276, Note_on_c, 9, 51, 0
4, 64293, Note_on_c, 9, 51, 60
4, 64307, Note_on_c, 9, 51, 0
4, 64326, Note_on_c, 9, 51, 76
4, 64371, Note_on_c, 9, 40, 32
4, 64392, Note_on_c, 9, 40, 0
4, 64399, Note_on_c, 9, 51, 0
4, 64442, Note_on_c, 9, 51, 86
4, 64451, Note_on_c, 9, 40, 32
4, 64462, Note_on_c, 9, 40, 0
4, 64513, Note_on_c, 9, 51, 0
4, 64532, Note_on_c, 9, 40, 35
4, 64544, Note_on_c, 9, 40, 0
4, 64575, Note_on_c, 9, 51, 62
4, 64584, Note_on_c, 9, 51, 0
4, 64604, Note_on_c, 9, 40, 44
4, 64607, Note_on_c, 9, 51, 77
4, 64615, Note_on_c, 9, 40, 0
4, 64647, Note_on_c, 9, 51, 0
4, 64688, Note_on_c, 9, 37, 83
4, 64689, Note_on_c, 9, 40, 74
4, 64697, Note_on_c, 9, 51, 95
4, 64701, Note_on_c, 9, 40, 0
4, 64753, Note_on_c, 9, 37, 0
4, 64774, Note_on_c, 9, 51, 0
4, 64813, Note_on_c, 9, 51, 85
4, 64848, Note_on_c, 9, 40, 46
4, 64860, Note_on_c, 9, 40, 0
4, 64886, Note_on_c, 9, 51, 0
4, 64929, Note_on_c, 9, 51, 93
4, 64941, Note_on_c, 9, 40, 68
4, 64959, Note_on_c, 9, 40, 0
4, 65005, Note_on_c, 9, 51, 0
4, 65019, Note_on_c, 9, 40, 74
4, 65036, Note_on_c, 9, 40, 0
4, 65051, Note_on_c, 9, 51, 63
4, 65060, Note_on_c, 9, 51, 0
4, 65095, Note_on_c, 9, 40, 67
4, 65104, Note_on_c, 9, 40, 0
4, 65133, Note_on_c, 9, 51, 104
4, 65186, Note_on_c, 9, 34, 58
4, 65191, Note_on_c, 9, 51, 0
4, 65225, Note_on_c, 9, 51, 92
4, 65245, Note_on_c, 9, 34, 0
4, 65255, Note_on_c, 9, 40, 87
4, 65256, Note_on_c, 9, 35, 84
4, 65269, Note_on_c, 9, 51, 0
4, 65283, Note_on_c, 9, 40, 0
4, 65319, Note_on_c, 9, 51, 95
4, 65341, Note_on_c, 9, 35, 0
4, 65385, Note_on_c, 9, 51, 0
4, 65422, Note_on_c, 9, 51, 90
4, 65480, Note_on_c, 9, 51, 0
4, 65527, Note_on_c, 9, 51, 87
4, 65638, Note_on_c, 9, 51, 0
4, 65650, Note_on_c, 9, 37, 80
4, 65656, Note_on_c, 9, 51, 73
4, 65699, Note_on_c, 9, 51, 0
4, 65710, Note_on_c, 9, 37, 0
4, 65739, Note_on_c, 9, 51, 42
4, 65750, Note_on_c, 9, 51, 0
4, 65768, Note_on_c, 9, 51, 75
4, 65850, Note_on_c, 9, 51, 0
4, 65886, Note_on_c, 9, 51, 82
4, 65955, Note_on_c, 9, 51, 0
4, 65965, Note_on_c, 9, 40, 50
4, 65975, Note_on_c, 9, 40, 0
4, 65977, Note_on_c, 9, 51, 42
4, 65993, Note_on_c, 9, 51, 0
4, 66006, Note_on_c, 9, 51, 69
4, 66087, Note_on_c, 9, 51, 0
4, 66087, Note_on_c, 9, 40, 48
4, 66097, Note_on_c, 9, 40, 0
4, 66123, Note_on_c, 9, 35, 40
4, 66125, Note_on_c, 9, 51, 81
4, 66130, Note_on_c, 9, 37, 81
4, 66138, Note_on_c, 9, 35, 0
4, 66185, Note_on_c, 9, 37, 0
4, 66206, Note_on_c, 9, 51, 0
4, 66212, Note_on_c, 9, 35, 50
4, 66224, Note_on_c, 9, 35, 0
4, 66244, Note_on_c, 9, 51, 71
4, 66246, Note_on_c, 9, 35, 33
4, 66310, Note_on_c, 9, 35, 0
4, 66315, Note_on_c, 9, 51, 0
4, 66368, Note_on_c, 9, 51, 88
4, 66443, Note_on_c, 9, 51, 0
4, 66445, Note_on_c, 9, 35, 47
4, 66457, Note_on_c, 9, 35, 0
4, 66460, Note_on_c, 9, 51, 69
4, 66479, Note_on_c, 9, 51, 0
4, 66496, Note_on_c, 9, 51, 60
4, 66524, Note_on_c, 9, 51, 0
4, 66594, Note_on_c, 9, 37, 82
4, 66603, Note_on_c, 9, 51, 90
4, 66644, Note_on_c, 9, 37, 0
4, 66666, Note_on_c, 9, 51, 0
4, 66686, Note_on_c, 9, 51, 59
4, 66706, Note_on_c, 9, 51, 0
4, 66799, Note_on_c, 9, 51, 93
4, 66905, Note_on_c, 9, 51, 0
4, 66933, Note_on_c, 9, 51, 32
4, 66944, Note_on_c, 9, 51, 0
4, 66970, Note_on_c, 9, 51, 84
4, 67055, Note_on_c, 9, 51, 0
4, 67075, Note_on_c, 9, 37, 81
4, 67084, Note_on_c, 9, 51, 46
4, 67098, Note_on_c, 9, 51, 0
4, 67115, Note_on_c, 9, 37, 0
4, 67157, Note_on_c, 9, 51, 93
4, 67168, Note_on_c, 9, 35, 55
4, 67179, Note_on_c, 9, 35, 0
4, 67207, Note_on_c, 9, 35, 60
4, 67238, Note_on_c, 9, 51, 0
4, 67245, Note_on_c, 9, 35, 0
4, 67272, Note_on_c, 9, 51, 45
4, 67281, Note_on_c, 9, 51, 0
4, 67325, Note_on_c, 9, 51, 94
4, 67408, Note_on_c, 9, 35, 46
4, 67414, Note_on_c, 9, 51, 0
4, 67420, Note_on_c, 9, 35, 0
4, 67439, Note_on_c, 9, 51, 42
4, 67450, Note_on_c, 9, 51, 0
4, 67524, Note_on_c, 9, 51, 95
4, 67562, Note_on_c, 9, 37, 77
4, 67578, Note_on_c, 9, 40, 61
4, 67588, Note_on_c, 9, 51, 0
4, 67600, Note_on_c, 9, 40, 0
4, 67613, Note_on_c, 9, 37, 0
4, 67621, Note_on_c, 9, 51, 39
4, 67631, Note_on_c, 9, 51, 0
4, 67656, Note_on_c, 9, 51, 61
4, 67674, Note_on_c, 9, 51, 0
4, 67696, Note_on_c, 9, 51, 87
4, 67746, Note_on_c, 9, 40, 61
4, 67773, Note_on_c, 9, 51, 0
4, 67780, Note_on_c, 9, 40, 0
4, 67804, Note_on_c, 9, 51, 40
4, 67821, Note_on_c, 9, 51, 0
4, 67845, Note_on_c, 9, 40, 32
4, 67858, Note_on_c, 9, 40, 0
4, 67883, Note_on_c, 9, 51, 85
4, 67914, Note_on_c, 9, 40, 65
4, 67950, Note_on_c, 9, 40, 0
4, 67963, Note_on_c, 9, 51, 0
4, 67981, Note_on_c, 9, 51, 63
4, 67992, Note_on_c, 9, 51, 0
4, 67998, Note_on_c, 9, 40, 56
4, 68012, Note_on_c, 9, 40, 0
4, 68016, Note_on_c, 9, 51, 65
4, 68037, Note_on_c, 9, 51, 0
4, 68060, Note_on_c, 9, 37, 83
4, 68061, Note_on_c, 9, 51, 85
4, 68080, Note_on_c, 9, 40, 57
4, 68080, Note_on_c, 9, 34, 45
4, 68091, Note_on_c, 9, 40, 0
4, 68114, Note_on_c, 9, 37, 0
4, 68118, Note_on_c, 9, 51, 0
4, 68137, Note_on_c, 9, 34, 0
4, 68154, Note_on_c, 9, 40, 83
4, 68155, Note_on_c, 9, 35, 80
4, 68160, Note_on_c, 9, 57, 55
4, 68173, Note_on_c, 9, 51, 99
4, 68267, Note_on_c, 9, 40, 0
4, 68272, Note_on_c, 9, 51, 0
4, 68280, Note_on_c, 9, 57, 0
4, 68296, Note_on_c, 9, 51, 68
4, 68307, Note_on_c, 9, 35, 0
4, 68392, Note_on_c, 9, 51, 0
4, 68424, Note_on_c, 9, 51, 67
4, 68503, Note_on_c, 9, 51, 0
4, 68541, Note_on_c, 9, 37, 82
4, 68543, Note_on_c, 9, 51, 64
4, 68599, Note_on_c, 9, 37, 0
4, 68603, Note_on_c, 9, 51, 0
4, 68638, Note_on_c, 9, 51, 49
4, 68647, Note_on_c, 9, 51, 0
4, 68668, Note_on_c, 9, 51, 54
4, 68745, Note_on_c, 9, 51, 0
4, 68786, Note_on_c, 9, 51, 72
4, 68848, Note_on_c, 9, 51, 0
4, 68900, Note_on_c, 9, 51, 73
4, 68953, Note_on_c, 9, 51, 0
4, 68982, Note_on_c, 9, 40, 27
4, 68991, Note_on_c, 9, 40, 0
4, 69014, Note_on_c, 9, 51, 74
4, 69014, Note_on_c, 9, 37, 87
4, 69050, Note_on_c, 9, 51, 0
4, 69064, Note_on_c, 9, 37, 0
4, 69094, Note_on_c, 9, 35, 49
4, 69107, Note_on_c, 9, 35, 0
4, 69122, Note_on_c, 9, 51, 77
4, 69137, Note_on_c, 9, 35, 44
4, 69168, Note_on_c, 9, 51, 0
4, 69187, Note_on_c, 9, 35, 0
4, 69242, Note_on_c, 9, 51, 74
4, 69282, Note_on_c, 9, 51, 0
4, 69329, Note_on_c, 9, 35, 47
4, 69334, Note_on_c, 9, 51, 32
4, 69340, Note_on_c, 9, 35, 0
4, 69343, Note_on_c, 9, 51, 0
4, 69360, Note_on_c, 9, 51, 67
4, 69428, Note_on_c, 9, 51, 0
4, 69478, Note_on_c, 9, 51, 82
4, 69487, Note_on_c, 9, 37, 83
4, 69542, Note_on_c, 9, 37, 0
4, 69547, Note_on_c, 9, 51, 0
4, 69573, Note_on_c, 9, 51, 34
4, 69593, Note_on_c, 9, 51, 0
4, 69603, Note_on_c, 9, 51, 62
4, 69674, Note_on_c, 9, 51, 0
4, 69688, Note_on_c, 9, 40, 38
4, 69700, Note_on_c, 9, 40, 0
4, 69723, Note_on_c, 9, 51, 82
4, 69731, Note_on_c, 9, 35, 32
4, 69752, Note_on_c, 9, 35, 0
4, 69785, Note_on_c, 9, 51, 0
4, 69812, Note_on_c, 9, 35, 47
4, 69827, Note_on_c, 9, 35, 0
4, 69844, Note_on_c, 9, 51, 75
4, 69908, Note_on_c, 9, 51, 0
4, 69934, Note_on_c, 9, 51, 46
4, 69948, Note_on_c, 9, 51, 0
4, 69961, Note_on_c, 9, 37, 85
4, 69966, Note_on_c, 9, 51, 73
4, 70015, Note_on_c, 9, 37, 0
4, 70041, Note_on_c, 9, 51, 0
4, 70043, Note_on_c, 9, 35, 53
4, 70062, Note_on_c, 9, 35, 0
4, 70085, Note_on_c, 9, 35, 43
4, 70086, Note_on_c, 9, 51, 77
4, 70132, Note_on_c, 9, 35, 0
4, 70165, Note_on_c, 9, 51, 0
4, 70190, Note_on_c, 9, 51, 46
4, 70200, Note_on_c, 9, 51, 0
4, 70214, Note_on_c, 9, 51, 77
4, 70309, Note_on_c, 9, 51, 0
4, 70327, Note_on_c, 9, 51, 74
4, 70389, Note_on_c, 9, 51, 0
4, 70445, Note_on_c, 9, 51, 78
4, 70510, Note_on_c, 9, 51, 0
4, 70533, Note_on_c, 9, 51, 44
4, 70534, Note_on_c, 9, 35, 46
4, 70546, Note_on_c, 9, 35, 0
4, 70552, Note_on_c, 9, 51, 0
4, 70562, Note_on_c, 9, 51, 56
4, 70576, Note_on_c, 9, 35, 44
4, 70620, Note_on_c, 9, 35, 0
4, 70644, Note_on_c, 9, 51, 0
4, 70683, Note_on_c, 9, 51, 82
4, 70759, Note_on_c, 9, 51, 0
4, 70780, Note_on_c, 9, 51, 39
4, 70796, Note_on_c, 9, 51, 0
4, 70809, Note_on_c, 9, 51, 45
4, 70889, Note_on_c, 9, 51, 0
4, 70925, Note_on_c, 9, 37, 83
4, 70928, Note_on_c, 9, 51, 81
4, 70985, Note_on_c, 9, 51, 0
4, 70987, Note_on_c, 9, 37, 0
4, 71013, Note_on_c, 9, 35, 52
4, 71024, Note_on_c, 9, 35, 0
4, 71054, Note_on_c, 9, 51, 65
4, 71098, Note_on_c, 9, 51, 0
4, 71163, Note_on_c, 9, 51, 95
4, 71250, Note_on_c, 9, 51, 0
4, 71293, Note_on_c, 9, 51, 37
4, 71325, Note_on_c, 9, 51, 0
4, 71369, Note_on_c, 9, 51, 84
4, 71389, Note_on_c, 9, 51, 0
4, 71404, Note_on_c, 9, 37, 83
4, 71408, Note_on_c, 9, 51, 77
4, 71451, Note_on_c, 9, 37, 0
4, 71497, Note_on_c, 9, 51, 0
4, 71502, Note_on_c, 9, 35, 34
4, 71516, Note_on_c, 9, 35, 0
4, 71533, Note_on_c, 9, 51, 64
4, 71591, Note_on_c, 9, 51, 0
4, 71654, Note_on_c, 9, 51, 86
4, 71731, Note_on_c, 9, 51, 0
4, 71739, Note_on_c, 9, 35, 54
4, 71751, Note_on_c, 9, 35, 0
4, 71780, Note_on_c, 9, 51, 69
4, 71838, Note_on_c, 9, 51, 0
4, 71900, Note_on_c, 9, 51, 81
4, 71900, Note_on_c, 9, 37, 82
4, 71956, Note_on_c, 9, 37, 0
4, 71960, Note_on_c, 9, 51, 0
4, 71987, Note_on_c, 9, 51, 51
4, 72004, Note_on_c, 9, 51, 0
4, 72022, Note_on_c, 9, 51, 71
4, 72092, Note_on_c, 9, 51, 0
4, 72135, Note_on_c, 9, 51, 74
4, 72204, Note_on_c, 9, 51, 0
4, 72230, Note_on_c, 9, 51, 43
4, 72230, Note_on_c, 9, 35, 40
4, 72242, Note_on_c, 9, 35, 0
4, 72243, Note_on_c, 9, 51, 0
4, 72262, Note_on_c, 9, 51, 67
4, 72323, Note_on_c, 9, 51, 0
4, 72375, Note_on_c, 9, 51, 78
4, 72379, Note_on_c, 9, 37, 83
4, 72439, Note_on_c, 9, 51, 0
4, 72441, Note_on_c, 9, 37, 0
4, 72494, Note_on_c, 9, 51, 73
4, 72553, Note_on_c, 9, 51, 0
4, 72610, Note_on_c, 9, 51, 77
4, 72664, Note_on_c, 9, 51, 0
4, 72732, Note_on_c, 9, 51, 74
4, 72781, Note_on_c, 9, 51, 0
4, 72839, Note_on_c, 9, 37, 84
4, 72846, Note_on_c, 9, 51, 75
4, 72879, Note_on_c, 9, 37, 0
4, 72894, Note_on_c, 9, 51, 0
4, 72923, Note_on_c, 9, 40, 57
4, 72933, Note_on_c, 9, 40, 0
4, 72933, Note_on_c, 9, 51, 57
4, 72952, Note_on_c, 9, 51, 0
4, 72967, Note_on_c, 9, 51, 71
4, 72970, Note_on_c, 9, 35, 32
4, 73007, Note_on_c, 9, 35, 0
4, 73030, Note_on_c, 9, 51, 0
4, 73055, Note_on_c, 9, 35, 36
4, 73068, Note_on_c, 9, 35, 0
4, 73083, Note_on_c, 9, 51, 82
4, 73087, Note_on_c, 9, 44, 97
4, 73138, Note_on_c, 9, 44, 0
4, 73144, Note_on_c, 9, 51, 0
4, 73178, Note_on_c, 9, 51, 43
4, 73191, Note_on_c, 9, 51, 0
4, 73209, Note_on_c, 9, 51, 69
4, 73279, Note_on_c, 9, 51, 0
4, 73287, Note_on_c, 9, 40, 60
4, 73299, Note_on_c, 9, 40, 0
4, 73324, Note_on_c, 9, 51, 87
4, 73333, Note_on_c, 9, 44, 98
4, 73335, Note_on_c, 9, 35, 32
4, 73368, Note_on_c, 9, 35, 0
4, 73381, Note_on_c, 9, 44, 0
4, 73383, Note_on_c, 9, 51, 0
4, 73416, Note_on_c, 9, 35, 39
4, 73419, Note_on_c, 9, 51, 43
4, 73428, Note_on_c, 9, 35, 0
4, 73432, Note_on_c, 9, 51, 0
4, 73454, Note_on_c, 9, 51, 55
4, 73483, Note_on_c, 9, 51, 0
4, 73536, Note_on_c, 9, 51, 77
4, 73554, Note_on_c, 9, 51, 0
4, 73571, Note_on_c, 9, 51, 80
4, 73571, Note_on_c, 9, 44, 97
4, 73625, Note_on_c, 9, 44, 0
4, 73656, Note_on_c, 9, 51, 0
4, 73691, Note_on_c, 9, 51, 81
4, 73748, Note_on_c, 9, 51, 0
4, 73780, Note_on_c, 9, 51, 35
4, 73791, Note_on_c, 9, 51, 0
4, 73807, Note_on_c, 9, 51, 76
4, 73812, Note_on_c, 9, 44, 98
4, 73859, Note_on_c, 9, 44, 0
4, 73880, Note_on_c, 9, 51, 0
4, 73924, Note_on_c, 9, 51, 79
4, 73991, Note_on_c, 9, 51, 0
4, 74044, Note_on_c, 9, 51, 79
4, 74051, Note_on_c, 9, 44, 93
4, 74097, Note_on_c, 9, 44, 0
4, 74100, Note_on_c, 9, 51, 0
4, 74166, Note_on_c, 9, 51, 81
4, 74230, Note_on_c, 9, 51, 0
4, 74260, Note_on_c, 9, 51, 38
4, 74271, Note_on_c, 9, 51, 0
4, 74284, Note_on_c, 9, 46, 85
4, 74289, Note_on_c, 9, 51, 62
4, 74320, Note_on_c, 9, 46, 0
4, 74330, Note_on_c, 9, 51, 0
4, 74371, Note_on_c, 9, 51, 86
4, 74402, Note_on_c, 9, 40, 25
4, 74414, Note_on_c, 9, 40, 0
4, 74441, Note_on_c, 9, 40, 28
4, 74458, Note_on_c, 9, 40, 0
4, 74468, Note_on_c, 9, 51, 0
4, 74494, Note_on_c, 9, 51, 34
4, 74506, Note_on_c, 9, 51, 0
4, 74527, Note_on_c, 9, 40, 34
4, 74529, Note_on_c, 9, 44, 90
4, 74530, Note_on_c, 9, 51, 78
4, 74564, Note_on_c, 9, 44, 0
4, 74578, Note_on_c, 9, 40, 0
4, 74594, Note_on_c, 9, 51, 0
4, 74604, Note_on_c, 9, 40, 40
4, 74607, Note_on_c, 9, 51, 85
4, 74623, Note_on_c, 9, 40, 0
4, 74655, Note_on_c, 9, 40, 44
4, 74712, Note_on_c, 9, 40, 0
4, 74714, Note_on_c, 9, 51, 0
4, 74724, Note_on_c, 9, 40, 50
4, 74732, Note_on_c, 9, 51, 62
4, 74734, Note_on_c, 9, 40, 0
4, 74750, Note_on_c, 9, 51, 0
4, 74766, Note_on_c, 9, 51, 82
4, 74769, Note_on_c, 9, 44, 90
4, 74804, Note_on_c, 9, 44, 0
4, 74822, Note_on_c, 9, 35, 58
4, 74840, Note_on_c, 9, 35, 0
4, 74846, Note_on_c, 9, 51, 0
4, 74885, Note_on_c, 9, 51, 77
4, 74900, Note_on_c, 9, 35, 65
4, 74953, Note_on_c, 9, 51, 0
4, 74954, Note_on_c, 9, 35, 0
4, 75009, Note_on_c, 9, 51, 84
4, 75010, Note_on_c, 9, 44, 88
4, 75048, Note_on_c, 9, 44, 0
4, 75074, Note_on_c, 9, 51, 0
4, 75128, Note_on_c, 9, 51, 83
4, 75193, Note_on_c, 9, 51, 0
4, 75248, Note_on_c, 9, 51, 87
4, 75251, Note_on_c, 9, 44, 84
4, 75285, Note_on_c, 9, 44, 0
4, 75322, Note_on_c, 9, 51, 0
4, 75373, Note_on_c, 9, 51, 78
4, 75441, Note_on_c, 9, 51, 0
4, 75488, Note_on_c, 9, 51, 83
4, 75495, Note_on_c, 9, 44, 86
4, 75527, Note_on_c, 9, 44, 0
4, 75555, Note_on_c, 9, 51, 0
4, 75569, Note_on_c, 9, 35, 66
4, 75577, Note_on_c, 9, 51, 51
4, 75579, Note_on_c, 9, 35, 0
4, 75592, Note_on_c, 9, 51, 0
4, 75608, Note_on_c, 9, 51, 77
4, 75614, Note_on_c, 9, 40, 82
4, 75663, Note_on_c, 9, 40, 0
4, 75683, Note_on_c, 9, 51, 0
4, 75726, Note_on_c, 9, 51, 83
4, 75732, Note_on_c, 9, 44, 87
4, 75766, Note_on_c, 9, 44, 0
4, 75801, Note_on_c, 9, 51, 0
4, 75821, Note_on_c, 9, 35, 22
4, 75829, Note_on_c, 9, 35, 0
4, 75844, Note_on_c, 9, 51, 79
4, 75914, Note_on_c, 9, 51, 0
4, 75963, Note_on_c, 9, 51, 83
4, 75972, Note_on_c, 9, 44, 88
4, 76007, Note_on_c, 9, 44, 0
4, 76039, Note_on_c, 9, 51, 0
4, 76088, Note_on_c, 9, 51, 80
4, 76144, Note_on_c, 9, 51, 0
4, 76175, Note_on_c, 9, 51, 53
4, 76190, Note_on_c, 9, 51, 0
4, 76206, Note_on_c, 9, 51, 84
4, 76210, Note_on_c, 9, 44, 85
4, 76242, Note_on_c, 9, 44, 0
4, 76302, Note_on_c, 9, 51, 0
4, 76331, Note_on_c, 9, 51, 71
4, 76335, Note_on_c, 9, 40, 53
4, 76363, Note_on_c, 9, 40, 0
4, 76401, Note_on_c, 9, 51, 0
4, 76422, Note_on_c, 9, 51, 52
4, 76423, Note_on_c, 9, 40, 39
4, 76434, Note_on_c, 9, 40, 0
4, 76435, Note_on_c, 9, 51, 0
4, 76449, Note_on_c, 9, 46, 80
4, 76452, Note_on_c, 9, 51, 79
4, 76484, Note_on_c, 9, 46, 0
4, 76542, Note_on_c, 9, 51, 0
4, 76575, Note_on_c, 9, 51, 82
4, 76645, Note_on_c, 9, 51, 0
4, 76661, Note_on_c, 9, 35, 37
4, 76663, Note_on_c, 9, 51, 53
4, 76673, Note_on_c, 9, 35, 0
4, 76674, Note_on_c, 9, 51, 0
4, 76690, Note_on_c, 9, 51, 79
4, 76693, Note_on_c, 9, 44, 80
4, 76722, Note_on_c, 9, 44, 0
4, 76772, Note_on_c, 9, 35, 80
4, 76780, Note_on_c, 9, 51, 0
4, 76805, Note_on_c, 9, 35, 0
4, 76813, Note_on_c, 9, 51, 74
4, 76831, Note_on_c, 9, 35, 53
4, 76848, Note_on_c, 9, 35, 0
4, 76855, Note_on_c, 9, 51, 0
4, 76909, Note_on_c, 9, 44, 35
4, 76909, Note_on_c, 9, 44, 0
4, 76929, Note_on_c, 9, 51, 99
4, 76941, Note_on_c, 9, 44, 81
4, 76990, Note_on_c, 9, 44, 0
4, 77018, Note_on_c, 9, 51, 0
4, 77018, Note_on_c, 9, 35, 51
4, 77030, Note_on_c, 9, 35, 0
4, 77054, Note_on_c, 9, 51, 60
4, 77097, Note_on_c, 9, 51, 0
4, 77129, Note_on_c, 9, 40, 59
4, 77138, Note_on_c, 9, 40, 0
4, 77145, Note_on_c, 9, 51, 56
4, 77157, Note_on_c, 9, 51, 0
4, 77169, Note_on_c, 9, 35, 50
4, 77177, Note_on_c, 9, 51, 93
4, 77178, Note_on_c, 9, 44, 81
4, 77206, Note_on_c, 9, 44, 0
4, 77224, Note_on_c, 9, 35, 0
4, 77256, Note_on_c, 9, 35, 46
4, 77262, Note_on_c, 9, 51, 0
4, 77268, Note_on_c, 9, 35, 0
4, 77294, Note_on_c, 9, 51, 33
4, 77340, Note_on_c, 9, 51, 0
4, 77374, Note_on_c, 9, 51, 64
4, 77390, Note_on_c, 9, 51, 0
4, 77407, Note_on_c, 9, 51, 86
4, 77415, Note_on_c, 9, 44, 76
4, 77443, Note_on_c, 9, 44, 0
4, 77490, Note_on_c, 9, 51, 0
4, 77532, Note_on_c, 9, 51, 43
4, 77561, Note_on_c, 9, 51, 0
4, 77569, Note_on_c, 9, 44, 69
4, 77589, Note_on_c, 9, 44, 0
4, 77608, Note_on_c, 9, 34, 44
4, 77614, Note_on_c, 9, 51, 28
4, 77623, Note_on_c, 9, 51, 0
4, 77633, Note_on_c, 9, 34, 0
4, 77640, Note_on_c, 9, 51, 79
4, 77645, Note_on_c, 9, 53, 78
4, 77664, Note_on_c, 9, 35, 37
4, 77668, Note_on_c, 9, 44, 84
4, 77696, Note_on_c, 9, 44, 0
4, 77700, Note_on_c, 9, 35, 0
4, 77728, Note_on_c, 9, 53, 0
4, 77730, Note_on_c, 9, 51, 0
4, 77762, Note_on_c, 9, 51, 55
4, 77788, Note_on_c, 9, 51, 0
4, 77846, Note_on_c, 9, 34, 57
4, 77847, Note_on_c, 9, 51, 46
4, 77857, Note_on_c, 9, 51, 0
4, 77870, Note_on_c, 9, 34, 0
4, 77884, Note_on_c, 9, 51, 83
4, 77886, Note_on_c, 9, 53, 77
4, 77887, Note_on_c, 9, 44, 72
4, 77896, Note_on_c, 9, 35, 35
4, 77910, Note_on_c, 9, 44, 0
4, 77932, Note_on_c, 9, 35, 0
4, 77963, Note_on_c, 9, 51, 0
4, 77969, Note_on_c, 9, 53, 0
4, 78006, Note_on_c, 9, 51, 50
4, 78023, Note_on_c, 9, 51, 0
4, 78084, Note_on_c, 9, 51, 91
4, 78091, Note_on_c, 9, 53, 54
4, 78132, Note_on_c, 9, 44, 82
4, 78159, Note_on_c, 9, 44, 0
4, 78161, Note_on_c, 9, 51, 0
4, 78164, Note_on_c, 9, 53, 0
4, 78183, Note_on_c, 9, 40, 33
4, 78196, Note_on_c, 9, 40, 0
4, 78221, Note_on_c, 9, 40, 41
4, 78223, Note_on_c, 9, 51, 51
4, 78235, Note_on_c, 9, 40, 0
4, 78240, Note_on_c, 9, 51, 0
4, 78253, Note_on_c, 9, 40, 65
4, 78261, Note_on_c, 9, 51, 87
4, 78263, Note_on_c, 9, 40, 0
4, 78343, Note_on_c, 9, 51, 0
4, 78373, Note_on_c, 9, 46, 71
4, 78376, Note_on_c, 9, 40, 26
4, 78380, Note_on_c, 9, 51, 38
4, 78393, Note_on_c, 9, 40, 0
4, 78394, Note_on_c, 9, 51, 0
4, 78400, Note_on_c, 9, 46, 0
4, 78416, Note_on_c, 9, 40, 41
4, 78428, Note_on_c, 9, 40, 0
4, 78453, Note_on_c, 9, 51, 90
4, 78454, Note_on_c, 9, 40, 62
4, 78455, Note_on_c, 9, 53, 83
4, 78478, Note_on_c, 9, 40, 0
4, 78527, Note_on_c, 9, 51, 0
4, 78529, Note_on_c, 9, 53, 0
4, 78581, Note_on_c, 9, 40, 25
4, 78607, Note_on_c, 9, 40, 0
4, 78617, Note_on_c, 9, 51, 85
4, 78620, Note_on_c, 9, 53, 82
4, 78622, Note_on_c, 9, 44, 73
4, 78625, Note_on_c, 9, 40, 26
4, 78635, Note_on_c, 9, 40, 0
4, 78649, Note_on_c, 9, 44, 0
4, 78688, Note_on_c, 9, 53, 0
4, 78698, Note_on_c, 9, 51, 0
4, 78724, Note_on_c, 9, 40, 30
4, 78741, Note_on_c, 9, 51, 45
4, 78748, Note_on_c, 9, 40, 0
4, 78778, Note_on_c, 9, 51, 0
4, 78820, Note_on_c, 9, 51, 88
4, 78822, Note_on_c, 9, 40, 34
4, 78859, Note_on_c, 9, 40, 0
4, 78863, Note_on_c, 9, 51, 0
4, 78876, Note_on_c, 9, 44, 83
4, 78904, Note_on_c, 9, 44, 0
4, 78919, Note_on_c, 9, 40, 38
4, 78938, Note_on_c, 9, 51, 44
4, 78940, Note_on_c, 9, 40, 0
4, 78948, Note_on_c, 9, 51, 0
4, 78963, Note_on_c, 9, 40, 40
4, 78991, Note_on_c, 9, 40, 0
4, 78995, Note_on_c, 9, 51, 88
4, 79009, Note_on_c, 9, 40, 42
4, 79054, Note_on_c, 9, 40, 0
4, 79061, Note_on_c, 9, 51, 0
4, 79102, Note_on_c, 9, 40, 46
4, 79103, Note_on_c, 9, 51, 35
4, 79116, Note_on_c, 9, 44, 84
4, 79127, Note_on_c, 9, 40, 0
4, 79134, Note_on_c, 9, 51, 0
4, 79144, Note_on_c, 9, 44, 0
4, 79148, Note_on_c, 9, 40, 48
4, 79160, Note_on_c, 9, 40, 0
4, 79176, Note_on_c, 9, 51, 84
4, 79178, Note_on_c, 9, 53, 80
4, 79192, Note_on_c, 9, 40, 50
4, 79228, Note_on_c, 9, 40, 0
4, 79251, Note_on_c, 9, 51, 0
4, 79260, Note_on_c, 9, 53, 0
4, 79350, Note_on_c, 9, 51, 95
4, 79354, Note_on_c, 9, 44, 84
4, 79386, Note_on_c, 9, 44, 0
4, 79419, Note_on_c, 9, 51, 0
4, 79469, Note_on_c, 9, 51, 42
4, 79489, Note_on_c, 9, 51, 0
4, 79543, Note_on_c, 9, 51, 94
4, 79597, Note_on_c, 9, 44, 84
4, 79600, Note_on_c, 9, 51, 0
4, 79630, Note_on_c, 9, 44, 0
4, 79659, Note_on_c, 9, 51, 39
4, 79666, Note_on_c, 9, 34, 49
4, 79671, Note_on_c, 9, 51, 0
4, 79681, Note_on_c, 9, 34, 0
4, 79695, Note_on_c, 9, 51, 72
4, 79711, Note_on_c, 9, 35, 55
4, 79731, Note_on_c, 9, 35, 0
4, 79775, Note_on_c, 9, 51, 0
4, 79816, Note_on_c, 9, 51, 72
4, 79831, Note_on_c, 9, 44, 83
4, 79863, Note_on_c, 9, 44, 0
4, 79883, Note_on_c, 9, 51, 0
4, 79905, Note_on_c, 9, 51, 48
4, 79922, Note_on_c, 9, 51, 0
4, 79939, Note_on_c, 9, 51, 73
4, 80012, Note_on_c, 9, 51, 0
4, 80055, Note_on_c, 9, 51, 79
4, 80063, Note_on_c, 9, 44, 83
4, 80092, Note_on_c, 9, 44, 0
4, 80123, Note_on_c, 9, 51, 0
4, 80141, Note_on_c, 9, 51, 56
4, 80156, Note_on_c, 9, 51, 0
4, 80174, Note_on_c, 9, 51, 67
4, 80253, Note_on_c, 9, 51, 0
4, 80295, Note_on_c, 9, 51, 82
4, 80299, Note_on_c, 9, 44, 82
4, 80332, Note_on_c, 9, 44, 0
4, 80374, Note_on_c, 9, 51, 0
4, 80382, Note_on_c, 9, 40, 35
4, 80394, Note_on_c, 9, 40, 0
4, 80418, Note_on_c, 9, 51, 76
4, 80487, Note_on_c, 9, 51, 0
4, 80504, Note_on_c, 9, 40, 36
4, 80516, Note_on_c, 9, 40, 0
4, 80539, Note_on_c, 9, 51, 79
4, 80540, Note_on_c, 9, 46, 72
4, 80568, Note_on_c, 9, 46, 0
4, 80599, Note_on_c, 9, 51, 0
4, 80621, Note_on_c, 9, 40, 53
4, 80628, Note_on_c, 9, 51, 45
4, 80629, Note_on_c, 9, 40, 0
4, 80640, Note_on_c, 9, 51, 0
4, 80657, Note_on_c, 9, 51, 68
4, 80660, Note_on_c, 9, 35, 34
4, 80676, Note_on_c, 9, 35, 0
4, 80732, Note_on_c, 9, 51, 0
4, 80748, Note_on_c, 9, 35, 32
4, 80760, Note_on_c, 9, 35, 0
4, 80774, Note_on_c, 9, 51, 80
4, 80774, Note_on_c, 9, 44, 77
4, 80784, Note_on_c, 9, 35, 43
4, 80804, Note_on_c, 9, 44, 0
4, 80836, Note_on_c, 9, 35, 0
4, 80844, Note_on_c, 9, 51, 0
4, 80863, Note_on_c, 9, 35, 59
4, 80864, Note_on_c, 9, 51, 47
4, 80883, Note_on_c, 9, 51, 0
4, 80888, Note_on_c, 9, 35, 0
4, 80897, Note_on_c, 9, 51, 67
4, 80966, Note_on_c, 9, 51, 0
4, 81009, Note_on_c, 9, 51, 83
4, 81014, Note_on_c, 9, 44, 77
4, 81042, Note_on_c, 9, 44, 0
4, 81078, Note_on_c, 9, 51, 0
4, 81096, Note_on_c, 9, 51, 56
4, 81110, Note_on_c, 9, 51, 0
4, 81129, Note_on_c, 9, 51, 71
4, 81198, Note_on_c, 9, 51, 0
4, 81244, Note_on_c, 9, 51, 78
4, 81249, Note_on_c, 9, 44, 70
4, 81274, Note_on_c, 9, 44, 0
4, 81313, Note_on_c, 9, 51, 0
4, 81361, Note_on_c, 9, 51, 73
4, 81424, Note_on_c, 9, 51, 0
4, 81450, Note_on_c, 9, 51, 45
4, 81451, Note_on_c, 9, 40, 50
4, 81460, Note_on_c, 9, 40, 0
4, 81467, Note_on_c, 9, 51, 0
4, 81483, Note_on_c, 9, 51, 79
4, 81487, Note_on_c, 9, 35, 36
4, 81493, Note_on_c, 9, 44, 79
4, 81498, Note_on_c, 9, 37, 62
4, 81525, Note_on_c, 9, 44, 0
4, 81527, Note_on_c, 9, 37, 0
4, 81545, Note_on_c, 9, 35, 0
4, 81568, Note_on_c, 9, 51, 0
4, 81605, Note_on_c, 9, 51, 78
4, 81678, Note_on_c, 9, 51, 0
4, 81734, Note_on_c, 9, 51, 73
4, 81737, Note_on_c, 9, 44, 78
4, 81771, Note_on_c, 9, 44, 0
4, 81791, Note_on_c, 9, 51, 0
4, 81826, Note_on_c, 9, 51, 51
4, 81836, Note_on_c, 9, 51, 0
4, 81853, Note_on_c, 9, 51, 57
4, 81932, Note_on_c, 9, 51, 0
4, 81969, Note_on_c, 9, 51, 77
4, 81977, Note_on_c, 9, 37, 62
4, 81979, Note_on_c, 9, 44, 81
4, 82014, Note_on_c, 9, 44, 0
4, 82014, Note_on_c, 9, 37, 0
4, 82034, Note_on_c, 9, 51, 0
4, 82057, Note_on_c, 9, 51, 47
4, 82069, Note_on_c, 9, 51, 0
4, 82089, Note_on_c, 9, 51, 69
4, 82145, Note_on_c, 9, 51, 0
4, 82207, Note_on_c, 9, 51, 90
4, 82213, Note_on_c, 9, 44, 83
4, 82244, Note_on_c, 9, 44, 0
4, 82294, Note_on_c, 9, 51, 0
4, 82301, Note_on_c, 9, 34, 33
4, 82311, Note_on_c, 9, 34, 0
4, 82338, Note_on_c, 9, 34, 40
4, 82343, Note_on_c, 9, 51, 53
4, 82358, Note_on_c, 9, 51, 0
4, 82359, Note_on_c, 9, 34, 0
4, 82451, Note_on_c, 9, 44, 80
4, 82452, Note_on_c, 9, 51, 94
4, 82454, Note_on_c, 9, 37, 69
4, 82485, Note_on_c, 9, 44, 0
4, 82489, Note_on_c, 9, 37, 0
4, 82530, Note_on_c, 9, 34, 54
4, 82535, Note_on_c, 9, 51, 0
4, 82556, Note_on_c, 9, 34, 0
4, 82575, Note_on_c, 9, 51, 46
4, 82581, Note_on_c, 9, 35, 47
4, 82623, Note_on_c, 9, 35, 0
4, 82637, Note_on_c, 9, 51, 0
4, 82653, Note_on_c, 9, 40, 40
4, 82660, Note_on_c, 9, 51, 55
4, 82660, Note_on_c, 9, 35, 31
4, 82663, Note_on_c, 9, 40, 0
4, 82675, Note_on_c, 9, 35, 0
4, 82677, Note_on_c, 9, 51, 0
4, 82690, Note_on_c, 9, 44, 78
4, 82693, Note_on_c, 9, 51, 77
4, 82723, Note_on_c, 9, 44, 0
4, 82781, Note_on_c, 9, 51, 0
4, 82808, Note_on_c, 9, 51, 51
4, 82881, Note_on_c, 9, 51, 0
4, 82899, Note_on_c, 9, 51, 52
4, 82913, Note_on_c, 9, 51, 0
4, 82931, Note_on_c, 9, 51, 81
4, 82933, Note_on_c, 9, 37, 59
4, 82938, Note_on_c, 9, 44, 77
4, 82963, Note_on_c, 9, 37, 0
4, 82971, Note_on_c, 9, 44, 0
4, 82975, Note_on_c, 9, 40, 50
4, 82986, Note_on_c, 9, 40, 0
4, 83013, Note_on_c, 9, 40, 29
4, 83019, Note_on_c, 9, 51, 0
4, 83022, Note_on_c, 9, 40, 0
4, 83050, Note_on_c, 9, 51, 55
4, 83050, Note_on_c, 9, 34, 56
4, 83085, Note_on_c, 9, 34, 0
4, 83134, Note_on_c, 9, 51, 0
4, 83170, Note_on_c, 9, 51, 74
4, 83176, Note_on_c, 9, 44, 76
4, 83204, Note_on_c, 9, 44, 0
4, 83257, Note_on_c, 9, 51, 0
4, 83293, Note_on_c, 9, 51, 59
4, 83297, Note_on_c, 9, 40, 34
4, 83309, Note_on_c, 9, 40, 0
4, 83353, Note_on_c, 9, 51, 0
4, 83363, Note_on_c, 9, 34, 47
4, 83388, Note_on_c, 9, 51, 31
4, 83394, Note_on_c, 9, 34, 0
4, 83398, Note_on_c, 9, 51, 0
4, 83413, Note_on_c, 9, 35, 55
4, 83415, Note_on_c, 9, 44, 75
4, 83415, Note_on_c, 9, 37, 53
4, 83416, Note_on_c, 9, 51, 65
4, 83426, Note_on_c, 9, 35, 0
4, 83441, Note_on_c, 9, 44, 0
4, 83441, Note_on_c, 9, 37, 0
4, 83497, Note_on_c, 9, 51, 0
4, 83530, Note_on_c, 9, 51, 74
4, 83601, Note_on_c, 9, 51, 0
4, 83650, Note_on_c, 9, 51, 78
4, 83652, Note_on_c, 9, 44, 77
4, 83680, Note_on_c, 9, 44, 0
4, 83705, Note_on_c, 9, 51, 0
4, 83734, Note_on_c, 9, 40, 54
4, 83736, Note_on_c, 9, 51, 55
4, 83743, Note_on_c, 9, 40, 0
4, 83750, Note_on_c, 9, 51, 0
4, 83767, Note_on_c, 9, 51, 69
4, 83794, Note_on_c, 9, 35, 52
4, 83850, Note_on_c, 9, 35, 0
4, 83855, Note_on_c, 9, 51, 0
4, 83866, Note_on_c, 9, 35, 64
4, 83887, Note_on_c, 9, 51, 77
4, 83892, Note_on_c, 9, 44, 68
4, 83893, Note_on_c, 9, 37, 36
4, 83894, Note_on_c, 9, 35, 0
4, 83919, Note_on_c, 9, 44, 0
4, 83921, Note_on_c, 9, 37, 0
4, 83941, Note_on_c, 9, 51, 0
4, 83976, Note_on_c, 9, 51, 59
4, 83988, Note_on_c, 9, 51, 0
4, 84006, Note_on_c, 9, 51, 69
4, 84086, Note_on_c, 9, 51, 0
4, 84124, Note_on_c, 9, 51, 81
4, 84130, Note_on_c, 9, 44, 67
4, 84157, Note_on_c, 9, 44, 0
4, 84179, Note_on_c, 9, 51, 0
4, 84216, Note_on_c, 9, 51, 62
4, 84226, Note_on_c, 9, 51, 0
4, 84246, Note_on_c, 9, 51, 72
4, 84332, Note_on_c, 9, 51, 0
4, 84341, Note_on_c, 9, 40, 54
4, 84351, Note_on_c, 9, 40, 0
4, 84365, Note_on_c, 9, 51, 79
4, 84366, Note_on_c, 9, 44, 72
4, 84367, Note_on_c, 9, 37, 52
4, 84394, Note_on_c, 9, 37, 0
4, 84395, Note_on_c, 9, 44, 0
4, 84419, Note_on_c, 9, 51, 0
4, 84445, Note_on_c, 9, 34, 57
4, 84454, Note_on_c, 9, 51, 39
4, 84463, Note_on_c, 9, 51, 0
4, 84483, Note_on_c, 9, 34, 0
4, 84485, Note_on_c, 9, 51, 65
4, 84501, Note_on_c, 9, 35, 38
4, 84535, Note_on_c, 9, 35, 0
4, 84561, Note_on_c, 9, 51, 0
4, 84597, Note_on_c, 9, 51, 83
4, 84598, Note_on_c, 9, 44, 77
4, 84628, Note_on_c, 9, 44, 0
4, 84663, Note_on_c, 9, 51, 0
4, 84800, Note_on_c, 9, 40, 42
4, 84810, Note_on_c, 9, 40, 0
4, 84810, Note_on_c, 9, 51, 74
4, 84829, Note_on_c, 9, 51, 0
4, 84839, Note_on_c, 9, 35, 44
4, 84839, Note_on_c, 9, 44, 76
4, 84847, Note_on_c, 9, 51, 76
4, 84853, Note_on_c, 9, 35, 0
4, 84866, Note_on_c, 9, 44, 0
4, 84929, Note_on_c, 9, 40, 31
4, 84941, Note_on_c, 9, 40, 0
4, 84958, Note_on_c, 9, 51, 0
4, 85047, Note_on_c, 9, 51, 60
4, 85065, Note_on_c, 9, 51, 0
4, 85079, Note_on_c, 9, 44, 72
4, 85080, Note_on_c, 9, 37, 49
4, 85083, Note_on_c, 9, 51, 74
4, 85097, Note_on_c, 9, 37, 0
4, 85105, Note_on_c, 9, 44, 0
4, 85146, Note_on_c, 9, 51, 0
4, 85203, Note_on_c, 9, 51, 71
4, 85233, Note_on_c, 9, 51, 0
4, 85278, Note_on_c, 9, 53, 74
4, 85285, Note_on_c, 9, 51, 57
4, 85293, Note_on_c, 9, 51, 0
4, 85306, Note_on_c, 9, 53, 0
4, 85321, Note_on_c, 9, 44, 62
4, 85333, Note_on_c, 9, 51, 31
4, 85342, Note_on_c, 9, 51, 0
4, 85345, Note_on_c, 9, 44, 0
4, 85390, Note_on_c, 9, 51, 86
4, 85392, Note_on_c, 9, 57, 83
4, 85441, Note_on_c, 9, 57, 0
4, 85470, Note_on_c, 9, 51, 0
4, 85517, Note_on_c, 9, 51, 40
4, 85519, Note_on_c, 9, 40, 38
4, 85527, Note_on_c, 9, 51, 0
4, 85530, Note_on_c, 9, 40, 0
4, 85558, Note_on_c, 9, 40, 28
4, 85561, Note_on_c, 9, 51, 46
4, 85594, Note_on_c, 9, 40, 0
4, 85623, Note_on_c, 9, 51, 0
4, 85686, Note_on_c, 9, 51, 68
4, 85686, Note_on_c, 9, 40, 36
4, 85714, Note_on_c, 9, 40, 0
4, 85733, Note_on_c, 9, 51, 0
4, 85748, Note_on_c, 9, 40, 40
4, 85762, Note_on_c, 9, 40, 0
4, 85809, Note_on_c, 9, 51, 50
4, 85853, Note_on_c, 9, 51, 0
4, 85888, Note_on_c, 9, 40, 43
4, 85900, Note_on_c, 9, 40, 0
4, 85934, Note_on_c, 9, 51, 53
4, 85937, Note_on_c, 9, 40, 33
4, 85957, Note_on_c, 9, 51, 0
4, 85961, Note_on_c, 9, 40, 0
4, 86018, Note_on_c, 9, 51, 56
4, 86018, Note_on_c, 9, 34, 32
4, 86027, Note_on_c, 9, 51, 0
4, 86031, Note_on_c, 9, 34, 0
4, 86057, Note_on_c, 9, 34, 39
4, 86059, Note_on_c, 9, 51, 43
4, 86080, Note_on_c, 9, 51, 0
4, 86130, Note_on_c, 9, 34, 0
4, 86133, Note_on_c, 9, 51, 74
4, 86137, Note_on_c, 9, 57, 68
4, 86137, Note_on_c, 9, 40, 51
4, 86141, Note_on_c, 9, 35, 67
4, 86144, Note_on_c, 9, 46, 62
4, 86175, Note_on_c, 9, 40, 0
4, 86316, Note_on_c, 9, 46, 0
4, 86477, Note_on_c, 9, 35, 0
4, 86567, Note_on_c, 9, 51, 0
4, 86569, Note_on_c, 9, 57, 0
4, 86569, End_track
5, 0, Start_track
5, 0, MIDI_port, 0
5, 0, Title_t, "Bass Drum/Snare"
5, 0, End_track
6, 0, Start_track
6, 0, MIDI_port, 0
6, 0, Title_t, "HiHats"
6, 0, End_track
7, 0, Start_track
7, 0, MIDI_port, 0
7, 0, Title_t, "Accoustic Bass "
7, 0, Program_c, 2, 32
7, 0, Control_c, 2, 7, 40
7, 28800, Note_on_c, 2, 48, 55
7, 29010, Note_on_c, 2, 43, 32
7, 29033, Note_on_c, 2, 43, 0
7, 29033, Note_on_c, 2, 48, 0
7, 29051, Note_on_c, 2, 36, 58
7, 29638, Note_on_c, 2, 48, 67
7, 29687, Note_on_c, 2, 36, 0
7, 30131, Note_on_c, 2, 36, 77
7, 30346, Note_on_c, 2, 43, 36
7, 30360, Note_on_c, 2, 43, 0
7, 30377, Note_on_c, 2, 48, 0
7, 30382, Note_on_c, 2, 62, 91
7, 30578, Note_on_c, 2, 43, 50
7, 30588, Note_on_c, 2, 43, 0
7, 30598, Note_on_c, 2, 36, 0
7, 30604, Note_on_c, 2, 62, 0
7, 30615, Note_on_c, 2, 60, 80
7, 30818, Note_on_c, 2, 48, 63
7, 30841, Note_on_c, 2, 60, 0
7, 30842, Note_on_c, 2, 48, 0
7, 30856, Note_on_c, 2, 36, 81
7, 30861, Note_on_c, 2, 48, 54
7, 31173, Note_on_c, 2, 43, 50
7, 31178, Note_on_c, 2, 48, 0
7, 31183, Note_on_c, 2, 43, 0
7, 31210, Note_on_c, 2, 62, 94
7, 31280, Note_on_c, 2, 36, 0
7, 31444, Note_on_c, 2, 62, 0
7, 31455, Note_on_c, 2, 60, 58
7, 31463, Note_on_c, 2, 60, 0
7, 31537, Note_on_c, 2, 47, 64
7, 31560, Note_on_c, 2, 47, 0
7, 31581, Note_on_c, 2, 46, 51
7, 31697, Note_on_c, 2, 46, 0
7, 31708, Note_on_c, 2, 45, 59
7, 31931, Note_on_c, 2, 45, 0
7, 31939, Note_on_c, 2, 40, 60
7, 32172, Note_on_c, 2, 40, 0
7, 32181, Note_on_c, 2, 38, 53
7, 32420, Note_on_c, 2, 52, 60
7, 32434, Note_on_c, 2, 38, 0
7, 32508, Note_on_c, 2, 52, 0
7, 32510, Note_on_c, 2, 38, 41
7, 32524, Note_on_c, 2, 38, 0
7, 32536, Note_on_c, 2, 50, 58
7, 32643, Note_on_c, 2, 50, 0
7, 32658, Note_on_c, 2, 46, 47
7, 33015, Note_on_c, 2, 46, 0
7, 33018, Note_on_c, 2, 39, 62
7, 33263, Note_on_c, 2, 51, 86
7, 33271, Note_on_c, 2, 39, 0
7, 33492, Note_on_c, 2, 39, 77
7, 33493, Note_on_c, 2, 51, 0
7, 33735, Note_on_c, 2, 51, 85
7, 33747, Note_on_c, 2, 39, 0
7, 33968, Note_on_c, 2, 51, 0
7, 33971, Note_on_c, 2, 39, 67
7, 34211, Note_on_c, 2, 51, 86
7, 34222, Note_on_c, 2, 39, 0
7, 34417, Note_on_c, 2, 39, 67
7, 34425, Note_on_c, 2, 51, 0
7, 34451, Note_on_c, 2, 39, 0
7, 34453, Note_on_c, 2, 51, 62
7, 34544, Note_on_c, 2, 39, 39
7, 34552, Note_on_c, 2, 39, 0
7, 34554, Note_on_c, 2, 51, 0
7, 34566, Note_on_c, 2, 50, 60
7, 34774, Note_on_c, 2, 42, 35
7, 34786, Note_on_c, 2, 50, 0
7, 34802, Note_on_c, 2, 42, 0
7, 34812, Note_on_c, 2, 43, 54
7, 35024, Note_on_c, 2, 38, 38
7, 35038, Note_on_c, 2, 38, 0
7, 35044, Note_on_c, 2, 43, 0
7, 35055, Note_on_c, 2, 55, 66
7, 35273, Note_on_c, 2, 55, 0
7, 35283, Note_on_c, 2, 48, 58
7, 35509, Note_on_c, 2, 48, 0
7, 35523, Note_on_c, 2, 45, 83
7, 35848, Note_on_c, 2, 37, 65
7, 35852, Note_on_c, 2, 45, 0
7, 35868, Note_on_c, 2, 37, 0
7, 35883, Note_on_c, 2, 39, 70
7, 36083, Note_on_c, 2, 37, 37
7, 36085, Note_on_c, 2, 39, 0
7, 36097, Note_on_c, 2, 37, 0
7, 36101, Note_on_c, 2, 38, 71
7, 36113, Note_on_c, 2, 38, 0
7, 36122, Note_on_c, 2, 51, 83
7, 36228, Note_on_c, 2, 51, 0
7, 36241, Note_on_c, 2, 50, 53
7, 36324, Note_on_c, 2, 50, 0
7, 36324, Note_on_c, 2, 44, 32
7, 36333, Note_on_c, 2, 44, 0
7, 36361, Note_on_c, 2, 49, 50
7, 36464, Note_on_c, 2, 49, 0
7, 36485, Note_on_c, 2, 48, 48
7, 36594, Note_on_c, 2, 48, 0
7, 36607, Note_on_c, 2, 36, 60
7, 36727, Note_on_c, 2, 48, 38
7, 36738, Note_on_c, 2, 48, 0
7, 36807, Note_on_c, 2, 48, 54
7, 36816, Note_on_c, 2, 48, 0
7, 36841, Note_on_c, 2, 48, 48
7, 36851, Note_on_c, 2, 48, 0
7, 36964, Note_on_c, 2, 48, 64
7, 36973, Note_on_c, 2, 48, 0
7, 37051, Note_on_c, 2, 48, 55
7, 37060, Note_on_c, 2, 48, 0
7, 37083, Note_on_c, 2, 48, 71
7, 37094, Note_on_c, 2, 48, 0
7, 37209, Note_on_c, 2, 48, 94
7, 37318, Note_on_c, 2, 48, 0
7, 37357, Note_on_c, 2, 47, 2
7, 37413, Note_on_c, 2, 47, 0
7, 37415, Note_on_c, 2, 48, 66
7, 37441, Note_on_c, 2, 36, 0
7, 37561, Note_on_c, 2, 36, 56
7, 37566, Note_on_c, 2, 48, 0
7, 37654, Note_on_c, 2, 60, 75
7, 37878, Note_on_c, 2, 60, 0
7, 37879, Note_on_c, 2, 48, 53
7, 37890, Note_on_c, 2, 36, 0
7, 38009, Note_on_c, 2, 36, 49
7, 38019, Note_on_c, 2, 36, 0
7, 38031, Note_on_c, 2, 48, 0
7, 38041, Note_on_c, 2, 43, 56
7, 38274, Note_on_c, 2, 43, 0
7, 38282, Note_on_c, 2, 36, 57
7, 38511, Note_on_c, 2, 36, 0
7, 38527, Note_on_c, 2, 48, 67
7, 38771, Note_on_c, 2, 36, 60
7, 38775, Note_on_c, 2, 48, 0
7, 39012, Note_on_c, 2, 48, 90
7, 39022, Note_on_c, 2, 36, 0
7, 39215, Note_on_c, 2, 44, 35
7, 39224, Note_on_c, 2, 48, 0
7, 39236, Note_on_c, 2, 44, 0
7, 39252, Note_on_c, 2, 46, 55
7, 39340, Note_on_c, 2, 46, 0
7, 39344, Note_on_c, 2, 44, 26
7, 39372, Note_on_c, 2, 44, 0
7, 39375, Note_on_c, 2, 45, 58
7, 39574, Note_on_c, 2, 40, 43
7, 39595, Note_on_c, 2, 45, 0
7, 39606, Note_on_c, 2, 40, 0
7, 39608, Note_on_c, 2, 57, 77
7, 39811, Note_on_c, 2, 38, 50
7, 39822, Note_on_c, 2, 38, 0
7, 39835, Note_on_c, 2, 57, 0
7, 39844, Note_on_c, 2, 50, 62
7, 40057, Note_on_c, 2, 35, 20
7, 40065, Note_on_c, 2, 35, 0
7, 40084, Note_on_c, 2, 38, 46
7, 40087, Note_on_c, 2, 50, 0
7, 40288, Note_on_c, 2, 33, 54
7, 40294, Note_on_c, 2, 38, 0
7, 40298, Note_on_c, 2, 33, 0
7, 40327, Note_on_c, 2, 34, 49
7, 40561, Note_on_c, 2, 39, 59
7, 40563, Note_on_c, 2, 34, 0
7, 40779, Note_on_c, 2, 34, 27
7, 40797, Note_on_c, 2, 39, 0
7, 40807, Note_on_c, 2, 34, 0
7, 40807, Note_on_c, 2, 51, 67
7, 41043, Note_on_c, 2, 39, 45
7, 41045, Note_on_c, 2, 51, 0
7, 41288, Note_on_c, 2, 51, 48
7, 41298, Note_on_c, 2, 39, 0
7, 41524, Note_on_c, 2, 39, 52
7, 41541, Note_on_c, 2, 51, 0
7, 41758, Note_on_c, 2, 51, 77
7, 41763, Note_on_c, 2, 39, 0
7, 41960, Note_on_c, 2, 51, 0
7, 42002, Note_on_c, 2, 51, 77
7, 42082, Pitch_bend_c, 2, 8192
7, 42084, Pitch_bend_c, 2, 8192
7, 42086, Pitch_bend_c, 2, 8712
7, 42087, Pitch_bend_c, 2, 8972
7, 42090, Pitch_bend_c, 2, 9362
7, 42091, Pitch_bend_c, 2, 9622
7, 42093, Pitch_bend_c, 2, 9882
7, 42094, Pitch_bend_c, 2, 10272
7, 42097, Pitch_bend_c, 2, 10532
7, 42099, Pitch_bend_c, 2, 10792
7, 42100, Pitch_bend_c, 2, 10922
7, 42103, Pitch_bend_c, 2, 11312
7, 42104, Pitch_bend_c, 2, 11442
7, 42106, Pitch_bend_c, 2, 11572
7, 42111, Pitch_bend_c, 2, 11702
7, 42117, Pitch_bend_c, 2, 11572
7, 42118, Pitch_bend_c, 2, 11442
7, 42121, Pitch_bend_c, 2, 11312
7, 42123, Pitch_bend_c, 2, 10922
7, 42127, Pitch_bend_c, 2, 10792
7, 42127, Pitch_bend_c, 2, 10402
7, 42128, Pitch_bend_c, 2, 10142
7, 42130, Pitch_bend_c, 2, 9882
7, 42132, Pitch_bend_c, 2, 9362
7, 42133, Pitch_bend_c, 2, 9102
7, 42136, Pitch_bend_c, 2, 8712
7, 42137, Pitch_bend_c, 2, 8192
7, 42139, Pitch_bend_c, 2, 8192
7, 42196, Pitch_bend_c, 2, 8192
7, 42199, Pitch_bend_c, 2, 8192
7, 42203, Pitch_bend_c, 2, 8712
7, 42205, Pitch_bend_c, 2, 8842
7, 42209, Pitch_bend_c, 2, 8972
7, 42211, Pitch_bend_c, 2, 9232
7, 42215, Pitch_bend_c, 2, 9362
7, 42216, Pitch_bend_c, 2, 9492
7, 42221, Pitch_bend_c, 2, 9622
7, 42227, Pitch_bend_c, 2, 9362
7, 42230, Pitch_bend_c, 2, 9102
7, 42231, Pitch_bend_c, 2, 8192
7, 42364, Note_on_c, 2, 51, 0
7, 42372, Note_on_c, 2, 50, 59
7, 42487, Note_on_c, 2, 50, 0
7, 42491, Note_on_c, 2, 43, 69
7, 42689, Note_on_c, 2, 38, 42
7, 42704, Note_on_c, 2, 38, 0
7, 42714, Note_on_c, 2, 43, 0
7, 42727, Note_on_c, 2, 55, 62
7, 42832, Note_on_c, 2, 55, 0
7, 42847, Note_on_c, 2, 48, 64
7, 43069, Note_on_c, 2, 48, 0
7, 43092, Note_on_c, 2, 36, 56
7, 43326, Note_on_c, 2, 36, 0
7, 43334, Note_on_c, 2, 41, 66
7, 43807, Note_on_c, 2, 41, 0
7, 43815, Note_on_c, 2, 53, 76
7, 44006, Note_on_c, 2, 39, 55
7, 44017, Note_on_c, 2, 39, 0
7, 44029, Note_on_c, 2, 53, 0
7, 44041, Note_on_c, 2, 40, 46
7, 44151, Note_on_c, 2, 40, 0
7, 44161, Note_on_c, 2, 41, 50
7, 44362, Note_on_c, 2, 48, 60
7, 44375, Note_on_c, 2, 41, 0
7, 44381, Note_on_c, 2, 48, 0
7, 44401, Note_on_c, 2, 46, 35
7, 44604, Note_on_c, 2, 41, 27
7, 44614, Note_on_c, 2, 41, 0
7, 44722, Note_on_c, 2, 41, 46
7, 44734, Note_on_c, 2, 41, 0
7, 44745, Note_on_c, 2, 46, 0
7, 44758, Note_on_c, 2, 44, 64
7, 44860, Note_on_c, 2, 44, 0
7, 44878, Note_on_c, 2, 43, 57
7, 44981, Note_on_c, 2, 43, 0
7, 44995, Note_on_c, 2, 41, 54
7, 45093, Note_on_c, 2, 41, 0
7, 45119, Note_on_c, 2, 37, 52
7, 45442, Note_on_c, 2, 44, 35
7, 45458, Note_on_c, 2, 44, 0
7, 45483, Note_on_c, 2, 53, 71
7, 45688, Note_on_c, 2, 44, 43
7, 45698, Note_on_c, 2, 44, 0
7, 45717, Note_on_c, 2, 53, 0
7, 45730, Note_on_c, 2, 51, 59
7, 45926, Note_on_c, 2, 44, 46
7, 45941, Note_on_c, 2, 44, 0
7, 45947, Note_on_c, 2, 37, 0
7, 45952, Note_on_c, 2, 51, 0
7, 45966, Note_on_c, 2, 49, 38
7, 46078, Note_on_c, 2, 49, 0
7, 46088, Note_on_c, 2, 51, 62
7, 46315, Note_on_c, 2, 51, 0
7, 46324, Note_on_c, 2, 46, 56
7, 46436, Note_on_c, 2, 46, 0
7, 46446, Note_on_c, 2, 39, 74
7, 46768, Note_on_c, 2, 53, 80
7, 46791, Note_on_c, 2, 53, 0
7, 46810, Note_on_c, 2, 39, 0
7, 46816, Note_on_c, 2, 51, 68
7, 46924, Note_on_c, 2, 51, 0
7, 46929, Note_on_c, 2, 46, 57
7, 47033, Note_on_c, 2, 46, 0
7, 47047, Note_on_c, 2, 37, 62
7, 47291, Note_on_c, 2, 53, 68
7, 47514, Note_on_c, 2, 53, 0
7, 47529, Note_on_c, 2, 52, 60
7, 47531, Note_on_c, 2, 37, 0
7, 47730, Note_on_c, 2, 43, 40
7, 47742, Note_on_c, 2, 43, 0
7, 47753, Note_on_c, 2, 52, 0
7, 47763, Note_on_c, 2, 48, 61
7, 48081, Note_on_c, 2, 43, 47
7, 48093, Note_on_c, 2, 43, 0
7, 48107, Note_on_c, 2, 48, 0
7, 48124, Note_on_c, 2, 36, 68
7, 48452, Note_on_c, 2, 36, 0
7, 48453, Note_on_c, 2, 43, 65
7, 48469, Note_on_c, 2, 43, 0
7, 48497, Note_on_c, 2, 36, 82
7, 48705, Note_on_c, 2, 43, 44
7, 48717, Note_on_c, 2, 43, 0
7, 48806, Note_on_c, 2, 43, 41
7, 48815, Note_on_c, 2, 43, 0
7, 48846, Note_on_c, 2, 48, 62
7, 48854, Note_on_c, 2, 48, 0
7, 48928, Note_on_c, 2, 50, 80
7, 48949, Note_on_c, 2, 50, 0
7, 48970, Note_on_c, 2, 48, 75
7, 49034, Note_on_c, 2, 48, 0
7, 49043, Note_on_c, 2, 36, 0
7, 49053, Note_on_c, 2, 43, 47
7, 49069, Note_on_c, 2, 43, 0
7, 49090, Note_on_c, 2, 36, 80
7, 49539, Note_on_c, 2, 43, 35
7, 49551, Note_on_c, 2, 43, 0
7, 49575, Note_on_c, 2, 50, 73
7, 49606, Note_on_c, 2, 50, 0
7, 49698, Note_on_c, 2, 48, 80
7, 49900, Note_on_c, 2, 36, 0
7, 49938, Note_on_c, 2, 48, 0
7, 49938, Note_on_c, 2, 36, 68
7, 50257, Note_on_c, 2, 50, 68
7, 50278, Note_on_c, 2, 50, 0
7, 50286, Note_on_c, 2, 36, 0
7, 50301, Note_on_c, 2, 48, 69
7, 50511, Note_on_c, 2, 48, 0
7, 50522, Note_on_c, 2, 36, 64
7, 50652, Note_on_c, 2, 46, 81
7, 50658, Note_on_c, 2, 36, 0
7, 50877, Note_on_c, 2, 46, 0
7, 50883, Note_on_c, 2, 45, 60
7, 51117, Note_on_c, 2, 45, 0
7, 51135, Note_on_c, 2, 39, 59
7, 51341, Note_on_c, 2, 37, 36
7, 51348, Note_on_c, 2, 39, 0
7, 51375, Note_on_c, 2, 37, 0
7, 51375, Note_on_c, 2, 38, 56
7, 51575, Note_on_c, 2, 37, 46
7, 51597, Note_on_c, 2, 38, 0
7, 51616, Note_on_c, 2, 37, 0
7, 51616, Note_on_c, 2, 45, 44
7, 51626, Note_on_c, 2, 45, 0
7, 51694, Note_on_c, 2, 48, 90
7, 51723, Note_on_c, 2, 48, 0
7, 51740, Note_on_c, 2, 45, 49
7, 51825, Note_on_c, 2, 37, 37
7, 51840, Note_on_c, 2, 45, 0
7, 51841, Note_on_c, 2, 37, 0
7, 51851, Note_on_c, 2, 46, 61
7, 52056, Note_on_c, 2, 39, 31
7, 52073, Note_on_c, 2, 39, 0
7, 52085, Note_on_c, 2, 46, 0
7, 52092, Note_on_c, 2, 51, 59
7, 52188, Note_on_c, 2, 51, 0
7, 52211, Note_on_c, 2, 51, 73
7, 52441, Note_on_c, 2, 51, 0
7, 52447, Note_on_c, 2, 39, 69
7, 52687, Note_on_c, 2, 39, 0
7, 52689, Note_on_c, 2, 46, 72
7, 52804, Note_on_c, 2, 46, 0
7, 52810, Note_on_c, 2, 45, 56
7, 52931, Note_on_c, 2, 57, 79
7, 52947, Note_on_c, 2, 45, 0
7, 53129, Note_on_c, 2, 39, 42
7, 53141, Note_on_c, 2, 57, 0
7, 53148, Note_on_c, 2, 39, 0
7, 53165, Note_on_c, 2, 51, 60
7, 53361, Note_on_c, 2, 50, 66
7, 53362, Note_on_c, 2, 51, 0
7, 53372, Note_on_c, 2, 50, 0
7, 53402, Note_on_c, 2, 38, 67
7, 53504, Note_on_c, 2, 38, 0
7, 53521, Note_on_c, 2, 33, 54
7, 53618, Note_on_c, 2, 33, 0
7, 53634, Note_on_c, 2, 32, 59
7, 53740, Note_on_c, 2, 32, 0
7, 53759, Note_on_c, 2, 31, 51
7, 53882, Note_on_c, 2, 43, 66
7, 53886, Note_on_c, 2, 31, 0
7, 54126, Note_on_c, 2, 43, 0
7, 54129, Note_on_c, 2, 35, 46
7, 54233, Note_on_c, 2, 35, 0
7, 54244, Note_on_c, 2, 36, 48
7, 54450, Note_on_c, 2, 36, 0
7, 54458, Note_on_c, 2, 34, 31
7, 54485, Note_on_c, 2, 34, 0
7, 54490, Note_on_c, 2, 52, 72
7, 54491, Note_on_c, 2, 36, 54
7, 54522, Note_on_c, 2, 52, 0
7, 54540, Note_on_c, 2, 36, 0
7, 54689, Note_on_c, 2, 35, 53
7, 54712, Note_on_c, 2, 35, 0
7, 54730, Note_on_c, 2, 33, 60
7, 54962, Note_on_c, 2, 33, 0
7, 54963, Note_on_c, 2, 40, 66
7, 55087, Note_on_c, 2, 49, 82
7, 55098, Note_on_c, 2, 40, 0
7, 55172, Note_on_c, 2, 50, 81
7, 55181, Note_on_c, 2, 49, 0
7, 55297, Note_on_c, 2, 40, 35
7, 55309, Note_on_c, 2, 40, 0
7, 55314, Note_on_c, 2, 50, 0
7, 55329, Note_on_c, 2, 45, 63
7, 55526, Note_on_c, 2, 38, 49
7, 55547, Note_on_c, 2, 45, 0
7, 55553, Note_on_c, 2, 38, 0
7, 55564, Note_on_c, 2, 42, 60
7, 55669, Note_on_c, 2, 42, 0
7, 55681, Note_on_c, 2, 43, 50
7, 55893, Note_on_c, 2, 38, 42
7, 55910, Note_on_c, 2, 38, 0
7, 55912, Note_on_c, 2, 43, 0
7, 55929, Note_on_c, 2, 34, 56
7, 56038, Note_on_c, 2, 34, 0
7, 56046, Note_on_c, 2, 35, 55
7, 56129, Note_on_c, 2, 34, 34
7, 56147, Note_on_c, 2, 35, 0
7, 56162, Note_on_c, 2, 34, 0
7, 56168, Note_on_c, 2, 36, 55
7, 56369, Note_on_c, 2, 50, 68
7, 56388, Note_on_c, 2, 50, 0
7, 56394, Note_on_c, 2, 36, 0
7, 56411, Note_on_c, 2, 48, 50
7, 56495, Note_on_c, 2, 36, 53
7, 56507, Note_on_c, 2, 36, 0
7, 56726, Note_on_c, 2, 34, 37
7, 56751, Note_on_c, 2, 34, 0
7, 56752, Note_on_c, 2, 48, 0
7, 56772, Note_on_c, 2, 36, 71
7, 56968, Note_on_c, 2, 34, 39
7, 56993, Note_on_c, 2, 36, 0
7, 57004, Note_on_c, 2, 34, 0
7, 57009, Note_on_c, 2, 48, 96
7, 57325, Note_on_c, 2, 34, 29
7, 57349, Note_on_c, 2, 48, 0
7, 57352, Note_on_c, 2, 34, 0
7, 57364, Note_on_c, 2, 36, 48
7, 57455, Note_on_c, 2, 34, 38
7, 57465, Note_on_c, 2, 36, 0
7, 57481, Note_on_c, 2, 34, 0
7, 57488, Note_on_c, 2, 49, 75
7, 57591, Note_on_c, 2, 49, 0
7, 57610, Note_on_c, 2, 48, 56
7, 57690, Note_on_c, 2, 43, 60
7, 57698, Note_on_c, 2, 48, 0
7, 57712, Note_on_c, 2, 43, 0
7, 57730, Note_on_c, 2, 37, 46
7, 57840, Note_on_c, 2, 37, 0
7, 57851, Note_on_c, 2, 36, 54
7, 57938, Note_on_c, 2, 43, 51
7, 57947, Note_on_c, 2, 43, 0
7, 57957, Note_on_c, 2, 36, 0
7, 57967, Note_on_c, 2, 50, 82
7, 58075, Note_on_c, 2, 50, 0
7, 58090, Note_on_c, 2, 48, 51
7, 58201, Note_on_c, 2, 48, 0
7, 58208, Note_on_c, 2, 37, 67
7, 58332, Note_on_c, 2, 36, 70
7, 58335, Note_on_c, 2, 37, 0
7, 58416, Note_on_c, 2, 37, 58
7, 58437, Note_on_c, 2, 36, 0
7, 58444, Note_on_c, 2, 37, 0
7, 58454, Note_on_c, 2, 55, 84
7, 58564, Note_on_c, 2, 55, 0
7, 58576, Note_on_c, 2, 53, 67
7, 58665, Note_on_c, 2, 42, 31
7, 58681, Note_on_c, 2, 53, 0
7, 58682, Note_on_c, 2, 42, 0
7, 58695, Note_on_c, 2, 52, 59
7, 58802, Note_on_c, 2, 52, 0
7, 58816, Note_on_c, 2, 48, 36
7, 58902, Note_on_c, 2, 43, 34
7, 58915, Note_on_c, 2, 43, 0
7, 58919, Note_on_c, 2, 48, 0
7, 58932, Note_on_c, 2, 46, 50
7, 59034, Note_on_c, 2, 46, 0
7, 59049, Note_on_c, 2, 45, 50
7, 59151, Note_on_c, 2, 45, 0
7, 59163, Note_on_c, 2, 44, 51
7, 59273, Note_on_c, 2, 44, 0
7, 59288, Note_on_c, 2, 43, 45
7, 59388, Note_on_c, 2, 36, 49
7, 59398, Note_on_c, 2, 43, 0
7, 59518, Note_on_c, 2, 36, 0
7, 59518, Note_on_c, 2, 34, 44
7, 59527, Note_on_c, 2, 34, 0
7, 59536, Note_on_c, 2, 36, 70
7, 59625, Note_on_c, 2, 34, 33
7, 59638, Note_on_c, 2, 34, 0
7, 59640, Note_on_c, 2, 36, 0
7, 59650, Note_on_c, 2, 50, 72
7, 59730, Note_on_c, 2, 34, 19
7, 59751, Note_on_c, 2, 34, 0
7, 59752, Note_on_c, 2, 50, 0
7, 59768, Note_on_c, 2, 48, 55
7, 59875, Note_on_c, 2, 48, 0
7, 59887, Note_on_c, 2, 36, 84
7, 60006, Note_on_c, 2, 52, 80
7, 60014, Note_on_c, 2, 36, 0
7, 60116, Note_on_c, 2, 52, 0
7, 60130, Note_on_c, 2, 48, 57
7, 60250, Note_on_c, 2, 48, 0
7, 60250, Note_on_c, 2, 36, 58
7, 60353, Note_on_c, 2, 36, 0
7, 60365, Note_on_c, 2, 34, 51
7, 60471, Note_on_c, 2, 34, 0
7, 60485, Note_on_c, 2, 33, 58
7, 60592, Note_on_c, 2, 33, 0
7, 60607, Note_on_c, 2, 33, 77
7, 60728, Note_on_c, 2, 45, 58
7, 60748, Note_on_c, 2, 33, 0
7, 60811, Note_on_c, 2, 40, 61
7, 60812, Note_on_c, 2, 45, 0
7, 60841, Note_on_c, 2, 40, 0
7, 60852, Note_on_c, 2, 39, 55
7, 60939, Note_on_c, 2, 37, 39
7, 60951, Note_on_c, 2, 39, 0
7, 60964, Note_on_c, 2, 37, 0
7, 60969, Note_on_c, 2, 38, 51
7, 61056, Note_on_c, 2, 37, 38
7, 61066, Note_on_c, 2, 38, 0
7, 61083, Note_on_c, 2, 51, 77
7, 61089, Note_on_c, 2, 37, 0
7, 61200, Note_on_c, 2, 51, 0
7, 61210, Note_on_c, 2, 50, 50
7, 61323, Note_on_c, 2, 50, 0
7, 61325, Note_on_c, 2, 45, 76
7, 61417, Note_on_c, 2, 42, 19
7, 61436, Note_on_c, 2, 42, 0
7, 61436, Note_on_c, 2, 45, 0
7, 61450, Note_on_c, 2, 46, 52
7, 61570, Note_on_c, 2, 39, 62
7, 61634, Note_on_c, 2, 46, 0
7, 61690, Note_on_c, 2, 53, 80
7, 61802, Note_on_c, 2, 53, 0
7, 61809, Note_on_c, 2, 52, 65
7, 61828, Note_on_c, 2, 39, 0
7, 61923, Note_on_c, 2, 52, 0
7, 61936, Note_on_c, 2, 51, 48
7, 62053, Note_on_c, 2, 39, 85
7, 62056, Note_on_c, 2, 51, 0
7, 62157, Note_on_c, 2, 39, 0
7, 62174, Note_on_c, 2, 39, 74
7, 62288, Note_on_c, 2, 39, 0
7, 62295, Note_on_c, 2, 51, 86
7, 62410, Note_on_c, 2, 39, 55
7, 62416, Note_on_c, 2, 51, 0
7, 62521, Note_on_c, 2, 39, 0
7, 62532, Note_on_c, 2, 39, 86
7, 62652, Note_on_c, 2, 51, 83
7, 62654, Note_on_c, 2, 39, 0
7, 62769, Note_on_c, 2, 39, 75
7, 62774, Note_on_c, 2, 51, 0
7, 62874, Note_on_c, 2, 39, 0
7, 62888, Note_on_c, 2, 39, 76
7, 63002, Note_on_c, 2, 51, 90
7, 63021, Note_on_c, 2, 39, 0
7, 63202, Note_on_c, 2, 39, 70
7, 63224, Note_on_c, 2, 51, 0
7, 63231, Note_on_c, 2, 39, 0
7, 63242, Note_on_c, 2, 49, 73
7, 63344, Note_on_c, 2, 49, 0
7, 63357, Note_on_c, 2, 50, 60
7, 63393, Note_on_c, 2, 50, 0
7, 63443, Note_on_c, 2, 45, 58
7, 63467, Note_on_c, 2, 45, 0
7, 63485, Note_on_c, 2, 41, 55
7, 63590, Note_on_c, 2, 41, 0
7, 63604, Note_on_c, 2, 43, 55
7, 63720, Note_on_c, 2, 43, 0
7, 63723, Note_on_c, 2, 34, 60
7, 63748, Note_on_c, 2, 34, 0
7, 63779, Note_on_c, 2, 34, 10
7, 63828, Note_on_c, 2, 34, 0
7, 63842, Note_on_c, 2, 31, 54
7, 63947, Note_on_c, 2, 31, 0
7, 63965, Note_on_c, 2, 37, 58
7, 64084, Note_on_c, 2, 36, 58
7, 64089, Note_on_c, 2, 37, 0
7, 64164, Note_on_c, 2, 38, 55
7, 64182, Note_on_c, 2, 36, 0
7, 64187, Note_on_c, 2, 38, 0
7, 64202, Note_on_c, 2, 50, 57
7, 64299, Note_on_c, 2, 50, 0
7, 64319, Note_on_c, 2, 45, 48
7, 64408, Note_on_c, 2, 40, 42
7, 64420, Note_on_c, 2, 45, 0
7, 64435, Note_on_c, 2, 40, 0
7, 64440, Note_on_c, 2, 45, 60
7, 64554, Note_on_c, 2, 45, 0
7, 64565, Note_on_c, 2, 39, 52
7, 64663, Note_on_c, 2, 39, 0
7, 64680, Note_on_c, 2, 39, 64
7, 64789, Note_on_c, 2, 39, 0
7, 64803, Note_on_c, 2, 38, 61
7, 64883, Note_on_c, 2, 37, 42
7, 64915, Note_on_c, 2, 37, 0
7, 64921, Note_on_c, 2, 38, 0
7, 64922, Note_on_c, 2, 52, 87
7, 65033, Note_on_c, 2, 52, 0
7, 65041, Note_on_c, 2, 45, 52
7, 65152, Note_on_c, 2, 45, 0
7, 65164, Note_on_c, 2, 43, 49
7, 65251, Note_on_c, 2, 38, 36
7, 65263, Note_on_c, 2, 38, 0
7, 65270, Note_on_c, 2, 43, 0
7, 65285, Note_on_c, 2, 48, 58
7, 65403, Note_on_c, 2, 48, 0
7, 65404, Note_on_c, 2, 36, 66
7, 65529, Note_on_c, 2, 48, 70
7, 65542, Note_on_c, 2, 48, 0
7, 65610, Note_on_c, 2, 50, 66
7, 65627, Note_on_c, 2, 50, 0
7, 65634, Note_on_c, 2, 36, 0
7, 65651, Note_on_c, 2, 48, 67
7, 65875, Note_on_c, 2, 48, 0
7, 65884, Note_on_c, 2, 36, 66
7, 66133, Note_on_c, 2, 52, 47
7, 66148, Note_on_c, 2, 52, 0
7, 66154, Note_on_c, 2, 36, 0
7, 66171, Note_on_c, 2, 50, 56
7, 66194, Note_on_c, 2, 50, 0
7, 66219, Note_on_c, 2, 48, 74
7, 66418, Note_on_c, 2, 48, 0
7, 66428, Note_on_c, 2, 45, 43
7, 66448, Note_on_c, 2, 45, 0
7, 66459, Note_on_c, 2, 44, 58
7, 66491, Note_on_c, 2, 44, 0
7, 66500, Note_on_c, 2, 43, 59
7, 66597, Note_on_c, 2, 43, 0
7, 66603, Note_on_c, 2, 36, 72
7, 66845, Note_on_c, 2, 48, 80
7, 66877, Note_on_c, 2, 48, 0
7, 66960, Note_on_c, 2, 48, 75
7, 66996, Note_on_c, 2, 36, 0
7, 67029, Note_on_c, 2, 48, 0
7, 67035, Note_on_c, 2, 50, 58
7, 67060, Note_on_c, 2, 50, 0
7, 67080, Note_on_c, 2, 48, 60
7, 67163, Note_on_c, 2, 36, 85
7, 67168, Note_on_c, 2, 48, 0
7, 67330, Note_on_c, 2, 36, 0
7, 67334, Note_on_c, 2, 48, 61
7, 67399, Note_on_c, 2, 48, 0
7, 67404, Note_on_c, 2, 50, 62
7, 67430, Note_on_c, 2, 50, 0
7, 67451, Note_on_c, 2, 48, 56
7, 67519, Note_on_c, 2, 48, 0
7, 67531, Note_on_c, 2, 43, 63
7, 67658, Note_on_c, 2, 43, 0
7, 67688, Note_on_c, 2, 36, 74
7, 67898, Note_on_c, 2, 48, 72
7, 67913, Note_on_c, 2, 36, 0
7, 67922, Note_on_c, 2, 48, 0
7, 67940, Note_on_c, 2, 47, 58
7, 68025, Note_on_c, 2, 36, 40
7, 68036, Note_on_c, 2, 36, 0
7, 68038, Note_on_c, 2, 47, 0
7, 68054, Note_on_c, 2, 46, 48
7, 68162, Note_on_c, 2, 46, 0
7, 68175, Note_on_c, 2, 45, 40
7, 68372, Note_on_c, 2, 40, 46
7, 68382, Note_on_c, 2, 40, 0
7, 68410, Note_on_c, 2, 33, 53
7, 68602, Note_on_c, 2, 45, 0
7, 68614, Note_on_c, 2, 37, 37
7, 68618, Note_on_c, 2, 33, 0
7, 68640, Note_on_c, 2, 37, 0
7, 68644, Note_on_c, 2, 38, 36
7, 68737, Note_on_c, 2, 37, 26
7, 68751, Note_on_c, 2, 38, 0
7, 68767, Note_on_c, 2, 54, 62
7, 68775, Note_on_c, 2, 37, 0
7, 69095, Note_on_c, 2, 54, 0
7, 69095, Note_on_c, 2, 48, 57
7, 69123, Note_on_c, 2, 48, 0
7, 69150, Note_on_c, 2, 46, 31
7, 69326, Note_on_c, 2, 41, 46
7, 69338, Note_on_c, 2, 41, 0
7, 69369, Note_on_c, 2, 41, 63
7, 69474, Note_on_c, 2, 41, 0
7, 69484, Note_on_c, 2, 46, 0
7, 69488, Note_on_c, 2, 34, 45
7, 69593, Note_on_c, 2, 34, 0
7, 69602, Note_on_c, 2, 39, 56
7, 69728, Note_on_c, 2, 51, 64
7, 69753, Note_on_c, 2, 51, 0
7, 69845, Note_on_c, 2, 51, 61
7, 69906, Note_on_c, 2, 51, 0
7, 69921, Note_on_c, 2, 53, 55
7, 69946, Note_on_c, 2, 53, 0
7, 69966, Note_on_c, 2, 39, 0
7, 69966, Note_on_c, 2, 51, 53
7, 70072, Note_on_c, 2, 51, 0
7, 70094, Note_on_c, 2, 46, 34
7, 70135, Note_on_c, 2, 46, 0
7, 70160, Note_on_c, 2, 46, 50
7, 70199, Note_on_c, 2, 46, 0
7, 70208, Note_on_c, 2, 41, 53
7, 70406, Note_on_c, 2, 37, 37
7, 70413, Note_on_c, 2, 41, 0
7, 70429, Note_on_c, 2, 37, 0
7, 70445, Note_on_c, 2, 38, 51
7, 70554, Note_on_c, 2, 38, 0
7, 70562, Note_on_c, 2, 39, 58
7, 70687, Note_on_c, 2, 39, 0
7, 70689, Note_on_c, 2, 51, 65
7, 70778, Note_on_c, 2, 51, 0
7, 70810, Note_on_c, 2, 51, 61
7, 70885, Note_on_c, 2, 51, 0
7, 70889, Note_on_c, 2, 39, 43
7, 70918, Note_on_c, 2, 39, 0
7, 70929, Note_on_c, 2, 49, 52
7, 71027, Note_on_c, 2, 49, 0
7, 71047, Note_on_c, 2, 50, 45
7, 71146, Note_on_c, 2, 50, 0
7, 71163, Note_on_c, 2, 44, 52
7, 71270, Note_on_c, 2, 44, 0
7, 71284, Note_on_c, 2, 43, 51
7, 71403, Note_on_c, 2, 43, 0
7, 71405, Note_on_c, 2, 31, 71
7, 71534, Note_on_c, 2, 43, 72
7, 71538, Note_on_c, 2, 31, 0
7, 71651, Note_on_c, 2, 36, 74
7, 71652, Note_on_c, 2, 43, 0
7, 71774, Note_on_c, 2, 48, 89
7, 71779, Note_on_c, 2, 36, 0
7, 71880, Note_on_c, 2, 48, 0
7, 71888, Note_on_c, 2, 40, 47
7, 71992, Note_on_c, 2, 40, 0
7, 72005, Note_on_c, 2, 41, 55
7, 72200, Note_on_c, 2, 36, 57
7, 72205, Note_on_c, 2, 41, 0
7, 72228, Note_on_c, 2, 36, 0
7, 72235, Note_on_c, 2, 33, 64
7, 72433, Note_on_c, 2, 34, 65
7, 72434, Note_on_c, 2, 33, 0
7, 72566, Note_on_c, 2, 32, 33
7, 72569, Note_on_c, 2, 34, 0
7, 72589, Note_on_c, 2, 32, 0
7, 72593, Note_on_c, 2, 35, 64
7, 72798, Note_on_c, 2, 35, 0
7, 72804, Note_on_c, 2, 36, 58
7, 72815, Note_on_c, 2, 36, 0
7, 72842, Note_on_c, 2, 40, 47
7, 72951, Note_on_c, 2, 40, 0
7, 72964, Note_on_c, 2, 41, 54
7, 73177, Note_on_c, 2, 39, 40
7, 73186, Note_on_c, 2, 39, 0
7, 73200, Note_on_c, 2, 41, 0
7, 73214, Note_on_c, 2, 44, 53
7, 73326, Note_on_c, 2, 44, 0
7, 73326, Note_on_c, 2, 48, 66
7, 73519, Note_on_c, 2, 48, 0
7, 73524, Note_on_c, 2, 41, 53
7, 73539, Note_on_c, 2, 41, 0
7, 73558, Note_on_c, 2, 51, 69
7, 73668, Note_on_c, 2, 51, 0
7, 73683, Note_on_c, 2, 48, 45
7, 73750, Note_on_c, 2, 48, 0
7, 73797, Note_on_c, 2, 48, 51
7, 73887, Note_on_c, 2, 48, 0
7, 73892, Note_on_c, 2, 41, 30
7, 73909, Note_on_c, 2, 41, 0
7, 73918, Note_on_c, 2, 49, 54
7, 73970, Note_on_c, 2, 49, 0
7, 74001, Note_on_c, 2, 46, 45
7, 74029, Note_on_c, 2, 46, 0
7, 74041, Note_on_c, 2, 47, 49
7, 74124, Note_on_c, 2, 47, 0
7, 74125, Note_on_c, 2, 41, 27
7, 74134, Note_on_c, 2, 41, 0
7, 74136, Note_on_c, 2, 44, 30
7, 74146, Note_on_c, 2, 44, 0
7, 74171, Note_on_c, 2, 45, 44
7, 74227, Note_on_c, 2, 45, 0
7, 74243, Note_on_c, 2, 39, 39
7, 74253, Note_on_c, 2, 39, 0
7, 74357, Note_on_c, 2, 44, 80
7, 74485, Note_on_c, 2, 44, 0
7, 74488, Note_on_c, 2, 38, 41
7, 74500, Note_on_c, 2, 38, 0
7, 74520, Note_on_c, 2, 43, 48
7, 74611, Note_on_c, 2, 43, 0
7, 74638, Note_on_c, 2, 42, 50
7, 74687, Note_on_c, 2, 42, 0
7, 74727, Note_on_c, 2, 37, 71
7, 74749, Note_on_c, 2, 37, 0
7, 74759, Note_on_c, 2, 38, 60
7, 74851, Note_on_c, 2, 37, 23
7, 74867, Note_on_c, 2, 38, 0
7, 74868, Note_on_c, 2, 37, 0
7, 74883, Note_on_c, 2, 39, 52
7, 74972, Note_on_c, 2, 51, 64
7, 74981, Note_on_c, 2, 39, 0
7, 74995, Note_on_c, 2, 51, 0
7, 75010, Note_on_c, 2, 49, 35
7, 75018, Note_on_c, 2, 50, 59
7, 75031, Note_on_c, 2, 49, 0
7, 75112, Note_on_c, 2, 50, 0
7, 75133, Note_on_c, 2, 48, 57
7, 75217, Note_on_c, 2, 38, 42
7, 75223, Note_on_c, 2, 48, 0
7, 75230, Note_on_c, 2, 38, 0
7, 75252, Note_on_c, 2, 46, 49
7, 75351, Note_on_c, 2, 46, 0
7, 75366, Note_on_c, 2, 43, 47
7, 75469, Note_on_c, 2, 43, 0
7, 75484, Note_on_c, 2, 39, 52
7, 75581, Note_on_c, 2, 39, 0
7, 75606, Note_on_c, 2, 36, 35
7, 75699, Note_on_c, 2, 36, 0
7, 75722, Note_on_c, 2, 38, 70
7, 75829, Note_on_c, 2, 38, 0
7, 75842, Note_on_c, 2, 37, 57
7, 75964, Note_on_c, 2, 51, 69
7, 75997, Note_on_c, 2, 37, 0
7, 76050, Note_on_c, 2, 37, 23
7, 76070, Note_on_c, 2, 37, 0
7, 76070, Note_on_c, 2, 51, 0
7, 76091, Note_on_c, 2, 49, 48
7, 76097, Note_on_c, 2, 51, 23
7, 76192, Note_on_c, 2, 51, 0
7, 76196, Note_on_c, 2, 49, 0
7, 76204, Note_on_c, 2, 37, 45
7, 76322, Note_on_c, 2, 37, 0
7, 76327, Note_on_c, 2, 36, 61
7, 76413, Note_on_c, 2, 37, 45
7, 76427, Note_on_c, 2, 36, 0
7, 76437, Note_on_c, 2, 37, 0
7, 76449, Note_on_c, 2, 50, 58
7, 76553, Note_on_c, 2, 50, 0
7, 76571, Note_on_c, 2, 48, 53
7, 76659, Note_on_c, 2, 39, 39
7, 76662, Note_on_c, 2, 48, 0
7, 76684, Note_on_c, 2, 39, 0
7, 76694, Note_on_c, 2, 47, 55
7, 76791, Note_on_c, 2, 47, 0
7, 76814, Note_on_c, 2, 48, 52
7, 77023, Note_on_c, 2, 43, 28
7, 77033, Note_on_c, 2, 43, 0
7, 77052, Note_on_c, 2, 48, 0
7, 77054, Note_on_c, 2, 36, 64
7, 77232, Note_on_c, 2, 43, 36
7, 77245, Note_on_c, 2, 43, 0
7, 77280, Note_on_c, 2, 48, 57
7, 77290, Note_on_c, 2, 48, 0
7, 77355, Note_on_c, 2, 48, 85
7, 77607, Note_on_c, 2, 43, 46
7, 77608, Note_on_c, 2, 36, 0
7, 77619, Note_on_c, 2, 43, 0
7, 77619, Note_on_c, 2, 48, 0
7, 77644, Note_on_c, 2, 36, 80
7, 77715, Note_on_c, 2, 36, 0
7, 77731, Note_on_c, 2, 36, 84
7, 77847, Note_on_c, 2, 43, 38
7, 77858, Note_on_c, 2, 43, 0
7, 77885, Note_on_c, 2, 48, 74
7, 77895, Note_on_c, 2, 48, 0
7, 77968, Note_on_c, 2, 48, 57
7, 77977, Note_on_c, 2, 48, 0
7, 78007, Note_on_c, 2, 48, 79
7, 78182, Note_on_c, 2, 36, 0
7, 78355, Note_on_c, 2, 48, 0
7, 78368, Note_on_c, 2, 36, 75
7, 78613, Note_on_c, 2, 48, 96
7, 78619, Note_on_c, 2, 36, 0
7, 78844, Note_on_c, 2, 36, 89
7, 78850, Note_on_c, 2, 48, 0
7, 79092, Note_on_c, 2, 48, 105
7, 79194, Note_on_c, 2, 36, 0
7, 79315, Note_on_c, 2, 48, 0
7, 79325, Note_on_c, 2, 36, 90
7, 79554, Note_on_c, 2, 36, 0
7, 79563, Note_on_c, 2, 34, 65
7, 79672, Note_on_c, 2, 34, 0
7, 79686, Note_on_c, 2, 33, 65
7, 79913, Note_on_c, 2, 33, 0
7, 79927, Note_on_c, 2, 39, 69
7, 80140, Note_on_c, 2, 37, 37
7, 80152, Note_on_c, 2, 39, 0
7, 80169, Note_on_c, 2, 37, 0
7, 80172, Note_on_c, 2, 38, 59
7, 80280, Note_on_c, 2, 37, 29
7, 80287, Note_on_c, 2, 38, 0
7, 80290, Note_on_c, 2, 51, 71
7, 80306, Note_on_c, 2, 37, 0
7, 80489, Note_on_c, 2, 50, 60
7, 80497, Note_on_c, 2, 50, 0
7, 80498, Note_on_c, 2, 51, 0
7, 80530, Note_on_c, 2, 45, 60
7, 80620, Note_on_c, 2, 42, 25
7, 80632, Note_on_c, 2, 45, 0
7, 80643, Note_on_c, 2, 42, 0
7, 80647, Note_on_c, 2, 46, 64
7, 80870, Note_on_c, 2, 46, 0
7, 80890, Note_on_c, 2, 41, 53
7, 81126, Note_on_c, 2, 41, 0
7, 81127, Note_on_c, 2, 39, 55
7, 81375, Note_on_c, 2, 51, 78
7, 81417, Note_on_c, 2, 39, 0
7, 81575, Note_on_c, 2, 44, 27
7, 81592, Note_on_c, 2, 44, 0
7, 81606, Note_on_c, 2, 51, 0
7, 81611, Note_on_c, 2, 45, 69
7, 81803, Note_on_c, 2, 42, 32
7, 81851, Note_on_c, 2, 50, 64
7, 81853, Note_on_c, 2, 42, 0
7, 81855, Note_on_c, 2, 45, 0
7, 82042, Note_on_c, 2, 45, 45
7, 82066, Note_on_c, 2, 45, 0
7, 82088, Note_on_c, 2, 38, 67
7, 82098, Note_on_c, 2, 50, 0
7, 82285, Note_on_c, 2, 42, 37
7, 82289, Note_on_c, 2, 38, 0
7, 82319, Note_on_c, 2, 42, 0
7, 82324, Note_on_c, 2, 44, 67
7, 82529, Note_on_c, 2, 42, 36
7, 82548, Note_on_c, 2, 44, 0
7, 82556, Note_on_c, 2, 42, 0
7, 82564, Note_on_c, 2, 43, 54
7, 82795, Note_on_c, 2, 43, 0
7, 82806, Note_on_c, 2, 37, 55
7, 83029, Note_on_c, 2, 34, 21
7, 83036, Note_on_c, 2, 37, 0
7, 83043, Note_on_c, 2, 34, 0
7, 83044, Note_on_c, 2, 36, 68
7, 83295, Note_on_c, 2, 34, 82
7, 83299, Note_on_c, 2, 36, 0
7, 83516, Note_on_c, 2, 34, 0
7, 83524, Note_on_c, 2, 33, 71
7, 83745, Note_on_c, 2, 34, 39
7, 83750, Note_on_c, 2, 33, 0
7, 83759, Note_on_c, 2, 34, 0
7, 83768, Note_on_c, 2, 39, 78
7, 83975, Note_on_c, 2, 37, 47
7, 83976, Note_on_c, 2, 39, 0
7, 84008, Note_on_c, 2, 38, 80
7, 84012, Note_on_c, 2, 37, 0
7, 84199, Note_on_c, 2, 37, 23
7, 84206, Note_on_c, 2, 51, 72
7, 84224, Note_on_c, 2, 37, 0
7, 84233, Note_on_c, 2, 51, 0
7, 84250, Note_on_c, 2, 50, 54
7, 84286, Note_on_c, 2, 38, 0
7, 84356, Note_on_c, 2, 44, 71
7, 84360, Note_on_c, 2, 50, 0
7, 84473, Note_on_c, 2, 44, 0
7, 84480, Note_on_c, 2, 43, 63
7, 84710, Note_on_c, 2, 43, 0
7, 84720, Note_on_c, 2, 34, 63
7, 84824, Note_on_c, 2, 34, 0
7, 84837, Note_on_c, 2, 35, 57
7, 84936, Note_on_c, 2, 34, 25
7, 84951, Note_on_c, 2, 35, 0
7, 84959, Note_on_c, 2, 34, 0
7, 84963, Note_on_c, 2, 36, 71
7, 85805, Note_on_c, 2, 36, 0
7, 85805, End_track
8, 0, Start_track
8, 0, MIDI_port, 0
8, 0, End_track
0, 0, End_of_file
